  0
SECTION
  2
HEADER
  9
$ACADVER
  1
AC1032
  9
$ACADMAINTVER
 90
4
  9
$DWGCODEPAGE
  3
ANSI_1252
  9
$LASTSAVEDBY
  1
ezdxf
  9
$REQUIREDVERSIONS
160
0
  9
$INSBASE
 10
0.0
 20
0.0
 30
0.0
  9
$EXTMIN
 10
1e+20
 20
1e+20
 30
1e+20
  9
$EXTMAX
 10
-1e+20
 20
-1e+20
 30
-1e+20
  9
$LIMMIN
 10
0.0
 20
0.0
  9
$LIMMAX
 10
420.0
 20
297.0
  9
$ORTHOMODE
 70
0
  9
$REGENMODE
 70
1
  9
$FILLMODE
 70
1
  9
$QTEXTMODE
 70
0
  9
$MIRRTEXT
 70
1
  9
$LTSCALE
 40
1.0
  9
$ATTMODE
 70
1
  9
$TEXTSIZE
 40
2.5
  9
$TRACEWID
 40
1.0
  9
$TEXTSTYLE
  7
Standard
  9
$CLAYER
  8
0
  9
$CELTYPE
  6
ByLayer
  9
$CECOLOR
 62
256
  9
$CELTSCALE
 40
1.0
  9
$DISPSILH
 70
0
  9
$DIMSCALE
 40
1.0
  9
$DIMASZ
 40
2.5
  9
$DIMEXO
 40
0.625
  9
$DIMDLI
 40
3.75
  9
$DIMRND
 40
0.0
  9
$DIMDLE
 40
0.0
  9
$DIMEXE
 40
1.25
  9
$DIMTP
 40
0.0
  9
$DIMTM
 40
0.0
  9
$DIMTXT
 40
2.5
  9
$DIMCEN
 40
2.5
  9
$DIMTSZ
 40
0.0
  9
$DIMTOL
 70
0
  9
$DIMLIM
 70
0
  9
$DIMTIH
 70
0
  9
$DIMTOH
 70
0
  9
$DIMSE1
 70
0
  9
$DIMSE2
 70
0
  9
$DIMTAD
 70
1
  9
$DIMZIN
 70
8
  9
$DIMBLK
  1

  9
$DIMASO
 70
1
  9
$DIMSHO
 70
1
  9
$DIMPOST
  1

  9
$DIMAPOST
  1

  9
$DIMALT
 70
0
  9
$DIMALTD
 70
3
  9
$DIMALTF
 40
0.03937007874
  9
$DIMLFAC
 40
1.0
  9
$DIMTOFL
 70
1
  9
$DIMTVP
 40
0.0
  9
$DIMTIX
 70
0
  9
$DIMSOXD
 70
0
  9
$DIMSAH
 70
0
  9
$DIMBLK1
  1

  9
$DIMBLK2
  1

  9
$DIMSTYLE
  2
ISO-25
  9
$DIMCLRD
 70
0
  9
$DIMCLRE
 70
0
  9
$DIMCLRT
 70
0
  9
$DIMTFAC
 40
1.0
  9
$DIMGAP
 40
0.625
  9
$DIMJUST
 70
0
  9
$DIMSD1
 70
0
  9
$DIMSD2
 70
0
  9
$DIMTOLJ
 70
0
  9
$DIMTZIN
 70
8
  9
$DIMALTZ
 70
0
  9
$DIMALTTZ
 70
0
  9
$DIMUPT
 70
0
  9
$DIMDEC
 70
2
  9
$DIMTDEC
 70
2
  9
$DIMALTU
 70
2
  9
$DIMALTTD
 70
3
  9
$DIMTXSTY
  7
Standard
  9
$DIMAUNIT
 70
0
  9
$DIMADEC
 70
0
  9
$DIMALTRND
 40
0.0
  9
$DIMAZIN
 70
0
  9
$DIMDSEP
 70
44
  9
$DIMATFIT
 70
3
  9
$DIMFRAC
 70
0
  9
$DIMLDRBLK
  1

  9
$DIMLUNIT
 70
2
  9
$DIMLWD
 70
-2
  9
$DIMLWE
 70
-2
  9
$DIMTMOVE
 70
0
  9
$DIMFXL
 40
1.0
  9
$DIMFXLON
 70
0
  9
$DIMJOGANG
 40
0.785398163397
  9
$DIMTFILL
 70
0
  9
$DIMTFILLCLR
 70
0
  9
$DIMARCSYM
 70
0
  9
$DIMLTYPE
  6

  9
$DIMLTEX1
  6

  9
$DIMLTEX2
  6

  9
$DIMTXTDIRECTION
 70
0
  9
$LUNITS
 70
2
  9
$LUPREC
 70
4
  9
$SKETCHINC
 40
1.0
  9
$FILLETRAD
 40
10.0
  9
$AUNITS
 70
0
  9
$AUPREC
 70
2
  9
$MENU
  1
.
  9
$ELEVATION
 40
0.0
  9
$PELEVATION
 40
0.0
  9
$THICKNESS
 40
0.0
  9
$LIMCHECK
 70
0
  9
$CHAMFERA
 40
0.0
  9
$CHAMFERB
 40
0.0
  9
$CHAMFERC
 40
0.0
  9
$CHAMFERD
 40
0.0
  9
$SKPOLY
 70
0
  9
$TDCREATE
 40
2461203.910416667
  9
$TDUCREATE
 40
2458532.153996898
  9
$TDUPDATE
 40
2461203.910451389
  9
$TDUUPDATE
 40
2458532.1544311
  9
$TDINDWG
 40
0.0
  9
$TDUSRTIMER
 40
0.0
  9
$USRTIMER
 70
1
  9
$ANGBASE
 50
0.0
  9
$ANGDIR
 70
0
  9
$PDMODE
 70
0
  9
$PDSIZE
 40
0.0
  9
$PLINEWID
 40
0.0
  9
$SPLFRAME
 70
0
  9
$SPLINETYPE
 70
6
  9
$SPLINESEGS
 70
8
  9
$HANDSEED
  5
2B9
  9
$SURFTAB1
 70
6
  9
$SURFTAB2
 70
6
  9
$SURFTYPE
 70
6
  9
$SURFU
 70
6
  9
$SURFV
 70
6
  9
$UCSBASE
  2

  9
$UCSNAME
  2

  9
$UCSORG
 10
0.0
 20
0.0
 30
0.0
  9
$UCSXDIR
 10
1.0
 20
0.0
 30
0.0
  9
$UCSYDIR
 10
0.0
 20
1.0
 30
0.0
  9
$UCSORTHOREF
  2

  9
$UCSORTHOVIEW
 70
0
  9
$UCSORGTOP
 10
0.0
 20
0.0
 30
0.0
  9
$UCSORGBOTTOM
 10
0.0
 20
0.0
 30
0.0
  9
$UCSORGLEFT
 10
0.0
 20
0.0
 30
0.0
  9
$UCSORGRIGHT
 10
0.0
 20
0.0
 30
0.0
  9
$UCSORGFRONT
 10
0.0
 20
0.0
 30
0.0
  9
$UCSORGBACK
 10
0.0
 20
0.0
 30
0.0
  9
$PUCSBASE
  2

  9
$PUCSNAME
  2

  9
$PUCSORG
 10
0.0
 20
0.0
 30
0.0
  9
$PUCSXDIR
 10
1.0
 20
0.0
 30
0.0
  9
$PUCSYDIR
 10
0.0
 20
1.0
 30
0.0
  9
$PUCSORTHOREF
  2

  9
$PUCSORTHOVIEW
 70
0
  9
$PUCSORGTOP
 10
0.0
 20
0.0
 30
0.0
  9
$PUCSORGBOTTOM
 10
0.0
 20
0.0
 30
0.0
  9
$PUCSORGLEFT
 10
0.0
 20
0.0
 30
0.0
  9
$PUCSORGRIGHT
 10
0.0
 20
0.0
 30
0.0
  9
$PUCSORGFRONT
 10
0.0
 20
0.0
 30
0.0
  9
$PUCSORGBACK
 10
0.0
 20
0.0
 30
0.0
  9
$USERI1
 70
0
  9
$USERI2
 70
0
  9
$USERI3
 70
0
  9
$USERI4
 70
0
  9
$USERI5
 70
0
  9
$USERR1
 40
0.0
  9
$USERR2
 40
0.0
  9
$USERR3
 40
0.0
  9
$USERR4
 40
0.0
  9
$USERR5
 40
0.0
  9
$WORLDVIEW
 70
1
  9
$SHADEDGE
 70
3
  9
$SHADEDIF
 70
70
  9
$TILEMODE
 70
1
  9
$MAXACTVP
 70
64
  9
$PINSBASE
 10
0.0
 20
0.0
 30
0.0
  9
$PLIMCHECK
 70
0
  9
$PEXTMIN
 10
1e+20
 20
1e+20
 30
1e+20
  9
$PEXTMAX
 10
-1e+20
 20
-1e+20
 30
-1e+20
  9
$PLIMMIN
 10
0.0
 20
0.0
  9
$PLIMMAX
 10
420.0
 20
297.0
  9
$UNITMODE
 70
0
  9
$VISRETAIN
 70
1
  9
$PLINEGEN
 70
0
  9
$PSLTSCALE
 70
1
  9
$TREEDEPTH
 70
3020
  9
$CMLSTYLE
  2
Standard
  9
$CMLJUST
 70
0
  9
$CMLSCALE
 40
20.0
  9
$PROXYGRAPHICS
 70
1
  9
$MEASUREMENT
 70
1
  9
$CELWEIGHT
370
-1
  9
$ENDCAPS
280
0
  9
$JOINSTYLE
280
0
  9
$LWDISPLAY
290
0
  9
$INSUNITS
 70
0
  9
$HYPERLINKBASE
  1

  9
$STYLESHEET
  1

  9
$XEDIT
290
1
  9
$CEPSNTYPE
380
0
  9
$PSTYLEMODE
290
1
  9
$FINGERPRINTGUID
  2
{135D315F-932C-4FD1-9F9D-62F5969DBA94}
  9
$VERSIONGUID
  2
{FE4B5F02-0E33-402C-89B1-0D955F1865D8}
  9
$EXTNAMES
290
1
  9
$PSVPSCALE
 40
0.0
  9
$OLESTARTUP
290
0
  9
$SORTENTS
280
127
  9
$INDEXCTL
280
0
  9
$HIDETEXT
280
1
  9
$XCLIPFRAME
280
1
  9
$HALOGAP
280
0
  9
$OBSCOLOR
 70
257
  9
$OBSLTYPE
280
0
  9
$INTERSECTIONDISPLAY
280
0
  9
$INTERSECTIONCOLOR
 70
257
  9
$DIMASSOC
280
2
  9
$PROJECTNAME
  1

  9
$CAMERADISPLAY
290
0
  9
$LENSLENGTH
 40
50.0
  9
$CAMERAHEIGHT
 40
0.0
  9
$STEPSPERSEC
 40
24.0
  9
$STEPSIZE
 40
100.0
  9
$3DDWFPREC
 40
2.0
  9
$PSOLWIDTH
 40
0.005
  9
$PSOLHEIGHT
 40
0.08
  9
$LOFTANG1
 40
1.570796326795
  9
$LOFTANG2
 40
1.570796326795
  9
$LOFTMAG1
 40
0.0
  9
$LOFTMAG2
 40
0.0
  9
$LOFTPARAM
 70
7
  9
$LOFTNORMALS
280
1
  9
$LATITUDE
 40
37.795
  9
$LONGITUDE
 40
-122.394
  9
$NORTHDIRECTION
 40
0.0
  9
$TIMEZONE
 70
-8000
  9
$LIGHTGLYPHDISPLAY
280
1
  9
$TILEMODELIGHTSYNCH
280
1
  9
$CMATERIAL
347
20
  9
$SOLIDHIST
280
0
  9
$SHOWHIST
280
1
  9
$DWFFRAME
280
2
  9
$DGNFRAME
280
2
  9
$REALWORLDSCALE
290
1
  9
$INTERFERECOLOR
 62
256
  9
$CSHADOW
280
0
  9
$SHADOWPLANELOCATION
 40
0.0
  0
ENDSEC
  0
SECTION
  2
CLASSES
  0
CLASS
  1
ACDBDICTIONARYWDFLT
  2
AcDbDictionaryWithDefault
  3
ObjectDBX Classes
 90
0
 91
0
280
0
281
0
  0
CLASS
  1
SUN
  2
AcDbSun
  3
SCENEOE
 90
1153
 91
0
280
0
281
0
  0
CLASS
  1
VISUALSTYLE
  2
AcDbVisualStyle
  3
ObjectDBX Classes
 90
4095
 91
0
280
0
281
0
  0
CLASS
  1
MATERIAL
  2
AcDbMaterial
  3
ObjectDBX Classes
 90
1153
 91
0
280
0
281
0
  0
CLASS
  1
SCALE
  2
AcDbScale
  3
ObjectDBX Classes
 90
1153
 91
0
280
0
281
0
  0
CLASS
  1
TABLESTYLE
  2
AcDbTableStyle
  3
ObjectDBX Classes
 90
4095
 91
0
280
0
281
0
  0
CLASS
  1
MLEADERSTYLE
  2
AcDbMLeaderStyle
  3
ACDB_MLEADERSTYLE_CLASS
 90
4095
 91
0
280
0
281
0
  0
CLASS
  1
DICTIONARYVAR
  2
AcDbDictionaryVar
  3
ObjectDBX Classes
 90
0
 91
0
280
0
281
0
  0
CLASS
  1
CELLSTYLEMAP
  2
AcDbCellStyleMap
  3
ObjectDBX Classes
 90
1152
 91
0
280
0
281
0
  0
CLASS
  1
MENTALRAYRENDERSETTINGS
  2
AcDbMentalRayRenderSettings
  3
SCENEOE
 90
1024
 91
0
280
0
281
0
  0
CLASS
  1
ACDBDETAILVIEWSTYLE
  2
AcDbDetailViewStyle
  3
ObjectDBX Classes
 90
1025
 91
0
280
0
281
0
  0
CLASS
  1
ACDBSECTIONVIEWSTYLE
  2
AcDbSectionViewStyle
  3
ObjectDBX Classes
 90
1025
 91
0
280
0
281
0
  0
CLASS
  1
RASTERVARIABLES
  2
AcDbRasterVariables
  3
ISM
 90
0
 91
0
280
0
281
0
  0
CLASS
  1
ACDBPLACEHOLDER
  2
AcDbPlaceHolder
  3
ObjectDBX Classes
 90
0
 91
0
280
0
281
0
  0
CLASS
  1
LAYOUT
  2
AcDbLayout
  3
ObjectDBX Classes
 90
0
 91
0
280
0
281
0
  0
ENDSEC
  0
SECTION
  2
TABLES
  0
TABLE
  2
VPORT
  5
8
330
0
100
AcDbSymbolTable
 70
1
  0
VPORT
  5
23
330
8
100
AcDbSymbolTableRecord
100
AcDbViewportTableRecord
  2
*Active
 70
0
 10
0.0
 20
0.0
 11
1.0
 21
1.0
 12
0.0
 22
0.0
 13
0.0
 23
0.0
 14
0.5
 24
0.5
 15
0.5
 25
0.5
 16
0.0
 26
0.0
 36
1.0
 17
0.0
 27
0.0
 37
0.0
 40
1000.0
 41
1.34
 42
50.0
 43
0.0
 44
0.0
 50
0.0
 51
0.0
 71
0
 72
1000
 73
1
 74
3
 75
0
 76
0
 77
0
 78
0
281
0
 65
0
146
0.0
  0
ENDTAB
  0
TABLE
  2
LTYPE
  5
2
330
0
100
AcDbSymbolTable
 70
3
  0
LTYPE
  5
24
330
2
100
AcDbSymbolTableRecord
100
AcDbLinetypeTableRecord
  2
ByBlock
 70
0
  3

 72
65
 73
0
 40
0.0
  0
LTYPE
  5
25
330
2
100
AcDbSymbolTableRecord
100
AcDbLinetypeTableRecord
  2
ByLayer
 70
0
  3

 72
65
 73
0
 40
0.0
  0
LTYPE
  5
26
330
2
100
AcDbSymbolTableRecord
100
AcDbLinetypeTableRecord
  2
Continuous
 70
0
  3

 72
65
 73
0
 40
0.0
  0
ENDTAB
  0
TABLE
  2
LAYER
  5
1
330
0
100
AcDbSymbolTable
 70
35
  0
LAYER
  5
27
330
1
100
AcDbSymbolTableRecord
100
AcDbLayerTableRecord
  2
0
 70
0
 62
7
  6
Continuous
370
-3
390
13
347
21
  0
LAYER
  5
28
330
1
100
AcDbSymbolTableRecord
100
AcDbLayerTableRecord
  2
Defpoints
 70
0
 62
7
  6
Continuous
290
0
370
-3
390
13
347
21
  0
LAYER
  5
2F
330
1
100
AcDbSymbolTableRecord
100
AcDbLayerTableRecord
  2
Painéis
 70
0
 62
200
  6
Continuous
370
-3
390
13
347
21
  0
LAYER
  5
30
330
1
100
AcDbSymbolTableRecord
100
AcDbLayerTableRecord
  2
COTA
 70
0
 62
241
  6
Continuous
370
-3
390
13
347
21
  0
LAYER
  5
31
330
1
100
AcDbSymbolTableRecord
100
AcDbLayerTableRecord
  2
NOMENCLATURA
 70
0
 62
7
  6
Continuous
370
-3
390
13
347
21
  0
LAYER
  5
32
330
1
100
AcDbSymbolTableRecord
100
AcDbLayerTableRecord
  2
5
 70
0
 62
5
  6
Continuous
370
-3
390
13
347
21
  0
LAYER
  5
33
330
1
100
AcDbSymbolTableRecord
100
AcDbLayerTableRecord
  2
Folhas
 70
0
 62
255
  6
Continuous
370
-3
390
13
347
21
  0
LAYER
  5
34
330
1
100
AcDbSymbolTableRecord
100
AcDbLayerTableRecord
  2
CARIMBO
 70
0
 62
255
  6
Continuous
370
-3
390
13
347
21
  0
LAYER
  5
35
330
1
100
AcDbSymbolTableRecord
100
AcDbLayerTableRecord
  2
SARR_3.5x7
 70
0
 62
81
  6
Continuous
370
-3
390
13
347
21
  0
LAYER
  5
36
330
1
100
AcDbSymbolTableRecord
100
AcDbLayerTableRecord
  2
SARR_2.2x7
 70
0
 62
40
  6
Continuous
370
-3
390
13
347
21
  0
LAYER
  5
37
330
1
100
AcDbSymbolTableRecord
100
AcDbLayerTableRecord
  2
SARR_2.2x5
 70
0
 62
40
  6
Continuous
370
-3
390
13
347
21
  0
LAYER
  5
38
330
1
100
AcDbSymbolTableRecord
100
AcDbLayerTableRecord
  2
SARR_2.2x3.5
 70
0
 62
40
  6
Continuous
370
-3
390
13
347
21
  0
LAYER
  5
39
330
1
100
AcDbSymbolTableRecord
100
AcDbLayerTableRecord
  2
CONCRETO
 70
0
 62
251
  6
Continuous
370
-3
390
13
347
21
  0
LAYER
  5
3A
330
1
100
AcDbSymbolTableRecord
100
AcDbLayerTableRecord
  2
Hachura
 70
0
 62
251
  6
Continuous
370
-3
390
13
347
21
  0
LAYER
  5
3B
330
1
100
AcDbSymbolTableRecord
100
AcDbLayerTableRecord
  2
Madeira
 70
0
 62
126
  6
Continuous
370
-3
390
13
347
21
  0
LAYER
  5
3C
330
1
100
AcDbSymbolTableRecord
100
AcDbLayerTableRecord
  2
barrote
 70
0
 62
126
  6
Continuous
370
-3
390
13
347
21
  0
LAYER
  5
3D
330
1
100
AcDbSymbolTableRecord
100
AcDbLayerTableRecord
  2
SCO-___-LAJ
 70
0
 62
224
  6
Continuous
370
-3
390
13
347
21
  0
LAYER
  5
3E
330
1
100
AcDbSymbolTableRecord
100
AcDbLayerTableRecord
  2
TENSOR
 70
0
 62
224
  6
Continuous
370
-3
390
13
347
21
  0
LAYER
  5
3F
330
1
100
AcDbSymbolTableRecord
100
AcDbLayerTableRecord
  2
presilha
 70
0
 62
224
  6
Continuous
370
-3
390
13
347
21
  0
LAYER
  5
40
330
1
100
AcDbSymbolTableRecord
100
AcDbLayerTableRecord
  2
Forcador
 70
0
 62
224
  6
Continuous
370
-3
390
13
347
21
  0
LAYER
  5
41
330
1
100
AcDbSymbolTableRecord
100
AcDbLayerTableRecord
  2
Escoras
 70
0
 62
224
  6
Continuous
370
-3
390
13
347
21
  0
LAYER
  5
42
330
1
100
AcDbSymbolTableRecord
100
AcDbLayerTableRecord
  2
detalhes
 70
0
 62
7
  6
Continuous
370
-3
390
13
347
21
  0
LAYER
  5
43
330
1
100
AcDbSymbolTableRecord
100
AcDbLayerTableRecord
  2
Texto Seção
 70
0
 62
7
  6
Continuous
370
-3
390
13
347
21
  0
LAYER
  5
44
330
1
100
AcDbSymbolTableRecord
100
AcDbLayerTableRecord
  2
Cota Seção (2x)
 70
0
 62
241
  6
Continuous
370
-3
390
13
347
21
  0
LAYER
  5
45
330
1
100
AcDbSymbolTableRecord
100
AcDbLayerTableRecord
  2
texto
 70
0
 62
7
  6
Continuous
370
-3
390
13
347
21
  0
LAYER
  5
46
330
1
100
AcDbSymbolTableRecord
100
AcDbLayerTableRecord
  2
Reaproveitamento
 70
0
 62
251
  6
Continuous
370
-3
390
13
347
21
  0
LAYER
  5
47
330
1
100
AcDbSymbolTableRecord
100
AcDbLayerTableRecord
  2
ESTRUTURACAO
 70
0
 62
7
  6
Continuous
370
-3
390
13
347
21
  0
LAYER
  5
29D
330
1
100
AcDbSymbolTableRecord
100
AcDbLayerTableRecord
  2
GARFOS
 70
0
 62
7
  6
Continuous
370
-3
390
13
347
21
  0
LAYER
  5
29F
330
1
100
AcDbSymbolTableRecord
100
AcDbLayerTableRecord
  2
material do compensado
 70
0
 62
7
  6
Continuous
370
-3
390
13
347
21
  0
LAYER
  5
2A1
330
1
100
AcDbSymbolTableRecord
100
AcDbLayerTableRecord
  2
Perfil Metálico
 70
0
 62
150
  6
Continuous
370
-3
390
13
347
21
  0
LAYER
  5
2A3
330
1
100
AcDbSymbolTableRecord
100
AcDbLayerTableRecord
  2
BARRA DE ANCORAGEM
 70
0
 62
7
  6
Continuous
370
-3
390
13
347
21
  0
LAYER
  5
2AD
330
1
100
AcDbSymbolTableRecord
100
AcDbLayerTableRecord
  2
Cotas
 70
0
 62
7
  6
Continuous
370
-3
390
13
347
21
  0
LAYER
  5
2B0
330
1
100
AcDbSymbolTableRecord
100
AcDbLayerTableRecord
  2
SARRAFO DE PRESSAO
 70
0
 62
7
  6
Continuous
370
-3
390
13
347
21
  0
LAYER
  5
2B2
330
1
100
AcDbSymbolTableRecord
100
AcDbLayerTableRecord
  2
SARR_EDITAR
 70
0
 62
7
  6
Continuous
370
-3
390
13
347
21
  0
LAYER
  5
2B4
330
1
100
AcDbSymbolTableRecord
100
AcDbLayerTableRecord
  2
TEXTO PILAR
 70
0
 62
7
  6
Continuous
370
-3
390
13
347
21
  0
ENDTAB
  0
TABLE
  2
STYLE
  5
5
330
0
100
AcDbSymbolTable
 70
1
  0
STYLE
  5
29
330
5
100
AcDbSymbolTableRecord
100
AcDbTextStyleTableRecord
  2
Standard
 70
0
 40
0.0
 41
1.0
 50
0.0
 71
0
 42
2.5
  3
txt
  4

  0
ENDTAB
  0
TABLE
  2
VIEW
  5
7
330
0
100
AcDbSymbolTable
 70
0
  0
ENDTAB
  0
TABLE
  2
UCS
  5
6
330
0
100
AcDbSymbolTable
 70
0
  0
ENDTAB
  0
TABLE
  2
APPID
  5
3
330
0
100
AcDbSymbolTable
 70
3
  0
APPID
  5
2A
330
3
100
AcDbSymbolTableRecord
100
AcDbRegAppTableRecord
  2
ACAD
 70
0
  0
APPID
  5
2B6
330
3
100
AcDbSymbolTableRecord
100
AcDbRegAppTableRecord
  2
HATCHBACKGROUNDCOLOR
 70
0
  0
APPID
  5
2B7
330
3
100
AcDbSymbolTableRecord
100
AcDbRegAppTableRecord
  2
EZDXF
 70
0
  0
ENDTAB
  0
TABLE
  2
DIMSTYLE
  5
4
330
0
100
AcDbSymbolTable
 70
3
100
AcDbDimStyleTable
  0
DIMSTYLE
105
2B
330
4
100
AcDbSymbolTableRecord
100
AcDbDimStyleTableRecord
  2
Standard
 70
0
 40
1.0
 41
2.5
 42
0.625
 43
3.75
 44
1.25
 45
0.0
 46
0.0
 47
0.0
 48
0.0
 49
2.5
140
2.5
141
2.5
142
0.0
143
0.03937007874
144
1.0
145
0.0
146
1.0
147
0.625
148
0.0
 69
0
 70
0
 71
0
 72
0
 73
0
 74
0
 75
0
 76
0
 77
1
 78
8
 79
3
170
0
171
3
172
1
173
0
174
0
175
0
176
0
177
0
178
0
179
2
271
2
272
2
273
2
274
3
275
0
276
0
277
2
278
44
279
0
280
0
281
0
282
0
283
0
284
8
285
0
286
0
288
0
289
3
290
0
371
-2
372
-2
  0
DIMSTYLE
105
48
330
4
100
AcDbSymbolTableRecord
100
AcDbDimStyleTableRecord
  2
PAINEL
 70
0
 40
1.0
 41
3.0
 42
3.0
 43
3.75
 44
3.0
 45
0.0
 46
0.0
 47
0.0
 48
0.0
 49
2.5
140
10.0
141
2.5
142
0.0
143
0.03937007874
144
1.0
145
0.0
146
1.0
147
3.0
148
0.0
 69
0
 70
0
 71
0
 72
0
 73
0
 74
0
 75
0
 76
0
 77
1
 78
8
 79
3
170
0
171
3
172
1
173
0
174
0
175
0
176
4
177
4
178
240
179
2
271
2
272
2
273
2
274
3
275
0
276
0
277
2
278
44
279
0
280
0
281
0
282
0
283
0
284
8
285
0
286
0
288
0
289
3
290
0
342
49
343
49
371
-2
372
-2
  0
DIMSTYLE
105
51
330
4
100
AcDbSymbolTableRecord
100
AcDbDimStyleTableRecord
  2
SECAO2X
 70
0
 40
1.0
 41
5.0
 42
3.0
 43
3.75
 44
3.0
 45
0.0
 46
0.0
 47
0.0
 48
0.0
 49
2.5
140
7.0
141
2.5
142
0.0
143
0.03937007874
144
1.0
145
0.0
146
1.0
147
2.0
148
0.0
 69
0
 70
0
 71
0
 72
0
 73
0
 74
0
 75
0
 76
0
 77
3
 78
8
 79
3
170
0
171
3
172
1
173
0
174
0
175
0
176
4
177
4
178
1
179
2
271
2
272
2
273
2
274
3
275
0
276
0
277
2
278
44
279
0
280
0
281
0
282
0
283
0
284
8
285
0
286
0
288
0
289
3
290
0
342
49
343
49
371
-2
372
-2
  0
ENDTAB
  0
TABLE
  2
BLOCK_RECORD
  5
9
330
0
100
AcDbSymbolTable
 70
37
  0
BLOCK_RECORD
  5
17
330
9
100
AcDbSymbolTableRecord
100
AcDbBlockTableRecord
  2
*Model_Space
340
1A
 70
0
280
1
281
0
  0
BLOCK_RECORD
  5
1B
330
9
100
AcDbSymbolTableRecord
100
AcDbBlockTableRecord
  2
*Paper_Space
340
1E
 70
0
280
1
281
0
  0
BLOCK_RECORD
  5
49
330
9
100
AcDbSymbolTableRecord
100
AcDbBlockTableRecord
  2
_OBLIQUE
340
0
 70
0
280
1
281
0
  0
BLOCK_RECORD
  5
4D
330
9
100
AcDbSymbolTableRecord
100
AcDbBlockTableRecord
  2
_CLOSEDFILLED
340
0
 70
0
280
1
281
0
  0
BLOCK_RECORD
  5
52
330
9
100
AcDbSymbolTableRecord
100
AcDbBlockTableRecord
  2
PAR_ESQ
340
0
 70
0
280
1
281
0
  0
BLOCK_RECORD
  5
57
330
9
100
AcDbSymbolTableRecord
100
AcDbBlockTableRecord
  2
PAR_FUNDO_ESQ
340
0
 70
0
280
1
281
0
  0
BLOCK_RECORD
  5
5C
330
9
100
AcDbSymbolTableRecord
100
AcDbBlockTableRecord
  2
PAR_FUNDO_DIR
340
0
 70
0
280
1
281
0
  0
BLOCK_RECORD
  5
61
330
9
100
AcDbSymbolTableRecord
100
AcDbBlockTableRecord
  2
par_int_esq
340
0
 70
0
280
1
281
0
  0
BLOCK_RECORD
  5
66
330
9
100
AcDbSymbolTableRecord
100
AcDbBlockTableRecord
  2
par_int_dir
340
0
 70
0
280
1
281
0
  0
BLOCK_RECORD
  5
B8
330
9
100
AcDbSymbolTableRecord
100
AcDbBlockTableRecord
  2
*D1
340
0
 70
0
280
1
281
0
  0
BLOCK_RECORD
  5
C7
330
9
100
AcDbSymbolTableRecord
100
AcDbBlockTableRecord
  2
*D2
340
0
 70
0
280
1
281
0
  0
BLOCK_RECORD
  5
D6
330
9
100
AcDbSymbolTableRecord
100
AcDbBlockTableRecord
  2
*D3
340
0
 70
0
280
1
281
0
  0
BLOCK_RECORD
  5
E5
330
9
100
AcDbSymbolTableRecord
100
AcDbBlockTableRecord
  2
*D4
340
0
 70
0
280
1
281
0
  0
BLOCK_RECORD
  5
F4
330
9
100
AcDbSymbolTableRecord
100
AcDbBlockTableRecord
  2
*D5
340
0
 70
0
280
1
281
0
  0
BLOCK_RECORD
  5
103
330
9
100
AcDbSymbolTableRecord
100
AcDbBlockTableRecord
  2
*D6
340
0
 70
0
280
1
281
0
  0
BLOCK_RECORD
  5
12E
330
9
100
AcDbSymbolTableRecord
100
AcDbBlockTableRecord
  2
*D7
340
0
 70
0
280
1
281
0
  0
BLOCK_RECORD
  5
13D
330
9
100
AcDbSymbolTableRecord
100
AcDbBlockTableRecord
  2
*D8
340
0
 70
0
280
1
281
0
  0
BLOCK_RECORD
  5
14C
330
9
100
AcDbSymbolTableRecord
100
AcDbBlockTableRecord
  2
*D9
340
0
 70
0
280
1
281
0
  0
BLOCK_RECORD
  5
15B
330
9
100
AcDbSymbolTableRecord
100
AcDbBlockTableRecord
  2
*D10
340
0
 70
0
280
1
281
0
  0
BLOCK_RECORD
  5
16A
330
9
100
AcDbSymbolTableRecord
100
AcDbBlockTableRecord
  2
*D11
340
0
 70
0
280
1
281
0
  0
BLOCK_RECORD
  5
179
330
9
100
AcDbSymbolTableRecord
100
AcDbBlockTableRecord
  2
*D12
340
0
 70
0
280
1
281
0
  0
BLOCK_RECORD
  5
188
330
9
100
AcDbSymbolTableRecord
100
AcDbBlockTableRecord
  2
*D13
340
0
 70
0
280
1
281
0
  0
BLOCK_RECORD
  5
197
330
9
100
AcDbSymbolTableRecord
100
AcDbBlockTableRecord
  2
*D14
340
0
 70
0
280
1
281
0
  0
BLOCK_RECORD
  5
1A6
330
9
100
AcDbSymbolTableRecord
100
AcDbBlockTableRecord
  2
*D15
340
0
 70
0
280
1
281
0
  0
BLOCK_RECORD
  5
1B5
330
9
100
AcDbSymbolTableRecord
100
AcDbBlockTableRecord
  2
*D16
340
0
 70
0
280
1
281
0
  0
BLOCK_RECORD
  5
1C4
330
9
100
AcDbSymbolTableRecord
100
AcDbBlockTableRecord
  2
*D17
340
0
 70
0
280
1
281
0
  0
BLOCK_RECORD
  5
1E7
330
9
100
AcDbSymbolTableRecord
100
AcDbBlockTableRecord
  2
*D18
340
0
 70
0
280
1
281
0
  0
BLOCK_RECORD
  5
1F6
330
9
100
AcDbSymbolTableRecord
100
AcDbBlockTableRecord
  2
*D19
340
0
 70
0
280
1
281
0
  0
BLOCK_RECORD
  5
205
330
9
100
AcDbSymbolTableRecord
100
AcDbBlockTableRecord
  2
*D20
340
0
 70
0
280
1
281
0
  0
BLOCK_RECORD
  5
214
330
9
100
AcDbSymbolTableRecord
100
AcDbBlockTableRecord
  2
*D21
340
0
 70
0
280
1
281
0
  0
BLOCK_RECORD
  5
223
330
9
100
AcDbSymbolTableRecord
100
AcDbBlockTableRecord
  2
*D22
340
0
 70
0
280
1
281
0
  0
BLOCK_RECORD
  5
232
330
9
100
AcDbSymbolTableRecord
100
AcDbBlockTableRecord
  2
*D23
340
0
 70
0
280
1
281
0
  0
BLOCK_RECORD
  5
241
330
9
100
AcDbSymbolTableRecord
100
AcDbBlockTableRecord
  2
*D24
340
0
 70
0
280
1
281
0
  0
BLOCK_RECORD
  5
250
330
9
100
AcDbSymbolTableRecord
100
AcDbBlockTableRecord
  2
*D25
340
0
 70
0
280
1
281
0
  0
BLOCK_RECORD
  5
25F
330
9
100
AcDbSymbolTableRecord
100
AcDbBlockTableRecord
  2
*D26
340
0
 70
0
280
1
281
0
  0
BLOCK_RECORD
  5
26E
330
9
100
AcDbSymbolTableRecord
100
AcDbBlockTableRecord
  2
*D27
340
0
 70
0
280
1
281
0
  0
BLOCK_RECORD
  5
27D
330
9
100
AcDbSymbolTableRecord
100
AcDbBlockTableRecord
  2
*D28
340
0
 70
0
280
1
281
0
  0
ENDTAB
  0
ENDSEC
  0
SECTION
  2
BLOCKS
  0
BLOCK
  5
18
330
17
100
AcDbEntity
  8
0
100
AcDbBlockBegin
  2
*Model_Space
 70
0
 10
0.0
 20
0.0
 30
0.0
  3
*Model_Space
  1

  0
ENDBLK
  5
19
330
17
100
AcDbEntity
  8
0
100
AcDbBlockEnd
  0
BLOCK
  5
1C
330
1B
100
AcDbEntity
  8
0
100
AcDbBlockBegin
  2
*Paper_Space
 70
0
 10
0.0
 20
0.0
 30
0.0
  3
*Paper_Space
  1

  0
ENDBLK
  5
1D
330
1B
100
AcDbEntity
  8
0
100
AcDbBlockEnd
  0
BLOCK
  5
4A
330
49
100
AcDbEntity
  8
0
100
AcDbBlockBegin
  2
_OBLIQUE
 70
0
 10
0.0
 20
0.0
 30
0.0
  3
_OBLIQUE
  1

  0
LINE
  5
4C
330
49
100
AcDbEntity
  8
0
  6
BYBLOCK
 62
0
100
AcDbLine
 10
-0.5
 20
-0.5
 30
0.0
 11
0.5
 21
0.5
 31
0.0
  0
ENDBLK
  5
4B
330
49
100
AcDbEntity
  8
0
100
AcDbBlockEnd
  0
BLOCK
  5
4E
330
4D
100
AcDbEntity
  8
0
100
AcDbBlockBegin
  2
_CLOSEDFILLED
 70
0
 10
0.0
 20
0.0
 30
0.0
  3
_CLOSEDFILLED
  1

  0
SOLID
  5
50
330
4D
100
AcDbEntity
  8
0
  6
BYBLOCK
 62
0
100
AcDbTrace
 10
-1.0
 20
0.16439898372402537
 30
0.0
 11
0.0
 21
0.0
 31
0.0
 12
-1.0
 22
-0.16439898372402537
 32
0.0
 13
-1.0
 23
-0.16439898372402537
 33
0.0
  0
ENDBLK
  5
4F
330
4D
100
AcDbEntity
  8
0
100
AcDbBlockEnd
  0
BLOCK
  5
53
330
52
100
AcDbEntity
  8
0
100
AcDbBlockBegin
  2
PAR_ESQ
 70
0
 10
0.0
 20
0.0
 30
0.0
  3
PAR_ESQ
  1

  0
LINE
  5
55
330
52
100
AcDbEntity
  8
0
100
AcDbLine
 10
-1.0
 20
-1.0
 30
0.0
 11
1.0
 21
1.0
 31
0.0
  0
LINE
  5
56
330
52
100
AcDbEntity
  8
0
100
AcDbLine
 10
-1.0
 20
1.0
 30
0.0
 11
1.0
 21
-1.0
 31
0.0
  0
ENDBLK
  5
54
330
52
100
AcDbEntity
  8
0
100
AcDbBlockEnd
  0
BLOCK
  5
58
330
57
100
AcDbEntity
  8
0
100
AcDbBlockBegin
  2
PAR_FUNDO_ESQ
 70
0
 10
0.0
 20
0.0
 30
0.0
  3
PAR_FUNDO_ESQ
  1

  0
LINE
  5
5A
330
57
100
AcDbEntity
  8
0
100
AcDbLine
 10
-1.0
 20
-1.0
 30
0.0
 11
1.0
 21
1.0
 31
0.0
  0
LINE
  5
5B
330
57
100
AcDbEntity
  8
0
100
AcDbLine
 10
-1.0
 20
1.0
 30
0.0
 11
1.0
 21
-1.0
 31
0.0
  0
ENDBLK
  5
59
330
57
100
AcDbEntity
  8
0
100
AcDbBlockEnd
  0
BLOCK
  5
5D
330
5C
100
AcDbEntity
  8
0
100
AcDbBlockBegin
  2
PAR_FUNDO_DIR
 70
0
 10
0.0
 20
0.0
 30
0.0
  3
PAR_FUNDO_DIR
  1

  0
LINE
  5
5F
330
5C
100
AcDbEntity
  8
0
100
AcDbLine
 10
-1.0
 20
-1.0
 30
0.0
 11
1.0
 21
1.0
 31
0.0
  0
LINE
  5
60
330
5C
100
AcDbEntity
  8
0
100
AcDbLine
 10
-1.0
 20
1.0
 30
0.0
 11
1.0
 21
-1.0
 31
0.0
  0
ENDBLK
  5
5E
330
5C
100
AcDbEntity
  8
0
100
AcDbBlockEnd
  0
BLOCK
  5
62
330
61
100
AcDbEntity
  8
0
100
AcDbBlockBegin
  2
par_int_esq
 70
0
 10
0.0
 20
0.0
 30
0.0
  3
par_int_esq
  1

  0
LINE
  5
64
330
61
100
AcDbEntity
  8
0
100
AcDbLine
 10
-1.0
 20
-1.0
 30
0.0
 11
1.0
 21
1.0
 31
0.0
  0
LINE
  5
65
330
61
100
AcDbEntity
  8
0
100
AcDbLine
 10
-1.0
 20
1.0
 30
0.0
 11
1.0
 21
-1.0
 31
0.0
  0
ENDBLK
  5
63
330
61
100
AcDbEntity
  8
0
100
AcDbBlockEnd
  0
BLOCK
  5
67
330
66
100
AcDbEntity
  8
0
100
AcDbBlockBegin
  2
par_int_dir
 70
0
 10
0.0
 20
0.0
 30
0.0
  3
par_int_dir
  1

  0
LINE
  5
69
330
66
100
AcDbEntity
  8
0
100
AcDbLine
 10
-1.0
 20
-1.0
 30
0.0
 11
1.0
 21
1.0
 31
0.0
  0
LINE
  5
6A
330
66
100
AcDbEntity
  8
0
100
AcDbLine
 10
-1.0
 20
1.0
 30
0.0
 11
1.0
 21
-1.0
 31
0.0
  0
ENDBLK
  5
68
330
66
100
AcDbEntity
  8
0
100
AcDbBlockEnd
  0
BLOCK
  5
B9
330
B8
100
AcDbEntity
  8
0
100
AcDbBlockBegin
  2
*D1
 70
1
 10
0.0
 20
0.0
 30
0.0
  3
*D1
  1

  0
LINE
  5
BB
330
B8
100
AcDbEntity
  8
0
 62
4
100
AcDbLine
 10
-1.0
 20
-31.5
 30
0.0
 11
-57.0
 21
-31.5
 31
0.0
  0
LINE
  5
BC
330
B8
100
AcDbEntity
  8
0
 62
4
100
AcDbLine
 10
19.0
 20
0.0
 30
0.0
 11
-57.0
 21
0.0
 31
0.0
  0
INSERT
  5
BD
330
B8
100
AcDbEntity
  8
COTA
 62
4
100
AcDbBlockReference
  2
_OBLIQUE
 10
-54.0
 20
-31.5
 30
0.0
 41
3.0
 42
3.0
 50
270.0
  0
INSERT
  5
BF
330
B8
100
AcDbEntity
  8
COTA
 62
4
100
AcDbBlockReference
  2
_OBLIQUE
 10
-54.0
 20
0.0
 30
0.0
 41
3.0
 42
3.0
 50
90.0
  0
LINE
  5
C1
330
B8
100
AcDbEntity
  8
0
 62
4
100
AcDbLine
 10
-54.0
 20
-31.5
 30
0.0
 11
-54.0
 21
0.0
 31
0.0
  0
MTEXT
  5
C2
330
B8
100
AcDbEntity
  8
COTA
 62
240
100
AcDbMText
 10
-65.0
 20
-15.75
 30
0.0
 40
10.0
 71
5
  1
31,5
 50
90.0
  0
POINT
  5
C3
330
B8
100
AcDbEntity
  8
Defpoints
100
AcDbPoint
 10
-54.0
 20
-31.5
 30
0.0
  0
POINT
  5
C4
330
B8
100
AcDbEntity
  8
Defpoints
100
AcDbPoint
 10
2.0
 20
-31.5
 30
0.0
  0
POINT
  5
C5
330
B8
100
AcDbEntity
  8
Defpoints
100
AcDbPoint
 10
22.0
 20
0.0
 30
0.0
  0
ENDBLK
  5
BA
330
B8
100
AcDbEntity
  8
0
100
AcDbBlockEnd
  0
BLOCK
  5
C8
330
C7
100
AcDbEntity
  8
0
100
AcDbBlockBegin
  2
*D2
 70
1
 10
0.0
 20
0.0
 30
0.0
  3
*D2
  1

  0
LINE
  5
CA
330
C7
100
AcDbEntity
  8
0
 62
4
100
AcDbLine
 10
43.0
 20
-23.5
 30
0.0
 11
75.0
 21
-23.5
 31
0.0
  0
LINE
  5
CB
330
C7
100
AcDbEntity
  8
0
 62
4
100
AcDbLine
 10
43.0
 20
4.0
 30
0.0
 11
75.0
 21
4.0
 31
0.0
  0
INSERT
  5
CC
330
C7
100
AcDbEntity
  8
Cota Seção (2x)
 62
4
100
AcDbBlockReference
  2
_OBLIQUE
 10
72.0
 20
-23.5
 30
0.0
 41
5.0
 42
5.0
 50
270.0
  0
INSERT
  5
CE
330
C7
100
AcDbEntity
  8
Cota Seção (2x)
 62
4
100
AcDbBlockReference
  2
_OBLIQUE
 10
72.0
 20
4.0
 30
0.0
 41
5.0
 42
5.0
 50
90.0
  0
LINE
  5
D0
330
C7
100
AcDbEntity
  8
0
 62
4
100
AcDbLine
 10
72.0
 20
-23.5
 30
0.0
 11
72.0
 21
4.0
 31
0.0
  0
MTEXT
  5
D1
330
C7
100
AcDbEntity
  8
Cota Seção (2x)
 62
1
100
AcDbMText
 10
63.5
 20
-9.75
 30
0.0
 40
7.0
 71
5
  1
27,5
 50
90.0
  0
POINT
  5
D2
330
C7
100
AcDbEntity
  8
Defpoints
100
AcDbPoint
 10
72.0
 20
-23.5
 30
0.0
  0
POINT
  5
D3
330
C7
100
AcDbEntity
  8
Defpoints
100
AcDbPoint
 10
40.0
 20
-23.5
 30
0.0
  0
POINT
  5
D4
330
C7
100
AcDbEntity
  8
Defpoints
100
AcDbPoint
 10
40.0
 20
4.0
 30
0.0
  0
ENDBLK
  5
C9
330
C7
100
AcDbEntity
  8
0
100
AcDbBlockEnd
  0
BLOCK
  5
D7
330
D6
100
AcDbEntity
  8
0
100
AcDbBlockBegin
  2
*D3
 70
1
 10
0.0
 20
0.0
 30
0.0
  3
*D3
  1

  0
LINE
  5
D9
330
D6
100
AcDbEntity
  8
0
 62
4
100
AcDbLine
 10
93.0
 20
-31.5
 30
0.0
 11
92.0
 21
-31.5
 31
0.0
  0
LINE
  5
DA
330
D6
100
AcDbEntity
  8
0
 62
4
100
AcDbLine
 10
93.0
 20
18.5
 30
0.0
 11
92.0
 21
18.5
 31
0.0
  0
INSERT
  5
DB
330
D6
100
AcDbEntity
  8
COTA
 62
4
100
AcDbBlockReference
  2
_OBLIQUE
 10
95.0
 20
-31.5
 30
0.0
 41
3.0
 42
3.0
 50
270.0
  0
INSERT
  5
DD
330
D6
100
AcDbEntity
  8
COTA
 62
4
100
AcDbBlockReference
  2
_OBLIQUE
 10
95.0
 20
18.5
 30
0.0
 41
3.0
 42
3.0
 50
90.0
  0
LINE
  5
DF
330
D6
100
AcDbEntity
  8
0
 62
4
100
AcDbLine
 10
95.0
 20
-31.5
 30
0.0
 11
95.0
 21
18.5
 31
0.0
  0
MTEXT
  5
E0
330
D6
100
AcDbEntity
  8
COTA
 62
240
100
AcDbMText
 10
87.0
 20
-6.5
 30
0.0
 40
10.0
 71
5
  1
50
 50
90.0
  0
POINT
  5
E1
330
D6
100
AcDbEntity
  8
Defpoints
100
AcDbPoint
 10
95.0
 20
-31.5
 30
0.0
  0
POINT
  5
E2
330
D6
100
AcDbEntity
  8
Defpoints
100
AcDbPoint
 10
96.0
 20
-31.5
 30
0.0
  0
POINT
  5
E3
330
D6
100
AcDbEntity
  8
Defpoints
100
AcDbPoint
 10
96.0
 20
18.5
 30
0.0
  0
ENDBLK
  5
D8
330
D6
100
AcDbEntity
  8
0
100
AcDbBlockEnd
  0
BLOCK
  5
E6
330
E5
100
AcDbEntity
  8
0
100
AcDbBlockBegin
  2
*D4
 70
1
 10
0.0
 20
0.0
 30
0.0
  3
*D4
  1

  0
LINE
  5
E8
330
E5
100
AcDbEntity
  8
0
 62
4
100
AcDbLine
 10
99.0
 20
-31.5
 30
0.0
 11
138.0
 21
-31.5
 31
0.0
  0
LINE
  5
E9
330
E5
100
AcDbEntity
  8
0
 62
4
100
AcDbLine
 10
99.0
 20
-14.0
 30
0.0
 11
138.0
 21
-14.0
 31
0.0
  0
INSERT
  5
EA
330
E5
100
AcDbEntity
  8
COTA
 62
4
100
AcDbBlockReference
  2
_OBLIQUE
 10
135.0
 20
-31.5
 30
0.0
 41
3.0
 42
3.0
 50
270.0
  0
INSERT
  5
EC
330
E5
100
AcDbEntity
  8
COTA
 62
4
100
AcDbBlockReference
  2
_OBLIQUE
 10
135.0
 20
-14.0
 30
0.0
 41
3.0
 42
3.0
 50
90.0
  0
LINE
  5
EE
330
E5
100
AcDbEntity
  8
0
 62
4
100
AcDbLine
 10
135.0
 20
-31.5
 30
0.0
 11
135.0
 21
-14.0
 31
0.0
  0
MTEXT
  5
EF
330
E5
100
AcDbEntity
  8
COTA
 62
240
100
AcDbMText
 10
124.0
 20
-22.75
 30
0.0
 40
10.0
 71
5
  1
17,5
 50
90.0
  0
POINT
  5
F0
330
E5
100
AcDbEntity
  8
Defpoints
100
AcDbPoint
 10
135.0
 20
-31.5
 30
0.0
  0
POINT
  5
F1
330
E5
100
AcDbEntity
  8
Defpoints
100
AcDbPoint
 10
96.0
 20
-31.5
 30
0.0
  0
POINT
  5
F2
330
E5
100
AcDbEntity
  8
Defpoints
100
AcDbPoint
 10
96.0
 20
-14.0
 30
0.0
  0
ENDBLK
  5
E7
330
E5
100
AcDbEntity
  8
0
100
AcDbBlockEnd
  0
BLOCK
  5
F5
330
F4
100
AcDbEntity
  8
0
100
AcDbBlockBegin
  2
*D5
 70
1
 10
0.0
 20
0.0
 30
0.0
  3
*D5
  1

  0
LINE
  5
F7
330
F4
100
AcDbEntity
  8
0
 62
4
100
AcDbLine
 10
95.0
 20
-20.0
 30
0.0
 11
138.0
 21
-20.0
 31
0.0
  0
LINE
  5
F8
330
F4
100
AcDbEntity
  8
0
 62
4
100
AcDbLine
 10
95.0
 20
4.0
 30
0.0
 11
138.0
 21
4.0
 31
0.0
  0
INSERT
  5
F9
330
F4
100
AcDbEntity
  8
COTA
 62
4
100
AcDbBlockReference
  2
_OBLIQUE
 10
135.0
 20
-20.0
 30
0.0
 41
3.0
 42
3.0
 50
270.0
  0
INSERT
  5
FB
330
F4
100
AcDbEntity
  8
COTA
 62
4
100
AcDbBlockReference
  2
_OBLIQUE
 10
135.0
 20
4.0
 30
0.0
 41
3.0
 42
3.0
 50
90.0
  0
LINE
  5
FD
330
F4
100
AcDbEntity
  8
0
 62
4
100
AcDbLine
 10
135.0
 20
-20.0
 30
0.0
 11
135.0
 21
4.0
 31
0.0
  0
MTEXT
  5
FE
330
F4
100
AcDbEntity
  8
COTA
 62
240
100
AcDbMText
 10
127.0
 20
-8.0
 30
0.0
 40
10.0
 71
5
  1
24
 50
90.0
  0
POINT
  5
FF
330
F4
100
AcDbEntity
  8
Defpoints
100
AcDbPoint
 10
135.0
 20
-20.0
 30
0.0
  0
POINT
  5
100
330
F4
100
AcDbEntity
  8
Defpoints
100
AcDbPoint
 10
92.0
 20
-20.0
 30
0.0
  0
POINT
  5
101
330
F4
100
AcDbEntity
  8
Defpoints
100
AcDbPoint
 10
92.0
 20
4.0
 30
0.0
  0
ENDBLK
  5
F6
330
F4
100
AcDbEntity
  8
0
100
AcDbBlockEnd
  0
BLOCK
  5
104
330
103
100
AcDbEntity
  8
0
100
AcDbBlockBegin
  2
*D6
 70
1
 10
0.0
 20
0.0
 30
0.0
  3
*D6
  1

  0
LINE
  5
106
330
103
100
AcDbEntity
  8
0
 62
4
100
AcDbLine
 10
40.0
 20
-34.5
 30
0.0
 11
40.0
 21
-79.5
 31
0.0
  0
LINE
  5
107
330
103
100
AcDbEntity
  8
0
 62
4
100
AcDbLine
 10
78.0
 20
-34.5
 30
0.0
 11
78.0
 21
-79.5
 31
0.0
  0
INSERT
  5
108
330
103
100
AcDbEntity
  8
COTA
 62
4
100
AcDbBlockReference
  2
_OBLIQUE
 10
40.0
 20
-76.5
 30
0.0
 41
3.0
 42
3.0
 50
180.0
  0
INSERT
  5
10A
330
103
100
AcDbEntity
  8
COTA
 62
4
100
AcDbBlockReference
  2
_OBLIQUE
 10
78.0
 20
-76.5
 30
0.0
 41
3.0
 42
3.0
  0
LINE
  5
10C
330
103
100
AcDbEntity
  8
0
 62
4
100
AcDbLine
 10
40.0
 20
-76.5
 30
0.0
 11
78.0
 21
-76.5
 31
0.0
  0
MTEXT
  5
10D
330
103
100
AcDbEntity
  8
COTA
 62
240
100
AcDbMText
 10
59.0
 20
-68.5
 30
0.0
 40
10.0
 71
5
  1
38
  0
POINT
  5
10E
330
103
100
AcDbEntity
  8
Defpoints
100
AcDbPoint
 10
40.0
 20
-76.5
 30
0.0
  0
POINT
  5
10F
330
103
100
AcDbEntity
  8
Defpoints
100
AcDbPoint
 10
40.0
 20
-31.5
 30
0.0
  0
POINT
  5
110
330
103
100
AcDbEntity
  8
Defpoints
100
AcDbPoint
 10
78.0
 20
-31.5
 30
0.0
  0
ENDBLK
  5
105
330
103
100
AcDbEntity
  8
0
100
AcDbBlockEnd
  0
BLOCK
  5
12F
330
12E
100
AcDbEntity
  8
0
100
AcDbBlockBegin
  2
*D7
 70
1
 10
0.0
 20
0.0
 30
0.0
  3
*D7
  1

  0
LINE
  5
131
330
12E
100
AcDbEntity
  8
0
 62
4
100
AcDbLine
 10
192.0
 20
-34.5
 30
0.0
 11
192.0
 21
-71.5
 31
0.0
  0
LINE
  5
132
330
12E
100
AcDbEntity
  8
0
 62
4
100
AcDbLine
 10
436.0
 20
-34.5
 30
0.0
 11
436.0
 21
-71.5
 31
0.0
  0
INSERT
  5
133
330
12E
100
AcDbEntity
  8
COTA
 62
4
100
AcDbBlockReference
  2
_OBLIQUE
 10
192.0
 20
-68.5
 30
0.0
 41
3.0
 42
3.0
 50
180.0
  0
INSERT
  5
135
330
12E
100
AcDbEntity
  8
COTA
 62
4
100
AcDbBlockReference
  2
_OBLIQUE
 10
436.0
 20
-68.5
 30
0.0
 41
3.0
 42
3.0
  0
LINE
  5
137
330
12E
100
AcDbEntity
  8
0
 62
4
100
AcDbLine
 10
192.0
 20
-68.5
 30
0.0
 11
436.0
 21
-68.5
 31
0.0
  0
MTEXT
  5
138
330
12E
100
AcDbEntity
  8
COTA
 62
240
100
AcDbMText
 10
314.0
 20
-60.5
 30
0.0
 40
10.0
 71
5
  1
244
  0
POINT
  5
139
330
12E
100
AcDbEntity
  8
Defpoints
100
AcDbPoint
 10
192.0
 20
-68.5
 30
0.0
  0
POINT
  5
13A
330
12E
100
AcDbEntity
  8
Defpoints
100
AcDbPoint
 10
192.0
 20
-31.5
 30
0.0
  0
POINT
  5
13B
330
12E
100
AcDbEntity
  8
Defpoints
100
AcDbPoint
 10
436.0
 20
-31.5
 30
0.0
  0
ENDBLK
  5
130
330
12E
100
AcDbEntity
  8
0
100
AcDbBlockEnd
  0
BLOCK
  5
13E
330
13D
100
AcDbEntity
  8
0
100
AcDbBlockBegin
  2
*D8
 70
1
 10
0.0
 20
0.0
 30
0.0
  3
*D8
  1

  0
LINE
  5
140
330
13D
100
AcDbEntity
  8
0
 62
4
100
AcDbLine
 10
436.0
 20
-34.5
 30
0.0
 11
436.0
 21
-71.5
 31
0.0
  0
LINE
  5
141
330
13D
100
AcDbEntity
  8
0
 62
4
100
AcDbLine
 10
610.0
 20
-34.5
 30
0.0
 11
610.0
 21
-71.5
 31
0.0
  0
INSERT
  5
142
330
13D
100
AcDbEntity
  8
COTA
 62
4
100
AcDbBlockReference
  2
_OBLIQUE
 10
436.0
 20
-68.5
 30
0.0
 41
3.0
 42
3.0
 50
180.0
  0
INSERT
  5
144
330
13D
100
AcDbEntity
  8
COTA
 62
4
100
AcDbBlockReference
  2
_OBLIQUE
 10
610.0
 20
-68.5
 30
0.0
 41
3.0
 42
3.0
  0
LINE
  5
146
330
13D
100
AcDbEntity
  8
0
 62
4
100
AcDbLine
 10
436.0
 20
-68.5
 30
0.0
 11
610.0
 21
-68.5
 31
0.0
  0
MTEXT
  5
147
330
13D
100
AcDbEntity
  8
COTA
 62
240
100
AcDbMText
 10
523.0
 20
-60.5
 30
0.0
 40
10.0
 71
5
  1
174
  0
POINT
  5
148
330
13D
100
AcDbEntity
  8
Defpoints
100
AcDbPoint
 10
436.0
 20
-68.5
 30
0.0
  0
POINT
  5
149
330
13D
100
AcDbEntity
  8
Defpoints
100
AcDbPoint
 10
436.0
 20
-31.5
 30
0.0
  0
POINT
  5
14A
330
13D
100
AcDbEntity
  8
Defpoints
100
AcDbPoint
 10
610.0
 20
-31.5
 30
0.0
  0
ENDBLK
  5
13F
330
13D
100
AcDbEntity
  8
0
100
AcDbBlockEnd
  0
BLOCK
  5
14D
330
14C
100
AcDbEntity
  8
0
100
AcDbBlockBegin
  2
*D9
 70
1
 10
0.0
 20
0.0
 30
0.0
  3
*D9
  1

  0
LINE
  5
14F
330
14C
100
AcDbEntity
  8
0
 62
4
100
AcDbLine
 10
192.0
 20
-34.5
 30
0.0
 11
192.0
 21
-94.5
 31
0.0
  0
LINE
  5
150
330
14C
100
AcDbEntity
  8
0
 62
4
100
AcDbLine
 10
610.0
 20
-34.5
 30
0.0
 11
610.0
 21
-94.5
 31
0.0
  0
INSERT
  5
151
330
14C
100
AcDbEntity
  8
COTA
 62
4
100
AcDbBlockReference
  2
_OBLIQUE
 10
192.0
 20
-91.5
 30
0.0
 41
3.0
 42
3.0
 50
180.0
  0
INSERT
  5
153
330
14C
100
AcDbEntity
  8
COTA
 62
4
100
AcDbBlockReference
  2
_OBLIQUE
 10
610.0
 20
-91.5
 30
0.0
 41
3.0
 42
3.0
  0
LINE
  5
155
330
14C
100
AcDbEntity
  8
0
 62
4
100
AcDbLine
 10
192.0
 20
-91.5
 30
0.0
 11
610.0
 21
-91.5
 31
0.0
  0
MTEXT
  5
156
330
14C
100
AcDbEntity
  8
COTA
 62
240
100
AcDbMText
 10
401.0
 20
-83.5
 30
0.0
 40
10.0
 71
5
  1
418
  0
POINT
  5
157
330
14C
100
AcDbEntity
  8
Defpoints
100
AcDbPoint
 10
192.0
 20
-91.5
 30
0.0
  0
POINT
  5
158
330
14C
100
AcDbEntity
  8
Defpoints
100
AcDbPoint
 10
192.0
 20
-31.5
 30
0.0
  0
POINT
  5
159
330
14C
100
AcDbEntity
  8
Defpoints
100
AcDbPoint
 10
610.0
 20
-31.5
 30
0.0
  0
ENDBLK
  5
14E
330
14C
100
AcDbEntity
  8
0
100
AcDbBlockEnd
  0
BLOCK
  5
15C
330
15B
100
AcDbEntity
  8
0
100
AcDbBlockBegin
  2
*D10
 70
1
 10
0.0
 20
0.0
 30
0.0
  3
*D10
  1

  0
LINE
  5
15E
330
15B
100
AcDbEntity
  8
0
 62
4
100
AcDbLine
 10
189.0
 20
-38.5
 30
0.0
 11
161.0
 21
-38.5
 31
0.0
  0
LINE
  5
15F
330
15B
100
AcDbEntity
  8
0
 62
4
100
AcDbLine
 10
189.0
 20
-31.5
 30
0.0
 11
161.0
 21
-31.5
 31
0.0
  0
INSERT
  5
160
330
15B
100
AcDbEntity
  8
COTA
 62
4
100
AcDbBlockReference
  2
_OBLIQUE
 10
164.0
 20
-38.5
 30
0.0
 41
3.0
 42
3.0
 50
90.0
  0
INSERT
  5
162
330
15B
100
AcDbEntity
  8
COTA
 62
4
100
AcDbBlockReference
  2
_OBLIQUE
 10
164.0
 20
-31.5
 30
0.0
 41
3.0
 42
3.0
 50
270.0
  0
LINE
  5
164
330
15B
100
AcDbEntity
  8
0
 62
4
100
AcDbLine
 10
164.0
 20
-38.5
 30
0.0
 11
164.0
 21
-31.5
 31
0.0
  0
MTEXT
  5
165
330
15B
100
AcDbEntity
  8
COTA
 62
240
100
AcDbMText
 10
153.0
 20
-35.0
 30
0.0
 40
10.0
 71
5
  1
7
 50
90.0
  0
POINT
  5
166
330
15B
100
AcDbEntity
  8
Defpoints
100
AcDbPoint
 10
164.0
 20
-38.5
 30
0.0
  0
POINT
  5
167
330
15B
100
AcDbEntity
  8
Defpoints
100
AcDbPoint
 10
192.0
 20
-38.5
 30
0.0
  0
POINT
  5
168
330
15B
100
AcDbEntity
  8
Defpoints
100
AcDbPoint
 10
192.0
 20
-31.5
 30
0.0
  0
ENDBLK
  5
15D
330
15B
100
AcDbEntity
  8
0
100
AcDbBlockEnd
  0
BLOCK
  5
16B
330
16A
100
AcDbEntity
  8
0
100
AcDbBlockBegin
  2
*D11
 70
1
 10
0.0
 20
0.0
 30
0.0
  3
*D11
  1

  0
LINE
  5
16D
330
16A
100
AcDbEntity
  8
0
 62
4
100
AcDbLine
 10
189.0
 20
-31.5
 30
0.0
 11
161.0
 21
-31.5
 31
0.0
  0
LINE
  5
16E
330
16A
100
AcDbEntity
  8
0
 62
4
100
AcDbLine
 10
189.0
 20
0.0
 30
0.0
 11
161.0
 21
0.0
 31
0.0
  0
INSERT
  5
16F
330
16A
100
AcDbEntity
  8
COTA
 62
4
100
AcDbBlockReference
  2
_OBLIQUE
 10
164.0
 20
-31.5
 30
0.0
 41
3.0
 42
3.0
 50
270.0
  0
INSERT
  5
171
330
16A
100
AcDbEntity
  8
COTA
 62
4
100
AcDbBlockReference
  2
_OBLIQUE
 10
164.0
 20
0.0
 30
0.0
 41
3.0
 42
3.0
 50
90.0
  0
LINE
  5
173
330
16A
100
AcDbEntity
  8
0
 62
4
100
AcDbLine
 10
164.0
 20
-31.5
 30
0.0
 11
164.0
 21
0.0
 31
0.0
  0
MTEXT
  5
174
330
16A
100
AcDbEntity
  8
COTA
 62
240
100
AcDbMText
 10
153.0
 20
-15.75
 30
0.0
 40
10.0
 71
5
  1
31,5
 50
90.0
  0
POINT
  5
175
330
16A
100
AcDbEntity
  8
Defpoints
100
AcDbPoint
 10
164.0
 20
-31.5
 30
0.0
  0
POINT
  5
176
330
16A
100
AcDbEntity
  8
Defpoints
100
AcDbPoint
 10
192.0
 20
-31.5
 30
0.0
  0
POINT
  5
177
330
16A
100
AcDbEntity
  8
Defpoints
100
AcDbPoint
 10
192.0
 20
0.0
 30
0.0
  0
ENDBLK
  5
16C
330
16A
100
AcDbEntity
  8
0
100
AcDbBlockEnd
  0
BLOCK
  5
17A
330
179
100
AcDbEntity
  8
0
100
AcDbBlockBegin
  2
*D12
 70
1
 10
0.0
 20
0.0
 30
0.0
  3
*D12
  1

  0
LINE
  5
17C
330
179
100
AcDbEntity
  8
0
 62
4
100
AcDbLine
 10
189.0
 20
0.0
 30
0.0
 11
161.0
 21
0.0
 31
0.0
  0
LINE
  5
17D
330
179
100
AcDbEntity
  8
0
 62
4
100
AcDbLine
 10
189.0
 20
7.0
 30
0.0
 11
161.0
 21
7.0
 31
0.0
  0
INSERT
  5
17E
330
179
100
AcDbEntity
  8
COTA
 62
4
100
AcDbBlockReference
  2
_OBLIQUE
 10
164.0
 20
0.0
 30
0.0
 41
3.0
 42
3.0
 50
90.0
  0
INSERT
  5
180
330
179
100
AcDbEntity
  8
COTA
 62
4
100
AcDbBlockReference
  2
_OBLIQUE
 10
164.0
 20
7.0
 30
0.0
 41
3.0
 42
3.0
 50
270.0
  0
LINE
  5
182
330
179
100
AcDbEntity
  8
0
 62
4
100
AcDbLine
 10
164.0
 20
0.0
 30
0.0
 11
164.0
 21
7.0
 31
0.0
  0
MTEXT
  5
183
330
179
100
AcDbEntity
  8
COTA
 62
240
100
AcDbMText
 10
153.0
 20
3.5
 30
0.0
 40
10.0
 71
5
  1
7
 50
90.0
  0
POINT
  5
184
330
179
100
AcDbEntity
  8
Defpoints
100
AcDbPoint
 10
164.0
 20
0.0
 30
0.0
  0
POINT
  5
185
330
179
100
AcDbEntity
  8
Defpoints
100
AcDbPoint
 10
192.0
 20
0.0
 30
0.0
  0
POINT
  5
186
330
179
100
AcDbEntity
  8
Defpoints
100
AcDbPoint
 10
192.0
 20
7.0
 30
0.0
  0
ENDBLK
  5
17B
330
179
100
AcDbEntity
  8
0
100
AcDbBlockEnd
  0
BLOCK
  5
189
330
188
100
AcDbEntity
  8
0
100
AcDbBlockBegin
  2
*D13
 70
1
 10
0.0
 20
0.0
 30
0.0
  3
*D13
  1

  0
LINE
  5
18B
330
188
100
AcDbEntity
  8
0
 62
4
100
AcDbLine
 10
613.0
 20
-38.5
 30
0.0
 11
641.0
 21
-38.5
 31
0.0
  0
LINE
  5
18C
330
188
100
AcDbEntity
  8
0
 62
4
100
AcDbLine
 10
613.0
 20
7.0
 30
0.0
 11
641.0
 21
7.0
 31
0.0
  0
INSERT
  5
18D
330
188
100
AcDbEntity
  8
COTA
 62
4
100
AcDbBlockReference
  2
_OBLIQUE
 10
638.0
 20
-38.5
 30
0.0
 41
3.0
 42
3.0
 50
270.0
  0
INSERT
  5
18F
330
188
100
AcDbEntity
  8
COTA
 62
4
100
AcDbBlockReference
  2
_OBLIQUE
 10
638.0
 20
7.0
 30
0.0
 41
3.0
 42
3.0
 50
90.0
  0
LINE
  5
191
330
188
100
AcDbEntity
  8
0
 62
4
100
AcDbLine
 10
638.0
 20
-38.5
 30
0.0
 11
638.0
 21
7.0
 31
0.0
  0
MTEXT
  5
192
330
188
100
AcDbEntity
  8
COTA
 62
240
100
AcDbMText
 10
630.0
 20
-15.75
 30
0.0
 40
10.0
 71
5
  1
45,5
 50
90.0
  0
POINT
  5
193
330
188
100
AcDbEntity
  8
Defpoints
100
AcDbPoint
 10
638.0
 20
-38.5
 30
0.0
  0
POINT
  5
194
330
188
100
AcDbEntity
  8
Defpoints
100
AcDbPoint
 10
610.0
 20
-38.5
 30
0.0
  0
POINT
  5
195
330
188
100
AcDbEntity
  8
Defpoints
100
AcDbPoint
 10
610.0
 20
7.0
 30
0.0
  0
ENDBLK
  5
18A
330
188
100
AcDbEntity
  8
0
100
AcDbBlockEnd
  0
BLOCK
  5
198
330
197
100
AcDbEntity
  8
0
100
AcDbBlockBegin
  2
*D14
 70
1
 10
0.0
 20
0.0
 30
0.0
  3
*D14
  1

  0
LINE
  5
19A
330
197
100
AcDbEntity
  8
0
 62
4
100
AcDbLine
 10
613.0
 20
-38.5
 30
0.0
 11
641.0
 21
-38.5
 31
0.0
  0
LINE
  5
19B
330
197
100
AcDbEntity
  8
0
 62
4
100
AcDbLine
 10
613.0
 20
-31.5
 30
0.0
 11
641.0
 21
-31.5
 31
0.0
  0
INSERT
  5
19C
330
197
100
AcDbEntity
  8
COTA
 62
4
100
AcDbBlockReference
  2
_OBLIQUE
 10
638.0
 20
-38.5
 30
0.0
 41
3.0
 42
3.0
 50
90.0
  0
INSERT
  5
19E
330
197
100
AcDbEntity
  8
COTA
 62
4
100
AcDbBlockReference
  2
_OBLIQUE
 10
638.0
 20
-31.5
 30
0.0
 41
3.0
 42
3.0
 50
270.0
  0
LINE
  5
1A0
330
197
100
AcDbEntity
  8
0
 62
4
100
AcDbLine
 10
638.0
 20
-38.5
 30
0.0
 11
638.0
 21
-31.5
 31
0.0
  0
MTEXT
  5
1A1
330
197
100
AcDbEntity
  8
COTA
 62
240
100
AcDbMText
 10
627.0
 20
-35.0
 30
0.0
 40
10.0
 71
5
  1
7
 50
90.0
  0
POINT
  5
1A2
330
197
100
AcDbEntity
  8
Defpoints
100
AcDbPoint
 10
638.0
 20
-38.5
 30
0.0
  0
POINT
  5
1A3
330
197
100
AcDbEntity
  8
Defpoints
100
AcDbPoint
 10
610.0
 20
-38.5
 30
0.0
  0
POINT
  5
1A4
330
197
100
AcDbEntity
  8
Defpoints
100
AcDbPoint
 10
610.0
 20
-31.5
 30
0.0
  0
ENDBLK
  5
199
330
197
100
AcDbEntity
  8
0
100
AcDbBlockEnd
  0
BLOCK
  5
1A7
330
1A6
100
AcDbEntity
  8
0
100
AcDbBlockBegin
  2
*D15
 70
1
 10
0.0
 20
0.0
 30
0.0
  3
*D15
  1

  0
LINE
  5
1A9
330
1A6
100
AcDbEntity
  8
0
 62
4
100
AcDbLine
 10
613.0
 20
-31.5
 30
0.0
 11
641.0
 21
-31.5
 31
0.0
  0
LINE
  5
1AA
330
1A6
100
AcDbEntity
  8
0
 62
4
100
AcDbLine
 10
613.0
 20
0.0
 30
0.0
 11
641.0
 21
0.0
 31
0.0
  0
INSERT
  5
1AB
330
1A6
100
AcDbEntity
  8
COTA
 62
4
100
AcDbBlockReference
  2
_OBLIQUE
 10
638.0
 20
-31.5
 30
0.0
 41
3.0
 42
3.0
 50
270.0
  0
INSERT
  5
1AD
330
1A6
100
AcDbEntity
  8
COTA
 62
4
100
AcDbBlockReference
  2
_OBLIQUE
 10
638.0
 20
0.0
 30
0.0
 41
3.0
 42
3.0
 50
90.0
  0
LINE
  5
1AF
330
1A6
100
AcDbEntity
  8
0
 62
4
100
AcDbLine
 10
638.0
 20
-31.5
 30
0.0
 11
638.0
 21
0.0
 31
0.0
  0
MTEXT
  5
1B0
330
1A6
100
AcDbEntity
  8
COTA
 62
240
100
AcDbMText
 10
627.0
 20
-15.75
 30
0.0
 40
10.0
 71
5
  1
31,5
 50
90.0
  0
POINT
  5
1B1
330
1A6
100
AcDbEntity
  8
Defpoints
100
AcDbPoint
 10
638.0
 20
-31.5
 30
0.0
  0
POINT
  5
1B2
330
1A6
100
AcDbEntity
  8
Defpoints
100
AcDbPoint
 10
610.0
 20
-31.5
 30
0.0
  0
POINT
  5
1B3
330
1A6
100
AcDbEntity
  8
Defpoints
100
AcDbPoint
 10
610.0
 20
0.0
 30
0.0
  0
ENDBLK
  5
1A8
330
1A6
100
AcDbEntity
  8
0
100
AcDbBlockEnd
  0
BLOCK
  5
1B6
330
1B5
100
AcDbEntity
  8
0
100
AcDbBlockBegin
  2
*D16
 70
1
 10
0.0
 20
0.0
 30
0.0
  3
*D16
  1

  0
LINE
  5
1B8
330
1B5
100
AcDbEntity
  8
0
 62
4
100
AcDbLine
 10
613.0
 20
0.0
 30
0.0
 11
641.0
 21
0.0
 31
0.0
  0
LINE
  5
1B9
330
1B5
100
AcDbEntity
  8
0
 62
4
100
AcDbLine
 10
613.0
 20
7.0
 30
0.0
 11
641.0
 21
7.0
 31
0.0
  0
INSERT
  5
1BA
330
1B5
100
AcDbEntity
  8
COTA
 62
4
100
AcDbBlockReference
  2
_OBLIQUE
 10
638.0
 20
0.0
 30
0.0
 41
3.0
 42
3.0
 50
90.0
  0
INSERT
  5
1BC
330
1B5
100
AcDbEntity
  8
COTA
 62
4
100
AcDbBlockReference
  2
_OBLIQUE
 10
638.0
 20
7.0
 30
0.0
 41
3.0
 42
3.0
 50
270.0
  0
LINE
  5
1BE
330
1B5
100
AcDbEntity
  8
0
 62
4
100
AcDbLine
 10
638.0
 20
0.0
 30
0.0
 11
638.0
 21
7.0
 31
0.0
  0
MTEXT
  5
1BF
330
1B5
100
AcDbEntity
  8
COTA
 62
240
100
AcDbMText
 10
627.0
 20
3.5
 30
0.0
 40
10.0
 71
5
  1
7
 50
90.0
  0
POINT
  5
1C0
330
1B5
100
AcDbEntity
  8
Defpoints
100
AcDbPoint
 10
638.0
 20
0.0
 30
0.0
  0
POINT
  5
1C1
330
1B5
100
AcDbEntity
  8
Defpoints
100
AcDbPoint
 10
610.0
 20
0.0
 30
0.0
  0
POINT
  5
1C2
330
1B5
100
AcDbEntity
  8
Defpoints
100
AcDbPoint
 10
610.0
 20
7.0
 30
0.0
  0
ENDBLK
  5
1B7
330
1B5
100
AcDbEntity
  8
0
100
AcDbBlockEnd
  0
BLOCK
  5
1C5
330
1C4
100
AcDbEntity
  8
0
100
AcDbBlockBegin
  2
*D17
 70
1
 10
0.0
 20
0.0
 30
0.0
  3
*D17
  1

  0
LINE
  5
1C7
330
1C4
100
AcDbEntity
  8
0
 62
4
100
AcDbLine
 10
195.0
 20
-38.5
 30
0.0
 11
223.0
 21
-38.5
 31
0.0
  0
LINE
  5
1C8
330
1C4
100
AcDbEntity
  8
0
 62
4
100
AcDbLine
 10
195.0
 20
7.0
 30
0.0
 11
223.0
 21
7.0
 31
0.0
  0
INSERT
  5
1C9
330
1C4
100
AcDbEntity
  8
COTA
 62
4
100
AcDbBlockReference
  2
_OBLIQUE
 10
220.0
 20
-38.5
 30
0.0
 41
3.0
 42
3.0
 50
270.0
  0
INSERT
  5
1CB
330
1C4
100
AcDbEntity
  8
COTA
 62
4
100
AcDbBlockReference
  2
_OBLIQUE
 10
220.0
 20
7.0
 30
0.0
 41
3.0
 42
3.0
 50
90.0
  0
LINE
  5
1CD
330
1C4
100
AcDbEntity
  8
0
 62
4
100
AcDbLine
 10
220.0
 20
-38.5
 30
0.0
 11
220.0
 21
7.0
 31
0.0
  0
MTEXT
  5
1CE
330
1C4
100
AcDbEntity
  8
COTA
 62
240
100
AcDbMText
 10
212.0
 20
-15.75
 30
0.0
 40
10.0
 71
5
  1
45,5
 50
90.0
  0
POINT
  5
1CF
330
1C4
100
AcDbEntity
  8
Defpoints
100
AcDbPoint
 10
220.0
 20
-38.5
 30
0.0
  0
POINT
  5
1D0
330
1C4
100
AcDbEntity
  8
Defpoints
100
AcDbPoint
 10
192.0
 20
-38.5
 30
0.0
  0
POINT
  5
1D1
330
1C4
100
AcDbEntity
  8
Defpoints
100
AcDbPoint
 10
192.0
 20
7.0
 30
0.0
  0
ENDBLK
  5
1C6
330
1C4
100
AcDbEntity
  8
0
100
AcDbBlockEnd
  0
BLOCK
  5
1E8
330
1E7
100
AcDbEntity
  8
0
100
AcDbBlockBegin
  2
*D18
 70
1
 10
0.0
 20
0.0
 30
0.0
  3
*D18
  1

  0
LINE
  5
1EA
330
1E7
100
AcDbEntity
  8
0
 62
4
100
AcDbLine
 10
660.0
 20
-20.5
 30
0.0
 11
660.0
 21
-57.5
 31
0.0
  0
LINE
  5
1EB
330
1E7
100
AcDbEntity
  8
0
 62
4
100
AcDbLine
 10
904.0
 20
-20.5
 30
0.0
 11
904.0
 21
-57.5
 31
0.0
  0
INSERT
  5
1EC
330
1E7
100
AcDbEntity
  8
COTA
 62
4
100
AcDbBlockReference
  2
_OBLIQUE
 10
660.0
 20
-54.5
 30
0.0
 41
3.0
 42
3.0
 50
180.0
  0
INSERT
  5
1EE
330
1E7
100
AcDbEntity
  8
COTA
 62
4
100
AcDbBlockReference
  2
_OBLIQUE
 10
904.0
 20
-54.5
 30
0.0
 41
3.0
 42
3.0
  0
LINE
  5
1F0
330
1E7
100
AcDbEntity
  8
0
 62
4
100
AcDbLine
 10
660.0
 20
-54.5
 30
0.0
 11
904.0
 21
-54.5
 31
0.0
  0
MTEXT
  5
1F1
330
1E7
100
AcDbEntity
  8
COTA
 62
240
100
AcDbMText
 10
782.0
 20
-46.5
 30
0.0
 40
10.0
 71
5
  1
244
  0
POINT
  5
1F2
330
1E7
100
AcDbEntity
  8
Defpoints
100
AcDbPoint
 10
660.0
 20
-54.5
 30
0.0
  0
POINT
  5
1F3
330
1E7
100
AcDbEntity
  8
Defpoints
100
AcDbPoint
 10
660.0
 20
-17.5
 30
0.0
  0
POINT
  5
1F4
330
1E7
100
AcDbEntity
  8
Defpoints
100
AcDbPoint
 10
904.0
 20
-17.5
 30
0.0
  0
ENDBLK
  5
1E9
330
1E7
100
AcDbEntity
  8
0
100
AcDbBlockEnd
  0
BLOCK
  5
1F7
330
1F6
100
AcDbEntity
  8
0
100
AcDbBlockBegin
  2
*D19
 70
1
 10
0.0
 20
0.0
 30
0.0
  3
*D19
  1

  0
LINE
  5
1F9
330
1F6
100
AcDbEntity
  8
0
 62
4
100
AcDbLine
 10
904.0
 20
-20.5
 30
0.0
 11
904.0
 21
-57.5
 31
0.0
  0
LINE
  5
1FA
330
1F6
100
AcDbEntity
  8
0
 62
4
100
AcDbLine
 10
1078.0
 20
-20.5
 30
0.0
 11
1078.0
 21
-57.5
 31
0.0
  0
INSERT
  5
1FB
330
1F6
100
AcDbEntity
  8
COTA
 62
4
100
AcDbBlockReference
  2
_OBLIQUE
 10
904.0
 20
-54.5
 30
0.0
 41
3.0
 42
3.0
 50
180.0
  0
INSERT
  5
1FD
330
1F6
100
AcDbEntity
  8
COTA
 62
4
100
AcDbBlockReference
  2
_OBLIQUE
 10
1078.0
 20
-54.5
 30
0.0
 41
3.0
 42
3.0
  0
LINE
  5
1FF
330
1F6
100
AcDbEntity
  8
0
 62
4
100
AcDbLine
 10
904.0
 20
-54.5
 30
0.0
 11
1078.0
 21
-54.5
 31
0.0
  0
MTEXT
  5
200
330
1F6
100
AcDbEntity
  8
COTA
 62
240
100
AcDbMText
 10
991.0
 20
-46.5
 30
0.0
 40
10.0
 71
5
  1
174
  0
POINT
  5
201
330
1F6
100
AcDbEntity
  8
Defpoints
100
AcDbPoint
 10
904.0
 20
-54.5
 30
0.0
  0
POINT
  5
202
330
1F6
100
AcDbEntity
  8
Defpoints
100
AcDbPoint
 10
904.0
 20
-17.5
 30
0.0
  0
POINT
  5
203
330
1F6
100
AcDbEntity
  8
Defpoints
100
AcDbPoint
 10
1078.0
 20
-17.5
 30
0.0
  0
ENDBLK
  5
1F8
330
1F6
100
AcDbEntity
  8
0
100
AcDbBlockEnd
  0
BLOCK
  5
206
330
205
100
AcDbEntity
  8
0
100
AcDbBlockBegin
  2
*D20
 70
1
 10
0.0
 20
0.0
 30
0.0
  3
*D20
  1

  0
LINE
  5
208
330
205
100
AcDbEntity
  8
0
 62
4
100
AcDbLine
 10
660.0
 20
-20.5
 30
0.0
 11
660.0
 21
-80.5
 31
0.0
  0
LINE
  5
209
330
205
100
AcDbEntity
  8
0
 62
4
100
AcDbLine
 10
1078.0
 20
-20.5
 30
0.0
 11
1078.0
 21
-80.5
 31
0.0
  0
INSERT
  5
20A
330
205
100
AcDbEntity
  8
COTA
 62
4
100
AcDbBlockReference
  2
_OBLIQUE
 10
660.0
 20
-77.5
 30
0.0
 41
3.0
 42
3.0
 50
180.0
  0
INSERT
  5
20C
330
205
100
AcDbEntity
  8
COTA
 62
4
100
AcDbBlockReference
  2
_OBLIQUE
 10
1078.0
 20
-77.5
 30
0.0
 41
3.0
 42
3.0
  0
LINE
  5
20E
330
205
100
AcDbEntity
  8
0
 62
4
100
AcDbLine
 10
660.0
 20
-77.5
 30
0.0
 11
1078.0
 21
-77.5
 31
0.0
  0
MTEXT
  5
20F
330
205
100
AcDbEntity
  8
COTA
 62
240
100
AcDbMText
 10
869.0
 20
-69.5
 30
0.0
 40
10.0
 71
5
  1
418
  0
POINT
  5
210
330
205
100
AcDbEntity
  8
Defpoints
100
AcDbPoint
 10
660.0
 20
-77.5
 30
0.0
  0
POINT
  5
211
330
205
100
AcDbEntity
  8
Defpoints
100
AcDbPoint
 10
660.0
 20
-17.5
 30
0.0
  0
POINT
  5
212
330
205
100
AcDbEntity
  8
Defpoints
100
AcDbPoint
 10
1078.0
 20
-17.5
 30
0.0
  0
ENDBLK
  5
207
330
205
100
AcDbEntity
  8
0
100
AcDbBlockEnd
  0
BLOCK
  5
215
330
214
100
AcDbEntity
  8
0
100
AcDbBlockBegin
  2
*D21
 70
1
 10
0.0
 20
0.0
 30
0.0
  3
*D21
  1

  0
LINE
  5
217
330
214
100
AcDbEntity
  8
0
 62
4
100
AcDbLine
 10
657.0
 20
-24.5
 30
0.0
 11
629.0
 21
-24.5
 31
0.0
  0
LINE
  5
218
330
214
100
AcDbEntity
  8
0
 62
4
100
AcDbLine
 10
657.0
 20
-17.5
 30
0.0
 11
629.0
 21
-17.5
 31
0.0
  0
INSERT
  5
219
330
214
100
AcDbEntity
  8
COTA
 62
4
100
AcDbBlockReference
  2
_OBLIQUE
 10
632.0
 20
-24.5
 30
0.0
 41
3.0
 42
3.0
 50
90.0
  0
INSERT
  5
21B
330
214
100
AcDbEntity
  8
COTA
 62
4
100
AcDbBlockReference
  2
_OBLIQUE
 10
632.0
 20
-17.5
 30
0.0
 41
3.0
 42
3.0
 50
270.0
  0
LINE
  5
21D
330
214
100
AcDbEntity
  8
0
 62
4
100
AcDbLine
 10
632.0
 20
-24.5
 30
0.0
 11
632.0
 21
-17.5
 31
0.0
  0
MTEXT
  5
21E
330
214
100
AcDbEntity
  8
COTA
 62
240
100
AcDbMText
 10
621.0
 20
-21.0
 30
0.0
 40
10.0
 71
5
  1
7
 50
90.0
  0
POINT
  5
21F
330
214
100
AcDbEntity
  8
Defpoints
100
AcDbPoint
 10
632.0
 20
-24.5
 30
0.0
  0
POINT
  5
220
330
214
100
AcDbEntity
  8
Defpoints
100
AcDbPoint
 10
660.0
 20
-24.5
 30
0.0
  0
POINT
  5
221
330
214
100
AcDbEntity
  8
Defpoints
100
AcDbPoint
 10
660.0
 20
-17.5
 30
0.0
  0
ENDBLK
  5
216
330
214
100
AcDbEntity
  8
0
100
AcDbBlockEnd
  0
BLOCK
  5
224
330
223
100
AcDbEntity
  8
0
100
AcDbBlockBegin
  2
*D22
 70
1
 10
0.0
 20
0.0
 30
0.0
  3
*D22
  1

  0
LINE
  5
226
330
223
100
AcDbEntity
  8
0
 62
4
100
AcDbLine
 10
657.0
 20
-17.5
 30
0.0
 11
629.0
 21
-17.5
 31
0.0
  0
LINE
  5
227
330
223
100
AcDbEntity
  8
0
 62
4
100
AcDbLine
 10
657.0
 20
0.0
 30
0.0
 11
629.0
 21
0.0
 31
0.0
  0
INSERT
  5
228
330
223
100
AcDbEntity
  8
COTA
 62
4
100
AcDbBlockReference
  2
_OBLIQUE
 10
632.0
 20
-17.5
 30
0.0
 41
3.0
 42
3.0
 50
270.0
  0
INSERT
  5
22A
330
223
100
AcDbEntity
  8
COTA
 62
4
100
AcDbBlockReference
  2
_OBLIQUE
 10
632.0
 20
0.0
 30
0.0
 41
3.0
 42
3.0
 50
90.0
  0
LINE
  5
22C
330
223
100
AcDbEntity
  8
0
 62
4
100
AcDbLine
 10
632.0
 20
-17.5
 30
0.0
 11
632.0
 21
0.0
 31
0.0
  0
MTEXT
  5
22D
330
223
100
AcDbEntity
  8
COTA
 62
240
100
AcDbMText
 10
621.0
 20
-8.75
 30
0.0
 40
10.0
 71
5
  1
17,5
 50
90.0
  0
POINT
  5
22E
330
223
100
AcDbEntity
  8
Defpoints
100
AcDbPoint
 10
632.0
 20
-17.5
 30
0.0
  0
POINT
  5
22F
330
223
100
AcDbEntity
  8
Defpoints
100
AcDbPoint
 10
660.0
 20
-17.5
 30
0.0
  0
POINT
  5
230
330
223
100
AcDbEntity
  8
Defpoints
100
AcDbPoint
 10
660.0
 20
0.0
 30
0.0
  0
ENDBLK
  5
225
330
223
100
AcDbEntity
  8
0
100
AcDbBlockEnd
  0
BLOCK
  5
233
330
232
100
AcDbEntity
  8
0
100
AcDbBlockBegin
  2
*D23
 70
1
 10
0.0
 20
0.0
 30
0.0
  3
*D23
  1

  0
LINE
  5
235
330
232
100
AcDbEntity
  8
0
 62
4
100
AcDbLine
 10
657.0
 20
0.0
 30
0.0
 11
629.0
 21
0.0
 31
0.0
  0
LINE
  5
236
330
232
100
AcDbEntity
  8
0
 62
4
100
AcDbLine
 10
657.0
 20
7.0
 30
0.0
 11
629.0
 21
7.0
 31
0.0
  0
INSERT
  5
237
330
232
100
AcDbEntity
  8
COTA
 62
4
100
AcDbBlockReference
  2
_OBLIQUE
 10
632.0
 20
0.0
 30
0.0
 41
3.0
 42
3.0
 50
90.0
  0
INSERT
  5
239
330
232
100
AcDbEntity
  8
COTA
 62
4
100
AcDbBlockReference
  2
_OBLIQUE
 10
632.0
 20
7.0
 30
0.0
 41
3.0
 42
3.0
 50
270.0
  0
LINE
  5
23B
330
232
100
AcDbEntity
  8
0
 62
4
100
AcDbLine
 10
632.0
 20
0.0
 30
0.0
 11
632.0
 21
7.0
 31
0.0
  0
MTEXT
  5
23C
330
232
100
AcDbEntity
  8
COTA
 62
240
100
AcDbMText
 10
621.0
 20
3.5
 30
0.0
 40
10.0
 71
5
  1
7
 50
90.0
  0
POINT
  5
23D
330
232
100
AcDbEntity
  8
Defpoints
100
AcDbPoint
 10
632.0
 20
0.0
 30
0.0
  0
POINT
  5
23E
330
232
100
AcDbEntity
  8
Defpoints
100
AcDbPoint
 10
660.0
 20
0.0
 30
0.0
  0
POINT
  5
23F
330
232
100
AcDbEntity
  8
Defpoints
100
AcDbPoint
 10
660.0
 20
7.0
 30
0.0
  0
ENDBLK
  5
234
330
232
100
AcDbEntity
  8
0
100
AcDbBlockEnd
  0
BLOCK
  5
242
330
241
100
AcDbEntity
  8
0
100
AcDbBlockBegin
  2
*D24
 70
1
 10
0.0
 20
0.0
 30
0.0
  3
*D24
  1

  0
LINE
  5
244
330
241
100
AcDbEntity
  8
0
 62
4
100
AcDbLine
 10
1081.0
 20
-24.5
 30
0.0
 11
1109.0
 21
-24.5
 31
0.0
  0
LINE
  5
245
330
241
100
AcDbEntity
  8
0
 62
4
100
AcDbLine
 10
1081.0
 20
7.0
 30
0.0
 11
1109.0
 21
7.0
 31
0.0
  0
INSERT
  5
246
330
241
100
AcDbEntity
  8
COTA
 62
4
100
AcDbBlockReference
  2
_OBLIQUE
 10
1106.0
 20
-24.5
 30
0.0
 41
3.0
 42
3.0
 50
270.0
  0
INSERT
  5
248
330
241
100
AcDbEntity
  8
COTA
 62
4
100
AcDbBlockReference
  2
_OBLIQUE
 10
1106.0
 20
7.0
 30
0.0
 41
3.0
 42
3.0
 50
90.0
  0
LINE
  5
24A
330
241
100
AcDbEntity
  8
0
 62
4
100
AcDbLine
 10
1106.0
 20
-24.5
 30
0.0
 11
1106.0
 21
7.0
 31
0.0
  0
MTEXT
  5
24B
330
241
100
AcDbEntity
  8
COTA
 62
240
100
AcDbMText
 10
1095.0
 20
-8.75
 30
0.0
 40
10.0
 71
5
  1
31,5
 50
90.0
  0
POINT
  5
24C
330
241
100
AcDbEntity
  8
Defpoints
100
AcDbPoint
 10
1106.0
 20
-24.5
 30
0.0
  0
POINT
  5
24D
330
241
100
AcDbEntity
  8
Defpoints
100
AcDbPoint
 10
1078.0
 20
-24.5
 30
0.0
  0
POINT
  5
24E
330
241
100
AcDbEntity
  8
Defpoints
100
AcDbPoint
 10
1078.0
 20
7.0
 30
0.0
  0
ENDBLK
  5
243
330
241
100
AcDbEntity
  8
0
100
AcDbBlockEnd
  0
BLOCK
  5
251
330
250
100
AcDbEntity
  8
0
100
AcDbBlockBegin
  2
*D25
 70
1
 10
0.0
 20
0.0
 30
0.0
  3
*D25
  1

  0
LINE
  5
253
330
250
100
AcDbEntity
  8
0
 62
4
100
AcDbLine
 10
1081.0
 20
-24.5
 30
0.0
 11
1109.0
 21
-24.5
 31
0.0
  0
LINE
  5
254
330
250
100
AcDbEntity
  8
0
 62
4
100
AcDbLine
 10
1081.0
 20
-17.5
 30
0.0
 11
1109.0
 21
-17.5
 31
0.0
  0
INSERT
  5
255
330
250
100
AcDbEntity
  8
COTA
 62
4
100
AcDbBlockReference
  2
_OBLIQUE
 10
1106.0
 20
-24.5
 30
0.0
 41
3.0
 42
3.0
 50
90.0
  0
INSERT
  5
257
330
250
100
AcDbEntity
  8
COTA
 62
4
100
AcDbBlockReference
  2
_OBLIQUE
 10
1106.0
 20
-17.5
 30
0.0
 41
3.0
 42
3.0
 50
270.0
  0
LINE
  5
259
330
250
100
AcDbEntity
  8
0
 62
4
100
AcDbLine
 10
1106.0
 20
-24.5
 30
0.0
 11
1106.0
 21
-17.5
 31
0.0
  0
MTEXT
  5
25A
330
250
100
AcDbEntity
  8
COTA
 62
240
100
AcDbMText
 10
1095.0
 20
-21.0
 30
0.0
 40
10.0
 71
5
  1
7
 50
90.0
  0
POINT
  5
25B
330
250
100
AcDbEntity
  8
Defpoints
100
AcDbPoint
 10
1106.0
 20
-24.5
 30
0.0
  0
POINT
  5
25C
330
250
100
AcDbEntity
  8
Defpoints
100
AcDbPoint
 10
1078.0
 20
-24.5
 30
0.0
  0
POINT
  5
25D
330
250
100
AcDbEntity
  8
Defpoints
100
AcDbPoint
 10
1078.0
 20
-17.5
 30
0.0
  0
ENDBLK
  5
252
330
250
100
AcDbEntity
  8
0
100
AcDbBlockEnd
  0
BLOCK
  5
260
330
25F
100
AcDbEntity
  8
0
100
AcDbBlockBegin
  2
*D26
 70
1
 10
0.0
 20
0.0
 30
0.0
  3
*D26
  1

  0
LINE
  5
262
330
25F
100
AcDbEntity
  8
0
 62
4
100
AcDbLine
 10
1081.0
 20
-17.5
 30
0.0
 11
1109.0
 21
-17.5
 31
0.0
  0
LINE
  5
263
330
25F
100
AcDbEntity
  8
0
 62
4
100
AcDbLine
 10
1081.0
 20
0.0
 30
0.0
 11
1109.0
 21
0.0
 31
0.0
  0
INSERT
  5
264
330
25F
100
AcDbEntity
  8
COTA
 62
4
100
AcDbBlockReference
  2
_OBLIQUE
 10
1106.0
 20
-17.5
 30
0.0
 41
3.0
 42
3.0
 50
270.0
  0
INSERT
  5
266
330
25F
100
AcDbEntity
  8
COTA
 62
4
100
AcDbBlockReference
  2
_OBLIQUE
 10
1106.0
 20
0.0
 30
0.0
 41
3.0
 42
3.0
 50
90.0
  0
LINE
  5
268
330
25F
100
AcDbEntity
  8
0
 62
4
100
AcDbLine
 10
1106.0
 20
-17.5
 30
0.0
 11
1106.0
 21
0.0
 31
0.0
  0
MTEXT
  5
269
330
25F
100
AcDbEntity
  8
COTA
 62
240
100
AcDbMText
 10
1095.0
 20
-8.75
 30
0.0
 40
10.0
 71
5
  1
17,5
 50
90.0
  0
POINT
  5
26A
330
25F
100
AcDbEntity
  8
Defpoints
100
AcDbPoint
 10
1106.0
 20
-17.5
 30
0.0
  0
POINT
  5
26B
330
25F
100
AcDbEntity
  8
Defpoints
100
AcDbPoint
 10
1078.0
 20
-17.5
 30
0.0
  0
POINT
  5
26C
330
25F
100
AcDbEntity
  8
Defpoints
100
AcDbPoint
 10
1078.0
 20
0.0
 30
0.0
  0
ENDBLK
  5
261
330
25F
100
AcDbEntity
  8
0
100
AcDbBlockEnd
  0
BLOCK
  5
26F
330
26E
100
AcDbEntity
  8
0
100
AcDbBlockBegin
  2
*D27
 70
1
 10
0.0
 20
0.0
 30
0.0
  3
*D27
  1

  0
LINE
  5
271
330
26E
100
AcDbEntity
  8
0
 62
4
100
AcDbLine
 10
1081.0
 20
0.0
 30
0.0
 11
1109.0
 21
0.0
 31
0.0
  0
LINE
  5
272
330
26E
100
AcDbEntity
  8
0
 62
4
100
AcDbLine
 10
1081.0
 20
7.0
 30
0.0
 11
1109.0
 21
7.0
 31
0.0
  0
INSERT
  5
273
330
26E
100
AcDbEntity
  8
COTA
 62
4
100
AcDbBlockReference
  2
_OBLIQUE
 10
1106.0
 20
0.0
 30
0.0
 41
3.0
 42
3.0
 50
90.0
  0
INSERT
  5
275
330
26E
100
AcDbEntity
  8
COTA
 62
4
100
AcDbBlockReference
  2
_OBLIQUE
 10
1106.0
 20
7.0
 30
0.0
 41
3.0
 42
3.0
 50
270.0
  0
LINE
  5
277
330
26E
100
AcDbEntity
  8
0
 62
4
100
AcDbLine
 10
1106.0
 20
0.0
 30
0.0
 11
1106.0
 21
7.0
 31
0.0
  0
MTEXT
  5
278
330
26E
100
AcDbEntity
  8
COTA
 62
240
100
AcDbMText
 10
1095.0
 20
3.5
 30
0.0
 40
10.0
 71
5
  1
7
 50
90.0
  0
POINT
  5
279
330
26E
100
AcDbEntity
  8
Defpoints
100
AcDbPoint
 10
1106.0
 20
0.0
 30
0.0
  0
POINT
  5
27A
330
26E
100
AcDbEntity
  8
Defpoints
100
AcDbPoint
 10
1078.0
 20
0.0
 30
0.0
  0
POINT
  5
27B
330
26E
100
AcDbEntity
  8
Defpoints
100
AcDbPoint
 10
1078.0
 20
7.0
 30
0.0
  0
ENDBLK
  5
270
330
26E
100
AcDbEntity
  8
0
100
AcDbBlockEnd
  0
BLOCK
  5
27E
330
27D
100
AcDbEntity
  8
0
100
AcDbBlockBegin
  2
*D28
 70
1
 10
0.0
 20
0.0
 30
0.0
  3
*D28
  1

  0
LINE
  5
280
330
27D
100
AcDbEntity
  8
0
 62
4
100
AcDbLine
 10
663.0
 20
-24.5
 30
0.0
 11
691.0
 21
-24.5
 31
0.0
  0
LINE
  5
281
330
27D
100
AcDbEntity
  8
0
 62
4
100
AcDbLine
 10
663.0
 20
7.0
 30
0.0
 11
691.0
 21
7.0
 31
0.0
  0
INSERT
  5
282
330
27D
100
AcDbEntity
  8
COTA
 62
4
100
AcDbBlockReference
  2
_OBLIQUE
 10
688.0
 20
-24.5
 30
0.0
 41
3.0
 42
3.0
 50
270.0
  0
INSERT
  5
284
330
27D
100
AcDbEntity
  8
COTA
 62
4
100
AcDbBlockReference
  2
_OBLIQUE
 10
688.0
 20
7.0
 30
0.0
 41
3.0
 42
3.0
 50
90.0
  0
LINE
  5
286
330
27D
100
AcDbEntity
  8
0
 62
4
100
AcDbLine
 10
688.0
 20
-24.5
 30
0.0
 11
688.0
 21
7.0
 31
0.0
  0
MTEXT
  5
287
330
27D
100
AcDbEntity
  8
COTA
 62
240
100
AcDbMText
 10
677.0
 20
-8.75
 30
0.0
 40
10.0
 71
5
  1
31,5
 50
90.0
  0
POINT
  5
288
330
27D
100
AcDbEntity
  8
Defpoints
100
AcDbPoint
 10
688.0
 20
-24.5
 30
0.0
  0
POINT
  5
289
330
27D
100
AcDbEntity
  8
Defpoints
100
AcDbPoint
 10
660.0
 20
-24.5
 30
0.0
  0
POINT
  5
28A
330
27D
100
AcDbEntity
  8
Defpoints
100
AcDbPoint
 10
660.0
 20
7.0
 30
0.0
  0
ENDBLK
  5
27F
330
27D
100
AcDbEntity
  8
0
100
AcDbBlockEnd
  0
ENDSEC
  0
SECTION
  2
ENTITIES
  0
LWPOLYLINE
  5
6B
330
17
100
AcDbEntity
  8
Madeira
100
AcDbPolyline
 90
4
 70
1
 10
22.0
 20
-31.5
 10
36.0
 20
-31.5
 10
36.0
 20
0.0
 10
22.0
 20
0.0
  0
LWPOLYLINE
  5
6C
330
17
100
AcDbEntity
  8
Madeira
100
AcDbPolyline
 90
4
 70
1
 10
82.0
 20
-31.5
 10
96.0
 20
-31.5
 10
96.0
 20
-14.0
 10
82.0
 20
-14.0
  0
LWPOLYLINE
  5
6D
330
17
100
AcDbEntity
  8
Madeira
100
AcDbPolyline
 90
4
 70
1
 10
2.0
 20
-31.5
 10
22.0
 20
-31.5
 10
22.0
 20
-27.1
 10
2.0
 20
-27.1
  0
LWPOLYLINE
  5
6E
330
17
100
AcDbEntity
  8
Madeira
100
AcDbPolyline
 90
4
 70
1
 10
96.0
 20
-31.5
 10
116.0
 20
-31.5
 10
116.0
 20
-27.1
 10
96.0
 20
-27.1
  0
LWPOLYLINE
  5
6F
330
17
100
AcDbEntity
  8
Madeira
100
AcDbPolyline
 90
4
 70
1
 10
22.0
 20
-31.5
 10
36.0
 20
-31.5
 10
36.0
 20
-27.1
 10
22.0
 20
-27.1
  0
LWPOLYLINE
  5
70
330
17
100
AcDbEntity
  8
Madeira
100
AcDbPolyline
 90
4
 70
1
 10
22.0
 20
-4.4
 10
36.0
 20
-4.4
 10
36.0
 20
0.0
 10
22.0
 20
0.0
  0
LWPOLYLINE
  5
71
330
17
100
AcDbEntity
  8
Madeira
100
AcDbPolyline
 90
4
 70
1
 10
82.0
 20
-18.4
 10
96.0
 20
-18.4
 10
96.0
 20
-14.0
 10
82.0
 20
-14.0
  0
LWPOLYLINE
  5
72
330
17
100
AcDbEntity
  8
Madeira
100
AcDbPolyline
 90
4
 70
1
 10
40.0
 20
-31.5
 10
50.0
 20
-31.5
 10
50.0
 20
-27.1
 10
40.0
 20
-27.1
  0
LWPOLYLINE
  5
73
330
17
100
AcDbEntity
  8
Madeira
100
AcDbPolyline
 90
4
 70
1
 10
68.0
 20
-31.5
 10
78.0
 20
-31.5
 10
78.0
 20
-27.1
 10
68.0
 20
-27.1
  0
LWPOLYLINE
  5
74
330
17
100
AcDbEntity
  8
Painéis
100
AcDbPolyline
 90
4
 70
1
 10
36.0
 20
-31.5
 10
40.0
 20
-31.5
 10
40.0
 20
0.0
 10
36.0
 20
0.0
  0
LWPOLYLINE
  5
75
330
17
100
AcDbEntity
  8
Painéis
100
AcDbPolyline
 90
4
 70
1
 10
78.0
 20
-31.5
 10
82.0
 20
-31.5
 10
82.0
 20
-14.0
 10
78.0
 20
-14.0
  0
LWPOLYLINE
  5
76
330
17
100
AcDbEntity
  8
Painéis
100
AcDbPolyline
 90
4
 70
1
 10
78.0
 20
-14.0
 10
92.0
 20
-14.0
 10
92.0
 20
-20.0
 10
78.0
 20
-20.0
  0
LWPOLYLINE
  5
77
330
17
100
AcDbEntity
  8
Painéis
100
AcDbPolyline
 90
4
 70
1
 10
40.0
 20
-27.1
 10
78.0
 20
-27.1
 10
78.0
 20
-23.5
 10
40.0
 20
-23.5
  0
LWPOLYLINE
  5
78
330
17
100
AcDbEntity
  8
CONCRETO
100
AcDbPolyline
 90
6
 70
1
 10
40.0
 20
-23.5
 10
40.0
 20
4.0
 10
92.0
 20
4.0
 10
92.0
 20
-20.0
 10
78.0
 20
-20.0
 10
78.0
 20
-23.5
  0
HATCH
  5
79
330
17
100
AcDbEntity
  8
COTA
 62
7
100
AcDbHatch
 10
0.0
 20
0.0
 30
0.0
210
0.0
220
0.0
230
1.0
  2
ANSI31
 70
0
 71
0
 91
1
 92
3
 72
0
 73
1
 93
6
 10
40.0
 20
-23.5
 10
40.0
 20
4.0
 10
92.0
 20
4.0
 10
92.0
 20
-20.0
 10
78.0
 20
-20.0
 10
78.0
 20
-23.5
 97
0
 75
1
 76
1
 52
0.0
 41
0.4
 77
0
 78
1
 53
45.0
 43
0.0
 44
0.0
 45
-0.8980256121
 46
0.8980256121
 79
0
 98
0
  0
HATCH
  5
7A
330
17
100
AcDbEntity
  8
Hachura
 62
7
100
AcDbHatch
 10
0.0
 20
0.0
 30
0.0
210
0.0
220
0.0
230
1.0
  2
ANSI31
 70
0
 71
0
 91
1
 92
3
 72
0
 73
1
 93
4
 10
22.0
 20
-31.5
 10
36.0
 20
-31.5
 10
36.0
 20
0.0
 10
22.0
 20
0.0
 97
0
 75
1
 76
1
 52
0.0
 41
0.5
 77
0
 78
1
 53
45.0
 43
0.0
 44
0.0
 45
-1.1225320152
 46
1.1225320152
 79
0
 98
0
  0
HATCH
  5
7B
330
17
100
AcDbEntity
  8
Hachura
 62
7
100
AcDbHatch
 10
0.0
 20
0.0
 30
0.0
210
0.0
220
0.0
230
1.0
  2
ANSI31
 70
0
 71
0
 91
1
 92
3
 72
0
 73
1
 93
4
 10
82.0
 20
-31.5
 10
96.0
 20
-31.5
 10
96.0
 20
-14.0
 10
82.0
 20
-14.0
 97
0
 75
1
 76
1
 52
0.0
 41
0.5
 77
0
 78
1
 53
45.0
 43
0.0
 44
0.0
 45
-1.1225320152
 46
1.1225320152
 79
0
 98
0
  0
HATCH
  5
7C
330
17
100
AcDbEntity
  8
Hachura
 62
7
100
AcDbHatch
 10
0.0
 20
0.0
 30
0.0
210
0.0
220
0.0
230
1.0
  2
ANSI31
 70
0
 71
0
 91
1
 92
3
 72
0
 73
1
 93
4
 10
2.0
 20
-31.5
 10
22.0
 20
-31.5
 10
22.0
 20
-27.1
 10
2.0
 20
-27.1
 97
0
 75
1
 76
1
 52
0.0
 41
0.5
 77
0
 78
1
 53
45.0
 43
0.0
 44
0.0
 45
-1.1225320152
 46
1.1225320152
 79
0
 98
0
  0
HATCH
  5
7D
330
17
100
AcDbEntity
  8
Hachura
 62
7
100
AcDbHatch
 10
0.0
 20
0.0
 30
0.0
210
0.0
220
0.0
230
1.0
  2
ANSI31
 70
0
 71
0
 91
1
 92
3
 72
0
 73
1
 93
4
 10
96.0
 20
-31.5
 10
116.0
 20
-31.5
 10
116.0
 20
-27.1
 10
96.0
 20
-27.1
 97
0
 75
1
 76
1
 52
0.0
 41
0.5
 77
0
 78
1
 53
45.0
 43
0.0
 44
0.0
 45
-1.1225320152
 46
1.1225320152
 79
0
 98
0
  0
HATCH
  5
7E
330
17
100
AcDbEntity
  8
Hachura
 62
7
100
AcDbHatch
 10
0.0
 20
0.0
 30
0.0
210
0.0
220
0.0
230
1.0
  2
ANSI31
 70
0
 71
0
 91
1
 92
3
 72
0
 73
1
 93
4
 10
22.0
 20
-4.4
 10
36.0
 20
-4.4
 10
36.0
 20
0.0
 10
22.0
 20
0.0
 97
0
 75
1
 76
1
 52
0.0
 41
0.5
 77
0
 78
1
 53
45.0
 43
0.0
 44
0.0
 45
-1.1225320152
 46
1.1225320152
 79
0
 98
0
  0
HATCH
  5
7F
330
17
100
AcDbEntity
  8
Hachura
 62
7
100
AcDbHatch
 10
0.0
 20
0.0
 30
0.0
210
0.0
220
0.0
230
1.0
  2
ANSI31
 70
0
 71
0
 91
1
 92
3
 72
0
 73
1
 93
4
 10
82.0
 20
-18.4
 10
96.0
 20
-18.4
 10
96.0
 20
-14.0
 10
82.0
 20
-14.0
 97
0
 75
1
 76
1
 52
0.0
 41
0.5
 77
0
 78
1
 53
45.0
 43
0.0
 44
0.0
 45
-1.1225320152
 46
1.1225320152
 79
0
 98
0
  0
HATCH
  5
80
330
17
100
AcDbEntity
  8
Hachura
 62
7
100
AcDbHatch
 10
0.0
 20
0.0
 30
0.0
210
0.0
220
0.0
230
1.0
  2
ANSI31
 70
0
 71
0
 91
1
 92
3
 72
0
 73
1
 93
4
 10
40.0
 20
-31.5
 10
50.0
 20
-31.5
 10
50.0
 20
-27.1
 10
40.0
 20
-27.1
 97
0
 75
1
 76
1
 52
0.0
 41
0.5
 77
0
 78
1
 53
45.0
 43
0.0
 44
0.0
 45
-1.1225320152
 46
1.1225320152
 79
0
 98
0
  0
HATCH
  5
81
330
17
100
AcDbEntity
  8
Hachura
 62
7
100
AcDbHatch
 10
0.0
 20
0.0
 30
0.0
210
0.0
220
0.0
230
1.0
  2
SOLID
 70
0
 71
0
 91
1
 92
3
 72
0
 73
1
 93
4
 10
36.0
 20
-31.5
 10
40.0
 20
-31.5
 10
40.0
 20
0.0
 10
36.0
 20
0.0
 97
0
 75
1
 76
1
 52
0.0
 41
1.0
 77
0
 78
1
 53
45.0
 43
0.0
 44
0.0
 45
-0.0883883476
 46
0.0883883476
 79
0
 98
0
  0
HATCH
  5
82
330
17
100
AcDbEntity
  8
Hachura
 62
7
100
AcDbHatch
 10
0.0
 20
0.0
 30
0.0
210
0.0
220
0.0
230
1.0
  2
SOLID
 70
0
 71
0
 91
1
 92
3
 72
0
 73
1
 93
4
 10
78.0
 20
-31.5
 10
82.0
 20
-31.5
 10
82.0
 20
-14.0
 10
78.0
 20
-14.0
 97
0
 75
1
 76
1
 52
0.0
 41
1.0
 77
0
 78
1
 53
45.0
 43
0.0
 44
0.0
 45
-0.0883883476
 46
0.0883883476
 79
0
 98
0
  0
HATCH
  5
83
330
17
100
AcDbEntity
  8
Hachura
 62
7
100
AcDbHatch
 10
0.0
 20
0.0
 30
0.0
210
0.0
220
0.0
230
1.0
  2
SOLID
 70
0
 71
0
 91
1
 92
3
 72
0
 73
1
 93
4
 10
78.0
 20
-14.0
 10
92.0
 20
-14.0
 10
92.0
 20
-20.0
 10
78.0
 20
-20.0
 97
0
 75
1
 76
1
 52
0.0
 41
1.0
 77
0
 78
1
 53
45.0
 43
0.0
 44
0.0
 45
-0.0883883476
 46
0.0883883476
 79
0
 98
0
  0
HATCH
  5
84
330
17
100
AcDbEntity
  8
Hachura
 62
7
100
AcDbHatch
 10
0.0
 20
0.0
 30
0.0
210
0.0
220
0.0
230
1.0
  2
SOLID
 70
0
 71
0
 91
1
 92
3
 72
0
 73
1
 93
4
 10
40.0
 20
-27.1
 10
78.0
 20
-27.1
 10
78.0
 20
-23.5
 10
40.0
 20
-23.5
 97
0
 75
1
 76
1
 52
0.0
 41
1.0
 77
0
 78
1
 53
45.0
 43
0.0
 44
0.0
 45
-0.0883883476
 46
0.0883883476
 79
0
 98
0
  0
LINE
  5
85
330
17
100
AcDbEntity
  8
SARRAFO_2_2X7
100
AcDbLine
 10
36.0
 20
-22.3
 30
0.0
 11
40.0
 21
-22.3
 31
0.0
  0
LINE
  5
86
330
17
100
AcDbEntity
  8
SARRAFO_2_2X7
100
AcDbLine
 10
36.0
 20
-26.7
 30
0.0
 11
40.0
 21
-26.7
 31
0.0
  0
LINE
  5
87
330
17
100
AcDbEntity
  8
SARRAFO_2_2X7
100
AcDbLine
 10
36.0
 20
-26.7
 30
0.0
 11
36.0
 21
-22.3
 31
0.0
  0
LINE
  5
88
330
17
100
AcDbEntity
  8
SARRAFO_2_2X7
100
AcDbLine
 10
40.0
 20
-26.7
 30
0.0
 11
40.0
 21
-22.3
 31
0.0
  0
LINE
  5
89
330
17
100
AcDbEntity
  8
SARRAFO_2_2X7
100
AcDbLine
 10
36.0
 20
-17.05
 30
0.0
 11
40.0
 21
-17.05
 31
0.0
  0
LINE
  5
8A
330
17
100
AcDbEntity
  8
SARRAFO_2_2X7
100
AcDbLine
 10
36.0
 20
-21.45
 30
0.0
 11
40.0
 21
-21.45
 31
0.0
  0
LINE
  5
8B
330
17
100
AcDbEntity
  8
SARRAFO_2_2X7
100
AcDbLine
 10
36.0
 20
-21.45
 30
0.0
 11
36.0
 21
-17.05
 31
0.0
  0
LINE
  5
8C
330
17
100
AcDbEntity
  8
SARRAFO_2_2X7
100
AcDbLine
 10
40.0
 20
-21.45
 30
0.0
 11
40.0
 21
-17.05
 31
0.0
  0
LINE
  5
8D
330
17
100
AcDbEntity
  8
SARRAFO_2_2X7
100
AcDbLine
 10
36.0
 20
-10.05
 30
0.0
 11
40.0
 21
-10.05
 31
0.0
  0
LINE
  5
8E
330
17
100
AcDbEntity
  8
SARRAFO_2_2X7
100
AcDbLine
 10
36.0
 20
-14.45
 30
0.0
 11
40.0
 21
-14.45
 31
0.0
  0
LINE
  5
8F
330
17
100
AcDbEntity
  8
SARRAFO_2_2X7
100
AcDbLine
 10
36.0
 20
-14.45
 30
0.0
 11
36.0
 21
-10.05
 31
0.0
  0
LINE
  5
90
330
17
100
AcDbEntity
  8
SARRAFO_2_2X7
100
AcDbLine
 10
40.0
 20
-14.45
 30
0.0
 11
40.0
 21
-10.05
 31
0.0
  0
LINE
  5
91
330
17
100
AcDbEntity
  8
SARRAFO_2_2X7
100
AcDbLine
 10
36.0
 20
-4.8
 30
0.0
 11
40.0
 21
-4.8
 31
0.0
  0
LINE
  5
92
330
17
100
AcDbEntity
  8
SARRAFO_2_2X7
100
AcDbLine
 10
36.0
 20
-9.2
 30
0.0
 11
40.0
 21
-9.2
 31
0.0
  0
LINE
  5
93
330
17
100
AcDbEntity
  8
SARRAFO_2_2X7
100
AcDbLine
 10
36.0
 20
-9.2
 30
0.0
 11
36.0
 21
-4.8
 31
0.0
  0
LINE
  5
94
330
17
100
AcDbEntity
  8
SARRAFO_2_2X7
100
AcDbLine
 10
40.0
 20
-9.2
 30
0.0
 11
40.0
 21
-4.8
 31
0.0
  0
LINE
  5
95
330
17
100
AcDbEntity
  8
SARRAFO_2_2X7
100
AcDbLine
 10
78.0
 20
-22.3
 30
0.0
 11
82.0
 21
-22.3
 31
0.0
  0
LINE
  5
96
330
17
100
AcDbEntity
  8
SARRAFO_2_2X7
100
AcDbLine
 10
78.0
 20
-26.7
 30
0.0
 11
82.0
 21
-26.7
 31
0.0
  0
LINE
  5
97
330
17
100
AcDbEntity
  8
SARRAFO_2_2X7
100
AcDbLine
 10
78.0
 20
-26.7
 30
0.0
 11
78.0
 21
-22.3
 31
0.0
  0
LINE
  5
98
330
17
100
AcDbEntity
  8
SARRAFO_2_2X7
100
AcDbLine
 10
82.0
 20
-26.7
 30
0.0
 11
82.0
 21
-22.3
 31
0.0
  0
LINE
  5
99
330
17
100
AcDbEntity
  8
SARRAFO_2_2X7
100
AcDbLine
 10
78.0
 20
-18.8
 30
0.0
 11
82.0
 21
-18.8
 31
0.0
  0
LINE
  5
9A
330
17
100
AcDbEntity
  8
SARRAFO_2_2X7
100
AcDbLine
 10
78.0
 20
-23.2
 30
0.0
 11
82.0
 21
-23.2
 31
0.0
  0
LINE
  5
9B
330
17
100
AcDbEntity
  8
SARRAFO_2_2X7
100
AcDbLine
 10
78.0
 20
-23.2
 30
0.0
 11
78.0
 21
-18.8
 31
0.0
  0
LINE
  5
9C
330
17
100
AcDbEntity
  8
SARRAFO_2_2X7
100
AcDbLine
 10
82.0
 20
-23.2
 30
0.0
 11
82.0
 21
-18.8
 31
0.0
  0
LINE
  5
9D
330
17
100
AcDbEntity
  8
BARRA_ANCORAGEM
100
AcDbLine
 10
40.0
 20
-26.725
 30
0.0
 11
78.0
 21
-26.725
 31
0.0
  0
LINE
  5
9E
330
17
100
AcDbEntity
  8
BARRA_ANCORAGEM
100
AcDbLine
 10
40.0
 20
-24.725
 30
0.0
 11
78.0
 21
-24.725
 31
0.0
  0
LINE
  5
9F
330
17
100
AcDbEntity
  8
BARRA_ANCORAGEM
100
AcDbLine
 10
40.0
 20
-26.725
 30
0.0
 11
40.0
 21
-24.725
 31
0.0
  0
LINE
  5
A0
330
17
100
AcDbEntity
  8
BARRA_ANCORAGEM
100
AcDbLine
 10
78.0
 20
-26.725
 30
0.0
 11
78.0
 21
-24.725
 31
0.0
  0
LINE
  5
A1
330
17
100
AcDbEntity
  8
BARRA_ANCORAGEM
100
AcDbLine
 10
40.0
 20
-20.775
 30
0.0
 11
78.0
 21
-20.775
 31
0.0
  0
LINE
  5
A2
330
17
100
AcDbEntity
  8
BARRA_ANCORAGEM
100
AcDbLine
 10
40.0
 20
-18.775
 30
0.0
 11
78.0
 21
-18.775
 31
0.0
  0
LINE
  5
A3
330
17
100
AcDbEntity
  8
BARRA_ANCORAGEM
100
AcDbLine
 10
40.0
 20
-20.775
 30
0.0
 11
40.0
 21
-18.775
 31
0.0
  0
LINE
  5
A4
330
17
100
AcDbEntity
  8
BARRA_ANCORAGEM
100
AcDbLine
 10
78.0
 20
-20.775
 30
0.0
 11
78.0
 21
-18.775
 31
0.0
  0
INSERT
  5
A5
330
17
100
AcDbEntity
  8
Painéis
100
AcDbBlockReference
  2
PAR_ESQ
 10
36.0
 20
-22.75
 30
0.0
  0
INSERT
  5
A7
330
17
100
AcDbEntity
  8
Painéis
100
AcDbBlockReference
  2
PAR_FUNDO_ESQ
 10
40.0
 20
-21.5
 30
0.0
  0
INSERT
  5
A9
330
17
100
AcDbEntity
  8
Painéis
100
AcDbBlockReference
  2
PAR_FUNDO_DIR
 10
78.0
 20
-21.5
 30
0.0
  0
INSERT
  5
AB
330
17
100
AcDbEntity
  8
Painéis
100
AcDbBlockReference
  2
par_int_esq
 10
40.0
 20
-12.75
 30
0.0
  0
INSERT
  5
AD
330
17
100
AcDbEntity
  8
Painéis
100
AcDbBlockReference
  2
par_int_dir
 10
78.0
 20
-12.75
 30
0.0
  0
LWPOLYLINE
  5
AF
330
17
100
AcDbEntity
  8
HACHURACONCRETO
100
AcDbPolyline
 90
4
 70
1
 10
40.0
 20
-27.1
 10
78.0
 20
-27.1
 10
78.0
 20
-14.0
 10
40.0
 20
-14.0
  0
HATCH
  5
B0
330
17
100
AcDbEntity
  8
HACHURACONCRETO
 62
7
100
AcDbHatch
 10
0.0
 20
0.0
 30
0.0
210
0.0
220
0.0
230
1.0
  2
ANSI31
 70
0
 71
0
 91
1
 92
3
 72
0
 73
1
 93
4
 10
40.0
 20
-27.1
 10
78.0
 20
-27.1
 10
78.0
 20
-14.0
 10
40.0
 20
-14.0
 97
0
 75
1
 76
1
 52
0.0
 41
0.3
 77
0
 78
1
 53
45.0
 43
0.0
 44
0.0
 45
-0.6735192091
 46
0.6735192091
 79
0
 98
0
  0
TEXT
  5
B1
330
17
100
AcDbEntity
  8
detalhes
100
AcDbText
 10
25.0
 20
-4.199999999999999
 30
0.0
 40
9.6
  1
a
100
AcDbText
  0
TEXT
  5
B2
330
17
100
AcDbEntity
  8
detalhes
100
AcDbText
 10
85.0
 20
-4.199999999999999
 30
0.0
 40
9.6
  1
b
100
AcDbText
  0
TEXT
  5
B3
330
17
100
AcDbEntity
  8
detalhes
100
AcDbText
 10
50.0
 20
-21.0
 30
0.0
 40
9.6
  1
c
100
AcDbText
  0
TEXT
  5
B4
330
17
100
AcDbEntity
  8
ESTRUTURACAO
100
AcDbText
 10
50.0
 20
-43.5
 30
0.0
 40
9.6
  1
pontalete
100
AcDbText
  0
TEXT
  5
B5
330
17
100
AcDbEntity
  8
Texto Seção
100
AcDbText
 10
69.0
 20
4.0
 30
0.0
 40
13.0
  1
V306_n4er.A
100
AcDbText
  0
TEXT
  5
B6
330
17
100
AcDbEntity
  8
Texto Seção
100
AcDbText
 10
44.0
 20
20.0
 30
0.0
 40
10.0
  1
V306_n4er (14x27)
100
AcDbText
  0
DIMENSION
  5
B7
330
17
100
AcDbEntity
  8
COTA
100
AcDbDimension
280
0
  2
*D1
  3
PAINEL
 10
-54.0
 20
-31.5
 30
0.0
 11
-65.0
 21
-15.75
 31
0.0
 70
32
 71
5
  1
<>
100
AcDbAlignedDimension
 13
2.0
 23
-31.5
 33
0.0
 14
22.0
 24
0.0
 34
0.0
 50
90.0
100
AcDbRotatedDimension
  0
DIMENSION
  5
C6
330
17
100
AcDbEntity
  8
Cota Seção (2x)
100
AcDbDimension
280
0
  2
*D2
  3
SECAO2X
 10
72.0
 20
-23.5
 30
0.0
 11
63.5
 21
-9.75
 31
0.0
 70
32
 71
5
  1
<>
100
AcDbAlignedDimension
 13
40.0
 23
-23.5
 33
0.0
 14
40.0
 24
4.0
 34
0.0
 50
90.0
100
AcDbRotatedDimension
  0
DIMENSION
  5
D5
330
17
100
AcDbEntity
  8
COTA
100
AcDbDimension
280
0
  2
*D3
  3
PAINEL
 10
95.0
 20
-31.5
 30
0.0
 11
87.0
 21
-6.5
 31
0.0
 70
32
 71
5
  1
<>
100
AcDbAlignedDimension
 13
96.0
 23
-31.5
 33
0.0
 14
96.0
 24
18.5
 34
0.0
 50
90.0
100
AcDbRotatedDimension
  0
DIMENSION
  5
E4
330
17
100
AcDbEntity
  8
COTA
100
AcDbDimension
280
0
  2
*D4
  3
PAINEL
 10
135.0
 20
-31.5
 30
0.0
 11
124.0
 21
-22.75
 31
0.0
 70
32
 71
5
  1
<>
100
AcDbAlignedDimension
 13
96.0
 23
-31.5
 33
0.0
 14
96.0
 24
-14.0
 34
0.0
 50
90.0
100
AcDbRotatedDimension
  0
DIMENSION
  5
F3
330
17
100
AcDbEntity
  8
COTA
100
AcDbDimension
280
0
  2
*D5
  3
PAINEL
 10
135.0
 20
-20.0
 30
0.0
 11
127.0
 21
-8.0
 31
0.0
 70
32
 71
5
  1
<>
100
AcDbAlignedDimension
 13
92.0
 23
-20.0
 33
0.0
 14
92.0
 24
4.0
 34
0.0
 50
90.0
100
AcDbRotatedDimension
  0
DIMENSION
  5
102
330
17
100
AcDbEntity
  8
COTA
100
AcDbDimension
280
0
  2
*D6
  3
PAINEL
 10
40.0
 20
-76.5
 30
0.0
 11
59.0
 21
-68.5
 31
0.0
 70
32
 71
5
  1
<>
100
AcDbAlignedDimension
 13
40.0
 23
-31.5
 33
0.0
 14
78.0
 24
-31.5
 34
0.0
 50
0.0
100
AcDbRotatedDimension
  0
LINE
  5
111
330
17
100
AcDbEntity
  8
Painéis
100
AcDbLine
 10
192.0
 20
-31.5
 30
0.0
 11
436.0
 21
-31.5
 31
0.0
  0
LINE
  5
112
330
17
100
AcDbEntity
  8
Painéis
100
AcDbLine
 10
192.0
 20
0.0
 30
0.0
 11
436.0
 21
0.0
 31
0.0
  0
LINE
  5
113
330
17
100
AcDbEntity
  8
Painéis
100
AcDbLine
 10
192.0
 20
-31.5
 30
0.0
 11
192.0
 21
0.0
 31
0.0
  0
LINE
  5
114
330
17
100
AcDbEntity
  8
Painéis
100
AcDbLine
 10
436.0
 20
-31.5
 30
0.0
 11
436.0
 21
0.0
 31
0.0
  0
LWPOLYLINE
  5
115
330
17
100
AcDbEntity
  8
SARR_2.2x7
100
AcDbPolyline
 90
2
 70
0
 10
199.0
 20
-24.5
 10
436.0
 20
-24.5
  0
LWPOLYLINE
  5
116
330
17
100
AcDbEntity
  8
SARR_2.2x7
100
AcDbPolyline
 90
2
 70
0
 10
199.0
 20
-19.25
 10
436.0
 20
-19.25
  0
LWPOLYLINE
  5
117
330
17
100
AcDbEntity
  8
SARR_2.2x7
100
AcDbPolyline
 90
2
 70
0
 10
199.0
 20
-12.25
 10
436.0
 20
-12.25
  0
LWPOLYLINE
  5
118
330
17
100
AcDbEntity
  8
SARR_2.2x7
100
AcDbPolyline
 90
2
 70
0
 10
199.0
 20
-7.0
 10
436.0
 20
-7.0
  0
LINE
  5
119
330
17
100
AcDbEntity
  8
Painéis
100
AcDbLine
 10
436.0
 20
-31.5
 30
0.0
 11
436.0
 21
0.0
 31
0.0
  0
LINE
  5
11A
330
17
100
AcDbEntity
  8
Painéis
100
AcDbLine
 10
436.0
 20
-31.5
 30
0.0
 11
610.0
 21
-31.5
 31
0.0
  0
LINE
  5
11B
330
17
100
AcDbEntity
  8
Painéis
100
AcDbLine
 10
436.0
 20
0.0
 30
0.0
 11
610.0
 21
0.0
 31
0.0
  0
LINE
  5
11C
330
17
100
AcDbEntity
  8
Painéis
100
AcDbLine
 10
436.0
 20
-31.5
 30
0.0
 11
436.0
 21
0.0
 31
0.0
  0
LINE
  5
11D
330
17
100
AcDbEntity
  8
Painéis
100
AcDbLine
 10
610.0
 20
-31.5
 30
0.0
 11
610.0
 21
0.0
 31
0.0
  0
LWPOLYLINE
  5
11E
330
17
100
AcDbEntity
  8
SARR_2.2x7
100
AcDbPolyline
 90
2
 70
0
 10
436.0
 20
-24.5
 10
603.0
 20
-24.5
  0
LWPOLYLINE
  5
11F
330
17
100
AcDbEntity
  8
SARR_2.2x7
100
AcDbPolyline
 90
2
 70
0
 10
436.0
 20
-19.25
 10
603.0
 20
-19.25
  0
LWPOLYLINE
  5
120
330
17
100
AcDbEntity
  8
SARR_2.2x7
100
AcDbPolyline
 90
2
 70
0
 10
436.0
 20
-12.25
 10
603.0
 20
-12.25
  0
LWPOLYLINE
  5
121
330
17
100
AcDbEntity
  8
SARR_2.2x7
100
AcDbPolyline
 90
2
 70
0
 10
436.0
 20
-7.0
 10
603.0
 20
-7.0
  0
LWPOLYLINE
  5
122
330
17
100
AcDbEntity
  8
SARR_2.2x7
100
AcDbPolyline
 90
2
 70
0
 10
199.0
 20
-24.5
 10
436.0
 20
-24.5
  0
LWPOLYLINE
  5
123
330
17
100
AcDbEntity
  8
SARR_2.2x7
100
AcDbPolyline
 90
2
 70
0
 10
199.0
 20
-19.25
 10
436.0
 20
-19.25
  0
LWPOLYLINE
  5
124
330
17
100
AcDbEntity
  8
SARR_2.2x7
100
AcDbPolyline
 90
2
 70
0
 10
199.0
 20
-12.25
 10
436.0
 20
-12.25
  0
LWPOLYLINE
  5
125
330
17
100
AcDbEntity
  8
SARR_2.2x7
100
AcDbPolyline
 90
2
 70
0
 10
199.0
 20
-7.0
 10
436.0
 20
-7.0
  0
LWPOLYLINE
  5
126
330
17
100
AcDbEntity
  8
SARR_2.2x7
100
AcDbPolyline
 90
2
 70
0
 10
436.0
 20
-24.5
 10
603.0
 20
-24.5
  0
LWPOLYLINE
  5
127
330
17
100
AcDbEntity
  8
SARR_2.2x7
100
AcDbPolyline
 90
2
 70
0
 10
436.0
 20
-19.25
 10
603.0
 20
-19.25
  0
LWPOLYLINE
  5
128
330
17
100
AcDbEntity
  8
SARR_2.2x7
100
AcDbPolyline
 90
2
 70
0
 10
436.0
 20
-12.25
 10
603.0
 20
-12.25
  0
LWPOLYLINE
  5
129
330
17
100
AcDbEntity
  8
SARR_2.2x7
100
AcDbPolyline
 90
2
 70
0
 10
436.0
 20
-7.0
 10
603.0
 20
-7.0
  0
TEXT
  5
12A
330
17
100
AcDbEntity
  8
NOMENCLATURA
100
AcDbText
 10
195.0
 20
16.0
 30
0.0
 40
16.5
  1
V306_n4er.A
100
AcDbText
  0
TEXT
  5
12B
330
17
100
AcDbEntity
  8
5
100
AcDbText
 10
314.0
 20
-11.75
 30
0.0
 40
12.0
  1
1
 72
1
 11
314.0
 21
-11.75
 31
0.0
100
AcDbText
 73
2
  0
TEXT
  5
12C
330
17
100
AcDbEntity
  8
5
100
AcDbText
 10
523.0
 20
-11.75
 30
0.0
 40
12.0
  1
2
 72
1
 11
523.0
 21
-11.75
 31
0.0
100
AcDbText
 73
2
  0
DIMENSION
  5
12D
330
17
100
AcDbEntity
  8
COTA
100
AcDbDimension
280
0
  2
*D7
  3
PAINEL
 10
192.0
 20
-68.5
 30
0.0
 11
314.0
 21
-60.5
 31
0.0
 70
32
 71
5
  1
<>
100
AcDbAlignedDimension
 13
192.0
 23
-31.5
 33
0.0
 14
436.0
 24
-31.5
 34
0.0
 50
0.0
100
AcDbRotatedDimension
  0
DIMENSION
  5
13C
330
17
100
AcDbEntity
  8
COTA
100
AcDbDimension
280
0
  2
*D8
  3
PAINEL
 10
436.0
 20
-68.5
 30
0.0
 11
523.0
 21
-60.5
 31
0.0
 70
32
 71
5
  1
<>
100
AcDbAlignedDimension
 13
436.0
 23
-31.5
 33
0.0
 14
610.0
 24
-31.5
 34
0.0
 50
0.0
100
AcDbRotatedDimension
  0
DIMENSION
  5
14B
330
17
100
AcDbEntity
  8
COTA
100
AcDbDimension
280
0
  2
*D9
  3
PAINEL
 10
192.0
 20
-91.5
 30
0.0
 11
401.0
 21
-83.5
 31
0.0
 70
32
 71
5
  1
<>
100
AcDbAlignedDimension
 13
192.0
 23
-31.5
 33
0.0
 14
610.0
 24
-31.5
 34
0.0
 50
0.0
100
AcDbRotatedDimension
  0
DIMENSION
  5
15A
330
17
100
AcDbEntity
  8
COTA
100
AcDbDimension
280
0
  2
*D10
  3
PAINEL
 10
164.0
 20
-38.5
 30
0.0
 11
153.0
 21
-35.0
 31
0.0
 70
32
 71
5
  1
<>
100
AcDbAlignedDimension
 13
192.0
 23
-38.5
 33
0.0
 14
192.0
 24
-31.5
 34
0.0
 50
90.0
100
AcDbRotatedDimension
  0
DIMENSION
  5
169
330
17
100
AcDbEntity
  8
COTA
100
AcDbDimension
280
0
  2
*D11
  3
PAINEL
 10
164.0
 20
-31.5
 30
0.0
 11
153.0
 21
-15.75
 31
0.0
 70
32
 71
5
  1
<>
100
AcDbAlignedDimension
 13
192.0
 23
-31.5
 33
0.0
 14
192.0
 24
0.0
 34
0.0
 50
90.0
100
AcDbRotatedDimension
  0
DIMENSION
  5
178
330
17
100
AcDbEntity
  8
COTA
100
AcDbDimension
280
0
  2
*D12
  3
PAINEL
 10
164.0
 20
0.0
 30
0.0
 11
153.0
 21
3.5
 31
0.0
 70
32
 71
5
  1
<>
100
AcDbAlignedDimension
 13
192.0
 23
0.0
 33
0.0
 14
192.0
 24
7.0
 34
0.0
 50
90.0
100
AcDbRotatedDimension
  0
DIMENSION
  5
187
330
17
100
AcDbEntity
  8
COTA
100
AcDbDimension
280
0
  2
*D13
  3
PAINEL
 10
638.0
 20
-38.5
 30
0.0
 11
630.0
 21
-15.75
 31
0.0
 70
32
 71
5
  1
<>
100
AcDbAlignedDimension
 13
610.0
 23
-38.5
 33
0.0
 14
610.0
 24
7.0
 34
0.0
 50
90.0
100
AcDbRotatedDimension
  0
DIMENSION
  5
196
330
17
100
AcDbEntity
  8
COTA
100
AcDbDimension
280
0
  2
*D14
  3
PAINEL
 10
638.0
 20
-38.5
 30
0.0
 11
627.0
 21
-35.0
 31
0.0
 70
32
 71
5
  1
<>
100
AcDbAlignedDimension
 13
610.0
 23
-38.5
 33
0.0
 14
610.0
 24
-31.5
 34
0.0
 50
90.0
100
AcDbRotatedDimension
  0
DIMENSION
  5
1A5
330
17
100
AcDbEntity
  8
COTA
100
AcDbDimension
280
0
  2
*D15
  3
PAINEL
 10
638.0
 20
-31.5
 30
0.0
 11
627.0
 21
-15.75
 31
0.0
 70
32
 71
5
  1
<>
100
AcDbAlignedDimension
 13
610.0
 23
-31.5
 33
0.0
 14
610.0
 24
0.0
 34
0.0
 50
90.0
100
AcDbRotatedDimension
  0
DIMENSION
  5
1B4
330
17
100
AcDbEntity
  8
COTA
100
AcDbDimension
280
0
  2
*D16
  3
PAINEL
 10
638.0
 20
0.0
 30
0.0
 11
627.0
 21
3.5
 31
0.0
 70
32
 71
5
  1
<>
100
AcDbAlignedDimension
 13
610.0
 23
0.0
 33
0.0
 14
610.0
 24
7.0
 34
0.0
 50
90.0
100
AcDbRotatedDimension
  0
DIMENSION
  5
1C3
330
17
100
AcDbEntity
  8
COTA
100
AcDbDimension
280
0
  2
*D17
  3
PAINEL
 10
220.0
 20
-38.5
 30
0.0
 11
212.0
 21
-15.75
 31
0.0
 70
32
 71
5
  1
<>
100
AcDbAlignedDimension
 13
192.0
 23
-38.5
 33
0.0
 14
192.0
 24
7.0
 34
0.0
 50
90.0
100
AcDbRotatedDimension
  0
LINE
  5
1D2
330
17
100
AcDbEntity
  8
Painéis
100
AcDbLine
 10
660.0
 20
-17.5
 30
0.0
 11
904.0
 21
-17.5
 31
0.0
  0
LINE
  5
1D3
330
17
100
AcDbEntity
  8
Painéis
100
AcDbLine
 10
660.0
 20
0.0
 30
0.0
 11
904.0
 21
0.0
 31
0.0
  0
LINE
  5
1D4
330
17
100
AcDbEntity
  8
Painéis
100
AcDbLine
 10
660.0
 20
-17.5
 30
0.0
 11
660.0
 21
0.0
 31
0.0
  0
LINE
  5
1D5
330
17
100
AcDbEntity
  8
Painéis
100
AcDbLine
 10
904.0
 20
-17.5
 30
0.0
 11
904.0
 21
0.0
 31
0.0
  0
LWPOLYLINE
  5
1D6
330
17
100
AcDbEntity
  8
SARR_2.2x7
100
AcDbPolyline
 90
2
 70
0
 10
667.0
 20
-10.5
 10
904.0
 20
-10.5
  0
LWPOLYLINE
  5
1D7
330
17
100
AcDbEntity
  8
SARR_2.2x7
100
AcDbPolyline
 90
2
 70
0
 10
667.0
 20
-7.0
 10
904.0
 20
-7.0
  0
LINE
  5
1D8
330
17
100
AcDbEntity
  8
Painéis
100
AcDbLine
 10
904.0
 20
-17.5
 30
0.0
 11
904.0
 21
0.0
 31
0.0
  0
LINE
  5
1D9
330
17
100
AcDbEntity
  8
Painéis
100
AcDbLine
 10
904.0
 20
-17.5
 30
0.0
 11
1078.0
 21
-17.5
 31
0.0
  0
LINE
  5
1DA
330
17
100
AcDbEntity
  8
Painéis
100
AcDbLine
 10
904.0
 20
0.0
 30
0.0
 11
1078.0
 21
0.0
 31
0.0
  0
LINE
  5
1DB
330
17
100
AcDbEntity
  8
Painéis
100
AcDbLine
 10
904.0
 20
-17.5
 30
0.0
 11
904.0
 21
0.0
 31
0.0
  0
LINE
  5
1DC
330
17
100
AcDbEntity
  8
Painéis
100
AcDbLine
 10
1078.0
 20
-17.5
 30
0.0
 11
1078.0
 21
0.0
 31
0.0
  0
LWPOLYLINE
  5
1DD
330
17
100
AcDbEntity
  8
SARR_2.2x7
100
AcDbPolyline
 90
2
 70
0
 10
904.0
 20
-10.5
 10
1071.0
 20
-10.5
  0
LWPOLYLINE
  5
1DE
330
17
100
AcDbEntity
  8
SARR_2.2x7
100
AcDbPolyline
 90
2
 70
0
 10
904.0
 20
-7.0
 10
1071.0
 20
-7.0
  0
LWPOLYLINE
  5
1DF
330
17
100
AcDbEntity
  8
SARR_2.2x7
100
AcDbPolyline
 90
2
 70
0
 10
667.0
 20
-10.5
 10
904.0
 20
-10.5
  0
LWPOLYLINE
  5
1E0
330
17
100
AcDbEntity
  8
SARR_2.2x7
100
AcDbPolyline
 90
2
 70
0
 10
667.0
 20
-7.0
 10
904.0
 20
-7.0
  0
LWPOLYLINE
  5
1E1
330
17
100
AcDbEntity
  8
SARR_2.2x7
100
AcDbPolyline
 90
2
 70
0
 10
904.0
 20
-10.5
 10
1071.0
 20
-10.5
  0
LWPOLYLINE
  5
1E2
330
17
100
AcDbEntity
  8
SARR_2.2x7
100
AcDbPolyline
 90
2
 70
0
 10
904.0
 20
-7.0
 10
1071.0
 20
-7.0
  0
TEXT
  5
1E3
330
17
100
AcDbEntity
  8
NOMENCLATURA
100
AcDbText
 10
663.0
 20
16.0
 30
0.0
 40
16.5
  1
V306_n4er.B
100
AcDbText
  0
TEXT
  5
1E4
330
17
100
AcDbEntity
  8
5
100
AcDbText
 10
782.0
 20
-4.75
 30
0.0
 40
12.0
  1
1
 72
1
 11
782.0
 21
-4.75
 31
0.0
100
AcDbText
 73
2
  0
TEXT
  5
1E5
330
17
100
AcDbEntity
  8
5
100
AcDbText
 10
991.0
 20
-4.75
 30
0.0
 40
12.0
  1
2
 72
1
 11
991.0
 21
-4.75
 31
0.0
100
AcDbText
 73
2
  0
DIMENSION
  5
1E6
330
17
100
AcDbEntity
  8
COTA
100
AcDbDimension
280
0
  2
*D18
  3
PAINEL
 10
660.0
 20
-54.5
 30
0.0
 11
782.0
 21
-46.5
 31
0.0
 70
32
 71
5
  1
<>
100
AcDbAlignedDimension
 13
660.0
 23
-17.5
 33
0.0
 14
904.0
 24
-17.5
 34
0.0
 50
0.0
100
AcDbRotatedDimension
  0
DIMENSION
  5
1F5
330
17
100
AcDbEntity
  8
COTA
100
AcDbDimension
280
0
  2
*D19
  3
PAINEL
 10
904.0
 20
-54.5
 30
0.0
 11
991.0
 21
-46.5
 31
0.0
 70
32
 71
5
  1
<>
100
AcDbAlignedDimension
 13
904.0
 23
-17.5
 33
0.0
 14
1078.0
 24
-17.5
 34
0.0
 50
0.0
100
AcDbRotatedDimension
  0
DIMENSION
  5
204
330
17
100
AcDbEntity
  8
COTA
100
AcDbDimension
280
0
  2
*D20
  3
PAINEL
 10
660.0
 20
-77.5
 30
0.0
 11
869.0
 21
-69.5
 31
0.0
 70
32
 71
5
  1
<>
100
AcDbAlignedDimension
 13
660.0
 23
-17.5
 33
0.0
 14
1078.0
 24
-17.5
 34
0.0
 50
0.0
100
AcDbRotatedDimension
  0
DIMENSION
  5
213
330
17
100
AcDbEntity
  8
COTA
100
AcDbDimension
280
0
  2
*D21
  3
PAINEL
 10
632.0
 20
-24.5
 30
0.0
 11
621.0
 21
-21.0
 31
0.0
 70
32
 71
5
  1
<>
100
AcDbAlignedDimension
 13
660.0
 23
-24.5
 33
0.0
 14
660.0
 24
-17.5
 34
0.0
 50
90.0
100
AcDbRotatedDimension
  0
DIMENSION
  5
222
330
17
100
AcDbEntity
  8
COTA
100
AcDbDimension
280
0
  2
*D22
  3
PAINEL
 10
632.0
 20
-17.5
 30
0.0
 11
621.0
 21
-8.75
 31
0.0
 70
32
 71
5
  1
<>
100
AcDbAlignedDimension
 13
660.0
 23
-17.5
 33
0.0
 14
660.0
 24
0.0
 34
0.0
 50
90.0
100
AcDbRotatedDimension
  0
DIMENSION
  5
231
330
17
100
AcDbEntity
  8
COTA
100
AcDbDimension
280
0
  2
*D23
  3
PAINEL
 10
632.0
 20
0.0
 30
0.0
 11
621.0
 21
3.5
 31
0.0
 70
32
 71
5
  1
<>
100
AcDbAlignedDimension
 13
660.0
 23
0.0
 33
0.0
 14
660.0
 24
7.0
 34
0.0
 50
90.0
100
AcDbRotatedDimension
  0
DIMENSION
  5
240
330
17
100
AcDbEntity
  8
COTA
100
AcDbDimension
280
0
  2
*D24
  3
PAINEL
 10
1106.0
 20
-24.5
 30
0.0
 11
1095.0
 21
-8.75
 31
0.0
 70
32
 71
5
  1
<>
100
AcDbAlignedDimension
 13
1078.0
 23
-24.5
 33
0.0
 14
1078.0
 24
7.0
 34
0.0
 50
90.0
100
AcDbRotatedDimension
  0
DIMENSION
  5
24F
330
17
100
AcDbEntity
  8
COTA
100
AcDbDimension
280
0
  2
*D25
  3
PAINEL
 10
1106.0
 20
-24.5
 30
0.0
 11
1095.0
 21
-21.0
 31
0.0
 70
32
 71
5
  1
<>
100
AcDbAlignedDimension
 13
1078.0
 23
-24.5
 33
0.0
 14
1078.0
 24
-17.5
 34
0.0
 50
90.0
100
AcDbRotatedDimension
  0
DIMENSION
  5
25E
330
17
100
AcDbEntity
  8
COTA
100
AcDbDimension
280
0
  2
*D26
  3
PAINEL
 10
1106.0
 20
-17.5
 30
0.0
 11
1095.0
 21
-8.75
 31
0.0
 70
32
 71
5
  1
<>
100
AcDbAlignedDimension
 13
1078.0
 23
-17.5
 33
0.0
 14
1078.0
 24
0.0
 34
0.0
 50
90.0
100
AcDbRotatedDimension
  0
DIMENSION
  5
26D
330
17
100
AcDbEntity
  8
COTA
100
AcDbDimension
280
0
  2
*D27
  3
PAINEL
 10
1106.0
 20
0.0
 30
0.0
 11
1095.0
 21
3.5
 31
0.0
 70
32
 71
5
  1
<>
100
AcDbAlignedDimension
 13
1078.0
 23
0.0
 33
0.0
 14
1078.0
 24
7.0
 34
0.0
 50
90.0
100
AcDbRotatedDimension
  0
DIMENSION
  5
27C
330
17
100
AcDbEntity
  8
COTA
100
AcDbDimension
280
0
  2
*D28
  3
PAINEL
 10
688.0
 20
-24.5
 30
0.0
 11
677.0
 21
-8.75
 31
0.0
 70
32
 71
5
  1
<>
100
AcDbAlignedDimension
 13
660.0
 23
-24.5
 33
0.0
 14
660.0
 24
7.0
 34
0.0
 50
90.0
100
AcDbRotatedDimension
  0
LINE
  5
28D
330
17
100
AcDbEntity
  8
CARIMBO
370
35
100
AcDbLine
 10
0.0
 20
280.0
 30
0.0
 11
1485.0
 21
280.0
 31
0.0
  0
TEXT
  5
28E
330
17
100
AcDbEntity
  8
CARIMBO
100
AcDbText
 10
742.5
 20
270.0
 30
0.0
 40
14.0
  1
NOVA SISTEMAS CONSTRUTIVOS
100
AcDbText
  0
TEXT
  5
28F
330
17
100
AcDbEntity
  8
CARIMBO
100
AcDbText
 10
742.5
 20
252.0
 30
0.0
 40
12.0
  1
STOG
100
AcDbText
  0
TEXT
  5
290
330
17
100
AcDbEntity
  8
CARIMBO
100
AcDbText
 10
742.5
 20
235.0
 30
0.0
 40
12.0
  1
Obra TREINO 1
100
AcDbText
  0
TEXT
  5
291
330
17
100
AcDbEntity
  8
CARIMBO
100
AcDbText
 10
742.5
 20
218.0
 30
0.0
 40
14.0
  1
LATERAL DE VIGAS
100
AcDbText
  0
TEXT
  5
292
330
17
100
AcDbEntity
  8
CARIMBO
100
AcDbText
 10
1425.0
 20
240.0
 30
0.0
 40
40.0
  1
1
100
AcDbText
  0
LINE
  5
295
330
17
100
AcDbEntity
  8
CARIMBO
370
35
100
AcDbLine
 10
1585.0
 20
280.0
 30
0.0
 11
3070.0
 21
280.0
 31
0.0
  0
TEXT
  5
296
330
17
100
AcDbEntity
  8
CARIMBO
100
AcDbText
 10
2327.5
 20
270.0
 30
0.0
 40
14.0
  1
NOVA SISTEMAS CONSTRUTIVOS
100
AcDbText
  0
TEXT
  5
297
330
17
100
AcDbEntity
  8
CARIMBO
100
AcDbText
 10
2327.5
 20
252.0
 30
0.0
 40
12.0
  1
STOG
100
AcDbText
  0
TEXT
  5
298
330
17
100
AcDbEntity
  8
CARIMBO
100
AcDbText
 10
2327.5
 20
235.0
 30
0.0
 40
12.0
  1
Obra TREINO 1
100
AcDbText
  0
TEXT
  5
299
330
17
100
AcDbEntity
  8
CARIMBO
100
AcDbText
 10
2327.5
 20
218.0
 30
0.0
 40
14.0
  1
LATERAL DE VIGAS
100
AcDbText
  0
TEXT
  5
29A
330
17
100
AcDbEntity
  8
CARIMBO
100
AcDbText
 10
3010.0
 20
240.0
 30
0.0
 40
40.0
  1
2
100
AcDbText
  0
LINE
  5
2A5
330
17
100
AcDbEntity
  8
SARR_3.5x7
100
AcDbLine
 10
-9000.0
 20
0.0
 30
0.0
 11
-8990.0
 21
0.0
 31
0.0
  0
LINE
  5
2A7
330
17
100
AcDbEntity
  8
CONCRETO
100
AcDbLine
 10
-9000.0
 20
0.0
 30
0.0
 11
-8990.0
 21
0.0
 31
0.0
  0
LINE
  5
2A9
330
17
100
AcDbEntity
  8
5
100
AcDbLine
 10
-9000.0
 20
0.0
 30
0.0
 11
-8990.0
 21
0.0
 31
0.0
  0
LINE
  5
2AA
330
17
100
AcDbEntity
  8
Painéis
100
AcDbLine
 10
-9000.0
 20
0.0
 30
0.0
 11
-8990.0
 21
0.0
 31
0.0
  0
LINE
  5
2AB
330
17
100
AcDbEntity
  8
detalhes
100
AcDbLine
 10
-9000.0
 20
0.0
 30
0.0
 11
-8990.0
 21
0.0
 31
0.0
  0
LINE
  5
2AC
330
17
100
AcDbEntity
  8
Madeira
100
AcDbLine
 10
-9000.0
 20
0.0
 30
0.0
 11
-8990.0
 21
0.0
 31
0.0
  0
LINE
  5
2AE
330
17
100
AcDbEntity
  8
Cotas
100
AcDbLine
 10
-10500.0
 20
0.0
 30
0.0
 11
-10490.0
 21
0.0
 31
0.0
  0
LINE
  5
2AF
330
17
100
AcDbEntity
  8
REAPROVEITAMENTO
100
AcDbLine
 10
-10500.0
 20
0.0
 30
0.0
 11
-10490.0
 21
0.0
 31
0.0
  0
LINE
  5
2B1
330
17
100
AcDbEntity
  8
SARRAFO DE PRESSAO
100
AcDbLine
 10
-10500.0
 20
0.0
 30
0.0
 11
-10490.0
 21
0.0
 31
0.0
  0
LINE
  5
2B3
330
17
100
AcDbEntity
  8
SARR_EDITAR
100
AcDbLine
 10
-10500.0
 20
0.0
 30
0.0
 11
-10490.0
 21
0.0
 31
0.0
  0
LINE
  5
2B5
330
17
100
AcDbEntity
  8
TEXTO PILAR
100
AcDbLine
 10
-10500.0
 20
0.0
 30
0.0
 11
-10490.0
 21
0.0
 31
0.0
  0
ENDSEC
  0
SECTION
  2
OBJECTS
  0
DICTIONARY
  5
A
330
0
100
AcDbDictionary
281
1
  3
ACAD_COLOR
350
B
  3
ACAD_GROUP
350
C
  3
ACAD_LAYOUT
350
D
  3
ACAD_MATERIAL
350
E
  3
ACAD_MLEADERSTYLE
350
F
  3
ACAD_MLINESTYLE
350
10
  3
ACAD_PLOTSETTINGS
350
11
  3
ACAD_PLOTSTYLENAME
350
12
  3
ACAD_SCALELIST
350
14
  3
ACAD_TABLESTYLE
350
15
  3
ACAD_VISUALSTYLE
350
16
  3
EZDXF_META
350
2D
  0
DICTIONARY
  5
B
330
A
100
AcDbDictionary
281
1
  0
DICTIONARY
  5
C
330
A
100
AcDbDictionary
281
1
  0
DICTIONARY
  5
D
330
A
100
AcDbDictionary
281
1
  3
Model
350
1A
  3
Layout1
350
1E
  0
DICTIONARY
  5
E
330
A
100
AcDbDictionary
281
1
  3
ByBlock
350
1F
  3
ByLayer
350
20
  3
Global
350
21
  0
DICTIONARY
  5
F
330
A
100
AcDbDictionary
281
1
  3
Standard
350
2C
  0
DICTIONARY
  5
10
330
A
100
AcDbDictionary
281
1
  3
Standard
350
22
  0
DICTIONARY
  5
11
330
A
100
AcDbDictionary
281
1
  0
ACDBDICTIONARYWDFLT
  5
12
330
A
100
AcDbDictionary
281
1
  3
Normal
350
13
100
AcDbDictionaryWithDefault
340
13
  0
ACDBPLACEHOLDER
  5
13
330
12
  0
DICTIONARY
  5
14
330
A
100
AcDbDictionary
281
1
  0
DICTIONARY
  5
15
330
A
100
AcDbDictionary
281
1
  0
DICTIONARY
  5
16
330
A
100
AcDbDictionary
281
1
  0
LAYOUT
  5
1A
330
D
100
AcDbPlotSettings
  1

  4
A3
  6

 40
7.5
 41
20.0
 42
7.5
 43
20.0
 44
420.0
 45
297.0
 46
0.0
 47
0.0
 48
0.0
 49
0.0
140
0.0
141
0.0
142
1.0
143
1.0
 70
1024
 72
1
 73
0
 74
5
  7

 75
16
 76
0
 77
2
 78
300
147
1.0
148
0.0
149
0.0
100
AcDbLayout
  1
Model
 70
1
 71
0
 10
0.0
 20
0.0
 11
420.0
 21
297.0
 12
0.0
 22
0.0
 32
0.0
 14
1e+20
 24
1e+20
 34
1e+20
 15
-1e+20
 25
-1e+20
 35
-1e+20
146
0.0
 13
0.0
 23
0.0
 33
0.0
 16
1.0
 26
0.0
 36
0.0
 17
0.0
 27
1.0
 37
0.0
 76
1
330
17
  0
LAYOUT
  5
1E
330
D
100
AcDbPlotSettings
  1

  4
A3
  6

 40
7.5
 41
20.0
 42
7.5
 43
20.0
 44
420.0
 45
297.0
 46
0.0
 47
0.0
 48
0.0
 49
0.0
140
0.0
141
0.0
142
1.0
143
1.0
 70
0
 72
1
 73
0
 74
5
  7

 75
16
 76
0
 77
2
 78
300
147
1.0
148
0.0
149
0.0
100
AcDbLayout
  1
Layout1
 70
1
 71
1
 10
0.0
 20
0.0
 11
420.0
 21
297.0
 12
0.0
 22
0.0
 32
0.0
 14
1e+20
 24
1e+20
 34
1e+20
 15
-1e+20
 25
-1e+20
 35
-1e+20
146
0.0
 13
0.0
 23
0.0
 33
0.0
 16
1.0
 26
0.0
 36
0.0
 17
0.0
 27
1.0
 37
0.0
 76
1
330
1B
  0
MATERIAL
  5
1F
102
{ACAD_REACTORS
330
E
102
}
330
E
100
AcDbMaterial
  1
ByBlock
  2

 70
0
 40
1.0
 71
1
 41
1.0
 91
-1023410177
 42
1.0
 72
1
  3

 73
1
 74
1
 75
1
 44
0.5
 73
0
 45
1.0
 46
1.0
 77
1
  4

 78
1
 79
1
170
1
 48
1.0
171
1
  6

172
1
173
1
174
1
140
1.0
141
1.0
175
1
  7

176
1
177
1
178
1
143
1.0
179
1
  8

270
1
271
1
272
1
145
1.0
146
1.0
273
1
  9

274
1
275
1
276
1
 42
1.0
 72
1
  3

 73
1
 74
1
 75
1
 94
63
  0
MATERIAL
  5
20
102
{ACAD_REACTORS
330
E
102
}
330
E
100
AcDbMaterial
  1
ByLayer
  2

 70
0
 40
1.0
 71
1
 41
1.0
 91
-1023410177
 42
1.0
 72
1
  3

 73
1
 74
1
 75
1
 44
0.5
 73
0
 45
1.0
 46
1.0
 77
1
  4

 78
1
 79
1
170
1
 48
1.0
171
1
  6

172
1
173
1
174
1
140
1.0
141
1.0
175
1
  7

176
1
177
1
178
1
143
1.0
179
1
  8

270
1
271
1
272
1
145
1.0
146
1.0
273
1
  9

274
1
275
1
276
1
 42
1.0
 72
1
  3

 73
1
 74
1
 75
1
 94
63
  0
MATERIAL
  5
21
102
{ACAD_REACTORS
330
E
102
}
330
E
100
AcDbMaterial
  1
Global
  2

 70
0
 40
1.0
 71
1
 41
1.0
 91
-1023410177
 42
1.0
 72
1
  3

 73
1
 74
1
 75
1
 44
0.5
 73
0
 45
1.0
 46
1.0
 77
1
  4

 78
1
 79
1
170
1
 48
1.0
171
1
  6

172
1
173
1
174
1
140
1.0
141
1.0
175
1
  7

176
1
177
1
178
1
143
1.0
179
1
  8

270
1
271
1
272
1
145
1.0
146
1.0
273
1
  9

274
1
275
1
276
1
 42
1.0
 72
1
  3

 73
1
 74
1
 75
1
 94
63
  0
MLINESTYLE
  5
22
102
{ACAD_REACTORS
330
10
102
}
330
10
100
AcDbMlineStyle
  2
Standard
 70
0
  3

 62
256
 51
90.0
 52
90.0
 71
2
 49
0.5
 62
256
  6
BYLAYER
 49
-0.5
 62
256
  6
BYLAYER
  0
MLEADERSTYLE
  5
2C
102
{ACAD_REACTORS
330
F
102
}
330
F
100
AcDbMLeaderStyle
179
2
170
2
171
1
172
0
 90
2
 40
0.0
 41
0.0
173
1
 91
-1056964608
 92
-2
290
1
 42
2.0
291
1
 43
8.0
  3
Standard
 44
4.0
300

342
29
174
1
175
1
176
0
178
1
 93
-1056964608
 45
4.0
292
0
297
0
 46
4.0
 94
-1056964608
 47
1.0
 49
1.0
140
1.0
294
1
141
0.0
177
0
142
1.0
295
0
296
0
143
3.75
271
0
272
9
273
9
  0
DICTIONARY
  5
2D
330
A
100
AcDbDictionary
280
1
281
1
  3
CREATED_BY_EZDXF
350
2E
  3
WRITTEN_BY_EZDXF
350
2B8
  0
DICTIONARYVAR
  5
2E
330
2D
100
DictionaryVariables
280
0
  1
1.4.3 @ 2026-06-12T00:51:00.310737+00:00
  0
DICTIONARYVAR
  5
2B8
330
2D
100
DictionaryVariables
280
0
  1
1.4.3 @ 2026-06-12T00:51:03.064689+00:00
  0
ENDSEC
  0
EOF
