  0
SECTION
  2
HEADER
  9
$ACADVER
  1
AC1032
  9
$ACADMAINTVER
 90
4
  9
$DWGCODEPAGE
  3
ANSI_1252
  9
$LASTSAVEDBY
  1
ezdxf
  9
$REQUIREDVERSIONS
160
0
  9
$INSBASE
 10
0.0
 20
0.0
 30
0.0
  9
$EXTMIN
 10
1e+20
 20
1e+20
 30
1e+20
  9
$EXTMAX
 10
-1e+20
 20
-1e+20
 30
-1e+20
  9
$LIMMIN
 10
0.0
 20
0.0
  9
$LIMMAX
 10
420.0
 20
297.0
  9
$ORTHOMODE
 70
0
  9
$REGENMODE
 70
1
  9
$FILLMODE
 70
1
  9
$QTEXTMODE
 70
0
  9
$MIRRTEXT
 70
1
  9
$LTSCALE
 40
1.0
  9
$ATTMODE
 70
1
  9
$TEXTSIZE
 40
2.5
  9
$TRACEWID
 40
1.0
  9
$TEXTSTYLE
  7
Standard
  9
$CLAYER
  8
0
  9
$CELTYPE
  6
ByLayer
  9
$CECOLOR
 62
256
  9
$CELTSCALE
 40
1.0
  9
$DISPSILH
 70
0
  9
$DIMSCALE
 40
1.0
  9
$DIMASZ
 40
2.5
  9
$DIMEXO
 40
0.625
  9
$DIMDLI
 40
3.75
  9
$DIMRND
 40
0.0
  9
$DIMDLE
 40
0.0
  9
$DIMEXE
 40
1.25
  9
$DIMTP
 40
0.0
  9
$DIMTM
 40
0.0
  9
$DIMTXT
 40
2.5
  9
$DIMCEN
 40
2.5
  9
$DIMTSZ
 40
0.0
  9
$DIMTOL
 70
0
  9
$DIMLIM
 70
0
  9
$DIMTIH
 70
0
  9
$DIMTOH
 70
0
  9
$DIMSE1
 70
0
  9
$DIMSE2
 70
0
  9
$DIMTAD
 70
1
  9
$DIMZIN
 70
8
  9
$DIMBLK
  1

  9
$DIMASO
 70
1
  9
$DIMSHO
 70
1
  9
$DIMPOST
  1

  9
$DIMAPOST
  1

  9
$DIMALT
 70
0
  9
$DIMALTD
 70
3
  9
$DIMALTF
 40
0.03937007874
  9
$DIMLFAC
 40
1.0
  9
$DIMTOFL
 70
1
  9
$DIMTVP
 40
0.0
  9
$DIMTIX
 70
0
  9
$DIMSOXD
 70
0
  9
$DIMSAH
 70
0
  9
$DIMBLK1
  1

  9
$DIMBLK2
  1

  9
$DIMSTYLE
  2
ISO-25
  9
$DIMCLRD
 70
0
  9
$DIMCLRE
 70
0
  9
$DIMCLRT
 70
0
  9
$DIMTFAC
 40
1.0
  9
$DIMGAP
 40
0.625
  9
$DIMJUST
 70
0
  9
$DIMSD1
 70
0
  9
$DIMSD2
 70
0
  9
$DIMTOLJ
 70
0
  9
$DIMTZIN
 70
8
  9
$DIMALTZ
 70
0
  9
$DIMALTTZ
 70
0
  9
$DIMUPT
 70
0
  9
$DIMDEC
 70
2
  9
$DIMTDEC
 70
2
  9
$DIMALTU
 70
2
  9
$DIMALTTD
 70
3
  9
$DIMTXSTY
  7
Standard
  9
$DIMAUNIT
 70
0
  9
$DIMADEC
 70
0
  9
$DIMALTRND
 40
0.0
  9
$DIMAZIN
 70
0
  9
$DIMDSEP
 70
44
  9
$DIMATFIT
 70
3
  9
$DIMFRAC
 70
0
  9
$DIMLDRBLK
  1

  9
$DIMLUNIT
 70
2
  9
$DIMLWD
 70
-2
  9
$DIMLWE
 70
-2
  9
$DIMTMOVE
 70
0
  9
$DIMFXL
 40
1.0
  9
$DIMFXLON
 70
0
  9
$DIMJOGANG
 40
0.785398163397
  9
$DIMTFILL
 70
0
  9
$DIMTFILLCLR
 70
0
  9
$DIMARCSYM
 70
0
  9
$DIMLTYPE
  6

  9
$DIMLTEX1
  6

  9
$DIMLTEX2
  6

  9
$DIMTXTDIRECTION
 70
0
  9
$LUNITS
 70
2
  9
$LUPREC
 70
4
  9
$SKETCHINC
 40
1.0
  9
$FILLETRAD
 40
10.0
  9
$AUNITS
 70
0
  9
$AUPREC
 70
2
  9
$MENU
  1
.
  9
$ELEVATION
 40
0.0
  9
$PELEVATION
 40
0.0
  9
$THICKNESS
 40
0.0
  9
$LIMCHECK
 70
0
  9
$CHAMFERA
 40
0.0
  9
$CHAMFERB
 40
0.0
  9
$CHAMFERC
 40
0.0
  9
$CHAMFERD
 40
0.0
  9
$SKPOLY
 70
0
  9
$TDCREATE
 40
2461210.9817824075
  9
$TDUCREATE
 40
2458532.153996898
  9
$TDUPDATE
 40
2461210.9817824075
  9
$TDUUPDATE
 40
2458532.1544311
  9
$TDINDWG
 40
0.0
  9
$TDUSRTIMER
 40
0.0
  9
$USRTIMER
 70
1
  9
$ANGBASE
 50
0.0
  9
$ANGDIR
 70
0
  9
$PDMODE
 70
0
  9
$PDSIZE
 40
0.0
  9
$PLINEWID
 40
0.0
  9
$SPLFRAME
 70
0
  9
$SPLINETYPE
 70
6
  9
$SPLINESEGS
 70
8
  9
$HANDSEED
  5
5FB
  9
$SURFTAB1
 70
6
  9
$SURFTAB2
 70
6
  9
$SURFTYPE
 70
6
  9
$SURFU
 70
6
  9
$SURFV
 70
6
  9
$UCSBASE
  2

  9
$UCSNAME
  2

  9
$UCSORG
 10
0.0
 20
0.0
 30
0.0
  9
$UCSXDIR
 10
1.0
 20
0.0
 30
0.0
  9
$UCSYDIR
 10
0.0
 20
1.0
 30
0.0
  9
$UCSORTHOREF
  2

  9
$UCSORTHOVIEW
 70
0
  9
$UCSORGTOP
 10
0.0
 20
0.0
 30
0.0
  9
$UCSORGBOTTOM
 10
0.0
 20
0.0
 30
0.0
  9
$UCSORGLEFT
 10
0.0
 20
0.0
 30
0.0
  9
$UCSORGRIGHT
 10
0.0
 20
0.0
 30
0.0
  9
$UCSORGFRONT
 10
0.0
 20
0.0
 30
0.0
  9
$UCSORGBACK
 10
0.0
 20
0.0
 30
0.0
  9
$PUCSBASE
  2

  9
$PUCSNAME
  2

  9
$PUCSORG
 10
0.0
 20
0.0
 30
0.0
  9
$PUCSXDIR
 10
1.0
 20
0.0
 30
0.0
  9
$PUCSYDIR
 10
0.0
 20
1.0
 30
0.0
  9
$PUCSORTHOREF
  2

  9
$PUCSORTHOVIEW
 70
0
  9
$PUCSORGTOP
 10
0.0
 20
0.0
 30
0.0
  9
$PUCSORGBOTTOM
 10
0.0
 20
0.0
 30
0.0
  9
$PUCSORGLEFT
 10
0.0
 20
0.0
 30
0.0
  9
$PUCSORGRIGHT
 10
0.0
 20
0.0
 30
0.0
  9
$PUCSORGFRONT
 10
0.0
 20
0.0
 30
0.0
  9
$PUCSORGBACK
 10
0.0
 20
0.0
 30
0.0
  9
$USERI1
 70
0
  9
$USERI2
 70
0
  9
$USERI3
 70
0
  9
$USERI4
 70
0
  9
$USERI5
 70
0
  9
$USERR1
 40
0.0
  9
$USERR2
 40
0.0
  9
$USERR3
 40
0.0
  9
$USERR4
 40
0.0
  9
$USERR5
 40
0.0
  9
$WORLDVIEW
 70
1
  9
$SHADEDGE
 70
3
  9
$SHADEDIF
 70
70
  9
$TILEMODE
 70
1
  9
$MAXACTVP
 70
64
  9
$PINSBASE
 10
0.0
 20
0.0
 30
0.0
  9
$PLIMCHECK
 70
0
  9
$PEXTMIN
 10
1e+20
 20
1e+20
 30
1e+20
  9
$PEXTMAX
 10
-1e+20
 20
-1e+20
 30
-1e+20
  9
$PLIMMIN
 10
0.0
 20
0.0
  9
$PLIMMAX
 10
420.0
 20
297.0
  9
$UNITMODE
 70
0
  9
$VISRETAIN
 70
1
  9
$PLINEGEN
 70
0
  9
$PSLTSCALE
 70
1
  9
$TREEDEPTH
 70
3020
  9
$CMLSTYLE
  2
Standard
  9
$CMLJUST
 70
0
  9
$CMLSCALE
 40
20.0
  9
$PROXYGRAPHICS
 70
1
  9
$MEASUREMENT
 70
1
  9
$CELWEIGHT
370
-1
  9
$ENDCAPS
280
0
  9
$JOINSTYLE
280
0
  9
$LWDISPLAY
290
0
  9
$INSUNITS
 70
5
  9
$HYPERLINKBASE
  1

  9
$STYLESHEET
  1

  9
$XEDIT
290
1
  9
$CEPSNTYPE
380
0
  9
$PSTYLEMODE
290
1
  9
$FINGERPRINTGUID
  2
{9E7EF141-D39D-4938-9194-3368AF0031EC}
  9
$VERSIONGUID
  2
{61A0026A-745D-472D-B518-61779F40362E}
  9
$EXTNAMES
290
1
  9
$PSVPSCALE
 40
0.0
  9
$OLESTARTUP
290
0
  9
$SORTENTS
280
127
  9
$INDEXCTL
280
0
  9
$HIDETEXT
280
1
  9
$XCLIPFRAME
280
1
  9
$HALOGAP
280
0
  9
$OBSCOLOR
 70
257
  9
$OBSLTYPE
280
0
  9
$INTERSECTIONDISPLAY
280
0
  9
$INTERSECTIONCOLOR
 70
257
  9
$DIMASSOC
280
2
  9
$PROJECTNAME
  1

  9
$CAMERADISPLAY
290
0
  9
$LENSLENGTH
 40
50.0
  9
$CAMERAHEIGHT
 40
0.0
  9
$STEPSPERSEC
 40
24.0
  9
$STEPSIZE
 40
100.0
  9
$3DDWFPREC
 40
2.0
  9
$PSOLWIDTH
 40
0.005
  9
$PSOLHEIGHT
 40
0.08
  9
$LOFTANG1
 40
1.570796326795
  9
$LOFTANG2
 40
1.570796326795
  9
$LOFTMAG1
 40
0.0
  9
$LOFTMAG2
 40
0.0
  9
$LOFTPARAM
 70
7
  9
$LOFTNORMALS
280
1
  9
$LATITUDE
 40
37.795
  9
$LONGITUDE
 40
-122.394
  9
$NORTHDIRECTION
 40
0.0
  9
$TIMEZONE
 70
-8000
  9
$LIGHTGLYPHDISPLAY
280
1
  9
$TILEMODELIGHTSYNCH
280
1
  9
$CMATERIAL
347
20
  9
$SOLIDHIST
280
0
  9
$SHOWHIST
280
1
  9
$DWFFRAME
280
2
  9
$DGNFRAME
280
2
  9
$REALWORLDSCALE
290
1
  9
$INTERFERECOLOR
 62
256
  9
$CSHADOW
280
0
  9
$SHADOWPLANELOCATION
 40
0.0
  0
ENDSEC
  0
SECTION
  2
CLASSES
  0
CLASS
  1
ACDBDICTIONARYWDFLT
  2
AcDbDictionaryWithDefault
  3
ObjectDBX Classes
 90
0
 91
0
280
0
281
0
  0
CLASS
  1
SUN
  2
AcDbSun
  3
SCENEOE
 90
1153
 91
0
280
0
281
0
  0
CLASS
  1
VISUALSTYLE
  2
AcDbVisualStyle
  3
ObjectDBX Classes
 90
4095
 91
0
280
0
281
0
  0
CLASS
  1
MATERIAL
  2
AcDbMaterial
  3
ObjectDBX Classes
 90
1153
 91
0
280
0
281
0
  0
CLASS
  1
SCALE
  2
AcDbScale
  3
ObjectDBX Classes
 90
1153
 91
0
280
0
281
0
  0
CLASS
  1
TABLESTYLE
  2
AcDbTableStyle
  3
ObjectDBX Classes
 90
4095
 91
0
280
0
281
0
  0
CLASS
  1
MLEADERSTYLE
  2
AcDbMLeaderStyle
  3
ACDB_MLEADERSTYLE_CLASS
 90
4095
 91
0
280
0
281
0
  0
CLASS
  1
DICTIONARYVAR
  2
AcDbDictionaryVar
  3
ObjectDBX Classes
 90
0
 91
0
280
0
281
0
  0
CLASS
  1
CELLSTYLEMAP
  2
AcDbCellStyleMap
  3
ObjectDBX Classes
 90
1152
 91
0
280
0
281
0
  0
CLASS
  1
MENTALRAYRENDERSETTINGS
  2
AcDbMentalRayRenderSettings
  3
SCENEOE
 90
1024
 91
0
280
0
281
0
  0
CLASS
  1
ACDBDETAILVIEWSTYLE
  2
AcDbDetailViewStyle
  3
ObjectDBX Classes
 90
1025
 91
0
280
0
281
0
  0
CLASS
  1
ACDBSECTIONVIEWSTYLE
  2
AcDbSectionViewStyle
  3
ObjectDBX Classes
 90
1025
 91
0
280
0
281
0
  0
CLASS
  1
RASTERVARIABLES
  2
AcDbRasterVariables
  3
ISM
 90
0
 91
0
280
0
281
0
  0
CLASS
  1
ACDBPLACEHOLDER
  2
AcDbPlaceHolder
  3
ObjectDBX Classes
 90
0
 91
0
280
0
281
0
  0
CLASS
  1
LAYOUT
  2
AcDbLayout
  3
ObjectDBX Classes
 90
0
 91
0
280
0
281
0
  0
ENDSEC
  0
SECTION
  2
TABLES
  0
TABLE
  2
VPORT
  5
8
330
0
100
AcDbSymbolTable
 70
1
  0
VPORT
  5
23
330
8
100
AcDbSymbolTableRecord
100
AcDbViewportTableRecord
  2
*Active
 70
0
 10
0.0
 20
0.0
 11
1.0
 21
1.0
 12
0.0
 22
0.0
 13
0.0
 23
0.0
 14
0.5
 24
0.5
 15
0.5
 25
0.5
 16
0.0
 26
0.0
 36
1.0
 17
0.0
 27
0.0
 37
0.0
 40
1000.0
 41
1.34
 42
50.0
 43
0.0
 44
0.0
 50
0.0
 51
0.0
 71
0
 72
1000
 73
1
 74
3
 75
0
 76
0
 77
0
 78
0
281
0
 65
0
146
0.0
  0
ENDTAB
  0
TABLE
  2
LTYPE
  5
2
330
0
100
AcDbSymbolTable
 70
4
  0
LTYPE
  5
24
330
2
100
AcDbSymbolTableRecord
100
AcDbLinetypeTableRecord
  2
ByBlock
 70
0
  3

 72
65
 73
0
 40
0.0
  0
LTYPE
  5
25
330
2
100
AcDbSymbolTableRecord
100
AcDbLinetypeTableRecord
  2
ByLayer
 70
0
  3

 72
65
 73
0
 40
0.0
  0
LTYPE
  5
26
330
2
100
AcDbSymbolTableRecord
100
AcDbLinetypeTableRecord
  2
Continuous
 70
0
  3

 72
65
 73
0
 40
0.0
  0
LTYPE
  5
48
330
2
100
AcDbSymbolTableRecord
100
AcDbLinetypeTableRecord
  2
DASHED
 70
0
  3
Dashed
 72
65
 73
1
 40
5.0
 49
-2.0
 74
0
  0
ENDTAB
  0
TABLE
  2
LAYER
  5
1
330
0
100
AcDbSymbolTable
 70
30
  0
LAYER
  5
27
330
1
100
AcDbSymbolTableRecord
100
AcDbLayerTableRecord
  2
0
 70
0
 62
7
  6
Continuous
370
-3
390
13
347
21
  0
LAYER
  5
28
330
1
100
AcDbSymbolTableRecord
100
AcDbLayerTableRecord
  2
Defpoints
 70
0
 62
7
  6
Continuous
290
0
370
-3
390
13
347
21
  0
LAYER
  5
2F
330
1
100
AcDbSymbolTableRecord
100
AcDbLayerTableRecord
  2
Hachura
 70
0
 62
251
  6
Continuous
370
-3
390
13
347
21
  0
LAYER
  5
30
330
1
100
AcDbSymbolTableRecord
100
AcDbLayerTableRecord
  2
SARRAFO
 70
0
 62
251
  6
Continuous
370
-3
390
13
347
21
  0
LAYER
  5
31
330
1
100
AcDbSymbolTableRecord
100
AcDbLayerTableRecord
  2
GRAVATA
 70
0
 62
224
  6
Continuous
370
-3
390
13
347
21
  0
LAYER
  5
32
330
1
100
AcDbSymbolTableRecord
100
AcDbLayerTableRecord
  2
COTA
 70
0
 62
241
  6
Continuous
370
-3
390
13
347
21
  0
LAYER
  5
33
330
1
100
AcDbSymbolTableRecord
100
AcDbLayerTableRecord
  2
Painéis
 70
0
 62
200
  6
Continuous
370
-3
390
13
347
21
  0
LAYER
  5
34
330
1
100
AcDbSymbolTableRecord
100
AcDbLayerTableRecord
  2
Nível
 70
0
 62
160
  6
Continuous
370
-3
390
13
347
21
  0
LAYER
  5
35
330
1
100
AcDbSymbolTableRecord
100
AcDbLayerTableRecord
  2
NOMENCLATURA
 70
0
 62
7
  6
Continuous
370
-3
390
13
347
21
  0
LAYER
  5
36
330
1
100
AcDbSymbolTableRecord
100
AcDbLayerTableRecord
  2
SARR_2.2x7
 70
0
 62
40
  6
Continuous
370
-3
390
13
347
21
  0
LAYER
  5
37
330
1
100
AcDbSymbolTableRecord
100
AcDbLayerTableRecord
  2
SARR_2.2x10
 70
0
 62
60
  6
Continuous
370
-3
390
13
347
21
  0
LAYER
  5
38
330
1
100
AcDbSymbolTableRecord
100
AcDbLayerTableRecord
  2
SARR_3.5x7
 70
0
 62
81
  6
Continuous
370
-3
390
13
347
21
  0
LAYER
  5
39
330
1
100
AcDbSymbolTableRecord
100
AcDbLayerTableRecord
  2
SARR_7x7
 70
0
 62
100
  6
Continuous
370
-3
390
13
347
21
  0
LAYER
  5
3A
330
1
100
AcDbSymbolTableRecord
100
AcDbLayerTableRecord
  2
Sarr 2.2x7
 70
0
 62
40
  6
Continuous
370
-3
390
13
347
21
  0
LAYER
  5
3B
330
1
100
AcDbSymbolTableRecord
100
AcDbLayerTableRecord
  2
Madeira
 70
0
 62
30
  6
Continuous
370
-3
390
13
347
21
  0
LAYER
  5
3C
330
1
100
AcDbSymbolTableRecord
100
AcDbLayerTableRecord
  2
CHAPA
 70
0
 62
140
  6
Continuous
370
-3
390
13
347
21
  0
LAYER
  5
3D
330
1
100
AcDbSymbolTableRecord
100
AcDbLayerTableRecord
  2
Perfil Metálico
 70
0
 62
150
  6
Continuous
370
-3
390
13
347
21
  0
LAYER
  5
3E
330
1
100
AcDbSymbolTableRecord
100
AcDbLayerTableRecord
  2
SARRAFO DE PRESSAO
 70
0
 62
200
  6
Continuous
370
-3
390
13
347
21
  0
LAYER
  5
3F
330
1
100
AcDbSymbolTableRecord
100
AcDbLayerTableRecord
  2
MEIO_PONT
 70
0
 62
160
  6
Continuous
370
-3
390
13
347
21
  0
LAYER
  5
40
330
1
100
AcDbSymbolTableRecord
100
AcDbLayerTableRecord
  2
Texto Seção
 70
0
 62
7
  6
Continuous
370
-3
390
13
347
21
  0
LAYER
  5
41
330
1
100
AcDbSymbolTableRecord
100
AcDbLayerTableRecord
  2
TEXTO_GERAL
 70
0
 62
7
  6
Continuous
370
-3
390
13
347
21
  0
LAYER
  5
42
330
1
100
AcDbSymbolTableRecord
100
AcDbLayerTableRecord
  2
texto
 70
0
 62
7
  6
Continuous
370
-3
390
13
347
21
  0
LAYER
  5
43
330
1
100
AcDbSymbolTableRecord
100
AcDbLayerTableRecord
  2
Texto Nível
 70
0
 62
7
  6
Continuous
370
-3
390
13
347
21
  0
LAYER
  5
44
330
1
100
AcDbSymbolTableRecord
100
AcDbLayerTableRecord
  2
NIVEL 2° PAV.
 70
0
 62
160
  6
Continuous
370
-3
390
13
347
21
  0
LAYER
  5
45
330
1
100
AcDbSymbolTableRecord
100
AcDbLayerTableRecord
  2
CONCRETO
 70
0
 62
150
  6
Continuous
370
-3
390
13
347
21
  0
LAYER
  5
46
330
1
100
AcDbSymbolTableRecord
100
AcDbLayerTableRecord
  2
SARR_EDITAR
 70
0
 62
40
  6
Continuous
370
-3
390
13
347
21
  0
LAYER
  5
47
330
1
100
AcDbSymbolTableRecord
100
AcDbLayerTableRecord
  2
COTAS FURACAO
 70
0
 62
16
  6
Continuous
370
-3
390
13
347
21
  0
LAYER
  5
5F2
330
1
100
AcDbSymbolTableRecord
100
AcDbLayerTableRecord
  2
BARRA ANCORAGEM
 70
0
 62
7
  6
Continuous
370
-3
390
13
347
21
  0
LAYER
  5
5F4
330
1
100
AcDbSymbolTableRecord
100
AcDbLayerTableRecord
  2
NIVEL
 70
0
 62
7
  6
Continuous
370
-3
390
13
347
21
  0
LAYER
  5
5F6
330
1
100
AcDbSymbolTableRecord
100
AcDbLayerTableRecord
  2
Folhas
 70
0
 62
7
  6
Continuous
370
-3
390
13
347
21
  0
ENDTAB
  0
TABLE
  2
STYLE
  5
5
330
0
100
AcDbSymbolTable
 70
1
  0
STYLE
  5
29
330
5
100
AcDbSymbolTableRecord
100
AcDbTextStyleTableRecord
  2
Standard
 70
0
 40
0.0
 41
1.0
 50
0.0
 71
0
 42
2.5
  3
txt
  4

  0
ENDTAB
  0
TABLE
  2
VIEW
  5
7
330
0
100
AcDbSymbolTable
 70
0
  0
ENDTAB
  0
TABLE
  2
UCS
  5
6
330
0
100
AcDbSymbolTable
 70
0
  0
ENDTAB
  0
TABLE
  2
APPID
  5
3
330
0
100
AcDbSymbolTable
 70
3
  0
APPID
  5
2A
330
3
100
AcDbSymbolTableRecord
100
AcDbRegAppTableRecord
  2
ACAD
 70
0
  0
APPID
  5
5F8
330
3
100
AcDbSymbolTableRecord
100
AcDbRegAppTableRecord
  2
HATCHBACKGROUNDCOLOR
 70
0
  0
APPID
  5
5F9
330
3
100
AcDbSymbolTableRecord
100
AcDbRegAppTableRecord
  2
EZDXF
 70
0
  0
ENDTAB
  0
TABLE
  2
DIMSTYLE
  5
4
330
0
100
AcDbSymbolTable
 70
3
100
AcDbDimStyleTable
  0
DIMSTYLE
105
2B
330
4
100
AcDbSymbolTableRecord
100
AcDbDimStyleTableRecord
  2
Standard
 70
0
 40
1.0
 41
2.5
 42
0.625
 43
3.75
 44
1.25
 45
0.0
 46
0.0
 47
0.0
 48
0.0
 49
2.5
140
2.5
141
2.5
142
0.0
143
0.03937007874
144
1.0
145
0.0
146
1.0
147
0.625
148
0.0
 69
0
 70
0
 71
0
 72
0
 73
0
 74
0
 75
0
 76
0
 77
1
 78
8
 79
3
170
0
171
3
172
1
173
0
174
0
175
0
176
0
177
0
178
0
179
2
271
2
272
2
273
2
274
3
275
0
276
0
277
2
278
44
279
0
280
0
281
0
282
0
283
0
284
8
285
0
286
0
288
0
289
3
290
0
371
-2
372
-2
  0
DIMSTYLE
105
49
330
4
100
AcDbSymbolTableRecord
100
AcDbDimStyleTableRecord
  2
cotax2
 70
0
 40
1.0
 41
1.5
 42
0.5
 43
3.75
 44
0.5
 45
0.0
 46
0.0
 47
0.0
 48
0.0
 49
2.5
140
2.5
141
2.5
142
0.0
143
0.03937007874
144
1.0
145
0.0
146
1.0
147
0.5
148
0.0
 69
0
 70
0
 71
0
 72
0
 73
0
 74
0
 75
0
 76
0
 77
1
 78
8
 79
3
170
0
171
3
172
1
173
0
174
0
175
0
176
0
177
0
178
0
179
2
271
2
272
2
273
2
274
3
275
0
276
0
277
2
278
44
279
0
280
0
281
0
282
0
283
0
284
8
285
0
286
0
288
0
289
3
290
0
371
-2
372
-2
  0
DIMSTYLE
105
4A
330
4
100
AcDbSymbolTableRecord
100
AcDbDimStyleTableRecord
  2
PAINEL-NOVA
 70
0
 40
1.0
 41
3.0
 42
1.0
 43
3.75
 44
1.0
 45
0.0
 46
0.0
 47
0.0
 48
0.0
 49
2.5
140
5.0
141
2.5
142
0.0
143
0.03937007874
144
1.0
145
0.0
146
1.0
147
1.0
148
0.0
 69
0
 70
0
 71
0
 72
0
 73
0
 74
0
 75
0
 76
0
 77
1
 78
8
 79
3
170
0
171
3
172
1
173
0
174
0
175
0
176
0
177
0
178
0
179
2
271
2
272
2
273
2
274
3
275
0
276
0
277
2
278
44
279
0
280
0
281
0
282
0
283
0
284
8
285
0
286
0
288
0
289
3
290
0
371
-2
372
-2
  0
ENDTAB
  0
TABLE
  2
BLOCK_RECORD
  5
9
330
0
100
AcDbSymbolTable
 70
92
  0
BLOCK_RECORD
  5
17
330
9
100
AcDbSymbolTableRecord
100
AcDbBlockTableRecord
  2
*Model_Space
340
1A
 70
0
280
1
281
0
  0
BLOCK_RECORD
  5
1B
330
9
100
AcDbSymbolTableRecord
100
AcDbBlockTableRecord
  2
*Paper_Space
340
1E
 70
0
280
1
281
0
  0
BLOCK_RECORD
  5
4B
330
9
100
AcDbSymbolTableRecord
100
AcDbBlockTableRecord
  2
B1A.E
340
0
 70
0
280
1
281
0
  0
BLOCK_RECORD
  5
4F
330
9
100
AcDbSymbolTableRecord
100
AcDbBlockTableRecord
  2
B1A.D
340
0
 70
0
280
1
281
0
  0
BLOCK_RECORD
  5
53
330
9
100
AcDbSymbolTableRecord
100
AcDbBlockTableRecord
  2
B1B.E
340
0
 70
0
280
1
281
0
  0
BLOCK_RECORD
  5
57
330
9
100
AcDbSymbolTableRecord
100
AcDbBlockTableRecord
  2
B1B.D
340
0
 70
0
280
1
281
0
  0
BLOCK_RECORD
  5
5B
330
9
100
AcDbSymbolTableRecord
100
AcDbBlockTableRecord
  2
B2A.E
340
0
 70
0
280
1
281
0
  0
BLOCK_RECORD
  5
5F
330
9
100
AcDbSymbolTableRecord
100
AcDbBlockTableRecord
  2
PAR.CIM
340
0
 70
0
280
1
281
0
  0
BLOCK_RECORD
  5
65
330
9
100
AcDbSymbolTableRecord
100
AcDbBlockTableRecord
  2
PAR.BAI
340
0
 70
0
280
1
281
0
  0
BLOCK_RECORD
  5
6B
330
9
100
AcDbSymbolTableRecord
100
AcDbBlockTableRecord
  2
PAR.ESQ
340
0
 70
0
280
1
281
0
  0
BLOCK_RECORD
  5
71
330
9
100
AcDbSymbolTableRecord
100
AcDbBlockTableRecord
  2
PAR.DIR
340
0
 70
0
280
1
281
0
  0
BLOCK_RECORD
  5
77
330
9
100
AcDbSymbolTableRecord
100
AcDbBlockTableRecord
  2
PAR_CIMA
340
0
 70
0
280
1
281
0
  0
BLOCK_RECORD
  5
7B
330
9
100
AcDbSymbolTableRecord
100
AcDbBlockTableRecord
  2
PAR_BAIXO
340
0
 70
0
280
1
281
0
  0
BLOCK_RECORD
  5
7F
330
9
100
AcDbSymbolTableRecord
100
AcDbBlockTableRecord
  2
MULDURA
340
0
 70
0
280
1
281
0
  0
BLOCK_RECORD
  5
85
330
9
100
AcDbSymbolTableRecord
100
AcDbBlockTableRecord
  2
SLIPTEE
340
0
 70
0
280
1
281
0
  0
BLOCK_RECORD
  5
89
330
9
100
AcDbSymbolTableRecord
100
AcDbBlockTableRecord
  2
SLIPTDD
340
0
 70
0
280
1
281
0
  0
BLOCK_RECORD
  5
8E
330
9
100
AcDbSymbolTableRecord
100
AcDbBlockTableRecord
  2
furacao
340
0
 70
0
280
1
281
0
  0
BLOCK_RECORD
  5
94
330
9
100
AcDbSymbolTableRecord
100
AcDbBlockTableRecord
  2
GRA-E
340
0
 70
0
280
1
281
0
  0
BLOCK_RECORD
  5
98
330
9
100
AcDbSymbolTableRecord
100
AcDbBlockTableRecord
  2
GRA-D
340
0
 70
0
280
1
281
0
  0
BLOCK_RECORD
  5
9F
330
9
100
AcDbSymbolTableRecord
100
AcDbBlockTableRecord
  2
*D1
340
0
 70
0
280
1
281
0
  0
BLOCK_RECORD
  5
A4
330
9
100
AcDbSymbolTableRecord
100
AcDbBlockTableRecord
  2
_CLOSEDFILLED
340
0
 70
0
280
1
281
0
  0
BLOCK_RECORD
  5
C9
330
9
100
AcDbSymbolTableRecord
100
AcDbBlockTableRecord
  2
*D2
340
0
 70
0
280
1
281
0
  0
BLOCK_RECORD
  5
DA
330
9
100
AcDbSymbolTableRecord
100
AcDbBlockTableRecord
  2
*D3
340
0
 70
0
280
1
281
0
  0
BLOCK_RECORD
  5
EA
330
9
100
AcDbSymbolTableRecord
100
AcDbBlockTableRecord
  2
*D4
340
0
 70
0
280
1
281
0
  0
BLOCK_RECORD
  5
FA
330
9
100
AcDbSymbolTableRecord
100
AcDbBlockTableRecord
  2
*D5
340
0
 70
0
280
1
281
0
  0
BLOCK_RECORD
  5
109
330
9
100
AcDbSymbolTableRecord
100
AcDbBlockTableRecord
  2
*D6
340
0
 70
0
280
1
281
0
  0
BLOCK_RECORD
  5
119
330
9
100
AcDbSymbolTableRecord
100
AcDbBlockTableRecord
  2
*D7
340
0
 70
0
280
1
281
0
  0
BLOCK_RECORD
  5
129
330
9
100
AcDbSymbolTableRecord
100
AcDbBlockTableRecord
  2
*D8
340
0
 70
0
280
1
281
0
  0
BLOCK_RECORD
  5
139
330
9
100
AcDbSymbolTableRecord
100
AcDbBlockTableRecord
  2
*D9
340
0
 70
0
280
1
281
0
  0
BLOCK_RECORD
  5
148
330
9
100
AcDbSymbolTableRecord
100
AcDbBlockTableRecord
  2
*D10
340
0
 70
0
280
1
281
0
  0
BLOCK_RECORD
  5
157
330
9
100
AcDbSymbolTableRecord
100
AcDbBlockTableRecord
  2
*D11
340
0
 70
0
280
1
281
0
  0
BLOCK_RECORD
  5
179
330
9
100
AcDbSymbolTableRecord
100
AcDbBlockTableRecord
  2
*D12
340
0
 70
0
280
1
281
0
  0
BLOCK_RECORD
  5
18A
330
9
100
AcDbSymbolTableRecord
100
AcDbBlockTableRecord
  2
*D13
340
0
 70
0
280
1
281
0
  0
BLOCK_RECORD
  5
19A
330
9
100
AcDbSymbolTableRecord
100
AcDbBlockTableRecord
  2
*D14
340
0
 70
0
280
1
281
0
  0
BLOCK_RECORD
  5
1AA
330
9
100
AcDbSymbolTableRecord
100
AcDbBlockTableRecord
  2
*D15
340
0
 70
0
280
1
281
0
  0
BLOCK_RECORD
  5
1B9
330
9
100
AcDbSymbolTableRecord
100
AcDbBlockTableRecord
  2
*D16
340
0
 70
0
280
1
281
0
  0
BLOCK_RECORD
  5
1C9
330
9
100
AcDbSymbolTableRecord
100
AcDbBlockTableRecord
  2
*D17
340
0
 70
0
280
1
281
0
  0
BLOCK_RECORD
  5
1D9
330
9
100
AcDbSymbolTableRecord
100
AcDbBlockTableRecord
  2
*D18
340
0
 70
0
280
1
281
0
  0
BLOCK_RECORD
  5
1E9
330
9
100
AcDbSymbolTableRecord
100
AcDbBlockTableRecord
  2
*D19
340
0
 70
0
280
1
281
0
  0
BLOCK_RECORD
  5
1F8
330
9
100
AcDbSymbolTableRecord
100
AcDbBlockTableRecord
  2
*D20
340
0
 70
0
280
1
281
0
  0
BLOCK_RECORD
  5
207
330
9
100
AcDbSymbolTableRecord
100
AcDbBlockTableRecord
  2
*D21
340
0
 70
0
280
1
281
0
  0
BLOCK_RECORD
  5
226
330
9
100
AcDbSymbolTableRecord
100
AcDbBlockTableRecord
  2
*D22
340
0
 70
0
280
1
281
0
  0
BLOCK_RECORD
  5
237
330
9
100
AcDbSymbolTableRecord
100
AcDbBlockTableRecord
  2
*D23
340
0
 70
0
280
1
281
0
  0
BLOCK_RECORD
  5
247
330
9
100
AcDbSymbolTableRecord
100
AcDbBlockTableRecord
  2
*D24
340
0
 70
0
280
1
281
0
  0
BLOCK_RECORD
  5
257
330
9
100
AcDbSymbolTableRecord
100
AcDbBlockTableRecord
  2
*D25
340
0
 70
0
280
1
281
0
  0
BLOCK_RECORD
  5
266
330
9
100
AcDbSymbolTableRecord
100
AcDbBlockTableRecord
  2
*D26
340
0
 70
0
280
1
281
0
  0
BLOCK_RECORD
  5
276
330
9
100
AcDbSymbolTableRecord
100
AcDbBlockTableRecord
  2
*D27
340
0
 70
0
280
1
281
0
  0
BLOCK_RECORD
  5
286
330
9
100
AcDbSymbolTableRecord
100
AcDbBlockTableRecord
  2
*D28
340
0
 70
0
280
1
281
0
  0
BLOCK_RECORD
  5
295
330
9
100
AcDbSymbolTableRecord
100
AcDbBlockTableRecord
  2
*D29
340
0
 70
0
280
1
281
0
  0
BLOCK_RECORD
  5
2A5
330
9
100
AcDbSymbolTableRecord
100
AcDbBlockTableRecord
  2
*D30
340
0
 70
0
280
1
281
0
  0
BLOCK_RECORD
  5
2B4
330
9
100
AcDbSymbolTableRecord
100
AcDbBlockTableRecord
  2
*D31
340
0
 70
0
280
1
281
0
  0
BLOCK_RECORD
  5
2C3
330
9
100
AcDbSymbolTableRecord
100
AcDbBlockTableRecord
  2
*D32
340
0
 70
0
280
1
281
0
  0
BLOCK_RECORD
  5
2DF
330
9
100
AcDbSymbolTableRecord
100
AcDbBlockTableRecord
  2
*D33
340
0
 70
0
280
1
281
0
  0
BLOCK_RECORD
  5
2F0
330
9
100
AcDbSymbolTableRecord
100
AcDbBlockTableRecord
  2
*D34
340
0
 70
0
280
1
281
0
  0
BLOCK_RECORD
  5
300
330
9
100
AcDbSymbolTableRecord
100
AcDbBlockTableRecord
  2
*D35
340
0
 70
0
280
1
281
0
  0
BLOCK_RECORD
  5
310
330
9
100
AcDbSymbolTableRecord
100
AcDbBlockTableRecord
  2
*D36
340
0
 70
0
280
1
281
0
  0
BLOCK_RECORD
  5
31F
330
9
100
AcDbSymbolTableRecord
100
AcDbBlockTableRecord
  2
*D37
340
0
 70
0
280
1
281
0
  0
BLOCK_RECORD
  5
32F
330
9
100
AcDbSymbolTableRecord
100
AcDbBlockTableRecord
  2
*D38
340
0
 70
0
280
1
281
0
  0
BLOCK_RECORD
  5
33E
330
9
100
AcDbSymbolTableRecord
100
AcDbBlockTableRecord
  2
*D39
340
0
 70
0
280
1
281
0
  0
BLOCK_RECORD
  5
34D
330
9
100
AcDbSymbolTableRecord
100
AcDbBlockTableRecord
  2
*D40
340
0
 70
0
280
1
281
0
  0
BLOCK_RECORD
  5
367
330
9
100
AcDbSymbolTableRecord
100
AcDbBlockTableRecord
  2
*D41
340
0
 70
0
280
1
281
0
  0
BLOCK_RECORD
  5
397
330
9
100
AcDbSymbolTableRecord
100
AcDbBlockTableRecord
  2
*D42
340
0
 70
0
280
1
281
0
  0
BLOCK_RECORD
  5
3A7
330
9
100
AcDbSymbolTableRecord
100
AcDbBlockTableRecord
  2
*D43
340
0
 70
0
280
1
281
0
  0
BLOCK_RECORD
  5
3B7
330
9
100
AcDbSymbolTableRecord
100
AcDbBlockTableRecord
  2
*D44
340
0
 70
0
280
1
281
0
  0
BLOCK_RECORD
  5
3C7
330
9
100
AcDbSymbolTableRecord
100
AcDbBlockTableRecord
  2
*D45
340
0
 70
0
280
1
281
0
  0
BLOCK_RECORD
  5
3D9
330
9
100
AcDbSymbolTableRecord
100
AcDbBlockTableRecord
  2
*D46
340
0
 70
0
280
1
281
0
  0
BLOCK_RECORD
  5
3E9
330
9
100
AcDbSymbolTableRecord
100
AcDbBlockTableRecord
  2
*D47
340
0
 70
0
280
1
281
0
  0
BLOCK_RECORD
  5
3F9
330
9
100
AcDbSymbolTableRecord
100
AcDbBlockTableRecord
  2
*D48
340
0
 70
0
280
1
281
0
  0
BLOCK_RECORD
  5
409
330
9
100
AcDbSymbolTableRecord
100
AcDbBlockTableRecord
  2
*D49
340
0
 70
0
280
1
281
0
  0
BLOCK_RECORD
  5
41E
330
9
100
AcDbSymbolTableRecord
100
AcDbBlockTableRecord
  2
*D50
340
0
 70
0
280
1
281
0
  0
BLOCK_RECORD
  5
42E
330
9
100
AcDbSymbolTableRecord
100
AcDbBlockTableRecord
  2
*D51
340
0
 70
0
280
1
281
0
  0
BLOCK_RECORD
  5
470
330
9
100
AcDbSymbolTableRecord
100
AcDbBlockTableRecord
  2
*D52
340
0
 70
0
280
1
281
0
  0
BLOCK_RECORD
  5
47F
330
9
100
AcDbSymbolTableRecord
100
AcDbBlockTableRecord
  2
*D53
340
0
 70
0
280
1
281
0
  0
BLOCK_RECORD
  5
48E
330
9
100
AcDbSymbolTableRecord
100
AcDbBlockTableRecord
  2
*D54
340
0
 70
0
280
1
281
0
  0
BLOCK_RECORD
  5
49D
330
9
100
AcDbSymbolTableRecord
100
AcDbBlockTableRecord
  2
*D55
340
0
 70
0
280
1
281
0
  0
BLOCK_RECORD
  5
4AC
330
9
100
AcDbSymbolTableRecord
100
AcDbBlockTableRecord
  2
*D56
340
0
 70
0
280
1
281
0
  0
BLOCK_RECORD
  5
4ED
330
9
100
AcDbSymbolTableRecord
100
AcDbBlockTableRecord
  2
*D57
340
0
 70
0
280
1
281
0
  0
BLOCK_RECORD
  5
4FC
330
9
100
AcDbSymbolTableRecord
100
AcDbBlockTableRecord
  2
*D58
340
0
 70
0
280
1
281
0
  0
BLOCK_RECORD
  5
50B
330
9
100
AcDbSymbolTableRecord
100
AcDbBlockTableRecord
  2
*D59
340
0
 70
0
280
1
281
0
  0
BLOCK_RECORD
  5
51A
330
9
100
AcDbSymbolTableRecord
100
AcDbBlockTableRecord
  2
*D60
340
0
 70
0
280
1
281
0
  0
BLOCK_RECORD
  5
529
330
9
100
AcDbSymbolTableRecord
100
AcDbBlockTableRecord
  2
*D61
340
0
 70
0
280
1
281
0
  0
BLOCK_RECORD
  5
53D
330
9
100
AcDbSymbolTableRecord
100
AcDbBlockTableRecord
  2
*D62
340
0
 70
0
280
1
281
0
  0
BLOCK_RECORD
  5
54D
330
9
100
AcDbSymbolTableRecord
100
AcDbBlockTableRecord
  2
*D63
340
0
 70
0
280
1
281
0
  0
BLOCK_RECORD
  5
55D
330
9
100
AcDbSymbolTableRecord
100
AcDbBlockTableRecord
  2
*D64
340
0
 70
0
280
1
281
0
  0
BLOCK_RECORD
  5
56C
330
9
100
AcDbSymbolTableRecord
100
AcDbBlockTableRecord
  2
*D65
340
0
 70
0
280
1
281
0
  0
BLOCK_RECORD
  5
57C
330
9
100
AcDbSymbolTableRecord
100
AcDbBlockTableRecord
  2
*D66
340
0
 70
0
280
1
281
0
  0
BLOCK_RECORD
  5
58B
330
9
100
AcDbSymbolTableRecord
100
AcDbBlockTableRecord
  2
*D67
340
0
 70
0
280
1
281
0
  0
BLOCK_RECORD
  5
59B
330
9
100
AcDbSymbolTableRecord
100
AcDbBlockTableRecord
  2
*D68
340
0
 70
0
280
1
281
0
  0
BLOCK_RECORD
  5
5AA
330
9
100
AcDbSymbolTableRecord
100
AcDbBlockTableRecord
  2
*D69
340
0
 70
0
280
1
281
0
  0
BLOCK_RECORD
  5
5BA
330
9
100
AcDbSymbolTableRecord
100
AcDbBlockTableRecord
  2
*D70
340
0
 70
0
280
1
281
0
  0
BLOCK_RECORD
  5
5C9
330
9
100
AcDbSymbolTableRecord
100
AcDbBlockTableRecord
  2
*D71
340
0
 70
0
280
1
281
0
  0
BLOCK_RECORD
  5
5D9
330
9
100
AcDbSymbolTableRecord
100
AcDbBlockTableRecord
  2
*D72
340
0
 70
0
280
1
281
0
  0
ENDTAB
  0
ENDSEC
  0
SECTION
  2
BLOCKS
  0
BLOCK
  5
18
330
17
100
AcDbEntity
  8
0
100
AcDbBlockBegin
  2
*Model_Space
 70
0
 10
0.0
 20
0.0
 30
0.0
  3
*Model_Space
  1

  0
ENDBLK
  5
19
330
17
100
AcDbEntity
  8
0
100
AcDbBlockEnd
  0
BLOCK
  5
1C
330
1B
100
AcDbEntity
  8
0
100
AcDbBlockBegin
  2
*Paper_Space
 70
0
 10
0.0
 20
0.0
 30
0.0
  3
*Paper_Space
  1

  0
ENDBLK
  5
1D
330
1B
100
AcDbEntity
  8
0
100
AcDbBlockEnd
  0
BLOCK
  5
4C
330
4B
100
AcDbEntity
  8
0
100
AcDbBlockBegin
  2
B1A.E
 70
0
 10
0.0
 20
0.0
 30
0.0
  3
B1A.E
  1

  0
LWPOLYLINE
  5
4E
330
4B
100
AcDbEntity
  8
SARR_2.2x7
100
AcDbPolyline
 90
4
 70
1
 10
0.0
 20
0.0
 10
2.2
 20
0.0
 10
2.2
 20
7.0
 10
0.0
 20
7.0
  0
ENDBLK
  5
4D
330
4B
100
AcDbEntity
  8
0
100
AcDbBlockEnd
  0
BLOCK
  5
50
330
4F
100
AcDbEntity
  8
0
100
AcDbBlockBegin
  2
B1A.D
 70
0
 10
0.0
 20
0.0
 30
0.0
  3
B1A.D
  1

  0
LWPOLYLINE
  5
52
330
4F
100
AcDbEntity
  8
SARR_2.2x7
100
AcDbPolyline
 90
4
 70
1
 10
0.0
 20
0.0
 10
2.2
 20
0.0
 10
2.2
 20
7.0
 10
0.0
 20
7.0
  0
ENDBLK
  5
51
330
4F
100
AcDbEntity
  8
0
100
AcDbBlockEnd
  0
BLOCK
  5
54
330
53
100
AcDbEntity
  8
0
100
AcDbBlockBegin
  2
B1B.E
 70
0
 10
0.0
 20
0.0
 30
0.0
  3
B1B.E
  1

  0
LWPOLYLINE
  5
56
330
53
100
AcDbEntity
  8
SARR_2.2x7
100
AcDbPolyline
 90
4
 70
1
 10
0.0
 20
0.0
 10
2.2
 20
0.0
 10
2.2
 20
7.0
 10
0.0
 20
7.0
  0
ENDBLK
  5
55
330
53
100
AcDbEntity
  8
0
100
AcDbBlockEnd
  0
BLOCK
  5
58
330
57
100
AcDbEntity
  8
0
100
AcDbBlockBegin
  2
B1B.D
 70
0
 10
0.0
 20
0.0
 30
0.0
  3
B1B.D
  1

  0
LWPOLYLINE
  5
5A
330
57
100
AcDbEntity
  8
SARR_2.2x7
100
AcDbPolyline
 90
4
 70
1
 10
0.0
 20
0.0
 10
2.2
 20
0.0
 10
2.2
 20
7.0
 10
0.0
 20
7.0
  0
ENDBLK
  5
59
330
57
100
AcDbEntity
  8
0
100
AcDbBlockEnd
  0
BLOCK
  5
5C
330
5B
100
AcDbEntity
  8
0
100
AcDbBlockBegin
  2
B2A.E
 70
0
 10
0.0
 20
0.0
 30
0.0
  3
B2A.E
  1

  0
LWPOLYLINE
  5
5E
330
5B
100
AcDbEntity
  8
SARR_2.2x7
100
AcDbPolyline
 90
4
 70
1
 10
0.0
 20
0.0
 10
2.2
 20
0.0
 10
2.2
 20
7.0
 10
0.0
 20
7.0
  0
ENDBLK
  5
5D
330
5B
100
AcDbEntity
  8
0
100
AcDbBlockEnd
  0
BLOCK
  5
60
330
5F
100
AcDbEntity
  8
0
100
AcDbBlockBegin
  2
PAR.CIM
 70
0
 10
0.0
 20
0.0
 30
0.0
  3
PAR.CIM
  1

  0
LINE
  5
62
330
5F
100
AcDbEntity
  8
COTA
100
AcDbLine
 10
-1.0
 20
0.0
 30
0.0
 11
1.0
 21
0.0
 31
0.0
  0
LINE
  5
63
330
5F
100
AcDbEntity
  8
COTA
100
AcDbLine
 10
0.0
 20
-1.0
 30
0.0
 11
0.0
 21
1.0
 31
0.0
  0
CIRCLE
  5
64
330
5F
100
AcDbEntity
  8
COTA
100
AcDbCircle
 10
0.0
 20
0.0
 30
0.0
 40
1.2
  0
ENDBLK
  5
61
330
5F
100
AcDbEntity
  8
0
100
AcDbBlockEnd
  0
BLOCK
  5
66
330
65
100
AcDbEntity
  8
0
100
AcDbBlockBegin
  2
PAR.BAI
 70
0
 10
0.0
 20
0.0
 30
0.0
  3
PAR.BAI
  1

  0
LINE
  5
68
330
65
100
AcDbEntity
  8
COTA
100
AcDbLine
 10
-1.0
 20
0.0
 30
0.0
 11
1.0
 21
0.0
 31
0.0
  0
LINE
  5
69
330
65
100
AcDbEntity
  8
COTA
100
AcDbLine
 10
0.0
 20
-1.0
 30
0.0
 11
0.0
 21
1.0
 31
0.0
  0
CIRCLE
  5
6A
330
65
100
AcDbEntity
  8
COTA
100
AcDbCircle
 10
0.0
 20
0.0
 30
0.0
 40
1.2
  0
ENDBLK
  5
67
330
65
100
AcDbEntity
  8
0
100
AcDbBlockEnd
  0
BLOCK
  5
6C
330
6B
100
AcDbEntity
  8
0
100
AcDbBlockBegin
  2
PAR.ESQ
 70
0
 10
0.0
 20
0.0
 30
0.0
  3
PAR.ESQ
  1

  0
LINE
  5
6E
330
6B
100
AcDbEntity
  8
COTA
100
AcDbLine
 10
-1.0
 20
0.0
 30
0.0
 11
1.0
 21
0.0
 31
0.0
  0
LINE
  5
6F
330
6B
100
AcDbEntity
  8
COTA
100
AcDbLine
 10
0.0
 20
-1.0
 30
0.0
 11
0.0
 21
1.0
 31
0.0
  0
CIRCLE
  5
70
330
6B
100
AcDbEntity
  8
COTA
100
AcDbCircle
 10
0.0
 20
0.0
 30
0.0
 40
1.2
  0
ENDBLK
  5
6D
330
6B
100
AcDbEntity
  8
0
100
AcDbBlockEnd
  0
BLOCK
  5
72
330
71
100
AcDbEntity
  8
0
100
AcDbBlockBegin
  2
PAR.DIR
 70
0
 10
0.0
 20
0.0
 30
0.0
  3
PAR.DIR
  1

  0
LINE
  5
74
330
71
100
AcDbEntity
  8
COTA
100
AcDbLine
 10
-1.0
 20
0.0
 30
0.0
 11
1.0
 21
0.0
 31
0.0
  0
LINE
  5
75
330
71
100
AcDbEntity
  8
COTA
100
AcDbLine
 10
0.0
 20
-1.0
 30
0.0
 11
0.0
 21
1.0
 31
0.0
  0
CIRCLE
  5
76
330
71
100
AcDbEntity
  8
COTA
100
AcDbCircle
 10
0.0
 20
0.0
 30
0.0
 40
1.2
  0
ENDBLK
  5
73
330
71
100
AcDbEntity
  8
0
100
AcDbBlockEnd
  0
BLOCK
  5
78
330
77
100
AcDbEntity
  8
0
100
AcDbBlockBegin
  2
PAR_CIMA
 70
0
 10
0.0
 20
0.0
 30
0.0
  3
PAR_CIMA
  1

  0
LWPOLYLINE
  5
7A
330
77
100
AcDbEntity
  8
COTA
100
AcDbPolyline
 90
3
 70
1
 10
0.0
 20
0.0
 10
2.0
 20
1.0
 10
0.0
 20
2.0
  0
ENDBLK
  5
79
330
77
100
AcDbEntity
  8
0
100
AcDbBlockEnd
  0
BLOCK
  5
7C
330
7B
100
AcDbEntity
  8
0
100
AcDbBlockBegin
  2
PAR_BAIXO
 70
0
 10
0.0
 20
0.0
 30
0.0
  3
PAR_BAIXO
  1

  0
LWPOLYLINE
  5
7E
330
7B
100
AcDbEntity
  8
COTA
100
AcDbPolyline
 90
3
 70
1
 10
0.0
 20
0.0
 10
2.0
 20
1.0
 10
0.0
 20
2.0
  0
ENDBLK
  5
7D
330
7B
100
AcDbEntity
  8
0
100
AcDbBlockEnd
  0
BLOCK
  5
80
330
7F
100
AcDbEntity
  8
0
100
AcDbBlockBegin
  2
MULDURA
 70
0
 10
0.0
 20
0.0
 30
0.0
  3
MULDURA
  1

  0
LWPOLYLINE
  5
82
330
7F
100
AcDbEntity
  8
Paineis
100
AcDbPolyline
 90
4
 70
1
 10
0.0
 20
0.0
 10
4.0
 20
0.0
 10
4.0
 20
4.0
 10
0.0
 20
4.0
  0
LINE
  5
83
330
7F
100
AcDbEntity
  8
Paineis
100
AcDbLine
 10
0.0
 20
0.0
 30
0.0
 11
4.0
 21
4.0
 31
0.0
  0
LINE
  5
84
330
7F
100
AcDbEntity
  8
Paineis
100
AcDbLine
 10
4.0
 20
0.0
 30
0.0
 11
0.0
 21
4.0
 31
0.0
  0
ENDBLK
  5
81
330
7F
100
AcDbEntity
  8
0
100
AcDbBlockEnd
  0
BLOCK
  5
86
330
85
100
AcDbEntity
  8
0
100
AcDbBlockBegin
  2
SLIPTEE
 70
0
 10
0.0
 20
0.0
 30
0.0
  3
SLIPTEE
  1

  0
LWPOLYLINE
  5
88
330
85
100
AcDbEntity
  8
Paineis
100
AcDbPolyline
 90
8
 70
1
 10
0.0
 20
0.0
 10
3.0
 20
0.0
 10
3.0
 20
1.5
 10
2.0
 20
1.5
 10
2.0
 20
3.0
 10
1.0
 20
3.0
 10
1.0
 20
1.5
 10
0.0
 20
1.5
  0
ENDBLK
  5
87
330
85
100
AcDbEntity
  8
0
100
AcDbBlockEnd
  0
BLOCK
  5
8A
330
89
100
AcDbEntity
  8
0
100
AcDbBlockBegin
  2
SLIPTDD
 70
0
 10
0.0
 20
0.0
 30
0.0
  3
SLIPTDD
  1

  0
LWPOLYLINE
  5
8C
330
89
100
AcDbEntity
  8
Paineis
100
AcDbPolyline
 90
8
 70
1
 10
0.0
 20
0.0
 10
3.0
 20
0.0
 10
3.0
 20
1.5
 10
2.0
 20
1.5
 10
2.0
 20
3.0
 10
1.0
 20
3.0
 10
1.0
 20
1.5
 10
0.0
 20
1.5
  0
LINE
  5
8D
330
89
100
AcDbEntity
  8
Paineis
100
AcDbLine
 10
0.0
 20
1.5
 30
0.0
 11
3.0
 21
1.5
 31
0.0
  0
ENDBLK
  5
8B
330
89
100
AcDbEntity
  8
0
100
AcDbBlockEnd
  0
BLOCK
  5
8F
330
8E
100
AcDbEntity
  8
0
100
AcDbBlockBegin
  2
furacao
 70
0
 10
0.0
 20
0.0
 30
0.0
  3
furacao
  1

  0
CIRCLE
  5
91
330
8E
100
AcDbEntity
  8
COTAS FURACAO
100
AcDbCircle
 10
0.0
 20
0.0
 30
0.0
 40
0.8
  0
LINE
  5
92
330
8E
100
AcDbEntity
  8
COTAS FURACAO
100
AcDbLine
 10
-1.2
 20
0.0
 30
0.0
 11
1.2
 21
0.0
 31
0.0
  0
LINE
  5
93
330
8E
100
AcDbEntity
  8
COTAS FURACAO
100
AcDbLine
 10
0.0
 20
-1.2
 30
0.0
 11
0.0
 21
1.2
 31
0.0
  0
ENDBLK
  5
90
330
8E
100
AcDbEntity
  8
0
100
AcDbBlockEnd
  0
BLOCK
  5
95
330
94
100
AcDbEntity
  8
0
100
AcDbBlockBegin
  2
GRA-E
 70
0
 10
0.0
 20
0.0
 30
0.0
  3
GRA-E
  1

  0
LWPOLYLINE
  5
97
330
94
100
AcDbEntity
  8
SARR_2.2x7
100
AcDbPolyline
 90
3
 70
1
 10
0.0
 20
0.0
 10
7.0
 20
0.0
 10
0.0
 20
10.0
  0
ENDBLK
  5
96
330
94
100
AcDbEntity
  8
0
100
AcDbBlockEnd
  0
BLOCK
  5
99
330
98
100
AcDbEntity
  8
0
100
AcDbBlockBegin
  2
GRA-D
 70
0
 10
0.0
 20
0.0
 30
0.0
  3
GRA-D
  1

  0
LWPOLYLINE
  5
9B
330
98
100
AcDbEntity
  8
SARR_2.2x7
100
AcDbPolyline
 90
3
 70
1
 10
0.0
 20
0.0
 10
7.0
 20
0.0
 10
7.0
 20
10.0
  0
ENDBLK
  5
9A
330
98
100
AcDbEntity
  8
0
100
AcDbBlockEnd
  0
BLOCK
  5
A0
330
9F
100
AcDbEntity
  8
0
100
AcDbBlockBegin
  2
*D1
 70
1
 10
0.0
 20
0.0
 30
0.0
  3
*D1
  1

  0
LINE
  5
A2
330
9F
100
AcDbEntity
  8
0
100
AcDbLine
 10
-6951.0
 20
-421.0
 30
0.0
 11
-6971.0
 21
-421.0
 31
0.0
  0
LINE
  5
A3
330
9F
100
AcDbEntity
  8
0
100
AcDbLine
 10
-6951.0
 20
-100.0
 30
0.0
 11
-6971.0
 21
-100.0
 31
0.0
  0
INSERT
  5
A8
330
9F
100
AcDbEntity
  8
COTA
100
AcDbBlockReference
  2
_CLOSEDFILLED
 10
-6970.0
 20
-421.0
 30
0.0
 41
3.0
 42
3.0
 50
270.0
  0
INSERT
  5
AA
330
9F
100
AcDbEntity
  8
COTA
100
AcDbBlockReference
  2
_CLOSEDFILLED
 10
-6970.0
 20
-100.0
 30
0.0
 41
3.0
 42
3.0
 50
90.0
  0
LINE
  5
AC
330
9F
100
AcDbEntity
  8
0
100
AcDbLine
 10
-6970.0
 20
-418.0
 30
0.0
 11
-6970.0
 21
-268.0
 31
0.0
  0
LINE
  5
AD
330
9F
100
AcDbEntity
  8
0
100
AcDbLine
 10
-6970.0
 20
-253.0
 30
0.0
 11
-6970.0
 21
-103.0
 31
0.0
  0
MTEXT
  5
AE
330
9F
100
AcDbEntity
  8
COTA
100
AcDbMText
 10
-6970.0
 20
-260.5
 30
0.0
 40
5.0
 71
5
  1
321
 50
90.0
  0
POINT
  5
AF
330
9F
100
AcDbEntity
  8
Defpoints
100
AcDbPoint
 10
-6970.0
 20
-421.0
 30
0.0
  0
POINT
  5
B0
330
9F
100
AcDbEntity
  8
Defpoints
100
AcDbPoint
 10
-6950.0
 20
-421.0
 30
0.0
  0
POINT
  5
B1
330
9F
100
AcDbEntity
  8
Defpoints
100
AcDbPoint
 10
-6950.0
 20
-100.0
 30
0.0
  0
ENDBLK
  5
A1
330
9F
100
AcDbEntity
  8
0
100
AcDbBlockEnd
  0
BLOCK
  5
A5
330
A4
100
AcDbEntity
  8
0
100
AcDbBlockBegin
  2
_CLOSEDFILLED
 70
0
 10
0.0
 20
0.0
 30
0.0
  3
_CLOSEDFILLED
  1

  0
SOLID
  5
A7
330
A4
100
AcDbEntity
  8
0
  6
BYBLOCK
 62
0
100
AcDbTrace
 10
-1.0
 20
0.16439898372402537
 30
0.0
 11
0.0
 21
0.0
 31
0.0
 12
-1.0
 22
-0.16439898372402537
 32
0.0
 13
-1.0
 23
-0.16439898372402537
 33
0.0
  0
ENDBLK
  5
A6
330
A4
100
AcDbEntity
  8
0
100
AcDbBlockEnd
  0
BLOCK
  5
CA
330
C9
100
AcDbEntity
  8
0
100
AcDbBlockBegin
  2
*D2
 70
1
 10
0.0
 20
0.0
 30
0.0
  3
*D2
  1

  0
LINE
  5
CC
330
C9
100
AcDbEntity
  8
0
 62
4
100
AcDbLine
 10
-6831.0
 20
-421.0
 30
0.0
 11
-6812.0
 21
-421.0
 31
0.0
  0
LINE
  5
CD
330
C9
100
AcDbEntity
  8
0
 62
4
100
AcDbLine
 10
-6831.0
 20
-421.0
 30
0.0
 11
-6812.0
 21
-421.0
 31
0.0
  0
INSERT
  5
CE
330
C9
100
AcDbEntity
  8
COTA
 62
4
100
AcDbBlockReference
  2
_CLOSEDFILLED
 10
-6813.0
 20
-421.0
 30
0.0
 41
3.0
 42
3.0
 50
90.0
  0
INSERT
  5
D0
330
C9
100
AcDbEntity
  8
COTA
 62
4
100
AcDbBlockReference
  2
_CLOSEDFILLED
 10
-6813.0
 20
-421.0
 30
0.0
 41
3.0
 42
3.0
 50
270.0
  0
LINE
  5
D2
330
C9
100
AcDbEntity
  8
0
 62
4
100
AcDbLine
 10
-6813.0
 20
-424.0
 30
0.0
 11
-6813.0
 21
-427.0
 31
0.0
  0
LINE
  5
D3
330
C9
100
AcDbEntity
  8
0
 62
4
100
AcDbLine
 10
-6813.0
 20
-418.0
 30
0.0
 11
-6813.0
 21
-415.0
 31
0.0
  0
LINE
  5
D4
330
C9
100
AcDbEntity
  8
0
 62
4
100
AcDbLine
 10
-6813.0
 20
-421.0
 30
0.0
 11
-6813.0
 21
-421.0
 31
0.0
  0
MTEXT
  5
D5
330
C9
100
AcDbEntity
  8
COTA
 62
4
100
AcDbMText
 10
-6817.5
 20
-421.0
 30
0.0
 40
5.0
 71
5
  1
0
 50
90.0
  0
POINT
  5
D6
330
C9
100
AcDbEntity
  8
Defpoints
100
AcDbPoint
 10
-6813.0
 20
-421.0
 30
0.0
  0
POINT
  5
D7
330
C9
100
AcDbEntity
  8
Defpoints
100
AcDbPoint
 10
-6832.0
 20
-421.0
 30
0.0
  0
POINT
  5
D8
330
C9
100
AcDbEntity
  8
Defpoints
100
AcDbPoint
 10
-6832.0
 20
-421.0
 30
0.0
  0
ENDBLK
  5
CB
330
C9
100
AcDbEntity
  8
0
100
AcDbBlockEnd
  0
BLOCK
  5
DB
330
DA
100
AcDbEntity
  8
0
100
AcDbBlockBegin
  2
*D3
 70
1
 10
0.0
 20
0.0
 30
0.0
  3
*D3
  1

  0
LINE
  5
DD
330
DA
100
AcDbEntity
  8
0
 62
4
100
AcDbLine
 10
-6831.0
 20
-421.0
 30
0.0
 11
-6793.0
 21
-421.0
 31
0.0
  0
LINE
  5
DE
330
DA
100
AcDbEntity
  8
0
 62
4
100
AcDbLine
 10
-6831.0
 20
-299.0
 30
0.0
 11
-6793.0
 21
-299.0
 31
0.0
  0
INSERT
  5
DF
330
DA
100
AcDbEntity
  8
COTA
 62
4
100
AcDbBlockReference
  2
_CLOSEDFILLED
 10
-6794.0
 20
-421.0
 30
0.0
 41
3.0
 42
3.0
 50
270.0
  0
INSERT
  5
E1
330
DA
100
AcDbEntity
  8
COTA
 62
4
100
AcDbBlockReference
  2
_CLOSEDFILLED
 10
-6794.0
 20
-299.0
 30
0.0
 41
3.0
 42
3.0
 50
90.0
  0
LINE
  5
E3
330
DA
100
AcDbEntity
  8
0
 62
4
100
AcDbLine
 10
-6794.0
 20
-418.0
 30
0.0
 11
-6794.0
 21
-367.5
 31
0.0
  0
LINE
  5
E4
330
DA
100
AcDbEntity
  8
0
 62
4
100
AcDbLine
 10
-6794.0
 20
-352.5
 30
0.0
 11
-6794.0
 21
-302.0
 31
0.0
  0
MTEXT
  5
E5
330
DA
100
AcDbEntity
  8
COTA
 62
4
100
AcDbMText
 10
-6794.0
 20
-360.0
 30
0.0
 40
5.0
 71
5
  1
122
 50
90.0
  0
POINT
  5
E6
330
DA
100
AcDbEntity
  8
Defpoints
100
AcDbPoint
 10
-6794.0
 20
-421.0
 30
0.0
  0
POINT
  5
E7
330
DA
100
AcDbEntity
  8
Defpoints
100
AcDbPoint
 10
-6832.0
 20
-421.0
 30
0.0
  0
POINT
  5
E8
330
DA
100
AcDbEntity
  8
Defpoints
100
AcDbPoint
 10
-6832.0
 20
-299.0
 30
0.0
  0
ENDBLK
  5
DC
330
DA
100
AcDbEntity
  8
0
100
AcDbBlockEnd
  0
BLOCK
  5
EB
330
EA
100
AcDbEntity
  8
0
100
AcDbBlockBegin
  2
*D4
 70
1
 10
0.0
 20
0.0
 30
0.0
  3
*D4
  1

  0
LINE
  5
ED
330
EA
100
AcDbEntity
  8
0
 62
4
100
AcDbLine
 10
-6831.0
 20
-299.0
 30
0.0
 11
-6793.0
 21
-299.0
 31
0.0
  0
LINE
  5
EE
330
EA
100
AcDbEntity
  8
0
 62
4
100
AcDbLine
 10
-6831.0
 20
-273.0
 30
0.0
 11
-6793.0
 21
-273.0
 31
0.0
  0
INSERT
  5
EF
330
EA
100
AcDbEntity
  8
COTA
 62
4
100
AcDbBlockReference
  2
_CLOSEDFILLED
 10
-6794.0
 20
-299.0
 30
0.0
 41
3.0
 42
3.0
 50
270.0
  0
INSERT
  5
F1
330
EA
100
AcDbEntity
  8
COTA
 62
4
100
AcDbBlockReference
  2
_CLOSEDFILLED
 10
-6794.0
 20
-273.0
 30
0.0
 41
3.0
 42
3.0
 50
90.0
  0
LINE
  5
F3
330
EA
100
AcDbEntity
  8
0
 62
4
100
AcDbLine
 10
-6794.0
 20
-296.0
 30
0.0
 11
-6794.0
 21
-291.0
 31
0.0
  0
LINE
  5
F4
330
EA
100
AcDbEntity
  8
0
 62
4
100
AcDbLine
 10
-6794.0
 20
-281.0
 30
0.0
 11
-6794.0
 21
-276.0
 31
0.0
  0
MTEXT
  5
F5
330
EA
100
AcDbEntity
  8
COTA
 62
4
100
AcDbMText
 10
-6794.0
 20
-286.0
 30
0.0
 40
5.0
 71
5
  1
26
 50
90.0
  0
POINT
  5
F6
330
EA
100
AcDbEntity
  8
Defpoints
100
AcDbPoint
 10
-6794.0
 20
-299.0
 30
0.0
  0
POINT
  5
F7
330
EA
100
AcDbEntity
  8
Defpoints
100
AcDbPoint
 10
-6832.0
 20
-299.0
 30
0.0
  0
POINT
  5
F8
330
EA
100
AcDbEntity
  8
Defpoints
100
AcDbPoint
 10
-6832.0
 20
-273.0
 30
0.0
  0
ENDBLK
  5
EC
330
EA
100
AcDbEntity
  8
0
100
AcDbBlockEnd
  0
BLOCK
  5
FB
330
FA
100
AcDbEntity
  8
0
100
AcDbBlockBegin
  2
*D5
 70
1
 10
0.0
 20
0.0
 30
0.0
  3
*D5
  1

  0
LINE
  5
FD
330
FA
100
AcDbEntity
  8
0
 62
4
100
AcDbLine
 10
-6831.0
 20
-273.0
 30
0.0
 11
-6793.0
 21
-273.0
 31
0.0
  0
LINE
  5
FE
330
FA
100
AcDbEntity
  8
0
 62
4
100
AcDbLine
 10
-6831.0
 20
-258.0
 30
0.0
 11
-6793.0
 21
-258.0
 31
0.0
  0
INSERT
  5
FF
330
FA
100
AcDbEntity
  8
COTA
 62
4
100
AcDbBlockReference
  2
_CLOSEDFILLED
 10
-6794.0
 20
-273.0
 30
0.0
 41
3.0
 42
3.0
 50
270.0
  0
INSERT
  5
101
330
FA
100
AcDbEntity
  8
COTA
 62
4
100
AcDbBlockReference
  2
_CLOSEDFILLED
 10
-6794.0
 20
-258.0
 30
0.0
 41
3.0
 42
3.0
 50
90.0
  0
LINE
  5
103
330
FA
100
AcDbEntity
  8
0
 62
4
100
AcDbLine
 10
-6794.0
 20
-270.0
 30
0.0
 11
-6794.0
 21
-261.0
 31
0.0
  0
MTEXT
  5
104
330
FA
100
AcDbEntity
  8
COTA
 62
4
100
AcDbMText
 10
-6798.5
 20
-265.5
 30
0.0
 40
5.0
 71
5
  1
15
 50
90.0
  0
POINT
  5
105
330
FA
100
AcDbEntity
  8
Defpoints
100
AcDbPoint
 10
-6794.0
 20
-273.0
 30
0.0
  0
POINT
  5
106
330
FA
100
AcDbEntity
  8
Defpoints
100
AcDbPoint
 10
-6832.0
 20
-273.0
 30
0.0
  0
POINT
  5
107
330
FA
100
AcDbEntity
  8
Defpoints
100
AcDbPoint
 10
-6832.0
 20
-258.0
 30
0.0
  0
ENDBLK
  5
FC
330
FA
100
AcDbEntity
  8
0
100
AcDbBlockEnd
  0
BLOCK
  5
10A
330
109
100
AcDbEntity
  8
0
100
AcDbBlockBegin
  2
*D6
 70
1
 10
0.0
 20
0.0
 30
0.0
  3
*D6
  1

  0
LINE
  5
10C
330
109
100
AcDbEntity
  8
0
 62
4
100
AcDbLine
 10
-6831.0
 20
-258.0
 30
0.0
 11
-6793.0
 21
-258.0
 31
0.0
  0
LINE
  5
10D
330
109
100
AcDbEntity
  8
0
 62
4
100
AcDbLine
 10
-6831.0
 20
-161.0
 30
0.0
 11
-6793.0
 21
-161.0
 31
0.0
  0
INSERT
  5
10E
330
109
100
AcDbEntity
  8
COTA
 62
4
100
AcDbBlockReference
  2
_CLOSEDFILLED
 10
-6794.0
 20
-258.0
 30
0.0
 41
3.0
 42
3.0
 50
270.0
  0
INSERT
  5
110
330
109
100
AcDbEntity
  8
COTA
 62
4
100
AcDbBlockReference
  2
_CLOSEDFILLED
 10
-6794.0
 20
-161.0
 30
0.0
 41
3.0
 42
3.0
 50
90.0
  0
LINE
  5
112
330
109
100
AcDbEntity
  8
0
 62
4
100
AcDbLine
 10
-6794.0
 20
-255.0
 30
0.0
 11
-6794.0
 21
-214.5
 31
0.0
  0
LINE
  5
113
330
109
100
AcDbEntity
  8
0
 62
4
100
AcDbLine
 10
-6794.0
 20
-204.5
 30
0.0
 11
-6794.0
 21
-164.0
 31
0.0
  0
MTEXT
  5
114
330
109
100
AcDbEntity
  8
COTA
 62
4
100
AcDbMText
 10
-6794.0
 20
-209.5
 30
0.0
 40
5.0
 71
5
  1
97
 50
90.0
  0
POINT
  5
115
330
109
100
AcDbEntity
  8
Defpoints
100
AcDbPoint
 10
-6794.0
 20
-258.0
 30
0.0
  0
POINT
  5
116
330
109
100
AcDbEntity
  8
Defpoints
100
AcDbPoint
 10
-6832.0
 20
-258.0
 30
0.0
  0
POINT
  5
117
330
109
100
AcDbEntity
  8
Defpoints
100
AcDbPoint
 10
-6832.0
 20
-161.0
 30
0.0
  0
ENDBLK
  5
10B
330
109
100
AcDbEntity
  8
0
100
AcDbBlockEnd
  0
BLOCK
  5
11A
330
119
100
AcDbEntity
  8
0
100
AcDbBlockBegin
  2
*D7
 70
1
 10
0.0
 20
0.0
 30
0.0
  3
*D7
  1

  0
LINE
  5
11C
330
119
100
AcDbEntity
  8
0
 62
4
100
AcDbLine
 10
-6831.0
 20
-161.0
 30
0.0
 11
-6793.0
 21
-161.0
 31
0.0
  0
LINE
  5
11D
330
119
100
AcDbEntity
  8
0
 62
4
100
AcDbLine
 10
-6831.0
 20
-121.0
 30
0.0
 11
-6793.0
 21
-121.0
 31
0.0
  0
INSERT
  5
11E
330
119
100
AcDbEntity
  8
COTA
 62
4
100
AcDbBlockReference
  2
_CLOSEDFILLED
 10
-6794.0
 20
-161.0
 30
0.0
 41
3.0
 42
3.0
 50
270.0
  0
INSERT
  5
120
330
119
100
AcDbEntity
  8
COTA
 62
4
100
AcDbBlockReference
  2
_CLOSEDFILLED
 10
-6794.0
 20
-121.0
 30
0.0
 41
3.0
 42
3.0
 50
90.0
  0
LINE
  5
122
330
119
100
AcDbEntity
  8
0
 62
4
100
AcDbLine
 10
-6794.0
 20
-158.0
 30
0.0
 11
-6794.0
 21
-146.0
 31
0.0
  0
LINE
  5
123
330
119
100
AcDbEntity
  8
0
 62
4
100
AcDbLine
 10
-6794.0
 20
-136.0
 30
0.0
 11
-6794.0
 21
-124.0
 31
0.0
  0
MTEXT
  5
124
330
119
100
AcDbEntity
  8
COTA
 62
4
100
AcDbMText
 10
-6794.0
 20
-141.0
 30
0.0
 40
5.0
 71
5
  1
40
 50
90.0
  0
POINT
  5
125
330
119
100
AcDbEntity
  8
Defpoints
100
AcDbPoint
 10
-6794.0
 20
-161.0
 30
0.0
  0
POINT
  5
126
330
119
100
AcDbEntity
  8
Defpoints
100
AcDbPoint
 10
-6832.0
 20
-161.0
 30
0.0
  0
POINT
  5
127
330
119
100
AcDbEntity
  8
Defpoints
100
AcDbPoint
 10
-6832.0
 20
-121.0
 30
0.0
  0
ENDBLK
  5
11B
330
119
100
AcDbEntity
  8
0
100
AcDbBlockEnd
  0
BLOCK
  5
12A
330
129
100
AcDbEntity
  8
0
100
AcDbBlockBegin
  2
*D8
 70
1
 10
0.0
 20
0.0
 30
0.0
  3
*D8
  1

  0
LINE
  5
12C
330
129
100
AcDbEntity
  8
0
 62
4
100
AcDbLine
 10
-6831.0
 20
-121.0
 30
0.0
 11
-6793.0
 21
-121.0
 31
0.0
  0
LINE
  5
12D
330
129
100
AcDbEntity
  8
0
 62
4
100
AcDbLine
 10
-6831.0
 20
-100.0
 30
0.0
 11
-6793.0
 21
-100.0
 31
0.0
  0
INSERT
  5
12E
330
129
100
AcDbEntity
  8
COTA
 62
4
100
AcDbBlockReference
  2
_CLOSEDFILLED
 10
-6794.0
 20
-121.0
 30
0.0
 41
3.0
 42
3.0
 50
270.0
  0
INSERT
  5
130
330
129
100
AcDbEntity
  8
COTA
 62
4
100
AcDbBlockReference
  2
_CLOSEDFILLED
 10
-6794.0
 20
-100.0
 30
0.0
 41
3.0
 42
3.0
 50
90.0
  0
LINE
  5
132
330
129
100
AcDbEntity
  8
0
 62
4
100
AcDbLine
 10
-6794.0
 20
-118.0
 30
0.0
 11
-6794.0
 21
-115.5
 31
0.0
  0
LINE
  5
133
330
129
100
AcDbEntity
  8
0
 62
4
100
AcDbLine
 10
-6794.0
 20
-105.5
 30
0.0
 11
-6794.0
 21
-103.0
 31
0.0
  0
MTEXT
  5
134
330
129
100
AcDbEntity
  8
COTA
 62
4
100
AcDbMText
 10
-6794.0
 20
-110.5
 30
0.0
 40
5.0
 71
5
  1
21
 50
90.0
  0
POINT
  5
135
330
129
100
AcDbEntity
  8
Defpoints
100
AcDbPoint
 10
-6794.0
 20
-121.0
 30
0.0
  0
POINT
  5
136
330
129
100
AcDbEntity
  8
Defpoints
100
AcDbPoint
 10
-6832.0
 20
-121.0
 30
0.0
  0
POINT
  5
137
330
129
100
AcDbEntity
  8
Defpoints
100
AcDbPoint
 10
-6832.0
 20
-100.0
 30
0.0
  0
ENDBLK
  5
12B
330
129
100
AcDbEntity
  8
0
100
AcDbBlockEnd
  0
BLOCK
  5
13A
330
139
100
AcDbEntity
  8
0
100
AcDbBlockBegin
  2
*D9
 70
1
 10
0.0
 20
0.0
 30
0.0
  3
*D9
  1

  0
LINE
  5
13C
330
139
100
AcDbEntity
  8
0
 62
4
100
AcDbLine
 10
-6920.0
 20
-422.0
 30
0.0
 11
-6920.0
 21
-441.0
 31
0.0
  0
LINE
  5
13D
330
139
100
AcDbEntity
  8
0
 62
4
100
AcDbLine
 10
-6913.0
 20
-422.0
 30
0.0
 11
-6913.0
 21
-441.0
 31
0.0
  0
INSERT
  5
13E
330
139
100
AcDbEntity
  8
COTA
 62
4
100
AcDbBlockReference
  2
_CLOSEDFILLED
 10
-6920.0
 20
-440.0
 30
0.0
 41
3.0
 42
3.0
 50
180.0
  0
INSERT
  5
140
330
139
100
AcDbEntity
  8
COTA
 62
4
100
AcDbBlockReference
  2
_CLOSEDFILLED
 10
-6913.0
 20
-440.0
 30
0.0
 41
3.0
 42
3.0
  0
LINE
  5
142
330
139
100
AcDbEntity
  8
0
 62
4
100
AcDbLine
 10
-6917.0
 20
-440.0
 30
0.0
 11
-6916.0
 21
-440.0
 31
0.0
  0
MTEXT
  5
143
330
139
100
AcDbEntity
  8
COTA
 62
4
100
AcDbMText
 10
-6916.5
 20
-435.5
 30
0.0
 40
5.0
 71
5
  1
7
  0
POINT
  5
144
330
139
100
AcDbEntity
  8
Defpoints
100
AcDbPoint
 10
-6920.0
 20
-440.0
 30
0.0
  0
POINT
  5
145
330
139
100
AcDbEntity
  8
Defpoints
100
AcDbPoint
 10
-6920.0
 20
-421.0
 30
0.0
  0
POINT
  5
146
330
139
100
AcDbEntity
  8
Defpoints
100
AcDbPoint
 10
-6913.0
 20
-421.0
 30
0.0
  0
ENDBLK
  5
13B
330
139
100
AcDbEntity
  8
0
100
AcDbBlockEnd
  0
BLOCK
  5
149
330
148
100
AcDbEntity
  8
0
100
AcDbBlockBegin
  2
*D10
 70
1
 10
0.0
 20
0.0
 30
0.0
  3
*D10
  1

  0
LINE
  5
14B
330
148
100
AcDbEntity
  8
0
 62
4
100
AcDbLine
 10
-6839.0
 20
-422.0
 30
0.0
 11
-6839.0
 21
-441.0
 31
0.0
  0
LINE
  5
14C
330
148
100
AcDbEntity
  8
0
 62
4
100
AcDbLine
 10
-6832.0
 20
-422.0
 30
0.0
 11
-6832.0
 21
-441.0
 31
0.0
  0
INSERT
  5
14D
330
148
100
AcDbEntity
  8
COTA
 62
4
100
AcDbBlockReference
  2
_CLOSEDFILLED
 10
-6839.0
 20
-440.0
 30
0.0
 41
3.0
 42
3.0
 50
180.0
  0
INSERT
  5
14F
330
148
100
AcDbEntity
  8
COTA
 62
4
100
AcDbBlockReference
  2
_CLOSEDFILLED
 10
-6832.0
 20
-440.0
 30
0.0
 41
3.0
 42
3.0
  0
LINE
  5
151
330
148
100
AcDbEntity
  8
0
 62
4
100
AcDbLine
 10
-6836.0
 20
-440.0
 30
0.0
 11
-6835.0
 21
-440.0
 31
0.0
  0
MTEXT
  5
152
330
148
100
AcDbEntity
  8
COTA
 62
4
100
AcDbMText
 10
-6835.5
 20
-435.5
 30
0.0
 40
5.0
 71
5
  1
7
  0
POINT
  5
153
330
148
100
AcDbEntity
  8
Defpoints
100
AcDbPoint
 10
-6839.0
 20
-440.0
 30
0.0
  0
POINT
  5
154
330
148
100
AcDbEntity
  8
Defpoints
100
AcDbPoint
 10
-6839.0
 20
-421.0
 30
0.0
  0
POINT
  5
155
330
148
100
AcDbEntity
  8
Defpoints
100
AcDbPoint
 10
-6832.0
 20
-421.0
 30
0.0
  0
ENDBLK
  5
14A
330
148
100
AcDbEntity
  8
0
100
AcDbBlockEnd
  0
BLOCK
  5
158
330
157
100
AcDbEntity
  8
0
100
AcDbBlockBegin
  2
*D11
 70
1
 10
0.0
 20
0.0
 30
0.0
  3
*D11
  1

  0
LINE
  5
15A
330
157
100
AcDbEntity
  8
0
 62
4
100
AcDbLine
 10
-6920.0
 20
-422.0
 30
0.0
 11
-6920.0
 21
-465.0
 31
0.0
  0
LINE
  5
15B
330
157
100
AcDbEntity
  8
0
 62
4
100
AcDbLine
 10
-6832.0
 20
-422.0
 30
0.0
 11
-6832.0
 21
-465.0
 31
0.0
  0
INSERT
  5
15C
330
157
100
AcDbEntity
  8
COTA
 62
4
100
AcDbBlockReference
  2
_CLOSEDFILLED
 10
-6920.0
 20
-464.0
 30
0.0
 41
3.0
 42
3.0
 50
180.0
  0
INSERT
  5
15E
330
157
100
AcDbEntity
  8
COTA
 62
4
100
AcDbBlockReference
  2
_CLOSEDFILLED
 10
-6832.0
 20
-464.0
 30
0.0
 41
3.0
 42
3.0
  0
LINE
  5
160
330
157
100
AcDbEntity
  8
0
 62
4
100
AcDbLine
 10
-6917.0
 20
-464.0
 30
0.0
 11
-6881.0
 21
-464.0
 31
0.0
  0
LINE
  5
161
330
157
100
AcDbEntity
  8
0
 62
4
100
AcDbLine
 10
-6871.0
 20
-464.0
 30
0.0
 11
-6835.0
 21
-464.0
 31
0.0
  0
MTEXT
  5
162
330
157
100
AcDbEntity
  8
COTA
 62
4
100
AcDbMText
 10
-6876.0
 20
-464.0
 30
0.0
 40
5.0
 71
5
  1
88
  0
POINT
  5
163
330
157
100
AcDbEntity
  8
Defpoints
100
AcDbPoint
 10
-6920.0
 20
-464.0
 30
0.0
  0
POINT
  5
164
330
157
100
AcDbEntity
  8
Defpoints
100
AcDbPoint
 10
-6920.0
 20
-421.0
 30
0.0
  0
POINT
  5
165
330
157
100
AcDbEntity
  8
Defpoints
100
AcDbPoint
 10
-6832.0
 20
-421.0
 30
0.0
  0
ENDBLK
  5
159
330
157
100
AcDbEntity
  8
0
100
AcDbBlockEnd
  0
BLOCK
  5
17A
330
179
100
AcDbEntity
  8
0
100
AcDbBlockBegin
  2
*D12
 70
1
 10
0.0
 20
0.0
 30
0.0
  3
*D12
  1

  0
LINE
  5
17C
330
179
100
AcDbEntity
  8
0
 62
4
100
AcDbLine
 10
-6588.0
 20
-421.0
 30
0.0
 11
-6569.0
 21
-421.0
 31
0.0
  0
LINE
  5
17D
330
179
100
AcDbEntity
  8
0
 62
4
100
AcDbLine
 10
-6588.0
 20
-421.0
 30
0.0
 11
-6569.0
 21
-421.0
 31
0.0
  0
INSERT
  5
17E
330
179
100
AcDbEntity
  8
COTA
 62
4
100
AcDbBlockReference
  2
_CLOSEDFILLED
 10
-6570.0
 20
-421.0
 30
0.0
 41
3.0
 42
3.0
 50
90.0
  0
INSERT
  5
180
330
179
100
AcDbEntity
  8
COTA
 62
4
100
AcDbBlockReference
  2
_CLOSEDFILLED
 10
-6570.0
 20
-421.0
 30
0.0
 41
3.0
 42
3.0
 50
270.0
  0
LINE
  5
182
330
179
100
AcDbEntity
  8
0
 62
4
100
AcDbLine
 10
-6570.0
 20
-424.0
 30
0.0
 11
-6570.0
 21
-427.0
 31
0.0
  0
LINE
  5
183
330
179
100
AcDbEntity
  8
0
 62
4
100
AcDbLine
 10
-6570.0
 20
-418.0
 30
0.0
 11
-6570.0
 21
-415.0
 31
0.0
  0
LINE
  5
184
330
179
100
AcDbEntity
  8
0
 62
4
100
AcDbLine
 10
-6570.0
 20
-421.0
 30
0.0
 11
-6570.0
 21
-421.0
 31
0.0
  0
MTEXT
  5
185
330
179
100
AcDbEntity
  8
COTA
 62
4
100
AcDbMText
 10
-6574.5
 20
-421.0
 30
0.0
 40
5.0
 71
5
  1
0
 50
90.0
  0
POINT
  5
186
330
179
100
AcDbEntity
  8
Defpoints
100
AcDbPoint
 10
-6570.0
 20
-421.0
 30
0.0
  0
POINT
  5
187
330
179
100
AcDbEntity
  8
Defpoints
100
AcDbPoint
 10
-6589.0
 20
-421.0
 30
0.0
  0
POINT
  5
188
330
179
100
AcDbEntity
  8
Defpoints
100
AcDbPoint
 10
-6589.0
 20
-421.0
 30
0.0
  0
ENDBLK
  5
17B
330
179
100
AcDbEntity
  8
0
100
AcDbBlockEnd
  0
BLOCK
  5
18B
330
18A
100
AcDbEntity
  8
0
100
AcDbBlockBegin
  2
*D13
 70
1
 10
0.0
 20
0.0
 30
0.0
  3
*D13
  1

  0
LINE
  5
18D
330
18A
100
AcDbEntity
  8
0
 62
4
100
AcDbLine
 10
-6588.0
 20
-421.0
 30
0.0
 11
-6550.0
 21
-421.0
 31
0.0
  0
LINE
  5
18E
330
18A
100
AcDbEntity
  8
0
 62
4
100
AcDbLine
 10
-6588.0
 20
-299.0
 30
0.0
 11
-6550.0
 21
-299.0
 31
0.0
  0
INSERT
  5
18F
330
18A
100
AcDbEntity
  8
COTA
 62
4
100
AcDbBlockReference
  2
_CLOSEDFILLED
 10
-6551.0
 20
-421.0
 30
0.0
 41
3.0
 42
3.0
 50
270.0
  0
INSERT
  5
191
330
18A
100
AcDbEntity
  8
COTA
 62
4
100
AcDbBlockReference
  2
_CLOSEDFILLED
 10
-6551.0
 20
-299.0
 30
0.0
 41
3.0
 42
3.0
 50
90.0
  0
LINE
  5
193
330
18A
100
AcDbEntity
  8
0
 62
4
100
AcDbLine
 10
-6551.0
 20
-418.0
 30
0.0
 11
-6551.0
 21
-367.5
 31
0.0
  0
LINE
  5
194
330
18A
100
AcDbEntity
  8
0
 62
4
100
AcDbLine
 10
-6551.0
 20
-352.5
 30
0.0
 11
-6551.0
 21
-302.0
 31
0.0
  0
MTEXT
  5
195
330
18A
100
AcDbEntity
  8
COTA
 62
4
100
AcDbMText
 10
-6551.0
 20
-360.0
 30
0.0
 40
5.0
 71
5
  1
122
 50
90.0
  0
POINT
  5
196
330
18A
100
AcDbEntity
  8
Defpoints
100
AcDbPoint
 10
-6551.0
 20
-421.0
 30
0.0
  0
POINT
  5
197
330
18A
100
AcDbEntity
  8
Defpoints
100
AcDbPoint
 10
-6589.0
 20
-421.0
 30
0.0
  0
POINT
  5
198
330
18A
100
AcDbEntity
  8
Defpoints
100
AcDbPoint
 10
-6589.0
 20
-299.0
 30
0.0
  0
ENDBLK
  5
18C
330
18A
100
AcDbEntity
  8
0
100
AcDbBlockEnd
  0
BLOCK
  5
19B
330
19A
100
AcDbEntity
  8
0
100
AcDbBlockBegin
  2
*D14
 70
1
 10
0.0
 20
0.0
 30
0.0
  3
*D14
  1

  0
LINE
  5
19D
330
19A
100
AcDbEntity
  8
0
 62
4
100
AcDbLine
 10
-6588.0
 20
-299.0
 30
0.0
 11
-6550.0
 21
-299.0
 31
0.0
  0
LINE
  5
19E
330
19A
100
AcDbEntity
  8
0
 62
4
100
AcDbLine
 10
-6588.0
 20
-273.0
 30
0.0
 11
-6550.0
 21
-273.0
 31
0.0
  0
INSERT
  5
19F
330
19A
100
AcDbEntity
  8
COTA
 62
4
100
AcDbBlockReference
  2
_CLOSEDFILLED
 10
-6551.0
 20
-299.0
 30
0.0
 41
3.0
 42
3.0
 50
270.0
  0
INSERT
  5
1A1
330
19A
100
AcDbEntity
  8
COTA
 62
4
100
AcDbBlockReference
  2
_CLOSEDFILLED
 10
-6551.0
 20
-273.0
 30
0.0
 41
3.0
 42
3.0
 50
90.0
  0
LINE
  5
1A3
330
19A
100
AcDbEntity
  8
0
 62
4
100
AcDbLine
 10
-6551.0
 20
-296.0
 30
0.0
 11
-6551.0
 21
-291.0
 31
0.0
  0
LINE
  5
1A4
330
19A
100
AcDbEntity
  8
0
 62
4
100
AcDbLine
 10
-6551.0
 20
-281.0
 30
0.0
 11
-6551.0
 21
-276.0
 31
0.0
  0
MTEXT
  5
1A5
330
19A
100
AcDbEntity
  8
COTA
 62
4
100
AcDbMText
 10
-6551.0
 20
-286.0
 30
0.0
 40
5.0
 71
5
  1
26
 50
90.0
  0
POINT
  5
1A6
330
19A
100
AcDbEntity
  8
Defpoints
100
AcDbPoint
 10
-6551.0
 20
-299.0
 30
0.0
  0
POINT
  5
1A7
330
19A
100
AcDbEntity
  8
Defpoints
100
AcDbPoint
 10
-6589.0
 20
-299.0
 30
0.0
  0
POINT
  5
1A8
330
19A
100
AcDbEntity
  8
Defpoints
100
AcDbPoint
 10
-6589.0
 20
-273.0
 30
0.0
  0
ENDBLK
  5
19C
330
19A
100
AcDbEntity
  8
0
100
AcDbBlockEnd
  0
BLOCK
  5
1AB
330
1AA
100
AcDbEntity
  8
0
100
AcDbBlockBegin
  2
*D15
 70
1
 10
0.0
 20
0.0
 30
0.0
  3
*D15
  1

  0
LINE
  5
1AD
330
1AA
100
AcDbEntity
  8
0
 62
4
100
AcDbLine
 10
-6588.0
 20
-273.0
 30
0.0
 11
-6550.0
 21
-273.0
 31
0.0
  0
LINE
  5
1AE
330
1AA
100
AcDbEntity
  8
0
 62
4
100
AcDbLine
 10
-6588.0
 20
-258.0
 30
0.0
 11
-6550.0
 21
-258.0
 31
0.0
  0
INSERT
  5
1AF
330
1AA
100
AcDbEntity
  8
COTA
 62
4
100
AcDbBlockReference
  2
_CLOSEDFILLED
 10
-6551.0
 20
-273.0
 30
0.0
 41
3.0
 42
3.0
 50
270.0
  0
INSERT
  5
1B1
330
1AA
100
AcDbEntity
  8
COTA
 62
4
100
AcDbBlockReference
  2
_CLOSEDFILLED
 10
-6551.0
 20
-258.0
 30
0.0
 41
3.0
 42
3.0
 50
90.0
  0
LINE
  5
1B3
330
1AA
100
AcDbEntity
  8
0
 62
4
100
AcDbLine
 10
-6551.0
 20
-270.0
 30
0.0
 11
-6551.0
 21
-261.0
 31
0.0
  0
MTEXT
  5
1B4
330
1AA
100
AcDbEntity
  8
COTA
 62
4
100
AcDbMText
 10
-6555.5
 20
-265.5
 30
0.0
 40
5.0
 71
5
  1
15
 50
90.0
  0
POINT
  5
1B5
330
1AA
100
AcDbEntity
  8
Defpoints
100
AcDbPoint
 10
-6551.0
 20
-273.0
 30
0.0
  0
POINT
  5
1B6
330
1AA
100
AcDbEntity
  8
Defpoints
100
AcDbPoint
 10
-6589.0
 20
-273.0
 30
0.0
  0
POINT
  5
1B7
330
1AA
100
AcDbEntity
  8
Defpoints
100
AcDbPoint
 10
-6589.0
 20
-258.0
 30
0.0
  0
ENDBLK
  5
1AC
330
1AA
100
AcDbEntity
  8
0
100
AcDbBlockEnd
  0
BLOCK
  5
1BA
330
1B9
100
AcDbEntity
  8
0
100
AcDbBlockBegin
  2
*D16
 70
1
 10
0.0
 20
0.0
 30
0.0
  3
*D16
  1

  0
LINE
  5
1BC
330
1B9
100
AcDbEntity
  8
0
 62
4
100
AcDbLine
 10
-6588.0
 20
-258.0
 30
0.0
 11
-6550.0
 21
-258.0
 31
0.0
  0
LINE
  5
1BD
330
1B9
100
AcDbEntity
  8
0
 62
4
100
AcDbLine
 10
-6588.0
 20
-161.0
 30
0.0
 11
-6550.0
 21
-161.0
 31
0.0
  0
INSERT
  5
1BE
330
1B9
100
AcDbEntity
  8
COTA
 62
4
100
AcDbBlockReference
  2
_CLOSEDFILLED
 10
-6551.0
 20
-258.0
 30
0.0
 41
3.0
 42
3.0
 50
270.0
  0
INSERT
  5
1C0
330
1B9
100
AcDbEntity
  8
COTA
 62
4
100
AcDbBlockReference
  2
_CLOSEDFILLED
 10
-6551.0
 20
-161.0
 30
0.0
 41
3.0
 42
3.0
 50
90.0
  0
LINE
  5
1C2
330
1B9
100
AcDbEntity
  8
0
 62
4
100
AcDbLine
 10
-6551.0
 20
-255.0
 30
0.0
 11
-6551.0
 21
-214.5
 31
0.0
  0
LINE
  5
1C3
330
1B9
100
AcDbEntity
  8
0
 62
4
100
AcDbLine
 10
-6551.0
 20
-204.5
 30
0.0
 11
-6551.0
 21
-164.0
 31
0.0
  0
MTEXT
  5
1C4
330
1B9
100
AcDbEntity
  8
COTA
 62
4
100
AcDbMText
 10
-6551.0
 20
-209.5
 30
0.0
 40
5.0
 71
5
  1
97
 50
90.0
  0
POINT
  5
1C5
330
1B9
100
AcDbEntity
  8
Defpoints
100
AcDbPoint
 10
-6551.0
 20
-258.0
 30
0.0
  0
POINT
  5
1C6
330
1B9
100
AcDbEntity
  8
Defpoints
100
AcDbPoint
 10
-6589.0
 20
-258.0
 30
0.0
  0
POINT
  5
1C7
330
1B9
100
AcDbEntity
  8
Defpoints
100
AcDbPoint
 10
-6589.0
 20
-161.0
 30
0.0
  0
ENDBLK
  5
1BB
330
1B9
100
AcDbEntity
  8
0
100
AcDbBlockEnd
  0
BLOCK
  5
1CA
330
1C9
100
AcDbEntity
  8
0
100
AcDbBlockBegin
  2
*D17
 70
1
 10
0.0
 20
0.0
 30
0.0
  3
*D17
  1

  0
LINE
  5
1CC
330
1C9
100
AcDbEntity
  8
0
 62
4
100
AcDbLine
 10
-6588.0
 20
-161.0
 30
0.0
 11
-6550.0
 21
-161.0
 31
0.0
  0
LINE
  5
1CD
330
1C9
100
AcDbEntity
  8
0
 62
4
100
AcDbLine
 10
-6588.0
 20
-121.0
 30
0.0
 11
-6550.0
 21
-121.0
 31
0.0
  0
INSERT
  5
1CE
330
1C9
100
AcDbEntity
  8
COTA
 62
4
100
AcDbBlockReference
  2
_CLOSEDFILLED
 10
-6551.0
 20
-161.0
 30
0.0
 41
3.0
 42
3.0
 50
270.0
  0
INSERT
  5
1D0
330
1C9
100
AcDbEntity
  8
COTA
 62
4
100
AcDbBlockReference
  2
_CLOSEDFILLED
 10
-6551.0
 20
-121.0
 30
0.0
 41
3.0
 42
3.0
 50
90.0
  0
LINE
  5
1D2
330
1C9
100
AcDbEntity
  8
0
 62
4
100
AcDbLine
 10
-6551.0
 20
-158.0
 30
0.0
 11
-6551.0
 21
-146.0
 31
0.0
  0
LINE
  5
1D3
330
1C9
100
AcDbEntity
  8
0
 62
4
100
AcDbLine
 10
-6551.0
 20
-136.0
 30
0.0
 11
-6551.0
 21
-124.0
 31
0.0
  0
MTEXT
  5
1D4
330
1C9
100
AcDbEntity
  8
COTA
 62
4
100
AcDbMText
 10
-6551.0
 20
-141.0
 30
0.0
 40
5.0
 71
5
  1
40
 50
90.0
  0
POINT
  5
1D5
330
1C9
100
AcDbEntity
  8
Defpoints
100
AcDbPoint
 10
-6551.0
 20
-161.0
 30
0.0
  0
POINT
  5
1D6
330
1C9
100
AcDbEntity
  8
Defpoints
100
AcDbPoint
 10
-6589.0
 20
-161.0
 30
0.0
  0
POINT
  5
1D7
330
1C9
100
AcDbEntity
  8
Defpoints
100
AcDbPoint
 10
-6589.0
 20
-121.0
 30
0.0
  0
ENDBLK
  5
1CB
330
1C9
100
AcDbEntity
  8
0
100
AcDbBlockEnd
  0
BLOCK
  5
1DA
330
1D9
100
AcDbEntity
  8
0
100
AcDbBlockBegin
  2
*D18
 70
1
 10
0.0
 20
0.0
 30
0.0
  3
*D18
  1

  0
LINE
  5
1DC
330
1D9
100
AcDbEntity
  8
0
 62
4
100
AcDbLine
 10
-6588.0
 20
-121.0
 30
0.0
 11
-6550.0
 21
-121.0
 31
0.0
  0
LINE
  5
1DD
330
1D9
100
AcDbEntity
  8
0
 62
4
100
AcDbLine
 10
-6588.0
 20
-100.0
 30
0.0
 11
-6550.0
 21
-100.0
 31
0.0
  0
INSERT
  5
1DE
330
1D9
100
AcDbEntity
  8
COTA
 62
4
100
AcDbBlockReference
  2
_CLOSEDFILLED
 10
-6551.0
 20
-121.0
 30
0.0
 41
3.0
 42
3.0
 50
270.0
  0
INSERT
  5
1E0
330
1D9
100
AcDbEntity
  8
COTA
 62
4
100
AcDbBlockReference
  2
_CLOSEDFILLED
 10
-6551.0
 20
-100.0
 30
0.0
 41
3.0
 42
3.0
 50
90.0
  0
LINE
  5
1E2
330
1D9
100
AcDbEntity
  8
0
 62
4
100
AcDbLine
 10
-6551.0
 20
-118.0
 30
0.0
 11
-6551.0
 21
-115.5
 31
0.0
  0
LINE
  5
1E3
330
1D9
100
AcDbEntity
  8
0
 62
4
100
AcDbLine
 10
-6551.0
 20
-105.5
 30
0.0
 11
-6551.0
 21
-103.0
 31
0.0
  0
MTEXT
  5
1E4
330
1D9
100
AcDbEntity
  8
COTA
 62
4
100
AcDbMText
 10
-6551.0
 20
-110.5
 30
0.0
 40
5.0
 71
5
  1
21
 50
90.0
  0
POINT
  5
1E5
330
1D9
100
AcDbEntity
  8
Defpoints
100
AcDbPoint
 10
-6551.0
 20
-121.0
 30
0.0
  0
POINT
  5
1E6
330
1D9
100
AcDbEntity
  8
Defpoints
100
AcDbPoint
 10
-6589.0
 20
-121.0
 30
0.0
  0
POINT
  5
1E7
330
1D9
100
AcDbEntity
  8
Defpoints
100
AcDbPoint
 10
-6589.0
 20
-100.0
 30
0.0
  0
ENDBLK
  5
1DB
330
1D9
100
AcDbEntity
  8
0
100
AcDbBlockEnd
  0
BLOCK
  5
1EA
330
1E9
100
AcDbEntity
  8
0
100
AcDbBlockBegin
  2
*D19
 70
1
 10
0.0
 20
0.0
 30
0.0
  3
*D19
  1

  0
LINE
  5
1EC
330
1E9
100
AcDbEntity
  8
0
 62
4
100
AcDbLine
 10
-6677.0
 20
-422.0
 30
0.0
 11
-6677.0
 21
-441.0
 31
0.0
  0
LINE
  5
1ED
330
1E9
100
AcDbEntity
  8
0
 62
4
100
AcDbLine
 10
-6670.0
 20
-422.0
 30
0.0
 11
-6670.0
 21
-441.0
 31
0.0
  0
INSERT
  5
1EE
330
1E9
100
AcDbEntity
  8
COTA
 62
4
100
AcDbBlockReference
  2
_CLOSEDFILLED
 10
-6677.0
 20
-440.0
 30
0.0
 41
3.0
 42
3.0
 50
180.0
  0
INSERT
  5
1F0
330
1E9
100
AcDbEntity
  8
COTA
 62
4
100
AcDbBlockReference
  2
_CLOSEDFILLED
 10
-6670.0
 20
-440.0
 30
0.0
 41
3.0
 42
3.0
  0
LINE
  5
1F2
330
1E9
100
AcDbEntity
  8
0
 62
4
100
AcDbLine
 10
-6674.0
 20
-440.0
 30
0.0
 11
-6673.0
 21
-440.0
 31
0.0
  0
MTEXT
  5
1F3
330
1E9
100
AcDbEntity
  8
COTA
 62
4
100
AcDbMText
 10
-6673.5
 20
-435.5
 30
0.0
 40
5.0
 71
5
  1
7
  0
POINT
  5
1F4
330
1E9
100
AcDbEntity
  8
Defpoints
100
AcDbPoint
 10
-6677.0
 20
-440.0
 30
0.0
  0
POINT
  5
1F5
330
1E9
100
AcDbEntity
  8
Defpoints
100
AcDbPoint
 10
-6677.0
 20
-421.0
 30
0.0
  0
POINT
  5
1F6
330
1E9
100
AcDbEntity
  8
Defpoints
100
AcDbPoint
 10
-6670.0
 20
-421.0
 30
0.0
  0
ENDBLK
  5
1EB
330
1E9
100
AcDbEntity
  8
0
100
AcDbBlockEnd
  0
BLOCK
  5
1F9
330
1F8
100
AcDbEntity
  8
0
100
AcDbBlockBegin
  2
*D20
 70
1
 10
0.0
 20
0.0
 30
0.0
  3
*D20
  1

  0
LINE
  5
1FB
330
1F8
100
AcDbEntity
  8
0
 62
4
100
AcDbLine
 10
-6596.0
 20
-422.0
 30
0.0
 11
-6596.0
 21
-441.0
 31
0.0
  0
LINE
  5
1FC
330
1F8
100
AcDbEntity
  8
0
 62
4
100
AcDbLine
 10
-6589.0
 20
-422.0
 30
0.0
 11
-6589.0
 21
-441.0
 31
0.0
  0
INSERT
  5
1FD
330
1F8
100
AcDbEntity
  8
COTA
 62
4
100
AcDbBlockReference
  2
_CLOSEDFILLED
 10
-6596.0
 20
-440.0
 30
0.0
 41
3.0
 42
3.0
 50
180.0
  0
INSERT
  5
1FF
330
1F8
100
AcDbEntity
  8
COTA
 62
4
100
AcDbBlockReference
  2
_CLOSEDFILLED
 10
-6589.0
 20
-440.0
 30
0.0
 41
3.0
 42
3.0
  0
LINE
  5
201
330
1F8
100
AcDbEntity
  8
0
 62
4
100
AcDbLine
 10
-6593.0
 20
-440.0
 30
0.0
 11
-6592.0
 21
-440.0
 31
0.0
  0
MTEXT
  5
202
330
1F8
100
AcDbEntity
  8
COTA
 62
4
100
AcDbMText
 10
-6592.5
 20
-435.5
 30
0.0
 40
5.0
 71
5
  1
7
  0
POINT
  5
203
330
1F8
100
AcDbEntity
  8
Defpoints
100
AcDbPoint
 10
-6596.0
 20
-440.0
 30
0.0
  0
POINT
  5
204
330
1F8
100
AcDbEntity
  8
Defpoints
100
AcDbPoint
 10
-6596.0
 20
-421.0
 30
0.0
  0
POINT
  5
205
330
1F8
100
AcDbEntity
  8
Defpoints
100
AcDbPoint
 10
-6589.0
 20
-421.0
 30
0.0
  0
ENDBLK
  5
1FA
330
1F8
100
AcDbEntity
  8
0
100
AcDbBlockEnd
  0
BLOCK
  5
208
330
207
100
AcDbEntity
  8
0
100
AcDbBlockBegin
  2
*D21
 70
1
 10
0.0
 20
0.0
 30
0.0
  3
*D21
  1

  0
LINE
  5
20A
330
207
100
AcDbEntity
  8
0
 62
4
100
AcDbLine
 10
-6677.0
 20
-422.0
 30
0.0
 11
-6677.0
 21
-465.0
 31
0.0
  0
LINE
  5
20B
330
207
100
AcDbEntity
  8
0
 62
4
100
AcDbLine
 10
-6589.0
 20
-422.0
 30
0.0
 11
-6589.0
 21
-465.0
 31
0.0
  0
INSERT
  5
20C
330
207
100
AcDbEntity
  8
COTA
 62
4
100
AcDbBlockReference
  2
_CLOSEDFILLED
 10
-6677.0
 20
-464.0
 30
0.0
 41
3.0
 42
3.0
 50
180.0
  0
INSERT
  5
20E
330
207
100
AcDbEntity
  8
COTA
 62
4
100
AcDbBlockReference
  2
_CLOSEDFILLED
 10
-6589.0
 20
-464.0
 30
0.0
 41
3.0
 42
3.0
  0
LINE
  5
210
330
207
100
AcDbEntity
  8
0
 62
4
100
AcDbLine
 10
-6674.0
 20
-464.0
 30
0.0
 11
-6638.0
 21
-464.0
 31
0.0
  0
LINE
  5
211
330
207
100
AcDbEntity
  8
0
 62
4
100
AcDbLine
 10
-6628.0
 20
-464.0
 30
0.0
 11
-6592.0
 21
-464.0
 31
0.0
  0
MTEXT
  5
212
330
207
100
AcDbEntity
  8
COTA
 62
4
100
AcDbMText
 10
-6633.0
 20
-464.0
 30
0.0
 40
5.0
 71
5
  1
88
  0
POINT
  5
213
330
207
100
AcDbEntity
  8
Defpoints
100
AcDbPoint
 10
-6677.0
 20
-464.0
 30
0.0
  0
POINT
  5
214
330
207
100
AcDbEntity
  8
Defpoints
100
AcDbPoint
 10
-6677.0
 20
-421.0
 30
0.0
  0
POINT
  5
215
330
207
100
AcDbEntity
  8
Defpoints
100
AcDbPoint
 10
-6589.0
 20
-421.0
 30
0.0
  0
ENDBLK
  5
209
330
207
100
AcDbEntity
  8
0
100
AcDbBlockEnd
  0
BLOCK
  5
227
330
226
100
AcDbEntity
  8
0
100
AcDbBlockBegin
  2
*D22
 70
1
 10
0.0
 20
0.0
 30
0.0
  3
*D22
  1

  0
LINE
  5
229
330
226
100
AcDbEntity
  8
0
 62
4
100
AcDbLine
 10
-6435.0
 20
-421.0
 30
0.0
 11
-6416.0
 21
-421.0
 31
0.0
  0
LINE
  5
22A
330
226
100
AcDbEntity
  8
0
 62
4
100
AcDbLine
 10
-6435.0
 20
-421.0
 30
0.0
 11
-6416.0
 21
-421.0
 31
0.0
  0
INSERT
  5
22B
330
226
100
AcDbEntity
  8
COTA
 62
4
100
AcDbBlockReference
  2
_CLOSEDFILLED
 10
-6417.0
 20
-421.0
 30
0.0
 41
3.0
 42
3.0
 50
90.0
  0
INSERT
  5
22D
330
226
100
AcDbEntity
  8
COTA
 62
4
100
AcDbBlockReference
  2
_CLOSEDFILLED
 10
-6417.0
 20
-421.0
 30
0.0
 41
3.0
 42
3.0
 50
270.0
  0
LINE
  5
22F
330
226
100
AcDbEntity
  8
0
 62
4
100
AcDbLine
 10
-6417.0
 20
-424.0
 30
0.0
 11
-6417.0
 21
-427.0
 31
0.0
  0
LINE
  5
230
330
226
100
AcDbEntity
  8
0
 62
4
100
AcDbLine
 10
-6417.0
 20
-418.0
 30
0.0
 11
-6417.0
 21
-415.0
 31
0.0
  0
LINE
  5
231
330
226
100
AcDbEntity
  8
0
 62
4
100
AcDbLine
 10
-6417.0
 20
-421.0
 30
0.0
 11
-6417.0
 21
-421.0
 31
0.0
  0
MTEXT
  5
232
330
226
100
AcDbEntity
  8
COTA
 62
4
100
AcDbMText
 10
-6421.5
 20
-421.0
 30
0.0
 40
5.0
 71
5
  1
0
 50
90.0
  0
POINT
  5
233
330
226
100
AcDbEntity
  8
Defpoints
100
AcDbPoint
 10
-6417.0
 20
-421.0
 30
0.0
  0
POINT
  5
234
330
226
100
AcDbEntity
  8
Defpoints
100
AcDbPoint
 10
-6436.0
 20
-421.0
 30
0.0
  0
POINT
  5
235
330
226
100
AcDbEntity
  8
Defpoints
100
AcDbPoint
 10
-6436.0
 20
-421.0
 30
0.0
  0
ENDBLK
  5
228
330
226
100
AcDbEntity
  8
0
100
AcDbBlockEnd
  0
BLOCK
  5
238
330
237
100
AcDbEntity
  8
0
100
AcDbBlockBegin
  2
*D23
 70
1
 10
0.0
 20
0.0
 30
0.0
  3
*D23
  1

  0
LINE
  5
23A
330
237
100
AcDbEntity
  8
0
 62
4
100
AcDbLine
 10
-6435.0
 20
-421.0
 30
0.0
 11
-6397.0
 21
-421.0
 31
0.0
  0
LINE
  5
23B
330
237
100
AcDbEntity
  8
0
 62
4
100
AcDbLine
 10
-6435.0
 20
-299.0
 30
0.0
 11
-6397.0
 21
-299.0
 31
0.0
  0
INSERT
  5
23C
330
237
100
AcDbEntity
  8
COTA
 62
4
100
AcDbBlockReference
  2
_CLOSEDFILLED
 10
-6398.0
 20
-421.0
 30
0.0
 41
3.0
 42
3.0
 50
270.0
  0
INSERT
  5
23E
330
237
100
AcDbEntity
  8
COTA
 62
4
100
AcDbBlockReference
  2
_CLOSEDFILLED
 10
-6398.0
 20
-299.0
 30
0.0
 41
3.0
 42
3.0
 50
90.0
  0
LINE
  5
240
330
237
100
AcDbEntity
  8
0
 62
4
100
AcDbLine
 10
-6398.0
 20
-418.0
 30
0.0
 11
-6398.0
 21
-367.5
 31
0.0
  0
LINE
  5
241
330
237
100
AcDbEntity
  8
0
 62
4
100
AcDbLine
 10
-6398.0
 20
-352.5
 30
0.0
 11
-6398.0
 21
-302.0
 31
0.0
  0
MTEXT
  5
242
330
237
100
AcDbEntity
  8
COTA
 62
4
100
AcDbMText
 10
-6398.0
 20
-360.0
 30
0.0
 40
5.0
 71
5
  1
122
 50
90.0
  0
POINT
  5
243
330
237
100
AcDbEntity
  8
Defpoints
100
AcDbPoint
 10
-6398.0
 20
-421.0
 30
0.0
  0
POINT
  5
244
330
237
100
AcDbEntity
  8
Defpoints
100
AcDbPoint
 10
-6436.0
 20
-421.0
 30
0.0
  0
POINT
  5
245
330
237
100
AcDbEntity
  8
Defpoints
100
AcDbPoint
 10
-6436.0
 20
-299.0
 30
0.0
  0
ENDBLK
  5
239
330
237
100
AcDbEntity
  8
0
100
AcDbBlockEnd
  0
BLOCK
  5
248
330
247
100
AcDbEntity
  8
0
100
AcDbBlockBegin
  2
*D24
 70
1
 10
0.0
 20
0.0
 30
0.0
  3
*D24
  1

  0
LINE
  5
24A
330
247
100
AcDbEntity
  8
0
 62
4
100
AcDbLine
 10
-6435.0
 20
-299.0
 30
0.0
 11
-6397.0
 21
-299.0
 31
0.0
  0
LINE
  5
24B
330
247
100
AcDbEntity
  8
0
 62
4
100
AcDbLine
 10
-6435.0
 20
-273.0
 30
0.0
 11
-6397.0
 21
-273.0
 31
0.0
  0
INSERT
  5
24C
330
247
100
AcDbEntity
  8
COTA
 62
4
100
AcDbBlockReference
  2
_CLOSEDFILLED
 10
-6398.0
 20
-299.0
 30
0.0
 41
3.0
 42
3.0
 50
270.0
  0
INSERT
  5
24E
330
247
100
AcDbEntity
  8
COTA
 62
4
100
AcDbBlockReference
  2
_CLOSEDFILLED
 10
-6398.0
 20
-273.0
 30
0.0
 41
3.0
 42
3.0
 50
90.0
  0
LINE
  5
250
330
247
100
AcDbEntity
  8
0
 62
4
100
AcDbLine
 10
-6398.0
 20
-296.0
 30
0.0
 11
-6398.0
 21
-291.0
 31
0.0
  0
LINE
  5
251
330
247
100
AcDbEntity
  8
0
 62
4
100
AcDbLine
 10
-6398.0
 20
-281.0
 30
0.0
 11
-6398.0
 21
-276.0
 31
0.0
  0
MTEXT
  5
252
330
247
100
AcDbEntity
  8
COTA
 62
4
100
AcDbMText
 10
-6398.0
 20
-286.0
 30
0.0
 40
5.0
 71
5
  1
26
 50
90.0
  0
POINT
  5
253
330
247
100
AcDbEntity
  8
Defpoints
100
AcDbPoint
 10
-6398.0
 20
-299.0
 30
0.0
  0
POINT
  5
254
330
247
100
AcDbEntity
  8
Defpoints
100
AcDbPoint
 10
-6436.0
 20
-299.0
 30
0.0
  0
POINT
  5
255
330
247
100
AcDbEntity
  8
Defpoints
100
AcDbPoint
 10
-6436.0
 20
-273.0
 30
0.0
  0
ENDBLK
  5
249
330
247
100
AcDbEntity
  8
0
100
AcDbBlockEnd
  0
BLOCK
  5
258
330
257
100
AcDbEntity
  8
0
100
AcDbBlockBegin
  2
*D25
 70
1
 10
0.0
 20
0.0
 30
0.0
  3
*D25
  1

  0
LINE
  5
25A
330
257
100
AcDbEntity
  8
0
 62
4
100
AcDbLine
 10
-6435.0
 20
-273.0
 30
0.0
 11
-6397.0
 21
-273.0
 31
0.0
  0
LINE
  5
25B
330
257
100
AcDbEntity
  8
0
 62
4
100
AcDbLine
 10
-6435.0
 20
-258.0
 30
0.0
 11
-6397.0
 21
-258.0
 31
0.0
  0
INSERT
  5
25C
330
257
100
AcDbEntity
  8
COTA
 62
4
100
AcDbBlockReference
  2
_CLOSEDFILLED
 10
-6398.0
 20
-273.0
 30
0.0
 41
3.0
 42
3.0
 50
270.0
  0
INSERT
  5
25E
330
257
100
AcDbEntity
  8
COTA
 62
4
100
AcDbBlockReference
  2
_CLOSEDFILLED
 10
-6398.0
 20
-258.0
 30
0.0
 41
3.0
 42
3.0
 50
90.0
  0
LINE
  5
260
330
257
100
AcDbEntity
  8
0
 62
4
100
AcDbLine
 10
-6398.0
 20
-270.0
 30
0.0
 11
-6398.0
 21
-261.0
 31
0.0
  0
MTEXT
  5
261
330
257
100
AcDbEntity
  8
COTA
 62
4
100
AcDbMText
 10
-6402.5
 20
-265.5
 30
0.0
 40
5.0
 71
5
  1
15
 50
90.0
  0
POINT
  5
262
330
257
100
AcDbEntity
  8
Defpoints
100
AcDbPoint
 10
-6398.0
 20
-273.0
 30
0.0
  0
POINT
  5
263
330
257
100
AcDbEntity
  8
Defpoints
100
AcDbPoint
 10
-6436.0
 20
-273.0
 30
0.0
  0
POINT
  5
264
330
257
100
AcDbEntity
  8
Defpoints
100
AcDbPoint
 10
-6436.0
 20
-258.0
 30
0.0
  0
ENDBLK
  5
259
330
257
100
AcDbEntity
  8
0
100
AcDbBlockEnd
  0
BLOCK
  5
267
330
266
100
AcDbEntity
  8
0
100
AcDbBlockBegin
  2
*D26
 70
1
 10
0.0
 20
0.0
 30
0.0
  3
*D26
  1

  0
LINE
  5
269
330
266
100
AcDbEntity
  8
0
 62
4
100
AcDbLine
 10
-6435.0
 20
-258.0
 30
0.0
 11
-6397.0
 21
-258.0
 31
0.0
  0
LINE
  5
26A
330
266
100
AcDbEntity
  8
0
 62
4
100
AcDbLine
 10
-6435.0
 20
-202.0
 30
0.0
 11
-6397.0
 21
-202.0
 31
0.0
  0
INSERT
  5
26B
330
266
100
AcDbEntity
  8
COTA
 62
4
100
AcDbBlockReference
  2
_CLOSEDFILLED
 10
-6398.0
 20
-258.0
 30
0.0
 41
3.0
 42
3.0
 50
270.0
  0
INSERT
  5
26D
330
266
100
AcDbEntity
  8
COTA
 62
4
100
AcDbBlockReference
  2
_CLOSEDFILLED
 10
-6398.0
 20
-202.0
 30
0.0
 41
3.0
 42
3.0
 50
90.0
  0
LINE
  5
26F
330
266
100
AcDbEntity
  8
0
 62
4
100
AcDbLine
 10
-6398.0
 20
-255.0
 30
0.0
 11
-6398.0
 21
-235.0
 31
0.0
  0
LINE
  5
270
330
266
100
AcDbEntity
  8
0
 62
4
100
AcDbLine
 10
-6398.0
 20
-225.0
 30
0.0
 11
-6398.0
 21
-205.0
 31
0.0
  0
MTEXT
  5
271
330
266
100
AcDbEntity
  8
COTA
 62
4
100
AcDbMText
 10
-6398.0
 20
-230.0
 30
0.0
 40
5.0
 71
5
  1
56
 50
90.0
  0
POINT
  5
272
330
266
100
AcDbEntity
  8
Defpoints
100
AcDbPoint
 10
-6398.0
 20
-258.0
 30
0.0
  0
POINT
  5
273
330
266
100
AcDbEntity
  8
Defpoints
100
AcDbPoint
 10
-6436.0
 20
-258.0
 30
0.0
  0
POINT
  5
274
330
266
100
AcDbEntity
  8
Defpoints
100
AcDbPoint
 10
-6436.0
 20
-202.0
 30
0.0
  0
ENDBLK
  5
268
330
266
100
AcDbEntity
  8
0
100
AcDbBlockEnd
  0
BLOCK
  5
277
330
276
100
AcDbEntity
  8
0
100
AcDbBlockBegin
  2
*D27
 70
1
 10
0.0
 20
0.0
 30
0.0
  3
*D27
  1

  0
LINE
  5
279
330
276
100
AcDbEntity
  8
0
 62
4
100
AcDbLine
 10
-6435.0
 20
-202.0
 30
0.0
 11
-6397.0
 21
-202.0
 31
0.0
  0
LINE
  5
27A
330
276
100
AcDbEntity
  8
0
 62
4
100
AcDbLine
 10
-6435.0
 20
-176.0
 30
0.0
 11
-6397.0
 21
-176.0
 31
0.0
  0
INSERT
  5
27B
330
276
100
AcDbEntity
  8
COTA
 62
4
100
AcDbBlockReference
  2
_CLOSEDFILLED
 10
-6398.0
 20
-202.0
 30
0.0
 41
3.0
 42
3.0
 50
270.0
  0
INSERT
  5
27D
330
276
100
AcDbEntity
  8
COTA
 62
4
100
AcDbBlockReference
  2
_CLOSEDFILLED
 10
-6398.0
 20
-176.0
 30
0.0
 41
3.0
 42
3.0
 50
90.0
  0
LINE
  5
27F
330
276
100
AcDbEntity
  8
0
 62
4
100
AcDbLine
 10
-6398.0
 20
-199.0
 30
0.0
 11
-6398.0
 21
-194.0
 31
0.0
  0
LINE
  5
280
330
276
100
AcDbEntity
  8
0
 62
4
100
AcDbLine
 10
-6398.0
 20
-184.0
 30
0.0
 11
-6398.0
 21
-179.0
 31
0.0
  0
MTEXT
  5
281
330
276
100
AcDbEntity
  8
COTA
 62
4
100
AcDbMText
 10
-6398.0
 20
-189.0
 30
0.0
 40
5.0
 71
5
  1
26
 50
90.0
  0
POINT
  5
282
330
276
100
AcDbEntity
  8
Defpoints
100
AcDbPoint
 10
-6398.0
 20
-202.0
 30
0.0
  0
POINT
  5
283
330
276
100
AcDbEntity
  8
Defpoints
100
AcDbPoint
 10
-6436.0
 20
-202.0
 30
0.0
  0
POINT
  5
284
330
276
100
AcDbEntity
  8
Defpoints
100
AcDbPoint
 10
-6436.0
 20
-176.0
 30
0.0
  0
ENDBLK
  5
278
330
276
100
AcDbEntity
  8
0
100
AcDbBlockEnd
  0
BLOCK
  5
287
330
286
100
AcDbEntity
  8
0
100
AcDbBlockBegin
  2
*D28
 70
1
 10
0.0
 20
0.0
 30
0.0
  3
*D28
  1

  0
LINE
  5
289
330
286
100
AcDbEntity
  8
0
 62
4
100
AcDbLine
 10
-6435.0
 20
-176.0
 30
0.0
 11
-6397.0
 21
-176.0
 31
0.0
  0
LINE
  5
28A
330
286
100
AcDbEntity
  8
0
 62
4
100
AcDbLine
 10
-6435.0
 20
-161.0
 30
0.0
 11
-6397.0
 21
-161.0
 31
0.0
  0
INSERT
  5
28B
330
286
100
AcDbEntity
  8
COTA
 62
4
100
AcDbBlockReference
  2
_CLOSEDFILLED
 10
-6398.0
 20
-176.0
 30
0.0
 41
3.0
 42
3.0
 50
270.0
  0
INSERT
  5
28D
330
286
100
AcDbEntity
  8
COTA
 62
4
100
AcDbBlockReference
  2
_CLOSEDFILLED
 10
-6398.0
 20
-161.0
 30
0.0
 41
3.0
 42
3.0
 50
90.0
  0
LINE
  5
28F
330
286
100
AcDbEntity
  8
0
 62
4
100
AcDbLine
 10
-6398.0
 20
-173.0
 30
0.0
 11
-6398.0
 21
-164.0
 31
0.0
  0
MTEXT
  5
290
330
286
100
AcDbEntity
  8
COTA
 62
4
100
AcDbMText
 10
-6402.5
 20
-168.5
 30
0.0
 40
5.0
 71
5
  1
15
 50
90.0
  0
POINT
  5
291
330
286
100
AcDbEntity
  8
Defpoints
100
AcDbPoint
 10
-6398.0
 20
-176.0
 30
0.0
  0
POINT
  5
292
330
286
100
AcDbEntity
  8
Defpoints
100
AcDbPoint
 10
-6436.0
 20
-176.0
 30
0.0
  0
POINT
  5
293
330
286
100
AcDbEntity
  8
Defpoints
100
AcDbPoint
 10
-6436.0
 20
-161.0
 30
0.0
  0
ENDBLK
  5
288
330
286
100
AcDbEntity
  8
0
100
AcDbBlockEnd
  0
BLOCK
  5
296
330
295
100
AcDbEntity
  8
0
100
AcDbBlockBegin
  2
*D29
 70
1
 10
0.0
 20
0.0
 30
0.0
  3
*D29
  1

  0
LINE
  5
298
330
295
100
AcDbEntity
  8
0
 62
4
100
AcDbLine
 10
-6435.0
 20
-161.0
 30
0.0
 11
-6397.0
 21
-161.0
 31
0.0
  0
LINE
  5
299
330
295
100
AcDbEntity
  8
0
 62
4
100
AcDbLine
 10
-6435.0
 20
-100.0
 30
0.0
 11
-6397.0
 21
-100.0
 31
0.0
  0
INSERT
  5
29A
330
295
100
AcDbEntity
  8
COTA
 62
4
100
AcDbBlockReference
  2
_CLOSEDFILLED
 10
-6398.0
 20
-161.0
 30
0.0
 41
3.0
 42
3.0
 50
270.0
  0
INSERT
  5
29C
330
295
100
AcDbEntity
  8
COTA
 62
4
100
AcDbBlockReference
  2
_CLOSEDFILLED
 10
-6398.0
 20
-100.0
 30
0.0
 41
3.0
 42
3.0
 50
90.0
  0
LINE
  5
29E
330
295
100
AcDbEntity
  8
0
 62
4
100
AcDbLine
 10
-6398.0
 20
-158.0
 30
0.0
 11
-6398.0
 21
-135.5
 31
0.0
  0
LINE
  5
29F
330
295
100
AcDbEntity
  8
0
 62
4
100
AcDbLine
 10
-6398.0
 20
-125.5
 30
0.0
 11
-6398.0
 21
-103.0
 31
0.0
  0
MTEXT
  5
2A0
330
295
100
AcDbEntity
  8
COTA
 62
4
100
AcDbMText
 10
-6398.0
 20
-130.5
 30
0.0
 40
5.0
 71
5
  1
61
 50
90.0
  0
POINT
  5
2A1
330
295
100
AcDbEntity
  8
Defpoints
100
AcDbPoint
 10
-6398.0
 20
-161.0
 30
0.0
  0
POINT
  5
2A2
330
295
100
AcDbEntity
  8
Defpoints
100
AcDbPoint
 10
-6436.0
 20
-161.0
 30
0.0
  0
POINT
  5
2A3
330
295
100
AcDbEntity
  8
Defpoints
100
AcDbPoint
 10
-6436.0
 20
-100.0
 30
0.0
  0
ENDBLK
  5
297
330
295
100
AcDbEntity
  8
0
100
AcDbBlockEnd
  0
BLOCK
  5
2A6
330
2A5
100
AcDbEntity
  8
0
100
AcDbBlockBegin
  2
*D30
 70
1
 10
0.0
 20
0.0
 30
0.0
  3
*D30
  1

  0
LINE
  5
2A8
330
2A5
100
AcDbEntity
  8
0
 62
4
100
AcDbLine
 10
-6460.0
 20
-422.0
 30
0.0
 11
-6460.0
 21
-441.0
 31
0.0
  0
LINE
  5
2A9
330
2A5
100
AcDbEntity
  8
0
 62
4
100
AcDbLine
 10
-6453.0
 20
-422.0
 30
0.0
 11
-6453.0
 21
-441.0
 31
0.0
  0
INSERT
  5
2AA
330
2A5
100
AcDbEntity
  8
COTA
 62
4
100
AcDbBlockReference
  2
_CLOSEDFILLED
 10
-6460.0
 20
-440.0
 30
0.0
 41
3.0
 42
3.0
 50
180.0
  0
INSERT
  5
2AC
330
2A5
100
AcDbEntity
  8
COTA
 62
4
100
AcDbBlockReference
  2
_CLOSEDFILLED
 10
-6453.0
 20
-440.0
 30
0.0
 41
3.0
 42
3.0
  0
LINE
  5
2AE
330
2A5
100
AcDbEntity
  8
0
 62
4
100
AcDbLine
 10
-6457.0
 20
-440.0
 30
0.0
 11
-6456.0
 21
-440.0
 31
0.0
  0
MTEXT
  5
2AF
330
2A5
100
AcDbEntity
  8
COTA
 62
4
100
AcDbMText
 10
-6456.5
 20
-435.5
 30
0.0
 40
5.0
 71
5
  1
7
  0
POINT
  5
2B0
330
2A5
100
AcDbEntity
  8
Defpoints
100
AcDbPoint
 10
-6460.0
 20
-440.0
 30
0.0
  0
POINT
  5
2B1
330
2A5
100
AcDbEntity
  8
Defpoints
100
AcDbPoint
 10
-6460.0
 20
-421.0
 30
0.0
  0
POINT
  5
2B2
330
2A5
100
AcDbEntity
  8
Defpoints
100
AcDbPoint
 10
-6453.0
 20
-421.0
 30
0.0
  0
ENDBLK
  5
2A7
330
2A5
100
AcDbEntity
  8
0
100
AcDbBlockEnd
  0
BLOCK
  5
2B5
330
2B4
100
AcDbEntity
  8
0
100
AcDbBlockBegin
  2
*D31
 70
1
 10
0.0
 20
0.0
 30
0.0
  3
*D31
  1

  0
LINE
  5
2B7
330
2B4
100
AcDbEntity
  8
0
 62
4
100
AcDbLine
 10
-6443.0
 20
-422.0
 30
0.0
 11
-6443.0
 21
-441.0
 31
0.0
  0
LINE
  5
2B8
330
2B4
100
AcDbEntity
  8
0
 62
4
100
AcDbLine
 10
-6436.0
 20
-422.0
 30
0.0
 11
-6436.0
 21
-441.0
 31
0.0
  0
INSERT
  5
2B9
330
2B4
100
AcDbEntity
  8
COTA
 62
4
100
AcDbBlockReference
  2
_CLOSEDFILLED
 10
-6443.0
 20
-440.0
 30
0.0
 41
3.0
 42
3.0
 50
180.0
  0
INSERT
  5
2BB
330
2B4
100
AcDbEntity
  8
COTA
 62
4
100
AcDbBlockReference
  2
_CLOSEDFILLED
 10
-6436.0
 20
-440.0
 30
0.0
 41
3.0
 42
3.0
  0
LINE
  5
2BD
330
2B4
100
AcDbEntity
  8
0
 62
4
100
AcDbLine
 10
-6440.0
 20
-440.0
 30
0.0
 11
-6439.0
 21
-440.0
 31
0.0
  0
MTEXT
  5
2BE
330
2B4
100
AcDbEntity
  8
COTA
 62
4
100
AcDbMText
 10
-6439.5
 20
-435.5
 30
0.0
 40
5.0
 71
5
  1
7
  0
POINT
  5
2BF
330
2B4
100
AcDbEntity
  8
Defpoints
100
AcDbPoint
 10
-6443.0
 20
-440.0
 30
0.0
  0
POINT
  5
2C0
330
2B4
100
AcDbEntity
  8
Defpoints
100
AcDbPoint
 10
-6443.0
 20
-421.0
 30
0.0
  0
POINT
  5
2C1
330
2B4
100
AcDbEntity
  8
Defpoints
100
AcDbPoint
 10
-6436.0
 20
-421.0
 30
0.0
  0
ENDBLK
  5
2B6
330
2B4
100
AcDbEntity
  8
0
100
AcDbBlockEnd
  0
BLOCK
  5
2C4
330
2C3
100
AcDbEntity
  8
0
100
AcDbBlockBegin
  2
*D32
 70
1
 10
0.0
 20
0.0
 30
0.0
  3
*D32
  1

  0
LINE
  5
2C6
330
2C3
100
AcDbEntity
  8
0
 62
4
100
AcDbLine
 10
-6460.0
 20
-422.0
 30
0.0
 11
-6460.0
 21
-465.0
 31
0.0
  0
LINE
  5
2C7
330
2C3
100
AcDbEntity
  8
0
 62
4
100
AcDbLine
 10
-6436.0
 20
-422.0
 30
0.0
 11
-6436.0
 21
-465.0
 31
0.0
  0
INSERT
  5
2C8
330
2C3
100
AcDbEntity
  8
COTA
 62
4
100
AcDbBlockReference
  2
_CLOSEDFILLED
 10
-6460.0
 20
-464.0
 30
0.0
 41
3.0
 42
3.0
 50
180.0
  0
INSERT
  5
2CA
330
2C3
100
AcDbEntity
  8
COTA
 62
4
100
AcDbBlockReference
  2
_CLOSEDFILLED
 10
-6436.0
 20
-464.0
 30
0.0
 41
3.0
 42
3.0
  0
LINE
  5
2CC
330
2C3
100
AcDbEntity
  8
0
 62
4
100
AcDbLine
 10
-6457.0
 20
-464.0
 30
0.0
 11
-6453.0
 21
-464.0
 31
0.0
  0
LINE
  5
2CD
330
2C3
100
AcDbEntity
  8
0
 62
4
100
AcDbLine
 10
-6443.0
 20
-464.0
 30
0.0
 11
-6439.0
 21
-464.0
 31
0.0
  0
MTEXT
  5
2CE
330
2C3
100
AcDbEntity
  8
COTA
 62
4
100
AcDbMText
 10
-6448.0
 20
-464.0
 30
0.0
 40
5.0
 71
5
  1
24
  0
POINT
  5
2CF
330
2C3
100
AcDbEntity
  8
Defpoints
100
AcDbPoint
 10
-6460.0
 20
-464.0
 30
0.0
  0
POINT
  5
2D0
330
2C3
100
AcDbEntity
  8
Defpoints
100
AcDbPoint
 10
-6460.0
 20
-421.0
 30
0.0
  0
POINT
  5
2D1
330
2C3
100
AcDbEntity
  8
Defpoints
100
AcDbPoint
 10
-6436.0
 20
-421.0
 30
0.0
  0
ENDBLK
  5
2C5
330
2C3
100
AcDbEntity
  8
0
100
AcDbBlockEnd
  0
BLOCK
  5
2E0
330
2DF
100
AcDbEntity
  8
0
100
AcDbBlockBegin
  2
*D33
 70
1
 10
0.0
 20
0.0
 30
0.0
  3
*D33
  1

  0
LINE
  5
2E2
330
2DF
100
AcDbEntity
  8
0
 62
4
100
AcDbLine
 10
-6282.0
 20
-421.0
 30
0.0
 11
-6263.0
 21
-421.0
 31
0.0
  0
LINE
  5
2E3
330
2DF
100
AcDbEntity
  8
0
 62
4
100
AcDbLine
 10
-6282.0
 20
-421.0
 30
0.0
 11
-6263.0
 21
-421.0
 31
0.0
  0
INSERT
  5
2E4
330
2DF
100
AcDbEntity
  8
COTA
 62
4
100
AcDbBlockReference
  2
_CLOSEDFILLED
 10
-6264.0
 20
-421.0
 30
0.0
 41
3.0
 42
3.0
 50
90.0
  0
INSERT
  5
2E6
330
2DF
100
AcDbEntity
  8
COTA
 62
4
100
AcDbBlockReference
  2
_CLOSEDFILLED
 10
-6264.0
 20
-421.0
 30
0.0
 41
3.0
 42
3.0
 50
270.0
  0
LINE
  5
2E8
330
2DF
100
AcDbEntity
  8
0
 62
4
100
AcDbLine
 10
-6264.0
 20
-424.0
 30
0.0
 11
-6264.0
 21
-427.0
 31
0.0
  0
LINE
  5
2E9
330
2DF
100
AcDbEntity
  8
0
 62
4
100
AcDbLine
 10
-6264.0
 20
-418.0
 30
0.0
 11
-6264.0
 21
-415.0
 31
0.0
  0
LINE
  5
2EA
330
2DF
100
AcDbEntity
  8
0
 62
4
100
AcDbLine
 10
-6264.0
 20
-421.0
 30
0.0
 11
-6264.0
 21
-421.0
 31
0.0
  0
MTEXT
  5
2EB
330
2DF
100
AcDbEntity
  8
COTA
 62
4
100
AcDbMText
 10
-6268.5
 20
-421.0
 30
0.0
 40
5.0
 71
5
  1
0
 50
90.0
  0
POINT
  5
2EC
330
2DF
100
AcDbEntity
  8
Defpoints
100
AcDbPoint
 10
-6264.0
 20
-421.0
 30
0.0
  0
POINT
  5
2ED
330
2DF
100
AcDbEntity
  8
Defpoints
100
AcDbPoint
 10
-6283.0
 20
-421.0
 30
0.0
  0
POINT
  5
2EE
330
2DF
100
AcDbEntity
  8
Defpoints
100
AcDbPoint
 10
-6283.0
 20
-421.0
 30
0.0
  0
ENDBLK
  5
2E1
330
2DF
100
AcDbEntity
  8
0
100
AcDbBlockEnd
  0
BLOCK
  5
2F1
330
2F0
100
AcDbEntity
  8
0
100
AcDbBlockBegin
  2
*D34
 70
1
 10
0.0
 20
0.0
 30
0.0
  3
*D34
  1

  0
LINE
  5
2F3
330
2F0
100
AcDbEntity
  8
0
 62
4
100
AcDbLine
 10
-6282.0
 20
-421.0
 30
0.0
 11
-6244.0
 21
-421.0
 31
0.0
  0
LINE
  5
2F4
330
2F0
100
AcDbEntity
  8
0
 62
4
100
AcDbLine
 10
-6282.0
 20
-202.0
 30
0.0
 11
-6244.0
 21
-202.0
 31
0.0
  0
INSERT
  5
2F5
330
2F0
100
AcDbEntity
  8
COTA
 62
4
100
AcDbBlockReference
  2
_CLOSEDFILLED
 10
-6245.0
 20
-421.0
 30
0.0
 41
3.0
 42
3.0
 50
270.0
  0
INSERT
  5
2F7
330
2F0
100
AcDbEntity
  8
COTA
 62
4
100
AcDbBlockReference
  2
_CLOSEDFILLED
 10
-6245.0
 20
-202.0
 30
0.0
 41
3.0
 42
3.0
 50
90.0
  0
LINE
  5
2F9
330
2F0
100
AcDbEntity
  8
0
 62
4
100
AcDbLine
 10
-6245.0
 20
-418.0
 30
0.0
 11
-6245.0
 21
-319.0
 31
0.0
  0
LINE
  5
2FA
330
2F0
100
AcDbEntity
  8
0
 62
4
100
AcDbLine
 10
-6245.0
 20
-304.0
 30
0.0
 11
-6245.0
 21
-205.0
 31
0.0
  0
MTEXT
  5
2FB
330
2F0
100
AcDbEntity
  8
COTA
 62
4
100
AcDbMText
 10
-6245.0
 20
-311.5
 30
0.0
 40
5.0
 71
5
  1
219
 50
90.0
  0
POINT
  5
2FC
330
2F0
100
AcDbEntity
  8
Defpoints
100
AcDbPoint
 10
-6245.0
 20
-421.0
 30
0.0
  0
POINT
  5
2FD
330
2F0
100
AcDbEntity
  8
Defpoints
100
AcDbPoint
 10
-6283.0
 20
-421.0
 30
0.0
  0
POINT
  5
2FE
330
2F0
100
AcDbEntity
  8
Defpoints
100
AcDbPoint
 10
-6283.0
 20
-202.0
 30
0.0
  0
ENDBLK
  5
2F2
330
2F0
100
AcDbEntity
  8
0
100
AcDbBlockEnd
  0
BLOCK
  5
301
330
300
100
AcDbEntity
  8
0
100
AcDbBlockBegin
  2
*D35
 70
1
 10
0.0
 20
0.0
 30
0.0
  3
*D35
  1

  0
LINE
  5
303
330
300
100
AcDbEntity
  8
0
 62
4
100
AcDbLine
 10
-6282.0
 20
-202.0
 30
0.0
 11
-6244.0
 21
-202.0
 31
0.0
  0
LINE
  5
304
330
300
100
AcDbEntity
  8
0
 62
4
100
AcDbLine
 10
-6282.0
 20
-176.0
 30
0.0
 11
-6244.0
 21
-176.0
 31
0.0
  0
INSERT
  5
305
330
300
100
AcDbEntity
  8
COTA
 62
4
100
AcDbBlockReference
  2
_CLOSEDFILLED
 10
-6245.0
 20
-202.0
 30
0.0
 41
3.0
 42
3.0
 50
270.0
  0
INSERT
  5
307
330
300
100
AcDbEntity
  8
COTA
 62
4
100
AcDbBlockReference
  2
_CLOSEDFILLED
 10
-6245.0
 20
-176.0
 30
0.0
 41
3.0
 42
3.0
 50
90.0
  0
LINE
  5
309
330
300
100
AcDbEntity
  8
0
 62
4
100
AcDbLine
 10
-6245.0
 20
-199.0
 30
0.0
 11
-6245.0
 21
-194.0
 31
0.0
  0
LINE
  5
30A
330
300
100
AcDbEntity
  8
0
 62
4
100
AcDbLine
 10
-6245.0
 20
-184.0
 30
0.0
 11
-6245.0
 21
-179.0
 31
0.0
  0
MTEXT
  5
30B
330
300
100
AcDbEntity
  8
COTA
 62
4
100
AcDbMText
 10
-6245.0
 20
-189.0
 30
0.0
 40
5.0
 71
5
  1
26
 50
90.0
  0
POINT
  5
30C
330
300
100
AcDbEntity
  8
Defpoints
100
AcDbPoint
 10
-6245.0
 20
-202.0
 30
0.0
  0
POINT
  5
30D
330
300
100
AcDbEntity
  8
Defpoints
100
AcDbPoint
 10
-6283.0
 20
-202.0
 30
0.0
  0
POINT
  5
30E
330
300
100
AcDbEntity
  8
Defpoints
100
AcDbPoint
 10
-6283.0
 20
-176.0
 30
0.0
  0
ENDBLK
  5
302
330
300
100
AcDbEntity
  8
0
100
AcDbBlockEnd
  0
BLOCK
  5
311
330
310
100
AcDbEntity
  8
0
100
AcDbBlockBegin
  2
*D36
 70
1
 10
0.0
 20
0.0
 30
0.0
  3
*D36
  1

  0
LINE
  5
313
330
310
100
AcDbEntity
  8
0
 62
4
100
AcDbLine
 10
-6282.0
 20
-176.0
 30
0.0
 11
-6244.0
 21
-176.0
 31
0.0
  0
LINE
  5
314
330
310
100
AcDbEntity
  8
0
 62
4
100
AcDbLine
 10
-6282.0
 20
-161.0
 30
0.0
 11
-6244.0
 21
-161.0
 31
0.0
  0
INSERT
  5
315
330
310
100
AcDbEntity
  8
COTA
 62
4
100
AcDbBlockReference
  2
_CLOSEDFILLED
 10
-6245.0
 20
-176.0
 30
0.0
 41
3.0
 42
3.0
 50
270.0
  0
INSERT
  5
317
330
310
100
AcDbEntity
  8
COTA
 62
4
100
AcDbBlockReference
  2
_CLOSEDFILLED
 10
-6245.0
 20
-161.0
 30
0.0
 41
3.0
 42
3.0
 50
90.0
  0
LINE
  5
319
330
310
100
AcDbEntity
  8
0
 62
4
100
AcDbLine
 10
-6245.0
 20
-173.0
 30
0.0
 11
-6245.0
 21
-164.0
 31
0.0
  0
MTEXT
  5
31A
330
310
100
AcDbEntity
  8
COTA
 62
4
100
AcDbMText
 10
-6249.5
 20
-168.5
 30
0.0
 40
5.0
 71
5
  1
15
 50
90.0
  0
POINT
  5
31B
330
310
100
AcDbEntity
  8
Defpoints
100
AcDbPoint
 10
-6245.0
 20
-176.0
 30
0.0
  0
POINT
  5
31C
330
310
100
AcDbEntity
  8
Defpoints
100
AcDbPoint
 10
-6283.0
 20
-176.0
 30
0.0
  0
POINT
  5
31D
330
310
100
AcDbEntity
  8
Defpoints
100
AcDbPoint
 10
-6283.0
 20
-161.0
 30
0.0
  0
ENDBLK
  5
312
330
310
100
AcDbEntity
  8
0
100
AcDbBlockEnd
  0
BLOCK
  5
320
330
31F
100
AcDbEntity
  8
0
100
AcDbBlockBegin
  2
*D37
 70
1
 10
0.0
 20
0.0
 30
0.0
  3
*D37
  1

  0
LINE
  5
322
330
31F
100
AcDbEntity
  8
0
 62
4
100
AcDbLine
 10
-6282.0
 20
-161.0
 30
0.0
 11
-6244.0
 21
-161.0
 31
0.0
  0
LINE
  5
323
330
31F
100
AcDbEntity
  8
0
 62
4
100
AcDbLine
 10
-6282.0
 20
-100.0
 30
0.0
 11
-6244.0
 21
-100.0
 31
0.0
  0
INSERT
  5
324
330
31F
100
AcDbEntity
  8
COTA
 62
4
100
AcDbBlockReference
  2
_CLOSEDFILLED
 10
-6245.0
 20
-161.0
 30
0.0
 41
3.0
 42
3.0
 50
270.0
  0
INSERT
  5
326
330
31F
100
AcDbEntity
  8
COTA
 62
4
100
AcDbBlockReference
  2
_CLOSEDFILLED
 10
-6245.0
 20
-100.0
 30
0.0
 41
3.0
 42
3.0
 50
90.0
  0
LINE
  5
328
330
31F
100
AcDbEntity
  8
0
 62
4
100
AcDbLine
 10
-6245.0
 20
-158.0
 30
0.0
 11
-6245.0
 21
-135.5
 31
0.0
  0
LINE
  5
329
330
31F
100
AcDbEntity
  8
0
 62
4
100
AcDbLine
 10
-6245.0
 20
-125.5
 30
0.0
 11
-6245.0
 21
-103.0
 31
0.0
  0
MTEXT
  5
32A
330
31F
100
AcDbEntity
  8
COTA
 62
4
100
AcDbMText
 10
-6245.0
 20
-130.5
 30
0.0
 40
5.0
 71
5
  1
61
 50
90.0
  0
POINT
  5
32B
330
31F
100
AcDbEntity
  8
Defpoints
100
AcDbPoint
 10
-6245.0
 20
-161.0
 30
0.0
  0
POINT
  5
32C
330
31F
100
AcDbEntity
  8
Defpoints
100
AcDbPoint
 10
-6283.0
 20
-161.0
 30
0.0
  0
POINT
  5
32D
330
31F
100
AcDbEntity
  8
Defpoints
100
AcDbPoint
 10
-6283.0
 20
-100.0
 30
0.0
  0
ENDBLK
  5
321
330
31F
100
AcDbEntity
  8
0
100
AcDbBlockEnd
  0
BLOCK
  5
330
330
32F
100
AcDbEntity
  8
0
100
AcDbBlockBegin
  2
*D38
 70
1
 10
0.0
 20
0.0
 30
0.0
  3
*D38
  1

  0
LINE
  5
332
330
32F
100
AcDbEntity
  8
0
 62
4
100
AcDbLine
 10
-6307.0
 20
-422.0
 30
0.0
 11
-6307.0
 21
-441.0
 31
0.0
  0
LINE
  5
333
330
32F
100
AcDbEntity
  8
0
 62
4
100
AcDbLine
 10
-6300.0
 20
-422.0
 30
0.0
 11
-6300.0
 21
-441.0
 31
0.0
  0
INSERT
  5
334
330
32F
100
AcDbEntity
  8
COTA
 62
4
100
AcDbBlockReference
  2
_CLOSEDFILLED
 10
-6307.0
 20
-440.0
 30
0.0
 41
3.0
 42
3.0
 50
180.0
  0
INSERT
  5
336
330
32F
100
AcDbEntity
  8
COTA
 62
4
100
AcDbBlockReference
  2
_CLOSEDFILLED
 10
-6300.0
 20
-440.0
 30
0.0
 41
3.0
 42
3.0
  0
LINE
  5
338
330
32F
100
AcDbEntity
  8
0
 62
4
100
AcDbLine
 10
-6304.0
 20
-440.0
 30
0.0
 11
-6303.0
 21
-440.0
 31
0.0
  0
MTEXT
  5
339
330
32F
100
AcDbEntity
  8
COTA
 62
4
100
AcDbMText
 10
-6303.5
 20
-435.5
 30
0.0
 40
5.0
 71
5
  1
7
  0
POINT
  5
33A
330
32F
100
AcDbEntity
  8
Defpoints
100
AcDbPoint
 10
-6307.0
 20
-440.0
 30
0.0
  0
POINT
  5
33B
330
32F
100
AcDbEntity
  8
Defpoints
100
AcDbPoint
 10
-6307.0
 20
-421.0
 30
0.0
  0
POINT
  5
33C
330
32F
100
AcDbEntity
  8
Defpoints
100
AcDbPoint
 10
-6300.0
 20
-421.0
 30
0.0
  0
ENDBLK
  5
331
330
32F
100
AcDbEntity
  8
0
100
AcDbBlockEnd
  0
BLOCK
  5
33F
330
33E
100
AcDbEntity
  8
0
100
AcDbBlockBegin
  2
*D39
 70
1
 10
0.0
 20
0.0
 30
0.0
  3
*D39
  1

  0
LINE
  5
341
330
33E
100
AcDbEntity
  8
0
 62
4
100
AcDbLine
 10
-6290.0
 20
-422.0
 30
0.0
 11
-6290.0
 21
-441.0
 31
0.0
  0
LINE
  5
342
330
33E
100
AcDbEntity
  8
0
 62
4
100
AcDbLine
 10
-6283.0
 20
-422.0
 30
0.0
 11
-6283.0
 21
-441.0
 31
0.0
  0
INSERT
  5
343
330
33E
100
AcDbEntity
  8
COTA
 62
4
100
AcDbBlockReference
  2
_CLOSEDFILLED
 10
-6290.0
 20
-440.0
 30
0.0
 41
3.0
 42
3.0
 50
180.0
  0
INSERT
  5
345
330
33E
100
AcDbEntity
  8
COTA
 62
4
100
AcDbBlockReference
  2
_CLOSEDFILLED
 10
-6283.0
 20
-440.0
 30
0.0
 41
3.0
 42
3.0
  0
LINE
  5
347
330
33E
100
AcDbEntity
  8
0
 62
4
100
AcDbLine
 10
-6287.0
 20
-440.0
 30
0.0
 11
-6286.0
 21
-440.0
 31
0.0
  0
MTEXT
  5
348
330
33E
100
AcDbEntity
  8
COTA
 62
4
100
AcDbMText
 10
-6286.5
 20
-435.5
 30
0.0
 40
5.0
 71
5
  1
7
  0
POINT
  5
349
330
33E
100
AcDbEntity
  8
Defpoints
100
AcDbPoint
 10
-6290.0
 20
-440.0
 30
0.0
  0
POINT
  5
34A
330
33E
100
AcDbEntity
  8
Defpoints
100
AcDbPoint
 10
-6290.0
 20
-421.0
 30
0.0
  0
POINT
  5
34B
330
33E
100
AcDbEntity
  8
Defpoints
100
AcDbPoint
 10
-6283.0
 20
-421.0
 30
0.0
  0
ENDBLK
  5
340
330
33E
100
AcDbEntity
  8
0
100
AcDbBlockEnd
  0
BLOCK
  5
34E
330
34D
100
AcDbEntity
  8
0
100
AcDbBlockBegin
  2
*D40
 70
1
 10
0.0
 20
0.0
 30
0.0
  3
*D40
  1

  0
LINE
  5
350
330
34D
100
AcDbEntity
  8
0
 62
4
100
AcDbLine
 10
-6307.0
 20
-422.0
 30
0.0
 11
-6307.0
 21
-465.0
 31
0.0
  0
LINE
  5
351
330
34D
100
AcDbEntity
  8
0
 62
4
100
AcDbLine
 10
-6283.0
 20
-422.0
 30
0.0
 11
-6283.0
 21
-465.0
 31
0.0
  0
INSERT
  5
352
330
34D
100
AcDbEntity
  8
COTA
 62
4
100
AcDbBlockReference
  2
_CLOSEDFILLED
 10
-6307.0
 20
-464.0
 30
0.0
 41
3.0
 42
3.0
 50
180.0
  0
INSERT
  5
354
330
34D
100
AcDbEntity
  8
COTA
 62
4
100
AcDbBlockReference
  2
_CLOSEDFILLED
 10
-6283.0
 20
-464.0
 30
0.0
 41
3.0
 42
3.0
  0
LINE
  5
356
330
34D
100
AcDbEntity
  8
0
 62
4
100
AcDbLine
 10
-6304.0
 20
-464.0
 30
0.0
 11
-6300.0
 21
-464.0
 31
0.0
  0
LINE
  5
357
330
34D
100
AcDbEntity
  8
0
 62
4
100
AcDbLine
 10
-6290.0
 20
-464.0
 30
0.0
 11
-6286.0
 21
-464.0
 31
0.0
  0
MTEXT
  5
358
330
34D
100
AcDbEntity
  8
COTA
 62
4
100
AcDbMText
 10
-6295.0
 20
-464.0
 30
0.0
 40
5.0
 71
5
  1
24
  0
POINT
  5
359
330
34D
100
AcDbEntity
  8
Defpoints
100
AcDbPoint
 10
-6307.0
 20
-464.0
 30
0.0
  0
POINT
  5
35A
330
34D
100
AcDbEntity
  8
Defpoints
100
AcDbPoint
 10
-6307.0
 20
-421.0
 30
0.0
  0
POINT
  5
35B
330
34D
100
AcDbEntity
  8
Defpoints
100
AcDbPoint
 10
-6283.0
 20
-421.0
 30
0.0
  0
ENDBLK
  5
34F
330
34D
100
AcDbEntity
  8
0
100
AcDbBlockEnd
  0
BLOCK
  5
368
330
367
100
AcDbEntity
  8
0
100
AcDbBlockBegin
  2
*D41
 70
1
 10
0.0
 20
0.0
 30
0.0
  3
*D41
  1

  0
LINE
  5
36A
330
367
100
AcDbEntity
  8
0
100
AcDbLine
 10
-88.0
 20
111.0
 30
0.0
 11
-88.0
 21
15.0
 31
0.0
  0
LINE
  5
36B
330
367
100
AcDbEntity
  8
0
100
AcDbLine
 10
88.0
 20
111.0
 30
0.0
 11
88.0
 21
15.0
 31
0.0
  0
INSERT
  5
36C
330
367
100
AcDbEntity
  8
COTA
100
AcDbBlockReference
  2
_CLOSEDFILLED
 10
-88.0
 20
16.0
 30
0.0
 41
3.0
 42
3.0
 50
180.0
  0
INSERT
  5
36E
330
367
100
AcDbEntity
  8
COTA
100
AcDbBlockReference
  2
_CLOSEDFILLED
 10
88.0
 20
16.0
 30
0.0
 41
3.0
 42
3.0
  0
LINE
  5
370
330
367
100
AcDbEntity
  8
0
100
AcDbLine
 10
-85.0
 20
16.0
 30
0.0
 11
-5.0
 21
16.0
 31
0.0
  0
LINE
  5
371
330
367
100
AcDbEntity
  8
0
100
AcDbLine
 10
5.0
 20
16.0
 30
0.0
 11
85.0
 21
16.0
 31
0.0
  0
MTEXT
  5
372
330
367
100
AcDbEntity
  8
COTA
100
AcDbMText
 10
0.0
 20
16.0
 30
0.0
 40
5.0
 71
5
  1
88
 11
2.0
 21
0.0
 31
0.0
  0
POINT
  5
373
330
367
100
AcDbEntity
  8
Defpoints
100
AcDbPoint
 10
-88.0
 20
16.0
 30
0.0
  0
POINT
  5
374
330
367
100
AcDbEntity
  8
Defpoints
100
AcDbPoint
 10
-88.0
 20
112.0
 30
0.0
  0
POINT
  5
375
330
367
100
AcDbEntity
  8
Defpoints
100
AcDbPoint
 10
88.0
 20
112.0
 30
0.0
  0
ENDBLK
  5
369
330
367
100
AcDbEntity
  8
0
100
AcDbBlockEnd
  0
BLOCK
  5
398
330
397
100
AcDbEntity
  8
0
100
AcDbBlockBegin
  2
*D42
 70
1
 10
0.0
 20
0.0
 30
0.0
  3
*D42
  1

  0
LINE
  5
39A
330
397
100
AcDbEntity
  8
0
100
AcDbLine
 10
-88.0
 20
97.0
 30
0.0
 11
-88.0
 21
57.0
 31
0.0
  0
LINE
  5
39B
330
397
100
AcDbEntity
  8
0
100
AcDbLine
 10
-49.0
 20
97.0
 30
0.0
 11
-49.0
 21
57.0
 31
0.0
  0
INSERT
  5
39C
330
397
100
AcDbEntity
  8
COTA
100
AcDbBlockReference
  2
_CLOSEDFILLED
 10
-88.0
 20
58.0
 30
0.0
 41
3.0
 42
3.0
 50
180.0
  0
INSERT
  5
39E
330
397
100
AcDbEntity
  8
COTA
100
AcDbBlockReference
  2
_CLOSEDFILLED
 10
-49.0
 20
58.0
 30
0.0
 41
3.0
 42
3.0
  0
LINE
  5
3A0
330
397
100
AcDbEntity
  8
0
100
AcDbLine
 10
-85.0
 20
58.0
 30
0.0
 11
-78.5
 21
58.0
 31
0.0
  0
LINE
  5
3A1
330
397
100
AcDbEntity
  8
0
100
AcDbLine
 10
-58.5
 20
58.0
 30
0.0
 11
-52.0
 21
58.0
 31
0.0
  0
MTEXT
  5
3A2
330
397
100
AcDbEntity
  8
COTA
100
AcDbMText
 10
-68.5
 20
58.0
 30
0.0
 40
5.0
 71
5
  1
19.5
 11
2.0
 21
0.0
 31
0.0
  0
POINT
  5
3A3
330
397
100
AcDbEntity
  8
Defpoints
100
AcDbPoint
 10
-88.0
 20
58.0
 30
0.0
  0
POINT
  5
3A4
330
397
100
AcDbEntity
  8
Defpoints
100
AcDbPoint
 10
-88.0
 20
98.0
 30
0.0
  0
POINT
  5
3A5
330
397
100
AcDbEntity
  8
Defpoints
100
AcDbPoint
 10
-49.0
 20
98.0
 30
0.0
  0
ENDBLK
  5
399
330
397
100
AcDbEntity
  8
0
100
AcDbBlockEnd
  0
BLOCK
  5
3A8
330
3A7
100
AcDbEntity
  8
0
100
AcDbBlockBegin
  2
*D43
 70
1
 10
0.0
 20
0.0
 30
0.0
  3
*D43
  1

  0
LINE
  5
3AA
330
3A7
100
AcDbEntity
  8
0
100
AcDbLine
 10
-49.0
 20
97.0
 30
0.0
 11
-49.0
 21
57.0
 31
0.0
  0
LINE
  5
3AB
330
3A7
100
AcDbEntity
  8
0
100
AcDbLine
 10
-10.0
 20
97.0
 30
0.0
 11
-10.0
 21
57.0
 31
0.0
  0
INSERT
  5
3AC
330
3A7
100
AcDbEntity
  8
COTA
100
AcDbBlockReference
  2
_CLOSEDFILLED
 10
-49.0
 20
58.0
 30
0.0
 41
3.0
 42
3.0
 50
180.0
  0
INSERT
  5
3AE
330
3A7
100
AcDbEntity
  8
COTA
100
AcDbBlockReference
  2
_CLOSEDFILLED
 10
-10.0
 20
58.0
 30
0.0
 41
3.0
 42
3.0
  0
LINE
  5
3B0
330
3A7
100
AcDbEntity
  8
0
100
AcDbLine
 10
-46.0
 20
58.0
 30
0.0
 11
-39.5
 21
58.0
 31
0.0
  0
LINE
  5
3B1
330
3A7
100
AcDbEntity
  8
0
100
AcDbLine
 10
-19.5
 20
58.0
 30
0.0
 11
-13.0
 21
58.0
 31
0.0
  0
MTEXT
  5
3B2
330
3A7
100
AcDbEntity
  8
COTA
100
AcDbMText
 10
-29.5
 20
58.0
 30
0.0
 40
5.0
 71
5
  1
19.5
 11
2.0
 21
0.0
 31
0.0
  0
POINT
  5
3B3
330
3A7
100
AcDbEntity
  8
Defpoints
100
AcDbPoint
 10
-49.0
 20
58.0
 30
0.0
  0
POINT
  5
3B4
330
3A7
100
AcDbEntity
  8
Defpoints
100
AcDbPoint
 10
-49.0
 20
98.0
 30
0.0
  0
POINT
  5
3B5
330
3A7
100
AcDbEntity
  8
Defpoints
100
AcDbPoint
 10
-10.0
 20
98.0
 30
0.0
  0
ENDBLK
  5
3A9
330
3A7
100
AcDbEntity
  8
0
100
AcDbBlockEnd
  0
BLOCK
  5
3B8
330
3B7
100
AcDbEntity
  8
0
100
AcDbBlockBegin
  2
*D44
 70
1
 10
0.0
 20
0.0
 30
0.0
  3
*D44
  1

  0
LINE
  5
3BA
330
3B7
100
AcDbEntity
  8
0
100
AcDbLine
 10
-10.0
 20
97.0
 30
0.0
 11
-10.0
 21
57.0
 31
0.0
  0
LINE
  5
3BB
330
3B7
100
AcDbEntity
  8
0
100
AcDbLine
 10
38.99999999999999
 20
97.0
 30
0.0
 11
38.99999999999999
 21
57.0
 31
0.0
  0
INSERT
  5
3BC
330
3B7
100
AcDbEntity
  8
COTA
100
AcDbBlockReference
  2
_CLOSEDFILLED
 10
-10.0
 20
58.0
 30
0.0
 41
3.0
 42
3.0
 50
180.0
  0
INSERT
  5
3BE
330
3B7
100
AcDbEntity
  8
COTA
100
AcDbBlockReference
  2
_CLOSEDFILLED
 10
38.99999999999999
 20
58.0
 30
0.0
 41
3.0
 42
3.0
  0
LINE
  5
3C0
330
3B7
100
AcDbEntity
  8
0
100
AcDbLine
 10
-7.0
 20
58.0
 30
0.0
 11
4.4999999999999964
 21
58.0
 31
0.0
  0
LINE
  5
3C1
330
3B7
100
AcDbEntity
  8
0
100
AcDbLine
 10
24.5
 20
58.0
 30
0.0
 11
35.99999999999999
 21
58.0
 31
0.0
  0
MTEXT
  5
3C2
330
3B7
100
AcDbEntity
  8
COTA
100
AcDbMText
 10
14.499999999999996
 20
58.0
 30
0.0
 40
5.0
 71
5
  1
24.5
 11
2.0
 21
0.0
 31
0.0
  0
POINT
  5
3C3
330
3B7
100
AcDbEntity
  8
Defpoints
100
AcDbPoint
 10
-10.0
 20
58.0
 30
0.0
  0
POINT
  5
3C4
330
3B7
100
AcDbEntity
  8
Defpoints
100
AcDbPoint
 10
-10.0
 20
98.0
 30
0.0
  0
POINT
  5
3C5
330
3B7
100
AcDbEntity
  8
Defpoints
100
AcDbPoint
 10
38.99999999999999
 20
98.0
 30
0.0
  0
ENDBLK
  5
3B9
330
3B7
100
AcDbEntity
  8
0
100
AcDbBlockEnd
  0
BLOCK
  5
3C8
330
3C7
100
AcDbEntity
  8
0
100
AcDbBlockBegin
  2
*D45
 70
1
 10
0.0
 20
0.0
 30
0.0
  3
*D45
  1

  0
LINE
  5
3CA
330
3C7
100
AcDbEntity
  8
0
100
AcDbLine
 10
39.0
 20
97.0
 30
0.0
 11
39.0
 21
57.0
 31
0.0
  0
LINE
  5
3CB
330
3C7
100
AcDbEntity
  8
0
100
AcDbLine
 10
88.0
 20
97.0
 30
0.0
 11
88.0
 21
57.0
 31
0.0
  0
INSERT
  5
3CC
330
3C7
100
AcDbEntity
  8
COTA
100
AcDbBlockReference
  2
_CLOSEDFILLED
 10
39.0
 20
58.0
 30
0.0
 41
3.0
 42
3.0
 50
180.0
  0
INSERT
  5
3CE
330
3C7
100
AcDbEntity
  8
COTA
100
AcDbBlockReference
  2
_CLOSEDFILLED
 10
88.0
 20
58.0
 30
0.0
 41
3.0
 42
3.0
  0
LINE
  5
3D0
330
3C7
100
AcDbEntity
  8
0
100
AcDbLine
 10
42.0
 20
58.0
 30
0.0
 11
53.5
 21
58.0
 31
0.0
  0
LINE
  5
3D1
330
3C7
100
AcDbEntity
  8
0
100
AcDbLine
 10
73.5
 20
58.0
 30
0.0
 11
85.0
 21
58.0
 31
0.0
  0
MTEXT
  5
3D2
330
3C7
100
AcDbEntity
  8
COTA
100
AcDbMText
 10
63.5
 20
58.0
 30
0.0
 40
5.0
 71
5
  1
24.5
 11
2.0
 21
0.0
 31
0.0
  0
POINT
  5
3D3
330
3C7
100
AcDbEntity
  8
Defpoints
100
AcDbPoint
 10
39.0
 20
58.0
 30
0.0
  0
POINT
  5
3D4
330
3C7
100
AcDbEntity
  8
Defpoints
100
AcDbPoint
 10
39.0
 20
98.0
 30
0.0
  0
POINT
  5
3D5
330
3C7
100
AcDbEntity
  8
Defpoints
100
AcDbPoint
 10
88.0
 20
98.0
 30
0.0
  0
ENDBLK
  5
3C9
330
3C7
100
AcDbEntity
  8
0
100
AcDbBlockEnd
  0
BLOCK
  5
3DA
330
3D9
100
AcDbEntity
  8
0
100
AcDbBlockBegin
  2
*D46
 70
1
 10
0.0
 20
0.0
 30
0.0
  3
*D46
  1

  0
LINE
  5
3DC
330
3D9
100
AcDbEntity
  8
0
100
AcDbLine
 10
-66.0
 20
117.0
 30
0.0
 11
-66.0
 21
125.0
 31
0.0
  0
LINE
  5
3DD
330
3D9
100
AcDbEntity
  8
0
100
AcDbLine
 10
66.0
 20
117.0
 30
0.0
 11
66.0
 21
125.0
 31
0.0
  0
INSERT
  5
3DE
330
3D9
100
AcDbEntity
  8
COTA
100
AcDbBlockReference
  2
_CLOSEDFILLED
 10
-66.0
 20
124.0
 30
0.0
 41
3.0
 42
3.0
 50
180.0
  0
INSERT
  5
3E0
330
3D9
100
AcDbEntity
  8
COTA
100
AcDbBlockReference
  2
_CLOSEDFILLED
 10
66.0
 20
124.0
 30
0.0
 41
3.0
 42
3.0
  0
LINE
  5
3E2
330
3D9
100
AcDbEntity
  8
0
100
AcDbLine
 10
-63.0
 20
124.0
 30
0.0
 11
-5.0
 21
124.0
 31
0.0
  0
LINE
  5
3E3
330
3D9
100
AcDbEntity
  8
0
100
AcDbLine
 10
5.0
 20
124.0
 30
0.0
 11
63.0
 21
124.0
 31
0.0
  0
MTEXT
  5
3E4
330
3D9
100
AcDbEntity
  8
COTA
100
AcDbMText
 10
0.0
 20
124.0
 30
0.0
 40
5.0
 71
5
  1
66
 11
2.0
 21
0.0
 31
0.0
  0
POINT
  5
3E5
330
3D9
100
AcDbEntity
  8
Defpoints
100
AcDbPoint
 10
-66.0
 20
124.0
 30
0.0
  0
POINT
  5
3E6
330
3D9
100
AcDbEntity
  8
Defpoints
100
AcDbPoint
 10
-66.0
 20
116.0
 30
0.0
  0
POINT
  5
3E7
330
3D9
100
AcDbEntity
  8
Defpoints
100
AcDbPoint
 10
66.0
 20
116.0
 30
0.0
  0
ENDBLK
  5
3DB
330
3D9
100
AcDbEntity
  8
0
100
AcDbBlockEnd
  0
BLOCK
  5
3EA
330
3E9
100
AcDbEntity
  8
0
100
AcDbBlockBegin
  2
*D47
 70
1
 10
0.0
 20
0.0
 30
0.0
  3
*D47
  1

  0
LINE
  5
3EC
330
3E9
100
AcDbEntity
  8
0
100
AcDbLine
 10
67.0
 20
116.0
 30
0.0
 11
127.0
 21
116.0
 31
0.0
  0
LINE
  5
3ED
330
3E9
100
AcDbEntity
  8
0
100
AcDbLine
 10
67.0
 20
164.0
 30
0.0
 11
127.0
 21
164.0
 31
0.0
  0
INSERT
  5
3EE
330
3E9
100
AcDbEntity
  8
COTA
100
AcDbBlockReference
  2
_CLOSEDFILLED
 10
126.0
 20
116.0
 30
0.0
 41
3.0
 42
3.0
 50
-90.00000000000001
  0
INSERT
  5
3F0
330
3E9
100
AcDbEntity
  8
COTA
100
AcDbBlockReference
  2
_CLOSEDFILLED
 10
126.0
 20
164.0
 30
0.0
 41
3.0
 42
3.0
 50
90.0
  0
LINE
  5
3F2
330
3E9
100
AcDbEntity
  8
0
100
AcDbLine
 10
126.0
 20
119.0
 30
0.0
 11
126.0
 21
135.0
 31
0.0
  0
LINE
  5
3F3
330
3E9
100
AcDbEntity
  8
0
100
AcDbLine
 10
126.0
 20
145.0
 30
0.0
 11
126.0
 21
161.0
 31
0.0
  0
MTEXT
  5
3F4
330
3E9
100
AcDbEntity
  8
COTA
100
AcDbMText
 10
126.0
 20
140.0
 30
0.0
 40
5.0
 71
5
  1
24
 11
1.2246467991473532e-16
 21
2.0
 31
0.0
  0
POINT
  5
3F5
330
3E9
100
AcDbEntity
  8
Defpoints
100
AcDbPoint
 10
126.0
 20
116.0
 30
0.0
  0
POINT
  5
3F6
330
3E9
100
AcDbEntity
  8
Defpoints
100
AcDbPoint
 10
66.0
 20
116.0
 30
0.0
  0
POINT
  5
3F7
330
3E9
100
AcDbEntity
  8
Defpoints
100
AcDbPoint
 10
66.0
 20
164.0
 30
0.0
  0
ENDBLK
  5
3EB
330
3E9
100
AcDbEntity
  8
0
100
AcDbBlockEnd
  0
BLOCK
  5
3FA
330
3F9
100
AcDbEntity
  8
0
100
AcDbBlockBegin
  2
*D48
 70
1
 10
0.0
 20
0.0
 30
0.0
  3
*D48
  1

  0
LINE
  5
3FC
330
3F9
100
AcDbEntity
  8
0
100
AcDbLine
 10
-88.0
 20
121.0
 30
0.0
 11
-88.0
 21
133.0
 31
0.0
  0
LINE
  5
3FD
330
3F9
100
AcDbEntity
  8
0
100
AcDbLine
 10
-74.0
 20
121.0
 30
0.0
 11
-74.0
 21
133.0
 31
0.0
  0
INSERT
  5
3FE
330
3F9
100
AcDbEntity
  8
COTA
100
AcDbBlockReference
  2
_CLOSEDFILLED
 10
-88.0
 20
132.0
 30
0.0
 41
3.0
 42
3.0
 50
180.0
  0
INSERT
  5
400
330
3F9
100
AcDbEntity
  8
COTA
100
AcDbBlockReference
  2
_CLOSEDFILLED
 10
-74.0
 20
132.0
 30
0.0
 41
3.0
 42
3.0
  0
LINE
  5
402
330
3F9
100
AcDbEntity
  8
0
100
AcDbLine
 10
-85.0
 20
132.0
 30
0.0
 11
-83.5
 21
132.0
 31
0.0
  0
LINE
  5
403
330
3F9
100
AcDbEntity
  8
0
100
AcDbLine
 10
-78.5
 20
132.0
 30
0.0
 11
-77.0
 21
132.0
 31
0.0
  0
MTEXT
  5
404
330
3F9
100
AcDbEntity
  8
COTA
100
AcDbMText
 10
-81.0
 20
132.0
 30
0.0
 40
5.0
 71
5
  1
7
 11
2.0
 21
0.0
 31
0.0
  0
POINT
  5
405
330
3F9
100
AcDbEntity
  8
Defpoints
100
AcDbPoint
 10
-88.0
 20
132.0
 30
0.0
  0
POINT
  5
406
330
3F9
100
AcDbEntity
  8
Defpoints
100
AcDbPoint
 10
-88.0
 20
120.0
 30
0.0
  0
POINT
  5
407
330
3F9
100
AcDbEntity
  8
Defpoints
100
AcDbPoint
 10
-74.0
 20
120.0
 30
0.0
  0
ENDBLK
  5
3FB
330
3F9
100
AcDbEntity
  8
0
100
AcDbBlockEnd
  0
BLOCK
  5
40A
330
409
100
AcDbEntity
  8
0
100
AcDbBlockBegin
  2
*D49
 70
1
 10
0.0
 20
0.0
 30
0.0
  3
*D49
  1

  0
LINE
  5
40C
330
409
100
AcDbEntity
  8
0
100
AcDbLine
 10
74.0
 20
121.0
 30
0.0
 11
74.0
 21
133.0
 31
0.0
  0
LINE
  5
40D
330
409
100
AcDbEntity
  8
0
100
AcDbLine
 10
88.0
 20
121.0
 30
0.0
 11
88.0
 21
133.0
 31
0.0
  0
INSERT
  5
40E
330
409
100
AcDbEntity
  8
COTA
100
AcDbBlockReference
  2
_CLOSEDFILLED
 10
74.0
 20
132.0
 30
0.0
 41
3.0
 42
3.0
 50
180.0
  0
INSERT
  5
410
330
409
100
AcDbEntity
  8
COTA
100
AcDbBlockReference
  2
_CLOSEDFILLED
 10
88.0
 20
132.0
 30
0.0
 41
3.0
 42
3.0
  0
LINE
  5
412
330
409
100
AcDbEntity
  8
0
100
AcDbLine
 10
77.0
 20
132.0
 30
0.0
 11
78.5
 21
132.0
 31
0.0
  0
LINE
  5
413
330
409
100
AcDbEntity
  8
0
100
AcDbLine
 10
83.5
 20
132.0
 30
0.0
 11
85.0
 21
132.0
 31
0.0
  0
MTEXT
  5
414
330
409
100
AcDbEntity
  8
COTA
100
AcDbMText
 10
81.0
 20
132.0
 30
0.0
 40
5.0
 71
5
  1
7
 11
2.0
 21
0.0
 31
0.0
  0
POINT
  5
415
330
409
100
AcDbEntity
  8
Defpoints
100
AcDbPoint
 10
74.0
 20
132.0
 30
0.0
  0
POINT
  5
416
330
409
100
AcDbEntity
  8
Defpoints
100
AcDbPoint
 10
74.0
 20
120.0
 30
0.0
  0
POINT
  5
417
330
409
100
AcDbEntity
  8
Defpoints
100
AcDbPoint
 10
88.0
 20
120.0
 30
0.0
  0
ENDBLK
  5
40B
330
409
100
AcDbEntity
  8
0
100
AcDbBlockEnd
  0
BLOCK
  5
41F
330
41E
100
AcDbEntity
  8
0
100
AcDbBlockBegin
  2
*D50
 70
1
 10
0.0
 20
0.0
 30
0.0
  3
*D50
  1

  0
LINE
  5
421
330
41E
100
AcDbEntity
  8
0
100
AcDbLine
 10
-88.0
 20
201.8
 30
0.0
 11
-88.0
 21
231.8
 31
0.0
  0
LINE
  5
422
330
41E
100
AcDbEntity
  8
0
100
AcDbLine
 10
0.0
 20
201.8
 30
0.0
 11
0.0
 21
231.8
 31
0.0
  0
INSERT
  5
423
330
41E
100
AcDbEntity
  8
COTA
100
AcDbBlockReference
  2
_CLOSEDFILLED
 10
-88.0
 20
230.8
 30
0.0
 41
3.0
 42
3.0
 50
180.0
  0
INSERT
  5
425
330
41E
100
AcDbEntity
  8
COTA
100
AcDbBlockReference
  2
_CLOSEDFILLED
 10
0.0
 20
230.8
 30
0.0
 41
3.0
 42
3.0
  0
LINE
  5
427
330
41E
100
AcDbEntity
  8
0
100
AcDbLine
 10
-85.0
 20
230.8
 30
0.0
 11
-49.0
 21
230.8
 31
0.0
  0
LINE
  5
428
330
41E
100
AcDbEntity
  8
0
100
AcDbLine
 10
-38.99999999999999
 20
230.8
 30
0.0
 11
-3.0
 21
230.8
 31
0.0
  0
MTEXT
  5
429
330
41E
100
AcDbEntity
  8
COTA
100
AcDbMText
 10
-44.0
 20
230.8
 30
0.0
 40
5.0
 71
5
  1
44
 11
2.0
 21
0.0
 31
0.0
  0
POINT
  5
42A
330
41E
100
AcDbEntity
  8
Defpoints
100
AcDbPoint
 10
-88.0
 20
230.8
 30
0.0
  0
POINT
  5
42B
330
41E
100
AcDbEntity
  8
Defpoints
100
AcDbPoint
 10
-88.0
 20
200.8
 30
0.0
  0
POINT
  5
42C
330
41E
100
AcDbEntity
  8
Defpoints
100
AcDbPoint
 10
0.0
 20
200.8
 30
0.0
  0
ENDBLK
  5
420
330
41E
100
AcDbEntity
  8
0
100
AcDbBlockEnd
  0
BLOCK
  5
42F
330
42E
100
AcDbEntity
  8
0
100
AcDbBlockBegin
  2
*D51
 70
1
 10
0.0
 20
0.0
 30
0.0
  3
*D51
  1

  0
LINE
  5
431
330
42E
100
AcDbEntity
  8
0
100
AcDbLine
 10
0.0
 20
201.8
 30
0.0
 11
0.0
 21
231.8
 31
0.0
  0
LINE
  5
432
330
42E
100
AcDbEntity
  8
0
100
AcDbLine
 10
88.0
 20
201.8
 30
0.0
 11
88.0
 21
231.8
 31
0.0
  0
INSERT
  5
433
330
42E
100
AcDbEntity
  8
COTA
100
AcDbBlockReference
  2
_CLOSEDFILLED
 10
0.0
 20
230.8
 30
0.0
 41
3.0
 42
3.0
 50
180.0
  0
INSERT
  5
435
330
42E
100
AcDbEntity
  8
COTA
100
AcDbBlockReference
  2
_CLOSEDFILLED
 10
88.0
 20
230.8
 30
0.0
 41
3.0
 42
3.0
  0
LINE
  5
437
330
42E
100
AcDbEntity
  8
0
100
AcDbLine
 10
3.0
 20
230.8
 30
0.0
 11
39.0
 21
230.8
 31
0.0
  0
LINE
  5
438
330
42E
100
AcDbEntity
  8
0
100
AcDbLine
 10
49.00000000000001
 20
230.8
 30
0.0
 11
85.0
 21
230.8
 31
0.0
  0
MTEXT
  5
439
330
42E
100
AcDbEntity
  8
COTA
100
AcDbMText
 10
44.0
 20
230.8
 30
0.0
 40
5.0
 71
5
  1
44
 11
2.0
 21
0.0
 31
0.0
  0
POINT
  5
43A
330
42E
100
AcDbEntity
  8
Defpoints
100
AcDbPoint
 10
0.0
 20
230.8
 30
0.0
  0
POINT
  5
43B
330
42E
100
AcDbEntity
  8
Defpoints
100
AcDbPoint
 10
0.0
 20
200.8
 30
0.0
  0
POINT
  5
43C
330
42E
100
AcDbEntity
  8
Defpoints
100
AcDbPoint
 10
88.0
 20
200.8
 30
0.0
  0
ENDBLK
  5
430
330
42E
100
AcDbEntity
  8
0
100
AcDbBlockEnd
  0
BLOCK
  5
471
330
470
100
AcDbEntity
  8
0
100
AcDbBlockBegin
  2
*D52
 70
1
 10
0.0
 20
0.0
 30
0.0
  3
*D52
  1

  0
LINE
  5
473
330
470
100
AcDbEntity
  8
0
100
AcDbLine
 10
4000.0
 20
-13.8
 30
0.0
 11
4000.0
 21
-18.8
 31
0.0
  0
LINE
  5
474
330
470
100
AcDbEntity
  8
0
100
AcDbLine
 10
4019.5
 20
-13.8
 30
0.0
 11
4019.5
 21
-18.8
 31
0.0
  0
INSERT
  5
475
330
470
100
AcDbEntity
  8
COTA
100
AcDbBlockReference
  2
_CLOSEDFILLED
 10
4000.0
 20
-17.8
 30
0.0
 41
3.0
 42
3.0
 50
180.0
  0
INSERT
  5
477
330
470
100
AcDbEntity
  8
COTA
100
AcDbBlockReference
  2
_CLOSEDFILLED
 10
4019.5
 20
-17.8
 30
0.0
 41
3.0
 42
3.0
  0
LINE
  5
479
330
470
100
AcDbEntity
  8
0
100
AcDbLine
 10
4003.0
 20
-17.8
 30
0.0
 11
4016.5
 21
-17.8
 31
0.0
  0
MTEXT
  5
47A
330
470
100
AcDbEntity
  8
COTA
100
AcDbMText
 10
4009.75
 20
-13.3
 30
0.0
 40
5.0
 71
5
  1
19,5
  0
POINT
  5
47B
330
470
100
AcDbEntity
  8
Defpoints
100
AcDbPoint
 10
4000.0
 20
-17.8
 30
0.0
  0
POINT
  5
47C
330
470
100
AcDbEntity
  8
Defpoints
100
AcDbPoint
 10
4000.0
 20
-12.8
 30
0.0
  0
POINT
  5
47D
330
470
100
AcDbEntity
  8
Defpoints
100
AcDbPoint
 10
4019.5
 20
-12.8
 30
0.0
  0
ENDBLK
  5
472
330
470
100
AcDbEntity
  8
0
100
AcDbBlockEnd
  0
BLOCK
  5
480
330
47F
100
AcDbEntity
  8
0
100
AcDbBlockBegin
  2
*D53
 70
1
 10
0.0
 20
0.0
 30
0.0
  3
*D53
  1

  0
LINE
  5
482
330
47F
100
AcDbEntity
  8
0
100
AcDbLine
 10
4019.5
 20
-13.8
 30
0.0
 11
4019.5
 21
-18.8
 31
0.0
  0
LINE
  5
483
330
47F
100
AcDbEntity
  8
0
100
AcDbLine
 10
4039.0
 20
-13.8
 30
0.0
 11
4039.0
 21
-18.8
 31
0.0
  0
INSERT
  5
484
330
47F
100
AcDbEntity
  8
COTA
100
AcDbBlockReference
  2
_CLOSEDFILLED
 10
4019.5
 20
-17.8
 30
0.0
 41
3.0
 42
3.0
 50
180.0
  0
INSERT
  5
486
330
47F
100
AcDbEntity
  8
COTA
100
AcDbBlockReference
  2
_CLOSEDFILLED
 10
4039.0
 20
-17.8
 30
0.0
 41
3.0
 42
3.0
  0
LINE
  5
488
330
47F
100
AcDbEntity
  8
0
100
AcDbLine
 10
4022.5
 20
-17.8
 30
0.0
 11
4036.0
 21
-17.8
 31
0.0
  0
MTEXT
  5
489
330
47F
100
AcDbEntity
  8
COTA
100
AcDbMText
 10
4029.25
 20
-13.3
 30
0.0
 40
5.0
 71
5
  1
19,5
  0
POINT
  5
48A
330
47F
100
AcDbEntity
  8
Defpoints
100
AcDbPoint
 10
4019.5
 20
-17.8
 30
0.0
  0
POINT
  5
48B
330
47F
100
AcDbEntity
  8
Defpoints
100
AcDbPoint
 10
4019.5
 20
-12.8
 30
0.0
  0
POINT
  5
48C
330
47F
100
AcDbEntity
  8
Defpoints
100
AcDbPoint
 10
4039.0
 20
-12.8
 30
0.0
  0
ENDBLK
  5
481
330
47F
100
AcDbEntity
  8
0
100
AcDbBlockEnd
  0
BLOCK
  5
48F
330
48E
100
AcDbEntity
  8
0
100
AcDbBlockBegin
  2
*D54
 70
1
 10
0.0
 20
0.0
 30
0.0
  3
*D54
  1

  0
LINE
  5
491
330
48E
100
AcDbEntity
  8
0
100
AcDbLine
 10
4039.0
 20
-13.8
 30
0.0
 11
4039.0
 21
-18.8
 31
0.0
  0
LINE
  5
492
330
48E
100
AcDbEntity
  8
0
100
AcDbLine
 10
4063.5
 20
-13.8
 30
0.0
 11
4063.5
 21
-18.8
 31
0.0
  0
INSERT
  5
493
330
48E
100
AcDbEntity
  8
COTA
100
AcDbBlockReference
  2
_CLOSEDFILLED
 10
4039.0
 20
-17.8
 30
0.0
 41
3.0
 42
3.0
 50
180.0
  0
INSERT
  5
495
330
48E
100
AcDbEntity
  8
COTA
100
AcDbBlockReference
  2
_CLOSEDFILLED
 10
4063.5
 20
-17.8
 30
0.0
 41
3.0
 42
3.0
  0
LINE
  5
497
330
48E
100
AcDbEntity
  8
0
100
AcDbLine
 10
4042.0
 20
-17.8
 30
0.0
 11
4060.5
 21
-17.8
 31
0.0
  0
MTEXT
  5
498
330
48E
100
AcDbEntity
  8
COTA
100
AcDbMText
 10
4051.25
 20
-13.3
 30
0.0
 40
5.0
 71
5
  1
24,5
  0
POINT
  5
499
330
48E
100
AcDbEntity
  8
Defpoints
100
AcDbPoint
 10
4039.0
 20
-17.8
 30
0.0
  0
POINT
  5
49A
330
48E
100
AcDbEntity
  8
Defpoints
100
AcDbPoint
 10
4039.0
 20
-12.8
 30
0.0
  0
POINT
  5
49B
330
48E
100
AcDbEntity
  8
Defpoints
100
AcDbPoint
 10
4063.5
 20
-12.8
 30
0.0
  0
ENDBLK
  5
490
330
48E
100
AcDbEntity
  8
0
100
AcDbBlockEnd
  0
BLOCK
  5
49E
330
49D
100
AcDbEntity
  8
0
100
AcDbBlockBegin
  2
*D55
 70
1
 10
0.0
 20
0.0
 30
0.0
  3
*D55
  1

  0
LINE
  5
4A0
330
49D
100
AcDbEntity
  8
0
100
AcDbLine
 10
4063.5
 20
-13.8
 30
0.0
 11
4063.5
 21
-18.8
 31
0.0
  0
LINE
  5
4A1
330
49D
100
AcDbEntity
  8
0
100
AcDbLine
 10
4088.0
 20
-13.8
 30
0.0
 11
4088.0
 21
-18.8
 31
0.0
  0
INSERT
  5
4A2
330
49D
100
AcDbEntity
  8
COTA
100
AcDbBlockReference
  2
_CLOSEDFILLED
 10
4063.5
 20
-17.8
 30
0.0
 41
3.0
 42
3.0
 50
180.0
  0
INSERT
  5
4A4
330
49D
100
AcDbEntity
  8
COTA
100
AcDbBlockReference
  2
_CLOSEDFILLED
 10
4088.0
 20
-17.8
 30
0.0
 41
3.0
 42
3.0
  0
LINE
  5
4A6
330
49D
100
AcDbEntity
  8
0
100
AcDbLine
 10
4066.5
 20
-17.8
 30
0.0
 11
4085.0
 21
-17.8
 31
0.0
  0
MTEXT
  5
4A7
330
49D
100
AcDbEntity
  8
COTA
100
AcDbMText
 10
4075.75
 20
-13.3
 30
0.0
 40
5.0
 71
5
  1
24,5
  0
POINT
  5
4A8
330
49D
100
AcDbEntity
  8
Defpoints
100
AcDbPoint
 10
4063.5
 20
-17.8
 30
0.0
  0
POINT
  5
4A9
330
49D
100
AcDbEntity
  8
Defpoints
100
AcDbPoint
 10
4063.5
 20
-12.8
 30
0.0
  0
POINT
  5
4AA
330
49D
100
AcDbEntity
  8
Defpoints
100
AcDbPoint
 10
4088.0
 20
-12.8
 30
0.0
  0
ENDBLK
  5
49F
330
49D
100
AcDbEntity
  8
0
100
AcDbBlockEnd
  0
BLOCK
  5
4AD
330
4AC
100
AcDbEntity
  8
0
100
AcDbBlockBegin
  2
*D56
 70
1
 10
0.0
 20
0.0
 30
0.0
  3
*D56
  1

  0
LINE
  5
4AF
330
4AC
100
AcDbEntity
  8
0
100
AcDbLine
 10
4000.0
 20
-1.0
 30
0.0
 11
4000.0
 21
-41.0
 31
0.0
  0
LINE
  5
4B0
330
4AC
100
AcDbEntity
  8
0
100
AcDbLine
 10
4088.0
 20
-1.0
 30
0.0
 11
4088.0
 21
-41.0
 31
0.0
  0
INSERT
  5
4B1
330
4AC
100
AcDbEntity
  8
COTA
100
AcDbBlockReference
  2
_CLOSEDFILLED
 10
4000.0
 20
-40.0
 30
0.0
 41
3.0
 42
3.0
 50
180.0
  0
INSERT
  5
4B3
330
4AC
100
AcDbEntity
  8
COTA
100
AcDbBlockReference
  2
_CLOSEDFILLED
 10
4088.0
 20
-40.0
 30
0.0
 41
3.0
 42
3.0
  0
LINE
  5
4B5
330
4AC
100
AcDbEntity
  8
0
100
AcDbLine
 10
4003.0
 20
-40.0
 30
0.0
 11
4039.0
 21
-40.0
 31
0.0
  0
LINE
  5
4B6
330
4AC
100
AcDbEntity
  8
0
100
AcDbLine
 10
4049.0
 20
-40.0
 30
0.0
 11
4085.0
 21
-40.0
 31
0.0
  0
MTEXT
  5
4B7
330
4AC
100
AcDbEntity
  8
COTA
100
AcDbMText
 10
4044.0
 20
-40.0
 30
0.0
 40
5.0
 71
5
  1
88
  0
POINT
  5
4B8
330
4AC
100
AcDbEntity
  8
Defpoints
100
AcDbPoint
 10
4000.0
 20
-40.0
 30
0.0
  0
POINT
  5
4B9
330
4AC
100
AcDbEntity
  8
Defpoints
100
AcDbPoint
 10
4000.0
 20
0.0
 30
0.0
  0
POINT
  5
4BA
330
4AC
100
AcDbEntity
  8
Defpoints
100
AcDbPoint
 10
4088.0
 20
0.0
 30
0.0
  0
ENDBLK
  5
4AE
330
4AC
100
AcDbEntity
  8
0
100
AcDbBlockEnd
  0
BLOCK
  5
4EE
330
4ED
100
AcDbEntity
  8
0
100
AcDbBlockBegin
  2
*D57
 70
1
 10
0.0
 20
0.0
 30
0.0
  3
*D57
  1

  0
LINE
  5
4F0
330
4ED
100
AcDbEntity
  8
0
100
AcDbLine
 10
4128.0
 20
-13.8
 30
0.0
 11
4128.0
 21
-18.8
 31
0.0
  0
LINE
  5
4F1
330
4ED
100
AcDbEntity
  8
0
100
AcDbLine
 10
4152.5
 20
-13.8
 30
0.0
 11
4152.5
 21
-18.8
 31
0.0
  0
INSERT
  5
4F2
330
4ED
100
AcDbEntity
  8
COTA
100
AcDbBlockReference
  2
_CLOSEDFILLED
 10
4128.0
 20
-17.8
 30
0.0
 41
3.0
 42
3.0
 50
180.0
  0
INSERT
  5
4F4
330
4ED
100
AcDbEntity
  8
COTA
100
AcDbBlockReference
  2
_CLOSEDFILLED
 10
4152.5
 20
-17.8
 30
0.0
 41
3.0
 42
3.0
  0
LINE
  5
4F6
330
4ED
100
AcDbEntity
  8
0
100
AcDbLine
 10
4131.0
 20
-17.8
 30
0.0
 11
4149.5
 21
-17.8
 31
0.0
  0
MTEXT
  5
4F7
330
4ED
100
AcDbEntity
  8
COTA
100
AcDbMText
 10
4140.25
 20
-13.3
 30
0.0
 40
5.0
 71
5
  1
24,5
  0
POINT
  5
4F8
330
4ED
100
AcDbEntity
  8
Defpoints
100
AcDbPoint
 10
4128.0
 20
-17.8
 30
0.0
  0
POINT
  5
4F9
330
4ED
100
AcDbEntity
  8
Defpoints
100
AcDbPoint
 10
4128.0
 20
-12.8
 30
0.0
  0
POINT
  5
4FA
330
4ED
100
AcDbEntity
  8
Defpoints
100
AcDbPoint
 10
4152.5
 20
-12.8
 30
0.0
  0
ENDBLK
  5
4EF
330
4ED
100
AcDbEntity
  8
0
100
AcDbBlockEnd
  0
BLOCK
  5
4FD
330
4FC
100
AcDbEntity
  8
0
100
AcDbBlockBegin
  2
*D58
 70
1
 10
0.0
 20
0.0
 30
0.0
  3
*D58
  1

  0
LINE
  5
4FF
330
4FC
100
AcDbEntity
  8
0
100
AcDbLine
 10
4152.5
 20
-13.8
 30
0.0
 11
4152.5
 21
-18.8
 31
0.0
  0
LINE
  5
500
330
4FC
100
AcDbEntity
  8
0
100
AcDbLine
 10
4177.0
 20
-13.8
 30
0.0
 11
4177.0
 21
-18.8
 31
0.0
  0
INSERT
  5
501
330
4FC
100
AcDbEntity
  8
COTA
100
AcDbBlockReference
  2
_CLOSEDFILLED
 10
4152.5
 20
-17.8
 30
0.0
 41
3.0
 42
3.0
 50
180.0
  0
INSERT
  5
503
330
4FC
100
AcDbEntity
  8
COTA
100
AcDbBlockReference
  2
_CLOSEDFILLED
 10
4177.0
 20
-17.8
 30
0.0
 41
3.0
 42
3.0
  0
LINE
  5
505
330
4FC
100
AcDbEntity
  8
0
100
AcDbLine
 10
4155.5
 20
-17.8
 30
0.0
 11
4174.0
 21
-17.8
 31
0.0
  0
MTEXT
  5
506
330
4FC
100
AcDbEntity
  8
COTA
100
AcDbMText
 10
4164.75
 20
-13.3
 30
0.0
 40
5.0
 71
5
  1
24,5
  0
POINT
  5
507
330
4FC
100
AcDbEntity
  8
Defpoints
100
AcDbPoint
 10
4152.5
 20
-17.8
 30
0.0
  0
POINT
  5
508
330
4FC
100
AcDbEntity
  8
Defpoints
100
AcDbPoint
 10
4152.5
 20
-12.8
 30
0.0
  0
POINT
  5
509
330
4FC
100
AcDbEntity
  8
Defpoints
100
AcDbPoint
 10
4177.0
 20
-12.8
 30
0.0
  0
ENDBLK
  5
4FE
330
4FC
100
AcDbEntity
  8
0
100
AcDbBlockEnd
  0
BLOCK
  5
50C
330
50B
100
AcDbEntity
  8
0
100
AcDbBlockBegin
  2
*D59
 70
1
 10
0.0
 20
0.0
 30
0.0
  3
*D59
  1

  0
LINE
  5
50E
330
50B
100
AcDbEntity
  8
0
100
AcDbLine
 10
4177.0
 20
-13.8
 30
0.0
 11
4177.0
 21
-18.8
 31
0.0
  0
LINE
  5
50F
330
50B
100
AcDbEntity
  8
0
100
AcDbLine
 10
4196.5
 20
-13.8
 30
0.0
 11
4196.5
 21
-18.8
 31
0.0
  0
INSERT
  5
510
330
50B
100
AcDbEntity
  8
COTA
100
AcDbBlockReference
  2
_CLOSEDFILLED
 10
4177.0
 20
-17.8
 30
0.0
 41
3.0
 42
3.0
 50
180.0
  0
INSERT
  5
512
330
50B
100
AcDbEntity
  8
COTA
100
AcDbBlockReference
  2
_CLOSEDFILLED
 10
4196.5
 20
-17.8
 30
0.0
 41
3.0
 42
3.0
  0
LINE
  5
514
330
50B
100
AcDbEntity
  8
0
100
AcDbLine
 10
4180.0
 20
-17.8
 30
0.0
 11
4193.5
 21
-17.8
 31
0.0
  0
MTEXT
  5
515
330
50B
100
AcDbEntity
  8
COTA
100
AcDbMText
 10
4186.75
 20
-13.3
 30
0.0
 40
5.0
 71
5
  1
19,5
  0
POINT
  5
516
330
50B
100
AcDbEntity
  8
Defpoints
100
AcDbPoint
 10
4177.0
 20
-17.8
 30
0.0
  0
POINT
  5
517
330
50B
100
AcDbEntity
  8
Defpoints
100
AcDbPoint
 10
4177.0
 20
-12.8
 30
0.0
  0
POINT
  5
518
330
50B
100
AcDbEntity
  8
Defpoints
100
AcDbPoint
 10
4196.5
 20
-12.8
 30
0.0
  0
ENDBLK
  5
50D
330
50B
100
AcDbEntity
  8
0
100
AcDbBlockEnd
  0
BLOCK
  5
51B
330
51A
100
AcDbEntity
  8
0
100
AcDbBlockBegin
  2
*D60
 70
1
 10
0.0
 20
0.0
 30
0.0
  3
*D60
  1

  0
LINE
  5
51D
330
51A
100
AcDbEntity
  8
0
100
AcDbLine
 10
4196.5
 20
-13.8
 30
0.0
 11
4196.5
 21
-18.8
 31
0.0
  0
LINE
  5
51E
330
51A
100
AcDbEntity
  8
0
100
AcDbLine
 10
4216.0
 20
-13.8
 30
0.0
 11
4216.0
 21
-18.8
 31
0.0
  0
INSERT
  5
51F
330
51A
100
AcDbEntity
  8
COTA
100
AcDbBlockReference
  2
_CLOSEDFILLED
 10
4196.5
 20
-17.8
 30
0.0
 41
3.0
 42
3.0
 50
180.0
  0
INSERT
  5
521
330
51A
100
AcDbEntity
  8
COTA
100
AcDbBlockReference
  2
_CLOSEDFILLED
 10
4216.0
 20
-17.8
 30
0.0
 41
3.0
 42
3.0
  0
LINE
  5
523
330
51A
100
AcDbEntity
  8
0
100
AcDbLine
 10
4199.5
 20
-17.8
 30
0.0
 11
4213.0
 21
-17.8
 31
0.0
  0
MTEXT
  5
524
330
51A
100
AcDbEntity
  8
COTA
100
AcDbMText
 10
4206.25
 20
-13.3
 30
0.0
 40
5.0
 71
5
  1
19,5
  0
POINT
  5
525
330
51A
100
AcDbEntity
  8
Defpoints
100
AcDbPoint
 10
4196.5
 20
-17.8
 30
0.0
  0
POINT
  5
526
330
51A
100
AcDbEntity
  8
Defpoints
100
AcDbPoint
 10
4196.5
 20
-12.8
 30
0.0
  0
POINT
  5
527
330
51A
100
AcDbEntity
  8
Defpoints
100
AcDbPoint
 10
4216.0
 20
-12.8
 30
0.0
  0
ENDBLK
  5
51C
330
51A
100
AcDbEntity
  8
0
100
AcDbBlockEnd
  0
BLOCK
  5
52A
330
529
100
AcDbEntity
  8
0
100
AcDbBlockBegin
  2
*D61
 70
1
 10
0.0
 20
0.0
 30
0.0
  3
*D61
  1

  0
LINE
  5
52C
330
529
100
AcDbEntity
  8
0
100
AcDbLine
 10
4128.0
 20
-1.0
 30
0.0
 11
4128.0
 21
-41.0
 31
0.0
  0
LINE
  5
52D
330
529
100
AcDbEntity
  8
0
100
AcDbLine
 10
4216.0
 20
-1.0
 30
0.0
 11
4216.0
 21
-41.0
 31
0.0
  0
INSERT
  5
52E
330
529
100
AcDbEntity
  8
COTA
100
AcDbBlockReference
  2
_CLOSEDFILLED
 10
4128.0
 20
-40.0
 30
0.0
 41
3.0
 42
3.0
 50
180.0
  0
INSERT
  5
530
330
529
100
AcDbEntity
  8
COTA
100
AcDbBlockReference
  2
_CLOSEDFILLED
 10
4216.0
 20
-40.0
 30
0.0
 41
3.0
 42
3.0
  0
LINE
  5
532
330
529
100
AcDbEntity
  8
0
100
AcDbLine
 10
4131.0
 20
-40.0
 30
0.0
 11
4167.0
 21
-40.0
 31
0.0
  0
LINE
  5
533
330
529
100
AcDbEntity
  8
0
100
AcDbLine
 10
4177.0
 20
-40.0
 30
0.0
 11
4213.0
 21
-40.0
 31
0.0
  0
MTEXT
  5
534
330
529
100
AcDbEntity
  8
COTA
100
AcDbMText
 10
4172.0
 20
-40.0
 30
0.0
 40
5.0
 71
5
  1
88
  0
POINT
  5
535
330
529
100
AcDbEntity
  8
Defpoints
100
AcDbPoint
 10
4128.0
 20
-40.0
 30
0.0
  0
POINT
  5
536
330
529
100
AcDbEntity
  8
Defpoints
100
AcDbPoint
 10
4128.0
 20
0.0
 30
0.0
  0
POINT
  5
537
330
529
100
AcDbEntity
  8
Defpoints
100
AcDbPoint
 10
4216.0
 20
0.0
 30
0.0
  0
ENDBLK
  5
52B
330
529
100
AcDbEntity
  8
0
100
AcDbBlockEnd
  0
BLOCK
  5
53E
330
53D
100
AcDbEntity
  8
0
100
AcDbBlockBegin
  2
*D62
 70
1
 10
0.0
 20
0.0
 30
0.0
  3
*D62
  1

  0
LINE
  5
540
330
53D
100
AcDbEntity
  8
0
100
AcDbLine
 10
4217.0
 20
2.2
 30
0.0
 11
4267.0
 21
2.2
 31
0.0
  0
LINE
  5
541
330
53D
100
AcDbEntity
  8
0
100
AcDbLine
 10
4217.0
 20
282.2
 30
0.0
 11
4267.0
 21
282.2
 31
0.0
  0
INSERT
  5
542
330
53D
100
AcDbEntity
  8
COTA
100
AcDbBlockReference
  2
_CLOSEDFILLED
 10
4266.0
 20
2.2
 30
0.0
 41
3.0
 42
3.0
 50
270.0
  0
INSERT
  5
544
330
53D
100
AcDbEntity
  8
COTA
100
AcDbBlockReference
  2
_CLOSEDFILLED
 10
4266.0
 20
282.2
 30
0.0
 41
3.0
 42
3.0
 50
90.0
  0
LINE
  5
546
330
53D
100
AcDbEntity
  8
0
100
AcDbLine
 10
4266.0
 20
5.2
 30
0.0
 11
4266.0
 21
134.7
 31
0.0
  0
LINE
  5
547
330
53D
100
AcDbEntity
  8
0
100
AcDbLine
 10
4266.0
 20
149.7
 30
0.0
 11
4266.0
 21
279.2
 31
0.0
  0
MTEXT
  5
548
330
53D
100
AcDbEntity
  8
COTA
100
AcDbMText
 10
4266.0
 20
142.2
 30
0.0
 40
5.0
 71
5
  1
280
 50
90.0
  0
POINT
  5
549
330
53D
100
AcDbEntity
  8
Defpoints
100
AcDbPoint
 10
4266.0
 20
2.2
 30
0.0
  0
POINT
  5
54A
330
53D
100
AcDbEntity
  8
Defpoints
100
AcDbPoint
 10
4216.0
 20
2.2
 30
0.0
  0
POINT
  5
54B
330
53D
100
AcDbEntity
  8
Defpoints
100
AcDbPoint
 10
4216.0
 20
282.2
 30
0.0
  0
ENDBLK
  5
53F
330
53D
100
AcDbEntity
  8
0
100
AcDbBlockEnd
  0
BLOCK
  5
54E
330
54D
100
AcDbEntity
  8
0
100
AcDbBlockBegin
  2
*D63
 70
1
 10
0.0
 20
0.0
 30
0.0
  3
*D63
  1

  0
LINE
  5
550
330
54D
100
AcDbEntity
  8
0
100
AcDbLine
 10
4217.0
 20
2.2
 30
0.0
 11
4247.0
 21
2.2
 31
0.0
  0
LINE
  5
551
330
54D
100
AcDbEntity
  8
0
100
AcDbLine
 10
4217.0
 20
32.2
 30
0.0
 11
4247.0
 21
32.2
 31
0.0
  0
INSERT
  5
552
330
54D
100
AcDbEntity
  8
COTA
100
AcDbBlockReference
  2
_CLOSEDFILLED
 10
4246.0
 20
2.2
 30
0.0
 41
3.0
 42
3.0
 50
270.0
  0
INSERT
  5
554
330
54D
100
AcDbEntity
  8
COTA
100
AcDbBlockReference
  2
_CLOSEDFILLED
 10
4246.0
 20
32.2
 30
0.0
 41
3.0
 42
3.0
 50
90.0
  0
LINE
  5
556
330
54D
100
AcDbEntity
  8
0
100
AcDbLine
 10
4246.0
 20
5.2
 30
0.0
 11
4246.0
 21
12.200000000000003
 31
0.0
  0
LINE
  5
557
330
54D
100
AcDbEntity
  8
0
100
AcDbLine
 10
4246.0
 20
22.200000000000003
 30
0.0
 11
4246.0
 21
29.200000000000003
 31
0.0
  0
MTEXT
  5
558
330
54D
100
AcDbEntity
  8
COTA
100
AcDbMText
 10
4246.0
 20
17.200000000000003
 30
0.0
 40
5.0
 71
5
  1
30
 50
90.0
  0
POINT
  5
559
330
54D
100
AcDbEntity
  8
Defpoints
100
AcDbPoint
 10
4246.0
 20
2.2
 30
0.0
  0
POINT
  5
55A
330
54D
100
AcDbEntity
  8
Defpoints
100
AcDbPoint
 10
4216.0
 20
2.2
 30
0.0
  0
POINT
  5
55B
330
54D
100
AcDbEntity
  8
Defpoints
100
AcDbPoint
 10
4216.0
 20
32.2
 30
0.0
  0
ENDBLK
  5
54F
330
54D
100
AcDbEntity
  8
0
100
AcDbBlockEnd
  0
BLOCK
  5
55E
330
55D
100
AcDbEntity
  8
0
100
AcDbBlockBegin
  2
*D64
 70
1
 10
0.0
 20
0.0
 30
0.0
  3
*D64
  1

  0
LINE
  5
560
330
55D
100
AcDbEntity
  8
0
100
AcDbLine
 10
4217.0
 20
32.2
 30
0.0
 11
4247.0
 21
32.2
 31
0.0
  0
LINE
  5
561
330
55D
100
AcDbEntity
  8
0
100
AcDbLine
 10
4217.0
 20
42.2
 30
0.0
 11
4247.0
 21
42.2
 31
0.0
  0
INSERT
  5
562
330
55D
100
AcDbEntity
  8
COTA
100
AcDbBlockReference
  2
_CLOSEDFILLED
 10
4246.0
 20
32.2
 30
0.0
 41
3.0
 42
3.0
 50
270.0
  0
INSERT
  5
564
330
55D
100
AcDbEntity
  8
COTA
100
AcDbBlockReference
  2
_CLOSEDFILLED
 10
4246.0
 20
42.2
 30
0.0
 41
3.0
 42
3.0
 50
90.0
  0
LINE
  5
566
330
55D
100
AcDbEntity
  8
0
100
AcDbLine
 10
4246.0
 20
35.2
 30
0.0
 11
4246.0
 21
39.2
 31
0.0
  0
MTEXT
  5
567
330
55D
100
AcDbEntity
  8
COTA
100
AcDbMText
 10
4241.5
 20
37.2
 30
0.0
 40
5.0
 71
5
  1
10
 50
90.0
  0
POINT
  5
568
330
55D
100
AcDbEntity
  8
Defpoints
100
AcDbPoint
 10
4246.0
 20
32.2
 30
0.0
  0
POINT
  5
569
330
55D
100
AcDbEntity
  8
Defpoints
100
AcDbPoint
 10
4216.0
 20
32.2
 30
0.0
  0
POINT
  5
56A
330
55D
100
AcDbEntity
  8
Defpoints
100
AcDbPoint
 10
4216.0
 20
42.2
 30
0.0
  0
ENDBLK
  5
55F
330
55D
100
AcDbEntity
  8
0
100
AcDbBlockEnd
  0
BLOCK
  5
56D
330
56C
100
AcDbEntity
  8
0
100
AcDbBlockBegin
  2
*D65
 70
1
 10
0.0
 20
0.0
 30
0.0
  3
*D65
  1

  0
LINE
  5
56F
330
56C
100
AcDbEntity
  8
0
100
AcDbLine
 10
4217.0
 20
42.2
 30
0.0
 11
4247.0
 21
42.2
 31
0.0
  0
LINE
  5
570
330
56C
100
AcDbEntity
  8
0
100
AcDbLine
 10
4217.0
 20
92.2
 30
0.0
 11
4247.0
 21
92.2
 31
0.0
  0
INSERT
  5
571
330
56C
100
AcDbEntity
  8
COTA
100
AcDbBlockReference
  2
_CLOSEDFILLED
 10
4246.0
 20
42.2
 30
0.0
 41
3.0
 42
3.0
 50
270.0
  0
INSERT
  5
573
330
56C
100
AcDbEntity
  8
COTA
100
AcDbBlockReference
  2
_CLOSEDFILLED
 10
4246.0
 20
92.2
 30
0.0
 41
3.0
 42
3.0
 50
90.0
  0
LINE
  5
575
330
56C
100
AcDbEntity
  8
0
100
AcDbLine
 10
4246.0
 20
45.2
 30
0.0
 11
4246.0
 21
62.2
 31
0.0
  0
LINE
  5
576
330
56C
100
AcDbEntity
  8
0
100
AcDbLine
 10
4246.0
 20
72.2
 30
0.0
 11
4246.0
 21
89.2
 31
0.0
  0
MTEXT
  5
577
330
56C
100
AcDbEntity
  8
COTA
100
AcDbMText
 10
4246.0
 20
67.2
 30
0.0
 40
5.0
 71
5
  1
50
 50
90.0
  0
POINT
  5
578
330
56C
100
AcDbEntity
  8
Defpoints
100
AcDbPoint
 10
4246.0
 20
42.2
 30
0.0
  0
POINT
  5
579
330
56C
100
AcDbEntity
  8
Defpoints
100
AcDbPoint
 10
4216.0
 20
42.2
 30
0.0
  0
POINT
  5
57A
330
56C
100
AcDbEntity
  8
Defpoints
100
AcDbPoint
 10
4216.0
 20
92.2
 30
0.0
  0
ENDBLK
  5
56E
330
56C
100
AcDbEntity
  8
0
100
AcDbBlockEnd
  0
BLOCK
  5
57D
330
57C
100
AcDbEntity
  8
0
100
AcDbBlockBegin
  2
*D66
 70
1
 10
0.0
 20
0.0
 30
0.0
  3
*D66
  1

  0
LINE
  5
57F
330
57C
100
AcDbEntity
  8
0
100
AcDbLine
 10
4217.0
 20
92.2
 30
0.0
 11
4247.0
 21
92.2
 31
0.0
  0
LINE
  5
580
330
57C
100
AcDbEntity
  8
0
100
AcDbLine
 10
4217.0
 20
102.2
 30
0.0
 11
4247.0
 21
102.2
 31
0.0
  0
INSERT
  5
581
330
57C
100
AcDbEntity
  8
COTA
100
AcDbBlockReference
  2
_CLOSEDFILLED
 10
4246.0
 20
92.2
 30
0.0
 41
3.0
 42
3.0
 50
270.0
  0
INSERT
  5
583
330
57C
100
AcDbEntity
  8
COTA
100
AcDbBlockReference
  2
_CLOSEDFILLED
 10
4246.0
 20
102.2
 30
0.0
 41
3.0
 42
3.0
 50
90.0
  0
LINE
  5
585
330
57C
100
AcDbEntity
  8
0
100
AcDbLine
 10
4246.0
 20
95.2
 30
0.0
 11
4246.0
 21
99.2
 31
0.0
  0
MTEXT
  5
586
330
57C
100
AcDbEntity
  8
COTA
100
AcDbMText
 10
4241.5
 20
97.2
 30
0.0
 40
5.0
 71
5
  1
10
 50
90.0
  0
POINT
  5
587
330
57C
100
AcDbEntity
  8
Defpoints
100
AcDbPoint
 10
4246.0
 20
92.2
 30
0.0
  0
POINT
  5
588
330
57C
100
AcDbEntity
  8
Defpoints
100
AcDbPoint
 10
4216.0
 20
92.2
 30
0.0
  0
POINT
  5
589
330
57C
100
AcDbEntity
  8
Defpoints
100
AcDbPoint
 10
4216.0
 20
102.2
 30
0.0
  0
ENDBLK
  5
57E
330
57C
100
AcDbEntity
  8
0
100
AcDbBlockEnd
  0
BLOCK
  5
58C
330
58B
100
AcDbEntity
  8
0
100
AcDbBlockBegin
  2
*D67
 70
1
 10
0.0
 20
0.0
 30
0.0
  3
*D67
  1

  0
LINE
  5
58E
330
58B
100
AcDbEntity
  8
0
100
AcDbLine
 10
4217.0
 20
102.2
 30
0.0
 11
4247.0
 21
102.2
 31
0.0
  0
LINE
  5
58F
330
58B
100
AcDbEntity
  8
0
100
AcDbLine
 10
4217.0
 20
152.2
 30
0.0
 11
4247.0
 21
152.2
 31
0.0
  0
INSERT
  5
590
330
58B
100
AcDbEntity
  8
COTA
100
AcDbBlockReference
  2
_CLOSEDFILLED
 10
4246.0
 20
102.2
 30
0.0
 41
3.0
 42
3.0
 50
270.0
  0
INSERT
  5
592
330
58B
100
AcDbEntity
  8
COTA
100
AcDbBlockReference
  2
_CLOSEDFILLED
 10
4246.0
 20
152.2
 30
0.0
 41
3.0
 42
3.0
 50
90.0
  0
LINE
  5
594
330
58B
100
AcDbEntity
  8
0
100
AcDbLine
 10
4246.0
 20
105.2
 30
0.0
 11
4246.0
 21
122.19999999999999
 31
0.0
  0
LINE
  5
595
330
58B
100
AcDbEntity
  8
0
100
AcDbLine
 10
4246.0
 20
132.2
 30
0.0
 11
4246.0
 21
149.2
 31
0.0
  0
MTEXT
  5
596
330
58B
100
AcDbEntity
  8
COTA
100
AcDbMText
 10
4246.0
 20
127.19999999999999
 30
0.0
 40
5.0
 71
5
  1
50
 50
90.0
  0
POINT
  5
597
330
58B
100
AcDbEntity
  8
Defpoints
100
AcDbPoint
 10
4246.0
 20
102.2
 30
0.0
  0
POINT
  5
598
330
58B
100
AcDbEntity
  8
Defpoints
100
AcDbPoint
 10
4216.0
 20
102.2
 30
0.0
  0
POINT
  5
599
330
58B
100
AcDbEntity
  8
Defpoints
100
AcDbPoint
 10
4216.0
 20
152.2
 30
0.0
  0
ENDBLK
  5
58D
330
58B
100
AcDbEntity
  8
0
100
AcDbBlockEnd
  0
BLOCK
  5
59C
330
59B
100
AcDbEntity
  8
0
100
AcDbBlockBegin
  2
*D68
 70
1
 10
0.0
 20
0.0
 30
0.0
  3
*D68
  1

  0
LINE
  5
59E
330
59B
100
AcDbEntity
  8
0
100
AcDbLine
 10
4217.0
 20
152.2
 30
0.0
 11
4247.0
 21
152.2
 31
0.0
  0
LINE
  5
59F
330
59B
100
AcDbEntity
  8
0
100
AcDbLine
 10
4217.0
 20
162.2
 30
0.0
 11
4247.0
 21
162.2
 31
0.0
  0
INSERT
  5
5A0
330
59B
100
AcDbEntity
  8
COTA
100
AcDbBlockReference
  2
_CLOSEDFILLED
 10
4246.0
 20
152.2
 30
0.0
 41
3.0
 42
3.0
 50
270.0
  0
INSERT
  5
5A2
330
59B
100
AcDbEntity
  8
COTA
100
AcDbBlockReference
  2
_CLOSEDFILLED
 10
4246.0
 20
162.2
 30
0.0
 41
3.0
 42
3.0
 50
90.0
  0
LINE
  5
5A4
330
59B
100
AcDbEntity
  8
0
100
AcDbLine
 10
4246.0
 20
155.2
 30
0.0
 11
4246.0
 21
159.2
 31
0.0
  0
MTEXT
  5
5A5
330
59B
100
AcDbEntity
  8
COTA
100
AcDbMText
 10
4241.5
 20
157.2
 30
0.0
 40
5.0
 71
5
  1
10
 50
90.0
  0
POINT
  5
5A6
330
59B
100
AcDbEntity
  8
Defpoints
100
AcDbPoint
 10
4246.0
 20
152.2
 30
0.0
  0
POINT
  5
5A7
330
59B
100
AcDbEntity
  8
Defpoints
100
AcDbPoint
 10
4216.0
 20
152.2
 30
0.0
  0
POINT
  5
5A8
330
59B
100
AcDbEntity
  8
Defpoints
100
AcDbPoint
 10
4216.0
 20
162.2
 30
0.0
  0
ENDBLK
  5
59D
330
59B
100
AcDbEntity
  8
0
100
AcDbBlockEnd
  0
BLOCK
  5
5AB
330
5AA
100
AcDbEntity
  8
0
100
AcDbBlockBegin
  2
*D69
 70
1
 10
0.0
 20
0.0
 30
0.0
  3
*D69
  1

  0
LINE
  5
5AD
330
5AA
100
AcDbEntity
  8
0
100
AcDbLine
 10
4217.0
 20
162.2
 30
0.0
 11
4247.0
 21
162.2
 31
0.0
  0
LINE
  5
5AE
330
5AA
100
AcDbEntity
  8
0
100
AcDbLine
 10
4217.0
 20
212.2
 30
0.0
 11
4247.0
 21
212.2
 31
0.0
  0
INSERT
  5
5AF
330
5AA
100
AcDbEntity
  8
COTA
100
AcDbBlockReference
  2
_CLOSEDFILLED
 10
4246.0
 20
162.2
 30
0.0
 41
3.0
 42
3.0
 50
270.0
  0
INSERT
  5
5B1
330
5AA
100
AcDbEntity
  8
COTA
100
AcDbBlockReference
  2
_CLOSEDFILLED
 10
4246.0
 20
212.2
 30
0.0
 41
3.0
 42
3.0
 50
90.0
  0
LINE
  5
5B3
330
5AA
100
AcDbEntity
  8
0
100
AcDbLine
 10
4246.0
 20
165.2
 30
0.0
 11
4246.0
 21
182.2
 31
0.0
  0
LINE
  5
5B4
330
5AA
100
AcDbEntity
  8
0
100
AcDbLine
 10
4246.0
 20
192.2
 30
0.0
 11
4246.0
 21
209.2
 31
0.0
  0
MTEXT
  5
5B5
330
5AA
100
AcDbEntity
  8
COTA
100
AcDbMText
 10
4246.0
 20
187.2
 30
0.0
 40
5.0
 71
5
  1
50
 50
90.0
  0
POINT
  5
5B6
330
5AA
100
AcDbEntity
  8
Defpoints
100
AcDbPoint
 10
4246.0
 20
162.2
 30
0.0
  0
POINT
  5
5B7
330
5AA
100
AcDbEntity
  8
Defpoints
100
AcDbPoint
 10
4216.0
 20
162.2
 30
0.0
  0
POINT
  5
5B8
330
5AA
100
AcDbEntity
  8
Defpoints
100
AcDbPoint
 10
4216.0
 20
212.2
 30
0.0
  0
ENDBLK
  5
5AC
330
5AA
100
AcDbEntity
  8
0
100
AcDbBlockEnd
  0
BLOCK
  5
5BB
330
5BA
100
AcDbEntity
  8
0
100
AcDbBlockBegin
  2
*D70
 70
1
 10
0.0
 20
0.0
 30
0.0
  3
*D70
  1

  0
LINE
  5
5BD
330
5BA
100
AcDbEntity
  8
0
100
AcDbLine
 10
4217.0
 20
212.2
 30
0.0
 11
4247.0
 21
212.2
 31
0.0
  0
LINE
  5
5BE
330
5BA
100
AcDbEntity
  8
0
100
AcDbLine
 10
4217.0
 20
222.2
 30
0.0
 11
4247.0
 21
222.2
 31
0.0
  0
INSERT
  5
5BF
330
5BA
100
AcDbEntity
  8
COTA
100
AcDbBlockReference
  2
_CLOSEDFILLED
 10
4246.0
 20
212.2
 30
0.0
 41
3.0
 42
3.0
 50
270.0
  0
INSERT
  5
5C1
330
5BA
100
AcDbEntity
  8
COTA
100
AcDbBlockReference
  2
_CLOSEDFILLED
 10
4246.0
 20
222.2
 30
0.0
 41
3.0
 42
3.0
 50
90.0
  0
LINE
  5
5C3
330
5BA
100
AcDbEntity
  8
0
100
AcDbLine
 10
4246.0
 20
215.2
 30
0.0
 11
4246.0
 21
219.2
 31
0.0
  0
MTEXT
  5
5C4
330
5BA
100
AcDbEntity
  8
COTA
100
AcDbMText
 10
4241.5
 20
217.2
 30
0.0
 40
5.0
 71
5
  1
10
 50
90.0
  0
POINT
  5
5C5
330
5BA
100
AcDbEntity
  8
Defpoints
100
AcDbPoint
 10
4246.0
 20
212.2
 30
0.0
  0
POINT
  5
5C6
330
5BA
100
AcDbEntity
  8
Defpoints
100
AcDbPoint
 10
4216.0
 20
212.2
 30
0.0
  0
POINT
  5
5C7
330
5BA
100
AcDbEntity
  8
Defpoints
100
AcDbPoint
 10
4216.0
 20
222.2
 30
0.0
  0
ENDBLK
  5
5BC
330
5BA
100
AcDbEntity
  8
0
100
AcDbBlockEnd
  0
BLOCK
  5
5CA
330
5C9
100
AcDbEntity
  8
0
100
AcDbBlockBegin
  2
*D71
 70
1
 10
0.0
 20
0.0
 30
0.0
  3
*D71
  1

  0
LINE
  5
5CC
330
5C9
100
AcDbEntity
  8
0
100
AcDbLine
 10
4217.0
 20
222.2
 30
0.0
 11
4247.0
 21
222.2
 31
0.0
  0
LINE
  5
5CD
330
5C9
100
AcDbEntity
  8
0
100
AcDbLine
 10
4217.0
 20
272.2
 30
0.0
 11
4247.0
 21
272.2
 31
0.0
  0
INSERT
  5
5CE
330
5C9
100
AcDbEntity
  8
COTA
100
AcDbBlockReference
  2
_CLOSEDFILLED
 10
4246.0
 20
222.2
 30
0.0
 41
3.0
 42
3.0
 50
270.0
  0
INSERT
  5
5D0
330
5C9
100
AcDbEntity
  8
COTA
100
AcDbBlockReference
  2
_CLOSEDFILLED
 10
4246.0
 20
272.2
 30
0.0
 41
3.0
 42
3.0
 50
90.0
  0
LINE
  5
5D2
330
5C9
100
AcDbEntity
  8
0
100
AcDbLine
 10
4246.0
 20
225.2
 30
0.0
 11
4246.0
 21
242.2
 31
0.0
  0
LINE
  5
5D3
330
5C9
100
AcDbEntity
  8
0
100
AcDbLine
 10
4246.0
 20
252.2
 30
0.0
 11
4246.0
 21
269.2
 31
0.0
  0
MTEXT
  5
5D4
330
5C9
100
AcDbEntity
  8
COTA
100
AcDbMText
 10
4246.0
 20
247.2
 30
0.0
 40
5.0
 71
5
  1
50
 50
90.0
  0
POINT
  5
5D5
330
5C9
100
AcDbEntity
  8
Defpoints
100
AcDbPoint
 10
4246.0
 20
222.2
 30
0.0
  0
POINT
  5
5D6
330
5C9
100
AcDbEntity
  8
Defpoints
100
AcDbPoint
 10
4216.0
 20
222.2
 30
0.0
  0
POINT
  5
5D7
330
5C9
100
AcDbEntity
  8
Defpoints
100
AcDbPoint
 10
4216.0
 20
272.2
 30
0.0
  0
ENDBLK
  5
5CB
330
5C9
100
AcDbEntity
  8
0
100
AcDbBlockEnd
  0
BLOCK
  5
5DA
330
5D9
100
AcDbEntity
  8
0
100
AcDbBlockBegin
  2
*D72
 70
1
 10
0.0
 20
0.0
 30
0.0
  3
*D72
  1

  0
LINE
  5
5DC
330
5D9
100
AcDbEntity
  8
0
100
AcDbLine
 10
4217.0
 20
272.2
 30
0.0
 11
4247.0
 21
272.2
 31
0.0
  0
LINE
  5
5DD
330
5D9
100
AcDbEntity
  8
0
100
AcDbLine
 10
4217.0
 20
282.2
 30
0.0
 11
4247.0
 21
282.2
 31
0.0
  0
INSERT
  5
5DE
330
5D9
100
AcDbEntity
  8
COTA
100
AcDbBlockReference
  2
_CLOSEDFILLED
 10
4246.0
 20
272.2
 30
0.0
 41
3.0
 42
3.0
 50
270.0
  0
INSERT
  5
5E0
330
5D9
100
AcDbEntity
  8
COTA
100
AcDbBlockReference
  2
_CLOSEDFILLED
 10
4246.0
 20
282.2
 30
0.0
 41
3.0
 42
3.0
 50
90.0
  0
LINE
  5
5E2
330
5D9
100
AcDbEntity
  8
0
100
AcDbLine
 10
4246.0
 20
275.2
 30
0.0
 11
4246.0
 21
279.2
 31
0.0
  0
MTEXT
  5
5E3
330
5D9
100
AcDbEntity
  8
COTA
100
AcDbMText
 10
4241.5
 20
277.2
 30
0.0
 40
5.0
 71
5
  1
10
 50
90.0
  0
POINT
  5
5E4
330
5D9
100
AcDbEntity
  8
Defpoints
100
AcDbPoint
 10
4246.0
 20
272.2
 30
0.0
  0
POINT
  5
5E5
330
5D9
100
AcDbEntity
  8
Defpoints
100
AcDbPoint
 10
4216.0
 20
272.2
 30
0.0
  0
POINT
  5
5E6
330
5D9
100
AcDbEntity
  8
Defpoints
100
AcDbPoint
 10
4216.0
 20
282.2
 30
0.0
  0
ENDBLK
  5
5DB
330
5D9
100
AcDbEntity
  8
0
100
AcDbBlockEnd
  0
ENDSEC
  0
SECTION
  2
ENTITIES
  0
LWPOLYLINE
  5
9C
330
17
100
AcDbEntity
  8
Nível
  6
DASHED
100
AcDbPolyline
 90
2
 70
0
 10
-7000.0
 20
-100.0
 10
-6000.0
 20
-100.0
  0
LWPOLYLINE
  5
9D
330
17
100
AcDbEntity
  8
Nível
  6
DASHED
100
AcDbPolyline
 90
2
 70
0
 10
-7000.0
 20
-421.0
 10
-6000.0
 20
-421.0
  0
DIMENSION
  5
9E
330
17
100
AcDbEntity
  8
COTA
100
AcDbDimension
280
0
  2
*D1
  3
PAINEL-NOVA
 10
-6970.0
 20
-421.0
 30
0.0
 11
-6970.0
 21
-260.5
 31
0.0
 70
32
 71
5
  1
<>
100
AcDbAlignedDimension
 13
-6950.0
 23
-421.0
 33
0.0
 14
-6950.0
 24
-100.0
 34
0.0
 50
90.0
100
AcDbRotatedDimension
  0
INSERT
  5
B2
330
17
100
AcDbEntity
  8
COTA
100
AcDbBlockReference
  2
MULDURA
 10
-7000.0
 20
-383.0
 30
0.0
  0
TEXT
  5
B4
330
17
100
AcDbEntity
  8
NOMENCLATURA
100
AcDbText
 10
-6969.0
 20
280.0
 30
0.0
 40
15.0
  1
CENARIOS - PD: 3.21
100
AcDbText
  0
TEXT
  5
B5
330
17
100
AcDbEntity
  8
NOMENCLATURA
100
AcDbText
 10
-6969.0
 20
255.0
 30
0.0
 40
15.0
  1
NIVEL DE SAIDA: 2.80
100
AcDbText
  0
TEXT
  5
B6
330
17
100
AcDbEntity
  8
NOMENCLATURA
100
AcDbText
 10
-6969.0
 20
230.0
 30
0.0
 40
15.0
  1
NIVEL DE CHEGADA: 0.00
100
AcDbText
  0
LINE
  5
B7
330
17
100
AcDbEntity
  8
Painéis
100
AcDbLine
 10
-6920.0
 20
-421.0
 30
0.0
 11
-6832.0
 21
-421.0
 31
0.0
  0
LINE
  5
B8
330
17
100
AcDbEntity
  8
Painéis
100
AcDbLine
 10
-6920.0
 20
-299.0
 30
0.0
 11
-6832.0
 21
-299.0
 31
0.0
  0
LINE
  5
B9
330
17
100
AcDbEntity
  8
Painéis
100
AcDbLine
 10
-6920.0
 20
-273.0
 30
0.0
 11
-6832.0
 21
-273.0
 31
0.0
  0
LINE
  5
BA
330
17
100
AcDbEntity
  8
Painéis
100
AcDbLine
 10
-6920.0
 20
-258.0
 30
0.0
 11
-6832.0
 21
-258.0
 31
0.0
  0
LINE
  5
BB
330
17
100
AcDbEntity
  8
Painéis
100
AcDbLine
 10
-6920.0
 20
-161.0
 30
0.0
 11
-6832.0
 21
-161.0
 31
0.0
  0
LINE
  5
BC
330
17
100
AcDbEntity
  8
Painéis
100
AcDbLine
 10
-6920.0
 20
-121.0
 30
0.0
 11
-6861.0
 21
-121.0
 31
0.0
  0
LINE
  5
BD
330
17
100
AcDbEntity
  8
Painéis
100
AcDbLine
 10
-6861.0
 20
-161.0
 30
0.0
 11
-6861.0
 21
-121.0
 31
0.0
  0
LINE
  5
BE
330
17
100
AcDbEntity
  8
Painéis
100
AcDbLine
 10
-6920.0
 20
-421.0
 30
0.0
 11
-6920.0
 21
-121.0
 31
0.0
  0
LINE
  5
BF
330
17
100
AcDbEntity
  8
Painéis
100
AcDbLine
 10
-6832.0
 20
-421.0
 30
0.0
 11
-6832.0
 21
-161.0
 31
0.0
  0
LINE
  5
C0
330
17
100
AcDbEntity
  8
COTA
100
AcDbLine
 10
-6861.0
 20
-121.0
 30
0.0
 11
-6832.0
 21
-121.0
 31
0.0
  0
LINE
  5
C1
330
17
100
AcDbEntity
  8
COTA
100
AcDbLine
 10
-6920.0
 20
-121.0
 30
0.0
 11
-6920.0
 21
-100.0
 31
0.0
  0
LINE
  5
C2
330
17
100
AcDbEntity
  8
COTA
100
AcDbLine
 10
-6832.0
 20
-121.0
 30
0.0
 11
-6832.0
 21
-100.0
 31
0.0
  0
LINE
  5
C3
330
17
100
AcDbEntity
  8
COTA
100
AcDbLine
 10
-6920.0
 20
-100.0
 30
0.0
 11
-6832.0
 21
-100.0
 31
0.0
  0
LWPOLYLINE
  5
C4
330
17
100
AcDbEntity
  8
SARR_2.2x7
100
AcDbPolyline
 90
2
 70
0
 10
-6913.0
 20
-421.0
 10
-6913.0
 20
-299.0
  0
LWPOLYLINE
  5
C5
330
17
100
AcDbEntity
  8
SARR_2.2x7
100
AcDbPolyline
 90
2
 70
0
 10
-6913.0
 20
-299.0
 10
-6913.0
 20
-121.0
  0
LWPOLYLINE
  5
C6
330
17
100
AcDbEntity
  8
SARR_2.2x7
100
AcDbPolyline
 90
2
 70
0
 10
-6839.0
 20
-421.0
 10
-6839.0
 20
-299.0
  0
LWPOLYLINE
  5
C7
330
17
100
AcDbEntity
  8
SARR_2.2x7
100
AcDbPolyline
 90
2
 70
0
 10
-6839.0
 20
-299.0
 10
-6839.0
 20
-161.0
  0
DIMENSION
  5
C8
330
17
100
AcDbEntity
  8
COTA
 62
4
100
AcDbDimension
280
0
  2
*D2
  3
PAINEL-NOVA
 10
-6813.0
 20
-421.0
 30
0.0
 11
-6817.5
 21
-421.0
 31
0.0
 70
32
 71
5
  1
<>
100
AcDbAlignedDimension
 13
-6832.0
 23
-421.0
 33
0.0
 14
-6832.0
 24
-421.0
 34
0.0
 50
90.0
100
AcDbRotatedDimension
  0
DIMENSION
  5
D9
330
17
100
AcDbEntity
  8
COTA
 62
4
100
AcDbDimension
280
0
  2
*D3
  3
PAINEL-NOVA
 10
-6794.0
 20
-421.0
 30
0.0
 11
-6794.0
 21
-360.0
 31
0.0
 70
32
 71
5
  1
<>
100
AcDbAlignedDimension
 13
-6832.0
 23
-421.0
 33
0.0
 14
-6832.0
 24
-299.0
 34
0.0
 50
90.0
100
AcDbRotatedDimension
  0
DIMENSION
  5
E9
330
17
100
AcDbEntity
  8
COTA
 62
4
100
AcDbDimension
280
0
  2
*D4
  3
PAINEL-NOVA
 10
-6794.0
 20
-299.0
 30
0.0
 11
-6794.0
 21
-286.0
 31
0.0
 70
32
 71
5
  1
<>
100
AcDbAlignedDimension
 13
-6832.0
 23
-299.0
 33
0.0
 14
-6832.0
 24
-273.0
 34
0.0
 50
90.0
100
AcDbRotatedDimension
  0
DIMENSION
  5
F9
330
17
100
AcDbEntity
  8
COTA
 62
4
100
AcDbDimension
280
0
  2
*D5
  3
PAINEL-NOVA
 10
-6794.0
 20
-273.0
 30
0.0
 11
-6798.5
 21
-265.5
 31
0.0
 70
32
 71
5
  1
<>
100
AcDbAlignedDimension
 13
-6832.0
 23
-273.0
 33
0.0
 14
-6832.0
 24
-258.0
 34
0.0
 50
90.0
100
AcDbRotatedDimension
  0
DIMENSION
  5
108
330
17
100
AcDbEntity
  8
COTA
 62
4
100
AcDbDimension
280
0
  2
*D6
  3
PAINEL-NOVA
 10
-6794.0
 20
-258.0
 30
0.0
 11
-6794.0
 21
-209.5
 31
0.0
 70
32
 71
5
  1
<>
100
AcDbAlignedDimension
 13
-6832.0
 23
-258.0
 33
0.0
 14
-6832.0
 24
-161.0
 34
0.0
 50
90.0
100
AcDbRotatedDimension
  0
DIMENSION
  5
118
330
17
100
AcDbEntity
  8
COTA
 62
4
100
AcDbDimension
280
0
  2
*D7
  3
PAINEL-NOVA
 10
-6794.0
 20
-161.0
 30
0.0
 11
-6794.0
 21
-141.0
 31
0.0
 70
32
 71
5
  1
<>
100
AcDbAlignedDimension
 13
-6832.0
 23
-161.0
 33
0.0
 14
-6832.0
 24
-121.0
 34
0.0
 50
90.0
100
AcDbRotatedDimension
  0
DIMENSION
  5
128
330
17
100
AcDbEntity
  8
COTA
 62
4
100
AcDbDimension
280
0
  2
*D8
  3
PAINEL-NOVA
 10
-6794.0
 20
-121.0
 30
0.0
 11
-6794.0
 21
-110.5
 31
0.0
 70
32
 71
5
  1
<>
100
AcDbAlignedDimension
 13
-6832.0
 23
-121.0
 33
0.0
 14
-6832.0
 24
-100.0
 34
0.0
 50
90.0
100
AcDbRotatedDimension
  0
DIMENSION
  5
138
330
17
100
AcDbEntity
  8
COTA
 62
4
100
AcDbDimension
280
0
  2
*D9
  3
PAINEL-NOVA
 10
-6920.0
 20
-440.0
 30
0.0
 11
-6916.5
 21
-435.5
 31
0.0
 70
32
 71
5
  1
<>
100
AcDbAlignedDimension
 13
-6920.0
 23
-421.0
 33
0.0
 14
-6913.0
 24
-421.0
 34
0.0
 50
0.0
100
AcDbRotatedDimension
  0
DIMENSION
  5
147
330
17
100
AcDbEntity
  8
COTA
 62
4
100
AcDbDimension
280
0
  2
*D10
  3
PAINEL-NOVA
 10
-6839.0
 20
-440.0
 30
0.0
 11
-6835.5
 21
-435.5
 31
0.0
 70
32
 71
5
  1
<>
100
AcDbAlignedDimension
 13
-6839.0
 23
-421.0
 33
0.0
 14
-6832.0
 24
-421.0
 34
0.0
 50
0.0
100
AcDbRotatedDimension
  0
DIMENSION
  5
156
330
17
100
AcDbEntity
  8
COTA
 62
4
100
AcDbDimension
280
0
  2
*D11
  3
PAINEL-NOVA
 10
-6920.0
 20
-464.0
 30
0.0
 11
-6876.0
 21
-464.0
 31
0.0
 70
32
 71
5
  1
<>
100
AcDbAlignedDimension
 13
-6920.0
 23
-421.0
 33
0.0
 14
-6832.0
 24
-421.0
 34
0.0
 50
0.0
100
AcDbRotatedDimension
  0
TEXT
  5
166
330
17
100
AcDbEntity
  8
NOMENCLATURA
100
AcDbText
 10
-6935.0
 20
-416.0
 30
0.0
 40
12.0
  1
P32.A
 50
90.0
100
AcDbText
  0
LINE
  5
167
330
17
100
AcDbEntity
  8
Painéis
100
AcDbLine
 10
-6677.0
 20
-421.0
 30
0.0
 11
-6589.0
 21
-421.0
 31
0.0
  0
LINE
  5
168
330
17
100
AcDbEntity
  8
Painéis
100
AcDbLine
 10
-6677.0
 20
-299.0
 30
0.0
 11
-6589.0
 21
-299.0
 31
0.0
  0
LINE
  5
169
330
17
100
AcDbEntity
  8
Painéis
100
AcDbLine
 10
-6677.0
 20
-273.0
 30
0.0
 11
-6589.0
 21
-273.0
 31
0.0
  0
LINE
  5
16A
330
17
100
AcDbEntity
  8
Painéis
100
AcDbLine
 10
-6677.0
 20
-258.0
 30
0.0
 11
-6589.0
 21
-258.0
 31
0.0
  0
LINE
  5
16B
330
17
100
AcDbEntity
  8
Painéis
100
AcDbLine
 10
-6677.0
 20
-161.0
 30
0.0
 11
-6589.0
 21
-161.0
 31
0.0
  0
LINE
  5
16C
330
17
100
AcDbEntity
  8
Painéis
100
AcDbLine
 10
-6648.0
 20
-121.0
 30
0.0
 11
-6589.0
 21
-121.0
 31
0.0
  0
LINE
  5
16D
330
17
100
AcDbEntity
  8
Painéis
100
AcDbLine
 10
-6648.0
 20
-161.0
 30
0.0
 11
-6648.0
 21
-121.0
 31
0.0
  0
LINE
  5
16E
330
17
100
AcDbEntity
  8
Painéis
100
AcDbLine
 10
-6589.0
 20
-421.0
 30
0.0
 11
-6589.0
 21
-121.0
 31
0.0
  0
LINE
  5
16F
330
17
100
AcDbEntity
  8
Painéis
100
AcDbLine
 10
-6677.0
 20
-421.0
 30
0.0
 11
-6677.0
 21
-161.0
 31
0.0
  0
LINE
  5
170
330
17
100
AcDbEntity
  8
COTA
100
AcDbLine
 10
-6677.0
 20
-121.0
 30
0.0
 11
-6648.0
 21
-121.0
 31
0.0
  0
LINE
  5
171
330
17
100
AcDbEntity
  8
COTA
100
AcDbLine
 10
-6677.0
 20
-121.0
 30
0.0
 11
-6677.0
 21
-100.0
 31
0.0
  0
LINE
  5
172
330
17
100
AcDbEntity
  8
COTA
100
AcDbLine
 10
-6589.0
 20
-121.0
 30
0.0
 11
-6589.0
 21
-100.0
 31
0.0
  0
LINE
  5
173
330
17
100
AcDbEntity
  8
COTA
100
AcDbLine
 10
-6677.0
 20
-100.0
 30
0.0
 11
-6589.0
 21
-100.0
 31
0.0
  0
LWPOLYLINE
  5
174
330
17
100
AcDbEntity
  8
SARR_2.2x7
100
AcDbPolyline
 90
2
 70
0
 10
-6670.0
 20
-421.0
 10
-6670.0
 20
-299.0
  0
LWPOLYLINE
  5
175
330
17
100
AcDbEntity
  8
SARR_2.2x7
100
AcDbPolyline
 90
2
 70
0
 10
-6670.0
 20
-299.0
 10
-6670.0
 20
-161.0
  0
LWPOLYLINE
  5
176
330
17
100
AcDbEntity
  8
SARR_2.2x7
100
AcDbPolyline
 90
2
 70
0
 10
-6596.0
 20
-421.0
 10
-6596.0
 20
-299.0
  0
LWPOLYLINE
  5
177
330
17
100
AcDbEntity
  8
SARR_2.2x7
100
AcDbPolyline
 90
2
 70
0
 10
-6596.0
 20
-299.0
 10
-6596.0
 20
-121.0
  0
DIMENSION
  5
178
330
17
100
AcDbEntity
  8
COTA
 62
4
100
AcDbDimension
280
0
  2
*D12
  3
PAINEL-NOVA
 10
-6570.0
 20
-421.0
 30
0.0
 11
-6574.5
 21
-421.0
 31
0.0
 70
32
 71
5
  1
<>
100
AcDbAlignedDimension
 13
-6589.0
 23
-421.0
 33
0.0
 14
-6589.0
 24
-421.0
 34
0.0
 50
90.0
100
AcDbRotatedDimension
  0
DIMENSION
  5
189
330
17
100
AcDbEntity
  8
COTA
 62
4
100
AcDbDimension
280
0
  2
*D13
  3
PAINEL-NOVA
 10
-6551.0
 20
-421.0
 30
0.0
 11
-6551.0
 21
-360.0
 31
0.0
 70
32
 71
5
  1
<>
100
AcDbAlignedDimension
 13
-6589.0
 23
-421.0
 33
0.0
 14
-6589.0
 24
-299.0
 34
0.0
 50
90.0
100
AcDbRotatedDimension
  0
DIMENSION
  5
199
330
17
100
AcDbEntity
  8
COTA
 62
4
100
AcDbDimension
280
0
  2
*D14
  3
PAINEL-NOVA
 10
-6551.0
 20
-299.0
 30
0.0
 11
-6551.0
 21
-286.0
 31
0.0
 70
32
 71
5
  1
<>
100
AcDbAlignedDimension
 13
-6589.0
 23
-299.0
 33
0.0
 14
-6589.0
 24
-273.0
 34
0.0
 50
90.0
100
AcDbRotatedDimension
  0
DIMENSION
  5
1A9
330
17
100
AcDbEntity
  8
COTA
 62
4
100
AcDbDimension
280
0
  2
*D15
  3
PAINEL-NOVA
 10
-6551.0
 20
-273.0
 30
0.0
 11
-6555.5
 21
-265.5
 31
0.0
 70
32
 71
5
  1
<>
100
AcDbAlignedDimension
 13
-6589.0
 23
-273.0
 33
0.0
 14
-6589.0
 24
-258.0
 34
0.0
 50
90.0
100
AcDbRotatedDimension
  0
DIMENSION
  5
1B8
330
17
100
AcDbEntity
  8
COTA
 62
4
100
AcDbDimension
280
0
  2
*D16
  3
PAINEL-NOVA
 10
-6551.0
 20
-258.0
 30
0.0
 11
-6551.0
 21
-209.5
 31
0.0
 70
32
 71
5
  1
<>
100
AcDbAlignedDimension
 13
-6589.0
 23
-258.0
 33
0.0
 14
-6589.0
 24
-161.0
 34
0.0
 50
90.0
100
AcDbRotatedDimension
  0
DIMENSION
  5
1C8
330
17
100
AcDbEntity
  8
COTA
 62
4
100
AcDbDimension
280
0
  2
*D17
  3
PAINEL-NOVA
 10
-6551.0
 20
-161.0
 30
0.0
 11
-6551.0
 21
-141.0
 31
0.0
 70
32
 71
5
  1
<>
100
AcDbAlignedDimension
 13
-6589.0
 23
-161.0
 33
0.0
 14
-6589.0
 24
-121.0
 34
0.0
 50
90.0
100
AcDbRotatedDimension
  0
DIMENSION
  5
1D8
330
17
100
AcDbEntity
  8
COTA
 62
4
100
AcDbDimension
280
0
  2
*D18
  3
PAINEL-NOVA
 10
-6551.0
 20
-121.0
 30
0.0
 11
-6551.0
 21
-110.5
 31
0.0
 70
32
 71
5
  1
<>
100
AcDbAlignedDimension
 13
-6589.0
 23
-121.0
 33
0.0
 14
-6589.0
 24
-100.0
 34
0.0
 50
90.0
100
AcDbRotatedDimension
  0
DIMENSION
  5
1E8
330
17
100
AcDbEntity
  8
COTA
 62
4
100
AcDbDimension
280
0
  2
*D19
  3
PAINEL-NOVA
 10
-6677.0
 20
-440.0
 30
0.0
 11
-6673.5
 21
-435.5
 31
0.0
 70
32
 71
5
  1
<>
100
AcDbAlignedDimension
 13
-6677.0
 23
-421.0
 33
0.0
 14
-6670.0
 24
-421.0
 34
0.0
 50
0.0
100
AcDbRotatedDimension
  0
DIMENSION
  5
1F7
330
17
100
AcDbEntity
  8
COTA
 62
4
100
AcDbDimension
280
0
  2
*D20
  3
PAINEL-NOVA
 10
-6596.0
 20
-440.0
 30
0.0
 11
-6592.5
 21
-435.5
 31
0.0
 70
32
 71
5
  1
<>
100
AcDbAlignedDimension
 13
-6596.0
 23
-421.0
 33
0.0
 14
-6589.0
 24
-421.0
 34
0.0
 50
0.0
100
AcDbRotatedDimension
  0
DIMENSION
  5
206
330
17
100
AcDbEntity
  8
COTA
 62
4
100
AcDbDimension
280
0
  2
*D21
  3
PAINEL-NOVA
 10
-6677.0
 20
-464.0
 30
0.0
 11
-6633.0
 21
-464.0
 31
0.0
 70
32
 71
5
  1
<>
100
AcDbAlignedDimension
 13
-6677.0
 23
-421.0
 33
0.0
 14
-6589.0
 24
-421.0
 34
0.0
 50
0.0
100
AcDbRotatedDimension
  0
TEXT
  5
216
330
17
100
AcDbEntity
  8
NOMENCLATURA
100
AcDbText
 10
-6692.0
 20
-416.0
 30
0.0
 40
12.0
  1
P32.B
 50
90.0
100
AcDbText
  0
LINE
  5
217
330
17
100
AcDbEntity
  8
Painéis
100
AcDbLine
 10
-6460.0
 20
-421.0
 30
0.0
 11
-6436.0
 21
-421.0
 31
0.0
  0
LINE
  5
218
330
17
100
AcDbEntity
  8
Painéis
100
AcDbLine
 10
-6460.0
 20
-299.0
 30
0.0
 11
-6436.0
 21
-299.0
 31
0.0
  0
LINE
  5
219
330
17
100
AcDbEntity
  8
Painéis
100
AcDbLine
 10
-6460.0
 20
-273.0
 30
0.0
 11
-6436.0
 21
-273.0
 31
0.0
  0
LINE
  5
21A
330
17
100
AcDbEntity
  8
Painéis
100
AcDbLine
 10
-6460.0
 20
-258.0
 30
0.0
 11
-6436.0
 21
-258.0
 31
0.0
  0
LINE
  5
21B
330
17
100
AcDbEntity
  8
Painéis
100
AcDbLine
 10
-6460.0
 20
-202.0
 30
0.0
 11
-6436.0
 21
-202.0
 31
0.0
  0
LINE
  5
21C
330
17
100
AcDbEntity
  8
Painéis
100
AcDbLine
 10
-6460.0
 20
-176.0
 30
0.0
 11
-6436.0
 21
-176.0
 31
0.0
  0
LINE
  5
21D
330
17
100
AcDbEntity
  8
Painéis
100
AcDbLine
 10
-6460.0
 20
-161.0
 30
0.0
 11
-6436.0
 21
-161.0
 31
0.0
  0
LINE
  5
21E
330
17
100
AcDbEntity
  8
Painéis
100
AcDbLine
 10
-6460.0
 20
-421.0
 30
0.0
 11
-6460.0
 21
-161.0
 31
0.0
  0
LINE
  5
21F
330
17
100
AcDbEntity
  8
Painéis
100
AcDbLine
 10
-6436.0
 20
-421.0
 30
0.0
 11
-6436.0
 21
-161.0
 31
0.0
  0
LINE
  5
220
330
17
100
AcDbEntity
  8
COTA
100
AcDbLine
 10
-6460.0
 20
-161.0
 30
0.0
 11
-6460.0
 21
-100.0
 31
0.0
  0
LINE
  5
221
330
17
100
AcDbEntity
  8
COTA
100
AcDbLine
 10
-6436.0
 20
-161.0
 30
0.0
 11
-6436.0
 21
-100.0
 31
0.0
  0
LINE
  5
222
330
17
100
AcDbEntity
  8
COTA
100
AcDbLine
 10
-6460.0
 20
-100.0
 30
0.0
 11
-6436.0
 21
-100.0
 31
0.0
  0
LWPOLYLINE
  5
223
330
17
100
AcDbEntity
  8
SARR_2.2x7
100
AcDbPolyline
 90
2
 70
0
 10
-6453.0
 20
-421.0
 10
-6453.0
 20
-161.0
  0
LWPOLYLINE
  5
224
330
17
100
AcDbEntity
  8
SARR_2.2x7
100
AcDbPolyline
 90
2
 70
0
 10
-6443.0
 20
-421.0
 10
-6443.0
 20
-161.0
  0
DIMENSION
  5
225
330
17
100
AcDbEntity
  8
COTA
 62
4
100
AcDbDimension
280
0
  2
*D22
  3
PAINEL-NOVA
 10
-6417.0
 20
-421.0
 30
0.0
 11
-6421.5
 21
-421.0
 31
0.0
 70
32
 71
5
  1
<>
100
AcDbAlignedDimension
 13
-6436.0
 23
-421.0
 33
0.0
 14
-6436.0
 24
-421.0
 34
0.0
 50
90.0
100
AcDbRotatedDimension
  0
DIMENSION
  5
236
330
17
100
AcDbEntity
  8
COTA
 62
4
100
AcDbDimension
280
0
  2
*D23
  3
PAINEL-NOVA
 10
-6398.0
 20
-421.0
 30
0.0
 11
-6398.0
 21
-360.0
 31
0.0
 70
32
 71
5
  1
<>
100
AcDbAlignedDimension
 13
-6436.0
 23
-421.0
 33
0.0
 14
-6436.0
 24
-299.0
 34
0.0
 50
90.0
100
AcDbRotatedDimension
  0
DIMENSION
  5
246
330
17
100
AcDbEntity
  8
COTA
 62
4
100
AcDbDimension
280
0
  2
*D24
  3
PAINEL-NOVA
 10
-6398.0
 20
-299.0
 30
0.0
 11
-6398.0
 21
-286.0
 31
0.0
 70
32
 71
5
  1
<>
100
AcDbAlignedDimension
 13
-6436.0
 23
-299.0
 33
0.0
 14
-6436.0
 24
-273.0
 34
0.0
 50
90.0
100
AcDbRotatedDimension
  0
DIMENSION
  5
256
330
17
100
AcDbEntity
  8
COTA
 62
4
100
AcDbDimension
280
0
  2
*D25
  3
PAINEL-NOVA
 10
-6398.0
 20
-273.0
 30
0.0
 11
-6402.5
 21
-265.5
 31
0.0
 70
32
 71
5
  1
<>
100
AcDbAlignedDimension
 13
-6436.0
 23
-273.0
 33
0.0
 14
-6436.0
 24
-258.0
 34
0.0
 50
90.0
100
AcDbRotatedDimension
  0
DIMENSION
  5
265
330
17
100
AcDbEntity
  8
COTA
 62
4
100
AcDbDimension
280
0
  2
*D26
  3
PAINEL-NOVA
 10
-6398.0
 20
-258.0
 30
0.0
 11
-6398.0
 21
-230.0
 31
0.0
 70
32
 71
5
  1
<>
100
AcDbAlignedDimension
 13
-6436.0
 23
-258.0
 33
0.0
 14
-6436.0
 24
-202.0
 34
0.0
 50
90.0
100
AcDbRotatedDimension
  0
DIMENSION
  5
275
330
17
100
AcDbEntity
  8
COTA
 62
4
100
AcDbDimension
280
0
  2
*D27
  3
PAINEL-NOVA
 10
-6398.0
 20
-202.0
 30
0.0
 11
-6398.0
 21
-189.0
 31
0.0
 70
32
 71
5
  1
<>
100
AcDbAlignedDimension
 13
-6436.0
 23
-202.0
 33
0.0
 14
-6436.0
 24
-176.0
 34
0.0
 50
90.0
100
AcDbRotatedDimension
  0
DIMENSION
  5
285
330
17
100
AcDbEntity
  8
COTA
 62
4
100
AcDbDimension
280
0
  2
*D28
  3
PAINEL-NOVA
 10
-6398.0
 20
-176.0
 30
0.0
 11
-6402.5
 21
-168.5
 31
0.0
 70
32
 71
5
  1
<>
100
AcDbAlignedDimension
 13
-6436.0
 23
-176.0
 33
0.0
 14
-6436.0
 24
-161.0
 34
0.0
 50
90.0
100
AcDbRotatedDimension
  0
DIMENSION
  5
294
330
17
100
AcDbEntity
  8
COTA
 62
4
100
AcDbDimension
280
0
  2
*D29
  3
PAINEL-NOVA
 10
-6398.0
 20
-161.0
 30
0.0
 11
-6398.0
 21
-130.5
 31
0.0
 70
32
 71
5
  1
<>
100
AcDbAlignedDimension
 13
-6436.0
 23
-161.0
 33
0.0
 14
-6436.0
 24
-100.0
 34
0.0
 50
90.0
100
AcDbRotatedDimension
  0
DIMENSION
  5
2A4
330
17
100
AcDbEntity
  8
COTA
 62
4
100
AcDbDimension
280
0
  2
*D30
  3
PAINEL-NOVA
 10
-6460.0
 20
-440.0
 30
0.0
 11
-6456.5
 21
-435.5
 31
0.0
 70
32
 71
5
  1
<>
100
AcDbAlignedDimension
 13
-6460.0
 23
-421.0
 33
0.0
 14
-6453.0
 24
-421.0
 34
0.0
 50
0.0
100
AcDbRotatedDimension
  0
DIMENSION
  5
2B3
330
17
100
AcDbEntity
  8
COTA
 62
4
100
AcDbDimension
280
0
  2
*D31
  3
PAINEL-NOVA
 10
-6443.0
 20
-440.0
 30
0.0
 11
-6439.5
 21
-435.5
 31
0.0
 70
32
 71
5
  1
<>
100
AcDbAlignedDimension
 13
-6443.0
 23
-421.0
 33
0.0
 14
-6436.0
 24
-421.0
 34
0.0
 50
0.0
100
AcDbRotatedDimension
  0
DIMENSION
  5
2C2
330
17
100
AcDbEntity
  8
COTA
 62
4
100
AcDbDimension
280
0
  2
*D32
  3
PAINEL-NOVA
 10
-6460.0
 20
-464.0
 30
0.0
 11
-6448.0
 21
-464.0
 31
0.0
 70
32
 71
5
  1
<>
100
AcDbAlignedDimension
 13
-6460.0
 23
-421.0
 33
0.0
 14
-6436.0
 24
-421.0
 34
0.0
 50
0.0
100
AcDbRotatedDimension
  0
TEXT
  5
2D2
330
17
100
AcDbEntity
  8
NOMENCLATURA
100
AcDbText
 10
-6475.0
 20
-416.0
 30
0.0
 40
12.0
  1
P32.C
 50
90.0
100
AcDbText
  0
LINE
  5
2D3
330
17
100
AcDbEntity
  8
Painéis
100
AcDbLine
 10
-6307.0
 20
-421.0
 30
0.0
 11
-6283.0
 21
-421.0
 31
0.0
  0
LINE
  5
2D4
330
17
100
AcDbEntity
  8
Painéis
100
AcDbLine
 10
-6307.0
 20
-202.0
 30
0.0
 11
-6283.0
 21
-202.0
 31
0.0
  0
LINE
  5
2D5
330
17
100
AcDbEntity
  8
Painéis
100
AcDbLine
 10
-6307.0
 20
-176.0
 30
0.0
 11
-6283.0
 21
-176.0
 31
0.0
  0
LINE
  5
2D6
330
17
100
AcDbEntity
  8
Painéis
100
AcDbLine
 10
-6307.0
 20
-161.0
 30
0.0
 11
-6283.0
 21
-161.0
 31
0.0
  0
LINE
  5
2D7
330
17
100
AcDbEntity
  8
Painéis
100
AcDbLine
 10
-6307.0
 20
-421.0
 30
0.0
 11
-6307.0
 21
-161.0
 31
0.0
  0
LINE
  5
2D8
330
17
100
AcDbEntity
  8
Painéis
100
AcDbLine
 10
-6283.0
 20
-421.0
 30
0.0
 11
-6283.0
 21
-161.0
 31
0.0
  0
LINE
  5
2D9
330
17
100
AcDbEntity
  8
COTA
100
AcDbLine
 10
-6307.0
 20
-161.0
 30
0.0
 11
-6307.0
 21
-100.0
 31
0.0
  0
LINE
  5
2DA
330
17
100
AcDbEntity
  8
COTA
100
AcDbLine
 10
-6283.0
 20
-161.0
 30
0.0
 11
-6283.0
 21
-100.0
 31
0.0
  0
LINE
  5
2DB
330
17
100
AcDbEntity
  8
COTA
100
AcDbLine
 10
-6307.0
 20
-100.0
 30
0.0
 11
-6283.0
 21
-100.0
 31
0.0
  0
LWPOLYLINE
  5
2DC
330
17
100
AcDbEntity
  8
SARR_2.2x7
100
AcDbPolyline
 90
2
 70
0
 10
-6300.0
 20
-421.0
 10
-6300.0
 20
-161.0
  0
LWPOLYLINE
  5
2DD
330
17
100
AcDbEntity
  8
SARR_2.2x7
100
AcDbPolyline
 90
2
 70
0
 10
-6290.0
 20
-421.0
 10
-6290.0
 20
-161.0
  0
DIMENSION
  5
2DE
330
17
100
AcDbEntity
  8
COTA
 62
4
100
AcDbDimension
280
0
  2
*D33
  3
PAINEL-NOVA
 10
-6264.0
 20
-421.0
 30
0.0
 11
-6268.5
 21
-421.0
 31
0.0
 70
32
 71
5
  1
<>
100
AcDbAlignedDimension
 13
-6283.0
 23
-421.0
 33
0.0
 14
-6283.0
 24
-421.0
 34
0.0
 50
90.0
100
AcDbRotatedDimension
  0
DIMENSION
  5
2EF
330
17
100
AcDbEntity
  8
COTA
 62
4
100
AcDbDimension
280
0
  2
*D34
  3
PAINEL-NOVA
 10
-6245.0
 20
-421.0
 30
0.0
 11
-6245.0
 21
-311.5
 31
0.0
 70
32
 71
5
  1
<>
100
AcDbAlignedDimension
 13
-6283.0
 23
-421.0
 33
0.0
 14
-6283.0
 24
-202.0
 34
0.0
 50
90.0
100
AcDbRotatedDimension
  0
DIMENSION
  5
2FF
330
17
100
AcDbEntity
  8
COTA
 62
4
100
AcDbDimension
280
0
  2
*D35
  3
PAINEL-NOVA
 10
-6245.0
 20
-202.0
 30
0.0
 11
-6245.0
 21
-189.0
 31
0.0
 70
32
 71
5
  1
<>
100
AcDbAlignedDimension
 13
-6283.0
 23
-202.0
 33
0.0
 14
-6283.0
 24
-176.0
 34
0.0
 50
90.0
100
AcDbRotatedDimension
  0
DIMENSION
  5
30F
330
17
100
AcDbEntity
  8
COTA
 62
4
100
AcDbDimension
280
0
  2
*D36
  3
PAINEL-NOVA
 10
-6245.0
 20
-176.0
 30
0.0
 11
-6249.5
 21
-168.5
 31
0.0
 70
32
 71
5
  1
<>
100
AcDbAlignedDimension
 13
-6283.0
 23
-176.0
 33
0.0
 14
-6283.0
 24
-161.0
 34
0.0
 50
90.0
100
AcDbRotatedDimension
  0
DIMENSION
  5
31E
330
17
100
AcDbEntity
  8
COTA
 62
4
100
AcDbDimension
280
0
  2
*D37
  3
PAINEL-NOVA
 10
-6245.0
 20
-161.0
 30
0.0
 11
-6245.0
 21
-130.5
 31
0.0
 70
32
 71
5
  1
<>
100
AcDbAlignedDimension
 13
-6283.0
 23
-161.0
 33
0.0
 14
-6283.0
 24
-100.0
 34
0.0
 50
90.0
100
AcDbRotatedDimension
  0
DIMENSION
  5
32E
330
17
100
AcDbEntity
  8
COTA
 62
4
100
AcDbDimension
280
0
  2
*D38
  3
PAINEL-NOVA
 10
-6307.0
 20
-440.0
 30
0.0
 11
-6303.5
 21
-435.5
 31
0.0
 70
32
 71
5
  1
<>
100
AcDbAlignedDimension
 13
-6307.0
 23
-421.0
 33
0.0
 14
-6300.0
 24
-421.0
 34
0.0
 50
0.0
100
AcDbRotatedDimension
  0
DIMENSION
  5
33D
330
17
100
AcDbEntity
  8
COTA
 62
4
100
AcDbDimension
280
0
  2
*D39
  3
PAINEL-NOVA
 10
-6290.0
 20
-440.0
 30
0.0
 11
-6286.5
 21
-435.5
 31
0.0
 70
32
 71
5
  1
<>
100
AcDbAlignedDimension
 13
-6290.0
 23
-421.0
 33
0.0
 14
-6283.0
 24
-421.0
 34
0.0
 50
0.0
100
AcDbRotatedDimension
  0
DIMENSION
  5
34C
330
17
100
AcDbEntity
  8
COTA
 62
4
100
AcDbDimension
280
0
  2
*D40
  3
PAINEL-NOVA
 10
-6307.0
 20
-464.0
 30
0.0
 11
-6295.0
 21
-464.0
 31
0.0
 70
32
 71
5
  1
<>
100
AcDbAlignedDimension
 13
-6307.0
 23
-421.0
 33
0.0
 14
-6283.0
 24
-421.0
 34
0.0
 50
0.0
100
AcDbRotatedDimension
  0
TEXT
  5
35C
330
17
100
AcDbEntity
  8
NOMENCLATURA
100
AcDbText
 10
-6322.0
 20
-416.0
 30
0.0
 40
12.0
  1
P32.D
 50
90.0
100
AcDbText
  0
LWPOLYLINE
  5
35D
330
17
100
AcDbEntity
  8
CHAPA
370
18
100
AcDbPolyline
 90
4
 70
1
 10
-70.0
 20
121.0
 10
-66.0
 20
121.0
 10
-66.0
 20
159.0
 10
-70.0
 20
159.0
  0
LWPOLYLINE
  5
35E
330
17
100
AcDbEntity
  8
CHAPA
370
18
100
AcDbPolyline
 90
4
 70
1
 10
66.0
 20
121.0
 10
70.0
 20
121.0
 10
70.0
 20
159.0
 10
66.0
 20
159.0
  0
LWPOLYLINE
  5
35F
330
17
100
AcDbEntity
  8
CHAPA
370
18
100
AcDbPolyline
 90
4
 70
1
 10
-88.0
 20
164.0
 10
88.0
 20
164.0
 10
88.0
 20
168.0
 10
-88.0
 20
168.0
  0
LWPOLYLINE
  5
360
330
17
100
AcDbEntity
  8
CHAPA
370
18
100
AcDbPolyline
 90
4
 70
1
 10
-88.0
 20
112.0
 10
88.0
 20
112.0
 10
88.0
 20
116.0
 10
-88.0
 20
116.0
  0
LWPOLYLINE
  5
361
330
17
100
AcDbEntity
  8
CHAPA
370
18
100
AcDbPolyline
 90
4
 70
1
 10
-70.0
 20
121.0
 10
-66.0
 20
121.0
 10
-66.0
 20
159.0
 10
-70.0
 20
159.0
  0
LWPOLYLINE
  5
362
330
17
100
AcDbEntity
  8
CHAPA
370
18
100
AcDbPolyline
 90
4
 70
1
 10
66.0
 20
121.0
 10
70.0
 20
121.0
 10
70.0
 20
159.0
 10
66.0
 20
159.0
  0
LWPOLYLINE
  5
363
330
17
100
AcDbEntity
  8
CHAPA
370
18
100
AcDbPolyline
 90
4
 70
1
 10
-88.0
 20
164.0
 10
88.0
 20
164.0
 10
88.0
 20
168.0
 10
-88.0
 20
168.0
  0
LWPOLYLINE
  5
364
330
17
100
AcDbEntity
  8
CHAPA
370
18
100
AcDbPolyline
 90
4
 70
1
 10
-88.0
 20
112.0
 10
88.0
 20
112.0
 10
88.0
 20
116.0
 10
-88.0
 20
116.0
  0
LWPOLYLINE
  5
365
330
17
100
AcDbEntity
  8
Painéis
100
AcDbPolyline
 90
4
 70
1
 10
-66.0
 20
121.0
 10
66.0
 20
121.0
 10
66.0
 20
159.0
 10
-66.0
 20
159.0
  0
DIMENSION
  5
366
330
17
100
AcDbEntity
  8
COTA
100
AcDbDimension
280
0
  2
*D41
  3
cotax2
 10
-88.0
 20
16.0
 30
0.0
 11
0.0
 21
16.0
 31
0.0
 70
32
 71
5
  1
<>
100
AcDbAlignedDimension
 13
-88.0
 23
112.0
 33
0.0
 14
88.0
 24
112.0
 34
0.0
 50
0.0
100
AcDbRotatedDimension
  0
LWPOLYLINE
  5
376
330
17
100
AcDbEntity
  8
SARRAFO
 62
251
370
13
100
AcDbPolyline
 90
4
 70
1
 10
-74.0
 20
116.0
 10
-70.0
 20
116.0
 10
-70.0
 20
130.0
 10
-74.0
 20
130.0
  0
HATCH
  5
377
330
17
100
AcDbEntity
  8
Hachura
 62
7
100
AcDbHatch
 10
0.0
 20
0.0
 30
0.0
210
0.0
220
0.0
230
1.0
  2
ANSI31
 70
0
 71
0
 91
1
 92
3
 72
0
 73
1
 93
4
 10
-74.0
 20
116.0
 10
-70.0
 20
116.0
 10
-70.0
 20
130.0
 10
-74.0
 20
130.0
 97
0
 75
1
 76
1
 52
0.0
 41
1.0
 77
0
 78
1
 53
45.0
 43
0.0
 44
0.0
 45
-1.1225320152
 46
1.1225320152
 79
0
 98
0
  0
LWPOLYLINE
  5
378
330
17
100
AcDbEntity
  8
SARRAFO
 62
251
370
13
100
AcDbPolyline
 90
4
 70
1
 10
-74.0
 20
150.0
 10
-70.0
 20
150.0
 10
-70.0
 20
164.0
 10
-74.0
 20
164.0
  0
HATCH
  5
379
330
17
100
AcDbEntity
  8
Hachura
 62
7
100
AcDbHatch
 10
0.0
 20
0.0
 30
0.0
210
0.0
220
0.0
230
1.0
  2
ANSI31
 70
0
 71
0
 91
1
 92
3
 72
0
 73
1
 93
4
 10
-74.0
 20
150.0
 10
-70.0
 20
150.0
 10
-70.0
 20
164.0
 10
-74.0
 20
164.0
 97
0
 75
1
 76
1
 52
0.0
 41
1.0
 77
0
 78
1
 53
45.0
 43
0.0
 44
0.0
 45
-1.1225320152
 46
1.1225320152
 79
0
 98
0
  0
LWPOLYLINE
  5
37A
330
17
100
AcDbEntity
  8
SARRAFO
 62
251
370
13
100
AcDbPolyline
 90
4
 70
1
 10
70.0
 20
116.0
 10
74.0
 20
116.0
 10
74.0
 20
130.0
 10
70.0
 20
130.0
  0
HATCH
  5
37B
330
17
100
AcDbEntity
  8
Hachura
 62
7
100
AcDbHatch
 10
0.0
 20
0.0
 30
0.0
210
0.0
220
0.0
230
1.0
  2
ANSI31
 70
0
 71
0
 91
1
 92
3
 72
0
 73
1
 93
4
 10
70.0
 20
116.0
 10
74.0
 20
116.0
 10
74.0
 20
130.0
 10
70.0
 20
130.0
 97
0
 75
1
 76
1
 52
0.0
 41
1.0
 77
0
 78
1
 53
45.0
 43
0.0
 44
0.0
 45
-1.1225320152
 46
1.1225320152
 79
0
 98
0
  0
LWPOLYLINE
  5
37C
330
17
100
AcDbEntity
  8
SARRAFO
 62
251
370
13
100
AcDbPolyline
 90
4
 70
1
 10
70.0
 20
150.0
 10
74.0
 20
150.0
 10
74.0
 20
164.0
 10
70.0
 20
164.0
  0
HATCH
  5
37D
330
17
100
AcDbEntity
  8
Hachura
 62
7
100
AcDbHatch
 10
0.0
 20
0.0
 30
0.0
210
0.0
220
0.0
230
1.0
  2
ANSI31
 70
0
 71
0
 91
1
 92
3
 72
0
 73
1
 93
4
 10
70.0
 20
150.0
 10
74.0
 20
150.0
 10
74.0
 20
164.0
 10
70.0
 20
164.0
 97
0
 75
1
 76
1
 52
0.0
 41
1.0
 77
0
 78
1
 53
45.0
 43
0.0
 44
0.0
 45
-1.1225320152
 46
1.1225320152
 79
0
 98
0
  0
LWPOLYLINE
  5
37E
330
17
100
AcDbEntity
  8
SARRAFO
 62
251
370
13
100
AcDbPolyline
 90
4
 70
1
 10
-88.0
 20
160.0
 10
-74.0
 20
160.0
 10
-74.0
 20
164.0
 10
-88.0
 20
164.0
  0
HATCH
  5
37F
330
17
100
AcDbEntity
  8
Hachura
 62
7
100
AcDbHatch
 10
0.0
 20
0.0
 30
0.0
210
0.0
220
0.0
230
1.0
  2
ANSI31
 70
0
 71
0
 91
1
 92
3
 72
0
 73
1
 93
4
 10
-88.0
 20
160.0
 10
-74.0
 20
160.0
 10
-74.0
 20
164.0
 10
-88.0
 20
164.0
 97
0
 75
1
 76
1
 52
0.0
 41
1.0
 77
0
 78
1
 53
45.0
 43
0.0
 44
0.0
 45
-1.1225320152
 46
1.1225320152
 79
0
 98
0
  0
LWPOLYLINE
  5
380
330
17
100
AcDbEntity
  8
SARRAFO
 62
251
370
13
100
AcDbPolyline
 90
4
 70
1
 10
-88.0
 20
116.0
 10
-74.0
 20
116.0
 10
-74.0
 20
120.0
 10
-88.0
 20
120.0
  0
HATCH
  5
381
330
17
100
AcDbEntity
  8
Hachura
 62
7
100
AcDbHatch
 10
0.0
 20
0.0
 30
0.0
210
0.0
220
0.0
230
1.0
  2
ANSI31
 70
0
 71
0
 91
1
 92
3
 72
0
 73
1
 93
4
 10
-88.0
 20
116.0
 10
-74.0
 20
116.0
 10
-74.0
 20
120.0
 10
-88.0
 20
120.0
 97
0
 75
1
 76
1
 52
0.0
 41
1.0
 77
0
 78
1
 53
45.0
 43
0.0
 44
0.0
 45
-1.1225320152
 46
1.1225320152
 79
0
 98
0
  0
LWPOLYLINE
  5
382
330
17
100
AcDbEntity
  8
SARRAFO
 62
251
370
13
100
AcDbPolyline
 90
4
 70
1
 10
74.0
 20
160.0
 10
88.0
 20
160.0
 10
88.0
 20
164.0
 10
74.0
 20
164.0
  0
HATCH
  5
383
330
17
100
AcDbEntity
  8
Hachura
 62
7
100
AcDbHatch
 10
0.0
 20
0.0
 30
0.0
210
0.0
220
0.0
230
1.0
  2
ANSI31
 70
0
 71
0
 91
1
 92
3
 72
0
 73
1
 93
4
 10
74.0
 20
160.0
 10
88.0
 20
160.0
 10
88.0
 20
164.0
 10
74.0
 20
164.0
 97
0
 75
1
 76
1
 52
0.0
 41
1.0
 77
0
 78
1
 53
45.0
 43
0.0
 44
0.0
 45
-1.1225320152
 46
1.1225320152
 79
0
 98
0
  0
LWPOLYLINE
  5
384
330
17
100
AcDbEntity
  8
SARRAFO
 62
251
370
13
100
AcDbPolyline
 90
4
 70
1
 10
74.0
 20
116.0
 10
88.0
 20
116.0
 10
88.0
 20
120.0
 10
74.0
 20
120.0
  0
HATCH
  5
385
330
17
100
AcDbEntity
  8
Hachura
 62
7
100
AcDbHatch
 10
0.0
 20
0.0
 30
0.0
210
0.0
220
0.0
230
1.0
  2
ANSI31
 70
0
 71
0
 91
1
 92
3
 72
0
 73
1
 93
4
 10
74.0
 20
116.0
 10
88.0
 20
116.0
 10
88.0
 20
120.0
 10
74.0
 20
120.0
 97
0
 75
1
 76
1
 52
0.0
 41
1.0
 77
0
 78
1
 53
45.0
 43
0.0
 44
0.0
 45
-1.1225320152
 46
1.1225320152
 79
0
 98
0
  0
LWPOLYLINE
  5
386
330
17
100
AcDbEntity
  8
Madeira
 62
126
100
AcDbPolyline
 90
4
 70
1
 10
-88.0
 20
168.0
 10
88.0
 20
168.0
 10
88.0
 20
182.0
 10
-88.0
 20
182.0
  0
LWPOLYLINE
  5
387
330
17
100
AcDbEntity
  8
Madeira
 62
126
100
AcDbPolyline
 90
4
 70
1
 10
-88.0
 20
168.0
 10
-74.0
 20
168.0
 10
-74.0
 20
182.0
 10
-88.0
 20
182.0
  0
LWPOLYLINE
  5
388
330
17
100
AcDbEntity
  8
Madeira
 62
126
100
AcDbPolyline
 90
4
 70
1
 10
74.0
 20
168.0
 10
88.0
 20
168.0
 10
88.0
 20
182.0
 10
74.0
 20
182.0
  0
LWPOLYLINE
  5
389
330
17
100
AcDbEntity
  8
Madeira
 62
126
100
AcDbPolyline
 90
4
 70
1
 10
-52.5
 20
168.0
 10
-45.5
 20
168.0
 10
-45.5
 20
182.0
 10
-52.5
 20
182.0
  0
LWPOLYLINE
  5
38A
330
17
100
AcDbEntity
  8
Madeira
 62
126
100
AcDbPolyline
 90
4
 70
1
 10
-13.5
 20
168.0
 10
-6.5
 20
168.0
 10
-6.5
 20
182.0
 10
-13.5
 20
182.0
  0
LWPOLYLINE
  5
38B
330
17
100
AcDbEntity
  8
Madeira
 62
126
100
AcDbPolyline
 90
4
 70
1
 10
35.5
 20
168.0
 10
42.5
 20
168.0
 10
42.5
 20
182.0
 10
35.5
 20
182.0
  0
LWPOLYLINE
  5
38C
330
17
100
AcDbEntity
  8
Madeira
 62
126
100
AcDbPolyline
 90
4
 70
1
 10
-88.0
 20
98.0
 10
88.0
 20
98.0
 10
88.0
 20
112.0
 10
-88.0
 20
112.0
  0
LWPOLYLINE
  5
38D
330
17
100
AcDbEntity
  8
Madeira
 62
126
100
AcDbPolyline
 90
4
 70
1
 10
-88.0
 20
98.0
 10
-74.0
 20
98.0
 10
-74.0
 20
112.0
 10
-88.0
 20
112.0
  0
LWPOLYLINE
  5
38E
330
17
100
AcDbEntity
  8
Madeira
 62
126
100
AcDbPolyline
 90
4
 70
1
 10
74.0
 20
98.0
 10
88.0
 20
98.0
 10
88.0
 20
112.0
 10
74.0
 20
112.0
  0
LWPOLYLINE
  5
38F
330
17
100
AcDbEntity
  8
Madeira
 62
126
100
AcDbPolyline
 90
4
 70
1
 10
-52.5
 20
98.0
 10
-45.5
 20
98.0
 10
-45.5
 20
112.0
 10
-52.5
 20
112.0
  0
LWPOLYLINE
  5
390
330
17
100
AcDbEntity
  8
Madeira
 62
126
100
AcDbPolyline
 90
4
 70
1
 10
-13.5
 20
98.0
 10
-6.5
 20
98.0
 10
-6.5
 20
112.0
 10
-13.5
 20
112.0
  0
LWPOLYLINE
  5
391
330
17
100
AcDbEntity
  8
Madeira
 62
126
100
AcDbPolyline
 90
4
 70
1
 10
35.5
 20
98.0
 10
42.5
 20
98.0
 10
42.5
 20
112.0
 10
35.5
 20
112.0
  0
LWPOLYLINE
  5
392
330
17
100
AcDbEntity
  8
Perfil Metálico
 62
224
100
AcDbPolyline
 90
4
 70
1
 10
-124.0
 20
182.0
 10
124.0
 20
182.0
 10
124.0
 20
202.0
 10
-124.0
 20
202.0
  0
LWPOLYLINE
  5
393
330
17
100
AcDbEntity
  8
Perfil Metálico
 62
224
100
AcDbPolyline
 90
4
 70
1
 10
-124.0
 20
186.0
 10
124.0
 20
186.0
 10
124.0
 20
198.0
 10
-124.0
 20
198.0
  0
LWPOLYLINE
  5
394
330
17
100
AcDbEntity
  8
Perfil Metálico
 62
224
100
AcDbPolyline
 90
4
 70
1
 10
-124.0
 20
78.0
 10
124.0
 20
78.0
 10
124.0
 20
98.0
 10
-124.0
 20
98.0
  0
LWPOLYLINE
  5
395
330
17
100
AcDbEntity
  8
Perfil Metálico
 62
224
100
AcDbPolyline
 90
4
 70
1
 10
-124.0
 20
82.0
 10
124.0
 20
82.0
 10
124.0
 20
94.0
 10
-124.0
 20
94.0
  0
DIMENSION
  5
396
330
17
100
AcDbEntity
  8
COTA
100
AcDbDimension
280
0
  2
*D42
  3
cotax2
 10
-88.0
 20
58.0
 30
0.0
 11
-68.5
 21
58.0
 31
0.0
 70
32
 71
5
  1
19.5
100
AcDbAlignedDimension
 13
-88.0
 23
98.0
 33
0.0
 14
-49.0
 24
98.0
 34
0.0
 50
0.0
100
AcDbRotatedDimension
  0
DIMENSION
  5
3A6
330
17
100
AcDbEntity
  8
COTA
100
AcDbDimension
280
0
  2
*D43
  3
cotax2
 10
-49.0
 20
58.0
 30
0.0
 11
-29.5
 21
58.0
 31
0.0
 70
32
 71
5
  1
19.5
100
AcDbAlignedDimension
 13
-49.0
 23
98.0
 33
0.0
 14
-10.0
 24
98.0
 34
0.0
 50
0.0
100
AcDbRotatedDimension
  0
DIMENSION
  5
3B6
330
17
100
AcDbEntity
  8
COTA
100
AcDbDimension
280
0
  2
*D44
  3
cotax2
 10
-10.0
 20
58.0
 30
0.0
 11
14.499999999999996
 21
58.0
 31
0.0
 70
32
 71
5
  1
24.5
100
AcDbAlignedDimension
 13
-10.0
 23
98.0
 33
0.0
 14
38.99999999999999
 24
98.0
 34
0.0
 50
0.0
100
AcDbRotatedDimension
  0
DIMENSION
  5
3C6
330
17
100
AcDbEntity
  8
COTA
100
AcDbDimension
280
0
  2
*D45
  3
cotax2
 10
39.0
 20
58.0
 30
0.0
 11
63.5
 21
58.0
 31
0.0
 70
32
 71
5
  1
24.5
100
AcDbAlignedDimension
 13
39.0
 23
98.0
 33
0.0
 14
88.0
 24
98.0
 34
0.0
 50
0.0
100
AcDbRotatedDimension
  0
TEXT
  5
3D6
330
17
100
AcDbEntity
  8
COTA
100
AcDbText
 10
-7.0
 20
136.5
 30
0.0
 40
7.0
  1
66
 11
-7.0
 21
136.5
 31
0.0
100
AcDbText
  0
TEXT
  5
3D7
330
17
100
AcDbEntity
  8
COTA
100
AcDbText
 10
-56.0
 20
136.5
 30
0.0
 40
7.0
  1
19
 50
90.0
 11
-56.0
 21
136.5
 31
0.0
100
AcDbText
  0
DIMENSION
  5
3D8
330
17
100
AcDbEntity
  8
COTA
100
AcDbDimension
280
0
  2
*D46
  3
cotax2
 10
-66.0
 20
124.0
 30
0.0
 11
0.0
 21
124.0
 31
0.0
 70
32
 71
5
  1
<>
100
AcDbAlignedDimension
 13
-66.0
 23
116.0
 33
0.0
 14
66.0
 24
116.0
 34
0.0
 50
0.0
100
AcDbRotatedDimension
  0
DIMENSION
  5
3E8
330
17
100
AcDbEntity
  8
COTA
100
AcDbDimension
280
0
  2
*D47
  3
cotax2
 10
126.0
 20
116.0
 30
0.0
 11
126.0
 21
140.0
 31
0.0
 70
32
 71
5
  1
<>
100
AcDbAlignedDimension
 13
66.0
 23
116.0
 33
0.0
 14
66.0
 24
164.0
 34
0.0
 50
90.0
100
AcDbRotatedDimension
  0
DIMENSION
  5
3F8
330
17
100
AcDbEntity
  8
COTA
100
AcDbDimension
280
0
  2
*D48
  3
cotax2
 10
-88.0
 20
132.0
 30
0.0
 11
-81.0
 21
132.0
 31
0.0
 70
32
 71
5
  1
<>
100
AcDbAlignedDimension
 13
-88.0
 23
120.0
 33
0.0
 14
-74.0
 24
120.0
 34
0.0
 50
0.0
100
AcDbRotatedDimension
  0
DIMENSION
  5
408
330
17
100
AcDbEntity
  8
COTA
100
AcDbDimension
280
0
  2
*D49
  3
cotax2
 10
74.0
 20
132.0
 30
0.0
 11
81.0
 21
132.0
 31
0.0
 70
32
 71
5
  1
<>
100
AcDbAlignedDimension
 13
74.0
 23
120.0
 33
0.0
 14
88.0
 24
120.0
 34
0.0
 50
0.0
100
AcDbRotatedDimension
  0
LWPOLYLINE
  5
418
330
17
100
AcDbEntity
  8
Hachura
100
AcDbPolyline
 90
4
 70
1
 10
-91.0
 20
67.19999999999999
 10
-89.0
 20
67.19999999999999
 10
-89.0
 20
212.8
 10
-91.0
 20
212.8
  0
LWPOLYLINE
  5
419
330
17
100
AcDbEntity
  8
Hachura
100
AcDbPolyline
 90
4
 70
1
 10
-1.0
 20
67.19999999999999
 10
1.0
 20
67.19999999999999
 10
1.0
 20
112.0
 10
-1.0
 20
112.0
  0
LWPOLYLINE
  5
41A
330
17
100
AcDbEntity
  8
Hachura
  6
HIDDEN
100
AcDbPolyline
 90
4
 70
1
 10
-1.0
 20
112.0
 10
1.0
 20
112.0
 10
1.0
 20
168.0
 10
-1.0
 20
168.0
  0
LWPOLYLINE
  5
41B
330
17
100
AcDbEntity
  8
Hachura
100
AcDbPolyline
 90
4
 70
1
 10
-1.0
 20
168.0
 10
1.0
 20
168.0
 10
1.0
 20
212.8
 10
-1.0
 20
212.8
  0
LWPOLYLINE
  5
41C
330
17
100
AcDbEntity
  8
Hachura
100
AcDbPolyline
 90
4
 70
1
 10
89.0
 20
67.19999999999999
 10
91.0
 20
67.19999999999999
 10
91.0
 20
212.8
 10
89.0
 20
212.8
  0
DIMENSION
  5
41D
330
17
100
AcDbEntity
  8
COTA
100
AcDbDimension
280
0
  2
*D50
  3
cotax2
 10
-88.0
 20
230.8
 30
0.0
 11
-44.0
 21
230.8
 31
0.0
 70
32
 71
5
  1
<>
100
AcDbAlignedDimension
 13
-88.0
 23
200.8
 33
0.0
 14
0.0
 24
200.8
 34
0.0
 50
0.0
100
AcDbRotatedDimension
  0
DIMENSION
  5
42D
330
17
100
AcDbEntity
  8
COTA
100
AcDbDimension
280
0
  2
*D51
  3
cotax2
 10
0.0
 20
230.8
 30
0.0
 11
44.0
 21
230.8
 31
0.0
 70
32
 71
5
  1
<>
100
AcDbAlignedDimension
 13
0.0
 23
200.8
 33
0.0
 14
88.0
 24
200.8
 34
0.0
 50
0.0
100
AcDbRotatedDimension
  0
MTEXT
  5
43D
330
17
100
AcDbEntity
  8
NOMENCLATURA
100
AcDbMText
 10
0.0
 20
252.0
 30
0.0
 40
6.0
 71
8
  1
P32\P(66X24)
  0
TEXT
  5
43E
330
17
100
AcDbEntity
  8
TEXTO_GERAL
100
AcDbText
 10
27.0
 20
129.0
 30
0.0
 40
4.0
  1
D
100
AcDbText
  0
TEXT
  5
43F
330
17
100
AcDbEntity
  8
TEXTO_GERAL
100
AcDbText
 10
-35.0
 20
129.0
 30
0.0
 40
4.0
  1
C
100
AcDbText
  0
TEXT
  5
440
330
17
100
AcDbEntity
  8
TEXTO_GERAL
100
AcDbText
 10
-35.0
 20
130.0
 30
0.0
 40
4.0
  1
A
100
AcDbText
  0
TEXT
  5
441
330
17
100
AcDbEntity
  8
TEXTO_GERAL
100
AcDbText
 10
34.0
 20
140.0
 30
0.0
 40
4.0
  1
B
100
AcDbText
  0
TEXT
  5
442
330
17
100
AcDbEntity
  8
NOMENCLATURA
100
AcDbText
 10
3990.0
 20
0.0
 30
0.0
 40
14.0
  1
P32.A
 50
90.0
100
AcDbText
  0
LINE
  5
443
330
17
100
AcDbEntity
  8
SARR_2.2x7
100
AcDbLine
 10
4000.0
 20
0.0
 30
0.0
 11
4088.0
 21
0.0
 31
0.0
  0
LINE
  5
444
330
17
100
AcDbEntity
  8
SARR_2.2x7
100
AcDbLine
 10
4088.0
 20
0.0
 30
0.0
 11
4088.0
 21
2.2
 31
0.0
  0
LINE
  5
445
330
17
100
AcDbEntity
  8
SARR_2.2x7
100
AcDbLine
 10
4088.0
 20
2.2
 30
0.0
 11
4000.0
 21
2.2
 31
0.0
  0
LINE
  5
446
330
17
100
AcDbEntity
  8
SARR_2.2x7
100
AcDbLine
 10
4000.0
 20
2.2
 30
0.0
 11
4000.0
 21
0.0
 31
0.0
  0
LINE
  5
447
330
17
100
AcDbEntity
  8
SARR_2.2x7
100
AcDbLine
 10
4000.0
 20
2.2
 30
0.0
 11
4007.0
 21
2.2
 31
0.0
  0
LINE
  5
448
330
17
100
AcDbEntity
  8
SARR_2.2x7
100
AcDbLine
 10
4007.0
 20
2.2
 30
0.0
 11
4007.0
 21
282.2
 31
0.0
  0
LINE
  5
449
330
17
100
AcDbEntity
  8
SARR_2.2x7
100
AcDbLine
 10
4007.0
 20
282.2
 30
0.0
 11
4000.0
 21
282.2
 31
0.0
  0
LINE
  5
44A
330
17
100
AcDbEntity
  8
SARR_2.2x7
100
AcDbLine
 10
4000.0
 20
282.2
 30
0.0
 11
4000.0
 21
2.2
 31
0.0
  0
LINE
  5
44B
330
17
100
AcDbEntity
  8
SARR_3.5x7
100
AcDbLine
 10
4017.75
 20
2.2
 30
0.0
 11
4021.25
 21
2.2
 31
0.0
  0
LINE
  5
44C
330
17
100
AcDbEntity
  8
SARR_3.5x7
100
AcDbLine
 10
4021.25
 20
2.2
 30
0.0
 11
4021.25
 21
282.2
 31
0.0
  0
LINE
  5
44D
330
17
100
AcDbEntity
  8
SARR_3.5x7
100
AcDbLine
 10
4021.25
 20
282.2
 30
0.0
 11
4017.75
 21
282.2
 31
0.0
  0
LINE
  5
44E
330
17
100
AcDbEntity
  8
SARR_3.5x7
100
AcDbLine
 10
4017.75
 20
282.2
 30
0.0
 11
4017.75
 21
2.2
 31
0.0
  0
LINE
  5
44F
330
17
100
AcDbEntity
  8
SARR_3.5x7
100
AcDbLine
 10
4037.25
 20
2.2
 30
0.0
 11
4040.75
 21
2.2
 31
0.0
  0
LINE
  5
450
330
17
100
AcDbEntity
  8
SARR_3.5x7
100
AcDbLine
 10
4040.75
 20
2.2
 30
0.0
 11
4040.75
 21
282.2
 31
0.0
  0
LINE
  5
451
330
17
100
AcDbEntity
  8
SARR_3.5x7
100
AcDbLine
 10
4040.75
 20
282.2
 30
0.0
 11
4037.25
 21
282.2
 31
0.0
  0
LINE
  5
452
330
17
100
AcDbEntity
  8
SARR_3.5x7
100
AcDbLine
 10
4037.25
 20
282.2
 30
0.0
 11
4037.25
 21
2.2
 31
0.0
  0
LINE
  5
453
330
17
100
AcDbEntity
  8
SARR_3.5x7
100
AcDbLine
 10
4061.75
 20
2.2
 30
0.0
 11
4065.25
 21
2.2
 31
0.0
  0
LINE
  5
454
330
17
100
AcDbEntity
  8
SARR_3.5x7
100
AcDbLine
 10
4065.25
 20
2.2
 30
0.0
 11
4065.25
 21
282.2
 31
0.0
  0
LINE
  5
455
330
17
100
AcDbEntity
  8
SARR_3.5x7
100
AcDbLine
 10
4065.25
 20
282.2
 30
0.0
 11
4061.75
 21
282.2
 31
0.0
  0
LINE
  5
456
330
17
100
AcDbEntity
  8
SARR_3.5x7
100
AcDbLine
 10
4061.75
 20
282.2
 30
0.0
 11
4061.75
 21
2.2
 31
0.0
  0
LINE
  5
457
330
17
100
AcDbEntity
  8
SARR_2.2x7
100
AcDbLine
 10
4081.0
 20
2.2
 30
0.0
 11
4088.0
 21
2.2
 31
0.0
  0
LINE
  5
458
330
17
100
AcDbEntity
  8
SARR_2.2x7
100
AcDbLine
 10
4088.0
 20
2.2
 30
0.0
 11
4088.0
 21
282.2
 31
0.0
  0
LINE
  5
459
330
17
100
AcDbEntity
  8
SARR_2.2x7
100
AcDbLine
 10
4088.0
 20
282.2
 30
0.0
 11
4081.0
 21
282.2
 31
0.0
  0
LINE
  5
45A
330
17
100
AcDbEntity
  8
SARR_2.2x7
100
AcDbLine
 10
4081.0
 20
282.2
 30
0.0
 11
4081.0
 21
2.2
 31
0.0
  0
LINE
  5
45B
330
17
100
AcDbEntity
  8
SARR_2.2x10
100
AcDbLine
 10
4000.0
 20
32.2
 30
0.0
 11
4088.0
 21
32.2
 31
0.0
  0
LINE
  5
45C
330
17
100
AcDbEntity
  8
SARR_2.2x10
100
AcDbLine
 10
4088.0
 20
32.2
 30
0.0
 11
4088.0
 21
42.2
 31
0.0
  0
LINE
  5
45D
330
17
100
AcDbEntity
  8
SARR_2.2x10
100
AcDbLine
 10
4088.0
 20
42.2
 30
0.0
 11
4000.0
 21
42.2
 31
0.0
  0
LINE
  5
45E
330
17
100
AcDbEntity
  8
SARR_2.2x10
100
AcDbLine
 10
4000.0
 20
42.2
 30
0.0
 11
4000.0
 21
32.2
 31
0.0
  0
LINE
  5
45F
330
17
100
AcDbEntity
  8
SARR_2.2x10
100
AcDbLine
 10
4000.0
 20
92.2
 30
0.0
 11
4088.0
 21
92.2
 31
0.0
  0
LINE
  5
460
330
17
100
AcDbEntity
  8
SARR_2.2x10
100
AcDbLine
 10
4088.0
 20
92.2
 30
0.0
 11
4088.0
 21
102.2
 31
0.0
  0
LINE
  5
461
330
17
100
AcDbEntity
  8
SARR_2.2x10
100
AcDbLine
 10
4088.0
 20
102.2
 30
0.0
 11
4000.0
 21
102.2
 31
0.0
  0
LINE
  5
462
330
17
100
AcDbEntity
  8
SARR_2.2x10
100
AcDbLine
 10
4000.0
 20
102.2
 30
0.0
 11
4000.0
 21
92.2
 31
0.0
  0
LINE
  5
463
330
17
100
AcDbEntity
  8
SARR_2.2x10
100
AcDbLine
 10
4000.0
 20
152.2
 30
0.0
 11
4088.0
 21
152.2
 31
0.0
  0
LINE
  5
464
330
17
100
AcDbEntity
  8
SARR_2.2x10
100
AcDbLine
 10
4088.0
 20
152.2
 30
0.0
 11
4088.0
 21
162.2
 31
0.0
  0
LINE
  5
465
330
17
100
AcDbEntity
  8
SARR_2.2x10
100
AcDbLine
 10
4088.0
 20
162.2
 30
0.0
 11
4000.0
 21
162.2
 31
0.0
  0
LINE
  5
466
330
17
100
AcDbEntity
  8
SARR_2.2x10
100
AcDbLine
 10
4000.0
 20
162.2
 30
0.0
 11
4000.0
 21
152.2
 31
0.0
  0
LINE
  5
467
330
17
100
AcDbEntity
  8
SARR_2.2x10
100
AcDbLine
 10
4000.0
 20
212.2
 30
0.0
 11
4088.0
 21
212.2
 31
0.0
  0
LINE
  5
468
330
17
100
AcDbEntity
  8
SARR_2.2x10
100
AcDbLine
 10
4088.0
 20
212.2
 30
0.0
 11
4088.0
 21
222.2
 31
0.0
  0
LINE
  5
469
330
17
100
AcDbEntity
  8
SARR_2.2x10
100
AcDbLine
 10
4088.0
 20
222.2
 30
0.0
 11
4000.0
 21
222.2
 31
0.0
  0
LINE
  5
46A
330
17
100
AcDbEntity
  8
SARR_2.2x10
100
AcDbLine
 10
4000.0
 20
222.2
 30
0.0
 11
4000.0
 21
212.2
 31
0.0
  0
LINE
  5
46B
330
17
100
AcDbEntity
  8
SARR_2.2x10
100
AcDbLine
 10
4000.0
 20
272.2
 30
0.0
 11
4088.0
 21
272.2
 31
0.0
  0
LINE
  5
46C
330
17
100
AcDbEntity
  8
SARR_2.2x10
100
AcDbLine
 10
4088.0
 20
272.2
 30
0.0
 11
4088.0
 21
282.2
 31
0.0
  0
LINE
  5
46D
330
17
100
AcDbEntity
  8
SARR_2.2x10
100
AcDbLine
 10
4088.0
 20
282.2
 30
0.0
 11
4000.0
 21
282.2
 31
0.0
  0
LINE
  5
46E
330
17
100
AcDbEntity
  8
SARR_2.2x10
100
AcDbLine
 10
4000.0
 20
282.2
 30
0.0
 11
4000.0
 21
272.2
 31
0.0
  0
DIMENSION
  5
46F
330
17
100
AcDbEntity
  8
COTA
100
AcDbDimension
280
0
  2
*D52
  3
PAINEL-NOVA
 10
4000.0
 20
-17.8
 30
0.0
 11
4009.75
 21
-13.3
 31
0.0
 70
32
 71
5
  1
<>
100
AcDbAlignedDimension
 13
4000.0
 23
-12.8
 33
0.0
 14
4019.5
 24
-12.8
 34
0.0
 50
0.0
100
AcDbRotatedDimension
  0
DIMENSION
  5
47E
330
17
100
AcDbEntity
  8
COTA
100
AcDbDimension
280
0
  2
*D53
  3
PAINEL-NOVA
 10
4019.5
 20
-17.8
 30
0.0
 11
4029.25
 21
-13.3
 31
0.0
 70
32
 71
5
  1
<>
100
AcDbAlignedDimension
 13
4019.5
 23
-12.8
 33
0.0
 14
4039.0
 24
-12.8
 34
0.0
 50
0.0
100
AcDbRotatedDimension
  0
DIMENSION
  5
48D
330
17
100
AcDbEntity
  8
COTA
100
AcDbDimension
280
0
  2
*D54
  3
PAINEL-NOVA
 10
4039.0
 20
-17.8
 30
0.0
 11
4051.25
 21
-13.3
 31
0.0
 70
32
 71
5
  1
<>
100
AcDbAlignedDimension
 13
4039.0
 23
-12.8
 33
0.0
 14
4063.5
 24
-12.8
 34
0.0
 50
0.0
100
AcDbRotatedDimension
  0
DIMENSION
  5
49C
330
17
100
AcDbEntity
  8
COTA
100
AcDbDimension
280
0
  2
*D55
  3
PAINEL-NOVA
 10
4063.5
 20
-17.8
 30
0.0
 11
4075.75
 21
-13.3
 31
0.0
 70
32
 71
5
  1
<>
100
AcDbAlignedDimension
 13
4063.5
 23
-12.8
 33
0.0
 14
4088.0
 24
-12.8
 34
0.0
 50
0.0
100
AcDbRotatedDimension
  0
DIMENSION
  5
4AB
330
17
100
AcDbEntity
  8
COTA
100
AcDbDimension
280
0
  2
*D56
  3
PAINEL-NOVA
 10
4000.0
 20
-40.0
 30
0.0
 11
4044.0
 21
-40.0
 31
0.0
 70
32
 71
5
  1
<>
100
AcDbAlignedDimension
 13
4000.0
 23
0.0
 33
0.0
 14
4088.0
 24
0.0
 34
0.0
 50
0.0
100
AcDbRotatedDimension
  0
INSERT
  5
4BB
330
17
100
AcDbEntity
  8
SARR_2.2x7
100
AcDbBlockReference
  2
GRA-E
 10
4000.0
 20
0.0
 30
0.0
  0
INSERT
  5
4BD
330
17
100
AcDbEntity
  8
SARR_2.2x7
100
AcDbBlockReference
  2
GRA-D
 10
4081.0
 20
0.0
 30
0.0
  0
TEXT
  5
4BF
330
17
100
AcDbEntity
  8
NOMENCLATURA
100
AcDbText
 10
4118.0
 20
0.0
 30
0.0
 40
14.0
  1
P32.B
 50
90.0
100
AcDbText
  0
LINE
  5
4C0
330
17
100
AcDbEntity
  8
SARR_2.2x7
100
AcDbLine
 10
4128.0
 20
0.0
 30
0.0
 11
4216.0
 21
0.0
 31
0.0
  0
LINE
  5
4C1
330
17
100
AcDbEntity
  8
SARR_2.2x7
100
AcDbLine
 10
4216.0
 20
0.0
 30
0.0
 11
4216.0
 21
2.2
 31
0.0
  0
LINE
  5
4C2
330
17
100
AcDbEntity
  8
SARR_2.2x7
100
AcDbLine
 10
4216.0
 20
2.2
 30
0.0
 11
4128.0
 21
2.2
 31
0.0
  0
LINE
  5
4C3
330
17
100
AcDbEntity
  8
SARR_2.2x7
100
AcDbLine
 10
4128.0
 20
2.2
 30
0.0
 11
4128.0
 21
0.0
 31
0.0
  0
LINE
  5
4C4
330
17
100
AcDbEntity
  8
SARR_2.2x7
100
AcDbLine
 10
4128.0
 20
2.2
 30
0.0
 11
4135.0
 21
2.2
 31
0.0
  0
LINE
  5
4C5
330
17
100
AcDbEntity
  8
SARR_2.2x7
100
AcDbLine
 10
4135.0
 20
2.2
 30
0.0
 11
4135.0
 21
282.2
 31
0.0
  0
LINE
  5
4C6
330
17
100
AcDbEntity
  8
SARR_2.2x7
100
AcDbLine
 10
4135.0
 20
282.2
 30
0.0
 11
4128.0
 21
282.2
 31
0.0
  0
LINE
  5
4C7
330
17
100
AcDbEntity
  8
SARR_2.2x7
100
AcDbLine
 10
4128.0
 20
282.2
 30
0.0
 11
4128.0
 21
2.2
 31
0.0
  0
LINE
  5
4C8
330
17
100
AcDbEntity
  8
SARR_3.5x7
100
AcDbLine
 10
4150.75
 20
2.2
 30
0.0
 11
4154.25
 21
2.2
 31
0.0
  0
LINE
  5
4C9
330
17
100
AcDbEntity
  8
SARR_3.5x7
100
AcDbLine
 10
4154.25
 20
2.2
 30
0.0
 11
4154.25
 21
282.2
 31
0.0
  0
LINE
  5
4CA
330
17
100
AcDbEntity
  8
SARR_3.5x7
100
AcDbLine
 10
4154.25
 20
282.2
 30
0.0
 11
4150.75
 21
282.2
 31
0.0
  0
LINE
  5
4CB
330
17
100
AcDbEntity
  8
SARR_3.5x7
100
AcDbLine
 10
4150.75
 20
282.2
 30
0.0
 11
4150.75
 21
2.2
 31
0.0
  0
LINE
  5
4CC
330
17
100
AcDbEntity
  8
SARR_3.5x7
100
AcDbLine
 10
4175.25
 20
2.2
 30
0.0
 11
4178.75
 21
2.2
 31
0.0
  0
LINE
  5
4CD
330
17
100
AcDbEntity
  8
SARR_3.5x7
100
AcDbLine
 10
4178.75
 20
2.2
 30
0.0
 11
4178.75
 21
282.2
 31
0.0
  0
LINE
  5
4CE
330
17
100
AcDbEntity
  8
SARR_3.5x7
100
AcDbLine
 10
4178.75
 20
282.2
 30
0.0
 11
4175.25
 21
282.2
 31
0.0
  0
LINE
  5
4CF
330
17
100
AcDbEntity
  8
SARR_3.5x7
100
AcDbLine
 10
4175.25
 20
282.2
 30
0.0
 11
4175.25
 21
2.2
 31
0.0
  0
LINE
  5
4D0
330
17
100
AcDbEntity
  8
SARR_3.5x7
100
AcDbLine
 10
4194.75
 20
2.2
 30
0.0
 11
4198.25
 21
2.2
 31
0.0
  0
LINE
  5
4D1
330
17
100
AcDbEntity
  8
SARR_3.5x7
100
AcDbLine
 10
4198.25
 20
2.2
 30
0.0
 11
4198.25
 21
282.2
 31
0.0
  0
LINE
  5
4D2
330
17
100
AcDbEntity
  8
SARR_3.5x7
100
AcDbLine
 10
4198.25
 20
282.2
 30
0.0
 11
4194.75
 21
282.2
 31
0.0
  0
LINE
  5
4D3
330
17
100
AcDbEntity
  8
SARR_3.5x7
100
AcDbLine
 10
4194.75
 20
282.2
 30
0.0
 11
4194.75
 21
2.2
 31
0.0
  0
LINE
  5
4D4
330
17
100
AcDbEntity
  8
SARR_2.2x7
100
AcDbLine
 10
4209.0
 20
2.2
 30
0.0
 11
4216.0
 21
2.2
 31
0.0
  0
LINE
  5
4D5
330
17
100
AcDbEntity
  8
SARR_2.2x7
100
AcDbLine
 10
4216.0
 20
2.2
 30
0.0
 11
4216.0
 21
282.2
 31
0.0
  0
LINE
  5
4D6
330
17
100
AcDbEntity
  8
SARR_2.2x7
100
AcDbLine
 10
4216.0
 20
282.2
 30
0.0
 11
4209.0
 21
282.2
 31
0.0
  0
LINE
  5
4D7
330
17
100
AcDbEntity
  8
SARR_2.2x7
100
AcDbLine
 10
4209.0
 20
282.2
 30
0.0
 11
4209.0
 21
2.2
 31
0.0
  0
LINE
  5
4D8
330
17
100
AcDbEntity
  8
SARR_2.2x10
100
AcDbLine
 10
4128.0
 20
32.2
 30
0.0
 11
4216.0
 21
32.2
 31
0.0
  0
LINE
  5
4D9
330
17
100
AcDbEntity
  8
SARR_2.2x10
100
AcDbLine
 10
4216.0
 20
32.2
 30
0.0
 11
4216.0
 21
42.2
 31
0.0
  0
LINE
  5
4DA
330
17
100
AcDbEntity
  8
SARR_2.2x10
100
AcDbLine
 10
4216.0
 20
42.2
 30
0.0
 11
4128.0
 21
42.2
 31
0.0
  0
LINE
  5
4DB
330
17
100
AcDbEntity
  8
SARR_2.2x10
100
AcDbLine
 10
4128.0
 20
42.2
 30
0.0
 11
4128.0
 21
32.2
 31
0.0
  0
LINE
  5
4DC
330
17
100
AcDbEntity
  8
SARR_2.2x10
100
AcDbLine
 10
4128.0
 20
92.2
 30
0.0
 11
4216.0
 21
92.2
 31
0.0
  0
LINE
  5
4DD
330
17
100
AcDbEntity
  8
SARR_2.2x10
100
AcDbLine
 10
4216.0
 20
92.2
 30
0.0
 11
4216.0
 21
102.2
 31
0.0
  0
LINE
  5
4DE
330
17
100
AcDbEntity
  8
SARR_2.2x10
100
AcDbLine
 10
4216.0
 20
102.2
 30
0.0
 11
4128.0
 21
102.2
 31
0.0
  0
LINE
  5
4DF
330
17
100
AcDbEntity
  8
SARR_2.2x10
100
AcDbLine
 10
4128.0
 20
102.2
 30
0.0
 11
4128.0
 21
92.2
 31
0.0
  0
LINE
  5
4E0
330
17
100
AcDbEntity
  8
SARR_2.2x10
100
AcDbLine
 10
4128.0
 20
152.2
 30
0.0
 11
4216.0
 21
152.2
 31
0.0
  0
LINE
  5
4E1
330
17
100
AcDbEntity
  8
SARR_2.2x10
100
AcDbLine
 10
4216.0
 20
152.2
 30
0.0
 11
4216.0
 21
162.2
 31
0.0
  0
LINE
  5
4E2
330
17
100
AcDbEntity
  8
SARR_2.2x10
100
AcDbLine
 10
4216.0
 20
162.2
 30
0.0
 11
4128.0
 21
162.2
 31
0.0
  0
LINE
  5
4E3
330
17
100
AcDbEntity
  8
SARR_2.2x10
100
AcDbLine
 10
4128.0
 20
162.2
 30
0.0
 11
4128.0
 21
152.2
 31
0.0
  0
LINE
  5
4E4
330
17
100
AcDbEntity
  8
SARR_2.2x10
100
AcDbLine
 10
4128.0
 20
212.2
 30
0.0
 11
4216.0
 21
212.2
 31
0.0
  0
LINE
  5
4E5
330
17
100
AcDbEntity
  8
SARR_2.2x10
100
AcDbLine
 10
4216.0
 20
212.2
 30
0.0
 11
4216.0
 21
222.2
 31
0.0
  0
LINE
  5
4E6
330
17
100
AcDbEntity
  8
SARR_2.2x10
100
AcDbLine
 10
4216.0
 20
222.2
 30
0.0
 11
4128.0
 21
222.2
 31
0.0
  0
LINE
  5
4E7
330
17
100
AcDbEntity
  8
SARR_2.2x10
100
AcDbLine
 10
4128.0
 20
222.2
 30
0.0
 11
4128.0
 21
212.2
 31
0.0
  0
LINE
  5
4E8
330
17
100
AcDbEntity
  8
SARR_2.2x10
100
AcDbLine
 10
4128.0
 20
272.2
 30
0.0
 11
4216.0
 21
272.2
 31
0.0
  0
LINE
  5
4E9
330
17
100
AcDbEntity
  8
SARR_2.2x10
100
AcDbLine
 10
4216.0
 20
272.2
 30
0.0
 11
4216.0
 21
282.2
 31
0.0
  0
LINE
  5
4EA
330
17
100
AcDbEntity
  8
SARR_2.2x10
100
AcDbLine
 10
4216.0
 20
282.2
 30
0.0
 11
4128.0
 21
282.2
 31
0.0
  0
LINE
  5
4EB
330
17
100
AcDbEntity
  8
SARR_2.2x10
100
AcDbLine
 10
4128.0
 20
282.2
 30
0.0
 11
4128.0
 21
272.2
 31
0.0
  0
DIMENSION
  5
4EC
330
17
100
AcDbEntity
  8
COTA
100
AcDbDimension
280
0
  2
*D57
  3
PAINEL-NOVA
 10
4128.0
 20
-17.8
 30
0.0
 11
4140.25
 21
-13.3
 31
0.0
 70
32
 71
5
  1
<>
100
AcDbAlignedDimension
 13
4128.0
 23
-12.8
 33
0.0
 14
4152.5
 24
-12.8
 34
0.0
 50
0.0
100
AcDbRotatedDimension
  0
DIMENSION
  5
4FB
330
17
100
AcDbEntity
  8
COTA
100
AcDbDimension
280
0
  2
*D58
  3
PAINEL-NOVA
 10
4152.5
 20
-17.8
 30
0.0
 11
4164.75
 21
-13.3
 31
0.0
 70
32
 71
5
  1
<>
100
AcDbAlignedDimension
 13
4152.5
 23
-12.8
 33
0.0
 14
4177.0
 24
-12.8
 34
0.0
 50
0.0
100
AcDbRotatedDimension
  0
DIMENSION
  5
50A
330
17
100
AcDbEntity
  8
COTA
100
AcDbDimension
280
0
  2
*D59
  3
PAINEL-NOVA
 10
4177.0
 20
-17.8
 30
0.0
 11
4186.75
 21
-13.3
 31
0.0
 70
32
 71
5
  1
<>
100
AcDbAlignedDimension
 13
4177.0
 23
-12.8
 33
0.0
 14
4196.5
 24
-12.8
 34
0.0
 50
0.0
100
AcDbRotatedDimension
  0
DIMENSION
  5
519
330
17
100
AcDbEntity
  8
COTA
100
AcDbDimension
280
0
  2
*D60
  3
PAINEL-NOVA
 10
4196.5
 20
-17.8
 30
0.0
 11
4206.25
 21
-13.3
 31
0.0
 70
32
 71
5
  1
<>
100
AcDbAlignedDimension
 13
4196.5
 23
-12.8
 33
0.0
 14
4216.0
 24
-12.8
 34
0.0
 50
0.0
100
AcDbRotatedDimension
  0
DIMENSION
  5
528
330
17
100
AcDbEntity
  8
COTA
100
AcDbDimension
280
0
  2
*D61
  3
PAINEL-NOVA
 10
4128.0
 20
-40.0
 30
0.0
 11
4172.0
 21
-40.0
 31
0.0
 70
32
 71
5
  1
<>
100
AcDbAlignedDimension
 13
4128.0
 23
0.0
 33
0.0
 14
4216.0
 24
0.0
 34
0.0
 50
0.0
100
AcDbRotatedDimension
  0
INSERT
  5
538
330
17
100
AcDbEntity
  8
SARR_2.2x7
100
AcDbBlockReference
  2
GRA-E
 10
4128.0
 20
0.0
 30
0.0
  0
INSERT
  5
53A
330
17
100
AcDbEntity
  8
SARR_2.2x7
100
AcDbBlockReference
  2
GRA-D
 10
4209.0
 20
0.0
 30
0.0
  0
DIMENSION
  5
53C
330
17
100
AcDbEntity
  8
COTA
100
AcDbDimension
280
0
  2
*D62
  3
PAINEL-NOVA
 10
4266.0
 20
2.2
 30
0.0
 11
4266.0
 21
142.2
 31
0.0
 70
32
 71
5
  1
<>
100
AcDbAlignedDimension
 13
4216.0
 23
2.2
 33
0.0
 14
4216.0
 24
282.2
 34
0.0
 50
90.0
100
AcDbRotatedDimension
  0
DIMENSION
  5
54C
330
17
100
AcDbEntity
  8
COTA
100
AcDbDimension
280
0
  2
*D63
  3
PAINEL-NOVA
 10
4246.0
 20
2.2
 30
0.0
 11
4246.0
 21
17.200000000000003
 31
0.0
 70
32
 71
5
  1
<>
100
AcDbAlignedDimension
 13
4216.0
 23
2.2
 33
0.0
 14
4216.0
 24
32.2
 34
0.0
 50
90.0
100
AcDbRotatedDimension
  0
DIMENSION
  5
55C
330
17
100
AcDbEntity
  8
COTA
100
AcDbDimension
280
0
  2
*D64
  3
PAINEL-NOVA
 10
4246.0
 20
32.2
 30
0.0
 11
4241.5
 21
37.2
 31
0.0
 70
32
 71
5
  1
<>
100
AcDbAlignedDimension
 13
4216.0
 23
32.2
 33
0.0
 14
4216.0
 24
42.2
 34
0.0
 50
90.0
100
AcDbRotatedDimension
  0
DIMENSION
  5
56B
330
17
100
AcDbEntity
  8
COTA
100
AcDbDimension
280
0
  2
*D65
  3
PAINEL-NOVA
 10
4246.0
 20
42.2
 30
0.0
 11
4246.0
 21
67.2
 31
0.0
 70
32
 71
5
  1
<>
100
AcDbAlignedDimension
 13
4216.0
 23
42.2
 33
0.0
 14
4216.0
 24
92.2
 34
0.0
 50
90.0
100
AcDbRotatedDimension
  0
DIMENSION
  5
57B
330
17
100
AcDbEntity
  8
COTA
100
AcDbDimension
280
0
  2
*D66
  3
PAINEL-NOVA
 10
4246.0
 20
92.2
 30
0.0
 11
4241.5
 21
97.2
 31
0.0
 70
32
 71
5
  1
<>
100
AcDbAlignedDimension
 13
4216.0
 23
92.2
 33
0.0
 14
4216.0
 24
102.2
 34
0.0
 50
90.0
100
AcDbRotatedDimension
  0
DIMENSION
  5
58A
330
17
100
AcDbEntity
  8
COTA
100
AcDbDimension
280
0
  2
*D67
  3
PAINEL-NOVA
 10
4246.0
 20
102.2
 30
0.0
 11
4246.0
 21
127.19999999999999
 31
0.0
 70
32
 71
5
  1
<>
100
AcDbAlignedDimension
 13
4216.0
 23
102.2
 33
0.0
 14
4216.0
 24
152.2
 34
0.0
 50
90.0
100
AcDbRotatedDimension
  0
DIMENSION
  5
59A
330
17
100
AcDbEntity
  8
COTA
100
AcDbDimension
280
0
  2
*D68
  3
PAINEL-NOVA
 10
4246.0
 20
152.2
 30
0.0
 11
4241.5
 21
157.2
 31
0.0
 70
32
 71
5
  1
<>
100
AcDbAlignedDimension
 13
4216.0
 23
152.2
 33
0.0
 14
4216.0
 24
162.2
 34
0.0
 50
90.0
100
AcDbRotatedDimension
  0
DIMENSION
  5
5A9
330
17
100
AcDbEntity
  8
COTA
100
AcDbDimension
280
0
  2
*D69
  3
PAINEL-NOVA
 10
4246.0
 20
162.2
 30
0.0
 11
4246.0
 21
187.2
 31
0.0
 70
32
 71
5
  1
<>
100
AcDbAlignedDimension
 13
4216.0
 23
162.2
 33
0.0
 14
4216.0
 24
212.2
 34
0.0
 50
90.0
100
AcDbRotatedDimension
  0
DIMENSION
  5
5B9
330
17
100
AcDbEntity
  8
COTA
100
AcDbDimension
280
0
  2
*D70
  3
PAINEL-NOVA
 10
4246.0
 20
212.2
 30
0.0
 11
4241.5
 21
217.2
 31
0.0
 70
32
 71
5
  1
<>
100
AcDbAlignedDimension
 13
4216.0
 23
212.2
 33
0.0
 14
4216.0
 24
222.2
 34
0.0
 50
90.0
100
AcDbRotatedDimension
  0
DIMENSION
  5
5C8
330
17
100
AcDbEntity
  8
COTA
100
AcDbDimension
280
0
  2
*D71
  3
PAINEL-NOVA
 10
4246.0
 20
222.2
 30
0.0
 11
4246.0
 21
247.2
 31
0.0
 70
32
 71
5
  1
<>
100
AcDbAlignedDimension
 13
4216.0
 23
222.2
 33
0.0
 14
4216.0
 24
272.2
 34
0.0
 50
90.0
100
AcDbRotatedDimension
  0
DIMENSION
  5
5D8
330
17
100
AcDbEntity
  8
COTA
100
AcDbDimension
280
0
  2
*D72
  3
PAINEL-NOVA
 10
4246.0
 20
272.2
 30
0.0
 11
4241.5
 21
277.2
 31
0.0
 70
32
 71
5
  1
<>
100
AcDbAlignedDimension
 13
4216.0
 23
272.2
 33
0.0
 14
4216.0
 24
282.2
 34
0.0
 50
90.0
100
AcDbRotatedDimension
  0
LWPOLYLINE
  5
5E7
330
17
100
AcDbEntity
  8
Painéis
100
AcDbPolyline
 90
4
 70
1
 10
-6920.0
 20
-380.0
 10
-6832.0
 20
-380.0
 10
-6832.0
 20
-100.0
 10
-6920.0
 20
-100.0
  0
LWPOLYLINE
  5
5E8
330
17
100
AcDbEntity
  8
Madeira
100
AcDbPolyline
 90
2
 70
0
 10
-6920.0
 20
-287.6
 10
-6832.0
 20
-287.6
  0
LWPOLYLINE
  5
5E9
330
17
100
AcDbEntity
  8
Madeira
100
AcDbPolyline
 90
2
 70
0
 10
-6920.0
 20
-192.39999999999998
 10
-6832.0
 20
-192.39999999999998
  0
LWPOLYLINE
  5
5EA
330
17
100
AcDbEntity
  8
CHAPA
100
AcDbPolyline
 90
4
 70
1
 10
-6920.0
 20
-380.0
 10
-6918.8
 20
-380.0
 10
-6918.8
 20
-100.0
 10
-6920.0
 20
-100.0
  0
LINE
  5
5EB
330
17
100
AcDbEntity
  8
Perfil Metálico
100
AcDbLine
 10
-6876.0
 20
-380.0
 30
0.0
 11
-6876.0
 21
-100.0
 31
0.0
  0
LWPOLYLINE
  5
5EC
330
17
100
AcDbEntity
  8
SARRAFO DE PRESSAO
100
AcDbPolyline
 90
4
 70
1
 10
-6920.0
 20
-380.0
 10
-6832.0
 20
-380.0
 10
-6832.0
 20
-375.0
 10
-6920.0
 20
-375.0
  0
LWPOLYLINE
  5
5ED
330
17
100
AcDbEntity
  8
MEIO_PONT
100
AcDbPolyline
 90
2
 70
0
 10
-6920.0
 20
-240.0
 10
-6832.0
 20
-240.0
  0
TEXT
  5
5EE
330
17
100
AcDbEntity
  8
TEXTO_GERAL
100
AcDbText
 10
-6920.0
 20
-72.0
 30
0.0
 40
9.0
  1
P32
100
AcDbText
  0
TEXT
  5
5EF
330
17
100
AcDbEntity
  8
texto
100
AcDbText
 10
-6915.0
 20
-86.0
 30
0.0
 40
7.0
  1
66
100
AcDbText
  0
LINE
  5
5F0
330
17
100
AcDbEntity
  8
0
100
AcDbLine
 10
-8500.0
 20
0.0
 30
0.0
 11
-8490.0
 21
0.0
 31
0.0
  0
LINE
  5
5F1
330
17
100
AcDbEntity
  8
CONCRETO
100
AcDbLine
 10
-8500.0
 20
0.0
 30
0.0
 11
-8490.0
 21
0.0
 31
0.0
  0
LINE
  5
5F3
330
17
100
AcDbEntity
  8
BARRA ANCORAGEM
100
AcDbLine
 10
-8500.0
 20
0.0
 30
0.0
 11
-8490.0
 21
0.0
 31
0.0
  0
LINE
  5
5F5
330
17
100
AcDbEntity
  8
NIVEL
100
AcDbLine
 10
-8500.0
 20
0.0
 30
0.0
 11
-8490.0
 21
0.0
 31
0.0
  0
LINE
  5
5F7
330
17
100
AcDbEntity
  8
Folhas
100
AcDbLine
 10
-8500.0
 20
0.0
 30
0.0
 11
-8490.0
 21
0.0
 31
0.0
  0
ENDSEC
  0
SECTION
  2
OBJECTS
  0
DICTIONARY
  5
A
330
0
100
AcDbDictionary
281
1
  3
ACAD_COLOR
350
B
  3
ACAD_GROUP
350
C
  3
ACAD_LAYOUT
350
D
  3
ACAD_MATERIAL
350
E
  3
ACAD_MLEADERSTYLE
350
F
  3
ACAD_MLINESTYLE
350
10
  3
ACAD_PLOTSETTINGS
350
11
  3
ACAD_PLOTSTYLENAME
350
12
  3
ACAD_SCALELIST
350
14
  3
ACAD_TABLESTYLE
350
15
  3
ACAD_VISUALSTYLE
350
16
  3
EZDXF_META
350
2D
  0
DICTIONARY
  5
B
330
A
100
AcDbDictionary
281
1
  0
DICTIONARY
  5
C
330
A
100
AcDbDictionary
281
1
  0
DICTIONARY
  5
D
330
A
100
AcDbDictionary
281
1
  3
Model
350
1A
  3
Layout1
350
1E
  0
DICTIONARY
  5
E
330
A
100
AcDbDictionary
281
1
  3
ByBlock
350
1F
  3
ByLayer
350
20
  3
Global
350
21
  0
DICTIONARY
  5
F
330
A
100
AcDbDictionary
281
1
  3
Standard
350
2C
  0
DICTIONARY
  5
10
330
A
100
AcDbDictionary
281
1
  3
Standard
350
22
  0
DICTIONARY
  5
11
330
A
100
AcDbDictionary
281
1
  0
ACDBDICTIONARYWDFLT
  5
12
330
A
100
AcDbDictionary
281
1
  3
Normal
350
13
100
AcDbDictionaryWithDefault
340
13
  0
ACDBPLACEHOLDER
  5
13
330
12
  0
DICTIONARY
  5
14
330
A
100
AcDbDictionary
281
1
  0
DICTIONARY
  5
15
330
A
100
AcDbDictionary
281
1
  0
DICTIONARY
  5
16
330
A
100
AcDbDictionary
281
1
  0
LAYOUT
  5
1A
330
D
100
AcDbPlotSettings
  1

  4
A3
  6

 40
7.5
 41
20.0
 42
7.5
 43
20.0
 44
420.0
 45
297.0
 46
0.0
 47
0.0
 48
0.0
 49
0.0
140
0.0
141
0.0
142
1.0
143
1.0
 70
1024
 72
1
 73
0
 74
5
  7

 75
16
 76
0
 77
2
 78
300
147
1.0
148
0.0
149
0.0
100
AcDbLayout
  1
Model
 70
1
 71
0
 10
0.0
 20
0.0
 11
420.0
 21
297.0
 12
0.0
 22
0.0
 32
0.0
 14
1e+20
 24
1e+20
 34
1e+20
 15
-1e+20
 25
-1e+20
 35
-1e+20
146
0.0
 13
0.0
 23
0.0
 33
0.0
 16
1.0
 26
0.0
 36
0.0
 17
0.0
 27
1.0
 37
0.0
 76
1
330
17
  0
LAYOUT
  5
1E
330
D
100
AcDbPlotSettings
  1

  4
A3
  6

 40
7.5
 41
20.0
 42
7.5
 43
20.0
 44
420.0
 45
297.0
 46
0.0
 47
0.0
 48
0.0
 49
0.0
140
0.0
141
0.0
142
1.0
143
1.0
 70
0
 72
1
 73
0
 74
5
  7

 75
16
 76
0
 77
2
 78
300
147
1.0
148
0.0
149
0.0
100
AcDbLayout
  1
Layout1
 70
1
 71
1
 10
0.0
 20
0.0
 11
420.0
 21
297.0
 12
0.0
 22
0.0
 32
0.0
 14
1e+20
 24
1e+20
 34
1e+20
 15
-1e+20
 25
-1e+20
 35
-1e+20
146
0.0
 13
0.0
 23
0.0
 33
0.0
 16
1.0
 26
0.0
 36
0.0
 17
0.0
 27
1.0
 37
0.0
 76
1
330
1B
  0
MATERIAL
  5
1F
102
{ACAD_REACTORS
330
E
102
}
330
E
100
AcDbMaterial
  1
ByBlock
  2

 70
0
 40
1.0
 71
1
 41
1.0
 91
-1023410177
 42
1.0
 72
1
  3

 73
1
 74
1
 75
1
 44
0.5
 73
0
 45
1.0
 46
1.0
 77
1
  4

 78
1
 79
1
170
1
 48
1.0
171
1
  6

172
1
173
1
174
1
140
1.0
141
1.0
175
1
  7

176
1
177
1
178
1
143
1.0
179
1
  8

270
1
271
1
272
1
145
1.0
146
1.0
273
1
  9

274
1
275
1
276
1
 42
1.0
 72
1
  3

 73
1
 74
1
 75
1
 94
63
  0
MATERIAL
  5
20
102
{ACAD_REACTORS
330
E
102
}
330
E
100
AcDbMaterial
  1
ByLayer
  2

 70
0
 40
1.0
 71
1
 41
1.0
 91
-1023410177
 42
1.0
 72
1
  3

 73
1
 74
1
 75
1
 44
0.5
 73
0
 45
1.0
 46
1.0
 77
1
  4

 78
1
 79
1
170
1
 48
1.0
171
1
  6

172
1
173
1
174
1
140
1.0
141
1.0
175
1
  7

176
1
177
1
178
1
143
1.0
179
1
  8

270
1
271
1
272
1
145
1.0
146
1.0
273
1
  9

274
1
275
1
276
1
 42
1.0
 72
1
  3

 73
1
 74
1
 75
1
 94
63
  0
MATERIAL
  5
21
102
{ACAD_REACTORS
330
E
102
}
330
E
100
AcDbMaterial
  1
Global
  2

 70
0
 40
1.0
 71
1
 41
1.0
 91
-1023410177
 42
1.0
 72
1
  3

 73
1
 74
1
 75
1
 44
0.5
 73
0
 45
1.0
 46
1.0
 77
1
  4

 78
1
 79
1
170
1
 48
1.0
171
1
  6

172
1
173
1
174
1
140
1.0
141
1.0
175
1
  7

176
1
177
1
178
1
143
1.0
179
1
  8

270
1
271
1
272
1
145
1.0
146
1.0
273
1
  9

274
1
275
1
276
1
 42
1.0
 72
1
  3

 73
1
 74
1
 75
1
 94
63
  0
MLINESTYLE
  5
22
102
{ACAD_REACTORS
330
10
102
}
330
10
100
AcDbMlineStyle
  2
Standard
 70
0
  3

 62
256
 51
90.0
 52
90.0
 71
2
 49
0.5
 62
256
  6
BYLAYER
 49
-0.5
 62
256
  6
BYLAYER
  0
MLEADERSTYLE
  5
2C
102
{ACAD_REACTORS
330
F
102
}
330
F
100
AcDbMLeaderStyle
179
2
170
2
171
1
172
0
 90
2
 40
0.0
 41
0.0
173
1
 91
-1056964608
 92
-2
290
1
 42
2.0
291
1
 43
8.0
  3
Standard
 44
4.0
300

342
29
174
1
175
1
176
0
178
1
 93
-1056964608
 45
4.0
292
0
297
0
 46
4.0
 94
-1056964608
 47
1.0
 49
1.0
140
1.0
294
1
141
0.0
177
0
142
1.0
295
0
296
0
143
3.75
271
0
272
9
273
9
  0
DICTIONARY
  5
2D
330
A
100
AcDbDictionary
280
1
281
1
  3
CREATED_BY_EZDXF
350
2E
  3
WRITTEN_BY_EZDXF
350
5FA
  0
DICTIONARYVAR
  5
2E
330
2D
100
DictionaryVariables
280
0
  1
1.4.3 @ 2026-06-19T02:33:46.487728+00:00
  0
DICTIONARYVAR
  5
5FA
330
2D
100
DictionaryVariables
280
0
  1
1.4.3 @ 2026-06-19T02:33:46.578362+00:00
  0
ENDSEC
  0
EOF
