  0
SECTION
  2
HEADER
  9
$ACADVER
  1
AC1024
  9
$ACADMAINTVER
 70
6
  9
$DWGCODEPAGE
  3
ANSI_1252
  9
$LASTSAVEDBY
  1
ezdxf
  9
$INSBASE
 10
0.0
 20
0.0
 30
0.0
  9
$EXTMIN
 10
1e+20
 20
1e+20
 30
1e+20
  9
$EXTMAX
 10
-1e+20
 20
-1e+20
 30
-1e+20
  9
$LIMMIN
 10
0.0
 20
0.0
  9
$LIMMAX
 10
420.0
 20
297.0
  9
$ORTHOMODE
 70
0
  9
$REGENMODE
 70
1
  9
$FILLMODE
 70
1
  9
$QTEXTMODE
 70
0
  9
$MIRRTEXT
 70
1
  9
$LTSCALE
 40
1.0
  9
$ATTMODE
 70
1
  9
$TEXTSIZE
 40
2.5
  9
$TRACEWID
 40
1.0
  9
$TEXTSTYLE
  7
Standard
  9
$CLAYER
  8
0
  9
$CELTYPE
  6
ByLayer
  9
$CECOLOR
 62
256
  9
$CELTSCALE
 40
1.0
  9
$DISPSILH
 70
0
  9
$DIMSCALE
 40
1.0
  9
$DIMASZ
 40
2.5
  9
$DIMEXO
 40
0.625
  9
$DIMDLI
 40
3.75
  9
$DIMRND
 40
0.0
  9
$DIMDLE
 40
0.0
  9
$DIMEXE
 40
1.25
  9
$DIMTP
 40
0.0
  9
$DIMTM
 40
0.0
  9
$DIMTXT
 40
2.5
  9
$DIMCEN
 40
2.5
  9
$DIMTSZ
 40
0.0
  9
$DIMTOL
 70
0
  9
$DIMLIM
 70
0
  9
$DIMTIH
 70
0
  9
$DIMTOH
 70
0
  9
$DIMSE1
 70
0
  9
$DIMSE2
 70
0
  9
$DIMTAD
 70
1
  9
$DIMZIN
 70
8
  9
$DIMBLK
  1

  9
$DIMASO
 70
1
  9
$DIMSHO
 70
1
  9
$DIMPOST
  1

  9
$DIMAPOST
  1

  9
$DIMALT
 70
0
  9
$DIMALTD
 70
3
  9
$DIMALTF
 40
0.03937007874
  9
$DIMLFAC
 40
1.0
  9
$DIMTOFL
 70
1
  9
$DIMTVP
 40
0.0
  9
$DIMTIX
 70
0
  9
$DIMSOXD
 70
0
  9
$DIMSAH
 70
0
  9
$DIMBLK1
  1

  9
$DIMBLK2
  1

  9
$DIMSTYLE
  2
ISO-25
  9
$DIMCLRD
 70
0
  9
$DIMCLRE
 70
0
  9
$DIMCLRT
 70
0
  9
$DIMTFAC
 40
1.0
  9
$DIMGAP
 40
0.625
  9
$DIMJUST
 70
0
  9
$DIMSD1
 70
0
  9
$DIMSD2
 70
0
  9
$DIMTOLJ
 70
0
  9
$DIMTZIN
 70
8
  9
$DIMALTZ
 70
0
  9
$DIMALTTZ
 70
0
  9
$DIMUPT
 70
0
  9
$DIMDEC
 70
2
  9
$DIMTDEC
 70
2
  9
$DIMALTU
 70
2
  9
$DIMALTTD
 70
3
  9
$DIMTXSTY
  7
Standard
  9
$DIMAUNIT
 70
0
  9
$DIMADEC
 70
0
  9
$DIMALTRND
 40
0.0
  9
$DIMAZIN
 70
0
  9
$DIMDSEP
 70
44
  9
$DIMATFIT
 70
3
  9
$DIMFRAC
 70
0
  9
$DIMLDRBLK
  1

  9
$DIMLUNIT
 70
2
  9
$DIMLWD
 70
-2
  9
$DIMLWE
 70
-2
  9
$DIMTMOVE
 70
0
  9
$DIMFXL
 40
1.0
  9
$DIMFXLON
 70
0
  9
$DIMJOGANG
 40
0.785398163397
  9
$DIMTFILL
 70
0
  9
$DIMTFILLCLR
 70
0
  9
$DIMARCSYM
 70
0
  9
$DIMLTYPE
  6

  9
$DIMLTEX1
  6

  9
$DIMLTEX2
  6

  9
$DIMTXTDIRECTION
 70
0
  9
$LUNITS
 70
2
  9
$LUPREC
 70
4
  9
$SKETCHINC
 40
1.0
  9
$FILLETRAD
 40
10.0
  9
$AUNITS
 70
0
  9
$AUPREC
 70
2
  9
$MENU
  1
.
  9
$ELEVATION
 40
0.0
  9
$PELEVATION
 40
0.0
  9
$THICKNESS
 40
0.0
  9
$LIMCHECK
 70
0
  9
$CHAMFERA
 40
0.0
  9
$CHAMFERB
 40
0.0
  9
$CHAMFERC
 40
0.0
  9
$CHAMFERD
 40
0.0
  9
$SKPOLY
 70
0
  9
$TDCREATE
 40
2461202.613414352
  9
$TDUCREATE
 40
2458532.153996898
  9
$TDUPDATE
 40
2461202.613414352
  9
$TDUUPDATE
 40
2458532.1544311
  9
$TDINDWG
 40
0.0
  9
$TDUSRTIMER
 40
0.0
  9
$USRTIMER
 70
1
  9
$ANGBASE
 50
0.0
  9
$ANGDIR
 70
0
  9
$PDMODE
 70
0
  9
$PDSIZE
 40
0.0
  9
$PLINEWID
 40
0.0
  9
$SPLFRAME
 70
0
  9
$SPLINETYPE
 70
6
  9
$SPLINESEGS
 70
8
  9
$HANDSEED
  5
E5
  9
$SURFTAB1
 70
6
  9
$SURFTAB2
 70
6
  9
$SURFTYPE
 70
6
  9
$SURFU
 70
6
  9
$SURFV
 70
6
  9
$UCSBASE
  2

  9
$UCSNAME
  2

  9
$UCSORG
 10
0.0
 20
0.0
 30
0.0
  9
$UCSXDIR
 10
1.0
 20
0.0
 30
0.0
  9
$UCSYDIR
 10
0.0
 20
1.0
 30
0.0
  9
$UCSORTHOREF
  2

  9
$UCSORTHOVIEW
 70
0
  9
$UCSORGTOP
 10
0.0
 20
0.0
 30
0.0
  9
$UCSORGBOTTOM
 10
0.0
 20
0.0
 30
0.0
  9
$UCSORGLEFT
 10
0.0
 20
0.0
 30
0.0
  9
$UCSORGRIGHT
 10
0.0
 20
0.0
 30
0.0
  9
$UCSORGFRONT
 10
0.0
 20
0.0
 30
0.0
  9
$UCSORGBACK
 10
0.0
 20
0.0
 30
0.0
  9
$PUCSBASE
  2

  9
$PUCSNAME
  2

  9
$PUCSORG
 10
0.0
 20
0.0
 30
0.0
  9
$PUCSXDIR
 10
1.0
 20
0.0
 30
0.0
  9
$PUCSYDIR
 10
0.0
 20
1.0
 30
0.0
  9
$PUCSORTHOREF
  2

  9
$PUCSORTHOVIEW
 70
0
  9
$PUCSORGTOP
 10
0.0
 20
0.0
 30
0.0
  9
$PUCSORGBOTTOM
 10
0.0
 20
0.0
 30
0.0
  9
$PUCSORGLEFT
 10
0.0
 20
0.0
 30
0.0
  9
$PUCSORGRIGHT
 10
0.0
 20
0.0
 30
0.0
  9
$PUCSORGFRONT
 10
0.0
 20
0.0
 30
0.0
  9
$PUCSORGBACK
 10
0.0
 20
0.0
 30
0.0
  9
$USERI1
 70
0
  9
$USERI2
 70
0
  9
$USERI3
 70
0
  9
$USERI4
 70
0
  9
$USERI5
 70
0
  9
$USERR1
 40
0.0
  9
$USERR2
 40
0.0
  9
$USERR3
 40
0.0
  9
$USERR4
 40
0.0
  9
$USERR5
 40
0.0
  9
$WORLDVIEW
 70
1
  9
$SHADEDGE
 70
3
  9
$SHADEDIF
 70
70
  9
$TILEMODE
 70
1
  9
$MAXACTVP
 70
64
  9
$PINSBASE
 10
0.0
 20
0.0
 30
0.0
  9
$PLIMCHECK
 70
0
  9
$PEXTMIN
 10
1e+20
 20
1e+20
 30
1e+20
  9
$PEXTMAX
 10
-1e+20
 20
-1e+20
 30
-1e+20
  9
$PLIMMIN
 10
0.0
 20
0.0
  9
$PLIMMAX
 10
420.0
 20
297.0
  9
$UNITMODE
 70
0
  9
$VISRETAIN
 70
1
  9
$PLINEGEN
 70
0
  9
$PSLTSCALE
 70
1
  9
$TREEDEPTH
 70
3020
  9
$CMLSTYLE
  2
Standard
  9
$CMLJUST
 70
0
  9
$CMLSCALE
 40
20.0
  9
$PROXYGRAPHICS
 70
1
  9
$MEASUREMENT
 70
1
  9
$CELWEIGHT
370
-1
  9
$ENDCAPS
280
0
  9
$JOINSTYLE
280
0
  9
$LWDISPLAY
290
0
  9
$INSUNITS
 70
6
  9
$HYPERLINKBASE
  1

  9
$STYLESHEET
  1

  9
$XEDIT
290
1
  9
$CEPSNTYPE
380
0
  9
$PSTYLEMODE
290
1
  9
$FINGERPRINTGUID
  2
{CBA9D00B-D994-455E-9FDA-9CC9E01192A6}
  9
$VERSIONGUID
  2
{DB55BAC5-DC22-4F8F-A345-4072B5AFFCDB}
  9
$EXTNAMES
290
1
  9
$PSVPSCALE
 40
0.0
  9
$OLESTARTUP
290
0
  9
$SORTENTS
280
127
  9
$INDEXCTL
280
0
  9
$HIDETEXT
280
1
  9
$XCLIPFRAME
280
1
  9
$HALOGAP
280
0
  9
$OBSCOLOR
 70
257
  9
$OBSLTYPE
280
0
  9
$INTERSECTIONDISPLAY
280
0
  9
$INTERSECTIONCOLOR
 70
257
  9
$DIMASSOC
280
2
  9
$PROJECTNAME
  1

  9
$CAMERADISPLAY
290
0
  9
$LENSLENGTH
 40
50.0
  9
$CAMERAHEIGHT
 40
0.0
  9
$STEPSPERSEC
 40
24.0
  9
$STEPSIZE
 40
100.0
  9
$3DDWFPREC
 40
2.0
  9
$PSOLWIDTH
 40
0.005
  9
$PSOLHEIGHT
 40
0.08
  9
$LOFTANG1
 40
1.570796326795
  9
$LOFTANG2
 40
1.570796326795
  9
$LOFTMAG1
 40
0.0
  9
$LOFTMAG2
 40
0.0
  9
$LOFTPARAM
 70
7
  9
$LOFTNORMALS
280
1
  9
$LATITUDE
 40
37.795
  9
$LONGITUDE
 40
-122.394
  9
$NORTHDIRECTION
 40
0.0
  9
$TIMEZONE
 70
-8000
  9
$LIGHTGLYPHDISPLAY
280
1
  9
$TILEMODELIGHTSYNCH
280
1
  9
$CMATERIAL
347
20
  9
$SOLIDHIST
280
0
  9
$SHOWHIST
280
1
  9
$DWFFRAME
280
2
  9
$DGNFRAME
280
2
  9
$REALWORLDSCALE
290
1
  9
$INTERFERECOLOR
 62
256
  9
$CSHADOW
280
0
  9
$SHADOWPLANELOCATION
 40
0.0
  0
ENDSEC
  0
SECTION
  2
CLASSES
  0
CLASS
  1
ACDBDICTIONARYWDFLT
  2
AcDbDictionaryWithDefault
  3
ObjectDBX Classes
 90
0
 91
0
280
0
281
0
  0
CLASS
  1
SUN
  2
AcDbSun
  3
SCENEOE
 90
1153
 91
0
280
0
281
0
  0
CLASS
  1
VISUALSTYLE
  2
AcDbVisualStyle
  3
ObjectDBX Classes
 90
4095
 91
0
280
0
281
0
  0
CLASS
  1
MATERIAL
  2
AcDbMaterial
  3
ObjectDBX Classes
 90
1153
 91
0
280
0
281
0
  0
CLASS
  1
SCALE
  2
AcDbScale
  3
ObjectDBX Classes
 90
1153
 91
0
280
0
281
0
  0
CLASS
  1
TABLESTYLE
  2
AcDbTableStyle
  3
ObjectDBX Classes
 90
4095
 91
0
280
0
281
0
  0
CLASS
  1
MLEADERSTYLE
  2
AcDbMLeaderStyle
  3
ACDB_MLEADERSTYLE_CLASS
 90
4095
 91
0
280
0
281
0
  0
CLASS
  1
DICTIONARYVAR
  2
AcDbDictionaryVar
  3
ObjectDBX Classes
 90
0
 91
0
280
0
281
0
  0
CLASS
  1
CELLSTYLEMAP
  2
AcDbCellStyleMap
  3
ObjectDBX Classes
 90
1152
 91
0
280
0
281
0
  0
CLASS
  1
MENTALRAYRENDERSETTINGS
  2
AcDbMentalRayRenderSettings
  3
SCENEOE
 90
1024
 91
0
280
0
281
0
  0
CLASS
  1
ACDBDETAILVIEWSTYLE
  2
AcDbDetailViewStyle
  3
ObjectDBX Classes
 90
1025
 91
0
280
0
281
0
  0
CLASS
  1
ACDBSECTIONVIEWSTYLE
  2
AcDbSectionViewStyle
  3
ObjectDBX Classes
 90
1025
 91
0
280
0
281
0
  0
CLASS
  1
RASTERVARIABLES
  2
AcDbRasterVariables
  3
ISM
 90
0
 91
0
280
0
281
0
  0
CLASS
  1
ACDBPLACEHOLDER
  2
AcDbPlaceHolder
  3
ObjectDBX Classes
 90
0
 91
0
280
0
281
0
  0
CLASS
  1
LAYOUT
  2
AcDbLayout
  3
ObjectDBX Classes
 90
0
 91
0
280
0
281
0
  0
ENDSEC
  0
SECTION
  2
TABLES
  0
TABLE
  2
VPORT
  5
8
330
0
100
AcDbSymbolTable
 70
1
  0
VPORT
  5
23
330
8
100
AcDbSymbolTableRecord
100
AcDbViewportTableRecord
  2
*Active
 70
0
 10
0.0
 20
0.0
 11
1.0
 21
1.0
 12
0.0
 22
0.0
 13
0.0
 23
0.0
 14
0.5
 24
0.5
 15
0.5
 25
0.5
 16
0.0
 26
0.0
 36
1.0
 17
0.0
 27
0.0
 37
0.0
 40
1000.0
 41
1.34
 42
50.0
 43
0.0
 44
0.0
 50
0.0
 51
0.0
 71
0
 72
1000
 73
1
 74
3
 75
0
 76
0
 77
0
 78
0
281
0
 65
0
146
0.0
  0
ENDTAB
  0
TABLE
  2
LTYPE
  5
2
330
0
100
AcDbSymbolTable
 70
3
  0
LTYPE
  5
24
330
2
100
AcDbSymbolTableRecord
100
AcDbLinetypeTableRecord
  2
ByBlock
 70
0
  3

 72
65
 73
0
 40
0.0
  0
LTYPE
  5
25
330
2
100
AcDbSymbolTableRecord
100
AcDbLinetypeTableRecord
  2
ByLayer
 70
0
  3

 72
65
 73
0
 40
0.0
  0
LTYPE
  5
26
330
2
100
AcDbSymbolTableRecord
100
AcDbLinetypeTableRecord
  2
Continuous
 70
0
  3

 72
65
 73
0
 40
0.0
  0
ENDTAB
  0
TABLE
  2
LAYER
  5
1
330
0
100
AcDbSymbolTable
 70
9
  0
LAYER
  5
27
330
1
100
AcDbSymbolTableRecord
100
AcDbLayerTableRecord
  2
0
 70
0
 62
7
  6
Continuous
370
-3
390
13
347
21
  0
LAYER
  5
28
330
1
100
AcDbSymbolTableRecord
100
AcDbLayerTableRecord
  2
Defpoints
 70
0
 62
7
  6
Continuous
290
0
370
-3
390
13
347
21
  0
LAYER
  5
2F
330
1
100
AcDbSymbolTableRecord
100
AcDbLayerTableRecord
  2
1
 70
0
 62
7
  6
Continuous
370
-3
390
13
347
21
  0
LAYER
  5
30
330
1
100
AcDbSymbolTableRecord
100
AcDbLayerTableRecord
  2
4
 70
0
 62
7
  6
Continuous
370
-3
390
13
347
21
  0
LAYER
  5
31
330
1
100
AcDbSymbolTableRecord
100
AcDbLayerTableRecord
  2
7
 70
0
 62
7
  6
Continuous
370
-3
390
13
347
21
  0
LAYER
  5
32
330
1
100
AcDbSymbolTableRecord
100
AcDbLayerTableRecord
  2
3
 70
0
 62
7
  6
Continuous
370
-3
390
13
347
21
  0
LAYER
  5
33
330
1
100
AcDbSymbolTableRecord
100
AcDbLayerTableRecord
  2
Painéis
 70
0
 62
7
  6
Continuous
370
-3
390
13
347
21
  0
LAYER
  5
34
330
1
100
AcDbSymbolTableRecord
100
AcDbLayerTableRecord
  2
REAPROVEITAMENTO
 70
0
 62
7
  6
Continuous
370
-3
390
13
347
21
  0
LAYER
  5
35
330
1
100
AcDbSymbolTableRecord
100
AcDbLayerTableRecord
  2
Hachura
 70
0
 62
7
  6
Continuous
370
-3
390
13
347
21
  0
ENDTAB
  0
TABLE
  2
STYLE
  5
5
330
0
100
AcDbSymbolTable
 70
1
  0
STYLE
  5
29
330
5
100
AcDbSymbolTableRecord
100
AcDbTextStyleTableRecord
  2
Standard
 70
0
 40
0.0
 41
1.0
 50
0.0
 71
0
 42
2.5
  3
txt
  4

  0
ENDTAB
  0
TABLE
  2
VIEW
  5
7
330
0
100
AcDbSymbolTable
 70
0
  0
ENDTAB
  0
TABLE
  2
UCS
  5
6
330
0
100
AcDbSymbolTable
 70
0
  0
ENDTAB
  0
TABLE
  2
APPID
  5
3
330
0
100
AcDbSymbolTable
 70
3
  0
APPID
  5
2A
330
3
100
AcDbSymbolTableRecord
100
AcDbRegAppTableRecord
  2
ACAD
 70
0
  0
APPID
  5
E2
330
3
100
AcDbSymbolTableRecord
100
AcDbRegAppTableRecord
  2
HATCHBACKGROUNDCOLOR
 70
0
  0
APPID
  5
E3
330
3
100
AcDbSymbolTableRecord
100
AcDbRegAppTableRecord
  2
EZDXF
 70
0
  0
ENDTAB
  0
TABLE
  2
DIMSTYLE
  5
4
330
0
100
AcDbSymbolTable
 70
1
100
AcDbDimStyleTable
  0
DIMSTYLE
105
2B
330
4
100
AcDbSymbolTableRecord
100
AcDbDimStyleTableRecord
  2
Standard
 70
0
 40
1.0
 41
2.5
 42
0.625
 43
3.75
 44
1.25
 45
0.0
 46
0.0
 47
0.0
 48
0.0
 49
2.5
140
2.5
141
2.5
142
0.0
143
0.03937007874
144
1.0
145
0.0
146
1.0
147
0.625
148
0.0
 69
0
 70
0
 71
0
 72
0
 73
0
 74
0
 75
0
 76
0
 77
1
 78
8
 79
3
170
0
171
3
172
1
173
0
174
0
175
0
176
0
177
0
178
0
179
2
271
2
272
2
273
2
274
3
275
0
276
0
277
2
278
44
279
0
280
0
281
0
282
0
283
0
284
8
285
0
286
0
288
0
289
3
290
0
371
-2
372
-2
  0
ENDTAB
  0
TABLE
  2
BLOCK_RECORD
  5
9
330
0
100
AcDbSymbolTable
 70
2
  0
BLOCK_RECORD
  5
17
330
9
100
AcDbSymbolTableRecord
100
AcDbBlockTableRecord
  2
*Model_Space
340
1A
 70
0
280
1
281
0
  0
BLOCK_RECORD
  5
1B
330
9
100
AcDbSymbolTableRecord
100
AcDbBlockTableRecord
  2
*Paper_Space
340
1E
 70
0
280
1
281
0
  0
ENDTAB
  0
ENDSEC
  0
SECTION
  2
BLOCKS
  0
BLOCK
  5
18
330
17
100
AcDbEntity
  8
0
100
AcDbBlockBegin
  2
*Model_Space
 70
0
 10
0.0
 20
0.0
 30
0.0
  3
*Model_Space
  1

  0
ENDBLK
  5
19
330
17
100
AcDbEntity
  8
0
100
AcDbBlockEnd
  0
BLOCK
  5
1C
330
1B
100
AcDbEntity
  8
0
100
AcDbBlockBegin
  2
*Paper_Space
 70
0
 10
0.0
 20
0.0
 30
0.0
  3
*Paper_Space
  1

  0
ENDBLK
  5
1D
330
1B
100
AcDbEntity
  8
0
100
AcDbBlockEnd
  0
ENDSEC
  0
SECTION
  2
ENTITIES
  0
LINE
  5
36
330
17
100
AcDbEntity
  8
Painéis
 62
200
370
25
100
AcDbLine
 10
5328.861597438507
 20
2535.584845758061
 30
0.0
 11
5237.361597438507
 21
2535.584845758061
 31
0.0
  0
LINE
  5
37
330
17
100
AcDbEntity
  8
Painéis
 62
200
370
25
100
AcDbLine
 10
5378.361597438509
 20
2418.584845758062
 30
0.0
 11
5793.861597438509
 21
2418.584845758062
 31
0.0
  0
LINE
  5
38
330
17
100
AcDbEntity
  8
Painéis
 62
200
370
25
100
AcDbLine
 10
5378.361597438509
 20
2398.584845758062
 30
0.0
 11
5745.861597438509
 21
2398.584845758062
 31
0.0
  0
LINE
  5
39
330
17
100
AcDbEntity
  8
Painéis
 62
200
370
25
100
AcDbLine
 10
4954.361597438509
 20
2527.584845758062
 30
0.0
 11
5065.861597438509
 21
2527.584845758062
 31
0.0
  0
LINE
  5
3A
330
17
100
AcDbEntity
  8
3
 62
3
370
25
100
AcDbLine
 10
4953.986049438509
 20
2527.584845758062
 30
0.0
 11
4954.361597438509
 21
2527.960393758061
 31
0.0
  0
LINE
  5
3B
330
17
100
AcDbEntity
  8
3
 62
3
370
25
100
AcDbLine
 10
4941.96523343851
 20
2527.584845758062
 30
0.0
 11
4954.361597438509
 21
2539.981209758062
 31
0.0
  0
LINE
  5
3C
330
17
100
AcDbEntity
  8
3
 62
3
370
25
100
AcDbLine
 10
4929.944418438509
 20
2527.584845758062
 30
0.0
 11
4954.361597438509
 21
2552.002024758062
 31
0.0
  0
LINE
  5
3D
330
17
100
AcDbEntity
  8
3
 62
3
370
25
100
AcDbLine
 10
4917.923603438509
 20
2527.584845758062
 30
0.0
 11
4954.361597438509
 21
2564.022839758062
 31
0.0
  0
LINE
  5
3E
330
17
100
AcDbEntity
  8
3
 62
3
370
25
100
AcDbLine
 10
4909.361597438509
 20
2531.043655758062
 30
0.0
 11
4950.902787438509
 21
2572.584845758062
 31
0.0
  0
LINE
  5
3F
330
17
100
AcDbEntity
  8
3
 62
3
370
25
100
AcDbLine
 10
4909.361597438509
 20
2543.064470758062
 30
0.0
 11
4938.881972438509
 21
2572.584845758062
 31
0.0
  0
LINE
  5
40
330
17
100
AcDbEntity
  8
3
 62
3
370
25
100
AcDbLine
 10
4909.361597438509
 20
2555.085285758062
 30
0.0
 11
4926.861157438509
 21
2572.584845758062
 31
0.0
  0
LINE
  5
41
330
17
100
AcDbEntity
  8
3
 62
3
370
25
100
AcDbLine
 10
4909.361597438509
 20
2567.106100758062
 30
0.0
 11
4914.840342438509
 21
2572.584845758062
 31
0.0
  0
LINE
  5
42
330
17
100
AcDbEntity
  8
1
 62
1
370
25
100
AcDbLine
 10
5356.861597438509
 20
2597.584845758062
 30
0.0
 11
5380.861597438509
 21
2497.584845758062
 31
0.0
  0
LINE
  5
43
330
17
100
AcDbEntity
  8
1
 62
1
370
25
100
AcDbLine
 10
5356.861597438509
 20
2497.584845758062
 30
0.0
 11
5380.861597438509
 21
2597.584845758062
 31
0.0
  0
LINE
  5
44
330
17
100
AcDbEntity
  8
Painéis
 62
200
370
25
100
AcDbLine
 10
5065.861597438509
 20
2349.584845758061
 30
0.0
 11
5065.861597438509
 21
2880.584845758061
 31
0.0
  0
LINE
  5
45
330
17
100
AcDbEntity
  8
Painéis
 62
200
370
25
100
AcDbLine
 10
5090.861597438509
 20
2349.584845758061
 30
0.0
 11
5090.861597438509
 21
2880.584845758061
 31
0.0
  0
LINE
  5
46
330
17
100
AcDbEntity
  8
Painéis
 62
200
370
25
100
AcDbLine
 10
5212.861597438509
 20
2349.584845758061
 30
0.0
 11
5212.861597438509
 21
2880.584845758061
 31
0.0
  0
LINE
  5
47
330
17
100
AcDbEntity
  8
Painéis
 62
200
370
25
100
AcDbLine
 10
5237.36159743851
 20
2349.584845758061
 30
0.0
 11
5237.36159743851
 21
2880.584845758061
 31
0.0
  0
LINE
  5
48
330
17
100
AcDbEntity
  8
Painéis
 62
200
370
25
100
AcDbLine
 10
4943.861597438509
 20
2593.584845758062
 30
0.0
 11
5323.861597438509
 21
2593.584845758062
 31
0.0
  0
LINE
  5
49
330
17
100
AcDbEntity
  8
Painéis
 62
200
370
25
100
AcDbLine
 10
4943.861597438509
 20
2715.584845758062
 30
0.0
 11
5359.36159743851
 21
2715.584845758062
 31
0.0
  0
LINE
  5
4A
330
17
100
AcDbEntity
  8
Painéis
 62
200
370
25
100
AcDbLine
 10
4919.861597438509
 20
2722.584845758062
 30
0.0
 11
4504.361597438509
 21
2722.584845758062
 31
0.0
  0
LINE
  5
4B
330
17
100
AcDbEntity
  8
Painéis
 62
4
370
25
100
AcDbLine
 10
5378.361597438509
 20
2489.584845758062
 30
0.0
 11
5378.361597438509
 21
2472.625650413727
 31
0.0
  0
LINE
  5
4C
330
17
100
AcDbEntity
  8
Painéis
 62
4
370
25
100
AcDbLine
 10
5413.86159743851
 20
2475.625650413727
 30
0.0
 11
5378.361597438509
 21
2475.625650413727
 31
0.0
  0
LINE
  5
4D
330
17
100
AcDbEntity
  8
Painéis
 62
0
370
25
100
AcDbLine
 10
5379.861597438509
 20
2477.125650413727
 30
0.0
 11
5376.861597438509
 21
2474.125650413727
 31
0.0
  0
LINE
  5
4E
330
17
100
AcDbEntity
  8
Painéis
 62
4
370
25
100
AcDbLine
 10
5258.131869619461
 20
2535.584845758063
 30
0.0
 11
5258.131869619461
 21
2349.584845758062
 31
0.0
  0
LINE
  5
4F
330
17
100
AcDbEntity
  8
Painéis
 62
0
370
25
100
AcDbLine
 10
5259.631869619461
 20
2534.084845758063
 30
0.0
 11
5256.631869619461
 21
2537.084845758063
 31
0.0
  0
LINE
  5
50
330
17
100
AcDbEntity
  8
Painéis
 62
4
370
25
100
AcDbLine
 10
5041.421702617114
 20
2527.584845758062
 30
0.0
 11
5041.421702617114
 21
2349.584845758062
 31
0.0
  0
LINE
  5
51
330
17
100
AcDbEntity
  8
Painéis
 62
0
370
25
100
AcDbLine
 10
5042.921702617114
 20
2526.084845758062
 30
0.0
 11
5039.921702617114
 21
2529.084845758062
 31
0.0
  0
LINE
  5
52
330
17
100
AcDbEntity
  8
Painéis
 62
4
370
25
100
AcDbLine
 10
5378.361597438509
 20
2462.89506968135
 30
0.0
 11
5549.86159743851
 21
2462.89506968135
 31
0.0
  0
LINE
  5
53
330
17
100
AcDbEntity
  8
Painéis
 62
0
370
25
100
AcDbLine
 10
5379.861597438509
 20
2464.39506968135
 30
0.0
 11
5376.861597438509
 21
2461.39506968135
 31
0.0
  0
LINE
  5
54
330
17
100
AcDbEntity
  8
Painéis
 62
4
370
25
100
AcDbLine
 10
4943.861597438509
 20
2569.584845758062
 30
0.0
 11
4943.861597438509
 21
2547.084845758062
 31
0.0
  0
LINE
  5
55
330
17
100
AcDbEntity
  8
Painéis
 62
4
370
25
100
AcDbLine
 10
4954.361597438509
 20
2569.584845758062
 30
0.0
 11
4954.361597438509
 21
2547.084845758062
 31
0.0
  0
LINE
  5
56
330
17
100
AcDbEntity
  8
Painéis
 62
4
370
25
100
AcDbLine
 10
4943.861597438509
 20
2550.084845758062
 30
0.0
 11
4954.361597438509
 21
2550.084845758062
 31
0.0
  0
LINE
  5
57
330
17
100
AcDbEntity
  8
Painéis
 62
4
370
25
100
AcDbLine
 10
4954.361597438509
 20
2550.084845758062
 30
0.0
 11
4983.598439543772
 21
2550.084845758062
 31
0.0
  0
LINE
  5
58
330
17
100
AcDbEntity
  8
Painéis
 62
0
370
25
100
AcDbLine
 10
4945.361597438509
 20
2551.584845758062
 30
0.0
 11
4942.361597438509
 21
2548.584845758062
 31
0.0
  0
LINE
  5
59
330
17
100
AcDbEntity
  8
Painéis
 62
0
370
25
100
AcDbLine
 10
4952.861597438509
 20
2548.584845758062
 30
0.0
 11
4955.861597438509
 21
2551.584845758062
 31
0.0
  0
LINE
  5
5A
330
17
100
AcDbEntity
  8
Painéis
 62
4
370
25
100
AcDbLine
 10
4946.861597438511
 20
2593.584845758063
 30
0.0
 11
4973.163397074818
 21
2593.584845758063
 31
0.0
  0
LINE
  5
5B
330
17
100
AcDbEntity
  8
Painéis
 62
4
370
25
100
AcDbLine
 10
4957.361597438511
 20
2572.584845758063
 30
0.0
 11
4973.163397074818
 21
2572.584845758063
 31
0.0
  0
LINE
  5
5C
330
17
100
AcDbEntity
  8
Painéis
 62
4
370
25
100
AcDbLine
 10
4970.163397074818
 20
2593.584845758063
 30
0.0
 11
4970.163397074818
 21
2572.584845758063
 31
0.0
  0
LINE
  5
5D
330
17
100
AcDbEntity
  8
Painéis
 62
0
370
25
100
AcDbLine
 10
4971.663397074818
 20
2592.084845758063
 30
0.0
 11
4968.663397074818
 21
2595.084845758063
 31
0.0
  0
LINE
  5
5E
330
17
100
AcDbEntity
  8
Painéis
 62
0
370
25
100
AcDbLine
 10
4968.663397074818
 20
2574.084845758063
 30
0.0
 11
4971.663397074818
 21
2571.084845758063
 31
0.0
  0
LINE
  5
5F
330
17
100
AcDbEntity
  8
Painéis
 62
4
370
25
100
AcDbLine
 10
5163.97984659247
 20
2715.584845758062
 30
0.0
 11
5171.598267645121
 21
2715.584845758062
 31
0.0
  0
LINE
  5
60
330
17
100
AcDbEntity
  8
Painéis
 62
4
370
25
100
AcDbLine
 10
5168.598267645121
 20
2593.584845758063
 30
0.0
 11
5168.598267645121
 21
2715.584845758062
 31
0.0
  0
LINE
  5
61
330
17
100
AcDbEntity
  8
Painéis
 62
0
370
25
100
AcDbLine
 10
5167.098267645121
 20
2595.084845758063
 30
0.0
 11
5170.098267645121
 21
2592.084845758063
 31
0.0
  0
LINE
  5
62
330
17
100
AcDbEntity
  8
Painéis
 62
0
370
25
100
AcDbLine
 10
5170.098267645121
 20
2714.084845758062
 30
0.0
 11
5167.098267645121
 21
2717.084845758062
 31
0.0
  0
LINE
  5
63
330
17
100
AcDbEntity
  8
Painéis
 62
4
370
25
100
AcDbLine
 10
5168.598267645121
 20
2593.584845758063
 30
0.0
 11
5168.598267645121
 21
2349.584845758062
 31
0.0
  0
LINE
  5
64
330
17
100
AcDbEntity
  8
Painéis
 62
0
370
25
100
AcDbLine
 10
5170.098267645121
 20
2592.084845758063
 30
0.0
 11
5167.098267645121
 21
2595.084845758063
 31
0.0
  0
LINE
  5
65
330
17
100
AcDbEntity
  8
Painéis
 62
4
370
25
100
AcDbLine
 10
5168.598267645143
 20
2715.584845758062
 30
0.0
 11
5168.598267645143
 21
2880.584845758063
 31
0.0
  0
LINE
  5
66
330
17
100
AcDbEntity
  8
Painéis
 62
0
370
25
100
AcDbLine
 10
5167.098267645143
 20
2717.084845758062
 30
0.0
 11
5170.098267645143
 21
2714.084845758062
 31
0.0
  0
LINE
  5
67
330
17
100
AcDbEntity
  8
Painéis
 62
4
370
25
100
AcDbLine
 10
5041.421702617113
 20
2593.584845758063
 30
0.0
 11
5041.421702617113
 21
2715.584845758062
 31
0.0
  0
LINE
  5
68
330
17
100
AcDbEntity
  8
Painéis
 62
0
370
25
100
AcDbLine
 10
5039.921702617113
 20
2595.084845758063
 30
0.0
 11
5042.921702617113
 21
2592.084845758063
 31
0.0
  0
LINE
  5
69
330
17
100
AcDbEntity
  8
Painéis
 62
0
370
25
100
AcDbLine
 10
5042.921702617113
 20
2714.084845758062
 30
0.0
 11
5039.921702617113
 21
2717.084845758062
 31
0.0
  0
LINE
  5
6A
330
17
100
AcDbEntity
  8
Painéis
 62
4
370
25
100
AcDbLine
 10
5065.861597438509
 20
2694.99488026503
 30
0.0
 11
5065.861597438509
 21
2683.184380462816
 31
0.0
  0
LINE
  5
6B
330
17
100
AcDbEntity
  8
Painéis
 62
4
370
25
100
AcDbLine
 10
4943.861597438509
 20
2686.184380462816
 30
0.0
 11
5065.861597438509
 21
2686.184380462816
 31
0.0
  0
LINE
  5
6C
330
17
100
AcDbEntity
  8
Painéis
 62
0
370
25
100
AcDbLine
 10
4945.361597438509
 20
2687.684380462816
 30
0.0
 11
4942.361597438509
 21
2684.684380462816
 31
0.0
  0
LINE
  5
6D
330
17
100
AcDbEntity
  8
Painéis
 62
0
370
25
100
AcDbLine
 10
5064.361597438509
 20
2684.684380462816
 30
0.0
 11
5067.361597438509
 21
2687.684380462816
 31
0.0
  0
LINE
  5
6E
330
17
100
AcDbEntity
  8
Painéis
 62
4
370
25
100
AcDbLine
 10
5065.861597438509
 20
2697.99488026503
 30
0.0
 11
5090.861597438509
 21
2697.99488026503
 31
0.0
  0
LINE
  5
6F
330
17
100
AcDbEntity
  8
Painéis
 62
0
370
25
100
AcDbLine
 10
5067.361597438509
 20
2699.49488026503
 30
0.0
 11
5064.361597438509
 21
2696.49488026503
 31
0.0
  0
LINE
  5
70
330
17
100
AcDbEntity
  8
Painéis
 62
0
370
25
100
AcDbLine
 10
5089.361597438509
 20
2696.49488026503
 30
0.0
 11
5092.361597438509
 21
2699.49488026503
 31
0.0
  0
LINE
  5
71
330
17
100
AcDbEntity
  8
Painéis
 62
4
370
25
100
AcDbLine
 10
5090.861597438509
 20
2697.99488026503
 30
0.0
 11
5212.861597438509
 21
2697.99488026503
 31
0.0
  0
LINE
  5
72
330
17
100
AcDbEntity
  8
Painéis
 62
0
370
25
100
AcDbLine
 10
5092.361597438509
 20
2699.49488026503
 30
0.0
 11
5089.361597438509
 21
2696.49488026503
 31
0.0
  0
LINE
  5
73
330
17
100
AcDbEntity
  8
Painéis
 62
0
370
25
100
AcDbLine
 10
5211.361597438509
 20
2696.49488026503
 30
0.0
 11
5214.361597438509
 21
2699.49488026503
 31
0.0
  0
LINE
  5
74
330
17
100
AcDbEntity
  8
Painéis
 62
4
370
25
100
AcDbLine
 10
5212.861597438509
 20
2697.99488026503
 30
0.0
 11
5237.36159743851
 21
2697.99488026503
 31
0.0
  0
LINE
  5
75
330
17
100
AcDbEntity
  8
Painéis
 62
0
370
25
100
AcDbLine
 10
5214.361597438509
 20
2699.49488026503
 30
0.0
 11
5211.361597438509
 21
2696.49488026503
 31
0.0
  0
LINE
  5
76
330
17
100
AcDbEntity
  8
Painéis
 62
0
370
25
100
AcDbLine
 10
5235.86159743851
 20
2696.49488026503
 30
0.0
 11
5238.86159743851
 21
2699.49488026503
 31
0.0
  0
LINE
  5
77
330
17
100
AcDbEntity
  8
Painéis
 62
4
370
25
100
AcDbLine
 10
5359.36159743851
 20
2689.184380462817
 30
0.0
 11
5359.36159743851
 21
2700.994880265029
 31
0.0
  0
LINE
  5
78
330
17
100
AcDbEntity
  8
Painéis
 62
4
370
25
100
AcDbLine
 10
5237.36159743851
 20
2697.994880265029
 30
0.0
 11
5359.36159743851
 21
2697.994880265029
 31
0.0
  0
LINE
  5
79
330
17
100
AcDbEntity
  8
Painéis
 62
0
370
25
100
AcDbLine
 10
5238.86159743851
 20
2699.494880265029
 30
0.0
 11
5235.86159743851
 21
2696.494880265029
 31
0.0
  0
LINE
  5
7A
330
17
100
AcDbEntity
  8
Painéis
 62
0
370
25
100
AcDbLine
 10
5357.86159743851
 20
2696.494880265029
 30
0.0
 11
5360.86159743851
 21
2699.494880265029
 31
0.0
  0
LINE
  5
7B
330
17
100
AcDbEntity
  8
Painéis
 62
4
370
25
100
AcDbLine
 10
5359.36159743851
 20
2489.584845758062
 30
0.0
 11
5359.36159743851
 21
2473.144118890443
 31
0.0
  0
LINE
  5
7C
330
17
100
AcDbEntity
  8
Painéis
 62
4
370
25
100
AcDbLine
 10
5323.861597438509
 20
2489.584845758062
 30
0.0
 11
5323.861597438509
 21
2473.144118890443
 31
0.0
  0
LINE
  5
7D
330
17
100
AcDbEntity
  8
Painéis
 62
4
370
25
100
AcDbLine
 10
5359.36159743851
 20
2476.144118890443
 30
0.0
 11
5323.861597438509
 21
2476.144118890443
 31
0.0
  0
LINE
  5
7E
330
17
100
AcDbEntity
  8
Painéis
 62
0
370
25
100
AcDbLine
 10
5357.86159743851
 20
2474.644118890443
 30
0.0
 11
5360.86159743851
 21
2477.644118890443
 31
0.0
  0
LINE
  5
7F
330
17
100
AcDbEntity
  8
Painéis
 62
0
370
25
100
AcDbLine
 10
5325.361597438509
 20
2477.644118890443
 30
0.0
 11
5322.361597438509
 21
2474.644118890443
 31
0.0
  0
LINE
  5
80
330
17
100
AcDbEntity
  8
Painéis
 62
4
370
25
100
AcDbLine
 10
5320.861597438511
 20
2492.584845758063
 30
0.0
 11
5308.563151278988
 21
2492.584845758063
 31
0.0
  0
LINE
  5
81
330
17
100
AcDbEntity
  8
Painéis
 62
4
370
25
100
AcDbLine
 10
5320.861597438511
 20
2535.584845758063
 30
0.0
 11
5308.563151278988
 21
2535.584845758063
 31
0.0
  0
LINE
  5
82
330
17
100
AcDbEntity
  8
Painéis
 62
4
370
25
100
AcDbLine
 10
5311.563151278988
 20
2492.584845758063
 30
0.0
 11
5311.563151278988
 21
2535.584845758063
 31
0.0
  0
LINE
  5
83
330
17
100
AcDbEntity
  8
Painéis
 62
0
370
25
100
AcDbLine
 10
5310.063151278988
 20
2494.084845758063
 30
0.0
 11
5313.063151278988
 21
2491.084845758063
 31
0.0
  0
LINE
  5
84
330
17
100
AcDbEntity
  8
Painéis
 62
0
370
25
100
AcDbLine
 10
5313.063151278988
 20
2534.084845758063
 30
0.0
 11
5310.063151278988
 21
2537.084845758063
 31
0.0
  0
LINE
  5
85
330
17
100
AcDbEntity
  8
Painéis
 62
4
370
25
100
AcDbLine
 10
5320.861597438511
 20
2593.584845758063
 30
0.0
 11
5308.563151278986
 21
2593.584845758063
 31
0.0
  0
LINE
  5
86
330
17
100
AcDbEntity
  8
Painéis
 62
4
370
25
100
AcDbLine
 10
5320.861597438511
 20
2602.584845758062
 30
0.0
 11
5308.563151278986
 21
2602.584845758062
 31
0.0
  0
LINE
  5
87
330
17
100
AcDbEntity
  8
Painéis
 62
4
370
25
100
AcDbLine
 10
5311.563151278986
 20
2593.584845758063
 30
0.0
 11
5311.563151278986
 21
2602.584845758062
 31
0.0
  0
LINE
  5
88
330
17
100
AcDbEntity
  8
Painéis
 62
4
370
25
100
AcDbLine
 10
5311.563151278986
 20
2602.584845758062
 30
0.0
 11
5311.563151278986
 21
2617.584845758063
 31
0.0
  0
LINE
  5
89
330
17
100
AcDbEntity
  8
Painéis
 62
0
370
25
100
AcDbLine
 10
5310.063151278986
 20
2595.084845758063
 30
0.0
 11
5313.063151278986
 21
2592.084845758063
 31
0.0
  0
LINE
  5
8A
330
17
100
AcDbEntity
  8
Painéis
 62
0
370
25
100
AcDbLine
 10
5313.063151278986
 20
2601.084845758062
 30
0.0
 11
5310.063151278986
 21
2604.084845758062
 31
0.0
  0
LINE
  5
8B
330
17
100
AcDbEntity
  8
Painéis
 62
4
370
25
100
AcDbLine
 10
5323.861597438509
 20
2605.584845758062
 30
0.0
 11
5323.861597438509
 21
2615.044146343917
 31
0.0
  0
LINE
  5
8C
330
17
100
AcDbEntity
  8
Painéis
 62
4
370
25
100
AcDbLine
 10
5359.36159743851
 20
2605.584845758062
 30
0.0
 11
5359.36159743851
 21
2615.044146343917
 31
0.0
  0
LINE
  5
8D
330
17
100
AcDbEntity
  8
Painéis
 62
4
370
25
100
AcDbLine
 10
5323.861597438509
 20
2612.044146343917
 30
0.0
 11
5359.36159743851
 21
2612.044146343917
 31
0.0
  0
LINE
  5
8E
330
17
100
AcDbEntity
  8
Painéis
 62
0
370
25
100
AcDbLine
 10
5325.361597438509
 20
2613.544146343917
 30
0.0
 11
5322.361597438509
 21
2610.544146343917
 31
0.0
  0
LINE
  5
8F
330
17
100
AcDbEntity
  8
Painéis
 62
0
370
25
100
AcDbLine
 10
5357.86159743851
 20
2610.544146343917
 30
0.0
 11
5360.86159743851
 21
2613.544146343917
 31
0.0
  0
LINE
  5
90
330
17
100
AcDbEntity
  8
Painéis
 62
4
370
25
100
AcDbLine
 10
5258.131869619475
 20
2535.584845758063
 30
0.0
 11
5258.131869619475
 21
2593.584845758063
 31
0.0
  0
LINE
  5
91
330
17
100
AcDbEntity
  8
Painéis
 62
0
370
25
100
AcDbLine
 10
5256.631869619475
 20
2537.084845758063
 30
0.0
 11
5259.631869619475
 21
2534.084845758063
 31
0.0
  0
LINE
  5
92
330
17
100
AcDbEntity
  8
Painéis
 62
0
370
25
100
AcDbLine
 10
5259.631869619475
 20
2592.084845758063
 30
0.0
 11
5256.631869619475
 21
2595.084845758063
 31
0.0
  0
LINE
  5
93
330
17
100
AcDbEntity
  8
Painéis
 62
4
370
25
100
AcDbLine
 10
5323.861597438509
 20
2547.584845758061
 30
0.0
 11
5237.36159743851
 21
2547.584845758061
 31
0.0
  0
LINE
  5
94
330
17
100
AcDbEntity
  8
Painéis
 62
0
370
25
100
AcDbLine
 10
5322.361597438509
 20
2546.084845758061
 30
0.0
 11
5325.361597438509
 21
2549.084845758061
 31
0.0
  0
LINE
  5
95
330
17
100
AcDbEntity
  8
Painéis
 62
0
370
25
100
AcDbLine
 10
5238.86159743851
 20
2549.084845758061
 30
0.0
 11
5235.86159743851
 21
2546.084845758061
 31
0.0
  0
LINE
  5
96
330
17
100
AcDbEntity
  8
Painéis
 62
4
370
25
100
AcDbLine
 10
5041.421702617119
 20
2527.584845758062
 30
0.0
 11
5041.421702617119
 21
2593.584845758063
 31
0.0
  0
LINE
  5
97
330
17
100
AcDbEntity
  8
Painéis
 62
0
370
25
100
AcDbLine
 10
5039.921702617119
 20
2529.084845758062
 30
0.0
 11
5042.921702617119
 21
2526.084845758062
 31
0.0
  0
LINE
  5
98
330
17
100
AcDbEntity
  8
Painéis
 62
0
370
25
100
AcDbLine
 10
5042.921702617119
 20
2592.084845758063
 30
0.0
 11
5039.921702617119
 21
2595.084845758063
 31
0.0
  0
LINE
  5
99
330
17
100
AcDbEntity
  8
Painéis
 62
4
370
25
100
AcDbLine
 10
4919.861597438509
 20
2740.210447595675
 30
0.0
 11
4919.861597438509
 21
2727.668940917916
 31
0.0
  0
LINE
  5
9A
330
17
100
AcDbEntity
  8
Painéis
 62
4
370
25
100
AcDbLine
 10
4797.861597438509
 20
2730.668940917916
 30
0.0
 11
4919.861597438509
 21
2730.668940917916
 31
0.0
  0
LINE
  5
9B
330
17
100
AcDbEntity
  8
Painéis
 62
0
370
25
100
AcDbLine
 10
4918.361597438509
 20
2729.168940917916
 30
0.0
 11
4921.361597438509
 21
2732.168940917916
 31
0.0
  0
LINE
  5
9C
330
17
100
AcDbEntity
  8
Painéis
 62
4
370
25
100
AcDbLine
 10
4919.861597438509
 20
2575.584845758062
 30
0.0
 11
4919.861597438509
 21
2589.654315536846
 31
0.0
  0
LINE
  5
9D
330
17
100
AcDbEntity
  8
Painéis
 62
4
370
25
100
AcDbLine
 10
4909.361597438509
 20
2575.584845758062
 30
0.0
 11
4909.361597438509
 21
2589.654315536846
 31
0.0
  0
LINE
  5
9E
330
17
100
AcDbEntity
  8
Painéis
 62
4
370
25
100
AcDbLine
 10
4919.861597438509
 20
2586.654315536846
 30
0.0
 11
4909.361597438509
 21
2586.654315536846
 31
0.0
  0
LINE
  5
9F
330
17
100
AcDbEntity
  8
Painéis
 62
4
370
25
100
AcDbLine
 10
4909.361597438509
 20
2586.654315536846
 30
0.0
 11
4880.124755333246
 21
2586.654315536846
 31
0.0
  0
LINE
  5
A0
330
17
100
AcDbEntity
  8
Painéis
 62
0
370
25
100
AcDbLine
 10
4918.361597438509
 20
2585.154315536846
 30
0.0
 11
4921.361597438509
 21
2588.154315536846
 31
0.0
  0
LINE
  5
A1
330
17
100
AcDbEntity
  8
Painéis
 62
0
370
25
100
AcDbLine
 10
4910.861597438509
 20
2588.154315536846
 30
0.0
 11
4907.861597438509
 21
2585.154315536846
 31
0.0
  0
LINE
  5
A2
330
17
100
AcDbEntity
  8
Painéis
 62
4
370
25
100
AcDbLine
 10
4906.361597438511
 20
2572.584845758063
 30
0.0
 11
4892.627902837982
 21
2572.584845758063
 31
0.0
  0
LINE
  5
A3
330
17
100
AcDbEntity
  8
Painéis
 62
4
370
25
100
AcDbLine
 10
4906.361597438511
 20
2478.584845758062
 30
0.0
 11
4892.627902837982
 21
2478.584845758062
 31
0.0
  0
LINE
  5
A4
330
17
100
AcDbEntity
  8
Painéis
 62
4
370
25
100
AcDbLine
 10
4895.627902837981
 20
2572.584845758063
 30
0.0
 11
4895.627902837981
 21
2478.584845758062
 31
0.0
  0
LINE
  5
A5
330
17
100
AcDbEntity
  8
Painéis
 62
0
370
25
100
AcDbLine
 10
4897.127902837981
 20
2571.084845758063
 30
0.0
 11
4894.127902837981
 21
2574.084845758063
 31
0.0
  0
LINE
  5
A6
330
17
100
AcDbEntity
  8
Painéis
 62
0
370
25
100
AcDbLine
 10
4894.127902837981
 20
2480.084845758062
 30
0.0
 11
4897.127902837981
 21
2477.084845758062
 31
0.0
  0
LWPOLYLINE
  5
A7
330
17
100
AcDbEntity
  8
7
 62
7
370
25
100
AcDbPolyline
 90
5
 70
0
 10
4909.361597438509
 20
2527.584845758062
 10
4954.361597438509
 20
2527.584845758062
 10
4954.361597438509
 20
2572.584845758062
 10
4909.361597438509
 20
2572.584845758062
 10
4909.361597438509
 20
2527.584845758062
  0
LWPOLYLINE
  5
A8
330
17
100
AcDbEntity
  8
3
 62
3
370
25
100
AcDbPolyline
 90
2
 70
0
 10
5359.36159743851
 20
2492.584845758062
 10
5359.36159743851
 20
2349.584845758061
  0
LWPOLYLINE
  5
A9
330
17
100
AcDbEntity
  8
3
 62
3
370
25
100
AcDbPolyline
 90
2
 70
0
 10
5378.361597438509
 20
2349.584845758061
 10
5378.361597438509
 20
2492.584845758062
  0
LWPOLYLINE
  5
AA
330
17
100
AcDbEntity
  8
3
 62
3
370
25
100
AcDbPolyline
 90
2
 70
0
 10
5359.36159743851
 20
2880.584845758061
 10
5359.36159743851
 20
2602.584845758062
  0
LWPOLYLINE
  5
AB
330
17
100
AcDbEntity
  8
3
 62
3
370
25
100
AcDbPolyline
 90
2
 70
0
 10
5378.361597438509
 20
2602.584845758062
 10
5378.361597438509
 20
2880.584845758061
  0
LWPOLYLINE
  5
AC
330
17
100
AcDbEntity
  8
3
 62
3
370
25
100
AcDbPolyline
 90
2
 70
0
 10
4909.361597438509
 20
2378.584845758061
 10
4909.361597438509
 20
2340.084845758061
  0
LWPOLYLINE
  5
AD
330
17
100
AcDbEntity
  8
3
 62
3
370
25
100
AcDbPolyline
 90
2
 70
0
 10
4954.361597438509
 20
2349.584845758061
 10
4954.361597438509
 20
2428.584845758062
  0
LWPOLYLINE
  5
AE
330
17
100
AcDbEntity
  8
3
 62
3
370
25
100
AcDbPolyline
 90
2
 70
0
 10
4909.361597438509
 20
2527.584845758062
 10
4909.361597438509
 20
2478.584845758061
  0
LWPOLYLINE
  5
AF
330
17
100
AcDbEntity
  8
3
 62
3
370
25
100
AcDbPolyline
 90
2
 70
0
 10
4954.361597438509
 20
2428.584845758062
 10
4954.361597438509
 20
2527.584845758062
  0
LWPOLYLINE
  5
B0
330
17
100
AcDbEntity
  8
3
 62
3
370
25
100
AcDbPolyline
 90
2
 70
0
 10
4919.861597438509
 20
2880.584845758061
 10
4919.861597438509
 20
2572.584845758062
  0
LWPOLYLINE
  5
B1
330
17
100
AcDbEntity
  8
3
 62
3
370
25
100
AcDbPolyline
 90
2
 70
0
 10
4943.861597438509
 20
2572.584845758062
 10
4943.861597438509
 20
2880.584845758061
  0
LWPOLYLINE
  5
B2
330
17
100
AcDbEntity
  8
3
 62
3
370
25
100
AcDbPolyline
 90
2
 70
0
 10
4909.361597438509
 20
2478.584845758061
 10
4504.361597438509
 20
2478.584845758061
  0
LWPOLYLINE
  5
B3
330
17
100
AcDbEntity
  8
3
 62
3
370
25
100
AcDbPolyline
 90
2
 70
0
 10
4494.861597438509
 20
2378.584845758061
 10
4909.361597438509
 20
2378.584845758061
  0
LWPOLYLINE
  5
B4
330
17
100
AcDbEntity
  8
7
 62
7
370
25
100
AcDbPolyline
 90
5
 70
0
 10
5408.861597438509
 20
2559.584845758062
 10
5380.861597438509
 20
2559.584845758062
 10
5380.861597438509
 20
2535.584845758061
 10
5408.861597438509
 20
2535.584845758061
 10
5408.861597438509
 20
2559.584845758062
  0
LWPOLYLINE
  5
B5
330
17
100
AcDbEntity
  8
7
 62
7
370
25
100
AcDbPolyline
 90
5
 70
0
 10
5356.861597438509
 20
2559.584845758062
 10
5328.86159743851
 20
2559.584845758062
 10
5328.86159743851
 20
2535.584845758061
 10
5356.861597438509
 20
2535.584845758061
 10
5356.861597438509
 20
2559.584845758062
  0
LWPOLYLINE
  5
B6
330
17
100
AcDbEntity
  8
7
 62
7
370
25
100
AcDbPolyline
 90
5
 70
0
 10
5356.861597438509
 20
2497.584845758062
 10
5380.861597438509
 20
2497.584845758062
 10
5380.861597438509
 20
2597.584845758062
 10
5356.861597438509
 20
2597.584845758062
 10
5356.861597438509
 20
2497.584845758062
  0
LWPOLYLINE
  5
B7
330
17
100
AcDbEntity
  8
3
 62
3
370
25
100
AcDbPolyline
 90
5
 70
0
 10
5323.861597438509
 20
2492.584845758062
 10
5413.86159743851
 20
2492.584845758062
 10
5413.86159743851
 20
2602.584845758062
 10
5323.861597438509
 20
2602.584845758062
 10
5323.861597438509
 20
2492.584845758062
  0
TEXT
  5
B8
330
17
100
AcDbEntity
  8
3
 62
3
370
25
100
AcDbText
 10
5119.366812696275
 20
2545.233826967104
 30
0.0
 40
10.0
  1
h=14
100
AcDbText
  0
TEXT
  5
B9
330
17
100
AcDbEntity
  8
3
 62
3
370
25
100
AcDbText
 10
5269.762852868612
 20
2455.160526758062
 30
0.0
 40
10.0
  1
80/24
100
AcDbText
  0
TEXT
  5
BA
330
17
100
AcDbEntity
  8
4
 62
4
370
25
100
AcDbText
 10
4910.20942491551
 20
2497.800114615114
 30
0.0
 40
15.0
  1
P15A
100
AcDbText
  0
TEXT
  5
BB
330
17
100
AcDbEntity
  8
3
 62
3
370
25
100
AcDbText
 10
5354.541632438509
 20
2437.039084758062
 30
0.0
 40
10.0
  1
19/60
 50
90.0
100
AcDbText
  0
TEXT
  5
BC
330
17
100
AcDbEntity
  8
4
 62
4
370
25
100
AcDbText
 10
5265.881463868612
 20
2470.715010758062
 30
0.0
 40
15.0
  1
P16A
100
AcDbText
  0
TEXT
  5
BD
330
17
100
AcDbEntity
  8
3
 62
3
370
25
100
AcDbText
 10
4913.48602391551
 20
2482.581674615114
 30
0.0
 40
10.0
  1
45/45
100
AcDbText
  0
TEXT
  5
BE
330
17
100
AcDbEntity
  8
3
 62
3
370
25
100
AcDbText
 10
4970.090579438509
 20
2421.576004758062
 30
0.0
 40
10.0
  1
45/130
 50
90.0
100
AcDbText
  0
TEXT
  5
BF
330
17
100
AcDbEntity
  8
4
 62
4
370
25
100
AcDbText
 10
4916.11159743851
 20
2587.584845758062
 30
0.0
 40
15.0
  1
V230
 50
90.0
100
AcDbText
  0
TEXT
  5
C0
330
17
100
AcDbEntity
  8
4
 62
4
370
25
100
AcDbText
 10
5355.560928438509
 20
2634.399993113677
 30
0.0
 40
15.0
  1
V234
 50
90.0
100
AcDbText
  0
TEXT
  5
C1
330
17
100
AcDbEntity
  8
4
 62
4
370
25
100
AcDbText
 10
5111.155758696274
 20
2560.849999967104
 30
0.0
 40
15.0
  1
L205
100
AcDbText
  0
TEXT
  5
C2
330
17
100
AcDbEntity
  8
3
 62
3
370
25
100
AcDbText
 10
5267.888510868612
 20
2439.228623758062
 30
0.0
 40
10.0
  1
MORRE
100
AcDbText
  0
TEXT
  5
C3
330
17
100
AcDbEntity
  8
4
 62
4
370
25
100
AcDbText
 10
5398.695838438509
 20
2462.600729758062
 30
0.0
 40
15.0
  1
BA203
100
AcDbText
  0
TEXT
  5
C4
330
17
100
AcDbEntity
  8
Painéis
 62
240
370
25
100
AcDbText
 10
5393.61159743851
 20
2483.32301883478
 30
0.0
 40
9.0
  1
35.5
100
AcDbText
  0
TEXT
  5
C5
330
17
100
AcDbEntity
  8
Painéis
 62
240
370
25
100
AcDbText
 10
5268.520027514197
 20
2442.58484575806
 30
0.0
 40
9.0
  1
186
 50
90.0
100
AcDbText
  0
TEXT
  5
C6
330
17
100
AcDbEntity
  8
Painéis
 62
240
370
25
100
AcDbText
 10
5051.836176301325
 20
2438.584845758061
 30
0.0
 40
9.0
  1
178
 50
90.0
100
AcDbText
  0
TEXT
  5
C7
330
17
100
AcDbEntity
  8
Painéis
 62
240
370
25
100
AcDbText
 10
4970.480018491141
 20
2557.683529968588
 30
0.0
 40
9.0
  1
10.5
100
AcDbText
  0
TEXT
  5
C8
330
17
100
AcDbEntity
  8
Painéis
 62
240
370
25
100
AcDbText
 10
4980.61076549587
 20
2583.08484575806
 30
0.0
 40
9.0
  1
21
 50
90.0
100
AcDbText
  0
TEXT
  5
C9
330
17
100
AcDbEntity
  8
Painéis
 62
240
370
25
100
AcDbText
 10
5179.045636066173
 20
2654.584845758061
 30
0.0
 40
9.0
  1
122
 50
90.0
100
AcDbText
  0
TEXT
  5
CA
330
17
100
AcDbEntity
  8
Painéis
 62
240
370
25
100
AcDbText
 10
5179.032478171438
 20
2471.584845758061
 30
0.0
 40
9.0
  1
244
 50
90.0
100
AcDbText
  0
TEXT
  5
CB
330
17
100
AcDbEntity
  8
Painéis
 62
240
370
25
100
AcDbText
 10
5051.869071038165
 20
2654.584845758061
 30
0.0
 40
9.0
  1
122
 50
90.0
100
AcDbText
  0
TEXT
  5
CC
330
17
100
AcDbEntity
  8
Painéis
 62
240
370
25
100
AcDbText
 10
5004.861597438509
 20
2693.737012041764
 30
0.0
 40
9.0
  1
122
100
AcDbText
  0
TEXT
  5
CD
330
17
100
AcDbEntity
  8
Painéis
 62
240
370
25
100
AcDbText
 10
5078.361597438509
 20
2705.593564475556
 30
0.0
 40
9.0
  1
25
100
AcDbText
  0
TEXT
  5
CE
330
17
100
AcDbEntity
  8
Painéis
 62
240
370
25
100
AcDbText
 10
5151.861597438509
 20
2705.547511843978
 30
0.0
 40
9.0
  1
122
100
AcDbText
  0
TEXT
  5
CF
330
17
100
AcDbEntity
  8
Painéis
 62
240
370
25
100
AcDbText
 10
5225.111597438509
 20
2705.593564475556
 30
0.0
 40
9.0
  1
24.5
100
AcDbText
  0
TEXT
  5
D0
330
17
100
AcDbEntity
  8
Painéis
 62
240
370
25
100
AcDbText
 10
5298.36159743851
 20
2705.547511843976
 30
0.0
 40
9.0
  1
122
100
AcDbText
  0
TEXT
  5
D1
330
17
100
AcDbEntity
  8
Painéis
 62
240
370
25
100
AcDbText
 10
5341.611597438509
 20
2483.841487311496
 30
0.0
 40
9.0
  1
35.5
100
AcDbText
  0
TEXT
  5
D2
330
17
100
AcDbEntity
  8
Painéis
 62
240
370
25
100
AcDbText
 10
5321.865782857935
 20
2514.08484575806
 30
0.0
 40
9.0
  1
43
 50
90.0
100
AcDbText
  0
TEXT
  5
D3
330
17
100
AcDbEntity
  8
Painéis
 62
240
370
25
100
AcDbText
 10
5321.984203910565
 20
2611.58484575806
 30
0.0
 40
9.0
  1
9
 50
90.0
100
AcDbText
  0
TEXT
  5
D4
330
17
100
AcDbEntity
  8
Painéis
 62
240
370
25
100
AcDbText
 10
5341.611597438509
 20
2619.741514764969
 30
0.0
 40
9.0
  1
35.5
100
AcDbText
  0
TEXT
  5
D5
330
17
100
AcDbEntity
  8
Painéis
 62
240
370
25
100
AcDbText
 10
5268.513448566843
 20
2564.58484575806
 30
0.0
 40
9.0
  1
58
 50
90.0
100
AcDbText
  0
TEXT
  5
D6
330
17
100
AcDbEntity
  8
Painéis
 62
240
370
25
100
AcDbText
 10
5280.611597438509
 20
2555.203266810693
 30
0.0
 40
9.0
  1
86.5
100
AcDbText
  0
TEXT
  5
D7
330
17
100
AcDbEntity
  8
Painéis
 62
240
370
25
100
AcDbText
 10
5051.829597353961
 20
2560.584845758061
 30
0.0
 40
9.0
  1
66
 50
90.0
100
AcDbText
  0
TEXT
  5
D8
330
17
100
AcDbEntity
  8
Painéis
 62
240
370
25
100
AcDbText
 10
4858.861597438509
 20
2738.221572496863
 30
0.0
 40
9.0
  1
122
100
AcDbText
  0
TEXT
  5
D9
330
17
100
AcDbEntity
  8
Painéis
 62
240
370
25
100
AcDbText
 10
4893.243176385878
 20
2594.252999747372
 30
0.0
 40
9.0
  1
10.5
100
AcDbText
  0
TEXT
  5
DA
330
17
100
AcDbEntity
  8
Painéis
 62
240
370
25
100
AcDbText
 10
4906.035797574824
 20
2525.584845758061
 30
0.0
 40
9.0
  1
94
 50
90.0
100
AcDbText
  0
HATCH
  5
DB
330
17
100
AcDbEntity
  8
Hachura
 62
7
100
AcDbHatch
 10
0.0
 20
0.0
 30
0.0
210
0.0
220
0.0
230
1.0
  2
SOLID
 70
1
 71
0
 91
1
 92
3
 72
0
 73
1
 93
5
 10
5090.861597438509
 20
2349.584845758061
 10
5065.861597438509
 20
2349.584845758061
 10
5065.861597438509
 20
2880.584845758061
 10
5090.861597438509
 20
2880.584845758061
 10
5090.861597438509
 20
2349.584845758061
 97
0
 75
1
 76
1
 98
0
  0
HATCH
  5
DC
330
17
100
AcDbEntity
  8
Hachura
 62
7
100
AcDbHatch
 10
0.0
 20
0.0
 30
0.0
210
0.0
220
0.0
230
1.0
  2
SOLID
 70
1
 71
0
 91
1
 92
3
 72
0
 73
1
 93
5
 10
5237.36159743851
 20
2349.584845758061
 10
5212.861597438509
 20
2349.584845758061
 10
5212.861597438509
 20
2880.584845758061
 10
5237.36159743851
 20
2880.584845758061
 10
5237.36159743851
 20
2349.584845758061
 97
0
 75
1
 76
1
 98
0
  0
HATCH
  5
DD
330
17
100
AcDbEntity
  8
REAPROVEITAMENTO
 62
7
100
AcDbHatch
 10
0.0
 20
0.0
 30
0.0
210
0.0
220
0.0
230
1.0
  2
ANSI31
 70
0
 71
0
 91
1
 92
3
 72
0
 73
1
 93
5
 10
5212.861597438509
 20
2593.584845758062
 10
5090.861597438509
 20
2593.584845758062
 10
5090.861597438509
 20
2349.584845758061
 10
5212.861597438509
 20
2349.584845758061
 10
5212.861597438509
 20
2593.584845758062
 97
0
 75
1
 76
1
 52
0.0
 41
1.0
 77
0
 78
1
 53
45.0
 43
0.0
 44
0.0
 45
-2.2450640303
 46
2.2450640303
 79
0
 98
0
  0
HATCH
  5
DE
330
17
100
AcDbEntity
  8
REAPROVEITAMENTO
 62
7
100
AcDbHatch
 10
0.0
 20
0.0
 30
0.0
210
0.0
220
0.0
230
1.0
  2
ANSI31
 70
0
 71
0
 91
3
 92
3
 72
0
 73
1
 93
7
 10
5237.361597438507
 20
2880.584845758061
 10
5237.361597438508
 20
2593.584845758062
 10
5323.861597438509
 20
2593.584845758061
 10
5323.861597438509
 20
2602.584845758061
 10
5359.36159743851
 20
2602.584845758061
 10
5359.36159743851
 20
2880.584845758061
 10
5237.361597438507
 20
2880.584845758061
 97
0
 92
3
 72
0
 73
1
 93
5
 10
5065.861597438509
 20
2593.584845758062
 10
5065.861597438509
 20
2880.584845758062
 10
4943.861597438509
 20
2880.584845758061
 10
4943.861597438509
 20
2593.584845758062
 10
5065.861597438509
 20
2593.584845758062
 97
0
 92
3
 72
0
 73
1
 93
5
 10
5090.861597438509
 20
2880.584845758062
 10
5090.861597438509
 20
2593.584845758062
 10
5212.861597438509
 20
2593.584845758062
 10
5212.861597438509
 20
2880.584845758061
 10
5090.861597438509
 20
2880.584845758062
 97
0
 75
1
 76
1
 52
0.0
 41
1.0
 77
0
 78
1
 53
45.0
 43
0.0
 44
0.0
 45
-2.2450640303
 46
2.2450640303
 79
0
 98
0
  0
HATCH
  5
DF
330
17
100
AcDbEntity
  8
REAPROVEITAMENTO
 62
7
100
AcDbHatch
 10
0.0
 20
0.0
 30
0.0
210
0.0
220
0.0
230
1.0
  2
ANSI31
 70
0
 71
0
 91
1
 92
3
 72
0
 73
1
 93
8
 10
4954.361597438509
 20
2527.584845758062
 10
4954.361597438509
 20
2349.584845758061
 10
5065.861597438509
 20
2349.584845758061
 10
5065.861597438509
 20
2593.584845758062
 10
4943.861597438509
 20
2593.584845758062
 10
4943.861597438509
 20
2572.584845758062
 10
4954.361597438509
 20
2572.584845758062
 10
4954.361597438509
 20
2527.584845758062
 97
0
 75
1
 76
1
 52
0.0
 41
1.0
 77
0
 78
1
 53
45.0
 43
0.0
 44
0.0
 45
-2.2450640303
 46
2.2450640303
 79
0
 98
0
  0
HATCH
  5
E0
330
17
100
AcDbEntity
  8
REAPROVEITAMENTO
 62
7
100
AcDbHatch
 10
0.0
 20
0.0
 30
0.0
210
0.0
220
0.0
230
1.0
  2
ANSI31
 70
0
 71
0
 91
1
 92
3
 72
0
 73
1
 93
7
 10
5323.861597438509
 20
2492.584845758062
 10
5323.861597438509
 20
2593.584845758061
 10
5237.36159743851
 20
2593.584845758062
 10
5237.36159743851
 20
2349.584845758061
 10
5359.36159743851
 20
2349.584845758061
 10
5359.36159743851
 20
2492.584845758062
 10
5323.861597438509
 20
2492.584845758062
 97
0
 75
1
 76
1
 52
0.0
 41
1.0
 77
0
 78
1
 53
45.0
 43
0.0
 44
0.0
 45
-2.2450640303
 46
2.2450640303
 79
0
 98
0
  0
HATCH
  5
E1
330
17
100
AcDbEntity
  8
REAPROVEITAMENTO
 62
7
100
AcDbHatch
 10
0.0
 20
0.0
 30
0.0
210
0.0
220
0.0
230
1.0
  2
ANSI31
 70
0
 71
0
 91
1
 92
3
 72
0
 73
1
 93
9
 10
4909.361597438509
 20
2572.584845758061
 10
4919.861597438508
 20
2572.584845758062
 10
4919.861597438509
 20
2880.584845758061
 10
4797.861597438509
 20
2880.584845758061
 10
4797.861597438509
 20
2478.584845758062
 10
4919.861597438509
 20
2478.584845758061
 10
4919.861597438508
 20
2527.584845758062
 10
4909.361597438509
 20
2527.584845758062
 10
4909.361597438509
 20
2572.584845758061
 97
0
 75
1
 76
1
 52
0.0
 41
1.0
 77
0
 78
1
 53
45.0
 43
0.0
 44
0.0
 45
-2.2450640303
 46
2.2450640303
 79
0
 98
0
  0
ENDSEC
  0
SECTION
  2
OBJECTS
  0
DICTIONARY
  5
A
330
0
100
AcDbDictionary
281
1
  3
ACAD_COLOR
350
B
  3
ACAD_GROUP
350
C
  3
ACAD_LAYOUT
350
D
  3
ACAD_MATERIAL
350
E
  3
ACAD_MLEADERSTYLE
350
F
  3
ACAD_MLINESTYLE
350
10
  3
ACAD_PLOTSETTINGS
350
11
  3
ACAD_PLOTSTYLENAME
350
12
  3
ACAD_SCALELIST
350
14
  3
ACAD_TABLESTYLE
350
15
  3
ACAD_VISUALSTYLE
350
16
  3
EZDXF_META
350
2D
  0
DICTIONARY
  5
B
330
A
100
AcDbDictionary
281
1
  0
DICTIONARY
  5
C
330
A
100
AcDbDictionary
281
1
  0
DICTIONARY
  5
D
330
A
100
AcDbDictionary
281
1
  3
Model
350
1A
  3
Layout1
350
1E
  0
DICTIONARY
  5
E
330
A
100
AcDbDictionary
281
1
  3
ByBlock
350
1F
  3
ByLayer
350
20
  3
Global
350
21
  0
DICTIONARY
  5
F
330
A
100
AcDbDictionary
281
1
  3
Standard
350
2C
  0
DICTIONARY
  5
10
330
A
100
AcDbDictionary
281
1
  3
Standard
350
22
  0
DICTIONARY
  5
11
330
A
100
AcDbDictionary
281
1
  0
ACDBDICTIONARYWDFLT
  5
12
330
A
100
AcDbDictionary
281
1
  3
Normal
350
13
100
AcDbDictionaryWithDefault
340
13
  0
ACDBPLACEHOLDER
  5
13
330
12
  0
DICTIONARY
  5
14
330
A
100
AcDbDictionary
281
1
  0
DICTIONARY
  5
15
330
A
100
AcDbDictionary
281
1
  0
DICTIONARY
  5
16
330
A
100
AcDbDictionary
281
1
  0
LAYOUT
  5
1A
330
D
100
AcDbPlotSettings
  1

  4
A3
  6

 40
7.5
 41
20.0
 42
7.5
 43
20.0
 44
420.0
 45
297.0
 46
0.0
 47
0.0
 48
0.0
 49
0.0
140
0.0
141
0.0
142
1.0
143
1.0
 70
1024
 72
1
 73
0
 74
5
  7

 75
16
 76
0
 77
2
 78
300
147
1.0
148
0.0
149
0.0
100
AcDbLayout
  1
Model
 70
1
 71
0
 10
0.0
 20
0.0
 11
420.0
 21
297.0
 12
0.0
 22
0.0
 32
0.0
 14
1e+20
 24
1e+20
 34
1e+20
 15
-1e+20
 25
-1e+20
 35
-1e+20
146
0.0
 13
0.0
 23
0.0
 33
0.0
 16
1.0
 26
0.0
 36
0.0
 17
0.0
 27
1.0
 37
0.0
 76
1
330
17
  0
LAYOUT
  5
1E
330
D
100
AcDbPlotSettings
  1

  4
A3
  6

 40
7.5
 41
20.0
 42
7.5
 43
20.0
 44
420.0
 45
297.0
 46
0.0
 47
0.0
 48
0.0
 49
0.0
140
0.0
141
0.0
142
1.0
143
1.0
 70
0
 72
1
 73
0
 74
5
  7

 75
16
 76
0
 77
2
 78
300
147
1.0
148
0.0
149
0.0
100
AcDbLayout
  1
Layout1
 70
1
 71
1
 10
0.0
 20
0.0
 11
420.0
 21
297.0
 12
0.0
 22
0.0
 32
0.0
 14
1e+20
 24
1e+20
 34
1e+20
 15
-1e+20
 25
-1e+20
 35
-1e+20
146
0.0
 13
0.0
 23
0.0
 33
0.0
 16
1.0
 26
0.0
 36
0.0
 17
0.0
 27
1.0
 37
0.0
 76
1
330
1B
  0
MATERIAL
  5
1F
102
{ACAD_REACTORS
330
E
102
}
330
E
100
AcDbMaterial
  1
ByBlock
  2

 70
0
 40
1.0
 71
1
 41
1.0
 91
-1023410177
 42
1.0
 72
1
  3

 73
1
 74
1
 75
1
 44
0.5
 73
0
 45
1.0
 46
1.0
 77
1
  4

 78
1
 79
1
170
1
 48
1.0
171
1
  6

172
1
173
1
174
1
140
1.0
141
1.0
175
1
  7

176
1
177
1
178
1
143
1.0
179
1
  8

270
1
271
1
272
1
145
1.0
146
1.0
273
1
  9

274
1
275
1
276
1
 42
1.0
 72
1
  3

 73
1
 74
1
 75
1
 94
63
  0
MATERIAL
  5
20
102
{ACAD_REACTORS
330
E
102
}
330
E
100
AcDbMaterial
  1
ByLayer
  2

 70
0
 40
1.0
 71
1
 41
1.0
 91
-1023410177
 42
1.0
 72
1
  3

 73
1
 74
1
 75
1
 44
0.5
 73
0
 45
1.0
 46
1.0
 77
1
  4

 78
1
 79
1
170
1
 48
1.0
171
1
  6

172
1
173
1
174
1
140
1.0
141
1.0
175
1
  7

176
1
177
1
178
1
143
1.0
179
1
  8

270
1
271
1
272
1
145
1.0
146
1.0
273
1
  9

274
1
275
1
276
1
 42
1.0
 72
1
  3

 73
1
 74
1
 75
1
 94
63
  0
MATERIAL
  5
21
102
{ACAD_REACTORS
330
E
102
}
330
E
100
AcDbMaterial
  1
Global
  2

 70
0
 40
1.0
 71
1
 41
1.0
 91
-1023410177
 42
1.0
 72
1
  3

 73
1
 74
1
 75
1
 44
0.5
 73
0
 45
1.0
 46
1.0
 77
1
  4

 78
1
 79
1
170
1
 48
1.0
171
1
  6

172
1
173
1
174
1
140
1.0
141
1.0
175
1
  7

176
1
177
1
178
1
143
1.0
179
1
  8

270
1
271
1
272
1
145
1.0
146
1.0
273
1
  9

274
1
275
1
276
1
 42
1.0
 72
1
  3

 73
1
 74
1
 75
1
 94
63
  0
MLINESTYLE
  5
22
102
{ACAD_REACTORS
330
10
102
}
330
10
100
AcDbMlineStyle
  2
Standard
 70
0
  3

 62
256
 51
90.0
 52
90.0
 71
2
 49
0.5
 62
256
  6
BYLAYER
 49
-0.5
 62
256
  6
BYLAYER
  0
MLEADERSTYLE
  5
2C
102
{ACAD_REACTORS
330
F
102
}
330
F
100
AcDbMLeaderStyle
179
2
170
2
171
1
172
0
 90
2
 40
0.0
 41
0.0
173
1
 91
-1056964608
 92
-2
290
1
 42
2.0
291
1
 43
8.0
  3
Standard
 44
4.0
300

342
29
174
1
175
1
176
0
178
1
 93
-1056964608
 45
4.0
292
0
297
0
 46
4.0
 94
-1056964608
 47
1.0
 49
1.0
140
1.0
294
1
141
0.0
177
0
142
1.0
295
0
296
0
143
3.75
271
0
272
9
273
9
  0
DICTIONARY
  5
2D
330
A
100
AcDbDictionary
280
1
281
1
  3
CREATED_BY_EZDXF
350
2E
  3
WRITTEN_BY_EZDXF
350
E4
  0
DICTIONARYVAR
  5
2E
330
2D
100
DictionaryVariables
280
0
  1
1.4.3 @ 2026-06-10T17:43:19.728985+00:00
  0
DICTIONARYVAR
  5
E4
330
2D
100
DictionaryVariables
280
0
  1
1.4.3 @ 2026-06-10T17:43:19.735193+00:00
  0
ENDSEC
  0
EOF
