  0
SECTION
  2
HEADER
  9
$ACADVER
  1
AC1024
  9
$ACADMAINTVER
 70
6
  9
$DWGCODEPAGE
  3
ANSI_1252
  9
$LASTSAVEDBY
  1
ezdxf
  9
$INSBASE
 10
0.0
 20
0.0
 30
0.0
  9
$EXTMIN
 10
1e+20
 20
1e+20
 30
1e+20
  9
$EXTMAX
 10
-1e+20
 20
-1e+20
 30
-1e+20
  9
$LIMMIN
 10
0.0
 20
0.0
  9
$LIMMAX
 10
420.0
 20
297.0
  9
$ORTHOMODE
 70
0
  9
$REGENMODE
 70
1
  9
$FILLMODE
 70
1
  9
$QTEXTMODE
 70
0
  9
$MIRRTEXT
 70
1
  9
$LTSCALE
 40
1.0
  9
$ATTMODE
 70
1
  9
$TEXTSIZE
 40
2.5
  9
$TRACEWID
 40
1.0
  9
$TEXTSTYLE
  7
Standard
  9
$CLAYER
  8
0
  9
$CELTYPE
  6
ByLayer
  9
$CECOLOR
 62
256
  9
$CELTSCALE
 40
1.0
  9
$DISPSILH
 70
0
  9
$DIMSCALE
 40
1.0
  9
$DIMASZ
 40
2.5
  9
$DIMEXO
 40
0.625
  9
$DIMDLI
 40
3.75
  9
$DIMRND
 40
0.0
  9
$DIMDLE
 40
0.0
  9
$DIMEXE
 40
1.25
  9
$DIMTP
 40
0.0
  9
$DIMTM
 40
0.0
  9
$DIMTXT
 40
2.5
  9
$DIMCEN
 40
2.5
  9
$DIMTSZ
 40
0.0
  9
$DIMTOL
 70
0
  9
$DIMLIM
 70
0
  9
$DIMTIH
 70
0
  9
$DIMTOH
 70
0
  9
$DIMSE1
 70
0
  9
$DIMSE2
 70
0
  9
$DIMTAD
 70
1
  9
$DIMZIN
 70
8
  9
$DIMBLK
  1

  9
$DIMASO
 70
1
  9
$DIMSHO
 70
1
  9
$DIMPOST
  1

  9
$DIMAPOST
  1

  9
$DIMALT
 70
0
  9
$DIMALTD
 70
3
  9
$DIMALTF
 40
0.03937007874
  9
$DIMLFAC
 40
1.0
  9
$DIMTOFL
 70
1
  9
$DIMTVP
 40
0.0
  9
$DIMTIX
 70
0
  9
$DIMSOXD
 70
0
  9
$DIMSAH
 70
0
  9
$DIMBLK1
  1

  9
$DIMBLK2
  1

  9
$DIMSTYLE
  2
ISO-25
  9
$DIMCLRD
 70
0
  9
$DIMCLRE
 70
0
  9
$DIMCLRT
 70
0
  9
$DIMTFAC
 40
1.0
  9
$DIMGAP
 40
0.625
  9
$DIMJUST
 70
0
  9
$DIMSD1
 70
0
  9
$DIMSD2
 70
0
  9
$DIMTOLJ
 70
0
  9
$DIMTZIN
 70
8
  9
$DIMALTZ
 70
0
  9
$DIMALTTZ
 70
0
  9
$DIMUPT
 70
0
  9
$DIMDEC
 70
2
  9
$DIMTDEC
 70
2
  9
$DIMALTU
 70
2
  9
$DIMALTTD
 70
3
  9
$DIMTXSTY
  7
Standard
  9
$DIMAUNIT
 70
0
  9
$DIMADEC
 70
0
  9
$DIMALTRND
 40
0.0
  9
$DIMAZIN
 70
0
  9
$DIMDSEP
 70
44
  9
$DIMATFIT
 70
3
  9
$DIMFRAC
 70
0
  9
$DIMLDRBLK
  1

  9
$DIMLUNIT
 70
2
  9
$DIMLWD
 70
-2
  9
$DIMLWE
 70
-2
  9
$DIMTMOVE
 70
0
  9
$DIMFXL
 40
1.0
  9
$DIMFXLON
 70
0
  9
$DIMJOGANG
 40
0.785398163397
  9
$DIMTFILL
 70
0
  9
$DIMTFILLCLR
 70
0
  9
$DIMARCSYM
 70
0
  9
$DIMLTYPE
  6

  9
$DIMLTEX1
  6

  9
$DIMLTEX2
  6

  9
$DIMTXTDIRECTION
 70
0
  9
$LUNITS
 70
2
  9
$LUPREC
 70
4
  9
$SKETCHINC
 40
1.0
  9
$FILLETRAD
 40
10.0
  9
$AUNITS
 70
0
  9
$AUPREC
 70
2
  9
$MENU
  1
.
  9
$ELEVATION
 40
0.0
  9
$PELEVATION
 40
0.0
  9
$THICKNESS
 40
0.0
  9
$LIMCHECK
 70
0
  9
$CHAMFERA
 40
0.0
  9
$CHAMFERB
 40
0.0
  9
$CHAMFERC
 40
0.0
  9
$CHAMFERD
 40
0.0
  9
$SKPOLY
 70
0
  9
$TDCREATE
 40
2461202.5788194444
  9
$TDUCREATE
 40
2458532.153996898
  9
$TDUPDATE
 40
2461202.5788194444
  9
$TDUUPDATE
 40
2458532.1544311
  9
$TDINDWG
 40
0.0
  9
$TDUSRTIMER
 40
0.0
  9
$USRTIMER
 70
1
  9
$ANGBASE
 50
0.0
  9
$ANGDIR
 70
0
  9
$PDMODE
 70
0
  9
$PDSIZE
 40
0.0
  9
$PLINEWID
 40
0.0
  9
$SPLFRAME
 70
0
  9
$SPLINETYPE
 70
6
  9
$SPLINESEGS
 70
8
  9
$HANDSEED
  5
372
  9
$SURFTAB1
 70
6
  9
$SURFTAB2
 70
6
  9
$SURFTYPE
 70
6
  9
$SURFU
 70
6
  9
$SURFV
 70
6
  9
$UCSBASE
  2

  9
$UCSNAME
  2

  9
$UCSORG
 10
0.0
 20
0.0
 30
0.0
  9
$UCSXDIR
 10
1.0
 20
0.0
 30
0.0
  9
$UCSYDIR
 10
0.0
 20
1.0
 30
0.0
  9
$UCSORTHOREF
  2

  9
$UCSORTHOVIEW
 70
0
  9
$UCSORGTOP
 10
0.0
 20
0.0
 30
0.0
  9
$UCSORGBOTTOM
 10
0.0
 20
0.0
 30
0.0
  9
$UCSORGLEFT
 10
0.0
 20
0.0
 30
0.0
  9
$UCSORGRIGHT
 10
0.0
 20
0.0
 30
0.0
  9
$UCSORGFRONT
 10
0.0
 20
0.0
 30
0.0
  9
$UCSORGBACK
 10
0.0
 20
0.0
 30
0.0
  9
$PUCSBASE
  2

  9
$PUCSNAME
  2

  9
$PUCSORG
 10
0.0
 20
0.0
 30
0.0
  9
$PUCSXDIR
 10
1.0
 20
0.0
 30
0.0
  9
$PUCSYDIR
 10
0.0
 20
1.0
 30
0.0
  9
$PUCSORTHOREF
  2

  9
$PUCSORTHOVIEW
 70
0
  9
$PUCSORGTOP
 10
0.0
 20
0.0
 30
0.0
  9
$PUCSORGBOTTOM
 10
0.0
 20
0.0
 30
0.0
  9
$PUCSORGLEFT
 10
0.0
 20
0.0
 30
0.0
  9
$PUCSORGRIGHT
 10
0.0
 20
0.0
 30
0.0
  9
$PUCSORGFRONT
 10
0.0
 20
0.0
 30
0.0
  9
$PUCSORGBACK
 10
0.0
 20
0.0
 30
0.0
  9
$USERI1
 70
0
  9
$USERI2
 70
0
  9
$USERI3
 70
0
  9
$USERI4
 70
0
  9
$USERI5
 70
0
  9
$USERR1
 40
0.0
  9
$USERR2
 40
0.0
  9
$USERR3
 40
0.0
  9
$USERR4
 40
0.0
  9
$USERR5
 40
0.0
  9
$WORLDVIEW
 70
1
  9
$SHADEDGE
 70
3
  9
$SHADEDIF
 70
70
  9
$TILEMODE
 70
1
  9
$MAXACTVP
 70
64
  9
$PINSBASE
 10
0.0
 20
0.0
 30
0.0
  9
$PLIMCHECK
 70
0
  9
$PEXTMIN
 10
1e+20
 20
1e+20
 30
1e+20
  9
$PEXTMAX
 10
-1e+20
 20
-1e+20
 30
-1e+20
  9
$PLIMMIN
 10
0.0
 20
0.0
  9
$PLIMMAX
 10
420.0
 20
297.0
  9
$UNITMODE
 70
0
  9
$VISRETAIN
 70
1
  9
$PLINEGEN
 70
0
  9
$PSLTSCALE
 70
1
  9
$TREEDEPTH
 70
3020
  9
$CMLSTYLE
  2
Standard
  9
$CMLJUST
 70
0
  9
$CMLSCALE
 40
20.0
  9
$PROXYGRAPHICS
 70
1
  9
$MEASUREMENT
 70
1
  9
$CELWEIGHT
370
-1
  9
$ENDCAPS
280
0
  9
$JOINSTYLE
280
0
  9
$LWDISPLAY
290
0
  9
$INSUNITS
 70
6
  9
$HYPERLINKBASE
  1

  9
$STYLESHEET
  1

  9
$XEDIT
290
1
  9
$CEPSNTYPE
380
0
  9
$PSTYLEMODE
290
1
  9
$FINGERPRINTGUID
  2
{312541D1-1E24-4BDA-8098-A3C38DEB6FB2}
  9
$VERSIONGUID
  2
{2F53836B-3CBC-45C9-9A79-8AD4423BF460}
  9
$EXTNAMES
290
1
  9
$PSVPSCALE
 40
0.0
  9
$OLESTARTUP
290
0
  9
$SORTENTS
280
127
  9
$INDEXCTL
280
0
  9
$HIDETEXT
280
1
  9
$XCLIPFRAME
280
1
  9
$HALOGAP
280
0
  9
$OBSCOLOR
 70
257
  9
$OBSLTYPE
280
0
  9
$INTERSECTIONDISPLAY
280
0
  9
$INTERSECTIONCOLOR
 70
257
  9
$DIMASSOC
280
2
  9
$PROJECTNAME
  1

  9
$CAMERADISPLAY
290
0
  9
$LENSLENGTH
 40
50.0
  9
$CAMERAHEIGHT
 40
0.0
  9
$STEPSPERSEC
 40
24.0
  9
$STEPSIZE
 40
100.0
  9
$3DDWFPREC
 40
2.0
  9
$PSOLWIDTH
 40
0.005
  9
$PSOLHEIGHT
 40
0.08
  9
$LOFTANG1
 40
1.570796326795
  9
$LOFTANG2
 40
1.570796326795
  9
$LOFTMAG1
 40
0.0
  9
$LOFTMAG2
 40
0.0
  9
$LOFTPARAM
 70
7
  9
$LOFTNORMALS
280
1
  9
$LATITUDE
 40
37.795
  9
$LONGITUDE
 40
-122.394
  9
$NORTHDIRECTION
 40
0.0
  9
$TIMEZONE
 70
-8000
  9
$LIGHTGLYPHDISPLAY
280
1
  9
$TILEMODELIGHTSYNCH
280
1
  9
$CMATERIAL
347
20
  9
$SOLIDHIST
280
0
  9
$SHOWHIST
280
1
  9
$DWFFRAME
280
2
  9
$DGNFRAME
280
2
  9
$REALWORLDSCALE
290
1
  9
$INTERFERECOLOR
 62
256
  9
$CSHADOW
280
0
  9
$SHADOWPLANELOCATION
 40
0.0
  0
ENDSEC
  0
SECTION
  2
CLASSES
  0
CLASS
  1
ACDBDICTIONARYWDFLT
  2
AcDbDictionaryWithDefault
  3
ObjectDBX Classes
 90
0
 91
0
280
0
281
0
  0
CLASS
  1
SUN
  2
AcDbSun
  3
SCENEOE
 90
1153
 91
0
280
0
281
0
  0
CLASS
  1
VISUALSTYLE
  2
AcDbVisualStyle
  3
ObjectDBX Classes
 90
4095
 91
0
280
0
281
0
  0
CLASS
  1
MATERIAL
  2
AcDbMaterial
  3
ObjectDBX Classes
 90
1153
 91
0
280
0
281
0
  0
CLASS
  1
SCALE
  2
AcDbScale
  3
ObjectDBX Classes
 90
1153
 91
0
280
0
281
0
  0
CLASS
  1
TABLESTYLE
  2
AcDbTableStyle
  3
ObjectDBX Classes
 90
4095
 91
0
280
0
281
0
  0
CLASS
  1
MLEADERSTYLE
  2
AcDbMLeaderStyle
  3
ACDB_MLEADERSTYLE_CLASS
 90
4095
 91
0
280
0
281
0
  0
CLASS
  1
DICTIONARYVAR
  2
AcDbDictionaryVar
  3
ObjectDBX Classes
 90
0
 91
0
280
0
281
0
  0
CLASS
  1
CELLSTYLEMAP
  2
AcDbCellStyleMap
  3
ObjectDBX Classes
 90
1152
 91
0
280
0
281
0
  0
CLASS
  1
MENTALRAYRENDERSETTINGS
  2
AcDbMentalRayRenderSettings
  3
SCENEOE
 90
1024
 91
0
280
0
281
0
  0
CLASS
  1
ACDBDETAILVIEWSTYLE
  2
AcDbDetailViewStyle
  3
ObjectDBX Classes
 90
1025
 91
0
280
0
281
0
  0
CLASS
  1
ACDBSECTIONVIEWSTYLE
  2
AcDbSectionViewStyle
  3
ObjectDBX Classes
 90
1025
 91
0
280
0
281
0
  0
CLASS
  1
RASTERVARIABLES
  2
AcDbRasterVariables
  3
ISM
 90
0
 91
0
280
0
281
0
  0
CLASS
  1
LAYOUT
  2
AcDbLayout
  3
ObjectDBX Classes
 90
0
 91
0
280
0
281
0
  0
CLASS
  1
ACDBPLACEHOLDER
  2
AcDbPlaceHolder
  3
ObjectDBX Classes
 90
0
 91
0
280
0
281
0
  0
ENDSEC
  0
SECTION
  2
TABLES
  0
TABLE
  2
VPORT
  5
8
330
0
100
AcDbSymbolTable
 70
1
  0
VPORT
  5
23
330
8
100
AcDbSymbolTableRecord
100
AcDbViewportTableRecord
  2
*Active
 70
0
 10
0.0
 20
0.0
 11
1.0
 21
1.0
 12
0.0
 22
0.0
 13
0.0
 23
0.0
 14
0.5
 24
0.5
 15
0.5
 25
0.5
 16
0.0
 26
0.0
 36
1.0
 17
0.0
 27
0.0
 37
0.0
 40
1000.0
 41
1.34
 42
50.0
 43
0.0
 44
0.0
 50
0.0
 51
0.0
 71
0
 72
1000
 73
1
 74
3
 75
0
 76
0
 77
0
 78
0
281
0
 65
0
146
0.0
  0
ENDTAB
  0
TABLE
  2
LTYPE
  5
2
330
0
100
AcDbSymbolTable
 70
3
  0
LTYPE
  5
24
330
2
100
AcDbSymbolTableRecord
100
AcDbLinetypeTableRecord
  2
ByBlock
 70
0
  3

 72
65
 73
0
 40
0.0
  0
LTYPE
  5
25
330
2
100
AcDbSymbolTableRecord
100
AcDbLinetypeTableRecord
  2
ByLayer
 70
0
  3

 72
65
 73
0
 40
0.0
  0
LTYPE
  5
26
330
2
100
AcDbSymbolTableRecord
100
AcDbLinetypeTableRecord
  2
Continuous
 70
0
  3

 72
65
 73
0
 40
0.0
  0
ENDTAB
  0
TABLE
  2
LAYER
  5
1
330
0
100
AcDbSymbolTable
 70
14
  0
LAYER
  5
27
330
1
100
AcDbSymbolTableRecord
100
AcDbLayerTableRecord
  2
0
 70
0
 62
7
  6
Continuous
370
-3
390
13
347
21
  0
LAYER
  5
28
330
1
100
AcDbSymbolTableRecord
100
AcDbLayerTableRecord
  2
Defpoints
 70
0
 62
7
  6
Continuous
290
0
370
-3
390
13
347
21
  0
LAYER
  5
2F
330
1
100
AcDbSymbolTableRecord
100
AcDbLayerTableRecord
  2
COTA
 70
0
 62
7
  6
Continuous
370
-3
390
13
347
21
  0
LAYER
  5
30
330
1
100
AcDbSymbolTableRecord
100
AcDbLayerTableRecord
  2
Perfil Metálico
 70
0
 62
7
  6
Continuous
370
-3
390
13
347
21
  0
LAYER
  5
31
330
1
100
AcDbSymbolTableRecord
100
AcDbLayerTableRecord
  2
TEXTO_GERAL
 70
0
 62
7
  6
Continuous
370
-3
390
13
347
21
  0
LAYER
  5
32
330
1
100
AcDbSymbolTableRecord
100
AcDbLayerTableRecord
  2
Hachura
 70
0
 62
7
  6
Continuous
370
-3
390
13
347
21
  0
LAYER
  5
33
330
1
100
AcDbSymbolTableRecord
100
AcDbLayerTableRecord
  2
Madeira
 70
0
 62
7
  6
Continuous
370
-3
390
13
347
21
  0
LAYER
  5
34
330
1
100
AcDbSymbolTableRecord
100
AcDbLayerTableRecord
  2
Painéis
 70
0
 62
7
  6
Continuous
370
-3
390
13
347
21
  0
LAYER
  5
35
330
1
100
AcDbSymbolTableRecord
100
AcDbLayerTableRecord
  2
CHAPA
 70
0
 62
7
  6
Continuous
370
-3
390
13
347
21
  0
LAYER
  5
36
330
1
100
AcDbSymbolTableRecord
100
AcDbLayerTableRecord
  2
SARR_2.2x7
 70
0
 62
7
  6
Continuous
370
-3
390
13
347
21
  0
LAYER
  5
37
330
1
100
AcDbSymbolTableRecord
100
AcDbLayerTableRecord
  2
SARRAFO
 70
0
 62
7
  6
Continuous
370
-3
390
13
347
21
  0
LAYER
  5
38
330
1
100
AcDbSymbolTableRecord
100
AcDbLayerTableRecord
  2
NOMENCLATURA
 70
0
 62
7
  6
Continuous
370
-3
390
13
347
21
  0
LAYER
  5
39
330
1
100
AcDbSymbolTableRecord
100
AcDbLayerTableRecord
  2
Nível
 70
0
 62
7
  6
Continuous
370
-3
390
13
347
21
  0
LAYER
  5
3A
330
1
100
AcDbSymbolTableRecord
100
AcDbLayerTableRecord
  2
Texto Seção
 70
0
 62
7
  6
Continuous
370
-3
390
13
347
21
  0
ENDTAB
  0
TABLE
  2
STYLE
  5
5
330
0
100
AcDbSymbolTable
 70
1
  0
STYLE
  5
29
330
5
100
AcDbSymbolTableRecord
100
AcDbTextStyleTableRecord
  2
Standard
 70
0
 40
0.0
 41
1.0
 50
0.0
 71
0
 42
2.5
  3
txt
  4

  0
ENDTAB
  0
TABLE
  2
VIEW
  5
7
330
0
100
AcDbSymbolTable
 70
0
  0
ENDTAB
  0
TABLE
  2
UCS
  5
6
330
0
100
AcDbSymbolTable
 70
0
  0
ENDTAB
  0
TABLE
  2
APPID
  5
3
330
0
100
AcDbSymbolTable
 70
3
  0
APPID
  5
2A
330
3
100
AcDbSymbolTableRecord
100
AcDbRegAppTableRecord
  2
ACAD
 70
0
  0
APPID
  5
36F
330
3
100
AcDbSymbolTableRecord
100
AcDbRegAppTableRecord
  2
HATCHBACKGROUNDCOLOR
 70
0
  0
APPID
  5
370
330
3
100
AcDbSymbolTableRecord
100
AcDbRegAppTableRecord
  2
EZDXF
 70
0
  0
ENDTAB
  0
TABLE
  2
DIMSTYLE
  5
4
330
0
100
AcDbSymbolTable
 70
1
100
AcDbDimStyleTable
  0
DIMSTYLE
105
2B
330
4
100
AcDbSymbolTableRecord
100
AcDbDimStyleTableRecord
  2
Standard
 70
0
 40
1.0
 41
2.5
 42
0.625
 43
3.75
 44
1.25
 45
0.0
 46
0.0
 47
0.0
 48
0.0
 49
2.5
140
2.5
141
2.5
142
0.0
143
0.03937007874
144
1.0
145
0.0
146
1.0
147
0.625
148
0.0
 69
0
 70
0
 71
0
 72
0
 73
0
 74
0
 75
0
 76
0
 77
1
 78
8
 79
3
170
0
171
3
172
1
173
0
174
0
175
0
176
0
177
0
178
0
179
2
271
2
272
2
273
2
274
3
275
0
276
0
277
2
278
44
279
0
280
0
281
0
282
0
283
0
284
8
285
0
286
0
288
0
289
3
290
0
371
-2
372
-2
  0
ENDTAB
  0
TABLE
  2
BLOCK_RECORD
  5
9
330
0
100
AcDbSymbolTable
 70
2
  0
BLOCK_RECORD
  5
17
330
9
100
AcDbSymbolTableRecord
100
AcDbBlockTableRecord
  2
*Model_Space
340
1A
 70
0
280
1
281
0
  0
BLOCK_RECORD
  5
1B
330
9
100
AcDbSymbolTableRecord
100
AcDbBlockTableRecord
  2
*Paper_Space
340
1E
 70
0
280
1
281
0
  0
ENDTAB
  0
ENDSEC
  0
SECTION
  2
BLOCKS
  0
BLOCK
  5
18
330
17
100
AcDbEntity
  8
0
100
AcDbBlockBegin
  2
*Model_Space
 70
0
 10
0.0
 20
0.0
 30
0.0
  3
*Model_Space
  1

  0
ENDBLK
  5
19
330
17
100
AcDbEntity
  8
0
100
AcDbBlockEnd
  0
BLOCK
  5
1C
330
1B
100
AcDbEntity
  8
0
100
AcDbBlockBegin
  2
*Paper_Space
 70
0
 10
0.0
 20
0.0
 30
0.0
  3
*Paper_Space
  1

  0
ENDBLK
  5
1D
330
1B
100
AcDbEntity
  8
0
100
AcDbBlockEnd
  0
ENDSEC
  0
SECTION
  2
ENTITIES
  0
LINE
  5
3B
330
17
100
AcDbEntity
  8
Defpoints
 62
7
370
25
100
AcDbLine
 10
7755.594449806297
 20
6990.66478188671
 30
0.0
 11
7755.594449806297
 21
7115.66478188671
 31
0.0
  0
LINE
  5
3C
330
17
100
AcDbEntity
  8
Hachura
 62
7
370
25
100
AcDbLine
 10
7820.690564214579
 20
6741.625992069207
 30
0.0
 11
7821.3354866694135
 21
6741.625992069207
 31
0.0
  0
LINE
  5
3D
330
17
100
AcDbEntity
  8
Hachura
 62
7
370
25
100
AcDbLine
 10
7821.851424628994
 20
6741.625992069207
 30
0.0
 11
7820.88404094674
 21
6743.56075943371
 31
0.0
  0
LINE
  5
3E
330
17
100
AcDbEntity
  8
Hachura
 62
7
370
25
100
AcDbLine
 10
7821.758781788441
 20
6741.553308738361
 30
0.0
 11
7820.675975452541
 21
6743.718921495919
 31
0.0
  0
LINE
  5
3F
330
17
100
AcDbEntity
  8
Hachura
 62
7
370
25
100
AcDbLine
 10
7820.447225375084
 20
6743.660483605497
 30
0.0
 11
7821.517514230855
 21
6741.5199059368315
 31
0.0
  0
LINE
  5
40
330
17
100
AcDbEntity
  8
Hachura
 62
7
370
25
100
AcDbLine
 10
7820.368102987165
 20
6743.56075943371
 30
0.0
 11
7821.3354866694135
 21
6741.625992069207
 31
0.0
  0
LINE
  5
41
330
17
100
AcDbEntity
  8
Hachura
 62
7
370
25
100
AcDbLine
 10
7819.723180532331
 20
6743.56075943371
 30
0.0
 11
7820.368102987165
 21
6743.56075943371
 31
0.0
  0
LINE
  5
42
330
17
100
AcDbEntity
  8
Hachura
 62
7
370
25
100
AcDbLine
 10
7818.046382147618
 20
6743.56075943371
 30
0.0
 11
7817.401459692784
 21
6743.56075943371
 31
0.0
  0
LINE
  5
43
330
17
100
AcDbEntity
  8
Hachura
 62
7
370
25
100
AcDbLine
 10
7818.9953879129125
 20
6743.56075943371
 30
0.0
 11
7819.207242562028
 21
6743.56075943371
 31
0.0
  0
LINE
  5
44
330
17
100
AcDbEntity
  8
Hachura
 62
7
370
25
100
AcDbLine
 10
7818.9953879129125
 20
6743.56075943371
 30
0.0
 11
7818.5623201071985
 21
6743.56075943371
 31
0.0
  0
LINE
  5
45
330
17
100
AcDbEntity
  8
Hachura
 62
7
370
25
100
AcDbLine
 10
7819.529703789448
 20
6741.625992069207
 30
0.0
 11
7820.174626244282
 21
6741.625992069207
 31
0.0
  0
LINE
  5
46
330
17
100
AcDbEntity
  8
Hachura
 62
7
370
25
100
AcDbLine
 10
7818.368843375033
 20
6741.625992069207
 30
0.0
 11
7819.013765829867
 21
6741.625992069207
 31
0.0
  0
LINE
  5
47
330
17
100
AcDbEntity
  8
Hachura
 62
7
370
25
100
AcDbLine
 10
7820.690564214579
 20
6741.625992069207
 30
0.0
 11
7819.723180532331
 21
6743.56075943371
 31
0.0
  0
LINE
  5
48
330
17
100
AcDbEntity
  8
Hachura
 62
7
370
25
100
AcDbLine
 10
7820.59792136331
 20
6741.553308738361
 30
0.0
 11
7819.51511502741
 21
6743.718921495919
 31
0.0
  0
LINE
  5
49
330
17
100
AcDbEntity
  8
Hachura
 62
7
370
25
100
AcDbLine
 10
7819.286364960673
 20
6743.660483605497
 30
0.0
 11
7820.356653805723
 21
6741.5199059368315
 31
0.0
  0
LINE
  5
4A
330
17
100
AcDbEntity
  8
Hachura
 62
7
370
25
100
AcDbLine
 10
7819.207242562028
 20
6743.56075943371
 30
0.0
 11
7820.174626244282
 21
6741.625992069207
 31
0.0
  0
LINE
  5
4B
330
17
100
AcDbEntity
  8
Hachura
 62
7
370
25
100
AcDbLine
 10
7818.368843375033
 20
6741.625992069207
 30
0.0
 11
7817.401459692784
 21
6743.56075943371
 31
0.0
  0
LINE
  5
4C
330
17
100
AcDbEntity
  8
Hachura
 62
7
370
25
100
AcDbLine
 10
7819.529703789448
 20
6741.625992069207
 30
0.0
 11
7818.5623201071985
 21
6743.56075943371
 31
0.0
  0
LINE
  5
4D
330
17
100
AcDbEntity
  8
Hachura
 62
7
370
25
100
AcDbLine
 10
7819.437060948895
 20
6741.553308738361
 30
0.0
 11
7818.354254612995
 21
6743.718921495919
 31
0.0
  0
LINE
  5
4E
330
17
100
AcDbEntity
  8
Hachura
 62
7
370
25
100
AcDbLine
 10
7818.125504546259
 20
6743.660483605497
 30
0.0
 11
7819.195793391309
 21
6741.5199059368315
 31
0.0
  0
LINE
  5
4F
330
17
100
AcDbEntity
  8
Hachura
 62
7
370
25
100
AcDbLine
 10
7818.046382147618
 20
6743.56075943371
 30
0.0
 11
7819.013765829867
 21
6741.625992069207
 31
0.0
  0
LINE
  5
50
330
17
100
AcDbEntity
  8
Hachura
 62
7
370
25
100
AcDbLine
 10
7822.173782217813
 20
6743.302997763275
 30
0.0
 11
7822.044901361155
 21
6743.56075943371
 31
0.0
  0
LINE
  5
51
330
17
100
AcDbEntity
  8
Hachura
 62
7
370
25
100
AcDbLine
 10
7822.173782217813
 20
6743.045028772765
 30
0.0
 11
7821.836835856234
 21
6743.718921495919
 31
0.0
  0
LINE
  5
52
330
17
100
AcDbEntity
  8
Hachura
 62
7
370
25
100
AcDbLine
 10
7822.044901361155
 20
6743.56075943371
 30
0.0
 11
7822.173782217813
 21
6743.56075943371
 31
0.0
  0
LINE
  5
53
330
17
100
AcDbEntity
  8
Hachura
 62
7
370
25
100
AcDbLine
 10
7822.17217212123
 20
6743.558967647989
 30
0.0
 11
7822.494633370088
 21
6743.236506420572
 31
0.0
  0
LINE
  5
54
330
17
100
AcDbEntity
  8
Hachura
 62
7
370
25
100
AcDbLine
 10
7821.528963401574
 20
6743.56075943371
 30
0.0
 11
7820.88404094674
 21
6743.56075943371
 31
0.0
  0
LINE
  5
55
330
17
100
AcDbEntity
  8
Hachura
 62
7
370
25
100
AcDbLine
 10
7821.851424628994
 20
6741.625992069207
 30
0.0
 11
7822.173782217813
 21
6741.625992069207
 31
0.0
  0
LINE
  5
56
330
17
100
AcDbEntity
  8
Hachura
 62
7
370
25
100
AcDbLine
 10
7822.172172142668
 20
6741.624114782716
 30
0.0
 11
7822.172094724595
 21
6741.624114782716
 31
0.0
  0
LINE
  5
57
330
17
100
AcDbEntity
  8
Hachura
 62
7
370
25
100
AcDbLine
 10
7822.172172142668
 20
6741.624114782716
 30
0.0
 11
7822.494633370088
 21
6741.946661510904
 31
0.0
  0
LINE
  5
58
330
17
100
AcDbEntity
  8
Hachura
 62
7
370
25
100
AcDbLine
 10
7819.962771584444
 20
6741.625992069207
 30
0.0
 11
7820.17462623356
 21
6741.625992069207
 31
0.0
  0
LINE
  5
59
330
17
100
AcDbEntity
  8
Hachura
 62
7
370
25
100
AcDbLine
 10
7821.608085789499
 20
6743.660483605497
 30
0.0
 11
7822.173782217813
 21
6742.529090791748
 31
0.0
  0
LINE
  5
5A
330
17
100
AcDbEntity
  8
Hachura
 62
7
370
25
100
AcDbLine
 10
7821.528963401574
 20
6743.56075943371
 30
0.0
 11
7822.173782217813
 21
6742.271121844117
 31
0.0
  0
LINE
  5
5B
330
17
100
AcDbEntity
  8
Hachura
 62
7
370
25
100
AcDbLine
 10
7822.494633370088
 20
6741.946661510904
 30
0.0
 11
7822.494633370088
 21
6743.236506420572
 31
0.0
  0
LINE
  5
5C
330
17
100
AcDbEntity
  8
Hachura
 62
7
370
25
100
AcDbLine
 10
7821.851424628994
 20
6741.625992069207
 30
0.0
 11
7820.88404094674
 21
6743.56075943371
 31
0.0
  0
LINE
  5
5D
330
17
100
AcDbEntity
  8
Hachura
 62
7
370
25
100
AcDbLine
 10
7822.17217212123
 20
6743.558967647989
 30
0.0
 11
7822.17217212123
 21
6741.624200283487
 31
0.0
  0
LINE
  5
5E
330
17
100
AcDbEntity
  8
Hachura
 62
7
370
25
100
AcDbLine
 10
7810.694266164654
 20
6748.154322925834
 30
0.0
 11
7810.694266164654
 21
6740.339661181203
 31
0.0
  0
LINE
  5
5F
330
17
100
AcDbEntity
  8
Hachura
 62
7
370
25
100
AcDbLine
 10
7817.401459692784
 20
6744.334666405237
 30
0.0
 11
7817.401459692784
 21
6740.981069614373
 31
0.0
  0
LINE
  5
60
330
17
100
AcDbEntity
  8
Hachura
 62
7
370
25
100
AcDbLine
 10
7817.333742835455
 20
6744.334666405237
 30
0.0
 11
7817.333742835455
 21
6740.981069614373
 31
0.0
  0
LINE
  5
61
330
17
100
AcDbEntity
  8
Hachura
 62
7
370
25
100
AcDbLine
 10
7814.176847418615
 20
6740.723100666742
 30
0.0
 11
7814.176847418615
 21
6744.592635395747
 31
0.0
  0
LINE
  5
62
330
17
100
AcDbEntity
  8
Hachura
 62
7
370
25
100
AcDbLine
 10
7811.597157599279
 20
6736.208643482905
 30
0.0
 11
7811.597157599279
 21
6749.107092579584
 31
0.0
  0
LINE
  5
63
330
17
100
AcDbEntity
  8
Hachura
 62
7
370
25
100
AcDbLine
 10
7810.694266164654
 20
6749.107092579584
 30
0.0
 11
7810.694266164654
 21
6736.212185247298
 31
0.0
  0
LINE
  5
64
330
17
100
AcDbEntity
  8
Hachura
 62
7
370
25
100
AcDbLine
 10
7817.401459692784
 20
6742.01294557641
 30
0.0
 11
7814.176847418615
 21
6742.01294557641
 31
0.0
  0
LINE
  5
65
330
17
100
AcDbEntity
  8
Hachura
 62
7
370
25
100
AcDbLine
 10
7817.401459692784
 20
6740.981069614373
 30
0.0
 11
7814.176847418615
 21
6740.981069614373
 31
0.0
  0
LINE
  5
66
330
17
100
AcDbEntity
  8
Hachura
 62
7
370
25
100
AcDbLine
 10
7811.597157599279
 20
6742.657868031244
 30
0.0
 11
7811.597157599279
 21
6740.723100666742
 31
0.0
  0
LINE
  5
67
330
17
100
AcDbEntity
  8
Hachura
 62
7
370
25
100
AcDbLine
 10
7811.597157599279
 20
6741.368023121576
 30
0.0
 11
7811.597157599279
 21
6742.01294557641
 31
0.0
  0
LINE
  5
68
330
17
100
AcDbEntity
  8
Hachura
 62
7
370
25
100
AcDbLine
 10
7811.597157599279
 20
6742.652227668883
 30
0.0
 11
7810.694266164654
 21
6742.652227668883
 31
0.0
  0
LINE
  5
69
330
17
100
AcDbEntity
  8
Hachura
 62
7
370
25
100
AcDbLine
 10
7811.597157599279
 20
6742.345685977534
 30
0.0
 11
7813.596316788737
 21
6742.345685977534
 31
0.0
  0
LINE
  5
6A
330
17
100
AcDbEntity
  8
Hachura
 62
7
370
25
100
AcDbLine
 10
7813.596316788737
 20
6742.8616239585535
 30
0.0
 11
7811.597157599279
 21
6742.8616239585535
 31
0.0
  0
LINE
  5
6B
330
17
100
AcDbEntity
  8
Hachura
 62
7
370
25
100
AcDbLine
 10
7811.615432156346
 20
6739.617991407512
 30
0.0
 11
7810.6882094812645
 21
6739.617991407512
 31
0.0
  0
LINE
  5
6C
330
17
100
AcDbEntity
  8
Hachura
 62
7
370
25
100
AcDbLine
 10
7810.844312042577
 20
6741.698252398496
 30
0.0
 11
7811.277379848297
 21
6741.698252398496
 31
0.0
  0
LINE
  5
6D
330
17
100
AcDbEntity
  8
Hachura
 62
7
370
25
100
AcDbLine
 10
7811.597157599279
 20
6740.723100666742
 30
0.0
 11
7814.176847418615
 21
6740.723100666742
 31
0.0
  0
LINE
  5
6E
330
17
100
AcDbEntity
  8
Hachura
 62
7
370
25
100
AcDbLine
 10
7811.277379848297
 20
6741.698252398496
 30
0.0
 11
7811.489234497411
 21
6741.698252398496
 31
0.0
  0
LINE
  5
6F
330
17
100
AcDbEntity
  8
Hachura
 62
7
370
25
100
AcDbLine
 10
7810.694266164654
 20
6736.212185247298
 30
0.0
 11
7815.83093474674
 21
6736.212185247298
 31
0.0
  0
LINE
  5
70
330
17
100
AcDbEntity
  8
Hachura
 62
7
370
25
100
AcDbLine
 10
7815.853645803327
 20
6737.885441856898
 30
0.0
 11
7813.643337485473
 21
6738.467101930953
 31
0.0
  0
LINE
  5
71
330
17
100
AcDbEntity
  8
Hachura
 62
7
370
25
100
AcDbLine
 10
7815.853645803327
 20
6736.208643482905
 30
0.0
 11
7815.853645803327
 21
6737.885441856898
 31
0.0
  0
LINE
  5
72
330
17
100
AcDbEntity
  8
Hachura
 62
7
370
25
100
AcDbLine
 10
7813.4029404792445
 20
6738.778945969326
 30
0.0
 11
7813.4029404792445
 21
6740.723100666742
 31
0.0
  0
LINE
  5
73
330
17
100
AcDbEntity
  8
Hachura
 62
7
370
25
100
AcDbLine
 10
7811.597157599279
 20
6736.208643482905
 30
0.0
 11
7811.597157599279
 21
6741.368023121576
 31
0.0
  0
LINE
  5
74
330
17
100
AcDbEntity
  8
Hachura
 62
7
370
25
100
AcDbLine
 10
7815.853645803327
 20
6747.430294162713
 30
0.0
 11
7813.643337485473
 21
6746.848634088658
 31
0.0
  0
LINE
  5
75
330
17
100
AcDbEntity
  8
Hachura
 62
7
370
25
100
AcDbLine
 10
7814.176847418615
 20
6744.334666405237
 30
0.0
 11
7817.401459692784
 21
6744.334666405237
 31
0.0
  0
LINE
  5
76
330
17
100
AcDbEntity
  8
Hachura
 62
7
370
25
100
AcDbLine
 10
7817.401459692784
 20
6743.56075943371
 30
0.0
 11
7814.176847418615
 21
6743.56075943371
 31
0.0
  0
LINE
  5
77
330
17
100
AcDbEntity
  8
Hachura
 62
7
370
25
100
AcDbLine
 10
7811.615432156346
 20
6745.684006001722
 30
0.0
 11
7810.694266164654
 21
6745.684006001722
 31
0.0
  0
LINE
  5
78
330
17
100
AcDbEntity
  8
Hachura
 62
7
370
25
100
AcDbLine
 10
7811.4708565804585
 20
6743.633019762999
 30
0.0
 11
7811.03778878546
 21
6743.633019762999
 31
0.0
  0
LINE
  5
79
330
17
100
AcDbEntity
  8
Hachura
 62
7
370
25
100
AcDbLine
 10
7811.615432156346
 20
6747.116259606587
 30
0.0
 11
7810.6882094812645
 21
6747.116259606587
 31
0.0
  0
LINE
  5
7A
330
17
100
AcDbEntity
  8
Hachura
 62
7
370
25
100
AcDbLine
 10
7814.176847418615
 20
6744.592635395747
 30
0.0
 11
7811.597157599279
 21
6744.592635395747
 31
0.0
  0
LINE
  5
7B
330
17
100
AcDbEntity
  8
Hachura
 62
7
370
25
100
AcDbLine
 10
7814.176847418615
 20
6744.592635395747
 30
0.0
 11
7814.176847418615
 21
6744.334666405237
 31
0.0
  0
LINE
  5
7C
330
17
100
AcDbEntity
  8
Hachura
 62
7
370
25
100
AcDbLine
 10
7814.176847418615
 20
6744.592635395747
 30
0.0
 11
7814.176847418615
 21
6744.334666405237
 31
0.0
  0
LINE
  5
7D
330
17
100
AcDbEntity
  8
Hachura
 62
7
370
25
100
AcDbLine
 10
7813.4029404792445
 20
6746.536790050282
 30
0.0
 11
7813.4029404792445
 21
6744.588753472068
 31
0.0
  0
LINE
  5
7E
330
17
100
AcDbEntity
  8
Hachura
 62
7
370
25
100
AcDbLine
 10
7811.597157599279
 20
6749.107092579584
 30
0.0
 11
7815.853645803327
 21
6749.107092579584
 31
0.0
  0
LINE
  5
7F
330
17
100
AcDbEntity
  8
Hachura
 62
7
370
25
100
AcDbLine
 10
7811.597157599279
 20
6749.107092579584
 30
0.0
 11
7810.694266164654
 21
6749.107092579584
 31
0.0
  0
LINE
  5
80
330
17
100
AcDbEntity
  8
Hachura
 62
7
370
25
100
AcDbLine
 10
7811.615432156346
 20
6747.958761522789
 30
0.0
 11
7810.6882094812645
 21
6747.958761522789
 31
0.0
  0
LINE
  5
81
330
17
100
AcDbEntity
  8
Hachura
 62
7
370
25
100
AcDbLine
 10
7811.615432156346
 20
6748.422137754648
 30
0.0
 11
7810.6882094812645
 21
6748.422137754648
 31
0.0
  0
LINE
  5
82
330
17
100
AcDbEntity
  8
Hachura
 62
7
370
25
100
AcDbLine
 10
7811.615432156346
 20
6748.759138486826
 30
0.0
 11
7810.6882094812645
 21
6748.759138486826
 31
0.0
  0
LINE
  5
83
330
17
100
AcDbEntity
  8
Hachura
 62
7
370
25
100
AcDbLine
 10
7811.615432156346
 20
6748.969764233871
 30
0.0
 11
7810.6882094812645
 21
6748.969764233871
 31
0.0
  0
LINE
  5
84
330
17
100
AcDbEntity
  8
Hachura
 62
7
370
25
100
AcDbLine
 10
7815.853645803327
 20
6749.107092579584
 30
0.0
 11
7815.853645803327
 21
6747.430294162713
 31
0.0
  0
LINE
  5
85
330
17
100
AcDbEntity
  8
Hachura
 62
7
370
25
100
AcDbLine
 10
7817.401459692784
 20
6742.786852486199
 30
0.0
 11
7818.03493297561
 21
6741.5199059332335
 31
0.0
  0
LINE
  5
86
330
17
100
AcDbEntity
  8
Hachura
 62
7
370
25
100
AcDbLine
 10
7817.401459692784
 20
6742.52888350838
 30
0.0
 11
7817.852905414169
 21
6741.625992065609
 31
0.0
  0
LINE
  5
87
330
17
100
AcDbEntity
  8
Hachura
 62
7
370
25
100
AcDbLine
 10
7817.401459692784
 20
6741.625992065608
 30
0.0
 11
7817.852905414169
 21
6741.625992065608
 31
0.0
  0
LINE
  5
88
330
17
100
AcDbEntity
  8
Hachura
 62
7
370
25
100
AcDbLine
 10
7811.615432156346
 20
6738.203018220295
 30
0.0
 11
7810.6882094812645
 21
6738.203018220295
 31
0.0
  0
LINE
  5
89
330
17
100
AcDbEntity
  8
Hachura
 62
7
370
25
100
AcDbLine
 10
7811.615432156346
 20
6737.360516304093
 30
0.0
 11
7810.6882094812645
 21
6737.360516304093
 31
0.0
  0
LINE
  5
8A
330
17
100
AcDbEntity
  8
Hachura
 62
7
370
25
100
AcDbLine
 10
7811.615432156346
 20
6736.897140072234
 30
0.0
 11
7810.6882094812645
 21
6736.897140072234
 31
0.0
  0
LINE
  5
8B
330
17
100
AcDbEntity
  8
Hachura
 62
7
370
25
100
AcDbLine
 10
7811.615432156346
 20
6736.560139340057
 30
0.0
 11
7810.6882094812645
 21
6736.560139340057
 31
0.0
  0
LINE
  5
8C
330
17
100
AcDbEntity
  8
Hachura
 62
7
370
25
100
AcDbLine
 10
7811.615432156346
 20
6736.349513593012
 30
0.0
 11
7810.6882094812645
 21
6736.349513593012
 31
0.0
  0
LINE
  5
8D
330
17
100
AcDbEntity
  8
Hachura
 62
7
370
25
100
AcDbLine
 10
7686.6979681926105
 20
6741.626614333345
 30
0.0
 11
7686.053045737776
 21
6741.626614333345
 31
0.0
  0
LINE
  5
8E
330
17
100
AcDbEntity
  8
Hachura
 62
7
370
25
100
AcDbLine
 10
7685.537107778196
 20
6741.626614333345
 30
0.0
 11
7686.50449146045
 21
6743.5613816978475
 31
0.0
  0
LINE
  5
8F
330
17
100
AcDbEntity
  8
Hachura
 62
7
370
25
100
AcDbLine
 10
7685.629750618748
 20
6741.553931002499
 30
0.0
 11
7686.712556954649
 21
6743.719543760057
 31
0.0
  0
LINE
  5
90
330
17
100
AcDbEntity
  8
Hachura
 62
7
370
25
100
AcDbLine
 10
7686.941307032106
 20
6743.661105869634
 30
0.0
 11
7685.8710181763345
 21
6741.520528200969
 31
0.0
  0
LINE
  5
91
330
17
100
AcDbEntity
  8
Hachura
 62
7
370
25
100
AcDbLine
 10
7687.020429420025
 20
6743.5613816978475
 30
0.0
 11
7686.053045737776
 21
6741.626614333345
 31
0.0
  0
LINE
  5
92
330
17
100
AcDbEntity
  8
Hachura
 62
7
370
25
100
AcDbLine
 10
7687.665351874859
 20
6743.5613816978475
 30
0.0
 11
7687.020429420025
 21
6743.5613816978475
 31
0.0
  0
LINE
  5
93
330
17
100
AcDbEntity
  8
Hachura
 62
7
370
25
100
AcDbLine
 10
7689.342150259572
 20
6743.5613816978475
 30
0.0
 11
7689.987072714406
 21
6743.5613816978475
 31
0.0
  0
LINE
  5
94
330
17
100
AcDbEntity
  8
Hachura
 62
7
370
25
100
AcDbLine
 10
7688.393144494277
 20
6743.5613816978475
 30
0.0
 11
7688.181289845162
 21
6743.5613816978475
 31
0.0
  0
LINE
  5
95
330
17
100
AcDbEntity
  8
Hachura
 62
7
370
25
100
AcDbLine
 10
7688.393144494277
 20
6743.5613816978475
 30
0.0
 11
7688.826212299991
 21
6743.5613816978475
 31
0.0
  0
LINE
  5
96
330
17
100
AcDbEntity
  8
Hachura
 62
7
370
25
100
AcDbLine
 10
7687.858828617742
 20
6741.626614333345
 30
0.0
 11
7687.213906162908
 21
6741.626614333345
 31
0.0
  0
LINE
  5
97
330
17
100
AcDbEntity
  8
Hachura
 62
7
370
25
100
AcDbLine
 10
7689.019689032157
 20
6741.626614333345
 30
0.0
 11
7688.374766577323
 21
6741.626614333345
 31
0.0
  0
LINE
  5
98
330
17
100
AcDbEntity
  8
Hachura
 62
7
370
25
100
AcDbLine
 10
7686.6979681926105
 20
6741.626614333345
 30
0.0
 11
7687.665351874859
 21
6743.5613816978475
 31
0.0
  0
LINE
  5
99
330
17
100
AcDbEntity
  8
Hachura
 62
7
370
25
100
AcDbLine
 10
7686.79061104388
 20
6741.553931002499
 30
0.0
 11
7687.87341737978
 21
6743.719543760057
 31
0.0
  0
LINE
  5
9A
330
17
100
AcDbEntity
  8
Hachura
 62
7
370
25
100
AcDbLine
 10
7688.102167446516
 20
6743.661105869634
 30
0.0
 11
7687.031878601467
 21
6741.520528200969
 31
0.0
  0
LINE
  5
9B
330
17
100
AcDbEntity
  8
Hachura
 62
7
370
25
100
AcDbLine
 10
7688.181289845162
 20
6743.5613816978475
 30
0.0
 11
7687.213906162908
 21
6741.626614333345
 31
0.0
  0
LINE
  5
9C
330
17
100
AcDbEntity
  8
Hachura
 62
7
370
25
100
AcDbLine
 10
7689.019689032157
 20
6741.626614333345
 30
0.0
 11
7689.987072714406
 21
6743.5613816978475
 31
0.0
  0
LINE
  5
9D
330
17
100
AcDbEntity
  8
Hachura
 62
7
370
25
100
AcDbLine
 10
7687.858828617742
 20
6741.626614333345
 30
0.0
 11
7688.826212299991
 21
6743.5613816978475
 31
0.0
  0
LINE
  5
9E
330
17
100
AcDbEntity
  8
Hachura
 62
7
370
25
100
AcDbLine
 10
7687.951471458295
 20
6741.553931002499
 30
0.0
 11
7689.034277794195
 21
6743.719543760057
 31
0.0
  0
LINE
  5
9F
330
17
100
AcDbEntity
  8
Hachura
 62
7
370
25
100
AcDbLine
 10
7689.26302786093
 20
6743.661105869634
 30
0.0
 11
7688.192739015881
 21
6741.520528200969
 31
0.0
  0
LINE
  5
A0
330
17
100
AcDbEntity
  8
Hachura
 62
7
370
25
100
AcDbLine
 10
7689.342150259572
 20
6743.5613816978475
 30
0.0
 11
7688.374766577323
 21
6741.626614333345
 31
0.0
  0
LINE
  5
A1
330
17
100
AcDbEntity
  8
Hachura
 62
7
370
25
100
AcDbLine
 10
7685.214750189377
 20
6743.303620027413
 30
0.0
 11
7685.343631046035
 21
6743.5613816978475
 31
0.0
  0
LINE
  5
A2
330
17
100
AcDbEntity
  8
Hachura
 62
7
370
25
100
AcDbLine
 10
7685.214750189377
 20
6743.045651036903
 30
0.0
 11
7685.551696550956
 21
6743.719543760057
 31
0.0
  0
LINE
  5
A3
330
17
100
AcDbEntity
  8
Hachura
 62
7
370
25
100
AcDbLine
 10
7685.343631046035
 20
6743.5613816978475
 30
0.0
 11
7685.214750189377
 21
6743.5613816978475
 31
0.0
  0
LINE
  5
A4
330
17
100
AcDbEntity
  8
Hachura
 62
7
370
25
100
AcDbLine
 10
7685.21636028596
 20
6743.559589912127
 30
0.0
 11
7684.893899037102
 21
6743.23712868471
 31
0.0
  0
LINE
  5
A5
330
17
100
AcDbEntity
  8
Hachura
 62
7
370
25
100
AcDbLine
 10
7685.859569005615
 20
6743.5613816978475
 30
0.0
 11
7686.50449146045
 21
6743.5613816978475
 31
0.0
  0
LINE
  5
A6
330
17
100
AcDbEntity
  8
Hachura
 62
7
370
25
100
AcDbLine
 10
7685.537107778196
 20
6741.626614333345
 30
0.0
 11
7685.214750189377
 21
6741.626614333345
 31
0.0
  0
LINE
  5
A7
330
17
100
AcDbEntity
  8
Hachura
 62
7
370
25
100
AcDbLine
 10
7685.216360264521
 20
6741.624737046854
 30
0.0
 11
7685.216437682595
 21
6741.624737046854
 31
0.0
  0
LINE
  5
A8
330
17
100
AcDbEntity
  8
Hachura
 62
7
370
25
100
AcDbLine
 10
7685.216360264521
 20
6741.624737046854
 30
0.0
 11
7684.893899037102
 21
6741.947283775042
 31
0.0
  0
LINE
  5
A9
330
17
100
AcDbEntity
  8
Hachura
 62
7
370
25
100
AcDbLine
 10
7687.425760822745
 20
6741.626614333345
 30
0.0
 11
7687.21390617363
 21
6741.626614333345
 31
0.0
  0
LINE
  5
AA
330
17
100
AcDbEntity
  8
Hachura
 62
7
370
25
100
AcDbLine
 10
7685.780446617691
 20
6743.661105869634
 30
0.0
 11
7685.214750189377
 21
6742.529713055886
 31
0.0
  0
LINE
  5
AB
330
17
100
AcDbEntity
  8
Hachura
 62
7
370
25
100
AcDbLine
 10
7685.859569005615
 20
6743.5613816978475
 30
0.0
 11
7685.214750189377
 21
6742.271744108255
 31
0.0
  0
LINE
  5
AC
330
17
100
AcDbEntity
  8
Hachura
 62
7
370
25
100
AcDbLine
 10
7684.893899037102
 20
6741.947283775042
 30
0.0
 11
7684.893899037102
 21
6743.23712868471
 31
0.0
  0
LINE
  5
AD
330
17
100
AcDbEntity
  8
Hachura
 62
7
370
25
100
AcDbLine
 10
7685.537107778196
 20
6741.626614333345
 30
0.0
 11
7686.50449146045
 21
6743.5613816978475
 31
0.0
  0
LINE
  5
AE
330
17
100
AcDbEntity
  8
Hachura
 62
7
370
25
100
AcDbLine
 10
7685.21636028596
 20
6743.559589912127
 30
0.0
 11
7685.21636028596
 21
6741.624822547625
 31
0.0
  0
LINE
  5
AF
330
17
100
AcDbEntity
  8
Hachura
 62
7
370
25
100
AcDbLine
 10
7696.694266242535
 20
6748.154945189972
 30
0.0
 11
7696.694266242535
 21
6740.340283445341
 31
0.0
  0
LINE
  5
B0
330
17
100
AcDbEntity
  8
Hachura
 62
7
370
25
100
AcDbLine
 10
7689.987072714406
 20
6744.335288669375
 30
0.0
 11
7689.987072714406
 21
6740.981691878511
 31
0.0
  0
LINE
  5
B1
330
17
100
AcDbEntity
  8
Hachura
 62
7
370
25
100
AcDbLine
 10
7690.054789571735
 20
6744.335288669375
 30
0.0
 11
7690.054789571735
 21
6740.981691878511
 31
0.0
  0
LINE
  5
B2
330
17
100
AcDbEntity
  8
Hachura
 62
7
370
25
100
AcDbLine
 10
7693.211684988575
 20
6740.723722930879
 30
0.0
 11
7693.211684988575
 21
6744.593257659884
 31
0.0
  0
LINE
  5
B3
330
17
100
AcDbEntity
  8
Hachura
 62
7
370
25
100
AcDbLine
 10
7695.791374807911
 20
6736.209265747043
 30
0.0
 11
7695.791374807911
 21
6749.107714843722
 31
0.0
  0
LINE
  5
B4
330
17
100
AcDbEntity
  8
Hachura
 62
7
370
25
100
AcDbLine
 10
7696.694266242535
 20
6749.107714843722
 30
0.0
 11
7696.694266242535
 21
6736.212807511436
 31
0.0
  0
LINE
  5
B5
330
17
100
AcDbEntity
  8
Hachura
 62
7
370
25
100
AcDbLine
 10
7689.987072714406
 20
6742.013567840548
 30
0.0
 11
7693.211684988575
 21
6742.013567840548
 31
0.0
  0
LINE
  5
B6
330
17
100
AcDbEntity
  8
Hachura
 62
7
370
25
100
AcDbLine
 10
7689.987072714406
 20
6740.981691878511
 30
0.0
 11
7693.211684988575
 21
6740.981691878511
 31
0.0
  0
LINE
  5
B7
330
17
100
AcDbEntity
  8
Hachura
 62
7
370
25
100
AcDbLine
 10
7695.791374807911
 20
6742.658490295382
 30
0.0
 11
7695.791374807911
 21
6740.723722930879
 31
0.0
  0
LINE
  5
B8
330
17
100
AcDbEntity
  8
Hachura
 62
7
370
25
100
AcDbLine
 10
7695.791374807911
 20
6741.3686453857135
 30
0.0
 11
7695.791374807911
 21
6742.013567840548
 31
0.0
  0
LINE
  5
B9
330
17
100
AcDbEntity
  8
Hachura
 62
7
370
25
100
AcDbLine
 10
7695.791374807911
 20
6742.652849933021
 30
0.0
 11
7696.694266242535
 21
6742.652849933021
 31
0.0
  0
LINE
  5
BA
330
17
100
AcDbEntity
  8
Hachura
 62
7
370
25
100
AcDbLine
 10
7695.791374807911
 20
6742.346308241672
 30
0.0
 11
7693.792215618453
 21
6742.346308241672
 31
0.0
  0
LINE
  5
BB
330
17
100
AcDbEntity
  8
Hachura
 62
7
370
25
100
AcDbLine
 10
7693.792215618453
 20
6742.862246222691
 30
0.0
 11
7695.791374807911
 21
6742.862246222691
 31
0.0
  0
LINE
  5
BC
330
17
100
AcDbEntity
  8
Hachura
 62
7
370
25
100
AcDbLine
 10
7695.7731002508435
 20
6739.61861367165
 30
0.0
 11
7696.700322925925
 21
6739.61861367165
 31
0.0
  0
LINE
  5
BD
330
17
100
AcDbEntity
  8
Hachura
 62
7
370
25
100
AcDbLine
 10
7696.544220364613
 20
6741.698874662634
 30
0.0
 11
7696.111152558893
 21
6741.698874662634
 31
0.0
  0
LINE
  5
BE
330
17
100
AcDbEntity
  8
Hachura
 62
7
370
25
100
AcDbLine
 10
7695.791374807911
 20
6740.723722930879
 30
0.0
 11
7693.211684988575
 21
6740.723722930879
 31
0.0
  0
LINE
  5
BF
330
17
100
AcDbEntity
  8
Hachura
 62
7
370
25
100
AcDbLine
 10
7696.111152558893
 20
6741.698874662634
 30
0.0
 11
7695.899297909778
 21
6741.698874662634
 31
0.0
  0
LINE
  5
C0
330
17
100
AcDbEntity
  8
Hachura
 62
7
370
25
100
AcDbLine
 10
7696.694266242535
 20
6736.212807511436
 30
0.0
 11
7691.55759766045
 21
6736.212807511436
 31
0.0
  0
LINE
  5
C1
330
17
100
AcDbEntity
  8
Hachura
 62
7
370
25
100
AcDbLine
 10
7691.534886603863
 20
6737.886064121036
 30
0.0
 11
7693.745194921717
 21
6738.46772419509
 31
0.0
  0
LINE
  5
C2
330
17
100
AcDbEntity
  8
Hachura
 62
7
370
25
100
AcDbLine
 10
7691.534886603863
 20
6736.209265747043
 30
0.0
 11
7691.534886603863
 21
6737.886064121036
 31
0.0
  0
LINE
  5
C3
330
17
100
AcDbEntity
  8
Hachura
 62
7
370
25
100
AcDbLine
 10
7693.985591927945
 20
6738.779568233464
 30
0.0
 11
7693.985591927945
 21
6740.723722930879
 31
0.0
  0
LINE
  5
C4
330
17
100
AcDbEntity
  8
Hachura
 62
7
370
25
100
AcDbLine
 10
7695.791374807911
 20
6736.209265747043
 30
0.0
 11
7695.791374807911
 21
6741.3686453857135
 31
0.0
  0
LINE
  5
C5
330
17
100
AcDbEntity
  8
Hachura
 62
7
370
25
100
AcDbLine
 10
7691.534886603863
 20
6747.430916426851
 30
0.0
 11
7693.745194921717
 21
6746.849256352796
 31
0.0
  0
LINE
  5
C6
330
17
100
AcDbEntity
  8
Hachura
 62
7
370
25
100
AcDbLine
 10
7693.211684988575
 20
6744.335288669375
 30
0.0
 11
7689.987072714406
 21
6744.335288669375
 31
0.0
  0
LINE
  5
C7
330
17
100
AcDbEntity
  8
Hachura
 62
7
370
25
100
AcDbLine
 10
7689.987072714406
 20
6743.5613816978475
 30
0.0
 11
7693.211684988575
 21
6743.5613816978475
 31
0.0
  0
LINE
  5
C8
330
17
100
AcDbEntity
  8
Hachura
 62
7
370
25
100
AcDbLine
 10
7695.7731002508435
 20
6745.68462826586
 30
0.0
 11
7696.694266242535
 21
6745.68462826586
 31
0.0
  0
LINE
  5
C9
330
17
100
AcDbEntity
  8
Hachura
 62
7
370
25
100
AcDbLine
 10
7695.917675826731
 20
6743.633642027136
 30
0.0
 11
7696.35074362173
 21
6743.633642027136
 31
0.0
  0
LINE
  5
CA
330
17
100
AcDbEntity
  8
Hachura
 62
7
370
25
100
AcDbLine
 10
7695.7731002508435
 20
6747.116881870725
 30
0.0
 11
7696.700322925925
 21
6747.116881870725
 31
0.0
  0
LINE
  5
CB
330
17
100
AcDbEntity
  8
Hachura
 62
7
370
25
100
AcDbLine
 10
7693.211684988575
 20
6744.593257659884
 30
0.0
 11
7695.791374807911
 21
6744.593257659884
 31
0.0
  0
LINE
  5
CC
330
17
100
AcDbEntity
  8
Hachura
 62
7
370
25
100
AcDbLine
 10
7693.211684988575
 20
6744.593257659884
 30
0.0
 11
7693.211684988575
 21
6744.335288669375
 31
0.0
  0
LINE
  5
CD
330
17
100
AcDbEntity
  8
Hachura
 62
7
370
25
100
AcDbLine
 10
7693.211684988575
 20
6744.593257659884
 30
0.0
 11
7693.211684988575
 21
6744.335288669375
 31
0.0
  0
LINE
  5
CE
330
17
100
AcDbEntity
  8
Hachura
 62
7
370
25
100
AcDbLine
 10
7693.985591927945
 20
6746.53741231442
 30
0.0
 11
7693.985591927945
 21
6744.5893757362055
 31
0.0
  0
LINE
  5
CF
330
17
100
AcDbEntity
  8
Hachura
 62
7
370
25
100
AcDbLine
 10
7695.791374807911
 20
6749.107714843722
 30
0.0
 11
7691.534886603863
 21
6749.107714843722
 31
0.0
  0
LINE
  5
D0
330
17
100
AcDbEntity
  8
Hachura
 62
7
370
25
100
AcDbLine
 10
7695.791374807911
 20
6749.107714843722
 30
0.0
 11
7696.694266242535
 21
6749.107714843722
 31
0.0
  0
LINE
  5
D1
330
17
100
AcDbEntity
  8
Hachura
 62
7
370
25
100
AcDbLine
 10
7695.7731002508435
 20
6747.959383786927
 30
0.0
 11
7696.700322925925
 21
6747.959383786927
 31
0.0
  0
LINE
  5
D2
330
17
100
AcDbEntity
  8
Hachura
 62
7
370
25
100
AcDbLine
 10
7695.7731002508435
 20
6748.422760018786
 30
0.0
 11
7696.700322925925
 21
6748.422760018786
 31
0.0
  0
LINE
  5
D3
330
17
100
AcDbEntity
  8
Hachura
 62
7
370
25
100
AcDbLine
 10
7695.7731002508435
 20
6748.759760750963
 30
0.0
 11
7696.700322925925
 21
6748.759760750963
 31
0.0
  0
LINE
  5
D4
330
17
100
AcDbEntity
  8
Hachura
 62
7
370
25
100
AcDbLine
 10
7695.7731002508435
 20
6748.970386498008
 30
0.0
 11
7696.700322925925
 21
6748.970386498008
 31
0.0
  0
LINE
  5
D5
330
17
100
AcDbEntity
  8
Hachura
 62
7
370
25
100
AcDbLine
 10
7691.534886603863
 20
6749.107714843722
 30
0.0
 11
7691.534886603863
 21
6747.430916426851
 31
0.0
  0
LINE
  5
D6
330
17
100
AcDbEntity
  8
Hachura
 62
7
370
25
100
AcDbLine
 10
7689.987072714406
 20
6742.7874747503365
 30
0.0
 11
7689.35359943158
 21
6741.520528197371
 31
0.0
  0
LINE
  5
D7
330
17
100
AcDbEntity
  8
Hachura
 62
7
370
25
100
AcDbLine
 10
7689.987072714406
 20
6742.529505772518
 30
0.0
 11
7689.535626993021
 21
6741.626614329747
 31
0.0
  0
LINE
  5
D8
330
17
100
AcDbEntity
  8
Hachura
 62
7
370
25
100
AcDbLine
 10
7689.987072714406
 20
6741.626614329746
 30
0.0
 11
7689.535626993021
 21
6741.626614329746
 31
0.0
  0
LINE
  5
D9
330
17
100
AcDbEntity
  8
Hachura
 62
7
370
25
100
AcDbLine
 10
7695.7731002508435
 20
6738.203640484433
 30
0.0
 11
7696.700322925925
 21
6738.203640484433
 31
0.0
  0
LINE
  5
DA
330
17
100
AcDbEntity
  8
Hachura
 62
7
370
25
100
AcDbLine
 10
7695.7731002508435
 20
6737.361138568231
 30
0.0
 11
7696.700322925925
 21
6737.361138568231
 31
0.0
  0
LINE
  5
DB
330
17
100
AcDbEntity
  8
Hachura
 62
7
370
25
100
AcDbLine
 10
7695.7731002508435
 20
6736.897762336372
 30
0.0
 11
7696.700322925925
 21
6736.897762336372
 31
0.0
  0
LINE
  5
DC
330
17
100
AcDbEntity
  8
Hachura
 62
7
370
25
100
AcDbLine
 10
7695.7731002508435
 20
6736.560761604194
 30
0.0
 11
7696.700322925925
 21
6736.560761604194
 31
0.0
  0
LINE
  5
DD
330
17
100
AcDbEntity
  8
Hachura
 62
7
370
25
100
AcDbLine
 10
7695.7731002508435
 20
6736.350135857149
 30
0.0
 11
7696.700322925925
 21
6736.350135857149
 31
0.0
  0
LINE
  5
DE
330
17
100
AcDbEntity
  8
Hachura
 62
7
370
25
100
AcDbLine
 10
7821.494633370058
 20
6742.659378496731
 30
0.0
 11
7689.694266242536
 21
6742.650837285856
 31
0.0
  0
LINE
  5
DF
330
17
100
AcDbEntity
  8
Hachura
 62
7
370
25
100
AcDbLine
 10
7820.690564214579
 20
6991.693897708812
 30
0.0
 11
7821.3354866694135
 21
6991.693897708812
 31
0.0
  0
LINE
  5
E0
330
17
100
AcDbEntity
  8
Hachura
 62
7
370
25
100
AcDbLine
 10
7821.851424628994
 20
6991.693897708812
 30
0.0
 11
7820.88404094674
 21
6989.75913034431
 31
0.0
  0
LINE
  5
E1
330
17
100
AcDbEntity
  8
Hachura
 62
7
370
25
100
AcDbLine
 10
7821.758781788441
 20
6991.766581039658
 30
0.0
 11
7820.675975452541
 21
6989.6009682821
 31
0.0
  0
LINE
  5
E2
330
17
100
AcDbEntity
  8
Hachura
 62
7
370
25
100
AcDbLine
 10
7820.447225375084
 20
6989.659406172523
 30
0.0
 11
7821.517514230855
 21
6991.799983841188
 31
0.0
  0
LINE
  5
E3
330
17
100
AcDbEntity
  8
Hachura
 62
7
370
25
100
AcDbLine
 10
7820.368102987165
 20
6989.75913034431
 30
0.0
 11
7821.3354866694135
 21
6991.693897708812
 31
0.0
  0
LINE
  5
E4
330
17
100
AcDbEntity
  8
Hachura
 62
7
370
25
100
AcDbLine
 10
7819.723180532331
 20
6989.75913034431
 30
0.0
 11
7820.368102987165
 21
6989.75913034431
 31
0.0
  0
LINE
  5
E5
330
17
100
AcDbEntity
  8
Hachura
 62
7
370
25
100
AcDbLine
 10
7818.046382147618
 20
6989.75913034431
 30
0.0
 11
7817.401459692784
 21
6989.75913034431
 31
0.0
  0
LINE
  5
E6
330
17
100
AcDbEntity
  8
Hachura
 62
7
370
25
100
AcDbLine
 10
7818.9953879129125
 20
6989.75913034431
 30
0.0
 11
7819.207242562028
 21
6989.75913034431
 31
0.0
  0
LINE
  5
E7
330
17
100
AcDbEntity
  8
Hachura
 62
7
370
25
100
AcDbLine
 10
7818.9953879129125
 20
6989.75913034431
 30
0.0
 11
7818.5623201071985
 21
6989.75913034431
 31
0.0
  0
LINE
  5
E8
330
17
100
AcDbEntity
  8
Hachura
 62
7
370
25
100
AcDbLine
 10
7819.529703789448
 20
6991.693897708812
 30
0.0
 11
7820.174626244282
 21
6991.693897708812
 31
0.0
  0
LINE
  5
E9
330
17
100
AcDbEntity
  8
Hachura
 62
7
370
25
100
AcDbLine
 10
7818.368843375033
 20
6991.693897708812
 30
0.0
 11
7819.013765829867
 21
6991.693897708812
 31
0.0
  0
LINE
  5
EA
330
17
100
AcDbEntity
  8
Hachura
 62
7
370
25
100
AcDbLine
 10
7820.690564214579
 20
6991.693897708812
 30
0.0
 11
7819.723180532331
 21
6989.75913034431
 31
0.0
  0
LINE
  5
EB
330
17
100
AcDbEntity
  8
Hachura
 62
7
370
25
100
AcDbLine
 10
7820.59792136331
 20
6991.766581039658
 30
0.0
 11
7819.51511502741
 21
6989.6009682821
 31
0.0
  0
LINE
  5
EC
330
17
100
AcDbEntity
  8
Hachura
 62
7
370
25
100
AcDbLine
 10
7819.286364960673
 20
6989.659406172523
 30
0.0
 11
7820.356653805723
 21
6991.799983841188
 31
0.0
  0
LINE
  5
ED
330
17
100
AcDbEntity
  8
Hachura
 62
7
370
25
100
AcDbLine
 10
7819.207242562028
 20
6989.75913034431
 30
0.0
 11
7820.174626244282
 21
6991.693897708812
 31
0.0
  0
LINE
  5
EE
330
17
100
AcDbEntity
  8
Hachura
 62
7
370
25
100
AcDbLine
 10
7818.368843375033
 20
6991.693897708812
 30
0.0
 11
7817.401459692784
 21
6989.75913034431
 31
0.0
  0
LINE
  5
EF
330
17
100
AcDbEntity
  8
Hachura
 62
7
370
25
100
AcDbLine
 10
7819.529703789448
 20
6991.693897708812
 30
0.0
 11
7818.5623201071985
 21
6989.75913034431
 31
0.0
  0
LINE
  5
F0
330
17
100
AcDbEntity
  8
Hachura
 62
7
370
25
100
AcDbLine
 10
7819.437060948895
 20
6991.766581039658
 30
0.0
 11
7818.354254612995
 21
6989.6009682821
 31
0.0
  0
LINE
  5
F1
330
17
100
AcDbEntity
  8
Hachura
 62
7
370
25
100
AcDbLine
 10
7818.125504546259
 20
6989.659406172523
 30
0.0
 11
7819.195793391309
 21
6991.799983841188
 31
0.0
  0
LINE
  5
F2
330
17
100
AcDbEntity
  8
Hachura
 62
7
370
25
100
AcDbLine
 10
7818.046382147618
 20
6989.75913034431
 30
0.0
 11
7819.013765829867
 21
6991.693897708812
 31
0.0
  0
LINE
  5
F3
330
17
100
AcDbEntity
  8
Hachura
 62
7
370
25
100
AcDbLine
 10
7822.173782217813
 20
6990.016892014744
 30
0.0
 11
7822.044901361155
 21
6989.75913034431
 31
0.0
  0
LINE
  5
F4
330
17
100
AcDbEntity
  8
Hachura
 62
7
370
25
100
AcDbLine
 10
7822.173782217813
 20
6990.274861005254
 30
0.0
 11
7821.836835856234
 21
6989.6009682821
 31
0.0
  0
LINE
  5
F5
330
17
100
AcDbEntity
  8
Hachura
 62
7
370
25
100
AcDbLine
 10
7822.044901361155
 20
6989.75913034431
 30
0.0
 11
7822.173782217813
 21
6989.75913034431
 31
0.0
  0
LINE
  5
F6
330
17
100
AcDbEntity
  8
Hachura
 62
7
370
25
100
AcDbLine
 10
7822.17217212123
 20
6989.76092213003
 30
0.0
 11
7822.494633370088
 21
6990.083383357447
 31
0.0
  0
LINE
  5
F7
330
17
100
AcDbEntity
  8
Hachura
 62
7
370
25
100
AcDbLine
 10
7821.528963401574
 20
6989.75913034431
 30
0.0
 11
7820.88404094674
 21
6989.75913034431
 31
0.0
  0
LINE
  5
F8
330
17
100
AcDbEntity
  8
Hachura
 62
7
370
25
100
AcDbLine
 10
7821.851424628994
 20
6991.693897708812
 30
0.0
 11
7822.173782217813
 21
6991.693897708812
 31
0.0
  0
LINE
  5
F9
330
17
100
AcDbEntity
  8
Hachura
 62
7
370
25
100
AcDbLine
 10
7822.172172142668
 20
6991.6957749953035
 30
0.0
 11
7822.172094724595
 21
6991.6957749953035
 31
0.0
  0
LINE
  5
FA
330
17
100
AcDbEntity
  8
Hachura
 62
7
370
25
100
AcDbLine
 10
7822.172172142668
 20
6991.6957749953035
 30
0.0
 11
7822.494633370088
 21
6991.373228267115
 31
0.0
  0
LINE
  5
FB
330
17
100
AcDbEntity
  8
Hachura
 62
7
370
25
100
AcDbLine
 10
7819.962771584444
 20
6991.693897708812
 30
0.0
 11
7820.17462623356
 21
6991.693897708812
 31
0.0
  0
LINE
  5
FC
330
17
100
AcDbEntity
  8
Hachura
 62
7
370
25
100
AcDbLine
 10
7821.608085789499
 20
6989.659406172523
 30
0.0
 11
7822.173782217813
 21
6990.7907989862715
 31
0.0
  0
LINE
  5
FD
330
17
100
AcDbEntity
  8
Hachura
 62
7
370
25
100
AcDbLine
 10
7821.528963401574
 20
6989.75913034431
 30
0.0
 11
7822.173782217813
 21
6991.048767933902
 31
0.0
  0
LINE
  5
FE
330
17
100
AcDbEntity
  8
Hachura
 62
7
370
25
100
AcDbLine
 10
7822.494633370088
 20
6991.373228267115
 30
0.0
 11
7822.494633370088
 21
6990.083383357447
 31
0.0
  0
LINE
  5
FF
330
17
100
AcDbEntity
  8
Hachura
 62
7
370
25
100
AcDbLine
 10
7821.851424628994
 20
6991.693897708812
 30
0.0
 11
7820.88404094674
 21
6989.75913034431
 31
0.0
  0
LINE
  5
100
330
17
100
AcDbEntity
  8
Hachura
 62
7
370
25
100
AcDbLine
 10
7822.17217212123
 20
6989.76092213003
 30
0.0
 11
7822.17217212123
 21
6991.695689494532
 31
0.0
  0
LINE
  5
101
330
17
100
AcDbEntity
  8
Hachura
 62
7
370
25
100
AcDbLine
 10
7810.694266164654
 20
6985.165566852185
 30
0.0
 11
7810.694266164654
 21
6992.980228596816
 31
0.0
  0
LINE
  5
102
330
17
100
AcDbEntity
  8
Hachura
 62
7
370
25
100
AcDbLine
 10
7817.401459692784
 20
6988.9852233727825
 30
0.0
 11
7817.401459692784
 21
6992.338820163646
 31
0.0
  0
LINE
  5
103
330
17
100
AcDbEntity
  8
Hachura
 62
7
370
25
100
AcDbLine
 10
7817.333742835455
 20
6988.9852233727825
 30
0.0
 11
7817.333742835455
 21
6992.338820163646
 31
0.0
  0
LINE
  5
104
330
17
100
AcDbEntity
  8
Hachura
 62
7
370
25
100
AcDbLine
 10
7814.176847418615
 20
6992.596789111278
 30
0.0
 11
7814.176847418615
 21
6988.727254382273
 31
0.0
  0
LINE
  5
105
330
17
100
AcDbEntity
  8
Hachura
 62
7
370
25
100
AcDbLine
 10
7811.597157599279
 20
6997.111246295114
 30
0.0
 11
7811.597157599279
 21
6984.2127971984355
 31
0.0
  0
LINE
  5
106
330
17
100
AcDbEntity
  8
Hachura
 62
7
370
25
100
AcDbLine
 10
7810.694266164654
 20
6984.2127971984355
 30
0.0
 11
7810.694266164654
 21
6997.107704530721
 31
0.0
  0
LINE
  5
107
330
17
100
AcDbEntity
  8
Hachura
 62
7
370
25
100
AcDbLine
 10
7817.401459692784
 20
6991.306944201609
 30
0.0
 11
7814.176847418615
 21
6991.306944201609
 31
0.0
  0
LINE
  5
108
330
17
100
AcDbEntity
  8
Hachura
 62
7
370
25
100
AcDbLine
 10
7817.401459692784
 20
6992.338820163646
 30
0.0
 11
7814.176847418615
 21
6992.338820163646
 31
0.0
  0
LINE
  5
109
330
17
100
AcDbEntity
  8
Hachura
 62
7
370
25
100
AcDbLine
 10
7811.597157599279
 20
6990.662021746775
 30
0.0
 11
7811.597157599279
 21
6992.596789111278
 31
0.0
  0
LINE
  5
10A
330
17
100
AcDbEntity
  8
Hachura
 62
7
370
25
100
AcDbLine
 10
7811.597157599279
 20
6991.951866656444
 30
0.0
 11
7811.597157599279
 21
6991.306944201609
 31
0.0
  0
LINE
  5
10B
330
17
100
AcDbEntity
  8
Hachura
 62
7
370
25
100
AcDbLine
 10
7811.597157599279
 20
6990.6676621091365
 30
0.0
 11
7810.694266164654
 21
6990.6676621091365
 31
0.0
  0
LINE
  5
10C
330
17
100
AcDbEntity
  8
Hachura
 62
7
370
25
100
AcDbLine
 10
7811.597157599279
 20
6990.974203800485
 30
0.0
 11
7813.596316788737
 21
6990.974203800485
 31
0.0
  0
LINE
  5
10D
330
17
100
AcDbEntity
  8
Hachura
 62
7
370
25
100
AcDbLine
 10
7813.596316788737
 20
6990.458265819466
 30
0.0
 11
7811.597157599279
 21
6990.458265819466
 31
0.0
  0
LINE
  5
10E
330
17
100
AcDbEntity
  8
Hachura
 62
7
370
25
100
AcDbLine
 10
7811.615432156346
 20
6993.7018983705075
 30
0.0
 11
7810.6882094812645
 21
6993.7018983705075
 31
0.0
  0
LINE
  5
10F
330
17
100
AcDbEntity
  8
Hachura
 62
7
370
25
100
AcDbLine
 10
7810.844312042577
 20
6991.621637379523
 30
0.0
 11
7811.277379848297
 21
6991.621637379523
 31
0.0
  0
LINE
  5
110
330
17
100
AcDbEntity
  8
Hachura
 62
7
370
25
100
AcDbLine
 10
7811.597157599279
 20
6992.596789111278
 30
0.0
 11
7814.176847418615
 21
6992.596789111278
 31
0.0
  0
LINE
  5
111
330
17
100
AcDbEntity
  8
Hachura
 62
7
370
25
100
AcDbLine
 10
7811.277379848297
 20
6991.621637379523
 30
0.0
 11
7811.489234497411
 21
6991.621637379523
 31
0.0
  0
LINE
  5
112
330
17
100
AcDbEntity
  8
Hachura
 62
7
370
25
100
AcDbLine
 10
7810.694266164654
 20
6997.107704530721
 30
0.0
 11
7815.83093474674
 21
6997.107704530721
 31
0.0
  0
LINE
  5
113
330
17
100
AcDbEntity
  8
Hachura
 62
7
370
25
100
AcDbLine
 10
7815.853645803327
 20
6995.434447921121
 30
0.0
 11
7813.643337485473
 21
6994.852787847067
 31
0.0
  0
LINE
  5
114
330
17
100
AcDbEntity
  8
Hachura
 62
7
370
25
100
AcDbLine
 10
7815.853645803327
 20
6997.111246295114
 30
0.0
 11
7815.853645803327
 21
6995.434447921121
 31
0.0
  0
LINE
  5
115
330
17
100
AcDbEntity
  8
Hachura
 62
7
370
25
100
AcDbLine
 10
7813.4029404792445
 20
6994.540943808694
 30
0.0
 11
7813.4029404792445
 21
6992.596789111278
 31
0.0
  0
LINE
  5
116
330
17
100
AcDbEntity
  8
Hachura
 62
7
370
25
100
AcDbLine
 10
7811.597157599279
 20
6997.111246295114
 30
0.0
 11
7811.597157599279
 21
6991.951866656444
 31
0.0
  0
LINE
  5
117
330
17
100
AcDbEntity
  8
Hachura
 62
7
370
25
100
AcDbLine
 10
7815.853645803327
 20
6985.8895956153065
 30
0.0
 11
7813.643337485473
 21
6986.471255689361
 31
0.0
  0
LINE
  5
118
330
17
100
AcDbEntity
  8
Hachura
 62
7
370
25
100
AcDbLine
 10
7814.176847418615
 20
6988.9852233727825
 30
0.0
 11
7817.401459692784
 21
6988.9852233727825
 31
0.0
  0
LINE
  5
119
330
17
100
AcDbEntity
  8
Hachura
 62
7
370
25
100
AcDbLine
 10
7817.401459692784
 20
6989.75913034431
 30
0.0
 11
7814.176847418615
 21
6989.75913034431
 31
0.0
  0
LINE
  5
11A
330
17
100
AcDbEntity
  8
Hachura
 62
7
370
25
100
AcDbLine
 10
7811.615432156346
 20
6987.635883776297
 30
0.0
 11
7810.694266164654
 21
6987.635883776297
 31
0.0
  0
LINE
  5
11B
330
17
100
AcDbEntity
  8
Hachura
 62
7
370
25
100
AcDbLine
 10
7811.4708565804585
 20
6989.686870015021
 30
0.0
 11
7811.03778878546
 21
6989.686870015021
 31
0.0
  0
LINE
  5
11C
330
17
100
AcDbEntity
  8
Hachura
 62
7
370
25
100
AcDbLine
 10
7811.615432156346
 20
6986.203630171432
 30
0.0
 11
7810.6882094812645
 21
6986.203630171432
 31
0.0
  0
LINE
  5
11D
330
17
100
AcDbEntity
  8
Hachura
 62
7
370
25
100
AcDbLine
 10
7814.176847418615
 20
6988.727254382273
 30
0.0
 11
7811.597157599279
 21
6988.727254382273
 31
0.0
  0
LINE
  5
11E
330
17
100
AcDbEntity
  8
Hachura
 62
7
370
25
100
AcDbLine
 10
7814.176847418615
 20
6988.727254382273
 30
0.0
 11
7814.176847418615
 21
6988.9852233727825
 31
0.0
  0
LINE
  5
11F
330
17
100
AcDbEntity
  8
Hachura
 62
7
370
25
100
AcDbLine
 10
7814.176847418615
 20
6988.727254382273
 30
0.0
 11
7814.176847418615
 21
6988.9852233727825
 31
0.0
  0
LINE
  5
120
330
17
100
AcDbEntity
  8
Hachura
 62
7
370
25
100
AcDbLine
 10
7813.4029404792445
 20
6986.783099727737
 30
0.0
 11
7813.4029404792445
 21
6988.731136305952
 31
0.0
  0
LINE
  5
121
330
17
100
AcDbEntity
  8
Hachura
 62
7
370
25
100
AcDbLine
 10
7811.597157599279
 20
6984.2127971984355
 30
0.0
 11
7815.853645803327
 21
6984.2127971984355
 31
0.0
  0
LINE
  5
122
330
17
100
AcDbEntity
  8
Hachura
 62
7
370
25
100
AcDbLine
 10
7811.597157599279
 20
6984.2127971984355
 30
0.0
 11
7810.694266164654
 21
6984.2127971984355
 31
0.0
  0
LINE
  5
123
330
17
100
AcDbEntity
  8
Hachura
 62
7
370
25
100
AcDbLine
 10
7811.615432156346
 20
6985.36112825523
 30
0.0
 11
7810.6882094812645
 21
6985.36112825523
 31
0.0
  0
LINE
  5
124
330
17
100
AcDbEntity
  8
Hachura
 62
7
370
25
100
AcDbLine
 10
7811.615432156346
 20
6984.897752023371
 30
0.0
 11
7810.6882094812645
 21
6984.897752023371
 31
0.0
  0
LINE
  5
125
330
17
100
AcDbEntity
  8
Hachura
 62
7
370
25
100
AcDbLine
 10
7811.615432156346
 20
6984.560751291194
 30
0.0
 11
7810.6882094812645
 21
6984.560751291194
 31
0.0
  0
LINE
  5
126
330
17
100
AcDbEntity
  8
Hachura
 62
7
370
25
100
AcDbLine
 10
7811.615432156346
 20
6984.350125544149
 30
0.0
 11
7810.6882094812645
 21
6984.350125544149
 31
0.0
  0
LINE
  5
127
330
17
100
AcDbEntity
  8
Hachura
 62
7
370
25
100
AcDbLine
 10
7815.853645803327
 20
6984.2127971984355
 30
0.0
 11
7815.853645803327
 21
6985.8895956153065
 31
0.0
  0
LINE
  5
128
330
17
100
AcDbEntity
  8
Hachura
 62
7
370
25
100
AcDbLine
 10
7817.401459692784
 20
6990.533037291821
 30
0.0
 11
7818.03493297561
 21
6991.799983844786
 31
0.0
  0
LINE
  5
129
330
17
100
AcDbEntity
  8
Hachura
 62
7
370
25
100
AcDbLine
 10
7817.401459692784
 20
6990.791006269639
 30
0.0
 11
7817.852905414169
 21
6991.69389771241
 31
0.0
  0
LINE
  5
12A
330
17
100
AcDbEntity
  8
Hachura
 62
7
370
25
100
AcDbLine
 10
7817.401459692784
 20
6991.693897712411
 30
0.0
 11
7817.852905414169
 21
6991.693897712411
 31
0.0
  0
LINE
  5
12B
330
17
100
AcDbEntity
  8
Hachura
 62
7
370
25
100
AcDbLine
 10
7811.615432156346
 20
6995.116871557724
 30
0.0
 11
7810.6882094812645
 21
6995.116871557724
 31
0.0
  0
LINE
  5
12C
330
17
100
AcDbEntity
  8
Hachura
 62
7
370
25
100
AcDbLine
 10
7811.615432156346
 20
6995.9593734739265
 30
0.0
 11
7810.6882094812645
 21
6995.9593734739265
 31
0.0
  0
LINE
  5
12D
330
17
100
AcDbEntity
  8
Hachura
 62
7
370
25
100
AcDbLine
 10
7811.615432156346
 20
6996.4227497057855
 30
0.0
 11
7810.6882094812645
 21
6996.4227497057855
 31
0.0
  0
LINE
  5
12E
330
17
100
AcDbEntity
  8
Hachura
 62
7
370
25
100
AcDbLine
 10
7811.615432156346
 20
6996.759750437963
 30
0.0
 11
7810.6882094812645
 21
6996.759750437963
 31
0.0
  0
LINE
  5
12F
330
17
100
AcDbEntity
  8
Hachura
 62
7
370
25
100
AcDbLine
 10
7811.615432156346
 20
6996.970376185008
 30
0.0
 11
7810.6882094812645
 21
6996.970376185008
 31
0.0
  0
LINE
  5
130
330
17
100
AcDbEntity
  8
Hachura
 62
7
370
25
100
AcDbLine
 10
7686.6979681926105
 20
6991.693275444643
 30
0.0
 11
7686.053045737776
 21
6991.693275444643
 31
0.0
  0
LINE
  5
131
330
17
100
AcDbEntity
  8
Hachura
 62
7
370
25
100
AcDbLine
 10
7685.537107778196
 20
6991.693275444643
 30
0.0
 11
7686.50449146045
 21
6989.758508080141
 31
0.0
  0
LINE
  5
132
330
17
100
AcDbEntity
  8
Hachura
 62
7
370
25
100
AcDbLine
 10
7685.629750618748
 20
6991.76595877549
 30
0.0
 11
7686.712556954649
 21
6989.600346017932
 31
0.0
  0
LINE
  5
133
330
17
100
AcDbEntity
  8
Hachura
 62
7
370
25
100
AcDbLine
 10
7686.941307032106
 20
6989.658783908354
 30
0.0
 11
7685.8710181763345
 21
6991.799361577019
 31
0.0
  0
LINE
  5
134
330
17
100
AcDbEntity
  8
Hachura
 62
7
370
25
100
AcDbLine
 10
7687.020429420025
 20
6989.758508080141
 30
0.0
 11
7686.053045737776
 21
6991.693275444643
 31
0.0
  0
LINE
  5
135
330
17
100
AcDbEntity
  8
Hachura
 62
7
370
25
100
AcDbLine
 10
7687.665351874859
 20
6989.758508080141
 30
0.0
 11
7687.020429420025
 21
6989.758508080141
 31
0.0
  0
LINE
  5
136
330
17
100
AcDbEntity
  8
Hachura
 62
7
370
25
100
AcDbLine
 10
7689.342150259572
 20
6989.758508080141
 30
0.0
 11
7689.987072714406
 21
6989.758508080141
 31
0.0
  0
LINE
  5
137
330
17
100
AcDbEntity
  8
Hachura
 62
7
370
25
100
AcDbLine
 10
7688.393144494277
 20
6989.758508080141
 30
0.0
 11
7688.181289845162
 21
6989.758508080141
 31
0.0
  0
LINE
  5
138
330
17
100
AcDbEntity
  8
Hachura
 62
7
370
25
100
AcDbLine
 10
7688.393144494277
 20
6989.758508080141
 30
0.0
 11
7688.826212299991
 21
6989.758508080141
 31
0.0
  0
LINE
  5
139
330
17
100
AcDbEntity
  8
Hachura
 62
7
370
25
100
AcDbLine
 10
7687.858828617742
 20
6991.693275444643
 30
0.0
 11
7687.213906162908
 21
6991.693275444643
 31
0.0
  0
LINE
  5
13A
330
17
100
AcDbEntity
  8
Hachura
 62
7
370
25
100
AcDbLine
 10
7689.019689032157
 20
6991.693275444643
 30
0.0
 11
7688.374766577323
 21
6991.693275444643
 31
0.0
  0
LINE
  5
13B
330
17
100
AcDbEntity
  8
Hachura
 62
7
370
25
100
AcDbLine
 10
7686.6979681926105
 20
6991.693275444643
 30
0.0
 11
7687.665351874859
 21
6989.758508080141
 31
0.0
  0
LINE
  5
13C
330
17
100
AcDbEntity
  8
Hachura
 62
7
370
25
100
AcDbLine
 10
7686.79061104388
 20
6991.76595877549
 30
0.0
 11
7687.87341737978
 21
6989.600346017932
 31
0.0
  0
LINE
  5
13D
330
17
100
AcDbEntity
  8
Hachura
 62
7
370
25
100
AcDbLine
 10
7688.102167446516
 20
6989.658783908354
 30
0.0
 11
7687.031878601467
 21
6991.799361577019
 31
0.0
  0
LINE
  5
13E
330
17
100
AcDbEntity
  8
Hachura
 62
7
370
25
100
AcDbLine
 10
7688.181289845162
 20
6989.758508080141
 30
0.0
 11
7687.213906162908
 21
6991.693275444643
 31
0.0
  0
LINE
  5
13F
330
17
100
AcDbEntity
  8
Hachura
 62
7
370
25
100
AcDbLine
 10
7689.019689032157
 20
6991.693275444643
 30
0.0
 11
7689.987072714406
 21
6989.758508080141
 31
0.0
  0
LINE
  5
140
330
17
100
AcDbEntity
  8
Hachura
 62
7
370
25
100
AcDbLine
 10
7687.858828617742
 20
6991.693275444643
 30
0.0
 11
7688.826212299991
 21
6989.758508080141
 31
0.0
  0
LINE
  5
141
330
17
100
AcDbEntity
  8
Hachura
 62
7
370
25
100
AcDbLine
 10
7687.951471458295
 20
6991.76595877549
 30
0.0
 11
7689.034277794195
 21
6989.600346017932
 31
0.0
  0
LINE
  5
142
330
17
100
AcDbEntity
  8
Hachura
 62
7
370
25
100
AcDbLine
 10
7689.26302786093
 20
6989.658783908354
 30
0.0
 11
7688.192739015881
 21
6991.799361577019
 31
0.0
  0
LINE
  5
143
330
17
100
AcDbEntity
  8
Hachura
 62
7
370
25
100
AcDbLine
 10
7689.342150259572
 20
6989.758508080141
 30
0.0
 11
7688.374766577323
 21
6991.693275444643
 31
0.0
  0
LINE
  5
144
330
17
100
AcDbEntity
  8
Hachura
 62
7
370
25
100
AcDbLine
 10
7685.214750189377
 20
6990.016269750576
 30
0.0
 11
7685.343631046035
 21
6989.758508080141
 31
0.0
  0
LINE
  5
145
330
17
100
AcDbEntity
  8
Hachura
 62
7
370
25
100
AcDbLine
 10
7685.214750189377
 20
6990.274238741085
 30
0.0
 11
7685.551696550956
 21
6989.600346017932
 31
0.0
  0
LINE
  5
146
330
17
100
AcDbEntity
  8
Hachura
 62
7
370
25
100
AcDbLine
 10
7685.343631046035
 20
6989.758508080141
 30
0.0
 11
7685.214750189377
 21
6989.758508080141
 31
0.0
  0
LINE
  5
147
330
17
100
AcDbEntity
  8
Hachura
 62
7
370
25
100
AcDbLine
 10
7685.21636028596
 20
6989.760299865861
 30
0.0
 11
7684.893899037102
 21
6990.082761093278
 31
0.0
  0
LINE
  5
148
330
17
100
AcDbEntity
  8
Hachura
 62
7
370
25
100
AcDbLine
 10
7685.859569005615
 20
6989.758508080141
 30
0.0
 11
7686.50449146045
 21
6989.758508080141
 31
0.0
  0
LINE
  5
149
330
17
100
AcDbEntity
  8
Hachura
 62
7
370
25
100
AcDbLine
 10
7685.537107778196
 20
6991.693275444643
 30
0.0
 11
7685.214750189377
 21
6991.693275444643
 31
0.0
  0
LINE
  5
14A
330
17
100
AcDbEntity
  8
Hachura
 62
7
370
25
100
AcDbLine
 10
7685.216360264521
 20
6991.695152731135
 30
0.0
 11
7685.216437682595
 21
6991.695152731135
 31
0.0
  0
LINE
  5
14B
330
17
100
AcDbEntity
  8
Hachura
 62
7
370
25
100
AcDbLine
 10
7685.216360264521
 20
6991.695152731135
 30
0.0
 11
7684.893899037102
 21
6991.372606002947
 31
0.0
  0
LINE
  5
14C
330
17
100
AcDbEntity
  8
Hachura
 62
7
370
25
100
AcDbLine
 10
7687.425760822745
 20
6991.693275444643
 30
0.0
 11
7687.21390617363
 21
6991.693275444643
 31
0.0
  0
LINE
  5
14D
330
17
100
AcDbEntity
  8
Hachura
 62
7
370
25
100
AcDbLine
 10
7685.780446617691
 20
6989.658783908354
 30
0.0
 11
7685.214750189377
 21
6990.790176722103
 31
0.0
  0
LINE
  5
14E
330
17
100
AcDbEntity
  8
Hachura
 62
7
370
25
100
AcDbLine
 10
7685.859569005615
 20
6989.758508080141
 30
0.0
 11
7685.214750189377
 21
6991.0481456697335
 31
0.0
  0
LINE
  5
14F
330
17
100
AcDbEntity
  8
Hachura
 62
7
370
25
100
AcDbLine
 10
7684.893899037102
 20
6991.372606002947
 30
0.0
 11
7684.893899037102
 21
6990.082761093278
 31
0.0
  0
LINE
  5
150
330
17
100
AcDbEntity
  8
Hachura
 62
7
370
25
100
AcDbLine
 10
7685.537107778196
 20
6991.693275444643
 30
0.0
 11
7686.50449146045
 21
6989.758508080141
 31
0.0
  0
LINE
  5
151
330
17
100
AcDbEntity
  8
Hachura
 62
7
370
25
100
AcDbLine
 10
7685.21636028596
 20
6989.760299865861
 30
0.0
 11
7685.21636028596
 21
6991.695067230364
 31
0.0
  0
LINE
  5
152
330
17
100
AcDbEntity
  8
Hachura
 62
7
370
25
100
AcDbLine
 10
7696.694266242535
 20
6985.164944588017
 30
0.0
 11
7696.694266242535
 21
6992.979606332648
 31
0.0
  0
LINE
  5
153
330
17
100
AcDbEntity
  8
Hachura
 62
7
370
25
100
AcDbLine
 10
7689.987072714406
 20
6988.984601108614
 30
0.0
 11
7689.987072714406
 21
6992.338197899478
 31
0.0
  0
LINE
  5
154
330
17
100
AcDbEntity
  8
Hachura
 62
7
370
25
100
AcDbLine
 10
7690.054789571735
 20
6988.984601108614
 30
0.0
 11
7690.054789571735
 21
6992.338197899478
 31
0.0
  0
LINE
  5
155
330
17
100
AcDbEntity
  8
Hachura
 62
7
370
25
100
AcDbLine
 10
7693.211684988575
 20
6992.596166847109
 30
0.0
 11
7693.211684988575
 21
6988.726632118104
 31
0.0
  0
LINE
  5
156
330
17
100
AcDbEntity
  8
Hachura
 62
7
370
25
100
AcDbLine
 10
7695.791374807911
 20
6997.1106240309455
 30
0.0
 11
7695.791374807911
 21
6984.212174934267
 31
0.0
  0
LINE
  5
157
330
17
100
AcDbEntity
  8
Hachura
 62
7
370
25
100
AcDbLine
 10
7696.694266242535
 20
6984.212174934267
 30
0.0
 11
7696.694266242535
 21
6997.107082266552
 31
0.0
  0
LINE
  5
158
330
17
100
AcDbEntity
  8
Hachura
 62
7
370
25
100
AcDbLine
 10
7689.987072714406
 20
6991.306321937441
 30
0.0
 11
7693.211684988575
 21
6991.306321937441
 31
0.0
  0
LINE
  5
159
330
17
100
AcDbEntity
  8
Hachura
 62
7
370
25
100
AcDbLine
 10
7689.987072714406
 20
6992.338197899478
 30
0.0
 11
7693.211684988575
 21
6992.338197899478
 31
0.0
  0
LINE
  5
15A
330
17
100
AcDbEntity
  8
Hachura
 62
7
370
25
100
AcDbLine
 10
7695.791374807911
 20
6990.661399482607
 30
0.0
 11
7695.791374807911
 21
6992.596166847109
 31
0.0
  0
LINE
  5
15B
330
17
100
AcDbEntity
  8
Hachura
 62
7
370
25
100
AcDbLine
 10
7695.791374807911
 20
6991.951244392275
 30
0.0
 11
7695.791374807911
 21
6991.306321937441
 31
0.0
  0
LINE
  5
15C
330
17
100
AcDbEntity
  8
Hachura
 62
7
370
25
100
AcDbLine
 10
7695.791374807911
 20
6990.667039844968
 30
0.0
 11
7696.694266242535
 21
6990.667039844968
 31
0.0
  0
LINE
  5
15D
330
17
100
AcDbEntity
  8
Hachura
 62
7
370
25
100
AcDbLine
 10
7695.791374807911
 20
6990.9735815363165
 30
0.0
 11
7693.792215618453
 21
6990.9735815363165
 31
0.0
  0
LINE
  5
15E
330
17
100
AcDbEntity
  8
Hachura
 62
7
370
25
100
AcDbLine
 10
7693.792215618453
 20
6990.457643555297
 30
0.0
 11
7695.791374807911
 21
6990.457643555297
 31
0.0
  0
LINE
  5
15F
330
17
100
AcDbEntity
  8
Hachura
 62
7
370
25
100
AcDbLine
 10
7695.7731002508435
 20
6993.701276106339
 30
0.0
 11
7696.700322925925
 21
6993.701276106339
 31
0.0
  0
LINE
  5
160
330
17
100
AcDbEntity
  8
Hachura
 62
7
370
25
100
AcDbLine
 10
7696.544220364613
 20
6991.621015115355
 30
0.0
 11
7696.111152558893
 21
6991.621015115355
 31
0.0
  0
LINE
  5
161
330
17
100
AcDbEntity
  8
Hachura
 62
7
370
25
100
AcDbLine
 10
7695.791374807911
 20
6992.596166847109
 30
0.0
 11
7693.211684988575
 21
6992.596166847109
 31
0.0
  0
LINE
  5
162
330
17
100
AcDbEntity
  8
Hachura
 62
7
370
25
100
AcDbLine
 10
7696.111152558893
 20
6991.621015115355
 30
0.0
 11
7695.899297909778
 21
6991.621015115355
 31
0.0
  0
LINE
  5
163
330
17
100
AcDbEntity
  8
Hachura
 62
7
370
25
100
AcDbLine
 10
7696.694266242535
 20
6997.107082266552
 30
0.0
 11
7691.55759766045
 21
6997.107082266552
 31
0.0
  0
LINE
  5
164
330
17
100
AcDbEntity
  8
Hachura
 62
7
370
25
100
AcDbLine
 10
7691.534886603863
 20
6995.433825656953
 30
0.0
 11
7693.745194921717
 21
6994.852165582898
 31
0.0
  0
LINE
  5
165
330
17
100
AcDbEntity
  8
Hachura
 62
7
370
25
100
AcDbLine
 10
7691.534886603863
 20
6997.1106240309455
 30
0.0
 11
7691.534886603863
 21
6995.433825656953
 31
0.0
  0
LINE
  5
166
330
17
100
AcDbEntity
  8
Hachura
 62
7
370
25
100
AcDbLine
 10
7693.985591927945
 20
6994.540321544525
 30
0.0
 11
7693.985591927945
 21
6992.596166847109
 31
0.0
  0
LINE
  5
167
330
17
100
AcDbEntity
  8
Hachura
 62
7
370
25
100
AcDbLine
 10
7695.791374807911
 20
6997.1106240309455
 30
0.0
 11
7695.791374807911
 21
6991.951244392275
 31
0.0
  0
LINE
  5
168
330
17
100
AcDbEntity
  8
Hachura
 62
7
370
25
100
AcDbLine
 10
7691.534886603863
 20
6985.888973351138
 30
0.0
 11
7693.745194921717
 21
6986.470633425192
 31
0.0
  0
LINE
  5
169
330
17
100
AcDbEntity
  8
Hachura
 62
7
370
25
100
AcDbLine
 10
7693.211684988575
 20
6988.984601108614
 30
0.0
 11
7689.987072714406
 21
6988.984601108614
 31
0.0
  0
LINE
  5
16A
330
17
100
AcDbEntity
  8
Hachura
 62
7
370
25
100
AcDbLine
 10
7689.987072714406
 20
6989.758508080141
 30
0.0
 11
7693.211684988575
 21
6989.758508080141
 31
0.0
  0
LINE
  5
16B
330
17
100
AcDbEntity
  8
Hachura
 62
7
370
25
100
AcDbLine
 10
7695.7731002508435
 20
6987.635261512129
 30
0.0
 11
7696.694266242535
 21
6987.635261512129
 31
0.0
  0
LINE
  5
16C
330
17
100
AcDbEntity
  8
Hachura
 62
7
370
25
100
AcDbLine
 10
7695.917675826731
 20
6989.686247750852
 30
0.0
 11
7696.35074362173
 21
6989.686247750852
 31
0.0
  0
LINE
  5
16D
330
17
100
AcDbEntity
  8
Hachura
 62
7
370
25
100
AcDbLine
 10
7695.7731002508435
 20
6986.203007907264
 30
0.0
 11
7696.700322925925
 21
6986.203007907264
 31
0.0
  0
LINE
  5
16E
330
17
100
AcDbEntity
  8
Hachura
 62
7
370
25
100
AcDbLine
 10
7693.211684988575
 20
6988.726632118104
 30
0.0
 11
7695.791374807911
 21
6988.726632118104
 31
0.0
  0
LINE
  5
16F
330
17
100
AcDbEntity
  8
Hachura
 62
7
370
25
100
AcDbLine
 10
7693.211684988575
 20
6988.726632118104
 30
0.0
 11
7693.211684988575
 21
6988.984601108614
 31
0.0
  0
LINE
  5
170
330
17
100
AcDbEntity
  8
Hachura
 62
7
370
25
100
AcDbLine
 10
7693.211684988575
 20
6988.726632118104
 30
0.0
 11
7693.211684988575
 21
6988.984601108614
 31
0.0
  0
LINE
  5
171
330
17
100
AcDbEntity
  8
Hachura
 62
7
370
25
100
AcDbLine
 10
7693.985591927945
 20
6986.782477463568
 30
0.0
 11
7693.985591927945
 21
6988.730514041783
 31
0.0
  0
LINE
  5
172
330
17
100
AcDbEntity
  8
Hachura
 62
7
370
25
100
AcDbLine
 10
7695.791374807911
 20
6984.212174934267
 30
0.0
 11
7691.534886603863
 21
6984.212174934267
 31
0.0
  0
LINE
  5
173
330
17
100
AcDbEntity
  8
Hachura
 62
7
370
25
100
AcDbLine
 10
7695.791374807911
 20
6984.212174934267
 30
0.0
 11
7696.694266242535
 21
6984.212174934267
 31
0.0
  0
LINE
  5
174
330
17
100
AcDbEntity
  8
Hachura
 62
7
370
25
100
AcDbLine
 10
7695.7731002508435
 20
6985.3605059910615
 30
0.0
 11
7696.700322925925
 21
6985.3605059910615
 31
0.0
  0
LINE
  5
175
330
17
100
AcDbEntity
  8
Hachura
 62
7
370
25
100
AcDbLine
 10
7695.7731002508435
 20
6984.8971297592025
 30
0.0
 11
7696.700322925925
 21
6984.8971297592025
 31
0.0
  0
LINE
  5
176
330
17
100
AcDbEntity
  8
Hachura
 62
7
370
25
100
AcDbLine
 10
7695.7731002508435
 20
6984.560129027025
 30
0.0
 11
7696.700322925925
 21
6984.560129027025
 31
0.0
  0
LINE
  5
177
330
17
100
AcDbEntity
  8
Hachura
 62
7
370
25
100
AcDbLine
 10
7695.7731002508435
 20
6984.34950327998
 30
0.0
 11
7696.700322925925
 21
6984.34950327998
 31
0.0
  0
LINE
  5
178
330
17
100
AcDbEntity
  8
Hachura
 62
7
370
25
100
AcDbLine
 10
7691.534886603863
 20
6984.212174934267
 30
0.0
 11
7691.534886603863
 21
6985.888973351138
 31
0.0
  0
LINE
  5
179
330
17
100
AcDbEntity
  8
Hachura
 62
7
370
25
100
AcDbLine
 10
7689.987072714406
 20
6990.532415027652
 30
0.0
 11
7689.35359943158
 21
6991.799361580617
 31
0.0
  0
LINE
  5
17A
330
17
100
AcDbEntity
  8
Hachura
 62
7
370
25
100
AcDbLine
 10
7689.987072714406
 20
6990.7903840054705
 30
0.0
 11
7689.535626993021
 21
6991.693275448241
 31
0.0
  0
LINE
  5
17B
330
17
100
AcDbEntity
  8
Hachura
 62
7
370
25
100
AcDbLine
 10
7689.987072714406
 20
6991.693275448242
 30
0.0
 11
7689.535626993021
 21
6991.693275448242
 31
0.0
  0
LINE
  5
17C
330
17
100
AcDbEntity
  8
Hachura
 62
7
370
25
100
AcDbLine
 10
7695.7731002508435
 20
6995.1162492935555
 30
0.0
 11
7696.700322925925
 21
6995.1162492935555
 31
0.0
  0
LINE
  5
17D
330
17
100
AcDbEntity
  8
Hachura
 62
7
370
25
100
AcDbLine
 10
7695.7731002508435
 20
6995.958751209758
 30
0.0
 11
7696.700322925925
 21
6995.958751209758
 31
0.0
  0
LINE
  5
17E
330
17
100
AcDbEntity
  8
Hachura
 62
7
370
25
100
AcDbLine
 10
7695.7731002508435
 20
6996.422127441617
 30
0.0
 11
7696.700322925925
 21
6996.422127441617
 31
0.0
  0
LINE
  5
17F
330
17
100
AcDbEntity
  8
Hachura
 62
7
370
25
100
AcDbLine
 10
7695.7731002508435
 20
6996.759128173794
 30
0.0
 11
7696.700322925925
 21
6996.759128173794
 31
0.0
  0
LINE
  5
180
330
17
100
AcDbEntity
  8
Hachura
 62
7
370
25
100
AcDbLine
 10
7695.7731002508435
 20
6996.969753920839
 30
0.0
 11
7696.700322925925
 21
6996.969753920839
 31
0.0
  0
LINE
  5
181
330
17
100
AcDbEntity
  8
Hachura
 62
7
370
25
100
AcDbLine
 10
7821.494633370058
 20
6990.660511281288
 30
0.0
 11
7689.694266242536
 21
6990.669052492133
 31
0.0
  0
LINE
  5
182
330
17
100
AcDbEntity
  8
Hachura
 62
7
370
25
100
AcDbLine
 10
7820.690564214579
 20
6907.693591735353
 30
0.0
 11
7821.3354866694135
 21
6907.693591735353
 31
0.0
  0
LINE
  5
183
330
17
100
AcDbEntity
  8
Hachura
 62
7
370
25
100
AcDbLine
 10
7821.851424628994
 20
6907.693591735353
 30
0.0
 11
7820.88404094674
 21
6905.758824370851
 31
0.0
  0
LINE
  5
184
330
17
100
AcDbEntity
  8
Hachura
 62
7
370
25
100
AcDbLine
 10
7821.758781788441
 20
6907.766275066199
 30
0.0
 11
7820.675975452541
 21
6905.600662308641
 31
0.0
  0
LINE
  5
185
330
17
100
AcDbEntity
  8
Hachura
 62
7
370
25
100
AcDbLine
 10
7820.447225375084
 20
6905.659100199064
 30
0.0
 11
7821.517514230855
 21
6907.799677867729
 31
0.0
  0
LINE
  5
186
330
17
100
AcDbEntity
  8
Hachura
 62
7
370
25
100
AcDbLine
 10
7820.368102987165
 20
6905.758824370851
 30
0.0
 11
7821.3354866694135
 21
6907.693591735353
 31
0.0
  0
LINE
  5
187
330
17
100
AcDbEntity
  8
Hachura
 62
7
370
25
100
AcDbLine
 10
7819.723180532331
 20
6905.758824370851
 30
0.0
 11
7820.368102987165
 21
6905.758824370851
 31
0.0
  0
LINE
  5
188
330
17
100
AcDbEntity
  8
Hachura
 62
7
370
25
100
AcDbLine
 10
7818.046382147618
 20
6905.758824370851
 30
0.0
 11
7817.401459692784
 21
6905.758824370851
 31
0.0
  0
LINE
  5
189
330
17
100
AcDbEntity
  8
Hachura
 62
7
370
25
100
AcDbLine
 10
7818.9953879129125
 20
6905.758824370851
 30
0.0
 11
7819.207242562028
 21
6905.758824370851
 31
0.0
  0
LINE
  5
18A
330
17
100
AcDbEntity
  8
Hachura
 62
7
370
25
100
AcDbLine
 10
7818.9953879129125
 20
6905.758824370851
 30
0.0
 11
7818.5623201071985
 21
6905.758824370851
 31
0.0
  0
LINE
  5
18B
330
17
100
AcDbEntity
  8
Hachura
 62
7
370
25
100
AcDbLine
 10
7819.529703789448
 20
6907.693591735353
 30
0.0
 11
7820.174626244282
 21
6907.693591735353
 31
0.0
  0
LINE
  5
18C
330
17
100
AcDbEntity
  8
Hachura
 62
7
370
25
100
AcDbLine
 10
7818.368843375033
 20
6907.693591735353
 30
0.0
 11
7819.013765829867
 21
6907.693591735353
 31
0.0
  0
LINE
  5
18D
330
17
100
AcDbEntity
  8
Hachura
 62
7
370
25
100
AcDbLine
 10
7820.690564214579
 20
6907.693591735353
 30
0.0
 11
7819.723180532331
 21
6905.758824370851
 31
0.0
  0
LINE
  5
18E
330
17
100
AcDbEntity
  8
Hachura
 62
7
370
25
100
AcDbLine
 10
7820.59792136331
 20
6907.766275066199
 30
0.0
 11
7819.51511502741
 21
6905.600662308641
 31
0.0
  0
LINE
  5
18F
330
17
100
AcDbEntity
  8
Hachura
 62
7
370
25
100
AcDbLine
 10
7819.286364960673
 20
6905.659100199064
 30
0.0
 11
7820.356653805723
 21
6907.799677867729
 31
0.0
  0
LINE
  5
190
330
17
100
AcDbEntity
  8
Hachura
 62
7
370
25
100
AcDbLine
 10
7819.207242562028
 20
6905.758824370851
 30
0.0
 11
7820.174626244282
 21
6907.693591735353
 31
0.0
  0
LINE
  5
191
330
17
100
AcDbEntity
  8
Hachura
 62
7
370
25
100
AcDbLine
 10
7818.368843375033
 20
6907.693591735353
 30
0.0
 11
7817.401459692784
 21
6905.758824370851
 31
0.0
  0
LINE
  5
192
330
17
100
AcDbEntity
  8
Hachura
 62
7
370
25
100
AcDbLine
 10
7819.529703789448
 20
6907.693591735353
 30
0.0
 11
7818.5623201071985
 21
6905.758824370851
 31
0.0
  0
LINE
  5
193
330
17
100
AcDbEntity
  8
Hachura
 62
7
370
25
100
AcDbLine
 10
7819.437060948895
 20
6907.766275066199
 30
0.0
 11
7818.354254612995
 21
6905.600662308641
 31
0.0
  0
LINE
  5
194
330
17
100
AcDbEntity
  8
Hachura
 62
7
370
25
100
AcDbLine
 10
7818.125504546259
 20
6905.659100199064
 30
0.0
 11
7819.195793391309
 21
6907.799677867729
 31
0.0
  0
LINE
  5
195
330
17
100
AcDbEntity
  8
Hachura
 62
7
370
25
100
AcDbLine
 10
7818.046382147618
 20
6905.758824370851
 30
0.0
 11
7819.013765829867
 21
6907.693591735353
 31
0.0
  0
LINE
  5
196
330
17
100
AcDbEntity
  8
Hachura
 62
7
370
25
100
AcDbLine
 10
7822.173782217813
 20
6906.016586041285
 30
0.0
 11
7822.044901361155
 21
6905.758824370851
 31
0.0
  0
LINE
  5
197
330
17
100
AcDbEntity
  8
Hachura
 62
7
370
25
100
AcDbLine
 10
7822.173782217813
 20
6906.274555031795
 30
0.0
 11
7821.836835856234
 21
6905.600662308641
 31
0.0
  0
LINE
  5
198
330
17
100
AcDbEntity
  8
Hachura
 62
7
370
25
100
AcDbLine
 10
7822.044901361155
 20
6905.758824370851
 30
0.0
 11
7822.173782217813
 21
6905.758824370851
 31
0.0
  0
LINE
  5
199
330
17
100
AcDbEntity
  8
Hachura
 62
7
370
25
100
AcDbLine
 10
7822.17217212123
 20
6905.760616156571
 30
0.0
 11
7822.494633370088
 21
6906.083077383988
 31
0.0
  0
LINE
  5
19A
330
17
100
AcDbEntity
  8
Hachura
 62
7
370
25
100
AcDbLine
 10
7821.528963401574
 20
6905.758824370851
 30
0.0
 11
7820.88404094674
 21
6905.758824370851
 31
0.0
  0
LINE
  5
19B
330
17
100
AcDbEntity
  8
Hachura
 62
7
370
25
100
AcDbLine
 10
7821.851424628994
 20
6907.693591735353
 30
0.0
 11
7822.173782217813
 21
6907.693591735353
 31
0.0
  0
LINE
  5
19C
330
17
100
AcDbEntity
  8
Hachura
 62
7
370
25
100
AcDbLine
 10
7822.172172142668
 20
6907.6954690218445
 30
0.0
 11
7822.172094724595
 21
6907.6954690218445
 31
0.0
  0
LINE
  5
19D
330
17
100
AcDbEntity
  8
Hachura
 62
7
370
25
100
AcDbLine
 10
7822.172172142668
 20
6907.6954690218445
 30
0.0
 11
7822.494633370088
 21
6907.372922293656
 31
0.0
  0
LINE
  5
19E
330
17
100
AcDbEntity
  8
Hachura
 62
7
370
25
100
AcDbLine
 10
7819.962771584444
 20
6907.693591735353
 30
0.0
 11
7820.17462623356
 21
6907.693591735353
 31
0.0
  0
LINE
  5
19F
330
17
100
AcDbEntity
  8
Hachura
 62
7
370
25
100
AcDbLine
 10
7821.608085789499
 20
6905.659100199064
 30
0.0
 11
7822.173782217813
 21
6906.7904930128125
 31
0.0
  0
LINE
  5
1A0
330
17
100
AcDbEntity
  8
Hachura
 62
7
370
25
100
AcDbLine
 10
7821.528963401574
 20
6905.758824370851
 30
0.0
 11
7822.173782217813
 21
6907.048461960443
 31
0.0
  0
LINE
  5
1A1
330
17
100
AcDbEntity
  8
Hachura
 62
7
370
25
100
AcDbLine
 10
7822.494633370088
 20
6907.372922293656
 30
0.0
 11
7822.494633370088
 21
6906.083077383988
 31
0.0
  0
LINE
  5
1A2
330
17
100
AcDbEntity
  8
Hachura
 62
7
370
25
100
AcDbLine
 10
7821.851424628994
 20
6907.693591735353
 30
0.0
 11
7820.88404094674
 21
6905.758824370851
 31
0.0
  0
LINE
  5
1A3
330
17
100
AcDbEntity
  8
Hachura
 62
7
370
25
100
AcDbLine
 10
7822.17217212123
 20
6905.760616156571
 30
0.0
 11
7822.17217212123
 21
6907.695383521073
 31
0.0
  0
LINE
  5
1A4
330
17
100
AcDbEntity
  8
Hachura
 62
7
370
25
100
AcDbLine
 10
7810.694266164654
 20
6901.165260878726
 30
0.0
 11
7810.694266164654
 21
6908.979922623357
 31
0.0
  0
LINE
  5
1A5
330
17
100
AcDbEntity
  8
Hachura
 62
7
370
25
100
AcDbLine
 10
7817.401459692784
 20
6904.984917399323
 30
0.0
 11
7817.401459692784
 21
6908.338514190187
 31
0.0
  0
LINE
  5
1A6
330
17
100
AcDbEntity
  8
Hachura
 62
7
370
25
100
AcDbLine
 10
7817.333742835455
 20
6904.984917399323
 30
0.0
 11
7817.333742835455
 21
6908.338514190187
 31
0.0
  0
LINE
  5
1A7
330
17
100
AcDbEntity
  8
Hachura
 62
7
370
25
100
AcDbLine
 10
7814.176847418615
 20
6908.596483137819
 30
0.0
 11
7814.176847418615
 21
6904.726948408814
 31
0.0
  0
LINE
  5
1A8
330
17
100
AcDbEntity
  8
Hachura
 62
7
370
25
100
AcDbLine
 10
7811.597157599279
 20
6913.110940321655
 30
0.0
 11
7811.597157599279
 21
6900.2124912249765
 31
0.0
  0
LINE
  5
1A9
330
17
100
AcDbEntity
  8
Hachura
 62
7
370
25
100
AcDbLine
 10
7810.694266164654
 20
6900.2124912249765
 30
0.0
 11
7810.694266164654
 21
6913.107398557262
 31
0.0
  0
LINE
  5
1AA
330
17
100
AcDbEntity
  8
Hachura
 62
7
370
25
100
AcDbLine
 10
7817.401459692784
 20
6907.30663822815
 30
0.0
 11
7814.176847418615
 21
6907.30663822815
 31
0.0
  0
LINE
  5
1AB
330
17
100
AcDbEntity
  8
Hachura
 62
7
370
25
100
AcDbLine
 10
7817.401459692784
 20
6908.338514190187
 30
0.0
 11
7814.176847418615
 21
6908.338514190187
 31
0.0
  0
LINE
  5
1AC
330
17
100
AcDbEntity
  8
Hachura
 62
7
370
25
100
AcDbLine
 10
7811.597157599279
 20
6906.661715773316
 30
0.0
 11
7811.597157599279
 21
6908.596483137819
 31
0.0
  0
LINE
  5
1AD
330
17
100
AcDbEntity
  8
Hachura
 62
7
370
25
100
AcDbLine
 10
7811.597157599279
 20
6907.951560682985
 30
0.0
 11
7811.597157599279
 21
6907.30663822815
 31
0.0
  0
LINE
  5
1AE
330
17
100
AcDbEntity
  8
Hachura
 62
7
370
25
100
AcDbLine
 10
7811.597157599279
 20
6906.667356135677
 30
0.0
 11
7810.694266164654
 21
6906.667356135677
 31
0.0
  0
LINE
  5
1AF
330
17
100
AcDbEntity
  8
Hachura
 62
7
370
25
100
AcDbLine
 10
7811.597157599279
 20
6906.973897827026
 30
0.0
 11
7813.596316788737
 21
6906.973897827026
 31
0.0
  0
LINE
  5
1B0
330
17
100
AcDbEntity
  8
Hachura
 62
7
370
25
100
AcDbLine
 10
7813.596316788737
 20
6906.457959846007
 30
0.0
 11
7811.597157599279
 21
6906.457959846007
 31
0.0
  0
LINE
  5
1B1
330
17
100
AcDbEntity
  8
Hachura
 62
7
370
25
100
AcDbLine
 10
7811.615432156346
 20
6909.701592397048
 30
0.0
 11
7810.6882094812645
 21
6909.701592397048
 31
0.0
  0
LINE
  5
1B2
330
17
100
AcDbEntity
  8
Hachura
 62
7
370
25
100
AcDbLine
 10
7810.844312042577
 20
6907.621331406064
 30
0.0
 11
7811.277379848297
 21
6907.621331406064
 31
0.0
  0
LINE
  5
1B3
330
17
100
AcDbEntity
  8
Hachura
 62
7
370
25
100
AcDbLine
 10
7811.597157599279
 20
6908.596483137819
 30
0.0
 11
7814.176847418615
 21
6908.596483137819
 31
0.0
  0
LINE
  5
1B4
330
17
100
AcDbEntity
  8
Hachura
 62
7
370
25
100
AcDbLine
 10
7811.277379848297
 20
6907.621331406064
 30
0.0
 11
7811.489234497411
 21
6907.621331406064
 31
0.0
  0
LINE
  5
1B5
330
17
100
AcDbEntity
  8
Hachura
 62
7
370
25
100
AcDbLine
 10
7810.694266164654
 20
6913.107398557262
 30
0.0
 11
7815.83093474674
 21
6913.107398557262
 31
0.0
  0
LINE
  5
1B6
330
17
100
AcDbEntity
  8
Hachura
 62
7
370
25
100
AcDbLine
 10
7815.853645803327
 20
6911.434141947662
 30
0.0
 11
7813.643337485473
 21
6910.852481873608
 31
0.0
  0
LINE
  5
1B7
330
17
100
AcDbEntity
  8
Hachura
 62
7
370
25
100
AcDbLine
 10
7815.853645803327
 20
6913.110940321655
 30
0.0
 11
7815.853645803327
 21
6911.434141947662
 31
0.0
  0
LINE
  5
1B8
330
17
100
AcDbEntity
  8
Hachura
 62
7
370
25
100
AcDbLine
 10
7813.4029404792445
 20
6910.5406378352345
 30
0.0
 11
7813.4029404792445
 21
6908.596483137819
 31
0.0
  0
LINE
  5
1B9
330
17
100
AcDbEntity
  8
Hachura
 62
7
370
25
100
AcDbLine
 10
7811.597157599279
 20
6913.110940321655
 30
0.0
 11
7811.597157599279
 21
6907.951560682985
 31
0.0
  0
LINE
  5
1BA
330
17
100
AcDbEntity
  8
Hachura
 62
7
370
25
100
AcDbLine
 10
7815.853645803327
 20
6901.889289641847
 30
0.0
 11
7813.643337485473
 21
6902.470949715902
 31
0.0
  0
LINE
  5
1BB
330
17
100
AcDbEntity
  8
Hachura
 62
7
370
25
100
AcDbLine
 10
7814.176847418615
 20
6904.984917399323
 30
0.0
 11
7817.401459692784
 21
6904.984917399323
 31
0.0
  0
LINE
  5
1BC
330
17
100
AcDbEntity
  8
Hachura
 62
7
370
25
100
AcDbLine
 10
7817.401459692784
 20
6905.758824370851
 30
0.0
 11
7814.176847418615
 21
6905.758824370851
 31
0.0
  0
LINE
  5
1BD
330
17
100
AcDbEntity
  8
Hachura
 62
7
370
25
100
AcDbLine
 10
7811.615432156346
 20
6903.635577802838
 30
0.0
 11
7810.694266164654
 21
6903.635577802838
 31
0.0
  0
LINE
  5
1BE
330
17
100
AcDbEntity
  8
Hachura
 62
7
370
25
100
AcDbLine
 10
7811.4708565804585
 20
6905.686564041562
 30
0.0
 11
7811.03778878546
 21
6905.686564041562
 31
0.0
  0
LINE
  5
1BF
330
17
100
AcDbEntity
  8
Hachura
 62
7
370
25
100
AcDbLine
 10
7811.615432156346
 20
6902.203324197973
 30
0.0
 11
7810.6882094812645
 21
6902.203324197973
 31
0.0
  0
LINE
  5
1C0
330
17
100
AcDbEntity
  8
Hachura
 62
7
370
25
100
AcDbLine
 10
7814.176847418615
 20
6904.726948408814
 30
0.0
 11
7811.597157599279
 21
6904.726948408814
 31
0.0
  0
LINE
  5
1C1
330
17
100
AcDbEntity
  8
Hachura
 62
7
370
25
100
AcDbLine
 10
7814.176847418615
 20
6904.726948408814
 30
0.0
 11
7814.176847418615
 21
6904.984917399323
 31
0.0
  0
LINE
  5
1C2
330
17
100
AcDbEntity
  8
Hachura
 62
7
370
25
100
AcDbLine
 10
7814.176847418615
 20
6904.726948408814
 30
0.0
 11
7814.176847418615
 21
6904.984917399323
 31
0.0
  0
LINE
  5
1C3
330
17
100
AcDbEntity
  8
Hachura
 62
7
370
25
100
AcDbLine
 10
7813.4029404792445
 20
6902.782793754278
 30
0.0
 11
7813.4029404792445
 21
6904.730830332493
 31
0.0
  0
LINE
  5
1C4
330
17
100
AcDbEntity
  8
Hachura
 62
7
370
25
100
AcDbLine
 10
7811.597157599279
 20
6900.2124912249765
 30
0.0
 11
7815.853645803327
 21
6900.2124912249765
 31
0.0
  0
LINE
  5
1C5
330
17
100
AcDbEntity
  8
Hachura
 62
7
370
25
100
AcDbLine
 10
7811.597157599279
 20
6900.2124912249765
 30
0.0
 11
7810.694266164654
 21
6900.2124912249765
 31
0.0
  0
LINE
  5
1C6
330
17
100
AcDbEntity
  8
Hachura
 62
7
370
25
100
AcDbLine
 10
7811.615432156346
 20
6901.360822281771
 30
0.0
 11
7810.6882094812645
 21
6901.360822281771
 31
0.0
  0
LINE
  5
1C7
330
17
100
AcDbEntity
  8
Hachura
 62
7
370
25
100
AcDbLine
 10
7811.615432156346
 20
6900.897446049912
 30
0.0
 11
7810.6882094812645
 21
6900.897446049912
 31
0.0
  0
LINE
  5
1C8
330
17
100
AcDbEntity
  8
Hachura
 62
7
370
25
100
AcDbLine
 10
7811.615432156346
 20
6900.560445317735
 30
0.0
 11
7810.6882094812645
 21
6900.560445317735
 31
0.0
  0
LINE
  5
1C9
330
17
100
AcDbEntity
  8
Hachura
 62
7
370
25
100
AcDbLine
 10
7811.615432156346
 20
6900.34981957069
 30
0.0
 11
7810.6882094812645
 21
6900.34981957069
 31
0.0
  0
LINE
  5
1CA
330
17
100
AcDbEntity
  8
Hachura
 62
7
370
25
100
AcDbLine
 10
7815.853645803327
 20
6900.2124912249765
 30
0.0
 11
7815.853645803327
 21
6901.889289641847
 31
0.0
  0
LINE
  5
1CB
330
17
100
AcDbEntity
  8
Hachura
 62
7
370
25
100
AcDbLine
 10
7817.401459692784
 20
6906.532731318362
 30
0.0
 11
7818.03493297561
 21
6907.799677871327
 31
0.0
  0
LINE
  5
1CC
330
17
100
AcDbEntity
  8
Hachura
 62
7
370
25
100
AcDbLine
 10
7817.401459692784
 20
6906.79070029618
 30
0.0
 11
7817.852905414169
 21
6907.693591738951
 31
0.0
  0
LINE
  5
1CD
330
17
100
AcDbEntity
  8
Hachura
 62
7
370
25
100
AcDbLine
 10
7817.401459692784
 20
6907.693591738952
 30
0.0
 11
7817.852905414169
 21
6907.693591738952
 31
0.0
  0
LINE
  5
1CE
330
17
100
AcDbEntity
  8
Hachura
 62
7
370
25
100
AcDbLine
 10
7811.615432156346
 20
6911.116565584265
 30
0.0
 11
7810.6882094812645
 21
6911.116565584265
 31
0.0
  0
LINE
  5
1CF
330
17
100
AcDbEntity
  8
Hachura
 62
7
370
25
100
AcDbLine
 10
7811.615432156346
 20
6911.959067500467
 30
0.0
 11
7810.6882094812645
 21
6911.959067500467
 31
0.0
  0
LINE
  5
1D0
330
17
100
AcDbEntity
  8
Hachura
 62
7
370
25
100
AcDbLine
 10
7811.615432156346
 20
6912.422443732326
 30
0.0
 11
7810.6882094812645
 21
6912.422443732326
 31
0.0
  0
LINE
  5
1D1
330
17
100
AcDbEntity
  8
Hachura
 62
7
370
25
100
AcDbLine
 10
7811.615432156346
 20
6912.759444464504
 30
0.0
 11
7810.6882094812645
 21
6912.759444464504
 31
0.0
  0
LINE
  5
1D2
330
17
100
AcDbEntity
  8
Hachura
 62
7
370
25
100
AcDbLine
 10
7811.615432156346
 20
6912.970070211549
 30
0.0
 11
7810.6882094812645
 21
6912.970070211549
 31
0.0
  0
LINE
  5
1D3
330
17
100
AcDbEntity
  8
Hachura
 62
7
370
25
100
AcDbLine
 10
7686.6979681926105
 20
6907.6929694712135
 30
0.0
 11
7686.053045737776
 21
6907.6929694712135
 31
0.0
  0
LINE
  5
1D4
330
17
100
AcDbEntity
  8
Hachura
 62
7
370
25
100
AcDbLine
 10
7685.537107778196
 20
6907.6929694712135
 30
0.0
 11
7686.50449146045
 21
6905.758202106711
 31
0.0
  0
LINE
  5
1D5
330
17
100
AcDbEntity
  8
Hachura
 62
7
370
25
100
AcDbLine
 10
7685.629750618748
 20
6907.76565280206
 30
0.0
 11
7686.712556954649
 21
6905.600040044502
 31
0.0
  0
LINE
  5
1D6
330
17
100
AcDbEntity
  8
Hachura
 62
7
370
25
100
AcDbLine
 10
7686.941307032106
 20
6905.658477934924
 30
0.0
 11
7685.8710181763345
 21
6907.799055603589
 31
0.0
  0
LINE
  5
1D7
330
17
100
AcDbEntity
  8
Hachura
 62
7
370
25
100
AcDbLine
 10
7687.020429420025
 20
6905.758202106711
 30
0.0
 11
7686.053045737776
 21
6907.6929694712135
 31
0.0
  0
LINE
  5
1D8
330
17
100
AcDbEntity
  8
Hachura
 62
7
370
25
100
AcDbLine
 10
7687.665351874859
 20
6905.758202106711
 30
0.0
 11
7687.020429420025
 21
6905.758202106711
 31
0.0
  0
LINE
  5
1D9
330
17
100
AcDbEntity
  8
Hachura
 62
7
370
25
100
AcDbLine
 10
7689.342150259572
 20
6905.758202106711
 30
0.0
 11
7689.987072714406
 21
6905.758202106711
 31
0.0
  0
LINE
  5
1DA
330
17
100
AcDbEntity
  8
Hachura
 62
7
370
25
100
AcDbLine
 10
7688.393144494277
 20
6905.758202106711
 30
0.0
 11
7688.181289845162
 21
6905.758202106711
 31
0.0
  0
LINE
  5
1DB
330
17
100
AcDbEntity
  8
Hachura
 62
7
370
25
100
AcDbLine
 10
7688.393144494277
 20
6905.758202106711
 30
0.0
 11
7688.826212299991
 21
6905.758202106711
 31
0.0
  0
LINE
  5
1DC
330
17
100
AcDbEntity
  8
Hachura
 62
7
370
25
100
AcDbLine
 10
7687.858828617742
 20
6907.6929694712135
 30
0.0
 11
7687.213906162908
 21
6907.6929694712135
 31
0.0
  0
LINE
  5
1DD
330
17
100
AcDbEntity
  8
Hachura
 62
7
370
25
100
AcDbLine
 10
7689.019689032157
 20
6907.6929694712135
 30
0.0
 11
7688.374766577323
 21
6907.6929694712135
 31
0.0
  0
LINE
  5
1DE
330
17
100
AcDbEntity
  8
Hachura
 62
7
370
25
100
AcDbLine
 10
7686.6979681926105
 20
6907.6929694712135
 30
0.0
 11
7687.665351874859
 21
6905.758202106711
 31
0.0
  0
LINE
  5
1DF
330
17
100
AcDbEntity
  8
Hachura
 62
7
370
25
100
AcDbLine
 10
7686.79061104388
 20
6907.76565280206
 30
0.0
 11
7687.87341737978
 21
6905.600040044502
 31
0.0
  0
LINE
  5
1E0
330
17
100
AcDbEntity
  8
Hachura
 62
7
370
25
100
AcDbLine
 10
7688.102167446516
 20
6905.658477934924
 30
0.0
 11
7687.031878601467
 21
6907.799055603589
 31
0.0
  0
LINE
  5
1E1
330
17
100
AcDbEntity
  8
Hachura
 62
7
370
25
100
AcDbLine
 10
7688.181289845162
 20
6905.758202106711
 30
0.0
 11
7687.213906162908
 21
6907.6929694712135
 31
0.0
  0
LINE
  5
1E2
330
17
100
AcDbEntity
  8
Hachura
 62
7
370
25
100
AcDbLine
 10
7689.019689032157
 20
6907.6929694712135
 30
0.0
 11
7689.987072714406
 21
6905.758202106711
 31
0.0
  0
LINE
  5
1E3
330
17
100
AcDbEntity
  8
Hachura
 62
7
370
25
100
AcDbLine
 10
7687.858828617742
 20
6907.6929694712135
 30
0.0
 11
7688.826212299991
 21
6905.758202106711
 31
0.0
  0
LINE
  5
1E4
330
17
100
AcDbEntity
  8
Hachura
 62
7
370
25
100
AcDbLine
 10
7687.951471458295
 20
6907.76565280206
 30
0.0
 11
7689.034277794195
 21
6905.600040044502
 31
0.0
  0
LINE
  5
1E5
330
17
100
AcDbEntity
  8
Hachura
 62
7
370
25
100
AcDbLine
 10
7689.26302786093
 20
6905.658477934924
 30
0.0
 11
7688.192739015881
 21
6907.799055603589
 31
0.0
  0
LINE
  5
1E6
330
17
100
AcDbEntity
  8
Hachura
 62
7
370
25
100
AcDbLine
 10
7689.342150259572
 20
6905.758202106711
 30
0.0
 11
7688.374766577323
 21
6907.6929694712135
 31
0.0
  0
LINE
  5
1E7
330
17
100
AcDbEntity
  8
Hachura
 62
7
370
25
100
AcDbLine
 10
7685.214750189377
 20
6906.015963777146
 30
0.0
 11
7685.343631046035
 21
6905.758202106711
 31
0.0
  0
LINE
  5
1E8
330
17
100
AcDbEntity
  8
Hachura
 62
7
370
25
100
AcDbLine
 10
7685.214750189377
 20
6906.273932767655
 30
0.0
 11
7685.551696550956
 21
6905.600040044502
 31
0.0
  0
LINE
  5
1E9
330
17
100
AcDbEntity
  8
Hachura
 62
7
370
25
100
AcDbLine
 10
7685.343631046035
 20
6905.758202106711
 30
0.0
 11
7685.214750189377
 21
6905.758202106711
 31
0.0
  0
LINE
  5
1EA
330
17
100
AcDbEntity
  8
Hachura
 62
7
370
25
100
AcDbLine
 10
7685.21636028596
 20
6905.759993892431
 30
0.0
 11
7684.893899037102
 21
6906.082455119848
 31
0.0
  0
LINE
  5
1EB
330
17
100
AcDbEntity
  8
Hachura
 62
7
370
25
100
AcDbLine
 10
7685.859569005615
 20
6905.758202106711
 30
0.0
 11
7686.50449146045
 21
6905.758202106711
 31
0.0
  0
LINE
  5
1EC
330
17
100
AcDbEntity
  8
Hachura
 62
7
370
25
100
AcDbLine
 10
7685.537107778196
 20
6907.6929694712135
 30
0.0
 11
7685.214750189377
 21
6907.6929694712135
 31
0.0
  0
LINE
  5
1ED
330
17
100
AcDbEntity
  8
Hachura
 62
7
370
25
100
AcDbLine
 10
7685.216360264521
 20
6907.694846757705
 30
0.0
 11
7685.216437682595
 21
6907.694846757705
 31
0.0
  0
LINE
  5
1EE
330
17
100
AcDbEntity
  8
Hachura
 62
7
370
25
100
AcDbLine
 10
7685.216360264521
 20
6907.694846757705
 30
0.0
 11
7684.893899037102
 21
6907.372300029517
 31
0.0
  0
LINE
  5
1EF
330
17
100
AcDbEntity
  8
Hachura
 62
7
370
25
100
AcDbLine
 10
7687.425760822745
 20
6907.6929694712135
 30
0.0
 11
7687.21390617363
 21
6907.6929694712135
 31
0.0
  0
LINE
  5
1F0
330
17
100
AcDbEntity
  8
Hachura
 62
7
370
25
100
AcDbLine
 10
7685.780446617691
 20
6905.658477934924
 30
0.0
 11
7685.214750189377
 21
6906.789870748673
 31
0.0
  0
LINE
  5
1F1
330
17
100
AcDbEntity
  8
Hachura
 62
7
370
25
100
AcDbLine
 10
7685.859569005615
 20
6905.758202106711
 30
0.0
 11
7685.214750189377
 21
6907.0478396963035
 31
0.0
  0
LINE
  5
1F2
330
17
100
AcDbEntity
  8
Hachura
 62
7
370
25
100
AcDbLine
 10
7684.893899037102
 20
6907.372300029517
 30
0.0
 11
7684.893899037102
 21
6906.082455119848
 31
0.0
  0
LINE
  5
1F3
330
17
100
AcDbEntity
  8
Hachura
 62
7
370
25
100
AcDbLine
 10
7685.537107778196
 20
6907.6929694712135
 30
0.0
 11
7686.50449146045
 21
6905.758202106711
 31
0.0
  0
LINE
  5
1F4
330
17
100
AcDbEntity
  8
Hachura
 62
7
370
25
100
AcDbLine
 10
7685.21636028596
 20
6905.759993892431
 30
0.0
 11
7685.21636028596
 21
6907.694761256934
 31
0.0
  0
LINE
  5
1F5
330
17
100
AcDbEntity
  8
Hachura
 62
7
370
25
100
AcDbLine
 10
7696.694266242535
 20
6901.164638614587
 30
0.0
 11
7696.694266242535
 21
6908.979300359218
 31
0.0
  0
LINE
  5
1F6
330
17
100
AcDbEntity
  8
Hachura
 62
7
370
25
100
AcDbLine
 10
7689.987072714406
 20
6904.984295135184
 30
0.0
 11
7689.987072714406
 21
6908.337891926048
 31
0.0
  0
LINE
  5
1F7
330
17
100
AcDbEntity
  8
Hachura
 62
7
370
25
100
AcDbLine
 10
7690.054789571735
 20
6904.984295135184
 30
0.0
 11
7690.054789571735
 21
6908.337891926048
 31
0.0
  0
LINE
  5
1F8
330
17
100
AcDbEntity
  8
Hachura
 62
7
370
25
100
AcDbLine
 10
7693.211684988575
 20
6908.595860873679
 30
0.0
 11
7693.211684988575
 21
6904.726326144674
 31
0.0
  0
LINE
  5
1F9
330
17
100
AcDbEntity
  8
Hachura
 62
7
370
25
100
AcDbLine
 10
7695.791374807911
 20
6913.1103180575155
 30
0.0
 11
7695.791374807911
 21
6900.211868960837
 31
0.0
  0
LINE
  5
1FA
330
17
100
AcDbEntity
  8
Hachura
 62
7
370
25
100
AcDbLine
 10
7696.694266242535
 20
6900.211868960837
 30
0.0
 11
7696.694266242535
 21
6913.1067762931225
 31
0.0
  0
LINE
  5
1FB
330
17
100
AcDbEntity
  8
Hachura
 62
7
370
25
100
AcDbLine
 10
7689.987072714406
 20
6907.306015964011
 30
0.0
 11
7693.211684988575
 21
6907.306015964011
 31
0.0
  0
LINE
  5
1FC
330
17
100
AcDbEntity
  8
Hachura
 62
7
370
25
100
AcDbLine
 10
7689.987072714406
 20
6908.337891926048
 30
0.0
 11
7693.211684988575
 21
6908.337891926048
 31
0.0
  0
LINE
  5
1FD
330
17
100
AcDbEntity
  8
Hachura
 62
7
370
25
100
AcDbLine
 10
7695.791374807911
 20
6906.661093509177
 30
0.0
 11
7695.791374807911
 21
6908.595860873679
 31
0.0
  0
LINE
  5
1FE
330
17
100
AcDbEntity
  8
Hachura
 62
7
370
25
100
AcDbLine
 10
7695.791374807911
 20
6907.950938418845
 30
0.0
 11
7695.791374807911
 21
6907.306015964011
 31
0.0
  0
LINE
  5
1FF
330
17
100
AcDbEntity
  8
Hachura
 62
7
370
25
100
AcDbLine
 10
7695.791374807911
 20
6906.666733871538
 30
0.0
 11
7696.694266242535
 21
6906.666733871538
 31
0.0
  0
LINE
  5
200
330
17
100
AcDbEntity
  8
Hachura
 62
7
370
25
100
AcDbLine
 10
7695.791374807911
 20
6906.973275562887
 30
0.0
 11
7693.792215618453
 21
6906.973275562887
 31
0.0
  0
LINE
  5
201
330
17
100
AcDbEntity
  8
Hachura
 62
7
370
25
100
AcDbLine
 10
7693.792215618453
 20
6906.457337581867
 30
0.0
 11
7695.791374807911
 21
6906.457337581867
 31
0.0
  0
LINE
  5
202
330
17
100
AcDbEntity
  8
Hachura
 62
7
370
25
100
AcDbLine
 10
7695.7731002508435
 20
6909.700970132909
 30
0.0
 11
7696.700322925925
 21
6909.700970132909
 31
0.0
  0
LINE
  5
203
330
17
100
AcDbEntity
  8
Hachura
 62
7
370
25
100
AcDbLine
 10
7696.544220364613
 20
6907.620709141925
 30
0.0
 11
7696.111152558893
 21
6907.620709141925
 31
0.0
  0
LINE
  5
204
330
17
100
AcDbEntity
  8
Hachura
 62
7
370
25
100
AcDbLine
 10
7695.791374807911
 20
6908.595860873679
 30
0.0
 11
7693.211684988575
 21
6908.595860873679
 31
0.0
  0
LINE
  5
205
330
17
100
AcDbEntity
  8
Hachura
 62
7
370
25
100
AcDbLine
 10
7696.111152558893
 20
6907.620709141925
 30
0.0
 11
7695.899297909778
 21
6907.620709141925
 31
0.0
  0
LINE
  5
206
330
17
100
AcDbEntity
  8
Hachura
 62
7
370
25
100
AcDbLine
 10
7696.694266242535
 20
6913.1067762931225
 30
0.0
 11
7691.55759766045
 21
6913.1067762931225
 31
0.0
  0
LINE
  5
207
330
17
100
AcDbEntity
  8
Hachura
 62
7
370
25
100
AcDbLine
 10
7691.534886603863
 20
6911.433519683523
 30
0.0
 11
7693.745194921717
 21
6910.851859609468
 31
0.0
  0
LINE
  5
208
330
17
100
AcDbEntity
  8
Hachura
 62
7
370
25
100
AcDbLine
 10
7691.534886603863
 20
6913.1103180575155
 30
0.0
 11
7691.534886603863
 21
6911.433519683523
 31
0.0
  0
LINE
  5
209
330
17
100
AcDbEntity
  8
Hachura
 62
7
370
25
100
AcDbLine
 10
7693.985591927945
 20
6910.540015571095
 30
0.0
 11
7693.985591927945
 21
6908.595860873679
 31
0.0
  0
LINE
  5
20A
330
17
100
AcDbEntity
  8
Hachura
 62
7
370
25
100
AcDbLine
 10
7695.791374807911
 20
6913.1103180575155
 30
0.0
 11
7695.791374807911
 21
6907.950938418845
 31
0.0
  0
LINE
  5
20B
330
17
100
AcDbEntity
  8
Hachura
 62
7
370
25
100
AcDbLine
 10
7691.534886603863
 20
6901.888667377708
 30
0.0
 11
7693.745194921717
 21
6902.470327451762
 31
0.0
  0
LINE
  5
20C
330
17
100
AcDbEntity
  8
Hachura
 62
7
370
25
100
AcDbLine
 10
7693.211684988575
 20
6904.984295135184
 30
0.0
 11
7689.987072714406
 21
6904.984295135184
 31
0.0
  0
LINE
  5
20D
330
17
100
AcDbEntity
  8
Hachura
 62
7
370
25
100
AcDbLine
 10
7689.987072714406
 20
6905.758202106711
 30
0.0
 11
7693.211684988575
 21
6905.758202106711
 31
0.0
  0
LINE
  5
20E
330
17
100
AcDbEntity
  8
Hachura
 62
7
370
25
100
AcDbLine
 10
7695.7731002508435
 20
6903.634955538699
 30
0.0
 11
7696.694266242535
 21
6903.634955538699
 31
0.0
  0
LINE
  5
20F
330
17
100
AcDbEntity
  8
Hachura
 62
7
370
25
100
AcDbLine
 10
7695.917675826731
 20
6905.685941777422
 30
0.0
 11
7696.35074362173
 21
6905.685941777422
 31
0.0
  0
LINE
  5
210
330
17
100
AcDbEntity
  8
Hachura
 62
7
370
25
100
AcDbLine
 10
7695.7731002508435
 20
6902.202701933834
 30
0.0
 11
7696.700322925925
 21
6902.202701933834
 31
0.0
  0
LINE
  5
211
330
17
100
AcDbEntity
  8
Hachura
 62
7
370
25
100
AcDbLine
 10
7693.211684988575
 20
6904.726326144674
 30
0.0
 11
7695.791374807911
 21
6904.726326144674
 31
0.0
  0
LINE
  5
212
330
17
100
AcDbEntity
  8
Hachura
 62
7
370
25
100
AcDbLine
 10
7693.211684988575
 20
6904.726326144674
 30
0.0
 11
7693.211684988575
 21
6904.984295135184
 31
0.0
  0
LINE
  5
213
330
17
100
AcDbEntity
  8
Hachura
 62
7
370
25
100
AcDbLine
 10
7693.211684988575
 20
6904.726326144674
 30
0.0
 11
7693.211684988575
 21
6904.984295135184
 31
0.0
  0
LINE
  5
214
330
17
100
AcDbEntity
  8
Hachura
 62
7
370
25
100
AcDbLine
 10
7693.985591927945
 20
6902.782171490138
 30
0.0
 11
7693.985591927945
 21
6904.730208068353
 31
0.0
  0
LINE
  5
215
330
17
100
AcDbEntity
  8
Hachura
 62
7
370
25
100
AcDbLine
 10
7695.791374807911
 20
6900.211868960837
 30
0.0
 11
7691.534886603863
 21
6900.211868960837
 31
0.0
  0
LINE
  5
216
330
17
100
AcDbEntity
  8
Hachura
 62
7
370
25
100
AcDbLine
 10
7695.791374807911
 20
6900.211868960837
 30
0.0
 11
7696.694266242535
 21
6900.211868960837
 31
0.0
  0
LINE
  5
217
330
17
100
AcDbEntity
  8
Hachura
 62
7
370
25
100
AcDbLine
 10
7695.7731002508435
 20
6901.3602000176315
 30
0.0
 11
7696.700322925925
 21
6901.3602000176315
 31
0.0
  0
LINE
  5
218
330
17
100
AcDbEntity
  8
Hachura
 62
7
370
25
100
AcDbLine
 10
7695.7731002508435
 20
6900.8968237857725
 30
0.0
 11
7696.700322925925
 21
6900.8968237857725
 31
0.0
  0
LINE
  5
219
330
17
100
AcDbEntity
  8
Hachura
 62
7
370
25
100
AcDbLine
 10
7695.7731002508435
 20
6900.559823053595
 30
0.0
 11
7696.700322925925
 21
6900.559823053595
 31
0.0
  0
LINE
  5
21A
330
17
100
AcDbEntity
  8
Hachura
 62
7
370
25
100
AcDbLine
 10
7695.7731002508435
 20
6900.34919730655
 30
0.0
 11
7696.700322925925
 21
6900.34919730655
 31
0.0
  0
LINE
  5
21B
330
17
100
AcDbEntity
  8
Hachura
 62
7
370
25
100
AcDbLine
 10
7691.534886603863
 20
6900.211868960837
 30
0.0
 11
7691.534886603863
 21
6901.888667377708
 31
0.0
  0
LINE
  5
21C
330
17
100
AcDbEntity
  8
Hachura
 62
7
370
25
100
AcDbLine
 10
7689.987072714406
 20
6906.532109054222
 30
0.0
 11
7689.35359943158
 21
6907.799055607187
 31
0.0
  0
LINE
  5
21D
330
17
100
AcDbEntity
  8
Hachura
 62
7
370
25
100
AcDbLine
 10
7689.987072714406
 20
6906.790078032041
 30
0.0
 11
7689.535626993021
 21
6907.692969474811
 31
0.0
  0
LINE
  5
21E
330
17
100
AcDbEntity
  8
Hachura
 62
7
370
25
100
AcDbLine
 10
7689.987072714406
 20
6907.692969474812
 30
0.0
 11
7689.535626993021
 21
6907.692969474812
 31
0.0
  0
LINE
  5
21F
330
17
100
AcDbEntity
  8
Hachura
 62
7
370
25
100
AcDbLine
 10
7695.7731002508435
 20
6911.115943320126
 30
0.0
 11
7696.700322925925
 21
6911.115943320126
 31
0.0
  0
LINE
  5
220
330
17
100
AcDbEntity
  8
Hachura
 62
7
370
25
100
AcDbLine
 10
7695.7731002508435
 20
6911.958445236328
 30
0.0
 11
7696.700322925925
 21
6911.958445236328
 31
0.0
  0
LINE
  5
221
330
17
100
AcDbEntity
  8
Hachura
 62
7
370
25
100
AcDbLine
 10
7695.7731002508435
 20
6912.421821468187
 30
0.0
 11
7696.700322925925
 21
6912.421821468187
 31
0.0
  0
LINE
  5
222
330
17
100
AcDbEntity
  8
Hachura
 62
7
370
25
100
AcDbLine
 10
7695.7731002508435
 20
6912.758822200364
 30
0.0
 11
7696.700322925925
 21
6912.758822200364
 31
0.0
  0
LINE
  5
223
330
17
100
AcDbEntity
  8
Hachura
 62
7
370
25
100
AcDbLine
 10
7695.7731002508435
 20
6912.969447947409
 30
0.0
 11
7696.700322925925
 21
6912.969447947409
 31
0.0
  0
LINE
  5
224
330
17
100
AcDbEntity
  8
Hachura
 62
7
370
25
100
AcDbLine
 10
7821.494633370058
 20
6906.660205307828
 30
0.0
 11
7689.694266242536
 21
6906.668746518703
 31
0.0
  0
LINE
  5
225
330
17
100
AcDbEntity
  8
Madeira
 62
7
370
25
100
AcDbLine
 10
7716.678902715364
 20
6758.644564494175
 30
0.0
 11
7730.691538637755
 21
6747.144116448458
 31
0.0
  0
LINE
  5
226
330
17
100
AcDbEntity
  8
Madeira
 62
7
370
25
100
AcDbLine
 10
7716.678902715364
 20
6758.644564494175
 30
0.0
 11
7730.682719557173
 21
6755.176071558912
 31
0.0
  0
LINE
  5
227
330
17
100
AcDbEntity
  8
Madeira
 62
7
370
25
100
AcDbLine
 10
7716.678902715364
 20
6758.644564494175
 30
0.0
 11
7722.121544694938
 21
6744.6505320717015
 31
0.0
  0
LINE
  5
228
330
17
100
AcDbEntity
  8
Madeira
 62
7
370
25
100
AcDbLine
 10
7716.69802590536
 20
6974.637592488206
 30
0.0
 11
7730.685373104551
 21
6986.168784494022
 31
0.0
  0
LINE
  5
229
330
17
100
AcDbEntity
  8
Madeira
 62
7
370
25
100
AcDbLine
 10
7716.69802590536
 20
6974.637592488206
 30
0.0
 11
7730.694192185133
 21
6978.136829383568
 31
0.0
  0
LINE
  5
22A
330
17
100
AcDbEntity
  8
Madeira
 62
7
370
25
100
AcDbLine
 10
7716.69802590536
 20
6974.637592488206
 30
0.0
 11
7722.109923924836
 21
6988.643543187315
 31
0.0
  0
LINE
  5
22B
330
17
100
AcDbEntity
  8
Madeira
 62
7
370
25
100
AcDbLine
 10
7716.686496959629
 20
6925.144474981852
 30
0.0
 11
7722.4367209766315
 21
6932.15079293591
 31
0.0
  0
LINE
  5
22C
330
17
100
AcDbEntity
  8
Madeira
 62
7
370
25
100
AcDbLine
 10
7716.686496959629
 20
6925.144474981852
 30
0.0
 11
7718.420743425495
 21
6932.146383395624
 31
0.0
  0
LINE
  5
22D
330
17
100
AcDbEntity
  8
Madeira
 62
7
370
25
100
AcDbLine
 10
7716.686496959629
 20
6925.144474981852
 30
0.0
 11
7730.680529367848
 21
6930.587116955882
 31
0.0
  0
LINE
  5
22E
330
17
100
AcDbEntity
  8
Madeira
 62
7
370
25
100
AcDbLine
 10
7716.686496959629
 20
6801.144508142524
 30
0.0
 11
7722.4367209766315
 21
6808.150826096582
 31
0.0
  0
LINE
  5
22F
330
17
100
AcDbEntity
  8
Madeira
 62
7
370
25
100
AcDbLine
 10
7716.686496959629
 20
6801.144508142524
 30
0.0
 11
7718.420743425495
 21
6808.146416556296
 31
0.0
  0
LINE
  5
230
330
17
100
AcDbEntity
  8
Madeira
 62
7
370
25
100
AcDbLine
 10
7716.686496959629
 20
6801.144508142524
 30
0.0
 11
7730.680529367848
 21
6806.587150116554
 31
0.0
  0
LINE
  5
231
330
17
100
AcDbEntity
  8
Madeira
 62
7
370
25
100
AcDbLine
 10
7790.709629636468
 20
6758.644564494175
 30
0.0
 11
7776.696993714077
 21
6747.144116448458
 31
0.0
  0
LINE
  5
232
330
17
100
AcDbEntity
  8
Madeira
 62
7
370
25
100
AcDbLine
 10
7790.709629636468
 20
6758.644564494175
 30
0.0
 11
7776.705812794658
 21
6755.176071558912
 31
0.0
  0
LINE
  5
233
330
17
100
AcDbEntity
  8
Madeira
 62
7
370
25
100
AcDbLine
 10
7790.709629636468
 20
6758.644564494175
 30
0.0
 11
7785.266987656893
 21
6744.6505320717015
 31
0.0
  0
LINE
  5
234
330
17
100
AcDbEntity
  8
Madeira
 62
7
370
25
100
AcDbLine
 10
7790.690506446473
 20
6974.637592488206
 30
0.0
 11
7776.703159247281
 21
6986.168784494022
 31
0.0
  0
LINE
  5
235
330
17
100
AcDbEntity
  8
Madeira
 62
7
370
25
100
AcDbLine
 10
7790.690506446473
 20
6974.637592488206
 30
0.0
 11
7776.6943401666995
 21
6978.136829383568
 31
0.0
  0
LINE
  5
236
330
17
100
AcDbEntity
  8
Madeira
 62
7
370
25
100
AcDbLine
 10
7790.690506446473
 20
6974.637592488206
 30
0.0
 11
7785.2786084269965
 21
6988.643543187315
 31
0.0
  0
LINE
  5
237
330
17
100
AcDbEntity
  8
Madeira
 62
7
370
25
100
AcDbLine
 10
7790.702035392205
 20
6925.144474981852
 30
0.0
 11
7784.951811375203
 21
6932.15079293591
 31
0.0
  0
LINE
  5
238
330
17
100
AcDbEntity
  8
Madeira
 62
7
370
25
100
AcDbLine
 10
7790.702035392205
 20
6925.144474981852
 30
0.0
 11
7788.967788926339
 21
6932.146383395624
 31
0.0
  0
LINE
  5
239
330
17
100
AcDbEntity
  8
Madeira
 62
7
370
25
100
AcDbLine
 10
7790.702035392205
 20
6925.144474981852
 30
0.0
 11
7776.708002983986
 21
6930.587116955882
 31
0.0
  0
LINE
  5
23A
330
17
100
AcDbEntity
  8
Madeira
 62
7
370
25
100
AcDbLine
 10
7790.702035392205
 20
6801.144508142524
 30
0.0
 11
7784.951811375203
 21
6808.150826096582
 31
0.0
  0
LINE
  5
23B
330
17
100
AcDbEntity
  8
Madeira
 62
7
370
25
100
AcDbLine
 10
7790.702035392205
 20
6801.144508142524
 30
0.0
 11
7788.967788926339
 21
6808.146416556296
 31
0.0
  0
LINE
  5
23C
330
17
100
AcDbEntity
  8
Madeira
 62
7
370
25
100
AcDbLine
 10
7790.702035392205
 20
6801.144508142524
 30
0.0
 11
7776.708002983986
 21
6806.587150116554
 31
0.0
  0
LINE
  5
23D
330
17
100
AcDbEntity
  8
Madeira
 62
7
370
25
100
AcDbLine
 10
7716.686496959629
 20
6863.144474981853
 30
0.0
 11
7722.4367209766315
 21
6870.150792935911
 31
0.0
  0
LINE
  5
23E
330
17
100
AcDbEntity
  8
Madeira
 62
7
370
25
100
AcDbLine
 10
7716.686496959629
 20
6863.144474981853
 30
0.0
 11
7718.420743425495
 21
6870.146383395625
 31
0.0
  0
LINE
  5
23F
330
17
100
AcDbEntity
  8
Madeira
 62
7
370
25
100
AcDbLine
 10
7716.686496959629
 20
6863.144474981853
 30
0.0
 11
7730.680529367848
 21
6868.587116955883
 31
0.0
  0
LINE
  5
240
330
17
100
AcDbEntity
  8
Madeira
 62
7
370
25
100
AcDbLine
 10
7790.702035392205
 20
6863.144474981853
 30
0.0
 11
7784.951811375203
 21
6870.150792935911
 31
0.0
  0
LINE
  5
241
330
17
100
AcDbEntity
  8
Madeira
 62
7
370
25
100
AcDbLine
 10
7790.702035392205
 20
6863.144474981853
 30
0.0
 11
7788.967788926339
 21
6870.146383395625
 31
0.0
  0
LINE
  5
242
330
17
100
AcDbEntity
  8
Madeira
 62
7
370
25
100
AcDbLine
 10
7790.702035392205
 20
6863.144474981853
 30
0.0
 11
7776.708002983986
 21
6868.587116955883
 31
0.0
  0
LINE
  5
243
330
17
100
AcDbEntity
  8
Hachura
 62
7
370
25
100
AcDbLine
 10
7820.690564214579
 20
6827.693591735353
 30
0.0
 11
7821.3354866694135
 21
6827.693591735353
 31
0.0
  0
LINE
  5
244
330
17
100
AcDbEntity
  8
Hachura
 62
7
370
25
100
AcDbLine
 10
7821.851424628994
 20
6827.693591735353
 30
0.0
 11
7820.88404094674
 21
6825.758824370851
 31
0.0
  0
LINE
  5
245
330
17
100
AcDbEntity
  8
Hachura
 62
7
370
25
100
AcDbLine
 10
7821.758781788441
 20
6827.766275066199
 30
0.0
 11
7820.675975452541
 21
6825.600662308641
 31
0.0
  0
LINE
  5
246
330
17
100
AcDbEntity
  8
Hachura
 62
7
370
25
100
AcDbLine
 10
7820.447225375084
 20
6825.659100199064
 30
0.0
 11
7821.517514230855
 21
6827.799677867729
 31
0.0
  0
LINE
  5
247
330
17
100
AcDbEntity
  8
Hachura
 62
7
370
25
100
AcDbLine
 10
7820.368102987165
 20
6825.758824370851
 30
0.0
 11
7821.3354866694135
 21
6827.693591735353
 31
0.0
  0
LINE
  5
248
330
17
100
AcDbEntity
  8
Hachura
 62
7
370
25
100
AcDbLine
 10
7819.723180532331
 20
6825.758824370851
 30
0.0
 11
7820.368102987165
 21
6825.758824370851
 31
0.0
  0
LINE
  5
249
330
17
100
AcDbEntity
  8
Hachura
 62
7
370
25
100
AcDbLine
 10
7818.046382147618
 20
6825.758824370851
 30
0.0
 11
7817.401459692784
 21
6825.758824370851
 31
0.0
  0
LINE
  5
24A
330
17
100
AcDbEntity
  8
Hachura
 62
7
370
25
100
AcDbLine
 10
7818.9953879129125
 20
6825.758824370851
 30
0.0
 11
7819.207242562028
 21
6825.758824370851
 31
0.0
  0
LINE
  5
24B
330
17
100
AcDbEntity
  8
Hachura
 62
7
370
25
100
AcDbLine
 10
7818.9953879129125
 20
6825.758824370851
 30
0.0
 11
7818.5623201071985
 21
6825.758824370851
 31
0.0
  0
LINE
  5
24C
330
17
100
AcDbEntity
  8
Hachura
 62
7
370
25
100
AcDbLine
 10
7819.529703789448
 20
6827.693591735353
 30
0.0
 11
7820.174626244282
 21
6827.693591735353
 31
0.0
  0
LINE
  5
24D
330
17
100
AcDbEntity
  8
Hachura
 62
7
370
25
100
AcDbLine
 10
7818.368843375033
 20
6827.693591735353
 30
0.0
 11
7819.013765829867
 21
6827.693591735353
 31
0.0
  0
LINE
  5
24E
330
17
100
AcDbEntity
  8
Hachura
 62
7
370
25
100
AcDbLine
 10
7820.690564214579
 20
6827.693591735353
 30
0.0
 11
7819.723180532331
 21
6825.758824370851
 31
0.0
  0
LINE
  5
24F
330
17
100
AcDbEntity
  8
Hachura
 62
7
370
25
100
AcDbLine
 10
7820.59792136331
 20
6827.766275066199
 30
0.0
 11
7819.51511502741
 21
6825.600662308641
 31
0.0
  0
LINE
  5
250
330
17
100
AcDbEntity
  8
Hachura
 62
7
370
25
100
AcDbLine
 10
7819.286364960673
 20
6825.659100199064
 30
0.0
 11
7820.356653805723
 21
6827.799677867729
 31
0.0
  0
LINE
  5
251
330
17
100
AcDbEntity
  8
Hachura
 62
7
370
25
100
AcDbLine
 10
7819.207242562028
 20
6825.758824370851
 30
0.0
 11
7820.174626244282
 21
6827.693591735353
 31
0.0
  0
LINE
  5
252
330
17
100
AcDbEntity
  8
Hachura
 62
7
370
25
100
AcDbLine
 10
7818.368843375033
 20
6827.693591735353
 30
0.0
 11
7817.401459692784
 21
6825.758824370851
 31
0.0
  0
LINE
  5
253
330
17
100
AcDbEntity
  8
Hachura
 62
7
370
25
100
AcDbLine
 10
7819.529703789448
 20
6827.693591735353
 30
0.0
 11
7818.5623201071985
 21
6825.758824370851
 31
0.0
  0
LINE
  5
254
330
17
100
AcDbEntity
  8
Hachura
 62
7
370
25
100
AcDbLine
 10
7819.437060948895
 20
6827.766275066199
 30
0.0
 11
7818.354254612995
 21
6825.600662308641
 31
0.0
  0
LINE
  5
255
330
17
100
AcDbEntity
  8
Hachura
 62
7
370
25
100
AcDbLine
 10
7818.125504546259
 20
6825.659100199064
 30
0.0
 11
7819.195793391309
 21
6827.799677867729
 31
0.0
  0
LINE
  5
256
330
17
100
AcDbEntity
  8
Hachura
 62
7
370
25
100
AcDbLine
 10
7818.046382147618
 20
6825.758824370851
 30
0.0
 11
7819.013765829867
 21
6827.693591735353
 31
0.0
  0
LINE
  5
257
330
17
100
AcDbEntity
  8
Hachura
 62
7
370
25
100
AcDbLine
 10
7822.173782217813
 20
6826.016586041285
 30
0.0
 11
7822.044901361155
 21
6825.758824370851
 31
0.0
  0
LINE
  5
258
330
17
100
AcDbEntity
  8
Hachura
 62
7
370
25
100
AcDbLine
 10
7822.173782217813
 20
6826.274555031795
 30
0.0
 11
7821.836835856234
 21
6825.600662308641
 31
0.0
  0
LINE
  5
259
330
17
100
AcDbEntity
  8
Hachura
 62
7
370
25
100
AcDbLine
 10
7822.044901361155
 20
6825.758824370851
 30
0.0
 11
7822.173782217813
 21
6825.758824370851
 31
0.0
  0
LINE
  5
25A
330
17
100
AcDbEntity
  8
Hachura
 62
7
370
25
100
AcDbLine
 10
7822.17217212123
 20
6825.760616156571
 30
0.0
 11
7822.494633370088
 21
6826.083077383988
 31
0.0
  0
LINE
  5
25B
330
17
100
AcDbEntity
  8
Hachura
 62
7
370
25
100
AcDbLine
 10
7821.528963401574
 20
6825.758824370851
 30
0.0
 11
7820.88404094674
 21
6825.758824370851
 31
0.0
  0
LINE
  5
25C
330
17
100
AcDbEntity
  8
Hachura
 62
7
370
25
100
AcDbLine
 10
7821.851424628994
 20
6827.693591735353
 30
0.0
 11
7822.173782217813
 21
6827.693591735353
 31
0.0
  0
LINE
  5
25D
330
17
100
AcDbEntity
  8
Hachura
 62
7
370
25
100
AcDbLine
 10
7822.172172142668
 20
6827.6954690218445
 30
0.0
 11
7822.172094724595
 21
6827.6954690218445
 31
0.0
  0
LINE
  5
25E
330
17
100
AcDbEntity
  8
Hachura
 62
7
370
25
100
AcDbLine
 10
7822.172172142668
 20
6827.6954690218445
 30
0.0
 11
7822.494633370088
 21
6827.372922293656
 31
0.0
  0
LINE
  5
25F
330
17
100
AcDbEntity
  8
Hachura
 62
7
370
25
100
AcDbLine
 10
7819.962771584444
 20
6827.693591735353
 30
0.0
 11
7820.17462623356
 21
6827.693591735353
 31
0.0
  0
LINE
  5
260
330
17
100
AcDbEntity
  8
Hachura
 62
7
370
25
100
AcDbLine
 10
7821.608085789499
 20
6825.659100199064
 30
0.0
 11
7822.173782217813
 21
6826.7904930128125
 31
0.0
  0
LINE
  5
261
330
17
100
AcDbEntity
  8
Hachura
 62
7
370
25
100
AcDbLine
 10
7821.528963401574
 20
6825.758824370851
 30
0.0
 11
7822.173782217813
 21
6827.048461960443
 31
0.0
  0
LINE
  5
262
330
17
100
AcDbEntity
  8
Hachura
 62
7
370
25
100
AcDbLine
 10
7822.494633370088
 20
6827.372922293656
 30
0.0
 11
7822.494633370088
 21
6826.083077383988
 31
0.0
  0
LINE
  5
263
330
17
100
AcDbEntity
  8
Hachura
 62
7
370
25
100
AcDbLine
 10
7821.851424628994
 20
6827.693591735353
 30
0.0
 11
7820.88404094674
 21
6825.758824370851
 31
0.0
  0
LINE
  5
264
330
17
100
AcDbEntity
  8
Hachura
 62
7
370
25
100
AcDbLine
 10
7822.17217212123
 20
6825.760616156571
 30
0.0
 11
7822.17217212123
 21
6827.695383521073
 31
0.0
  0
LINE
  5
265
330
17
100
AcDbEntity
  8
Hachura
 62
7
370
25
100
AcDbLine
 10
7810.694266164654
 20
6821.165260878726
 30
0.0
 11
7810.694266164654
 21
6828.979922623357
 31
0.0
  0
LINE
  5
266
330
17
100
AcDbEntity
  8
Hachura
 62
7
370
25
100
AcDbLine
 10
7817.401459692784
 20
6824.984917399323
 30
0.0
 11
7817.401459692784
 21
6828.338514190187
 31
0.0
  0
LINE
  5
267
330
17
100
AcDbEntity
  8
Hachura
 62
7
370
25
100
AcDbLine
 10
7817.333742835455
 20
6824.984917399323
 30
0.0
 11
7817.333742835455
 21
6828.338514190187
 31
0.0
  0
LINE
  5
268
330
17
100
AcDbEntity
  8
Hachura
 62
7
370
25
100
AcDbLine
 10
7814.176847418615
 20
6828.596483137819
 30
0.0
 11
7814.176847418615
 21
6824.726948408814
 31
0.0
  0
LINE
  5
269
330
17
100
AcDbEntity
  8
Hachura
 62
7
370
25
100
AcDbLine
 10
7811.597157599279
 20
6833.110940321655
 30
0.0
 11
7811.597157599279
 21
6820.2124912249765
 31
0.0
  0
LINE
  5
26A
330
17
100
AcDbEntity
  8
Hachura
 62
7
370
25
100
AcDbLine
 10
7810.694266164654
 20
6820.2124912249765
 30
0.0
 11
7810.694266164654
 21
6833.107398557262
 31
0.0
  0
LINE
  5
26B
330
17
100
AcDbEntity
  8
Hachura
 62
7
370
25
100
AcDbLine
 10
7817.401459692784
 20
6827.30663822815
 30
0.0
 11
7814.176847418615
 21
6827.30663822815
 31
0.0
  0
LINE
  5
26C
330
17
100
AcDbEntity
  8
Hachura
 62
7
370
25
100
AcDbLine
 10
7817.401459692784
 20
6828.338514190187
 30
0.0
 11
7814.176847418615
 21
6828.338514190187
 31
0.0
  0
LINE
  5
26D
330
17
100
AcDbEntity
  8
Hachura
 62
7
370
25
100
AcDbLine
 10
7811.597157599279
 20
6826.661715773316
 30
0.0
 11
7811.597157599279
 21
6828.596483137819
 31
0.0
  0
LINE
  5
26E
330
17
100
AcDbEntity
  8
Hachura
 62
7
370
25
100
AcDbLine
 10
7811.597157599279
 20
6827.951560682985
 30
0.0
 11
7811.597157599279
 21
6827.30663822815
 31
0.0
  0
LINE
  5
26F
330
17
100
AcDbEntity
  8
Hachura
 62
7
370
25
100
AcDbLine
 10
7811.597157599279
 20
6826.667356135677
 30
0.0
 11
7810.694266164654
 21
6826.667356135677
 31
0.0
  0
LINE
  5
270
330
17
100
AcDbEntity
  8
Hachura
 62
7
370
25
100
AcDbLine
 10
7811.597157599279
 20
6826.973897827026
 30
0.0
 11
7813.596316788737
 21
6826.973897827026
 31
0.0
  0
LINE
  5
271
330
17
100
AcDbEntity
  8
Hachura
 62
7
370
25
100
AcDbLine
 10
7813.596316788737
 20
6826.457959846007
 30
0.0
 11
7811.597157599279
 21
6826.457959846007
 31
0.0
  0
LINE
  5
272
330
17
100
AcDbEntity
  8
Hachura
 62
7
370
25
100
AcDbLine
 10
7811.615432156346
 20
6829.701592397048
 30
0.0
 11
7810.6882094812645
 21
6829.701592397048
 31
0.0
  0
LINE
  5
273
330
17
100
AcDbEntity
  8
Hachura
 62
7
370
25
100
AcDbLine
 10
7810.844312042577
 20
6827.621331406064
 30
0.0
 11
7811.277379848297
 21
6827.621331406064
 31
0.0
  0
LINE
  5
274
330
17
100
AcDbEntity
  8
Hachura
 62
7
370
25
100
AcDbLine
 10
7811.597157599279
 20
6828.596483137819
 30
0.0
 11
7814.176847418615
 21
6828.596483137819
 31
0.0
  0
LINE
  5
275
330
17
100
AcDbEntity
  8
Hachura
 62
7
370
25
100
AcDbLine
 10
7811.277379848297
 20
6827.621331406064
 30
0.0
 11
7811.489234497411
 21
6827.621331406064
 31
0.0
  0
LINE
  5
276
330
17
100
AcDbEntity
  8
Hachura
 62
7
370
25
100
AcDbLine
 10
7810.694266164654
 20
6833.107398557262
 30
0.0
 11
7815.83093474674
 21
6833.107398557262
 31
0.0
  0
LINE
  5
277
330
17
100
AcDbEntity
  8
Hachura
 62
7
370
25
100
AcDbLine
 10
7815.853645803327
 20
6831.434141947662
 30
0.0
 11
7813.643337485473
 21
6830.852481873608
 31
0.0
  0
LINE
  5
278
330
17
100
AcDbEntity
  8
Hachura
 62
7
370
25
100
AcDbLine
 10
7815.853645803327
 20
6833.110940321655
 30
0.0
 11
7815.853645803327
 21
6831.434141947662
 31
0.0
  0
LINE
  5
279
330
17
100
AcDbEntity
  8
Hachura
 62
7
370
25
100
AcDbLine
 10
7813.4029404792445
 20
6830.5406378352345
 30
0.0
 11
7813.4029404792445
 21
6828.596483137819
 31
0.0
  0
LINE
  5
27A
330
17
100
AcDbEntity
  8
Hachura
 62
7
370
25
100
AcDbLine
 10
7811.597157599279
 20
6833.110940321655
 30
0.0
 11
7811.597157599279
 21
6827.951560682985
 31
0.0
  0
LINE
  5
27B
330
17
100
AcDbEntity
  8
Hachura
 62
7
370
25
100
AcDbLine
 10
7815.853645803327
 20
6821.889289641847
 30
0.0
 11
7813.643337485473
 21
6822.470949715902
 31
0.0
  0
LINE
  5
27C
330
17
100
AcDbEntity
  8
Hachura
 62
7
370
25
100
AcDbLine
 10
7814.176847418615
 20
6824.984917399323
 30
0.0
 11
7817.401459692784
 21
6824.984917399323
 31
0.0
  0
LINE
  5
27D
330
17
100
AcDbEntity
  8
Hachura
 62
7
370
25
100
AcDbLine
 10
7817.401459692784
 20
6825.758824370851
 30
0.0
 11
7814.176847418615
 21
6825.758824370851
 31
0.0
  0
LINE
  5
27E
330
17
100
AcDbEntity
  8
Hachura
 62
7
370
25
100
AcDbLine
 10
7811.615432156346
 20
6823.635577802838
 30
0.0
 11
7810.694266164654
 21
6823.635577802838
 31
0.0
  0
LINE
  5
27F
330
17
100
AcDbEntity
  8
Hachura
 62
7
370
25
100
AcDbLine
 10
7811.4708565804585
 20
6825.686564041562
 30
0.0
 11
7811.03778878546
 21
6825.686564041562
 31
0.0
  0
LINE
  5
280
330
17
100
AcDbEntity
  8
Hachura
 62
7
370
25
100
AcDbLine
 10
7811.615432156346
 20
6822.203324197973
 30
0.0
 11
7810.6882094812645
 21
6822.203324197973
 31
0.0
  0
LINE
  5
281
330
17
100
AcDbEntity
  8
Hachura
 62
7
370
25
100
AcDbLine
 10
7814.176847418615
 20
6824.726948408814
 30
0.0
 11
7811.597157599279
 21
6824.726948408814
 31
0.0
  0
LINE
  5
282
330
17
100
AcDbEntity
  8
Hachura
 62
7
370
25
100
AcDbLine
 10
7814.176847418615
 20
6824.726948408814
 30
0.0
 11
7814.176847418615
 21
6824.984917399323
 31
0.0
  0
LINE
  5
283
330
17
100
AcDbEntity
  8
Hachura
 62
7
370
25
100
AcDbLine
 10
7814.176847418615
 20
6824.726948408814
 30
0.0
 11
7814.176847418615
 21
6824.984917399323
 31
0.0
  0
LINE
  5
284
330
17
100
AcDbEntity
  8
Hachura
 62
7
370
25
100
AcDbLine
 10
7813.4029404792445
 20
6822.782793754278
 30
0.0
 11
7813.4029404792445
 21
6824.730830332493
 31
0.0
  0
LINE
  5
285
330
17
100
AcDbEntity
  8
Hachura
 62
7
370
25
100
AcDbLine
 10
7811.597157599279
 20
6820.2124912249765
 30
0.0
 11
7815.853645803327
 21
6820.2124912249765
 31
0.0
  0
LINE
  5
286
330
17
100
AcDbEntity
  8
Hachura
 62
7
370
25
100
AcDbLine
 10
7811.597157599279
 20
6820.2124912249765
 30
0.0
 11
7810.694266164654
 21
6820.2124912249765
 31
0.0
  0
LINE
  5
287
330
17
100
AcDbEntity
  8
Hachura
 62
7
370
25
100
AcDbLine
 10
7811.615432156346
 20
6821.360822281771
 30
0.0
 11
7810.6882094812645
 21
6821.360822281771
 31
0.0
  0
LINE
  5
288
330
17
100
AcDbEntity
  8
Hachura
 62
7
370
25
100
AcDbLine
 10
7811.615432156346
 20
6820.897446049912
 30
0.0
 11
7810.6882094812645
 21
6820.897446049912
 31
0.0
  0
LINE
  5
289
330
17
100
AcDbEntity
  8
Hachura
 62
7
370
25
100
AcDbLine
 10
7811.615432156346
 20
6820.560445317735
 30
0.0
 11
7810.6882094812645
 21
6820.560445317735
 31
0.0
  0
LINE
  5
28A
330
17
100
AcDbEntity
  8
Hachura
 62
7
370
25
100
AcDbLine
 10
7811.615432156346
 20
6820.34981957069
 30
0.0
 11
7810.6882094812645
 21
6820.34981957069
 31
0.0
  0
LINE
  5
28B
330
17
100
AcDbEntity
  8
Hachura
 62
7
370
25
100
AcDbLine
 10
7815.853645803327
 20
6820.2124912249765
 30
0.0
 11
7815.853645803327
 21
6821.889289641847
 31
0.0
  0
LINE
  5
28C
330
17
100
AcDbEntity
  8
Hachura
 62
7
370
25
100
AcDbLine
 10
7817.401459692784
 20
6826.532731318362
 30
0.0
 11
7818.03493297561
 21
6827.799677871327
 31
0.0
  0
LINE
  5
28D
330
17
100
AcDbEntity
  8
Hachura
 62
7
370
25
100
AcDbLine
 10
7817.401459692784
 20
6826.79070029618
 30
0.0
 11
7817.852905414169
 21
6827.693591738951
 31
0.0
  0
LINE
  5
28E
330
17
100
AcDbEntity
  8
Hachura
 62
7
370
25
100
AcDbLine
 10
7817.401459692784
 20
6827.693591738952
 30
0.0
 11
7817.852905414169
 21
6827.693591738952
 31
0.0
  0
LINE
  5
28F
330
17
100
AcDbEntity
  8
Hachura
 62
7
370
25
100
AcDbLine
 10
7811.615432156346
 20
6831.116565584265
 30
0.0
 11
7810.6882094812645
 21
6831.116565584265
 31
0.0
  0
LINE
  5
290
330
17
100
AcDbEntity
  8
Hachura
 62
7
370
25
100
AcDbLine
 10
7811.615432156346
 20
6831.959067500467
 30
0.0
 11
7810.6882094812645
 21
6831.959067500467
 31
0.0
  0
LINE
  5
291
330
17
100
AcDbEntity
  8
Hachura
 62
7
370
25
100
AcDbLine
 10
7811.615432156346
 20
6832.422443732326
 30
0.0
 11
7810.6882094812645
 21
6832.422443732326
 31
0.0
  0
LINE
  5
292
330
17
100
AcDbEntity
  8
Hachura
 62
7
370
25
100
AcDbLine
 10
7811.615432156346
 20
6832.759444464504
 30
0.0
 11
7810.6882094812645
 21
6832.759444464504
 31
0.0
  0
LINE
  5
293
330
17
100
AcDbEntity
  8
Hachura
 62
7
370
25
100
AcDbLine
 10
7811.615432156346
 20
6832.970070211549
 30
0.0
 11
7810.6882094812645
 21
6832.970070211549
 31
0.0
  0
LINE
  5
294
330
17
100
AcDbEntity
  8
Hachura
 62
7
370
25
100
AcDbLine
 10
7686.6979681926105
 20
6827.6929694712135
 30
0.0
 11
7686.053045737776
 21
6827.6929694712135
 31
0.0
  0
LINE
  5
295
330
17
100
AcDbEntity
  8
Hachura
 62
7
370
25
100
AcDbLine
 10
7685.537107778196
 20
6827.6929694712135
 30
0.0
 11
7686.50449146045
 21
6825.758202106711
 31
0.0
  0
LINE
  5
296
330
17
100
AcDbEntity
  8
Hachura
 62
7
370
25
100
AcDbLine
 10
7685.629750618748
 20
6827.76565280206
 30
0.0
 11
7686.712556954649
 21
6825.600040044502
 31
0.0
  0
LINE
  5
297
330
17
100
AcDbEntity
  8
Hachura
 62
7
370
25
100
AcDbLine
 10
7686.941307032106
 20
6825.658477934924
 30
0.0
 11
7685.8710181763345
 21
6827.799055603589
 31
0.0
  0
LINE
  5
298
330
17
100
AcDbEntity
  8
Hachura
 62
7
370
25
100
AcDbLine
 10
7687.020429420025
 20
6825.758202106711
 30
0.0
 11
7686.053045737776
 21
6827.6929694712135
 31
0.0
  0
LINE
  5
299
330
17
100
AcDbEntity
  8
Hachura
 62
7
370
25
100
AcDbLine
 10
7687.665351874859
 20
6825.758202106711
 30
0.0
 11
7687.020429420025
 21
6825.758202106711
 31
0.0
  0
LINE
  5
29A
330
17
100
AcDbEntity
  8
Hachura
 62
7
370
25
100
AcDbLine
 10
7689.342150259572
 20
6825.758202106711
 30
0.0
 11
7689.987072714406
 21
6825.758202106711
 31
0.0
  0
LINE
  5
29B
330
17
100
AcDbEntity
  8
Hachura
 62
7
370
25
100
AcDbLine
 10
7688.393144494277
 20
6825.758202106711
 30
0.0
 11
7688.181289845162
 21
6825.758202106711
 31
0.0
  0
LINE
  5
29C
330
17
100
AcDbEntity
  8
Hachura
 62
7
370
25
100
AcDbLine
 10
7688.393144494277
 20
6825.758202106711
 30
0.0
 11
7688.826212299991
 21
6825.758202106711
 31
0.0
  0
LINE
  5
29D
330
17
100
AcDbEntity
  8
Hachura
 62
7
370
25
100
AcDbLine
 10
7687.858828617742
 20
6827.6929694712135
 30
0.0
 11
7687.213906162908
 21
6827.6929694712135
 31
0.0
  0
LINE
  5
29E
330
17
100
AcDbEntity
  8
Hachura
 62
7
370
25
100
AcDbLine
 10
7689.019689032157
 20
6827.6929694712135
 30
0.0
 11
7688.374766577323
 21
6827.6929694712135
 31
0.0
  0
LINE
  5
29F
330
17
100
AcDbEntity
  8
Hachura
 62
7
370
25
100
AcDbLine
 10
7686.6979681926105
 20
6827.6929694712135
 30
0.0
 11
7687.665351874859
 21
6825.758202106711
 31
0.0
  0
LINE
  5
2A0
330
17
100
AcDbEntity
  8
Hachura
 62
7
370
25
100
AcDbLine
 10
7686.79061104388
 20
6827.76565280206
 30
0.0
 11
7687.87341737978
 21
6825.600040044502
 31
0.0
  0
LINE
  5
2A1
330
17
100
AcDbEntity
  8
Hachura
 62
7
370
25
100
AcDbLine
 10
7688.102167446516
 20
6825.658477934924
 30
0.0
 11
7687.031878601467
 21
6827.799055603589
 31
0.0
  0
LINE
  5
2A2
330
17
100
AcDbEntity
  8
Hachura
 62
7
370
25
100
AcDbLine
 10
7688.181289845162
 20
6825.758202106711
 30
0.0
 11
7687.213906162908
 21
6827.6929694712135
 31
0.0
  0
LINE
  5
2A3
330
17
100
AcDbEntity
  8
Hachura
 62
7
370
25
100
AcDbLine
 10
7689.019689032157
 20
6827.6929694712135
 30
0.0
 11
7689.987072714406
 21
6825.758202106711
 31
0.0
  0
LINE
  5
2A4
330
17
100
AcDbEntity
  8
Hachura
 62
7
370
25
100
AcDbLine
 10
7687.858828617742
 20
6827.6929694712135
 30
0.0
 11
7688.826212299991
 21
6825.758202106711
 31
0.0
  0
LINE
  5
2A5
330
17
100
AcDbEntity
  8
Hachura
 62
7
370
25
100
AcDbLine
 10
7687.951471458295
 20
6827.76565280206
 30
0.0
 11
7689.034277794195
 21
6825.600040044502
 31
0.0
  0
LINE
  5
2A6
330
17
100
AcDbEntity
  8
Hachura
 62
7
370
25
100
AcDbLine
 10
7689.26302786093
 20
6825.658477934924
 30
0.0
 11
7688.192739015881
 21
6827.799055603589
 31
0.0
  0
LINE
  5
2A7
330
17
100
AcDbEntity
  8
Hachura
 62
7
370
25
100
AcDbLine
 10
7689.342150259572
 20
6825.758202106711
 30
0.0
 11
7688.374766577323
 21
6827.6929694712135
 31
0.0
  0
LINE
  5
2A8
330
17
100
AcDbEntity
  8
Hachura
 62
7
370
25
100
AcDbLine
 10
7685.214750189377
 20
6826.015963777146
 30
0.0
 11
7685.343631046035
 21
6825.758202106711
 31
0.0
  0
LINE
  5
2A9
330
17
100
AcDbEntity
  8
Hachura
 62
7
370
25
100
AcDbLine
 10
7685.214750189377
 20
6826.273932767655
 30
0.0
 11
7685.551696550956
 21
6825.600040044502
 31
0.0
  0
LINE
  5
2AA
330
17
100
AcDbEntity
  8
Hachura
 62
7
370
25
100
AcDbLine
 10
7685.343631046035
 20
6825.758202106711
 30
0.0
 11
7685.214750189377
 21
6825.758202106711
 31
0.0
  0
LINE
  5
2AB
330
17
100
AcDbEntity
  8
Hachura
 62
7
370
25
100
AcDbLine
 10
7685.21636028596
 20
6825.759993892431
 30
0.0
 11
7684.893899037102
 21
6826.082455119848
 31
0.0
  0
LINE
  5
2AC
330
17
100
AcDbEntity
  8
Hachura
 62
7
370
25
100
AcDbLine
 10
7685.859569005615
 20
6825.758202106711
 30
0.0
 11
7686.50449146045
 21
6825.758202106711
 31
0.0
  0
LINE
  5
2AD
330
17
100
AcDbEntity
  8
Hachura
 62
7
370
25
100
AcDbLine
 10
7685.537107778196
 20
6827.6929694712135
 30
0.0
 11
7685.214750189377
 21
6827.6929694712135
 31
0.0
  0
LINE
  5
2AE
330
17
100
AcDbEntity
  8
Hachura
 62
7
370
25
100
AcDbLine
 10
7685.216360264521
 20
6827.694846757705
 30
0.0
 11
7685.216437682595
 21
6827.694846757705
 31
0.0
  0
LINE
  5
2AF
330
17
100
AcDbEntity
  8
Hachura
 62
7
370
25
100
AcDbLine
 10
7685.216360264521
 20
6827.694846757705
 30
0.0
 11
7684.893899037102
 21
6827.372300029517
 31
0.0
  0
LINE
  5
2B0
330
17
100
AcDbEntity
  8
Hachura
 62
7
370
25
100
AcDbLine
 10
7687.425760822745
 20
6827.6929694712135
 30
0.0
 11
7687.21390617363
 21
6827.6929694712135
 31
0.0
  0
LINE
  5
2B1
330
17
100
AcDbEntity
  8
Hachura
 62
7
370
25
100
AcDbLine
 10
7685.780446617691
 20
6825.658477934924
 30
0.0
 11
7685.214750189377
 21
6826.789870748673
 31
0.0
  0
LINE
  5
2B2
330
17
100
AcDbEntity
  8
Hachura
 62
7
370
25
100
AcDbLine
 10
7685.859569005615
 20
6825.758202106711
 30
0.0
 11
7685.214750189377
 21
6827.0478396963035
 31
0.0
  0
LINE
  5
2B3
330
17
100
AcDbEntity
  8
Hachura
 62
7
370
25
100
AcDbLine
 10
7684.893899037102
 20
6827.372300029517
 30
0.0
 11
7684.893899037102
 21
6826.082455119848
 31
0.0
  0
LINE
  5
2B4
330
17
100
AcDbEntity
  8
Hachura
 62
7
370
25
100
AcDbLine
 10
7685.537107778196
 20
6827.6929694712135
 30
0.0
 11
7686.50449146045
 21
6825.758202106711
 31
0.0
  0
LINE
  5
2B5
330
17
100
AcDbEntity
  8
Hachura
 62
7
370
25
100
AcDbLine
 10
7685.21636028596
 20
6825.759993892431
 30
0.0
 11
7685.21636028596
 21
6827.694761256934
 31
0.0
  0
LINE
  5
2B6
330
17
100
AcDbEntity
  8
Hachura
 62
7
370
25
100
AcDbLine
 10
7696.694266242535
 20
6821.164638614587
 30
0.0
 11
7696.694266242535
 21
6828.979300359218
 31
0.0
  0
LINE
  5
2B7
330
17
100
AcDbEntity
  8
Hachura
 62
7
370
25
100
AcDbLine
 10
7689.987072714406
 20
6824.984295135184
 30
0.0
 11
7689.987072714406
 21
6828.337891926048
 31
0.0
  0
LINE
  5
2B8
330
17
100
AcDbEntity
  8
Hachura
 62
7
370
25
100
AcDbLine
 10
7690.054789571735
 20
6824.984295135184
 30
0.0
 11
7690.054789571735
 21
6828.337891926048
 31
0.0
  0
LINE
  5
2B9
330
17
100
AcDbEntity
  8
Hachura
 62
7
370
25
100
AcDbLine
 10
7693.211684988575
 20
6828.595860873679
 30
0.0
 11
7693.211684988575
 21
6824.726326144674
 31
0.0
  0
LINE
  5
2BA
330
17
100
AcDbEntity
  8
Hachura
 62
7
370
25
100
AcDbLine
 10
7695.791374807911
 20
6833.1103180575155
 30
0.0
 11
7695.791374807911
 21
6820.211868960837
 31
0.0
  0
LINE
  5
2BB
330
17
100
AcDbEntity
  8
Hachura
 62
7
370
25
100
AcDbLine
 10
7696.694266242535
 20
6820.211868960837
 30
0.0
 11
7696.694266242535
 21
6833.1067762931225
 31
0.0
  0
LINE
  5
2BC
330
17
100
AcDbEntity
  8
Hachura
 62
7
370
25
100
AcDbLine
 10
7689.987072714406
 20
6827.306015964011
 30
0.0
 11
7693.211684988575
 21
6827.306015964011
 31
0.0
  0
LINE
  5
2BD
330
17
100
AcDbEntity
  8
Hachura
 62
7
370
25
100
AcDbLine
 10
7689.987072714406
 20
6828.337891926048
 30
0.0
 11
7693.211684988575
 21
6828.337891926048
 31
0.0
  0
LINE
  5
2BE
330
17
100
AcDbEntity
  8
Hachura
 62
7
370
25
100
AcDbLine
 10
7695.791374807911
 20
6826.661093509177
 30
0.0
 11
7695.791374807911
 21
6828.595860873679
 31
0.0
  0
LINE
  5
2BF
330
17
100
AcDbEntity
  8
Hachura
 62
7
370
25
100
AcDbLine
 10
7695.791374807911
 20
6827.950938418845
 30
0.0
 11
7695.791374807911
 21
6827.306015964011
 31
0.0
  0
LINE
  5
2C0
330
17
100
AcDbEntity
  8
Hachura
 62
7
370
25
100
AcDbLine
 10
7695.791374807911
 20
6826.666733871538
 30
0.0
 11
7696.694266242535
 21
6826.666733871538
 31
0.0
  0
LINE
  5
2C1
330
17
100
AcDbEntity
  8
Hachura
 62
7
370
25
100
AcDbLine
 10
7695.791374807911
 20
6826.973275562887
 30
0.0
 11
7693.792215618453
 21
6826.973275562887
 31
0.0
  0
LINE
  5
2C2
330
17
100
AcDbEntity
  8
Hachura
 62
7
370
25
100
AcDbLine
 10
7693.792215618453
 20
6826.457337581867
 30
0.0
 11
7695.791374807911
 21
6826.457337581867
 31
0.0
  0
LINE
  5
2C3
330
17
100
AcDbEntity
  8
Hachura
 62
7
370
25
100
AcDbLine
 10
7695.7731002508435
 20
6829.700970132909
 30
0.0
 11
7696.700322925925
 21
6829.700970132909
 31
0.0
  0
LINE
  5
2C4
330
17
100
AcDbEntity
  8
Hachura
 62
7
370
25
100
AcDbLine
 10
7696.544220364613
 20
6827.620709141925
 30
0.0
 11
7696.111152558893
 21
6827.620709141925
 31
0.0
  0
LINE
  5
2C5
330
17
100
AcDbEntity
  8
Hachura
 62
7
370
25
100
AcDbLine
 10
7695.791374807911
 20
6828.595860873679
 30
0.0
 11
7693.211684988575
 21
6828.595860873679
 31
0.0
  0
LINE
  5
2C6
330
17
100
AcDbEntity
  8
Hachura
 62
7
370
25
100
AcDbLine
 10
7696.111152558893
 20
6827.620709141925
 30
0.0
 11
7695.899297909778
 21
6827.620709141925
 31
0.0
  0
LINE
  5
2C7
330
17
100
AcDbEntity
  8
Hachura
 62
7
370
25
100
AcDbLine
 10
7696.694266242535
 20
6833.1067762931225
 30
0.0
 11
7691.55759766045
 21
6833.1067762931225
 31
0.0
  0
LINE
  5
2C8
330
17
100
AcDbEntity
  8
Hachura
 62
7
370
25
100
AcDbLine
 10
7691.534886603863
 20
6831.433519683523
 30
0.0
 11
7693.745194921717
 21
6830.851859609468
 31
0.0
  0
LINE
  5
2C9
330
17
100
AcDbEntity
  8
Hachura
 62
7
370
25
100
AcDbLine
 10
7691.534886603863
 20
6833.1103180575155
 30
0.0
 11
7691.534886603863
 21
6831.433519683523
 31
0.0
  0
LINE
  5
2CA
330
17
100
AcDbEntity
  8
Hachura
 62
7
370
25
100
AcDbLine
 10
7693.985591927945
 20
6830.540015571095
 30
0.0
 11
7693.985591927945
 21
6828.595860873679
 31
0.0
  0
LINE
  5
2CB
330
17
100
AcDbEntity
  8
Hachura
 62
7
370
25
100
AcDbLine
 10
7695.791374807911
 20
6833.1103180575155
 30
0.0
 11
7695.791374807911
 21
6827.950938418845
 31
0.0
  0
LINE
  5
2CC
330
17
100
AcDbEntity
  8
Hachura
 62
7
370
25
100
AcDbLine
 10
7691.534886603863
 20
6821.888667377708
 30
0.0
 11
7693.745194921717
 21
6822.470327451762
 31
0.0
  0
LINE
  5
2CD
330
17
100
AcDbEntity
  8
Hachura
 62
7
370
25
100
AcDbLine
 10
7693.211684988575
 20
6824.984295135184
 30
0.0
 11
7689.987072714406
 21
6824.984295135184
 31
0.0
  0
LINE
  5
2CE
330
17
100
AcDbEntity
  8
Hachura
 62
7
370
25
100
AcDbLine
 10
7689.987072714406
 20
6825.758202106711
 30
0.0
 11
7693.211684988575
 21
6825.758202106711
 31
0.0
  0
LINE
  5
2CF
330
17
100
AcDbEntity
  8
Hachura
 62
7
370
25
100
AcDbLine
 10
7695.7731002508435
 20
6823.634955538699
 30
0.0
 11
7696.694266242535
 21
6823.634955538699
 31
0.0
  0
LINE
  5
2D0
330
17
100
AcDbEntity
  8
Hachura
 62
7
370
25
100
AcDbLine
 10
7695.917675826731
 20
6825.685941777422
 30
0.0
 11
7696.35074362173
 21
6825.685941777422
 31
0.0
  0
LINE
  5
2D1
330
17
100
AcDbEntity
  8
Hachura
 62
7
370
25
100
AcDbLine
 10
7695.7731002508435
 20
6822.202701933834
 30
0.0
 11
7696.700322925925
 21
6822.202701933834
 31
0.0
  0
LINE
  5
2D2
330
17
100
AcDbEntity
  8
Hachura
 62
7
370
25
100
AcDbLine
 10
7693.211684988575
 20
6824.726326144674
 30
0.0
 11
7695.791374807911
 21
6824.726326144674
 31
0.0
  0
LINE
  5
2D3
330
17
100
AcDbEntity
  8
Hachura
 62
7
370
25
100
AcDbLine
 10
7693.211684988575
 20
6824.726326144674
 30
0.0
 11
7693.211684988575
 21
6824.984295135184
 31
0.0
  0
LINE
  5
2D4
330
17
100
AcDbEntity
  8
Hachura
 62
7
370
25
100
AcDbLine
 10
7693.211684988575
 20
6824.726326144674
 30
0.0
 11
7693.211684988575
 21
6824.984295135184
 31
0.0
  0
LINE
  5
2D5
330
17
100
AcDbEntity
  8
Hachura
 62
7
370
25
100
AcDbLine
 10
7693.985591927945
 20
6822.782171490138
 30
0.0
 11
7693.985591927945
 21
6824.730208068353
 31
0.0
  0
LINE
  5
2D6
330
17
100
AcDbEntity
  8
Hachura
 62
7
370
25
100
AcDbLine
 10
7695.791374807911
 20
6820.211868960837
 30
0.0
 11
7691.534886603863
 21
6820.211868960837
 31
0.0
  0
LINE
  5
2D7
330
17
100
AcDbEntity
  8
Hachura
 62
7
370
25
100
AcDbLine
 10
7695.791374807911
 20
6820.211868960837
 30
0.0
 11
7696.694266242535
 21
6820.211868960837
 31
0.0
  0
LINE
  5
2D8
330
17
100
AcDbEntity
  8
Hachura
 62
7
370
25
100
AcDbLine
 10
7695.7731002508435
 20
6821.3602000176315
 30
0.0
 11
7696.700322925925
 21
6821.3602000176315
 31
0.0
  0
LINE
  5
2D9
330
17
100
AcDbEntity
  8
Hachura
 62
7
370
25
100
AcDbLine
 10
7695.7731002508435
 20
6820.8968237857725
 30
0.0
 11
7696.700322925925
 21
6820.8968237857725
 31
0.0
  0
LINE
  5
2DA
330
17
100
AcDbEntity
  8
Hachura
 62
7
370
25
100
AcDbLine
 10
7695.7731002508435
 20
6820.559823053595
 30
0.0
 11
7696.700322925925
 21
6820.559823053595
 31
0.0
  0
LINE
  5
2DB
330
17
100
AcDbEntity
  8
Hachura
 62
7
370
25
100
AcDbLine
 10
7695.7731002508435
 20
6820.34919730655
 30
0.0
 11
7696.700322925925
 21
6820.34919730655
 31
0.0
  0
LINE
  5
2DC
330
17
100
AcDbEntity
  8
Hachura
 62
7
370
25
100
AcDbLine
 10
7691.534886603863
 20
6820.211868960837
 30
0.0
 11
7691.534886603863
 21
6821.888667377708
 31
0.0
  0
LINE
  5
2DD
330
17
100
AcDbEntity
  8
Hachura
 62
7
370
25
100
AcDbLine
 10
7689.987072714406
 20
6826.532109054222
 30
0.0
 11
7689.35359943158
 21
6827.799055607187
 31
0.0
  0
LINE
  5
2DE
330
17
100
AcDbEntity
  8
Hachura
 62
7
370
25
100
AcDbLine
 10
7689.987072714406
 20
6826.790078032041
 30
0.0
 11
7689.535626993021
 21
6827.692969474811
 31
0.0
  0
LINE
  5
2DF
330
17
100
AcDbEntity
  8
Hachura
 62
7
370
25
100
AcDbLine
 10
7689.987072714406
 20
6827.692969474812
 30
0.0
 11
7689.535626993021
 21
6827.692969474812
 31
0.0
  0
LINE
  5
2E0
330
17
100
AcDbEntity
  8
Hachura
 62
7
370
25
100
AcDbLine
 10
7695.7731002508435
 20
6831.115943320126
 30
0.0
 11
7696.700322925925
 21
6831.115943320126
 31
0.0
  0
LINE
  5
2E1
330
17
100
AcDbEntity
  8
Hachura
 62
7
370
25
100
AcDbLine
 10
7695.7731002508435
 20
6831.958445236328
 30
0.0
 11
7696.700322925925
 21
6831.958445236328
 31
0.0
  0
LINE
  5
2E2
330
17
100
AcDbEntity
  8
Hachura
 62
7
370
25
100
AcDbLine
 10
7695.7731002508435
 20
6832.421821468187
 30
0.0
 11
7696.700322925925
 21
6832.421821468187
 31
0.0
  0
LINE
  5
2E3
330
17
100
AcDbEntity
  8
Hachura
 62
7
370
25
100
AcDbLine
 10
7695.7731002508435
 20
6832.758822200364
 30
0.0
 11
7696.700322925925
 21
6832.758822200364
 31
0.0
  0
LINE
  5
2E4
330
17
100
AcDbEntity
  8
Hachura
 62
7
370
25
100
AcDbLine
 10
7695.7731002508435
 20
6832.969447947409
 30
0.0
 11
7696.700322925925
 21
6832.969447947409
 31
0.0
  0
LINE
  5
2E5
330
17
100
AcDbEntity
  8
Hachura
 62
7
370
25
100
AcDbLine
 10
7821.494633370058
 20
6826.660205307828
 30
0.0
 11
7689.694266242536
 21
6826.668746518703
 31
0.0
  0
LINE
  5
2E6
330
17
100
AcDbEntity
  8
Nível
 62
7
370
25
100
AcDbLine
 10
8126.40177517126
 20
6444.947916566561
 30
0.0
 11
8956.236578935095
 21
6444.947916566561
 31
0.0
  0
LINE
  5
2E7
330
17
100
AcDbEntity
  8
SARR_2.2x7
 62
7
370
25
100
AcDbLine
 10
8204.865728335244
 20
6446.947916566561
 30
0.0
 11
8204.865728335244
 21
6568.94791656656
 31
0.0
  0
LINE
  5
2E8
330
17
100
AcDbEntity
  8
SARR_2.2x7
 62
7
370
25
100
AcDbLine
 10
8312.865728335186
 20
6446.947916566576
 30
0.0
 11
8312.865728335186
 21
6568.94791656656
 31
0.0
  0
LINE
  5
2E9
330
17
100
AcDbEntity
  8
SARR_2.2x7
 62
7
370
25
100
AcDbLine
 10
8204.865728335244
 20
6446.947916566561
 30
0.0
 11
8204.865728335244
 21
6446.947916566589
 31
0.0
  0
LINE
  5
2EA
330
17
100
AcDbEntity
  8
SARR_2.2x7
 62
7
370
25
100
AcDbLine
 10
8312.865728335186
 20
6446.947916566576
 30
0.0
 11
8312.865728335186
 21
6446.947916566561
 31
0.0
  0
LINE
  5
2EB
330
17
100
AcDbEntity
  8
Painéis
 62
7
370
25
100
AcDbLine
 10
8319.865728335244
 20
6444.947916566052
 30
0.0
 11
8319.865728335188
 21
6568.94791656656
 31
0.0
  0
LINE
  5
2EC
330
17
100
AcDbEntity
  8
Painéis
 62
7
370
25
100
AcDbLine
 10
8319.86572833513
 20
6568.947916566564
 30
0.0
 11
8319.865728335088
 21
6665.947916566558
 31
0.0
  0
LINE
  5
2ED
330
17
100
AcDbEntity
  8
Painéis
 62
7
370
25
100
AcDbLine
 10
8197.865728335244
 20
6665.947916566563
 30
0.0
 11
8197.865728335244
 21
6568.947916566563
 31
0.0
  0
LINE
  5
2EE
330
17
100
AcDbEntity
  8
Painéis
 62
7
370
25
100
AcDbLine
 10
8197.865728335242
 20
6568.94791656656
 30
0.0
 11
8197.86572833524
 21
6444.94791656608
 31
0.0
  0
LINE
  5
2EF
330
17
100
AcDbEntity
  8
Painéis
 62
7
370
25
100
AcDbLine
 10
8197.86572833524
 20
6446.947916566561
 30
0.0
 11
8319.865728335244
 21
6446.947916566561
 31
0.0
  0
LINE
  5
2F0
330
17
100
AcDbEntity
  8
SARR_2.2x7
 62
7
370
25
100
AcDbLine
 10
8312.865728335179
 20
6568.947916566563
 30
0.0
 11
8312.86572833504
 21
6665.947916566558
 31
0.0
  0
LINE
  5
2F1
330
17
100
AcDbEntity
  8
SARR_2.2x7
 62
7
370
25
100
AcDbLine
 10
8204.865728335175
 20
6568.947916566564
 30
0.0
 11
8204.865728335186
 21
6665.94791656656
 31
0.0
  0
LINE
  5
2F2
330
17
100
AcDbEntity
  8
Painéis
 62
7
370
25
100
AcDbLine
 10
8319.865728335186
 20
6568.94791656656
 30
0.0
 11
8197.86572833524
 21
6568.947916566563
 31
0.0
  0
LINE
  5
2F3
330
17
100
AcDbEntity
  8
Painéis
 62
7
370
25
100
AcDbLine
 10
8319.865728335026
 20
6665.947916566558
 30
0.0
 11
8197.865728335244
 21
6665.94791656656
 31
0.0
  0
LINE
  5
2F4
330
17
100
AcDbEntity
  8
SARR_2.2x7
 62
7
370
25
100
AcDbLine
 10
8442.816106230042
 20
6446.947916566561
 30
0.0
 11
8442.816106230042
 21
6568.94791656656
 31
0.0
  0
LINE
  5
2F5
330
17
100
AcDbEntity
  8
SARR_2.2x7
 62
7
370
25
100
AcDbLine
 10
8550.816106229984
 20
6446.947916566576
 30
0.0
 11
8550.816106229984
 21
6568.94791656656
 31
0.0
  0
LINE
  5
2F6
330
17
100
AcDbEntity
  8
SARR_2.2x7
 62
7
370
25
100
AcDbLine
 10
8442.816106230042
 20
6446.947916566561
 30
0.0
 11
8442.816106230042
 21
6446.947916566589
 31
0.0
  0
LINE
  5
2F7
330
17
100
AcDbEntity
  8
SARR_2.2x7
 62
7
370
25
100
AcDbLine
 10
8550.816106229984
 20
6446.947916566576
 30
0.0
 11
8550.816106229984
 21
6446.947916566561
 31
0.0
  0
LINE
  5
2F8
330
17
100
AcDbEntity
  8
Painéis
 62
7
370
25
100
AcDbLine
 10
8557.816106230042
 20
6444.947916566052
 30
0.0
 11
8557.816106229984
 21
6568.94791656656
 31
0.0
  0
LINE
  5
2F9
330
17
100
AcDbEntity
  8
Painéis
 62
7
370
25
100
AcDbLine
 10
8557.81610622993
 20
6568.947916566563
 30
0.0
 11
8557.816106229886
 21
6665.94791656656
 31
0.0
  0
LINE
  5
2FA
330
17
100
AcDbEntity
  8
Painéis
 62
7
370
25
100
AcDbLine
 10
8435.816106230042
 20
6665.947916566563
 30
0.0
 11
8435.81610623004
 21
6568.947916566564
 31
0.0
  0
LINE
  5
2FB
330
17
100
AcDbEntity
  8
Painéis
 62
7
370
25
100
AcDbLine
 10
8435.81610623004
 20
6568.947916566563
 30
0.0
 11
8435.816106230039
 21
6444.94791656608
 31
0.0
  0
LINE
  5
2FC
330
17
100
AcDbEntity
  8
Painéis
 62
7
370
25
100
AcDbLine
 10
8435.816106230039
 20
6446.947916566561
 30
0.0
 11
8557.816106230042
 21
6446.947916566561
 31
0.0
  0
LINE
  5
2FD
330
17
100
AcDbEntity
  8
SARR_2.2x7
 62
7
370
25
100
AcDbLine
 10
8550.816106229979
 20
6568.947916566563
 30
0.0
 11
8550.816106229839
 21
6665.947916566558
 31
0.0
  0
LINE
  5
2FE
330
17
100
AcDbEntity
  8
SARR_2.2x7
 62
7
370
25
100
AcDbLine
 10
8442.816106229973
 20
6568.947916566564
 30
0.0
 11
8442.816106229984
 21
6665.94791656656
 31
0.0
  0
LINE
  5
2FF
330
17
100
AcDbEntity
  8
Painéis
 62
7
370
25
100
AcDbLine
 10
8557.816106229982
 20
6568.94791656656
 30
0.0
 11
8435.816106230039
 21
6568.947916566563
 31
0.0
  0
LINE
  5
300
330
17
100
AcDbEntity
  8
Painéis
 62
7
370
25
100
AcDbLine
 10
8557.816106229822
 20
6665.947916566558
 30
0.0
 11
8435.816106230042
 21
6665.94791656656
 31
0.0
  0
LINE
  5
301
330
17
100
AcDbEntity
  8
COTA
 62
7
370
25
100
AcDbLine
 10
8557.81610623009
 20
6706.947916566599
 30
0.0
 11
8557.81610623004
 21
6765.947916566601
 31
0.0
  0
LINE
  5
302
330
17
100
AcDbEntity
  8
COTA
 62
7
370
25
100
AcDbLine
 10
8557.81610623004
 20
6765.947916566601
 30
0.0
 11
8435.816106229991
 21
6765.947916566599
 31
0.0
  0
LINE
  5
303
330
17
100
AcDbEntity
  8
COTA
 62
7
370
25
100
AcDbLine
 10
8435.816106230042
 20
6706.947916566561
 30
0.0
 11
8435.816106229991
 21
6765.947916566599
 31
0.0
  0
LINE
  5
304
330
17
100
AcDbEntity
  8
COTA
 62
7
370
25
100
AcDbLine
 10
8197.865728335244
 20
6706.947916566559
 30
0.0
 11
8197.865728335244
 21
6765.94791656656
 31
0.0
  0
LINE
  5
305
330
17
100
AcDbEntity
  8
COTA
 62
7
370
25
100
AcDbLine
 10
8319.86572833507
 20
6706.947916566559
 30
0.0
 11
8319.865728335042
 21
6765.94791656656
 31
0.0
  0
LINE
  5
306
330
17
100
AcDbEntity
  8
COTA
 62
7
370
25
100
AcDbLine
 10
8319.865728335042
 20
6765.947916566616
 30
0.0
 11
8197.865728335244
 21
6765.947916566564
 31
0.0
  0
LINE
  5
307
330
17
100
AcDbEntity
  8
SARR_2.2x7
 62
7
370
25
100
AcDbLine
 10
8676.784048398196
 20
6665.94791656656
 30
0.0
 11
8676.784048398258
 21
6446.947916566561
 31
0.0
  0
LINE
  5
308
330
17
100
AcDbEntity
  8
SARR_2.2x7
 62
7
370
25
100
AcDbLine
 10
8671.784048398258
 20
6665.94791656656
 30
0.0
 11
8671.784048398198
 21
6446.947916566561
 31
0.0
  0
LINE
  5
309
330
17
100
AcDbEntity
  8
Painéis
 62
7
370
25
100
AcDbLine
 10
8664.78404839823
 20
6446.947916566561
 30
0.0
 11
8683.784048398227
 21
6446.947916566561
 31
0.0
  0
LINE
  5
30A
330
17
100
AcDbEntity
  8
Painéis
 62
7
370
25
100
AcDbLine
 10
8683.784048398227
 20
6446.947916566561
 30
0.0
 11
8683.784048398225
 21
6665.947916566553
 31
0.0
  0
LINE
  5
30B
330
17
100
AcDbEntity
  8
Painéis
 62
7
370
25
100
AcDbLine
 10
8664.78404839823
 20
6665.947916566563
 30
0.0
 11
8664.78404839823
 21
6446.947916566561
 31
0.0
  0
LINE
  5
30C
330
17
100
AcDbEntity
  8
Painéis
 62
7
370
25
100
AcDbLine
 10
8664.78404839823
 20
6665.947916566563
 30
0.0
 11
8683.784048398225
 21
6665.947916566551
 31
0.0
  0
LINE
  5
30D
330
17
100
AcDbEntity
  8
SARR_2.2x7
 62
7
370
25
100
AcDbLine
 10
8839.271403220484
 20
6665.94791656656
 30
0.0
 11
8839.271403220548
 21
6446.947916566561
 31
0.0
  0
LINE
  5
30E
330
17
100
AcDbEntity
  8
SARR_2.2x7
 62
7
370
25
100
AcDbLine
 10
8834.27140322055
 20
6665.94791656656
 30
0.0
 11
8834.27140322049
 21
6446.947916566561
 31
0.0
  0
LINE
  5
30F
330
17
100
AcDbEntity
  8
Painéis
 62
7
370
25
100
AcDbLine
 10
8827.271403220519
 20
6446.947916566561
 30
0.0
 11
8846.271403220519
 21
6446.947916566561
 31
0.0
  0
LINE
  5
310
330
17
100
AcDbEntity
  8
Painéis
 62
7
370
25
100
AcDbLine
 10
8846.271403220519
 20
6446.947916566561
 30
0.0
 11
8846.271403220517
 21
6665.947916566551
 31
0.0
  0
LINE
  5
311
330
17
100
AcDbEntity
  8
Painéis
 62
7
370
25
100
AcDbLine
 10
8827.271403220517
 20
6665.947916566563
 30
0.0
 11
8827.271403220519
 21
6446.947916566561
 31
0.0
  0
LINE
  5
312
330
17
100
AcDbEntity
  8
Painéis
 62
7
370
25
100
AcDbLine
 10
8827.271403220519
 20
6665.947916566563
 30
0.0
 11
8846.271403220517
 21
6665.947916566551
 31
0.0
  0
LINE
  5
313
330
17
100
AcDbEntity
  8
Nível
 62
7
370
25
100
AcDbLine
 10
8014.21579093008
 20
6765.94791656656
 30
0.0
 11
8956.236578935095
 21
6765.94791656656
 31
0.0
  0
LINE
  5
314
330
17
100
AcDbEntity
  8
Painéis
 62
7
370
25
100
AcDbLine
 10
8197.865728335244
 20
6706.947916566559
 30
0.0
 11
8319.865728335117
 21
6706.947916566559
 31
0.0
  0
LINE
  5
315
330
17
100
AcDbEntity
  8
Painéis
 62
7
370
25
100
AcDbLine
 10
8435.816106230042
 20
6706.947916566561
 30
0.0
 11
8557.81610623004
 21
6706.947916566601
 31
0.0
  0
LINE
  5
316
330
17
100
AcDbEntity
  8
Painéis
 62
7
370
25
100
AcDbLine
 10
8664.78404839823
 20
6706.947916566562
 30
0.0
 11
8683.784048398225
 21
6706.947916566551
 31
0.0
  0
LINE
  5
317
330
17
100
AcDbEntity
  8
Painéis
 62
7
370
25
100
AcDbLine
 10
8827.271403220519
 20
6706.947916566562
 30
0.0
 11
8846.271403220517
 21
6706.947916566551
 31
0.0
  0
LINE
  5
318
330
17
100
AcDbEntity
  8
SARR_2.2x7
 62
7
370
25
100
AcDbLine
 10
8204.865728335186
 20
6665.94791656656
 30
0.0
 11
8204.865728335186
 21
6706.947916566559
 31
0.0
  0
LINE
  5
319
330
17
100
AcDbEntity
  8
SARR_2.2x7
 62
7
370
25
100
AcDbLine
 10
8312.86572833504
 20
6665.947916566558
 30
0.0
 11
8312.86572833504
 21
6706.947916566557
 31
0.0
  0
LINE
  5
31A
330
17
100
AcDbEntity
  8
SARR_2.2x7
 62
7
370
25
100
AcDbLine
 10
8442.816106229984
 20
6665.947916566536
 30
0.0
 11
8442.816106229984
 21
6706.947916566534
 31
0.0
  0
LINE
  5
31B
330
17
100
AcDbEntity
  8
SARR_2.2x7
 62
7
370
25
100
AcDbLine
 10
8550.816106229839
 20
6665.947916566558
 30
0.0
 11
8550.816106229839
 21
6706.947916566557
 31
0.0
  0
LINE
  5
31C
330
17
100
AcDbEntity
  8
SARR_2.2x7
 62
7
370
25
100
AcDbLine
 10
8671.784048398258
 20
6665.94791656656
 30
0.0
 11
8671.784048398285
 21
6706.947916566559
 31
0.0
  0
LINE
  5
31D
330
17
100
AcDbEntity
  8
SARR_2.2x7
 62
7
370
25
100
AcDbLine
 10
8676.696227477878
 20
6665.947916566557
 30
0.0
 11
8676.696227477902
 21
6706.947916566555
 31
0.0
  0
LINE
  5
31E
330
17
100
AcDbEntity
  8
SARR_2.2x7
 62
7
370
25
100
AcDbLine
 10
8834.183582300231
 20
6665.947916566563
 30
0.0
 11
8834.183582300257
 21
6706.947916566561
 31
0.0
  0
LINE
  5
31F
330
17
100
AcDbEntity
  8
SARR_2.2x7
 62
7
370
25
100
AcDbLine
 10
8839.183582300167
 20
6665.94791656661
 30
0.0
 11
8839.183582300191
 21
6706.947916566608
 31
0.0
  0
LINE
  5
320
330
17
100
AcDbEntity
  8
Painéis
 62
7
370
25
100
AcDbLine
 10
8846.271403220517
 20
6665.947916566569
 30
0.0
 11
8846.271403220517
 21
6706.947916566551
 31
0.0
  0
LINE
  5
321
330
17
100
AcDbEntity
  8
Painéis
 62
7
370
25
100
AcDbLine
 10
8827.271403220519
 20
6665.947916566569
 30
0.0
 11
8827.271403220519
 21
6706.947916566551
 31
0.0
  0
LINE
  5
322
330
17
100
AcDbEntity
  8
Painéis
 62
7
370
25
100
AcDbLine
 10
8683.784048398227
 20
6665.947916566569
 30
0.0
 11
8683.784048398225
 21
6706.947916566551
 31
0.0
  0
LINE
  5
323
330
17
100
AcDbEntity
  8
Painéis
 62
7
370
25
100
AcDbLine
 10
8664.78404839823
 20
6665.947916566569
 30
0.0
 11
8664.78404839823
 21
6706.947916566551
 31
0.0
  0
LINE
  5
324
330
17
100
AcDbEntity
  8
Painéis
 62
7
370
25
100
AcDbLine
 10
8557.816106230091
 20
6665.947916566313
 30
0.0
 11
8557.81610623009
 21
6706.947916566297
 31
0.0
  0
LINE
  5
325
330
17
100
AcDbEntity
  8
Painéis
 62
7
370
25
100
AcDbLine
 10
8435.816106230044
 20
6665.947916566205
 30
0.0
 11
8435.816106230042
 21
6706.947916566187
 31
0.0
  0
LINE
  5
326
330
17
100
AcDbEntity
  8
Painéis
 62
7
370
25
100
AcDbLine
 10
8319.865728335071
 20
6665.947916566338
 30
0.0
 11
8319.86572833507
 21
6706.947916566322
 31
0.0
  0
LINE
  5
327
330
17
100
AcDbEntity
  8
Painéis
 62
7
370
25
100
AcDbLine
 10
8197.865728335246
 20
6665.947916566569
 30
0.0
 11
8197.865728335244
 21
6706.947916566551
 31
0.0
  0
LINE
  5
328
330
17
100
AcDbEntity
  8
Painéis
 62
7
370
25
100
AcDbLine
 10
8197.865728335244
 20
6691.947916566559
 30
0.0
 11
8319.865728335117
 21
6691.947916566559
 31
0.0
  0
LINE
  5
329
330
17
100
AcDbEntity
  8
Painéis
 62
7
370
25
100
AcDbLine
 10
8435.816106230028
 20
6691.947916566795
 30
0.0
 11
8557.8161062299
 21
6691.947916566795
 31
0.0
  0
LINE
  5
32A
330
17
100
AcDbEntity
  8
Painéis
 62
7
370
25
100
AcDbLine
 10
8664.784048398255
 20
6691.947916566284
 30
0.0
 11
8683.784048398298
 21
6691.947916566284
 31
0.0
  0
LINE
  5
32B
330
17
100
AcDbEntity
  8
Painéis
 62
7
370
25
100
AcDbLine
 10
8827.271403220513
 20
6691.947916566284
 30
0.0
 11
8846.271403220559
 21
6691.947916566284
 31
0.0
  0
LWPOLYLINE
  5
32C
330
17
100
AcDbEntity
  8
SARRAFO
 62
7
370
25
100
AcDbPolyline
 90
4
 70
1
 10
7768.294266156539
 20
6988.659944869262
 10
7768.294266156655
 20
6974.659944883407
 10
7772.694266150975
 20
6974.659944883407
 10
7772.694266150975
 20
6988.659944869262
  0
LWPOLYLINE
  5
32D
330
17
100
AcDbEntity
  8
SARRAFO
 62
7
370
25
100
AcDbPolyline
 90
4
 70
1
 10
7739.094266195237
 20
6744.659944913443
 10
7739.094266195178
 20
6758.659944899297
 10
7734.694266200858
 20
6758.659944899297
 10
7734.694266200858
 20
6744.659944913443
  0
LWPOLYLINE
  5
32E
330
17
100
AcDbEntity
  8
SARRAFO
 62
7
370
25
100
AcDbPolyline
 90
4
 70
1
 10
7768.294266156539
 20
6744.659944913443
 10
7768.294266156655
 20
6758.659944899297
 10
7772.694266150975
 20
6758.659944899297
 10
7772.694266150975
 20
6744.659944913443
  0
LWPOLYLINE
  5
32F
330
17
100
AcDbEntity
  8
SARRAFO
 62
7
370
25
100
AcDbPolyline
 90
4
 70
1
 10
7739.094266195237
 20
6988.659944869262
 10
7739.094266195178
 20
6974.659944883407
 10
7734.694266200858
 20
6974.659944883407
 10
7734.694266200858
 20
6988.659944869262
  0
LWPOLYLINE
  5
330
330
17
100
AcDbEntity
  8
Perfil Metálico
 62
7
370
25
100
AcDbPolyline
 90
4
 70
1
 10
7794.694266181998
 20
6708.659944945252
 10
7806.69426616896
 20
6708.659944945252
 10
7806.69426616896
 20
7024.659944837015
 10
7794.694266181998
 20
7024.659944837015
  0
LWPOLYLINE
  5
331
330
17
100
AcDbEntity
  8
Perfil Metálico
 62
7
370
25
100
AcDbPolyline
 90
4
 70
1
 10
7810.694266164654
 20
7024.659944837015
 10
7790.694266186249
 20
7024.659944837015
 10
7790.694266186249
 20
6708.659944945252
 10
7810.694266164654
 20
6708.659944945252
  0
LWPOLYLINE
  5
332
330
17
100
AcDbEntity
  8
Perfil Metálico
 62
7
370
25
100
AcDbPolyline
 90
4
 70
1
 10
7712.694266225189
 20
6708.659944945252
 10
7700.694266238229
 20
6708.659944945252
 10
7700.694266238229
 20
7024.659944837015
 10
7712.694266225189
 20
7024.659944837015
  0
LWPOLYLINE
  5
333
330
17
100
AcDbEntity
  8
Perfil Metálico
 62
7
370
25
100
AcDbPolyline
 90
4
 70
1
 10
7696.694266242535
 20
7024.659944837015
 10
7716.69426622094
 20
7024.659944837015
 10
7716.69426622094
 20
6708.659944945252
 10
7696.694266242535
 20
6708.659944945252
  0
LWPOLYLINE
  5
334
330
17
100
AcDbEntity
  8
Madeira
 62
7
370
25
100
AcDbPolyline
 90
4
 70
1
 10
7716.69802590536
 20
6974.637592488206
 10
7730.698017466151
 20
6974.652964468255
 10
7730.682645486102
 20
6988.652956029046
 10
7716.682653925311
 20
6988.637584048997
  0
LWPOLYLINE
  5
335
330
17
100
AcDbEntity
  8
Madeira
 62
7
370
25
100
AcDbPolyline
 90
4
 70
1
 10
7716.682653900301
 20
6744.644572932831
 10
7730.682645511151
 20
6744.659944912918
 10
7730.682645511122
 20
6988.652956029056
 10
7716.682653900273
 20
6988.637584048968
  0
LWPOLYLINE
  5
336
330
17
100
AcDbEntity
  8
Madeira
 62
7
370
25
100
AcDbPolyline
 90
4
 70
1
 10
7790.705878451532
 20
6744.644572932831
 10
7776.705886840682
 20
6744.659944912918
 10
7776.705886840712
 20
6988.652956029056
 10
7790.705878451561
 20
6988.637584048968
  0
LWPOLYLINE
  5
337
330
17
100
AcDbEntity
  8
CHAPA
 62
7
370
25
100
AcDbPolyline
 90
4
 70
1
 10
7734.694266256214
 20
6988.659944868797
 10
7730.694266256215
 20
6988.659944868797
 10
7730.694266256215
 20
6744.659944913443
 10
7734.694266256214
 20
6744.659944913443
  0
LWPOLYLINE
  5
338
330
17
100
AcDbEntity
  8
CHAPA
 62
7
370
25
100
AcDbPolyline
 90
4
 70
1
 10
7772.694266095619
 20
6988.659944868797
 10
7776.694266095619
 20
6988.659944868797
 10
7776.694266095619
 20
6744.659944913443
 10
7772.694266095619
 20
6744.659944913443
  0
LWPOLYLINE
  5
339
330
17
100
AcDbEntity
  8
CHAPA
 62
7
370
25
100
AcDbPolyline
 90
4
 70
1
 10
7772.694266095619
 20
6763.05994488899
 10
7772.694266095619
 20
6766.659944888996
 10
7734.694266256214
 20
6766.659944888996
 10
7734.694266256214
 20
6763.05994488899
  0
LWPOLYLINE
  5
33A
330
17
100
AcDbEntity
  8
CHAPA
 62
7
370
25
100
AcDbPolyline
 90
4
 70
1
 10
7772.694266095678
 20
6966.659944888995
 10
7772.694266095678
 20
6970.259944889001
 10
7734.694266256273
 20
6970.259944889001
 10
7734.694266256273
 20
6966.659944888995
  0
LWPOLYLINE
  5
33B
330
17
100
AcDbEntity
  8
CHAPA
 62
7
370
25
100
AcDbPolyline
 90
4
 70
1
 10
7734.694266256214
 20
6988.659944868797
 10
7730.694266256215
 20
6988.659944868797
 10
7730.694266256215
 20
6744.659944913443
 10
7734.694266256214
 20
6744.659944913443
  0
LWPOLYLINE
  5
33C
330
17
100
AcDbEntity
  8
CHAPA
 62
7
370
25
100
AcDbPolyline
 90
4
 70
1
 10
7772.694266095619
 20
6988.659944868797
 10
7776.694266095619
 20
6988.659944868797
 10
7776.694266095619
 20
6744.659944913443
 10
7772.694266095619
 20
6744.659944913443
  0
LWPOLYLINE
  5
33D
330
17
100
AcDbEntity
  8
CHAPA
 62
7
370
25
100
AcDbPolyline
 90
4
 70
1
 10
7772.694266095619
 20
6763.05994488899
 10
7772.694266095619
 20
6766.659944888996
 10
7734.694266256214
 20
6766.659944888996
 10
7734.694266256214
 20
6763.05994488899
  0
LWPOLYLINE
  5
33E
330
17
100
AcDbEntity
  8
CHAPA
 62
7
370
25
100
AcDbPolyline
 90
4
 70
1
 10
7772.694266095678
 20
6966.659944888995
 10
7772.694266095678
 20
6970.259944889001
 10
7734.694266256273
 20
6970.259944889001
 10
7734.694266256273
 20
6966.659944888995
  0
LWPOLYLINE
  5
33F
330
17
100
AcDbEntity
  8
SARRAFO
 62
7
370
25
100
AcDbPolyline
 90
4
 70
1
 10
7748.694266352751
 20
6763.059944893703
 10
7734.694266366897
 20
6763.059944893616
 10
7734.694266366897
 20
6758.659944899297
 10
7748.694266352751
 20
6758.659944899297
  0
LWPOLYLINE
  5
340
330
17
100
AcDbEntity
  8
SARRAFO
 62
7
370
25
100
AcDbPolyline
 90
4
 70
1
 10
7748.69426635281
 20
6974.659944883407
 10
7734.694266366954
 20
6974.659944883319
 10
7734.694266366954
 20
6970.259944889001
 10
7748.69426635281
 20
6970.259944889001
  0
LWPOLYLINE
  5
341
330
17
100
AcDbEntity
  8
SARRAFO
 62
7
370
25
100
AcDbPolyline
 90
4
 70
1
 10
7758.694265999082
 20
6763.059944893703
 10
7772.694265984937
 20
6763.059944893616
 10
7772.694265984937
 20
6758.659944899297
 10
7758.694265999082
 20
6758.659944899297
  0
LWPOLYLINE
  5
342
330
17
100
AcDbEntity
  8
SARRAFO
 62
7
370
25
100
AcDbPolyline
 90
4
 70
1
 10
7758.694265999024
 20
6974.659944883407
 10
7772.694265984879
 20
6974.659944883319
 10
7772.694265984879
 20
6970.259944889001
 10
7758.694265999024
 20
6970.259944889001
  0
LWPOLYLINE
  5
343
330
17
100
AcDbEntity
  8
Painéis
 62
7
370
25
100
AcDbPolyline
 90
4
 70
1
 10
7734.694266256214
 20
6766.659944888996
 10
7772.694266095619
 20
6766.659944888996
 10
7772.694266095619
 20
6966.659944888995
 10
7734.694266256214
 20
6966.659944888995
  0
LWPOLYLINE
  5
344
330
17
100
AcDbEntity
  8
Madeira
 62
7
370
25
100
AcDbPolyline
 90
4
 70
1
 10
7790.709629636468
 20
6758.644564494175
 10
7776.709638075677
 20
6758.659936474224
 10
7776.694266095627
 20
6744.659944913433
 10
7790.694257656419
 20
6744.644572933384
  0
LWPOLYLINE
  5
345
330
17
100
AcDbEntity
  8
Madeira
 62
7
370
25
100
AcDbPolyline
 90
4
 70
1
 10
7790.702035392205
 20
6925.144474981852
 10
7790.709721382222
 20
6932.144470755117
 10
7776.709729835691
 20
6932.159842735151
 10
7776.702043845675
 20
6925.159846961886
  0
LWPOLYLINE
  5
346
330
17
100
AcDbEntity
  8
Madeira
 62
7
370
25
100
AcDbPolyline
 90
4
 70
1
 10
7790.702035392205
 20
6801.144508142524
 10
7790.709721382222
 20
6808.144503915789
 10
7776.709729835691
 20
6808.159875895823
 10
7776.702043845675
 20
6801.159880122557
  0
LWPOLYLINE
  5
347
330
17
100
AcDbEntity
  8
Madeira
 62
7
370
25
100
AcDbPolyline
 90
4
 70
1
 10
7790.702035392205
 20
6863.144474981853
 10
7790.709721382222
 20
6870.144470755118
 10
7776.709729835691
 20
6870.159842735152
 10
7776.702043845675
 20
6863.159846961887
  0
LWPOLYLINE
  5
348
330
17
100
AcDbEntity
  8
Painéis
 62
7
370
25
100
AcDbPolyline
 90
4
 70
1
 10
8319.865728335244
 20
6446.947916566561
 10
8197.865728335244
 20
6446.94791656659
 10
8197.865728335244
 20
6444.94791656659
 10
8319.865728335244
 20
6444.947916566561
  0
LWPOLYLINE
  5
349
330
17
100
AcDbEntity
  8
Painéis
 62
7
370
25
100
AcDbPolyline
 90
4
 70
1
 10
8557.816106230042
 20
6446.947916566561
 10
8435.816106230042
 20
6446.94791656659
 10
8435.816106230042
 20
6444.94791656659
 10
8557.816106230042
 20
6444.947916566561
  0
LWPOLYLINE
  5
34A
330
17
100
AcDbEntity
  8
COTA
 62
7
370
25
100
AcDbPolyline
 90
4
 70
0
 10
8683.784048398227
 20
6706.947916566562
 10
8683.784048398227
 20
6765.94791656656
 10
8664.78404839823
 20
6765.94791656656
 10
8664.78404839823
 20
6706.947916566562
  0
LWPOLYLINE
  5
34B
330
17
100
AcDbEntity
  8
Painéis
 62
7
370
25
100
AcDbPolyline
 90
4
 70
1
 10
8664.78404839823
 20
6446.947916566561
 10
8683.784048398227
 20
6446.947916566561
 10
8683.784048398227
 20
6444.947916566561
 10
8664.78404839823
 20
6444.947916566561
  0
LWPOLYLINE
  5
34C
330
17
100
AcDbEntity
  8
COTA
 62
7
370
25
100
AcDbPolyline
 90
4
 70
0
 10
8846.271403220519
 20
6706.947916566562
 10
8846.271403220519
 20
6765.94791656656
 10
8827.271403220519
 20
6765.94791656656
 10
8827.271403220519
 20
6706.947916566562
  0
LWPOLYLINE
  5
34D
330
17
100
AcDbEntity
  8
Painéis
 62
7
370
25
100
AcDbPolyline
 90
4
 70
1
 10
8827.271403220519
 20
6446.947916566561
 10
8846.271403220519
 20
6446.947916566561
 10
8846.271403220519
 20
6444.947916566561
 10
8827.271403220519
 20
6444.947916566561
  0
TEXT
  5
34E
330
17
100
AcDbEntity
  8
TEXTO_GERAL
 62
7
370
25
100
AcDbText
 10
7739.317012860436
 20
6854.277210027351
 30
0.0
 40
10.99999999889889
  1
A
100
AcDbText
  0
TEXT
  5
34F
330
17
100
AcDbEntity
  8
TEXTO_GERAL
 62
7
370
25
100
AcDbText
 10
7755.644685267353
 20
6769.048048531747
 30
0.0
 40
10.99999999889889
  1
D
100
AcDbText
  0
TEXT
  5
350
330
17
100
AcDbEntity
  8
TEXTO_GERAL
 62
7
370
25
100
AcDbText
 10
7750.668784962147
 20
6953.537745690126
 30
0.0
 40
10.99999999889889
  1
C
100
AcDbText
  0
TEXT
  5
351
330
17
100
AcDbEntity
  8
TEXTO_GERAL
 62
7
370
25
100
AcDbText
 10
7759.056528055475
 20
6853.064121484255
 30
0.0
 40
10.99999999889889
  1
B
100
AcDbText
  0
TEXT
  5
352
330
17
100
AcDbEntity
  8
Texto Seção
 62
7
370
25
100
AcDbText
 10
8188.921536724164
 20
6461.776512192736
 30
0.0
 40
13.0
  1
P23.A
100
AcDbText
  0
TEXT
  5
353
330
17
100
AcDbEntity
  8
Texto Seção
 62
7
370
25
100
AcDbText
 10
8658.29367985254
 20
6456.237490144776
 30
0.0
 40
13.0
  1
P23.C
100
AcDbText
  0
TEXT
  5
354
330
17
100
AcDbEntity
  8
Texto Seção
 62
7
370
25
100
AcDbText
 10
8822.077371058527
 20
6456.237490144776
 30
0.0
 40
13.0
  1
P23.D
100
AcDbText
  0
TEXT
  5
355
330
17
100
AcDbEntity
  8
Texto Seção
 62
7
370
25
100
AcDbText
 10
8426.871914618961
 20
6461.776512192736
 30
0.0
 40
13.0
  1
P23.B
100
AcDbText
  0
TEXT
  5
356
330
17
100
AcDbEntity
  8
NOMENCLATURA
 62
7
370
25
100
AcDbText
 10
8764.732135952732
 20
7085.458603349067
 30
0.0
 40
16.0
  1
13° PAVIMENTO - PD: 3.21\PNIVEL DE SAÍDA: 848.98\PNIVEL DE CHEGADA: 852.19
100
AcDbText
  0
HATCH
  5
357
330
17
100
AcDbEntity
  8
Hachura
 62
7
100
AcDbHatch
 10
0.0
 20
0.0
 30
0.0
210
0.0
220
0.0
230
1.0
  2
SOLID
 70
1
 71
0
 91
1
 92
3
 72
0
 73
1
 93
8
 10
7734.694266200858
 20
6974.659944883407
 10
7739.094266195178
 20
6974.659944883407
 10
7739.094266195178
 20
6974.659944883407
 10
7739.094266195265
 20
6988.659944869262
 10
7739.094266195237
 20
6988.659944869262
 10
7734.69426620083
 20
6988.659944869262
 10
7734.694266200858
 20
6988.659944869262
 10
7734.694266200858
 20
6974.659944883407
 97
0
 75
1
 76
1
 98
0
  0
HATCH
  5
358
330
17
100
AcDbEntity
  8
Hachura
 62
7
100
AcDbHatch
 10
0.0
 20
0.0
 30
0.0
210
0.0
220
0.0
230
1.0
  2
SOLID
 70
1
 71
0
 91
1
 92
3
 72
0
 73
1
 93
8
 10
7772.694266150975
 20
6974.659944883407
 10
7768.294266156655
 20
6974.659944883407
 10
7768.294266156655
 20
6974.659944883407
 10
7768.294266156569
 20
6988.659944869262
 10
7768.294266156539
 20
6988.659944869262
 10
7772.694266150946
 20
6988.659944869262
 10
7772.694266150975
 20
6988.659944869262
 10
7772.694266150975
 20
6974.659944883407
 97
0
 75
1
 76
1
 98
0
  0
HATCH
  5
359
330
17
100
AcDbEntity
  8
Hachura
 62
7
100
AcDbHatch
 10
0.0
 20
0.0
 30
0.0
210
0.0
220
0.0
230
1.0
  2
SOLID
 70
1
 71
0
 91
1
 92
3
 72
0
 73
1
 93
8
 10
7734.694266200858
 20
6758.659944899297
 10
7739.094266195178
 20
6758.659944899297
 10
7739.094266195178
 20
6758.659944899297
 10
7739.094266195265
 20
6744.659944913443
 10
7739.094266195237
 20
6744.659944913443
 10
7734.69426620083
 20
6744.659944913443
 10
7734.694266200858
 20
6744.659944913443
 10
7734.694266200858
 20
6758.659944899297
 97
0
 75
1
 76
1
 98
0
  0
HATCH
  5
35A
330
17
100
AcDbEntity
  8
Hachura
 62
7
100
AcDbHatch
 10
0.0
 20
0.0
 30
0.0
210
0.0
220
0.0
230
1.0
  2
SOLID
 70
1
 71
0
 91
1
 92
3
 72
0
 73
1
 93
8
 10
7734.694266256214
 20
6988.659944868797
 10
7730.694266256215
 20
6988.659944868797
 10
7730.694266256215
 20
6988.659944868797
 10
7730.694266256215
 20
6744.659944913443
 10
7730.694266256215
 20
6744.659944913443
 10
7734.694266256214
 20
6744.659944913443
 10
7734.694266256214
 20
6744.659944913443
 10
7734.694266256214
 20
6988.659944868797
 97
0
 75
1
 76
1
 98
0
  0
HATCH
  5
35B
330
17
100
AcDbEntity
  8
Hachura
 62
7
100
AcDbHatch
 10
0.0
 20
0.0
 30
0.0
210
0.0
220
0.0
230
1.0
  2
SOLID
 70
1
 71
0
 91
1
 92
3
 72
0
 73
1
 93
8
 10
7772.694266095619
 20
6988.659944868797
 10
7776.694266095619
 20
6988.659944868797
 10
7776.694266095619
 20
6988.659944868797
 10
7776.694266095619
 20
6744.659944913443
 10
7776.694266095619
 20
6744.659944913443
 10
7772.694266095619
 20
6744.659944913443
 10
7772.694266095619
 20
6744.659944913443
 10
7772.694266095619
 20
6988.659944868797
 97
0
 75
1
 76
1
 98
0
  0
HATCH
  5
35C
330
17
100
AcDbEntity
  8
Hachura
 62
7
100
AcDbHatch
 10
0.0
 20
0.0
 30
0.0
210
0.0
220
0.0
230
1.0
  2
SOLID
 70
1
 71
0
 91
1
 92
3
 72
0
 73
1
 93
8
 10
7772.694266095619
 20
6763.05994488899
 10
7772.694266095619
 20
6766.659944888996
 10
7772.694266095619
 20
6766.659944888996
 10
7734.694266256214
 20
6766.659944888996
 10
7734.694266256214
 20
6766.659944888996
 10
7734.694266256214
 20
6763.05994488899
 10
7734.694266256214
 20
6763.05994488899
 10
7772.694266095619
 20
6763.05994488899
 97
0
 75
1
 76
1
 98
0
  0
HATCH
  5
35D
330
17
100
AcDbEntity
  8
Hachura
 62
7
100
AcDbHatch
 10
0.0
 20
0.0
 30
0.0
210
0.0
220
0.0
230
1.0
  2
SOLID
 70
1
 71
0
 91
1
 92
3
 72
0
 73
1
 93
8
 10
7772.694266095678
 20
6966.659944888995
 10
7772.694266095678
 20
6970.259944889001
 10
7772.694266095678
 20
6970.259944889001
 10
7734.694266256273
 20
6970.259944889001
 10
7734.694266256273
 20
6970.259944889001
 10
7734.694266256273
 20
6966.659944888995
 10
7734.694266256273
 20
6966.659944888995
 10
7772.694266095678
 20
6966.659944888995
 97
0
 75
1
 76
1
 98
0
  0
HATCH
  5
35E
330
17
100
AcDbEntity
  8
Hachura
 62
7
100
AcDbHatch
 10
0.0
 20
0.0
 30
0.0
210
0.0
220
0.0
230
1.0
  2
SOLID
 70
1
 71
0
 91
1
 92
3
 72
0
 73
1
 93
8
 10
7772.694266150975
 20
6758.659944899297
 10
7768.294266156655
 20
6758.659944899297
 10
7768.294266156655
 20
6758.659944899297
 10
7768.294266156569
 20
6744.659944913443
 10
7768.294266156539
 20
6744.659944913443
 10
7772.694266150946
 20
6744.659944913443
 10
7772.694266150975
 20
6744.659944913443
 10
7772.694266150975
 20
6758.659944899297
 97
0
 75
1
 76
1
 98
0
  0
HATCH
  5
35F
330
17
100
AcDbEntity
  8
Hachura
 62
7
100
AcDbHatch
 10
0.0
 20
0.0
 30
0.0
210
0.0
220
0.0
230
1.0
  2
SOLID
 70
1
 71
0
 91
1
 92
3
 72
0
 73
1
 93
8
 10
7734.694266256214
 20
6988.659944868797
 10
7730.694266256215
 20
6988.659944868797
 10
7730.694266256215
 20
6988.659944868797
 10
7730.694266256215
 20
6744.659944913443
 10
7730.694266256215
 20
6744.659944913443
 10
7734.694266256214
 20
6744.659944913443
 10
7734.694266256214
 20
6744.659944913443
 10
7734.694266256214
 20
6988.659944868797
 97
0
 75
1
 76
1
 98
0
  0
HATCH
  5
360
330
17
100
AcDbEntity
  8
Hachura
 62
7
100
AcDbHatch
 10
0.0
 20
0.0
 30
0.0
210
0.0
220
0.0
230
1.0
  2
SOLID
 70
1
 71
0
 91
1
 92
3
 72
0
 73
1
 93
8
 10
7772.694266095619
 20
6988.659944868797
 10
7776.694266095619
 20
6988.659944868797
 10
7776.694266095619
 20
6988.659944868797
 10
7776.694266095619
 20
6744.659944913443
 10
7776.694266095619
 20
6744.659944913443
 10
7772.694266095619
 20
6744.659944913443
 10
7772.694266095619
 20
6744.659944913443
 10
7772.694266095619
 20
6988.659944868797
 97
0
 75
1
 76
1
 98
0
  0
HATCH
  5
361
330
17
100
AcDbEntity
  8
Hachura
 62
7
100
AcDbHatch
 10
0.0
 20
0.0
 30
0.0
210
0.0
220
0.0
230
1.0
  2
SOLID
 70
1
 71
0
 91
1
 92
3
 72
0
 73
1
 93
8
 10
7772.694266095619
 20
6763.05994488899
 10
7772.694266095619
 20
6766.659944888996
 10
7772.694266095619
 20
6766.659944888996
 10
7734.694266256214
 20
6766.659944888996
 10
7734.694266256214
 20
6766.659944888996
 10
7734.694266256214
 20
6763.05994488899
 10
7734.694266256214
 20
6763.05994488899
 10
7772.694266095619
 20
6763.05994488899
 97
0
 75
1
 76
1
 98
0
  0
HATCH
  5
362
330
17
100
AcDbEntity
  8
Hachura
 62
7
100
AcDbHatch
 10
0.0
 20
0.0
 30
0.0
210
0.0
220
0.0
230
1.0
  2
SOLID
 70
1
 71
0
 91
1
 92
3
 72
0
 73
1
 93
8
 10
7772.694266095678
 20
6966.659944888995
 10
7772.694266095678
 20
6970.259944889001
 10
7772.694266095678
 20
6970.259944889001
 10
7734.694266256273
 20
6970.259944889001
 10
7734.694266256273
 20
6970.259944889001
 10
7734.694266256273
 20
6966.659944888995
 10
7734.694266256273
 20
6966.659944888995
 10
7772.694266095678
 20
6966.659944888995
 97
0
 75
1
 76
1
 98
0
  0
HATCH
  5
363
330
17
100
AcDbEntity
  8
Hachura
 62
7
100
AcDbHatch
 10
0.0
 20
0.0
 30
0.0
210
0.0
220
0.0
230
1.0
  2
SOLID
 70
1
 71
0
 91
1
 92
3
 72
0
 73
1
 93
8
 10
7734.694266366897
 20
6758.659944899297
 10
7734.694266366897
 20
6763.059944893616
 10
7734.694266366897
 20
6763.059944893616
 10
7748.694266352751
 20
6763.059944893703
 10
7748.694266352751
 20
6763.059944893703
 10
7748.694266352751
 20
6758.659944899297
 10
7748.694266352751
 20
6758.659944899297
 10
7734.694266366897
 20
6758.659944899297
 97
0
 75
1
 76
1
 98
0
  0
HATCH
  5
364
330
17
100
AcDbEntity
  8
Hachura
 62
7
100
AcDbHatch
 10
0.0
 20
0.0
 30
0.0
210
0.0
220
0.0
230
1.0
  2
SOLID
 70
1
 71
0
 91
1
 92
3
 72
0
 73
1
 93
8
 10
7734.694266366954
 20
6970.259944889001
 10
7734.694266366954
 20
6974.659944883319
 10
7734.694266366954
 20
6974.659944883319
 10
7748.69426635281
 20
6974.659944883407
 10
7748.69426635281
 20
6974.659944883407
 10
7748.69426635281
 20
6970.259944889001
 10
7748.69426635281
 20
6970.259944889001
 10
7734.694266366954
 20
6970.259944889001
 97
0
 75
1
 76
1
 98
0
  0
HATCH
  5
365
330
17
100
AcDbEntity
  8
Hachura
 62
7
100
AcDbHatch
 10
0.0
 20
0.0
 30
0.0
210
0.0
220
0.0
230
1.0
  2
SOLID
 70
1
 71
0
 91
1
 92
3
 72
0
 73
1
 93
8
 10
7772.694265984937
 20
6758.659944899297
 10
7772.694265984937
 20
6763.059944893616
 10
7772.694265984937
 20
6763.059944893616
 10
7758.694265999082
 20
6763.059944893703
 10
7758.694265999082
 20
6763.059944893703
 10
7758.694265999082
 20
6758.659944899297
 10
7758.694265999082
 20
6758.659944899297
 10
7772.694265984937
 20
6758.659944899297
 97
0
 75
1
 76
1
 98
0
  0
HATCH
  5
366
330
17
100
AcDbEntity
  8
Hachura
 62
7
100
AcDbHatch
 10
0.0
 20
0.0
 30
0.0
210
0.0
220
0.0
230
1.0
  2
SOLID
 70
1
 71
0
 91
1
 92
3
 72
0
 73
1
 93
8
 10
7772.694265984879
 20
6970.259944889001
 10
7772.694265984879
 20
6974.659944883319
 10
7772.694265984879
 20
6974.659944883319
 10
7758.694265999024
 20
6974.659944883407
 10
7758.694265999024
 20
6974.659944883407
 10
7758.694265999024
 20
6970.259944889001
 10
7758.694265999024
 20
6970.259944889001
 10
7772.694265984879
 20
6970.259944889001
 97
0
 75
1
 76
1
 98
0
  0
HATCH
  5
367
330
17
100
AcDbEntity
  8
COTA
 62
7
100
AcDbHatch
 10
0.0
 20
0.0
 30
0.0
210
0.0
220
0.0
230
1.0
  2
SOLID
 70
1
 71
0
 91
1
 92
3
 72
0
 73
1
 93
8
 10
8197.865728335244
 20
6765.94791656656
 10
8197.865728335244
 20
6706.947916566559
 10
8197.865728335244
 20
6706.947916566559
 10
8319.86572833507
 20
6706.947916566559
 10
8319.86572833507
 20
6706.947916566559
 10
8319.865728335042
 20
6765.94791656656
 10
8319.865728335042
 20
6765.94791656656
 10
8197.865728335244
 20
6765.94791656656
 97
0
 75
1
 76
1
 98
0
  0
HATCH
  5
368
330
17
100
AcDbEntity
  8
COTA
 62
7
100
AcDbHatch
 10
0.0
 20
0.0
 30
0.0
210
0.0
220
0.0
230
1.0
  2
SOLID
 70
1
 71
0
 91
1
 92
3
 72
0
 73
1
 93
8
 10
8435.816106229991
 20
6765.947916566595
 10
8435.816106230042
 20
6706.947916566564
 10
8435.816106230042
 20
6706.947916566564
 10
8557.816106230093
 20
6706.947916566599
 10
8557.816106230093
 20
6706.947916566599
 10
8557.816106230035
 20
6765.9479165666
 10
8557.816106230035
 20
6765.9479165666
 10
8435.816106229991
 20
6765.947916566595
 97
0
 75
1
 76
1
 98
0
  0
HATCH
  5
369
330
17
100
AcDbEntity
  8
Hachura
 62
7
100
AcDbHatch
 10
0.0
 20
0.0
 30
0.0
210
0.0
220
0.0
230
1.0
  2
SOLID
 70
1
 71
0
 91
1
 92
3
 72
0
 73
1
 93
8
 10
8557.81610623001
 20
6665.94791656656
 10
8435.816106230057
 20
6665.94791656656
 10
8435.816106230057
 20
6665.94791656656
 10
8435.816106230024
 20
6444.947916566552
 10
8435.816106230024
 20
6444.947916566552
 10
8557.816106229977
 20
6444.947916566587
 10
8557.816106229977
 20
6444.947916566587
 10
8557.81610623001
 20
6665.94791656656
 97
0
 75
1
 76
1
 98
0
  0
HATCH
  5
36A
330
17
100
AcDbEntity
  8
Hachura
 62
7
100
AcDbHatch
 10
0.0
 20
0.0
 30
0.0
210
0.0
220
0.0
230
1.0
  2
SOLID
 70
1
 71
0
 91
1
 92
3
 72
0
 73
1
 93
8
 10
8319.865728335211
 20
6665.947916566563
 10
8197.865728335259
 20
6665.94791656656
 10
8197.865728335259
 20
6665.94791656656
 10
8197.865728335226
 20
6444.947916566552
 10
8197.865728335226
 20
6444.947916566552
 10
8319.865728335177
 20
6444.947916566589
 10
8319.865728335177
 20
6444.947916566589
 10
8319.865728335211
 20
6665.947916566563
 97
0
 75
1
 76
1
 98
0
  0
HATCH
  5
36B
330
17
100
AcDbEntity
  8
COTA
 62
7
100
AcDbHatch
 10
0.0
 20
0.0
 30
0.0
210
0.0
220
0.0
230
1.0
  2
SOLID
 70
1
 71
0
 91
1
 92
3
 72
0
 73
1
 93
8
 10
8683.784048398227
 20
6706.947916566559
 10
8683.784048398227
 20
6765.94791656656
 10
8683.784048398227
 20
6765.94791656656
 10
8664.78404839823
 20
6765.94791656656
 10
8664.78404839823
 20
6765.94791656656
 10
8664.784048398227
 20
6706.947916566557
 10
8664.784048398227
 20
6706.947916566557
 10
8683.784048398227
 20
6706.947916566559
 97
0
 75
1
 76
1
 98
0
  0
HATCH
  5
36C
330
17
100
AcDbEntity
  8
COTA
 62
7
100
AcDbHatch
 10
0.0
 20
0.0
 30
0.0
210
0.0
220
0.0
230
1.0
  2
SOLID
 70
1
 71
0
 91
1
 92
3
 72
0
 73
1
 93
8
 10
8846.271403220519
 20
6706.947916566559
 10
8846.271403220519
 20
6765.94791656656
 10
8846.271403220519
 20
6765.94791656656
 10
8827.271403220519
 20
6765.94791656656
 10
8827.271403220519
 20
6765.94791656656
 10
8827.271403220517
 20
6706.947916566557
 10
8827.271403220517
 20
6706.947916566557
 10
8846.271403220519
 20
6706.947916566559
 97
0
 75
1
 76
1
 98
0
  0
HATCH
  5
36D
330
17
100
AcDbEntity
  8
Hachura
 62
7
100
AcDbHatch
 10
0.0
 20
0.0
 30
0.0
210
0.0
220
0.0
230
1.0
  2
SOLID
 70
1
 71
0
 91
1
 92
3
 72
0
 73
1
 93
9
 10
8683.784048398242
 20
6665.94791656656
 10
8664.784048398295
 20
6665.947916566563
 10
8664.784048398295
 20
6665.947916566563
 10
8664.784048398262
 20
6444.947916566555
 10
8664.784048398262
 20
6444.947916566555
 10
8683.78404839821
 20
6444.947916566587
 10
8683.78404839821
 20
6444.947916566587
 10
8683.784048398245
 20
6665.94791656656
 10
8683.784048398242
 20
6665.94791656656
 97
0
 75
1
 76
1
 98
0
  0
HATCH
  5
36E
330
17
100
AcDbEntity
  8
Hachura
 62
7
100
AcDbHatch
 10
0.0
 20
0.0
 30
0.0
210
0.0
220
0.0
230
1.0
  2
SOLID
 70
1
 71
0
 91
1
 92
3
 72
0
 73
1
 93
9
 10
8846.271403220531
 20
6665.947916566558
 10
8827.271403220582
 20
6665.94791656656
 10
8827.271403220582
 20
6665.94791656656
 10
8827.271403220551
 20
6444.947916566554
 10
8827.271403220551
 20
6444.947916566554
 10
8846.2714032205
 20
6444.947916566587
 10
8846.2714032205
 20
6444.947916566587
 10
8846.271403220535
 20
6665.947916566558
 10
8846.271403220531
 20
6665.947916566558
 97
0
 75
1
 76
1
 98
0
  0
ENDSEC
  0
SECTION
  2
OBJECTS
  0
DICTIONARY
  5
A
330
0
100
AcDbDictionary
281
1
  3
ACAD_COLOR
350
B
  3
ACAD_GROUP
350
C
  3
ACAD_LAYOUT
350
D
  3
ACAD_MATERIAL
350
E
  3
ACAD_MLEADERSTYLE
350
F
  3
ACAD_MLINESTYLE
350
10
  3
ACAD_PLOTSETTINGS
350
11
  3
ACAD_PLOTSTYLENAME
350
12
  3
ACAD_SCALELIST
350
14
  3
ACAD_TABLESTYLE
350
15
  3
ACAD_VISUALSTYLE
350
16
  3
EZDXF_META
350
2D
  0
DICTIONARY
  5
B
330
A
100
AcDbDictionary
281
1
  0
DICTIONARY
  5
C
330
A
100
AcDbDictionary
281
1
  0
DICTIONARY
  5
D
330
A
100
AcDbDictionary
281
1
  3
Model
350
1A
  3
Layout1
350
1E
  0
DICTIONARY
  5
E
330
A
100
AcDbDictionary
281
1
  3
ByBlock
350
1F
  3
ByLayer
350
20
  3
Global
350
21
  0
DICTIONARY
  5
F
330
A
100
AcDbDictionary
281
1
  3
Standard
350
2C
  0
DICTIONARY
  5
10
330
A
100
AcDbDictionary
281
1
  3
Standard
350
22
  0
DICTIONARY
  5
11
330
A
100
AcDbDictionary
281
1
  0
ACDBDICTIONARYWDFLT
  5
12
330
A
100
AcDbDictionary
281
1
  3
Normal
350
13
100
AcDbDictionaryWithDefault
340
13
  0
ACDBPLACEHOLDER
  5
13
330
12
  0
DICTIONARY
  5
14
330
A
100
AcDbDictionary
281
1
  0
DICTIONARY
  5
15
330
A
100
AcDbDictionary
281
1
  0
DICTIONARY
  5
16
330
A
100
AcDbDictionary
281
1
  0
LAYOUT
  5
1A
330
D
100
AcDbPlotSettings
  1

  4
A3
  6

 40
7.5
 41
20.0
 42
7.5
 43
20.0
 44
420.0
 45
297.0
 46
0.0
 47
0.0
 48
0.0
 49
0.0
140
0.0
141
0.0
142
1.0
143
1.0
 70
1024
 72
1
 73
0
 74
5
  7

 75
16
 76
0
 77
2
 78
300
147
1.0
148
0.0
149
0.0
100
AcDbLayout
  1
Model
 70
1
 71
0
 10
0.0
 20
0.0
 11
420.0
 21
297.0
 12
0.0
 22
0.0
 32
0.0
 14
1e+20
 24
1e+20
 34
1e+20
 15
-1e+20
 25
-1e+20
 35
-1e+20
146
0.0
 13
0.0
 23
0.0
 33
0.0
 16
1.0
 26
0.0
 36
0.0
 17
0.0
 27
1.0
 37
0.0
 76
1
330
17
  0
LAYOUT
  5
1E
330
D
100
AcDbPlotSettings
  1

  4
A3
  6

 40
7.5
 41
20.0
 42
7.5
 43
20.0
 44
420.0
 45
297.0
 46
0.0
 47
0.0
 48
0.0
 49
0.0
140
0.0
141
0.0
142
1.0
143
1.0
 70
0
 72
1
 73
0
 74
5
  7

 75
16
 76
0
 77
2
 78
300
147
1.0
148
0.0
149
0.0
100
AcDbLayout
  1
Layout1
 70
1
 71
1
 10
0.0
 20
0.0
 11
420.0
 21
297.0
 12
0.0
 22
0.0
 32
0.0
 14
1e+20
 24
1e+20
 34
1e+20
 15
-1e+20
 25
-1e+20
 35
-1e+20
146
0.0
 13
0.0
 23
0.0
 33
0.0
 16
1.0
 26
0.0
 36
0.0
 17
0.0
 27
1.0
 37
0.0
 76
1
330
1B
  0
MATERIAL
  5
1F
102
{ACAD_REACTORS
330
E
102
}
330
E
100
AcDbMaterial
  1
ByBlock
  2

 70
0
 40
1.0
 71
1
 41
1.0
 91
-1023410177
 42
1.0
 72
1
  3

 73
1
 74
1
 75
1
 44
0.5
 73
0
 45
1.0
 46
1.0
 77
1
  4

 78
1
 79
1
170
1
 48
1.0
171
1
  6

172
1
173
1
174
1
140
1.0
141
1.0
175
1
  7

176
1
177
1
178
1
143
1.0
179
1
  8

270
1
271
1
272
1
145
1.0
146
1.0
273
1
  9

274
1
275
1
276
1
 42
1.0
 72
1
  3

 73
1
 74
1
 75
1
 94
63
  0
MATERIAL
  5
20
102
{ACAD_REACTORS
330
E
102
}
330
E
100
AcDbMaterial
  1
ByLayer
  2

 70
0
 40
1.0
 71
1
 41
1.0
 91
-1023410177
 42
1.0
 72
1
  3

 73
1
 74
1
 75
1
 44
0.5
 73
0
 45
1.0
 46
1.0
 77
1
  4

 78
1
 79
1
170
1
 48
1.0
171
1
  6

172
1
173
1
174
1
140
1.0
141
1.0
175
1
  7

176
1
177
1
178
1
143
1.0
179
1
  8

270
1
271
1
272
1
145
1.0
146
1.0
273
1
  9

274
1
275
1
276
1
 42
1.0
 72
1
  3

 73
1
 74
1
 75
1
 94
63
  0
MATERIAL
  5
21
102
{ACAD_REACTORS
330
E
102
}
330
E
100
AcDbMaterial
  1
Global
  2

 70
0
 40
1.0
 71
1
 41
1.0
 91
-1023410177
 42
1.0
 72
1
  3

 73
1
 74
1
 75
1
 44
0.5
 73
0
 45
1.0
 46
1.0
 77
1
  4

 78
1
 79
1
170
1
 48
1.0
171
1
  6

172
1
173
1
174
1
140
1.0
141
1.0
175
1
  7

176
1
177
1
178
1
143
1.0
179
1
  8

270
1
271
1
272
1
145
1.0
146
1.0
273
1
  9

274
1
275
1
276
1
 42
1.0
 72
1
  3

 73
1
 74
1
 75
1
 94
63
  0
MLINESTYLE
  5
22
102
{ACAD_REACTORS
330
10
102
}
330
10
100
AcDbMlineStyle
  2
Standard
 70
0
  3

 62
256
 51
90.0
 52
90.0
 71
2
 49
0.5
 62
256
  6
BYLAYER
 49
-0.5
 62
256
  6
BYLAYER
  0
MLEADERSTYLE
  5
2C
102
{ACAD_REACTORS
330
F
102
}
330
F
100
AcDbMLeaderStyle
179
2
170
2
171
1
172
0
 90
2
 40
0.0
 41
0.0
173
1
 91
-1056964608
 92
-2
290
1
 42
2.0
291
1
 43
8.0
  3
Standard
 44
4.0
300

342
29
174
1
175
1
176
0
178
1
 93
-1056964608
 45
4.0
292
0
297
0
 46
4.0
 94
-1056964608
 47
1.0
 49
1.0
140
1.0
294
1
141
0.0
177
0
142
1.0
295
0
296
0
143
3.75
271
0
272
9
273
9
  0
DICTIONARY
  5
2D
330
A
100
AcDbDictionary
280
1
281
1
  3
CREATED_BY_EZDXF
350
2E
  3
WRITTEN_BY_EZDXF
350
371
  0
DICTIONARYVAR
  5
2E
330
2D
100
DictionaryVariables
280
0
  1
1.4.3 @ 2026-06-10T16:53:30.795071+00:00
  0
DICTIONARYVAR
  5
371
330
2D
100
DictionaryVariables
280
0
  1
1.4.3 @ 2026-06-10T16:53:30.818237+00:00
  0
ENDSEC
  0
EOF
