  0
SECTION
  2
HEADER
  9
$ACADVER
  1
AC1024
  9
$ACADMAINTVER
 70
6
  9
$DWGCODEPAGE
  3
ANSI_1252
  9
$LASTSAVEDBY
  1
ezdxf
  9
$INSBASE
 10
0.0
 20
0.0
 30
0.0
  9
$EXTMIN
 10
1e+20
 20
1e+20
 30
1e+20
  9
$EXTMAX
 10
-1e+20
 20
-1e+20
 30
-1e+20
  9
$LIMMIN
 10
0.0
 20
0.0
  9
$LIMMAX
 10
420.0
 20
297.0
  9
$ORTHOMODE
 70
0
  9
$REGENMODE
 70
1
  9
$FILLMODE
 70
1
  9
$QTEXTMODE
 70
0
  9
$MIRRTEXT
 70
1
  9
$LTSCALE
 40
1.0
  9
$ATTMODE
 70
1
  9
$TEXTSIZE
 40
2.5
  9
$TRACEWID
 40
1.0
  9
$TEXTSTYLE
  7
Standard
  9
$CLAYER
  8
0
  9
$CELTYPE
  6
ByLayer
  9
$CECOLOR
 62
256
  9
$CELTSCALE
 40
1.0
  9
$DISPSILH
 70
0
  9
$DIMSCALE
 40
1.0
  9
$DIMASZ
 40
2.5
  9
$DIMEXO
 40
0.625
  9
$DIMDLI
 40
3.75
  9
$DIMRND
 40
0.0
  9
$DIMDLE
 40
0.0
  9
$DIMEXE
 40
1.25
  9
$DIMTP
 40
0.0
  9
$DIMTM
 40
0.0
  9
$DIMTXT
 40
2.5
  9
$DIMCEN
 40
2.5
  9
$DIMTSZ
 40
0.0
  9
$DIMTOL
 70
0
  9
$DIMLIM
 70
0
  9
$DIMTIH
 70
0
  9
$DIMTOH
 70
0
  9
$DIMSE1
 70
0
  9
$DIMSE2
 70
0
  9
$DIMTAD
 70
1
  9
$DIMZIN
 70
8
  9
$DIMBLK
  1

  9
$DIMASO
 70
1
  9
$DIMSHO
 70
1
  9
$DIMPOST
  1

  9
$DIMAPOST
  1

  9
$DIMALT
 70
0
  9
$DIMALTD
 70
3
  9
$DIMALTF
 40
0.03937007874
  9
$DIMLFAC
 40
1.0
  9
$DIMTOFL
 70
1
  9
$DIMTVP
 40
0.0
  9
$DIMTIX
 70
0
  9
$DIMSOXD
 70
0
  9
$DIMSAH
 70
0
  9
$DIMBLK1
  1

  9
$DIMBLK2
  1

  9
$DIMSTYLE
  2
ISO-25
  9
$DIMCLRD
 70
0
  9
$DIMCLRE
 70
0
  9
$DIMCLRT
 70
0
  9
$DIMTFAC
 40
1.0
  9
$DIMGAP
 40
0.625
  9
$DIMJUST
 70
0
  9
$DIMSD1
 70
0
  9
$DIMSD2
 70
0
  9
$DIMTOLJ
 70
0
  9
$DIMTZIN
 70
8
  9
$DIMALTZ
 70
0
  9
$DIMALTTZ
 70
0
  9
$DIMUPT
 70
0
  9
$DIMDEC
 70
2
  9
$DIMTDEC
 70
2
  9
$DIMALTU
 70
2
  9
$DIMALTTD
 70
3
  9
$DIMTXSTY
  7
Standard
  9
$DIMAUNIT
 70
0
  9
$DIMADEC
 70
0
  9
$DIMALTRND
 40
0.0
  9
$DIMAZIN
 70
0
  9
$DIMDSEP
 70
44
  9
$DIMATFIT
 70
3
  9
$DIMFRAC
 70
0
  9
$DIMLDRBLK
  1

  9
$DIMLUNIT
 70
2
  9
$DIMLWD
 70
-2
  9
$DIMLWE
 70
-2
  9
$DIMTMOVE
 70
0
  9
$DIMFXL
 40
1.0
  9
$DIMFXLON
 70
0
  9
$DIMJOGANG
 40
0.785398163397
  9
$DIMTFILL
 70
0
  9
$DIMTFILLCLR
 70
0
  9
$DIMARCSYM
 70
0
  9
$DIMLTYPE
  6

  9
$DIMLTEX1
  6

  9
$DIMLTEX2
  6

  9
$DIMTXTDIRECTION
 70
0
  9
$LUNITS
 70
2
  9
$LUPREC
 70
4
  9
$SKETCHINC
 40
1.0
  9
$FILLETRAD
 40
10.0
  9
$AUNITS
 70
0
  9
$AUPREC
 70
2
  9
$MENU
  1
.
  9
$ELEVATION
 40
0.0
  9
$PELEVATION
 40
0.0
  9
$THICKNESS
 40
0.0
  9
$LIMCHECK
 70
0
  9
$CHAMFERA
 40
0.0
  9
$CHAMFERB
 40
0.0
  9
$CHAMFERC
 40
0.0
  9
$CHAMFERD
 40
0.0
  9
$SKPOLY
 70
0
  9
$TDCREATE
 40
2461202.612951389
  9
$TDUCREATE
 40
2458532.153996898
  9
$TDUPDATE
 40
2461202.612951389
  9
$TDUUPDATE
 40
2458532.1544311
  9
$TDINDWG
 40
0.0
  9
$TDUSRTIMER
 40
0.0
  9
$USRTIMER
 70
1
  9
$ANGBASE
 50
0.0
  9
$ANGDIR
 70
0
  9
$PDMODE
 70
0
  9
$PDSIZE
 40
0.0
  9
$PLINEWID
 40
0.0
  9
$SPLFRAME
 70
0
  9
$SPLINETYPE
 70
6
  9
$SPLINESEGS
 70
8
  9
$HANDSEED
  5
E0
  9
$SURFTAB1
 70
6
  9
$SURFTAB2
 70
6
  9
$SURFTYPE
 70
6
  9
$SURFU
 70
6
  9
$SURFV
 70
6
  9
$UCSBASE
  2

  9
$UCSNAME
  2

  9
$UCSORG
 10
0.0
 20
0.0
 30
0.0
  9
$UCSXDIR
 10
1.0
 20
0.0
 30
0.0
  9
$UCSYDIR
 10
0.0
 20
1.0
 30
0.0
  9
$UCSORTHOREF
  2

  9
$UCSORTHOVIEW
 70
0
  9
$UCSORGTOP
 10
0.0
 20
0.0
 30
0.0
  9
$UCSORGBOTTOM
 10
0.0
 20
0.0
 30
0.0
  9
$UCSORGLEFT
 10
0.0
 20
0.0
 30
0.0
  9
$UCSORGRIGHT
 10
0.0
 20
0.0
 30
0.0
  9
$UCSORGFRONT
 10
0.0
 20
0.0
 30
0.0
  9
$UCSORGBACK
 10
0.0
 20
0.0
 30
0.0
  9
$PUCSBASE
  2

  9
$PUCSNAME
  2

  9
$PUCSORG
 10
0.0
 20
0.0
 30
0.0
  9
$PUCSXDIR
 10
1.0
 20
0.0
 30
0.0
  9
$PUCSYDIR
 10
0.0
 20
1.0
 30
0.0
  9
$PUCSORTHOREF
  2

  9
$PUCSORTHOVIEW
 70
0
  9
$PUCSORGTOP
 10
0.0
 20
0.0
 30
0.0
  9
$PUCSORGBOTTOM
 10
0.0
 20
0.0
 30
0.0
  9
$PUCSORGLEFT
 10
0.0
 20
0.0
 30
0.0
  9
$PUCSORGRIGHT
 10
0.0
 20
0.0
 30
0.0
  9
$PUCSORGFRONT
 10
0.0
 20
0.0
 30
0.0
  9
$PUCSORGBACK
 10
0.0
 20
0.0
 30
0.0
  9
$USERI1
 70
0
  9
$USERI2
 70
0
  9
$USERI3
 70
0
  9
$USERI4
 70
0
  9
$USERI5
 70
0
  9
$USERR1
 40
0.0
  9
$USERR2
 40
0.0
  9
$USERR3
 40
0.0
  9
$USERR4
 40
0.0
  9
$USERR5
 40
0.0
  9
$WORLDVIEW
 70
1
  9
$SHADEDGE
 70
3
  9
$SHADEDIF
 70
70
  9
$TILEMODE
 70
1
  9
$MAXACTVP
 70
64
  9
$PINSBASE
 10
0.0
 20
0.0
 30
0.0
  9
$PLIMCHECK
 70
0
  9
$PEXTMIN
 10
1e+20
 20
1e+20
 30
1e+20
  9
$PEXTMAX
 10
-1e+20
 20
-1e+20
 30
-1e+20
  9
$PLIMMIN
 10
0.0
 20
0.0
  9
$PLIMMAX
 10
420.0
 20
297.0
  9
$UNITMODE
 70
0
  9
$VISRETAIN
 70
1
  9
$PLINEGEN
 70
0
  9
$PSLTSCALE
 70
1
  9
$TREEDEPTH
 70
3020
  9
$CMLSTYLE
  2
Standard
  9
$CMLJUST
 70
0
  9
$CMLSCALE
 40
20.0
  9
$PROXYGRAPHICS
 70
1
  9
$MEASUREMENT
 70
1
  9
$CELWEIGHT
370
-1
  9
$ENDCAPS
280
0
  9
$JOINSTYLE
280
0
  9
$LWDISPLAY
290
0
  9
$INSUNITS
 70
6
  9
$HYPERLINKBASE
  1

  9
$STYLESHEET
  1

  9
$XEDIT
290
1
  9
$CEPSNTYPE
380
0
  9
$PSTYLEMODE
290
1
  9
$FINGERPRINTGUID
  2
{8DE2A37B-1B9E-4C5A-8570-E8BADC210C0F}
  9
$VERSIONGUID
  2
{0F61A7B0-E4DC-422D-9D6C-F568AA06140C}
  9
$EXTNAMES
290
1
  9
$PSVPSCALE
 40
0.0
  9
$OLESTARTUP
290
0
  9
$SORTENTS
280
127
  9
$INDEXCTL
280
0
  9
$HIDETEXT
280
1
  9
$XCLIPFRAME
280
1
  9
$HALOGAP
280
0
  9
$OBSCOLOR
 70
257
  9
$OBSLTYPE
280
0
  9
$INTERSECTIONDISPLAY
280
0
  9
$INTERSECTIONCOLOR
 70
257
  9
$DIMASSOC
280
2
  9
$PROJECTNAME
  1

  9
$CAMERADISPLAY
290
0
  9
$LENSLENGTH
 40
50.0
  9
$CAMERAHEIGHT
 40
0.0
  9
$STEPSPERSEC
 40
24.0
  9
$STEPSIZE
 40
100.0
  9
$3DDWFPREC
 40
2.0
  9
$PSOLWIDTH
 40
0.005
  9
$PSOLHEIGHT
 40
0.08
  9
$LOFTANG1
 40
1.570796326795
  9
$LOFTANG2
 40
1.570796326795
  9
$LOFTMAG1
 40
0.0
  9
$LOFTMAG2
 40
0.0
  9
$LOFTPARAM
 70
7
  9
$LOFTNORMALS
280
1
  9
$LATITUDE
 40
37.795
  9
$LONGITUDE
 40
-122.394
  9
$NORTHDIRECTION
 40
0.0
  9
$TIMEZONE
 70
-8000
  9
$LIGHTGLYPHDISPLAY
280
1
  9
$TILEMODELIGHTSYNCH
280
1
  9
$CMATERIAL
347
20
  9
$SOLIDHIST
280
0
  9
$SHOWHIST
280
1
  9
$DWFFRAME
280
2
  9
$DGNFRAME
280
2
  9
$REALWORLDSCALE
290
1
  9
$INTERFERECOLOR
 62
256
  9
$CSHADOW
280
0
  9
$SHADOWPLANELOCATION
 40
0.0
  0
ENDSEC
  0
SECTION
  2
CLASSES
  0
CLASS
  1
ACDBDICTIONARYWDFLT
  2
AcDbDictionaryWithDefault
  3
ObjectDBX Classes
 90
0
 91
0
280
0
281
0
  0
CLASS
  1
SUN
  2
AcDbSun
  3
SCENEOE
 90
1153
 91
0
280
0
281
0
  0
CLASS
  1
VISUALSTYLE
  2
AcDbVisualStyle
  3
ObjectDBX Classes
 90
4095
 91
0
280
0
281
0
  0
CLASS
  1
MATERIAL
  2
AcDbMaterial
  3
ObjectDBX Classes
 90
1153
 91
0
280
0
281
0
  0
CLASS
  1
SCALE
  2
AcDbScale
  3
ObjectDBX Classes
 90
1153
 91
0
280
0
281
0
  0
CLASS
  1
TABLESTYLE
  2
AcDbTableStyle
  3
ObjectDBX Classes
 90
4095
 91
0
280
0
281
0
  0
CLASS
  1
MLEADERSTYLE
  2
AcDbMLeaderStyle
  3
ACDB_MLEADERSTYLE_CLASS
 90
4095
 91
0
280
0
281
0
  0
CLASS
  1
DICTIONARYVAR
  2
AcDbDictionaryVar
  3
ObjectDBX Classes
 90
0
 91
0
280
0
281
0
  0
CLASS
  1
CELLSTYLEMAP
  2
AcDbCellStyleMap
  3
ObjectDBX Classes
 90
1152
 91
0
280
0
281
0
  0
CLASS
  1
MENTALRAYRENDERSETTINGS
  2
AcDbMentalRayRenderSettings
  3
SCENEOE
 90
1024
 91
0
280
0
281
0
  0
CLASS
  1
ACDBDETAILVIEWSTYLE
  2
AcDbDetailViewStyle
  3
ObjectDBX Classes
 90
1025
 91
0
280
0
281
0
  0
CLASS
  1
ACDBSECTIONVIEWSTYLE
  2
AcDbSectionViewStyle
  3
ObjectDBX Classes
 90
1025
 91
0
280
0
281
0
  0
CLASS
  1
RASTERVARIABLES
  2
AcDbRasterVariables
  3
ISM
 90
0
 91
0
280
0
281
0
  0
CLASS
  1
ACDBPLACEHOLDER
  2
AcDbPlaceHolder
  3
ObjectDBX Classes
 90
0
 91
0
280
0
281
0
  0
CLASS
  1
LAYOUT
  2
AcDbLayout
  3
ObjectDBX Classes
 90
0
 91
0
280
0
281
0
  0
ENDSEC
  0
SECTION
  2
TABLES
  0
TABLE
  2
VPORT
  5
8
330
0
100
AcDbSymbolTable
 70
1
  0
VPORT
  5
23
330
8
100
AcDbSymbolTableRecord
100
AcDbViewportTableRecord
  2
*Active
 70
0
 10
0.0
 20
0.0
 11
1.0
 21
1.0
 12
0.0
 22
0.0
 13
0.0
 23
0.0
 14
0.5
 24
0.5
 15
0.5
 25
0.5
 16
0.0
 26
0.0
 36
1.0
 17
0.0
 27
0.0
 37
0.0
 40
1000.0
 41
1.34
 42
50.0
 43
0.0
 44
0.0
 50
0.0
 51
0.0
 71
0
 72
1000
 73
1
 74
3
 75
0
 76
0
 77
0
 78
0
281
0
 65
0
146
0.0
  0
ENDTAB
  0
TABLE
  2
LTYPE
  5
2
330
0
100
AcDbSymbolTable
 70
3
  0
LTYPE
  5
24
330
2
100
AcDbSymbolTableRecord
100
AcDbLinetypeTableRecord
  2
ByBlock
 70
0
  3

 72
65
 73
0
 40
0.0
  0
LTYPE
  5
25
330
2
100
AcDbSymbolTableRecord
100
AcDbLinetypeTableRecord
  2
ByLayer
 70
0
  3

 72
65
 73
0
 40
0.0
  0
LTYPE
  5
26
330
2
100
AcDbSymbolTableRecord
100
AcDbLinetypeTableRecord
  2
Continuous
 70
0
  3

 72
65
 73
0
 40
0.0
  0
ENDTAB
  0
TABLE
  2
LAYER
  5
1
330
0
100
AcDbSymbolTable
 70
8
  0
LAYER
  5
27
330
1
100
AcDbSymbolTableRecord
100
AcDbLayerTableRecord
  2
0
 70
0
 62
7
  6
Continuous
370
-3
390
13
347
21
  0
LAYER
  5
28
330
1
100
AcDbSymbolTableRecord
100
AcDbLayerTableRecord
  2
Defpoints
 70
0
 62
7
  6
Continuous
290
0
370
-3
390
13
347
21
  0
LAYER
  5
2F
330
1
100
AcDbSymbolTableRecord
100
AcDbLayerTableRecord
  2
4
 70
0
 62
7
  6
Continuous
370
-3
390
13
347
21
  0
LAYER
  5
30
330
1
100
AcDbSymbolTableRecord
100
AcDbLayerTableRecord
  2
7
 70
0
 62
7
  6
Continuous
370
-3
390
13
347
21
  0
LAYER
  5
31
330
1
100
AcDbSymbolTableRecord
100
AcDbLayerTableRecord
  2
3
 70
0
 62
7
  6
Continuous
370
-3
390
13
347
21
  0
LAYER
  5
32
330
1
100
AcDbSymbolTableRecord
100
AcDbLayerTableRecord
  2
Painéis
 70
0
 62
7
  6
Continuous
370
-3
390
13
347
21
  0
LAYER
  5
33
330
1
100
AcDbSymbolTableRecord
100
AcDbLayerTableRecord
  2
REAPROVEITAMENTO
 70
0
 62
7
  6
Continuous
370
-3
390
13
347
21
  0
LAYER
  5
34
330
1
100
AcDbSymbolTableRecord
100
AcDbLayerTableRecord
  2
AUX00
 70
0
 62
7
  6
Continuous
370
-3
390
13
347
21
  0
ENDTAB
  0
TABLE
  2
STYLE
  5
5
330
0
100
AcDbSymbolTable
 70
1
  0
STYLE
  5
29
330
5
100
AcDbSymbolTableRecord
100
AcDbTextStyleTableRecord
  2
Standard
 70
0
 40
0.0
 41
1.0
 50
0.0
 71
0
 42
2.5
  3
txt
  4

  0
ENDTAB
  0
TABLE
  2
VIEW
  5
7
330
0
100
AcDbSymbolTable
 70
0
  0
ENDTAB
  0
TABLE
  2
UCS
  5
6
330
0
100
AcDbSymbolTable
 70
0
  0
ENDTAB
  0
TABLE
  2
APPID
  5
3
330
0
100
AcDbSymbolTable
 70
3
  0
APPID
  5
2A
330
3
100
AcDbSymbolTableRecord
100
AcDbRegAppTableRecord
  2
ACAD
 70
0
  0
APPID
  5
DD
330
3
100
AcDbSymbolTableRecord
100
AcDbRegAppTableRecord
  2
HATCHBACKGROUNDCOLOR
 70
0
  0
APPID
  5
DE
330
3
100
AcDbSymbolTableRecord
100
AcDbRegAppTableRecord
  2
EZDXF
 70
0
  0
ENDTAB
  0
TABLE
  2
DIMSTYLE
  5
4
330
0
100
AcDbSymbolTable
 70
1
100
AcDbDimStyleTable
  0
DIMSTYLE
105
2B
330
4
100
AcDbSymbolTableRecord
100
AcDbDimStyleTableRecord
  2
Standard
 70
0
 40
1.0
 41
2.5
 42
0.625
 43
3.75
 44
1.25
 45
0.0
 46
0.0
 47
0.0
 48
0.0
 49
2.5
140
2.5
141
2.5
142
0.0
143
0.03937007874
144
1.0
145
0.0
146
1.0
147
0.625
148
0.0
 69
0
 70
0
 71
0
 72
0
 73
0
 74
0
 75
0
 76
0
 77
1
 78
8
 79
3
170
0
171
3
172
1
173
0
174
0
175
0
176
0
177
0
178
0
179
2
271
2
272
2
273
2
274
3
275
0
276
0
277
2
278
44
279
0
280
0
281
0
282
0
283
0
284
8
285
0
286
0
288
0
289
3
290
0
371
-2
372
-2
  0
ENDTAB
  0
TABLE
  2
BLOCK_RECORD
  5
9
330
0
100
AcDbSymbolTable
 70
2
  0
BLOCK_RECORD
  5
17
330
9
100
AcDbSymbolTableRecord
100
AcDbBlockTableRecord
  2
*Model_Space
340
1A
 70
0
280
1
281
0
  0
BLOCK_RECORD
  5
1B
330
9
100
AcDbSymbolTableRecord
100
AcDbBlockTableRecord
  2
*Paper_Space
340
1E
 70
0
280
1
281
0
  0
ENDTAB
  0
ENDSEC
  0
SECTION
  2
BLOCKS
  0
BLOCK
  5
18
330
17
100
AcDbEntity
  8
0
100
AcDbBlockBegin
  2
*Model_Space
 70
0
 10
0.0
 20
0.0
 30
0.0
  3
*Model_Space
  1

  0
ENDBLK
  5
19
330
17
100
AcDbEntity
  8
0
100
AcDbBlockEnd
  0
BLOCK
  5
1C
330
1B
100
AcDbEntity
  8
0
100
AcDbBlockBegin
  2
*Paper_Space
 70
0
 10
0.0
 20
0.0
 30
0.0
  3
*Paper_Space
  1

  0
ENDBLK
  5
1D
330
1B
100
AcDbEntity
  8
0
100
AcDbBlockEnd
  0
ENDSEC
  0
SECTION
  2
ENTITIES
  0
LINE
  5
35
330
17
100
AcDbEntity
  8
3
 62
3
370
25
100
AcDbLine
 10
3293.760034980814
 20
2483.120987708347
 30
0.0
 11
3304.470741980814
 21
2493.83169470835
 31
0.0
  0
LINE
  5
36
330
17
100
AcDbEntity
  8
3
 62
3
370
25
100
AcDbLine
 10
3285.470741980814
 20
2486.85250970835
 30
0.0
 11
3304.470741980814
 21
2505.852509708349
 31
0.0
  0
LINE
  5
37
330
17
100
AcDbEntity
  8
3
 62
3
370
25
100
AcDbLine
 10
3285.470741980814
 20
2498.87332570835
 30
0.0
 11
3304.470741980814
 21
2517.87332570835
 31
0.0
  0
LINE
  5
38
330
17
100
AcDbEntity
  8
3
 62
3
370
25
100
AcDbLine
 10
3285.470741980814
 20
2510.89414070835
 30
0.0
 11
3304.470741980814
 21
2529.894140708349
 31
0.0
  0
LINE
  5
39
330
17
100
AcDbEntity
  8
3
 62
3
370
25
100
AcDbLine
 10
3285.470741980814
 20
2522.914955708349
 30
0.0
 11
3295.676773980814
 21
2533.120987708347
 31
0.0
  0
LINE
  5
3A
330
17
100
AcDbEntity
  8
3
 62
3
370
25
100
AcDbLine
 10
2879.989869980814
 20
2514.120987708348
 30
0.0
 11
2882.970741980814
 21
2517.101859708347
 31
0.0
  0
LINE
  5
3B
330
17
100
AcDbEntity
  8
3
 62
3
370
25
100
AcDbLine
 10
2867.969053980814
 20
2514.120987708348
 30
0.0
 11
2882.970741980814
 21
2529.122675708348
 31
0.0
  0
LINE
  5
3C
330
17
100
AcDbEntity
  8
3
 62
3
370
25
100
AcDbLine
 10
2855.948238980813
 20
2514.120987708348
 30
0.0
 11
2874.948238980813
 21
2533.120987708347
 31
0.0
  0
LINE
  5
3D
330
17
100
AcDbEntity
  8
3
 62
3
370
25
100
AcDbLine
 10
2843.927423980814
 20
2514.120987708348
 30
0.0
 11
2862.927423980814
 21
2533.120987708347
 31
0.0
  0
LINE
  5
3E
330
17
100
AcDbEntity
  8
3
 62
3
370
25
100
AcDbLine
 10
2832.970741980814
 20
2515.185120708347
 30
0.0
 11
2850.906608980814
 21
2533.120987708347
 31
0.0
  0
LINE
  5
3F
330
17
100
AcDbEntity
  8
3
 62
3
370
25
100
AcDbLine
 10
2832.970741980814
 20
2527.205936708348
 30
0.0
 11
2838.885792980814
 21
2533.120987708347
 31
0.0
  0
LINE
  5
40
330
17
100
AcDbEntity
  8
3
 62
3
370
25
100
AcDbLine
 10
3285.470741980814
 20
2618.120987708348
 30
0.0
 11
2935.970741980814
 21
2618.120987708348
 31
0.0
  0
LINE
  5
41
330
17
100
AcDbEntity
  8
3
 62
3
370
25
100
AcDbLine
 10
2935.970741980814
 20
2618.120987708348
 30
0.0
 11
2935.970741980814
 21
2533.120987708347
 31
0.0
  0
LINE
  5
42
330
17
100
AcDbEntity
  8
3
 62
3
370
25
100
AcDbLine
 10
3304.470741980814
 20
2618.120987708348
 30
0.0
 11
3653.970741980814
 21
2618.120987708348
 31
0.0
  0
LINE
  5
43
330
17
100
AcDbEntity
  8
3
 62
3
370
25
100
AcDbLine
 10
2949.970741980814
 20
2604.120987708347
 30
0.0
 11
2949.970741980814
 21
2533.120987708347
 31
0.0
  0
LINE
  5
44
330
17
100
AcDbEntity
  8
3
 62
3
370
25
100
AcDbLine
 10
3285.470741980814
 20
2604.120987708347
 30
0.0
 11
2949.970741980814
 21
2604.120987708347
 31
0.0
  0
LINE
  5
45
330
17
100
AcDbEntity
  8
3
 62
3
370
25
100
AcDbLine
 10
3304.470741980814
 20
2604.120987708347
 30
0.0
 11
3639.970741980814
 21
2604.120987708347
 31
0.0
  0
LINE
  5
46
330
17
100
AcDbEntity
  8
3
 62
3
370
25
100
AcDbLine
 10
3350.229655980814
 20
2584.52163570835
 30
0.0
 11
3350.229655980814
 21
2559.52163570835
 31
0.0
  0
LINE
  5
47
330
17
100
AcDbEntity
  8
3
 62
3
370
25
100
AcDbLine
 10
3337.729655980814
 20
2572.02163570835
 30
0.0
 11
3362.729655980814
 21
2572.02163570835
 31
0.0
  0
LINE
  5
48
330
17
100
AcDbEntity
  8
3
 62
3
370
25
100
AcDbLine
 10
3350.229655980814
 20
2583.914287708349
 30
0.0
 11
3354.078780980814
 21
2583.914287708349
 31
0.0
  0
LINE
  5
49
330
17
100
AcDbEntity
  8
3
 62
3
370
25
100
AcDbLine
 10
3350.229655980814
 20
2583.121438708348
 30
0.0
 11
3355.978118980813
 21
2583.121438708348
 31
0.0
  0
LINE
  5
4A
330
17
100
AcDbEntity
  8
3
 62
3
370
25
100
AcDbLine
 10
3350.229655980814
 20
2582.32858970835
 30
0.0
 11
3357.301913980813
 21
2582.32858970835
 31
0.0
  0
LINE
  5
4B
330
17
100
AcDbEntity
  8
3
 62
3
370
25
100
AcDbLine
 10
3350.229655980814
 20
2581.535728708348
 30
0.0
 11
3358.337174980814
 21
2581.535728708348
 31
0.0
  0
LINE
  5
4C
330
17
100
AcDbEntity
  8
3
 62
3
370
25
100
AcDbLine
 10
3350.229655980814
 20
2580.742939708349
 30
0.0
 11
3359.184514980814
 21
2580.742939708349
 31
0.0
  0
LINE
  5
4D
330
17
100
AcDbEntity
  8
3
 62
3
370
25
100
AcDbLine
 10
3350.229655980814
 20
2579.950090708348
 30
0.0
 11
3359.893523980814
 21
2579.950090708348
 31
0.0
  0
LINE
  5
4E
330
17
100
AcDbEntity
  8
3
 62
3
370
25
100
AcDbLine
 10
3350.229655980814
 20
2579.15722970835
 30
0.0
 11
3360.492860980814
 21
2579.15722970835
 31
0.0
  0
LINE
  5
4F
330
17
100
AcDbEntity
  8
3
 62
3
370
25
100
AcDbLine
 10
3350.229655980814
 20
2578.364380708348
 30
0.0
 11
3361.000882980814
 21
2578.364380708348
 31
0.0
  0
LINE
  5
50
330
17
100
AcDbEntity
  8
3
 62
3
370
25
100
AcDbLine
 10
3350.229655980814
 20
2577.571531708347
 30
0.0
 11
3361.430035980813
 21
2577.571531708347
 31
0.0
  0
LINE
  5
51
330
17
100
AcDbEntity
  8
3
 62
3
370
25
100
AcDbLine
 10
3350.229655980814
 20
2576.778682708349
 30
0.0
 11
3361.789094980814
 21
2576.778682708349
 31
0.0
  0
LINE
  5
52
330
17
100
AcDbEntity
  8
3
 62
3
370
25
100
AcDbLine
 10
3350.229655980814
 20
2575.985832708348
 30
0.0
 11
3362.084399980814
 21
2575.985832708348
 31
0.0
  0
LINE
  5
53
330
17
100
AcDbEntity
  8
3
 62
3
370
25
100
AcDbLine
 10
3350.229655980814
 20
2575.193031708348
 30
0.0
 11
3362.320672980813
 21
2575.193031708348
 31
0.0
  0
LINE
  5
54
330
17
100
AcDbEntity
  8
3
 62
3
370
25
100
AcDbLine
 10
3350.229655980814
 20
2574.40018270835
 30
0.0
 11
3362.501250980814
 21
2574.40018270835
 31
0.0
  0
LINE
  5
55
330
17
100
AcDbEntity
  8
3
 62
3
370
25
100
AcDbLine
 10
3350.229655980814
 20
2573.607333708349
 30
0.0
 11
3362.628661980814
 21
2573.607333708349
 31
0.0
  0
LINE
  5
56
330
17
100
AcDbEntity
  8
3
 62
3
370
25
100
AcDbLine
 10
3350.229655980814
 20
2572.814484708348
 30
0.0
 11
3362.729655980814
 21
2572.814484708348
 31
0.0
  0
LINE
  5
57
330
17
100
AcDbEntity
  8
3
 62
3
370
25
100
AcDbLine
 10
3350.229607980813
 20
2560.129030708349
 30
0.0
 11
3346.380530980814
 21
2560.129030708349
 31
0.0
  0
LINE
  5
58
330
17
100
AcDbEntity
  8
3
 62
3
370
25
100
AcDbLine
 10
3350.229607980813
 20
2560.921879708347
 30
0.0
 11
3344.481145980814
 21
2560.921879708347
 31
0.0
  0
LINE
  5
59
330
17
100
AcDbEntity
  8
3
 62
3
370
25
100
AcDbLine
 10
3350.229607980813
 20
2561.714728708348
 30
0.0
 11
3343.157349980814
 21
2561.714728708348
 31
0.0
  0
LINE
  5
5A
330
17
100
AcDbEntity
  8
3
 62
3
370
25
100
AcDbLine
 10
3350.229607980813
 20
2562.507529708348
 30
0.0
 11
3342.122088980814
 21
2562.507529708348
 31
0.0
  0
LINE
  5
5B
330
17
100
AcDbEntity
  8
3
 62
3
370
25
100
AcDbLine
 10
3350.229607980813
 20
2563.300438708348
 30
0.0
 11
3341.274749980814
 21
2563.300438708348
 31
0.0
  0
LINE
  5
5C
330
17
100
AcDbEntity
  8
3
 62
3
370
25
100
AcDbLine
 10
3350.229607980813
 20
2564.093240708348
 30
0.0
 11
3340.565787980814
 21
2564.093240708348
 31
0.0
  0
LINE
  5
5D
330
17
100
AcDbEntity
  8
3
 62
3
370
25
100
AcDbLine
 10
3350.229607980813
 20
2564.886089708349
 30
0.0
 11
3339.966403980814
 21
2564.886089708349
 31
0.0
  0
LINE
  5
5E
330
17
100
AcDbEntity
  8
3
 62
3
370
25
100
AcDbLine
 10
3350.229607980813
 20
2565.67893870835
 30
0.0
 11
3339.458381980814
 21
2565.67893870835
 31
0.0
  0
LINE
  5
5F
330
17
100
AcDbEntity
  8
3
 62
3
370
25
100
AcDbLine
 10
3350.229607980813
 20
2566.471787708348
 30
0.0
 11
3339.029227980814
 21
2566.471787708348
 31
0.0
  0
LINE
  5
60
330
17
100
AcDbEntity
  8
3
 62
3
370
25
100
AcDbLine
 10
3350.229607980813
 20
2567.264588708348
 30
0.0
 11
3338.670169980814
 21
2567.264588708348
 31
0.0
  0
LINE
  5
61
330
17
100
AcDbEntity
  8
3
 62
3
370
25
100
AcDbLine
 10
3350.229607980813
 20
2568.05748570835
 30
0.0
 11
3338.374863980814
 21
2568.05748570835
 31
0.0
  0
LINE
  5
62
330
17
100
AcDbEntity
  8
3
 62
3
370
25
100
AcDbLine
 10
3350.229607980813
 20
2568.85028670835
 30
0.0
 11
3338.138591980814
 21
2568.85028670835
 31
0.0
  0
LINE
  5
63
330
17
100
AcDbEntity
  8
3
 62
3
370
25
100
AcDbLine
 10
3350.229607980813
 20
2569.643135708348
 30
0.0
 11
3337.957965980814
 21
2569.643135708348
 31
0.0
  0
LINE
  5
64
330
17
100
AcDbEntity
  8
3
 62
3
370
25
100
AcDbLine
 10
3350.229607980813
 20
2570.435984708349
 30
0.0
 11
3337.830602980814
 21
2570.435984708349
 31
0.0
  0
LINE
  5
65
330
17
100
AcDbEntity
  8
3
 62
3
370
25
100
AcDbLine
 10
3350.229607980813
 20
2571.22883370835
 30
0.0
 11
3337.729607980814
 21
2571.22883370835
 31
0.0
  0
LINE
  5
66
330
17
100
AcDbEntity
  8
3
 62
3
370
25
100
AcDbLine
 10
3362.729655980814
 20
2572.02163570835
 30
0.0
 11
3434.152404980814
 21
2572.02163570835
 31
0.0
  0
LINE
  5
67
330
17
100
AcDbEntity
  8
3
 62
3
370
25
100
AcDbLine
 10
3337.729655980814
 20
2572.02163570835
 30
0.0
 11
3329.302951980814
 21
2572.02163570835
 31
0.0
  0
LINE
  5
68
330
17
100
AcDbEntity
  8
3
 62
3
370
25
100
AcDbLine
 10
3350.229655980814
 20
2584.52163570835
 30
0.0
 11
3350.229655980814
 21
2590.026379708348
 31
0.0
  0
LINE
  5
69
330
17
100
AcDbEntity
  8
3
 62
3
370
25
100
AcDbLine
 10
3350.229655980814
 20
2559.52163570835
 30
0.0
 11
3350.229655980814
 21
2552.65310270835
 31
0.0
  0
LINE
  5
6A
330
17
100
AcDbEntity
  8
3
 62
3
370
25
100
AcDbLine
 10
3042.551302980814
 20
2578.242485708348
 30
0.0
 11
3042.551302980814
 21
2553.242485708348
 31
0.0
  0
LINE
  5
6B
330
17
100
AcDbEntity
  8
3
 62
3
370
25
100
AcDbLine
 10
3030.051302980814
 20
2565.742485708348
 30
0.0
 11
3055.051302980814
 21
2565.742485708348
 31
0.0
  0
LINE
  5
6C
330
17
100
AcDbEntity
  8
3
 62
3
370
25
100
AcDbLine
 10
3042.551302980814
 20
2577.63513770835
 30
0.0
 11
3046.400427980814
 21
2577.63513770835
 31
0.0
  0
LINE
  5
6D
330
17
100
AcDbEntity
  8
3
 62
3
370
25
100
AcDbLine
 10
3042.551302980814
 20
2576.842288708349
 30
0.0
 11
3048.299765980813
 21
2576.842288708349
 31
0.0
  0
LINE
  5
6E
330
17
100
AcDbEntity
  8
3
 62
3
370
25
100
AcDbLine
 10
3042.551302980814
 20
2576.049439708348
 30
0.0
 11
3049.623560980814
 21
2576.049439708348
 31
0.0
  0
LINE
  5
6F
330
17
100
AcDbEntity
  8
3
 62
3
370
25
100
AcDbLine
 10
3042.551302980814
 20
2575.25657870835
 30
0.0
 11
3050.658821980814
 21
2575.25657870835
 31
0.0
  0
LINE
  5
70
330
17
100
AcDbEntity
  8
3
 62
3
370
25
100
AcDbLine
 10
3042.551302980814
 20
2574.46378970835
 30
0.0
 11
3051.506161980814
 21
2574.46378970835
 31
0.0
  0
LINE
  5
71
330
17
100
AcDbEntity
  8
3
 62
3
370
25
100
AcDbLine
 10
3042.551302980814
 20
2573.670940708349
 30
0.0
 11
3052.215170980814
 21
2573.670940708349
 31
0.0
  0
LINE
  5
72
330
17
100
AcDbEntity
  8
3
 62
3
370
25
100
AcDbLine
 10
3042.551302980814
 20
2572.878079708348
 30
0.0
 11
3052.814506980814
 21
2572.878079708348
 31
0.0
  0
LINE
  5
73
330
17
100
AcDbEntity
  8
3
 62
3
370
25
100
AcDbLine
 10
3042.551302980814
 20
2572.08523070835
 30
0.0
 11
3053.322529980814
 21
2572.08523070835
 31
0.0
  0
LINE
  5
74
330
17
100
AcDbEntity
  8
3
 62
3
370
25
100
AcDbLine
 10
3042.551302980814
 20
2571.292381708349
 30
0.0
 11
3053.751682980814
 21
2571.292381708349
 31
0.0
  0
LINE
  5
75
330
17
100
AcDbEntity
  8
3
 62
3
370
25
100
AcDbLine
 10
3042.551302980814
 20
2570.499531708347
 30
0.0
 11
3054.110741980814
 21
2570.499531708347
 31
0.0
  0
LINE
  5
76
330
17
100
AcDbEntity
  8
3
 62
3
370
25
100
AcDbLine
 10
3042.551302980814
 20
2569.706682708349
 30
0.0
 11
3054.406046980814
 21
2569.706682708349
 31
0.0
  0
LINE
  5
77
330
17
100
AcDbEntity
  8
3
 62
3
370
25
100
AcDbLine
 10
3042.551302980814
 20
2568.91388170835
 30
0.0
 11
3054.642319980814
 21
2568.91388170835
 31
0.0
  0
LINE
  5
78
330
17
100
AcDbEntity
  8
3
 62
3
370
25
100
AcDbLine
 10
3042.551302980814
 20
2568.121032708348
 30
0.0
 11
3054.822897980814
 21
2568.121032708348
 31
0.0
  0
LINE
  5
79
330
17
100
AcDbEntity
  8
3
 62
3
370
25
100
AcDbLine
 10
3042.551302980814
 20
2567.328183708351
 30
0.0
 11
3054.950308980814
 21
2567.328183708351
 31
0.0
  0
LINE
  5
7A
330
17
100
AcDbEntity
  8
3
 62
3
370
25
100
AcDbLine
 10
3042.551302980814
 20
2566.535334708349
 30
0.0
 11
3055.051302980814
 21
2566.535334708349
 31
0.0
  0
LINE
  5
7B
330
17
100
AcDbEntity
  8
3
 62
3
370
25
100
AcDbLine
 10
3042.551254980814
 20
2553.849880708347
 30
0.0
 11
3038.702177980814
 21
2553.849880708347
 31
0.0
  0
LINE
  5
7C
330
17
100
AcDbEntity
  8
3
 62
3
370
25
100
AcDbLine
 10
3042.551254980814
 20
2554.642729708348
 30
0.0
 11
3036.802792980814
 21
2554.642729708348
 31
0.0
  0
LINE
  5
7D
330
17
100
AcDbEntity
  8
3
 62
3
370
25
100
AcDbLine
 10
3042.551254980814
 20
2555.43557870835
 30
0.0
 11
3035.478996980814
 21
2555.43557870835
 31
0.0
  0
LINE
  5
7E
330
17
100
AcDbEntity
  8
3
 62
3
370
25
100
AcDbLine
 10
3042.551254980814
 20
2556.228379708349
 30
0.0
 11
3034.443735980814
 21
2556.228379708349
 31
0.0
  0
LINE
  5
7F
330
17
100
AcDbEntity
  8
3
 62
3
370
25
100
AcDbLine
 10
3042.551254980814
 20
2557.021288708349
 30
0.0
 11
3033.596395980814
 21
2557.021288708349
 31
0.0
  0
LINE
  5
80
330
17
100
AcDbEntity
  8
3
 62
3
370
25
100
AcDbLine
 10
3042.551254980814
 20
2557.814089708349
 30
0.0
 11
3032.887434980814
 21
2557.814089708349
 31
0.0
  0
LINE
  5
81
330
17
100
AcDbEntity
  8
3
 62
3
370
25
100
AcDbLine
 10
3042.551254980814
 20
2558.60693970835
 30
0.0
 11
3032.288050980814
 21
2558.60693970835
 31
0.0
  0
LINE
  5
82
330
17
100
AcDbEntity
  8
3
 62
3
370
25
100
AcDbLine
 10
3042.551254980814
 20
2559.399788708348
 30
0.0
 11
3031.780027980814
 21
2559.399788708348
 31
0.0
  0
LINE
  5
83
330
17
100
AcDbEntity
  8
3
 62
3
370
25
100
AcDbLine
 10
3042.551254980814
 20
2560.192637708349
 30
0.0
 11
3031.350874980814
 21
2560.192637708349
 31
0.0
  0
LINE
  5
84
330
17
100
AcDbEntity
  8
3
 62
3
370
25
100
AcDbLine
 10
3042.551254980814
 20
2560.985438708349
 30
0.0
 11
3030.991815980814
 21
2560.985438708349
 31
0.0
  0
LINE
  5
85
330
17
100
AcDbEntity
  8
3
 62
3
370
25
100
AcDbLine
 10
3042.551254980814
 20
2561.778335708349
 30
0.0
 11
3030.696510980814
 21
2561.778335708349
 31
0.0
  0
LINE
  5
86
330
17
100
AcDbEntity
  8
3
 62
3
370
25
100
AcDbLine
 10
3042.551254980814
 20
2562.571136708348
 30
0.0
 11
3030.460237980813
 21
2562.571136708348
 31
0.0
  0
LINE
  5
87
330
17
100
AcDbEntity
  8
3
 62
3
370
25
100
AcDbLine
 10
3042.551254980814
 20
2563.363985708349
 30
0.0
 11
3030.279612980814
 21
2563.363985708349
 31
0.0
  0
LINE
  5
88
330
17
100
AcDbEntity
  8
3
 62
3
370
25
100
AcDbLine
 10
3042.551254980814
 20
2564.15683470835
 30
0.0
 11
3030.152248980814
 21
2564.15683470835
 31
0.0
  0
LINE
  5
89
330
17
100
AcDbEntity
  8
3
 62
3
370
25
100
AcDbLine
 10
3042.551254980814
 20
2564.949683708348
 30
0.0
 11
3030.051254980814
 21
2564.949683708348
 31
0.0
  0
LINE
  5
8A
330
17
100
AcDbEntity
  8
3
 62
3
370
25
100
AcDbLine
 10
3055.051302980814
 20
2565.742485708348
 30
0.0
 11
3126.474051980814
 21
2565.742485708348
 31
0.0
  0
LINE
  5
8B
330
17
100
AcDbEntity
  8
3
 62
3
370
25
100
AcDbLine
 10
3030.051302980814
 20
2565.742485708348
 30
0.0
 11
3021.624598980814
 21
2565.742485708348
 31
0.0
  0
LINE
  5
8C
330
17
100
AcDbEntity
  8
3
 62
3
370
25
100
AcDbLine
 10
3042.551302980814
 20
2578.242485708348
 30
0.0
 11
3042.551302980814
 21
2583.74722970835
 31
0.0
  0
LINE
  5
8D
330
17
100
AcDbEntity
  8
3
 62
3
370
25
100
AcDbLine
 10
3042.551302980814
 20
2553.242485708348
 30
0.0
 11
3042.551302980814
 21
2546.373952708347
 31
0.0
  0
LINE
  5
8E
330
17
100
AcDbEntity
  8
Painéis
 62
200
370
25
100
AcDbLine
 10
2930.970741980814
 20
2203.120987708348
 30
0.0
 11
2930.970741980814
 21
2514.120987708348
 31
0.0
  0
LINE
  5
8F
330
17
100
AcDbEntity
  8
Painéis
 62
200
370
25
100
AcDbLine
 10
3104.970741980814
 20
2203.120987708348
 30
0.0
 11
3104.970741980814
 21
2514.120987708348
 31
0.0
  0
LINE
  5
90
330
17
100
AcDbEntity
  8
Painéis
 62
200
370
25
100
AcDbLine
 10
3304.470741980814
 20
2568.620987708348
 30
0.0
 11
3639.970741980814
 21
2568.620987708348
 31
0.0
  0
LINE
  5
91
330
17
100
AcDbEntity
  8
Painéis
 62
200
370
25
100
AcDbLine
 10
3123.970741980814
 20
2604.120987708347
 30
0.0
 11
3123.970741980814
 21
2533.120987708347
 31
0.0
  0
LINE
  5
92
330
17
100
AcDbEntity
  8
Painéis
 62
200
370
25
100
AcDbLine
 10
2949.970741980814
 20
2568.620987708348
 30
0.0
 11
3285.470741980814
 21
2568.620987708348
 31
0.0
  0
LINE
  5
93
330
17
100
AcDbEntity
  8
Painéis
 62
4
370
25
100
AcDbLine
 10
2978.934770923464
 20
2514.120987708349
 30
0.0
 11
2978.934770923464
 21
2392.120987708349
 31
0.0
  0
LINE
  5
94
330
17
100
AcDbEntity
  8
Painéis
 62
0
370
25
100
AcDbLine
 10
2980.434770923464
 20
2512.620987708349
 30
0.0
 11
2977.434770923464
 21
2515.620987708349
 31
0.0
  0
LINE
  5
95
330
17
100
AcDbEntity
  8
Painéis
 62
4
370
25
100
AcDbLine
 10
3304.470741980814
 20
2538.465010610196
 30
0.0
 11
3304.470741980814
 21
2545.991559399226
 31
0.0
  0
LINE
  5
96
330
17
100
AcDbEntity
  8
Painéis
 62
4
370
25
100
AcDbLine
 10
3304.470741980814
 20
2542.991559399226
 30
0.0
 11
3478.470741980814
 21
2542.991559399226
 31
0.0
  0
LINE
  5
97
330
17
100
AcDbEntity
  8
Painéis
 62
4
370
25
100
AcDbLine
 10
3332.179393314391
 20
2533.120987708349
 30
0.0
 11
3328.45609154459
 21
2533.120987708349
 31
0.0
  0
LINE
  5
98
330
17
100
AcDbEntity
  8
Painéis
 62
4
370
25
100
AcDbLine
 10
3332.179393314391
 20
2568.620987708349
 30
0.0
 11
3328.45609154459
 21
2568.620987708349
 31
0.0
  0
LINE
  5
99
330
17
100
AcDbEntity
  8
Painéis
 62
4
370
25
100
AcDbLine
 10
3331.45609154459
 20
2533.120987708349
 30
0.0
 11
3331.45609154459
 21
2568.620987708349
 31
0.0
  0
LINE
  5
9A
330
17
100
AcDbEntity
  8
Painéis
 62
4
370
25
100
AcDbLine
 10
3334.456091544582
 20
2568.620987708349
 30
0.0
 11
3357.315713774188
 21
2568.620987708349
 31
0.0
  0
LINE
  5
9B
330
17
100
AcDbEntity
  8
Painéis
 62
4
370
25
100
AcDbLine
 10
3334.456091544582
 20
2604.120987708349
 30
0.0
 11
3357.315713774188
 21
2604.120987708349
 31
0.0
  0
LINE
  5
9C
330
17
100
AcDbEntity
  8
Painéis
 62
4
370
25
100
AcDbLine
 10
3354.315713774189
 20
2568.620987708349
 30
0.0
 11
3354.315713774189
 21
2604.120987708349
 31
0.0
  0
LINE
  5
9D
330
17
100
AcDbEntity
  8
Painéis
 62
4
370
25
100
AcDbLine
 10
2949.970741980814
 20
2538.465010610196
 30
0.0
 11
2949.970741980814
 21
2545.991559399226
 31
0.0
  0
LINE
  5
9E
330
17
100
AcDbEntity
  8
Painéis
 62
4
370
25
100
AcDbLine
 10
3123.970741980814
 20
2538.465010610196
 30
0.0
 11
3123.970741980814
 21
2545.991559399226
 31
0.0
  0
LINE
  5
9F
330
17
100
AcDbEntity
  8
Painéis
 62
4
370
25
100
AcDbLine
 10
2949.970741980814
 20
2542.991559399226
 30
0.0
 11
3123.970741980814
 21
2542.991559399226
 31
0.0
  0
LINE
  5
A0
330
17
100
AcDbEntity
  8
Painéis
 62
4
370
25
100
AcDbLine
 10
3123.970741980814
 20
2538.465010610196
 30
0.0
 11
3123.970741980814
 21
2545.561945633754
 31
0.0
  0
LINE
  5
A1
330
17
100
AcDbEntity
  8
Painéis
 62
4
370
25
100
AcDbLine
 10
3285.470741980814
 20
2538.465010610196
 30
0.0
 11
3285.470741980814
 21
2545.561945633754
 31
0.0
  0
LINE
  5
A2
330
17
100
AcDbEntity
  8
Painéis
 62
4
370
25
100
AcDbLine
 10
3123.970741980814
 20
2542.561945633754
 30
0.0
 11
3285.470741980814
 21
2542.561945633754
 31
0.0
  0
LINE
  5
A3
330
17
100
AcDbEntity
  8
Painéis
 62
4
370
25
100
AcDbLine
 10
2977.67939331439
 20
2533.120987708349
 30
0.0
 11
2973.956091544593
 21
2533.120987708349
 31
0.0
  0
LINE
  5
A4
330
17
100
AcDbEntity
  8
Painéis
 62
4
370
25
100
AcDbLine
 10
2977.67939331439
 20
2568.620987708349
 30
0.0
 11
2973.956091544593
 21
2568.620987708349
 31
0.0
  0
LINE
  5
A5
330
17
100
AcDbEntity
  8
Painéis
 62
4
370
25
100
AcDbLine
 10
2976.956091544592
 20
2533.120987708349
 30
0.0
 11
2976.956091544592
 21
2568.620987708349
 31
0.0
  0
LINE
  5
A6
330
17
100
AcDbEntity
  8
Painéis
 62
4
370
25
100
AcDbLine
 10
2979.956091544581
 20
2568.620987708349
 30
0.0
 11
3002.815713774191
 21
2568.620987708349
 31
0.0
  0
LINE
  5
A7
330
17
100
AcDbEntity
  8
Painéis
 62
4
370
25
100
AcDbLine
 10
2979.956091544581
 20
2604.120987708349
 30
0.0
 11
3002.815713774191
 21
2604.120987708349
 31
0.0
  0
LINE
  5
A8
330
17
100
AcDbEntity
  8
Painéis
 62
4
370
25
100
AcDbLine
 10
2999.815713774191
 20
2568.620987708349
 30
0.0
 11
2999.815713774191
 21
2604.120987708349
 31
0.0
  0
LWPOLYLINE
  5
A9
330
17
100
AcDbEntity
  8
3
 62
3
370
25
100
AcDbPolyline
 90
2
 70
0
 10
2832.970741980814
 20
2533.120987708347
 10
2442.970741980814
 20
2533.120987708347
  0
LWPOLYLINE
  5
AA
330
17
100
AcDbEntity
  8
3
 62
3
370
25
100
AcDbPolyline
 90
2
 70
0
 10
2442.970741980814
 20
2514.120987708348
 10
2832.970741980814
 20
2514.120987708348
  0
LWPOLYLINE
  5
AB
330
17
100
AcDbEntity
  8
3
 62
3
370
25
100
AcDbPolyline
 90
2
 70
0
 10
3285.470741980814
 20
2533.120987708347
 10
2882.970741980814
 20
2533.120987708347
  0
LWPOLYLINE
  5
AC
330
17
100
AcDbEntity
  8
3
 62
3
370
25
100
AcDbPolyline
 90
2
 70
0
 10
2882.970741980814
 20
2514.120987708348
 10
3285.470741980814
 20
2514.120987708348
  0
LWPOLYLINE
  5
AD
330
17
100
AcDbEntity
  8
3
 62
3
370
25
100
AcDbPolyline
 90
2
 70
0
 10
3706.970741980814
 20
2533.120987708347
 10
3304.470741980814
 20
2533.120987708347
  0
LWPOLYLINE
  5
AE
330
17
100
AcDbEntity
  8
3
 62
3
370
25
100
AcDbPolyline
 90
2
 70
0
 10
3304.470741980814
 20
2514.120987708348
 10
3706.970741980814
 20
2514.120987708348
  0
LWPOLYLINE
  5
AF
330
17
100
AcDbEntity
  8
3
 62
3
370
25
100
AcDbPolyline
 90
2
 70
0
 10
3285.470741980814
 20
2483.120987708347
 10
3285.470741980814
 20
2282.120987708347
  0
LWPOLYLINE
  5
B0
330
17
100
AcDbEntity
  8
3
 62
3
370
25
100
AcDbPolyline
 90
2
 70
0
 10
3304.470741980814
 20
2282.120987708347
 10
3304.470741980814
 20
2483.120987708347
  0
LWPOLYLINE
  5
B1
330
17
100
AcDbEntity
  8
3
 62
3
370
25
100
AcDbPolyline
 90
2
 70
0
 10
3285.470741980814
 20
2618.120987708348
 10
3285.470741980814
 20
2533.120987708347
  0
LWPOLYLINE
  5
B2
330
17
100
AcDbEntity
  8
3
 62
3
370
25
100
AcDbPolyline
 90
2
 70
0
 10
3304.470741980814
 20
2533.120987708347
 10
3304.470741980814
 20
2618.120987708348
  0
LWPOLYLINE
  5
B3
330
17
100
AcDbEntity
  8
3
 62
3
370
25
100
AcDbPolyline
 90
2
 70
0
 10
3285.470741980814
 20
2618.120987708348
 10
3304.470741980814
 20
2618.120987708348
  0
LWPOLYLINE
  5
B4
330
17
100
AcDbEntity
  8
7
 62
7
370
25
100
AcDbPolyline
 90
5
 70
0
 10
3285.470741980814
 20
2483.120987708347
 10
3304.470741980814
 20
2483.120987708347
 10
3304.470741980814
 20
2533.120987708347
 10
3285.470741980814
 20
2533.120987708347
 10
3285.470741980814
 20
2483.120987708347
  0
LWPOLYLINE
  5
B5
330
17
100
AcDbEntity
  8
7
 62
7
370
25
100
AcDbPolyline
 90
5
 70
0
 10
2832.970741980814
 20
2514.120987708348
 10
2882.970741980814
 20
2514.120987708348
 10
2882.970741980814
 20
2533.120987708347
 10
2832.970741980814
 20
2533.120987708347
 10
2832.970741980814
 20
2514.120987708348
  0
LWPOLYLINE
  5
B6
330
17
100
AcDbEntity
  8
Painéis
 62
0
370
25
100
AcDbPolyline
 90
2
 70
0
 10
3306.970741980814
 20
2545.491559399226
 10
3301.970741980814
 20
2540.491559399226
  0
LWPOLYLINE
  5
B7
330
17
100
AcDbEntity
  8
Painéis
 62
0
370
25
100
AcDbPolyline
 90
2
 70
0
 10
3328.95609154459
 20
2535.620987708349
 10
3333.95609154459
 20
2530.620987708349
  0
LWPOLYLINE
  5
B8
330
17
100
AcDbEntity
  8
Painéis
 62
0
370
25
100
AcDbPolyline
 90
2
 70
0
 10
3333.95609154459
 20
2566.120987708349
 10
3328.95609154459
 20
2571.120987708349
  0
LWPOLYLINE
  5
B9
330
17
100
AcDbEntity
  8
Painéis
 62
0
370
25
100
AcDbPolyline
 90
2
 70
0
 10
3351.815713774189
 20
2571.120987708349
 10
3356.815713774189
 20
2566.120987708349
  0
LWPOLYLINE
  5
BA
330
17
100
AcDbEntity
  8
Painéis
 62
0
370
25
100
AcDbPolyline
 90
2
 70
0
 10
3356.815713774189
 20
2601.620987708349
 10
3351.815713774189
 20
2606.620987708349
  0
LWPOLYLINE
  5
BB
330
17
100
AcDbEntity
  8
Painéis
 62
0
370
25
100
AcDbPolyline
 90
2
 70
0
 10
2952.470741980814
 20
2545.491559399226
 10
2947.470741980814
 20
2540.491559399226
  0
LWPOLYLINE
  5
BC
330
17
100
AcDbEntity
  8
Painéis
 62
0
370
25
100
AcDbPolyline
 90
2
 70
0
 10
3121.470741980814
 20
2540.491559399226
 10
3126.470741980814
 20
2545.491559399226
  0
LWPOLYLINE
  5
BD
330
17
100
AcDbEntity
  8
Painéis
 62
0
370
25
100
AcDbPolyline
 90
2
 70
0
 10
3126.470741980814
 20
2545.061945633754
 10
3121.470741980814
 20
2540.061945633754
  0
LWPOLYLINE
  5
BE
330
17
100
AcDbEntity
  8
Painéis
 62
0
370
25
100
AcDbPolyline
 90
2
 70
0
 10
3282.970741980814
 20
2540.061945633754
 10
3287.970741980814
 20
2545.061945633754
  0
LWPOLYLINE
  5
BF
330
17
100
AcDbEntity
  8
Painéis
 62
0
370
25
100
AcDbPolyline
 90
2
 70
0
 10
2974.456091544592
 20
2535.620987708349
 10
2979.456091544592
 20
2530.620987708349
  0
LWPOLYLINE
  5
C0
330
17
100
AcDbEntity
  8
Painéis
 62
0
370
25
100
AcDbPolyline
 90
2
 70
0
 10
2979.456091544592
 20
2566.120987708349
 10
2974.456091544592
 20
2571.120987708349
  0
LWPOLYLINE
  5
C1
330
17
100
AcDbEntity
  8
Painéis
 62
0
370
25
100
AcDbPolyline
 90
2
 70
0
 10
2997.315713774191
 20
2571.120987708349
 10
3002.315713774191
 20
2566.120987708349
  0
LWPOLYLINE
  5
C2
330
17
100
AcDbEntity
  8
Painéis
 62
0
370
25
100
AcDbPolyline
 90
2
 70
0
 10
3002.315713774191
 20
2601.620987708349
 10
2997.315713774191
 20
2606.620987708349
  0
TEXT
  5
C3
330
17
100
AcDbEntity
  8
4
 62
4
370
25
100
AcDbText
 10
3322.370508980814
 20
2485.563560708348
 30
0.0
 40
15.0
  1
P43
100
AcDbText
  0
TEXT
  5
C4
330
17
100
AcDbEntity
  8
4
 62
4
370
25
100
AcDbText
 10
2833.136720980814
 20
2568.751551708351
 30
0.0
 40
15.0
  1
P42
100
AcDbText
  0
TEXT
  5
C5
330
17
100
AcDbEntity
  8
3
 62
3
370
25
100
AcDbText
 10
3322.370508980814
 20
2470.563560708348
 30
0.0
 40
10.0
  1
19/50
100
AcDbText
  0
TEXT
  5
C6
330
17
100
AcDbEntity
  8
3
 62
3
370
25
100
AcDbText
 10
2833.136720980814
 20
2553.75155170835
 30
0.0
 40
10.0
  1
50/19
100
AcDbText
  0
TEXT
  5
C7
330
17
100
AcDbEntity
  8
3
 62
3
370
25
100
AcDbText
 10
3138.798534980814
 20
2551.666789708348
 30
0.0
 40
10.0
  1
h=12
100
AcDbText
  0
TEXT
  5
C8
330
17
100
AcDbEntity
  8
4
 62
4
370
25
100
AcDbText
 10
3027.694112980814
 20
2621.490597708349
 30
0.0
 40
15.0
  1
VF401
100
AcDbText
  0
TEXT
  5
C9
330
17
100
AcDbEntity
  8
4
 62
4
370
25
100
AcDbText
 10
3133.525730980814
 20
2568.13950970835
 30
0.0
 40
15.0
  1
L401
100
AcDbText
  0
TEXT
  5
CA
330
17
100
AcDbEntity
  8
4
 62
4
370
25
100
AcDbText
 10
2931.190215980814
 20
2540.801630708347
 30
0.0
 40
14.0
  1
VF404
 50
90.0
100
AcDbText
  0
TEXT
  5
CB
330
17
100
AcDbEntity
  8
3
 62
3
370
25
100
AcDbText
 10
3370.887474980814
 20
2574.089041708349
 30
0.0
 40
10.0
  1
855.18
100
AcDbText
  0
TEXT
  5
CC
330
17
100
AcDbEntity
  8
3
 62
3
370
25
100
AcDbText
 10
3063.209121980813
 20
2567.80989170835
 30
0.0
 40
10.0
  1
855.18
100
AcDbText
  0
TEXT
  5
CD
330
17
100
AcDbEntity
  8
3
 62
3
370
25
100
AcDbText
 10
3281.810775980814
 20
2446.659850708349
 30
0.0
 40
10.0
  1
19/55
 50
90.0
100
AcDbText
  0
TEXT
  5
CE
330
17
100
AcDbEntity
  8
3
 62
3
370
25
100
AcDbText
 10
2962.745887980814
 20
2542.656002708349
 30
0.0
 40
10.0
  1
14/55
 50
90.0
100
AcDbText
  0
TEXT
  5
CF
330
17
100
AcDbEntity
  8
3
 62
3
370
25
100
AcDbText
 10
3226.972715980814
 20
2622.590168708348
 30
0.0
 40
10.0
  1
14/55
100
AcDbText
  0
TEXT
  5
D0
330
17
100
AcDbEntity
  8
3
 62
3
370
25
100
AcDbText
 10
3282.167048980813
 20
2552.829247708347
 30
0.0
 40
10.0
  1
19/55
 50
90.0
100
AcDbText
  0
TEXT
  5
D1
330
17
100
AcDbEntity
  8
3
 62
3
370
25
100
AcDbText
 10
3217.741325980814
 20
2537.382528708347
 30
0.0
 40
10.0
  1
19/55
100
AcDbText
  0
TEXT
  5
D2
330
17
100
AcDbEntity
  8
AUX00
 62
7
370
25
100
AcDbText
 10
3328.525862126691
 20
2592.472082628287
 30
0.0
 40
8.0
  1
L305^J174X102^JDividir chapa
100
AcDbText
  0
TEXT
  5
D3
330
17
100
AcDbEntity
  8
AUX00
 62
7
370
25
100
AcDbText
 10
3146.746020657166
 20
2592.472082628287
 30
0.0
 40
8.0
  1
L308^J167X102^JDividir chapa
100
AcDbText
  0
TEXT
  5
D4
330
17
100
AcDbEntity
  8
AUX00
 62
7
370
25
100
AcDbText
 10
2974.025862126691
 20
2592.472082628287
 30
0.0
 40
8.0
  1
L307^J174X102^JDividir chapa
100
AcDbText
  0
TEXT
  5
D5
330
17
100
AcDbEntity
  8
Painéis
 62
240
370
25
100
AcDbText
 10
2989.382139344516
 20
2453.120987708348
 30
0.0
 40
9.0
  1
122
 50
90.0
100
AcDbText
  0
TEXT
  5
D6
330
17
100
AcDbEntity
  8
Painéis
 62
1
370
25
100
AcDbText
 10
3338.95609154459
 20
2550.870987708347
 30
0.0
 40
7.0
  1
35.5
 50
90.0
100
AcDbText
  0
TEXT
  5
D7
330
17
100
AcDbEntity
  8
Painéis
 62
1
370
25
100
AcDbText
 10
3361.815713774188
 20
2586.370987708348
 30
0.0
 40
7.0
  1
35.5
 50
90.0
100
AcDbText
  0
TEXT
  5
D8
330
17
100
AcDbEntity
  8
Painéis
 62
1
370
25
100
AcDbText
 10
3036.970741980814
 20
2549.491559399227
 30
0.0
 40
7.0
  1
174
100
AcDbText
  0
TEXT
  5
D9
330
17
100
AcDbEntity
  8
Painéis
 62
1
370
25
100
AcDbText
 10
3204.720741980814
 20
2549.061945633754
 30
0.0
 40
7.0
  1
161.5
100
AcDbText
  0
TEXT
  5
DA
330
17
100
AcDbEntity
  8
Painéis
 62
1
370
25
100
AcDbText
 10
2984.456091544593
 20
2550.870987708348
 30
0.0
 40
7.0
  1
35.5
 50
90.0
100
AcDbText
  0
TEXT
  5
DB
330
17
100
AcDbEntity
  8
Painéis
 62
1
370
25
100
AcDbText
 10
3007.315713774191
 20
2586.370987708348
 30
0.0
 40
7.0
  1
35.5
 50
90.0
100
AcDbText
  0
HATCH
  5
DC
330
17
100
AcDbEntity
  8
REAPROVEITAMENTO
 62
7
100
AcDbHatch
 10
0.0
 20
0.0
 30
0.0
210
0.0
220
0.0
230
1.0
  2
ANSI31
 70
0
 71
0
 91
1
 92
3
 72
0
 73
1
 93
5
 10
3285.470741980815
 20
2533.120987708347
 10
3285.470741980814
 20
2604.120987708347
 10
2949.970741980814
 20
2604.120987708347
 10
2949.970741980814
 20
2533.120987708347
 10
3285.470741980815
 20
2533.120987708347
 97
0
 75
1
 76
1
 52
0.0
 41
1.0
 77
0
 78
1
 53
45.0
 43
0.0
 44
0.0
 45
-2.2450640303
 46
2.2450640303
 79
0
 98
0
  0
ENDSEC
  0
SECTION
  2
OBJECTS
  0
DICTIONARY
  5
A
330
0
100
AcDbDictionary
281
1
  3
ACAD_COLOR
350
B
  3
ACAD_GROUP
350
C
  3
ACAD_LAYOUT
350
D
  3
ACAD_MATERIAL
350
E
  3
ACAD_MLEADERSTYLE
350
F
  3
ACAD_MLINESTYLE
350
10
  3
ACAD_PLOTSETTINGS
350
11
  3
ACAD_PLOTSTYLENAME
350
12
  3
ACAD_SCALELIST
350
14
  3
ACAD_TABLESTYLE
350
15
  3
ACAD_VISUALSTYLE
350
16
  3
EZDXF_META
350
2D
  0
DICTIONARY
  5
B
330
A
100
AcDbDictionary
281
1
  0
DICTIONARY
  5
C
330
A
100
AcDbDictionary
281
1
  0
DICTIONARY
  5
D
330
A
100
AcDbDictionary
281
1
  3
Model
350
1A
  3
Layout1
350
1E
  0
DICTIONARY
  5
E
330
A
100
AcDbDictionary
281
1
  3
ByBlock
350
1F
  3
ByLayer
350
20
  3
Global
350
21
  0
DICTIONARY
  5
F
330
A
100
AcDbDictionary
281
1
  3
Standard
350
2C
  0
DICTIONARY
  5
10
330
A
100
AcDbDictionary
281
1
  3
Standard
350
22
  0
DICTIONARY
  5
11
330
A
100
AcDbDictionary
281
1
  0
ACDBDICTIONARYWDFLT
  5
12
330
A
100
AcDbDictionary
281
1
  3
Normal
350
13
100
AcDbDictionaryWithDefault
340
13
  0
ACDBPLACEHOLDER
  5
13
330
12
  0
DICTIONARY
  5
14
330
A
100
AcDbDictionary
281
1
  0
DICTIONARY
  5
15
330
A
100
AcDbDictionary
281
1
  0
DICTIONARY
  5
16
330
A
100
AcDbDictionary
281
1
  0
LAYOUT
  5
1A
330
D
100
AcDbPlotSettings
  1

  4
A3
  6

 40
7.5
 41
20.0
 42
7.5
 43
20.0
 44
420.0
 45
297.0
 46
0.0
 47
0.0
 48
0.0
 49
0.0
140
0.0
141
0.0
142
1.0
143
1.0
 70
1024
 72
1
 73
0
 74
5
  7

 75
16
 76
0
 77
2
 78
300
147
1.0
148
0.0
149
0.0
100
AcDbLayout
  1
Model
 70
1
 71
0
 10
0.0
 20
0.0
 11
420.0
 21
297.0
 12
0.0
 22
0.0
 32
0.0
 14
1e+20
 24
1e+20
 34
1e+20
 15
-1e+20
 25
-1e+20
 35
-1e+20
146
0.0
 13
0.0
 23
0.0
 33
0.0
 16
1.0
 26
0.0
 36
0.0
 17
0.0
 27
1.0
 37
0.0
 76
1
330
17
  0
LAYOUT
  5
1E
330
D
100
AcDbPlotSettings
  1

  4
A3
  6

 40
7.5
 41
20.0
 42
7.5
 43
20.0
 44
420.0
 45
297.0
 46
0.0
 47
0.0
 48
0.0
 49
0.0
140
0.0
141
0.0
142
1.0
143
1.0
 70
0
 72
1
 73
0
 74
5
  7

 75
16
 76
0
 77
2
 78
300
147
1.0
148
0.0
149
0.0
100
AcDbLayout
  1
Layout1
 70
1
 71
1
 10
0.0
 20
0.0
 11
420.0
 21
297.0
 12
0.0
 22
0.0
 32
0.0
 14
1e+20
 24
1e+20
 34
1e+20
 15
-1e+20
 25
-1e+20
 35
-1e+20
146
0.0
 13
0.0
 23
0.0
 33
0.0
 16
1.0
 26
0.0
 36
0.0
 17
0.0
 27
1.0
 37
0.0
 76
1
330
1B
  0
MATERIAL
  5
1F
102
{ACAD_REACTORS
330
E
102
}
330
E
100
AcDbMaterial
  1
ByBlock
  2

 70
0
 40
1.0
 71
1
 41
1.0
 91
-1023410177
 42
1.0
 72
1
  3

 73
1
 74
1
 75
1
 44
0.5
 73
0
 45
1.0
 46
1.0
 77
1
  4

 78
1
 79
1
170
1
 48
1.0
171
1
  6

172
1
173
1
174
1
140
1.0
141
1.0
175
1
  7

176
1
177
1
178
1
143
1.0
179
1
  8

270
1
271
1
272
1
145
1.0
146
1.0
273
1
  9

274
1
275
1
276
1
 42
1.0
 72
1
  3

 73
1
 74
1
 75
1
 94
63
  0
MATERIAL
  5
20
102
{ACAD_REACTORS
330
E
102
}
330
E
100
AcDbMaterial
  1
ByLayer
  2

 70
0
 40
1.0
 71
1
 41
1.0
 91
-1023410177
 42
1.0
 72
1
  3

 73
1
 74
1
 75
1
 44
0.5
 73
0
 45
1.0
 46
1.0
 77
1
  4

 78
1
 79
1
170
1
 48
1.0
171
1
  6

172
1
173
1
174
1
140
1.0
141
1.0
175
1
  7

176
1
177
1
178
1
143
1.0
179
1
  8

270
1
271
1
272
1
145
1.0
146
1.0
273
1
  9

274
1
275
1
276
1
 42
1.0
 72
1
  3

 73
1
 74
1
 75
1
 94
63
  0
MATERIAL
  5
21
102
{ACAD_REACTORS
330
E
102
}
330
E
100
AcDbMaterial
  1
Global
  2

 70
0
 40
1.0
 71
1
 41
1.0
 91
-1023410177
 42
1.0
 72
1
  3

 73
1
 74
1
 75
1
 44
0.5
 73
0
 45
1.0
 46
1.0
 77
1
  4

 78
1
 79
1
170
1
 48
1.0
171
1
  6

172
1
173
1
174
1
140
1.0
141
1.0
175
1
  7

176
1
177
1
178
1
143
1.0
179
1
  8

270
1
271
1
272
1
145
1.0
146
1.0
273
1
  9

274
1
275
1
276
1
 42
1.0
 72
1
  3

 73
1
 74
1
 75
1
 94
63
  0
MLINESTYLE
  5
22
102
{ACAD_REACTORS
330
10
102
}
330
10
100
AcDbMlineStyle
  2
Standard
 70
0
  3

 62
256
 51
90.0
 52
90.0
 71
2
 49
0.5
 62
256
  6
BYLAYER
 49
-0.5
 62
256
  6
BYLAYER
  0
MLEADERSTYLE
  5
2C
102
{ACAD_REACTORS
330
F
102
}
330
F
100
AcDbMLeaderStyle
179
2
170
2
171
1
172
0
 90
2
 40
0.0
 41
0.0
173
1
 91
-1056964608
 92
-2
290
1
 42
2.0
291
1
 43
8.0
  3
Standard
 44
4.0
300

342
29
174
1
175
1
176
0
178
1
 93
-1056964608
 45
4.0
292
0
297
0
 46
4.0
 94
-1056964608
 47
1.0
 49
1.0
140
1.0
294
1
141
0.0
177
0
142
1.0
295
0
296
0
143
3.75
271
0
272
9
273
9
  0
DICTIONARY
  5
2D
330
A
100
AcDbDictionary
280
1
281
1
  3
CREATED_BY_EZDXF
350
2E
  3
WRITTEN_BY_EZDXF
350
DF
  0
DICTIONARYVAR
  5
2E
330
2D
100
DictionaryVariables
280
0
  1
1.4.3 @ 2026-06-10T17:42:39.161624+00:00
  0
DICTIONARYVAR
  5
DF
330
2D
100
DictionaryVariables
280
0
  1
1.4.3 @ 2026-06-10T17:42:39.168001+00:00
  0
ENDSEC
  0
EOF
