  0
SECTION
  2
HEADER
  9
$ACADVER
  1
AC1024
  9
$ACADMAINTVER
 70
6
  9
$DWGCODEPAGE
  3
ANSI_1252
  9
$LASTSAVEDBY
  1
ezdxf
  9
$INSBASE
 10
0.0
 20
0.0
 30
0.0
  9
$EXTMIN
 10
1e+20
 20
1e+20
 30
1e+20
  9
$EXTMAX
 10
-1e+20
 20
-1e+20
 30
-1e+20
  9
$LIMMIN
 10
0.0
 20
0.0
  9
$LIMMAX
 10
420.0
 20
297.0
  9
$ORTHOMODE
 70
0
  9
$REGENMODE
 70
1
  9
$FILLMODE
 70
1
  9
$QTEXTMODE
 70
0
  9
$MIRRTEXT
 70
1
  9
$LTSCALE
 40
1.0
  9
$ATTMODE
 70
1
  9
$TEXTSIZE
 40
2.5
  9
$TRACEWID
 40
1.0
  9
$TEXTSTYLE
  7
Standard
  9
$CLAYER
  8
0
  9
$CELTYPE
  6
ByLayer
  9
$CECOLOR
 62
256
  9
$CELTSCALE
 40
1.0
  9
$DISPSILH
 70
0
  9
$DIMSCALE
 40
1.0
  9
$DIMASZ
 40
2.5
  9
$DIMEXO
 40
0.625
  9
$DIMDLI
 40
3.75
  9
$DIMRND
 40
0.0
  9
$DIMDLE
 40
0.0
  9
$DIMEXE
 40
1.25
  9
$DIMTP
 40
0.0
  9
$DIMTM
 40
0.0
  9
$DIMTXT
 40
2.5
  9
$DIMCEN
 40
2.5
  9
$DIMTSZ
 40
0.0
  9
$DIMTOL
 70
0
  9
$DIMLIM
 70
0
  9
$DIMTIH
 70
0
  9
$DIMTOH
 70
0
  9
$DIMSE1
 70
0
  9
$DIMSE2
 70
0
  9
$DIMTAD
 70
1
  9
$DIMZIN
 70
8
  9
$DIMBLK
  1

  9
$DIMASO
 70
1
  9
$DIMSHO
 70
1
  9
$DIMPOST
  1

  9
$DIMAPOST
  1

  9
$DIMALT
 70
0
  9
$DIMALTD
 70
3
  9
$DIMALTF
 40
0.03937007874
  9
$DIMLFAC
 40
1.0
  9
$DIMTOFL
 70
1
  9
$DIMTVP
 40
0.0
  9
$DIMTIX
 70
0
  9
$DIMSOXD
 70
0
  9
$DIMSAH
 70
0
  9
$DIMBLK1
  1

  9
$DIMBLK2
  1

  9
$DIMSTYLE
  2
ISO-25
  9
$DIMCLRD
 70
0
  9
$DIMCLRE
 70
0
  9
$DIMCLRT
 70
0
  9
$DIMTFAC
 40
1.0
  9
$DIMGAP
 40
0.625
  9
$DIMJUST
 70
0
  9
$DIMSD1
 70
0
  9
$DIMSD2
 70
0
  9
$DIMTOLJ
 70
0
  9
$DIMTZIN
 70
8
  9
$DIMALTZ
 70
0
  9
$DIMALTTZ
 70
0
  9
$DIMUPT
 70
0
  9
$DIMDEC
 70
2
  9
$DIMTDEC
 70
2
  9
$DIMALTU
 70
2
  9
$DIMALTTD
 70
3
  9
$DIMTXSTY
  7
Standard
  9
$DIMAUNIT
 70
0
  9
$DIMADEC
 70
0
  9
$DIMALTRND
 40
0.0
  9
$DIMAZIN
 70
0
  9
$DIMDSEP
 70
44
  9
$DIMATFIT
 70
3
  9
$DIMFRAC
 70
0
  9
$DIMLDRBLK
  1

  9
$DIMLUNIT
 70
2
  9
$DIMLWD
 70
-2
  9
$DIMLWE
 70
-2
  9
$DIMTMOVE
 70
0
  9
$DIMFXL
 40
1.0
  9
$DIMFXLON
 70
0
  9
$DIMJOGANG
 40
0.785398163397
  9
$DIMTFILL
 70
0
  9
$DIMTFILLCLR
 70
0
  9
$DIMARCSYM
 70
0
  9
$DIMLTYPE
  6

  9
$DIMLTEX1
  6

  9
$DIMLTEX2
  6

  9
$DIMTXTDIRECTION
 70
0
  9
$LUNITS
 70
2
  9
$LUPREC
 70
4
  9
$SKETCHINC
 40
1.0
  9
$FILLETRAD
 40
10.0
  9
$AUNITS
 70
0
  9
$AUPREC
 70
2
  9
$MENU
  1
.
  9
$ELEVATION
 40
0.0
  9
$PELEVATION
 40
0.0
  9
$THICKNESS
 40
0.0
  9
$LIMCHECK
 70
0
  9
$CHAMFERA
 40
0.0
  9
$CHAMFERB
 40
0.0
  9
$CHAMFERC
 40
0.0
  9
$CHAMFERD
 40
0.0
  9
$SKPOLY
 70
0
  9
$TDCREATE
 40
2461202.612951389
  9
$TDUCREATE
 40
2458532.153996898
  9
$TDUPDATE
 40
2461202.612951389
  9
$TDUUPDATE
 40
2458532.1544311
  9
$TDINDWG
 40
0.0
  9
$TDUSRTIMER
 40
0.0
  9
$USRTIMER
 70
1
  9
$ANGBASE
 50
0.0
  9
$ANGDIR
 70
0
  9
$PDMODE
 70
0
  9
$PDSIZE
 40
0.0
  9
$PLINEWID
 40
0.0
  9
$SPLFRAME
 70
0
  9
$SPLINETYPE
 70
6
  9
$SPLINESEGS
 70
8
  9
$HANDSEED
  5
F6
  9
$SURFTAB1
 70
6
  9
$SURFTAB2
 70
6
  9
$SURFTYPE
 70
6
  9
$SURFU
 70
6
  9
$SURFV
 70
6
  9
$UCSBASE
  2

  9
$UCSNAME
  2

  9
$UCSORG
 10
0.0
 20
0.0
 30
0.0
  9
$UCSXDIR
 10
1.0
 20
0.0
 30
0.0
  9
$UCSYDIR
 10
0.0
 20
1.0
 30
0.0
  9
$UCSORTHOREF
  2

  9
$UCSORTHOVIEW
 70
0
  9
$UCSORGTOP
 10
0.0
 20
0.0
 30
0.0
  9
$UCSORGBOTTOM
 10
0.0
 20
0.0
 30
0.0
  9
$UCSORGLEFT
 10
0.0
 20
0.0
 30
0.0
  9
$UCSORGRIGHT
 10
0.0
 20
0.0
 30
0.0
  9
$UCSORGFRONT
 10
0.0
 20
0.0
 30
0.0
  9
$UCSORGBACK
 10
0.0
 20
0.0
 30
0.0
  9
$PUCSBASE
  2

  9
$PUCSNAME
  2

  9
$PUCSORG
 10
0.0
 20
0.0
 30
0.0
  9
$PUCSXDIR
 10
1.0
 20
0.0
 30
0.0
  9
$PUCSYDIR
 10
0.0
 20
1.0
 30
0.0
  9
$PUCSORTHOREF
  2

  9
$PUCSORTHOVIEW
 70
0
  9
$PUCSORGTOP
 10
0.0
 20
0.0
 30
0.0
  9
$PUCSORGBOTTOM
 10
0.0
 20
0.0
 30
0.0
  9
$PUCSORGLEFT
 10
0.0
 20
0.0
 30
0.0
  9
$PUCSORGRIGHT
 10
0.0
 20
0.0
 30
0.0
  9
$PUCSORGFRONT
 10
0.0
 20
0.0
 30
0.0
  9
$PUCSORGBACK
 10
0.0
 20
0.0
 30
0.0
  9
$USERI1
 70
0
  9
$USERI2
 70
0
  9
$USERI3
 70
0
  9
$USERI4
 70
0
  9
$USERI5
 70
0
  9
$USERR1
 40
0.0
  9
$USERR2
 40
0.0
  9
$USERR3
 40
0.0
  9
$USERR4
 40
0.0
  9
$USERR5
 40
0.0
  9
$WORLDVIEW
 70
1
  9
$SHADEDGE
 70
3
  9
$SHADEDIF
 70
70
  9
$TILEMODE
 70
1
  9
$MAXACTVP
 70
64
  9
$PINSBASE
 10
0.0
 20
0.0
 30
0.0
  9
$PLIMCHECK
 70
0
  9
$PEXTMIN
 10
1e+20
 20
1e+20
 30
1e+20
  9
$PEXTMAX
 10
-1e+20
 20
-1e+20
 30
-1e+20
  9
$PLIMMIN
 10
0.0
 20
0.0
  9
$PLIMMAX
 10
420.0
 20
297.0
  9
$UNITMODE
 70
0
  9
$VISRETAIN
 70
1
  9
$PLINEGEN
 70
0
  9
$PSLTSCALE
 70
1
  9
$TREEDEPTH
 70
3020
  9
$CMLSTYLE
  2
Standard
  9
$CMLJUST
 70
0
  9
$CMLSCALE
 40
20.0
  9
$PROXYGRAPHICS
 70
1
  9
$MEASUREMENT
 70
1
  9
$CELWEIGHT
370
-1
  9
$ENDCAPS
280
0
  9
$JOINSTYLE
280
0
  9
$LWDISPLAY
290
0
  9
$INSUNITS
 70
6
  9
$HYPERLINKBASE
  1

  9
$STYLESHEET
  1

  9
$XEDIT
290
1
  9
$CEPSNTYPE
380
0
  9
$PSTYLEMODE
290
1
  9
$FINGERPRINTGUID
  2
{CAC14500-54EC-4E3C-B8A6-12184FFE152E}
  9
$VERSIONGUID
  2
{DFCF798D-A68B-42F6-8DA3-B0F3AE007AB4}
  9
$EXTNAMES
290
1
  9
$PSVPSCALE
 40
0.0
  9
$OLESTARTUP
290
0
  9
$SORTENTS
280
127
  9
$INDEXCTL
280
0
  9
$HIDETEXT
280
1
  9
$XCLIPFRAME
280
1
  9
$HALOGAP
280
0
  9
$OBSCOLOR
 70
257
  9
$OBSLTYPE
280
0
  9
$INTERSECTIONDISPLAY
280
0
  9
$INTERSECTIONCOLOR
 70
257
  9
$DIMASSOC
280
2
  9
$PROJECTNAME
  1

  9
$CAMERADISPLAY
290
0
  9
$LENSLENGTH
 40
50.0
  9
$CAMERAHEIGHT
 40
0.0
  9
$STEPSPERSEC
 40
24.0
  9
$STEPSIZE
 40
100.0
  9
$3DDWFPREC
 40
2.0
  9
$PSOLWIDTH
 40
0.005
  9
$PSOLHEIGHT
 40
0.08
  9
$LOFTANG1
 40
1.570796326795
  9
$LOFTANG2
 40
1.570796326795
  9
$LOFTMAG1
 40
0.0
  9
$LOFTMAG2
 40
0.0
  9
$LOFTPARAM
 70
7
  9
$LOFTNORMALS
280
1
  9
$LATITUDE
 40
37.795
  9
$LONGITUDE
 40
-122.394
  9
$NORTHDIRECTION
 40
0.0
  9
$TIMEZONE
 70
-8000
  9
$LIGHTGLYPHDISPLAY
280
1
  9
$TILEMODELIGHTSYNCH
280
1
  9
$CMATERIAL
347
20
  9
$SOLIDHIST
280
0
  9
$SHOWHIST
280
1
  9
$DWFFRAME
280
2
  9
$DGNFRAME
280
2
  9
$REALWORLDSCALE
290
1
  9
$INTERFERECOLOR
 62
256
  9
$CSHADOW
280
0
  9
$SHADOWPLANELOCATION
 40
0.0
  0
ENDSEC
  0
SECTION
  2
CLASSES
  0
CLASS
  1
ACDBDICTIONARYWDFLT
  2
AcDbDictionaryWithDefault
  3
ObjectDBX Classes
 90
0
 91
0
280
0
281
0
  0
CLASS
  1
SUN
  2
AcDbSun
  3
SCENEOE
 90
1153
 91
0
280
0
281
0
  0
CLASS
  1
VISUALSTYLE
  2
AcDbVisualStyle
  3
ObjectDBX Classes
 90
4095
 91
0
280
0
281
0
  0
CLASS
  1
MATERIAL
  2
AcDbMaterial
  3
ObjectDBX Classes
 90
1153
 91
0
280
0
281
0
  0
CLASS
  1
SCALE
  2
AcDbScale
  3
ObjectDBX Classes
 90
1153
 91
0
280
0
281
0
  0
CLASS
  1
TABLESTYLE
  2
AcDbTableStyle
  3
ObjectDBX Classes
 90
4095
 91
0
280
0
281
0
  0
CLASS
  1
MLEADERSTYLE
  2
AcDbMLeaderStyle
  3
ACDB_MLEADERSTYLE_CLASS
 90
4095
 91
0
280
0
281
0
  0
CLASS
  1
DICTIONARYVAR
  2
AcDbDictionaryVar
  3
ObjectDBX Classes
 90
0
 91
0
280
0
281
0
  0
CLASS
  1
CELLSTYLEMAP
  2
AcDbCellStyleMap
  3
ObjectDBX Classes
 90
1152
 91
0
280
0
281
0
  0
CLASS
  1
MENTALRAYRENDERSETTINGS
  2
AcDbMentalRayRenderSettings
  3
SCENEOE
 90
1024
 91
0
280
0
281
0
  0
CLASS
  1
ACDBDETAILVIEWSTYLE
  2
AcDbDetailViewStyle
  3
ObjectDBX Classes
 90
1025
 91
0
280
0
281
0
  0
CLASS
  1
ACDBSECTIONVIEWSTYLE
  2
AcDbSectionViewStyle
  3
ObjectDBX Classes
 90
1025
 91
0
280
0
281
0
  0
CLASS
  1
RASTERVARIABLES
  2
AcDbRasterVariables
  3
ISM
 90
0
 91
0
280
0
281
0
  0
CLASS
  1
ACDBPLACEHOLDER
  2
AcDbPlaceHolder
  3
ObjectDBX Classes
 90
0
 91
0
280
0
281
0
  0
CLASS
  1
LAYOUT
  2
AcDbLayout
  3
ObjectDBX Classes
 90
0
 91
0
280
0
281
0
  0
ENDSEC
  0
SECTION
  2
TABLES
  0
TABLE
  2
VPORT
  5
8
330
0
100
AcDbSymbolTable
 70
1
  0
VPORT
  5
23
330
8
100
AcDbSymbolTableRecord
100
AcDbViewportTableRecord
  2
*Active
 70
0
 10
0.0
 20
0.0
 11
1.0
 21
1.0
 12
0.0
 22
0.0
 13
0.0
 23
0.0
 14
0.5
 24
0.5
 15
0.5
 25
0.5
 16
0.0
 26
0.0
 36
1.0
 17
0.0
 27
0.0
 37
0.0
 40
1000.0
 41
1.34
 42
50.0
 43
0.0
 44
0.0
 50
0.0
 51
0.0
 71
0
 72
1000
 73
1
 74
3
 75
0
 76
0
 77
0
 78
0
281
0
 65
0
146
0.0
  0
ENDTAB
  0
TABLE
  2
LTYPE
  5
2
330
0
100
AcDbSymbolTable
 70
3
  0
LTYPE
  5
24
330
2
100
AcDbSymbolTableRecord
100
AcDbLinetypeTableRecord
  2
ByBlock
 70
0
  3

 72
65
 73
0
 40
0.0
  0
LTYPE
  5
25
330
2
100
AcDbSymbolTableRecord
100
AcDbLinetypeTableRecord
  2
ByLayer
 70
0
  3

 72
65
 73
0
 40
0.0
  0
LTYPE
  5
26
330
2
100
AcDbSymbolTableRecord
100
AcDbLinetypeTableRecord
  2
Continuous
 70
0
  3

 72
65
 73
0
 40
0.0
  0
ENDTAB
  0
TABLE
  2
LAYER
  5
1
330
0
100
AcDbSymbolTable
 70
7
  0
LAYER
  5
27
330
1
100
AcDbSymbolTableRecord
100
AcDbLayerTableRecord
  2
0
 70
0
 62
7
  6
Continuous
370
-3
390
13
347
21
  0
LAYER
  5
28
330
1
100
AcDbSymbolTableRecord
100
AcDbLayerTableRecord
  2
Defpoints
 70
0
 62
7
  6
Continuous
290
0
370
-3
390
13
347
21
  0
LAYER
  5
2F
330
1
100
AcDbSymbolTableRecord
100
AcDbLayerTableRecord
  2
4
 70
0
 62
7
  6
Continuous
370
-3
390
13
347
21
  0
LAYER
  5
30
330
1
100
AcDbSymbolTableRecord
100
AcDbLayerTableRecord
  2
7
 70
0
 62
7
  6
Continuous
370
-3
390
13
347
21
  0
LAYER
  5
31
330
1
100
AcDbSymbolTableRecord
100
AcDbLayerTableRecord
  2
3
 70
0
 62
7
  6
Continuous
370
-3
390
13
347
21
  0
LAYER
  5
32
330
1
100
AcDbSymbolTableRecord
100
AcDbLayerTableRecord
  2
Painéis
 70
0
 62
7
  6
Continuous
370
-3
390
13
347
21
  0
LAYER
  5
33
330
1
100
AcDbSymbolTableRecord
100
AcDbLayerTableRecord
  2
REAPROVEITAMENTO
 70
0
 62
7
  6
Continuous
370
-3
390
13
347
21
  0
ENDTAB
  0
TABLE
  2
STYLE
  5
5
330
0
100
AcDbSymbolTable
 70
1
  0
STYLE
  5
29
330
5
100
AcDbSymbolTableRecord
100
AcDbTextStyleTableRecord
  2
Standard
 70
0
 40
0.0
 41
1.0
 50
0.0
 71
0
 42
2.5
  3
txt
  4

  0
ENDTAB
  0
TABLE
  2
VIEW
  5
7
330
0
100
AcDbSymbolTable
 70
0
  0
ENDTAB
  0
TABLE
  2
UCS
  5
6
330
0
100
AcDbSymbolTable
 70
0
  0
ENDTAB
  0
TABLE
  2
APPID
  5
3
330
0
100
AcDbSymbolTable
 70
3
  0
APPID
  5
2A
330
3
100
AcDbSymbolTableRecord
100
AcDbRegAppTableRecord
  2
ACAD
 70
0
  0
APPID
  5
F3
330
3
100
AcDbSymbolTableRecord
100
AcDbRegAppTableRecord
  2
HATCHBACKGROUNDCOLOR
 70
0
  0
APPID
  5
F4
330
3
100
AcDbSymbolTableRecord
100
AcDbRegAppTableRecord
  2
EZDXF
 70
0
  0
ENDTAB
  0
TABLE
  2
DIMSTYLE
  5
4
330
0
100
AcDbSymbolTable
 70
1
100
AcDbDimStyleTable
  0
DIMSTYLE
105
2B
330
4
100
AcDbSymbolTableRecord
100
AcDbDimStyleTableRecord
  2
Standard
 70
0
 40
1.0
 41
2.5
 42
0.625
 43
3.75
 44
1.25
 45
0.0
 46
0.0
 47
0.0
 48
0.0
 49
2.5
140
2.5
141
2.5
142
0.0
143
0.03937007874
144
1.0
145
0.0
146
1.0
147
0.625
148
0.0
 69
0
 70
0
 71
0
 72
0
 73
0
 74
0
 75
0
 76
0
 77
1
 78
8
 79
3
170
0
171
3
172
1
173
0
174
0
175
0
176
0
177
0
178
0
179
2
271
2
272
2
273
2
274
3
275
0
276
0
277
2
278
44
279
0
280
0
281
0
282
0
283
0
284
8
285
0
286
0
288
0
289
3
290
0
371
-2
372
-2
  0
ENDTAB
  0
TABLE
  2
BLOCK_RECORD
  5
9
330
0
100
AcDbSymbolTable
 70
2
  0
BLOCK_RECORD
  5
17
330
9
100
AcDbSymbolTableRecord
100
AcDbBlockTableRecord
  2
*Model_Space
340
1A
 70
0
280
1
281
0
  0
BLOCK_RECORD
  5
1B
330
9
100
AcDbSymbolTableRecord
100
AcDbBlockTableRecord
  2
*Paper_Space
340
1E
 70
0
280
1
281
0
  0
ENDTAB
  0
ENDSEC
  0
SECTION
  2
BLOCKS
  0
BLOCK
  5
18
330
17
100
AcDbEntity
  8
0
100
AcDbBlockBegin
  2
*Model_Space
 70
0
 10
0.0
 20
0.0
 30
0.0
  3
*Model_Space
  1

  0
ENDBLK
  5
19
330
17
100
AcDbEntity
  8
0
100
AcDbBlockEnd
  0
BLOCK
  5
1C
330
1B
100
AcDbEntity
  8
0
100
AcDbBlockBegin
  2
*Paper_Space
 70
0
 10
0.0
 20
0.0
 30
0.0
  3
*Paper_Space
  1

  0
ENDBLK
  5
1D
330
1B
100
AcDbEntity
  8
0
100
AcDbBlockEnd
  0
ENDSEC
  0
SECTION
  2
ENTITIES
  0
LINE
  5
34
330
17
100
AcDbEntity
  8
Painéis
 62
200
370
25
100
AcDbLine
 10
3600.479283980813
 20
2013.120987708347
 30
0.0
 11
3600.479283980813
 21
1590.120987708347
 31
0.0
  0
LINE
  5
35
330
17
100
AcDbEntity
  8
Painéis
 62
200
370
25
100
AcDbLine
 10
3574.479283980814
 20
2013.120987708347
 30
0.0
 11
3574.479283980814
 21
1590.120987708347
 31
0.0
  0
LINE
  5
36
330
17
100
AcDbEntity
  8
Painéis
 62
200
370
25
100
AcDbLine
 10
3452.479283980814
 20
2013.120987708347
 30
0.0
 11
3452.479283980814
 21
1590.120987708347
 31
0.0
  0
LINE
  5
37
330
17
100
AcDbEntity
  8
Painéis
 62
200
370
25
100
AcDbLine
 10
3426.479283980813
 20
2013.120987708347
 30
0.0
 11
3426.479283980813
 21
1590.120987708347
 31
0.0
  0
LINE
  5
38
330
17
100
AcDbEntity
  8
Painéis
 62
200
370
25
100
AcDbLine
 10
3282.970741980814
 20
1535.620987708347
 30
0.0
 11
2869.970741980814
 21
1535.620987708347
 31
0.0
  0
LINE
  5
39
330
17
100
AcDbEntity
  8
Painéis
 62
200
370
25
100
AcDbLine
 10
3504.470741980814
 20
1500.120987708347
 30
0.0
 11
3504.470741980814
 21
1571.120987708347
 31
0.0
  0
LINE
  5
3A
330
17
100
AcDbEntity
  8
Painéis
 62
200
370
25
100
AcDbLine
 10
3306.970741980814
 20
1535.620987708347
 30
0.0
 11
3719.970741980814
 21
1535.620987708347
 31
0.0
  0
LINE
  5
3B
330
17
100
AcDbEntity
  8
Painéis
 62
200
370
25
100
AcDbLine
 10
3743.970741980814
 20
1535.620987708347
 30
0.0
 11
4156.970741980813
 21
1535.620987708347
 31
0.0
  0
LINE
  5
3C
330
17
100
AcDbEntity
  8
3
 62
3
370
25
100
AcDbLine
 10
3306.508518980814
 20
1486.120987708347
 30
0.0
 11
3306.970741980814
 21
1486.58321070835
 31
0.0
  0
LINE
  5
3D
330
17
100
AcDbEntity
  8
3
 62
3
370
25
100
AcDbLine
 10
3294.487702980813
 20
1486.120987708347
 30
0.0
 11
3306.970741980814
 21
1498.60402670835
 31
0.0
  0
LINE
  5
3E
330
17
100
AcDbEntity
  8
3
 62
3
370
25
100
AcDbLine
 10
3282.970741980814
 20
1486.62484170835
 30
0.0
 11
3306.970741980814
 21
1510.62484170835
 31
0.0
  0
LINE
  5
3F
330
17
100
AcDbEntity
  8
3
 62
3
370
25
100
AcDbLine
 10
3282.970741980814
 20
1498.645656708349
 30
0.0
 11
3306.970741980814
 21
1522.645656708349
 31
0.0
  0
LINE
  5
40
330
17
100
AcDbEntity
  8
3
 62
3
370
25
100
AcDbLine
 10
3282.970741980814
 20
1510.66647270835
 30
0.0
 11
3306.970741980814
 21
1534.66647270835
 31
0.0
  0
LINE
  5
41
330
17
100
AcDbEntity
  8
3
 62
3
370
25
100
AcDbLine
 10
3282.970741980814
 20
1522.68728770835
 30
0.0
 11
3306.970741980814
 21
1546.68728770835
 31
0.0
  0
LINE
  5
42
330
17
100
AcDbEntity
  8
3
 62
3
370
25
100
AcDbLine
 10
3282.970741980814
 20
1534.708102708349
 30
0.0
 11
3300.383626980814
 21
1552.120987708347
 31
0.0
  0
LINE
  5
43
330
17
100
AcDbEntity
  8
3
 62
3
370
25
100
AcDbLine
 10
3282.970741980814
 20
1546.728917708349
 30
0.0
 11
3288.362811980814
 21
1552.120987708347
 31
0.0
  0
LINE
  5
44
330
17
100
AcDbEntity
  8
3
 62
3
370
25
100
AcDbLine
 10
3739.257868980814
 20
1486.120987708347
 30
0.0
 11
3743.970741980814
 21
1490.833860708348
 31
0.0
  0
LINE
  5
45
330
17
100
AcDbEntity
  8
3
 62
3
370
25
100
AcDbLine
 10
3727.237052980814
 20
1486.120987708347
 30
0.0
 11
3743.970741980814
 21
1502.854676708348
 31
0.0
  0
LINE
  5
46
330
17
100
AcDbEntity
  8
3
 62
3
370
25
100
AcDbLine
 10
3719.970741980814
 20
1490.875491708348
 30
0.0
 11
3743.970741980814
 21
1514.875491708348
 31
0.0
  0
LINE
  5
47
330
17
100
AcDbEntity
  8
3
 62
3
370
25
100
AcDbLine
 10
3719.970741980814
 20
1502.896306708348
 30
0.0
 11
3743.970741980814
 21
1526.896306708348
 31
0.0
  0
LINE
  5
48
330
17
100
AcDbEntity
  8
3
 62
3
370
25
100
AcDbLine
 10
3719.970741980814
 20
1514.917121708348
 30
0.0
 11
3743.970741980814
 21
1538.917121708347
 31
0.0
  0
LINE
  5
49
330
17
100
AcDbEntity
  8
3
 62
3
370
25
100
AcDbLine
 10
3719.970741980814
 20
1526.937937708348
 30
0.0
 11
3743.970741980814
 21
1550.937937708348
 31
0.0
  0
LINE
  5
4A
330
17
100
AcDbEntity
  8
3
 62
3
370
25
100
AcDbLine
 10
3719.970741980814
 20
1538.958752708348
 30
0.0
 11
3733.132976980814
 21
1552.120987708347
 31
0.0
  0
LINE
  5
4B
330
17
100
AcDbEntity
  8
3
 62
3
370
25
100
AcDbLine
 10
3719.970741980814
 20
1550.979567708347
 30
0.0
 11
3721.112161980814
 21
1552.120987708347
 31
0.0
  0
LINE
  5
4C
330
17
100
AcDbEntity
  8
3
 62
3
370
25
100
AcDbLine
 10
3557.853935980814
 20
1545.189808708348
 30
0.0
 11
3557.853935980814
 21
1520.189808708348
 31
0.0
  0
LINE
  5
4D
330
17
100
AcDbEntity
  8
3
 62
3
370
25
100
AcDbLine
 10
3545.353935980814
 20
1532.689808708348
 30
0.0
 11
3570.353935980814
 21
1532.689808708348
 31
0.0
  0
LINE
  5
4E
330
17
100
AcDbEntity
  8
3
 62
3
370
25
100
AcDbLine
 10
3557.853935980814
 20
1544.582461708347
 30
0.0
 11
3561.703060980813
 21
1544.582461708347
 31
0.0
  0
LINE
  5
4F
330
17
100
AcDbEntity
  8
3
 62
3
370
25
100
AcDbLine
 10
3557.853935980814
 20
1543.789612708349
 30
0.0
 11
3563.602397980814
 21
1543.789612708349
 31
0.0
  0
LINE
  5
50
330
17
100
AcDbEntity
  8
3
 62
3
370
25
100
AcDbLine
 10
3557.853935980814
 20
1542.996763708348
 30
0.0
 11
3564.926193980813
 21
1542.996763708348
 31
0.0
  0
LINE
  5
51
330
17
100
AcDbEntity
  8
3
 62
3
370
25
100
AcDbLine
 10
3557.853935980814
 20
1542.20390270835
 30
0.0
 11
3565.961454980814
 21
1542.20390270835
 31
0.0
  0
LINE
  5
52
330
17
100
AcDbEntity
  8
3
 62
3
370
25
100
AcDbLine
 10
3557.853935980814
 20
1541.411112708347
 30
0.0
 11
3566.808793980814
 21
1541.411112708347
 31
0.0
  0
LINE
  5
53
330
17
100
AcDbEntity
  8
3
 62
3
370
25
100
AcDbLine
 10
3557.853935980814
 20
1540.618263708349
 30
0.0
 11
3567.517803980814
 21
1540.618263708349
 31
0.0
  0
LINE
  5
54
330
17
100
AcDbEntity
  8
3
 62
3
370
25
100
AcDbLine
 10
3557.853935980814
 20
1539.825402708348
 30
0.0
 11
3568.117139980814
 21
1539.825402708348
 31
0.0
  0
LINE
  5
55
330
17
100
AcDbEntity
  8
3
 62
3
370
25
100
AcDbLine
 10
3557.853935980814
 20
1539.03255370835
 30
0.0
 11
3568.625162980814
 21
1539.03255370835
 31
0.0
  0
LINE
  5
56
330
17
100
AcDbEntity
  8
3
 62
3
370
25
100
AcDbLine
 10
3557.853935980814
 20
1538.239704708348
 30
0.0
 11
3569.054315980814
 21
1538.239704708348
 31
0.0
  0
LINE
  5
57
330
17
100
AcDbEntity
  8
3
 62
3
370
25
100
AcDbLine
 10
3557.853935980814
 20
1537.446855708347
 30
0.0
 11
3569.413373980814
 21
1537.446855708347
 31
0.0
  0
LINE
  5
58
330
17
100
AcDbEntity
  8
3
 62
3
370
25
100
AcDbLine
 10
3557.853935980814
 20
1536.65400670835
 30
0.0
 11
3569.708679980813
 21
1536.65400670835
 31
0.0
  0
LINE
  5
59
330
17
100
AcDbEntity
  8
3
 62
3
370
25
100
AcDbLine
 10
3557.853935980814
 20
1535.86120570835
 30
0.0
 11
3569.944951980814
 21
1535.86120570835
 31
0.0
  0
LINE
  5
5A
330
17
100
AcDbEntity
  8
3
 62
3
370
25
100
AcDbLine
 10
3557.853935980814
 20
1535.068356708349
 30
0.0
 11
3570.125530980813
 21
1535.068356708349
 31
0.0
  0
LINE
  5
5B
330
17
100
AcDbEntity
  8
3
 62
3
370
25
100
AcDbLine
 10
3557.853935980814
 20
1534.275507708347
 30
0.0
 11
3570.252941980814
 21
1534.275507708347
 31
0.0
  0
LINE
  5
5C
330
17
100
AcDbEntity
  8
3
 62
3
370
25
100
AcDbLine
 10
3557.853935980814
 20
1533.48265870835
 30
0.0
 11
3570.353935980814
 21
1533.48265870835
 31
0.0
  0
LINE
  5
5D
330
17
100
AcDbEntity
  8
3
 62
3
370
25
100
AcDbLine
 10
3557.853887980814
 20
1520.797204708348
 30
0.0
 11
3554.004810980813
 21
1520.797204708348
 31
0.0
  0
LINE
  5
5E
330
17
100
AcDbEntity
  8
3
 62
3
370
25
100
AcDbLine
 10
3557.853887980814
 20
1521.590053708349
 30
0.0
 11
3552.105424980814
 21
1521.590053708349
 31
0.0
  0
LINE
  5
5F
330
17
100
AcDbEntity
  8
3
 62
3
370
25
100
AcDbLine
 10
3557.853887980814
 20
1522.38290270835
 30
0.0
 11
3550.781629980814
 21
1522.38290270835
 31
0.0
  0
LINE
  5
60
330
17
100
AcDbEntity
  8
3
 62
3
370
25
100
AcDbLine
 10
3557.853887980814
 20
1523.17570370835
 30
0.0
 11
3549.746368980814
 21
1523.17570370835
 31
0.0
  0
LINE
  5
61
330
17
100
AcDbEntity
  8
3
 62
3
370
25
100
AcDbLine
 10
3557.853887980814
 20
1523.96861270835
 30
0.0
 11
3548.899028980814
 21
1523.96861270835
 31
0.0
  0
LINE
  5
62
330
17
100
AcDbEntity
  8
3
 62
3
370
25
100
AcDbLine
 10
3557.853887980814
 20
1524.761413708349
 30
0.0
 11
3548.190067980814
 21
1524.761413708349
 31
0.0
  0
LINE
  5
63
330
17
100
AcDbEntity
  8
3
 62
3
370
25
100
AcDbLine
 10
3557.853887980814
 20
1525.55426270835
 30
0.0
 11
3547.590682980814
 21
1525.55426270835
 31
0.0
  0
LINE
  5
64
330
17
100
AcDbEntity
  8
3
 62
3
370
25
100
AcDbLine
 10
3557.853887980814
 20
1526.347111708348
 30
0.0
 11
3547.082660980814
 21
1526.347111708348
 31
0.0
  0
LINE
  5
65
330
17
100
AcDbEntity
  8
3
 62
3
370
25
100
AcDbLine
 10
3557.853887980814
 20
1527.139960708349
 30
0.0
 11
3546.653507980814
 21
1527.139960708349
 31
0.0
  0
LINE
  5
66
330
17
100
AcDbEntity
  8
3
 62
3
370
25
100
AcDbLine
 10
3557.853887980814
 20
1527.932762708349
 30
0.0
 11
3546.294448980814
 21
1527.932762708349
 31
0.0
  0
LINE
  5
67
330
17
100
AcDbEntity
  8
3
 62
3
370
25
100
AcDbLine
 10
3557.853887980814
 20
1528.725659708349
 30
0.0
 11
3545.999143980814
 21
1528.725659708349
 31
0.0
  0
LINE
  5
68
330
17
100
AcDbEntity
  8
3
 62
3
370
25
100
AcDbLine
 10
3557.853887980814
 20
1529.518460708348
 30
0.0
 11
3545.762870980814
 21
1529.518460708348
 31
0.0
  0
LINE
  5
69
330
17
100
AcDbEntity
  8
3
 62
3
370
25
100
AcDbLine
 10
3557.853887980814
 20
1530.31130970835
 30
0.0
 11
3545.582244980813
 21
1530.31130970835
 31
0.0
  0
LINE
  5
6A
330
17
100
AcDbEntity
  8
3
 62
3
370
25
100
AcDbLine
 10
3557.853887980814
 20
1531.104158708347
 30
0.0
 11
3545.454881980814
 21
1531.104158708347
 31
0.0
  0
LINE
  5
6B
330
17
100
AcDbEntity
  8
3
 62
3
370
25
100
AcDbLine
 10
3557.853887980814
 20
1531.897007708348
 30
0.0
 11
3545.353887980814
 21
1531.897007708348
 31
0.0
  0
LINE
  5
6C
330
17
100
AcDbEntity
  8
3
 62
3
370
25
100
AcDbLine
 10
3570.353935980814
 20
1532.689808708348
 30
0.0
 11
3641.776684980814
 21
1532.689808708348
 31
0.0
  0
LINE
  5
6D
330
17
100
AcDbEntity
  8
3
 62
3
370
25
100
AcDbLine
 10
3545.353935980814
 20
1532.689808708348
 30
0.0
 11
3536.927231980814
 21
1532.689808708348
 31
0.0
  0
LINE
  5
6E
330
17
100
AcDbEntity
  8
3
 62
3
370
25
100
AcDbLine
 10
3557.853935980814
 20
1545.189808708348
 30
0.0
 11
3557.853935980814
 21
1550.69455370835
 31
0.0
  0
LINE
  5
6F
330
17
100
AcDbEntity
  8
3
 62
3
370
25
100
AcDbLine
 10
3557.853935980814
 20
1520.189808708348
 30
0.0
 11
3557.853935980814
 21
1513.321276708348
 31
0.0
  0
LINE
  5
70
330
17
100
AcDbEntity
  8
Painéis
 62
4
370
25
100
AcDbLine
 10
3557.730553619379
 20
1834.120987708348
 30
0.0
 11
3557.730553619379
 21
1590.120987708348
 31
0.0
  0
LINE
  5
71
330
17
100
AcDbEntity
  8
Painéis
 62
0
370
25
100
AcDbLine
 10
3556.230553619379
 20
1591.620987708348
 30
0.0
 11
3559.230553619379
 21
1588.620987708348
 31
0.0
  0
LINE
  5
72
330
17
100
AcDbEntity
  8
Painéis
 62
4
370
25
100
AcDbLine
 10
3105.970741980814
 20
1515.277277925948
 30
0.0
 11
3282.970741980814
 21
1515.277277925948
 31
0.0
  0
LINE
  5
73
330
17
100
AcDbEntity
  8
Painéis
 62
0
370
25
100
AcDbLine
 10
3281.470741980814
 20
1513.777277925948
 30
0.0
 11
3284.470741980814
 21
1516.777277925948
 31
0.0
  0
LINE
  5
74
330
17
100
AcDbEntity
  8
Painéis
 62
4
370
25
100
AcDbLine
 10
3105.970741980814
 20
1571.120987708347
 30
0.0
 11
3285.470741980814
 21
1571.120987708347
 31
0.0
  0
LINE
  5
75
330
17
100
AcDbEntity
  8
Painéis
 62
0
370
25
100
AcDbLine
 10
3283.970741980814
 20
1569.620987708347
 30
0.0
 11
3286.970741980814
 21
1572.620987708347
 31
0.0
  0
LINE
  5
76
330
17
100
AcDbEntity
  8
Painéis
 62
4
370
25
100
AcDbLine
 10
3285.470741980814
 20
1555.120987708347
 30
0.0
 11
3285.470741980814
 21
1558.600395295425
 31
0.0
  0
LINE
  5
77
330
17
100
AcDbEntity
  8
Painéis
 62
4
370
25
100
AcDbLine
 10
3282.970741980814
 20
1555.120987708347
 30
0.0
 11
3282.970741980814
 21
1558.600395295425
 31
0.0
  0
LINE
  5
78
330
17
100
AcDbEntity
  8
Painéis
 62
4
370
25
100
AcDbLine
 10
3285.470741980814
 20
1555.600395295425
 30
0.0
 11
3288.470741980814
 21
1555.600395295425
 31
0.0
  0
LINE
  5
79
330
17
100
AcDbEntity
  8
Painéis
 62
4
370
25
100
AcDbLine
 10
3282.970741980814
 20
1555.600395295425
 30
0.0
 11
3253.615478822919
 21
1555.600395295425
 31
0.0
  0
LINE
  5
7A
330
17
100
AcDbEntity
  8
Painéis
 62
4
370
25
100
AcDbLine
 10
3285.470741980814
 20
1555.600395295425
 30
0.0
 11
3282.970741980814
 21
1555.600395295425
 31
0.0
  0
LINE
  5
7B
330
17
100
AcDbEntity
  8
Painéis
 62
0
370
25
100
AcDbLine
 10
3286.970741980814
 20
1557.100395295425
 30
0.0
 11
3283.970741980814
 21
1554.100395295425
 31
0.0
  0
LINE
  5
7C
330
17
100
AcDbEntity
  8
Painéis
 62
0
370
25
100
AcDbLine
 10
3281.470741980814
 20
1554.100395295425
 30
0.0
 11
3284.470741980814
 21
1557.100395295425
 31
0.0
  0
LINE
  5
7D
330
17
100
AcDbEntity
  8
Painéis
 62
4
370
25
100
AcDbLine
 10
3279.970741980816
 20
1552.120987708348
 30
0.0
 11
3268.610744645164
 21
1552.120987708348
 31
0.0
  0
LINE
  5
7E
330
17
100
AcDbEntity
  8
Painéis
 62
4
370
25
100
AcDbLine
 10
3279.970741980816
 20
1535.620987708348
 30
0.0
 11
3268.610744645164
 21
1535.620987708348
 31
0.0
  0
LINE
  5
7F
330
17
100
AcDbEntity
  8
Painéis
 62
4
370
25
100
AcDbLine
 10
3271.610744645163
 20
1552.120987708348
 30
0.0
 11
3271.610744645163
 21
1535.620987708348
 31
0.0
  0
LINE
  5
80
330
17
100
AcDbEntity
  8
Painéis
 62
4
370
25
100
AcDbLine
 10
3271.610744645163
 20
1535.620987708348
 30
0.0
 11
3271.610744645163
 21
1505.647303497822
 31
0.0
  0
LINE
  5
81
330
17
100
AcDbEntity
  8
Painéis
 62
0
370
25
100
AcDbLine
 10
3273.110744645163
 20
1550.620987708348
 30
0.0
 11
3270.110744645163
 21
1553.620987708348
 31
0.0
  0
LINE
  5
82
330
17
100
AcDbEntity
  8
Painéis
 62
0
370
25
100
AcDbLine
 10
3270.110744645163
 20
1537.120987708348
 30
0.0
 11
3273.110744645163
 21
1534.120987708348
 31
0.0
  0
LINE
  5
83
330
17
100
AcDbEntity
  8
Painéis
 62
4
370
25
100
AcDbLine
 10
3719.970741980814
 20
1515.277277925948
 30
0.0
 11
3504.470741980814
 21
1515.277277925948
 31
0.0
  0
LINE
  5
84
330
17
100
AcDbEntity
  8
Painéis
 62
0
370
25
100
AcDbLine
 10
3718.470741980814
 20
1513.777277925948
 30
0.0
 11
3721.470741980814
 21
1516.777277925948
 31
0.0
  0
LINE
  5
85
330
17
100
AcDbEntity
  8
Painéis
 62
0
370
25
100
AcDbLine
 10
3505.970741980814
 20
1516.777277925948
 30
0.0
 11
3502.970741980814
 21
1513.777277925948
 31
0.0
  0
LINE
  5
86
330
17
100
AcDbEntity
  8
Painéis
 62
4
370
25
100
AcDbLine
 10
3504.470741980814
 20
1515.277277925948
 30
0.0
 11
3306.970741980814
 21
1515.277277925948
 31
0.0
  0
LINE
  5
87
330
17
100
AcDbEntity
  8
Painéis
 62
0
370
25
100
AcDbLine
 10
3502.970741980814
 20
1513.777277925948
 30
0.0
 11
3505.970741980814
 21
1516.777277925948
 31
0.0
  0
LINE
  5
88
330
17
100
AcDbEntity
  8
Painéis
 62
0
370
25
100
AcDbLine
 10
3308.470741980814
 20
1516.777277925948
 30
0.0
 11
3305.470741980814
 21
1513.777277925948
 31
0.0
  0
LINE
  5
89
330
17
100
AcDbEntity
  8
Painéis
 62
4
370
25
100
AcDbLine
 10
3465.441369669171
 20
1571.120987708348
 30
0.0
 11
3464.686755650617
 21
1571.120987708348
 31
0.0
  0
LINE
  5
8A
330
17
100
AcDbEntity
  8
Painéis
 62
4
370
25
100
AcDbLine
 10
3465.441369669171
 20
1535.620987708348
 30
0.0
 11
3464.686755650617
 21
1535.620987708348
 31
0.0
  0
LINE
  5
8B
330
17
100
AcDbEntity
  8
Painéis
 62
4
370
25
100
AcDbLine
 10
3467.686755650617
 20
1571.120987708348
 30
0.0
 11
3467.686755650617
 21
1535.620987708348
 31
0.0
  0
LINE
  5
8C
330
17
100
AcDbEntity
  8
Painéis
 62
0
370
25
100
AcDbLine
 10
3469.186755650617
 20
1569.620987708348
 30
0.0
 11
3466.186755650617
 21
1572.620987708348
 31
0.0
  0
LINE
  5
8D
330
17
100
AcDbEntity
  8
Painéis
 62
0
370
25
100
AcDbLine
 10
3466.186755650617
 20
1537.120987708348
 30
0.0
 11
3469.186755650617
 21
1534.120987708348
 31
0.0
  0
LINE
  5
8E
330
17
100
AcDbEntity
  8
Painéis
 62
4
370
25
100
AcDbLine
 10
3446.198922126984
 20
1535.620987708348
 30
0.0
 11
3444.312417070783
 21
1535.620987708348
 31
0.0
  0
LINE
  5
8F
330
17
100
AcDbEntity
  8
Painéis
 62
4
370
25
100
AcDbLine
 10
3446.198922126984
 20
1500.120987708348
 30
0.0
 11
3444.312417070783
 21
1500.120987708348
 31
0.0
  0
LINE
  5
90
330
17
100
AcDbEntity
  8
Painéis
 62
4
370
25
100
AcDbLine
 10
3447.312417070783
 20
1535.620987708348
 30
0.0
 11
3447.312417070783
 21
1500.120987708348
 31
0.0
  0
LINE
  5
91
330
17
100
AcDbEntity
  8
Painéis
 62
0
370
25
100
AcDbLine
 10
3448.812417070783
 20
1534.120987708348
 30
0.0
 11
3445.812417070783
 21
1537.120987708348
 31
0.0
  0
LINE
  5
92
330
17
100
AcDbEntity
  8
Painéis
 62
0
370
25
100
AcDbLine
 10
3445.812417070783
 20
1501.620987708348
 30
0.0
 11
3448.812417070783
 21
1498.620987708348
 31
0.0
  0
LINE
  5
93
330
17
100
AcDbEntity
  8
Painéis
 62
4
370
25
100
AcDbLine
 10
3722.470741980814
 20
1571.120987708347
 30
0.0
 11
3504.470741980814
 21
1571.120987708347
 31
0.0
  0
LINE
  5
94
330
17
100
AcDbEntity
  8
Painéis
 62
0
370
25
100
AcDbLine
 10
3720.970741980814
 20
1569.620987708347
 30
0.0
 11
3723.970741980814
 21
1572.620987708347
 31
0.0
  0
LINE
  5
95
330
17
100
AcDbEntity
  8
Painéis
 62
0
370
25
100
AcDbLine
 10
3505.970741980814
 20
1572.620987708347
 30
0.0
 11
3502.970741980814
 21
1569.620987708347
 31
0.0
  0
LINE
  5
96
330
17
100
AcDbEntity
  8
Painéis
 62
4
370
25
100
AcDbLine
 10
3504.470741980814
 20
1571.120987708347
 30
0.0
 11
3304.470741980814
 21
1571.120987708347
 31
0.0
  0
LINE
  5
97
330
17
100
AcDbEntity
  8
Painéis
 62
0
370
25
100
AcDbLine
 10
3502.970741980814
 20
1569.620987708347
 30
0.0
 11
3505.970741980814
 21
1572.620987708347
 31
0.0
  0
LINE
  5
98
330
17
100
AcDbEntity
  8
Painéis
 62
0
370
25
100
AcDbLine
 10
3305.970741980814
 20
1572.620987708347
 30
0.0
 11
3302.970741980814
 21
1569.620987708347
 31
0.0
  0
LINE
  5
99
330
17
100
AcDbEntity
  8
Painéis
 62
4
370
25
100
AcDbLine
 10
3304.470741980814
 20
1555.120987708347
 30
0.0
 11
3304.470741980814
 21
1558.600395295425
 31
0.0
  0
LINE
  5
9A
330
17
100
AcDbEntity
  8
Painéis
 62
4
370
25
100
AcDbLine
 10
3306.970741980814
 20
1555.120987708347
 30
0.0
 11
3306.970741980814
 21
1558.600395295425
 31
0.0
  0
LINE
  5
9B
330
17
100
AcDbEntity
  8
Painéis
 62
4
370
25
100
AcDbLine
 10
3304.470741980814
 20
1555.600395295425
 30
0.0
 11
3301.470741980814
 21
1555.600395295425
 31
0.0
  0
LINE
  5
9C
330
17
100
AcDbEntity
  8
Painéis
 62
4
370
25
100
AcDbLine
 10
3306.970741980814
 20
1555.600395295425
 30
0.0
 11
3336.326005138709
 21
1555.600395295425
 31
0.0
  0
LINE
  5
9D
330
17
100
AcDbEntity
  8
Painéis
 62
4
370
25
100
AcDbLine
 10
3304.470741980814
 20
1555.600395295425
 30
0.0
 11
3306.970741980814
 21
1555.600395295425
 31
0.0
  0
LINE
  5
9E
330
17
100
AcDbEntity
  8
Painéis
 62
0
370
25
100
AcDbLine
 10
3302.970741980814
 20
1554.100395295425
 30
0.0
 11
3305.970741980814
 21
1557.100395295425
 31
0.0
  0
LINE
  5
9F
330
17
100
AcDbEntity
  8
Painéis
 62
0
370
25
100
AcDbLine
 10
3308.470741980814
 20
1557.100395295425
 30
0.0
 11
3305.470741980814
 21
1554.100395295425
 31
0.0
  0
LINE
  5
A0
330
17
100
AcDbEntity
  8
Painéis
 62
4
370
25
100
AcDbLine
 10
3309.970741980816
 20
1552.120987708348
 30
0.0
 11
3331.276195086934
 21
1552.120987708348
 31
0.0
  0
LINE
  5
A1
330
17
100
AcDbEntity
  8
Painéis
 62
4
370
25
100
AcDbLine
 10
3309.970741980816
 20
1535.620987708348
 30
0.0
 11
3331.276195086934
 21
1535.620987708348
 31
0.0
  0
LINE
  5
A2
330
17
100
AcDbEntity
  8
Painéis
 62
4
370
25
100
AcDbLine
 10
3328.276195086934
 20
1552.120987708348
 30
0.0
 11
3328.276195086934
 21
1535.620987708348
 31
0.0
  0
LINE
  5
A3
330
17
100
AcDbEntity
  8
Painéis
 62
4
370
25
100
AcDbLine
 10
3328.276195086934
 20
1535.620987708348
 30
0.0
 11
3328.276195086934
 21
1505.647303497822
 31
0.0
  0
LINE
  5
A4
330
17
100
AcDbEntity
  8
Painéis
 62
0
370
25
100
AcDbLine
 10
3329.776195086934
 20
1550.620987708348
 30
0.0
 11
3326.776195086934
 21
1553.620987708348
 31
0.0
  0
LINE
  5
A5
330
17
100
AcDbEntity
  8
Painéis
 62
0
370
25
100
AcDbLine
 10
3326.776195086934
 20
1537.120987708348
 30
0.0
 11
3329.776195086934
 21
1534.120987708348
 31
0.0
  0
LINE
  5
A6
330
17
100
AcDbEntity
  8
Painéis
 62
4
370
25
100
AcDbLine
 10
3722.470741980814
 20
1555.120987708347
 30
0.0
 11
3722.470741980814
 21
1559.42510566495
 31
0.0
  0
LINE
  5
A7
330
17
100
AcDbEntity
  8
Painéis
 62
4
370
25
100
AcDbLine
 10
3719.970741980814
 20
1555.120987708347
 30
0.0
 11
3719.970741980814
 21
1559.42510566495
 31
0.0
  0
LINE
  5
A8
330
17
100
AcDbEntity
  8
Painéis
 62
4
370
25
100
AcDbLine
 10
3722.470741980814
 20
1556.42510566495
 30
0.0
 11
3725.470741980814
 21
1556.42510566495
 31
0.0
  0
LINE
  5
A9
330
17
100
AcDbEntity
  8
Painéis
 62
4
370
25
100
AcDbLine
 10
3719.970741980814
 20
1556.42510566495
 30
0.0
 11
3690.61547882292
 21
1556.42510566495
 31
0.0
  0
LINE
  5
AA
330
17
100
AcDbEntity
  8
Painéis
 62
4
370
25
100
AcDbLine
 10
3722.470741980814
 20
1556.42510566495
 30
0.0
 11
3719.970741980814
 21
1556.42510566495
 31
0.0
  0
LINE
  5
AB
330
17
100
AcDbEntity
  8
Painéis
 62
0
370
25
100
AcDbLine
 10
3723.970741980814
 20
1557.92510566495
 30
0.0
 11
3720.970741980814
 21
1554.92510566495
 31
0.0
  0
LINE
  5
AC
330
17
100
AcDbEntity
  8
Painéis
 62
0
370
25
100
AcDbLine
 10
3718.470741980814
 20
1554.92510566495
 30
0.0
 11
3721.470741980814
 21
1557.92510566495
 31
0.0
  0
LINE
  5
AD
330
17
100
AcDbEntity
  8
Painéis
 62
4
370
25
100
AcDbLine
 10
3716.970741980816
 20
1552.120987708348
 30
0.0
 11
3707.502714281828
 21
1552.120987708348
 31
0.0
  0
LINE
  5
AE
330
17
100
AcDbEntity
  8
Painéis
 62
4
370
25
100
AcDbLine
 10
3716.970741980816
 20
1535.620987708348
 30
0.0
 11
3707.502714281828
 21
1535.620987708348
 31
0.0
  0
LINE
  5
AF
330
17
100
AcDbEntity
  8
Painéis
 62
4
370
25
100
AcDbLine
 10
3710.502714281828
 20
1552.120987708348
 30
0.0
 11
3710.502714281828
 21
1535.620987708348
 31
0.0
  0
LINE
  5
B0
330
17
100
AcDbEntity
  8
Painéis
 62
4
370
25
100
AcDbLine
 10
3710.502714281828
 20
1535.620987708348
 30
0.0
 11
3710.502714281828
 21
1505.647303497822
 31
0.0
  0
LINE
  5
B1
330
17
100
AcDbEntity
  8
Painéis
 62
0
370
25
100
AcDbLine
 10
3712.002714281828
 20
1550.620987708348
 30
0.0
 11
3709.002714281828
 21
1553.620987708348
 31
0.0
  0
LINE
  5
B2
330
17
100
AcDbEntity
  8
Painéis
 62
0
370
25
100
AcDbLine
 10
3709.002714281828
 20
1537.120987708348
 30
0.0
 11
3712.002714281828
 21
1534.120987708348
 31
0.0
  0
LINE
  5
B3
330
17
100
AcDbEntity
  8
Painéis
 62
4
370
25
100
AcDbLine
 10
3946.470741980814
 20
1515.277277925948
 30
0.0
 11
3743.970741980814
 21
1515.277277925948
 31
0.0
  0
LINE
  5
B4
330
17
100
AcDbEntity
  8
Painéis
 62
0
370
25
100
AcDbLine
 10
3745.470741980814
 20
1516.777277925948
 30
0.0
 11
3742.470741980814
 21
1513.777277925948
 31
0.0
  0
LINE
  5
B5
330
17
100
AcDbEntity
  8
Painéis
 62
4
370
25
100
AcDbLine
 10
3946.470741980814
 20
1571.120987708347
 30
0.0
 11
3741.470741980814
 21
1571.120987708347
 31
0.0
  0
LINE
  5
B6
330
17
100
AcDbEntity
  8
Painéis
 62
0
370
25
100
AcDbLine
 10
3742.970741980814
 20
1572.620987708347
 30
0.0
 11
3739.970741980814
 21
1569.620987708347
 31
0.0
  0
LINE
  5
B7
330
17
100
AcDbEntity
  8
Painéis
 62
4
370
25
100
AcDbLine
 10
3741.470741980814
 20
1555.120987708347
 30
0.0
 11
3741.470741980814
 21
1558.600395295425
 31
0.0
  0
LINE
  5
B8
330
17
100
AcDbEntity
  8
Painéis
 62
4
370
25
100
AcDbLine
 10
3743.970741980814
 20
1555.120987708347
 30
0.0
 11
3743.970741980814
 21
1558.600395295425
 31
0.0
  0
LINE
  5
B9
330
17
100
AcDbEntity
  8
Painéis
 62
4
370
25
100
AcDbLine
 10
3741.470741980814
 20
1555.600395295425
 30
0.0
 11
3738.470741980814
 21
1555.600395295425
 31
0.0
  0
LINE
  5
BA
330
17
100
AcDbEntity
  8
Painéis
 62
4
370
25
100
AcDbLine
 10
3743.970741980814
 20
1555.600395295425
 30
0.0
 11
3773.326005138708
 21
1555.600395295425
 31
0.0
  0
LINE
  5
BB
330
17
100
AcDbEntity
  8
Painéis
 62
4
370
25
100
AcDbLine
 10
3741.470741980814
 20
1555.600395295425
 30
0.0
 11
3743.970741980814
 21
1555.600395295425
 31
0.0
  0
LINE
  5
BC
330
17
100
AcDbEntity
  8
Painéis
 62
0
370
25
100
AcDbLine
 10
3739.970741980814
 20
1554.100395295425
 30
0.0
 11
3742.970741980814
 21
1557.100395295425
 31
0.0
  0
LINE
  5
BD
330
17
100
AcDbEntity
  8
Painéis
 62
0
370
25
100
AcDbLine
 10
3745.470741980814
 20
1557.100395295425
 30
0.0
 11
3742.470741980814
 21
1554.100395295425
 31
0.0
  0
LINE
  5
BE
330
17
100
AcDbEntity
  8
Painéis
 62
4
370
25
100
AcDbLine
 10
3746.970741980816
 20
1552.120987708348
 30
0.0
 11
3768.276195086934
 21
1552.120987708348
 31
0.0
  0
LINE
  5
BF
330
17
100
AcDbEntity
  8
Painéis
 62
4
370
25
100
AcDbLine
 10
3746.970741980816
 20
1535.620987708348
 30
0.0
 11
3768.276195086934
 21
1535.620987708348
 31
0.0
  0
LINE
  5
C0
330
17
100
AcDbEntity
  8
Painéis
 62
0
370
25
100
AcDbLine
 10
3766.776195086935
 20
1550.620987708348
 30
0.0
 11
3763.776195086935
 21
1553.620987708348
 31
0.0
  0
LINE
  5
C1
330
17
100
AcDbEntity
  8
Painéis
 62
0
370
25
100
AcDbLine
 10
3763.776195086935
 20
1537.120987708348
 30
0.0
 11
3766.776195086935
 21
1534.120987708348
 31
0.0
  0
LWPOLYLINE
  5
C2
330
17
100
AcDbEntity
  8
3
 62
3
370
25
100
AcDbPolyline
 90
2
 70
0
 10
3285.470741980814
 20
1590.120987708347
 10
2867.470741980813
 20
1590.120987708347
  0
LWPOLYLINE
  5
C3
330
17
100
AcDbEntity
  8
3
 62
3
370
25
100
AcDbPolyline
 90
2
 70
0
 10
2867.470741980813
 20
1571.120987708347
 10
3285.470741980814
 20
1571.120987708347
  0
LWPOLYLINE
  5
C4
330
17
100
AcDbEntity
  8
3
 62
3
370
25
100
AcDbPolyline
 90
2
 70
0
 10
3722.470741980814
 20
1590.120987708347
 10
3304.470741980814
 20
1590.120987708347
  0
LWPOLYLINE
  5
C5
330
17
100
AcDbEntity
  8
3
 62
3
370
25
100
AcDbPolyline
 90
2
 70
0
 10
3304.470741980814
 20
1571.120987708347
 10
3722.470741980814
 20
1571.120987708347
  0
LWPOLYLINE
  5
C6
330
17
100
AcDbEntity
  8
3
 62
3
370
25
100
AcDbPolyline
 90
2
 70
0
 10
4159.470741980814
 20
1590.120987708347
 10
3741.470741980814
 20
1590.120987708347
  0
LWPOLYLINE
  5
C7
330
17
100
AcDbEntity
  8
3
 62
3
370
25
100
AcDbPolyline
 90
2
 70
0
 10
3741.470741980814
 20
1571.120987708347
 10
4159.470741980814
 20
1571.120987708347
  0
LWPOLYLINE
  5
C8
330
17
100
AcDbEntity
  8
3
 62
3
370
25
100
AcDbPolyline
 90
2
 70
0
 10
3285.470741980814
 20
1571.120987708347
 10
3285.470741980814
 20
1552.120987708347
  0
LWPOLYLINE
  5
C9
330
17
100
AcDbEntity
  8
3
 62
3
370
25
100
AcDbPolyline
 90
2
 70
0
 10
3304.470741980814
 20
1552.120987708347
 10
3304.470741980814
 20
1571.120987708347
  0
LWPOLYLINE
  5
CA
330
17
100
AcDbEntity
  8
3
 62
3
370
25
100
AcDbPolyline
 90
2
 70
0
 10
3285.470741980814
 20
1946.120987708347
 10
3285.470741980814
 20
1590.120987708347
  0
LWPOLYLINE
  5
CB
330
17
100
AcDbEntity
  8
3
 62
3
370
25
100
AcDbPolyline
 90
2
 70
0
 10
3304.470741980814
 20
1590.120987708347
 10
3304.470741980814
 20
1946.120987708347
  0
LWPOLYLINE
  5
CC
330
17
100
AcDbEntity
  8
3
 62
3
370
25
100
AcDbPolyline
 90
2
 70
0
 10
3722.470741980814
 20
1571.120987708347
 10
3722.470741980814
 20
1552.120987708347
  0
LWPOLYLINE
  5
CD
330
17
100
AcDbEntity
  8
3
 62
3
370
25
100
AcDbPolyline
 90
2
 70
0
 10
3741.470741980814
 20
1552.120987708347
 10
3741.470741980814
 20
1571.120987708347
  0
LWPOLYLINE
  5
CE
330
17
100
AcDbEntity
  8
3
 62
3
370
25
100
AcDbPolyline
 90
2
 70
0
 10
3722.470741980814
 20
1946.120987708347
 10
3722.470741980814
 20
1590.120987708347
  0
LWPOLYLINE
  5
CF
330
17
100
AcDbEntity
  8
3
 62
3
370
25
100
AcDbPolyline
 90
2
 70
0
 10
3741.470741980814
 20
1590.120987708347
 10
3741.470741980814
 20
1946.120987708347
  0
LWPOLYLINE
  5
D0
330
17
100
AcDbEntity
  8
3
 62
3
370
25
100
AcDbPolyline
 90
2
 70
0
 10
3282.970741980814
 20
1500.120987708347
 10
2869.970741980814
 20
1500.120987708347
  0
LWPOLYLINE
  5
D1
330
17
100
AcDbEntity
  8
3
 62
3
370
25
100
AcDbPolyline
 90
2
 70
0
 10
2869.970741980814
 20
1486.120987708347
 10
3282.970741980814
 20
1486.120987708347
  0
LWPOLYLINE
  5
D2
330
17
100
AcDbEntity
  8
3
 62
3
370
25
100
AcDbPolyline
 90
2
 70
0
 10
3719.970741980814
 20
1500.120987708347
 10
3306.970741980814
 20
1500.120987708347
  0
LWPOLYLINE
  5
D3
330
17
100
AcDbEntity
  8
3
 62
3
370
25
100
AcDbPolyline
 90
2
 70
0
 10
3306.970741980814
 20
1486.120987708347
 10
3719.970741980814
 20
1486.120987708347
  0
LWPOLYLINE
  5
D4
330
17
100
AcDbEntity
  8
3
 62
3
370
25
100
AcDbPolyline
 90
2
 70
0
 10
4156.970741980813
 20
1500.120987708347
 10
3743.970741980814
 20
1500.120987708347
  0
LWPOLYLINE
  5
D5
330
17
100
AcDbEntity
  8
3
 62
3
370
25
100
AcDbPolyline
 90
2
 70
0
 10
3743.970741980814
 20
1486.120987708347
 10
4156.970741980813
 20
1486.120987708347
  0
LWPOLYLINE
  5
D6
330
17
100
AcDbEntity
  8
7
 62
7
370
25
100
AcDbPolyline
 90
5
 70
0
 10
3282.970741980814
 20
1486.120987708347
 10
3306.970741980814
 20
1486.120987708347
 10
3306.970741980814
 20
1552.120987708347
 10
3282.970741980814
 20
1552.120987708347
 10
3282.970741980814
 20
1486.120987708347
  0
LWPOLYLINE
  5
D7
330
17
100
AcDbEntity
  8
7
 62
7
370
25
100
AcDbPolyline
 90
5
 70
0
 10
3719.970741980814
 20
1486.120987708347
 10
3743.970741980814
 20
1486.120987708347
 10
3743.970741980814
 20
1552.120987708347
 10
3719.970741980814
 20
1552.120987708347
 10
3719.970741980814
 20
1486.120987708347
  0
LWPOLYLINE
  5
D8
330
17
100
AcDbEntity
  8
3
 62
3
370
25
100
AcDbPolyline
 90
2
 70
0
 10
3304.470741980814
 20
1552.120987708347
 10
3304.470741980814
 20
1571.120987708347
  0
TEXT
  5
D9
330
17
100
AcDbEntity
  8
4
 62
4
370
25
100
AcDbText
 10
3319.503473980814
 20
1459.226901708347
 30
0.0
 40
15.0
  1
P29
100
AcDbText
  0
TEXT
  5
DA
330
17
100
AcDbEntity
  8
4
 62
4
370
25
100
AcDbText
 10
3760.805444980814
 20
1456.325649708347
 30
0.0
 40
15.0
  1
P30
100
AcDbText
  0
TEXT
  5
DB
330
17
100
AcDbEntity
  8
3
 62
3
370
25
100
AcDbText
 10
3319.503473980814
 20
1444.226901708347
 30
0.0
 40
10.0
  1
24/66
100
AcDbText
  0
TEXT
  5
DC
330
17
100
AcDbEntity
  8
3
 62
3
370
25
100
AcDbText
 10
3756.524593980814
 20
1440.754869708349
 30
0.0
 40
10.0
  1
24/66
100
AcDbText
  0
TEXT
  5
DD
330
17
100
AcDbEntity
  8
3
 62
3
370
25
100
AcDbText
 10
3490.086613980814
 20
1514.545516708347
 30
0.0
 40
10.0
  1
h=10
100
AcDbText
  0
TEXT
  5
DE
330
17
100
AcDbEntity
  8
4
 62
4
370
25
100
AcDbText
 10
3281.720741980814
 20
1605.120987708347
 30
0.0
 40
15.0
  1
V413
 50
90.0
100
AcDbText
  0
TEXT
  5
DF
330
17
100
AcDbEntity
  8
4
 62
4
370
25
100
AcDbText
 10
3718.720741980814
 20
1605.120987708347
 30
0.0
 40
15.0
  1
V415
 50
90.0
100
AcDbText
  0
TEXT
  5
E0
330
17
100
AcDbEntity
  8
4
 62
4
370
25
100
AcDbText
 10
3480.375335980813
 20
1528.989916708347
 30
0.0
 40
15.0
  1
L419
100
AcDbText
  0
TEXT
  5
E1
330
17
100
AcDbEntity
  8
3
 62
3
370
25
100
AcDbText
 10
3578.511754980814
 20
1534.75721470835
 30
0.0
 40
10.0
  1
855.18
100
AcDbText
  0
TEXT
  5
E2
330
17
100
AcDbEntity
  8
3
 62
3
370
25
100
AcDbText
 10
3228.629013980814
 20
1470.613958708347
 30
0.0
 40
10.0
  1
14/55
100
AcDbText
  0
TEXT
  5
E3
330
17
100
AcDbEntity
  8
3
 62
3
370
25
100
AcDbText
 10
3668.110684980814
 20
1471.353826708347
 30
0.0
 40
10.0
  1
14/55
100
AcDbText
  0
TEXT
  5
E4
330
17
100
AcDbEntity
  8
3
 62
3
370
25
100
AcDbText
 10
3645.832959980814
 20
1592.656104708347
 30
0.0
 40
10.0
  1
19/55
100
AcDbText
  0
TEXT
  5
E5
330
17
100
AcDbEntity
  8
Painéis
 62
240
370
25
100
AcDbText
 10
3265.293110401866
 20
1563.199079505951
 30
0.0
 40
9.0
  1
2.5
100
AcDbText
  0
TEXT
  5
E6
330
17
100
AcDbEntity
  8
Painéis
 62
240
370
25
100
AcDbText
 10
3282.012060434636
 20
1519.134145603084
 30
0.0
 40
9.0
  1
16.5
 50
90.0
100
AcDbText
  0
TEXT
  5
E7
330
17
100
AcDbEntity
  8
Painéis
 62
240
370
25
100
AcDbText
 10
3612.220741980814
 20
1522.875962136475
 30
0.0
 40
9.0
  1
215.5
100
AcDbText
  0
TEXT
  5
E8
330
17
100
AcDbEntity
  8
Painéis
 62
240
370
25
100
AcDbText
 10
3405.720741980814
 20
1522.902277925948
 30
0.0
 40
9.0
  1
197.5
100
AcDbText
  0
TEXT
  5
E9
330
17
100
AcDbEntity
  8
Painéis
 62
240
370
25
100
AcDbText
 10
3477.989387229564
 20
1553.370987708347
 30
0.0
 40
9.0
  1
35.5
 50
90.0
100
AcDbText
  0
TEXT
  5
EA
330
17
100
AcDbEntity
  8
Painéis
 62
240
370
25
100
AcDbText
 10
3457.615048649731
 20
1517.870987708347
 30
0.0
 40
9.0
  1
35.5
 50
90.0
100
AcDbText
  0
TEXT
  5
EB
330
17
100
AcDbEntity
  8
Painéis
 62
240
370
25
100
AcDbText
 10
3613.470741980814
 20
1578.706514024137
 30
0.0
 40
9.0
  1
218
100
AcDbText
  0
TEXT
  5
EC
330
17
100
AcDbEntity
  8
Painéis
 62
240
370
25
100
AcDbText
 10
3404.470741980814
 20
1578.713092971505
 30
0.0
 40
9.0
  1
200
100
AcDbText
  0
TEXT
  5
ED
330
17
100
AcDbEntity
  8
Painéis
 62
240
370
25
100
AcDbText
 10
3324.648373559762
 20
1563.199079505951
 30
0.0
 40
9.0
  1
2.5
100
AcDbText
  0
TEXT
  5
EE
330
17
100
AcDbEntity
  8
Painéis
 62
240
370
25
100
AcDbText
 10
3338.677510876408
 20
1519.134145603084
 30
0.0
 40
9.0
  1
16.5
 50
90.0
100
AcDbText
  0
TEXT
  5
EF
330
17
100
AcDbEntity
  8
Painéis
 62
240
370
25
100
AcDbText
 10
3702.293110401866
 20
1564.023789875476
 30
0.0
 40
9.0
  1
2.5
100
AcDbText
  0
TEXT
  5
F0
330
17
100
AcDbEntity
  8
Painéis
 62
240
370
25
100
AcDbText
 10
3720.904030071302
 20
1519.134145603084
 30
0.0
 40
9.0
  1
16.5
 50
90.0
100
AcDbText
  0
TEXT
  5
F1
330
17
100
AcDbEntity
  8
Painéis
 62
240
370
25
100
AcDbText
 10
3761.648373559761
 20
1563.199079505951
 30
0.0
 40
9.0
  1
2.5
100
AcDbText
  0
HATCH
  5
F2
330
17
100
AcDbEntity
  8
REAPROVEITAMENTO
 62
7
100
AcDbHatch
 10
0.0
 20
0.0
 30
0.0
210
0.0
220
0.0
230
1.0
  2
ANSI31
 70
0
 71
0
 91
1
 92
3
 72
0
 73
1
 93
7
 10
3722.275581980814
 20
1552.120987708347
 10
3719.775581980814
 20
1552.120987708347
 10
3719.970741980814
 20
1500.120987708348
 10
3306.970741980814
 20
1500.120987708347
 10
3306.970741980814
 20
1571.120987708347
 10
3722.470741980814
 20
1571.120987708347
 10
3722.275581980814
 20
1552.120987708347
 97
0
 75
1
 76
1
 52
0.0
 41
1.0
 77
0
 78
1
 53
45.0
 43
0.0
 44
0.0
 45
-2.2450640303
 46
2.2450640303
 79
0
 98
0
  0
ENDSEC
  0
SECTION
  2
OBJECTS
  0
DICTIONARY
  5
A
330
0
100
AcDbDictionary
281
1
  3
ACAD_COLOR
350
B
  3
ACAD_GROUP
350
C
  3
ACAD_LAYOUT
350
D
  3
ACAD_MATERIAL
350
E
  3
ACAD_MLEADERSTYLE
350
F
  3
ACAD_MLINESTYLE
350
10
  3
ACAD_PLOTSETTINGS
350
11
  3
ACAD_PLOTSTYLENAME
350
12
  3
ACAD_SCALELIST
350
14
  3
ACAD_TABLESTYLE
350
15
  3
ACAD_VISUALSTYLE
350
16
  3
EZDXF_META
350
2D
  0
DICTIONARY
  5
B
330
A
100
AcDbDictionary
281
1
  0
DICTIONARY
  5
C
330
A
100
AcDbDictionary
281
1
  0
DICTIONARY
  5
D
330
A
100
AcDbDictionary
281
1
  3
Model
350
1A
  3
Layout1
350
1E
  0
DICTIONARY
  5
E
330
A
100
AcDbDictionary
281
1
  3
ByBlock
350
1F
  3
ByLayer
350
20
  3
Global
350
21
  0
DICTIONARY
  5
F
330
A
100
AcDbDictionary
281
1
  3
Standard
350
2C
  0
DICTIONARY
  5
10
330
A
100
AcDbDictionary
281
1
  3
Standard
350
22
  0
DICTIONARY
  5
11
330
A
100
AcDbDictionary
281
1
  0
ACDBDICTIONARYWDFLT
  5
12
330
A
100
AcDbDictionary
281
1
  3
Normal
350
13
100
AcDbDictionaryWithDefault
340
13
  0
ACDBPLACEHOLDER
  5
13
330
12
  0
DICTIONARY
  5
14
330
A
100
AcDbDictionary
281
1
  0
DICTIONARY
  5
15
330
A
100
AcDbDictionary
281
1
  0
DICTIONARY
  5
16
330
A
100
AcDbDictionary
281
1
  0
LAYOUT
  5
1A
330
D
100
AcDbPlotSettings
  1

  4
A3
  6

 40
7.5
 41
20.0
 42
7.5
 43
20.0
 44
420.0
 45
297.0
 46
0.0
 47
0.0
 48
0.0
 49
0.0
140
0.0
141
0.0
142
1.0
143
1.0
 70
1024
 72
1
 73
0
 74
5
  7

 75
16
 76
0
 77
2
 78
300
147
1.0
148
0.0
149
0.0
100
AcDbLayout
  1
Model
 70
1
 71
0
 10
0.0
 20
0.0
 11
420.0
 21
297.0
 12
0.0
 22
0.0
 32
0.0
 14
1e+20
 24
1e+20
 34
1e+20
 15
-1e+20
 25
-1e+20
 35
-1e+20
146
0.0
 13
0.0
 23
0.0
 33
0.0
 16
1.0
 26
0.0
 36
0.0
 17
0.0
 27
1.0
 37
0.0
 76
1
330
17
  0
LAYOUT
  5
1E
330
D
100
AcDbPlotSettings
  1

  4
A3
  6

 40
7.5
 41
20.0
 42
7.5
 43
20.0
 44
420.0
 45
297.0
 46
0.0
 47
0.0
 48
0.0
 49
0.0
140
0.0
141
0.0
142
1.0
143
1.0
 70
0
 72
1
 73
0
 74
5
  7

 75
16
 76
0
 77
2
 78
300
147
1.0
148
0.0
149
0.0
100
AcDbLayout
  1
Layout1
 70
1
 71
1
 10
0.0
 20
0.0
 11
420.0
 21
297.0
 12
0.0
 22
0.0
 32
0.0
 14
1e+20
 24
1e+20
 34
1e+20
 15
-1e+20
 25
-1e+20
 35
-1e+20
146
0.0
 13
0.0
 23
0.0
 33
0.0
 16
1.0
 26
0.0
 36
0.0
 17
0.0
 27
1.0
 37
0.0
 76
1
330
1B
  0
MATERIAL
  5
1F
102
{ACAD_REACTORS
330
E
102
}
330
E
100
AcDbMaterial
  1
ByBlock
  2

 70
0
 40
1.0
 71
1
 41
1.0
 91
-1023410177
 42
1.0
 72
1
  3

 73
1
 74
1
 75
1
 44
0.5
 73
0
 45
1.0
 46
1.0
 77
1
  4

 78
1
 79
1
170
1
 48
1.0
171
1
  6

172
1
173
1
174
1
140
1.0
141
1.0
175
1
  7

176
1
177
1
178
1
143
1.0
179
1
  8

270
1
271
1
272
1
145
1.0
146
1.0
273
1
  9

274
1
275
1
276
1
 42
1.0
 72
1
  3

 73
1
 74
1
 75
1
 94
63
  0
MATERIAL
  5
20
102
{ACAD_REACTORS
330
E
102
}
330
E
100
AcDbMaterial
  1
ByLayer
  2

 70
0
 40
1.0
 71
1
 41
1.0
 91
-1023410177
 42
1.0
 72
1
  3

 73
1
 74
1
 75
1
 44
0.5
 73
0
 45
1.0
 46
1.0
 77
1
  4

 78
1
 79
1
170
1
 48
1.0
171
1
  6

172
1
173
1
174
1
140
1.0
141
1.0
175
1
  7

176
1
177
1
178
1
143
1.0
179
1
  8

270
1
271
1
272
1
145
1.0
146
1.0
273
1
  9

274
1
275
1
276
1
 42
1.0
 72
1
  3

 73
1
 74
1
 75
1
 94
63
  0
MATERIAL
  5
21
102
{ACAD_REACTORS
330
E
102
}
330
E
100
AcDbMaterial
  1
Global
  2

 70
0
 40
1.0
 71
1
 41
1.0
 91
-1023410177
 42
1.0
 72
1
  3

 73
1
 74
1
 75
1
 44
0.5
 73
0
 45
1.0
 46
1.0
 77
1
  4

 78
1
 79
1
170
1
 48
1.0
171
1
  6

172
1
173
1
174
1
140
1.0
141
1.0
175
1
  7

176
1
177
1
178
1
143
1.0
179
1
  8

270
1
271
1
272
1
145
1.0
146
1.0
273
1
  9

274
1
275
1
276
1
 42
1.0
 72
1
  3

 73
1
 74
1
 75
1
 94
63
  0
MLINESTYLE
  5
22
102
{ACAD_REACTORS
330
10
102
}
330
10
100
AcDbMlineStyle
  2
Standard
 70
0
  3

 62
256
 51
90.0
 52
90.0
 71
2
 49
0.5
 62
256
  6
BYLAYER
 49
-0.5
 62
256
  6
BYLAYER
  0
MLEADERSTYLE
  5
2C
102
{ACAD_REACTORS
330
F
102
}
330
F
100
AcDbMLeaderStyle
179
2
170
2
171
1
172
0
 90
2
 40
0.0
 41
0.0
173
1
 91
-1056964608
 92
-2
290
1
 42
2.0
291
1
 43
8.0
  3
Standard
 44
4.0
300

342
29
174
1
175
1
176
0
178
1
 93
-1056964608
 45
4.0
292
0
297
0
 46
4.0
 94
-1056964608
 47
1.0
 49
1.0
140
1.0
294
1
141
0.0
177
0
142
1.0
295
0
296
0
143
3.75
271
0
272
9
273
9
  0
DICTIONARY
  5
2D
330
A
100
AcDbDictionary
280
1
281
1
  3
CREATED_BY_EZDXF
350
2E
  3
WRITTEN_BY_EZDXF
350
F5
  0
DICTIONARYVAR
  5
2E
330
2D
100
DictionaryVariables
280
0
  1
1.4.3 @ 2026-06-10T17:42:39.523869+00:00
  0
DICTIONARYVAR
  5
F5
330
2D
100
DictionaryVariables
280
0
  1
1.4.3 @ 2026-06-10T17:42:39.530576+00:00
  0
ENDSEC
  0
EOF
