  0
SECTION
  2
HEADER
  9
$ACADVER
  1
AC1024
  9
$ACADMAINTVER
 70
6
  9
$DWGCODEPAGE
  3
ANSI_1252
  9
$LASTSAVEDBY
  1
ezdxf
  9
$INSBASE
 10
0.0
 20
0.0
 30
0.0
  9
$EXTMIN
 10
1e+20
 20
1e+20
 30
1e+20
  9
$EXTMAX
 10
-1e+20
 20
-1e+20
 30
-1e+20
  9
$LIMMIN
 10
0.0
 20
0.0
  9
$LIMMAX
 10
420.0
 20
297.0
  9
$ORTHOMODE
 70
0
  9
$REGENMODE
 70
1
  9
$FILLMODE
 70
1
  9
$QTEXTMODE
 70
0
  9
$MIRRTEXT
 70
1
  9
$LTSCALE
 40
1.0
  9
$ATTMODE
 70
1
  9
$TEXTSIZE
 40
2.5
  9
$TRACEWID
 40
1.0
  9
$TEXTSTYLE
  7
Standard
  9
$CLAYER
  8
0
  9
$CELTYPE
  6
ByLayer
  9
$CECOLOR
 62
256
  9
$CELTSCALE
 40
1.0
  9
$DISPSILH
 70
0
  9
$DIMSCALE
 40
1.0
  9
$DIMASZ
 40
2.5
  9
$DIMEXO
 40
0.625
  9
$DIMDLI
 40
3.75
  9
$DIMRND
 40
0.0
  9
$DIMDLE
 40
0.0
  9
$DIMEXE
 40
1.25
  9
$DIMTP
 40
0.0
  9
$DIMTM
 40
0.0
  9
$DIMTXT
 40
2.5
  9
$DIMCEN
 40
2.5
  9
$DIMTSZ
 40
0.0
  9
$DIMTOL
 70
0
  9
$DIMLIM
 70
0
  9
$DIMTIH
 70
0
  9
$DIMTOH
 70
0
  9
$DIMSE1
 70
0
  9
$DIMSE2
 70
0
  9
$DIMTAD
 70
1
  9
$DIMZIN
 70
8
  9
$DIMBLK
  1

  9
$DIMASO
 70
1
  9
$DIMSHO
 70
1
  9
$DIMPOST
  1

  9
$DIMAPOST
  1

  9
$DIMALT
 70
0
  9
$DIMALTD
 70
3
  9
$DIMALTF
 40
0.03937007874
  9
$DIMLFAC
 40
1.0
  9
$DIMTOFL
 70
1
  9
$DIMTVP
 40
0.0
  9
$DIMTIX
 70
0
  9
$DIMSOXD
 70
0
  9
$DIMSAH
 70
0
  9
$DIMBLK1
  1

  9
$DIMBLK2
  1

  9
$DIMSTYLE
  2
ISO-25
  9
$DIMCLRD
 70
0
  9
$DIMCLRE
 70
0
  9
$DIMCLRT
 70
0
  9
$DIMTFAC
 40
1.0
  9
$DIMGAP
 40
0.625
  9
$DIMJUST
 70
0
  9
$DIMSD1
 70
0
  9
$DIMSD2
 70
0
  9
$DIMTOLJ
 70
0
  9
$DIMTZIN
 70
8
  9
$DIMALTZ
 70
0
  9
$DIMALTTZ
 70
0
  9
$DIMUPT
 70
0
  9
$DIMDEC
 70
2
  9
$DIMTDEC
 70
2
  9
$DIMALTU
 70
2
  9
$DIMALTTD
 70
3
  9
$DIMTXSTY
  7
Standard
  9
$DIMAUNIT
 70
0
  9
$DIMADEC
 70
0
  9
$DIMALTRND
 40
0.0
  9
$DIMAZIN
 70
0
  9
$DIMDSEP
 70
44
  9
$DIMATFIT
 70
3
  9
$DIMFRAC
 70
0
  9
$DIMLDRBLK
  1

  9
$DIMLUNIT
 70
2
  9
$DIMLWD
 70
-2
  9
$DIMLWE
 70
-2
  9
$DIMTMOVE
 70
0
  9
$DIMFXL
 40
1.0
  9
$DIMFXLON
 70
0
  9
$DIMJOGANG
 40
0.785398163397
  9
$DIMTFILL
 70
0
  9
$DIMTFILLCLR
 70
0
  9
$DIMARCSYM
 70
0
  9
$DIMLTYPE
  6

  9
$DIMLTEX1
  6

  9
$DIMLTEX2
  6

  9
$DIMTXTDIRECTION
 70
0
  9
$LUNITS
 70
2
  9
$LUPREC
 70
4
  9
$SKETCHINC
 40
1.0
  9
$FILLETRAD
 40
10.0
  9
$AUNITS
 70
0
  9
$AUPREC
 70
2
  9
$MENU
  1
.
  9
$ELEVATION
 40
0.0
  9
$PELEVATION
 40
0.0
  9
$THICKNESS
 40
0.0
  9
$LIMCHECK
 70
0
  9
$CHAMFERA
 40
0.0
  9
$CHAMFERB
 40
0.0
  9
$CHAMFERC
 40
0.0
  9
$CHAMFERD
 40
0.0
  9
$SKPOLY
 70
0
  9
$TDCREATE
 40
2461210.5410069446
  9
$TDUCREATE
 40
2458532.153996898
  9
$TDUPDATE
 40
2461210.5410069446
  9
$TDUUPDATE
 40
2458532.1544311
  9
$TDINDWG
 40
0.0
  9
$TDUSRTIMER
 40
0.0
  9
$USRTIMER
 70
1
  9
$ANGBASE
 50
0.0
  9
$ANGDIR
 70
0
  9
$PDMODE
 70
0
  9
$PDSIZE
 40
0.0
  9
$PLINEWID
 40
0.0
  9
$SPLFRAME
 70
0
  9
$SPLINETYPE
 70
6
  9
$SPLINESEGS
 70
8
  9
$HANDSEED
  5
111
  9
$SURFTAB1
 70
6
  9
$SURFTAB2
 70
6
  9
$SURFTYPE
 70
6
  9
$SURFU
 70
6
  9
$SURFV
 70
6
  9
$UCSBASE
  2

  9
$UCSNAME
  2

  9
$UCSORG
 10
0.0
 20
0.0
 30
0.0
  9
$UCSXDIR
 10
1.0
 20
0.0
 30
0.0
  9
$UCSYDIR
 10
0.0
 20
1.0
 30
0.0
  9
$UCSORTHOREF
  2

  9
$UCSORTHOVIEW
 70
0
  9
$UCSORGTOP
 10
0.0
 20
0.0
 30
0.0
  9
$UCSORGBOTTOM
 10
0.0
 20
0.0
 30
0.0
  9
$UCSORGLEFT
 10
0.0
 20
0.0
 30
0.0
  9
$UCSORGRIGHT
 10
0.0
 20
0.0
 30
0.0
  9
$UCSORGFRONT
 10
0.0
 20
0.0
 30
0.0
  9
$UCSORGBACK
 10
0.0
 20
0.0
 30
0.0
  9
$PUCSBASE
  2

  9
$PUCSNAME
  2

  9
$PUCSORG
 10
0.0
 20
0.0
 30
0.0
  9
$PUCSXDIR
 10
1.0
 20
0.0
 30
0.0
  9
$PUCSYDIR
 10
0.0
 20
1.0
 30
0.0
  9
$PUCSORTHOREF
  2

  9
$PUCSORTHOVIEW
 70
0
  9
$PUCSORGTOP
 10
0.0
 20
0.0
 30
0.0
  9
$PUCSORGBOTTOM
 10
0.0
 20
0.0
 30
0.0
  9
$PUCSORGLEFT
 10
0.0
 20
0.0
 30
0.0
  9
$PUCSORGRIGHT
 10
0.0
 20
0.0
 30
0.0
  9
$PUCSORGFRONT
 10
0.0
 20
0.0
 30
0.0
  9
$PUCSORGBACK
 10
0.0
 20
0.0
 30
0.0
  9
$USERI1
 70
0
  9
$USERI2
 70
0
  9
$USERI3
 70
0
  9
$USERI4
 70
0
  9
$USERI5
 70
0
  9
$USERR1
 40
0.0
  9
$USERR2
 40
0.0
  9
$USERR3
 40
0.0
  9
$USERR4
 40
0.0
  9
$USERR5
 40
0.0
  9
$WORLDVIEW
 70
1
  9
$SHADEDGE
 70
3
  9
$SHADEDIF
 70
70
  9
$TILEMODE
 70
1
  9
$MAXACTVP
 70
64
  9
$PINSBASE
 10
0.0
 20
0.0
 30
0.0
  9
$PLIMCHECK
 70
0
  9
$PEXTMIN
 10
1e+20
 20
1e+20
 30
1e+20
  9
$PEXTMAX
 10
-1e+20
 20
-1e+20
 30
-1e+20
  9
$PLIMMIN
 10
0.0
 20
0.0
  9
$PLIMMAX
 10
420.0
 20
297.0
  9
$UNITMODE
 70
0
  9
$VISRETAIN
 70
1
  9
$PLINEGEN
 70
0
  9
$PSLTSCALE
 70
1
  9
$TREEDEPTH
 70
3020
  9
$CMLSTYLE
  2
Standard
  9
$CMLJUST
 70
0
  9
$CMLSCALE
 40
20.0
  9
$PROXYGRAPHICS
 70
1
  9
$MEASUREMENT
 70
1
  9
$CELWEIGHT
370
-1
  9
$ENDCAPS
280
0
  9
$JOINSTYLE
280
0
  9
$LWDISPLAY
290
0
  9
$INSUNITS
 70
6
  9
$HYPERLINKBASE
  1

  9
$STYLESHEET
  1

  9
$XEDIT
290
1
  9
$CEPSNTYPE
380
0
  9
$PSTYLEMODE
290
1
  9
$FINGERPRINTGUID
  2
{7D9D5FE7-0CF4-472B-9CE0-859C3F0BA825}
  9
$VERSIONGUID
  2
{4576573D-9C1B-4AD4-8955-E1C32F7BEF7F}
  9
$EXTNAMES
290
1
  9
$PSVPSCALE
 40
0.0
  9
$OLESTARTUP
290
0
  9
$SORTENTS
280
127
  9
$INDEXCTL
280
0
  9
$HIDETEXT
280
1
  9
$XCLIPFRAME
280
1
  9
$HALOGAP
280
0
  9
$OBSCOLOR
 70
257
  9
$OBSLTYPE
280
0
  9
$INTERSECTIONDISPLAY
280
0
  9
$INTERSECTIONCOLOR
 70
257
  9
$DIMASSOC
280
2
  9
$PROJECTNAME
  1

  9
$CAMERADISPLAY
290
0
  9
$LENSLENGTH
 40
50.0
  9
$CAMERAHEIGHT
 40
0.0
  9
$STEPSPERSEC
 40
24.0
  9
$STEPSIZE
 40
100.0
  9
$3DDWFPREC
 40
2.0
  9
$PSOLWIDTH
 40
0.005
  9
$PSOLHEIGHT
 40
0.08
  9
$LOFTANG1
 40
1.570796326795
  9
$LOFTANG2
 40
1.570796326795
  9
$LOFTMAG1
 40
0.0
  9
$LOFTMAG2
 40
0.0
  9
$LOFTPARAM
 70
7
  9
$LOFTNORMALS
280
1
  9
$LATITUDE
 40
37.795
  9
$LONGITUDE
 40
-122.394
  9
$NORTHDIRECTION
 40
0.0
  9
$TIMEZONE
 70
-8000
  9
$LIGHTGLYPHDISPLAY
280
1
  9
$TILEMODELIGHTSYNCH
280
1
  9
$CMATERIAL
347
20
  9
$SOLIDHIST
280
0
  9
$SHOWHIST
280
1
  9
$DWFFRAME
280
2
  9
$DGNFRAME
280
2
  9
$REALWORLDSCALE
290
1
  9
$INTERFERECOLOR
 62
256
  9
$CSHADOW
280
0
  9
$SHADOWPLANELOCATION
 40
0.0
  0
ENDSEC
  0
SECTION
  2
CLASSES
  0
CLASS
  1
ACDBDICTIONARYWDFLT
  2
AcDbDictionaryWithDefault
  3
ObjectDBX Classes
 90
0
 91
0
280
0
281
0
  0
CLASS
  1
SUN
  2
AcDbSun
  3
SCENEOE
 90
1153
 91
0
280
0
281
0
  0
CLASS
  1
VISUALSTYLE
  2
AcDbVisualStyle
  3
ObjectDBX Classes
 90
4095
 91
0
280
0
281
0
  0
CLASS
  1
MATERIAL
  2
AcDbMaterial
  3
ObjectDBX Classes
 90
1153
 91
0
280
0
281
0
  0
CLASS
  1
SCALE
  2
AcDbScale
  3
ObjectDBX Classes
 90
1153
 91
0
280
0
281
0
  0
CLASS
  1
TABLESTYLE
  2
AcDbTableStyle
  3
ObjectDBX Classes
 90
4095
 91
0
280
0
281
0
  0
CLASS
  1
MLEADERSTYLE
  2
AcDbMLeaderStyle
  3
ACDB_MLEADERSTYLE_CLASS
 90
4095
 91
0
280
0
281
0
  0
CLASS
  1
DICTIONARYVAR
  2
AcDbDictionaryVar
  3
ObjectDBX Classes
 90
0
 91
0
280
0
281
0
  0
CLASS
  1
CELLSTYLEMAP
  2
AcDbCellStyleMap
  3
ObjectDBX Classes
 90
1152
 91
0
280
0
281
0
  0
CLASS
  1
MENTALRAYRENDERSETTINGS
  2
AcDbMentalRayRenderSettings
  3
SCENEOE
 90
1024
 91
0
280
0
281
0
  0
CLASS
  1
ACDBDETAILVIEWSTYLE
  2
AcDbDetailViewStyle
  3
ObjectDBX Classes
 90
1025
 91
0
280
0
281
0
  0
CLASS
  1
ACDBSECTIONVIEWSTYLE
  2
AcDbSectionViewStyle
  3
ObjectDBX Classes
 90
1025
 91
0
280
0
281
0
  0
CLASS
  1
RASTERVARIABLES
  2
AcDbRasterVariables
  3
ISM
 90
0
 91
0
280
0
281
0
  0
CLASS
  1
ACDBPLACEHOLDER
  2
AcDbPlaceHolder
  3
ObjectDBX Classes
 90
0
 91
0
280
0
281
0
  0
CLASS
  1
LAYOUT
  2
AcDbLayout
  3
ObjectDBX Classes
 90
0
 91
0
280
0
281
0
  0
ENDSEC
  0
SECTION
  2
TABLES
  0
TABLE
  2
VPORT
  5
8
330
0
100
AcDbSymbolTable
 70
1
  0
VPORT
  5
23
330
8
100
AcDbSymbolTableRecord
100
AcDbViewportTableRecord
  2
*Active
 70
0
 10
0.0
 20
0.0
 11
1.0
 21
1.0
 12
0.0
 22
0.0
 13
0.0
 23
0.0
 14
0.5
 24
0.5
 15
0.5
 25
0.5
 16
0.0
 26
0.0
 36
1.0
 17
0.0
 27
0.0
 37
0.0
 40
1000.0
 41
1.34
 42
50.0
 43
0.0
 44
0.0
 50
0.0
 51
0.0
 71
0
 72
1000
 73
1
 74
3
 75
0
 76
0
 77
0
 78
0
281
0
 65
0
146
0.0
  0
ENDTAB
  0
TABLE
  2
LTYPE
  5
2
330
0
100
AcDbSymbolTable
 70
3
  0
LTYPE
  5
24
330
2
100
AcDbSymbolTableRecord
100
AcDbLinetypeTableRecord
  2
ByBlock
 70
0
  3

 72
65
 73
0
 40
0.0
  0
LTYPE
  5
25
330
2
100
AcDbSymbolTableRecord
100
AcDbLinetypeTableRecord
  2
ByLayer
 70
0
  3

 72
65
 73
0
 40
0.0
  0
LTYPE
  5
26
330
2
100
AcDbSymbolTableRecord
100
AcDbLinetypeTableRecord
  2
Continuous
 70
0
  3

 72
65
 73
0
 40
0.0
  0
ENDTAB
  0
TABLE
  2
LAYER
  5
1
330
0
100
AcDbSymbolTable
 70
9
  0
LAYER
  5
27
330
1
100
AcDbSymbolTableRecord
100
AcDbLayerTableRecord
  2
0
 70
0
 62
7
  6
Continuous
370
-3
390
13
347
21
  0
LAYER
  5
28
330
1
100
AcDbSymbolTableRecord
100
AcDbLayerTableRecord
  2
Defpoints
 70
0
 62
7
  6
Continuous
290
0
370
-3
390
13
347
21
  0
LAYER
  5
2F
330
1
100
AcDbSymbolTableRecord
100
AcDbLayerTableRecord
  2
1
 70
0
 62
7
  6
Continuous
370
-3
390
13
347
21
  0
LAYER
  5
30
330
1
100
AcDbSymbolTableRecord
100
AcDbLayerTableRecord
  2
Painéis
 70
0
 62
7
  6
Continuous
370
-3
390
13
347
21
  0
LAYER
  5
31
330
1
100
AcDbSymbolTableRecord
100
AcDbLayerTableRecord
  2
9
 70
0
 62
7
  6
Continuous
370
-3
390
13
347
21
  0
LAYER
  5
32
330
1
100
AcDbSymbolTableRecord
100
AcDbLayerTableRecord
  2
4
 70
0
 62
7
  6
Continuous
370
-3
390
13
347
21
  0
LAYER
  5
33
330
1
100
AcDbSymbolTableRecord
100
AcDbLayerTableRecord
  2
7
 70
0
 62
7
  6
Continuous
370
-3
390
13
347
21
  0
LAYER
  5
34
330
1
100
AcDbSymbolTableRecord
100
AcDbLayerTableRecord
  2
Hachura
 70
0
 62
7
  6
Continuous
370
-3
390
13
347
21
  0
LAYER
  5
35
330
1
100
AcDbSymbolTableRecord
100
AcDbLayerTableRecord
  2
3
 70
0
 62
7
  6
Continuous
370
-3
390
13
347
21
  0
ENDTAB
  0
TABLE
  2
STYLE
  5
5
330
0
100
AcDbSymbolTable
 70
1
  0
STYLE
  5
29
330
5
100
AcDbSymbolTableRecord
100
AcDbTextStyleTableRecord
  2
Standard
 70
0
 40
0.0
 41
1.0
 50
0.0
 71
0
 42
2.5
  3
txt
  4

  0
ENDTAB
  0
TABLE
  2
VIEW
  5
7
330
0
100
AcDbSymbolTable
 70
0
  0
ENDTAB
  0
TABLE
  2
UCS
  5
6
330
0
100
AcDbSymbolTable
 70
0
  0
ENDTAB
  0
TABLE
  2
APPID
  5
3
330
0
100
AcDbSymbolTable
 70
3
  0
APPID
  5
2A
330
3
100
AcDbSymbolTableRecord
100
AcDbRegAppTableRecord
  2
ACAD
 70
0
  0
APPID
  5
10E
330
3
100
AcDbSymbolTableRecord
100
AcDbRegAppTableRecord
  2
HATCHBACKGROUNDCOLOR
 70
0
  0
APPID
  5
10F
330
3
100
AcDbSymbolTableRecord
100
AcDbRegAppTableRecord
  2
EZDXF
 70
0
  0
ENDTAB
  0
TABLE
  2
DIMSTYLE
  5
4
330
0
100
AcDbSymbolTable
 70
1
100
AcDbDimStyleTable
  0
DIMSTYLE
105
2B
330
4
100
AcDbSymbolTableRecord
100
AcDbDimStyleTableRecord
  2
Standard
 70
0
 40
1.0
 41
2.5
 42
0.625
 43
3.75
 44
1.25
 45
0.0
 46
0.0
 47
0.0
 48
0.0
 49
2.5
140
2.5
141
2.5
142
0.0
143
0.03937007874
144
1.0
145
0.0
146
1.0
147
0.625
148
0.0
 69
0
 70
0
 71
0
 72
0
 73
0
 74
0
 75
0
 76
0
 77
1
 78
8
 79
3
170
0
171
3
172
1
173
0
174
0
175
0
176
0
177
0
178
0
179
2
271
2
272
2
273
2
274
3
275
0
276
0
277
2
278
44
279
0
280
0
281
0
282
0
283
0
284
8
285
0
286
0
288
0
289
3
290
0
371
-2
372
-2
  0
ENDTAB
  0
TABLE
  2
BLOCK_RECORD
  5
9
330
0
100
AcDbSymbolTable
 70
2
  0
BLOCK_RECORD
  5
17
330
9
100
AcDbSymbolTableRecord
100
AcDbBlockTableRecord
  2
*Model_Space
340
1A
 70
0
280
1
281
0
  0
BLOCK_RECORD
  5
1B
330
9
100
AcDbSymbolTableRecord
100
AcDbBlockTableRecord
  2
*Paper_Space
340
1E
 70
0
280
1
281
0
  0
ENDTAB
  0
ENDSEC
  0
SECTION
  2
BLOCKS
  0
BLOCK
  5
18
330
17
100
AcDbEntity
  8
0
100
AcDbBlockBegin
  2
*Model_Space
 70
0
 10
0.0
 20
0.0
 30
0.0
  3
*Model_Space
  1

  0
ENDBLK
  5
19
330
17
100
AcDbEntity
  8
0
100
AcDbBlockEnd
  0
BLOCK
  5
1C
330
1B
100
AcDbEntity
  8
0
100
AcDbBlockBegin
  2
*Paper_Space
 70
0
 10
0.0
 20
0.0
 30
0.0
  3
*Paper_Space
  1

  0
ENDBLK
  5
1D
330
1B
100
AcDbEntity
  8
0
100
AcDbBlockEnd
  0
ENDSEC
  0
SECTION
  2
ENTITIES
  0
LINE
  5
36
330
17
100
AcDbEntity
  8
Painéis
 62
200
370
25
100
AcDbLine
 10
5112.970741980814
 20
1964.068396708347
 30
0.0
 11
5112.970741980814
 21
1505.068396708347
 31
0.0
  0
LINE
  5
37
330
17
100
AcDbEntity
  8
Painéis
 62
200
370
25
100
AcDbLine
 10
5052.470741980814
 20
1720.068396708347
 30
0.0
 11
5181.470741980813
 21
1720.068396708347
 31
0.0
  0
LINE
  5
38
330
17
100
AcDbEntity
  8
Painéis
 62
200
370
25
100
AcDbLine
 10
5296.470741980813
 20
2025.120987708347
 30
0.0
 11
5296.470741980813
 21
1983.120987708347
 31
0.0
  0
LINE
  5
39
330
17
100
AcDbEntity
  8
Painéis
 62
200
370
25
100
AcDbLine
 10
4911.479283980813
 20
2013.120987708347
 30
0.0
 11
4911.479283980813
 21
1590.120987708347
 31
0.0
  0
LINE
  5
3A
330
17
100
AcDbEntity
  8
Painéis
 62
200
370
25
100
AcDbLine
 10
5033.379283980814
 20
1834.120987708347
 30
0.0
 11
4810.989860980814
 21
1834.120987708347
 31
0.0
  0
LINE
  5
3B
330
17
100
AcDbEntity
  8
Painéis
 62
200
370
25
100
AcDbLine
 10
4885.479283980814
 20
2013.120987708347
 30
0.0
 11
4885.479283980814
 21
1590.120987708347
 31
0.0
  0
LINE
  5
3C
330
17
100
AcDbEntity
  8
Painéis
 62
200
370
25
100
AcDbLine
 10
4810.989860980814
 20
1535.620987708347
 30
0.0
 11
5033.470741980814
 21
1535.620987708347
 31
0.0
  0
LINE
  5
3D
330
17
100
AcDbEntity
  8
3
 62
3
370
25
100
AcDbLine
 10
5128.599034980812
 20
1493.068396708347
 30
0.0
 11
5133.470741980814
 21
1497.94010370835
 31
0.0
  0
LINE
  5
3E
330
17
100
AcDbEntity
  8
3
 62
3
370
25
100
AcDbLine
 10
5116.578219980814
 20
1493.068396708347
 30
0.0
 11
5128.630810980813
 21
1505.120987708347
 31
0.0
  0
LINE
  5
3F
330
17
100
AcDbEntity
  8
3
 62
3
370
25
100
AcDbLine
 10
5104.557403980814
 20
1493.068396708347
 30
0.0
 11
5116.609994980814
 21
1505.120987708347
 31
0.0
  0
LINE
  5
40
330
17
100
AcDbEntity
  8
3
 62
3
370
25
100
AcDbLine
 10
5092.536588980814
 20
1493.068396708347
 30
0.0
 11
5104.589179980813
 21
1505.120987708347
 31
0.0
  0
LINE
  5
41
330
17
100
AcDbEntity
  8
3
 62
3
370
25
100
AcDbLine
 10
5080.515773980814
 20
1493.068396708347
 30
0.0
 11
5092.568364980813
 21
1505.120987708347
 31
0.0
  0
LINE
  5
42
330
17
100
AcDbEntity
  8
3
 62
3
370
25
100
AcDbLine
 10
5068.4949579808135
 20
1493.068396708347
 30
0.0
 11
5080.547548980813
 21
1505.120987708347
 31
0.0
  0
LINE
  5
43
330
17
100
AcDbEntity
  8
3
 62
3
370
25
100
AcDbLine
 10
5056.474142980815
 20
1493.068396708347
 30
0.0
 11
5068.526733980814
 21
1505.120987708347
 31
0.0
  0
LINE
  5
44
330
17
100
AcDbEntity
  8
3
 62
3
370
25
100
AcDbLine
 10
5044.453327980813
 20
1493.068396708347
 30
0.0
 11
5056.505918980814
 21
1505.120987708347
 31
0.0
  0
LINE
  5
45
330
17
100
AcDbEntity
  8
3
 62
3
370
25
100
AcDbLine
 10
5033.470741980814
 20
1494.106625708349
 30
0.0
 11
5044.485103980814
 21
1505.120987708347
 31
0.0
  0
LINE
  5
46
330
17
100
AcDbEntity
  8
3
 62
3
370
25
100
AcDbLine
 10
5441.140231980814
 20
1493.068396708347
 30
0.0
 11
5446.470741980814
 21
1498.398906708347
 31
0.0
  0
LINE
  5
47
330
17
100
AcDbEntity
  8
3
 62
3
370
25
100
AcDbLine
 10
5429.119416980814
 20
1493.068396708347
 30
0.0
 11
5441.172007980814
 21
1505.120987708347
 31
0.0
  0
LINE
  5
48
330
17
100
AcDbEntity
  8
3
 62
3
370
25
100
AcDbLine
 10
5417.098601980814
 20
1493.068396708347
 30
0.0
 11
5429.151192980814
 21
1505.120987708347
 31
0.0
  0
LINE
  5
49
330
17
100
AcDbEntity
  8
3
 62
3
370
25
100
AcDbLine
 10
5405.077785980813
 20
1493.068396708347
 30
0.0
 11
5417.130376980814
 21
1505.120987708347
 31
0.0
  0
LINE
  5
4A
330
17
100
AcDbEntity
  8
3
 62
3
370
25
100
AcDbLine
 10
5393.056970980814
 20
1493.068396708347
 30
0.0
 11
5405.109561980814
 21
1505.120987708347
 31
0.0
  0
LINE
  5
4B
330
17
100
AcDbEntity
  8
3
 62
3
370
25
100
AcDbLine
 10
5386.470741980814
 20
1498.502982708347
 30
0.0
 11
5393.088746980814
 21
1505.120987708347
 31
0.0
  0
LINE
  5
4C
330
17
100
AcDbEntity
  8
3
 62
3
370
25
100
AcDbLine
 10
5045.798198980813
 20
1903.120987708348
 30
0.0
 11
5052.470741980814
 21
1909.793530708348
 31
0.0
  0
LINE
  5
4D
330
17
100
AcDbEntity
  8
3
 62
3
370
25
100
AcDbLine
 10
5033.777383980813
 20
1903.120987708348
 30
0.0
 11
5052.470741980814
 21
1921.814345708348
 31
0.0
  0
LINE
  5
4E
330
17
100
AcDbEntity
  8
3
 62
3
370
25
100
AcDbLine
 10
5033.470741980814
 20
1914.835160708348
 30
0.0
 11
5052.470741980814
 21
1933.835160708348
 31
0.0
  0
LINE
  5
4F
330
17
100
AcDbEntity
  8
3
 62
3
370
25
100
AcDbLine
 10
5033.470741980814
 20
1926.855975708347
 30
0.0
 11
5052.470741980814
 21
1945.855975708347
 31
0.0
  0
LINE
  5
50
330
17
100
AcDbEntity
  8
3
 62
3
370
25
100
AcDbLine
 10
5033.470741980814
 20
1938.876791708348
 30
0.0
 11
5052.470741980814
 21
1957.876791708348
 31
0.0
  0
LINE
  5
51
330
17
100
AcDbEntity
  8
3
 62
3
370
25
100
AcDbLine
 10
5033.470741980814
 20
1950.897606708348
 30
0.0
 11
5052.470741980814
 21
1969.897606708348
 31
0.0
  0
LINE
  5
52
330
17
100
AcDbEntity
  8
3
 62
3
370
25
100
AcDbLine
 10
5033.470741980814
 20
1962.918421708348
 30
0.0
 11
5052.470741980814
 21
1981.918421708347
 31
0.0
  0
LINE
  5
53
330
17
100
AcDbEntity
  8
3
 62
3
370
25
100
AcDbLine
 10
5033.470741980814
 20
1974.939237708348
 30
0.0
 11
5041.652491980813
 21
1983.120987708347
 31
0.0
  0
LINE
  5
54
330
17
100
AcDbEntity
  8
3
 62
3
370
25
100
AcDbLine
 10
5340.547548980813
 20
1765.120987708347
 30
0.0
 11
5346.470741980813
 21
1771.04418070835
 31
0.0
  0
LINE
  5
55
330
17
100
AcDbEntity
  8
3
 62
3
370
25
100
AcDbLine
 10
5328.526733980814
 20
1765.120987708347
 30
0.0
 11
5346.470741980813
 21
1783.06499570835
 31
0.0
  0
LINE
  5
56
330
17
100
AcDbEntity
  8
3
 62
3
370
25
100
AcDbLine
 10
5316.505918980813
 20
1765.120987708347
 30
0.0
 11
5335.505918980814
 21
1784.120987708347
 31
0.0
  0
LINE
  5
57
330
17
100
AcDbEntity
  8
3
 62
3
370
25
100
AcDbLine
 10
5304.485103980813
 20
1765.120987708347
 30
0.0
 11
5323.485103980813
 21
1784.120987708347
 31
0.0
  0
LINE
  5
58
330
17
100
AcDbEntity
  8
3
 62
3
370
25
100
AcDbLine
 10
5292.464287980813
 20
1765.120987708347
 30
0.0
 11
5311.464287980814
 21
1784.120987708347
 31
0.0
  0
LINE
  5
59
330
17
100
AcDbEntity
  8
3
 62
3
370
25
100
AcDbLine
 10
5280.443472980813
 20
1765.120987708347
 30
0.0
 11
5299.443472980813
 21
1784.120987708347
 31
0.0
  0
LINE
  5
5A
330
17
100
AcDbEntity
  8
3
 62
3
370
25
100
AcDbLine
 10
5268.422657980813
 20
1765.120987708347
 30
0.0
 11
5287.422657980814
 21
1784.120987708347
 31
0.0
  0
LINE
  5
5B
330
17
100
AcDbEntity
  8
3
 62
3
370
25
100
AcDbLine
 10
5256.401842980814
 20
1765.120987708347
 30
0.0
 11
5275.401842980814
 21
1784.120987708347
 31
0.0
  0
LINE
  5
5C
330
17
100
AcDbEntity
  8
3
 62
3
370
25
100
AcDbLine
 10
5244.381026980814
 20
1765.120987708347
 30
0.0
 11
5263.381026980813
 21
1784.120987708347
 31
0.0
  0
LINE
  5
5D
330
17
100
AcDbEntity
  8
3
 62
3
370
25
100
AcDbLine
 10
5232.360211980814
 20
1765.120987708347
 30
0.0
 11
5251.360211980814
 21
1784.120987708347
 31
0.0
  0
LINE
  5
5E
330
17
100
AcDbEntity
  8
3
 62
3
370
25
100
AcDbLine
 10
5220.339396980814
 20
1765.120987708347
 30
0.0
 11
5239.339396980813
 21
1784.120987708347
 31
0.0
  0
LINE
  5
5F
330
17
100
AcDbEntity
  8
3
 62
3
370
25
100
AcDbLine
 10
5208.318580980813
 20
1765.120987708347
 30
0.0
 11
5227.318580980814
 21
1784.120987708347
 31
0.0
  0
LINE
  5
60
330
17
100
AcDbEntity
  8
3
 62
3
370
25
100
AcDbLine
 10
5196.297765980814
 20
1765.120987708347
 30
0.0
 11
5215.297765980814
 21
1784.120987708347
 31
0.0
  0
LINE
  5
61
330
17
100
AcDbEntity
  8
3
 62
3
370
25
100
AcDbLine
 10
5184.276950980814
 20
1765.120987708347
 30
0.0
 11
5203.276950980814
 21
1784.120987708347
 31
0.0
  0
LINE
  5
62
330
17
100
AcDbEntity
  8
3
 62
3
370
25
100
AcDbLine
 10
5181.470741980813
 20
1774.335593708349
 30
0.0
 11
5200.470741980814
 21
1793.335593708349
 31
0.0
  0
LINE
  5
63
330
17
100
AcDbEntity
  8
3
 62
3
370
25
100
AcDbLine
 10
5181.470741980813
 20
1786.356409708349
 30
0.0
 11
5200.470741980814
 21
1805.356409708349
 31
0.0
  0
LINE
  5
64
330
17
100
AcDbEntity
  8
3
 62
3
370
25
100
AcDbLine
 10
5181.470741980813
 20
1798.377224708349
 30
0.0
 11
5200.470741980814
 21
1817.377224708349
 31
0.0
  0
LINE
  5
65
330
17
100
AcDbEntity
  8
3
 62
3
370
25
100
AcDbLine
 10
5181.470741980813
 20
1810.398039708348
 30
0.0
 11
5200.470741980814
 21
1829.398039708349
 31
0.0
  0
LINE
  5
66
330
17
100
AcDbEntity
  8
3
 62
3
370
25
100
AcDbLine
 10
5181.470741980813
 20
1822.418855708349
 30
0.0
 11
5200.470741980814
 21
1841.418855708349
 31
0.0
  0
LINE
  5
67
330
17
100
AcDbEntity
  8
3
 62
3
370
25
100
AcDbLine
 10
5181.470741980813
 20
1834.439670708349
 30
0.0
 11
5200.470741980814
 21
1853.439670708349
 31
0.0
  0
LINE
  5
68
330
17
100
AcDbEntity
  8
3
 62
3
370
25
100
AcDbLine
 10
5181.470741980813
 20
1846.460485708348
 30
0.0
 11
5200.470741980814
 21
1865.460485708348
 31
0.0
  0
LINE
  5
69
330
17
100
AcDbEntity
  8
3
 62
3
370
25
100
AcDbLine
 10
5181.470741980813
 20
1858.481300708348
 30
0.0
 11
5200.470741980814
 21
1877.481300708348
 31
0.0
  0
LINE
  5
6A
330
17
100
AcDbEntity
  8
3
 62
3
370
25
100
AcDbLine
 10
5181.470741980813
 20
1870.502116708349
 30
0.0
 11
5200.470741980814
 21
1889.502116708349
 31
0.0
  0
LINE
  5
6B
330
17
100
AcDbEntity
  8
3
 62
3
370
25
100
AcDbLine
 10
5181.470741980813
 20
1882.522931708349
 30
0.0
 11
5200.470741980814
 21
1901.522931708348
 31
0.0
  0
LINE
  5
6C
330
17
100
AcDbEntity
  8
3
 62
3
370
25
100
AcDbLine
 10
5181.470741980813
 20
1894.543746708348
 30
0.0
 11
5200.470741980814
 21
1913.543746708348
 31
0.0
  0
LINE
  5
6D
330
17
100
AcDbEntity
  8
3
 62
3
370
25
100
AcDbLine
 10
5181.470741980813
 20
1906.564562708348
 30
0.0
 11
5200.470741980814
 21
1925.564562708348
 31
0.0
  0
LINE
  5
6E
330
17
100
AcDbEntity
  8
3
 62
3
370
25
100
AcDbLine
 10
5181.470741980813
 20
1918.585377708348
 30
0.0
 11
5200.470741980814
 21
1937.585377708348
 31
0.0
  0
LINE
  5
6F
330
17
100
AcDbEntity
  8
3
 62
3
370
25
100
AcDbLine
 10
5181.470741980813
 20
1930.606192708348
 30
0.0
 11
5200.470741980814
 21
1949.606192708348
 31
0.0
  0
LINE
  5
70
330
17
100
AcDbEntity
  8
3
 62
3
370
25
100
AcDbLine
 10
5181.470741980813
 20
1942.627007708348
 30
0.0
 11
5200.470741980814
 21
1961.627007708348
 31
0.0
  0
LINE
  5
71
330
17
100
AcDbEntity
  8
3
 62
3
370
25
100
AcDbLine
 10
5181.470741980813
 20
1954.647823708348
 30
0.0
 11
5200.470741980814
 21
1973.647823708348
 31
0.0
  0
LINE
  5
72
330
17
100
AcDbEntity
  8
3
 62
3
370
25
100
AcDbLine
 10
5181.470741980813
 20
1966.668638708348
 30
0.0
 11
5197.923090980814
 21
1983.120987708347
 31
0.0
  0
LINE
  5
73
330
17
100
AcDbEntity
  8
3
 62
3
370
25
100
AcDbLine
 10
5181.470741980813
 20
1978.689453708348
 30
0.0
 11
5185.902275980814
 21
1983.120987708347
 31
0.0
  0
LINE
  5
74
330
17
100
AcDbEntity
  8
1
 62
1
370
25
100
AcDbLine
 10
5200.470741980814
 20
1784.120987708347
 30
0.0
 11
5380.470741980814
 21
1964.120987708347
 31
0.0
  0
LINE
  5
75
330
17
100
AcDbEntity
  8
1
 62
1
370
25
100
AcDbLine
 10
5200.470741980814
 20
1964.120987708347
 30
0.0
 11
5380.470741980814
 21
1784.120987708347
 31
0.0
  0
LINE
  5
76
330
17
100
AcDbEntity
  8
1
 62
1
370
25
100
AcDbLine
 10
5399.470741980813
 20
1784.120987708347
 30
0.0
 11
5448.884281980814
 21
1833.5345277083482
 31
0.0
  0
LINE
  5
77
330
17
100
AcDbEntity
  8
1
 62
1
370
25
100
AcDbLine
 10
5399.470741980813
 20
1964.120987708347
 30
0.0
 11
5448.884281980814
 21
1914.7074477083459
 31
0.0
  0
LINE
  5
78
330
17
100
AcDbEntity
  8
1
 62
1
370
25
100
AcDbLine
 10
5200.470741980814
 20
1784.120987708347
 30
0.0
 11
5380.470741980814
 21
1964.120987708347
 31
0.0
  0
LINE
  5
79
330
17
100
AcDbEntity
  8
1
 62
1
370
25
100
AcDbLine
 10
5200.470741980814
 20
1964.120987708347
 30
0.0
 11
5380.470741980814
 21
1784.120987708347
 31
0.0
  0
LINE
  5
7A
330
17
100
AcDbEntity
  8
1
 62
1
370
25
100
AcDbLine
 10
5399.470741980813
 20
1784.120987708347
 30
0.0
 11
5448.884281980814
 21
1833.5345277083482
 31
0.0
  0
LINE
  5
7B
330
17
100
AcDbEntity
  8
1
 62
1
370
25
100
AcDbLine
 10
5399.470741980813
 20
1964.120987708347
 30
0.0
 11
5448.884281980814
 21
1914.7074477083459
 31
0.0
  0
LINE
  5
7C
330
17
100
AcDbEntity
  8
9
 62
9
370
25
100
AcDbLine
 10
5314.970741980814
 20
1628.120987708348
 30
0.0
 11
5314.970741980814
 21
1505.120987708347
 31
0.0
  0
LINE
  5
7D
330
17
100
AcDbEntity
  8
9
 62
9
370
25
100
AcDbLine
 10
5342.970741980813
 20
1628.120987708348
 30
0.0
 11
5342.970741980813
 21
1505.120987708347
 31
0.0
  0
LINE
  5
7E
330
17
100
AcDbEntity
  8
9
 62
9
370
25
100
AcDbLine
 10
5370.970741980814
 20
1628.120987708348
 30
0.0
 11
5370.970741980814
 21
1505.120987708347
 31
0.0
  0
LINE
  5
7F
330
17
100
AcDbEntity
  8
9
 62
9
370
25
100
AcDbLine
 10
5398.970741980814
 20
1628.120987708348
 30
0.0
 11
5398.970741980814
 21
1505.120987708347
 31
0.0
  0
LINE
  5
80
330
17
100
AcDbEntity
  8
9
 62
9
370
25
100
AcDbLine
 10
5426.970741980813
 20
1628.120987708348
 30
0.0
 11
5426.970741980813
 21
1505.120987708347
 31
0.0
  0
LINE
  5
81
330
17
100
AcDbEntity
  8
9
 62
9
370
25
100
AcDbLine
 10
5314.970741980814
 20
1763.620987708347
 30
0.0
 11
5314.970741980814
 21
1642.120987708347
 31
0.0
  0
LINE
  5
82
330
17
100
AcDbEntity
  8
9
 62
9
370
25
100
AcDbLine
 10
5342.970741980813
 20
1765.120987708347
 30
0.0
 11
5342.970741980813
 21
1642.120987708347
 31
0.0
  0
LINE
  5
83
330
17
100
AcDbEntity
  8
9
 62
9
370
25
100
AcDbLine
 10
5370.970741980814
 20
1765.120987708347
 30
0.0
 11
5370.970741980814
 21
1642.120987708347
 31
0.0
  0
LINE
  5
84
330
17
100
AcDbEntity
  8
9
 62
9
370
25
100
AcDbLine
 10
5398.970741980814
 20
1765.120987708347
 30
0.0
 11
5398.970741980814
 21
1642.120987708347
 31
0.0
  0
LINE
  5
85
330
17
100
AcDbEntity
  8
9
 62
9
370
25
100
AcDbLine
 10
5426.970741980813
 20
1765.120987708347
 30
0.0
 11
5426.970741980813
 21
1642.120987708347
 31
0.0
  0
LINE
  5
86
330
17
100
AcDbEntity
  8
9
 62
9
370
25
100
AcDbLine
 10
5260.470741980814
 20
1642.120987708347
 30
0.0
 11
5448.884281980814
 21
1631.5274553388697
 31
0.0
  0
LINE
  5
87
330
17
100
AcDbEntity
  8
9
 62
9
370
25
100
AcDbLine
 10
5260.470741980814
 20
1628.120987708348
 30
0.0
 11
5448.884281980814
 21
1638.7145200778252
 31
0.0
  0
LINE
  5
88
330
17
100
AcDbEntity
  8
3
 62
3
370
25
100
AcDbLine
 10
4810.989860980814
 20
1758.240995708349
 30
0.0
 11
4817.422940980814
 21
1758.240995708349
 31
0.0
  0
LINE
  5
89
330
17
100
AcDbEntity
  8
3
 62
3
370
25
100
AcDbLine
 10
4810.989860980814
 20
1768.547949708349
 30
0.0
 11
4811.995198980813
 21
1768.547949708349
 31
0.0
  0
LINE
  5
8A
330
17
100
AcDbEntity
  8
3
 62
3
370
25
100
AcDbLine
 10
4810.989860980814
 20
1767.755088708351
 30
0.0
 11
4813.030460980813
 21
1767.755088708351
 31
0.0
  0
LINE
  5
8B
330
17
100
AcDbEntity
  8
3
 62
3
370
25
100
AcDbLine
 10
4810.989860980814
 20
1766.962299708348
 30
0.0
 11
4813.877799980813
 21
1766.962299708348
 31
0.0
  0
LINE
  5
8C
330
17
100
AcDbEntity
  8
3
 62
3
370
25
100
AcDbLine
 10
4810.989860980814
 20
1766.16945070835
 30
0.0
 11
4814.586808980814
 21
1766.16945070835
 31
0.0
  0
LINE
  5
8D
330
17
100
AcDbEntity
  8
3
 62
3
370
25
100
AcDbLine
 10
4810.989860980814
 20
1765.376589708348
 30
0.0
 11
4815.186145980813
 21
1765.376589708348
 31
0.0
  0
LINE
  5
8E
330
17
100
AcDbEntity
  8
3
 62
3
370
25
100
AcDbLine
 10
4810.989860980814
 20
1764.583740708347
 30
0.0
 11
4815.694167980813
 21
1764.583740708347
 31
0.0
  0
LINE
  5
8F
330
17
100
AcDbEntity
  8
3
 62
3
370
25
100
AcDbLine
 10
4810.989860980814
 20
1763.79089170835
 30
0.0
 11
4816.123321980814
 21
1763.79089170835
 31
0.0
  0
LINE
  5
90
330
17
100
AcDbEntity
  8
3
 62
3
370
25
100
AcDbLine
 10
4810.989860980814
 20
1762.998042708348
 30
0.0
 11
4816.482379980814
 21
1762.998042708348
 31
0.0
  0
LINE
  5
91
330
17
100
AcDbEntity
  8
3
 62
3
370
25
100
AcDbLine
 10
4810.989860980814
 20
1762.205193708347
 30
0.0
 11
4816.777684980813
 21
1762.205193708347
 31
0.0
  0
LINE
  5
92
330
17
100
AcDbEntity
  8
3
 62
3
370
25
100
AcDbLine
 10
4810.989860980814
 20
1761.412391708351
 30
0.0
 11
4817.013957980813
 21
1761.412391708351
 31
0.0
  0
LINE
  5
93
330
17
100
AcDbEntity
  8
3
 62
3
370
25
100
AcDbLine
 10
4810.989860980814
 20
1760.619542708349
 30
0.0
 11
4817.194535980814
 21
1760.619542708349
 31
0.0
  0
LINE
  5
94
330
17
100
AcDbEntity
  8
3
 62
3
370
25
100
AcDbLine
 10
4810.989860980814
 20
1759.826693708348
 30
0.0
 11
4817.321946980814
 21
1759.826693708348
 31
0.0
  0
LINE
  5
95
330
17
100
AcDbEntity
  8
3
 62
3
370
25
100
AcDbLine
 10
4810.989860980814
 20
1759.03384470835
 30
0.0
 11
4817.422940980814
 21
1759.03384470835
 31
0.0
  0
LINE
  5
96
330
17
100
AcDbEntity
  8
3
 62
3
370
25
100
AcDbLine
 10
4817.422940980814
 20
1758.240995708349
 30
0.0
 11
4888.845689980813
 21
1758.240995708349
 31
0.0
  0
LINE
  5
97
330
17
100
AcDbEntity
  8
9
 62
9
370
25
100
AcDbLine
 10
5286.970741980813
 20
1628.120987708348
 30
0.0
 11
5286.970741980813
 21
1505.120987708347
 31
0.0
  0
LINE
  5
98
330
17
100
AcDbEntity
  8
9
 62
9
370
25
100
AcDbLine
 10
5286.970741980813
 20
1763.620987708347
 30
0.0
 11
5286.970741980813
 21
1642.120987708347
 31
0.0
  0
LINE
  5
99
330
17
100
AcDbEntity
  8
9
 62
9
370
25
100
AcDbLine
 10
5258.970741980814
 20
1763.620987708347
 30
0.0
 11
5258.970741980814
 21
1643.620987708347
 31
0.0
  0
LINE
  5
9A
330
17
100
AcDbEntity
  8
9
 62
9
370
25
100
AcDbLine
 10
5260.470741980814
 20
1642.120987708347
 30
0.0
 11
5258.970741980814
 21
1643.620987708347
 31
0.0
  0
LINE
  5
9B
330
17
100
AcDbEntity
  8
Painéis
 62
4
370
25
100
AcDbLine
 10
5181.470741980813
 20
1874.663830921562
 30
0.0
 11
5181.470741980813
 21
1873.82591695307
 31
0.0
  0
LINE
  5
9C
330
17
100
AcDbEntity
  8
Painéis
 62
4
370
25
100
AcDbLine
 10
5112.970741980814
 20
1875.686609390065
 30
0.0
 11
5112.970741980814
 21
1879.82591695307
 31
0.0
  0
LINE
  5
9D
330
17
100
AcDbEntity
  8
Painéis
 62
4
370
25
100
AcDbLine
 10
5181.470741980813
 20
1876.82591695307
 30
0.0
 11
5112.970741980814
 21
1876.82591695307
 31
0.0
  0
LINE
  5
9E
330
17
100
AcDbEntity
  8
Painéis
 62
0
370
25
100
AcDbLine
 10
5179.970741980813
 20
1875.32591695307
 30
0.0
 11
5182.970741980813
 21
1878.32591695307
 31
0.0
  0
LINE
  5
9F
330
17
100
AcDbEntity
  8
Painéis
 62
0
370
25
100
AcDbLine
 10
5114.470741980814
 20
1878.32591695307
 30
0.0
 11
5111.470741980814
 21
1875.32591695307
 31
0.0
  0
LINE
  5
A0
330
17
100
AcDbEntity
  8
Painéis
 62
4
370
25
100
AcDbLine
 10
5112.970741980814
 20
1876.825916953071
 30
0.0
 11
5052.470741980814
 21
1876.825916953071
 31
0.0
  0
LINE
  5
A1
330
17
100
AcDbEntity
  8
Painéis
 62
0
370
25
100
AcDbLine
 10
5111.470741980814
 20
1875.325916953071
 30
0.0
 11
5114.470741980814
 21
1878.325916953071
 31
0.0
  0
LINE
  5
A2
330
17
100
AcDbEntity
  8
Painéis
 62
0
370
25
100
AcDbLine
 10
5053.970741980814
 20
1878.325916953071
 30
0.0
 11
5050.970741980814
 21
1875.325916953071
 31
0.0
  0
LINE
  5
A3
330
17
100
AcDbEntity
  8
Painéis
 62
4
370
25
100
AcDbLine
 10
5100.958313536669
 20
1964.068396708348
 30
0.0
 11
5100.958313536669
 21
1720.068396708348
 31
0.0
  0
LINE
  5
A4
330
17
100
AcDbEntity
  8
Painéis
 62
0
370
25
100
AcDbLine
 10
5102.458313536669
 20
1962.568396708348
 30
0.0
 11
5099.458313536669
 21
1965.568396708348
 31
0.0
  0
LINE
  5
A5
330
17
100
AcDbEntity
  8
Painéis
 62
0
370
25
100
AcDbLine
 10
5099.458313536669
 20
1721.568396708348
 30
0.0
 11
5102.458313536669
 21
1718.568396708348
 31
0.0
  0
LINE
  5
A6
330
17
100
AcDbEntity
  8
Painéis
 62
4
370
25
100
AcDbLine
 10
5097.958313536627
 20
1720.068396708348
 30
0.0
 11
5096.343243980883
 21
1720.068396708348
 31
0.0
  0
LINE
  5
A7
330
17
100
AcDbEntity
  8
Painéis
 62
4
370
25
100
AcDbLine
 10
5099.343243980882
 20
1720.068396708348
 30
0.0
 11
5099.343243980882
 21
1505.068396708347
 31
0.0
  0
LINE
  5
A8
330
17
100
AcDbEntity
  8
Painéis
 62
0
370
25
100
AcDbLine
 10
5100.843243980882
 20
1718.568396708348
 30
0.0
 11
5097.843243980882
 21
1721.568396708348
 31
0.0
  0
LINE
  5
A9
330
17
100
AcDbEntity
  8
Painéis
 62
0
370
25
100
AcDbLine
 10
5097.843243980882
 20
1506.568396708347
 30
0.0
 11
5100.843243980882
 21
1503.568396708347
 31
0.0
  0
LINE
  5
AA
330
17
100
AcDbEntity
  8
Painéis
 62
4
370
25
100
AcDbLine
 10
5117.033730728544
 20
1983.120987708348
 30
0.0
 11
5117.033730728544
 21
2025.120987708347
 31
0.0
  0
LINE
  5
AB
330
17
100
AcDbEntity
  8
Painéis
 62
0
370
25
100
AcDbLine
 10
5115.533730728544
 20
1984.620987708348
 30
0.0
 11
5118.533730728544
 21
1981.620987708348
 31
0.0
  0
LINE
  5
AC
330
17
100
AcDbEntity
  8
Painéis
 62
4
370
25
100
AcDbLine
 10
4810.989860980814
 20
1887.870987708346
 30
0.0
 11
4885.479283980814
 21
1887.870987708346
 31
0.0
  0
LINE
  5
AD
330
17
100
AcDbEntity
  8
Painéis
 62
0
370
25
100
AcDbLine
 10
4883.979283980814
 20
1886.370987708346
 30
0.0
 11
4886.979283980814
 21
1889.370987708346
 31
0.0
  0
LINE
  5
AE
330
17
100
AcDbEntity
  8
Painéis
 62
4
370
25
100
AcDbLine
 10
4885.479283980814
 20
1887.870987708346
 30
0.0
 11
4911.479283980813
 21
1887.870987708346
 31
0.0
  0
LINE
  5
AF
330
17
100
AcDbEntity
  8
Painéis
 62
0
370
25
100
AcDbLine
 10
4886.979283980814
 20
1889.370987708346
 30
0.0
 11
4883.979283980814
 21
1886.370987708346
 31
0.0
  0
LINE
  5
B0
330
17
100
AcDbEntity
  8
Painéis
 62
0
370
25
100
AcDbLine
 10
4909.979283980813
 20
1886.370987708346
 30
0.0
 11
4912.979283980813
 21
1889.370987708346
 31
0.0
  0
LINE
  5
B1
330
17
100
AcDbEntity
  8
Painéis
 62
4
370
25
100
AcDbLine
 10
4911.479283980813
 20
1887.870987708346
 30
0.0
 11
5033.470741980814
 21
1887.870987708346
 31
0.0
  0
LINE
  5
B2
330
17
100
AcDbEntity
  8
Painéis
 62
0
370
25
100
AcDbLine
 10
4912.979283980813
 20
1889.370987708346
 30
0.0
 11
4909.979283980813
 21
1886.370987708346
 31
0.0
  0
LINE
  5
B3
330
17
100
AcDbEntity
  8
Painéis
 62
0
370
25
100
AcDbLine
 10
5031.970741980814
 20
1886.370987708346
 30
0.0
 11
5034.970741980814
 21
1889.370987708346
 31
0.0
  0
LINE
  5
B4
330
17
100
AcDbEntity
  8
Painéis
 62
4
370
25
100
AcDbLine
 10
4868.730553619371
 20
2013.120987708349
 30
0.0
 11
4868.730553619371
 21
1834.120987708348
 31
0.0
  0
LINE
  5
B5
330
17
100
AcDbEntity
  8
Painéis
 62
0
370
25
100
AcDbLine
 10
4870.230553619371
 20
2011.620987708349
 30
0.0
 11
4867.230553619371
 21
2014.620987708349
 31
0.0
  0
LINE
  5
B6
330
17
100
AcDbEntity
  8
Painéis
 62
0
370
25
100
AcDbLine
 10
4867.230553619371
 20
1835.620987708348
 30
0.0
 11
4870.230553619371
 21
1832.620987708348
 31
0.0
  0
LINE
  5
B7
330
17
100
AcDbEntity
  8
Painéis
 62
4
370
25
100
AcDbLine
 10
4868.730553619382
 20
1834.120987708348
 30
0.0
 11
4868.730553619382
 21
1590.120987708348
 31
0.0
  0
LINE
  5
B8
330
17
100
AcDbEntity
  8
Painéis
 62
0
370
25
100
AcDbLine
 10
4870.230553619382
 20
1832.620987708348
 30
0.0
 11
4867.230553619382
 21
1835.620987708348
 31
0.0
  0
LINE
  5
B9
330
17
100
AcDbEntity
  8
Painéis
 62
0
370
25
100
AcDbLine
 10
4867.230553619382
 20
1591.620987708348
 30
0.0
 11
4870.230553619382
 21
1588.620987708348
 31
0.0
  0
LINE
  5
BA
330
17
100
AcDbEntity
  8
Painéis
 62
4
370
25
100
AcDbLine
 10
5033.470741980814
 20
1515.277277925948
 30
0.0
 11
4810.989860980814
 21
1515.277277925948
 31
0.0
  0
LINE
  5
BB
330
17
100
AcDbEntity
  8
Painéis
 62
0
370
25
100
AcDbLine
 10
5031.970741980814
 20
1513.777277925948
 30
0.0
 11
5034.970741980814
 21
1516.777277925948
 31
0.0
  0
LINE
  5
BC
330
17
100
AcDbEntity
  8
Painéis
 62
4
370
25
100
AcDbLine
 10
5033.470741980814
 20
1571.120987708347
 30
0.0
 11
4810.989860980814
 21
1571.120987708347
 31
0.0
  0
LINE
  5
BD
330
17
100
AcDbEntity
  8
Painéis
 62
0
370
25
100
AcDbLine
 10
5031.970741980814
 20
1569.620987708347
 30
0.0
 11
5034.970741980814
 21
1572.620987708347
 31
0.0
  0
LWPOLYLINE
  5
BE
330
17
100
AcDbEntity
  8
3
 62
3
370
25
100
AcDbPolyline
 90
2
 70
0
 10
5033.470741980814
 20
1590.120987708347
 10
4810.989860980814
 20
1590.120987708347
  0
LWPOLYLINE
  5
BF
330
17
100
AcDbEntity
  8
3
 62
3
370
25
100
AcDbPolyline
 90
2
 70
0
 10
4810.989860980814
 20
1571.120987708347
 10
5033.470741980814
 20
1571.120987708347
  0
LWPOLYLINE
  5
C0
330
17
100
AcDbEntity
  8
3
 62
3
370
25
100
AcDbPolyline
 90
2
 70
0
 10
4810.989860980814
 20
2013.120987708347
 10
5033.470741980814
 20
2013.120987708347
  0
LWPOLYLINE
  5
C1
330
17
100
AcDbEntity
  8
3
 62
3
370
25
100
AcDbPolyline
 90
2
 70
0
 10
5181.470741980813
 20
1983.120987708347
 10
5052.470741980814
 20
1983.120987708347
  0
LWPOLYLINE
  5
C2
330
17
100
AcDbEntity
  8
3
 62
3
370
25
100
AcDbPolyline
 90
2
 70
0
 10
5052.470741980814
 20
1964.120987708347
 10
5181.470741980813
 20
1964.120987708347
  0
LWPOLYLINE
  5
C3
330
17
100
AcDbEntity
  8
3
 62
3
370
25
100
AcDbPolyline
 90
2
 70
0
 10
5389.970741980814
 20
1983.120987708347
 10
5200.470741980814
 20
1983.120987708347
  0
LWPOLYLINE
  5
C4
330
17
100
AcDbEntity
  8
3
 62
3
370
25
100
AcDbPolyline
 90
2
 70
0
 10
5200.470741980814
 20
1964.120987708347
 10
5380.470741980814
 20
1964.120987708347
  0
LWPOLYLINE
  5
C5
330
17
100
AcDbEntity
  8
3
 62
3
370
25
100
AcDbPolyline
 90
2
 70
0
 10
5448.884281980814
 20
1983.120987708347
 10
5389.970741980814
 20
1983.120987708347
  0
LWPOLYLINE
  5
C6
330
17
100
AcDbEntity
  8
3
 62
3
370
25
100
AcDbPolyline
 90
2
 70
0
 10
5399.470741980813
 20
1964.120987708347
 10
5448.884281980814
 20
1964.120987708347
  0
LWPOLYLINE
  5
C7
330
17
100
AcDbEntity
  8
3
 62
3
370
25
100
AcDbPolyline
 90
2
 70
0
 10
5380.470741980814
 20
1784.120987708347
 10
5346.470741980813
 20
1784.120987708347
  0
LWPOLYLINE
  5
C8
330
17
100
AcDbEntity
  8
3
 62
3
370
25
100
AcDbPolyline
 90
2
 70
0
 10
5346.470741980813
 20
1765.120987708347
 10
5389.970741980814
 20
1765.120987708347
  0
LWPOLYLINE
  5
C9
330
17
100
AcDbEntity
  8
3
 62
3
370
25
100
AcDbPolyline
 90
2
 70
0
 10
5448.884281980814
 20
1784.120987708347
 10
5399.470741980813
 20
1784.120987708347
  0
LWPOLYLINE
  5
CA
330
17
100
AcDbEntity
  8
3
 62
3
370
25
100
AcDbPolyline
 90
2
 70
0
 10
5389.970741980814
 20
1765.120987708347
 10
5448.884281980814
 20
1765.120987708347
  0
LWPOLYLINE
  5
CB
330
17
100
AcDbEntity
  8
3
 62
3
370
25
100
AcDbPolyline
 90
2
 70
0
 10
5033.470741980814
 20
1571.120987708347
 10
5033.470741980814
 20
1505.120987708347
  0
LWPOLYLINE
  5
CC
330
17
100
AcDbEntity
  8
3
 62
3
370
25
100
AcDbPolyline
 90
2
 70
0
 10
5052.470741980814
 20
1505.120987708347
 10
5052.470741980814
 20
1587.84322670835
  0
LWPOLYLINE
  5
CD
330
17
100
AcDbEntity
  8
3
 62
3
370
25
100
AcDbPolyline
 90
2
 70
0
 10
5033.470741980814
 20
1903.120987708348
 10
5033.470741980814
 20
1590.120987708347
  0
LWPOLYLINE
  5
CE
330
17
100
AcDbEntity
  8
3
 62
3
370
25
100
AcDbPolyline
 90
2
 70
0
 10
5052.470741980814
 20
1587.84322670835
 10
5052.470741980814
 20
1903.120987708348
  0
LWPOLYLINE
  5
CF
330
17
100
AcDbEntity
  8
3
 62
3
370
25
100
AcDbPolyline
 90
2
 70
0
 10
5033.470741980814
 20
2013.120987708347
 10
5033.470741980814
 20
1983.120987708347
  0
LWPOLYLINE
  5
D0
330
17
100
AcDbEntity
  8
3
 62
3
370
25
100
AcDbPolyline
 90
2
 70
0
 10
5052.470741980814
 20
1983.120987708347
 10
5052.470741980814
 20
2025.120987708347
  0
LWPOLYLINE
  5
D1
330
17
100
AcDbEntity
  8
3
 62
3
370
25
100
AcDbPolyline
 90
2
 70
0
 10
5380.470741980814
 20
1964.120987708347
 10
5380.470741980814
 20
1784.120987708347
  0
LWPOLYLINE
  5
D2
330
17
100
AcDbEntity
  8
3
 62
3
370
25
100
AcDbPolyline
 90
2
 70
0
 10
5399.470741980813
 20
1784.120987708347
 10
5399.470741980813
 20
1964.120987708347
  0
LWPOLYLINE
  5
D3
330
17
100
AcDbEntity
  8
3
 62
3
370
25
100
AcDbPolyline
 90
2
 70
0
 10
5399.470741980813
 20
1784.120987708347
 10
5380.470741980814
 20
1784.120987708347
  0
LWPOLYLINE
  5
D4
330
17
100
AcDbEntity
  8
3
 62
3
370
25
100
AcDbPolyline
 90
2
 70
0
 10
5399.470741980813
 20
1964.120987708347
 10
5380.470741980814
 20
1964.120987708347
  0
LWPOLYLINE
  5
D5
330
17
100
AcDbEntity
  8
3
 62
3
370
25
100
AcDbPolyline
 90
2
 70
0
 10
5181.470741980813
 20
1505.120987708347
 10
5133.470741980814
 20
1505.120987708347
  0
LWPOLYLINE
  5
D6
330
17
100
AcDbEntity
  8
3
 62
3
370
25
100
AcDbPolyline
 90
2
 70
0
 10
5386.470741980814
 20
1505.120987708347
 10
5200.470741980814
 20
1505.120987708347
  0
LWPOLYLINE
  5
D7
330
17
100
AcDbEntity
  8
3
 62
3
370
25
100
AcDbPolyline
 90
2
 70
0
 10
5448.884281980814
 20
1505.120987708347
 10
5446.470741980814
 20
1505.120987708347
  0
LWPOLYLINE
  5
D8
330
17
100
AcDbEntity
  8
3
 62
3
370
25
100
AcDbPolyline
 90
2
 70
0
 10
5181.470741980813
 20
1765.120987708347
 10
5181.470741980813
 20
1505.120987708347
  0
LWPOLYLINE
  5
D9
330
17
100
AcDbEntity
  8
3
 62
3
370
25
100
AcDbPolyline
 90
2
 70
0
 10
5200.470741980814
 20
1505.120987708347
 10
5200.470741980814
 20
1765.120987708347
  0
LWPOLYLINE
  5
DA
330
17
100
AcDbEntity
  8
3
 62
3
370
25
100
AcDbPolyline
 90
2
 70
0
 10
5200.470741980814
 20
1505.120987708347
 10
5181.470741980813
 20
1505.120987708347
  0
LWPOLYLINE
  5
DB
330
17
100
AcDbEntity
  8
3
 62
3
370
25
100
AcDbPolyline
 90
2
 70
0
 10
5033.470741980814
 20
1500.120987708347
 10
4810.989860980814
 20
1500.120987708347
  0
LWPOLYLINE
  5
DC
330
17
100
AcDbEntity
  8
7
 62
7
370
25
100
AcDbPolyline
 90
2
 70
0
 10
5133.470741980814
 20
1493.068396708347
 10
5133.470741980814
 20
1505.120987708347
  0
LWPOLYLINE
  5
DD
330
17
100
AcDbEntity
  8
7
 62
7
370
25
100
AcDbPolyline
 90
2
 70
0
 10
5133.470741980814
 20
1505.120987708347
 10
5033.470741980814
 20
1505.120987708347
  0
LWPOLYLINE
  5
DE
330
17
100
AcDbEntity
  8
7
 62
7
370
25
100
AcDbPolyline
 90
2
 70
0
 10
5033.470741980814
 20
1505.120987708347
 10
5033.470741980814
 20
1493.068396708347
  0
LWPOLYLINE
  5
DF
330
17
100
AcDbEntity
  8
7
 62
7
370
25
100
AcDbPolyline
 90
2
 70
0
 10
5446.470741980814
 20
1493.068396708347
 10
5446.470741980814
 20
1505.120987708347
  0
LWPOLYLINE
  5
E0
330
17
100
AcDbEntity
  8
7
 62
7
370
25
100
AcDbPolyline
 90
2
 70
0
 10
5446.470741980814
 20
1505.120987708347
 10
5386.470741980814
 20
1505.120987708347
  0
LWPOLYLINE
  5
E1
330
17
100
AcDbEntity
  8
7
 62
7
370
25
100
AcDbPolyline
 90
2
 70
0
 10
5386.470741980814
 20
1505.120987708347
 10
5386.470741980814
 20
1493.068396708347
  0
LWPOLYLINE
  5
E2
330
17
100
AcDbEntity
  8
7
 62
7
370
25
100
AcDbPolyline
 90
2
 70
0
 10
5033.470741980814
 20
1903.120987708348
 10
5052.470741980814
 20
1903.120987708348
  0
LWPOLYLINE
  5
E3
330
17
100
AcDbEntity
  8
7
 62
7
370
25
100
AcDbPolyline
 90
2
 70
0
 10
5052.470741980814
 20
1903.120987708348
 10
5052.470741980814
 20
1983.120987708347
  0
LWPOLYLINE
  5
E4
330
17
100
AcDbEntity
  8
7
 62
7
370
25
100
AcDbPolyline
 90
2
 70
0
 10
5052.470741980814
 20
1983.120987708347
 10
5033.470741980814
 20
1983.120987708347
  0
LWPOLYLINE
  5
E5
330
17
100
AcDbEntity
  8
7
 62
7
370
25
100
AcDbPolyline
 90
2
 70
0
 10
5033.470741980814
 20
1983.120987708347
 10
5033.470741980814
 20
1903.120987708348
  0
LWPOLYLINE
  5
E6
330
17
100
AcDbEntity
  8
7
 62
7
370
25
100
AcDbPolyline
 90
2
 70
0
 10
5181.470741980813
 20
1765.120987708347
 10
5346.470741980813
 20
1765.120987708347
  0
LWPOLYLINE
  5
E7
330
17
100
AcDbEntity
  8
7
 62
7
370
25
100
AcDbPolyline
 90
2
 70
0
 10
5346.470741980813
 20
1765.120987708347
 10
5346.470741980813
 20
1784.120987708347
  0
LWPOLYLINE
  5
E8
330
17
100
AcDbEntity
  8
7
 62
7
370
25
100
AcDbPolyline
 90
2
 70
0
 10
5346.470741980813
 20
1784.120987708347
 10
5200.470741980814
 20
1784.120987708347
  0
LWPOLYLINE
  5
E9
330
17
100
AcDbEntity
  8
7
 62
7
370
25
100
AcDbPolyline
 90
2
 70
0
 10
5200.470741980814
 20
1784.120987708347
 10
5200.470741980814
 20
1983.120987708347
  0
LWPOLYLINE
  5
EA
330
17
100
AcDbEntity
  8
7
 62
7
370
25
100
AcDbPolyline
 90
2
 70
0
 10
5200.470741980814
 20
1983.120987708347
 10
5181.470741980813
 20
1983.120987708347
  0
LWPOLYLINE
  5
EB
330
17
100
AcDbEntity
  8
7
 62
7
370
25
100
AcDbPolyline
 90
2
 70
0
 10
5181.470741980813
 20
1983.120987708347
 10
5181.470741980813
 20
1765.120987708347
  0
LWPOLYLINE
  5
EC
330
17
100
AcDbEntity
  8
9
 62
9
370
25
100
AcDbPolyline
 90
2
 70
0
 10
5260.470741980814
 20
1628.120987708348
 10
5448.884281980814
 20
1628.120987708348
  0
LWPOLYLINE
  5
ED
330
17
100
AcDbEntity
  8
9
 62
9
370
25
100
AcDbPolyline
 90
2
 70
0
 10
5448.884281980814
 20
1642.120987708347
 10
5260.470741980814
 20
1642.120987708347
  0
LWPOLYLINE
  5
EE
330
17
100
AcDbEntity
  8
9
 62
9
370
25
100
AcDbPolyline
 90
2
 70
0
 10
5260.470741980814
 20
1642.120987708347
 10
5260.470741980814
 20
1628.120987708348
  0
TEXT
  5
EF
330
17
100
AcDbEntity
  8
3
 62
3
370
25
100
AcDbText
 10
5376.720741980814
 20
1908.418897708348
 30
0.0
 40
10.0
  1
19/50
 50
90.0
100
AcDbText
  0
TEXT
  5
F0
330
17
100
AcDbEntity
  8
3
 62
3
370
25
100
AcDbText
 10
5177.720741980813
 20
1709.551406708348
 30
0.0
 40
10.0
  1
19/50
 50
90.0
100
AcDbText
  0
TEXT
  5
F1
330
17
100
AcDbEntity
  8
4
 62
4
370
25
100
AcDbText
 10
4975.846341980814
 20
1952.73689370835
 30
0.0
 40
15.0
  1
P24
100
AcDbText
  0
TEXT
  5
F2
330
17
100
AcDbEntity
  8
4
 62
4
370
25
100
AcDbText
 10
5244.249760980814
 20
1808.00829970835
 30
0.0
 40
15.0
  1
P26
100
AcDbText
  0
TEXT
  5
F3
330
17
100
AcDbEntity
  8
3
 62
3
370
25
100
AcDbText
 10
5232.346840980813
 20
1790.95902770835
 30
0.0
 40
10.0
  1
VER DET.
100
AcDbText
  0
TEXT
  5
F4
330
17
100
AcDbEntity
  8
3
 62
3
370
25
100
AcDbText
 10
5097.738594980814
 20
1718.17777970835
 30
0.0
 40
10.0
  1
h=12
100
AcDbText
  0
TEXT
  5
F5
330
17
100
AcDbEntity
  8
3
 62
3
370
25
100
AcDbText
 10
4972.866358980814
 20
1937.93147570835
 30
0.0
 40
10.0
  1
19/80
100
AcDbText
  0
TEXT
  5
F6
330
17
100
AcDbEntity
  8
4
 62
4
370
25
100
AcDbText
 10
5056.160100980814
 20
1943.890550708349
 30
0.0
 40
15.0
  1
V404
100
AcDbText
  0
TEXT
  5
F7
330
17
100
AcDbEntity
  8
4
 62
4
370
25
100
AcDbText
 10
5348.722063980813
 20
1748.17367270835
 30
0.0
 40
15.0
  1
V405
100
AcDbText
  0
TEXT
  5
F8
330
17
100
AcDbEntity
  8
4
 62
4
370
25
100
AcDbText
 10
5031.005169980813
 20
1506.862264708348
 30
0.0
 40
15.0
  1
V419
 50
90.0
100
AcDbText
  0
TEXT
  5
F9
330
17
100
AcDbEntity
  8
4
 62
4
370
25
100
AcDbText
 10
5178.252838980814
 20
1508.005790708348
 30
0.0
 40
15.0
  1
V421
 50
90.0
100
AcDbText
  0
TEXT
  5
FA
330
17
100
AcDbEntity
  8
4
 62
4
370
25
100
AcDbText
 10
5376.720741980814
 20
1799.120987708347
 30
0.0
 40
15.0
  1
V422
 50
90.0
100
AcDbText
  0
TEXT
  5
FB
330
17
100
AcDbEntity
  8
4
 62
4
370
25
100
AcDbText
 10
5086.884281980814
 20
1733.39720470835
 30
0.0
 40
15.0
  1
L416
100
AcDbText
  0
TEXT
  5
FC
330
17
100
AcDbEntity
  8
3
 62
3
370
25
100
AcDbText
 10
4825.580760980813
 20
1760.308401708347
 30
0.0
 40
10.0
  1
855.25
100
AcDbText
  0
TEXT
  5
FD
330
17
100
AcDbEntity
  8
3
 62
3
370
25
100
AcDbText
 10
5029.353732980813
 20
1816.249321708348
 30
0.0
 40
10.0
  1
19/55
 50
90.0
100
AcDbText
  0
TEXT
  5
FE
330
17
100
AcDbEntity
  8
3
 62
3
370
25
100
AcDbText
 10
4981.387952980814
 20
1592.01974470835
 30
0.0
 40
10.0
  1
19/55
100
AcDbText
  0
TEXT
  5
FF
330
17
100
AcDbEntity
  8
3
 62
3
370
25
100
AcDbText
 10
5128.754528980814
 20
1950.31499670835
 30
0.0
 40
10.0
  1
19/55
100
AcDbText
  0
TEXT
  5
100
330
17
100
AcDbEntity
  8
3
 62
3
370
25
100
AcDbText
 10
4816.442783980813
 20
1791.473167708349
 30
0.0
 40
10.0
  1
h=13
100
AcDbText
  0
TEXT
  5
101
330
17
100
AcDbEntity
  8
Painéis
 62
240
370
25
100
AcDbText
 10
5147.220741980813
 20
1884.444338005702
 30
0.0
 40
9.0
  1
68.5
100
AcDbText
  0
TEXT
  5
102
330
17
100
AcDbEntity
  8
Painéis
 62
240
370
25
100
AcDbText
 10
5082.720741980814
 20
1884.424601163597
 30
0.0
 40
9.0
  1
60.5
100
AcDbText
  0
TEXT
  5
103
330
17
100
AcDbEntity
  8
Painéis
 62
240
370
25
100
AcDbText
 10
5111.392524062984
 20
1842.068396708346
 30
0.0
 40
9.0
  1
244
 50
90.0
100
AcDbText
  0
TEXT
  5
104
330
17
100
AcDbEntity
  8
Painéis
 62
240
370
25
100
AcDbText
 10
5109.744559770355
 20
1612.568396708345
 30
0.0
 40
9.0
  1
215
 50
90.0
100
AcDbText
  0
TEXT
  5
105
330
17
100
AcDbEntity
  8
Painéis
 62
240
370
25
100
AcDbText
 10
4824.479283980814
 20
1895.423619287294
 30
0.0
 40
9.0
  1
122
100
AcDbText
  0
TEXT
  5
106
330
17
100
AcDbEntity
  8
Painéis
 62
240
370
25
100
AcDbText
 10
4898.479283980814
 20
1895.463092971504
 30
0.0
 40
9.0
  1
26
100
AcDbText
  0
TEXT
  5
107
330
17
100
AcDbEntity
  8
Painéis
 62
240
370
25
100
AcDbText
 10
4972.475012980813
 20
1895.423619287294
 30
0.0
 40
9.0
  1
122
100
AcDbText
  0
TEXT
  5
108
330
17
100
AcDbEntity
  8
Painéis
 62
240
370
25
100
AcDbText
 10
4879.138448356213
 20
1923.620987708346
 30
0.0
 40
9.0
  1
179
 50
90.0
100
AcDbText
  0
TEXT
  5
109
330
17
100
AcDbEntity
  8
Painéis
 62
240
370
25
100
AcDbText
 10
4879.164764145698
 20
1712.120987708346
 30
0.0
 40
9.0
  1
244
 50
90.0
100
AcDbText
  0
TEXT
  5
10A
330
17
100
AcDbEntity
  8
Painéis
 62
240
370
25
100
AcDbText
 10
4911.470741980814
 20
1522.843067399632
 30
0.0
 40
9.0
  1
244
100
AcDbText
  0
TEXT
  5
10B
330
17
100
AcDbEntity
  8
Painéis
 62
240
370
25
100
AcDbText
 10
4911.470741980814
 20
1578.686777182032
 30
0.0
 40
9.0
  1
244
100
AcDbText
  0
HATCH
  5
10C
330
17
100
AcDbEntity
  8
9
 62
7
100
AcDbHatch
 10
0.0
 20
0.0
 30
0.0
210
0.0
220
0.0
230
1.0
  2
SOLID
 70
1
 71
0
 91
1
 92
3
 72
0
 73
1
 93
5
 10
5033.470741980814
 20
1813.120987708347
 10
5033.470741980814
 20
1813.120987708347
 10
5033.470741980814
 20
2013.120987708347
 10
5033.470741980814
 20
2013.120987708347
 10
5033.470741980814
 20
1813.120987708347
 97
0
 75
1
 76
1
 98
0
  0
HATCH
  5
10D
330
17
100
AcDbEntity
  8
Hachura
 62
7
100
AcDbHatch
 10
0.0
 20
0.0
 30
0.0
210
0.0
220
0.0
230
1.0
  2
SOLID
 70
1
 71
0
 91
1
 92
3
 72
0
 73
1
 93
5
 10
4885.479283980814
 20
1590.120987708347
 10
4911.479283980815
 20
1590.120987708347
 10
4911.479283980812
 20
2013.120987708347
 10
4885.479283980814
 20
2013.120987708347
 10
4885.479283980814
 20
1590.120987708347
 97
0
 75
1
 76
1
 98
0
  0
ENDSEC
  0
SECTION
  2
OBJECTS
  0
DICTIONARY
  5
A
330
0
100
AcDbDictionary
281
1
  3
ACAD_COLOR
350
B
  3
ACAD_GROUP
350
C
  3
ACAD_LAYOUT
350
D
  3
ACAD_MATERIAL
350
E
  3
ACAD_MLEADERSTYLE
350
F
  3
ACAD_MLINESTYLE
350
10
  3
ACAD_PLOTSETTINGS
350
11
  3
ACAD_PLOTSTYLENAME
350
12
  3
ACAD_SCALELIST
350
14
  3
ACAD_TABLESTYLE
350
15
  3
ACAD_VISUALSTYLE
350
16
  3
EZDXF_META
350
2D
  0
DICTIONARY
  5
B
330
A
100
AcDbDictionary
281
1
  0
DICTIONARY
  5
C
330
A
100
AcDbDictionary
281
1
  0
DICTIONARY
  5
D
330
A
100
AcDbDictionary
281
1
  3
Model
350
1A
  3
Layout1
350
1E
  0
DICTIONARY
  5
E
330
A
100
AcDbDictionary
281
1
  3
ByBlock
350
1F
  3
ByLayer
350
20
  3
Global
350
21
  0
DICTIONARY
  5
F
330
A
100
AcDbDictionary
281
1
  3
Standard
350
2C
  0
DICTIONARY
  5
10
330
A
100
AcDbDictionary
281
1
  3
Standard
350
22
  0
DICTIONARY
  5
11
330
A
100
AcDbDictionary
281
1
  0
ACDBDICTIONARYWDFLT
  5
12
330
A
100
AcDbDictionary
281
1
  3
Normal
350
13
100
AcDbDictionaryWithDefault
340
13
  0
ACDBPLACEHOLDER
  5
13
330
12
  0
DICTIONARY
  5
14
330
A
100
AcDbDictionary
281
1
  0
DICTIONARY
  5
15
330
A
100
AcDbDictionary
281
1
  0
DICTIONARY
  5
16
330
A
100
AcDbDictionary
281
1
  0
LAYOUT
  5
1A
330
D
100
AcDbPlotSettings
  1

  4
A3
  6

 40
7.5
 41
20.0
 42
7.5
 43
20.0
 44
420.0
 45
297.0
 46
0.0
 47
0.0
 48
0.0
 49
0.0
140
0.0
141
0.0
142
1.0
143
1.0
 70
1024
 72
1
 73
0
 74
5
  7

 75
16
 76
0
 77
2
 78
300
147
1.0
148
0.0
149
0.0
100
AcDbLayout
  1
Model
 70
1
 71
0
 10
0.0
 20
0.0
 11
420.0
 21
297.0
 12
0.0
 22
0.0
 32
0.0
 14
1e+20
 24
1e+20
 34
1e+20
 15
-1e+20
 25
-1e+20
 35
-1e+20
146
0.0
 13
0.0
 23
0.0
 33
0.0
 16
1.0
 26
0.0
 36
0.0
 17
0.0
 27
1.0
 37
0.0
 76
1
330
17
  0
LAYOUT
  5
1E
330
D
100
AcDbPlotSettings
  1

  4
A3
  6

 40
7.5
 41
20.0
 42
7.5
 43
20.0
 44
420.0
 45
297.0
 46
0.0
 47
0.0
 48
0.0
 49
0.0
140
0.0
141
0.0
142
1.0
143
1.0
 70
0
 72
1
 73
0
 74
5
  7

 75
16
 76
0
 77
2
 78
300
147
1.0
148
0.0
149
0.0
100
AcDbLayout
  1
Layout1
 70
1
 71
1
 10
0.0
 20
0.0
 11
420.0
 21
297.0
 12
0.0
 22
0.0
 32
0.0
 14
1e+20
 24
1e+20
 34
1e+20
 15
-1e+20
 25
-1e+20
 35
-1e+20
146
0.0
 13
0.0
 23
0.0
 33
0.0
 16
1.0
 26
0.0
 36
0.0
 17
0.0
 27
1.0
 37
0.0
 76
1
330
1B
  0
MATERIAL
  5
1F
102
{ACAD_REACTORS
330
E
102
}
330
E
100
AcDbMaterial
  1
ByBlock
  2

 70
0
 40
1.0
 71
1
 41
1.0
 91
-1023410177
 42
1.0
 72
1
  3

 73
1
 74
1
 75
1
 44
0.5
 73
0
 45
1.0
 46
1.0
 77
1
  4

 78
1
 79
1
170
1
 48
1.0
171
1
  6

172
1
173
1
174
1
140
1.0
141
1.0
175
1
  7

176
1
177
1
178
1
143
1.0
179
1
  8

270
1
271
1
272
1
145
1.0
146
1.0
273
1
  9

274
1
275
1
276
1
 42
1.0
 72
1
  3

 73
1
 74
1
 75
1
 94
63
  0
MATERIAL
  5
20
102
{ACAD_REACTORS
330
E
102
}
330
E
100
AcDbMaterial
  1
ByLayer
  2

 70
0
 40
1.0
 71
1
 41
1.0
 91
-1023410177
 42
1.0
 72
1
  3

 73
1
 74
1
 75
1
 44
0.5
 73
0
 45
1.0
 46
1.0
 77
1
  4

 78
1
 79
1
170
1
 48
1.0
171
1
  6

172
1
173
1
174
1
140
1.0
141
1.0
175
1
  7

176
1
177
1
178
1
143
1.0
179
1
  8

270
1
271
1
272
1
145
1.0
146
1.0
273
1
  9

274
1
275
1
276
1
 42
1.0
 72
1
  3

 73
1
 74
1
 75
1
 94
63
  0
MATERIAL
  5
21
102
{ACAD_REACTORS
330
E
102
}
330
E
100
AcDbMaterial
  1
Global
  2

 70
0
 40
1.0
 71
1
 41
1.0
 91
-1023410177
 42
1.0
 72
1
  3

 73
1
 74
1
 75
1
 44
0.5
 73
0
 45
1.0
 46
1.0
 77
1
  4

 78
1
 79
1
170
1
 48
1.0
171
1
  6

172
1
173
1
174
1
140
1.0
141
1.0
175
1
  7

176
1
177
1
178
1
143
1.0
179
1
  8

270
1
271
1
272
1
145
1.0
146
1.0
273
1
  9

274
1
275
1
276
1
 42
1.0
 72
1
  3

 73
1
 74
1
 75
1
 94
63
  0
MLINESTYLE
  5
22
102
{ACAD_REACTORS
330
10
102
}
330
10
100
AcDbMlineStyle
  2
Standard
 70
0
  3

 62
256
 51
90.0
 52
90.0
 71
2
 49
0.5
 62
256
  6
BYLAYER
 49
-0.5
 62
256
  6
BYLAYER
  0
MLEADERSTYLE
  5
2C
102
{ACAD_REACTORS
330
F
102
}
330
F
100
AcDbMLeaderStyle
179
2
170
2
171
1
172
0
 90
2
 40
0.0
 41
0.0
173
1
 91
-1056964608
 92
-2
290
1
 42
2.0
291
1
 43
8.0
  3
Standard
 44
4.0
300

342
29
174
1
175
1
176
0
178
1
 93
-1056964608
 45
4.0
292
0
297
0
 46
4.0
 94
-1056964608
 47
1.0
 49
1.0
140
1.0
294
1
141
0.0
177
0
142
1.0
295
0
296
0
143
3.75
271
0
272
9
273
9
  0
DICTIONARY
  5
2D
330
A
100
AcDbDictionary
280
1
281
1
  3
CREATED_BY_EZDXF
350
2E
  3
WRITTEN_BY_EZDXF
350
110
  0
DICTIONARYVAR
  5
2E
330
2D
100
DictionaryVariables
280
0
  1
1.4.3 @ 2026-06-18T15:59:03.065519+00:00
  0
DICTIONARYVAR
  5
110
330
2D
100
DictionaryVariables
280
0
  1
1.4.3 @ 2026-06-18T15:59:03.075060+00:00
  0
ENDSEC
  0
EOF
