  0
SECTION
  2
HEADER
  9
$ACADVER
  1
AC1024
  9
$ACADMAINTVER
 70
6
  9
$DWGCODEPAGE
  3
ANSI_1252
  9
$LASTSAVEDBY
  1
ezdxf
  9
$INSBASE
 10
0.0
 20
0.0
 30
0.0
  9
$EXTMIN
 10
1e+20
 20
1e+20
 30
1e+20
  9
$EXTMAX
 10
-1e+20
 20
-1e+20
 30
-1e+20
  9
$LIMMIN
 10
0.0
 20
0.0
  9
$LIMMAX
 10
420.0
 20
297.0
  9
$ORTHOMODE
 70
0
  9
$REGENMODE
 70
1
  9
$FILLMODE
 70
1
  9
$QTEXTMODE
 70
0
  9
$MIRRTEXT
 70
1
  9
$LTSCALE
 40
1.0
  9
$ATTMODE
 70
1
  9
$TEXTSIZE
 40
2.5
  9
$TRACEWID
 40
1.0
  9
$TEXTSTYLE
  7
Standard
  9
$CLAYER
  8
0
  9
$CELTYPE
  6
ByLayer
  9
$CECOLOR
 62
256
  9
$CELTSCALE
 40
1.0
  9
$DISPSILH
 70
0
  9
$DIMSCALE
 40
1.0
  9
$DIMASZ
 40
2.5
  9
$DIMEXO
 40
0.625
  9
$DIMDLI
 40
3.75
  9
$DIMRND
 40
0.0
  9
$DIMDLE
 40
0.0
  9
$DIMEXE
 40
1.25
  9
$DIMTP
 40
0.0
  9
$DIMTM
 40
0.0
  9
$DIMTXT
 40
2.5
  9
$DIMCEN
 40
2.5
  9
$DIMTSZ
 40
0.0
  9
$DIMTOL
 70
0
  9
$DIMLIM
 70
0
  9
$DIMTIH
 70
0
  9
$DIMTOH
 70
0
  9
$DIMSE1
 70
0
  9
$DIMSE2
 70
0
  9
$DIMTAD
 70
1
  9
$DIMZIN
 70
8
  9
$DIMBLK
  1

  9
$DIMASO
 70
1
  9
$DIMSHO
 70
1
  9
$DIMPOST
  1

  9
$DIMAPOST
  1

  9
$DIMALT
 70
0
  9
$DIMALTD
 70
3
  9
$DIMALTF
 40
0.03937007874
  9
$DIMLFAC
 40
1.0
  9
$DIMTOFL
 70
1
  9
$DIMTVP
 40
0.0
  9
$DIMTIX
 70
0
  9
$DIMSOXD
 70
0
  9
$DIMSAH
 70
0
  9
$DIMBLK1
  1

  9
$DIMBLK2
  1

  9
$DIMSTYLE
  2
ISO-25
  9
$DIMCLRD
 70
0
  9
$DIMCLRE
 70
0
  9
$DIMCLRT
 70
0
  9
$DIMTFAC
 40
1.0
  9
$DIMGAP
 40
0.625
  9
$DIMJUST
 70
0
  9
$DIMSD1
 70
0
  9
$DIMSD2
 70
0
  9
$DIMTOLJ
 70
0
  9
$DIMTZIN
 70
8
  9
$DIMALTZ
 70
0
  9
$DIMALTTZ
 70
0
  9
$DIMUPT
 70
0
  9
$DIMDEC
 70
2
  9
$DIMTDEC
 70
2
  9
$DIMALTU
 70
2
  9
$DIMALTTD
 70
3
  9
$DIMTXSTY
  7
Standard
  9
$DIMAUNIT
 70
0
  9
$DIMADEC
 70
0
  9
$DIMALTRND
 40
0.0
  9
$DIMAZIN
 70
0
  9
$DIMDSEP
 70
44
  9
$DIMATFIT
 70
3
  9
$DIMFRAC
 70
0
  9
$DIMLDRBLK
  1

  9
$DIMLUNIT
 70
2
  9
$DIMLWD
 70
-2
  9
$DIMLWE
 70
-2
  9
$DIMTMOVE
 70
0
  9
$DIMFXL
 40
1.0
  9
$DIMFXLON
 70
0
  9
$DIMJOGANG
 40
0.785398163397
  9
$DIMTFILL
 70
0
  9
$DIMTFILLCLR
 70
0
  9
$DIMARCSYM
 70
0
  9
$DIMLTYPE
  6

  9
$DIMLTEX1
  6

  9
$DIMLTEX2
  6

  9
$DIMTXTDIRECTION
 70
0
  9
$LUNITS
 70
2
  9
$LUPREC
 70
4
  9
$SKETCHINC
 40
1.0
  9
$FILLETRAD
 40
10.0
  9
$AUNITS
 70
0
  9
$AUPREC
 70
2
  9
$MENU
  1
.
  9
$ELEVATION
 40
0.0
  9
$PELEVATION
 40
0.0
  9
$THICKNESS
 40
0.0
  9
$LIMCHECK
 70
0
  9
$CHAMFERA
 40
0.0
  9
$CHAMFERB
 40
0.0
  9
$CHAMFERC
 40
0.0
  9
$CHAMFERD
 40
0.0
  9
$SKPOLY
 70
0
  9
$TDCREATE
 40
2461202.612951389
  9
$TDUCREATE
 40
2458532.153996898
  9
$TDUPDATE
 40
2461202.612951389
  9
$TDUUPDATE
 40
2458532.1544311
  9
$TDINDWG
 40
0.0
  9
$TDUSRTIMER
 40
0.0
  9
$USRTIMER
 70
1
  9
$ANGBASE
 50
0.0
  9
$ANGDIR
 70
0
  9
$PDMODE
 70
0
  9
$PDSIZE
 40
0.0
  9
$PLINEWID
 40
0.0
  9
$SPLFRAME
 70
0
  9
$SPLINETYPE
 70
6
  9
$SPLINESEGS
 70
8
  9
$HANDSEED
  5
116
  9
$SURFTAB1
 70
6
  9
$SURFTAB2
 70
6
  9
$SURFTYPE
 70
6
  9
$SURFU
 70
6
  9
$SURFV
 70
6
  9
$UCSBASE
  2

  9
$UCSNAME
  2

  9
$UCSORG
 10
0.0
 20
0.0
 30
0.0
  9
$UCSXDIR
 10
1.0
 20
0.0
 30
0.0
  9
$UCSYDIR
 10
0.0
 20
1.0
 30
0.0
  9
$UCSORTHOREF
  2

  9
$UCSORTHOVIEW
 70
0
  9
$UCSORGTOP
 10
0.0
 20
0.0
 30
0.0
  9
$UCSORGBOTTOM
 10
0.0
 20
0.0
 30
0.0
  9
$UCSORGLEFT
 10
0.0
 20
0.0
 30
0.0
  9
$UCSORGRIGHT
 10
0.0
 20
0.0
 30
0.0
  9
$UCSORGFRONT
 10
0.0
 20
0.0
 30
0.0
  9
$UCSORGBACK
 10
0.0
 20
0.0
 30
0.0
  9
$PUCSBASE
  2

  9
$PUCSNAME
  2

  9
$PUCSORG
 10
0.0
 20
0.0
 30
0.0
  9
$PUCSXDIR
 10
1.0
 20
0.0
 30
0.0
  9
$PUCSYDIR
 10
0.0
 20
1.0
 30
0.0
  9
$PUCSORTHOREF
  2

  9
$PUCSORTHOVIEW
 70
0
  9
$PUCSORGTOP
 10
0.0
 20
0.0
 30
0.0
  9
$PUCSORGBOTTOM
 10
0.0
 20
0.0
 30
0.0
  9
$PUCSORGLEFT
 10
0.0
 20
0.0
 30
0.0
  9
$PUCSORGRIGHT
 10
0.0
 20
0.0
 30
0.0
  9
$PUCSORGFRONT
 10
0.0
 20
0.0
 30
0.0
  9
$PUCSORGBACK
 10
0.0
 20
0.0
 30
0.0
  9
$USERI1
 70
0
  9
$USERI2
 70
0
  9
$USERI3
 70
0
  9
$USERI4
 70
0
  9
$USERI5
 70
0
  9
$USERR1
 40
0.0
  9
$USERR2
 40
0.0
  9
$USERR3
 40
0.0
  9
$USERR4
 40
0.0
  9
$USERR5
 40
0.0
  9
$WORLDVIEW
 70
1
  9
$SHADEDGE
 70
3
  9
$SHADEDIF
 70
70
  9
$TILEMODE
 70
1
  9
$MAXACTVP
 70
64
  9
$PINSBASE
 10
0.0
 20
0.0
 30
0.0
  9
$PLIMCHECK
 70
0
  9
$PEXTMIN
 10
1e+20
 20
1e+20
 30
1e+20
  9
$PEXTMAX
 10
-1e+20
 20
-1e+20
 30
-1e+20
  9
$PLIMMIN
 10
0.0
 20
0.0
  9
$PLIMMAX
 10
420.0
 20
297.0
  9
$UNITMODE
 70
0
  9
$VISRETAIN
 70
1
  9
$PLINEGEN
 70
0
  9
$PSLTSCALE
 70
1
  9
$TREEDEPTH
 70
3020
  9
$CMLSTYLE
  2
Standard
  9
$CMLJUST
 70
0
  9
$CMLSCALE
 40
20.0
  9
$PROXYGRAPHICS
 70
1
  9
$MEASUREMENT
 70
1
  9
$CELWEIGHT
370
-1
  9
$ENDCAPS
280
0
  9
$JOINSTYLE
280
0
  9
$LWDISPLAY
290
0
  9
$INSUNITS
 70
6
  9
$HYPERLINKBASE
  1

  9
$STYLESHEET
  1

  9
$XEDIT
290
1
  9
$CEPSNTYPE
380
0
  9
$PSTYLEMODE
290
1
  9
$FINGERPRINTGUID
  2
{E85DC094-AF0E-4D53-B961-685D7CCCEA2B}
  9
$VERSIONGUID
  2
{AD17A518-1037-4E39-8E27-194DBCEE1A0B}
  9
$EXTNAMES
290
1
  9
$PSVPSCALE
 40
0.0
  9
$OLESTARTUP
290
0
  9
$SORTENTS
280
127
  9
$INDEXCTL
280
0
  9
$HIDETEXT
280
1
  9
$XCLIPFRAME
280
1
  9
$HALOGAP
280
0
  9
$OBSCOLOR
 70
257
  9
$OBSLTYPE
280
0
  9
$INTERSECTIONDISPLAY
280
0
  9
$INTERSECTIONCOLOR
 70
257
  9
$DIMASSOC
280
2
  9
$PROJECTNAME
  1

  9
$CAMERADISPLAY
290
0
  9
$LENSLENGTH
 40
50.0
  9
$CAMERAHEIGHT
 40
0.0
  9
$STEPSPERSEC
 40
24.0
  9
$STEPSIZE
 40
100.0
  9
$3DDWFPREC
 40
2.0
  9
$PSOLWIDTH
 40
0.005
  9
$PSOLHEIGHT
 40
0.08
  9
$LOFTANG1
 40
1.570796326795
  9
$LOFTANG2
 40
1.570796326795
  9
$LOFTMAG1
 40
0.0
  9
$LOFTMAG2
 40
0.0
  9
$LOFTPARAM
 70
7
  9
$LOFTNORMALS
280
1
  9
$LATITUDE
 40
37.795
  9
$LONGITUDE
 40
-122.394
  9
$NORTHDIRECTION
 40
0.0
  9
$TIMEZONE
 70
-8000
  9
$LIGHTGLYPHDISPLAY
280
1
  9
$TILEMODELIGHTSYNCH
280
1
  9
$CMATERIAL
347
20
  9
$SOLIDHIST
280
0
  9
$SHOWHIST
280
1
  9
$DWFFRAME
280
2
  9
$DGNFRAME
280
2
  9
$REALWORLDSCALE
290
1
  9
$INTERFERECOLOR
 62
256
  9
$CSHADOW
280
0
  9
$SHADOWPLANELOCATION
 40
0.0
  0
ENDSEC
  0
SECTION
  2
CLASSES
  0
CLASS
  1
ACDBDICTIONARYWDFLT
  2
AcDbDictionaryWithDefault
  3
ObjectDBX Classes
 90
0
 91
0
280
0
281
0
  0
CLASS
  1
SUN
  2
AcDbSun
  3
SCENEOE
 90
1153
 91
0
280
0
281
0
  0
CLASS
  1
VISUALSTYLE
  2
AcDbVisualStyle
  3
ObjectDBX Classes
 90
4095
 91
0
280
0
281
0
  0
CLASS
  1
MATERIAL
  2
AcDbMaterial
  3
ObjectDBX Classes
 90
1153
 91
0
280
0
281
0
  0
CLASS
  1
SCALE
  2
AcDbScale
  3
ObjectDBX Classes
 90
1153
 91
0
280
0
281
0
  0
CLASS
  1
TABLESTYLE
  2
AcDbTableStyle
  3
ObjectDBX Classes
 90
4095
 91
0
280
0
281
0
  0
CLASS
  1
MLEADERSTYLE
  2
AcDbMLeaderStyle
  3
ACDB_MLEADERSTYLE_CLASS
 90
4095
 91
0
280
0
281
0
  0
CLASS
  1
DICTIONARYVAR
  2
AcDbDictionaryVar
  3
ObjectDBX Classes
 90
0
 91
0
280
0
281
0
  0
CLASS
  1
CELLSTYLEMAP
  2
AcDbCellStyleMap
  3
ObjectDBX Classes
 90
1152
 91
0
280
0
281
0
  0
CLASS
  1
MENTALRAYRENDERSETTINGS
  2
AcDbMentalRayRenderSettings
  3
SCENEOE
 90
1024
 91
0
280
0
281
0
  0
CLASS
  1
ACDBDETAILVIEWSTYLE
  2
AcDbDetailViewStyle
  3
ObjectDBX Classes
 90
1025
 91
0
280
0
281
0
  0
CLASS
  1
ACDBSECTIONVIEWSTYLE
  2
AcDbSectionViewStyle
  3
ObjectDBX Classes
 90
1025
 91
0
280
0
281
0
  0
CLASS
  1
RASTERVARIABLES
  2
AcDbRasterVariables
  3
ISM
 90
0
 91
0
280
0
281
0
  0
CLASS
  1
ACDBPLACEHOLDER
  2
AcDbPlaceHolder
  3
ObjectDBX Classes
 90
0
 91
0
280
0
281
0
  0
CLASS
  1
LAYOUT
  2
AcDbLayout
  3
ObjectDBX Classes
 90
0
 91
0
280
0
281
0
  0
ENDSEC
  0
SECTION
  2
TABLES
  0
TABLE
  2
VPORT
  5
8
330
0
100
AcDbSymbolTable
 70
1
  0
VPORT
  5
23
330
8
100
AcDbSymbolTableRecord
100
AcDbViewportTableRecord
  2
*Active
 70
0
 10
0.0
 20
0.0
 11
1.0
 21
1.0
 12
0.0
 22
0.0
 13
0.0
 23
0.0
 14
0.5
 24
0.5
 15
0.5
 25
0.5
 16
0.0
 26
0.0
 36
1.0
 17
0.0
 27
0.0
 37
0.0
 40
1000.0
 41
1.34
 42
50.0
 43
0.0
 44
0.0
 50
0.0
 51
0.0
 71
0
 72
1000
 73
1
 74
3
 75
0
 76
0
 77
0
 78
0
281
0
 65
0
146
0.0
  0
ENDTAB
  0
TABLE
  2
LTYPE
  5
2
330
0
100
AcDbSymbolTable
 70
3
  0
LTYPE
  5
24
330
2
100
AcDbSymbolTableRecord
100
AcDbLinetypeTableRecord
  2
ByBlock
 70
0
  3

 72
65
 73
0
 40
0.0
  0
LTYPE
  5
25
330
2
100
AcDbSymbolTableRecord
100
AcDbLinetypeTableRecord
  2
ByLayer
 70
0
  3

 72
65
 73
0
 40
0.0
  0
LTYPE
  5
26
330
2
100
AcDbSymbolTableRecord
100
AcDbLinetypeTableRecord
  2
Continuous
 70
0
  3

 72
65
 73
0
 40
0.0
  0
ENDTAB
  0
TABLE
  2
LAYER
  5
1
330
0
100
AcDbSymbolTable
 70
9
  0
LAYER
  5
27
330
1
100
AcDbSymbolTableRecord
100
AcDbLayerTableRecord
  2
0
 70
0
 62
7
  6
Continuous
370
-3
390
13
347
21
  0
LAYER
  5
28
330
1
100
AcDbSymbolTableRecord
100
AcDbLayerTableRecord
  2
Defpoints
 70
0
 62
7
  6
Continuous
290
0
370
-3
390
13
347
21
  0
LAYER
  5
2F
330
1
100
AcDbSymbolTableRecord
100
AcDbLayerTableRecord
  2
4
 70
0
 62
7
  6
Continuous
370
-3
390
13
347
21
  0
LAYER
  5
30
330
1
100
AcDbSymbolTableRecord
100
AcDbLayerTableRecord
  2
7
 70
0
 62
7
  6
Continuous
370
-3
390
13
347
21
  0
LAYER
  5
31
330
1
100
AcDbSymbolTableRecord
100
AcDbLayerTableRecord
  2
3
 70
0
 62
7
  6
Continuous
370
-3
390
13
347
21
  0
LAYER
  5
32
330
1
100
AcDbSymbolTableRecord
100
AcDbLayerTableRecord
  2
Painéis
 70
0
 62
7
  6
Continuous
370
-3
390
13
347
21
  0
LAYER
  5
33
330
1
100
AcDbSymbolTableRecord
100
AcDbLayerTableRecord
  2
REAPROVEITAMENTO
 70
0
 62
7
  6
Continuous
370
-3
390
13
347
21
  0
LAYER
  5
34
330
1
100
AcDbSymbolTableRecord
100
AcDbLayerTableRecord
  2
AUX00
 70
0
 62
7
  6
Continuous
370
-3
390
13
347
21
  0
LAYER
  5
35
330
1
100
AcDbSymbolTableRecord
100
AcDbLayerTableRecord
  2
Hachura
 70
0
 62
7
  6
Continuous
370
-3
390
13
347
21
  0
ENDTAB
  0
TABLE
  2
STYLE
  5
5
330
0
100
AcDbSymbolTable
 70
1
  0
STYLE
  5
29
330
5
100
AcDbSymbolTableRecord
100
AcDbTextStyleTableRecord
  2
Standard
 70
0
 40
0.0
 41
1.0
 50
0.0
 71
0
 42
2.5
  3
txt
  4

  0
ENDTAB
  0
TABLE
  2
VIEW
  5
7
330
0
100
AcDbSymbolTable
 70
0
  0
ENDTAB
  0
TABLE
  2
UCS
  5
6
330
0
100
AcDbSymbolTable
 70
0
  0
ENDTAB
  0
TABLE
  2
APPID
  5
3
330
0
100
AcDbSymbolTable
 70
3
  0
APPID
  5
2A
330
3
100
AcDbSymbolTableRecord
100
AcDbRegAppTableRecord
  2
ACAD
 70
0
  0
APPID
  5
113
330
3
100
AcDbSymbolTableRecord
100
AcDbRegAppTableRecord
  2
HATCHBACKGROUNDCOLOR
 70
0
  0
APPID
  5
114
330
3
100
AcDbSymbolTableRecord
100
AcDbRegAppTableRecord
  2
EZDXF
 70
0
  0
ENDTAB
  0
TABLE
  2
DIMSTYLE
  5
4
330
0
100
AcDbSymbolTable
 70
1
100
AcDbDimStyleTable
  0
DIMSTYLE
105
2B
330
4
100
AcDbSymbolTableRecord
100
AcDbDimStyleTableRecord
  2
Standard
 70
0
 40
1.0
 41
2.5
 42
0.625
 43
3.75
 44
1.25
 45
0.0
 46
0.0
 47
0.0
 48
0.0
 49
2.5
140
2.5
141
2.5
142
0.0
143
0.03937007874
144
1.0
145
0.0
146
1.0
147
0.625
148
0.0
 69
0
 70
0
 71
0
 72
0
 73
0
 74
0
 75
0
 76
0
 77
1
 78
8
 79
3
170
0
171
3
172
1
173
0
174
0
175
0
176
0
177
0
178
0
179
2
271
2
272
2
273
2
274
3
275
0
276
0
277
2
278
44
279
0
280
0
281
0
282
0
283
0
284
8
285
0
286
0
288
0
289
3
290
0
371
-2
372
-2
  0
ENDTAB
  0
TABLE
  2
BLOCK_RECORD
  5
9
330
0
100
AcDbSymbolTable
 70
2
  0
BLOCK_RECORD
  5
17
330
9
100
AcDbSymbolTableRecord
100
AcDbBlockTableRecord
  2
*Model_Space
340
1A
 70
0
280
1
281
0
  0
BLOCK_RECORD
  5
1B
330
9
100
AcDbSymbolTableRecord
100
AcDbBlockTableRecord
  2
*Paper_Space
340
1E
 70
0
280
1
281
0
  0
ENDTAB
  0
ENDSEC
  0
SECTION
  2
BLOCKS
  0
BLOCK
  5
18
330
17
100
AcDbEntity
  8
0
100
AcDbBlockBegin
  2
*Model_Space
 70
0
 10
0.0
 20
0.0
 30
0.0
  3
*Model_Space
  1

  0
ENDBLK
  5
19
330
17
100
AcDbEntity
  8
0
100
AcDbBlockEnd
  0
BLOCK
  5
1C
330
1B
100
AcDbEntity
  8
0
100
AcDbBlockBegin
  2
*Paper_Space
 70
0
 10
0.0
 20
0.0
 30
0.0
  3
*Paper_Space
  1

  0
ENDBLK
  5
1D
330
1B
100
AcDbEntity
  8
0
100
AcDbBlockEnd
  0
ENDSEC
  0
SECTION
  2
ENTITIES
  0
LINE
  5
36
330
17
100
AcDbEntity
  8
Painéis
 62
200
370
25
100
AcDbLine
 10
5052.470741980814
 20
2184.120987708348
 30
0.0
 11
5052.470741980814
 21
2031.194230708348
 31
0.0
  0
LINE
  5
37
330
17
100
AcDbEntity
  8
Painéis
 62
200
370
25
100
AcDbLine
 10
5052.470741980814
 20
2072.620987708347
 30
0.0
 11
5778.470741980814
 21
2072.620987708347
 31
0.0
  0
LINE
  5
38
330
17
100
AcDbEntity
  8
Painéis
 62
200
370
25
100
AcDbLine
 10
5296.470741980813
 20
2184.120987708348
 30
0.0
 11
5296.470741980813
 21
1983.120987708347
 31
0.0
  0
LINE
  5
39
330
17
100
AcDbEntity
  8
Painéis
 62
200
370
25
100
AcDbLine
 10
5454.470741980814
 20
2184.120987708348
 30
0.0
 11
5454.470741980814
 21
1983.120987708347
 31
0.0
  0
LINE
  5
3A
330
17
100
AcDbEntity
  8
Painéis
 62
200
370
25
100
AcDbLine
 10
5612.470741980814
 20
2184.120987708348
 30
0.0
 11
5612.470741980814
 21
1983.120987708347
 31
0.0
  0
LINE
  5
3B
330
17
100
AcDbEntity
  8
3
 62
3
370
25
100
AcDbLine
 10
5048.111294980814
 20
2302.120987708347
 30
0.0
 11
5052.470741980814
 21
2306.48043470835
 31
0.0
  0
LINE
  5
3C
330
17
100
AcDbEntity
  8
3
 62
3
370
25
100
AcDbLine
 10
5036.090479980813
 20
2302.120987708347
 30
0.0
 11
5052.470741980814
 21
2318.50124970835
 31
0.0
  0
LINE
  5
3D
330
17
100
AcDbEntity
  8
3
 62
3
370
25
100
AcDbLine
 10
5033.470741980814
 20
2311.52206470835
 30
0.0
 11
5052.470741980814
 21
2330.52206470835
 31
0.0
  0
LINE
  5
3E
330
17
100
AcDbEntity
  8
3
 62
3
370
25
100
AcDbLine
 10
5033.470741980814
 20
2323.54288070835
 30
0.0
 11
5052.470741980814
 21
2342.54288070835
 31
0.0
  0
LINE
  5
3F
330
17
100
AcDbEntity
  8
3
 62
3
370
25
100
AcDbLine
 10
5033.470741980814
 20
2335.56369570835
 30
0.0
 11
5052.470741980814
 21
2354.56369570835
 31
0.0
  0
LINE
  5
40
330
17
100
AcDbEntity
  8
3
 62
3
370
25
100
AcDbLine
 10
5033.470741980814
 20
2347.58451070835
 30
0.0
 11
5052.470741980814
 21
2366.584510708349
 31
0.0
  0
LINE
  5
41
330
17
100
AcDbEntity
  8
3
 62
3
370
25
100
AcDbLine
 10
5033.470741980814
 20
2359.60532670835
 30
0.0
 11
5052.470741980814
 21
2378.60532670835
 31
0.0
  0
LINE
  5
42
330
17
100
AcDbEntity
  8
3
 62
3
370
25
100
AcDbLine
 10
5033.470741980814
 20
2371.62614170835
 30
0.0
 11
5052.470741980814
 21
2390.62614170835
 31
0.0
  0
LINE
  5
43
330
17
100
AcDbEntity
  8
3
 62
3
370
25
100
AcDbLine
 10
5033.470741980814
 20
2383.64695670835
 30
0.0
 11
5051.944772980814
 21
2402.120987708348
 31
0.0
  0
LINE
  5
44
330
17
100
AcDbEntity
  8
3
 62
3
370
25
100
AcDbLine
 10
5033.470741980814
 20
2395.66777170835
 30
0.0
 11
5039.923957980814
 21
2402.120987708348
 31
0.0
  0
LINE
  5
45
330
17
100
AcDbEntity
  8
3
 62
3
370
25
100
AcDbLine
 10
5048.799065980814
 20
2483.120987708347
 30
0.0
 11
5052.470741980814
 21
2486.792663708349
 31
0.0
  0
LINE
  5
46
330
17
100
AcDbEntity
  8
3
 62
3
370
25
100
AcDbLine
 10
5036.778250980813
 20
2483.120987708347
 30
0.0
 11
5052.470741980814
 21
2498.81347870835
 31
0.0
  0
LINE
  5
47
330
17
100
AcDbEntity
  8
3
 62
3
370
25
100
AcDbLine
 10
5033.470741980814
 20
2491.834294708349
 30
0.0
 11
5052.470741980814
 21
2510.834294708349
 31
0.0
  0
LINE
  5
48
330
17
100
AcDbEntity
  8
3
 62
3
370
25
100
AcDbLine
 10
5531.152058980813
 20
2184.120987708348
 30
0.0
 11
5539.970741980813
 21
2192.939670708349
 31
0.0
  0
LINE
  5
49
330
17
100
AcDbEntity
  8
3
 62
3
370
25
100
AcDbLine
 10
5519.131243980814
 20
2184.120987708348
 30
0.0
 11
5538.131243980814
 21
2203.120987708348
 31
0.0
  0
LINE
  5
4A
330
17
100
AcDbEntity
  8
3
 62
3
370
25
100
AcDbLine
 10
5507.110428980814
 20
2184.120987708348
 30
0.0
 11
5526.110428980814
 21
2203.120987708348
 31
0.0
  0
LINE
  5
4B
330
17
100
AcDbEntity
  8
3
 62
3
370
25
100
AcDbLine
 10
5495.089612980813
 20
2184.120987708348
 30
0.0
 11
5514.089612980813
 21
2203.120987708348
 31
0.0
  0
LINE
  5
4C
330
17
100
AcDbEntity
  8
3
 62
3
370
25
100
AcDbLine
 10
5483.068797980814
 20
2184.120987708348
 30
0.0
 11
5502.068797980814
 21
2203.120987708348
 31
0.0
  0
LINE
  5
4D
330
17
100
AcDbEntity
  8
3
 62
3
370
25
100
AcDbLine
 10
5471.047982980813
 20
2184.120987708348
 30
0.0
 11
5490.047982980814
 21
2203.120987708348
 31
0.0
  0
LINE
  5
4E
330
17
100
AcDbEntity
  8
3
 62
3
370
25
100
AcDbLine
 10
5459.027166980813
 20
2184.120987708348
 30
0.0
 11
5478.027166980814
 21
2203.120987708348
 31
0.0
  0
LINE
  5
4F
330
17
100
AcDbEntity
  8
3
 62
3
370
25
100
AcDbLine
 10
5447.006351980814
 20
2184.120987708348
 30
0.0
 11
5466.006351980814
 21
2203.120987708348
 31
0.0
  0
LINE
  5
50
330
17
100
AcDbEntity
  8
3
 62
3
370
25
100
AcDbLine
 10
5434.985536980814
 20
2184.120987708348
 30
0.0
 11
5453.985536980813
 21
2203.120987708348
 31
0.0
  0
LINE
  5
51
330
17
100
AcDbEntity
  8
3
 62
3
370
25
100
AcDbLine
 10
5422.964721980815
 20
2184.120987708348
 30
0.0
 11
5441.964721980814
 21
2203.120987708348
 31
0.0
  0
LINE
  5
52
330
17
100
AcDbEntity
  8
3
 62
3
370
25
100
AcDbLine
 10
5419.970741980813
 20
2193.147823708349
 30
0.0
 11
5429.943905980813
 21
2203.120987708348
 31
0.0
  0
LINE
  5
53
330
17
100
AcDbEntity
  8
3
 62
3
370
25
100
AcDbLine
 10
5409.087500980813
 20
2411.962469708348
 30
0.0
 11
5409.087500980813
 21
2386.962469708347
 31
0.0
  0
LINE
  5
54
330
17
100
AcDbEntity
  8
3
 62
3
370
25
100
AcDbLine
 10
5396.587500980814
 20
2399.462469708347
 30
0.0
 11
5421.587500980813
 21
2399.462469708347
 31
0.0
  0
LINE
  5
55
330
17
100
AcDbEntity
  8
3
 62
3
370
25
100
AcDbLine
 10
5409.087500980813
 20
2411.35512270835
 30
0.0
 11
5412.936625980814
 21
2411.35512270835
 31
0.0
  0
LINE
  5
56
330
17
100
AcDbEntity
  8
3
 62
3
370
25
100
AcDbLine
 10
5409.087500980813
 20
2410.562273708349
 30
0.0
 11
5414.835963980813
 21
2410.562273708349
 31
0.0
  0
LINE
  5
57
330
17
100
AcDbEntity
  8
3
 62
3
370
25
100
AcDbLine
 10
5409.087500980813
 20
2409.769424708347
 30
0.0
 11
5416.159758980814
 21
2409.769424708347
 31
0.0
  0
LINE
  5
58
330
17
100
AcDbEntity
  8
3
 62
3
370
25
100
AcDbLine
 10
5409.087500980813
 20
2408.976563708349
 30
0.0
 11
5417.195019980813
 21
2408.976563708349
 31
0.0
  0
LINE
  5
59
330
17
100
AcDbEntity
  8
3
 62
3
370
25
100
AcDbLine
 10
5409.087500980813
 20
2408.18377370835
 30
0.0
 11
5418.042359980813
 21
2408.18377370835
 31
0.0
  0
LINE
  5
5A
330
17
100
AcDbEntity
  8
3
 62
3
370
25
100
AcDbLine
 10
5409.087500980813
 20
2407.390924708348
 30
0.0
 11
5418.751368980814
 21
2407.390924708348
 31
0.0
  0
LINE
  5
5B
330
17
100
AcDbEntity
  8
3
 62
3
370
25
100
AcDbLine
 10
5409.087500980813
 20
2406.59806370835
 30
0.0
 11
5419.350705980813
 21
2406.59806370835
 31
0.0
  0
LINE
  5
5C
330
17
100
AcDbEntity
  8
3
 62
3
370
25
100
AcDbLine
 10
5409.087500980813
 20
2405.805214708349
 30
0.0
 11
5419.858727980813
 21
2405.805214708349
 31
0.0
  0
LINE
  5
5D
330
17
100
AcDbEntity
  8
3
 62
3
370
25
100
AcDbLine
 10
5409.087500980813
 20
2405.012365708348
 30
0.0
 11
5420.287881980814
 21
2405.012365708348
 31
0.0
  0
LINE
  5
5E
330
17
100
AcDbEntity
  8
3
 62
3
370
25
100
AcDbLine
 10
5409.087500980813
 20
2404.21951670835
 30
0.0
 11
5420.646939980814
 21
2404.21951670835
 31
0.0
  0
LINE
  5
5F
330
17
100
AcDbEntity
  8
3
 62
3
370
25
100
AcDbLine
 10
5409.087500980813
 20
2403.426667708349
 30
0.0
 11
5420.942244980814
 21
2403.426667708349
 31
0.0
  0
LINE
  5
60
330
17
100
AcDbEntity
  8
3
 62
3
370
25
100
AcDbLine
 10
5409.087500980813
 20
2402.633865708349
 30
0.0
 11
5421.178517980814
 21
2402.633865708349
 31
0.0
  0
LINE
  5
61
330
17
100
AcDbEntity
  8
3
 62
3
370
25
100
AcDbLine
 10
5409.087500980813
 20
2401.841016708348
 30
0.0
 11
5421.359095980814
 21
2401.841016708348
 31
0.0
  0
LINE
  5
62
330
17
100
AcDbEntity
  8
3
 62
3
370
25
100
AcDbLine
 10
5409.087500980813
 20
2401.04816770835
 30
0.0
 11
5421.486506980814
 21
2401.04816770835
 31
0.0
  0
LINE
  5
63
330
17
100
AcDbEntity
  8
3
 62
3
370
25
100
AcDbLine
 10
5409.087500980813
 20
2400.255318708349
 30
0.0
 11
5421.587500980813
 21
2400.255318708349
 31
0.0
  0
LINE
  5
64
330
17
100
AcDbEntity
  8
3
 62
3
370
25
100
AcDbLine
 10
5409.087453980814
 20
2387.56986470835
 30
0.0
 11
5405.238375980814
 21
2387.56986470835
 31
0.0
  0
LINE
  5
65
330
17
100
AcDbEntity
  8
3
 62
3
370
25
100
AcDbLine
 10
5409.087453980814
 20
2388.362713708348
 30
0.0
 11
5403.338990980813
 21
2388.362713708348
 31
0.0
  0
LINE
  5
66
330
17
100
AcDbEntity
  8
3
 62
3
370
25
100
AcDbLine
 10
5409.087453980814
 20
2389.155563708349
 30
0.0
 11
5402.015195980814
 21
2389.155563708349
 31
0.0
  0
LINE
  5
67
330
17
100
AcDbEntity
  8
3
 62
3
370
25
100
AcDbLine
 10
5409.087453980814
 20
2389.948364708349
 30
0.0
 11
5400.979933980813
 21
2389.948364708349
 31
0.0
  0
LINE
  5
68
330
17
100
AcDbEntity
  8
3
 62
3
370
25
100
AcDbLine
 10
5409.087453980814
 20
2390.741273708349
 30
0.0
 11
5400.132594980814
 21
2390.741273708349
 31
0.0
  0
LINE
  5
69
330
17
100
AcDbEntity
  8
3
 62
3
370
25
100
AcDbLine
 10
5409.087453980814
 20
2391.534074708348
 30
0.0
 11
5399.423632980814
 21
2391.534074708348
 31
0.0
  0
LINE
  5
6A
330
17
100
AcDbEntity
  8
3
 62
3
370
25
100
AcDbLine
 10
5409.087453980814
 20
2392.326923708349
 30
0.0
 11
5398.824248980814
 21
2392.326923708349
 31
0.0
  0
LINE
  5
6B
330
17
100
AcDbEntity
  8
3
 62
3
370
25
100
AcDbLine
 10
5409.087453980814
 20
2393.119772708347
 30
0.0
 11
5398.316226980814
 21
2393.119772708347
 31
0.0
  0
LINE
  5
6C
330
17
100
AcDbEntity
  8
3
 62
3
370
25
100
AcDbLine
 10
5409.087453980814
 20
2393.912621708349
 30
0.0
 11
5397.887072980814
 21
2393.912621708349
 31
0.0
  0
LINE
  5
6D
330
17
100
AcDbEntity
  8
3
 62
3
370
25
100
AcDbLine
 10
5409.087453980814
 20
2394.705423708348
 30
0.0
 11
5397.528014980814
 21
2394.705423708348
 31
0.0
  0
LINE
  5
6E
330
17
100
AcDbEntity
  8
3
 62
3
370
25
100
AcDbLine
 10
5409.087453980814
 20
2395.498319708348
 30
0.0
 11
5397.232709980813
 21
2395.498319708348
 31
0.0
  0
LINE
  5
6F
330
17
100
AcDbEntity
  8
3
 62
3
370
25
100
AcDbLine
 10
5409.087453980814
 20
2396.291121708348
 30
0.0
 11
5396.996436980813
 21
2396.291121708348
 31
0.0
  0
LINE
  5
70
330
17
100
AcDbEntity
  8
3
 62
3
370
25
100
AcDbLine
 10
5409.087453980814
 20
2397.083970708349
 30
0.0
 11
5396.815810980814
 21
2397.083970708349
 31
0.0
  0
LINE
  5
71
330
17
100
AcDbEntity
  8
3
 62
3
370
25
100
AcDbLine
 10
5409.087453980814
 20
2397.87681970835
 30
0.0
 11
5396.688447980813
 21
2397.87681970835
 31
0.0
  0
LINE
  5
72
330
17
100
AcDbEntity
  8
3
 62
3
370
25
100
AcDbLine
 10
5409.087453980814
 20
2398.669668708348
 30
0.0
 11
5396.587453980814
 21
2398.669668708348
 31
0.0
  0
LINE
  5
73
330
17
100
AcDbEntity
  8
3
 62
3
370
25
100
AcDbLine
 10
5421.587500980813
 20
2399.462469708347
 30
0.0
 11
5493.010249980813
 21
2399.462469708347
 31
0.0
  0
LINE
  5
74
330
17
100
AcDbEntity
  8
3
 62
3
370
25
100
AcDbLine
 10
5396.587500980814
 20
2399.462469708347
 30
0.0
 11
5388.160796980813
 21
2399.462469708347
 31
0.0
  0
LINE
  5
75
330
17
100
AcDbEntity
  8
3
 62
3
370
25
100
AcDbLine
 10
5409.087500980813
 20
2411.962469708348
 30
0.0
 11
5409.087500980813
 21
2417.467213708349
 31
0.0
  0
LINE
  5
76
330
17
100
AcDbEntity
  8
3
 62
3
370
25
100
AcDbLine
 10
5409.087500980813
 20
2386.962469708347
 30
0.0
 11
5409.087500980813
 21
2380.09393770835
 31
0.0
  0
LINE
  5
77
330
17
100
AcDbEntity
  8
3
 62
3
370
25
100
AcDbLine
 10
5475.067536980813
 20
2069.311003708348
 30
0.0
 11
5475.067536980813
 21
2044.311003708348
 31
0.0
  0
LINE
  5
78
330
17
100
AcDbEntity
  8
3
 62
3
370
25
100
AcDbLine
 10
5462.567536980813
 20
2056.811003708348
 30
0.0
 11
5487.567536980813
 21
2056.811003708348
 31
0.0
  0
LINE
  5
79
330
17
100
AcDbEntity
  8
3
 62
3
370
25
100
AcDbLine
 10
5475.067536980813
 20
2068.70365670835
 30
0.0
 11
5478.916661980814
 21
2068.70365670835
 31
0.0
  0
LINE
  5
7A
330
17
100
AcDbEntity
  8
3
 62
3
370
25
100
AcDbLine
 10
5475.067536980813
 20
2067.910807708349
 30
0.0
 11
5480.815999980814
 21
2067.910807708349
 31
0.0
  0
LINE
  5
7B
330
17
100
AcDbEntity
  8
3
 62
3
370
25
100
AcDbLine
 10
5475.067536980813
 20
2067.117958708348
 30
0.0
 11
5482.139794980813
 21
2067.117958708348
 31
0.0
  0
LINE
  5
7C
330
17
100
AcDbEntity
  8
3
 62
3
370
25
100
AcDbLine
 10
5475.067536980813
 20
2066.32509770835
 30
0.0
 11
5483.175055980813
 21
2066.32509770835
 31
0.0
  0
LINE
  5
7D
330
17
100
AcDbEntity
  8
3
 62
3
370
25
100
AcDbLine
 10
5475.067536980813
 20
2065.532307708346
 30
0.0
 11
5484.022395980813
 21
2065.532307708346
 31
0.0
  0
LINE
  5
7E
330
17
100
AcDbEntity
  8
3
 62
3
370
25
100
AcDbLine
 10
5475.067536980813
 20
2064.739458708349
 30
0.0
 11
5484.731404980814
 21
2064.739458708349
 31
0.0
  0
LINE
  5
7F
330
17
100
AcDbEntity
  8
3
 62
3
370
25
100
AcDbLine
 10
5475.067536980813
 20
2063.946597708348
 30
0.0
 11
5485.330741980813
 21
2063.946597708348
 31
0.0
  0
LINE
  5
80
330
17
100
AcDbEntity
  8
3
 62
3
370
25
100
AcDbLine
 10
5475.067536980813
 20
2063.15374870835
 30
0.0
 11
5485.838763980813
 21
2063.15374870835
 31
0.0
  0
LINE
  5
81
330
17
100
AcDbEntity
  8
3
 62
3
370
25
100
AcDbLine
 10
5475.067536980813
 20
2062.360899708348
 30
0.0
 11
5486.267916980813
 21
2062.360899708348
 31
0.0
  0
LINE
  5
82
330
17
100
AcDbEntity
  8
3
 62
3
370
25
100
AcDbLine
 10
5475.067536980813
 20
2061.568050708347
 30
0.0
 11
5486.626975980814
 21
2061.568050708347
 31
0.0
  0
LINE
  5
83
330
17
100
AcDbEntity
  8
3
 62
3
370
25
100
AcDbLine
 10
5475.067536980813
 20
2060.77520170835
 30
0.0
 11
5486.922280980813
 21
2060.77520170835
 31
0.0
  0
LINE
  5
84
330
17
100
AcDbEntity
  8
3
 62
3
370
25
100
AcDbLine
 10
5475.067536980813
 20
2059.98240070835
 30
0.0
 11
5487.158553980814
 21
2059.98240070835
 31
0.0
  0
LINE
  5
85
330
17
100
AcDbEntity
  8
3
 62
3
370
25
100
AcDbLine
 10
5475.067536980813
 20
2059.189551708349
 30
0.0
 11
5487.339131980814
 21
2059.189551708349
 31
0.0
  0
LINE
  5
86
330
17
100
AcDbEntity
  8
3
 62
3
370
25
100
AcDbLine
 10
5475.067536980813
 20
2058.396702708347
 30
0.0
 11
5487.466542980814
 21
2058.396702708347
 31
0.0
  0
LINE
  5
87
330
17
100
AcDbEntity
  8
3
 62
3
370
25
100
AcDbLine
 10
5475.067536980813
 20
2057.60385270835
 30
0.0
 11
5487.567536980813
 21
2057.60385270835
 31
0.0
  0
LINE
  5
88
330
17
100
AcDbEntity
  8
3
 62
3
370
25
100
AcDbLine
 10
5475.067488980813
 20
2044.918399708347
 30
0.0
 11
5471.218411980814
 21
2044.918399708347
 31
0.0
  0
LINE
  5
89
330
17
100
AcDbEntity
  8
3
 62
3
370
25
100
AcDbLine
 10
5475.067488980813
 20
2045.711248708349
 30
0.0
 11
5469.319026980814
 21
2045.711248708349
 31
0.0
  0
LINE
  5
8A
330
17
100
AcDbEntity
  8
3
 62
3
370
25
100
AcDbLine
 10
5475.067488980813
 20
2046.50409770835
 30
0.0
 11
5467.995230980813
 21
2046.50409770835
 31
0.0
  0
LINE
  5
8B
330
17
100
AcDbEntity
  8
3
 62
3
370
25
100
AcDbLine
 10
5475.067488980813
 20
2047.29689870835
 30
0.0
 11
5466.959969980813
 21
2047.29689870835
 31
0.0
  0
LINE
  5
8C
330
17
100
AcDbEntity
  8
3
 62
3
370
25
100
AcDbLine
 10
5475.067488980813
 20
2048.08980770835
 30
0.0
 11
5466.112630980813
 21
2048.08980770835
 31
0.0
  0
LINE
  5
8D
330
17
100
AcDbEntity
  8
3
 62
3
370
25
100
AcDbLine
 10
5475.067488980813
 20
2048.882608708349
 30
0.0
 11
5465.403668980814
 21
2048.882608708349
 31
0.0
  0
LINE
  5
8E
330
17
100
AcDbEntity
  8
3
 62
3
370
25
100
AcDbLine
 10
5475.067488980813
 20
2049.67545770835
 30
0.0
 11
5464.804284980814
 21
2049.67545770835
 31
0.0
  0
LINE
  5
8F
330
17
100
AcDbEntity
  8
3
 62
3
370
25
100
AcDbLine
 10
5475.067488980813
 20
2050.468306708348
 30
0.0
 11
5464.296261980813
 21
2050.468306708348
 31
0.0
  0
LINE
  5
90
330
17
100
AcDbEntity
  8
3
 62
3
370
25
100
AcDbLine
 10
5475.067488980813
 20
2051.261155708349
 30
0.0
 11
5463.867108980814
 21
2051.261155708349
 31
0.0
  0
LINE
  5
91
330
17
100
AcDbEntity
  8
3
 62
3
370
25
100
AcDbLine
 10
5475.067488980813
 20
2052.053957708349
 30
0.0
 11
5463.508050980814
 21
2052.053957708349
 31
0.0
  0
LINE
  5
92
330
17
100
AcDbEntity
  8
3
 62
3
370
25
100
AcDbLine
 10
5475.067488980813
 20
2052.846853708348
 30
0.0
 11
5463.212744980814
 21
2052.846853708348
 31
0.0
  0
LINE
  5
93
330
17
100
AcDbEntity
  8
3
 62
3
370
25
100
AcDbLine
 10
5475.067488980813
 20
2053.639655708348
 30
0.0
 11
5462.976472980813
 21
2053.639655708348
 31
0.0
  0
LINE
  5
94
330
17
100
AcDbEntity
  8
3
 62
3
370
25
100
AcDbLine
 10
5475.067488980813
 20
2054.43250470835
 30
0.0
 11
5462.795846980814
 21
2054.43250470835
 31
0.0
  0
LINE
  5
95
330
17
100
AcDbEntity
  8
3
 62
3
370
25
100
AcDbLine
 10
5475.067488980813
 20
2055.225353708347
 30
0.0
 11
5462.668482980814
 21
2055.225353708347
 31
0.0
  0
LINE
  5
96
330
17
100
AcDbEntity
  8
3
 62
3
370
25
100
AcDbLine
 10
5475.067488980813
 20
2056.018202708349
 30
0.0
 11
5462.567488980813
 21
2056.018202708349
 31
0.0
  0
LINE
  5
97
330
17
100
AcDbEntity
  8
3
 62
3
370
25
100
AcDbLine
 10
5487.567536980813
 20
2056.811003708348
 30
0.0
 11
5558.990285980813
 21
2056.811003708348
 31
0.0
  0
LINE
  5
98
330
17
100
AcDbEntity
  8
3
 62
3
370
25
100
AcDbLine
 10
5462.567536980813
 20
2056.811003708348
 30
0.0
 11
5454.140832980813
 21
2056.811003708348
 31
0.0
  0
LINE
  5
99
330
17
100
AcDbEntity
  8
3
 62
3
370
25
100
AcDbLine
 10
5475.067536980813
 20
2069.311003708348
 30
0.0
 11
5475.067536980813
 21
2074.815747708349
 31
0.0
  0
LINE
  5
9A
330
17
100
AcDbEntity
  8
3
 62
3
370
25
100
AcDbLine
 10
5475.067536980813
 20
2044.311003708348
 30
0.0
 11
5475.067536980813
 21
2037.442471708347
 31
0.0
  0
LINE
  5
9B
330
17
100
AcDbEntity
  8
Painéis
 62
200
370
25
100
AcDbLine
 10
4178.470741980813
 20
2392.120987708347
 30
0.0
 11
5033.470741980814
 21
2392.120987708348
 31
0.0
  0
LINE
  5
9C
330
17
100
AcDbEntity
  8
Painéis
 62
200
370
25
100
AcDbLine
 10
4178.470741980813
 20
2372.120987708347
 30
0.0
 11
5033.470741980814
 21
2372.120987708348
 31
0.0
  0
LINE
  5
9D
330
17
100
AcDbEntity
  8
Painéis
 62
200
370
25
100
AcDbLine
 10
4178.470741980813
 20
2325.120987708348
 30
0.0
 11
5033.470741980814
 21
2325.120987708348
 31
0.0
  0
LINE
  5
9E
330
17
100
AcDbEntity
  8
Painéis
 62
200
370
25
100
AcDbLine
 10
5052.470741980814
 20
2392.120987708347
 30
0.0
 11
5778.470741980814
 21
2392.120987708348
 31
0.0
  0
LINE
  5
9F
330
17
100
AcDbEntity
  8
Painéis
 62
200
370
25
100
AcDbLine
 10
5052.470741980814
 20
2372.120987708347
 30
0.0
 11
5778.470741980814
 21
2372.120987708348
 31
0.0
  0
LINE
  5
A0
330
17
100
AcDbEntity
  8
Painéis
 62
200
370
25
100
AcDbLine
 10
5296.470741980813
 20
2203.120987708348
 30
0.0
 11
5296.470741980813
 21
2514.120987708348
 31
0.0
  0
LINE
  5
A1
330
17
100
AcDbEntity
  8
Painéis
 62
200
370
25
100
AcDbLine
 10
5052.470741980814
 20
2325.120987708348
 30
0.0
 11
5778.470741980814
 21
2325.120987708348
 31
0.0
  0
LINE
  5
A2
330
17
100
AcDbEntity
  8
Painéis
 62
200
370
25
100
AcDbLine
 10
5470.470741980814
 20
2203.120987708348
 30
0.0
 11
5470.470741980814
 21
2514.120987708348
 31
0.0
  0
LINE
  5
A3
330
17
100
AcDbEntity
  8
Painéis
 62
200
370
25
100
AcDbLine
 10
5644.470741980814
 20
2203.120987708348
 30
0.0
 11
5644.470741980814
 21
2514.120987708348
 31
0.0
  0
LINE
  5
A4
330
17
100
AcDbEntity
  8
Painéis
 62
4
370
25
100
AcDbLine
 10
4819.470741980814
 20
2107.500021721655
 30
0.0
 11
5052.470741980814
 21
2107.500021721655
 31
0.0
  0
LINE
  5
A5
330
17
100
AcDbEntity
  8
Painéis
 62
0
370
25
100
AcDbLine
 10
5050.970741980814
 20
2106.000021721655
 30
0.0
 11
5053.970741980814
 21
2109.000021721655
 31
0.0
  0
LINE
  5
A6
330
17
100
AcDbEntity
  8
Painéis
 62
4
370
25
100
AcDbLine
 10
5117.033730728544
 20
1983.120987708348
 30
0.0
 11
5117.033730728543
 21
2072.620987708349
 31
0.0
  0
LINE
  5
A7
330
17
100
AcDbEntity
  8
Painéis
 62
0
370
25
100
AcDbLine
 10
5118.533730728543
 20
2071.120987708349
 30
0.0
 11
5115.533730728543
 21
2074.120987708349
 31
0.0
  0
LINE
  5
A8
330
17
100
AcDbEntity
  8
Painéis
 62
4
370
25
100
AcDbLine
 10
5117.033730728547
 20
2072.620987708349
 30
0.0
 11
5117.033730728547
 21
2092.620987708349
 31
0.0
  0
LINE
  5
A9
330
17
100
AcDbEntity
  8
Painéis
 62
0
370
25
100
AcDbLine
 10
5115.533730728547
 20
2074.120987708349
 30
0.0
 11
5118.533730728547
 21
2071.120987708349
 31
0.0
  0
LINE
  5
AA
330
17
100
AcDbEntity
  8
Painéis
 62
0
370
25
100
AcDbLine
 10
5118.533730728547
 20
2091.120987708349
 30
0.0
 11
5115.533730728547
 21
2094.120987708349
 31
0.0
  0
LINE
  5
AB
330
17
100
AcDbEntity
  8
Painéis
 62
4
370
25
100
AcDbLine
 10
5117.03373072856
 20
2092.620987708351
 30
0.0
 11
5117.03373072856
 21
2184.120987708348
 31
0.0
  0
LINE
  5
AC
330
17
100
AcDbEntity
  8
Painéis
 62
0
370
25
100
AcDbLine
 10
5115.53373072856
 20
2094.120987708351
 30
0.0
 11
5118.53373072856
 21
2091.120987708351
 31
0.0
  0
LINE
  5
AD
330
17
100
AcDbEntity
  8
Painéis
 62
0
370
25
100
AcDbLine
 10
5118.53373072856
 20
2182.620987708348
 30
0.0
 11
5115.53373072856
 21
2185.620987708348
 31
0.0
  0
LINE
  5
AE
330
17
100
AcDbEntity
  8
Painéis
 62
4
370
25
100
AcDbLine
 10
5052.470741980814
 20
2107.500021721655
 30
0.0
 11
5296.470741980813
 21
2107.500021721655
 31
0.0
  0
LINE
  5
AF
330
17
100
AcDbEntity
  8
Painéis
 62
0
370
25
100
AcDbLine
 10
5053.970741980814
 20
2109.000021721655
 30
0.0
 11
5050.970741980814
 21
2106.000021721655
 31
0.0
  0
LINE
  5
B0
330
17
100
AcDbEntity
  8
Painéis
 62
0
370
25
100
AcDbLine
 10
5294.970741980813
 20
2106.000021721655
 30
0.0
 11
5297.970741980813
 21
2109.000021721655
 31
0.0
  0
LINE
  5
B1
330
17
100
AcDbEntity
  8
Painéis
 62
4
370
25
100
AcDbLine
 10
5296.470741980813
 20
2107.500021721655
 30
0.0
 11
5454.470741980814
 21
2107.500021721655
 31
0.0
  0
LINE
  5
B2
330
17
100
AcDbEntity
  8
Painéis
 62
0
370
25
100
AcDbLine
 10
5297.970741980813
 20
2109.000021721655
 30
0.0
 11
5294.970741980813
 21
2106.000021721655
 31
0.0
  0
LINE
  5
B3
330
17
100
AcDbEntity
  8
Painéis
 62
0
370
25
100
AcDbLine
 10
5452.970741980814
 20
2106.000021721655
 30
0.0
 11
5455.970741980814
 21
2109.000021721655
 31
0.0
  0
LINE
  5
B4
330
17
100
AcDbEntity
  8
Painéis
 62
4
370
25
100
AcDbLine
 10
5454.470741980814
 20
2107.500021721655
 30
0.0
 11
5612.470741980814
 21
2107.500021721655
 31
0.0
  0
LINE
  5
B5
330
17
100
AcDbEntity
  8
Painéis
 62
0
370
25
100
AcDbLine
 10
5455.970741980814
 20
2109.000021721655
 30
0.0
 11
5452.970741980814
 21
2106.000021721655
 31
0.0
  0
LINE
  5
B6
330
17
100
AcDbEntity
  8
Painéis
 62
0
370
25
100
AcDbLine
 10
5610.970741980814
 20
2106.000021721655
 30
0.0
 11
5613.970741980814
 21
2109.000021721655
 31
0.0
  0
LINE
  5
B7
330
17
100
AcDbEntity
  8
Painéis
 62
4
370
25
100
AcDbLine
 10
5612.470741980814
 20
2107.500021721655
 30
0.0
 11
5778.470741980814
 21
2107.500021721655
 31
0.0
  0
LINE
  5
B8
330
17
100
AcDbEntity
  8
Painéis
 62
0
370
25
100
AcDbLine
 10
5613.970741980814
 20
2109.000021721655
 30
0.0
 11
5610.970741980814
 21
2106.000021721655
 31
0.0
  0
LINE
  5
B9
330
17
100
AcDbEntity
  8
Painéis
 62
4
370
25
100
AcDbLine
 10
4840.470741980814
 20
2295.660850585047
 30
0.0
 11
5033.470741980814
 21
2295.660850585047
 31
0.0
  0
LINE
  5
BA
330
17
100
AcDbEntity
  8
Painéis
 62
4
370
25
100
AcDbLine
 10
5518.434770923479
 20
2514.120987708349
 30
0.0
 11
5518.434770923479
 21
2392.120987708349
 31
0.0
  0
LINE
  5
BB
330
17
100
AcDbEntity
  8
Painéis
 62
0
370
25
100
AcDbLine
 10
5516.934770923479
 20
2393.620987708349
 30
0.0
 11
5519.934770923479
 21
2390.620987708349
 31
0.0
  0
LINE
  5
BC
330
17
100
AcDbEntity
  8
Painéis
 62
4
370
25
100
AcDbLine
 10
5518.434770923483
 20
2392.12098770835
 30
0.0
 11
5518.434770923483
 21
2372.120987708349
 31
0.0
  0
LINE
  5
BD
330
17
100
AcDbEntity
  8
Painéis
 62
0
370
25
100
AcDbLine
 10
5519.934770923483
 20
2390.62098770835
 30
0.0
 11
5516.934770923483
 21
2393.62098770835
 31
0.0
  0
LINE
  5
BE
330
17
100
AcDbEntity
  8
Painéis
 62
0
370
25
100
AcDbLine
 10
5516.934770923483
 20
2373.620987708349
 30
0.0
 11
5519.934770923483
 21
2370.620987708349
 31
0.0
  0
LINE
  5
BF
330
17
100
AcDbEntity
  8
Painéis
 62
4
370
25
100
AcDbLine
 10
5518.434770923483
 20
2372.120987708349
 30
0.0
 11
5518.434770923483
 21
2325.120987708348
 31
0.0
  0
LINE
  5
C0
330
17
100
AcDbEntity
  8
Painéis
 62
0
370
25
100
AcDbLine
 10
5519.934770923483
 20
2370.620987708349
 30
0.0
 11
5516.934770923483
 21
2373.620987708349
 31
0.0
  0
LINE
  5
C1
330
17
100
AcDbEntity
  8
Painéis
 62
0
370
25
100
AcDbLine
 10
5516.934770923483
 20
2326.620987708348
 30
0.0
 11
5519.934770923483
 21
2323.620987708348
 31
0.0
  0
LINE
  5
C2
330
17
100
AcDbEntity
  8
Painéis
 62
4
370
25
100
AcDbLine
 10
5518.434770923486
 20
2325.120987708351
 30
0.0
 11
5518.434770923486
 21
2203.120987708349
 31
0.0
  0
LINE
  5
C3
330
17
100
AcDbEntity
  8
Painéis
 62
0
370
25
100
AcDbLine
 10
5519.934770923486
 20
2323.620987708351
 30
0.0
 11
5516.934770923486
 21
2326.620987708351
 31
0.0
  0
LINE
  5
C4
330
17
100
AcDbEntity
  8
Painéis
 62
0
370
25
100
AcDbLine
 10
5516.934770923486
 20
2204.620987708349
 30
0.0
 11
5519.934770923486
 21
2201.620987708349
 31
0.0
  0
LINE
  5
C5
330
17
100
AcDbEntity
  8
Painéis
 62
4
370
25
100
AcDbLine
 10
5052.470741980814
 20
2295.660850585047
 30
0.0
 11
5296.470741980813
 21
2295.660850585047
 31
0.0
  0
LINE
  5
C6
330
17
100
AcDbEntity
  8
Painéis
 62
0
370
25
100
AcDbLine
 10
5053.970741980814
 20
2297.160850585047
 30
0.0
 11
5050.970741980814
 21
2294.160850585047
 31
0.0
  0
LINE
  5
C7
330
17
100
AcDbEntity
  8
Painéis
 62
0
370
25
100
AcDbLine
 10
5294.970741980813
 20
2294.160850585047
 30
0.0
 11
5297.970741980813
 21
2297.160850585047
 31
0.0
  0
LINE
  5
C8
330
17
100
AcDbEntity
  8
Painéis
 62
4
370
25
100
AcDbLine
 10
5296.470741980813
 20
2295.660850585047
 30
0.0
 11
5470.470741980814
 21
2295.660850585047
 31
0.0
  0
LINE
  5
C9
330
17
100
AcDbEntity
  8
Painéis
 62
0
370
25
100
AcDbLine
 10
5297.970741980813
 20
2297.160850585047
 30
0.0
 11
5294.970741980813
 21
2294.160850585047
 31
0.0
  0
LINE
  5
CA
330
17
100
AcDbEntity
  8
Painéis
 62
0
370
25
100
AcDbLine
 10
5468.970741980814
 20
2294.160850585047
 30
0.0
 11
5471.970741980814
 21
2297.160850585047
 31
0.0
  0
LINE
  5
CB
330
17
100
AcDbEntity
  8
Painéis
 62
4
370
25
100
AcDbLine
 10
5470.470741980814
 20
2295.660850585047
 30
0.0
 11
5644.470741980814
 21
2295.660850585047
 31
0.0
  0
LINE
  5
CC
330
17
100
AcDbEntity
  8
Painéis
 62
4
370
25
100
AcDbLine
 10
5644.470741980814
 20
2295.660850585047
 30
0.0
 11
5778.470741980814
 21
2295.660850585047
 31
0.0
  0
LWPOLYLINE
  5
CD
330
17
100
AcDbEntity
  8
3
 62
3
370
25
100
AcDbPolyline
 90
2
 70
0
 10
5033.470741980814
 20
2203.120987708348
 10
4630.970741980814
 20
2203.120987708348
  0
LWPOLYLINE
  5
CE
330
17
100
AcDbEntity
  8
3
 62
3
370
25
100
AcDbPolyline
 90
2
 70
0
 10
4630.970741980814
 20
2184.120987708348
 10
5042.970741980814
 20
2184.120987708348
  0
LWPOLYLINE
  5
CF
330
17
100
AcDbEntity
  8
3
 62
3
370
25
100
AcDbPolyline
 90
2
 70
0
 10
5419.970741980813
 20
2203.120987708348
 10
5052.470741980814
 20
2203.120987708348
  0
LWPOLYLINE
  5
D0
330
17
100
AcDbEntity
  8
3
 62
3
370
25
100
AcDbPolyline
 90
2
 70
0
 10
5042.970741980814
 20
2184.120987708348
 10
5419.970741980813
 20
2184.120987708348
  0
LWPOLYLINE
  5
D1
330
17
100
AcDbEntity
  8
3
 62
3
370
25
100
AcDbPolyline
 90
2
 70
0
 10
5778.470741980814
 20
2203.120987708348
 10
5539.970741980813
 20
2203.120987708348
  0
LWPOLYLINE
  5
D2
330
17
100
AcDbEntity
  8
3
 62
3
370
25
100
AcDbPolyline
 90
2
 70
0
 10
5539.970741980813
 20
2184.120987708348
 10
5778.470741980814
 20
2184.120987708348
  0
LWPOLYLINE
  5
D3
330
17
100
AcDbEntity
  8
3
 62
3
370
25
100
AcDbPolyline
 90
2
 70
0
 10
5052.470741980814
 20
2032.120987708347
 10
4605.970741980814
 20
2032.120987708347
  0
LWPOLYLINE
  5
D4
330
17
100
AcDbEntity
  8
3
 62
3
370
25
100
AcDbPolyline
 90
2
 70
0
 10
5052.470741980814
 20
1983.120987708347
 10
5052.470741980814
 20
2032.120987708347
  0
LWPOLYLINE
  5
D5
330
17
100
AcDbEntity
  8
3
 62
3
370
25
100
AcDbPolyline
 90
2
 70
0
 10
5033.470741980814
 20
2302.120987708347
 10
5033.470741980814
 20
2203.120987708348
  0
LWPOLYLINE
  5
D6
330
17
100
AcDbEntity
  8
3
 62
3
370
25
100
AcDbPolyline
 90
2
 70
0
 10
5052.470741980814
 20
2203.120987708348
 10
5052.470741980814
 20
2302.120987708347
  0
LWPOLYLINE
  5
D7
330
17
100
AcDbEntity
  8
3
 62
3
370
25
100
AcDbPolyline
 90
2
 70
0
 10
5033.470741980814
 20
2483.120987708347
 10
5033.470741980814
 20
2402.120987708348
  0
LWPOLYLINE
  5
D8
330
17
100
AcDbEntity
  8
3
 62
3
370
25
100
AcDbPolyline
 90
2
 70
0
 10
5052.470741980814
 20
2402.120987708348
 10
5052.470741980814
 20
2483.120987708347
  0
LWPOLYLINE
  5
D9
330
17
100
AcDbEntity
  8
7
 62
7
370
25
100
AcDbPolyline
 90
5
 70
0
 10
5033.470741980814
 20
2302.120987708347
 10
5052.470741980814
 20
2302.120987708347
 10
5052.470741980814
 20
2402.120987708348
 10
5033.470741980814
 20
2402.120987708348
 10
5033.470741980814
 20
2302.120987708347
  0
LWPOLYLINE
  5
DA
330
17
100
AcDbEntity
  8
7
 62
7
370
25
100
AcDbPolyline
 90
5
 70
0
 10
5033.470741980814
 20
2483.120987708347
 10
5052.470741980814
 20
2483.120987708347
 10
5052.470741980814
 20
2533.120987708347
 10
5033.470741980814
 20
2533.120987708347
 10
5033.470741980814
 20
2483.120987708347
  0
LWPOLYLINE
  5
DB
330
17
100
AcDbEntity
  8
7
 62
7
370
25
100
AcDbPolyline
 90
5
 70
0
 10
5419.970741980813
 20
2184.120987708348
 10
5539.970741980813
 20
2184.120987708348
 10
5539.970741980813
 20
2203.120987708348
 10
5419.970741980813
 20
2203.120987708348
 10
5419.970741980813
 20
2184.120987708348
  0
LWPOLYLINE
  5
DC
330
17
100
AcDbEntity
  8
Painéis
 62
0
370
25
100
AcDbPolyline
 90
2
 70
0
 10
5030.970741980814
 20
2293.160850585047
 10
5035.970741980814
 20
2298.160850585047
  0
LWPOLYLINE
  5
DD
330
17
100
AcDbEntity
  8
Painéis
 62
0
370
25
100
AcDbPolyline
 90
2
 70
0
 10
5472.970741980814
 20
2298.160850585047
 10
5467.970741980814
 20
2293.160850585047
  0
LWPOLYLINE
  5
DE
330
17
100
AcDbEntity
  8
Painéis
 62
0
370
25
100
AcDbPolyline
 90
2
 70
0
 10
5641.970741980814
 20
2293.160850585047
 10
5646.970741980814
 20
2298.160850585047
  0
LWPOLYLINE
  5
DF
330
17
100
AcDbEntity
  8
Painéis
 62
0
370
25
100
AcDbPolyline
 90
2
 70
0
 10
5646.970741980814
 20
2298.160850585047
 10
5641.970741980814
 20
2293.160850585047
  0
TEXT
  5
E0
330
17
100
AcDbEntity
  8
AUX00
 62
7
370
25
100
AcDbText
 10
5510.882139344528
 20
2453.120987708346
 30
0.0
 40
8.0
  1
L312^J174X122
100
AcDbText
  0
TEXT
  5
E1
330
17
100
AcDbEntity
  8
3
 62
3
370
25
100
AcDbText
 10
5440.427685980814
 20
2143.41956670835
 30
0.0
 40
10.0
  1
120/19
100
AcDbText
  0
TEXT
  5
E2
330
17
100
AcDbEntity
  8
4
 62
4
370
25
100
AcDbText
 10
5447.839632980814
 20
2159.23915970835
 30
0.0
 40
15.0
  1
P17
100
AcDbText
  0
TEXT
  5
E3
330
17
100
AcDbEntity
  8
4
 62
4
370
25
100
AcDbText
 10
5719.488270980813
 20
2152.529593708349
 30
0.0
 40
15.0
  1
P18
100
AcDbText
  0
TEXT
  5
E4
330
17
100
AcDbEntity
  8
3
 62
3
370
25
100
AcDbText
 10
5716.875358980814
 20
2136.78304770835
 30
0.0
 40
10.0
  1
19/79
100
AcDbText
  0
TEXT
  5
E5
330
17
100
AcDbEntity
  8
4
 62
4
370
25
100
AcDbText
 10
5071.144400980814
 20
2368.533780708351
 30
0.0
 40
15.0
  1
P16
100
AcDbText
  0
TEXT
  5
E6
330
17
100
AcDbEntity
  8
4
 62
4
370
25
100
AcDbText
 10
5068.660348980814
 20
2488.072009708349
 30
0.0
 40
15.0
  1
P47
100
AcDbText
  0
TEXT
  5
E7
330
17
100
AcDbEntity
  8
4
 62
4
370
25
100
AcDbText
 10
5398.527527980814
 20
2483.274888708349
 30
0.0
 40
15.0
  1
P48
100
AcDbText
  0
TEXT
  5
E8
330
17
100
AcDbEntity
  8
3
 62
3
370
25
100
AcDbText
 10
5063.491744980813
 20
2352.838084708348
 30
0.0
 40
10.0
  1
19/100
100
AcDbText
  0
TEXT
  5
E9
330
17
100
AcDbEntity
  8
3
 62
3
370
25
100
AcDbText
 10
5068.660348980814
 20
2473.072009708349
 30
0.0
 40
10.0
  1
19/50
100
AcDbText
  0
TEXT
  5
EA
330
17
100
AcDbEntity
  8
3
 62
3
370
25
100
AcDbText
 10
5398.527527980814
 20
2468.274888708349
 30
0.0
 40
10.0
  1
50/19
100
AcDbText
  0
TEXT
  5
EB
330
17
100
AcDbEntity
  8
3
 62
3
370
25
100
AcDbText
 10
5381.067156980813
 20
2034.597501708349
 30
0.0
 40
10.0
  1
h=12
100
AcDbText
  0
TEXT
  5
EC
330
17
100
AcDbEntity
  8
3
 62
3
370
25
100
AcDbText
 10
5425.699263980813
 20
2339.738884708348
 30
0.0
 40
10.0
  1
h=15
100
AcDbText
  0
TEXT
  5
ED
330
17
100
AcDbEntity
  8
4
 62
4
370
25
100
AcDbText
 10
5029.720741980813
 20
2218.120987708347
 30
0.0
 40
15.0
  1
V420
 50
90.0
100
AcDbText
  0
TEXT
  5
EE
330
17
100
AcDbEntity
  8
4
 62
4
370
25
100
AcDbText
 10
5415.718880980814
 20
2354.01696170835
 30
0.0
 40
15.0
  1
L408
100
AcDbText
  0
TEXT
  5
EF
330
17
100
AcDbEntity
  8
4
 62
4
370
25
100
AcDbText
 10
5373.674547980813
 20
2048.347876708349
 30
0.0
 40
15.0
  1
L409
100
AcDbText
  0
TEXT
  5
F0
330
17
100
AcDbEntity
  8
3
 62
3
370
25
100
AcDbText
 10
5429.745319980813
 20
2401.529875708349
 30
0.0
 40
10.0
  1
855.25
100
AcDbText
  0
TEXT
  5
F1
330
17
100
AcDbEntity
  8
3
 62
3
370
25
100
AcDbText
 10
5495.725355980813
 20
2058.87840970835
 30
0.0
 40
10.0
  1
855.25
100
AcDbText
  0
TEXT
  5
F2
330
17
100
AcDbEntity
  8
3
 62
3
370
25
100
AcDbText
 10
4967.662838980814
 20
2035.870987708348
 30
0.0
 40
10.0
  1
19/55
100
AcDbText
  0
TEXT
  5
F3
330
17
100
AcDbEntity
  8
3
 62
3
370
25
100
AcDbText
 10
4963.921738980814
 20
2206.209593708349
 30
0.0
 40
10.0
  1
19/55
100
AcDbText
  0
TEXT
  5
F4
330
17
100
AcDbEntity
  8
3
 62
3
370
25
100
AcDbText
 10
5365.020560980814
 20
2207.081089708348
 30
0.0
 40
10.0
  1
19/55
100
AcDbText
  0
TEXT
  5
F5
330
17
100
AcDbEntity
  8
3
 62
3
370
25
100
AcDbText
 10
5722.592844980813
 20
2207.549729708348
 30
0.0
 40
10.0
  1
19/55
100
AcDbText
  0
TEXT
  5
F6
330
17
100
AcDbEntity
  8
3
 62
3
370
25
100
AcDbText
 10
5030.017685980813
 20
2445.424332708348
 30
0.0
 40
10.0
  1
19/55
 50
90.0
100
AcDbText
  0
TEXT
  5
F7
330
17
100
AcDbEntity
  8
AUX00
 62
7
370
25
100
AcDbText
 10
5510.882139344528
 20
2359.375886726599
 30
0.0
 40
8.0
  1
L312^J174X47
100
AcDbText
  0
TEXT
  5
F8
330
17
100
AcDbEntity
  8
AUX00
 62
7
370
25
100
AcDbText
 10
5510.882139344528
 20
2277.163406501419
 30
0.0
 40
8.0
  1
L312^J174X122
100
AcDbText
  0
TEXT
  5
F9
330
17
100
AcDbEntity
  8
AUX00
 62
7
370
25
100
AcDbText
 10
5649.41667755079
 20
2453.120987708346
 30
0.0
 40
8.0
  1
L309^J161.5X122
100
AcDbText
  0
TEXT
  5
FA
330
17
100
AcDbEntity
  8
AUX00
 62
7
370
25
100
AcDbText
 10
5649.41667755079
 20
2359.375886726599
 30
0.0
 40
8.0
  1
L309^J47X122
100
AcDbText
  0
TEXT
  5
FB
330
17
100
AcDbEntity
  8
AUX00
 62
7
370
25
100
AcDbText
 10
5649.41667755079
 20
2277.163406501419
 30
0.0
 40
8.0
  1
L309^J161.5X122
100
AcDbText
  0
TEXT
  5
FC
330
17
100
AcDbEntity
  8
Painéis
 62
240
370
25
100
AcDbText
 10
5127.408730728543
 20
2027.870987708347
 30
0.0
 40
9.0
  1
89.5
 50
90.0
100
AcDbText
  0
TEXT
  5
FD
330
17
100
AcDbEntity
  8
Painéis
 62
240
370
25
100
AcDbText
 10
5127.44162546539
 20
2082.620987708347
 30
0.0
 40
9.0
  1
20
 50
90.0
100
AcDbText
  0
TEXT
  5
FE
330
17
100
AcDbEntity
  8
Painéis
 62
240
370
25
100
AcDbText
 10
5127.40873072856
 20
2138.370987708348
 30
0.0
 40
9.0
  1
91.5
 50
90.0
100
AcDbText
  0
TEXT
  5
FF
330
17
100
AcDbEntity
  8
Painéis
 62
240
370
25
100
AcDbText
 10
5174.470741980814
 20
2115.065811195339
 30
0.0
 40
9.0
  1
244
100
AcDbText
  0
TEXT
  5
100
330
17
100
AcDbEntity
  8
Painéis
 62
240
370
25
100
AcDbText
 10
5375.470741980814
 20
2115.118442774287
 30
0.0
 40
9.0
  1
158
100
AcDbText
  0
TEXT
  5
101
330
17
100
AcDbEntity
  8
Painéis
 62
240
370
25
100
AcDbText
 10
5533.470741980814
 20
2115.118442774287
 30
0.0
 40
9.0
  1
158
100
AcDbText
  0
TEXT
  5
102
330
17
100
AcDbEntity
  8
Painéis
 62
240
370
25
100
AcDbText
 10
5695.470741980813
 20
2115.092126984813
 30
0.0
 40
9.0
  1
166
100
AcDbText
  0
TEXT
  5
103
330
17
100
AcDbEntity
  8
Painéis
 62
240
370
25
100
AcDbText
 10
5528.882139344531
 20
2453.120987708346
 30
0.0
 40
9.0
  1
122
 50
90.0
100
AcDbText
  0
TEXT
  5
104
330
17
100
AcDbEntity
  8
Painéis
 62
240
370
25
100
AcDbText
 10
5528.842665660325
 20
2382.120987708347
 30
0.0
 40
9.0
  1
20
 50
90.0
100
AcDbText
  0
TEXT
  5
105
330
17
100
AcDbEntity
  8
Painéis
 62
240
370
25
100
AcDbText
 10
5528.868981449799
 20
2348.620987708346
 30
0.0
 40
9.0
  1
47
 50
90.0
100
AcDbText
  0
TEXT
  5
106
330
17
100
AcDbEntity
  8
Painéis
 62
240
370
25
100
AcDbText
 10
5528.882139344539
 20
2264.120987708347
 30
0.0
 40
9.0
  1
122
 50
90.0
100
AcDbText
  0
TEXT
  5
107
330
17
100
AcDbEntity
  8
Painéis
 62
240
370
25
100
AcDbText
 10
5174.470741980814
 20
2303.22664005873
 30
0.0
 40
9.0
  1
244
100
AcDbText
  0
TEXT
  5
108
330
17
100
AcDbEntity
  8
Painéis
 62
240
370
25
100
AcDbText
 10
5383.470741980814
 20
2303.22664005873
 30
0.0
 40
9.0
  1
174
100
AcDbText
  0
TEXT
  5
109
330
17
100
AcDbEntity
  8
Painéis
 62
1
370
25
100
AcDbText
 10
5557.470741980814
 20
2302.160850585046
 30
0.0
 40
7.0
  1
174
100
AcDbText
  0
TEXT
  5
10A
330
17
100
AcDbEntity
  8
Painéis
 62
1
370
25
100
AcDbText
 10
5711.470741980814
 20
2302.160850585046
 30
0.0
 40
7.0
  1
134
100
AcDbText
  0
HATCH
  5
10B
330
17
100
AcDbEntity
  8
Hachura
 62
7
100
AcDbHatch
 10
0.0
 20
0.0
 30
0.0
210
0.0
220
0.0
230
1.0
  2
SOLID
 70
1
 71
0
 91
1
 92
3
 72
0
 73
1
 93
5
 10
5778.470741980814
 20
2072.620987708347
 10
5778.470741980814
 20
2092.620987708348
 10
5052.470741980814
 20
2092.620987708348
 10
5052.470741980814
 20
2072.620987708347
 10
5778.470741980814
 20
2072.620987708347
 97
0
 75
1
 76
1
 98
0
  0
HATCH
  5
10C
330
17
100
AcDbEntity
  8
REAPROVEITAMENTO
 62
7
100
AcDbHatch
 10
0.0
 20
0.0
 30
0.0
210
0.0
220
0.0
230
1.0
  2
ANSI31
 70
0
 71
0
 91
1
 92
3
 72
0
 73
1
 93
6
 10
5778.470741980814
 20
2092.620987708348
 10
5778.470741980812
 20
2184.120987708348
 10
5052.470741980814
 20
2184.120987708348
 10
5052.470741980813
 20
2092.620987708348
 10
5778.470741980813
 20
2092.620987708348
 10
5778.470741980814
 20
2092.620987708348
 97
0
 75
1
 76
1
 52
0.0
 41
1.0
 77
0
 78
1
 53
45.0
 43
0.0
 44
0.0
 45
-2.2450640303
 46
2.2450640303
 79
0
 98
0
  0
HATCH
  5
10D
330
17
100
AcDbEntity
  8
Hachura
 62
7
100
AcDbHatch
 10
0.0
 20
0.0
 30
0.0
210
0.0
220
0.0
230
1.0
  2
ANSI37
 70
0
 71
0
 91
1
 92
3
 72
0
 73
1
 93
5
 10
5033.470741980814
 20
2325.120987708348
 10
5033.470741980813
 20
2372.120987708348
 10
4840.470741980814
 20
2372.120987708348
 10
4840.470741980814
 20
2325.120987708348
 10
5033.470741980814
 20
2325.120987708348
 97
0
 75
1
 76
1
 52
0.0
 41
1.0
 77
0
 78
2
 53
45.0
 43
0.0
 44
0.0
 45
-2.2450640303
 46
2.2450640303
 79
0
 53
135.0
 43
0.0
 44
0.0
 45
-2.2450640303
 46
-2.2450640303
 79
0
 98
0
  0
HATCH
  5
10E
330
17
100
AcDbEntity
  8
Hachura
 62
7
100
AcDbHatch
 10
0.0
 20
0.0
 30
0.0
210
0.0
220
0.0
230
1.0
  2
SOLID
 70
1
 71
0
 91
1
 92
3
 72
0
 73
1
 93
5
 10
5778.470741980815
 20
2372.120987708348
 10
5778.470741980814
 20
2392.120987708347
 10
5052.470741980814
 20
2392.120987708347
 10
5052.470741980814
 20
2372.120987708347
 10
5778.470741980815
 20
2372.120987708348
 97
0
 75
1
 76
1
 98
0
  0
HATCH
  5
10F
330
17
100
AcDbEntity
  8
REAPROVEITAMENTO
 62
7
100
AcDbHatch
 10
0.0
 20
0.0
 30
0.0
210
0.0
220
0.0
230
1.0
  2
ANSI31
 70
0
 71
0
 91
1
 92
3
 72
0
 73
1
 93
5
 10
5644.470741980814
 20
2372.120987708347
 10
5644.470741980814
 20
2514.120987708348
 10
5052.470741980814
 20
2514.120987708348
 10
5052.470741980814
 20
2372.120987708347
 10
5644.470741980814
 20
2372.120987708347
 97
0
 75
1
 76
1
 52
0.0
 41
1.0
 77
0
 78
1
 53
45.0
 43
0.0
 44
0.0
 45
-2.2450640303
 46
2.2450640303
 79
0
 98
0
  0
HATCH
  5
110
330
17
100
AcDbEntity
  8
REAPROVEITAMENTO
 62
7
100
AcDbHatch
 10
0.0
 20
0.0
 30
0.0
210
0.0
220
0.0
230
1.0
  2
ANSI31
 70
0
 71
0
 91
1
 92
3
 72
0
 73
1
 93
5
 10
5644.470741980814
 20
2203.120987708348
 10
5644.470741980813
 20
2325.120987708348
 10
5052.470741980812
 20
2325.120987708348
 10
5052.470741980814
 20
2203.120987708348
 10
5644.470741980814
 20
2203.120987708348
 97
0
 75
1
 76
1
 52
0.0
 41
1.0
 77
0
 78
1
 53
45.0
 43
0.0
 44
0.0
 45
-2.2450640303
 46
2.2450640303
 79
0
 98
0
  0
HATCH
  5
111
330
17
100
AcDbEntity
  8
REAPROVEITAMENTO
 62
7
100
AcDbHatch
 10
0.0
 20
0.0
 30
0.0
210
0.0
220
0.0
230
1.0
  2
ANSI31
 70
0
 71
0
 91
1
 92
3
 72
0
 73
1
 93
5
 10
5644.470741980814
 20
2325.120987708348
 10
5644.470741980814
 20
2372.120987708347
 10
5052.470741980814
 20
2372.120987708347
 10
5052.470741980814
 20
2325.120987708348
 10
5644.470741980814
 20
2325.120987708348
 97
0
 75
1
 76
1
 52
0.0
 41
1.0
 77
0
 78
1
 53
45.0
 43
0.0
 44
0.0
 45
-2.2450640303
 46
2.2450640303
 79
0
 98
0
  0
HATCH
  5
112
330
17
100
AcDbEntity
  8
Hachura
 62
7
100
AcDbHatch
 10
0.0
 20
0.0
 30
0.0
210
0.0
220
0.0
230
1.0
  2
ANSI37
 70
0
 71
0
 91
1
 92
3
 72
0
 73
1
 93
5
 10
5644.470741980812
 20
2514.120987708348
 10
5644.470741980812
 20
2203.120987708348
 10
5778.470741980814
 20
2203.120987708348
 10
5778.470741980814
 20
2514.120987708348
 10
5644.470741980812
 20
2514.120987708348
 97
0
 75
1
 76
1
 52
0.0
 41
1.0
 77
0
 78
2
 53
45.0
 43
0.0
 44
0.0
 45
-2.2450640303
 46
2.2450640303
 79
0
 53
135.0
 43
0.0
 44
0.0
 45
-2.2450640303
 46
-2.2450640303
 79
0
 98
0
  0
ENDSEC
  0
SECTION
  2
OBJECTS
  0
DICTIONARY
  5
A
330
0
100
AcDbDictionary
281
1
  3
ACAD_COLOR
350
B
  3
ACAD_GROUP
350
C
  3
ACAD_LAYOUT
350
D
  3
ACAD_MATERIAL
350
E
  3
ACAD_MLEADERSTYLE
350
F
  3
ACAD_MLINESTYLE
350
10
  3
ACAD_PLOTSETTINGS
350
11
  3
ACAD_PLOTSTYLENAME
350
12
  3
ACAD_SCALELIST
350
14
  3
ACAD_TABLESTYLE
350
15
  3
ACAD_VISUALSTYLE
350
16
  3
EZDXF_META
350
2D
  0
DICTIONARY
  5
B
330
A
100
AcDbDictionary
281
1
  0
DICTIONARY
  5
C
330
A
100
AcDbDictionary
281
1
  0
DICTIONARY
  5
D
330
A
100
AcDbDictionary
281
1
  3
Model
350
1A
  3
Layout1
350
1E
  0
DICTIONARY
  5
E
330
A
100
AcDbDictionary
281
1
  3
ByBlock
350
1F
  3
ByLayer
350
20
  3
Global
350
21
  0
DICTIONARY
  5
F
330
A
100
AcDbDictionary
281
1
  3
Standard
350
2C
  0
DICTIONARY
  5
10
330
A
100
AcDbDictionary
281
1
  3
Standard
350
22
  0
DICTIONARY
  5
11
330
A
100
AcDbDictionary
281
1
  0
ACDBDICTIONARYWDFLT
  5
12
330
A
100
AcDbDictionary
281
1
  3
Normal
350
13
100
AcDbDictionaryWithDefault
340
13
  0
ACDBPLACEHOLDER
  5
13
330
12
  0
DICTIONARY
  5
14
330
A
100
AcDbDictionary
281
1
  0
DICTIONARY
  5
15
330
A
100
AcDbDictionary
281
1
  0
DICTIONARY
  5
16
330
A
100
AcDbDictionary
281
1
  0
LAYOUT
  5
1A
330
D
100
AcDbPlotSettings
  1

  4
A3
  6

 40
7.5
 41
20.0
 42
7.5
 43
20.0
 44
420.0
 45
297.0
 46
0.0
 47
0.0
 48
0.0
 49
0.0
140
0.0
141
0.0
142
1.0
143
1.0
 70
1024
 72
1
 73
0
 74
5
  7

 75
16
 76
0
 77
2
 78
300
147
1.0
148
0.0
149
0.0
100
AcDbLayout
  1
Model
 70
1
 71
0
 10
0.0
 20
0.0
 11
420.0
 21
297.0
 12
0.0
 22
0.0
 32
0.0
 14
1e+20
 24
1e+20
 34
1e+20
 15
-1e+20
 25
-1e+20
 35
-1e+20
146
0.0
 13
0.0
 23
0.0
 33
0.0
 16
1.0
 26
0.0
 36
0.0
 17
0.0
 27
1.0
 37
0.0
 76
1
330
17
  0
LAYOUT
  5
1E
330
D
100
AcDbPlotSettings
  1

  4
A3
  6

 40
7.5
 41
20.0
 42
7.5
 43
20.0
 44
420.0
 45
297.0
 46
0.0
 47
0.0
 48
0.0
 49
0.0
140
0.0
141
0.0
142
1.0
143
1.0
 70
0
 72
1
 73
0
 74
5
  7

 75
16
 76
0
 77
2
 78
300
147
1.0
148
0.0
149
0.0
100
AcDbLayout
  1
Layout1
 70
1
 71
1
 10
0.0
 20
0.0
 11
420.0
 21
297.0
 12
0.0
 22
0.0
 32
0.0
 14
1e+20
 24
1e+20
 34
1e+20
 15
-1e+20
 25
-1e+20
 35
-1e+20
146
0.0
 13
0.0
 23
0.0
 33
0.0
 16
1.0
 26
0.0
 36
0.0
 17
0.0
 27
1.0
 37
0.0
 76
1
330
1B
  0
MATERIAL
  5
1F
102
{ACAD_REACTORS
330
E
102
}
330
E
100
AcDbMaterial
  1
ByBlock
  2

 70
0
 40
1.0
 71
1
 41
1.0
 91
-1023410177
 42
1.0
 72
1
  3

 73
1
 74
1
 75
1
 44
0.5
 73
0
 45
1.0
 46
1.0
 77
1
  4

 78
1
 79
1
170
1
 48
1.0
171
1
  6

172
1
173
1
174
1
140
1.0
141
1.0
175
1
  7

176
1
177
1
178
1
143
1.0
179
1
  8

270
1
271
1
272
1
145
1.0
146
1.0
273
1
  9

274
1
275
1
276
1
 42
1.0
 72
1
  3

 73
1
 74
1
 75
1
 94
63
  0
MATERIAL
  5
20
102
{ACAD_REACTORS
330
E
102
}
330
E
100
AcDbMaterial
  1
ByLayer
  2

 70
0
 40
1.0
 71
1
 41
1.0
 91
-1023410177
 42
1.0
 72
1
  3

 73
1
 74
1
 75
1
 44
0.5
 73
0
 45
1.0
 46
1.0
 77
1
  4

 78
1
 79
1
170
1
 48
1.0
171
1
  6

172
1
173
1
174
1
140
1.0
141
1.0
175
1
  7

176
1
177
1
178
1
143
1.0
179
1
  8

270
1
271
1
272
1
145
1.0
146
1.0
273
1
  9

274
1
275
1
276
1
 42
1.0
 72
1
  3

 73
1
 74
1
 75
1
 94
63
  0
MATERIAL
  5
21
102
{ACAD_REACTORS
330
E
102
}
330
E
100
AcDbMaterial
  1
Global
  2

 70
0
 40
1.0
 71
1
 41
1.0
 91
-1023410177
 42
1.0
 72
1
  3

 73
1
 74
1
 75
1
 44
0.5
 73
0
 45
1.0
 46
1.0
 77
1
  4

 78
1
 79
1
170
1
 48
1.0
171
1
  6

172
1
173
1
174
1
140
1.0
141
1.0
175
1
  7

176
1
177
1
178
1
143
1.0
179
1
  8

270
1
271
1
272
1
145
1.0
146
1.0
273
1
  9

274
1
275
1
276
1
 42
1.0
 72
1
  3

 73
1
 74
1
 75
1
 94
63
  0
MLINESTYLE
  5
22
102
{ACAD_REACTORS
330
10
102
}
330
10
100
AcDbMlineStyle
  2
Standard
 70
0
  3

 62
256
 51
90.0
 52
90.0
 71
2
 49
0.5
 62
256
  6
BYLAYER
 49
-0.5
 62
256
  6
BYLAYER
  0
MLEADERSTYLE
  5
2C
102
{ACAD_REACTORS
330
F
102
}
330
F
100
AcDbMLeaderStyle
179
2
170
2
171
1
172
0
 90
2
 40
0.0
 41
0.0
173
1
 91
-1056964608
 92
-2
290
1
 42
2.0
291
1
 43
8.0
  3
Standard
 44
4.0
300

342
29
174
1
175
1
176
0
178
1
 93
-1056964608
 45
4.0
292
0
297
0
 46
4.0
 94
-1056964608
 47
1.0
 49
1.0
140
1.0
294
1
141
0.0
177
0
142
1.0
295
0
296
0
143
3.75
271
0
272
9
273
9
  0
DICTIONARY
  5
2D
330
A
100
AcDbDictionary
280
1
281
1
  3
CREATED_BY_EZDXF
350
2E
  3
WRITTEN_BY_EZDXF
350
115
  0
DICTIONARYVAR
  5
2E
330
2D
100
DictionaryVariables
280
0
  1
1.4.3 @ 2026-06-10T17:42:39.315647+00:00
  0
DICTIONARYVAR
  5
115
330
2D
100
DictionaryVariables
280
0
  1
1.4.3 @ 2026-06-10T17:42:39.323735+00:00
  0
ENDSEC
  0
EOF
