  0
SECTION
  2
HEADER
  9
$ACADVER
  1
AC1024
  9
$ACADMAINTVER
 70
6
  9
$DWGCODEPAGE
  3
ANSI_1252
  9
$LASTSAVEDBY
  1
ezdxf
  9
$INSBASE
 10
0.0
 20
0.0
 30
0.0
  9
$EXTMIN
 10
1e+20
 20
1e+20
 30
1e+20
  9
$EXTMAX
 10
-1e+20
 20
-1e+20
 30
-1e+20
  9
$LIMMIN
 10
0.0
 20
0.0
  9
$LIMMAX
 10
420.0
 20
297.0
  9
$ORTHOMODE
 70
0
  9
$REGENMODE
 70
1
  9
$FILLMODE
 70
1
  9
$QTEXTMODE
 70
0
  9
$MIRRTEXT
 70
1
  9
$LTSCALE
 40
1.0
  9
$ATTMODE
 70
1
  9
$TEXTSIZE
 40
2.5
  9
$TRACEWID
 40
1.0
  9
$TEXTSTYLE
  7
Standard
  9
$CLAYER
  8
0
  9
$CELTYPE
  6
ByLayer
  9
$CECOLOR
 62
256
  9
$CELTSCALE
 40
1.0
  9
$DISPSILH
 70
0
  9
$DIMSCALE
 40
1.0
  9
$DIMASZ
 40
2.5
  9
$DIMEXO
 40
0.625
  9
$DIMDLI
 40
3.75
  9
$DIMRND
 40
0.0
  9
$DIMDLE
 40
0.0
  9
$DIMEXE
 40
1.25
  9
$DIMTP
 40
0.0
  9
$DIMTM
 40
0.0
  9
$DIMTXT
 40
2.5
  9
$DIMCEN
 40
2.5
  9
$DIMTSZ
 40
0.0
  9
$DIMTOL
 70
0
  9
$DIMLIM
 70
0
  9
$DIMTIH
 70
0
  9
$DIMTOH
 70
0
  9
$DIMSE1
 70
0
  9
$DIMSE2
 70
0
  9
$DIMTAD
 70
1
  9
$DIMZIN
 70
8
  9
$DIMBLK
  1

  9
$DIMASO
 70
1
  9
$DIMSHO
 70
1
  9
$DIMPOST
  1

  9
$DIMAPOST
  1

  9
$DIMALT
 70
0
  9
$DIMALTD
 70
3
  9
$DIMALTF
 40
0.03937007874
  9
$DIMLFAC
 40
1.0
  9
$DIMTOFL
 70
1
  9
$DIMTVP
 40
0.0
  9
$DIMTIX
 70
0
  9
$DIMSOXD
 70
0
  9
$DIMSAH
 70
0
  9
$DIMBLK1
  1

  9
$DIMBLK2
  1

  9
$DIMSTYLE
  2
ISO-25
  9
$DIMCLRD
 70
0
  9
$DIMCLRE
 70
0
  9
$DIMCLRT
 70
0
  9
$DIMTFAC
 40
1.0
  9
$DIMGAP
 40
0.625
  9
$DIMJUST
 70
0
  9
$DIMSD1
 70
0
  9
$DIMSD2
 70
0
  9
$DIMTOLJ
 70
0
  9
$DIMTZIN
 70
8
  9
$DIMALTZ
 70
0
  9
$DIMALTTZ
 70
0
  9
$DIMUPT
 70
0
  9
$DIMDEC
 70
2
  9
$DIMTDEC
 70
2
  9
$DIMALTU
 70
2
  9
$DIMALTTD
 70
3
  9
$DIMTXSTY
  7
Standard
  9
$DIMAUNIT
 70
0
  9
$DIMADEC
 70
0
  9
$DIMALTRND
 40
0.0
  9
$DIMAZIN
 70
0
  9
$DIMDSEP
 70
44
  9
$DIMATFIT
 70
3
  9
$DIMFRAC
 70
0
  9
$DIMLDRBLK
  1

  9
$DIMLUNIT
 70
2
  9
$DIMLWD
 70
-2
  9
$DIMLWE
 70
-2
  9
$DIMTMOVE
 70
0
  9
$DIMFXL
 40
1.0
  9
$DIMFXLON
 70
0
  9
$DIMJOGANG
 40
0.785398163397
  9
$DIMTFILL
 70
0
  9
$DIMTFILLCLR
 70
0
  9
$DIMARCSYM
 70
0
  9
$DIMLTYPE
  6

  9
$DIMLTEX1
  6

  9
$DIMLTEX2
  6

  9
$DIMTXTDIRECTION
 70
0
  9
$LUNITS
 70
2
  9
$LUPREC
 70
4
  9
$SKETCHINC
 40
1.0
  9
$FILLETRAD
 40
10.0
  9
$AUNITS
 70
0
  9
$AUPREC
 70
2
  9
$MENU
  1
.
  9
$ELEVATION
 40
0.0
  9
$PELEVATION
 40
0.0
  9
$THICKNESS
 40
0.0
  9
$LIMCHECK
 70
0
  9
$CHAMFERA
 40
0.0
  9
$CHAMFERB
 40
0.0
  9
$CHAMFERC
 40
0.0
  9
$CHAMFERD
 40
0.0
  9
$SKPOLY
 70
0
  9
$TDCREATE
 40
2461109.2930208333
  9
$TDUCREATE
 40
2458532.153996898
  9
$TDUPDATE
 40
2461109.2930208333
  9
$TDUUPDATE
 40
2458532.1544311
  9
$TDINDWG
 40
0.0
  9
$TDUSRTIMER
 40
0.0
  9
$USRTIMER
 70
1
  9
$ANGBASE
 50
0.0
  9
$ANGDIR
 70
0
  9
$PDMODE
 70
0
  9
$PDSIZE
 40
0.0
  9
$PLINEWID
 40
0.0
  9
$SPLFRAME
 70
0
  9
$SPLINETYPE
 70
6
  9
$SPLINESEGS
 70
8
  9
$HANDSEED
  5
20A
  9
$SURFTAB1
 70
6
  9
$SURFTAB2
 70
6
  9
$SURFTYPE
 70
6
  9
$SURFU
 70
6
  9
$SURFV
 70
6
  9
$UCSBASE
  2

  9
$UCSNAME
  2

  9
$UCSORG
 10
0.0
 20
0.0
 30
0.0
  9
$UCSXDIR
 10
1.0
 20
0.0
 30
0.0
  9
$UCSYDIR
 10
0.0
 20
1.0
 30
0.0
  9
$UCSORTHOREF
  2

  9
$UCSORTHOVIEW
 70
0
  9
$UCSORGTOP
 10
0.0
 20
0.0
 30
0.0
  9
$UCSORGBOTTOM
 10
0.0
 20
0.0
 30
0.0
  9
$UCSORGLEFT
 10
0.0
 20
0.0
 30
0.0
  9
$UCSORGRIGHT
 10
0.0
 20
0.0
 30
0.0
  9
$UCSORGFRONT
 10
0.0
 20
0.0
 30
0.0
  9
$UCSORGBACK
 10
0.0
 20
0.0
 30
0.0
  9
$PUCSBASE
  2

  9
$PUCSNAME
  2

  9
$PUCSORG
 10
0.0
 20
0.0
 30
0.0
  9
$PUCSXDIR
 10
1.0
 20
0.0
 30
0.0
  9
$PUCSYDIR
 10
0.0
 20
1.0
 30
0.0
  9
$PUCSORTHOREF
  2

  9
$PUCSORTHOVIEW
 70
0
  9
$PUCSORGTOP
 10
0.0
 20
0.0
 30
0.0
  9
$PUCSORGBOTTOM
 10
0.0
 20
0.0
 30
0.0
  9
$PUCSORGLEFT
 10
0.0
 20
0.0
 30
0.0
  9
$PUCSORGRIGHT
 10
0.0
 20
0.0
 30
0.0
  9
$PUCSORGFRONT
 10
0.0
 20
0.0
 30
0.0
  9
$PUCSORGBACK
 10
0.0
 20
0.0
 30
0.0
  9
$USERI1
 70
0
  9
$USERI2
 70
0
  9
$USERI3
 70
0
  9
$USERI4
 70
0
  9
$USERI5
 70
0
  9
$USERR1
 40
0.0
  9
$USERR2
 40
0.0
  9
$USERR3
 40
0.0
  9
$USERR4
 40
0.0
  9
$USERR5
 40
0.0
  9
$WORLDVIEW
 70
1
  9
$SHADEDGE
 70
3
  9
$SHADEDIF
 70
70
  9
$TILEMODE
 70
1
  9
$MAXACTVP
 70
64
  9
$PINSBASE
 10
0.0
 20
0.0
 30
0.0
  9
$PLIMCHECK
 70
0
  9
$PEXTMIN
 10
1e+20
 20
1e+20
 30
1e+20
  9
$PEXTMAX
 10
-1e+20
 20
-1e+20
 30
-1e+20
  9
$PLIMMIN
 10
0.0
 20
0.0
  9
$PLIMMAX
 10
420.0
 20
297.0
  9
$UNITMODE
 70
0
  9
$VISRETAIN
 70
1
  9
$PLINEGEN
 70
0
  9
$PSLTSCALE
 70
1
  9
$TREEDEPTH
 70
3020
  9
$CMLSTYLE
  2
Standard
  9
$CMLJUST
 70
0
  9
$CMLSCALE
 40
20.0
  9
$PROXYGRAPHICS
 70
1
  9
$MEASUREMENT
 70
1
  9
$CELWEIGHT
370
-1
  9
$ENDCAPS
280
0
  9
$JOINSTYLE
280
0
  9
$LWDISPLAY
290
0
  9
$INSUNITS
 70
6
  9
$HYPERLINKBASE
  1

  9
$STYLESHEET
  1

  9
$XEDIT
290
1
  9
$CEPSNTYPE
380
0
  9
$PSTYLEMODE
290
1
  9
$FINGERPRINTGUID
  2
{F0E1FE9F-D47C-4CDD-9D16-9B042B80F951}
  9
$VERSIONGUID
  2
{E7EA2D32-2AC7-4639-ACCA-89E35513B962}
  9
$EXTNAMES
290
1
  9
$PSVPSCALE
 40
0.0
  9
$OLESTARTUP
290
0
  9
$SORTENTS
280
127
  9
$INDEXCTL
280
0
  9
$HIDETEXT
280
1
  9
$XCLIPFRAME
280
1
  9
$HALOGAP
280
0
  9
$OBSCOLOR
 70
257
  9
$OBSLTYPE
280
0
  9
$INTERSECTIONDISPLAY
280
0
  9
$INTERSECTIONCOLOR
 70
257
  9
$DIMASSOC
280
2
  9
$PROJECTNAME
  1

  9
$CAMERADISPLAY
290
0
  9
$LENSLENGTH
 40
50.0
  9
$CAMERAHEIGHT
 40
0.0
  9
$STEPSPERSEC
 40
24.0
  9
$STEPSIZE
 40
100.0
  9
$3DDWFPREC
 40
2.0
  9
$PSOLWIDTH
 40
0.005
  9
$PSOLHEIGHT
 40
0.08
  9
$LOFTANG1
 40
1.570796326795
  9
$LOFTANG2
 40
1.570796326795
  9
$LOFTMAG1
 40
0.0
  9
$LOFTMAG2
 40
0.0
  9
$LOFTPARAM
 70
7
  9
$LOFTNORMALS
280
1
  9
$LATITUDE
 40
37.795
  9
$LONGITUDE
 40
-122.394
  9
$NORTHDIRECTION
 40
0.0
  9
$TIMEZONE
 70
-8000
  9
$LIGHTGLYPHDISPLAY
280
1
  9
$TILEMODELIGHTSYNCH
280
1
  9
$CMATERIAL
347
20
  9
$SOLIDHIST
280
0
  9
$SHOWHIST
280
1
  9
$DWFFRAME
280
2
  9
$DGNFRAME
280
2
  9
$REALWORLDSCALE
290
1
  9
$INTERFERECOLOR
 62
256
  9
$CSHADOW
280
0
  9
$SHADOWPLANELOCATION
 40
0.0
  0
ENDSEC
  0
SECTION
  2
CLASSES
  0
CLASS
  1
ACDBDICTIONARYWDFLT
  2
AcDbDictionaryWithDefault
  3
ObjectDBX Classes
 90
0
 91
0
280
0
281
0
  0
CLASS
  1
SUN
  2
AcDbSun
  3
SCENEOE
 90
1153
 91
0
280
0
281
0
  0
CLASS
  1
VISUALSTYLE
  2
AcDbVisualStyle
  3
ObjectDBX Classes
 90
4095
 91
0
280
0
281
0
  0
CLASS
  1
MATERIAL
  2
AcDbMaterial
  3
ObjectDBX Classes
 90
1153
 91
0
280
0
281
0
  0
CLASS
  1
SCALE
  2
AcDbScale
  3
ObjectDBX Classes
 90
1153
 91
0
280
0
281
0
  0
CLASS
  1
TABLESTYLE
  2
AcDbTableStyle
  3
ObjectDBX Classes
 90
4095
 91
0
280
0
281
0
  0
CLASS
  1
MLEADERSTYLE
  2
AcDbMLeaderStyle
  3
ACDB_MLEADERSTYLE_CLASS
 90
4095
 91
0
280
0
281
0
  0
CLASS
  1
DICTIONARYVAR
  2
AcDbDictionaryVar
  3
ObjectDBX Classes
 90
0
 91
0
280
0
281
0
  0
CLASS
  1
CELLSTYLEMAP
  2
AcDbCellStyleMap
  3
ObjectDBX Classes
 90
1152
 91
0
280
0
281
0
  0
CLASS
  1
MENTALRAYRENDERSETTINGS
  2
AcDbMentalRayRenderSettings
  3
SCENEOE
 90
1024
 91
0
280
0
281
0
  0
CLASS
  1
ACDBDETAILVIEWSTYLE
  2
AcDbDetailViewStyle
  3
ObjectDBX Classes
 90
1025
 91
0
280
0
281
0
  0
CLASS
  1
ACDBSECTIONVIEWSTYLE
  2
AcDbSectionViewStyle
  3
ObjectDBX Classes
 90
1025
 91
0
280
0
281
0
  0
CLASS
  1
RASTERVARIABLES
  2
AcDbRasterVariables
  3
ISM
 90
0
 91
0
280
0
281
0
  0
CLASS
  1
ACDBPLACEHOLDER
  2
AcDbPlaceHolder
  3
ObjectDBX Classes
 90
0
 91
0
280
0
281
0
  0
CLASS
  1
LAYOUT
  2
AcDbLayout
  3
ObjectDBX Classes
 90
0
 91
0
280
0
281
0
  0
ENDSEC
  0
SECTION
  2
TABLES
  0
TABLE
  2
VPORT
  5
8
330
0
100
AcDbSymbolTable
 70
1
  0
VPORT
  5
23
330
8
100
AcDbSymbolTableRecord
100
AcDbViewportTableRecord
  2
*Active
 70
0
 10
0.0
 20
0.0
 11
1.0
 21
1.0
 12
0.0
 22
0.0
 13
0.0
 23
0.0
 14
0.5
 24
0.5
 15
0.5
 25
0.5
 16
0.0
 26
0.0
 36
1.0
 17
0.0
 27
0.0
 37
0.0
 40
1000.0
 41
1.34
 42
50.0
 43
0.0
 44
0.0
 50
0.0
 51
0.0
 71
0
 72
1000
 73
1
 74
3
 75
0
 76
0
 77
0
 78
0
281
0
 65
0
146
0.0
  0
ENDTAB
  0
TABLE
  2
LTYPE
  5
2
330
0
100
AcDbSymbolTable
 70
3
  0
LTYPE
  5
24
330
2
100
AcDbSymbolTableRecord
100
AcDbLinetypeTableRecord
  2
ByBlock
 70
0
  3

 72
65
 73
0
 40
0.0
  0
LTYPE
  5
25
330
2
100
AcDbSymbolTableRecord
100
AcDbLinetypeTableRecord
  2
ByLayer
 70
0
  3

 72
65
 73
0
 40
0.0
  0
LTYPE
  5
26
330
2
100
AcDbSymbolTableRecord
100
AcDbLinetypeTableRecord
  2
Continuous
 70
0
  3

 72
65
 73
0
 40
0.0
  0
ENDTAB
  0
TABLE
  2
LAYER
  5
1
330
0
100
AcDbSymbolTable
 70
6
  0
LAYER
  5
27
330
1
100
AcDbSymbolTableRecord
100
AcDbLayerTableRecord
  2
0
 70
0
 62
7
  6
Continuous
370
-3
390
13
347
21
  0
LAYER
  5
28
330
1
100
AcDbSymbolTableRecord
100
AcDbLayerTableRecord
  2
Defpoints
 70
0
 62
7
  6
Continuous
290
0
370
-3
390
13
347
21
  0
LAYER
  5
2F
330
1
100
AcDbSymbolTableRecord
100
AcDbLayerTableRecord
  2
Paineis
 70
0
 62
7
  6
Continuous
370
-3
390
13
347
21
  0
LAYER
  5
30
330
1
100
AcDbSymbolTableRecord
100
AcDbLayerTableRecord
  2
Texto Seção
 70
0
 62
7
  6
Continuous
370
-3
390
13
347
21
  0
LAYER
  5
31
330
1
100
AcDbSymbolTableRecord
100
AcDbLayerTableRecord
  2
Cota Seção (2x)
 70
0
 62
7
  6
Continuous
370
-3
390
13
347
21
  0
LAYER
  5
32
330
1
100
AcDbSymbolTableRecord
100
AcDbLayerTableRecord
  2
HACHURA
 70
0
 62
7
  6
Continuous
370
-3
390
13
347
21
  0
ENDTAB
  0
TABLE
  2
STYLE
  5
5
330
0
100
AcDbSymbolTable
 70
1
  0
STYLE
  5
29
330
5
100
AcDbSymbolTableRecord
100
AcDbTextStyleTableRecord
  2
Standard
 70
0
 40
0.0
 41
1.0
 50
0.0
 71
0
 42
2.5
  3
txt
  4

  0
ENDTAB
  0
TABLE
  2
VIEW
  5
7
330
0
100
AcDbSymbolTable
 70
0
  0
ENDTAB
  0
TABLE
  2
UCS
  5
6
330
0
100
AcDbSymbolTable
 70
0
  0
ENDTAB
  0
TABLE
  2
APPID
  5
3
330
0
100
AcDbSymbolTable
 70
3
  0
APPID
  5
2A
330
3
100
AcDbSymbolTableRecord
100
AcDbRegAppTableRecord
  2
ACAD
 70
0
  0
APPID
  5
207
330
3
100
AcDbSymbolTableRecord
100
AcDbRegAppTableRecord
  2
HATCHBACKGROUNDCOLOR
 70
0
  0
APPID
  5
208
330
3
100
AcDbSymbolTableRecord
100
AcDbRegAppTableRecord
  2
EZDXF
 70
0
  0
ENDTAB
  0
TABLE
  2
DIMSTYLE
  5
4
330
0
100
AcDbSymbolTable
 70
1
100
AcDbDimStyleTable
  0
DIMSTYLE
105
2B
330
4
100
AcDbSymbolTableRecord
100
AcDbDimStyleTableRecord
  2
Standard
 70
0
 40
1.0
 41
2.5
 42
0.625
 43
3.75
 44
1.25
 45
0.0
 46
0.0
 47
0.0
 48
0.0
 49
2.5
140
2.5
141
2.5
142
0.0
143
0.03937007874
144
1.0
145
0.0
146
1.0
147
0.625
148
0.0
 69
0
 70
0
 71
0
 72
0
 73
0
 74
0
 75
0
 76
0
 77
1
 78
8
 79
3
170
0
171
3
172
1
173
0
174
0
175
0
176
0
177
0
178
0
179
2
271
2
272
2
273
2
274
3
275
0
276
0
277
2
278
44
279
0
280
0
281
0
282
0
283
0
284
8
285
0
286
0
288
0
289
3
290
0
371
-2
372
-2
  0
ENDTAB
  0
TABLE
  2
BLOCK_RECORD
  5
9
330
0
100
AcDbSymbolTable
 70
2
  0
BLOCK_RECORD
  5
17
330
9
100
AcDbSymbolTableRecord
100
AcDbBlockTableRecord
  2
*Model_Space
340
1A
 70
0
280
1
281
0
  0
BLOCK_RECORD
  5
1B
330
9
100
AcDbSymbolTableRecord
100
AcDbBlockTableRecord
  2
*Paper_Space
340
1E
 70
0
280
1
281
0
  0
ENDTAB
  0
ENDSEC
  0
SECTION
  2
BLOCKS
  0
BLOCK
  5
18
330
17
100
AcDbEntity
  8
0
100
AcDbBlockBegin
  2
*Model_Space
 70
0
 10
0.0
 20
0.0
 30
0.0
  3
*Model_Space
  1

  0
ENDBLK
  5
19
330
17
100
AcDbEntity
  8
0
100
AcDbBlockEnd
  0
BLOCK
  5
1C
330
1B
100
AcDbEntity
  8
0
100
AcDbBlockBegin
  2
*Paper_Space
 70
0
 10
0.0
 20
0.0
 30
0.0
  3
*Paper_Space
  1

  0
ENDBLK
  5
1D
330
1B
100
AcDbEntity
  8
0
100
AcDbBlockEnd
  0
ENDSEC
  0
SECTION
  2
ENTITIES
  0
LWPOLYLINE
  5
33
330
17
100
AcDbEntity
  8
Paineis
100
AcDbPolyline
 90
4
 70
1
 10
16629.5
 20
15203.79
 10
16667.5
 20
15203.79
 10
16667.5
 20
15205.79
 10
16629.5
 20
15205.79
  0
LWPOLYLINE
  5
34
330
17
100
AcDbEntity
  8
Paineis
100
AcDbPolyline
 90
4
 70
1
 10
16629.5
 20
15205.79
 10
16667.5
 20
15205.79
 10
16667.5
 20
15449.79
 10
16629.5
 20
15449.79
  0
LWPOLYLINE
  5
35
330
17
100
AcDbEntity
  8
Paineis
100
AcDbPolyline
 90
4
 70
1
 10
16629.5
 20
15449.79
 10
16667.5
 20
15449.79
 10
16667.5
 20
15483.79
 10
16629.5
 20
15483.79
  0
MTEXT
  5
36
330
17
100
AcDbEntity
  8
Texto Secao
100
AcDbMText
 10
16648.5
 20
15188.79
 30
0.0
 40
10.0
 71
1
  1
P1.A
  0
LWPOLYLINE
  5
37
330
17
100
AcDbEntity
  8
Paineis
100
AcDbPolyline
 90
4
 70
1
 10
16697.5
 20
15203.79
 10
16716.5
 20
15203.79
 10
16716.5
 20
15205.79
 10
16697.5
 20
15205.79
  0
LWPOLYLINE
  5
38
330
17
100
AcDbEntity
  8
Paineis
100
AcDbPolyline
 90
4
 70
1
 10
16697.5
 20
15205.79
 10
16716.5
 20
15205.79
 10
16716.5
 20
15449.79
 10
16697.5
 20
15449.79
  0
LWPOLYLINE
  5
39
330
17
100
AcDbEntity
  8
Paineis
100
AcDbPolyline
 90
4
 70
1
 10
16697.5
 20
15449.79
 10
16716.5
 20
15449.79
 10
16716.5
 20
15483.79
 10
16697.5
 20
15483.79
  0
MTEXT
  5
3A
330
17
100
AcDbEntity
  8
Texto Secao
100
AcDbMText
 10
16707.0
 20
15188.79
 30
0.0
 40
10.0
 71
1
  1
P1.B
  0
LWPOLYLINE
  5
3B
330
17
100
AcDbEntity
  8
Paineis
100
AcDbPolyline
 90
4
 70
1
 10
16746.5
 20
15203.79
 10
16784.5
 20
15203.79
 10
16784.5
 20
15205.79
 10
16746.5
 20
15205.79
  0
LWPOLYLINE
  5
3C
330
17
100
AcDbEntity
  8
Paineis
100
AcDbPolyline
 90
4
 70
1
 10
16746.5
 20
15205.79
 10
16784.5
 20
15205.79
 10
16784.5
 20
15449.79
 10
16746.5
 20
15449.79
  0
LWPOLYLINE
  5
3D
330
17
100
AcDbEntity
  8
Paineis
100
AcDbPolyline
 90
4
 70
1
 10
16746.5
 20
15449.79
 10
16784.5
 20
15449.79
 10
16784.5
 20
15483.79
 10
16746.5
 20
15483.79
  0
MTEXT
  5
3E
330
17
100
AcDbEntity
  8
Texto Secao
100
AcDbMText
 10
16765.5
 20
15188.79
 30
0.0
 40
10.0
 71
1
  1
P1.C
  0
LWPOLYLINE
  5
3F
330
17
100
AcDbEntity
  8
Paineis
100
AcDbPolyline
 90
4
 70
1
 10
16814.5
 20
15203.79
 10
16833.5
 20
15203.79
 10
16833.5
 20
15205.79
 10
16814.5
 20
15205.79
  0
LWPOLYLINE
  5
40
330
17
100
AcDbEntity
  8
Paineis
100
AcDbPolyline
 90
4
 70
1
 10
16814.5
 20
15205.79
 10
16833.5
 20
15205.79
 10
16833.5
 20
15449.79
 10
16814.5
 20
15449.79
  0
LWPOLYLINE
  5
41
330
17
100
AcDbEntity
  8
Paineis
100
AcDbPolyline
 90
4
 70
1
 10
16814.5
 20
15449.79
 10
16833.5
 20
15449.79
 10
16833.5
 20
15483.79
 10
16814.5
 20
15483.79
  0
MTEXT
  5
42
330
17
100
AcDbEntity
  8
Texto Secao
100
AcDbMText
 10
16824.0
 20
15188.79
 30
0.0
 40
10.0
 71
1
  1
P1.D
  0
MTEXT
  5
43
330
17
100
AcDbEntity
  8
Cota Secao (2x)
100
AcDbMText
 10
16629.5
 20
15508.79
 30
0.0
 40
8.0
 71
1
  1
B=19cm  H=38cm
  0
MTEXT
  5
44
330
17
100
AcDbEntity
  8
NOMENCLATURA
100
AcDbMText
 10
16629.5
 20
15533.79
 30
0.0
 40
10.0
 71
1
  1
GWT-TIP - P1
  0
LWPOLYLINE
  5
45
330
17
100
AcDbEntity
  8
Paineis
100
AcDbPolyline
 90
4
 70
1
 10
17829.84
 20
15198.03
 10
17920.84
 20
15198.03
 10
17920.84
 20
15200.03
 10
17829.84
 20
15200.03
  0
LWPOLYLINE
  5
46
330
17
100
AcDbEntity
  8
Paineis
100
AcDbPolyline
 90
4
 70
1
 10
17829.84
 20
15200.03
 10
17920.84
 20
15200.03
 10
17920.84
 20
15444.03
 10
17829.84
 20
15444.03
  0
LWPOLYLINE
  5
47
330
17
100
AcDbEntity
  8
Paineis
100
AcDbPolyline
 90
4
 70
1
 10
17829.84
 20
15444.03
 10
17920.84
 20
15444.03
 10
17920.84
 20
15478.03
 10
17829.84
 20
15478.03
  0
MTEXT
  5
48
330
17
100
AcDbEntity
  8
Texto Secao
100
AcDbMText
 10
17875.34
 20
15183.03
 30
0.0
 40
10.0
 71
1
  1
P2.A
  0
LWPOLYLINE
  5
49
330
17
100
AcDbEntity
  8
Paineis
100
AcDbPolyline
 90
4
 70
1
 10
17950.84
 20
15198.03
 10
17988.84
 20
15198.03
 10
17988.84
 20
15200.03
 10
17950.84
 20
15200.03
  0
LWPOLYLINE
  5
4A
330
17
100
AcDbEntity
  8
Paineis
100
AcDbPolyline
 90
4
 70
1
 10
17950.84
 20
15200.03
 10
17988.84
 20
15200.03
 10
17988.84
 20
15444.03
 10
17950.84
 20
15444.03
  0
LWPOLYLINE
  5
4B
330
17
100
AcDbEntity
  8
Paineis
100
AcDbPolyline
 90
4
 70
1
 10
17950.84
 20
15444.03
 10
17988.84
 20
15444.03
 10
17988.84
 20
15478.03
 10
17950.84
 20
15478.03
  0
MTEXT
  5
4C
330
17
100
AcDbEntity
  8
Texto Secao
100
AcDbMText
 10
17969.84
 20
15183.03
 30
0.0
 40
10.0
 71
1
  1
P2.B
  0
LWPOLYLINE
  5
4D
330
17
100
AcDbEntity
  8
Paineis
100
AcDbPolyline
 90
4
 70
1
 10
18018.84
 20
15198.03
 10
18109.84
 20
15198.03
 10
18109.84
 20
15200.03
 10
18018.84
 20
15200.03
  0
LWPOLYLINE
  5
4E
330
17
100
AcDbEntity
  8
Paineis
100
AcDbPolyline
 90
4
 70
1
 10
18018.84
 20
15200.03
 10
18109.84
 20
15200.03
 10
18109.84
 20
15444.03
 10
18018.84
 20
15444.03
  0
LWPOLYLINE
  5
4F
330
17
100
AcDbEntity
  8
Paineis
100
AcDbPolyline
 90
4
 70
1
 10
18018.84
 20
15444.03
 10
18109.84
 20
15444.03
 10
18109.84
 20
15478.03
 10
18018.84
 20
15478.03
  0
MTEXT
  5
50
330
17
100
AcDbEntity
  8
Texto Secao
100
AcDbMText
 10
18064.34
 20
15183.03
 30
0.0
 40
10.0
 71
1
  1
P2.C
  0
LWPOLYLINE
  5
51
330
17
100
AcDbEntity
  8
Paineis
100
AcDbPolyline
 90
4
 70
1
 10
18139.84
 20
15198.03
 10
18177.84
 20
15198.03
 10
18177.84
 20
15200.03
 10
18139.84
 20
15200.03
  0
LWPOLYLINE
  5
52
330
17
100
AcDbEntity
  8
Paineis
100
AcDbPolyline
 90
4
 70
1
 10
18139.84
 20
15200.03
 10
18177.84
 20
15200.03
 10
18177.84
 20
15444.03
 10
18139.84
 20
15444.03
  0
LWPOLYLINE
  5
53
330
17
100
AcDbEntity
  8
Paineis
100
AcDbPolyline
 90
4
 70
1
 10
18139.84
 20
15444.03
 10
18177.84
 20
15444.03
 10
18177.84
 20
15478.03
 10
18139.84
 20
15478.03
  0
MTEXT
  5
54
330
17
100
AcDbEntity
  8
Texto Secao
100
AcDbMText
 10
18158.84
 20
15183.03
 30
0.0
 40
10.0
 71
1
  1
P2.D
  0
MTEXT
  5
55
330
17
100
AcDbEntity
  8
Cota Secao (2x)
100
AcDbMText
 10
17829.84
 20
15503.03
 30
0.0
 40
8.0
 71
1
  1
B=38cm  H=91cm
  0
MTEXT
  5
56
330
17
100
AcDbEntity
  8
NOMENCLATURA
100
AcDbMText
 10
17829.84
 20
15528.03
 30
0.0
 40
10.0
 71
1
  1
GWT-TIP - P2
  0
LWPOLYLINE
  5
57
330
17
100
AcDbEntity
  8
Paineis
100
AcDbPolyline
 90
4
 70
1
 10
16566.22
 20
14261.9
 10
16655.72
 20
14261.9
 10
16655.72
 20
14263.9
 10
16566.22
 20
14263.9
  0
LWPOLYLINE
  5
58
330
17
100
AcDbEntity
  8
Paineis
100
AcDbPolyline
 90
4
 70
1
 10
16566.22
 20
14263.9
 10
16655.72
 20
14263.9
 10
16655.72
 20
14507.9
 10
16566.22
 20
14507.9
  0
LWPOLYLINE
  5
59
330
17
100
AcDbEntity
  8
Paineis
100
AcDbPolyline
 90
4
 70
1
 10
16566.22
 20
14507.9
 10
16655.72
 20
14507.9
 10
16655.72
 20
14541.9
 10
16566.22
 20
14541.9
  0
MTEXT
  5
5A
330
17
100
AcDbEntity
  8
Texto Secao
100
AcDbMText
 10
16610.97
 20
14246.9
 30
0.0
 40
10.0
 71
1
  1
P3.A
  0
LWPOLYLINE
  5
5B
330
17
100
AcDbEntity
  8
Paineis
100
AcDbPolyline
 90
4
 70
1
 10
16685.72
 20
14261.9
 10
16730.72
 20
14261.9
 10
16730.72
 20
14263.9
 10
16685.72
 20
14263.9
  0
LWPOLYLINE
  5
5C
330
17
100
AcDbEntity
  8
Paineis
100
AcDbPolyline
 90
4
 70
1
 10
16685.72
 20
14263.9
 10
16730.72
 20
14263.9
 10
16730.72
 20
14507.9
 10
16685.72
 20
14507.9
  0
LWPOLYLINE
  5
5D
330
17
100
AcDbEntity
  8
Paineis
100
AcDbPolyline
 90
4
 70
1
 10
16685.72
 20
14507.9
 10
16730.72
 20
14507.9
 10
16730.72
 20
14541.9
 10
16685.72
 20
14541.9
  0
MTEXT
  5
5E
330
17
100
AcDbEntity
  8
Texto Secao
100
AcDbMText
 10
16708.22
 20
14246.9
 30
0.0
 40
10.0
 71
1
  1
P3.B
  0
LWPOLYLINE
  5
5F
330
17
100
AcDbEntity
  8
Paineis
100
AcDbPolyline
 90
4
 70
1
 10
16760.72
 20
14261.9
 10
16850.22
 20
14261.9
 10
16850.22
 20
14263.9
 10
16760.72
 20
14263.9
  0
LWPOLYLINE
  5
60
330
17
100
AcDbEntity
  8
Paineis
100
AcDbPolyline
 90
4
 70
1
 10
16760.72
 20
14263.9
 10
16850.22
 20
14263.9
 10
16850.22
 20
14507.9
 10
16760.72
 20
14507.9
  0
LWPOLYLINE
  5
61
330
17
100
AcDbEntity
  8
Paineis
100
AcDbPolyline
 90
4
 70
1
 10
16760.72
 20
14507.9
 10
16850.22
 20
14507.9
 10
16850.22
 20
14541.9
 10
16760.72
 20
14541.9
  0
MTEXT
  5
62
330
17
100
AcDbEntity
  8
Texto Secao
100
AcDbMText
 10
16805.47
 20
14246.9
 30
0.0
 40
10.0
 71
1
  1
P3.C
  0
LWPOLYLINE
  5
63
330
17
100
AcDbEntity
  8
Paineis
100
AcDbPolyline
 90
4
 70
1
 10
16880.22
 20
14261.9
 10
16925.22
 20
14261.9
 10
16925.22
 20
14263.9
 10
16880.22
 20
14263.9
  0
LWPOLYLINE
  5
64
330
17
100
AcDbEntity
  8
Paineis
100
AcDbPolyline
 90
4
 70
1
 10
16880.22
 20
14263.9
 10
16925.22
 20
14263.9
 10
16925.22
 20
14507.9
 10
16880.22
 20
14507.9
  0
LWPOLYLINE
  5
65
330
17
100
AcDbEntity
  8
Paineis
100
AcDbPolyline
 90
4
 70
1
 10
16880.22
 20
14507.9
 10
16925.22
 20
14507.9
 10
16925.22
 20
14541.9
 10
16880.22
 20
14541.9
  0
MTEXT
  5
66
330
17
100
AcDbEntity
  8
Texto Secao
100
AcDbMText
 10
16902.72
 20
14246.9
 30
0.0
 40
10.0
 71
1
  1
P3.D
  0
MTEXT
  5
67
330
17
100
AcDbEntity
  8
Cota Secao (2x)
100
AcDbMText
 10
16566.22
 20
14566.9
 30
0.0
 40
8.0
 71
1
  1
B=45cm  H=90cm
  0
MTEXT
  5
68
330
17
100
AcDbEntity
  8
NOMENCLATURA
100
AcDbMText
 10
16566.22
 20
14591.9
 30
0.0
 40
10.0
 71
1
  1
GWT-TIP - P3
  0
LWPOLYLINE
  5
69
330
17
100
AcDbEntity
  8
Paineis
100
AcDbPolyline
 90
4
 70
1
 10
17783.45
 20
14258.18
 10
17859.45
 20
14258.18
 10
17859.45
 20
14260.18
 10
17783.45
 20
14260.18
  0
LWPOLYLINE
  5
6A
330
17
100
AcDbEntity
  8
Paineis
100
AcDbPolyline
 90
4
 70
1
 10
17783.45
 20
14260.18
 10
17859.45
 20
14260.18
 10
17859.45
 20
14504.18
 10
17783.45
 20
14504.18
  0
LWPOLYLINE
  5
6B
330
17
100
AcDbEntity
  8
Paineis
100
AcDbPolyline
 90
4
 70
1
 10
17783.45
 20
14504.18
 10
17859.45
 20
14504.18
 10
17859.45
 20
14538.18
 10
17783.45
 20
14538.18
  0
MTEXT
  5
6C
330
17
100
AcDbEntity
  8
Texto Secao
100
AcDbMText
 10
17821.45
 20
14243.18
 30
0.0
 40
10.0
 71
1
  1
P4.A
  0
LWPOLYLINE
  5
6D
330
17
100
AcDbEntity
  8
Paineis
100
AcDbPolyline
 90
4
 70
1
 10
17889.45
 20
14258.18
 10
17938.45
 20
14258.18
 10
17938.45
 20
14260.18
 10
17889.45
 20
14260.18
  0
LWPOLYLINE
  5
6E
330
17
100
AcDbEntity
  8
Paineis
100
AcDbPolyline
 90
4
 70
1
 10
17889.45
 20
14260.18
 10
17938.45
 20
14260.18
 10
17938.45
 20
14504.18
 10
17889.45
 20
14504.18
  0
LWPOLYLINE
  5
6F
330
17
100
AcDbEntity
  8
Paineis
100
AcDbPolyline
 90
4
 70
1
 10
17889.45
 20
14504.18
 10
17938.45
 20
14504.18
 10
17938.45
 20
14538.18
 10
17889.45
 20
14538.18
  0
MTEXT
  5
70
330
17
100
AcDbEntity
  8
Texto Secao
100
AcDbMText
 10
17913.95
 20
14243.18
 30
0.0
 40
10.0
 71
1
  1
P4.B
  0
LWPOLYLINE
  5
71
330
17
100
AcDbEntity
  8
Paineis
100
AcDbPolyline
 90
4
 70
1
 10
17968.45
 20
14258.18
 10
18044.45
 20
14258.18
 10
18044.45
 20
14260.18
 10
17968.45
 20
14260.18
  0
LWPOLYLINE
  5
72
330
17
100
AcDbEntity
  8
Paineis
100
AcDbPolyline
 90
4
 70
1
 10
17968.45
 20
14260.18
 10
18044.45
 20
14260.18
 10
18044.45
 20
14504.18
 10
17968.45
 20
14504.18
  0
LWPOLYLINE
  5
73
330
17
100
AcDbEntity
  8
Paineis
100
AcDbPolyline
 90
4
 70
1
 10
17968.45
 20
14504.18
 10
18044.45
 20
14504.18
 10
18044.45
 20
14538.18
 10
17968.45
 20
14538.18
  0
MTEXT
  5
74
330
17
100
AcDbEntity
  8
Texto Secao
100
AcDbMText
 10
18006.45
 20
14243.18
 30
0.0
 40
10.0
 71
1
  1
P4.C
  0
LWPOLYLINE
  5
75
330
17
100
AcDbEntity
  8
Paineis
100
AcDbPolyline
 90
4
 70
1
 10
18074.45
 20
14258.18
 10
18123.45
 20
14258.18
 10
18123.45
 20
14260.18
 10
18074.45
 20
14260.18
  0
LWPOLYLINE
  5
76
330
17
100
AcDbEntity
  8
Paineis
100
AcDbPolyline
 90
4
 70
1
 10
18074.45
 20
14260.18
 10
18123.45
 20
14260.18
 10
18123.45
 20
14504.18
 10
18074.45
 20
14504.18
  0
LWPOLYLINE
  5
77
330
17
100
AcDbEntity
  8
Paineis
100
AcDbPolyline
 90
4
 70
1
 10
18074.45
 20
14504.18
 10
18123.45
 20
14504.18
 10
18123.45
 20
14538.18
 10
18074.45
 20
14538.18
  0
MTEXT
  5
78
330
17
100
AcDbEntity
  8
Texto Secao
100
AcDbMText
 10
18098.95
 20
14243.18
 30
0.0
 40
10.0
 71
1
  1
P4.D
  0
MTEXT
  5
79
330
17
100
AcDbEntity
  8
Cota Secao (2x)
100
AcDbMText
 10
17783.45
 20
14563.18
 30
0.0
 40
8.0
 71
1
  1
B=49cm  H=76cm
  0
MTEXT
  5
7A
330
17
100
AcDbEntity
  8
NOMENCLATURA
100
AcDbMText
 10
17783.45
 20
14588.18
 30
0.0
 40
10.0
 71
1
  1
GWT-TIP - P4
  0
LWPOLYLINE
  5
7B
330
17
100
AcDbEntity
  8
Paineis
100
AcDbPolyline
 90
4
 70
1
 10
18998.32
 20
14252.42
 10
19074.32
 20
14252.42
 10
19074.32
 20
14254.42
 10
18998.32
 20
14254.42
  0
LWPOLYLINE
  5
7C
330
17
100
AcDbEntity
  8
Paineis
100
AcDbPolyline
 90
4
 70
1
 10
18998.32
 20
14254.42
 10
19074.32
 20
14254.42
 10
19074.32
 20
14498.42
 10
18998.32
 20
14498.42
  0
LWPOLYLINE
  5
7D
330
17
100
AcDbEntity
  8
Paineis
100
AcDbPolyline
 90
4
 70
1
 10
18998.32
 20
14498.42
 10
19074.32
 20
14498.42
 10
19074.32
 20
14532.42
 10
18998.32
 20
14532.42
  0
MTEXT
  5
7E
330
17
100
AcDbEntity
  8
Texto Secao
100
AcDbMText
 10
19036.32
 20
14237.42
 30
0.0
 40
10.0
 71
1
  1
P5.A
  0
LWPOLYLINE
  5
7F
330
17
100
AcDbEntity
  8
Paineis
100
AcDbPolyline
 90
4
 70
1
 10
19104.32
 20
14252.42
 10
19153.32
 20
14252.42
 10
19153.32
 20
14254.42
 10
19104.32
 20
14254.42
  0
LWPOLYLINE
  5
80
330
17
100
AcDbEntity
  8
Paineis
100
AcDbPolyline
 90
4
 70
1
 10
19104.32
 20
14254.42
 10
19153.32
 20
14254.42
 10
19153.32
 20
14498.42
 10
19104.32
 20
14498.42
  0
LWPOLYLINE
  5
81
330
17
100
AcDbEntity
  8
Paineis
100
AcDbPolyline
 90
4
 70
1
 10
19104.32
 20
14498.42
 10
19153.32
 20
14498.42
 10
19153.32
 20
14532.42
 10
19104.32
 20
14532.42
  0
MTEXT
  5
82
330
17
100
AcDbEntity
  8
Texto Secao
100
AcDbMText
 10
19128.82
 20
14237.42
 30
0.0
 40
10.0
 71
1
  1
P5.B
  0
LWPOLYLINE
  5
83
330
17
100
AcDbEntity
  8
Paineis
100
AcDbPolyline
 90
4
 70
1
 10
19183.32
 20
14252.42
 10
19259.32
 20
14252.42
 10
19259.32
 20
14254.42
 10
19183.32
 20
14254.42
  0
LWPOLYLINE
  5
84
330
17
100
AcDbEntity
  8
Paineis
100
AcDbPolyline
 90
4
 70
1
 10
19183.32
 20
14254.42
 10
19259.32
 20
14254.42
 10
19259.32
 20
14498.42
 10
19183.32
 20
14498.42
  0
LWPOLYLINE
  5
85
330
17
100
AcDbEntity
  8
Paineis
100
AcDbPolyline
 90
4
 70
1
 10
19183.32
 20
14498.42
 10
19259.32
 20
14498.42
 10
19259.32
 20
14532.42
 10
19183.32
 20
14532.42
  0
MTEXT
  5
86
330
17
100
AcDbEntity
  8
Texto Secao
100
AcDbMText
 10
19221.32
 20
14237.42
 30
0.0
 40
10.0
 71
1
  1
P5.C
  0
LWPOLYLINE
  5
87
330
17
100
AcDbEntity
  8
Paineis
100
AcDbPolyline
 90
4
 70
1
 10
19289.32
 20
14252.42
 10
19338.32
 20
14252.42
 10
19338.32
 20
14254.42
 10
19289.32
 20
14254.42
  0
LWPOLYLINE
  5
88
330
17
100
AcDbEntity
  8
Paineis
100
AcDbPolyline
 90
4
 70
1
 10
19289.32
 20
14254.42
 10
19338.32
 20
14254.42
 10
19338.32
 20
14498.42
 10
19289.32
 20
14498.42
  0
LWPOLYLINE
  5
89
330
17
100
AcDbEntity
  8
Paineis
100
AcDbPolyline
 90
4
 70
1
 10
19289.32
 20
14498.42
 10
19338.32
 20
14498.42
 10
19338.32
 20
14532.42
 10
19289.32
 20
14532.42
  0
MTEXT
  5
8A
330
17
100
AcDbEntity
  8
Texto Secao
100
AcDbMText
 10
19313.82
 20
14237.42
 30
0.0
 40
10.0
 71
1
  1
P5.D
  0
MTEXT
  5
8B
330
17
100
AcDbEntity
  8
Cota Secao (2x)
100
AcDbMText
 10
18998.32
 20
14557.42
 30
0.0
 40
8.0
 71
1
  1
B=49cm  H=76cm
  0
MTEXT
  5
8C
330
17
100
AcDbEntity
  8
NOMENCLATURA
100
AcDbMText
 10
18998.32
 20
14582.42
 30
0.0
 40
10.0
 71
1
  1
GWT-TIP - P5
  0
LWPOLYLINE
  5
8D
330
17
100
AcDbEntity
  8
Paineis
100
AcDbPolyline
 90
4
 70
1
 10
15191.02
 20
13327.8
 10
15267.02
 20
13327.8
 10
15267.02
 20
13329.8
 10
15191.02
 20
13329.8
  0
LWPOLYLINE
  5
8E
330
17
100
AcDbEntity
  8
Paineis
100
AcDbPolyline
 90
4
 70
1
 10
15191.02
 20
13329.8
 10
15267.02
 20
13329.8
 10
15267.02
 20
13573.8
 10
15191.02
 20
13573.8
  0
LWPOLYLINE
  5
8F
330
17
100
AcDbEntity
  8
Paineis
100
AcDbPolyline
 90
4
 70
1
 10
15191.02
 20
13573.8
 10
15267.02
 20
13573.8
 10
15267.02
 20
13607.8
 10
15191.02
 20
13607.8
  0
MTEXT
  5
90
330
17
100
AcDbEntity
  8
Texto Secao
100
AcDbMText
 10
15229.02
 20
13312.8
 30
0.0
 40
10.0
 71
1
  1
P6.A
  0
LWPOLYLINE
  5
91
330
17
100
AcDbEntity
  8
Paineis
100
AcDbPolyline
 90
4
 70
1
 10
15297.02
 20
13327.8
 10
15346.02
 20
13327.8
 10
15346.02
 20
13329.8
 10
15297.02
 20
13329.8
  0
LWPOLYLINE
  5
92
330
17
100
AcDbEntity
  8
Paineis
100
AcDbPolyline
 90
4
 70
1
 10
15297.02
 20
13329.8
 10
15346.02
 20
13329.8
 10
15346.02
 20
13573.8
 10
15297.02
 20
13573.8
  0
LWPOLYLINE
  5
93
330
17
100
AcDbEntity
  8
Paineis
100
AcDbPolyline
 90
4
 70
1
 10
15297.02
 20
13573.8
 10
15346.02
 20
13573.8
 10
15346.02
 20
13607.8
 10
15297.02
 20
13607.8
  0
MTEXT
  5
94
330
17
100
AcDbEntity
  8
Texto Secao
100
AcDbMText
 10
15321.52
 20
13312.8
 30
0.0
 40
10.0
 71
1
  1
P6.B
  0
LWPOLYLINE
  5
95
330
17
100
AcDbEntity
  8
Paineis
100
AcDbPolyline
 90
4
 70
1
 10
15376.02
 20
13327.8
 10
15452.02
 20
13327.8
 10
15452.02
 20
13329.8
 10
15376.02
 20
13329.8
  0
LWPOLYLINE
  5
96
330
17
100
AcDbEntity
  8
Paineis
100
AcDbPolyline
 90
4
 70
1
 10
15376.02
 20
13329.8
 10
15452.02
 20
13329.8
 10
15452.02
 20
13573.8
 10
15376.02
 20
13573.8
  0
LWPOLYLINE
  5
97
330
17
100
AcDbEntity
  8
Paineis
100
AcDbPolyline
 90
4
 70
1
 10
15376.02
 20
13573.8
 10
15452.02
 20
13573.8
 10
15452.02
 20
13607.8
 10
15376.02
 20
13607.8
  0
MTEXT
  5
98
330
17
100
AcDbEntity
  8
Texto Secao
100
AcDbMText
 10
15414.02
 20
13312.8
 30
0.0
 40
10.0
 71
1
  1
P6.C
  0
LWPOLYLINE
  5
99
330
17
100
AcDbEntity
  8
Paineis
100
AcDbPolyline
 90
4
 70
1
 10
15482.02
 20
13327.8
 10
15531.02
 20
13327.8
 10
15531.02
 20
13329.8
 10
15482.02
 20
13329.8
  0
LWPOLYLINE
  5
9A
330
17
100
AcDbEntity
  8
Paineis
100
AcDbPolyline
 90
4
 70
1
 10
15482.02
 20
13329.8
 10
15531.02
 20
13329.8
 10
15531.02
 20
13573.8
 10
15482.02
 20
13573.8
  0
LWPOLYLINE
  5
9B
330
17
100
AcDbEntity
  8
Paineis
100
AcDbPolyline
 90
4
 70
1
 10
15482.02
 20
13573.8
 10
15531.02
 20
13573.8
 10
15531.02
 20
13607.8
 10
15482.02
 20
13607.8
  0
MTEXT
  5
9C
330
17
100
AcDbEntity
  8
Texto Secao
100
AcDbMText
 10
15506.52
 20
13312.8
 30
0.0
 40
10.0
 71
1
  1
P6.D
  0
MTEXT
  5
9D
330
17
100
AcDbEntity
  8
Cota Secao (2x)
100
AcDbMText
 10
15191.02
 20
13632.8
 30
0.0
 40
8.0
 71
1
  1
B=49cm  H=76cm
  0
MTEXT
  5
9E
330
17
100
AcDbEntity
  8
NOMENCLATURA
100
AcDbMText
 10
15191.02
 20
13657.8
 30
0.0
 40
10.0
 71
1
  1
GWT-TIP - P6
  0
LWPOLYLINE
  5
9F
330
17
100
AcDbEntity
  8
Paineis
100
AcDbPolyline
 90
4
 70
1
 10
16582.83
 20
13320.0
 10
16658.83
 20
13320.0
 10
16658.83
 20
13322.0
 10
16582.83
 20
13322.0
  0
LWPOLYLINE
  5
A0
330
17
100
AcDbEntity
  8
Paineis
100
AcDbPolyline
 90
4
 70
1
 10
16582.83
 20
13322.0
 10
16658.83
 20
13322.0
 10
16658.83
 20
13566.0
 10
16582.83
 20
13566.0
  0
LWPOLYLINE
  5
A1
330
17
100
AcDbEntity
  8
Paineis
100
AcDbPolyline
 90
4
 70
1
 10
16582.83
 20
13566.0
 10
16658.83
 20
13566.0
 10
16658.83
 20
13600.0
 10
16582.83
 20
13600.0
  0
MTEXT
  5
A2
330
17
100
AcDbEntity
  8
Texto Secao
100
AcDbMText
 10
16620.83
 20
13305.0
 30
0.0
 40
10.0
 71
1
  1
P7.A
  0
LWPOLYLINE
  5
A3
330
17
100
AcDbEntity
  8
Paineis
100
AcDbPolyline
 90
4
 70
1
 10
16688.83
 20
13320.0
 10
16722.83
 20
13320.0
 10
16722.83
 20
13322.0
 10
16688.83
 20
13322.0
  0
LWPOLYLINE
  5
A4
330
17
100
AcDbEntity
  8
Paineis
100
AcDbPolyline
 90
4
 70
1
 10
16688.83
 20
13322.0
 10
16722.83
 20
13322.0
 10
16722.83
 20
13566.0
 10
16688.83
 20
13566.0
  0
LWPOLYLINE
  5
A5
330
17
100
AcDbEntity
  8
Paineis
100
AcDbPolyline
 90
4
 70
1
 10
16688.83
 20
13566.0
 10
16722.83
 20
13566.0
 10
16722.83
 20
13600.0
 10
16688.83
 20
13600.0
  0
MTEXT
  5
A6
330
17
100
AcDbEntity
  8
Texto Secao
100
AcDbMText
 10
16705.83
 20
13305.0
 30
0.0
 40
10.0
 71
1
  1
P7.B
  0
LWPOLYLINE
  5
A7
330
17
100
AcDbEntity
  8
Paineis
100
AcDbPolyline
 90
4
 70
1
 10
16752.83
 20
13320.0
 10
16828.83
 20
13320.0
 10
16828.83
 20
13322.0
 10
16752.83
 20
13322.0
  0
LWPOLYLINE
  5
A8
330
17
100
AcDbEntity
  8
Paineis
100
AcDbPolyline
 90
4
 70
1
 10
16752.83
 20
13322.0
 10
16828.83
 20
13322.0
 10
16828.83
 20
13566.0
 10
16752.83
 20
13566.0
  0
LWPOLYLINE
  5
A9
330
17
100
AcDbEntity
  8
Paineis
100
AcDbPolyline
 90
4
 70
1
 10
16752.83
 20
13566.0
 10
16828.83
 20
13566.0
 10
16828.83
 20
13600.0
 10
16752.83
 20
13600.0
  0
MTEXT
  5
AA
330
17
100
AcDbEntity
  8
Texto Secao
100
AcDbMText
 10
16790.83
 20
13305.0
 30
0.0
 40
10.0
 71
1
  1
P7.C
  0
LWPOLYLINE
  5
AB
330
17
100
AcDbEntity
  8
Paineis
100
AcDbPolyline
 90
4
 70
1
 10
16858.83
 20
13320.0
 10
16892.83
 20
13320.0
 10
16892.83
 20
13322.0
 10
16858.83
 20
13322.0
  0
LWPOLYLINE
  5
AC
330
17
100
AcDbEntity
  8
Paineis
100
AcDbPolyline
 90
4
 70
1
 10
16858.83
 20
13322.0
 10
16892.83
 20
13322.0
 10
16892.83
 20
13566.0
 10
16858.83
 20
13566.0
  0
LWPOLYLINE
  5
AD
330
17
100
AcDbEntity
  8
Paineis
100
AcDbPolyline
 90
4
 70
1
 10
16858.83
 20
13566.0
 10
16892.83
 20
13566.0
 10
16892.83
 20
13600.0
 10
16858.83
 20
13600.0
  0
MTEXT
  5
AE
330
17
100
AcDbEntity
  8
Texto Secao
100
AcDbMText
 10
16875.83
 20
13305.0
 30
0.0
 40
10.0
 71
1
  1
P7.D
  0
MTEXT
  5
AF
330
17
100
AcDbEntity
  8
Cota Secao (2x)
100
AcDbMText
 10
16582.83
 20
13625.0
 30
0.0
 40
8.0
 71
1
  1
B=34cm  H=76cm
  0
MTEXT
  5
B0
330
17
100
AcDbEntity
  8
NOMENCLATURA
100
AcDbMText
 10
16582.83
 20
13650.0
 30
0.0
 40
10.0
 71
1
  1
GWT-TIP - P7
  0
LWPOLYLINE
  5
B1
330
17
100
AcDbEntity
  8
Paineis
100
AcDbPolyline
 90
4
 70
1
 10
17814.93
 20
13314.24
 10
17905.93
 20
13314.24
 10
17905.93
 20
13316.24
 10
17814.93
 20
13316.24
  0
LWPOLYLINE
  5
B2
330
17
100
AcDbEntity
  8
Paineis
100
AcDbPolyline
 90
4
 70
1
 10
17814.93
 20
13316.24
 10
17905.93
 20
13316.24
 10
17905.93
 20
13560.24
 10
17814.93
 20
13560.24
  0
LWPOLYLINE
  5
B3
330
17
100
AcDbEntity
  8
Paineis
100
AcDbPolyline
 90
4
 70
1
 10
17814.93
 20
13560.24
 10
17905.93
 20
13560.24
 10
17905.93
 20
13594.24
 10
17814.93
 20
13594.24
  0
MTEXT
  5
B4
330
17
100
AcDbEntity
  8
Texto Secao
100
AcDbMText
 10
17860.43
 20
13299.24
 30
0.0
 40
10.0
 71
1
  1
P8.A
  0
LWPOLYLINE
  5
B5
330
17
100
AcDbEntity
  8
Paineis
100
AcDbPolyline
 90
4
 70
1
 10
17935.93
 20
13314.24
 10
17973.93
 20
13314.24
 10
17973.93
 20
13316.24
 10
17935.93
 20
13316.24
  0
LWPOLYLINE
  5
B6
330
17
100
AcDbEntity
  8
Paineis
100
AcDbPolyline
 90
4
 70
1
 10
17935.93
 20
13316.24
 10
17973.93
 20
13316.24
 10
17973.93
 20
13560.24
 10
17935.93
 20
13560.24
  0
LWPOLYLINE
  5
B7
330
17
100
AcDbEntity
  8
Paineis
100
AcDbPolyline
 90
4
 70
1
 10
17935.93
 20
13560.24
 10
17973.93
 20
13560.24
 10
17973.93
 20
13594.24
 10
17935.93
 20
13594.24
  0
MTEXT
  5
B8
330
17
100
AcDbEntity
  8
Texto Secao
100
AcDbMText
 10
17954.93
 20
13299.24
 30
0.0
 40
10.0
 71
1
  1
P8.B
  0
LWPOLYLINE
  5
B9
330
17
100
AcDbEntity
  8
Paineis
100
AcDbPolyline
 90
4
 70
1
 10
18003.93
 20
13314.24
 10
18094.93
 20
13314.24
 10
18094.93
 20
13316.24
 10
18003.93
 20
13316.24
  0
LWPOLYLINE
  5
BA
330
17
100
AcDbEntity
  8
Paineis
100
AcDbPolyline
 90
4
 70
1
 10
18003.93
 20
13316.24
 10
18094.93
 20
13316.24
 10
18094.93
 20
13560.24
 10
18003.93
 20
13560.24
  0
LWPOLYLINE
  5
BB
330
17
100
AcDbEntity
  8
Paineis
100
AcDbPolyline
 90
4
 70
1
 10
18003.93
 20
13560.24
 10
18094.93
 20
13560.24
 10
18094.93
 20
13594.24
 10
18003.93
 20
13594.24
  0
MTEXT
  5
BC
330
17
100
AcDbEntity
  8
Texto Secao
100
AcDbMText
 10
18049.43
 20
13299.24
 30
0.0
 40
10.0
 71
1
  1
P8.C
  0
LWPOLYLINE
  5
BD
330
17
100
AcDbEntity
  8
Paineis
100
AcDbPolyline
 90
4
 70
1
 10
18124.93
 20
13314.24
 10
18162.93
 20
13314.24
 10
18162.93
 20
13316.24
 10
18124.93
 20
13316.24
  0
LWPOLYLINE
  5
BE
330
17
100
AcDbEntity
  8
Paineis
100
AcDbPolyline
 90
4
 70
1
 10
18124.93
 20
13316.24
 10
18162.93
 20
13316.24
 10
18162.93
 20
13560.24
 10
18124.93
 20
13560.24
  0
LWPOLYLINE
  5
BF
330
17
100
AcDbEntity
  8
Paineis
100
AcDbPolyline
 90
4
 70
1
 10
18124.93
 20
13560.24
 10
18162.93
 20
13560.24
 10
18162.93
 20
13594.24
 10
18124.93
 20
13594.24
  0
MTEXT
  5
C0
330
17
100
AcDbEntity
  8
Texto Secao
100
AcDbMText
 10
18143.93
 20
13299.24
 30
0.0
 40
10.0
 71
1
  1
P8.D
  0
MTEXT
  5
C1
330
17
100
AcDbEntity
  8
Cota Secao (2x)
100
AcDbMText
 10
17814.93
 20
13619.24
 30
0.0
 40
8.0
 71
1
  1
B=38cm  H=91cm
  0
MTEXT
  5
C2
330
17
100
AcDbEntity
  8
NOMENCLATURA
100
AcDbMText
 10
17814.93
 20
13644.24
 30
0.0
 40
10.0
 71
1
  1
GWT-TIP - P8
  0
LWPOLYLINE
  5
C3
330
17
100
AcDbEntity
  8
Paineis
100
AcDbPolyline
 90
4
 70
1
 10
19134.41
 20
15192.27
 10
19225.41
 20
15192.27
 10
19225.41
 20
15194.27
 10
19134.41
 20
15194.27
  0
LWPOLYLINE
  5
C4
330
17
100
AcDbEntity
  8
Paineis
100
AcDbPolyline
 90
4
 70
1
 10
19134.41
 20
15194.27
 10
19225.41
 20
15194.27
 10
19225.41
 20
15438.27
 10
19134.41
 20
15438.27
  0
LWPOLYLINE
  5
C5
330
17
100
AcDbEntity
  8
Paineis
100
AcDbPolyline
 90
4
 70
1
 10
19134.41
 20
15438.27
 10
19225.41
 20
15438.27
 10
19225.41
 20
15472.27
 10
19134.41
 20
15472.27
  0
MTEXT
  5
C6
330
17
100
AcDbEntity
  8
Texto Secao
100
AcDbMText
 10
19179.91
 20
15177.27
 30
0.0
 40
10.0
 71
1
  1
P9.A
  0
LWPOLYLINE
  5
C7
330
17
100
AcDbEntity
  8
Paineis
100
AcDbPolyline
 90
4
 70
1
 10
19255.41
 20
15192.27
 10
19274.41
 20
15192.27
 10
19274.41
 20
15194.27
 10
19255.41
 20
15194.27
  0
LWPOLYLINE
  5
C8
330
17
100
AcDbEntity
  8
Paineis
100
AcDbPolyline
 90
4
 70
1
 10
19255.41
 20
15194.27
 10
19274.41
 20
15194.27
 10
19274.41
 20
15438.27
 10
19255.41
 20
15438.27
  0
LWPOLYLINE
  5
C9
330
17
100
AcDbEntity
  8
Paineis
100
AcDbPolyline
 90
4
 70
1
 10
19255.41
 20
15438.27
 10
19274.41
 20
15438.27
 10
19274.41
 20
15472.27
 10
19255.41
 20
15472.27
  0
MTEXT
  5
CA
330
17
100
AcDbEntity
  8
Texto Secao
100
AcDbMText
 10
19264.91
 20
15177.27
 30
0.0
 40
10.0
 71
1
  1
P9.B
  0
LWPOLYLINE
  5
CB
330
17
100
AcDbEntity
  8
Paineis
100
AcDbPolyline
 90
4
 70
1
 10
19304.41
 20
15192.27
 10
19395.41
 20
15192.27
 10
19395.41
 20
15194.27
 10
19304.41
 20
15194.27
  0
LWPOLYLINE
  5
CC
330
17
100
AcDbEntity
  8
Paineis
100
AcDbPolyline
 90
4
 70
1
 10
19304.41
 20
15194.27
 10
19395.41
 20
15194.27
 10
19395.41
 20
15438.27
 10
19304.41
 20
15438.27
  0
LWPOLYLINE
  5
CD
330
17
100
AcDbEntity
  8
Paineis
100
AcDbPolyline
 90
4
 70
1
 10
19304.41
 20
15438.27
 10
19395.41
 20
15438.27
 10
19395.41
 20
15472.27
 10
19304.41
 20
15472.27
  0
MTEXT
  5
CE
330
17
100
AcDbEntity
  8
Texto Secao
100
AcDbMText
 10
19349.91
 20
15177.27
 30
0.0
 40
10.0
 71
1
  1
P9.C
  0
LWPOLYLINE
  5
CF
330
17
100
AcDbEntity
  8
Paineis
100
AcDbPolyline
 90
4
 70
1
 10
19425.41
 20
15192.27
 10
19444.41
 20
15192.27
 10
19444.41
 20
15194.27
 10
19425.41
 20
15194.27
  0
LWPOLYLINE
  5
D0
330
17
100
AcDbEntity
  8
Paineis
100
AcDbPolyline
 90
4
 70
1
 10
19425.41
 20
15194.27
 10
19444.41
 20
15194.27
 10
19444.41
 20
15438.27
 10
19425.41
 20
15438.27
  0
LWPOLYLINE
  5
D1
330
17
100
AcDbEntity
  8
Paineis
100
AcDbPolyline
 90
4
 70
1
 10
19425.41
 20
15438.27
 10
19444.41
 20
15438.27
 10
19444.41
 20
15472.27
 10
19425.41
 20
15472.27
  0
MTEXT
  5
D2
330
17
100
AcDbEntity
  8
Texto Secao
100
AcDbMText
 10
19434.91
 20
15177.27
 30
0.0
 40
10.0
 71
1
  1
P9.D
  0
MTEXT
  5
D3
330
17
100
AcDbEntity
  8
Cota Secao (2x)
100
AcDbMText
 10
19134.41
 20
15497.27
 30
0.0
 40
8.0
 71
1
  1
B=19cm  H=91cm
  0
MTEXT
  5
D4
330
17
100
AcDbEntity
  8
NOMENCLATURA
100
AcDbMText
 10
19134.41
 20
15522.27
 30
0.0
 40
10.0
 71
1
  1
GWT-TIP - P9
  0
LWPOLYLINE
  5
D5
330
17
100
AcDbEntity
  8
Paineis
100
AcDbPolyline
 90
4
 70
1
 10
15309.4
 20
12383.86
 10
15392.4
 20
12383.86
 10
15392.4
 20
12385.86
 10
15309.4
 20
12385.86
  0
LWPOLYLINE
  5
D6
330
17
100
AcDbEntity
  8
Paineis
100
AcDbPolyline
 90
4
 70
1
 10
15309.4
 20
12385.86
 10
15392.4
 20
12385.86
 10
15392.4
 20
12629.86
 10
15309.4
 20
12629.86
  0
LWPOLYLINE
  5
D7
330
17
100
AcDbEntity
  8
Paineis
100
AcDbPolyline
 90
4
 70
1
 10
15309.4
 20
12629.86
 10
15392.4
 20
12629.86
 10
15392.4
 20
12663.86
 10
15309.4
 20
12663.86
  0
MTEXT
  5
D8
330
17
100
AcDbEntity
  8
Texto Secao
100
AcDbMText
 10
15350.9
 20
12368.86
 30
0.0
 40
10.0
 71
1
  1
P10.A
  0
LWPOLYLINE
  5
D9
330
17
100
AcDbEntity
  8
Paineis
100
AcDbPolyline
 90
4
 70
1
 10
15422.4
 20
12383.86
 10
15441.4
 20
12383.86
 10
15441.4
 20
12385.86
 10
15422.4
 20
12385.86
  0
LWPOLYLINE
  5
DA
330
17
100
AcDbEntity
  8
Paineis
100
AcDbPolyline
 90
4
 70
1
 10
15422.4
 20
12385.86
 10
15441.4
 20
12385.86
 10
15441.4
 20
12629.86
 10
15422.4
 20
12629.86
  0
LWPOLYLINE
  5
DB
330
17
100
AcDbEntity
  8
Paineis
100
AcDbPolyline
 90
4
 70
1
 10
15422.4
 20
12629.86
 10
15441.4
 20
12629.86
 10
15441.4
 20
12663.86
 10
15422.4
 20
12663.86
  0
MTEXT
  5
DC
330
17
100
AcDbEntity
  8
Texto Secao
100
AcDbMText
 10
15431.9
 20
12368.86
 30
0.0
 40
10.0
 71
1
  1
P10.B
  0
LWPOLYLINE
  5
DD
330
17
100
AcDbEntity
  8
Paineis
100
AcDbPolyline
 90
4
 70
1
 10
15471.4
 20
12383.86
 10
15554.4
 20
12383.86
 10
15554.4
 20
12385.86
 10
15471.4
 20
12385.86
  0
LWPOLYLINE
  5
DE
330
17
100
AcDbEntity
  8
Paineis
100
AcDbPolyline
 90
4
 70
1
 10
15471.4
 20
12385.86
 10
15554.4
 20
12385.86
 10
15554.4
 20
12629.86
 10
15471.4
 20
12629.86
  0
LWPOLYLINE
  5
DF
330
17
100
AcDbEntity
  8
Paineis
100
AcDbPolyline
 90
4
 70
1
 10
15471.4
 20
12629.86
 10
15554.4
 20
12629.86
 10
15554.4
 20
12663.86
 10
15471.4
 20
12663.86
  0
MTEXT
  5
E0
330
17
100
AcDbEntity
  8
Texto Secao
100
AcDbMText
 10
15512.9
 20
12368.86
 30
0.0
 40
10.0
 71
1
  1
P10.C
  0
LWPOLYLINE
  5
E1
330
17
100
AcDbEntity
  8
Paineis
100
AcDbPolyline
 90
4
 70
1
 10
15584.4
 20
12383.86
 10
15603.4
 20
12383.86
 10
15603.4
 20
12385.86
 10
15584.4
 20
12385.86
  0
LWPOLYLINE
  5
E2
330
17
100
AcDbEntity
  8
Paineis
100
AcDbPolyline
 90
4
 70
1
 10
15584.4
 20
12385.86
 10
15603.4
 20
12385.86
 10
15603.4
 20
12629.86
 10
15584.4
 20
12629.86
  0
LWPOLYLINE
  5
E3
330
17
100
AcDbEntity
  8
Paineis
100
AcDbPolyline
 90
4
 70
1
 10
15584.4
 20
12629.86
 10
15603.4
 20
12629.86
 10
15603.4
 20
12663.86
 10
15584.4
 20
12663.86
  0
MTEXT
  5
E4
330
17
100
AcDbEntity
  8
Texto Secao
100
AcDbMText
 10
15593.9
 20
12368.86
 30
0.0
 40
10.0
 71
1
  1
P10.D
  0
MTEXT
  5
E5
330
17
100
AcDbEntity
  8
Cota Secao (2x)
100
AcDbMText
 10
15309.4
 20
12688.86
 30
0.0
 40
8.0
 71
1
  1
B=19cm  H=83cm
  0
MTEXT
  5
E6
330
17
100
AcDbEntity
  8
NOMENCLATURA
100
AcDbMText
 10
15309.4
 20
12713.86
 30
0.0
 40
10.0
 71
1
  1
GWT-TIP - P10
  0
LWPOLYLINE
  5
E7
330
17
100
AcDbEntity
  8
Paineis
100
AcDbPolyline
 90
4
 70
1
 10
16629.57
 20
12378.1
 10
16690.57
 20
12378.1
 10
16690.57
 20
12380.1
 10
16629.57
 20
12380.1
  0
LWPOLYLINE
  5
E8
330
17
100
AcDbEntity
  8
Paineis
100
AcDbPolyline
 90
4
 70
1
 10
16629.57
 20
12380.1
 10
16690.57
 20
12380.1
 10
16690.57
 20
12624.1
 10
16629.57
 20
12624.1
  0
LWPOLYLINE
  5
E9
330
17
100
AcDbEntity
  8
Paineis
100
AcDbPolyline
 90
4
 70
1
 10
16629.57
 20
12624.1
 10
16690.57
 20
12624.1
 10
16690.57
 20
12658.1
 10
16629.57
 20
12658.1
  0
MTEXT
  5
EA
330
17
100
AcDbEntity
  8
Texto Secao
100
AcDbMText
 10
16660.07
 20
12363.1
 30
0.0
 40
10.0
 71
1
  1
P11.A
  0
LWPOLYLINE
  5
EB
330
17
100
AcDbEntity
  8
Paineis
100
AcDbPolyline
 90
4
 70
1
 10
16720.57
 20
12378.1
 10
16739.57
 20
12378.1
 10
16739.57
 20
12380.1
 10
16720.57
 20
12380.1
  0
LWPOLYLINE
  5
EC
330
17
100
AcDbEntity
  8
Paineis
100
AcDbPolyline
 90
4
 70
1
 10
16720.57
 20
12380.1
 10
16739.57
 20
12380.1
 10
16739.57
 20
12624.1
 10
16720.57
 20
12624.1
  0
LWPOLYLINE
  5
ED
330
17
100
AcDbEntity
  8
Paineis
100
AcDbPolyline
 90
4
 70
1
 10
16720.57
 20
12624.1
 10
16739.57
 20
12624.1
 10
16739.57
 20
12658.1
 10
16720.57
 20
12658.1
  0
MTEXT
  5
EE
330
17
100
AcDbEntity
  8
Texto Secao
100
AcDbMText
 10
16730.07
 20
12363.1
 30
0.0
 40
10.0
 71
1
  1
P11.B
  0
LWPOLYLINE
  5
EF
330
17
100
AcDbEntity
  8
Paineis
100
AcDbPolyline
 90
4
 70
1
 10
16769.57
 20
12378.1
 10
16830.57
 20
12378.1
 10
16830.57
 20
12380.1
 10
16769.57
 20
12380.1
  0
LWPOLYLINE
  5
F0
330
17
100
AcDbEntity
  8
Paineis
100
AcDbPolyline
 90
4
 70
1
 10
16769.57
 20
12380.1
 10
16830.57
 20
12380.1
 10
16830.57
 20
12624.1
 10
16769.57
 20
12624.1
  0
LWPOLYLINE
  5
F1
330
17
100
AcDbEntity
  8
Paineis
100
AcDbPolyline
 90
4
 70
1
 10
16769.57
 20
12624.1
 10
16830.57
 20
12624.1
 10
16830.57
 20
12658.1
 10
16769.57
 20
12658.1
  0
MTEXT
  5
F2
330
17
100
AcDbEntity
  8
Texto Secao
100
AcDbMText
 10
16800.07
 20
12363.1
 30
0.0
 40
10.0
 71
1
  1
P11.C
  0
LWPOLYLINE
  5
F3
330
17
100
AcDbEntity
  8
Paineis
100
AcDbPolyline
 90
4
 70
1
 10
16860.57
 20
12378.1
 10
16879.57
 20
12378.1
 10
16879.57
 20
12380.1
 10
16860.57
 20
12380.1
  0
LWPOLYLINE
  5
F4
330
17
100
AcDbEntity
  8
Paineis
100
AcDbPolyline
 90
4
 70
1
 10
16860.57
 20
12380.1
 10
16879.57
 20
12380.1
 10
16879.57
 20
12624.1
 10
16860.57
 20
12624.1
  0
LWPOLYLINE
  5
F5
330
17
100
AcDbEntity
  8
Paineis
100
AcDbPolyline
 90
4
 70
1
 10
16860.57
 20
12624.1
 10
16879.57
 20
12624.1
 10
16879.57
 20
12658.1
 10
16860.57
 20
12658.1
  0
MTEXT
  5
F6
330
17
100
AcDbEntity
  8
Texto Secao
100
AcDbMText
 10
16870.07
 20
12363.1
 30
0.0
 40
10.0
 71
1
  1
P11.D
  0
MTEXT
  5
F7
330
17
100
AcDbEntity
  8
Cota Secao (2x)
100
AcDbMText
 10
16629.57
 20
12683.1
 30
0.0
 40
8.0
 71
1
  1
B=19cm  H=61cm
  0
MTEXT
  5
F8
330
17
100
AcDbEntity
  8
NOMENCLATURA
100
AcDbMText
 10
16629.57
 20
12708.1
 30
0.0
 40
10.0
 71
1
  1
GWT-TIP - P11
  0
LWPOLYLINE
  5
F9
330
17
100
AcDbEntity
  8
Paineis
100
AcDbPolyline
 90
4
 70
1
 10
17898.57
 20
12372.34
 10
17958.57
 20
12372.34
 10
17958.57
 20
12374.34
 10
17898.57
 20
12374.34
  0
LWPOLYLINE
  5
FA
330
17
100
AcDbEntity
  8
Paineis
100
AcDbPolyline
 90
4
 70
1
 10
17898.57
 20
12374.34
 10
17958.57
 20
12374.34
 10
17958.57
 20
12618.34
 10
17898.57
 20
12618.34
  0
LWPOLYLINE
  5
FB
330
17
100
AcDbEntity
  8
Paineis
100
AcDbPolyline
 90
4
 70
1
 10
17898.57
 20
12618.34
 10
17958.57
 20
12618.34
 10
17958.57
 20
12652.34
 10
17898.57
 20
12652.34
  0
MTEXT
  5
FC
330
17
100
AcDbEntity
  8
Texto Secao
100
AcDbMText
 10
17928.57
 20
12357.34
 30
0.0
 40
10.0
 71
1
  1
P12.A
  0
LWPOLYLINE
  5
FD
330
17
100
AcDbEntity
  8
Paineis
100
AcDbPolyline
 90
4
 70
1
 10
17988.57
 20
12372.34
 10
18007.57
 20
12372.34
 10
18007.57
 20
12374.34
 10
17988.57
 20
12374.34
  0
LWPOLYLINE
  5
FE
330
17
100
AcDbEntity
  8
Paineis
100
AcDbPolyline
 90
4
 70
1
 10
17988.57
 20
12374.34
 10
18007.57
 20
12374.34
 10
18007.57
 20
12618.34
 10
17988.57
 20
12618.34
  0
LWPOLYLINE
  5
FF
330
17
100
AcDbEntity
  8
Paineis
100
AcDbPolyline
 90
4
 70
1
 10
17988.57
 20
12618.34
 10
18007.57
 20
12618.34
 10
18007.57
 20
12652.34
 10
17988.57
 20
12652.34
  0
MTEXT
  5
100
330
17
100
AcDbEntity
  8
Texto Secao
100
AcDbMText
 10
17998.07
 20
12357.34
 30
0.0
 40
10.0
 71
1
  1
P12.B
  0
LWPOLYLINE
  5
101
330
17
100
AcDbEntity
  8
Paineis
100
AcDbPolyline
 90
4
 70
1
 10
18037.57
 20
12372.34
 10
18097.57
 20
12372.34
 10
18097.57
 20
12374.34
 10
18037.57
 20
12374.34
  0
LWPOLYLINE
  5
102
330
17
100
AcDbEntity
  8
Paineis
100
AcDbPolyline
 90
4
 70
1
 10
18037.57
 20
12374.34
 10
18097.57
 20
12374.34
 10
18097.57
 20
12618.34
 10
18037.57
 20
12618.34
  0
LWPOLYLINE
  5
103
330
17
100
AcDbEntity
  8
Paineis
100
AcDbPolyline
 90
4
 70
1
 10
18037.57
 20
12618.34
 10
18097.57
 20
12618.34
 10
18097.57
 20
12652.34
 10
18037.57
 20
12652.34
  0
MTEXT
  5
104
330
17
100
AcDbEntity
  8
Texto Secao
100
AcDbMText
 10
18067.57
 20
12357.34
 30
0.0
 40
10.0
 71
1
  1
P12.C
  0
LWPOLYLINE
  5
105
330
17
100
AcDbEntity
  8
Paineis
100
AcDbPolyline
 90
4
 70
1
 10
18127.57
 20
12372.34
 10
18146.57
 20
12372.34
 10
18146.57
 20
12374.34
 10
18127.57
 20
12374.34
  0
LWPOLYLINE
  5
106
330
17
100
AcDbEntity
  8
Paineis
100
AcDbPolyline
 90
4
 70
1
 10
18127.57
 20
12374.34
 10
18146.57
 20
12374.34
 10
18146.57
 20
12618.34
 10
18127.57
 20
12618.34
  0
LWPOLYLINE
  5
107
330
17
100
AcDbEntity
  8
Paineis
100
AcDbPolyline
 90
4
 70
1
 10
18127.57
 20
12618.34
 10
18146.57
 20
12618.34
 10
18146.57
 20
12652.34
 10
18127.57
 20
12652.34
  0
MTEXT
  5
108
330
17
100
AcDbEntity
  8
Texto Secao
100
AcDbMText
 10
18137.07
 20
12357.34
 30
0.0
 40
10.0
 71
1
  1
P12.D
  0
MTEXT
  5
109
330
17
100
AcDbEntity
  8
Cota Secao (2x)
100
AcDbMText
 10
17898.57
 20
12677.34
 30
0.0
 40
8.0
 71
1
  1
B=19cm  H=60cm
  0
MTEXT
  5
10A
330
17
100
AcDbEntity
  8
NOMENCLATURA
100
AcDbMText
 10
17898.57
 20
12702.34
 30
0.0
 40
10.0
 71
1
  1
GWT-TIP - P12
  0
LWPOLYLINE
  5
10B
330
17
100
AcDbEntity
  8
Paineis
100
AcDbPolyline
 90
4
 70
1
 10
19170.65
 20
12366.58
 10
19240.65
 20
12366.58
 10
19240.65
 20
12368.58
 10
19170.65
 20
12368.58
  0
LWPOLYLINE
  5
10C
330
17
100
AcDbEntity
  8
Paineis
100
AcDbPolyline
 90
4
 70
1
 10
19170.65
 20
12368.58
 10
19240.65
 20
12368.58
 10
19240.65
 20
12612.58
 10
19170.65
 20
12612.58
  0
LWPOLYLINE
  5
10D
330
17
100
AcDbEntity
  8
Paineis
100
AcDbPolyline
 90
4
 70
1
 10
19170.65
 20
12612.58
 10
19240.65
 20
12612.58
 10
19240.65
 20
12646.58
 10
19170.65
 20
12646.58
  0
MTEXT
  5
10E
330
17
100
AcDbEntity
  8
Texto Secao
100
AcDbMText
 10
19205.65
 20
12351.58
 30
0.0
 40
10.0
 71
1
  1
P13.A
  0
LWPOLYLINE
  5
10F
330
17
100
AcDbEntity
  8
Paineis
100
AcDbPolyline
 90
4
 70
1
 10
19270.65
 20
12366.58
 10
19289.65
 20
12366.58
 10
19289.65
 20
12368.58
 10
19270.65
 20
12368.58
  0
LWPOLYLINE
  5
110
330
17
100
AcDbEntity
  8
Paineis
100
AcDbPolyline
 90
4
 70
1
 10
19270.65
 20
12368.58
 10
19289.65
 20
12368.58
 10
19289.65
 20
12612.58
 10
19270.65
 20
12612.58
  0
LWPOLYLINE
  5
111
330
17
100
AcDbEntity
  8
Paineis
100
AcDbPolyline
 90
4
 70
1
 10
19270.65
 20
12612.58
 10
19289.65
 20
12612.58
 10
19289.65
 20
12646.58
 10
19270.65
 20
12646.58
  0
MTEXT
  5
112
330
17
100
AcDbEntity
  8
Texto Secao
100
AcDbMText
 10
19280.15
 20
12351.58
 30
0.0
 40
10.0
 71
1
  1
P13.B
  0
LWPOLYLINE
  5
113
330
17
100
AcDbEntity
  8
Paineis
100
AcDbPolyline
 90
4
 70
1
 10
19319.65
 20
12366.58
 10
19389.65
 20
12366.58
 10
19389.65
 20
12368.58
 10
19319.65
 20
12368.58
  0
LWPOLYLINE
  5
114
330
17
100
AcDbEntity
  8
Paineis
100
AcDbPolyline
 90
4
 70
1
 10
19319.65
 20
12368.58
 10
19389.65
 20
12368.58
 10
19389.65
 20
12612.58
 10
19319.65
 20
12612.58
  0
LWPOLYLINE
  5
115
330
17
100
AcDbEntity
  8
Paineis
100
AcDbPolyline
 90
4
 70
1
 10
19319.65
 20
12612.58
 10
19389.65
 20
12612.58
 10
19389.65
 20
12646.58
 10
19319.65
 20
12646.58
  0
MTEXT
  5
116
330
17
100
AcDbEntity
  8
Texto Secao
100
AcDbMText
 10
19354.65
 20
12351.58
 30
0.0
 40
10.0
 71
1
  1
P13.C
  0
LWPOLYLINE
  5
117
330
17
100
AcDbEntity
  8
Paineis
100
AcDbPolyline
 90
4
 70
1
 10
19419.65
 20
12366.58
 10
19438.65
 20
12366.58
 10
19438.65
 20
12368.58
 10
19419.65
 20
12368.58
  0
LWPOLYLINE
  5
118
330
17
100
AcDbEntity
  8
Paineis
100
AcDbPolyline
 90
4
 70
1
 10
19419.65
 20
12368.58
 10
19438.65
 20
12368.58
 10
19438.65
 20
12612.58
 10
19419.65
 20
12612.58
  0
LWPOLYLINE
  5
119
330
17
100
AcDbEntity
  8
Paineis
100
AcDbPolyline
 90
4
 70
1
 10
19419.65
 20
12612.58
 10
19438.65
 20
12612.58
 10
19438.65
 20
12646.58
 10
19419.65
 20
12646.58
  0
MTEXT
  5
11A
330
17
100
AcDbEntity
  8
Texto Secao
100
AcDbMText
 10
19429.15
 20
12351.58
 30
0.0
 40
10.0
 71
1
  1
P13.D
  0
MTEXT
  5
11B
330
17
100
AcDbEntity
  8
Cota Secao (2x)
100
AcDbMText
 10
19170.65
 20
12671.58
 30
0.0
 40
8.0
 71
1
  1
B=19cm  H=70cm
  0
MTEXT
  5
11C
330
17
100
AcDbEntity
  8
NOMENCLATURA
100
AcDbMText
 10
19170.65
 20
12696.58
 30
0.0
 40
10.0
 71
1
  1
GWT-TIP - P13
  0
LWPOLYLINE
  5
11D
330
17
100
AcDbEntity
  8
Paineis
100
AcDbPolyline
 90
4
 70
1
 10
19152.33
 20
13308.48
 10
19243.33
 20
13308.48
 10
19243.33
 20
13310.48
 10
19152.33
 20
13310.48
  0
LWPOLYLINE
  5
11E
330
17
100
AcDbEntity
  8
Paineis
100
AcDbPolyline
 90
4
 70
1
 10
19152.33
 20
13310.48
 10
19243.33
 20
13310.48
 10
19243.33
 20
13554.48
 10
19152.33
 20
13554.48
  0
LWPOLYLINE
  5
11F
330
17
100
AcDbEntity
  8
Paineis
100
AcDbPolyline
 90
4
 70
1
 10
19152.33
 20
13554.48
 10
19243.33
 20
13554.48
 10
19243.33
 20
13588.48
 10
19152.33
 20
13588.48
  0
MTEXT
  5
120
330
17
100
AcDbEntity
  8
Texto Secao
100
AcDbMText
 10
19197.83
 20
13293.48
 30
0.0
 40
10.0
 71
1
  1
P14.A
  0
LWPOLYLINE
  5
121
330
17
100
AcDbEntity
  8
Paineis
100
AcDbPolyline
 90
4
 70
1
 10
19273.33
 20
13308.48
 10
19311.33
 20
13308.48
 10
19311.33
 20
13310.48
 10
19273.33
 20
13310.48
  0
LWPOLYLINE
  5
122
330
17
100
AcDbEntity
  8
Paineis
100
AcDbPolyline
 90
4
 70
1
 10
19273.33
 20
13310.48
 10
19311.33
 20
13310.48
 10
19311.33
 20
13554.48
 10
19273.33
 20
13554.48
  0
LWPOLYLINE
  5
123
330
17
100
AcDbEntity
  8
Paineis
100
AcDbPolyline
 90
4
 70
1
 10
19273.33
 20
13554.48
 10
19311.33
 20
13554.48
 10
19311.33
 20
13588.48
 10
19273.33
 20
13588.48
  0
MTEXT
  5
124
330
17
100
AcDbEntity
  8
Texto Secao
100
AcDbMText
 10
19292.33
 20
13293.48
 30
0.0
 40
10.0
 71
1
  1
P14.B
  0
LWPOLYLINE
  5
125
330
17
100
AcDbEntity
  8
Paineis
100
AcDbPolyline
 90
4
 70
1
 10
19341.33
 20
13308.48
 10
19432.33
 20
13308.48
 10
19432.33
 20
13310.48
 10
19341.33
 20
13310.48
  0
LWPOLYLINE
  5
126
330
17
100
AcDbEntity
  8
Paineis
100
AcDbPolyline
 90
4
 70
1
 10
19341.33
 20
13310.48
 10
19432.33
 20
13310.48
 10
19432.33
 20
13554.48
 10
19341.33
 20
13554.48
  0
LWPOLYLINE
  5
127
330
17
100
AcDbEntity
  8
Paineis
100
AcDbPolyline
 90
4
 70
1
 10
19341.33
 20
13554.48
 10
19432.33
 20
13554.48
 10
19432.33
 20
13588.48
 10
19341.33
 20
13588.48
  0
MTEXT
  5
128
330
17
100
AcDbEntity
  8
Texto Secao
100
AcDbMText
 10
19386.83
 20
13293.48
 30
0.0
 40
10.0
 71
1
  1
P14.C
  0
LWPOLYLINE
  5
129
330
17
100
AcDbEntity
  8
Paineis
100
AcDbPolyline
 90
4
 70
1
 10
19462.33
 20
13308.48
 10
19500.33
 20
13308.48
 10
19500.33
 20
13310.48
 10
19462.33
 20
13310.48
  0
LWPOLYLINE
  5
12A
330
17
100
AcDbEntity
  8
Paineis
100
AcDbPolyline
 90
4
 70
1
 10
19462.33
 20
13310.48
 10
19500.33
 20
13310.48
 10
19500.33
 20
13554.48
 10
19462.33
 20
13554.48
  0
LWPOLYLINE
  5
12B
330
17
100
AcDbEntity
  8
Paineis
100
AcDbPolyline
 90
4
 70
1
 10
19462.33
 20
13554.48
 10
19500.33
 20
13554.48
 10
19500.33
 20
13588.48
 10
19462.33
 20
13588.48
  0
MTEXT
  5
12C
330
17
100
AcDbEntity
  8
Texto Secao
100
AcDbMText
 10
19481.33
 20
13293.48
 30
0.0
 40
10.0
 71
1
  1
P14.D
  0
MTEXT
  5
12D
330
17
100
AcDbEntity
  8
Cota Secao (2x)
100
AcDbMText
 10
19152.33
 20
13613.48
 30
0.0
 40
8.0
 71
1
  1
B=38cm  H=91cm
  0
MTEXT
  5
12E
330
17
100
AcDbEntity
  8
NOMENCLATURA
100
AcDbMText
 10
19152.33
 20
13638.48
 30
0.0
 40
10.0
 71
1
  1
GWT-TIP - P14
  0
LWPOLYLINE
  5
12F
330
17
100
AcDbEntity
  8
Paineis
100
AcDbPolyline
 90
4
 70
1
 10
15343.12
 20
11441.96
 10
15387.12
 20
11441.96
 10
15387.12
 20
11443.96
 10
15343.12
 20
11443.96
  0
LWPOLYLINE
  5
130
330
17
100
AcDbEntity
  8
Paineis
100
AcDbPolyline
 90
4
 70
1
 10
15343.12
 20
11443.96
 10
15387.12
 20
11443.96
 10
15387.12
 20
11687.96
 10
15343.12
 20
11687.96
  0
LWPOLYLINE
  5
131
330
17
100
AcDbEntity
  8
Paineis
100
AcDbPolyline
 90
4
 70
1
 10
15343.12
 20
11687.96
 10
15387.12
 20
11687.96
 10
15387.12
 20
11721.96
 10
15343.12
 20
11721.96
  0
MTEXT
  5
132
330
17
100
AcDbEntity
  8
Texto Secao
100
AcDbMText
 10
15365.12
 20
11426.96
 30
0.0
 40
10.0
 71
1
  1
P15.A
  0
LWPOLYLINE
  5
133
330
17
100
AcDbEntity
  8
Paineis
100
AcDbPolyline
 90
4
 70
1
 10
15417.12
 20
11441.96
 10
15436.12
 20
11441.96
 10
15436.12
 20
11443.96
 10
15417.12
 20
11443.96
  0
LWPOLYLINE
  5
134
330
17
100
AcDbEntity
  8
Paineis
100
AcDbPolyline
 90
4
 70
1
 10
15417.12
 20
11443.96
 10
15436.12
 20
11443.96
 10
15436.12
 20
11687.96
 10
15417.12
 20
11687.96
  0
LWPOLYLINE
  5
135
330
17
100
AcDbEntity
  8
Paineis
100
AcDbPolyline
 90
4
 70
1
 10
15417.12
 20
11687.96
 10
15436.12
 20
11687.96
 10
15436.12
 20
11721.96
 10
15417.12
 20
11721.96
  0
MTEXT
  5
136
330
17
100
AcDbEntity
  8
Texto Secao
100
AcDbMText
 10
15426.62
 20
11426.96
 30
0.0
 40
10.0
 71
1
  1
P15.B
  0
LWPOLYLINE
  5
137
330
17
100
AcDbEntity
  8
Paineis
100
AcDbPolyline
 90
4
 70
1
 10
15466.12
 20
11441.96
 10
15510.12
 20
11441.96
 10
15510.12
 20
11443.96
 10
15466.12
 20
11443.96
  0
LWPOLYLINE
  5
138
330
17
100
AcDbEntity
  8
Paineis
100
AcDbPolyline
 90
4
 70
1
 10
15466.12
 20
11443.96
 10
15510.12
 20
11443.96
 10
15510.12
 20
11687.96
 10
15466.12
 20
11687.96
  0
LWPOLYLINE
  5
139
330
17
100
AcDbEntity
  8
Paineis
100
AcDbPolyline
 90
4
 70
1
 10
15466.12
 20
11687.96
 10
15510.12
 20
11687.96
 10
15510.12
 20
11721.96
 10
15466.12
 20
11721.96
  0
MTEXT
  5
13A
330
17
100
AcDbEntity
  8
Texto Secao
100
AcDbMText
 10
15488.12
 20
11426.96
 30
0.0
 40
10.0
 71
1
  1
P15.C
  0
LWPOLYLINE
  5
13B
330
17
100
AcDbEntity
  8
Paineis
100
AcDbPolyline
 90
4
 70
1
 10
15540.12
 20
11441.96
 10
15559.12
 20
11441.96
 10
15559.12
 20
11443.96
 10
15540.12
 20
11443.96
  0
LWPOLYLINE
  5
13C
330
17
100
AcDbEntity
  8
Paineis
100
AcDbPolyline
 90
4
 70
1
 10
15540.12
 20
11443.96
 10
15559.12
 20
11443.96
 10
15559.12
 20
11687.96
 10
15540.12
 20
11687.96
  0
LWPOLYLINE
  5
13D
330
17
100
AcDbEntity
  8
Paineis
100
AcDbPolyline
 90
4
 70
1
 10
15540.12
 20
11687.96
 10
15559.12
 20
11687.96
 10
15559.12
 20
11721.96
 10
15540.12
 20
11721.96
  0
MTEXT
  5
13E
330
17
100
AcDbEntity
  8
Texto Secao
100
AcDbMText
 10
15549.62
 20
11426.96
 30
0.0
 40
10.0
 71
1
  1
P15.D
  0
MTEXT
  5
13F
330
17
100
AcDbEntity
  8
Cota Secao (2x)
100
AcDbMText
 10
15343.12
 20
11746.96
 30
0.0
 40
8.0
 71
1
  1
B=19cm  H=44cm
  0
MTEXT
  5
140
330
17
100
AcDbEntity
  8
NOMENCLATURA
100
AcDbMText
 10
15343.12
 20
11771.96
 30
0.0
 40
10.0
 71
1
  1
GWT-TIP - P15
  0
LWPOLYLINE
  5
141
330
17
100
AcDbEntity
  8
Paineis
100
AcDbPolyline
 90
4
 70
1
 10
16619.46
 20
11438.25
 10
16654.46
 20
11438.25
 10
16654.46
 20
11440.25
 10
16619.46
 20
11440.25
  0
LWPOLYLINE
  5
142
330
17
100
AcDbEntity
  8
Paineis
100
AcDbPolyline
 90
4
 70
1
 10
16619.46
 20
11440.25
 10
16654.46
 20
11440.25
 10
16654.46
 20
11684.25
 10
16619.46
 20
11684.25
  0
LWPOLYLINE
  5
143
330
17
100
AcDbEntity
  8
Paineis
100
AcDbPolyline
 90
4
 70
1
 10
16619.46
 20
11684.25
 10
16654.46
 20
11684.25
 10
16654.46
 20
11718.25
 10
16619.46
 20
11718.25
  0
MTEXT
  5
144
330
17
100
AcDbEntity
  8
Texto Secao
100
AcDbMText
 10
16636.96
 20
11423.25
 30
0.0
 40
10.0
 71
1
  1
P16.A
  0
LWPOLYLINE
  5
145
330
17
100
AcDbEntity
  8
Paineis
100
AcDbPolyline
 90
4
 70
1
 10
16684.46
 20
11438.25
 10
16701.46
 20
11438.25
 10
16701.46
 20
11440.25
 10
16684.46
 20
11440.25
  0
LWPOLYLINE
  5
146
330
17
100
AcDbEntity
  8
Paineis
100
AcDbPolyline
 90
4
 70
1
 10
16684.46
 20
11440.25
 10
16701.46
 20
11440.25
 10
16701.46
 20
11684.25
 10
16684.46
 20
11684.25
  0
LWPOLYLINE
  5
147
330
17
100
AcDbEntity
  8
Paineis
100
AcDbPolyline
 90
4
 70
1
 10
16684.46
 20
11684.25
 10
16701.46
 20
11684.25
 10
16701.46
 20
11718.25
 10
16684.46
 20
11718.25
  0
MTEXT
  5
148
330
17
100
AcDbEntity
  8
Texto Secao
100
AcDbMText
 10
16692.96
 20
11423.25
 30
0.0
 40
10.0
 71
1
  1
P16.B
  0
LWPOLYLINE
  5
149
330
17
100
AcDbEntity
  8
Paineis
100
AcDbPolyline
 90
4
 70
1
 10
16731.46
 20
11438.25
 10
16766.46
 20
11438.25
 10
16766.46
 20
11440.25
 10
16731.46
 20
11440.25
  0
LWPOLYLINE
  5
14A
330
17
100
AcDbEntity
  8
Paineis
100
AcDbPolyline
 90
4
 70
1
 10
16731.46
 20
11440.25
 10
16766.46
 20
11440.25
 10
16766.46
 20
11684.25
 10
16731.46
 20
11684.25
  0
LWPOLYLINE
  5
14B
330
17
100
AcDbEntity
  8
Paineis
100
AcDbPolyline
 90
4
 70
1
 10
16731.46
 20
11684.25
 10
16766.46
 20
11684.25
 10
16766.46
 20
11718.25
 10
16731.46
 20
11718.25
  0
MTEXT
  5
14C
330
17
100
AcDbEntity
  8
Texto Secao
100
AcDbMText
 10
16748.96
 20
11423.25
 30
0.0
 40
10.0
 71
1
  1
P16.C
  0
LWPOLYLINE
  5
14D
330
17
100
AcDbEntity
  8
Paineis
100
AcDbPolyline
 90
4
 70
1
 10
16796.46
 20
11438.25
 10
16813.46
 20
11438.25
 10
16813.46
 20
11440.25
 10
16796.46
 20
11440.25
  0
LWPOLYLINE
  5
14E
330
17
100
AcDbEntity
  8
Paineis
100
AcDbPolyline
 90
4
 70
1
 10
16796.46
 20
11440.25
 10
16813.46
 20
11440.25
 10
16813.46
 20
11684.25
 10
16796.46
 20
11684.25
  0
LWPOLYLINE
  5
14F
330
17
100
AcDbEntity
  8
Paineis
100
AcDbPolyline
 90
4
 70
1
 10
16796.46
 20
11684.25
 10
16813.46
 20
11684.25
 10
16813.46
 20
11718.25
 10
16796.46
 20
11718.25
  0
MTEXT
  5
150
330
17
100
AcDbEntity
  8
Texto Secao
100
AcDbMText
 10
16804.96
 20
11423.25
 30
0.0
 40
10.0
 71
1
  1
P16.D
  0
MTEXT
  5
151
330
17
100
AcDbEntity
  8
Cota Secao (2x)
100
AcDbMText
 10
16619.46
 20
11743.25
 30
0.0
 40
8.0
 71
1
  1
B=17cm  H=35cm
  0
MTEXT
  5
152
330
17
100
AcDbEntity
  8
NOMENCLATURA
100
AcDbMText
 10
16619.46
 20
11768.25
 30
0.0
 40
10.0
 71
1
  1
GWT-TIP - P16
  0
LWPOLYLINE
  5
153
330
17
100
AcDbEntity
  8
Paineis
100
AcDbPolyline
 90
4
 70
1
 10
16691.46
 20
11438.25
 10
16788.46
 20
11438.25
 10
16788.46
 20
11440.25
 10
16691.46
 20
11440.25
  0
LWPOLYLINE
  5
154
330
17
100
AcDbEntity
  8
Paineis
100
AcDbPolyline
 90
4
 70
1
 10
16691.46
 20
11440.25
 10
16788.46
 20
11440.25
 10
16788.46
 20
11684.25
 10
16691.46
 20
11684.25
  0
LWPOLYLINE
  5
155
330
17
100
AcDbEntity
  8
Paineis
100
AcDbPolyline
 90
4
 70
1
 10
16691.46
 20
11684.25
 10
16788.46
 20
11684.25
 10
16788.46
 20
11718.25
 10
16691.46
 20
11718.25
  0
MTEXT
  5
156
330
17
100
AcDbEntity
  8
Texto Secao
100
AcDbMText
 10
16739.96
 20
11423.25
 30
0.0
 40
10.0
 71
1
  1
P17.A
  0
LWPOLYLINE
  5
157
330
17
100
AcDbEntity
  8
Paineis
100
AcDbPolyline
 90
4
 70
1
 10
16818.46
 20
11438.25
 10
16837.46
 20
11438.25
 10
16837.46
 20
11440.25
 10
16818.46
 20
11440.25
  0
LWPOLYLINE
  5
158
330
17
100
AcDbEntity
  8
Paineis
100
AcDbPolyline
 90
4
 70
1
 10
16818.46
 20
11440.25
 10
16837.46
 20
11440.25
 10
16837.46
 20
11684.25
 10
16818.46
 20
11684.25
  0
LWPOLYLINE
  5
159
330
17
100
AcDbEntity
  8
Paineis
100
AcDbPolyline
 90
4
 70
1
 10
16818.46
 20
11684.25
 10
16837.46
 20
11684.25
 10
16837.46
 20
11718.25
 10
16818.46
 20
11718.25
  0
MTEXT
  5
15A
330
17
100
AcDbEntity
  8
Texto Secao
100
AcDbMText
 10
16827.96
 20
11423.25
 30
0.0
 40
10.0
 71
1
  1
P17.B
  0
LWPOLYLINE
  5
15B
330
17
100
AcDbEntity
  8
Paineis
100
AcDbPolyline
 90
4
 70
1
 10
16867.46
 20
11438.25
 10
16964.46
 20
11438.25
 10
16964.46
 20
11440.25
 10
16867.46
 20
11440.25
  0
LWPOLYLINE
  5
15C
330
17
100
AcDbEntity
  8
Paineis
100
AcDbPolyline
 90
4
 70
1
 10
16867.46
 20
11440.25
 10
16964.46
 20
11440.25
 10
16964.46
 20
11684.25
 10
16867.46
 20
11684.25
  0
LWPOLYLINE
  5
15D
330
17
100
AcDbEntity
  8
Paineis
100
AcDbPolyline
 90
4
 70
1
 10
16867.46
 20
11684.25
 10
16964.46
 20
11684.25
 10
16964.46
 20
11718.25
 10
16867.46
 20
11718.25
  0
MTEXT
  5
15E
330
17
100
AcDbEntity
  8
Texto Secao
100
AcDbMText
 10
16915.96
 20
11423.25
 30
0.0
 40
10.0
 71
1
  1
P17.C
  0
LWPOLYLINE
  5
15F
330
17
100
AcDbEntity
  8
Paineis
100
AcDbPolyline
 90
4
 70
1
 10
16994.46
 20
11438.25
 10
17013.46
 20
11438.25
 10
17013.46
 20
11440.25
 10
16994.46
 20
11440.25
  0
LWPOLYLINE
  5
160
330
17
100
AcDbEntity
  8
Paineis
100
AcDbPolyline
 90
4
 70
1
 10
16994.46
 20
11440.25
 10
17013.46
 20
11440.25
 10
17013.46
 20
11684.25
 10
16994.46
 20
11684.25
  0
LWPOLYLINE
  5
161
330
17
100
AcDbEntity
  8
Paineis
100
AcDbPolyline
 90
4
 70
1
 10
16994.46
 20
11684.25
 10
17013.46
 20
11684.25
 10
17013.46
 20
11718.25
 10
16994.46
 20
11718.25
  0
MTEXT
  5
162
330
17
100
AcDbEntity
  8
Texto Secao
100
AcDbMText
 10
17003.96
 20
11423.25
 30
0.0
 40
10.0
 71
1
  1
P17.D
  0
MTEXT
  5
163
330
17
100
AcDbEntity
  8
Cota Secao (2x)
100
AcDbMText
 10
16691.46
 20
11743.25
 30
0.0
 40
8.0
 71
1
  1
B=19cm  H=97cm
  0
MTEXT
  5
164
330
17
100
AcDbEntity
  8
NOMENCLATURA
100
AcDbMText
 10
16691.46
 20
11768.25
 30
0.0
 40
10.0
 71
1
  1
GWT-TIP - P17
  0
LWPOLYLINE
  5
165
330
17
100
AcDbEntity
  8
Paineis
100
AcDbPolyline
 90
4
 70
1
 10
17980.71
 20
11432.49
 10
18005.71
 20
11432.49
 10
18005.71
 20
11434.49
 10
17980.71
 20
11434.49
  0
LWPOLYLINE
  5
166
330
17
100
AcDbEntity
  8
Paineis
100
AcDbPolyline
 90
4
 70
1
 10
17980.71
 20
11434.49
 10
18005.71
 20
11434.49
 10
18005.71
 20
11678.49
 10
17980.71
 20
11678.49
  0
LWPOLYLINE
  5
167
330
17
100
AcDbEntity
  8
Paineis
100
AcDbPolyline
 90
4
 70
1
 10
17980.71
 20
11678.49
 10
18005.71
 20
11678.49
 10
18005.71
 20
11712.49
 10
17980.71
 20
11712.49
  0
MTEXT
  5
168
330
17
100
AcDbEntity
  8
Texto Secao
100
AcDbMText
 10
17993.21
 20
11417.49
 30
0.0
 40
10.0
 71
1
  1
P18.A
  0
LWPOLYLINE
  5
169
330
17
100
AcDbEntity
  8
Paineis
100
AcDbPolyline
 90
4
 70
1
 10
18035.71
 20
11432.49
 10
18054.71
 20
11432.49
 10
18054.71
 20
11434.49
 10
18035.71
 20
11434.49
  0
LWPOLYLINE
  5
16A
330
17
100
AcDbEntity
  8
Paineis
100
AcDbPolyline
 90
4
 70
1
 10
18035.71
 20
11434.49
 10
18054.71
 20
11434.49
 10
18054.71
 20
11678.49
 10
18035.71
 20
11678.49
  0
LWPOLYLINE
  5
16B
330
17
100
AcDbEntity
  8
Paineis
100
AcDbPolyline
 90
4
 70
1
 10
18035.71
 20
11678.49
 10
18054.71
 20
11678.49
 10
18054.71
 20
11712.49
 10
18035.71
 20
11712.49
  0
MTEXT
  5
16C
330
17
100
AcDbEntity
  8
Texto Secao
100
AcDbMText
 10
18045.21
 20
11417.49
 30
0.0
 40
10.0
 71
1
  1
P18.B
  0
LWPOLYLINE
  5
16D
330
17
100
AcDbEntity
  8
Paineis
100
AcDbPolyline
 90
4
 70
1
 10
18084.71
 20
11432.49
 10
18109.71
 20
11432.49
 10
18109.71
 20
11434.49
 10
18084.71
 20
11434.49
  0
LWPOLYLINE
  5
16E
330
17
100
AcDbEntity
  8
Paineis
100
AcDbPolyline
 90
4
 70
1
 10
18084.71
 20
11434.49
 10
18109.71
 20
11434.49
 10
18109.71
 20
11678.49
 10
18084.71
 20
11678.49
  0
LWPOLYLINE
  5
16F
330
17
100
AcDbEntity
  8
Paineis
100
AcDbPolyline
 90
4
 70
1
 10
18084.71
 20
11678.49
 10
18109.71
 20
11678.49
 10
18109.71
 20
11712.49
 10
18084.71
 20
11712.49
  0
MTEXT
  5
170
330
17
100
AcDbEntity
  8
Texto Secao
100
AcDbMText
 10
18097.21
 20
11417.49
 30
0.0
 40
10.0
 71
1
  1
P18.C
  0
LWPOLYLINE
  5
171
330
17
100
AcDbEntity
  8
Paineis
100
AcDbPolyline
 90
4
 70
1
 10
18139.71
 20
11432.49
 10
18158.71
 20
11432.49
 10
18158.71
 20
11434.49
 10
18139.71
 20
11434.49
  0
LWPOLYLINE
  5
172
330
17
100
AcDbEntity
  8
Paineis
100
AcDbPolyline
 90
4
 70
1
 10
18139.71
 20
11434.49
 10
18158.71
 20
11434.49
 10
18158.71
 20
11678.49
 10
18139.71
 20
11678.49
  0
LWPOLYLINE
  5
173
330
17
100
AcDbEntity
  8
Paineis
100
AcDbPolyline
 90
4
 70
1
 10
18139.71
 20
11678.49
 10
18158.71
 20
11678.49
 10
18158.71
 20
11712.49
 10
18139.71
 20
11712.49
  0
MTEXT
  5
174
330
17
100
AcDbEntity
  8
Texto Secao
100
AcDbMText
 10
18149.21
 20
11417.49
 30
0.0
 40
10.0
 71
1
  1
P18.D
  0
MTEXT
  5
175
330
17
100
AcDbEntity
  8
Cota Secao (2x)
100
AcDbMText
 10
17980.71
 20
11737.49
 30
0.0
 40
8.0
 71
1
  1
B=19cm  H=25cm
  0
MTEXT
  5
176
330
17
100
AcDbEntity
  8
NOMENCLATURA
100
AcDbMText
 10
17980.71
 20
11762.49
 30
0.0
 40
10.0
 71
1
  1
GWT-TIP - P18
  0
LWPOLYLINE
  5
177
330
17
100
AcDbEntity
  8
Paineis
100
AcDbPolyline
 90
4
 70
1
 10
19111.11
 20
11426.73
 10
19192.11
 20
11426.73
 10
19192.11
 20
11428.73
 10
19111.11
 20
11428.73
  0
LWPOLYLINE
  5
178
330
17
100
AcDbEntity
  8
Paineis
100
AcDbPolyline
 90
4
 70
1
 10
19111.11
 20
11428.73
 10
19192.11
 20
11428.73
 10
19192.11
 20
11672.73
 10
19111.11
 20
11672.73
  0
LWPOLYLINE
  5
179
330
17
100
AcDbEntity
  8
Paineis
100
AcDbPolyline
 90
4
 70
1
 10
19111.11
 20
11672.73
 10
19192.11
 20
11672.73
 10
19192.11
 20
11706.73
 10
19111.11
 20
11706.73
  0
MTEXT
  5
17A
330
17
100
AcDbEntity
  8
Texto Secao
100
AcDbMText
 10
19151.61
 20
11411.73
 30
0.0
 40
10.0
 71
1
  1
P19.A
  0
LWPOLYLINE
  5
17B
330
17
100
AcDbEntity
  8
Paineis
100
AcDbPolyline
 90
4
 70
1
 10
19222.11
 20
11426.73
 10
19260.11
 20
11426.73
 10
19260.11
 20
11428.73
 10
19222.11
 20
11428.73
  0
LWPOLYLINE
  5
17C
330
17
100
AcDbEntity
  8
Paineis
100
AcDbPolyline
 90
4
 70
1
 10
19222.11
 20
11428.73
 10
19260.11
 20
11428.73
 10
19260.11
 20
11672.73
 10
19222.11
 20
11672.73
  0
LWPOLYLINE
  5
17D
330
17
100
AcDbEntity
  8
Paineis
100
AcDbPolyline
 90
4
 70
1
 10
19222.11
 20
11672.73
 10
19260.11
 20
11672.73
 10
19260.11
 20
11706.73
 10
19222.11
 20
11706.73
  0
MTEXT
  5
17E
330
17
100
AcDbEntity
  8
Texto Secao
100
AcDbMText
 10
19241.11
 20
11411.73
 30
0.0
 40
10.0
 71
1
  1
P19.B
  0
LWPOLYLINE
  5
17F
330
17
100
AcDbEntity
  8
Paineis
100
AcDbPolyline
 90
4
 70
1
 10
19290.11
 20
11426.73
 10
19371.11
 20
11426.73
 10
19371.11
 20
11428.73
 10
19290.11
 20
11428.73
  0
LWPOLYLINE
  5
180
330
17
100
AcDbEntity
  8
Paineis
100
AcDbPolyline
 90
4
 70
1
 10
19290.11
 20
11428.73
 10
19371.11
 20
11428.73
 10
19371.11
 20
11672.73
 10
19290.11
 20
11672.73
  0
LWPOLYLINE
  5
181
330
17
100
AcDbEntity
  8
Paineis
100
AcDbPolyline
 90
4
 70
1
 10
19290.11
 20
11672.73
 10
19371.11
 20
11672.73
 10
19371.11
 20
11706.73
 10
19290.11
 20
11706.73
  0
MTEXT
  5
182
330
17
100
AcDbEntity
  8
Texto Secao
100
AcDbMText
 10
19330.61
 20
11411.73
 30
0.0
 40
10.0
 71
1
  1
P19.C
  0
LWPOLYLINE
  5
183
330
17
100
AcDbEntity
  8
Paineis
100
AcDbPolyline
 90
4
 70
1
 10
19401.11
 20
11426.73
 10
19439.11
 20
11426.73
 10
19439.11
 20
11428.73
 10
19401.11
 20
11428.73
  0
LWPOLYLINE
  5
184
330
17
100
AcDbEntity
  8
Paineis
100
AcDbPolyline
 90
4
 70
1
 10
19401.11
 20
11428.73
 10
19439.11
 20
11428.73
 10
19439.11
 20
11672.73
 10
19401.11
 20
11672.73
  0
LWPOLYLINE
  5
185
330
17
100
AcDbEntity
  8
Paineis
100
AcDbPolyline
 90
4
 70
1
 10
19401.11
 20
11672.73
 10
19439.11
 20
11672.73
 10
19439.11
 20
11706.73
 10
19401.11
 20
11706.73
  0
MTEXT
  5
186
330
17
100
AcDbEntity
  8
Texto Secao
100
AcDbMText
 10
19420.11
 20
11411.73
 30
0.0
 40
10.0
 71
1
  1
P19.D
  0
MTEXT
  5
187
330
17
100
AcDbEntity
  8
Cota Secao (2x)
100
AcDbMText
 10
19111.11
 20
11731.73
 30
0.0
 40
8.0
 71
1
  1
B=38cm  H=81cm
  0
MTEXT
  5
188
330
17
100
AcDbEntity
  8
NOMENCLATURA
100
AcDbMText
 10
19111.11
 20
11756.73
 30
0.0
 40
10.0
 71
1
  1
GWT-TIP - P19
  0
LWPOLYLINE
  5
189
330
17
100
AcDbEntity
  8
Paineis
100
AcDbPolyline
 90
4
 70
1
 10
15200.21
 20
10500.07
 10
15291.21
 20
10500.07
 10
15291.21
 20
10502.07
 10
15200.21
 20
10502.07
  0
LWPOLYLINE
  5
18A
330
17
100
AcDbEntity
  8
Paineis
100
AcDbPolyline
 90
4
 70
1
 10
15200.21
 20
10502.07
 10
15291.21
 20
10502.07
 10
15291.21
 20
10746.07
 10
15200.21
 20
10746.07
  0
LWPOLYLINE
  5
18B
330
17
100
AcDbEntity
  8
Paineis
100
AcDbPolyline
 90
4
 70
1
 10
15200.21
 20
10746.07
 10
15291.21
 20
10746.07
 10
15291.21
 20
10780.07
 10
15200.21
 20
10780.07
  0
MTEXT
  5
18C
330
17
100
AcDbEntity
  8
Texto Secao
100
AcDbMText
 10
15245.71
 20
10485.07
 30
0.0
 40
10.0
 71
1
  1
P20.A
  0
LWPOLYLINE
  5
18D
330
17
100
AcDbEntity
  8
Paineis
100
AcDbPolyline
 90
4
 70
1
 10
15321.21
 20
10500.07
 10
15359.21
 20
10500.07
 10
15359.21
 20
10502.07
 10
15321.21
 20
10502.07
  0
LWPOLYLINE
  5
18E
330
17
100
AcDbEntity
  8
Paineis
100
AcDbPolyline
 90
4
 70
1
 10
15321.21
 20
10502.07
 10
15359.21
 20
10502.07
 10
15359.21
 20
10746.07
 10
15321.21
 20
10746.07
  0
LWPOLYLINE
  5
18F
330
17
100
AcDbEntity
  8
Paineis
100
AcDbPolyline
 90
4
 70
1
 10
15321.21
 20
10746.07
 10
15359.21
 20
10746.07
 10
15359.21
 20
10780.07
 10
15321.21
 20
10780.07
  0
MTEXT
  5
190
330
17
100
AcDbEntity
  8
Texto Secao
100
AcDbMText
 10
15340.21
 20
10485.07
 30
0.0
 40
10.0
 71
1
  1
P20.B
  0
LWPOLYLINE
  5
191
330
17
100
AcDbEntity
  8
Paineis
100
AcDbPolyline
 90
4
 70
1
 10
15389.21
 20
10500.07
 10
15480.21
 20
10500.07
 10
15480.21
 20
10502.07
 10
15389.21
 20
10502.07
  0
LWPOLYLINE
  5
192
330
17
100
AcDbEntity
  8
Paineis
100
AcDbPolyline
 90
4
 70
1
 10
15389.21
 20
10502.07
 10
15480.21
 20
10502.07
 10
15480.21
 20
10746.07
 10
15389.21
 20
10746.07
  0
LWPOLYLINE
  5
193
330
17
100
AcDbEntity
  8
Paineis
100
AcDbPolyline
 90
4
 70
1
 10
15389.21
 20
10746.07
 10
15480.21
 20
10746.07
 10
15480.21
 20
10780.07
 10
15389.21
 20
10780.07
  0
MTEXT
  5
194
330
17
100
AcDbEntity
  8
Texto Secao
100
AcDbMText
 10
15434.71
 20
10485.07
 30
0.0
 40
10.0
 71
1
  1
P20.C
  0
LWPOLYLINE
  5
195
330
17
100
AcDbEntity
  8
Paineis
100
AcDbPolyline
 90
4
 70
1
 10
15510.21
 20
10500.07
 10
15548.21
 20
10500.07
 10
15548.21
 20
10502.07
 10
15510.21
 20
10502.07
  0
LWPOLYLINE
  5
196
330
17
100
AcDbEntity
  8
Paineis
100
AcDbPolyline
 90
4
 70
1
 10
15510.21
 20
10502.07
 10
15548.21
 20
10502.07
 10
15548.21
 20
10746.07
 10
15510.21
 20
10746.07
  0
LWPOLYLINE
  5
197
330
17
100
AcDbEntity
  8
Paineis
100
AcDbPolyline
 90
4
 70
1
 10
15510.21
 20
10746.07
 10
15548.21
 20
10746.07
 10
15548.21
 20
10780.07
 10
15510.21
 20
10780.07
  0
MTEXT
  5
198
330
17
100
AcDbEntity
  8
Texto Secao
100
AcDbMText
 10
15529.21
 20
10485.07
 30
0.0
 40
10.0
 71
1
  1
P20.D
  0
MTEXT
  5
199
330
17
100
AcDbEntity
  8
Cota Secao (2x)
100
AcDbMText
 10
15200.21
 20
10805.07
 30
0.0
 40
8.0
 71
1
  1
B=38cm  H=91cm
  0
MTEXT
  5
19A
330
17
100
AcDbEntity
  8
NOMENCLATURA
100
AcDbMText
 10
15200.21
 20
10830.07
 30
0.0
 40
10.0
 71
1
  1
GWT-TIP - P20
  0
LWPOLYLINE
  5
19B
330
17
100
AcDbEntity
  8
Paineis
100
AcDbPolyline
 90
4
 70
1
 10
15281.0
 20
14267.65
 10
15372.0
 20
14267.65
 10
15372.0
 20
14269.65
 10
15281.0
 20
14269.65
  0
LWPOLYLINE
  5
19C
330
17
100
AcDbEntity
  8
Paineis
100
AcDbPolyline
 90
4
 70
1
 10
15281.0
 20
14269.65
 10
15372.0
 20
14269.65
 10
15372.0
 20
14513.65
 10
15281.0
 20
14513.65
  0
LWPOLYLINE
  5
19D
330
17
100
AcDbEntity
  8
Paineis
100
AcDbPolyline
 90
4
 70
1
 10
15281.0
 20
14513.65
 10
15372.0
 20
14513.65
 10
15372.0
 20
14547.65
 10
15281.0
 20
14547.65
  0
MTEXT
  5
19E
330
17
100
AcDbEntity
  8
Texto Secao
100
AcDbMText
 10
15326.5
 20
14252.65
 30
0.0
 40
10.0
 71
1
  1
P21.A
  0
LWPOLYLINE
  5
19F
330
17
100
AcDbEntity
  8
Paineis
100
AcDbPolyline
 90
4
 70
1
 10
15402.0
 20
14267.65
 10
15443.5
 20
14267.65
 10
15443.5
 20
14269.65
 10
15402.0
 20
14269.65
  0
LWPOLYLINE
  5
1A0
330
17
100
AcDbEntity
  8
Paineis
100
AcDbPolyline
 90
4
 70
1
 10
15402.0
 20
14269.65
 10
15443.5
 20
14269.65
 10
15443.5
 20
14513.65
 10
15402.0
 20
14513.65
  0
LWPOLYLINE
  5
1A1
330
17
100
AcDbEntity
  8
Paineis
100
AcDbPolyline
 90
4
 70
1
 10
15402.0
 20
14513.65
 10
15443.5
 20
14513.65
 10
15443.5
 20
14547.65
 10
15402.0
 20
14547.65
  0
MTEXT
  5
1A2
330
17
100
AcDbEntity
  8
Texto Secao
100
AcDbMText
 10
15422.75
 20
14252.65
 30
0.0
 40
10.0
 71
1
  1
P21.B
  0
LWPOLYLINE
  5
1A3
330
17
100
AcDbEntity
  8
Paineis
100
AcDbPolyline
 90
4
 70
1
 10
15473.5
 20
14267.65
 10
15564.5
 20
14267.65
 10
15564.5
 20
14269.65
 10
15473.5
 20
14269.65
  0
LWPOLYLINE
  5
1A4
330
17
100
AcDbEntity
  8
Paineis
100
AcDbPolyline
 90
4
 70
1
 10
15473.5
 20
14269.65
 10
15564.5
 20
14269.65
 10
15564.5
 20
14513.65
 10
15473.5
 20
14513.65
  0
LWPOLYLINE
  5
1A5
330
17
100
AcDbEntity
  8
Paineis
100
AcDbPolyline
 90
4
 70
1
 10
15473.5
 20
14513.65
 10
15564.5
 20
14513.65
 10
15564.5
 20
14547.65
 10
15473.5
 20
14547.65
  0
MTEXT
  5
1A6
330
17
100
AcDbEntity
  8
Texto Secao
100
AcDbMText
 10
15519.0
 20
14252.65
 30
0.0
 40
10.0
 71
1
  1
P21.C
  0
LWPOLYLINE
  5
1A7
330
17
100
AcDbEntity
  8
Paineis
100
AcDbPolyline
 90
4
 70
1
 10
15594.5
 20
14267.65
 10
15636.0
 20
14267.65
 10
15636.0
 20
14269.65
 10
15594.5
 20
14269.65
  0
LWPOLYLINE
  5
1A8
330
17
100
AcDbEntity
  8
Paineis
100
AcDbPolyline
 90
4
 70
1
 10
15594.5
 20
14269.65
 10
15636.0
 20
14269.65
 10
15636.0
 20
14513.65
 10
15594.5
 20
14513.65
  0
LWPOLYLINE
  5
1A9
330
17
100
AcDbEntity
  8
Paineis
100
AcDbPolyline
 90
4
 70
1
 10
15594.5
 20
14513.65
 10
15636.0
 20
14513.65
 10
15636.0
 20
14547.65
 10
15594.5
 20
14547.65
  0
MTEXT
  5
1AA
330
17
100
AcDbEntity
  8
Texto Secao
100
AcDbMText
 10
15615.25
 20
14252.65
 30
0.0
 40
10.0
 71
1
  1
P21.D
  0
MTEXT
  5
1AB
330
17
100
AcDbEntity
  8
Cota Secao (2x)
100
AcDbMText
 10
15281.0
 20
14572.65
 30
0.0
 40
8.0
 71
1
  1
B=42cm  H=91cm
  0
MTEXT
  5
1AC
330
17
100
AcDbEntity
  8
NOMENCLATURA
100
AcDbMText
 10
15281.0
 20
14597.65
 30
0.0
 40
10.0
 71
1
  1
GWT-TIP - P21
  0
LWPOLYLINE
  5
1AD
330
17
100
AcDbEntity
  8
Paineis
100
AcDbPolyline
 90
4
 70
1
 10
16547.39
 20
10494.31
 10
16623.39
 20
10494.31
 10
16623.39
 20
10496.31
 10
16547.39
 20
10496.31
  0
LWPOLYLINE
  5
1AE
330
17
100
AcDbEntity
  8
Paineis
100
AcDbPolyline
 90
4
 70
1
 10
16547.39
 20
10496.31
 10
16623.39
 20
10496.31
 10
16623.39
 20
10740.31
 10
16547.39
 20
10740.31
  0
LWPOLYLINE
  5
1AF
330
17
100
AcDbEntity
  8
Paineis
100
AcDbPolyline
 90
4
 70
1
 10
16547.39
 20
10740.31
 10
16623.39
 20
10740.31
 10
16623.39
 20
10774.31
 10
16547.39
 20
10774.31
  0
MTEXT
  5
1B0
330
17
100
AcDbEntity
  8
Texto Secao
100
AcDbMText
 10
16585.39
 20
10479.31
 30
0.0
 40
10.0
 71
1
  1
P22.A
  0
LWPOLYLINE
  5
1B1
330
17
100
AcDbEntity
  8
Paineis
100
AcDbPolyline
 90
4
 70
1
 10
16653.39
 20
10494.31
 10
16687.39
 20
10494.31
 10
16687.39
 20
10496.31
 10
16653.39
 20
10496.31
  0
LWPOLYLINE
  5
1B2
330
17
100
AcDbEntity
  8
Paineis
100
AcDbPolyline
 90
4
 70
1
 10
16653.39
 20
10496.31
 10
16687.39
 20
10496.31
 10
16687.39
 20
10740.31
 10
16653.39
 20
10740.31
  0
LWPOLYLINE
  5
1B3
330
17
100
AcDbEntity
  8
Paineis
100
AcDbPolyline
 90
4
 70
1
 10
16653.39
 20
10740.31
 10
16687.39
 20
10740.31
 10
16687.39
 20
10774.31
 10
16653.39
 20
10774.31
  0
MTEXT
  5
1B4
330
17
100
AcDbEntity
  8
Texto Secao
100
AcDbMText
 10
16670.39
 20
10479.31
 30
0.0
 40
10.0
 71
1
  1
P22.B
  0
LWPOLYLINE
  5
1B5
330
17
100
AcDbEntity
  8
Paineis
100
AcDbPolyline
 90
4
 70
1
 10
16717.39
 20
10494.31
 10
16793.39
 20
10494.31
 10
16793.39
 20
10496.31
 10
16717.39
 20
10496.31
  0
LWPOLYLINE
  5
1B6
330
17
100
AcDbEntity
  8
Paineis
100
AcDbPolyline
 90
4
 70
1
 10
16717.39
 20
10496.31
 10
16793.39
 20
10496.31
 10
16793.39
 20
10740.31
 10
16717.39
 20
10740.31
  0
LWPOLYLINE
  5
1B7
330
17
100
AcDbEntity
  8
Paineis
100
AcDbPolyline
 90
4
 70
1
 10
16717.39
 20
10740.31
 10
16793.39
 20
10740.31
 10
16793.39
 20
10774.31
 10
16717.39
 20
10774.31
  0
MTEXT
  5
1B8
330
17
100
AcDbEntity
  8
Texto Secao
100
AcDbMText
 10
16755.39
 20
10479.31
 30
0.0
 40
10.0
 71
1
  1
P22.C
  0
LWPOLYLINE
  5
1B9
330
17
100
AcDbEntity
  8
Paineis
100
AcDbPolyline
 90
4
 70
1
 10
16823.39
 20
10494.31
 10
16857.39
 20
10494.31
 10
16857.39
 20
10496.31
 10
16823.39
 20
10496.31
  0
LWPOLYLINE
  5
1BA
330
17
100
AcDbEntity
  8
Paineis
100
AcDbPolyline
 90
4
 70
1
 10
16823.39
 20
10496.31
 10
16857.39
 20
10496.31
 10
16857.39
 20
10740.31
 10
16823.39
 20
10740.31
  0
LWPOLYLINE
  5
1BB
330
17
100
AcDbEntity
  8
Paineis
100
AcDbPolyline
 90
4
 70
1
 10
16823.39
 20
10740.31
 10
16857.39
 20
10740.31
 10
16857.39
 20
10774.31
 10
16823.39
 20
10774.31
  0
MTEXT
  5
1BC
330
17
100
AcDbEntity
  8
Texto Secao
100
AcDbMText
 10
16840.39
 20
10479.31
 30
0.0
 40
10.0
 71
1
  1
P22.D
  0
MTEXT
  5
1BD
330
17
100
AcDbEntity
  8
Cota Secao (2x)
100
AcDbMText
 10
16547.39
 20
10799.31
 30
0.0
 40
8.0
 71
1
  1
B=34cm  H=76cm
  0
MTEXT
  5
1BE
330
17
100
AcDbEntity
  8
NOMENCLATURA
100
AcDbMText
 10
16547.39
 20
10824.31
 30
0.0
 40
10.0
 71
1
  1
GWT-TIP - P22
  0
LWPOLYLINE
  5
1BF
330
17
100
AcDbEntity
  8
Paineis
100
AcDbPolyline
 90
4
 70
1
 10
17766.5
 20
10490.59
 10
17842.5
 20
10490.59
 10
17842.5
 20
10492.59
 10
17766.5
 20
10492.59
  0
LWPOLYLINE
  5
1C0
330
17
100
AcDbEntity
  8
Paineis
100
AcDbPolyline
 90
4
 70
1
 10
17766.5
 20
10492.59
 10
17842.5
 20
10492.59
 10
17842.5
 20
10736.59
 10
17766.5
 20
10736.59
  0
LWPOLYLINE
  5
1C1
330
17
100
AcDbEntity
  8
Paineis
100
AcDbPolyline
 90
4
 70
1
 10
17766.5
 20
10736.59
 10
17842.5
 20
10736.59
 10
17842.5
 20
10770.59
 10
17766.5
 20
10770.59
  0
MTEXT
  5
1C2
330
17
100
AcDbEntity
  8
Texto Secao
100
AcDbMText
 10
17804.5
 20
10475.59
 30
0.0
 40
10.0
 71
1
  1
P23.A
  0
LWPOLYLINE
  5
1C3
330
17
100
AcDbEntity
  8
Paineis
100
AcDbPolyline
 90
4
 70
1
 10
17872.5
 20
10490.59
 10
17921.5
 20
10490.59
 10
17921.5
 20
10492.59
 10
17872.5
 20
10492.59
  0
LWPOLYLINE
  5
1C4
330
17
100
AcDbEntity
  8
Paineis
100
AcDbPolyline
 90
4
 70
1
 10
17872.5
 20
10492.59
 10
17921.5
 20
10492.59
 10
17921.5
 20
10736.59
 10
17872.5
 20
10736.59
  0
LWPOLYLINE
  5
1C5
330
17
100
AcDbEntity
  8
Paineis
100
AcDbPolyline
 90
4
 70
1
 10
17872.5
 20
10736.59
 10
17921.5
 20
10736.59
 10
17921.5
 20
10770.59
 10
17872.5
 20
10770.59
  0
MTEXT
  5
1C6
330
17
100
AcDbEntity
  8
Texto Secao
100
AcDbMText
 10
17897.0
 20
10475.59
 30
0.0
 40
10.0
 71
1
  1
P23.B
  0
LWPOLYLINE
  5
1C7
330
17
100
AcDbEntity
  8
Paineis
100
AcDbPolyline
 90
4
 70
1
 10
17951.5
 20
10490.59
 10
18027.5
 20
10490.59
 10
18027.5
 20
10492.59
 10
17951.5
 20
10492.59
  0
LWPOLYLINE
  5
1C8
330
17
100
AcDbEntity
  8
Paineis
100
AcDbPolyline
 90
4
 70
1
 10
17951.5
 20
10492.59
 10
18027.5
 20
10492.59
 10
18027.5
 20
10736.59
 10
17951.5
 20
10736.59
  0
LWPOLYLINE
  5
1C9
330
17
100
AcDbEntity
  8
Paineis
100
AcDbPolyline
 90
4
 70
1
 10
17951.5
 20
10736.59
 10
18027.5
 20
10736.59
 10
18027.5
 20
10770.59
 10
17951.5
 20
10770.59
  0
MTEXT
  5
1CA
330
17
100
AcDbEntity
  8
Texto Secao
100
AcDbMText
 10
17989.5
 20
10475.59
 30
0.0
 40
10.0
 71
1
  1
P23.C
  0
LWPOLYLINE
  5
1CB
330
17
100
AcDbEntity
  8
Paineis
100
AcDbPolyline
 90
4
 70
1
 10
18057.5
 20
10490.59
 10
18106.5
 20
10490.59
 10
18106.5
 20
10492.59
 10
18057.5
 20
10492.59
  0
LWPOLYLINE
  5
1CC
330
17
100
AcDbEntity
  8
Paineis
100
AcDbPolyline
 90
4
 70
1
 10
18057.5
 20
10492.59
 10
18106.5
 20
10492.59
 10
18106.5
 20
10736.59
 10
18057.5
 20
10736.59
  0
LWPOLYLINE
  5
1CD
330
17
100
AcDbEntity
  8
Paineis
100
AcDbPolyline
 90
4
 70
1
 10
18057.5
 20
10736.59
 10
18106.5
 20
10736.59
 10
18106.5
 20
10770.59
 10
18057.5
 20
10770.59
  0
MTEXT
  5
1CE
330
17
100
AcDbEntity
  8
Texto Secao
100
AcDbMText
 10
18082.0
 20
10475.59
 30
0.0
 40
10.0
 71
1
  1
P23.D
  0
MTEXT
  5
1CF
330
17
100
AcDbEntity
  8
Cota Secao (2x)
100
AcDbMText
 10
17766.5
 20
10795.59
 30
0.0
 40
8.0
 71
1
  1
B=49cm  H=76cm
  0
MTEXT
  5
1D0
330
17
100
AcDbEntity
  8
NOMENCLATURA
100
AcDbMText
 10
17766.5
 20
10820.59
 30
0.0
 40
10.0
 71
1
  1
GWT-TIP - P23
  0
LWPOLYLINE
  5
1D1
330
17
100
AcDbEntity
  8
Paineis
100
AcDbPolyline
 90
4
 70
1
 10
19056.23
 20
10484.83
 10
19105.23
 20
10484.83
 10
19105.23
 20
10486.83
 10
19056.23
 20
10486.83
  0
LWPOLYLINE
  5
1D2
330
17
100
AcDbEntity
  8
Paineis
100
AcDbPolyline
 90
4
 70
1
 10
19056.23
 20
10486.83
 10
19105.23
 20
10486.83
 10
19105.23
 20
10730.83
 10
19056.23
 20
10730.83
  0
LWPOLYLINE
  5
1D3
330
17
100
AcDbEntity
  8
Paineis
100
AcDbPolyline
 90
4
 70
1
 10
19056.23
 20
10730.83
 10
19105.23
 20
10730.83
 10
19105.23
 20
10764.83
 10
19056.23
 20
10764.83
  0
MTEXT
  5
1D4
330
17
100
AcDbEntity
  8
Texto Secao
100
AcDbMText
 10
19080.73
 20
10469.83
 30
0.0
 40
10.0
 71
1
  1
P24.A
  0
LWPOLYLINE
  5
1D5
330
17
100
AcDbEntity
  8
Paineis
100
AcDbPolyline
 90
4
 70
1
 10
19135.23
 20
10484.83
 10
19165.23
 20
10484.83
 10
19165.23
 20
10486.83
 10
19135.23
 20
10486.83
  0
LWPOLYLINE
  5
1D6
330
17
100
AcDbEntity
  8
Paineis
100
AcDbPolyline
 90
4
 70
1
 10
19135.23
 20
10486.83
 10
19165.23
 20
10486.83
 10
19165.23
 20
10730.83
 10
19135.23
 20
10730.83
  0
LWPOLYLINE
  5
1D7
330
17
100
AcDbEntity
  8
Paineis
100
AcDbPolyline
 90
4
 70
1
 10
19135.23
 20
10730.83
 10
19165.23
 20
10730.83
 10
19165.23
 20
10764.83
 10
19135.23
 20
10764.83
  0
MTEXT
  5
1D8
330
17
100
AcDbEntity
  8
Texto Secao
100
AcDbMText
 10
19150.23
 20
10469.83
 30
0.0
 40
10.0
 71
1
  1
P24.B
  0
LWPOLYLINE
  5
1D9
330
17
100
AcDbEntity
  8
Paineis
100
AcDbPolyline
 90
4
 70
1
 10
19195.23
 20
10484.83
 10
19244.23
 20
10484.83
 10
19244.23
 20
10486.83
 10
19195.23
 20
10486.83
  0
LWPOLYLINE
  5
1DA
330
17
100
AcDbEntity
  8
Paineis
100
AcDbPolyline
 90
4
 70
1
 10
19195.23
 20
10486.83
 10
19244.23
 20
10486.83
 10
19244.23
 20
10730.83
 10
19195.23
 20
10730.83
  0
LWPOLYLINE
  5
1DB
330
17
100
AcDbEntity
  8
Paineis
100
AcDbPolyline
 90
4
 70
1
 10
19195.23
 20
10730.83
 10
19244.23
 20
10730.83
 10
19244.23
 20
10764.83
 10
19195.23
 20
10764.83
  0
MTEXT
  5
1DC
330
17
100
AcDbEntity
  8
Texto Secao
100
AcDbMText
 10
19219.73
 20
10469.83
 30
0.0
 40
10.0
 71
1
  1
P24.C
  0
LWPOLYLINE
  5
1DD
330
17
100
AcDbEntity
  8
Paineis
100
AcDbPolyline
 90
4
 70
1
 10
19274.23
 20
10484.83
 10
19304.23
 20
10484.83
 10
19304.23
 20
10486.83
 10
19274.23
 20
10486.83
  0
LWPOLYLINE
  5
1DE
330
17
100
AcDbEntity
  8
Paineis
100
AcDbPolyline
 90
4
 70
1
 10
19274.23
 20
10486.83
 10
19304.23
 20
10486.83
 10
19304.23
 20
10730.83
 10
19274.23
 20
10730.83
  0
LWPOLYLINE
  5
1DF
330
17
100
AcDbEntity
  8
Paineis
100
AcDbPolyline
 90
4
 70
1
 10
19274.23
 20
10730.83
 10
19304.23
 20
10730.83
 10
19304.23
 20
10764.83
 10
19274.23
 20
10764.83
  0
MTEXT
  5
1E0
330
17
100
AcDbEntity
  8
Texto Secao
100
AcDbMText
 10
19289.23
 20
10469.83
 30
0.0
 40
10.0
 71
1
  1
P24.D
  0
MTEXT
  5
1E1
330
17
100
AcDbEntity
  8
Cota Secao (2x)
100
AcDbMText
 10
19056.23
 20
10789.83
 30
0.0
 40
8.0
 71
1
  1
B=30cm  H=49cm
  0
MTEXT
  5
1E2
330
17
100
AcDbEntity
  8
NOMENCLATURA
100
AcDbMText
 10
19056.23
 20
10814.83
 30
0.0
 40
10.0
 71
1
  1
GWT-TIP - P24
  0
LWPOLYLINE
  5
1E3
330
17
100
AcDbEntity
  8
Paineis
100
AcDbPolyline
 90
4
 70
1
 10
19019.23
 20
10484.83
 10
19095.23
 20
10484.83
 10
19095.23
 20
10486.83
 10
19019.23
 20
10486.83
  0
LWPOLYLINE
  5
1E4
330
17
100
AcDbEntity
  8
Paineis
100
AcDbPolyline
 90
4
 70
1
 10
19019.23
 20
10486.83
 10
19095.23
 20
10486.83
 10
19095.23
 20
10730.83
 10
19019.23
 20
10730.83
  0
LWPOLYLINE
  5
1E5
330
17
100
AcDbEntity
  8
Paineis
100
AcDbPolyline
 90
4
 70
1
 10
19019.23
 20
10730.83
 10
19095.23
 20
10730.83
 10
19095.23
 20
10764.83
 10
19019.23
 20
10764.83
  0
MTEXT
  5
1E6
330
17
100
AcDbEntity
  8
Texto Secao
100
AcDbMText
 10
19057.23
 20
10469.83
 30
0.0
 40
10.0
 71
1
  1
P25.A
  0
LWPOLYLINE
  5
1E7
330
17
100
AcDbEntity
  8
Paineis
100
AcDbPolyline
 90
4
 70
1
 10
19125.23
 20
10484.83
 10
19155.23
 20
10484.83
 10
19155.23
 20
10486.83
 10
19125.23
 20
10486.83
  0
LWPOLYLINE
  5
1E8
330
17
100
AcDbEntity
  8
Paineis
100
AcDbPolyline
 90
4
 70
1
 10
19125.23
 20
10486.83
 10
19155.23
 20
10486.83
 10
19155.23
 20
10730.83
 10
19125.23
 20
10730.83
  0
LWPOLYLINE
  5
1E9
330
17
100
AcDbEntity
  8
Paineis
100
AcDbPolyline
 90
4
 70
1
 10
19125.23
 20
10730.83
 10
19155.23
 20
10730.83
 10
19155.23
 20
10764.83
 10
19125.23
 20
10764.83
  0
MTEXT
  5
1EA
330
17
100
AcDbEntity
  8
Texto Secao
100
AcDbMText
 10
19140.23
 20
10469.83
 30
0.0
 40
10.0
 71
1
  1
P25.B
  0
LWPOLYLINE
  5
1EB
330
17
100
AcDbEntity
  8
Paineis
100
AcDbPolyline
 90
4
 70
1
 10
19185.23
 20
10484.83
 10
19261.23
 20
10484.83
 10
19261.23
 20
10486.83
 10
19185.23
 20
10486.83
  0
LWPOLYLINE
  5
1EC
330
17
100
AcDbEntity
  8
Paineis
100
AcDbPolyline
 90
4
 70
1
 10
19185.23
 20
10486.83
 10
19261.23
 20
10486.83
 10
19261.23
 20
10730.83
 10
19185.23
 20
10730.83
  0
LWPOLYLINE
  5
1ED
330
17
100
AcDbEntity
  8
Paineis
100
AcDbPolyline
 90
4
 70
1
 10
19185.23
 20
10730.83
 10
19261.23
 20
10730.83
 10
19261.23
 20
10764.83
 10
19185.23
 20
10764.83
  0
MTEXT
  5
1EE
330
17
100
AcDbEntity
  8
Texto Secao
100
AcDbMText
 10
19223.23
 20
10469.83
 30
0.0
 40
10.0
 71
1
  1
P25.C
  0
LWPOLYLINE
  5
1EF
330
17
100
AcDbEntity
  8
Paineis
100
AcDbPolyline
 90
4
 70
1
 10
19291.23
 20
10484.83
 10
19321.23
 20
10484.83
 10
19321.23
 20
10486.83
 10
19291.23
 20
10486.83
  0
LWPOLYLINE
  5
1F0
330
17
100
AcDbEntity
  8
Paineis
100
AcDbPolyline
 90
4
 70
1
 10
19291.23
 20
10486.83
 10
19321.23
 20
10486.83
 10
19321.23
 20
10730.83
 10
19291.23
 20
10730.83
  0
LWPOLYLINE
  5
1F1
330
17
100
AcDbEntity
  8
Paineis
100
AcDbPolyline
 90
4
 70
1
 10
19291.23
 20
10730.83
 10
19321.23
 20
10730.83
 10
19321.23
 20
10764.83
 10
19291.23
 20
10764.83
  0
MTEXT
  5
1F2
330
17
100
AcDbEntity
  8
Texto Secao
100
AcDbMText
 10
19306.23
 20
10469.83
 30
0.0
 40
10.0
 71
1
  1
P25.D
  0
MTEXT
  5
1F3
330
17
100
AcDbEntity
  8
Cota Secao (2x)
100
AcDbMText
 10
19019.23
 20
10789.83
 30
0.0
 40
8.0
 71
1
  1
B=30cm  H=76cm
  0
MTEXT
  5
1F4
330
17
100
AcDbEntity
  8
NOMENCLATURA
100
AcDbMText
 10
19019.23
 20
10814.83
 30
0.0
 40
10.0
 71
1
  1
GWT-TIP - P25
  0
LWPOLYLINE
  5
1F5
330
17
100
AcDbEntity
  8
Paineis
100
AcDbPolyline
 90
4
 70
1
 10
15435.56
 20
9713.67
 10
15511.56
 20
9713.67
 10
15511.56
 20
9715.67
 10
15435.56
 20
9715.67
  0
LWPOLYLINE
  5
1F6
330
17
100
AcDbEntity
  8
Paineis
100
AcDbPolyline
 90
4
 70
1
 10
15435.56
 20
9715.67
 10
15511.56
 20
9715.67
 10
15511.56
 20
9959.67
 10
15435.56
 20
9959.67
  0
LWPOLYLINE
  5
1F7
330
17
100
AcDbEntity
  8
Paineis
100
AcDbPolyline
 90
4
 70
1
 10
15435.56
 20
9959.67
 10
15511.56
 20
9959.67
 10
15511.56
 20
9993.67
 10
15435.56
 20
9993.67
  0
MTEXT
  5
1F8
330
17
100
AcDbEntity
  8
Texto Secao
100
AcDbMText
 10
15473.56
 20
9698.67
 30
0.0
 40
10.0
 71
1
  1
P26.A
  0
LWPOLYLINE
  5
1F9
330
17
100
AcDbEntity
  8
Paineis
100
AcDbPolyline
 90
4
 70
1
 10
15541.56
 20
9713.67
 10
15575.56
 20
9713.67
 10
15575.56
 20
9715.67
 10
15541.56
 20
9715.67
  0
LWPOLYLINE
  5
1FA
330
17
100
AcDbEntity
  8
Paineis
100
AcDbPolyline
 90
4
 70
1
 10
15541.56
 20
9715.67
 10
15575.56
 20
9715.67
 10
15575.56
 20
9959.67
 10
15541.56
 20
9959.67
  0
LWPOLYLINE
  5
1FB
330
17
100
AcDbEntity
  8
Paineis
100
AcDbPolyline
 90
4
 70
1
 10
15541.56
 20
9959.67
 10
15575.56
 20
9959.67
 10
15575.56
 20
9993.67
 10
15541.56
 20
9993.67
  0
MTEXT
  5
1FC
330
17
100
AcDbEntity
  8
Texto Secao
100
AcDbMText
 10
15558.56
 20
9698.67
 30
0.0
 40
10.0
 71
1
  1
P26.B
  0
LWPOLYLINE
  5
1FD
330
17
100
AcDbEntity
  8
Paineis
100
AcDbPolyline
 90
4
 70
1
 10
15605.56
 20
9713.67
 10
15681.56
 20
9713.67
 10
15681.56
 20
9715.67
 10
15605.56
 20
9715.67
  0
LWPOLYLINE
  5
1FE
330
17
100
AcDbEntity
  8
Paineis
100
AcDbPolyline
 90
4
 70
1
 10
15605.56
 20
9715.67
 10
15681.56
 20
9715.67
 10
15681.56
 20
9959.67
 10
15605.56
 20
9959.67
  0
LWPOLYLINE
  5
1FF
330
17
100
AcDbEntity
  8
Paineis
100
AcDbPolyline
 90
4
 70
1
 10
15605.56
 20
9959.67
 10
15681.56
 20
9959.67
 10
15681.56
 20
9993.67
 10
15605.56
 20
9993.67
  0
MTEXT
  5
200
330
17
100
AcDbEntity
  8
Texto Secao
100
AcDbMText
 10
15643.56
 20
9698.67
 30
0.0
 40
10.0
 71
1
  1
P26.C
  0
LWPOLYLINE
  5
201
330
17
100
AcDbEntity
  8
Paineis
100
AcDbPolyline
 90
4
 70
1
 10
15711.56
 20
9713.67
 10
15745.56
 20
9713.67
 10
15745.56
 20
9715.67
 10
15711.56
 20
9715.67
  0
LWPOLYLINE
  5
202
330
17
100
AcDbEntity
  8
Paineis
100
AcDbPolyline
 90
4
 70
1
 10
15711.56
 20
9715.67
 10
15745.56
 20
9715.67
 10
15745.56
 20
9959.67
 10
15711.56
 20
9959.67
  0
LWPOLYLINE
  5
203
330
17
100
AcDbEntity
  8
Paineis
100
AcDbPolyline
 90
4
 70
1
 10
15711.56
 20
9959.67
 10
15745.56
 20
9959.67
 10
15745.56
 20
9993.67
 10
15711.56
 20
9993.67
  0
MTEXT
  5
204
330
17
100
AcDbEntity
  8
Texto Secao
100
AcDbMText
 10
15728.56
 20
9698.67
 30
0.0
 40
10.0
 71
1
  1
P26.D
  0
MTEXT
  5
205
330
17
100
AcDbEntity
  8
Cota Secao (2x)
100
AcDbMText
 10
15435.56
 20
10018.67
 30
0.0
 40
8.0
 71
1
  1
B=34cm  H=76cm
  0
MTEXT
  5
206
330
17
100
AcDbEntity
  8
NOMENCLATURA
100
AcDbMText
 10
15435.56
 20
10043.67
 30
0.0
 40
10.0
 71
1
  1
GWT-TIP - P26
  0
ENDSEC
  0
SECTION
  2
OBJECTS
  0
DICTIONARY
  5
A
330
0
100
AcDbDictionary
281
1
  3
ACAD_COLOR
350
B
  3
ACAD_GROUP
350
C
  3
ACAD_LAYOUT
350
D
  3
ACAD_MATERIAL
350
E
  3
ACAD_MLEADERSTYLE
350
F
  3
ACAD_MLINESTYLE
350
10
  3
ACAD_PLOTSETTINGS
350
11
  3
ACAD_PLOTSTYLENAME
350
12
  3
ACAD_SCALELIST
350
14
  3
ACAD_TABLESTYLE
350
15
  3
ACAD_VISUALSTYLE
350
16
  3
EZDXF_META
350
2D
  0
DICTIONARY
  5
B
330
A
100
AcDbDictionary
281
1
  0
DICTIONARY
  5
C
330
A
100
AcDbDictionary
281
1
  0
DICTIONARY
  5
D
330
A
100
AcDbDictionary
281
1
  3
Model
350
1A
  3
Layout1
350
1E
  0
DICTIONARY
  5
E
330
A
100
AcDbDictionary
281
1
  3
ByBlock
350
1F
  3
ByLayer
350
20
  3
Global
350
21
  0
DICTIONARY
  5
F
330
A
100
AcDbDictionary
281
1
  3
Standard
350
2C
  0
DICTIONARY
  5
10
330
A
100
AcDbDictionary
281
1
  3
Standard
350
22
  0
DICTIONARY
  5
11
330
A
100
AcDbDictionary
281
1
  0
ACDBDICTIONARYWDFLT
  5
12
330
A
100
AcDbDictionary
281
1
  3
Normal
350
13
100
AcDbDictionaryWithDefault
340
13
  0
ACDBPLACEHOLDER
  5
13
330
12
  0
DICTIONARY
  5
14
330
A
100
AcDbDictionary
281
1
  0
DICTIONARY
  5
15
330
A
100
AcDbDictionary
281
1
  0
DICTIONARY
  5
16
330
A
100
AcDbDictionary
281
1
  0
LAYOUT
  5
1A
330
D
100
AcDbPlotSettings
  1

  4
A3
  6

 40
7.5
 41
20.0
 42
7.5
 43
20.0
 44
420.0
 45
297.0
 46
0.0
 47
0.0
 48
0.0
 49
0.0
140
0.0
141
0.0
142
1.0
143
1.0
 70
1024
 72
1
 73
0
 74
5
  7

 75
16
 76
0
 77
2
 78
300
147
1.0
148
0.0
149
0.0
100
AcDbLayout
  1
Model
 70
1
 71
0
 10
0.0
 20
0.0
 11
420.0
 21
297.0
 12
0.0
 22
0.0
 32
0.0
 14
1e+20
 24
1e+20
 34
1e+20
 15
-1e+20
 25
-1e+20
 35
-1e+20
146
0.0
 13
0.0
 23
0.0
 33
0.0
 16
1.0
 26
0.0
 36
0.0
 17
0.0
 27
1.0
 37
0.0
 76
1
330
17
  0
LAYOUT
  5
1E
330
D
100
AcDbPlotSettings
  1

  4
A3
  6

 40
7.5
 41
20.0
 42
7.5
 43
20.0
 44
420.0
 45
297.0
 46
0.0
 47
0.0
 48
0.0
 49
0.0
140
0.0
141
0.0
142
1.0
143
1.0
 70
0
 72
1
 73
0
 74
5
  7

 75
16
 76
0
 77
2
 78
300
147
1.0
148
0.0
149
0.0
100
AcDbLayout
  1
Layout1
 70
1
 71
1
 10
0.0
 20
0.0
 11
420.0
 21
297.0
 12
0.0
 22
0.0
 32
0.0
 14
1e+20
 24
1e+20
 34
1e+20
 15
-1e+20
 25
-1e+20
 35
-1e+20
146
0.0
 13
0.0
 23
0.0
 33
0.0
 16
1.0
 26
0.0
 36
0.0
 17
0.0
 27
1.0
 37
0.0
 76
1
330
1B
  0
MATERIAL
  5
1F
102
{ACAD_REACTORS
330
E
102
}
330
E
100
AcDbMaterial
  1
ByBlock
  2

 70
0
 40
1.0
 71
1
 41
1.0
 91
-1023410177
 42
1.0
 72
1
  3

 73
1
 74
1
 75
1
 44
0.5
 73
0
 45
1.0
 46
1.0
 77
1
  4

 78
1
 79
1
170
1
 48
1.0
171
1
  6

172
1
173
1
174
1
140
1.0
141
1.0
175
1
  7

176
1
177
1
178
1
143
1.0
179
1
  8

270
1
271
1
272
1
145
1.0
146
1.0
273
1
  9

274
1
275
1
276
1
 42
1.0
 72
1
  3

 73
1
 74
1
 75
1
 94
63
  0
MATERIAL
  5
20
102
{ACAD_REACTORS
330
E
102
}
330
E
100
AcDbMaterial
  1
ByLayer
  2

 70
0
 40
1.0
 71
1
 41
1.0
 91
-1023410177
 42
1.0
 72
1
  3

 73
1
 74
1
 75
1
 44
0.5
 73
0
 45
1.0
 46
1.0
 77
1
  4

 78
1
 79
1
170
1
 48
1.0
171
1
  6

172
1
173
1
174
1
140
1.0
141
1.0
175
1
  7

176
1
177
1
178
1
143
1.0
179
1
  8

270
1
271
1
272
1
145
1.0
146
1.0
273
1
  9

274
1
275
1
276
1
 42
1.0
 72
1
  3

 73
1
 74
1
 75
1
 94
63
  0
MATERIAL
  5
21
102
{ACAD_REACTORS
330
E
102
}
330
E
100
AcDbMaterial
  1
Global
  2

 70
0
 40
1.0
 71
1
 41
1.0
 91
-1023410177
 42
1.0
 72
1
  3

 73
1
 74
1
 75
1
 44
0.5
 73
0
 45
1.0
 46
1.0
 77
1
  4

 78
1
 79
1
170
1
 48
1.0
171
1
  6

172
1
173
1
174
1
140
1.0
141
1.0
175
1
  7

176
1
177
1
178
1
143
1.0
179
1
  8

270
1
271
1
272
1
145
1.0
146
1.0
273
1
  9

274
1
275
1
276
1
 42
1.0
 72
1
  3

 73
1
 74
1
 75
1
 94
63
  0
MLINESTYLE
  5
22
102
{ACAD_REACTORS
330
10
102
}
330
10
100
AcDbMlineStyle
  2
Standard
 70
0
  3

 62
256
 51
90.0
 52
90.0
 71
2
 49
0.5
 62
256
  6
BYLAYER
 49
-0.5
 62
256
  6
BYLAYER
  0
MLEADERSTYLE
  5
2C
102
{ACAD_REACTORS
330
F
102
}
330
F
100
AcDbMLeaderStyle
179
2
170
2
171
1
172
0
 90
2
 40
0.0
 41
0.0
173
1
 91
-1056964608
 92
-2
290
1
 42
2.0
291
1
 43
8.0
  3
Standard
 44
4.0
300

342
29
174
1
175
1
176
0
178
1
 93
-1056964608
 45
4.0
292
0
297
0
 46
4.0
 94
-1056964608
 47
1.0
 49
1.0
140
1.0
294
1
141
0.0
177
0
142
1.0
295
0
296
0
143
3.75
271
0
272
9
273
9
  0
DICTIONARY
  5
2D
330
A
100
AcDbDictionary
280
1
281
1
  3
CREATED_BY_EZDXF
350
2E
  3
WRITTEN_BY_EZDXF
350
209
  0
DICTIONARYVAR
  5
2E
330
2D
100
DictionaryVariables
280
0
  1
1.4.3 @ 2026-03-09T10:01:57.060464+00:00
  0
DICTIONARYVAR
  5
209
330
2D
100
DictionaryVariables
280
0
  1
1.4.3 @ 2026-03-09T10:01:57.295891+00:00
  0
ENDSEC
  0
EOF
