  0
SECTION
  2
HEADER
  9
$ACADVER
  1
AC1024
  9
$ACADMAINTVER
 70
6
  9
$DWGCODEPAGE
  3
ANSI_1252
  9
$LASTSAVEDBY
  1
ezdxf
  9
$INSBASE
 10
0.0
 20
0.0
 30
0.0
  9
$EXTMIN
 10
1e+20
 20
1e+20
 30
1e+20
  9
$EXTMAX
 10
-1e+20
 20
-1e+20
 30
-1e+20
  9
$LIMMIN
 10
0.0
 20
0.0
  9
$LIMMAX
 10
420.0
 20
297.0
  9
$ORTHOMODE
 70
0
  9
$REGENMODE
 70
1
  9
$FILLMODE
 70
1
  9
$QTEXTMODE
 70
0
  9
$MIRRTEXT
 70
1
  9
$LTSCALE
 40
1.0
  9
$ATTMODE
 70
1
  9
$TEXTSIZE
 40
2.5
  9
$TRACEWID
 40
1.0
  9
$TEXTSTYLE
  7
Standard
  9
$CLAYER
  8
0
  9
$CELTYPE
  6
ByLayer
  9
$CECOLOR
 62
256
  9
$CELTSCALE
 40
1.0
  9
$DISPSILH
 70
0
  9
$DIMSCALE
 40
1.0
  9
$DIMASZ
 40
2.5
  9
$DIMEXO
 40
0.625
  9
$DIMDLI
 40
3.75
  9
$DIMRND
 40
0.0
  9
$DIMDLE
 40
0.0
  9
$DIMEXE
 40
1.25
  9
$DIMTP
 40
0.0
  9
$DIMTM
 40
0.0
  9
$DIMTXT
 40
2.5
  9
$DIMCEN
 40
2.5
  9
$DIMTSZ
 40
0.0
  9
$DIMTOL
 70
0
  9
$DIMLIM
 70
0
  9
$DIMTIH
 70
0
  9
$DIMTOH
 70
0
  9
$DIMSE1
 70
0
  9
$DIMSE2
 70
0
  9
$DIMTAD
 70
1
  9
$DIMZIN
 70
8
  9
$DIMBLK
  1

  9
$DIMASO
 70
1
  9
$DIMSHO
 70
1
  9
$DIMPOST
  1

  9
$DIMAPOST
  1

  9
$DIMALT
 70
0
  9
$DIMALTD
 70
3
  9
$DIMALTF
 40
0.03937007874
  9
$DIMLFAC
 40
1.0
  9
$DIMTOFL
 70
1
  9
$DIMTVP
 40
0.0
  9
$DIMTIX
 70
0
  9
$DIMSOXD
 70
0
  9
$DIMSAH
 70
0
  9
$DIMBLK1
  1

  9
$DIMBLK2
  1

  9
$DIMSTYLE
  2
ISO-25
  9
$DIMCLRD
 70
0
  9
$DIMCLRE
 70
0
  9
$DIMCLRT
 70
0
  9
$DIMTFAC
 40
1.0
  9
$DIMGAP
 40
0.625
  9
$DIMJUST
 70
0
  9
$DIMSD1
 70
0
  9
$DIMSD2
 70
0
  9
$DIMTOLJ
 70
0
  9
$DIMTZIN
 70
8
  9
$DIMALTZ
 70
0
  9
$DIMALTTZ
 70
0
  9
$DIMUPT
 70
0
  9
$DIMDEC
 70
2
  9
$DIMTDEC
 70
2
  9
$DIMALTU
 70
2
  9
$DIMALTTD
 70
3
  9
$DIMTXSTY
  7
Standard
  9
$DIMAUNIT
 70
0
  9
$DIMADEC
 70
0
  9
$DIMALTRND
 40
0.0
  9
$DIMAZIN
 70
0
  9
$DIMDSEP
 70
44
  9
$DIMATFIT
 70
3
  9
$DIMFRAC
 70
0
  9
$DIMLDRBLK
  1

  9
$DIMLUNIT
 70
2
  9
$DIMLWD
 70
-2
  9
$DIMLWE
 70
-2
  9
$DIMTMOVE
 70
0
  9
$DIMFXL
 40
1.0
  9
$DIMFXLON
 70
0
  9
$DIMJOGANG
 40
0.785398163397
  9
$DIMTFILL
 70
0
  9
$DIMTFILLCLR
 70
0
  9
$DIMARCSYM
 70
0
  9
$DIMLTYPE
  6

  9
$DIMLTEX1
  6

  9
$DIMLTEX2
  6

  9
$DIMTXTDIRECTION
 70
0
  9
$LUNITS
 70
2
  9
$LUPREC
 70
4
  9
$SKETCHINC
 40
1.0
  9
$FILLETRAD
 40
10.0
  9
$AUNITS
 70
0
  9
$AUPREC
 70
2
  9
$MENU
  1
.
  9
$ELEVATION
 40
0.0
  9
$PELEVATION
 40
0.0
  9
$THICKNESS
 40
0.0
  9
$LIMCHECK
 70
0
  9
$CHAMFERA
 40
0.0
  9
$CHAMFERB
 40
0.0
  9
$CHAMFERC
 40
0.0
  9
$CHAMFERD
 40
0.0
  9
$SKPOLY
 70
0
  9
$TDCREATE
 40
2461201.8914699075
  9
$TDUCREATE
 40
2458532.153996898
  9
$TDUPDATE
 40
2461201.8914699075
  9
$TDUUPDATE
 40
2458532.1544311
  9
$TDINDWG
 40
0.0
  9
$TDUSRTIMER
 40
0.0
  9
$USRTIMER
 70
1
  9
$ANGBASE
 50
0.0
  9
$ANGDIR
 70
0
  9
$PDMODE
 70
0
  9
$PDSIZE
 40
0.0
  9
$PLINEWID
 40
0.0
  9
$SPLFRAME
 70
0
  9
$SPLINETYPE
 70
6
  9
$SPLINESEGS
 70
8
  9
$HANDSEED
  5
37B
  9
$SURFTAB1
 70
6
  9
$SURFTAB2
 70
6
  9
$SURFTYPE
 70
6
  9
$SURFU
 70
6
  9
$SURFV
 70
6
  9
$UCSBASE
  2

  9
$UCSNAME
  2

  9
$UCSORG
 10
0.0
 20
0.0
 30
0.0
  9
$UCSXDIR
 10
1.0
 20
0.0
 30
0.0
  9
$UCSYDIR
 10
0.0
 20
1.0
 30
0.0
  9
$UCSORTHOREF
  2

  9
$UCSORTHOVIEW
 70
0
  9
$UCSORGTOP
 10
0.0
 20
0.0
 30
0.0
  9
$UCSORGBOTTOM
 10
0.0
 20
0.0
 30
0.0
  9
$UCSORGLEFT
 10
0.0
 20
0.0
 30
0.0
  9
$UCSORGRIGHT
 10
0.0
 20
0.0
 30
0.0
  9
$UCSORGFRONT
 10
0.0
 20
0.0
 30
0.0
  9
$UCSORGBACK
 10
0.0
 20
0.0
 30
0.0
  9
$PUCSBASE
  2

  9
$PUCSNAME
  2

  9
$PUCSORG
 10
0.0
 20
0.0
 30
0.0
  9
$PUCSXDIR
 10
1.0
 20
0.0
 30
0.0
  9
$PUCSYDIR
 10
0.0
 20
1.0
 30
0.0
  9
$PUCSORTHOREF
  2

  9
$PUCSORTHOVIEW
 70
0
  9
$PUCSORGTOP
 10
0.0
 20
0.0
 30
0.0
  9
$PUCSORGBOTTOM
 10
0.0
 20
0.0
 30
0.0
  9
$PUCSORGLEFT
 10
0.0
 20
0.0
 30
0.0
  9
$PUCSORGRIGHT
 10
0.0
 20
0.0
 30
0.0
  9
$PUCSORGFRONT
 10
0.0
 20
0.0
 30
0.0
  9
$PUCSORGBACK
 10
0.0
 20
0.0
 30
0.0
  9
$USERI1
 70
0
  9
$USERI2
 70
0
  9
$USERI3
 70
0
  9
$USERI4
 70
0
  9
$USERI5
 70
0
  9
$USERR1
 40
0.0
  9
$USERR2
 40
0.0
  9
$USERR3
 40
0.0
  9
$USERR4
 40
0.0
  9
$USERR5
 40
0.0
  9
$WORLDVIEW
 70
1
  9
$SHADEDGE
 70
3
  9
$SHADEDIF
 70
70
  9
$TILEMODE
 70
1
  9
$MAXACTVP
 70
64
  9
$PINSBASE
 10
0.0
 20
0.0
 30
0.0
  9
$PLIMCHECK
 70
0
  9
$PEXTMIN
 10
1e+20
 20
1e+20
 30
1e+20
  9
$PEXTMAX
 10
-1e+20
 20
-1e+20
 30
-1e+20
  9
$PLIMMIN
 10
0.0
 20
0.0
  9
$PLIMMAX
 10
420.0
 20
297.0
  9
$UNITMODE
 70
0
  9
$VISRETAIN
 70
1
  9
$PLINEGEN
 70
0
  9
$PSLTSCALE
 70
1
  9
$TREEDEPTH
 70
3020
  9
$CMLSTYLE
  2
Standard
  9
$CMLJUST
 70
0
  9
$CMLSCALE
 40
20.0
  9
$PROXYGRAPHICS
 70
1
  9
$MEASUREMENT
 70
1
  9
$CELWEIGHT
370
-1
  9
$ENDCAPS
280
0
  9
$JOINSTYLE
280
0
  9
$LWDISPLAY
290
0
  9
$INSUNITS
 70
6
  9
$HYPERLINKBASE
  1

  9
$STYLESHEET
  1

  9
$XEDIT
290
1
  9
$CEPSNTYPE
380
0
  9
$PSTYLEMODE
290
1
  9
$FINGERPRINTGUID
  2
{44242F7B-EC4E-43F2-A7A1-E5834C38F64D}
  9
$VERSIONGUID
  2
{FF1841EE-63BD-45DD-B2BD-2D0EA3931C6D}
  9
$EXTNAMES
290
1
  9
$PSVPSCALE
 40
0.0
  9
$OLESTARTUP
290
0
  9
$SORTENTS
280
127
  9
$INDEXCTL
280
0
  9
$HIDETEXT
280
1
  9
$XCLIPFRAME
280
1
  9
$HALOGAP
280
0
  9
$OBSCOLOR
 70
257
  9
$OBSLTYPE
280
0
  9
$INTERSECTIONDISPLAY
280
0
  9
$INTERSECTIONCOLOR
 70
257
  9
$DIMASSOC
280
2
  9
$PROJECTNAME
  1

  9
$CAMERADISPLAY
290
0
  9
$LENSLENGTH
 40
50.0
  9
$CAMERAHEIGHT
 40
0.0
  9
$STEPSPERSEC
 40
24.0
  9
$STEPSIZE
 40
100.0
  9
$3DDWFPREC
 40
2.0
  9
$PSOLWIDTH
 40
0.005
  9
$PSOLHEIGHT
 40
0.08
  9
$LOFTANG1
 40
1.570796326795
  9
$LOFTANG2
 40
1.570796326795
  9
$LOFTMAG1
 40
0.0
  9
$LOFTMAG2
 40
0.0
  9
$LOFTPARAM
 70
7
  9
$LOFTNORMALS
280
1
  9
$LATITUDE
 40
37.795
  9
$LONGITUDE
 40
-122.394
  9
$NORTHDIRECTION
 40
0.0
  9
$TIMEZONE
 70
-8000
  9
$LIGHTGLYPHDISPLAY
280
1
  9
$TILEMODELIGHTSYNCH
280
1
  9
$CMATERIAL
347
20
  9
$SOLIDHIST
280
0
  9
$SHOWHIST
280
1
  9
$DWFFRAME
280
2
  9
$DGNFRAME
280
2
  9
$REALWORLDSCALE
290
1
  9
$INTERFERECOLOR
 62
256
  9
$CSHADOW
280
0
  9
$SHADOWPLANELOCATION
 40
0.0
  0
ENDSEC
  0
SECTION
  2
CLASSES
  0
CLASS
  1
ACDBDICTIONARYWDFLT
  2
AcDbDictionaryWithDefault
  3
ObjectDBX Classes
 90
0
 91
0
280
0
281
0
  0
CLASS
  1
SUN
  2
AcDbSun
  3
SCENEOE
 90
1153
 91
0
280
0
281
0
  0
CLASS
  1
VISUALSTYLE
  2
AcDbVisualStyle
  3
ObjectDBX Classes
 90
4095
 91
0
280
0
281
0
  0
CLASS
  1
MATERIAL
  2
AcDbMaterial
  3
ObjectDBX Classes
 90
1153
 91
0
280
0
281
0
  0
CLASS
  1
SCALE
  2
AcDbScale
  3
ObjectDBX Classes
 90
1153
 91
0
280
0
281
0
  0
CLASS
  1
TABLESTYLE
  2
AcDbTableStyle
  3
ObjectDBX Classes
 90
4095
 91
0
280
0
281
0
  0
CLASS
  1
MLEADERSTYLE
  2
AcDbMLeaderStyle
  3
ACDB_MLEADERSTYLE_CLASS
 90
4095
 91
0
280
0
281
0
  0
CLASS
  1
DICTIONARYVAR
  2
AcDbDictionaryVar
  3
ObjectDBX Classes
 90
0
 91
0
280
0
281
0
  0
CLASS
  1
CELLSTYLEMAP
  2
AcDbCellStyleMap
  3
ObjectDBX Classes
 90
1152
 91
0
280
0
281
0
  0
CLASS
  1
MENTALRAYRENDERSETTINGS
  2
AcDbMentalRayRenderSettings
  3
SCENEOE
 90
1024
 91
0
280
0
281
0
  0
CLASS
  1
ACDBDETAILVIEWSTYLE
  2
AcDbDetailViewStyle
  3
ObjectDBX Classes
 90
1025
 91
0
280
0
281
0
  0
CLASS
  1
ACDBSECTIONVIEWSTYLE
  2
AcDbSectionViewStyle
  3
ObjectDBX Classes
 90
1025
 91
0
280
0
281
0
  0
CLASS
  1
RASTERVARIABLES
  2
AcDbRasterVariables
  3
ISM
 90
0
 91
0
280
0
281
0
  0
CLASS
  1
LAYOUT
  2
AcDbLayout
  3
ObjectDBX Classes
 90
0
 91
0
280
0
281
0
  0
CLASS
  1
ACDBPLACEHOLDER
  2
AcDbPlaceHolder
  3
ObjectDBX Classes
 90
0
 91
0
280
0
281
0
  0
ENDSEC
  0
SECTION
  2
TABLES
  0
TABLE
  2
VPORT
  5
8
330
0
100
AcDbSymbolTable
 70
1
  0
VPORT
  5
23
330
8
100
AcDbSymbolTableRecord
100
AcDbViewportTableRecord
  2
*Active
 70
0
 10
0.0
 20
0.0
 11
1.0
 21
1.0
 12
0.0
 22
0.0
 13
0.0
 23
0.0
 14
0.5
 24
0.5
 15
0.5
 25
0.5
 16
0.0
 26
0.0
 36
1.0
 17
0.0
 27
0.0
 37
0.0
 40
1000.0
 41
1.34
 42
50.0
 43
0.0
 44
0.0
 50
0.0
 51
0.0
 71
0
 72
1000
 73
1
 74
3
 75
0
 76
0
 77
0
 78
0
281
0
 65
0
146
0.0
  0
ENDTAB
  0
TABLE
  2
LTYPE
  5
2
330
0
100
AcDbSymbolTable
 70
3
  0
LTYPE
  5
24
330
2
100
AcDbSymbolTableRecord
100
AcDbLinetypeTableRecord
  2
ByBlock
 70
0
  3

 72
65
 73
0
 40
0.0
  0
LTYPE
  5
25
330
2
100
AcDbSymbolTableRecord
100
AcDbLinetypeTableRecord
  2
ByLayer
 70
0
  3

 72
65
 73
0
 40
0.0
  0
LTYPE
  5
26
330
2
100
AcDbSymbolTableRecord
100
AcDbLinetypeTableRecord
  2
Continuous
 70
0
  3

 72
65
 73
0
 40
0.0
  0
ENDTAB
  0
TABLE
  2
LAYER
  5
1
330
0
100
AcDbSymbolTable
 70
15
  0
LAYER
  5
27
330
1
100
AcDbSymbolTableRecord
100
AcDbLayerTableRecord
  2
0
 70
0
 62
7
  6
Continuous
370
-3
390
13
347
21
  0
LAYER
  5
28
330
1
100
AcDbSymbolTableRecord
100
AcDbLayerTableRecord
  2
Defpoints
 70
0
 62
7
  6
Continuous
290
0
370
-3
390
13
347
21
  0
LAYER
  5
2F
330
1
100
AcDbSymbolTableRecord
100
AcDbLayerTableRecord
  2
NOMENCLATURA
 70
0
 62
7
  6
Continuous
370
-3
390
13
347
21
  0
LAYER
  5
30
330
1
100
AcDbSymbolTableRecord
100
AcDbLayerTableRecord
  2
Texto Seção
 70
0
 62
7
  6
Continuous
370
-3
390
13
347
21
  0
LAYER
  5
31
330
1
100
AcDbSymbolTableRecord
100
AcDbLayerTableRecord
  2
SARR_3.5x7
 70
0
 62
7
  6
Continuous
370
-3
390
13
347
21
  0
LAYER
  5
32
330
1
100
AcDbSymbolTableRecord
100
AcDbLayerTableRecord
  2
5
 70
0
 62
7
  6
Continuous
370
-3
390
13
347
21
  0
LAYER
  5
33
330
1
100
AcDbSymbolTableRecord
100
AcDbLayerTableRecord
  2
Painéis
 70
0
 62
7
  6
Continuous
370
-3
390
13
347
21
  0
LAYER
  5
34
330
1
100
AcDbSymbolTableRecord
100
AcDbLayerTableRecord
  2
detalhes
 70
0
 62
7
  6
Continuous
370
-3
390
13
347
21
  0
LAYER
  5
35
330
1
100
AcDbSymbolTableRecord
100
AcDbLayerTableRecord
  2
TEXTO PILAR
 70
0
 62
7
  6
Continuous
370
-3
390
13
347
21
  0
LAYER
  5
36
330
1
100
AcDbSymbolTableRecord
100
AcDbLayerTableRecord
  2
SARR_2.2x7
 70
0
 62
7
  6
Continuous
370
-3
390
13
347
21
  0
LAYER
  5
37
330
1
100
AcDbSymbolTableRecord
100
AcDbLayerTableRecord
  2
Cota Seção (2x)
 70
0
 62
7
  6
Continuous
370
-3
390
13
347
21
  0
LAYER
  5
38
330
1
100
AcDbSymbolTableRecord
100
AcDbLayerTableRecord
  2
Madeira
 70
0
 62
7
  6
Continuous
370
-3
390
13
347
21
  0
LAYER
  5
39
330
1
100
AcDbSymbolTableRecord
100
AcDbLayerTableRecord
  2
CONCRETO
 70
0
 62
7
  6
Continuous
370
-3
390
13
347
21
  0
LAYER
  5
3A
330
1
100
AcDbSymbolTableRecord
100
AcDbLayerTableRecord
  2
COTA
 70
0
 62
7
  6
Continuous
370
-3
390
13
347
21
  0
LAYER
  5
3B
330
1
100
AcDbSymbolTableRecord
100
AcDbLayerTableRecord
  2
Cotas
 70
0
 62
7
  6
Continuous
370
-3
390
13
347
21
  0
ENDTAB
  0
TABLE
  2
STYLE
  5
5
330
0
100
AcDbSymbolTable
 70
1
  0
STYLE
  5
29
330
5
100
AcDbSymbolTableRecord
100
AcDbTextStyleTableRecord
  2
Standard
 70
0
 40
0.0
 41
1.0
 50
0.0
 71
0
 42
2.5
  3
txt
  4

  0
ENDTAB
  0
TABLE
  2
VIEW
  5
7
330
0
100
AcDbSymbolTable
 70
0
  0
ENDTAB
  0
TABLE
  2
UCS
  5
6
330
0
100
AcDbSymbolTable
 70
0
  0
ENDTAB
  0
TABLE
  2
APPID
  5
3
330
0
100
AcDbSymbolTable
 70
3
  0
APPID
  5
2A
330
3
100
AcDbSymbolTableRecord
100
AcDbRegAppTableRecord
  2
ACAD
 70
0
  0
APPID
  5
378
330
3
100
AcDbSymbolTableRecord
100
AcDbRegAppTableRecord
  2
HATCHBACKGROUNDCOLOR
 70
0
  0
APPID
  5
379
330
3
100
AcDbSymbolTableRecord
100
AcDbRegAppTableRecord
  2
EZDXF
 70
0
  0
ENDTAB
  0
TABLE
  2
DIMSTYLE
  5
4
330
0
100
AcDbSymbolTable
 70
1
100
AcDbDimStyleTable
  0
DIMSTYLE
105
2B
330
4
100
AcDbSymbolTableRecord
100
AcDbDimStyleTableRecord
  2
Standard
 70
0
 40
1.0
 41
2.5
 42
0.625
 43
3.75
 44
1.25
 45
0.0
 46
0.0
 47
0.0
 48
0.0
 49
2.5
140
2.5
141
2.5
142
0.0
143
0.03937007874
144
1.0
145
0.0
146
1.0
147
0.625
148
0.0
 69
0
 70
0
 71
0
 72
0
 73
0
 74
0
 75
0
 76
0
 77
1
 78
8
 79
3
170
0
171
3
172
1
173
0
174
0
175
0
176
0
177
0
178
0
179
2
271
2
272
2
273
2
274
3
275
0
276
0
277
2
278
44
279
0
280
0
281
0
282
0
283
0
284
8
285
0
286
0
288
0
289
3
290
0
371
-2
372
-2
  0
ENDTAB
  0
TABLE
  2
BLOCK_RECORD
  5
9
330
0
100
AcDbSymbolTable
 70
2
  0
BLOCK_RECORD
  5
17
330
9
100
AcDbSymbolTableRecord
100
AcDbBlockTableRecord
  2
*Model_Space
340
1A
 70
0
280
1
281
0
  0
BLOCK_RECORD
  5
1B
330
9
100
AcDbSymbolTableRecord
100
AcDbBlockTableRecord
  2
*Paper_Space
340
1E
 70
0
280
1
281
0
  0
ENDTAB
  0
ENDSEC
  0
SECTION
  2
BLOCKS
  0
BLOCK
  5
18
330
17
100
AcDbEntity
  8
0
100
AcDbBlockBegin
  2
*Model_Space
 70
0
 10
0.0
 20
0.0
 30
0.0
  3
*Model_Space
  1

  0
ENDBLK
  5
19
330
17
100
AcDbEntity
  8
0
100
AcDbBlockEnd
  0
BLOCK
  5
1C
330
1B
100
AcDbEntity
  8
0
100
AcDbBlockBegin
  2
*Paper_Space
 70
0
 10
0.0
 20
0.0
 30
0.0
  3
*Paper_Space
  1

  0
ENDBLK
  5
1D
330
1B
100
AcDbEntity
  8
0
100
AcDbBlockEnd
  0
ENDSEC
  0
SECTION
  2
ENTITIES
  0
LINE
  5
3C
330
17
100
AcDbEntity
  8
SARR_2.2x7
 62
40
370
25
100
AcDbLine
 10
5495.736199405341
 20
5934.791919861874
 30
0.0
 11
5495.736199405333
 21
5974.791919861874
 31
0.0
  0
LINE
  5
3D
330
17
100
AcDbEntity
  8
Painéis
 62
200
370
25
100
AcDbLine
 10
5488.736199405334
 20
5974.791919861874
 30
0.0
 11
5716.736199405334
 21
5974.7919198619
 31
0.0
  0
LINE
  5
3E
330
17
100
AcDbEntity
  8
Painéis
 62
200
370
25
100
AcDbLine
 10
5488.736199405341
 20
5934.791919861874
 30
0.0
 11
5716.736199405341
 21
5934.7919198619
 31
0.0
  0
LINE
  5
3F
330
17
100
AcDbEntity
  8
Painéis
 62
200
370
25
100
AcDbLine
 10
5610.736199405341
 20
5934.791919861888
 30
0.0
 11
5610.736199405334
 21
5974.791919861889
 31
0.0
  0
LINE
  5
40
330
17
100
AcDbEntity
  8
Painéis
 62
200
370
25
100
AcDbLine
 10
5716.736199405341
 20
5934.7919198619
 30
0.0
 11
5716.736199405334
 21
5974.7919198619
 31
0.0
  0
LINE
  5
41
330
17
100
AcDbEntity
  8
Painéis
 62
200
370
25
100
AcDbLine
 10
5488.736199405341
 20
5934.791919861874
 30
0.0
 11
5488.736199405334
 21
5974.791919861874
 31
0.0
  0
LINE
  5
42
330
17
100
AcDbEntity
  8
SARR_2.2x7
 62
40
370
25
100
AcDbLine
 10
5707.736199405341
 20
5934.791919861874
 30
0.0
 11
5707.736199405341
 21
5974.791919861874
 31
0.0
  0
LINE
  5
43
330
17
100
AcDbEntity
  8
NOMENCLATURA
 62
7
370
25
100
AcDbLine
 10
5474.353814462755
 20
5959.757848538361
 30
0.0
 11
5517.11858434792
 21
5959.757848538361
 31
0.0
  0
LINE
  5
44
330
17
100
AcDbEntity
  8
NOMENCLATURA
 62
7
370
25
100
AcDbLine
 10
5512.11858434792
 20
5964.735470427259
 30
0.0
 11
5512.11858434792
 21
5954.780226649459
 31
0.0
  0
LINE
  5
45
330
17
100
AcDbEntity
  8
NOMENCLATURA
 62
7
370
25
100
AcDbLine
 10
5479.353814462754
 20
5964.735470427259
 30
0.0
 11
5479.353814462754
 21
5954.780226649459
 31
0.0
  0
LINE
  5
46
330
17
100
AcDbEntity
  8
SARR_2.2x7
 62
40
370
25
100
AcDbLine
 10
5707.736199405341
 20
5967.791919861872
 30
0.0
 11
5610.736199405334
 21
5967.791919861873
 31
0.0
  0
LINE
  5
47
330
17
100
AcDbEntity
  8
SARR_2.2x7
 62
40
370
25
100
AcDbLine
 10
5707.736199405341
 20
5941.791919861877
 30
0.0
 11
5610.736199405341
 21
5941.791919861875
 31
0.0
  0
LINE
  5
48
330
17
100
AcDbEntity
  8
SARR_2.2x7
 62
40
370
25
100
AcDbLine
 10
5610.736199405334
 20
5967.791919861887
 30
0.0
 11
5495.736199405333
 21
5967.791919861892
 31
0.0
  0
LINE
  5
49
330
17
100
AcDbEntity
  8
SARR_2.2x7
 62
40
370
25
100
AcDbLine
 10
5610.736199405341
 20
5941.791919861891
 30
0.0
 11
5495.736199405341
 21
5941.791919861887
 31
0.0
  0
LINE
  5
4A
330
17
100
AcDbEntity
  8
COTA
 62
241
370
25
100
AcDbLine
 10
5488.736199405334
 20
5974.791919861874
 30
0.0
 11
5488.736199405334
 21
5986.791919861873
 31
0.0
  0
LINE
  5
4B
330
17
100
AcDbEntity
  8
COTA
 62
241
370
25
100
AcDbLine
 10
5716.736199405334
 20
5986.791919861873
 30
0.0
 11
5716.736199405334
 21
5974.7919198619
 31
0.0
  0
LINE
  5
4C
330
17
100
AcDbEntity
  8
Painéis
 62
200
370
25
100
AcDbLine
 10
5714.736199405341
 20
5934.7919198619
 30
0.0
 11
5714.736199405333
 21
5974.7919198619
 31
0.0
  0
LINE
  5
4D
330
17
100
AcDbEntity
  8
NOMENCLATURA
 62
7
370
25
100
AcDbLine
 10
5787.743658731864
 20
5864.471014667158
 30
0.0
 11
5726.934200760593
 21
5864.471014667158
 31
0.0
  0
LINE
  5
4E
330
17
100
AcDbEntity
  8
NOMENCLATURA
 62
7
370
25
100
AcDbLine
 10
5726.934200760593
 20
5864.471014667158
 30
0.0
 11
5726.934200760593
 21
5914.857750498498
 31
0.0
  0
LINE
  5
4F
330
17
100
AcDbEntity
  8
SARR_2.2x7
 62
40
370
25
100
AcDbLine
 10
6206.941660087117
 20
5934.791919861874
 30
0.0
 11
6206.941660087125
 21
5974.791919861874
 31
0.0
  0
LINE
  5
50
330
17
100
AcDbEntity
  8
Painéis
 62
200
370
25
100
AcDbLine
 10
6215.941660087125
 20
5974.791919861874
 30
0.0
 11
5797.941660087125
 21
5974.7919198619
 31
0.0
  0
LINE
  5
51
330
17
100
AcDbEntity
  8
Painéis
 62
200
370
25
100
AcDbLine
 10
6215.941660087118
 20
5934.791919861874
 30
0.0
 11
5797.941660087118
 21
5934.7919198619
 31
0.0
  0
LINE
  5
52
330
17
100
AcDbEntity
  8
Painéis
 62
200
370
25
100
AcDbLine
 10
5969.941660087117
 20
5934.791919861888
 30
0.0
 11
5969.941660087124
 21
5974.791919861889
 31
0.0
  0
LINE
  5
53
330
17
100
AcDbEntity
  8
Painéis
 62
200
370
25
100
AcDbLine
 10
5797.941660087118
 20
5934.7919198619
 30
0.0
 11
5797.941660087125
 21
5974.7919198619
 31
0.0
  0
LINE
  5
54
330
17
100
AcDbEntity
  8
Painéis
 62
200
370
25
100
AcDbLine
 10
6215.941660087118
 20
5934.791919861874
 30
0.0
 11
6215.941660087125
 21
5974.791919861874
 31
0.0
  0
LINE
  5
55
330
17
100
AcDbEntity
  8
SARR_2.2x7
 62
40
370
25
100
AcDbLine
 10
5806.941660087117
 20
5934.791919861874
 30
0.0
 11
5806.941660087117
 21
5974.791919861874
 31
0.0
  0
LINE
  5
56
330
17
100
AcDbEntity
  8
SARR_2.2x7
 62
40
370
25
100
AcDbLine
 10
5806.941660087117
 20
5967.791919861872
 30
0.0
 11
5969.941660087124
 21
5967.791919861873
 31
0.0
  0
LINE
  5
57
330
17
100
AcDbEntity
  8
SARR_2.2x7
 62
40
370
25
100
AcDbLine
 10
5806.941660087117
 20
5941.791919861877
 30
0.0
 11
5969.941660087117
 21
5941.791919861875
 31
0.0
  0
LINE
  5
58
330
17
100
AcDbEntity
  8
SARR_2.2x7
 62
40
370
25
100
AcDbLine
 10
5969.941660087124
 20
5967.791919861887
 30
0.0
 11
6206.941660087125
 21
5967.791919861892
 31
0.0
  0
LINE
  5
59
330
17
100
AcDbEntity
  8
SARR_2.2x7
 62
40
370
25
100
AcDbLine
 10
5969.941660087117
 20
5941.791919861891
 30
0.0
 11
6206.941660087117
 21
5941.791919861887
 31
0.0
  0
LINE
  5
5A
330
17
100
AcDbEntity
  8
COTA
 62
241
370
25
100
AcDbLine
 10
6215.941660087125
 20
5974.791919861874
 30
0.0
 11
6215.941660087125
 21
5986.791919861873
 31
0.0
  0
LINE
  5
5B
330
17
100
AcDbEntity
  8
COTA
 62
241
370
25
100
AcDbLine
 10
5797.941660087125
 20
5986.791919861873
 30
0.0
 11
5797.941660087125
 21
5974.7919198619
 31
0.0
  0
LINE
  5
5C
330
17
100
AcDbEntity
  8
Painéis
 62
200
370
25
100
AcDbLine
 10
5799.941660087117
 20
5934.7919198619
 30
0.0
 11
5799.941660087124
 21
5974.7919198619
 31
0.0
  0
LINE
  5
5D
330
17
100
AcDbEntity
  8
NOMENCLATURA
 62
7
370
25
100
AcDbLine
 10
5787.743658731864
 20
5864.471014667158
 30
0.0
 11
5787.743658731864
 21
5914.857750498498
 31
0.0
  0
LINE
  5
5E
330
17
100
AcDbEntity
  8
Painéis
 62
200
370
25
100
AcDbLine
 10
6213.941660087117
 20
5934.791919861874
 30
0.0
 11
6213.941660087125
 21
5974.791919861874
 31
0.0
  0
LINE
  5
5F
330
17
100
AcDbEntity
  8
NOMENCLATURA
 62
7
370
25
100
AcDbLine
 10
6285.997571307775
 20
5864.471014667043
 30
0.0
 11
6226.139661442378
 21
5864.471014667043
 31
0.0
  0
LINE
  5
60
330
17
100
AcDbEntity
  8
NOMENCLATURA
 62
7
370
25
100
AcDbLine
 10
6226.139661442378
 20
5864.471014667043
 30
0.0
 11
6226.139661442378
 21
5914.857750498383
 31
0.0
  0
LINE
  5
61
330
17
100
AcDbEntity
  8
Painéis
 62
200
370
25
100
AcDbLine
 10
5279.335032065586
 20
5667.693412425318
 30
0.0
 11
5209.480013949503
 21
5667.693412425318
 31
0.0
  0
LINE
  5
62
330
17
100
AcDbEntity
  8
Painéis
 62
200
370
25
100
AcDbLine
 10
5279.335032065586
 20
5664.093412425327
 30
0.0
 11
5209.496175726117
 21
5664.093412425316
 31
0.0
  0
LINE
  5
63
330
17
100
AcDbEntity
  8
SARR_2.2x7
 62
40
370
25
100
AcDbLine
 10
5797.941660087125
 20
5990.29191986186
 30
0.0
 11
5971.912552608127
 21
5990.291919861875
 31
0.0
  0
LINE
  5
64
330
17
100
AcDbEntity
  8
SARR_2.2x7
 62
40
370
25
100
AcDbLine
 10
5971.912552608127
 20
5990.291919861875
 30
0.0
 11
6215.941660087125
 21
5990.291919861874
 31
0.0
  0
LINE
  5
65
330
17
100
AcDbEntity
  8
Painéis
 62
200
370
25
100
AcDbLine
 10
5971.912552608127
 20
5986.791919861881
 30
0.0
 11
5971.912552608127
 21
5993.791919861881
 31
0.0
  0
LINE
  5
66
330
17
100
AcDbEntity
  8
SARR_2.2x7
 62
40
370
25
100
AcDbLine
 10
5488.736199405334
 20
5990.291919861861
 30
0.0
 11
5610.736199405334
 21
5990.291919861868
 31
0.0
  0
LINE
  5
67
330
17
100
AcDbEntity
  8
SARR_2.2x7
 62
40
370
25
100
AcDbLine
 10
5610.736199405334
 20
5990.291919861868
 30
0.0
 11
5716.736199405334
 21
5990.291919861878
 31
0.0
  0
LINE
  5
68
330
17
100
AcDbEntity
  8
Painéis
 62
200
370
25
100
AcDbLine
 10
5610.736199405334
 20
5986.791919861873
 30
0.0
 11
5610.736199405334
 21
5993.791919861873
 31
0.0
  0
LINE
  5
69
330
17
100
AcDbEntity
  8
NOMENCLATURA
 62
7
370
25
100
AcDbLine
 10
5475.880994749465
 20
5678.48294741421
 30
0.0
 11
5414.995405350054
 21
5678.48294741421
 31
0.0
  0
LINE
  5
6A
330
17
100
AcDbEntity
  8
SARR_2.2x7
 62
40
370
25
100
AcDbLine
 10
5895.078996104718
 20
5748.803852608927
 30
0.0
 11
5895.078996104725
 21
5788.803852608927
 31
0.0
  0
LINE
  5
6B
330
17
100
AcDbEntity
  8
Painéis
 62
200
370
25
100
AcDbLine
 10
5904.078996104725
 20
5788.803852608927
 30
0.0
 11
5486.078996104725
 21
5788.803852608952
 31
0.0
  0
LINE
  5
6C
330
17
100
AcDbEntity
  8
Painéis
 62
200
370
25
100
AcDbLine
 10
5904.078996104717
 20
5748.803852608927
 30
0.0
 11
5486.078996104717
 21
5748.803852608952
 31
0.0
  0
LINE
  5
6D
330
17
100
AcDbEntity
  8
Painéis
 62
200
370
25
100
AcDbLine
 10
5658.078996104717
 20
5748.803852608941
 30
0.0
 11
5658.078996104725
 21
5788.803852608942
 31
0.0
  0
LINE
  5
6E
330
17
100
AcDbEntity
  8
Painéis
 62
200
370
25
100
AcDbLine
 10
5486.078996104717
 20
5748.803852608952
 30
0.0
 11
5486.078996104725
 21
5788.803852608952
 31
0.0
  0
LINE
  5
6F
330
17
100
AcDbEntity
  8
Painéis
 62
200
370
25
100
AcDbLine
 10
5904.078996104717
 20
5748.803852608927
 30
0.0
 11
5904.078996104725
 21
5788.803852608927
 31
0.0
  0
LINE
  5
70
330
17
100
AcDbEntity
  8
SARR_2.2x7
 62
40
370
25
100
AcDbLine
 10
5495.078996104718
 20
5748.803852608927
 30
0.0
 11
5495.078996104718
 21
5788.803852608927
 31
0.0
  0
LINE
  5
71
330
17
100
AcDbEntity
  8
SARR_2.2x7
 62
40
370
25
100
AcDbLine
 10
5495.078996104718
 20
5781.803852608925
 30
0.0
 11
5658.078996104725
 21
5781.803852608927
 31
0.0
  0
LINE
  5
72
330
17
100
AcDbEntity
  8
SARR_2.2x7
 62
40
370
25
100
AcDbLine
 10
5495.078996104718
 20
5755.803852608931
 30
0.0
 11
5658.078996104717
 21
5755.803852608928
 31
0.0
  0
LINE
  5
73
330
17
100
AcDbEntity
  8
SARR_2.2x7
 62
40
370
25
100
AcDbLine
 10
5658.078996104725
 20
5781.803852608939
 30
0.0
 11
5895.078996104725
 21
5781.803852608945
 31
0.0
  0
LINE
  5
74
330
17
100
AcDbEntity
  8
SARR_2.2x7
 62
40
370
25
100
AcDbLine
 10
5658.078996104717
 20
5755.803852608945
 30
0.0
 11
5895.078996104718
 21
5755.80385260894
 31
0.0
  0
LINE
  5
75
330
17
100
AcDbEntity
  8
COTA
 62
241
370
25
100
AcDbLine
 10
5904.078996104725
 20
5788.803852608927
 30
0.0
 11
5904.078996104725
 21
5800.803852608926
 31
0.0
  0
LINE
  5
76
330
17
100
AcDbEntity
  8
COTA
 62
241
370
25
100
AcDbLine
 10
5486.078996104725
 20
5800.803852608926
 30
0.0
 11
5486.078996104725
 21
5788.803852608952
 31
0.0
  0
LINE
  5
77
330
17
100
AcDbEntity
  8
Painéis
 62
200
370
25
100
AcDbLine
 10
5488.078996104718
 20
5748.803852608952
 30
0.0
 11
5488.078996104725
 21
5788.803852608952
 31
0.0
  0
LINE
  5
78
330
17
100
AcDbEntity
  8
NOMENCLATURA
 62
7
370
25
100
AcDbLine
 10
5475.880994749465
 20
5678.48294741421
 30
0.0
 11
5475.880994749465
 21
5728.869683245551
 31
0.0
  0
LINE
  5
79
330
17
100
AcDbEntity
  8
Painéis
 62
200
370
25
100
AcDbLine
 10
5902.078996104718
 20
5748.803852608927
 30
0.0
 11
5902.078996104725
 21
5788.803852608927
 31
0.0
  0
LINE
  5
7A
330
17
100
AcDbEntity
  8
NOMENCLATURA
 62
7
370
25
100
AcDbLine
 10
5985.133112386074
 20
5678.482947414096
 30
0.0
 11
5914.276997459978
 21
5678.482947414096
 31
0.0
  0
LINE
  5
7B
330
17
100
AcDbEntity
  8
NOMENCLATURA
 62
7
370
25
100
AcDbLine
 10
5914.276997459978
 20
5678.482947414096
 30
0.0
 11
5914.276997459978
 21
5728.869683245436
 31
0.0
  0
LINE
  5
7C
330
17
100
AcDbEntity
  8
SARR_2.2x7
 62
40
370
25
100
AcDbLine
 10
5486.078996104725
 20
5804.303852608914
 30
0.0
 11
5660.049888625728
 21
5804.303852608928
 31
0.0
  0
LINE
  5
7D
330
17
100
AcDbEntity
  8
SARR_2.2x7
 62
40
370
25
100
AcDbLine
 10
5660.049888625728
 20
5804.303852608928
 30
0.0
 11
5904.078996104725
 21
5804.303852608927
 31
0.0
  0
LINE
  5
7E
330
17
100
AcDbEntity
  8
Painéis
 62
200
370
25
100
AcDbLine
 10
5660.049888625728
 20
5800.803852608934
 30
0.0
 11
5660.049888625728
 21
5807.803852608934
 31
0.0
  0
LINE
  5
7F
330
17
100
AcDbEntity
  8
NOMENCLATURA
 62
7
370
25
100
AcDbLine
 10
6423.529115096584
 20
5678.48294741421
 30
0.0
 11
6491.766628818862
 21
5678.48294741421
 31
0.0
  0
LINE
  5
80
330
17
100
AcDbEntity
  8
SARR_2.2x7
 62
40
370
25
100
AcDbLine
 10
6004.331113741331
 20
5748.803852608927
 30
0.0
 11
6004.331113741331
 21
5788.803852608927
 31
0.0
  0
LINE
  5
81
330
17
100
AcDbEntity
  8
Painéis
 62
200
370
25
100
AcDbLine
 10
5995.331113741327
 20
5788.803852608927
 30
0.0
 11
6413.331113741332
 21
5788.803852608952
 31
0.0
  0
LINE
  5
82
330
17
100
AcDbEntity
  8
Painéis
 62
200
370
25
100
AcDbLine
 10
5995.331113741332
 20
5748.803852608927
 30
0.0
 11
6413.331113741332
 21
5748.803852608952
 31
0.0
  0
LINE
  5
83
330
17
100
AcDbEntity
  8
Painéis
 62
200
370
25
100
AcDbLine
 10
6241.331113741331
 20
5748.803852608941
 30
0.0
 11
6241.331113741331
 21
5788.803852608942
 31
0.0
  0
LINE
  5
84
330
17
100
AcDbEntity
  8
Painéis
 62
200
370
25
100
AcDbLine
 10
6413.331113741332
 20
5748.803852608952
 30
0.0
 11
6413.331113741332
 21
5788.803852608952
 31
0.0
  0
LINE
  5
85
330
17
100
AcDbEntity
  8
Painéis
 62
200
370
25
100
AcDbLine
 10
5995.331113741332
 20
5748.803852608927
 30
0.0
 11
5995.331113741332
 21
5788.803852608927
 31
0.0
  0
LINE
  5
86
330
17
100
AcDbEntity
  8
SARR_2.2x7
 62
40
370
25
100
AcDbLine
 10
6404.331113741331
 20
5748.803852608927
 30
0.0
 11
6404.331113741339
 21
5788.803852608927
 31
0.0
  0
LINE
  5
87
330
17
100
AcDbEntity
  8
SARR_2.2x7
 62
40
370
25
100
AcDbLine
 10
6404.331113741331
 20
5781.803852608925
 30
0.0
 11
6241.331113741331
 21
5781.803852608927
 31
0.0
  0
LINE
  5
88
330
17
100
AcDbEntity
  8
SARR_2.2x7
 62
40
370
25
100
AcDbLine
 10
6404.331113741339
 20
5755.803852608931
 30
0.0
 11
6241.331113741331
 21
5755.803852608928
 31
0.0
  0
LINE
  5
89
330
17
100
AcDbEntity
  8
SARR_2.2x7
 62
40
370
25
100
AcDbLine
 10
6241.331113741331
 20
5781.803852608939
 30
0.0
 11
6004.331113741331
 21
5781.803852608945
 31
0.0
  0
LINE
  5
8A
330
17
100
AcDbEntity
  8
SARR_2.2x7
 62
40
370
25
100
AcDbLine
 10
6241.331113741331
 20
5755.803852608945
 30
0.0
 11
6004.331113741331
 21
5755.80385260894
 31
0.0
  0
LINE
  5
8B
330
17
100
AcDbEntity
  8
COTA
 62
241
370
25
100
AcDbLine
 10
5995.331113741327
 20
5788.803852608927
 30
0.0
 11
5995.331113741327
 21
5800.803852608926
 31
0.0
  0
LINE
  5
8C
330
17
100
AcDbEntity
  8
COTA
 62
241
370
25
100
AcDbLine
 10
6413.331113741327
 20
5800.803852608926
 30
0.0
 11
6413.331113741332
 21
5788.803852608952
 31
0.0
  0
LINE
  5
8D
330
17
100
AcDbEntity
  8
Painéis
 62
200
370
25
100
AcDbLine
 10
6411.331113741332
 20
5748.803852608952
 30
0.0
 11
6411.331113741332
 21
5788.803852608952
 31
0.0
  0
LINE
  5
8E
330
17
100
AcDbEntity
  8
NOMENCLATURA
 62
7
370
25
100
AcDbLine
 10
6491.766628818862
 20
5678.48294741421
 30
0.0
 11
6423.529115096584
 21
5678.48294741421
 31
0.0
  0
LINE
  5
8F
330
17
100
AcDbEntity
  8
NOMENCLATURA
 62
7
370
25
100
AcDbLine
 10
6423.529115096584
 20
5678.48294741421
 30
0.0
 11
6423.529115096584
 21
5728.869683245551
 31
0.0
  0
LINE
  5
90
330
17
100
AcDbEntity
  8
Painéis
 62
200
370
25
100
AcDbLine
 10
5997.331113741331
 20
5748.803852608927
 30
0.0
 11
5997.331113741331
 21
5788.803852608927
 31
0.0
  0
LINE
  5
91
330
17
100
AcDbEntity
  8
NOMENCLATURA
 62
7
370
25
100
AcDbLine
 10
5985.133112386074
 20
5678.482947414096
 30
0.0
 11
5985.133112386074
 21
5728.869683245436
 31
0.0
  0
LINE
  5
92
330
17
100
AcDbEntity
  8
SARR_2.2x7
 62
40
370
25
100
AcDbLine
 10
6413.331113741327
 20
5804.303852608914
 30
0.0
 11
6239.360221220324
 21
5804.303852608928
 31
0.0
  0
LINE
  5
93
330
17
100
AcDbEntity
  8
SARR_2.2x7
 62
40
370
25
100
AcDbLine
 10
6239.360221220324
 20
5804.303852608928
 30
0.0
 11
5995.331113741327
 21
5804.303852608927
 31
0.0
  0
LINE
  5
94
330
17
100
AcDbEntity
  8
Painéis
 62
200
370
25
100
AcDbLine
 10
6239.360221220324
 20
5800.803852608934
 30
0.0
 11
6239.360221220324
 21
5807.803852608934
 31
0.0
  0
LINE
  5
95
330
17
100
AcDbEntity
  8
NOMENCLATURA
 62
7
370
25
100
AcDbLine
 10
5986.002711936848
 20
5477.116031200282
 30
0.0
 11
5915.776872159002
 21
5477.116031200282
 31
0.0
  0
LINE
  5
96
330
17
100
AcDbEntity
  8
SARR_2.2x7
 62
40
370
25
100
AcDbLine
 10
6005.200713292104
 20
5547.436936395112
 30
0.0
 11
6005.200713292104
 21
5587.436936395113
 31
0.0
  0
LINE
  5
97
330
17
100
AcDbEntity
  8
Painéis
 62
200
370
25
100
AcDbLine
 10
5996.2007132921
 20
5587.436936395113
 30
0.0
 11
6410.200713292105
 21
5587.436936395138
 31
0.0
  0
LINE
  5
98
330
17
100
AcDbEntity
  8
Painéis
 62
200
370
25
100
AcDbLine
 10
5996.200713292104
 20
5547.436936395112
 30
0.0
 11
6410.200713292105
 21
5547.436936395138
 31
0.0
  0
LINE
  5
99
330
17
100
AcDbEntity
  8
Painéis
 62
200
370
25
100
AcDbLine
 10
6242.200713292104
 20
5547.436936395127
 30
0.0
 11
6242.200713292104
 21
5587.436936395127
 31
0.0
  0
LINE
  5
9A
330
17
100
AcDbEntity
  8
Painéis
 62
200
370
25
100
AcDbLine
 10
6410.200713292105
 20
5547.436936395138
 30
0.0
 11
6410.200713292105
 21
5587.436936395138
 31
0.0
  0
LINE
  5
9B
330
17
100
AcDbEntity
  8
Painéis
 62
200
370
25
100
AcDbLine
 10
5996.200713292104
 20
5547.436936395112
 30
0.0
 11
5996.200713292104
 21
5587.436936395113
 31
0.0
  0
LINE
  5
9C
330
17
100
AcDbEntity
  8
SARR_2.2x7
 62
40
370
25
100
AcDbLine
 10
6403.200713292105
 20
5547.436936395112
 30
0.0
 11
6403.200713292112
 21
5587.436936395113
 31
0.0
  0
LINE
  5
9D
330
17
100
AcDbEntity
  8
SARR_2.2x7
 62
40
370
25
100
AcDbLine
 10
6403.200713292105
 20
5580.436936395111
 30
0.0
 11
6242.200713292104
 21
5580.436936395113
 31
0.0
  0
LINE
  5
9E
330
17
100
AcDbEntity
  8
SARR_2.2x7
 62
40
370
25
100
AcDbLine
 10
6403.200713292112
 20
5554.436936395116
 30
0.0
 11
6242.200713292104
 21
5554.436936395115
 31
0.0
  0
LINE
  5
9F
330
17
100
AcDbEntity
  8
SARR_2.2x7
 62
40
370
25
100
AcDbLine
 10
6242.200713292104
 20
5580.436936395125
 30
0.0
 11
6005.200713292104
 21
5580.43693639513
 31
0.0
  0
LINE
  5
A0
330
17
100
AcDbEntity
  8
SARR_2.2x7
 62
40
370
25
100
AcDbLine
 10
6242.200713292104
 20
5554.436936395131
 30
0.0
 11
6005.200713292104
 21
5554.436936395125
 31
0.0
  0
LINE
  5
A1
330
17
100
AcDbEntity
  8
COTA
 62
241
370
25
100
AcDbLine
 10
5996.2007132921
 20
5587.436936395113
 30
0.0
 11
5996.2007132921
 21
5599.436936395113
 31
0.0
  0
LINE
  5
A2
330
17
100
AcDbEntity
  8
COTA
 62
241
370
25
100
AcDbLine
 10
6410.2007132921
 20
5599.436936395113
 30
0.0
 11
6410.200713292105
 21
5587.436936395138
 31
0.0
  0
LINE
  5
A3
330
17
100
AcDbEntity
  8
Painéis
 62
200
370
25
100
AcDbLine
 10
5998.200713292105
 20
5547.436936395112
 30
0.0
 11
5998.200713292105
 21
5587.436936395113
 31
0.0
  0
LINE
  5
A4
330
17
100
AcDbEntity
  8
NOMENCLATURA
 62
7
370
25
100
AcDbLine
 10
5986.002711936848
 20
5477.116031200282
 30
0.0
 11
5986.002711936848
 21
5527.502767031622
 31
0.0
  0
LINE
  5
A5
330
17
100
AcDbEntity
  8
SARR_2.2x7
 62
40
370
25
100
AcDbLine
 10
6410.2007132921
 20
5602.936936395099
 30
0.0
 11
6240.229820771098
 21
5602.936936395114
 31
0.0
  0
LINE
  5
A6
330
17
100
AcDbEntity
  8
SARR_2.2x7
 62
40
370
25
100
AcDbLine
 10
6240.229820771098
 20
5602.936936395114
 30
0.0
 11
5996.2007132921
 21
5602.936936395113
 31
0.0
  0
LINE
  5
A7
330
17
100
AcDbEntity
  8
Painéis
 62
200
370
25
100
AcDbLine
 10
6240.229820771098
 20
5599.43693639512
 30
0.0
 11
6240.229820771098
 21
5606.43693639512
 31
0.0
  0
LINE
  5
A8
330
17
100
AcDbEntity
  8
SARR_2.2x7
 62
40
370
25
100
AcDbLine
 10
5689.692087233126
 20
5397.368880247407
 30
0.0
 11
5926.737227992313
 21
5397.368880247426
 31
0.0
  0
LINE
  5
A9
330
17
100
AcDbEntity
  8
SARR_2.2x7
 62
40
370
25
100
AcDbLine
 10
5926.737227992313
 20
5397.368880247426
 30
0.0
 11
6093.782368751503
 21
5397.368880247161
 31
0.0
  0
LINE
  5
AA
330
17
100
AcDbEntity
  8
Painéis
 62
200
370
25
100
AcDbLine
 10
5682.737227992309
 20
5404.368880247314
 30
0.0
 11
6100.737227992313
 21
5404.368880247339
 31
0.0
  0
LINE
  5
AB
330
17
100
AcDbEntity
  8
Painéis
 62
200
370
25
100
AcDbLine
 10
5682.737227992313
 20
5360.368880247314
 30
0.0
 11
6100.737227992313
 21
5360.36888024734
 31
0.0
  0
LINE
  5
AC
330
17
100
AcDbEntity
  8
Painéis
 62
200
370
25
100
AcDbLine
 10
6100.737227992313
 20
5360.36888024734
 30
0.0
 11
6100.737227992313
 21
5404.368880247339
 31
0.0
  0
LINE
  5
AD
330
17
100
AcDbEntity
  8
Painéis
 62
200
370
25
100
AcDbLine
 10
5682.737227992313
 20
5360.368880247314
 30
0.0
 11
5682.737227992313
 21
5404.368880247314
 31
0.0
  0
LINE
  5
AE
330
17
100
AcDbEntity
  8
SARR_2.2x7
 62
40
370
25
100
AcDbLine
 10
5689.69208723313
 20
5360.36888024731
 30
0.0
 11
5689.692087233126
 21
5404.368880247314
 31
0.0
  0
LINE
  5
AF
330
17
100
AcDbEntity
  8
SARR_2.2x7
 62
40
370
25
100
AcDbLine
 10
6093.782368751499
 20
5360.368880247336
 30
0.0
 11
6093.782368751503
 21
5404.368880247314
 31
0.0
  0
LINE
  5
B0
330
17
100
AcDbEntity
  8
Painéis
 62
200
370
25
100
AcDbLine
 10
5926.737227992313
 20
5360.368880247329
 30
0.0
 11
5926.737227992313
 21
5404.368880247329
 31
0.0
  0
LINE
  5
B1
330
17
100
AcDbEntity
  8
COTA
 62
241
370
25
100
AcDbLine
 10
5682.737227992309
 20
5404.368880247314
 30
0.0
 11
5682.737227992309
 21
5419.368880247315
 31
0.0
  0
LINE
  5
B2
330
17
100
AcDbEntity
  8
COTA
 62
241
370
25
100
AcDbLine
 10
6100.737227992309
 20
5419.368880247315
 30
0.0
 11
6100.737227992309
 21
5404.368880247339
 31
0.0
  0
LINE
  5
B3
330
17
100
AcDbEntity
  8
SARR_2.2x7
 62
40
370
25
100
AcDbLine
 10
5689.692087233126
 20
5367.368880247243
 30
0.0
 11
5926.737227992313
 21
5367.368880247226
 31
0.0
  0
LINE
  5
B4
330
17
100
AcDbEntity
  8
SARR_2.2x7
 62
40
370
25
100
AcDbLine
 10
5926.737227992313
 20
5367.368880247226
 30
0.0
 11
6093.782368751503
 21
5367.368880247489
 31
0.0
  0
LINE
  5
B5
330
17
100
AcDbEntity
  8
SARR_2.2x7
 62
40
370
25
100
AcDbLine
 10
5234.474319128838
 20
5392.368880247407
 30
0.0
 11
5471.519459888025
 21
5392.368880247425
 31
0.0
  0
LINE
  5
B6
330
17
100
AcDbEntity
  8
SARR_2.2x7
 62
40
370
25
100
AcDbLine
 10
5471.519459888025
 20
5392.368880247425
 30
0.0
 11
5638.564600647214
 21
5392.368880247161
 31
0.0
  0
LINE
  5
B7
330
17
100
AcDbEntity
  8
Painéis
 62
200
370
25
100
AcDbLine
 10
5227.519459888021
 20
5399.368880247314
 30
0.0
 11
5645.519459888024
 21
5399.36888024734
 31
0.0
  0
LINE
  5
B8
330
17
100
AcDbEntity
  8
Painéis
 62
200
370
25
100
AcDbLine
 10
5227.519459888025
 20
5355.368880247315
 30
0.0
 11
5645.519459888024
 21
5355.36888024734
 31
0.0
  0
LINE
  5
B9
330
17
100
AcDbEntity
  8
Painéis
 62
200
370
25
100
AcDbLine
 10
5645.519459888024
 20
5355.36888024734
 30
0.0
 11
5645.519459888024
 21
5399.36888024734
 31
0.0
  0
LINE
  5
BA
330
17
100
AcDbEntity
  8
Painéis
 62
200
370
25
100
AcDbLine
 10
5227.519459888025
 20
5355.368880247315
 30
0.0
 11
5227.519459888025
 21
5399.368880247314
 31
0.0
  0
LINE
  5
BB
330
17
100
AcDbEntity
  8
SARR_2.2x7
 62
40
370
25
100
AcDbLine
 10
5234.474319128842
 20
5355.368880247311
 30
0.0
 11
5234.474319128838
 21
5399.368880247314
 31
0.0
  0
LINE
  5
BC
330
17
100
AcDbEntity
  8
SARR_2.2x7
 62
40
370
25
100
AcDbLine
 10
5638.56460064721
 20
5355.368880247336
 30
0.0
 11
5638.564600647214
 21
5399.368880247314
 31
0.0
  0
LINE
  5
BD
330
17
100
AcDbEntity
  8
Painéis
 62
200
370
25
100
AcDbLine
 10
5471.519459888025
 20
5355.368880247329
 30
0.0
 11
5471.519459888025
 21
5399.368880247329
 31
0.0
  0
LINE
  5
BE
330
17
100
AcDbEntity
  8
COTA
 62
241
370
25
100
AcDbLine
 10
5227.519459888021
 20
5399.368880247314
 30
0.0
 11
5227.519459888021
 21
5414.368880247314
 31
0.0
  0
LINE
  5
BF
330
17
100
AcDbEntity
  8
COTA
 62
241
370
25
100
AcDbLine
 10
5645.519459888021
 20
5414.368880247314
 30
0.0
 11
5645.519459888021
 21
5399.36888024734
 31
0.0
  0
LINE
  5
C0
330
17
100
AcDbEntity
  8
SARR_2.2x7
 62
40
370
25
100
AcDbLine
 10
5234.474319128838
 20
5362.368880247244
 30
0.0
 11
5471.519459888025
 21
5362.368880247225
 31
0.0
  0
LINE
  5
C1
330
17
100
AcDbEntity
  8
SARR_2.2x7
 62
40
370
25
100
AcDbLine
 10
5471.519459888025
 20
5362.368880247225
 30
0.0
 11
5638.564600647214
 21
5362.368880247489
 31
0.0
  0
LINE
  5
C2
330
17
100
AcDbEntity
  8
COTA
 62
241
370
25
100
AcDbLine
 10
5645.519459888021
 20
5414.368880247314
 30
0.0
 11
5227.519459888021
 21
5414.368880247314
 31
0.0
  0
LINE
  5
C3
330
17
100
AcDbEntity
  8
COTA
 62
241
370
25
100
AcDbLine
 10
6100.737227992309
 20
5419.368880247315
 30
0.0
 11
5682.737227992309
 21
5419.368880247315
 31
0.0
  0
LINE
  5
C4
330
17
100
AcDbEntity
  8
SARR_2.2x7
 62
40
370
25
100
AcDbLine
 10
6403.922696068715
 20
5360.368880247287
 30
0.0
 11
6403.922696068722
 21
5403.368880247287
 31
0.0
  0
LINE
  5
C5
330
17
100
AcDbEntity
  8
Painéis
 62
200
370
25
100
AcDbLine
 10
6410.922696068721
 20
5403.368880247287
 30
0.0
 11
6164.422696068721
 21
5403.368880247313
 31
0.0
  0
LINE
  5
C6
330
17
100
AcDbEntity
  8
Painéis
 62
200
370
25
100
AcDbLine
 10
6410.922696068714
 20
5360.368880247287
 30
0.0
 11
6164.422696068714
 21
5360.368880247313
 31
0.0
  0
LINE
  5
C7
330
17
100
AcDbEntity
  8
Painéis
 62
200
370
25
100
AcDbLine
 10
6288.922696068714
 20
5360.368880247301
 30
0.0
 11
6288.922696068721
 21
5403.368880247302
 31
0.0
  0
LINE
  5
C8
330
17
100
AcDbEntity
  8
Painéis
 62
200
370
25
100
AcDbLine
 10
6164.422696068714
 20
5360.368880247313
 30
0.0
 11
6164.422696068721
 21
5403.368880247313
 31
0.0
  0
LINE
  5
C9
330
17
100
AcDbEntity
  8
Painéis
 62
200
370
25
100
AcDbLine
 10
6410.922696068714
 20
5360.368880247287
 30
0.0
 11
6410.922696068721
 21
5403.368880247287
 31
0.0
  0
LINE
  5
CA
330
17
100
AcDbEntity
  8
SARR_2.2x7
 62
40
370
25
100
AcDbLine
 10
6171.422696068714
 20
5360.368880247287
 30
0.0
 11
6171.422696068714
 21
5403.368880247287
 31
0.0
  0
LINE
  5
CB
330
17
100
AcDbEntity
  8
NOMENCLATURA
 62
7
370
25
100
AcDbLine
 10
6420.784936128099
 20
5382.446876033203
 30
0.0
 11
6378.020166242933
 21
5382.446876033203
 31
0.0
  0
LINE
  5
CC
330
17
100
AcDbEntity
  8
NOMENCLATURA
 62
7
370
25
100
AcDbLine
 10
6383.020166242934
 20
5387.424497922101
 30
0.0
 11
6383.020166242934
 21
5377.469254144301
 31
0.0
  0
LINE
  5
CD
330
17
100
AcDbEntity
  8
NOMENCLATURA
 62
7
370
25
100
AcDbLine
 10
6415.784936128099
 20
5387.424497922101
 30
0.0
 11
6415.784936128099
 21
5377.469254144301
 31
0.0
  0
LINE
  5
CE
330
17
100
AcDbEntity
  8
SARR_2.2x7
 62
40
370
25
100
AcDbLine
 10
6171.422696068714
 20
5396.368880247285
 30
0.0
 11
6288.922696068721
 21
5396.368880247287
 31
0.0
  0
LINE
  5
CF
330
17
100
AcDbEntity
  8
SARR_2.2x7
 62
40
370
25
100
AcDbLine
 10
6171.422696068714
 20
5367.36888024729
 30
0.0
 11
6288.922696068714
 21
5367.368880247289
 31
0.0
  0
LINE
  5
D0
330
17
100
AcDbEntity
  8
SARR_2.2x7
 62
40
370
25
100
AcDbLine
 10
6288.922696068721
 20
5396.3688802473
 30
0.0
 11
6403.922696068722
 21
5396.368880247305
 31
0.0
  0
LINE
  5
D1
330
17
100
AcDbEntity
  8
SARR_2.2x7
 62
40
370
25
100
AcDbLine
 10
6288.922696068714
 20
5367.368880247305
 30
0.0
 11
6403.922696068715
 21
5367.3688802473
 31
0.0
  0
LINE
  5
D2
330
17
100
AcDbEntity
  8
COTA
 62
241
370
25
100
AcDbLine
 10
6410.922696068721
 20
5403.368880247287
 30
0.0
 11
6410.922696068721
 21
5419.368880247287
 31
0.0
  0
LINE
  5
D3
330
17
100
AcDbEntity
  8
COTA
 62
241
370
25
100
AcDbLine
 10
6164.422696068721
 20
5419.368880247287
 30
0.0
 11
6164.422696068721
 21
5403.368880247313
 31
0.0
  0
LINE
  5
D4
330
17
100
AcDbEntity
  8
COTA
 62
241
370
25
100
AcDbLine
 10
6410.922696068714
 20
5419.368880247312
 30
0.0
 11
6164.422696068721
 21
5419.36888024734
 31
0.0
  0
LINE
  5
D5
330
17
100
AcDbEntity
  8
SARR_2.2x7
 62
40
370
25
100
AcDbLine
 10
5495.736199405341
 20
5951.291919861888
 30
0.0
 11
5610.736199405337
 21
5951.291919861787
 31
0.0
  0
LINE
  5
D6
330
17
100
AcDbEntity
  8
SARR_2.2x7
 62
40
370
25
100
AcDbLine
 10
5495.736199405341
 20
5958.291919861586
 30
0.0
 11
5610.736199405337
 21
5958.291919861487
 31
0.0
  0
LINE
  5
D7
330
17
100
AcDbEntity
  8
SARR_2.2x7
 62
40
370
25
100
AcDbLine
 10
5610.736199405341
 20
5951.291919861903
 30
0.0
 11
5707.736199405341
 21
5951.291919861818
 31
0.0
  0
LINE
  5
D8
330
17
100
AcDbEntity
  8
SARR_2.2x7
 62
40
370
25
100
AcDbLine
 10
5610.736199405341
 20
5958.291919861601
 30
0.0
 11
5707.736199405341
 21
5958.291919861514
 31
0.0
  0
LINE
  5
D9
330
17
100
AcDbEntity
  8
SARR_2.2x7
 62
40
370
25
100
AcDbLine
 10
5806.941660087117
 20
5951.291919861888
 30
0.0
 11
5969.941660087121
 21
5951.291919861745
 31
0.0
  0
LINE
  5
DA
330
17
100
AcDbEntity
  8
SARR_2.2x7
 62
40
370
25
100
AcDbLine
 10
5806.941660087117
 20
5958.291919861586
 30
0.0
 11
5969.941660087121
 21
5958.291919861443
 31
0.0
  0
LINE
  5
DB
330
17
100
AcDbEntity
  8
SARR_2.2x7
 62
40
370
25
100
AcDbLine
 10
5969.941660087124
 20
5951.291919861903
 30
0.0
 11
6206.941660087121
 21
5951.291919861695
 31
0.0
  0
LINE
  5
DC
330
17
100
AcDbEntity
  8
SARR_2.2x7
 62
40
370
25
100
AcDbLine
 10
5969.941660087124
 20
5958.291919861601
 30
0.0
 11
6206.941660087121
 21
5958.291919861392
 31
0.0
  0
LINE
  5
DD
330
17
100
AcDbEntity
  8
SARR_2.2x7
 62
40
370
25
100
AcDbLine
 10
5495.078996104718
 20
5765.303852608941
 30
0.0
 11
5658.078996104721
 21
5765.303852608797
 31
0.0
  0
LINE
  5
DE
330
17
100
AcDbEntity
  8
SARR_2.2x7
 62
40
370
25
100
AcDbLine
 10
5495.078996104718
 20
5772.303852608639
 30
0.0
 11
5658.078996104721
 21
5772.303852608494
 31
0.0
  0
LINE
  5
DF
330
17
100
AcDbEntity
  8
SARR_2.2x7
 62
40
370
25
100
AcDbLine
 10
5658.078996104725
 20
5765.303852608956
 30
0.0
 11
5895.078996104722
 21
5765.303852608745
 31
0.0
  0
LINE
  5
E0
330
17
100
AcDbEntity
  8
SARR_2.2x7
 62
40
370
25
100
AcDbLine
 10
5658.078996104725
 20
5772.303852608654
 30
0.0
 11
5895.078996104722
 21
5772.303852608445
 31
0.0
  0
LINE
  5
E1
330
17
100
AcDbEntity
  8
SARR_2.2x7
 62
40
370
25
100
AcDbLine
 10
6004.331113741331
 20
5765.303852608941
 30
0.0
 11
6241.331113741331
 21
5765.303852608732
 31
0.0
  0
LINE
  5
E2
330
17
100
AcDbEntity
  8
SARR_2.2x7
 62
40
370
25
100
AcDbLine
 10
6004.331113741331
 20
5772.303852608639
 30
0.0
 11
6241.331113741331
 21
5772.30385260843
 31
0.0
  0
LINE
  5
E3
330
17
100
AcDbEntity
  8
SARR_2.2x7
 62
40
370
25
100
AcDbLine
 10
6241.331113741331
 20
5765.303852608956
 30
0.0
 11
6404.331113741335
 21
5765.303852608811
 31
0.0
  0
LINE
  5
E4
330
17
100
AcDbEntity
  8
SARR_2.2x7
 62
40
370
25
100
AcDbLine
 10
6241.331113741331
 20
5772.303852608654
 30
0.0
 11
6404.331113741335
 21
5772.30385260851
 31
0.0
  0
LINE
  5
E5
330
17
100
AcDbEntity
  8
SARR_2.2x7
 62
40
370
25
100
AcDbLine
 10
6005.200713292104
 20
5563.936936395127
 30
0.0
 11
6242.200713292104
 21
5563.936936394919
 31
0.0
  0
LINE
  5
E6
330
17
100
AcDbEntity
  8
SARR_2.2x7
 62
40
370
25
100
AcDbLine
 10
6005.200713292104
 20
5570.936936394826
 30
0.0
 11
6242.200713292104
 21
5570.936936394616
 31
0.0
  0
LINE
  5
E7
330
17
100
AcDbEntity
  8
SARR_2.2x7
 62
40
370
25
100
AcDbLine
 10
6242.200713292104
 20
5563.936936395141
 30
0.0
 11
6403.200713292108
 21
5563.936936395001
 31
0.0
  0
LINE
  5
E8
330
17
100
AcDbEntity
  8
SARR_2.2x7
 62
40
370
25
100
AcDbLine
 10
6242.200713292104
 20
5570.93693639484
 30
0.0
 11
6403.200713292108
 21
5570.936936394698
 31
0.0
  0
LINE
  5
E9
330
17
100
AcDbEntity
  8
SARR_2.2x7
 62
40
370
25
100
AcDbLine
 10
5234.474319128842
 20
5374.368880247327
 30
0.0
 11
5471.519459888025
 21
5374.368880247119
 31
0.0
  0
LINE
  5
EA
330
17
100
AcDbEntity
  8
SARR_2.2x7
 62
40
370
25
100
AcDbLine
 10
5234.474319128842
 20
5381.368880247025
 30
0.0
 11
5471.519459888025
 21
5381.368880246817
 31
0.0
  0
LINE
  5
EB
330
17
100
AcDbEntity
  8
SARR_2.2x7
 62
40
370
25
100
AcDbLine
 10
5471.519459888025
 20
5374.368880247343
 30
0.0
 11
5638.56460064721
 21
5374.368880247197
 31
0.0
  0
LINE
  5
EC
330
17
100
AcDbEntity
  8
SARR_2.2x7
 62
40
370
25
100
AcDbLine
 10
5471.519459888025
 20
5381.368880247041
 30
0.0
 11
5638.564600647214
 21
5381.368880246895
 31
0.0
  0
LINE
  5
ED
330
17
100
AcDbEntity
  8
SARR_2.2x7
 62
40
370
25
100
AcDbLine
 10
5689.69208723313
 20
5378.868880247328
 30
0.0
 11
5926.737227992313
 21
5378.868880247119
 31
0.0
  0
LINE
  5
EE
330
17
100
AcDbEntity
  8
SARR_2.2x7
 62
40
370
25
100
AcDbLine
 10
5689.69208723313
 20
5385.868880247025
 30
0.0
 11
5926.737227992313
 21
5385.868880246816
 31
0.0
  0
LINE
  5
EF
330
17
100
AcDbEntity
  8
SARR_2.2x7
 62
40
370
25
100
AcDbLine
 10
5926.737227992313
 20
5378.868880247344
 30
0.0
 11
6093.782368751503
 21
5378.868880247196
 31
0.0
  0
LINE
  5
F0
330
17
100
AcDbEntity
  8
SARR_2.2x7
 62
40
370
25
100
AcDbLine
 10
5926.737227992313
 20
5385.868880247041
 30
0.0
 11
6093.782368751503
 21
5385.868880246896
 31
0.0
  0
LINE
  5
F1
330
17
100
AcDbEntity
  8
SARR_2.2x7
 62
40
370
25
100
AcDbLine
 10
6171.422696068714
 20
5378.368880247301
 30
0.0
 11
6288.922696068717
 21
5378.368880247199
 31
0.0
  0
LINE
  5
F2
330
17
100
AcDbEntity
  8
SARR_2.2x7
 62
40
370
25
100
AcDbLine
 10
6171.422696068714
 20
5385.368880247
 30
0.0
 11
6288.922696068717
 21
5385.368880246897
 31
0.0
  0
LINE
  5
F3
330
17
100
AcDbEntity
  8
SARR_2.2x7
 62
40
370
25
100
AcDbLine
 10
6288.922696068721
 20
5378.368880247316
 30
0.0
 11
6403.922696068717
 21
5378.368880247215
 31
0.0
  0
LINE
  5
F4
330
17
100
AcDbEntity
  8
SARR_2.2x7
 62
40
370
25
100
AcDbLine
 10
6288.922696068721
 20
5385.368880247014
 30
0.0
 11
6403.922696068717
 21
5385.368880246915
 31
0.0
  0
LINE
  5
F5
330
17
100
AcDbEntity
  8
Painéis
 62
200
370
25
100
AcDbLine
 10
5279.335032065586
 20
5553.659438688607
 30
0.0
 11
5209.480013949503
 21
5553.659438688607
 31
0.0
  0
LINE
  5
F6
330
17
100
AcDbEntity
  8
Painéis
 62
200
370
25
100
AcDbLine
 10
5279.335032065586
 20
5550.059438688617
 30
0.0
 11
5209.496175726117
 21
5550.059438688605
 31
0.0
  0
LINE
  5
F7
330
17
100
AcDbEntity
  8
NOMENCLATURA
 62
7
370
25
100
AcDbLine
 10
5477.380869448489
 20
5477.116031200168
 30
0.0
 11
5406.524754522392
 21
5477.116031200168
 31
0.0
  0
LINE
  5
F8
330
17
100
AcDbEntity
  8
SARR_2.2x7
 62
40
370
25
100
AcDbLine
 10
5496.578870803749
 20
5547.436936394998
 30
0.0
 11
5496.578870803745
 21
5587.436936394998
 31
0.0
  0
LINE
  5
F9
330
17
100
AcDbEntity
  8
Painéis
 62
200
370
25
100
AcDbLine
 10
5487.578870803742
 20
5587.436936394998
 30
0.0
 11
5905.578870803745
 21
5587.436936395024
 31
0.0
  0
LINE
  5
FA
330
17
100
AcDbEntity
  8
Painéis
 62
200
370
25
100
AcDbLine
 10
5487.578870803749
 20
5547.436936394998
 30
0.0
 11
5905.578870803749
 21
5547.436936395023
 31
0.0
  0
LINE
  5
FB
330
17
100
AcDbEntity
  8
Painéis
 62
200
370
25
100
AcDbLine
 10
5733.578870803749
 20
5547.436936395013
 30
0.0
 11
5733.578870803746
 21
5587.436936395013
 31
0.0
  0
LINE
  5
FC
330
17
100
AcDbEntity
  8
Painéis
 62
200
370
25
100
AcDbLine
 10
5905.578870803749
 20
5547.436936395023
 30
0.0
 11
5905.578870803745
 21
5587.436936395024
 31
0.0
  0
LINE
  5
FD
330
17
100
AcDbEntity
  8
Painéis
 62
200
370
25
100
AcDbLine
 10
5487.578870803749
 20
5547.436936394998
 30
0.0
 11
5487.578870803745
 21
5587.436936394998
 31
0.0
  0
LINE
  5
FE
330
17
100
AcDbEntity
  8
SARR_2.2x7
 62
40
370
25
100
AcDbLine
 10
5896.578870803749
 20
5547.436936394998
 30
0.0
 11
5896.578870803753
 21
5587.436936394998
 31
0.0
  0
LINE
  5
FF
330
17
100
AcDbEntity
  8
SARR_2.2x7
 62
40
370
25
100
AcDbLine
 10
5896.578870803749
 20
5580.436936394996
 30
0.0
 11
5733.578870803746
 21
5580.436936394998
 31
0.0
  0
LINE
  5
100
330
17
100
AcDbEntity
  8
SARR_2.2x7
 62
40
370
25
100
AcDbLine
 10
5896.578870803753
 20
5554.436936395002
 30
0.0
 11
5733.578870803749
 21
5554.436936395
 31
0.0
  0
LINE
  5
101
330
17
100
AcDbEntity
  8
SARR_2.2x7
 62
40
370
25
100
AcDbLine
 10
5733.578870803746
 20
5580.436936395011
 30
0.0
 11
5496.578870803745
 21
5580.436936395017
 31
0.0
  0
LINE
  5
102
330
17
100
AcDbEntity
  8
SARR_2.2x7
 62
40
370
25
100
AcDbLine
 10
5733.578870803749
 20
5554.436936395017
 30
0.0
 11
5496.578870803749
 21
5554.436936395011
 31
0.0
  0
LINE
  5
103
330
17
100
AcDbEntity
  8
COTA
 62
241
370
25
100
AcDbLine
 10
5487.578870803742
 20
5587.436936394998
 30
0.0
 11
5487.578870803742
 21
5599.436936394998
 31
0.0
  0
LINE
  5
104
330
17
100
AcDbEntity
  8
COTA
 62
241
370
25
100
AcDbLine
 10
5905.578870803742
 20
5599.436936394998
 30
0.0
 11
5905.578870803745
 21
5587.436936395024
 31
0.0
  0
LINE
  5
105
330
17
100
AcDbEntity
  8
Painéis
 62
200
370
25
100
AcDbLine
 10
5903.578870803749
 20
5547.436936395023
 30
0.0
 11
5903.578870803745
 21
5587.436936395024
 31
0.0
  0
LINE
  5
106
330
17
100
AcDbEntity
  8
NOMENCLATURA
 62
7
370
25
100
AcDbLine
 10
5915.776872159002
 20
5477.116031200282
 30
0.0
 11
5915.776872159002
 21
5527.502767031622
 31
0.0
  0
LINE
  5
107
330
17
100
AcDbEntity
  8
Painéis
 62
200
370
25
100
AcDbLine
 10
5489.578870803749
 20
5547.436936394998
 30
0.0
 11
5489.578870803746
 21
5587.436936394998
 31
0.0
  0
LINE
  5
108
330
17
100
AcDbEntity
  8
NOMENCLATURA
 62
7
370
25
100
AcDbLine
 10
5477.380869448489
 20
5477.116031200168
 30
0.0
 11
5477.380869448489
 21
5527.502767031507
 31
0.0
  0
LINE
  5
109
330
17
100
AcDbEntity
  8
SARR_2.2x7
 62
40
370
25
100
AcDbLine
 10
5905.578870803742
 20
5602.936936394985
 30
0.0
 11
5731.607978282742
 21
5602.936936395
 31
0.0
  0
LINE
  5
10A
330
17
100
AcDbEntity
  8
SARR_2.2x7
 62
40
370
25
100
AcDbLine
 10
5731.607978282742
 20
5602.936936395
 30
0.0
 11
5487.578870803742
 21
5602.936936394998
 31
0.0
  0
LINE
  5
10B
330
17
100
AcDbEntity
  8
Painéis
 62
200
370
25
100
AcDbLine
 10
5731.607978282742
 20
5599.436936395005
 30
0.0
 11
5731.607978282742
 21
5606.436936395006
 31
0.0
  0
LINE
  5
10C
330
17
100
AcDbEntity
  8
SARR_2.2x7
 62
40
370
25
100
AcDbLine
 10
5496.578870803749
 20
5563.936936395013
 30
0.0
 11
5733.578870803746
 21
5563.936936394803
 31
0.0
  0
LINE
  5
10D
330
17
100
AcDbEntity
  8
SARR_2.2x7
 62
40
370
25
100
AcDbLine
 10
5496.578870803749
 20
5570.936936394711
 30
0.0
 11
5733.578870803746
 21
5570.936936394501
 31
0.0
  0
LINE
  5
10E
330
17
100
AcDbEntity
  8
SARR_2.2x7
 62
40
370
25
100
AcDbLine
 10
5733.578870803749
 20
5563.936936395027
 30
0.0
 11
5896.578870803749
 21
5563.936936394883
 31
0.0
  0
LINE
  5
10F
330
17
100
AcDbEntity
  8
SARR_2.2x7
 62
40
370
25
100
AcDbLine
 10
5733.578870803749
 20
5570.936936394725
 30
0.0
 11
5896.578870803749
 21
5570.936936394581
 31
0.0
  0
LINE
  5
110
330
17
100
AcDbEntity
  8
COTA
 62
4
370
25
100
AcDbLine
 10
5247.450970669365
 20
5782.670908226223
 30
0.0
 11
5173.074247580131
 21
5782.670908226223
 31
0.0
  0
LINE
  5
111
330
17
100
AcDbEntity
  8
COTA
 62
4
370
25
100
AcDbLine
 10
5273.050970669341
 20
5900.670908226223
 30
0.0
 11
5173.074247580131
 21
5900.670908226223
 31
0.0
  0
LINE
  5
112
330
17
100
AcDbEntity
  8
COTA
 62
4
370
25
100
AcDbLine
 10
5176.074247580131
 20
5782.670908226223
 30
0.0
 11
5176.074247580131
 21
5900.670908226223
 31
0.0
  0
LINE
  5
113
330
17
100
AcDbEntity
  8
COTA
 62
4
370
25
100
AcDbLine
 10
5358.650970669347
 20
5782.670908226223
 30
0.0
 11
5401.922703427637
 21
5782.670908226223
 31
0.0
  0
LINE
  5
114
330
17
100
AcDbEntity
  8
COTA
 62
4
370
25
100
AcDbLine
 10
5380.650970669259
 20
5870.670908226223
 30
0.0
 11
5401.922703427637
 21
5870.670908226223
 31
0.0
  0
LINE
  5
115
330
17
100
AcDbEntity
  8
COTA
 62
4
370
25
100
AcDbLine
 10
5398.922703427637
 20
5782.670908226223
 30
0.0
 11
5398.922703427637
 21
5870.670908226223
 31
0.0
  0
LINE
  5
116
330
17
100
AcDbEntity
  8
Cota Seção (2x)
 62
180
370
25
100
AcDbLine
 10
5318.050970669281
 20
5851.004241559508
 30
0.0
 11
5318.050970669281
 21
5870.337574892841
 31
0.0
  0
LINE
  5
117
330
17
100
AcDbEntity
  8
Cota Seção (2x)
 62
180
370
25
100
AcDbLine
 10
5318.050970669281
 20
5870.337574892841
 30
0.0
 11
5303.050970669281
 21
5870.337574892841
 31
0.0
  0
LINE
  5
118
330
17
100
AcDbEntity
  8
Cota Seção (2x)
 62
180
370
25
100
AcDbLine
 10
5303.050970669281
 20
5870.337574892841
 30
0.0
 11
5303.050970669281
 21
5851.004241559508
 31
0.0
  0
LINE
  5
119
330
17
100
AcDbEntity
  8
Cota Seção (2x)
 62
180
370
25
100
AcDbLine
 10
5303.050970669281
 20
5851.004241559508
 30
0.0
 11
5318.050970669281
 21
5851.004241559508
 31
0.0
  0
LINE
  5
11A
330
17
100
AcDbEntity
  8
COTA
 62
4
370
25
100
AcDbLine
 10
5225.450970669364
 20
5886.670908226223
 30
0.0
 11
5192.393676065592
 21
5886.670908226223
 31
0.0
  0
LINE
  5
11B
330
17
100
AcDbEntity
  8
COTA
 62
4
370
25
100
AcDbLine
 10
5225.450970669364
 20
5866.670908226194
 30
0.0
 11
5192.393676065592
 21
5866.670908226194
 31
0.0
  0
LINE
  5
11C
330
17
100
AcDbEntity
  8
COTA
 62
4
370
25
100
AcDbLine
 10
5195.393676065592
 20
5886.670908226223
 30
0.0
 11
5195.393676065592
 21
5866.670908226194
 31
0.0
  0
LINE
  5
11D
330
17
100
AcDbEntity
  8
COTA
 62
4
370
25
100
AcDbLine
 10
5225.450970669364
 20
5862.670908226194
 30
0.0
 11
5192.39367606592
 21
5862.670908226194
 31
0.0
  0
LINE
  5
11E
330
17
100
AcDbEntity
  8
COTA
 62
4
370
25
100
AcDbLine
 10
5247.450970669365
 20
5782.670908226223
 30
0.0
 11
5192.39367606592
 21
5782.670908226223
 31
0.0
  0
LINE
  5
11F
330
17
100
AcDbEntity
  8
COTA
 62
4
370
25
100
AcDbLine
 10
5195.393676065919
 20
5862.670908226194
 30
0.0
 11
5195.393676065919
 21
5782.670908226223
 31
0.0
  0
LINE
  5
120
330
17
100
AcDbEntity
  8
COTA
 62
4
370
25
100
AcDbLine
 10
5284.05097066934
 20
5779.670908226214
 30
0.0
 11
5284.05097066934
 21
5757.246948398691
 31
0.0
  0
LINE
  5
121
330
17
100
AcDbEntity
  8
COTA
 62
4
370
25
100
AcDbLine
 10
5322.050970669339
 20
5779.670908226214
 30
0.0
 11
5322.050970669339
 21
5757.246948398691
 31
0.0
  0
LINE
  5
122
330
17
100
AcDbEntity
  8
COTA
 62
4
370
25
100
AcDbLine
 10
5284.05097066934
 20
5760.246948398691
 30
0.0
 11
5322.050970669339
 21
5760.246948398691
 31
0.0
  0
LINE
  5
123
330
17
100
AcDbEntity
  8
Cota Seção (2x)
 62
180
370
25
100
AcDbLine
 10
5294.05097066931
 20
5802.670908226222
 30
0.0
 11
5312.05097066931
 21
5802.670908226222
 31
0.0
  0
LINE
  5
124
330
17
100
AcDbEntity
  8
Cota Seção (2x)
 62
180
370
25
100
AcDbLine
 10
5312.05097066931
 20
5802.670908226222
 30
0.0
 11
5312.05097066931
 21
5817.670908226221
 31
0.0
  0
LINE
  5
125
330
17
100
AcDbEntity
  8
Cota Seção (2x)
 62
180
370
25
100
AcDbLine
 10
5312.05097066931
 20
5817.670908226221
 30
0.0
 11
5294.05097066931
 21
5817.670908226221
 31
0.0
  0
LINE
  5
126
330
17
100
AcDbEntity
  8
Cota Seção (2x)
 62
180
370
25
100
AcDbLine
 10
5294.05097066931
 20
5817.670908226221
 30
0.0
 11
5294.05097066931
 21
5802.670908226222
 31
0.0
  0
LINE
  5
127
330
17
100
AcDbEntity
  8
COTA
 62
4
370
25
100
AcDbLine
 10
5380.650970669329
 20
5874.670908226231
 30
0.0
 11
5401.922703427686
 21
5874.670908226231
 31
0.0
  0
LINE
  5
128
330
17
100
AcDbEntity
  8
COTA
 62
4
370
25
100
AcDbLine
 10
5380.650970669259
 20
5900.670908226225
 30
0.0
 11
5401.922703427686
 21
5900.670908226225
 31
0.0
  0
LINE
  5
129
330
17
100
AcDbEntity
  8
COTA
 62
4
370
25
100
AcDbLine
 10
5398.922703427686
 20
5874.670908226231
 30
0.0
 11
5398.922703427686
 21
5900.670908226225
 31
0.0
  0
LINE
  5
12A
330
17
100
AcDbEntity
  8
COTA
 62
4
370
25
100
AcDbLine
 10
5380.650970669259
 20
5900.670908226225
 30
0.0
 11
5422.416492246506
 21
5900.670908226225
 31
0.0
  0
LINE
  5
12B
330
17
100
AcDbEntity
  8
COTA
 62
4
370
25
100
AcDbLine
 10
5383.286837048465
 20
5782.670908226227
 30
0.0
 11
5422.416492246506
 21
5782.670908226227
 31
0.0
  0
LINE
  5
12C
330
17
100
AcDbEntity
  8
COTA
 62
4
370
25
100
AcDbLine
 10
5419.416492246506
 20
5900.670908226225
 30
0.0
 11
5419.416492246506
 21
5782.670908226227
 31
0.0
  0
LINE
  5
12D
330
17
100
AcDbEntity
  8
COTA
 62
4
370
25
100
AcDbLine
 10
5273.050970669341
 20
5900.670908226223
 30
0.0
 11
5192.393676065596
 21
5900.670908226223
 31
0.0
  0
LINE
  5
12E
330
17
100
AcDbEntity
  8
COTA
 62
4
370
25
100
AcDbLine
 10
5225.450970669361
 20
5886.670908226223
 30
0.0
 11
5192.393676065596
 21
5886.670908226223
 31
0.0
  0
LINE
  5
12F
330
17
100
AcDbEntity
  8
COTA
 62
4
370
25
100
AcDbLine
 10
5195.393676065596
 20
5900.670908226223
 30
0.0
 11
5195.393676065596
 21
5886.670908226223
 31
0.0
  0
LINE
  5
130
330
17
100
AcDbEntity
  8
COTA
 62
4
370
25
100
AcDbLine
 10
5488.736199405341
 20
5931.791919861874
 30
0.0
 11
5488.736199405341
 21
5905.251993883719
 31
0.0
  0
LINE
  5
131
330
17
100
AcDbEntity
  8
COTA
 62
4
370
25
100
AcDbLine
 10
5610.736199405341
 20
5931.791919861903
 30
0.0
 11
5610.736199405341
 21
5905.251993883719
 31
0.0
  0
LINE
  5
132
330
17
100
AcDbEntity
  8
COTA
 62
4
370
25
100
AcDbLine
 10
5488.736199405341
 20
5908.251993883719
 30
0.0
 11
5610.736199405341
 21
5908.251993883719
 31
0.0
  0
LINE
  5
133
330
17
100
AcDbEntity
  8
COTA
 62
0
370
25
100
AcDbLine
 10
5490.236199405341
 20
5909.751993883719
 30
0.0
 11
5487.236199405341
 21
5906.751993883719
 31
0.0
  0
LINE
  5
134
330
17
100
AcDbEntity
  8
COTA
 62
0
370
25
100
AcDbLine
 10
5609.236199405341
 20
5906.751993883719
 30
0.0
 11
5612.236199405341
 21
5909.751993883719
 31
0.0
  0
LINE
  5
135
330
17
100
AcDbEntity
  8
COTA
 62
4
370
25
100
AcDbLine
 10
5610.736199405341
 20
5931.791919861903
 30
0.0
 11
5610.736199405341
 21
5905.251993883729
 31
0.0
  0
LINE
  5
136
330
17
100
AcDbEntity
  8
COTA
 62
4
370
25
100
AcDbLine
 10
5716.736199405341
 20
5931.7919198619
 30
0.0
 11
5716.736199405341
 21
5905.251993883729
 31
0.0
  0
LINE
  5
137
330
17
100
AcDbEntity
  8
COTA
 62
4
370
25
100
AcDbLine
 10
5610.736199405341
 20
5908.251993883729
 30
0.0
 11
5716.736199405341
 21
5908.251993883729
 31
0.0
  0
LINE
  5
138
330
17
100
AcDbEntity
  8
COTA
 62
0
370
25
100
AcDbLine
 10
5612.236199405341
 20
5909.751993883729
 30
0.0
 11
5609.236199405341
 21
5906.751993883729
 31
0.0
  0
LINE
  5
139
330
17
100
AcDbEntity
  8
COTA
 62
0
370
25
100
AcDbLine
 10
5715.236199405341
 20
5906.751993883729
 30
0.0
 11
5718.236199405341
 21
5909.751993883729
 31
0.0
  0
LINE
  5
13A
330
17
100
AcDbEntity
  8
COTA
 62
4
370
25
100
AcDbLine
 10
5488.736199405341
 20
5931.791919861874
 30
0.0
 11
5488.736199405341
 21
5871.713483194996
 31
0.0
  0
LINE
  5
13B
330
17
100
AcDbEntity
  8
COTA
 62
4
370
25
100
AcDbLine
 10
5716.736199405341
 20
5931.7919198619
 30
0.0
 11
5716.736199405341
 21
5871.713483194996
 31
0.0
  0
LINE
  5
13C
330
17
100
AcDbEntity
  8
COTA
 62
4
370
25
100
AcDbLine
 10
5488.736199405341
 20
5874.713483194996
 30
0.0
 11
5716.736199405341
 21
5874.713483194996
 31
0.0
  0
LINE
  5
13D
330
17
100
AcDbEntity
  8
COTA
 62
0
370
25
100
AcDbLine
 10
5490.236199405341
 20
5876.213483194996
 30
0.0
 11
5487.236199405341
 21
5873.213483194996
 31
0.0
  0
LINE
  5
13E
330
17
100
AcDbEntity
  8
COTA
 62
0
370
25
100
AcDbLine
 10
5715.236199405341
 20
5873.213483194996
 30
0.0
 11
5718.236199405341
 21
5876.213483194996
 31
0.0
  0
LINE
  5
13F
330
17
100
AcDbEntity
  8
COTA
 62
4
370
25
100
AcDbLine
 10
5714.736199405341
 20
5931.7919198619
 30
0.0
 11
5714.736199405341
 21
5915.127972382496
 31
0.0
  0
LINE
  5
140
330
17
100
AcDbEntity
  8
COTA
 62
4
370
25
100
AcDbLine
 10
5716.736199405341
 20
5931.7919198619
 30
0.0
 11
5716.736199405341
 21
5915.127972382496
 31
0.0
  0
LINE
  5
141
330
17
100
AcDbEntity
  8
COTA
 62
4
370
25
100
AcDbLine
 10
5714.736199405341
 20
5918.127972382496
 30
0.0
 11
5711.736199405341
 21
5918.127972382496
 31
0.0
  0
LINE
  5
142
330
17
100
AcDbEntity
  8
COTA
 62
4
370
25
100
AcDbLine
 10
5716.736199405341
 20
5918.127972382496
 30
0.0
 11
5734.847310516452
 21
5918.127972382496
 31
0.0
  0
LINE
  5
143
330
17
100
AcDbEntity
  8
COTA
 62
4
370
25
100
AcDbLine
 10
5714.736199405341
 20
5918.127972382496
 30
0.0
 11
5716.736199405341
 21
5918.127972382496
 31
0.0
  0
LINE
  5
144
330
17
100
AcDbEntity
  8
COTA
 62
0
370
25
100
AcDbLine
 10
5713.236199405341
 20
5916.627972382496
 30
0.0
 11
5716.236199405341
 21
5919.627972382496
 31
0.0
  0
LINE
  5
145
330
17
100
AcDbEntity
  8
COTA
 62
0
370
25
100
AcDbLine
 10
5718.236199405341
 20
5919.627972382496
 30
0.0
 11
5715.236199405341
 21
5916.627972382496
 31
0.0
  0
LINE
  5
146
330
17
100
AcDbEntity
  8
COTA
 62
4
370
25
100
AcDbLine
 10
6215.941660087118
 20
5931.791919861874
 30
0.0
 11
6215.941660087118
 21
5905.251993883719
 31
0.0
  0
LINE
  5
147
330
17
100
AcDbEntity
  8
COTA
 62
4
370
25
100
AcDbLine
 10
5969.941660087117
 20
5931.791919861903
 30
0.0
 11
5969.941660087117
 21
5905.251993883719
 31
0.0
  0
LINE
  5
148
330
17
100
AcDbEntity
  8
COTA
 62
4
370
25
100
AcDbLine
 10
6215.941660087118
 20
5908.251993883719
 30
0.0
 11
5969.941660087117
 21
5908.251993883719
 31
0.0
  0
LINE
  5
149
330
17
100
AcDbEntity
  8
COTA
 62
0
370
25
100
AcDbLine
 10
6214.441660087118
 20
5906.751993883719
 30
0.0
 11
6217.441660087118
 21
5909.751993883719
 31
0.0
  0
LINE
  5
14A
330
17
100
AcDbEntity
  8
COTA
 62
0
370
25
100
AcDbLine
 10
5971.441660087117
 20
5909.751993883719
 30
0.0
 11
5968.441660087117
 21
5906.751993883719
 31
0.0
  0
LINE
  5
14B
330
17
100
AcDbEntity
  8
COTA
 62
4
370
25
100
AcDbLine
 10
5969.941660087117
 20
5931.791919861903
 30
0.0
 11
5969.941660087117
 21
5905.251993883729
 31
0.0
  0
LINE
  5
14C
330
17
100
AcDbEntity
  8
COTA
 62
4
370
25
100
AcDbLine
 10
5797.941660087118
 20
5931.7919198619
 30
0.0
 11
5797.941660087118
 21
5905.251993883729
 31
0.0
  0
LINE
  5
14D
330
17
100
AcDbEntity
  8
COTA
 62
4
370
25
100
AcDbLine
 10
5969.941660087117
 20
5908.251993883729
 30
0.0
 11
5797.941660087118
 21
5908.251993883729
 31
0.0
  0
LINE
  5
14E
330
17
100
AcDbEntity
  8
COTA
 62
0
370
25
100
AcDbLine
 10
5968.441660087117
 20
5906.751993883729
 30
0.0
 11
5971.441660087117
 21
5909.751993883729
 31
0.0
  0
LINE
  5
14F
330
17
100
AcDbEntity
  8
COTA
 62
0
370
25
100
AcDbLine
 10
5799.441660087118
 20
5909.751993883729
 30
0.0
 11
5796.441660087118
 21
5906.751993883729
 31
0.0
  0
LINE
  5
150
330
17
100
AcDbEntity
  8
COTA
 62
4
370
25
100
AcDbLine
 10
6215.941660087118
 20
5931.791919861874
 30
0.0
 11
6215.941660087118
 21
5871.713483194996
 31
0.0
  0
LINE
  5
151
330
17
100
AcDbEntity
  8
COTA
 62
4
370
25
100
AcDbLine
 10
5797.941660087118
 20
5931.7919198619
 30
0.0
 11
5797.941660087118
 21
5871.713483194996
 31
0.0
  0
LINE
  5
152
330
17
100
AcDbEntity
  8
COTA
 62
4
370
25
100
AcDbLine
 10
6215.941660087118
 20
5874.713483194996
 30
0.0
 11
5797.941660087118
 21
5874.713483194996
 31
0.0
  0
LINE
  5
153
330
17
100
AcDbEntity
  8
COTA
 62
0
370
25
100
AcDbLine
 10
6214.441660087118
 20
5873.213483194996
 30
0.0
 11
6217.441660087118
 21
5876.213483194996
 31
0.0
  0
LINE
  5
154
330
17
100
AcDbEntity
  8
COTA
 62
0
370
25
100
AcDbLine
 10
5799.441660087118
 20
5876.213483194996
 30
0.0
 11
5796.441660087118
 21
5873.213483194996
 31
0.0
  0
LINE
  5
155
330
17
100
AcDbEntity
  8
COTA
 62
4
370
25
100
AcDbLine
 10
5799.941660087117
 20
5931.7919198619
 30
0.0
 11
5799.941660087117
 21
5915.127972382496
 31
0.0
  0
LINE
  5
156
330
17
100
AcDbEntity
  8
COTA
 62
4
370
25
100
AcDbLine
 10
5797.941660087118
 20
5931.7919198619
 30
0.0
 11
5797.941660087118
 21
5915.127972382496
 31
0.0
  0
LINE
  5
157
330
17
100
AcDbEntity
  8
COTA
 62
4
370
25
100
AcDbLine
 10
5799.941660087117
 20
5918.127972382496
 30
0.0
 11
5802.941660087117
 21
5918.127972382496
 31
0.0
  0
LINE
  5
158
330
17
100
AcDbEntity
  8
COTA
 62
4
370
25
100
AcDbLine
 10
5797.941660087118
 20
5918.127972382496
 30
0.0
 11
5779.830548976006
 21
5918.127972382496
 31
0.0
  0
LINE
  5
159
330
17
100
AcDbEntity
  8
COTA
 62
4
370
25
100
AcDbLine
 10
5799.941660087117
 20
5918.127972382496
 30
0.0
 11
5797.941660087118
 21
5918.127972382496
 31
0.0
  0
LINE
  5
15A
330
17
100
AcDbEntity
  8
COTA
 62
0
370
25
100
AcDbLine
 10
5801.441660087117
 20
5919.627972382496
 30
0.0
 11
5798.441660087117
 21
5916.627972382496
 31
0.0
  0
LINE
  5
15B
330
17
100
AcDbEntity
  8
COTA
 62
0
370
25
100
AcDbLine
 10
5796.441660087118
 20
5916.627972382496
 30
0.0
 11
5799.441660087118
 21
5919.627972382496
 31
0.0
  0
LINE
  5
15C
330
17
100
AcDbEntity
  8
COTA
 62
4
370
25
100
AcDbLine
 10
5485.736199405343
 20
5974.791919861901
 30
0.0
 11
5457.789669828009
 21
5974.791919861901
 31
0.0
  0
LINE
  5
15D
330
17
100
AcDbEntity
  8
COTA
 62
4
370
25
100
AcDbLine
 10
5485.736199405343
 20
5934.791919861901
 30
0.0
 11
5457.789669828009
 21
5934.791919861901
 31
0.0
  0
LINE
  5
15E
330
17
100
AcDbEntity
  8
COTA
 62
4
370
25
100
AcDbLine
 10
5460.78966982801
 20
5974.791919861901
 30
0.0
 11
5460.78966982801
 21
5934.791919861901
 31
0.0
  0
LINE
  5
15F
330
17
100
AcDbEntity
  8
COTA
 62
0
370
25
100
AcDbLine
 10
5462.28966982801
 20
5973.291919861901
 30
0.0
 11
5459.28966982801
 21
5976.291919861901
 31
0.0
  0
LINE
  5
160
330
17
100
AcDbEntity
  8
COTA
 62
0
370
25
100
AcDbLine
 10
5459.28966982801
 20
5936.291919861901
 30
0.0
 11
5462.28966982801
 21
5933.291919861901
 31
0.0
  0
LINE
  5
161
330
17
100
AcDbEntity
  8
COTA
 62
4
370
25
100
AcDbLine
 10
5485.736199405343
 20
5974.791919861901
 30
0.0
 11
5457.789669827942
 21
5974.791919861901
 31
0.0
  0
LINE
  5
162
330
17
100
AcDbEntity
  8
COTA
 62
4
370
25
100
AcDbLine
 10
5485.736199405343
 20
5986.791919861901
 30
0.0
 11
5457.789669827942
 21
5986.791919861901
 31
0.0
  0
LINE
  5
163
330
17
100
AcDbEntity
  8
COTA
 62
4
370
25
100
AcDbLine
 10
5460.789669827942
 20
5974.791919861901
 30
0.0
 11
5460.789669827942
 21
5986.791919861901
 31
0.0
  0
LINE
  5
164
330
17
100
AcDbEntity
  8
COTA
 62
0
370
25
100
AcDbLine
 10
5459.289669827942
 20
5976.291919861901
 30
0.0
 11
5462.289669827942
 21
5973.291919861901
 31
0.0
  0
LINE
  5
165
330
17
100
AcDbEntity
  8
COTA
 62
0
370
25
100
AcDbLine
 10
5462.289669827942
 20
5985.291919861901
 30
0.0
 11
5459.289669827942
 21
5988.291919861901
 31
0.0
  0
LINE
  5
166
330
17
100
AcDbEntity
  8
COTA
 62
4
370
25
100
AcDbLine
 10
5485.736199405335
 20
5993.791919861876
 30
0.0
 11
5431.857595689828
 21
5993.791919861876
 31
0.0
  0
LINE
  5
167
330
17
100
AcDbEntity
  8
COTA
 62
4
370
25
100
AcDbLine
 10
5485.736199405332
 20
5934.791919861901
 30
0.0
 11
5431.857595689828
 21
5934.791919861901
 31
0.0
  0
LINE
  5
168
330
17
100
AcDbEntity
  8
COTA
 62
4
370
25
100
AcDbLine
 10
5434.857595689828
 20
5993.791919861876
 30
0.0
 11
5434.857595689828
 21
5934.791919861901
 31
0.0
  0
LINE
  5
169
330
17
100
AcDbEntity
  8
COTA
 62
0
370
25
100
AcDbLine
 10
5436.357595689828
 20
5992.291919861876
 30
0.0
 11
5433.357595689828
 21
5995.291919861876
 31
0.0
  0
LINE
  5
16A
330
17
100
AcDbEntity
  8
COTA
 62
0
370
25
100
AcDbLine
 10
5433.357595689828
 20
5936.291919861901
 30
0.0
 11
5436.357595689828
 21
5933.291919861901
 31
0.0
  0
LINE
  5
16B
330
17
100
AcDbEntity
  8
COTA
 62
4
370
25
100
AcDbLine
 10
6213.941660087125
 20
5931.791919861785
 30
0.0
 11
6213.941660087125
 21
5915.127972382382
 31
0.0
  0
LINE
  5
16C
330
17
100
AcDbEntity
  8
COTA
 62
4
370
25
100
AcDbLine
 10
6215.941660087125
 20
5931.791919861785
 30
0.0
 11
6215.941660087125
 21
5915.127972382382
 31
0.0
  0
LINE
  5
16D
330
17
100
AcDbEntity
  8
COTA
 62
4
370
25
100
AcDbLine
 10
6213.941660087125
 20
5918.127972382382
 30
0.0
 11
6210.941660087125
 21
5918.127972382382
 31
0.0
  0
LINE
  5
16E
330
17
100
AcDbEntity
  8
COTA
 62
4
370
25
100
AcDbLine
 10
6215.941660087125
 20
5918.127972382382
 30
0.0
 11
6234.052771198236
 21
5918.127972382382
 31
0.0
  0
LINE
  5
16F
330
17
100
AcDbEntity
  8
COTA
 62
4
370
25
100
AcDbLine
 10
6213.941660087125
 20
5918.127972382382
 30
0.0
 11
6215.941660087125
 21
5918.127972382382
 31
0.0
  0
LINE
  5
170
330
17
100
AcDbEntity
  8
COTA
 62
0
370
25
100
AcDbLine
 10
6212.441660087125
 20
5916.627972382382
 30
0.0
 11
6215.441660087125
 21
5919.627972382382
 31
0.0
  0
LINE
  5
171
330
17
100
AcDbEntity
  8
COTA
 62
0
370
25
100
AcDbLine
 10
6217.441660087125
 20
5919.627972382382
 30
0.0
 11
6214.441660087125
 21
5916.627972382382
 31
0.0
  0
LINE
  5
172
330
17
100
AcDbEntity
  8
COTA
 62
4
370
25
100
AcDbLine
 10
5287.935032065586
 20
5667.693412425319
 30
0.0
 11
5315.176493177051
 21
5667.693412425319
 31
0.0
  0
LINE
  5
173
330
17
100
AcDbEntity
  8
COTA
 62
4
370
25
100
AcDbLine
 10
5287.935032065586
 20
5657.693412425327
 30
0.0
 11
5315.176493177051
 21
5657.693412425327
 31
0.0
  0
LINE
  5
174
330
17
100
AcDbEntity
  8
COTA
 62
4
370
25
100
AcDbLine
 10
5310.17649317705
 20
5672.69341242532
 30
0.0
 11
5310.17649317705
 21
5657.693412425327
 31
0.0
  0
LINE
  5
175
330
17
100
AcDbEntity
  8
COTA
 62
4
370
25
100
AcDbLine
 10
5310.17649317705
 20
5657.693412425327
 30
0.0
 11
5310.17649317705
 21
5641.693412425326
 31
0.0
  0
LINE
  5
176
330
17
100
AcDbEntity
  8
COTA
 62
4
370
25
100
AcDbLine
 10
6215.941660087125
 20
5996.791919861873
 30
0.0
 11
6215.941660087125
 21
6001.828780375207
 31
0.0
  0
LINE
  5
177
330
17
100
AcDbEntity
  8
COTA
 62
4
370
25
100
AcDbLine
 10
5971.912552608127
 20
5996.79191986188
 30
0.0
 11
5971.912552608127
 21
6001.828780375207
 31
0.0
  0
LINE
  5
178
330
17
100
AcDbEntity
  8
COTA
 62
4
370
25
100
AcDbLine
 10
6215.941660087125
 20
5998.828780375207
 30
0.0
 11
5971.912552608127
 21
5998.828780375207
 31
0.0
  0
LINE
  5
179
330
17
100
AcDbEntity
  8
COTA
 62
0
370
25
100
AcDbLine
 10
6214.441660087125
 20
5997.328780375207
 30
0.0
 11
6217.441660087125
 21
6000.328780375207
 31
0.0
  0
LINE
  5
17A
330
17
100
AcDbEntity
  8
COTA
 62
0
370
25
100
AcDbLine
 10
5973.412552608127
 20
6000.328780375207
 30
0.0
 11
5970.412552608127
 21
5997.328780375207
 31
0.0
  0
LINE
  5
17B
330
17
100
AcDbEntity
  8
COTA
 62
4
370
25
100
AcDbLine
 10
5485.736199405343
 20
5986.791919861901
 30
0.0
 11
5457.789669827993
 21
5986.791919861901
 31
0.0
  0
LINE
  5
17C
330
17
100
AcDbEntity
  8
COTA
 62
4
370
25
100
AcDbLine
 10
5485.736199405335
 20
5993.791919861876
 30
0.0
 11
5457.789669827993
 21
5993.791919861876
 31
0.0
  0
LINE
  5
17D
330
17
100
AcDbEntity
  8
COTA
 62
4
370
25
100
AcDbLine
 10
5460.789669827993
 20
5986.791919861901
 30
0.0
 11
5460.789669827993
 21
5993.791919861876
 31
0.0
  0
LINE
  5
17E
330
17
100
AcDbEntity
  8
COTA
 62
4
370
25
100
AcDbLine
 10
5460.789669827993
 20
5993.791919861876
 30
0.0
 11
5460.789669827993
 21
6008.522914013923
 31
0.0
  0
LINE
  5
17F
330
17
100
AcDbEntity
  8
COTA
 62
0
370
25
100
AcDbLine
 10
5459.289669827993
 20
5988.291919861901
 30
0.0
 11
5462.289669827993
 21
5985.291919861901
 31
0.0
  0
LINE
  5
180
330
17
100
AcDbEntity
  8
COTA
 62
0
370
25
100
AcDbLine
 10
5462.289669827993
 20
5992.291919861876
 30
0.0
 11
5459.289669827993
 21
5995.291919861876
 31
0.0
  0
LINE
  5
181
330
17
100
AcDbEntity
  8
COTA
 62
4
370
25
100
AcDbLine
 10
5904.078996104717
 20
5745.803852608927
 30
0.0
 11
5904.078996104717
 21
5719.263926630771
 31
0.0
  0
LINE
  5
182
330
17
100
AcDbEntity
  8
COTA
 62
4
370
25
100
AcDbLine
 10
5658.078996104717
 20
5745.803852608956
 30
0.0
 11
5658.078996104717
 21
5719.263926630771
 31
0.0
  0
LINE
  5
183
330
17
100
AcDbEntity
  8
COTA
 62
4
370
25
100
AcDbLine
 10
5904.078996104717
 20
5722.263926630771
 30
0.0
 11
5658.078996104717
 21
5722.263926630771
 31
0.0
  0
LINE
  5
184
330
17
100
AcDbEntity
  8
COTA
 62
0
370
25
100
AcDbLine
 10
5902.578996104717
 20
5720.763926630771
 30
0.0
 11
5905.578996104717
 21
5723.763926630771
 31
0.0
  0
LINE
  5
185
330
17
100
AcDbEntity
  8
COTA
 62
0
370
25
100
AcDbLine
 10
5659.578996104717
 20
5723.763926630771
 30
0.0
 11
5656.578996104717
 21
5720.763926630771
 31
0.0
  0
LINE
  5
186
330
17
100
AcDbEntity
  8
COTA
 62
4
370
25
100
AcDbLine
 10
5658.078996104717
 20
5745.803852608956
 30
0.0
 11
5658.078996104717
 21
5719.263926630782
 31
0.0
  0
LINE
  5
187
330
17
100
AcDbEntity
  8
COTA
 62
4
370
25
100
AcDbLine
 10
5486.078996104717
 20
5745.803852608952
 30
0.0
 11
5486.078996104717
 21
5719.263926630782
 31
0.0
  0
LINE
  5
188
330
17
100
AcDbEntity
  8
COTA
 62
4
370
25
100
AcDbLine
 10
5658.078996104717
 20
5722.263926630782
 30
0.0
 11
5486.078996104717
 21
5722.263926630782
 31
0.0
  0
LINE
  5
189
330
17
100
AcDbEntity
  8
COTA
 62
0
370
25
100
AcDbLine
 10
5656.578996104717
 20
5720.763926630782
 30
0.0
 11
5659.578996104717
 21
5723.763926630782
 31
0.0
  0
LINE
  5
18A
330
17
100
AcDbEntity
  8
COTA
 62
0
370
25
100
AcDbLine
 10
5487.578996104717
 20
5723.763926630782
 30
0.0
 11
5484.578996104717
 21
5720.763926630782
 31
0.0
  0
LINE
  5
18B
330
17
100
AcDbEntity
  8
COTA
 62
4
370
25
100
AcDbLine
 10
5904.078996104717
 20
5745.803852608927
 30
0.0
 11
5904.078996104717
 21
5685.725415942049
 31
0.0
  0
LINE
  5
18C
330
17
100
AcDbEntity
  8
COTA
 62
4
370
25
100
AcDbLine
 10
5486.078996104717
 20
5745.803852608952
 30
0.0
 11
5486.078996104717
 21
5685.725415942049
 31
0.0
  0
LINE
  5
18D
330
17
100
AcDbEntity
  8
COTA
 62
4
370
25
100
AcDbLine
 10
5904.078996104717
 20
5688.725415942049
 30
0.0
 11
5486.078996104717
 21
5688.725415942049
 31
0.0
  0
LINE
  5
18E
330
17
100
AcDbEntity
  8
COTA
 62
0
370
25
100
AcDbLine
 10
5902.578996104717
 20
5687.225415942049
 30
0.0
 11
5905.578996104717
 21
5690.225415942049
 31
0.0
  0
LINE
  5
18F
330
17
100
AcDbEntity
  8
COTA
 62
0
370
25
100
AcDbLine
 10
5487.578996104717
 20
5690.225415942049
 30
0.0
 11
5484.578996104717
 21
5687.225415942049
 31
0.0
  0
LINE
  5
190
330
17
100
AcDbEntity
  8
COTA
 62
4
370
25
100
AcDbLine
 10
5488.078996104718
 20
5745.803852608952
 30
0.0
 11
5488.078996104718
 21
5729.139905129549
 31
0.0
  0
LINE
  5
191
330
17
100
AcDbEntity
  8
COTA
 62
4
370
25
100
AcDbLine
 10
5486.078996104717
 20
5745.803852608952
 30
0.0
 11
5486.078996104717
 21
5729.139905129549
 31
0.0
  0
LINE
  5
192
330
17
100
AcDbEntity
  8
COTA
 62
4
370
25
100
AcDbLine
 10
5488.078996104718
 20
5732.13990512955
 30
0.0
 11
5491.078996104718
 21
5732.13990512955
 31
0.0
  0
LINE
  5
193
330
17
100
AcDbEntity
  8
COTA
 62
4
370
25
100
AcDbLine
 10
5486.078996104717
 20
5732.13990512955
 30
0.0
 11
5467.967884993607
 21
5732.13990512955
 31
0.0
  0
LINE
  5
194
330
17
100
AcDbEntity
  8
COTA
 62
4
370
25
100
AcDbLine
 10
5488.078996104718
 20
5732.13990512955
 30
0.0
 11
5486.078996104717
 21
5732.13990512955
 31
0.0
  0
LINE
  5
195
330
17
100
AcDbEntity
  8
COTA
 62
0
370
25
100
AcDbLine
 10
5489.578996104718
 20
5733.63990512955
 30
0.0
 11
5486.578996104718
 21
5730.63990512955
 31
0.0
  0
LINE
  5
196
330
17
100
AcDbEntity
  8
COTA
 62
0
370
25
100
AcDbLine
 10
5484.578996104717
 20
5730.63990512955
 30
0.0
 11
5487.578996104717
 21
5733.63990512955
 31
0.0
  0
LINE
  5
197
330
17
100
AcDbEntity
  8
COTA
 62
4
370
25
100
AcDbLine
 10
5902.078996104725
 20
5745.803852608838
 30
0.0
 11
5902.078996104725
 21
5729.139905129435
 31
0.0
  0
LINE
  5
198
330
17
100
AcDbEntity
  8
COTA
 62
4
370
25
100
AcDbLine
 10
5904.078996104725
 20
5745.803852608838
 30
0.0
 11
5904.078996104725
 21
5729.139905129435
 31
0.0
  0
LINE
  5
199
330
17
100
AcDbEntity
  8
COTA
 62
4
370
25
100
AcDbLine
 10
5902.078996104725
 20
5732.139905129435
 30
0.0
 11
5899.078996104725
 21
5732.139905129435
 31
0.0
  0
LINE
  5
19A
330
17
100
AcDbEntity
  8
COTA
 62
4
370
25
100
AcDbLine
 10
5904.078996104725
 20
5732.139905129435
 30
0.0
 11
5922.190107215836
 21
5732.139905129435
 31
0.0
  0
LINE
  5
19B
330
17
100
AcDbEntity
  8
COTA
 62
4
370
25
100
AcDbLine
 10
5902.078996104725
 20
5732.139905129435
 30
0.0
 11
5904.078996104725
 21
5732.139905129435
 31
0.0
  0
LINE
  5
19C
330
17
100
AcDbEntity
  8
COTA
 62
0
370
25
100
AcDbLine
 10
5900.578996104725
 20
5730.639905129435
 30
0.0
 11
5903.578996104725
 21
5733.639905129435
 31
0.0
  0
LINE
  5
19D
330
17
100
AcDbEntity
  8
COTA
 62
0
370
25
100
AcDbLine
 10
5905.578996104725
 20
5733.639905129435
 30
0.0
 11
5902.578996104725
 21
5730.639905129435
 31
0.0
  0
LINE
  5
19E
330
17
100
AcDbEntity
  8
COTA
 62
4
370
25
100
AcDbLine
 10
5904.078996104725
 20
5810.803852608927
 30
0.0
 11
5904.078996104725
 21
5815.84071312226
 31
0.0
  0
LINE
  5
19F
330
17
100
AcDbEntity
  8
COTA
 62
4
370
25
100
AcDbLine
 10
5660.049888625728
 20
5810.803852608934
 30
0.0
 11
5660.049888625728
 21
5815.84071312226
 31
0.0
  0
LINE
  5
1A0
330
17
100
AcDbEntity
  8
COTA
 62
4
370
25
100
AcDbLine
 10
5904.078996104725
 20
5812.84071312226
 30
0.0
 11
5660.049888625728
 21
5812.84071312226
 31
0.0
  0
LINE
  5
1A1
330
17
100
AcDbEntity
  8
COTA
 62
0
370
25
100
AcDbLine
 10
5902.578996104725
 20
5811.34071312226
 30
0.0
 11
5905.578996104725
 21
5814.34071312226
 31
0.0
  0
LINE
  5
1A2
330
17
100
AcDbEntity
  8
COTA
 62
0
370
25
100
AcDbLine
 10
5661.549888625728
 20
5814.34071312226
 30
0.0
 11
5658.549888625728
 21
5811.34071312226
 31
0.0
  0
LINE
  5
1A3
330
17
100
AcDbEntity
  8
COTA
 62
4
370
25
100
AcDbLine
 10
5995.331113741332
 20
5745.803852608927
 30
0.0
 11
5995.331113741332
 21
5719.263926630771
 31
0.0
  0
LINE
  5
1A4
330
17
100
AcDbEntity
  8
COTA
 62
4
370
25
100
AcDbLine
 10
6241.331113741331
 20
5745.803852608956
 30
0.0
 11
6241.331113741331
 21
5719.263926630771
 31
0.0
  0
LINE
  5
1A5
330
17
100
AcDbEntity
  8
COTA
 62
4
370
25
100
AcDbLine
 10
5995.331113741332
 20
5722.263926630771
 30
0.0
 11
6241.331113741331
 21
5722.263926630771
 31
0.0
  0
LINE
  5
1A6
330
17
100
AcDbEntity
  8
COTA
 62
0
370
25
100
AcDbLine
 10
5996.831113741332
 20
5723.763926630771
 30
0.0
 11
5993.831113741332
 21
5720.763926630771
 31
0.0
  0
LINE
  5
1A7
330
17
100
AcDbEntity
  8
COTA
 62
0
370
25
100
AcDbLine
 10
6239.831113741331
 20
5720.763926630771
 30
0.0
 11
6242.831113741331
 21
5723.763926630771
 31
0.0
  0
LINE
  5
1A8
330
17
100
AcDbEntity
  8
COTA
 62
4
370
25
100
AcDbLine
 10
6241.331113741331
 20
5745.803852608956
 30
0.0
 11
6241.331113741331
 21
5719.263926630782
 31
0.0
  0
LINE
  5
1A9
330
17
100
AcDbEntity
  8
COTA
 62
4
370
25
100
AcDbLine
 10
6413.331113741332
 20
5745.803852608952
 30
0.0
 11
6413.331113741332
 21
5719.263926630782
 31
0.0
  0
LINE
  5
1AA
330
17
100
AcDbEntity
  8
COTA
 62
4
370
25
100
AcDbLine
 10
6241.331113741331
 20
5722.263926630782
 30
0.0
 11
6413.331113741332
 21
5722.263926630782
 31
0.0
  0
LINE
  5
1AB
330
17
100
AcDbEntity
  8
COTA
 62
0
370
25
100
AcDbLine
 10
6242.831113741331
 20
5723.763926630782
 30
0.0
 11
6239.831113741331
 21
5720.763926630782
 31
0.0
  0
LINE
  5
1AC
330
17
100
AcDbEntity
  8
COTA
 62
0
370
25
100
AcDbLine
 10
6411.831113741332
 20
5720.763926630782
 30
0.0
 11
6414.831113741332
 21
5723.763926630782
 31
0.0
  0
LINE
  5
1AD
330
17
100
AcDbEntity
  8
COTA
 62
4
370
25
100
AcDbLine
 10
5995.331113741332
 20
5745.803852608927
 30
0.0
 11
5995.331113741332
 21
5691.711809480619
 31
0.0
  0
LINE
  5
1AE
330
17
100
AcDbEntity
  8
COTA
 62
4
370
25
100
AcDbLine
 10
6413.331113741332
 20
5745.803852608952
 30
0.0
 11
6413.331113741332
 21
5691.711809480619
 31
0.0
  0
LINE
  5
1AF
330
17
100
AcDbEntity
  8
COTA
 62
4
370
25
100
AcDbLine
 10
5995.331113741332
 20
5694.711809480619
 30
0.0
 11
6413.331113741332
 21
5694.711809480619
 31
0.0
  0
LINE
  5
1B0
330
17
100
AcDbEntity
  8
COTA
 62
0
370
25
100
AcDbLine
 10
5996.831113741332
 20
5696.211809480619
 30
0.0
 11
5993.831113741332
 21
5693.211809480619
 31
0.0
  0
LINE
  5
1B1
330
17
100
AcDbEntity
  8
COTA
 62
0
370
25
100
AcDbLine
 10
6411.831113741332
 20
5693.211809480619
 30
0.0
 11
6414.831113741332
 21
5696.211809480619
 31
0.0
  0
LINE
  5
1B2
330
17
100
AcDbEntity
  8
COTA
 62
4
370
25
100
AcDbLine
 10
6411.331113741332
 20
5745.803852608952
 30
0.0
 11
6411.331113741332
 21
5729.139905129549
 31
0.0
  0
LINE
  5
1B3
330
17
100
AcDbEntity
  8
COTA
 62
4
370
25
100
AcDbLine
 10
6413.331113741332
 20
5745.803852608952
 30
0.0
 11
6413.331113741332
 21
5729.139905129549
 31
0.0
  0
LINE
  5
1B4
330
17
100
AcDbEntity
  8
COTA
 62
4
370
25
100
AcDbLine
 10
6411.331113741332
 20
5732.13990512955
 30
0.0
 11
6408.331113741332
 21
5732.13990512955
 31
0.0
  0
LINE
  5
1B5
330
17
100
AcDbEntity
  8
COTA
 62
4
370
25
100
AcDbLine
 10
6413.331113741332
 20
5732.13990512955
 30
0.0
 11
6431.442224852442
 21
5732.13990512955
 31
0.0
  0
LINE
  5
1B6
330
17
100
AcDbEntity
  8
COTA
 62
4
370
25
100
AcDbLine
 10
6411.331113741332
 20
5732.13990512955
 30
0.0
 11
6413.331113741332
 21
5732.13990512955
 31
0.0
  0
LINE
  5
1B7
330
17
100
AcDbEntity
  8
COTA
 62
0
370
25
100
AcDbLine
 10
6409.831113741332
 20
5730.63990512955
 30
0.0
 11
6412.831113741332
 21
5733.63990512955
 31
0.0
  0
LINE
  5
1B8
330
17
100
AcDbEntity
  8
COTA
 62
0
370
25
100
AcDbLine
 10
6414.831113741332
 20
5733.63990512955
 30
0.0
 11
6411.831113741332
 21
5730.63990512955
 31
0.0
  0
LINE
  5
1B9
330
17
100
AcDbEntity
  8
COTA
 62
4
370
25
100
AcDbLine
 10
5997.331113741328
 20
5745.803852608838
 30
0.0
 11
5997.331113741328
 21
5729.139905129435
 31
0.0
  0
LINE
  5
1BA
330
17
100
AcDbEntity
  8
COTA
 62
4
370
25
100
AcDbLine
 10
5995.331113741327
 20
5745.803852608838
 30
0.0
 11
5995.331113741327
 21
5729.139905129435
 31
0.0
  0
LINE
  5
1BB
330
17
100
AcDbEntity
  8
COTA
 62
4
370
25
100
AcDbLine
 10
5997.331113741328
 20
5732.139905129435
 30
0.0
 11
6000.331113741328
 21
5732.139905129435
 31
0.0
  0
LINE
  5
1BC
330
17
100
AcDbEntity
  8
COTA
 62
4
370
25
100
AcDbLine
 10
5995.331113741327
 20
5732.139905129435
 30
0.0
 11
5977.220002630216
 21
5732.139905129435
 31
0.0
  0
LINE
  5
1BD
330
17
100
AcDbEntity
  8
COTA
 62
4
370
25
100
AcDbLine
 10
5997.331113741328
 20
5732.139905129435
 30
0.0
 11
5995.331113741327
 21
5732.139905129435
 31
0.0
  0
LINE
  5
1BE
330
17
100
AcDbEntity
  8
COTA
 62
0
370
25
100
AcDbLine
 10
5998.831113741328
 20
5733.639905129435
 30
0.0
 11
5995.831113741328
 21
5730.639905129435
 31
0.0
  0
LINE
  5
1BF
330
17
100
AcDbEntity
  8
COTA
 62
0
370
25
100
AcDbLine
 10
5993.831113741327
 20
5730.639905129435
 30
0.0
 11
5996.831113741327
 21
5733.639905129435
 31
0.0
  0
LINE
  5
1C0
330
17
100
AcDbEntity
  8
COTA
 62
4
370
25
100
AcDbLine
 10
5995.331113741327
 20
5810.803852608927
 30
0.0
 11
5995.331113741327
 21
5815.84071312226
 31
0.0
  0
LINE
  5
1C1
330
17
100
AcDbEntity
  8
COTA
 62
4
370
25
100
AcDbLine
 10
6239.360221220324
 20
5810.803852608934
 30
0.0
 11
6239.360221220324
 21
5815.84071312226
 31
0.0
  0
LINE
  5
1C2
330
17
100
AcDbEntity
  8
COTA
 62
4
370
25
100
AcDbLine
 10
5995.331113741327
 20
5812.84071312226
 30
0.0
 11
6239.360221220324
 21
5812.84071312226
 31
0.0
  0
LINE
  5
1C3
330
17
100
AcDbEntity
  8
COTA
 62
0
370
25
100
AcDbLine
 10
5996.831113741327
 20
5814.34071312226
 30
0.0
 11
5993.831113741327
 21
5811.34071312226
 31
0.0
  0
LINE
  5
1C4
330
17
100
AcDbEntity
  8
COTA
 62
0
370
25
100
AcDbLine
 10
6237.860221220324
 20
5811.34071312226
 30
0.0
 11
6240.860221220324
 21
5814.34071312226
 31
0.0
  0
LINE
  5
1C5
330
17
100
AcDbEntity
  8
COTA
 62
4
370
25
100
AcDbLine
 10
5996.200713292104
 20
5544.436936395112
 30
0.0
 11
5996.200713292104
 21
5517.897010416958
 31
0.0
  0
LINE
  5
1C6
330
17
100
AcDbEntity
  8
COTA
 62
4
370
25
100
AcDbLine
 10
6242.200713292104
 20
5544.436936395142
 30
0.0
 11
6242.200713292104
 21
5517.897010416958
 31
0.0
  0
LINE
  5
1C7
330
17
100
AcDbEntity
  8
COTA
 62
4
370
25
100
AcDbLine
 10
5996.200713292104
 20
5520.897010416957
 30
0.0
 11
6242.200713292104
 21
5520.897010416957
 31
0.0
  0
LINE
  5
1C8
330
17
100
AcDbEntity
  8
COTA
 62
0
370
25
100
AcDbLine
 10
5997.700713292104
 20
5522.397010416957
 30
0.0
 11
5994.700713292104
 21
5519.397010416957
 31
0.0
  0
LINE
  5
1C9
330
17
100
AcDbEntity
  8
COTA
 62
0
370
25
100
AcDbLine
 10
6240.700713292104
 20
5519.397010416957
 30
0.0
 11
6243.700713292104
 21
5522.397010416957
 31
0.0
  0
LINE
  5
1CA
330
17
100
AcDbEntity
  8
COTA
 62
4
370
25
100
AcDbLine
 10
6242.200713292104
 20
5544.436936395142
 30
0.0
 11
6242.200713292104
 21
5517.897010416969
 31
0.0
  0
LINE
  5
1CB
330
17
100
AcDbEntity
  8
COTA
 62
4
370
25
100
AcDbLine
 10
6410.200713292105
 20
5544.436936395138
 30
0.0
 11
6410.200713292105
 21
5517.897010416969
 31
0.0
  0
LINE
  5
1CC
330
17
100
AcDbEntity
  8
COTA
 62
4
370
25
100
AcDbLine
 10
6242.200713292104
 20
5520.897010416969
 30
0.0
 11
6410.200713292105
 21
5520.897010416969
 31
0.0
  0
LINE
  5
1CD
330
17
100
AcDbEntity
  8
COTA
 62
0
370
25
100
AcDbLine
 10
6243.700713292104
 20
5522.397010416969
 30
0.0
 11
6240.700713292104
 21
5519.397010416969
 31
0.0
  0
LINE
  5
1CE
330
17
100
AcDbEntity
  8
COTA
 62
0
370
25
100
AcDbLine
 10
6408.700713292105
 20
5519.397010416969
 30
0.0
 11
6411.700713292105
 21
5522.397010416969
 31
0.0
  0
LINE
  5
1CF
330
17
100
AcDbEntity
  8
COTA
 62
4
370
25
100
AcDbLine
 10
5996.200713292104
 20
5544.436936395112
 30
0.0
 11
5996.200713292104
 21
5484.358499728235
 31
0.0
  0
LINE
  5
1D0
330
17
100
AcDbEntity
  8
COTA
 62
4
370
25
100
AcDbLine
 10
6410.200713292105
 20
5544.436936395138
 30
0.0
 11
6410.200713292105
 21
5484.358499728235
 31
0.0
  0
LINE
  5
1D1
330
17
100
AcDbEntity
  8
COTA
 62
4
370
25
100
AcDbLine
 10
5996.200713292104
 20
5487.358499728235
 30
0.0
 11
6410.200713292105
 21
5487.358499728235
 31
0.0
  0
LINE
  5
1D2
330
17
100
AcDbEntity
  8
COTA
 62
0
370
25
100
AcDbLine
 10
5997.700713292104
 20
5488.858499728235
 30
0.0
 11
5994.700713292104
 21
5485.858499728235
 31
0.0
  0
LINE
  5
1D3
330
17
100
AcDbEntity
  8
COTA
 62
0
370
25
100
AcDbLine
 10
6408.700713292105
 20
5485.858499728235
 30
0.0
 11
6411.700713292105
 21
5488.858499728235
 31
0.0
  0
LINE
  5
1D4
330
17
100
AcDbEntity
  8
COTA
 62
4
370
25
100
AcDbLine
 10
5998.200713292101
 20
5544.436936395023
 30
0.0
 11
5998.200713292101
 21
5527.772988915621
 31
0.0
  0
LINE
  5
1D5
330
17
100
AcDbEntity
  8
COTA
 62
4
370
25
100
AcDbLine
 10
5996.2007132921
 20
5544.436936395023
 30
0.0
 11
5996.2007132921
 21
5527.772988915621
 31
0.0
  0
LINE
  5
1D6
330
17
100
AcDbEntity
  8
COTA
 62
4
370
25
100
AcDbLine
 10
5998.200713292101
 20
5530.772988915621
 30
0.0
 11
6001.2007132921
 21
5530.772988915621
 31
0.0
  0
LINE
  5
1D7
330
17
100
AcDbEntity
  8
COTA
 62
4
370
25
100
AcDbLine
 10
5996.2007132921
 20
5530.772988915621
 30
0.0
 11
5978.08960218099
 21
5530.772988915621
 31
0.0
  0
LINE
  5
1D8
330
17
100
AcDbEntity
  8
COTA
 62
4
370
25
100
AcDbLine
 10
5998.200713292101
 20
5530.772988915621
 30
0.0
 11
5996.2007132921
 21
5530.772988915621
 31
0.0
  0
LINE
  5
1D9
330
17
100
AcDbEntity
  8
COTA
 62
0
370
25
100
AcDbLine
 10
5999.700713292101
 20
5532.272988915621
 30
0.0
 11
5996.700713292101
 21
5529.272988915621
 31
0.0
  0
LINE
  5
1DA
330
17
100
AcDbEntity
  8
COTA
 62
0
370
25
100
AcDbLine
 10
5994.7007132921
 20
5529.272988915621
 30
0.0
 11
5997.7007132921
 21
5532.272988915621
 31
0.0
  0
LINE
  5
1DB
330
17
100
AcDbEntity
  8
COTA
 62
4
370
25
100
AcDbLine
 10
5996.2007132921
 20
5609.436936395113
 30
0.0
 11
5996.2007132921
 21
5614.473796908447
 31
0.0
  0
LINE
  5
1DC
330
17
100
AcDbEntity
  8
COTA
 62
4
370
25
100
AcDbLine
 10
6240.229820771098
 20
5609.43693639512
 30
0.0
 11
6240.229820771098
 21
5614.473796908447
 31
0.0
  0
LINE
  5
1DD
330
17
100
AcDbEntity
  8
COTA
 62
4
370
25
100
AcDbLine
 10
5996.2007132921
 20
5611.473796908446
 30
0.0
 11
6240.229820771098
 21
5611.473796908446
 31
0.0
  0
LINE
  5
1DE
330
17
100
AcDbEntity
  8
COTA
 62
0
370
25
100
AcDbLine
 10
5997.7007132921
 20
5612.973796908446
 30
0.0
 11
5994.7007132921
 21
5609.973796908446
 31
0.0
  0
LINE
  5
1DF
330
17
100
AcDbEntity
  8
COTA
 62
0
370
25
100
AcDbLine
 10
6238.729820771098
 20
5609.973796908446
 30
0.0
 11
6241.729820771098
 21
5612.973796908446
 31
0.0
  0
LINE
  5
1E0
330
17
100
AcDbEntity
  8
COTA
 62
4
370
25
100
AcDbLine
 10
6218.941660087129
 20
5974.791919861876
 30
0.0
 11
6243.390429155974
 21
5974.791919861876
 31
0.0
  0
LINE
  5
1E1
330
17
100
AcDbEntity
  8
COTA
 62
4
370
25
100
AcDbLine
 10
6218.941660087121
 20
5934.791919861876
 30
0.0
 11
6243.390429155974
 21
5934.791919861876
 31
0.0
  0
LINE
  5
1E2
330
17
100
AcDbEntity
  8
COTA
 62
4
370
25
100
AcDbLine
 10
6240.390429155974
 20
5974.791919861876
 30
0.0
 11
6240.390429155974
 21
5934.791919861876
 31
0.0
  0
LINE
  5
1E3
330
17
100
AcDbEntity
  8
COTA
 62
0
370
25
100
AcDbLine
 10
6241.890429155974
 20
5973.291919861876
 30
0.0
 11
6238.890429155974
 21
5976.291919861876
 31
0.0
  0
LINE
  5
1E4
330
17
100
AcDbEntity
  8
COTA
 62
0
370
25
100
AcDbLine
 10
6238.890429155974
 20
5936.291919861876
 30
0.0
 11
6241.890429155974
 21
5933.291919861876
 31
0.0
  0
LINE
  5
1E5
330
17
100
AcDbEntity
  8
COTA
 62
4
370
25
100
AcDbLine
 10
6218.941660087129
 20
5974.791919861876
 30
0.0
 11
6243.390429155923
 21
5974.791919861876
 31
0.0
  0
LINE
  5
1E6
330
17
100
AcDbEntity
  8
COTA
 62
4
370
25
100
AcDbLine
 10
6218.941660087129
 20
5986.791919861875
 30
0.0
 11
6243.390429155923
 21
5986.791919861875
 31
0.0
  0
LINE
  5
1E7
330
17
100
AcDbEntity
  8
COTA
 62
4
370
25
100
AcDbLine
 10
6240.390429155922
 20
5974.791919861876
 30
0.0
 11
6240.390429155922
 21
5986.791919861875
 31
0.0
  0
LINE
  5
1E8
330
17
100
AcDbEntity
  8
COTA
 62
0
370
25
100
AcDbLine
 10
6238.890429155922
 20
5976.291919861876
 30
0.0
 11
6241.890429155922
 21
5973.291919861876
 31
0.0
  0
LINE
  5
1E9
330
17
100
AcDbEntity
  8
COTA
 62
0
370
25
100
AcDbLine
 10
6241.890429155922
 20
5985.291919861875
 30
0.0
 11
6238.890429155922
 21
5988.291919861875
 31
0.0
  0
LINE
  5
1EA
330
17
100
AcDbEntity
  8
COTA
 62
4
370
25
100
AcDbLine
 10
6218.941660087129
 20
5986.791919861875
 30
0.0
 11
6243.390429155981
 21
5986.791919861875
 31
0.0
  0
LINE
  5
1EB
330
17
100
AcDbEntity
  8
COTA
 62
4
370
25
100
AcDbLine
 10
6218.941660087129
 20
5993.791919861876
 30
0.0
 11
6243.390429155981
 21
5993.791919861876
 31
0.0
  0
LINE
  5
1EC
330
17
100
AcDbEntity
  8
COTA
 62
4
370
25
100
AcDbLine
 10
6240.390429155981
 20
5986.791919861875
 30
0.0
 11
6240.390429155981
 21
5993.791919861876
 31
0.0
  0
LINE
  5
1ED
330
17
100
AcDbEntity
  8
COTA
 62
4
370
25
100
AcDbLine
 10
6240.390429155981
 20
5993.791919861876
 30
0.0
 11
6240.390429155981
 21
6008.522914013923
 31
0.0
  0
LINE
  5
1EE
330
17
100
AcDbEntity
  8
COTA
 62
0
370
25
100
AcDbLine
 10
6238.890429155981
 20
5988.291919861875
 30
0.0
 11
6241.890429155981
 21
5985.291919861875
 31
0.0
  0
LINE
  5
1EF
330
17
100
AcDbEntity
  8
COTA
 62
0
370
25
100
AcDbLine
 10
6241.890429155981
 20
5992.291919861876
 30
0.0
 11
6238.890429155981
 21
5995.291919861876
 31
0.0
  0
LINE
  5
1F0
330
17
100
AcDbEntity
  8
COTA
 62
4
370
25
100
AcDbLine
 10
6218.941660087129
 20
5993.791919861876
 30
0.0
 11
6267.477287163827
 21
5993.791919861876
 31
0.0
  0
LINE
  5
1F1
330
17
100
AcDbEntity
  8
COTA
 62
4
370
25
100
AcDbLine
 10
6218.941660087125
 20
5934.791919861876
 30
0.0
 11
6267.477287163827
 21
5934.791919861876
 31
0.0
  0
LINE
  5
1F2
330
17
100
AcDbEntity
  8
COTA
 62
4
370
25
100
AcDbLine
 10
6264.477287163828
 20
5993.791919861876
 30
0.0
 11
6264.477287163828
 21
5934.791919861876
 31
0.0
  0
LINE
  5
1F3
330
17
100
AcDbEntity
  8
COTA
 62
0
370
25
100
AcDbLine
 10
6265.977287163828
 20
5992.291919861876
 30
0.0
 11
6262.977287163828
 21
5995.291919861876
 31
0.0
  0
LINE
  5
1F4
330
17
100
AcDbEntity
  8
COTA
 62
0
370
25
100
AcDbLine
 10
6262.977287163828
 20
5936.291919861876
 30
0.0
 11
6265.977287163828
 21
5933.291919861876
 31
0.0
  0
LINE
  5
1F5
330
17
100
AcDbEntity
  8
COTA
 62
4
370
25
100
AcDbLine
 10
6416.331113741327
 20
5788.803852608928
 30
0.0
 11
6440.779882810197
 21
5788.803852608928
 31
0.0
  0
LINE
  5
1F6
330
17
100
AcDbEntity
  8
COTA
 62
4
370
25
100
AcDbLine
 10
6416.331113741327
 20
5748.803852608928
 30
0.0
 11
6440.779882810197
 21
5748.803852608928
 31
0.0
  0
LINE
  5
1F7
330
17
100
AcDbEntity
  8
COTA
 62
4
370
25
100
AcDbLine
 10
6437.779882810197
 20
5788.803852608928
 30
0.0
 11
6437.779882810197
 21
5748.803852608928
 31
0.0
  0
LINE
  5
1F8
330
17
100
AcDbEntity
  8
COTA
 62
0
370
25
100
AcDbLine
 10
6439.279882810197
 20
5787.303852608928
 30
0.0
 11
6436.279882810197
 21
5790.303852608928
 31
0.0
  0
LINE
  5
1F9
330
17
100
AcDbEntity
  8
COTA
 62
0
370
25
100
AcDbLine
 10
6436.279882810197
 20
5750.303852608928
 30
0.0
 11
6439.279882810197
 21
5747.303852608928
 31
0.0
  0
LINE
  5
1FA
330
17
100
AcDbEntity
  8
COTA
 62
4
370
25
100
AcDbLine
 10
6416.331113741332
 20
5788.803852608928
 30
0.0
 11
6440.779882810125
 21
5788.803852608928
 31
0.0
  0
LINE
  5
1FB
330
17
100
AcDbEntity
  8
COTA
 62
4
370
25
100
AcDbLine
 10
6416.331113741332
 20
5800.803852608929
 30
0.0
 11
6440.779882810125
 21
5800.803852608929
 31
0.0
  0
LINE
  5
1FC
330
17
100
AcDbEntity
  8
COTA
 62
4
370
25
100
AcDbLine
 10
6437.779882810125
 20
5788.803852608928
 30
0.0
 11
6437.779882810125
 21
5800.803852608929
 31
0.0
  0
LINE
  5
1FD
330
17
100
AcDbEntity
  8
COTA
 62
0
370
25
100
AcDbLine
 10
6436.279882810125
 20
5790.303852608928
 30
0.0
 11
6439.279882810125
 21
5787.303852608928
 31
0.0
  0
LINE
  5
1FE
330
17
100
AcDbEntity
  8
COTA
 62
0
370
25
100
AcDbLine
 10
6439.279882810125
 20
5799.303852608929
 30
0.0
 11
6436.279882810125
 21
5802.303852608929
 31
0.0
  0
LINE
  5
1FF
330
17
100
AcDbEntity
  8
COTA
 62
4
370
25
100
AcDbLine
 10
6416.331113741332
 20
5800.803852608929
 30
0.0
 11
6440.779882810204
 21
5800.803852608929
 31
0.0
  0
LINE
  5
200
330
17
100
AcDbEntity
  8
COTA
 62
4
370
25
100
AcDbLine
 10
6416.331113741332
 20
5807.803852608929
 30
0.0
 11
6440.779882810204
 21
5807.803852608929
 31
0.0
  0
LINE
  5
201
330
17
100
AcDbEntity
  8
COTA
 62
4
370
25
100
AcDbLine
 10
6437.779882810204
 20
5800.803852608929
 30
0.0
 11
6437.779882810204
 21
5807.803852608929
 31
0.0
  0
LINE
  5
202
330
17
100
AcDbEntity
  8
COTA
 62
4
370
25
100
AcDbLine
 10
6437.779882810204
 20
5807.803852608929
 30
0.0
 11
6437.779882810204
 21
5822.534846760976
 31
0.0
  0
LINE
  5
203
330
17
100
AcDbEntity
  8
COTA
 62
0
370
25
100
AcDbLine
 10
6436.279882810204
 20
5802.303852608929
 30
0.0
 11
6439.279882810204
 21
5799.303852608929
 31
0.0
  0
LINE
  5
204
330
17
100
AcDbEntity
  8
COTA
 62
0
370
25
100
AcDbLine
 10
6439.279882810204
 20
5806.303852608929
 30
0.0
 11
6436.279882810204
 21
5809.303852608929
 31
0.0
  0
LINE
  5
205
330
17
100
AcDbEntity
  8
COTA
 62
4
370
25
100
AcDbLine
 10
6416.331113741332
 20
5807.803852608929
 30
0.0
 11
6464.86674081805
 21
5807.803852608929
 31
0.0
  0
LINE
  5
206
330
17
100
AcDbEntity
  8
COTA
 62
4
370
25
100
AcDbLine
 10
6416.331113741327
 20
5748.803852608928
 30
0.0
 11
6464.86674081805
 21
5748.803852608928
 31
0.0
  0
LINE
  5
207
330
17
100
AcDbEntity
  8
COTA
 62
4
370
25
100
AcDbLine
 10
6461.86674081805
 20
5807.803852608929
 30
0.0
 11
6461.86674081805
 21
5748.803852608928
 31
0.0
  0
LINE
  5
208
330
17
100
AcDbEntity
  8
COTA
 62
0
370
25
100
AcDbLine
 10
6463.36674081805
 20
5806.303852608929
 30
0.0
 11
6460.36674081805
 21
5809.303852608929
 31
0.0
  0
LINE
  5
209
330
17
100
AcDbEntity
  8
COTA
 62
0
370
25
100
AcDbLine
 10
6460.36674081805
 20
5750.303852608928
 30
0.0
 11
6463.36674081805
 21
5747.303852608928
 31
0.0
  0
LINE
  5
20A
330
17
100
AcDbEntity
  8
COTA
 62
4
370
25
100
AcDbLine
 10
6413.2007132921
 20
5587.436936395114
 30
0.0
 11
6437.649482360973
 21
5587.436936395114
 31
0.0
  0
LINE
  5
20B
330
17
100
AcDbEntity
  8
COTA
 62
4
370
25
100
AcDbLine
 10
6413.2007132921
 20
5547.436936395115
 30
0.0
 11
6437.649482360973
 21
5547.436936395115
 31
0.0
  0
LINE
  5
20C
330
17
100
AcDbEntity
  8
COTA
 62
4
370
25
100
AcDbLine
 10
6434.649482360973
 20
5587.436936395114
 30
0.0
 11
6434.649482360973
 21
5547.436936395115
 31
0.0
  0
LINE
  5
20D
330
17
100
AcDbEntity
  8
COTA
 62
0
370
25
100
AcDbLine
 10
6436.149482360973
 20
5585.936936395114
 30
0.0
 11
6433.149482360973
 21
5588.936936395114
 31
0.0
  0
LINE
  5
20E
330
17
100
AcDbEntity
  8
COTA
 62
0
370
25
100
AcDbLine
 10
6433.149482360973
 20
5548.936936395115
 30
0.0
 11
6436.149482360973
 21
5545.936936395115
 31
0.0
  0
LINE
  5
20F
330
17
100
AcDbEntity
  8
COTA
 62
4
370
25
100
AcDbLine
 10
6413.200713292105
 20
5587.436936395114
 30
0.0
 11
6437.649482360898
 21
5587.436936395114
 31
0.0
  0
LINE
  5
210
330
17
100
AcDbEntity
  8
COTA
 62
4
370
25
100
AcDbLine
 10
6413.200713292105
 20
5599.436936395115
 30
0.0
 11
6437.649482360898
 21
5599.436936395115
 31
0.0
  0
LINE
  5
211
330
17
100
AcDbEntity
  8
COTA
 62
4
370
25
100
AcDbLine
 10
6434.649482360898
 20
5587.436936395114
 30
0.0
 11
6434.649482360898
 21
5599.436936395115
 31
0.0
  0
LINE
  5
212
330
17
100
AcDbEntity
  8
COTA
 62
0
370
25
100
AcDbLine
 10
6433.149482360898
 20
5588.936936395114
 30
0.0
 11
6436.149482360898
 21
5585.936936395114
 31
0.0
  0
LINE
  5
213
330
17
100
AcDbEntity
  8
COTA
 62
0
370
25
100
AcDbLine
 10
6436.149482360898
 20
5597.936936395115
 30
0.0
 11
6433.149482360898
 21
5600.936936395115
 31
0.0
  0
LINE
  5
214
330
17
100
AcDbEntity
  8
COTA
 62
4
370
25
100
AcDbLine
 10
6413.200713292105
 20
5599.436936395115
 30
0.0
 11
6437.649482360981
 21
5599.436936395115
 31
0.0
  0
LINE
  5
215
330
17
100
AcDbEntity
  8
COTA
 62
4
370
25
100
AcDbLine
 10
6413.200713292105
 20
5606.436936395114
 30
0.0
 11
6437.649482360981
 21
5606.436936395114
 31
0.0
  0
LINE
  5
216
330
17
100
AcDbEntity
  8
COTA
 62
4
370
25
100
AcDbLine
 10
6434.649482360981
 20
5599.436936395115
 30
0.0
 11
6434.649482360981
 21
5606.436936395114
 31
0.0
  0
LINE
  5
217
330
17
100
AcDbEntity
  8
COTA
 62
4
370
25
100
AcDbLine
 10
6434.649482360981
 20
5606.436936395114
 30
0.0
 11
6434.649482360981
 21
5621.167930547162
 31
0.0
  0
LINE
  5
218
330
17
100
AcDbEntity
  8
COTA
 62
0
370
25
100
AcDbLine
 10
6433.149482360981
 20
5600.936936395115
 30
0.0
 11
6436.149482360981
 21
5597.936936395115
 31
0.0
  0
LINE
  5
219
330
17
100
AcDbEntity
  8
COTA
 62
0
370
25
100
AcDbLine
 10
6436.149482360981
 20
5604.936936395114
 30
0.0
 11
6433.149482360981
 21
5607.936936395114
 31
0.0
  0
LINE
  5
21A
330
17
100
AcDbEntity
  8
COTA
 62
4
370
25
100
AcDbLine
 10
6413.200713292105
 20
5606.436936395114
 30
0.0
 11
6461.736340368827
 21
5606.436936395114
 31
0.0
  0
LINE
  5
21B
330
17
100
AcDbEntity
  8
COTA
 62
4
370
25
100
AcDbLine
 10
6413.2007132921
 20
5547.436936395115
 30
0.0
 11
6461.736340368827
 21
5547.436936395115
 31
0.0
  0
LINE
  5
21C
330
17
100
AcDbEntity
  8
COTA
 62
4
370
25
100
AcDbLine
 10
6458.736340368827
 20
5606.436936395114
 30
0.0
 11
6458.736340368827
 21
5547.436936395115
 31
0.0
  0
LINE
  5
21D
330
17
100
AcDbEntity
  8
COTA
 62
0
370
25
100
AcDbLine
 10
6460.236340368827
 20
5604.936936395114
 30
0.0
 11
6457.236340368827
 21
5607.936936395114
 31
0.0
  0
LINE
  5
21E
330
17
100
AcDbEntity
  8
COTA
 62
0
370
25
100
AcDbLine
 10
6457.236340368827
 20
5548.936936395115
 30
0.0
 11
6460.236340368827
 21
5545.936936395115
 31
0.0
  0
LINE
  5
21F
330
17
100
AcDbEntity
  8
COTA
 62
4
370
25
100
AcDbLine
 10
5682.737227992313
 20
5357.368880247314
 30
0.0
 11
5682.737227992313
 21
5330.828954269159
 31
0.0
  0
LINE
  5
220
330
17
100
AcDbEntity
  8
COTA
 62
4
370
25
100
AcDbLine
 10
5926.737227992313
 20
5357.368880247343
 30
0.0
 11
5926.737227992313
 21
5330.828954269159
 31
0.0
  0
LINE
  5
221
330
17
100
AcDbEntity
  8
COTA
 62
4
370
25
100
AcDbLine
 10
5682.737227992313
 20
5333.828954269159
 30
0.0
 11
5926.737227992313
 21
5333.828954269159
 31
0.0
  0
LINE
  5
222
330
17
100
AcDbEntity
  8
COTA
 62
0
370
25
100
AcDbLine
 10
5684.237227992313
 20
5335.328954269159
 30
0.0
 11
5681.237227992313
 21
5332.328954269159
 31
0.0
  0
LINE
  5
223
330
17
100
AcDbEntity
  8
COTA
 62
0
370
25
100
AcDbLine
 10
5925.237227992313
 20
5332.328954269159
 30
0.0
 11
5928.237227992313
 21
5335.328954269159
 31
0.0
  0
LINE
  5
224
330
17
100
AcDbEntity
  8
COTA
 62
4
370
25
100
AcDbLine
 10
5926.737227992313
 20
5357.368880247343
 30
0.0
 11
5926.737227992313
 21
5330.82895426917
 31
0.0
  0
LINE
  5
225
330
17
100
AcDbEntity
  8
COTA
 62
4
370
25
100
AcDbLine
 10
6100.737227992313
 20
5357.36888024734
 30
0.0
 11
6100.737227992313
 21
5330.82895426917
 31
0.0
  0
LINE
  5
226
330
17
100
AcDbEntity
  8
COTA
 62
4
370
25
100
AcDbLine
 10
5926.737227992313
 20
5333.82895426917
 30
0.0
 11
6100.737227992313
 21
5333.82895426917
 31
0.0
  0
LINE
  5
227
330
17
100
AcDbEntity
  8
COTA
 62
0
370
25
100
AcDbLine
 10
5928.237227992313
 20
5335.32895426917
 30
0.0
 11
5925.237227992313
 21
5332.32895426917
 31
0.0
  0
LINE
  5
228
330
17
100
AcDbEntity
  8
COTA
 62
0
370
25
100
AcDbLine
 10
6099.237227992313
 20
5332.32895426917
 30
0.0
 11
6102.237227992313
 21
5335.32895426917
 31
0.0
  0
LINE
  5
229
330
17
100
AcDbEntity
  8
COTA
 62
4
370
25
100
AcDbLine
 10
5682.737227992313
 20
5357.368880247314
 30
0.0
 11
5682.737227992313
 21
5297.290443580436
 31
0.0
  0
LINE
  5
22A
330
17
100
AcDbEntity
  8
COTA
 62
4
370
25
100
AcDbLine
 10
6100.737227992313
 20
5357.36888024734
 30
0.0
 11
6100.737227992313
 21
5297.290443580436
 31
0.0
  0
LINE
  5
22B
330
17
100
AcDbEntity
  8
COTA
 62
4
370
25
100
AcDbLine
 10
6103.737227992322
 20
5404.368880247342
 30
0.0
 11
6125.095497012258
 21
5404.368880247342
 31
0.0
  0
LINE
  5
22C
330
17
100
AcDbEntity
  8
COTA
 62
4
370
25
100
AcDbLine
 10
6103.737227992315
 20
5360.368880247341
 30
0.0
 11
6125.095497012258
 21
5360.368880247341
 31
0.0
  0
LINE
  5
22D
330
17
100
AcDbEntity
  8
COTA
 62
4
370
25
100
AcDbLine
 10
6122.095497012258
 20
5404.368880247342
 30
0.0
 11
6122.095497012258
 21
5360.368880247341
 31
0.0
  0
LINE
  5
22E
330
17
100
AcDbEntity
  8
COTA
 62
0
370
25
100
AcDbLine
 10
6123.595497012258
 20
5402.868880247342
 30
0.0
 11
6120.595497012258
 21
5405.868880247342
 31
0.0
  0
LINE
  5
22F
330
17
100
AcDbEntity
  8
COTA
 62
0
370
25
100
AcDbLine
 10
6120.595497012258
 20
5361.868880247341
 30
0.0
 11
6123.595497012258
 21
5358.868880247341
 31
0.0
  0
LINE
  5
230
330
17
100
AcDbEntity
  8
COTA
 62
4
370
25
100
AcDbLine
 10
6103.737227992322
 20
5404.368880247342
 30
0.0
 11
6125.095497012144
 21
5404.368880247342
 31
0.0
  0
LINE
  5
231
330
17
100
AcDbEntity
  8
COTA
 62
4
370
25
100
AcDbLine
 10
6103.737227992322
 20
5419.368880247342
 30
0.0
 11
6125.095497012144
 21
5419.368880247342
 31
0.0
  0
LINE
  5
232
330
17
100
AcDbEntity
  8
COTA
 62
4
370
25
100
AcDbLine
 10
6122.095497012144
 20
5404.368880247342
 30
0.0
 11
6122.095497012144
 21
5419.368880247342
 31
0.0
  0
LINE
  5
233
330
17
100
AcDbEntity
  8
COTA
 62
0
370
25
100
AcDbLine
 10
6120.595497012144
 20
5405.868880247342
 30
0.0
 11
6123.595497012144
 21
5402.868880247342
 31
0.0
  0
LINE
  5
234
330
17
100
AcDbEntity
  8
COTA
 62
0
370
25
100
AcDbLine
 10
6123.595497012144
 20
5417.868880247342
 30
0.0
 11
6120.595497012144
 21
5420.868880247342
 31
0.0
  0
LINE
  5
235
330
17
100
AcDbEntity
  8
COTA
 62
4
370
25
100
AcDbLine
 10
6103.737227992322
 20
5419.368880247342
 30
0.0
 11
6151.089535463199
 21
5419.368880247342
 31
0.0
  0
LINE
  5
236
330
17
100
AcDbEntity
  8
COTA
 62
4
370
25
100
AcDbLine
 10
6103.737227992318
 20
5360.368880247341
 30
0.0
 11
6151.089535463199
 21
5360.368880247342
 31
0.0
  0
LINE
  5
237
330
17
100
AcDbEntity
  8
COTA
 62
4
370
25
100
AcDbLine
 10
6148.089535463199
 20
5419.368880247342
 30
0.0
 11
6148.089535463199
 21
5360.368880247342
 31
0.0
  0
LINE
  5
238
330
17
100
AcDbEntity
  8
COTA
 62
0
370
25
100
AcDbLine
 10
6149.589535463199
 20
5417.868880247342
 30
0.0
 11
6146.589535463199
 21
5420.868880247342
 31
0.0
  0
LINE
  5
239
330
17
100
AcDbEntity
  8
COTA
 62
0
370
25
100
AcDbLine
 10
6146.589535463199
 20
5361.868880247342
 30
0.0
 11
6149.589535463199
 21
5358.868880247342
 31
0.0
  0
LINE
  5
23A
330
17
100
AcDbEntity
  8
COTA
 62
4
370
25
100
AcDbLine
 10
5227.519459888025
 20
5352.368880247315
 30
0.0
 11
5227.519459888025
 21
5325.828954269159
 31
0.0
  0
LINE
  5
23B
330
17
100
AcDbEntity
  8
COTA
 62
4
370
25
100
AcDbLine
 10
5471.519459888025
 20
5352.368880247343
 30
0.0
 11
5471.519459888025
 21
5325.828954269159
 31
0.0
  0
LINE
  5
23C
330
17
100
AcDbEntity
  8
COTA
 62
4
370
25
100
AcDbLine
 10
5227.519459888025
 20
5328.828954269159
 30
0.0
 11
5471.519459888025
 21
5328.828954269159
 31
0.0
  0
LINE
  5
23D
330
17
100
AcDbEntity
  8
COTA
 62
0
370
25
100
AcDbLine
 10
5229.019459888025
 20
5330.328954269159
 30
0.0
 11
5226.019459888025
 21
5327.328954269159
 31
0.0
  0
LINE
  5
23E
330
17
100
AcDbEntity
  8
COTA
 62
0
370
25
100
AcDbLine
 10
5470.019459888025
 20
5327.328954269159
 30
0.0
 11
5473.019459888025
 21
5330.328954269159
 31
0.0
  0
LINE
  5
23F
330
17
100
AcDbEntity
  8
COTA
 62
4
370
25
100
AcDbLine
 10
5471.519459888025
 20
5352.368880247343
 30
0.0
 11
5471.519459888025
 21
5325.828954269169
 31
0.0
  0
LINE
  5
240
330
17
100
AcDbEntity
  8
COTA
 62
4
370
25
100
AcDbLine
 10
5645.519459888024
 20
5352.36888024734
 30
0.0
 11
5645.519459888024
 21
5325.828954269169
 31
0.0
  0
LINE
  5
241
330
17
100
AcDbEntity
  8
COTA
 62
4
370
25
100
AcDbLine
 10
5471.519459888025
 20
5328.82895426917
 30
0.0
 11
5645.519459888024
 21
5328.82895426917
 31
0.0
  0
LINE
  5
242
330
17
100
AcDbEntity
  8
COTA
 62
0
370
25
100
AcDbLine
 10
5473.019459888025
 20
5330.32895426917
 30
0.0
 11
5470.019459888025
 21
5327.32895426917
 31
0.0
  0
LINE
  5
243
330
17
100
AcDbEntity
  8
COTA
 62
0
370
25
100
AcDbLine
 10
5644.019459888024
 20
5327.32895426917
 30
0.0
 11
5647.019459888024
 21
5330.32895426917
 31
0.0
  0
LINE
  5
244
330
17
100
AcDbEntity
  8
COTA
 62
4
370
25
100
AcDbLine
 10
5227.519459888025
 20
5352.368880247315
 30
0.0
 11
5227.519459888025
 21
5297.290443580436
 31
0.0
  0
LINE
  5
245
330
17
100
AcDbEntity
  8
COTA
 62
4
370
25
100
AcDbLine
 10
5645.519459888024
 20
5352.36888024734
 30
0.0
 11
5645.519459888024
 21
5297.290443580436
 31
0.0
  0
LINE
  5
246
330
17
100
AcDbEntity
  8
COTA
 62
4
370
25
100
AcDbLine
 10
5224.519459888022
 20
5399.368880247316
 30
0.0
 11
5213.578956300242
 21
5399.368880247316
 31
0.0
  0
LINE
  5
247
330
17
100
AcDbEntity
  8
COTA
 62
4
370
25
100
AcDbLine
 10
5224.519459888022
 20
5414.368880247316
 30
0.0
 11
5213.578956300242
 21
5414.368880247316
 31
0.0
  0
LINE
  5
248
330
17
100
AcDbEntity
  8
COTA
 62
4
370
25
100
AcDbLine
 10
5216.578956300242
 20
5399.368880247316
 30
0.0
 11
5216.578956300242
 21
5414.368880247316
 31
0.0
  0
LINE
  5
249
330
17
100
AcDbEntity
  8
COTA
 62
4
370
25
100
AcDbLine
 10
5216.578956300242
 20
5414.368880247316
 30
0.0
 11
5216.578956300242
 21
5432.740225276556
 31
0.0
  0
LINE
  5
24A
330
17
100
AcDbEntity
  8
COTA
 62
0
370
25
100
AcDbLine
 10
5215.078956300242
 20
5400.868880247316
 30
0.0
 11
5218.078956300242
 21
5397.868880247316
 31
0.0
  0
LINE
  5
24B
330
17
100
AcDbEntity
  8
COTA
 62
0
370
25
100
AcDbLine
 10
5218.078956300242
 20
5412.868880247316
 30
0.0
 11
5215.078956300242
 21
5415.868880247316
 31
0.0
  0
LINE
  5
24C
330
17
100
AcDbEntity
  8
COTA
 62
4
370
25
100
AcDbLine
 10
5224.519459888026
 20
5399.368880247316
 30
0.0
 11
5213.578956300249
 21
5399.368880247316
 31
0.0
  0
LINE
  5
24D
330
17
100
AcDbEntity
  8
COTA
 62
4
370
25
100
AcDbLine
 10
5224.519459888026
 20
5355.368880247316
 30
0.0
 11
5213.578956300249
 21
5355.368880247316
 31
0.0
  0
LINE
  5
24E
330
17
100
AcDbEntity
  8
COTA
 62
4
370
25
100
AcDbLine
 10
5216.578956300249
 20
5399.368880247316
 30
0.0
 11
5216.578956300249
 21
5355.368880247316
 31
0.0
  0
LINE
  5
24F
330
17
100
AcDbEntity
  8
COTA
 62
0
370
25
100
AcDbLine
 10
5218.078956300249
 20
5397.868880247316
 30
0.0
 11
5215.078956300249
 21
5400.868880247316
 31
0.0
  0
LINE
  5
250
330
17
100
AcDbEntity
  8
COTA
 62
0
370
25
100
AcDbLine
 10
5215.078956300249
 20
5356.868880247316
 30
0.0
 11
5218.078956300249
 21
5353.868880247316
 31
0.0
  0
LINE
  5
251
330
17
100
AcDbEntity
  8
COTA
 62
4
370
25
100
AcDbLine
 10
5224.519459888022
 20
5414.368880247316
 30
0.0
 11
5190.447481483021
 21
5414.368880247316
 31
0.0
  0
LINE
  5
252
330
17
100
AcDbEntity
  8
COTA
 62
4
370
25
100
AcDbLine
 10
5224.519459888026
 20
5355.368880247316
 30
0.0
 11
5190.447481483021
 21
5355.368880247316
 31
0.0
  0
LINE
  5
253
330
17
100
AcDbEntity
  8
COTA
 62
4
370
25
100
AcDbLine
 10
5193.447481483021
 20
5414.368880247316
 30
0.0
 11
5193.447481483021
 21
5355.368880247316
 31
0.0
  0
LINE
  5
254
330
17
100
AcDbEntity
  8
COTA
 62
0
370
25
100
AcDbLine
 10
5194.947481483021
 20
5412.868880247316
 30
0.0
 11
5191.947481483021
 21
5415.868880247316
 31
0.0
  0
LINE
  5
255
330
17
100
AcDbEntity
  8
COTA
 62
0
370
25
100
AcDbLine
 10
5191.947481483021
 20
5356.868880247316
 30
0.0
 11
5194.947481483021
 21
5353.868880247316
 31
0.0
  0
LINE
  5
256
330
17
100
AcDbEntity
  8
COTA
 62
4
370
25
100
AcDbLine
 10
5682.737227992313
 20
5357.368880247314
 30
0.0
 11
5682.737227992313
 21
5271.184677231599
 31
0.0
  0
LINE
  5
257
330
17
100
AcDbEntity
  8
COTA
 62
4
370
25
100
AcDbLine
 10
6100.737227992313
 20
5357.368880247317
 30
0.0
 11
6100.737227992313
 21
5271.184677231599
 31
0.0
  0
LINE
  5
258
330
17
100
AcDbEntity
  8
COTA
 62
4
370
25
100
AcDbLine
 10
6410.922696068714
 20
5357.368880247287
 30
0.0
 11
6410.922696068714
 21
5330.828954269132
 31
0.0
  0
LINE
  5
259
330
17
100
AcDbEntity
  8
COTA
 62
4
370
25
100
AcDbLine
 10
6288.922696068714
 20
5357.368880247316
 30
0.0
 11
6288.922696068714
 21
5330.828954269132
 31
0.0
  0
LINE
  5
25A
330
17
100
AcDbEntity
  8
COTA
 62
4
370
25
100
AcDbLine
 10
6410.922696068714
 20
5333.828954269132
 30
0.0
 11
6288.922696068714
 21
5333.828954269132
 31
0.0
  0
LINE
  5
25B
330
17
100
AcDbEntity
  8
COTA
 62
0
370
25
100
AcDbLine
 10
6409.422696068714
 20
5332.328954269132
 30
0.0
 11
6412.422696068714
 21
5335.328954269132
 31
0.0
  0
LINE
  5
25C
330
17
100
AcDbEntity
  8
COTA
 62
0
370
25
100
AcDbLine
 10
6290.422696068714
 20
5335.328954269132
 30
0.0
 11
6287.422696068714
 21
5332.328954269132
 31
0.0
  0
LINE
  5
25D
330
17
100
AcDbEntity
  8
COTA
 62
4
370
25
100
AcDbLine
 10
6288.922696068714
 20
5357.368880247316
 30
0.0
 11
6288.922696068714
 21
5330.828954269143
 31
0.0
  0
LINE
  5
25E
330
17
100
AcDbEntity
  8
COTA
 62
4
370
25
100
AcDbLine
 10
6164.422696068714
 20
5357.368880247313
 30
0.0
 11
6164.422696068714
 21
5330.828954269143
 31
0.0
  0
LINE
  5
25F
330
17
100
AcDbEntity
  8
COTA
 62
4
370
25
100
AcDbLine
 10
6288.922696068714
 20
5333.828954269143
 30
0.0
 11
6164.422696068714
 21
5333.828954269143
 31
0.0
  0
LINE
  5
260
330
17
100
AcDbEntity
  8
COTA
 62
0
370
25
100
AcDbLine
 10
6287.422696068714
 20
5332.328954269143
 30
0.0
 11
6290.422696068714
 21
5335.328954269143
 31
0.0
  0
LINE
  5
261
330
17
100
AcDbEntity
  8
COTA
 62
0
370
25
100
AcDbLine
 10
6165.922696068714
 20
5335.328954269143
 30
0.0
 11
6162.922696068714
 21
5332.328954269143
 31
0.0
  0
LINE
  5
262
330
17
100
AcDbEntity
  8
COTA
 62
4
370
25
100
AcDbLine
 10
6410.922696068714
 20
5357.368880247287
 30
0.0
 11
6410.922696068714
 21
5297.29044358041
 31
0.0
  0
LINE
  5
263
330
17
100
AcDbEntity
  8
COTA
 62
4
370
25
100
AcDbLine
 10
6164.422696068714
 20
5357.368880247313
 30
0.0
 11
6164.422696068714
 21
5297.29044358041
 31
0.0
  0
LINE
  5
264
330
17
100
AcDbEntity
  8
COTA
 62
4
370
25
100
AcDbLine
 10
6413.922696068718
 20
5403.368880247314
 30
0.0
 11
6441.869225646176
 21
5403.368880247314
 31
0.0
  0
LINE
  5
265
330
17
100
AcDbEntity
  8
COTA
 62
4
370
25
100
AcDbLine
 10
6413.922696068718
 20
5360.368880247314
 30
0.0
 11
6441.869225646176
 21
5360.368880247314
 31
0.0
  0
LINE
  5
266
330
17
100
AcDbEntity
  8
COTA
 62
4
370
25
100
AcDbLine
 10
6438.869225646175
 20
5403.368880247314
 30
0.0
 11
6438.869225646175
 21
5360.368880247314
 31
0.0
  0
LINE
  5
267
330
17
100
AcDbEntity
  8
COTA
 62
0
370
25
100
AcDbLine
 10
6440.369225646175
 20
5401.868880247314
 30
0.0
 11
6437.369225646175
 21
5404.868880247314
 31
0.0
  0
LINE
  5
268
330
17
100
AcDbEntity
  8
COTA
 62
0
370
25
100
AcDbLine
 10
6437.369225646175
 20
5361.868880247314
 30
0.0
 11
6440.369225646175
 21
5358.868880247314
 31
0.0
  0
LINE
  5
269
330
17
100
AcDbEntity
  8
COTA
 62
4
370
25
100
AcDbLine
 10
6413.922696068718
 20
5403.368880247314
 30
0.0
 11
6441.869225646114
 21
5403.368880247314
 31
0.0
  0
LINE
  5
26A
330
17
100
AcDbEntity
  8
COTA
 62
4
370
25
100
AcDbLine
 10
6413.922696068718
 20
5419.368880247315
 30
0.0
 11
6441.869225646114
 21
5419.368880247315
 31
0.0
  0
LINE
  5
26B
330
17
100
AcDbEntity
  8
COTA
 62
4
370
25
100
AcDbLine
 10
6438.869225646114
 20
5403.368880247314
 30
0.0
 11
6438.869225646114
 21
5419.368880247315
 31
0.0
  0
LINE
  5
26C
330
17
100
AcDbEntity
  8
COTA
 62
0
370
25
100
AcDbLine
 10
6437.369225646114
 20
5404.868880247314
 30
0.0
 11
6440.369225646114
 21
5401.868880247314
 31
0.0
  0
LINE
  5
26D
330
17
100
AcDbEntity
  8
COTA
 62
0
370
25
100
AcDbLine
 10
6440.369225646114
 20
5417.868880247315
 30
0.0
 11
6437.369225646114
 21
5420.868880247315
 31
0.0
  0
LINE
  5
26E
330
17
100
AcDbEntity
  8
COTA
 62
4
370
25
100
AcDbLine
 10
6413.922696068725
 20
5419.368880247289
 30
0.0
 11
6467.801299784357
 21
5419.368880247289
 31
0.0
  0
LINE
  5
26F
330
17
100
AcDbEntity
  8
COTA
 62
4
370
25
100
AcDbLine
 10
6413.922696068728
 20
5360.368880247314
 30
0.0
 11
6467.801299784357
 21
5360.368880247314
 31
0.0
  0
LINE
  5
270
330
17
100
AcDbEntity
  8
COTA
 62
4
370
25
100
AcDbLine
 10
6464.801299784356
 20
5419.368880247289
 30
0.0
 11
6464.801299784356
 21
5360.368880247314
 31
0.0
  0
LINE
  5
271
330
17
100
AcDbEntity
  8
COTA
 62
0
370
25
100
AcDbLine
 10
6466.301299784356
 20
5417.868880247289
 30
0.0
 11
6463.301299784356
 21
5420.868880247289
 31
0.0
  0
LINE
  5
272
330
17
100
AcDbEntity
  8
COTA
 62
0
370
25
100
AcDbLine
 10
6463.301299784356
 20
5361.868880247314
 30
0.0
 11
6466.301299784356
 21
5358.868880247314
 31
0.0
  0
LINE
  5
273
330
17
100
AcDbEntity
  8
COTA
 62
4
370
25
100
AcDbLine
 10
5287.935032065586
 20
5553.659438688609
 30
0.0
 11
5315.176493177046
 21
5553.659438688609
 31
0.0
  0
LINE
  5
274
330
17
100
AcDbEntity
  8
COTA
 62
4
370
25
100
AcDbLine
 10
5287.935032065586
 20
5515.659438688607
 30
0.0
 11
5315.176493177046
 21
5515.659438688607
 31
0.0
  0
LINE
  5
275
330
17
100
AcDbEntity
  8
COTA
 62
4
370
25
100
AcDbLine
 10
5310.176493177046
 20
5558.659438688609
 30
0.0
 11
5310.176493177046
 21
5510.659438688607
 31
0.0
  0
LINE
  5
276
330
17
100
AcDbEntity
  8
COTA
 62
4
370
25
100
AcDbLine
 10
5282.935032065585
 20
5510.659438688605
 30
0.0
 11
5282.935032065585
 21
5498.471573114747
 31
0.0
  0
LINE
  5
277
330
17
100
AcDbEntity
  8
COTA
 62
4
370
25
100
AcDbLine
 10
5277.935032065585
 20
5510.659438688605
 30
0.0
 11
5277.935032065585
 21
5498.471573114747
 31
0.0
  0
LINE
  5
278
330
17
100
AcDbEntity
  8
COTA
 62
4
370
25
100
AcDbLine
 10
5282.935032065585
 20
5503.471573114747
 30
0.0
 11
5286.935032065585
 21
5503.471573114747
 31
0.0
  0
LINE
  5
279
330
17
100
AcDbEntity
  8
COTA
 62
4
370
25
100
AcDbLine
 10
5277.935032065585
 20
5503.471573114747
 30
0.0
 11
5245.077889208442
 21
5503.471573114747
 31
0.0
  0
LINE
  5
27A
330
17
100
AcDbEntity
  8
COTA
 62
4
370
25
100
AcDbLine
 10
5282.935032065585
 20
5503.471573114747
 30
0.0
 11
5277.935032065585
 21
5503.471573114747
 31
0.0
  0
LINE
  5
27B
330
17
100
AcDbEntity
  8
COTA
 62
4
370
25
100
AcDbLine
 10
5487.578870803749
 20
5544.436936394998
 30
0.0
 11
5487.578870803749
 21
5517.897010416842
 31
0.0
  0
LINE
  5
27C
330
17
100
AcDbEntity
  8
COTA
 62
4
370
25
100
AcDbLine
 10
5733.578870803749
 20
5544.436936395027
 30
0.0
 11
5733.578870803749
 21
5517.897010416842
 31
0.0
  0
LINE
  5
27D
330
17
100
AcDbEntity
  8
COTA
 62
4
370
25
100
AcDbLine
 10
5487.578870803749
 20
5520.897010416843
 30
0.0
 11
5733.578870803749
 21
5520.897010416843
 31
0.0
  0
LINE
  5
27E
330
17
100
AcDbEntity
  8
COTA
 62
0
370
25
100
AcDbLine
 10
5489.078870803749
 20
5522.397010416843
 30
0.0
 11
5486.078870803749
 21
5519.397010416843
 31
0.0
  0
LINE
  5
27F
330
17
100
AcDbEntity
  8
COTA
 62
0
370
25
100
AcDbLine
 10
5732.078870803749
 20
5519.397010416843
 30
0.0
 11
5735.078870803749
 21
5522.397010416843
 31
0.0
  0
LINE
  5
280
330
17
100
AcDbEntity
  8
COTA
 62
4
370
25
100
AcDbLine
 10
5733.578870803749
 20
5544.436936395027
 30
0.0
 11
5733.578870803749
 21
5517.897010416854
 31
0.0
  0
LINE
  5
281
330
17
100
AcDbEntity
  8
COTA
 62
4
370
25
100
AcDbLine
 10
5905.578870803749
 20
5544.436936395023
 30
0.0
 11
5905.578870803749
 21
5517.897010416854
 31
0.0
  0
LINE
  5
282
330
17
100
AcDbEntity
  8
COTA
 62
4
370
25
100
AcDbLine
 10
5733.578870803749
 20
5520.897010416854
 30
0.0
 11
5905.578870803749
 21
5520.897010416854
 31
0.0
  0
LINE
  5
283
330
17
100
AcDbEntity
  8
COTA
 62
0
370
25
100
AcDbLine
 10
5735.078870803749
 20
5522.397010416854
 30
0.0
 11
5732.078870803749
 21
5519.397010416854
 31
0.0
  0
LINE
  5
284
330
17
100
AcDbEntity
  8
COTA
 62
0
370
25
100
AcDbLine
 10
5904.078870803749
 20
5519.397010416854
 30
0.0
 11
5907.078870803749
 21
5522.397010416854
 31
0.0
  0
LINE
  5
285
330
17
100
AcDbEntity
  8
COTA
 62
4
370
25
100
AcDbLine
 10
5487.578870803749
 20
5544.436936394998
 30
0.0
 11
5487.578870803749
 21
5490.344893266691
 31
0.0
  0
LINE
  5
286
330
17
100
AcDbEntity
  8
COTA
 62
4
370
25
100
AcDbLine
 10
5905.578870803749
 20
5544.436936395023
 30
0.0
 11
5905.578870803749
 21
5490.344893266691
 31
0.0
  0
LINE
  5
287
330
17
100
AcDbEntity
  8
COTA
 62
4
370
25
100
AcDbLine
 10
5487.578870803749
 20
5493.344893266691
 30
0.0
 11
5905.578870803749
 21
5493.344893266691
 31
0.0
  0
LINE
  5
288
330
17
100
AcDbEntity
  8
COTA
 62
0
370
25
100
AcDbLine
 10
5489.078870803749
 20
5494.844893266691
 30
0.0
 11
5486.078870803749
 21
5491.844893266691
 31
0.0
  0
LINE
  5
289
330
17
100
AcDbEntity
  8
COTA
 62
0
370
25
100
AcDbLine
 10
5904.078870803749
 20
5491.844893266691
 30
0.0
 11
5907.078870803749
 21
5494.844893266691
 31
0.0
  0
LINE
  5
28A
330
17
100
AcDbEntity
  8
COTA
 62
4
370
25
100
AcDbLine
 10
5903.578870803749
 20
5544.436936395023
 30
0.0
 11
5903.578870803749
 21
5527.772988915621
 31
0.0
  0
LINE
  5
28B
330
17
100
AcDbEntity
  8
COTA
 62
4
370
25
100
AcDbLine
 10
5905.578870803749
 20
5544.436936395023
 30
0.0
 11
5905.578870803749
 21
5527.772988915621
 31
0.0
  0
LINE
  5
28C
330
17
100
AcDbEntity
  8
COTA
 62
4
370
25
100
AcDbLine
 10
5903.578870803749
 20
5530.772988915621
 30
0.0
 11
5900.578870803749
 21
5530.772988915621
 31
0.0
  0
LINE
  5
28D
330
17
100
AcDbEntity
  8
COTA
 62
4
370
25
100
AcDbLine
 10
5905.578870803749
 20
5530.772988915621
 30
0.0
 11
5923.68998191486
 21
5530.772988915621
 31
0.0
  0
LINE
  5
28E
330
17
100
AcDbEntity
  8
COTA
 62
4
370
25
100
AcDbLine
 10
5903.578870803749
 20
5530.772988915621
 30
0.0
 11
5905.578870803749
 21
5530.772988915621
 31
0.0
  0
LINE
  5
28F
330
17
100
AcDbEntity
  8
COTA
 62
0
370
25
100
AcDbLine
 10
5902.078870803749
 20
5529.272988915621
 30
0.0
 11
5905.078870803749
 21
5532.272988915621
 31
0.0
  0
LINE
  5
290
330
17
100
AcDbEntity
  8
COTA
 62
0
370
25
100
AcDbLine
 10
5907.078870803749
 20
5532.272988915621
 30
0.0
 11
5904.078870803749
 21
5529.272988915621
 31
0.0
  0
LINE
  5
291
330
17
100
AcDbEntity
  8
COTA
 62
4
370
25
100
AcDbLine
 10
5489.578870803741
 20
5544.436936394909
 30
0.0
 11
5489.578870803741
 21
5527.772988915506
 31
0.0
  0
LINE
  5
292
330
17
100
AcDbEntity
  8
COTA
 62
4
370
25
100
AcDbLine
 10
5487.578870803742
 20
5544.436936394909
 30
0.0
 11
5487.578870803742
 21
5527.772988915506
 31
0.0
  0
LINE
  5
293
330
17
100
AcDbEntity
  8
COTA
 62
4
370
25
100
AcDbLine
 10
5489.578870803741
 20
5530.772988915506
 30
0.0
 11
5492.578870803741
 21
5530.772988915506
 31
0.0
  0
LINE
  5
294
330
17
100
AcDbEntity
  8
COTA
 62
4
370
25
100
AcDbLine
 10
5487.578870803742
 20
5530.772988915506
 30
0.0
 11
5469.46775969263
 21
5530.772988915506
 31
0.0
  0
LINE
  5
295
330
17
100
AcDbEntity
  8
COTA
 62
4
370
25
100
AcDbLine
 10
5489.578870803741
 20
5530.772988915506
 30
0.0
 11
5487.578870803742
 21
5530.772988915506
 31
0.0
  0
LINE
  5
296
330
17
100
AcDbEntity
  8
COTA
 62
0
370
25
100
AcDbLine
 10
5491.078870803741
 20
5532.272988915506
 30
0.0
 11
5488.078870803741
 21
5529.272988915506
 31
0.0
  0
LINE
  5
297
330
17
100
AcDbEntity
  8
COTA
 62
0
370
25
100
AcDbLine
 10
5486.078870803742
 20
5529.272988915506
 30
0.0
 11
5489.078870803742
 21
5532.272988915506
 31
0.0
  0
LINE
  5
298
330
17
100
AcDbEntity
  8
COTA
 62
4
370
25
100
AcDbLine
 10
5487.578870803742
 20
5609.436936394998
 30
0.0
 11
5487.578870803742
 21
5614.473796908331
 31
0.0
  0
LINE
  5
299
330
17
100
AcDbEntity
  8
COTA
 62
4
370
25
100
AcDbLine
 10
5731.607978282742
 20
5609.436936395006
 30
0.0
 11
5731.607978282742
 21
5614.473796908331
 31
0.0
  0
LINE
  5
29A
330
17
100
AcDbEntity
  8
COTA
 62
4
370
25
100
AcDbLine
 10
5487.578870803742
 20
5611.473796908331
 30
0.0
 11
5731.607978282742
 21
5611.473796908331
 31
0.0
  0
LINE
  5
29B
330
17
100
AcDbEntity
  8
COTA
 62
0
370
25
100
AcDbLine
 10
5489.078870803742
 20
5612.973796908331
 30
0.0
 11
5486.078870803742
 21
5609.973796908331
 31
0.0
  0
LINE
  5
29C
330
17
100
AcDbEntity
  8
COTA
 62
0
370
25
100
AcDbLine
 10
5730.107978282742
 20
5609.973796908331
 30
0.0
 11
5733.107978282742
 21
5612.973796908331
 31
0.0
  0
LINE
  5
29D
330
17
100
AcDbEntity
  8
COTA
 62
4
370
25
100
AcDbLine
 10
5908.578870803744
 20
5587.436936395
 30
0.0
 11
5933.027639872616
 21
5587.436936395
 31
0.0
  0
LINE
  5
29E
330
17
100
AcDbEntity
  8
COTA
 62
4
370
25
100
AcDbLine
 10
5908.57887080374
 20
5547.436936395
 30
0.0
 11
5933.027639872616
 21
5547.436936395
 31
0.0
  0
LINE
  5
29F
330
17
100
AcDbEntity
  8
COTA
 62
4
370
25
100
AcDbLine
 10
5930.027639872617
 20
5587.436936395
 30
0.0
 11
5930.027639872617
 21
5547.436936395
 31
0.0
  0
LINE
  5
2A0
330
17
100
AcDbEntity
  8
COTA
 62
0
370
25
100
AcDbLine
 10
5931.527639872617
 20
5585.936936395
 30
0.0
 11
5928.527639872617
 21
5588.936936395
 31
0.0
  0
LINE
  5
2A1
330
17
100
AcDbEntity
  8
COTA
 62
0
370
25
100
AcDbLine
 10
5928.527639872617
 20
5548.936936395
 30
0.0
 11
5931.527639872617
 21
5545.936936395
 31
0.0
  0
LINE
  5
2A2
330
17
100
AcDbEntity
  8
COTA
 62
4
370
25
100
AcDbLine
 10
5908.578870803744
 20
5587.436936395
 30
0.0
 11
5933.027639872538
 21
5587.436936395
 31
0.0
  0
LINE
  5
2A3
330
17
100
AcDbEntity
  8
COTA
 62
4
370
25
100
AcDbLine
 10
5908.578870803744
 20
5599.436936395
 30
0.0
 11
5933.027639872538
 21
5599.436936395
 31
0.0
  0
LINE
  5
2A4
330
17
100
AcDbEntity
  8
COTA
 62
4
370
25
100
AcDbLine
 10
5930.027639872538
 20
5587.436936395
 30
0.0
 11
5930.027639872538
 21
5599.436936395
 31
0.0
  0
LINE
  5
2A5
330
17
100
AcDbEntity
  8
COTA
 62
0
370
25
100
AcDbLine
 10
5928.527639872538
 20
5588.936936395
 30
0.0
 11
5931.527639872538
 21
5585.936936395
 31
0.0
  0
LINE
  5
2A6
330
17
100
AcDbEntity
  8
COTA
 62
0
370
25
100
AcDbLine
 10
5931.527639872538
 20
5597.936936395
 30
0.0
 11
5928.527639872538
 21
5600.936936395
 31
0.0
  0
LINE
  5
2A7
330
17
100
AcDbEntity
  8
COTA
 62
4
370
25
100
AcDbLine
 10
5908.578870803744
 20
5599.436936395
 30
0.0
 11
5933.027639872624
 21
5599.436936395
 31
0.0
  0
LINE
  5
2A8
330
17
100
AcDbEntity
  8
COTA
 62
4
370
25
100
AcDbLine
 10
5908.578870803744
 20
5606.436936395
 30
0.0
 11
5933.027639872624
 21
5606.436936395
 31
0.0
  0
LINE
  5
2A9
330
17
100
AcDbEntity
  8
COTA
 62
4
370
25
100
AcDbLine
 10
5930.027639872624
 20
5599.436936395
 30
0.0
 11
5930.027639872624
 21
5606.436936395
 31
0.0
  0
LINE
  5
2AA
330
17
100
AcDbEntity
  8
COTA
 62
4
370
25
100
AcDbLine
 10
5930.027639872624
 20
5606.436936395
 30
0.0
 11
5930.027639872624
 21
5621.167930547047
 31
0.0
  0
LINE
  5
2AB
330
17
100
AcDbEntity
  8
COTA
 62
0
370
25
100
AcDbLine
 10
5928.527639872624
 20
5600.936936395
 30
0.0
 11
5931.527639872624
 21
5597.936936395
 31
0.0
  0
LINE
  5
2AC
330
17
100
AcDbEntity
  8
COTA
 62
0
370
25
100
AcDbLine
 10
5931.527639872624
 20
5604.936936395
 30
0.0
 11
5928.527639872624
 21
5607.936936395
 31
0.0
  0
LINE
  5
2AD
330
17
100
AcDbEntity
  8
COTA
 62
4
370
25
100
AcDbLine
 10
5908.578870803744
 20
5606.436936395
 30
0.0
 11
5957.114497880469
 21
5606.436936395
 31
0.0
  0
LINE
  5
2AE
330
17
100
AcDbEntity
  8
COTA
 62
4
370
25
100
AcDbLine
 10
5908.578870803744
 20
5547.436936395
 30
0.0
 11
5957.114497880469
 21
5547.436936395
 31
0.0
  0
LINE
  5
2AF
330
17
100
AcDbEntity
  8
COTA
 62
4
370
25
100
AcDbLine
 10
5954.114497880469
 20
5606.436936395
 30
0.0
 11
5954.114497880469
 21
5547.436936395
 31
0.0
  0
LINE
  5
2B0
330
17
100
AcDbEntity
  8
COTA
 62
0
370
25
100
AcDbLine
 10
5955.614497880469
 20
5604.936936395
 30
0.0
 11
5952.614497880469
 21
5607.936936395
 31
0.0
  0
LINE
  5
2B1
330
17
100
AcDbEntity
  8
COTA
 62
0
370
25
100
AcDbLine
 10
5952.614497880469
 20
5548.936936395
 30
0.0
 11
5955.614497880469
 21
5545.936936395
 31
0.0
  0
LINE
  5
2B2
330
17
100
AcDbEntity
  8
Texto Seção
 62
252
370
15
100
AcDbLine
 10
5303.05097066931
 20
5900.670908226221
 30
0.0
 11
5303.05097066931
 21
6025.670908226221
 31
0.0
  0
LWPOLYLINE
  5
2B3
330
17
100
AcDbEntity
  8
Painéis
 62
200
370
25
100
AcDbPolyline
 90
4
 70
0
 10
5280.050970669339
 20
5862.670908226199
 10
5284.05097066934
 20
5862.670908226199
 10
5284.05097066934
 20
5782.670908226221
 10
5280.050970669339
 20
5782.670908226221
  0
LWPOLYLINE
  5
2B4
330
17
100
AcDbEntity
  8
Madeira
 62
126
370
18
100
AcDbPolyline
 90
4
 70
0
 10
5322.050970669339
 20
5782.670908226221
 10
5322.050970669339
 20
5787.070908226215
 10
5308.050970669339
 20
5787.070908226215
 10
5308.050970669339
 20
5782.670908226221
  0
LWPOLYLINE
  5
2B5
330
17
100
AcDbEntity
  8
Painéis
 62
200
370
25
100
AcDbPolyline
 90
4
 70
0
 10
5322.050970669339
 20
5787.070908226215
 10
5322.050970669339
 20
5790.670908226221
 10
5284.05097066934
 20
5790.670908226221
 10
5284.05097066934
 20
5787.070908226215
  0
LWPOLYLINE
  5
2B6
330
17
100
AcDbEntity
  8
Madeira
 62
126
370
18
100
AcDbPolyline
 90
4
 70
0
 10
5284.05097066934
 20
5782.670908226221
 10
5284.05097066934
 20
5787.070908226215
 10
5298.05097066934
 20
5787.070908226215
 10
5298.05097066934
 20
5782.670908226221
  0
LWPOLYLINE
  5
2B7
330
17
100
AcDbEntity
  8
Painéis
 62
200
370
25
100
AcDbPolyline
 90
4
 70
0
 10
5326.05097066935
 20
5870.670908226221
 10
5322.050970669351
 20
5870.670908226221
 10
5322.050970669339
 20
5782.670908226221
 10
5326.050970669339
 20
5782.670908226221
  0
LWPOLYLINE
  5
2B8
330
17
100
AcDbEntity
  8
Painéis
 62
200
370
25
100
AcDbPolyline
 90
4
 70
0
 10
5284.05097066934
 20
5862.670908226199
 10
5284.05097066934
 20
5866.6709082262
 10
5228.450970669363
 20
5866.670908226192
 10
5228.450970669363
 20
5862.670908226192
  0
LWPOLYLINE
  5
2B9
330
17
100
AcDbEntity
  8
CONCRETO
 62
251
370
25
100
AcDbPolyline
 90
9
 70
0
 10
5322.05097066928
 20
5870.670908226221
 10
5322.05097066928
 20
5790.670908226221
 10
5284.05097066934
 20
5790.670908226221
 10
5284.05097066934
 20
5866.6709082262
 10
5228.450970669363
 20
5866.670908226192
 10
5228.450970669363
 20
5886.670908226221
 10
5284.05097066934
 20
5886.670908226221
 10
5284.05097066934
 20
5900.670908226221
 10
5322.05097066928
 20
5900.670908226221
  0
LWPOLYLINE
  5
2BA
330
17
100
AcDbEntity
  8
Painéis
 62
200
370
25
100
AcDbPolyline
 90
4
 70
0
 10
5280.450970669334
 20
5900.670908226221
 10
5284.05097066934
 20
5900.670908226221
 10
5284.05097066934
 20
5886.670908226221
 10
5280.450970669334
 20
5886.670908226221
  0
LWPOLYLINE
  5
2BB
330
17
100
AcDbEntity
  8
Madeira
 62
126
370
18
100
AcDbPolyline
 90
4
 70
0
 10
5276.050970669339
 20
5886.670908226221
 10
5280.450970669334
 20
5886.670908226221
 10
5280.450970669334
 20
5900.670908226221
 10
5276.050970669339
 20
5900.670908226221
  0
LWPOLYLINE
  5
2BC
330
17
100
AcDbEntity
  8
CONCRETO
 62
251
370
25
100
AcDbPolyline
 90
8
 70
0
 10
5377.650970669327
 20
5874.670908226228
 10
5377.650970669257
 20
5900.670908226223
 10
5322.05097066928
 20
5900.670908226223
 10
5322.05097066928
 20
5900.670908226221
 10
5284.05097066934
 20
5900.670908226221
 10
5284.05097066934
 20
5790.670908226221
 10
5322.05097066928
 20
5790.670908226221
 10
5322.050970669351
 20
5874.670908226236
  0
LWPOLYLINE
  5
2BD
330
17
100
AcDbEntity
  8
Painéis
 62
200
370
25
100
AcDbPolyline
 90
4
 70
0
 10
5377.650970669327
 20
5870.670908226236
 10
5377.650970669327
 20
5874.670908226236
 10
5322.050970669351
 20
5874.670908226228
 10
5322.050970669351
 20
5870.670908226228
  0
LWPOLYLINE
  5
2BE
330
17
100
AcDbEntity
  8
Madeira
 62
126
370
18
100
AcDbPolyline
 90
4
 70
0
 10
5330.450970669344
 20
5856.670908226228
 10
5326.05097066935
 20
5856.670908226228
 10
5326.05097066935
 20
5870.670908226228
 10
5330.450970669344
 20
5870.670908226228
  0
LWPOLYLINE
  5
2BF
330
17
100
AcDbEntity
  8
Madeira
 62
126
370
18
100
AcDbPolyline
 90
4
 70
0
 10
5330.450970669334
 20
5782.670908226221
 10
5326.050970669339
 20
5782.670908226221
 10
5326.050970669339
 20
5796.670908226221
 10
5330.450970669334
 20
5796.670908226221
  0
LWPOLYLINE
  5
2C0
330
17
100
AcDbEntity
  8
Madeira
 62
126
370
18
100
AcDbPolyline
 90
4
 70
0
 10
5275.650970669345
 20
5848.6709082262
 10
5280.050970669339
 20
5848.6709082262
 10
5280.050970669339
 20
5862.670908226199
 10
5275.650970669345
 20
5862.670908226199
  0
LWPOLYLINE
  5
2C1
330
17
100
AcDbEntity
  8
Madeira
 62
126
370
18
100
AcDbPolyline
 90
4
 70
0
 10
5275.650970669345
 20
5782.670908226221
 10
5280.050970669339
 20
5782.670908226221
 10
5280.050970669339
 20
5796.670908226221
 10
5275.650970669345
 20
5796.670908226221
  0
LWPOLYLINE
  5
2C2
330
17
100
AcDbEntity
  8
Cotas
 62
1
370
25
100
AcDbPolyline
 90
4
 70
0
 10
5179.989310316172
 20
5701.092637439783
 10
5361.954112251957
 20
5701.092637439783
 10
5361.954112251957
 20
5607.991491788653
 10
5179.989310316172
 20
5607.991491788653
  0
LWPOLYLINE
  5
2C3
330
17
100
AcDbEntity
  8
Madeira
 62
126
370
18
100
AcDbPolyline
 90
4
 70
0
 10
5240.972245266005
 20
5650.093412425316
 10
5240.972245266005
 20
5664.093412425319
 10
5233.972245266005
 20
5664.093412425319
 10
5233.972245266005
 20
5650.093412425316
  0
LWPOLYLINE
  5
2C4
330
17
100
AcDbEntity
  8
Madeira
 62
126
370
18
100
AcDbPolyline
 90
3
 70
0
 10
5240.972245266005
 20
5664.093412425319
 10
5240.972245266005
 20
5650.093412425316
 10
5209.496175726117
 20
5650.093412425316
  0
LWPOLYLINE
  5
2C5
330
17
100
AcDbEntity
  8
Madeira
 62
126
370
18
100
AcDbPolyline
 90
4
 70
0
 10
5265.355669107999
 20
5664.093412425327
 10
5279.335032065586
 20
5664.093412425327
 10
5279.335032065586
 20
5659.693412425325
 10
5265.355669107999
 20
5659.693412425325
  0
LWPOLYLINE
  5
2C6
330
17
100
AcDbEntity
  8
Painéis
 62
200
370
25
100
AcDbPolyline
 90
4
 70
0
 10
5279.335032065586
 20
5667.693412425318
 10
5282.935032065585
 20
5667.693412425318
 10
5282.935032065585
 20
5657.693412425325
 10
5279.335032065586
 20
5657.693412425325
  0
LWPOLYLINE
  5
2C7
330
17
100
AcDbEntity
  8
Painéis
 62
200
370
25
100
AcDbPolyline
 90
4
 70
0
 10
5797.941660087125
 20
5986.791919861873
 10
6215.941660087125
 20
5986.791919861873
 10
6215.941660087125
 20
5993.791919861873
 10
5797.941660087125
 20
5993.791919861873
  0
LWPOLYLINE
  5
2C8
330
17
100
AcDbEntity
  8
Painéis
 62
200
370
25
100
AcDbPolyline
 90
4
 70
0
 10
5488.736199405334
 20
5986.791919861873
 10
5716.736199405334
 20
5986.791919861878
 10
5716.736199405334
 20
5993.791919861877
 10
5488.736199405334
 20
5993.791919861873
  0
LWPOLYLINE
  5
2C9
330
17
100
AcDbEntity
  8
Painéis
 62
200
370
25
100
AcDbPolyline
 90
4
 70
0
 10
5486.078996104725
 20
5800.803852608926
 10
5904.078996104725
 20
5800.803852608926
 10
5904.078996104725
 20
5807.803852608927
 10
5486.078996104725
 20
5807.803852608927
  0
LWPOLYLINE
  5
2CA
330
17
100
AcDbEntity
  8
Painéis
 62
200
370
25
100
AcDbPolyline
 90
4
 70
0
 10
6413.331113741327
 20
5800.803852608926
 10
5995.331113741327
 20
5800.803852608926
 10
5995.331113741327
 20
5807.803852608927
 10
6413.331113741327
 20
5807.803852608927
  0
LWPOLYLINE
  5
2CB
330
17
100
AcDbEntity
  8
Painéis
 62
200
370
25
100
AcDbPolyline
 90
4
 70
0
 10
6410.2007132921
 20
5599.436936395113
 10
5996.2007132921
 20
5599.436936395113
 10
5996.2007132921
 20
5606.436936395112
 10
6410.2007132921
 20
5606.436936395112
  0
LWPOLYLINE
  5
2CC
330
17
100
AcDbEntity
  8
Cotas
 62
1
370
25
100
AcDbPolyline
 90
4
 70
0
 10
5179.989310316172
 20
5587.058663703072
 10
5361.954112251957
 20
5587.058663703072
 10
5361.954112251957
 20
5496.014200537801
 10
5179.989310316172
 20
5496.014200537801
  0
LWPOLYLINE
  5
2CD
330
17
100
AcDbEntity
  8
Madeira
 62
126
370
18
100
AcDbPolyline
 90
4
 70
0
 10
5240.972245266005
 20
5536.059438688605
 10
5240.972245266005
 20
5550.059438688609
 10
5233.972245266005
 20
5550.059438688609
 10
5233.972245266005
 20
5536.059438688605
  0
LWPOLYLINE
  5
2CE
330
17
100
AcDbEntity
  8
Madeira
 62
126
370
18
100
AcDbPolyline
 90
3
 70
0
 10
5240.972245266005
 20
5550.059438688609
 10
5240.972245266005
 20
5536.059438688605
 10
5209.496175726117
 20
5536.059438688605
  0
LWPOLYLINE
  5
2CF
330
17
100
AcDbEntity
  8
Madeira
 62
126
370
18
100
AcDbPolyline
 90
4
 70
0
 10
5265.355669107999
 20
5550.059438688617
 10
5279.335032065586
 20
5550.059438688617
 10
5279.335032065586
 20
5545.659438688614
 10
5265.355669107999
 20
5545.659438688614
  0
LWPOLYLINE
  5
2D0
330
17
100
AcDbEntity
  8
Painéis
 62
200
370
25
100
AcDbPolyline
 90
4
 70
0
 10
5279.335032065586
 20
5553.659438688607
 10
5282.935032065585
 20
5553.659438688607
 10
5282.935032065585
 20
5519.259438688608
 10
5279.335032065586
 20
5519.259438688608
  0
LWPOLYLINE
  5
2D1
330
17
100
AcDbEntity
  8
Painéis
 62
200
370
25
100
AcDbPolyline
 90
4
 70
0
 10
5282.935032065585
 20
5519.259438688608
 10
5282.935032065585
 20
5515.659438688605
 10
5277.935032065585
 20
5515.659438688605
 10
5277.935032065585
 20
5519.259438688608
  0
LWPOLYLINE
  5
2D2
330
17
100
AcDbEntity
  8
Painéis
 62
200
370
25
100
AcDbPolyline
 90
4
 70
0
 10
5905.578870803742
 20
5599.436936394998
 10
5487.578870803742
 20
5599.436936394998
 10
5487.578870803742
 20
5606.436936394999
 10
5905.578870803742
 20
5606.436936394999
  0
LWPOLYLINE
  5
2D3
330
17
100
AcDbEntity
  8
Madeira
 62
126
370
18
100
AcDbPolyline
 90
4
 70
0
 10
5330.450970669344
 20
5821.887460271899
 10
5326.05097066935
 20
5821.887460271899
 10
5326.05097066935
 20
5835.887460271898
 10
5330.450970669344
 20
5835.887460271898
  0
LWPOLYLINE
  5
2D4
330
17
100
AcDbEntity
  8
Madeira
 62
126
370
18
100
AcDbPolyline
 90
4
 70
0
 10
5275.650970669345
 20
5813.887460271868
 10
5280.050970669339
 20
5813.887460271868
 10
5280.050970669339
 20
5827.887460271869
 10
5275.650970669345
 20
5827.887460271869
  0
LWPOLYLINE
  5
2D5
330
17
100
AcDbEntity
  8
SARR_3.5x7
 62
81
370
25
100
AcDbPolyline
 90
4
 70
0
 10
5261.650970669279
 20
5856.670908226198
 10
5275.650970669279
 20
5856.670908226198
 10
5275.65097066941
 20
5706.192694820416
 10
5261.650970669411
 20
5706.192694820416
  0
LWPOLYLINE
  5
2D6
330
17
100
AcDbEntity
  8
SARR_3.5x7
 62
81
370
25
100
AcDbPolyline
 90
4
 70
0
 10
5344.450970669566
 20
5864.670908226226
 10
5330.450970669566
 20
5864.670908226226
 10
5330.450970669421
 20
5706.192694820416
 10
5344.45097066942
 20
5706.192694820416
  0
LWPOLYLINE
  5
2D7
330
17
100
AcDbEntity
  8
SARR_3.5x7
 62
81
370
25
100
AcDbPolyline
 90
4
 70
0
 10
5261.650970669268
 20
5782.670908226221
 10
5344.450970669468
 20
5782.670908226219
 10
5344.450970669468
 20
5752.612846622221
 10
5261.650970669268
 20
5752.612846622223
  0
LWPOLYLINE
  5
2D8
330
17
100
AcDbEntity
  8
Texto Seção
 62
7
370
15
100
AcDbPolyline
 90
4
 70
0
 10
6350.583757447188
 20
6010.87509732579
 10
6492.033075599444
 20
6010.87509732579
 10
6492.033075599444
 20
5987.674220258041
 10
6350.583757447188
 20
5987.674220258041
  0
LWPOLYLINE
  5
2D9
330
17
100
AcDbEntity
  8
COTA
 62
0
370
25
100
AcDbPolyline
 90
2
 70
0
 10
5173.574247580131
 20
5785.170908226223
 10
5178.574247580131
 20
5780.170908226223
  0
LWPOLYLINE
  5
2DA
330
17
100
AcDbEntity
  8
COTA
 62
0
370
25
100
AcDbPolyline
 90
2
 70
0
 10
5178.574247580131
 20
5898.170908226223
 10
5173.574247580131
 20
5903.170908226223
  0
LWPOLYLINE
  5
2DB
330
17
100
AcDbEntity
  8
COTA
 62
0
370
25
100
AcDbPolyline
 90
2
 70
0
 10
5396.422703427637
 20
5785.170908226223
 10
5401.422703427637
 20
5780.170908226223
  0
LWPOLYLINE
  5
2DC
330
17
100
AcDbEntity
  8
COTA
 62
0
370
25
100
AcDbPolyline
 90
2
 70
0
 10
5401.422703427637
 20
5868.170908226223
 10
5396.422703427637
 20
5873.170908226223
  0
LWPOLYLINE
  5
2DD
330
17
100
AcDbEntity
  8
COTA
 62
0
370
25
100
AcDbPolyline
 90
2
 70
0
 10
5197.893676065592
 20
5884.170908226223
 10
5192.893676065592
 20
5889.170908226223
  0
LWPOLYLINE
  5
2DE
330
17
100
AcDbEntity
  8
COTA
 62
0
370
25
100
AcDbPolyline
 90
2
 70
0
 10
5192.893676065592
 20
5869.170908226194
 10
5197.893676065592
 20
5864.170908226194
  0
LWPOLYLINE
  5
2DF
330
17
100
AcDbEntity
  8
COTA
 62
0
370
25
100
AcDbPolyline
 90
2
 70
0
 10
5197.893676065919
 20
5860.170908226194
 10
5192.893676065919
 20
5865.170908226194
  0
LWPOLYLINE
  5
2E0
330
17
100
AcDbEntity
  8
COTA
 62
0
370
25
100
AcDbPolyline
 90
2
 70
0
 10
5192.893676065919
 20
5785.170908226223
 10
5197.893676065919
 20
5780.170908226223
  0
LWPOLYLINE
  5
2E1
330
17
100
AcDbEntity
  8
COTA
 62
0
370
25
100
AcDbPolyline
 90
2
 70
0
 10
5286.55097066934
 20
5762.746948398691
 10
5281.55097066934
 20
5757.746948398691
  0
LWPOLYLINE
  5
2E2
330
17
100
AcDbEntity
  8
COTA
 62
0
370
25
100
AcDbPolyline
 90
2
 70
0
 10
5319.550970669339
 20
5757.746948398691
 10
5324.550970669339
 20
5762.746948398691
  0
LWPOLYLINE
  5
2E3
330
17
100
AcDbEntity
  8
COTA
 62
0
370
25
100
AcDbPolyline
 90
2
 70
0
 10
5396.422703427686
 20
5877.170908226231
 10
5401.422703427686
 20
5872.170908226231
  0
LWPOLYLINE
  5
2E4
330
17
100
AcDbEntity
  8
COTA
 62
0
370
25
100
AcDbPolyline
 90
2
 70
0
 10
5401.422703427686
 20
5898.170908226225
 10
5396.422703427686
 20
5903.170908226225
  0
LWPOLYLINE
  5
2E5
330
17
100
AcDbEntity
  8
COTA
 62
0
370
25
100
AcDbPolyline
 90
2
 70
0
 10
5421.916492246506
 20
5898.170908226225
 10
5416.916492246506
 20
5903.170908226225
  0
LWPOLYLINE
  5
2E6
330
17
100
AcDbEntity
  8
COTA
 62
0
370
25
100
AcDbPolyline
 90
2
 70
0
 10
5416.916492246506
 20
5785.170908226227
 10
5421.916492246506
 20
5780.170908226227
  0
LWPOLYLINE
  5
2E7
330
17
100
AcDbEntity
  8
COTA
 62
0
370
25
100
AcDbPolyline
 90
2
 70
0
 10
5197.893676065596
 20
5898.170908226223
 10
5192.893676065596
 20
5903.170908226223
  0
LWPOLYLINE
  5
2E8
330
17
100
AcDbEntity
  8
COTA
 62
0
370
25
100
AcDbPolyline
 90
2
 70
0
 10
5192.893676065596
 20
5889.170908226223
 10
5197.893676065596
 20
5884.170908226223
  0
LWPOLYLINE
  5
2E9
330
17
100
AcDbEntity
  8
COTA
 62
0
370
25
100
AcDbPolyline
 90
2
 70
0
 10
5312.17649317705
 20
5665.693412425319
 10
5308.17649317705
 20
5669.693412425319
  0
LWPOLYLINE
  5
2EA
330
17
100
AcDbEntity
  8
COTA
 62
0
370
25
100
AcDbPolyline
 90
2
 70
0
 10
5308.17649317705
 20
5659.693412425327
 10
5312.17649317705
 20
5655.693412425327
  0
LWPOLYLINE
  5
2EB
330
17
100
AcDbEntity
  8
COTA
 62
0
370
25
100
AcDbPolyline
 90
2
 70
0
 10
5312.176493177046
 20
5551.659438688609
 10
5308.176493177046
 20
5555.659438688609
  0
LWPOLYLINE
  5
2EC
330
17
100
AcDbEntity
  8
COTA
 62
0
370
25
100
AcDbPolyline
 90
2
 70
0
 10
5308.176493177046
 20
5517.659438688607
 10
5312.176493177046
 20
5513.659438688607
  0
LWPOLYLINE
  5
2ED
330
17
100
AcDbEntity
  8
COTA
 62
0
370
25
100
AcDbPolyline
 90
2
 70
0
 10
5284.935032065585
 20
5505.471573114747
 10
5280.935032065585
 20
5501.471573114747
  0
LWPOLYLINE
  5
2EE
330
17
100
AcDbEntity
  8
COTA
 62
0
370
25
100
AcDbPolyline
 90
2
 70
0
 10
5275.935032065585
 20
5501.471573114747
 10
5279.935032065585
 20
5505.471573114747
  0
TEXT
  5
2EF
330
17
100
AcDbEntity
  8
detalhes
 62
4
370
25
100
AcDbText
 10
5328.144200479985
 20
5813.686024061809
 30
0.0
 40
9.600000000000001
  1
b
100
AcDbText
  0
TEXT
  5
2F0
330
17
100
AcDbEntity
  8
detalhes
 62
4
370
25
100
AcDbText
 10
5268.419692990645
 20
5805.716301132722
 30
0.0
 40
9.600000000000001
  1
a
100
AcDbText
  0
TEXT
  5
2F1
330
17
100
AcDbEntity
  8
detalhes
 62
4
370
25
100
AcDbText
 10
5294.651236284784
 20
5792.90666174606
 30
0.0
 40
9.600000000000001
  1
c
100
AcDbText
  0
TEXT
  5
2F2
330
17
100
AcDbEntity
  8
5
 62
5
370
25
100
AcDbText
 10
5489.831590141855
 20
5856.787421429076
 30
0.0
 40
12.0
  1
VF202
 50
359.9999644975238
100
AcDbText
  0
TEXT
  5
2F3
330
17
100
AcDbEntity
  8
detalhes
 62
4
370
25
100
AcDbText
 10
5475.348276016486
 20
5945.101847132436
 30
0.0
 40
9.600000000000001
  1
B
100
AcDbText
  0
TEXT
  5
2F4
330
17
100
AcDbEntity
  8
detalhes
 62
4
370
25
100
AcDbText
 10
5508.124122794188
 20
5945.101847132436
 30
0.0
 40
9.600000000000001
  1
B
100
AcDbText
  0
TEXT
  5
2F5
330
17
100
AcDbEntity
  8
NOMENCLATURA
 62
7
370
25
100
AcDbText
 10
5740.025617588947
 20
5868.668064669066
 30
0.0
 40
16.49999175001634
  1
M5
100
AcDbText
  0
TEXT
  5
2F6
330
17
100
AcDbEntity
  8
5
 62
5
370
25
100
AcDbText
 10
6175.465641792629
 20
5856.787397027456
 30
0.0
 40
12.0
  1
P29
 50
3.55024762388e-05
100
AcDbText
  0
TEXT
  5
2F7
330
17
100
AcDbEntity
  8
NOMENCLATURA
 62
7
370
25
100
AcDbText
 10
5740.454531889756
 20
5868.668064669066
 30
0.0
 40
16.49999175001634
  1
M5
100
AcDbText
  0
TEXT
  5
2F8
330
17
100
AcDbEntity
  8
NOMENCLATURA
 62
7
370
25
100
AcDbText
 10
6230.799654184679
 20
5868.668064668952
 30
0.0
 40
16.49999175001634
  1
M2.5
100
AcDbText
  0
TEXT
  5
2F9
330
17
100
AcDbEntity
  8
TEXTO PILAR
 62
3
370
15
100
AcDbText
 10
5268.614950534864
 20
5688.349110381526
 30
0.0
 40
12.0
  1
MOSCA DE 5cm
100
AcDbText
  0
TEXT
  5
2FA
330
17
100
AcDbEntity
  8
NOMENCLATURA
 62
7
370
25
100
AcDbText
 10
5419.669744813245
 20
5682.679997416119
 30
0.0
 40
16.49999175001634
  1
M2.5
100
AcDbText
  0
TEXT
  5
2FB
330
17
100
AcDbEntity
  8
NOMENCLATURA
 62
7
370
25
100
AcDbText
 10
5918.936990202279
 20
5682.679997416006
 30
0.0
 40
16.49999175001634
  1
M2.5
100
AcDbText
  0
TEXT
  5
2FC
330
17
100
AcDbEntity
  8
5
 62
5
370
25
100
AcDbText
 10
5922.308396684695
 20
5657.370173243862
 30
0.0
 40
12.0
  1
P30
 50
359.9999644975238
100
AcDbText
  0
TEXT
  5
2FD
330
17
100
AcDbEntity
  8
NOMENCLATURA
 62
7
370
25
100
AcDbText
 10
6427.70798995755
 20
5682.679997416119
 30
0.0
 40
16.49999175001634
  1
M2.5
100
AcDbText
  0
TEXT
  5
2FE
330
17
100
AcDbEntity
  8
Texto Seção
 62
7
370
15
100
AcDbText
 10
5991.389847278266
 20
5831.308899748559
 30
0.0
 40
13.0
  1
(2X ESTE MÓDULO)
100
AcDbText
  0
TEXT
  5
2FF
330
17
100
AcDbEntity
  8
NOMENCLATURA
 62
7
370
25
100
AcDbText
 10
5925.842496291303
 20
5481.313081202191
 30
0.0
 40
16.49999175001634
  1
M2.5
100
AcDbText
  0
TEXT
  5
300
330
17
100
AcDbEntity
  8
5
 62
5
370
25
100
AcDbText
 10
5940.614417954601
 20
5456.003257030047
 30
0.0
 40
12.0
  1
P32
 50
359.9999644975238
100
AcDbText
  0
TEXT
  5
301
330
17
100
AcDbEntity
  8
Texto Seção
 62
7
370
15
100
AcDbText
 10
5485.321351949852
 20
5997.256928498931
 30
0.0
 40
13.0
  1
V306.A
100
AcDbText
  0
TEXT
  5
302
330
17
100
AcDbEntity
  8
Texto Seção
 62
7
370
15
100
AcDbText
 10
5482.664148649242
 20
5811.268861245983
 30
0.0
 40
13.0
  1
CONT. V306.A
100
AcDbText
  0
TEXT
  5
303
330
17
100
AcDbEntity
  8
Texto Seção
 62
7
370
15
100
AcDbText
 10
5482.664148649242
 20
5630.972293813371
 30
0.0
 40
13.0
  1
CONT. V306.A
100
AcDbText
  0
TEXT
  5
304
330
17
100
AcDbEntity
  8
Texto Seção
 62
7
370
15
100
AcDbText
 10
5230.548885196907
 20
5424.051279982823
 30
0.0
 40
13.0
  1
V306.B
100
AcDbText
  0
TEXT
  5
305
330
17
100
AcDbEntity
  8
Texto Seção
 62
7
370
15
100
AcDbText
 10
5681.573956021102
 20
5424.051279982823
 30
0.0
 40
13.0
  1
(4X ESTE MÓDULO)
100
AcDbText
  0
TEXT
  5
306
330
17
100
AcDbEntity
  8
detalhes
 62
4
370
25
100
AcDbText
 10
6412.015035977876
 20
5367.790874627278
 30
0.0
 40
9.600000000000001
  1
A
100
AcDbText
  0
TEXT
  5
307
330
17
100
AcDbEntity
  8
detalhes
 62
4
370
25
100
AcDbText
 10
6379.239189200174
 20
5367.790874627278
 30
0.0
 40
9.600000000000001
  1
A
100
AcDbText
  0
TEXT
  5
308
330
17
100
AcDbEntity
  8
5
 62
5
370
25
100
AcDbText
 10
5735.017220938932
 20
5845.672195750956
 30
0.0
 40
12.0
  1
P28
 50
3.55024762388e-05
100
AcDbText
  0
TEXT
  5
309
330
17
100
AcDbEntity
  8
5
 62
5
370
25
100
AcDbText
 10
5486.586205239369
 20
5668.508017510085
 30
0.0
 40
12.0
  1
P29
 50
3.55024762388e-05
100
AcDbText
  0
TEXT
  5
30A
330
17
100
AcDbEntity
  8
5
 62
5
370
25
100
AcDbText
 10
6389.137319652981
 20
5667.968846273362
 30
0.0
 40
12.0
  1
P31
 50
359.9999644975238
100
AcDbText
  0
TEXT
  5
30B
330
17
100
AcDbEntity
  8
5
 62
5
370
25
100
AcDbText
 10
6388.594921832305
 20
5466.552220253587
 30
0.0
 40
12.0
  1
V321
 50
359.9999644975238
100
AcDbText
  0
TEXT
  5
30C
330
17
100
AcDbEntity
  8
TEXTO PILAR
 62
3
370
15
100
AcDbText
 10
5268.614950534864
 20
5574.315136644816
 30
0.0
 40
12.0
  1
MOSCA DE 2.5cm
100
AcDbText
  0
TEXT
  5
30D
330
17
100
AcDbEntity
  8
NOMENCLATURA
 62
7
370
25
100
AcDbText
 10
5411.184747264694
 20
5481.313081202077
 30
0.0
 40
16.49999175001634
  1
M2.5
100
AcDbText
  0
TEXT
  5
30E
330
17
100
AcDbEntity
  8
5
 62
5
370
25
100
AcDbText
 10
5487.64790558224
 20
5468.596599910512
 30
0.0
 40
12.0
  1
P31
 50
359.9999644975238
100
AcDbText
  0
TEXT
  5
30F
330
17
100
AcDbEntity
  8
Texto Seção
 62
7
370
15
100
AcDbText
 10
6420.444710204356
 20
5998.925815345261
 30
0.0
 40
13.0
  1
VEM DA V7
100
AcDbText
  0
TEXT
  5
310
330
17
100
AcDbEntity
  8
COTA
 62
1
370
25
100
AcDbText
 10
5184.57424758013
 20
5841.670908226221
 30
0.0
 40
7.0
  1
59
 50
90.0
100
AcDbText
  0
TEXT
  5
311
330
17
100
AcDbEntity
  8
COTA
 62
1
370
25
100
AcDbText
 10
5407.422703427638
 20
5826.670908226222
 30
0.0
 40
7.0
  1
44
 50
90.0
100
AcDbText
  0
TEXT
  5
312
330
17
100
AcDbEntity
  8
Cota Seção (2x)
 62
1
370
25
100
AcDbText
 10
5324.550970669281
 20
5860.670908226172
 30
0.0
 40
7.0
  1
55
 50
90.0
100
AcDbText
  0
TEXT
  5
313
330
17
100
AcDbEntity
  8
COTA
 62
1
370
25
100
AcDbText
 10
5203.893676065593
 20
5876.670908226206
 30
0.0
 40
7.0
  1
10
 50
90.0
100
AcDbText
  0
TEXT
  5
314
330
17
100
AcDbEntity
  8
COTA
 62
1
370
25
100
AcDbText
 10
5203.89367606592
 20
5822.670908226207
 30
0.0
 40
7.0
  1
40
 50
90.0
100
AcDbText
  0
TEXT
  5
315
330
17
100
AcDbEntity
  8
COTA
 62
1
370
25
100
AcDbText
 10
5303.050970669339
 20
5765.746948398692
 30
0.0
 40
7.0
  1
19
100
AcDbText
  0
TEXT
  5
316
330
17
100
AcDbEntity
  8
Cota Seção (2x)
 62
1
370
25
100
AcDbText
 10
5303.05097066931
 20
5810.170908226222
 30
0.0
 40
7.0
  1
19
100
AcDbText
  0
TEXT
  5
317
330
17
100
AcDbEntity
  8
COTA
 62
1
370
25
100
AcDbText
 10
5407.422703427686
 20
5887.670908226226
 30
0.0
 40
7.0
  1
13
 50
90.0
100
AcDbText
  0
TEXT
  5
318
330
17
100
AcDbEntity
  8
COTA
 62
1
370
25
100
AcDbText
 10
5427.916492246507
 20
5841.670908226224
 30
0.0
 40
7.0
  1
59
 50
90.0
100
AcDbText
  0
TEXT
  5
319
330
17
100
AcDbEntity
  8
COTA
 62
1
370
25
100
AcDbText
 10
5203.893676065596
 20
5893.670908226221
 30
0.0
 40
7.0
  1
7
 50
90.0
100
AcDbText
  0
TEXT
  5
31A
330
17
100
AcDbEntity
  8
COTA
 62
240
370
25
100
AcDbText
 10
5549.736199405341
 20
5916.310473415882
 30
0.0
 40
10.0
  1
122
100
AcDbText
  0
TEXT
  5
31B
330
17
100
AcDbEntity
  8
COTA
 62
240
370
25
100
AcDbText
 10
5663.736199405341
 20
5916.354333065016
 30
0.0
 40
10.0
  1
106
100
AcDbText
  0
TEXT
  5
31C
330
17
100
AcDbEntity
  8
COTA
 62
240
370
25
100
AcDbText
 10
5602.736199405341
 20
5882.808512434763
 30
0.0
 40
10.0
  1
228
100
AcDbText
  0
TEXT
  5
31D
330
17
100
AcDbEntity
  8
COTA
 62
240
370
25
100
AcDbText
 10
5728.791754960896
 20
5926.127972382496
 30
0.0
 40
10.0
  1
2
100
AcDbText
  0
TEXT
  5
31E
330
17
100
AcDbEntity
  8
COTA
 62
240
370
25
100
AcDbText
 10
6092.941660087117
 20
5916.354333065005
 30
0.0
 40
10.0
  1
246
100
AcDbText
  0
TEXT
  5
31F
330
17
100
AcDbEntity
  8
COTA
 62
240
370
25
100
AcDbText
 10
5883.941660087117
 20
5916.325093298934
 30
0.0
 40
10.0
  1
172
100
AcDbText
  0
TEXT
  5
320
330
17
100
AcDbEntity
  8
COTA
 62
240
370
25
100
AcDbText
 10
6006.941660087117
 20
5882.808512434763
 30
0.0
 40
10.0
  1
418
100
AcDbText
  0
TEXT
  5
321
330
17
100
AcDbEntity
  8
COTA
 62
240
370
25
100
AcDbText
 10
5785.886104531562
 20
5926.127972382496
 30
0.0
 40
10.0
  1
2
100
AcDbText
  0
TEXT
  5
322
330
17
100
AcDbEntity
  8
COTA
 62
240
370
25
100
AcDbText
 10
5472.687330646722
 20
5954.791919861899
 30
0.0
 40
10.0
  1
40
 50
90.0
100
AcDbText
  0
TEXT
  5
323
330
17
100
AcDbEntity
  8
COTA
 62
240
370
25
100
AcDbText
 10
5472.731190295779
 20
5980.7919198619
 30
0.0
 40
10.0
  1
12
 50
90.0
100
AcDbText
  0
TEXT
  5
324
330
17
100
AcDbEntity
  8
COTA
 62
240
370
25
100
AcDbText
 10
5446.718706800939
 20
5964.291919861887
 30
0.0
 40
10.0
  1
59
 50
90.0
100
AcDbText
  0
TEXT
  5
325
330
17
100
AcDbEntity
  8
COTA
 62
240
370
25
100
AcDbText
 10
6227.99721564268
 20
5926.127972382381
 30
0.0
 40
10.0
  1
2
100
AcDbText
  0
TEXT
  5
326
330
17
100
AcDbEntity
  8
COTA
 62
240
370
25
100
AcDbText
 10
5320.676493177051
 20
5647.693412425325
 30
0.0
 40
9.0
  1
5
 50
90.0
100
AcDbText
  0
TEXT
  5
327
330
17
100
AcDbEntity
  8
COTA
 62
240
370
25
100
AcDbText
 10
6093.927106347626
 20
6006.901879790412
 30
0.0
 40
10.0
  1
244
100
AcDbText
  0
TEXT
  5
328
330
17
100
AcDbEntity
  8
COTA
 62
240
370
25
100
AcDbText
 10
5472.716570412788
 20
6002.657416937897
 30
0.0
 40
10.0
  1
7
 50
90.0
100
AcDbText
  0
TEXT
  5
329
330
17
100
AcDbEntity
  8
COTA
 62
240
370
25
100
AcDbText
 10
5781.078996104717
 20
5730.366265812058
 30
0.0
 40
10.0
  1
246
100
AcDbText
  0
TEXT
  5
32A
330
17
100
AcDbEntity
  8
COTA
 62
240
370
25
100
AcDbText
 10
5572.078996104718
 20
5730.337026045987
 30
0.0
 40
10.0
  1
172
100
AcDbText
  0
TEXT
  5
32B
330
17
100
AcDbEntity
  8
COTA
 62
240
370
25
100
AcDbText
 10
5695.078996104718
 20
5696.820445181816
 30
0.0
 40
10.0
  1
418
100
AcDbText
  0
TEXT
  5
32C
330
17
100
AcDbEntity
  8
COTA
 62
240
370
25
100
AcDbText
 10
5474.023440549162
 20
5740.139905129549
 30
0.0
 40
10.0
  1
2
100
AcDbText
  0
TEXT
  5
32D
330
17
100
AcDbEntity
  8
COTA
 62
240
370
25
100
AcDbText
 10
5916.134551660281
 20
5740.139905129435
 30
0.0
 40
10.0
  1
2
100
AcDbText
  0
TEXT
  5
32E
330
17
100
AcDbEntity
  8
COTA
 62
240
370
25
100
AcDbText
 10
5782.064442365227
 20
5820.913812537465
 30
0.0
 40
10.0
  1
244
100
AcDbText
  0
TEXT
  5
32F
330
17
100
AcDbEntity
  8
COTA
 62
240
370
25
100
AcDbText
 10
6118.331113741331
 20
5730.366265812058
 30
0.0
 40
10.0
  1
246
100
AcDbText
  0
TEXT
  5
330
330
17
100
AcDbEntity
  8
COTA
 62
240
370
25
100
AcDbText
 10
6327.331113741331
 20
5730.337026045987
 30
0.0
 40
10.0
  1
172
100
AcDbText
  0
TEXT
  5
331
330
17
100
AcDbEntity
  8
COTA
 62
240
370
25
100
AcDbText
 10
6204.331113741331
 20
5702.806838720386
 30
0.0
 40
10.0
  1
418
100
AcDbText
  0
TEXT
  5
332
330
17
100
AcDbEntity
  8
COTA
 62
240
370
25
100
AcDbText
 10
6425.386669296887
 20
5740.139905129549
 30
0.0
 40
10.0
  1
2
100
AcDbText
  0
TEXT
  5
333
330
17
100
AcDbEntity
  8
COTA
 62
240
370
25
100
AcDbText
 10
5983.275558185772
 20
5740.139905129435
 30
0.0
 40
10.0
  1
2
100
AcDbText
  0
TEXT
  5
334
330
17
100
AcDbEntity
  8
COTA
 62
240
370
25
100
AcDbText
 10
6117.345667480826
 20
5820.913812537465
 30
0.0
 40
10.0
  1
244
100
AcDbText
  0
TEXT
  5
335
330
17
100
AcDbEntity
  8
COTA
 62
240
370
25
100
AcDbText
 10
6119.200713292105
 20
5528.999349598244
 30
0.0
 40
10.0
  1
246
100
AcDbText
  0
TEXT
  5
336
330
17
100
AcDbEntity
  8
COTA
 62
240
370
25
100
AcDbText
 10
6326.200713292105
 20
5529.021279422817
 30
0.0
 40
10.0
  1
168
100
AcDbText
  0
TEXT
  5
337
330
17
100
AcDbEntity
  8
COTA
 62
240
370
25
100
AcDbText
 10
6203.200713292105
 20
5495.43159914344
 30
0.0
 40
10.0
  1
414
100
AcDbText
  0
TEXT
  5
338
330
17
100
AcDbEntity
  8
COTA
 62
240
370
25
100
AcDbText
 10
5984.145157736545
 20
5538.772988915621
 30
0.0
 40
10.0
  1
2
100
AcDbText
  0
TEXT
  5
339
330
17
100
AcDbEntity
  8
COTA
 62
240
370
25
100
AcDbText
 10
6118.215267031599
 20
5619.546896323651
 30
0.0
 40
10.0
  1
244
100
AcDbText
  0
TEXT
  5
33A
330
17
100
AcDbEntity
  8
COTA
 62
240
370
25
100
AcDbText
 10
6252.288089974686
 20
5954.791919861873
 30
0.0
 40
10.0
  1
40
 50
90.0
100
AcDbText
  0
TEXT
  5
33B
330
17
100
AcDbEntity
  8
COTA
 62
240
370
25
100
AcDbText
 10
6252.331949623757
 20
5980.791919861872
 30
0.0
 40
10.0
  1
12
 50
90.0
100
AcDbText
  0
TEXT
  5
33C
330
17
100
AcDbEntity
  8
COTA
 62
240
370
25
100
AcDbText
 10
6252.317329740776
 20
6002.657416937896
 30
0.0
 40
10.0
  1
7
 50
90.0
100
AcDbText
  0
TEXT
  5
33D
330
17
100
AcDbEntity
  8
COTA
 62
240
370
25
100
AcDbText
 10
6276.338398274937
 20
5964.291919861873
 30
0.0
 40
10.0
  1
59
 50
90.0
100
AcDbText
  0
TEXT
  5
33E
330
17
100
AcDbEntity
  8
COTA
 62
240
370
25
100
AcDbText
 10
6449.677543628909
 20
5768.803852608925
 30
0.0
 40
10.0
  1
40
 50
90.0
100
AcDbText
  0
TEXT
  5
33F
330
17
100
AcDbEntity
  8
COTA
 62
240
370
25
100
AcDbText
 10
6449.721403277961
 20
5794.803852608925
 30
0.0
 40
10.0
  1
12
 50
90.0
100
AcDbText
  0
TEXT
  5
340
330
17
100
AcDbEntity
  8
COTA
 62
240
370
25
100
AcDbText
 10
6449.706783394998
 20
5816.66934968495
 30
0.0
 40
10.0
  1
7
 50
90.0
100
AcDbText
  0
TEXT
  5
341
330
17
100
AcDbEntity
  8
COTA
 62
240
370
25
100
AcDbText
 10
6473.72785192916
 20
5778.303852608925
 30
0.0
 40
10.0
  1
59
 50
90.0
100
AcDbText
  0
TEXT
  5
342
330
17
100
AcDbEntity
  8
COTA
 62
240
370
25
100
AcDbText
 10
6446.547143179686
 20
5567.436936395112
 30
0.0
 40
10.0
  1
40
 50
90.0
100
AcDbText
  0
TEXT
  5
343
330
17
100
AcDbEntity
  8
COTA
 62
240
370
25
100
AcDbText
 10
6446.591002828733
 20
5593.436936395112
 30
0.0
 40
10.0
  1
12
 50
90.0
100
AcDbText
  0
TEXT
  5
344
330
17
100
AcDbEntity
  8
COTA
 62
240
370
25
100
AcDbText
 10
6446.576382945775
 20
5615.302433471136
 30
0.0
 40
10.0
  1
7
 50
90.0
100
AcDbText
  0
TEXT
  5
345
330
17
100
AcDbEntity
  8
COTA
 62
240
370
25
100
AcDbText
 10
6470.597451479938
 20
5576.936936395112
 30
0.0
 40
10.0
  1
59
 50
90.0
100
AcDbText
  0
TEXT
  5
346
330
17
100
AcDbEntity
  8
COTA
 62
240
370
25
100
AcDbText
 10
5804.737227992313
 20
5341.902053684364
 30
0.0
 40
10.0
  1
244
100
AcDbText
  0
TEXT
  5
347
330
17
100
AcDbEntity
  8
COTA
 62
240
370
25
100
AcDbText
 10
6013.737227992312
 20
5341.902053684375
 30
0.0
 40
10.0
  1
174
100
AcDbText
  0
TEXT
  5
348
330
17
100
AcDbEntity
  8
COTA
 62
240
370
25
100
AcDbText
 10
6134.022397597054
 20
5382.36888024734
 30
0.0
 40
10.0
  1
44
 50
90.0
100
AcDbText
  0
TEXT
  5
349
330
17
100
AcDbEntity
  8
COTA
 62
240
370
25
100
AcDbText
 10
6133.985847889336
 20
5411.86888024734
 30
0.0
 40
10.0
  1
15
 50
90.0
100
AcDbText
  0
TEXT
  5
34A
330
17
100
AcDbEntity
  8
COTA
 62
240
370
25
100
AcDbText
 10
6159.95064657431
 20
5389.86888024734
 30
0.0
 40
10.0
  1
59
 50
90.0
100
AcDbText
  0
TEXT
  5
34B
330
17
100
AcDbEntity
  8
COTA
 62
240
370
25
100
AcDbText
 10
5349.519459888025
 20
5336.902053684363
 30
0.0
 40
10.0
  1
244
100
AcDbText
  0
TEXT
  5
34C
330
17
100
AcDbEntity
  8
COTA
 62
240
370
25
100
AcDbText
 10
5558.519459888024
 20
5336.902053684375
 30
0.0
 40
10.0
  1
174
100
AcDbText
  0
TEXT
  5
34D
330
17
100
AcDbEntity
  8
COTA
 62
240
370
25
100
AcDbText
 10
5228.469307177434
 20
5425.054552761935
 30
0.0
 40
10.0
  1
15
 50
90.0
100
AcDbText
  0
TEXT
  5
34E
330
17
100
AcDbEntity
  8
COTA
 62
240
370
25
100
AcDbText
 10
5228.505856885045
 20
5377.368880247314
 30
0.0
 40
10.0
  1
44
 50
90.0
100
AcDbText
  0
TEXT
  5
34F
330
17
100
AcDbEntity
  8
COTA
 62
240
370
25
100
AcDbText
 10
5205.308592594132
 20
5384.868880247314
 30
0.0
 40
10.0
  1
59
 50
90.0
100
AcDbText
  0
TEXT
  5
350
330
17
100
AcDbEntity
  8
COTA
 62
240
370
25
100
AcDbText
 10
6349.922696068714
 20
5341.887433801296
 30
0.0
 40
10.0
  1
122
100
AcDbText
  0
TEXT
  5
351
330
17
100
AcDbEntity
  8
COTA
 62
240
370
25
100
AcDbText
 10
6226.672696068714
 20
5341.93860339195
 30
0.0
 40
10.0
  1
124.5
100
AcDbText
  0
TEXT
  5
352
330
17
100
AcDbEntity
  8
COTA
 62
240
370
25
100
AcDbText
 10
6450.649927400558
 20
5381.868880247312
 30
0.0
 40
10.0
  1
43
 50
90.0
100
AcDbText
  0
TEXT
  5
353
330
17
100
AcDbEntity
  8
COTA
 62
240
370
25
100
AcDbText
 10
6450.766886464827
 20
5411.368880247312
 30
0.0
 40
10.0
  1
16
 50
90.0
100
AcDbText
  0
TEXT
  5
354
330
17
100
AcDbEntity
  8
COTA
 62
240
370
25
100
AcDbText
 10
6476.662410895467
 20
5389.868880247298
 30
0.0
 40
10.0
  1
59
 50
90.0
100
AcDbText
  0
TEXT
  5
355
330
17
100
AcDbEntity
  8
COTA
 62
240
370
25
100
AcDbText
 10
5320.676493177046
 20
5534.659438688606
 30
0.0
 40
9.0
  1
19
 50
90.0
100
AcDbText
  0
TEXT
  5
356
330
17
100
AcDbEntity
  8
COTA
 62
240
370
25
100
AcDbText
 10
5257.506460637014
 20
5510.971573114748
 30
0.0
 40
9.0
  1
2.5
100
AcDbText
  0
TEXT
  5
357
330
17
100
AcDbEntity
  8
COTA
 62
240
370
25
100
AcDbText
 10
5610.578870803749
 20
5528.99934959813
 30
0.0
 40
10.0
  1
246
100
AcDbText
  0
TEXT
  5
358
330
17
100
AcDbEntity
  8
COTA
 62
240
370
25
100
AcDbText
 10
5819.578870803749
 20
5528.970109832059
 30
0.0
 40
10.0
  1
172
100
AcDbText
  0
TEXT
  5
359
330
17
100
AcDbEntity
  8
COTA
 62
240
370
25
100
AcDbText
 10
5696.578870803749
 20
5501.439922506457
 30
0.0
 40
10.0
  1
418
100
AcDbText
  0
TEXT
  5
35A
330
17
100
AcDbEntity
  8
COTA
 62
240
370
25
100
AcDbText
 10
5917.634426359304
 20
5538.772988915621
 30
0.0
 40
10.0
  1
2
100
AcDbText
  0
TEXT
  5
35B
330
17
100
AcDbEntity
  8
COTA
 62
240
370
25
100
AcDbText
 10
5475.523315248186
 20
5538.772988915506
 30
0.0
 40
10.0
  1
2
100
AcDbText
  0
TEXT
  5
35C
330
17
100
AcDbEntity
  8
COTA
 62
240
370
25
100
AcDbText
 10
5609.593424543241
 20
5619.546896323536
 30
0.0
 40
10.0
  1
244
100
AcDbText
  0
TEXT
  5
35D
330
17
100
AcDbEntity
  8
COTA
 62
240
370
25
100
AcDbText
 10
5941.92530069133
 20
5567.436936394998
 30
0.0
 40
10.0
  1
40
 50
90.0
100
AcDbText
  0
TEXT
  5
35E
330
17
100
AcDbEntity
  8
COTA
 62
240
370
25
100
AcDbText
 10
5941.969160340374
 20
5593.436936394998
 30
0.0
 40
10.0
  1
12
 50
90.0
100
AcDbText
  0
TEXT
  5
35F
330
17
100
AcDbEntity
  8
COTA
 62
240
370
25
100
AcDbText
 10
5941.954540457419
 20
5615.302433471022
 30
0.0
 40
10.0
  1
7
 50
90.0
100
AcDbText
  0
TEXT
  5
360
330
17
100
AcDbEntity
  8
COTA
 62
240
370
25
100
AcDbText
 10
5965.975608991581
 20
5576.936936394998
 30
0.0
 40
10.0
  1
59
 50
90.0
100
AcDbText
  0
TEXT
  5
361
330
17
100
AcDbEntity
  8
Texto Seção
 62
3
370
15
100
AcDbText
 10
5303.05097066931
 20
5972.119672599195
 30
0.0
 40
17.0
  1

100
AcDbText
  0
TEXT
  5
362
330
17
100
AcDbEntity
  8
Texto Seção
 62
3
370
15
100
AcDbText
 10
5303.05097066931
 20
5942.219087954873
 30
0.0
 40
12.0
  1

100
AcDbText
  0
TEXT
  5
363
330
17
100
AcDbEntity
  8
Texto Seção
 62
7
370
15
100
AcDbText
 10
5303.05097066931
 20
5916.247659066387
 30
0.0
 40
10.0
  1

100
AcDbText
  0
LINE
  5
364
330
17
100
AcDbEntity
  8
COTA
 62
4
370
25
100
AcDbLine
 10
5682.737227992313
 20
5300.290443580436
 30
0.0
 11
6100.737227992313
 21
5300.290443580436
 31
0.0
  0
LINE
  5
365
330
17
100
AcDbEntity
  8
COTA
 62
0
370
25
100
AcDbLine
 10
5684.237227992313
 20
5301.790443580436
 30
0.0
 11
5681.237227992313
 21
5298.790443580436
 31
0.0
  0
LINE
  5
366
330
17
100
AcDbEntity
  8
COTA
 62
0
370
25
100
AcDbLine
 10
6099.237227992313
 20
5298.790443580436
 30
0.0
 11
6102.237227992313
 21
5301.790443580436
 31
0.0
  0
LINE
  5
367
330
17
100
AcDbEntity
  8
COTA
 62
4
370
25
100
AcDbLine
 10
5227.519459888025
 20
5300.290443580436
 30
0.0
 11
5645.519459888024
 21
5300.290443580436
 31
0.0
  0
LINE
  5
368
330
17
100
AcDbEntity
  8
COTA
 62
0
370
25
100
AcDbLine
 10
5229.019459888025
 20
5301.790443580436
 30
0.0
 11
5226.019459888025
 21
5298.790443580436
 31
0.0
  0
LINE
  5
369
330
17
100
AcDbEntity
  8
COTA
 62
0
370
25
100
AcDbLine
 10
5644.019459888024
 20
5298.790443580436
 30
0.0
 11
5647.019459888024
 21
5301.790443580436
 31
0.0
  0
LINE
  5
36A
330
17
100
AcDbEntity
  8
COTA
 62
4
370
25
100
AcDbLine
 10
5682.737227992313
 20
5274.184677231599
 30
0.0
 11
6100.737227992313
 21
5274.184677231599
 31
0.0
  0
LINE
  5
36B
330
17
100
AcDbEntity
  8
COTA
 62
0
370
25
100
AcDbLine
 10
5684.237227992313
 20
5275.684677231599
 30
0.0
 11
5681.237227992313
 21
5272.684677231599
 31
0.0
  0
LINE
  5
36C
330
17
100
AcDbEntity
  8
COTA
 62
0
370
25
100
AcDbLine
 10
6099.237227992313
 20
5272.684677231599
 30
0.0
 11
6102.237227992313
 21
5275.684677231599
 31
0.0
  0
LINE
  5
36D
330
17
100
AcDbEntity
  8
COTA
 62
4
370
25
100
AcDbLine
 10
6410.922696068714
 20
5300.29044358041
 30
0.0
 11
6164.422696068714
 21
5300.29044358041
 31
0.0
  0
LINE
  5
36E
330
17
100
AcDbEntity
  8
COTA
 62
0
370
25
100
AcDbLine
 10
6409.422696068714
 20
5298.79044358041
 30
0.0
 11
6412.422696068714
 21
5301.79044358041
 31
0.0
  0
LINE
  5
36F
330
17
100
AcDbEntity
  8
COTA
 62
0
370
25
100
AcDbLine
 10
6165.922696068714
 20
5301.79044358041
 30
0.0
 11
6162.922696068714
 21
5298.79044358041
 31
0.0
  0
TEXT
  5
370
330
17
100
AcDbEntity
  8
5
 62
5
370
25
100
AcDbText
 10
6121.222542985228
 20
5278.071033014256
 30
0.0
 40
12.0
  1
V311
 50
3.55024762388e-05
100
AcDbText
  0
TEXT
  5
371
330
17
100
AcDbEntity
  8
5
 62
5
370
25
100
AcDbText
 10
5227.415373564008
 20
5278.324016071313
 30
0.0
 40
12.0
  1
V321
 50
3.55024762388e-05
100
AcDbText
  0
TEXT
  5
372
330
17
100
AcDbEntity
  8
5
 62
5
370
25
100
AcDbText
 10
5644.752685672816
 20
5272.417494321416
 30
0.0
 40
12.0
  1
V319
 50
3.55024762388e-05
100
AcDbText
  0
TEXT
  5
373
330
17
100
AcDbEntity
  8
5
 62
5
370
25
100
AcDbText
 10
6370.446677774225
 20
5282.36435741287
 30
0.0
 40
12.0
  1
VF202
 50
3.55024762388e-05
100
AcDbText
  0
TEXT
  5
374
330
17
100
AcDbEntity
  8
COTA
 62
240
370
25
100
AcDbText
 10
5891.737227992313
 20
5308.385472820203
 30
0.0
 40
10.0
  1
418
100
AcDbText
  0
TEXT
  5
375
330
17
100
AcDbEntity
  8
COTA
 62
240
370
25
100
AcDbText
 10
5436.519459888025
 20
5308.385472820203
 30
0.0
 40
10.0
  1
418
100
AcDbText
  0
TEXT
  5
376
330
17
100
AcDbEntity
  8
COTA
 62
240
370
25
100
AcDbText
 10
5891.737227992313
 20
5282.257776646805
 30
0.0
 40
10.0
  1
4X
100
AcDbText
  0
TEXT
  5
377
330
17
100
AcDbEntity
  8
COTA
 62
240
370
25
100
AcDbText
 10
6287.672696068714
 20
5308.400092703216
 30
0.0
 40
10.0
  1
246.5
100
AcDbText
  0
ENDSEC
  0
SECTION
  2
OBJECTS
  0
DICTIONARY
  5
A
330
0
100
AcDbDictionary
281
1
  3
ACAD_COLOR
350
B
  3
ACAD_GROUP
350
C
  3
ACAD_LAYOUT
350
D
  3
ACAD_MATERIAL
350
E
  3
ACAD_MLEADERSTYLE
350
F
  3
ACAD_MLINESTYLE
350
10
  3
ACAD_PLOTSETTINGS
350
11
  3
ACAD_PLOTSTYLENAME
350
12
  3
ACAD_SCALELIST
350
14
  3
ACAD_TABLESTYLE
350
15
  3
ACAD_VISUALSTYLE
350
16
  3
EZDXF_META
350
2D
  0
DICTIONARY
  5
B
330
A
100
AcDbDictionary
281
1
  0
DICTIONARY
  5
C
330
A
100
AcDbDictionary
281
1
  0
DICTIONARY
  5
D
330
A
100
AcDbDictionary
281
1
  3
Model
350
1A
  3
Layout1
350
1E
  0
DICTIONARY
  5
E
330
A
100
AcDbDictionary
281
1
  3
ByBlock
350
1F
  3
ByLayer
350
20
  3
Global
350
21
  0
DICTIONARY
  5
F
330
A
100
AcDbDictionary
281
1
  3
Standard
350
2C
  0
DICTIONARY
  5
10
330
A
100
AcDbDictionary
281
1
  3
Standard
350
22
  0
DICTIONARY
  5
11
330
A
100
AcDbDictionary
281
1
  0
ACDBDICTIONARYWDFLT
  5
12
330
A
100
AcDbDictionary
281
1
  3
Normal
350
13
100
AcDbDictionaryWithDefault
340
13
  0
ACDBPLACEHOLDER
  5
13
330
12
  0
DICTIONARY
  5
14
330
A
100
AcDbDictionary
281
1
  0
DICTIONARY
  5
15
330
A
100
AcDbDictionary
281
1
  0
DICTIONARY
  5
16
330
A
100
AcDbDictionary
281
1
  0
LAYOUT
  5
1A
330
D
100
AcDbPlotSettings
  1

  4
A3
  6

 40
7.5
 41
20.0
 42
7.5
 43
20.0
 44
420.0
 45
297.0
 46
0.0
 47
0.0
 48
0.0
 49
0.0
140
0.0
141
0.0
142
1.0
143
1.0
 70
1024
 72
1
 73
0
 74
5
  7

 75
16
 76
0
 77
2
 78
300
147
1.0
148
0.0
149
0.0
100
AcDbLayout
  1
Model
 70
1
 71
0
 10
0.0
 20
0.0
 11
420.0
 21
297.0
 12
0.0
 22
0.0
 32
0.0
 14
1e+20
 24
1e+20
 34
1e+20
 15
-1e+20
 25
-1e+20
 35
-1e+20
146
0.0
 13
0.0
 23
0.0
 33
0.0
 16
1.0
 26
0.0
 36
0.0
 17
0.0
 27
1.0
 37
0.0
 76
1
330
17
  0
LAYOUT
  5
1E
330
D
100
AcDbPlotSettings
  1

  4
A3
  6

 40
7.5
 41
20.0
 42
7.5
 43
20.0
 44
420.0
 45
297.0
 46
0.0
 47
0.0
 48
0.0
 49
0.0
140
0.0
141
0.0
142
1.0
143
1.0
 70
0
 72
1
 73
0
 74
5
  7

 75
16
 76
0
 77
2
 78
300
147
1.0
148
0.0
149
0.0
100
AcDbLayout
  1
Layout1
 70
1
 71
1
 10
0.0
 20
0.0
 11
420.0
 21
297.0
 12
0.0
 22
0.0
 32
0.0
 14
1e+20
 24
1e+20
 34
1e+20
 15
-1e+20
 25
-1e+20
 35
-1e+20
146
0.0
 13
0.0
 23
0.0
 33
0.0
 16
1.0
 26
0.0
 36
0.0
 17
0.0
 27
1.0
 37
0.0
 76
1
330
1B
  0
MATERIAL
  5
1F
102
{ACAD_REACTORS
330
E
102
}
330
E
100
AcDbMaterial
  1
ByBlock
  2

 70
0
 40
1.0
 71
1
 41
1.0
 91
-1023410177
 42
1.0
 72
1
  3

 73
1
 74
1
 75
1
 44
0.5
 73
0
 45
1.0
 46
1.0
 77
1
  4

 78
1
 79
1
170
1
 48
1.0
171
1
  6

172
1
173
1
174
1
140
1.0
141
1.0
175
1
  7

176
1
177
1
178
1
143
1.0
179
1
  8

270
1
271
1
272
1
145
1.0
146
1.0
273
1
  9

274
1
275
1
276
1
 42
1.0
 72
1
  3

 73
1
 74
1
 75
1
 94
63
  0
MATERIAL
  5
20
102
{ACAD_REACTORS
330
E
102
}
330
E
100
AcDbMaterial
  1
ByLayer
  2

 70
0
 40
1.0
 71
1
 41
1.0
 91
-1023410177
 42
1.0
 72
1
  3

 73
1
 74
1
 75
1
 44
0.5
 73
0
 45
1.0
 46
1.0
 77
1
  4

 78
1
 79
1
170
1
 48
1.0
171
1
  6

172
1
173
1
174
1
140
1.0
141
1.0
175
1
  7

176
1
177
1
178
1
143
1.0
179
1
  8

270
1
271
1
272
1
145
1.0
146
1.0
273
1
  9

274
1
275
1
276
1
 42
1.0
 72
1
  3

 73
1
 74
1
 75
1
 94
63
  0
MATERIAL
  5
21
102
{ACAD_REACTORS
330
E
102
}
330
E
100
AcDbMaterial
  1
Global
  2

 70
0
 40
1.0
 71
1
 41
1.0
 91
-1023410177
 42
1.0
 72
1
  3

 73
1
 74
1
 75
1
 44
0.5
 73
0
 45
1.0
 46
1.0
 77
1
  4

 78
1
 79
1
170
1
 48
1.0
171
1
  6

172
1
173
1
174
1
140
1.0
141
1.0
175
1
  7

176
1
177
1
178
1
143
1.0
179
1
  8

270
1
271
1
272
1
145
1.0
146
1.0
273
1
  9

274
1
275
1
276
1
 42
1.0
 72
1
  3

 73
1
 74
1
 75
1
 94
63
  0
MLINESTYLE
  5
22
102
{ACAD_REACTORS
330
10
102
}
330
10
100
AcDbMlineStyle
  2
Standard
 70
0
  3

 62
256
 51
90.0
 52
90.0
 71
2
 49
0.5
 62
256
  6
BYLAYER
 49
-0.5
 62
256
  6
BYLAYER
  0
MLEADERSTYLE
  5
2C
102
{ACAD_REACTORS
330
F
102
}
330
F
100
AcDbMLeaderStyle
179
2
170
2
171
1
172
0
 90
2
 40
0.0
 41
0.0
173
1
 91
-1056964608
 92
-2
290
1
 42
2.0
291
1
 43
8.0
  3
Standard
 44
4.0
300

342
29
174
1
175
1
176
0
178
1
 93
-1056964608
 45
4.0
292
0
297
0
 46
4.0
 94
-1056964608
 47
1.0
 49
1.0
140
1.0
294
1
141
0.0
177
0
142
1.0
295
0
296
0
143
3.75
271
0
272
9
273
9
  0
DICTIONARY
  5
2D
330
A
100
AcDbDictionary
280
1
281
1
  3
CREATED_BY_EZDXF
350
2E
  3
WRITTEN_BY_EZDXF
350
37A
  0
DICTIONARYVAR
  5
2E
330
2D
100
DictionaryVariables
280
0
  1
1.4.3 @ 2026-06-10T00:23:43.411776+00:00
  0
DICTIONARYVAR
  5
37A
330
2D
100
DictionaryVariables
280
0
  1
1.4.3 @ 2026-06-10T00:23:43.435639+00:00
  0
ENDSEC
  0
EOF
