  0
SECTION
  2
HEADER
  9
$ACADVER
  1
AC1024
  9
$ACADMAINTVER
 70
6
  9
$DWGCODEPAGE
  3
ANSI_1252
  9
$LASTSAVEDBY
  1
ezdxf
  9
$INSBASE
 10
0.0
 20
0.0
 30
0.0
  9
$EXTMIN
 10
1e+20
 20
1e+20
 30
1e+20
  9
$EXTMAX
 10
-1e+20
 20
-1e+20
 30
-1e+20
  9
$LIMMIN
 10
0.0
 20
0.0
  9
$LIMMAX
 10
420.0
 20
297.0
  9
$ORTHOMODE
 70
0
  9
$REGENMODE
 70
1
  9
$FILLMODE
 70
1
  9
$QTEXTMODE
 70
0
  9
$MIRRTEXT
 70
1
  9
$LTSCALE
 40
1.0
  9
$ATTMODE
 70
1
  9
$TEXTSIZE
 40
2.5
  9
$TRACEWID
 40
1.0
  9
$TEXTSTYLE
  7
Standard
  9
$CLAYER
  8
0
  9
$CELTYPE
  6
ByLayer
  9
$CECOLOR
 62
256
  9
$CELTSCALE
 40
1.0
  9
$DISPSILH
 70
0
  9
$DIMSCALE
 40
1.0
  9
$DIMASZ
 40
2.5
  9
$DIMEXO
 40
0.625
  9
$DIMDLI
 40
3.75
  9
$DIMRND
 40
0.0
  9
$DIMDLE
 40
0.0
  9
$DIMEXE
 40
1.25
  9
$DIMTP
 40
0.0
  9
$DIMTM
 40
0.0
  9
$DIMTXT
 40
2.5
  9
$DIMCEN
 40
2.5
  9
$DIMTSZ
 40
0.0
  9
$DIMTOL
 70
0
  9
$DIMLIM
 70
0
  9
$DIMTIH
 70
0
  9
$DIMTOH
 70
0
  9
$DIMSE1
 70
0
  9
$DIMSE2
 70
0
  9
$DIMTAD
 70
1
  9
$DIMZIN
 70
8
  9
$DIMBLK
  1

  9
$DIMASO
 70
1
  9
$DIMSHO
 70
1
  9
$DIMPOST
  1

  9
$DIMAPOST
  1

  9
$DIMALT
 70
0
  9
$DIMALTD
 70
3
  9
$DIMALTF
 40
0.03937007874
  9
$DIMLFAC
 40
1.0
  9
$DIMTOFL
 70
1
  9
$DIMTVP
 40
0.0
  9
$DIMTIX
 70
0
  9
$DIMSOXD
 70
0
  9
$DIMSAH
 70
0
  9
$DIMBLK1
  1

  9
$DIMBLK2
  1

  9
$DIMSTYLE
  2
ISO-25
  9
$DIMCLRD
 70
0
  9
$DIMCLRE
 70
0
  9
$DIMCLRT
 70
0
  9
$DIMTFAC
 40
1.0
  9
$DIMGAP
 40
0.625
  9
$DIMJUST
 70
0
  9
$DIMSD1
 70
0
  9
$DIMSD2
 70
0
  9
$DIMTOLJ
 70
0
  9
$DIMTZIN
 70
8
  9
$DIMALTZ
 70
0
  9
$DIMALTTZ
 70
0
  9
$DIMUPT
 70
0
  9
$DIMDEC
 70
2
  9
$DIMTDEC
 70
2
  9
$DIMALTU
 70
2
  9
$DIMALTTD
 70
3
  9
$DIMTXSTY
  7
Standard
  9
$DIMAUNIT
 70
0
  9
$DIMADEC
 70
0
  9
$DIMALTRND
 40
0.0
  9
$DIMAZIN
 70
0
  9
$DIMDSEP
 70
44
  9
$DIMATFIT
 70
3
  9
$DIMFRAC
 70
0
  9
$DIMLDRBLK
  1

  9
$DIMLUNIT
 70
2
  9
$DIMLWD
 70
-2
  9
$DIMLWE
 70
-2
  9
$DIMTMOVE
 70
0
  9
$DIMFXL
 40
1.0
  9
$DIMFXLON
 70
0
  9
$DIMJOGANG
 40
0.785398163397
  9
$DIMTFILL
 70
0
  9
$DIMTFILLCLR
 70
0
  9
$DIMARCSYM
 70
0
  9
$DIMLTYPE
  6

  9
$DIMLTEX1
  6

  9
$DIMLTEX2
  6

  9
$DIMTXTDIRECTION
 70
0
  9
$LUNITS
 70
2
  9
$LUPREC
 70
4
  9
$SKETCHINC
 40
1.0
  9
$FILLETRAD
 40
10.0
  9
$AUNITS
 70
0
  9
$AUPREC
 70
2
  9
$MENU
  1
.
  9
$ELEVATION
 40
0.0
  9
$PELEVATION
 40
0.0
  9
$THICKNESS
 40
0.0
  9
$LIMCHECK
 70
0
  9
$CHAMFERA
 40
0.0
  9
$CHAMFERB
 40
0.0
  9
$CHAMFERC
 40
0.0
  9
$CHAMFERD
 40
0.0
  9
$SKPOLY
 70
0
  9
$TDCREATE
 40
2461202.579247685
  9
$TDUCREATE
 40
2458532.153996898
  9
$TDUPDATE
 40
2461202.579247685
  9
$TDUUPDATE
 40
2458532.1544311
  9
$TDINDWG
 40
0.0
  9
$TDUSRTIMER
 40
0.0
  9
$USRTIMER
 70
1
  9
$ANGBASE
 50
0.0
  9
$ANGDIR
 70
0
  9
$PDMODE
 70
0
  9
$PDSIZE
 40
0.0
  9
$PLINEWID
 40
0.0
  9
$SPLFRAME
 70
0
  9
$SPLINETYPE
 70
6
  9
$SPLINESEGS
 70
8
  9
$HANDSEED
  5
2B0
  9
$SURFTAB1
 70
6
  9
$SURFTAB2
 70
6
  9
$SURFTYPE
 70
6
  9
$SURFU
 70
6
  9
$SURFV
 70
6
  9
$UCSBASE
  2

  9
$UCSNAME
  2

  9
$UCSORG
 10
0.0
 20
0.0
 30
0.0
  9
$UCSXDIR
 10
1.0
 20
0.0
 30
0.0
  9
$UCSYDIR
 10
0.0
 20
1.0
 30
0.0
  9
$UCSORTHOREF
  2

  9
$UCSORTHOVIEW
 70
0
  9
$UCSORGTOP
 10
0.0
 20
0.0
 30
0.0
  9
$UCSORGBOTTOM
 10
0.0
 20
0.0
 30
0.0
  9
$UCSORGLEFT
 10
0.0
 20
0.0
 30
0.0
  9
$UCSORGRIGHT
 10
0.0
 20
0.0
 30
0.0
  9
$UCSORGFRONT
 10
0.0
 20
0.0
 30
0.0
  9
$UCSORGBACK
 10
0.0
 20
0.0
 30
0.0
  9
$PUCSBASE
  2

  9
$PUCSNAME
  2

  9
$PUCSORG
 10
0.0
 20
0.0
 30
0.0
  9
$PUCSXDIR
 10
1.0
 20
0.0
 30
0.0
  9
$PUCSYDIR
 10
0.0
 20
1.0
 30
0.0
  9
$PUCSORTHOREF
  2

  9
$PUCSORTHOVIEW
 70
0
  9
$PUCSORGTOP
 10
0.0
 20
0.0
 30
0.0
  9
$PUCSORGBOTTOM
 10
0.0
 20
0.0
 30
0.0
  9
$PUCSORGLEFT
 10
0.0
 20
0.0
 30
0.0
  9
$PUCSORGRIGHT
 10
0.0
 20
0.0
 30
0.0
  9
$PUCSORGFRONT
 10
0.0
 20
0.0
 30
0.0
  9
$PUCSORGBACK
 10
0.0
 20
0.0
 30
0.0
  9
$USERI1
 70
0
  9
$USERI2
 70
0
  9
$USERI3
 70
0
  9
$USERI4
 70
0
  9
$USERI5
 70
0
  9
$USERR1
 40
0.0
  9
$USERR2
 40
0.0
  9
$USERR3
 40
0.0
  9
$USERR4
 40
0.0
  9
$USERR5
 40
0.0
  9
$WORLDVIEW
 70
1
  9
$SHADEDGE
 70
3
  9
$SHADEDIF
 70
70
  9
$TILEMODE
 70
1
  9
$MAXACTVP
 70
64
  9
$PINSBASE
 10
0.0
 20
0.0
 30
0.0
  9
$PLIMCHECK
 70
0
  9
$PEXTMIN
 10
1e+20
 20
1e+20
 30
1e+20
  9
$PEXTMAX
 10
-1e+20
 20
-1e+20
 30
-1e+20
  9
$PLIMMIN
 10
0.0
 20
0.0
  9
$PLIMMAX
 10
420.0
 20
297.0
  9
$UNITMODE
 70
0
  9
$VISRETAIN
 70
1
  9
$PLINEGEN
 70
0
  9
$PSLTSCALE
 70
1
  9
$TREEDEPTH
 70
3020
  9
$CMLSTYLE
  2
Standard
  9
$CMLJUST
 70
0
  9
$CMLSCALE
 40
20.0
  9
$PROXYGRAPHICS
 70
1
  9
$MEASUREMENT
 70
1
  9
$CELWEIGHT
370
-1
  9
$ENDCAPS
280
0
  9
$JOINSTYLE
280
0
  9
$LWDISPLAY
290
0
  9
$INSUNITS
 70
6
  9
$HYPERLINKBASE
  1

  9
$STYLESHEET
  1

  9
$XEDIT
290
1
  9
$CEPSNTYPE
380
0
  9
$PSTYLEMODE
290
1
  9
$FINGERPRINTGUID
  2
{9A9AD23D-DC58-4A8E-AEA4-A13AF4A32E39}
  9
$VERSIONGUID
  2
{43CE9A1E-1718-40F6-87DF-6DCCA2FF0AC3}
  9
$EXTNAMES
290
1
  9
$PSVPSCALE
 40
0.0
  9
$OLESTARTUP
290
0
  9
$SORTENTS
280
127
  9
$INDEXCTL
280
0
  9
$HIDETEXT
280
1
  9
$XCLIPFRAME
280
1
  9
$HALOGAP
280
0
  9
$OBSCOLOR
 70
257
  9
$OBSLTYPE
280
0
  9
$INTERSECTIONDISPLAY
280
0
  9
$INTERSECTIONCOLOR
 70
257
  9
$DIMASSOC
280
2
  9
$PROJECTNAME
  1

  9
$CAMERADISPLAY
290
0
  9
$LENSLENGTH
 40
50.0
  9
$CAMERAHEIGHT
 40
0.0
  9
$STEPSPERSEC
 40
24.0
  9
$STEPSIZE
 40
100.0
  9
$3DDWFPREC
 40
2.0
  9
$PSOLWIDTH
 40
0.005
  9
$PSOLHEIGHT
 40
0.08
  9
$LOFTANG1
 40
1.570796326795
  9
$LOFTANG2
 40
1.570796326795
  9
$LOFTMAG1
 40
0.0
  9
$LOFTMAG2
 40
0.0
  9
$LOFTPARAM
 70
7
  9
$LOFTNORMALS
280
1
  9
$LATITUDE
 40
37.795
  9
$LONGITUDE
 40
-122.394
  9
$NORTHDIRECTION
 40
0.0
  9
$TIMEZONE
 70
-8000
  9
$LIGHTGLYPHDISPLAY
280
1
  9
$TILEMODELIGHTSYNCH
280
1
  9
$CMATERIAL
347
20
  9
$SOLIDHIST
280
0
  9
$SHOWHIST
280
1
  9
$DWFFRAME
280
2
  9
$DGNFRAME
280
2
  9
$REALWORLDSCALE
290
1
  9
$INTERFERECOLOR
 62
256
  9
$CSHADOW
280
0
  9
$SHADOWPLANELOCATION
 40
0.0
  0
ENDSEC
  0
SECTION
  2
CLASSES
  0
CLASS
  1
ACDBDICTIONARYWDFLT
  2
AcDbDictionaryWithDefault
  3
ObjectDBX Classes
 90
0
 91
0
280
0
281
0
  0
CLASS
  1
SUN
  2
AcDbSun
  3
SCENEOE
 90
1153
 91
0
280
0
281
0
  0
CLASS
  1
VISUALSTYLE
  2
AcDbVisualStyle
  3
ObjectDBX Classes
 90
4095
 91
0
280
0
281
0
  0
CLASS
  1
MATERIAL
  2
AcDbMaterial
  3
ObjectDBX Classes
 90
1153
 91
0
280
0
281
0
  0
CLASS
  1
SCALE
  2
AcDbScale
  3
ObjectDBX Classes
 90
1153
 91
0
280
0
281
0
  0
CLASS
  1
TABLESTYLE
  2
AcDbTableStyle
  3
ObjectDBX Classes
 90
4095
 91
0
280
0
281
0
  0
CLASS
  1
MLEADERSTYLE
  2
AcDbMLeaderStyle
  3
ACDB_MLEADERSTYLE_CLASS
 90
4095
 91
0
280
0
281
0
  0
CLASS
  1
DICTIONARYVAR
  2
AcDbDictionaryVar
  3
ObjectDBX Classes
 90
0
 91
0
280
0
281
0
  0
CLASS
  1
CELLSTYLEMAP
  2
AcDbCellStyleMap
  3
ObjectDBX Classes
 90
1152
 91
0
280
0
281
0
  0
CLASS
  1
MENTALRAYRENDERSETTINGS
  2
AcDbMentalRayRenderSettings
  3
SCENEOE
 90
1024
 91
0
280
0
281
0
  0
CLASS
  1
ACDBDETAILVIEWSTYLE
  2
AcDbDetailViewStyle
  3
ObjectDBX Classes
 90
1025
 91
0
280
0
281
0
  0
CLASS
  1
ACDBSECTIONVIEWSTYLE
  2
AcDbSectionViewStyle
  3
ObjectDBX Classes
 90
1025
 91
0
280
0
281
0
  0
CLASS
  1
RASTERVARIABLES
  2
AcDbRasterVariables
  3
ISM
 90
0
 91
0
280
0
281
0
  0
CLASS
  1
LAYOUT
  2
AcDbLayout
  3
ObjectDBX Classes
 90
0
 91
0
280
0
281
0
  0
CLASS
  1
ACDBPLACEHOLDER
  2
AcDbPlaceHolder
  3
ObjectDBX Classes
 90
0
 91
0
280
0
281
0
  0
ENDSEC
  0
SECTION
  2
TABLES
  0
TABLE
  2
VPORT
  5
8
330
0
100
AcDbSymbolTable
 70
1
  0
VPORT
  5
23
330
8
100
AcDbSymbolTableRecord
100
AcDbViewportTableRecord
  2
*Active
 70
0
 10
0.0
 20
0.0
 11
1.0
 21
1.0
 12
0.0
 22
0.0
 13
0.0
 23
0.0
 14
0.5
 24
0.5
 15
0.5
 25
0.5
 16
0.0
 26
0.0
 36
1.0
 17
0.0
 27
0.0
 37
0.0
 40
1000.0
 41
1.34
 42
50.0
 43
0.0
 44
0.0
 50
0.0
 51
0.0
 71
0
 72
1000
 73
1
 74
3
 75
0
 76
0
 77
0
 78
0
281
0
 65
0
146
0.0
  0
ENDTAB
  0
TABLE
  2
LTYPE
  5
2
330
0
100
AcDbSymbolTable
 70
3
  0
LTYPE
  5
24
330
2
100
AcDbSymbolTableRecord
100
AcDbLinetypeTableRecord
  2
ByBlock
 70
0
  3

 72
65
 73
0
 40
0.0
  0
LTYPE
  5
25
330
2
100
AcDbSymbolTableRecord
100
AcDbLinetypeTableRecord
  2
ByLayer
 70
0
  3

 72
65
 73
0
 40
0.0
  0
LTYPE
  5
26
330
2
100
AcDbSymbolTableRecord
100
AcDbLinetypeTableRecord
  2
Continuous
 70
0
  3

 72
65
 73
0
 40
0.0
  0
ENDTAB
  0
TABLE
  2
LAYER
  5
1
330
0
100
AcDbSymbolTable
 70
14
  0
LAYER
  5
27
330
1
100
AcDbSymbolTableRecord
100
AcDbLayerTableRecord
  2
0
 70
0
 62
7
  6
Continuous
370
-3
390
13
347
21
  0
LAYER
  5
28
330
1
100
AcDbSymbolTableRecord
100
AcDbLayerTableRecord
  2
Defpoints
 70
0
 62
7
  6
Continuous
290
0
370
-3
390
13
347
21
  0
LAYER
  5
2F
330
1
100
AcDbSymbolTableRecord
100
AcDbLayerTableRecord
  2
COTA
 70
0
 62
7
  6
Continuous
370
-3
390
13
347
21
  0
LAYER
  5
30
330
1
100
AcDbSymbolTableRecord
100
AcDbLayerTableRecord
  2
Perfil Metálico
 70
0
 62
7
  6
Continuous
370
-3
390
13
347
21
  0
LAYER
  5
31
330
1
100
AcDbSymbolTableRecord
100
AcDbLayerTableRecord
  2
TEXTO_GERAL
 70
0
 62
7
  6
Continuous
370
-3
390
13
347
21
  0
LAYER
  5
32
330
1
100
AcDbSymbolTableRecord
100
AcDbLayerTableRecord
  2
Hachura
 70
0
 62
7
  6
Continuous
370
-3
390
13
347
21
  0
LAYER
  5
33
330
1
100
AcDbSymbolTableRecord
100
AcDbLayerTableRecord
  2
Painéis
 70
0
 62
7
  6
Continuous
370
-3
390
13
347
21
  0
LAYER
  5
34
330
1
100
AcDbSymbolTableRecord
100
AcDbLayerTableRecord
  2
Madeira
 70
0
 62
7
  6
Continuous
370
-3
390
13
347
21
  0
LAYER
  5
35
330
1
100
AcDbSymbolTableRecord
100
AcDbLayerTableRecord
  2
CHAPA
 70
0
 62
7
  6
Continuous
370
-3
390
13
347
21
  0
LAYER
  5
36
330
1
100
AcDbSymbolTableRecord
100
AcDbLayerTableRecord
  2
SARR_2.2x7
 70
0
 62
7
  6
Continuous
370
-3
390
13
347
21
  0
LAYER
  5
37
330
1
100
AcDbSymbolTableRecord
100
AcDbLayerTableRecord
  2
SARRAFO
 70
0
 62
7
  6
Continuous
370
-3
390
13
347
21
  0
LAYER
  5
38
330
1
100
AcDbSymbolTableRecord
100
AcDbLayerTableRecord
  2
NOMENCLATURA
 70
0
 62
7
  6
Continuous
370
-3
390
13
347
21
  0
LAYER
  5
39
330
1
100
AcDbSymbolTableRecord
100
AcDbLayerTableRecord
  2
Nível
 70
0
 62
7
  6
Continuous
370
-3
390
13
347
21
  0
LAYER
  5
3A
330
1
100
AcDbSymbolTableRecord
100
AcDbLayerTableRecord
  2
Texto Seção
 70
0
 62
7
  6
Continuous
370
-3
390
13
347
21
  0
ENDTAB
  0
TABLE
  2
STYLE
  5
5
330
0
100
AcDbSymbolTable
 70
1
  0
STYLE
  5
29
330
5
100
AcDbSymbolTableRecord
100
AcDbTextStyleTableRecord
  2
Standard
 70
0
 40
0.0
 41
1.0
 50
0.0
 71
0
 42
2.5
  3
txt
  4

  0
ENDTAB
  0
TABLE
  2
VIEW
  5
7
330
0
100
AcDbSymbolTable
 70
0
  0
ENDTAB
  0
TABLE
  2
UCS
  5
6
330
0
100
AcDbSymbolTable
 70
0
  0
ENDTAB
  0
TABLE
  2
APPID
  5
3
330
0
100
AcDbSymbolTable
 70
3
  0
APPID
  5
2A
330
3
100
AcDbSymbolTableRecord
100
AcDbRegAppTableRecord
  2
ACAD
 70
0
  0
APPID
  5
2AD
330
3
100
AcDbSymbolTableRecord
100
AcDbRegAppTableRecord
  2
HATCHBACKGROUNDCOLOR
 70
0
  0
APPID
  5
2AE
330
3
100
AcDbSymbolTableRecord
100
AcDbRegAppTableRecord
  2
EZDXF
 70
0
  0
ENDTAB
  0
TABLE
  2
DIMSTYLE
  5
4
330
0
100
AcDbSymbolTable
 70
1
100
AcDbDimStyleTable
  0
DIMSTYLE
105
2B
330
4
100
AcDbSymbolTableRecord
100
AcDbDimStyleTableRecord
  2
Standard
 70
0
 40
1.0
 41
2.5
 42
0.625
 43
3.75
 44
1.25
 45
0.0
 46
0.0
 47
0.0
 48
0.0
 49
2.5
140
2.5
141
2.5
142
0.0
143
0.03937007874
144
1.0
145
0.0
146
1.0
147
0.625
148
0.0
 69
0
 70
0
 71
0
 72
0
 73
0
 74
0
 75
0
 76
0
 77
1
 78
8
 79
3
170
0
171
3
172
1
173
0
174
0
175
0
176
0
177
0
178
0
179
2
271
2
272
2
273
2
274
3
275
0
276
0
277
2
278
44
279
0
280
0
281
0
282
0
283
0
284
8
285
0
286
0
288
0
289
3
290
0
371
-2
372
-2
  0
ENDTAB
  0
TABLE
  2
BLOCK_RECORD
  5
9
330
0
100
AcDbSymbolTable
 70
2
  0
BLOCK_RECORD
  5
17
330
9
100
AcDbSymbolTableRecord
100
AcDbBlockTableRecord
  2
*Model_Space
340
1A
 70
0
280
1
281
0
  0
BLOCK_RECORD
  5
1B
330
9
100
AcDbSymbolTableRecord
100
AcDbBlockTableRecord
  2
*Paper_Space
340
1E
 70
0
280
1
281
0
  0
ENDTAB
  0
ENDSEC
  0
SECTION
  2
BLOCKS
  0
BLOCK
  5
18
330
17
100
AcDbEntity
  8
0
100
AcDbBlockBegin
  2
*Model_Space
 70
0
 10
0.0
 20
0.0
 30
0.0
  3
*Model_Space
  1

  0
ENDBLK
  5
19
330
17
100
AcDbEntity
  8
0
100
AcDbBlockEnd
  0
BLOCK
  5
1C
330
1B
100
AcDbEntity
  8
0
100
AcDbBlockBegin
  2
*Paper_Space
 70
0
 10
0.0
 20
0.0
 30
0.0
  3
*Paper_Space
  1

  0
ENDBLK
  5
1D
330
1B
100
AcDbEntity
  8
0
100
AcDbBlockEnd
  0
ENDSEC
  0
SECTION
  2
ENTITIES
  0
LINE
  5
3B
330
17
100
AcDbEntity
  8
Nível
 62
7
370
25
100
AcDbLine
 10
3879.563442953499
 20
11155.31167626382
 30
0.0
 11
4821.584230958514
 21
11155.31167626382
 31
0.0
  0
LINE
  5
3C
330
17
100
AcDbEntity
  8
Nível
 62
7
370
25
100
AcDbLine
 10
3981.749427194678
 20
10832.31167626382
 30
0.0
 11
4821.584230958514
 21
10832.31167626382
 31
0.0
  0
LINE
  5
3D
330
17
100
AcDbEntity
  8
Defpoints
 62
7
370
25
100
AcDbLine
 10
3659.816752946528
 20
11378.02854158397
 30
0.0
 11
3659.816752946528
 21
11503.02854158397
 31
0.0
  0
LINE
  5
3E
330
17
100
AcDbEntity
  8
SARR_2.2x7
 62
7
370
25
100
AcDbLine
 10
4104.213380358662
 20
10834.31167626382
 30
0.0
 11
4104.213380358662
 21
10956.31167626382
 31
0.0
  0
LINE
  5
3F
330
17
100
AcDbEntity
  8
SARR_2.2x7
 62
7
370
25
100
AcDbLine
 10
4104.213380358546
 20
10956.31167626384
 30
0.0
 11
4104.213380358589
 21
11081.31167626382
 31
0.0
  0
LINE
  5
40
330
17
100
AcDbEntity
  8
SARR_2.2x7
 62
7
370
25
100
AcDbLine
 10
4172.213380358604
 20
10834.31167626384
 30
0.0
 11
4172.213380358604
 21
10956.31167626382
 31
0.0
  0
LINE
  5
41
330
17
100
AcDbEntity
  8
SARR_2.2x7
 62
7
370
25
100
AcDbLine
 10
4172.213380358487
 20
10956.31167626384
 30
0.0
 11
4172.213380358571
 21
11081.31167626382
 31
0.0
  0
LINE
  5
42
330
17
100
AcDbEntity
  8
SARR_2.2x7
 62
7
370
25
100
AcDbLine
 10
4104.213380358662
 20
10834.31167626382
 30
0.0
 11
4104.213380358662
 21
10834.31167626385
 31
0.0
  0
LINE
  5
43
330
17
100
AcDbEntity
  8
SARR_2.2x7
 62
7
370
25
100
AcDbLine
 10
4172.213380358604
 20
10834.31167626384
 30
0.0
 11
4172.213380358604
 21
10834.31167626382
 31
0.0
  0
LINE
  5
44
330
17
100
AcDbEntity
  8
COTA
 62
7
370
25
100
AcDbLine
 10
4179.213380358439
 20
11155.31167626382
 30
0.0
 11
4097.213380358661
 21
11155.31167626382
 31
0.0
  0
LINE
  5
45
330
17
100
AcDbEntity
  8
Painéis
 62
7
370
25
100
AcDbLine
 10
4179.213380358662
 20
10832.31167626331
 30
0.0
 11
4179.213380358528
 21
11081.31167626382
 31
0.0
  0
LINE
  5
46
330
17
100
AcDbEntity
  8
Painéis
 62
7
370
25
100
AcDbLine
 10
4097.213380358661
 20
11081.31167626382
 30
0.0
 11
4097.213380358659
 21
10832.31167626334
 31
0.0
  0
LINE
  5
47
330
17
100
AcDbEntity
  8
Painéis
 62
7
370
25
100
AcDbLine
 10
4097.213380358659
 20
10834.31167626382
 30
0.0
 11
4179.213380358662
 21
10834.31167626382
 31
0.0
  0
LINE
  5
48
330
17
100
AcDbEntity
  8
Hachura
 62
7
370
25
100
AcDbLine
 10
3747.8507057684405
 20
11318.971137581197
 30
0.0
 11
3747.8507057684405
 21
11319.61606003603
 31
0.0
  0
LINE
  5
49
330
17
100
AcDbEntity
  8
Hachura
 62
7
370
25
100
AcDbLine
 10
3747.8507057684405
 20
11320.13199799561
 30
0.0
 11
3745.915938403938
 21
11319.164614313357
 31
0.0
  0
LINE
  5
4A
330
17
100
AcDbEntity
  8
Hachura
 62
7
370
25
100
AcDbLine
 10
3747.923389099287
 20
11320.039355155059
 30
0.0
 11
3745.757776341729
 21
11318.956548819158
 31
0.0
  0
LINE
  5
4B
330
17
100
AcDbEntity
  8
Hachura
 62
7
370
25
100
AcDbLine
 10
3745.816214232151
 20
11318.7277987417
 30
0.0
 11
3747.9567919008164
 21
11319.798087597472
 31
0.0
  0
LINE
  5
4C
330
17
100
AcDbEntity
  8
Hachura
 62
7
370
25
100
AcDbLine
 10
3745.915938403938
 20
11318.648676353781
 30
0.0
 11
3747.8507057684405
 21
11319.61606003603
 31
0.0
  0
LINE
  5
4D
330
17
100
AcDbEntity
  8
Hachura
 62
7
370
25
100
AcDbLine
 10
3745.915938403938
 20
11318.003753898947
 30
0.0
 11
3745.915938403938
 21
11318.648676353781
 31
0.0
  0
LINE
  5
4E
330
17
100
AcDbEntity
  8
Hachura
 62
7
370
25
100
AcDbLine
 10
3745.915938403938
 20
11316.326955514234
 30
0.0
 11
3745.915938403938
 21
11315.6820330594
 31
0.0
  0
LINE
  5
4F
330
17
100
AcDbEntity
  8
Hachura
 62
7
370
25
100
AcDbLine
 10
3745.915938403938
 20
11317.275961279529
 30
0.0
 11
3745.915938403938
 21
11317.487815928645
 31
0.0
  0
LINE
  5
50
330
17
100
AcDbEntity
  8
Hachura
 62
7
370
25
100
AcDbLine
 10
3745.915938403938
 20
11317.275961279529
 30
0.0
 11
3745.915938403938
 21
11316.842893473815
 31
0.0
  0
LINE
  5
51
330
17
100
AcDbEntity
  8
Hachura
 62
7
370
25
100
AcDbLine
 10
3747.8507057684405
 20
11317.810277156064
 30
0.0
 11
3747.8507057684405
 21
11318.455199610898
 31
0.0
  0
LINE
  5
52
330
17
100
AcDbEntity
  8
Hachura
 62
7
370
25
100
AcDbLine
 10
3747.8507057684405
 20
11316.64941674165
 30
0.0
 11
3747.8507057684405
 21
11317.294339196484
 31
0.0
  0
LINE
  5
53
330
17
100
AcDbEntity
  8
Hachura
 62
7
370
25
100
AcDbLine
 10
3747.8507057684405
 20
11318.971137581197
 30
0.0
 11
3745.915938403938
 21
11318.003753898947
 31
0.0
  0
LINE
  5
54
330
17
100
AcDbEntity
  8
Hachura
 62
7
370
25
100
AcDbLine
 10
3747.923389099287
 20
11318.878494729926
 30
0.0
 11
3745.757776341729
 21
11317.795688394026
 31
0.0
  0
LINE
  5
55
330
17
100
AcDbEntity
  8
Hachura
 62
7
370
25
100
AcDbLine
 10
3745.816214232151
 20
11317.56693832729
 30
0.0
 11
3747.9567919008164
 21
11318.63722717234
 31
0.0
  0
LINE
  5
56
330
17
100
AcDbEntity
  8
Hachura
 62
7
370
25
100
AcDbLine
 10
3745.915938403938
 20
11317.487815928645
 30
0.0
 11
3747.8507057684405
 21
11318.455199610898
 31
0.0
  0
LINE
  5
57
330
17
100
AcDbEntity
  8
Hachura
 62
7
370
25
100
AcDbLine
 10
3747.8507057684405
 20
11316.64941674165
 30
0.0
 11
3745.915938403938
 21
11315.6820330594
 31
0.0
  0
LINE
  5
58
330
17
100
AcDbEntity
  8
Hachura
 62
7
370
25
100
AcDbLine
 10
3747.8507057684405
 20
11317.810277156064
 30
0.0
 11
3745.915938403938
 21
11316.842893473815
 31
0.0
  0
LINE
  5
59
330
17
100
AcDbEntity
  8
Hachura
 62
7
370
25
100
AcDbLine
 10
3747.923389099287
 20
11317.717634315512
 30
0.0
 11
3745.757776341729
 21
11316.634827979611
 31
0.0
  0
LINE
  5
5A
330
17
100
AcDbEntity
  8
Hachura
 62
7
370
25
100
AcDbLine
 10
3745.816214232151
 20
11316.406077912876
 30
0.0
 11
3747.9567919008164
 21
11317.476366757925
 31
0.0
  0
LINE
  5
5B
330
17
100
AcDbEntity
  8
Hachura
 62
7
370
25
100
AcDbLine
 10
3745.915938403938
 20
11316.326955514234
 30
0.0
 11
3747.8507057684405
 21
11317.294339196484
 31
0.0
  0
LINE
  5
5C
330
17
100
AcDbEntity
  8
Hachura
 62
7
370
25
100
AcDbLine
 10
3746.173700074373
 20
11320.454355584428
 30
0.0
 11
3745.915938403938
 21
11320.325474727772
 31
0.0
  0
LINE
  5
5D
330
17
100
AcDbEntity
  8
Hachura
 62
7
370
25
100
AcDbLine
 10
3746.4316690648825
 20
11320.454355584428
 30
0.0
 11
3745.757776341729
 21
11320.11740922285
 31
0.0
  0
LINE
  5
5E
330
17
100
AcDbEntity
  8
Hachura
 62
7
370
25
100
AcDbLine
 10
3745.915938403938
 20
11320.325474727772
 30
0.0
 11
3745.915938403938
 21
11320.454355584428
 31
0.0
  0
LINE
  5
5F
330
17
100
AcDbEntity
  8
Hachura
 62
7
370
25
100
AcDbLine
 10
3745.9177301896584
 20
11320.452745487846
 30
0.0
 11
3746.2401914170755
 21
11320.775206736704
 31
0.0
  0
LINE
  5
60
330
17
100
AcDbEntity
  8
Hachura
 62
7
370
25
100
AcDbLine
 10
3745.915938403938
 20
11319.80953676819
 30
0.0
 11
3745.915938403938
 21
11319.164614313357
 31
0.0
  0
LINE
  5
61
330
17
100
AcDbEntity
  8
Hachura
 62
7
370
25
100
AcDbLine
 10
3747.8507057684405
 20
11320.13199799561
 30
0.0
 11
3747.8507057684405
 21
11320.454355584428
 31
0.0
  0
LINE
  5
62
330
17
100
AcDbEntity
  8
Hachura
 62
7
370
25
100
AcDbLine
 10
3747.852583054932
 20
11320.452745509285
 30
0.0
 11
3747.852583054932
 21
11320.452668091211
 31
0.0
  0
LINE
  5
63
330
17
100
AcDbEntity
  8
Hachura
 62
7
370
25
100
AcDbLine
 10
3747.852583054932
 20
11320.452745509285
 30
0.0
 11
3747.530036326744
 21
11320.775206736704
 31
0.0
  0
LINE
  5
64
330
17
100
AcDbEntity
  8
Hachura
 62
7
370
25
100
AcDbLine
 10
3747.8507057684405
 20
11318.24334495106
 30
0.0
 11
3747.8507057684405
 21
11318.455199600176
 31
0.0
  0
LINE
  5
65
330
17
100
AcDbEntity
  8
Hachura
 62
7
370
25
100
AcDbLine
 10
3745.816214232151
 20
11319.888659156115
 30
0.0
 11
3746.9476070459
 21
11320.454355584428
 31
0.0
  0
LINE
  5
66
330
17
100
AcDbEntity
  8
Hachura
 62
7
370
25
100
AcDbLine
 10
3745.915938403938
 20
11319.80953676819
 30
0.0
 11
3747.2055759935306
 21
11320.454355584428
 31
0.0
  0
LINE
  5
67
330
17
100
AcDbEntity
  8
Hachura
 62
7
370
25
100
AcDbLine
 10
3747.530036326744
 20
11320.775206736704
 30
0.0
 11
3746.2401914170755
 21
11320.775206736704
 31
0.0
  0
LINE
  5
68
330
17
100
AcDbEntity
  8
Hachura
 62
7
370
25
100
AcDbLine
 10
3747.8507057684405
 20
11320.13199799561
 30
0.0
 11
3745.915938403938
 21
11319.164614313357
 31
0.0
  0
LINE
  5
69
330
17
100
AcDbEntity
  8
Hachura
 62
7
370
25
100
AcDbLine
 10
3745.9177301896584
 20
11320.452745487846
 30
0.0
 11
3747.852497554161
 21
11320.452745487846
 31
0.0
  0
LINE
  5
6A
330
17
100
AcDbEntity
  8
Hachura
 62
7
370
25
100
AcDbLine
 10
3741.3223749118138
 20
11308.97483953127
 30
0.0
 11
3749.1370366564447
 21
11308.97483953127
 31
0.0
  0
LINE
  5
6B
330
17
100
AcDbEntity
  8
Hachura
 62
7
370
25
100
AcDbLine
 10
3745.142031432411
 20
11315.6820330594
 30
0.0
 11
3748.4956282232747
 21
11315.6820330594
 31
0.0
  0
LINE
  5
6C
330
17
100
AcDbEntity
  8
Hachura
 62
7
370
25
100
AcDbLine
 10
3745.142031432411
 20
11315.614316202073
 30
0.0
 11
3748.4956282232747
 21
11315.614316202073
 31
0.0
  0
LINE
  5
6D
330
17
100
AcDbEntity
  8
Hachura
 62
7
370
25
100
AcDbLine
 10
3748.7535971709062
 20
11312.457420785231
 30
0.0
 11
3744.8840624419013
 21
11312.457420785231
 31
0.0
  0
LINE
  5
6E
330
17
100
AcDbEntity
  8
Hachura
 62
7
370
25
100
AcDbLine
 10
3753.2680543547426
 20
11309.877730965894
 30
0.0
 11
3740.369605258064
 21
11309.877730965894
 31
0.0
  0
LINE
  5
6F
330
17
100
AcDbEntity
  8
Hachura
 62
7
370
25
100
AcDbLine
 10
3740.369605258064
 20
11308.97483953127
 30
0.0
 11
3753.2645125903496
 21
11308.97483953127
 31
0.0
  0
LINE
  5
70
330
17
100
AcDbEntity
  8
Hachura
 62
7
370
25
100
AcDbLine
 10
3747.463752261238
 20
11315.6820330594
 30
0.0
 11
3747.463752261238
 21
11312.457420785231
 31
0.0
  0
LINE
  5
71
330
17
100
AcDbEntity
  8
Hachura
 62
7
370
25
100
AcDbLine
 10
3748.4956282232747
 20
11315.6820330594
 30
0.0
 11
3748.4956282232747
 21
11312.457420785231
 31
0.0
  0
LINE
  5
72
330
17
100
AcDbEntity
  8
Hachura
 62
7
370
25
100
AcDbLine
 10
3746.8188298064038
 20
11309.877730965894
 30
0.0
 11
3748.7535971709062
 21
11309.877730965894
 31
0.0
  0
LINE
  5
73
330
17
100
AcDbEntity
  8
Hachura
 62
7
370
25
100
AcDbLine
 10
3748.108674716072
 20
11309.877730965894
 30
0.0
 11
3747.463752261238
 21
11309.877730965894
 31
0.0
  0
LINE
  5
74
330
17
100
AcDbEntity
  8
Hachura
 62
7
370
25
100
AcDbLine
 10
3746.824470168765
 20
11309.877730965894
 30
0.0
 11
3746.824470168765
 21
11308.97483953127
 31
0.0
  0
LINE
  5
75
330
17
100
AcDbEntity
  8
Hachura
 62
7
370
25
100
AcDbLine
 10
3747.1310118601136
 20
11309.877730965894
 30
0.0
 11
3747.1310118601136
 21
11311.876890155352
 31
0.0
  0
LINE
  5
76
330
17
100
AcDbEntity
  8
Hachura
 62
7
370
25
100
AcDbLine
 10
3746.6150738790943
 20
11311.876890155352
 30
0.0
 11
3746.6150738790943
 21
11309.877730965894
 31
0.0
  0
LINE
  5
77
330
17
100
AcDbEntity
  8
Hachura
 62
7
370
25
100
AcDbLine
 10
3749.858706430136
 20
11309.896005522962
 30
0.0
 11
3749.858706430136
 21
11308.968782847882
 31
0.0
  0
LINE
  5
78
330
17
100
AcDbEntity
  8
Hachura
 62
7
370
25
100
AcDbLine
 10
3747.7784454391517
 20
11309.124885409194
 30
0.0
 11
3747.7784454391517
 21
11309.557953214913
 31
0.0
  0
LINE
  5
79
330
17
100
AcDbEntity
  8
Hachura
 62
7
370
25
100
AcDbLine
 10
3748.7535971709062
 20
11309.877730965894
 30
0.0
 11
3748.7535971709062
 21
11312.457420785231
 31
0.0
  0
LINE
  5
7A
330
17
100
AcDbEntity
  8
Hachura
 62
7
370
25
100
AcDbLine
 10
3747.7784454391517
 20
11309.557953214913
 30
0.0
 11
3747.7784454391517
 21
11309.769807864028
 31
0.0
  0
LINE
  5
7B
330
17
100
AcDbEntity
  8
Hachura
 62
7
370
25
100
AcDbLine
 10
3753.2645125903496
 20
11308.97483953127
 30
0.0
 11
3753.2645125903496
 21
11314.111508113358
 31
0.0
  0
LINE
  5
7C
330
17
100
AcDbEntity
  8
Hachura
 62
7
370
25
100
AcDbLine
 10
3751.59125598075
 20
11314.134219169942
 30
0.0
 11
3751.0095959066953
 21
11311.92391085209
 31
0.0
  0
LINE
  5
7D
330
17
100
AcDbEntity
  8
Hachura
 62
7
370
25
100
AcDbLine
 10
3753.2680543547426
 20
11314.134219169942
 30
0.0
 11
3751.59125598075
 21
11314.134219169942
 31
0.0
  0
LINE
  5
7E
330
17
100
AcDbEntity
  8
Hachura
 62
7
370
25
100
AcDbLine
 10
3750.697751868322
 20
11311.683513845861
 30
0.0
 11
3748.7535971709062
 21
11311.683513845861
 31
0.0
  0
LINE
  5
7F
330
17
100
AcDbEntity
  8
Hachura
 62
7
370
25
100
AcDbLine
 10
3753.2680543547426
 20
11309.877730965894
 30
0.0
 11
3748.108674716072
 21
11309.877730965894
 31
0.0
  0
LINE
  5
80
330
17
100
AcDbEntity
  8
Hachura
 62
7
370
25
100
AcDbLine
 10
3742.046403674935
 20
11314.134219169942
 30
0.0
 11
3742.6280637489895
 21
11311.92391085209
 31
0.0
  0
LINE
  5
81
330
17
100
AcDbEntity
  8
Hachura
 62
7
370
25
100
AcDbLine
 10
3745.142031432411
 20
11312.457420785231
 30
0.0
 11
3745.142031432411
 21
11315.6820330594
 31
0.0
  0
LINE
  5
82
330
17
100
AcDbEntity
  8
Hachura
 62
7
370
25
100
AcDbLine
 10
3745.915938403938
 20
11315.6820330594
 30
0.0
 11
3745.915938403938
 21
11312.457420785231
 31
0.0
  0
LINE
  5
83
330
17
100
AcDbEntity
  8
Hachura
 62
7
370
25
100
AcDbLine
 10
3743.792691835926
 20
11309.896005522962
 30
0.0
 11
3743.792691835926
 21
11308.97483953127
 31
0.0
  0
LINE
  5
84
330
17
100
AcDbEntity
  8
Hachura
 62
7
370
25
100
AcDbLine
 10
3745.8436780746492
 20
11309.751429947075
 30
0.0
 11
3745.8436780746492
 21
11309.318362152077
 31
0.0
  0
LINE
  5
85
330
17
100
AcDbEntity
  8
Hachura
 62
7
370
25
100
AcDbLine
 10
3742.360438231061
 20
11309.896005522962
 30
0.0
 11
3742.360438231061
 21
11308.968782847882
 31
0.0
  0
LINE
  5
86
330
17
100
AcDbEntity
  8
Hachura
 62
7
370
25
100
AcDbLine
 10
3744.8840624419013
 20
11312.457420785231
 30
0.0
 11
3744.8840624419013
 21
11309.877730965894
 31
0.0
  0
LINE
  5
87
330
17
100
AcDbEntity
  8
Hachura
 62
7
370
25
100
AcDbLine
 10
3744.8840624419013
 20
11312.457420785231
 30
0.0
 11
3745.142031432411
 21
11312.457420785231
 31
0.0
  0
LINE
  5
88
330
17
100
AcDbEntity
  8
Hachura
 62
7
370
25
100
AcDbLine
 10
3744.8840624419013
 20
11312.457420785231
 30
0.0
 11
3745.142031432411
 21
11312.457420785231
 31
0.0
  0
LINE
  5
89
330
17
100
AcDbEntity
  8
Hachura
 62
7
370
25
100
AcDbLine
 10
3742.9399077873654
 20
11311.683513845861
 30
0.0
 11
3744.88794436558
 21
11311.683513845861
 31
0.0
  0
LINE
  5
8A
330
17
100
AcDbEntity
  8
Hachura
 62
7
370
25
100
AcDbLine
 10
3740.369605258064
 20
11309.877730965894
 30
0.0
 11
3740.369605258064
 21
11314.134219169942
 31
0.0
  0
LINE
  5
8B
330
17
100
AcDbEntity
  8
Hachura
 62
7
370
25
100
AcDbLine
 10
3740.369605258064
 20
11309.877730965894
 30
0.0
 11
3740.369605258064
 21
11308.97483953127
 31
0.0
  0
LINE
  5
8C
330
17
100
AcDbEntity
  8
Hachura
 62
7
370
25
100
AcDbLine
 10
3741.5179363148586
 20
11309.896005522962
 30
0.0
 11
3741.5179363148586
 21
11308.968782847882
 31
0.0
  0
LINE
  5
8D
330
17
100
AcDbEntity
  8
Hachura
 62
7
370
25
100
AcDbLine
 10
3741.0545600829996
 20
11309.896005522962
 30
0.0
 11
3741.0545600829996
 21
11308.968782847882
 31
0.0
  0
LINE
  5
8E
330
17
100
AcDbEntity
  8
Hachura
 62
7
370
25
100
AcDbLine
 10
3740.7175593508223
 20
11309.896005522962
 30
0.0
 11
3740.7175593508223
 21
11308.968782847882
 31
0.0
  0
LINE
  5
8F
330
17
100
AcDbEntity
  8
Hachura
 62
7
370
25
100
AcDbLine
 10
3740.5069336037773
 20
11309.896005522962
 30
0.0
 11
3740.5069336037773
 21
11308.968782847882
 31
0.0
  0
LINE
  5
90
330
17
100
AcDbEntity
  8
Hachura
 62
7
370
25
100
AcDbLine
 10
3740.369605258064
 20
11314.134219169942
 30
0.0
 11
3742.046403674935
 21
11314.134219169942
 31
0.0
  0
LINE
  5
91
330
17
100
AcDbEntity
  8
Hachura
 62
7
370
25
100
AcDbLine
 10
3746.689845351449
 20
11315.6820330594
 30
0.0
 11
3747.9567919044143
 21
11316.315506342227
 31
0.0
  0
LINE
  5
92
330
17
100
AcDbEntity
  8
Hachura
 62
7
370
25
100
AcDbLine
 10
3746.9478143292677
 20
11315.6820330594
 30
0.0
 11
3747.8507057720385
 21
11316.133478780785
 31
0.0
  0
LINE
  5
93
330
17
100
AcDbEntity
  8
Hachura
 62
7
370
25
100
AcDbLine
 10
3747.8507057720394
 20
11315.6820330594
 30
0.0
 11
3747.8507057720394
 21
11316.133478780785
 31
0.0
  0
LINE
  5
94
330
17
100
AcDbEntity
  8
Hachura
 62
7
370
25
100
AcDbLine
 10
3751.2736796173526
 20
11309.896005522962
 30
0.0
 11
3751.2736796173526
 21
11308.968782847882
 31
0.0
  0
LINE
  5
95
330
17
100
AcDbEntity
  8
Hachura
 62
7
370
25
100
AcDbLine
 10
3752.116181533555
 20
11309.896005522962
 30
0.0
 11
3752.116181533555
 21
11308.968782847882
 31
0.0
  0
LINE
  5
96
330
17
100
AcDbEntity
  8
Hachura
 62
7
370
25
100
AcDbLine
 10
3752.579557765414
 20
11309.896005522962
 30
0.0
 11
3752.579557765414
 21
11308.968782847882
 31
0.0
  0
LINE
  5
97
330
17
100
AcDbEntity
  8
Hachura
 62
7
370
25
100
AcDbLine
 10
3752.9165584975913
 20
11309.896005522962
 30
0.0
 11
3752.9165584975913
 21
11308.968782847882
 31
0.0
  0
LINE
  5
98
330
17
100
AcDbEntity
  8
Hachura
 62
7
370
25
100
AcDbLine
 10
3753.1271842446363
 20
11309.896005522962
 30
0.0
 11
3753.1271842446363
 21
11308.968782847882
 31
0.0
  0
LINE
  5
99
330
17
100
AcDbEntity
  8
Hachura
 62
7
370
25
100
AcDbLine
 10
3747.850083504303
 20
11174.978541559225
 30
0.0
 11
3747.850083504303
 21
11174.33361910439
 31
0.0
  0
LINE
  5
9A
330
17
100
AcDbEntity
  8
Hachura
 62
7
370
25
100
AcDbLine
 10
3747.850083504303
 20
11173.817681144812
 30
0.0
 11
3745.9153161398003
 21
11174.785064827065
 31
0.0
  0
LINE
  5
9B
330
17
100
AcDbEntity
  8
Hachura
 62
7
370
25
100
AcDbLine
 10
3747.922766835149
 20
11173.910323985363
 30
0.0
 11
3745.757154077591
 21
11174.993130321263
 31
0.0
  0
LINE
  5
9C
330
17
100
AcDbEntity
  8
Hachura
 62
7
370
25
100
AcDbLine
 10
3745.8155919680135
 20
11175.221880398722
 30
0.0
 11
3747.9561696366786
 21
11174.15159154295
 31
0.0
  0
LINE
  5
9D
330
17
100
AcDbEntity
  8
Hachura
 62
7
370
25
100
AcDbLine
 10
3745.9153161398003
 20
11175.30100278664
 30
0.0
 11
3747.850083504303
 21
11174.33361910439
 31
0.0
  0
LINE
  5
9E
330
17
100
AcDbEntity
  8
Hachura
 62
7
370
25
100
AcDbLine
 10
3745.9153161398003
 20
11175.945925241474
 30
0.0
 11
3745.9153161398003
 21
11175.30100278664
 31
0.0
  0
LINE
  5
9F
330
17
100
AcDbEntity
  8
Hachura
 62
7
370
25
100
AcDbLine
 10
3745.9153161398003
 20
11177.622723626188
 30
0.0
 11
3745.9153161398003
 21
11178.267646081022
 31
0.0
  0
LINE
  5
A0
330
17
100
AcDbEntity
  8
Hachura
 62
7
370
25
100
AcDbLine
 10
3745.9153161398003
 20
11176.673717860893
 30
0.0
 11
3745.9153161398003
 21
11176.461863211776
 31
0.0
  0
LINE
  5
A1
330
17
100
AcDbEntity
  8
Hachura
 62
7
370
25
100
AcDbLine
 10
3745.9153161398003
 20
11176.673717860893
 30
0.0
 11
3745.9153161398003
 21
11177.106785666607
 31
0.0
  0
LINE
  5
A2
330
17
100
AcDbEntity
  8
Hachura
 62
7
370
25
100
AcDbLine
 10
3747.850083504303
 20
11176.139401984357
 30
0.0
 11
3747.850083504303
 21
11175.494479529523
 31
0.0
  0
LINE
  5
A3
330
17
100
AcDbEntity
  8
Hachura
 62
7
370
25
100
AcDbLine
 10
3747.850083504303
 20
11177.300262398772
 30
0.0
 11
3747.850083504303
 21
11176.655339943938
 31
0.0
  0
LINE
  5
A4
330
17
100
AcDbEntity
  8
Hachura
 62
7
370
25
100
AcDbLine
 10
3747.850083504303
 20
11174.978541559225
 30
0.0
 11
3745.9153161398003
 21
11175.945925241474
 31
0.0
  0
LINE
  5
A5
330
17
100
AcDbEntity
  8
Hachura
 62
7
370
25
100
AcDbLine
 10
3747.922766835149
 20
11175.071184410495
 30
0.0
 11
3745.757154077591
 21
11176.153990746396
 31
0.0
  0
LINE
  5
A6
330
17
100
AcDbEntity
  8
Hachura
 62
7
370
25
100
AcDbLine
 10
3745.8155919680135
 20
11176.382740813131
 30
0.0
 11
3747.9561696366786
 21
11175.312451968082
 31
0.0
  0
LINE
  5
A7
330
17
100
AcDbEntity
  8
Hachura
 62
7
370
25
100
AcDbLine
 10
3745.9153161398003
 20
11176.461863211776
 30
0.0
 11
3747.850083504303
 21
11175.494479529523
 31
0.0
  0
LINE
  5
A8
330
17
100
AcDbEntity
  8
Hachura
 62
7
370
25
100
AcDbLine
 10
3747.850083504303
 20
11177.300262398772
 30
0.0
 11
3745.9153161398003
 21
11178.267646081022
 31
0.0
  0
LINE
  5
A9
330
17
100
AcDbEntity
  8
Hachura
 62
7
370
25
100
AcDbLine
 10
3747.850083504303
 20
11176.139401984357
 30
0.0
 11
3745.9153161398003
 21
11177.106785666607
 31
0.0
  0
LINE
  5
AA
330
17
100
AcDbEntity
  8
Hachura
 62
7
370
25
100
AcDbLine
 10
3747.922766835149
 20
11176.23204482491
 30
0.0
 11
3745.757154077591
 21
11177.31485116081
 31
0.0
  0
LINE
  5
AB
330
17
100
AcDbEntity
  8
Hachura
 62
7
370
25
100
AcDbLine
 10
3745.8155919680135
 20
11177.543601227546
 30
0.0
 11
3747.9561696366786
 21
11176.473312382497
 31
0.0
  0
LINE
  5
AC
330
17
100
AcDbEntity
  8
Hachura
 62
7
370
25
100
AcDbLine
 10
3745.9153161398003
 20
11177.622723626188
 30
0.0
 11
3747.850083504303
 21
11176.655339943938
 31
0.0
  0
LINE
  5
AD
330
17
100
AcDbEntity
  8
Hachura
 62
7
370
25
100
AcDbLine
 10
3746.173077810235
 20
11173.495323555993
 30
0.0
 11
3745.9153161398003
 21
11173.62420441265
 31
0.0
  0
LINE
  5
AE
330
17
100
AcDbEntity
  8
Hachura
 62
7
370
25
100
AcDbLine
 10
3746.4310468007448
 20
11173.495323555993
 30
0.0
 11
3745.757154077591
 21
11173.832269917571
 31
0.0
  0
LINE
  5
AF
330
17
100
AcDbEntity
  8
Hachura
 62
7
370
25
100
AcDbLine
 10
3745.9153161398003
 20
11173.62420441265
 30
0.0
 11
3745.9153161398003
 21
11173.495323555993
 31
0.0
  0
LINE
  5
B0
330
17
100
AcDbEntity
  8
Hachura
 62
7
370
25
100
AcDbLine
 10
3745.9171079255207
 20
11173.496933652576
 30
0.0
 11
3746.2395691529377
 21
11173.174472403718
 31
0.0
  0
LINE
  5
B1
330
17
100
AcDbEntity
  8
Hachura
 62
7
370
25
100
AcDbLine
 10
3745.9153161398003
 20
11174.140142372231
 30
0.0
 11
3745.9153161398003
 21
11174.785064827065
 31
0.0
  0
LINE
  5
B2
330
17
100
AcDbEntity
  8
Hachura
 62
7
370
25
100
AcDbLine
 10
3747.850083504303
 20
11173.817681144812
 30
0.0
 11
3747.850083504303
 21
11173.495323555993
 31
0.0
  0
LINE
  5
B3
330
17
100
AcDbEntity
  8
Hachura
 62
7
370
25
100
AcDbLine
 10
3747.8519607907942
 20
11173.496933631137
 30
0.0
 11
3747.8519607907942
 21
11173.49701104921
 31
0.0
  0
LINE
  5
B4
330
17
100
AcDbEntity
  8
Hachura
 62
7
370
25
100
AcDbLine
 10
3747.8519607907942
 20
11173.496933631137
 30
0.0
 11
3747.529414062606
 21
11173.174472403718
 31
0.0
  0
LINE
  5
B5
330
17
100
AcDbEntity
  8
Hachura
 62
7
370
25
100
AcDbLine
 10
3747.850083504303
 20
11175.70633418936
 30
0.0
 11
3747.850083504303
 21
11175.494479540246
 31
0.0
  0
LINE
  5
B6
330
17
100
AcDbEntity
  8
Hachura
 62
7
370
25
100
AcDbLine
 10
3745.8155919680135
 20
11174.061019984307
 30
0.0
 11
3746.9469847817622
 21
11173.495323555993
 31
0.0
  0
LINE
  5
B7
330
17
100
AcDbEntity
  8
Hachura
 62
7
370
25
100
AcDbLine
 10
3745.9153161398003
 20
11174.140142372231
 30
0.0
 11
3747.204953729393
 21
11173.495323555993
 31
0.0
  0
LINE
  5
B8
330
17
100
AcDbEntity
  8
Hachura
 62
7
370
25
100
AcDbLine
 10
3747.529414062606
 20
11173.174472403718
 30
0.0
 11
3746.2395691529377
 21
11173.174472403718
 31
0.0
  0
LINE
  5
B9
330
17
100
AcDbEntity
  8
Hachura
 62
7
370
25
100
AcDbLine
 10
3747.850083504303
 20
11173.817681144812
 30
0.0
 11
3745.9153161398003
 21
11174.785064827065
 31
0.0
  0
LINE
  5
BA
330
17
100
AcDbEntity
  8
Hachura
 62
7
370
25
100
AcDbLine
 10
3745.9171079255207
 20
11173.496933652576
 30
0.0
 11
3747.851875290023
 21
11173.496933652576
 31
0.0
  0
LINE
  5
BB
330
17
100
AcDbEntity
  8
Hachura
 62
7
370
25
100
AcDbLine
 10
3741.321752647676
 20
11184.97483960915
 30
0.0
 11
3749.136414392307
 21
11184.97483960915
 31
0.0
  0
LINE
  5
BC
330
17
100
AcDbEntity
  8
Hachura
 62
7
370
25
100
AcDbLine
 10
3745.141409168273
 20
11178.267646081022
 30
0.0
 11
3748.495005959137
 21
11178.267646081022
 31
0.0
  0
LINE
  5
BD
330
17
100
AcDbEntity
  8
Hachura
 62
7
370
25
100
AcDbLine
 10
3745.141409168273
 20
11178.33536293835
 30
0.0
 11
3748.495005959137
 21
11178.33536293835
 31
0.0
  0
LINE
  5
BE
330
17
100
AcDbEntity
  8
Hachura
 62
7
370
25
100
AcDbLine
 10
3748.7529749067685
 20
11181.49225835519
 30
0.0
 11
3744.8834401777635
 21
11181.49225835519
 31
0.0
  0
LINE
  5
BF
330
17
100
AcDbEntity
  8
Hachura
 62
7
370
25
100
AcDbLine
 10
3753.267432090605
 20
11184.071948174527
 30
0.0
 11
3740.3689829939262
 21
11184.071948174527
 31
0.0
  0
LINE
  5
C0
330
17
100
AcDbEntity
  8
Hachura
 62
7
370
25
100
AcDbLine
 10
3740.3689829939262
 20
11184.97483960915
 30
0.0
 11
3753.263890326212
 21
11184.97483960915
 31
0.0
  0
LINE
  5
C1
330
17
100
AcDbEntity
  8
Hachura
 62
7
370
25
100
AcDbLine
 10
3747.4631299971
 20
11178.267646081022
 30
0.0
 11
3747.4631299971
 21
11181.49225835519
 31
0.0
  0
LINE
  5
C2
330
17
100
AcDbEntity
  8
Hachura
 62
7
370
25
100
AcDbLine
 10
3748.495005959137
 20
11178.267646081022
 30
0.0
 11
3748.495005959137
 21
11181.49225835519
 31
0.0
  0
LINE
  5
C3
330
17
100
AcDbEntity
  8
Hachura
 62
7
370
25
100
AcDbLine
 10
3746.818207542266
 20
11184.071948174527
 30
0.0
 11
3748.7529749067685
 21
11184.071948174527
 31
0.0
  0
LINE
  5
C4
330
17
100
AcDbEntity
  8
Hachura
 62
7
370
25
100
AcDbLine
 10
3748.1080524519343
 20
11184.071948174527
 30
0.0
 11
3747.4631299971
 21
11184.071948174527
 31
0.0
  0
LINE
  5
C5
330
17
100
AcDbEntity
  8
Hachura
 62
7
370
25
100
AcDbLine
 10
3746.823847904627
 20
11184.071948174527
 30
0.0
 11
3746.823847904627
 21
11184.97483960915
 31
0.0
  0
LINE
  5
C6
330
17
100
AcDbEntity
  8
Hachura
 62
7
370
25
100
AcDbLine
 10
3747.130389595976
 20
11184.071948174527
 30
0.0
 11
3747.130389595976
 21
11182.07278898507
 31
0.0
  0
LINE
  5
C7
330
17
100
AcDbEntity
  8
Hachura
 62
7
370
25
100
AcDbLine
 10
3746.6144516149566
 20
11182.07278898507
 30
0.0
 11
3746.6144516149566
 21
11184.071948174527
 31
0.0
  0
LINE
  5
C8
330
17
100
AcDbEntity
  8
Hachura
 62
7
370
25
100
AcDbLine
 10
3749.858084165998
 20
11184.05367361746
 30
0.0
 11
3749.858084165998
 21
11184.98089629254
 31
0.0
  0
LINE
  5
C9
330
17
100
AcDbEntity
  8
Hachura
 62
7
370
25
100
AcDbLine
 10
3747.777823175014
 20
11184.824793731228
 30
0.0
 11
3747.777823175014
 21
11184.391725925509
 31
0.0
  0
LINE
  5
CA
330
17
100
AcDbEntity
  8
Hachura
 62
7
370
25
100
AcDbLine
 10
3748.7529749067685
 20
11184.071948174527
 30
0.0
 11
3748.7529749067685
 21
11181.49225835519
 31
0.0
  0
LINE
  5
CB
330
17
100
AcDbEntity
  8
Hachura
 62
7
370
25
100
AcDbLine
 10
3747.777823175014
 20
11184.391725925509
 30
0.0
 11
3747.777823175014
 21
11184.179871276394
 31
0.0
  0
LINE
  5
CC
330
17
100
AcDbEntity
  8
Hachura
 62
7
370
25
100
AcDbLine
 10
3753.263890326212
 20
11184.97483960915
 30
0.0
 11
3753.263890326212
 21
11179.838171027064
 31
0.0
  0
LINE
  5
CD
330
17
100
AcDbEntity
  8
Hachura
 62
7
370
25
100
AcDbLine
 10
3751.590633716612
 20
11179.81545997048
 30
0.0
 11
3751.0089736425575
 21
11182.025768288331
 31
0.0
  0
LINE
  5
CE
330
17
100
AcDbEntity
  8
Hachura
 62
7
370
25
100
AcDbLine
 10
3753.267432090605
 20
11179.81545997048
 30
0.0
 11
3751.590633716612
 21
11179.81545997048
 31
0.0
  0
LINE
  5
CF
330
17
100
AcDbEntity
  8
Hachura
 62
7
370
25
100
AcDbLine
 10
3750.6971296041843
 20
11182.26616529456
 30
0.0
 11
3748.7529749067685
 21
11182.26616529456
 31
0.0
  0
LINE
  5
D0
330
17
100
AcDbEntity
  8
Hachura
 62
7
370
25
100
AcDbLine
 10
3753.267432090605
 20
11184.071948174527
 30
0.0
 11
3748.1080524519343
 21
11184.071948174527
 31
0.0
  0
LINE
  5
D1
330
17
100
AcDbEntity
  8
Hachura
 62
7
370
25
100
AcDbLine
 10
3742.045781410797
 20
11179.81545997048
 30
0.0
 11
3742.6274414848517
 21
11182.025768288331
 31
0.0
  0
LINE
  5
D2
330
17
100
AcDbEntity
  8
Hachura
 62
7
370
25
100
AcDbLine
 10
3745.141409168273
 20
11181.49225835519
 30
0.0
 11
3745.141409168273
 21
11178.267646081022
 31
0.0
  0
LINE
  5
D3
330
17
100
AcDbEntity
  8
Hachura
 62
7
370
25
100
AcDbLine
 10
3745.9153161398003
 20
11178.267646081022
 30
0.0
 11
3745.9153161398003
 21
11181.49225835519
 31
0.0
  0
LINE
  5
D4
330
17
100
AcDbEntity
  8
Hachura
 62
7
370
25
100
AcDbLine
 10
3743.792069571788
 20
11184.05367361746
 30
0.0
 11
3743.792069571788
 21
11184.97483960915
 31
0.0
  0
LINE
  5
D5
330
17
100
AcDbEntity
  8
Hachura
 62
7
370
25
100
AcDbLine
 10
3745.8430558105115
 20
11184.198249193347
 30
0.0
 11
3745.8430558105115
 21
11184.631316988345
 31
0.0
  0
LINE
  5
D6
330
17
100
AcDbEntity
  8
Hachura
 62
7
370
25
100
AcDbLine
 10
3742.359815966923
 20
11184.05367361746
 30
0.0
 11
3742.359815966923
 21
11184.98089629254
 31
0.0
  0
LINE
  5
D7
330
17
100
AcDbEntity
  8
Hachura
 62
7
370
25
100
AcDbLine
 10
3744.8834401777635
 20
11181.49225835519
 30
0.0
 11
3744.8834401777635
 21
11184.071948174527
 31
0.0
  0
LINE
  5
D8
330
17
100
AcDbEntity
  8
Hachura
 62
7
370
25
100
AcDbLine
 10
3744.8834401777635
 20
11181.49225835519
 30
0.0
 11
3745.141409168273
 21
11181.49225835519
 31
0.0
  0
LINE
  5
D9
330
17
100
AcDbEntity
  8
Hachura
 62
7
370
25
100
AcDbLine
 10
3744.8834401777635
 20
11181.49225835519
 30
0.0
 11
3745.141409168273
 21
11181.49225835519
 31
0.0
  0
LINE
  5
DA
330
17
100
AcDbEntity
  8
Hachura
 62
7
370
25
100
AcDbLine
 10
3742.9392855232277
 20
11182.26616529456
 30
0.0
 11
3744.8873221014424
 21
11182.26616529456
 31
0.0
  0
LINE
  5
DB
330
17
100
AcDbEntity
  8
Hachura
 62
7
370
25
100
AcDbLine
 10
3740.3689829939262
 20
11184.071948174527
 30
0.0
 11
3740.3689829939262
 21
11179.81545997048
 31
0.0
  0
LINE
  5
DC
330
17
100
AcDbEntity
  8
Hachura
 62
7
370
25
100
AcDbLine
 10
3740.3689829939262
 20
11184.071948174527
 30
0.0
 11
3740.3689829939262
 21
11184.97483960915
 31
0.0
  0
LINE
  5
DD
330
17
100
AcDbEntity
  8
Hachura
 62
7
370
25
100
AcDbLine
 10
3741.517314050721
 20
11184.05367361746
 30
0.0
 11
3741.517314050721
 21
11184.98089629254
 31
0.0
  0
LINE
  5
DE
330
17
100
AcDbEntity
  8
Hachura
 62
7
370
25
100
AcDbLine
 10
3741.053937818862
 20
11184.05367361746
 30
0.0
 11
3741.053937818862
 21
11184.98089629254
 31
0.0
  0
LINE
  5
DF
330
17
100
AcDbEntity
  8
Hachura
 62
7
370
25
100
AcDbLine
 10
3740.7169370866845
 20
11184.05367361746
 30
0.0
 11
3740.7169370866845
 21
11184.98089629254
 31
0.0
  0
LINE
  5
E0
330
17
100
AcDbEntity
  8
Hachura
 62
7
370
25
100
AcDbLine
 10
3740.5063113396395
 20
11184.05367361746
 30
0.0
 11
3740.5063113396395
 21
11184.98089629254
 31
0.0
  0
LINE
  5
E1
330
17
100
AcDbEntity
  8
Hachura
 62
7
370
25
100
AcDbLine
 10
3740.3689829939262
 20
11179.81545997048
 30
0.0
 11
3742.045781410797
 21
11179.81545997048
 31
0.0
  0
LINE
  5
E2
330
17
100
AcDbEntity
  8
Hachura
 62
7
370
25
100
AcDbLine
 10
3746.6892230873113
 20
11178.267646081022
 30
0.0
 11
3747.9561696402766
 21
11177.634172798194
 31
0.0
  0
LINE
  5
E3
330
17
100
AcDbEntity
  8
Hachura
 62
7
370
25
100
AcDbLine
 10
3746.94719206513
 20
11178.267646081022
 30
0.0
 11
3747.8500835079008
 21
11177.816200359637
 31
0.0
  0
LINE
  5
E4
330
17
100
AcDbEntity
  8
Hachura
 62
7
370
25
100
AcDbLine
 10
3747.8500835079017
 20
11178.267646081022
 30
0.0
 11
3747.8500835079017
 21
11177.816200359637
 31
0.0
  0
LINE
  5
E5
330
17
100
AcDbEntity
  8
Hachura
 62
7
370
25
100
AcDbLine
 10
3751.273057353215
 20
11184.05367361746
 30
0.0
 11
3751.273057353215
 21
11184.98089629254
 31
0.0
  0
LINE
  5
E6
330
17
100
AcDbEntity
  8
Hachura
 62
7
370
25
100
AcDbLine
 10
3752.115559269417
 20
11184.05367361746
 30
0.0
 11
3752.115559269417
 21
11184.98089629254
 31
0.0
  0
LINE
  5
E7
330
17
100
AcDbEntity
  8
Hachura
 62
7
370
25
100
AcDbLine
 10
3752.578935501276
 20
11184.05367361746
 30
0.0
 11
3752.578935501276
 21
11184.98089629254
 31
0.0
  0
LINE
  5
E8
330
17
100
AcDbEntity
  8
Hachura
 62
7
370
25
100
AcDbLine
 10
3752.9159362334535
 20
11184.05367361746
 30
0.0
 11
3752.9159362334535
 21
11184.98089629254
 31
0.0
  0
LINE
  5
E9
330
17
100
AcDbEntity
  8
Hachura
 62
7
370
25
100
AcDbLine
 10
3753.1265619804985
 20
11184.05367361746
 30
0.0
 11
3753.1265619804985
 21
11184.98089629254
 31
0.0
  0
LINE
  5
EA
330
17
100
AcDbEntity
  8
Hachura
 62
7
370
25
100
AcDbLine
 10
3746.817319340916
 20
11319.77520673667
 30
0.0
 11
3746.825860551791
 21
11177.97483960915
 31
0.0
  0
LINE
  5
EB
330
17
100
AcDbEntity
  8
Hachura
 62
7
370
25
100
AcDbLine
 10
3577.7828001288362
 20
11318.971137581197
 30
0.0
 11
3577.7828001288362
 21
11319.61606003603
 31
0.0
  0
LINE
  5
EC
330
17
100
AcDbEntity
  8
Hachura
 62
7
370
25
100
AcDbLine
 10
3577.7828001288362
 20
11320.13199799561
 30
0.0
 11
3579.7175674933387
 21
11319.164614313357
 31
0.0
  0
LINE
  5
ED
330
17
100
AcDbEntity
  8
Hachura
 62
7
370
25
100
AcDbLine
 10
3577.71011679799
 20
11320.039355155059
 30
0.0
 11
3579.875729555548
 21
11318.956548819158
 31
0.0
  0
LINE
  5
EE
330
17
100
AcDbEntity
  8
Hachura
 62
7
370
25
100
AcDbLine
 10
3579.8172916651256
 20
11318.7277987417
 30
0.0
 11
3577.6767139964604
 21
11319.798087597472
 31
0.0
  0
LINE
  5
EF
330
17
100
AcDbEntity
  8
Hachura
 62
7
370
25
100
AcDbLine
 10
3579.7175674933387
 20
11318.648676353781
 30
0.0
 11
3577.7828001288362
 21
11319.61606003603
 31
0.0
  0
LINE
  5
F0
330
17
100
AcDbEntity
  8
Hachura
 62
7
370
25
100
AcDbLine
 10
3579.7175674933387
 20
11318.003753898947
 30
0.0
 11
3579.7175674933387
 21
11318.648676353781
 31
0.0
  0
LINE
  5
F1
330
17
100
AcDbEntity
  8
Hachura
 62
7
370
25
100
AcDbLine
 10
3579.7175674933387
 20
11316.326955514234
 30
0.0
 11
3579.7175674933387
 21
11315.6820330594
 31
0.0
  0
LINE
  5
F2
330
17
100
AcDbEntity
  8
Hachura
 62
7
370
25
100
AcDbLine
 10
3579.7175674933387
 20
11317.275961279529
 30
0.0
 11
3579.7175674933387
 21
11317.487815928645
 31
0.0
  0
LINE
  5
F3
330
17
100
AcDbEntity
  8
Hachura
 62
7
370
25
100
AcDbLine
 10
3579.7175674933387
 20
11317.275961279529
 30
0.0
 11
3579.7175674933387
 21
11316.842893473815
 31
0.0
  0
LINE
  5
F4
330
17
100
AcDbEntity
  8
Hachura
 62
7
370
25
100
AcDbLine
 10
3577.7828001288362
 20
11317.810277156064
 30
0.0
 11
3577.7828001288362
 21
11318.455199610898
 31
0.0
  0
LINE
  5
F5
330
17
100
AcDbEntity
  8
Hachura
 62
7
370
25
100
AcDbLine
 10
3577.7828001288362
 20
11316.64941674165
 30
0.0
 11
3577.7828001288362
 21
11317.294339196484
 31
0.0
  0
LINE
  5
F6
330
17
100
AcDbEntity
  8
Hachura
 62
7
370
25
100
AcDbLine
 10
3577.7828001288362
 20
11318.971137581197
 30
0.0
 11
3579.7175674933387
 21
11318.003753898947
 31
0.0
  0
LINE
  5
F7
330
17
100
AcDbEntity
  8
Hachura
 62
7
370
25
100
AcDbLine
 10
3577.71011679799
 20
11318.878494729926
 30
0.0
 11
3579.875729555548
 21
11317.795688394026
 31
0.0
  0
LINE
  5
F8
330
17
100
AcDbEntity
  8
Hachura
 62
7
370
25
100
AcDbLine
 10
3579.8172916651256
 20
11317.56693832729
 30
0.0
 11
3577.6767139964604
 21
11318.63722717234
 31
0.0
  0
LINE
  5
F9
330
17
100
AcDbEntity
  8
Hachura
 62
7
370
25
100
AcDbLine
 10
3579.7175674933387
 20
11317.487815928645
 30
0.0
 11
3577.7828001288362
 21
11318.455199610898
 31
0.0
  0
LINE
  5
FA
330
17
100
AcDbEntity
  8
Hachura
 62
7
370
25
100
AcDbLine
 10
3577.7828001288362
 20
11316.64941674165
 30
0.0
 11
3579.7175674933387
 21
11315.6820330594
 31
0.0
  0
LINE
  5
FB
330
17
100
AcDbEntity
  8
Hachura
 62
7
370
25
100
AcDbLine
 10
3577.7828001288362
 20
11317.810277156064
 30
0.0
 11
3579.7175674933387
 21
11316.842893473815
 31
0.0
  0
LINE
  5
FC
330
17
100
AcDbEntity
  8
Hachura
 62
7
370
25
100
AcDbLine
 10
3577.71011679799
 20
11317.717634315512
 30
0.0
 11
3579.875729555548
 21
11316.634827979611
 31
0.0
  0
LINE
  5
FD
330
17
100
AcDbEntity
  8
Hachura
 62
7
370
25
100
AcDbLine
 10
3579.8172916651256
 20
11316.406077912876
 30
0.0
 11
3577.6767139964604
 21
11317.476366757925
 31
0.0
  0
LINE
  5
FE
330
17
100
AcDbEntity
  8
Hachura
 62
7
370
25
100
AcDbLine
 10
3579.7175674933387
 20
11316.326955514234
 30
0.0
 11
3577.7828001288362
 21
11317.294339196484
 31
0.0
  0
LINE
  5
FF
330
17
100
AcDbEntity
  8
Hachura
 62
7
370
25
100
AcDbLine
 10
3579.459805822904
 20
11320.454355584428
 30
0.0
 11
3579.7175674933387
 21
11320.325474727772
 31
0.0
  0
LINE
  5
100
330
17
100
AcDbEntity
  8
Hachura
 62
7
370
25
100
AcDbLine
 10
3579.2018368323943
 20
11320.454355584428
 30
0.0
 11
3579.875729555548
 21
11320.11740922285
 31
0.0
  0
LINE
  5
101
330
17
100
AcDbEntity
  8
Hachura
 62
7
370
25
100
AcDbLine
 10
3579.7175674933387
 20
11320.325474727772
 30
0.0
 11
3579.7175674933387
 21
11320.454355584428
 31
0.0
  0
LINE
  5
102
330
17
100
AcDbEntity
  8
Hachura
 62
7
370
25
100
AcDbLine
 10
3579.7157757076184
 20
11320.452745487846
 30
0.0
 11
3579.3933144802013
 21
11320.775206736704
 31
0.0
  0
LINE
  5
103
330
17
100
AcDbEntity
  8
Hachura
 62
7
370
25
100
AcDbLine
 10
3579.7175674933387
 20
11319.80953676819
 30
0.0
 11
3579.7175674933387
 21
11319.164614313357
 31
0.0
  0
LINE
  5
104
330
17
100
AcDbEntity
  8
Hachura
 62
7
370
25
100
AcDbLine
 10
3577.7828001288362
 20
11320.13199799561
 30
0.0
 11
3577.7828001288362
 21
11320.454355584428
 31
0.0
  0
LINE
  5
105
330
17
100
AcDbEntity
  8
Hachura
 62
7
370
25
100
AcDbLine
 10
3577.780922842345
 20
11320.452745509285
 30
0.0
 11
3577.780922842345
 21
11320.452668091211
 31
0.0
  0
LINE
  5
106
330
17
100
AcDbEntity
  8
Hachura
 62
7
370
25
100
AcDbLine
 10
3577.780922842345
 20
11320.452745509285
 30
0.0
 11
3578.103469570533
 21
11320.775206736704
 31
0.0
  0
LINE
  5
107
330
17
100
AcDbEntity
  8
Hachura
 62
7
370
25
100
AcDbLine
 10
3577.7828001288362
 20
11318.24334495106
 30
0.0
 11
3577.7828001288362
 21
11318.455199600176
 31
0.0
  0
LINE
  5
108
330
17
100
AcDbEntity
  8
Hachura
 62
7
370
25
100
AcDbLine
 10
3579.8172916651256
 20
11319.888659156115
 30
0.0
 11
3578.685898851377
 21
11320.454355584428
 31
0.0
  0
LINE
  5
109
330
17
100
AcDbEntity
  8
Hachura
 62
7
370
25
100
AcDbLine
 10
3579.7175674933387
 20
11319.80953676819
 30
0.0
 11
3578.427929903746
 21
11320.454355584428
 31
0.0
  0
LINE
  5
10A
330
17
100
AcDbEntity
  8
Hachura
 62
7
370
25
100
AcDbLine
 10
3578.103469570533
 20
11320.775206736704
 30
0.0
 11
3579.3933144802013
 21
11320.775206736704
 31
0.0
  0
LINE
  5
10B
330
17
100
AcDbEntity
  8
Hachura
 62
7
370
25
100
AcDbLine
 10
3577.7828001288362
 20
11320.13199799561
 30
0.0
 11
3579.7175674933387
 21
11319.164614313357
 31
0.0
  0
LINE
  5
10C
330
17
100
AcDbEntity
  8
Hachura
 62
7
370
25
100
AcDbLine
 10
3579.7157757076184
 20
11320.452745487846
 30
0.0
 11
3577.781008343116
 21
11320.452745487846
 31
0.0
  0
LINE
  5
10D
330
17
100
AcDbEntity
  8
Hachura
 62
7
370
25
100
AcDbLine
 10
3584.311130985463
 20
11308.97483953127
 30
0.0
 11
3576.496469240832
 21
11308.97483953127
 31
0.0
  0
LINE
  5
10E
330
17
100
AcDbEntity
  8
Hachura
 62
7
370
25
100
AcDbLine
 10
3580.491474464866
 20
11315.6820330594
 30
0.0
 11
3577.137877674002
 21
11315.6820330594
 31
0.0
  0
LINE
  5
10F
330
17
100
AcDbEntity
  8
Hachura
 62
7
370
25
100
AcDbLine
 10
3580.491474464866
 20
11315.614316202073
 30
0.0
 11
3577.137877674002
 21
11315.614316202073
 31
0.0
  0
LINE
  5
110
330
17
100
AcDbEntity
  8
Hachura
 62
7
370
25
100
AcDbLine
 10
3576.8799087263706
 20
11312.457420785231
 30
0.0
 11
3580.7494434553755
 21
11312.457420785231
 31
0.0
  0
LINE
  5
111
330
17
100
AcDbEntity
  8
Hachura
 62
7
370
25
100
AcDbLine
 10
3572.365451542534
 20
11309.877730965894
 30
0.0
 11
3585.263900639213
 21
11309.877730965894
 31
0.0
  0
LINE
  5
112
330
17
100
AcDbEntity
  8
Hachura
 62
7
370
25
100
AcDbLine
 10
3585.263900639213
 20
11308.97483953127
 30
0.0
 11
3572.368993306927
 21
11308.97483953127
 31
0.0
  0
LINE
  5
113
330
17
100
AcDbEntity
  8
Hachura
 62
7
370
25
100
AcDbLine
 10
3578.169753636039
 20
11315.6820330594
 30
0.0
 11
3578.169753636039
 21
11312.457420785231
 31
0.0
  0
LINE
  5
114
330
17
100
AcDbEntity
  8
Hachura
 62
7
370
25
100
AcDbLine
 10
3577.137877674002
 20
11315.6820330594
 30
0.0
 11
3577.137877674002
 21
11312.457420785231
 31
0.0
  0
LINE
  5
115
330
17
100
AcDbEntity
  8
Hachura
 62
7
370
25
100
AcDbLine
 10
3578.814676090873
 20
11309.877730965894
 30
0.0
 11
3576.8799087263706
 21
11309.877730965894
 31
0.0
  0
LINE
  5
116
330
17
100
AcDbEntity
  8
Hachura
 62
7
370
25
100
AcDbLine
 10
3577.5248311812047
 20
11309.877730965894
 30
0.0
 11
3578.169753636039
 21
11309.877730965894
 31
0.0
  0
LINE
  5
117
330
17
100
AcDbEntity
  8
Hachura
 62
7
370
25
100
AcDbLine
 10
3578.809035728512
 20
11309.877730965894
 30
0.0
 11
3578.809035728512
 21
11308.97483953127
 31
0.0
  0
LINE
  5
118
330
17
100
AcDbEntity
  8
Hachura
 62
7
370
25
100
AcDbLine
 10
3578.502494037163
 20
11309.877730965894
 30
0.0
 11
3578.502494037163
 21
11311.876890155352
 31
0.0
  0
LINE
  5
119
330
17
100
AcDbEntity
  8
Hachura
 62
7
370
25
100
AcDbLine
 10
3579.0184320181825
 20
11311.876890155352
 30
0.0
 11
3579.0184320181825
 21
11309.877730965894
 31
0.0
  0
LINE
  5
11A
330
17
100
AcDbEntity
  8
Hachura
 62
7
370
25
100
AcDbLine
 10
3575.774799467141
 20
11309.896005522962
 30
0.0
 11
3575.774799467141
 21
11308.968782847882
 31
0.0
  0
LINE
  5
11B
330
17
100
AcDbEntity
  8
Hachura
 62
7
370
25
100
AcDbLine
 10
3577.855060458125
 20
11309.124885409194
 30
0.0
 11
3577.855060458125
 21
11309.557953214913
 31
0.0
  0
LINE
  5
11C
330
17
100
AcDbEntity
  8
Hachura
 62
7
370
25
100
AcDbLine
 10
3576.8799087263706
 20
11309.877730965894
 30
0.0
 11
3576.8799087263706
 21
11312.457420785231
 31
0.0
  0
LINE
  5
11D
330
17
100
AcDbEntity
  8
Hachura
 62
7
370
25
100
AcDbLine
 10
3577.855060458125
 20
11309.557953214913
 30
0.0
 11
3577.855060458125
 21
11309.769807864028
 31
0.0
  0
LINE
  5
11E
330
17
100
AcDbEntity
  8
Hachura
 62
7
370
25
100
AcDbLine
 10
3572.368993306927
 20
11308.97483953127
 30
0.0
 11
3572.368993306927
 21
11314.111508113358
 31
0.0
  0
LINE
  5
11F
330
17
100
AcDbEntity
  8
Hachura
 62
7
370
25
100
AcDbLine
 10
3574.042249916527
 20
11314.134219169942
 30
0.0
 11
3574.6239099905815
 21
11311.92391085209
 31
0.0
  0
LINE
  5
120
330
17
100
AcDbEntity
  8
Hachura
 62
7
370
25
100
AcDbLine
 10
3572.365451542534
 20
11314.134219169942
 30
0.0
 11
3574.042249916527
 21
11314.134219169942
 31
0.0
  0
LINE
  5
121
330
17
100
AcDbEntity
  8
Hachura
 62
7
370
25
100
AcDbLine
 10
3574.9357540289548
 20
11311.683513845861
 30
0.0
 11
3576.8799087263706
 21
11311.683513845861
 31
0.0
  0
LINE
  5
122
330
17
100
AcDbEntity
  8
Hachura
 62
7
370
25
100
AcDbLine
 10
3572.365451542534
 20
11309.877730965894
 30
0.0
 11
3577.5248311812047
 21
11309.877730965894
 31
0.0
  0
LINE
  5
123
330
17
100
AcDbEntity
  8
Hachura
 62
7
370
25
100
AcDbLine
 10
3583.587102222342
 20
11314.134219169942
 30
0.0
 11
3583.0054421482873
 21
11311.92391085209
 31
0.0
  0
LINE
  5
124
330
17
100
AcDbEntity
  8
Hachura
 62
7
370
25
100
AcDbLine
 10
3580.491474464866
 20
11312.457420785231
 30
0.0
 11
3580.491474464866
 21
11315.6820330594
 31
0.0
  0
LINE
  5
125
330
17
100
AcDbEntity
  8
Hachura
 62
7
370
25
100
AcDbLine
 10
3579.7175674933387
 20
11315.6820330594
 30
0.0
 11
3579.7175674933387
 21
11312.457420785231
 31
0.0
  0
LINE
  5
126
330
17
100
AcDbEntity
  8
Hachura
 62
7
370
25
100
AcDbLine
 10
3581.840814061351
 20
11309.896005522962
 30
0.0
 11
3581.840814061351
 21
11308.97483953127
 31
0.0
  0
LINE
  5
127
330
17
100
AcDbEntity
  8
Hachura
 62
7
370
25
100
AcDbLine
 10
3579.7898278226276
 20
11309.751429947075
 30
0.0
 11
3579.7898278226276
 21
11309.318362152077
 31
0.0
  0
LINE
  5
128
330
17
100
AcDbEntity
  8
Hachura
 62
7
370
25
100
AcDbLine
 10
3583.273067666216
 20
11309.896005522962
 30
0.0
 11
3583.273067666216
 21
11308.968782847882
 31
0.0
  0
LINE
  5
129
330
17
100
AcDbEntity
  8
Hachura
 62
7
370
25
100
AcDbLine
 10
3580.7494434553755
 20
11312.457420785231
 30
0.0
 11
3580.7494434553755
 21
11309.877730965894
 31
0.0
  0
LINE
  5
12A
330
17
100
AcDbEntity
  8
Hachura
 62
7
370
25
100
AcDbLine
 10
3580.7494434553755
 20
11312.457420785231
 30
0.0
 11
3580.491474464866
 21
11312.457420785231
 31
0.0
  0
LINE
  5
12B
330
17
100
AcDbEntity
  8
Hachura
 62
7
370
25
100
AcDbLine
 10
3580.7494434553755
 20
11312.457420785231
 30
0.0
 11
3580.491474464866
 21
11312.457420785231
 31
0.0
  0
LINE
  5
12C
330
17
100
AcDbEntity
  8
Hachura
 62
7
370
25
100
AcDbLine
 10
3582.6935981099114
 20
11311.683513845861
 30
0.0
 11
3580.7455615316967
 21
11311.683513845861
 31
0.0
  0
LINE
  5
12D
330
17
100
AcDbEntity
  8
Hachura
 62
7
370
25
100
AcDbLine
 10
3585.263900639213
 20
11309.877730965894
 30
0.0
 11
3585.263900639213
 21
11314.134219169942
 31
0.0
  0
LINE
  5
12E
330
17
100
AcDbEntity
  8
Hachura
 62
7
370
25
100
AcDbLine
 10
3585.263900639213
 20
11309.877730965894
 30
0.0
 11
3585.263900639213
 21
11308.97483953127
 31
0.0
  0
LINE
  5
12F
330
17
100
AcDbEntity
  8
Hachura
 62
7
370
25
100
AcDbLine
 10
3584.115569582418
 20
11309.896005522962
 30
0.0
 11
3584.115569582418
 21
11308.968782847882
 31
0.0
  0
LINE
  5
130
330
17
100
AcDbEntity
  8
Hachura
 62
7
370
25
100
AcDbLine
 10
3584.578945814277
 20
11309.896005522962
 30
0.0
 11
3584.578945814277
 21
11308.968782847882
 31
0.0
  0
LINE
  5
131
330
17
100
AcDbEntity
  8
Hachura
 62
7
370
25
100
AcDbLine
 10
3584.9159465464545
 20
11309.896005522962
 30
0.0
 11
3584.9159465464545
 21
11308.968782847882
 31
0.0
  0
LINE
  5
132
330
17
100
AcDbEntity
  8
Hachura
 62
7
370
25
100
AcDbLine
 10
3585.1265722934995
 20
11309.896005522962
 30
0.0
 11
3585.1265722934995
 21
11308.968782847882
 31
0.0
  0
LINE
  5
133
330
17
100
AcDbEntity
  8
Hachura
 62
7
370
25
100
AcDbLine
 10
3585.263900639213
 20
11314.134219169942
 30
0.0
 11
3583.587102222342
 21
11314.134219169942
 31
0.0
  0
LINE
  5
134
330
17
100
AcDbEntity
  8
Hachura
 62
7
370
25
100
AcDbLine
 10
3578.9436605458277
 20
11315.6820330594
 30
0.0
 11
3577.6767139928625
 21
11316.315506342227
 31
0.0
  0
LINE
  5
135
330
17
100
AcDbEntity
  8
Hachura
 62
7
370
25
100
AcDbLine
 10
3578.685691568009
 20
11315.6820330594
 30
0.0
 11
3577.7828001252383
 21
11316.133478780785
 31
0.0
  0
LINE
  5
136
330
17
100
AcDbEntity
  8
Hachura
 62
7
370
25
100
AcDbLine
 10
3577.7828001252374
 20
11315.6820330594
 30
0.0
 11
3577.7828001252374
 21
11316.133478780785
 31
0.0
  0
LINE
  5
137
330
17
100
AcDbEntity
  8
Hachura
 62
7
370
25
100
AcDbLine
 10
3574.359826279924
 20
11309.896005522962
 30
0.0
 11
3574.359826279924
 21
11308.968782847882
 31
0.0
  0
LINE
  5
138
330
17
100
AcDbEntity
  8
Hachura
 62
7
370
25
100
AcDbLine
 10
3573.517324363722
 20
11309.896005522962
 30
0.0
 11
3573.517324363722
 21
11308.968782847882
 31
0.0
  0
LINE
  5
139
330
17
100
AcDbEntity
  8
Hachura
 62
7
370
25
100
AcDbLine
 10
3573.053948131863
 20
11309.896005522962
 30
0.0
 11
3573.053948131863
 21
11308.968782847882
 31
0.0
  0
LINE
  5
13A
330
17
100
AcDbEntity
  8
Hachura
 62
7
370
25
100
AcDbLine
 10
3572.7169473996855
 20
11309.896005522962
 30
0.0
 11
3572.7169473996855
 21
11308.968782847882
 31
0.0
  0
LINE
  5
13B
330
17
100
AcDbEntity
  8
Hachura
 62
7
370
25
100
AcDbLine
 10
3572.5063216526405
 20
11309.896005522962
 30
0.0
 11
3572.5063216526405
 21
11308.968782847882
 31
0.0
  0
LINE
  5
13C
330
17
100
AcDbEntity
  8
Hachura
 62
7
370
25
100
AcDbLine
 10
3577.783422393003
 20
11174.978541559225
 30
0.0
 11
3577.783422393003
 21
11174.33361910439
 31
0.0
  0
LINE
  5
13D
330
17
100
AcDbEntity
  8
Hachura
 62
7
370
25
100
AcDbLine
 10
3577.783422393003
 20
11173.817681144812
 30
0.0
 11
3579.7181897575056
 21
11174.785064827065
 31
0.0
  0
LINE
  5
13E
330
17
100
AcDbEntity
  8
Hachura
 62
7
370
25
100
AcDbLine
 10
3577.710739062157
 20
11173.910323985363
 30
0.0
 11
3579.8763518197147
 21
11174.993130321263
 31
0.0
  0
LINE
  5
13F
330
17
100
AcDbEntity
  8
Hachura
 62
7
370
25
100
AcDbLine
 10
3579.8179139292924
 20
11175.221880398722
 30
0.0
 11
3577.6773362606273
 21
11174.15159154295
 31
0.0
  0
LINE
  5
140
330
17
100
AcDbEntity
  8
Hachura
 62
7
370
25
100
AcDbLine
 10
3579.7181897575056
 20
11175.30100278664
 30
0.0
 11
3577.783422393003
 21
11174.33361910439
 31
0.0
  0
LINE
  5
141
330
17
100
AcDbEntity
  8
Hachura
 62
7
370
25
100
AcDbLine
 10
3579.7181897575056
 20
11175.945925241474
 30
0.0
 11
3579.7181897575056
 21
11175.30100278664
 31
0.0
  0
LINE
  5
142
330
17
100
AcDbEntity
  8
Hachura
 62
7
370
25
100
AcDbLine
 10
3579.7181897575056
 20
11177.622723626188
 30
0.0
 11
3579.7181897575056
 21
11178.267646081022
 31
0.0
  0
LINE
  5
143
330
17
100
AcDbEntity
  8
Hachura
 62
7
370
25
100
AcDbLine
 10
3579.7181897575056
 20
11176.673717860893
 30
0.0
 11
3579.7181897575056
 21
11176.461863211776
 31
0.0
  0
LINE
  5
144
330
17
100
AcDbEntity
  8
Hachura
 62
7
370
25
100
AcDbLine
 10
3579.7181897575056
 20
11176.673717860893
 30
0.0
 11
3579.7181897575056
 21
11177.106785666607
 31
0.0
  0
LINE
  5
145
330
17
100
AcDbEntity
  8
Hachura
 62
7
370
25
100
AcDbLine
 10
3577.783422393003
 20
11176.139401984357
 30
0.0
 11
3577.783422393003
 21
11175.494479529523
 31
0.0
  0
LINE
  5
146
330
17
100
AcDbEntity
  8
Hachura
 62
7
370
25
100
AcDbLine
 10
3577.783422393003
 20
11177.300262398772
 30
0.0
 11
3577.783422393003
 21
11176.655339943938
 31
0.0
  0
LINE
  5
147
330
17
100
AcDbEntity
  8
Hachura
 62
7
370
25
100
AcDbLine
 10
3577.783422393003
 20
11174.978541559225
 30
0.0
 11
3579.7181897575056
 21
11175.945925241474
 31
0.0
  0
LINE
  5
148
330
17
100
AcDbEntity
  8
Hachura
 62
7
370
25
100
AcDbLine
 10
3577.710739062157
 20
11175.071184410495
 30
0.0
 11
3579.8763518197147
 21
11176.153990746396
 31
0.0
  0
LINE
  5
149
330
17
100
AcDbEntity
  8
Hachura
 62
7
370
25
100
AcDbLine
 10
3579.8179139292924
 20
11176.382740813131
 30
0.0
 11
3577.6773362606273
 21
11175.312451968082
 31
0.0
  0
LINE
  5
14A
330
17
100
AcDbEntity
  8
Hachura
 62
7
370
25
100
AcDbLine
 10
3579.7181897575056
 20
11176.461863211776
 30
0.0
 11
3577.783422393003
 21
11175.494479529523
 31
0.0
  0
LINE
  5
14B
330
17
100
AcDbEntity
  8
Hachura
 62
7
370
25
100
AcDbLine
 10
3577.783422393003
 20
11177.300262398772
 30
0.0
 11
3579.7181897575056
 21
11178.267646081022
 31
0.0
  0
LINE
  5
14C
330
17
100
AcDbEntity
  8
Hachura
 62
7
370
25
100
AcDbLine
 10
3577.783422393003
 20
11176.139401984357
 30
0.0
 11
3579.7181897575056
 21
11177.106785666607
 31
0.0
  0
LINE
  5
14D
330
17
100
AcDbEntity
  8
Hachura
 62
7
370
25
100
AcDbLine
 10
3577.710739062157
 20
11176.23204482491
 30
0.0
 11
3579.8763518197147
 21
11177.31485116081
 31
0.0
  0
LINE
  5
14E
330
17
100
AcDbEntity
  8
Hachura
 62
7
370
25
100
AcDbLine
 10
3579.8179139292924
 20
11177.543601227546
 30
0.0
 11
3577.6773362606273
 21
11176.473312382497
 31
0.0
  0
LINE
  5
14F
330
17
100
AcDbEntity
  8
Hachura
 62
7
370
25
100
AcDbLine
 10
3579.7181897575056
 20
11177.622723626188
 30
0.0
 11
3577.783422393003
 21
11176.655339943938
 31
0.0
  0
LINE
  5
150
330
17
100
AcDbEntity
  8
Hachura
 62
7
370
25
100
AcDbLine
 10
3579.460428087071
 20
11173.495323555993
 30
0.0
 11
3579.7181897575056
 21
11173.62420441265
 31
0.0
  0
LINE
  5
151
330
17
100
AcDbEntity
  8
Hachura
 62
7
370
25
100
AcDbLine
 10
3579.202459096561
 20
11173.495323555993
 30
0.0
 11
3579.8763518197147
 21
11173.832269917571
 31
0.0
  0
LINE
  5
152
330
17
100
AcDbEntity
  8
Hachura
 62
7
370
25
100
AcDbLine
 10
3579.7181897575056
 20
11173.62420441265
 30
0.0
 11
3579.7181897575056
 21
11173.495323555993
 31
0.0
  0
LINE
  5
153
330
17
100
AcDbEntity
  8
Hachura
 62
7
370
25
100
AcDbLine
 10
3579.716397971785
 20
11173.496933652576
 30
0.0
 11
3579.393936744368
 21
11173.174472403718
 31
0.0
  0
LINE
  5
154
330
17
100
AcDbEntity
  8
Hachura
 62
7
370
25
100
AcDbLine
 10
3579.7181897575056
 20
11174.140142372231
 30
0.0
 11
3579.7181897575056
 21
11174.785064827065
 31
0.0
  0
LINE
  5
155
330
17
100
AcDbEntity
  8
Hachura
 62
7
370
25
100
AcDbLine
 10
3577.783422393003
 20
11173.817681144812
 30
0.0
 11
3577.783422393003
 21
11173.495323555993
 31
0.0
  0
LINE
  5
156
330
17
100
AcDbEntity
  8
Hachura
 62
7
370
25
100
AcDbLine
 10
3577.7815451065117
 20
11173.496933631137
 30
0.0
 11
3577.7815451065117
 21
11173.49701104921
 31
0.0
  0
LINE
  5
157
330
17
100
AcDbEntity
  8
Hachura
 62
7
370
25
100
AcDbLine
 10
3577.7815451065117
 20
11173.496933631137
 30
0.0
 11
3578.1040918347
 21
11173.174472403718
 31
0.0
  0
LINE
  5
158
330
17
100
AcDbEntity
  8
Hachura
 62
7
370
25
100
AcDbLine
 10
3577.783422393003
 20
11175.70633418936
 30
0.0
 11
3577.783422393003
 21
11175.494479540246
 31
0.0
  0
LINE
  5
159
330
17
100
AcDbEntity
  8
Hachura
 62
7
370
25
100
AcDbLine
 10
3579.8179139292924
 20
11174.061019984307
 30
0.0
 11
3578.6865211155437
 21
11173.495323555993
 31
0.0
  0
LINE
  5
15A
330
17
100
AcDbEntity
  8
Hachura
 62
7
370
25
100
AcDbLine
 10
3579.7181897575056
 20
11174.140142372231
 30
0.0
 11
3578.428552167913
 21
11173.495323555993
 31
0.0
  0
LINE
  5
15B
330
17
100
AcDbEntity
  8
Hachura
 62
7
370
25
100
AcDbLine
 10
3578.1040918347
 20
11173.174472403718
 30
0.0
 11
3579.393936744368
 21
11173.174472403718
 31
0.0
  0
LINE
  5
15C
330
17
100
AcDbEntity
  8
Hachura
 62
7
370
25
100
AcDbLine
 10
3577.783422393003
 20
11173.817681144812
 30
0.0
 11
3579.7181897575056
 21
11174.785064827065
 31
0.0
  0
LINE
  5
15D
330
17
100
AcDbEntity
  8
Hachura
 62
7
370
25
100
AcDbLine
 10
3579.716397971785
 20
11173.496933652576
 30
0.0
 11
3577.7816306072828
 21
11173.496933652576
 31
0.0
  0
LINE
  5
15E
330
17
100
AcDbEntity
  8
Hachura
 62
7
370
25
100
AcDbLine
 10
3584.31175324963
 20
11184.97483960915
 30
0.0
 11
3576.497091504999
 21
11184.97483960915
 31
0.0
  0
LINE
  5
15F
330
17
100
AcDbEntity
  8
Hachura
 62
7
370
25
100
AcDbLine
 10
3580.4920967290327
 20
11178.267646081022
 30
0.0
 11
3577.138499938169
 21
11178.267646081022
 31
0.0
  0
LINE
  5
160
330
17
100
AcDbEntity
  8
Hachura
 62
7
370
25
100
AcDbLine
 10
3580.4920967290327
 20
11178.33536293835
 30
0.0
 11
3577.138499938169
 21
11178.33536293835
 31
0.0
  0
LINE
  5
161
330
17
100
AcDbEntity
  8
Hachura
 62
7
370
25
100
AcDbLine
 10
3576.8805309905374
 20
11181.49225835519
 30
0.0
 11
3580.7500657195424
 21
11181.49225835519
 31
0.0
  0
LINE
  5
162
330
17
100
AcDbEntity
  8
Hachura
 62
7
370
25
100
AcDbLine
 10
3572.366073806701
 20
11184.071948174527
 30
0.0
 11
3585.2645229033797
 21
11184.071948174527
 31
0.0
  0
LINE
  5
163
330
17
100
AcDbEntity
  8
Hachura
 62
7
370
25
100
AcDbLine
 10
3585.2645229033797
 20
11184.97483960915
 30
0.0
 11
3572.369615571094
 21
11184.97483960915
 31
0.0
  0
LINE
  5
164
330
17
100
AcDbEntity
  8
Hachura
 62
7
370
25
100
AcDbLine
 10
3578.1703759002057
 20
11178.267646081022
 30
0.0
 11
3578.1703759002057
 21
11181.49225835519
 31
0.0
  0
LINE
  5
165
330
17
100
AcDbEntity
  8
Hachura
 62
7
370
25
100
AcDbLine
 10
3577.138499938169
 20
11178.267646081022
 30
0.0
 11
3577.138499938169
 21
11181.49225835519
 31
0.0
  0
LINE
  5
166
330
17
100
AcDbEntity
  8
Hachura
 62
7
370
25
100
AcDbLine
 10
3578.81529835504
 20
11184.071948174527
 30
0.0
 11
3576.8805309905374
 21
11184.071948174527
 31
0.0
  0
LINE
  5
167
330
17
100
AcDbEntity
  8
Hachura
 62
7
370
25
100
AcDbLine
 10
3577.5254534453716
 20
11184.071948174527
 30
0.0
 11
3578.1703759002057
 21
11184.071948174527
 31
0.0
  0
LINE
  5
168
330
17
100
AcDbEntity
  8
Hachura
 62
7
370
25
100
AcDbLine
 10
3578.8096579926787
 20
11184.071948174527
 30
0.0
 11
3578.8096579926787
 21
11184.97483960915
 31
0.0
  0
LINE
  5
169
330
17
100
AcDbEntity
  8
Hachura
 62
7
370
25
100
AcDbLine
 10
3578.50311630133
 20
11184.071948174527
 30
0.0
 11
3578.50311630133
 21
11182.07278898507
 31
0.0
  0
LINE
  5
16A
330
17
100
AcDbEntity
  8
Hachura
 62
7
370
25
100
AcDbLine
 10
3579.0190542823493
 20
11182.07278898507
 30
0.0
 11
3579.0190542823493
 21
11184.071948174527
 31
0.0
  0
LINE
  5
16B
330
17
100
AcDbEntity
  8
Hachura
 62
7
370
25
100
AcDbLine
 10
3575.7754217313077
 20
11184.05367361746
 30
0.0
 11
3575.7754217313077
 21
11184.98089629254
 31
0.0
  0
LINE
  5
16C
330
17
100
AcDbEntity
  8
Hachura
 62
7
370
25
100
AcDbLine
 10
3577.855682722292
 20
11184.824793731228
 30
0.0
 11
3577.855682722292
 21
11184.391725925509
 31
0.0
  0
LINE
  5
16D
330
17
100
AcDbEntity
  8
Hachura
 62
7
370
25
100
AcDbLine
 10
3576.8805309905374
 20
11184.071948174527
 30
0.0
 11
3576.8805309905374
 21
11181.49225835519
 31
0.0
  0
LINE
  5
16E
330
17
100
AcDbEntity
  8
Hachura
 62
7
370
25
100
AcDbLine
 10
3577.855682722292
 20
11184.391725925509
 30
0.0
 11
3577.855682722292
 21
11184.179871276394
 31
0.0
  0
LINE
  5
16F
330
17
100
AcDbEntity
  8
Hachura
 62
7
370
25
100
AcDbLine
 10
3572.369615571094
 20
11184.97483960915
 30
0.0
 11
3572.369615571094
 21
11179.838171027064
 31
0.0
  0
LINE
  5
170
330
17
100
AcDbEntity
  8
Hachura
 62
7
370
25
100
AcDbLine
 10
3574.042872180694
 20
11179.81545997048
 30
0.0
 11
3574.6245322547484
 21
11182.025768288331
 31
0.0
  0
LINE
  5
171
330
17
100
AcDbEntity
  8
Hachura
 62
7
370
25
100
AcDbLine
 10
3572.366073806701
 20
11179.81545997048
 30
0.0
 11
3574.042872180694
 21
11179.81545997048
 31
0.0
  0
LINE
  5
172
330
17
100
AcDbEntity
  8
Hachura
 62
7
370
25
100
AcDbLine
 10
3574.9363762931216
 20
11182.26616529456
 30
0.0
 11
3576.8805309905374
 21
11182.26616529456
 31
0.0
  0
LINE
  5
173
330
17
100
AcDbEntity
  8
Hachura
 62
7
370
25
100
AcDbLine
 10
3572.366073806701
 20
11184.071948174527
 30
0.0
 11
3577.5254534453716
 21
11184.071948174527
 31
0.0
  0
LINE
  5
174
330
17
100
AcDbEntity
  8
Hachura
 62
7
370
25
100
AcDbLine
 10
3583.5877244865087
 20
11179.81545997048
 30
0.0
 11
3583.006064412454
 21
11182.025768288331
 31
0.0
  0
LINE
  5
175
330
17
100
AcDbEntity
  8
Hachura
 62
7
370
25
100
AcDbLine
 10
3580.4920967290327
 20
11181.49225835519
 30
0.0
 11
3580.4920967290327
 21
11178.267646081022
 31
0.0
  0
LINE
  5
176
330
17
100
AcDbEntity
  8
Hachura
 62
7
370
25
100
AcDbLine
 10
3579.7181897575056
 20
11178.267646081022
 30
0.0
 11
3579.7181897575056
 21
11181.49225835519
 31
0.0
  0
LINE
  5
177
330
17
100
AcDbEntity
  8
Hachura
 62
7
370
25
100
AcDbLine
 10
3581.841436325518
 20
11184.05367361746
 30
0.0
 11
3581.841436325518
 21
11184.97483960915
 31
0.0
  0
LINE
  5
178
330
17
100
AcDbEntity
  8
Hachura
 62
7
370
25
100
AcDbLine
 10
3579.7904500867944
 20
11184.198249193347
 30
0.0
 11
3579.7904500867944
 21
11184.631316988345
 31
0.0
  0
LINE
  5
179
330
17
100
AcDbEntity
  8
Hachura
 62
7
370
25
100
AcDbLine
 10
3583.2736899303827
 20
11184.05367361746
 30
0.0
 11
3583.2736899303827
 21
11184.98089629254
 31
0.0
  0
LINE
  5
17A
330
17
100
AcDbEntity
  8
Hachura
 62
7
370
25
100
AcDbLine
 10
3580.7500657195424
 20
11181.49225835519
 30
0.0
 11
3580.7500657195424
 21
11184.071948174527
 31
0.0
  0
LINE
  5
17B
330
17
100
AcDbEntity
  8
Hachura
 62
7
370
25
100
AcDbLine
 10
3580.7500657195424
 20
11181.49225835519
 30
0.0
 11
3580.4920967290327
 21
11181.49225835519
 31
0.0
  0
LINE
  5
17C
330
17
100
AcDbEntity
  8
Hachura
 62
7
370
25
100
AcDbLine
 10
3580.7500657195424
 20
11181.49225835519
 30
0.0
 11
3580.4920967290327
 21
11181.49225835519
 31
0.0
  0
LINE
  5
17D
330
17
100
AcDbEntity
  8
Hachura
 62
7
370
25
100
AcDbLine
 10
3582.694220374078
 20
11182.26616529456
 30
0.0
 11
3580.7461837958635
 21
11182.26616529456
 31
0.0
  0
LINE
  5
17E
330
17
100
AcDbEntity
  8
Hachura
 62
7
370
25
100
AcDbLine
 10
3585.2645229033797
 20
11184.071948174527
 30
0.0
 11
3585.2645229033797
 21
11179.81545997048
 31
0.0
  0
LINE
  5
17F
330
17
100
AcDbEntity
  8
Hachura
 62
7
370
25
100
AcDbLine
 10
3585.2645229033797
 20
11184.071948174527
 30
0.0
 11
3585.2645229033797
 21
11184.97483960915
 31
0.0
  0
LINE
  5
180
330
17
100
AcDbEntity
  8
Hachura
 62
7
370
25
100
AcDbLine
 10
3584.116191846585
 20
11184.05367361746
 30
0.0
 11
3584.116191846585
 21
11184.98089629254
 31
0.0
  0
LINE
  5
181
330
17
100
AcDbEntity
  8
Hachura
 62
7
370
25
100
AcDbLine
 10
3584.579568078444
 20
11184.05367361746
 30
0.0
 11
3584.579568078444
 21
11184.98089629254
 31
0.0
  0
LINE
  5
182
330
17
100
AcDbEntity
  8
Hachura
 62
7
370
25
100
AcDbLine
 10
3584.9165688106214
 20
11184.05367361746
 30
0.0
 11
3584.9165688106214
 21
11184.98089629254
 31
0.0
  0
LINE
  5
183
330
17
100
AcDbEntity
  8
Hachura
 62
7
370
25
100
AcDbLine
 10
3585.1271945576664
 20
11184.05367361746
 30
0.0
 11
3585.1271945576664
 21
11184.98089629254
 31
0.0
  0
LINE
  5
184
330
17
100
AcDbEntity
  8
Hachura
 62
7
370
25
100
AcDbLine
 10
3585.2645229033797
 20
11179.81545997048
 30
0.0
 11
3583.5877244865087
 21
11179.81545997048
 31
0.0
  0
LINE
  5
185
330
17
100
AcDbEntity
  8
Hachura
 62
7
370
25
100
AcDbLine
 10
3578.9442828099945
 20
11178.267646081022
 30
0.0
 11
3577.6773362570293
 21
11177.634172798194
 31
0.0
  0
LINE
  5
186
330
17
100
AcDbEntity
  8
Hachura
 62
7
370
25
100
AcDbLine
 10
3578.686313832176
 20
11178.267646081022
 30
0.0
 11
3577.783422389405
 21
11177.816200359637
 31
0.0
  0
LINE
  5
187
330
17
100
AcDbEntity
  8
Hachura
 62
7
370
25
100
AcDbLine
 10
3577.783422389404
 20
11178.267646081022
 30
0.0
 11
3577.783422389404
 21
11177.816200359637
 31
0.0
  0
LINE
  5
188
330
17
100
AcDbEntity
  8
Hachura
 62
7
370
25
100
AcDbLine
 10
3574.360448544091
 20
11184.05367361746
 30
0.0
 11
3574.360448544091
 21
11184.98089629254
 31
0.0
  0
LINE
  5
189
330
17
100
AcDbEntity
  8
Hachura
 62
7
370
25
100
AcDbLine
 10
3573.5179466278887
 20
11184.05367361746
 30
0.0
 11
3573.5179466278887
 21
11184.98089629254
 31
0.0
  0
LINE
  5
18A
330
17
100
AcDbEntity
  8
Hachura
 62
7
370
25
100
AcDbLine
 10
3573.0545703960297
 20
11184.05367361746
 30
0.0
 11
3573.0545703960297
 21
11184.98089629254
 31
0.0
  0
LINE
  5
18B
330
17
100
AcDbEntity
  8
Hachura
 62
7
370
25
100
AcDbLine
 10
3572.7175696638524
 20
11184.05367361746
 30
0.0
 11
3572.7175696638524
 21
11184.98089629254
 31
0.0
  0
LINE
  5
18C
330
17
100
AcDbEntity
  8
Hachura
 62
7
370
25
100
AcDbLine
 10
3572.5069439168074
 20
11184.05367361746
 30
0.0
 11
3572.5069439168074
 21
11184.98089629254
 31
0.0
  0
LINE
  5
18D
330
17
100
AcDbEntity
  8
Hachura
 62
7
370
25
100
AcDbLine
 10
3578.81618655636
 20
11319.77520673667
 30
0.0
 11
3578.807645345514
 21
11177.97483960915
 31
0.0
  0
LINE
  5
18E
330
17
100
AcDbEntity
  8
Hachura
 62
7
370
25
100
AcDbLine
 10
3661.7831061022944
 20
11318.971137581197
 30
0.0
 11
3661.7831061022944
 21
11319.61606003603
 31
0.0
  0
LINE
  5
18F
330
17
100
AcDbEntity
  8
Hachura
 62
7
370
25
100
AcDbLine
 10
3661.7831061022944
 20
11320.13199799561
 30
0.0
 11
3663.717873466797
 21
11319.164614313357
 31
0.0
  0
LINE
  5
190
330
17
100
AcDbEntity
  8
Hachura
 62
7
370
25
100
AcDbLine
 10
3661.710422771448
 20
11320.039355155059
 30
0.0
 11
3663.876035529006
 21
11318.956548819158
 31
0.0
  0
LINE
  5
191
330
17
100
AcDbEntity
  8
Hachura
 62
7
370
25
100
AcDbLine
 10
3663.8175976385837
 20
11318.7277987417
 30
0.0
 11
3661.6770199699185
 21
11319.798087597472
 31
0.0
  0
LINE
  5
192
330
17
100
AcDbEntity
  8
Hachura
 62
7
370
25
100
AcDbLine
 10
3663.717873466797
 20
11318.648676353781
 30
0.0
 11
3661.7831061022944
 21
11319.61606003603
 31
0.0
  0
LINE
  5
193
330
17
100
AcDbEntity
  8
Hachura
 62
7
370
25
100
AcDbLine
 10
3663.717873466797
 20
11318.003753898947
 30
0.0
 11
3663.717873466797
 21
11318.648676353781
 31
0.0
  0
LINE
  5
194
330
17
100
AcDbEntity
  8
Hachura
 62
7
370
25
100
AcDbLine
 10
3663.717873466797
 20
11316.326955514234
 30
0.0
 11
3663.717873466797
 21
11315.6820330594
 31
0.0
  0
LINE
  5
195
330
17
100
AcDbEntity
  8
Hachura
 62
7
370
25
100
AcDbLine
 10
3663.717873466797
 20
11317.275961279529
 30
0.0
 11
3663.717873466797
 21
11317.487815928645
 31
0.0
  0
LINE
  5
196
330
17
100
AcDbEntity
  8
Hachura
 62
7
370
25
100
AcDbLine
 10
3663.717873466797
 20
11317.275961279529
 30
0.0
 11
3663.717873466797
 21
11316.842893473815
 31
0.0
  0
LINE
  5
197
330
17
100
AcDbEntity
  8
Hachura
 62
7
370
25
100
AcDbLine
 10
3661.7831061022944
 20
11317.810277156064
 30
0.0
 11
3661.7831061022944
 21
11318.455199610898
 31
0.0
  0
LINE
  5
198
330
17
100
AcDbEntity
  8
Hachura
 62
7
370
25
100
AcDbLine
 10
3661.7831061022944
 20
11316.64941674165
 30
0.0
 11
3661.7831061022944
 21
11317.294339196484
 31
0.0
  0
LINE
  5
199
330
17
100
AcDbEntity
  8
Hachura
 62
7
370
25
100
AcDbLine
 10
3661.7831061022944
 20
11318.971137581197
 30
0.0
 11
3663.717873466797
 21
11318.003753898947
 31
0.0
  0
LINE
  5
19A
330
17
100
AcDbEntity
  8
Hachura
 62
7
370
25
100
AcDbLine
 10
3661.710422771448
 20
11318.878494729926
 30
0.0
 11
3663.876035529006
 21
11317.795688394026
 31
0.0
  0
LINE
  5
19B
330
17
100
AcDbEntity
  8
Hachura
 62
7
370
25
100
AcDbLine
 10
3663.8175976385837
 20
11317.56693832729
 30
0.0
 11
3661.6770199699185
 21
11318.63722717234
 31
0.0
  0
LINE
  5
19C
330
17
100
AcDbEntity
  8
Hachura
 62
7
370
25
100
AcDbLine
 10
3663.717873466797
 20
11317.487815928645
 30
0.0
 11
3661.7831061022944
 21
11318.455199610898
 31
0.0
  0
LINE
  5
19D
330
17
100
AcDbEntity
  8
Hachura
 62
7
370
25
100
AcDbLine
 10
3661.7831061022944
 20
11316.64941674165
 30
0.0
 11
3663.717873466797
 21
11315.6820330594
 31
0.0
  0
LINE
  5
19E
330
17
100
AcDbEntity
  8
Hachura
 62
7
370
25
100
AcDbLine
 10
3661.7831061022944
 20
11317.810277156064
 30
0.0
 11
3663.717873466797
 21
11316.842893473815
 31
0.0
  0
LINE
  5
19F
330
17
100
AcDbEntity
  8
Hachura
 62
7
370
25
100
AcDbLine
 10
3661.710422771448
 20
11317.717634315512
 30
0.0
 11
3663.876035529006
 21
11316.634827979611
 31
0.0
  0
LINE
  5
1A0
330
17
100
AcDbEntity
  8
Hachura
 62
7
370
25
100
AcDbLine
 10
3663.8175976385837
 20
11316.406077912876
 30
0.0
 11
3661.6770199699185
 21
11317.476366757925
 31
0.0
  0
LINE
  5
1A1
330
17
100
AcDbEntity
  8
Hachura
 62
7
370
25
100
AcDbLine
 10
3663.717873466797
 20
11316.326955514234
 30
0.0
 11
3661.7831061022944
 21
11317.294339196484
 31
0.0
  0
LINE
  5
1A2
330
17
100
AcDbEntity
  8
Hachura
 62
7
370
25
100
AcDbLine
 10
3663.460111796362
 20
11320.454355584428
 30
0.0
 11
3663.717873466797
 21
11320.325474727772
 31
0.0
  0
LINE
  5
1A3
330
17
100
AcDbEntity
  8
Hachura
 62
7
370
25
100
AcDbLine
 10
3663.2021428058524
 20
11320.454355584428
 30
0.0
 11
3663.876035529006
 21
11320.11740922285
 31
0.0
  0
LINE
  5
1A4
330
17
100
AcDbEntity
  8
Hachura
 62
7
370
25
100
AcDbLine
 10
3663.717873466797
 20
11320.325474727772
 30
0.0
 11
3663.717873466797
 21
11320.454355584428
 31
0.0
  0
LINE
  5
1A5
330
17
100
AcDbEntity
  8
Hachura
 62
7
370
25
100
AcDbLine
 10
3663.7160816810765
 20
11320.452745487846
 30
0.0
 11
3663.3936204536594
 21
11320.775206736704
 31
0.0
  0
LINE
  5
1A6
330
17
100
AcDbEntity
  8
Hachura
 62
7
370
25
100
AcDbLine
 10
3663.717873466797
 20
11319.80953676819
 30
0.0
 11
3663.717873466797
 21
11319.164614313357
 31
0.0
  0
LINE
  5
1A7
330
17
100
AcDbEntity
  8
Hachura
 62
7
370
25
100
AcDbLine
 10
3661.7831061022944
 20
11320.13199799561
 30
0.0
 11
3661.7831061022944
 21
11320.454355584428
 31
0.0
  0
LINE
  5
1A8
330
17
100
AcDbEntity
  8
Hachura
 62
7
370
25
100
AcDbLine
 10
3661.781228815803
 20
11320.452745509285
 30
0.0
 11
3661.781228815803
 21
11320.452668091211
 31
0.0
  0
LINE
  5
1A9
330
17
100
AcDbEntity
  8
Hachura
 62
7
370
25
100
AcDbLine
 10
3661.781228815803
 20
11320.452745509285
 30
0.0
 11
3662.103775543991
 21
11320.775206736704
 31
0.0
  0
LINE
  5
1AA
330
17
100
AcDbEntity
  8
Hachura
 62
7
370
25
100
AcDbLine
 10
3661.7831061022944
 20
11318.24334495106
 30
0.0
 11
3661.7831061022944
 21
11318.455199600176
 31
0.0
  0
LINE
  5
1AB
330
17
100
AcDbEntity
  8
Hachura
 62
7
370
25
100
AcDbLine
 10
3663.8175976385837
 20
11319.888659156115
 30
0.0
 11
3662.686204824835
 21
11320.454355584428
 31
0.0
  0
LINE
  5
1AC
330
17
100
AcDbEntity
  8
Hachura
 62
7
370
25
100
AcDbLine
 10
3663.717873466797
 20
11319.80953676819
 30
0.0
 11
3662.4282358772043
 21
11320.454355584428
 31
0.0
  0
LINE
  5
1AD
330
17
100
AcDbEntity
  8
Hachura
 62
7
370
25
100
AcDbLine
 10
3662.103775543991
 20
11320.775206736704
 30
0.0
 11
3663.3936204536594
 21
11320.775206736704
 31
0.0
  0
LINE
  5
1AE
330
17
100
AcDbEntity
  8
Hachura
 62
7
370
25
100
AcDbLine
 10
3661.7831061022944
 20
11320.13199799561
 30
0.0
 11
3663.717873466797
 21
11319.164614313357
 31
0.0
  0
LINE
  5
1AF
330
17
100
AcDbEntity
  8
Hachura
 62
7
370
25
100
AcDbLine
 10
3663.7160816810765
 20
11320.452745487846
 30
0.0
 11
3661.781314316574
 21
11320.452745487846
 31
0.0
  0
LINE
  5
1B0
330
17
100
AcDbEntity
  8
Hachura
 62
7
370
25
100
AcDbLine
 10
3668.311436958921
 20
11308.97483953127
 30
0.0
 11
3660.49677521429
 21
11308.97483953127
 31
0.0
  0
LINE
  5
1B1
330
17
100
AcDbEntity
  8
Hachura
 62
7
370
25
100
AcDbLine
 10
3664.491780438324
 20
11315.6820330594
 30
0.0
 11
3661.13818364746
 21
11315.6820330594
 31
0.0
  0
LINE
  5
1B2
330
17
100
AcDbEntity
  8
Hachura
 62
7
370
25
100
AcDbLine
 10
3664.491780438324
 20
11315.614316202073
 30
0.0
 11
3661.13818364746
 21
11315.614316202073
 31
0.0
  0
LINE
  5
1B3
330
17
100
AcDbEntity
  8
Hachura
 62
7
370
25
100
AcDbLine
 10
3660.8802146998287
 20
11312.457420785231
 30
0.0
 11
3664.7497494288336
 21
11312.457420785231
 31
0.0
  0
LINE
  5
1B4
330
17
100
AcDbEntity
  8
Hachura
 62
7
370
25
100
AcDbLine
 10
3656.3657575159923
 20
11309.877730965894
 30
0.0
 11
3669.264206612671
 21
11309.877730965894
 31
0.0
  0
LINE
  5
1B5
330
17
100
AcDbEntity
  8
Hachura
 62
7
370
25
100
AcDbLine
 10
3669.264206612671
 20
11308.97483953127
 30
0.0
 11
3656.3692992803853
 21
11308.97483953127
 31
0.0
  0
LINE
  5
1B6
330
17
100
AcDbEntity
  8
Hachura
 62
7
370
25
100
AcDbLine
 10
3662.170059609497
 20
11315.6820330594
 30
0.0
 11
3662.170059609497
 21
11312.457420785231
 31
0.0
  0
LINE
  5
1B7
330
17
100
AcDbEntity
  8
Hachura
 62
7
370
25
100
AcDbLine
 10
3661.13818364746
 20
11315.6820330594
 30
0.0
 11
3661.13818364746
 21
11312.457420785231
 31
0.0
  0
LINE
  5
1B8
330
17
100
AcDbEntity
  8
Hachura
 62
7
370
25
100
AcDbLine
 10
3662.814982064331
 20
11309.877730965894
 30
0.0
 11
3660.8802146998287
 21
11309.877730965894
 31
0.0
  0
LINE
  5
1B9
330
17
100
AcDbEntity
  8
Hachura
 62
7
370
25
100
AcDbLine
 10
3661.525137154663
 20
11309.877730965894
 30
0.0
 11
3662.170059609497
 21
11309.877730965894
 31
0.0
  0
LINE
  5
1BA
330
17
100
AcDbEntity
  8
Hachura
 62
7
370
25
100
AcDbLine
 10
3662.80934170197
 20
11309.877730965894
 30
0.0
 11
3662.80934170197
 21
11308.97483953127
 31
0.0
  0
LINE
  5
1BB
330
17
100
AcDbEntity
  8
Hachura
 62
7
370
25
100
AcDbLine
 10
3662.5028000106213
 20
11309.877730965894
 30
0.0
 11
3662.5028000106213
 21
11311.876890155352
 31
0.0
  0
LINE
  5
1BC
330
17
100
AcDbEntity
  8
Hachura
 62
7
370
25
100
AcDbLine
 10
3663.0187379916406
 20
11311.876890155352
 30
0.0
 11
3663.0187379916406
 21
11309.877730965894
 31
0.0
  0
LINE
  5
1BD
330
17
100
AcDbEntity
  8
Hachura
 62
7
370
25
100
AcDbLine
 10
3659.775105440599
 20
11309.896005522962
 30
0.0
 11
3659.775105440599
 21
11308.968782847882
 31
0.0
  0
LINE
  5
1BE
330
17
100
AcDbEntity
  8
Hachura
 62
7
370
25
100
AcDbLine
 10
3661.855366431583
 20
11309.124885409194
 30
0.0
 11
3661.855366431583
 21
11309.557953214913
 31
0.0
  0
LINE
  5
1BF
330
17
100
AcDbEntity
  8
Hachura
 62
7
370
25
100
AcDbLine
 10
3660.8802146998287
 20
11309.877730965894
 30
0.0
 11
3660.8802146998287
 21
11312.457420785231
 31
0.0
  0
LINE
  5
1C0
330
17
100
AcDbEntity
  8
Hachura
 62
7
370
25
100
AcDbLine
 10
3661.855366431583
 20
11309.557953214913
 30
0.0
 11
3661.855366431583
 21
11309.769807864028
 31
0.0
  0
LINE
  5
1C1
330
17
100
AcDbEntity
  8
Hachura
 62
7
370
25
100
AcDbLine
 10
3656.3692992803853
 20
11308.97483953127
 30
0.0
 11
3656.3692992803853
 21
11314.111508113358
 31
0.0
  0
LINE
  5
1C2
330
17
100
AcDbEntity
  8
Hachura
 62
7
370
25
100
AcDbLine
 10
3658.042555889985
 20
11314.134219169942
 30
0.0
 11
3658.6242159640396
 21
11311.92391085209
 31
0.0
  0
LINE
  5
1C3
330
17
100
AcDbEntity
  8
Hachura
 62
7
370
25
100
AcDbLine
 10
3656.3657575159923
 20
11314.134219169942
 30
0.0
 11
3658.042555889985
 21
11314.134219169942
 31
0.0
  0
LINE
  5
1C4
330
17
100
AcDbEntity
  8
Hachura
 62
7
370
25
100
AcDbLine
 10
3658.936060002413
 20
11311.683513845861
 30
0.0
 11
3660.8802146998287
 21
11311.683513845861
 31
0.0
  0
LINE
  5
1C5
330
17
100
AcDbEntity
  8
Hachura
 62
7
370
25
100
AcDbLine
 10
3656.3657575159923
 20
11309.877730965894
 30
0.0
 11
3661.525137154663
 21
11309.877730965894
 31
0.0
  0
LINE
  5
1C6
330
17
100
AcDbEntity
  8
Hachura
 62
7
370
25
100
AcDbLine
 10
3667.5874081958
 20
11314.134219169942
 30
0.0
 11
3667.0057481217455
 21
11311.92391085209
 31
0.0
  0
LINE
  5
1C7
330
17
100
AcDbEntity
  8
Hachura
 62
7
370
25
100
AcDbLine
 10
3664.491780438324
 20
11312.457420785231
 30
0.0
 11
3664.491780438324
 21
11315.6820330594
 31
0.0
  0
LINE
  5
1C8
330
17
100
AcDbEntity
  8
Hachura
 62
7
370
25
100
AcDbLine
 10
3663.717873466797
 20
11315.6820330594
 30
0.0
 11
3663.717873466797
 21
11312.457420785231
 31
0.0
  0
LINE
  5
1C9
330
17
100
AcDbEntity
  8
Hachura
 62
7
370
25
100
AcDbLine
 10
3665.841120034809
 20
11309.896005522962
 30
0.0
 11
3665.841120034809
 21
11308.97483953127
 31
0.0
  0
LINE
  5
1CA
330
17
100
AcDbEntity
  8
Hachura
 62
7
370
25
100
AcDbLine
 10
3663.7901337960857
 20
11309.751429947075
 30
0.0
 11
3663.7901337960857
 21
11309.318362152077
 31
0.0
  0
LINE
  5
1CB
330
17
100
AcDbEntity
  8
Hachura
 62
7
370
25
100
AcDbLine
 10
3667.273373639674
 20
11309.896005522962
 30
0.0
 11
3667.273373639674
 21
11308.968782847882
 31
0.0
  0
LINE
  5
1CC
330
17
100
AcDbEntity
  8
Hachura
 62
7
370
25
100
AcDbLine
 10
3664.7497494288336
 20
11312.457420785231
 30
0.0
 11
3664.7497494288336
 21
11309.877730965894
 31
0.0
  0
LINE
  5
1CD
330
17
100
AcDbEntity
  8
Hachura
 62
7
370
25
100
AcDbLine
 10
3664.7497494288336
 20
11312.457420785231
 30
0.0
 11
3664.491780438324
 21
11312.457420785231
 31
0.0
  0
LINE
  5
1CE
330
17
100
AcDbEntity
  8
Hachura
 62
7
370
25
100
AcDbLine
 10
3664.7497494288336
 20
11312.457420785231
 30
0.0
 11
3664.491780438324
 21
11312.457420785231
 31
0.0
  0
LINE
  5
1CF
330
17
100
AcDbEntity
  8
Hachura
 62
7
370
25
100
AcDbLine
 10
3666.6939040833695
 20
11311.683513845861
 30
0.0
 11
3664.745867505155
 21
11311.683513845861
 31
0.0
  0
LINE
  5
1D0
330
17
100
AcDbEntity
  8
Hachura
 62
7
370
25
100
AcDbLine
 10
3669.264206612671
 20
11309.877730965894
 30
0.0
 11
3669.264206612671
 21
11314.134219169942
 31
0.0
  0
LINE
  5
1D1
330
17
100
AcDbEntity
  8
Hachura
 62
7
370
25
100
AcDbLine
 10
3669.264206612671
 20
11309.877730965894
 30
0.0
 11
3669.264206612671
 21
11308.97483953127
 31
0.0
  0
LINE
  5
1D2
330
17
100
AcDbEntity
  8
Hachura
 62
7
370
25
100
AcDbLine
 10
3668.1158755558763
 20
11309.896005522962
 30
0.0
 11
3668.1158755558763
 21
11308.968782847882
 31
0.0
  0
LINE
  5
1D3
330
17
100
AcDbEntity
  8
Hachura
 62
7
370
25
100
AcDbLine
 10
3668.5792517877353
 20
11309.896005522962
 30
0.0
 11
3668.5792517877353
 21
11308.968782847882
 31
0.0
  0
LINE
  5
1D4
330
17
100
AcDbEntity
  8
Hachura
 62
7
370
25
100
AcDbLine
 10
3668.9162525199126
 20
11309.896005522962
 30
0.0
 11
3668.9162525199126
 21
11308.968782847882
 31
0.0
  0
LINE
  5
1D5
330
17
100
AcDbEntity
  8
Hachura
 62
7
370
25
100
AcDbLine
 10
3669.1268782669576
 20
11309.896005522962
 30
0.0
 11
3669.1268782669576
 21
11308.968782847882
 31
0.0
  0
LINE
  5
1D6
330
17
100
AcDbEntity
  8
Hachura
 62
7
370
25
100
AcDbLine
 10
3669.264206612671
 20
11314.134219169942
 30
0.0
 11
3667.5874081958
 21
11314.134219169942
 31
0.0
  0
LINE
  5
1D7
330
17
100
AcDbEntity
  8
Hachura
 62
7
370
25
100
AcDbLine
 10
3662.943966519286
 20
11315.6820330594
 30
0.0
 11
3661.6770199663206
 21
11316.315506342227
 31
0.0
  0
LINE
  5
1D8
330
17
100
AcDbEntity
  8
Hachura
 62
7
370
25
100
AcDbLine
 10
3662.6859975414673
 20
11315.6820330594
 30
0.0
 11
3661.7831060986964
 21
11316.133478780785
 31
0.0
  0
LINE
  5
1D9
330
17
100
AcDbEntity
  8
Hachura
 62
7
370
25
100
AcDbLine
 10
3661.7831060986955
 20
11315.6820330594
 30
0.0
 11
3661.7831060986955
 21
11316.133478780785
 31
0.0
  0
LINE
  5
1DA
330
17
100
AcDbEntity
  8
Hachura
 62
7
370
25
100
AcDbLine
 10
3658.3601322533823
 20
11309.896005522962
 30
0.0
 11
3658.3601322533823
 21
11308.968782847882
 31
0.0
  0
LINE
  5
1DB
330
17
100
AcDbEntity
  8
Hachura
 62
7
370
25
100
AcDbLine
 10
3657.51763033718
 20
11309.896005522962
 30
0.0
 11
3657.51763033718
 21
11308.968782847882
 31
0.0
  0
LINE
  5
1DC
330
17
100
AcDbEntity
  8
Hachura
 62
7
370
25
100
AcDbLine
 10
3657.054254105321
 20
11309.896005522962
 30
0.0
 11
3657.054254105321
 21
11308.968782847882
 31
0.0
  0
LINE
  5
1DD
330
17
100
AcDbEntity
  8
Hachura
 62
7
370
25
100
AcDbLine
 10
3656.7172533731436
 20
11309.896005522962
 30
0.0
 11
3656.7172533731436
 21
11308.968782847882
 31
0.0
  0
LINE
  5
1DE
330
17
100
AcDbEntity
  8
Hachura
 62
7
370
25
100
AcDbLine
 10
3656.5066276260986
 20
11309.896005522962
 30
0.0
 11
3656.5066276260986
 21
11308.968782847882
 31
0.0
  0
LINE
  5
1DF
330
17
100
AcDbEntity
  8
Hachura
 62
7
370
25
100
AcDbLine
 10
3661.783728366433
 20
11174.978541559225
 30
0.0
 11
3661.783728366433
 21
11174.33361910439
 31
0.0
  0
LINE
  5
1E0
330
17
100
AcDbEntity
  8
Hachura
 62
7
370
25
100
AcDbLine
 10
3661.783728366433
 20
11173.817681144812
 30
0.0
 11
3663.7184957309355
 21
11174.785064827065
 31
0.0
  0
LINE
  5
1E1
330
17
100
AcDbEntity
  8
Hachura
 62
7
370
25
100
AcDbLine
 10
3661.7110450355867
 20
11173.910323985363
 30
0.0
 11
3663.8766577931447
 21
11174.993130321263
 31
0.0
  0
LINE
  5
1E2
330
17
100
AcDbEntity
  8
Hachura
 62
7
370
25
100
AcDbLine
 10
3663.8182199027224
 20
11175.221880398722
 30
0.0
 11
3661.677642234057
 21
11174.15159154295
 31
0.0
  0
LINE
  5
1E3
330
17
100
AcDbEntity
  8
Hachura
 62
7
370
25
100
AcDbLine
 10
3663.7184957309355
 20
11175.30100278664
 30
0.0
 11
3661.783728366433
 21
11174.33361910439
 31
0.0
  0
LINE
  5
1E4
330
17
100
AcDbEntity
  8
Hachura
 62
7
370
25
100
AcDbLine
 10
3663.7184957309355
 20
11175.945925241474
 30
0.0
 11
3663.7184957309355
 21
11175.30100278664
 31
0.0
  0
LINE
  5
1E5
330
17
100
AcDbEntity
  8
Hachura
 62
7
370
25
100
AcDbLine
 10
3663.7184957309355
 20
11177.622723626188
 30
0.0
 11
3663.7184957309355
 21
11178.267646081022
 31
0.0
  0
LINE
  5
1E6
330
17
100
AcDbEntity
  8
Hachura
 62
7
370
25
100
AcDbLine
 10
3663.7184957309355
 20
11176.673717860893
 30
0.0
 11
3663.7184957309355
 21
11176.461863211776
 31
0.0
  0
LINE
  5
1E7
330
17
100
AcDbEntity
  8
Hachura
 62
7
370
25
100
AcDbLine
 10
3663.7184957309355
 20
11176.673717860893
 30
0.0
 11
3663.7184957309355
 21
11177.106785666607
 31
0.0
  0
LINE
  5
1E8
330
17
100
AcDbEntity
  8
Hachura
 62
7
370
25
100
AcDbLine
 10
3661.783728366433
 20
11176.139401984357
 30
0.0
 11
3661.783728366433
 21
11175.494479529523
 31
0.0
  0
LINE
  5
1E9
330
17
100
AcDbEntity
  8
Hachura
 62
7
370
25
100
AcDbLine
 10
3661.783728366433
 20
11177.300262398772
 30
0.0
 11
3661.783728366433
 21
11176.655339943938
 31
0.0
  0
LINE
  5
1EA
330
17
100
AcDbEntity
  8
Hachura
 62
7
370
25
100
AcDbLine
 10
3661.783728366433
 20
11174.978541559225
 30
0.0
 11
3663.7184957309355
 21
11175.945925241474
 31
0.0
  0
LINE
  5
1EB
330
17
100
AcDbEntity
  8
Hachura
 62
7
370
25
100
AcDbLine
 10
3661.7110450355867
 20
11175.071184410495
 30
0.0
 11
3663.8766577931447
 21
11176.153990746396
 31
0.0
  0
LINE
  5
1EC
330
17
100
AcDbEntity
  8
Hachura
 62
7
370
25
100
AcDbLine
 10
3663.8182199027224
 20
11176.382740813131
 30
0.0
 11
3661.677642234057
 21
11175.312451968082
 31
0.0
  0
LINE
  5
1ED
330
17
100
AcDbEntity
  8
Hachura
 62
7
370
25
100
AcDbLine
 10
3663.7184957309355
 20
11176.461863211776
 30
0.0
 11
3661.783728366433
 21
11175.494479529523
 31
0.0
  0
LINE
  5
1EE
330
17
100
AcDbEntity
  8
Hachura
 62
7
370
25
100
AcDbLine
 10
3661.783728366433
 20
11177.300262398772
 30
0.0
 11
3663.7184957309355
 21
11178.267646081022
 31
0.0
  0
LINE
  5
1EF
330
17
100
AcDbEntity
  8
Hachura
 62
7
370
25
100
AcDbLine
 10
3661.783728366433
 20
11176.139401984357
 30
0.0
 11
3663.7184957309355
 21
11177.106785666607
 31
0.0
  0
LINE
  5
1F0
330
17
100
AcDbEntity
  8
Hachura
 62
7
370
25
100
AcDbLine
 10
3661.7110450355867
 20
11176.23204482491
 30
0.0
 11
3663.8766577931447
 21
11177.31485116081
 31
0.0
  0
LINE
  5
1F1
330
17
100
AcDbEntity
  8
Hachura
 62
7
370
25
100
AcDbLine
 10
3663.8182199027224
 20
11177.543601227546
 30
0.0
 11
3661.677642234057
 21
11176.473312382497
 31
0.0
  0
LINE
  5
1F2
330
17
100
AcDbEntity
  8
Hachura
 62
7
370
25
100
AcDbLine
 10
3663.7184957309355
 20
11177.622723626188
 30
0.0
 11
3661.783728366433
 21
11176.655339943938
 31
0.0
  0
LINE
  5
1F3
330
17
100
AcDbEntity
  8
Hachura
 62
7
370
25
100
AcDbLine
 10
3663.4607340605007
 20
11173.495323555993
 30
0.0
 11
3663.7184957309355
 21
11173.62420441265
 31
0.0
  0
LINE
  5
1F4
330
17
100
AcDbEntity
  8
Hachura
 62
7
370
25
100
AcDbLine
 10
3663.202765069991
 20
11173.495323555993
 30
0.0
 11
3663.8766577931447
 21
11173.832269917571
 31
0.0
  0
LINE
  5
1F5
330
17
100
AcDbEntity
  8
Hachura
 62
7
370
25
100
AcDbLine
 10
3663.7184957309355
 20
11173.62420441265
 30
0.0
 11
3663.7184957309355
 21
11173.495323555993
 31
0.0
  0
LINE
  5
1F6
330
17
100
AcDbEntity
  8
Hachura
 62
7
370
25
100
AcDbLine
 10
3663.716703945215
 20
11173.496933652576
 30
0.0
 11
3663.394242717798
 21
11173.174472403718
 31
0.0
  0
LINE
  5
1F7
330
17
100
AcDbEntity
  8
Hachura
 62
7
370
25
100
AcDbLine
 10
3663.7184957309355
 20
11174.140142372231
 30
0.0
 11
3663.7184957309355
 21
11174.785064827065
 31
0.0
  0
LINE
  5
1F8
330
17
100
AcDbEntity
  8
Hachura
 62
7
370
25
100
AcDbLine
 10
3661.783728366433
 20
11173.817681144812
 30
0.0
 11
3661.783728366433
 21
11173.495323555993
 31
0.0
  0
LINE
  5
1F9
330
17
100
AcDbEntity
  8
Hachura
 62
7
370
25
100
AcDbLine
 10
3661.7818510799416
 20
11173.496933631137
 30
0.0
 11
3661.7818510799416
 21
11173.49701104921
 31
0.0
  0
LINE
  5
1FA
330
17
100
AcDbEntity
  8
Hachura
 62
7
370
25
100
AcDbLine
 10
3661.7818510799416
 20
11173.496933631137
 30
0.0
 11
3662.1043978081298
 21
11173.174472403718
 31
0.0
  0
LINE
  5
1FB
330
17
100
AcDbEntity
  8
Hachura
 62
7
370
25
100
AcDbLine
 10
3661.783728366433
 20
11175.70633418936
 30
0.0
 11
3661.783728366433
 21
11175.494479540246
 31
0.0
  0
LINE
  5
1FC
330
17
100
AcDbEntity
  8
Hachura
 62
7
370
25
100
AcDbLine
 10
3663.8182199027224
 20
11174.061019984307
 30
0.0
 11
3662.6868270889736
 21
11173.495323555993
 31
0.0
  0
LINE
  5
1FD
330
17
100
AcDbEntity
  8
Hachura
 62
7
370
25
100
AcDbLine
 10
3663.7184957309355
 20
11174.140142372231
 30
0.0
 11
3662.428858141343
 21
11173.495323555993
 31
0.0
  0
LINE
  5
1FE
330
17
100
AcDbEntity
  8
Hachura
 62
7
370
25
100
AcDbLine
 10
3662.1043978081298
 20
11173.174472403718
 30
0.0
 11
3663.394242717798
 21
11173.174472403718
 31
0.0
  0
LINE
  5
1FF
330
17
100
AcDbEntity
  8
Hachura
 62
7
370
25
100
AcDbLine
 10
3661.783728366433
 20
11173.817681144812
 30
0.0
 11
3663.7184957309355
 21
11174.785064827065
 31
0.0
  0
LINE
  5
200
330
17
100
AcDbEntity
  8
Hachura
 62
7
370
25
100
AcDbLine
 10
3663.716703945215
 20
11173.496933652576
 30
0.0
 11
3661.7819365807127
 21
11173.496933652576
 31
0.0
  0
LINE
  5
201
330
17
100
AcDbEntity
  8
Hachura
 62
7
370
25
100
AcDbLine
 10
3668.31205922306
 20
11184.97483960915
 30
0.0
 11
3660.497397478429
 21
11184.97483960915
 31
0.0
  0
LINE
  5
202
330
17
100
AcDbEntity
  8
Hachura
 62
7
370
25
100
AcDbLine
 10
3664.4924027024626
 20
11178.267646081022
 30
0.0
 11
3661.138805911599
 21
11178.267646081022
 31
0.0
  0
LINE
  5
203
330
17
100
AcDbEntity
  8
Hachura
 62
7
370
25
100
AcDbLine
 10
3664.4924027024626
 20
11178.33536293835
 30
0.0
 11
3661.138805911599
 21
11178.33536293835
 31
0.0
  0
LINE
  5
204
330
17
100
AcDbEntity
  8
Hachura
 62
7
370
25
100
AcDbLine
 10
3660.8808369639673
 20
11181.49225835519
 30
0.0
 11
3664.7503716929723
 21
11181.49225835519
 31
0.0
  0
LINE
  5
205
330
17
100
AcDbEntity
  8
Hachura
 62
7
370
25
100
AcDbLine
 10
3656.366379780131
 20
11184.071948174527
 30
0.0
 11
3669.2648288768096
 21
11184.071948174527
 31
0.0
  0
LINE
  5
206
330
17
100
AcDbEntity
  8
Hachura
 62
7
370
25
100
AcDbLine
 10
3669.2648288768096
 20
11184.97483960915
 30
0.0
 11
3656.369921544524
 21
11184.97483960915
 31
0.0
  0
LINE
  5
207
330
17
100
AcDbEntity
  8
Hachura
 62
7
370
25
100
AcDbLine
 10
3662.1706818736357
 20
11178.267646081022
 30
0.0
 11
3662.1706818736357
 21
11181.49225835519
 31
0.0
  0
LINE
  5
208
330
17
100
AcDbEntity
  8
Hachura
 62
7
370
25
100
AcDbLine
 10
3661.138805911599
 20
11178.267646081022
 30
0.0
 11
3661.138805911599
 21
11181.49225835519
 31
0.0
  0
LINE
  5
209
330
17
100
AcDbEntity
  8
Hachura
 62
7
370
25
100
AcDbLine
 10
3662.81560432847
 20
11184.071948174527
 30
0.0
 11
3660.8808369639673
 21
11184.071948174527
 31
0.0
  0
LINE
  5
20A
330
17
100
AcDbEntity
  8
Hachura
 62
7
370
25
100
AcDbLine
 10
3661.5257594188015
 20
11184.071948174527
 30
0.0
 11
3662.1706818736357
 21
11184.071948174527
 31
0.0
  0
LINE
  5
20B
330
17
100
AcDbEntity
  8
Hachura
 62
7
370
25
100
AcDbLine
 10
3662.8099639661086
 20
11184.071948174527
 30
0.0
 11
3662.8099639661086
 21
11184.97483960915
 31
0.0
  0
LINE
  5
20C
330
17
100
AcDbEntity
  8
Hachura
 62
7
370
25
100
AcDbLine
 10
3662.50342227476
 20
11184.071948174527
 30
0.0
 11
3662.50342227476
 21
11182.07278898507
 31
0.0
  0
LINE
  5
20D
330
17
100
AcDbEntity
  8
Hachura
 62
7
370
25
100
AcDbLine
 10
3663.0193602557792
 20
11182.07278898507
 30
0.0
 11
3663.0193602557792
 21
11184.071948174527
 31
0.0
  0
LINE
  5
20E
330
17
100
AcDbEntity
  8
Hachura
 62
7
370
25
100
AcDbLine
 10
3659.7757277047376
 20
11184.05367361746
 30
0.0
 11
3659.7757277047376
 21
11184.98089629254
 31
0.0
  0
LINE
  5
20F
330
17
100
AcDbEntity
  8
Hachura
 62
7
370
25
100
AcDbLine
 10
3661.855988695722
 20
11184.824793731228
 30
0.0
 11
3661.855988695722
 21
11184.391725925509
 31
0.0
  0
LINE
  5
210
330
17
100
AcDbEntity
  8
Hachura
 62
7
370
25
100
AcDbLine
 10
3660.8808369639673
 20
11184.071948174527
 30
0.0
 11
3660.8808369639673
 21
11181.49225835519
 31
0.0
  0
LINE
  5
211
330
17
100
AcDbEntity
  8
Hachura
 62
7
370
25
100
AcDbLine
 10
3661.855988695722
 20
11184.391725925509
 30
0.0
 11
3661.855988695722
 21
11184.179871276394
 31
0.0
  0
LINE
  5
212
330
17
100
AcDbEntity
  8
Hachura
 62
7
370
25
100
AcDbLine
 10
3656.369921544524
 20
11184.97483960915
 30
0.0
 11
3656.369921544524
 21
11179.838171027064
 31
0.0
  0
LINE
  5
213
330
17
100
AcDbEntity
  8
Hachura
 62
7
370
25
100
AcDbLine
 10
3658.043178154124
 20
11179.81545997048
 30
0.0
 11
3658.6248382281783
 21
11182.025768288331
 31
0.0
  0
LINE
  5
214
330
17
100
AcDbEntity
  8
Hachura
 62
7
370
25
100
AcDbLine
 10
3656.366379780131
 20
11179.81545997048
 30
0.0
 11
3658.043178154124
 21
11179.81545997048
 31
0.0
  0
LINE
  5
215
330
17
100
AcDbEntity
  8
Hachura
 62
7
370
25
100
AcDbLine
 10
3658.9366822665515
 20
11182.26616529456
 30
0.0
 11
3660.8808369639673
 21
11182.26616529456
 31
0.0
  0
LINE
  5
216
330
17
100
AcDbEntity
  8
Hachura
 62
7
370
25
100
AcDbLine
 10
3656.366379780131
 20
11184.071948174527
 30
0.0
 11
3661.5257594188015
 21
11184.071948174527
 31
0.0
  0
LINE
  5
217
330
17
100
AcDbEntity
  8
Hachura
 62
7
370
25
100
AcDbLine
 10
3667.5880304599386
 20
11179.81545997048
 30
0.0
 11
3667.006370385884
 21
11182.025768288331
 31
0.0
  0
LINE
  5
218
330
17
100
AcDbEntity
  8
Hachura
 62
7
370
25
100
AcDbLine
 10
3664.4924027024626
 20
11181.49225835519
 30
0.0
 11
3664.4924027024626
 21
11178.267646081022
 31
0.0
  0
LINE
  5
219
330
17
100
AcDbEntity
  8
Hachura
 62
7
370
25
100
AcDbLine
 10
3663.7184957309355
 20
11178.267646081022
 30
0.0
 11
3663.7184957309355
 21
11181.49225835519
 31
0.0
  0
LINE
  5
21A
330
17
100
AcDbEntity
  8
Hachura
 62
7
370
25
100
AcDbLine
 10
3665.841742298948
 20
11184.05367361746
 30
0.0
 11
3665.841742298948
 21
11184.97483960915
 31
0.0
  0
LINE
  5
21B
330
17
100
AcDbEntity
  8
Hachura
 62
7
370
25
100
AcDbLine
 10
3663.7907560602243
 20
11184.198249193347
 30
0.0
 11
3663.7907560602243
 21
11184.631316988345
 31
0.0
  0
LINE
  5
21C
330
17
100
AcDbEntity
  8
Hachura
 62
7
370
25
100
AcDbLine
 10
3667.2739959038126
 20
11184.05367361746
 30
0.0
 11
3667.2739959038126
 21
11184.98089629254
 31
0.0
  0
LINE
  5
21D
330
17
100
AcDbEntity
  8
Hachura
 62
7
370
25
100
AcDbLine
 10
3664.7503716929723
 20
11181.49225835519
 30
0.0
 11
3664.7503716929723
 21
11184.071948174527
 31
0.0
  0
LINE
  5
21E
330
17
100
AcDbEntity
  8
Hachura
 62
7
370
25
100
AcDbLine
 10
3664.7503716929723
 20
11181.49225835519
 30
0.0
 11
3664.4924027024626
 21
11181.49225835519
 31
0.0
  0
LINE
  5
21F
330
17
100
AcDbEntity
  8
Hachura
 62
7
370
25
100
AcDbLine
 10
3664.7503716929723
 20
11181.49225835519
 30
0.0
 11
3664.4924027024626
 21
11181.49225835519
 31
0.0
  0
LINE
  5
220
330
17
100
AcDbEntity
  8
Hachura
 62
7
370
25
100
AcDbLine
 10
3666.694526347508
 20
11182.26616529456
 30
0.0
 11
3664.7464897692935
 21
11182.26616529456
 31
0.0
  0
LINE
  5
221
330
17
100
AcDbEntity
  8
Hachura
 62
7
370
25
100
AcDbLine
 10
3669.2648288768096
 20
11184.071948174527
 30
0.0
 11
3669.2648288768096
 21
11179.81545997048
 31
0.0
  0
LINE
  5
222
330
17
100
AcDbEntity
  8
Hachura
 62
7
370
25
100
AcDbLine
 10
3669.2648288768096
 20
11184.071948174527
 30
0.0
 11
3669.2648288768096
 21
11184.97483960915
 31
0.0
  0
LINE
  5
223
330
17
100
AcDbEntity
  8
Hachura
 62
7
370
25
100
AcDbLine
 10
3668.116497820015
 20
11184.05367361746
 30
0.0
 11
3668.116497820015
 21
11184.98089629254
 31
0.0
  0
LINE
  5
224
330
17
100
AcDbEntity
  8
Hachura
 62
7
370
25
100
AcDbLine
 10
3668.579874051874
 20
11184.05367361746
 30
0.0
 11
3668.579874051874
 21
11184.98089629254
 31
0.0
  0
LINE
  5
225
330
17
100
AcDbEntity
  8
Hachura
 62
7
370
25
100
AcDbLine
 10
3668.9168747840513
 20
11184.05367361746
 30
0.0
 11
3668.9168747840513
 21
11184.98089629254
 31
0.0
  0
LINE
  5
226
330
17
100
AcDbEntity
  8
Hachura
 62
7
370
25
100
AcDbLine
 10
3669.1275005310963
 20
11184.05367361746
 30
0.0
 11
3669.1275005310963
 21
11184.98089629254
 31
0.0
  0
LINE
  5
227
330
17
100
AcDbEntity
  8
Hachura
 62
7
370
25
100
AcDbLine
 10
3669.2648288768096
 20
11179.81545997048
 30
0.0
 11
3667.5880304599386
 21
11179.81545997048
 31
0.0
  0
LINE
  5
228
330
17
100
AcDbEntity
  8
Hachura
 62
7
370
25
100
AcDbLine
 10
3662.9445887834245
 20
11178.267646081022
 30
0.0
 11
3661.6776422304592
 21
11177.634172798194
 31
0.0
  0
LINE
  5
229
330
17
100
AcDbEntity
  8
Hachura
 62
7
370
25
100
AcDbLine
 10
3662.686619805606
 20
11178.267646081022
 30
0.0
 11
3661.783728362835
 21
11177.816200359637
 31
0.0
  0
LINE
  5
22A
330
17
100
AcDbEntity
  8
Hachura
 62
7
370
25
100
AcDbLine
 10
3661.783728362834
 20
11178.267646081022
 30
0.0
 11
3661.783728362834
 21
11177.816200359637
 31
0.0
  0
LINE
  5
22B
330
17
100
AcDbEntity
  8
Hachura
 62
7
370
25
100
AcDbLine
 10
3658.360754517521
 20
11184.05367361746
 30
0.0
 11
3658.360754517521
 21
11184.98089629254
 31
0.0
  0
LINE
  5
22C
330
17
100
AcDbEntity
  8
Hachura
 62
7
370
25
100
AcDbLine
 10
3657.5182526013186
 20
11184.05367361746
 30
0.0
 11
3657.5182526013186
 21
11184.98089629254
 31
0.0
  0
LINE
  5
22D
330
17
100
AcDbEntity
  8
Hachura
 62
7
370
25
100
AcDbLine
 10
3657.0548763694596
 20
11184.05367361746
 30
0.0
 11
3657.0548763694596
 21
11184.98089629254
 31
0.0
  0
LINE
  5
22E
330
17
100
AcDbEntity
  8
Hachura
 62
7
370
25
100
AcDbLine
 10
3656.7178756372823
 20
11184.05367361746
 30
0.0
 11
3656.7178756372823
 21
11184.98089629254
 31
0.0
  0
LINE
  5
22F
330
17
100
AcDbEntity
  8
Hachura
 62
7
370
25
100
AcDbLine
 10
3656.5072498902373
 20
11184.05367361746
 30
0.0
 11
3656.5072498902373
 21
11184.98089629254
 31
0.0
  0
LINE
  5
230
330
17
100
AcDbEntity
  8
Hachura
 62
7
370
25
100
AcDbLine
 10
3662.816492529819
 20
11319.77520673667
 30
0.0
 11
3662.807951318944
 21
11177.97483960915
 31
0.0
  0
LINE
  5
231
330
17
100
AcDbEntity
  8
Madeira
 62
7
370
25
100
AcDbLine
 10
3730.832133343473
 20
11204.95947608198
 30
0.0
 11
3742.3325813891897
 21
11218.97211200437
 31
0.0
  0
LINE
  5
232
330
17
100
AcDbEntity
  8
Madeira
 62
7
370
25
100
AcDbLine
 10
3730.832133343473
 20
11204.95947608198
 30
0.0
 11
3734.3006262787358
 21
11218.963292923789
 31
0.0
  0
LINE
  5
233
330
17
100
AcDbEntity
  8
Madeira
 62
7
370
25
100
AcDbLine
 10
3730.832133343473
 20
11204.95947608198
 30
0.0
 11
3744.826165765947
 21
11210.402118061555
 31
0.0
  0
LINE
  5
234
330
17
100
AcDbEntity
  8
Madeira
 62
7
370
25
100
AcDbLine
 10
3594.839105349442
 20
11204.97859927197
 30
0.0
 11
3583.3079133436263
 21
11218.965946471162
 31
0.0
  0
LINE
  5
235
330
17
100
AcDbEntity
  8
Madeira
 62
7
370
25
100
AcDbLine
 10
3594.839105349442
 20
11204.97859927197
 30
0.0
 11
3591.3398684540803
 21
11218.974765551742
 31
0.0
  0
LINE
  5
236
330
17
100
AcDbEntity
  8
Madeira
 62
7
370
25
100
AcDbLine
 10
3594.839105349442
 20
11204.97859927197
 30
0.0
 11
3580.833154650333
 21
11210.390497291446
 31
0.0
  0
LINE
  5
237
330
17
100
AcDbEntity
  8
Madeira
 62
7
370
25
100
AcDbLine
 10
3640.332222855795
 20
11204.96707032624
 30
0.0
 11
3633.3259049017365
 21
11210.717294343242
 31
0.0
  0
LINE
  5
238
330
17
100
AcDbEntity
  8
Madeira
 62
7
370
25
100
AcDbLine
 10
3640.332222855795
 20
11204.96707032624
 30
0.0
 11
3633.3303144420224
 21
11206.701316792105
 31
0.0
  0
LINE
  5
239
330
17
100
AcDbEntity
  8
Madeira
 62
7
370
25
100
AcDbLine
 10
3640.332222855795
 20
11204.96707032624
 30
0.0
 11
3634.8895808817647
 21
11218.96110273446
 31
0.0
  0
LINE
  5
23A
330
17
100
AcDbEntity
  8
Madeira
 62
7
370
25
100
AcDbLine
 10
3692.332189695124
 20
11204.96707032624
 30
0.0
 11
3685.3258717410654
 21
11210.717294343242
 31
0.0
  0
LINE
  5
23B
330
17
100
AcDbEntity
  8
Madeira
 62
7
370
25
100
AcDbLine
 10
3692.332189695124
 20
11204.96707032624
 30
0.0
 11
3685.3302812813513
 21
11206.701316792105
 31
0.0
  0
LINE
  5
23C
330
17
100
AcDbEntity
  8
Madeira
 62
7
370
25
100
AcDbLine
 10
3692.332189695124
 20
11204.96707032624
 30
0.0
 11
3686.8895477210935
 21
11218.96110273446
 31
0.0
  0
LINE
  5
23D
330
17
100
AcDbEntity
  8
Madeira
 62
7
370
25
100
AcDbLine
 10
3730.832133343473
 20
11288.99020300308
 30
0.0
 11
3742.3325813891897
 21
11274.97756708069
 31
0.0
  0
LINE
  5
23E
330
17
100
AcDbEntity
  8
Madeira
 62
7
370
25
100
AcDbLine
 10
3730.832133343473
 20
11288.99020300308
 30
0.0
 11
3734.3006262787358
 21
11274.986386161272
 31
0.0
  0
LINE
  5
23F
330
17
100
AcDbEntity
  8
Madeira
 62
7
370
25
100
AcDbLine
 10
3730.832133343473
 20
11288.99020300308
 30
0.0
 11
3744.826165765947
 21
11283.547561023506
 31
0.0
  0
LINE
  5
240
330
17
100
AcDbEntity
  8
Madeira
 62
7
370
25
100
AcDbLine
 10
3594.839105349442
 20
11288.97107981309
 30
0.0
 11
3583.3079133436263
 21
11274.983732613897
 31
0.0
  0
LINE
  5
241
330
17
100
AcDbEntity
  8
Madeira
 62
7
370
25
100
AcDbLine
 10
3594.839105349442
 20
11288.97107981309
 30
0.0
 11
3591.3398684540803
 21
11274.974913533317
 31
0.0
  0
LINE
  5
242
330
17
100
AcDbEntity
  8
Madeira
 62
7
370
25
100
AcDbLine
 10
3594.839105349442
 20
11288.97107981309
 30
0.0
 11
3580.833154650333
 21
11283.559181793613
 31
0.0
  0
LINE
  5
243
330
17
100
AcDbEntity
  8
Madeira
 62
7
370
25
100
AcDbLine
 10
3640.332222855795
 20
11288.98260875882
 30
0.0
 11
3633.3259049017365
 21
11283.23238474182
 31
0.0
  0
LINE
  5
244
330
17
100
AcDbEntity
  8
Madeira
 62
7
370
25
100
AcDbLine
 10
3640.332222855795
 20
11288.98260875882
 30
0.0
 11
3633.3303144420224
 21
11287.248362292956
 31
0.0
  0
LINE
  5
245
330
17
100
AcDbEntity
  8
Madeira
 62
7
370
25
100
AcDbLine
 10
3640.332222855795
 20
11288.98260875882
 30
0.0
 11
3634.8895808817647
 21
11274.9885763506
 31
0.0
  0
LINE
  5
246
330
17
100
AcDbEntity
  8
Madeira
 62
7
370
25
100
AcDbLine
 10
3692.332189695124
 20
11288.98260875882
 30
0.0
 11
3685.3258717410654
 21
11283.23238474182
 31
0.0
  0
LINE
  5
247
330
17
100
AcDbEntity
  8
Madeira
 62
7
370
25
100
AcDbLine
 10
3692.332189695124
 20
11288.98260875882
 30
0.0
 11
3685.3302812813513
 21
11287.248362292956
 31
0.0
  0
LINE
  5
248
330
17
100
AcDbEntity
  8
Madeira
 62
7
370
25
100
AcDbLine
 10
3692.332189695124
 20
11288.98260875882
 30
0.0
 11
3686.8895477210935
 21
11274.9885763506
 31
0.0
  0
LINE
  5
249
330
17
100
AcDbEntity
  8
SARR_2.2x7
 62
7
370
25
100
AcDbLine
 10
4548.792433246155
 20
11081.31167626382
 30
0.0
 11
4548.792433246213
 21
10834.31167626382
 31
0.0
  0
LINE
  5
24A
330
17
100
AcDbEntity
  8
SARR_2.2x7
 62
7
370
25
100
AcDbLine
 10
4538.79243324621
 20
11081.31167626382
 30
0.0
 11
4538.792433246155
 21
10834.31167626382
 31
0.0
  0
LINE
  5
24B
330
17
100
AcDbEntity
  8
Painéis
 62
7
370
25
100
AcDbLine
 10
4531.792433246184
 20
10834.31167626382
 30
0.0
 11
4555.792433246184
 21
10834.31167626382
 31
0.0
  0
LINE
  5
24C
330
17
100
AcDbEntity
  8
Painéis
 62
7
370
25
100
AcDbLine
 10
4555.792433246184
 20
10834.31167626382
 30
0.0
 11
4555.792433246181
 21
11081.31167626382
 31
0.0
  0
LINE
  5
24D
330
17
100
AcDbEntity
  8
Painéis
 62
7
370
25
100
AcDbLine
 10
4531.792433246184
 20
11081.31167626382
 30
0.0
 11
4531.792433246184
 21
10834.31167626382
 31
0.0
  0
LINE
  5
24E
330
17
100
AcDbEntity
  8
SARR_2.2x7
 62
7
370
25
100
AcDbLine
 10
4712.576124452142
 20
11081.31167626382
 30
0.0
 11
4712.5761244522
 21
10834.31167626382
 31
0.0
  0
LINE
  5
24F
330
17
100
AcDbEntity
  8
SARR_2.2x7
 62
7
370
25
100
AcDbLine
 10
4702.576124452196
 20
11081.31167626382
 30
0.0
 11
4702.576124452142
 21
10834.31167626382
 31
0.0
  0
LINE
  5
250
330
17
100
AcDbEntity
  8
Painéis
 62
7
370
25
100
AcDbLine
 10
4695.576124452171
 20
10834.31167626382
 30
0.0
 11
4719.576124452171
 21
10834.31167626382
 31
0.0
  0
LINE
  5
251
330
17
100
AcDbEntity
  8
Painéis
 62
7
370
25
100
AcDbLine
 10
4719.576124452171
 20
10834.31167626382
 30
0.0
 11
4719.576124452169
 21
11081.31167626382
 31
0.0
  0
LINE
  5
252
330
17
100
AcDbEntity
  8
Painéis
 62
7
370
25
100
AcDbLine
 10
4695.576124452171
 20
11081.31167626382
 30
0.0
 11
4695.576124452171
 21
10834.31167626382
 31
0.0
  0
LINE
  5
253
330
17
100
AcDbEntity
  8
COTA
 62
7
370
25
100
AcDbLine
 10
4179.213380358475
 20
11081.31167626387
 30
0.0
 11
4179.213380358439
 21
11155.31167626387
 31
0.0
  0
LINE
  5
254
330
17
100
AcDbEntity
  8
COTA
 62
7
370
25
100
AcDbLine
 10
4097.213380358661
 20
11081.31167626382
 30
0.0
 11
4097.213380358661
 21
11155.31167626383
 31
0.0
  0
LINE
  5
255
330
17
100
AcDbEntity
  8
SARR_2.2x7
 62
7
370
25
100
AcDbLine
 10
4323.942424106208
 20
10834.31167626382
 30
0.0
 11
4323.942424106208
 21
10956.31167626382
 31
0.0
  0
LINE
  5
256
330
17
100
AcDbEntity
  8
SARR_2.2x7
 62
7
370
25
100
AcDbLine
 10
4323.942424106092
 20
10956.31167626384
 30
0.0
 11
4323.942424106134
 21
11081.31167626382
 31
0.0
  0
LINE
  5
257
330
17
100
AcDbEntity
  8
SARR_2.2x7
 62
7
370
25
100
AcDbLine
 10
4391.94242410615
 20
10834.31167626384
 30
0.0
 11
4391.94242410615
 21
10956.31167626382
 31
0.0
  0
LINE
  5
258
330
17
100
AcDbEntity
  8
SARR_2.2x7
 62
7
370
25
100
AcDbLine
 10
4391.942424106033
 20
10956.31167626384
 30
0.0
 11
4391.942424106117
 21
11081.31167626382
 31
0.0
  0
LINE
  5
259
330
17
100
AcDbEntity
  8
SARR_2.2x7
 62
7
370
25
100
AcDbLine
 10
4323.942424106208
 20
10834.31167626382
 30
0.0
 11
4323.942424106208
 21
10834.31167626385
 31
0.0
  0
LINE
  5
25A
330
17
100
AcDbEntity
  8
SARR_2.2x7
 62
7
370
25
100
AcDbLine
 10
4391.94242410615
 20
10834.31167626384
 30
0.0
 11
4391.94242410615
 21
10834.31167626382
 31
0.0
  0
LINE
  5
25B
330
17
100
AcDbEntity
  8
COTA
 62
7
370
25
100
AcDbLine
 10
4398.942424105984
 20
11155.31167626382
 30
0.0
 11
4316.942424106207
 21
11155.31167626382
 31
0.0
  0
LINE
  5
25C
330
17
100
AcDbEntity
  8
Painéis
 62
7
370
25
100
AcDbLine
 10
4398.942424106208
 20
10832.31167626331
 30
0.0
 11
4398.942424106074
 21
11081.31167626382
 31
0.0
  0
LINE
  5
25D
330
17
100
AcDbEntity
  8
Painéis
 62
7
370
25
100
AcDbLine
 10
4316.942424106207
 20
11081.31167626382
 30
0.0
 11
4316.942424106204
 21
10832.31167626334
 31
0.0
  0
LINE
  5
25E
330
17
100
AcDbEntity
  8
Painéis
 62
7
370
25
100
AcDbLine
 10
4316.942424106204
 20
10834.31167626382
 30
0.0
 11
4398.942424106208
 21
10834.31167626382
 31
0.0
  0
LINE
  5
25F
330
17
100
AcDbEntity
  8
COTA
 62
7
370
25
100
AcDbLine
 10
4398.942424106021
 20
11081.31167626387
 30
0.0
 11
4398.942424105984
 21
11155.31167626387
 31
0.0
  0
LINE
  5
260
330
17
100
AcDbEntity
  8
COTA
 62
7
370
25
100
AcDbLine
 10
4316.942424106207
 20
11081.31167626382
 30
0.0
 11
4316.942424106207
 21
11155.31167626383
 31
0.0
  0
LINE
  5
261
330
17
100
AcDbEntity
  8
Painéis
 62
7
370
25
100
AcDbLine
 10
4179.213380358662
 20
11081.31167626382
 30
0.0
 11
4097.213380358662
 21
11081.31167626382
 31
0.0
  0
LINE
  5
262
330
17
100
AcDbEntity
  8
Painéis
 62
7
370
25
100
AcDbLine
 10
4179.213380358604
 20
10956.31167626382
 30
0.0
 11
4097.213380358659
 21
10956.31167626382
 31
0.0
  0
LINE
  5
263
330
17
100
AcDbEntity
  8
Painéis
 62
7
370
25
100
AcDbLine
 10
4398.942424106087
 20
11081.31167626382
 30
0.0
 11
4316.942424106207
 21
11081.31167626382
 31
0.0
  0
LINE
  5
264
330
17
100
AcDbEntity
  8
Painéis
 62
7
370
25
100
AcDbLine
 10
4398.94242410615
 20
10956.31167626382
 30
0.0
 11
4316.942424106204
 21
10956.31167626382
 31
0.0
  0
LINE
  5
265
330
17
100
AcDbEntity
  8
Painéis
 62
7
370
25
100
AcDbLine
 10
4555.792433246181
 20
11081.31167626382
 30
0.0
 11
4531.792433246184
 21
11081.31167626382
 31
0.0
  0
LINE
  5
266
330
17
100
AcDbEntity
  8
Painéis
 62
7
370
25
100
AcDbLine
 10
4555.792433246181
 20
10959.31167626382
 30
0.0
 11
4531.792433246184
 21
10959.31167626382
 31
0.0
  0
LINE
  5
267
330
17
100
AcDbEntity
  8
Painéis
 62
7
370
25
100
AcDbLine
 10
4719.576124452167
 20
11081.31167626382
 30
0.0
 11
4695.576124452171
 21
11081.31167626382
 31
0.0
  0
LINE
  5
268
330
17
100
AcDbEntity
  8
Painéis
 62
7
370
25
100
AcDbLine
 10
4719.576124452167
 20
10959.31167626382
 30
0.0
 11
4695.576124452171
 21
10959.31167626382
 31
0.0
  0
LINE
  5
269
330
17
100
AcDbEntity
  8
SARR_2.2x7
 62
7
370
25
100
AcDbLine
 10
4097.213380358662
 20
11074.31167626382
 30
0.0
 11
4179.213380358477
 21
11074.31167626387
 31
0.0
  0
LINE
  5
26A
330
17
100
AcDbEntity
  8
SARR_2.2x7
 62
7
370
25
100
AcDbLine
 10
4316.942424106207
 20
11074.31167626382
 30
0.0
 11
4398.942424106023
 21
11074.31167626387
 31
0.0
  0
LWPOLYLINE
  5
26B
330
17
100
AcDbEntity
  8
Painéis
 62
7
370
25
100
AcDbPolyline
 90
4
 70
1
 10
4179.213380358662
 20
10834.31167626382
 10
4097.213380358662
 20
10834.31167626385
 10
4097.213380358662
 20
10832.31167626385
 10
4179.213380358662
 20
10832.31167626382
  0
LWPOLYLINE
  5
26C
330
17
100
AcDbEntity
  8
SARRAFO
 62
7
370
25
100
AcDbPolyline
 90
4
 70
1
 10
3580.816752968385
 20
11266.57483952316
 10
3594.816752954241
 20
11266.57483952327
 10
3594.816752954241
 20
11270.97483951759
 10
3580.816752968385
 20
11270.97483951759
  0
LWPOLYLINE
  5
26D
330
17
100
AcDbEntity
  8
SARRAFO
 62
7
370
25
100
AcDbPolyline
 90
4
 70
1
 10
3744.816752924206
 20
11227.37483956185
 10
3730.816752938351
 20
11227.37483956179
 10
3730.816752938351
 20
11222.97483956747
 10
3744.816752924206
 20
11222.97483956747
  0
LWPOLYLINE
  5
26E
330
17
100
AcDbEntity
  8
SARRAFO
 62
7
370
25
100
AcDbPolyline
 90
4
 70
1
 10
3744.816752924206
 20
11266.57483952316
 10
3730.816752938351
 20
11266.57483952327
 10
3730.816752938351
 20
11270.97483951759
 10
3744.816752924206
 20
11270.97483951759
  0
LWPOLYLINE
  5
26F
330
17
100
AcDbEntity
  8
SARRAFO
 62
7
370
25
100
AcDbPolyline
 90
4
 70
1
 10
3580.816752968385
 20
11227.37483956185
 10
3594.816752954241
 20
11227.37483956179
 10
3594.816752954241
 20
11222.97483956747
 10
3580.816752968385
 20
11222.97483956747
  0
LWPOLYLINE
  5
270
330
17
100
AcDbEntity
  8
Perfil Metálico
 62
7
370
25
100
AcDbPolyline
 90
4
 70
1
 10
3780.816752892395
 20
11292.97483954861
 10
3780.816752892395
 20
11304.97483953558
 10
3544.816753000632
 20
11304.97483953558
 10
3544.816753000632
 20
11292.97483954861
  0
LWPOLYLINE
  5
271
330
17
100
AcDbEntity
  8
Perfil Metálico
 62
7
370
25
100
AcDbPolyline
 90
4
 70
1
 10
3544.816753000632
 20
11308.97483953127
 10
3544.816753000632
 20
11288.97483955286
 10
3780.816752892395
 20
11288.97483955286
 10
3780.816752892395
 20
11308.97483953127
  0
LWPOLYLINE
  5
272
330
17
100
AcDbEntity
  8
Perfil Metálico
 62
7
370
25
100
AcDbPolyline
 90
4
 70
1
 10
3780.816752892395
 20
11200.9748395918
 10
3780.816752892395
 20
11188.97483960484
 10
3544.816753000632
 20
11188.97483960484
 10
3544.816753000632
 20
11200.9748395918
  0
LWPOLYLINE
  5
273
330
17
100
AcDbEntity
  8
Perfil Metálico
 62
7
370
25
100
AcDbPolyline
 90
4
 70
1
 10
3544.816753000632
 20
11184.97483960915
 10
3544.816753000632
 20
11204.97483958756
 10
3780.816752892395
 20
11204.97483958756
 10
3780.816752892395
 20
11184.97483960915
  0
LWPOLYLINE
  5
274
330
17
100
AcDbEntity
  8
Madeira
 62
7
370
25
100
AcDbPolyline
 90
4
 70
1
 10
3594.839105349442
 20
11204.97859927197
 10
3594.823733369393
 20
11218.978590832761
 10
3580.8237418086014
 20
11218.963218852712
 10
3580.8391137886506
 20
11204.96322729192
  0
LWPOLYLINE
  5
275
330
17
100
AcDbEntity
  8
Madeira
 62
7
370
25
100
AcDbPolyline
 90
4
 70
1
 10
3744.832124904817
 20
11204.96322726692
 10
3744.816752924729
 20
11218.96321887777
 10
3580.823741808592
 20
11218.96321887774
 10
3580.839113788679
 20
11204.96322726689
  0
LWPOLYLINE
  5
276
330
17
100
AcDbEntity
  8
Madeira
 62
7
370
25
100
AcDbPolyline
 90
4
 70
1
 10
3744.832124904817
 20
11288.98645181815
 10
3744.816752924729
 20
11274.9864602073
 10
3580.823741808592
 20
11274.98646020733
 10
3580.839113788679
 20
11288.98645181818
  0
LWPOLYLINE
  5
277
330
17
100
AcDbEntity
  8
CHAPA
 62
7
370
25
100
AcDbPolyline
 90
4
 70
1
 10
3580.816752968851
 20
11222.97483962283
 10
3580.816752968851
 20
11218.97483962283
 10
3744.816752924206
 20
11218.97483962283
 10
3744.816752924206
 20
11222.97483962283
  0
LWPOLYLINE
  5
278
330
17
100
AcDbEntity
  8
CHAPA
 62
7
370
25
100
AcDbPolyline
 90
4
 70
1
 10
3580.816752968851
 20
11270.97483946223
 10
3580.816752968851
 20
11274.97483946223
 10
3744.816752924206
 20
11274.97483946223
 10
3744.816752924206
 20
11270.97483946223
  0
LWPOLYLINE
  5
279
330
17
100
AcDbEntity
  8
CHAPA
 62
7
370
25
100
AcDbPolyline
 90
4
 70
1
 10
3726.416752948658
 20
11270.97483946223
 10
3722.816752948653
 20
11270.97483946223
 10
3722.816752948653
 20
11222.97483962283
 10
3726.416752948658
 20
11222.97483962283
  0
LWPOLYLINE
  5
27A
330
17
100
AcDbEntity
  8
CHAPA
 62
7
370
25
100
AcDbPolyline
 90
4
 70
1
 10
3602.816752948653
 20
11270.97483946229
 10
3599.216752948648
 20
11270.97483946229
 10
3599.216752948648
 20
11222.97483962289
 10
3602.816752948653
 20
11222.97483962289
  0
LWPOLYLINE
  5
27B
330
17
100
AcDbEntity
  8
CHAPA
 62
7
370
25
100
AcDbPolyline
 90
4
 70
1
 10
3580.816752968851
 20
11222.97483962283
 10
3580.816752968851
 20
11218.97483962283
 10
3744.816752924206
 20
11218.97483962283
 10
3744.816752924206
 20
11222.97483962283
  0
LWPOLYLINE
  5
27C
330
17
100
AcDbEntity
  8
CHAPA
 62
7
370
25
100
AcDbPolyline
 90
4
 70
1
 10
3580.816752968851
 20
11270.97483946223
 10
3580.816752968851
 20
11274.97483946223
 10
3744.816752924206
 20
11274.97483946223
 10
3744.816752924206
 20
11270.97483946223
  0
LWPOLYLINE
  5
27D
330
17
100
AcDbEntity
  8
CHAPA
 62
7
370
25
100
AcDbPolyline
 90
4
 70
1
 10
3726.416752948658
 20
11270.97483946223
 10
3722.816752948653
 20
11270.97483946223
 10
3722.816752948653
 20
11222.97483962283
 10
3726.416752948658
 20
11222.97483962283
  0
LWPOLYLINE
  5
27E
330
17
100
AcDbEntity
  8
CHAPA
 62
7
370
25
100
AcDbPolyline
 90
4
 70
1
 10
3602.816752948653
 20
11270.97483946229
 10
3599.216752948648
 20
11270.97483946229
 10
3599.216752948648
 20
11222.97483962289
 10
3602.816752948653
 20
11222.97483962289
  0
LWPOLYLINE
  5
27F
330
17
100
AcDbEntity
  8
SARRAFO
 62
7
370
25
100
AcDbPolyline
 90
4
 70
1
 10
3726.416752943944
 20
11236.97483971937
 10
3726.416752944031
 20
11222.97483973351
 10
3730.816752938351
 20
11222.97483973351
 10
3730.816752938351
 20
11236.97483971937
  0
LWPOLYLINE
  5
280
330
17
100
AcDbEntity
  8
SARRAFO
 62
7
370
25
100
AcDbPolyline
 90
4
 70
1
 10
3594.816752954241
 20
11236.97483971942
 10
3594.816752954328
 20
11222.97483973357
 10
3599.216752948648
 20
11222.97483973357
 10
3599.216752948648
 20
11236.97483971942
  0
LWPOLYLINE
  5
281
330
17
100
AcDbEntity
  8
SARRAFO
 62
7
370
25
100
AcDbPolyline
 90
4
 70
1
 10
3726.416752943944
 20
11256.9748393657
 10
3726.416752944031
 20
11270.97483935155
 10
3730.816752938351
 20
11270.97483935155
 10
3730.816752938351
 20
11256.9748393657
  0
LWPOLYLINE
  5
282
330
17
100
AcDbEntity
  8
SARRAFO
 62
7
370
25
100
AcDbPolyline
 90
4
 70
1
 10
3594.816752954241
 20
11256.97483936564
 10
3594.816752954328
 20
11270.97483935149
 10
3599.216752948648
 20
11270.97483935149
 10
3599.216752948648
 20
11256.97483936564
  0
LWPOLYLINE
  5
283
330
17
100
AcDbEntity
  8
Painéis
 62
7
370
25
100
AcDbPolyline
 90
4
 70
1
 10
3722.816752948653
 20
11222.97483962283
 10
3722.816752948653
 20
11270.97483946223
 10
3602.816752948653
 20
11270.97483946223
 10
3602.816752948653
 20
11222.97483962283
  0
LWPOLYLINE
  5
284
330
17
100
AcDbEntity
  8
Madeira
 62
7
370
25
100
AcDbPolyline
 90
4
 70
1
 10
3730.832133343473
 20
11288.99020300308
 10
3730.8167613634237
 20
11274.99021144229
 10
3744.816752924215
 20
11274.97483946224
 10
3744.832124904264
 20
11288.974831023032
  0
LWPOLYLINE
  5
285
330
17
100
AcDbEntity
  8
Madeira
 62
7
370
25
100
AcDbPolyline
 90
4
 70
1
 10
3640.332222855795
 20
11288.98260875882
 10
3633.3322270825297
 20
11288.990294748837
 10
3633.316855102496
 20
11274.990303202307
 10
3640.3168508757612
 20
11274.98261721229
  0
LWPOLYLINE
  5
286
330
17
100
AcDbEntity
  8
Madeira
 62
7
370
25
100
AcDbPolyline
 90
4
 70
1
 10
3692.332189695124
 20
11288.98260875882
 10
3685.3321939218586
 20
11288.990294748837
 10
3685.316821941825
 20
11274.990303202307
 10
3692.31681771509
 20
11274.98261721229
  0
LWPOLYLINE
  5
287
330
17
100
AcDbEntity
  8
COTA
 62
7
370
25
100
AcDbPolyline
 90
4
 70
0
 10
4555.792433246184
 20
11081.31167626382
 10
4555.792433246184
 20
11155.31167626382
 10
4531.792433246184
 20
11155.31167626382
 10
4531.792433246184
 20
11081.31167626382
  0
LWPOLYLINE
  5
288
330
17
100
AcDbEntity
  8
Painéis
 62
7
370
25
100
AcDbPolyline
 90
4
 70
1
 10
4531.792433246184
 20
10834.31167626382
 10
4555.792433246184
 20
10834.31167626382
 10
4555.792433246184
 20
10832.31167626382
 10
4531.792433246184
 20
10832.31167626382
  0
LWPOLYLINE
  5
289
330
17
100
AcDbEntity
  8
COTA
 62
7
370
25
100
AcDbPolyline
 90
4
 70
0
 10
4719.57612445217
 20
11081.31167626382
 10
4719.57612445217
 20
11155.31167626382
 10
4695.57612445217
 20
11155.31167626382
 10
4695.57612445217
 20
11081.31167626382
  0
LWPOLYLINE
  5
28A
330
17
100
AcDbEntity
  8
Painéis
 62
7
370
25
100
AcDbPolyline
 90
4
 70
1
 10
4695.576124452171
 20
10834.31167626382
 10
4719.576124452171
 20
10834.31167626382
 10
4719.576124452171
 20
10832.31167626382
 10
4695.576124452171
 20
10832.31167626382
  0
LWPOLYLINE
  5
28B
330
17
100
AcDbEntity
  8
Painéis
 62
7
370
25
100
AcDbPolyline
 90
4
 70
1
 10
4398.942424106208
 20
10834.31167626382
 10
4316.942424106207
 20
10834.31167626385
 10
4316.942424106207
 20
10832.31167626385
 10
4398.942424106208
 20
10832.31167626382
  0
TEXT
  5
28C
330
17
100
AcDbEntity
  8
Texto Seção
 62
7
370
25
100
AcDbText
 10
4088.269188747581
 20
10849.14027189
 30
0.0
 40
13.0
  1
P5.A
100
AcDbText
  0
TEXT
  5
28D
330
17
100
AcDbEntity
  8
TEXTO_GERAL
 62
7
370
25
100
AcDbText
 10
3664.336683543755
 20
11230.56930404621
 30
0.0
 40
10.99999999889889
  1
A
100
AcDbText
  0
TEXT
  5
28E
330
17
100
AcDbEntity
  8
TEXTO_GERAL
 62
7
370
25
100
AcDbText
 10
3711.248590185638
 20
11248.42586729498
 30
0.0
 40
10.99999999889889
  1
D
100
AcDbText
  0
TEXT
  5
28F
330
17
100
AcDbEntity
  8
TEXTO_GERAL
 62
7
370
25
100
AcDbText
 10
3603.008798957598
 20
11250.74378283774
 30
0.0
 40
10.99999999889889
  1
C
100
AcDbText
  0
TEXT
  5
290
330
17
100
AcDbEntity
  8
TEXTO_GERAL
 62
7
370
25
100
AcDbText
 10
3665.795970318046
 20
11260.30576744862
 30
0.0
 40
10.99999999889889
  1
B
100
AcDbText
  0
TEXT
  5
291
330
17
100
AcDbEntity
  8
Texto Seção
 62
7
370
25
100
AcDbText
 10
4523.641331875959
 20
10843.60124984204
 30
0.0
 40
13.0
  1
P5.C
100
AcDbText
  0
TEXT
  5
292
330
17
100
AcDbEntity
  8
Texto Seção
 62
7
370
25
100
AcDbText
 10
4687.425023081945
 20
10843.60124984204
 30
0.0
 40
13.0
  1
P5.D
100
AcDbText
  0
TEXT
  5
293
330
17
100
AcDbEntity
  8
Texto Seção
 62
7
370
25
100
AcDbText
 10
4307.998232495127
 20
10849.14027189
 30
0.0
 40
13.0
  1
P5.B
100
AcDbText
  0
TEXT
  5
294
330
17
100
AcDbEntity
  8
NOMENCLATURA
 62
7
370
25
100
AcDbText
 10
4630.079787976153
 20
11472.82236304633
 30
0.0
 40
16.0
  1
2° PAVIMENTO - PD: 3.23\PNÍVEL DE SAÍDA: 817.75\PNIVEL DE CHEGADA: 820.98
100
AcDbText
  0
HATCH
  5
295
330
17
100
AcDbEntity
  8
COTA
 62
7
100
AcDbHatch
 10
0.0
 20
0.0
 30
0.0
210
0.0
220
0.0
230
1.0
  2
SOLID
 70
1
 71
0
 91
1
 92
3
 72
0
 73
1
 93
8
 10
4097.213380358665
 20
11155.31167626383
 10
4097.213380358661
 20
11081.31167626382
 10
4097.213380358661
 20
11081.31167626382
 10
4179.213380358552
 20
11081.31167626382
 10
4179.213380358552
 20
11081.31167626382
 10
4179.213380358366
 20
11155.31167626382
 10
4179.213380358366
 20
11155.31167626382
 10
4097.213380358665
 20
11155.31167626383
 97
0
 75
1
 76
1
 98
0
  0
HATCH
  5
296
330
17
100
AcDbEntity
  8
Hachura
 62
7
100
AcDbHatch
 10
0.0
 20
0.0
 30
0.0
210
0.0
220
0.0
230
1.0
  2
SOLID
 70
1
 71
0
 91
1
 92
3
 72
0
 73
1
 93
8
 10
3594.816752954241
 20
11222.97483956747
 10
3594.816752954241
 20
11227.37483956179
 10
3594.816752954241
 20
11227.37483956179
 10
3580.816752968385
 20
11227.37483956188
 10
3580.816752968385
 20
11227.37483956185
 10
3580.816752968385
 20
11222.97483956745
 10
3580.816752968385
 20
11222.97483956747
 10
3594.816752954241
 20
11222.97483956747
 97
0
 75
1
 76
1
 98
0
  0
HATCH
  5
297
330
17
100
AcDbEntity
  8
Hachura
 62
7
100
AcDbHatch
 10
0.0
 20
0.0
 30
0.0
210
0.0
220
0.0
230
1.0
  2
SOLID
 70
1
 71
0
 91
1
 92
3
 72
0
 73
1
 93
8
 10
3594.816752954241
 20
11270.97483951759
 10
3594.816752954241
 20
11266.57483952327
 10
3594.816752954241
 20
11266.57483952327
 10
3580.816752968385
 20
11266.57483952318
 10
3580.816752968385
 20
11266.57483952316
 10
3580.816752968385
 20
11270.97483951756
 10
3580.816752968385
 20
11270.97483951759
 10
3594.816752954241
 20
11270.97483951759
 97
0
 75
1
 76
1
 98
0
  0
HATCH
  5
298
330
17
100
AcDbEntity
  8
Hachura
 62
7
100
AcDbHatch
 10
0.0
 20
0.0
 30
0.0
210
0.0
220
0.0
230
1.0
  2
SOLID
 70
1
 71
0
 91
1
 92
3
 72
0
 73
1
 93
8
 10
3730.816752938351
 20
11222.97483956747
 10
3730.816752938351
 20
11227.37483956179
 10
3730.816752938351
 20
11227.37483956179
 10
3744.816752924206
 20
11227.37483956188
 10
3744.816752924206
 20
11227.37483956185
 10
3744.816752924206
 20
11222.97483956745
 10
3744.816752924206
 20
11222.97483956747
 10
3730.816752938351
 20
11222.97483956747
 97
0
 75
1
 76
1
 98
0
  0
HATCH
  5
299
330
17
100
AcDbEntity
  8
Hachura
 62
7
100
AcDbHatch
 10
0.0
 20
0.0
 30
0.0
210
0.0
220
0.0
230
1.0
  2
SOLID
 70
1
 71
0
 91
1
 92
3
 72
0
 73
1
 93
8
 10
3580.816752968851
 20
11222.97483962283
 10
3580.816752968851
 20
11218.97483962283
 10
3580.816752968851
 20
11218.97483962283
 10
3744.816752924206
 20
11218.97483962283
 10
3744.816752924206
 20
11218.97483962283
 10
3744.816752924206
 20
11222.97483962283
 10
3744.816752924206
 20
11222.97483962283
 10
3580.816752968851
 20
11222.97483962283
 97
0
 75
1
 76
1
 98
0
  0
HATCH
  5
29A
330
17
100
AcDbEntity
  8
Hachura
 62
7
100
AcDbHatch
 10
0.0
 20
0.0
 30
0.0
210
0.0
220
0.0
230
1.0
  2
SOLID
 70
1
 71
0
 91
1
 92
3
 72
0
 73
1
 93
8
 10
3580.816752968851
 20
11270.97483946223
 10
3580.816752968851
 20
11274.97483946223
 10
3580.816752968851
 20
11274.97483946223
 10
3744.816752924206
 20
11274.97483946223
 10
3744.816752924206
 20
11274.97483946223
 10
3744.816752924206
 20
11270.97483946223
 10
3744.816752924206
 20
11270.97483946223
 10
3580.816752968851
 20
11270.97483946223
 97
0
 75
1
 76
1
 98
0
  0
HATCH
  5
29B
330
17
100
AcDbEntity
  8
Hachura
 62
7
100
AcDbHatch
 10
0.0
 20
0.0
 30
0.0
210
0.0
220
0.0
230
1.0
  2
SOLID
 70
1
 71
0
 91
1
 92
3
 72
0
 73
1
 93
8
 10
3726.416752948658
 20
11270.97483946223
 10
3722.816752948653
 20
11270.97483946223
 10
3722.816752948653
 20
11270.97483946223
 10
3722.816752948653
 20
11222.97483962283
 10
3722.816752948653
 20
11222.97483962283
 10
3726.416752948658
 20
11222.97483962283
 10
3726.416752948658
 20
11222.97483962283
 10
3726.416752948658
 20
11270.97483946223
 97
0
 75
1
 76
1
 98
0
  0
HATCH
  5
29C
330
17
100
AcDbEntity
  8
Hachura
 62
7
100
AcDbHatch
 10
0.0
 20
0.0
 30
0.0
210
0.0
220
0.0
230
1.0
  2
SOLID
 70
1
 71
0
 91
1
 92
3
 72
0
 73
1
 93
8
 10
3602.816752948653
 20
11270.97483946229
 10
3599.216752948648
 20
11270.97483946229
 10
3599.216752948648
 20
11270.97483946229
 10
3599.216752948648
 20
11222.97483962289
 10
3599.216752948648
 20
11222.97483962289
 10
3602.816752948653
 20
11222.97483962289
 10
3602.816752948653
 20
11222.97483962289
 10
3602.816752948653
 20
11270.97483946229
 97
0
 75
1
 76
1
 98
0
  0
HATCH
  5
29D
330
17
100
AcDbEntity
  8
Hachura
 62
7
100
AcDbHatch
 10
0.0
 20
0.0
 30
0.0
210
0.0
220
0.0
230
1.0
  2
SOLID
 70
1
 71
0
 91
1
 92
3
 72
0
 73
1
 93
8
 10
3730.816752938351
 20
11270.97483951759
 10
3730.816752938351
 20
11266.57483952327
 10
3730.816752938351
 20
11266.57483952327
 10
3744.816752924206
 20
11266.57483952318
 10
3744.816752924206
 20
11266.57483952316
 10
3744.816752924206
 20
11270.97483951756
 10
3744.816752924206
 20
11270.97483951759
 10
3730.816752938351
 20
11270.97483951759
 97
0
 75
1
 76
1
 98
0
  0
HATCH
  5
29E
330
17
100
AcDbEntity
  8
Hachura
 62
7
100
AcDbHatch
 10
0.0
 20
0.0
 30
0.0
210
0.0
220
0.0
230
1.0
  2
SOLID
 70
1
 71
0
 91
1
 92
3
 72
0
 73
1
 93
8
 10
3580.816752968851
 20
11222.97483962283
 10
3580.816752968851
 20
11218.97483962283
 10
3580.816752968851
 20
11218.97483962283
 10
3744.816752924206
 20
11218.97483962283
 10
3744.816752924206
 20
11218.97483962283
 10
3744.816752924206
 20
11222.97483962283
 10
3744.816752924206
 20
11222.97483962283
 10
3580.816752968851
 20
11222.97483962283
 97
0
 75
1
 76
1
 98
0
  0
HATCH
  5
29F
330
17
100
AcDbEntity
  8
Hachura
 62
7
100
AcDbHatch
 10
0.0
 20
0.0
 30
0.0
210
0.0
220
0.0
230
1.0
  2
SOLID
 70
1
 71
0
 91
1
 92
3
 72
0
 73
1
 93
8
 10
3580.816752968851
 20
11270.97483946223
 10
3580.816752968851
 20
11274.97483946223
 10
3580.816752968851
 20
11274.97483946223
 10
3744.816752924206
 20
11274.97483946223
 10
3744.816752924206
 20
11274.97483946223
 10
3744.816752924206
 20
11270.97483946223
 10
3744.816752924206
 20
11270.97483946223
 10
3580.816752968851
 20
11270.97483946223
 97
0
 75
1
 76
1
 98
0
  0
HATCH
  5
2A0
330
17
100
AcDbEntity
  8
Hachura
 62
7
100
AcDbHatch
 10
0.0
 20
0.0
 30
0.0
210
0.0
220
0.0
230
1.0
  2
SOLID
 70
1
 71
0
 91
1
 92
3
 72
0
 73
1
 93
8
 10
3726.416752948658
 20
11270.97483946223
 10
3722.816752948653
 20
11270.97483946223
 10
3722.816752948653
 20
11270.97483946223
 10
3722.816752948653
 20
11222.97483962283
 10
3722.816752948653
 20
11222.97483962283
 10
3726.416752948658
 20
11222.97483962283
 10
3726.416752948658
 20
11222.97483962283
 10
3726.416752948658
 20
11270.97483946223
 97
0
 75
1
 76
1
 98
0
  0
HATCH
  5
2A1
330
17
100
AcDbEntity
  8
Hachura
 62
7
100
AcDbHatch
 10
0.0
 20
0.0
 30
0.0
210
0.0
220
0.0
230
1.0
  2
SOLID
 70
1
 71
0
 91
1
 92
3
 72
0
 73
1
 93
8
 10
3602.816752948653
 20
11270.97483946229
 10
3599.216752948648
 20
11270.97483946229
 10
3599.216752948648
 20
11270.97483946229
 10
3599.216752948648
 20
11222.97483962289
 10
3599.216752948648
 20
11222.97483962289
 10
3602.816752948653
 20
11222.97483962289
 10
3602.816752948653
 20
11222.97483962289
 10
3602.816752948653
 20
11270.97483946229
 97
0
 75
1
 76
1
 98
0
  0
HATCH
  5
2A2
330
17
100
AcDbEntity
  8
Hachura
 62
7
100
AcDbHatch
 10
0.0
 20
0.0
 30
0.0
210
0.0
220
0.0
230
1.0
  2
SOLID
 70
1
 71
0
 91
1
 92
3
 72
0
 73
1
 93
8
 10
3730.816752938351
 20
11222.97483973351
 10
3726.416752944031
 20
11222.97483973351
 10
3726.416752944031
 20
11222.97483973351
 10
3726.416752943944
 20
11236.97483971937
 10
3726.416752943944
 20
11236.97483971937
 10
3730.816752938351
 20
11236.97483971937
 10
3730.816752938351
 20
11236.97483971937
 10
3730.816752938351
 20
11222.97483973351
 97
0
 75
1
 76
1
 98
0
  0
HATCH
  5
2A3
330
17
100
AcDbEntity
  8
Hachura
 62
7
100
AcDbHatch
 10
0.0
 20
0.0
 30
0.0
210
0.0
220
0.0
230
1.0
  2
SOLID
 70
1
 71
0
 91
1
 92
3
 72
0
 73
1
 93
8
 10
3599.216752948648
 20
11222.97483973357
 10
3594.816752954328
 20
11222.97483973357
 10
3594.816752954328
 20
11222.97483973357
 10
3594.816752954241
 20
11236.97483971942
 10
3594.816752954241
 20
11236.97483971942
 10
3599.216752948648
 20
11236.97483971942
 10
3599.216752948648
 20
11236.97483971942
 10
3599.216752948648
 20
11222.97483973357
 97
0
 75
1
 76
1
 98
0
  0
HATCH
  5
2A4
330
17
100
AcDbEntity
  8
Hachura
 62
7
100
AcDbHatch
 10
0.0
 20
0.0
 30
0.0
210
0.0
220
0.0
230
1.0
  2
SOLID
 70
1
 71
0
 91
1
 92
3
 72
0
 73
1
 93
8
 10
3730.816752938351
 20
11270.97483935155
 10
3726.416752944031
 20
11270.97483935155
 10
3726.416752944031
 20
11270.97483935155
 10
3726.416752943944
 20
11256.9748393657
 10
3726.416752943944
 20
11256.9748393657
 10
3730.816752938351
 20
11256.9748393657
 10
3730.816752938351
 20
11256.9748393657
 10
3730.816752938351
 20
11270.97483935155
 97
0
 75
1
 76
1
 98
0
  0
HATCH
  5
2A5
330
17
100
AcDbEntity
  8
Hachura
 62
7
100
AcDbHatch
 10
0.0
 20
0.0
 30
0.0
210
0.0
220
0.0
230
1.0
  2
SOLID
 70
1
 71
0
 91
1
 92
3
 72
0
 73
1
 93
8
 10
3599.216752948648
 20
11270.97483935149
 10
3594.816752954328
 20
11270.97483935149
 10
3594.816752954328
 20
11270.97483935149
 10
3594.816752954241
 20
11256.97483936564
 10
3594.816752954241
 20
11256.97483936564
 10
3599.216752948648
 20
11256.97483936564
 10
3599.216752948648
 20
11256.97483936564
 10
3599.216752948648
 20
11270.97483935149
 97
0
 75
1
 76
1
 98
0
  0
HATCH
  5
2A6
330
17
100
AcDbEntity
  8
COTA
 62
7
100
AcDbHatch
 10
0.0
 20
0.0
 30
0.0
210
0.0
220
0.0
230
1.0
  2
SOLID
 70
1
 71
0
 91
1
 92
3
 72
0
 73
1
 93
8
 10
4531.792433246184
 20
11081.31167626382
 10
4555.792433246184
 20
11081.31167626382
 10
4555.792433246184
 20
11081.31167626382
 10
4555.792433246184
 20
11155.31167626382
 10
4555.792433246184
 20
11155.31167626382
 10
4531.792433246184
 20
11155.31167626382
 10
4531.792433246184
 20
11155.31167626382
 10
4531.792433246184
 20
11081.31167626382
 97
0
 75
1
 76
1
 98
0
  0
HATCH
  5
2A7
330
17
100
AcDbEntity
  8
COTA
 62
7
100
AcDbHatch
 10
0.0
 20
0.0
 30
0.0
210
0.0
220
0.0
230
1.0
  2
SOLID
 70
1
 71
0
 91
1
 92
3
 72
0
 73
1
 93
8
 10
4695.57612445217
 20
11081.31167626382
 10
4719.57612445217
 20
11081.31167626382
 10
4719.57612445217
 20
11081.31167626382
 10
4719.57612445217
 20
11155.31167626382
 10
4719.57612445217
 20
11155.31167626382
 10
4695.57612445217
 20
11155.31167626382
 10
4695.57612445217
 20
11155.31167626382
 10
4695.57612445217
 20
11081.31167626382
 97
0
 75
1
 76
1
 98
0
  0
HATCH
  5
2A8
330
17
100
AcDbEntity
  8
COTA
 62
7
100
AcDbHatch
 10
0.0
 20
0.0
 30
0.0
210
0.0
220
0.0
230
1.0
  2
SOLID
 70
1
 71
0
 91
1
 92
3
 72
0
 73
1
 93
8
 10
4316.942424106211
 20
11155.31167626383
 10
4316.942424106207
 20
11081.31167626382
 10
4316.942424106207
 20
11081.31167626382
 10
4398.942424106098
 20
11081.31167626382
 10
4398.942424106098
 20
11081.31167626382
 10
4398.942424105912
 20
11155.31167626382
 10
4398.942424105912
 20
11155.31167626382
 10
4316.942424106211
 20
11155.31167626383
 97
0
 75
1
 76
1
 98
0
  0
HATCH
  5
2A9
330
17
100
AcDbEntity
  8
Hachura
 62
7
100
AcDbHatch
 10
0.0
 20
0.0
 30
0.0
210
0.0
220
0.0
230
1.0
  2
SOLID
 70
1
 71
0
 91
1
 92
3
 72
0
 73
1
 93
8
 10
4398.942424106118
 20
10832.31167626383
 10
4398.942424106158
 20
11081.31167626388
 10
4398.942424106158
 20
11081.31167626388
 10
4316.942424106279
 20
11081.31167626386
 10
4316.942424106279
 20
11081.31167626386
 10
4316.942424106239
 20
10832.31167626382
 10
4316.942424106239
 20
10832.31167626382
 10
4398.942424106118
 20
10832.31167626383
 97
0
 75
1
 76
1
 98
0
  0
HATCH
  5
2AA
330
17
100
AcDbEntity
  8
Hachura
 62
7
100
AcDbHatch
 10
0.0
 20
0.0
 30
0.0
210
0.0
220
0.0
230
1.0
  2
SOLID
 70
1
 71
0
 91
1
 92
3
 72
0
 73
1
 93
8
 10
4555.792433246161
 20
10832.31167626384
 10
4555.792433246201
 20
11081.31167626388
 10
4555.792433246201
 20
11081.31167626388
 10
4531.792433246256
 20
11081.31167626387
 10
4531.792433246256
 20
11081.31167626387
 10
4531.792433246216
 20
10832.31167626382
 10
4531.792433246216
 20
10832.31167626382
 10
4555.792433246161
 20
10832.31167626384
 97
0
 75
1
 76
1
 98
0
  0
HATCH
  5
2AB
330
17
100
AcDbEntity
  8
Hachura
 62
7
100
AcDbHatch
 10
0.0
 20
0.0
 30
0.0
210
0.0
220
0.0
230
1.0
  2
SOLID
 70
1
 71
0
 91
1
 92
3
 72
0
 73
1
 93
8
 10
4719.576124452149
 20
10832.31167626384
 10
4719.576124452188
 20
11081.31167626388
 10
4719.576124452188
 20
11081.31167626388
 10
4695.576124452244
 20
11081.31167626387
 10
4695.576124452244
 20
11081.31167626387
 10
4695.576124452204
 20
10832.31167626382
 10
4695.576124452204
 20
10832.31167626382
 10
4719.576124452149
 20
10832.31167626384
 97
0
 75
1
 76
1
 98
0
  0
HATCH
  5
2AC
330
17
100
AcDbEntity
  8
Hachura
 62
7
100
AcDbHatch
 10
0.0
 20
0.0
 30
0.0
210
0.0
220
0.0
230
1.0
  2
SOLID
 70
1
 71
0
 91
1
 92
3
 72
0
 73
1
 93
8
 10
4179.213380358572
 20
10832.31167626383
 10
4179.213380358612
 20
11081.31167626388
 10
4179.213380358612
 20
11081.31167626388
 10
4097.213380358733
 20
11081.31167626386
 10
4097.213380358733
 20
11081.31167626386
 10
4097.213380358694
 20
10832.31167626382
 10
4097.213380358694
 20
10832.31167626382
 10
4179.213380358572
 20
10832.31167626383
 97
0
 75
1
 76
1
 98
0
  0
ENDSEC
  0
SECTION
  2
OBJECTS
  0
DICTIONARY
  5
A
330
0
100
AcDbDictionary
281
1
  3
ACAD_COLOR
350
B
  3
ACAD_GROUP
350
C
  3
ACAD_LAYOUT
350
D
  3
ACAD_MATERIAL
350
E
  3
ACAD_MLEADERSTYLE
350
F
  3
ACAD_MLINESTYLE
350
10
  3
ACAD_PLOTSETTINGS
350
11
  3
ACAD_PLOTSTYLENAME
350
12
  3
ACAD_SCALELIST
350
14
  3
ACAD_TABLESTYLE
350
15
  3
ACAD_VISUALSTYLE
350
16
  3
EZDXF_META
350
2D
  0
DICTIONARY
  5
B
330
A
100
AcDbDictionary
281
1
  0
DICTIONARY
  5
C
330
A
100
AcDbDictionary
281
1
  0
DICTIONARY
  5
D
330
A
100
AcDbDictionary
281
1
  3
Model
350
1A
  3
Layout1
350
1E
  0
DICTIONARY
  5
E
330
A
100
AcDbDictionary
281
1
  3
ByBlock
350
1F
  3
ByLayer
350
20
  3
Global
350
21
  0
DICTIONARY
  5
F
330
A
100
AcDbDictionary
281
1
  3
Standard
350
2C
  0
DICTIONARY
  5
10
330
A
100
AcDbDictionary
281
1
  3
Standard
350
22
  0
DICTIONARY
  5
11
330
A
100
AcDbDictionary
281
1
  0
ACDBDICTIONARYWDFLT
  5
12
330
A
100
AcDbDictionary
281
1
  3
Normal
350
13
100
AcDbDictionaryWithDefault
340
13
  0
ACDBPLACEHOLDER
  5
13
330
12
  0
DICTIONARY
  5
14
330
A
100
AcDbDictionary
281
1
  0
DICTIONARY
  5
15
330
A
100
AcDbDictionary
281
1
  0
DICTIONARY
  5
16
330
A
100
AcDbDictionary
281
1
  0
LAYOUT
  5
1A
330
D
100
AcDbPlotSettings
  1

  4
A3
  6

 40
7.5
 41
20.0
 42
7.5
 43
20.0
 44
420.0
 45
297.0
 46
0.0
 47
0.0
 48
0.0
 49
0.0
140
0.0
141
0.0
142
1.0
143
1.0
 70
1024
 72
1
 73
0
 74
5
  7

 75
16
 76
0
 77
2
 78
300
147
1.0
148
0.0
149
0.0
100
AcDbLayout
  1
Model
 70
1
 71
0
 10
0.0
 20
0.0
 11
420.0
 21
297.0
 12
0.0
 22
0.0
 32
0.0
 14
1e+20
 24
1e+20
 34
1e+20
 15
-1e+20
 25
-1e+20
 35
-1e+20
146
0.0
 13
0.0
 23
0.0
 33
0.0
 16
1.0
 26
0.0
 36
0.0
 17
0.0
 27
1.0
 37
0.0
 76
1
330
17
  0
LAYOUT
  5
1E
330
D
100
AcDbPlotSettings
  1

  4
A3
  6

 40
7.5
 41
20.0
 42
7.5
 43
20.0
 44
420.0
 45
297.0
 46
0.0
 47
0.0
 48
0.0
 49
0.0
140
0.0
141
0.0
142
1.0
143
1.0
 70
0
 72
1
 73
0
 74
5
  7

 75
16
 76
0
 77
2
 78
300
147
1.0
148
0.0
149
0.0
100
AcDbLayout
  1
Layout1
 70
1
 71
1
 10
0.0
 20
0.0
 11
420.0
 21
297.0
 12
0.0
 22
0.0
 32
0.0
 14
1e+20
 24
1e+20
 34
1e+20
 15
-1e+20
 25
-1e+20
 35
-1e+20
146
0.0
 13
0.0
 23
0.0
 33
0.0
 16
1.0
 26
0.0
 36
0.0
 17
0.0
 27
1.0
 37
0.0
 76
1
330
1B
  0
MATERIAL
  5
1F
102
{ACAD_REACTORS
330
E
102
}
330
E
100
AcDbMaterial
  1
ByBlock
  2

 70
0
 40
1.0
 71
1
 41
1.0
 91
-1023410177
 42
1.0
 72
1
  3

 73
1
 74
1
 75
1
 44
0.5
 73
0
 45
1.0
 46
1.0
 77
1
  4

 78
1
 79
1
170
1
 48
1.0
171
1
  6

172
1
173
1
174
1
140
1.0
141
1.0
175
1
  7

176
1
177
1
178
1
143
1.0
179
1
  8

270
1
271
1
272
1
145
1.0
146
1.0
273
1
  9

274
1
275
1
276
1
 42
1.0
 72
1
  3

 73
1
 74
1
 75
1
 94
63
  0
MATERIAL
  5
20
102
{ACAD_REACTORS
330
E
102
}
330
E
100
AcDbMaterial
  1
ByLayer
  2

 70
0
 40
1.0
 71
1
 41
1.0
 91
-1023410177
 42
1.0
 72
1
  3

 73
1
 74
1
 75
1
 44
0.5
 73
0
 45
1.0
 46
1.0
 77
1
  4

 78
1
 79
1
170
1
 48
1.0
171
1
  6

172
1
173
1
174
1
140
1.0
141
1.0
175
1
  7

176
1
177
1
178
1
143
1.0
179
1
  8

270
1
271
1
272
1
145
1.0
146
1.0
273
1
  9

274
1
275
1
276
1
 42
1.0
 72
1
  3

 73
1
 74
1
 75
1
 94
63
  0
MATERIAL
  5
21
102
{ACAD_REACTORS
330
E
102
}
330
E
100
AcDbMaterial
  1
Global
  2

 70
0
 40
1.0
 71
1
 41
1.0
 91
-1023410177
 42
1.0
 72
1
  3

 73
1
 74
1
 75
1
 44
0.5
 73
0
 45
1.0
 46
1.0
 77
1
  4

 78
1
 79
1
170
1
 48
1.0
171
1
  6

172
1
173
1
174
1
140
1.0
141
1.0
175
1
  7

176
1
177
1
178
1
143
1.0
179
1
  8

270
1
271
1
272
1
145
1.0
146
1.0
273
1
  9

274
1
275
1
276
1
 42
1.0
 72
1
  3

 73
1
 74
1
 75
1
 94
63
  0
MLINESTYLE
  5
22
102
{ACAD_REACTORS
330
10
102
}
330
10
100
AcDbMlineStyle
  2
Standard
 70
0
  3

 62
256
 51
90.0
 52
90.0
 71
2
 49
0.5
 62
256
  6
BYLAYER
 49
-0.5
 62
256
  6
BYLAYER
  0
MLEADERSTYLE
  5
2C
102
{ACAD_REACTORS
330
F
102
}
330
F
100
AcDbMLeaderStyle
179
2
170
2
171
1
172
0
 90
2
 40
0.0
 41
0.0
173
1
 91
-1056964608
 92
-2
290
1
 42
2.0
291
1
 43
8.0
  3
Standard
 44
4.0
300

342
29
174
1
175
1
176
0
178
1
 93
-1056964608
 45
4.0
292
0
297
0
 46
4.0
 94
-1056964608
 47
1.0
 49
1.0
140
1.0
294
1
141
0.0
177
0
142
1.0
295
0
296
0
143
3.75
271
0
272
9
273
9
  0
DICTIONARY
  5
2D
330
A
100
AcDbDictionary
280
1
281
1
  3
CREATED_BY_EZDXF
350
2E
  3
WRITTEN_BY_EZDXF
350
2AF
  0
DICTIONARYVAR
  5
2E
330
2D
100
DictionaryVariables
280
0
  1
1.4.3 @ 2026-06-10T16:54:07.076787+00:00
  0
DICTIONARYVAR
  5
2AF
330
2D
100
DictionaryVariables
280
0
  1
1.4.3 @ 2026-06-10T16:54:07.095690+00:00
  0
ENDSEC
  0
EOF
