  0
SECTION
  2
HEADER
  9
$ACADVER
  1
AC1024
  9
$ACADMAINTVER
 70
6
  9
$DWGCODEPAGE
  3
ANSI_1252
  9
$LASTSAVEDBY
  1
ezdxf
  9
$INSBASE
 10
0.0
 20
0.0
 30
0.0
  9
$EXTMIN
 10
1e+20
 20
1e+20
 30
1e+20
  9
$EXTMAX
 10
-1e+20
 20
-1e+20
 30
-1e+20
  9
$LIMMIN
 10
0.0
 20
0.0
  9
$LIMMAX
 10
420.0
 20
297.0
  9
$ORTHOMODE
 70
0
  9
$REGENMODE
 70
1
  9
$FILLMODE
 70
1
  9
$QTEXTMODE
 70
0
  9
$MIRRTEXT
 70
1
  9
$LTSCALE
 40
1.0
  9
$ATTMODE
 70
1
  9
$TEXTSIZE
 40
2.5
  9
$TRACEWID
 40
1.0
  9
$TEXTSTYLE
  7
Standard
  9
$CLAYER
  8
0
  9
$CELTYPE
  6
ByLayer
  9
$CECOLOR
 62
256
  9
$CELTSCALE
 40
1.0
  9
$DISPSILH
 70
0
  9
$DIMSCALE
 40
1.0
  9
$DIMASZ
 40
2.5
  9
$DIMEXO
 40
0.625
  9
$DIMDLI
 40
3.75
  9
$DIMRND
 40
0.0
  9
$DIMDLE
 40
0.0
  9
$DIMEXE
 40
1.25
  9
$DIMTP
 40
0.0
  9
$DIMTM
 40
0.0
  9
$DIMTXT
 40
2.5
  9
$DIMCEN
 40
2.5
  9
$DIMTSZ
 40
0.0
  9
$DIMTOL
 70
0
  9
$DIMLIM
 70
0
  9
$DIMTIH
 70
0
  9
$DIMTOH
 70
0
  9
$DIMSE1
 70
0
  9
$DIMSE2
 70
0
  9
$DIMTAD
 70
1
  9
$DIMZIN
 70
8
  9
$DIMBLK
  1

  9
$DIMASO
 70
1
  9
$DIMSHO
 70
1
  9
$DIMPOST
  1

  9
$DIMAPOST
  1

  9
$DIMALT
 70
0
  9
$DIMALTD
 70
3
  9
$DIMALTF
 40
0.03937007874
  9
$DIMLFAC
 40
1.0
  9
$DIMTOFL
 70
1
  9
$DIMTVP
 40
0.0
  9
$DIMTIX
 70
0
  9
$DIMSOXD
 70
0
  9
$DIMSAH
 70
0
  9
$DIMBLK1
  1

  9
$DIMBLK2
  1

  9
$DIMSTYLE
  2
ISO-25
  9
$DIMCLRD
 70
0
  9
$DIMCLRE
 70
0
  9
$DIMCLRT
 70
0
  9
$DIMTFAC
 40
1.0
  9
$DIMGAP
 40
0.625
  9
$DIMJUST
 70
0
  9
$DIMSD1
 70
0
  9
$DIMSD2
 70
0
  9
$DIMTOLJ
 70
0
  9
$DIMTZIN
 70
8
  9
$DIMALTZ
 70
0
  9
$DIMALTTZ
 70
0
  9
$DIMUPT
 70
0
  9
$DIMDEC
 70
2
  9
$DIMTDEC
 70
2
  9
$DIMALTU
 70
2
  9
$DIMALTTD
 70
3
  9
$DIMTXSTY
  7
Standard
  9
$DIMAUNIT
 70
0
  9
$DIMADEC
 70
0
  9
$DIMALTRND
 40
0.0
  9
$DIMAZIN
 70
0
  9
$DIMDSEP
 70
44
  9
$DIMATFIT
 70
3
  9
$DIMFRAC
 70
0
  9
$DIMLDRBLK
  1

  9
$DIMLUNIT
 70
2
  9
$DIMLWD
 70
-2
  9
$DIMLWE
 70
-2
  9
$DIMTMOVE
 70
0
  9
$DIMFXL
 40
1.0
  9
$DIMFXLON
 70
0
  9
$DIMJOGANG
 40
0.785398163397
  9
$DIMTFILL
 70
0
  9
$DIMTFILLCLR
 70
0
  9
$DIMARCSYM
 70
0
  9
$DIMLTYPE
  6

  9
$DIMLTEX1
  6

  9
$DIMLTEX2
  6

  9
$DIMTXTDIRECTION
 70
0
  9
$LUNITS
 70
2
  9
$LUPREC
 70
4
  9
$SKETCHINC
 40
1.0
  9
$FILLETRAD
 40
10.0
  9
$AUNITS
 70
0
  9
$AUPREC
 70
2
  9
$MENU
  1
.
  9
$ELEVATION
 40
0.0
  9
$PELEVATION
 40
0.0
  9
$THICKNESS
 40
0.0
  9
$LIMCHECK
 70
0
  9
$CHAMFERA
 40
0.0
  9
$CHAMFERB
 40
0.0
  9
$CHAMFERC
 40
0.0
  9
$CHAMFERD
 40
0.0
  9
$SKPOLY
 70
0
  9
$TDCREATE
 40
2461189.4431597223
  9
$TDUCREATE
 40
2458532.153996898
  9
$TDUPDATE
 40
2461189.4431712963
  9
$TDUUPDATE
 40
2458532.1544311
  9
$TDINDWG
 40
0.0
  9
$TDUSRTIMER
 40
0.0
  9
$USRTIMER
 70
1
  9
$ANGBASE
 50
0.0
  9
$ANGDIR
 70
0
  9
$PDMODE
 70
0
  9
$PDSIZE
 40
0.0
  9
$PLINEWID
 40
0.0
  9
$SPLFRAME
 70
0
  9
$SPLINETYPE
 70
6
  9
$SPLINESEGS
 70
8
  9
$HANDSEED
  5
3CC
  9
$SURFTAB1
 70
6
  9
$SURFTAB2
 70
6
  9
$SURFTYPE
 70
6
  9
$SURFU
 70
6
  9
$SURFV
 70
6
  9
$UCSBASE
  2

  9
$UCSNAME
  2

  9
$UCSORG
 10
0.0
 20
0.0
 30
0.0
  9
$UCSXDIR
 10
1.0
 20
0.0
 30
0.0
  9
$UCSYDIR
 10
0.0
 20
1.0
 30
0.0
  9
$UCSORTHOREF
  2

  9
$UCSORTHOVIEW
 70
0
  9
$UCSORGTOP
 10
0.0
 20
0.0
 30
0.0
  9
$UCSORGBOTTOM
 10
0.0
 20
0.0
 30
0.0
  9
$UCSORGLEFT
 10
0.0
 20
0.0
 30
0.0
  9
$UCSORGRIGHT
 10
0.0
 20
0.0
 30
0.0
  9
$UCSORGFRONT
 10
0.0
 20
0.0
 30
0.0
  9
$UCSORGBACK
 10
0.0
 20
0.0
 30
0.0
  9
$PUCSBASE
  2

  9
$PUCSNAME
  2

  9
$PUCSORG
 10
0.0
 20
0.0
 30
0.0
  9
$PUCSXDIR
 10
1.0
 20
0.0
 30
0.0
  9
$PUCSYDIR
 10
0.0
 20
1.0
 30
0.0
  9
$PUCSORTHOREF
  2

  9
$PUCSORTHOVIEW
 70
0
  9
$PUCSORGTOP
 10
0.0
 20
0.0
 30
0.0
  9
$PUCSORGBOTTOM
 10
0.0
 20
0.0
 30
0.0
  9
$PUCSORGLEFT
 10
0.0
 20
0.0
 30
0.0
  9
$PUCSORGRIGHT
 10
0.0
 20
0.0
 30
0.0
  9
$PUCSORGFRONT
 10
0.0
 20
0.0
 30
0.0
  9
$PUCSORGBACK
 10
0.0
 20
0.0
 30
0.0
  9
$USERI1
 70
0
  9
$USERI2
 70
0
  9
$USERI3
 70
0
  9
$USERI4
 70
0
  9
$USERI5
 70
0
  9
$USERR1
 40
0.0
  9
$USERR2
 40
0.0
  9
$USERR3
 40
0.0
  9
$USERR4
 40
0.0
  9
$USERR5
 40
0.0
  9
$WORLDVIEW
 70
1
  9
$SHADEDGE
 70
3
  9
$SHADEDIF
 70
70
  9
$TILEMODE
 70
1
  9
$MAXACTVP
 70
64
  9
$PINSBASE
 10
0.0
 20
0.0
 30
0.0
  9
$PLIMCHECK
 70
0
  9
$PEXTMIN
 10
1e+20
 20
1e+20
 30
1e+20
  9
$PEXTMAX
 10
-1e+20
 20
-1e+20
 30
-1e+20
  9
$PLIMMIN
 10
0.0
 20
0.0
  9
$PLIMMAX
 10
420.0
 20
297.0
  9
$UNITMODE
 70
0
  9
$VISRETAIN
 70
1
  9
$PLINEGEN
 70
0
  9
$PSLTSCALE
 70
1
  9
$TREEDEPTH
 70
3020
  9
$CMLSTYLE
  2
Standard
  9
$CMLJUST
 70
0
  9
$CMLSCALE
 40
20.0
  9
$PROXYGRAPHICS
 70
1
  9
$MEASUREMENT
 70
1
  9
$CELWEIGHT
370
-1
  9
$ENDCAPS
280
0
  9
$JOINSTYLE
280
0
  9
$LWDISPLAY
290
0
  9
$INSUNITS
 70
6
  9
$HYPERLINKBASE
  1

  9
$STYLESHEET
  1

  9
$XEDIT
290
1
  9
$CEPSNTYPE
380
0
  9
$PSTYLEMODE
290
1
  9
$FINGERPRINTGUID
  2
{CD6C0C35-7409-43DB-A0E5-88EDEC8CC58B}
  9
$VERSIONGUID
  2
{3EB2C94C-ADC1-46BD-AEDB-B298E019372E}
  9
$EXTNAMES
290
1
  9
$PSVPSCALE
 40
0.0
  9
$OLESTARTUP
290
0
  9
$SORTENTS
280
127
  9
$INDEXCTL
280
0
  9
$HIDETEXT
280
1
  9
$XCLIPFRAME
280
1
  9
$HALOGAP
280
0
  9
$OBSCOLOR
 70
257
  9
$OBSLTYPE
280
0
  9
$INTERSECTIONDISPLAY
280
0
  9
$INTERSECTIONCOLOR
 70
257
  9
$DIMASSOC
280
2
  9
$PROJECTNAME
  1

  9
$CAMERADISPLAY
290
0
  9
$LENSLENGTH
 40
50.0
  9
$CAMERAHEIGHT
 40
0.0
  9
$STEPSPERSEC
 40
24.0
  9
$STEPSIZE
 40
100.0
  9
$3DDWFPREC
 40
2.0
  9
$PSOLWIDTH
 40
0.005
  9
$PSOLHEIGHT
 40
0.08
  9
$LOFTANG1
 40
1.570796326795
  9
$LOFTANG2
 40
1.570796326795
  9
$LOFTMAG1
 40
0.0
  9
$LOFTMAG2
 40
0.0
  9
$LOFTPARAM
 70
7
  9
$LOFTNORMALS
280
1
  9
$LATITUDE
 40
37.795
  9
$LONGITUDE
 40
-122.394
  9
$NORTHDIRECTION
 40
0.0
  9
$TIMEZONE
 70
-8000
  9
$LIGHTGLYPHDISPLAY
280
1
  9
$TILEMODELIGHTSYNCH
280
1
  9
$CMATERIAL
347
20
  9
$SOLIDHIST
280
0
  9
$SHOWHIST
280
1
  9
$DWFFRAME
280
2
  9
$DGNFRAME
280
2
  9
$REALWORLDSCALE
290
1
  9
$INTERFERECOLOR
 62
256
  9
$CSHADOW
280
0
  9
$SHADOWPLANELOCATION
 40
0.0
  0
ENDSEC
  0
SECTION
  2
CLASSES
  0
CLASS
  1
ACDBDICTIONARYWDFLT
  2
AcDbDictionaryWithDefault
  3
ObjectDBX Classes
 90
0
 91
0
280
0
281
0
  0
CLASS
  1
SUN
  2
AcDbSun
  3
SCENEOE
 90
1153
 91
0
280
0
281
0
  0
CLASS
  1
VISUALSTYLE
  2
AcDbVisualStyle
  3
ObjectDBX Classes
 90
4095
 91
0
280
0
281
0
  0
CLASS
  1
MATERIAL
  2
AcDbMaterial
  3
ObjectDBX Classes
 90
1153
 91
0
280
0
281
0
  0
CLASS
  1
SCALE
  2
AcDbScale
  3
ObjectDBX Classes
 90
1153
 91
0
280
0
281
0
  0
CLASS
  1
TABLESTYLE
  2
AcDbTableStyle
  3
ObjectDBX Classes
 90
4095
 91
0
280
0
281
0
  0
CLASS
  1
MLEADERSTYLE
  2
AcDbMLeaderStyle
  3
ACDB_MLEADERSTYLE_CLASS
 90
4095
 91
0
280
0
281
0
  0
CLASS
  1
DICTIONARYVAR
  2
AcDbDictionaryVar
  3
ObjectDBX Classes
 90
0
 91
0
280
0
281
0
  0
CLASS
  1
CELLSTYLEMAP
  2
AcDbCellStyleMap
  3
ObjectDBX Classes
 90
1152
 91
0
280
0
281
0
  0
CLASS
  1
MENTALRAYRENDERSETTINGS
  2
AcDbMentalRayRenderSettings
  3
SCENEOE
 90
1024
 91
0
280
0
281
0
  0
CLASS
  1
ACDBDETAILVIEWSTYLE
  2
AcDbDetailViewStyle
  3
ObjectDBX Classes
 90
1025
 91
0
280
0
281
0
  0
CLASS
  1
ACDBSECTIONVIEWSTYLE
  2
AcDbSectionViewStyle
  3
ObjectDBX Classes
 90
1025
 91
0
280
0
281
0
  0
CLASS
  1
RASTERVARIABLES
  2
AcDbRasterVariables
  3
ISM
 90
0
 91
0
280
0
281
0
  0
CLASS
  1
LAYOUT
  2
AcDbLayout
  3
ObjectDBX Classes
 90
0
 91
0
280
0
281
0
  0
CLASS
  1
ACDBPLACEHOLDER
  2
AcDbPlaceHolder
  3
ObjectDBX Classes
 90
0
 91
0
280
0
281
0
  0
ENDSEC
  0
SECTION
  2
TABLES
  0
TABLE
  2
VPORT
  5
8
330
0
100
AcDbSymbolTable
 70
1
  0
VPORT
  5
23
330
8
100
AcDbSymbolTableRecord
100
AcDbViewportTableRecord
  2
*Active
 70
0
 10
0.0
 20
0.0
 11
1.0
 21
1.0
 12
0.0
 22
0.0
 13
0.0
 23
0.0
 14
0.5
 24
0.5
 15
0.5
 25
0.5
 16
0.0
 26
0.0
 36
1.0
 17
0.0
 27
0.0
 37
0.0
 40
1000.0
 41
1.34
 42
50.0
 43
0.0
 44
0.0
 50
0.0
 51
0.0
 71
0
 72
1000
 73
1
 74
3
 75
0
 76
0
 77
0
 78
0
281
0
 65
0
146
0.0
  0
ENDTAB
  0
TABLE
  2
LTYPE
  5
2
330
0
100
AcDbSymbolTable
 70
3
  0
LTYPE
  5
24
330
2
100
AcDbSymbolTableRecord
100
AcDbLinetypeTableRecord
  2
ByBlock
 70
0
  3

 72
65
 73
0
 40
0.0
  0
LTYPE
  5
25
330
2
100
AcDbSymbolTableRecord
100
AcDbLinetypeTableRecord
  2
ByLayer
 70
0
  3

 72
65
 73
0
 40
0.0
  0
LTYPE
  5
26
330
2
100
AcDbSymbolTableRecord
100
AcDbLinetypeTableRecord
  2
Continuous
 70
0
  3

 72
65
 73
0
 40
0.0
  0
ENDTAB
  0
TABLE
  2
LAYER
  5
1
330
0
100
AcDbSymbolTable
 70
6
  0
LAYER
  5
27
330
1
100
AcDbSymbolTableRecord
100
AcDbLayerTableRecord
  2
0
 70
0
 62
7
  6
Continuous
370
-3
390
13
347
21
  0
LAYER
  5
28
330
1
100
AcDbSymbolTableRecord
100
AcDbLayerTableRecord
  2
Defpoints
 70
0
 62
7
  6
Continuous
290
0
370
-3
390
13
347
21
  0
LAYER
  5
2F
330
1
100
AcDbSymbolTableRecord
100
AcDbLayerTableRecord
  2
Paineis
 70
0
 62
7
  6
Continuous
370
-3
390
13
347
21
  0
LAYER
  5
30
330
1
100
AcDbSymbolTableRecord
100
AcDbLayerTableRecord
  2
Texto Seção
 70
0
 62
7
  6
Continuous
370
-3
390
13
347
21
  0
LAYER
  5
31
330
1
100
AcDbSymbolTableRecord
100
AcDbLayerTableRecord
  2
Cota Seção (2x)
 70
0
 62
7
  6
Continuous
370
-3
390
13
347
21
  0
LAYER
  5
32
330
1
100
AcDbSymbolTableRecord
100
AcDbLayerTableRecord
  2
HACHURA
 70
0
 62
7
  6
Continuous
370
-3
390
13
347
21
  0
ENDTAB
  0
TABLE
  2
STYLE
  5
5
330
0
100
AcDbSymbolTable
 70
1
  0
STYLE
  5
29
330
5
100
AcDbSymbolTableRecord
100
AcDbTextStyleTableRecord
  2
Standard
 70
0
 40
0.0
 41
1.0
 50
0.0
 71
0
 42
2.5
  3
txt
  4

  0
ENDTAB
  0
TABLE
  2
VIEW
  5
7
330
0
100
AcDbSymbolTable
 70
0
  0
ENDTAB
  0
TABLE
  2
UCS
  5
6
330
0
100
AcDbSymbolTable
 70
0
  0
ENDTAB
  0
TABLE
  2
APPID
  5
3
330
0
100
AcDbSymbolTable
 70
3
  0
APPID
  5
2A
330
3
100
AcDbSymbolTableRecord
100
AcDbRegAppTableRecord
  2
ACAD
 70
0
  0
APPID
  5
3C9
330
3
100
AcDbSymbolTableRecord
100
AcDbRegAppTableRecord
  2
HATCHBACKGROUNDCOLOR
 70
0
  0
APPID
  5
3CA
330
3
100
AcDbSymbolTableRecord
100
AcDbRegAppTableRecord
  2
EZDXF
 70
0
  0
ENDTAB
  0
TABLE
  2
DIMSTYLE
  5
4
330
0
100
AcDbSymbolTable
 70
1
100
AcDbDimStyleTable
  0
DIMSTYLE
105
2B
330
4
100
AcDbSymbolTableRecord
100
AcDbDimStyleTableRecord
  2
Standard
 70
0
 40
1.0
 41
2.5
 42
0.625
 43
3.75
 44
1.25
 45
0.0
 46
0.0
 47
0.0
 48
0.0
 49
2.5
140
2.5
141
2.5
142
0.0
143
0.03937007874
144
1.0
145
0.0
146
1.0
147
0.625
148
0.0
 69
0
 70
0
 71
0
 72
0
 73
0
 74
0
 75
0
 76
0
 77
1
 78
8
 79
3
170
0
171
3
172
1
173
0
174
0
175
0
176
0
177
0
178
0
179
2
271
2
272
2
273
2
274
3
275
0
276
0
277
2
278
44
279
0
280
0
281
0
282
0
283
0
284
8
285
0
286
0
288
0
289
3
290
0
371
-2
372
-2
  0
ENDTAB
  0
TABLE
  2
BLOCK_RECORD
  5
9
330
0
100
AcDbSymbolTable
 70
2
  0
BLOCK_RECORD
  5
17
330
9
100
AcDbSymbolTableRecord
100
AcDbBlockTableRecord
  2
*Model_Space
340
1A
 70
0
280
1
281
0
  0
BLOCK_RECORD
  5
1B
330
9
100
AcDbSymbolTableRecord
100
AcDbBlockTableRecord
  2
*Paper_Space
340
1E
 70
0
280
1
281
0
  0
ENDTAB
  0
ENDSEC
  0
SECTION
  2
BLOCKS
  0
BLOCK
  5
18
330
17
100
AcDbEntity
  8
0
100
AcDbBlockBegin
  2
*Model_Space
 70
0
 10
0.0
 20
0.0
 30
0.0
  3
*Model_Space
  1

  0
ENDBLK
  5
19
330
17
100
AcDbEntity
  8
0
100
AcDbBlockEnd
  0
BLOCK
  5
1C
330
1B
100
AcDbEntity
  8
0
100
AcDbBlockBegin
  2
*Paper_Space
 70
0
 10
0.0
 20
0.0
 30
0.0
  3
*Paper_Space
  1

  0
ENDBLK
  5
1D
330
1B
100
AcDbEntity
  8
0
100
AcDbBlockEnd
  0
ENDSEC
  0
SECTION
  2
ENTITIES
  0
LWPOLYLINE
  5
33
330
17
100
AcDbEntity
  8
Paineis
100
AcDbPolyline
 90
4
 70
1
 10
1438.44
 20
2714.91
 10
1504.44
 20
2714.91
 10
1504.44
 20
2716.91
 10
1438.44
 20
2716.91
  0
LWPOLYLINE
  5
34
330
17
100
AcDbEntity
  8
Paineis
100
AcDbPolyline
 90
4
 70
1
 10
1438.44
 20
2716.91
 10
1504.44
 20
2716.91
 10
1504.44
 20
2960.91
 10
1438.44
 20
2960.91
  0
LWPOLYLINE
  5
35
330
17
100
AcDbEntity
  8
Paineis
100
AcDbPolyline
 90
4
 70
1
 10
1438.44
 20
2960.91
 10
1504.44
 20
2960.91
 10
1504.44
 20
2994.91
 10
1438.44
 20
2994.91
  0
MTEXT
  5
36
330
17
100
AcDbEntity
  8
Texto Secao
100
AcDbMText
 10
1471.44
 20
2699.91
 30
0.0
 40
10.0
 71
1
  1
P1.A
  0
LWPOLYLINE
  5
37
330
17
100
AcDbEntity
  8
Paineis
100
AcDbPolyline
 90
4
 70
1
 10
1534.44
 20
2714.91
 10
1553.44
 20
2714.91
 10
1553.44
 20
2716.91
 10
1534.44
 20
2716.91
  0
LWPOLYLINE
  5
38
330
17
100
AcDbEntity
  8
Paineis
100
AcDbPolyline
 90
4
 70
1
 10
1534.44
 20
2716.91
 10
1553.44
 20
2716.91
 10
1553.44
 20
2960.91
 10
1534.44
 20
2960.91
  0
LWPOLYLINE
  5
39
330
17
100
AcDbEntity
  8
Paineis
100
AcDbPolyline
 90
4
 70
1
 10
1534.44
 20
2960.91
 10
1553.44
 20
2960.91
 10
1553.44
 20
2994.91
 10
1534.44
 20
2994.91
  0
MTEXT
  5
3A
330
17
100
AcDbEntity
  8
Texto Secao
100
AcDbMText
 10
1543.94
 20
2699.91
 30
0.0
 40
10.0
 71
1
  1
P1.B
  0
LWPOLYLINE
  5
3B
330
17
100
AcDbEntity
  8
Paineis
100
AcDbPolyline
 90
4
 70
1
 10
1583.44
 20
2714.91
 10
1649.44
 20
2714.91
 10
1649.44
 20
2716.91
 10
1583.44
 20
2716.91
  0
LWPOLYLINE
  5
3C
330
17
100
AcDbEntity
  8
Paineis
100
AcDbPolyline
 90
4
 70
1
 10
1583.44
 20
2716.91
 10
1649.44
 20
2716.91
 10
1649.44
 20
2960.91
 10
1583.44
 20
2960.91
  0
LWPOLYLINE
  5
3D
330
17
100
AcDbEntity
  8
Paineis
100
AcDbPolyline
 90
4
 70
1
 10
1583.44
 20
2960.91
 10
1649.44
 20
2960.91
 10
1649.44
 20
2994.91
 10
1583.44
 20
2994.91
  0
MTEXT
  5
3E
330
17
100
AcDbEntity
  8
Texto Secao
100
AcDbMText
 10
1616.44
 20
2699.91
 30
0.0
 40
10.0
 71
1
  1
P1.C
  0
LWPOLYLINE
  5
3F
330
17
100
AcDbEntity
  8
Paineis
100
AcDbPolyline
 90
4
 70
1
 10
1679.44
 20
2714.91
 10
1698.44
 20
2714.91
 10
1698.44
 20
2716.91
 10
1679.44
 20
2716.91
  0
LWPOLYLINE
  5
40
330
17
100
AcDbEntity
  8
Paineis
100
AcDbPolyline
 90
4
 70
1
 10
1679.44
 20
2716.91
 10
1698.44
 20
2716.91
 10
1698.44
 20
2960.91
 10
1679.44
 20
2960.91
  0
LWPOLYLINE
  5
41
330
17
100
AcDbEntity
  8
Paineis
100
AcDbPolyline
 90
4
 70
1
 10
1679.44
 20
2960.91
 10
1698.44
 20
2960.91
 10
1698.44
 20
2994.91
 10
1679.44
 20
2994.91
  0
MTEXT
  5
42
330
17
100
AcDbEntity
  8
Texto Secao
100
AcDbMText
 10
1688.94
 20
2699.91
 30
0.0
 40
10.0
 71
1
  1
P1.D
  0
MTEXT
  5
43
330
17
100
AcDbEntity
  8
Cota Secao (2x)
100
AcDbMText
 10
1438.44
 20
3049.91
 30
0.0
 40
8.0
 71
1
  1
B=19cm  H=66cm
  0
MTEXT
  5
44
330
17
100
AcDbEntity
  8
NOMENCLATURA
100
AcDbMText
 10
1438.44
 20
3044.91
 30
0.0
 40
10.0
 71
1
  1
12 PAV - P1
  0
LWPOLYLINE
  5
45
330
17
100
AcDbEntity
  8
Paineis
100
AcDbPolyline
 90
4
 70
1
 10
2179.16
 20
2515.06
 10
2245.16
 20
2515.06
 10
2245.16
 20
2517.06
 10
2179.16
 20
2517.06
  0
LWPOLYLINE
  5
46
330
17
100
AcDbEntity
  8
Paineis
100
AcDbPolyline
 90
4
 70
1
 10
2179.16
 20
2517.06
 10
2245.16
 20
2517.06
 10
2245.16
 20
2761.06
 10
2179.16
 20
2761.06
  0
LWPOLYLINE
  5
47
330
17
100
AcDbEntity
  8
Paineis
100
AcDbPolyline
 90
4
 70
1
 10
2179.16
 20
2761.06
 10
2245.16
 20
2761.06
 10
2245.16
 20
2795.06
 10
2179.16
 20
2795.06
  0
MTEXT
  5
48
330
17
100
AcDbEntity
  8
Texto Secao
100
AcDbMText
 10
2212.16
 20
2500.06
 30
0.0
 40
10.0
 71
1
  1
P2.A
  0
LWPOLYLINE
  5
49
330
17
100
AcDbEntity
  8
Paineis
100
AcDbPolyline
 90
4
 70
1
 10
2275.16
 20
2515.06
 10
2294.16
 20
2515.06
 10
2294.16
 20
2517.06
 10
2275.16
 20
2517.06
  0
LWPOLYLINE
  5
4A
330
17
100
AcDbEntity
  8
Paineis
100
AcDbPolyline
 90
4
 70
1
 10
2275.16
 20
2517.06
 10
2294.16
 20
2517.06
 10
2294.16
 20
2761.06
 10
2275.16
 20
2761.06
  0
LWPOLYLINE
  5
4B
330
17
100
AcDbEntity
  8
Paineis
100
AcDbPolyline
 90
4
 70
1
 10
2275.16
 20
2761.06
 10
2294.16
 20
2761.06
 10
2294.16
 20
2795.06
 10
2275.16
 20
2795.06
  0
MTEXT
  5
4C
330
17
100
AcDbEntity
  8
Texto Secao
100
AcDbMText
 10
2284.66
 20
2500.06
 30
0.0
 40
10.0
 71
1
  1
P2.B
  0
LWPOLYLINE
  5
4D
330
17
100
AcDbEntity
  8
Paineis
100
AcDbPolyline
 90
4
 70
1
 10
2324.16
 20
2515.06
 10
2390.16
 20
2515.06
 10
2390.16
 20
2517.06
 10
2324.16
 20
2517.06
  0
LWPOLYLINE
  5
4E
330
17
100
AcDbEntity
  8
Paineis
100
AcDbPolyline
 90
4
 70
1
 10
2324.16
 20
2517.06
 10
2390.16
 20
2517.06
 10
2390.16
 20
2761.06
 10
2324.16
 20
2761.06
  0
LWPOLYLINE
  5
4F
330
17
100
AcDbEntity
  8
Paineis
100
AcDbPolyline
 90
4
 70
1
 10
2324.16
 20
2761.06
 10
2390.16
 20
2761.06
 10
2390.16
 20
2795.06
 10
2324.16
 20
2795.06
  0
MTEXT
  5
50
330
17
100
AcDbEntity
  8
Texto Secao
100
AcDbMText
 10
2357.16
 20
2500.06
 30
0.0
 40
10.0
 71
1
  1
P2.C
  0
LWPOLYLINE
  5
51
330
17
100
AcDbEntity
  8
Paineis
100
AcDbPolyline
 90
4
 70
1
 10
2420.16
 20
2515.06
 10
2439.16
 20
2515.06
 10
2439.16
 20
2517.06
 10
2420.16
 20
2517.06
  0
LWPOLYLINE
  5
52
330
17
100
AcDbEntity
  8
Paineis
100
AcDbPolyline
 90
4
 70
1
 10
2420.16
 20
2517.06
 10
2439.16
 20
2517.06
 10
2439.16
 20
2761.06
 10
2420.16
 20
2761.06
  0
LWPOLYLINE
  5
53
330
17
100
AcDbEntity
  8
Paineis
100
AcDbPolyline
 90
4
 70
1
 10
2420.16
 20
2761.06
 10
2439.16
 20
2761.06
 10
2439.16
 20
2795.06
 10
2420.16
 20
2795.06
  0
MTEXT
  5
54
330
17
100
AcDbEntity
  8
Texto Secao
100
AcDbMText
 10
2429.66
 20
2500.06
 30
0.0
 40
10.0
 71
1
  1
P2.D
  0
MTEXT
  5
55
330
17
100
AcDbEntity
  8
Cota Secao (2x)
100
AcDbMText
 10
2179.16
 20
2850.06
 30
0.0
 40
8.0
 71
1
  1
B=19cm  H=66cm
  0
MTEXT
  5
56
330
17
100
AcDbEntity
  8
NOMENCLATURA
100
AcDbMText
 10
2179.16
 20
2845.06
 30
0.0
 40
10.0
 71
1
  1
12 PAV - P2
  0
LWPOLYLINE
  5
57
330
17
100
AcDbEntity
  8
Paineis
100
AcDbPolyline
 90
4
 70
1
 10
2482.28
 20
2774.92
 10
2548.28
 20
2774.92
 10
2548.28
 20
2776.92
 10
2482.28
 20
2776.92
  0
LWPOLYLINE
  5
58
330
17
100
AcDbEntity
  8
Paineis
100
AcDbPolyline
 90
4
 70
1
 10
2482.28
 20
2776.92
 10
2548.28
 20
2776.92
 10
2548.28
 20
3020.92
 10
2482.28
 20
3020.92
  0
LWPOLYLINE
  5
59
330
17
100
AcDbEntity
  8
Paineis
100
AcDbPolyline
 90
4
 70
1
 10
2482.28
 20
3020.92
 10
2548.28
 20
3020.92
 10
2548.28
 20
3054.92
 10
2482.28
 20
3054.92
  0
MTEXT
  5
5A
330
17
100
AcDbEntity
  8
Texto Secao
100
AcDbMText
 10
2515.28
 20
2759.92
 30
0.0
 40
10.0
 71
1
  1
P3.A
  0
LWPOLYLINE
  5
5B
330
17
100
AcDbEntity
  8
Paineis
100
AcDbPolyline
 90
4
 70
1
 10
2578.28
 20
2774.92
 10
2597.28
 20
2774.92
 10
2597.28
 20
2776.92
 10
2578.28
 20
2776.92
  0
LWPOLYLINE
  5
5C
330
17
100
AcDbEntity
  8
Paineis
100
AcDbPolyline
 90
4
 70
1
 10
2578.28
 20
2776.92
 10
2597.28
 20
2776.92
 10
2597.28
 20
3020.92
 10
2578.28
 20
3020.92
  0
LWPOLYLINE
  5
5D
330
17
100
AcDbEntity
  8
Paineis
100
AcDbPolyline
 90
4
 70
1
 10
2578.28
 20
3020.92
 10
2597.28
 20
3020.92
 10
2597.28
 20
3054.92
 10
2578.28
 20
3054.92
  0
MTEXT
  5
5E
330
17
100
AcDbEntity
  8
Texto Secao
100
AcDbMText
 10
2587.78
 20
2759.92
 30
0.0
 40
10.0
 71
1
  1
P3.B
  0
LWPOLYLINE
  5
5F
330
17
100
AcDbEntity
  8
Paineis
100
AcDbPolyline
 90
4
 70
1
 10
2627.28
 20
2774.92
 10
2693.28
 20
2774.92
 10
2693.28
 20
2776.92
 10
2627.28
 20
2776.92
  0
LWPOLYLINE
  5
60
330
17
100
AcDbEntity
  8
Paineis
100
AcDbPolyline
 90
4
 70
1
 10
2627.28
 20
2776.92
 10
2693.28
 20
2776.92
 10
2693.28
 20
3020.92
 10
2627.28
 20
3020.92
  0
LWPOLYLINE
  5
61
330
17
100
AcDbEntity
  8
Paineis
100
AcDbPolyline
 90
4
 70
1
 10
2627.28
 20
3020.92
 10
2693.28
 20
3020.92
 10
2693.28
 20
3054.92
 10
2627.28
 20
3054.92
  0
MTEXT
  5
62
330
17
100
AcDbEntity
  8
Texto Secao
100
AcDbMText
 10
2660.28
 20
2759.92
 30
0.0
 40
10.0
 71
1
  1
P3.C
  0
LWPOLYLINE
  5
63
330
17
100
AcDbEntity
  8
Paineis
100
AcDbPolyline
 90
4
 70
1
 10
2723.28
 20
2774.92
 10
2742.28
 20
2774.92
 10
2742.28
 20
2776.92
 10
2723.28
 20
2776.92
  0
LWPOLYLINE
  5
64
330
17
100
AcDbEntity
  8
Paineis
100
AcDbPolyline
 90
4
 70
1
 10
2723.28
 20
2776.92
 10
2742.28
 20
2776.92
 10
2742.28
 20
3020.92
 10
2723.28
 20
3020.92
  0
LWPOLYLINE
  5
65
330
17
100
AcDbEntity
  8
Paineis
100
AcDbPolyline
 90
4
 70
1
 10
2723.28
 20
3020.92
 10
2742.28
 20
3020.92
 10
2742.28
 20
3054.92
 10
2723.28
 20
3054.92
  0
MTEXT
  5
66
330
17
100
AcDbEntity
  8
Texto Secao
100
AcDbMText
 10
2732.78
 20
2759.92
 30
0.0
 40
10.0
 71
1
  1
P3.D
  0
MTEXT
  5
67
330
17
100
AcDbEntity
  8
Cota Secao (2x)
100
AcDbMText
 10
2482.28
 20
3109.92
 30
0.0
 40
8.0
 71
1
  1
B=19cm  H=66cm
  0
MTEXT
  5
68
330
17
100
AcDbEntity
  8
NOMENCLATURA
100
AcDbMText
 10
2482.28
 20
3104.92
 30
0.0
 40
10.0
 71
1
  1
12 PAV - P3
  0
LWPOLYLINE
  5
69
330
17
100
AcDbEntity
  8
Paineis
100
AcDbPolyline
 90
4
 70
1
 10
2917.19
 20
2774.89
 10
2983.19
 20
2774.89
 10
2983.19
 20
2776.89
 10
2917.19
 20
2776.89
  0
LWPOLYLINE
  5
6A
330
17
100
AcDbEntity
  8
Paineis
100
AcDbPolyline
 90
4
 70
1
 10
2917.19
 20
2776.89
 10
2983.19
 20
2776.89
 10
2983.19
 20
3020.89
 10
2917.19
 20
3020.89
  0
LWPOLYLINE
  5
6B
330
17
100
AcDbEntity
  8
Paineis
100
AcDbPolyline
 90
4
 70
1
 10
2917.19
 20
3020.89
 10
2983.19
 20
3020.89
 10
2983.19
 20
3054.89
 10
2917.19
 20
3054.89
  0
MTEXT
  5
6C
330
17
100
AcDbEntity
  8
Texto Secao
100
AcDbMText
 10
2950.19
 20
2759.89
 30
0.0
 40
10.0
 71
1
  1
P4.A
  0
LWPOLYLINE
  5
6D
330
17
100
AcDbEntity
  8
Paineis
100
AcDbPolyline
 90
4
 70
1
 10
3013.19
 20
2774.89
 10
3032.19
 20
2774.89
 10
3032.19
 20
2776.89
 10
3013.19
 20
2776.89
  0
LWPOLYLINE
  5
6E
330
17
100
AcDbEntity
  8
Paineis
100
AcDbPolyline
 90
4
 70
1
 10
3013.19
 20
2776.89
 10
3032.19
 20
2776.89
 10
3032.19
 20
3020.89
 10
3013.19
 20
3020.89
  0
LWPOLYLINE
  5
6F
330
17
100
AcDbEntity
  8
Paineis
100
AcDbPolyline
 90
4
 70
1
 10
3013.19
 20
3020.89
 10
3032.19
 20
3020.89
 10
3032.19
 20
3054.89
 10
3013.19
 20
3054.89
  0
MTEXT
  5
70
330
17
100
AcDbEntity
  8
Texto Secao
100
AcDbMText
 10
3022.69
 20
2759.89
 30
0.0
 40
10.0
 71
1
  1
P4.B
  0
LWPOLYLINE
  5
71
330
17
100
AcDbEntity
  8
Paineis
100
AcDbPolyline
 90
4
 70
1
 10
3062.19
 20
2774.89
 10
3128.19
 20
2774.89
 10
3128.19
 20
2776.89
 10
3062.19
 20
2776.89
  0
LWPOLYLINE
  5
72
330
17
100
AcDbEntity
  8
Paineis
100
AcDbPolyline
 90
4
 70
1
 10
3062.19
 20
2776.89
 10
3128.19
 20
2776.89
 10
3128.19
 20
3020.89
 10
3062.19
 20
3020.89
  0
LWPOLYLINE
  5
73
330
17
100
AcDbEntity
  8
Paineis
100
AcDbPolyline
 90
4
 70
1
 10
3062.19
 20
3020.89
 10
3128.19
 20
3020.89
 10
3128.19
 20
3054.89
 10
3062.19
 20
3054.89
  0
MTEXT
  5
74
330
17
100
AcDbEntity
  8
Texto Secao
100
AcDbMText
 10
3095.19
 20
2759.89
 30
0.0
 40
10.0
 71
1
  1
P4.C
  0
LWPOLYLINE
  5
75
330
17
100
AcDbEntity
  8
Paineis
100
AcDbPolyline
 90
4
 70
1
 10
3158.19
 20
2774.89
 10
3177.19
 20
2774.89
 10
3177.19
 20
2776.89
 10
3158.19
 20
2776.89
  0
LWPOLYLINE
  5
76
330
17
100
AcDbEntity
  8
Paineis
100
AcDbPolyline
 90
4
 70
1
 10
3158.19
 20
2776.89
 10
3177.19
 20
2776.89
 10
3177.19
 20
3020.89
 10
3158.19
 20
3020.89
  0
LWPOLYLINE
  5
77
330
17
100
AcDbEntity
  8
Paineis
100
AcDbPolyline
 90
4
 70
1
 10
3158.19
 20
3020.89
 10
3177.19
 20
3020.89
 10
3177.19
 20
3054.89
 10
3158.19
 20
3054.89
  0
MTEXT
  5
78
330
17
100
AcDbEntity
  8
Texto Secao
100
AcDbMText
 10
3167.69
 20
2759.89
 30
0.0
 40
10.0
 71
1
  1
P4.D
  0
MTEXT
  5
79
330
17
100
AcDbEntity
  8
Cota Secao (2x)
100
AcDbMText
 10
2917.19
 20
3109.89
 30
0.0
 40
8.0
 71
1
  1
B=19cm  H=66cm
  0
MTEXT
  5
7A
330
17
100
AcDbEntity
  8
NOMENCLATURA
100
AcDbMText
 10
2917.19
 20
3104.89
 30
0.0
 40
10.0
 71
1
  1
12 PAV - P4
  0
LWPOLYLINE
  5
7B
330
17
100
AcDbEntity
  8
Paineis
100
AcDbPolyline
 90
4
 70
1
 10
3357.56
 20
2774.78
 10
3423.56
 20
2774.78
 10
3423.56
 20
2776.78
 10
3357.56
 20
2776.78
  0
LWPOLYLINE
  5
7C
330
17
100
AcDbEntity
  8
Paineis
100
AcDbPolyline
 90
4
 70
1
 10
3357.56
 20
2776.78
 10
3423.56
 20
2776.78
 10
3423.56
 20
3020.78
 10
3357.56
 20
3020.78
  0
LWPOLYLINE
  5
7D
330
17
100
AcDbEntity
  8
Paineis
100
AcDbPolyline
 90
4
 70
1
 10
3357.56
 20
3020.78
 10
3423.56
 20
3020.78
 10
3423.56
 20
3054.78
 10
3357.56
 20
3054.78
  0
MTEXT
  5
7E
330
17
100
AcDbEntity
  8
Texto Secao
100
AcDbMText
 10
3390.56
 20
2759.78
 30
0.0
 40
10.0
 71
1
  1
P5.A
  0
LWPOLYLINE
  5
7F
330
17
100
AcDbEntity
  8
Paineis
100
AcDbPolyline
 90
4
 70
1
 10
3453.56
 20
2774.78
 10
3472.56
 20
2774.78
 10
3472.56
 20
2776.78
 10
3453.56
 20
2776.78
  0
LWPOLYLINE
  5
80
330
17
100
AcDbEntity
  8
Paineis
100
AcDbPolyline
 90
4
 70
1
 10
3453.56
 20
2776.78
 10
3472.56
 20
2776.78
 10
3472.56
 20
3020.78
 10
3453.56
 20
3020.78
  0
LWPOLYLINE
  5
81
330
17
100
AcDbEntity
  8
Paineis
100
AcDbPolyline
 90
4
 70
1
 10
3453.56
 20
3020.78
 10
3472.56
 20
3020.78
 10
3472.56
 20
3054.78
 10
3453.56
 20
3054.78
  0
MTEXT
  5
82
330
17
100
AcDbEntity
  8
Texto Secao
100
AcDbMText
 10
3463.06
 20
2759.78
 30
0.0
 40
10.0
 71
1
  1
P5.B
  0
LWPOLYLINE
  5
83
330
17
100
AcDbEntity
  8
Paineis
100
AcDbPolyline
 90
4
 70
1
 10
3502.56
 20
2774.78
 10
3568.56
 20
2774.78
 10
3568.56
 20
2776.78
 10
3502.56
 20
2776.78
  0
LWPOLYLINE
  5
84
330
17
100
AcDbEntity
  8
Paineis
100
AcDbPolyline
 90
4
 70
1
 10
3502.56
 20
2776.78
 10
3568.56
 20
2776.78
 10
3568.56
 20
3020.78
 10
3502.56
 20
3020.78
  0
LWPOLYLINE
  5
85
330
17
100
AcDbEntity
  8
Paineis
100
AcDbPolyline
 90
4
 70
1
 10
3502.56
 20
3020.78
 10
3568.56
 20
3020.78
 10
3568.56
 20
3054.78
 10
3502.56
 20
3054.78
  0
MTEXT
  5
86
330
17
100
AcDbEntity
  8
Texto Secao
100
AcDbMText
 10
3535.56
 20
2759.78
 30
0.0
 40
10.0
 71
1
  1
P5.C
  0
LWPOLYLINE
  5
87
330
17
100
AcDbEntity
  8
Paineis
100
AcDbPolyline
 90
4
 70
1
 10
3598.56
 20
2774.78
 10
3617.56
 20
2774.78
 10
3617.56
 20
2776.78
 10
3598.56
 20
2776.78
  0
LWPOLYLINE
  5
88
330
17
100
AcDbEntity
  8
Paineis
100
AcDbPolyline
 90
4
 70
1
 10
3598.56
 20
2776.78
 10
3617.56
 20
2776.78
 10
3617.56
 20
3020.78
 10
3598.56
 20
3020.78
  0
LWPOLYLINE
  5
89
330
17
100
AcDbEntity
  8
Paineis
100
AcDbPolyline
 90
4
 70
1
 10
3598.56
 20
3020.78
 10
3617.56
 20
3020.78
 10
3617.56
 20
3054.78
 10
3598.56
 20
3054.78
  0
MTEXT
  5
8A
330
17
100
AcDbEntity
  8
Texto Secao
100
AcDbMText
 10
3608.06
 20
2759.78
 30
0.0
 40
10.0
 71
1
  1
P5.D
  0
MTEXT
  5
8B
330
17
100
AcDbEntity
  8
Cota Secao (2x)
100
AcDbMText
 10
3357.56
 20
3109.78
 30
0.0
 40
8.0
 71
1
  1
B=19cm  H=66cm
  0
MTEXT
  5
8C
330
17
100
AcDbEntity
  8
NOMENCLATURA
100
AcDbMText
 10
3357.56
 20
3104.78
 30
0.0
 40
10.0
 71
1
  1
12 PAV - P5
  0
LWPOLYLINE
  5
8D
330
17
100
AcDbEntity
  8
Paineis
100
AcDbPolyline
 90
4
 70
1
 10
3796.16
 20
2775.91
 10
3862.16
 20
2775.91
 10
3862.16
 20
2777.91
 10
3796.16
 20
2777.91
  0
LWPOLYLINE
  5
8E
330
17
100
AcDbEntity
  8
Paineis
100
AcDbPolyline
 90
4
 70
1
 10
3796.16
 20
2777.91
 10
3862.16
 20
2777.91
 10
3862.16
 20
3021.91
 10
3796.16
 20
3021.91
  0
LWPOLYLINE
  5
8F
330
17
100
AcDbEntity
  8
Paineis
100
AcDbPolyline
 90
4
 70
1
 10
3796.16
 20
3021.91
 10
3862.16
 20
3021.91
 10
3862.16
 20
3055.91
 10
3796.16
 20
3055.91
  0
MTEXT
  5
90
330
17
100
AcDbEntity
  8
Texto Secao
100
AcDbMText
 10
3829.16
 20
2760.91
 30
0.0
 40
10.0
 71
1
  1
P6.A
  0
LWPOLYLINE
  5
91
330
17
100
AcDbEntity
  8
Paineis
100
AcDbPolyline
 90
4
 70
1
 10
3892.16
 20
2775.91
 10
3911.16
 20
2775.91
 10
3911.16
 20
2777.91
 10
3892.16
 20
2777.91
  0
LWPOLYLINE
  5
92
330
17
100
AcDbEntity
  8
Paineis
100
AcDbPolyline
 90
4
 70
1
 10
3892.16
 20
2777.91
 10
3911.16
 20
2777.91
 10
3911.16
 20
3021.91
 10
3892.16
 20
3021.91
  0
LWPOLYLINE
  5
93
330
17
100
AcDbEntity
  8
Paineis
100
AcDbPolyline
 90
4
 70
1
 10
3892.16
 20
3021.91
 10
3911.16
 20
3021.91
 10
3911.16
 20
3055.91
 10
3892.16
 20
3055.91
  0
MTEXT
  5
94
330
17
100
AcDbEntity
  8
Texto Secao
100
AcDbMText
 10
3901.66
 20
2760.91
 30
0.0
 40
10.0
 71
1
  1
P6.B
  0
LWPOLYLINE
  5
95
330
17
100
AcDbEntity
  8
Paineis
100
AcDbPolyline
 90
4
 70
1
 10
3941.16
 20
2775.91
 10
4007.16
 20
2775.91
 10
4007.16
 20
2777.91
 10
3941.16
 20
2777.91
  0
LWPOLYLINE
  5
96
330
17
100
AcDbEntity
  8
Paineis
100
AcDbPolyline
 90
4
 70
1
 10
3941.16
 20
2777.91
 10
4007.16
 20
2777.91
 10
4007.16
 20
3021.91
 10
3941.16
 20
3021.91
  0
LWPOLYLINE
  5
97
330
17
100
AcDbEntity
  8
Paineis
100
AcDbPolyline
 90
4
 70
1
 10
3941.16
 20
3021.91
 10
4007.16
 20
3021.91
 10
4007.16
 20
3055.91
 10
3941.16
 20
3055.91
  0
MTEXT
  5
98
330
17
100
AcDbEntity
  8
Texto Secao
100
AcDbMText
 10
3974.16
 20
2760.91
 30
0.0
 40
10.0
 71
1
  1
P6.C
  0
LWPOLYLINE
  5
99
330
17
100
AcDbEntity
  8
Paineis
100
AcDbPolyline
 90
4
 70
1
 10
4037.16
 20
2775.91
 10
4056.16
 20
2775.91
 10
4056.16
 20
2777.91
 10
4037.16
 20
2777.91
  0
LWPOLYLINE
  5
9A
330
17
100
AcDbEntity
  8
Paineis
100
AcDbPolyline
 90
4
 70
1
 10
4037.16
 20
2777.91
 10
4056.16
 20
2777.91
 10
4056.16
 20
3021.91
 10
4037.16
 20
3021.91
  0
LWPOLYLINE
  5
9B
330
17
100
AcDbEntity
  8
Paineis
100
AcDbPolyline
 90
4
 70
1
 10
4037.16
 20
3021.91
 10
4056.16
 20
3021.91
 10
4056.16
 20
3055.91
 10
4037.16
 20
3055.91
  0
MTEXT
  5
9C
330
17
100
AcDbEntity
  8
Texto Secao
100
AcDbMText
 10
4046.66
 20
2760.91
 30
0.0
 40
10.0
 71
1
  1
P6.D
  0
MTEXT
  5
9D
330
17
100
AcDbEntity
  8
Cota Secao (2x)
100
AcDbMText
 10
3796.16
 20
3110.91
 30
0.0
 40
8.0
 71
1
  1
B=19cm  H=66cm
  0
MTEXT
  5
9E
330
17
100
AcDbEntity
  8
NOMENCLATURA
100
AcDbMText
 10
3796.16
 20
3105.91
 30
0.0
 40
10.0
 71
1
  1
12 PAV - P6
  0
LWPOLYLINE
  5
9F
330
17
100
AcDbEntity
  8
Paineis
100
AcDbPolyline
 90
4
 70
1
 10
4205.72
 20
2756.46
 10
4271.72
 20
2756.46
 10
4271.72
 20
2758.46
 10
4205.72
 20
2758.46
  0
LWPOLYLINE
  5
A0
330
17
100
AcDbEntity
  8
Paineis
100
AcDbPolyline
 90
4
 70
1
 10
4205.72
 20
2758.46
 10
4271.72
 20
2758.46
 10
4271.72
 20
3002.46
 10
4205.72
 20
3002.46
  0
LWPOLYLINE
  5
A1
330
17
100
AcDbEntity
  8
Paineis
100
AcDbPolyline
 90
4
 70
1
 10
4205.72
 20
3002.46
 10
4271.72
 20
3002.46
 10
4271.72
 20
3036.46
 10
4205.72
 20
3036.46
  0
MTEXT
  5
A2
330
17
100
AcDbEntity
  8
Texto Secao
100
AcDbMText
 10
4238.72
 20
2741.46
 30
0.0
 40
10.0
 71
1
  1
P7.A
  0
LWPOLYLINE
  5
A3
330
17
100
AcDbEntity
  8
Paineis
100
AcDbPolyline
 90
4
 70
1
 10
4301.72
 20
2756.46
 10
4320.72
 20
2756.46
 10
4320.72
 20
2758.46
 10
4301.72
 20
2758.46
  0
LWPOLYLINE
  5
A4
330
17
100
AcDbEntity
  8
Paineis
100
AcDbPolyline
 90
4
 70
1
 10
4301.72
 20
2758.46
 10
4320.72
 20
2758.46
 10
4320.72
 20
3002.46
 10
4301.72
 20
3002.46
  0
LWPOLYLINE
  5
A5
330
17
100
AcDbEntity
  8
Paineis
100
AcDbPolyline
 90
4
 70
1
 10
4301.72
 20
3002.46
 10
4320.72
 20
3002.46
 10
4320.72
 20
3036.46
 10
4301.72
 20
3036.46
  0
MTEXT
  5
A6
330
17
100
AcDbEntity
  8
Texto Secao
100
AcDbMText
 10
4311.22
 20
2741.46
 30
0.0
 40
10.0
 71
1
  1
P7.B
  0
LWPOLYLINE
  5
A7
330
17
100
AcDbEntity
  8
Paineis
100
AcDbPolyline
 90
4
 70
1
 10
4350.72
 20
2756.46
 10
4416.72
 20
2756.46
 10
4416.72
 20
2758.46
 10
4350.72
 20
2758.46
  0
LWPOLYLINE
  5
A8
330
17
100
AcDbEntity
  8
Paineis
100
AcDbPolyline
 90
4
 70
1
 10
4350.72
 20
2758.46
 10
4416.72
 20
2758.46
 10
4416.72
 20
3002.46
 10
4350.72
 20
3002.46
  0
LWPOLYLINE
  5
A9
330
17
100
AcDbEntity
  8
Paineis
100
AcDbPolyline
 90
4
 70
1
 10
4350.72
 20
3002.46
 10
4416.72
 20
3002.46
 10
4416.72
 20
3036.46
 10
4350.72
 20
3036.46
  0
MTEXT
  5
AA
330
17
100
AcDbEntity
  8
Texto Secao
100
AcDbMText
 10
4383.72
 20
2741.46
 30
0.0
 40
10.0
 71
1
  1
P7.C
  0
LWPOLYLINE
  5
AB
330
17
100
AcDbEntity
  8
Paineis
100
AcDbPolyline
 90
4
 70
1
 10
4446.72
 20
2756.46
 10
4465.72
 20
2756.46
 10
4465.72
 20
2758.46
 10
4446.72
 20
2758.46
  0
LWPOLYLINE
  5
AC
330
17
100
AcDbEntity
  8
Paineis
100
AcDbPolyline
 90
4
 70
1
 10
4446.72
 20
2758.46
 10
4465.72
 20
2758.46
 10
4465.72
 20
3002.46
 10
4446.72
 20
3002.46
  0
LWPOLYLINE
  5
AD
330
17
100
AcDbEntity
  8
Paineis
100
AcDbPolyline
 90
4
 70
1
 10
4446.72
 20
3002.46
 10
4465.72
 20
3002.46
 10
4465.72
 20
3036.46
 10
4446.72
 20
3036.46
  0
MTEXT
  5
AE
330
17
100
AcDbEntity
  8
Texto Secao
100
AcDbMText
 10
4456.22
 20
2741.46
 30
0.0
 40
10.0
 71
1
  1
P7.D
  0
MTEXT
  5
AF
330
17
100
AcDbEntity
  8
Cota Secao (2x)
100
AcDbMText
 10
4205.72
 20
3091.46
 30
0.0
 40
8.0
 71
1
  1
B=19cm  H=66cm
  0
MTEXT
  5
B0
330
17
100
AcDbEntity
  8
NOMENCLATURA
100
AcDbMText
 10
4205.72
 20
3086.46
 30
0.0
 40
10.0
 71
1
  1
12 PAV - P7
  0
LWPOLYLINE
  5
B1
330
17
100
AcDbEntity
  8
Paineis
100
AcDbPolyline
 90
4
 70
1
 10
4658.69
 20
2770.43
 10
4724.69
 20
2770.43
 10
4724.69
 20
2772.43
 10
4658.69
 20
2772.43
  0
LWPOLYLINE
  5
B2
330
17
100
AcDbEntity
  8
Paineis
100
AcDbPolyline
 90
4
 70
1
 10
4658.69
 20
2772.43
 10
4724.69
 20
2772.43
 10
4724.69
 20
3016.43
 10
4658.69
 20
3016.43
  0
LWPOLYLINE
  5
B3
330
17
100
AcDbEntity
  8
Paineis
100
AcDbPolyline
 90
4
 70
1
 10
4658.69
 20
3016.43
 10
4724.69
 20
3016.43
 10
4724.69
 20
3050.43
 10
4658.69
 20
3050.43
  0
MTEXT
  5
B4
330
17
100
AcDbEntity
  8
Texto Secao
100
AcDbMText
 10
4691.69
 20
2755.43
 30
0.0
 40
10.0
 71
1
  1
P8.A
  0
LWPOLYLINE
  5
B5
330
17
100
AcDbEntity
  8
Paineis
100
AcDbPolyline
 90
4
 70
1
 10
4754.69
 20
2770.43
 10
4773.69
 20
2770.43
 10
4773.69
 20
2772.43
 10
4754.69
 20
2772.43
  0
LWPOLYLINE
  5
B6
330
17
100
AcDbEntity
  8
Paineis
100
AcDbPolyline
 90
4
 70
1
 10
4754.69
 20
2772.43
 10
4773.69
 20
2772.43
 10
4773.69
 20
3016.43
 10
4754.69
 20
3016.43
  0
LWPOLYLINE
  5
B7
330
17
100
AcDbEntity
  8
Paineis
100
AcDbPolyline
 90
4
 70
1
 10
4754.69
 20
3016.43
 10
4773.69
 20
3016.43
 10
4773.69
 20
3050.43
 10
4754.69
 20
3050.43
  0
MTEXT
  5
B8
330
17
100
AcDbEntity
  8
Texto Secao
100
AcDbMText
 10
4764.19
 20
2755.43
 30
0.0
 40
10.0
 71
1
  1
P8.B
  0
LWPOLYLINE
  5
B9
330
17
100
AcDbEntity
  8
Paineis
100
AcDbPolyline
 90
4
 70
1
 10
4803.69
 20
2770.43
 10
4869.69
 20
2770.43
 10
4869.69
 20
2772.43
 10
4803.69
 20
2772.43
  0
LWPOLYLINE
  5
BA
330
17
100
AcDbEntity
  8
Paineis
100
AcDbPolyline
 90
4
 70
1
 10
4803.69
 20
2772.43
 10
4869.69
 20
2772.43
 10
4869.69
 20
3016.43
 10
4803.69
 20
3016.43
  0
LWPOLYLINE
  5
BB
330
17
100
AcDbEntity
  8
Paineis
100
AcDbPolyline
 90
4
 70
1
 10
4803.69
 20
3016.43
 10
4869.69
 20
3016.43
 10
4869.69
 20
3050.43
 10
4803.69
 20
3050.43
  0
MTEXT
  5
BC
330
17
100
AcDbEntity
  8
Texto Secao
100
AcDbMText
 10
4836.69
 20
2755.43
 30
0.0
 40
10.0
 71
1
  1
P8.C
  0
LWPOLYLINE
  5
BD
330
17
100
AcDbEntity
  8
Paineis
100
AcDbPolyline
 90
4
 70
1
 10
4899.69
 20
2770.43
 10
4918.69
 20
2770.43
 10
4918.69
 20
2772.43
 10
4899.69
 20
2772.43
  0
LWPOLYLINE
  5
BE
330
17
100
AcDbEntity
  8
Paineis
100
AcDbPolyline
 90
4
 70
1
 10
4899.69
 20
2772.43
 10
4918.69
 20
2772.43
 10
4918.69
 20
3016.43
 10
4899.69
 20
3016.43
  0
LWPOLYLINE
  5
BF
330
17
100
AcDbEntity
  8
Paineis
100
AcDbPolyline
 90
4
 70
1
 10
4899.69
 20
3016.43
 10
4918.69
 20
3016.43
 10
4918.69
 20
3050.43
 10
4899.69
 20
3050.43
  0
MTEXT
  5
C0
330
17
100
AcDbEntity
  8
Texto Secao
100
AcDbMText
 10
4909.19
 20
2755.43
 30
0.0
 40
10.0
 71
1
  1
P8.D
  0
MTEXT
  5
C1
330
17
100
AcDbEntity
  8
Cota Secao (2x)
100
AcDbMText
 10
4658.69
 20
3105.43
 30
0.0
 40
8.0
 71
1
  1
B=19cm  H=66cm
  0
MTEXT
  5
C2
330
17
100
AcDbEntity
  8
NOMENCLATURA
100
AcDbMText
 10
4658.69
 20
3100.43
 30
0.0
 40
10.0
 71
1
  1
12 PAV - P8
  0
LWPOLYLINE
  5
C3
330
17
100
AcDbEntity
  8
Paineis
100
AcDbPolyline
 90
4
 70
1
 10
4937.1
 20
2700.61
 10
5041.1
 20
2700.61
 10
5041.1
 20
2702.61
 10
4937.1
 20
2702.61
  0
LWPOLYLINE
  5
C4
330
17
100
AcDbEntity
  8
Paineis
100
AcDbPolyline
 90
4
 70
1
 10
4937.1
 20
2702.61
 10
5041.1
 20
2702.61
 10
5041.1
 20
2946.61
 10
4937.1
 20
2946.61
  0
LWPOLYLINE
  5
C5
330
17
100
AcDbEntity
  8
Paineis
100
AcDbPolyline
 90
4
 70
1
 10
4937.1
 20
2946.61
 10
5041.1
 20
2946.61
 10
5041.1
 20
2980.61
 10
4937.1
 20
2980.61
  0
MTEXT
  5
C6
330
17
100
AcDbEntity
  8
Texto Secao
100
AcDbMText
 10
4989.1
 20
2685.61
 30
0.0
 40
10.0
 71
1
  1
P9.A
  0
LWPOLYLINE
  5
C7
330
17
100
AcDbEntity
  8
Paineis
100
AcDbPolyline
 90
4
 70
1
 10
5071.1
 20
2700.61
 10
5090.1
 20
2700.61
 10
5090.1
 20
2702.61
 10
5071.1
 20
2702.61
  0
LWPOLYLINE
  5
C8
330
17
100
AcDbEntity
  8
Paineis
100
AcDbPolyline
 90
4
 70
1
 10
5071.1
 20
2702.61
 10
5090.1
 20
2702.61
 10
5090.1
 20
2946.61
 10
5071.1
 20
2946.61
  0
LWPOLYLINE
  5
C9
330
17
100
AcDbEntity
  8
Paineis
100
AcDbPolyline
 90
4
 70
1
 10
5071.1
 20
2946.61
 10
5090.1
 20
2946.61
 10
5090.1
 20
2980.61
 10
5071.1
 20
2980.61
  0
MTEXT
  5
CA
330
17
100
AcDbEntity
  8
Texto Secao
100
AcDbMText
 10
5080.6
 20
2685.61
 30
0.0
 40
10.0
 71
1
  1
P9.B
  0
LWPOLYLINE
  5
CB
330
17
100
AcDbEntity
  8
Paineis
100
AcDbPolyline
 90
4
 70
1
 10
5120.1
 20
2700.61
 10
5224.1
 20
2700.61
 10
5224.1
 20
2702.61
 10
5120.1
 20
2702.61
  0
LWPOLYLINE
  5
CC
330
17
100
AcDbEntity
  8
Paineis
100
AcDbPolyline
 90
4
 70
1
 10
5120.1
 20
2702.61
 10
5224.1
 20
2702.61
 10
5224.1
 20
2946.61
 10
5120.1
 20
2946.61
  0
LWPOLYLINE
  5
CD
330
17
100
AcDbEntity
  8
Paineis
100
AcDbPolyline
 90
4
 70
1
 10
5120.1
 20
2946.61
 10
5224.1
 20
2946.61
 10
5224.1
 20
2980.61
 10
5120.1
 20
2980.61
  0
MTEXT
  5
CE
330
17
100
AcDbEntity
  8
Texto Secao
100
AcDbMText
 10
5172.1
 20
2685.61
 30
0.0
 40
10.0
 71
1
  1
P9.C
  0
LWPOLYLINE
  5
CF
330
17
100
AcDbEntity
  8
Paineis
100
AcDbPolyline
 90
4
 70
1
 10
5254.1
 20
2700.61
 10
5273.1
 20
2700.61
 10
5273.1
 20
2702.61
 10
5254.1
 20
2702.61
  0
LWPOLYLINE
  5
D0
330
17
100
AcDbEntity
  8
Paineis
100
AcDbPolyline
 90
4
 70
1
 10
5254.1
 20
2702.61
 10
5273.1
 20
2702.61
 10
5273.1
 20
2946.61
 10
5254.1
 20
2946.61
  0
LWPOLYLINE
  5
D1
330
17
100
AcDbEntity
  8
Paineis
100
AcDbPolyline
 90
4
 70
1
 10
5254.1
 20
2946.61
 10
5273.1
 20
2946.61
 10
5273.1
 20
2980.61
 10
5254.1
 20
2980.61
  0
MTEXT
  5
D2
330
17
100
AcDbEntity
  8
Texto Secao
100
AcDbMText
 10
5263.6
 20
2685.61
 30
0.0
 40
10.0
 71
1
  1
P9.D
  0
MTEXT
  5
D3
330
17
100
AcDbEntity
  8
Cota Secao (2x)
100
AcDbMText
 10
4937.1
 20
3035.61
 30
0.0
 40
8.0
 71
1
  1
B=19cm  H=104cm
  0
MTEXT
  5
D4
330
17
100
AcDbEntity
  8
NOMENCLATURA
100
AcDbMText
 10
4937.1
 20
3030.61
 30
0.0
 40
10.0
 71
1
  1
12 PAV - P9
  0
LWPOLYLINE
  5
D5
330
17
100
AcDbEntity
  8
Paineis
100
AcDbPolyline
 90
4
 70
1
 10
1550.63
 20
2395.32
 10
1610.63
 20
2395.32
 10
1610.63
 20
2397.32
 10
1550.63
 20
2397.32
  0
LWPOLYLINE
  5
D6
330
17
100
AcDbEntity
  8
Paineis
100
AcDbPolyline
 90
4
 70
1
 10
1550.63
 20
2397.32
 10
1610.63
 20
2397.32
 10
1610.63
 20
2641.32
 10
1550.63
 20
2641.32
  0
LWPOLYLINE
  5
D7
330
17
100
AcDbEntity
  8
Paineis
100
AcDbPolyline
 90
4
 70
1
 10
1550.63
 20
2641.32
 10
1610.63
 20
2641.32
 10
1610.63
 20
2675.32
 10
1550.63
 20
2675.32
  0
MTEXT
  5
D8
330
17
100
AcDbEntity
  8
Texto Secao
100
AcDbMText
 10
1580.63
 20
2380.32
 30
0.0
 40
10.0
 71
1
  1
P10.A
  0
LWPOLYLINE
  5
D9
330
17
100
AcDbEntity
  8
Paineis
100
AcDbPolyline
 90
4
 70
1
 10
1640.63
 20
2395.32
 10
1659.63
 20
2395.32
 10
1659.63
 20
2397.32
 10
1640.63
 20
2397.32
  0
LWPOLYLINE
  5
DA
330
17
100
AcDbEntity
  8
Paineis
100
AcDbPolyline
 90
4
 70
1
 10
1640.63
 20
2397.32
 10
1659.63
 20
2397.32
 10
1659.63
 20
2641.32
 10
1640.63
 20
2641.32
  0
LWPOLYLINE
  5
DB
330
17
100
AcDbEntity
  8
Paineis
100
AcDbPolyline
 90
4
 70
1
 10
1640.63
 20
2641.32
 10
1659.63
 20
2641.32
 10
1659.63
 20
2675.32
 10
1640.63
 20
2675.32
  0
MTEXT
  5
DC
330
17
100
AcDbEntity
  8
Texto Secao
100
AcDbMText
 10
1650.13
 20
2380.32
 30
0.0
 40
10.0
 71
1
  1
P10.B
  0
LWPOLYLINE
  5
DD
330
17
100
AcDbEntity
  8
Paineis
100
AcDbPolyline
 90
4
 70
1
 10
1689.63
 20
2395.32
 10
1749.63
 20
2395.32
 10
1749.63
 20
2397.32
 10
1689.63
 20
2397.32
  0
LWPOLYLINE
  5
DE
330
17
100
AcDbEntity
  8
Paineis
100
AcDbPolyline
 90
4
 70
1
 10
1689.63
 20
2397.32
 10
1749.63
 20
2397.32
 10
1749.63
 20
2641.32
 10
1689.63
 20
2641.32
  0
LWPOLYLINE
  5
DF
330
17
100
AcDbEntity
  8
Paineis
100
AcDbPolyline
 90
4
 70
1
 10
1689.63
 20
2641.32
 10
1749.63
 20
2641.32
 10
1749.63
 20
2675.32
 10
1689.63
 20
2675.32
  0
MTEXT
  5
E0
330
17
100
AcDbEntity
  8
Texto Secao
100
AcDbMText
 10
1719.63
 20
2380.32
 30
0.0
 40
10.0
 71
1
  1
P10.C
  0
LWPOLYLINE
  5
E1
330
17
100
AcDbEntity
  8
Paineis
100
AcDbPolyline
 90
4
 70
1
 10
1779.63
 20
2395.32
 10
1798.63
 20
2395.32
 10
1798.63
 20
2397.32
 10
1779.63
 20
2397.32
  0
LWPOLYLINE
  5
E2
330
17
100
AcDbEntity
  8
Paineis
100
AcDbPolyline
 90
4
 70
1
 10
1779.63
 20
2397.32
 10
1798.63
 20
2397.32
 10
1798.63
 20
2641.32
 10
1779.63
 20
2641.32
  0
LWPOLYLINE
  5
E3
330
17
100
AcDbEntity
  8
Paineis
100
AcDbPolyline
 90
4
 70
1
 10
1779.63
 20
2641.32
 10
1798.63
 20
2641.32
 10
1798.63
 20
2675.32
 10
1779.63
 20
2675.32
  0
MTEXT
  5
E4
330
17
100
AcDbEntity
  8
Texto Secao
100
AcDbMText
 10
1789.13
 20
2380.32
 30
0.0
 40
10.0
 71
1
  1
P10.D
  0
MTEXT
  5
E5
330
17
100
AcDbEntity
  8
Cota Secao (2x)
100
AcDbMText
 10
1550.63
 20
2730.32
 30
0.0
 40
8.0
 71
1
  1
B=19cm  H=60cm
  0
MTEXT
  5
E6
330
17
100
AcDbEntity
  8
NOMENCLATURA
100
AcDbMText
 10
1550.63
 20
2725.32
 30
0.0
 40
10.0
 71
1
  1
12 PAV - P10
  0
LWPOLYLINE
  5
E7
330
17
100
AcDbEntity
  8
Paineis
100
AcDbPolyline
 90
4
 70
1
 10
2041.48
 20
2637.16
 10
2121.48
 20
2637.16
 10
2121.48
 20
2639.16
 10
2041.48
 20
2639.16
  0
LWPOLYLINE
  5
E8
330
17
100
AcDbEntity
  8
Paineis
100
AcDbPolyline
 90
4
 70
1
 10
2041.48
 20
2639.16
 10
2121.48
 20
2639.16
 10
2121.48
 20
2883.16
 10
2041.48
 20
2883.16
  0
LWPOLYLINE
  5
E9
330
17
100
AcDbEntity
  8
Paineis
100
AcDbPolyline
 90
4
 70
1
 10
2041.48
 20
2883.16
 10
2121.48
 20
2883.16
 10
2121.48
 20
2917.16
 10
2041.48
 20
2917.16
  0
MTEXT
  5
EA
330
17
100
AcDbEntity
  8
Texto Secao
100
AcDbMText
 10
2081.48
 20
2622.16
 30
0.0
 40
10.0
 71
1
  1
P11.A
  0
LWPOLYLINE
  5
EB
330
17
100
AcDbEntity
  8
Paineis
100
AcDbPolyline
 90
4
 70
1
 10
2151.48
 20
2637.16
 10
2170.48
 20
2637.16
 10
2170.48
 20
2639.16
 10
2151.48
 20
2639.16
  0
LWPOLYLINE
  5
EC
330
17
100
AcDbEntity
  8
Paineis
100
AcDbPolyline
 90
4
 70
1
 10
2151.48
 20
2639.16
 10
2170.48
 20
2639.16
 10
2170.48
 20
2883.16
 10
2151.48
 20
2883.16
  0
LWPOLYLINE
  5
ED
330
17
100
AcDbEntity
  8
Paineis
100
AcDbPolyline
 90
4
 70
1
 10
2151.48
 20
2883.16
 10
2170.48
 20
2883.16
 10
2170.48
 20
2917.16
 10
2151.48
 20
2917.16
  0
MTEXT
  5
EE
330
17
100
AcDbEntity
  8
Texto Secao
100
AcDbMText
 10
2160.98
 20
2622.16
 30
0.0
 40
10.0
 71
1
  1
P11.B
  0
LWPOLYLINE
  5
EF
330
17
100
AcDbEntity
  8
Paineis
100
AcDbPolyline
 90
4
 70
1
 10
2200.48
 20
2637.16
 10
2280.48
 20
2637.16
 10
2280.48
 20
2639.16
 10
2200.48
 20
2639.16
  0
LWPOLYLINE
  5
F0
330
17
100
AcDbEntity
  8
Paineis
100
AcDbPolyline
 90
4
 70
1
 10
2200.48
 20
2639.16
 10
2280.48
 20
2639.16
 10
2280.48
 20
2883.16
 10
2200.48
 20
2883.16
  0
LWPOLYLINE
  5
F1
330
17
100
AcDbEntity
  8
Paineis
100
AcDbPolyline
 90
4
 70
1
 10
2200.48
 20
2883.16
 10
2280.48
 20
2883.16
 10
2280.48
 20
2917.16
 10
2200.48
 20
2917.16
  0
MTEXT
  5
F2
330
17
100
AcDbEntity
  8
Texto Secao
100
AcDbMText
 10
2240.48
 20
2622.16
 30
0.0
 40
10.0
 71
1
  1
P11.C
  0
LWPOLYLINE
  5
F3
330
17
100
AcDbEntity
  8
Paineis
100
AcDbPolyline
 90
4
 70
1
 10
2310.48
 20
2637.16
 10
2329.48
 20
2637.16
 10
2329.48
 20
2639.16
 10
2310.48
 20
2639.16
  0
LWPOLYLINE
  5
F4
330
17
100
AcDbEntity
  8
Paineis
100
AcDbPolyline
 90
4
 70
1
 10
2310.48
 20
2639.16
 10
2329.48
 20
2639.16
 10
2329.48
 20
2883.16
 10
2310.48
 20
2883.16
  0
LWPOLYLINE
  5
F5
330
17
100
AcDbEntity
  8
Paineis
100
AcDbPolyline
 90
4
 70
1
 10
2310.48
 20
2883.16
 10
2329.48
 20
2883.16
 10
2329.48
 20
2917.16
 10
2310.48
 20
2917.16
  0
MTEXT
  5
F6
330
17
100
AcDbEntity
  8
Texto Secao
100
AcDbMText
 10
2319.98
 20
2622.16
 30
0.0
 40
10.0
 71
1
  1
P11.D
  0
MTEXT
  5
F7
330
17
100
AcDbEntity
  8
Cota Secao (2x)
100
AcDbMText
 10
2041.48
 20
2972.16
 30
0.0
 40
8.0
 71
1
  1
B=19cm  H=80cm
  0
MTEXT
  5
F8
330
17
100
AcDbEntity
  8
NOMENCLATURA
100
AcDbMText
 10
2041.48
 20
2967.16
 30
0.0
 40
10.0
 71
1
  1
12 PAV - P11
  0
LWPOLYLINE
  5
F9
330
17
100
AcDbEntity
  8
Paineis
100
AcDbPolyline
 90
4
 70
1
 10
2909.32
 20
2687.03
 10
3007.32
 20
2687.03
 10
3007.32
 20
2689.03
 10
2909.32
 20
2689.03
  0
LWPOLYLINE
  5
FA
330
17
100
AcDbEntity
  8
Paineis
100
AcDbPolyline
 90
4
 70
1
 10
2909.32
 20
2689.03
 10
3007.32
 20
2689.03
 10
3007.32
 20
2933.03
 10
2909.32
 20
2933.03
  0
LWPOLYLINE
  5
FB
330
17
100
AcDbEntity
  8
Paineis
100
AcDbPolyline
 90
4
 70
1
 10
2909.32
 20
2933.03
 10
3007.32
 20
2933.03
 10
3007.32
 20
2967.03
 10
2909.32
 20
2967.03
  0
MTEXT
  5
FC
330
17
100
AcDbEntity
  8
Texto Secao
100
AcDbMText
 10
2958.32
 20
2672.03
 30
0.0
 40
10.0
 71
1
  1
P12.A
  0
LWPOLYLINE
  5
FD
330
17
100
AcDbEntity
  8
Paineis
100
AcDbPolyline
 90
4
 70
1
 10
3037.32
 20
2687.03
 10
3056.32
 20
2687.03
 10
3056.32
 20
2689.03
 10
3037.32
 20
2689.03
  0
LWPOLYLINE
  5
FE
330
17
100
AcDbEntity
  8
Paineis
100
AcDbPolyline
 90
4
 70
1
 10
3037.32
 20
2689.03
 10
3056.32
 20
2689.03
 10
3056.32
 20
2933.03
 10
3037.32
 20
2933.03
  0
LWPOLYLINE
  5
FF
330
17
100
AcDbEntity
  8
Paineis
100
AcDbPolyline
 90
4
 70
1
 10
3037.32
 20
2933.03
 10
3056.32
 20
2933.03
 10
3056.32
 20
2967.03
 10
3037.32
 20
2967.03
  0
MTEXT
  5
100
330
17
100
AcDbEntity
  8
Texto Secao
100
AcDbMText
 10
3046.82
 20
2672.03
 30
0.0
 40
10.0
 71
1
  1
P12.B
  0
LWPOLYLINE
  5
101
330
17
100
AcDbEntity
  8
Paineis
100
AcDbPolyline
 90
4
 70
1
 10
3086.32
 20
2687.03
 10
3184.32
 20
2687.03
 10
3184.32
 20
2689.03
 10
3086.32
 20
2689.03
  0
LWPOLYLINE
  5
102
330
17
100
AcDbEntity
  8
Paineis
100
AcDbPolyline
 90
4
 70
1
 10
3086.32
 20
2689.03
 10
3184.32
 20
2689.03
 10
3184.32
 20
2933.03
 10
3086.32
 20
2933.03
  0
LWPOLYLINE
  5
103
330
17
100
AcDbEntity
  8
Paineis
100
AcDbPolyline
 90
4
 70
1
 10
3086.32
 20
2933.03
 10
3184.32
 20
2933.03
 10
3184.32
 20
2967.03
 10
3086.32
 20
2967.03
  0
MTEXT
  5
104
330
17
100
AcDbEntity
  8
Texto Secao
100
AcDbMText
 10
3135.32
 20
2672.03
 30
0.0
 40
10.0
 71
1
  1
P12.C
  0
LWPOLYLINE
  5
105
330
17
100
AcDbEntity
  8
Paineis
100
AcDbPolyline
 90
4
 70
1
 10
3214.32
 20
2687.03
 10
3233.32
 20
2687.03
 10
3233.32
 20
2689.03
 10
3214.32
 20
2689.03
  0
LWPOLYLINE
  5
106
330
17
100
AcDbEntity
  8
Paineis
100
AcDbPolyline
 90
4
 70
1
 10
3214.32
 20
2689.03
 10
3233.32
 20
2689.03
 10
3233.32
 20
2933.03
 10
3214.32
 20
2933.03
  0
LWPOLYLINE
  5
107
330
17
100
AcDbEntity
  8
Paineis
100
AcDbPolyline
 90
4
 70
1
 10
3214.32
 20
2933.03
 10
3233.32
 20
2933.03
 10
3233.32
 20
2967.03
 10
3214.32
 20
2967.03
  0
MTEXT
  5
108
330
17
100
AcDbEntity
  8
Texto Secao
100
AcDbMText
 10
3223.82
 20
2672.03
 30
0.0
 40
10.0
 71
1
  1
P12.D
  0
MTEXT
  5
109
330
17
100
AcDbEntity
  8
Cota Secao (2x)
100
AcDbMText
 10
2909.32
 20
3022.03
 30
0.0
 40
8.0
 71
1
  1
B=19cm  H=98cm
  0
MTEXT
  5
10A
330
17
100
AcDbEntity
  8
NOMENCLATURA
100
AcDbMText
 10
2909.32
 20
3017.03
 30
0.0
 40
10.0
 71
1
  1
12 PAV - P12
  0
LWPOLYLINE
  5
10B
330
17
100
AcDbEntity
  8
Paineis
100
AcDbPolyline
 90
4
 70
1
 10
2924.58
 20
2682.01
 10
3022.58
 20
2682.01
 10
3022.58
 20
2684.01
 10
2924.58
 20
2684.01
  0
LWPOLYLINE
  5
10C
330
17
100
AcDbEntity
  8
Paineis
100
AcDbPolyline
 90
4
 70
1
 10
2924.58
 20
2684.01
 10
3022.58
 20
2684.01
 10
3022.58
 20
2928.01
 10
2924.58
 20
2928.01
  0
LWPOLYLINE
  5
10D
330
17
100
AcDbEntity
  8
Paineis
100
AcDbPolyline
 90
4
 70
1
 10
2924.58
 20
2928.01
 10
3022.58
 20
2928.01
 10
3022.58
 20
2962.01
 10
2924.58
 20
2962.01
  0
MTEXT
  5
10E
330
17
100
AcDbEntity
  8
Texto Secao
100
AcDbMText
 10
2973.58
 20
2667.01
 30
0.0
 40
10.0
 71
1
  1
P13.A
  0
LWPOLYLINE
  5
10F
330
17
100
AcDbEntity
  8
Paineis
100
AcDbPolyline
 90
4
 70
1
 10
3052.58
 20
2682.01
 10
3071.58
 20
2682.01
 10
3071.58
 20
2684.01
 10
3052.58
 20
2684.01
  0
LWPOLYLINE
  5
110
330
17
100
AcDbEntity
  8
Paineis
100
AcDbPolyline
 90
4
 70
1
 10
3052.58
 20
2684.01
 10
3071.58
 20
2684.01
 10
3071.58
 20
2928.01
 10
3052.58
 20
2928.01
  0
LWPOLYLINE
  5
111
330
17
100
AcDbEntity
  8
Paineis
100
AcDbPolyline
 90
4
 70
1
 10
3052.58
 20
2928.01
 10
3071.58
 20
2928.01
 10
3071.58
 20
2962.01
 10
3052.58
 20
2962.01
  0
MTEXT
  5
112
330
17
100
AcDbEntity
  8
Texto Secao
100
AcDbMText
 10
3062.08
 20
2667.01
 30
0.0
 40
10.0
 71
1
  1
P13.B
  0
LWPOLYLINE
  5
113
330
17
100
AcDbEntity
  8
Paineis
100
AcDbPolyline
 90
4
 70
1
 10
3101.58
 20
2682.01
 10
3199.58
 20
2682.01
 10
3199.58
 20
2684.01
 10
3101.58
 20
2684.01
  0
LWPOLYLINE
  5
114
330
17
100
AcDbEntity
  8
Paineis
100
AcDbPolyline
 90
4
 70
1
 10
3101.58
 20
2684.01
 10
3199.58
 20
2684.01
 10
3199.58
 20
2928.01
 10
3101.58
 20
2928.01
  0
LWPOLYLINE
  5
115
330
17
100
AcDbEntity
  8
Paineis
100
AcDbPolyline
 90
4
 70
1
 10
3101.58
 20
2928.01
 10
3199.58
 20
2928.01
 10
3199.58
 20
2962.01
 10
3101.58
 20
2962.01
  0
MTEXT
  5
116
330
17
100
AcDbEntity
  8
Texto Secao
100
AcDbMText
 10
3150.58
 20
2667.01
 30
0.0
 40
10.0
 71
1
  1
P13.C
  0
LWPOLYLINE
  5
117
330
17
100
AcDbEntity
  8
Paineis
100
AcDbPolyline
 90
4
 70
1
 10
3229.58
 20
2682.01
 10
3248.58
 20
2682.01
 10
3248.58
 20
2684.01
 10
3229.58
 20
2684.01
  0
LWPOLYLINE
  5
118
330
17
100
AcDbEntity
  8
Paineis
100
AcDbPolyline
 90
4
 70
1
 10
3229.58
 20
2684.01
 10
3248.58
 20
2684.01
 10
3248.58
 20
2928.01
 10
3229.58
 20
2928.01
  0
LWPOLYLINE
  5
119
330
17
100
AcDbEntity
  8
Paineis
100
AcDbPolyline
 90
4
 70
1
 10
3229.58
 20
2928.01
 10
3248.58
 20
2928.01
 10
3248.58
 20
2962.01
 10
3229.58
 20
2962.01
  0
MTEXT
  5
11A
330
17
100
AcDbEntity
  8
Texto Secao
100
AcDbMText
 10
3239.08
 20
2667.01
 30
0.0
 40
10.0
 71
1
  1
P13.D
  0
MTEXT
  5
11B
330
17
100
AcDbEntity
  8
Cota Secao (2x)
100
AcDbMText
 10
2924.58
 20
3017.01
 30
0.0
 40
8.0
 71
1
  1
B=19cm  H=98cm
  0
MTEXT
  5
11C
330
17
100
AcDbEntity
  8
NOMENCLATURA
100
AcDbMText
 10
2924.58
 20
3012.01
 30
0.0
 40
10.0
 71
1
  1
12 PAV - P13
  0
LWPOLYLINE
  5
11D
330
17
100
AcDbEntity
  8
Paineis
100
AcDbPolyline
 90
4
 70
1
 10
3363.04
 20
2665.79
 10
3461.04
 20
2665.79
 10
3461.04
 20
2667.79
 10
3363.04
 20
2667.79
  0
LWPOLYLINE
  5
11E
330
17
100
AcDbEntity
  8
Paineis
100
AcDbPolyline
 90
4
 70
1
 10
3363.04
 20
2667.79
 10
3461.04
 20
2667.79
 10
3461.04
 20
2911.79
 10
3363.04
 20
2911.79
  0
LWPOLYLINE
  5
11F
330
17
100
AcDbEntity
  8
Paineis
100
AcDbPolyline
 90
4
 70
1
 10
3363.04
 20
2911.79
 10
3461.04
 20
2911.79
 10
3461.04
 20
2945.79
 10
3363.04
 20
2945.79
  0
MTEXT
  5
120
330
17
100
AcDbEntity
  8
Texto Secao
100
AcDbMText
 10
3412.04
 20
2650.79
 30
0.0
 40
10.0
 71
1
  1
P14.A
  0
LWPOLYLINE
  5
121
330
17
100
AcDbEntity
  8
Paineis
100
AcDbPolyline
 90
4
 70
1
 10
3491.04
 20
2665.79
 10
3510.04
 20
2665.79
 10
3510.04
 20
2667.79
 10
3491.04
 20
2667.79
  0
LWPOLYLINE
  5
122
330
17
100
AcDbEntity
  8
Paineis
100
AcDbPolyline
 90
4
 70
1
 10
3491.04
 20
2667.79
 10
3510.04
 20
2667.79
 10
3510.04
 20
2911.79
 10
3491.04
 20
2911.79
  0
LWPOLYLINE
  5
123
330
17
100
AcDbEntity
  8
Paineis
100
AcDbPolyline
 90
4
 70
1
 10
3491.04
 20
2911.79
 10
3510.04
 20
2911.79
 10
3510.04
 20
2945.79
 10
3491.04
 20
2945.79
  0
MTEXT
  5
124
330
17
100
AcDbEntity
  8
Texto Secao
100
AcDbMText
 10
3500.54
 20
2650.79
 30
0.0
 40
10.0
 71
1
  1
P14.B
  0
LWPOLYLINE
  5
125
330
17
100
AcDbEntity
  8
Paineis
100
AcDbPolyline
 90
4
 70
1
 10
3540.04
 20
2665.79
 10
3638.04
 20
2665.79
 10
3638.04
 20
2667.79
 10
3540.04
 20
2667.79
  0
LWPOLYLINE
  5
126
330
17
100
AcDbEntity
  8
Paineis
100
AcDbPolyline
 90
4
 70
1
 10
3540.04
 20
2667.79
 10
3638.04
 20
2667.79
 10
3638.04
 20
2911.79
 10
3540.04
 20
2911.79
  0
LWPOLYLINE
  5
127
330
17
100
AcDbEntity
  8
Paineis
100
AcDbPolyline
 90
4
 70
1
 10
3540.04
 20
2911.79
 10
3638.04
 20
2911.79
 10
3638.04
 20
2945.79
 10
3540.04
 20
2945.79
  0
MTEXT
  5
128
330
17
100
AcDbEntity
  8
Texto Secao
100
AcDbMText
 10
3589.04
 20
2650.79
 30
0.0
 40
10.0
 71
1
  1
P14.C
  0
LWPOLYLINE
  5
129
330
17
100
AcDbEntity
  8
Paineis
100
AcDbPolyline
 90
4
 70
1
 10
3668.04
 20
2665.79
 10
3687.04
 20
2665.79
 10
3687.04
 20
2667.79
 10
3668.04
 20
2667.79
  0
LWPOLYLINE
  5
12A
330
17
100
AcDbEntity
  8
Paineis
100
AcDbPolyline
 90
4
 70
1
 10
3668.04
 20
2667.79
 10
3687.04
 20
2667.79
 10
3687.04
 20
2911.79
 10
3668.04
 20
2911.79
  0
LWPOLYLINE
  5
12B
330
17
100
AcDbEntity
  8
Paineis
100
AcDbPolyline
 90
4
 70
1
 10
3668.04
 20
2911.79
 10
3687.04
 20
2911.79
 10
3687.04
 20
2945.79
 10
3668.04
 20
2945.79
  0
MTEXT
  5
12C
330
17
100
AcDbEntity
  8
Texto Secao
100
AcDbMText
 10
3677.54
 20
2650.79
 30
0.0
 40
10.0
 71
1
  1
P14.D
  0
MTEXT
  5
12D
330
17
100
AcDbEntity
  8
Cota Secao (2x)
100
AcDbMText
 10
3363.04
 20
3000.79
 30
0.0
 40
8.0
 71
1
  1
B=19cm  H=98cm
  0
MTEXT
  5
12E
330
17
100
AcDbEntity
  8
NOMENCLATURA
100
AcDbMText
 10
3363.04
 20
2995.79
 30
0.0
 40
10.0
 71
1
  1
12 PAV - P14
  0
LWPOLYLINE
  5
12F
330
17
100
AcDbEntity
  8
Paineis
100
AcDbPolyline
 90
4
 70
1
 10
3830.93
 20
2748.07
 10
3930.93
 20
2748.07
 10
3930.93
 20
2750.07
 10
3830.93
 20
2750.07
  0
LWPOLYLINE
  5
130
330
17
100
AcDbEntity
  8
Paineis
100
AcDbPolyline
 90
4
 70
1
 10
3830.93
 20
2750.07
 10
3930.93
 20
2750.07
 10
3930.93
 20
2994.07
 10
3830.93
 20
2994.07
  0
LWPOLYLINE
  5
131
330
17
100
AcDbEntity
  8
Paineis
100
AcDbPolyline
 90
4
 70
1
 10
3830.93
 20
2994.07
 10
3930.93
 20
2994.07
 10
3930.93
 20
3028.07
 10
3830.93
 20
3028.07
  0
MTEXT
  5
132
330
17
100
AcDbEntity
  8
Texto Secao
100
AcDbMText
 10
3880.93
 20
2733.07
 30
0.0
 40
10.0
 71
1
  1
P15.A
  0
LWPOLYLINE
  5
133
330
17
100
AcDbEntity
  8
Paineis
100
AcDbPolyline
 90
4
 70
1
 10
3960.93
 20
2748.07
 10
3979.93
 20
2748.07
 10
3979.93
 20
2750.07
 10
3960.93
 20
2750.07
  0
LWPOLYLINE
  5
134
330
17
100
AcDbEntity
  8
Paineis
100
AcDbPolyline
 90
4
 70
1
 10
3960.93
 20
2750.07
 10
3979.93
 20
2750.07
 10
3979.93
 20
2994.07
 10
3960.93
 20
2994.07
  0
LWPOLYLINE
  5
135
330
17
100
AcDbEntity
  8
Paineis
100
AcDbPolyline
 90
4
 70
1
 10
3960.93
 20
2994.07
 10
3979.93
 20
2994.07
 10
3979.93
 20
3028.07
 10
3960.93
 20
3028.07
  0
MTEXT
  5
136
330
17
100
AcDbEntity
  8
Texto Secao
100
AcDbMText
 10
3970.43
 20
2733.07
 30
0.0
 40
10.0
 71
1
  1
P15.B
  0
LWPOLYLINE
  5
137
330
17
100
AcDbEntity
  8
Paineis
100
AcDbPolyline
 90
4
 70
1
 10
4009.93
 20
2748.07
 10
4109.93
 20
2748.07
 10
4109.93
 20
2750.07
 10
4009.93
 20
2750.07
  0
LWPOLYLINE
  5
138
330
17
100
AcDbEntity
  8
Paineis
100
AcDbPolyline
 90
4
 70
1
 10
4009.93
 20
2750.07
 10
4109.93
 20
2750.07
 10
4109.93
 20
2994.07
 10
4009.93
 20
2994.07
  0
LWPOLYLINE
  5
139
330
17
100
AcDbEntity
  8
Paineis
100
AcDbPolyline
 90
4
 70
1
 10
4009.93
 20
2994.07
 10
4109.93
 20
2994.07
 10
4109.93
 20
3028.07
 10
4009.93
 20
3028.07
  0
MTEXT
  5
13A
330
17
100
AcDbEntity
  8
Texto Secao
100
AcDbMText
 10
4059.93
 20
2733.07
 30
0.0
 40
10.0
 71
1
  1
P15.C
  0
LWPOLYLINE
  5
13B
330
17
100
AcDbEntity
  8
Paineis
100
AcDbPolyline
 90
4
 70
1
 10
4139.93
 20
2748.07
 10
4158.93
 20
2748.07
 10
4158.93
 20
2750.07
 10
4139.93
 20
2750.07
  0
LWPOLYLINE
  5
13C
330
17
100
AcDbEntity
  8
Paineis
100
AcDbPolyline
 90
4
 70
1
 10
4139.93
 20
2750.07
 10
4158.93
 20
2750.07
 10
4158.93
 20
2994.07
 10
4139.93
 20
2994.07
  0
LWPOLYLINE
  5
13D
330
17
100
AcDbEntity
  8
Paineis
100
AcDbPolyline
 90
4
 70
1
 10
4139.93
 20
2994.07
 10
4158.93
 20
2994.07
 10
4158.93
 20
3028.07
 10
4139.93
 20
3028.07
  0
MTEXT
  5
13E
330
17
100
AcDbEntity
  8
Texto Secao
100
AcDbMText
 10
4149.43
 20
2733.07
 30
0.0
 40
10.0
 71
1
  1
P15.D
  0
MTEXT
  5
13F
330
17
100
AcDbEntity
  8
Cota Secao (2x)
100
AcDbMText
 10
3830.93
 20
3083.07
 30
0.0
 40
8.0
 71
1
  1
B=19cm  H=100cm
  0
MTEXT
  5
140
330
17
100
AcDbEntity
  8
NOMENCLATURA
100
AcDbMText
 10
3830.93
 20
3078.07
 30
0.0
 40
10.0
 71
1
  1
12 PAV - P15
  0
LWPOLYLINE
  5
141
330
17
100
AcDbEntity
  8
Paineis
100
AcDbPolyline
 90
4
 70
1
 10
4408.75
 20
2607.48
 10
4508.75
 20
2607.48
 10
4508.75
 20
2609.48
 10
4408.75
 20
2609.48
  0
LWPOLYLINE
  5
142
330
17
100
AcDbEntity
  8
Paineis
100
AcDbPolyline
 90
4
 70
1
 10
4408.75
 20
2609.48
 10
4508.75
 20
2609.48
 10
4508.75
 20
2853.48
 10
4408.75
 20
2853.48
  0
LWPOLYLINE
  5
143
330
17
100
AcDbEntity
  8
Paineis
100
AcDbPolyline
 90
4
 70
1
 10
4408.75
 20
2853.48
 10
4508.75
 20
2853.48
 10
4508.75
 20
2887.48
 10
4408.75
 20
2887.48
  0
MTEXT
  5
144
330
17
100
AcDbEntity
  8
Texto Secao
100
AcDbMText
 10
4458.75
 20
2592.48
 30
0.0
 40
10.0
 71
1
  1
P16.A
  0
LWPOLYLINE
  5
145
330
17
100
AcDbEntity
  8
Paineis
100
AcDbPolyline
 90
4
 70
1
 10
4538.75
 20
2607.48
 10
4557.75
 20
2607.48
 10
4557.75
 20
2609.48
 10
4538.75
 20
2609.48
  0
LWPOLYLINE
  5
146
330
17
100
AcDbEntity
  8
Paineis
100
AcDbPolyline
 90
4
 70
1
 10
4538.75
 20
2609.48
 10
4557.75
 20
2609.48
 10
4557.75
 20
2853.48
 10
4538.75
 20
2853.48
  0
LWPOLYLINE
  5
147
330
17
100
AcDbEntity
  8
Paineis
100
AcDbPolyline
 90
4
 70
1
 10
4538.75
 20
2853.48
 10
4557.75
 20
2853.48
 10
4557.75
 20
2887.48
 10
4538.75
 20
2887.48
  0
MTEXT
  5
148
330
17
100
AcDbEntity
  8
Texto Secao
100
AcDbMText
 10
4548.25
 20
2592.48
 30
0.0
 40
10.0
 71
1
  1
P16.B
  0
LWPOLYLINE
  5
149
330
17
100
AcDbEntity
  8
Paineis
100
AcDbPolyline
 90
4
 70
1
 10
4587.75
 20
2607.48
 10
4687.75
 20
2607.48
 10
4687.75
 20
2609.48
 10
4587.75
 20
2609.48
  0
LWPOLYLINE
  5
14A
330
17
100
AcDbEntity
  8
Paineis
100
AcDbPolyline
 90
4
 70
1
 10
4587.75
 20
2609.48
 10
4687.75
 20
2609.48
 10
4687.75
 20
2853.48
 10
4587.75
 20
2853.48
  0
LWPOLYLINE
  5
14B
330
17
100
AcDbEntity
  8
Paineis
100
AcDbPolyline
 90
4
 70
1
 10
4587.75
 20
2853.48
 10
4687.75
 20
2853.48
 10
4687.75
 20
2887.48
 10
4587.75
 20
2887.48
  0
MTEXT
  5
14C
330
17
100
AcDbEntity
  8
Texto Secao
100
AcDbMText
 10
4637.75
 20
2592.48
 30
0.0
 40
10.0
 71
1
  1
P16.C
  0
LWPOLYLINE
  5
14D
330
17
100
AcDbEntity
  8
Paineis
100
AcDbPolyline
 90
4
 70
1
 10
4717.75
 20
2607.48
 10
4736.75
 20
2607.48
 10
4736.75
 20
2609.48
 10
4717.75
 20
2609.48
  0
LWPOLYLINE
  5
14E
330
17
100
AcDbEntity
  8
Paineis
100
AcDbPolyline
 90
4
 70
1
 10
4717.75
 20
2609.48
 10
4736.75
 20
2609.48
 10
4736.75
 20
2853.48
 10
4717.75
 20
2853.48
  0
LWPOLYLINE
  5
14F
330
17
100
AcDbEntity
  8
Paineis
100
AcDbPolyline
 90
4
 70
1
 10
4717.75
 20
2853.48
 10
4736.75
 20
2853.48
 10
4736.75
 20
2887.48
 10
4717.75
 20
2887.48
  0
MTEXT
  5
150
330
17
100
AcDbEntity
  8
Texto Secao
100
AcDbMText
 10
4727.25
 20
2592.48
 30
0.0
 40
10.0
 71
1
  1
P16.D
  0
MTEXT
  5
151
330
17
100
AcDbEntity
  8
Cota Secao (2x)
100
AcDbMText
 10
4408.75
 20
2942.48
 30
0.0
 40
8.0
 71
1
  1
B=19cm  H=100cm
  0
MTEXT
  5
152
330
17
100
AcDbEntity
  8
NOMENCLATURA
100
AcDbMText
 10
4408.75
 20
2937.48
 30
0.0
 40
10.0
 71
1
  1
12 PAV - P16
  0
LWPOLYLINE
  5
153
330
17
100
AcDbEntity
  8
Paineis
100
AcDbPolyline
 90
4
 70
1
 10
4632.9
 20
2560.0
 10
4752.9
 20
2560.0
 10
4752.9
 20
2562.0
 10
4632.9
 20
2562.0
  0
LWPOLYLINE
  5
154
330
17
100
AcDbEntity
  8
Paineis
100
AcDbPolyline
 90
4
 70
1
 10
4632.9
 20
2562.0
 10
4752.9
 20
2562.0
 10
4752.9
 20
2806.0
 10
4632.9
 20
2806.0
  0
LWPOLYLINE
  5
155
330
17
100
AcDbEntity
  8
Paineis
100
AcDbPolyline
 90
4
 70
1
 10
4632.9
 20
2806.0
 10
4752.9
 20
2806.0
 10
4752.9
 20
2840.0
 10
4632.9
 20
2840.0
  0
MTEXT
  5
156
330
17
100
AcDbEntity
  8
Texto Secao
100
AcDbMText
 10
4692.9
 20
2545.0
 30
0.0
 40
10.0
 71
1
  1
P17.A
  0
LWPOLYLINE
  5
157
330
17
100
AcDbEntity
  8
Paineis
100
AcDbPolyline
 90
4
 70
1
 10
4782.9
 20
2560.0
 10
4801.9
 20
2560.0
 10
4801.9
 20
2562.0
 10
4782.9
 20
2562.0
  0
LWPOLYLINE
  5
158
330
17
100
AcDbEntity
  8
Paineis
100
AcDbPolyline
 90
4
 70
1
 10
4782.9
 20
2562.0
 10
4801.9
 20
2562.0
 10
4801.9
 20
2806.0
 10
4782.9
 20
2806.0
  0
LWPOLYLINE
  5
159
330
17
100
AcDbEntity
  8
Paineis
100
AcDbPolyline
 90
4
 70
1
 10
4782.9
 20
2806.0
 10
4801.9
 20
2806.0
 10
4801.9
 20
2840.0
 10
4782.9
 20
2840.0
  0
MTEXT
  5
15A
330
17
100
AcDbEntity
  8
Texto Secao
100
AcDbMText
 10
4792.4
 20
2545.0
 30
0.0
 40
10.0
 71
1
  1
P17.B
  0
LWPOLYLINE
  5
15B
330
17
100
AcDbEntity
  8
Paineis
100
AcDbPolyline
 90
4
 70
1
 10
4831.9
 20
2560.0
 10
4951.9
 20
2560.0
 10
4951.9
 20
2562.0
 10
4831.9
 20
2562.0
  0
LWPOLYLINE
  5
15C
330
17
100
AcDbEntity
  8
Paineis
100
AcDbPolyline
 90
4
 70
1
 10
4831.9
 20
2562.0
 10
4951.9
 20
2562.0
 10
4951.9
 20
2806.0
 10
4831.9
 20
2806.0
  0
LWPOLYLINE
  5
15D
330
17
100
AcDbEntity
  8
Paineis
100
AcDbPolyline
 90
4
 70
1
 10
4831.9
 20
2806.0
 10
4951.9
 20
2806.0
 10
4951.9
 20
2840.0
 10
4831.9
 20
2840.0
  0
MTEXT
  5
15E
330
17
100
AcDbEntity
  8
Texto Secao
100
AcDbMText
 10
4891.9
 20
2545.0
 30
0.0
 40
10.0
 71
1
  1
P17.C
  0
LWPOLYLINE
  5
15F
330
17
100
AcDbEntity
  8
Paineis
100
AcDbPolyline
 90
4
 70
1
 10
4981.9
 20
2560.0
 10
5000.9
 20
2560.0
 10
5000.9
 20
2562.0
 10
4981.9
 20
2562.0
  0
LWPOLYLINE
  5
160
330
17
100
AcDbEntity
  8
Paineis
100
AcDbPolyline
 90
4
 70
1
 10
4981.9
 20
2562.0
 10
5000.9
 20
2562.0
 10
5000.9
 20
2806.0
 10
4981.9
 20
2806.0
  0
LWPOLYLINE
  5
161
330
17
100
AcDbEntity
  8
Paineis
100
AcDbPolyline
 90
4
 70
1
 10
4981.9
 20
2806.0
 10
5000.9
 20
2806.0
 10
5000.9
 20
2840.0
 10
4981.9
 20
2840.0
  0
MTEXT
  5
162
330
17
100
AcDbEntity
  8
Texto Secao
100
AcDbMText
 10
4991.4
 20
2545.0
 30
0.0
 40
10.0
 71
1
  1
P17.D
  0
MTEXT
  5
163
330
17
100
AcDbEntity
  8
Cota Secao (2x)
100
AcDbMText
 10
4632.9
 20
2895.0
 30
0.0
 40
8.0
 71
1
  1
B=19cm  H=120cm
  0
MTEXT
  5
164
330
17
100
AcDbEntity
  8
NOMENCLATURA
100
AcDbMText
 10
4632.9
 20
2890.0
 30
0.0
 40
10.0
 71
1
  1
12 PAV - P17
  0
LWPOLYLINE
  5
165
330
17
100
AcDbEntity
  8
Paineis
100
AcDbPolyline
 90
4
 70
1
 10
5113.58
 20
2179.56
 10
5192.58
 20
2179.56
 10
5192.58
 20
2181.56
 10
5113.58
 20
2181.56
  0
LWPOLYLINE
  5
166
330
17
100
AcDbEntity
  8
Paineis
100
AcDbPolyline
 90
4
 70
1
 10
5113.58
 20
2181.56
 10
5192.58
 20
2181.56
 10
5192.58
 20
2425.56
 10
5113.58
 20
2425.56
  0
LWPOLYLINE
  5
167
330
17
100
AcDbEntity
  8
Paineis
100
AcDbPolyline
 90
4
 70
1
 10
5113.58
 20
2425.56
 10
5192.58
 20
2425.56
 10
5192.58
 20
2459.56
 10
5113.58
 20
2459.56
  0
MTEXT
  5
168
330
17
100
AcDbEntity
  8
Texto Secao
100
AcDbMText
 10
5153.08
 20
2164.56
 30
0.0
 40
10.0
 71
1
  1
P18.A
  0
LWPOLYLINE
  5
169
330
17
100
AcDbEntity
  8
Paineis
100
AcDbPolyline
 90
4
 70
1
 10
5222.58
 20
2179.56
 10
5241.58
 20
2179.56
 10
5241.58
 20
2181.56
 10
5222.58
 20
2181.56
  0
LWPOLYLINE
  5
16A
330
17
100
AcDbEntity
  8
Paineis
100
AcDbPolyline
 90
4
 70
1
 10
5222.58
 20
2181.56
 10
5241.58
 20
2181.56
 10
5241.58
 20
2425.56
 10
5222.58
 20
2425.56
  0
LWPOLYLINE
  5
16B
330
17
100
AcDbEntity
  8
Paineis
100
AcDbPolyline
 90
4
 70
1
 10
5222.58
 20
2425.56
 10
5241.58
 20
2425.56
 10
5241.58
 20
2459.56
 10
5222.58
 20
2459.56
  0
MTEXT
  5
16C
330
17
100
AcDbEntity
  8
Texto Secao
100
AcDbMText
 10
5232.08
 20
2164.56
 30
0.0
 40
10.0
 71
1
  1
P18.B
  0
LWPOLYLINE
  5
16D
330
17
100
AcDbEntity
  8
Paineis
100
AcDbPolyline
 90
4
 70
1
 10
5271.58
 20
2179.56
 10
5350.58
 20
2179.56
 10
5350.58
 20
2181.56
 10
5271.58
 20
2181.56
  0
LWPOLYLINE
  5
16E
330
17
100
AcDbEntity
  8
Paineis
100
AcDbPolyline
 90
4
 70
1
 10
5271.58
 20
2181.56
 10
5350.58
 20
2181.56
 10
5350.58
 20
2425.56
 10
5271.58
 20
2425.56
  0
LWPOLYLINE
  5
16F
330
17
100
AcDbEntity
  8
Paineis
100
AcDbPolyline
 90
4
 70
1
 10
5271.58
 20
2425.56
 10
5350.58
 20
2425.56
 10
5350.58
 20
2459.56
 10
5271.58
 20
2459.56
  0
MTEXT
  5
170
330
17
100
AcDbEntity
  8
Texto Secao
100
AcDbMText
 10
5311.08
 20
2164.56
 30
0.0
 40
10.0
 71
1
  1
P18.C
  0
LWPOLYLINE
  5
171
330
17
100
AcDbEntity
  8
Paineis
100
AcDbPolyline
 90
4
 70
1
 10
5380.58
 20
2179.56
 10
5399.58
 20
2179.56
 10
5399.58
 20
2181.56
 10
5380.58
 20
2181.56
  0
LWPOLYLINE
  5
172
330
17
100
AcDbEntity
  8
Paineis
100
AcDbPolyline
 90
4
 70
1
 10
5380.58
 20
2181.56
 10
5399.58
 20
2181.56
 10
5399.58
 20
2425.56
 10
5380.58
 20
2425.56
  0
LWPOLYLINE
  5
173
330
17
100
AcDbEntity
  8
Paineis
100
AcDbPolyline
 90
4
 70
1
 10
5380.58
 20
2425.56
 10
5399.58
 20
2425.56
 10
5399.58
 20
2459.56
 10
5380.58
 20
2459.56
  0
MTEXT
  5
174
330
17
100
AcDbEntity
  8
Texto Secao
100
AcDbMText
 10
5390.08
 20
2164.56
 30
0.0
 40
10.0
 71
1
  1
P18.D
  0
MTEXT
  5
175
330
17
100
AcDbEntity
  8
Cota Secao (2x)
100
AcDbMText
 10
5113.58
 20
2514.56
 30
0.0
 40
8.0
 71
1
  1
B=19cm  H=79cm
  0
MTEXT
  5
176
330
17
100
AcDbEntity
  8
NOMENCLATURA
100
AcDbMText
 10
5113.58
 20
2509.56
 30
0.0
 40
10.0
 71
1
  1
12 PAV - P18
  0
LWPOLYLINE
  5
177
330
17
100
AcDbEntity
  8
Paineis
100
AcDbPolyline
 90
4
 70
1
 10
2031.48
 20
2214.66
 10
2111.48
 20
2214.66
 10
2111.48
 20
2216.66
 10
2031.48
 20
2216.66
  0
LWPOLYLINE
  5
178
330
17
100
AcDbEntity
  8
Paineis
100
AcDbPolyline
 90
4
 70
1
 10
2031.48
 20
2216.66
 10
2111.48
 20
2216.66
 10
2111.48
 20
2460.66
 10
2031.48
 20
2460.66
  0
LWPOLYLINE
  5
179
330
17
100
AcDbEntity
  8
Paineis
100
AcDbPolyline
 90
4
 70
1
 10
2031.48
 20
2460.66
 10
2111.48
 20
2460.66
 10
2111.48
 20
2494.66
 10
2031.48
 20
2494.66
  0
MTEXT
  5
17A
330
17
100
AcDbEntity
  8
Texto Secao
100
AcDbMText
 10
2071.48
 20
2199.66
 30
0.0
 40
10.0
 71
1
  1
P19.A
  0
LWPOLYLINE
  5
17B
330
17
100
AcDbEntity
  8
Paineis
100
AcDbPolyline
 90
4
 70
1
 10
2141.48
 20
2214.66
 10
2160.48
 20
2214.66
 10
2160.48
 20
2216.66
 10
2141.48
 20
2216.66
  0
LWPOLYLINE
  5
17C
330
17
100
AcDbEntity
  8
Paineis
100
AcDbPolyline
 90
4
 70
1
 10
2141.48
 20
2216.66
 10
2160.48
 20
2216.66
 10
2160.48
 20
2460.66
 10
2141.48
 20
2460.66
  0
LWPOLYLINE
  5
17D
330
17
100
AcDbEntity
  8
Paineis
100
AcDbPolyline
 90
4
 70
1
 10
2141.48
 20
2460.66
 10
2160.48
 20
2460.66
 10
2160.48
 20
2494.66
 10
2141.48
 20
2494.66
  0
MTEXT
  5
17E
330
17
100
AcDbEntity
  8
Texto Secao
100
AcDbMText
 10
2150.98
 20
2199.66
 30
0.0
 40
10.0
 71
1
  1
P19.B
  0
LWPOLYLINE
  5
17F
330
17
100
AcDbEntity
  8
Paineis
100
AcDbPolyline
 90
4
 70
1
 10
2190.48
 20
2214.66
 10
2270.48
 20
2214.66
 10
2270.48
 20
2216.66
 10
2190.48
 20
2216.66
  0
LWPOLYLINE
  5
180
330
17
100
AcDbEntity
  8
Paineis
100
AcDbPolyline
 90
4
 70
1
 10
2190.48
 20
2216.66
 10
2270.48
 20
2216.66
 10
2270.48
 20
2460.66
 10
2190.48
 20
2460.66
  0
LWPOLYLINE
  5
181
330
17
100
AcDbEntity
  8
Paineis
100
AcDbPolyline
 90
4
 70
1
 10
2190.48
 20
2460.66
 10
2270.48
 20
2460.66
 10
2270.48
 20
2494.66
 10
2190.48
 20
2494.66
  0
MTEXT
  5
182
330
17
100
AcDbEntity
  8
Texto Secao
100
AcDbMText
 10
2230.48
 20
2199.66
 30
0.0
 40
10.0
 71
1
  1
P19.C
  0
LWPOLYLINE
  5
183
330
17
100
AcDbEntity
  8
Paineis
100
AcDbPolyline
 90
4
 70
1
 10
2300.48
 20
2214.66
 10
2319.48
 20
2214.66
 10
2319.48
 20
2216.66
 10
2300.48
 20
2216.66
  0
LWPOLYLINE
  5
184
330
17
100
AcDbEntity
  8
Paineis
100
AcDbPolyline
 90
4
 70
1
 10
2300.48
 20
2216.66
 10
2319.48
 20
2216.66
 10
2319.48
 20
2460.66
 10
2300.48
 20
2460.66
  0
LWPOLYLINE
  5
185
330
17
100
AcDbEntity
  8
Paineis
100
AcDbPolyline
 90
4
 70
1
 10
2300.48
 20
2460.66
 10
2319.48
 20
2460.66
 10
2319.48
 20
2494.66
 10
2300.48
 20
2494.66
  0
MTEXT
  5
186
330
17
100
AcDbEntity
  8
Texto Secao
100
AcDbMText
 10
2309.98
 20
2199.66
 30
0.0
 40
10.0
 71
1
  1
P19.D
  0
MTEXT
  5
187
330
17
100
AcDbEntity
  8
Cota Secao (2x)
100
AcDbMText
 10
2031.48
 20
2549.66
 30
0.0
 40
8.0
 71
1
  1
B=19cm  H=80cm
  0
MTEXT
  5
188
330
17
100
AcDbEntity
  8
NOMENCLATURA
100
AcDbMText
 10
2031.48
 20
2544.66
 30
0.0
 40
10.0
 71
1
  1
12 PAV - P19
  0
LWPOLYLINE
  5
189
330
17
100
AcDbEntity
  8
Paineis
100
AcDbPolyline
 90
4
 70
1
 10
2819.15
 20
2163.79
 10
2905.15
 20
2163.79
 10
2905.15
 20
2165.79
 10
2819.15
 20
2165.79
  0
LWPOLYLINE
  5
18A
330
17
100
AcDbEntity
  8
Paineis
100
AcDbPolyline
 90
4
 70
1
 10
2819.15
 20
2165.79
 10
2905.15
 20
2165.79
 10
2905.15
 20
2409.79
 10
2819.15
 20
2409.79
  0
LWPOLYLINE
  5
18B
330
17
100
AcDbEntity
  8
Paineis
100
AcDbPolyline
 90
4
 70
1
 10
2819.15
 20
2409.79
 10
2905.15
 20
2409.79
 10
2905.15
 20
2443.79
 10
2819.15
 20
2443.79
  0
MTEXT
  5
18C
330
17
100
AcDbEntity
  8
Texto Secao
100
AcDbMText
 10
2862.15
 20
2148.79
 30
0.0
 40
10.0
 71
1
  1
P20.A
  0
LWPOLYLINE
  5
18D
330
17
100
AcDbEntity
  8
Paineis
100
AcDbPolyline
 90
4
 70
1
 10
2935.15
 20
2163.79
 10
2954.15
 20
2163.79
 10
2954.15
 20
2165.79
 10
2935.15
 20
2165.79
  0
LWPOLYLINE
  5
18E
330
17
100
AcDbEntity
  8
Paineis
100
AcDbPolyline
 90
4
 70
1
 10
2935.15
 20
2165.79
 10
2954.15
 20
2165.79
 10
2954.15
 20
2409.79
 10
2935.15
 20
2409.79
  0
LWPOLYLINE
  5
18F
330
17
100
AcDbEntity
  8
Paineis
100
AcDbPolyline
 90
4
 70
1
 10
2935.15
 20
2409.79
 10
2954.15
 20
2409.79
 10
2954.15
 20
2443.79
 10
2935.15
 20
2443.79
  0
MTEXT
  5
190
330
17
100
AcDbEntity
  8
Texto Secao
100
AcDbMText
 10
2944.65
 20
2148.79
 30
0.0
 40
10.0
 71
1
  1
P20.B
  0
LWPOLYLINE
  5
191
330
17
100
AcDbEntity
  8
Paineis
100
AcDbPolyline
 90
4
 70
1
 10
2984.15
 20
2163.79
 10
3070.15
 20
2163.79
 10
3070.15
 20
2165.79
 10
2984.15
 20
2165.79
  0
LWPOLYLINE
  5
192
330
17
100
AcDbEntity
  8
Paineis
100
AcDbPolyline
 90
4
 70
1
 10
2984.15
 20
2165.79
 10
3070.15
 20
2165.79
 10
3070.15
 20
2409.79
 10
2984.15
 20
2409.79
  0
LWPOLYLINE
  5
193
330
17
100
AcDbEntity
  8
Paineis
100
AcDbPolyline
 90
4
 70
1
 10
2984.15
 20
2409.79
 10
3070.15
 20
2409.79
 10
3070.15
 20
2443.79
 10
2984.15
 20
2443.79
  0
MTEXT
  5
194
330
17
100
AcDbEntity
  8
Texto Secao
100
AcDbMText
 10
3027.15
 20
2148.79
 30
0.0
 40
10.0
 71
1
  1
P20.C
  0
LWPOLYLINE
  5
195
330
17
100
AcDbEntity
  8
Paineis
100
AcDbPolyline
 90
4
 70
1
 10
3100.15
 20
2163.79
 10
3119.15
 20
2163.79
 10
3119.15
 20
2165.79
 10
3100.15
 20
2165.79
  0
LWPOLYLINE
  5
196
330
17
100
AcDbEntity
  8
Paineis
100
AcDbPolyline
 90
4
 70
1
 10
3100.15
 20
2165.79
 10
3119.15
 20
2165.79
 10
3119.15
 20
2409.79
 10
3100.15
 20
2409.79
  0
LWPOLYLINE
  5
197
330
17
100
AcDbEntity
  8
Paineis
100
AcDbPolyline
 90
4
 70
1
 10
3100.15
 20
2409.79
 10
3119.15
 20
2409.79
 10
3119.15
 20
2443.79
 10
3100.15
 20
2443.79
  0
MTEXT
  5
198
330
17
100
AcDbEntity
  8
Texto Secao
100
AcDbMText
 10
3109.65
 20
2148.79
 30
0.0
 40
10.0
 71
1
  1
P20.D
  0
MTEXT
  5
199
330
17
100
AcDbEntity
  8
Cota Secao (2x)
100
AcDbMText
 10
2819.15
 20
2498.79
 30
0.0
 40
8.0
 71
1
  1
B=19cm  H=86cm
  0
MTEXT
  5
19A
330
17
100
AcDbEntity
  8
NOMENCLATURA
100
AcDbMText
 10
2819.15
 20
2493.79
 30
0.0
 40
10.0
 71
1
  1
12 PAV - P20
  0
LWPOLYLINE
  5
19B
330
17
100
AcDbEntity
  8
Paineis
100
AcDbPolyline
 90
4
 70
1
 10
2972.05
 20
2229.79
 10
3058.05
 20
2229.79
 10
3058.05
 20
2231.79
 10
2972.05
 20
2231.79
  0
LWPOLYLINE
  5
19C
330
17
100
AcDbEntity
  8
Paineis
100
AcDbPolyline
 90
4
 70
1
 10
2972.05
 20
2231.79
 10
3058.05
 20
2231.79
 10
3058.05
 20
2475.79
 10
2972.05
 20
2475.79
  0
LWPOLYLINE
  5
19D
330
17
100
AcDbEntity
  8
Paineis
100
AcDbPolyline
 90
4
 70
1
 10
2972.05
 20
2475.79
 10
3058.05
 20
2475.79
 10
3058.05
 20
2509.79
 10
2972.05
 20
2509.79
  0
MTEXT
  5
19E
330
17
100
AcDbEntity
  8
Texto Secao
100
AcDbMText
 10
3015.05
 20
2214.79
 30
0.0
 40
10.0
 71
1
  1
P21.A
  0
LWPOLYLINE
  5
19F
330
17
100
AcDbEntity
  8
Paineis
100
AcDbPolyline
 90
4
 70
1
 10
3088.05
 20
2229.79
 10
3107.05
 20
2229.79
 10
3107.05
 20
2231.79
 10
3088.05
 20
2231.79
  0
LWPOLYLINE
  5
1A0
330
17
100
AcDbEntity
  8
Paineis
100
AcDbPolyline
 90
4
 70
1
 10
3088.05
 20
2231.79
 10
3107.05
 20
2231.79
 10
3107.05
 20
2475.79
 10
3088.05
 20
2475.79
  0
LWPOLYLINE
  5
1A1
330
17
100
AcDbEntity
  8
Paineis
100
AcDbPolyline
 90
4
 70
1
 10
3088.05
 20
2475.79
 10
3107.05
 20
2475.79
 10
3107.05
 20
2509.79
 10
3088.05
 20
2509.79
  0
MTEXT
  5
1A2
330
17
100
AcDbEntity
  8
Texto Secao
100
AcDbMText
 10
3097.55
 20
2214.79
 30
0.0
 40
10.0
 71
1
  1
P21.B
  0
LWPOLYLINE
  5
1A3
330
17
100
AcDbEntity
  8
Paineis
100
AcDbPolyline
 90
4
 70
1
 10
3137.05
 20
2229.79
 10
3223.05
 20
2229.79
 10
3223.05
 20
2231.79
 10
3137.05
 20
2231.79
  0
LWPOLYLINE
  5
1A4
330
17
100
AcDbEntity
  8
Paineis
100
AcDbPolyline
 90
4
 70
1
 10
3137.05
 20
2231.79
 10
3223.05
 20
2231.79
 10
3223.05
 20
2475.79
 10
3137.05
 20
2475.79
  0
LWPOLYLINE
  5
1A5
330
17
100
AcDbEntity
  8
Paineis
100
AcDbPolyline
 90
4
 70
1
 10
3137.05
 20
2475.79
 10
3223.05
 20
2475.79
 10
3223.05
 20
2509.79
 10
3137.05
 20
2509.79
  0
MTEXT
  5
1A6
330
17
100
AcDbEntity
  8
Texto Secao
100
AcDbMText
 10
3180.05
 20
2214.79
 30
0.0
 40
10.0
 71
1
  1
P21.C
  0
LWPOLYLINE
  5
1A7
330
17
100
AcDbEntity
  8
Paineis
100
AcDbPolyline
 90
4
 70
1
 10
3253.05
 20
2229.79
 10
3272.05
 20
2229.79
 10
3272.05
 20
2231.79
 10
3253.05
 20
2231.79
  0
LWPOLYLINE
  5
1A8
330
17
100
AcDbEntity
  8
Paineis
100
AcDbPolyline
 90
4
 70
1
 10
3253.05
 20
2231.79
 10
3272.05
 20
2231.79
 10
3272.05
 20
2475.79
 10
3253.05
 20
2475.79
  0
LWPOLYLINE
  5
1A9
330
17
100
AcDbEntity
  8
Paineis
100
AcDbPolyline
 90
4
 70
1
 10
3253.05
 20
2475.79
 10
3272.05
 20
2475.79
 10
3272.05
 20
2509.79
 10
3253.05
 20
2509.79
  0
MTEXT
  5
1AA
330
17
100
AcDbEntity
  8
Texto Secao
100
AcDbMText
 10
3262.55
 20
2214.79
 30
0.0
 40
10.0
 71
1
  1
P21.D
  0
MTEXT
  5
1AB
330
17
100
AcDbEntity
  8
Cota Secao (2x)
100
AcDbMText
 10
2972.05
 20
2564.79
 30
0.0
 40
8.0
 71
1
  1
B=19cm  H=86cm
  0
MTEXT
  5
1AC
330
17
100
AcDbEntity
  8
NOMENCLATURA
100
AcDbMText
 10
2972.05
 20
2559.79
 30
0.0
 40
10.0
 71
1
  1
12 PAV - P21
  0
LWPOLYLINE
  5
1AD
330
17
100
AcDbEntity
  8
Paineis
100
AcDbPolyline
 90
4
 70
1
 10
3346.08
 20
2230.33
 10
3432.08
 20
2230.33
 10
3432.08
 20
2232.33
 10
3346.08
 20
2232.33
  0
LWPOLYLINE
  5
1AE
330
17
100
AcDbEntity
  8
Paineis
100
AcDbPolyline
 90
4
 70
1
 10
3346.08
 20
2232.33
 10
3432.08
 20
2232.33
 10
3432.08
 20
2476.33
 10
3346.08
 20
2476.33
  0
LWPOLYLINE
  5
1AF
330
17
100
AcDbEntity
  8
Paineis
100
AcDbPolyline
 90
4
 70
1
 10
3346.08
 20
2476.33
 10
3432.08
 20
2476.33
 10
3432.08
 20
2510.33
 10
3346.08
 20
2510.33
  0
MTEXT
  5
1B0
330
17
100
AcDbEntity
  8
Texto Secao
100
AcDbMText
 10
3389.08
 20
2215.33
 30
0.0
 40
10.0
 71
1
  1
P22.A
  0
LWPOLYLINE
  5
1B1
330
17
100
AcDbEntity
  8
Paineis
100
AcDbPolyline
 90
4
 70
1
 10
3462.08
 20
2230.33
 10
3481.08
 20
2230.33
 10
3481.08
 20
2232.33
 10
3462.08
 20
2232.33
  0
LWPOLYLINE
  5
1B2
330
17
100
AcDbEntity
  8
Paineis
100
AcDbPolyline
 90
4
 70
1
 10
3462.08
 20
2232.33
 10
3481.08
 20
2232.33
 10
3481.08
 20
2476.33
 10
3462.08
 20
2476.33
  0
LWPOLYLINE
  5
1B3
330
17
100
AcDbEntity
  8
Paineis
100
AcDbPolyline
 90
4
 70
1
 10
3462.08
 20
2476.33
 10
3481.08
 20
2476.33
 10
3481.08
 20
2510.33
 10
3462.08
 20
2510.33
  0
MTEXT
  5
1B4
330
17
100
AcDbEntity
  8
Texto Secao
100
AcDbMText
 10
3471.58
 20
2215.33
 30
0.0
 40
10.0
 71
1
  1
P22.B
  0
LWPOLYLINE
  5
1B5
330
17
100
AcDbEntity
  8
Paineis
100
AcDbPolyline
 90
4
 70
1
 10
3511.08
 20
2230.33
 10
3597.08
 20
2230.33
 10
3597.08
 20
2232.33
 10
3511.08
 20
2232.33
  0
LWPOLYLINE
  5
1B6
330
17
100
AcDbEntity
  8
Paineis
100
AcDbPolyline
 90
4
 70
1
 10
3511.08
 20
2232.33
 10
3597.08
 20
2232.33
 10
3597.08
 20
2476.33
 10
3511.08
 20
2476.33
  0
LWPOLYLINE
  5
1B7
330
17
100
AcDbEntity
  8
Paineis
100
AcDbPolyline
 90
4
 70
1
 10
3511.08
 20
2476.33
 10
3597.08
 20
2476.33
 10
3597.08
 20
2510.33
 10
3511.08
 20
2510.33
  0
MTEXT
  5
1B8
330
17
100
AcDbEntity
  8
Texto Secao
100
AcDbMText
 10
3554.08
 20
2215.33
 30
0.0
 40
10.0
 71
1
  1
P22.C
  0
LWPOLYLINE
  5
1B9
330
17
100
AcDbEntity
  8
Paineis
100
AcDbPolyline
 90
4
 70
1
 10
3627.08
 20
2230.33
 10
3646.08
 20
2230.33
 10
3646.08
 20
2232.33
 10
3627.08
 20
2232.33
  0
LWPOLYLINE
  5
1BA
330
17
100
AcDbEntity
  8
Paineis
100
AcDbPolyline
 90
4
 70
1
 10
3627.08
 20
2232.33
 10
3646.08
 20
2232.33
 10
3646.08
 20
2476.33
 10
3627.08
 20
2476.33
  0
LWPOLYLINE
  5
1BB
330
17
100
AcDbEntity
  8
Paineis
100
AcDbPolyline
 90
4
 70
1
 10
3627.08
 20
2476.33
 10
3646.08
 20
2476.33
 10
3646.08
 20
2510.33
 10
3627.08
 20
2510.33
  0
MTEXT
  5
1BC
330
17
100
AcDbEntity
  8
Texto Secao
100
AcDbMText
 10
3636.58
 20
2215.33
 30
0.0
 40
10.0
 71
1
  1
P22.D
  0
MTEXT
  5
1BD
330
17
100
AcDbEntity
  8
Cota Secao (2x)
100
AcDbMText
 10
3346.08
 20
2565.33
 30
0.0
 40
8.0
 71
1
  1
B=19cm  H=86cm
  0
MTEXT
  5
1BE
330
17
100
AcDbEntity
  8
NOMENCLATURA
100
AcDbMText
 10
3346.08
 20
2560.33
 30
0.0
 40
10.0
 71
1
  1
12 PAV - P22
  0
LWPOLYLINE
  5
1BF
330
17
100
AcDbEntity
  8
Paineis
100
AcDbPolyline
 90
4
 70
1
 10
3837.51
 20
2201.81
 10
3937.51
 20
2201.81
 10
3937.51
 20
2203.81
 10
3837.51
 20
2203.81
  0
LWPOLYLINE
  5
1C0
330
17
100
AcDbEntity
  8
Paineis
100
AcDbPolyline
 90
4
 70
1
 10
3837.51
 20
2203.81
 10
3937.51
 20
2203.81
 10
3937.51
 20
2447.81
 10
3837.51
 20
2447.81
  0
LWPOLYLINE
  5
1C1
330
17
100
AcDbEntity
  8
Paineis
100
AcDbPolyline
 90
4
 70
1
 10
3837.51
 20
2447.81
 10
3937.51
 20
2447.81
 10
3937.51
 20
2481.81
 10
3837.51
 20
2481.81
  0
MTEXT
  5
1C2
330
17
100
AcDbEntity
  8
Texto Secao
100
AcDbMText
 10
3887.51
 20
2186.81
 30
0.0
 40
10.0
 71
1
  1
P23.A
  0
LWPOLYLINE
  5
1C3
330
17
100
AcDbEntity
  8
Paineis
100
AcDbPolyline
 90
4
 70
1
 10
3967.51
 20
2201.81
 10
3986.51
 20
2201.81
 10
3986.51
 20
2203.81
 10
3967.51
 20
2203.81
  0
LWPOLYLINE
  5
1C4
330
17
100
AcDbEntity
  8
Paineis
100
AcDbPolyline
 90
4
 70
1
 10
3967.51
 20
2203.81
 10
3986.51
 20
2203.81
 10
3986.51
 20
2447.81
 10
3967.51
 20
2447.81
  0
LWPOLYLINE
  5
1C5
330
17
100
AcDbEntity
  8
Paineis
100
AcDbPolyline
 90
4
 70
1
 10
3967.51
 20
2447.81
 10
3986.51
 20
2447.81
 10
3986.51
 20
2481.81
 10
3967.51
 20
2481.81
  0
MTEXT
  5
1C6
330
17
100
AcDbEntity
  8
Texto Secao
100
AcDbMText
 10
3977.01
 20
2186.81
 30
0.0
 40
10.0
 71
1
  1
P23.B
  0
LWPOLYLINE
  5
1C7
330
17
100
AcDbEntity
  8
Paineis
100
AcDbPolyline
 90
4
 70
1
 10
4016.51
 20
2201.81
 10
4116.51
 20
2201.81
 10
4116.51
 20
2203.81
 10
4016.51
 20
2203.81
  0
LWPOLYLINE
  5
1C8
330
17
100
AcDbEntity
  8
Paineis
100
AcDbPolyline
 90
4
 70
1
 10
4016.51
 20
2203.81
 10
4116.51
 20
2203.81
 10
4116.51
 20
2447.81
 10
4016.51
 20
2447.81
  0
LWPOLYLINE
  5
1C9
330
17
100
AcDbEntity
  8
Paineis
100
AcDbPolyline
 90
4
 70
1
 10
4016.51
 20
2447.81
 10
4116.51
 20
2447.81
 10
4116.51
 20
2481.81
 10
4016.51
 20
2481.81
  0
MTEXT
  5
1CA
330
17
100
AcDbEntity
  8
Texto Secao
100
AcDbMText
 10
4066.51
 20
2186.81
 30
0.0
 40
10.0
 71
1
  1
P23.C
  0
LWPOLYLINE
  5
1CB
330
17
100
AcDbEntity
  8
Paineis
100
AcDbPolyline
 90
4
 70
1
 10
4146.51
 20
2201.81
 10
4165.51
 20
2201.81
 10
4165.51
 20
2203.81
 10
4146.51
 20
2203.81
  0
LWPOLYLINE
  5
1CC
330
17
100
AcDbEntity
  8
Paineis
100
AcDbPolyline
 90
4
 70
1
 10
4146.51
 20
2203.81
 10
4165.51
 20
2203.81
 10
4165.51
 20
2447.81
 10
4146.51
 20
2447.81
  0
LWPOLYLINE
  5
1CD
330
17
100
AcDbEntity
  8
Paineis
100
AcDbPolyline
 90
4
 70
1
 10
4146.51
 20
2447.81
 10
4165.51
 20
2447.81
 10
4165.51
 20
2481.81
 10
4146.51
 20
2481.81
  0
MTEXT
  5
1CE
330
17
100
AcDbEntity
  8
Texto Secao
100
AcDbMText
 10
4156.01
 20
2186.81
 30
0.0
 40
10.0
 71
1
  1
P23.D
  0
MTEXT
  5
1CF
330
17
100
AcDbEntity
  8
Cota Secao (2x)
100
AcDbMText
 10
3837.51
 20
2536.81
 30
0.0
 40
8.0
 71
1
  1
B=19cm  H=100cm
  0
MTEXT
  5
1D0
330
17
100
AcDbEntity
  8
NOMENCLATURA
100
AcDbMText
 10
3837.51
 20
2531.81
 30
0.0
 40
10.0
 71
1
  1
12 PAV - P23
  0
LWPOLYLINE
  5
1D1
330
17
100
AcDbEntity
  8
Paineis
100
AcDbPolyline
 90
4
 70
1
 10
4151.49
 20
2178.42
 10
4231.49
 20
2178.42
 10
4231.49
 20
2180.42
 10
4151.49
 20
2180.42
  0
LWPOLYLINE
  5
1D2
330
17
100
AcDbEntity
  8
Paineis
100
AcDbPolyline
 90
4
 70
1
 10
4151.49
 20
2180.42
 10
4231.49
 20
2180.42
 10
4231.49
 20
2424.42
 10
4151.49
 20
2424.42
  0
LWPOLYLINE
  5
1D3
330
17
100
AcDbEntity
  8
Paineis
100
AcDbPolyline
 90
4
 70
1
 10
4151.49
 20
2424.42
 10
4231.49
 20
2424.42
 10
4231.49
 20
2458.42
 10
4151.49
 20
2458.42
  0
MTEXT
  5
1D4
330
17
100
AcDbEntity
  8
Texto Secao
100
AcDbMText
 10
4191.49
 20
2163.42
 30
0.0
 40
10.0
 71
1
  1
P24.A
  0
LWPOLYLINE
  5
1D5
330
17
100
AcDbEntity
  8
Paineis
100
AcDbPolyline
 90
4
 70
1
 10
4261.49
 20
2178.42
 10
4280.49
 20
2178.42
 10
4280.49
 20
2180.42
 10
4261.49
 20
2180.42
  0
LWPOLYLINE
  5
1D6
330
17
100
AcDbEntity
  8
Paineis
100
AcDbPolyline
 90
4
 70
1
 10
4261.49
 20
2180.42
 10
4280.49
 20
2180.42
 10
4280.49
 20
2424.42
 10
4261.49
 20
2424.42
  0
LWPOLYLINE
  5
1D7
330
17
100
AcDbEntity
  8
Paineis
100
AcDbPolyline
 90
4
 70
1
 10
4261.49
 20
2424.42
 10
4280.49
 20
2424.42
 10
4280.49
 20
2458.42
 10
4261.49
 20
2458.42
  0
MTEXT
  5
1D8
330
17
100
AcDbEntity
  8
Texto Secao
100
AcDbMText
 10
4270.99
 20
2163.42
 30
0.0
 40
10.0
 71
1
  1
P24.B
  0
LWPOLYLINE
  5
1D9
330
17
100
AcDbEntity
  8
Paineis
100
AcDbPolyline
 90
4
 70
1
 10
4310.49
 20
2178.42
 10
4390.49
 20
2178.42
 10
4390.49
 20
2180.42
 10
4310.49
 20
2180.42
  0
LWPOLYLINE
  5
1DA
330
17
100
AcDbEntity
  8
Paineis
100
AcDbPolyline
 90
4
 70
1
 10
4310.49
 20
2180.42
 10
4390.49
 20
2180.42
 10
4390.49
 20
2424.42
 10
4310.49
 20
2424.42
  0
LWPOLYLINE
  5
1DB
330
17
100
AcDbEntity
  8
Paineis
100
AcDbPolyline
 90
4
 70
1
 10
4310.49
 20
2424.42
 10
4390.49
 20
2424.42
 10
4390.49
 20
2458.42
 10
4310.49
 20
2458.42
  0
MTEXT
  5
1DC
330
17
100
AcDbEntity
  8
Texto Secao
100
AcDbMText
 10
4350.49
 20
2163.42
 30
0.0
 40
10.0
 71
1
  1
P24.C
  0
LWPOLYLINE
  5
1DD
330
17
100
AcDbEntity
  8
Paineis
100
AcDbPolyline
 90
4
 70
1
 10
4420.49
 20
2178.42
 10
4439.49
 20
2178.42
 10
4439.49
 20
2180.42
 10
4420.49
 20
2180.42
  0
LWPOLYLINE
  5
1DE
330
17
100
AcDbEntity
  8
Paineis
100
AcDbPolyline
 90
4
 70
1
 10
4420.49
 20
2180.42
 10
4439.49
 20
2180.42
 10
4439.49
 20
2424.42
 10
4420.49
 20
2424.42
  0
LWPOLYLINE
  5
1DF
330
17
100
AcDbEntity
  8
Paineis
100
AcDbPolyline
 90
4
 70
1
 10
4420.49
 20
2424.42
 10
4439.49
 20
2424.42
 10
4439.49
 20
2458.42
 10
4420.49
 20
2458.42
  0
MTEXT
  5
1E0
330
17
100
AcDbEntity
  8
Texto Secao
100
AcDbMText
 10
4429.99
 20
2163.42
 30
0.0
 40
10.0
 71
1
  1
P24.D
  0
MTEXT
  5
1E1
330
17
100
AcDbEntity
  8
Cota Secao (2x)
100
AcDbMText
 10
4151.49
 20
2513.42
 30
0.0
 40
8.0
 71
1
  1
B=19cm  H=80cm
  0
MTEXT
  5
1E2
330
17
100
AcDbEntity
  8
NOMENCLATURA
100
AcDbMText
 10
4151.49
 20
2508.42
 30
0.0
 40
10.0
 71
1
  1
12 PAV - P24
  0
LWPOLYLINE
  5
1E3
330
17
100
AcDbEntity
  8
Paineis
100
AcDbPolyline
 90
4
 70
1
 10
1580.1
 20
2187.08
 10
1640.1
 20
2187.08
 10
1640.1
 20
2189.08
 10
1580.1
 20
2189.08
  0
LWPOLYLINE
  5
1E4
330
17
100
AcDbEntity
  8
Paineis
100
AcDbPolyline
 90
4
 70
1
 10
1580.1
 20
2189.08
 10
1640.1
 20
2189.08
 10
1640.1
 20
2433.08
 10
1580.1
 20
2433.08
  0
LWPOLYLINE
  5
1E5
330
17
100
AcDbEntity
  8
Paineis
100
AcDbPolyline
 90
4
 70
1
 10
1580.1
 20
2433.08
 10
1640.1
 20
2433.08
 10
1640.1
 20
2467.08
 10
1580.1
 20
2467.08
  0
MTEXT
  5
1E6
330
17
100
AcDbEntity
  8
Texto Secao
100
AcDbMText
 10
1610.1
 20
2172.08
 30
0.0
 40
10.0
 71
1
  1
P25.A
  0
LWPOLYLINE
  5
1E7
330
17
100
AcDbEntity
  8
Paineis
100
AcDbPolyline
 90
4
 70
1
 10
1670.1
 20
2187.08
 10
1689.1
 20
2187.08
 10
1689.1
 20
2189.08
 10
1670.1
 20
2189.08
  0
LWPOLYLINE
  5
1E8
330
17
100
AcDbEntity
  8
Paineis
100
AcDbPolyline
 90
4
 70
1
 10
1670.1
 20
2189.08
 10
1689.1
 20
2189.08
 10
1689.1
 20
2433.08
 10
1670.1
 20
2433.08
  0
LWPOLYLINE
  5
1E9
330
17
100
AcDbEntity
  8
Paineis
100
AcDbPolyline
 90
4
 70
1
 10
1670.1
 20
2433.08
 10
1689.1
 20
2433.08
 10
1689.1
 20
2467.08
 10
1670.1
 20
2467.08
  0
MTEXT
  5
1EA
330
17
100
AcDbEntity
  8
Texto Secao
100
AcDbMText
 10
1679.6
 20
2172.08
 30
0.0
 40
10.0
 71
1
  1
P25.B
  0
LWPOLYLINE
  5
1EB
330
17
100
AcDbEntity
  8
Paineis
100
AcDbPolyline
 90
4
 70
1
 10
1719.1
 20
2187.08
 10
1779.1
 20
2187.08
 10
1779.1
 20
2189.08
 10
1719.1
 20
2189.08
  0
LWPOLYLINE
  5
1EC
330
17
100
AcDbEntity
  8
Paineis
100
AcDbPolyline
 90
4
 70
1
 10
1719.1
 20
2189.08
 10
1779.1
 20
2189.08
 10
1779.1
 20
2433.08
 10
1719.1
 20
2433.08
  0
LWPOLYLINE
  5
1ED
330
17
100
AcDbEntity
  8
Paineis
100
AcDbPolyline
 90
4
 70
1
 10
1719.1
 20
2433.08
 10
1779.1
 20
2433.08
 10
1779.1
 20
2467.08
 10
1719.1
 20
2467.08
  0
MTEXT
  5
1EE
330
17
100
AcDbEntity
  8
Texto Secao
100
AcDbMText
 10
1749.1
 20
2172.08
 30
0.0
 40
10.0
 71
1
  1
P25.C
  0
LWPOLYLINE
  5
1EF
330
17
100
AcDbEntity
  8
Paineis
100
AcDbPolyline
 90
4
 70
1
 10
1809.1
 20
2187.08
 10
1828.1
 20
2187.08
 10
1828.1
 20
2189.08
 10
1809.1
 20
2189.08
  0
LWPOLYLINE
  5
1F0
330
17
100
AcDbEntity
  8
Paineis
100
AcDbPolyline
 90
4
 70
1
 10
1809.1
 20
2189.08
 10
1828.1
 20
2189.08
 10
1828.1
 20
2433.08
 10
1809.1
 20
2433.08
  0
LWPOLYLINE
  5
1F1
330
17
100
AcDbEntity
  8
Paineis
100
AcDbPolyline
 90
4
 70
1
 10
1809.1
 20
2433.08
 10
1828.1
 20
2433.08
 10
1828.1
 20
2467.08
 10
1809.1
 20
2467.08
  0
MTEXT
  5
1F2
330
17
100
AcDbEntity
  8
Texto Secao
100
AcDbMText
 10
1818.6
 20
2172.08
 30
0.0
 40
10.0
 71
1
  1
P25.D
  0
MTEXT
  5
1F3
330
17
100
AcDbEntity
  8
Cota Secao (2x)
100
AcDbMText
 10
1580.1
 20
2522.08
 30
0.0
 40
8.0
 71
1
  1
B=19cm  H=60cm
  0
MTEXT
  5
1F4
330
17
100
AcDbEntity
  8
NOMENCLATURA
100
AcDbMText
 10
1580.1
 20
2517.08
 30
0.0
 40
10.0
 71
1
  1
12 PAV - P25
  0
LWPOLYLINE
  5
1F5
330
17
100
AcDbEntity
  8
Paineis
100
AcDbPolyline
 90
4
 70
1
 10
4456.85
 20
2230.07
 10
4506.85
 20
2230.07
 10
4506.85
 20
2232.07
 10
4456.85
 20
2232.07
  0
LWPOLYLINE
  5
1F6
330
17
100
AcDbEntity
  8
Paineis
100
AcDbPolyline
 90
4
 70
1
 10
4456.85
 20
2232.07
 10
4506.85
 20
2232.07
 10
4506.85
 20
2476.07
 10
4456.85
 20
2476.07
  0
LWPOLYLINE
  5
1F7
330
17
100
AcDbEntity
  8
Paineis
100
AcDbPolyline
 90
4
 70
1
 10
4456.85
 20
2476.07
 10
4506.85
 20
2476.07
 10
4506.85
 20
2510.07
 10
4456.85
 20
2510.07
  0
MTEXT
  5
1F8
330
17
100
AcDbEntity
  8
Texto Secao
100
AcDbMText
 10
4481.85
 20
2215.07
 30
0.0
 40
10.0
 71
1
  1
P26.A
  0
LWPOLYLINE
  5
1F9
330
17
100
AcDbEntity
  8
Paineis
100
AcDbPolyline
 90
4
 70
1
 10
4536.85
 20
2230.07
 10
4555.85
 20
2230.07
 10
4555.85
 20
2232.07
 10
4536.85
 20
2232.07
  0
LWPOLYLINE
  5
1FA
330
17
100
AcDbEntity
  8
Paineis
100
AcDbPolyline
 90
4
 70
1
 10
4536.85
 20
2232.07
 10
4555.85
 20
2232.07
 10
4555.85
 20
2476.07
 10
4536.85
 20
2476.07
  0
LWPOLYLINE
  5
1FB
330
17
100
AcDbEntity
  8
Paineis
100
AcDbPolyline
 90
4
 70
1
 10
4536.85
 20
2476.07
 10
4555.85
 20
2476.07
 10
4555.85
 20
2510.07
 10
4536.85
 20
2510.07
  0
MTEXT
  5
1FC
330
17
100
AcDbEntity
  8
Texto Secao
100
AcDbMText
 10
4546.35
 20
2215.07
 30
0.0
 40
10.0
 71
1
  1
P26.B
  0
LWPOLYLINE
  5
1FD
330
17
100
AcDbEntity
  8
Paineis
100
AcDbPolyline
 90
4
 70
1
 10
4585.85
 20
2230.07
 10
4635.85
 20
2230.07
 10
4635.85
 20
2232.07
 10
4585.85
 20
2232.07
  0
LWPOLYLINE
  5
1FE
330
17
100
AcDbEntity
  8
Paineis
100
AcDbPolyline
 90
4
 70
1
 10
4585.85
 20
2232.07
 10
4635.85
 20
2232.07
 10
4635.85
 20
2476.07
 10
4585.85
 20
2476.07
  0
LWPOLYLINE
  5
1FF
330
17
100
AcDbEntity
  8
Paineis
100
AcDbPolyline
 90
4
 70
1
 10
4585.85
 20
2476.07
 10
4635.85
 20
2476.07
 10
4635.85
 20
2510.07
 10
4585.85
 20
2510.07
  0
MTEXT
  5
200
330
17
100
AcDbEntity
  8
Texto Secao
100
AcDbMText
 10
4610.85
 20
2215.07
 30
0.0
 40
10.0
 71
1
  1
P26.C
  0
LWPOLYLINE
  5
201
330
17
100
AcDbEntity
  8
Paineis
100
AcDbPolyline
 90
4
 70
1
 10
4665.85
 20
2230.07
 10
4684.85
 20
2230.07
 10
4684.85
 20
2232.07
 10
4665.85
 20
2232.07
  0
LWPOLYLINE
  5
202
330
17
100
AcDbEntity
  8
Paineis
100
AcDbPolyline
 90
4
 70
1
 10
4665.85
 20
2232.07
 10
4684.85
 20
2232.07
 10
4684.85
 20
2476.07
 10
4665.85
 20
2476.07
  0
LWPOLYLINE
  5
203
330
17
100
AcDbEntity
  8
Paineis
100
AcDbPolyline
 90
4
 70
1
 10
4665.85
 20
2476.07
 10
4684.85
 20
2476.07
 10
4684.85
 20
2510.07
 10
4665.85
 20
2510.07
  0
MTEXT
  5
204
330
17
100
AcDbEntity
  8
Texto Secao
100
AcDbMText
 10
4675.35
 20
2215.07
 30
0.0
 40
10.0
 71
1
  1
P26.D
  0
MTEXT
  5
205
330
17
100
AcDbEntity
  8
Cota Secao (2x)
100
AcDbMText
 10
4456.85
 20
2565.07
 30
0.0
 40
8.0
 71
1
  1
B=19cm  H=50cm
  0
MTEXT
  5
206
330
17
100
AcDbEntity
  8
NOMENCLATURA
100
AcDbMText
 10
4456.85
 20
2560.07
 30
0.0
 40
10.0
 71
1
  1
12 PAV - P26
  0
LWPOLYLINE
  5
207
330
17
100
AcDbEntity
  8
Paineis
100
AcDbPolyline
 90
4
 70
1
 10
4988.68
 20
2235.22
 10
5043.68
 20
2235.22
 10
5043.68
 20
2237.22
 10
4988.68
 20
2237.22
  0
LWPOLYLINE
  5
208
330
17
100
AcDbEntity
  8
Paineis
100
AcDbPolyline
 90
4
 70
1
 10
4988.68
 20
2237.22
 10
5043.68
 20
2237.22
 10
5043.68
 20
2481.22
 10
4988.68
 20
2481.22
  0
LWPOLYLINE
  5
209
330
17
100
AcDbEntity
  8
Paineis
100
AcDbPolyline
 90
4
 70
1
 10
4988.68
 20
2481.22
 10
5043.68
 20
2481.22
 10
5043.68
 20
2515.22
 10
4988.68
 20
2515.22
  0
MTEXT
  5
20A
330
17
100
AcDbEntity
  8
Texto Secao
100
AcDbMText
 10
5016.18
 20
2220.22
 30
0.0
 40
10.0
 71
1
  1
P27.A
  0
LWPOLYLINE
  5
20B
330
17
100
AcDbEntity
  8
Paineis
100
AcDbPolyline
 90
4
 70
1
 10
5073.68
 20
2235.22
 10
5092.68
 20
2235.22
 10
5092.68
 20
2237.22
 10
5073.68
 20
2237.22
  0
LWPOLYLINE
  5
20C
330
17
100
AcDbEntity
  8
Paineis
100
AcDbPolyline
 90
4
 70
1
 10
5073.68
 20
2237.22
 10
5092.68
 20
2237.22
 10
5092.68
 20
2481.22
 10
5073.68
 20
2481.22
  0
LWPOLYLINE
  5
20D
330
17
100
AcDbEntity
  8
Paineis
100
AcDbPolyline
 90
4
 70
1
 10
5073.68
 20
2481.22
 10
5092.68
 20
2481.22
 10
5092.68
 20
2515.22
 10
5073.68
 20
2515.22
  0
MTEXT
  5
20E
330
17
100
AcDbEntity
  8
Texto Secao
100
AcDbMText
 10
5083.18
 20
2220.22
 30
0.0
 40
10.0
 71
1
  1
P27.B
  0
LWPOLYLINE
  5
20F
330
17
100
AcDbEntity
  8
Paineis
100
AcDbPolyline
 90
4
 70
1
 10
5122.68
 20
2235.22
 10
5177.68
 20
2235.22
 10
5177.68
 20
2237.22
 10
5122.68
 20
2237.22
  0
LWPOLYLINE
  5
210
330
17
100
AcDbEntity
  8
Paineis
100
AcDbPolyline
 90
4
 70
1
 10
5122.68
 20
2237.22
 10
5177.68
 20
2237.22
 10
5177.68
 20
2481.22
 10
5122.68
 20
2481.22
  0
LWPOLYLINE
  5
211
330
17
100
AcDbEntity
  8
Paineis
100
AcDbPolyline
 90
4
 70
1
 10
5122.68
 20
2481.22
 10
5177.68
 20
2481.22
 10
5177.68
 20
2515.22
 10
5122.68
 20
2515.22
  0
MTEXT
  5
212
330
17
100
AcDbEntity
  8
Texto Secao
100
AcDbMText
 10
5150.18
 20
2220.22
 30
0.0
 40
10.0
 71
1
  1
P27.C
  0
LWPOLYLINE
  5
213
330
17
100
AcDbEntity
  8
Paineis
100
AcDbPolyline
 90
4
 70
1
 10
5207.68
 20
2235.22
 10
5226.68
 20
2235.22
 10
5226.68
 20
2237.22
 10
5207.68
 20
2237.22
  0
LWPOLYLINE
  5
214
330
17
100
AcDbEntity
  8
Paineis
100
AcDbPolyline
 90
4
 70
1
 10
5207.68
 20
2237.22
 10
5226.68
 20
2237.22
 10
5226.68
 20
2481.22
 10
5207.68
 20
2481.22
  0
LWPOLYLINE
  5
215
330
17
100
AcDbEntity
  8
Paineis
100
AcDbPolyline
 90
4
 70
1
 10
5207.68
 20
2481.22
 10
5226.68
 20
2481.22
 10
5226.68
 20
2515.22
 10
5207.68
 20
2515.22
  0
MTEXT
  5
216
330
17
100
AcDbEntity
  8
Texto Secao
100
AcDbMText
 10
5217.18
 20
2220.22
 30
0.0
 40
10.0
 71
1
  1
P27.D
  0
MTEXT
  5
217
330
17
100
AcDbEntity
  8
Cota Secao (2x)
100
AcDbMText
 10
4988.68
 20
2570.22
 30
0.0
 40
8.0
 71
1
  1
B=19cm  H=55cm
  0
MTEXT
  5
218
330
17
100
AcDbEntity
  8
NOMENCLATURA
100
AcDbMText
 10
4988.68
 20
2565.22
 30
0.0
 40
10.0
 71
1
  1
12 PAV - P27
  0
LWPOLYLINE
  5
219
330
17
100
AcDbEntity
  8
Paineis
100
AcDbPolyline
 90
4
 70
1
 10
2067.07
 20
1871.36
 10
2147.07
 20
1871.36
 10
2147.07
 20
1873.36
 10
2067.07
 20
1873.36
  0
LWPOLYLINE
  5
21A
330
17
100
AcDbEntity
  8
Paineis
100
AcDbPolyline
 90
4
 70
1
 10
2067.07
 20
1873.36
 10
2147.07
 20
1873.36
 10
2147.07
 20
2117.3599999999997
 10
2067.07
 20
2117.3599999999997
  0
LWPOLYLINE
  5
21B
330
17
100
AcDbEntity
  8
Paineis
100
AcDbPolyline
 90
4
 70
1
 10
2067.07
 20
2117.3599999999997
 10
2147.07
 20
2117.3599999999997
 10
2147.07
 20
2151.3599999999997
 10
2067.07
 20
2151.3599999999997
  0
MTEXT
  5
21C
330
17
100
AcDbEntity
  8
Texto Secao
100
AcDbMText
 10
2107.07
 20
1856.36
 30
0.0
 40
10.0
 71
1
  1
P28.A
  0
LWPOLYLINE
  5
21D
330
17
100
AcDbEntity
  8
Paineis
100
AcDbPolyline
 90
4
 70
1
 10
2177.07
 20
1871.36
 10
2201.07
 20
1871.36
 10
2201.07
 20
1873.36
 10
2177.07
 20
1873.36
  0
LWPOLYLINE
  5
21E
330
17
100
AcDbEntity
  8
Paineis
100
AcDbPolyline
 90
4
 70
1
 10
2177.07
 20
1873.36
 10
2201.07
 20
1873.36
 10
2201.07
 20
2117.3599999999997
 10
2177.07
 20
2117.3599999999997
  0
LWPOLYLINE
  5
21F
330
17
100
AcDbEntity
  8
Paineis
100
AcDbPolyline
 90
4
 70
1
 10
2177.07
 20
2117.3599999999997
 10
2201.07
 20
2117.3599999999997
 10
2201.07
 20
2151.3599999999997
 10
2177.07
 20
2151.3599999999997
  0
MTEXT
  5
220
330
17
100
AcDbEntity
  8
Texto Secao
100
AcDbMText
 10
2189.07
 20
1856.36
 30
0.0
 40
10.0
 71
1
  1
P28.B
  0
LWPOLYLINE
  5
221
330
17
100
AcDbEntity
  8
Paineis
100
AcDbPolyline
 90
4
 70
1
 10
2231.07
 20
1871.36
 10
2311.07
 20
1871.36
 10
2311.07
 20
1873.36
 10
2231.07
 20
1873.36
  0
LWPOLYLINE
  5
222
330
17
100
AcDbEntity
  8
Paineis
100
AcDbPolyline
 90
4
 70
1
 10
2231.07
 20
1873.36
 10
2311.07
 20
1873.36
 10
2311.07
 20
2117.3599999999997
 10
2231.07
 20
2117.3599999999997
  0
LWPOLYLINE
  5
223
330
17
100
AcDbEntity
  8
Paineis
100
AcDbPolyline
 90
4
 70
1
 10
2231.07
 20
2117.3599999999997
 10
2311.07
 20
2117.3599999999997
 10
2311.07
 20
2151.3599999999997
 10
2231.07
 20
2151.3599999999997
  0
MTEXT
  5
224
330
17
100
AcDbEntity
  8
Texto Secao
100
AcDbMText
 10
2271.07
 20
1856.36
 30
0.0
 40
10.0
 71
1
  1
P28.C
  0
LWPOLYLINE
  5
225
330
17
100
AcDbEntity
  8
Paineis
100
AcDbPolyline
 90
4
 70
1
 10
2341.07
 20
1871.36
 10
2365.07
 20
1871.36
 10
2365.07
 20
1873.36
 10
2341.07
 20
1873.36
  0
LWPOLYLINE
  5
226
330
17
100
AcDbEntity
  8
Paineis
100
AcDbPolyline
 90
4
 70
1
 10
2341.07
 20
1873.36
 10
2365.07
 20
1873.36
 10
2365.07
 20
2117.3599999999997
 10
2341.07
 20
2117.3599999999997
  0
LWPOLYLINE
  5
227
330
17
100
AcDbEntity
  8
Paineis
100
AcDbPolyline
 90
4
 70
1
 10
2341.07
 20
2117.3599999999997
 10
2365.07
 20
2117.3599999999997
 10
2365.07
 20
2151.3599999999997
 10
2341.07
 20
2151.3599999999997
  0
MTEXT
  5
228
330
17
100
AcDbEntity
  8
Texto Secao
100
AcDbMText
 10
2353.07
 20
1856.36
 30
0.0
 40
10.0
 71
1
  1
P28.D
  0
MTEXT
  5
229
330
17
100
AcDbEntity
  8
Cota Secao (2x)
100
AcDbMText
 10
2067.07
 20
2206.3599999999997
 30
0.0
 40
8.0
 71
1
  1
B=24cm  H=80cm
  0
MTEXT
  5
22A
330
17
100
AcDbEntity
  8
NOMENCLATURA
100
AcDbMText
 10
2067.07
 20
2201.3599999999997
 30
0.0
 40
10.0
 71
1
  1
12 PAV - P28
  0
LWPOLYLINE
  5
22B
330
17
100
AcDbEntity
  8
Paineis
100
AcDbPolyline
 90
4
 70
1
 10
2515.31
 20
1869.96
 10
2581.31
 20
1869.96
 10
2581.31
 20
1871.96
 10
2515.31
 20
1871.96
  0
LWPOLYLINE
  5
22C
330
17
100
AcDbEntity
  8
Paineis
100
AcDbPolyline
 90
4
 70
1
 10
2515.31
 20
1871.96
 10
2581.31
 20
1871.96
 10
2581.31
 20
2115.96
 10
2515.31
 20
2115.96
  0
LWPOLYLINE
  5
22D
330
17
100
AcDbEntity
  8
Paineis
100
AcDbPolyline
 90
4
 70
1
 10
2515.31
 20
2115.96
 10
2581.31
 20
2115.96
 10
2581.31
 20
2149.96
 10
2515.31
 20
2149.96
  0
MTEXT
  5
22E
330
17
100
AcDbEntity
  8
Texto Secao
100
AcDbMText
 10
2548.31
 20
1854.96
 30
0.0
 40
10.0
 71
1
  1
P29.A
  0
LWPOLYLINE
  5
22F
330
17
100
AcDbEntity
  8
Paineis
100
AcDbPolyline
 90
4
 70
1
 10
2611.31
 20
1869.96
 10
2635.31
 20
1869.96
 10
2635.31
 20
1871.96
 10
2611.31
 20
1871.96
  0
LWPOLYLINE
  5
230
330
17
100
AcDbEntity
  8
Paineis
100
AcDbPolyline
 90
4
 70
1
 10
2611.31
 20
1871.96
 10
2635.31
 20
1871.96
 10
2635.31
 20
2115.96
 10
2611.31
 20
2115.96
  0
LWPOLYLINE
  5
231
330
17
100
AcDbEntity
  8
Paineis
100
AcDbPolyline
 90
4
 70
1
 10
2611.31
 20
2115.96
 10
2635.31
 20
2115.96
 10
2635.31
 20
2149.96
 10
2611.31
 20
2149.96
  0
MTEXT
  5
232
330
17
100
AcDbEntity
  8
Texto Secao
100
AcDbMText
 10
2623.31
 20
1854.96
 30
0.0
 40
10.0
 71
1
  1
P29.B
  0
LWPOLYLINE
  5
233
330
17
100
AcDbEntity
  8
Paineis
100
AcDbPolyline
 90
4
 70
1
 10
2665.31
 20
1869.96
 10
2731.31
 20
1869.96
 10
2731.31
 20
1871.96
 10
2665.31
 20
1871.96
  0
LWPOLYLINE
  5
234
330
17
100
AcDbEntity
  8
Paineis
100
AcDbPolyline
 90
4
 70
1
 10
2665.31
 20
1871.96
 10
2731.31
 20
1871.96
 10
2731.31
 20
2115.96
 10
2665.31
 20
2115.96
  0
LWPOLYLINE
  5
235
330
17
100
AcDbEntity
  8
Paineis
100
AcDbPolyline
 90
4
 70
1
 10
2665.31
 20
2115.96
 10
2731.31
 20
2115.96
 10
2731.31
 20
2149.96
 10
2665.31
 20
2149.96
  0
MTEXT
  5
236
330
17
100
AcDbEntity
  8
Texto Secao
100
AcDbMText
 10
2698.31
 20
1854.96
 30
0.0
 40
10.0
 71
1
  1
P29.C
  0
LWPOLYLINE
  5
237
330
17
100
AcDbEntity
  8
Paineis
100
AcDbPolyline
 90
4
 70
1
 10
2761.31
 20
1869.96
 10
2785.31
 20
1869.96
 10
2785.31
 20
1871.96
 10
2761.31
 20
1871.96
  0
LWPOLYLINE
  5
238
330
17
100
AcDbEntity
  8
Paineis
100
AcDbPolyline
 90
4
 70
1
 10
2761.31
 20
1871.96
 10
2785.31
 20
1871.96
 10
2785.31
 20
2115.96
 10
2761.31
 20
2115.96
  0
LWPOLYLINE
  5
239
330
17
100
AcDbEntity
  8
Paineis
100
AcDbPolyline
 90
4
 70
1
 10
2761.31
 20
2115.96
 10
2785.31
 20
2115.96
 10
2785.31
 20
2149.96
 10
2761.31
 20
2149.96
  0
MTEXT
  5
23A
330
17
100
AcDbEntity
  8
Texto Secao
100
AcDbMText
 10
2773.31
 20
1854.96
 30
0.0
 40
10.0
 71
1
  1
P29.D
  0
MTEXT
  5
23B
330
17
100
AcDbEntity
  8
Cota Secao (2x)
100
AcDbMText
 10
2515.31
 20
2204.96
 30
0.0
 40
8.0
 71
1
  1
B=24cm  H=66cm
  0
MTEXT
  5
23C
330
17
100
AcDbEntity
  8
NOMENCLATURA
100
AcDbMText
 10
2515.31
 20
2199.96
 30
0.0
 40
10.0
 71
1
  1
12 PAV - P29
  0
LWPOLYLINE
  5
23D
330
17
100
AcDbEntity
  8
Paineis
100
AcDbPolyline
 90
4
 70
1
 10
3050.56
 20
1859.52
 10
3116.56
 20
1859.52
 10
3116.56
 20
1861.52
 10
3050.56
 20
1861.52
  0
LWPOLYLINE
  5
23E
330
17
100
AcDbEntity
  8
Paineis
100
AcDbPolyline
 90
4
 70
1
 10
3050.56
 20
1861.52
 10
3116.56
 20
1861.52
 10
3116.56
 20
2105.52
 10
3050.56
 20
2105.52
  0
LWPOLYLINE
  5
23F
330
17
100
AcDbEntity
  8
Paineis
100
AcDbPolyline
 90
4
 70
1
 10
3050.56
 20
2105.52
 10
3116.56
 20
2105.52
 10
3116.56
 20
2139.52
 10
3050.56
 20
2139.52
  0
MTEXT
  5
240
330
17
100
AcDbEntity
  8
Texto Secao
100
AcDbMText
 10
3083.56
 20
1844.52
 30
0.0
 40
10.0
 71
1
  1
P30.A
  0
LWPOLYLINE
  5
241
330
17
100
AcDbEntity
  8
Paineis
100
AcDbPolyline
 90
4
 70
1
 10
3146.56
 20
1859.52
 10
3170.56
 20
1859.52
 10
3170.56
 20
1861.52
 10
3146.56
 20
1861.52
  0
LWPOLYLINE
  5
242
330
17
100
AcDbEntity
  8
Paineis
100
AcDbPolyline
 90
4
 70
1
 10
3146.56
 20
1861.52
 10
3170.56
 20
1861.52
 10
3170.56
 20
2105.52
 10
3146.56
 20
2105.52
  0
LWPOLYLINE
  5
243
330
17
100
AcDbEntity
  8
Paineis
100
AcDbPolyline
 90
4
 70
1
 10
3146.56
 20
2105.52
 10
3170.56
 20
2105.52
 10
3170.56
 20
2139.52
 10
3146.56
 20
2139.52
  0
MTEXT
  5
244
330
17
100
AcDbEntity
  8
Texto Secao
100
AcDbMText
 10
3158.56
 20
1844.52
 30
0.0
 40
10.0
 71
1
  1
P30.B
  0
LWPOLYLINE
  5
245
330
17
100
AcDbEntity
  8
Paineis
100
AcDbPolyline
 90
4
 70
1
 10
3200.56
 20
1859.52
 10
3266.56
 20
1859.52
 10
3266.56
 20
1861.52
 10
3200.56
 20
1861.52
  0
LWPOLYLINE
  5
246
330
17
100
AcDbEntity
  8
Paineis
100
AcDbPolyline
 90
4
 70
1
 10
3200.56
 20
1861.52
 10
3266.56
 20
1861.52
 10
3266.56
 20
2105.52
 10
3200.56
 20
2105.52
  0
LWPOLYLINE
  5
247
330
17
100
AcDbEntity
  8
Paineis
100
AcDbPolyline
 90
4
 70
1
 10
3200.56
 20
2105.52
 10
3266.56
 20
2105.52
 10
3266.56
 20
2139.52
 10
3200.56
 20
2139.52
  0
MTEXT
  5
248
330
17
100
AcDbEntity
  8
Texto Secao
100
AcDbMText
 10
3233.56
 20
1844.52
 30
0.0
 40
10.0
 71
1
  1
P30.C
  0
LWPOLYLINE
  5
249
330
17
100
AcDbEntity
  8
Paineis
100
AcDbPolyline
 90
4
 70
1
 10
3296.56
 20
1859.52
 10
3320.56
 20
1859.52
 10
3320.56
 20
1861.52
 10
3296.56
 20
1861.52
  0
LWPOLYLINE
  5
24A
330
17
100
AcDbEntity
  8
Paineis
100
AcDbPolyline
 90
4
 70
1
 10
3296.56
 20
1861.52
 10
3320.56
 20
1861.52
 10
3320.56
 20
2105.52
 10
3296.56
 20
2105.52
  0
LWPOLYLINE
  5
24B
330
17
100
AcDbEntity
  8
Paineis
100
AcDbPolyline
 90
4
 70
1
 10
3296.56
 20
2105.52
 10
3320.56
 20
2105.52
 10
3320.56
 20
2139.52
 10
3296.56
 20
2139.52
  0
MTEXT
  5
24C
330
17
100
AcDbEntity
  8
Texto Secao
100
AcDbMText
 10
3308.56
 20
1844.52
 30
0.0
 40
10.0
 71
1
  1
P30.D
  0
MTEXT
  5
24D
330
17
100
AcDbEntity
  8
Cota Secao (2x)
100
AcDbMText
 10
3050.56
 20
2194.52
 30
0.0
 40
8.0
 71
1
  1
B=24cm  H=66cm
  0
MTEXT
  5
24E
330
17
100
AcDbEntity
  8
NOMENCLATURA
100
AcDbMText
 10
3050.56
 20
2189.52
 30
0.0
 40
10.0
 71
1
  1
12 PAV - P30
  0
LWPOLYLINE
  5
24F
330
17
100
AcDbEntity
  8
Paineis
100
AcDbPolyline
 90
4
 70
1
 10
3487.7
 20
1909.4899999999998
 10
3553.7
 20
1909.4899999999998
 10
3553.7
 20
1911.4899999999998
 10
3487.7
 20
1911.4899999999998
  0
LWPOLYLINE
  5
250
330
17
100
AcDbEntity
  8
Paineis
100
AcDbPolyline
 90
4
 70
1
 10
3487.7
 20
1911.4899999999998
 10
3553.7
 20
1911.4899999999998
 10
3553.7
 20
2155.49
 10
3487.7
 20
2155.49
  0
LWPOLYLINE
  5
251
330
17
100
AcDbEntity
  8
Paineis
100
AcDbPolyline
 90
4
 70
1
 10
3487.7
 20
2155.49
 10
3553.7
 20
2155.49
 10
3553.7
 20
2189.49
 10
3487.7
 20
2189.49
  0
MTEXT
  5
252
330
17
100
AcDbEntity
  8
Texto Secao
100
AcDbMText
 10
3520.7
 20
1894.4899999999998
 30
0.0
 40
10.0
 71
1
  1
P31.A
  0
LWPOLYLINE
  5
253
330
17
100
AcDbEntity
  8
Paineis
100
AcDbPolyline
 90
4
 70
1
 10
3583.7
 20
1909.4899999999998
 10
3607.7
 20
1909.4899999999998
 10
3607.7
 20
1911.4899999999998
 10
3583.7
 20
1911.4899999999998
  0
LWPOLYLINE
  5
254
330
17
100
AcDbEntity
  8
Paineis
100
AcDbPolyline
 90
4
 70
1
 10
3583.7
 20
1911.4899999999998
 10
3607.7
 20
1911.4899999999998
 10
3607.7
 20
2155.49
 10
3583.7
 20
2155.49
  0
LWPOLYLINE
  5
255
330
17
100
AcDbEntity
  8
Paineis
100
AcDbPolyline
 90
4
 70
1
 10
3583.7
 20
2155.49
 10
3607.7
 20
2155.49
 10
3607.7
 20
2189.49
 10
3583.7
 20
2189.49
  0
MTEXT
  5
256
330
17
100
AcDbEntity
  8
Texto Secao
100
AcDbMText
 10
3595.7
 20
1894.4899999999998
 30
0.0
 40
10.0
 71
1
  1
P31.B
  0
LWPOLYLINE
  5
257
330
17
100
AcDbEntity
  8
Paineis
100
AcDbPolyline
 90
4
 70
1
 10
3637.7
 20
1909.4899999999998
 10
3703.7
 20
1909.4899999999998
 10
3703.7
 20
1911.4899999999998
 10
3637.7
 20
1911.4899999999998
  0
LWPOLYLINE
  5
258
330
17
100
AcDbEntity
  8
Paineis
100
AcDbPolyline
 90
4
 70
1
 10
3637.7
 20
1911.4899999999998
 10
3703.7
 20
1911.4899999999998
 10
3703.7
 20
2155.49
 10
3637.7
 20
2155.49
  0
LWPOLYLINE
  5
259
330
17
100
AcDbEntity
  8
Paineis
100
AcDbPolyline
 90
4
 70
1
 10
3637.7
 20
2155.49
 10
3703.7
 20
2155.49
 10
3703.7
 20
2189.49
 10
3637.7
 20
2189.49
  0
MTEXT
  5
25A
330
17
100
AcDbEntity
  8
Texto Secao
100
AcDbMText
 10
3670.7
 20
1894.4899999999998
 30
0.0
 40
10.0
 71
1
  1
P31.C
  0
LWPOLYLINE
  5
25B
330
17
100
AcDbEntity
  8
Paineis
100
AcDbPolyline
 90
4
 70
1
 10
3733.7
 20
1909.4899999999998
 10
3757.7
 20
1909.4899999999998
 10
3757.7
 20
1911.4899999999998
 10
3733.7
 20
1911.4899999999998
  0
LWPOLYLINE
  5
25C
330
17
100
AcDbEntity
  8
Paineis
100
AcDbPolyline
 90
4
 70
1
 10
3733.7
 20
1911.4899999999998
 10
3757.7
 20
1911.4899999999998
 10
3757.7
 20
2155.49
 10
3733.7
 20
2155.49
  0
LWPOLYLINE
  5
25D
330
17
100
AcDbEntity
  8
Paineis
100
AcDbPolyline
 90
4
 70
1
 10
3733.7
 20
2155.49
 10
3757.7
 20
2155.49
 10
3757.7
 20
2189.49
 10
3733.7
 20
2189.49
  0
MTEXT
  5
25E
330
17
100
AcDbEntity
  8
Texto Secao
100
AcDbMText
 10
3745.7
 20
1894.4899999999998
 30
0.0
 40
10.0
 71
1
  1
P31.D
  0
MTEXT
  5
25F
330
17
100
AcDbEntity
  8
Cota Secao (2x)
100
AcDbMText
 10
3487.7
 20
2244.49
 30
0.0
 40
8.0
 71
1
  1
B=24cm  H=66cm
  0
MTEXT
  5
260
330
17
100
AcDbEntity
  8
NOMENCLATURA
100
AcDbMText
 10
3487.7
 20
2239.49
 30
0.0
 40
10.0
 71
1
  1
12 PAV - P31
  0
LWPOLYLINE
  5
261
330
17
100
AcDbEntity
  8
Paineis
100
AcDbPolyline
 90
4
 70
1
 10
3898.89
 20
1896.56
 10
3964.89
 20
1896.56
 10
3964.89
 20
1898.56
 10
3898.89
 20
1898.56
  0
LWPOLYLINE
  5
262
330
17
100
AcDbEntity
  8
Paineis
100
AcDbPolyline
 90
4
 70
1
 10
3898.89
 20
1898.56
 10
3964.89
 20
1898.56
 10
3964.89
 20
2142.56
 10
3898.89
 20
2142.56
  0
LWPOLYLINE
  5
263
330
17
100
AcDbEntity
  8
Paineis
100
AcDbPolyline
 90
4
 70
1
 10
3898.89
 20
2142.56
 10
3964.89
 20
2142.56
 10
3964.89
 20
2176.56
 10
3898.89
 20
2176.56
  0
MTEXT
  5
264
330
17
100
AcDbEntity
  8
Texto Secao
100
AcDbMText
 10
3931.89
 20
1881.56
 30
0.0
 40
10.0
 71
1
  1
P32.A
  0
LWPOLYLINE
  5
265
330
17
100
AcDbEntity
  8
Paineis
100
AcDbPolyline
 90
4
 70
1
 10
3994.89
 20
1896.56
 10
4018.89
 20
1896.56
 10
4018.89
 20
1898.56
 10
3994.89
 20
1898.56
  0
LWPOLYLINE
  5
266
330
17
100
AcDbEntity
  8
Paineis
100
AcDbPolyline
 90
4
 70
1
 10
3994.89
 20
1898.56
 10
4018.89
 20
1898.56
 10
4018.89
 20
2142.56
 10
3994.89
 20
2142.56
  0
LWPOLYLINE
  5
267
330
17
100
AcDbEntity
  8
Paineis
100
AcDbPolyline
 90
4
 70
1
 10
3994.89
 20
2142.56
 10
4018.89
 20
2142.56
 10
4018.89
 20
2176.56
 10
3994.89
 20
2176.56
  0
MTEXT
  5
268
330
17
100
AcDbEntity
  8
Texto Secao
100
AcDbMText
 10
4006.89
 20
1881.56
 30
0.0
 40
10.0
 71
1
  1
P32.B
  0
LWPOLYLINE
  5
269
330
17
100
AcDbEntity
  8
Paineis
100
AcDbPolyline
 90
4
 70
1
 10
4048.89
 20
1896.56
 10
4114.889999999999
 20
1896.56
 10
4114.889999999999
 20
1898.56
 10
4048.89
 20
1898.56
  0
LWPOLYLINE
  5
26A
330
17
100
AcDbEntity
  8
Paineis
100
AcDbPolyline
 90
4
 70
1
 10
4048.89
 20
1898.56
 10
4114.889999999999
 20
1898.56
 10
4114.889999999999
 20
2142.56
 10
4048.89
 20
2142.56
  0
LWPOLYLINE
  5
26B
330
17
100
AcDbEntity
  8
Paineis
100
AcDbPolyline
 90
4
 70
1
 10
4048.89
 20
2142.56
 10
4114.889999999999
 20
2142.56
 10
4114.889999999999
 20
2176.56
 10
4048.89
 20
2176.56
  0
MTEXT
  5
26C
330
17
100
AcDbEntity
  8
Texto Secao
100
AcDbMText
 10
4081.89
 20
1881.56
 30
0.0
 40
10.0
 71
1
  1
P32.C
  0
LWPOLYLINE
  5
26D
330
17
100
AcDbEntity
  8
Paineis
100
AcDbPolyline
 90
4
 70
1
 10
4144.889999999999
 20
1896.56
 10
4168.889999999999
 20
1896.56
 10
4168.889999999999
 20
1898.56
 10
4144.889999999999
 20
1898.56
  0
LWPOLYLINE
  5
26E
330
17
100
AcDbEntity
  8
Paineis
100
AcDbPolyline
 90
4
 70
1
 10
4144.889999999999
 20
1898.56
 10
4168.889999999999
 20
1898.56
 10
4168.889999999999
 20
2142.56
 10
4144.889999999999
 20
2142.56
  0
LWPOLYLINE
  5
26F
330
17
100
AcDbEntity
  8
Paineis
100
AcDbPolyline
 90
4
 70
1
 10
4144.889999999999
 20
2142.56
 10
4168.889999999999
 20
2142.56
 10
4168.889999999999
 20
2176.56
 10
4144.889999999999
 20
2176.56
  0
MTEXT
  5
270
330
17
100
AcDbEntity
  8
Texto Secao
100
AcDbMText
 10
4156.889999999999
 20
1881.56
 30
0.0
 40
10.0
 71
1
  1
P32.D
  0
MTEXT
  5
271
330
17
100
AcDbEntity
  8
Cota Secao (2x)
100
AcDbMText
 10
3898.89
 20
2231.56
 30
0.0
 40
8.0
 71
1
  1
B=24cm  H=66cm
  0
MTEXT
  5
272
330
17
100
AcDbEntity
  8
NOMENCLATURA
100
AcDbMText
 10
3898.89
 20
2226.56
 30
0.0
 40
10.0
 71
1
  1
12 PAV - P32
  0
LWPOLYLINE
  5
273
330
17
100
AcDbEntity
  8
Paineis
100
AcDbPolyline
 90
4
 70
1
 10
4223.02
 20
1852.81
 10
4323.02
 20
1852.81
 10
4323.02
 20
1854.81
 10
4223.02
 20
1854.81
  0
LWPOLYLINE
  5
274
330
17
100
AcDbEntity
  8
Paineis
100
AcDbPolyline
 90
4
 70
1
 10
4223.02
 20
1854.81
 10
4323.02
 20
1854.81
 10
4323.02
 20
2098.81
 10
4223.02
 20
2098.81
  0
LWPOLYLINE
  5
275
330
17
100
AcDbEntity
  8
Paineis
100
AcDbPolyline
 90
4
 70
1
 10
4223.02
 20
2098.81
 10
4323.02
 20
2098.81
 10
4323.02
 20
2132.81
 10
4223.02
 20
2132.81
  0
MTEXT
  5
276
330
17
100
AcDbEntity
  8
Texto Secao
100
AcDbMText
 10
4273.02
 20
1837.81
 30
0.0
 40
10.0
 71
1
  1
P33.A
  0
LWPOLYLINE
  5
277
330
17
100
AcDbEntity
  8
Paineis
100
AcDbPolyline
 90
4
 70
1
 10
4353.02
 20
1852.81
 10
4372.02
 20
1852.81
 10
4372.02
 20
1854.81
 10
4353.02
 20
1854.81
  0
LWPOLYLINE
  5
278
330
17
100
AcDbEntity
  8
Paineis
100
AcDbPolyline
 90
4
 70
1
 10
4353.02
 20
1854.81
 10
4372.02
 20
1854.81
 10
4372.02
 20
2098.81
 10
4353.02
 20
2098.81
  0
LWPOLYLINE
  5
279
330
17
100
AcDbEntity
  8
Paineis
100
AcDbPolyline
 90
4
 70
1
 10
4353.02
 20
2098.81
 10
4372.02
 20
2098.81
 10
4372.02
 20
2132.81
 10
4353.02
 20
2132.81
  0
MTEXT
  5
27A
330
17
100
AcDbEntity
  8
Texto Secao
100
AcDbMText
 10
4362.52
 20
1837.81
 30
0.0
 40
10.0
 71
1
  1
P33.B
  0
LWPOLYLINE
  5
27B
330
17
100
AcDbEntity
  8
Paineis
100
AcDbPolyline
 90
4
 70
1
 10
4402.02
 20
1852.81
 10
4502.02
 20
1852.81
 10
4502.02
 20
1854.81
 10
4402.02
 20
1854.81
  0
LWPOLYLINE
  5
27C
330
17
100
AcDbEntity
  8
Paineis
100
AcDbPolyline
 90
4
 70
1
 10
4402.02
 20
1854.81
 10
4502.02
 20
1854.81
 10
4502.02
 20
2098.81
 10
4402.02
 20
2098.81
  0
LWPOLYLINE
  5
27D
330
17
100
AcDbEntity
  8
Paineis
100
AcDbPolyline
 90
4
 70
1
 10
4402.02
 20
2098.81
 10
4502.02
 20
2098.81
 10
4502.02
 20
2132.81
 10
4402.02
 20
2132.81
  0
MTEXT
  5
27E
330
17
100
AcDbEntity
  8
Texto Secao
100
AcDbMText
 10
4452.02
 20
1837.81
 30
0.0
 40
10.0
 71
1
  1
P33.C
  0
LWPOLYLINE
  5
27F
330
17
100
AcDbEntity
  8
Paineis
100
AcDbPolyline
 90
4
 70
1
 10
4532.02
 20
1852.81
 10
4551.02
 20
1852.81
 10
4551.02
 20
1854.81
 10
4532.02
 20
1854.81
  0
LWPOLYLINE
  5
280
330
17
100
AcDbEntity
  8
Paineis
100
AcDbPolyline
 90
4
 70
1
 10
4532.02
 20
1854.81
 10
4551.02
 20
1854.81
 10
4551.02
 20
2098.81
 10
4532.02
 20
2098.81
  0
LWPOLYLINE
  5
281
330
17
100
AcDbEntity
  8
Paineis
100
AcDbPolyline
 90
4
 70
1
 10
4532.02
 20
2098.81
 10
4551.02
 20
2098.81
 10
4551.02
 20
2132.81
 10
4532.02
 20
2132.81
  0
MTEXT
  5
282
330
17
100
AcDbEntity
  8
Texto Secao
100
AcDbMText
 10
4541.52
 20
1837.81
 30
0.0
 40
10.0
 71
1
  1
P33.D
  0
MTEXT
  5
283
330
17
100
AcDbEntity
  8
Cota Secao (2x)
100
AcDbMText
 10
4223.02
 20
2187.81
 30
0.0
 40
8.0
 71
1
  1
B=19cm  H=100cm
  0
MTEXT
  5
284
330
17
100
AcDbEntity
  8
NOMENCLATURA
100
AcDbMText
 10
4223.02
 20
2182.81
 30
0.0
 40
10.0
 71
1
  1
12 PAV - P33
  0
LWPOLYLINE
  5
285
330
17
100
AcDbEntity
  8
Paineis
100
AcDbPolyline
 90
4
 70
1
 10
4637.09
 20
1851.47
 10
4697.09
 20
1851.47
 10
4697.09
 20
1853.47
 10
4637.09
 20
1853.47
  0
LWPOLYLINE
  5
286
330
17
100
AcDbEntity
  8
Paineis
100
AcDbPolyline
 90
4
 70
1
 10
4637.09
 20
1853.47
 10
4697.09
 20
1853.47
 10
4697.09
 20
2097.4700000000003
 10
4637.09
 20
2097.4700000000003
  0
LWPOLYLINE
  5
287
330
17
100
AcDbEntity
  8
Paineis
100
AcDbPolyline
 90
4
 70
1
 10
4637.09
 20
2097.4700000000003
 10
4697.09
 20
2097.4700000000003
 10
4697.09
 20
2131.4700000000003
 10
4637.09
 20
2131.4700000000003
  0
MTEXT
  5
288
330
17
100
AcDbEntity
  8
Texto Secao
100
AcDbMText
 10
4667.09
 20
1836.47
 30
0.0
 40
10.0
 71
1
  1
P34.A
  0
LWPOLYLINE
  5
289
330
17
100
AcDbEntity
  8
Paineis
100
AcDbPolyline
 90
4
 70
1
 10
4727.09
 20
1851.47
 10
4746.09
 20
1851.47
 10
4746.09
 20
1853.47
 10
4727.09
 20
1853.47
  0
LWPOLYLINE
  5
28A
330
17
100
AcDbEntity
  8
Paineis
100
AcDbPolyline
 90
4
 70
1
 10
4727.09
 20
1853.47
 10
4746.09
 20
1853.47
 10
4746.09
 20
2097.4700000000003
 10
4727.09
 20
2097.4700000000003
  0
LWPOLYLINE
  5
28B
330
17
100
AcDbEntity
  8
Paineis
100
AcDbPolyline
 90
4
 70
1
 10
4727.09
 20
2097.4700000000003
 10
4746.09
 20
2097.4700000000003
 10
4746.09
 20
2131.4700000000003
 10
4727.09
 20
2131.4700000000003
  0
MTEXT
  5
28C
330
17
100
AcDbEntity
  8
Texto Secao
100
AcDbMText
 10
4736.59
 20
1836.47
 30
0.0
 40
10.0
 71
1
  1
P34.B
  0
LWPOLYLINE
  5
28D
330
17
100
AcDbEntity
  8
Paineis
100
AcDbPolyline
 90
4
 70
1
 10
4776.09
 20
1851.47
 10
4836.09
 20
1851.47
 10
4836.09
 20
1853.47
 10
4776.09
 20
1853.47
  0
LWPOLYLINE
  5
28E
330
17
100
AcDbEntity
  8
Paineis
100
AcDbPolyline
 90
4
 70
1
 10
4776.09
 20
1853.47
 10
4836.09
 20
1853.47
 10
4836.09
 20
2097.4700000000003
 10
4776.09
 20
2097.4700000000003
  0
LWPOLYLINE
  5
28F
330
17
100
AcDbEntity
  8
Paineis
100
AcDbPolyline
 90
4
 70
1
 10
4776.09
 20
2097.4700000000003
 10
4836.09
 20
2097.4700000000003
 10
4836.09
 20
2131.4700000000003
 10
4776.09
 20
2131.4700000000003
  0
MTEXT
  5
290
330
17
100
AcDbEntity
  8
Texto Secao
100
AcDbMText
 10
4806.09
 20
1836.47
 30
0.0
 40
10.0
 71
1
  1
P34.C
  0
LWPOLYLINE
  5
291
330
17
100
AcDbEntity
  8
Paineis
100
AcDbPolyline
 90
4
 70
1
 10
4866.09
 20
1851.47
 10
4885.09
 20
1851.47
 10
4885.09
 20
1853.47
 10
4866.09
 20
1853.47
  0
LWPOLYLINE
  5
292
330
17
100
AcDbEntity
  8
Paineis
100
AcDbPolyline
 90
4
 70
1
 10
4866.09
 20
1853.47
 10
4885.09
 20
1853.47
 10
4885.09
 20
2097.4700000000003
 10
4866.09
 20
2097.4700000000003
  0
LWPOLYLINE
  5
293
330
17
100
AcDbEntity
  8
Paineis
100
AcDbPolyline
 90
4
 70
1
 10
4866.09
 20
2097.4700000000003
 10
4885.09
 20
2097.4700000000003
 10
4885.09
 20
2131.4700000000003
 10
4866.09
 20
2131.4700000000003
  0
MTEXT
  5
294
330
17
100
AcDbEntity
  8
Texto Secao
100
AcDbMText
 10
4875.59
 20
1836.47
 30
0.0
 40
10.0
 71
1
  1
P34.D
  0
MTEXT
  5
295
330
17
100
AcDbEntity
  8
Cota Secao (2x)
100
AcDbMText
 10
4637.09
 20
2186.4700000000003
 30
0.0
 40
8.0
 71
1
  1
B=19cm  H=60cm
  0
MTEXT
  5
296
330
17
100
AcDbEntity
  8
NOMENCLATURA
100
AcDbMText
 10
4637.09
 20
2181.4700000000003
 30
0.0
 40
10.0
 71
1
  1
12 PAV - P34
  0
LWPOLYLINE
  5
297
330
17
100
AcDbEntity
  8
Paineis
100
AcDbPolyline
 90
4
 70
1
 10
5015.27
 20
1855.05
 10
5075.27
 20
1855.05
 10
5075.27
 20
1857.05
 10
5015.27
 20
1857.05
  0
LWPOLYLINE
  5
298
330
17
100
AcDbEntity
  8
Paineis
100
AcDbPolyline
 90
4
 70
1
 10
5015.27
 20
1857.05
 10
5075.27
 20
1857.05
 10
5075.27
 20
2101.05
 10
5015.27
 20
2101.05
  0
LWPOLYLINE
  5
299
330
17
100
AcDbEntity
  8
Paineis
100
AcDbPolyline
 90
4
 70
1
 10
5015.27
 20
2101.05
 10
5075.27
 20
2101.05
 10
5075.27
 20
2135.05
 10
5015.27
 20
2135.05
  0
MTEXT
  5
29A
330
17
100
AcDbEntity
  8
Texto Secao
100
AcDbMText
 10
5045.27
 20
1840.05
 30
0.0
 40
10.0
 71
1
  1
P35.A
  0
LWPOLYLINE
  5
29B
330
17
100
AcDbEntity
  8
Paineis
100
AcDbPolyline
 90
4
 70
1
 10
5105.27
 20
1855.05
 10
5124.27
 20
1855.05
 10
5124.27
 20
1857.05
 10
5105.27
 20
1857.05
  0
LWPOLYLINE
  5
29C
330
17
100
AcDbEntity
  8
Paineis
100
AcDbPolyline
 90
4
 70
1
 10
5105.27
 20
1857.05
 10
5124.27
 20
1857.05
 10
5124.27
 20
2101.05
 10
5105.27
 20
2101.05
  0
LWPOLYLINE
  5
29D
330
17
100
AcDbEntity
  8
Paineis
100
AcDbPolyline
 90
4
 70
1
 10
5105.27
 20
2101.05
 10
5124.27
 20
2101.05
 10
5124.27
 20
2135.05
 10
5105.27
 20
2135.05
  0
MTEXT
  5
29E
330
17
100
AcDbEntity
  8
Texto Secao
100
AcDbMText
 10
5114.77
 20
1840.05
 30
0.0
 40
10.0
 71
1
  1
P35.B
  0
LWPOLYLINE
  5
29F
330
17
100
AcDbEntity
  8
Paineis
100
AcDbPolyline
 90
4
 70
1
 10
5154.27
 20
1855.05
 10
5214.27
 20
1855.05
 10
5214.27
 20
1857.05
 10
5154.27
 20
1857.05
  0
LWPOLYLINE
  5
2A0
330
17
100
AcDbEntity
  8
Paineis
100
AcDbPolyline
 90
4
 70
1
 10
5154.27
 20
1857.05
 10
5214.27
 20
1857.05
 10
5214.27
 20
2101.05
 10
5154.27
 20
2101.05
  0
LWPOLYLINE
  5
2A1
330
17
100
AcDbEntity
  8
Paineis
100
AcDbPolyline
 90
4
 70
1
 10
5154.27
 20
2101.05
 10
5214.27
 20
2101.05
 10
5214.27
 20
2135.05
 10
5154.27
 20
2135.05
  0
MTEXT
  5
2A2
330
17
100
AcDbEntity
  8
Texto Secao
100
AcDbMText
 10
5184.27
 20
1840.05
 30
0.0
 40
10.0
 71
1
  1
P35.C
  0
LWPOLYLINE
  5
2A3
330
17
100
AcDbEntity
  8
Paineis
100
AcDbPolyline
 90
4
 70
1
 10
5244.27
 20
1855.05
 10
5263.27
 20
1855.05
 10
5263.27
 20
1857.05
 10
5244.27
 20
1857.05
  0
LWPOLYLINE
  5
2A4
330
17
100
AcDbEntity
  8
Paineis
100
AcDbPolyline
 90
4
 70
1
 10
5244.27
 20
1857.05
 10
5263.27
 20
1857.05
 10
5263.27
 20
2101.05
 10
5244.27
 20
2101.05
  0
LWPOLYLINE
  5
2A5
330
17
100
AcDbEntity
  8
Paineis
100
AcDbPolyline
 90
4
 70
1
 10
5244.27
 20
2101.05
 10
5263.27
 20
2101.05
 10
5263.27
 20
2135.05
 10
5244.27
 20
2135.05
  0
MTEXT
  5
2A6
330
17
100
AcDbEntity
  8
Texto Secao
100
AcDbMText
 10
5253.77
 20
1840.05
 30
0.0
 40
10.0
 71
1
  1
P35.D
  0
MTEXT
  5
2A7
330
17
100
AcDbEntity
  8
Cota Secao (2x)
100
AcDbMText
 10
5015.27
 20
2190.05
 30
0.0
 40
8.0
 71
1
  1
B=19cm  H=60cm
  0
MTEXT
  5
2A8
330
17
100
AcDbEntity
  8
NOMENCLATURA
100
AcDbMText
 10
5015.27
 20
2185.05
 30
0.0
 40
10.0
 71
1
  1
12 PAV - P35
  0
LWPOLYLINE
  5
2A9
330
17
100
AcDbEntity
  8
Paineis
100
AcDbPolyline
 90
4
 70
1
 10
1528.36
 20
2367.19
 10
1578.36
 20
2367.19
 10
1578.36
 20
2369.19
 10
1528.36
 20
2369.19
  0
LWPOLYLINE
  5
2AA
330
17
100
AcDbEntity
  8
Paineis
100
AcDbPolyline
 90
4
 70
1
 10
1528.36
 20
2369.19
 10
1578.36
 20
2369.19
 10
1578.36
 20
2613.19
 10
1528.36
 20
2613.19
  0
LWPOLYLINE
  5
2AB
330
17
100
AcDbEntity
  8
Paineis
100
AcDbPolyline
 90
4
 70
1
 10
1528.36
 20
2613.19
 10
1578.36
 20
2613.19
 10
1578.36
 20
2647.19
 10
1528.36
 20
2647.19
  0
MTEXT
  5
2AC
330
17
100
AcDbEntity
  8
Texto Secao
100
AcDbMText
 10
1553.36
 20
2352.19
 30
0.0
 40
10.0
 71
1
  1
P41.A
  0
LWPOLYLINE
  5
2AD
330
17
100
AcDbEntity
  8
Paineis
100
AcDbPolyline
 90
4
 70
1
 10
1608.36
 20
2367.19
 10
1627.36
 20
2367.19
 10
1627.36
 20
2369.19
 10
1608.36
 20
2369.19
  0
LWPOLYLINE
  5
2AE
330
17
100
AcDbEntity
  8
Paineis
100
AcDbPolyline
 90
4
 70
1
 10
1608.36
 20
2369.19
 10
1627.36
 20
2369.19
 10
1627.36
 20
2613.19
 10
1608.36
 20
2613.19
  0
LWPOLYLINE
  5
2AF
330
17
100
AcDbEntity
  8
Paineis
100
AcDbPolyline
 90
4
 70
1
 10
1608.36
 20
2613.19
 10
1627.36
 20
2613.19
 10
1627.36
 20
2647.19
 10
1608.36
 20
2647.19
  0
MTEXT
  5
2B0
330
17
100
AcDbEntity
  8
Texto Secao
100
AcDbMText
 10
1617.86
 20
2352.19
 30
0.0
 40
10.0
 71
1
  1
P41.B
  0
LWPOLYLINE
  5
2B1
330
17
100
AcDbEntity
  8
Paineis
100
AcDbPolyline
 90
4
 70
1
 10
1657.36
 20
2367.19
 10
1707.36
 20
2367.19
 10
1707.36
 20
2369.19
 10
1657.36
 20
2369.19
  0
LWPOLYLINE
  5
2B2
330
17
100
AcDbEntity
  8
Paineis
100
AcDbPolyline
 90
4
 70
1
 10
1657.36
 20
2369.19
 10
1707.36
 20
2369.19
 10
1707.36
 20
2613.19
 10
1657.36
 20
2613.19
  0
LWPOLYLINE
  5
2B3
330
17
100
AcDbEntity
  8
Paineis
100
AcDbPolyline
 90
4
 70
1
 10
1657.36
 20
2613.19
 10
1707.36
 20
2613.19
 10
1707.36
 20
2647.19
 10
1657.36
 20
2647.19
  0
MTEXT
  5
2B4
330
17
100
AcDbEntity
  8
Texto Secao
100
AcDbMText
 10
1682.36
 20
2352.19
 30
0.0
 40
10.0
 71
1
  1
P41.C
  0
LWPOLYLINE
  5
2B5
330
17
100
AcDbEntity
  8
Paineis
100
AcDbPolyline
 90
4
 70
1
 10
1737.36
 20
2367.19
 10
1756.36
 20
2367.19
 10
1756.36
 20
2369.19
 10
1737.36
 20
2369.19
  0
LWPOLYLINE
  5
2B6
330
17
100
AcDbEntity
  8
Paineis
100
AcDbPolyline
 90
4
 70
1
 10
1737.36
 20
2369.19
 10
1756.36
 20
2369.19
 10
1756.36
 20
2613.19
 10
1737.36
 20
2613.19
  0
LWPOLYLINE
  5
2B7
330
17
100
AcDbEntity
  8
Paineis
100
AcDbPolyline
 90
4
 70
1
 10
1737.36
 20
2613.19
 10
1756.36
 20
2613.19
 10
1756.36
 20
2647.19
 10
1737.36
 20
2647.19
  0
MTEXT
  5
2B8
330
17
100
AcDbEntity
  8
Texto Secao
100
AcDbMText
 10
1746.86
 20
2352.19
 30
0.0
 40
10.0
 71
1
  1
P41.D
  0
MTEXT
  5
2B9
330
17
100
AcDbEntity
  8
Cota Secao (2x)
100
AcDbMText
 10
1528.36
 20
2702.19
 30
0.0
 40
8.0
 71
1
  1
B=19cm  H=50cm
  0
MTEXT
  5
2BA
330
17
100
AcDbEntity
  8
NOMENCLATURA
100
AcDbMText
 10
1528.36
 20
2697.19
 30
0.0
 40
10.0
 71
1
  1
12 PAV - P41
  0
LWPOLYLINE
  5
2BB
330
17
100
AcDbEntity
  8
Paineis
100
AcDbPolyline
 90
4
 70
1
 10
1971.37
 20
2400.96
 10
2021.37
 20
2400.96
 10
2021.37
 20
2402.96
 10
1971.37
 20
2402.96
  0
LWPOLYLINE
  5
2BC
330
17
100
AcDbEntity
  8
Paineis
100
AcDbPolyline
 90
4
 70
1
 10
1971.37
 20
2402.96
 10
2021.37
 20
2402.96
 10
2021.37
 20
2646.96
 10
1971.37
 20
2646.96
  0
LWPOLYLINE
  5
2BD
330
17
100
AcDbEntity
  8
Paineis
100
AcDbPolyline
 90
4
 70
1
 10
1971.37
 20
2646.96
 10
2021.37
 20
2646.96
 10
2021.37
 20
2680.96
 10
1971.37
 20
2680.96
  0
MTEXT
  5
2BE
330
17
100
AcDbEntity
  8
Texto Secao
100
AcDbMText
 10
1996.37
 20
2385.96
 30
0.0
 40
10.0
 71
1
  1
P42.A
  0
LWPOLYLINE
  5
2BF
330
17
100
AcDbEntity
  8
Paineis
100
AcDbPolyline
 90
4
 70
1
 10
2051.37
 20
2400.96
 10
2070.37
 20
2400.96
 10
2070.37
 20
2402.96
 10
2051.37
 20
2402.96
  0
LWPOLYLINE
  5
2C0
330
17
100
AcDbEntity
  8
Paineis
100
AcDbPolyline
 90
4
 70
1
 10
2051.37
 20
2402.96
 10
2070.37
 20
2402.96
 10
2070.37
 20
2646.96
 10
2051.37
 20
2646.96
  0
LWPOLYLINE
  5
2C1
330
17
100
AcDbEntity
  8
Paineis
100
AcDbPolyline
 90
4
 70
1
 10
2051.37
 20
2646.96
 10
2070.37
 20
2646.96
 10
2070.37
 20
2680.96
 10
2051.37
 20
2680.96
  0
MTEXT
  5
2C2
330
17
100
AcDbEntity
  8
Texto Secao
100
AcDbMText
 10
2060.87
 20
2385.96
 30
0.0
 40
10.0
 71
1
  1
P42.B
  0
LWPOLYLINE
  5
2C3
330
17
100
AcDbEntity
  8
Paineis
100
AcDbPolyline
 90
4
 70
1
 10
2100.37
 20
2400.96
 10
2150.37
 20
2400.96
 10
2150.37
 20
2402.96
 10
2100.37
 20
2402.96
  0
LWPOLYLINE
  5
2C4
330
17
100
AcDbEntity
  8
Paineis
100
AcDbPolyline
 90
4
 70
1
 10
2100.37
 20
2402.96
 10
2150.37
 20
2402.96
 10
2150.37
 20
2646.96
 10
2100.37
 20
2646.96
  0
LWPOLYLINE
  5
2C5
330
17
100
AcDbEntity
  8
Paineis
100
AcDbPolyline
 90
4
 70
1
 10
2100.37
 20
2646.96
 10
2150.37
 20
2646.96
 10
2150.37
 20
2680.96
 10
2100.37
 20
2680.96
  0
MTEXT
  5
2C6
330
17
100
AcDbEntity
  8
Texto Secao
100
AcDbMText
 10
2125.37
 20
2385.96
 30
0.0
 40
10.0
 71
1
  1
P42.C
  0
LWPOLYLINE
  5
2C7
330
17
100
AcDbEntity
  8
Paineis
100
AcDbPolyline
 90
4
 70
1
 10
2180.37
 20
2400.96
 10
2199.37
 20
2400.96
 10
2199.37
 20
2402.96
 10
2180.37
 20
2402.96
  0
LWPOLYLINE
  5
2C8
330
17
100
AcDbEntity
  8
Paineis
100
AcDbPolyline
 90
4
 70
1
 10
2180.37
 20
2402.96
 10
2199.37
 20
2402.96
 10
2199.37
 20
2646.96
 10
2180.37
 20
2646.96
  0
LWPOLYLINE
  5
2C9
330
17
100
AcDbEntity
  8
Paineis
100
AcDbPolyline
 90
4
 70
1
 10
2180.37
 20
2646.96
 10
2199.37
 20
2646.96
 10
2199.37
 20
2680.96
 10
2180.37
 20
2680.96
  0
MTEXT
  5
2CA
330
17
100
AcDbEntity
  8
Texto Secao
100
AcDbMText
 10
2189.87
 20
2385.96
 30
0.0
 40
10.0
 71
1
  1
P42.D
  0
MTEXT
  5
2CB
330
17
100
AcDbEntity
  8
Cota Secao (2x)
100
AcDbMText
 10
1971.37
 20
2735.96
 30
0.0
 40
8.0
 71
1
  1
B=19cm  H=50cm
  0
MTEXT
  5
2CC
330
17
100
AcDbEntity
  8
NOMENCLATURA
100
AcDbMText
 10
1971.37
 20
2730.96
 30
0.0
 40
10.0
 71
1
  1
12 PAV - P42
  0
LWPOLYLINE
  5
2CD
330
17
100
AcDbEntity
  8
Paineis
100
AcDbPolyline
 90
4
 70
1
 10
2419.05
 20
2369.14
 10
2469.05
 20
2369.14
 10
2469.05
 20
2371.14
 10
2419.05
 20
2371.14
  0
LWPOLYLINE
  5
2CE
330
17
100
AcDbEntity
  8
Paineis
100
AcDbPolyline
 90
4
 70
1
 10
2419.05
 20
2371.14
 10
2469.05
 20
2371.14
 10
2469.05
 20
2615.14
 10
2419.05
 20
2615.14
  0
LWPOLYLINE
  5
2CF
330
17
100
AcDbEntity
  8
Paineis
100
AcDbPolyline
 90
4
 70
1
 10
2419.05
 20
2615.14
 10
2469.05
 20
2615.14
 10
2469.05
 20
2649.14
 10
2419.05
 20
2649.14
  0
MTEXT
  5
2D0
330
17
100
AcDbEntity
  8
Texto Secao
100
AcDbMText
 10
2444.05
 20
2354.14
 30
0.0
 40
10.0
 71
1
  1
P43.A
  0
LWPOLYLINE
  5
2D1
330
17
100
AcDbEntity
  8
Paineis
100
AcDbPolyline
 90
4
 70
1
 10
2499.05
 20
2369.14
 10
2518.05
 20
2369.14
 10
2518.05
 20
2371.14
 10
2499.05
 20
2371.14
  0
LWPOLYLINE
  5
2D2
330
17
100
AcDbEntity
  8
Paineis
100
AcDbPolyline
 90
4
 70
1
 10
2499.05
 20
2371.14
 10
2518.05
 20
2371.14
 10
2518.05
 20
2615.14
 10
2499.05
 20
2615.14
  0
LWPOLYLINE
  5
2D3
330
17
100
AcDbEntity
  8
Paineis
100
AcDbPolyline
 90
4
 70
1
 10
2499.05
 20
2615.14
 10
2518.05
 20
2615.14
 10
2518.05
 20
2649.14
 10
2499.05
 20
2649.14
  0
MTEXT
  5
2D4
330
17
100
AcDbEntity
  8
Texto Secao
100
AcDbMText
 10
2508.55
 20
2354.14
 30
0.0
 40
10.0
 71
1
  1
P43.B
  0
LWPOLYLINE
  5
2D5
330
17
100
AcDbEntity
  8
Paineis
100
AcDbPolyline
 90
4
 70
1
 10
2548.05
 20
2369.14
 10
2598.05
 20
2369.14
 10
2598.05
 20
2371.14
 10
2548.05
 20
2371.14
  0
LWPOLYLINE
  5
2D6
330
17
100
AcDbEntity
  8
Paineis
100
AcDbPolyline
 90
4
 70
1
 10
2548.05
 20
2371.14
 10
2598.05
 20
2371.14
 10
2598.05
 20
2615.14
 10
2548.05
 20
2615.14
  0
LWPOLYLINE
  5
2D7
330
17
100
AcDbEntity
  8
Paineis
100
AcDbPolyline
 90
4
 70
1
 10
2548.05
 20
2615.14
 10
2598.05
 20
2615.14
 10
2598.05
 20
2649.14
 10
2548.05
 20
2649.14
  0
MTEXT
  5
2D8
330
17
100
AcDbEntity
  8
Texto Secao
100
AcDbMText
 10
2573.05
 20
2354.14
 30
0.0
 40
10.0
 71
1
  1
P43.C
  0
LWPOLYLINE
  5
2D9
330
17
100
AcDbEntity
  8
Paineis
100
AcDbPolyline
 90
4
 70
1
 10
2628.05
 20
2369.14
 10
2647.05
 20
2369.14
 10
2647.05
 20
2371.14
 10
2628.05
 20
2371.14
  0
LWPOLYLINE
  5
2DA
330
17
100
AcDbEntity
  8
Paineis
100
AcDbPolyline
 90
4
 70
1
 10
2628.05
 20
2371.14
 10
2647.05
 20
2371.14
 10
2647.05
 20
2615.14
 10
2628.05
 20
2615.14
  0
LWPOLYLINE
  5
2DB
330
17
100
AcDbEntity
  8
Paineis
100
AcDbPolyline
 90
4
 70
1
 10
2628.05
 20
2615.14
 10
2647.05
 20
2615.14
 10
2647.05
 20
2649.14
 10
2628.05
 20
2649.14
  0
MTEXT
  5
2DC
330
17
100
AcDbEntity
  8
Texto Secao
100
AcDbMText
 10
2637.55
 20
2354.14
 30
0.0
 40
10.0
 71
1
  1
P43.D
  0
MTEXT
  5
2DD
330
17
100
AcDbEntity
  8
Cota Secao (2x)
100
AcDbMText
 10
2419.05
 20
2704.14
 30
0.0
 40
8.0
 71
1
  1
B=19cm  H=50cm
  0
MTEXT
  5
2DE
330
17
100
AcDbEntity
  8
NOMENCLATURA
100
AcDbMText
 10
2419.05
 20
2699.14
 30
0.0
 40
10.0
 71
1
  1
12 PAV - P43
  0
LWPOLYLINE
  5
2DF
330
17
100
AcDbEntity
  8
Paineis
100
AcDbPolyline
 90
4
 70
1
 10
2865.24
 20
2374.87
 10
2915.24
 20
2374.87
 10
2915.24
 20
2376.87
 10
2865.24
 20
2376.87
  0
LWPOLYLINE
  5
2E0
330
17
100
AcDbEntity
  8
Paineis
100
AcDbPolyline
 90
4
 70
1
 10
2865.24
 20
2376.87
 10
2915.24
 20
2376.87
 10
2915.24
 20
2620.87
 10
2865.24
 20
2620.87
  0
LWPOLYLINE
  5
2E1
330
17
100
AcDbEntity
  8
Paineis
100
AcDbPolyline
 90
4
 70
1
 10
2865.24
 20
2620.87
 10
2915.24
 20
2620.87
 10
2915.24
 20
2654.87
 10
2865.24
 20
2654.87
  0
MTEXT
  5
2E2
330
17
100
AcDbEntity
  8
Texto Secao
100
AcDbMText
 10
2890.24
 20
2359.87
 30
0.0
 40
10.0
 71
1
  1
P44.A
  0
LWPOLYLINE
  5
2E3
330
17
100
AcDbEntity
  8
Paineis
100
AcDbPolyline
 90
4
 70
1
 10
2945.24
 20
2374.87
 10
2964.24
 20
2374.87
 10
2964.24
 20
2376.87
 10
2945.24
 20
2376.87
  0
LWPOLYLINE
  5
2E4
330
17
100
AcDbEntity
  8
Paineis
100
AcDbPolyline
 90
4
 70
1
 10
2945.24
 20
2376.87
 10
2964.24
 20
2376.87
 10
2964.24
 20
2620.87
 10
2945.24
 20
2620.87
  0
LWPOLYLINE
  5
2E5
330
17
100
AcDbEntity
  8
Paineis
100
AcDbPolyline
 90
4
 70
1
 10
2945.24
 20
2620.87
 10
2964.24
 20
2620.87
 10
2964.24
 20
2654.87
 10
2945.24
 20
2654.87
  0
MTEXT
  5
2E6
330
17
100
AcDbEntity
  8
Texto Secao
100
AcDbMText
 10
2954.74
 20
2359.87
 30
0.0
 40
10.0
 71
1
  1
P44.B
  0
LWPOLYLINE
  5
2E7
330
17
100
AcDbEntity
  8
Paineis
100
AcDbPolyline
 90
4
 70
1
 10
2994.24
 20
2374.87
 10
3044.24
 20
2374.87
 10
3044.24
 20
2376.87
 10
2994.24
 20
2376.87
  0
LWPOLYLINE
  5
2E8
330
17
100
AcDbEntity
  8
Paineis
100
AcDbPolyline
 90
4
 70
1
 10
2994.24
 20
2376.87
 10
3044.24
 20
2376.87
 10
3044.24
 20
2620.87
 10
2994.24
 20
2620.87
  0
LWPOLYLINE
  5
2E9
330
17
100
AcDbEntity
  8
Paineis
100
AcDbPolyline
 90
4
 70
1
 10
2994.24
 20
2620.87
 10
3044.24
 20
2620.87
 10
3044.24
 20
2654.87
 10
2994.24
 20
2654.87
  0
MTEXT
  5
2EA
330
17
100
AcDbEntity
  8
Texto Secao
100
AcDbMText
 10
3019.24
 20
2359.87
 30
0.0
 40
10.0
 71
1
  1
P44.C
  0
LWPOLYLINE
  5
2EB
330
17
100
AcDbEntity
  8
Paineis
100
AcDbPolyline
 90
4
 70
1
 10
3074.24
 20
2374.87
 10
3093.24
 20
2374.87
 10
3093.24
 20
2376.87
 10
3074.24
 20
2376.87
  0
LWPOLYLINE
  5
2EC
330
17
100
AcDbEntity
  8
Paineis
100
AcDbPolyline
 90
4
 70
1
 10
3074.24
 20
2376.87
 10
3093.24
 20
2376.87
 10
3093.24
 20
2620.87
 10
3074.24
 20
2620.87
  0
LWPOLYLINE
  5
2ED
330
17
100
AcDbEntity
  8
Paineis
100
AcDbPolyline
 90
4
 70
1
 10
3074.24
 20
2620.87
 10
3093.24
 20
2620.87
 10
3093.24
 20
2654.87
 10
3074.24
 20
2654.87
  0
MTEXT
  5
2EE
330
17
100
AcDbEntity
  8
Texto Secao
100
AcDbMText
 10
3083.74
 20
2359.87
 30
0.0
 40
10.0
 71
1
  1
P44.D
  0
MTEXT
  5
2EF
330
17
100
AcDbEntity
  8
Cota Secao (2x)
100
AcDbMText
 10
2865.24
 20
2709.87
 30
0.0
 40
8.0
 71
1
  1
B=19cm  H=50cm
  0
MTEXT
  5
2F0
330
17
100
AcDbEntity
  8
NOMENCLATURA
100
AcDbMText
 10
2865.24
 20
2704.87
 30
0.0
 40
10.0
 71
1
  1
12 PAV - P44
  0
LWPOLYLINE
  5
2F1
330
17
100
AcDbEntity
  8
Paineis
100
AcDbPolyline
 90
4
 70
1
 10
3294.81
 20
2367.84
 10
3344.81
 20
2367.84
 10
3344.81
 20
2369.84
 10
3294.81
 20
2369.84
  0
LWPOLYLINE
  5
2F2
330
17
100
AcDbEntity
  8
Paineis
100
AcDbPolyline
 90
4
 70
1
 10
3294.81
 20
2369.84
 10
3344.81
 20
2369.84
 10
3344.81
 20
2613.84
 10
3294.81
 20
2613.84
  0
LWPOLYLINE
  5
2F3
330
17
100
AcDbEntity
  8
Paineis
100
AcDbPolyline
 90
4
 70
1
 10
3294.81
 20
2613.84
 10
3344.81
 20
2613.84
 10
3344.81
 20
2647.84
 10
3294.81
 20
2647.84
  0
MTEXT
  5
2F4
330
17
100
AcDbEntity
  8
Texto Secao
100
AcDbMText
 10
3319.81
 20
2352.84
 30
0.0
 40
10.0
 71
1
  1
P45.A
  0
LWPOLYLINE
  5
2F5
330
17
100
AcDbEntity
  8
Paineis
100
AcDbPolyline
 90
4
 70
1
 10
3374.81
 20
2367.84
 10
3393.81
 20
2367.84
 10
3393.81
 20
2369.84
 10
3374.81
 20
2369.84
  0
LWPOLYLINE
  5
2F6
330
17
100
AcDbEntity
  8
Paineis
100
AcDbPolyline
 90
4
 70
1
 10
3374.81
 20
2369.84
 10
3393.81
 20
2369.84
 10
3393.81
 20
2613.84
 10
3374.81
 20
2613.84
  0
LWPOLYLINE
  5
2F7
330
17
100
AcDbEntity
  8
Paineis
100
AcDbPolyline
 90
4
 70
1
 10
3374.81
 20
2613.84
 10
3393.81
 20
2613.84
 10
3393.81
 20
2647.84
 10
3374.81
 20
2647.84
  0
MTEXT
  5
2F8
330
17
100
AcDbEntity
  8
Texto Secao
100
AcDbMText
 10
3384.31
 20
2352.84
 30
0.0
 40
10.0
 71
1
  1
P45.B
  0
LWPOLYLINE
  5
2F9
330
17
100
AcDbEntity
  8
Paineis
100
AcDbPolyline
 90
4
 70
1
 10
3423.81
 20
2367.84
 10
3473.81
 20
2367.84
 10
3473.81
 20
2369.84
 10
3423.81
 20
2369.84
  0
LWPOLYLINE
  5
2FA
330
17
100
AcDbEntity
  8
Paineis
100
AcDbPolyline
 90
4
 70
1
 10
3423.81
 20
2369.84
 10
3473.81
 20
2369.84
 10
3473.81
 20
2613.84
 10
3423.81
 20
2613.84
  0
LWPOLYLINE
  5
2FB
330
17
100
AcDbEntity
  8
Paineis
100
AcDbPolyline
 90
4
 70
1
 10
3423.81
 20
2613.84
 10
3473.81
 20
2613.84
 10
3473.81
 20
2647.84
 10
3423.81
 20
2647.84
  0
MTEXT
  5
2FC
330
17
100
AcDbEntity
  8
Texto Secao
100
AcDbMText
 10
3448.81
 20
2352.84
 30
0.0
 40
10.0
 71
1
  1
P45.C
  0
LWPOLYLINE
  5
2FD
330
17
100
AcDbEntity
  8
Paineis
100
AcDbPolyline
 90
4
 70
1
 10
3503.81
 20
2367.84
 10
3522.81
 20
2367.84
 10
3522.81
 20
2369.84
 10
3503.81
 20
2369.84
  0
LWPOLYLINE
  5
2FE
330
17
100
AcDbEntity
  8
Paineis
100
AcDbPolyline
 90
4
 70
1
 10
3503.81
 20
2369.84
 10
3522.81
 20
2369.84
 10
3522.81
 20
2613.84
 10
3503.81
 20
2613.84
  0
LWPOLYLINE
  5
2FF
330
17
100
AcDbEntity
  8
Paineis
100
AcDbPolyline
 90
4
 70
1
 10
3503.81
 20
2613.84
 10
3522.81
 20
2613.84
 10
3522.81
 20
2647.84
 10
3503.81
 20
2647.84
  0
MTEXT
  5
300
330
17
100
AcDbEntity
  8
Texto Secao
100
AcDbMText
 10
3513.31
 20
2352.84
 30
0.0
 40
10.0
 71
1
  1
P45.D
  0
MTEXT
  5
301
330
17
100
AcDbEntity
  8
Cota Secao (2x)
100
AcDbMText
 10
3294.81
 20
2702.84
 30
0.0
 40
8.0
 71
1
  1
B=19cm  H=50cm
  0
MTEXT
  5
302
330
17
100
AcDbEntity
  8
NOMENCLATURA
100
AcDbMText
 10
3294.81
 20
2697.84
 30
0.0
 40
10.0
 71
1
  1
12 PAV - P45
  0
LWPOLYLINE
  5
303
330
17
100
AcDbEntity
  8
Paineis
100
AcDbPolyline
 90
4
 70
1
 10
3705.88
 20
2374.68
 10
3755.88
 20
2374.68
 10
3755.88
 20
2376.68
 10
3705.88
 20
2376.68
  0
LWPOLYLINE
  5
304
330
17
100
AcDbEntity
  8
Paineis
100
AcDbPolyline
 90
4
 70
1
 10
3705.88
 20
2376.68
 10
3755.88
 20
2376.68
 10
3755.88
 20
2620.68
 10
3705.88
 20
2620.68
  0
LWPOLYLINE
  5
305
330
17
100
AcDbEntity
  8
Paineis
100
AcDbPolyline
 90
4
 70
1
 10
3705.88
 20
2620.68
 10
3755.88
 20
2620.68
 10
3755.88
 20
2654.68
 10
3705.88
 20
2654.68
  0
MTEXT
  5
306
330
17
100
AcDbEntity
  8
Texto Secao
100
AcDbMText
 10
3730.88
 20
2359.68
 30
0.0
 40
10.0
 71
1
  1
P46.A
  0
LWPOLYLINE
  5
307
330
17
100
AcDbEntity
  8
Paineis
100
AcDbPolyline
 90
4
 70
1
 10
3785.88
 20
2374.68
 10
3804.88
 20
2374.68
 10
3804.88
 20
2376.68
 10
3785.88
 20
2376.68
  0
LWPOLYLINE
  5
308
330
17
100
AcDbEntity
  8
Paineis
100
AcDbPolyline
 90
4
 70
1
 10
3785.88
 20
2376.68
 10
3804.88
 20
2376.68
 10
3804.88
 20
2620.68
 10
3785.88
 20
2620.68
  0
LWPOLYLINE
  5
309
330
17
100
AcDbEntity
  8
Paineis
100
AcDbPolyline
 90
4
 70
1
 10
3785.88
 20
2620.68
 10
3804.88
 20
2620.68
 10
3804.88
 20
2654.68
 10
3785.88
 20
2654.68
  0
MTEXT
  5
30A
330
17
100
AcDbEntity
  8
Texto Secao
100
AcDbMText
 10
3795.38
 20
2359.68
 30
0.0
 40
10.0
 71
1
  1
P46.B
  0
LWPOLYLINE
  5
30B
330
17
100
AcDbEntity
  8
Paineis
100
AcDbPolyline
 90
4
 70
1
 10
3834.88
 20
2374.68
 10
3884.88
 20
2374.68
 10
3884.88
 20
2376.68
 10
3834.88
 20
2376.68
  0
LWPOLYLINE
  5
30C
330
17
100
AcDbEntity
  8
Paineis
100
AcDbPolyline
 90
4
 70
1
 10
3834.88
 20
2376.68
 10
3884.88
 20
2376.68
 10
3884.88
 20
2620.68
 10
3834.88
 20
2620.68
  0
LWPOLYLINE
  5
30D
330
17
100
AcDbEntity
  8
Paineis
100
AcDbPolyline
 90
4
 70
1
 10
3834.88
 20
2620.68
 10
3884.88
 20
2620.68
 10
3884.88
 20
2654.68
 10
3834.88
 20
2654.68
  0
MTEXT
  5
30E
330
17
100
AcDbEntity
  8
Texto Secao
100
AcDbMText
 10
3859.88
 20
2359.68
 30
0.0
 40
10.0
 71
1
  1
P46.C
  0
LWPOLYLINE
  5
30F
330
17
100
AcDbEntity
  8
Paineis
100
AcDbPolyline
 90
4
 70
1
 10
3914.88
 20
2374.68
 10
3933.88
 20
2374.68
 10
3933.88
 20
2376.68
 10
3914.88
 20
2376.68
  0
LWPOLYLINE
  5
310
330
17
100
AcDbEntity
  8
Paineis
100
AcDbPolyline
 90
4
 70
1
 10
3914.88
 20
2376.68
 10
3933.88
 20
2376.68
 10
3933.88
 20
2620.68
 10
3914.88
 20
2620.68
  0
LWPOLYLINE
  5
311
330
17
100
AcDbEntity
  8
Paineis
100
AcDbPolyline
 90
4
 70
1
 10
3914.88
 20
2620.68
 10
3933.88
 20
2620.68
 10
3933.88
 20
2654.68
 10
3914.88
 20
2654.68
  0
MTEXT
  5
312
330
17
100
AcDbEntity
  8
Texto Secao
100
AcDbMText
 10
3924.38
 20
2359.68
 30
0.0
 40
10.0
 71
1
  1
P46.D
  0
MTEXT
  5
313
330
17
100
AcDbEntity
  8
Cota Secao (2x)
100
AcDbMText
 10
3705.88
 20
2709.68
 30
0.0
 40
8.0
 71
1
  1
B=19cm  H=50cm
  0
MTEXT
  5
314
330
17
100
AcDbEntity
  8
NOMENCLATURA
100
AcDbMText
 10
3705.88
 20
2704.68
 30
0.0
 40
10.0
 71
1
  1
12 PAV - P46
  0
LWPOLYLINE
  5
315
330
17
100
AcDbEntity
  8
Paineis
100
AcDbPolyline
 90
4
 70
1
 10
4167.61
 20
2370.55
 10
4217.61
 20
2370.55
 10
4217.61
 20
2372.55
 10
4167.61
 20
2372.55
  0
LWPOLYLINE
  5
316
330
17
100
AcDbEntity
  8
Paineis
100
AcDbPolyline
 90
4
 70
1
 10
4167.61
 20
2372.55
 10
4217.61
 20
2372.55
 10
4217.61
 20
2616.55
 10
4167.61
 20
2616.55
  0
LWPOLYLINE
  5
317
330
17
100
AcDbEntity
  8
Paineis
100
AcDbPolyline
 90
4
 70
1
 10
4167.61
 20
2616.55
 10
4217.61
 20
2616.55
 10
4217.61
 20
2650.55
 10
4167.61
 20
2650.55
  0
MTEXT
  5
318
330
17
100
AcDbEntity
  8
Texto Secao
100
AcDbMText
 10
4192.61
 20
2355.55
 30
0.0
 40
10.0
 71
1
  1
P47.A
  0
LWPOLYLINE
  5
319
330
17
100
AcDbEntity
  8
Paineis
100
AcDbPolyline
 90
4
 70
1
 10
4247.61
 20
2370.55
 10
4266.61
 20
2370.55
 10
4266.61
 20
2372.55
 10
4247.61
 20
2372.55
  0
LWPOLYLINE
  5
31A
330
17
100
AcDbEntity
  8
Paineis
100
AcDbPolyline
 90
4
 70
1
 10
4247.61
 20
2372.55
 10
4266.61
 20
2372.55
 10
4266.61
 20
2616.55
 10
4247.61
 20
2616.55
  0
LWPOLYLINE
  5
31B
330
17
100
AcDbEntity
  8
Paineis
100
AcDbPolyline
 90
4
 70
1
 10
4247.61
 20
2616.55
 10
4266.61
 20
2616.55
 10
4266.61
 20
2650.55
 10
4247.61
 20
2650.55
  0
MTEXT
  5
31C
330
17
100
AcDbEntity
  8
Texto Secao
100
AcDbMText
 10
4257.11
 20
2355.55
 30
0.0
 40
10.0
 71
1
  1
P47.B
  0
LWPOLYLINE
  5
31D
330
17
100
AcDbEntity
  8
Paineis
100
AcDbPolyline
 90
4
 70
1
 10
4296.61
 20
2370.55
 10
4346.61
 20
2370.55
 10
4346.61
 20
2372.55
 10
4296.61
 20
2372.55
  0
LWPOLYLINE
  5
31E
330
17
100
AcDbEntity
  8
Paineis
100
AcDbPolyline
 90
4
 70
1
 10
4296.61
 20
2372.55
 10
4346.61
 20
2372.55
 10
4346.61
 20
2616.55
 10
4296.61
 20
2616.55
  0
LWPOLYLINE
  5
31F
330
17
100
AcDbEntity
  8
Paineis
100
AcDbPolyline
 90
4
 70
1
 10
4296.61
 20
2616.55
 10
4346.61
 20
2616.55
 10
4346.61
 20
2650.55
 10
4296.61
 20
2650.55
  0
MTEXT
  5
320
330
17
100
AcDbEntity
  8
Texto Secao
100
AcDbMText
 10
4321.61
 20
2355.55
 30
0.0
 40
10.0
 71
1
  1
P47.C
  0
LWPOLYLINE
  5
321
330
17
100
AcDbEntity
  8
Paineis
100
AcDbPolyline
 90
4
 70
1
 10
4376.61
 20
2370.55
 10
4395.61
 20
2370.55
 10
4395.61
 20
2372.55
 10
4376.61
 20
2372.55
  0
LWPOLYLINE
  5
322
330
17
100
AcDbEntity
  8
Paineis
100
AcDbPolyline
 90
4
 70
1
 10
4376.61
 20
2372.55
 10
4395.61
 20
2372.55
 10
4395.61
 20
2616.55
 10
4376.61
 20
2616.55
  0
LWPOLYLINE
  5
323
330
17
100
AcDbEntity
  8
Paineis
100
AcDbPolyline
 90
4
 70
1
 10
4376.61
 20
2616.55
 10
4395.61
 20
2616.55
 10
4395.61
 20
2650.55
 10
4376.61
 20
2650.55
  0
MTEXT
  5
324
330
17
100
AcDbEntity
  8
Texto Secao
100
AcDbMText
 10
4386.11
 20
2355.55
 30
0.0
 40
10.0
 71
1
  1
P47.D
  0
MTEXT
  5
325
330
17
100
AcDbEntity
  8
Cota Secao (2x)
100
AcDbMText
 10
4167.61
 20
2705.55
 30
0.0
 40
8.0
 71
1
  1
B=19cm  H=50cm
  0
MTEXT
  5
326
330
17
100
AcDbEntity
  8
NOMENCLATURA
100
AcDbMText
 10
4167.61
 20
2700.55
 30
0.0
 40
10.0
 71
1
  1
12 PAV - P47
  0
LWPOLYLINE
  5
327
330
17
100
AcDbEntity
  8
Paineis
100
AcDbPolyline
 90
4
 70
1
 10
4542.02
 20
2372.46
 10
4592.02
 20
2372.46
 10
4592.02
 20
2374.46
 10
4542.02
 20
2374.46
  0
LWPOLYLINE
  5
328
330
17
100
AcDbEntity
  8
Paineis
100
AcDbPolyline
 90
4
 70
1
 10
4542.02
 20
2374.46
 10
4592.02
 20
2374.46
 10
4592.02
 20
2618.46
 10
4542.02
 20
2618.46
  0
LWPOLYLINE
  5
329
330
17
100
AcDbEntity
  8
Paineis
100
AcDbPolyline
 90
4
 70
1
 10
4542.02
 20
2618.46
 10
4592.02
 20
2618.46
 10
4592.02
 20
2652.46
 10
4542.02
 20
2652.46
  0
MTEXT
  5
32A
330
17
100
AcDbEntity
  8
Texto Secao
100
AcDbMText
 10
4567.02
 20
2357.46
 30
0.0
 40
10.0
 71
1
  1
P48.A
  0
LWPOLYLINE
  5
32B
330
17
100
AcDbEntity
  8
Paineis
100
AcDbPolyline
 90
4
 70
1
 10
4622.02
 20
2372.46
 10
4641.02
 20
2372.46
 10
4641.02
 20
2374.46
 10
4622.02
 20
2374.46
  0
LWPOLYLINE
  5
32C
330
17
100
AcDbEntity
  8
Paineis
100
AcDbPolyline
 90
4
 70
1
 10
4622.02
 20
2374.46
 10
4641.02
 20
2374.46
 10
4641.02
 20
2618.46
 10
4622.02
 20
2618.46
  0
LWPOLYLINE
  5
32D
330
17
100
AcDbEntity
  8
Paineis
100
AcDbPolyline
 90
4
 70
1
 10
4622.02
 20
2618.46
 10
4641.02
 20
2618.46
 10
4641.02
 20
2652.46
 10
4622.02
 20
2652.46
  0
MTEXT
  5
32E
330
17
100
AcDbEntity
  8
Texto Secao
100
AcDbMText
 10
4631.52
 20
2357.46
 30
0.0
 40
10.0
 71
1
  1
P48.B
  0
LWPOLYLINE
  5
32F
330
17
100
AcDbEntity
  8
Paineis
100
AcDbPolyline
 90
4
 70
1
 10
4671.02
 20
2372.46
 10
4721.02
 20
2372.46
 10
4721.02
 20
2374.46
 10
4671.02
 20
2374.46
  0
LWPOLYLINE
  5
330
330
17
100
AcDbEntity
  8
Paineis
100
AcDbPolyline
 90
4
 70
1
 10
4671.02
 20
2374.46
 10
4721.02
 20
2374.46
 10
4721.02
 20
2618.46
 10
4671.02
 20
2618.46
  0
LWPOLYLINE
  5
331
330
17
100
AcDbEntity
  8
Paineis
100
AcDbPolyline
 90
4
 70
1
 10
4671.02
 20
2618.46
 10
4721.02
 20
2618.46
 10
4721.02
 20
2652.46
 10
4671.02
 20
2652.46
  0
MTEXT
  5
332
330
17
100
AcDbEntity
  8
Texto Secao
100
AcDbMText
 10
4696.02
 20
2357.46
 30
0.0
 40
10.0
 71
1
  1
P48.C
  0
LWPOLYLINE
  5
333
330
17
100
AcDbEntity
  8
Paineis
100
AcDbPolyline
 90
4
 70
1
 10
4751.02
 20
2372.46
 10
4770.02
 20
2372.46
 10
4770.02
 20
2374.46
 10
4751.02
 20
2374.46
  0
LWPOLYLINE
  5
334
330
17
100
AcDbEntity
  8
Paineis
100
AcDbPolyline
 90
4
 70
1
 10
4751.02
 20
2374.46
 10
4770.02
 20
2374.46
 10
4770.02
 20
2618.46
 10
4751.02
 20
2618.46
  0
LWPOLYLINE
  5
335
330
17
100
AcDbEntity
  8
Paineis
100
AcDbPolyline
 90
4
 70
1
 10
4751.02
 20
2618.46
 10
4770.02
 20
2618.46
 10
4770.02
 20
2652.46
 10
4751.02
 20
2652.46
  0
MTEXT
  5
336
330
17
100
AcDbEntity
  8
Texto Secao
100
AcDbMText
 10
4760.52
 20
2357.46
 30
0.0
 40
10.0
 71
1
  1
P48.D
  0
MTEXT
  5
337
330
17
100
AcDbEntity
  8
Cota Secao (2x)
100
AcDbMText
 10
4542.02
 20
2707.46
 30
0.0
 40
8.0
 71
1
  1
B=19cm  H=50cm
  0
MTEXT
  5
338
330
17
100
AcDbEntity
  8
NOMENCLATURA
100
AcDbMText
 10
4542.02
 20
2702.46
 30
0.0
 40
10.0
 71
1
  1
12 PAV - P48
  0
LWPOLYLINE
  5
339
330
17
100
AcDbEntity
  8
Paineis
100
AcDbPolyline
 90
4
 70
1
 10
4912.88
 20
2393.65
 10
4962.88
 20
2393.65
 10
4962.88
 20
2395.65
 10
4912.88
 20
2395.65
  0
LWPOLYLINE
  5
33A
330
17
100
AcDbEntity
  8
Paineis
100
AcDbPolyline
 90
4
 70
1
 10
4912.88
 20
2395.65
 10
4962.88
 20
2395.65
 10
4962.88
 20
2639.65
 10
4912.88
 20
2639.65
  0
LWPOLYLINE
  5
33B
330
17
100
AcDbEntity
  8
Paineis
100
AcDbPolyline
 90
4
 70
1
 10
4912.88
 20
2639.65
 10
4962.88
 20
2639.65
 10
4962.88
 20
2673.65
 10
4912.88
 20
2673.65
  0
MTEXT
  5
33C
330
17
100
AcDbEntity
  8
Texto Secao
100
AcDbMText
 10
4937.88
 20
2378.65
 30
0.0
 40
10.0
 71
1
  1
P49.A
  0
LWPOLYLINE
  5
33D
330
17
100
AcDbEntity
  8
Paineis
100
AcDbPolyline
 90
4
 70
1
 10
4992.88
 20
2393.65
 10
5011.88
 20
2393.65
 10
5011.88
 20
2395.65
 10
4992.88
 20
2395.65
  0
LWPOLYLINE
  5
33E
330
17
100
AcDbEntity
  8
Paineis
100
AcDbPolyline
 90
4
 70
1
 10
4992.88
 20
2395.65
 10
5011.88
 20
2395.65
 10
5011.88
 20
2639.65
 10
4992.88
 20
2639.65
  0
LWPOLYLINE
  5
33F
330
17
100
AcDbEntity
  8
Paineis
100
AcDbPolyline
 90
4
 70
1
 10
4992.88
 20
2639.65
 10
5011.88
 20
2639.65
 10
5011.88
 20
2673.65
 10
4992.88
 20
2673.65
  0
MTEXT
  5
340
330
17
100
AcDbEntity
  8
Texto Secao
100
AcDbMText
 10
5002.38
 20
2378.65
 30
0.0
 40
10.0
 71
1
  1
P49.B
  0
LWPOLYLINE
  5
341
330
17
100
AcDbEntity
  8
Paineis
100
AcDbPolyline
 90
4
 70
1
 10
5041.88
 20
2393.65
 10
5091.88
 20
2393.65
 10
5091.88
 20
2395.65
 10
5041.88
 20
2395.65
  0
LWPOLYLINE
  5
342
330
17
100
AcDbEntity
  8
Paineis
100
AcDbPolyline
 90
4
 70
1
 10
5041.88
 20
2395.65
 10
5091.88
 20
2395.65
 10
5091.88
 20
2639.65
 10
5041.88
 20
2639.65
  0
LWPOLYLINE
  5
343
330
17
100
AcDbEntity
  8
Paineis
100
AcDbPolyline
 90
4
 70
1
 10
5041.88
 20
2639.65
 10
5091.88
 20
2639.65
 10
5091.88
 20
2673.65
 10
5041.88
 20
2673.65
  0
MTEXT
  5
344
330
17
100
AcDbEntity
  8
Texto Secao
100
AcDbMText
 10
5066.88
 20
2378.65
 30
0.0
 40
10.0
 71
1
  1
P49.C
  0
LWPOLYLINE
  5
345
330
17
100
AcDbEntity
  8
Paineis
100
AcDbPolyline
 90
4
 70
1
 10
5121.88
 20
2393.65
 10
5140.88
 20
2393.65
 10
5140.88
 20
2395.65
 10
5121.88
 20
2395.65
  0
LWPOLYLINE
  5
346
330
17
100
AcDbEntity
  8
Paineis
100
AcDbPolyline
 90
4
 70
1
 10
5121.88
 20
2395.65
 10
5140.88
 20
2395.65
 10
5140.88
 20
2639.65
 10
5121.88
 20
2639.65
  0
LWPOLYLINE
  5
347
330
17
100
AcDbEntity
  8
Paineis
100
AcDbPolyline
 90
4
 70
1
 10
5121.88
 20
2639.65
 10
5140.88
 20
2639.65
 10
5140.88
 20
2673.65
 10
5121.88
 20
2673.65
  0
MTEXT
  5
348
330
17
100
AcDbEntity
  8
Texto Secao
100
AcDbMText
 10
5131.38
 20
2378.65
 30
0.0
 40
10.0
 71
1
  1
P49.D
  0
MTEXT
  5
349
330
17
100
AcDbEntity
  8
Cota Secao (2x)
100
AcDbMText
 10
4912.88
 20
2728.65
 30
0.0
 40
8.0
 71
1
  1
B=19cm  H=50cm
  0
MTEXT
  5
34A
330
17
100
AcDbEntity
  8
NOMENCLATURA
100
AcDbMText
 10
4912.88
 20
2723.65
 30
0.0
 40
10.0
 71
1
  1
12 PAV - P49
  0
LWPOLYLINE
  5
34B
330
17
100
AcDbEntity
  8
Paineis
100
AcDbPolyline
 90
4
 70
1
 10
2877.16
 20
2542.09
 10
2927.16
 20
2542.09
 10
2927.16
 20
2544.09
 10
2877.16
 20
2544.09
  0
LWPOLYLINE
  5
34C
330
17
100
AcDbEntity
  8
Paineis
100
AcDbPolyline
 90
4
 70
1
 10
2877.16
 20
2544.09
 10
2927.16
 20
2544.09
 10
2927.16
 20
2788.09
 10
2877.16
 20
2788.09
  0
LWPOLYLINE
  5
34D
330
17
100
AcDbEntity
  8
Paineis
100
AcDbPolyline
 90
4
 70
1
 10
2877.16
 20
2788.09
 10
2927.16
 20
2788.09
 10
2927.16
 20
2822.09
 10
2877.16
 20
2822.09
  0
MTEXT
  5
34E
330
17
100
AcDbEntity
  8
Texto Secao
100
AcDbMText
 10
2902.16
 20
2527.09
 30
0.0
 40
10.0
 71
1
  1
P50.A
  0
LWPOLYLINE
  5
34F
330
17
100
AcDbEntity
  8
Paineis
100
AcDbPolyline
 90
4
 70
1
 10
2957.16
 20
2542.09
 10
2976.16
 20
2542.09
 10
2976.16
 20
2544.09
 10
2957.16
 20
2544.09
  0
LWPOLYLINE
  5
350
330
17
100
AcDbEntity
  8
Paineis
100
AcDbPolyline
 90
4
 70
1
 10
2957.16
 20
2544.09
 10
2976.16
 20
2544.09
 10
2976.16
 20
2788.09
 10
2957.16
 20
2788.09
  0
LWPOLYLINE
  5
351
330
17
100
AcDbEntity
  8
Paineis
100
AcDbPolyline
 90
4
 70
1
 10
2957.16
 20
2788.09
 10
2976.16
 20
2788.09
 10
2976.16
 20
2822.09
 10
2957.16
 20
2822.09
  0
MTEXT
  5
352
330
17
100
AcDbEntity
  8
Texto Secao
100
AcDbMText
 10
2966.66
 20
2527.09
 30
0.0
 40
10.0
 71
1
  1
P50.B
  0
LWPOLYLINE
  5
353
330
17
100
AcDbEntity
  8
Paineis
100
AcDbPolyline
 90
4
 70
1
 10
3006.16
 20
2542.09
 10
3056.16
 20
2542.09
 10
3056.16
 20
2544.09
 10
3006.16
 20
2544.09
  0
LWPOLYLINE
  5
354
330
17
100
AcDbEntity
  8
Paineis
100
AcDbPolyline
 90
4
 70
1
 10
3006.16
 20
2544.09
 10
3056.16
 20
2544.09
 10
3056.16
 20
2788.09
 10
3006.16
 20
2788.09
  0
LWPOLYLINE
  5
355
330
17
100
AcDbEntity
  8
Paineis
100
AcDbPolyline
 90
4
 70
1
 10
3006.16
 20
2788.09
 10
3056.16
 20
2788.09
 10
3056.16
 20
2822.09
 10
3006.16
 20
2822.09
  0
MTEXT
  5
356
330
17
100
AcDbEntity
  8
Texto Secao
100
AcDbMText
 10
3031.16
 20
2527.09
 30
0.0
 40
10.0
 71
1
  1
P50.C
  0
LWPOLYLINE
  5
357
330
17
100
AcDbEntity
  8
Paineis
100
AcDbPolyline
 90
4
 70
1
 10
3086.16
 20
2542.09
 10
3105.16
 20
2542.09
 10
3105.16
 20
2544.09
 10
3086.16
 20
2544.09
  0
LWPOLYLINE
  5
358
330
17
100
AcDbEntity
  8
Paineis
100
AcDbPolyline
 90
4
 70
1
 10
3086.16
 20
2544.09
 10
3105.16
 20
2544.09
 10
3105.16
 20
2788.09
 10
3086.16
 20
2788.09
  0
LWPOLYLINE
  5
359
330
17
100
AcDbEntity
  8
Paineis
100
AcDbPolyline
 90
4
 70
1
 10
3086.16
 20
2788.09
 10
3105.16
 20
2788.09
 10
3105.16
 20
2822.09
 10
3086.16
 20
2822.09
  0
MTEXT
  5
35A
330
17
100
AcDbEntity
  8
Texto Secao
100
AcDbMText
 10
3095.66
 20
2527.09
 30
0.0
 40
10.0
 71
1
  1
P50.D
  0
MTEXT
  5
35B
330
17
100
AcDbEntity
  8
Cota Secao (2x)
100
AcDbMText
 10
2877.16
 20
2877.09
 30
0.0
 40
8.0
 71
1
  1
B=19cm  H=50cm
  0
MTEXT
  5
35C
330
17
100
AcDbEntity
  8
NOMENCLATURA
100
AcDbMText
 10
2877.16
 20
2872.09
 30
0.0
 40
10.0
 71
1
  1
12 PAV - P50
  0
LWPOLYLINE
  5
35D
330
17
100
AcDbEntity
  8
Paineis
100
AcDbPolyline
 90
4
 70
1
 10
3756.42
 20
2209.89
 10
3806.42
 20
2209.89
 10
3806.42
 20
2211.89
 10
3756.42
 20
2211.89
  0
LWPOLYLINE
  5
35E
330
17
100
AcDbEntity
  8
Paineis
100
AcDbPolyline
 90
4
 70
1
 10
3756.42
 20
2211.89
 10
3806.42
 20
2211.89
 10
3806.42
 20
2455.89
 10
3756.42
 20
2455.89
  0
LWPOLYLINE
  5
35F
330
17
100
AcDbEntity
  8
Paineis
100
AcDbPolyline
 90
4
 70
1
 10
3756.42
 20
2455.89
 10
3806.42
 20
2455.89
 10
3806.42
 20
2489.89
 10
3756.42
 20
2489.89
  0
MTEXT
  5
360
330
17
100
AcDbEntity
  8
Texto Secao
100
AcDbMText
 10
3781.42
 20
2194.89
 30
0.0
 40
10.0
 71
1
  1
P51.A
  0
LWPOLYLINE
  5
361
330
17
100
AcDbEntity
  8
Paineis
100
AcDbPolyline
 90
4
 70
1
 10
3836.42
 20
2209.89
 10
3855.42
 20
2209.89
 10
3855.42
 20
2211.89
 10
3836.42
 20
2211.89
  0
LWPOLYLINE
  5
362
330
17
100
AcDbEntity
  8
Paineis
100
AcDbPolyline
 90
4
 70
1
 10
3836.42
 20
2211.89
 10
3855.42
 20
2211.89
 10
3855.42
 20
2455.89
 10
3836.42
 20
2455.89
  0
LWPOLYLINE
  5
363
330
17
100
AcDbEntity
  8
Paineis
100
AcDbPolyline
 90
4
 70
1
 10
3836.42
 20
2455.89
 10
3855.42
 20
2455.89
 10
3855.42
 20
2489.89
 10
3836.42
 20
2489.89
  0
MTEXT
  5
364
330
17
100
AcDbEntity
  8
Texto Secao
100
AcDbMText
 10
3845.92
 20
2194.89
 30
0.0
 40
10.0
 71
1
  1
P51.B
  0
LWPOLYLINE
  5
365
330
17
100
AcDbEntity
  8
Paineis
100
AcDbPolyline
 90
4
 70
1
 10
3885.42
 20
2209.89
 10
3935.42
 20
2209.89
 10
3935.42
 20
2211.89
 10
3885.42
 20
2211.89
  0
LWPOLYLINE
  5
366
330
17
100
AcDbEntity
  8
Paineis
100
AcDbPolyline
 90
4
 70
1
 10
3885.42
 20
2211.89
 10
3935.42
 20
2211.89
 10
3935.42
 20
2455.89
 10
3885.42
 20
2455.89
  0
LWPOLYLINE
  5
367
330
17
100
AcDbEntity
  8
Paineis
100
AcDbPolyline
 90
4
 70
1
 10
3885.42
 20
2455.89
 10
3935.42
 20
2455.89
 10
3935.42
 20
2489.89
 10
3885.42
 20
2489.89
  0
MTEXT
  5
368
330
17
100
AcDbEntity
  8
Texto Secao
100
AcDbMText
 10
3910.42
 20
2194.89
 30
0.0
 40
10.0
 71
1
  1
P51.C
  0
LWPOLYLINE
  5
369
330
17
100
AcDbEntity
  8
Paineis
100
AcDbPolyline
 90
4
 70
1
 10
3965.42
 20
2209.89
 10
3984.42
 20
2209.89
 10
3984.42
 20
2211.89
 10
3965.42
 20
2211.89
  0
LWPOLYLINE
  5
36A
330
17
100
AcDbEntity
  8
Paineis
100
AcDbPolyline
 90
4
 70
1
 10
3965.42
 20
2211.89
 10
3984.42
 20
2211.89
 10
3984.42
 20
2455.89
 10
3965.42
 20
2455.89
  0
LWPOLYLINE
  5
36B
330
17
100
AcDbEntity
  8
Paineis
100
AcDbPolyline
 90
4
 70
1
 10
3965.42
 20
2455.89
 10
3984.42
 20
2455.89
 10
3984.42
 20
2489.89
 10
3965.42
 20
2489.89
  0
MTEXT
  5
36C
330
17
100
AcDbEntity
  8
Texto Secao
100
AcDbMText
 10
3974.92
 20
2194.89
 30
0.0
 40
10.0
 71
1
  1
P51.D
  0
MTEXT
  5
36D
330
17
100
AcDbEntity
  8
Cota Secao (2x)
100
AcDbMText
 10
3756.42
 20
2544.89
 30
0.0
 40
8.0
 71
1
  1
B=19cm  H=50cm
  0
MTEXT
  5
36E
330
17
100
AcDbEntity
  8
NOMENCLATURA
100
AcDbMText
 10
3756.42
 20
2539.89
 30
0.0
 40
10.0
 71
1
  1
12 PAV - P51
  0
LWPOLYLINE
  5
36F
330
17
100
AcDbEntity
  8
Paineis
100
AcDbPolyline
 90
4
 70
1
 10
3843.38
 20
2165.77
 10
3862.38
 20
2165.77
 10
3862.38
 20
2167.77
 10
3843.38
 20
2167.77
  0
LWPOLYLINE
  5
370
330
17
100
AcDbEntity
  8
Paineis
100
AcDbPolyline
 90
4
 70
1
 10
3843.38
 20
2167.77
 10
3862.38
 20
2167.77
 10
3862.38
 20
2411.77
 10
3843.38
 20
2411.77
  0
LWPOLYLINE
  5
371
330
17
100
AcDbEntity
  8
Paineis
100
AcDbPolyline
 90
4
 70
1
 10
3843.38
 20
2411.77
 10
3862.38
 20
2411.77
 10
3862.38
 20
2445.77
 10
3843.38
 20
2445.77
  0
MTEXT
  5
372
330
17
100
AcDbEntity
  8
Texto Secao
100
AcDbMText
 10
3852.88
 20
2150.77
 30
0.0
 40
10.0
 71
1
  1
P61.A
  0
LWPOLYLINE
  5
373
330
17
100
AcDbEntity
  8
Paineis
100
AcDbPolyline
 90
4
 70
1
 10
3892.38
 20
2165.77
 10
3911.38
 20
2165.77
 10
3911.38
 20
2167.77
 10
3892.38
 20
2167.77
  0
LWPOLYLINE
  5
374
330
17
100
AcDbEntity
  8
Paineis
100
AcDbPolyline
 90
4
 70
1
 10
3892.38
 20
2167.77
 10
3911.38
 20
2167.77
 10
3911.38
 20
2411.77
 10
3892.38
 20
2411.77
  0
LWPOLYLINE
  5
375
330
17
100
AcDbEntity
  8
Paineis
100
AcDbPolyline
 90
4
 70
1
 10
3892.38
 20
2411.77
 10
3911.38
 20
2411.77
 10
3911.38
 20
2445.77
 10
3892.38
 20
2445.77
  0
MTEXT
  5
376
330
17
100
AcDbEntity
  8
Texto Secao
100
AcDbMText
 10
3901.88
 20
2150.77
 30
0.0
 40
10.0
 71
1
  1
P61.B
  0
LWPOLYLINE
  5
377
330
17
100
AcDbEntity
  8
Paineis
100
AcDbPolyline
 90
4
 70
1
 10
3941.38
 20
2165.77
 10
3960.38
 20
2165.77
 10
3960.38
 20
2167.77
 10
3941.38
 20
2167.77
  0
LWPOLYLINE
  5
378
330
17
100
AcDbEntity
  8
Paineis
100
AcDbPolyline
 90
4
 70
1
 10
3941.38
 20
2167.77
 10
3960.38
 20
2167.77
 10
3960.38
 20
2411.77
 10
3941.38
 20
2411.77
  0
LWPOLYLINE
  5
379
330
17
100
AcDbEntity
  8
Paineis
100
AcDbPolyline
 90
4
 70
1
 10
3941.38
 20
2411.77
 10
3960.38
 20
2411.77
 10
3960.38
 20
2445.77
 10
3941.38
 20
2445.77
  0
MTEXT
  5
37A
330
17
100
AcDbEntity
  8
Texto Secao
100
AcDbMText
 10
3950.88
 20
2150.77
 30
0.0
 40
10.0
 71
1
  1
P61.C
  0
LWPOLYLINE
  5
37B
330
17
100
AcDbEntity
  8
Paineis
100
AcDbPolyline
 90
4
 70
1
 10
3990.38
 20
2165.77
 10
4009.38
 20
2165.77
 10
4009.38
 20
2167.77
 10
3990.38
 20
2167.77
  0
LWPOLYLINE
  5
37C
330
17
100
AcDbEntity
  8
Paineis
100
AcDbPolyline
 90
4
 70
1
 10
3990.38
 20
2167.77
 10
4009.38
 20
2167.77
 10
4009.38
 20
2411.77
 10
3990.38
 20
2411.77
  0
LWPOLYLINE
  5
37D
330
17
100
AcDbEntity
  8
Paineis
100
AcDbPolyline
 90
4
 70
1
 10
3990.38
 20
2411.77
 10
4009.38
 20
2411.77
 10
4009.38
 20
2445.77
 10
3990.38
 20
2445.77
  0
MTEXT
  5
37E
330
17
100
AcDbEntity
  8
Texto Secao
100
AcDbMText
 10
3999.88
 20
2150.77
 30
0.0
 40
10.0
 71
1
  1
P61.D
  0
MTEXT
  5
37F
330
17
100
AcDbEntity
  8
Cota Secao (2x)
100
AcDbMText
 10
3843.38
 20
2500.77
 30
0.0
 40
8.0
 71
1
  1
B=19cm  H=19cm
  0
MTEXT
  5
380
330
17
100
AcDbEntity
  8
NOMENCLATURA
100
AcDbMText
 10
3843.38
 20
2495.77
 30
0.0
 40
10.0
 71
1
  1
12 PAV - P61
  0
LWPOLYLINE
  5
381
330
17
100
AcDbEntity
  8
Paineis
100
AcDbPolyline
 90
4
 70
1
 10
3844.4
 20
1902.36
 10
3863.4
 20
1902.36
 10
3863.4
 20
1904.36
 10
3844.4
 20
1904.36
  0
LWPOLYLINE
  5
382
330
17
100
AcDbEntity
  8
Paineis
100
AcDbPolyline
 90
4
 70
1
 10
3844.4
 20
1904.36
 10
3863.4
 20
1904.36
 10
3863.4
 20
2148.3599999999997
 10
3844.4
 20
2148.3599999999997
  0
LWPOLYLINE
  5
383
330
17
100
AcDbEntity
  8
Paineis
100
AcDbPolyline
 90
4
 70
1
 10
3844.4
 20
2148.3599999999997
 10
3863.4
 20
2148.3599999999997
 10
3863.4
 20
2182.3599999999997
 10
3844.4
 20
2182.3599999999997
  0
MTEXT
  5
384
330
17
100
AcDbEntity
  8
Texto Secao
100
AcDbMText
 10
3853.9
 20
1887.36
 30
0.0
 40
10.0
 71
1
  1
P62.A
  0
LWPOLYLINE
  5
385
330
17
100
AcDbEntity
  8
Paineis
100
AcDbPolyline
 90
4
 70
1
 10
3893.4
 20
1902.36
 10
3912.4
 20
1902.36
 10
3912.4
 20
1904.36
 10
3893.4
 20
1904.36
  0
LWPOLYLINE
  5
386
330
17
100
AcDbEntity
  8
Paineis
100
AcDbPolyline
 90
4
 70
1
 10
3893.4
 20
1904.36
 10
3912.4
 20
1904.36
 10
3912.4
 20
2148.3599999999997
 10
3893.4
 20
2148.3599999999997
  0
LWPOLYLINE
  5
387
330
17
100
AcDbEntity
  8
Paineis
100
AcDbPolyline
 90
4
 70
1
 10
3893.4
 20
2148.3599999999997
 10
3912.4
 20
2148.3599999999997
 10
3912.4
 20
2182.3599999999997
 10
3893.4
 20
2182.3599999999997
  0
MTEXT
  5
388
330
17
100
AcDbEntity
  8
Texto Secao
100
AcDbMText
 10
3902.9
 20
1887.36
 30
0.0
 40
10.0
 71
1
  1
P62.B
  0
LWPOLYLINE
  5
389
330
17
100
AcDbEntity
  8
Paineis
100
AcDbPolyline
 90
4
 70
1
 10
3942.4
 20
1902.36
 10
3961.4
 20
1902.36
 10
3961.4
 20
1904.36
 10
3942.4
 20
1904.36
  0
LWPOLYLINE
  5
38A
330
17
100
AcDbEntity
  8
Paineis
100
AcDbPolyline
 90
4
 70
1
 10
3942.4
 20
1904.36
 10
3961.4
 20
1904.36
 10
3961.4
 20
2148.3599999999997
 10
3942.4
 20
2148.3599999999997
  0
LWPOLYLINE
  5
38B
330
17
100
AcDbEntity
  8
Paineis
100
AcDbPolyline
 90
4
 70
1
 10
3942.4
 20
2148.3599999999997
 10
3961.4
 20
2148.3599999999997
 10
3961.4
 20
2182.3599999999997
 10
3942.4
 20
2182.3599999999997
  0
MTEXT
  5
38C
330
17
100
AcDbEntity
  8
Texto Secao
100
AcDbMText
 10
3951.9
 20
1887.36
 30
0.0
 40
10.0
 71
1
  1
P62.C
  0
LWPOLYLINE
  5
38D
330
17
100
AcDbEntity
  8
Paineis
100
AcDbPolyline
 90
4
 70
1
 10
3991.4
 20
1902.36
 10
4010.4
 20
1902.36
 10
4010.4
 20
1904.36
 10
3991.4
 20
1904.36
  0
LWPOLYLINE
  5
38E
330
17
100
AcDbEntity
  8
Paineis
100
AcDbPolyline
 90
4
 70
1
 10
3991.4
 20
1904.36
 10
4010.4
 20
1904.36
 10
4010.4
 20
2148.3599999999997
 10
3991.4
 20
2148.3599999999997
  0
LWPOLYLINE
  5
38F
330
17
100
AcDbEntity
  8
Paineis
100
AcDbPolyline
 90
4
 70
1
 10
3991.4
 20
2148.3599999999997
 10
4010.4
 20
2148.3599999999997
 10
4010.4
 20
2182.3599999999997
 10
3991.4
 20
2182.3599999999997
  0
MTEXT
  5
390
330
17
100
AcDbEntity
  8
Texto Secao
100
AcDbMText
 10
4000.9
 20
1887.36
 30
0.0
 40
10.0
 71
1
  1
P62.D
  0
MTEXT
  5
391
330
17
100
AcDbEntity
  8
Cota Secao (2x)
100
AcDbMText
 10
3844.4
 20
2237.3599999999997
 30
0.0
 40
8.0
 71
1
  1
B=19cm  H=19cm
  0
MTEXT
  5
392
330
17
100
AcDbEntity
  8
NOMENCLATURA
100
AcDbMText
 10
3844.4
 20
2232.3599999999997
 30
0.0
 40
10.0
 71
1
  1
12 PAV - P62
  0
LWPOLYLINE
  5
393
330
17
100
AcDbEntity
  8
Paineis
100
AcDbPolyline
 90
4
 70
1
 10
2898.63
 20
2448.88
 10
2958.63
 20
2448.88
 10
2958.63
 20
2450.88
 10
2898.63
 20
2450.88
  0
LWPOLYLINE
  5
394
330
17
100
AcDbEntity
  8
Paineis
100
AcDbPolyline
 90
4
 70
1
 10
2898.63
 20
2450.88
 10
2958.63
 20
2450.88
 10
2958.63
 20
2694.88
 10
2898.63
 20
2694.88
  0
LWPOLYLINE
  5
395
330
17
100
AcDbEntity
  8
Paineis
100
AcDbPolyline
 90
4
 70
1
 10
2898.63
 20
2694.88
 10
2958.63
 20
2694.88
 10
2958.63
 20
2728.88
 10
2898.63
 20
2728.88
  0
MTEXT
  5
396
330
17
100
AcDbEntity
  8
Texto Secao
100
AcDbMText
 10
2928.63
 20
2433.88
 30
0.0
 40
10.0
 71
1
  1
P101.A
  0
LWPOLYLINE
  5
397
330
17
100
AcDbEntity
  8
Paineis
100
AcDbPolyline
 90
4
 70
1
 10
2988.63
 20
2448.88
 10
3012.63
 20
2448.88
 10
3012.63
 20
2450.88
 10
2988.63
 20
2450.88
  0
LWPOLYLINE
  5
398
330
17
100
AcDbEntity
  8
Paineis
100
AcDbPolyline
 90
4
 70
1
 10
2988.63
 20
2450.88
 10
3012.63
 20
2450.88
 10
3012.63
 20
2694.88
 10
2988.63
 20
2694.88
  0
LWPOLYLINE
  5
399
330
17
100
AcDbEntity
  8
Paineis
100
AcDbPolyline
 90
4
 70
1
 10
2988.63
 20
2694.88
 10
3012.63
 20
2694.88
 10
3012.63
 20
2728.88
 10
2988.63
 20
2728.88
  0
MTEXT
  5
39A
330
17
100
AcDbEntity
  8
Texto Secao
100
AcDbMText
 10
3000.63
 20
2433.88
 30
0.0
 40
10.0
 71
1
  1
P101.B
  0
LWPOLYLINE
  5
39B
330
17
100
AcDbEntity
  8
Paineis
100
AcDbPolyline
 90
4
 70
1
 10
3042.63
 20
2448.88
 10
3102.63
 20
2448.88
 10
3102.63
 20
2450.88
 10
3042.63
 20
2450.88
  0
LWPOLYLINE
  5
39C
330
17
100
AcDbEntity
  8
Paineis
100
AcDbPolyline
 90
4
 70
1
 10
3042.63
 20
2450.88
 10
3102.63
 20
2450.88
 10
3102.63
 20
2694.88
 10
3042.63
 20
2694.88
  0
LWPOLYLINE
  5
39D
330
17
100
AcDbEntity
  8
Paineis
100
AcDbPolyline
 90
4
 70
1
 10
3042.63
 20
2694.88
 10
3102.63
 20
2694.88
 10
3102.63
 20
2728.88
 10
3042.63
 20
2728.88
  0
MTEXT
  5
39E
330
17
100
AcDbEntity
  8
Texto Secao
100
AcDbMText
 10
3072.63
 20
2433.88
 30
0.0
 40
10.0
 71
1
  1
P101.C
  0
LWPOLYLINE
  5
39F
330
17
100
AcDbEntity
  8
Paineis
100
AcDbPolyline
 90
4
 70
1
 10
3132.63
 20
2448.88
 10
3156.63
 20
2448.88
 10
3156.63
 20
2450.88
 10
3132.63
 20
2450.88
  0
LWPOLYLINE
  5
3A0
330
17
100
AcDbEntity
  8
Paineis
100
AcDbPolyline
 90
4
 70
1
 10
3132.63
 20
2450.88
 10
3156.63
 20
2450.88
 10
3156.63
 20
2694.88
 10
3132.63
 20
2694.88
  0
LWPOLYLINE
  5
3A1
330
17
100
AcDbEntity
  8
Paineis
100
AcDbPolyline
 90
4
 70
1
 10
3132.63
 20
2694.88
 10
3156.63
 20
2694.88
 10
3156.63
 20
2728.88
 10
3132.63
 20
2728.88
  0
MTEXT
  5
3A2
330
17
100
AcDbEntity
  8
Texto Secao
100
AcDbMText
 10
3144.63
 20
2433.88
 30
0.0
 40
10.0
 71
1
  1
P101.D
  0
MTEXT
  5
3A3
330
17
100
AcDbEntity
  8
Cota Secao (2x)
100
AcDbMText
 10
2898.63
 20
2783.88
 30
0.0
 40
8.0
 71
1
  1
B=24cm  H=60cm
  0
MTEXT
  5
3A4
330
17
100
AcDbEntity
  8
NOMENCLATURA
100
AcDbMText
 10
2898.63
 20
2778.88
 30
0.0
 40
10.0
 71
1
  1
12 PAV - P101
  0
LWPOLYLINE
  5
3A5
330
17
100
AcDbEntity
  8
Paineis
100
AcDbPolyline
 90
4
 70
1
 10
2893.62
 20
1650.58
 10
2953.62
 20
1650.58
 10
2953.62
 20
1652.58
 10
2893.62
 20
1652.58
  0
LWPOLYLINE
  5
3A6
330
17
100
AcDbEntity
  8
Paineis
100
AcDbPolyline
 90
4
 70
1
 10
2893.62
 20
1652.58
 10
2953.62
 20
1652.58
 10
2953.62
 20
1896.58
 10
2893.62
 20
1896.58
  0
LWPOLYLINE
  5
3A7
330
17
100
AcDbEntity
  8
Paineis
100
AcDbPolyline
 90
4
 70
1
 10
2893.62
 20
1896.58
 10
2953.62
 20
1896.58
 10
2953.62
 20
1930.58
 10
2893.62
 20
1930.58
  0
MTEXT
  5
3A8
330
17
100
AcDbEntity
  8
Texto Secao
100
AcDbMText
 10
2923.62
 20
1635.58
 30
0.0
 40
10.0
 71
1
  1
P102.A
  0
LWPOLYLINE
  5
3A9
330
17
100
AcDbEntity
  8
Paineis
100
AcDbPolyline
 90
4
 70
1
 10
2983.62
 20
1650.58
 10
3007.62
 20
1650.58
 10
3007.62
 20
1652.58
 10
2983.62
 20
1652.58
  0
LWPOLYLINE
  5
3AA
330
17
100
AcDbEntity
  8
Paineis
100
AcDbPolyline
 90
4
 70
1
 10
2983.62
 20
1652.58
 10
3007.62
 20
1652.58
 10
3007.62
 20
1896.58
 10
2983.62
 20
1896.58
  0
LWPOLYLINE
  5
3AB
330
17
100
AcDbEntity
  8
Paineis
100
AcDbPolyline
 90
4
 70
1
 10
2983.62
 20
1896.58
 10
3007.62
 20
1896.58
 10
3007.62
 20
1930.58
 10
2983.62
 20
1930.58
  0
MTEXT
  5
3AC
330
17
100
AcDbEntity
  8
Texto Secao
100
AcDbMText
 10
2995.62
 20
1635.58
 30
0.0
 40
10.0
 71
1
  1
P102.B
  0
LWPOLYLINE
  5
3AD
330
17
100
AcDbEntity
  8
Paineis
100
AcDbPolyline
 90
4
 70
1
 10
3037.62
 20
1650.58
 10
3097.62
 20
1650.58
 10
3097.62
 20
1652.58
 10
3037.62
 20
1652.58
  0
LWPOLYLINE
  5
3AE
330
17
100
AcDbEntity
  8
Paineis
100
AcDbPolyline
 90
4
 70
1
 10
3037.62
 20
1652.58
 10
3097.62
 20
1652.58
 10
3097.62
 20
1896.58
 10
3037.62
 20
1896.58
  0
LWPOLYLINE
  5
3AF
330
17
100
AcDbEntity
  8
Paineis
100
AcDbPolyline
 90
4
 70
1
 10
3037.62
 20
1896.58
 10
3097.62
 20
1896.58
 10
3097.62
 20
1930.58
 10
3037.62
 20
1930.58
  0
MTEXT
  5
3B0
330
17
100
AcDbEntity
  8
Texto Secao
100
AcDbMText
 10
3067.62
 20
1635.58
 30
0.0
 40
10.0
 71
1
  1
P102.C
  0
LWPOLYLINE
  5
3B1
330
17
100
AcDbEntity
  8
Paineis
100
AcDbPolyline
 90
4
 70
1
 10
3127.62
 20
1650.58
 10
3151.62
 20
1650.58
 10
3151.62
 20
1652.58
 10
3127.62
 20
1652.58
  0
LWPOLYLINE
  5
3B2
330
17
100
AcDbEntity
  8
Paineis
100
AcDbPolyline
 90
4
 70
1
 10
3127.62
 20
1652.58
 10
3151.62
 20
1652.58
 10
3151.62
 20
1896.58
 10
3127.62
 20
1896.58
  0
LWPOLYLINE
  5
3B3
330
17
100
AcDbEntity
  8
Paineis
100
AcDbPolyline
 90
4
 70
1
 10
3127.62
 20
1896.58
 10
3151.62
 20
1896.58
 10
3151.62
 20
1930.58
 10
3127.62
 20
1930.58
  0
MTEXT
  5
3B4
330
17
100
AcDbEntity
  8
Texto Secao
100
AcDbMText
 10
3139.62
 20
1635.58
 30
0.0
 40
10.0
 71
1
  1
P102.D
  0
MTEXT
  5
3B5
330
17
100
AcDbEntity
  8
Cota Secao (2x)
100
AcDbMText
 10
2893.62
 20
1985.58
 30
0.0
 40
8.0
 71
1
  1
B=24cm  H=60cm
  0
MTEXT
  5
3B6
330
17
100
AcDbEntity
  8
NOMENCLATURA
100
AcDbMText
 10
2893.62
 20
1980.58
 30
0.0
 40
10.0
 71
1
  1
12 PAV - P102
  0
LWPOLYLINE
  5
3B7
330
17
100
AcDbEntity
  8
Paineis
100
AcDbPolyline
 90
4
 70
1
 10
4540.42
 20
2555.52
 10
4600.42
 20
2555.52
 10
4600.42
 20
2557.52
 10
4540.42
 20
2557.52
  0
LWPOLYLINE
  5
3B8
330
17
100
AcDbEntity
  8
Paineis
100
AcDbPolyline
 90
4
 70
1
 10
4540.42
 20
2557.52
 10
4600.42
 20
2557.52
 10
4600.42
 20
2801.52
 10
4540.42
 20
2801.52
  0
LWPOLYLINE
  5
3B9
330
17
100
AcDbEntity
  8
Paineis
100
AcDbPolyline
 90
4
 70
1
 10
4540.42
 20
2801.52
 10
4600.42
 20
2801.52
 10
4600.42
 20
2835.52
 10
4540.42
 20
2835.52
  0
MTEXT
  5
3BA
330
17
100
AcDbEntity
  8
Texto Secao
100
AcDbMText
 10
4570.42
 20
2540.52
 30
0.0
 40
10.0
 71
1
  1
P103.A
  0
LWPOLYLINE
  5
3BB
330
17
100
AcDbEntity
  8
Paineis
100
AcDbPolyline
 90
4
 70
1
 10
4630.42
 20
2555.52
 10
4649.42
 20
2555.52
 10
4649.42
 20
2557.52
 10
4630.42
 20
2557.52
  0
LWPOLYLINE
  5
3BC
330
17
100
AcDbEntity
  8
Paineis
100
AcDbPolyline
 90
4
 70
1
 10
4630.42
 20
2557.52
 10
4649.42
 20
2557.52
 10
4649.42
 20
2801.52
 10
4630.42
 20
2801.52
  0
LWPOLYLINE
  5
3BD
330
17
100
AcDbEntity
  8
Paineis
100
AcDbPolyline
 90
4
 70
1
 10
4630.42
 20
2801.52
 10
4649.42
 20
2801.52
 10
4649.42
 20
2835.52
 10
4630.42
 20
2835.52
  0
MTEXT
  5
3BE
330
17
100
AcDbEntity
  8
Texto Secao
100
AcDbMText
 10
4639.92
 20
2540.52
 30
0.0
 40
10.0
 71
1
  1
P103.B
  0
LWPOLYLINE
  5
3BF
330
17
100
AcDbEntity
  8
Paineis
100
AcDbPolyline
 90
4
 70
1
 10
4679.42
 20
2555.52
 10
4739.42
 20
2555.52
 10
4739.42
 20
2557.52
 10
4679.42
 20
2557.52
  0
LWPOLYLINE
  5
3C0
330
17
100
AcDbEntity
  8
Paineis
100
AcDbPolyline
 90
4
 70
1
 10
4679.42
 20
2557.52
 10
4739.42
 20
2557.52
 10
4739.42
 20
2801.52
 10
4679.42
 20
2801.52
  0
LWPOLYLINE
  5
3C1
330
17
100
AcDbEntity
  8
Paineis
100
AcDbPolyline
 90
4
 70
1
 10
4679.42
 20
2801.52
 10
4739.42
 20
2801.52
 10
4739.42
 20
2835.52
 10
4679.42
 20
2835.52
  0
MTEXT
  5
3C2
330
17
100
AcDbEntity
  8
Texto Secao
100
AcDbMText
 10
4709.42
 20
2540.52
 30
0.0
 40
10.0
 71
1
  1
P103.C
  0
LWPOLYLINE
  5
3C3
330
17
100
AcDbEntity
  8
Paineis
100
AcDbPolyline
 90
4
 70
1
 10
4769.42
 20
2555.52
 10
4788.42
 20
2555.52
 10
4788.42
 20
2557.52
 10
4769.42
 20
2557.52
  0
LWPOLYLINE
  5
3C4
330
17
100
AcDbEntity
  8
Paineis
100
AcDbPolyline
 90
4
 70
1
 10
4769.42
 20
2557.52
 10
4788.42
 20
2557.52
 10
4788.42
 20
2801.52
 10
4769.42
 20
2801.52
  0
LWPOLYLINE
  5
3C5
330
17
100
AcDbEntity
  8
Paineis
100
AcDbPolyline
 90
4
 70
1
 10
4769.42
 20
2801.52
 10
4788.42
 20
2801.52
 10
4788.42
 20
2835.52
 10
4769.42
 20
2835.52
  0
MTEXT
  5
3C6
330
17
100
AcDbEntity
  8
Texto Secao
100
AcDbMText
 10
4778.92
 20
2540.52
 30
0.0
 40
10.0
 71
1
  1
P103.D
  0
MTEXT
  5
3C7
330
17
100
AcDbEntity
  8
Cota Secao (2x)
100
AcDbMText
 10
4540.42
 20
2890.52
 30
0.0
 40
8.0
 71
1
  1
B=19cm  H=60cm
  0
MTEXT
  5
3C8
330
17
100
AcDbEntity
  8
NOMENCLATURA
100
AcDbMText
 10
4540.42
 20
2885.52
 30
0.0
 40
10.0
 71
1
  1
12 PAV - P103
  0
ENDSEC
  0
SECTION
  2
OBJECTS
  0
DICTIONARY
  5
A
330
0
100
AcDbDictionary
281
1
  3
ACAD_COLOR
350
B
  3
ACAD_GROUP
350
C
  3
ACAD_LAYOUT
350
D
  3
ACAD_MATERIAL
350
E
  3
ACAD_MLEADERSTYLE
350
F
  3
ACAD_MLINESTYLE
350
10
  3
ACAD_PLOTSETTINGS
350
11
  3
ACAD_PLOTSTYLENAME
350
12
  3
ACAD_SCALELIST
350
14
  3
ACAD_TABLESTYLE
350
15
  3
ACAD_VISUALSTYLE
350
16
  3
EZDXF_META
350
2D
  0
DICTIONARY
  5
B
330
A
100
AcDbDictionary
281
1
  0
DICTIONARY
  5
C
330
A
100
AcDbDictionary
281
1
  0
DICTIONARY
  5
D
330
A
100
AcDbDictionary
281
1
  3
Model
350
1A
  3
Layout1
350
1E
  0
DICTIONARY
  5
E
330
A
100
AcDbDictionary
281
1
  3
ByBlock
350
1F
  3
ByLayer
350
20
  3
Global
350
21
  0
DICTIONARY
  5
F
330
A
100
AcDbDictionary
281
1
  3
Standard
350
2C
  0
DICTIONARY
  5
10
330
A
100
AcDbDictionary
281
1
  3
Standard
350
22
  0
DICTIONARY
  5
11
330
A
100
AcDbDictionary
281
1
  0
ACDBDICTIONARYWDFLT
  5
12
330
A
100
AcDbDictionary
281
1
  3
Normal
350
13
100
AcDbDictionaryWithDefault
340
13
  0
ACDBPLACEHOLDER
  5
13
330
12
  0
DICTIONARY
  5
14
330
A
100
AcDbDictionary
281
1
  0
DICTIONARY
  5
15
330
A
100
AcDbDictionary
281
1
  0
DICTIONARY
  5
16
330
A
100
AcDbDictionary
281
1
  0
LAYOUT
  5
1A
330
D
100
AcDbPlotSettings
  1

  4
A3
  6

 40
7.5
 41
20.0
 42
7.5
 43
20.0
 44
420.0
 45
297.0
 46
0.0
 47
0.0
 48
0.0
 49
0.0
140
0.0
141
0.0
142
1.0
143
1.0
 70
1024
 72
1
 73
0
 74
5
  7

 75
16
 76
0
 77
2
 78
300
147
1.0
148
0.0
149
0.0
100
AcDbLayout
  1
Model
 70
1
 71
0
 10
0.0
 20
0.0
 11
420.0
 21
297.0
 12
0.0
 22
0.0
 32
0.0
 14
1e+20
 24
1e+20
 34
1e+20
 15
-1e+20
 25
-1e+20
 35
-1e+20
146
0.0
 13
0.0
 23
0.0
 33
0.0
 16
1.0
 26
0.0
 36
0.0
 17
0.0
 27
1.0
 37
0.0
 76
1
330
17
  0
LAYOUT
  5
1E
330
D
100
AcDbPlotSettings
  1

  4
A3
  6

 40
7.5
 41
20.0
 42
7.5
 43
20.0
 44
420.0
 45
297.0
 46
0.0
 47
0.0
 48
0.0
 49
0.0
140
0.0
141
0.0
142
1.0
143
1.0
 70
0
 72
1
 73
0
 74
5
  7

 75
16
 76
0
 77
2
 78
300
147
1.0
148
0.0
149
0.0
100
AcDbLayout
  1
Layout1
 70
1
 71
1
 10
0.0
 20
0.0
 11
420.0
 21
297.0
 12
0.0
 22
0.0
 32
0.0
 14
1e+20
 24
1e+20
 34
1e+20
 15
-1e+20
 25
-1e+20
 35
-1e+20
146
0.0
 13
0.0
 23
0.0
 33
0.0
 16
1.0
 26
0.0
 36
0.0
 17
0.0
 27
1.0
 37
0.0
 76
1
330
1B
  0
MATERIAL
  5
1F
102
{ACAD_REACTORS
330
E
102
}
330
E
100
AcDbMaterial
  1
ByBlock
  2

 70
0
 40
1.0
 71
1
 41
1.0
 91
-1023410177
 42
1.0
 72
1
  3

 73
1
 74
1
 75
1
 44
0.5
 73
0
 45
1.0
 46
1.0
 77
1
  4

 78
1
 79
1
170
1
 48
1.0
171
1
  6

172
1
173
1
174
1
140
1.0
141
1.0
175
1
  7

176
1
177
1
178
1
143
1.0
179
1
  8

270
1
271
1
272
1
145
1.0
146
1.0
273
1
  9

274
1
275
1
276
1
 42
1.0
 72
1
  3

 73
1
 74
1
 75
1
 94
63
  0
MATERIAL
  5
20
102
{ACAD_REACTORS
330
E
102
}
330
E
100
AcDbMaterial
  1
ByLayer
  2

 70
0
 40
1.0
 71
1
 41
1.0
 91
-1023410177
 42
1.0
 72
1
  3

 73
1
 74
1
 75
1
 44
0.5
 73
0
 45
1.0
 46
1.0
 77
1
  4

 78
1
 79
1
170
1
 48
1.0
171
1
  6

172
1
173
1
174
1
140
1.0
141
1.0
175
1
  7

176
1
177
1
178
1
143
1.0
179
1
  8

270
1
271
1
272
1
145
1.0
146
1.0
273
1
  9

274
1
275
1
276
1
 42
1.0
 72
1
  3

 73
1
 74
1
 75
1
 94
63
  0
MATERIAL
  5
21
102
{ACAD_REACTORS
330
E
102
}
330
E
100
AcDbMaterial
  1
Global
  2

 70
0
 40
1.0
 71
1
 41
1.0
 91
-1023410177
 42
1.0
 72
1
  3

 73
1
 74
1
 75
1
 44
0.5
 73
0
 45
1.0
 46
1.0
 77
1
  4

 78
1
 79
1
170
1
 48
1.0
171
1
  6

172
1
173
1
174
1
140
1.0
141
1.0
175
1
  7

176
1
177
1
178
1
143
1.0
179
1
  8

270
1
271
1
272
1
145
1.0
146
1.0
273
1
  9

274
1
275
1
276
1
 42
1.0
 72
1
  3

 73
1
 74
1
 75
1
 94
63
  0
MLINESTYLE
  5
22
102
{ACAD_REACTORS
330
10
102
}
330
10
100
AcDbMlineStyle
  2
Standard
 70
0
  3

 62
256
 51
90.0
 52
90.0
 71
2
 49
0.5
 62
256
  6
BYLAYER
 49
-0.5
 62
256
  6
BYLAYER
  0
MLEADERSTYLE
  5
2C
102
{ACAD_REACTORS
330
F
102
}
330
F
100
AcDbMLeaderStyle
179
2
170
2
171
1
172
0
 90
2
 40
0.0
 41
0.0
173
1
 91
-1056964608
 92
-2
290
1
 42
2.0
291
1
 43
8.0
  3
Standard
 44
4.0
300

342
29
174
1
175
1
176
0
178
1
 93
-1056964608
 45
4.0
292
0
297
0
 46
4.0
 94
-1056964608
 47
1.0
 49
1.0
140
1.0
294
1
141
0.0
177
0
142
1.0
295
0
296
0
143
3.75
271
0
272
9
273
9
  0
DICTIONARY
  5
2D
330
A
100
AcDbDictionary
280
1
281
1
  3
CREATED_BY_EZDXF
350
2E
  3
WRITTEN_BY_EZDXF
350
3CB
  0
DICTIONARYVAR
  5
2E
330
2D
100
DictionaryVariables
280
0
  1
1.4.3 @ 2026-05-28T13:38:09.588984+00:00
  0
DICTIONARYVAR
  5
3CB
330
2D
100
DictionaryVariables
280
0
  1
1.4.3 @ 2026-05-28T13:38:10.359932+00:00
  0
ENDSEC
  0
EOF
