  0
SECTION
  2
HEADER
  9
$ACADVER
  1
AC1024
  9
$ACADMAINTVER
 70
6
  9
$DWGCODEPAGE
  3
ANSI_1252
  9
$LASTSAVEDBY
  1
ezdxf
  9
$INSBASE
 10
0.0
 20
0.0
 30
0.0
  9
$EXTMIN
 10
1e+20
 20
1e+20
 30
1e+20
  9
$EXTMAX
 10
-1e+20
 20
-1e+20
 30
-1e+20
  9
$LIMMIN
 10
0.0
 20
0.0
  9
$LIMMAX
 10
420.0
 20
297.0
  9
$ORTHOMODE
 70
0
  9
$REGENMODE
 70
1
  9
$FILLMODE
 70
1
  9
$QTEXTMODE
 70
0
  9
$MIRRTEXT
 70
1
  9
$LTSCALE
 40
1.0
  9
$ATTMODE
 70
1
  9
$TEXTSIZE
 40
2.5
  9
$TRACEWID
 40
1.0
  9
$TEXTSTYLE
  7
Standard
  9
$CLAYER
  8
0
  9
$CELTYPE
  6
ByLayer
  9
$CECOLOR
 62
256
  9
$CELTSCALE
 40
1.0
  9
$DISPSILH
 70
0
  9
$DIMSCALE
 40
1.0
  9
$DIMASZ
 40
2.5
  9
$DIMEXO
 40
0.625
  9
$DIMDLI
 40
3.75
  9
$DIMRND
 40
0.0
  9
$DIMDLE
 40
0.0
  9
$DIMEXE
 40
1.25
  9
$DIMTP
 40
0.0
  9
$DIMTM
 40
0.0
  9
$DIMTXT
 40
2.5
  9
$DIMCEN
 40
2.5
  9
$DIMTSZ
 40
0.0
  9
$DIMTOL
 70
0
  9
$DIMLIM
 70
0
  9
$DIMTIH
 70
0
  9
$DIMTOH
 70
0
  9
$DIMSE1
 70
0
  9
$DIMSE2
 70
0
  9
$DIMTAD
 70
1
  9
$DIMZIN
 70
8
  9
$DIMBLK
  1

  9
$DIMASO
 70
1
  9
$DIMSHO
 70
1
  9
$DIMPOST
  1

  9
$DIMAPOST
  1

  9
$DIMALT
 70
0
  9
$DIMALTD
 70
3
  9
$DIMALTF
 40
0.03937007874
  9
$DIMLFAC
 40
1.0
  9
$DIMTOFL
 70
1
  9
$DIMTVP
 40
0.0
  9
$DIMTIX
 70
0
  9
$DIMSOXD
 70
0
  9
$DIMSAH
 70
0
  9
$DIMBLK1
  1

  9
$DIMBLK2
  1

  9
$DIMSTYLE
  2
ISO-25
  9
$DIMCLRD
 70
0
  9
$DIMCLRE
 70
0
  9
$DIMCLRT
 70
0
  9
$DIMTFAC
 40
1.0
  9
$DIMGAP
 40
0.625
  9
$DIMJUST
 70
0
  9
$DIMSD1
 70
0
  9
$DIMSD2
 70
0
  9
$DIMTOLJ
 70
0
  9
$DIMTZIN
 70
8
  9
$DIMALTZ
 70
0
  9
$DIMALTTZ
 70
0
  9
$DIMUPT
 70
0
  9
$DIMDEC
 70
2
  9
$DIMTDEC
 70
2
  9
$DIMALTU
 70
2
  9
$DIMALTTD
 70
3
  9
$DIMTXSTY
  7
Standard
  9
$DIMAUNIT
 70
0
  9
$DIMADEC
 70
0
  9
$DIMALTRND
 40
0.0
  9
$DIMAZIN
 70
0
  9
$DIMDSEP
 70
44
  9
$DIMATFIT
 70
3
  9
$DIMFRAC
 70
0
  9
$DIMLDRBLK
  1

  9
$DIMLUNIT
 70
2
  9
$DIMLWD
 70
-2
  9
$DIMLWE
 70
-2
  9
$DIMTMOVE
 70
0
  9
$DIMFXL
 40
1.0
  9
$DIMFXLON
 70
0
  9
$DIMJOGANG
 40
0.785398163397
  9
$DIMTFILL
 70
0
  9
$DIMTFILLCLR
 70
0
  9
$DIMARCSYM
 70
0
  9
$DIMLTYPE
  6

  9
$DIMLTEX1
  6

  9
$DIMLTEX2
  6

  9
$DIMTXTDIRECTION
 70
0
  9
$LUNITS
 70
2
  9
$LUPREC
 70
4
  9
$SKETCHINC
 40
1.0
  9
$FILLETRAD
 40
10.0
  9
$AUNITS
 70
0
  9
$AUPREC
 70
2
  9
$MENU
  1
.
  9
$ELEVATION
 40
0.0
  9
$PELEVATION
 40
0.0
  9
$THICKNESS
 40
0.0
  9
$LIMCHECK
 70
0
  9
$CHAMFERA
 40
0.0
  9
$CHAMFERB
 40
0.0
  9
$CHAMFERC
 40
0.0
  9
$CHAMFERD
 40
0.0
  9
$SKPOLY
 70
0
  9
$TDCREATE
 40
2461202.613402778
  9
$TDUCREATE
 40
2458532.153996898
  9
$TDUPDATE
 40
2461202.613402778
  9
$TDUUPDATE
 40
2458532.1544311
  9
$TDINDWG
 40
0.0
  9
$TDUSRTIMER
 40
0.0
  9
$USRTIMER
 70
1
  9
$ANGBASE
 50
0.0
  9
$ANGDIR
 70
0
  9
$PDMODE
 70
0
  9
$PDSIZE
 40
0.0
  9
$PLINEWID
 40
0.0
  9
$SPLFRAME
 70
0
  9
$SPLINETYPE
 70
6
  9
$SPLINESEGS
 70
8
  9
$HANDSEED
  5
D0
  9
$SURFTAB1
 70
6
  9
$SURFTAB2
 70
6
  9
$SURFTYPE
 70
6
  9
$SURFU
 70
6
  9
$SURFV
 70
6
  9
$UCSBASE
  2

  9
$UCSNAME
  2

  9
$UCSORG
 10
0.0
 20
0.0
 30
0.0
  9
$UCSXDIR
 10
1.0
 20
0.0
 30
0.0
  9
$UCSYDIR
 10
0.0
 20
1.0
 30
0.0
  9
$UCSORTHOREF
  2

  9
$UCSORTHOVIEW
 70
0
  9
$UCSORGTOP
 10
0.0
 20
0.0
 30
0.0
  9
$UCSORGBOTTOM
 10
0.0
 20
0.0
 30
0.0
  9
$UCSORGLEFT
 10
0.0
 20
0.0
 30
0.0
  9
$UCSORGRIGHT
 10
0.0
 20
0.0
 30
0.0
  9
$UCSORGFRONT
 10
0.0
 20
0.0
 30
0.0
  9
$UCSORGBACK
 10
0.0
 20
0.0
 30
0.0
  9
$PUCSBASE
  2

  9
$PUCSNAME
  2

  9
$PUCSORG
 10
0.0
 20
0.0
 30
0.0
  9
$PUCSXDIR
 10
1.0
 20
0.0
 30
0.0
  9
$PUCSYDIR
 10
0.0
 20
1.0
 30
0.0
  9
$PUCSORTHOREF
  2

  9
$PUCSORTHOVIEW
 70
0
  9
$PUCSORGTOP
 10
0.0
 20
0.0
 30
0.0
  9
$PUCSORGBOTTOM
 10
0.0
 20
0.0
 30
0.0
  9
$PUCSORGLEFT
 10
0.0
 20
0.0
 30
0.0
  9
$PUCSORGRIGHT
 10
0.0
 20
0.0
 30
0.0
  9
$PUCSORGFRONT
 10
0.0
 20
0.0
 30
0.0
  9
$PUCSORGBACK
 10
0.0
 20
0.0
 30
0.0
  9
$USERI1
 70
0
  9
$USERI2
 70
0
  9
$USERI3
 70
0
  9
$USERI4
 70
0
  9
$USERI5
 70
0
  9
$USERR1
 40
0.0
  9
$USERR2
 40
0.0
  9
$USERR3
 40
0.0
  9
$USERR4
 40
0.0
  9
$USERR5
 40
0.0
  9
$WORLDVIEW
 70
1
  9
$SHADEDGE
 70
3
  9
$SHADEDIF
 70
70
  9
$TILEMODE
 70
1
  9
$MAXACTVP
 70
64
  9
$PINSBASE
 10
0.0
 20
0.0
 30
0.0
  9
$PLIMCHECK
 70
0
  9
$PEXTMIN
 10
1e+20
 20
1e+20
 30
1e+20
  9
$PEXTMAX
 10
-1e+20
 20
-1e+20
 30
-1e+20
  9
$PLIMMIN
 10
0.0
 20
0.0
  9
$PLIMMAX
 10
420.0
 20
297.0
  9
$UNITMODE
 70
0
  9
$VISRETAIN
 70
1
  9
$PLINEGEN
 70
0
  9
$PSLTSCALE
 70
1
  9
$TREEDEPTH
 70
3020
  9
$CMLSTYLE
  2
Standard
  9
$CMLJUST
 70
0
  9
$CMLSCALE
 40
20.0
  9
$PROXYGRAPHICS
 70
1
  9
$MEASUREMENT
 70
1
  9
$CELWEIGHT
370
-1
  9
$ENDCAPS
280
0
  9
$JOINSTYLE
280
0
  9
$LWDISPLAY
290
0
  9
$INSUNITS
 70
6
  9
$HYPERLINKBASE
  1

  9
$STYLESHEET
  1

  9
$XEDIT
290
1
  9
$CEPSNTYPE
380
0
  9
$PSTYLEMODE
290
1
  9
$FINGERPRINTGUID
  2
{E226A515-4D6D-43A5-A79A-2434C3CBBB32}
  9
$VERSIONGUID
  2
{4F3D924D-5025-4F1B-B688-A13CFE6FD0DA}
  9
$EXTNAMES
290
1
  9
$PSVPSCALE
 40
0.0
  9
$OLESTARTUP
290
0
  9
$SORTENTS
280
127
  9
$INDEXCTL
280
0
  9
$HIDETEXT
280
1
  9
$XCLIPFRAME
280
1
  9
$HALOGAP
280
0
  9
$OBSCOLOR
 70
257
  9
$OBSLTYPE
280
0
  9
$INTERSECTIONDISPLAY
280
0
  9
$INTERSECTIONCOLOR
 70
257
  9
$DIMASSOC
280
2
  9
$PROJECTNAME
  1

  9
$CAMERADISPLAY
290
0
  9
$LENSLENGTH
 40
50.0
  9
$CAMERAHEIGHT
 40
0.0
  9
$STEPSPERSEC
 40
24.0
  9
$STEPSIZE
 40
100.0
  9
$3DDWFPREC
 40
2.0
  9
$PSOLWIDTH
 40
0.005
  9
$PSOLHEIGHT
 40
0.08
  9
$LOFTANG1
 40
1.570796326795
  9
$LOFTANG2
 40
1.570796326795
  9
$LOFTMAG1
 40
0.0
  9
$LOFTMAG2
 40
0.0
  9
$LOFTPARAM
 70
7
  9
$LOFTNORMALS
280
1
  9
$LATITUDE
 40
37.795
  9
$LONGITUDE
 40
-122.394
  9
$NORTHDIRECTION
 40
0.0
  9
$TIMEZONE
 70
-8000
  9
$LIGHTGLYPHDISPLAY
280
1
  9
$TILEMODELIGHTSYNCH
280
1
  9
$CMATERIAL
347
20
  9
$SOLIDHIST
280
0
  9
$SHOWHIST
280
1
  9
$DWFFRAME
280
2
  9
$DGNFRAME
280
2
  9
$REALWORLDSCALE
290
1
  9
$INTERFERECOLOR
 62
256
  9
$CSHADOW
280
0
  9
$SHADOWPLANELOCATION
 40
0.0
  0
ENDSEC
  0
SECTION
  2
CLASSES
  0
CLASS
  1
ACDBDICTIONARYWDFLT
  2
AcDbDictionaryWithDefault
  3
ObjectDBX Classes
 90
0
 91
0
280
0
281
0
  0
CLASS
  1
SUN
  2
AcDbSun
  3
SCENEOE
 90
1153
 91
0
280
0
281
0
  0
CLASS
  1
VISUALSTYLE
  2
AcDbVisualStyle
  3
ObjectDBX Classes
 90
4095
 91
0
280
0
281
0
  0
CLASS
  1
MATERIAL
  2
AcDbMaterial
  3
ObjectDBX Classes
 90
1153
 91
0
280
0
281
0
  0
CLASS
  1
SCALE
  2
AcDbScale
  3
ObjectDBX Classes
 90
1153
 91
0
280
0
281
0
  0
CLASS
  1
TABLESTYLE
  2
AcDbTableStyle
  3
ObjectDBX Classes
 90
4095
 91
0
280
0
281
0
  0
CLASS
  1
MLEADERSTYLE
  2
AcDbMLeaderStyle
  3
ACDB_MLEADERSTYLE_CLASS
 90
4095
 91
0
280
0
281
0
  0
CLASS
  1
DICTIONARYVAR
  2
AcDbDictionaryVar
  3
ObjectDBX Classes
 90
0
 91
0
280
0
281
0
  0
CLASS
  1
CELLSTYLEMAP
  2
AcDbCellStyleMap
  3
ObjectDBX Classes
 90
1152
 91
0
280
0
281
0
  0
CLASS
  1
MENTALRAYRENDERSETTINGS
  2
AcDbMentalRayRenderSettings
  3
SCENEOE
 90
1024
 91
0
280
0
281
0
  0
CLASS
  1
ACDBDETAILVIEWSTYLE
  2
AcDbDetailViewStyle
  3
ObjectDBX Classes
 90
1025
 91
0
280
0
281
0
  0
CLASS
  1
ACDBSECTIONVIEWSTYLE
  2
AcDbSectionViewStyle
  3
ObjectDBX Classes
 90
1025
 91
0
280
0
281
0
  0
CLASS
  1
RASTERVARIABLES
  2
AcDbRasterVariables
  3
ISM
 90
0
 91
0
280
0
281
0
  0
CLASS
  1
ACDBPLACEHOLDER
  2
AcDbPlaceHolder
  3
ObjectDBX Classes
 90
0
 91
0
280
0
281
0
  0
CLASS
  1
LAYOUT
  2
AcDbLayout
  3
ObjectDBX Classes
 90
0
 91
0
280
0
281
0
  0
ENDSEC
  0
SECTION
  2
TABLES
  0
TABLE
  2
VPORT
  5
8
330
0
100
AcDbSymbolTable
 70
1
  0
VPORT
  5
23
330
8
100
AcDbSymbolTableRecord
100
AcDbViewportTableRecord
  2
*Active
 70
0
 10
0.0
 20
0.0
 11
1.0
 21
1.0
 12
0.0
 22
0.0
 13
0.0
 23
0.0
 14
0.5
 24
0.5
 15
0.5
 25
0.5
 16
0.0
 26
0.0
 36
1.0
 17
0.0
 27
0.0
 37
0.0
 40
1000.0
 41
1.34
 42
50.0
 43
0.0
 44
0.0
 50
0.0
 51
0.0
 71
0
 72
1000
 73
1
 74
3
 75
0
 76
0
 77
0
 78
0
281
0
 65
0
146
0.0
  0
ENDTAB
  0
TABLE
  2
LTYPE
  5
2
330
0
100
AcDbSymbolTable
 70
3
  0
LTYPE
  5
24
330
2
100
AcDbSymbolTableRecord
100
AcDbLinetypeTableRecord
  2
ByBlock
 70
0
  3

 72
65
 73
0
 40
0.0
  0
LTYPE
  5
25
330
2
100
AcDbSymbolTableRecord
100
AcDbLinetypeTableRecord
  2
ByLayer
 70
0
  3

 72
65
 73
0
 40
0.0
  0
LTYPE
  5
26
330
2
100
AcDbSymbolTableRecord
100
AcDbLinetypeTableRecord
  2
Continuous
 70
0
  3

 72
65
 73
0
 40
0.0
  0
ENDTAB
  0
TABLE
  2
LAYER
  5
1
330
0
100
AcDbSymbolTable
 70
7
  0
LAYER
  5
27
330
1
100
AcDbSymbolTableRecord
100
AcDbLayerTableRecord
  2
0
 70
0
 62
7
  6
Continuous
370
-3
390
13
347
21
  0
LAYER
  5
28
330
1
100
AcDbSymbolTableRecord
100
AcDbLayerTableRecord
  2
Defpoints
 70
0
 62
7
  6
Continuous
290
0
370
-3
390
13
347
21
  0
LAYER
  5
2F
330
1
100
AcDbSymbolTableRecord
100
AcDbLayerTableRecord
  2
COTA
 70
0
 62
7
  6
Continuous
370
-3
390
13
347
21
  0
LAYER
  5
30
330
1
100
AcDbSymbolTableRecord
100
AcDbLayerTableRecord
  2
Painéis
 70
0
 62
7
  6
Continuous
370
-3
390
13
347
21
  0
LAYER
  5
31
330
1
100
AcDbSymbolTableRecord
100
AcDbLayerTableRecord
  2
NOMENCLATURA
 70
0
 62
7
  6
Continuous
370
-3
390
13
347
21
  0
LAYER
  5
32
330
1
100
AcDbSymbolTableRecord
100
AcDbLayerTableRecord
  2
SARR_2.2x7
 70
0
 62
7
  6
Continuous
370
-3
390
13
347
21
  0
LAYER
  5
33
330
1
100
AcDbSymbolTableRecord
100
AcDbLayerTableRecord
  2
5
 70
0
 62
7
  6
Continuous
370
-3
390
13
347
21
  0
ENDTAB
  0
TABLE
  2
STYLE
  5
5
330
0
100
AcDbSymbolTable
 70
1
  0
STYLE
  5
29
330
5
100
AcDbSymbolTableRecord
100
AcDbTextStyleTableRecord
  2
Standard
 70
0
 40
0.0
 41
1.0
 50
0.0
 71
0
 42
2.5
  3
txt
  4

  0
ENDTAB
  0
TABLE
  2
VIEW
  5
7
330
0
100
AcDbSymbolTable
 70
0
  0
ENDTAB
  0
TABLE
  2
UCS
  5
6
330
0
100
AcDbSymbolTable
 70
0
  0
ENDTAB
  0
TABLE
  2
APPID
  5
3
330
0
100
AcDbSymbolTable
 70
3
  0
APPID
  5
2A
330
3
100
AcDbSymbolTableRecord
100
AcDbRegAppTableRecord
  2
ACAD
 70
0
  0
APPID
  5
CD
330
3
100
AcDbSymbolTableRecord
100
AcDbRegAppTableRecord
  2
HATCHBACKGROUNDCOLOR
 70
0
  0
APPID
  5
CE
330
3
100
AcDbSymbolTableRecord
100
AcDbRegAppTableRecord
  2
EZDXF
 70
0
  0
ENDTAB
  0
TABLE
  2
DIMSTYLE
  5
4
330
0
100
AcDbSymbolTable
 70
1
100
AcDbDimStyleTable
  0
DIMSTYLE
105
2B
330
4
100
AcDbSymbolTableRecord
100
AcDbDimStyleTableRecord
  2
Standard
 70
0
 40
1.0
 41
2.5
 42
0.625
 43
3.75
 44
1.25
 45
0.0
 46
0.0
 47
0.0
 48
0.0
 49
2.5
140
2.5
141
2.5
142
0.0
143
0.03937007874
144
1.0
145
0.0
146
1.0
147
0.625
148
0.0
 69
0
 70
0
 71
0
 72
0
 73
0
 74
0
 75
0
 76
0
 77
1
 78
8
 79
3
170
0
171
3
172
1
173
0
174
0
175
0
176
0
177
0
178
0
179
2
271
2
272
2
273
2
274
3
275
0
276
0
277
2
278
44
279
0
280
0
281
0
282
0
283
0
284
8
285
0
286
0
288
0
289
3
290
0
371
-2
372
-2
  0
ENDTAB
  0
TABLE
  2
BLOCK_RECORD
  5
9
330
0
100
AcDbSymbolTable
 70
2
  0
BLOCK_RECORD
  5
17
330
9
100
AcDbSymbolTableRecord
100
AcDbBlockTableRecord
  2
*Model_Space
340
1A
 70
0
280
1
281
0
  0
BLOCK_RECORD
  5
1B
330
9
100
AcDbSymbolTableRecord
100
AcDbBlockTableRecord
  2
*Paper_Space
340
1E
 70
0
280
1
281
0
  0
ENDTAB
  0
ENDSEC
  0
SECTION
  2
BLOCKS
  0
BLOCK
  5
18
330
17
100
AcDbEntity
  8
0
100
AcDbBlockBegin
  2
*Model_Space
 70
0
 10
0.0
 20
0.0
 30
0.0
  3
*Model_Space
  1

  0
ENDBLK
  5
19
330
17
100
AcDbEntity
  8
0
100
AcDbBlockEnd
  0
BLOCK
  5
1C
330
1B
100
AcDbEntity
  8
0
100
AcDbBlockBegin
  2
*Paper_Space
 70
0
 10
0.0
 20
0.0
 30
0.0
  3
*Paper_Space
  1

  0
ENDBLK
  5
1D
330
1B
100
AcDbEntity
  8
0
100
AcDbBlockEnd
  0
ENDSEC
  0
SECTION
  2
ENTITIES
  0
LINE
  5
34
330
17
100
AcDbEntity
  8
SARR_2.2x7
 62
40
370
25
100
AcDbLine
 10
1728.194833797618
 20
16622.9321860408
 30
0.0
 11
1742.422148445298
 21
16607.90171656892
 31
0.0
  0
LINE
  5
35
330
17
100
AcDbEntity
  8
SARR_2.2x7
 62
40
370
25
100
AcDbLine
 10
1732.783514245144
 20
16607.90171656892
 30
0.0
 11
1853.683947166741
 21
16607.90171656892
 31
0.0
  0
LINE
  5
36
330
17
100
AcDbEntity
  8
SARR_2.2x7
 62
40
370
25
100
AcDbLine
 10
2090.149316836265
 20
16600.90171656891
 30
0.0
 11
2082.583002923821
 21
16619.90171659831
 31
0.0
  0
LINE
  5
37
330
17
100
AcDbEntity
  8
SARR_2.2x7
 62
40
370
25
100
AcDbLine
 10
2085.370592254977
 20
16612.90171660006
 30
0.0
 11
1853.683947163609
 21
16612.90171645493
 31
0.0
  0
LINE
  5
38
330
17
100
AcDbEntity
  8
SARR_2.2x7
 62
40
370
25
100
AcDbLine
 10
1749.306887159693
 20
16607.90171656892
 30
0.0
 11
1731.826053664792
 21
16626.36937126657
 31
0.0
  0
LINE
  5
39
330
17
100
AcDbEntity
  8
SARR_2.2x7
 62
40
370
25
100
AcDbLine
 10
1736.909761478833
 20
16631.18143058265
 30
0.0
 11
1723.111125983578
 21
16618.12012672472
 31
0.0
  0
LINE
  5
3A
330
17
100
AcDbEntity
  8
SARR_2.2x7
 62
40
370
25
100
AcDbLine
 10
1758.945521359847
 20
16607.90171656892
 30
0.0
 11
1736.736404396854
 21
16631.36457395109
 31
0.0
  0
LINE
  5
3B
330
17
100
AcDbEntity
  8
Painéis
 62
200
370
25
100
AcDbLine
 10
1853.683947171126
 20
16600.90171656891
 30
0.0
 11
1853.683947159225
 21
16619.90171645493
 31
0.0
  0
LINE
  5
3C
330
17
100
AcDbEntity
  8
SARR_2.2x7
 62
40
370
25
100
AcDbLine
 10
1853.683947166741
 20
16607.90171656892
 30
0.0
 11
2087.361727504415
 21
16607.90171656891
 31
0.0
  0
LINE
  5
3D
330
17
100
AcDbEntity
  8
SARR_2.2x7
 62
40
370
25
100
AcDbLine
 10
1853.683947163609
 20
16612.90171645493
 30
0.0
 11
1754.212697088247
 21
16612.90171639262
 31
0.0
  0
LINE
  5
3E
330
17
100
AcDbEntity
  8
SARR_2.2x7
 62
40
370
25
100
AcDbLine
 10
2179.657394381522
 20
16613.04983347648
 30
0.0
 11
2416.657394381522
 21
16613.04983347648
 31
0.0
  0
LINE
  5
3F
330
17
100
AcDbEntity
  8
SARR_2.2x7
 62
40
370
25
100
AcDbLine
 10
2416.657394381522
 20
16613.04983347648
 30
0.0
 11
2527.657394381522
 21
16613.04983347648
 31
0.0
  0
LINE
  5
40
330
17
100
AcDbEntity
  8
SARR_2.2x7
 62
40
370
25
100
AcDbLine
 10
2527.657394381522
 20
16626.04983341694
 30
0.0
 11
2416.657394381522
 21
16626.04983341695
 31
0.0
  0
LINE
  5
41
330
17
100
AcDbEntity
  8
SARR_2.2x7
 62
40
370
25
100
AcDbLine
 10
2416.657394381522
 20
16626.04983341694
 30
0.0
 11
2179.657394381522
 21
16626.04983341694
 31
0.0
  0
LINE
  5
42
330
17
100
AcDbEntity
  8
SARR_2.2x7
 62
40
370
25
100
AcDbLine
 10
2179.657394381522
 20
16633.04983341694
 30
0.0
 11
2179.657394381522
 21
16606.04983347648
 31
0.0
  0
LINE
  5
43
330
17
100
AcDbEntity
  8
SARR_2.2x7
 62
40
370
25
100
AcDbLine
 10
2527.657394381522
 20
16633.04983341694
 30
0.0
 11
2527.657394381522
 21
16606.04983347648
 31
0.0
  0
LINE
  5
44
330
17
100
AcDbEntity
  8
SARR_2.2x7
 62
40
370
25
100
AcDbLine
 10
2654.604884534398
 20
16613.38558654639
 30
0.0
 11
2776.604884534398
 21
16613.38558654638
 31
0.0
  0
LINE
  5
45
330
17
100
AcDbEntity
  8
SARR_2.2x7
 62
40
370
25
100
AcDbLine
 10
2776.604884534398
 20
16623.38558648685
 30
0.0
 11
2654.604884534398
 21
16623.38558648685
 31
0.0
  0
LINE
  5
46
330
17
100
AcDbEntity
  8
SARR_2.2x7
 62
40
370
25
100
AcDbLine
 10
2654.604884534398
 20
16630.38558648685
 30
0.0
 11
2654.604884534398
 21
16606.38558654639
 31
0.0
  0
LINE
  5
47
330
17
100
AcDbEntity
  8
SARR_2.2x7
 62
40
370
25
100
AcDbLine
 10
2776.604884534398
 20
16630.38558648685
 30
0.0
 11
2776.604884534398
 21
16606.38558654639
 31
0.0
  0
LINE
  5
48
330
17
100
AcDbEntity
  8
COTA
 62
4
370
25
100
AcDbLine
 10
1682.002559682536
 20
16765.47568489086
 30
0.0
 11
1682.002559682536
 21
16717.10736334084
 31
0.0
  0
LINE
  5
49
330
17
100
AcDbEntity
  8
COTA
 62
4
370
25
100
AcDbLine
 10
1811.002559682536
 20
16765.47568489088
 30
0.0
 11
1811.002559682536
 21
16717.10736334084
 31
0.0
  0
LINE
  5
4A
330
17
100
AcDbEntity
  8
COTA
 62
4
370
25
100
AcDbLine
 10
1682.002559682536
 20
16720.10736334084
 30
0.0
 11
1811.002559682536
 21
16720.10736334084
 31
0.0
  0
LINE
  5
4B
330
17
100
AcDbEntity
  8
COTA
 62
0
370
25
100
AcDbLine
 10
1683.502559682536
 20
16721.60736334084
 30
0.0
 11
1680.502559682536
 21
16718.60736334084
 31
0.0
  0
LINE
  5
4C
330
17
100
AcDbEntity
  8
COTA
 62
0
370
25
100
AcDbLine
 10
1809.502559682536
 20
16718.60736334084
 30
0.0
 11
1812.502559682536
 21
16721.60736334084
 31
0.0
  0
LINE
  5
4D
330
17
100
AcDbEntity
  8
COTA
 62
4
370
25
100
AcDbLine
 10
1827.940132485055
 20
16765.47568489086
 30
0.0
 11
1827.940132485055
 21
16717.10736334084
 31
0.0
  0
LINE
  5
4E
330
17
100
AcDbEntity
  8
COTA
 62
4
370
25
100
AcDbLine
 10
2405.940132485055
 20
16765.47568489088
 30
0.0
 11
2405.940132485055
 21
16717.10736334084
 31
0.0
  0
LINE
  5
4F
330
17
100
AcDbEntity
  8
COTA
 62
4
370
25
100
AcDbLine
 10
1827.940132485055
 20
16720.10736334084
 30
0.0
 11
2405.940132485055
 21
16720.10736334084
 31
0.0
  0
LINE
  5
50
330
17
100
AcDbEntity
  8
COTA
 62
0
370
25
100
AcDbLine
 10
1829.440132485055
 20
16721.60736334084
 30
0.0
 11
1826.440132485055
 21
16718.60736334084
 31
0.0
  0
LINE
  5
51
330
17
100
AcDbEntity
  8
COTA
 62
0
370
25
100
AcDbLine
 10
2404.440132485055
 20
16718.60736334084
 30
0.0
 11
2407.440132485055
 21
16721.60736334084
 31
0.0
  0
LINE
  5
52
330
17
100
AcDbEntity
  8
COTA
 62
4
370
25
100
AcDbLine
 10
2486.683241110666
 20
16764.63651057779
 30
0.0
 11
2486.683241110666
 21
16716.64189331511
 31
0.0
  0
LINE
  5
53
330
17
100
AcDbEntity
  8
COTA
 62
4
370
25
100
AcDbLine
 10
2772.683241110666
 20
16764.63651057781
 30
0.0
 11
2772.683241110666
 21
16716.64189331511
 31
0.0
  0
LINE
  5
54
330
17
100
AcDbEntity
  8
COTA
 62
4
370
25
100
AcDbLine
 10
2486.683241110666
 20
16719.64189331511
 30
0.0
 11
2772.683241110666
 21
16719.64189331511
 31
0.0
  0
LINE
  5
55
330
17
100
AcDbEntity
  8
COTA
 62
0
370
25
100
AcDbLine
 10
2488.183241110666
 20
16721.14189331511
 30
0.0
 11
2485.183241110666
 21
16718.14189331511
 31
0.0
  0
LINE
  5
56
330
17
100
AcDbEntity
  8
COTA
 62
0
370
25
100
AcDbLine
 10
2771.183241110666
 20
16718.14189331511
 30
0.0
 11
2774.183241110666
 21
16721.14189331511
 31
0.0
  0
LINE
  5
57
330
17
100
AcDbEntity
  8
Painéis
 62
4
370
25
100
AcDbLine
 10
2097.683947171127
 20
16597.90171656891
 30
0.0
 11
2097.683947171127
 21
16566.47836112495
 31
0.0
  0
LINE
  5
58
330
17
100
AcDbEntity
  8
Painéis
 62
4
370
25
100
AcDbLine
 10
1853.683947171126
 20
16597.90171656891
 30
0.0
 11
1853.683947171126
 21
16566.47836112495
 31
0.0
  0
LINE
  5
59
330
17
100
AcDbEntity
  8
Painéis
 62
4
370
25
100
AcDbLine
 10
2097.683947171127
 20
16569.47836112495
 30
0.0
 11
1853.683947171126
 21
16569.47836112495
 31
0.0
  0
LINE
  5
5A
330
17
100
AcDbEntity
  8
Painéis
 62
0
370
25
100
AcDbLine
 10
2096.183947171127
 20
16567.97836112495
 30
0.0
 11
2099.183947171127
 21
16570.97836112495
 31
0.0
  0
LINE
  5
5B
330
17
100
AcDbEntity
  8
Painéis
 62
0
370
25
100
AcDbLine
 10
1855.183947171126
 20
16570.97836112495
 30
0.0
 11
1852.183947171126
 21
16567.97836112495
 31
0.0
  0
LINE
  5
5C
330
17
100
AcDbEntity
  8
Painéis
 62
4
370
25
100
AcDbLine
 10
1853.683947171126
 20
16597.90171656891
 30
0.0
 11
1853.683947171126
 21
16566.47836112495
 31
0.0
  0
LINE
  5
5D
330
17
100
AcDbEntity
  8
Painéis
 62
4
370
25
100
AcDbLine
 10
1718.299066667499
 20
16620.20383453876
 30
0.0
 11
1718.299066667499
 21
16566.47836112495
 31
0.0
  0
LINE
  5
5E
330
17
100
AcDbEntity
  8
Painéis
 62
4
370
25
100
AcDbLine
 10
1853.683947171126
 20
16569.47836112495
 30
0.0
 11
1718.299066667499
 21
16569.47836112495
 31
0.0
  0
LINE
  5
5F
330
17
100
AcDbEntity
  8
Painéis
 62
0
370
25
100
AcDbLine
 10
1852.183947171126
 20
16567.97836112495
 30
0.0
 11
1855.183947171126
 21
16570.97836112495
 31
0.0
  0
LINE
  5
60
330
17
100
AcDbEntity
  8
Painéis
 62
0
370
25
100
AcDbLine
 10
1719.799066667499
 20
16570.97836112495
 30
0.0
 11
1716.799066667499
 21
16567.97836112495
 31
0.0
  0
LINE
  5
61
330
17
100
AcDbEntity
  8
Painéis
 62
4
370
25
100
AcDbLine
 10
1739.40946845902
 20
16597.90171656892
 30
0.0
 11
1739.40946845902
 21
16576.80210054839
 31
0.0
  0
LINE
  5
62
330
17
100
AcDbEntity
  8
Painéis
 62
4
370
25
100
AcDbLine
 10
1718.299066667498
 20
16620.20383453876
 30
0.0
 11
1718.299066667498
 21
16576.80210054839
 31
0.0
  0
LINE
  5
63
330
17
100
AcDbEntity
  8
Painéis
 62
4
370
25
100
AcDbLine
 10
1739.40946845902
 20
16579.80210054839
 30
0.0
 11
1718.299066667498
 21
16579.80210054839
 31
0.0
  0
LINE
  5
64
330
17
100
AcDbEntity
  8
Painéis
 62
0
370
25
100
AcDbLine
 10
1737.90946845902
 20
16578.30210054839
 30
0.0
 11
1740.90946845902
 21
16581.30210054839
 31
0.0
  0
LINE
  5
65
330
17
100
AcDbEntity
  8
Painéis
 62
0
370
25
100
AcDbLine
 10
1719.799066667498
 20
16581.30210054839
 30
0.0
 11
1716.799066667498
 21
16578.30210054839
 31
0.0
  0
LINE
  5
66
330
17
100
AcDbEntity
  8
Painéis
 62
4
370
25
100
AcDbLine
 10
1732.097702162753
 20
16639.26513839669
 30
0.0
 11
1732.097702162753
 21
16653.18765552513
 31
0.0
  0
LINE
  5
67
330
17
100
AcDbEntity
  8
Painéis
 62
4
370
25
100
AcDbLine
 10
1747.586742878297
 20
16622.90171638847
 30
0.0
 11
1747.586742878297
 21
16653.18765552513
 31
0.0
  0
LINE
  5
68
330
17
100
AcDbEntity
  8
Painéis
 62
4
370
25
100
AcDbLine
 10
1732.097702162753
 20
16650.18765552513
 30
0.0
 11
1747.586742878297
 21
16650.18765552513
 31
0.0
  0
LINE
  5
69
330
17
100
AcDbEntity
  8
Painéis
 62
4
370
25
100
AcDbLine
 10
1747.586742878297
 20
16650.18765552513
 30
0.0
 11
1779.379140539116
 21
16650.18765552513
 31
0.0
  0
LINE
  5
6A
330
17
100
AcDbEntity
  8
Painéis
 62
0
370
25
100
AcDbLine
 10
1733.597702162753
 20
16651.68765552513
 30
0.0
 11
1730.597702162753
 21
16648.68765552513
 31
0.0
  0
LINE
  5
6B
330
17
100
AcDbEntity
  8
Painéis
 62
0
370
25
100
AcDbLine
 10
1746.086742878297
 20
16648.68765552513
 30
0.0
 11
1749.086742878297
 21
16651.68765552513
 31
0.0
  0
LINE
  5
6C
330
17
100
AcDbEntity
  8
Painéis
 62
4
370
25
100
AcDbLine
 10
1735.097702162754
 20
16636.2651383967
 30
0.0
 11
1802.661522138572
 21
16636.2651383967
 31
0.0
  0
LINE
  5
6D
330
17
100
AcDbEntity
  8
Painéis
 62
4
370
25
100
AcDbLine
 10
1799.661522138572
 20
16619.90171638848
 30
0.0
 11
1799.661522138572
 21
16636.2651383967
 31
0.0
  0
LINE
  5
6E
330
17
100
AcDbEntity
  8
Painéis
 62
4
370
25
100
AcDbLine
 10
1799.661522138572
 20
16636.2651383967
 30
0.0
 11
1799.661522138572
 21
16669.31484599904
 31
0.0
  0
LINE
  5
6F
330
17
100
AcDbEntity
  8
Painéis
 62
0
370
25
100
AcDbLine
 10
1798.161522138572
 20
16621.40171638848
 30
0.0
 11
1801.161522138572
 21
16618.40171638848
 31
0.0
  0
LINE
  5
70
330
17
100
AcDbEntity
  8
Painéis
 62
0
370
25
100
AcDbLine
 10
1801.161522138572
 20
16634.7651383967
 30
0.0
 11
1798.161522138572
 21
16637.7651383967
 31
0.0
  0
LINE
  5
71
330
17
100
AcDbEntity
  8
Painéis
 62
4
370
25
100
AcDbLine
 10
1736.409468459021
 20
16600.90171656892
 30
0.0
 11
1683.371357562682
 21
16600.90171656892
 31
0.0
  0
LINE
  5
72
330
17
100
AcDbEntity
  8
Painéis
 62
4
370
25
100
AcDbLine
 10
1729.097702162754
 20
16636.2651383967
 30
0.0
 11
1683.371357562682
 21
16636.2651383967
 31
0.0
  0
LINE
  5
73
330
17
100
AcDbEntity
  8
Painéis
 62
4
370
25
100
AcDbLine
 10
1686.371357562682
 20
16600.90171656892
 30
0.0
 11
1686.371357562682
 21
16636.2651383967
 31
0.0
  0
LINE
  5
74
330
17
100
AcDbEntity
  8
Painéis
 62
0
370
25
100
AcDbLine
 10
1684.871357562682
 20
16602.40171656892
 30
0.0
 11
1687.871357562682
 21
16599.40171656892
 31
0.0
  0
LINE
  5
75
330
17
100
AcDbEntity
  8
Painéis
 62
0
370
25
100
AcDbLine
 10
1687.871357562682
 20
16634.7651383967
 30
0.0
 11
1684.871357562682
 21
16637.7651383967
 31
0.0
  0
LINE
  5
76
330
17
100
AcDbEntity
  8
Painéis
 62
4
370
25
100
AcDbLine
 10
1715.299066667499
 20
16623.20383453877
 30
0.0
 11
1704.056092348083
 21
16623.20383453877
 31
0.0
  0
LINE
  5
77
330
17
100
AcDbEntity
  8
Painéis
 62
4
370
25
100
AcDbLine
 10
1736.409468459021
 20
16600.90171656892
 30
0.0
 11
1704.056092348083
 21
16600.90171656892
 31
0.0
  0
LINE
  5
78
330
17
100
AcDbEntity
  8
Painéis
 62
4
370
25
100
AcDbLine
 10
1707.056092348083
 20
16623.20383453877
 30
0.0
 11
1707.056092348083
 21
16600.90171656892
 31
0.0
  0
LINE
  5
79
330
17
100
AcDbEntity
  8
Painéis
 62
4
370
25
100
AcDbLine
 10
1707.056092348083
 20
16600.90171656892
 30
0.0
 11
1707.056092348083
 21
16564.48943586717
 31
0.0
  0
LINE
  5
7A
330
17
100
AcDbEntity
  8
Painéis
 62
0
370
25
100
AcDbLine
 10
1708.556092348083
 20
16621.70383453877
 30
0.0
 11
1705.556092348083
 21
16624.70383453877
 31
0.0
  0
LINE
  5
7B
330
17
100
AcDbEntity
  8
Painéis
 62
0
370
25
100
AcDbLine
 10
1705.556092348083
 20
16602.40171656892
 30
0.0
 11
1708.556092348083
 21
16599.40171656892
 31
0.0
  0
LINE
  5
7C
330
17
100
AcDbEntity
  8
Painéis
 62
4
370
25
100
AcDbLine
 10
1715.299066667499
 20
16623.20383453877
 30
0.0
 11
1704.056092348087
 21
16623.20383453877
 31
0.0
  0
LINE
  5
7D
330
17
100
AcDbEntity
  8
Painéis
 62
4
370
25
100
AcDbLine
 10
1729.097702162755
 20
16636.2651383967
 30
0.0
 11
1704.056092348087
 21
16636.2651383967
 31
0.0
  0
LINE
  5
7E
330
17
100
AcDbEntity
  8
Painéis
 62
4
370
25
100
AcDbLine
 10
1707.056092348087
 20
16623.20383453877
 30
0.0
 11
1707.056092348087
 21
16636.2651383967
 31
0.0
  0
LINE
  5
7F
330
17
100
AcDbEntity
  8
Painéis
 62
4
370
25
100
AcDbLine
 10
1707.056092348087
 20
16636.2651383967
 30
0.0
 11
1707.056092348087
 21
16663.77391032652
 31
0.0
  0
LINE
  5
80
330
17
100
AcDbEntity
  8
Painéis
 62
0
370
25
100
AcDbLine
 10
1705.556092348087
 20
16624.70383453877
 30
0.0
 11
1708.556092348087
 21
16621.70383453877
 31
0.0
  0
LINE
  5
81
330
17
100
AcDbEntity
  8
Painéis
 62
0
370
25
100
AcDbLine
 10
1708.556092348087
 20
16634.7651383967
 30
0.0
 11
1705.556092348087
 21
16637.7651383967
 31
0.0
  0
LINE
  5
82
330
17
100
AcDbEntity
  8
Painéis
 62
4
370
25
100
AcDbLine
 10
2093.117633256808
 20
16619.90171660304
 30
0.0
 11
2120.156067837373
 21
16619.90171660304
 31
0.0
  0
LINE
  5
83
330
17
100
AcDbEntity
  8
Painéis
 62
4
370
25
100
AcDbLine
 10
2100.683947171127
 20
16600.90171656892
 30
0.0
 11
2120.156067837373
 21
16600.90171656892
 31
0.0
  0
LINE
  5
84
330
17
100
AcDbEntity
  8
Painéis
 62
4
370
25
100
AcDbLine
 10
2117.156067837373
 20
16619.90171660304
 30
0.0
 11
2117.156067837373
 21
16600.90171656892
 31
0.0
  0
LINE
  5
85
330
17
100
AcDbEntity
  8
Painéis
 62
0
370
25
100
AcDbLine
 10
2118.656067837373
 20
16618.40171660304
 30
0.0
 11
2115.656067837373
 21
16621.40171660304
 31
0.0
  0
LINE
  5
86
330
17
100
AcDbEntity
  8
Painéis
 62
0
370
25
100
AcDbLine
 10
2115.656067837373
 20
16602.40171656892
 30
0.0
 11
2118.656067837373
 21
16599.40171656892
 31
0.0
  0
LINE
  5
87
330
17
100
AcDbEntity
  8
Painéis
 62
4
370
25
100
AcDbLine
 10
2097.683947171127
 20
16603.90171656891
 30
0.0
 11
2097.683947171127
 21
16637.70417019269
 31
0.0
  0
LINE
  5
88
330
17
100
AcDbEntity
  8
Painéis
 62
4
370
25
100
AcDbLine
 10
2090.117633256807
 20
16622.90171660303
 30
0.0
 11
2090.117633256807
 21
16637.70417019269
 31
0.0
  0
LINE
  5
89
330
17
100
AcDbEntity
  8
Painéis
 62
4
370
25
100
AcDbLine
 10
2097.683947171127
 20
16634.70417019269
 30
0.0
 11
2090.117633256807
 21
16634.70417019269
 31
0.0
  0
LINE
  5
8A
330
17
100
AcDbEntity
  8
Painéis
 62
4
370
25
100
AcDbLine
 10
2090.117633256807
 20
16634.70417019269
 30
0.0
 11
2061.32231161938
 21
16634.70417019269
 31
0.0
  0
LINE
  5
8B
330
17
100
AcDbEntity
  8
Painéis
 62
0
370
25
100
AcDbLine
 10
2096.183947171127
 20
16633.20417019269
 30
0.0
 11
2099.183947171127
 21
16636.20417019269
 31
0.0
  0
LINE
  5
8C
330
17
100
AcDbEntity
  8
Painéis
 62
0
370
25
100
AcDbLine
 10
2091.617633256807
 20
16636.20417019269
 30
0.0
 11
2088.617633256807
 21
16633.20417019269
 31
0.0
  0
LINE
  5
8D
330
17
100
AcDbEntity
  8
COTA
 62
4
370
25
100
AcDbLine
 10
2172.657394381522
 20
16603.04983347648
 30
0.0
 11
2172.657394381522
 21
16583.99698388185
 31
0.0
  0
LINE
  5
8E
330
17
100
AcDbEntity
  8
COTA
 62
4
370
25
100
AcDbLine
 10
2416.657394381522
 20
16603.0498334765
 30
0.0
 11
2416.657394381522
 21
16583.99698388185
 31
0.0
  0
LINE
  5
8F
330
17
100
AcDbEntity
  8
COTA
 62
4
370
25
100
AcDbLine
 10
2172.657394381522
 20
16586.99698388185
 30
0.0
 11
2416.657394381522
 21
16586.99698388185
 31
0.0
  0
LINE
  5
90
330
17
100
AcDbEntity
  8
COTA
 62
0
370
25
100
AcDbLine
 10
2174.157394381522
 20
16588.49698388185
 30
0.0
 11
2171.157394381522
 21
16585.49698388185
 31
0.0
  0
LINE
  5
91
330
17
100
AcDbEntity
  8
COTA
 62
0
370
25
100
AcDbLine
 10
2415.157394381522
 20
16585.49698388185
 30
0.0
 11
2418.157394381522
 21
16588.49698388185
 31
0.0
  0
LINE
  5
92
330
17
100
AcDbEntity
  8
COTA
 62
4
370
25
100
AcDbLine
 10
2416.657394381522
 20
16603.04983347649
 30
0.0
 11
2416.657394381522
 21
16583.99698388185
 31
0.0
  0
LINE
  5
93
330
17
100
AcDbEntity
  8
COTA
 62
4
370
25
100
AcDbLine
 10
2534.657394381522
 20
16603.0498334765
 30
0.0
 11
2534.657394381522
 21
16583.99698388185
 31
0.0
  0
LINE
  5
94
330
17
100
AcDbEntity
  8
COTA
 62
4
370
25
100
AcDbLine
 10
2416.657394381522
 20
16586.99698388185
 30
0.0
 11
2534.657394381522
 21
16586.99698388185
 31
0.0
  0
LINE
  5
95
330
17
100
AcDbEntity
  8
COTA
 62
0
370
25
100
AcDbLine
 10
2418.157394381522
 20
16588.49698388185
 30
0.0
 11
2415.157394381522
 21
16585.49698388185
 31
0.0
  0
LINE
  5
96
330
17
100
AcDbEntity
  8
COTA
 62
0
370
25
100
AcDbLine
 10
2533.157394381522
 20
16585.49698388185
 30
0.0
 11
2536.157394381522
 21
16588.49698388185
 31
0.0
  0
LINE
  5
97
330
17
100
AcDbEntity
  8
COTA
 62
4
370
25
100
AcDbLine
 10
2172.657394381522
 20
16603.04983347648
 30
0.0
 11
2172.657394381522
 21
16559.4161347119
 31
0.0
  0
LINE
  5
98
330
17
100
AcDbEntity
  8
COTA
 62
4
370
25
100
AcDbLine
 10
2534.657394381522
 20
16603.0498334765
 30
0.0
 11
2534.657394381522
 21
16559.4161347119
 31
0.0
  0
LINE
  5
99
330
17
100
AcDbEntity
  8
COTA
 62
4
370
25
100
AcDbLine
 10
2172.657394381522
 20
16562.4161347119
 30
0.0
 11
2534.657394381522
 21
16562.4161347119
 31
0.0
  0
LINE
  5
9A
330
17
100
AcDbEntity
  8
COTA
 62
0
370
25
100
AcDbLine
 10
2174.157394381522
 20
16563.9161347119
 30
0.0
 11
2171.157394381522
 21
16560.9161347119
 31
0.0
  0
LINE
  5
9B
330
17
100
AcDbEntity
  8
COTA
 62
0
370
25
100
AcDbLine
 10
2533.157394381522
 20
16560.9161347119
 30
0.0
 11
2536.157394381522
 21
16563.9161347119
 31
0.0
  0
LINE
  5
9C
330
17
100
AcDbEntity
  8
Painéis
 62
4
370
25
100
AcDbLine
 10
2537.657394381523
 20
16633.04983347649
 30
0.0
 11
2565.453039825645
 21
16633.04983347649
 31
0.0
  0
LINE
  5
9D
330
17
100
AcDbEntity
  8
Painéis
 62
4
370
25
100
AcDbLine
 10
2537.657394381523
 20
16606.04983347651
 30
0.0
 11
2565.453039825645
 21
16606.04983347651
 31
0.0
  0
LINE
  5
9E
330
17
100
AcDbEntity
  8
Painéis
 62
4
370
25
100
AcDbLine
 10
2562.453039825645
 20
16633.04983347649
 30
0.0
 11
2562.453039825645
 21
16606.04983347651
 31
0.0
  0
LINE
  5
9F
330
17
100
AcDbEntity
  8
Painéis
 62
0
370
25
100
AcDbLine
 10
2563.953039825645
 20
16631.54983347649
 30
0.0
 11
2560.953039825645
 21
16634.54983347649
 31
0.0
  0
LINE
  5
A0
330
17
100
AcDbEntity
  8
Painéis
 62
0
370
25
100
AcDbLine
 10
2560.953039825645
 20
16607.54983347651
 30
0.0
 11
2563.953039825645
 21
16604.54983347651
 31
0.0
  0
LINE
  5
A1
330
17
100
AcDbEntity
  8
COTA
 62
4
370
25
100
AcDbLine
 10
2647.604884534398
 20
16603.38558654639
 30
0.0
 11
2647.604884534398
 21
16572.82533923843
 31
0.0
  0
LINE
  5
A2
330
17
100
AcDbEntity
  8
COTA
 62
4
370
25
100
AcDbLine
 10
2783.604884534398
 20
16603.3855865464
 30
0.0
 11
2783.604884534398
 21
16572.82533923843
 31
0.0
  0
LINE
  5
A3
330
17
100
AcDbEntity
  8
COTA
 62
4
370
25
100
AcDbLine
 10
2647.604884534398
 20
16575.82533923843
 30
0.0
 11
2783.604884534398
 21
16575.82533923843
 31
0.0
  0
LINE
  5
A4
330
17
100
AcDbEntity
  8
COTA
 62
0
370
25
100
AcDbLine
 10
2649.104884534398
 20
16577.32533923843
 30
0.0
 11
2646.104884534398
 21
16574.32533923843
 31
0.0
  0
LINE
  5
A5
330
17
100
AcDbEntity
  8
COTA
 62
0
370
25
100
AcDbLine
 10
2782.104884534398
 20
16574.32533923843
 30
0.0
 11
2785.104884534398
 21
16577.32533923843
 31
0.0
  0
LINE
  5
A6
330
17
100
AcDbEntity
  8
COTA
 62
4
370
25
100
AcDbLine
 10
2786.604884534399
 20
16606.38558654641
 30
0.0
 11
2808.724805307424
 21
16606.38558654641
 31
0.0
  0
LINE
  5
A7
330
17
100
AcDbEntity
  8
COTA
 62
4
370
25
100
AcDbLine
 10
2786.604884534399
 20
16630.38558654639
 30
0.0
 11
2808.724805307424
 21
16630.38558654639
 31
0.0
  0
LINE
  5
A8
330
17
100
AcDbEntity
  8
COTA
 62
4
370
25
100
AcDbLine
 10
2805.724805307424
 20
16606.38558654641
 30
0.0
 11
2805.724805307424
 21
16630.38558654639
 31
0.0
  0
LINE
  5
A9
330
17
100
AcDbEntity
  8
COTA
 62
0
370
25
100
AcDbLine
 10
2804.224805307424
 20
16607.88558654641
 30
0.0
 11
2807.224805307424
 21
16604.88558654641
 31
0.0
  0
LINE
  5
AA
330
17
100
AcDbEntity
  8
COTA
 62
0
370
25
100
AcDbLine
 10
2807.224805307424
 20
16628.88558654639
 30
0.0
 11
2804.224805307424
 21
16631.88558654639
 31
0.0
  0
LWPOLYLINE
  5
AB
330
17
100
AcDbEntity
  8
Painéis
 62
200
370
25
100
AcDbPolyline
 90
7
 70
0
 10
1718.299066667499
 20
16623.20383453876
 10
1739.40946845902
 20
16600.90171656892
 10
2097.683947171127
 20
16600.90171656891
 10
2090.117633256807
 20
16619.90171660303
 10
1747.586742878297
 20
16619.90171638847
 10
1732.097702162753
 20
16636.26513839669
 10
1718.299066667499
 20
16623.20383453876
  0
LWPOLYLINE
  5
AC
330
17
100
AcDbEntity
  8
Painéis
 62
200
370
25
100
AcDbPolyline
 90
4
 70
1
 10
2416.657394381522
 20
16606.04991047649
 10
2172.657394381522
 20
16606.04991047649
 10
2172.657394381522
 20
16633.04983347648
 10
2416.657394381522
 20
16633.04983347648
  0
LWPOLYLINE
  5
AD
330
17
100
AcDbEntity
  8
Painéis
 62
200
370
25
100
AcDbPolyline
 90
4
 70
1
 10
2416.657394381522
 20
16633.04983347648
 10
2534.657394381522
 20
16633.04983347648
 10
2534.657394381522
 20
16606.0498334765
 10
2416.657394381522
 20
16606.0498334765
  0
LWPOLYLINE
  5
AE
330
17
100
AcDbEntity
  8
Painéis
 62
200
370
25
100
AcDbPolyline
 90
5
 70
0
 10
2647.604884534398
 20
16630.38558654639
 10
2647.604884534398
 20
16606.38558654639
 10
2783.604884534398
 20
16606.38558654641
 10
2783.604884534398
 20
16630.38558654639
 10
2647.604884534398
 20
16630.38558654639
  0
TEXT
  5
AF
330
17
100
AcDbEntity
  8
5
 62
5
370
25
100
AcDbText
 10
1680.279670980897
 20
16705.58287937975
 30
0.0
 40
12.0
  1
P24
 50
359.9999644975238
100
AcDbText
  0
TEXT
  5
B0
330
17
100
AcDbEntity
  8
5
 62
5
370
25
100
AcDbText
 10
1802.778875194426
 20
16704.24903742366
 30
0.0
 40
12.0
  1
P26
 50
359.9999644975238
100
AcDbText
  0
TEXT
  5
B1
330
17
100
AcDbEntity
  8
5
 62
5
370
25
100
AcDbText
 10
2379.106904798051
 20
16700.87690520946
 30
0.0
 40
12.0
  1
P27
 50
359.9999644975238
100
AcDbText
  0
TEXT
  5
B2
330
17
100
AcDbEntity
  8
5
 62
5
370
25
100
AcDbText
 10
2485.570574898018
 20
16701.32547499474
 30
0.0
 40
12.0
  1
P26
 50
359.9999644975238
100
AcDbText
  0
TEXT
  5
B3
330
17
100
AcDbEntity
  8
5
 62
5
370
25
100
AcDbText
 10
2745.850013423662
 20
16699.99163303866
 30
0.0
 40
12.0
  1
P27
 50
359.9999644975238
100
AcDbText
  0
TEXT
  5
B4
330
17
100
AcDbEntity
  8
NOMENCLATURA
 62
7
370
25
100
AcDbText
 10
1677.815452289876
 20
16670.23531098895
 30
0.0
 40
16.49999175001634
  1
V214.C
100
AcDbText
  0
TEXT
  5
B5
330
17
100
AcDbEntity
  8
5
 62
5
370
25
100
AcDbText
 10
1718.927178896272
 20
16549.75992314179
 30
0.0
 40
12.0
  1
P25
 50
359.9999644975238
100
AcDbText
  0
TEXT
  5
B6
330
17
100
AcDbEntity
  8
5
 62
5
370
25
100
AcDbText
 10
2055.19319083076
 20
16545.63401728513
 30
0.0
 40
12.0
  1
V216
 50
359.9999644975238
100
AcDbText
  0
TEXT
  5
B7
330
17
100
AcDbEntity
  8
NOMENCLATURA
 62
7
370
25
100
AcDbText
 10
2176.711960488324
 20
16642.02459167972
 30
0.0
 40
16.49999175001634
  1
V215.C
100
AcDbText
  0
TEXT
  5
B8
330
17
100
AcDbEntity
  8
5
 62
5
370
25
100
AcDbText
 10
2171.544728168874
 20
16542.31558417338
 30
0.0
 40
12.0
  1
P30
 50
359.9999644975238
100
AcDbText
  0
TEXT
  5
B9
330
17
100
AcDbEntity
  8
5
 62
5
370
25
100
AcDbText
 10
2498.818554081647
 20
16543.63804822939
 30
0.0
 40
12.0
  1
P31
 50
359.9999644975238
100
AcDbText
  0
TEXT
  5
BA
330
17
100
AcDbEntity
  8
NOMENCLATURA
 62
7
370
25
100
AcDbText
 10
2643.417777141738
 20
16639.36034474963
 30
0.0
 40
16.49999175001634
  1
V221.C
100
AcDbText
  0
TEXT
  5
BB
330
17
100
AcDbEntity
  8
5
 62
5
370
25
100
AcDbText
 10
2646.49221832175
 20
16561.30085527734
 30
0.0
 40
12.0
  1
P20
 50
359.9999644975238
100
AcDbText
  0
TEXT
  5
BC
330
17
100
AcDbEntity
  8
5
 62
5
370
25
100
AcDbText
 10
2756.771656847393
 20
16559.96701332125
 30
0.0
 40
12.0
  1
P12
 50
359.9999644975238
100
AcDbText
  0
TEXT
  5
BD
330
17
100
AcDbEntity
  8
Painéis
 62
240
370
25
100
AcDbText
 10
1975.683947171126
 20
16577.55146054016
 30
0.0
 40
10.0
  1
244
100
AcDbText
  0
TEXT
  5
BE
330
17
100
AcDbEntity
  8
Painéis
 62
240
370
25
100
AcDbText
 10
1785.991506919313
 20
16577.69765937057
 30
0.0
 40
10.0
  1
135.4
100
AcDbText
  0
TEXT
  5
BF
330
17
100
AcDbEntity
  8
Painéis
 62
240
370
25
100
AcDbText
 10
1728.854267563258
 20
16587.86058008056
 30
0.0
 40
10.0
  1
21.1
100
AcDbText
  0
TEXT
  5
C0
330
17
100
AcDbEntity
  8
Painéis
 62
240
370
25
100
AcDbText
 10
1764.982941708706
 20
16658.29730464794
 30
0.0
 40
10.0
  1
15.5
100
AcDbText
  0
TEXT
  5
C1
330
17
100
AcDbEntity
  8
Painéis
 62
240
370
25
100
AcDbText
 10
1811.559182957289
 20
16654.28999219787
 30
0.0
 40
10.0
  1
16.4
 50
90.0
100
AcDbText
  0
TEXT
  5
C2
330
17
100
AcDbEntity
  8
Painéis
 62
240
370
25
100
AcDbText
 10
1698.152059317072
 20
16618.58342748281
 30
0.0
 40
10.0
  1
35.4
 50
90.0
100
AcDbText
  0
TEXT
  5
C3
330
17
100
AcDbEntity
  8
Painéis
 62
240
370
25
100
AcDbText
 10
1718.836794102473
 20
16581.19557621804
 30
0.0
 40
10.0
  1
22.3
 50
90.0
100
AcDbText
  0
TEXT
  5
C4
330
17
100
AcDbEntity
  8
Painéis
 62
240
370
25
100
AcDbText
 10
1718.836794102477
 20
16651.51952436161
 30
0.0
 40
10.0
  1
13.1
 50
90.0
100
AcDbText
  0
TEXT
  5
C5
330
17
100
AcDbEntity
  8
Painéis
 62
240
370
25
100
AcDbText
 10
2129.068348539131
 20
16610.40171658598
 30
0.0
 40
10.0
  1
19
 50
90.0
100
AcDbText
  0
TEXT
  5
C6
330
17
100
AcDbEntity
  8
Painéis
 62
240
370
25
100
AcDbText
 10
2074.219972438093
 20
16642.80650937397
 30
0.0
 40
10.0
  1
7.6
100
AcDbText
  0
TEXT
  5
C7
330
17
100
AcDbEntity
  8
COTA
 62
240
370
25
100
AcDbText
 10
2294.657394381522
 20
16595.07008329706
 30
0.0
 40
10.0
  1
244
100
AcDbText
  0
TEXT
  5
C8
330
17
100
AcDbEntity
  8
COTA
 62
240
370
25
100
AcDbText
 10
2475.657394381522
 20
16595.09201312162
 30
0.0
 40
10.0
  1
118
100
AcDbText
  0
TEXT
  5
C9
330
17
100
AcDbEntity
  8
COTA
 62
240
370
25
100
AcDbText
 10
2353.657394381522
 20
16570.63543295752
 30
0.0
 40
10.0
  1
362
100
AcDbText
  0
TEXT
  5
CA
330
17
100
AcDbEntity
  8
Painéis
 62
240
370
25
100
AcDbText
 10
2574.379940410445
 20
16619.5498334765
 30
0.0
 40
10.0
  1
27
 50
90.0
100
AcDbText
  0
TEXT
  5
CB
330
17
100
AcDbEntity
  8
COTA
 62
240
370
25
100
AcDbText
 10
2715.604884534398
 20
16584.04463748404
 30
0.0
 40
10.0
  1
136
100
AcDbText
  0
TEXT
  5
CC
330
17
100
AcDbEntity
  8
COTA
 62
240
370
25
100
AcDbText
 10
2817.651705892223
 20
16618.3855865464
 30
0.0
 40
10.0
  1
24
 50
90.0
100
AcDbText
  0
ENDSEC
  0
SECTION
  2
OBJECTS
  0
DICTIONARY
  5
A
330
0
100
AcDbDictionary
281
1
  3
ACAD_COLOR
350
B
  3
ACAD_GROUP
350
C
  3
ACAD_LAYOUT
350
D
  3
ACAD_MATERIAL
350
E
  3
ACAD_MLEADERSTYLE
350
F
  3
ACAD_MLINESTYLE
350
10
  3
ACAD_PLOTSETTINGS
350
11
  3
ACAD_PLOTSTYLENAME
350
12
  3
ACAD_SCALELIST
350
14
  3
ACAD_TABLESTYLE
350
15
  3
ACAD_VISUALSTYLE
350
16
  3
EZDXF_META
350
2D
  0
DICTIONARY
  5
B
330
A
100
AcDbDictionary
281
1
  0
DICTIONARY
  5
C
330
A
100
AcDbDictionary
281
1
  0
DICTIONARY
  5
D
330
A
100
AcDbDictionary
281
1
  3
Model
350
1A
  3
Layout1
350
1E
  0
DICTIONARY
  5
E
330
A
100
AcDbDictionary
281
1
  3
ByBlock
350
1F
  3
ByLayer
350
20
  3
Global
350
21
  0
DICTIONARY
  5
F
330
A
100
AcDbDictionary
281
1
  3
Standard
350
2C
  0
DICTIONARY
  5
10
330
A
100
AcDbDictionary
281
1
  3
Standard
350
22
  0
DICTIONARY
  5
11
330
A
100
AcDbDictionary
281
1
  0
ACDBDICTIONARYWDFLT
  5
12
330
A
100
AcDbDictionary
281
1
  3
Normal
350
13
100
AcDbDictionaryWithDefault
340
13
  0
ACDBPLACEHOLDER
  5
13
330
12
  0
DICTIONARY
  5
14
330
A
100
AcDbDictionary
281
1
  0
DICTIONARY
  5
15
330
A
100
AcDbDictionary
281
1
  0
DICTIONARY
  5
16
330
A
100
AcDbDictionary
281
1
  0
LAYOUT
  5
1A
330
D
100
AcDbPlotSettings
  1

  4
A3
  6

 40
7.5
 41
20.0
 42
7.5
 43
20.0
 44
420.0
 45
297.0
 46
0.0
 47
0.0
 48
0.0
 49
0.0
140
0.0
141
0.0
142
1.0
143
1.0
 70
1024
 72
1
 73
0
 74
5
  7

 75
16
 76
0
 77
2
 78
300
147
1.0
148
0.0
149
0.0
100
AcDbLayout
  1
Model
 70
1
 71
0
 10
0.0
 20
0.0
 11
420.0
 21
297.0
 12
0.0
 22
0.0
 32
0.0
 14
1e+20
 24
1e+20
 34
1e+20
 15
-1e+20
 25
-1e+20
 35
-1e+20
146
0.0
 13
0.0
 23
0.0
 33
0.0
 16
1.0
 26
0.0
 36
0.0
 17
0.0
 27
1.0
 37
0.0
 76
1
330
17
  0
LAYOUT
  5
1E
330
D
100
AcDbPlotSettings
  1

  4
A3
  6

 40
7.5
 41
20.0
 42
7.5
 43
20.0
 44
420.0
 45
297.0
 46
0.0
 47
0.0
 48
0.0
 49
0.0
140
0.0
141
0.0
142
1.0
143
1.0
 70
0
 72
1
 73
0
 74
5
  7

 75
16
 76
0
 77
2
 78
300
147
1.0
148
0.0
149
0.0
100
AcDbLayout
  1
Layout1
 70
1
 71
1
 10
0.0
 20
0.0
 11
420.0
 21
297.0
 12
0.0
 22
0.0
 32
0.0
 14
1e+20
 24
1e+20
 34
1e+20
 15
-1e+20
 25
-1e+20
 35
-1e+20
146
0.0
 13
0.0
 23
0.0
 33
0.0
 16
1.0
 26
0.0
 36
0.0
 17
0.0
 27
1.0
 37
0.0
 76
1
330
1B
  0
MATERIAL
  5
1F
102
{ACAD_REACTORS
330
E
102
}
330
E
100
AcDbMaterial
  1
ByBlock
  2

 70
0
 40
1.0
 71
1
 41
1.0
 91
-1023410177
 42
1.0
 72
1
  3

 73
1
 74
1
 75
1
 44
0.5
 73
0
 45
1.0
 46
1.0
 77
1
  4

 78
1
 79
1
170
1
 48
1.0
171
1
  6

172
1
173
1
174
1
140
1.0
141
1.0
175
1
  7

176
1
177
1
178
1
143
1.0
179
1
  8

270
1
271
1
272
1
145
1.0
146
1.0
273
1
  9

274
1
275
1
276
1
 42
1.0
 72
1
  3

 73
1
 74
1
 75
1
 94
63
  0
MATERIAL
  5
20
102
{ACAD_REACTORS
330
E
102
}
330
E
100
AcDbMaterial
  1
ByLayer
  2

 70
0
 40
1.0
 71
1
 41
1.0
 91
-1023410177
 42
1.0
 72
1
  3

 73
1
 74
1
 75
1
 44
0.5
 73
0
 45
1.0
 46
1.0
 77
1
  4

 78
1
 79
1
170
1
 48
1.0
171
1
  6

172
1
173
1
174
1
140
1.0
141
1.0
175
1
  7

176
1
177
1
178
1
143
1.0
179
1
  8

270
1
271
1
272
1
145
1.0
146
1.0
273
1
  9

274
1
275
1
276
1
 42
1.0
 72
1
  3

 73
1
 74
1
 75
1
 94
63
  0
MATERIAL
  5
21
102
{ACAD_REACTORS
330
E
102
}
330
E
100
AcDbMaterial
  1
Global
  2

 70
0
 40
1.0
 71
1
 41
1.0
 91
-1023410177
 42
1.0
 72
1
  3

 73
1
 74
1
 75
1
 44
0.5
 73
0
 45
1.0
 46
1.0
 77
1
  4

 78
1
 79
1
170
1
 48
1.0
171
1
  6

172
1
173
1
174
1
140
1.0
141
1.0
175
1
  7

176
1
177
1
178
1
143
1.0
179
1
  8

270
1
271
1
272
1
145
1.0
146
1.0
273
1
  9

274
1
275
1
276
1
 42
1.0
 72
1
  3

 73
1
 74
1
 75
1
 94
63
  0
MLINESTYLE
  5
22
102
{ACAD_REACTORS
330
10
102
}
330
10
100
AcDbMlineStyle
  2
Standard
 70
0
  3

 62
256
 51
90.0
 52
90.0
 71
2
 49
0.5
 62
256
  6
BYLAYER
 49
-0.5
 62
256
  6
BYLAYER
  0
MLEADERSTYLE
  5
2C
102
{ACAD_REACTORS
330
F
102
}
330
F
100
AcDbMLeaderStyle
179
2
170
2
171
1
172
0
 90
2
 40
0.0
 41
0.0
173
1
 91
-1056964608
 92
-2
290
1
 42
2.0
291
1
 43
8.0
  3
Standard
 44
4.0
300

342
29
174
1
175
1
176
0
178
1
 93
-1056964608
 45
4.0
292
0
297
0
 46
4.0
 94
-1056964608
 47
1.0
 49
1.0
140
1.0
294
1
141
0.0
177
0
142
1.0
295
0
296
0
143
3.75
271
0
272
9
273
9
  0
DICTIONARY
  5
2D
330
A
100
AcDbDictionary
280
1
281
1
  3
CREATED_BY_EZDXF
350
2E
  3
WRITTEN_BY_EZDXF
350
CF
  0
DICTIONARYVAR
  5
2E
330
2D
100
DictionaryVariables
280
0
  1
1.4.3 @ 2026-06-10T17:43:18.004837+00:00
  0
DICTIONARYVAR
  5
CF
330
2D
100
DictionaryVariables
280
0
  1
1.4.3 @ 2026-06-10T17:43:18.010110+00:00
  0
ENDSEC
  0
EOF
