  0
SECTION
  2
HEADER
  9
$ACADVER
  1
AC1015
  9
$ACADMAINTVER
 70
6
  9
$DWGCODEPAGE
  3
ANSI_1252
  9
$INSBASE
 10
0.0
 20
0.0
 30
0.0
  9
$EXTMIN
 10
1e+20
 20
1e+20
 30
1e+20
  9
$EXTMAX
 10
-1e+20
 20
-1e+20
 30
-1e+20
  9
$LIMMIN
 10
0.0
 20
0.0
  9
$LIMMAX
 10
420.0
 20
297.0
  9
$ORTHOMODE
 70
0
  9
$REGENMODE
 70
1
  9
$FILLMODE
 70
1
  9
$QTEXTMODE
 70
0
  9
$MIRRTEXT
 70
1
  9
$LTSCALE
 40
1.0
  9
$ATTMODE
 70
1
  9
$TEXTSIZE
 40
2.5
  9
$TRACEWID
 40
1.0
  9
$TEXTSTYLE
  7
Standard
  9
$CLAYER
  8
0
  9
$CELTYPE
  6
ByLayer
  9
$CECOLOR
 62
256
  9
$CELTSCALE
 40
1.0
  9
$DISPSILH
 70
0
  9
$DIMSCALE
 40
1.0
  9
$DIMASZ
 40
2.5
  9
$DIMEXO
 40
0.625
  9
$DIMDLI
 40
3.75
  9
$DIMRND
 40
0.0
  9
$DIMDLE
 40
0.0
  9
$DIMEXE
 40
1.25
  9
$DIMTP
 40
0.0
  9
$DIMTM
 40
0.0
  9
$DIMTXT
 40
2.5
  9
$DIMCEN
 40
2.5
  9
$DIMTSZ
 40
0.0
  9
$DIMTOL
 70
0
  9
$DIMLIM
 70
0
  9
$DIMTIH
 70
0
  9
$DIMTOH
 70
0
  9
$DIMSE1
 70
0
  9
$DIMSE2
 70
0
  9
$DIMTAD
 70
1
  9
$DIMZIN
 70
8
  9
$DIMBLK
  1

  9
$DIMASO
 70
1
  9
$DIMSHO
 70
1
  9
$DIMPOST
  1

  9
$DIMAPOST
  1

  9
$DIMALT
 70
0
  9
$DIMALTD
 70
3
  9
$DIMALTF
 40
0.03937007874
  9
$DIMLFAC
 40
1.0
  9
$DIMTOFL
 70
1
  9
$DIMTVP
 40
0.0
  9
$DIMTIX
 70
0
  9
$DIMSOXD
 70
0
  9
$DIMSAH
 70
0
  9
$DIMBLK1
  1

  9
$DIMBLK2
  1

  9
$DIMSTYLE
  2
ISO-25
  9
$DIMCLRD
 70
0
  9
$DIMCLRE
 70
0
  9
$DIMCLRT
 70
0
  9
$DIMTFAC
 40
1.0
  9
$DIMGAP
 40
0.625
  9
$DIMJUST
 70
0
  9
$DIMSD1
 70
0
  9
$DIMSD2
 70
0
  9
$DIMTOLJ
 70
0
  9
$DIMTZIN
 70
8
  9
$DIMALTZ
 70
0
  9
$DIMALTTZ
 70
0
  9
$DIMUPT
 70
0
  9
$DIMDEC
 70
2
  9
$DIMTDEC
 70
2
  9
$DIMALTU
 70
2
  9
$DIMALTTD
 70
3
  9
$DIMTXSTY
  7
Standard
  9
$DIMAUNIT
 70
0
  9
$DIMADEC
 70
0
  9
$DIMALTRND
 40
0.0
  9
$DIMAZIN
 70
0
  9
$DIMDSEP
 70
44
  9
$DIMATFIT
 70
3
  9
$DIMFRAC
 70
0
  9
$DIMLDRBLK
  1

  9
$DIMLUNIT
 70
2
  9
$DIMLWD
 70
-2
  9
$DIMLWE
 70
-2
  9
$DIMTMOVE
 70
0
  9
$LUNITS
 70
2
  9
$LUPREC
 70
4
  9
$SKETCHINC
 40
1.0
  9
$FILLETRAD
 40
10.0
  9
$AUNITS
 70
0
  9
$AUPREC
 70
2
  9
$MENU
  1
.
  9
$ELEVATION
 40
0.0
  9
$PELEVATION
 40
0.0
  9
$THICKNESS
 40
0.0
  9
$LIMCHECK
 70
0
  9
$CHAMFERA
 40
0.0
  9
$CHAMFERB
 40
0.0
  9
$CHAMFERC
 40
0.0
  9
$CHAMFERD
 40
0.0
  9
$SKPOLY
 70
0
  9
$TDCREATE
 40
2461111.9047685186
  9
$TDUCREATE
 40
2458532.153996898
  9
$TDUPDATE
 40
2461111.9047685186
  9
$TDUUPDATE
 40
2458532.1544311
  9
$TDINDWG
 40
0.0
  9
$TDUSRTIMER
 40
0.0
  9
$USRTIMER
 70
1
  9
$ANGBASE
 50
0.0
  9
$ANGDIR
 70
0
  9
$PDMODE
 70
0
  9
$PDSIZE
 40
0.0
  9
$PLINEWID
 40
0.0
  9
$SPLFRAME
 70
0
  9
$SPLINETYPE
 70
6
  9
$SPLINESEGS
 70
8
  9
$HANDSEED
  5
14B
  9
$SURFTAB1
 70
6
  9
$SURFTAB2
 70
6
  9
$SURFTYPE
 70
6
  9
$SURFU
 70
6
  9
$SURFV
 70
6
  9
$UCSBASE
  2

  9
$UCSNAME
  2

  9
$UCSORG
 10
0.0
 20
0.0
 30
0.0
  9
$UCSXDIR
 10
1.0
 20
0.0
 30
0.0
  9
$UCSYDIR
 10
0.0
 20
1.0
 30
0.0
  9
$UCSORTHOREF
  2

  9
$UCSORTHOVIEW
 70
0
  9
$UCSORGTOP
 10
0.0
 20
0.0
 30
0.0
  9
$UCSORGBOTTOM
 10
0.0
 20
0.0
 30
0.0
  9
$UCSORGLEFT
 10
0.0
 20
0.0
 30
0.0
  9
$UCSORGRIGHT
 10
0.0
 20
0.0
 30
0.0
  9
$UCSORGFRONT
 10
0.0
 20
0.0
 30
0.0
  9
$UCSORGBACK
 10
0.0
 20
0.0
 30
0.0
  9
$PUCSBASE
  2

  9
$PUCSNAME
  2

  9
$PUCSORG
 10
0.0
 20
0.0
 30
0.0
  9
$PUCSXDIR
 10
1.0
 20
0.0
 30
0.0
  9
$PUCSYDIR
 10
0.0
 20
1.0
 30
0.0
  9
$PUCSORTHOREF
  2

  9
$PUCSORTHOVIEW
 70
0
  9
$PUCSORGTOP
 10
0.0
 20
0.0
 30
0.0
  9
$PUCSORGBOTTOM
 10
0.0
 20
0.0
 30
0.0
  9
$PUCSORGLEFT
 10
0.0
 20
0.0
 30
0.0
  9
$PUCSORGRIGHT
 10
0.0
 20
0.0
 30
0.0
  9
$PUCSORGFRONT
 10
0.0
 20
0.0
 30
0.0
  9
$PUCSORGBACK
 10
0.0
 20
0.0
 30
0.0
  9
$USERI1
 70
0
  9
$USERI2
 70
0
  9
$USERI3
 70
0
  9
$USERI4
 70
0
  9
$USERI5
 70
0
  9
$USERR1
 40
0.0
  9
$USERR2
 40
0.0
  9
$USERR3
 40
0.0
  9
$USERR4
 40
0.0
  9
$USERR5
 40
0.0
  9
$WORLDVIEW
 70
1
  9
$SHADEDGE
 70
3
  9
$SHADEDIF
 70
70
  9
$TILEMODE
 70
1
  9
$MAXACTVP
 70
64
  9
$PINSBASE
 10
0.0
 20
0.0
 30
0.0
  9
$PLIMCHECK
 70
0
  9
$PEXTMIN
 10
1e+20
 20
1e+20
 30
1e+20
  9
$PEXTMAX
 10
-1e+20
 20
-1e+20
 30
-1e+20
  9
$PLIMMIN
 10
0.0
 20
0.0
  9
$PLIMMAX
 10
420.0
 20
297.0
  9
$UNITMODE
 70
0
  9
$VISRETAIN
 70
1
  9
$PLINEGEN
 70
0
  9
$PSLTSCALE
 70
1
  9
$TREEDEPTH
 70
3020
  9
$CMLSTYLE
  2
Standard
  9
$CMLJUST
 70
0
  9
$CMLSCALE
 40
20.0
  9
$PROXYGRAPHICS
 70
1
  9
$MEASUREMENT
 70
1
  9
$CELWEIGHT
370
-1
  9
$ENDCAPS
280
0
  9
$JOINSTYLE
280
0
  9
$LWDISPLAY
290
0
  9
$INSUNITS
 70
6
  9
$HYPERLINKBASE
  1

  9
$STYLESHEET
  1

  9
$XEDIT
290
1
  9
$CEPSNTYPE
380
0
  9
$PSTYLEMODE
290
1
  9
$FINGERPRINTGUID
  2
{658EB4CB-0E8A-4E90-A512-537E98308669}
  9
$VERSIONGUID
  2
{F849F9E1-0DED-4389-8CD2-3F1C22EACEAF}
  9
$EXTNAMES
290
1
  9
$PSVPSCALE
 40
0.0
  9
$OLESTARTUP
290
0
  0
ENDSEC
  0
SECTION
  2
CLASSES
  0
CLASS
  1
ACDBDICTIONARYWDFLT
  2
AcDbDictionaryWithDefault
  3
ObjectDBX Classes
 90
0
280
0
281
0
  0
CLASS
  1
SUN
  2
AcDbSun
  3
SCENEOE
 90
1153
280
0
281
0
  0
CLASS
  1
VISUALSTYLE
  2
AcDbVisualStyle
  3
ObjectDBX Classes
 90
4095
280
0
281
0
  0
CLASS
  1
MATERIAL
  2
AcDbMaterial
  3
ObjectDBX Classes
 90
1153
280
0
281
0
  0
CLASS
  1
SCALE
  2
AcDbScale
  3
ObjectDBX Classes
 90
1153
280
0
281
0
  0
CLASS
  1
TABLESTYLE
  2
AcDbTableStyle
  3
ObjectDBX Classes
 90
4095
280
0
281
0
  0
CLASS
  1
MLEADERSTYLE
  2
AcDbMLeaderStyle
  3
ACDB_MLEADERSTYLE_CLASS
 90
4095
280
0
281
0
  0
CLASS
  1
DICTIONARYVAR
  2
AcDbDictionaryVar
  3
ObjectDBX Classes
 90
0
280
0
281
0
  0
CLASS
  1
CELLSTYLEMAP
  2
AcDbCellStyleMap
  3
ObjectDBX Classes
 90
1152
280
0
281
0
  0
CLASS
  1
MENTALRAYRENDERSETTINGS
  2
AcDbMentalRayRenderSettings
  3
SCENEOE
 90
1024
280
0
281
0
  0
CLASS
  1
ACDBDETAILVIEWSTYLE
  2
AcDbDetailViewStyle
  3
ObjectDBX Classes
 90
1025
280
0
281
0
  0
CLASS
  1
ACDBSECTIONVIEWSTYLE
  2
AcDbSectionViewStyle
  3
ObjectDBX Classes
 90
1025
280
0
281
0
  0
CLASS
  1
RASTERVARIABLES
  2
AcDbRasterVariables
  3
ISM
 90
0
280
0
281
0
  0
CLASS
  1
ACDBPLACEHOLDER
  2
AcDbPlaceHolder
  3
ObjectDBX Classes
 90
0
280
0
281
0
  0
CLASS
  1
LAYOUT
  2
AcDbLayout
  3
ObjectDBX Classes
 90
0
280
0
281
0
  0
ENDSEC
  0
SECTION
  2
TABLES
  0
TABLE
  2
VPORT
  5
8
330
0
100
AcDbSymbolTable
 70
1
  0
VPORT
  5
23
330
8
100
AcDbSymbolTableRecord
100
AcDbViewportTableRecord
  2
*Active
 70
0
 10
0.0
 20
0.0
 11
1.0
 21
1.0
 12
0.0
 22
0.0
 13
0.0
 23
0.0
 14
0.5
 24
0.5
 15
0.5
 25
0.5
 16
0.0
 26
0.0
 36
1.0
 17
0.0
 27
0.0
 37
0.0
 40
1000.0
 41
1.34
 42
50.0
 43
0.0
 44
0.0
 50
0.0
 51
0.0
 71
0
 72
1000
 73
1
 74
3
 75
0
 76
0
 77
0
 78
0
281
0
 65
0
146
0.0
  0
ENDTAB
  0
TABLE
  2
LTYPE
  5
2
330
0
100
AcDbSymbolTable
 70
3
  0
LTYPE
  5
24
330
2
100
AcDbSymbolTableRecord
100
AcDbLinetypeTableRecord
  2
ByBlock
 70
0
  3

 72
65
 73
0
 40
0.0
  0
LTYPE
  5
25
330
2
100
AcDbSymbolTableRecord
100
AcDbLinetypeTableRecord
  2
ByLayer
 70
0
  3

 72
65
 73
0
 40
0.0
  0
LTYPE
  5
26
330
2
100
AcDbSymbolTableRecord
100
AcDbLinetypeTableRecord
  2
Continuous
 70
0
  3

 72
65
 73
0
 40
0.0
  0
ENDTAB
  0
TABLE
  2
LAYER
  5
1
330
0
100
AcDbSymbolTable
 70
23
  0
LAYER
  5
27
330
1
100
AcDbSymbolTableRecord
100
AcDbLayerTableRecord
  2
0
 70
0
 62
7
  6
Continuous
370
-3
390
13
  0
LAYER
  5
28
330
1
100
AcDbSymbolTableRecord
100
AcDbLayerTableRecord
  2
Defpoints
 70
0
 62
7
  6
Continuous
290
0
370
-3
390
13
  0
LAYER
  5
2F
330
1
100
AcDbSymbolTableRecord
100
AcDbLayerTableRecord
  2
Painéis
 70
0
 62
200
  6
Continuous
370
-3
390
13
  0
LAYER
  5
30
330
1
100
AcDbSymbolTableRecord
100
AcDbLayerTableRecord
  2
CONCRETO
 70
0
 62
251
  6
Continuous
370
-3
390
13
  0
LAYER
  5
31
330
1
100
AcDbSymbolTableRecord
100
AcDbLayerTableRecord
  2
SARR_3.5x7
 70
0
 62
81
  6
Continuous
370
-3
390
13
  0
LAYER
  5
32
330
1
100
AcDbSymbolTableRecord
100
AcDbLayerTableRecord
  2
Madeira
 70
0
 62
126
  6
Continuous
370
-3
390
13
  0
LAYER
  5
33
330
1
100
AcDbSymbolTableRecord
100
AcDbLayerTableRecord
  2
Texto Seção
 70
0
 62
7
  6
Continuous
370
-3
390
13
  0
LAYER
  5
34
330
1
100
AcDbSymbolTableRecord
100
AcDbLayerTableRecord
  2
COTA
 70
0
 62
4
  6
Continuous
370
-3
390
13
  0
LAYER
  5
35
330
1
100
AcDbSymbolTableRecord
100
AcDbLayerTableRecord
  2
Cota Seção (2x)
 70
0
 62
4
  6
Continuous
370
-3
390
13
  0
LAYER
  5
36
330
1
100
AcDbSymbolTableRecord
100
AcDbLayerTableRecord
  2
NOMENCLATURA
 70
0
 62
7
  6
Continuous
370
-3
390
13
  0
LAYER
  5
37
330
1
100
AcDbSymbolTableRecord
100
AcDbLayerTableRecord
  2
Hachura
 70
0
 62
253
  6
Continuous
370
-3
390
13
  0
LAYER
  5
38
330
1
100
AcDbSymbolTableRecord
100
AcDbLayerTableRecord
  2
REAPROVEITAMENTO
 70
0
 62
251
  6
Continuous
370
-3
390
13
  0
LAYER
  5
39
330
1
100
AcDbSymbolTableRecord
100
AcDbLayerTableRecord
  2
SARR_2.2x7
 70
0
 62
40
  6
Continuous
370
-3
390
13
  0
LAYER
  5
3A
330
1
100
AcDbSymbolTableRecord
100
AcDbLayerTableRecord
  2
SARR_2.2x10
 70
0
 62
40
  6
Continuous
370
-3
390
13
  0
LAYER
  5
3B
330
1
100
AcDbSymbolTableRecord
100
AcDbLayerTableRecord
  2
SARR_EDITAR
 70
0
 62
141
  6
Continuous
370
-3
390
13
  0
LAYER
  5
3C
330
1
100
AcDbSymbolTableRecord
100
AcDbLayerTableRecord
  2
Sarrafo de Pressão
 70
0
 62
40
  6
Continuous
370
-3
390
13
  0
LAYER
  5
3D
330
1
100
AcDbSymbolTableRecord
100
AcDbLayerTableRecord
  2
Escoras
 70
0
 62
2
  6
Continuous
370
-3
390
13
  0
LAYER
  5
3E
330
1
100
AcDbSymbolTableRecord
100
AcDbLayerTableRecord
  2
Demarcação 1
 70
0
 62
251
  6
Continuous
370
-3
390
13
  0
LAYER
  5
3F
330
1
100
AcDbSymbolTableRecord
100
AcDbLayerTableRecord
  2
Demarcação 2
 70
0
 62
254
  6
Continuous
370
-3
390
13
  0
LAYER
  5
40
330
1
100
AcDbSymbolTableRecord
100
AcDbLayerTableRecord
  2
Forcador
 70
0
 62
251
  6
Continuous
370
-3
390
13
  0
LAYER
  5
41
330
1
100
AcDbSymbolTableRecord
100
AcDbLayerTableRecord
  2
GARFOS
 70
0
 62
7
  6
Continuous
370
-3
390
13
  0
LAYER
  5
42
330
1
100
AcDbSymbolTableRecord
100
AcDbLayerTableRecord
  2
BARRA DE ANCORAGEM
 70
0
 62
7
  6
Continuous
370
-3
390
13
  0
LAYER
  5
43
330
1
100
AcDbSymbolTableRecord
100
AcDbLayerTableRecord
  2
Perfil Metálico
 70
0
 62
251
  6
Continuous
370
-3
390
13
  0
ENDTAB
  0
TABLE
  2
STYLE
  5
5
330
0
100
AcDbSymbolTable
 70
1
  0
STYLE
  5
29
330
5
100
AcDbSymbolTableRecord
100
AcDbTextStyleTableRecord
  2
Standard
 70
0
 40
0.0
 41
1.0
 50
0.0
 71
0
 42
2.5
  3
txt
  4

  0
ENDTAB
  0
TABLE
  2
VIEW
  5
7
330
0
100
AcDbSymbolTable
 70
0
  0
ENDTAB
  0
TABLE
  2
UCS
  5
6
330
0
100
AcDbSymbolTable
 70
0
  0
ENDTAB
  0
TABLE
  2
APPID
  5
3
330
0
100
AcDbSymbolTable
 70
3
  0
APPID
  5
2A
330
3
100
AcDbSymbolTableRecord
100
AcDbRegAppTableRecord
  2
ACAD
 70
0
  0
APPID
  5
148
330
3
100
AcDbSymbolTableRecord
100
AcDbRegAppTableRecord
  2
HATCHBACKGROUNDCOLOR
 70
0
  0
APPID
  5
149
330
3
100
AcDbSymbolTableRecord
100
AcDbRegAppTableRecord
  2
EZDXF
 70
0
  0
ENDTAB
  0
TABLE
  2
DIMSTYLE
  5
4
330
0
100
AcDbSymbolTable
 70
1
100
AcDbDimStyleTable
  0
DIMSTYLE
105
2B
330
4
100
AcDbSymbolTableRecord
100
AcDbDimStyleTableRecord
  2
Standard
 70
0
  3

  4

 40
1.0
 41
2.5
 42
0.625
 43
3.75
 44
1.25
 45
0.0
 46
0.0
 47
0.0
 48
0.0
140
2.5
141
2.5
142
0.0
143
0.03937007874
144
1.0
145
0.0
146
1.0
147
0.625
148
0.0
 71
0
 72
0
 73
0
 74
0
 75
0
 76
0
 77
1
 78
8
 79
3
170
0
171
3
172
1
173
0
174
0
175
0
176
0
177
0
178
0
179
2
271
2
272
2
273
2
274
3
275
0
276
0
277
2
278
44
279
0
280
0
281
0
282
0
283
0
284
8
285
0
286
0
288
0
289
3
371
-2
372
-2
  0
ENDTAB
  0
TABLE
  2
BLOCK_RECORD
  5
9
330
0
100
AcDbSymbolTable
 70
2
  0
BLOCK_RECORD
  5
17
330
9
100
AcDbSymbolTableRecord
100
AcDbBlockTableRecord
  2
*Model_Space
340
1A
  0
BLOCK_RECORD
  5
1B
330
9
100
AcDbSymbolTableRecord
100
AcDbBlockTableRecord
  2
*Paper_Space
340
1E
  0
ENDTAB
  0
ENDSEC
  0
SECTION
  2
BLOCKS
  0
BLOCK
  5
18
330
17
100
AcDbEntity
  8
0
100
AcDbBlockBegin
  2
*Model_Space
 70
0
 10
0.0
 20
0.0
 30
0.0
  3
*Model_Space
  1

  0
ENDBLK
  5
19
330
17
100
AcDbEntity
  8
0
100
AcDbBlockEnd
  0
BLOCK
  5
1C
330
1B
100
AcDbEntity
  8
0
100
AcDbBlockBegin
  2
*Paper_Space
 70
0
 10
0.0
 20
0.0
 30
0.0
  3
*Paper_Space
  1

  0
ENDBLK
  5
1D
330
1B
100
AcDbEntity
  8
0
100
AcDbBlockEnd
  0
ENDSEC
  0
SECTION
  2
ENTITIES
  0
LINE
  5
44
330
17
100
AcDbEntity
  8
Painéis
100
AcDbLine
 10
130835.8
 20
28108.7
 30
0.0
 11
130895.8
 21
28108.7
 31
0.0
  0
LINE
  5
45
330
17
100
AcDbEntity
  8
Painéis
100
AcDbLine
 10
130835.8
 20
28104.7
 30
0.0
 11
130835.8
 21
28108.7
 31
0.0
  0
LINE
  5
46
330
17
100
AcDbEntity
  8
Painéis
100
AcDbLine
 10
130895.8
 20
27964.7
 30
0.0
 11
130895.8
 21
28104.7
 31
0.0
  0
LINE
  5
47
330
17
100
AcDbEntity
  8
Painéis
100
AcDbLine
 10
130895.8
 20
28104.7
 30
0.0
 11
130895.8
 21
28108.7
 31
0.0
  0
LWPOLYLINE
  5
48
330
17
100
AcDbEntity
  8
Painéis
100
AcDbPolyline
 90
4
 70
1
 10
130937.8
 20
28132.7
 10
130933.8
 20
28132.7
 10
130933.8
 20
27964.7
 10
130937.8
 20
27964.7
  0
LWPOLYLINE
  5
49
330
17
100
AcDbEntity
  8
Painéis
100
AcDbPolyline
 90
4
 70
1
 10
130895.8
 20
27969.1
 10
130895.8
 20
27972.7
 10
130933.8
 20
27972.7
 10
130933.8
 20
27969.1
  0
LWPOLYLINE
  5
4A
330
17
100
AcDbEntity
  8
Painéis
100
AcDbPolyline
 90
4
 70
1
 10
130891.8
 20
28104.7
 10
130895.8
 20
28104.7
 10
130895.8
 20
27964.7
 10
130891.8
 20
27964.7
  0
LWPOLYLINE
  5
4B
330
17
100
AcDbEntity
  8
Painéis
100
AcDbPolyline
 90
4
 70
1
 10
130835.8
 20
28104.7
 10
130835.8
 20
28108.7
 10
130895.8
 20
28108.7
 10
130895.8
 20
28104.7
  0
LWPOLYLINE
  5
4C
330
17
100
AcDbEntity
  8
CONCRETO
100
AcDbPolyline
 90
8
 70
1
 10
130933.8
 20
28112.7
 10
130933.8
 20
28132.7
 10
130835.8
 20
28132.7
 10
130835.8
 20
28108.7
 10
130895.8
 20
28108.7
 10
130895.8
 20
27972.7
 10
130933.8
 20
27972.7
 10
130933.8
 20
28112.7
  0
LWPOLYLINE
  5
4D
330
17
100
AcDbEntity
  8
Madeira
100
AcDbPolyline
 90
4
 70
1
 10
130971.8
 20
27964.7
 10
130971.8
 20
27969.1
 10
130951.8
 20
27969.1
 10
130951.8
 20
27964.7
  0
LWPOLYLINE
  5
4E
330
17
100
AcDbEntity
  8
Madeira
100
AcDbPolyline
 90
4
 70
1
 10
130877.8
 20
28104.7
 10
130877.8
 20
28100.3
 10
130891.8
 20
28100.3
 10
130891.8
 20
28104.7
  0
LWPOLYLINE
  5
4F
330
17
100
AcDbEntity
  8
Madeira
100
AcDbPolyline
 90
4
 70
1
 10
130857.8
 20
27964.7
 10
130857.8
 20
27969.1
 10
130877.8
 20
27969.1
 10
130877.8
 20
27964.7
  0
LWPOLYLINE
  5
50
330
17
100
AcDbEntity
  8
Madeira
100
AcDbPolyline
 90
4
 70
1
 10
130951.8
 20
28132.7
 10
130951.8
 20
28128.3
 10
130937.8
 20
28128.3
 10
130937.8
 20
28132.7
  0
LWPOLYLINE
  5
51
330
17
100
AcDbEntity
  8
Madeira
100
AcDbPolyline
 90
4
 70
1
 10
130951.8
 20
28132.7
 10
130937.8
 20
28132.7
 10
130937.8
 20
27964.7
 10
130951.8
 20
27964.7
  0
LWPOLYLINE
  5
52
330
17
100
AcDbEntity
  8
Madeira
100
AcDbPolyline
 90
4
 70
1
 10
130877.8
 20
27964.7
 10
130891.8
 20
27964.7
 10
130891.8
 20
28104.7
 10
130877.8
 20
28104.7
  0
LWPOLYLINE
  5
53
330
17
100
AcDbEntity
  8
Madeira
100
AcDbPolyline
 90
4
 70
1
 10
130895.8
 20
27964.7
 10
130895.8
 20
27969.1
 10
130905.8
 20
27969.1
 10
130905.8
 20
27964.7
  0
LWPOLYLINE
  5
54
330
17
100
AcDbEntity
  8
Madeira
100
AcDbPolyline
 90
4
 70
1
 10
130923.8
 20
27964.7
 10
130923.8
 20
27969.1
 10
130933.8
 20
27969.1
 10
130933.8
 20
27964.7
  0
LWPOLYLINE
  5
55
330
17
100
AcDbEntity
  8
Madeira
100
AcDbPolyline
 90
4
 70
1
 10
130820.0
 20
27944.7
 10
131019.6
 20
27944.7
 10
131019.6
 20
27964.7
 10
130820.0
 20
27964.7
  0
LWPOLYLINE
  5
56
330
17
100
AcDbEntity
  8
CONCRETO
100
AcDbPolyline
 90
4
 70
1
 10
130835.8
 20
27972.7
 10
130933.8
 20
27972.7
 10
130933.8
 20
28132.7
 10
130835.8
 20
28132.7
  0
TEXT
  5
57
330
17
100
AcDbEntity
  8
Texto Seção
100
AcDbText
 10
130904.8
 20
28137.7
 30
0.0
 40
8.0
  1
V24
100
AcDbText
  0
TEXT
  5
58
330
17
100
AcDbEntity
  8
Texto Seção
100
AcDbText
 10
130904.8
 20
28122.7
 30
0.0
 40
6.0
  1
(19x80)
100
AcDbText
  0
TEXT
  5
59
330
17
100
AcDbEntity
  8
NOMENCLATURA
100
AcDbText
 10
129329.6
 20
28000.6
 30
0.0
 40
5.0
  1
P18
100
AcDbText
  0
TEXT
  5
5A
330
17
100
AcDbEntity
  8
NOMENCLATURA
100
AcDbText
 10
130152.6
 20
28000.7
 30
0.0
 40
5.0
  1
P8
100
AcDbText
  0
TEXT
  5
5B
330
17
100
AcDbEntity
  8
NOMENCLATURA
100
AcDbText
 10
129574.2
 20
27785.2
 30
0.0
 40
5.0
  1
P4
100
AcDbText
  0
TEXT
  5
5C
330
17
100
AcDbEntity
  8
NOMENCLATURA
100
AcDbText
 10
129281.5
 20
28132.4
 30
0.0
 40
5.0
  1
5 1/2pont
100
AcDbText
  0
TEXT
  5
5D
330
17
100
AcDbEntity
  8
NOMENCLATURA
100
AcDbText
 10
129477.7
 20
28139.1
 30
0.0
 40
5.0
  1
8 1/2pont
100
AcDbText
  0
TEXT
  5
5E
330
17
100
AcDbEntity
  8
NOMENCLATURA
100
AcDbText
 10
129649.8
 20
28139.1
 30
0.0
 40
5.0
  1
5 1/2pont
100
AcDbText
  0
TEXT
  5
5F
330
17
100
AcDbEntity
  8
NOMENCLATURA
100
AcDbText
 10
129886.6
 20
28139.1
 30
0.0
 40
5.0
  1
5 1/2pont
100
AcDbText
  0
TEXT
  5
60
330
17
100
AcDbEntity
  8
NOMENCLATURA
100
AcDbText
 10
129982.7
 20
28139.1
 30
0.0
 40
5.0
  1
4 1/2pont
100
AcDbText
  0
TEXT
  5
61
330
17
100
AcDbEntity
  8
NOMENCLATURA
100
AcDbText
 10
130099.3
 20
28135.6
 30
0.0
 40
5.0
  1
4 1/2pont
100
AcDbText
  0
TEXT
  5
62
330
17
100
AcDbEntity
  8
NOMENCLATURA
100
AcDbText
 10
129331.9
 20
27896.7
 30
0.0
 40
5.0
  1
8 1/2pont
100
AcDbText
  0
TEXT
  5
63
330
17
100
AcDbEntity
  8
NOMENCLATURA
100
AcDbText
 10
129511.7
 20
27896.7
 30
0.0
 40
5.0
  1
5 1/2pont
100
AcDbText
  0
HATCH
  5
64
330
17
100
AcDbEntity
  8
Hachura
 62
8
100
AcDbHatch
 10
0.0
 20
0.0
 30
0.0
210
0.0
220
0.0
230
1.0
  2
SOLID
 70
1
 71
0
 91
1
 92
3
 72
0
 73
1
 93
8
 10
130937.8
 20
28132.7
 10
130933.8
 20
28132.7
 10
130933.8
 20
28132.7
 10
130933.8
 20
27964.7
 10
130933.8
 20
27964.7
 10
130937.8
 20
27964.7
 10
130937.8
 20
27964.7
 10
130937.8
 20
28132.7
 97
0
 75
1
 76
1
 98
0
  0
HATCH
  5
65
330
17
100
AcDbEntity
  8
Hachura
 62
7
100
AcDbHatch
 10
0.0
 20
0.0
 30
0.0
210
0.0
220
0.0
230
1.0
  2
ANSI31
 70
0
 71
0
 91
1
 92
3
 72
0
 73
1
 93
8
 10
130971.8
 20
27964.7
 10
130971.8
 20
27969.1
 10
130971.8
 20
27969.1
 10
130951.8
 20
27969.1
 10
130951.8
 20
27969.1
 10
130951.8
 20
27964.7
 10
130951.8
 20
27964.7
 10
130971.8
 20
27964.7
 97
0
 75
1
 76
1
 52
0.0
 41
0.5
 77
0
 78
1
 53
45.0
 43
0.0
 44
0.0
 45
-1.1225320152
 46
1.1225320152
 79
0
 98
0
  0
HATCH
  5
66
330
17
100
AcDbEntity
  8
Hachura
 62
8
100
AcDbHatch
 10
0.0
 20
0.0
 30
0.0
210
0.0
220
0.0
230
1.0
  2
SOLID
 70
1
 71
0
 91
1
 92
3
 72
0
 73
1
 93
8
 10
130895.8
 20
27969.1
 10
130895.8
 20
27972.7
 10
130895.8
 20
27972.7
 10
130933.8
 20
27972.7
 10
130933.8
 20
27972.7
 10
130933.8
 20
27969.1
 10
130933.8
 20
27969.1
 10
130895.8
 20
27969.1
 97
0
 75
1
 76
1
 98
0
  0
HATCH
  5
67
330
17
100
AcDbEntity
  8
Hachura
 62
8
100
AcDbHatch
 10
0.0
 20
0.0
 30
0.0
210
0.0
220
0.0
230
1.0
  2
SOLID
 70
1
 71
0
 91
1
 92
3
 72
0
 73
1
 93
8
 10
130891.8
 20
28104.7
 10
130895.8
 20
28104.7
 10
130895.8
 20
28104.7
 10
130895.8
 20
27964.7
 10
130895.8
 20
27964.7
 10
130891.8
 20
27964.7
 10
130891.8
 20
27964.7
 10
130891.8
 20
28104.7
 97
0
 75
1
 76
1
 98
0
  0
HATCH
  5
68
330
17
100
AcDbEntity
  8
Hachura
 62
8
100
AcDbHatch
 10
0.0
 20
0.0
 30
0.0
210
0.0
220
0.0
230
1.0
  2
SOLID
 70
1
 71
0
 91
1
 92
3
 72
0
 73
1
 93
8
 10
130835.8
 20
28104.7
 10
130835.8
 20
28108.7
 10
130835.8
 20
28108.7
 10
130895.8
 20
28108.7
 10
130895.8
 20
28108.7
 10
130895.8
 20
28104.7
 10
130895.8
 20
28104.7
 10
130835.8
 20
28104.7
 97
0
 75
1
 76
1
 98
0
  0
HATCH
  5
69
330
17
100
AcDbEntity
  8
Hachura
 62
7
100
AcDbHatch
 10
0.0
 20
0.0
 30
0.0
210
0.0
220
0.0
230
1.0
  2
ANSI31
 70
0
 71
0
 91
1
 92
3
 72
0
 73
1
 93
8
 10
130877.8
 20
28104.7
 10
130877.8
 20
28100.3
 10
130877.8
 20
28100.3
 10
130891.8
 20
28100.3
 10
130891.8
 20
28100.3
 10
130891.8
 20
28104.7
 10
130891.8
 20
28104.7
 10
130877.8
 20
28104.7
 97
0
 75
1
 76
1
 52
0.0
 41
0.5
 77
0
 78
1
 53
45.0
 43
0.0
 44
0.0
 45
-1.1225320152
 46
1.1225320152
 79
0
 98
0
  0
HATCH
  5
6A
330
17
100
AcDbEntity
  8
Hachura
 62
7
100
AcDbHatch
 10
0.0
 20
0.0
 30
0.0
210
0.0
220
0.0
230
1.0
  2
ANSI31
 70
0
 71
0
 91
1
 92
3
 72
0
 73
1
 93
8
 10
130857.8
 20
27964.7
 10
130857.8
 20
27969.1
 10
130857.8
 20
27969.1
 10
130877.8
 20
27969.1
 10
130877.8
 20
27969.1
 10
130877.8
 20
27964.7
 10
130877.8
 20
27964.7
 10
130857.8
 20
27964.7
 97
0
 75
1
 76
1
 52
0.0
 41
0.5
 77
0
 78
1
 53
45.0
 43
0.0
 44
0.0
 45
-1.1225320152
 46
1.1225320152
 79
0
 98
0
  0
HATCH
  5
6B
330
17
100
AcDbEntity
  8
Hachura
 62
7
100
AcDbHatch
 10
0.0
 20
0.0
 30
0.0
210
0.0
220
0.0
230
1.0
  2
ANSI31
 70
0
 71
0
 91
1
 92
3
 72
0
 73
1
 93
8
 10
130951.8
 20
28132.7
 10
130951.8
 20
28128.3
 10
130951.8
 20
28128.3
 10
130937.8
 20
28128.3
 10
130937.8
 20
28128.3
 10
130937.8
 20
28132.7
 10
130937.8
 20
28132.7
 10
130951.8
 20
28132.7
 97
0
 75
1
 76
1
 52
0.0
 41
0.5
 77
0
 78
1
 53
45.0
 43
0.0
 44
0.0
 45
-1.1225320152
 46
1.1225320152
 79
0
 98
0
  0
HATCH
  5
6C
330
17
100
AcDbEntity
  8
Hachura
 62
7
100
AcDbHatch
 10
0.0
 20
0.0
 30
0.0
210
0.0
220
0.0
230
1.0
  2
ANSI31
 70
0
 71
0
 91
1
 92
3
 72
0
 73
1
 93
8
 10
130895.8
 20
27964.7
 10
130895.8
 20
27969.1
 10
130895.8
 20
27969.1
 10
130905.8
 20
27969.1
 10
130905.8
 20
27969.1
 10
130905.8
 20
27964.7
 10
130905.8
 20
27964.7
 10
130895.8
 20
27964.7
 97
0
 75
1
 76
1
 52
0.0
 41
0.5
 77
0
 78
1
 53
45.0
 43
0.0
 44
0.0
 45
-1.1225320152
 46
1.1225320152
 79
0
 98
0
  0
HATCH
  5
6D
330
17
100
AcDbEntity
  8
Hachura
 62
7
100
AcDbHatch
 10
0.0
 20
0.0
 30
0.0
210
0.0
220
0.0
230
1.0
  2
ANSI31
 70
0
 71
0
 91
1
 92
3
 72
0
 73
1
 93
8
 10
130923.8
 20
27964.7
 10
130923.8
 20
27969.1
 10
130923.8
 20
27969.1
 10
130933.8
 20
27969.1
 10
130933.8
 20
27969.1
 10
130933.8
 20
27964.7
 10
130933.8
 20
27964.7
 10
130923.8
 20
27964.7
 97
0
 75
1
 76
1
 52
0.0
 41
0.5
 77
0
 78
1
 53
45.0
 43
0.0
 44
0.0
 45
-1.1225320152
 46
1.1225320152
 79
0
 98
0
  0
HATCH
  5
6E
330
17
100
AcDbEntity
  8
COTA
 62
7
100
AcDbHatch
 10
0.0
 20
0.0
 30
0.0
210
0.0
220
0.0
230
1.0
  2
AR-CONC
 70
0
 71
0
 91
1
 92
3
 72
0
 73
1
 93
4
 10
130866.1
 20
27899.0
 10
130904.1
 20
27899.0
 10
130904.1
 20
27913.0
 10
130866.1
 20
27913.0
 97
0
 75
1
 76
1
 52
0.0
 41
0.03
 77
0
 78
13
 53
50.0
 43
0.0
 44
0.0
 45
5.4655400699
 46
-0.4781725662
 79
2
 49
0.5715
 49
-6.2865
 53
355.0
 43
0.0
 44
0.0
 45
-1.0573026428
 46
5.7317053572
 79
2
 49
0.4572
 49
-5.0292175251
 53
100.4514447
 43
0.45546021
 44
-0.039847605
 45
4.4082374127
 46
5.2535325574
 79
2
 49
0.485700264
 49
-5.342707338
 53
46.1842
 43
0.0
 44
1.524
 45
8.1323712268
 46
-1.261269838
 79
2
 49
0.85725
 49
-9.42975
 53
96.63555761
 43
0.677697
 44
1.418895
 45
7.1221240215
 46
7.4227837379
 79
2
 49
0.7285506942
 49
-8.0140682448
 53
351.18415117
 43
0.0
 44
1.524
 45
7.1221240219
 46
7.4227837376
 79
2
 49
0.6857990121
 49
-7.5437919576
 53
21.0
 43
0.762
 44
1.143
 45
4.5484317381
 46
-3.0679559456
 79
2
 49
0.5715
 49
-6.2865
 53
326.0
 43
0.762
 44
1.143
 45
1.8540608504
 46
5.5256389837
 79
2
 49
0.4572
 49
-5.0292
 53
71.451445
 43
1.141035978
 44
0.887337003
 45
6.4024925784
 46
2.4576830666
 79
2
 49
0.485700264
 49
-5.342698128
 53
37.5
 43
0.0
 44
0.0
 45
0.0926580975
 46
2.5366511662
 79
6
 49
0.0
 49
-4.96824
 49
0.0
 49
-5.1054
 49
0.0
 49
-5.04825
 53
7.5
 43
0.0
 44
0.0
 45
2.0045898753
 46
3.0054172445
 79
6
 49
0.0
 49
-2.91084
 49
0.0
 49
-4.85394
 49
0.0
 49
-1.92405
 53
-32.5
 43
-1.69926
 44
0.0
 45
4.067717855
 46
-0.1718623198
 79
6
 49
0.0
 49
-1.905
 49
0.0
 49
-5.9436
 49
0.0
 49
-7.8867
 53
-42.5
 43
-2.46126
 44
0.0
 45
4.4438754416
 46
0.762794731
 79
6
 49
0.0
 49
-2.4765
 49
0.0
 49
-3.94716
 49
0.0
 49
-5.6007
 98
0
  0
LINE
  5
6F
330
17
100
AcDbEntity
  8
COTA
100
AcDbLine
 10
129212.4
 20
28021.1
 30
0.0
 11
129339.4
 21
28021.1
 31
0.0
  0
LINE
  5
70
330
17
100
AcDbEntity
  8
COTA
100
AcDbLine
 10
129212.4
 20
28093.9
 30
0.0
 11
129212.4
 21
28016.1
 31
0.0
  0
LINE
  5
71
330
17
100
AcDbEntity
  8
COTA
100
AcDbLine
 10
129339.4
 20
28093.9
 30
0.0
 11
129339.4
 21
28016.1
 31
0.0
  0
TEXT
  5
72
330
17
100
AcDbEntity
  8
COTA
100
AcDbText
 10
129275.9
 20
28029.2
 30
0.0
 40
4.0
  1
127
100
AcDbText
  0
LINE
  5
73
330
17
100
AcDbEntity
  8
COTA
100
AcDbLine
 10
129212.4
 20
28077.2
 30
0.0
 11
129219.4
 21
28077.2
 31
0.0
  0
LINE
  5
74
330
17
100
AcDbEntity
  8
COTA
100
AcDbLine
 10
129212.4
 20
28093.9
 30
0.0
 11
129212.4
 21
28072.2
 31
0.0
  0
LINE
  5
75
330
17
100
AcDbEntity
  8
COTA
100
AcDbLine
 10
129219.4
 20
28093.9
 30
0.0
 11
129219.4
 21
28072.2
 31
0.0
  0
TEXT
  5
76
330
17
100
AcDbEntity
  8
COTA
100
AcDbText
 10
129228.2
 20
28085.2
 30
0.0
 40
4.0
  1
7
100
AcDbText
  0
LINE
  5
77
330
17
100
AcDbEntity
  8
COTA
100
AcDbLine
 10
129361.1
 20
28043.2
 30
0.0
 11
129601.6
 21
28043.2
 31
0.0
  0
LINE
  5
78
330
17
100
AcDbEntity
  8
COTA
100
AcDbLine
 10
129361.1
 20
28093.9
 30
0.0
 11
129361.1
 21
28038.2
 31
0.0
  0
LINE
  5
79
330
17
100
AcDbEntity
  8
COTA
100
AcDbLine
 10
129601.6
 20
28093.9
 30
0.0
 11
129601.6
 21
28038.2
 31
0.0
  0
TEXT
  5
7A
330
17
100
AcDbEntity
  8
COTA
100
AcDbText
 10
129481.4
 20
28051.3
 30
0.0
 40
4.0
  1
240
100
AcDbText
  0
LINE
  5
7B
330
17
100
AcDbEntity
  8
COTA
100
AcDbLine
 10
129601.6
 20
28043.2
 30
0.0
 11
129733.6
 21
28043.2
 31
0.0
  0
LINE
  5
7C
330
17
100
AcDbEntity
  8
COTA
100
AcDbLine
 10
129601.6
 20
28093.9
 30
0.0
 11
129601.6
 21
28038.2
 31
0.0
  0
LINE
  5
7D
330
17
100
AcDbEntity
  8
COTA
100
AcDbLine
 10
129733.6
 20
28093.9
 30
0.0
 11
129733.6
 21
28038.2
 31
0.0
  0
TEXT
  5
7E
330
17
100
AcDbEntity
  8
COTA
100
AcDbText
 10
129667.6
 20
28051.4
 30
0.0
 40
4.0
  1
132
100
AcDbText
  0
LINE
  5
7F
330
17
100
AcDbEntity
  8
COTA
100
AcDbLine
 10
129361.1
 20
28018.6
 30
0.0
 11
129733.6
 21
28018.6
 31
0.0
  0
LINE
  5
80
330
17
100
AcDbEntity
  8
COTA
100
AcDbLine
 10
129361.1
 20
28093.9
 30
0.0
 11
129361.1
 21
28013.6
 31
0.0
  0
LINE
  5
81
330
17
100
AcDbEntity
  8
COTA
100
AcDbLine
 10
129733.6
 20
28093.9
 30
0.0
 11
129733.6
 21
28013.6
 31
0.0
  0
TEXT
  5
82
330
17
100
AcDbEntity
  8
COTA
100
AcDbText
 10
129547.4
 20
28026.8
 30
0.0
 40
4.0
  1
372
100
AcDbText
  0
LINE
  5
83
330
17
100
AcDbEntity
  8
COTA
100
AcDbLine
 10
129758.4
 20
28014.0
 30
0.0
 11
129796.4
 21
28014.0
 31
0.0
  0
LINE
  5
84
330
17
100
AcDbEntity
  8
COTA
100
AcDbLine
 10
129758.4
 20
28093.9
 30
0.0
 11
129758.4
 21
28009.0
 31
0.0
  0
LINE
  5
85
330
17
100
AcDbEntity
  8
COTA
100
AcDbLine
 10
129796.4
 20
28093.9
 30
0.0
 11
129796.4
 21
28009.0
 31
0.0
  0
TEXT
  5
86
330
17
100
AcDbEntity
  8
COTA
100
AcDbText
 10
129777.4
 20
28022.3
 30
0.0
 40
4.0
  1
38
100
AcDbText
  0
LINE
  5
87
330
17
100
AcDbEntity
  8
COTA
100
AcDbLine
 10
129821.6
 20
28039.6
 30
0.0
 11
129943.6
 21
28039.6
 31
0.0
  0
LINE
  5
88
330
17
100
AcDbEntity
  8
COTA
100
AcDbLine
 10
129821.6
 20
28093.9
 30
0.0
 11
129821.6
 21
28034.6
 31
0.0
  0
LINE
  5
89
330
17
100
AcDbEntity
  8
COTA
100
AcDbLine
 10
129943.6
 20
28093.9
 30
0.0
 11
129943.6
 21
28034.6
 31
0.0
  0
TEXT
  5
8A
330
17
100
AcDbEntity
  8
COTA
100
AcDbText
 10
129882.6
 20
28047.6
 30
0.0
 40
4.0
  1
122
100
AcDbText
  0
LINE
  5
8B
330
17
100
AcDbEntity
  8
COTA
100
AcDbLine
 10
129943.6
 20
28039.6
 30
0.0
 11
130024.6
 21
28039.6
 31
0.0
  0
LINE
  5
8C
330
17
100
AcDbEntity
  8
COTA
100
AcDbLine
 10
129943.6
 20
28093.9
 30
0.0
 11
129943.6
 21
28034.6
 31
0.0
  0
LINE
  5
8D
330
17
100
AcDbEntity
  8
COTA
100
AcDbLine
 10
130024.6
 20
28093.9
 30
0.0
 11
130024.6
 21
28034.6
 31
0.0
  0
TEXT
  5
8E
330
17
100
AcDbEntity
  8
COTA
100
AcDbText
 10
129984.1
 20
28047.7
 30
0.0
 40
4.0
  1
81
100
AcDbText
  0
LINE
  5
8F
330
17
100
AcDbEntity
  8
COTA
100
AcDbLine
 10
129821.6
 20
28015.0
 30
0.0
 11
130024.6
 21
28015.0
 31
0.0
  0
LINE
  5
90
330
17
100
AcDbEntity
  8
COTA
100
AcDbLine
 10
129821.6
 20
28093.9
 30
0.0
 11
129821.6
 21
28010.0
 31
0.0
  0
LINE
  5
91
330
17
100
AcDbEntity
  8
COTA
100
AcDbLine
 10
130024.6
 20
28093.9
 30
0.0
 11
130024.6
 21
28010.0
 31
0.0
  0
TEXT
  5
92
330
17
100
AcDbEntity
  8
COTA
100
AcDbText
 10
129923.1
 20
28023.2
 30
0.0
 40
4.0
  1
203
100
AcDbText
  0
LINE
  5
93
330
17
100
AcDbEntity
  8
COTA
100
AcDbLine
 10
130040.1
 20
28018.2
 30
0.0
 11
130153.6
 21
28018.2
 31
0.0
  0
LINE
  5
94
330
17
100
AcDbEntity
  8
COTA
100
AcDbLine
 10
130040.1
 20
28093.9
 30
0.0
 11
130040.1
 21
28013.2
 31
0.0
  0
LINE
  5
95
330
17
100
AcDbEntity
  8
COTA
100
AcDbLine
 10
130153.6
 20
28093.9
 30
0.0
 11
130153.6
 21
28013.2
 31
0.0
  0
TEXT
  5
96
330
17
100
AcDbEntity
  8
COTA
100
AcDbText
 10
130096.9
 20
28026.5
 30
0.0
 40
4.0
  1
114
100
AcDbText
  0
LINE
  5
97
330
17
100
AcDbEntity
  8
COTA
100
AcDbLine
 10
129223.4
 20
27827.7
 30
0.0
 11
129467.4
 21
27827.7
 31
0.0
  0
LINE
  5
98
330
17
100
AcDbEntity
  8
COTA
100
AcDbLine
 10
129223.4
 20
27851.5
 30
0.0
 11
129223.4
 21
27822.7
 31
0.0
  0
LINE
  5
99
330
17
100
AcDbEntity
  8
COTA
100
AcDbLine
 10
129467.4
 20
27851.5
 30
0.0
 11
129467.4
 21
27822.7
 31
0.0
  0
TEXT
  5
9A
330
17
100
AcDbEntity
  8
COTA
100
AcDbText
 10
129345.4
 20
27835.8
 30
0.0
 40
4.0
  1
244
100
AcDbText
  0
LINE
  5
9B
330
17
100
AcDbEntity
  8
COTA
100
AcDbLine
 10
129467.4
 20
27827.7
 30
0.0
 11
129574.9
 21
27827.7
 31
0.0
  0
LINE
  5
9C
330
17
100
AcDbEntity
  8
COTA
100
AcDbLine
 10
129467.4
 20
27851.5
 30
0.0
 11
129467.4
 21
27822.7
 31
0.0
  0
LINE
  5
9D
330
17
100
AcDbEntity
  8
COTA
100
AcDbLine
 10
129574.9
 20
27851.5
 30
0.0
 11
129574.9
 21
27822.7
 31
0.0
  0
TEXT
  5
9E
330
17
100
AcDbEntity
  8
COTA
100
AcDbText
 10
129521.1
 20
27835.8
 30
0.0
 40
4.0
  1
108
100
AcDbText
  0
LINE
  5
9F
330
17
100
AcDbEntity
  8
COTA
100
AcDbLine
 10
129223.4
 20
27803.2
 30
0.0
 11
129574.9
 21
27803.2
 31
0.0
  0
LINE
  5
A0
330
17
100
AcDbEntity
  8
COTA
100
AcDbLine
 10
129223.4
 20
27851.5
 30
0.0
 11
129223.4
 21
27798.2
 31
0.0
  0
LINE
  5
A1
330
17
100
AcDbEntity
  8
COTA
100
AcDbLine
 10
129574.9
 20
27851.5
 30
0.0
 11
129574.9
 21
27798.2
 31
0.0
  0
TEXT
  5
A2
330
17
100
AcDbEntity
  8
COTA
100
AcDbText
 10
129399.1
 20
27811.4
 30
0.0
 40
4.0
  1
352
100
AcDbText
  0
LINE
  5
A3
330
17
100
AcDbEntity
  8
COTA
100
AcDbLine
 10
129361.1
 20
28139.8
 30
0.0
 11
129368.6
 21
28139.8
 31
0.0
  0
LINE
  5
A4
330
17
100
AcDbEntity
  8
COTA
100
AcDbLine
 10
129368.6
 20
28156.9
 30
0.0
 11
129368.6
 21
28134.8
 31
0.0
  0
LINE
  5
A5
330
17
100
AcDbEntity
  8
COTA
100
AcDbLine
 10
129361.1
 20
28156.9
 30
0.0
 11
129361.1
 21
28134.8
 31
0.0
  0
TEXT
  5
A6
330
17
100
AcDbEntity
  8
COTA
100
AcDbText
 10
129364.9
 20
28139.8
 30
0.0
 40
4.0
  1
8
100
AcDbText
  0
LINE
  5
A7
330
17
100
AcDbEntity
  8
COTA
100
AcDbLine
 10
130146.1
 20
28139.8
 30
0.0
 11
130153.6
 21
28139.8
 31
0.0
  0
LINE
  5
A8
330
17
100
AcDbEntity
  8
COTA
100
AcDbLine
 10
130153.6
 20
28170.9
 30
0.0
 11
130153.6
 21
28134.8
 31
0.0
  0
LINE
  5
A9
330
17
100
AcDbEntity
  8
COTA
100
AcDbLine
 10
130146.1
 20
28170.9
 30
0.0
 11
130146.1
 21
28134.8
 31
0.0
  0
TEXT
  5
AA
330
17
100
AcDbEntity
  8
COTA
100
AcDbText
 10
130149.9
 20
28139.8
 30
0.0
 40
4.0
  1
8
100
AcDbText
  0
LINE
  5
AB
330
17
100
AcDbEntity
  8
COTA
100
AcDbLine
 10
129567.4
 20
27897.4
 30
0.0
 11
129574.9
 21
27897.4
 31
0.0
  0
LINE
  5
AC
330
17
100
AcDbEntity
  8
COTA
100
AcDbLine
 10
129574.9
 20
27914.5
 30
0.0
 11
129574.9
 21
27892.4
 31
0.0
  0
LINE
  5
AD
330
17
100
AcDbEntity
  8
COTA
100
AcDbLine
 10
129567.4
 20
27914.5
 30
0.0
 11
129567.4
 21
27892.4
 31
0.0
  0
TEXT
  5
AE
330
17
100
AcDbEntity
  8
COTA
100
AcDbText
 10
129571.1
 20
27897.4
 30
0.0
 40
4.0
  1
8
100
AcDbText
  0
LINE
  5
AF
330
17
100
AcDbEntity
  8
COTA
100
AcDbLine
 10
129455.3
 20
27851.5
 30
0.0
 11
129455.3
 21
27921.5
 31
0.0
  0
LINE
  5
B0
330
17
100
AcDbEntity
  8
COTA
100
AcDbLine
 10
129467.4
 20
27921.5
 30
0.0
 11
129450.3
 21
27921.5
 31
0.0
  0
LINE
  5
B1
330
17
100
AcDbEntity
  8
COTA
100
AcDbLine
 10
129467.4
 20
27851.5
 30
0.0
 11
129450.3
 21
27851.5
 31
0.0
  0
TEXT
  5
B2
330
17
100
AcDbEntity
  8
COTA
100
AcDbText
 10
129447.2
 20
27886.5
 30
0.0
 40
4.0
  1
70
100
AcDbText
  0
LINE
  5
B3
330
17
100
AcDbEntity
  8
COTA
100
AcDbLine
 10
129532.8
 20
28093.9
 30
0.0
 11
129532.8
 21
28163.9
 31
0.0
  0
LINE
  5
B4
330
17
100
AcDbEntity
  8
COTA
100
AcDbLine
 10
129546.6
 20
28163.9
 30
0.0
 11
129527.8
 21
28163.9
 31
0.0
  0
LINE
  5
B5
330
17
100
AcDbEntity
  8
COTA
100
AcDbLine
 10
129546.6
 20
28093.9
 30
0.0
 11
129527.8
 21
28093.9
 31
0.0
  0
TEXT
  5
B6
330
17
100
AcDbEntity
  8
COTA
100
AcDbText
 10
129524.7
 20
28128.9
 30
0.0
 40
4.0
  1
70
100
AcDbText
  0
LINE
  5
B7
330
17
100
AcDbEntity
  8
COTA
100
AcDbLine
 10
130207.3
 20
28093.9
 30
0.0
 11
130207.3
 21
28177.9
 31
0.0
  0
LINE
  5
B8
330
17
100
AcDbEntity
  8
COTA
100
AcDbLine
 10
130153.6
 20
28093.9
 30
0.0
 11
130212.3
 21
28093.9
 31
0.0
  0
LINE
  5
B9
330
17
100
AcDbEntity
  8
COTA
100
AcDbLine
 10
130153.6
 20
28177.9
 30
0.0
 11
130212.3
 21
28177.9
 31
0.0
  0
TEXT
  5
BA
330
17
100
AcDbEntity
  8
COTA
100
AcDbText
 10
130199.2
 20
28135.9
 30
0.0
 40
4.0
  1
84
100
AcDbText
  0
LINE
  5
BB
330
17
100
AcDbEntity
  8
COTA
100
AcDbLine
 10
129532.8
 20
28163.9
 30
0.0
 11
129532.8
 21
28177.9
 31
0.0
  0
LINE
  5
BC
330
17
100
AcDbEntity
  8
COTA
100
AcDbLine
 10
129546.6
 20
28163.9
 30
0.0
 11
129527.8
 21
28163.9
 31
0.0
  0
LINE
  5
BD
330
17
100
AcDbEntity
  8
COTA
100
AcDbLine
 10
129546.6
 20
28177.9
 30
0.0
 11
129527.8
 21
28177.9
 31
0.0
  0
TEXT
  5
BE
330
17
100
AcDbEntity
  8
COTA
100
AcDbText
 10
129524.7
 20
28188.9
 30
0.0
 40
4.0
  1
14
100
AcDbText
  0
LINE
  5
BF
330
17
100
AcDbEntity
  8
COTA
100
AcDbLine
 10
129455.3
 20
27921.5
 30
0.0
 11
129455.3
 21
27935.5
 31
0.0
  0
LINE
  5
C0
330
17
100
AcDbEntity
  8
COTA
100
AcDbLine
 10
129467.4
 20
27921.5
 30
0.0
 11
129450.3
 21
27921.5
 31
0.0
  0
LINE
  5
C1
330
17
100
AcDbEntity
  8
COTA
100
AcDbLine
 10
129467.4
 20
27935.5
 30
0.0
 11
129450.3
 21
27935.5
 31
0.0
  0
TEXT
  5
C2
330
17
100
AcDbEntity
  8
COTA
100
AcDbText
 10
129447.2
 20
27946.6
 30
0.0
 40
4.0
  1
14
100
AcDbText
  0
LINE
  5
C3
330
17
100
AcDbEntity
  8
COTA
100
AcDbLine
 10
129624.4
 20
27851.5
 30
0.0
 11
129624.4
 21
27921.5
 31
0.0
  0
LINE
  5
C4
330
17
100
AcDbEntity
  8
COTA
100
AcDbLine
 10
129574.9
 20
27851.5
 30
0.0
 11
129629.4
 21
27851.5
 31
0.0
  0
LINE
  5
C5
330
17
100
AcDbEntity
  8
COTA
100
AcDbLine
 10
129574.9
 20
27921.5
 30
0.0
 11
129629.4
 21
27921.5
 31
0.0
  0
TEXT
  5
C6
330
17
100
AcDbEntity
  8
COTA
100
AcDbText
 10
129616.3
 20
27886.5
 30
0.0
 40
4.0
  1
70
100
AcDbText
  0
LINE
  5
C7
330
17
100
AcDbEntity
  8
COTA
100
AcDbLine
 10
129624.4
 20
27921.5
 30
0.0
 11
129624.4
 21
27935.5
 31
0.0
  0
LINE
  5
C8
330
17
100
AcDbEntity
  8
COTA
100
AcDbLine
 10
129574.9
 20
27921.5
 30
0.0
 11
129629.4
 21
27921.5
 31
0.0
  0
LINE
  5
C9
330
17
100
AcDbEntity
  8
COTA
100
AcDbLine
 10
129574.9
 20
27935.5
 30
0.0
 11
129629.4
 21
27935.5
 31
0.0
  0
TEXT
  5
CA
330
17
100
AcDbEntity
  8
COTA
100
AcDbText
 10
129624.4
 20
27928.5
 30
0.0
 40
4.0
  1
14
100
AcDbText
  0
LINE
  5
CB
330
17
100
AcDbEntity
  8
COTA
100
AcDbLine
 10
129600.6
 20
27851.5
 30
0.0
 11
129600.6
 21
27881.5
 31
0.0
  0
LINE
  5
CC
330
17
100
AcDbEntity
  8
COTA
100
AcDbLine
 10
129574.9
 20
27851.5
 30
0.0
 11
129605.6
 21
27851.5
 31
0.0
  0
LINE
  5
CD
330
17
100
AcDbEntity
  8
COTA
100
AcDbLine
 10
129574.9
 20
27881.5
 30
0.0
 11
129605.6
 21
27881.5
 31
0.0
  0
TEXT
  5
CE
330
17
100
AcDbEntity
  8
COTA
100
AcDbText
 10
129592.3
 20
27866.5
 30
0.0
 40
4.0
  1
30
100
AcDbText
  0
LINE
  5
CF
330
17
100
AcDbEntity
  8
COTA
100
AcDbLine
 10
129600.6
 20
27881.5
 30
0.0
 11
129600.6
 21
27921.5
 31
0.0
  0
LINE
  5
D0
330
17
100
AcDbEntity
  8
COTA
100
AcDbLine
 10
129574.9
 20
27881.5
 30
0.0
 11
129605.6
 21
27881.5
 31
0.0
  0
LINE
  5
D1
330
17
100
AcDbEntity
  8
COTA
100
AcDbLine
 10
129574.9
 20
27921.5
 30
0.0
 11
129605.6
 21
27921.5
 31
0.0
  0
TEXT
  5
D2
330
17
100
AcDbEntity
  8
COTA
100
AcDbText
 10
129592.5
 20
27901.5
 30
0.0
 40
4.0
  1
40
100
AcDbText
  0
LINE
  5
D3
330
17
100
AcDbEntity
  8
COTA
100
AcDbLine
 10
129560.1
 20
28093.9
 30
0.0
 11
129560.1
 21
28123.9
 31
0.0
  0
LINE
  5
D4
330
17
100
AcDbEntity
  8
COTA
100
AcDbLine
 10
129547.4
 20
28123.9
 30
0.0
 11
129565.1
 21
28123.9
 31
0.0
  0
LINE
  5
D5
330
17
100
AcDbEntity
  8
COTA
100
AcDbLine
 10
129547.4
 20
28093.9
 30
0.0
 11
129565.1
 21
28093.9
 31
0.0
  0
TEXT
  5
D6
330
17
100
AcDbEntity
  8
COTA
100
AcDbText
 10
129551.9
 20
28108.9
 30
0.0
 40
4.0
  1
30
100
AcDbText
  0
LINE
  5
D7
330
17
100
AcDbEntity
  8
COTA
100
AcDbLine
 10
129934.1
 20
28093.9
 30
0.0
 11
129934.1
 21
28123.9
 31
0.0
  0
LINE
  5
D8
330
17
100
AcDbEntity
  8
COTA
100
AcDbLine
 10
129943.6
 20
28093.9
 30
0.0
 11
129929.1
 21
28093.9
 31
0.0
  0
LINE
  5
D9
330
17
100
AcDbEntity
  8
COTA
100
AcDbLine
 10
129943.6
 20
28123.9
 30
0.0
 11
129929.1
 21
28123.9
 31
0.0
  0
TEXT
  5
DA
330
17
100
AcDbEntity
  8
COTA
100
AcDbText
 10
129925.9
 20
28108.9
 30
0.0
 40
4.0
  1
30
100
AcDbText
  0
LINE
  5
DB
330
17
100
AcDbEntity
  8
COTA
100
AcDbLine
 10
129934.1
 20
28123.9
 30
0.0
 11
129934.1
 21
28163.9
 31
0.0
  0
LINE
  5
DC
330
17
100
AcDbEntity
  8
COTA
100
AcDbLine
 10
129943.6
 20
28123.9
 30
0.0
 11
129929.1
 21
28123.9
 31
0.0
  0
LINE
  5
DD
330
17
100
AcDbEntity
  8
COTA
100
AcDbLine
 10
129943.6
 20
28163.9
 30
0.0
 11
129929.1
 21
28163.9
 31
0.0
  0
TEXT
  5
DE
330
17
100
AcDbEntity
  8
COTA
100
AcDbText
 10
129926.0
 20
28143.9
 30
0.0
 40
4.0
  1
40
100
AcDbText
  0
LINE
  5
DF
330
17
100
AcDbEntity
  8
COTA
100
AcDbLine
 10
130181.6
 20
28093.9
 30
0.0
 11
130181.6
 21
28123.9
 31
0.0
  0
LINE
  5
E0
330
17
100
AcDbEntity
  8
COTA
100
AcDbLine
 10
130153.6
 20
28093.9
 30
0.0
 11
130186.6
 21
28093.9
 31
0.0
  0
LINE
  5
E1
330
17
100
AcDbEntity
  8
COTA
100
AcDbLine
 10
130153.6
 20
28123.9
 30
0.0
 11
130186.6
 21
28123.9
 31
0.0
  0
TEXT
  5
E2
330
17
100
AcDbEntity
  8
COTA
100
AcDbText
 10
130173.4
 20
28108.9
 30
0.0
 40
4.0
  1
30
100
AcDbText
  0
LINE
  5
E3
330
17
100
AcDbEntity
  8
COTA
100
AcDbLine
 10
130181.6
 20
28123.9
 30
0.0
 11
130181.6
 21
28177.9
 31
0.0
  0
LINE
  5
E4
330
17
100
AcDbEntity
  8
COTA
100
AcDbLine
 10
130153.6
 20
28123.9
 30
0.0
 11
130186.6
 21
28123.9
 31
0.0
  0
LINE
  5
E5
330
17
100
AcDbEntity
  8
COTA
100
AcDbLine
 10
130153.6
 20
28177.9
 30
0.0
 11
130186.6
 21
28177.9
 31
0.0
  0
TEXT
  5
E6
330
17
100
AcDbEntity
  8
COTA
100
AcDbText
 10
130173.5
 20
28150.9
 30
0.0
 40
4.0
  1
54
100
AcDbText
  0
LINE
  5
E7
330
17
100
AcDbEntity
  8
COTA
100
AcDbLine
 10
130792.5
 20
28108.7
 30
0.0
 11
130792.5
 21
28132.7
 31
0.0
  0
LINE
  5
E8
330
17
100
AcDbEntity
  8
COTA
100
AcDbLine
 10
130835.8
 20
28132.7
 30
0.0
 11
130787.5
 21
28132.7
 31
0.0
  0
LINE
  5
E9
330
17
100
AcDbEntity
  8
COTA
100
AcDbLine
 10
130835.8
 20
28108.7
 30
0.0
 11
130787.5
 21
28108.7
 31
0.0
  0
TEXT
  5
EA
330
17
100
AcDbEntity
  8
COTA
100
AcDbText
 10
130787.0
 20
28120.7
 30
0.0
 40
4.0
  1
12
100
AcDbText
  0
LINE
  5
EB
330
17
100
AcDbEntity
  8
COTA
100
AcDbLine
 10
130792.5
 20
27964.7
 30
0.0
 11
130792.5
 21
28104.7
 31
0.0
  0
LINE
  5
EC
330
17
100
AcDbEntity
  8
COTA
100
AcDbLine
 10
130857.8
 20
27964.7
 30
0.0
 11
130787.5
 21
27964.7
 31
0.0
  0
LINE
  5
ED
330
17
100
AcDbEntity
  8
COTA
100
AcDbLine
 10
130835.8
 20
28104.7
 30
0.0
 11
130787.5
 21
28104.7
 31
0.0
  0
TEXT
  5
EE
330
17
100
AcDbEntity
  8
COTA
100
AcDbText
 10
130787.0
 20
28034.7
 30
0.0
 40
4.0
  1
70
100
AcDbText
  0
LINE
  5
EF
330
17
100
AcDbEntity
  8
Cota Seção (2x)
100
AcDbLine
 10
130933.8
 20
27972.7
 30
0.0
 11
130933.8
 21
28132.7
 31
0.0
  0
LINE
  5
F0
330
17
100
AcDbEntity
  8
Cota Seção (2x)
100
AcDbLine
 10
130895.8
 20
27972.7
 30
0.0
 11
130938.8
 21
27972.7
 31
0.0
  0
LINE
  5
F1
330
17
100
AcDbEntity
  8
Cota Seção (2x)
100
AcDbLine
 10
130895.8
 20
28132.7
 30
0.0
 11
130938.8
 21
28132.7
 31
0.0
  0
TEXT
  5
F2
330
17
100
AcDbEntity
  8
Cota Seção (2x)
100
AcDbText
 10
130933.8
 20
28039.2
 30
0.0
 40
4.0
  1
80
100
AcDbText
  0
LINE
  5
F3
330
17
100
AcDbEntity
  8
COTA
100
AcDbLine
 10
131028.3
 20
27964.7
 30
0.0
 11
131028.3
 21
28132.7
 31
0.0
  0
LINE
  5
F4
330
17
100
AcDbEntity
  8
COTA
100
AcDbLine
 10
130951.8
 20
28132.7
 30
0.0
 11
131033.3
 21
28132.7
 31
0.0
  0
LINE
  5
F5
330
17
100
AcDbEntity
  8
COTA
100
AcDbLine
 10
130971.8
 20
27964.7
 30
0.0
 11
131033.3
 21
27964.7
 31
0.0
  0
TEXT
  5
F6
330
17
100
AcDbEntity
  8
COTA
100
AcDbText
 10
131022.8
 20
28048.7
 30
0.0
 40
4.0
  1
84
100
AcDbText
  0
LINE
  5
F7
330
17
100
AcDbEntity
  8
COTA
100
AcDbLine
 10
130830.3
 20
27964.7
 30
0.0
 11
130830.3
 21
28014.7
 31
0.0
  0
LINE
  5
F8
330
17
100
AcDbEntity
  8
COTA
100
AcDbLine
 10
130842.8
 20
28014.7
 30
0.0
 11
130825.3
 21
28014.7
 31
0.0
  0
LINE
  5
F9
330
17
100
AcDbEntity
  8
COTA
100
AcDbLine
 10
130842.8
 20
27964.7
 30
0.0
 11
130825.3
 21
27964.7
 31
0.0
  0
TEXT
  5
FA
330
17
100
AcDbEntity
  8
COTA
100
AcDbText
 10
130824.8
 20
27989.7
 30
0.0
 40
4.0
  1
25
100
AcDbText
  0
LINE
  5
FB
330
17
100
AcDbEntity
  8
Cota Seção (2x)
100
AcDbLine
 10
130895.8
 20
27984.6
 30
0.0
 11
130933.8
 21
27984.6
 31
0.0
  0
LINE
  5
FC
330
17
100
AcDbEntity
  8
Cota Seção (2x)
100
AcDbLine
 10
130933.8
 20
27972.7
 30
0.0
 11
130933.8
 21
27989.6
 31
0.0
  0
LINE
  5
FD
330
17
100
AcDbEntity
  8
Cota Seção (2x)
100
AcDbLine
 10
130895.8
 20
27972.7
 30
0.0
 11
130895.8
 21
27989.6
 31
0.0
  0
TEXT
  5
FE
330
17
100
AcDbEntity
  8
Cota Seção (2x)
100
AcDbText
 10
130914.8
 20
27984.6
 30
0.0
 40
4.0
  1
19
100
AcDbText
  0
LINE
  5
FF
330
17
100
AcDbEntity
  8
COTA
100
AcDbLine
 10
130866.1
 20
27795.5
 30
0.0
 11
130904.1
 21
27795.5
 31
0.0
  0
LINE
  5
100
330
17
100
AcDbEntity
  8
COTA
100
AcDbLine
 10
130866.1
 20
27829.0
 30
0.0
 11
130866.1
 21
27790.5
 31
0.0
  0
LINE
  5
101
330
17
100
AcDbEntity
  8
COTA
100
AcDbLine
 10
130904.1
 20
27829.0
 30
0.0
 11
130904.1
 21
27790.5
 31
0.0
  0
TEXT
  5
102
330
17
100
AcDbEntity
  8
COTA
100
AcDbText
 10
130885.1
 20
27803.8
 30
0.0
 40
4.0
  1
38
100
AcDbText
  0
LINE
  5
103
330
17
100
AcDbEntity
  8
COTA
100
AcDbLine
 10
130934.2
 20
27829.0
 30
0.0
 11
130934.2
 21
27899.0
 31
0.0
  0
LINE
  5
104
330
17
100
AcDbEntity
  8
COTA
100
AcDbLine
 10
130904.1
 20
27829.0
 30
0.0
 11
130939.2
 21
27829.0
 31
0.0
  0
LINE
  5
105
330
17
100
AcDbEntity
  8
COTA
100
AcDbLine
 10
130904.1
 20
27899.0
 30
0.0
 11
130939.2
 21
27899.0
 31
0.0
  0
TEXT
  5
106
330
17
100
AcDbEntity
  8
COTA
100
AcDbText
 10
130926.1
 20
27864.0
 30
0.0
 40
4.0
  1
70
100
AcDbText
  0
LINE
  5
107
330
17
100
AcDbEntity
  8
COTA
100
AcDbLine
 10
130934.2
 20
27899.0
 30
0.0
 11
130934.2
 21
27913.0
 31
0.0
  0
LINE
  5
108
330
17
100
AcDbEntity
  8
COTA
100
AcDbLine
 10
130904.1
 20
27899.0
 30
0.0
 11
130939.2
 21
27899.0
 31
0.0
  0
LINE
  5
109
330
17
100
AcDbEntity
  8
COTA
100
AcDbLine
 10
130904.1
 20
27913.0
 30
0.0
 11
130939.2
 21
27913.0
 31
0.0
  0
TEXT
  5
10A
330
17
100
AcDbEntity
  8
COTA
100
AcDbText
 10
130934.2
 20
27906.0
 30
0.0
 40
4.0
  1
14
100
AcDbText
  0
LINE
  5
10B
330
17
100
AcDbEntity
  8
COTA
100
AcDbLine
 10
130866.1
 20
27607.9
 30
0.0
 11
130904.1
 21
27607.9
 31
0.0
  0
LINE
  5
10C
330
17
100
AcDbEntity
  8
COTA
100
AcDbLine
 10
130866.1
 20
27641.3
 30
0.0
 11
130866.1
 21
27602.9
 31
0.0
  0
LINE
  5
10D
330
17
100
AcDbEntity
  8
COTA
100
AcDbLine
 10
130904.1
 20
27641.3
 30
0.0
 11
130904.1
 21
27602.9
 31
0.0
  0
TEXT
  5
10E
330
17
100
AcDbEntity
  8
COTA
100
AcDbText
 10
130885.1
 20
27616.1
 30
0.0
 40
4.0
  1
38
100
AcDbText
  0
LINE
  5
10F
330
17
100
AcDbEntity
  8
COTA
100
AcDbLine
 10
130934.2
 20
27641.3
 30
0.0
 11
130934.2
 21
27725.3
 31
0.0
  0
LINE
  5
110
330
17
100
AcDbEntity
  8
COTA
100
AcDbLine
 10
130904.1
 20
27641.3
 30
0.0
 11
130939.2
 21
27641.3
 31
0.0
  0
LINE
  5
111
330
17
100
AcDbEntity
  8
COTA
100
AcDbLine
 10
130904.1
 20
27725.3
 30
0.0
 11
130939.2
 21
27725.3
 31
0.0
  0
TEXT
  5
112
330
17
100
AcDbEntity
  8
COTA
100
AcDbText
 10
130926.1
 20
27683.3
 30
0.0
 40
4.0
  1
84
100
AcDbText
  0
LINE
  5
113
330
17
100
AcDbEntity
  8
COTA
100
AcDbLine
 10
130830.3
 20
28014.7
 30
0.0
 11
130830.3
 21
28064.7
 31
0.0
  0
LINE
  5
114
330
17
100
AcDbEntity
  8
COTA
100
AcDbLine
 10
130842.8
 20
28064.7
 30
0.0
 11
130825.3
 21
28064.7
 31
0.0
  0
LINE
  5
115
330
17
100
AcDbEntity
  8
COTA
100
AcDbLine
 10
130842.8
 20
28014.7
 30
0.0
 11
130825.3
 21
28014.7
 31
0.0
  0
TEXT
  5
116
330
17
100
AcDbEntity
  8
COTA
100
AcDbText
 10
130824.8
 20
28039.7
 30
0.0
 40
4.0
  1
25
100
AcDbText
  0
LINE
  5
117
330
17
100
AcDbEntity
  8
COTA
100
AcDbLine
 10
129196.8
 20
28093.9
 30
0.0
 11
129196.8
 21
28163.9
 31
0.0
  0
LINE
  5
118
330
17
100
AcDbEntity
  8
COTA
100
AcDbLine
 10
129212.4
 20
28093.9
 30
0.0
 11
129191.8
 21
28093.9
 31
0.0
  0
LINE
  5
119
330
17
100
AcDbEntity
  8
COTA
100
AcDbLine
 10
129212.4
 20
28163.9
 30
0.0
 11
129191.8
 21
28163.9
 31
0.0
  0
TEXT
  5
11A
330
17
100
AcDbEntity
  8
COTA
100
AcDbText
 10
129188.7
 20
28128.9
 30
0.0
 40
4.0
  1
70
100
AcDbText
  0
LINE
  5
11B
330
17
100
AcDbEntity
  8
COTA
100
AcDbLine
 10
129196.8
 20
28163.9
 30
0.0
 11
129196.8
 21
28175.9
 31
0.0
  0
LINE
  5
11C
330
17
100
AcDbEntity
  8
COTA
100
AcDbLine
 10
129212.4
 20
28163.9
 30
0.0
 11
129191.8
 21
28163.9
 31
0.0
  0
LINE
  5
11D
330
17
100
AcDbEntity
  8
COTA
100
AcDbLine
 10
129212.4
 20
28175.9
 30
0.0
 11
129191.8
 21
28175.9
 31
0.0
  0
TEXT
  5
11E
330
17
100
AcDbEntity
  8
COTA
100
AcDbText
 10
129196.8
 20
28169.9
 30
0.0
 40
4.0
  1
12
100
AcDbText
  0
LINE
  5
11F
330
17
100
AcDbEntity
  8
COTA
100
AcDbLine
 10
129196.8
 20
28175.9
 30
0.0
 11
129196.8
 21
28177.9
 31
0.0
  0
LINE
  5
120
330
17
100
AcDbEntity
  8
COTA
100
AcDbLine
 10
129212.4
 20
28175.9
 30
0.0
 11
129191.8
 21
28175.9
 31
0.0
  0
LINE
  5
121
330
17
100
AcDbEntity
  8
COTA
100
AcDbLine
 10
129212.4
 20
28177.9
 30
0.0
 11
129191.8
 21
28177.9
 31
0.0
  0
TEXT
  5
122
330
17
100
AcDbEntity
  8
COTA
100
AcDbText
 10
129176.3
 20
28183.6
 30
0.0
 40
4.0
  1
2
100
AcDbText
  0
LINE
  5
123
330
17
100
AcDbEntity
  8
COTA
100
AcDbLine
 10
129574.2
 20
27026.7
 30
0.0
 11
129574.2
 21
27050.7
 31
0.0
  0
LINE
  5
124
330
17
100
AcDbEntity
  8
COTA
100
AcDbLine
 10
129617.6
 20
27050.7
 30
0.0
 11
129569.2
 21
27050.7
 31
0.0
  0
LINE
  5
125
330
17
100
AcDbEntity
  8
COTA
100
AcDbLine
 10
129617.6
 20
27026.7
 30
0.0
 11
129569.2
 21
27026.7
 31
0.0
  0
TEXT
  5
126
330
17
100
AcDbEntity
  8
COTA
100
AcDbText
 10
129568.7
 20
27038.7
 30
0.0
 40
4.0
  1
12
100
AcDbText
  0
LINE
  5
127
330
17
100
AcDbEntity
  8
Cota Seção (2x)
100
AcDbLine
 10
129715.6
 20
26890.7
 30
0.0
 11
129715.6
 21
27050.7
 31
0.0
  0
LINE
  5
128
330
17
100
AcDbEntity
  8
Cota Seção (2x)
100
AcDbLine
 10
129677.6
 20
26890.7
 30
0.0
 11
129720.6
 21
26890.7
 31
0.0
  0
LINE
  5
129
330
17
100
AcDbEntity
  8
Cota Seção (2x)
100
AcDbLine
 10
129677.6
 20
27050.7
 30
0.0
 11
129720.6
 21
27050.7
 31
0.0
  0
TEXT
  5
12A
330
17
100
AcDbEntity
  8
Cota Seção (2x)
100
AcDbText
 10
129715.6
 20
26943.2
 30
0.0
 40
4.0
  1
80
100
AcDbText
  0
LINE
  5
12B
330
17
100
AcDbEntity
  8
COTA
100
AcDbLine
 10
129810.1
 20
27026.7
 30
0.0
 11
129810.1
 21
27050.7
 31
0.0
  0
LINE
  5
12C
330
17
100
AcDbEntity
  8
COTA
100
AcDbLine
 10
129775.6
 20
27050.7
 30
0.0
 11
129815.1
 21
27050.7
 31
0.0
  0
LINE
  5
12D
330
17
100
AcDbEntity
  8
COTA
100
AcDbLine
 10
129775.6
 20
27026.7
 30
0.0
 11
129815.1
 21
27026.7
 31
0.0
  0
TEXT
  5
12E
330
17
100
AcDbEntity
  8
COTA
100
AcDbText
 10
129804.6
 20
27038.7
 30
0.0
 40
4.0
  1
12
100
AcDbText
  0
LINE
  5
12F
330
17
100
AcDbEntity
  8
SARR_2.2x7
100
AcDbLine
 10
129212.4
 20
28161.7
 30
0.0
 11
129324.4
 21
28161.7
 31
0.0
  0
LINE
  5
130
330
17
100
AcDbEntity
  8
SARR_2.2x7
100
AcDbLine
 10
129219.4
 20
28093.9
 30
0.0
 11
129219.4
 21
28163.9
 31
0.0
  0
LINE
  5
131
330
17
100
AcDbEntity
  8
SARR_2.2x7
100
AcDbLine
 10
129332.4
 20
28093.9
 30
0.0
 11
129332.4
 21
28163.9
 31
0.0
  0
LINE
  5
132
330
17
100
AcDbEntity
  8
SARR_2.2x7
100
AcDbLine
 10
129368.6
 20
28161.7
 30
0.0
 11
129601.6
 21
28161.7
 31
0.0
  0
LINE
  5
133
330
17
100
AcDbEntity
  8
SARR_2.2x7
100
AcDbLine
 10
129601.6
 20
28161.7
 30
0.0
 11
129718.6
 21
28161.7
 31
0.0
  0
LINE
  5
134
330
17
100
AcDbEntity
  8
SARR_2.2x7
100
AcDbLine
 10
129726.6
 20
28093.9
 30
0.0
 11
129726.6
 21
28163.9
 31
0.0
  0
LINE
  5
135
330
17
100
AcDbEntity
  8
SARR_2.2x7
100
AcDbLine
 10
129765.4
 20
28093.9
 30
0.0
 11
129765.4
 21
28163.9
 31
0.0
  0
LINE
  5
136
330
17
100
AcDbEntity
  8
SARR_2.2x7
100
AcDbLine
 10
129789.4
 20
28093.9
 30
0.0
 11
129789.4
 21
28163.9
 31
0.0
  0
LINE
  5
137
330
17
100
AcDbEntity
  8
SARR_2.2x7
100
AcDbLine
 10
129836.6
 20
28161.7
 30
0.0
 11
129943.6
 21
28161.7
 31
0.0
  0
LINE
  5
138
330
17
100
AcDbEntity
  8
SARR_2.2x7
100
AcDbLine
 10
129943.6
 20
28161.7
 30
0.0
 11
130009.6
 21
28161.7
 31
0.0
  0
LINE
  5
139
330
17
100
AcDbEntity
  8
SARR_2.2x7
100
AcDbLine
 10
129828.6
 20
28093.9
 30
0.0
 11
129828.6
 21
28163.9
 31
0.0
  0
LINE
  5
13A
330
17
100
AcDbEntity
  8
SARR_2.2x7
100
AcDbLine
 10
130017.6
 20
28093.9
 30
0.0
 11
130017.6
 21
28163.9
 31
0.0
  0
LINE
  5
13B
330
17
100
AcDbEntity
  8
SARR_2.2x7
100
AcDbLine
 10
130055.1
 20
28175.7
 30
0.0
 11
130146.1
 21
28175.7
 31
0.0
  0
LINE
  5
13C
330
17
100
AcDbEntity
  8
SARR_2.2x7
100
AcDbLine
 10
130047.1
 20
28093.9
 30
0.0
 11
130047.1
 21
28177.9
 31
0.0
  0
LINE
  5
13D
330
17
100
AcDbEntity
  8
SARR_2.2x7
100
AcDbLine
 10
129238.4
 20
27919.3
 30
0.0
 11
129467.4
 21
27919.3
 31
0.0
  0
LINE
  5
13E
330
17
100
AcDbEntity
  8
SARR_2.2x7
100
AcDbLine
 10
129467.4
 20
27919.3
 30
0.0
 11
129567.4
 21
27919.3
 31
0.0
  0
LINE
  5
13F
330
17
100
AcDbEntity
  8
SARR_2.2x7
100
AcDbLine
 10
129230.4
 20
27851.5
 30
0.0
 11
129230.4
 21
27921.5
 31
0.0
  0
LINE
  5
140
330
17
100
AcDbEntity
  8
SARR_2.2x7
100
AcDbLine
 10
129361.1
 20
28156.9
 30
0.0
 11
129368.6
 21
28156.9
 31
0.0
  0
LINE
  5
141
330
17
100
AcDbEntity
  8
SARR_2.2x7
100
AcDbLine
 10
130146.1
 20
28170.9
 30
0.0
 11
130153.6
 21
28170.9
 31
0.0
  0
LINE
  5
142
330
17
100
AcDbEntity
  8
SARR_2.2x7
100
AcDbLine
 10
129567.4
 20
27914.5
 30
0.0
 11
129574.9
 21
27914.5
 31
0.0
  0
LINE
  5
143
330
17
100
AcDbEntity
  8
SARR_2.2x7
100
AcDbLine
 10
129219.4
 20
28175.9
 30
0.0
 11
129219.4
 21
28177.9
 31
0.0
  0
LINE
  5
144
330
17
100
AcDbEntity
  8
SARR_2.2x7
100
AcDbLine
 10
130873.1
 20
27829.0
 30
0.0
 11
130873.1
 21
27899.0
 31
0.0
  0
LINE
  5
145
330
17
100
AcDbEntity
  8
SARR_2.2x7
100
AcDbLine
 10
130897.1
 20
27829.0
 30
0.0
 11
130897.1
 21
27899.0
 31
0.0
  0
LINE
  5
146
330
17
100
AcDbEntity
  8
SARR_2.2x7
100
AcDbLine
 10
130873.1
 20
27641.3
 30
0.0
 11
130873.1
 21
27725.3
 31
0.0
  0
LINE
  5
147
330
17
100
AcDbEntity
  8
SARR_2.2x7
100
AcDbLine
 10
130897.1
 20
27641.3
 30
0.0
 11
130897.1
 21
27725.3
 31
0.0
  0
ENDSEC
  0
SECTION
  2
OBJECTS
  0
DICTIONARY
  5
A
330
0
100
AcDbDictionary
281
1
  3
ACAD_COLOR
350
B
  3
ACAD_GROUP
350
C
  3
ACAD_LAYOUT
350
D
  3
ACAD_MATERIAL
350
E
  3
ACAD_MLEADERSTYLE
350
F
  3
ACAD_MLINESTYLE
350
10
  3
ACAD_PLOTSETTINGS
350
11
  3
ACAD_PLOTSTYLENAME
350
12
  3
ACAD_SCALELIST
350
14
  3
ACAD_TABLESTYLE
350
15
  3
ACAD_VISUALSTYLE
350
16
  3
EZDXF_META
350
2D
  0
DICTIONARY
  5
B
330
A
100
AcDbDictionary
281
1
  0
DICTIONARY
  5
C
330
A
100
AcDbDictionary
281
1
  0
DICTIONARY
  5
D
330
A
100
AcDbDictionary
281
1
  3
Model
350
1A
  3
Layout1
350
1E
  0
DICTIONARY
  5
E
330
A
100
AcDbDictionary
281
1
  3
ByBlock
350
1F
  3
ByLayer
350
20
  3
Global
350
21
  0
DICTIONARY
  5
F
330
A
100
AcDbDictionary
281
1
  3
Standard
350
2C
  0
DICTIONARY
  5
10
330
A
100
AcDbDictionary
281
1
  3
Standard
350
22
  0
DICTIONARY
  5
11
330
A
100
AcDbDictionary
281
1
  0
ACDBDICTIONARYWDFLT
  5
12
330
A
100
AcDbDictionary
281
1
  3
Normal
350
13
100
AcDbDictionaryWithDefault
340
13
  0
ACDBPLACEHOLDER
  5
13
330
12
  0
DICTIONARY
  5
14
330
A
100
AcDbDictionary
281
1
  0
DICTIONARY
  5
15
330
A
100
AcDbDictionary
281
1
  0
DICTIONARY
  5
16
330
A
100
AcDbDictionary
281
1
  0
LAYOUT
  5
1A
330
D
100
AcDbPlotSettings
  1

  4
A3
  6

 40
7.5
 41
20.0
 42
7.5
 43
20.0
 44
420.0
 45
297.0
 46
0.0
 47
0.0
 48
0.0
 49
0.0
140
0.0
141
0.0
142
1.0
143
1.0
 70
1024
 72
1
 73
0
 74
5
  7

 75
16
 76
0
 77
2
 78
300
147
1.0
148
0.0
149
0.0
100
AcDbLayout
  1
Model
 70
1
 71
0
 10
0.0
 20
0.0
 11
420.0
 21
297.0
 12
0.0
 22
0.0
 32
0.0
 14
1e+20
 24
1e+20
 34
1e+20
 15
-1e+20
 25
-1e+20
 35
-1e+20
146
0.0
 13
0.0
 23
0.0
 33
0.0
 16
1.0
 26
0.0
 36
0.0
 17
0.0
 27
1.0
 37
0.0
 76
1
330
17
  0
LAYOUT
  5
1E
330
D
100
AcDbPlotSettings
  1

  4
A3
  6

 40
7.5
 41
20.0
 42
7.5
 43
20.0
 44
420.0
 45
297.0
 46
0.0
 47
0.0
 48
0.0
 49
0.0
140
0.0
141
0.0
142
1.0
143
1.0
 70
0
 72
1
 73
0
 74
5
  7

 75
16
 76
0
 77
2
 78
300
147
1.0
148
0.0
149
0.0
100
AcDbLayout
  1
Layout1
 70
1
 71
1
 10
0.0
 20
0.0
 11
420.0
 21
297.0
 12
0.0
 22
0.0
 32
0.0
 14
1e+20
 24
1e+20
 34
1e+20
 15
-1e+20
 25
-1e+20
 35
-1e+20
146
0.0
 13
0.0
 23
0.0
 33
0.0
 16
1.0
 26
0.0
 36
0.0
 17
0.0
 27
1.0
 37
0.0
 76
1
330
1B
  0
MATERIAL
  5
1F
102
{ACAD_REACTORS
330
E
102
}
330
E
100
AcDbMaterial
  1
ByBlock
  2

 70
0
 40
1.0
 71
1
 41
1.0
 91
-1023410177
 42
1.0
 72
1
  3

 73
1
 74
1
 75
1
 44
0.5
 73
0
 45
1.0
 46
1.0
 77
1
  4

 78
1
 79
1
170
1
 48
1.0
171
1
  6

172
1
173
1
174
1
140
1.0
141
1.0
175
1
  7

176
1
177
1
178
1
143
1.0
179
1
  8

270
1
271
1
272
1
145
1.0
146
1.0
273
1
  9

274
1
275
1
276
1
 42
1.0
 72
1
  3

 73
1
 74
1
 75
1
 94
63
  0
MATERIAL
  5
20
102
{ACAD_REACTORS
330
E
102
}
330
E
100
AcDbMaterial
  1
ByLayer
  2

 70
0
 40
1.0
 71
1
 41
1.0
 91
-1023410177
 42
1.0
 72
1
  3

 73
1
 74
1
 75
1
 44
0.5
 73
0
 45
1.0
 46
1.0
 77
1
  4

 78
1
 79
1
170
1
 48
1.0
171
1
  6

172
1
173
1
174
1
140
1.0
141
1.0
175
1
  7

176
1
177
1
178
1
143
1.0
179
1
  8

270
1
271
1
272
1
145
1.0
146
1.0
273
1
  9

274
1
275
1
276
1
 42
1.0
 72
1
  3

 73
1
 74
1
 75
1
 94
63
  0
MATERIAL
  5
21
102
{ACAD_REACTORS
330
E
102
}
330
E
100
AcDbMaterial
  1
Global
  2

 70
0
 40
1.0
 71
1
 41
1.0
 91
-1023410177
 42
1.0
 72
1
  3

 73
1
 74
1
 75
1
 44
0.5
 73
0
 45
1.0
 46
1.0
 77
1
  4

 78
1
 79
1
170
1
 48
1.0
171
1
  6

172
1
173
1
174
1
140
1.0
141
1.0
175
1
  7

176
1
177
1
178
1
143
1.0
179
1
  8

270
1
271
1
272
1
145
1.0
146
1.0
273
1
  9

274
1
275
1
276
1
 42
1.0
 72
1
  3

 73
1
 74
1
 75
1
 94
63
  0
MLINESTYLE
  5
22
102
{ACAD_REACTORS
330
10
102
}
330
10
100
AcDbMlineStyle
  2
Standard
 70
0
  3

 62
256
 51
90.0
 52
90.0
 71
2
 49
0.5
 62
256
  6
BYLAYER
 49
-0.5
 62
256
  6
BYLAYER
  0
MLEADERSTYLE
  5
2C
102
{ACAD_REACTORS
330
F
102
}
330
F
100
AcDbMLeaderStyle
179
2
170
2
171
1
172
0
 90
2
 40
0.0
 41
0.0
173
1
 91
-1056964608
 92
-2
290
1
 42
2.0
291
1
 43
8.0
  3
Standard
 44
4.0
300

342
29
174
1
175
1
176
0
178
1
 93
-1056964608
 45
4.0
292
0
297
0
 46
4.0
 94
-1056964608
 47
1.0
 49
1.0
140
1.0
294
1
141
0.0
177
0
142
1.0
295
0
296
0
143
3.75
271
0
272
9
273
9
  0
DICTIONARY
  5
2D
330
A
100
AcDbDictionary
280
1
281
1
  3
CREATED_BY_EZDXF
350
2E
  3
WRITTEN_BY_EZDXF
350
14A
  0
DICTIONARYVAR
  5
2E
330
2D
100
DictionaryVariables
280
0
  1
1.4.3 @ 2026-03-12T00:42:52.402382+00:00
  0
DICTIONARYVAR
  5
14A
330
2D
100
DictionaryVariables
280
0
  1
1.4.3 @ 2026-03-12T00:42:52.410828+00:00
  0
ENDSEC
  0
EOF
