  0
SECTION
  2
HEADER
  9
$ACADVER
  1
AC1015
  9
$ACADMAINTVER
 70
6
  9
$DWGCODEPAGE
  3
ANSI_1252
  9
$INSBASE
 10
0.0
 20
0.0
 30
0.0
  9
$EXTMIN
 10
1e+20
 20
1e+20
 30
1e+20
  9
$EXTMAX
 10
-1e+20
 20
-1e+20
 30
-1e+20
  9
$LIMMIN
 10
0.0
 20
0.0
  9
$LIMMAX
 10
420.0
 20
297.0
  9
$ORTHOMODE
 70
0
  9
$REGENMODE
 70
1
  9
$FILLMODE
 70
1
  9
$QTEXTMODE
 70
0
  9
$MIRRTEXT
 70
1
  9
$LTSCALE
 40
1.0
  9
$ATTMODE
 70
1
  9
$TEXTSIZE
 40
2.5
  9
$TRACEWID
 40
1.0
  9
$TEXTSTYLE
  7
Standard
  9
$CLAYER
  8
0
  9
$CELTYPE
  6
ByLayer
  9
$CECOLOR
 62
256
  9
$CELTSCALE
 40
1.0
  9
$DISPSILH
 70
0
  9
$DIMSCALE
 40
1.0
  9
$DIMASZ
 40
2.5
  9
$DIMEXO
 40
0.625
  9
$DIMDLI
 40
3.75
  9
$DIMRND
 40
0.0
  9
$DIMDLE
 40
0.0
  9
$DIMEXE
 40
1.25
  9
$DIMTP
 40
0.0
  9
$DIMTM
 40
0.0
  9
$DIMTXT
 40
2.5
  9
$DIMCEN
 40
2.5
  9
$DIMTSZ
 40
0.0
  9
$DIMTOL
 70
0
  9
$DIMLIM
 70
0
  9
$DIMTIH
 70
0
  9
$DIMTOH
 70
0
  9
$DIMSE1
 70
0
  9
$DIMSE2
 70
0
  9
$DIMTAD
 70
1
  9
$DIMZIN
 70
8
  9
$DIMBLK
  1

  9
$DIMASO
 70
1
  9
$DIMSHO
 70
1
  9
$DIMPOST
  1

  9
$DIMAPOST
  1

  9
$DIMALT
 70
0
  9
$DIMALTD
 70
3
  9
$DIMALTF
 40
0.03937007874
  9
$DIMLFAC
 40
1.0
  9
$DIMTOFL
 70
1
  9
$DIMTVP
 40
0.0
  9
$DIMTIX
 70
0
  9
$DIMSOXD
 70
0
  9
$DIMSAH
 70
0
  9
$DIMBLK1
  1

  9
$DIMBLK2
  1

  9
$DIMSTYLE
  2
ISO-25
  9
$DIMCLRD
 70
0
  9
$DIMCLRE
 70
0
  9
$DIMCLRT
 70
0
  9
$DIMTFAC
 40
1.0
  9
$DIMGAP
 40
0.625
  9
$DIMJUST
 70
0
  9
$DIMSD1
 70
0
  9
$DIMSD2
 70
0
  9
$DIMTOLJ
 70
0
  9
$DIMTZIN
 70
8
  9
$DIMALTZ
 70
0
  9
$DIMALTTZ
 70
0
  9
$DIMUPT
 70
0
  9
$DIMDEC
 70
2
  9
$DIMTDEC
 70
2
  9
$DIMALTU
 70
2
  9
$DIMALTTD
 70
3
  9
$DIMTXSTY
  7
Standard
  9
$DIMAUNIT
 70
0
  9
$DIMADEC
 70
0
  9
$DIMALTRND
 40
0.0
  9
$DIMAZIN
 70
0
  9
$DIMDSEP
 70
44
  9
$DIMATFIT
 70
3
  9
$DIMFRAC
 70
0
  9
$DIMLDRBLK
  1

  9
$DIMLUNIT
 70
2
  9
$DIMLWD
 70
-2
  9
$DIMLWE
 70
-2
  9
$DIMTMOVE
 70
0
  9
$LUNITS
 70
2
  9
$LUPREC
 70
4
  9
$SKETCHINC
 40
1.0
  9
$FILLETRAD
 40
10.0
  9
$AUNITS
 70
0
  9
$AUPREC
 70
2
  9
$MENU
  1
.
  9
$ELEVATION
 40
0.0
  9
$PELEVATION
 40
0.0
  9
$THICKNESS
 40
0.0
  9
$LIMCHECK
 70
0
  9
$CHAMFERA
 40
0.0
  9
$CHAMFERB
 40
0.0
  9
$CHAMFERC
 40
0.0
  9
$CHAMFERD
 40
0.0
  9
$SKPOLY
 70
0
  9
$TDCREATE
 40
2461111.904722222
  9
$TDUCREATE
 40
2458532.153996898
  9
$TDUPDATE
 40
2461111.904722222
  9
$TDUUPDATE
 40
2458532.1544311
  9
$TDINDWG
 40
0.0
  9
$TDUSRTIMER
 40
0.0
  9
$USRTIMER
 70
1
  9
$ANGBASE
 50
0.0
  9
$ANGDIR
 70
0
  9
$PDMODE
 70
0
  9
$PDSIZE
 40
0.0
  9
$PLINEWID
 40
0.0
  9
$SPLFRAME
 70
0
  9
$SPLINETYPE
 70
6
  9
$SPLINESEGS
 70
8
  9
$HANDSEED
  5
235
  9
$SURFTAB1
 70
6
  9
$SURFTAB2
 70
6
  9
$SURFTYPE
 70
6
  9
$SURFU
 70
6
  9
$SURFV
 70
6
  9
$UCSBASE
  2

  9
$UCSNAME
  2

  9
$UCSORG
 10
0.0
 20
0.0
 30
0.0
  9
$UCSXDIR
 10
1.0
 20
0.0
 30
0.0
  9
$UCSYDIR
 10
0.0
 20
1.0
 30
0.0
  9
$UCSORTHOREF
  2

  9
$UCSORTHOVIEW
 70
0
  9
$UCSORGTOP
 10
0.0
 20
0.0
 30
0.0
  9
$UCSORGBOTTOM
 10
0.0
 20
0.0
 30
0.0
  9
$UCSORGLEFT
 10
0.0
 20
0.0
 30
0.0
  9
$UCSORGRIGHT
 10
0.0
 20
0.0
 30
0.0
  9
$UCSORGFRONT
 10
0.0
 20
0.0
 30
0.0
  9
$UCSORGBACK
 10
0.0
 20
0.0
 30
0.0
  9
$PUCSBASE
  2

  9
$PUCSNAME
  2

  9
$PUCSORG
 10
0.0
 20
0.0
 30
0.0
  9
$PUCSXDIR
 10
1.0
 20
0.0
 30
0.0
  9
$PUCSYDIR
 10
0.0
 20
1.0
 30
0.0
  9
$PUCSORTHOREF
  2

  9
$PUCSORTHOVIEW
 70
0
  9
$PUCSORGTOP
 10
0.0
 20
0.0
 30
0.0
  9
$PUCSORGBOTTOM
 10
0.0
 20
0.0
 30
0.0
  9
$PUCSORGLEFT
 10
0.0
 20
0.0
 30
0.0
  9
$PUCSORGRIGHT
 10
0.0
 20
0.0
 30
0.0
  9
$PUCSORGFRONT
 10
0.0
 20
0.0
 30
0.0
  9
$PUCSORGBACK
 10
0.0
 20
0.0
 30
0.0
  9
$USERI1
 70
0
  9
$USERI2
 70
0
  9
$USERI3
 70
0
  9
$USERI4
 70
0
  9
$USERI5
 70
0
  9
$USERR1
 40
0.0
  9
$USERR2
 40
0.0
  9
$USERR3
 40
0.0
  9
$USERR4
 40
0.0
  9
$USERR5
 40
0.0
  9
$WORLDVIEW
 70
1
  9
$SHADEDGE
 70
3
  9
$SHADEDIF
 70
70
  9
$TILEMODE
 70
1
  9
$MAXACTVP
 70
64
  9
$PINSBASE
 10
0.0
 20
0.0
 30
0.0
  9
$PLIMCHECK
 70
0
  9
$PEXTMIN
 10
1e+20
 20
1e+20
 30
1e+20
  9
$PEXTMAX
 10
-1e+20
 20
-1e+20
 30
-1e+20
  9
$PLIMMIN
 10
0.0
 20
0.0
  9
$PLIMMAX
 10
420.0
 20
297.0
  9
$UNITMODE
 70
0
  9
$VISRETAIN
 70
1
  9
$PLINEGEN
 70
0
  9
$PSLTSCALE
 70
1
  9
$TREEDEPTH
 70
3020
  9
$CMLSTYLE
  2
Standard
  9
$CMLJUST
 70
0
  9
$CMLSCALE
 40
20.0
  9
$PROXYGRAPHICS
 70
1
  9
$MEASUREMENT
 70
1
  9
$CELWEIGHT
370
-1
  9
$ENDCAPS
280
0
  9
$JOINSTYLE
280
0
  9
$LWDISPLAY
290
0
  9
$INSUNITS
 70
6
  9
$HYPERLINKBASE
  1

  9
$STYLESHEET
  1

  9
$XEDIT
290
1
  9
$CEPSNTYPE
380
0
  9
$PSTYLEMODE
290
1
  9
$FINGERPRINTGUID
  2
{342B259E-8E8E-4330-84B6-AB49C7B920ED}
  9
$VERSIONGUID
  2
{7C4CDFB4-F65A-4FC0-AB16-EB0E5E259B44}
  9
$EXTNAMES
290
1
  9
$PSVPSCALE
 40
0.0
  9
$OLESTARTUP
290
0
  0
ENDSEC
  0
SECTION
  2
CLASSES
  0
CLASS
  1
ACDBDICTIONARYWDFLT
  2
AcDbDictionaryWithDefault
  3
ObjectDBX Classes
 90
0
280
0
281
0
  0
CLASS
  1
SUN
  2
AcDbSun
  3
SCENEOE
 90
1153
280
0
281
0
  0
CLASS
  1
VISUALSTYLE
  2
AcDbVisualStyle
  3
ObjectDBX Classes
 90
4095
280
0
281
0
  0
CLASS
  1
MATERIAL
  2
AcDbMaterial
  3
ObjectDBX Classes
 90
1153
280
0
281
0
  0
CLASS
  1
SCALE
  2
AcDbScale
  3
ObjectDBX Classes
 90
1153
280
0
281
0
  0
CLASS
  1
TABLESTYLE
  2
AcDbTableStyle
  3
ObjectDBX Classes
 90
4095
280
0
281
0
  0
CLASS
  1
MLEADERSTYLE
  2
AcDbMLeaderStyle
  3
ACDB_MLEADERSTYLE_CLASS
 90
4095
280
0
281
0
  0
CLASS
  1
DICTIONARYVAR
  2
AcDbDictionaryVar
  3
ObjectDBX Classes
 90
0
280
0
281
0
  0
CLASS
  1
CELLSTYLEMAP
  2
AcDbCellStyleMap
  3
ObjectDBX Classes
 90
1152
280
0
281
0
  0
CLASS
  1
MENTALRAYRENDERSETTINGS
  2
AcDbMentalRayRenderSettings
  3
SCENEOE
 90
1024
280
0
281
0
  0
CLASS
  1
ACDBDETAILVIEWSTYLE
  2
AcDbDetailViewStyle
  3
ObjectDBX Classes
 90
1025
280
0
281
0
  0
CLASS
  1
ACDBSECTIONVIEWSTYLE
  2
AcDbSectionViewStyle
  3
ObjectDBX Classes
 90
1025
280
0
281
0
  0
CLASS
  1
RASTERVARIABLES
  2
AcDbRasterVariables
  3
ISM
 90
0
280
0
281
0
  0
CLASS
  1
ACDBPLACEHOLDER
  2
AcDbPlaceHolder
  3
ObjectDBX Classes
 90
0
280
0
281
0
  0
CLASS
  1
LAYOUT
  2
AcDbLayout
  3
ObjectDBX Classes
 90
0
280
0
281
0
  0
ENDSEC
  0
SECTION
  2
TABLES
  0
TABLE
  2
VPORT
  5
8
330
0
100
AcDbSymbolTable
 70
1
  0
VPORT
  5
23
330
8
100
AcDbSymbolTableRecord
100
AcDbViewportTableRecord
  2
*Active
 70
0
 10
0.0
 20
0.0
 11
1.0
 21
1.0
 12
0.0
 22
0.0
 13
0.0
 23
0.0
 14
0.5
 24
0.5
 15
0.5
 25
0.5
 16
0.0
 26
0.0
 36
1.0
 17
0.0
 27
0.0
 37
0.0
 40
1000.0
 41
1.34
 42
50.0
 43
0.0
 44
0.0
 50
0.0
 51
0.0
 71
0
 72
1000
 73
1
 74
3
 75
0
 76
0
 77
0
 78
0
281
0
 65
0
146
0.0
  0
ENDTAB
  0
TABLE
  2
LTYPE
  5
2
330
0
100
AcDbSymbolTable
 70
3
  0
LTYPE
  5
24
330
2
100
AcDbSymbolTableRecord
100
AcDbLinetypeTableRecord
  2
ByBlock
 70
0
  3

 72
65
 73
0
 40
0.0
  0
LTYPE
  5
25
330
2
100
AcDbSymbolTableRecord
100
AcDbLinetypeTableRecord
  2
ByLayer
 70
0
  3

 72
65
 73
0
 40
0.0
  0
LTYPE
  5
26
330
2
100
AcDbSymbolTableRecord
100
AcDbLinetypeTableRecord
  2
Continuous
 70
0
  3

 72
65
 73
0
 40
0.0
  0
ENDTAB
  0
TABLE
  2
LAYER
  5
1
330
0
100
AcDbSymbolTable
 70
23
  0
LAYER
  5
27
330
1
100
AcDbSymbolTableRecord
100
AcDbLayerTableRecord
  2
0
 70
0
 62
7
  6
Continuous
370
-3
390
13
  0
LAYER
  5
28
330
1
100
AcDbSymbolTableRecord
100
AcDbLayerTableRecord
  2
Defpoints
 70
0
 62
7
  6
Continuous
290
0
370
-3
390
13
  0
LAYER
  5
2F
330
1
100
AcDbSymbolTableRecord
100
AcDbLayerTableRecord
  2
Painéis
 70
0
 62
200
  6
Continuous
370
-3
390
13
  0
LAYER
  5
30
330
1
100
AcDbSymbolTableRecord
100
AcDbLayerTableRecord
  2
CONCRETO
 70
0
 62
251
  6
Continuous
370
-3
390
13
  0
LAYER
  5
31
330
1
100
AcDbSymbolTableRecord
100
AcDbLayerTableRecord
  2
SARR_3.5x7
 70
0
 62
81
  6
Continuous
370
-3
390
13
  0
LAYER
  5
32
330
1
100
AcDbSymbolTableRecord
100
AcDbLayerTableRecord
  2
Madeira
 70
0
 62
126
  6
Continuous
370
-3
390
13
  0
LAYER
  5
33
330
1
100
AcDbSymbolTableRecord
100
AcDbLayerTableRecord
  2
Texto Seção
 70
0
 62
7
  6
Continuous
370
-3
390
13
  0
LAYER
  5
34
330
1
100
AcDbSymbolTableRecord
100
AcDbLayerTableRecord
  2
COTA
 70
0
 62
4
  6
Continuous
370
-3
390
13
  0
LAYER
  5
35
330
1
100
AcDbSymbolTableRecord
100
AcDbLayerTableRecord
  2
Cota Seção (2x)
 70
0
 62
4
  6
Continuous
370
-3
390
13
  0
LAYER
  5
36
330
1
100
AcDbSymbolTableRecord
100
AcDbLayerTableRecord
  2
NOMENCLATURA
 70
0
 62
7
  6
Continuous
370
-3
390
13
  0
LAYER
  5
37
330
1
100
AcDbSymbolTableRecord
100
AcDbLayerTableRecord
  2
Hachura
 70
0
 62
253
  6
Continuous
370
-3
390
13
  0
LAYER
  5
38
330
1
100
AcDbSymbolTableRecord
100
AcDbLayerTableRecord
  2
REAPROVEITAMENTO
 70
0
 62
251
  6
Continuous
370
-3
390
13
  0
LAYER
  5
39
330
1
100
AcDbSymbolTableRecord
100
AcDbLayerTableRecord
  2
SARR_2.2x7
 70
0
 62
40
  6
Continuous
370
-3
390
13
  0
LAYER
  5
3A
330
1
100
AcDbSymbolTableRecord
100
AcDbLayerTableRecord
  2
SARR_2.2x10
 70
0
 62
40
  6
Continuous
370
-3
390
13
  0
LAYER
  5
3B
330
1
100
AcDbSymbolTableRecord
100
AcDbLayerTableRecord
  2
SARR_EDITAR
 70
0
 62
141
  6
Continuous
370
-3
390
13
  0
LAYER
  5
3C
330
1
100
AcDbSymbolTableRecord
100
AcDbLayerTableRecord
  2
Sarrafo de Pressão
 70
0
 62
40
  6
Continuous
370
-3
390
13
  0
LAYER
  5
3D
330
1
100
AcDbSymbolTableRecord
100
AcDbLayerTableRecord
  2
Escoras
 70
0
 62
2
  6
Continuous
370
-3
390
13
  0
LAYER
  5
3E
330
1
100
AcDbSymbolTableRecord
100
AcDbLayerTableRecord
  2
Demarcação 1
 70
0
 62
251
  6
Continuous
370
-3
390
13
  0
LAYER
  5
3F
330
1
100
AcDbSymbolTableRecord
100
AcDbLayerTableRecord
  2
Demarcação 2
 70
0
 62
254
  6
Continuous
370
-3
390
13
  0
LAYER
  5
40
330
1
100
AcDbSymbolTableRecord
100
AcDbLayerTableRecord
  2
Forcador
 70
0
 62
251
  6
Continuous
370
-3
390
13
  0
LAYER
  5
41
330
1
100
AcDbSymbolTableRecord
100
AcDbLayerTableRecord
  2
GARFOS
 70
0
 62
7
  6
Continuous
370
-3
390
13
  0
LAYER
  5
42
330
1
100
AcDbSymbolTableRecord
100
AcDbLayerTableRecord
  2
BARRA DE ANCORAGEM
 70
0
 62
7
  6
Continuous
370
-3
390
13
  0
LAYER
  5
43
330
1
100
AcDbSymbolTableRecord
100
AcDbLayerTableRecord
  2
Perfil Metálico
 70
0
 62
251
  6
Continuous
370
-3
390
13
  0
ENDTAB
  0
TABLE
  2
STYLE
  5
5
330
0
100
AcDbSymbolTable
 70
1
  0
STYLE
  5
29
330
5
100
AcDbSymbolTableRecord
100
AcDbTextStyleTableRecord
  2
Standard
 70
0
 40
0.0
 41
1.0
 50
0.0
 71
0
 42
2.5
  3
txt
  4

  0
ENDTAB
  0
TABLE
  2
VIEW
  5
7
330
0
100
AcDbSymbolTable
 70
0
  0
ENDTAB
  0
TABLE
  2
UCS
  5
6
330
0
100
AcDbSymbolTable
 70
0
  0
ENDTAB
  0
TABLE
  2
APPID
  5
3
330
0
100
AcDbSymbolTable
 70
3
  0
APPID
  5
2A
330
3
100
AcDbSymbolTableRecord
100
AcDbRegAppTableRecord
  2
ACAD
 70
0
  0
APPID
  5
232
330
3
100
AcDbSymbolTableRecord
100
AcDbRegAppTableRecord
  2
HATCHBACKGROUNDCOLOR
 70
0
  0
APPID
  5
233
330
3
100
AcDbSymbolTableRecord
100
AcDbRegAppTableRecord
  2
EZDXF
 70
0
  0
ENDTAB
  0
TABLE
  2
DIMSTYLE
  5
4
330
0
100
AcDbSymbolTable
 70
1
100
AcDbDimStyleTable
  0
DIMSTYLE
105
2B
330
4
100
AcDbSymbolTableRecord
100
AcDbDimStyleTableRecord
  2
Standard
 70
0
  3

  4

 40
1.0
 41
2.5
 42
0.625
 43
3.75
 44
1.25
 45
0.0
 46
0.0
 47
0.0
 48
0.0
140
2.5
141
2.5
142
0.0
143
0.03937007874
144
1.0
145
0.0
146
1.0
147
0.625
148
0.0
 71
0
 72
0
 73
0
 74
0
 75
0
 76
0
 77
1
 78
8
 79
3
170
0
171
3
172
1
173
0
174
0
175
0
176
0
177
0
178
0
179
2
271
2
272
2
273
2
274
3
275
0
276
0
277
2
278
44
279
0
280
0
281
0
282
0
283
0
284
8
285
0
286
0
288
0
289
3
371
-2
372
-2
  0
ENDTAB
  0
TABLE
  2
BLOCK_RECORD
  5
9
330
0
100
AcDbSymbolTable
 70
2
  0
BLOCK_RECORD
  5
17
330
9
100
AcDbSymbolTableRecord
100
AcDbBlockTableRecord
  2
*Model_Space
340
1A
  0
BLOCK_RECORD
  5
1B
330
9
100
AcDbSymbolTableRecord
100
AcDbBlockTableRecord
  2
*Paper_Space
340
1E
  0
ENDTAB
  0
ENDSEC
  0
SECTION
  2
BLOCKS
  0
BLOCK
  5
18
330
17
100
AcDbEntity
  8
0
100
AcDbBlockBegin
  2
*Model_Space
 70
0
 10
0.0
 20
0.0
 30
0.0
  3
*Model_Space
  1

  0
ENDBLK
  5
19
330
17
100
AcDbEntity
  8
0
100
AcDbBlockEnd
  0
BLOCK
  5
1C
330
1B
100
AcDbEntity
  8
0
100
AcDbBlockBegin
  2
*Paper_Space
 70
0
 10
0.0
 20
0.0
 30
0.0
  3
*Paper_Space
  1

  0
ENDBLK
  5
1D
330
1B
100
AcDbEntity
  8
0
100
AcDbBlockEnd
  0
ENDSEC
  0
SECTION
  2
ENTITIES
  0
LINE
  5
44
330
17
100
AcDbEntity
  8
Painéis
100
AcDbLine
 10
7663.7
 20
11366.8
 30
0.0
 11
7683.7
 21
11366.8
 31
0.0
  0
LINE
  5
45
330
17
100
AcDbEntity
  8
Painéis
100
AcDbLine
 10
7663.7
 20
11368.4
 30
0.0
 11
7683.7
 21
11368.4
 31
0.0
  0
LINE
  5
46
330
17
100
AcDbEntity
  8
Painéis
100
AcDbLine
 10
8533.2
 20
11385.0
 30
0.0
 11
8839.6
 21
11385.0
 31
0.0
  0
LINE
  5
47
330
17
100
AcDbEntity
  8
Painéis
100
AcDbLine
 10
8465.2
 20
11385.0
 30
0.0
 11
8514.9
 21
11385.0
 31
0.0
  0
LINE
  5
48
330
17
100
AcDbEntity
  8
Painéis
100
AcDbLine
 10
8013.2
 20
11385.0
 30
0.0
 11
8389.2
 21
11385.0
 31
0.0
  0
LINE
  5
49
330
17
100
AcDbEntity
  8
Painéis
100
AcDbLine
 10
7731.3
 20
11402.7
 30
0.0
 11
7751.3
 21
11402.7
 31
0.0
  0
LINE
  5
4A
330
17
100
AcDbEntity
  8
Painéis
100
AcDbLine
 10
7731.3
 20
11406.3
 30
0.0
 11
7751.3
 21
11406.3
 31
0.0
  0
LINE
  5
4B
330
17
100
AcDbEntity
  8
Painéis
100
AcDbLine
 10
7663.7
 20
11412.8
 30
0.0
 11
7683.7
 21
11412.8
 31
0.0
  0
LINE
  5
4C
330
17
100
AcDbEntity
  8
Painéis
100
AcDbLine
 10
7663.7
 20
11416.4
 30
0.0
 11
7683.7
 21
11416.4
 31
0.0
  0
LINE
  5
4D
330
17
100
AcDbEntity
  8
Painéis
100
AcDbLine
 10
7628.5
 20
11420.4
 30
0.0
 11
7688.5
 21
11420.4
 31
0.0
  0
LINE
  5
4E
330
17
100
AcDbEntity
  8
Painéis
100
AcDbLine
 10
8533.2
 20
11435.0
 30
0.0
 11
8839.6
 21
11435.0
 31
0.0
  0
LINE
  5
4F
330
17
100
AcDbEntity
  8
Painéis
100
AcDbLine
 10
8465.2
 20
11435.0
 30
0.0
 11
8514.9
 21
11435.0
 31
0.0
  0
LINE
  5
50
330
17
100
AcDbEntity
  8
Painéis
100
AcDbLine
 10
8013.2
 20
11435.0
 30
0.0
 11
8389.2
 21
11435.0
 31
0.0
  0
LINE
  5
51
330
17
100
AcDbEntity
  8
Painéis
100
AcDbLine
 10
7731.3
 20
11440.8
 30
0.0
 11
7751.3
 21
11440.8
 31
0.0
  0
LINE
  5
52
330
17
100
AcDbEntity
  8
Painéis
100
AcDbLine
 10
7731.3
 20
11444.4
 30
0.0
 11
7751.3
 21
11444.4
 31
0.0
  0
LINE
  5
53
330
17
100
AcDbEntity
  8
Painéis
100
AcDbLine
 10
8013.2
 20
11385.0
 30
0.0
 11
8013.2
 21
11435.0
 31
0.0
  0
LINE
  5
54
330
17
100
AcDbEntity
  8
Painéis
100
AcDbLine
 10
8257.2
 20
11385.0
 30
0.0
 11
8257.2
 21
11435.0
 31
0.0
  0
LINE
  5
55
330
17
100
AcDbEntity
  8
Painéis
100
AcDbLine
 10
8389.2
 20
11385.0
 30
0.0
 11
8389.2
 21
11435.0
 31
0.0
  0
LINE
  5
56
330
17
100
AcDbEntity
  8
Painéis
100
AcDbLine
 10
8465.2
 20
11385.0
 30
0.0
 11
8465.2
 21
11435.0
 31
0.0
  0
LINE
  5
57
330
17
100
AcDbEntity
  8
Painéis
100
AcDbLine
 10
8514.9
 20
11385.0
 30
0.0
 11
8514.9
 21
11435.0
 31
0.0
  0
LINE
  5
58
330
17
100
AcDbEntity
  8
Painéis
100
AcDbLine
 10
8533.2
 20
11385.0
 30
0.0
 11
8533.2
 21
11435.0
 31
0.0
  0
LINE
  5
59
330
17
100
AcDbEntity
  8
Painéis
100
AcDbLine
 10
8686.4
 20
11385.0
 30
0.0
 11
8686.4
 21
11435.0
 31
0.0
  0
LINE
  5
5A
330
17
100
AcDbEntity
  8
Painéis
100
AcDbLine
 10
8839.6
 20
11385.0
 30
0.0
 11
8839.6
 21
11435.0
 31
0.0
  0
LWPOLYLINE
  5
5B
330
17
100
AcDbEntity
  8
Painéis
100
AcDbPolyline
 90
4
 70
1
 10
7731.3
 20
11444.4
 10
7727.7
 20
11444.4
 10
7727.7
 20
11316.4
 10
7731.3
 20
11316.4
  0
LWPOLYLINE
  5
5C
330
17
100
AcDbEntity
  8
Painéis
100
AcDbPolyline
 90
4
 70
1
 10
7727.7
 20
11444.4
 10
7726.5
 20
11444.4
 10
7726.5
 20
11316.4
 10
7727.7
 20
11316.4
  0
LWPOLYLINE
  5
5D
330
17
100
AcDbEntity
  8
Painéis
100
AcDbPolyline
 90
4
 70
1
 10
7751.3
 20
11320.8
 10
7731.3
 20
11320.8
 10
7731.3
 20
11324.4
 10
7751.3
 20
11324.4
  0
LWPOLYLINE
  5
5E
330
17
100
AcDbEntity
  8
Painéis
100
AcDbPolyline
 90
4
 70
1
 10
7751.3
 20
11440.8
 10
7731.3
 20
11440.8
 10
7731.3
 20
11444.4
 10
7751.3
 20
11444.4
  0
LWPOLYLINE
  5
5F
330
17
100
AcDbEntity
  8
Painéis
100
AcDbPolyline
 90
4
 70
1
 10
7751.3
 20
11402.7
 10
7731.3
 20
11402.7
 10
7731.3
 20
11406.3
 10
7751.3
 20
11406.3
  0
LWPOLYLINE
  5
60
330
17
100
AcDbEntity
  8
Painéis
100
AcDbPolyline
 90
4
 70
1
 10
7751.3
 20
11358.8
 10
7731.3
 20
11358.8
 10
7731.3
 20
11362.4
 10
7751.3
 20
11362.4
  0
LWPOLYLINE
  5
61
330
17
100
AcDbEntity
  8
Painéis
100
AcDbPolyline
 90
4
 70
1
 10
7735.4
 20
11078.3
 10
7735.4
 20
11081.9
 10
7697.4
 20
11081.9
 10
7697.4
 20
11078.3
  0
LWPOLYLINE
  5
62
330
17
100
AcDbEntity
  8
Painéis
100
AcDbPolyline
 90
4
 70
1
 10
7735.4
 20
11201.9
 10
7739.4
 20
11201.9
 10
7739.4
 20
11073.9
 10
7735.4
 20
11073.9
  0
LWPOLYLINE
  5
63
330
17
100
AcDbEntity
  8
Painéis
100
AcDbPolyline
 90
4
 70
1
 10
7860.0
 20
11467.5
 10
7856.4
 20
11467.5
 10
7856.4
 20
11434.2
 10
7860.0
 20
11434.2
  0
LWPOLYLINE
  5
64
330
17
100
AcDbEntity
  8
Painéis
100
AcDbPolyline
 90
4
 70
1
 10
7856.4
 20
11467.5
 10
7855.2
 20
11467.5
 10
7855.2
 20
11434.2
 10
7856.4
 20
11434.2
  0
LWPOLYLINE
  5
65
330
17
100
AcDbEntity
  8
Painéis
100
AcDbPolyline
 90
4
 70
1
 10
7971.6
 20
10358.3
 10
8177.1
 20
10358.3
 10
8177.1
 20
10308.3
 10
7971.6
 20
10308.3
  0
LWPOLYLINE
  5
66
330
17
100
AcDbEntity
  8
Painéis
100
AcDbPolyline
 90
4
 70
0
 10
8372.6
 20
10358.3
 10
8177.1
 20
10358.3
 10
8177.1
 20
10308.3
 10
8372.6
 20
10308.3
  0
LWPOLYLINE
  5
67
330
17
100
AcDbEntity
  8
CONCRETO
100
AcDbPolyline
 90
10
 70
1
 10
7688.5
 20
11420.4
 10
7628.5
 20
11420.4
 10
7628.5
 20
11444.4
 10
7688.5
 20
11444.4
 10
7688.5
 20
11444.4
 10
7726.5
 20
11444.4
 10
7726.5
 20
11320.8
 10
7726.5
 20
11320.8
 10
7726.5
 20
11324.4
 10
7688.5
 20
11324.4
  0
LWPOLYLINE
  5
68
330
17
100
AcDbEntity
  8
Madeira
100
AcDbPolyline
 90
4
 70
1
 10
7726.5
 20
11316.4
 10
7726.5
 20
11320.8
 10
7712.5
 20
11320.8
 10
7712.5
 20
11316.4
  0
LWPOLYLINE
  5
69
330
17
100
AcDbEntity
  8
Madeira
100
AcDbPolyline
 90
4
 70
1
 10
7751.3
 20
11316.4
 10
7751.3
 20
11320.8
 10
7731.3
 20
11320.8
 10
7731.3
 20
11316.4
  0
LWPOLYLINE
  5
6A
330
17
100
AcDbEntity
  8
Madeira
100
AcDbPolyline
 90
4
 70
1
 10
7751.3
 20
11436.4
 10
7751.3
 20
11440.8
 10
7731.3
 20
11440.8
 10
7731.3
 20
11436.4
  0
LWPOLYLINE
  5
6B
330
17
100
AcDbEntity
  8
Madeira
100
AcDbPolyline
 90
4
 70
1
 10
7751.3
 20
11398.3
 10
7751.3
 20
11402.7
 10
7731.3
 20
11402.7
 10
7731.3
 20
11398.3
  0
LWPOLYLINE
  5
6C
330
17
100
AcDbEntity
  8
Madeira
100
AcDbPolyline
 90
4
 70
1
 10
7735.4
 20
11073.9
 10
7735.4
 20
11078.3
 10
7721.4
 20
11078.3
 10
7721.4
 20
11073.9
  0
LWPOLYLINE
  5
6D
330
17
100
AcDbEntity
  8
Madeira
100
AcDbPolyline
 90
4
 70
1
 10
7753.4
 20
11197.5
 10
7753.4
 20
11201.9
 10
7739.4
 20
11201.9
 10
7739.4
 20
11197.5
  0
LWPOLYLINE
  5
6E
330
17
100
AcDbEntity
  8
Madeira
100
AcDbPolyline
 90
4
 70
1
 10
7753.4
 20
11201.9
 10
7739.4
 20
11201.9
 10
7739.4
 20
11073.9
 10
7753.4
 20
11073.9
  0
LWPOLYLINE
  5
6F
330
17
100
AcDbEntity
  8
Madeira
100
AcDbPolyline
 90
4
 70
1
 10
7753.4
 20
11073.9
 10
7753.4
 20
11078.3
 10
7773.4
 20
11078.3
 10
7773.4
 20
11073.9
  0
LWPOLYLINE
  5
70
330
17
100
AcDbEntity
  8
Madeira
100
AcDbPolyline
 90
4
 70
1
 10
7751.3
 20
11444.4
 10
7755.7
 20
11444.4
 10
7755.7
 20
11316.4
 10
7751.3
 20
11316.4
  0
LWPOLYLINE
  5
71
330
17
100
AcDbEntity
  8
Madeira
100
AcDbPolyline
 90
4
 70
1
 10
7731.3
 20
11354.4
 10
7731.3
 20
11358.8
 10
7751.3
 20
11358.8
 10
7751.3
 20
11354.4
  0
LWPOLYLINE
  5
72
330
17
100
AcDbEntity
  8
Madeira
100
AcDbPolyline
 90
4
 70
1
 10
7833.7
 20
11398.2
 10
7833.6
 20
11400.4
 10
7840.6
 20
11400.7
 10
7840.6
 20
11398.5
  0
LWPOLYLINE
  5
73
330
17
100
AcDbEntity
  8
Madeira
100
AcDbPolyline
 90
4
 70
1
 10
7871.7
 20
11399.3
 10
7871.7
 20
11401.5
 10
7878.7
 20
11401.6
 10
7878.7
 20
11399.4
  0
LWPOLYLINE
  5
74
330
17
100
AcDbEntity
  8
Madeira
100
AcDbPolyline
 90
4
 70
1
 10
7950.1
 20
11398.4
 10
7950.2
 20
11400.6
 10
7957.2
 20
11400.3
 10
7957.1
 20
11398.1
  0
LWPOLYLINE
  5
75
330
17
100
AcDbEntity
  8
Madeira
100
AcDbPolyline
 90
4
 70
1
 10
7911.6
 20
11399.4
 10
7911.6
 20
11401.6
 10
7918.6
 20
11401.5
 10
7918.6
 20
11399.3
  0
LWPOLYLINE
  5
76
330
17
100
AcDbEntity
  8
Madeira
100
AcDbPolyline
 90
4
 70
1
 10
7947.1
 20
11352.5
 10
7947.2
 20
11354.7
 10
7954.2
 20
11354.4
 10
7954.1
 20
11352.2
  0
LWPOLYLINE
  5
77
330
17
100
AcDbEntity
  8
Madeira
100
AcDbPolyline
 90
4
 70
1
 10
7835.7
 20
11352.2
 10
7835.6
 20
11354.4
 10
7842.6
 20
11354.7
 10
7842.7
 20
11352.5
  0
LWPOLYLINE
  5
78
330
17
100
AcDbEntity
  8
Madeira
100
AcDbPolyline
 90
4
 70
1
 10
7877.4
 20
11353.4
 10
7877.4
 20
11355.6
 10
7884.4
 20
11355.7
 10
7884.4
 20
11353.5
  0
LWPOLYLINE
  5
79
330
17
100
AcDbEntity
  8
Madeira
100
AcDbPolyline
 90
4
 70
1
 10
7912.8
 20
11353.4
 10
7912.8
 20
11355.6
 10
7919.8
 20
11355.5
 10
7919.8
 20
11353.3
  0
TEXT
  5
7A
330
17
100
AcDbEntity
  8
Texto Seção
100
AcDbText
 10
7696.0
 20
11449.4
 30
0.0
 40
8.0
  1
V202
100
AcDbText
  0
TEXT
  5
7B
330
17
100
AcDbEntity
  8
Texto Seção
100
AcDbText
 10
7696.0
 20
11434.4
 30
0.0
 40
6.0
  1
(19x60)
100
AcDbText
  0
TEXT
  5
7C
330
17
100
AcDbEntity
  8
NOMENCLATURA
100
AcDbText
 10
8016.4
 20
10966.0
 30
0.0
 40
5.0
  1
P18
100
AcDbText
  0
TEXT
  5
7D
330
17
100
AcDbEntity
  8
NOMENCLATURA
100
AcDbText
 10
8814.0
 20
11290.2
 30
0.0
 40
5.0
  1
P18
100
AcDbText
  0
TEXT
  5
7E
330
17
100
AcDbEntity
  8
NOMENCLATURA
100
AcDbText
 10
6431.5
 20
10870.0
 30
0.0
 40
5.0
  1
P2
100
AcDbText
  0
TEXT
  5
7F
330
17
100
AcDbEntity
  8
NOMENCLATURA
100
AcDbText
 10
6853.4
 20
10876.5
 30
0.0
 40
5.0
  1
P1
100
AcDbText
  0
TEXT
  5
80
330
17
100
AcDbEntity
  8
NOMENCLATURA
100
AcDbText
 10
8409.6
 20
11303.0
 30
0.0
 40
5.0
  1
P103
100
AcDbText
  0
TEXT
  5
81
330
17
100
AcDbEntity
  8
NOMENCLATURA
100
AcDbText
 10
8012.4
 20
11307.0
 30
0.0
 40
5.0
  1
P16
100
AcDbText
  0
TEXT
  5
82
330
17
100
AcDbEntity
  8
NOMENCLATURA
100
AcDbText
 10
8432.7
 20
10965.4
 30
0.0
 40
5.0
  1
P103
100
AcDbText
  0
TEXT
  5
83
330
17
100
AcDbEntity
  8
NOMENCLATURA
100
AcDbText
 10
8804.9
 20
10964.2
 30
0.0
 40
5.0
  1
P16
100
AcDbText
  0
TEXT
  5
84
330
17
100
AcDbEntity
  8
NOMENCLATURA
100
AcDbText
 10
7117.8
 20
11405.5
 30
0.0
 40
5.0
  1
8 1/2pont
100
AcDbText
  0
TEXT
  5
85
330
17
100
AcDbEntity
  8
NOMENCLATURA
100
AcDbText
 10
8139.6
 20
11406.2
 30
0.0
 40
5.0
  1
8 1/2pont
100
AcDbText
  0
TEXT
  5
86
330
17
100
AcDbEntity
  8
NOMENCLATURA
100
AcDbText
 10
8316.2
 20
11406.2
 30
0.0
 40
5.0
  1
5 1/2pont
100
AcDbText
  0
TEXT
  5
87
330
17
100
AcDbEntity
  8
NOMENCLATURA
100
AcDbText
 10
8573.4
 20
11100.5
 30
0.0
 40
5.0
  1
7 1/2pont
100
AcDbText
  0
TEXT
  5
88
330
17
100
AcDbEntity
  8
NOMENCLATURA
100
AcDbText
 10
8741.9
 20
11100.5
 30
0.0
 40
5.0
  1
7 1/2pont
100
AcDbText
  0
TEXT
  5
89
330
17
100
AcDbEntity
  8
NOMENCLATURA
100
AcDbText
 10
8129.9
 20
10329.6
 30
0.0
 40
5.0
  1
4 1/2pont
100
AcDbText
  0
TEXT
  5
8A
330
17
100
AcDbEntity
  8
NOMENCLATURA
100
AcDbText
 10
8247.5
 20
10329.6
 30
0.0
 40
5.0
  1
5 1/2pont
100
AcDbText
  0
TEXT
  5
8B
330
17
100
AcDbEntity
  8
NOMENCLATURA
100
AcDbText
 10
8037.4
 20
10329.6
 30
0.0
 40
5.0
  1
5 1/2pont
100
AcDbText
  0
HATCH
  5
8C
330
17
100
AcDbEntity
  8
Hachura
 62
7
100
AcDbHatch
 10
0.0
 20
0.0
 30
0.0
210
0.0
220
0.0
230
1.0
  2
ANSI31
 70
0
 71
0
 91
1
 92
3
 72
0
 73
1
 93
8
 10
7726.5
 20
11316.4
 10
7726.5
 20
11320.8
 10
7726.5
 20
11320.8
 10
7712.5
 20
11320.8
 10
7712.5
 20
11320.8
 10
7712.5
 20
11316.4
 10
7712.5
 20
11316.4
 10
7726.5
 20
11316.4
 97
0
 75
1
 76
1
 52
0.0
 41
0.5
 77
0
 78
1
 53
45.0
 43
0.0
 44
0.0
 45
-1.1225320152
 46
1.1225320152
 79
0
 98
0
  0
HATCH
  5
8D
330
17
100
AcDbEntity
  8
Hachura
 62
8
100
AcDbHatch
 10
0.0
 20
0.0
 30
0.0
210
0.0
220
0.0
230
1.0
  2
SOLID
 70
1
 71
0
 91
1
 92
3
 72
0
 73
1
 93
8
 10
7731.3
 20
11444.4
 10
7727.7
 20
11444.4
 10
7727.7
 20
11444.4
 10
7727.7
 20
11316.4
 10
7727.7
 20
11316.4
 10
7731.3
 20
11316.4
 10
7731.3
 20
11316.4
 10
7731.3
 20
11444.4
 97
0
 75
1
 76
1
 98
0
  0
HATCH
  5
8E
330
17
100
AcDbEntity
  8
Hachura
 62
7
100
AcDbHatch
 10
0.0
 20
0.0
 30
0.0
210
0.0
220
0.0
230
1.0
  2
ANSI31
 70
0
 71
0
 91
1
 92
3
 72
0
 73
1
 93
8
 10
7751.3
 20
11316.4
 10
7751.3
 20
11320.8
 10
7751.3
 20
11320.8
 10
7731.3
 20
11320.8
 10
7731.3
 20
11320.8
 10
7731.3
 20
11316.4
 10
7731.3
 20
11316.4
 10
7751.3
 20
11316.4
 97
0
 75
1
 76
1
 52
0.0
 41
0.5
 77
0
 78
1
 53
45.0
 43
0.0
 44
0.0
 45
-1.1225320152
 46
1.1225320152
 79
0
 98
0
  0
HATCH
  5
8F
330
17
100
AcDbEntity
  8
Hachura
 62
7
100
AcDbHatch
 10
0.0
 20
0.0
 30
0.0
210
0.0
220
0.0
230
1.0
  2
ANSI31
 70
0
 71
0
 91
1
 92
3
 72
0
 73
1
 93
8
 10
7751.3
 20
11436.4
 10
7751.3
 20
11440.8
 10
7751.3
 20
11440.8
 10
7731.3
 20
11440.8
 10
7731.3
 20
11440.8
 10
7731.3
 20
11436.4
 10
7731.3
 20
11436.4
 10
7751.3
 20
11436.4
 97
0
 75
1
 76
1
 52
0.0
 41
0.5
 77
0
 78
1
 53
45.0
 43
0.0
 44
0.0
 45
-1.1225320152
 46
1.1225320152
 79
0
 98
0
  0
HATCH
  5
90
330
17
100
AcDbEntity
  8
Hachura
 62
7
100
AcDbHatch
 10
0.0
 20
0.0
 30
0.0
210
0.0
220
0.0
230
1.0
  2
ANSI31
 70
0
 71
0
 91
1
 92
3
 72
0
 73
1
 93
8
 10
7751.3
 20
11398.3
 10
7751.3
 20
11402.7
 10
7751.3
 20
11402.7
 10
7731.3
 20
11402.7
 10
7731.3
 20
11402.7
 10
7731.3
 20
11398.3
 10
7731.3
 20
11398.3
 10
7751.3
 20
11398.3
 97
0
 75
1
 76
1
 52
0.0
 41
0.5
 77
0
 78
1
 53
45.0
 43
0.0
 44
0.0
 45
-1.1225320152
 46
1.1225320152
 79
0
 98
0
  0
HATCH
  5
91
330
17
100
AcDbEntity
  8
Hachura
 62
7
100
AcDbHatch
 10
0.0
 20
0.0
 30
0.0
210
0.0
220
0.0
230
1.0
  2
ANSI31
 70
0
 71
0
 91
1
 92
3
 72
0
 73
1
 93
8
 10
7735.4
 20
11073.9
 10
7735.4
 20
11078.3
 10
7735.4
 20
11078.3
 10
7721.4
 20
11078.3
 10
7721.4
 20
11078.3
 10
7721.4
 20
11073.9
 10
7721.4
 20
11073.9
 10
7735.4
 20
11073.9
 97
0
 75
1
 76
1
 52
0.0
 41
0.5
 77
0
 78
1
 53
45.0
 43
0.0
 44
0.0
 45
-1.1225320152
 46
1.1225320152
 79
0
 98
0
  0
HATCH
  5
92
330
17
100
AcDbEntity
  8
Hachura
 62
8
100
AcDbHatch
 10
0.0
 20
0.0
 30
0.0
210
0.0
220
0.0
230
1.0
  2
SOLID
 70
1
 71
0
 91
1
 92
3
 72
0
 73
1
 93
8
 10
7735.4
 20
11078.3
 10
7735.4
 20
11081.9
 10
7735.4
 20
11081.9
 10
7697.4
 20
11081.9
 10
7697.4
 20
11081.9
 10
7697.4
 20
11078.3
 10
7697.4
 20
11078.3
 10
7735.4
 20
11078.3
 97
0
 75
1
 76
1
 98
0
  0
HATCH
  5
93
330
17
100
AcDbEntity
  8
Hachura
 62
8
100
AcDbHatch
 10
0.0
 20
0.0
 30
0.0
210
0.0
220
0.0
230
1.0
  2
SOLID
 70
1
 71
0
 91
1
 92
3
 72
0
 73
1
 93
8
 10
7735.4
 20
11201.9
 10
7739.4
 20
11201.9
 10
7739.4
 20
11201.9
 10
7739.4
 20
11073.9
 10
7739.4
 20
11073.9
 10
7735.4
 20
11073.9
 10
7735.4
 20
11073.9
 10
7735.4
 20
11201.9
 97
0
 75
1
 76
1
 98
0
  0
HATCH
  5
94
330
17
100
AcDbEntity
  8
Hachura
 62
7
100
AcDbHatch
 10
0.0
 20
0.0
 30
0.0
210
0.0
220
0.0
230
1.0
  2
ANSI31
 70
0
 71
0
 91
1
 92
3
 72
0
 73
1
 93
8
 10
7753.4
 20
11197.5
 10
7753.4
 20
11201.9
 10
7753.4
 20
11201.9
 10
7739.4
 20
11201.9
 10
7739.4
 20
11201.9
 10
7739.4
 20
11197.5
 10
7739.4
 20
11197.5
 10
7753.4
 20
11197.5
 97
0
 75
1
 76
1
 52
0.0
 41
0.5
 77
0
 78
1
 53
45.0
 43
0.0
 44
0.0
 45
-1.1225320152
 46
1.1225320152
 79
0
 98
0
  0
HATCH
  5
95
330
17
100
AcDbEntity
  8
Hachura
 62
7
100
AcDbHatch
 10
0.0
 20
0.0
 30
0.0
210
0.0
220
0.0
230
1.0
  2
ANSI31
 70
0
 71
0
 91
1
 92
3
 72
0
 73
1
 93
8
 10
7753.4
 20
11073.9
 10
7753.4
 20
11078.3
 10
7753.4
 20
11078.3
 10
7773.4
 20
11078.3
 10
7773.4
 20
11078.3
 10
7773.4
 20
11073.9
 10
7773.4
 20
11073.9
 10
7753.4
 20
11073.9
 97
0
 75
1
 76
1
 52
0.0
 41
0.5
 77
0
 78
1
 53
45.0
 43
0.0
 44
0.0
 45
-1.1225320152
 46
1.1225320152
 79
0
 98
0
  0
HATCH
  5
96
330
17
100
AcDbEntity
  8
Hachura
 62
7
100
AcDbHatch
 10
0.0
 20
0.0
 30
0.0
210
0.0
220
0.0
230
1.0
  2
ANSI31
 70
0
 71
0
 91
1
 92
3
 72
0
 73
1
 93
8
 10
7751.3
 20
11444.4
 10
7755.7
 20
11444.4
 10
7755.7
 20
11444.4
 10
7755.7
 20
11316.4
 10
7755.7
 20
11316.4
 10
7751.3
 20
11316.4
 10
7751.3
 20
11316.4
 10
7751.3
 20
11444.4
 97
0
 75
1
 76
1
 52
0.0
 41
0.5
 77
0
 78
1
 53
45.0
 43
0.0
 44
0.0
 45
-1.1225320152
 46
1.1225320152
 79
0
 98
0
  0
HATCH
  5
97
330
17
100
AcDbEntity
  8
Hachura
 62
7
100
AcDbHatch
 10
0.0
 20
0.0
 30
0.0
210
0.0
220
0.0
230
1.0
  2
ANSI31
 70
0
 71
0
 91
1
 92
3
 72
0
 73
1
 93
8
 10
7731.3
 20
11354.4
 10
7731.3
 20
11358.8
 10
7731.3
 20
11358.8
 10
7751.3
 20
11358.8
 10
7751.3
 20
11358.8
 10
7751.3
 20
11354.4
 10
7751.3
 20
11354.4
 10
7731.3
 20
11354.4
 97
0
 75
1
 76
1
 52
0.0
 41
0.5
 77
0
 78
1
 53
45.0
 43
0.0
 44
0.0
 45
-1.1225320152
 46
1.1225320152
 79
0
 98
0
  0
HATCH
  5
98
330
17
100
AcDbEntity
  8
Hachura
 62
7
100
AcDbHatch
 10
0.0
 20
0.0
 30
0.0
210
0.0
220
0.0
230
1.0
  2
ANSI31
 70
0
 71
0
 91
1
 92
3
 72
0
 73
1
 93
8
 10
7833.7
 20
11398.2
 10
7833.6
 20
11400.4
 10
7833.6
 20
11400.4
 10
7840.6
 20
11400.7
 10
7840.6
 20
11400.7
 10
7840.6
 20
11398.5
 10
7840.6
 20
11398.5
 10
7833.7
 20
11398.2
 97
0
 75
1
 76
1
 52
0.0
 41
0.5
 77
0
 78
1
 53
45.0
 43
0.0
 44
0.0
 45
-1.1225320152
 46
1.1225320152
 79
0
 98
0
  0
HATCH
  5
99
330
17
100
AcDbEntity
  8
Hachura
 62
7
100
AcDbHatch
 10
0.0
 20
0.0
 30
0.0
210
0.0
220
0.0
230
1.0
  2
ANSI31
 70
0
 71
0
 91
1
 92
3
 72
0
 73
1
 93
8
 10
7871.7
 20
11399.3
 10
7871.7
 20
11401.5
 10
7871.7
 20
11401.5
 10
7878.7
 20
11401.6
 10
7878.7
 20
11401.6
 10
7878.7
 20
11399.4
 10
7878.7
 20
11399.4
 10
7871.7
 20
11399.3
 97
0
 75
1
 76
1
 52
0.0
 41
0.5
 77
0
 78
1
 53
45.0
 43
0.0
 44
0.0
 45
-1.1225320152
 46
1.1225320152
 79
0
 98
0
  0
HATCH
  5
9A
330
17
100
AcDbEntity
  8
Hachura
 62
7
100
AcDbHatch
 10
0.0
 20
0.0
 30
0.0
210
0.0
220
0.0
230
1.0
  2
ANSI31
 70
0
 71
0
 91
1
 92
3
 72
0
 73
1
 93
8
 10
7950.1
 20
11398.4
 10
7950.2
 20
11400.6
 10
7950.2
 20
11400.6
 10
7957.2
 20
11400.3
 10
7957.2
 20
11400.3
 10
7957.1
 20
11398.1
 10
7957.1
 20
11398.1
 10
7950.1
 20
11398.4
 97
0
 75
1
 76
1
 52
0.0
 41
0.5
 77
0
 78
1
 53
45.0
 43
0.0
 44
0.0
 45
-1.1225320152
 46
1.1225320152
 79
0
 98
0
  0
HATCH
  5
9B
330
17
100
AcDbEntity
  8
Hachura
 62
7
100
AcDbHatch
 10
0.0
 20
0.0
 30
0.0
210
0.0
220
0.0
230
1.0
  2
ANSI31
 70
0
 71
0
 91
1
 92
3
 72
0
 73
1
 93
8
 10
7911.6
 20
11399.4
 10
7911.6
 20
11401.6
 10
7911.6
 20
11401.6
 10
7918.6
 20
11401.5
 10
7918.6
 20
11401.5
 10
7918.6
 20
11399.3
 10
7918.6
 20
11399.3
 10
7911.6
 20
11399.4
 97
0
 75
1
 76
1
 52
0.0
 41
0.5
 77
0
 78
1
 53
45.0
 43
0.0
 44
0.0
 45
-1.1225320152
 46
1.1225320152
 79
0
 98
0
  0
HATCH
  5
9C
330
17
100
AcDbEntity
  8
Hachura
 62
7
100
AcDbHatch
 10
0.0
 20
0.0
 30
0.0
210
0.0
220
0.0
230
1.0
  2
ANSI31
 70
0
 71
0
 91
1
 92
3
 72
0
 73
1
 93
8
 10
7947.1
 20
11352.5
 10
7947.2
 20
11354.7
 10
7947.2
 20
11354.7
 10
7954.2
 20
11354.4
 10
7954.2
 20
11354.4
 10
7954.1
 20
11352.2
 10
7954.1
 20
11352.2
 10
7947.1
 20
11352.5
 97
0
 75
1
 76
1
 52
0.0
 41
0.5
 77
0
 78
1
 53
45.0
 43
0.0
 44
0.0
 45
-1.1225320152
 46
1.1225320152
 79
0
 98
0
  0
HATCH
  5
9D
330
17
100
AcDbEntity
  8
Hachura
 62
7
100
AcDbHatch
 10
0.0
 20
0.0
 30
0.0
210
0.0
220
0.0
230
1.0
  2
ANSI31
 70
0
 71
0
 91
1
 92
3
 72
0
 73
1
 93
8
 10
7835.7
 20
11352.2
 10
7835.6
 20
11354.4
 10
7835.6
 20
11354.4
 10
7842.6
 20
11354.7
 10
7842.6
 20
11354.7
 10
7842.7
 20
11352.5
 10
7842.7
 20
11352.5
 10
7835.7
 20
11352.2
 97
0
 75
1
 76
1
 52
0.0
 41
0.5
 77
0
 78
1
 53
45.0
 43
0.0
 44
0.0
 45
-1.1225320152
 46
1.1225320152
 79
0
 98
0
  0
HATCH
  5
9E
330
17
100
AcDbEntity
  8
Hachura
 62
7
100
AcDbHatch
 10
0.0
 20
0.0
 30
0.0
210
0.0
220
0.0
230
1.0
  2
ANSI31
 70
0
 71
0
 91
1
 92
3
 72
0
 73
1
 93
8
 10
7877.4
 20
11353.4
 10
7877.4
 20
11355.6
 10
7877.4
 20
11355.6
 10
7884.4
 20
11355.7
 10
7884.4
 20
11355.7
 10
7884.4
 20
11353.5
 10
7884.4
 20
11353.5
 10
7877.4
 20
11353.4
 97
0
 75
1
 76
1
 52
0.0
 41
0.5
 77
0
 78
1
 53
45.0
 43
0.0
 44
0.0
 45
-1.1225320152
 46
1.1225320152
 79
0
 98
0
  0
HATCH
  5
9F
330
17
100
AcDbEntity
  8
Hachura
 62
7
100
AcDbHatch
 10
0.0
 20
0.0
 30
0.0
210
0.0
220
0.0
230
1.0
  2
ANSI31
 70
0
 71
0
 91
1
 92
3
 72
0
 73
1
 93
8
 10
7912.8
 20
11353.4
 10
7912.8
 20
11355.6
 10
7912.8
 20
11355.6
 10
7919.8
 20
11355.5
 10
7919.8
 20
11355.5
 10
7919.8
 20
11353.3
 10
7919.8
 20
11353.3
 10
7912.8
 20
11353.4
 97
0
 75
1
 76
1
 52
0.0
 41
0.5
 77
0
 78
1
 53
45.0
 43
0.0
 44
0.0
 45
-1.1225320152
 46
1.1225320152
 79
0
 98
0
  0
HATCH
  5
A0
330
17
100
AcDbEntity
  8
Hachura
 62
8
100
AcDbHatch
 10
0.0
 20
0.0
 30
0.0
210
0.0
220
0.0
230
1.0
  2
SOLID
 70
1
 71
0
 91
1
 92
3
 72
0
 73
1
 93
8
 10
7860.0
 20
11467.5
 10
7856.4
 20
11467.5
 10
7856.4
 20
11467.5
 10
7856.4
 20
11434.2
 10
7856.4
 20
11434.2
 10
7860.0
 20
11434.2
 10
7860.0
 20
11434.2
 10
7860.0
 20
11467.5
 97
0
 75
1
 76
1
 98
0
  0
HATCH
  5
A1
330
17
100
AcDbEntity
  8
COTA
 62
7
100
AcDbHatch
 10
0.0
 20
0.0
 30
0.0
210
0.0
220
0.0
230
1.0
  2
AR-CONC
 70
0
 71
0
 91
1
 92
3
 72
0
 73
1
 93
4
 10
8839.6
 20
11435.0
 10
8839.6
 20
11449.0
 10
8533.2
 20
11449.0
 10
8533.2
 20
11435.0
 97
0
 75
1
 76
1
 52
0.0
 41
0.03
 77
0
 78
13
 53
50.0
 43
0.0
 44
0.0
 45
5.4655400699
 46
-0.4781725662
 79
2
 49
0.5715
 49
-6.2865
 53
355.0
 43
0.0
 44
0.0
 45
-1.0573026428
 46
5.7317053572
 79
2
 49
0.4572
 49
-5.0292175251
 53
100.4514447
 43
0.45546021
 44
-0.039847605
 45
4.4082374127
 46
5.2535325574
 79
2
 49
0.485700264
 49
-5.342707338
 53
46.1842
 43
0.0
 44
1.524
 45
8.1323712268
 46
-1.261269838
 79
2
 49
0.85725
 49
-9.42975
 53
96.63555761
 43
0.677697
 44
1.418895
 45
7.1221240215
 46
7.4227837379
 79
2
 49
0.7285506942
 49
-8.0140682448
 53
351.18415117
 43
0.0
 44
1.524
 45
7.1221240219
 46
7.4227837376
 79
2
 49
0.6857990121
 49
-7.5437919576
 53
21.0
 43
0.762
 44
1.143
 45
4.5484317381
 46
-3.0679559456
 79
2
 49
0.5715
 49
-6.2865
 53
326.0
 43
0.762
 44
1.143
 45
1.8540608504
 46
5.5256389837
 79
2
 49
0.4572
 49
-5.0292
 53
71.451445
 43
1.141035978
 44
0.887337003
 45
6.4024925784
 46
2.4576830666
 79
2
 49
0.485700264
 49
-5.342698128
 53
37.5
 43
0.0
 44
0.0
 45
0.0926580975
 46
2.5366511662
 79
6
 49
0.0
 49
-4.96824
 49
0.0
 49
-5.1054
 49
0.0
 49
-5.04825
 53
7.5
 43
0.0
 44
0.0
 45
2.0045898753
 46
3.0054172445
 79
6
 49
0.0
 49
-2.91084
 49
0.0
 49
-4.85394
 49
0.0
 49
-1.92405
 53
-32.5
 43
-1.69926
 44
0.0
 45
4.067717855
 46
-0.1718623198
 79
6
 49
0.0
 49
-1.905
 49
0.0
 49
-5.9436
 49
0.0
 49
-7.8867
 53
-42.5
 43
-2.46126
 44
0.0
 45
4.4438754416
 46
0.762794731
 79
6
 49
0.0
 49
-2.4765
 49
0.0
 49
-3.94716
 49
0.0
 49
-5.6007
 98
0
  0
HATCH
  5
A2
330
17
100
AcDbEntity
  8
COTA
 62
7
100
AcDbHatch
 10
0.0
 20
0.0
 30
0.0
210
0.0
220
0.0
230
1.0
  2
AR-CONC
 70
0
 71
0
 91
1
 92
3
 72
0
 73
1
 93
8
 10
8514.2
 20
11449.0
 10
8465.2
 20
11449.0
 10
8465.2
 20
11449.0
 10
8465.2
 20
11435.0
 10
8465.2
 20
11435.0
 10
8514.2
 20
11435.0
 10
8514.2
 20
11435.0
 10
8514.2
 20
11449.0
 97
0
 75
1
 76
1
 52
0.0
 41
0.03
 77
0
 78
13
 53
50.0
 43
0.0
 44
0.0
 45
5.4655400699
 46
-0.4781725662
 79
2
 49
0.5715
 49
-6.2865
 53
355.0
 43
0.0
 44
0.0
 45
-1.0573026428
 46
5.7317053572
 79
2
 49
0.4572
 49
-5.0292175251
 53
100.4514447
 43
0.45546021
 44
-0.039847605
 45
4.4082374127
 46
5.2535325574
 79
2
 49
0.485700264
 49
-5.342707338
 53
46.1842
 43
0.0
 44
1.524
 45
8.1323712268
 46
-1.261269838
 79
2
 49
0.85725
 49
-9.42975
 53
96.63555761
 43
0.677697
 44
1.418895
 45
7.1221240215
 46
7.4227837379
 79
2
 49
0.7285506942
 49
-8.0140682448
 53
351.18415117
 43
0.0
 44
1.524
 45
7.1221240219
 46
7.4227837376
 79
2
 49
0.6857990121
 49
-7.5437919576
 53
21.0
 43
0.762
 44
1.143
 45
4.5484317381
 46
-3.0679559456
 79
2
 49
0.5715
 49
-6.2865
 53
326.0
 43
0.762
 44
1.143
 45
1.8540608504
 46
5.5256389837
 79
2
 49
0.4572
 49
-5.0292
 53
71.451445
 43
1.141035978
 44
0.887337003
 45
6.4024925784
 46
2.4576830666
 79
2
 49
0.485700264
 49
-5.342698128
 53
37.5
 43
0.0
 44
0.0
 45
0.0926580975
 46
2.5366511662
 79
6
 49
0.0
 49
-4.96824
 49
0.0
 49
-5.1054
 49
0.0
 49
-5.04825
 53
7.5
 43
0.0
 44
0.0
 45
2.0045898753
 46
3.0054172445
 79
6
 49
0.0
 49
-2.91084
 49
0.0
 49
-4.85394
 49
0.0
 49
-1.92405
 53
-32.5
 43
-1.69926
 44
0.0
 45
4.067717855
 46
-0.1718623198
 79
6
 49
0.0
 49
-1.905
 49
0.0
 49
-5.9436
 49
0.0
 49
-7.8867
 53
-42.5
 43
-2.46126
 44
0.0
 45
4.4438754416
 46
0.762794731
 79
6
 49
0.0
 49
-2.4765
 49
0.0
 49
-3.94716
 49
0.0
 49
-5.6007
 98
0
  0
HATCH
  5
A3
330
17
100
AcDbEntity
  8
COTA
 62
7
100
AcDbHatch
 10
0.0
 20
0.0
 30
0.0
210
0.0
220
0.0
230
1.0
  2
AR-CONC
 70
0
 71
0
 91
1
 92
3
 72
0
 73
1
 93
8
 10
8389.2
 20
11449.0
 10
8389.2
 20
11435.0
 10
8389.2
 20
11435.0
 10
8013.2
 20
11435.0
 10
8013.2
 20
11435.0
 10
8013.2
 20
11449.0
 10
8013.2
 20
11449.0
 10
8389.2
 20
11449.0
 97
0
 75
1
 76
1
 52
0.0
 41
0.03
 77
0
 78
13
 53
50.0
 43
0.0
 44
0.0
 45
5.4655400699
 46
-0.4781725662
 79
2
 49
0.5715
 49
-6.2865
 53
355.0
 43
0.0
 44
0.0
 45
-1.0573026428
 46
5.7317053572
 79
2
 49
0.4572
 49
-5.0292175251
 53
100.4514447
 43
0.45546021
 44
-0.039847605
 45
4.4082374127
 46
5.2535325574
 79
2
 49
0.485700264
 49
-5.342707338
 53
46.1842
 43
0.0
 44
1.524
 45
8.1323712268
 46
-1.261269838
 79
2
 49
0.85725
 49
-9.42975
 53
96.63555761
 43
0.677697
 44
1.418895
 45
7.1221240215
 46
7.4227837379
 79
2
 49
0.7285506942
 49
-8.0140682448
 53
351.18415117
 43
0.0
 44
1.524
 45
7.1221240219
 46
7.4227837376
 79
2
 49
0.6857990121
 49
-7.5437919576
 53
21.0
 43
0.762
 44
1.143
 45
4.5484317381
 46
-3.0679559456
 79
2
 49
0.5715
 49
-6.2865
 53
326.0
 43
0.762
 44
1.143
 45
1.8540608504
 46
5.5256389837
 79
2
 49
0.4572
 49
-5.0292
 53
71.451445
 43
1.141035978
 44
0.887337003
 45
6.4024925784
 46
2.4576830666
 79
2
 49
0.485700264
 49
-5.342698128
 53
37.5
 43
0.0
 44
0.0
 45
0.0926580975
 46
2.5366511662
 79
6
 49
0.0
 49
-4.96824
 49
0.0
 49
-5.1054
 49
0.0
 49
-5.04825
 53
7.5
 43
0.0
 44
0.0
 45
2.0045898753
 46
3.0054172445
 79
6
 49
0.0
 49
-2.91084
 49
0.0
 49
-4.85394
 49
0.0
 49
-1.92405
 53
-32.5
 43
-1.69926
 44
0.0
 45
4.067717855
 46
-0.1718623198
 79
6
 49
0.0
 49
-1.905
 49
0.0
 49
-5.9436
 49
0.0
 49
-7.8867
 53
-42.5
 43
-2.46126
 44
0.0
 45
4.4438754416
 46
0.762794731
 79
6
 49
0.0
 49
-2.4765
 49
0.0
 49
-3.94716
 49
0.0
 49
-5.6007
 98
0
  0
HATCH
  5
A4
330
17
100
AcDbEntity
  8
REAPROVEITAMENTO
 62
7
100
AcDbHatch
 10
0.0
 20
0.0
 30
0.0
210
0.0
220
0.0
230
1.0
  2
ANSI31
 70
0
 71
0
 91
1
 92
3
 72
0
 73
1
 93
8
 10
8013.2
 20
11435.0
 10
8013.2
 20
11385.0
 10
8013.2
 20
11385.0
 10
8257.2
 20
11385.0
 10
8257.2
 20
11385.0
 10
8257.2
 20
11435.0
 10
8257.2
 20
11435.0
 10
8013.2
 20
11435.0
 97
0
 75
1
 76
1
 52
0.0
 41
5.0
 77
0
 78
1
 53
45.0
 43
0.0
 44
0.0
 45
-11.2253201515
 46
11.2253201515
 79
0
 98
0
  0
HATCH
  5
A5
330
17
100
AcDbEntity
  8
REAPROVEITAMENTO
 62
7
100
AcDbHatch
 10
0.0
 20
0.0
 30
0.0
210
0.0
220
0.0
230
1.0
  2
ANSI37
 70
0
 71
0
 91
1
 92
3
 72
0
 73
1
 93
8
 10
8257.2
 20
11435.0
 10
8257.2
 20
11385.0
 10
8257.2
 20
11385.0
 10
8389.2
 20
11385.0
 10
8389.2
 20
11385.0
 10
8389.2
 20
11435.0
 10
8389.2
 20
11435.0
 10
8257.2
 20
11435.0
 97
0
 75
1
 76
1
 52
0.0
 41
5.0
 77
0
 78
2
 53
45.0
 43
0.0
 44
0.0
 45
-11.2253201515
 46
11.2253201515
 79
0
 53
135.0
 43
0.0
 44
0.0
 45
-11.2253201515
 46
-11.2253201515
 79
0
 98
0
  0
HATCH
  5
A6
330
17
100
AcDbEntity
  8
REAPROVEITAMENTO
 62
7
100
AcDbHatch
 10
0.0
 20
0.0
 30
0.0
210
0.0
220
0.0
230
1.0
  2
ANSI37
 70
0
 71
0
 91
1
 92
3
 72
0
 73
1
 93
8
 10
8459.9
 20
11129.3
 10
8459.9
 20
11065.3
 10
8459.9
 20
11065.3
 10
8835.9
 20
11065.3
 10
8835.9
 20
11065.3
 10
8835.9
 20
11129.3
 10
8835.9
 20
11129.3
 10
8459.9
 20
11129.3
 97
0
 75
1
 76
1
 52
0.0
 41
5.0
 77
0
 78
2
 53
45.0
 43
0.0
 44
0.0
 45
-11.2253201515
 46
11.2253201515
 79
0
 53
135.0
 43
0.0
 44
0.0
 45
-11.2253201515
 46
-11.2253201515
 79
0
 98
0
  0
HATCH
  5
A7
330
17
100
AcDbEntity
  8
COTA
 62
7
100
AcDbHatch
 10
0.0
 20
0.0
 30
0.0
210
0.0
220
0.0
230
1.0
  2
AR-CONC
 70
0
 71
0
 91
1
 92
3
 72
0
 73
1
 93
8
 10
8372.6
 20
10372.3
 10
7971.6
 20
10372.3
 10
7971.6
 20
10372.3
 10
7971.6
 20
10358.3
 10
7971.6
 20
10358.3
 10
8372.6
 20
10358.3
 10
8372.6
 20
10358.3
 10
8372.6
 20
10372.3
 97
0
 75
1
 76
1
 52
0.0
 41
0.03
 77
0
 78
13
 53
50.0
 43
0.0
 44
0.0
 45
5.4655400699
 46
-0.4781725662
 79
2
 49
0.5715
 49
-6.2865
 53
355.0
 43
0.0
 44
0.0
 45
-1.0573026428
 46
5.7317053572
 79
2
 49
0.4572
 49
-5.0292175251
 53
100.4514447
 43
0.45546021
 44
-0.039847605
 45
4.4082374127
 46
5.2535325574
 79
2
 49
0.485700264
 49
-5.342707338
 53
46.1842
 43
0.0
 44
1.524
 45
8.1323712268
 46
-1.261269838
 79
2
 49
0.85725
 49
-9.42975
 53
96.63555761
 43
0.677697
 44
1.418895
 45
7.1221240215
 46
7.4227837379
 79
2
 49
0.7285506942
 49
-8.0140682448
 53
351.18415117
 43
0.0
 44
1.524
 45
7.1221240219
 46
7.4227837376
 79
2
 49
0.6857990121
 49
-7.5437919576
 53
21.0
 43
0.762
 44
1.143
 45
4.5484317381
 46
-3.0679559456
 79
2
 49
0.5715
 49
-6.2865
 53
326.0
 43
0.762
 44
1.143
 45
1.8540608504
 46
5.5256389837
 79
2
 49
0.4572
 49
-5.0292
 53
71.451445
 43
1.141035978
 44
0.887337003
 45
6.4024925784
 46
2.4576830666
 79
2
 49
0.485700264
 49
-5.342698128
 53
37.5
 43
0.0
 44
0.0
 45
0.0926580975
 46
2.5366511662
 79
6
 49
0.0
 49
-4.96824
 49
0.0
 49
-5.1054
 49
0.0
 49
-5.04825
 53
7.5
 43
0.0
 44
0.0
 45
2.0045898753
 46
3.0054172445
 79
6
 49
0.0
 49
-2.91084
 49
0.0
 49
-4.85394
 49
0.0
 49
-1.92405
 53
-32.5
 43
-1.69926
 44
0.0
 45
4.067717855
 46
-0.1718623198
 79
6
 49
0.0
 49
-1.905
 49
0.0
 49
-5.9436
 49
0.0
 49
-7.8867
 53
-42.5
 43
-2.46126
 44
0.0
 45
4.4438754416
 46
0.762794731
 79
6
 49
0.0
 49
-2.4765
 49
0.0
 49
-3.94716
 49
0.0
 49
-5.6007
 98
0
  0
HATCH
  5
A8
330
17
100
AcDbEntity
  8
REAPROVEITAMENTO
 62
7
100
AcDbHatch
 10
0.0
 20
0.0
 30
0.0
210
0.0
220
0.0
230
1.0
  2
ANSI31
 70
0
 71
0
 91
1
 92
3
 72
0
 73
1
 93
8
 10
8465.2
 20
11435.0
 10
8465.2
 20
11385.0
 10
8465.2
 20
11385.0
 10
8514.9
 20
11385.0
 10
8514.9
 20
11385.0
 10
8514.9
 20
11435.0
 10
8514.9
 20
11435.0
 10
8465.2
 20
11435.0
 97
0
 75
1
 76
1
 52
0.0
 41
5.0
 77
0
 78
1
 53
45.0
 43
0.0
 44
0.0
 45
-11.2253201515
 46
11.2253201515
 79
0
 98
0
  0
HATCH
  5
A9
330
17
100
AcDbEntity
  8
REAPROVEITAMENTO
 62
7
100
AcDbHatch
 10
0.0
 20
0.0
 30
0.0
210
0.0
220
0.0
230
1.0
  2
ANSI31
 70
0
 71
0
 91
1
 92
3
 72
0
 73
1
 93
8
 10
8533.2
 20
11435.0
 10
8533.2
 20
11385.0
 10
8533.2
 20
11385.0
 10
8839.6
 20
11385.0
 10
8839.6
 20
11385.0
 10
8839.6
 20
11435.0
 10
8839.6
 20
11435.0
 10
8533.2
 20
11435.0
 97
0
 75
1
 76
1
 52
0.0
 41
5.0
 77
0
 78
1
 53
45.0
 43
0.0
 44
0.0
 45
-11.2253201515
 46
11.2253201515
 79
0
 98
0
  0
HATCH
  5
AA
330
17
100
AcDbEntity
  8
REAPROVEITAMENTO
 62
7
100
AcDbHatch
 10
0.0
 20
0.0
 30
0.0
210
0.0
220
0.0
230
1.0
  2
ANSI31
 70
0
 71
0
 91
1
 92
3
 72
0
 73
1
 93
8
 10
8016.4
 20
11129.3
 10
8016.4
 20
11065.3
 10
8016.4
 20
11065.3
 10
8353.0
 20
11065.3
 10
8353.0
 20
11065.3
 10
8353.0
 20
11129.3
 10
8353.0
 20
11129.3
 10
8016.4
 20
11129.3
 97
0
 75
1
 76
1
 52
0.0
 41
5.0
 77
0
 78
1
 53
45.0
 43
0.0
 44
0.0
 45
-11.2253201515
 46
11.2253201515
 79
0
 98
0
  0
HATCH
  5
AB
330
17
100
AcDbEntity
  8
REAPROVEITAMENTO
 62
7
100
AcDbHatch
 10
0.0
 20
0.0
 30
0.0
210
0.0
220
0.0
230
1.0
  2
ANSI31
 70
0
 71
0
 91
1
 92
3
 72
0
 73
1
 93
8
 10
7971.6
 20
10358.3
 10
7971.6
 20
10308.3
 10
7971.6
 20
10308.3
 10
8299.1
 20
10308.3
 10
8299.1
 20
10308.3
 10
8299.1
 20
10358.3
 10
8299.1
 20
10358.3
 10
7971.6
 20
10358.3
 97
0
 75
1
 76
1
 52
0.0
 41
5.0
 77
0
 78
1
 53
45.0
 43
0.0
 44
0.0
 45
-11.2253201515
 46
11.2253201515
 79
0
 98
0
  0
LINE
  5
AC
330
17
100
AcDbEntity
  8
COTA
100
AcDbLine
 10
7591.8
 20
11316.4
 30
0.0
 11
7591.8
 21
11416.4
 31
0.0
  0
LINE
  5
AD
330
17
100
AcDbEntity
  8
COTA
100
AcDbLine
 10
7639.3
 20
11316.4
 30
0.0
 11
7586.8
 21
11316.4
 31
0.0
  0
LINE
  5
AE
330
17
100
AcDbEntity
  8
COTA
100
AcDbLine
 10
7628.5
 20
11416.4
 30
0.0
 11
7586.8
 21
11416.4
 31
0.0
  0
TEXT
  5
AF
330
17
100
AcDbEntity
  8
COTA
100
AcDbText
 10
7586.3
 20
11366.4
 30
0.0
 40
4.0
  1
50
100
AcDbText
  0
LINE
  5
B0
330
17
100
AcDbEntity
  8
COTA
100
AcDbLine
 10
7591.8
 20
11420.4
 30
0.0
 11
7591.8
 21
11444.4
 31
0.0
  0
LINE
  5
B1
330
17
100
AcDbEntity
  8
COTA
100
AcDbLine
 10
7628.5
 20
11420.4
 30
0.0
 11
7586.8
 21
11420.4
 31
0.0
  0
LINE
  5
B2
330
17
100
AcDbEntity
  8
COTA
100
AcDbLine
 10
7628.5
 20
11444.4
 30
0.0
 11
7586.8
 21
11444.4
 31
0.0
  0
TEXT
  5
B3
330
17
100
AcDbEntity
  8
COTA
100
AcDbText
 10
7586.3
 20
11432.4
 30
0.0
 40
4.0
  1
12
100
AcDbText
  0
LINE
  5
B4
330
17
100
AcDbEntity
  8
Cota Seção (2x)
100
AcDbLine
 10
7710.0
 20
11324.4
 30
0.0
 11
7710.0
 21
11444.4
 31
0.0
  0
LINE
  5
B5
330
17
100
AcDbEntity
  8
Cota Seção (2x)
100
AcDbLine
 10
7688.5
 20
11324.4
 30
0.0
 11
7715.0
 21
11324.4
 31
0.0
  0
LINE
  5
B6
330
17
100
AcDbEntity
  8
Cota Seção (2x)
100
AcDbLine
 10
7688.5
 20
11444.4
 30
0.0
 11
7715.0
 21
11444.4
 31
0.0
  0
TEXT
  5
B7
330
17
100
AcDbEntity
  8
Cota Seção (2x)
100
AcDbText
 10
7710.0
 20
11367.4
 30
0.0
 40
4.0
  1
60
100
AcDbText
  0
LINE
  5
B8
330
17
100
AcDbEntity
  8
Cota Seção (2x)
100
AcDbLine
 10
7688.5
 20
11324.4
 30
0.0
 11
7726.5
 21
11324.4
 31
0.0
  0
LINE
  5
B9
330
17
100
AcDbEntity
  8
Cota Seção (2x)
100
AcDbLine
 10
7726.5
 20
11316.4
 30
0.0
 11
7726.5
 21
11329.4
 31
0.0
  0
LINE
  5
BA
330
17
100
AcDbEntity
  8
Cota Seção (2x)
100
AcDbLine
 10
7688.5
 20
11316.4
 30
0.0
 11
7688.5
 21
11329.4
 31
0.0
  0
TEXT
  5
BB
330
17
100
AcDbEntity
  8
Cota Seção (2x)
100
AcDbText
 10
7707.5
 20
11335.9
 30
0.0
 40
4.0
  1
19
100
AcDbText
  0
LINE
  5
BC
330
17
100
AcDbEntity
  8
COTA
100
AcDbLine
 10
7804.5
 20
11316.4
 30
0.0
 11
7804.5
 21
11444.4
 31
0.0
  0
LINE
  5
BD
330
17
100
AcDbEntity
  8
COTA
100
AcDbLine
 10
7744.5
 20
11444.4
 30
0.0
 11
7809.5
 21
11444.4
 31
0.0
  0
LINE
  5
BE
330
17
100
AcDbEntity
  8
COTA
100
AcDbLine
 10
7744.5
 20
11316.4
 30
0.0
 11
7809.5
 21
11316.4
 31
0.0
  0
TEXT
  5
BF
330
17
100
AcDbEntity
  8
COTA
100
AcDbText
 10
7799.0
 20
11380.4
 30
0.0
 40
4.0
  1
64
100
AcDbText
  0
LINE
  5
C0
330
17
100
AcDbEntity
  8
COTA
100
AcDbLine
 10
7780.0
 20
11402.3
 30
0.0
 11
7780.0
 21
11444.4
 31
0.0
  0
LINE
  5
C1
330
17
100
AcDbEntity
  8
COTA
100
AcDbLine
 10
7751.3
 20
11402.3
 30
0.0
 11
7785.0
 21
11402.3
 31
0.0
  0
LINE
  5
C2
330
17
100
AcDbEntity
  8
COTA
100
AcDbLine
 10
7751.3
 20
11444.4
 30
0.0
 11
7785.0
 21
11444.4
 31
0.0
  0
TEXT
  5
C3
330
17
100
AcDbEntity
  8
COTA
100
AcDbText
 10
7774.5
 20
11423.3
 30
0.0
 40
4.0
  1
21
100
AcDbText
  0
LINE
  5
C4
330
17
100
AcDbEntity
  8
COTA
100
AcDbLine
 10
7600.7
 20
11073.9
 30
0.0
 11
7600.7
 21
11173.9
 31
0.0
  0
LINE
  5
C5
330
17
100
AcDbEntity
  8
COTA
100
AcDbLine
 10
7655.0
 20
11073.9
 30
0.0
 11
7595.7
 21
11073.9
 31
0.0
  0
LINE
  5
C6
330
17
100
AcDbEntity
  8
COTA
100
AcDbLine
 10
7637.4
 20
11173.9
 30
0.0
 11
7595.7
 21
11173.9
 31
0.0
  0
TEXT
  5
C7
330
17
100
AcDbEntity
  8
COTA
100
AcDbText
 10
7595.2
 20
11123.9
 30
0.0
 40
4.0
  1
50
100
AcDbText
  0
LINE
  5
C8
330
17
100
AcDbEntity
  8
COTA
100
AcDbLine
 10
7600.7
 20
11177.9
 30
0.0
 11
7600.7
 21
11201.9
 31
0.0
  0
LINE
  5
C9
330
17
100
AcDbEntity
  8
COTA
100
AcDbLine
 10
7637.4
 20
11177.9
 30
0.0
 11
7595.7
 21
11177.9
 31
0.0
  0
LINE
  5
CA
330
17
100
AcDbEntity
  8
COTA
100
AcDbLine
 10
7637.4
 20
11201.9
 30
0.0
 11
7595.7
 21
11201.9
 31
0.0
  0
TEXT
  5
CB
330
17
100
AcDbEntity
  8
COTA
100
AcDbText
 10
7595.2
 20
11189.9
 30
0.0
 40
4.0
  1
12
100
AcDbText
  0
LINE
  5
CC
330
17
100
AcDbEntity
  8
Cota Seção (2x)
100
AcDbLine
 10
7735.4
 20
11081.9
 30
0.0
 11
7735.4
 21
11201.9
 31
0.0
  0
LINE
  5
CD
330
17
100
AcDbEntity
  8
Cota Seção (2x)
100
AcDbLine
 10
7697.4
 20
11081.9
 30
0.0
 11
7740.4
 21
11081.9
 31
0.0
  0
LINE
  5
CE
330
17
100
AcDbEntity
  8
Cota Seção (2x)
100
AcDbLine
 10
7697.4
 20
11201.9
 30
0.0
 11
7740.4
 21
11201.9
 31
0.0
  0
TEXT
  5
CF
330
17
100
AcDbEntity
  8
Cota Seção (2x)
100
AcDbText
 10
7735.4
 20
11137.9
 30
0.0
 40
4.0
  1
60
100
AcDbText
  0
LINE
  5
D0
330
17
100
AcDbEntity
  8
Cota Seção (2x)
100
AcDbLine
 10
7697.4
 20
11081.9
 30
0.0
 11
7735.4
 21
11081.9
 31
0.0
  0
LINE
  5
D1
330
17
100
AcDbEntity
  8
Cota Seção (2x)
100
AcDbLine
 10
7735.4
 20
11073.9
 30
0.0
 11
7735.4
 21
11086.9
 31
0.0
  0
LINE
  5
D2
330
17
100
AcDbEntity
  8
Cota Seção (2x)
100
AcDbLine
 10
7697.4
 20
11073.9
 30
0.0
 11
7697.4
 21
11086.9
 31
0.0
  0
TEXT
  5
D3
330
17
100
AcDbEntity
  8
Cota Seção (2x)
100
AcDbText
 10
7716.4
 20
11093.4
 30
0.0
 40
4.0
  1
19
100
AcDbText
  0
LINE
  5
D4
330
17
100
AcDbEntity
  8
COTA
100
AcDbLine
 10
7813.4
 20
11073.9
 30
0.0
 11
7813.4
 21
11201.9
 31
0.0
  0
LINE
  5
D5
330
17
100
AcDbEntity
  8
COTA
100
AcDbLine
 10
7753.4
 20
11201.9
 30
0.0
 11
7818.4
 21
11201.9
 31
0.0
  0
LINE
  5
D6
330
17
100
AcDbEntity
  8
COTA
100
AcDbLine
 10
7753.4
 20
11073.9
 30
0.0
 11
7818.4
 21
11073.9
 31
0.0
  0
TEXT
  5
D7
330
17
100
AcDbEntity
  8
COTA
100
AcDbText
 10
7807.9
 20
11137.9
 30
0.0
 40
4.0
  1
64
100
AcDbText
  0
LINE
  5
D8
330
17
100
AcDbEntity
  8
COTA
100
AcDbLine
 10
7625.5
 20
11073.9
 30
0.0
 11
7625.5
 21
11123.9
 31
0.0
  0
LINE
  5
D9
330
17
100
AcDbEntity
  8
COTA
100
AcDbLine
 10
7644.1
 20
11123.9
 30
0.0
 11
7620.5
 21
11123.9
 31
0.0
  0
LINE
  5
DA
330
17
100
AcDbEntity
  8
COTA
100
AcDbLine
 10
7644.1
 20
11073.9
 30
0.0
 11
7620.5
 21
11073.9
 31
0.0
  0
TEXT
  5
DB
330
17
100
AcDbEntity
  8
COTA
100
AcDbText
 10
7620.0
 20
11098.9
 30
0.0
 40
4.0
  1
25
100
AcDbText
  0
LINE
  5
DC
330
17
100
AcDbEntity
  8
COTA
100
AcDbLine
 10
7635.8
 20
11366.4
 30
0.0
 11
7635.8
 21
11416.4
 31
0.0
  0
LINE
  5
DD
330
17
100
AcDbEntity
  8
COTA
100
AcDbLine
 10
7663.7
 20
11416.4
 30
0.0
 11
7630.8
 21
11416.4
 31
0.0
  0
LINE
  5
DE
330
17
100
AcDbEntity
  8
COTA
100
AcDbLine
 10
7663.7
 20
11366.4
 30
0.0
 11
7630.8
 21
11366.4
 31
0.0
  0
TEXT
  5
DF
330
17
100
AcDbEntity
  8
COTA
100
AcDbText
 10
7630.3
 20
11391.4
 30
0.0
 40
4.0
  1
25
100
AcDbText
  0
LINE
  5
E0
330
17
100
AcDbEntity
  8
COTA
100
AcDbLine
 10
7635.8
 20
11316.4
 30
0.0
 11
7635.8
 21
11366.4
 31
0.0
  0
LINE
  5
E1
330
17
100
AcDbEntity
  8
COTA
100
AcDbLine
 10
7663.7
 20
11366.4
 30
0.0
 11
7630.8
 21
11366.4
 31
0.0
  0
LINE
  5
E2
330
17
100
AcDbEntity
  8
COTA
100
AcDbLine
 10
7663.7
 20
11316.4
 30
0.0
 11
7630.8
 21
11316.4
 31
0.0
  0
TEXT
  5
E3
330
17
100
AcDbEntity
  8
COTA
100
AcDbText
 10
7630.3
 20
11341.4
 30
0.0
 40
4.0
  1
25
100
AcDbText
  0
LINE
  5
E4
330
17
100
AcDbEntity
  8
COTA
100
AcDbLine
 10
7780.0
 20
11358.4
 30
0.0
 11
7780.0
 21
11402.3
 31
0.0
  0
LINE
  5
E5
330
17
100
AcDbEntity
  8
COTA
100
AcDbLine
 10
7751.3
 20
11402.3
 30
0.0
 11
7785.0
 21
11402.3
 31
0.0
  0
LINE
  5
E6
330
17
100
AcDbEntity
  8
COTA
100
AcDbLine
 10
7751.3
 20
11358.4
 30
0.0
 11
7785.0
 21
11358.4
 31
0.0
  0
TEXT
  5
E7
330
17
100
AcDbEntity
  8
COTA
100
AcDbText
 10
7774.5
 20
11380.3
 30
0.0
 40
4.0
  1
22
100
AcDbText
  0
LINE
  5
E8
330
17
100
AcDbEntity
  8
COTA
100
AcDbLine
 10
7780.0
 20
11316.4
 30
0.0
 11
7780.0
 21
11358.4
 31
0.0
  0
LINE
  5
E9
330
17
100
AcDbEntity
  8
COTA
100
AcDbLine
 10
7751.3
 20
11358.4
 30
0.0
 11
7785.0
 21
11358.4
 31
0.0
  0
LINE
  5
EA
330
17
100
AcDbEntity
  8
COTA
100
AcDbLine
 10
7751.3
 20
11316.4
 30
0.0
 11
7785.0
 21
11316.4
 31
0.0
  0
TEXT
  5
EB
330
17
100
AcDbEntity
  8
COTA
100
AcDbText
 10
7774.5
 20
11337.4
 30
0.0
 40
4.0
  1
21
100
AcDbText
  0
LINE
  5
EC
330
17
100
AcDbEntity
  8
COTA
100
AcDbLine
 10
7855.2
 20
11476.0
 30
0.0
 11
7856.4
 21
11476.0
 31
0.0
  0
LINE
  5
ED
330
17
100
AcDbEntity
  8
COTA
100
AcDbLine
 10
7856.4
 20
11464.7
 30
0.0
 11
7856.4
 21
11481.0
 31
0.0
  0
LINE
  5
EE
330
17
100
AcDbEntity
  8
COTA
100
AcDbLine
 10
7855.2
 20
11464.7
 30
0.0
 11
7855.2
 21
11481.0
 31
0.0
  0
TEXT
  5
EF
330
17
100
AcDbEntity
  8
COTA
100
AcDbText
 10
7839.0
 20
11484.0
 30
0.0
 40
4.0
  1
1
100
AcDbText
  0
LINE
  5
F0
330
17
100
AcDbEntity
  8
COTA
100
AcDbLine
 10
8533.2
 20
11358.5
 30
0.0
 11
8686.4
 21
11358.5
 31
0.0
  0
LINE
  5
F1
330
17
100
AcDbEntity
  8
COTA
100
AcDbLine
 10
8686.4
 20
11385.0
 30
0.0
 11
8686.4
 21
11353.5
 31
0.0
  0
LINE
  5
F2
330
17
100
AcDbEntity
  8
COTA
100
AcDbLine
 10
8533.2
 20
11385.0
 30
0.0
 11
8533.2
 21
11353.5
 31
0.0
  0
TEXT
  5
F3
330
17
100
AcDbEntity
  8
COTA
100
AcDbText
 10
8609.8
 20
11366.7
 30
0.0
 40
4.0
  1
153
100
AcDbText
  0
LINE
  5
F4
330
17
100
AcDbEntity
  8
COTA
100
AcDbLine
 10
8686.4
 20
11358.5
 30
0.0
 11
8839.6
 21
11358.5
 31
0.0
  0
LINE
  5
F5
330
17
100
AcDbEntity
  8
COTA
100
AcDbLine
 10
8839.6
 20
11385.0
 30
0.0
 11
8839.6
 21
11353.5
 31
0.0
  0
LINE
  5
F6
330
17
100
AcDbEntity
  8
COTA
100
AcDbLine
 10
8686.4
 20
11385.0
 30
0.0
 11
8686.4
 21
11353.5
 31
0.0
  0
TEXT
  5
F7
330
17
100
AcDbEntity
  8
COTA
100
AcDbText
 10
8763.0
 20
11366.7
 30
0.0
 40
4.0
  1
153
100
AcDbText
  0
LINE
  5
F8
330
17
100
AcDbEntity
  8
COTA
100
AcDbLine
 10
8874.8
 20
11385.0
 30
0.0
 11
8874.8
 21
11435.0
 31
0.0
  0
LINE
  5
F9
330
17
100
AcDbEntity
  8
COTA
100
AcDbLine
 10
8839.6
 20
11385.0
 30
0.0
 11
8879.8
 21
11385.0
 31
0.0
  0
LINE
  5
FA
330
17
100
AcDbEntity
  8
COTA
100
AcDbLine
 10
8839.6
 20
11435.0
 30
0.0
 11
8879.8
 21
11435.0
 31
0.0
  0
TEXT
  5
FB
330
17
100
AcDbEntity
  8
COTA
100
AcDbText
 10
8866.7
 20
11410.0
 30
0.0
 40
4.0
  1
50
100
AcDbText
  0
LINE
  5
FC
330
17
100
AcDbEntity
  8
COTA
100
AcDbLine
 10
8533.2
 20
11324.9
 30
0.0
 11
8839.6
 21
11324.9
 31
0.0
  0
LINE
  5
FD
330
17
100
AcDbEntity
  8
COTA
100
AcDbLine
 10
8839.6
 20
11385.0
 30
0.0
 11
8839.6
 21
11319.9
 31
0.0
  0
LINE
  5
FE
330
17
100
AcDbEntity
  8
COTA
100
AcDbLine
 10
8533.2
 20
11385.0
 30
0.0
 11
8533.2
 21
11319.9
 31
0.0
  0
TEXT
  5
FF
330
17
100
AcDbEntity
  8
COTA
100
AcDbText
 10
8686.4
 20
11333.2
 30
0.0
 40
4.0
  1
306
100
AcDbText
  0
LINE
  5
100
330
17
100
AcDbEntity
  8
COTA
100
AcDbLine
 10
8874.8
 20
11435.0
 30
0.0
 11
8874.8
 21
11449.0
 31
0.0
  0
LINE
  5
101
330
17
100
AcDbEntity
  8
COTA
100
AcDbLine
 10
8839.6
 20
11435.0
 30
0.0
 11
8879.8
 21
11435.0
 31
0.0
  0
LINE
  5
102
330
17
100
AcDbEntity
  8
COTA
100
AcDbLine
 10
8839.6
 20
11449.0
 30
0.0
 11
8879.8
 21
11449.0
 31
0.0
  0
TEXT
  5
103
330
17
100
AcDbEntity
  8
COTA
100
AcDbText
 10
8866.7
 20
11460.1
 30
0.0
 40
4.0
  1
14
100
AcDbText
  0
LINE
  5
104
330
17
100
AcDbEntity
  8
COTA
100
AcDbLine
 10
8016.4
 20
11011.2
 30
0.0
 11
8185.2
 21
11011.2
 31
0.0
  0
LINE
  5
105
330
17
100
AcDbEntity
  8
COTA
100
AcDbLine
 10
8185.2
 20
11065.3
 30
0.0
 11
8185.2
 21
11006.2
 31
0.0
  0
LINE
  5
106
330
17
100
AcDbEntity
  8
COTA
100
AcDbLine
 10
8016.4
 20
11065.3
 30
0.0
 11
8016.4
 21
11006.2
 31
0.0
  0
TEXT
  5
107
330
17
100
AcDbEntity
  8
COTA
100
AcDbText
 10
8100.8
 20
11019.4
 30
0.0
 40
4.0
  1
169
100
AcDbText
  0
LINE
  5
108
330
17
100
AcDbEntity
  8
COTA
100
AcDbLine
 10
8185.2
 20
11011.2
 30
0.0
 11
8353.0
 21
11011.2
 31
0.0
  0
LINE
  5
109
330
17
100
AcDbEntity
  8
COTA
100
AcDbLine
 10
8353.0
 20
11065.3
 30
0.0
 11
8353.0
 21
11006.2
 31
0.0
  0
LINE
  5
10A
330
17
100
AcDbEntity
  8
COTA
100
AcDbLine
 10
8185.2
 20
11065.3
 30
0.0
 11
8185.2
 21
11006.2
 31
0.0
  0
TEXT
  5
10B
330
17
100
AcDbEntity
  8
COTA
100
AcDbText
 10
8269.1
 20
11019.4
 30
0.0
 40
4.0
  1
168
100
AcDbText
  0
LINE
  5
10C
330
17
100
AcDbEntity
  8
COTA
100
AcDbLine
 10
8016.4
 20
10984.9
 30
0.0
 11
8353.0
 21
10984.9
 31
0.0
  0
LINE
  5
10D
330
17
100
AcDbEntity
  8
COTA
100
AcDbLine
 10
8353.0
 20
11065.3
 30
0.0
 11
8353.0
 21
10979.9
 31
0.0
  0
LINE
  5
10E
330
17
100
AcDbEntity
  8
COTA
100
AcDbLine
 10
8016.4
 20
11065.3
 30
0.0
 11
8016.4
 21
10979.9
 31
0.0
  0
TEXT
  5
10F
330
17
100
AcDbEntity
  8
COTA
100
AcDbText
 10
8184.7
 20
10993.1
 30
0.0
 40
4.0
  1
337
100
AcDbText
  0
LINE
  5
110
330
17
100
AcDbEntity
  8
COTA
100
AcDbLine
 10
8465.2
 20
11324.9
 30
0.0
 11
8514.9
 21
11324.9
 31
0.0
  0
LINE
  5
111
330
17
100
AcDbEntity
  8
COTA
100
AcDbLine
 10
8465.2
 20
11385.0
 30
0.0
 11
8465.2
 21
11319.9
 31
0.0
  0
LINE
  5
112
330
17
100
AcDbEntity
  8
COTA
100
AcDbLine
 10
8514.9
 20
11385.0
 30
0.0
 11
8514.9
 21
11319.9
 31
0.0
  0
TEXT
  5
113
330
17
100
AcDbEntity
  8
COTA
100
AcDbText
 10
8490.0
 20
11333.1
 30
0.0
 40
4.0
  1
50
100
AcDbText
  0
LINE
  5
114
330
17
100
AcDbEntity
  8
COTA
100
AcDbLine
 10
8384.0
 20
10984.9
 30
0.0
 11
8437.6
 21
10984.9
 31
0.0
  0
LINE
  5
115
330
17
100
AcDbEntity
  8
COTA
100
AcDbLine
 10
8384.0
 20
11065.3
 30
0.0
 11
8384.0
 21
10979.9
 31
0.0
  0
LINE
  5
116
330
17
100
AcDbEntity
  8
COTA
100
AcDbLine
 10
8437.6
 20
11065.3
 30
0.0
 11
8437.6
 21
10979.9
 31
0.0
  0
TEXT
  5
117
330
17
100
AcDbEntity
  8
COTA
100
AcDbText
 10
8410.8
 20
10993.1
 30
0.0
 40
4.0
  1
54
100
AcDbText
  0
LINE
  5
118
330
17
100
AcDbEntity
  8
Cota Seção (2x)
100
AcDbLine
 10
8465.2
 20
11393.0
 30
0.0
 11
8494.2
 21
11393.0
 31
0.0
  0
LINE
  5
119
330
17
100
AcDbEntity
  8
Cota Seção (2x)
100
AcDbLine
 10
8465.2
 20
11385.0
 30
0.0
 11
8465.2
 21
11398.0
 31
0.0
  0
LINE
  5
11A
330
17
100
AcDbEntity
  8
Cota Seção (2x)
100
AcDbLine
 10
8494.2
 20
11385.0
 30
0.0
 11
8494.2
 21
11398.0
 31
0.0
  0
TEXT
  5
11B
330
17
100
AcDbEntity
  8
Cota Seção (2x)
100
AcDbText
 10
8479.7
 20
11401.0
 30
0.0
 40
4.0
  1
29
100
AcDbText
  0
LINE
  5
11C
330
17
100
AcDbEntity
  8
Cota Seção (2x)
100
AcDbLine
 10
6384.4
 20
11410.8
 30
0.0
 11
6474.4
 21
11410.8
 31
0.0
  0
LINE
  5
11D
330
17
100
AcDbEntity
  8
Cota Seção (2x)
100
AcDbLine
 10
6384.4
 20
11384.2
 30
0.0
 11
6384.4
 21
11415.8
 31
0.0
  0
LINE
  5
11E
330
17
100
AcDbEntity
  8
Cota Seção (2x)
100
AcDbLine
 10
6474.4
 20
11384.2
 30
0.0
 11
6474.4
 21
11415.8
 31
0.0
  0
TEXT
  5
11F
330
17
100
AcDbEntity
  8
Cota Seção (2x)
100
AcDbText
 10
6429.4
 20
11418.9
 30
0.0
 40
4.0
  1
90
100
AcDbText
  0
LINE
  5
120
330
17
100
AcDbEntity
  8
Cota Seção (2x)
100
AcDbLine
 10
6821.4
 20
11410.7
 30
0.0
 11
6911.4
 21
11410.7
 31
0.0
  0
LINE
  5
121
330
17
100
AcDbEntity
  8
Cota Seção (2x)
100
AcDbLine
 10
6821.4
 20
11384.2
 30
0.0
 11
6821.4
 21
11415.7
 31
0.0
  0
LINE
  5
122
330
17
100
AcDbEntity
  8
Cota Seção (2x)
100
AcDbLine
 10
6911.4
 20
11384.2
 30
0.0
 11
6911.4
 21
11415.7
 31
0.0
  0
TEXT
  5
123
330
17
100
AcDbEntity
  8
Cota Seção (2x)
100
AcDbText
 10
6866.4
 20
11418.8
 30
0.0
 40
4.0
  1
90
100
AcDbText
  0
LINE
  5
124
330
17
100
AcDbEntity
  8
COTA
100
AcDbLine
 10
6022.4
 20
11357.7
 30
0.0
 11
6266.4
 21
11357.7
 31
0.0
  0
LINE
  5
125
330
17
100
AcDbEntity
  8
COTA
100
AcDbLine
 10
6022.4
 20
11384.2
 30
0.0
 11
6022.4
 21
11352.7
 31
0.0
  0
LINE
  5
126
330
17
100
AcDbEntity
  8
COTA
100
AcDbLine
 10
6266.4
 20
11384.2
 30
0.0
 11
6266.4
 21
11352.7
 31
0.0
  0
TEXT
  5
127
330
17
100
AcDbEntity
  8
COTA
100
AcDbText
 10
6144.4
 20
11365.8
 30
0.0
 40
4.0
  1
244
100
AcDbText
  0
LINE
  5
128
330
17
100
AcDbEntity
  8
COTA
100
AcDbLine
 10
6022.4
 20
11324.2
 30
0.0
 11
7242.4
 21
11324.2
 31
0.0
  0
LINE
  5
129
330
17
100
AcDbEntity
  8
COTA
100
AcDbLine
 10
6022.4
 20
11384.2
 30
0.0
 11
6022.4
 21
11319.2
 31
0.0
  0
LINE
  5
12A
330
17
100
AcDbEntity
  8
COTA
100
AcDbLine
 10
7242.4
 20
11384.2
 30
0.0
 11
7242.4
 21
11319.2
 31
0.0
  0
TEXT
  5
12B
330
17
100
AcDbEntity
  8
COTA
100
AcDbText
 10
6632.4
 20
11332.3
 30
0.0
 40
4.0
  1
1220
100
AcDbText
  0
LINE
  5
12C
330
17
100
AcDbEntity
  8
COTA
100
AcDbLine
 10
6266.4
 20
11357.7
 30
0.0
 11
6510.4
 21
11357.7
 31
0.0
  0
LINE
  5
12D
330
17
100
AcDbEntity
  8
COTA
100
AcDbLine
 10
6266.4
 20
11384.2
 30
0.0
 11
6266.4
 21
11352.7
 31
0.0
  0
LINE
  5
12E
330
17
100
AcDbEntity
  8
COTA
100
AcDbLine
 10
6510.4
 20
11384.2
 30
0.0
 11
6510.4
 21
11352.7
 31
0.0
  0
TEXT
  5
12F
330
17
100
AcDbEntity
  8
COTA
100
AcDbText
 10
6388.4
 20
11365.8
 30
0.0
 40
4.0
  1
244
100
AcDbText
  0
LINE
  5
130
330
17
100
AcDbEntity
  8
COTA
100
AcDbLine
 10
6510.4
 20
11357.7
 30
0.0
 11
6754.4
 21
11357.7
 31
0.0
  0
LINE
  5
131
330
17
100
AcDbEntity
  8
COTA
100
AcDbLine
 10
6510.4
 20
11384.2
 30
0.0
 11
6510.4
 21
11352.7
 31
0.0
  0
LINE
  5
132
330
17
100
AcDbEntity
  8
COTA
100
AcDbLine
 10
6754.4
 20
11384.2
 30
0.0
 11
6754.4
 21
11352.7
 31
0.0
  0
TEXT
  5
133
330
17
100
AcDbEntity
  8
COTA
100
AcDbText
 10
6632.4
 20
11365.8
 30
0.0
 40
4.0
  1
244
100
AcDbText
  0
LINE
  5
134
330
17
100
AcDbEntity
  8
COTA
100
AcDbLine
 10
6754.4
 20
11357.7
 30
0.0
 11
6998.4
 21
11357.7
 31
0.0
  0
LINE
  5
135
330
17
100
AcDbEntity
  8
COTA
100
AcDbLine
 10
6754.4
 20
11384.2
 30
0.0
 11
6754.4
 21
11352.7
 31
0.0
  0
LINE
  5
136
330
17
100
AcDbEntity
  8
COTA
100
AcDbLine
 10
6998.4
 20
11384.2
 30
0.0
 11
6998.4
 21
11352.7
 31
0.0
  0
TEXT
  5
137
330
17
100
AcDbEntity
  8
COTA
100
AcDbText
 10
6876.4
 20
11365.8
 30
0.0
 40
4.0
  1
244
100
AcDbText
  0
LINE
  5
138
330
17
100
AcDbEntity
  8
Cota Seção (2x)
100
AcDbLine
 10
6998.4
 20
11357.7
 30
0.0
 11
7242.4
 21
11357.7
 31
0.0
  0
LINE
  5
139
330
17
100
AcDbEntity
  8
Cota Seção (2x)
100
AcDbLine
 10
6998.4
 20
11384.2
 30
0.0
 11
6998.4
 21
11352.7
 31
0.0
  0
LINE
  5
13A
330
17
100
AcDbEntity
  8
Cota Seção (2x)
100
AcDbLine
 10
7242.4
 20
11384.2
 30
0.0
 11
7242.4
 21
11352.7
 31
0.0
  0
TEXT
  5
13B
330
17
100
AcDbEntity
  8
Cota Seção (2x)
100
AcDbText
 10
7120.4
 20
11365.8
 30
0.0
 40
4.0
  1
244
100
AcDbText
  0
LINE
  5
13C
330
17
100
AcDbEntity
  8
Cota Seção (2x)
100
AcDbLine
 10
6474.4
 20
11410.8
 30
0.0
 11
6510.4
 21
11410.8
 31
0.0
  0
LINE
  5
13D
330
17
100
AcDbEntity
  8
Cota Seção (2x)
100
AcDbLine
 10
6474.4
 20
11410.8
 30
0.0
 11
6474.4
 21
11415.8
 31
0.0
  0
LINE
  5
13E
330
17
100
AcDbEntity
  8
Cota Seção (2x)
100
AcDbLine
 10
6510.4
 20
11410.8
 30
0.0
 11
6510.4
 21
11415.8
 31
0.0
  0
TEXT
  5
13F
330
17
100
AcDbEntity
  8
Cota Seção (2x)
100
AcDbText
 10
6492.4
 20
11419.0
 30
0.0
 40
4.0
  1
36
100
AcDbText
  0
LINE
  5
140
330
17
100
AcDbEntity
  8
Cota Seção (2x)
100
AcDbLine
 10
6509.8
 20
11191.3
 30
0.0
 11
6564.8
 21
11191.3
 31
0.0
  0
LINE
  5
141
330
17
100
AcDbEntity
  8
Cota Seção (2x)
100
AcDbLine
 10
6509.8
 20
11164.7
 30
0.0
 11
6509.8
 21
11196.3
 31
0.0
  0
LINE
  5
142
330
17
100
AcDbEntity
  8
Cota Seção (2x)
100
AcDbLine
 10
6564.8
 20
11164.7
 30
0.0
 11
6564.8
 21
11196.3
 31
0.0
  0
TEXT
  5
143
330
17
100
AcDbEntity
  8
Cota Seção (2x)
100
AcDbText
 10
6537.3
 20
11199.4
 30
0.0
 40
4.0
  1
55
100
AcDbText
  0
LINE
  5
144
330
17
100
AcDbEntity
  8
Cota Seção (2x)
100
AcDbLine
 10
6911.8
 20
11191.2
 30
0.0
 11
6997.8
 21
11191.2
 31
0.0
  0
LINE
  5
145
330
17
100
AcDbEntity
  8
Cota Seção (2x)
100
AcDbLine
 10
6911.8
 20
11164.7
 30
0.0
 11
6911.8
 21
11196.2
 31
0.0
  0
LINE
  5
146
330
17
100
AcDbEntity
  8
Cota Seção (2x)
100
AcDbLine
 10
6997.8
 20
11164.7
 30
0.0
 11
6997.8
 21
11196.2
 31
0.0
  0
TEXT
  5
147
330
17
100
AcDbEntity
  8
Cota Seção (2x)
100
AcDbText
 10
6954.8
 20
11199.3
 30
0.0
 40
4.0
  1
86
100
AcDbText
  0
LINE
  5
148
330
17
100
AcDbEntity
  8
COTA
100
AcDbLine
 10
6021.8
 20
11138.2
 30
0.0
 11
6265.8
 21
11138.2
 31
0.0
  0
LINE
  5
149
330
17
100
AcDbEntity
  8
COTA
100
AcDbLine
 10
6021.8
 20
11164.7
 30
0.0
 11
6021.8
 21
11133.2
 31
0.0
  0
LINE
  5
14A
330
17
100
AcDbEntity
  8
COTA
100
AcDbLine
 10
6265.8
 20
11164.7
 30
0.0
 11
6265.8
 21
11133.2
 31
0.0
  0
TEXT
  5
14B
330
17
100
AcDbEntity
  8
COTA
100
AcDbText
 10
6143.8
 20
11146.3
 30
0.0
 40
4.0
  1
244
100
AcDbText
  0
LINE
  5
14C
330
17
100
AcDbEntity
  8
COTA
100
AcDbLine
 10
6265.8
 20
11138.2
 30
0.0
 11
6509.8
 21
11138.2
 31
0.0
  0
LINE
  5
14D
330
17
100
AcDbEntity
  8
COTA
100
AcDbLine
 10
6265.8
 20
11164.7
 30
0.0
 11
6265.8
 21
11133.2
 31
0.0
  0
LINE
  5
14E
330
17
100
AcDbEntity
  8
COTA
100
AcDbLine
 10
6509.8
 20
11164.7
 30
0.0
 11
6509.8
 21
11133.2
 31
0.0
  0
TEXT
  5
14F
330
17
100
AcDbEntity
  8
COTA
100
AcDbText
 10
6387.8
 20
11146.3
 30
0.0
 40
4.0
  1
244
100
AcDbText
  0
LINE
  5
150
330
17
100
AcDbEntity
  8
COTA
100
AcDbLine
 10
6509.8
 20
11138.2
 30
0.0
 11
6753.8
 21
11138.2
 31
0.0
  0
LINE
  5
151
330
17
100
AcDbEntity
  8
COTA
100
AcDbLine
 10
6509.8
 20
11164.7
 30
0.0
 11
6509.8
 21
11133.2
 31
0.0
  0
LINE
  5
152
330
17
100
AcDbEntity
  8
COTA
100
AcDbLine
 10
6753.8
 20
11164.7
 30
0.0
 11
6753.8
 21
11133.2
 31
0.0
  0
TEXT
  5
153
330
17
100
AcDbEntity
  8
COTA
100
AcDbText
 10
6631.8
 20
11146.3
 30
0.0
 40
4.0
  1
244
100
AcDbText
  0
LINE
  5
154
330
17
100
AcDbEntity
  8
COTA
100
AcDbLine
 10
6753.8
 20
11138.2
 30
0.0
 11
6997.8
 21
11138.2
 31
0.0
  0
LINE
  5
155
330
17
100
AcDbEntity
  8
COTA
100
AcDbLine
 10
6753.8
 20
11164.7
 30
0.0
 11
6753.8
 21
11133.2
 31
0.0
  0
LINE
  5
156
330
17
100
AcDbEntity
  8
COTA
100
AcDbLine
 10
6997.8
 20
11164.7
 30
0.0
 11
6997.8
 21
11133.2
 31
0.0
  0
TEXT
  5
157
330
17
100
AcDbEntity
  8
COTA
100
AcDbText
 10
6875.8
 20
11146.3
 30
0.0
 40
4.0
  1
244
100
AcDbText
  0
LINE
  5
158
330
17
100
AcDbEntity
  8
Cota Seção (2x)
100
AcDbLine
 10
6474.8
 20
11191.3
 30
0.0
 11
6509.8
 21
11191.3
 31
0.0
  0
LINE
  5
159
330
17
100
AcDbEntity
  8
Cota Seção (2x)
100
AcDbLine
 10
6509.8
 20
11191.3
 30
0.0
 11
6509.8
 21
11196.3
 31
0.0
  0
LINE
  5
15A
330
17
100
AcDbEntity
  8
Cota Seção (2x)
100
AcDbLine
 10
6474.8
 20
11191.3
 30
0.0
 11
6474.8
 21
11196.3
 31
0.0
  0
TEXT
  5
15B
330
17
100
AcDbEntity
  8
Cota Seção (2x)
100
AcDbText
 10
6492.3
 20
11199.5
 30
0.0
 40
4.0
  1
35
100
AcDbText
  0
LINE
  5
15C
330
17
100
AcDbEntity
  8
COTA
100
AcDbLine
 10
6024.5
 20
10932.0
 30
0.0
 11
6159.5
 21
10932.0
 31
0.0
  0
LINE
  5
15D
330
17
100
AcDbEntity
  8
COTA
100
AcDbLine
 10
6024.5
 20
10958.6
 30
0.0
 11
6024.5
 21
10927.0
 31
0.0
  0
LINE
  5
15E
330
17
100
AcDbEntity
  8
COTA
100
AcDbLine
 10
6159.5
 20
10958.6
 30
0.0
 11
6159.5
 21
10927.0
 31
0.0
  0
TEXT
  5
15F
330
17
100
AcDbEntity
  8
COTA
100
AcDbText
 10
6092.0
 20
10940.3
 30
0.0
 40
4.0
  1
135
100
AcDbText
  0
LINE
  5
160
330
17
100
AcDbEntity
  8
COTA
100
AcDbLine
 10
6159.5
 20
10932.0
 30
0.0
 11
6405.5
 21
10932.0
 31
0.0
  0
LINE
  5
161
330
17
100
AcDbEntity
  8
COTA
100
AcDbLine
 10
6159.5
 20
10958.6
 30
0.0
 11
6159.5
 21
10927.0
 31
0.0
  0
LINE
  5
162
330
17
100
AcDbEntity
  8
COTA
100
AcDbLine
 10
6405.5
 20
10958.6
 30
0.0
 11
6405.5
 21
10927.0
 31
0.0
  0
TEXT
  5
163
330
17
100
AcDbEntity
  8
COTA
100
AcDbText
 10
6282.5
 20
10940.1
 30
0.0
 40
4.0
  1
246
100
AcDbText
  0
LINE
  5
164
330
17
100
AcDbEntity
  8
COTA
100
AcDbLine
 10
6024.5
 20
10898.5
 30
0.0
 11
6405.5
 21
10898.5
 31
0.0
  0
LINE
  5
165
330
17
100
AcDbEntity
  8
COTA
100
AcDbLine
 10
6024.5
 20
10958.6
 30
0.0
 11
6024.5
 21
10893.5
 31
0.0
  0
LINE
  5
166
330
17
100
AcDbEntity
  8
COTA
100
AcDbLine
 10
6405.5
 20
10958.6
 30
0.0
 11
6405.5
 21
10893.5
 31
0.0
  0
TEXT
  5
167
330
17
100
AcDbEntity
  8
COTA
100
AcDbText
 10
6215.0
 20
10906.7
 30
0.0
 40
4.0
  1
381
100
AcDbText
  0
LINE
  5
168
330
17
100
AcDbEntity
  8
COTA
100
AcDbLine
 10
6478.0
 20
10932.0
 30
0.0
 11
6724.0
 21
10932.0
 31
0.0
  0
LINE
  5
169
330
17
100
AcDbEntity
  8
COTA
100
AcDbLine
 10
6478.0
 20
10958.6
 30
0.0
 11
6478.0
 21
10927.0
 31
0.0
  0
LINE
  5
16A
330
17
100
AcDbEntity
  8
COTA
100
AcDbLine
 10
6724.0
 20
10958.6
 30
0.0
 11
6724.0
 21
10927.0
 31
0.0
  0
TEXT
  5
16B
330
17
100
AcDbEntity
  8
COTA
100
AcDbText
 10
6601.0
 20
10940.1
 30
0.0
 40
4.0
  1
246
100
AcDbText
  0
LINE
  5
16C
330
17
100
AcDbEntity
  8
COTA
100
AcDbLine
 10
6724.0
 20
10932.0
 30
0.0
 11
6873.0
 21
10932.0
 31
0.0
  0
LINE
  5
16D
330
17
100
AcDbEntity
  8
COTA
100
AcDbLine
 10
6724.0
 20
10958.6
 30
0.0
 11
6724.0
 21
10927.0
 31
0.0
  0
LINE
  5
16E
330
17
100
AcDbEntity
  8
COTA
100
AcDbLine
 10
6873.0
 20
10958.6
 30
0.0
 11
6873.0
 21
10927.0
 31
0.0
  0
TEXT
  5
16F
330
17
100
AcDbEntity
  8
COTA
100
AcDbText
 10
6798.5
 20
10940.1
 30
0.0
 40
4.0
  1
149
100
AcDbText
  0
LINE
  5
170
330
17
100
AcDbEntity
  8
COTA
100
AcDbLine
 10
6478.0
 20
10898.5
 30
0.0
 11
6873.0
 21
10898.5
 31
0.0
  0
LINE
  5
171
330
17
100
AcDbEntity
  8
COTA
100
AcDbLine
 10
6478.0
 20
10958.6
 30
0.0
 11
6478.0
 21
10893.5
 31
0.0
  0
LINE
  5
172
330
17
100
AcDbEntity
  8
COTA
100
AcDbLine
 10
6873.0
 20
10958.6
 30
0.0
 11
6873.0
 21
10893.5
 31
0.0
  0
TEXT
  5
173
330
17
100
AcDbEntity
  8
COTA
100
AcDbText
 10
6675.5
 20
10906.7
 30
0.0
 40
4.0
  1
395
100
AcDbText
  0
LINE
  5
174
330
17
100
AcDbEntity
  8
Cota Seção (2x)
100
AcDbLine
 10
6754.4
 20
11410.7
 30
0.0
 11
6821.4
 21
11410.7
 31
0.0
  0
LINE
  5
175
330
17
100
AcDbEntity
  8
Cota Seção (2x)
100
AcDbLine
 10
6821.4
 20
11410.7
 30
0.0
 11
6821.4
 21
11415.7
 31
0.0
  0
LINE
  5
176
330
17
100
AcDbEntity
  8
Cota Seção (2x)
100
AcDbLine
 10
6754.4
 20
11410.7
 30
0.0
 11
6754.4
 21
11415.7
 31
0.0
  0
TEXT
  5
177
330
17
100
AcDbEntity
  8
Cota Seção (2x)
100
AcDbText
 10
6787.9
 20
11418.8
 30
0.0
 40
4.0
  1
67
100
AcDbText
  0
LINE
  5
178
330
17
100
AcDbEntity
  8
COTA
100
AcDbLine
 10
7286.5
 20
11384.2
 30
0.0
 11
7286.5
 21
11448.2
 31
0.0
  0
LINE
  5
179
330
17
100
AcDbEntity
  8
COTA
100
AcDbLine
 10
7242.4
 20
11448.2
 30
0.0
 11
7291.5
 21
11448.2
 31
0.0
  0
LINE
  5
17A
330
17
100
AcDbEntity
  8
COTA
100
AcDbLine
 10
7242.4
 20
11384.2
 30
0.0
 11
7291.5
 21
11384.2
 31
0.0
  0
TEXT
  5
17B
330
17
100
AcDbEntity
  8
COTA
100
AcDbText
 10
7278.4
 20
11416.2
 30
0.0
 40
4.0
  1
64
100
AcDbText
  0
LINE
  5
17C
330
17
100
AcDbEntity
  8
COTA
100
AcDbLine
 10
7026.8
 20
11164.7
 30
0.0
 11
7026.8
 21
11228.7
 31
0.0
  0
LINE
  5
17D
330
17
100
AcDbEntity
  8
COTA
100
AcDbLine
 10
6997.8
 20
11228.7
 30
0.0
 11
7031.8
 21
11228.7
 31
0.0
  0
LINE
  5
17E
330
17
100
AcDbEntity
  8
COTA
100
AcDbLine
 10
6997.8
 20
11164.7
 30
0.0
 11
7031.8
 21
11164.7
 31
0.0
  0
TEXT
  5
17F
330
17
100
AcDbEntity
  8
COTA
100
AcDbText
 10
7018.7
 20
11196.7
 30
0.0
 40
4.0
  1
64
100
AcDbText
  0
LINE
  5
180
330
17
100
AcDbEntity
  8
COTA
100
AcDbLine
 10
6902.1
 20
10958.6
 30
0.0
 11
6902.1
 21
11022.6
 31
0.0
  0
LINE
  5
181
330
17
100
AcDbEntity
  8
COTA
100
AcDbLine
 10
6873.0
 20
11022.6
 30
0.0
 11
6907.1
 21
11022.6
 31
0.0
  0
LINE
  5
182
330
17
100
AcDbEntity
  8
COTA
100
AcDbLine
 10
6873.0
 20
10958.6
 30
0.0
 11
6907.1
 21
10958.6
 31
0.0
  0
TEXT
  5
183
330
17
100
AcDbEntity
  8
COTA
100
AcDbText
 10
6894.0
 20
10990.6
 30
0.0
 40
4.0
  1
64
100
AcDbText
  0
LINE
  5
184
330
17
100
AcDbEntity
  8
COTA
100
AcDbLine
 10
8013.2
 20
11358.5
 30
0.0
 11
8257.2
 21
11358.5
 31
0.0
  0
LINE
  5
185
330
17
100
AcDbEntity
  8
COTA
100
AcDbLine
 10
8013.2
 20
11385.0
 30
0.0
 11
8013.2
 21
11353.5
 31
0.0
  0
LINE
  5
186
330
17
100
AcDbEntity
  8
COTA
100
AcDbLine
 10
8257.2
 20
11385.0
 30
0.0
 11
8257.2
 21
11353.5
 31
0.0
  0
TEXT
  5
187
330
17
100
AcDbEntity
  8
COTA
100
AcDbText
 10
8135.2
 20
11366.6
 30
0.0
 40
4.0
  1
244
100
AcDbText
  0
LINE
  5
188
330
17
100
AcDbEntity
  8
COTA
100
AcDbLine
 10
8257.2
 20
11358.5
 30
0.0
 11
8389.2
 21
11358.5
 31
0.0
  0
LINE
  5
189
330
17
100
AcDbEntity
  8
COTA
100
AcDbLine
 10
8257.2
 20
11385.0
 30
0.0
 11
8257.2
 21
11353.5
 31
0.0
  0
LINE
  5
18A
330
17
100
AcDbEntity
  8
COTA
100
AcDbLine
 10
8389.2
 20
11385.0
 30
0.0
 11
8389.2
 21
11353.5
 31
0.0
  0
TEXT
  5
18B
330
17
100
AcDbEntity
  8
COTA
100
AcDbText
 10
8323.2
 20
11366.7
 30
0.0
 40
4.0
  1
132
100
AcDbText
  0
LINE
  5
18C
330
17
100
AcDbEntity
  8
COTA
100
AcDbLine
 10
8013.2
 20
11324.9
 30
0.0
 11
8389.2
 21
11324.9
 31
0.0
  0
LINE
  5
18D
330
17
100
AcDbEntity
  8
COTA
100
AcDbLine
 10
8013.2
 20
11385.0
 30
0.0
 11
8013.2
 21
11319.9
 31
0.0
  0
LINE
  5
18E
330
17
100
AcDbEntity
  8
COTA
100
AcDbLine
 10
8389.2
 20
11385.0
 30
0.0
 11
8389.2
 21
11319.9
 31
0.0
  0
TEXT
  5
18F
330
17
100
AcDbEntity
  8
COTA
100
AcDbText
 10
8201.2
 20
11333.2
 30
0.0
 40
4.0
  1
376
100
AcDbText
  0
LINE
  5
190
330
17
100
AcDbEntity
  8
COTA
100
AcDbLine
 10
8411.6
 20
11385.0
 30
0.0
 11
8411.6
 21
11435.0
 31
0.0
  0
LINE
  5
191
330
17
100
AcDbEntity
  8
COTA
100
AcDbLine
 10
8389.2
 20
11435.0
 30
0.0
 11
8416.6
 21
11435.0
 31
0.0
  0
LINE
  5
192
330
17
100
AcDbEntity
  8
COTA
100
AcDbLine
 10
8389.2
 20
11385.0
 30
0.0
 11
8416.6
 21
11385.0
 31
0.0
  0
TEXT
  5
193
330
17
100
AcDbEntity
  8
COTA
100
AcDbText
 10
8403.5
 20
11410.0
 30
0.0
 40
4.0
  1
50
100
AcDbText
  0
LINE
  5
194
330
17
100
AcDbEntity
  8
COTA
100
AcDbLine
 10
8411.6
 20
11435.0
 30
0.0
 11
8411.6
 21
11449.0
 31
0.0
  0
LINE
  5
195
330
17
100
AcDbEntity
  8
COTA
100
AcDbLine
 10
8389.2
 20
11435.0
 30
0.0
 11
8416.6
 21
11435.0
 31
0.0
  0
LINE
  5
196
330
17
100
AcDbEntity
  8
COTA
100
AcDbLine
 10
8389.2
 20
11449.0
 30
0.0
 11
8416.6
 21
11449.0
 31
0.0
  0
TEXT
  5
197
330
17
100
AcDbEntity
  8
COTA
100
AcDbText
 10
8403.6
 20
11460.1
 30
0.0
 40
4.0
  1
14
100
AcDbText
  0
LINE
  5
198
330
17
100
AcDbEntity
  8
COTA
100
AcDbLine
 10
8433.3
 20
11385.0
 30
0.0
 11
8433.3
 21
11449.0
 31
0.0
  0
LINE
  5
199
330
17
100
AcDbEntity
  8
COTA
100
AcDbLine
 10
8389.2
 20
11449.0
 30
0.0
 11
8438.3
 21
11449.0
 31
0.0
  0
LINE
  5
19A
330
17
100
AcDbEntity
  8
COTA
100
AcDbLine
 10
8389.2
 20
11385.0
 30
0.0
 11
8438.3
 21
11385.0
 31
0.0
  0
TEXT
  5
19B
330
17
100
AcDbEntity
  8
COTA
100
AcDbText
 10
8425.2
 20
11417.0
 30
0.0
 40
4.0
  1
64
100
AcDbText
  0
LINE
  5
19C
330
17
100
AcDbEntity
  8
COTA
100
AcDbLine
 10
8459.9
 20
11011.2
 30
0.0
 11
8657.9
 21
11011.2
 31
0.0
  0
LINE
  5
19D
330
17
100
AcDbEntity
  8
COTA
100
AcDbLine
 10
8459.9
 20
11065.3
 30
0.0
 11
8459.9
 21
11006.2
 31
0.0
  0
LINE
  5
19E
330
17
100
AcDbEntity
  8
COTA
100
AcDbLine
 10
8657.9
 20
11065.3
 30
0.0
 11
8657.9
 21
11006.2
 31
0.0
  0
TEXT
  5
19F
330
17
100
AcDbEntity
  8
COTA
100
AcDbText
 10
8558.9
 20
11019.3
 30
0.0
 40
4.0
  1
198
100
AcDbText
  0
LINE
  5
1A0
330
17
100
AcDbEntity
  8
COTA
100
AcDbLine
 10
8657.9
 20
11038.7
 30
0.0
 11
8779.9
 21
11038.7
 31
0.0
  0
LINE
  5
1A1
330
17
100
AcDbEntity
  8
COTA
100
AcDbLine
 10
8657.9
 20
11065.3
 30
0.0
 11
8657.9
 21
11033.7
 31
0.0
  0
LINE
  5
1A2
330
17
100
AcDbEntity
  8
COTA
100
AcDbLine
 10
8779.9
 20
11065.3
 30
0.0
 11
8779.9
 21
11033.7
 31
0.0
  0
TEXT
  5
1A3
330
17
100
AcDbEntity
  8
COTA
100
AcDbText
 10
8718.9
 20
11046.8
 30
0.0
 40
4.0
  1
122
100
AcDbText
  0
LINE
  5
1A4
330
17
100
AcDbEntity
  8
COTA
100
AcDbLine
 10
8779.9
 20
11038.7
 30
0.0
 11
8835.9
 21
11038.7
 31
0.0
  0
LINE
  5
1A5
330
17
100
AcDbEntity
  8
COTA
100
AcDbLine
 10
8779.9
 20
11065.3
 30
0.0
 11
8779.9
 21
11033.7
 31
0.0
  0
LINE
  5
1A6
330
17
100
AcDbEntity
  8
COTA
100
AcDbLine
 10
8835.9
 20
11065.3
 30
0.0
 11
8835.9
 21
11033.7
 31
0.0
  0
TEXT
  5
1A7
330
17
100
AcDbEntity
  8
COTA
100
AcDbText
 10
8807.9
 20
11046.8
 30
0.0
 40
4.0
  1
56
100
AcDbText
  0
LINE
  5
1A8
330
17
100
AcDbEntity
  8
COTA
100
AcDbLine
 10
8657.9
 20
11011.2
 30
0.0
 11
8835.9
 21
11011.2
 31
0.0
  0
LINE
  5
1A9
330
17
100
AcDbEntity
  8
COTA
100
AcDbLine
 10
8657.9
 20
11065.3
 30
0.0
 11
8657.9
 21
11006.2
 31
0.0
  0
LINE
  5
1AA
330
17
100
AcDbEntity
  8
COTA
100
AcDbLine
 10
8835.9
 20
11065.3
 30
0.0
 11
8835.9
 21
11006.2
 31
0.0
  0
TEXT
  5
1AB
330
17
100
AcDbEntity
  8
COTA
100
AcDbText
 10
8746.9
 20
11019.3
 30
0.0
 40
4.0
  1
178
100
AcDbText
  0
LINE
  5
1AC
330
17
100
AcDbEntity
  8
COTA
100
AcDbLine
 10
8459.9
 20
10984.9
 30
0.0
 11
8835.9
 21
10984.9
 31
0.0
  0
LINE
  5
1AD
330
17
100
AcDbEntity
  8
COTA
100
AcDbLine
 10
8459.9
 20
11065.3
 30
0.0
 11
8459.9
 21
10979.9
 31
0.0
  0
LINE
  5
1AE
330
17
100
AcDbEntity
  8
COTA
100
AcDbLine
 10
8835.9
 20
11065.3
 30
0.0
 11
8835.9
 21
10979.9
 31
0.0
  0
TEXT
  5
1AF
330
17
100
AcDbEntity
  8
COTA
100
AcDbText
 10
8647.9
 20
10993.1
 30
0.0
 40
4.0
  1
376
100
AcDbText
  0
LINE
  5
1B0
330
17
100
AcDbEntity
  8
Cota Seção (2x)
100
AcDbLine
 10
8363.2
 20
11392.1
 30
0.0
 11
8389.2
 21
11392.1
 31
0.0
  0
LINE
  5
1B1
330
17
100
AcDbEntity
  8
Cota Seção (2x)
100
AcDbLine
 10
8363.2
 20
11385.0
 30
0.0
 11
8363.2
 21
11397.1
 31
0.0
  0
LINE
  5
1B2
330
17
100
AcDbEntity
  8
Cota Seção (2x)
100
AcDbLine
 10
8389.2
 20
11385.0
 30
0.0
 11
8389.2
 21
11397.1
 31
0.0
  0
TEXT
  5
1B3
330
17
100
AcDbEntity
  8
Cota Seção (2x)
100
AcDbText
 10
8376.2
 20
11400.2
 30
0.0
 40
4.0
  1
26
100
AcDbText
  0
LINE
  5
1B4
330
17
100
AcDbEntity
  8
Cota Seção (2x)
100
AcDbLine
 10
8825.9
 20
11091.6
 30
0.0
 11
8835.9
 21
11091.6
 31
0.0
  0
LINE
  5
1B5
330
17
100
AcDbEntity
  8
Cota Seção (2x)
100
AcDbLine
 10
8825.9
 20
11085.7
 30
0.0
 11
8825.9
 21
11096.6
 31
0.0
  0
LINE
  5
1B6
330
17
100
AcDbEntity
  8
Cota Seção (2x)
100
AcDbLine
 10
8835.9
 20
11085.7
 30
0.0
 11
8835.9
 21
11096.6
 31
0.0
  0
TEXT
  5
1B7
330
17
100
AcDbEntity
  8
Cota Seção (2x)
100
AcDbText
 10
8846.6
 20
11099.7
 30
0.0
 40
4.0
  1
10
100
AcDbText
  0
LINE
  5
1B8
330
17
100
AcDbEntity
  8
Cota Seção (2x)
100
AcDbLine
 10
8459.9
 20
11094.7
 30
0.0
 11
8488.9
 21
11094.7
 31
0.0
  0
LINE
  5
1B9
330
17
100
AcDbEntity
  8
Cota Seção (2x)
100
AcDbLine
 10
8488.9
 20
11094.7
 30
0.0
 11
8488.9
 21
11099.7
 31
0.0
  0
LINE
  5
1BA
330
17
100
AcDbEntity
  8
Cota Seção (2x)
100
AcDbLine
 10
8459.9
 20
11094.7
 30
0.0
 11
8459.9
 21
11099.7
 31
0.0
  0
TEXT
  5
1BB
330
17
100
AcDbEntity
  8
Cota Seção (2x)
100
AcDbText
 10
8474.4
 20
11102.8
 30
0.0
 40
4.0
  1
29
100
AcDbText
  0
LINE
  5
1BC
330
17
100
AcDbEntity
  8
COTA
100
AcDbLine
 10
8879.9
 20
11065.3
 30
0.0
 11
8879.9
 21
11129.3
 31
0.0
  0
LINE
  5
1BD
330
17
100
AcDbEntity
  8
COTA
100
AcDbLine
 10
8835.9
 20
11129.3
 30
0.0
 11
8884.9
 21
11129.3
 31
0.0
  0
LINE
  5
1BE
330
17
100
AcDbEntity
  8
COTA
100
AcDbLine
 10
8835.9
 20
11065.3
 30
0.0
 11
8884.9
 21
11065.3
 31
0.0
  0
TEXT
  5
1BF
330
17
100
AcDbEntity
  8
COTA
100
AcDbText
 10
8871.8
 20
11097.3
 30
0.0
 40
4.0
  1
64
100
AcDbText
  0
LINE
  5
1C0
330
17
100
AcDbEntity
  8
Cota Seção (2x)
100
AcDbLine
 10
6738.0
 20
10305.4
 30
0.0
 11
6838.0
 21
10305.4
 31
0.0
  0
LINE
  5
1C1
330
17
100
AcDbEntity
  8
Cota Seção (2x)
100
AcDbLine
 10
6738.0
 20
10305.4
 30
0.0
 11
6738.0
 21
10310.4
 31
0.0
  0
LINE
  5
1C2
330
17
100
AcDbEntity
  8
Cota Seção (2x)
100
AcDbLine
 10
6838.0
 20
10305.4
 30
0.0
 11
6838.0
 21
10310.4
 31
0.0
  0
TEXT
  5
1C3
330
17
100
AcDbEntity
  8
Cota Seção (2x)
100
AcDbText
 10
6788.0
 20
10313.5
 30
0.0
 40
4.0
  1
100
100
AcDbText
  0
LINE
  5
1C4
330
17
100
AcDbEntity
  8
Cota Seção (2x)
100
AcDbLine
 10
6635.0
 20
10305.4
 30
0.0
 11
6738.0
 21
10305.4
 31
0.0
  0
LINE
  5
1C5
330
17
100
AcDbEntity
  8
Cota Seção (2x)
100
AcDbLine
 10
6738.0
 20
10305.4
 30
0.0
 11
6738.0
 21
10310.4
 31
0.0
  0
LINE
  5
1C6
330
17
100
AcDbEntity
  8
Cota Seção (2x)
100
AcDbLine
 10
6635.0
 20
10305.4
 30
0.0
 11
6635.0
 21
10310.4
 31
0.0
  0
TEXT
  5
1C7
330
17
100
AcDbEntity
  8
Cota Seção (2x)
100
AcDbText
 10
6686.5
 20
10313.6
 30
0.0
 40
4.0
  1
103
100
AcDbText
  0
LINE
  5
1C8
330
17
100
AcDbEntity
  8
Cota Seção (2x)
100
AcDbLine
 10
7025.4
 20
10278.9
 30
0.0
 11
7025.4
 21
10342.9
 31
0.0
  0
LINE
  5
1C9
330
17
100
AcDbEntity
  8
Cota Seção (2x)
100
AcDbLine
 10
7004.0
 20
10278.9
 30
0.0
 11
7030.4
 21
10278.9
 31
0.0
  0
LINE
  5
1CA
330
17
100
AcDbEntity
  8
Cota Seção (2x)
100
AcDbLine
 10
7004.0
 20
10342.9
 30
0.0
 11
7030.4
 21
10342.9
 31
0.0
  0
TEXT
  5
1CB
330
17
100
AcDbEntity
  8
Cota Seção (2x)
100
AcDbText
 10
7017.3
 20
10310.9
 30
0.0
 40
4.0
  1
64
100
AcDbText
  0
LINE
  5
1CC
330
17
100
AcDbEntity
  8
COTA
100
AcDbLine
 10
7971.6
 20
10278.8
 30
0.0
 11
8093.6
 21
10278.8
 31
0.0
  0
LINE
  5
1CD
330
17
100
AcDbEntity
  8
COTA
100
AcDbLine
 10
7971.6
 20
10308.3
 30
0.0
 11
7971.6
 21
10273.8
 31
0.0
  0
LINE
  5
1CE
330
17
100
AcDbEntity
  8
COTA
100
AcDbLine
 10
8093.6
 20
10308.3
 30
0.0
 11
8093.6
 21
10273.8
 31
0.0
  0
TEXT
  5
1CF
330
17
100
AcDbEntity
  8
COTA
100
AcDbText
 10
8032.6
 20
10286.8
 30
0.0
 40
4.0
  1
122
100
AcDbText
  0
LINE
  5
1D0
330
17
100
AcDbEntity
  8
COTA
100
AcDbLine
 10
8093.6
 20
10278.8
 30
0.0
 11
8177.1
 21
10278.8
 31
0.0
  0
LINE
  5
1D1
330
17
100
AcDbEntity
  8
COTA
100
AcDbLine
 10
8093.6
 20
10308.3
 30
0.0
 11
8093.6
 21
10273.8
 31
0.0
  0
LINE
  5
1D2
330
17
100
AcDbEntity
  8
COTA
100
AcDbLine
 10
8177.1
 20
10308.3
 30
0.0
 11
8177.1
 21
10273.8
 31
0.0
  0
TEXT
  5
1D3
330
17
100
AcDbEntity
  8
COTA
100
AcDbText
 10
8135.3
 20
10287.0
 30
0.0
 40
4.0
  1
84
100
AcDbText
  0
LINE
  5
1D4
330
17
100
AcDbEntity
  8
COTA
100
AcDbLine
 10
8177.1
 20
10278.8
 30
0.0
 11
8299.1
 21
10278.8
 31
0.0
  0
LINE
  5
1D5
330
17
100
AcDbEntity
  8
COTA
100
AcDbLine
 10
8299.1
 20
10308.3
 30
0.0
 11
8299.1
 21
10273.8
 31
0.0
  0
LINE
  5
1D6
330
17
100
AcDbEntity
  8
COTA
100
AcDbLine
 10
8177.1
 20
10308.3
 30
0.0
 11
8177.1
 21
10273.8
 31
0.0
  0
TEXT
  5
1D7
330
17
100
AcDbEntity
  8
COTA
100
AcDbText
 10
8238.1
 20
10286.8
 30
0.0
 40
4.0
  1
122
100
AcDbText
  0
LINE
  5
1D8
330
17
100
AcDbEntity
  8
COTA
100
AcDbLine
 10
8395.0
 20
10308.3
 30
0.0
 11
8395.0
 21
10358.3
 31
0.0
  0
LINE
  5
1D9
330
17
100
AcDbEntity
  8
COTA
100
AcDbLine
 10
8372.6
 20
10358.3
 30
0.0
 11
8400.0
 21
10358.3
 31
0.0
  0
LINE
  5
1DA
330
17
100
AcDbEntity
  8
COTA
100
AcDbLine
 10
8372.6
 20
10308.3
 30
0.0
 11
8400.0
 21
10308.3
 31
0.0
  0
TEXT
  5
1DB
330
17
100
AcDbEntity
  8
COTA
100
AcDbText
 10
8386.9
 20
10333.3
 30
0.0
 40
4.0
  1
50
100
AcDbText
  0
LINE
  5
1DC
330
17
100
AcDbEntity
  8
COTA
100
AcDbLine
 10
8395.0
 20
10358.3
 30
0.0
 11
8395.0
 21
10372.3
 31
0.0
  0
LINE
  5
1DD
330
17
100
AcDbEntity
  8
COTA
100
AcDbLine
 10
8372.6
 20
10358.3
 30
0.0
 11
8400.0
 21
10358.3
 31
0.0
  0
LINE
  5
1DE
330
17
100
AcDbEntity
  8
COTA
100
AcDbLine
 10
8372.6
 20
10372.3
 30
0.0
 11
8400.0
 21
10372.3
 31
0.0
  0
TEXT
  5
1DF
330
17
100
AcDbEntity
  8
COTA
100
AcDbText
 10
8387.0
 20
10383.4
 30
0.0
 40
4.0
  1
14
100
AcDbText
  0
LINE
  5
1E0
330
17
100
AcDbEntity
  8
COTA
100
AcDbLine
 10
8416.7
 20
10308.3
 30
0.0
 11
8416.7
 21
10372.3
 31
0.0
  0
LINE
  5
1E1
330
17
100
AcDbEntity
  8
COTA
100
AcDbLine
 10
8372.6
 20
10372.3
 30
0.0
 11
8421.7
 21
10372.3
 31
0.0
  0
LINE
  5
1E2
330
17
100
AcDbEntity
  8
COTA
100
AcDbLine
 10
8372.6
 20
10308.3
 30
0.0
 11
8421.7
 21
10308.3
 31
0.0
  0
TEXT
  5
1E3
330
17
100
AcDbEntity
  8
COTA
100
AcDbText
 10
8408.6
 20
10340.3
 30
0.0
 40
4.0
  1
64
100
AcDbText
  0
LINE
  5
1E4
330
17
100
AcDbEntity
  8
Cota Seção (2x)
100
AcDbLine
 10
7971.6
 20
10247.2
 30
0.0
 11
8372.6
 21
10247.2
 31
0.0
  0
LINE
  5
1E5
330
17
100
AcDbEntity
  8
Cota Seção (2x)
100
AcDbLine
 10
7971.6
 20
10308.3
 30
0.0
 11
7971.6
 21
10242.2
 31
0.0
  0
LINE
  5
1E6
330
17
100
AcDbEntity
  8
Cota Seção (2x)
100
AcDbLine
 10
8372.6
 20
10308.3
 30
0.0
 11
8372.6
 21
10242.2
 31
0.0
  0
TEXT
  5
1E7
330
17
100
AcDbEntity
  8
Cota Seção (2x)
100
AcDbText
 10
8172.1
 20
10255.3
 30
0.0
 40
4.0
  1
401
100
AcDbText
  0
LINE
  5
1E8
330
17
100
AcDbEntity
  8
Cota Seção (2x)
100
AcDbLine
 10
8299.1
 20
10278.8
 30
0.0
 11
8372.6
 21
10278.8
 31
0.0
  0
LINE
  5
1E9
330
17
100
AcDbEntity
  8
Cota Seção (2x)
100
AcDbLine
 10
8299.1
 20
10308.3
 30
0.0
 11
8299.1
 21
10273.8
 31
0.0
  0
LINE
  5
1EA
330
17
100
AcDbEntity
  8
Cota Seção (2x)
100
AcDbLine
 10
8372.6
 20
10308.3
 30
0.0
 11
8372.6
 21
10273.8
 31
0.0
  0
TEXT
  5
1EB
330
17
100
AcDbEntity
  8
Cota Seção (2x)
100
AcDbText
 10
8335.9
 20
10287.0
 30
0.0
 40
4.0
  1
74
100
AcDbText
  0
LINE
  5
1EC
330
17
100
AcDbEntity
  8
COTA
100
AcDbLine
 10
6403.5
 20
10941.9
 30
0.0
 11
6405.5
 21
10941.9
 31
0.0
  0
LINE
  5
1ED
330
17
100
AcDbEntity
  8
COTA
100
AcDbLine
 10
6403.5
 20
10958.6
 30
0.0
 11
6403.5
 21
10936.9
 31
0.0
  0
LINE
  5
1EE
330
17
100
AcDbEntity
  8
COTA
100
AcDbLine
 10
6405.5
 20
10958.6
 30
0.0
 11
6405.5
 21
10936.9
 31
0.0
  0
TEXT
  5
1EF
330
17
100
AcDbEntity
  8
COTA
100
AcDbText
 10
6417.6
 20
10949.9
 30
0.0
 40
4.0
  1
2
100
AcDbText
  0
LINE
  5
1F0
330
17
100
AcDbEntity
  8
COTA
100
AcDbLine
 10
6478.0
 20
10941.9
 30
0.0
 11
6480.0
 21
10941.9
 31
0.0
  0
LINE
  5
1F1
330
17
100
AcDbEntity
  8
COTA
100
AcDbLine
 10
6480.0
 20
10958.6
 30
0.0
 11
6480.0
 21
10936.9
 31
0.0
  0
LINE
  5
1F2
330
17
100
AcDbEntity
  8
COTA
100
AcDbLine
 10
6478.0
 20
10958.6
 30
0.0
 11
6478.0
 21
10936.9
 31
0.0
  0
TEXT
  5
1F3
330
17
100
AcDbEntity
  8
COTA
100
AcDbText
 10
6466.0
 20
10949.9
 30
0.0
 40
4.0
  1
2
100
AcDbText
  0
LINE
  5
1F4
330
17
100
AcDbEntity
  8
COTA
100
AcDbLine
 10
6871.0
 20
10941.9
 30
0.0
 11
6873.0
 21
10941.9
 31
0.0
  0
LINE
  5
1F5
330
17
100
AcDbEntity
  8
COTA
100
AcDbLine
 10
6871.0
 20
10958.6
 30
0.0
 11
6871.0
 21
10936.9
 31
0.0
  0
LINE
  5
1F6
330
17
100
AcDbEntity
  8
COTA
100
AcDbLine
 10
6873.0
 20
10958.6
 30
0.0
 11
6873.0
 21
10936.9
 31
0.0
  0
TEXT
  5
1F7
330
17
100
AcDbEntity
  8
COTA
100
AcDbText
 10
6885.1
 20
10949.9
 30
0.0
 40
4.0
  1
2
100
AcDbText
  0
LINE
  5
1F8
330
17
100
AcDbEntity
  8
Cota Seção (2x)
100
AcDbLine
 10
6021.8
 20
11104.7
 30
0.0
 11
6997.8
 21
11104.7
 31
0.0
  0
LINE
  5
1F9
330
17
100
AcDbEntity
  8
Cota Seção (2x)
100
AcDbLine
 10
6997.8
 20
11164.7
 30
0.0
 11
6997.8
 21
11099.7
 31
0.0
  0
LINE
  5
1FA
330
17
100
AcDbEntity
  8
Cota Seção (2x)
100
AcDbLine
 10
6021.8
 20
11164.7
 30
0.0
 11
6021.8
 21
11099.7
 31
0.0
  0
TEXT
  5
1FB
330
17
100
AcDbEntity
  8
Cota Seção (2x)
100
AcDbText
 10
6509.8
 20
11112.8
 30
0.0
 40
4.0
  1
976
100
AcDbText
  0
LINE
  5
1FC
330
17
100
AcDbEntity
  8
SARR_2.2x7
100
AcDbLine
 10
8507.9
 20
11385.0
 30
0.0
 11
8507.9
 21
11435.0
 31
0.0
  0
LINE
  5
1FD
330
17
100
AcDbEntity
  8
SARR_2.2x7
100
AcDbLine
 10
8391.0
 20
11065.3
 30
0.0
 11
8391.0
 21
11129.3
 31
0.0
  0
LINE
  5
1FE
330
17
100
AcDbEntity
  8
SARR_2.2x7
100
AcDbLine
 10
8430.6
 20
11065.3
 30
0.0
 11
8430.6
 21
11129.3
 31
0.0
  0
LINE
  5
1FF
330
17
100
AcDbEntity
  8
SARR_2.2x7
100
AcDbLine
 10
8494.2
 20
11385.0
 30
0.0
 11
8494.2
 21
11435.0
 31
0.0
  0
LINE
  5
200
330
17
100
AcDbEntity
  8
SARR_2.2x7
100
AcDbLine
 10
8465.2
 20
11428.0
 30
0.0
 11
8494.2
 21
11428.0
 31
0.0
  0
LINE
  5
201
330
17
100
AcDbEntity
  8
SARR_2.2x7
100
AcDbLine
 10
8501.2
 20
11385.0
 30
0.0
 11
8501.2
 21
11435.0
 31
0.0
  0
LINE
  5
202
330
17
100
AcDbEntity
  8
SARR_2.2x7
100
AcDbLine
 10
8399.0
 20
11127.1
 30
0.0
 11
8422.6
 21
11127.1
 31
0.0
  0
LINE
  5
203
330
17
100
AcDbEntity
  8
SARR_2.2x7
100
AcDbLine
 10
6037.4
 20
11446.0
 30
0.0
 11
6266.4
 21
11446.0
 31
0.0
  0
LINE
  5
204
330
17
100
AcDbEntity
  8
SARR_2.2x7
100
AcDbLine
 10
6266.4
 20
11446.0
 30
0.0
 11
6384.4
 21
11446.0
 31
0.0
  0
LINE
  5
205
330
17
100
AcDbEntity
  8
SARR_2.2x7
100
AcDbLine
 10
6474.4
 20
11446.0
 30
0.0
 11
6510.4
 21
11446.0
 31
0.0
  0
LINE
  5
206
330
17
100
AcDbEntity
  8
SARR_2.2x7
100
AcDbLine
 10
6510.4
 20
11446.0
 30
0.0
 11
6754.4
 21
11446.0
 31
0.0
  0
LINE
  5
207
330
17
100
AcDbEntity
  8
SARR_2.2x7
100
AcDbLine
 10
6754.4
 20
11446.0
 30
0.0
 11
6821.4
 21
11446.0
 31
0.0
  0
LINE
  5
208
330
17
100
AcDbEntity
  8
SARR_2.2x7
100
AcDbLine
 10
6911.4
 20
11446.0
 30
0.0
 11
6998.4
 21
11446.0
 31
0.0
  0
LINE
  5
209
330
17
100
AcDbEntity
  8
SARR_2.2x7
100
AcDbLine
 10
6998.4
 20
11446.0
 30
0.0
 11
7227.4
 21
11446.0
 31
0.0
  0
LINE
  5
20A
330
17
100
AcDbEntity
  8
SARR_2.2x7
100
AcDbLine
 10
7235.4
 20
11384.2
 30
0.0
 11
7235.4
 21
11448.2
 31
0.0
  0
LINE
  5
20B
330
17
100
AcDbEntity
  8
SARR_2.2x7
100
AcDbLine
 10
6384.4
 20
11441.2
 30
0.0
 11
6474.4
 21
11441.2
 31
0.0
  0
LINE
  5
20C
330
17
100
AcDbEntity
  8
SARR_2.2x7
100
AcDbLine
 10
6821.4
 20
11441.2
 30
0.0
 11
6911.4
 21
11441.2
 31
0.0
  0
LINE
  5
20D
330
17
100
AcDbEntity
  8
SARR_2.2x7
100
AcDbLine
 10
6127.8
 20
11226.5
 30
0.0
 11
6265.8
 21
11226.5
 31
0.0
  0
LINE
  5
20E
330
17
100
AcDbEntity
  8
SARR_2.2x7
100
AcDbLine
 10
6265.8
 20
11226.5
 30
0.0
 11
6474.8
 21
11226.5
 31
0.0
  0
LINE
  5
20F
330
17
100
AcDbEntity
  8
SARR_2.2x7
100
AcDbLine
 10
6564.8
 20
11226.5
 30
0.0
 11
6753.8
 21
11226.5
 31
0.0
  0
LINE
  5
210
330
17
100
AcDbEntity
  8
SARR_2.2x7
100
AcDbLine
 10
6753.8
 20
11226.5
 30
0.0
 11
6911.8
 21
11226.5
 31
0.0
  0
LINE
  5
211
330
17
100
AcDbEntity
  8
SARR_2.2x7
100
AcDbLine
 10
6509.8
 20
11221.7
 30
0.0
 11
6564.8
 21
11221.7
 31
0.0
  0
LINE
  5
212
330
17
100
AcDbEntity
  8
SARR_2.2x7
100
AcDbLine
 10
6911.8
 20
11221.7
 30
0.0
 11
6997.8
 21
11221.7
 31
0.0
  0
LINE
  5
213
330
17
100
AcDbEntity
  8
SARR_2.2x7
100
AcDbLine
 10
6474.8
 20
11221.7
 30
0.0
 11
6509.8
 21
11221.7
 31
0.0
  0
LINE
  5
214
330
17
100
AcDbEntity
  8
SARR_2.2x7
100
AcDbLine
 10
6039.5
 20
11020.4
 30
0.0
 11
6159.5
 21
11020.4
 31
0.0
  0
LINE
  5
215
330
17
100
AcDbEntity
  8
SARR_2.2x7
100
AcDbLine
 10
6159.5
 20
11020.4
 30
0.0
 11
6388.5
 21
11020.4
 31
0.0
  0
LINE
  5
216
330
17
100
AcDbEntity
  8
SARR_2.2x7
100
AcDbLine
 10
6396.5
 20
10958.6
 30
0.0
 11
6396.5
 21
11022.6
 31
0.0
  0
LINE
  5
217
330
17
100
AcDbEntity
  8
SARR_2.2x7
100
AcDbLine
 10
6495.0
 20
11020.4
 30
0.0
 11
6724.0
 21
11020.4
 31
0.0
  0
LINE
  5
218
330
17
100
AcDbEntity
  8
SARR_2.2x7
100
AcDbLine
 10
6724.0
 20
11020.4
 30
0.0
 11
6856.0
 21
11020.4
 31
0.0
  0
LINE
  5
219
330
17
100
AcDbEntity
  8
SARR_2.2x7
100
AcDbLine
 10
6487.0
 20
10958.6
 30
0.0
 11
6487.0
 21
11022.6
 31
0.0
  0
LINE
  5
21A
330
17
100
AcDbEntity
  8
SARR_2.2x7
100
AcDbLine
 10
6864.0
 20
10958.6
 30
0.0
 11
6864.0
 21
11022.6
 31
0.0
  0
LINE
  5
21B
330
17
100
AcDbEntity
  8
SARR_2.2x7
100
AcDbLine
 10
8028.2
 20
11432.8
 30
0.0
 11
8257.2
 21
11432.8
 31
0.0
  0
LINE
  5
21C
330
17
100
AcDbEntity
  8
SARR_2.2x7
100
AcDbLine
 10
8257.2
 20
11432.8
 30
0.0
 11
8363.2
 21
11432.8
 31
0.0
  0
LINE
  5
21D
330
17
100
AcDbEntity
  8
SARR_2.2x7
100
AcDbLine
 10
8020.2
 20
11385.0
 30
0.0
 11
8020.2
 21
11435.0
 31
0.0
  0
LINE
  5
21E
330
17
100
AcDbEntity
  8
SARR_2.2x7
100
AcDbLine
 10
8488.9
 20
11127.1
 30
0.0
 11
8657.9
 21
11127.1
 31
0.0
  0
LINE
  5
21F
330
17
100
AcDbEntity
  8
SARR_2.2x7
100
AcDbLine
 10
8657.9
 20
11127.1
 30
0.0
 11
8825.9
 21
11127.1
 31
0.0
  0
LINE
  5
220
330
17
100
AcDbEntity
  8
SARR_2.2x7
100
AcDbLine
 10
8363.2
 20
11428.0
 30
0.0
 11
8389.2
 21
11428.0
 31
0.0
  0
LINE
  5
221
330
17
100
AcDbEntity
  8
SARR_2.2x7
100
AcDbLine
 10
8459.9
 20
11122.3
 30
0.0
 11
8488.9
 21
11122.3
 31
0.0
  0
LINE
  5
222
330
17
100
AcDbEntity
  8
SARR_2.2x7
100
AcDbLine
 10
8828.9
 20
11065.3
 30
0.0
 11
8828.9
 21
11129.3
 31
0.0
  0
LINE
  5
223
330
17
100
AcDbEntity
  8
SARR_2.2x7
100
AcDbLine
 10
6406.0
 20
10340.7
 30
0.0
 11
6635.0
 21
10340.7
 31
0.0
  0
LINE
  5
224
330
17
100
AcDbEntity
  8
SARR_2.2x7
100
AcDbLine
 10
6635.0
 20
10340.7
 30
0.0
 11
6738.0
 21
10340.7
 31
0.0
  0
LINE
  5
225
330
17
100
AcDbEntity
  8
SARR_2.2x7
100
AcDbLine
 10
6838.0
 20
10340.7
 30
0.0
 11
6879.0
 21
10340.7
 31
0.0
  0
LINE
  5
226
330
17
100
AcDbEntity
  8
SARR_2.2x7
100
AcDbLine
 10
6879.0
 20
10340.7
 30
0.0
 11
6989.0
 21
10340.7
 31
0.0
  0
LINE
  5
227
330
17
100
AcDbEntity
  8
SARR_2.2x7
100
AcDbLine
 10
6398.0
 20
10278.9
 30
0.0
 11
6398.0
 21
10342.9
 31
0.0
  0
LINE
  5
228
330
17
100
AcDbEntity
  8
SARR_2.2x7
100
AcDbLine
 10
6997.0
 20
10278.9
 30
0.0
 11
6997.0
 21
10342.9
 31
0.0
  0
LINE
  5
229
330
17
100
AcDbEntity
  8
SARR_2.2x7
100
AcDbLine
 10
6738.0
 20
10335.9
 30
0.0
 11
6838.0
 21
10335.9
 31
0.0
  0
LINE
  5
22A
330
17
100
AcDbEntity
  8
SARR_2.2x7
100
AcDbLine
 10
7986.6
 20
10356.1
 30
0.0
 11
8093.6
 21
10356.1
 31
0.0
  0
LINE
  5
22B
330
17
100
AcDbEntity
  8
SARR_2.2x7
100
AcDbLine
 10
8093.6
 20
10356.1
 30
0.0
 11
8162.1
 21
10356.1
 31
0.0
  0
LINE
  5
22C
330
17
100
AcDbEntity
  8
SARR_2.2x7
100
AcDbLine
 10
8170.1
 20
10308.3
 30
0.0
 11
8170.1
 21
10358.3
 31
0.0
  0
LINE
  5
22D
330
17
100
AcDbEntity
  8
SARR_2.2x7
100
AcDbLine
 10
7978.6
 20
10308.3
 30
0.0
 11
7978.6
 21
10358.3
 31
0.0
  0
LINE
  5
22E
330
17
100
AcDbEntity
  8
SARR_2.2x7
100
AcDbLine
 10
8192.1
 20
10356.1
 30
0.0
 11
8299.1
 21
10356.1
 31
0.0
  0
LINE
  5
22F
330
17
100
AcDbEntity
  8
SARR_2.2x7
100
AcDbLine
 10
8184.1
 20
10308.3
 30
0.0
 11
8184.1
 21
10358.3
 31
0.0
  0
LINE
  5
230
330
17
100
AcDbEntity
  8
SARR_2.2x7
100
AcDbLine
 10
8299.1
 20
10356.1
 30
0.0
 11
8357.6
 21
10356.1
 31
0.0
  0
LINE
  5
231
330
17
100
AcDbEntity
  8
SARR_2.2x7
100
AcDbLine
 10
8365.6
 20
10308.3
 30
0.0
 11
8365.6
 21
10358.3
 31
0.0
  0
ENDSEC
  0
SECTION
  2
OBJECTS
  0
DICTIONARY
  5
A
330
0
100
AcDbDictionary
281
1
  3
ACAD_COLOR
350
B
  3
ACAD_GROUP
350
C
  3
ACAD_LAYOUT
350
D
  3
ACAD_MATERIAL
350
E
  3
ACAD_MLEADERSTYLE
350
F
  3
ACAD_MLINESTYLE
350
10
  3
ACAD_PLOTSETTINGS
350
11
  3
ACAD_PLOTSTYLENAME
350
12
  3
ACAD_SCALELIST
350
14
  3
ACAD_TABLESTYLE
350
15
  3
ACAD_VISUALSTYLE
350
16
  3
EZDXF_META
350
2D
  0
DICTIONARY
  5
B
330
A
100
AcDbDictionary
281
1
  0
DICTIONARY
  5
C
330
A
100
AcDbDictionary
281
1
  0
DICTIONARY
  5
D
330
A
100
AcDbDictionary
281
1
  3
Model
350
1A
  3
Layout1
350
1E
  0
DICTIONARY
  5
E
330
A
100
AcDbDictionary
281
1
  3
ByBlock
350
1F
  3
ByLayer
350
20
  3
Global
350
21
  0
DICTIONARY
  5
F
330
A
100
AcDbDictionary
281
1
  3
Standard
350
2C
  0
DICTIONARY
  5
10
330
A
100
AcDbDictionary
281
1
  3
Standard
350
22
  0
DICTIONARY
  5
11
330
A
100
AcDbDictionary
281
1
  0
ACDBDICTIONARYWDFLT
  5
12
330
A
100
AcDbDictionary
281
1
  3
Normal
350
13
100
AcDbDictionaryWithDefault
340
13
  0
ACDBPLACEHOLDER
  5
13
330
12
  0
DICTIONARY
  5
14
330
A
100
AcDbDictionary
281
1
  0
DICTIONARY
  5
15
330
A
100
AcDbDictionary
281
1
  0
DICTIONARY
  5
16
330
A
100
AcDbDictionary
281
1
  0
LAYOUT
  5
1A
330
D
100
AcDbPlotSettings
  1

  4
A3
  6

 40
7.5
 41
20.0
 42
7.5
 43
20.0
 44
420.0
 45
297.0
 46
0.0
 47
0.0
 48
0.0
 49
0.0
140
0.0
141
0.0
142
1.0
143
1.0
 70
1024
 72
1
 73
0
 74
5
  7

 75
16
 76
0
 77
2
 78
300
147
1.0
148
0.0
149
0.0
100
AcDbLayout
  1
Model
 70
1
 71
0
 10
0.0
 20
0.0
 11
420.0
 21
297.0
 12
0.0
 22
0.0
 32
0.0
 14
1e+20
 24
1e+20
 34
1e+20
 15
-1e+20
 25
-1e+20
 35
-1e+20
146
0.0
 13
0.0
 23
0.0
 33
0.0
 16
1.0
 26
0.0
 36
0.0
 17
0.0
 27
1.0
 37
0.0
 76
1
330
17
  0
LAYOUT
  5
1E
330
D
100
AcDbPlotSettings
  1

  4
A3
  6

 40
7.5
 41
20.0
 42
7.5
 43
20.0
 44
420.0
 45
297.0
 46
0.0
 47
0.0
 48
0.0
 49
0.0
140
0.0
141
0.0
142
1.0
143
1.0
 70
0
 72
1
 73
0
 74
5
  7

 75
16
 76
0
 77
2
 78
300
147
1.0
148
0.0
149
0.0
100
AcDbLayout
  1
Layout1
 70
1
 71
1
 10
0.0
 20
0.0
 11
420.0
 21
297.0
 12
0.0
 22
0.0
 32
0.0
 14
1e+20
 24
1e+20
 34
1e+20
 15
-1e+20
 25
-1e+20
 35
-1e+20
146
0.0
 13
0.0
 23
0.0
 33
0.0
 16
1.0
 26
0.0
 36
0.0
 17
0.0
 27
1.0
 37
0.0
 76
1
330
1B
  0
MATERIAL
  5
1F
102
{ACAD_REACTORS
330
E
102
}
330
E
100
AcDbMaterial
  1
ByBlock
  2

 70
0
 40
1.0
 71
1
 41
1.0
 91
-1023410177
 42
1.0
 72
1
  3

 73
1
 74
1
 75
1
 44
0.5
 73
0
 45
1.0
 46
1.0
 77
1
  4

 78
1
 79
1
170
1
 48
1.0
171
1
  6

172
1
173
1
174
1
140
1.0
141
1.0
175
1
  7

176
1
177
1
178
1
143
1.0
179
1
  8

270
1
271
1
272
1
145
1.0
146
1.0
273
1
  9

274
1
275
1
276
1
 42
1.0
 72
1
  3

 73
1
 74
1
 75
1
 94
63
  0
MATERIAL
  5
20
102
{ACAD_REACTORS
330
E
102
}
330
E
100
AcDbMaterial
  1
ByLayer
  2

 70
0
 40
1.0
 71
1
 41
1.0
 91
-1023410177
 42
1.0
 72
1
  3

 73
1
 74
1
 75
1
 44
0.5
 73
0
 45
1.0
 46
1.0
 77
1
  4

 78
1
 79
1
170
1
 48
1.0
171
1
  6

172
1
173
1
174
1
140
1.0
141
1.0
175
1
  7

176
1
177
1
178
1
143
1.0
179
1
  8

270
1
271
1
272
1
145
1.0
146
1.0
273
1
  9

274
1
275
1
276
1
 42
1.0
 72
1
  3

 73
1
 74
1
 75
1
 94
63
  0
MATERIAL
  5
21
102
{ACAD_REACTORS
330
E
102
}
330
E
100
AcDbMaterial
  1
Global
  2

 70
0
 40
1.0
 71
1
 41
1.0
 91
-1023410177
 42
1.0
 72
1
  3

 73
1
 74
1
 75
1
 44
0.5
 73
0
 45
1.0
 46
1.0
 77
1
  4

 78
1
 79
1
170
1
 48
1.0
171
1
  6

172
1
173
1
174
1
140
1.0
141
1.0
175
1
  7

176
1
177
1
178
1
143
1.0
179
1
  8

270
1
271
1
272
1
145
1.0
146
1.0
273
1
  9

274
1
275
1
276
1
 42
1.0
 72
1
  3

 73
1
 74
1
 75
1
 94
63
  0
MLINESTYLE
  5
22
102
{ACAD_REACTORS
330
10
102
}
330
10
100
AcDbMlineStyle
  2
Standard
 70
0
  3

 62
256
 51
90.0
 52
90.0
 71
2
 49
0.5
 62
256
  6
BYLAYER
 49
-0.5
 62
256
  6
BYLAYER
  0
MLEADERSTYLE
  5
2C
102
{ACAD_REACTORS
330
F
102
}
330
F
100
AcDbMLeaderStyle
179
2
170
2
171
1
172
0
 90
2
 40
0.0
 41
0.0
173
1
 91
-1056964608
 92
-2
290
1
 42
2.0
291
1
 43
8.0
  3
Standard
 44
4.0
300

342
29
174
1
175
1
176
0
178
1
 93
-1056964608
 45
4.0
292
0
297
0
 46
4.0
 94
-1056964608
 47
1.0
 49
1.0
140
1.0
294
1
141
0.0
177
0
142
1.0
295
0
296
0
143
3.75
271
0
272
9
273
9
  0
DICTIONARY
  5
2D
330
A
100
AcDbDictionary
280
1
281
1
  3
CREATED_BY_EZDXF
350
2E
  3
WRITTEN_BY_EZDXF
350
234
  0
DICTIONARYVAR
  5
2E
330
2D
100
DictionaryVariables
280
0
  1
1.4.3 @ 2026-03-12T00:42:48.394902+00:00
  0
DICTIONARYVAR
  5
234
330
2D
100
DictionaryVariables
280
0
  1
1.4.3 @ 2026-03-12T00:42:48.410208+00:00
  0
ENDSEC
  0
EOF
