  0
SECTION
  2
HEADER
  9
$ACADVER
  1
AC1015
  9
$ACADMAINTVER
 70
6
  9
$DWGCODEPAGE
  3
ANSI_1252
  9
$INSBASE
 10
0.0
 20
0.0
 30
0.0
  9
$EXTMIN
 10
1e+20
 20
1e+20
 30
1e+20
  9
$EXTMAX
 10
-1e+20
 20
-1e+20
 30
-1e+20
  9
$LIMMIN
 10
0.0
 20
0.0
  9
$LIMMAX
 10
420.0
 20
297.0
  9
$ORTHOMODE
 70
0
  9
$REGENMODE
 70
1
  9
$FILLMODE
 70
1
  9
$QTEXTMODE
 70
0
  9
$MIRRTEXT
 70
1
  9
$LTSCALE
 40
1.0
  9
$ATTMODE
 70
1
  9
$TEXTSIZE
 40
2.5
  9
$TRACEWID
 40
1.0
  9
$TEXTSTYLE
  7
Standard
  9
$CLAYER
  8
0
  9
$CELTYPE
  6
ByLayer
  9
$CECOLOR
 62
256
  9
$CELTSCALE
 40
1.0
  9
$DISPSILH
 70
0
  9
$DIMSCALE
 40
1.0
  9
$DIMASZ
 40
2.5
  9
$DIMEXO
 40
0.625
  9
$DIMDLI
 40
3.75
  9
$DIMRND
 40
0.0
  9
$DIMDLE
 40
0.0
  9
$DIMEXE
 40
1.25
  9
$DIMTP
 40
0.0
  9
$DIMTM
 40
0.0
  9
$DIMTXT
 40
2.5
  9
$DIMCEN
 40
2.5
  9
$DIMTSZ
 40
0.0
  9
$DIMTOL
 70
0
  9
$DIMLIM
 70
0
  9
$DIMTIH
 70
0
  9
$DIMTOH
 70
0
  9
$DIMSE1
 70
0
  9
$DIMSE2
 70
0
  9
$DIMTAD
 70
1
  9
$DIMZIN
 70
8
  9
$DIMBLK
  1

  9
$DIMASO
 70
1
  9
$DIMSHO
 70
1
  9
$DIMPOST
  1

  9
$DIMAPOST
  1

  9
$DIMALT
 70
0
  9
$DIMALTD
 70
3
  9
$DIMALTF
 40
0.03937007874
  9
$DIMLFAC
 40
1.0
  9
$DIMTOFL
 70
1
  9
$DIMTVP
 40
0.0
  9
$DIMTIX
 70
0
  9
$DIMSOXD
 70
0
  9
$DIMSAH
 70
0
  9
$DIMBLK1
  1

  9
$DIMBLK2
  1

  9
$DIMSTYLE
  2
ISO-25
  9
$DIMCLRD
 70
0
  9
$DIMCLRE
 70
0
  9
$DIMCLRT
 70
0
  9
$DIMTFAC
 40
1.0
  9
$DIMGAP
 40
0.625
  9
$DIMJUST
 70
0
  9
$DIMSD1
 70
0
  9
$DIMSD2
 70
0
  9
$DIMTOLJ
 70
0
  9
$DIMTZIN
 70
8
  9
$DIMALTZ
 70
0
  9
$DIMALTTZ
 70
0
  9
$DIMUPT
 70
0
  9
$DIMDEC
 70
2
  9
$DIMTDEC
 70
2
  9
$DIMALTU
 70
2
  9
$DIMALTTD
 70
3
  9
$DIMTXSTY
  7
Standard
  9
$DIMAUNIT
 70
0
  9
$DIMADEC
 70
0
  9
$DIMALTRND
 40
0.0
  9
$DIMAZIN
 70
0
  9
$DIMDSEP
 70
44
  9
$DIMATFIT
 70
3
  9
$DIMFRAC
 70
0
  9
$DIMLDRBLK
  1

  9
$DIMLUNIT
 70
2
  9
$DIMLWD
 70
-2
  9
$DIMLWE
 70
-2
  9
$DIMTMOVE
 70
0
  9
$LUNITS
 70
2
  9
$LUPREC
 70
4
  9
$SKETCHINC
 40
1.0
  9
$FILLETRAD
 40
10.0
  9
$AUNITS
 70
0
  9
$AUPREC
 70
2
  9
$MENU
  1
.
  9
$ELEVATION
 40
0.0
  9
$PELEVATION
 40
0.0
  9
$THICKNESS
 40
0.0
  9
$LIMCHECK
 70
0
  9
$CHAMFERA
 40
0.0
  9
$CHAMFERB
 40
0.0
  9
$CHAMFERC
 40
0.0
  9
$CHAMFERD
 40
0.0
  9
$SKPOLY
 70
0
  9
$TDCREATE
 40
2461116.5316898148
  9
$TDUCREATE
 40
2458532.153996898
  9
$TDUPDATE
 40
2461116.5316898148
  9
$TDUUPDATE
 40
2458532.1544311
  9
$TDINDWG
 40
0.0
  9
$TDUSRTIMER
 40
0.0
  9
$USRTIMER
 70
1
  9
$ANGBASE
 50
0.0
  9
$ANGDIR
 70
0
  9
$PDMODE
 70
0
  9
$PDSIZE
 40
0.0
  9
$PLINEWID
 40
0.0
  9
$SPLFRAME
 70
0
  9
$SPLINETYPE
 70
6
  9
$SPLINESEGS
 70
8
  9
$HANDSEED
  5
243
  9
$SURFTAB1
 70
6
  9
$SURFTAB2
 70
6
  9
$SURFTYPE
 70
6
  9
$SURFU
 70
6
  9
$SURFV
 70
6
  9
$UCSBASE
  2

  9
$UCSNAME
  2

  9
$UCSORG
 10
0.0
 20
0.0
 30
0.0
  9
$UCSXDIR
 10
1.0
 20
0.0
 30
0.0
  9
$UCSYDIR
 10
0.0
 20
1.0
 30
0.0
  9
$UCSORTHOREF
  2

  9
$UCSORTHOVIEW
 70
0
  9
$UCSORGTOP
 10
0.0
 20
0.0
 30
0.0
  9
$UCSORGBOTTOM
 10
0.0
 20
0.0
 30
0.0
  9
$UCSORGLEFT
 10
0.0
 20
0.0
 30
0.0
  9
$UCSORGRIGHT
 10
0.0
 20
0.0
 30
0.0
  9
$UCSORGFRONT
 10
0.0
 20
0.0
 30
0.0
  9
$UCSORGBACK
 10
0.0
 20
0.0
 30
0.0
  9
$PUCSBASE
  2

  9
$PUCSNAME
  2

  9
$PUCSORG
 10
0.0
 20
0.0
 30
0.0
  9
$PUCSXDIR
 10
1.0
 20
0.0
 30
0.0
  9
$PUCSYDIR
 10
0.0
 20
1.0
 30
0.0
  9
$PUCSORTHOREF
  2

  9
$PUCSORTHOVIEW
 70
0
  9
$PUCSORGTOP
 10
0.0
 20
0.0
 30
0.0
  9
$PUCSORGBOTTOM
 10
0.0
 20
0.0
 30
0.0
  9
$PUCSORGLEFT
 10
0.0
 20
0.0
 30
0.0
  9
$PUCSORGRIGHT
 10
0.0
 20
0.0
 30
0.0
  9
$PUCSORGFRONT
 10
0.0
 20
0.0
 30
0.0
  9
$PUCSORGBACK
 10
0.0
 20
0.0
 30
0.0
  9
$USERI1
 70
0
  9
$USERI2
 70
0
  9
$USERI3
 70
0
  9
$USERI4
 70
0
  9
$USERI5
 70
0
  9
$USERR1
 40
0.0
  9
$USERR2
 40
0.0
  9
$USERR3
 40
0.0
  9
$USERR4
 40
0.0
  9
$USERR5
 40
0.0
  9
$WORLDVIEW
 70
1
  9
$SHADEDGE
 70
3
  9
$SHADEDIF
 70
70
  9
$TILEMODE
 70
1
  9
$MAXACTVP
 70
64
  9
$PINSBASE
 10
0.0
 20
0.0
 30
0.0
  9
$PLIMCHECK
 70
0
  9
$PEXTMIN
 10
1e+20
 20
1e+20
 30
1e+20
  9
$PEXTMAX
 10
-1e+20
 20
-1e+20
 30
-1e+20
  9
$PLIMMIN
 10
0.0
 20
0.0
  9
$PLIMMAX
 10
420.0
 20
297.0
  9
$UNITMODE
 70
0
  9
$VISRETAIN
 70
1
  9
$PLINEGEN
 70
0
  9
$PSLTSCALE
 70
1
  9
$TREEDEPTH
 70
3020
  9
$CMLSTYLE
  2
Standard
  9
$CMLJUST
 70
0
  9
$CMLSCALE
 40
20.0
  9
$PROXYGRAPHICS
 70
1
  9
$MEASUREMENT
 70
1
  9
$CELWEIGHT
370
-1
  9
$ENDCAPS
280
0
  9
$JOINSTYLE
280
0
  9
$LWDISPLAY
290
0
  9
$INSUNITS
 70
6
  9
$HYPERLINKBASE
  1

  9
$STYLESHEET
  1

  9
$XEDIT
290
1
  9
$CEPSNTYPE
380
0
  9
$PSTYLEMODE
290
1
  9
$FINGERPRINTGUID
  2
{43FC882B-93A6-48AC-8D01-BB6CBFEA9F94}
  9
$VERSIONGUID
  2
{22632EE6-8E4D-4E45-89C7-025D936E2615}
  9
$EXTNAMES
290
1
  9
$PSVPSCALE
 40
0.0
  9
$OLESTARTUP
290
0
  0
ENDSEC
  0
SECTION
  2
CLASSES
  0
CLASS
  1
ACDBDICTIONARYWDFLT
  2
AcDbDictionaryWithDefault
  3
ObjectDBX Classes
 90
0
280
0
281
0
  0
CLASS
  1
SUN
  2
AcDbSun
  3
SCENEOE
 90
1153
280
0
281
0
  0
CLASS
  1
VISUALSTYLE
  2
AcDbVisualStyle
  3
ObjectDBX Classes
 90
4095
280
0
281
0
  0
CLASS
  1
MATERIAL
  2
AcDbMaterial
  3
ObjectDBX Classes
 90
1153
280
0
281
0
  0
CLASS
  1
SCALE
  2
AcDbScale
  3
ObjectDBX Classes
 90
1153
280
0
281
0
  0
CLASS
  1
TABLESTYLE
  2
AcDbTableStyle
  3
ObjectDBX Classes
 90
4095
280
0
281
0
  0
CLASS
  1
MLEADERSTYLE
  2
AcDbMLeaderStyle
  3
ACDB_MLEADERSTYLE_CLASS
 90
4095
280
0
281
0
  0
CLASS
  1
DICTIONARYVAR
  2
AcDbDictionaryVar
  3
ObjectDBX Classes
 90
0
280
0
281
0
  0
CLASS
  1
CELLSTYLEMAP
  2
AcDbCellStyleMap
  3
ObjectDBX Classes
 90
1152
280
0
281
0
  0
CLASS
  1
MENTALRAYRENDERSETTINGS
  2
AcDbMentalRayRenderSettings
  3
SCENEOE
 90
1024
280
0
281
0
  0
CLASS
  1
ACDBDETAILVIEWSTYLE
  2
AcDbDetailViewStyle
  3
ObjectDBX Classes
 90
1025
280
0
281
0
  0
CLASS
  1
ACDBSECTIONVIEWSTYLE
  2
AcDbSectionViewStyle
  3
ObjectDBX Classes
 90
1025
280
0
281
0
  0
CLASS
  1
RASTERVARIABLES
  2
AcDbRasterVariables
  3
ISM
 90
0
280
0
281
0
  0
CLASS
  1
ACDBPLACEHOLDER
  2
AcDbPlaceHolder
  3
ObjectDBX Classes
 90
0
280
0
281
0
  0
CLASS
  1
LAYOUT
  2
AcDbLayout
  3
ObjectDBX Classes
 90
0
280
0
281
0
  0
ENDSEC
  0
SECTION
  2
TABLES
  0
TABLE
  2
VPORT
  5
8
330
0
100
AcDbSymbolTable
 70
1
  0
VPORT
  5
23
330
8
100
AcDbSymbolTableRecord
100
AcDbViewportTableRecord
  2
*Active
 70
0
 10
0.0
 20
0.0
 11
1.0
 21
1.0
 12
0.0
 22
0.0
 13
0.0
 23
0.0
 14
0.5
 24
0.5
 15
0.5
 25
0.5
 16
0.0
 26
0.0
 36
1.0
 17
0.0
 27
0.0
 37
0.0
 40
1000.0
 41
1.34
 42
50.0
 43
0.0
 44
0.0
 50
0.0
 51
0.0
 71
0
 72
1000
 73
1
 74
3
 75
0
 76
0
 77
0
 78
0
281
0
 65
0
146
0.0
  0
ENDTAB
  0
TABLE
  2
LTYPE
  5
2
330
0
100
AcDbSymbolTable
 70
3
  0
LTYPE
  5
24
330
2
100
AcDbSymbolTableRecord
100
AcDbLinetypeTableRecord
  2
ByBlock
 70
0
  3

 72
65
 73
0
 40
0.0
  0
LTYPE
  5
25
330
2
100
AcDbSymbolTableRecord
100
AcDbLinetypeTableRecord
  2
ByLayer
 70
0
  3

 72
65
 73
0
 40
0.0
  0
LTYPE
  5
26
330
2
100
AcDbSymbolTableRecord
100
AcDbLinetypeTableRecord
  2
Continuous
 70
0
  3

 72
65
 73
0
 40
0.0
  0
ENDTAB
  0
TABLE
  2
LAYER
  5
1
330
0
100
AcDbSymbolTable
 70
41
  0
LAYER
  5
27
330
1
100
AcDbSymbolTableRecord
100
AcDbLayerTableRecord
  2
0
 70
0
 62
7
  6
Continuous
370
-3
390
13
  0
LAYER
  5
28
330
1
100
AcDbSymbolTableRecord
100
AcDbLayerTableRecord
  2
Defpoints
 70
0
 62
7
  6
Continuous
290
0
370
-3
390
13
  0
LAYER
  5
2F
330
1
100
AcDbSymbolTableRecord
100
AcDbLayerTableRecord
  2
Painéis
 70
0
 62
200
  6
Continuous
370
-3
390
13
  0
LAYER
  5
30
330
1
100
AcDbSymbolTableRecord
100
AcDbLayerTableRecord
  2
CONCRETO
 70
0
 62
251
  6
Continuous
370
-3
390
13
  0
LAYER
  5
31
330
1
100
AcDbSymbolTableRecord
100
AcDbLayerTableRecord
  2
SARR_3.5x7
 70
0
 62
81
  6
Continuous
370
-3
390
13
  0
LAYER
  5
32
330
1
100
AcDbSymbolTableRecord
100
AcDbLayerTableRecord
  2
Madeira
 70
0
 62
126
  6
Continuous
370
-3
390
13
  0
LAYER
  5
33
330
1
100
AcDbSymbolTableRecord
100
AcDbLayerTableRecord
  2
Texto Seção
 70
0
 62
7
  6
Continuous
370
-3
390
13
  0
LAYER
  5
34
330
1
100
AcDbSymbolTableRecord
100
AcDbLayerTableRecord
  2
COTA
 70
0
 62
4
  6
Continuous
370
-3
390
13
  0
LAYER
  5
35
330
1
100
AcDbSymbolTableRecord
100
AcDbLayerTableRecord
  2
Cota Seção (2x)
 70
0
 62
4
  6
Continuous
370
-3
390
13
  0
LAYER
  5
36
330
1
100
AcDbSymbolTableRecord
100
AcDbLayerTableRecord
  2
NOMENCLATURA
 70
0
 62
7
  6
Continuous
370
-3
390
13
  0
LAYER
  5
37
330
1
100
AcDbSymbolTableRecord
100
AcDbLayerTableRecord
  2
Hachura
 70
0
 62
253
  6
Continuous
370
-3
390
13
  0
LAYER
  5
38
330
1
100
AcDbSymbolTableRecord
100
AcDbLayerTableRecord
  2
REAPROVEITAMENTO
 70
0
 62
251
  6
Continuous
370
-3
390
13
  0
LAYER
  5
39
330
1
100
AcDbSymbolTableRecord
100
AcDbLayerTableRecord
  2
SARR_2.2x7
 70
0
 62
40
  6
Continuous
370
-3
390
13
  0
LAYER
  5
3A
330
1
100
AcDbSymbolTableRecord
100
AcDbLayerTableRecord
  2
SARR_2.2x10
 70
0
 62
40
  6
Continuous
370
-3
390
13
  0
LAYER
  5
3B
330
1
100
AcDbSymbolTableRecord
100
AcDbLayerTableRecord
  2
SARR_EDITAR
 70
0
 62
141
  6
Continuous
370
-3
390
13
  0
LAYER
  5
3C
330
1
100
AcDbSymbolTableRecord
100
AcDbLayerTableRecord
  2
Sarrafo de Pressão
 70
0
 62
40
  6
Continuous
370
-3
390
13
  0
LAYER
  5
3D
330
1
100
AcDbSymbolTableRecord
100
AcDbLayerTableRecord
  2
Escoras
 70
0
 62
2
  6
Continuous
370
-3
390
13
  0
LAYER
  5
3E
330
1
100
AcDbSymbolTableRecord
100
AcDbLayerTableRecord
  2
Demarcação 1
 70
0
 62
251
  6
Continuous
370
-3
390
13
  0
LAYER
  5
3F
330
1
100
AcDbSymbolTableRecord
100
AcDbLayerTableRecord
  2
Demarcação 2
 70
0
 62
254
  6
Continuous
370
-3
390
13
  0
LAYER
  5
40
330
1
100
AcDbSymbolTableRecord
100
AcDbLayerTableRecord
  2
Forcador
 70
0
 62
251
  6
Continuous
370
-3
390
13
  0
LAYER
  5
41
330
1
100
AcDbSymbolTableRecord
100
AcDbLayerTableRecord
  2
GARFOS
 70
0
 62
7
  6
Continuous
370
-3
390
13
  0
LAYER
  5
42
330
1
100
AcDbSymbolTableRecord
100
AcDbLayerTableRecord
  2
BARRA DE ANCORAGEM
 70
0
 62
7
  6
Continuous
370
-3
390
13
  0
LAYER
  5
43
330
1
100
AcDbSymbolTableRecord
100
AcDbLayerTableRecord
  2
Perfil Metálico
 70
0
 62
251
  6
Continuous
370
-3
390
13
  0
LAYER
  5
44
330
1
100
AcDbSymbolTableRecord
100
AcDbLayerTableRecord
  2
PONTALETE
 70
0
 62
2
  6
Continuous
370
-3
390
13
  0
LAYER
  5
45
330
1
100
AcDbSymbolTableRecord
100
AcDbLayerTableRecord
  2
MEIO_PONT
 70
0
 62
2
  6
Continuous
370
-3
390
13
  0
LAYER
  5
46
330
1
100
AcDbSymbolTableRecord
100
AcDbLayerTableRecord
  2
5
 70
0
 62
3
  6
Continuous
370
-3
390
13
  0
LAYER
  5
47
330
1
100
AcDbSymbolTableRecord
100
AcDbLayerTableRecord
  2
detalhes
 70
0
 62
7
  6
Continuous
370
-3
390
13
  0
LAYER
  5
48
330
1
100
AcDbSymbolTableRecord
100
AcDbLayerTableRecord
  2
texto
 70
0
 62
7
  6
Continuous
370
-3
390
13
  0
LAYER
  5
49
330
1
100
AcDbSymbolTableRecord
100
AcDbLayerTableRecord
  2
CARIMBO
 70
0
 62
7
  6
Continuous
370
-3
390
13
  0
LAYER
  5
4A
330
1
100
AcDbSymbolTableRecord
100
AcDbLayerTableRecord
  2
presilha
 70
0
 62
2
  6
Continuous
370
-3
390
13
  0
LAYER
  5
4B
330
1
100
AcDbSymbolTableRecord
100
AcDbLayerTableRecord
  2
barrote
 70
0
 62
126
  6
Continuous
370
-3
390
13
  0
LAYER
  5
4C
330
1
100
AcDbSymbolTableRecord
100
AcDbLayerTableRecord
  2
TENSOR
 70
0
 62
2
  6
Continuous
370
-3
390
13
  0
LAYER
  5
4D
330
1
100
AcDbSymbolTableRecord
100
AcDbLayerTableRecord
  2
SCO-___-LAJ
 70
0
 62
4
  6
Continuous
370
-3
390
13
  0
LAYER
  5
4E
330
1
100
AcDbSymbolTableRecord
100
AcDbLayerTableRecord
  2
Sarr 2.2x7
 70
0
 62
40
  6
Continuous
370
-3
390
13
  0
LAYER
  5
4F
330
1
100
AcDbSymbolTableRecord
100
AcDbLayerTableRecord
  2
cotas
 70
0
 62
4
  6
Continuous
370
-3
390
13
  0
LAYER
  5
50
330
1
100
AcDbSymbolTableRecord
100
AcDbLayerTableRecord
  2
material do compensado
 70
0
 62
126
  6
Continuous
370
-3
390
13
  0
LAYER
  5
51
330
1
100
AcDbSymbolTableRecord
100
AcDbLayerTableRecord
  2
Folhas
 70
0
 62
7
  6
Continuous
370
-3
390
13
  0
LAYER
  5
52
330
1
100
AcDbSymbolTableRecord
100
AcDbLayerTableRecord
  2
TEXTO PILAR
 70
0
 62
7
  6
Continuous
370
-3
390
13
  0
LAYER
  5
53
330
1
100
AcDbSymbolTableRecord
100
AcDbLayerTableRecord
  2
CHAPA REAPROV
 70
0
 62
251
  6
Continuous
370
-3
390
13
  0
LAYER
  5
54
330
1
100
AcDbSymbolTableRecord
100
AcDbLayerTableRecord
  2
fundo
 70
0
 62
253
  6
Continuous
370
-3
390
13
  0
LAYER
  5
55
330
1
100
AcDbSymbolTableRecord
100
AcDbLayerTableRecord
  2
HACHURA MADEIRAS
 70
0
 62
126
  6
Continuous
370
-3
390
13
  0
ENDTAB
  0
TABLE
  2
STYLE
  5
5
330
0
100
AcDbSymbolTable
 70
1
  0
STYLE
  5
29
330
5
100
AcDbSymbolTableRecord
100
AcDbTextStyleTableRecord
  2
Standard
 70
0
 40
0.0
 41
1.0
 50
0.0
 71
0
 42
2.5
  3
txt
  4

  0
ENDTAB
  0
TABLE
  2
VIEW
  5
7
330
0
100
AcDbSymbolTable
 70
0
  0
ENDTAB
  0
TABLE
  2
UCS
  5
6
330
0
100
AcDbSymbolTable
 70
0
  0
ENDTAB
  0
TABLE
  2
APPID
  5
3
330
0
100
AcDbSymbolTable
 70
3
  0
APPID
  5
2A
330
3
100
AcDbSymbolTableRecord
100
AcDbRegAppTableRecord
  2
ACAD
 70
0
  0
APPID
  5
240
330
3
100
AcDbSymbolTableRecord
100
AcDbRegAppTableRecord
  2
HATCHBACKGROUNDCOLOR
 70
0
  0
APPID
  5
241
330
3
100
AcDbSymbolTableRecord
100
AcDbRegAppTableRecord
  2
EZDXF
 70
0
  0
ENDTAB
  0
TABLE
  2
DIMSTYLE
  5
4
330
0
100
AcDbSymbolTable
 70
1
100
AcDbDimStyleTable
  0
DIMSTYLE
105
2B
330
4
100
AcDbSymbolTableRecord
100
AcDbDimStyleTableRecord
  2
Standard
 70
0
  3

  4

 40
1.0
 41
2.5
 42
0.625
 43
3.75
 44
1.25
 45
0.0
 46
0.0
 47
0.0
 48
0.0
140
2.5
141
2.5
142
0.0
143
0.03937007874
144
1.0
145
0.0
146
1.0
147
0.625
148
0.0
 71
0
 72
0
 73
0
 74
0
 75
0
 76
0
 77
1
 78
8
 79
3
170
0
171
3
172
1
173
0
174
0
175
0
176
0
177
0
178
0
179
2
271
2
272
2
273
2
274
3
275
0
276
0
277
2
278
44
279
0
280
0
281
0
282
0
283
0
284
8
285
0
286
0
288
0
289
3
371
-2
372
-2
  0
ENDTAB
  0
TABLE
  2
BLOCK_RECORD
  5
9
330
0
100
AcDbSymbolTable
 70
2
  0
BLOCK_RECORD
  5
17
330
9
100
AcDbSymbolTableRecord
100
AcDbBlockTableRecord
  2
*Model_Space
340
1A
  0
BLOCK_RECORD
  5
1B
330
9
100
AcDbSymbolTableRecord
100
AcDbBlockTableRecord
  2
*Paper_Space
340
1E
  0
ENDTAB
  0
ENDSEC
  0
SECTION
  2
BLOCKS
  0
BLOCK
  5
18
330
17
100
AcDbEntity
  8
0
100
AcDbBlockBegin
  2
*Model_Space
 70
0
 10
0.0
 20
0.0
 30
0.0
  3
*Model_Space
  1

  0
ENDBLK
  5
19
330
17
100
AcDbEntity
  8
0
100
AcDbBlockEnd
  0
BLOCK
  5
1C
330
1B
100
AcDbEntity
  8
0
100
AcDbBlockBegin
  2
*Paper_Space
 70
0
 10
0.0
 20
0.0
 30
0.0
  3
*Paper_Space
  1

  0
ENDBLK
  5
1D
330
1B
100
AcDbEntity
  8
0
100
AcDbBlockEnd
  0
ENDSEC
  0
SECTION
  2
ENTITIES
  0
LINE
  5
56
330
17
100
AcDbEntity
  8
Painéis
100
AcDbLine
 10
6703.0
 20
4407.6
 30
0.0
 11
7114.5
 21
4407.6
 31
0.0
  0
LINE
  5
57
330
17
100
AcDbEntity
  8
Painéis
100
AcDbLine
 10
7140.9
 20
4407.6
 30
0.0
 11
7553.9
 21
4407.6
 31
0.0
  0
LINE
  5
58
330
17
100
AcDbEntity
  8
Painéis
100
AcDbLine
 10
6703.0
 20
4447.6
 30
0.0
 11
7114.5
 21
4447.6
 31
0.0
  0
LINE
  5
59
330
17
100
AcDbEntity
  8
Painéis
100
AcDbLine
 10
7140.9
 20
4447.6
 30
0.0
 11
7553.9
 21
4447.6
 31
0.0
  0
LINE
  5
5A
330
17
100
AcDbEntity
  8
Painéis
100
AcDbLine
 10
6703.0
 20
4459.6
 30
0.0
 11
7114.5
 21
4459.6
 31
0.0
  0
LINE
  5
5B
330
17
100
AcDbEntity
  8
Painéis
100
AcDbLine
 10
7140.9
 20
4459.6
 30
0.0
 11
7553.9
 21
4459.6
 31
0.0
  0
LINE
  5
5C
330
17
100
AcDbEntity
  8
Painéis
100
AcDbLine
 10
6703.0
 20
4466.6
 30
0.0
 11
7114.5
 21
4466.6
 31
0.0
  0
LINE
  5
5D
330
17
100
AcDbEntity
  8
Painéis
100
AcDbLine
 10
7140.9
 20
4466.6
 30
0.0
 11
7553.9
 21
4466.6
 31
0.0
  0
LINE
  5
5E
330
17
100
AcDbEntity
  8
Painéis
100
AcDbLine
 10
6500.4
 20
4476.4
 30
0.0
 11
6528.4
 21
4476.4
 31
0.0
  0
LINE
  5
5F
330
17
100
AcDbEntity
  8
Painéis
100
AcDbLine
 10
6528.4
 20
4552.4
 30
0.0
 11
6584.0
 21
4552.4
 31
0.0
  0
LINE
  5
60
330
17
100
AcDbEntity
  8
Painéis
100
AcDbLine
 10
6708.3
 20
4592.2
 30
0.0
 11
7440.3
 21
4592.2
 31
0.0
  0
LINE
  5
61
330
17
100
AcDbEntity
  8
Painéis
100
AcDbLine
 10
6708.3
 20
4651.2
 30
0.0
 11
7440.3
 21
4651.2
 31
0.0
  0
LINE
  5
62
330
17
100
AcDbEntity
  8
Painéis
100
AcDbLine
 10
6703.0
 20
4407.6
 30
0.0
 11
6703.0
 21
4447.6
 31
0.0
  0
LINE
  5
63
330
17
100
AcDbEntity
  8
Painéis
100
AcDbLine
 10
6708.3
 20
4592.2
 30
0.0
 11
6708.3
 21
4651.2
 31
0.0
  0
LINE
  5
64
330
17
100
AcDbEntity
  8
Painéis
100
AcDbLine
 10
6947.0
 20
4407.6
 30
0.0
 11
6947.0
 21
4447.6
 31
0.0
  0
LINE
  5
65
330
17
100
AcDbEntity
  8
Painéis
100
AcDbLine
 10
6947.0
 20
4459.6
 30
0.0
 11
6947.0
 21
4466.6
 31
0.0
  0
LINE
  5
66
330
17
100
AcDbEntity
  8
Painéis
100
AcDbLine
 10
6952.3
 20
4592.2
 30
0.0
 11
6952.3
 21
4651.2
 31
0.0
  0
LINE
  5
67
330
17
100
AcDbEntity
  8
Painéis
100
AcDbLine
 10
7114.5
 20
4407.6
 30
0.0
 11
7114.5
 21
4447.6
 31
0.0
  0
LINE
  5
68
330
17
100
AcDbEntity
  8
Painéis
100
AcDbLine
 10
7114.5
 20
4459.6
 30
0.0
 11
7114.5
 21
4466.6
 31
0.0
  0
LINE
  5
69
330
17
100
AcDbEntity
  8
Painéis
100
AcDbLine
 10
7140.9
 20
4407.6
 30
0.0
 11
7140.9
 21
4447.6
 31
0.0
  0
LINE
  5
6A
330
17
100
AcDbEntity
  8
Painéis
100
AcDbLine
 10
7196.3
 20
4592.2
 30
0.0
 11
7196.3
 21
4651.2
 31
0.0
  0
LINE
  5
6B
330
17
100
AcDbEntity
  8
Painéis
100
AcDbLine
 10
7384.9
 20
4407.6
 30
0.0
 11
7384.9
 21
4447.6
 31
0.0
  0
LINE
  5
6C
330
17
100
AcDbEntity
  8
Painéis
100
AcDbLine
 10
7384.9
 20
4459.6
 30
0.0
 11
7384.9
 21
4466.6
 31
0.0
  0
LINE
  5
6D
330
17
100
AcDbEntity
  8
Painéis
100
AcDbLine
 10
7440.3
 20
4592.2
 30
0.0
 11
7440.3
 21
4651.2
 31
0.0
  0
LWPOLYLINE
  5
6E
330
17
100
AcDbEntity
  8
Painéis
100
AcDbPolyline
 90
4
 70
1
 10
6532.4
 20
4548.4
 10
6528.4
 20
4548.4
 10
6528.4
 20
4468.4
 10
6532.4
 20
4468.4
  0
LWPOLYLINE
  5
6F
330
17
100
AcDbEntity
  8
Painéis
100
AcDbPolyline
 90
4
 70
1
 10
6500.4
 20
4472.8
 10
6500.4
 20
4476.4
 10
6528.4
 20
4476.4
 10
6528.4
 20
4472.8
  0
LWPOLYLINE
  5
70
330
17
100
AcDbEntity
  8
Painéis
100
AcDbPolyline
 90
4
 70
1
 10
6496.4
 20
4586.4
 10
6500.4
 20
4586.4
 10
6500.4
 20
4468.4
 10
6496.4
 20
4468.4
  0
LWPOLYLINE
  5
71
330
17
100
AcDbEntity
  8
Painéis
100
AcDbPolyline
 90
4
 70
1
 10
6528.4
 20
4548.4
 10
6528.4
 20
4552.4
 10
6584.0
 20
4552.4
 10
6584.0
 20
4548.4
  0
LWPOLYLINE
  5
72
330
17
100
AcDbEntity
  8
Painéis
100
AcDbPolyline
 90
4
 70
1
 10
6532.4
 20
4586.4
 10
6528.8
 20
4586.4
 10
6528.8
 20
4572.4
 10
6532.4
 20
4572.4
  0
LWPOLYLINE
  5
73
330
17
100
AcDbEntity
  8
Painéis
100
AcDbPolyline
 90
4
 70
1
 10
6703.0
 20
4459.6
 10
7114.5
 20
4459.6
 10
7114.5
 20
4466.6
 10
6703.0
 20
4466.6
  0
LWPOLYLINE
  5
74
330
17
100
AcDbEntity
  8
Painéis
100
AcDbPolyline
 90
4
 70
1
 10
7140.9
 20
4459.6
 10
7553.9
 20
4459.6
 10
7553.9
 20
4466.6
 10
7140.9
 20
4466.6
  0
LWPOLYLINE
  5
75
330
17
100
AcDbEntity
  8
Painéis
100
AcDbPolyline
 90
4
 70
1
 10
6703.0
 20
4270.8
 10
7116.0
 20
4270.8
 10
7116.0
 20
4277.8
 10
6703.0
 20
4277.8
  0
LWPOLYLINE
  5
76
330
17
100
AcDbEntity
  8
Painéis
100
AcDbPolyline
 90
4
 70
1
 10
7135.2
 20
4270.8
 10
7548.2
 20
4270.8
 10
7548.2
 20
4277.8
 10
7135.2
 20
4277.8
  0
LWPOLYLINE
  5
77
330
17
100
AcDbEntity
  8
Painéis
100
AcDbPolyline
 90
4
 70
1
 10
6702.5
 20
4090.1
 10
6858.5
 20
4090.1
 10
6858.5
 20
4097.1
 10
6702.5
 20
4097.1
  0
LWPOLYLINE
  5
78
330
17
100
AcDbEntity
  8
CONCRETO
100
AcDbPolyline
 90
8
 70
1
 10
6584.0
 20
4552.4
 10
6584.0
 20
4572.4
 10
6528.8
 20
4572.4
 10
6528.8
 20
4586.4
 10
6500.4
 20
4586.4
 10
6500.4
 20
4476.4
 10
6528.4
 20
4476.4
 10
6528.4
 20
4552.4
  0
LWPOLYLINE
  5
79
330
17
100
AcDbEntity
  8
CONCRETO
100
AcDbPolyline
 90
8
 70
1
 10
6564.8
 20
3411.9
 10
6564.8
 20
3437.9
 10
6718.4
 20
3437.9
 10
6718.4
 20
3411.9
 10
6658.4
 20
3411.9
 10
6658.4
 20
3327.9
 10
6620.4
 20
3327.9
 10
6620.4
 20
3411.9
  0
LWPOLYLINE
  5
7A
330
17
100
AcDbEntity
  8
SARR_3.5x7
100
AcDbPolyline
 90
4
 70
1
 10
6478.0
 20
4580.4
 10
6492.0
 20
4580.4
 10
6492.0
 20
4392.0
 10
6478.0
 20
4392.0
  0
LWPOLYLINE
  5
7B
330
17
100
AcDbEntity
  8
SARR_3.5x7
100
AcDbPolyline
 90
4
 70
1
 10
6550.8
 20
4542.4
 10
6536.8
 20
4542.4
 10
6536.8
 20
4392.0
 10
6550.8
 20
4392.0
  0
LWPOLYLINE
  5
7C
330
17
100
AcDbEntity
  8
SARR_3.5x7
100
AcDbPolyline
 90
4
 70
1
 10
6478.0
 20
4468.4
 10
6550.8
 20
4468.4
 10
6550.8
 20
4438.4
 10
6478.0
 20
4438.4
  0
LWPOLYLINE
  5
7D
330
17
100
AcDbEntity
  8
Madeira
100
AcDbPolyline
 90
4
 70
1
 10
6500.4
 20
4468.4
 10
6500.4
 20
4472.8
 10
6510.4
 20
4472.8
 10
6510.4
 20
4468.4
  0
LWPOLYLINE
  5
7E
330
17
100
AcDbEntity
  8
Madeira
100
AcDbPolyline
 90
4
 70
1
 10
6528.4
 20
4468.4
 10
6528.4
 20
4472.8
 10
6518.4
 20
4472.8
 10
6518.4
 20
4468.4
  0
LWPOLYLINE
  5
7F
330
17
100
AcDbEntity
  8
Madeira
100
AcDbPolyline
 90
4
 70
1
 10
6536.8
 20
4572.4
 10
6532.4
 20
4572.4
 10
6532.4
 20
4586.4
 10
6536.8
 20
4586.4
  0
LWPOLYLINE
  5
80
330
17
100
AcDbEntity
  8
Madeira
100
AcDbPolyline
 90
4
 70
1
 10
6536.8
 20
4534.4
 10
6532.4
 20
4534.4
 10
6532.4
 20
4548.4
 10
6536.8
 20
4548.4
  0
LWPOLYLINE
  5
81
330
17
100
AcDbEntity
  8
Madeira
100
AcDbPolyline
 90
4
 70
1
 10
6496.4
 20
4572.4
 10
6492.0
 20
4572.4
 10
6492.0
 20
4586.4
 10
6496.4
 20
4586.4
  0
LWPOLYLINE
  5
82
330
17
100
AcDbEntity
  8
Madeira
100
AcDbPolyline
 90
4
 70
1
 10
6496.4
 20
4524.4
 10
6492.0
 20
4524.4
 10
6492.0
 20
4538.4
 10
6496.4
 20
4538.4
  0
LWPOLYLINE
  5
83
330
17
100
AcDbEntity
  8
Madeira
100
AcDbPolyline
 90
4
 70
1
 10
6496.4
 20
4468.4
 10
6492.0
 20
4468.4
 10
6492.0
 20
4482.4
 10
6496.4
 20
4482.4
  0
LWPOLYLINE
  5
84
330
17
100
AcDbEntity
  8
Madeira
100
AcDbPolyline
 90
4
 70
1
 10
6536.8
 20
4468.4
 10
6532.4
 20
4468.4
 10
6532.4
 20
4482.4
 10
6536.8
 20
4482.4
  0
LWPOLYLINE
  5
85
330
17
100
AcDbEntity
  8
Madeira
100
AcDbPolyline
 90
4
 70
1
 10
6536.8
 20
4501.9
 10
6532.4
 20
4501.9
 10
6532.4
 20
4515.9
 10
6536.8
 20
4515.9
  0
TEXT
  5
86
330
17
100
AcDbEntity
  8
Texto Seção
100
AcDbText
 10
6511.6
 20
4591.4
 30
0.0
 40
8.0
  1
VF403
100
AcDbText
  0
TEXT
  5
87
330
17
100
AcDbEntity
  8
Texto Seção
100
AcDbText
 10
6511.6
 20
4576.4
 30
0.0
 40
6.0
  1
(14x55)
100
AcDbText
  0
TEXT
  5
88
330
17
100
AcDbEntity
  8
Texto Seção
100
AcDbText
 10
6699.9
 20
4282.5
 30
0.0
 40
5.0
  1
CONT. VF403.B
100
AcDbText
  0
TEXT
  5
89
330
17
100
AcDbEntity
  8
Texto Seção
100
AcDbText
 10
6699.4
 20
4101.8
 30
0.0
 40
5.0
  1
CONT. VF403.B
100
AcDbText
  0
TEXT
  5
8A
330
17
100
AcDbEntity
  8
NOMENCLATURA
100
AcDbText
 10
5807.9
 20
4542.5
 30
0.0
 40
5.0
  1
P29
100
AcDbText
  0
TEXT
  5
8B
330
17
100
AcDbEntity
  8
NOMENCLATURA
100
AcDbText
 10
6021.5
 20
4353.7
 30
0.0
 40
5.0
  1
P31
100
AcDbText
  0
TEXT
  5
8C
330
17
100
AcDbEntity
  8
NOMENCLATURA
100
AcDbText
 10
7432.6
 20
4541.3
 30
0.0
 40
5.0
  1
P33
100
AcDbText
  0
TEXT
  5
8D
330
17
100
AcDbEntity
  8
NOMENCLATURA
100
AcDbText
 10
6698.1
 20
4325.5
 30
0.0
 40
5.0
  1
P33
100
AcDbText
  0
TEXT
  5
8E
330
17
100
AcDbEntity
  8
NOMENCLATURA
100
AcDbText
 10
7115.1
 20
4325.5
 30
0.0
 40
5.0
  1
P32
100
AcDbText
  0
TEXT
  5
8F
330
17
100
AcDbEntity
  8
NOMENCLATURA
100
AcDbText
 10
6703.6
 20
4147.7
 30
0.0
 40
5.0
  1
P30
100
AcDbText
  0
TEXT
  5
90
330
17
100
AcDbEntity
  8
NOMENCLATURA
100
AcDbText
 10
7116.7
 20
4149.2
 30
0.0
 40
5.0
  1
P29
100
AcDbText
  0
TEXT
  5
91
330
17
100
AcDbEntity
  8
NOMENCLATURA
100
AcDbText
 10
7527.6
 20
4149.2
 30
0.0
 40
5.0
  1
P28
100
AcDbText
  0
TEXT
  5
92
330
17
100
AcDbEntity
  8
NOMENCLATURA
100
AcDbText
 10
6684.0
 20
3968.5
 30
0.0
 40
5.0
  1
P28
100
AcDbText
  0
HATCH
  5
93
330
17
100
AcDbEntity
  8
Hachura
 62
8
100
AcDbHatch
 10
0.0
 20
0.0
 30
0.0
210
0.0
220
0.0
230
1.0
  2
SOLID
 70
1
 71
0
 91
1
 92
3
 72
0
 73
1
 93
8
 10
6528.4
 20
4548.4
 10
6532.4
 20
4548.4
 10
6532.4
 20
4548.4
 10
6532.4
 20
4468.4
 10
6532.4
 20
4468.4
 10
6528.4
 20
4468.4
 10
6528.4
 20
4468.4
 10
6528.4
 20
4548.4
 97
0
 75
1
 76
1
 98
0
  0
HATCH
  5
94
330
17
100
AcDbEntity
  8
Hachura
 62
7
100
AcDbHatch
 10
0.0
 20
0.0
 30
0.0
210
0.0
220
0.0
230
1.0
  2
ANSI31
 70
0
 71
0
 91
1
 92
3
 72
0
 73
1
 93
8
 10
6500.4
 20
4468.4
 10
6500.4
 20
4472.8
 10
6500.4
 20
4472.8
 10
6510.4
 20
4472.8
 10
6510.4
 20
4472.8
 10
6510.4
 20
4468.4
 10
6510.4
 20
4468.4
 10
6500.4
 20
4468.4
 97
0
 75
1
 76
1
 52
0.0
 41
0.5
 77
0
 78
1
 53
45.0
 43
0.0
 44
0.0
 45
-1.1225320152
 46
1.1225320152
 79
0
 98
0
  0
HATCH
  5
95
330
17
100
AcDbEntity
  8
Hachura
 62
8
100
AcDbHatch
 10
0.0
 20
0.0
 30
0.0
210
0.0
220
0.0
230
1.0
  2
SOLID
 70
1
 71
0
 91
1
 92
3
 72
0
 73
1
 93
8
 10
6500.4
 20
4472.8
 10
6500.4
 20
4476.4
 10
6500.4
 20
4476.4
 10
6528.4
 20
4476.4
 10
6528.4
 20
4476.4
 10
6528.4
 20
4472.8
 10
6528.4
 20
4472.8
 10
6500.4
 20
4472.8
 97
0
 75
1
 76
1
 98
0
  0
HATCH
  5
96
330
17
100
AcDbEntity
  8
Hachura
 62
7
100
AcDbHatch
 10
0.0
 20
0.0
 30
0.0
210
0.0
220
0.0
230
1.0
  2
ANSI31
 70
0
 71
0
 91
1
 92
3
 72
0
 73
1
 93
8
 10
6528.4
 20
4468.4
 10
6528.4
 20
4472.8
 10
6528.4
 20
4472.8
 10
6518.4
 20
4472.8
 10
6518.4
 20
4472.8
 10
6518.4
 20
4468.4
 10
6518.4
 20
4468.4
 10
6528.4
 20
4468.4
 97
0
 75
1
 76
1
 52
0.0
 41
0.5
 77
0
 78
1
 53
45.0
 43
0.0
 44
0.0
 45
-1.1225320152
 46
1.1225320152
 79
0
 98
0
  0
HATCH
  5
97
330
17
100
AcDbEntity
  8
Hachura
 62
8
100
AcDbHatch
 10
0.0
 20
0.0
 30
0.0
210
0.0
220
0.0
230
1.0
  2
SOLID
 70
1
 71
0
 91
1
 92
3
 72
0
 73
1
 93
8
 10
6496.4
 20
4586.4
 10
6500.4
 20
4586.4
 10
6500.4
 20
4586.4
 10
6500.4
 20
4468.4
 10
6500.4
 20
4468.4
 10
6496.4
 20
4468.4
 10
6496.4
 20
4468.4
 10
6496.4
 20
4586.4
 97
0
 75
1
 76
1
 98
0
  0
HATCH
  5
98
330
17
100
AcDbEntity
  8
Hachura
 62
8
100
AcDbHatch
 10
0.0
 20
0.0
 30
0.0
210
0.0
220
0.0
230
1.0
  2
SOLID
 70
1
 71
0
 91
1
 92
3
 72
0
 73
1
 93
8
 10
6528.4
 20
4548.4
 10
6528.4
 20
4552.4
 10
6528.4
 20
4552.4
 10
6584.0
 20
4552.4
 10
6584.0
 20
4552.4
 10
6584.0
 20
4548.4
 10
6584.0
 20
4548.4
 10
6528.4
 20
4548.4
 97
0
 75
1
 76
1
 98
0
  0
HATCH
  5
99
330
17
100
AcDbEntity
  8
Hachura
 62
8
100
AcDbHatch
 10
0.0
 20
0.0
 30
0.0
210
0.0
220
0.0
230
1.0
  2
SOLID
 70
1
 71
0
 91
1
 92
3
 72
0
 73
1
 93
8
 10
6532.4
 20
4586.4
 10
6528.8
 20
4586.4
 10
6528.8
 20
4586.4
 10
6528.8
 20
4572.4
 10
6528.8
 20
4572.4
 10
6532.4
 20
4572.4
 10
6532.4
 20
4572.4
 10
6532.4
 20
4586.4
 97
0
 75
1
 76
1
 98
0
  0
HATCH
  5
9A
330
17
100
AcDbEntity
  8
Hachura
 62
7
100
AcDbHatch
 10
0.0
 20
0.0
 30
0.0
210
0.0
220
0.0
230
1.0
  2
ANSI31
 70
0
 71
0
 91
1
 92
3
 72
0
 73
1
 93
8
 10
6536.8
 20
4572.4
 10
6532.4
 20
4572.4
 10
6532.4
 20
4572.4
 10
6532.4
 20
4586.4
 10
6532.4
 20
4586.4
 10
6536.8
 20
4586.4
 10
6536.8
 20
4586.4
 10
6536.8
 20
4572.4
 97
0
 75
1
 76
1
 52
0.0
 41
0.5
 77
0
 78
1
 53
45.0
 43
0.0
 44
0.0
 45
-1.1225320152
 46
1.1225320152
 79
0
 98
0
  0
HATCH
  5
9B
330
17
100
AcDbEntity
  8
Hachura
 62
7
100
AcDbHatch
 10
0.0
 20
0.0
 30
0.0
210
0.0
220
0.0
230
1.0
  2
ANSI31
 70
0
 71
0
 91
1
 92
3
 72
0
 73
1
 93
8
 10
6536.8
 20
4534.4
 10
6532.4
 20
4534.4
 10
6532.4
 20
4534.4
 10
6532.4
 20
4548.4
 10
6532.4
 20
4548.4
 10
6536.8
 20
4548.4
 10
6536.8
 20
4548.4
 10
6536.8
 20
4534.4
 97
0
 75
1
 76
1
 52
0.0
 41
0.5
 77
0
 78
1
 53
45.0
 43
0.0
 44
0.0
 45
-1.1225320152
 46
1.1225320152
 79
0
 98
0
  0
HATCH
  5
9C
330
17
100
AcDbEntity
  8
Hachura
 62
7
100
AcDbHatch
 10
0.0
 20
0.0
 30
0.0
210
0.0
220
0.0
230
1.0
  2
ANSI31
 70
0
 71
0
 91
1
 92
3
 72
0
 73
1
 93
8
 10
6496.4
 20
4572.4
 10
6492.0
 20
4572.4
 10
6492.0
 20
4572.4
 10
6492.0
 20
4586.4
 10
6492.0
 20
4586.4
 10
6496.4
 20
4586.4
 10
6496.4
 20
4586.4
 10
6496.4
 20
4572.4
 97
0
 75
1
 76
1
 52
0.0
 41
0.5
 77
0
 78
1
 53
45.0
 43
0.0
 44
0.0
 45
-1.1225320152
 46
1.1225320152
 79
0
 98
0
  0
HATCH
  5
9D
330
17
100
AcDbEntity
  8
Hachura
 62
7
100
AcDbHatch
 10
0.0
 20
0.0
 30
0.0
210
0.0
220
0.0
230
1.0
  2
ANSI31
 70
0
 71
0
 91
1
 92
3
 72
0
 73
1
 93
8
 10
6496.4
 20
4524.4
 10
6492.0
 20
4524.4
 10
6492.0
 20
4524.4
 10
6492.0
 20
4538.4
 10
6492.0
 20
4538.4
 10
6496.4
 20
4538.4
 10
6496.4
 20
4538.4
 10
6496.4
 20
4524.4
 97
0
 75
1
 76
1
 52
0.0
 41
0.5
 77
0
 78
1
 53
45.0
 43
0.0
 44
0.0
 45
-1.1225320152
 46
1.1225320152
 79
0
 98
0
  0
HATCH
  5
9E
330
17
100
AcDbEntity
  8
Hachura
 62
7
100
AcDbHatch
 10
0.0
 20
0.0
 30
0.0
210
0.0
220
0.0
230
1.0
  2
ANSI31
 70
0
 71
0
 91
1
 92
3
 72
0
 73
1
 93
8
 10
6496.4
 20
4468.4
 10
6492.0
 20
4468.4
 10
6492.0
 20
4468.4
 10
6492.0
 20
4482.4
 10
6492.0
 20
4482.4
 10
6496.4
 20
4482.4
 10
6496.4
 20
4482.4
 10
6496.4
 20
4468.4
 97
0
 75
1
 76
1
 52
0.0
 41
0.5
 77
0
 78
1
 53
45.0
 43
0.0
 44
0.0
 45
-1.1225320152
 46
1.1225320152
 79
0
 98
0
  0
HATCH
  5
9F
330
17
100
AcDbEntity
  8
Hachura
 62
7
100
AcDbHatch
 10
0.0
 20
0.0
 30
0.0
210
0.0
220
0.0
230
1.0
  2
ANSI31
 70
0
 71
0
 91
1
 92
3
 72
0
 73
1
 93
8
 10
6536.8
 20
4468.4
 10
6532.4
 20
4468.4
 10
6532.4
 20
4468.4
 10
6532.4
 20
4482.4
 10
6532.4
 20
4482.4
 10
6536.8
 20
4482.4
 10
6536.8
 20
4482.4
 10
6536.8
 20
4468.4
 97
0
 75
1
 76
1
 52
0.0
 41
0.5
 77
0
 78
1
 53
45.0
 43
0.0
 44
0.0
 45
-1.1225320152
 46
1.1225320152
 79
0
 98
0
  0
HATCH
  5
A0
330
17
100
AcDbEntity
  8
COTA
 62
7
100
AcDbHatch
 10
0.0
 20
0.0
 30
0.0
210
0.0
220
0.0
230
1.0
  2
AR-CONC
 70
0
 71
0
 91
1
 92
3
 72
0
 73
1
 93
8
 10
7114.5
 20
4459.6
 10
6703.0
 20
4459.6
 10
6703.0
 20
4459.6
 10
6703.0
 20
4447.6
 10
6703.0
 20
4447.6
 10
7114.5
 20
4447.6
 10
7114.5
 20
4447.6
 10
7114.5
 20
4459.6
 97
0
 75
1
 76
1
 52
0.0
 41
0.03
 77
0
 78
13
 53
50.0
 43
0.0
 44
0.0
 45
5.4655400699
 46
-0.4781725662
 79
2
 49
0.5715
 49
-6.2865
 53
355.0
 43
0.0
 44
0.0
 45
-1.0573026428
 46
5.7317053572
 79
2
 49
0.4572
 49
-5.0292175251
 53
100.4514447
 43
0.45546021
 44
-0.039847605
 45
4.4082374127
 46
5.2535325574
 79
2
 49
0.485700264
 49
-5.342707338
 53
46.1842
 43
0.0
 44
1.524
 45
8.1323712268
 46
-1.261269838
 79
2
 49
0.85725
 49
-9.42975
 53
96.63555761
 43
0.677697
 44
1.418895
 45
7.1221240215
 46
7.4227837379
 79
2
 49
0.7285506942
 49
-8.0140682448
 53
351.18415117
 43
0.0
 44
1.524
 45
7.1221240219
 46
7.4227837376
 79
2
 49
0.6857990121
 49
-7.5437919576
 53
21.0
 43
0.762
 44
1.143
 45
4.5484317381
 46
-3.0679559456
 79
2
 49
0.5715
 49
-6.2865
 53
326.0
 43
0.762
 44
1.143
 45
1.8540608504
 46
5.5256389837
 79
2
 49
0.4572
 49
-5.0292
 53
71.451445
 43
1.141035978
 44
0.887337003
 45
6.4024925784
 46
2.4576830666
 79
2
 49
0.485700264
 49
-5.342698128
 53
37.5
 43
0.0
 44
0.0
 45
0.0926580975
 46
2.5366511662
 79
6
 49
0.0
 49
-4.96824
 49
0.0
 49
-5.1054
 49
0.0
 49
-5.04825
 53
7.5
 43
0.0
 44
0.0
 45
2.0045898753
 46
3.0054172445
 79
6
 49
0.0
 49
-2.91084
 49
0.0
 49
-4.85394
 49
0.0
 49
-1.92405
 53
-32.5
 43
-1.69926
 44
0.0
 45
4.067717855
 46
-0.1718623198
 79
6
 49
0.0
 49
-1.905
 49
0.0
 49
-5.9436
 49
0.0
 49
-7.8867
 53
-42.5
 43
-2.46126
 44
0.0
 45
4.4438754416
 46
0.762794731
 79
6
 49
0.0
 49
-2.4765
 49
0.0
 49
-3.94716
 49
0.0
 49
-5.6007
 98
0
  0
HATCH
  5
A1
330
17
100
AcDbEntity
  8
COTA
 62
7
100
AcDbHatch
 10
0.0
 20
0.0
 30
0.0
210
0.0
220
0.0
230
1.0
  2
AR-CONC
 70
0
 71
0
 91
1
 92
3
 72
0
 73
1
 93
8
 10
7553.9
 20
4459.6
 10
7140.9
 20
4459.6
 10
7140.9
 20
4459.6
 10
7140.9
 20
4447.6
 10
7140.9
 20
4447.6
 10
7553.9
 20
4447.6
 10
7553.9
 20
4447.6
 10
7553.9
 20
4459.6
 97
0
 75
1
 76
1
 52
0.0
 41
0.03
 77
0
 78
13
 53
50.0
 43
0.0
 44
0.0
 45
5.4655400699
 46
-0.4781725662
 79
2
 49
0.5715
 49
-6.2865
 53
355.0
 43
0.0
 44
0.0
 45
-1.0573026428
 46
5.7317053572
 79
2
 49
0.4572
 49
-5.0292175251
 53
100.4514447
 43
0.45546021
 44
-0.039847605
 45
4.4082374127
 46
5.2535325574
 79
2
 49
0.485700264
 49
-5.342707338
 53
46.1842
 43
0.0
 44
1.524
 45
8.1323712268
 46
-1.261269838
 79
2
 49
0.85725
 49
-9.42975
 53
96.63555761
 43
0.677697
 44
1.418895
 45
7.1221240215
 46
7.4227837379
 79
2
 49
0.7285506942
 49
-8.0140682448
 53
351.18415117
 43
0.0
 44
1.524
 45
7.1221240219
 46
7.4227837376
 79
2
 49
0.6857990121
 49
-7.5437919576
 53
21.0
 43
0.762
 44
1.143
 45
4.5484317381
 46
-3.0679559456
 79
2
 49
0.5715
 49
-6.2865
 53
326.0
 43
0.762
 44
1.143
 45
1.8540608504
 46
5.5256389837
 79
2
 49
0.4572
 49
-5.0292
 53
71.451445
 43
1.141035978
 44
0.887337003
 45
6.4024925784
 46
2.4576830666
 79
2
 49
0.485700264
 49
-5.342698128
 53
37.5
 43
0.0
 44
0.0
 45
0.0926580975
 46
2.5366511662
 79
6
 49
0.0
 49
-4.96824
 49
0.0
 49
-5.1054
 49
0.0
 49
-5.04825
 53
7.5
 43
0.0
 44
0.0
 45
2.0045898753
 46
3.0054172445
 79
6
 49
0.0
 49
-2.91084
 49
0.0
 49
-4.85394
 49
0.0
 49
-1.92405
 53
-32.5
 43
-1.69926
 44
0.0
 45
4.067717855
 46
-0.1718623198
 79
6
 49
0.0
 49
-1.905
 49
0.0
 49
-5.9436
 49
0.0
 49
-7.8867
 53
-42.5
 43
-2.46126
 44
0.0
 45
4.4438754416
 46
0.762794731
 79
6
 49
0.0
 49
-2.4765
 49
0.0
 49
-3.94716
 49
0.0
 49
-5.6007
 98
0
  0
HATCH
  5
A2
330
17
100
AcDbEntity
  8
COTA
 62
7
100
AcDbHatch
 10
0.0
 20
0.0
 30
0.0
210
0.0
220
0.0
230
1.0
  2
AR-CONC
 70
0
 71
0
 91
1
 92
3
 72
0
 73
1
 93
8
 10
7116.0
 20
4258.8
 10
7116.0
 20
4270.8
 10
7116.0
 20
4270.8
 10
6703.0
 20
4270.8
 10
6703.0
 20
4270.8
 10
6703.0
 20
4258.8
 10
6703.0
 20
4258.8
 10
7116.0
 20
4258.8
 97
0
 75
1
 76
1
 52
0.0
 41
0.03
 77
0
 78
13
 53
50.0
 43
0.0
 44
0.0
 45
5.4655400699
 46
-0.4781725662
 79
2
 49
0.5715
 49
-6.2865
 53
355.0
 43
0.0
 44
0.0
 45
-1.0573026428
 46
5.7317053572
 79
2
 49
0.4572
 49
-5.0292175251
 53
100.4514447
 43
0.45546021
 44
-0.039847605
 45
4.4082374127
 46
5.2535325574
 79
2
 49
0.485700264
 49
-5.342707338
 53
46.1842
 43
0.0
 44
1.524
 45
8.1323712268
 46
-1.261269838
 79
2
 49
0.85725
 49
-9.42975
 53
96.63555761
 43
0.677697
 44
1.418895
 45
7.1221240215
 46
7.4227837379
 79
2
 49
0.7285506942
 49
-8.0140682448
 53
351.18415117
 43
0.0
 44
1.524
 45
7.1221240219
 46
7.4227837376
 79
2
 49
0.6857990121
 49
-7.5437919576
 53
21.0
 43
0.762
 44
1.143
 45
4.5484317381
 46
-3.0679559456
 79
2
 49
0.5715
 49
-6.2865
 53
326.0
 43
0.762
 44
1.143
 45
1.8540608504
 46
5.5256389837
 79
2
 49
0.4572
 49
-5.0292
 53
71.451445
 43
1.141035978
 44
0.887337003
 45
6.4024925784
 46
2.4576830666
 79
2
 49
0.485700264
 49
-5.342698128
 53
37.5
 43
0.0
 44
0.0
 45
0.0926580975
 46
2.5366511662
 79
6
 49
0.0
 49
-4.96824
 49
0.0
 49
-5.1054
 49
0.0
 49
-5.04825
 53
7.5
 43
0.0
 44
0.0
 45
2.0045898753
 46
3.0054172445
 79
6
 49
0.0
 49
-2.91084
 49
0.0
 49
-4.85394
 49
0.0
 49
-1.92405
 53
-32.5
 43
-1.69926
 44
0.0
 45
4.067717855
 46
-0.1718623198
 79
6
 49
0.0
 49
-1.905
 49
0.0
 49
-5.9436
 49
0.0
 49
-7.8867
 53
-42.5
 43
-2.46126
 44
0.0
 45
4.4438754416
 46
0.762794731
 79
6
 49
0.0
 49
-2.4765
 49
0.0
 49
-3.94716
 49
0.0
 49
-5.6007
 98
0
  0
HATCH
  5
A3
330
17
100
AcDbEntity
  8
COTA
 62
7
100
AcDbHatch
 10
0.0
 20
0.0
 30
0.0
210
0.0
220
0.0
230
1.0
  2
AR-CONC
 70
0
 71
0
 91
1
 92
3
 72
0
 73
1
 93
8
 10
7548.2
 20
4258.8
 10
7548.2
 20
4270.8
 10
7548.2
 20
4270.8
 10
7135.2
 20
4270.8
 10
7135.2
 20
4270.8
 10
7135.2
 20
4258.8
 10
7135.2
 20
4258.8
 10
7548.2
 20
4258.8
 97
0
 75
1
 76
1
 52
0.0
 41
0.03
 77
0
 78
13
 53
50.0
 43
0.0
 44
0.0
 45
5.4655400699
 46
-0.4781725662
 79
2
 49
0.5715
 49
-6.2865
 53
355.0
 43
0.0
 44
0.0
 45
-1.0573026428
 46
5.7317053572
 79
2
 49
0.4572
 49
-5.0292175251
 53
100.4514447
 43
0.45546021
 44
-0.039847605
 45
4.4082374127
 46
5.2535325574
 79
2
 49
0.485700264
 49
-5.342707338
 53
46.1842
 43
0.0
 44
1.524
 45
8.1323712268
 46
-1.261269838
 79
2
 49
0.85725
 49
-9.42975
 53
96.63555761
 43
0.677697
 44
1.418895
 45
7.1221240215
 46
7.4227837379
 79
2
 49
0.7285506942
 49
-8.0140682448
 53
351.18415117
 43
0.0
 44
1.524
 45
7.1221240219
 46
7.4227837376
 79
2
 49
0.6857990121
 49
-7.5437919576
 53
21.0
 43
0.762
 44
1.143
 45
4.5484317381
 46
-3.0679559456
 79
2
 49
0.5715
 49
-6.2865
 53
326.0
 43
0.762
 44
1.143
 45
1.8540608504
 46
5.5256389837
 79
2
 49
0.4572
 49
-5.0292
 53
71.451445
 43
1.141035978
 44
0.887337003
 45
6.4024925784
 46
2.4576830666
 79
2
 49
0.485700264
 49
-5.342698128
 53
37.5
 43
0.0
 44
0.0
 45
0.0926580975
 46
2.5366511662
 79
6
 49
0.0
 49
-4.96824
 49
0.0
 49
-5.1054
 49
0.0
 49
-5.04825
 53
7.5
 43
0.0
 44
0.0
 45
2.0045898753
 46
3.0054172445
 79
6
 49
0.0
 49
-2.91084
 49
0.0
 49
-4.85394
 49
0.0
 49
-1.92405
 53
-32.5
 43
-1.69926
 44
0.0
 45
4.067717855
 46
-0.1718623198
 79
6
 49
0.0
 49
-1.905
 49
0.0
 49
-5.9436
 49
0.0
 49
-7.8867
 53
-42.5
 43
-2.46126
 44
0.0
 45
4.4438754416
 46
0.762794731
 79
6
 49
0.0
 49
-2.4765
 49
0.0
 49
-3.94716
 49
0.0
 49
-5.6007
 98
0
  0
HATCH
  5
A4
330
17
100
AcDbEntity
  8
COTA
 62
7
100
AcDbHatch
 10
0.0
 20
0.0
 30
0.0
210
0.0
220
0.0
230
1.0
  2
AR-CONC
 70
0
 71
0
 91
1
 92
3
 72
0
 73
1
 93
8
 10
6858.5
 20
4078.1
 10
6858.5
 20
4090.1
 10
6858.5
 20
4090.1
 10
6702.5
 20
4090.1
 10
6702.5
 20
4090.1
 10
6702.5
 20
4078.1
 10
6702.5
 20
4078.1
 10
6858.5
 20
4078.1
 97
0
 75
1
 76
1
 52
0.0
 41
0.03
 77
0
 78
13
 53
50.0
 43
0.0
 44
0.0
 45
5.4655400699
 46
-0.4781725662
 79
2
 49
0.5715
 49
-6.2865
 53
355.0
 43
0.0
 44
0.0
 45
-1.0573026428
 46
5.7317053572
 79
2
 49
0.4572
 49
-5.0292175251
 53
100.4514447
 43
0.45546021
 44
-0.039847605
 45
4.4082374127
 46
5.2535325574
 79
2
 49
0.485700264
 49
-5.342707338
 53
46.1842
 43
0.0
 44
1.524
 45
8.1323712268
 46
-1.261269838
 79
2
 49
0.85725
 49
-9.42975
 53
96.63555761
 43
0.677697
 44
1.418895
 45
7.1221240215
 46
7.4227837379
 79
2
 49
0.7285506942
 49
-8.0140682448
 53
351.18415117
 43
0.0
 44
1.524
 45
7.1221240219
 46
7.4227837376
 79
2
 49
0.6857990121
 49
-7.5437919576
 53
21.0
 43
0.762
 44
1.143
 45
4.5484317381
 46
-3.0679559456
 79
2
 49
0.5715
 49
-6.2865
 53
326.0
 43
0.762
 44
1.143
 45
1.8540608504
 46
5.5256389837
 79
2
 49
0.4572
 49
-5.0292
 53
71.451445
 43
1.141035978
 44
0.887337003
 45
6.4024925784
 46
2.4576830666
 79
2
 49
0.485700264
 49
-5.342698128
 53
37.5
 43
0.0
 44
0.0
 45
0.0926580975
 46
2.5366511662
 79
6
 49
0.0
 49
-4.96824
 49
0.0
 49
-5.1054
 49
0.0
 49
-5.04825
 53
7.5
 43
0.0
 44
0.0
 45
2.0045898753
 46
3.0054172445
 79
6
 49
0.0
 49
-2.91084
 49
0.0
 49
-4.85394
 49
0.0
 49
-1.92405
 53
-32.5
 43
-1.69926
 44
0.0
 45
4.067717855
 46
-0.1718623198
 79
6
 49
0.0
 49
-1.905
 49
0.0
 49
-5.9436
 49
0.0
 49
-7.8867
 53
-42.5
 43
-2.46126
 44
0.0
 45
4.4438754416
 46
0.762794731
 79
6
 49
0.0
 49
-2.4765
 49
0.0
 49
-3.94716
 49
0.0
 49
-5.6007
 98
0
  0
HATCH
  5
A5
330
17
100
AcDbEntity
  8
Hachura
 62
7
100
AcDbHatch
 10
0.0
 20
0.0
 30
0.0
210
0.0
220
0.0
230
1.0
  2
ANSI31
 70
0
 71
0
 91
1
 92
3
 72
0
 73
1
 93
8
 10
6536.8
 20
4501.9
 10
6532.4
 20
4501.9
 10
6532.4
 20
4501.9
 10
6532.4
 20
4515.9
 10
6532.4
 20
4515.9
 10
6536.8
 20
4515.9
 10
6536.8
 20
4515.9
 10
6536.8
 20
4501.9
 97
0
 75
1
 76
1
 52
0.0
 41
0.5
 77
0
 78
1
 53
45.0
 43
0.0
 44
0.0
 45
-1.1225320152
 46
1.1225320152
 79
0
 98
0
  0
HATCH
  5
A6
330
17
100
AcDbEntity
  8
REAPROVEITAMENTO
 62
7
100
AcDbHatch
 10
0.0
 20
0.0
 30
0.0
210
0.0
220
0.0
230
1.0
  2
ANSI31
 70
0
 71
0
 91
1
 92
3
 72
0
 73
1
 93
8
 10
7440.3
 20
4592.2
 10
7440.3
 20
4651.2
 10
7440.3
 20
4651.2
 10
6708.3
 20
4651.2
 10
6708.3
 20
4651.2
 10
6708.3
 20
4592.2
 10
6708.3
 20
4592.2
 10
7440.3
 20
4592.2
 97
0
 75
1
 76
1
 52
0.0
 41
5.0
 77
0
 78
1
 53
45.0
 43
0.0
 44
0.0
 45
-11.2253201515
 46
11.2253201515
 79
0
 98
0
  0
HATCH
  5
A7
330
17
100
AcDbEntity
  8
REAPROVEITAMENTO
 62
7
100
AcDbHatch
 10
0.0
 20
0.0
 30
0.0
210
0.0
220
0.0
230
1.0
  2
ANSI31
 70
0
 71
0
 91
1
 92
3
 72
0
 73
1
 93
8
 10
7114.5
 20
4407.6
 10
7114.5
 20
4447.6
 10
7114.5
 20
4447.6
 10
6703.0
 20
4447.6
 10
6703.0
 20
4447.6
 10
6703.0
 20
4407.6
 10
6703.0
 20
4407.6
 10
7114.5
 20
4407.6
 97
0
 75
1
 76
1
 52
0.0
 41
5.0
 77
0
 78
1
 53
45.0
 43
0.0
 44
0.0
 45
-11.2253201515
 46
11.2253201515
 79
0
 98
0
  0
HATCH
  5
A8
330
17
100
AcDbEntity
  8
REAPROVEITAMENTO
 62
7
100
AcDbHatch
 10
0.0
 20
0.0
 30
0.0
210
0.0
220
0.0
230
1.0
  2
ANSI31
 70
0
 71
0
 91
1
 92
3
 72
0
 73
1
 93
8
 10
7553.9
 20
4407.6
 10
7553.9
 20
4447.6
 10
7553.9
 20
4447.6
 10
7140.9
 20
4447.6
 10
7140.9
 20
4447.6
 10
7140.9
 20
4407.6
 10
7140.9
 20
4407.6
 10
7553.9
 20
4407.6
 97
0
 75
1
 76
1
 52
0.0
 41
5.0
 77
0
 78
1
 53
45.0
 43
0.0
 44
0.0
 45
-11.2253201515
 46
11.2253201515
 79
0
 98
0
  0
HATCH
  5
A9
330
17
100
AcDbEntity
  8
REAPROVEITAMENTO
 62
7
100
AcDbHatch
 10
0.0
 20
0.0
 30
0.0
210
0.0
220
0.0
230
1.0
  2
ANSI31
 70
0
 71
0
 91
1
 92
3
 72
0
 73
1
 93
8
 10
7116.0
 20
4218.8
 10
7116.0
 20
4258.8
 10
7116.0
 20
4258.8
 10
6703.0
 20
4258.8
 10
6703.0
 20
4258.8
 10
6703.0
 20
4218.8
 10
6703.0
 20
4218.8
 10
7116.0
 20
4218.8
 97
0
 75
1
 76
1
 52
0.0
 41
5.0
 77
0
 78
1
 53
45.0
 43
0.0
 44
0.0
 45
-11.2253201515
 46
11.2253201515
 79
0
 98
0
  0
HATCH
  5
AA
330
17
100
AcDbEntity
  8
REAPROVEITAMENTO
 62
7
100
AcDbHatch
 10
0.0
 20
0.0
 30
0.0
210
0.0
220
0.0
230
1.0
  2
ANSI31
 70
0
 71
0
 91
1
 92
3
 72
0
 73
1
 93
8
 10
7548.2
 20
4218.8
 10
7548.2
 20
4258.8
 10
7548.2
 20
4258.8
 10
7135.2
 20
4258.8
 10
7135.2
 20
4258.8
 10
7135.2
 20
4218.8
 10
7135.2
 20
4218.8
 10
7548.2
 20
4218.8
 97
0
 75
1
 76
1
 52
0.0
 41
5.0
 77
0
 78
1
 53
45.0
 43
0.0
 44
0.0
 45
-11.2253201515
 46
11.2253201515
 79
0
 98
0
  0
HATCH
  5
AB
330
17
100
AcDbEntity
  8
REAPROVEITAMENTO
 62
7
100
AcDbHatch
 10
0.0
 20
0.0
 30
0.0
210
0.0
220
0.0
230
1.0
  2
ANSI31
 70
0
 71
0
 91
1
 92
3
 72
0
 73
1
 93
8
 10
6858.5
 20
4038.1
 10
6858.5
 20
4078.1
 10
6858.5
 20
4078.1
 10
6702.5
 20
4078.1
 10
6702.5
 20
4078.1
 10
6702.5
 20
4038.1
 10
6702.5
 20
4038.1
 10
6858.5
 20
4038.1
 97
0
 75
1
 76
1
 52
0.0
 41
5.0
 77
0
 78
1
 53
45.0
 43
0.0
 44
0.0
 45
-11.2253201515
 46
11.2253201515
 79
0
 98
0
  0
HATCH
  5
AC
330
17
100
AcDbEntity
  8
REAPROVEITAMENTO
 62
7
100
AcDbHatch
 10
0.0
 20
0.0
 30
0.0
210
0.0
220
0.0
230
1.0
  2
ANSI31
 70
0
 71
0
 91
1
 92
3
 72
0
 73
1
 93
8
 10
7114.5
 20
4459.6
 10
7114.5
 20
4466.6
 10
7114.5
 20
4466.6
 10
6703.0
 20
4466.6
 10
6703.0
 20
4466.6
 10
6703.0
 20
4459.6
 10
6703.0
 20
4459.6
 10
7114.5
 20
4459.6
 97
0
 75
1
 76
1
 52
0.0
 41
5.0
 77
0
 78
1
 53
45.0
 43
0.0
 44
0.0
 45
-11.2253201515
 46
11.2253201515
 79
0
 98
0
  0
HATCH
  5
AD
330
17
100
AcDbEntity
  8
REAPROVEITAMENTO
 62
7
100
AcDbHatch
 10
0.0
 20
0.0
 30
0.0
210
0.0
220
0.0
230
1.0
  2
ANSI31
 70
0
 71
0
 91
1
 92
3
 72
0
 73
1
 93
8
 10
7553.9
 20
4459.6
 10
7553.9
 20
4466.6
 10
7553.9
 20
4466.6
 10
7140.9
 20
4466.6
 10
7140.9
 20
4466.6
 10
7140.9
 20
4459.6
 10
7140.9
 20
4459.6
 10
7553.9
 20
4459.6
 97
0
 75
1
 76
1
 52
0.0
 41
5.0
 77
0
 78
1
 53
45.0
 43
0.0
 44
0.0
 45
-11.2253201515
 46
11.2253201515
 79
0
 98
0
  0
HATCH
  5
AE
330
17
100
AcDbEntity
  8
REAPROVEITAMENTO
 62
7
100
AcDbHatch
 10
0.0
 20
0.0
 30
0.0
210
0.0
220
0.0
230
1.0
  2
ANSI31
 70
0
 71
0
 91
1
 92
3
 72
0
 73
1
 93
8
 10
7116.0
 20
4270.8
 10
7116.0
 20
4277.8
 10
7116.0
 20
4277.8
 10
6703.0
 20
4277.8
 10
6703.0
 20
4277.8
 10
6703.0
 20
4270.8
 10
6703.0
 20
4270.8
 10
7116.0
 20
4270.8
 97
0
 75
1
 76
1
 52
0.0
 41
5.0
 77
0
 78
1
 53
45.0
 43
0.0
 44
0.0
 45
-11.2253201515
 46
11.2253201515
 79
0
 98
0
  0
HATCH
  5
AF
330
17
100
AcDbEntity
  8
REAPROVEITAMENTO
 62
7
100
AcDbHatch
 10
0.0
 20
0.0
 30
0.0
210
0.0
220
0.0
230
1.0
  2
ANSI31
 70
0
 71
0
 91
1
 92
3
 72
0
 73
1
 93
8
 10
7548.2
 20
4270.8
 10
7548.2
 20
4277.8
 10
7548.2
 20
4277.8
 10
7135.2
 20
4277.8
 10
7135.2
 20
4277.8
 10
7135.2
 20
4270.8
 10
7135.2
 20
4270.8
 10
7548.2
 20
4270.8
 97
0
 75
1
 76
1
 52
0.0
 41
5.0
 77
0
 78
1
 53
45.0
 43
0.0
 44
0.0
 45
-11.2253201515
 46
11.2253201515
 79
0
 98
0
  0
HATCH
  5
B0
330
17
100
AcDbEntity
  8
REAPROVEITAMENTO
 62
7
100
AcDbHatch
 10
0.0
 20
0.0
 30
0.0
210
0.0
220
0.0
230
1.0
  2
ANSI31
 70
0
 71
0
 91
1
 92
3
 72
0
 73
1
 93
8
 10
6858.5
 20
4090.1
 10
6858.5
 20
4097.1
 10
6858.5
 20
4097.1
 10
6702.5
 20
4097.1
 10
6702.5
 20
4097.1
 10
6702.5
 20
4090.1
 10
6702.5
 20
4090.1
 10
6858.5
 20
4090.1
 97
0
 75
1
 76
1
 52
0.0
 41
5.0
 77
0
 78
1
 53
45.0
 43
0.0
 44
0.0
 45
-11.2253201515
 46
11.2253201515
 79
0
 98
0
  0
LINE
  5
B1
330
17
100
AcDbEntity
  8
COTA
100
AcDbLine
 10
5602.3
 20
4594.0
 30
0.0
 11
5848.3
 21
4594.0
 31
0.0
  0
LINE
  5
B2
330
17
100
AcDbEntity
  8
COTA
100
AcDbLine
 10
5848.3
 20
4620.5
 30
0.0
 11
5848.3
 21
4589.0
 31
0.0
  0
LINE
  5
B3
330
17
100
AcDbEntity
  8
COTA
100
AcDbLine
 10
5602.3
 20
4620.5
 30
0.0
 11
5602.3
 21
4589.0
 31
0.0
  0
TEXT
  5
B4
330
17
100
AcDbEntity
  8
COTA
100
AcDbText
 10
5725.3
 20
4602.1
 30
0.0
 40
4.0
  1
246
100
AcDbText
  0
LINE
  5
B5
330
17
100
AcDbEntity
  8
COTA
100
AcDbLine
 10
5430.3
 20
4560.5
 30
0.0
 11
5848.3
 21
4560.5
 31
0.0
  0
LINE
  5
B6
330
17
100
AcDbEntity
  8
COTA
100
AcDbLine
 10
5848.3
 20
4620.5
 30
0.0
 11
5848.3
 21
4555.5
 31
0.0
  0
LINE
  5
B7
330
17
100
AcDbEntity
  8
COTA
100
AcDbLine
 10
5430.3
 20
4620.5
 30
0.0
 11
5430.3
 21
4555.5
 31
0.0
  0
TEXT
  5
B8
330
17
100
AcDbEntity
  8
COTA
100
AcDbText
 10
5639.3
 20
4568.6
 30
0.0
 40
4.0
  1
418
100
AcDbText
  0
LINE
  5
B9
330
17
100
AcDbEntity
  8
COTA
100
AcDbLine
 10
5846.3
 20
4603.9
 30
0.0
 11
5848.3
 21
4603.9
 31
0.0
  0
LINE
  5
BA
330
17
100
AcDbEntity
  8
COTA
100
AcDbLine
 10
5846.3
 20
4620.5
 30
0.0
 11
5846.3
 21
4598.9
 31
0.0
  0
LINE
  5
BB
330
17
100
AcDbEntity
  8
COTA
100
AcDbLine
 10
5848.3
 20
4620.5
 30
0.0
 11
5848.3
 21
4598.9
 31
0.0
  0
TEXT
  5
BC
330
17
100
AcDbEntity
  8
COTA
100
AcDbText
 10
5860.4
 20
4611.9
 30
0.0
 40
4.0
  1
2
100
AcDbText
  0
LINE
  5
BD
330
17
100
AcDbEntity
  8
COTA
100
AcDbLine
 10
5627.7
 20
4408.0
 30
0.0
 11
5873.7
 21
4408.0
 31
0.0
  0
LINE
  5
BE
330
17
100
AcDbEntity
  8
COTA
100
AcDbLine
 10
5627.7
 20
4434.6
 30
0.0
 11
5627.7
 21
4403.0
 31
0.0
  0
LINE
  5
BF
330
17
100
AcDbEntity
  8
COTA
100
AcDbLine
 10
5873.7
 20
4434.6
 30
0.0
 11
5873.7
 21
4403.0
 31
0.0
  0
TEXT
  5
C0
330
17
100
AcDbEntity
  8
COTA
100
AcDbText
 10
5750.7
 20
4416.1
 30
0.0
 40
4.0
  1
246
100
AcDbText
  0
LINE
  5
C1
330
17
100
AcDbEntity
  8
COTA
100
AcDbLine
 10
5873.7
 20
4408.0
 30
0.0
 11
6045.7
 21
4408.0
 31
0.0
  0
LINE
  5
C2
330
17
100
AcDbEntity
  8
COTA
100
AcDbLine
 10
5873.7
 20
4434.6
 30
0.0
 11
5873.7
 21
4403.0
 31
0.0
  0
LINE
  5
C3
330
17
100
AcDbEntity
  8
COTA
100
AcDbLine
 10
6045.7
 20
4434.6
 30
0.0
 11
6045.7
 21
4403.0
 31
0.0
  0
TEXT
  5
C4
330
17
100
AcDbEntity
  8
COTA
100
AcDbText
 10
5959.7
 20
4416.1
 30
0.0
 40
4.0
  1
172
100
AcDbText
  0
LINE
  5
C5
330
17
100
AcDbEntity
  8
COTA
100
AcDbLine
 10
5627.7
 20
4380.5
 30
0.0
 11
6045.7
 21
4380.5
 31
0.0
  0
LINE
  5
C6
330
17
100
AcDbEntity
  8
COTA
100
AcDbLine
 10
5627.7
 20
4434.6
 30
0.0
 11
5627.7
 21
4375.5
 31
0.0
  0
LINE
  5
C7
330
17
100
AcDbEntity
  8
COTA
100
AcDbLine
 10
6045.7
 20
4434.6
 30
0.0
 11
6045.7
 21
4375.5
 31
0.0
  0
TEXT
  5
C8
330
17
100
AcDbEntity
  8
COTA
100
AcDbText
 10
5836.7
 20
4388.6
 30
0.0
 40
4.0
  1
418
100
AcDbText
  0
LINE
  5
C9
330
17
100
AcDbEntity
  8
COTA
100
AcDbLine
 10
6043.7
 20
4417.9
 30
0.0
 11
6045.7
 21
4417.9
 31
0.0
  0
LINE
  5
CA
330
17
100
AcDbEntity
  8
COTA
100
AcDbLine
 10
6043.7
 20
4434.6
 30
0.0
 11
6043.7
 21
4412.9
 31
0.0
  0
LINE
  5
CB
330
17
100
AcDbEntity
  8
COTA
100
AcDbLine
 10
6045.7
 20
4434.6
 30
0.0
 11
6045.7
 21
4412.9
 31
0.0
  0
TEXT
  5
CC
330
17
100
AcDbEntity
  8
COTA
100
AcDbText
 10
6057.8
 20
4425.9
 30
0.0
 40
4.0
  1
2
100
AcDbText
  0
LINE
  5
CD
330
17
100
AcDbEntity
  8
COTA
100
AcDbLine
 10
5627.7
 20
4498.6
 30
0.0
 11
5871.8
 21
4498.6
 31
0.0
  0
LINE
  5
CE
330
17
100
AcDbEntity
  8
COTA
100
AcDbLine
 10
5627.7
 20
4493.6
 30
0.0
 11
5627.7
 21
4503.6
 31
0.0
  0
LINE
  5
CF
330
17
100
AcDbEntity
  8
COTA
100
AcDbLine
 10
5871.8
 20
4493.6
 30
0.0
 11
5871.8
 21
4503.6
 31
0.0
  0
TEXT
  5
D0
330
17
100
AcDbEntity
  8
COTA
100
AcDbText
 10
5749.7
 20
4506.7
 30
0.0
 40
4.0
  1
244
100
AcDbText
  0
LINE
  5
D1
330
17
100
AcDbEntity
  8
COTA
100
AcDbLine
 10
5628.6
 20
4206.7
 30
0.0
 11
5874.6
 21
4206.7
 31
0.0
  0
LINE
  5
D2
330
17
100
AcDbEntity
  8
COTA
100
AcDbLine
 10
5628.6
 20
4233.2
 30
0.0
 11
5628.6
 21
4201.7
 31
0.0
  0
LINE
  5
D3
330
17
100
AcDbEntity
  8
COTA
100
AcDbLine
 10
5874.6
 20
4233.2
 30
0.0
 11
5874.6
 21
4201.7
 31
0.0
  0
TEXT
  5
D4
330
17
100
AcDbEntity
  8
COTA
100
AcDbText
 10
5751.6
 20
4214.8
 30
0.0
 40
4.0
  1
246
100
AcDbText
  0
LINE
  5
D5
330
17
100
AcDbEntity
  8
COTA
100
AcDbLine
 10
5874.6
 20
4206.7
 30
0.0
 11
6042.6
 21
4206.7
 31
0.0
  0
LINE
  5
D6
330
17
100
AcDbEntity
  8
COTA
100
AcDbLine
 10
5874.6
 20
4233.2
 30
0.0
 11
5874.6
 21
4201.7
 31
0.0
  0
LINE
  5
D7
330
17
100
AcDbEntity
  8
COTA
100
AcDbLine
 10
6042.6
 20
4233.2
 30
0.0
 11
6042.6
 21
4201.7
 31
0.0
  0
TEXT
  5
D8
330
17
100
AcDbEntity
  8
COTA
100
AcDbText
 10
5958.6
 20
4214.8
 30
0.0
 40
4.0
  1
168
100
AcDbText
  0
LINE
  5
D9
330
17
100
AcDbEntity
  8
COTA
100
AcDbLine
 10
5628.6
 20
4173.1
 30
0.0
 11
6042.6
 21
4173.1
 31
0.0
  0
LINE
  5
DA
330
17
100
AcDbEntity
  8
COTA
100
AcDbLine
 10
5628.6
 20
4233.2
 30
0.0
 11
5628.6
 21
4168.1
 31
0.0
  0
LINE
  5
DB
330
17
100
AcDbEntity
  8
COTA
100
AcDbLine
 10
6042.6
 20
4233.2
 30
0.0
 11
6042.6
 21
4168.1
 31
0.0
  0
TEXT
  5
DC
330
17
100
AcDbEntity
  8
COTA
100
AcDbText
 10
5835.6
 20
4181.2
 30
0.0
 40
4.0
  1
414
100
AcDbText
  0
LINE
  5
DD
330
17
100
AcDbEntity
  8
COTA
100
AcDbLine
 10
5628.6
 20
4297.2
 30
0.0
 11
5872.6
 21
4297.2
 31
0.0
  0
LINE
  5
DE
330
17
100
AcDbEntity
  8
COTA
100
AcDbLine
 10
5628.6
 20
4292.2
 30
0.0
 11
5628.6
 21
4302.2
 31
0.0
  0
LINE
  5
DF
330
17
100
AcDbEntity
  8
COTA
100
AcDbLine
 10
5872.6
 20
4292.2
 30
0.0
 11
5872.6
 21
4302.2
 31
0.0
  0
TEXT
  5
E0
330
17
100
AcDbEntity
  8
COTA
100
AcDbText
 10
5750.6
 20
4305.3
 30
0.0
 40
4.0
  1
244
100
AcDbText
  0
LINE
  5
E1
330
17
100
AcDbEntity
  8
COTA
100
AcDbLine
 10
5872.8
 20
4620.5
 30
0.0
 11
5872.8
 21
4660.5
 31
0.0
  0
LINE
  5
E2
330
17
100
AcDbEntity
  8
COTA
100
AcDbLine
 10
5848.3
 20
4660.5
 30
0.0
 11
5877.8
 21
4660.5
 31
0.0
  0
LINE
  5
E3
330
17
100
AcDbEntity
  8
COTA
100
AcDbLine
 10
5848.3
 20
4620.5
 30
0.0
 11
5877.8
 21
4620.5
 31
0.0
  0
TEXT
  5
E4
330
17
100
AcDbEntity
  8
COTA
100
AcDbText
 10
5864.7
 20
4640.5
 30
0.0
 40
4.0
  1
40
100
AcDbText
  0
LINE
  5
E5
330
17
100
AcDbEntity
  8
COTA
100
AcDbLine
 10
5872.8
 20
4660.5
 30
0.0
 11
5872.8
 21
4672.5
 31
0.0
  0
LINE
  5
E6
330
17
100
AcDbEntity
  8
COTA
100
AcDbLine
 10
5848.3
 20
4660.5
 30
0.0
 11
5877.8
 21
4660.5
 31
0.0
  0
LINE
  5
E7
330
17
100
AcDbEntity
  8
COTA
100
AcDbLine
 10
5848.3
 20
4672.5
 30
0.0
 11
5877.8
 21
4672.5
 31
0.0
  0
TEXT
  5
E8
330
17
100
AcDbEntity
  8
COTA
100
AcDbText
 10
5872.8
 20
4666.5
 30
0.0
 40
4.0
  1
12
100
AcDbText
  0
LINE
  5
E9
330
17
100
AcDbEntity
  8
COTA
100
AcDbLine
 10
5896.9
 20
4620.5
 30
0.0
 11
5896.9
 21
4679.5
 31
0.0
  0
LINE
  5
EA
330
17
100
AcDbEntity
  8
COTA
100
AcDbLine
 10
5848.3
 20
4679.5
 30
0.0
 11
5901.9
 21
4679.5
 31
0.0
  0
LINE
  5
EB
330
17
100
AcDbEntity
  8
COTA
100
AcDbLine
 10
5848.3
 20
4620.5
 30
0.0
 11
5901.9
 21
4620.5
 31
0.0
  0
TEXT
  5
EC
330
17
100
AcDbEntity
  8
COTA
100
AcDbText
 10
5888.7
 20
4650.0
 30
0.0
 40
4.0
  1
59
100
AcDbText
  0
LINE
  5
ED
330
17
100
AcDbEntity
  8
COTA
100
AcDbLine
 10
6070.2
 20
4434.6
 30
0.0
 11
6070.2
 21
4474.6
 31
0.0
  0
LINE
  5
EE
330
17
100
AcDbEntity
  8
COTA
100
AcDbLine
 10
6045.7
 20
4474.6
 30
0.0
 11
6075.2
 21
4474.6
 31
0.0
  0
LINE
  5
EF
330
17
100
AcDbEntity
  8
COTA
100
AcDbLine
 10
6045.7
 20
4434.6
 30
0.0
 11
6075.2
 21
4434.6
 31
0.0
  0
TEXT
  5
F0
330
17
100
AcDbEntity
  8
COTA
100
AcDbText
 10
6062.1
 20
4454.6
 30
0.0
 40
4.0
  1
40
100
AcDbText
  0
LINE
  5
F1
330
17
100
AcDbEntity
  8
COTA
100
AcDbLine
 10
6070.2
 20
4474.6
 30
0.0
 11
6070.2
 21
4486.6
 31
0.0
  0
LINE
  5
F2
330
17
100
AcDbEntity
  8
COTA
100
AcDbLine
 10
6045.7
 20
4474.6
 30
0.0
 11
6075.2
 21
4474.6
 31
0.0
  0
LINE
  5
F3
330
17
100
AcDbEntity
  8
COTA
100
AcDbLine
 10
6045.7
 20
4486.6
 30
0.0
 11
6075.2
 21
4486.6
 31
0.0
  0
TEXT
  5
F4
330
17
100
AcDbEntity
  8
COTA
100
AcDbText
 10
6070.2
 20
4480.6
 30
0.0
 40
4.0
  1
12
100
AcDbText
  0
LINE
  5
F5
330
17
100
AcDbEntity
  8
COTA
100
AcDbLine
 10
6070.2
 20
4486.6
 30
0.0
 11
6070.2
 21
4493.6
 31
0.0
  0
LINE
  5
F6
330
17
100
AcDbEntity
  8
COTA
100
AcDbLine
 10
6045.7
 20
4486.6
 30
0.0
 11
6075.2
 21
4486.6
 31
0.0
  0
LINE
  5
F7
330
17
100
AcDbEntity
  8
COTA
100
AcDbLine
 10
6045.7
 20
4493.6
 30
0.0
 11
6075.2
 21
4493.6
 31
0.0
  0
TEXT
  5
F8
330
17
100
AcDbEntity
  8
COTA
100
AcDbText
 10
6062.1
 20
4502.4
 30
0.0
 40
4.0
  1
7
100
AcDbText
  0
LINE
  5
F9
330
17
100
AcDbEntity
  8
COTA
100
AcDbLine
 10
6094.3
 20
4434.6
 30
0.0
 11
6094.3
 21
4493.6
 31
0.0
  0
LINE
  5
FA
330
17
100
AcDbEntity
  8
COTA
100
AcDbLine
 10
6045.7
 20
4493.6
 30
0.0
 11
6099.3
 21
4493.6
 31
0.0
  0
LINE
  5
FB
330
17
100
AcDbEntity
  8
COTA
100
AcDbLine
 10
6045.7
 20
4434.6
 30
0.0
 11
6099.3
 21
4434.6
 31
0.0
  0
TEXT
  5
FC
330
17
100
AcDbEntity
  8
COTA
100
AcDbText
 10
6086.1
 20
4464.1
 30
0.0
 40
4.0
  1
59
100
AcDbText
  0
LINE
  5
FD
330
17
100
AcDbEntity
  8
COTA
100
AcDbLine
 10
6067.1
 20
4233.2
 30
0.0
 11
6067.1
 21
4273.2
 31
0.0
  0
LINE
  5
FE
330
17
100
AcDbEntity
  8
COTA
100
AcDbLine
 10
6042.6
 20
4273.2
 30
0.0
 11
6072.1
 21
4273.2
 31
0.0
  0
LINE
  5
FF
330
17
100
AcDbEntity
  8
COTA
100
AcDbLine
 10
6042.6
 20
4233.2
 30
0.0
 11
6072.1
 21
4233.2
 31
0.0
  0
TEXT
  5
100
330
17
100
AcDbEntity
  8
COTA
100
AcDbText
 10
6058.9
 20
4253.2
 30
0.0
 40
4.0
  1
40
100
AcDbText
  0
LINE
  5
101
330
17
100
AcDbEntity
  8
COTA
100
AcDbLine
 10
6067.1
 20
4273.2
 30
0.0
 11
6067.1
 21
4285.2
 31
0.0
  0
LINE
  5
102
330
17
100
AcDbEntity
  8
COTA
100
AcDbLine
 10
6042.6
 20
4273.2
 30
0.0
 11
6072.1
 21
4273.2
 31
0.0
  0
LINE
  5
103
330
17
100
AcDbEntity
  8
COTA
100
AcDbLine
 10
6042.6
 20
4285.2
 30
0.0
 11
6072.1
 21
4285.2
 31
0.0
  0
TEXT
  5
104
330
17
100
AcDbEntity
  8
COTA
100
AcDbText
 10
6067.1
 20
4279.2
 30
0.0
 40
4.0
  1
12
100
AcDbText
  0
LINE
  5
105
330
17
100
AcDbEntity
  8
COTA
100
AcDbLine
 10
6067.1
 20
4285.2
 30
0.0
 11
6067.1
 21
4292.2
 31
0.0
  0
LINE
  5
106
330
17
100
AcDbEntity
  8
COTA
100
AcDbLine
 10
6042.6
 20
4285.2
 30
0.0
 11
6072.1
 21
4285.2
 31
0.0
  0
LINE
  5
107
330
17
100
AcDbEntity
  8
COTA
100
AcDbLine
 10
6042.6
 20
4292.2
 30
0.0
 11
6072.1
 21
4292.2
 31
0.0
  0
TEXT
  5
108
330
17
100
AcDbEntity
  8
COTA
100
AcDbText
 10
6059.0
 20
4301.1
 30
0.0
 40
4.0
  1
7
100
AcDbText
  0
LINE
  5
109
330
17
100
AcDbEntity
  8
COTA
100
AcDbLine
 10
6091.1
 20
4233.2
 30
0.0
 11
6091.1
 21
4292.2
 31
0.0
  0
LINE
  5
10A
330
17
100
AcDbEntity
  8
COTA
100
AcDbLine
 10
6042.6
 20
4292.2
 30
0.0
 11
6096.1
 21
4292.2
 31
0.0
  0
LINE
  5
10B
330
17
100
AcDbEntity
  8
COTA
100
AcDbLine
 10
6042.6
 20
4233.2
 30
0.0
 11
6096.1
 21
4233.2
 31
0.0
  0
TEXT
  5
10C
330
17
100
AcDbEntity
  8
COTA
100
AcDbText
 10
6083.0
 20
4262.7
 30
0.0
 40
4.0
  1
59
100
AcDbText
  0
LINE
  5
10D
330
17
100
AcDbEntity
  8
COTA
100
AcDbLine
 10
5559.1
 20
4019.6
 30
0.0
 11
5733.1
 21
4019.6
 31
0.0
  0
LINE
  5
10E
330
17
100
AcDbEntity
  8
COTA
100
AcDbLine
 10
5559.1
 20
4046.1
 30
0.0
 11
5559.1
 21
4014.6
 31
0.0
  0
LINE
  5
10F
330
17
100
AcDbEntity
  8
COTA
100
AcDbLine
 10
5733.1
 20
4046.1
 30
0.0
 11
5733.1
 21
4014.6
 31
0.0
  0
TEXT
  5
110
330
17
100
AcDbEntity
  8
COTA
100
AcDbText
 10
5646.1
 20
4027.7
 30
0.0
 40
4.0
  1
174
100
AcDbText
  0
LINE
  5
111
330
17
100
AcDbEntity
  8
COTA
100
AcDbLine
 10
5315.1
 20
3986.0
 30
0.0
 11
5733.1
 21
3986.0
 31
0.0
  0
LINE
  5
112
330
17
100
AcDbEntity
  8
COTA
100
AcDbLine
 10
5315.1
 20
4046.1
 30
0.0
 11
5315.1
 21
3981.0
 31
0.0
  0
LINE
  5
113
330
17
100
AcDbEntity
  8
COTA
100
AcDbLine
 10
5733.1
 20
4046.1
 30
0.0
 11
5733.1
 21
3981.0
 31
0.0
  0
TEXT
  5
114
330
17
100
AcDbEntity
  8
COTA
100
AcDbText
 10
5524.1
 20
3994.1
 30
0.0
 40
4.0
  1
418
100
AcDbText
  0
LINE
  5
115
330
17
100
AcDbEntity
  8
COTA
100
AcDbLine
 10
5754.5
 20
4046.1
 30
0.0
 11
5754.5
 21
4090.1
 31
0.0
  0
LINE
  5
116
330
17
100
AcDbEntity
  8
COTA
100
AcDbLine
 10
5733.1
 20
4090.1
 30
0.0
 11
5759.5
 21
4090.1
 31
0.0
  0
LINE
  5
117
330
17
100
AcDbEntity
  8
COTA
100
AcDbLine
 10
5733.1
 20
4046.1
 30
0.0
 11
5759.5
 21
4046.1
 31
0.0
  0
TEXT
  5
118
330
17
100
AcDbEntity
  8
COTA
100
AcDbText
 10
5746.4
 20
4068.1
 30
0.0
 40
4.0
  1
44
100
AcDbText
  0
LINE
  5
119
330
17
100
AcDbEntity
  8
COTA
100
AcDbLine
 10
5754.5
 20
4090.1
 30
0.0
 11
5754.5
 21
4105.1
 31
0.0
  0
LINE
  5
11A
330
17
100
AcDbEntity
  8
COTA
100
AcDbLine
 10
5733.1
 20
4090.1
 30
0.0
 11
5759.5
 21
4090.1
 31
0.0
  0
LINE
  5
11B
330
17
100
AcDbEntity
  8
COTA
100
AcDbLine
 10
5733.1
 20
4105.1
 30
0.0
 11
5759.5
 21
4105.1
 31
0.0
  0
TEXT
  5
11C
330
17
100
AcDbEntity
  8
COTA
100
AcDbText
 10
5754.5
 20
4097.6
 30
0.0
 40
4.0
  1
15
100
AcDbText
  0
LINE
  5
11D
330
17
100
AcDbEntity
  8
COTA
100
AcDbLine
 10
5780.5
 20
4046.1
 30
0.0
 11
5780.5
 21
4105.1
 31
0.0
  0
LINE
  5
11E
330
17
100
AcDbEntity
  8
COTA
100
AcDbLine
 10
5733.1
 20
4105.1
 30
0.0
 11
5785.5
 21
4105.1
 31
0.0
  0
LINE
  5
11F
330
17
100
AcDbEntity
  8
COTA
100
AcDbLine
 10
5733.1
 20
4046.1
 30
0.0
 11
5785.5
 21
4046.1
 31
0.0
  0
TEXT
  5
120
330
17
100
AcDbEntity
  8
COTA
100
AcDbText
 10
5772.4
 20
4075.6
 30
0.0
 40
4.0
  1
59
100
AcDbText
  0
LINE
  5
121
330
17
100
AcDbEntity
  8
COTA
100
AcDbLine
 10
5315.1
 20
3959.9
 30
0.0
 11
5733.1
 21
3959.9
 31
0.0
  0
LINE
  5
122
330
17
100
AcDbEntity
  8
COTA
100
AcDbLine
 10
5315.1
 20
4046.1
 30
0.0
 11
5315.1
 21
3954.9
 31
0.0
  0
LINE
  5
123
330
17
100
AcDbEntity
  8
COTA
100
AcDbLine
 10
5733.1
 20
4046.1
 30
0.0
 11
5733.1
 21
3954.9
 31
0.0
  0
TEXT
  5
124
330
17
100
AcDbEntity
  8
COTA
100
AcDbText
 10
5524.1
 20
3968.0
 30
0.0
 40
4.0
  1
418
100
AcDbText
  0
LINE
  5
125
330
17
100
AcDbEntity
  8
COTA
100
AcDbLine
 10
5921.3
 20
4019.6
 30
0.0
 11
6043.3
 21
4019.6
 31
0.0
  0
LINE
  5
126
330
17
100
AcDbEntity
  8
COTA
100
AcDbLine
 10
6043.3
 20
4046.1
 30
0.0
 11
6043.3
 21
4014.6
 31
0.0
  0
LINE
  5
127
330
17
100
AcDbEntity
  8
COTA
100
AcDbLine
 10
5921.3
 20
4046.1
 30
0.0
 11
5921.3
 21
4014.6
 31
0.0
  0
TEXT
  5
128
330
17
100
AcDbEntity
  8
COTA
100
AcDbText
 10
5982.3
 20
4027.6
 30
0.0
 40
4.0
  1
122
100
AcDbText
  0
LINE
  5
129
330
17
100
AcDbEntity
  8
COTA
100
AcDbLine
 10
5796.8
 20
4019.6
 30
0.0
 11
5921.3
 21
4019.6
 31
0.0
  0
LINE
  5
12A
330
17
100
AcDbEntity
  8
COTA
100
AcDbLine
 10
5921.3
 20
4046.1
 30
0.0
 11
5921.3
 21
4014.6
 31
0.0
  0
LINE
  5
12B
330
17
100
AcDbEntity
  8
COTA
100
AcDbLine
 10
5796.8
 20
4046.1
 30
0.0
 11
5796.8
 21
4014.6
 31
0.0
  0
TEXT
  5
12C
330
17
100
AcDbEntity
  8
COTA
100
AcDbText
 10
5859.1
 20
4027.7
 30
0.0
 40
4.0
  1
124
100
AcDbText
  0
LINE
  5
12D
330
17
100
AcDbEntity
  8
COTA
100
AcDbLine
 10
5796.8
 20
3986.0
 30
0.0
 11
6043.3
 21
3986.0
 31
0.0
  0
LINE
  5
12E
330
17
100
AcDbEntity
  8
COTA
100
AcDbLine
 10
6043.3
 20
4046.1
 30
0.0
 11
6043.3
 21
3981.0
 31
0.0
  0
LINE
  5
12F
330
17
100
AcDbEntity
  8
COTA
100
AcDbLine
 10
5796.8
 20
4046.1
 30
0.0
 11
5796.8
 21
3981.0
 31
0.0
  0
TEXT
  5
130
330
17
100
AcDbEntity
  8
COTA
100
AcDbText
 10
5920.1
 20
3994.2
 30
0.0
 40
4.0
  1
246
100
AcDbText
  0
LINE
  5
131
330
17
100
AcDbEntity
  8
COTA
100
AcDbLine
 10
6071.3
 20
4046.1
 30
0.0
 11
6071.3
 21
4089.1
 31
0.0
  0
LINE
  5
132
330
17
100
AcDbEntity
  8
COTA
100
AcDbLine
 10
6043.3
 20
4089.1
 30
0.0
 11
6076.3
 21
4089.1
 31
0.0
  0
LINE
  5
133
330
17
100
AcDbEntity
  8
COTA
100
AcDbLine
 10
6043.3
 20
4046.1
 30
0.0
 11
6076.3
 21
4046.1
 31
0.0
  0
TEXT
  5
134
330
17
100
AcDbEntity
  8
COTA
100
AcDbText
 10
6063.1
 20
4067.6
 30
0.0
 40
4.0
  1
43
100
AcDbText
  0
LINE
  5
135
330
17
100
AcDbEntity
  8
COTA
100
AcDbLine
 10
6071.3
 20
4089.1
 30
0.0
 11
6071.3
 21
4105.1
 31
0.0
  0
LINE
  5
136
330
17
100
AcDbEntity
  8
COTA
100
AcDbLine
 10
6043.3
 20
4089.1
 30
0.0
 11
6076.3
 21
4089.1
 31
0.0
  0
LINE
  5
137
330
17
100
AcDbEntity
  8
COTA
100
AcDbLine
 10
6043.3
 20
4105.1
 30
0.0
 11
6076.3
 21
4105.1
 31
0.0
  0
TEXT
  5
138
330
17
100
AcDbEntity
  8
COTA
100
AcDbText
 10
6071.3
 20
4097.1
 30
0.0
 40
4.0
  1
16
100
AcDbText
  0
LINE
  5
139
330
17
100
AcDbEntity
  8
COTA
100
AcDbLine
 10
6097.2
 20
4046.1
 30
0.0
 11
6097.2
 21
4105.1
 31
0.0
  0
LINE
  5
13A
330
17
100
AcDbEntity
  8
COTA
100
AcDbLine
 10
6043.3
 20
4105.1
 30
0.0
 11
6102.2
 21
4105.1
 31
0.0
  0
LINE
  5
13B
330
17
100
AcDbEntity
  8
COTA
100
AcDbLine
 10
6043.3
 20
4046.1
 30
0.0
 11
6102.2
 21
4046.1
 31
0.0
  0
TEXT
  5
13C
330
17
100
AcDbEntity
  8
COTA
100
AcDbText
 10
6089.1
 20
4075.6
 30
0.0
 40
4.0
  1
59
100
AcDbText
  0
LINE
  5
13D
330
17
100
AcDbEntity
  8
COTA
100
AcDbLine
 10
6636.3
 20
4468.4
 30
0.0
 11
6636.3
 21
4586.4
 31
0.0
  0
LINE
  5
13E
330
17
100
AcDbEntity
  8
COTA
100
AcDbLine
 10
6552.0
 20
4468.4
 30
0.0
 11
6641.3
 21
4468.4
 31
0.0
  0
LINE
  5
13F
330
17
100
AcDbEntity
  8
COTA
100
AcDbLine
 10
6536.8
 20
4586.4
 30
0.0
 11
6641.3
 21
4586.4
 31
0.0
  0
TEXT
  5
140
330
17
100
AcDbEntity
  8
COTA
100
AcDbText
 10
6630.8
 20
4527.4
 30
0.0
 40
4.0
  1
59
100
AcDbText
  0
LINE
  5
141
330
17
100
AcDbEntity
  8
COTA
100
AcDbLine
 10
6423.5
 20
4468.4
 30
0.0
 11
6423.5
 21
4586.4
 31
0.0
  0
LINE
  5
142
330
17
100
AcDbEntity
  8
COTA
100
AcDbLine
 10
6466.8
 20
4468.4
 30
0.0
 11
6418.5
 21
4468.4
 31
0.0
  0
LINE
  5
143
330
17
100
AcDbEntity
  8
COTA
100
AcDbLine
 10
6492.0
 20
4586.4
 30
0.0
 11
6418.5
 21
4586.4
 31
0.0
  0
TEXT
  5
144
330
17
100
AcDbEntity
  8
COTA
100
AcDbText
 10
6418.0
 20
4527.4
 30
0.0
 40
4.0
  1
59
100
AcDbText
  0
LINE
  5
145
330
17
100
AcDbEntity
  8
Cota Seção (2x)
100
AcDbLine
 10
6528.8
 20
4476.4
 30
0.0
 11
6528.8
 21
4586.4
 31
0.0
  0
LINE
  5
146
330
17
100
AcDbEntity
  8
Cota Seção (2x)
100
AcDbLine
 10
6489.4
 20
4476.4
 30
0.0
 11
6533.8
 21
4476.4
 31
0.0
  0
LINE
  5
147
330
17
100
AcDbEntity
  8
Cota Seção (2x)
100
AcDbLine
 10
6489.4
 20
4586.4
 30
0.0
 11
6533.8
 21
4586.4
 31
0.0
  0
TEXT
  5
148
330
17
100
AcDbEntity
  8
Cota Seção (2x)
100
AcDbText
 10
6528.8
 20
4546.4
 30
0.0
 40
4.0
  1
55
100
AcDbText
  0
LINE
  5
149
330
17
100
AcDbEntity
  8
COTA
100
AcDbLine
 10
6617.0
 20
4552.4
 30
0.0
 11
6617.0
 21
4572.4
 31
0.0
  0
LINE
  5
14A
330
17
100
AcDbEntity
  8
COTA
100
AcDbLine
 10
6584.0
 20
4572.4
 30
0.0
 11
6622.0
 21
4572.4
 31
0.0
  0
LINE
  5
14B
330
17
100
AcDbEntity
  8
COTA
100
AcDbLine
 10
6584.0
 20
4552.4
 30
0.0
 11
6622.0
 21
4552.4
 31
0.0
  0
TEXT
  5
14C
330
17
100
AcDbEntity
  8
COTA
100
AcDbText
 10
6611.5
 20
4562.4
 30
0.0
 40
4.0
  1
10
100
AcDbText
  0
LINE
  5
14D
330
17
100
AcDbEntity
  8
COTA
100
AcDbLine
 10
6617.0
 20
4468.4
 30
0.0
 11
6617.0
 21
4548.4
 31
0.0
  0
LINE
  5
14E
330
17
100
AcDbEntity
  8
COTA
100
AcDbLine
 10
6584.0
 20
4548.4
 30
0.0
 11
6622.0
 21
4548.4
 31
0.0
  0
LINE
  5
14F
330
17
100
AcDbEntity
  8
COTA
100
AcDbLine
 10
6552.0
 20
4468.4
 30
0.0
 11
6622.0
 21
4468.4
 31
0.0
  0
TEXT
  5
150
330
17
100
AcDbEntity
  8
COTA
100
AcDbText
 10
6611.5
 20
4508.4
 30
0.0
 40
4.0
  1
40
100
AcDbText
  0
LINE
  5
151
330
17
100
AcDbEntity
  8
COTA
100
AcDbLine
 10
6500.4
 20
4423.7
 30
0.0
 11
6528.4
 21
4423.7
 31
0.0
  0
LINE
  5
152
330
17
100
AcDbEntity
  8
COTA
100
AcDbLine
 10
6528.4
 20
4468.4
 30
0.0
 11
6528.4
 21
4418.7
 31
0.0
  0
LINE
  5
153
330
17
100
AcDbEntity
  8
COTA
100
AcDbLine
 10
6500.4
 20
4468.4
 30
0.0
 11
6500.4
 21
4418.7
 31
0.0
  0
TEXT
  5
154
330
17
100
AcDbEntity
  8
COTA
100
AcDbText
 10
6514.4
 20
4429.2
 30
0.0
 40
4.0
  1
14
100
AcDbText
  0
LINE
  5
155
330
17
100
AcDbEntity
  8
Cota Seção (2x)
100
AcDbLine
 10
6500.4
 20
4484.4
 30
0.0
 11
6528.4
 21
4484.4
 31
0.0
  0
LINE
  5
156
330
17
100
AcDbEntity
  8
Cota Seção (2x)
100
AcDbLine
 10
6528.4
 20
4468.4
 30
0.0
 11
6528.4
 21
4489.4
 31
0.0
  0
LINE
  5
157
330
17
100
AcDbEntity
  8
Cota Seção (2x)
100
AcDbLine
 10
6500.4
 20
4468.4
 30
0.0
 11
6500.4
 21
4489.4
 31
0.0
  0
TEXT
  5
158
330
17
100
AcDbEntity
  8
Cota Seção (2x)
100
AcDbText
 10
6519.4
 20
4484.4
 30
0.0
 40
4.0
  1
14
100
AcDbText
  0
LINE
  5
159
330
17
100
AcDbEntity
  8
COTA
100
AcDbLine
 10
6536.8
 20
4586.4
 30
0.0
 11
6584.0
 21
4586.4
 31
0.0
  0
LINE
  5
15A
330
17
100
AcDbEntity
  8
COTA
100
AcDbLine
 10
6584.0
 20
4572.4
 30
0.0
 11
6584.0
 21
4591.4
 31
0.0
  0
LINE
  5
15B
330
17
100
AcDbEntity
  8
COTA
100
AcDbLine
 10
6536.8
 20
4586.4
 30
0.0
 11
6536.8
 21
4591.4
 31
0.0
  0
TEXT
  5
15C
330
17
100
AcDbEntity
  8
COTA
100
AcDbText
 10
6611.5
 20
4579.4
 30
0.0
 40
4.0
  1
7
100
AcDbText
  0
LINE
  5
15D
330
17
100
AcDbEntity
  8
COTA
100
AcDbLine
 10
6708.3
 20
4565.7
 30
0.0
 11
6952.3
 21
4565.7
 31
0.0
  0
LINE
  5
15E
330
17
100
AcDbEntity
  8
COTA
100
AcDbLine
 10
6708.3
 20
4592.2
 30
0.0
 11
6708.3
 21
4560.7
 31
0.0
  0
LINE
  5
15F
330
17
100
AcDbEntity
  8
COTA
100
AcDbLine
 10
6952.3
 20
4592.2
 30
0.0
 11
6952.3
 21
4560.7
 31
0.0
  0
TEXT
  5
160
330
17
100
AcDbEntity
  8
COTA
100
AcDbText
 10
6830.3
 20
4573.7
 30
0.0
 40
4.0
  1
244
100
AcDbText
  0
LINE
  5
161
330
17
100
AcDbEntity
  8
COTA
100
AcDbLine
 10
6952.3
 20
4565.7
 30
0.0
 11
7196.3
 21
4565.7
 31
0.0
  0
LINE
  5
162
330
17
100
AcDbEntity
  8
COTA
100
AcDbLine
 10
6952.3
 20
4592.2
 30
0.0
 11
6952.3
 21
4560.7
 31
0.0
  0
LINE
  5
163
330
17
100
AcDbEntity
  8
COTA
100
AcDbLine
 10
7196.3
 20
4592.2
 30
0.0
 11
7196.3
 21
4560.7
 31
0.0
  0
TEXT
  5
164
330
17
100
AcDbEntity
  8
COTA
100
AcDbText
 10
7074.3
 20
4573.7
 30
0.0
 40
4.0
  1
244
100
AcDbText
  0
LINE
  5
165
330
17
100
AcDbEntity
  8
COTA
100
AcDbLine
 10
6952.3
 20
4531.6
 30
0.0
 11
7196.3
 21
4531.6
 31
0.0
  0
LINE
  5
166
330
17
100
AcDbEntity
  8
COTA
100
AcDbLine
 10
6952.3
 20
4592.2
 30
0.0
 11
6952.3
 21
4526.6
 31
0.0
  0
LINE
  5
167
330
17
100
AcDbEntity
  8
COTA
100
AcDbLine
 10
7196.3
 20
4592.2
 30
0.0
 11
7196.3
 21
4526.6
 31
0.0
  0
TEXT
  5
168
330
17
100
AcDbEntity
  8
COTA
100
AcDbText
 10
7074.3
 20
4539.7
 30
0.0
 40
4.0
  1
244
100
AcDbText
  0
LINE
  5
169
330
17
100
AcDbEntity
  8
COTA
100
AcDbLine
 10
7463.1
 20
4592.2
 30
0.0
 11
7463.1
 21
4651.2
 31
0.0
  0
LINE
  5
16A
330
17
100
AcDbEntity
  8
COTA
100
AcDbLine
 10
7440.3
 20
4592.2
 30
0.0
 11
7468.1
 21
4592.2
 31
0.0
  0
LINE
  5
16B
330
17
100
AcDbEntity
  8
COTA
100
AcDbLine
 10
7440.3
 20
4651.2
 30
0.0
 11
7468.1
 21
4651.2
 31
0.0
  0
TEXT
  5
16C
330
17
100
AcDbEntity
  8
COTA
100
AcDbText
 10
7454.9
 20
4621.7
 30
0.0
 40
4.0
  1
59
100
AcDbText
  0
LINE
  5
16D
330
17
100
AcDbEntity
  8
COTA
100
AcDbLine
 10
7196.3
 20
4565.7
 30
0.0
 11
7440.3
 21
4565.7
 31
0.0
  0
LINE
  5
16E
330
17
100
AcDbEntity
  8
COTA
100
AcDbLine
 10
7440.3
 20
4592.2
 30
0.0
 11
7440.3
 21
4560.7
 31
0.0
  0
LINE
  5
16F
330
17
100
AcDbEntity
  8
COTA
100
AcDbLine
 10
7196.3
 20
4592.2
 30
0.0
 11
7196.3
 21
4560.7
 31
0.0
  0
TEXT
  5
170
330
17
100
AcDbEntity
  8
COTA
100
AcDbText
 10
7318.3
 20
4573.7
 30
0.0
 40
4.0
  1
244
100
AcDbText
  0
LINE
  5
171
330
17
100
AcDbEntity
  8
COTA
100
AcDbLine
 10
6703.0
 20
4381.0
 30
0.0
 11
6947.0
 21
4381.0
 31
0.0
  0
LINE
  5
172
330
17
100
AcDbEntity
  8
COTA
100
AcDbLine
 10
6703.0
 20
4407.6
 30
0.0
 11
6703.0
 21
4376.0
 31
0.0
  0
LINE
  5
173
330
17
100
AcDbEntity
  8
COTA
100
AcDbLine
 10
6947.0
 20
4407.6
 30
0.0
 11
6947.0
 21
4376.0
 31
0.0
  0
TEXT
  5
174
330
17
100
AcDbEntity
  8
COTA
100
AcDbText
 10
6825.0
 20
4389.1
 30
0.0
 40
4.0
  1
244
100
AcDbText
  0
LINE
  5
175
330
17
100
AcDbEntity
  8
COTA
100
AcDbLine
 10
6947.0
 20
4381.0
 30
0.0
 11
7114.5
 21
4381.0
 31
0.0
  0
LINE
  5
176
330
17
100
AcDbEntity
  8
COTA
100
AcDbLine
 10
6947.0
 20
4407.6
 30
0.0
 11
6947.0
 21
4376.0
 31
0.0
  0
LINE
  5
177
330
17
100
AcDbEntity
  8
COTA
100
AcDbLine
 10
7114.5
 20
4407.6
 30
0.0
 11
7114.5
 21
4376.0
 31
0.0
  0
TEXT
  5
178
330
17
100
AcDbEntity
  8
COTA
100
AcDbText
 10
7030.7
 20
4389.1
 30
0.0
 40
4.0
  1
168
100
AcDbText
  0
LINE
  5
179
330
17
100
AcDbEntity
  8
COTA
100
AcDbLine
 10
6703.0
 20
4347.5
 30
0.0
 11
7114.5
 21
4347.5
 31
0.0
  0
LINE
  5
17A
330
17
100
AcDbEntity
  8
COTA
100
AcDbLine
 10
6703.0
 20
4407.6
 30
0.0
 11
6703.0
 21
4342.5
 31
0.0
  0
LINE
  5
17B
330
17
100
AcDbEntity
  8
COTA
100
AcDbLine
 10
7114.5
 20
4407.6
 30
0.0
 11
7114.5
 21
4342.5
 31
0.0
  0
TEXT
  5
17C
330
17
100
AcDbEntity
  8
COTA
100
AcDbText
 10
6908.7
 20
4355.6
 30
0.0
 40
4.0
  1
412
100
AcDbText
  0
LINE
  5
17D
330
17
100
AcDbEntity
  8
COTA
100
AcDbLine
 10
7140.9
 20
4381.0
 30
0.0
 11
7384.9
 21
4381.0
 31
0.0
  0
LINE
  5
17E
330
17
100
AcDbEntity
  8
COTA
100
AcDbLine
 10
7140.9
 20
4407.6
 30
0.0
 11
7140.9
 21
4376.0
 31
0.0
  0
LINE
  5
17F
330
17
100
AcDbEntity
  8
COTA
100
AcDbLine
 10
7384.9
 20
4407.6
 30
0.0
 11
7384.9
 21
4376.0
 31
0.0
  0
TEXT
  5
180
330
17
100
AcDbEntity
  8
COTA
100
AcDbText
 10
7262.9
 20
4389.1
 30
0.0
 40
4.0
  1
244
100
AcDbText
  0
LINE
  5
181
330
17
100
AcDbEntity
  8
COTA
100
AcDbLine
 10
7384.9
 20
4381.0
 30
0.0
 11
7553.9
 21
4381.0
 31
0.0
  0
LINE
  5
182
330
17
100
AcDbEntity
  8
COTA
100
AcDbLine
 10
7384.9
 20
4407.6
 30
0.0
 11
7384.9
 21
4376.0
 31
0.0
  0
LINE
  5
183
330
17
100
AcDbEntity
  8
COTA
100
AcDbLine
 10
7553.9
 20
4407.6
 30
0.0
 11
7553.9
 21
4376.0
 31
0.0
  0
TEXT
  5
184
330
17
100
AcDbEntity
  8
COTA
100
AcDbText
 10
7469.4
 20
4389.2
 30
0.0
 40
4.0
  1
169
100
AcDbText
  0
LINE
  5
185
330
17
100
AcDbEntity
  8
COTA
100
AcDbLine
 10
7140.9
 20
4347.5
 30
0.0
 11
7553.9
 21
4347.5
 31
0.0
  0
LINE
  5
186
330
17
100
AcDbEntity
  8
COTA
100
AcDbLine
 10
7140.9
 20
4407.6
 30
0.0
 11
7140.9
 21
4342.5
 31
0.0
  0
LINE
  5
187
330
17
100
AcDbEntity
  8
COTA
100
AcDbLine
 10
7553.9
 20
4407.6
 30
0.0
 11
7553.9
 21
4342.5
 31
0.0
  0
TEXT
  5
188
330
17
100
AcDbEntity
  8
COTA
100
AcDbText
 10
7347.4
 20
4355.7
 30
0.0
 40
4.0
  1
413
100
AcDbText
  0
LINE
  5
189
330
17
100
AcDbEntity
  8
COTA
100
AcDbLine
 10
6703.0
 20
4192.3
 30
0.0
 11
6947.0
 21
4192.3
 31
0.0
  0
LINE
  5
18A
330
17
100
AcDbEntity
  8
COTA
100
AcDbLine
 10
6703.0
 20
4218.8
 30
0.0
 11
6703.0
 21
4187.3
 31
0.0
  0
LINE
  5
18B
330
17
100
AcDbEntity
  8
COTA
100
AcDbLine
 10
6947.0
 20
4218.8
 30
0.0
 11
6947.0
 21
4187.3
 31
0.0
  0
TEXT
  5
18C
330
17
100
AcDbEntity
  8
COTA
100
AcDbText
 10
6825.0
 20
4200.3
 30
0.0
 40
4.0
  1
244
100
AcDbText
  0
LINE
  5
18D
330
17
100
AcDbEntity
  8
COTA
100
AcDbLine
 10
6947.0
 20
4192.3
 30
0.0
 11
7116.0
 21
4192.3
 31
0.0
  0
LINE
  5
18E
330
17
100
AcDbEntity
  8
COTA
100
AcDbLine
 10
6947.0
 20
4218.8
 30
0.0
 11
6947.0
 21
4187.3
 31
0.0
  0
LINE
  5
18F
330
17
100
AcDbEntity
  8
COTA
100
AcDbLine
 10
7116.0
 20
4218.8
 30
0.0
 11
7116.0
 21
4187.3
 31
0.0
  0
TEXT
  5
190
330
17
100
AcDbEntity
  8
COTA
100
AcDbText
 10
7031.5
 20
4200.4
 30
0.0
 40
4.0
  1
169
100
AcDbText
  0
LINE
  5
191
330
17
100
AcDbEntity
  8
COTA
100
AcDbLine
 10
6703.0
 20
4168.1
 30
0.0
 11
7116.0
 21
4168.1
 31
0.0
  0
LINE
  5
192
330
17
100
AcDbEntity
  8
COTA
100
AcDbLine
 10
6703.0
 20
4218.8
 30
0.0
 11
6703.0
 21
4163.1
 31
0.0
  0
LINE
  5
193
330
17
100
AcDbEntity
  8
COTA
100
AcDbLine
 10
7116.0
 20
4218.8
 30
0.0
 11
7116.0
 21
4163.1
 31
0.0
  0
TEXT
  5
194
330
17
100
AcDbEntity
  8
COTA
100
AcDbText
 10
6909.5
 20
4176.3
 30
0.0
 40
4.0
  1
413
100
AcDbText
  0
LINE
  5
195
330
17
100
AcDbEntity
  8
COTA
100
AcDbLine
 10
7135.2
 20
4192.3
 30
0.0
 11
7379.2
 21
4192.3
 31
0.0
  0
LINE
  5
196
330
17
100
AcDbEntity
  8
COTA
100
AcDbLine
 10
7135.2
 20
4218.8
 30
0.0
 11
7135.2
 21
4187.3
 31
0.0
  0
LINE
  5
197
330
17
100
AcDbEntity
  8
COTA
100
AcDbLine
 10
7379.2
 20
4218.8
 30
0.0
 11
7379.2
 21
4187.3
 31
0.0
  0
TEXT
  5
198
330
17
100
AcDbEntity
  8
COTA
100
AcDbText
 10
7257.2
 20
4200.3
 30
0.0
 40
4.0
  1
244
100
AcDbText
  0
LINE
  5
199
330
17
100
AcDbEntity
  8
COTA
100
AcDbLine
 10
7379.2
 20
4192.3
 30
0.0
 11
7548.2
 21
4192.3
 31
0.0
  0
LINE
  5
19A
330
17
100
AcDbEntity
  8
COTA
100
AcDbLine
 10
7379.2
 20
4218.8
 30
0.0
 11
7379.2
 21
4187.3
 31
0.0
  0
LINE
  5
19B
330
17
100
AcDbEntity
  8
COTA
100
AcDbLine
 10
7548.2
 20
4218.8
 30
0.0
 11
7548.2
 21
4187.3
 31
0.0
  0
TEXT
  5
19C
330
17
100
AcDbEntity
  8
COTA
100
AcDbText
 10
7463.7
 20
4200.4
 30
0.0
 40
4.0
  1
169
100
AcDbText
  0
LINE
  5
19D
330
17
100
AcDbEntity
  8
COTA
100
AcDbLine
 10
7135.2
 20
4168.1
 30
0.0
 11
7548.2
 21
4168.1
 31
0.0
  0
LINE
  5
19E
330
17
100
AcDbEntity
  8
COTA
100
AcDbLine
 10
7135.2
 20
4218.8
 30
0.0
 11
7135.2
 21
4163.1
 31
0.0
  0
LINE
  5
19F
330
17
100
AcDbEntity
  8
COTA
100
AcDbLine
 10
7548.2
 20
4218.8
 30
0.0
 11
7548.2
 21
4163.1
 31
0.0
  0
TEXT
  5
1A0
330
17
100
AcDbEntity
  8
COTA
100
AcDbText
 10
7341.7
 20
4176.3
 30
0.0
 40
4.0
  1
413
100
AcDbText
  0
LINE
  5
1A1
330
17
100
AcDbEntity
  8
COTA
100
AcDbLine
 10
6702.5
 20
4011.6
 30
0.0
 11
6766.5
 21
4011.6
 31
0.0
  0
LINE
  5
1A2
330
17
100
AcDbEntity
  8
COTA
100
AcDbLine
 10
6702.5
 20
4038.1
 30
0.0
 11
6702.5
 21
4006.6
 31
0.0
  0
LINE
  5
1A3
330
17
100
AcDbEntity
  8
COTA
100
AcDbLine
 10
6766.5
 20
4038.1
 30
0.0
 11
6766.5
 21
4006.6
 31
0.0
  0
TEXT
  5
1A4
330
17
100
AcDbEntity
  8
COTA
100
AcDbText
 10
6734.5
 20
4019.7
 30
0.0
 40
4.0
  1
64
100
AcDbText
  0
LINE
  5
1A5
330
17
100
AcDbEntity
  8
COTA
100
AcDbLine
 10
6766.5
 20
4011.6
 30
0.0
 11
6858.5
 21
4011.6
 31
0.0
  0
LINE
  5
1A6
330
17
100
AcDbEntity
  8
COTA
100
AcDbLine
 10
6766.5
 20
4038.1
 30
0.0
 11
6766.5
 21
4006.6
 31
0.0
  0
LINE
  5
1A7
330
17
100
AcDbEntity
  8
COTA
100
AcDbLine
 10
6858.5
 20
4038.1
 30
0.0
 11
6858.5
 21
4006.6
 31
0.0
  0
TEXT
  5
1A8
330
17
100
AcDbEntity
  8
COTA
100
AcDbText
 10
6812.5
 20
4019.7
 30
0.0
 40
4.0
  1
92
100
AcDbText
  0
LINE
  5
1A9
330
17
100
AcDbEntity
  8
COTA
100
AcDbLine
 10
6702.5
 20
3987.4
 30
0.0
 11
6858.5
 21
3987.4
 31
0.0
  0
LINE
  5
1AA
330
17
100
AcDbEntity
  8
COTA
100
AcDbLine
 10
6702.5
 20
4038.1
 30
0.0
 11
6702.5
 21
3982.4
 31
0.0
  0
LINE
  5
1AB
330
17
100
AcDbEntity
  8
COTA
100
AcDbLine
 10
6858.5
 20
4038.1
 30
0.0
 11
6858.5
 21
3982.4
 31
0.0
  0
TEXT
  5
1AC
330
17
100
AcDbEntity
  8
COTA
100
AcDbText
 10
6780.5
 20
3995.5
 30
0.0
 40
4.0
  1
156
100
AcDbText
  0
LINE
  5
1AD
330
17
100
AcDbEntity
  8
COTA
100
AcDbLine
 10
6879.9
 20
4038.1
 30
0.0
 11
6879.9
 21
4078.1
 31
0.0
  0
LINE
  5
1AE
330
17
100
AcDbEntity
  8
COTA
100
AcDbLine
 10
6858.5
 20
4078.1
 30
0.0
 11
6884.9
 21
4078.1
 31
0.0
  0
LINE
  5
1AF
330
17
100
AcDbEntity
  8
COTA
100
AcDbLine
 10
6858.5
 20
4038.1
 30
0.0
 11
6884.9
 21
4038.1
 31
0.0
  0
TEXT
  5
1B0
330
17
100
AcDbEntity
  8
COTA
100
AcDbText
 10
6871.8
 20
4058.1
 30
0.0
 40
4.0
  1
40
100
AcDbText
  0
LINE
  5
1B1
330
17
100
AcDbEntity
  8
COTA
100
AcDbLine
 10
6879.9
 20
4078.1
 30
0.0
 11
6879.9
 21
4090.1
 31
0.0
  0
LINE
  5
1B2
330
17
100
AcDbEntity
  8
COTA
100
AcDbLine
 10
6858.5
 20
4078.1
 30
0.0
 11
6884.9
 21
4078.1
 31
0.0
  0
LINE
  5
1B3
330
17
100
AcDbEntity
  8
COTA
100
AcDbLine
 10
6858.5
 20
4090.1
 30
0.0
 11
6884.9
 21
4090.1
 31
0.0
  0
TEXT
  5
1B4
330
17
100
AcDbEntity
  8
COTA
100
AcDbText
 10
6879.9
 20
4084.1
 30
0.0
 40
4.0
  1
12
100
AcDbText
  0
LINE
  5
1B5
330
17
100
AcDbEntity
  8
COTA
100
AcDbLine
 10
6879.9
 20
4090.1
 30
0.0
 11
6879.9
 21
4097.1
 31
0.0
  0
LINE
  5
1B6
330
17
100
AcDbEntity
  8
COTA
100
AcDbLine
 10
6858.5
 20
4090.1
 30
0.0
 11
6884.9
 21
4090.1
 31
0.0
  0
LINE
  5
1B7
330
17
100
AcDbEntity
  8
COTA
100
AcDbLine
 10
6858.5
 20
4097.1
 30
0.0
 11
6884.9
 21
4097.1
 31
0.0
  0
TEXT
  5
1B8
330
17
100
AcDbEntity
  8
COTA
100
AcDbText
 10
6871.8
 20
4106.0
 30
0.0
 40
4.0
  1
7
100
AcDbText
  0
LINE
  5
1B9
330
17
100
AcDbEntity
  8
COTA
100
AcDbLine
 10
6905.9
 20
4038.1
 30
0.0
 11
6905.9
 21
4097.1
 31
0.0
  0
LINE
  5
1BA
330
17
100
AcDbEntity
  8
COTA
100
AcDbLine
 10
6858.5
 20
4097.1
 30
0.0
 11
6910.9
 21
4097.1
 31
0.0
  0
LINE
  5
1BB
330
17
100
AcDbEntity
  8
COTA
100
AcDbLine
 10
6858.5
 20
4038.1
 30
0.0
 11
6910.9
 21
4038.1
 31
0.0
  0
TEXT
  5
1BC
330
17
100
AcDbEntity
  8
COTA
100
AcDbText
 10
6897.7
 20
4067.6
 30
0.0
 40
4.0
  1
59
100
AcDbText
  0
LINE
  5
1BD
330
17
100
AcDbEntity
  8
COTA
100
AcDbLine
 10
7334.8
 20
4622.0
 30
0.0
 11
7440.3
 21
4622.0
 31
0.0
  0
LINE
  5
1BE
330
17
100
AcDbEntity
  8
COTA
100
AcDbLine
 10
7440.3
 20
4621.7
 30
0.0
 11
7440.3
 21
4627.0
 31
0.0
  0
LINE
  5
1BF
330
17
100
AcDbEntity
  8
COTA
100
AcDbLine
 10
7334.8
 20
4621.7
 30
0.0
 11
7334.8
 21
4627.0
 31
0.0
  0
TEXT
  5
1C0
330
17
100
AcDbEntity
  8
COTA
100
AcDbText
 10
7387.6
 20
4630.1
 30
0.0
 40
4.0
  1
106
100
AcDbText
  0
LINE
  5
1C1
330
17
100
AcDbEntity
  8
COTA
100
AcDbLine
 10
6038.5
 20
3319.9
 30
0.0
 11
6038.5
 21
3437.9
 31
0.0
  0
LINE
  5
1C2
330
17
100
AcDbEntity
  8
COTA
100
AcDbLine
 10
5995.2
 20
3319.9
 30
0.0
 11
6043.5
 21
3319.9
 31
0.0
  0
LINE
  5
1C3
330
17
100
AcDbEntity
  8
COTA
100
AcDbLine
 10
5979.6
 20
3437.9
 30
0.0
 11
6043.5
 21
3437.9
 31
0.0
  0
TEXT
  5
1C4
330
17
100
AcDbEntity
  8
COTA
100
AcDbText
 10
6033.0
 20
3378.9
 30
0.0
 40
4.0
  1
59
100
AcDbText
  0
LINE
  5
1C5
330
17
100
AcDbEntity
  8
COTA
100
AcDbLine
 10
5878.0
 20
3437.9
 30
0.0
 11
5925.6
 21
3437.9
 31
0.0
  0
LINE
  5
1C6
330
17
100
AcDbEntity
  8
COTA
100
AcDbLine
 10
5878.0
 20
3423.9
 30
0.0
 11
5878.0
 21
3442.9
 31
0.0
  0
LINE
  5
1C7
330
17
100
AcDbEntity
  8
COTA
100
AcDbLine
 10
5925.6
 20
3437.9
 30
0.0
 11
5925.6
 21
3442.9
 31
0.0
  0
TEXT
  5
1C8
330
17
100
AcDbEntity
  8
COTA
100
AcDbText
 10
5839.5
 20
3430.9
 30
0.0
 40
4.0
  1
7
100
AcDbText
  0
LINE
  5
1C9
330
17
100
AcDbEntity
  8
Cota Seção (2x)
100
AcDbLine
 10
5961.6
 20
3327.9
 30
0.0
 11
5961.6
 21
3437.9
 31
0.0
  0
LINE
  5
1CA
330
17
100
AcDbEntity
  8
Cota Seção (2x)
100
AcDbLine
 10
5961.6
 20
3327.9
 30
0.0
 11
5966.6
 21
3327.9
 31
0.0
  0
LINE
  5
1CB
330
17
100
AcDbEntity
  8
Cota Seção (2x)
100
AcDbLine
 10
5961.6
 20
3437.9
 30
0.0
 11
5966.6
 21
3437.9
 31
0.0
  0
TEXT
  5
1CC
330
17
100
AcDbEntity
  8
Cota Seção (2x)
100
AcDbText
 10
5961.6
 20
3382.9
 30
0.0
 40
4.0
  1
55
100
AcDbText
  0
LINE
  5
1CD
330
17
100
AcDbEntity
  8
SARR_2.2x7
100
AcDbLine
 10
5839.3
 20
4620.5
 30
0.0
 11
5839.3
 21
4660.5
 31
0.0
  0
LINE
  5
1CE
330
17
100
AcDbEntity
  8
SARR_2.2x7
100
AcDbLine
 10
5602.3
 20
4653.5
 30
0.0
 11
5839.3
 21
4653.5
 31
0.0
  0
LINE
  5
1CF
330
17
100
AcDbEntity
  8
SARR_2.2x7
100
AcDbLine
 10
5602.3
 20
4627.5
 30
0.0
 11
5839.3
 21
4627.5
 31
0.0
  0
LINE
  5
1D0
330
17
100
AcDbEntity
  8
SARR_2.2x7
100
AcDbLine
 10
6036.7
 20
4434.6
 30
0.0
 11
6036.7
 21
4474.6
 31
0.0
  0
LINE
  5
1D1
330
17
100
AcDbEntity
  8
SARR_2.2x7
100
AcDbLine
 10
5873.7
 20
4467.6
 30
0.0
 11
6036.7
 21
4467.6
 31
0.0
  0
LINE
  5
1D2
330
17
100
AcDbEntity
  8
SARR_2.2x7
100
AcDbLine
 10
5873.7
 20
4441.6
 30
0.0
 11
6036.7
 21
4441.6
 31
0.0
  0
LINE
  5
1D3
330
17
100
AcDbEntity
  8
SARR_2.2x7
100
AcDbLine
 10
5636.7
 20
4467.6
 30
0.0
 11
5873.7
 21
4467.6
 31
0.0
  0
LINE
  5
1D4
330
17
100
AcDbEntity
  8
SARR_2.2x7
100
AcDbLine
 10
5636.7
 20
4441.6
 30
0.0
 11
5873.7
 21
4441.6
 31
0.0
  0
LINE
  5
1D5
330
17
100
AcDbEntity
  8
SARR_2.2x7
100
AcDbLine
 10
5871.8
 20
4490.1
 30
0.0
 11
6045.7
 21
4490.1
 31
0.0
  0
LINE
  5
1D6
330
17
100
AcDbEntity
  8
SARR_2.2x7
100
AcDbLine
 10
5627.7
 20
4490.1
 30
0.0
 11
5871.8
 21
4490.1
 31
0.0
  0
LINE
  5
1D7
330
17
100
AcDbEntity
  8
SARR_2.2x7
100
AcDbLine
 10
6035.6
 20
4233.2
 30
0.0
 11
6035.6
 21
4273.2
 31
0.0
  0
LINE
  5
1D8
330
17
100
AcDbEntity
  8
SARR_2.2x7
100
AcDbLine
 10
5874.6
 20
4266.2
 30
0.0
 11
6035.6
 21
4266.2
 31
0.0
  0
LINE
  5
1D9
330
17
100
AcDbEntity
  8
SARR_2.2x7
100
AcDbLine
 10
5874.6
 20
4240.2
 30
0.0
 11
6035.6
 21
4240.2
 31
0.0
  0
LINE
  5
1DA
330
17
100
AcDbEntity
  8
SARR_2.2x7
100
AcDbLine
 10
5637.6
 20
4266.2
 30
0.0
 11
5874.6
 21
4266.2
 31
0.0
  0
LINE
  5
1DB
330
17
100
AcDbEntity
  8
SARR_2.2x7
100
AcDbLine
 10
5637.6
 20
4240.2
 30
0.0
 11
5874.6
 21
4240.2
 31
0.0
  0
LINE
  5
1DC
330
17
100
AcDbEntity
  8
SARR_2.2x7
100
AcDbLine
 10
5872.6
 20
4288.7
 30
0.0
 11
6042.6
 21
4288.7
 31
0.0
  0
LINE
  5
1DD
330
17
100
AcDbEntity
  8
SARR_2.2x7
100
AcDbLine
 10
5628.6
 20
4288.7
 30
0.0
 11
5872.6
 21
4288.7
 31
0.0
  0
LINE
  5
1DE
330
17
100
AcDbEntity
  8
SARR_2.2x7
100
AcDbLine
 10
5559.1
 20
4083.1
 30
0.0
 11
5726.2
 21
4083.1
 31
0.0
  0
LINE
  5
1DF
330
17
100
AcDbEntity
  8
SARR_2.2x7
100
AcDbLine
 10
5726.2
 20
4046.1
 30
0.0
 11
5726.2
 21
4090.1
 31
0.0
  0
LINE
  5
1E0
330
17
100
AcDbEntity
  8
SARR_2.2x7
100
AcDbLine
 10
5559.1
 20
4053.1
 30
0.0
 11
5726.2
 21
4053.1
 31
0.0
  0
LINE
  5
1E1
330
17
100
AcDbEntity
  8
SARR_2.2x7
100
AcDbLine
 10
6036.3
 20
4046.1
 30
0.0
 11
6036.3
 21
4089.1
 31
0.0
  0
LINE
  5
1E2
330
17
100
AcDbEntity
  8
SARR_2.2x7
100
AcDbLine
 10
5803.8
 20
4046.1
 30
0.0
 11
5803.8
 21
4089.1
 31
0.0
  0
LINE
  5
1E3
330
17
100
AcDbEntity
  8
SARR_2.2x7
100
AcDbLine
 10
5803.8
 20
4082.1
 30
0.0
 11
5921.3
 21
4082.1
 31
0.0
  0
LINE
  5
1E4
330
17
100
AcDbEntity
  8
SARR_2.2x7
100
AcDbLine
 10
5803.8
 20
4053.1
 30
0.0
 11
5921.3
 21
4053.1
 31
0.0
  0
LINE
  5
1E5
330
17
100
AcDbEntity
  8
SARR_2.2x7
100
AcDbLine
 10
5921.3
 20
4082.1
 30
0.0
 11
6036.3
 21
4082.1
 31
0.0
  0
LINE
  5
1E6
330
17
100
AcDbEntity
  8
SARR_2.2x7
100
AcDbLine
 10
5921.3
 20
4053.1
 30
0.0
 11
6036.3
 21
4053.1
 31
0.0
  0
LINE
  5
1E7
330
17
100
AcDbEntity
  8
SARR_2.2x7
100
AcDbLine
 10
5602.3
 20
4637.0
 30
0.0
 11
5839.3
 21
4637.0
 31
0.0
  0
LINE
  5
1E8
330
17
100
AcDbEntity
  8
SARR_2.2x7
100
AcDbLine
 10
5602.3
 20
4644.0
 30
0.0
 11
5839.3
 21
4644.0
 31
0.0
  0
LINE
  5
1E9
330
17
100
AcDbEntity
  8
SARR_2.2x7
100
AcDbLine
 10
5636.7
 20
4451.1
 30
0.0
 11
5873.7
 21
4451.1
 31
0.0
  0
LINE
  5
1EA
330
17
100
AcDbEntity
  8
SARR_2.2x7
100
AcDbLine
 10
5636.7
 20
4458.1
 30
0.0
 11
5873.7
 21
4458.1
 31
0.0
  0
LINE
  5
1EB
330
17
100
AcDbEntity
  8
SARR_2.2x7
100
AcDbLine
 10
5873.7
 20
4451.1
 30
0.0
 11
6036.7
 21
4451.1
 31
0.0
  0
LINE
  5
1EC
330
17
100
AcDbEntity
  8
SARR_2.2x7
100
AcDbLine
 10
5873.7
 20
4458.1
 30
0.0
 11
6036.7
 21
4458.1
 31
0.0
  0
LINE
  5
1ED
330
17
100
AcDbEntity
  8
SARR_2.2x7
100
AcDbLine
 10
5637.6
 20
4249.7
 30
0.0
 11
5874.6
 21
4249.7
 31
0.0
  0
LINE
  5
1EE
330
17
100
AcDbEntity
  8
SARR_2.2x7
100
AcDbLine
 10
5637.6
 20
4256.7
 30
0.0
 11
5874.6
 21
4256.7
 31
0.0
  0
LINE
  5
1EF
330
17
100
AcDbEntity
  8
SARR_2.2x7
100
AcDbLine
 10
5874.6
 20
4249.7
 30
0.0
 11
6035.6
 21
4249.7
 31
0.0
  0
LINE
  5
1F0
330
17
100
AcDbEntity
  8
SARR_2.2x7
100
AcDbLine
 10
5874.6
 20
4256.7
 30
0.0
 11
6035.6
 21
4256.7
 31
0.0
  0
LINE
  5
1F1
330
17
100
AcDbEntity
  8
SARR_2.2x7
100
AcDbLine
 10
5559.1
 20
4064.6
 30
0.0
 11
5726.2
 21
4064.6
 31
0.0
  0
LINE
  5
1F2
330
17
100
AcDbEntity
  8
SARR_2.2x7
100
AcDbLine
 10
5559.1
 20
4071.6
 30
0.0
 11
5726.2
 21
4071.6
 31
0.0
  0
LINE
  5
1F3
330
17
100
AcDbEntity
  8
SARR_2.2x7
100
AcDbLine
 10
5803.8
 20
4064.1
 30
0.0
 11
5921.3
 21
4064.1
 31
0.0
  0
LINE
  5
1F4
330
17
100
AcDbEntity
  8
SARR_2.2x7
100
AcDbLine
 10
5803.8
 20
4071.1
 30
0.0
 11
5921.3
 21
4071.1
 31
0.0
  0
LINE
  5
1F5
330
17
100
AcDbEntity
  8
SARR_2.2x7
100
AcDbLine
 10
5921.3
 20
4064.1
 30
0.0
 11
6036.3
 21
4064.1
 31
0.0
  0
LINE
  5
1F6
330
17
100
AcDbEntity
  8
SARR_2.2x7
100
AcDbLine
 10
5921.3
 20
4071.1
 30
0.0
 11
6036.3
 21
4071.1
 31
0.0
  0
LINE
  5
1F7
330
17
100
AcDbEntity
  8
SARR_2.2x7
100
AcDbLine
 10
6715.3
 20
4644.2
 30
0.0
 11
6952.3
 21
4644.2
 31
0.0
  0
LINE
  5
1F8
330
17
100
AcDbEntity
  8
SARR_2.2x7
100
AcDbLine
 10
6952.3
 20
4644.2
 30
0.0
 11
7196.3
 21
4644.2
 31
0.0
  0
LINE
  5
1F9
330
17
100
AcDbEntity
  8
SARR_2.2x7
100
AcDbLine
 10
7196.3
 20
4644.2
 30
0.0
 11
7440.3
 21
4644.2
 31
0.0
  0
LINE
  5
1FA
330
17
100
AcDbEntity
  8
SARR_2.2x7
100
AcDbLine
 10
6715.3
 20
4592.2
 30
0.0
 11
6715.3
 21
4651.2
 31
0.0
  0
LINE
  5
1FB
330
17
100
AcDbEntity
  8
SARR_2.2x7
100
AcDbLine
 10
7334.8
 20
4592.2
 30
0.0
 11
7334.8
 21
4599.2
 31
0.0
  0
LINE
  5
1FC
330
17
100
AcDbEntity
  8
SARR_2.2x7
100
AcDbLine
 10
7334.8
 20
4618.2
 30
0.0
 11
7334.8
 21
4625.2
 31
0.0
  0
LINE
  5
1FD
330
17
100
AcDbEntity
  8
SARR_2.2x7
100
AcDbLine
 10
6715.3
 20
4599.2
 30
0.0
 11
6952.3
 21
4599.2
 31
0.0
  0
LINE
  5
1FE
330
17
100
AcDbEntity
  8
SARR_2.2x7
100
AcDbLine
 10
6952.3
 20
4599.2
 30
0.0
 11
7196.3
 21
4599.2
 31
0.0
  0
LINE
  5
1FF
330
17
100
AcDbEntity
  8
SARR_2.2x7
100
AcDbLine
 10
7196.3
 20
4599.2
 30
0.0
 11
7334.8
 21
4599.2
 31
0.0
  0
LINE
  5
200
330
17
100
AcDbEntity
  8
SARR_2.2x7
100
AcDbLine
 10
6952.3
 20
4618.2
 30
0.0
 11
7196.3
 21
4618.2
 31
0.0
  0
LINE
  5
201
330
17
100
AcDbEntity
  8
SARR_2.2x7
100
AcDbLine
 10
6952.3
 20
4625.2
 30
0.0
 11
7196.3
 21
4625.2
 31
0.0
  0
LINE
  5
202
330
17
100
AcDbEntity
  8
SARR_2.2x7
100
AcDbLine
 10
6715.3
 20
4618.2
 30
0.0
 11
6952.3
 21
4618.2
 31
0.0
  0
LINE
  5
203
330
17
100
AcDbEntity
  8
SARR_2.2x7
100
AcDbLine
 10
7196.3
 20
4618.2
 30
0.0
 11
7334.8
 21
4618.2
 31
0.0
  0
LINE
  5
204
330
17
100
AcDbEntity
  8
SARR_2.2x7
100
AcDbLine
 10
6715.3
 20
4625.2
 30
0.0
 11
6952.3
 21
4625.2
 31
0.0
  0
LINE
  5
205
330
17
100
AcDbEntity
  8
SARR_2.2x7
100
AcDbLine
 10
7196.3
 20
4625.2
 30
0.0
 11
7334.8
 21
4625.2
 31
0.0
  0
LINE
  5
206
330
17
100
AcDbEntity
  8
SARR_2.2x7
100
AcDbLine
 10
6710.0
 20
4440.6
 30
0.0
 11
6947.0
 21
4440.6
 31
0.0
  0
LINE
  5
207
330
17
100
AcDbEntity
  8
SARR_2.2x7
100
AcDbLine
 10
6947.0
 20
4440.6
 30
0.0
 11
7107.5
 21
4440.6
 31
0.0
  0
LINE
  5
208
330
17
100
AcDbEntity
  8
SARR_2.2x7
100
AcDbLine
 10
6710.0
 20
4407.6
 30
0.0
 11
6710.0
 21
4447.6
 31
0.0
  0
LINE
  5
209
330
17
100
AcDbEntity
  8
SARR_2.2x7
100
AcDbLine
 10
7107.5
 20
4407.6
 30
0.0
 11
7107.5
 21
4447.6
 31
0.0
  0
LINE
  5
20A
330
17
100
AcDbEntity
  8
SARR_2.2x7
100
AcDbLine
 10
6703.0
 20
4463.1
 30
0.0
 11
6947.0
 21
4463.1
 31
0.0
  0
LINE
  5
20B
330
17
100
AcDbEntity
  8
SARR_2.2x7
100
AcDbLine
 10
6947.0
 20
4463.1
 30
0.0
 11
7114.5
 21
4463.1
 31
0.0
  0
LINE
  5
20C
330
17
100
AcDbEntity
  8
SARR_2.2x7
100
AcDbLine
 10
6710.0
 20
4414.6
 30
0.0
 11
6947.0
 21
4414.6
 31
0.0
  0
LINE
  5
20D
330
17
100
AcDbEntity
  8
SARR_2.2x7
100
AcDbLine
 10
6947.0
 20
4414.6
 30
0.0
 11
7107.5
 21
4414.6
 31
0.0
  0
LINE
  5
20E
330
17
100
AcDbEntity
  8
SARR_2.2x7
100
AcDbLine
 10
7147.9
 20
4440.6
 30
0.0
 11
7384.9
 21
4440.6
 31
0.0
  0
LINE
  5
20F
330
17
100
AcDbEntity
  8
SARR_2.2x7
100
AcDbLine
 10
7384.9
 20
4440.6
 30
0.0
 11
7547.0
 21
4440.6
 31
0.0
  0
LINE
  5
210
330
17
100
AcDbEntity
  8
SARR_2.2x7
100
AcDbLine
 10
7147.9
 20
4407.6
 30
0.0
 11
7147.9
 21
4447.6
 31
0.0
  0
LINE
  5
211
330
17
100
AcDbEntity
  8
SARR_2.2x7
100
AcDbLine
 10
7140.9
 20
4463.1
 30
0.0
 11
7384.9
 21
4463.1
 31
0.0
  0
LINE
  5
212
330
17
100
AcDbEntity
  8
SARR_2.2x7
100
AcDbLine
 10
7384.9
 20
4463.1
 30
0.0
 11
7553.9
 21
4463.1
 31
0.0
  0
LINE
  5
213
330
17
100
AcDbEntity
  8
SARR_2.2x7
100
AcDbLine
 10
7147.9
 20
4414.6
 30
0.0
 11
7384.9
 21
4414.6
 31
0.0
  0
LINE
  5
214
330
17
100
AcDbEntity
  8
SARR_2.2x7
100
AcDbLine
 10
7384.9
 20
4414.6
 30
0.0
 11
7547.0
 21
4414.6
 31
0.0
  0
LINE
  5
215
330
17
100
AcDbEntity
  8
SARR_2.2x7
100
AcDbLine
 10
6710.0
 20
4251.8
 30
0.0
 11
6947.0
 21
4251.8
 31
0.0
  0
LINE
  5
216
330
17
100
AcDbEntity
  8
SARR_2.2x7
100
AcDbLine
 10
6947.0
 20
4251.8
 30
0.0
 11
7109.0
 21
4251.8
 31
0.0
  0
LINE
  5
217
330
17
100
AcDbEntity
  8
SARR_2.2x7
100
AcDbLine
 10
6710.0
 20
4218.8
 30
0.0
 11
6710.0
 21
4258.8
 31
0.0
  0
LINE
  5
218
330
17
100
AcDbEntity
  8
SARR_2.2x7
100
AcDbLine
 10
7109.0
 20
4218.8
 30
0.0
 11
7109.0
 21
4258.8
 31
0.0
  0
LINE
  5
219
330
17
100
AcDbEntity
  8
SARR_2.2x7
100
AcDbLine
 10
6703.0
 20
4274.3
 30
0.0
 11
6947.0
 21
4274.3
 31
0.0
  0
LINE
  5
21A
330
17
100
AcDbEntity
  8
SARR_2.2x7
100
AcDbLine
 10
6947.0
 20
4274.3
 30
0.0
 11
7116.0
 21
4274.3
 31
0.0
  0
LINE
  5
21B
330
17
100
AcDbEntity
  8
SARR_2.2x7
100
AcDbLine
 10
6710.0
 20
4225.8
 30
0.0
 11
6947.0
 21
4225.8
 31
0.0
  0
LINE
  5
21C
330
17
100
AcDbEntity
  8
SARR_2.2x7
100
AcDbLine
 10
6947.0
 20
4225.8
 30
0.0
 11
7109.0
 21
4225.8
 31
0.0
  0
LINE
  5
21D
330
17
100
AcDbEntity
  8
SARR_2.2x7
100
AcDbLine
 10
7142.2
 20
4251.8
 30
0.0
 11
7379.2
 21
4251.8
 31
0.0
  0
LINE
  5
21E
330
17
100
AcDbEntity
  8
SARR_2.2x7
100
AcDbLine
 10
7379.2
 20
4251.8
 30
0.0
 11
7541.3
 21
4251.8
 31
0.0
  0
LINE
  5
21F
330
17
100
AcDbEntity
  8
SARR_2.2x7
100
AcDbLine
 10
7142.2
 20
4218.8
 30
0.0
 11
7142.2
 21
4258.8
 31
0.0
  0
LINE
  5
220
330
17
100
AcDbEntity
  8
SARR_2.2x7
100
AcDbLine
 10
7135.2
 20
4274.3
 30
0.0
 11
7379.2
 21
4274.3
 31
0.0
  0
LINE
  5
221
330
17
100
AcDbEntity
  8
SARR_2.2x7
100
AcDbLine
 10
7379.2
 20
4274.3
 30
0.0
 11
7548.2
 21
4274.3
 31
0.0
  0
LINE
  5
222
330
17
100
AcDbEntity
  8
SARR_2.2x7
100
AcDbLine
 10
7142.2
 20
4225.8
 30
0.0
 11
7379.2
 21
4225.8
 31
0.0
  0
LINE
  5
223
330
17
100
AcDbEntity
  8
SARR_2.2x7
100
AcDbLine
 10
7379.2
 20
4225.8
 30
0.0
 11
7541.3
 21
4225.8
 31
0.0
  0
LINE
  5
224
330
17
100
AcDbEntity
  8
SARR_2.2x7
100
AcDbLine
 10
6709.5
 20
4071.1
 30
0.0
 11
6766.5
 21
4071.1
 31
0.0
  0
LINE
  5
225
330
17
100
AcDbEntity
  8
SARR_2.2x7
100
AcDbLine
 10
6766.5
 20
4071.1
 30
0.0
 11
6851.6
 21
4071.1
 31
0.0
  0
LINE
  5
226
330
17
100
AcDbEntity
  8
SARR_2.2x7
100
AcDbLine
 10
6709.5
 20
4038.1
 30
0.0
 11
6709.5
 21
4078.1
 31
0.0
  0
LINE
  5
227
330
17
100
AcDbEntity
  8
SARR_2.2x7
100
AcDbLine
 10
6851.6
 20
4038.1
 30
0.0
 11
6851.6
 21
4078.1
 31
0.0
  0
LINE
  5
228
330
17
100
AcDbEntity
  8
SARR_2.2x7
100
AcDbLine
 10
6702.5
 20
4093.6
 30
0.0
 11
6766.5
 21
4093.6
 31
0.0
  0
LINE
  5
229
330
17
100
AcDbEntity
  8
SARR_2.2x7
100
AcDbLine
 10
6766.5
 20
4093.6
 30
0.0
 11
6858.5
 21
4093.6
 31
0.0
  0
LINE
  5
22A
330
17
100
AcDbEntity
  8
SARR_2.2x7
100
AcDbLine
 10
6709.5
 20
4045.1
 30
0.0
 11
6766.5
 21
4045.1
 31
0.0
  0
LINE
  5
22B
330
17
100
AcDbEntity
  8
SARR_2.2x7
100
AcDbLine
 10
6766.5
 20
4045.1
 30
0.0
 11
6851.6
 21
4045.1
 31
0.0
  0
LINE
  5
22C
330
17
100
AcDbEntity
  8
SARR_2.2x7
100
AcDbLine
 10
6710.0
 20
4424.1
 30
0.0
 11
6947.0
 21
4424.1
 31
0.0
  0
LINE
  5
22D
330
17
100
AcDbEntity
  8
SARR_2.2x7
100
AcDbLine
 10
6710.0
 20
4431.1
 30
0.0
 11
6947.0
 21
4431.1
 31
0.0
  0
LINE
  5
22E
330
17
100
AcDbEntity
  8
SARR_2.2x7
100
AcDbLine
 10
6947.0
 20
4424.1
 30
0.0
 11
7107.5
 21
4424.1
 31
0.0
  0
LINE
  5
22F
330
17
100
AcDbEntity
  8
SARR_2.2x7
100
AcDbLine
 10
6947.0
 20
4431.1
 30
0.0
 11
7107.5
 21
4431.1
 31
0.0
  0
LINE
  5
230
330
17
100
AcDbEntity
  8
SARR_2.2x7
100
AcDbLine
 10
7147.9
 20
4424.1
 30
0.0
 11
7384.9
 21
4424.1
 31
0.0
  0
LINE
  5
231
330
17
100
AcDbEntity
  8
SARR_2.2x7
100
AcDbLine
 10
7147.9
 20
4431.1
 30
0.0
 11
7384.9
 21
4431.1
 31
0.0
  0
LINE
  5
232
330
17
100
AcDbEntity
  8
SARR_2.2x7
100
AcDbLine
 10
7384.9
 20
4424.1
 30
0.0
 11
7547.0
 21
4424.1
 31
0.0
  0
LINE
  5
233
330
17
100
AcDbEntity
  8
SARR_2.2x7
100
AcDbLine
 10
7384.9
 20
4431.1
 30
0.0
 11
7547.0
 21
4431.1
 31
0.0
  0
LINE
  5
234
330
17
100
AcDbEntity
  8
SARR_2.2x7
100
AcDbLine
 10
6710.0
 20
4235.3
 30
0.0
 11
6947.0
 21
4235.3
 31
0.0
  0
LINE
  5
235
330
17
100
AcDbEntity
  8
SARR_2.2x7
100
AcDbLine
 10
6710.0
 20
4242.3
 30
0.0
 11
6947.0
 21
4242.3
 31
0.0
  0
LINE
  5
236
330
17
100
AcDbEntity
  8
SARR_2.2x7
100
AcDbLine
 10
6947.0
 20
4235.3
 30
0.0
 11
7109.0
 21
4235.3
 31
0.0
  0
LINE
  5
237
330
17
100
AcDbEntity
  8
SARR_2.2x7
100
AcDbLine
 10
6947.0
 20
4242.3
 30
0.0
 11
7109.0
 21
4242.3
 31
0.0
  0
LINE
  5
238
330
17
100
AcDbEntity
  8
SARR_2.2x7
100
AcDbLine
 10
7142.2
 20
4235.3
 30
0.0
 11
7379.2
 21
4235.3
 31
0.0
  0
LINE
  5
239
330
17
100
AcDbEntity
  8
SARR_2.2x7
100
AcDbLine
 10
7142.2
 20
4242.3
 30
0.0
 11
7379.2
 21
4242.3
 31
0.0
  0
LINE
  5
23A
330
17
100
AcDbEntity
  8
SARR_2.2x7
100
AcDbLine
 10
7379.2
 20
4235.3
 30
0.0
 11
7541.3
 21
4235.3
 31
0.0
  0
LINE
  5
23B
330
17
100
AcDbEntity
  8
SARR_2.2x7
100
AcDbLine
 10
7379.2
 20
4242.3
 30
0.0
 11
7541.3
 21
4242.3
 31
0.0
  0
LINE
  5
23C
330
17
100
AcDbEntity
  8
SARR_2.2x7
100
AcDbLine
 10
6709.5
 20
4054.6
 30
0.0
 11
6766.5
 21
4054.6
 31
0.0
  0
LINE
  5
23D
330
17
100
AcDbEntity
  8
SARR_2.2x7
100
AcDbLine
 10
6709.5
 20
4061.6
 30
0.0
 11
6766.5
 21
4061.6
 31
0.0
  0
LINE
  5
23E
330
17
100
AcDbEntity
  8
SARR_2.2x7
100
AcDbLine
 10
6766.5
 20
4054.6
 30
0.0
 11
6851.6
 21
4054.6
 31
0.0
  0
LINE
  5
23F
330
17
100
AcDbEntity
  8
SARR_2.2x7
100
AcDbLine
 10
6766.5
 20
4061.6
 30
0.0
 11
6851.6
 21
4061.6
 31
0.0
  0
ENDSEC
  0
SECTION
  2
OBJECTS
  0
DICTIONARY
  5
A
330
0
100
AcDbDictionary
281
1
  3
ACAD_COLOR
350
B
  3
ACAD_GROUP
350
C
  3
ACAD_LAYOUT
350
D
  3
ACAD_MATERIAL
350
E
  3
ACAD_MLEADERSTYLE
350
F
  3
ACAD_MLINESTYLE
350
10
  3
ACAD_PLOTSETTINGS
350
11
  3
ACAD_PLOTSTYLENAME
350
12
  3
ACAD_SCALELIST
350
14
  3
ACAD_TABLESTYLE
350
15
  3
ACAD_VISUALSTYLE
350
16
  3
EZDXF_META
350
2D
  0
DICTIONARY
  5
B
330
A
100
AcDbDictionary
281
1
  0
DICTIONARY
  5
C
330
A
100
AcDbDictionary
281
1
  0
DICTIONARY
  5
D
330
A
100
AcDbDictionary
281
1
  3
Model
350
1A
  3
Layout1
350
1E
  0
DICTIONARY
  5
E
330
A
100
AcDbDictionary
281
1
  3
ByBlock
350
1F
  3
ByLayer
350
20
  3
Global
350
21
  0
DICTIONARY
  5
F
330
A
100
AcDbDictionary
281
1
  3
Standard
350
2C
  0
DICTIONARY
  5
10
330
A
100
AcDbDictionary
281
1
  3
Standard
350
22
  0
DICTIONARY
  5
11
330
A
100
AcDbDictionary
281
1
  0
ACDBDICTIONARYWDFLT
  5
12
330
A
100
AcDbDictionary
281
1
  3
Normal
350
13
100
AcDbDictionaryWithDefault
340
13
  0
ACDBPLACEHOLDER
  5
13
330
12
  0
DICTIONARY
  5
14
330
A
100
AcDbDictionary
281
1
  0
DICTIONARY
  5
15
330
A
100
AcDbDictionary
281
1
  0
DICTIONARY
  5
16
330
A
100
AcDbDictionary
281
1
  0
LAYOUT
  5
1A
330
D
100
AcDbPlotSettings
  1

  4
A3
  6

 40
7.5
 41
20.0
 42
7.5
 43
20.0
 44
420.0
 45
297.0
 46
0.0
 47
0.0
 48
0.0
 49
0.0
140
0.0
141
0.0
142
1.0
143
1.0
 70
1024
 72
1
 73
0
 74
5
  7

 75
16
 76
0
 77
2
 78
300
147
1.0
148
0.0
149
0.0
100
AcDbLayout
  1
Model
 70
1
 71
0
 10
0.0
 20
0.0
 11
420.0
 21
297.0
 12
0.0
 22
0.0
 32
0.0
 14
1e+20
 24
1e+20
 34
1e+20
 15
-1e+20
 25
-1e+20
 35
-1e+20
146
0.0
 13
0.0
 23
0.0
 33
0.0
 16
1.0
 26
0.0
 36
0.0
 17
0.0
 27
1.0
 37
0.0
 76
1
330
17
  0
LAYOUT
  5
1E
330
D
100
AcDbPlotSettings
  1

  4
A3
  6

 40
7.5
 41
20.0
 42
7.5
 43
20.0
 44
420.0
 45
297.0
 46
0.0
 47
0.0
 48
0.0
 49
0.0
140
0.0
141
0.0
142
1.0
143
1.0
 70
0
 72
1
 73
0
 74
5
  7

 75
16
 76
0
 77
2
 78
300
147
1.0
148
0.0
149
0.0
100
AcDbLayout
  1
Layout1
 70
1
 71
1
 10
0.0
 20
0.0
 11
420.0
 21
297.0
 12
0.0
 22
0.0
 32
0.0
 14
1e+20
 24
1e+20
 34
1e+20
 15
-1e+20
 25
-1e+20
 35
-1e+20
146
0.0
 13
0.0
 23
0.0
 33
0.0
 16
1.0
 26
0.0
 36
0.0
 17
0.0
 27
1.0
 37
0.0
 76
1
330
1B
  0
MATERIAL
  5
1F
102
{ACAD_REACTORS
330
E
102
}
330
E
100
AcDbMaterial
  1
ByBlock
  2

 70
0
 40
1.0
 71
1
 41
1.0
 91
-1023410177
 42
1.0
 72
1
  3

 73
1
 74
1
 75
1
 44
0.5
 73
0
 45
1.0
 46
1.0
 77
1
  4

 78
1
 79
1
170
1
 48
1.0
171
1
  6

172
1
173
1
174
1
140
1.0
141
1.0
175
1
  7

176
1
177
1
178
1
143
1.0
179
1
  8

270
1
271
1
272
1
145
1.0
146
1.0
273
1
  9

274
1
275
1
276
1
 42
1.0
 72
1
  3

 73
1
 74
1
 75
1
 94
63
  0
MATERIAL
  5
20
102
{ACAD_REACTORS
330
E
102
}
330
E
100
AcDbMaterial
  1
ByLayer
  2

 70
0
 40
1.0
 71
1
 41
1.0
 91
-1023410177
 42
1.0
 72
1
  3

 73
1
 74
1
 75
1
 44
0.5
 73
0
 45
1.0
 46
1.0
 77
1
  4

 78
1
 79
1
170
1
 48
1.0
171
1
  6

172
1
173
1
174
1
140
1.0
141
1.0
175
1
  7

176
1
177
1
178
1
143
1.0
179
1
  8

270
1
271
1
272
1
145
1.0
146
1.0
273
1
  9

274
1
275
1
276
1
 42
1.0
 72
1
  3

 73
1
 74
1
 75
1
 94
63
  0
MATERIAL
  5
21
102
{ACAD_REACTORS
330
E
102
}
330
E
100
AcDbMaterial
  1
Global
  2

 70
0
 40
1.0
 71
1
 41
1.0
 91
-1023410177
 42
1.0
 72
1
  3

 73
1
 74
1
 75
1
 44
0.5
 73
0
 45
1.0
 46
1.0
 77
1
  4

 78
1
 79
1
170
1
 48
1.0
171
1
  6

172
1
173
1
174
1
140
1.0
141
1.0
175
1
  7

176
1
177
1
178
1
143
1.0
179
1
  8

270
1
271
1
272
1
145
1.0
146
1.0
273
1
  9

274
1
275
1
276
1
 42
1.0
 72
1
  3

 73
1
 74
1
 75
1
 94
63
  0
MLINESTYLE
  5
22
102
{ACAD_REACTORS
330
10
102
}
330
10
100
AcDbMlineStyle
  2
Standard
 70
0
  3

 62
256
 51
90.0
 52
90.0
 71
2
 49
0.5
 62
256
  6
BYLAYER
 49
-0.5
 62
256
  6
BYLAYER
  0
MLEADERSTYLE
  5
2C
102
{ACAD_REACTORS
330
F
102
}
330
F
100
AcDbMLeaderStyle
179
2
170
2
171
1
172
0
 90
2
 40
0.0
 41
0.0
173
1
 91
-1056964608
 92
-2
290
1
 42
2.0
291
1
 43
8.0
  3
Standard
 44
4.0
300

342
29
174
1
175
1
176
0
178
1
 93
-1056964608
 45
4.0
292
0
297
0
 46
4.0
 94
-1056964608
 47
1.0
 49
1.0
140
1.0
294
1
141
0.0
177
0
142
1.0
295
0
296
0
143
3.75
271
0
272
9
273
9
  0
DICTIONARY
  5
2D
330
A
100
AcDbDictionary
280
1
281
1
  3
CREATED_BY_EZDXF
350
2E
  3
WRITTEN_BY_EZDXF
350
242
  0
DICTIONARYVAR
  5
2E
330
2D
100
DictionaryVariables
280
0
  1
1.4.3 @ 2026-03-16T15:45:38.548094+00:00
  0
DICTIONARYVAR
  5
242
330
2D
100
DictionaryVariables
280
0
  1
1.4.3 @ 2026-03-16T15:45:38.563964+00:00
  0
ENDSEC
  0
EOF
