  0
SECTION
  2
HEADER
  9
$ACADVER
  1
AC1015
  9
$ACADMAINTVER
 70
6
  9
$DWGCODEPAGE
  3
ANSI_1252
  9
$INSBASE
 10
0.0
 20
0.0
 30
0.0
  9
$EXTMIN
 10
1e+20
 20
1e+20
 30
1e+20
  9
$EXTMAX
 10
-1e+20
 20
-1e+20
 30
-1e+20
  9
$LIMMIN
 10
0.0
 20
0.0
  9
$LIMMAX
 10
420.0
 20
297.0
  9
$ORTHOMODE
 70
0
  9
$REGENMODE
 70
1
  9
$FILLMODE
 70
1
  9
$QTEXTMODE
 70
0
  9
$MIRRTEXT
 70
1
  9
$LTSCALE
 40
1.0
  9
$ATTMODE
 70
1
  9
$TEXTSIZE
 40
2.5
  9
$TRACEWID
 40
1.0
  9
$TEXTSTYLE
  7
Standard
  9
$CLAYER
  8
0
  9
$CELTYPE
  6
ByLayer
  9
$CECOLOR
 62
256
  9
$CELTSCALE
 40
1.0
  9
$DISPSILH
 70
0
  9
$DIMSCALE
 40
1.0
  9
$DIMASZ
 40
2.5
  9
$DIMEXO
 40
0.625
  9
$DIMDLI
 40
3.75
  9
$DIMRND
 40
0.0
  9
$DIMDLE
 40
0.0
  9
$DIMEXE
 40
1.25
  9
$DIMTP
 40
0.0
  9
$DIMTM
 40
0.0
  9
$DIMTXT
 40
2.5
  9
$DIMCEN
 40
2.5
  9
$DIMTSZ
 40
0.0
  9
$DIMTOL
 70
0
  9
$DIMLIM
 70
0
  9
$DIMTIH
 70
0
  9
$DIMTOH
 70
0
  9
$DIMSE1
 70
0
  9
$DIMSE2
 70
0
  9
$DIMTAD
 70
1
  9
$DIMZIN
 70
8
  9
$DIMBLK
  1

  9
$DIMASO
 70
1
  9
$DIMSHO
 70
1
  9
$DIMPOST
  1

  9
$DIMAPOST
  1

  9
$DIMALT
 70
0
  9
$DIMALTD
 70
3
  9
$DIMALTF
 40
0.03937007874
  9
$DIMLFAC
 40
1.0
  9
$DIMTOFL
 70
1
  9
$DIMTVP
 40
0.0
  9
$DIMTIX
 70
0
  9
$DIMSOXD
 70
0
  9
$DIMSAH
 70
0
  9
$DIMBLK1
  1

  9
$DIMBLK2
  1

  9
$DIMSTYLE
  2
ISO-25
  9
$DIMCLRD
 70
0
  9
$DIMCLRE
 70
0
  9
$DIMCLRT
 70
0
  9
$DIMTFAC
 40
1.0
  9
$DIMGAP
 40
0.625
  9
$DIMJUST
 70
0
  9
$DIMSD1
 70
0
  9
$DIMSD2
 70
0
  9
$DIMTOLJ
 70
0
  9
$DIMTZIN
 70
8
  9
$DIMALTZ
 70
0
  9
$DIMALTTZ
 70
0
  9
$DIMUPT
 70
0
  9
$DIMDEC
 70
2
  9
$DIMTDEC
 70
2
  9
$DIMALTU
 70
2
  9
$DIMALTTD
 70
3
  9
$DIMTXSTY
  7
Standard
  9
$DIMAUNIT
 70
0
  9
$DIMADEC
 70
0
  9
$DIMALTRND
 40
0.0
  9
$DIMAZIN
 70
0
  9
$DIMDSEP
 70
44
  9
$DIMATFIT
 70
3
  9
$DIMFRAC
 70
0
  9
$DIMLDRBLK
  1

  9
$DIMLUNIT
 70
2
  9
$DIMLWD
 70
-2
  9
$DIMLWE
 70
-2
  9
$DIMTMOVE
 70
0
  9
$LUNITS
 70
2
  9
$LUPREC
 70
4
  9
$SKETCHINC
 40
1.0
  9
$FILLETRAD
 40
10.0
  9
$AUNITS
 70
0
  9
$AUPREC
 70
2
  9
$MENU
  1
.
  9
$ELEVATION
 40
0.0
  9
$PELEVATION
 40
0.0
  9
$THICKNESS
 40
0.0
  9
$LIMCHECK
 70
0
  9
$CHAMFERA
 40
0.0
  9
$CHAMFERB
 40
0.0
  9
$CHAMFERC
 40
0.0
  9
$CHAMFERD
 40
0.0
  9
$SKPOLY
 70
0
  9
$TDCREATE
 40
2461116.5317476853
  9
$TDUCREATE
 40
2458532.153996898
  9
$TDUPDATE
 40
2461116.5317476853
  9
$TDUUPDATE
 40
2458532.1544311
  9
$TDINDWG
 40
0.0
  9
$TDUSRTIMER
 40
0.0
  9
$USRTIMER
 70
1
  9
$ANGBASE
 50
0.0
  9
$ANGDIR
 70
0
  9
$PDMODE
 70
0
  9
$PDSIZE
 40
0.0
  9
$PLINEWID
 40
0.0
  9
$SPLFRAME
 70
0
  9
$SPLINETYPE
 70
6
  9
$SPLINESEGS
 70
8
  9
$HANDSEED
  5
1FD
  9
$SURFTAB1
 70
6
  9
$SURFTAB2
 70
6
  9
$SURFTYPE
 70
6
  9
$SURFU
 70
6
  9
$SURFV
 70
6
  9
$UCSBASE
  2

  9
$UCSNAME
  2

  9
$UCSORG
 10
0.0
 20
0.0
 30
0.0
  9
$UCSXDIR
 10
1.0
 20
0.0
 30
0.0
  9
$UCSYDIR
 10
0.0
 20
1.0
 30
0.0
  9
$UCSORTHOREF
  2

  9
$UCSORTHOVIEW
 70
0
  9
$UCSORGTOP
 10
0.0
 20
0.0
 30
0.0
  9
$UCSORGBOTTOM
 10
0.0
 20
0.0
 30
0.0
  9
$UCSORGLEFT
 10
0.0
 20
0.0
 30
0.0
  9
$UCSORGRIGHT
 10
0.0
 20
0.0
 30
0.0
  9
$UCSORGFRONT
 10
0.0
 20
0.0
 30
0.0
  9
$UCSORGBACK
 10
0.0
 20
0.0
 30
0.0
  9
$PUCSBASE
  2

  9
$PUCSNAME
  2

  9
$PUCSORG
 10
0.0
 20
0.0
 30
0.0
  9
$PUCSXDIR
 10
1.0
 20
0.0
 30
0.0
  9
$PUCSYDIR
 10
0.0
 20
1.0
 30
0.0
  9
$PUCSORTHOREF
  2

  9
$PUCSORTHOVIEW
 70
0
  9
$PUCSORGTOP
 10
0.0
 20
0.0
 30
0.0
  9
$PUCSORGBOTTOM
 10
0.0
 20
0.0
 30
0.0
  9
$PUCSORGLEFT
 10
0.0
 20
0.0
 30
0.0
  9
$PUCSORGRIGHT
 10
0.0
 20
0.0
 30
0.0
  9
$PUCSORGFRONT
 10
0.0
 20
0.0
 30
0.0
  9
$PUCSORGBACK
 10
0.0
 20
0.0
 30
0.0
  9
$USERI1
 70
0
  9
$USERI2
 70
0
  9
$USERI3
 70
0
  9
$USERI4
 70
0
  9
$USERI5
 70
0
  9
$USERR1
 40
0.0
  9
$USERR2
 40
0.0
  9
$USERR3
 40
0.0
  9
$USERR4
 40
0.0
  9
$USERR5
 40
0.0
  9
$WORLDVIEW
 70
1
  9
$SHADEDGE
 70
3
  9
$SHADEDIF
 70
70
  9
$TILEMODE
 70
1
  9
$MAXACTVP
 70
64
  9
$PINSBASE
 10
0.0
 20
0.0
 30
0.0
  9
$PLIMCHECK
 70
0
  9
$PEXTMIN
 10
1e+20
 20
1e+20
 30
1e+20
  9
$PEXTMAX
 10
-1e+20
 20
-1e+20
 30
-1e+20
  9
$PLIMMIN
 10
0.0
 20
0.0
  9
$PLIMMAX
 10
420.0
 20
297.0
  9
$UNITMODE
 70
0
  9
$VISRETAIN
 70
1
  9
$PLINEGEN
 70
0
  9
$PSLTSCALE
 70
1
  9
$TREEDEPTH
 70
3020
  9
$CMLSTYLE
  2
Standard
  9
$CMLJUST
 70
0
  9
$CMLSCALE
 40
20.0
  9
$PROXYGRAPHICS
 70
1
  9
$MEASUREMENT
 70
1
  9
$CELWEIGHT
370
-1
  9
$ENDCAPS
280
0
  9
$JOINSTYLE
280
0
  9
$LWDISPLAY
290
0
  9
$INSUNITS
 70
6
  9
$HYPERLINKBASE
  1

  9
$STYLESHEET
  1

  9
$XEDIT
290
1
  9
$CEPSNTYPE
380
0
  9
$PSTYLEMODE
290
1
  9
$FINGERPRINTGUID
  2
{70C7906A-E89B-428A-9445-3910CA73E16B}
  9
$VERSIONGUID
  2
{42DB4E09-2BE5-4BBB-ACBC-37FDD0BA2811}
  9
$EXTNAMES
290
1
  9
$PSVPSCALE
 40
0.0
  9
$OLESTARTUP
290
0
  0
ENDSEC
  0
SECTION
  2
CLASSES
  0
CLASS
  1
ACDBDICTIONARYWDFLT
  2
AcDbDictionaryWithDefault
  3
ObjectDBX Classes
 90
0
280
0
281
0
  0
CLASS
  1
SUN
  2
AcDbSun
  3
SCENEOE
 90
1153
280
0
281
0
  0
CLASS
  1
VISUALSTYLE
  2
AcDbVisualStyle
  3
ObjectDBX Classes
 90
4095
280
0
281
0
  0
CLASS
  1
MATERIAL
  2
AcDbMaterial
  3
ObjectDBX Classes
 90
1153
280
0
281
0
  0
CLASS
  1
SCALE
  2
AcDbScale
  3
ObjectDBX Classes
 90
1153
280
0
281
0
  0
CLASS
  1
TABLESTYLE
  2
AcDbTableStyle
  3
ObjectDBX Classes
 90
4095
280
0
281
0
  0
CLASS
  1
MLEADERSTYLE
  2
AcDbMLeaderStyle
  3
ACDB_MLEADERSTYLE_CLASS
 90
4095
280
0
281
0
  0
CLASS
  1
DICTIONARYVAR
  2
AcDbDictionaryVar
  3
ObjectDBX Classes
 90
0
280
0
281
0
  0
CLASS
  1
CELLSTYLEMAP
  2
AcDbCellStyleMap
  3
ObjectDBX Classes
 90
1152
280
0
281
0
  0
CLASS
  1
MENTALRAYRENDERSETTINGS
  2
AcDbMentalRayRenderSettings
  3
SCENEOE
 90
1024
280
0
281
0
  0
CLASS
  1
ACDBDETAILVIEWSTYLE
  2
AcDbDetailViewStyle
  3
ObjectDBX Classes
 90
1025
280
0
281
0
  0
CLASS
  1
ACDBSECTIONVIEWSTYLE
  2
AcDbSectionViewStyle
  3
ObjectDBX Classes
 90
1025
280
0
281
0
  0
CLASS
  1
RASTERVARIABLES
  2
AcDbRasterVariables
  3
ISM
 90
0
280
0
281
0
  0
CLASS
  1
ACDBPLACEHOLDER
  2
AcDbPlaceHolder
  3
ObjectDBX Classes
 90
0
280
0
281
0
  0
CLASS
  1
LAYOUT
  2
AcDbLayout
  3
ObjectDBX Classes
 90
0
280
0
281
0
  0
ENDSEC
  0
SECTION
  2
TABLES
  0
TABLE
  2
VPORT
  5
8
330
0
100
AcDbSymbolTable
 70
1
  0
VPORT
  5
23
330
8
100
AcDbSymbolTableRecord
100
AcDbViewportTableRecord
  2
*Active
 70
0
 10
0.0
 20
0.0
 11
1.0
 21
1.0
 12
0.0
 22
0.0
 13
0.0
 23
0.0
 14
0.5
 24
0.5
 15
0.5
 25
0.5
 16
0.0
 26
0.0
 36
1.0
 17
0.0
 27
0.0
 37
0.0
 40
1000.0
 41
1.34
 42
50.0
 43
0.0
 44
0.0
 50
0.0
 51
0.0
 71
0
 72
1000
 73
1
 74
3
 75
0
 76
0
 77
0
 78
0
281
0
 65
0
146
0.0
  0
ENDTAB
  0
TABLE
  2
LTYPE
  5
2
330
0
100
AcDbSymbolTable
 70
3
  0
LTYPE
  5
24
330
2
100
AcDbSymbolTableRecord
100
AcDbLinetypeTableRecord
  2
ByBlock
 70
0
  3

 72
65
 73
0
 40
0.0
  0
LTYPE
  5
25
330
2
100
AcDbSymbolTableRecord
100
AcDbLinetypeTableRecord
  2
ByLayer
 70
0
  3

 72
65
 73
0
 40
0.0
  0
LTYPE
  5
26
330
2
100
AcDbSymbolTableRecord
100
AcDbLinetypeTableRecord
  2
Continuous
 70
0
  3

 72
65
 73
0
 40
0.0
  0
ENDTAB
  0
TABLE
  2
LAYER
  5
1
330
0
100
AcDbSymbolTable
 70
41
  0
LAYER
  5
27
330
1
100
AcDbSymbolTableRecord
100
AcDbLayerTableRecord
  2
0
 70
0
 62
7
  6
Continuous
370
-3
390
13
  0
LAYER
  5
28
330
1
100
AcDbSymbolTableRecord
100
AcDbLayerTableRecord
  2
Defpoints
 70
0
 62
7
  6
Continuous
290
0
370
-3
390
13
  0
LAYER
  5
2F
330
1
100
AcDbSymbolTableRecord
100
AcDbLayerTableRecord
  2
Painéis
 70
0
 62
200
  6
Continuous
370
-3
390
13
  0
LAYER
  5
30
330
1
100
AcDbSymbolTableRecord
100
AcDbLayerTableRecord
  2
CONCRETO
 70
0
 62
251
  6
Continuous
370
-3
390
13
  0
LAYER
  5
31
330
1
100
AcDbSymbolTableRecord
100
AcDbLayerTableRecord
  2
SARR_3.5x7
 70
0
 62
81
  6
Continuous
370
-3
390
13
  0
LAYER
  5
32
330
1
100
AcDbSymbolTableRecord
100
AcDbLayerTableRecord
  2
Madeira
 70
0
 62
126
  6
Continuous
370
-3
390
13
  0
LAYER
  5
33
330
1
100
AcDbSymbolTableRecord
100
AcDbLayerTableRecord
  2
Texto Seção
 70
0
 62
7
  6
Continuous
370
-3
390
13
  0
LAYER
  5
34
330
1
100
AcDbSymbolTableRecord
100
AcDbLayerTableRecord
  2
COTA
 70
0
 62
4
  6
Continuous
370
-3
390
13
  0
LAYER
  5
35
330
1
100
AcDbSymbolTableRecord
100
AcDbLayerTableRecord
  2
Cota Seção (2x)
 70
0
 62
4
  6
Continuous
370
-3
390
13
  0
LAYER
  5
36
330
1
100
AcDbSymbolTableRecord
100
AcDbLayerTableRecord
  2
NOMENCLATURA
 70
0
 62
7
  6
Continuous
370
-3
390
13
  0
LAYER
  5
37
330
1
100
AcDbSymbolTableRecord
100
AcDbLayerTableRecord
  2
Hachura
 70
0
 62
253
  6
Continuous
370
-3
390
13
  0
LAYER
  5
38
330
1
100
AcDbSymbolTableRecord
100
AcDbLayerTableRecord
  2
REAPROVEITAMENTO
 70
0
 62
251
  6
Continuous
370
-3
390
13
  0
LAYER
  5
39
330
1
100
AcDbSymbolTableRecord
100
AcDbLayerTableRecord
  2
SARR_2.2x7
 70
0
 62
40
  6
Continuous
370
-3
390
13
  0
LAYER
  5
3A
330
1
100
AcDbSymbolTableRecord
100
AcDbLayerTableRecord
  2
SARR_2.2x10
 70
0
 62
40
  6
Continuous
370
-3
390
13
  0
LAYER
  5
3B
330
1
100
AcDbSymbolTableRecord
100
AcDbLayerTableRecord
  2
SARR_EDITAR
 70
0
 62
141
  6
Continuous
370
-3
390
13
  0
LAYER
  5
3C
330
1
100
AcDbSymbolTableRecord
100
AcDbLayerTableRecord
  2
Sarrafo de Pressão
 70
0
 62
40
  6
Continuous
370
-3
390
13
  0
LAYER
  5
3D
330
1
100
AcDbSymbolTableRecord
100
AcDbLayerTableRecord
  2
Escoras
 70
0
 62
2
  6
Continuous
370
-3
390
13
  0
LAYER
  5
3E
330
1
100
AcDbSymbolTableRecord
100
AcDbLayerTableRecord
  2
Demarcação 1
 70
0
 62
251
  6
Continuous
370
-3
390
13
  0
LAYER
  5
3F
330
1
100
AcDbSymbolTableRecord
100
AcDbLayerTableRecord
  2
Demarcação 2
 70
0
 62
254
  6
Continuous
370
-3
390
13
  0
LAYER
  5
40
330
1
100
AcDbSymbolTableRecord
100
AcDbLayerTableRecord
  2
Forcador
 70
0
 62
251
  6
Continuous
370
-3
390
13
  0
LAYER
  5
41
330
1
100
AcDbSymbolTableRecord
100
AcDbLayerTableRecord
  2
GARFOS
 70
0
 62
7
  6
Continuous
370
-3
390
13
  0
LAYER
  5
42
330
1
100
AcDbSymbolTableRecord
100
AcDbLayerTableRecord
  2
BARRA DE ANCORAGEM
 70
0
 62
7
  6
Continuous
370
-3
390
13
  0
LAYER
  5
43
330
1
100
AcDbSymbolTableRecord
100
AcDbLayerTableRecord
  2
Perfil Metálico
 70
0
 62
251
  6
Continuous
370
-3
390
13
  0
LAYER
  5
44
330
1
100
AcDbSymbolTableRecord
100
AcDbLayerTableRecord
  2
PONTALETE
 70
0
 62
2
  6
Continuous
370
-3
390
13
  0
LAYER
  5
45
330
1
100
AcDbSymbolTableRecord
100
AcDbLayerTableRecord
  2
MEIO_PONT
 70
0
 62
2
  6
Continuous
370
-3
390
13
  0
LAYER
  5
46
330
1
100
AcDbSymbolTableRecord
100
AcDbLayerTableRecord
  2
5
 70
0
 62
3
  6
Continuous
370
-3
390
13
  0
LAYER
  5
47
330
1
100
AcDbSymbolTableRecord
100
AcDbLayerTableRecord
  2
detalhes
 70
0
 62
7
  6
Continuous
370
-3
390
13
  0
LAYER
  5
48
330
1
100
AcDbSymbolTableRecord
100
AcDbLayerTableRecord
  2
texto
 70
0
 62
7
  6
Continuous
370
-3
390
13
  0
LAYER
  5
49
330
1
100
AcDbSymbolTableRecord
100
AcDbLayerTableRecord
  2
CARIMBO
 70
0
 62
7
  6
Continuous
370
-3
390
13
  0
LAYER
  5
4A
330
1
100
AcDbSymbolTableRecord
100
AcDbLayerTableRecord
  2
presilha
 70
0
 62
2
  6
Continuous
370
-3
390
13
  0
LAYER
  5
4B
330
1
100
AcDbSymbolTableRecord
100
AcDbLayerTableRecord
  2
barrote
 70
0
 62
126
  6
Continuous
370
-3
390
13
  0
LAYER
  5
4C
330
1
100
AcDbSymbolTableRecord
100
AcDbLayerTableRecord
  2
TENSOR
 70
0
 62
2
  6
Continuous
370
-3
390
13
  0
LAYER
  5
4D
330
1
100
AcDbSymbolTableRecord
100
AcDbLayerTableRecord
  2
SCO-___-LAJ
 70
0
 62
4
  6
Continuous
370
-3
390
13
  0
LAYER
  5
4E
330
1
100
AcDbSymbolTableRecord
100
AcDbLayerTableRecord
  2
Sarr 2.2x7
 70
0
 62
40
  6
Continuous
370
-3
390
13
  0
LAYER
  5
4F
330
1
100
AcDbSymbolTableRecord
100
AcDbLayerTableRecord
  2
cotas
 70
0
 62
4
  6
Continuous
370
-3
390
13
  0
LAYER
  5
50
330
1
100
AcDbSymbolTableRecord
100
AcDbLayerTableRecord
  2
material do compensado
 70
0
 62
126
  6
Continuous
370
-3
390
13
  0
LAYER
  5
51
330
1
100
AcDbSymbolTableRecord
100
AcDbLayerTableRecord
  2
Folhas
 70
0
 62
7
  6
Continuous
370
-3
390
13
  0
LAYER
  5
52
330
1
100
AcDbSymbolTableRecord
100
AcDbLayerTableRecord
  2
TEXTO PILAR
 70
0
 62
7
  6
Continuous
370
-3
390
13
  0
LAYER
  5
53
330
1
100
AcDbSymbolTableRecord
100
AcDbLayerTableRecord
  2
CHAPA REAPROV
 70
0
 62
251
  6
Continuous
370
-3
390
13
  0
LAYER
  5
54
330
1
100
AcDbSymbolTableRecord
100
AcDbLayerTableRecord
  2
fundo
 70
0
 62
253
  6
Continuous
370
-3
390
13
  0
LAYER
  5
55
330
1
100
AcDbSymbolTableRecord
100
AcDbLayerTableRecord
  2
HACHURA MADEIRAS
 70
0
 62
126
  6
Continuous
370
-3
390
13
  0
ENDTAB
  0
TABLE
  2
STYLE
  5
5
330
0
100
AcDbSymbolTable
 70
1
  0
STYLE
  5
29
330
5
100
AcDbSymbolTableRecord
100
AcDbTextStyleTableRecord
  2
Standard
 70
0
 40
0.0
 41
1.0
 50
0.0
 71
0
 42
2.5
  3
txt
  4

  0
ENDTAB
  0
TABLE
  2
VIEW
  5
7
330
0
100
AcDbSymbolTable
 70
0
  0
ENDTAB
  0
TABLE
  2
UCS
  5
6
330
0
100
AcDbSymbolTable
 70
0
  0
ENDTAB
  0
TABLE
  2
APPID
  5
3
330
0
100
AcDbSymbolTable
 70
3
  0
APPID
  5
2A
330
3
100
AcDbSymbolTableRecord
100
AcDbRegAppTableRecord
  2
ACAD
 70
0
  0
APPID
  5
1FA
330
3
100
AcDbSymbolTableRecord
100
AcDbRegAppTableRecord
  2
HATCHBACKGROUNDCOLOR
 70
0
  0
APPID
  5
1FB
330
3
100
AcDbSymbolTableRecord
100
AcDbRegAppTableRecord
  2
EZDXF
 70
0
  0
ENDTAB
  0
TABLE
  2
DIMSTYLE
  5
4
330
0
100
AcDbSymbolTable
 70
1
100
AcDbDimStyleTable
  0
DIMSTYLE
105
2B
330
4
100
AcDbSymbolTableRecord
100
AcDbDimStyleTableRecord
  2
Standard
 70
0
  3

  4

 40
1.0
 41
2.5
 42
0.625
 43
3.75
 44
1.25
 45
0.0
 46
0.0
 47
0.0
 48
0.0
140
2.5
141
2.5
142
0.0
143
0.03937007874
144
1.0
145
0.0
146
1.0
147
0.625
148
0.0
 71
0
 72
0
 73
0
 74
0
 75
0
 76
0
 77
1
 78
8
 79
3
170
0
171
3
172
1
173
0
174
0
175
0
176
0
177
0
178
0
179
2
271
2
272
2
273
2
274
3
275
0
276
0
277
2
278
44
279
0
280
0
281
0
282
0
283
0
284
8
285
0
286
0
288
0
289
3
371
-2
372
-2
  0
ENDTAB
  0
TABLE
  2
BLOCK_RECORD
  5
9
330
0
100
AcDbSymbolTable
 70
2
  0
BLOCK_RECORD
  5
17
330
9
100
AcDbSymbolTableRecord
100
AcDbBlockTableRecord
  2
*Model_Space
340
1A
  0
BLOCK_RECORD
  5
1B
330
9
100
AcDbSymbolTableRecord
100
AcDbBlockTableRecord
  2
*Paper_Space
340
1E
  0
ENDTAB
  0
ENDSEC
  0
SECTION
  2
BLOCKS
  0
BLOCK
  5
18
330
17
100
AcDbEntity
  8
0
100
AcDbBlockBegin
  2
*Model_Space
 70
0
 10
0.0
 20
0.0
 30
0.0
  3
*Model_Space
  1

  0
ENDBLK
  5
19
330
17
100
AcDbEntity
  8
0
100
AcDbBlockEnd
  0
BLOCK
  5
1C
330
1B
100
AcDbEntity
  8
0
100
AcDbBlockBegin
  2
*Paper_Space
 70
0
 10
0.0
 20
0.0
 30
0.0
  3
*Paper_Space
  1

  0
ENDBLK
  5
1D
330
1B
100
AcDbEntity
  8
0
100
AcDbBlockEnd
  0
ENDSEC
  0
SECTION
  2
ENTITIES
  0
LINE
  5
56
330
17
100
AcDbEntity
  8
Painéis
100
AcDbLine
 10
131417.4
 20
27946.8
 30
0.0
 11
131728.4
 21
27946.8
 31
0.0
  0
LINE
  5
57
330
17
100
AcDbEntity
  8
Painéis
100
AcDbLine
 10
131087.4
 20
27946.8
 30
0.0
 11
131398.4
 21
27946.8
 31
0.0
  0
LINE
  5
58
330
17
100
AcDbEntity
  8
Painéis
100
AcDbLine
 10
130759.9
 20
27946.8
 30
0.0
 11
131068.4
 21
27946.8
 31
0.0
  0
LINE
  5
59
330
17
100
AcDbEntity
  8
Painéis
100
AcDbLine
 10
131747.4
 20
27946.8
 30
0.0
 11
131985.9
 21
27946.8
 31
0.0
  0
LINE
  5
5A
330
17
100
AcDbEntity
  8
Painéis
100
AcDbLine
 10
131417.4
 20
27986.8
 30
0.0
 11
131728.4
 21
27986.8
 31
0.0
  0
LINE
  5
5B
330
17
100
AcDbEntity
  8
Painéis
100
AcDbLine
 10
131087.4
 20
27986.8
 30
0.0
 11
131398.4
 21
27986.8
 31
0.0
  0
LINE
  5
5C
330
17
100
AcDbEntity
  8
Painéis
100
AcDbLine
 10
130759.9
 20
27986.8
 30
0.0
 11
131068.4
 21
27986.8
 31
0.0
  0
LINE
  5
5D
330
17
100
AcDbEntity
  8
Painéis
100
AcDbLine
 10
131747.4
 20
27986.8
 30
0.0
 11
131985.9
 21
27986.8
 31
0.0
  0
LINE
  5
5E
330
17
100
AcDbEntity
  8
Painéis
100
AcDbLine
 10
131247.9
 20
27998.8
 30
0.0
 11
132004.9
 21
27998.8
 31
0.0
  0
LINE
  5
5F
330
17
100
AcDbEntity
  8
Painéis
100
AcDbLine
 10
131003.9
 20
27998.8
 30
0.0
 11
131247.9
 21
27998.8
 31
0.0
  0
LINE
  5
60
330
17
100
AcDbEntity
  8
Painéis
100
AcDbLine
 10
130759.9
 20
27998.8
 30
0.0
 11
131003.9
 21
27998.8
 31
0.0
  0
LINE
  5
61
330
17
100
AcDbEntity
  8
Painéis
100
AcDbLine
 10
131247.9
 20
28000.8
 30
0.0
 11
132004.9
 21
28000.8
 31
0.0
  0
LINE
  5
62
330
17
100
AcDbEntity
  8
Painéis
100
AcDbLine
 10
131003.9
 20
28000.8
 30
0.0
 11
131247.9
 21
28000.8
 31
0.0
  0
LINE
  5
63
330
17
100
AcDbEntity
  8
Painéis
100
AcDbLine
 10
130759.9
 20
28000.8
 30
0.0
 11
131003.9
 21
28000.8
 31
0.0
  0
LINE
  5
64
330
17
100
AcDbEntity
  8
Painéis
100
AcDbLine
 10
131226.2
 20
28096.1
 30
0.0
 11
131264.2
 21
28096.1
 31
0.0
  0
LINE
  5
65
330
17
100
AcDbEntity
  8
Painéis
100
AcDbLine
 10
131166.2
 20
28172.1
 30
0.0
 11
131226.2
 21
28172.1
 31
0.0
  0
LINE
  5
66
330
17
100
AcDbEntity
  8
Painéis
100
AcDbLine
 10
131264.2
 20
28172.1
 30
0.0
 11
131324.2
 21
28172.1
 31
0.0
  0
LINE
  5
67
330
17
100
AcDbEntity
  8
Painéis
100
AcDbLine
 10
130759.9
 20
27946.8
 30
0.0
 11
130759.9
 21
27986.8
 31
0.0
  0
LINE
  5
68
330
17
100
AcDbEntity
  8
Painéis
100
AcDbLine
 10
131003.9
 20
27946.8
 30
0.0
 11
131003.9
 21
27986.8
 31
0.0
  0
LINE
  5
69
330
17
100
AcDbEntity
  8
Painéis
100
AcDbLine
 10
131068.4
 20
27946.8
 30
0.0
 11
131068.4
 21
27986.8
 31
0.0
  0
LINE
  5
6A
330
17
100
AcDbEntity
  8
Painéis
100
AcDbLine
 10
131087.4
 20
27946.8
 30
0.0
 11
131087.4
 21
27986.8
 31
0.0
  0
LINE
  5
6B
330
17
100
AcDbEntity
  8
Painéis
100
AcDbLine
 10
131166.2
 20
28168.1
 30
0.0
 11
131166.2
 21
28172.1
 31
0.0
  0
LINE
  5
6C
330
17
100
AcDbEntity
  8
Painéis
100
AcDbLine
 10
131226.2
 20
28088.1
 30
0.0
 11
131226.2
 21
28168.1
 31
0.0
  0
LINE
  5
6D
330
17
100
AcDbEntity
  8
Painéis
100
AcDbLine
 10
131226.2
 20
28092.5
 30
0.0
 11
131226.2
 21
28096.1
 31
0.0
  0
LINE
  5
6E
330
17
100
AcDbEntity
  8
Painéis
100
AcDbLine
 10
131226.2
 20
28168.1
 30
0.0
 11
131226.2
 21
28172.1
 31
0.0
  0
LINE
  5
6F
330
17
100
AcDbEntity
  8
Painéis
100
AcDbLine
 10
131264.2
 20
28088.1
 30
0.0
 11
131264.2
 21
28168.1
 31
0.0
  0
LINE
  5
70
330
17
100
AcDbEntity
  8
Painéis
100
AcDbLine
 10
131264.2
 20
28092.5
 30
0.0
 11
131264.2
 21
28096.1
 31
0.0
  0
LINE
  5
71
330
17
100
AcDbEntity
  8
Painéis
100
AcDbLine
 10
131264.2
 20
28168.1
 30
0.0
 11
131264.2
 21
28172.1
 31
0.0
  0
LINE
  5
72
330
17
100
AcDbEntity
  8
Painéis
100
AcDbLine
 10
131324.2
 20
28168.1
 30
0.0
 11
131324.2
 21
28172.1
 31
0.0
  0
LINE
  5
73
330
17
100
AcDbEntity
  8
Painéis
100
AcDbLine
 10
131331.4
 20
27946.8
 30
0.0
 11
131331.4
 21
27986.8
 31
0.0
  0
LINE
  5
74
330
17
100
AcDbEntity
  8
Painéis
100
AcDbLine
 10
131342.4
 20
27946.8
 30
0.0
 11
131342.4
 21
27986.8
 31
0.0
  0
LINE
  5
75
330
17
100
AcDbEntity
  8
Painéis
100
AcDbLine
 10
131398.4
 20
27946.8
 30
0.0
 11
131398.4
 21
27986.8
 31
0.0
  0
LINE
  5
76
330
17
100
AcDbEntity
  8
Painéis
100
AcDbLine
 10
131417.4
 20
27946.8
 30
0.0
 11
131417.4
 21
27986.8
 31
0.0
  0
LINE
  5
77
330
17
100
AcDbEntity
  8
Painéis
100
AcDbLine
 10
131661.4
 20
27946.8
 30
0.0
 11
131661.4
 21
27986.8
 31
0.0
  0
LINE
  5
78
330
17
100
AcDbEntity
  8
Painéis
100
AcDbLine
 10
131677.4
 20
27946.8
 30
0.0
 11
131677.4
 21
27986.8
 31
0.0
  0
LINE
  5
79
330
17
100
AcDbEntity
  8
Painéis
100
AcDbLine
 10
131728.4
 20
27946.8
 30
0.0
 11
131728.4
 21
27986.8
 31
0.0
  0
LINE
  5
7A
330
17
100
AcDbEntity
  8
Painéis
100
AcDbLine
 10
131747.4
 20
27946.8
 30
0.0
 11
131747.4
 21
27986.8
 31
0.0
  0
LINE
  5
7B
330
17
100
AcDbEntity
  8
Painéis
100
AcDbLine
 10
131869.4
 20
27946.8
 30
0.0
 11
131869.4
 21
27986.8
 31
0.0
  0
LINE
  5
7C
330
17
100
AcDbEntity
  8
Painéis
100
AcDbLine
 10
131985.9
 20
27946.8
 30
0.0
 11
131985.9
 21
27986.8
 31
0.0
  0
LWPOLYLINE
  5
7D
330
17
100
AcDbEntity
  8
Painéis
100
AcDbPolyline
 90
4
 70
1
 10
132004.9
 20
27998.8
 10
131247.9
 20
27998.8
 10
131247.9
 20
28000.8
 10
132004.9
 20
28000.8
  0
LWPOLYLINE
  5
7E
330
17
100
AcDbEntity
  8
Painéis
100
AcDbPolyline
 90
4
 70
1
 10
131247.9
 20
27998.8
 10
131003.9
 20
27998.8
 10
131003.9
 20
28000.8
 10
131247.9
 20
28000.8
  0
LWPOLYLINE
  5
7F
330
17
100
AcDbEntity
  8
Painéis
100
AcDbPolyline
 90
4
 70
1
 10
131003.9
 20
27998.8
 10
130759.9
 20
27998.8
 10
130759.9
 20
28000.8
 10
131003.9
 20
28000.8
  0
LWPOLYLINE
  5
80
330
17
100
AcDbEntity
  8
Painéis
100
AcDbPolyline
 90
4
 70
1
 10
131268.2
 20
28168.1
 10
131264.2
 20
28168.1
 10
131264.2
 20
28088.1
 10
131268.2
 20
28088.1
  0
LWPOLYLINE
  5
81
330
17
100
AcDbEntity
  8
Painéis
100
AcDbPolyline
 90
4
 70
1
 10
131226.2
 20
28092.5
 10
131226.2
 20
28096.1
 10
131264.2
 20
28096.1
 10
131264.2
 20
28092.5
  0
LWPOLYLINE
  5
82
330
17
100
AcDbEntity
  8
Painéis
100
AcDbPolyline
 90
4
 70
1
 10
131222.2
 20
28168.1
 10
131226.2
 20
28168.1
 10
131226.2
 20
28088.1
 10
131222.2
 20
28088.1
  0
LWPOLYLINE
  5
83
330
17
100
AcDbEntity
  8
Painéis
100
AcDbPolyline
 90
4
 70
1
 10
131166.2
 20
28168.1
 10
131166.2
 20
28172.1
 10
131226.2
 20
28172.1
 10
131226.2
 20
28168.1
  0
LWPOLYLINE
  5
84
330
17
100
AcDbEntity
  8
Painéis
100
AcDbPolyline
 90
4
 70
1
 10
131324.2
 20
28168.1
 10
131324.2
 20
28172.1
 10
131264.2
 20
28172.1
 10
131264.2
 20
28168.1
  0
LWPOLYLINE
  5
85
330
17
100
AcDbEntity
  8
Painéis
100
AcDbPolyline
 90
4
 70
1
 10
131222.2
 20
28196.1
 10
131226.2
 20
28196.1
 10
131226.2
 20
28192.1
 10
131222.2
 20
28192.1
  0
LWPOLYLINE
  5
86
330
17
100
AcDbEntity
  8
Painéis
100
AcDbPolyline
 90
5
 70
0
 10
131923.1
 20
27061.6
 10
131958.1
 20
27061.6
 10
131958.1
 20
27058.0
 10
131923.1
 20
27058.0
 10
131923.1
 20
27061.6
  0
LWPOLYLINE
  5
87
330
17
100
AcDbEntity
  8
Painéis
100
AcDbPolyline
 90
4
 70
1
 10
131923.1
 20
27051.6
 10
131919.1
 20
27051.6
 10
131919.1
 20
27061.6
 10
131923.1
 20
27061.6
  0
LWPOLYLINE
  5
88
330
17
100
AcDbEntity
  8
CONCRETO
100
AcDbPolyline
 90
3
 70
0
 10
131324.2
 20
28172.1
 10
131324.2
 20
28196.1
 10
131226.2
 20
28196.1
  0
LWPOLYLINE
  5
89
330
17
100
AcDbEntity
  8
CONCRETO
100
AcDbPolyline
 90
9
 70
0
 10
131226.2
 20
28192.1
 10
131166.2
 20
28192.1
 10
131166.2
 20
28172.1
 10
131226.2
 20
28172.1
 10
131226.2
 20
28096.1
 10
131264.2
 20
28096.1
 10
131264.2
 20
28162.1
 10
131264.2
 20
28172.1
 10
131324.2
 20
28172.1
  0
LWPOLYLINE
  5
8A
330
17
100
AcDbEntity
  8
CONCRETO
100
AcDbPolyline
 90
9
 70
1
 10
131331.8
 20
27023.3
 10
131331.8
 20
27047.3
 10
131173.8
 20
27047.3
 10
131173.8
 20
27023.3
 10
131233.8
 20
27023.3
 10
131233.8
 20
26947.3
 10
131271.8
 20
26947.3
 10
131271.8
 20
27013.3
 10
131271.8
 20
27023.3
  0
LWPOLYLINE
  5
8B
330
17
100
AcDbEntity
  8
CONCRETO
100
AcDbPolyline
 90
9
 70
1
 10
131679.8
 20
27019.3
 10
131679.8
 20
27039.3
 10
131521.8
 20
27039.3
 10
131521.8
 20
27019.3
 10
131581.8
 20
27019.3
 10
131581.8
 20
26943.3
 10
131619.8
 20
26943.3
 10
131619.8
 20
27009.3
 10
131619.8
 20
27019.3
  0
LWPOLYLINE
  5
8C
330
17
100
AcDbEntity
  8
Madeira
100
AcDbPolyline
 90
4
 70
1
 10
131302.2
 20
28088.1
 10
131302.2
 20
28092.5
 10
131282.2
 20
28092.5
 10
131282.2
 20
28088.1
  0
LWPOLYLINE
  5
8D
330
17
100
AcDbEntity
  8
Madeira
100
AcDbPolyline
 90
4
 70
1
 10
131208.2
 20
28168.1
 10
131208.2
 20
28163.7
 10
131222.2
 20
28163.7
 10
131222.2
 20
28168.1
  0
LWPOLYLINE
  5
8E
330
17
100
AcDbEntity
  8
Madeira
100
AcDbPolyline
 90
4
 70
1
 10
131188.2
 20
28088.1
 10
131188.2
 20
28092.5
 10
131208.2
 20
28092.5
 10
131208.2
 20
28088.1
  0
LWPOLYLINE
  5
8F
330
17
100
AcDbEntity
  8
Madeira
100
AcDbPolyline
 90
4
 70
1
 10
131282.2
 20
28168.1
 10
131282.2
 20
28163.7
 10
131268.2
 20
28163.7
 10
131268.2
 20
28168.1
  0
LWPOLYLINE
  5
90
330
17
100
AcDbEntity
  8
Madeira
100
AcDbPolyline
 90
4
 70
1
 10
131282.2
 20
28168.1
 10
131268.2
 20
28168.1
 10
131268.2
 20
28028.1
 10
131282.2
 20
28028.1
  0
LWPOLYLINE
  5
91
330
17
100
AcDbEntity
  8
Madeira
100
AcDbPolyline
 90
4
 70
1
 10
131208.2
 20
28028.1
 10
131222.2
 20
28028.1
 10
131222.2
 20
28168.1
 10
131208.2
 20
28168.1
  0
LWPOLYLINE
  5
92
330
17
100
AcDbEntity
  8
Madeira
100
AcDbPolyline
 90
4
 70
1
 10
131226.2
 20
28088.1
 10
131226.2
 20
28092.5
 10
131236.2
 20
28092.5
 10
131236.2
 20
28088.1
  0
LWPOLYLINE
  5
93
330
17
100
AcDbEntity
  8
Madeira
100
AcDbPolyline
 90
4
 70
1
 10
131254.2
 20
28088.1
 10
131254.2
 20
28092.5
 10
131264.2
 20
28092.5
 10
131264.2
 20
28088.1
  0
LWPOLYLINE
  5
94
330
17
100
AcDbEntity
  8
Madeira
100
AcDbPolyline
 90
4
 70
1
 10
131150.3
 20
28068.1
 10
131349.9
 20
28068.1
 10
131349.9
 20
28088.1
 10
131150.3
 20
28088.1
  0
LWPOLYLINE
  5
95
330
17
100
AcDbEntity
  8
Madeira
100
AcDbPolyline
 90
4
 70
1
 10
131958.1
 20
27058.0
 10
131951.1
 20
27058.0
 10
131951.1
 20
27044.0
 10
131958.1
 20
27044.0
  0
LWPOLYLINE
  5
96
330
17
100
AcDbEntity
  8
CONCRETO
100
AcDbPolyline
 90
4
 70
1
 10
131226.2
 20
28172.1
 10
131324.2
 20
28172.1
 10
131324.2
 20
28196.1
 10
131226.2
 20
28196.1
  0
LWPOLYLINE
  5
97
330
17
100
AcDbEntity
  8
CONCRETO
100
AcDbPolyline
 90
4
 70
1
 10
131166.2
 20
28096.1
 10
131324.2
 20
28096.1
 10
131324.2
 20
28192.1
 10
131166.2
 20
28192.1
  0
TEXT
  5
98
330
17
100
AcDbEntity
  8
Texto Seção
100
AcDbText
 10
131246.9
 20
28186.1
 30
0.0
 40
8.0
  1
V25
100
AcDbText
  0
TEXT
  5
99
330
17
100
AcDbEntity
  8
Texto Seção
100
AcDbText
 10
131246.9
 20
28171.1
 30
0.0
 40
6.0
  1
(19x50)
100
AcDbText
  0
TEXT
  5
9A
330
17
100
AcDbEntity
  8
NOMENCLATURA
100
AcDbText
 10
130993.4
 20
27586.9
 30
0.0
 40
5.0
  1
P11
100
AcDbText
  0
TEXT
  5
9B
330
17
100
AcDbEntity
  8
NOMENCLATURA
100
AcDbText
 10
131323.4
 20
27586.9
 30
0.0
 40
5.0
  1
P9
100
AcDbText
  0
TEXT
  5
9C
330
17
100
AcDbEntity
  8
NOMENCLATURA
100
AcDbText
 10
131964.9
 20
27586.9
 30
0.0
 40
5.0
  1
P1
100
AcDbText
  0
TEXT
  5
9D
330
17
100
AcDbEntity
  8
NOMENCLATURA
100
AcDbText
 10
130751.9
 20
27586.9
 30
0.0
 40
5.0
  1
P16
100
AcDbText
  0
TEXT
  5
9E
330
17
100
AcDbEntity
  8
NOMENCLATURA
100
AcDbText
 10
131812.4
 20
27962.0
 30
0.0
 40
5.0
  1
5 1/2pont
100
AcDbText
  0
TEXT
  5
9F
330
17
100
AcDbEntity
  8
NOMENCLATURA
100
AcDbText
 10
131913.8
 20
27962.0
 30
0.0
 40
5.0
  1
4 1/2pont
100
AcDbText
  0
TEXT
  5
A0
330
17
100
AcDbEntity
  8
NOMENCLATURA
100
AcDbText
 10
130882.3
 20
27961.0
 30
0.0
 40
5.0
  1
8 1/2pont
100
AcDbText
  0
TEXT
  5
A1
330
17
100
AcDbEntity
  8
NOMENCLATURA
100
AcDbText
 10
131212.4
 20
27961.0
 30
0.0
 40
5.0
  1
8 1/2pont
100
AcDbText
  0
TEXT
  5
A2
330
17
100
AcDbEntity
  8
NOMENCLATURA
100
AcDbText
 10
131540.9
 20
27961.0
 30
0.0
 40
5.0
  1
8 1/2pont
100
AcDbText
  0
TEXT
  5
A3
330
17
100
AcDbEntity
  8
NOMENCLATURA
100
AcDbText
 10
130933.4
 20
27727.6
 30
0.0
 40
5.0
  1
5 1/2pont
100
AcDbText
  0
TEXT
  5
A4
330
17
100
AcDbEntity
  8
NOMENCLATURA
100
AcDbText
 10
130832.1
 20
27727.6
 30
0.0
 40
5.0
  1
4 1/2pont
100
AcDbText
  0
TEXT
  5
A5
330
17
100
AcDbEntity
  8
NOMENCLATURA
100
AcDbText
 10
131905.8
 20
27726.6
 30
0.0
 40
5.0
  1
5 1/2pont
100
AcDbText
  0
TEXT
  5
A6
330
17
100
AcDbEntity
  8
NOMENCLATURA
100
AcDbText
 10
131578.9
 20
27726.6
 30
0.0
 40
5.0
  1
5 1/2pont
100
AcDbText
  0
TEXT
  5
A7
330
17
100
AcDbEntity
  8
NOMENCLATURA
100
AcDbText
 10
131096.7
 20
27726.6
 30
0.0
 40
5.0
  1
6 1/2pont
100
AcDbText
  0
TEXT
  5
A8
330
17
100
AcDbEntity
  8
NOMENCLATURA
100
AcDbText
 10
131257.4
 20
27726.6
 30
0.0
 40
5.0
  1
5 1/2pont
100
AcDbText
  0
TEXT
  5
A9
330
17
100
AcDbEntity
  8
NOMENCLATURA
100
AcDbText
 10
131436.7
 20
27726.6
 30
0.0
 40
5.0
  1
6 1/2pont
100
AcDbText
  0
TEXT
  5
AA
330
17
100
AcDbEntity
  8
NOMENCLATURA
100
AcDbText
 10
131771.4
 20
27726.6
 30
0.0
 40
5.0
  1
6 1/2pont
100
AcDbText
  0
HATCH
  5
AB
330
17
100
AcDbEntity
  8
COTA
 62
7
100
AcDbHatch
 10
0.0
 20
0.0
 30
0.0
210
0.0
220
0.0
230
1.0
  2
AR-CONC
 70
0
 71
0
 91
1
 92
3
 72
0
 73
1
 93
16
 10
131019.9
 20
27752.4
 10
131328.4
 20
27752.4
 10
131328.4
 20
27712.4
 10
131347.4
 20
27712.4
 10
131347.4
 20
27752.4
 10
131651.9
 20
27752.4
 10
131651.9
 20
27712.4
 10
131677.4
 20
27712.4
 10
131677.4
 20
27752.4
 10
131976.9
 20
27752.4
 10
131976.9
 20
27766.4
 10
130759.9
 20
27766.4
 10
130759.9
 20
27752.4
 10
130998.4
 20
27752.4
 10
130998.4
 20
27712.4
 10
131019.9
 20
27712.4
 97
0
 75
1
 76
1
 52
0.0
 41
0.03
 77
0
 78
13
 53
50.0
 43
0.0
 44
0.0
 45
5.4655400699
 46
-0.4781725662
 79
2
 49
0.5715
 49
-6.2865
 53
355.0
 43
0.0
 44
0.0
 45
-1.0573026428
 46
5.7317053572
 79
2
 49
0.4572
 49
-5.0292175251
 53
100.4514447
 43
0.45546021
 44
-0.039847605
 45
4.4082374127
 46
5.2535325574
 79
2
 49
0.485700264
 49
-5.342707338
 53
46.1842
 43
0.0
 44
1.524
 45
8.1323712268
 46
-1.261269838
 79
2
 49
0.85725
 49
-9.42975
 53
96.63555761
 43
0.677697
 44
1.418895
 45
7.1221240215
 46
7.4227837379
 79
2
 49
0.7285506942
 49
-8.0140682448
 53
351.18415117
 43
0.0
 44
1.524
 45
7.1221240219
 46
7.4227837376
 79
2
 49
0.6857990121
 49
-7.5437919576
 53
21.0
 43
0.762
 44
1.143
 45
4.5484317381
 46
-3.0679559456
 79
2
 49
0.5715
 49
-6.2865
 53
326.0
 43
0.762
 44
1.143
 45
1.8540608504
 46
5.5256389837
 79
2
 49
0.4572
 49
-5.0292
 53
71.451445
 43
1.141035978
 44
0.887337003
 45
6.4024925784
 46
2.4576830666
 79
2
 49
0.485700264
 49
-5.342698128
 53
37.5
 43
0.0
 44
0.0
 45
0.0926580975
 46
2.5366511662
 79
6
 49
0.0
 49
-4.96824
 49
0.0
 49
-5.1054
 49
0.0
 49
-5.04825
 53
7.5
 43
0.0
 44
0.0
 45
2.0045898753
 46
3.0054172445
 79
6
 49
0.0
 49
-2.91084
 49
0.0
 49
-4.85394
 49
0.0
 49
-1.92405
 53
-32.5
 43
-1.69926
 44
0.0
 45
4.067717855
 46
-0.1718623198
 79
6
 49
0.0
 49
-1.905
 49
0.0
 49
-5.9436
 49
0.0
 49
-7.8867
 53
-42.5
 43
-2.46126
 44
0.0
 45
4.4438754416
 46
0.762794731
 79
6
 49
0.0
 49
-2.4765
 49
0.0
 49
-3.94716
 49
0.0
 49
-5.6007
 98
0
  0
HATCH
  5
AC
330
17
100
AcDbEntity
  8
COTA
 62
7
100
AcDbHatch
 10
0.0
 20
0.0
 30
0.0
210
0.0
220
0.0
230
1.0
  2
AR-CONC
 70
0
 71
0
 91
1
 92
3
 72
0
 73
1
 93
18
 10
131087.4
 20
27986.8
 10
131398.4
 20
27986.8
 10
131398.4
 20
27946.8
 10
131417.4
 20
27946.8
 10
131417.4
 20
27986.8
 10
131728.4
 20
27986.8
 10
131728.4
 20
27946.8
 10
131747.4
 20
27946.8
 10
131747.4
 20
27986.8
 10
131985.9
 20
27986.8
 10
131985.9
 20
27998.8
 10
131247.9
 20
27998.8
 10
131003.9
 20
27998.8
 10
130759.9
 20
27998.8
 10
130759.9
 20
27986.8
 10
131068.4
 20
27986.8
 10
131068.4
 20
27946.8
 10
131087.4
 20
27946.8
 97
0
 75
1
 76
1
 52
0.0
 41
0.03
 77
0
 78
13
 53
50.0
 43
0.0
 44
0.0
 45
5.4655400699
 46
-0.4781725662
 79
2
 49
0.5715
 49
-6.2865
 53
355.0
 43
0.0
 44
0.0
 45
-1.0573026428
 46
5.7317053572
 79
2
 49
0.4572
 49
-5.0292175251
 53
100.4514447
 43
0.45546021
 44
-0.039847605
 45
4.4082374127
 46
5.2535325574
 79
2
 49
0.485700264
 49
-5.342707338
 53
46.1842
 43
0.0
 44
1.524
 45
8.1323712268
 46
-1.261269838
 79
2
 49
0.85725
 49
-9.42975
 53
96.63555761
 43
0.677697
 44
1.418895
 45
7.1221240215
 46
7.4227837379
 79
2
 49
0.7285506942
 49
-8.0140682448
 53
351.18415117
 43
0.0
 44
1.524
 45
7.1221240219
 46
7.4227837376
 79
2
 49
0.6857990121
 49
-7.5437919576
 53
21.0
 43
0.762
 44
1.143
 45
4.5484317381
 46
-3.0679559456
 79
2
 49
0.5715
 49
-6.2865
 53
326.0
 43
0.762
 44
1.143
 45
1.8540608504
 46
5.5256389837
 79
2
 49
0.4572
 49
-5.0292
 53
71.451445
 43
1.141035978
 44
0.887337003
 45
6.4024925784
 46
2.4576830666
 79
2
 49
0.485700264
 49
-5.342698128
 53
37.5
 43
0.0
 44
0.0
 45
0.0926580975
 46
2.5366511662
 79
6
 49
0.0
 49
-4.96824
 49
0.0
 49
-5.1054
 49
0.0
 49
-5.04825
 53
7.5
 43
0.0
 44
0.0
 45
2.0045898753
 46
3.0054172445
 79
6
 49
0.0
 49
-2.91084
 49
0.0
 49
-4.85394
 49
0.0
 49
-1.92405
 53
-32.5
 43
-1.69926
 44
0.0
 45
4.067717855
 46
-0.1718623198
 79
6
 49
0.0
 49
-1.905
 49
0.0
 49
-5.9436
 49
0.0
 49
-7.8867
 53
-42.5
 43
-2.46126
 44
0.0
 45
4.4438754416
 46
0.762794731
 79
6
 49
0.0
 49
-2.4765
 49
0.0
 49
-3.94716
 49
0.0
 49
-5.6007
 98
0
  0
HATCH
  5
AD
330
17
100
AcDbEntity
  8
Hachura
 62
8
100
AcDbHatch
 10
0.0
 20
0.0
 30
0.0
210
0.0
220
0.0
230
1.0
  2
SOLID
 70
1
 71
0
 91
1
 92
3
 72
0
 73
1
 93
8
 10
131268.2
 20
28168.1
 10
131264.2
 20
28168.1
 10
131264.2
 20
28168.1
 10
131264.2
 20
28088.1
 10
131264.2
 20
28088.1
 10
131268.2
 20
28088.1
 10
131268.2
 20
28088.1
 10
131268.2
 20
28168.1
 97
0
 75
1
 76
1
 98
0
  0
HATCH
  5
AE
330
17
100
AcDbEntity
  8
Hachura
 62
7
100
AcDbHatch
 10
0.0
 20
0.0
 30
0.0
210
0.0
220
0.0
230
1.0
  2
ANSI31
 70
0
 71
0
 91
1
 92
3
 72
0
 73
1
 93
8
 10
131302.2
 20
28088.1
 10
131302.2
 20
28092.5
 10
131302.2
 20
28092.5
 10
131282.2
 20
28092.5
 10
131282.2
 20
28092.5
 10
131282.2
 20
28088.1
 10
131282.2
 20
28088.1
 10
131302.2
 20
28088.1
 97
0
 75
1
 76
1
 52
0.0
 41
0.5
 77
0
 78
1
 53
45.0
 43
0.0
 44
0.0
 45
-1.1225320152
 46
1.1225320152
 79
0
 98
0
  0
HATCH
  5
AF
330
17
100
AcDbEntity
  8
Hachura
 62
8
100
AcDbHatch
 10
0.0
 20
0.0
 30
0.0
210
0.0
220
0.0
230
1.0
  2
SOLID
 70
1
 71
0
 91
1
 92
3
 72
0
 73
1
 93
8
 10
131226.2
 20
28092.5
 10
131226.2
 20
28096.1
 10
131226.2
 20
28096.1
 10
131264.2
 20
28096.1
 10
131264.2
 20
28096.1
 10
131264.2
 20
28092.5
 10
131264.2
 20
28092.5
 10
131226.2
 20
28092.5
 97
0
 75
1
 76
1
 98
0
  0
HATCH
  5
B0
330
17
100
AcDbEntity
  8
Hachura
 62
8
100
AcDbHatch
 10
0.0
 20
0.0
 30
0.0
210
0.0
220
0.0
230
1.0
  2
SOLID
 70
1
 71
0
 91
1
 92
3
 72
0
 73
1
 93
8
 10
131222.2
 20
28168.1
 10
131226.2
 20
28168.1
 10
131226.2
 20
28168.1
 10
131226.2
 20
28088.1
 10
131226.2
 20
28088.1
 10
131222.2
 20
28088.1
 10
131222.2
 20
28088.1
 10
131222.2
 20
28168.1
 97
0
 75
1
 76
1
 98
0
  0
HATCH
  5
B1
330
17
100
AcDbEntity
  8
Hachura
 62
8
100
AcDbHatch
 10
0.0
 20
0.0
 30
0.0
210
0.0
220
0.0
230
1.0
  2
SOLID
 70
1
 71
0
 91
1
 92
3
 72
0
 73
1
 93
8
 10
131166.2
 20
28168.1
 10
131166.2
 20
28172.1
 10
131166.2
 20
28172.1
 10
131226.2
 20
28172.1
 10
131226.2
 20
28172.1
 10
131226.2
 20
28168.1
 10
131226.2
 20
28168.1
 10
131166.2
 20
28168.1
 97
0
 75
1
 76
1
 98
0
  0
HATCH
  5
B2
330
17
100
AcDbEntity
  8
Hachura
 62
7
100
AcDbHatch
 10
0.0
 20
0.0
 30
0.0
210
0.0
220
0.0
230
1.0
  2
ANSI31
 70
0
 71
0
 91
1
 92
3
 72
0
 73
1
 93
8
 10
131208.2
 20
28168.1
 10
131208.2
 20
28163.7
 10
131208.2
 20
28163.7
 10
131222.2
 20
28163.7
 10
131222.2
 20
28163.7
 10
131222.2
 20
28168.1
 10
131222.2
 20
28168.1
 10
131208.2
 20
28168.1
 97
0
 75
1
 76
1
 52
0.0
 41
0.5
 77
0
 78
1
 53
45.0
 43
0.0
 44
0.0
 45
-1.1225320152
 46
1.1225320152
 79
0
 98
0
  0
HATCH
  5
B3
330
17
100
AcDbEntity
  8
Hachura
 62
7
100
AcDbHatch
 10
0.0
 20
0.0
 30
0.0
210
0.0
220
0.0
230
1.0
  2
ANSI31
 70
0
 71
0
 91
1
 92
3
 72
0
 73
1
 93
8
 10
131188.2
 20
28088.1
 10
131188.2
 20
28092.5
 10
131188.2
 20
28092.5
 10
131208.2
 20
28092.5
 10
131208.2
 20
28092.5
 10
131208.2
 20
28088.1
 10
131208.2
 20
28088.1
 10
131188.2
 20
28088.1
 97
0
 75
1
 76
1
 52
0.0
 41
0.5
 77
0
 78
1
 53
45.0
 43
0.0
 44
0.0
 45
-1.1225320152
 46
1.1225320152
 79
0
 98
0
  0
HATCH
  5
B4
330
17
100
AcDbEntity
  8
Hachura
 62
7
100
AcDbHatch
 10
0.0
 20
0.0
 30
0.0
210
0.0
220
0.0
230
1.0
  2
ANSI31
 70
0
 71
0
 91
1
 92
3
 72
0
 73
1
 93
8
 10
131282.2
 20
28168.1
 10
131282.2
 20
28163.7
 10
131282.2
 20
28163.7
 10
131268.2
 20
28163.7
 10
131268.2
 20
28163.7
 10
131268.2
 20
28168.1
 10
131268.2
 20
28168.1
 10
131282.2
 20
28168.1
 97
0
 75
1
 76
1
 52
0.0
 41
0.5
 77
0
 78
1
 53
45.0
 43
0.0
 44
0.0
 45
-1.1225320152
 46
1.1225320152
 79
0
 98
0
  0
HATCH
  5
B5
330
17
100
AcDbEntity
  8
Hachura
 62
7
100
AcDbHatch
 10
0.0
 20
0.0
 30
0.0
210
0.0
220
0.0
230
1.0
  2
ANSI31
 70
0
 71
0
 91
1
 92
3
 72
0
 73
1
 93
8
 10
131226.2
 20
28088.1
 10
131226.2
 20
28092.5
 10
131226.2
 20
28092.5
 10
131236.2
 20
28092.5
 10
131236.2
 20
28092.5
 10
131236.2
 20
28088.1
 10
131236.2
 20
28088.1
 10
131226.2
 20
28088.1
 97
0
 75
1
 76
1
 52
0.0
 41
0.5
 77
0
 78
1
 53
45.0
 43
0.0
 44
0.0
 45
-1.1225320152
 46
1.1225320152
 79
0
 98
0
  0
HATCH
  5
B6
330
17
100
AcDbEntity
  8
Hachura
 62
7
100
AcDbHatch
 10
0.0
 20
0.0
 30
0.0
210
0.0
220
0.0
230
1.0
  2
ANSI31
 70
0
 71
0
 91
1
 92
3
 72
0
 73
1
 93
8
 10
131254.2
 20
28088.1
 10
131254.2
 20
28092.5
 10
131254.2
 20
28092.5
 10
131264.2
 20
28092.5
 10
131264.2
 20
28092.5
 10
131264.2
 20
28088.1
 10
131264.2
 20
28088.1
 10
131254.2
 20
28088.1
 97
0
 75
1
 76
1
 52
0.0
 41
0.5
 77
0
 78
1
 53
45.0
 43
0.0
 44
0.0
 45
-1.1225320152
 46
1.1225320152
 79
0
 98
0
  0
HATCH
  5
B7
330
17
100
AcDbEntity
  8
Hachura
 62
8
100
AcDbHatch
 10
0.0
 20
0.0
 30
0.0
210
0.0
220
0.0
230
1.0
  2
SOLID
 70
1
 71
0
 91
1
 92
3
 72
0
 73
1
 93
8
 10
131324.2
 20
28168.1
 10
131324.2
 20
28172.1
 10
131324.2
 20
28172.1
 10
131264.2
 20
28172.1
 10
131264.2
 20
28172.1
 10
131264.2
 20
28168.1
 10
131264.2
 20
28168.1
 10
131324.2
 20
28168.1
 97
0
 75
1
 76
1
 98
0
  0
HATCH
  5
B8
330
17
100
AcDbEntity
  8
Hachura
 62
8
100
AcDbHatch
 10
0.0
 20
0.0
 30
0.0
210
0.0
220
0.0
230
1.0
  2
SOLID
 70
1
 71
0
 91
1
 92
3
 72
0
 73
1
 93
8
 10
131222.2
 20
28196.1
 10
131226.2
 20
28196.1
 10
131226.2
 20
28196.1
 10
131226.2
 20
28192.1
 10
131226.2
 20
28192.1
 10
131222.2
 20
28192.1
 10
131222.2
 20
28192.1
 10
131222.2
 20
28196.1
 97
0
 75
1
 76
1
 98
0
  0
HATCH
  5
B9
330
17
100
AcDbEntity
  8
Madeira
 62
7
100
AcDbHatch
 10
0.0
 20
0.0
 30
0.0
210
0.0
220
0.0
230
1.0
  2
ANSI31
 70
0
 71
0
 91
1
 92
3
 72
0
 73
1
 93
4
 10
131958.1
 20
27058.0
 10
131951.1
 20
27058.0
 10
131951.1
 20
27044.0
 10
131958.1
 20
27044.0
 97
0
 75
1
 76
1
 52
0.0
 41
0.2
 77
0
 78
1
 53
45.0
 43
0.0
 44
0.0
 45
-0.4490128061
 46
0.4490128061
 79
0
 98
0
  0
LINE
  5
BA
330
17
100
AcDbEntity
  8
COTA
100
AcDbLine
 10
131661.4
 20
27863.8
 30
0.0
 11
131728.4
 21
27863.8
 31
0.0
  0
LINE
  5
BB
330
17
100
AcDbEntity
  8
COTA
100
AcDbLine
 10
131728.4
 20
27946.8
 30
0.0
 11
131728.4
 21
27858.8
 31
0.0
  0
LINE
  5
BC
330
17
100
AcDbEntity
  8
COTA
100
AcDbLine
 10
131661.4
 20
27946.8
 30
0.0
 11
131661.4
 21
27858.8
 31
0.0
  0
TEXT
  5
BD
330
17
100
AcDbEntity
  8
COTA
100
AcDbText
 10
131694.9
 20
27871.9
 30
0.0
 40
4.0
  1
67
100
AcDbText
  0
LINE
  5
BE
330
17
100
AcDbEntity
  8
COTA
100
AcDbLine
 10
131417.4
 20
27863.8
 30
0.0
 11
131661.4
 21
27863.8
 31
0.0
  0
LINE
  5
BF
330
17
100
AcDbEntity
  8
COTA
100
AcDbLine
 10
131661.4
 20
27946.8
 30
0.0
 11
131661.4
 21
27858.8
 31
0.0
  0
LINE
  5
C0
330
17
100
AcDbEntity
  8
COTA
100
AcDbLine
 10
131417.4
 20
27946.8
 30
0.0
 11
131417.4
 21
27858.8
 31
0.0
  0
TEXT
  5
C1
330
17
100
AcDbEntity
  8
COTA
100
AcDbText
 10
131539.4
 20
27871.9
 30
0.0
 40
4.0
  1
244
100
AcDbText
  0
LINE
  5
C2
330
17
100
AcDbEntity
  8
COTA
100
AcDbLine
 10
131417.4
 20
27839.3
 30
0.0
 11
131728.4
 21
27839.3
 31
0.0
  0
LINE
  5
C3
330
17
100
AcDbEntity
  8
COTA
100
AcDbLine
 10
131728.4
 20
27946.8
 30
0.0
 11
131728.4
 21
27834.3
 31
0.0
  0
LINE
  5
C4
330
17
100
AcDbEntity
  8
COTA
100
AcDbLine
 10
131417.4
 20
27946.8
 30
0.0
 11
131417.4
 21
27834.3
 31
0.0
  0
TEXT
  5
C5
330
17
100
AcDbEntity
  8
COTA
100
AcDbText
 10
131572.9
 20
27847.5
 30
0.0
 40
4.0
  1
311
100
AcDbText
  0
LINE
  5
C6
330
17
100
AcDbEntity
  8
COTA
100
AcDbLine
 10
131735.9
 20
28006.7
 30
0.0
 11
131857.9
 21
28006.7
 31
0.0
  0
LINE
  5
C7
330
17
100
AcDbEntity
  8
COTA
100
AcDbLine
 10
131857.9
 20
28000.8
 30
0.0
 11
131857.9
 21
28011.7
 31
0.0
  0
LINE
  5
C8
330
17
100
AcDbEntity
  8
COTA
100
AcDbLine
 10
131735.9
 20
28000.8
 30
0.0
 11
131735.9
 21
28011.7
 31
0.0
  0
TEXT
  5
C9
330
17
100
AcDbEntity
  8
COTA
100
AcDbText
 10
131796.9
 20
28014.8
 30
0.0
 40
4.0
  1
122
100
AcDbText
  0
LINE
  5
CA
330
17
100
AcDbEntity
  8
COTA
100
AcDbLine
 10
131247.9
 20
28006.7
 30
0.0
 11
131491.9
 21
28006.7
 31
0.0
  0
LINE
  5
CB
330
17
100
AcDbEntity
  8
COTA
100
AcDbLine
 10
131491.9
 20
28000.8
 30
0.0
 11
131491.9
 21
28011.7
 31
0.0
  0
LINE
  5
CC
330
17
100
AcDbEntity
  8
COTA
100
AcDbLine
 10
131247.9
 20
28000.8
 30
0.0
 11
131247.9
 21
28011.7
 31
0.0
  0
TEXT
  5
CD
330
17
100
AcDbEntity
  8
COTA
100
AcDbText
 10
131369.9
 20
28014.8
 30
0.0
 40
4.0
  1
244
100
AcDbText
  0
LINE
  5
CE
330
17
100
AcDbEntity
  8
COTA
100
AcDbLine
 10
131331.4
 20
27863.8
 30
0.0
 11
131398.4
 21
27863.8
 31
0.0
  0
LINE
  5
CF
330
17
100
AcDbEntity
  8
COTA
100
AcDbLine
 10
131398.4
 20
27946.8
 30
0.0
 11
131398.4
 21
27858.8
 31
0.0
  0
LINE
  5
D0
330
17
100
AcDbEntity
  8
COTA
100
AcDbLine
 10
131331.4
 20
27946.8
 30
0.0
 11
131331.4
 21
27858.8
 31
0.0
  0
TEXT
  5
D1
330
17
100
AcDbEntity
  8
COTA
100
AcDbText
 10
131364.9
 20
27871.9
 30
0.0
 40
4.0
  1
67
100
AcDbText
  0
LINE
  5
D2
330
17
100
AcDbEntity
  8
COTA
100
AcDbLine
 10
131087.4
 20
27863.8
 30
0.0
 11
131331.4
 21
27863.8
 31
0.0
  0
LINE
  5
D3
330
17
100
AcDbEntity
  8
COTA
100
AcDbLine
 10
131331.4
 20
27946.8
 30
0.0
 11
131331.4
 21
27858.8
 31
0.0
  0
LINE
  5
D4
330
17
100
AcDbEntity
  8
COTA
100
AcDbLine
 10
131087.4
 20
27946.8
 30
0.0
 11
131087.4
 21
27858.8
 31
0.0
  0
TEXT
  5
D5
330
17
100
AcDbEntity
  8
COTA
100
AcDbText
 10
131209.4
 20
27871.9
 30
0.0
 40
4.0
  1
244
100
AcDbText
  0
LINE
  5
D6
330
17
100
AcDbEntity
  8
COTA
100
AcDbLine
 10
131087.4
 20
27839.3
 30
0.0
 11
131398.4
 21
27839.3
 31
0.0
  0
LINE
  5
D7
330
17
100
AcDbEntity
  8
COTA
100
AcDbLine
 10
131398.4
 20
27946.8
 30
0.0
 11
131398.4
 21
27834.3
 31
0.0
  0
LINE
  5
D8
330
17
100
AcDbEntity
  8
COTA
100
AcDbLine
 10
131087.4
 20
27946.8
 30
0.0
 11
131087.4
 21
27834.3
 31
0.0
  0
TEXT
  5
D9
330
17
100
AcDbEntity
  8
COTA
100
AcDbText
 10
131242.9
 20
27847.5
 30
0.0
 40
4.0
  1
311
100
AcDbText
  0
LINE
  5
DA
330
17
100
AcDbEntity
  8
COTA
100
AcDbLine
 10
131003.9
 20
28006.7
 30
0.0
 11
131247.9
 21
28006.7
 31
0.0
  0
LINE
  5
DB
330
17
100
AcDbEntity
  8
COTA
100
AcDbLine
 10
131247.9
 20
28000.8
 30
0.0
 11
131247.9
 21
28011.7
 31
0.0
  0
LINE
  5
DC
330
17
100
AcDbEntity
  8
COTA
100
AcDbLine
 10
131003.9
 20
28000.8
 30
0.0
 11
131003.9
 21
28011.7
 31
0.0
  0
TEXT
  5
DD
330
17
100
AcDbEntity
  8
COTA
100
AcDbText
 10
131125.9
 20
28014.8
 30
0.0
 40
4.0
  1
244
100
AcDbText
  0
LINE
  5
DE
330
17
100
AcDbEntity
  8
COTA
100
AcDbLine
 10
131003.9
 20
27863.8
 30
0.0
 11
131068.4
 21
27863.8
 31
0.0
  0
LINE
  5
DF
330
17
100
AcDbEntity
  8
COTA
100
AcDbLine
 10
131068.4
 20
27946.8
 30
0.0
 11
131068.4
 21
27858.8
 31
0.0
  0
LINE
  5
E0
330
17
100
AcDbEntity
  8
COTA
100
AcDbLine
 10
131003.9
 20
27946.8
 30
0.0
 11
131003.9
 21
27858.8
 31
0.0
  0
TEXT
  5
E1
330
17
100
AcDbEntity
  8
COTA
100
AcDbText
 10
131036.2
 20
27871.9
 30
0.0
 40
4.0
  1
64
100
AcDbText
  0
LINE
  5
E2
330
17
100
AcDbEntity
  8
COTA
100
AcDbLine
 10
130759.9
 20
27863.8
 30
0.0
 11
131003.9
 21
27863.8
 31
0.0
  0
LINE
  5
E3
330
17
100
AcDbEntity
  8
COTA
100
AcDbLine
 10
131003.9
 20
27946.8
 30
0.0
 11
131003.9
 21
27858.8
 31
0.0
  0
LINE
  5
E4
330
17
100
AcDbEntity
  8
COTA
100
AcDbLine
 10
130759.9
 20
27946.8
 30
0.0
 11
130759.9
 21
27858.8
 31
0.0
  0
TEXT
  5
E5
330
17
100
AcDbEntity
  8
COTA
100
AcDbText
 10
130881.9
 20
27871.9
 30
0.0
 40
4.0
  1
244
100
AcDbText
  0
LINE
  5
E6
330
17
100
AcDbEntity
  8
COTA
100
AcDbLine
 10
130759.9
 20
27839.3
 30
0.0
 11
131068.4
 21
27839.3
 31
0.0
  0
LINE
  5
E7
330
17
100
AcDbEntity
  8
COTA
100
AcDbLine
 10
131068.4
 20
27946.8
 30
0.0
 11
131068.4
 21
27834.3
 31
0.0
  0
LINE
  5
E8
330
17
100
AcDbEntity
  8
COTA
100
AcDbLine
 10
130759.9
 20
27946.8
 30
0.0
 11
130759.9
 21
27834.3
 31
0.0
  0
TEXT
  5
E9
330
17
100
AcDbEntity
  8
COTA
100
AcDbText
 10
130914.2
 20
27847.5
 30
0.0
 40
4.0
  1
308
100
AcDbText
  0
LINE
  5
EA
330
17
100
AcDbEntity
  8
Cota Seção (2x)
100
AcDbLine
 10
132022.5
 20
27946.8
 30
0.0
 11
132022.5
 21
27986.8
 31
0.0
  0
LINE
  5
EB
330
17
100
AcDbEntity
  8
Cota Seção (2x)
100
AcDbLine
 10
131985.9
 20
27946.8
 30
0.0
 11
132027.5
 21
27946.8
 31
0.0
  0
LINE
  5
EC
330
17
100
AcDbEntity
  8
Cota Seção (2x)
100
AcDbLine
 10
131985.9
 20
27986.8
 30
0.0
 11
132027.5
 21
27986.8
 31
0.0
  0
TEXT
  5
ED
330
17
100
AcDbEntity
  8
Cota Seção (2x)
100
AcDbText
 10
132016.0
 20
27966.8
 30
0.0
 40
4.0
  1
40
100
AcDbText
  0
LINE
  5
EE
330
17
100
AcDbEntity
  8
Cota Seção (2x)
100
AcDbLine
 10
132022.5
 20
27986.8
 30
0.0
 11
132022.5
 21
27998.8
 31
0.0
  0
LINE
  5
EF
330
17
100
AcDbEntity
  8
Cota Seção (2x)
100
AcDbLine
 10
131985.9
 20
27986.8
 30
0.0
 11
132027.5
 21
27986.8
 31
0.0
  0
LINE
  5
F0
330
17
100
AcDbEntity
  8
Cota Seção (2x)
100
AcDbLine
 10
131985.9
 20
27998.8
 30
0.0
 11
132027.5
 21
27998.8
 31
0.0
  0
TEXT
  5
F1
330
17
100
AcDbEntity
  8
Cota Seção (2x)
100
AcDbText
 10
132022.5
 20
27992.8
 30
0.0
 40
4.0
  1
12
100
AcDbText
  0
LINE
  5
F2
330
17
100
AcDbEntity
  8
Cota Seção (2x)
100
AcDbLine
 10
132022.5
 20
27998.8
 30
0.0
 11
132022.5
 21
28000.8
 31
0.0
  0
LINE
  5
F3
330
17
100
AcDbEntity
  8
Cota Seção (2x)
100
AcDbLine
 10
132004.9
 20
27998.8
 30
0.0
 11
132027.5
 21
27998.8
 31
0.0
  0
LINE
  5
F4
330
17
100
AcDbEntity
  8
Cota Seção (2x)
100
AcDbLine
 10
132004.9
 20
28000.8
 30
0.0
 11
132027.5
 21
28000.8
 31
0.0
  0
TEXT
  5
F5
330
17
100
AcDbEntity
  8
Cota Seção (2x)
100
AcDbText
 10
132016.0
 20
28016.1
 30
0.0
 40
4.0
  1
2
100
AcDbText
  0
LINE
  5
F6
330
17
100
AcDbEntity
  8
Cota Seção (2x)
100
AcDbLine
 10
132043.0
 20
27946.8
 30
0.0
 11
132043.0
 21
28000.8
 31
0.0
  0
LINE
  5
F7
330
17
100
AcDbEntity
  8
Cota Seção (2x)
100
AcDbLine
 10
131985.9
 20
27946.8
 30
0.0
 11
132048.0
 21
27946.8
 31
0.0
  0
LINE
  5
F8
330
17
100
AcDbEntity
  8
Cota Seção (2x)
100
AcDbLine
 10
132004.9
 20
28000.8
 30
0.0
 11
132048.0
 21
28000.8
 31
0.0
  0
TEXT
  5
F9
330
17
100
AcDbEntity
  8
Cota Seção (2x)
100
AcDbText
 10
132036.5
 20
27973.8
 30
0.0
 40
4.0
  1
54
100
AcDbText
  0
LINE
  5
FA
330
17
100
AcDbEntity
  8
COTA
100
AcDbLine
 10
130759.9
 20
28006.7
 30
0.0
 11
131003.9
 21
28006.7
 31
0.0
  0
LINE
  5
FB
330
17
100
AcDbEntity
  8
COTA
100
AcDbLine
 10
131003.9
 20
28000.8
 30
0.0
 11
131003.9
 21
28011.7
 31
0.0
  0
LINE
  5
FC
330
17
100
AcDbEntity
  8
COTA
100
AcDbLine
 10
130759.9
 20
28000.8
 30
0.0
 11
130759.9
 21
28011.7
 31
0.0
  0
TEXT
  5
FD
330
17
100
AcDbEntity
  8
COTA
100
AcDbText
 10
130881.9
 20
28014.8
 30
0.0
 40
4.0
  1
244
100
AcDbText
  0
LINE
  5
FE
330
17
100
AcDbEntity
  8
COTA
100
AcDbLine
 10
131491.9
 20
28006.7
 30
0.0
 11
131735.9
 21
28006.7
 31
0.0
  0
LINE
  5
FF
330
17
100
AcDbEntity
  8
COTA
100
AcDbLine
 10
131735.9
 20
28000.8
 30
0.0
 11
131735.9
 21
28011.7
 31
0.0
  0
LINE
  5
100
330
17
100
AcDbEntity
  8
COTA
100
AcDbLine
 10
131491.9
 20
28000.8
 30
0.0
 11
131491.9
 21
28011.7
 31
0.0
  0
TEXT
  5
101
330
17
100
AcDbEntity
  8
COTA
100
AcDbText
 10
131613.9
 20
28014.8
 30
0.0
 40
4.0
  1
244
100
AcDbText
  0
LINE
  5
102
330
17
100
AcDbEntity
  8
COTA
100
AcDbLine
 10
131747.4
 20
27863.8
 30
0.0
 11
131869.4
 21
27863.8
 31
0.0
  0
LINE
  5
103
330
17
100
AcDbEntity
  8
COTA
100
AcDbLine
 10
131747.4
 20
27946.8
 30
0.0
 11
131747.4
 21
27858.8
 31
0.0
  0
LINE
  5
104
330
17
100
AcDbEntity
  8
COTA
100
AcDbLine
 10
131869.4
 20
27905.8
 30
0.0
 11
131869.4
 21
27858.8
 31
0.0
  0
TEXT
  5
105
330
17
100
AcDbEntity
  8
COTA
100
AcDbText
 10
131808.4
 20
27871.9
 30
0.0
 40
4.0
  1
122
100
AcDbText
  0
LINE
  5
106
330
17
100
AcDbEntity
  8
COTA
100
AcDbLine
 10
131869.4
 20
27863.8
 30
0.0
 11
131985.9
 21
27863.8
 31
0.0
  0
LINE
  5
107
330
17
100
AcDbEntity
  8
COTA
100
AcDbLine
 10
131869.4
 20
27905.8
 30
0.0
 11
131869.4
 21
27858.8
 31
0.0
  0
LINE
  5
108
330
17
100
AcDbEntity
  8
COTA
100
AcDbLine
 10
131985.9
 20
27946.8
 30
0.0
 11
131985.9
 21
27858.8
 31
0.0
  0
TEXT
  5
109
330
17
100
AcDbEntity
  8
COTA
100
AcDbText
 10
131927.7
 20
27871.9
 30
0.0
 40
4.0
  1
116
100
AcDbText
  0
LINE
  5
10A
330
17
100
AcDbEntity
  8
COTA
100
AcDbLine
 10
131747.4
 20
27839.3
 30
0.0
 11
131985.9
 21
27839.3
 31
0.0
  0
LINE
  5
10B
330
17
100
AcDbEntity
  8
COTA
100
AcDbLine
 10
131747.4
 20
27946.8
 30
0.0
 11
131747.4
 21
27834.3
 31
0.0
  0
LINE
  5
10C
330
17
100
AcDbEntity
  8
COTA
100
AcDbLine
 10
131985.9
 20
27946.8
 30
0.0
 11
131985.9
 21
27834.3
 31
0.0
  0
TEXT
  5
10D
330
17
100
AcDbEntity
  8
COTA
100
AcDbText
 10
131866.7
 20
27847.5
 30
0.0
 40
4.0
  1
238
100
AcDbText
  0
LINE
  5
10E
330
17
100
AcDbEntity
  8
COTA
100
AcDbLine
 10
131784.4
 20
27902.8
 30
0.0
 11
131784.4
 21
27946.8
 31
0.0
  0
LINE
  5
10F
330
17
100
AcDbEntity
  8
COTA
100
AcDbLine
 10
131765.9
 20
27946.8
 30
0.0
 11
131789.4
 21
27946.8
 31
0.0
  0
LINE
  5
110
330
17
100
AcDbEntity
  8
COTA
100
AcDbLine
 10
131765.9
 20
27902.8
 30
0.0
 11
131789.4
 21
27902.8
 31
0.0
  0
TEXT
  5
111
330
17
100
AcDbEntity
  8
COTA
100
AcDbText
 10
131776.4
 20
27924.8
 30
0.0
 40
4.0
  1
44
100
AcDbText
  0
LINE
  5
112
330
17
100
AcDbEntity
  8
COTA
100
AcDbLine
 10
131857.9
 20
28006.7
 30
0.0
 11
132004.9
 21
28006.7
 31
0.0
  0
LINE
  5
113
330
17
100
AcDbEntity
  8
COTA
100
AcDbLine
 10
131857.9
 20
28000.8
 30
0.0
 11
131857.9
 21
28011.7
 31
0.0
  0
LINE
  5
114
330
17
100
AcDbEntity
  8
COTA
100
AcDbLine
 10
132004.9
 20
28000.8
 30
0.0
 11
132004.9
 21
28011.7
 31
0.0
  0
TEXT
  5
115
330
17
100
AcDbEntity
  8
COTA
100
AcDbText
 10
131931.4
 20
28014.8
 30
0.0
 40
4.0
  1
147
100
AcDbText
  0
LINE
  5
116
330
17
100
AcDbEntity
  8
COTA
100
AcDbLine
 10
131454.4
 20
27916.8
 30
0.0
 11
131454.4
 21
27946.8
 31
0.0
  0
LINE
  5
117
330
17
100
AcDbEntity
  8
COTA
100
AcDbLine
 10
131435.9
 20
27946.8
 30
0.0
 11
131459.4
 21
27946.8
 31
0.0
  0
LINE
  5
118
330
17
100
AcDbEntity
  8
COTA
100
AcDbLine
 10
131435.9
 20
27916.8
 30
0.0
 11
131459.4
 21
27916.8
 31
0.0
  0
TEXT
  5
119
330
17
100
AcDbEntity
  8
COTA
100
AcDbText
 10
131446.2
 20
27931.8
 30
0.0
 40
4.0
  1
30
100
AcDbText
  0
LINE
  5
11A
330
17
100
AcDbEntity
  8
COTA
100
AcDbLine
 10
131124.4
 20
27916.8
 30
0.0
 11
131124.4
 21
27946.8
 31
0.0
  0
LINE
  5
11B
330
17
100
AcDbEntity
  8
COTA
100
AcDbLine
 10
131105.9
 20
27946.8
 30
0.0
 11
131129.4
 21
27946.8
 31
0.0
  0
LINE
  5
11C
330
17
100
AcDbEntity
  8
COTA
100
AcDbLine
 10
131105.9
 20
27916.8
 30
0.0
 11
131129.4
 21
27916.8
 31
0.0
  0
TEXT
  5
11D
330
17
100
AcDbEntity
  8
COTA
100
AcDbText
 10
131116.2
 20
27931.8
 30
0.0
 40
4.0
  1
30
100
AcDbText
  0
LINE
  5
11E
330
17
100
AcDbEntity
  8
COTA
100
AcDbLine
 10
130796.9
 20
27916.8
 30
0.0
 11
130796.9
 21
27946.8
 31
0.0
  0
LINE
  5
11F
330
17
100
AcDbEntity
  8
COTA
100
AcDbLine
 10
130778.4
 20
27946.8
 30
0.0
 11
130801.9
 21
27946.8
 31
0.0
  0
LINE
  5
120
330
17
100
AcDbEntity
  8
COTA
100
AcDbLine
 10
130778.4
 20
27916.8
 30
0.0
 11
130801.9
 21
27916.8
 31
0.0
  0
TEXT
  5
121
330
17
100
AcDbEntity
  8
COTA
100
AcDbText
 10
130788.7
 20
27931.8
 30
0.0
 40
4.0
  1
30
100
AcDbText
  0
LINE
  5
122
330
17
100
AcDbEntity
  8
COTA
100
AcDbLine
 10
131342.4
 20
27889.3
 30
0.0
 11
131398.4
 21
27889.3
 31
0.0
  0
LINE
  5
123
330
17
100
AcDbEntity
  8
COTA
100
AcDbLine
 10
131398.4
 20
27946.8
 30
0.0
 11
131398.4
 21
27884.3
 31
0.0
  0
LINE
  5
124
330
17
100
AcDbEntity
  8
COTA
100
AcDbLine
 10
131342.4
 20
27946.8
 30
0.0
 11
131342.4
 21
27884.3
 31
0.0
  0
TEXT
  5
125
330
17
100
AcDbEntity
  8
COTA
100
AcDbText
 10
131370.4
 20
27897.4
 30
0.0
 40
4.0
  1
56
100
AcDbText
  0
LINE
  5
126
330
17
100
AcDbEntity
  8
COTA
100
AcDbLine
 10
131331.4
 20
27889.3
 30
0.0
 11
131342.4
 21
27889.3
 31
0.0
  0
LINE
  5
127
330
17
100
AcDbEntity
  8
COTA
100
AcDbLine
 10
131342.4
 20
27946.8
 30
0.0
 11
131342.4
 21
27884.3
 31
0.0
  0
LINE
  5
128
330
17
100
AcDbEntity
  8
COTA
100
AcDbLine
 10
131331.4
 20
27946.8
 30
0.0
 11
131331.4
 21
27884.3
 31
0.0
  0
TEXT
  5
129
330
17
100
AcDbEntity
  8
COTA
100
AcDbText
 10
131336.9
 20
27889.3
 30
0.0
 40
4.0
  1
11
100
AcDbText
  0
LINE
  5
12A
330
17
100
AcDbEntity
  8
COTA
100
AcDbLine
 10
131677.4
 20
27887.4
 30
0.0
 11
131728.4
 21
27887.4
 31
0.0
  0
LINE
  5
12B
330
17
100
AcDbEntity
  8
COTA
100
AcDbLine
 10
131728.4
 20
27946.8
 30
0.0
 11
131728.4
 21
27882.4
 31
0.0
  0
LINE
  5
12C
330
17
100
AcDbEntity
  8
COTA
100
AcDbLine
 10
131677.4
 20
27946.8
 30
0.0
 11
131677.4
 21
27882.4
 31
0.0
  0
TEXT
  5
12D
330
17
100
AcDbEntity
  8
COTA
100
AcDbText
 10
131702.9
 20
27895.5
 30
0.0
 40
4.0
  1
51
100
AcDbText
  0
LINE
  5
12E
330
17
100
AcDbEntity
  8
COTA
100
AcDbLine
 10
131661.4
 20
27887.4
 30
0.0
 11
131677.4
 21
27887.4
 31
0.0
  0
LINE
  5
12F
330
17
100
AcDbEntity
  8
COTA
100
AcDbLine
 10
131677.4
 20
27946.8
 30
0.0
 11
131677.4
 21
27882.4
 31
0.0
  0
LINE
  5
130
330
17
100
AcDbEntity
  8
COTA
100
AcDbLine
 10
131661.4
 20
27946.8
 30
0.0
 11
131661.4
 21
27882.4
 31
0.0
  0
TEXT
  5
131
330
17
100
AcDbEntity
  8
COTA
100
AcDbText
 10
131669.4
 20
27887.4
 30
0.0
 40
4.0
  1
16
100
AcDbText
  0
LINE
  5
132
330
17
100
AcDbEntity
  8
COTA
100
AcDbLine
 10
131206.4
 20
27629.4
 30
0.0
 11
131328.4
 21
27629.4
 31
0.0
  0
LINE
  5
133
330
17
100
AcDbEntity
  8
COTA
100
AcDbLine
 10
131206.4
 20
27712.4
 30
0.0
 11
131206.4
 21
27624.4
 31
0.0
  0
LINE
  5
134
330
17
100
AcDbEntity
  8
COTA
100
AcDbLine
 10
131328.4
 20
27712.4
 30
0.0
 11
131328.4
 21
27624.4
 31
0.0
  0
TEXT
  5
135
330
17
100
AcDbEntity
  8
COTA
100
AcDbText
 10
131267.4
 20
27637.5
 30
0.0
 40
4.0
  1
122
100
AcDbText
  0
LINE
  5
136
330
17
100
AcDbEntity
  8
COTA
100
AcDbLine
 10
131019.9
 20
27604.9
 30
0.0
 11
131328.4
 21
27604.9
 31
0.0
  0
LINE
  5
137
330
17
100
AcDbEntity
  8
COTA
100
AcDbLine
 10
131019.9
 20
27712.4
 30
0.0
 11
131019.9
 21
27599.9
 31
0.0
  0
LINE
  5
138
330
17
100
AcDbEntity
  8
COTA
100
AcDbLine
 10
131328.4
 20
27712.4
 30
0.0
 11
131328.4
 21
27599.9
 31
0.0
  0
TEXT
  5
139
330
17
100
AcDbEntity
  8
COTA
100
AcDbText
 10
131174.2
 20
27613.1
 30
0.0
 40
4.0
  1
308
100
AcDbText
  0
LINE
  5
13A
330
17
100
AcDbEntity
  8
COTA
100
AcDbLine
 10
131347.4
 20
27629.4
 30
0.0
 11
131529.9
 21
27629.4
 31
0.0
  0
LINE
  5
13B
330
17
100
AcDbEntity
  8
COTA
100
AcDbLine
 10
131347.4
 20
27712.4
 30
0.0
 11
131347.4
 21
27624.4
 31
0.0
  0
LINE
  5
13C
330
17
100
AcDbEntity
  8
COTA
100
AcDbLine
 10
131529.9
 20
27712.4
 30
0.0
 11
131529.9
 21
27624.4
 31
0.0
  0
TEXT
  5
13D
330
17
100
AcDbEntity
  8
COTA
100
AcDbText
 10
131438.7
 20
27637.6
 30
0.0
 40
4.0
  1
182
100
AcDbText
  0
LINE
  5
13E
330
17
100
AcDbEntity
  8
COTA
100
AcDbLine
 10
131529.9
 20
27629.4
 30
0.0
 11
131651.9
 21
27629.4
 31
0.0
  0
LINE
  5
13F
330
17
100
AcDbEntity
  8
COTA
100
AcDbLine
 10
131529.9
 20
27712.4
 30
0.0
 11
131529.9
 21
27624.4
 31
0.0
  0
LINE
  5
140
330
17
100
AcDbEntity
  8
COTA
100
AcDbLine
 10
131651.9
 20
27712.4
 30
0.0
 11
131651.9
 21
27624.4
 31
0.0
  0
TEXT
  5
141
330
17
100
AcDbEntity
  8
COTA
100
AcDbText
 10
131590.9
 20
27637.5
 30
0.0
 40
4.0
  1
122
100
AcDbText
  0
LINE
  5
142
330
17
100
AcDbEntity
  8
COTA
100
AcDbLine
 10
131347.4
 20
27604.9
 30
0.0
 11
131651.9
 21
27604.9
 31
0.0
  0
LINE
  5
143
330
17
100
AcDbEntity
  8
COTA
100
AcDbLine
 10
131347.4
 20
27712.4
 30
0.0
 11
131347.4
 21
27599.9
 31
0.0
  0
LINE
  5
144
330
17
100
AcDbEntity
  8
COTA
100
AcDbLine
 10
131651.9
 20
27712.4
 30
0.0
 11
131651.9
 21
27599.9
 31
0.0
  0
TEXT
  5
145
330
17
100
AcDbEntity
  8
COTA
100
AcDbText
 10
131499.7
 20
27613.1
 30
0.0
 40
4.0
  1
304
100
AcDbText
  0
LINE
  5
146
330
17
100
AcDbEntity
  8
COTA
100
AcDbLine
 10
131677.4
 20
27629.4
 30
0.0
 11
131854.9
 21
27629.4
 31
0.0
  0
LINE
  5
147
330
17
100
AcDbEntity
  8
COTA
100
AcDbLine
 10
131677.4
 20
27712.4
 30
0.0
 11
131677.4
 21
27624.4
 31
0.0
  0
LINE
  5
148
330
17
100
AcDbEntity
  8
COTA
100
AcDbLine
 10
131854.9
 20
27712.4
 30
0.0
 11
131854.9
 21
27624.4
 31
0.0
  0
TEXT
  5
149
330
17
100
AcDbEntity
  8
COTA
100
AcDbText
 10
131766.2
 20
27637.5
 30
0.0
 40
4.0
  1
178
100
AcDbText
  0
LINE
  5
14A
330
17
100
AcDbEntity
  8
COTA
100
AcDbLine
 10
131854.9
 20
27629.4
 30
0.0
 11
131976.9
 21
27629.4
 31
0.0
  0
LINE
  5
14B
330
17
100
AcDbEntity
  8
COTA
100
AcDbLine
 10
131854.9
 20
27712.4
 30
0.0
 11
131854.9
 21
27624.4
 31
0.0
  0
LINE
  5
14C
330
17
100
AcDbEntity
  8
COTA
100
AcDbLine
 10
131976.9
 20
27712.4
 30
0.0
 11
131976.9
 21
27624.4
 31
0.0
  0
TEXT
  5
14D
330
17
100
AcDbEntity
  8
COTA
100
AcDbText
 10
131915.9
 20
27637.5
 30
0.0
 40
4.0
  1
122
100
AcDbText
  0
LINE
  5
14E
330
17
100
AcDbEntity
  8
COTA
100
AcDbLine
 10
131677.4
 20
27604.9
 30
0.0
 11
131976.9
 21
27604.9
 31
0.0
  0
LINE
  5
14F
330
17
100
AcDbEntity
  8
COTA
100
AcDbLine
 10
131677.4
 20
27712.4
 30
0.0
 11
131677.4
 21
27599.9
 31
0.0
  0
LINE
  5
150
330
17
100
AcDbEntity
  8
COTA
100
AcDbLine
 10
131976.9
 20
27712.4
 30
0.0
 11
131976.9
 21
27599.9
 31
0.0
  0
TEXT
  5
151
330
17
100
AcDbEntity
  8
COTA
100
AcDbText
 10
131827.2
 20
27613.0
 30
0.0
 40
4.0
  1
300
100
AcDbText
  0
LINE
  5
152
330
17
100
AcDbEntity
  8
Cota Seção (2x)
100
AcDbLine
 10
132013.5
 20
27712.4
 30
0.0
 11
132013.5
 21
27752.4
 31
0.0
  0
LINE
  5
153
330
17
100
AcDbEntity
  8
Cota Seção (2x)
100
AcDbLine
 10
131976.9
 20
27712.4
 30
0.0
 11
132018.5
 21
27712.4
 31
0.0
  0
LINE
  5
154
330
17
100
AcDbEntity
  8
Cota Seção (2x)
100
AcDbLine
 10
131976.9
 20
27752.4
 30
0.0
 11
132018.5
 21
27752.4
 31
0.0
  0
TEXT
  5
155
330
17
100
AcDbEntity
  8
Cota Seção (2x)
100
AcDbText
 10
132007.0
 20
27732.4
 30
0.0
 40
4.0
  1
40
100
AcDbText
  0
LINE
  5
156
330
17
100
AcDbEntity
  8
Cota Seção (2x)
100
AcDbLine
 10
132013.5
 20
27752.4
 30
0.0
 11
132013.5
 21
27766.4
 31
0.0
  0
LINE
  5
157
330
17
100
AcDbEntity
  8
Cota Seção (2x)
100
AcDbLine
 10
131976.9
 20
27752.4
 30
0.0
 11
132018.5
 21
27752.4
 31
0.0
  0
LINE
  5
158
330
17
100
AcDbEntity
  8
Cota Seção (2x)
100
AcDbLine
 10
131976.9
 20
27766.4
 30
0.0
 11
132018.5
 21
27766.4
 31
0.0
  0
TEXT
  5
159
330
17
100
AcDbEntity
  8
Cota Seção (2x)
100
AcDbText
 10
132013.5
 20
27759.4
 30
0.0
 40
4.0
  1
14
100
AcDbText
  0
LINE
  5
15A
330
17
100
AcDbEntity
  8
Cota Seção (2x)
100
AcDbLine
 10
132034.0
 20
27712.4
 30
0.0
 11
132034.0
 21
27766.4
 31
0.0
  0
LINE
  5
15B
330
17
100
AcDbEntity
  8
Cota Seção (2x)
100
AcDbLine
 10
131976.9
 20
27712.4
 30
0.0
 11
132039.0
 21
27712.4
 31
0.0
  0
LINE
  5
15C
330
17
100
AcDbEntity
  8
Cota Seção (2x)
100
AcDbLine
 10
131976.9
 20
27766.4
 30
0.0
 11
132039.0
 21
27766.4
 31
0.0
  0
TEXT
  5
15D
330
17
100
AcDbEntity
  8
Cota Seção (2x)
100
AcDbText
 10
132027.5
 20
27739.4
 30
0.0
 40
4.0
  1
54
100
AcDbText
  0
LINE
  5
15E
330
17
100
AcDbEntity
  8
COTA
100
AcDbLine
 10
130876.4
 20
27629.4
 30
0.0
 11
130998.4
 21
27629.4
 31
0.0
  0
LINE
  5
15F
330
17
100
AcDbEntity
  8
COTA
100
AcDbLine
 10
130998.4
 20
27712.4
 30
0.0
 11
130998.4
 21
27624.4
 31
0.0
  0
LINE
  5
160
330
17
100
AcDbEntity
  8
COTA
100
AcDbLine
 10
130876.4
 20
27685.4
 30
0.0
 11
130876.4
 21
27624.4
 31
0.0
  0
TEXT
  5
161
330
17
100
AcDbEntity
  8
COTA
100
AcDbText
 10
130937.4
 20
27637.5
 30
0.0
 40
4.0
  1
122
100
AcDbText
  0
LINE
  5
162
330
17
100
AcDbEntity
  8
COTA
100
AcDbLine
 10
130759.9
 20
27629.4
 30
0.0
 11
130876.4
 21
27629.4
 31
0.0
  0
LINE
  5
163
330
17
100
AcDbEntity
  8
COTA
100
AcDbLine
 10
130876.4
 20
27685.4
 30
0.0
 11
130876.4
 21
27624.4
 31
0.0
  0
LINE
  5
164
330
17
100
AcDbEntity
  8
COTA
100
AcDbLine
 10
130759.9
 20
27712.4
 30
0.0
 11
130759.9
 21
27624.4
 31
0.0
  0
TEXT
  5
165
330
17
100
AcDbEntity
  8
COTA
100
AcDbText
 10
130818.2
 20
27637.5
 30
0.0
 40
4.0
  1
116
100
AcDbText
  0
LINE
  5
166
330
17
100
AcDbEntity
  8
COTA
100
AcDbLine
 10
130759.9
 20
27604.9
 30
0.0
 11
130998.4
 21
27604.9
 31
0.0
  0
LINE
  5
167
330
17
100
AcDbEntity
  8
COTA
100
AcDbLine
 10
130998.4
 20
27712.4
 30
0.0
 11
130998.4
 21
27599.9
 31
0.0
  0
LINE
  5
168
330
17
100
AcDbEntity
  8
COTA
100
AcDbLine
 10
130759.9
 20
27712.4
 30
0.0
 11
130759.9
 21
27599.9
 31
0.0
  0
TEXT
  5
169
330
17
100
AcDbEntity
  8
COTA
100
AcDbText
 10
130879.2
 20
27613.1
 30
0.0
 40
4.0
  1
238
100
AcDbText
  0
LINE
  5
16A
330
17
100
AcDbEntity
  8
COTA
100
AcDbLine
 10
130961.4
 20
27682.4
 30
0.0
 11
130961.4
 21
27712.4
 31
0.0
  0
LINE
  5
16B
330
17
100
AcDbEntity
  8
COTA
100
AcDbLine
 10
130979.9
 20
27712.4
 30
0.0
 11
130956.4
 21
27712.4
 31
0.0
  0
LINE
  5
16C
330
17
100
AcDbEntity
  8
COTA
100
AcDbLine
 10
130979.9
 20
27682.4
 30
0.0
 11
130956.4
 21
27682.4
 31
0.0
  0
TEXT
  5
16D
330
17
100
AcDbEntity
  8
COTA
100
AcDbText
 10
130953.2
 20
27697.4
 30
0.0
 40
4.0
  1
30
100
AcDbText
  0
LINE
  5
16E
330
17
100
AcDbEntity
  8
COTA
100
AcDbLine
 10
131291.4
 20
27682.4
 30
0.0
 11
131291.4
 21
27712.4
 31
0.0
  0
LINE
  5
16F
330
17
100
AcDbEntity
  8
COTA
100
AcDbLine
 10
131309.9
 20
27712.4
 30
0.0
 11
131286.4
 21
27712.4
 31
0.0
  0
LINE
  5
170
330
17
100
AcDbEntity
  8
COTA
100
AcDbLine
 10
131309.9
 20
27682.4
 30
0.0
 11
131286.4
 21
27682.4
 31
0.0
  0
TEXT
  5
171
330
17
100
AcDbEntity
  8
COTA
100
AcDbText
 10
131283.2
 20
27697.4
 30
0.0
 40
4.0
  1
30
100
AcDbText
  0
LINE
  5
172
330
17
100
AcDbEntity
  8
COTA
100
AcDbLine
 10
131614.9
 20
27682.4
 30
0.0
 11
131614.9
 21
27712.4
 31
0.0
  0
LINE
  5
173
330
17
100
AcDbEntity
  8
COTA
100
AcDbLine
 10
131633.4
 20
27712.4
 30
0.0
 11
131609.9
 21
27712.4
 31
0.0
  0
LINE
  5
174
330
17
100
AcDbEntity
  8
COTA
100
AcDbLine
 10
131633.4
 20
27682.4
 30
0.0
 11
131609.9
 21
27682.4
 31
0.0
  0
TEXT
  5
175
330
17
100
AcDbEntity
  8
COTA
100
AcDbText
 10
131606.7
 20
27697.4
 30
0.0
 40
4.0
  1
30
100
AcDbText
  0
LINE
  5
176
330
17
100
AcDbEntity
  8
COTA
100
AcDbLine
 10
131939.9
 20
27682.4
 30
0.0
 11
131939.9
 21
27712.4
 31
0.0
  0
LINE
  5
177
330
17
100
AcDbEntity
  8
COTA
100
AcDbLine
 10
131958.4
 20
27712.4
 30
0.0
 11
131934.9
 21
27712.4
 31
0.0
  0
LINE
  5
178
330
17
100
AcDbEntity
  8
COTA
100
AcDbLine
 10
131958.4
 20
27682.4
 30
0.0
 11
131934.9
 21
27682.4
 31
0.0
  0
TEXT
  5
179
330
17
100
AcDbEntity
  8
COTA
100
AcDbText
 10
131931.7
 20
27697.4
 30
0.0
 40
4.0
  1
30
100
AcDbText
  0
LINE
  5
17A
330
17
100
AcDbEntity
  8
COTA
100
AcDbLine
 10
131019.9
 20
27659.0
 30
0.0
 11
131184.9
 21
27659.0
 31
0.0
  0
LINE
  5
17B
330
17
100
AcDbEntity
  8
COTA
100
AcDbLine
 10
131019.9
 20
27712.4
 30
0.0
 11
131019.9
 21
27654.0
 31
0.0
  0
LINE
  5
17C
330
17
100
AcDbEntity
  8
COTA
100
AcDbLine
 10
131184.9
 20
27712.4
 30
0.0
 11
131184.9
 21
27654.0
 31
0.0
  0
TEXT
  5
17D
330
17
100
AcDbEntity
  8
COTA
100
AcDbText
 10
131102.4
 20
27667.1
 30
0.0
 40
4.0
  1
165
100
AcDbText
  0
LINE
  5
17E
330
17
100
AcDbEntity
  8
COTA
100
AcDbLine
 10
131184.9
 20
27659.0
 30
0.0
 11
131206.4
 21
27659.0
 31
0.0
  0
LINE
  5
17F
330
17
100
AcDbEntity
  8
COTA
100
AcDbLine
 10
131184.9
 20
27712.4
 30
0.0
 11
131184.9
 21
27654.0
 31
0.0
  0
LINE
  5
180
330
17
100
AcDbEntity
  8
COTA
100
AcDbLine
 10
131206.4
 20
27712.4
 30
0.0
 11
131206.4
 21
27654.0
 31
0.0
  0
TEXT
  5
181
330
17
100
AcDbEntity
  8
COTA
100
AcDbText
 10
131195.7
 20
27659.0
 30
0.0
 40
4.0
  1
22
100
AcDbText
  0
LINE
  5
182
330
17
100
AcDbEntity
  8
COTA
100
AcDbLine
 10
131677.4
 20
27655.1
 30
0.0
 11
131829.4
 21
27655.1
 31
0.0
  0
LINE
  5
183
330
17
100
AcDbEntity
  8
COTA
100
AcDbLine
 10
131677.4
 20
27712.4
 30
0.0
 11
131677.4
 21
27650.1
 31
0.0
  0
LINE
  5
184
330
17
100
AcDbEntity
  8
COTA
100
AcDbLine
 10
131829.4
 20
27712.4
 30
0.0
 11
131829.4
 21
27650.1
 31
0.0
  0
TEXT
  5
185
330
17
100
AcDbEntity
  8
COTA
100
AcDbText
 10
131753.4
 20
27663.2
 30
0.0
 40
4.0
  1
152
100
AcDbText
  0
LINE
  5
186
330
17
100
AcDbEntity
  8
COTA
100
AcDbLine
 10
131829.4
 20
27655.1
 30
0.0
 11
131854.9
 21
27655.1
 31
0.0
  0
LINE
  5
187
330
17
100
AcDbEntity
  8
COTA
100
AcDbLine
 10
131829.4
 20
27712.4
 30
0.0
 11
131829.4
 21
27650.1
 31
0.0
  0
LINE
  5
188
330
17
100
AcDbEntity
  8
COTA
100
AcDbLine
 10
131854.9
 20
27712.4
 30
0.0
 11
131854.9
 21
27650.1
 31
0.0
  0
TEXT
  5
189
330
17
100
AcDbEntity
  8
COTA
100
AcDbText
 10
131842.2
 20
27655.1
 30
0.0
 40
4.0
  1
26
100
AcDbText
  0
LINE
  5
18A
330
17
100
AcDbEntity
  8
COTA
100
AcDbLine
 10
131019.9
 20
27629.4
 30
0.0
 11
131206.4
 21
27629.4
 31
0.0
  0
LINE
  5
18B
330
17
100
AcDbEntity
  8
COTA
100
AcDbLine
 10
131019.9
 20
27712.4
 30
0.0
 11
131019.9
 21
27624.4
 31
0.0
  0
LINE
  5
18C
330
17
100
AcDbEntity
  8
COTA
100
AcDbLine
 10
131206.4
 20
27682.7
 30
0.0
 11
131206.4
 21
27624.4
 31
0.0
  0
TEXT
  5
18D
330
17
100
AcDbEntity
  8
COTA
100
AcDbText
 10
131113.2
 20
27637.6
 30
0.0
 40
4.0
  1
186
100
AcDbText
  0
LINE
  5
18E
330
17
100
AcDbEntity
  8
COTA
100
AcDbLine
 10
130759.9
 20
27648.8
 30
0.0
 11
130852.9
 21
27648.8
 31
0.0
  0
LINE
  5
18F
330
17
100
AcDbEntity
  8
COTA
100
AcDbLine
 10
130759.9
 20
27712.4
 30
0.0
 11
130759.9
 21
27643.8
 31
0.0
  0
LINE
  5
190
330
17
100
AcDbEntity
  8
COTA
100
AcDbLine
 10
130852.9
 20
27712.4
 30
0.0
 11
130852.9
 21
27643.8
 31
0.0
  0
TEXT
  5
191
330
17
100
AcDbEntity
  8
COTA
100
AcDbText
 10
130806.4
 20
27657.1
 30
0.0
 40
4.0
  1
93
100
AcDbText
  0
LINE
  5
192
330
17
100
AcDbEntity
  8
COTA
100
AcDbLine
 10
130852.9
 20
27648.8
 30
0.0
 11
130876.4
 21
27648.8
 31
0.0
  0
LINE
  5
193
330
17
100
AcDbEntity
  8
COTA
100
AcDbLine
 10
130852.9
 20
27712.4
 30
0.0
 11
130852.9
 21
27643.8
 31
0.0
  0
LINE
  5
194
330
17
100
AcDbEntity
  8
COTA
100
AcDbLine
 10
130876.4
 20
27712.4
 30
0.0
 11
130876.4
 21
27643.8
 31
0.0
  0
TEXT
  5
195
330
17
100
AcDbEntity
  8
COTA
100
AcDbText
 10
130864.7
 20
27648.8
 30
0.0
 40
4.0
  1
24
100
AcDbText
  0
LINE
  5
196
330
17
100
AcDbEntity
  8
COTA
100
AcDbLine
 10
131122.8
 20
28172.1
 30
0.0
 11
131122.8
 21
28192.1
 31
0.0
  0
LINE
  5
197
330
17
100
AcDbEntity
  8
COTA
100
AcDbLine
 10
131166.2
 20
28192.1
 30
0.0
 11
131117.8
 21
28192.1
 31
0.0
  0
LINE
  5
198
330
17
100
AcDbEntity
  8
COTA
100
AcDbLine
 10
131166.2
 20
28172.1
 30
0.0
 11
131117.8
 21
28172.1
 31
0.0
  0
TEXT
  5
199
330
17
100
AcDbEntity
  8
COTA
100
AcDbText
 10
131117.3
 20
28182.1
 30
0.0
 40
4.0
  1
10
100
AcDbText
  0
LINE
  5
19A
330
17
100
AcDbEntity
  8
COTA
100
AcDbLine
 10
131122.8
 20
28088.1
 30
0.0
 11
131122.8
 21
28168.1
 31
0.0
  0
LINE
  5
19B
330
17
100
AcDbEntity
  8
COTA
100
AcDbLine
 10
131188.2
 20
28088.1
 30
0.0
 11
131117.8
 21
28088.1
 31
0.0
  0
LINE
  5
19C
330
17
100
AcDbEntity
  8
COTA
100
AcDbLine
 10
131166.2
 20
28168.1
 30
0.0
 11
131117.8
 21
28168.1
 31
0.0
  0
TEXT
  5
19D
330
17
100
AcDbEntity
  8
COTA
100
AcDbText
 10
131117.3
 20
28128.1
 30
0.0
 40
4.0
  1
40
100
AcDbText
  0
LINE
  5
19E
330
17
100
AcDbEntity
  8
Cota Seção (2x)
100
AcDbLine
 10
131264.2
 20
28096.1
 30
0.0
 11
131264.2
 21
28196.1
 31
0.0
  0
LINE
  5
19F
330
17
100
AcDbEntity
  8
Cota Seção (2x)
100
AcDbLine
 10
131226.2
 20
28096.1
 30
0.0
 11
131269.2
 21
28096.1
 31
0.0
  0
LINE
  5
1A0
330
17
100
AcDbEntity
  8
Cota Seção (2x)
100
AcDbLine
 10
131226.2
 20
28196.1
 30
0.0
 11
131269.2
 21
28196.1
 31
0.0
  0
TEXT
  5
1A1
330
17
100
AcDbEntity
  8
Cota Seção (2x)
100
AcDbText
 10
131264.2
 20
28152.5
 30
0.0
 40
4.0
  1
50
100
AcDbText
  0
LINE
  5
1A2
330
17
100
AcDbEntity
  8
COTA
100
AcDbLine
 10
131358.6
 20
28088.1
 30
0.0
 11
131358.6
 21
28168.1
 31
0.0
  0
LINE
  5
1A3
330
17
100
AcDbEntity
  8
COTA
100
AcDbLine
 10
131282.2
 20
28168.1
 30
0.0
 11
131363.6
 21
28168.1
 31
0.0
  0
LINE
  5
1A4
330
17
100
AcDbEntity
  8
COTA
100
AcDbLine
 10
131302.2
 20
28088.1
 30
0.0
 11
131363.6
 21
28088.1
 31
0.0
  0
TEXT
  5
1A5
330
17
100
AcDbEntity
  8
COTA
100
AcDbText
 10
131353.1
 20
28128.1
 30
0.0
 40
4.0
  1
40
100
AcDbText
  0
LINE
  5
1A6
330
17
100
AcDbEntity
  8
COTA
100
AcDbLine
 10
131160.7
 20
28088.1
 30
0.0
 11
131160.7
 21
28138.1
 31
0.0
  0
LINE
  5
1A7
330
17
100
AcDbEntity
  8
COTA
100
AcDbLine
 10
131173.2
 20
28138.1
 30
0.0
 11
131155.7
 21
28138.1
 31
0.0
  0
LINE
  5
1A8
330
17
100
AcDbEntity
  8
COTA
100
AcDbLine
 10
131180.1
 20
28088.1
 30
0.0
 11
131155.7
 21
28088.1
 31
0.0
  0
TEXT
  5
1A9
330
17
100
AcDbEntity
  8
COTA
100
AcDbText
 10
131155.2
 20
28113.1
 30
0.0
 40
4.0
  1
25
100
AcDbText
  0
LINE
  5
1AA
330
17
100
AcDbEntity
  8
COTA
100
AcDbLine
 10
131358.6
 20
28172.1
 30
0.0
 11
131358.6
 21
28196.1
 31
0.0
  0
LINE
  5
1AB
330
17
100
AcDbEntity
  8
COTA
100
AcDbLine
 10
131324.2
 20
28196.1
 30
0.0
 11
131363.6
 21
28196.1
 31
0.0
  0
LINE
  5
1AC
330
17
100
AcDbEntity
  8
COTA
100
AcDbLine
 10
131324.2
 20
28172.1
 30
0.0
 11
131363.6
 21
28172.1
 31
0.0
  0
TEXT
  5
1AD
330
17
100
AcDbEntity
  8
COTA
100
AcDbText
 10
131353.1
 20
28184.1
 30
0.0
 40
4.0
  1
12
100
AcDbText
  0
LINE
  5
1AE
330
17
100
AcDbEntity
  8
Cota Seção (2x)
100
AcDbLine
 10
131226.2
 20
28110.6
 30
0.0
 11
131264.2
 21
28110.6
 31
0.0
  0
LINE
  5
1AF
330
17
100
AcDbEntity
  8
Cota Seção (2x)
100
AcDbLine
 10
131264.2
 20
28096.1
 30
0.0
 11
131264.2
 21
28115.6
 31
0.0
  0
LINE
  5
1B0
330
17
100
AcDbEntity
  8
Cota Seção (2x)
100
AcDbLine
 10
131226.2
 20
28096.1
 30
0.0
 11
131226.2
 21
28115.6
 31
0.0
  0
TEXT
  5
1B1
330
17
100
AcDbEntity
  8
Cota Seção (2x)
100
AcDbText
 10
131245.2
 20
28122.1
 30
0.0
 40
4.0
  1
19
100
AcDbText
  0
LINE
  5
1B2
330
17
100
AcDbEntity
  8
COTA
100
AcDbLine
 10
131166.2
 20
28196.1
 30
0.0
 11
131222.2
 21
28196.1
 31
0.0
  0
LINE
  5
1B3
330
17
100
AcDbEntity
  8
COTA
100
AcDbLine
 10
131166.2
 20
28192.1
 30
0.0
 11
131166.2
 21
28201.1
 31
0.0
  0
LINE
  5
1B4
330
17
100
AcDbEntity
  8
COTA
100
AcDbLine
 10
131222.2
 20
28196.1
 30
0.0
 11
131222.2
 21
28201.1
 31
0.0
  0
TEXT
  5
1B5
330
17
100
AcDbEntity
  8
COTA
100
AcDbText
 10
131117.3
 20
28205.4
 30
0.0
 40
4.0
  1
2
100
AcDbText
  0
LINE
  5
1B6
330
17
100
AcDbEntity
  8
COTA
100
AcDbLine
 10
131241.4
 20
28028.1
 30
0.0
 11
131241.4
 21
28088.1
 31
0.0
  0
LINE
  5
1B7
330
17
100
AcDbEntity
  8
COTA
100
AcDbLine
 10
131222.2
 20
28028.1
 30
0.0
 11
131246.4
 21
28028.1
 31
0.0
  0
LINE
  5
1B8
330
17
100
AcDbEntity
  8
COTA
100
AcDbLine
 10
131222.2
 20
28088.1
 30
0.0
 11
131246.4
 21
28088.1
 31
0.0
  0
TEXT
  5
1B9
330
17
100
AcDbEntity
  8
COTA
100
AcDbText
 10
131235.9
 20
28058.1
 30
0.0
 40
4.0
  1
30
100
AcDbText
  0
LINE
  5
1BA
330
17
100
AcDbEntity
  8
COTA
100
AcDbLine
 10
131262.4
 20
28028.1
 30
0.0
 11
131262.4
 21
28088.1
 31
0.0
  0
LINE
  5
1BB
330
17
100
AcDbEntity
  8
COTA
100
AcDbLine
 10
131268.2
 20
28028.1
 30
0.0
 11
131257.4
 21
28028.1
 31
0.0
  0
LINE
  5
1BC
330
17
100
AcDbEntity
  8
COTA
100
AcDbLine
 10
131268.2
 20
28088.1
 30
0.0
 11
131257.4
 21
28088.1
 31
0.0
  0
TEXT
  5
1BD
330
17
100
AcDbEntity
  8
COTA
100
AcDbText
 10
131256.9
 20
28058.1
 30
0.0
 40
4.0
  1
30
100
AcDbText
  0
LINE
  5
1BE
330
17
100
AcDbEntity
  8
COTA
100
AcDbLine
 10
131130.5
 20
27023.3
 30
0.0
 11
131130.5
 21
27047.3
 31
0.0
  0
LINE
  5
1BF
330
17
100
AcDbEntity
  8
COTA
100
AcDbLine
 10
131173.8
 20
27047.3
 30
0.0
 11
131125.5
 21
27047.3
 31
0.0
  0
LINE
  5
1C0
330
17
100
AcDbEntity
  8
COTA
100
AcDbLine
 10
131173.8
 20
27023.3
 30
0.0
 11
131125.5
 21
27023.3
 31
0.0
  0
TEXT
  5
1C1
330
17
100
AcDbEntity
  8
COTA
100
AcDbText
 10
131125.0
 20
27035.3
 30
0.0
 40
4.0
  1
12
100
AcDbText
  0
LINE
  5
1C2
330
17
100
AcDbEntity
  8
Cota Seção (2x)
100
AcDbLine
 10
131271.8
 20
26947.3
 30
0.0
 11
131271.8
 21
27047.3
 31
0.0
  0
LINE
  5
1C3
330
17
100
AcDbEntity
  8
Cota Seção (2x)
100
AcDbLine
 10
131233.8
 20
26947.3
 30
0.0
 11
131276.8
 21
26947.3
 31
0.0
  0
LINE
  5
1C4
330
17
100
AcDbEntity
  8
Cota Seção (2x)
100
AcDbLine
 10
131233.8
 20
27047.3
 30
0.0
 11
131276.8
 21
27047.3
 31
0.0
  0
TEXT
  5
1C5
330
17
100
AcDbEntity
  8
Cota Seção (2x)
100
AcDbText
 10
131271.8
 20
26999.8
 30
0.0
 40
4.0
  1
50
100
AcDbText
  0
LINE
  5
1C6
330
17
100
AcDbEntity
  8
COTA
100
AcDbLine
 10
131366.3
 20
27023.3
 30
0.0
 11
131366.3
 21
27047.3
 31
0.0
  0
LINE
  5
1C7
330
17
100
AcDbEntity
  8
COTA
100
AcDbLine
 10
131331.8
 20
27047.3
 30
0.0
 11
131371.3
 21
27047.3
 31
0.0
  0
LINE
  5
1C8
330
17
100
AcDbEntity
  8
COTA
100
AcDbLine
 10
131331.8
 20
27023.3
 30
0.0
 11
131371.3
 21
27023.3
 31
0.0
  0
TEXT
  5
1C9
330
17
100
AcDbEntity
  8
COTA
100
AcDbText
 10
131360.8
 20
27035.3
 30
0.0
 40
4.0
  1
12
100
AcDbText
  0
LINE
  5
1CA
330
17
100
AcDbEntity
  8
COTA
100
AcDbLine
 10
131478.4
 20
27019.3
 30
0.0
 11
131478.4
 21
27039.3
 31
0.0
  0
LINE
  5
1CB
330
17
100
AcDbEntity
  8
COTA
100
AcDbLine
 10
131521.8
 20
27039.3
 30
0.0
 11
131473.4
 21
27039.3
 31
0.0
  0
LINE
  5
1CC
330
17
100
AcDbEntity
  8
COTA
100
AcDbLine
 10
131521.8
 20
27019.3
 30
0.0
 11
131473.4
 21
27019.3
 31
0.0
  0
TEXT
  5
1CD
330
17
100
AcDbEntity
  8
COTA
100
AcDbText
 10
131472.9
 20
27029.3
 30
0.0
 40
4.0
  1
10
100
AcDbText
  0
LINE
  5
1CE
330
17
100
AcDbEntity
  8
Cota Seção (2x)
100
AcDbLine
 10
131619.8
 20
26943.3
 30
0.0
 11
131619.8
 21
27039.3
 31
0.0
  0
LINE
  5
1CF
330
17
100
AcDbEntity
  8
Cota Seção (2x)
100
AcDbLine
 10
131581.8
 20
26943.3
 30
0.0
 11
131624.8
 21
26943.3
 31
0.0
  0
LINE
  5
1D0
330
17
100
AcDbEntity
  8
Cota Seção (2x)
100
AcDbLine
 10
131581.8
 20
27039.3
 30
0.0
 11
131624.8
 21
27039.3
 31
0.0
  0
TEXT
  5
1D1
330
17
100
AcDbEntity
  8
Cota Seção (2x)
100
AcDbText
 10
131619.8
 20
26987.8
 30
0.0
 40
4.0
  1
48
100
AcDbText
  0
LINE
  5
1D2
330
17
100
AcDbEntity
  8
COTA
100
AcDbLine
 10
131714.2
 20
27019.3
 30
0.0
 11
131714.2
 21
27039.3
 31
0.0
  0
LINE
  5
1D3
330
17
100
AcDbEntity
  8
COTA
100
AcDbLine
 10
131679.8
 20
27039.3
 30
0.0
 11
131719.2
 21
27039.3
 31
0.0
  0
LINE
  5
1D4
330
17
100
AcDbEntity
  8
COTA
100
AcDbLine
 10
131679.8
 20
27019.3
 30
0.0
 11
131719.2
 21
27019.3
 31
0.0
  0
TEXT
  5
1D5
330
17
100
AcDbEntity
  8
COTA
100
AcDbText
 10
131708.7
 20
27029.3
 30
0.0
 40
4.0
  1
10
100
AcDbText
  0
LINE
  5
1D6
330
17
100
AcDbEntity
  8
Cota Seção (2x)
100
AcDbLine
 10
131892.7
 20
27051.6
 30
0.0
 11
131892.7
 21
27061.6
 31
0.0
  0
LINE
  5
1D7
330
17
100
AcDbEntity
  8
Cota Seção (2x)
100
AcDbLine
 10
131919.1
 20
27061.6
 30
0.0
 11
131887.7
 21
27061.6
 31
0.0
  0
LINE
  5
1D8
330
17
100
AcDbEntity
  8
Cota Seção (2x)
100
AcDbLine
 10
131919.1
 20
27051.6
 30
0.0
 11
131887.7
 21
27051.6
 31
0.0
  0
TEXT
  5
1D9
330
17
100
AcDbEntity
  8
Cota Seção (2x)
100
AcDbText
 10
131892.7
 20
27056.6
 30
0.0
 40
4.0
  1
5
100
AcDbText
  0
LINE
  5
1DA
330
17
100
AcDbEntity
  8
SARR_2.2x7
100
AcDbLine
 10
131661.4
 20
27984.6
 30
0.0
 11
131713.4
 21
27984.6
 31
0.0
  0
LINE
  5
1DB
330
17
100
AcDbEntity
  8
SARR_2.2x7
100
AcDbLine
 10
131432.4
 20
27984.6
 30
0.0
 11
131661.4
 21
27984.6
 31
0.0
  0
LINE
  5
1DC
330
17
100
AcDbEntity
  8
SARR_2.2x7
100
AcDbLine
 10
131721.4
 20
27946.8
 30
0.0
 11
131721.4
 21
27986.8
 31
0.0
  0
LINE
  5
1DD
330
17
100
AcDbEntity
  8
SARR_2.2x7
100
AcDbLine
 10
131424.4
 20
27946.8
 30
0.0
 11
131424.4
 21
27986.8
 31
0.0
  0
LINE
  5
1DE
330
17
100
AcDbEntity
  8
SARR_2.2x7
100
AcDbLine
 10
131331.4
 20
27984.6
 30
0.0
 11
131383.4
 21
27984.6
 31
0.0
  0
LINE
  5
1DF
330
17
100
AcDbEntity
  8
SARR_2.2x7
100
AcDbLine
 10
131102.4
 20
27984.6
 30
0.0
 11
131331.4
 21
27984.6
 31
0.0
  0
LINE
  5
1E0
330
17
100
AcDbEntity
  8
SARR_2.2x7
100
AcDbLine
 10
131391.4
 20
27946.8
 30
0.0
 11
131391.4
 21
27986.8
 31
0.0
  0
LINE
  5
1E1
330
17
100
AcDbEntity
  8
SARR_2.2x7
100
AcDbLine
 10
131094.4
 20
27946.8
 30
0.0
 11
131094.4
 21
27986.8
 31
0.0
  0
LINE
  5
1E2
330
17
100
AcDbEntity
  8
SARR_2.2x7
100
AcDbLine
 10
131003.9
 20
27984.6
 30
0.0
 11
131053.4
 21
27984.6
 31
0.0
  0
LINE
  5
1E3
330
17
100
AcDbEntity
  8
SARR_2.2x7
100
AcDbLine
 10
130774.9
 20
27984.6
 30
0.0
 11
131003.9
 21
27984.6
 31
0.0
  0
LINE
  5
1E4
330
17
100
AcDbEntity
  8
SARR_2.2x7
100
AcDbLine
 10
131061.4
 20
27946.8
 30
0.0
 11
131061.4
 21
27986.8
 31
0.0
  0
LINE
  5
1E5
330
17
100
AcDbEntity
  8
SARR_2.2x7
100
AcDbLine
 10
130766.9
 20
27946.8
 30
0.0
 11
130766.9
 21
27986.8
 31
0.0
  0
LINE
  5
1E6
330
17
100
AcDbEntity
  8
SARR_2.2x7
100
AcDbLine
 10
131762.4
 20
27984.6
 30
0.0
 11
131869.4
 21
27984.6
 31
0.0
  0
LINE
  5
1E7
330
17
100
AcDbEntity
  8
SARR_2.2x7
100
AcDbLine
 10
131869.4
 20
27984.6
 30
0.0
 11
131970.9
 21
27984.6
 31
0.0
  0
LINE
  5
1E8
330
17
100
AcDbEntity
  8
SARR_2.2x7
100
AcDbLine
 10
131754.4
 20
27946.8
 30
0.0
 11
131754.4
 21
27986.8
 31
0.0
  0
LINE
  5
1E9
330
17
100
AcDbEntity
  8
SARR_2.2x7
100
AcDbLine
 10
131978.9
 20
27946.8
 30
0.0
 11
131978.9
 21
27986.8
 31
0.0
  0
LINE
  5
1EA
330
17
100
AcDbEntity
  8
SARR_2.2x7
100
AcDbLine
 10
131034.9
 20
27750.2
 30
0.0
 11
131206.4
 21
27750.2
 31
0.0
  0
LINE
  5
1EB
330
17
100
AcDbEntity
  8
SARR_2.2x7
100
AcDbLine
 10
131206.4
 20
27750.2
 30
0.0
 11
131313.4
 21
27750.2
 31
0.0
  0
LINE
  5
1EC
330
17
100
AcDbEntity
  8
SARR_2.2x7
100
AcDbLine
 10
131026.9
 20
27712.4
 30
0.0
 11
131026.9
 21
27752.4
 31
0.0
  0
LINE
  5
1ED
330
17
100
AcDbEntity
  8
SARR_2.2x7
100
AcDbLine
 10
131321.4
 20
27712.4
 30
0.0
 11
131321.4
 21
27752.4
 31
0.0
  0
LINE
  5
1EE
330
17
100
AcDbEntity
  8
SARR_2.2x7
100
AcDbLine
 10
131362.4
 20
27750.2
 30
0.0
 11
131529.9
 21
27750.2
 31
0.0
  0
LINE
  5
1EF
330
17
100
AcDbEntity
  8
SARR_2.2x7
100
AcDbLine
 10
131529.9
 20
27750.2
 30
0.0
 11
131636.9
 21
27750.2
 31
0.0
  0
LINE
  5
1F0
330
17
100
AcDbEntity
  8
SARR_2.2x7
100
AcDbLine
 10
131354.4
 20
27712.4
 30
0.0
 11
131354.4
 21
27752.4
 31
0.0
  0
LINE
  5
1F1
330
17
100
AcDbEntity
  8
SARR_2.2x7
100
AcDbLine
 10
131644.9
 20
27712.4
 30
0.0
 11
131644.9
 21
27752.4
 31
0.0
  0
LINE
  5
1F2
330
17
100
AcDbEntity
  8
SARR_2.2x7
100
AcDbLine
 10
131692.4
 20
27750.2
 30
0.0
 11
131854.9
 21
27750.2
 31
0.0
  0
LINE
  5
1F3
330
17
100
AcDbEntity
  8
SARR_2.2x7
100
AcDbLine
 10
131854.9
 20
27750.2
 30
0.0
 11
131961.9
 21
27750.2
 31
0.0
  0
LINE
  5
1F4
330
17
100
AcDbEntity
  8
SARR_2.2x7
100
AcDbLine
 10
131684.4
 20
27712.4
 30
0.0
 11
131684.4
 21
27752.4
 31
0.0
  0
LINE
  5
1F5
330
17
100
AcDbEntity
  8
SARR_2.2x7
100
AcDbLine
 10
131969.9
 20
27712.4
 30
0.0
 11
131969.9
 21
27752.4
 31
0.0
  0
LINE
  5
1F6
330
17
100
AcDbEntity
  8
SARR_2.2x7
100
AcDbLine
 10
130876.4
 20
27750.2
 30
0.0
 11
130983.4
 21
27750.2
 31
0.0
  0
LINE
  5
1F7
330
17
100
AcDbEntity
  8
SARR_2.2x7
100
AcDbLine
 10
130774.9
 20
27750.2
 30
0.0
 11
130876.4
 21
27750.2
 31
0.0
  0
LINE
  5
1F8
330
17
100
AcDbEntity
  8
SARR_2.2x7
100
AcDbLine
 10
130991.4
 20
27712.4
 30
0.0
 11
130991.4
 21
27752.4
 31
0.0
  0
LINE
  5
1F9
330
17
100
AcDbEntity
  8
SARR_2.2x7
100
AcDbLine
 10
130766.9
 20
27712.4
 30
0.0
 11
130766.9
 21
27752.4
 31
0.0
  0
ENDSEC
  0
SECTION
  2
OBJECTS
  0
DICTIONARY
  5
A
330
0
100
AcDbDictionary
281
1
  3
ACAD_COLOR
350
B
  3
ACAD_GROUP
350
C
  3
ACAD_LAYOUT
350
D
  3
ACAD_MATERIAL
350
E
  3
ACAD_MLEADERSTYLE
350
F
  3
ACAD_MLINESTYLE
350
10
  3
ACAD_PLOTSETTINGS
350
11
  3
ACAD_PLOTSTYLENAME
350
12
  3
ACAD_SCALELIST
350
14
  3
ACAD_TABLESTYLE
350
15
  3
ACAD_VISUALSTYLE
350
16
  3
EZDXF_META
350
2D
  0
DICTIONARY
  5
B
330
A
100
AcDbDictionary
281
1
  0
DICTIONARY
  5
C
330
A
100
AcDbDictionary
281
1
  0
DICTIONARY
  5
D
330
A
100
AcDbDictionary
281
1
  3
Model
350
1A
  3
Layout1
350
1E
  0
DICTIONARY
  5
E
330
A
100
AcDbDictionary
281
1
  3
ByBlock
350
1F
  3
ByLayer
350
20
  3
Global
350
21
  0
DICTIONARY
  5
F
330
A
100
AcDbDictionary
281
1
  3
Standard
350
2C
  0
DICTIONARY
  5
10
330
A
100
AcDbDictionary
281
1
  3
Standard
350
22
  0
DICTIONARY
  5
11
330
A
100
AcDbDictionary
281
1
  0
ACDBDICTIONARYWDFLT
  5
12
330
A
100
AcDbDictionary
281
1
  3
Normal
350
13
100
AcDbDictionaryWithDefault
340
13
  0
ACDBPLACEHOLDER
  5
13
330
12
  0
DICTIONARY
  5
14
330
A
100
AcDbDictionary
281
1
  0
DICTIONARY
  5
15
330
A
100
AcDbDictionary
281
1
  0
DICTIONARY
  5
16
330
A
100
AcDbDictionary
281
1
  0
LAYOUT
  5
1A
330
D
100
AcDbPlotSettings
  1

  4
A3
  6

 40
7.5
 41
20.0
 42
7.5
 43
20.0
 44
420.0
 45
297.0
 46
0.0
 47
0.0
 48
0.0
 49
0.0
140
0.0
141
0.0
142
1.0
143
1.0
 70
1024
 72
1
 73
0
 74
5
  7

 75
16
 76
0
 77
2
 78
300
147
1.0
148
0.0
149
0.0
100
AcDbLayout
  1
Model
 70
1
 71
0
 10
0.0
 20
0.0
 11
420.0
 21
297.0
 12
0.0
 22
0.0
 32
0.0
 14
1e+20
 24
1e+20
 34
1e+20
 15
-1e+20
 25
-1e+20
 35
-1e+20
146
0.0
 13
0.0
 23
0.0
 33
0.0
 16
1.0
 26
0.0
 36
0.0
 17
0.0
 27
1.0
 37
0.0
 76
1
330
17
  0
LAYOUT
  5
1E
330
D
100
AcDbPlotSettings
  1

  4
A3
  6

 40
7.5
 41
20.0
 42
7.5
 43
20.0
 44
420.0
 45
297.0
 46
0.0
 47
0.0
 48
0.0
 49
0.0
140
0.0
141
0.0
142
1.0
143
1.0
 70
0
 72
1
 73
0
 74
5
  7

 75
16
 76
0
 77
2
 78
300
147
1.0
148
0.0
149
0.0
100
AcDbLayout
  1
Layout1
 70
1
 71
1
 10
0.0
 20
0.0
 11
420.0
 21
297.0
 12
0.0
 22
0.0
 32
0.0
 14
1e+20
 24
1e+20
 34
1e+20
 15
-1e+20
 25
-1e+20
 35
-1e+20
146
0.0
 13
0.0
 23
0.0
 33
0.0
 16
1.0
 26
0.0
 36
0.0
 17
0.0
 27
1.0
 37
0.0
 76
1
330
1B
  0
MATERIAL
  5
1F
102
{ACAD_REACTORS
330
E
102
}
330
E
100
AcDbMaterial
  1
ByBlock
  2

 70
0
 40
1.0
 71
1
 41
1.0
 91
-1023410177
 42
1.0
 72
1
  3

 73
1
 74
1
 75
1
 44
0.5
 73
0
 45
1.0
 46
1.0
 77
1
  4

 78
1
 79
1
170
1
 48
1.0
171
1
  6

172
1
173
1
174
1
140
1.0
141
1.0
175
1
  7

176
1
177
1
178
1
143
1.0
179
1
  8

270
1
271
1
272
1
145
1.0
146
1.0
273
1
  9

274
1
275
1
276
1
 42
1.0
 72
1
  3

 73
1
 74
1
 75
1
 94
63
  0
MATERIAL
  5
20
102
{ACAD_REACTORS
330
E
102
}
330
E
100
AcDbMaterial
  1
ByLayer
  2

 70
0
 40
1.0
 71
1
 41
1.0
 91
-1023410177
 42
1.0
 72
1
  3

 73
1
 74
1
 75
1
 44
0.5
 73
0
 45
1.0
 46
1.0
 77
1
  4

 78
1
 79
1
170
1
 48
1.0
171
1
  6

172
1
173
1
174
1
140
1.0
141
1.0
175
1
  7

176
1
177
1
178
1
143
1.0
179
1
  8

270
1
271
1
272
1
145
1.0
146
1.0
273
1
  9

274
1
275
1
276
1
 42
1.0
 72
1
  3

 73
1
 74
1
 75
1
 94
63
  0
MATERIAL
  5
21
102
{ACAD_REACTORS
330
E
102
}
330
E
100
AcDbMaterial
  1
Global
  2

 70
0
 40
1.0
 71
1
 41
1.0
 91
-1023410177
 42
1.0
 72
1
  3

 73
1
 74
1
 75
1
 44
0.5
 73
0
 45
1.0
 46
1.0
 77
1
  4

 78
1
 79
1
170
1
 48
1.0
171
1
  6

172
1
173
1
174
1
140
1.0
141
1.0
175
1
  7

176
1
177
1
178
1
143
1.0
179
1
  8

270
1
271
1
272
1
145
1.0
146
1.0
273
1
  9

274
1
275
1
276
1
 42
1.0
 72
1
  3

 73
1
 74
1
 75
1
 94
63
  0
MLINESTYLE
  5
22
102
{ACAD_REACTORS
330
10
102
}
330
10
100
AcDbMlineStyle
  2
Standard
 70
0
  3

 62
256
 51
90.0
 52
90.0
 71
2
 49
0.5
 62
256
  6
BYLAYER
 49
-0.5
 62
256
  6
BYLAYER
  0
MLEADERSTYLE
  5
2C
102
{ACAD_REACTORS
330
F
102
}
330
F
100
AcDbMLeaderStyle
179
2
170
2
171
1
172
0
 90
2
 40
0.0
 41
0.0
173
1
 91
-1056964608
 92
-2
290
1
 42
2.0
291
1
 43
8.0
  3
Standard
 44
4.0
300

342
29
174
1
175
1
176
0
178
1
 93
-1056964608
 45
4.0
292
0
297
0
 46
4.0
 94
-1056964608
 47
1.0
 49
1.0
140
1.0
294
1
141
0.0
177
0
142
1.0
295
0
296
0
143
3.75
271
0
272
9
273
9
  0
DICTIONARY
  5
2D
330
A
100
AcDbDictionary
280
1
281
1
  3
CREATED_BY_EZDXF
350
2E
  3
WRITTEN_BY_EZDXF
350
1FC
  0
DICTIONARYVAR
  5
2E
330
2D
100
DictionaryVariables
280
0
  1
1.4.3 @ 2026-03-16T15:45:43.113336+00:00
  0
DICTIONARYVAR
  5
1FC
330
2D
100
DictionaryVariables
280
0
  1
1.4.3 @ 2026-03-16T15:45:43.127060+00:00
  0
ENDSEC
  0
EOF
