  0
SECTION
  2
HEADER
  9
$ACADVER
  1
AC1024
  9
$ACADMAINTVER
 70
6
  9
$DWGCODEPAGE
  3
ANSI_1252
  9
$LASTSAVEDBY
  1
ezdxf
  9
$INSBASE
 10
0.0
 20
0.0
 30
0.0
  9
$EXTMIN
 10
1e+20
 20
1e+20
 30
1e+20
  9
$EXTMAX
 10
-1e+20
 20
-1e+20
 30
-1e+20
  9
$LIMMIN
 10
0.0
 20
0.0
  9
$LIMMAX
 10
420.0
 20
297.0
  9
$ORTHOMODE
 70
0
  9
$REGENMODE
 70
1
  9
$FILLMODE
 70
1
  9
$QTEXTMODE
 70
0
  9
$MIRRTEXT
 70
1
  9
$LTSCALE
 40
1.0
  9
$ATTMODE
 70
1
  9
$TEXTSIZE
 40
2.5
  9
$TRACEWID
 40
1.0
  9
$TEXTSTYLE
  7
Standard
  9
$CLAYER
  8
0
  9
$CELTYPE
  6
ByLayer
  9
$CECOLOR
 62
256
  9
$CELTSCALE
 40
1.0
  9
$DISPSILH
 70
0
  9
$DIMSCALE
 40
1.0
  9
$DIMASZ
 40
2.5
  9
$DIMEXO
 40
0.625
  9
$DIMDLI
 40
3.75
  9
$DIMRND
 40
0.0
  9
$DIMDLE
 40
0.0
  9
$DIMEXE
 40
1.25
  9
$DIMTP
 40
0.0
  9
$DIMTM
 40
0.0
  9
$DIMTXT
 40
2.5
  9
$DIMCEN
 40
2.5
  9
$DIMTSZ
 40
0.0
  9
$DIMTOL
 70
0
  9
$DIMLIM
 70
0
  9
$DIMTIH
 70
0
  9
$DIMTOH
 70
0
  9
$DIMSE1
 70
0
  9
$DIMSE2
 70
0
  9
$DIMTAD
 70
1
  9
$DIMZIN
 70
8
  9
$DIMBLK
  1

  9
$DIMASO
 70
1
  9
$DIMSHO
 70
1
  9
$DIMPOST
  1

  9
$DIMAPOST
  1

  9
$DIMALT
 70
0
  9
$DIMALTD
 70
3
  9
$DIMALTF
 40
0.03937007874
  9
$DIMLFAC
 40
1.0
  9
$DIMTOFL
 70
1
  9
$DIMTVP
 40
0.0
  9
$DIMTIX
 70
0
  9
$DIMSOXD
 70
0
  9
$DIMSAH
 70
0
  9
$DIMBLK1
  1

  9
$DIMBLK2
  1

  9
$DIMSTYLE
  2
ISO-25
  9
$DIMCLRD
 70
0
  9
$DIMCLRE
 70
0
  9
$DIMCLRT
 70
0
  9
$DIMTFAC
 40
1.0
  9
$DIMGAP
 40
0.625
  9
$DIMJUST
 70
0
  9
$DIMSD1
 70
0
  9
$DIMSD2
 70
0
  9
$DIMTOLJ
 70
0
  9
$DIMTZIN
 70
8
  9
$DIMALTZ
 70
0
  9
$DIMALTTZ
 70
0
  9
$DIMUPT
 70
0
  9
$DIMDEC
 70
2
  9
$DIMTDEC
 70
2
  9
$DIMALTU
 70
2
  9
$DIMALTTD
 70
3
  9
$DIMTXSTY
  7
Standard
  9
$DIMAUNIT
 70
0
  9
$DIMADEC
 70
0
  9
$DIMALTRND
 40
0.0
  9
$DIMAZIN
 70
0
  9
$DIMDSEP
 70
44
  9
$DIMATFIT
 70
3
  9
$DIMFRAC
 70
0
  9
$DIMLDRBLK
  1

  9
$DIMLUNIT
 70
2
  9
$DIMLWD
 70
-2
  9
$DIMLWE
 70
-2
  9
$DIMTMOVE
 70
0
  9
$DIMFXL
 40
1.0
  9
$DIMFXLON
 70
0
  9
$DIMJOGANG
 40
0.785398163397
  9
$DIMTFILL
 70
0
  9
$DIMTFILLCLR
 70
0
  9
$DIMARCSYM
 70
0
  9
$DIMLTYPE
  6

  9
$DIMLTEX1
  6

  9
$DIMLTEX2
  6

  9
$DIMTXTDIRECTION
 70
0
  9
$LUNITS
 70
2
  9
$LUPREC
 70
4
  9
$SKETCHINC
 40
1.0
  9
$FILLETRAD
 40
10.0
  9
$AUNITS
 70
0
  9
$AUPREC
 70
2
  9
$MENU
  1
.
  9
$ELEVATION
 40
0.0
  9
$PELEVATION
 40
0.0
  9
$THICKNESS
 40
0.0
  9
$LIMCHECK
 70
0
  9
$CHAMFERA
 40
0.0
  9
$CHAMFERB
 40
0.0
  9
$CHAMFERC
 40
0.0
  9
$CHAMFERD
 40
0.0
  9
$SKPOLY
 70
0
  9
$TDCREATE
 40
2461202.579664352
  9
$TDUCREATE
 40
2458532.153996898
  9
$TDUPDATE
 40
2461202.579664352
  9
$TDUUPDATE
 40
2458532.1544311
  9
$TDINDWG
 40
0.0
  9
$TDUSRTIMER
 40
0.0
  9
$USRTIMER
 70
1
  9
$ANGBASE
 50
0.0
  9
$ANGDIR
 70
0
  9
$PDMODE
 70
0
  9
$PDSIZE
 40
0.0
  9
$PLINEWID
 40
0.0
  9
$SPLFRAME
 70
0
  9
$SPLINETYPE
 70
6
  9
$SPLINESEGS
 70
8
  9
$HANDSEED
  5
11E
  9
$SURFTAB1
 70
6
  9
$SURFTAB2
 70
6
  9
$SURFTYPE
 70
6
  9
$SURFU
 70
6
  9
$SURFV
 70
6
  9
$UCSBASE
  2

  9
$UCSNAME
  2

  9
$UCSORG
 10
0.0
 20
0.0
 30
0.0
  9
$UCSXDIR
 10
1.0
 20
0.0
 30
0.0
  9
$UCSYDIR
 10
0.0
 20
1.0
 30
0.0
  9
$UCSORTHOREF
  2

  9
$UCSORTHOVIEW
 70
0
  9
$UCSORGTOP
 10
0.0
 20
0.0
 30
0.0
  9
$UCSORGBOTTOM
 10
0.0
 20
0.0
 30
0.0
  9
$UCSORGLEFT
 10
0.0
 20
0.0
 30
0.0
  9
$UCSORGRIGHT
 10
0.0
 20
0.0
 30
0.0
  9
$UCSORGFRONT
 10
0.0
 20
0.0
 30
0.0
  9
$UCSORGBACK
 10
0.0
 20
0.0
 30
0.0
  9
$PUCSBASE
  2

  9
$PUCSNAME
  2

  9
$PUCSORG
 10
0.0
 20
0.0
 30
0.0
  9
$PUCSXDIR
 10
1.0
 20
0.0
 30
0.0
  9
$PUCSYDIR
 10
0.0
 20
1.0
 30
0.0
  9
$PUCSORTHOREF
  2

  9
$PUCSORTHOVIEW
 70
0
  9
$PUCSORGTOP
 10
0.0
 20
0.0
 30
0.0
  9
$PUCSORGBOTTOM
 10
0.0
 20
0.0
 30
0.0
  9
$PUCSORGLEFT
 10
0.0
 20
0.0
 30
0.0
  9
$PUCSORGRIGHT
 10
0.0
 20
0.0
 30
0.0
  9
$PUCSORGFRONT
 10
0.0
 20
0.0
 30
0.0
  9
$PUCSORGBACK
 10
0.0
 20
0.0
 30
0.0
  9
$USERI1
 70
0
  9
$USERI2
 70
0
  9
$USERI3
 70
0
  9
$USERI4
 70
0
  9
$USERI5
 70
0
  9
$USERR1
 40
0.0
  9
$USERR2
 40
0.0
  9
$USERR3
 40
0.0
  9
$USERR4
 40
0.0
  9
$USERR5
 40
0.0
  9
$WORLDVIEW
 70
1
  9
$SHADEDGE
 70
3
  9
$SHADEDIF
 70
70
  9
$TILEMODE
 70
1
  9
$MAXACTVP
 70
64
  9
$PINSBASE
 10
0.0
 20
0.0
 30
0.0
  9
$PLIMCHECK
 70
0
  9
$PEXTMIN
 10
1e+20
 20
1e+20
 30
1e+20
  9
$PEXTMAX
 10
-1e+20
 20
-1e+20
 30
-1e+20
  9
$PLIMMIN
 10
0.0
 20
0.0
  9
$PLIMMAX
 10
420.0
 20
297.0
  9
$UNITMODE
 70
0
  9
$VISRETAIN
 70
1
  9
$PLINEGEN
 70
0
  9
$PSLTSCALE
 70
1
  9
$TREEDEPTH
 70
3020
  9
$CMLSTYLE
  2
Standard
  9
$CMLJUST
 70
0
  9
$CMLSCALE
 40
20.0
  9
$PROXYGRAPHICS
 70
1
  9
$MEASUREMENT
 70
1
  9
$CELWEIGHT
370
-1
  9
$ENDCAPS
280
0
  9
$JOINSTYLE
280
0
  9
$LWDISPLAY
290
0
  9
$INSUNITS
 70
6
  9
$HYPERLINKBASE
  1

  9
$STYLESHEET
  1

  9
$XEDIT
290
1
  9
$CEPSNTYPE
380
0
  9
$PSTYLEMODE
290
1
  9
$FINGERPRINTGUID
  2
{8E1E4E11-1AA1-421C-9475-35D27CFE176B}
  9
$VERSIONGUID
  2
{C03B7B28-7732-45BF-9534-A0CCE7EF5BD2}
  9
$EXTNAMES
290
1
  9
$PSVPSCALE
 40
0.0
  9
$OLESTARTUP
290
0
  9
$SORTENTS
280
127
  9
$INDEXCTL
280
0
  9
$HIDETEXT
280
1
  9
$XCLIPFRAME
280
1
  9
$HALOGAP
280
0
  9
$OBSCOLOR
 70
257
  9
$OBSLTYPE
280
0
  9
$INTERSECTIONDISPLAY
280
0
  9
$INTERSECTIONCOLOR
 70
257
  9
$DIMASSOC
280
2
  9
$PROJECTNAME
  1

  9
$CAMERADISPLAY
290
0
  9
$LENSLENGTH
 40
50.0
  9
$CAMERAHEIGHT
 40
0.0
  9
$STEPSPERSEC
 40
24.0
  9
$STEPSIZE
 40
100.0
  9
$3DDWFPREC
 40
2.0
  9
$PSOLWIDTH
 40
0.005
  9
$PSOLHEIGHT
 40
0.08
  9
$LOFTANG1
 40
1.570796326795
  9
$LOFTANG2
 40
1.570796326795
  9
$LOFTMAG1
 40
0.0
  9
$LOFTMAG2
 40
0.0
  9
$LOFTPARAM
 70
7
  9
$LOFTNORMALS
280
1
  9
$LATITUDE
 40
37.795
  9
$LONGITUDE
 40
-122.394
  9
$NORTHDIRECTION
 40
0.0
  9
$TIMEZONE
 70
-8000
  9
$LIGHTGLYPHDISPLAY
280
1
  9
$TILEMODELIGHTSYNCH
280
1
  9
$CMATERIAL
347
20
  9
$SOLIDHIST
280
0
  9
$SHOWHIST
280
1
  9
$DWFFRAME
280
2
  9
$DGNFRAME
280
2
  9
$REALWORLDSCALE
290
1
  9
$INTERFERECOLOR
 62
256
  9
$CSHADOW
280
0
  9
$SHADOWPLANELOCATION
 40
0.0
  0
ENDSEC
  0
SECTION
  2
CLASSES
  0
CLASS
  1
ACDBDICTIONARYWDFLT
  2
AcDbDictionaryWithDefault
  3
ObjectDBX Classes
 90
0
 91
0
280
0
281
0
  0
CLASS
  1
SUN
  2
AcDbSun
  3
SCENEOE
 90
1153
 91
0
280
0
281
0
  0
CLASS
  1
VISUALSTYLE
  2
AcDbVisualStyle
  3
ObjectDBX Classes
 90
4095
 91
0
280
0
281
0
  0
CLASS
  1
MATERIAL
  2
AcDbMaterial
  3
ObjectDBX Classes
 90
1153
 91
0
280
0
281
0
  0
CLASS
  1
SCALE
  2
AcDbScale
  3
ObjectDBX Classes
 90
1153
 91
0
280
0
281
0
  0
CLASS
  1
TABLESTYLE
  2
AcDbTableStyle
  3
ObjectDBX Classes
 90
4095
 91
0
280
0
281
0
  0
CLASS
  1
MLEADERSTYLE
  2
AcDbMLeaderStyle
  3
ACDB_MLEADERSTYLE_CLASS
 90
4095
 91
0
280
0
281
0
  0
CLASS
  1
DICTIONARYVAR
  2
AcDbDictionaryVar
  3
ObjectDBX Classes
 90
0
 91
0
280
0
281
0
  0
CLASS
  1
CELLSTYLEMAP
  2
AcDbCellStyleMap
  3
ObjectDBX Classes
 90
1152
 91
0
280
0
281
0
  0
CLASS
  1
MENTALRAYRENDERSETTINGS
  2
AcDbMentalRayRenderSettings
  3
SCENEOE
 90
1024
 91
0
280
0
281
0
  0
CLASS
  1
ACDBDETAILVIEWSTYLE
  2
AcDbDetailViewStyle
  3
ObjectDBX Classes
 90
1025
 91
0
280
0
281
0
  0
CLASS
  1
ACDBSECTIONVIEWSTYLE
  2
AcDbSectionViewStyle
  3
ObjectDBX Classes
 90
1025
 91
0
280
0
281
0
  0
CLASS
  1
RASTERVARIABLES
  2
AcDbRasterVariables
  3
ISM
 90
0
 91
0
280
0
281
0
  0
CLASS
  1
LAYOUT
  2
AcDbLayout
  3
ObjectDBX Classes
 90
0
 91
0
280
0
281
0
  0
CLASS
  1
ACDBPLACEHOLDER
  2
AcDbPlaceHolder
  3
ObjectDBX Classes
 90
0
 91
0
280
0
281
0
  0
ENDSEC
  0
SECTION
  2
TABLES
  0
TABLE
  2
VPORT
  5
8
330
0
100
AcDbSymbolTable
 70
1
  0
VPORT
  5
23
330
8
100
AcDbSymbolTableRecord
100
AcDbViewportTableRecord
  2
*Active
 70
0
 10
0.0
 20
0.0
 11
1.0
 21
1.0
 12
0.0
 22
0.0
 13
0.0
 23
0.0
 14
0.5
 24
0.5
 15
0.5
 25
0.5
 16
0.0
 26
0.0
 36
1.0
 17
0.0
 27
0.0
 37
0.0
 40
1000.0
 41
1.34
 42
50.0
 43
0.0
 44
0.0
 50
0.0
 51
0.0
 71
0
 72
1000
 73
1
 74
3
 75
0
 76
0
 77
0
 78
0
281
0
 65
0
146
0.0
  0
ENDTAB
  0
TABLE
  2
LTYPE
  5
2
330
0
100
AcDbSymbolTable
 70
3
  0
LTYPE
  5
24
330
2
100
AcDbSymbolTableRecord
100
AcDbLinetypeTableRecord
  2
ByBlock
 70
0
  3

 72
65
 73
0
 40
0.0
  0
LTYPE
  5
25
330
2
100
AcDbSymbolTableRecord
100
AcDbLinetypeTableRecord
  2
ByLayer
 70
0
  3

 72
65
 73
0
 40
0.0
  0
LTYPE
  5
26
330
2
100
AcDbSymbolTableRecord
100
AcDbLinetypeTableRecord
  2
Continuous
 70
0
  3

 72
65
 73
0
 40
0.0
  0
ENDTAB
  0
TABLE
  2
LAYER
  5
1
330
0
100
AcDbSymbolTable
 70
13
  0
LAYER
  5
27
330
1
100
AcDbSymbolTableRecord
100
AcDbLayerTableRecord
  2
0
 70
0
 62
7
  6
Continuous
370
-3
390
13
347
21
  0
LAYER
  5
28
330
1
100
AcDbSymbolTableRecord
100
AcDbLayerTableRecord
  2
Defpoints
 70
0
 62
7
  6
Continuous
290
0
370
-3
390
13
347
21
  0
LAYER
  5
2F
330
1
100
AcDbSymbolTableRecord
100
AcDbLayerTableRecord
  2
COTA
 70
0
 62
7
  6
Continuous
370
-3
390
13
347
21
  0
LAYER
  5
30
330
1
100
AcDbSymbolTableRecord
100
AcDbLayerTableRecord
  2
Texto Seção
 70
0
 62
7
  6
Continuous
370
-3
390
13
347
21
  0
LAYER
  5
31
330
1
100
AcDbSymbolTableRecord
100
AcDbLayerTableRecord
  2
Hachura
 70
0
 62
7
  6
Continuous
370
-3
390
13
347
21
  0
LAYER
  5
32
330
1
100
AcDbSymbolTableRecord
100
AcDbLayerTableRecord
  2
Painéis
 70
0
 62
7
  6
Continuous
370
-3
390
13
347
21
  0
LAYER
  5
33
330
1
100
AcDbSymbolTableRecord
100
AcDbLayerTableRecord
  2
Madeira
 70
0
 62
7
  6
Continuous
370
-3
390
13
347
21
  0
LAYER
  5
34
330
1
100
AcDbSymbolTableRecord
100
AcDbLayerTableRecord
  2
SARR_2.2x7
 70
0
 62
7
  6
Continuous
370
-3
390
13
347
21
  0
LAYER
  5
35
330
1
100
AcDbSymbolTableRecord
100
AcDbLayerTableRecord
  2
SARR_3.5x7
 70
0
 62
7
  6
Continuous
370
-3
390
13
347
21
  0
LAYER
  5
36
330
1
100
AcDbSymbolTableRecord
100
AcDbLayerTableRecord
  2
CONCRETO
 70
0
 62
7
  6
Continuous
370
-3
390
13
347
21
  0
LAYER
  5
37
330
1
100
AcDbSymbolTableRecord
100
AcDbLayerTableRecord
  2
5
 70
0
 62
7
  6
Continuous
370
-3
390
13
347
21
  0
LAYER
  5
38
330
1
100
AcDbSymbolTableRecord
100
AcDbLayerTableRecord
  2
REAPROVEITAMENTO
 70
0
 62
7
  6
Continuous
370
-3
390
13
347
21
  0
LAYER
  5
39
330
1
100
AcDbSymbolTableRecord
100
AcDbLayerTableRecord
  2
detalhes
 70
0
 62
7
  6
Continuous
370
-3
390
13
347
21
  0
ENDTAB
  0
TABLE
  2
STYLE
  5
5
330
0
100
AcDbSymbolTable
 70
1
  0
STYLE
  5
29
330
5
100
AcDbSymbolTableRecord
100
AcDbTextStyleTableRecord
  2
Standard
 70
0
 40
0.0
 41
1.0
 50
0.0
 71
0
 42
2.5
  3
txt
  4

  0
ENDTAB
  0
TABLE
  2
VIEW
  5
7
330
0
100
AcDbSymbolTable
 70
0
  0
ENDTAB
  0
TABLE
  2
UCS
  5
6
330
0
100
AcDbSymbolTable
 70
0
  0
ENDTAB
  0
TABLE
  2
APPID
  5
3
330
0
100
AcDbSymbolTable
 70
3
  0
APPID
  5
2A
330
3
100
AcDbSymbolTableRecord
100
AcDbRegAppTableRecord
  2
ACAD
 70
0
  0
APPID
  5
11B
330
3
100
AcDbSymbolTableRecord
100
AcDbRegAppTableRecord
  2
HATCHBACKGROUNDCOLOR
 70
0
  0
APPID
  5
11C
330
3
100
AcDbSymbolTableRecord
100
AcDbRegAppTableRecord
  2
EZDXF
 70
0
  0
ENDTAB
  0
TABLE
  2
DIMSTYLE
  5
4
330
0
100
AcDbSymbolTable
 70
1
100
AcDbDimStyleTable
  0
DIMSTYLE
105
2B
330
4
100
AcDbSymbolTableRecord
100
AcDbDimStyleTableRecord
  2
Standard
 70
0
 40
1.0
 41
2.5
 42
0.625
 43
3.75
 44
1.25
 45
0.0
 46
0.0
 47
0.0
 48
0.0
 49
2.5
140
2.5
141
2.5
142
0.0
143
0.03937007874
144
1.0
145
0.0
146
1.0
147
0.625
148
0.0
 69
0
 70
0
 71
0
 72
0
 73
0
 74
0
 75
0
 76
0
 77
1
 78
8
 79
3
170
0
171
3
172
1
173
0
174
0
175
0
176
0
177
0
178
0
179
2
271
2
272
2
273
2
274
3
275
0
276
0
277
2
278
44
279
0
280
0
281
0
282
0
283
0
284
8
285
0
286
0
288
0
289
3
290
0
371
-2
372
-2
  0
ENDTAB
  0
TABLE
  2
BLOCK_RECORD
  5
9
330
0
100
AcDbSymbolTable
 70
2
  0
BLOCK_RECORD
  5
17
330
9
100
AcDbSymbolTableRecord
100
AcDbBlockTableRecord
  2
*Model_Space
340
1A
 70
0
280
1
281
0
  0
BLOCK_RECORD
  5
1B
330
9
100
AcDbSymbolTableRecord
100
AcDbBlockTableRecord
  2
*Paper_Space
340
1E
 70
0
280
1
281
0
  0
ENDTAB
  0
ENDSEC
  0
SECTION
  2
BLOCKS
  0
BLOCK
  5
18
330
17
100
AcDbEntity
  8
0
100
AcDbBlockBegin
  2
*Model_Space
 70
0
 10
0.0
 20
0.0
 30
0.0
  3
*Model_Space
  1

  0
ENDBLK
  5
19
330
17
100
AcDbEntity
  8
0
100
AcDbBlockEnd
  0
BLOCK
  5
1C
330
1B
100
AcDbEntity
  8
0
100
AcDbBlockBegin
  2
*Paper_Space
 70
0
 10
0.0
 20
0.0
 30
0.0
  3
*Paper_Space
  1

  0
ENDBLK
  5
1D
330
1B
100
AcDbEntity
  8
0
100
AcDbBlockEnd
  0
ENDSEC
  0
SECTION
  2
ENTITIES
  0
LINE
  5
3A
330
17
100
AcDbEntity
  8
Defpoints
 62
7
370
25
100
AcDbLine
 10
5207.462237168488
 20
4649.856006392899
 30
0.0
 11
5207.462237168488
 21
4774.856006392899
 31
0.0
  0
LINE
  5
3B
330
17
100
AcDbEntity
  8
Painéis
 62
7
370
25
100
AcDbLine
 10
5063.181904742695
 20
4433.18029050381
 30
0.0
 11
5243.181904742698
 21
4433.18029050381
 31
0.0
  0
LINE
  5
3C
330
17
100
AcDbEntity
  8
Painéis
 62
7
370
25
100
AcDbLine
 10
5063.181904742695
 20
4379.18029050381
 30
0.0
 11
5243.181904742698
 21
4379.18029050381
 31
0.0
  0
LINE
  5
3D
330
17
100
AcDbEntity
  8
Painéis
 62
7
370
25
100
AcDbLine
 10
5063.181904742695
 20
4379.18029050381
 30
0.0
 11
5063.181904742695
 21
4433.18029050381
 31
0.0
  0
LINE
  5
3E
330
17
100
AcDbEntity
  8
Painéis
 62
7
370
25
100
AcDbLine
 10
5153.181904742698
 20
4379.18029050381
 30
0.0
 11
5153.181904742698
 21
4433.18029050381
 31
0.0
  0
LINE
  5
3F
330
17
100
AcDbEntity
  8
Painéis
 62
7
370
25
100
AcDbLine
 10
5243.181904742698
 20
4379.18029050381
 30
0.0
 11
5243.181904742698
 21
4433.18029050381
 31
0.0
  0
LINE
  5
40
330
17
100
AcDbEntity
  8
SARR_2.2x7
 62
7
370
25
100
AcDbLine
 10
5070.181904742691
 20
4379.18029050381
 30
0.0
 11
5070.181904742694
 21
4433.18029050381
 31
0.0
  0
LINE
  5
41
330
17
100
AcDbEntity
  8
SARR_2.2x7
 62
7
370
25
100
AcDbLine
 10
5236.181904742698
 20
4379.180290503808
 30
0.0
 11
5236.181904742698
 21
4433.18029050381
 31
0.0
  0
LINE
  5
42
330
17
100
AcDbEntity
  8
SARR_2.2x7
 62
7
370
25
100
AcDbLine
 10
5070.181904742694
 20
4426.180290503903
 30
0.0
 11
5153.181904742698
 21
4426.180290503913
 31
0.0
  0
LINE
  5
43
330
17
100
AcDbEntity
  8
SARR_2.2x7
 62
7
370
25
100
AcDbLine
 10
5070.181904742672
 20
4402.962165987356
 30
0.0
 11
5153.181904742698
 21
4402.962165987367
 31
0.0
  0
LINE
  5
44
330
17
100
AcDbEntity
  8
SARR_2.2x7
 62
7
370
25
100
AcDbLine
 10
5070.181904742698
 20
4409.962165987054
 30
0.0
 11
5153.181904742698
 21
4409.96216598707
 31
0.0
  0
LINE
  5
45
330
17
100
AcDbEntity
  8
SARR_2.2x7
 62
7
370
25
100
AcDbLine
 10
5070.181904742694
 20
4386.180290503717
 30
0.0
 11
5153.181904742698
 21
4386.180290503706
 31
0.0
  0
LINE
  5
46
330
17
100
AcDbEntity
  8
SARR_2.2x7
 62
7
370
25
100
AcDbLine
 10
5153.181904742698
 20
4426.180290503897
 30
0.0
 11
5236.181904742698
 21
4426.180290503907
 31
0.0
  0
LINE
  5
47
330
17
100
AcDbEntity
  8
SARR_2.2x7
 62
7
370
25
100
AcDbLine
 10
5153.181904742698
 20
4402.962165987351
 30
0.0
 11
5236.181904742698
 21
4402.962165987361
 31
0.0
  0
LINE
  5
48
330
17
100
AcDbEntity
  8
SARR_2.2x7
 62
7
370
25
100
AcDbLine
 10
5153.181904742698
 20
4409.962165987047
 30
0.0
 11
5236.181904742698
 21
4409.96216598706
 31
0.0
  0
LINE
  5
49
330
17
100
AcDbEntity
  8
SARR_2.2x7
 62
7
370
25
100
AcDbLine
 10
5153.181904742698
 20
4386.180290503725
 30
0.0
 11
5236.181904742698
 21
4386.180290503715
 31
0.0
  0
LINE
  5
4A
330
17
100
AcDbEntity
  8
Painéis
 62
7
370
25
100
AcDbLine
 10
5063.181904742695
 20
4221.99875217406
 30
0.0
 11
5243.181904742698
 21
4221.99875217406
 31
0.0
  0
LINE
  5
4B
330
17
100
AcDbEntity
  8
Painéis
 62
7
370
25
100
AcDbLine
 10
5063.181904742695
 20
4167.998752174059
 30
0.0
 11
5243.181904742698
 21
4167.998752174059
 31
0.0
  0
LINE
  5
4C
330
17
100
AcDbEntity
  8
Painéis
 62
7
370
25
100
AcDbLine
 10
5063.181904742695
 20
4167.998752174059
 30
0.0
 11
5063.181904742695
 21
4221.99875217406
 31
0.0
  0
LINE
  5
4D
330
17
100
AcDbEntity
  8
Painéis
 62
7
370
25
100
AcDbLine
 10
5153.181904742698
 20
4167.998752174059
 30
0.0
 11
5153.181904742698
 21
4221.99875217406
 31
0.0
  0
LINE
  5
4E
330
17
100
AcDbEntity
  8
Painéis
 62
7
370
25
100
AcDbLine
 10
5243.181904742698
 20
4167.998752174059
 30
0.0
 11
5243.181904742698
 21
4221.99875217406
 31
0.0
  0
LINE
  5
4F
330
17
100
AcDbEntity
  8
SARR_2.2x7
 62
7
370
25
100
AcDbLine
 10
5070.181904742691
 20
4167.998752174059
 30
0.0
 11
5070.181904742694
 21
4221.99875217406
 31
0.0
  0
LINE
  5
50
330
17
100
AcDbEntity
  8
SARR_2.2x7
 62
7
370
25
100
AcDbLine
 10
5236.181904742698
 20
4167.998752174058
 30
0.0
 11
5236.181904742698
 21
4221.99875217406
 31
0.0
  0
LINE
  5
51
330
17
100
AcDbEntity
  8
SARR_2.2x7
 62
7
370
25
100
AcDbLine
 10
5070.181904742694
 20
4214.998752174152
 30
0.0
 11
5153.181904742698
 21
4214.998752174162
 31
0.0
  0
LINE
  5
52
330
17
100
AcDbEntity
  8
SARR_2.2x7
 62
7
370
25
100
AcDbLine
 10
5070.181904742672
 20
4191.780627657606
 30
0.0
 11
5153.181904742698
 21
4191.780627657617
 31
0.0
  0
LINE
  5
53
330
17
100
AcDbEntity
  8
SARR_2.2x7
 62
7
370
25
100
AcDbLine
 10
5070.181904742698
 20
4198.780627657304
 30
0.0
 11
5153.181904742698
 21
4198.78062765732
 31
0.0
  0
LINE
  5
54
330
17
100
AcDbEntity
  8
SARR_2.2x7
 62
7
370
25
100
AcDbLine
 10
5070.181904742694
 20
4174.998752173967
 30
0.0
 11
5153.181904742698
 21
4174.998752173956
 31
0.0
  0
LINE
  5
55
330
17
100
AcDbEntity
  8
SARR_2.2x7
 62
7
370
25
100
AcDbLine
 10
5153.181904742698
 20
4214.998752174147
 30
0.0
 11
5236.181904742698
 21
4214.998752174157
 31
0.0
  0
LINE
  5
56
330
17
100
AcDbEntity
  8
SARR_2.2x7
 62
7
370
25
100
AcDbLine
 10
5153.181904742698
 20
4191.7806276576
 30
0.0
 11
5236.181904742698
 21
4191.780627657609
 31
0.0
  0
LINE
  5
57
330
17
100
AcDbEntity
  8
SARR_2.2x7
 62
7
370
25
100
AcDbLine
 10
5153.181904742698
 20
4198.780627657296
 30
0.0
 11
5236.181904742698
 21
4198.78062765731
 31
0.0
  0
LINE
  5
58
330
17
100
AcDbEntity
  8
SARR_2.2x7
 62
7
370
25
100
AcDbLine
 10
5153.181904742698
 20
4174.998752173974
 30
0.0
 11
5236.181904742698
 21
4174.998752173964
 31
0.0
  0
LINE
  5
59
330
17
100
AcDbEntity
  8
Defpoints
 62
7
370
25
100
AcDbLine
 10
6156.337866839996
 20
4649.856006392896
 30
0.0
 11
6156.337866839996
 21
4774.856006392896
 31
0.0
  0
LINE
  5
5A
330
17
100
AcDbEntity
  8
Painéis
 62
7
370
25
100
AcDbLine
 10
6012.057534414202
 20
4433.180290503807
 30
0.0
 11
6192.057534414205
 21
4433.180290503807
 31
0.0
  0
LINE
  5
5B
330
17
100
AcDbEntity
  8
Painéis
 62
7
370
25
100
AcDbLine
 10
6012.057534414202
 20
4379.180290503807
 30
0.0
 11
6192.057534414205
 21
4379.180290503807
 31
0.0
  0
LINE
  5
5C
330
17
100
AcDbEntity
  8
Painéis
 62
7
370
25
100
AcDbLine
 10
6012.057534414202
 20
4379.180290503807
 30
0.0
 11
6012.057534414202
 21
4433.180290503807
 31
0.0
  0
LINE
  5
5D
330
17
100
AcDbEntity
  8
Painéis
 62
7
370
25
100
AcDbLine
 10
6102.057534414205
 20
4379.180290503807
 30
0.0
 11
6102.057534414205
 21
4433.180290503807
 31
0.0
  0
LINE
  5
5E
330
17
100
AcDbEntity
  8
Painéis
 62
7
370
25
100
AcDbLine
 10
6192.057534414205
 20
4379.180290503807
 30
0.0
 11
6192.057534414205
 21
4433.180290503807
 31
0.0
  0
LINE
  5
5F
330
17
100
AcDbEntity
  8
SARR_2.2x7
 62
7
370
25
100
AcDbLine
 10
6019.057534414198
 20
4379.180290503807
 30
0.0
 11
6019.057534414201
 21
4433.180290503807
 31
0.0
  0
LINE
  5
60
330
17
100
AcDbEntity
  8
SARR_2.2x7
 62
7
370
25
100
AcDbLine
 10
6185.057534414205
 20
4379.180290503806
 30
0.0
 11
6185.057534414205
 21
4433.180290503807
 31
0.0
  0
LINE
  5
61
330
17
100
AcDbEntity
  8
SARR_2.2x7
 62
7
370
25
100
AcDbLine
 10
6019.057534414201
 20
4426.1802905039
 30
0.0
 11
6102.057534414205
 21
4426.18029050391
 31
0.0
  0
LINE
  5
62
330
17
100
AcDbEntity
  8
SARR_2.2x7
 62
7
370
25
100
AcDbLine
 10
6019.05753441418
 20
4402.962165987354
 30
0.0
 11
6102.057534414205
 21
4402.962165987364
 31
0.0
  0
LINE
  5
63
330
17
100
AcDbEntity
  8
SARR_2.2x7
 62
7
370
25
100
AcDbLine
 10
6019.057534414205
 20
4409.962165987052
 30
0.0
 11
6102.057534414205
 21
4409.962165987066
 31
0.0
  0
LINE
  5
64
330
17
100
AcDbEntity
  8
SARR_2.2x7
 62
7
370
25
100
AcDbLine
 10
6019.057534414201
 20
4386.180290503715
 30
0.0
 11
6102.057534414205
 21
4386.180290503704
 31
0.0
  0
LINE
  5
65
330
17
100
AcDbEntity
  8
SARR_2.2x7
 62
7
370
25
100
AcDbLine
 10
6102.057534414205
 20
4426.180290503895
 30
0.0
 11
6185.057534414205
 21
4426.180290503904
 31
0.0
  0
LINE
  5
66
330
17
100
AcDbEntity
  8
SARR_2.2x7
 62
7
370
25
100
AcDbLine
 10
6102.057534414205
 20
4402.962165987348
 30
0.0
 11
6185.057534414205
 21
4402.962165987358
 31
0.0
  0
LINE
  5
67
330
17
100
AcDbEntity
  8
SARR_2.2x7
 62
7
370
25
100
AcDbLine
 10
6102.057534414205
 20
4409.962165987044
 30
0.0
 11
6185.057534414205
 21
4409.962165987058
 31
0.0
  0
LINE
  5
68
330
17
100
AcDbEntity
  8
SARR_2.2x7
 62
7
370
25
100
AcDbLine
 10
6102.057534414205
 20
4386.180290503722
 30
0.0
 11
6185.057534414205
 21
4386.180290503712
 31
0.0
  0
LINE
  5
69
330
17
100
AcDbEntity
  8
Painéis
 62
7
370
25
100
AcDbLine
 10
6012.057534414202
 20
4221.998752174057
 30
0.0
 11
6192.057534414205
 21
4221.998752174057
 31
0.0
  0
LINE
  5
6A
330
17
100
AcDbEntity
  8
Painéis
 62
7
370
25
100
AcDbLine
 10
6012.057534414202
 20
4167.998752174057
 30
0.0
 11
6192.057534414205
 21
4167.998752174057
 31
0.0
  0
LINE
  5
6B
330
17
100
AcDbEntity
  8
Painéis
 62
7
370
25
100
AcDbLine
 10
6012.057534414202
 20
4167.998752174057
 30
0.0
 11
6012.057534414202
 21
4221.998752174057
 31
0.0
  0
LINE
  5
6C
330
17
100
AcDbEntity
  8
Painéis
 62
7
370
25
100
AcDbLine
 10
6102.057534414205
 20
4167.998752174057
 30
0.0
 11
6102.057534414205
 21
4221.998752174057
 31
0.0
  0
LINE
  5
6D
330
17
100
AcDbEntity
  8
Painéis
 62
7
370
25
100
AcDbLine
 10
6192.057534414205
 20
4167.998752174057
 30
0.0
 11
6192.057534414205
 21
4221.998752174057
 31
0.0
  0
LINE
  5
6E
330
17
100
AcDbEntity
  8
SARR_2.2x7
 62
7
370
25
100
AcDbLine
 10
6019.057534414198
 20
4167.998752174057
 30
0.0
 11
6019.057534414201
 21
4221.998752174057
 31
0.0
  0
LINE
  5
6F
330
17
100
AcDbEntity
  8
SARR_2.2x7
 62
7
370
25
100
AcDbLine
 10
6185.057534414205
 20
4167.998752174055
 30
0.0
 11
6185.057534414205
 21
4221.998752174057
 31
0.0
  0
LINE
  5
70
330
17
100
AcDbEntity
  8
SARR_2.2x7
 62
7
370
25
100
AcDbLine
 10
6019.057534414201
 20
4214.998752174149
 30
0.0
 11
6102.057534414205
 21
4214.998752174159
 31
0.0
  0
LINE
  5
71
330
17
100
AcDbEntity
  8
SARR_2.2x7
 62
7
370
25
100
AcDbLine
 10
6019.05753441418
 20
4191.780627657602
 30
0.0
 11
6102.057534414205
 21
4191.780627657613
 31
0.0
  0
LINE
  5
72
330
17
100
AcDbEntity
  8
SARR_2.2x7
 62
7
370
25
100
AcDbLine
 10
6019.057534414205
 20
4198.780627657301
 30
0.0
 11
6102.057534414205
 21
4198.780627657316
 31
0.0
  0
LINE
  5
73
330
17
100
AcDbEntity
  8
SARR_2.2x7
 62
7
370
25
100
AcDbLine
 10
6019.057534414201
 20
4174.998752173964
 30
0.0
 11
6102.057534414205
 21
4174.998752173953
 31
0.0
  0
LINE
  5
74
330
17
100
AcDbEntity
  8
SARR_2.2x7
 62
7
370
25
100
AcDbLine
 10
6102.057534414205
 20
4214.998752174144
 30
0.0
 11
6185.057534414205
 21
4214.998752174154
 31
0.0
  0
LINE
  5
75
330
17
100
AcDbEntity
  8
SARR_2.2x7
 62
7
370
25
100
AcDbLine
 10
6102.057534414205
 20
4191.780627657597
 30
0.0
 11
6185.057534414205
 21
4191.780627657607
 31
0.0
  0
LINE
  5
76
330
17
100
AcDbEntity
  8
SARR_2.2x7
 62
7
370
25
100
AcDbLine
 10
6102.057534414205
 20
4198.780627657294
 30
0.0
 11
6185.057534414205
 21
4198.780627657307
 31
0.0
  0
LINE
  5
77
330
17
100
AcDbEntity
  8
SARR_2.2x7
 62
7
370
25
100
AcDbLine
 10
6102.057534414205
 20
4174.998752173971
 30
0.0
 11
6185.057534414205
 21
4174.998752173961
 31
0.0
  0
LINE
  5
78
330
17
100
AcDbEntity
  8
COTA
 62
7
370
25
100
AcDbLine
 10
5385.392687799474
 20
4774.856006392896
 30
0.0
 11
5385.392687799474
 21
4004.099519803792
 31
0.0
  0
LINE
  5
79
330
17
100
AcDbEntity
  8
Defpoints
 62
7
370
25
100
AcDbLine
 10
5684.325596316035
 20
4649.856006392896
 30
0.0
 11
5684.325596316035
 21
4774.856006392896
 31
0.0
  0
LINE
  5
7A
330
17
100
AcDbEntity
  8
SARR_2.2x7
 62
7
370
25
100
AcDbLine
 10
5499.579374122296
 20
4401.408903282381
 30
0.0
 11
5736.579374122296
 21
4401.408903282399
 31
0.0
  0
LINE
  5
7B
330
17
100
AcDbEntity
  8
SARR_2.2x7
 62
7
370
25
100
AcDbLine
 10
5736.579374122293
 20
4401.408903282295
 30
0.0
 11
5796.624514881484
 21
4401.408903282136
 31
0.0
  0
LINE
  5
7C
330
17
100
AcDbEntity
  8
Painéis
 62
7
370
25
100
AcDbLine
 10
5492.579374122293
 20
4408.408903282288
 30
0.0
 11
5803.579374122294
 21
4408.408903282314
 31
0.0
  0
LINE
  5
7D
330
17
100
AcDbEntity
  8
Painéis
 62
7
370
25
100
AcDbLine
 10
5492.579374122296
 20
4366.408903282288
 30
0.0
 11
5736.579374122295
 21
4366.408903282303
 31
0.0
  0
LINE
  5
7E
330
17
100
AcDbEntity
  8
Painéis
 62
7
370
25
100
AcDbLine
 10
5736.579374122292
 20
4366.408903282307
 30
0.0
 11
5803.579374122294
 21
4366.408903282314
 31
0.0
  0
LINE
  5
7F
330
17
100
AcDbEntity
  8
Painéis
 62
7
370
25
100
AcDbLine
 10
5803.579374122294
 20
4366.408903282314
 30
0.0
 11
5803.579374122294
 21
4408.408903282314
 31
0.0
  0
LINE
  5
80
330
17
100
AcDbEntity
  8
Painéis
 62
7
370
25
100
AcDbLine
 10
5492.579374122296
 20
4366.408903282288
 30
0.0
 11
5492.579374122296
 21
4408.408903282288
 31
0.0
  0
LINE
  5
81
330
17
100
AcDbEntity
  8
SARR_2.2x7
 62
7
370
25
100
AcDbLine
 10
5796.624514881477
 20
4366.408903282311
 30
0.0
 11
5796.624514881484
 21
4408.408903282288
 31
0.0
  0
LINE
  5
82
330
17
100
AcDbEntity
  8
Painéis
 62
7
370
25
100
AcDbLine
 10
5736.579374122296
 20
4366.408903282303
 30
0.0
 11
5736.579374122296
 21
4408.408903282302
 31
0.0
  0
LINE
  5
83
330
17
100
AcDbEntity
  8
COTA
 62
7
370
25
100
AcDbLine
 10
5492.579374122293
 20
4408.408903282288
 30
0.0
 11
5492.579374122293
 21
4425.408903282288
 31
0.0
  0
LINE
  5
84
330
17
100
AcDbEntity
  8
COTA
 62
7
370
25
100
AcDbLine
 10
5803.579374122286
 20
4425.408903282288
 30
0.0
 11
5803.579374122286
 21
4408.408903282314
 31
0.0
  0
LINE
  5
85
330
17
100
AcDbEntity
  8
SARR_2.2x7
 62
7
370
25
100
AcDbLine
 10
5499.579374122296
 20
4373.408903282212
 30
0.0
 11
5736.579374122296
 21
4373.408903282199
 31
0.0
  0
LINE
  5
86
330
17
100
AcDbEntity
  8
SARR_2.2x7
 62
7
370
25
100
AcDbLine
 10
5736.579374122293
 20
4373.408903282305
 30
0.0
 11
5796.624514881484
 21
4373.408903282463
 31
0.0
  0
LINE
  5
87
330
17
100
AcDbEntity
  8
COTA
 62
7
370
25
100
AcDbLine
 10
5803.579374122286
 20
4425.408903282288
 30
0.0
 11
5492.579374122293
 21
4425.408903282288
 31
0.0
  0
LINE
  5
88
330
17
100
AcDbEntity
  8
SARR_2.2x7
 62
7
370
25
100
AcDbLine
 10
5499.579374122296
 20
4384.408903282255
 30
0.0
 11
5736.579374122296
 21
4384.408903282132
 31
0.0
  0
LINE
  5
89
330
17
100
AcDbEntity
  8
SARR_2.2x7
 62
7
370
25
100
AcDbLine
 10
5499.579374122296
 20
4391.408903281951
 30
0.0
 11
5736.579374122296
 21
4391.408903281827
 31
0.0
  0
LINE
  5
8A
330
17
100
AcDbEntity
  8
SARR_2.2x7
 62
7
370
25
100
AcDbLine
 10
5736.579374122293
 20
4384.408903282301
 30
0.0
 11
5796.624514881484
 21
4384.408903282253
 31
0.0
  0
LINE
  5
8B
330
17
100
AcDbEntity
  8
SARR_2.2x7
 62
7
370
25
100
AcDbLine
 10
5736.579374122293
 20
4391.408903281999
 30
0.0
 11
5796.624514881484
 21
4391.40890328195
 31
0.0
  0
LINE
  5
8C
330
17
100
AcDbEntity
  8
Painéis
 62
7
370
25
100
AcDbLine
 10
5736.579374122293
 20
4366.408903282303
 30
0.0
 11
5736.579374122293
 21
4408.408903282302
 31
0.0
  0
LINE
  5
8D
330
17
100
AcDbEntity
  8
SARR_2.2x7
 62
7
370
25
100
AcDbLine
 10
5499.579374122296
 20
4366.408903282288
 30
0.0
 11
5499.579374122296
 21
4408.408903282288
 31
0.0
  0
LINE
  5
8E
330
17
100
AcDbEntity
  8
SARR_2.2x7
 62
7
370
25
100
AcDbLine
 10
5499.579374122296
 20
4191.615059392048
 30
0.0
 11
5736.579374122296
 21
4191.615059392066
 31
0.0
  0
LINE
  5
8F
330
17
100
AcDbEntity
  8
SARR_2.2x7
 62
7
370
25
100
AcDbLine
 10
5736.579374122293
 20
4191.615059391962
 30
0.0
 11
5796.624514881484
 21
4191.615059391803
 31
0.0
  0
LINE
  5
90
330
17
100
AcDbEntity
  8
Painéis
 62
7
370
25
100
AcDbLine
 10
5492.579374122293
 20
4198.615059391955
 30
0.0
 11
5803.579374122294
 21
4198.615059391981
 31
0.0
  0
LINE
  5
91
330
17
100
AcDbEntity
  8
Painéis
 62
7
370
25
100
AcDbLine
 10
5492.579374122296
 20
4156.615059391955
 30
0.0
 11
5736.579374122295
 21
4156.615059391969
 31
0.0
  0
LINE
  5
92
330
17
100
AcDbEntity
  8
Painéis
 62
7
370
25
100
AcDbLine
 10
5736.579374122292
 20
4156.615059391973
 30
0.0
 11
5803.579374122294
 21
4156.61505939198
 31
0.0
  0
LINE
  5
93
330
17
100
AcDbEntity
  8
Painéis
 62
7
370
25
100
AcDbLine
 10
5803.579374122294
 20
4156.61505939198
 30
0.0
 11
5803.579374122294
 21
4198.615059391981
 31
0.0
  0
LINE
  5
94
330
17
100
AcDbEntity
  8
Painéis
 62
7
370
25
100
AcDbLine
 10
5492.579374122296
 20
4156.615059391955
 30
0.0
 11
5492.579374122296
 21
4198.615059391955
 31
0.0
  0
LINE
  5
95
330
17
100
AcDbEntity
  8
SARR_2.2x7
 62
7
370
25
100
AcDbLine
 10
5796.624514881477
 20
4156.615059391977
 30
0.0
 11
5796.624514881484
 21
4198.615059391955
 31
0.0
  0
LINE
  5
96
330
17
100
AcDbEntity
  8
Painéis
 62
7
370
25
100
AcDbLine
 10
5736.579374122296
 20
4156.615059391969
 30
0.0
 11
5736.579374122296
 21
4198.61505939197
 31
0.0
  0
LINE
  5
97
330
17
100
AcDbEntity
  8
COTA
 62
7
370
25
100
AcDbLine
 10
5492.579374122293
 20
4198.615059391955
 30
0.0
 11
5492.579374122293
 21
4215.615059391955
 31
0.0
  0
LINE
  5
98
330
17
100
AcDbEntity
  8
COTA
 62
7
370
25
100
AcDbLine
 10
5803.579374122286
 20
4215.615059391955
 30
0.0
 11
5803.579374122286
 21
4198.615059391981
 31
0.0
  0
LINE
  5
99
330
17
100
AcDbEntity
  8
SARR_2.2x7
 62
7
370
25
100
AcDbLine
 10
5499.579374122296
 20
4163.615059391879
 30
0.0
 11
5736.579374122296
 21
4163.615059391866
 31
0.0
  0
LINE
  5
9A
330
17
100
AcDbEntity
  8
SARR_2.2x7
 62
7
370
25
100
AcDbLine
 10
5736.579374122293
 20
4163.615059391972
 30
0.0
 11
5796.624514881484
 21
4163.61505939213
 31
0.0
  0
LINE
  5
9B
330
17
100
AcDbEntity
  8
COTA
 62
7
370
25
100
AcDbLine
 10
5803.579374122286
 20
4215.615059391955
 30
0.0
 11
5492.579374122293
 21
4215.615059391955
 31
0.0
  0
LINE
  5
9C
330
17
100
AcDbEntity
  8
SARR_2.2x7
 62
7
370
25
100
AcDbLine
 10
5499.579374122296
 20
4174.615059391923
 30
0.0
 11
5736.579374122296
 21
4174.6150593918
 31
0.0
  0
LINE
  5
9D
330
17
100
AcDbEntity
  8
SARR_2.2x7
 62
7
370
25
100
AcDbLine
 10
5499.579374122296
 20
4181.615059391619
 30
0.0
 11
5736.579374122296
 21
4181.615059391493
 31
0.0
  0
LINE
  5
9E
330
17
100
AcDbEntity
  8
SARR_2.2x7
 62
7
370
25
100
AcDbLine
 10
5736.579374122293
 20
4174.615059391967
 30
0.0
 11
5796.624514881484
 21
4174.61505939192
 31
0.0
  0
LINE
  5
9F
330
17
100
AcDbEntity
  8
SARR_2.2x7
 62
7
370
25
100
AcDbLine
 10
5736.579374122293
 20
4181.615059391666
 30
0.0
 11
5796.624514881484
 21
4181.615059391616
 31
0.0
  0
LINE
  5
A0
330
17
100
AcDbEntity
  8
Painéis
 62
7
370
25
100
AcDbLine
 10
5736.579374122293
 20
4156.615059391969
 30
0.0
 11
5736.579374122293
 21
4198.61505939197
 31
0.0
  0
LINE
  5
A1
330
17
100
AcDbEntity
  8
SARR_2.2x7
 62
7
370
25
100
AcDbLine
 10
5499.579374122296
 20
4156.615059391955
 30
0.0
 11
5499.579374122296
 21
4198.615059391955
 31
0.0
  0
LINE
  5
A2
330
17
100
AcDbEntity
  8
COTA
 62
7
370
25
100
AcDbLine
 10
5924.751927094781
 20
4774.856006392896
 30
0.0
 11
5924.751927094781
 21
4004.099519803792
 31
0.0
  0
LWPOLYLINE
  5
A3
330
17
100
AcDbEntity
  8
Painéis
 62
7
370
25
100
AcDbPolyline
 90
4
 70
1
 10
5184.462237168485
 20
4649.856006392899
 10
5188.462237168486
 20
4649.856006392899
 10
5188.462237168486
 20
4541.856006392899
 10
5184.462237168485
 20
4541.856006392899
  0
LWPOLYLINE
  5
A4
330
17
100
AcDbEntity
  8
Madeira
 62
7
370
25
100
AcDbPolyline
 90
4
 70
1
 10
5226.462237168486
 20
4541.856006392899
 10
5226.462237168486
 20
4546.256006392893
 10
5212.462237168486
 20
4546.256006392893
 10
5212.462237168486
 20
4541.856006392899
  0
LWPOLYLINE
  5
A5
330
17
100
AcDbEntity
  8
Painéis
 62
7
370
25
100
AcDbPolyline
 90
4
 70
1
 10
5226.462237168486
 20
4546.256006392893
 10
5226.462237168486
 20
4549.856006392899
 10
5188.462237168486
 20
4549.856006392899
 10
5188.462237168486
 20
4546.256006392893
  0
LWPOLYLINE
  5
A6
330
17
100
AcDbEntity
  8
Madeira
 62
7
370
25
100
AcDbPolyline
 90
4
 70
1
 10
5188.462237168486
 20
4541.856006392899
 10
5188.462237168486
 20
4546.256006392893
 10
5202.462237168486
 20
4546.256006392893
 10
5202.462237168486
 20
4541.856006392899
  0
LWPOLYLINE
  5
A7
330
17
100
AcDbEntity
  8
Painéis
 62
7
370
25
100
AcDbPolyline
 90
4
 70
1
 10
5230.462237168496
 20
4649.856006392899
 10
5226.462237168497
 20
4649.856006392899
 10
5226.462237168486
 20
4541.856006392899
 10
5230.462237168485
 20
4541.856006392899
  0
LWPOLYLINE
  5
A8
330
17
100
AcDbEntity
  8
CONCRETO
 62
7
370
25
100
AcDbPolyline
 90
8
 70
1
 10
5188.462237168486
 20
4649.856006392899
 10
5188.462237168486
 20
4649.856006392899
 10
5226.462237168493
 20
4649.856006392899
 10
5226.462237168493
 20
4621.856006392884
 10
5226.462237168486
 20
4621.856006392884
 10
5226.462237168427
 20
4549.856006392899
 10
5188.462237168486
 20
4549.856006392899
 10
5188.462237168486
 20
4649.856006392906
  0
LWPOLYLINE
  5
A9
330
17
100
AcDbEntity
  8
Madeira
 62
7
370
25
100
AcDbPolyline
 90
4
 70
1
 10
5184.462237168485
 20
4635.856006392899
 10
5180.062237168492
 20
4635.856006392899
 10
5180.062237168492
 20
4649.856006392899
 10
5184.462237168485
 20
4649.856006392899
  0
LWPOLYLINE
  5
AA
330
17
100
AcDbEntity
  8
Madeira
 62
7
370
25
100
AcDbPolyline
 90
4
 70
1
 10
5184.462237168489
 20
4597.826063921205
 10
5180.062237168495
 20
4597.826063921205
 10
5180.062237168495
 20
4611.826063921204
 10
5184.462237168489
 20
4611.826063921204
  0
LWPOLYLINE
  5
AB
330
17
100
AcDbEntity
  8
Madeira
 62
7
370
25
100
AcDbPolyline
 90
4
 70
1
 10
5184.462237168496
 20
4541.856006392899
 10
5180.062237168503
 20
4541.856006392899
 10
5180.062237168503
 20
4555.856006392899
 10
5184.462237168496
 20
4555.856006392899
  0
LWPOLYLINE
  5
AC
330
17
100
AcDbEntity
  8
Madeira
 62
7
370
25
100
AcDbPolyline
 90
4
 70
1
 10
5230.462237168493
 20
4635.856006392899
 10
5234.862237168487
 20
4635.856006392899
 10
5234.862237168487
 20
4649.856006392899
 10
5230.462237168493
 20
4649.856006392899
  0
LWPOLYLINE
  5
AD
330
17
100
AcDbEntity
  8
Madeira
 62
7
370
25
100
AcDbPolyline
 90
4
 70
1
 10
5230.462237168489
 20
4597.826063921205
 10
5234.862237168483
 20
4597.826063921205
 10
5234.862237168483
 20
4611.826063921204
 10
5230.462237168489
 20
4611.826063921204
  0
LWPOLYLINE
  5
AE
330
17
100
AcDbEntity
  8
Madeira
 62
7
370
25
100
AcDbPolyline
 90
4
 70
1
 10
5230.462237168482
 20
4541.856006392899
 10
5234.862237168476
 20
4541.856006392899
 10
5234.862237168476
 20
4555.856006392899
 10
5230.462237168482
 20
4555.856006392899
  0
LWPOLYLINE
  5
AF
330
17
100
AcDbEntity
  8
Painéis
 62
7
370
25
100
AcDbPolyline
 90
4
 70
1
 10
6133.337866839993
 20
4649.856006392896
 10
6137.337866839993
 20
4649.856006392896
 10
6137.337866839993
 20
4541.856006392896
 10
6133.337866839993
 20
4541.856006392896
  0
LWPOLYLINE
  5
B0
330
17
100
AcDbEntity
  8
Madeira
 62
7
370
25
100
AcDbPolyline
 90
4
 70
1
 10
6175.337866839993
 20
4541.856006392896
 10
6175.337866839993
 20
4546.25600639289
 10
6161.337866839993
 20
4546.25600639289
 10
6161.337866839993
 20
4541.856006392896
  0
LWPOLYLINE
  5
B1
330
17
100
AcDbEntity
  8
Painéis
 62
7
370
25
100
AcDbPolyline
 90
4
 70
1
 10
6175.337866839993
 20
4546.25600639289
 10
6175.337866839993
 20
4549.856006392896
 10
6137.337866839993
 20
4549.856006392896
 10
6137.337866839993
 20
4546.25600639289
  0
LWPOLYLINE
  5
B2
330
17
100
AcDbEntity
  8
Madeira
 62
7
370
25
100
AcDbPolyline
 90
4
 70
1
 10
6137.337866839993
 20
4541.856006392896
 10
6137.337866839993
 20
4546.25600639289
 10
6151.337866839993
 20
4546.25600639289
 10
6151.337866839993
 20
4541.856006392896
  0
LWPOLYLINE
  5
B3
330
17
100
AcDbEntity
  8
Painéis
 62
7
370
25
100
AcDbPolyline
 90
4
 70
1
 10
6179.337866840004
 20
4649.856006392896
 10
6175.337866840004
 20
4649.856006392896
 10
6175.337866839993
 20
4541.856006392896
 10
6179.337866839993
 20
4541.856006392896
  0
LWPOLYLINE
  5
B4
330
17
100
AcDbEntity
  8
CONCRETO
 62
7
370
25
100
AcDbPolyline
 90
8
 70
1
 10
6137.337866839993
 20
4649.856006392896
 10
6137.337866839993
 20
4649.856006392896
 10
6175.33786684
 20
4649.856006392896
 10
6175.33786684
 20
4621.856006392881
 10
6175.337866839993
 20
4621.856006392881
 10
6175.337866839935
 20
4549.856006392896
 10
6137.337866839993
 20
4549.856006392896
 10
6137.337866839993
 20
4649.856006392903
  0
LWPOLYLINE
  5
B5
330
17
100
AcDbEntity
  8
Madeira
 62
7
370
25
100
AcDbPolyline
 90
4
 70
1
 10
6133.337866839993
 20
4635.856006392896
 10
6128.937866839999
 20
4635.856006392896
 10
6128.937866839999
 20
4649.856006392896
 10
6133.337866839993
 20
4649.856006392896
  0
LWPOLYLINE
  5
B6
330
17
100
AcDbEntity
  8
Madeira
 62
7
370
25
100
AcDbPolyline
 90
4
 70
1
 10
6133.337866839997
 20
4597.826063921202
 10
6128.937866840002
 20
4597.826063921202
 10
6128.937866840002
 20
4611.826063921202
 10
6133.337866839997
 20
4611.826063921202
  0
LWPOLYLINE
  5
B7
330
17
100
AcDbEntity
  8
Madeira
 62
7
370
25
100
AcDbPolyline
 90
4
 70
1
 10
6133.337866840004
 20
4541.856006392896
 10
6128.93786684001
 20
4541.856006392896
 10
6128.93786684001
 20
4555.856006392896
 10
6133.337866840004
 20
4555.856006392896
  0
LWPOLYLINE
  5
B8
330
17
100
AcDbEntity
  8
Madeira
 62
7
370
25
100
AcDbPolyline
 90
4
 70
1
 10
6179.33786684
 20
4635.856006392896
 10
6183.737866839994
 20
4635.856006392896
 10
6183.737866839994
 20
4649.856006392896
 10
6179.33786684
 20
4649.856006392896
  0
LWPOLYLINE
  5
B9
330
17
100
AcDbEntity
  8
Madeira
 62
7
370
25
100
AcDbPolyline
 90
4
 70
1
 10
6179.337866839997
 20
4597.826063921202
 10
6183.73786683999
 20
4597.826063921202
 10
6183.73786683999
 20
4611.826063921202
 10
6179.337866839997
 20
4611.826063921202
  0
LWPOLYLINE
  5
BA
330
17
100
AcDbEntity
  8
Madeira
 62
7
370
25
100
AcDbPolyline
 90
4
 70
1
 10
6179.33786683999
 20
4541.856006392896
 10
6183.737866839983
 20
4541.856006392896
 10
6183.737866839983
 20
4555.856006392896
 10
6179.33786683999
 20
4555.856006392896
  0
LWPOLYLINE
  5
BB
330
17
100
AcDbEntity
  8
SARR_3.5x7
 62
7
370
25
100
AcDbPolyline
 90
4
 70
1
 10
5166.062237168437
 20
4643.856006392899
 10
5180.062237168437
 20
4643.856006392899
 10
5180.062237168567
 20
4465.377792987093
 10
5166.062237168567
 20
4465.377792987093
  0
LWPOLYLINE
  5
BC
330
17
100
AcDbEntity
  8
SARR_3.5x7
 62
7
370
25
100
AcDbPolyline
 90
4
 70
1
 10
5248.862237168723
 20
4643.856006392899
 10
5234.862237168723
 20
4643.856006392899
 10
5234.862237168577
 20
4465.377792987093
 10
5248.862237168578
 20
4465.377792987093
  0
LWPOLYLINE
  5
BD
330
17
100
AcDbEntity
  8
SARR_3.5x7
 62
7
370
25
100
AcDbPolyline
 90
4
 70
1
 10
5166.062237168426
 20
4541.856006392899
 10
5248.862237168625
 20
4541.856006392896
 10
5248.862237168625
 20
4511.797944788898
 10
5166.062237168426
 20
4511.7979447889
  0
LWPOLYLINE
  5
BE
330
17
100
AcDbEntity
  8
SARR_3.5x7
 62
7
370
25
100
AcDbPolyline
 90
4
 70
1
 10
6114.937866839937
 20
4643.856006392896
 10
6128.937866839937
 20
4643.856006392896
 10
6128.937866840065
 20
4465.37779298709
 10
6114.937866840064
 20
4465.37779298709
  0
LWPOLYLINE
  5
BF
330
17
100
AcDbEntity
  8
SARR_3.5x7
 62
7
370
25
100
AcDbPolyline
 90
4
 70
1
 10
6197.737866840224
 20
4643.856006392896
 10
6183.737866840224
 20
4643.856006392896
 10
6183.737866840075
 20
4465.37779298709
 10
6197.737866840075
 20
4465.37779298709
  0
LWPOLYLINE
  5
C0
330
17
100
AcDbEntity
  8
SARR_3.5x7
 62
7
370
25
100
AcDbPolyline
 90
4
 70
1
 10
6114.937866839922
 20
4541.856006392896
 10
6197.737866840121
 20
4541.856006392894
 10
6197.737866840121
 20
4511.797944788895
 10
6114.937866839922
 20
4511.797944788898
  0
LWPOLYLINE
  5
C1
330
17
100
AcDbEntity
  8
Painéis
 62
7
370
25
100
AcDbPolyline
 90
4
 70
1
 10
5659.125596316037
 20
4615.856006392874
 10
5663.125596316038
 20
4615.856006392874
 10
5663.125596316038
 20
4531.856006392896
 10
5659.125596316037
 20
4531.856006392896
  0
LWPOLYLINE
  5
C2
330
17
100
AcDbEntity
  8
Madeira
 62
7
370
25
100
AcDbPolyline
 90
4
 70
1
 10
5701.125596316037
 20
4531.856006392896
 10
5701.125596316037
 20
4536.25600639289
 10
5687.125596316037
 20
4536.25600639289
 10
5687.125596316037
 20
4531.856006392896
  0
LWPOLYLINE
  5
C3
330
17
100
AcDbEntity
  8
Painéis
 62
7
370
25
100
AcDbPolyline
 90
4
 70
1
 10
5701.125596316037
 20
4536.25600639289
 10
5701.125596316037
 20
4539.856006392896
 10
5663.125596316038
 20
4539.856006392896
 10
5663.125596316038
 20
4536.25600639289
  0
LWPOLYLINE
  5
C4
330
17
100
AcDbEntity
  8
Madeira
 62
7
370
25
100
AcDbPolyline
 90
4
 70
1
 10
5663.125596316038
 20
4531.856006392896
 10
5663.125596316038
 20
4536.25600639289
 10
5677.125596316038
 20
4536.25600639289
 10
5677.125596316038
 20
4531.856006392896
  0
LWPOLYLINE
  5
C5
330
17
100
AcDbEntity
  8
Painéis
 62
7
370
25
100
AcDbPolyline
 90
4
 70
1
 10
5705.125596316037
 20
4615.856006392874
 10
5701.125596316037
 20
4615.856006392874
 10
5701.125596316037
 20
4531.856006392896
 10
5705.125596316037
 20
4531.856006392896
  0
LWPOLYLINE
  5
C6
330
17
100
AcDbEntity
  8
Painéis
 62
7
370
25
100
AcDbPolyline
 90
4
 70
1
 10
5761.125596316008
 20
4615.856006392874
 10
5761.125596316008
 20
4619.856006392875
 10
5701.125596316037
 20
4619.856006392875
 10
5701.125596316037
 20
4615.856006392874
  0
LWPOLYLINE
  5
C7
330
17
100
AcDbEntity
  8
Painéis
 62
7
370
25
100
AcDbPolyline
 90
4
 70
1
 10
5663.125596316038
 20
4615.856006392874
 10
5663.125596316038
 20
4619.856006392875
 10
5607.525596316061
 20
4619.856006392867
 10
5607.525596316061
 20
4615.856006392867
  0
LWPOLYLINE
  5
C8
330
17
100
AcDbEntity
  8
CONCRETO
 62
7
370
25
100
AcDbPolyline
 90
8
 70
1
 10
5607.525596316061
 20
4619.856006392867
 10
5607.525596316061
 20
4649.856006392896
 10
5761.125596316008
 20
4649.856006392896
 10
5761.125596316008
 20
4619.856006392882
 10
5701.125596316037
 20
4619.856006392882
 10
5701.125596315979
 20
4539.856006392896
 10
5663.125596316038
 20
4539.856006392896
 10
5663.125596316038
 20
4619.856006392875
  0
LWPOLYLINE
  5
C9
330
17
100
AcDbEntity
  8
Madeira
 62
7
370
25
100
AcDbPolyline
 90
4
 70
1
 10
5654.725596316043
 20
4601.856006392874
 10
5659.125596316037
 20
4601.856006392874
 10
5659.125596316037
 20
4615.856006392874
 10
5654.725596316043
 20
4615.856006392874
  0
LWPOLYLINE
  5
CA
330
17
100
AcDbEntity
  8
Madeira
 62
7
370
25
100
AcDbPolyline
 90
4
 70
1
 10
5654.725596316043
 20
4531.856006392896
 10
5659.125596316037
 20
4531.856006392896
 10
5659.125596316037
 20
4545.856006392896
 10
5654.725596316043
 20
4545.856006392896
  0
LWPOLYLINE
  5
CB
330
17
100
AcDbEntity
  8
Madeira
 62
7
370
25
100
AcDbPolyline
 90
4
 70
1
 10
5709.525596316032
 20
4601.856006392874
 10
5705.125596316037
 20
4601.856006392874
 10
5705.125596316037
 20
4615.856006392874
 10
5709.525596316032
 20
4615.856006392874
  0
LWPOLYLINE
  5
CC
330
17
100
AcDbEntity
  8
Madeira
 62
7
370
25
100
AcDbPolyline
 90
4
 70
1
 10
5709.525596316032
 20
4531.856006392896
 10
5705.125596316037
 20
4531.856006392896
 10
5705.125596316037
 20
4545.856006392896
 10
5709.525596316032
 20
4545.856006392896
  0
LWPOLYLINE
  5
CD
330
17
100
AcDbEntity
  8
Madeira
 62
7
370
25
100
AcDbPolyline
 90
4
 70
1
 10
5654.725596316043
 20
4568.856006392885
 10
5659.125596316037
 20
4568.856006392885
 10
5659.125596316037
 20
4582.856006392885
 10
5654.725596316043
 20
4582.856006392885
  0
LWPOLYLINE
  5
CE
330
17
100
AcDbEntity
  8
Madeira
 62
7
370
25
100
AcDbPolyline
 90
4
 70
1
 10
5709.525596316032
 20
4568.856006392885
 10
5705.125596316037
 20
4568.856006392885
 10
5705.125596316037
 20
4582.856006392885
 10
5709.525596316032
 20
4582.856006392885
  0
LWPOLYLINE
  5
CF
330
17
100
AcDbEntity
  8
SARR_3.5x7
 62
7
370
25
100
AcDbPolyline
 90
4
 70
1
 10
5640.725596315977
 20
4609.856006392874
 10
5654.725596315977
 20
4609.856006392874
 10
5654.725596316104
 20
4455.37779298709
 10
5640.725596316105
 20
4455.37779298709
  0
LWPOLYLINE
  5
D0
330
17
100
AcDbEntity
  8
SARR_3.5x7
 62
7
370
25
100
AcDbPolyline
 90
4
 70
1
 10
5723.525596316264
 20
4609.856006392877
 10
5709.525596316264
 20
4609.856006392877
 10
5709.525596316119
 20
4455.37779298709
 10
5723.525596316119
 20
4455.37779298709
  0
LWPOLYLINE
  5
D1
330
17
100
AcDbEntity
  8
SARR_3.5x7
 62
7
370
25
100
AcDbPolyline
 90
4
 70
1
 10
5640.725596315963
 20
4531.856006392896
 10
5723.525596316166
 20
4531.856006392894
 10
5723.525596316166
 20
4501.797944788895
 10
5640.725596315963
 20
4501.797944788897
  0
TEXT
  5
D2
330
17
100
AcDbEntity
  8
detalhes
 62
7
370
25
100
AcDbText
 10
5235.176720344523
 20
4602.47810196879
 30
0.0
 40
9.600000000000001
  1
b
100
AcDbText
  0
TEXT
  5
D3
330
17
100
AcDbEntity
  8
detalhes
 62
7
370
25
100
AcDbText
 10
5172.633061698787
 20
4602.489159414365
 30
0.0
 40
9.600000000000001
  1
a
100
AcDbText
  0
TEXT
  5
D4
330
17
100
AcDbEntity
  8
detalhes
 62
7
370
25
100
AcDbText
 10
5199.062502783931
 20
4552.091759912737
 30
0.0
 40
9.600000000000001
  1
c
100
AcDbText
  0
TEXT
  5
D5
330
17
100
AcDbEntity
  8
5
 62
7
370
25
100
AcDbText
 10
5064.22376919795
 20
4296.086695294671
 30
0.0
 40
12.0
  1
V504
100
AcDbText
  0
TEXT
  5
D6
330
17
100
AcDbEntity
  8
5
 62
7
370
25
100
AcDbText
 10
5219.536410797693
 20
4296.086695294671
 30
0.0
 40
12.0
  1
V506
100
AcDbText
  0
TEXT
  5
D7
330
17
100
AcDbEntity
  8
Texto Seção
 62
7
370
25
100
AcDbText
 10
5066.181904742665
 20
4442.366665924788
 30
0.0
 40
13.0
  1
V526.A
100
AcDbText
  0
TEXT
  5
D8
330
17
100
AcDbEntity
  8
5
 62
7
370
25
100
AcDbText
 10
5211.983383068142
 20
4084.905156964921
 30
0.0
 40
12.0
  1
V504
100
AcDbText
  0
TEXT
  5
D9
330
17
100
AcDbEntity
  8
5
 62
7
370
25
100
AcDbText
 10
5060.601706524881
 20
4084.905156964921
 30
0.0
 40
12.0
  1
V506
100
AcDbText
  0
TEXT
  5
DA
330
17
100
AcDbEntity
  8
Texto Seção
 62
7
370
25
100
AcDbText
 10
5066.181904742665
 20
4231.185127595036
 30
0.0
 40
13.0
  1
V526.B
100
AcDbText
  0
TEXT
  5
DB
330
17
100
AcDbEntity
  8
detalhes
 62
7
370
25
100
AcDbText
 10
6184.052350016031
 20
4602.478101968787
 30
0.0
 40
9.600000000000001
  1
b
100
AcDbText
  0
TEXT
  5
DC
330
17
100
AcDbEntity
  8
detalhes
 62
7
370
25
100
AcDbText
 10
6121.508691370294
 20
4602.489159414363
 30
0.0
 40
9.600000000000001
  1
a
100
AcDbText
  0
TEXT
  5
DD
330
17
100
AcDbEntity
  8
detalhes
 62
7
370
25
100
AcDbText
 10
6147.938132455438
 20
4552.091759912735
 30
0.0
 40
9.600000000000001
  1
c
100
AcDbText
  0
TEXT
  5
DE
330
17
100
AcDbEntity
  8
Texto Seção
 62
7
370
25
100
AcDbText
 10
6015.057534414173
 20
4442.366665924785
 30
0.0
 40
13.0
  1
V528.A
100
AcDbText
  0
TEXT
  5
DF
330
17
100
AcDbEntity
  8
Texto Seção
 62
7
370
25
100
AcDbText
 10
6015.057534414173
 20
4231.185127595034
 30
0.0
 40
13.0
  1
V528.B
100
AcDbText
  0
TEXT
  5
E0
330
17
100
AcDbEntity
  8
5
 62
7
370
25
100
AcDbText
 10
6009.704658799204
 20
4296.086695294668
 30
0.0
 40
12.0
  1
V504
100
AcDbText
  0
TEXT
  5
E1
330
17
100
AcDbEntity
  8
5
 62
7
370
25
100
AcDbText
 10
6165.017300398948
 20
4296.086695294668
 30
0.0
 40
12.0
  1
V506
100
AcDbText
  0
TEXT
  5
E2
330
17
100
AcDbEntity
  8
5
 62
7
370
25
100
AcDbText
 10
6157.464272669397
 20
4084.905156964918
 30
0.0
 40
12.0
  1
V504
100
AcDbText
  0
TEXT
  5
E3
330
17
100
AcDbEntity
  8
5
 62
7
370
25
100
AcDbText
 10
6006.082596126137
 20
4084.905156964918
 30
0.0
 40
12.0
  1
V506
100
AcDbText
  0
TEXT
  5
E4
330
17
100
AcDbEntity
  8
5
 62
7
370
25
100
AcDbText
 10
5492.47528779828
 20
4289.364039106287
 30
0.0
 40
12.0
  1
P44
100
AcDbText
  0
TEXT
  5
E5
330
17
100
AcDbEntity
  8
5
 62
7
370
25
100
AcDbText
 10
5776.436245254727
 20
4293.809391984407
 30
0.0
 40
12.0
  1
P50
100
AcDbText
  0
TEXT
  5
E6
330
17
100
AcDbEntity
  8
Texto Seção
 62
7
370
25
100
AcDbText
 10
5495.608799431179
 20
4429.781912682912
 30
0.0
 40
13.0
  1
V527.A
100
AcDbText
  0
TEXT
  5
E7
330
17
100
AcDbEntity
  8
Texto Seção
 62
7
370
25
100
AcDbText
 10
5495.608799431179
 20
4224.22530478963
 30
0.0
 40
13.0
  1
V527.B
100
AcDbText
  0
TEXT
  5
E8
330
17
100
AcDbEntity
  8
detalhes
 62
7
370
25
100
AcDbText
 10
5709.840079492075
 20
4550.045677922178
 30
0.0
 40
9.600000000000001
  1
b
100
AcDbText
  0
TEXT
  5
E9
330
17
100
AcDbEntity
  8
detalhes
 62
7
370
25
100
AcDbText
 10
5647.296420846339
 20
4550.056735367754
 30
0.0
 40
9.600000000000001
  1
a
100
AcDbText
  0
TEXT
  5
EA
330
17
100
AcDbEntity
  8
detalhes
 62
7
370
25
100
AcDbText
 10
5673.725861931483
 20
4542.091759912735
 30
0.0
 40
9.600000000000001
  1
c
100
AcDbText
  0
TEXT
  5
EB
330
17
100
AcDbEntity
  8
5
 62
7
370
25
100
AcDbText
 10
5773.446079818758
 20
4079.570213952097
 30
0.0
 40
12.0
  1
P44
100
AcDbText
  0
TEXT
  5
EC
330
17
100
AcDbEntity
  8
5
 62
7
370
25
100
AcDbText
 10
5491.678846782501
 20
4084.015565470908
 30
0.0
 40
12.0
  1
P50
100
AcDbText
  0
HATCH
  5
ED
330
17
100
AcDbEntity
  8
Hachura
 62
7
100
AcDbHatch
 10
0.0
 20
0.0
 30
0.0
210
0.0
220
0.0
230
1.0
  2
SOLID
 70
1
 71
0
 91
1
 92
3
 72
0
 73
1
 93
8
 10
5188.462237168486
 20
4649.856006392899
 10
5184.462237168485
 20
4649.856006392899
 10
5184.462237168485
 20
4649.856006392899
 10
5184.462237168485
 20
4541.856006392899
 10
5184.462237168485
 20
4541.856006392899
 10
5188.462237168486
 20
4541.856006392899
 10
5188.462237168486
 20
4541.856006392899
 10
5188.462237168486
 20
4649.856006392899
 97
0
 75
1
 76
1
 98
0
  0
HATCH
  5
EE
330
17
100
AcDbEntity
  8
Hachura
 62
7
100
AcDbHatch
 10
0.0
 20
0.0
 30
0.0
210
0.0
220
0.0
230
1.0
  2
SOLID
 70
1
 71
0
 91
1
 92
3
 72
0
 73
1
 93
8
 10
5226.462237168486
 20
4541.856006392899
 10
5226.462237168486
 20
4546.256006392893
 10
5226.462237168486
 20
4546.256006392893
 10
5212.462237168486
 20
4546.256006392893
 10
5212.462237168486
 20
4546.256006392893
 10
5212.462237168486
 20
4541.856006392899
 10
5212.462237168486
 20
4541.856006392899
 10
5226.462237168486
 20
4541.856006392899
 97
0
 75
1
 76
1
 98
0
  0
HATCH
  5
EF
330
17
100
AcDbEntity
  8
Hachura
 62
7
100
AcDbHatch
 10
0.0
 20
0.0
 30
0.0
210
0.0
220
0.0
230
1.0
  2
SOLID
 70
1
 71
0
 91
1
 92
3
 72
0
 73
1
 93
8
 10
5226.462237168486
 20
4546.256006392893
 10
5226.462237168486
 20
4549.856006392899
 10
5226.462237168486
 20
4549.856006392899
 10
5188.462237168486
 20
4549.856006392899
 10
5188.462237168486
 20
4549.856006392899
 10
5188.462237168486
 20
4546.256006392893
 10
5188.462237168486
 20
4546.256006392893
 10
5226.462237168486
 20
4546.256006392893
 97
0
 75
1
 76
1
 98
0
  0
HATCH
  5
F0
330
17
100
AcDbEntity
  8
Hachura
 62
7
100
AcDbHatch
 10
0.0
 20
0.0
 30
0.0
210
0.0
220
0.0
230
1.0
  2
SOLID
 70
1
 71
0
 91
1
 92
3
 72
0
 73
1
 93
8
 10
5188.462237168486
 20
4541.856006392899
 10
5188.462237168486
 20
4546.256006392893
 10
5188.462237168486
 20
4546.256006392893
 10
5202.462237168486
 20
4546.256006392893
 10
5202.462237168486
 20
4546.256006392893
 10
5202.462237168486
 20
4541.856006392899
 10
5202.462237168486
 20
4541.856006392899
 10
5188.462237168486
 20
4541.856006392899
 97
0
 75
1
 76
1
 98
0
  0
HATCH
  5
F1
330
17
100
AcDbEntity
  8
Hachura
 62
7
100
AcDbHatch
 10
0.0
 20
0.0
 30
0.0
210
0.0
220
0.0
230
1.0
  2
SOLID
 70
1
 71
0
 91
1
 92
3
 72
0
 73
1
 93
8
 10
5230.462237168485
 20
4649.856006392898
 10
5226.462237168486
 20
4649.856006392899
 10
5226.462237168486
 20
4649.856006392899
 10
5226.462237168486
 20
4541.856006392899
 10
5226.462237168486
 20
4541.856006392899
 10
5230.462237168485
 20
4541.856006392899
 10
5230.462237168485
 20
4541.856006392899
 10
5230.462237168485
 20
4649.856006392898
 97
0
 75
1
 76
1
 98
0
  0
HATCH
  5
F2
330
17
100
AcDbEntity
  8
Hachura
 62
7
100
AcDbHatch
 10
0.0
 20
0.0
 30
0.0
210
0.0
220
0.0
230
1.0
  2
SOLID
 70
1
 71
0
 91
1
 92
3
 72
0
 73
1
 93
8
 10
5184.462237168485
 20
4635.856006392899
 10
5180.062237168492
 20
4635.856006392899
 10
5180.062237168492
 20
4635.856006392899
 10
5180.062237168492
 20
4649.856006392899
 10
5180.062237168492
 20
4649.856006392899
 10
5184.462237168485
 20
4649.856006392899
 10
5184.462237168485
 20
4649.856006392899
 10
5184.462237168485
 20
4635.856006392899
 97
0
 75
1
 76
1
 98
0
  0
HATCH
  5
F3
330
17
100
AcDbEntity
  8
Hachura
 62
7
100
AcDbHatch
 10
0.0
 20
0.0
 30
0.0
210
0.0
220
0.0
230
1.0
  2
SOLID
 70
1
 71
0
 91
1
 92
3
 72
0
 73
1
 93
8
 10
5184.462237168489
 20
4597.826063921205
 10
5180.062237168495
 20
4597.826063921205
 10
5180.062237168495
 20
4597.826063921205
 10
5180.062237168495
 20
4611.826063921204
 10
5180.062237168495
 20
4611.826063921204
 10
5184.462237168489
 20
4611.826063921204
 10
5184.462237168489
 20
4611.826063921204
 10
5184.462237168489
 20
4597.826063921205
 97
0
 75
1
 76
1
 98
0
  0
HATCH
  5
F4
330
17
100
AcDbEntity
  8
Hachura
 62
7
100
AcDbHatch
 10
0.0
 20
0.0
 30
0.0
210
0.0
220
0.0
230
1.0
  2
SOLID
 70
1
 71
0
 91
1
 92
3
 72
0
 73
1
 93
8
 10
5184.462237168496
 20
4541.856006392899
 10
5180.062237168503
 20
4541.856006392899
 10
5180.062237168503
 20
4541.856006392899
 10
5180.062237168503
 20
4555.856006392899
 10
5180.062237168503
 20
4555.856006392899
 10
5184.462237168496
 20
4555.856006392899
 10
5184.462237168496
 20
4555.856006392899
 10
5184.462237168496
 20
4541.856006392899
 97
0
 75
1
 76
1
 98
0
  0
HATCH
  5
F5
330
17
100
AcDbEntity
  8
Hachura
 62
7
100
AcDbHatch
 10
0.0
 20
0.0
 30
0.0
210
0.0
220
0.0
230
1.0
  2
SOLID
 70
1
 71
0
 91
1
 92
3
 72
0
 73
1
 93
8
 10
5230.462237168493
 20
4635.856006392899
 10
5234.862237168487
 20
4635.856006392899
 10
5234.862237168487
 20
4635.856006392899
 10
5234.862237168487
 20
4649.856006392899
 10
5234.862237168487
 20
4649.856006392899
 10
5230.462237168493
 20
4649.856006392899
 10
5230.462237168493
 20
4649.856006392899
 10
5230.462237168493
 20
4635.856006392899
 97
0
 75
1
 76
1
 98
0
  0
HATCH
  5
F6
330
17
100
AcDbEntity
  8
Hachura
 62
7
100
AcDbHatch
 10
0.0
 20
0.0
 30
0.0
210
0.0
220
0.0
230
1.0
  2
SOLID
 70
1
 71
0
 91
1
 92
3
 72
0
 73
1
 93
8
 10
5230.462237168489
 20
4597.826063921205
 10
5234.862237168483
 20
4597.826063921205
 10
5234.862237168483
 20
4597.826063921205
 10
5234.862237168483
 20
4611.826063921204
 10
5234.862237168483
 20
4611.826063921204
 10
5230.462237168489
 20
4611.826063921204
 10
5230.462237168489
 20
4611.826063921204
 10
5230.462237168489
 20
4597.826063921205
 97
0
 75
1
 76
1
 98
0
  0
HATCH
  5
F7
330
17
100
AcDbEntity
  8
Hachura
 62
7
100
AcDbHatch
 10
0.0
 20
0.0
 30
0.0
210
0.0
220
0.0
230
1.0
  2
SOLID
 70
1
 71
0
 91
1
 92
3
 72
0
 73
1
 93
8
 10
5230.462237168482
 20
4541.856006392899
 10
5234.862237168476
 20
4541.856006392899
 10
5234.862237168476
 20
4541.856006392899
 10
5234.862237168476
 20
4555.856006392899
 10
5234.862237168476
 20
4555.856006392899
 10
5230.462237168482
 20
4555.856006392899
 10
5230.462237168482
 20
4555.856006392899
 10
5230.462237168482
 20
4541.856006392899
 97
0
 75
1
 76
1
 98
0
  0
HATCH
  5
F8
330
17
100
AcDbEntity
  8
Hachura
 62
7
100
AcDbHatch
 10
0.0
 20
0.0
 30
0.0
210
0.0
220
0.0
230
1.0
  2
SOLID
 70
1
 71
0
 91
1
 92
3
 72
0
 73
1
 93
8
 10
6137.337866839993
 20
4649.856006392896
 10
6133.337866839993
 20
4649.856006392896
 10
6133.337866839993
 20
4649.856006392896
 10
6133.337866839993
 20
4541.856006392896
 10
6133.337866839993
 20
4541.856006392896
 10
6137.337866839993
 20
4541.856006392896
 10
6137.337866839993
 20
4541.856006392896
 10
6137.337866839993
 20
4649.856006392896
 97
0
 75
1
 76
1
 98
0
  0
HATCH
  5
F9
330
17
100
AcDbEntity
  8
Hachura
 62
7
100
AcDbHatch
 10
0.0
 20
0.0
 30
0.0
210
0.0
220
0.0
230
1.0
  2
SOLID
 70
1
 71
0
 91
1
 92
3
 72
0
 73
1
 93
8
 10
6175.337866839993
 20
4541.856006392896
 10
6175.337866839993
 20
4546.25600639289
 10
6175.337866839993
 20
4546.25600639289
 10
6161.337866839993
 20
4546.25600639289
 10
6161.337866839993
 20
4546.25600639289
 10
6161.337866839993
 20
4541.856006392896
 10
6161.337866839993
 20
4541.856006392896
 10
6175.337866839993
 20
4541.856006392896
 97
0
 75
1
 76
1
 98
0
  0
HATCH
  5
FA
330
17
100
AcDbEntity
  8
Hachura
 62
7
100
AcDbHatch
 10
0.0
 20
0.0
 30
0.0
210
0.0
220
0.0
230
1.0
  2
SOLID
 70
1
 71
0
 91
1
 92
3
 72
0
 73
1
 93
8
 10
6175.337866839993
 20
4546.25600639289
 10
6175.337866839993
 20
4549.856006392896
 10
6175.337866839993
 20
4549.856006392896
 10
6137.337866839993
 20
4549.856006392896
 10
6137.337866839993
 20
4549.856006392896
 10
6137.337866839993
 20
4546.25600639289
 10
6137.337866839993
 20
4546.25600639289
 10
6175.337866839993
 20
4546.25600639289
 97
0
 75
1
 76
1
 98
0
  0
HATCH
  5
FB
330
17
100
AcDbEntity
  8
Hachura
 62
7
100
AcDbHatch
 10
0.0
 20
0.0
 30
0.0
210
0.0
220
0.0
230
1.0
  2
SOLID
 70
1
 71
0
 91
1
 92
3
 72
0
 73
1
 93
8
 10
6137.337866839993
 20
4541.856006392896
 10
6137.337866839993
 20
4546.25600639289
 10
6137.337866839993
 20
4546.25600639289
 10
6151.337866839993
 20
4546.25600639289
 10
6151.337866839993
 20
4546.25600639289
 10
6151.337866839993
 20
4541.856006392896
 10
6151.337866839993
 20
4541.856006392896
 10
6137.337866839993
 20
4541.856006392896
 97
0
 75
1
 76
1
 98
0
  0
HATCH
  5
FC
330
17
100
AcDbEntity
  8
Hachura
 62
7
100
AcDbHatch
 10
0.0
 20
0.0
 30
0.0
210
0.0
220
0.0
230
1.0
  2
SOLID
 70
1
 71
0
 91
1
 92
3
 72
0
 73
1
 93
8
 10
6179.337866839993
 20
4649.856006392895
 10
6175.337866839993
 20
4649.856006392896
 10
6175.337866839993
 20
4649.856006392896
 10
6175.337866839993
 20
4541.856006392896
 10
6175.337866839993
 20
4541.856006392896
 10
6179.337866839993
 20
4541.856006392896
 10
6179.337866839993
 20
4541.856006392896
 10
6179.337866839993
 20
4649.856006392895
 97
0
 75
1
 76
1
 98
0
  0
HATCH
  5
FD
330
17
100
AcDbEntity
  8
Hachura
 62
7
100
AcDbHatch
 10
0.0
 20
0.0
 30
0.0
210
0.0
220
0.0
230
1.0
  2
SOLID
 70
1
 71
0
 91
1
 92
3
 72
0
 73
1
 93
8
 10
6133.337866839993
 20
4635.856006392896
 10
6128.937866839999
 20
4635.856006392896
 10
6128.937866839999
 20
4635.856006392896
 10
6128.937866839999
 20
4649.856006392896
 10
6128.937866839999
 20
4649.856006392896
 10
6133.337866839993
 20
4649.856006392896
 10
6133.337866839993
 20
4649.856006392896
 10
6133.337866839993
 20
4635.856006392896
 97
0
 75
1
 76
1
 98
0
  0
HATCH
  5
FE
330
17
100
AcDbEntity
  8
Hachura
 62
7
100
AcDbHatch
 10
0.0
 20
0.0
 30
0.0
210
0.0
220
0.0
230
1.0
  2
SOLID
 70
1
 71
0
 91
1
 92
3
 72
0
 73
1
 93
8
 10
6133.337866839997
 20
4597.826063921202
 10
6128.937866840002
 20
4597.826063921202
 10
6128.937866840002
 20
4597.826063921202
 10
6128.937866840002
 20
4611.826063921202
 10
6128.937866840002
 20
4611.826063921202
 10
6133.337866839997
 20
4611.826063921202
 10
6133.337866839997
 20
4611.826063921202
 10
6133.337866839997
 20
4597.826063921202
 97
0
 75
1
 76
1
 98
0
  0
HATCH
  5
FF
330
17
100
AcDbEntity
  8
Hachura
 62
7
100
AcDbHatch
 10
0.0
 20
0.0
 30
0.0
210
0.0
220
0.0
230
1.0
  2
SOLID
 70
1
 71
0
 91
1
 92
3
 72
0
 73
1
 93
8
 10
6133.337866840004
 20
4541.856006392896
 10
6128.93786684001
 20
4541.856006392896
 10
6128.93786684001
 20
4541.856006392896
 10
6128.93786684001
 20
4555.856006392896
 10
6128.93786684001
 20
4555.856006392896
 10
6133.337866840004
 20
4555.856006392896
 10
6133.337866840004
 20
4555.856006392896
 10
6133.337866840004
 20
4541.856006392896
 97
0
 75
1
 76
1
 98
0
  0
HATCH
  5
100
330
17
100
AcDbEntity
  8
Hachura
 62
7
100
AcDbHatch
 10
0.0
 20
0.0
 30
0.0
210
0.0
220
0.0
230
1.0
  2
SOLID
 70
1
 71
0
 91
1
 92
3
 72
0
 73
1
 93
8
 10
6179.33786684
 20
4635.856006392896
 10
6183.737866839994
 20
4635.856006392896
 10
6183.737866839994
 20
4635.856006392896
 10
6183.737866839994
 20
4649.856006392896
 10
6183.737866839994
 20
4649.856006392896
 10
6179.33786684
 20
4649.856006392896
 10
6179.33786684
 20
4649.856006392896
 10
6179.33786684
 20
4635.856006392896
 97
0
 75
1
 76
1
 98
0
  0
HATCH
  5
101
330
17
100
AcDbEntity
  8
Hachura
 62
7
100
AcDbHatch
 10
0.0
 20
0.0
 30
0.0
210
0.0
220
0.0
230
1.0
  2
SOLID
 70
1
 71
0
 91
1
 92
3
 72
0
 73
1
 93
8
 10
6179.337866839997
 20
4597.826063921202
 10
6183.73786683999
 20
4597.826063921202
 10
6183.73786683999
 20
4597.826063921202
 10
6183.73786683999
 20
4611.826063921202
 10
6183.73786683999
 20
4611.826063921202
 10
6179.337866839997
 20
4611.826063921202
 10
6179.337866839997
 20
4611.826063921202
 10
6179.337866839997
 20
4597.826063921202
 97
0
 75
1
 76
1
 98
0
  0
HATCH
  5
102
330
17
100
AcDbEntity
  8
Hachura
 62
7
100
AcDbHatch
 10
0.0
 20
0.0
 30
0.0
210
0.0
220
0.0
230
1.0
  2
SOLID
 70
1
 71
0
 91
1
 92
3
 72
0
 73
1
 93
8
 10
6179.33786683999
 20
4541.856006392896
 10
6183.737866839983
 20
4541.856006392896
 10
6183.737866839983
 20
4541.856006392896
 10
6183.737866839983
 20
4555.856006392896
 10
6183.737866839983
 20
4555.856006392896
 10
6179.33786683999
 20
4555.856006392896
 10
6179.33786683999
 20
4555.856006392896
 10
6179.33786683999
 20
4541.856006392896
 97
0
 75
1
 76
1
 98
0
  0
HATCH
  5
103
330
17
100
AcDbEntity
  8
REAPROVEITAMENTO
 62
7
100
AcDbHatch
 10
0.0
 20
0.0
 30
0.0
210
0.0
220
0.0
230
1.0
  2
SOLID
 70
1
 71
0
 91
1
 92
3
 72
0
 73
1
 93
8
 10
5243.181904742698
 20
4379.132213580732
 10
5243.181904742698
 20
4433.25721358075
 10
5243.181904742698
 20
4433.25721358075
 10
5063.181904742702
 20
4433.430290503834
 10
5063.181904742698
 20
4433.430290503834
 10
5063.181904742698
 20
4379.305290503815
 10
5063.181904742698
 20
4379.305290503815
 10
5243.181904742698
 20
4379.132213580732
 97
0
 75
1
 76
1
 98
0
  0
HATCH
  5
104
330
17
100
AcDbEntity
  8
REAPROVEITAMENTO
 62
7
100
AcDbHatch
 10
0.0
 20
0.0
 30
0.0
210
0.0
220
0.0
230
1.0
  2
SOLID
 70
1
 71
0
 91
1
 92
3
 72
0
 73
1
 93
8
 10
5243.181904742698
 20
4167.950675250981
 10
5243.181904742698
 20
4222.075675251
 10
5243.181904742698
 20
4222.075675251
 10
5063.181904742702
 20
4222.248752174084
 10
5063.181904742698
 20
4222.248752174084
 10
5063.181904742698
 20
4168.123752174063
 10
5063.181904742698
 20
4168.123752174063
 10
5243.181904742698
 20
4167.950675250981
 97
0
 75
1
 76
1
 98
0
  0
HATCH
  5
105
330
17
100
AcDbEntity
  8
REAPROVEITAMENTO
 62
7
100
AcDbHatch
 10
0.0
 20
0.0
 30
0.0
210
0.0
220
0.0
230
1.0
  2
SOLID
 70
1
 71
0
 91
1
 92
3
 72
0
 73
1
 93
8
 10
6192.057534414205
 20
4167.950675250978
 10
6192.057534414205
 20
4222.075675250997
 10
6192.057534414205
 20
4222.075675250997
 10
6012.057534414209
 20
4222.248752174081
 10
6012.057534414205
 20
4222.248752174081
 10
6012.057534414205
 20
4168.123752174061
 10
6012.057534414205
 20
4168.123752174061
 10
6192.057534414205
 20
4167.950675250978
 97
0
 75
1
 76
1
 98
0
  0
HATCH
  5
106
330
17
100
AcDbEntity
  8
REAPROVEITAMENTO
 62
7
100
AcDbHatch
 10
0.0
 20
0.0
 30
0.0
210
0.0
220
0.0
230
1.0
  2
SOLID
 70
1
 71
0
 91
1
 92
3
 72
0
 73
1
 93
8
 10
6192.057534414205
 20
4379.13221358073
 10
6192.057534414205
 20
4433.257213580747
 10
6192.057534414205
 20
4433.257213580747
 10
6012.057534414209
 20
4433.430290503832
 10
6012.057534414205
 20
4433.430290503832
 10
6012.057534414205
 20
4379.305290503812
 10
6012.057534414205
 20
4379.305290503812
 10
6192.057534414205
 20
4379.13221358073
 97
0
 75
1
 76
1
 98
0
  0
HATCH
  5
107
330
17
100
AcDbEntity
  8
COTA
 62
7
100
AcDbHatch
 10
0.0
 20
0.0
 30
0.0
210
0.0
220
0.0
230
1.0
  2
SOLID
 70
1
 71
0
 91
1
 92
3
 72
0
 73
1
 93
8
 10
5803.579374122286
 20
4408.408903282308
 10
5803.579374122286
 20
4425.408903282289
 10
5803.579374122286
 20
4425.408903282289
 10
5492.579374122293
 20
4425.408903282289
 10
5492.579374122293
 20
4425.408903282288
 10
5492.579374122293
 20
4408.408903282289
 10
5492.579374122293
 20
4408.408903282289
 10
5803.579374122286
 20
4408.408903282308
 97
0
 75
1
 76
1
 98
0
  0
HATCH
  5
108
330
17
100
AcDbEntity
  8
Hachura
 62
7
100
AcDbHatch
 10
0.0
 20
0.0
 30
0.0
210
0.0
220
0.0
230
1.0
  2
SOLID
 70
1
 71
0
 91
1
 92
3
 72
0
 73
1
 93
8
 10
5659.125596316037
 20
4619.856006392875
 10
5663.125596316038
 20
4619.856006392875
 10
5663.125596316038
 20
4619.856006392875
 10
5663.125596316038
 20
4531.856006392896
 10
5663.125596316038
 20
4531.856006392896
 10
5659.125596316037
 20
4531.856006392896
 10
5659.125596316037
 20
4531.856006392896
 10
5659.125596316037
 20
4619.856006392875
 97
0
 75
1
 76
1
 98
0
  0
HATCH
  5
109
330
17
100
AcDbEntity
  8
Hachura
 62
7
100
AcDbHatch
 10
0.0
 20
0.0
 30
0.0
210
0.0
220
0.0
230
1.0
  2
SOLID
 70
1
 71
0
 91
1
 92
3
 72
0
 73
1
 93
8
 10
5701.125596316037
 20
4531.856006392896
 10
5701.125596316037
 20
4536.25600639289
 10
5701.125596316037
 20
4536.25600639289
 10
5687.125596316037
 20
4536.25600639289
 10
5687.125596316037
 20
4536.25600639289
 10
5687.125596316037
 20
4531.856006392896
 10
5687.125596316037
 20
4531.856006392896
 10
5701.125596316037
 20
4531.856006392896
 97
0
 75
1
 76
1
 98
0
  0
HATCH
  5
10A
330
17
100
AcDbEntity
  8
Hachura
 62
7
100
AcDbHatch
 10
0.0
 20
0.0
 30
0.0
210
0.0
220
0.0
230
1.0
  2
SOLID
 70
1
 71
0
 91
1
 92
3
 72
0
 73
1
 93
8
 10
5701.125596316037
 20
4536.25600639289
 10
5701.125596316037
 20
4539.856006392896
 10
5701.125596316037
 20
4539.856006392896
 10
5663.125596316038
 20
4539.856006392896
 10
5663.125596316038
 20
4539.856006392896
 10
5663.125596316038
 20
4536.25600639289
 10
5663.125596316038
 20
4536.25600639289
 10
5701.125596316037
 20
4536.25600639289
 97
0
 75
1
 76
1
 98
0
  0
HATCH
  5
10B
330
17
100
AcDbEntity
  8
Hachura
 62
7
100
AcDbHatch
 10
0.0
 20
0.0
 30
0.0
210
0.0
220
0.0
230
1.0
  2
SOLID
 70
1
 71
0
 91
1
 92
3
 72
0
 73
1
 93
8
 10
5663.125596316038
 20
4531.856006392896
 10
5663.125596316038
 20
4536.25600639289
 10
5663.125596316038
 20
4536.25600639289
 10
5677.125596316038
 20
4536.25600639289
 10
5677.125596316038
 20
4536.25600639289
 10
5677.125596316038
 20
4531.856006392896
 10
5677.125596316038
 20
4531.856006392896
 10
5663.125596316038
 20
4531.856006392896
 97
0
 75
1
 76
1
 98
0
  0
HATCH
  5
10C
330
17
100
AcDbEntity
  8
Hachura
 62
7
100
AcDbHatch
 10
0.0
 20
0.0
 30
0.0
210
0.0
220
0.0
230
1.0
  2
SOLID
 70
1
 71
0
 91
1
 92
3
 72
0
 73
1
 93
8
 10
5705.125596316037
 20
4619.856006392882
 10
5701.125596316037
 20
4619.856006392882
 10
5701.125596316037
 20
4619.856006392882
 10
5701.125596316037
 20
4531.856006392896
 10
5701.125596316037
 20
4531.856006392896
 10
5705.125596316037
 20
4531.856006392896
 10
5705.125596316037
 20
4531.856006392896
 10
5705.125596316037
 20
4619.856006392882
 97
0
 75
1
 76
1
 98
0
  0
HATCH
  5
10D
330
17
100
AcDbEntity
  8
Hachura
 62
7
100
AcDbHatch
 10
0.0
 20
0.0
 30
0.0
210
0.0
220
0.0
230
1.0
  2
SOLID
 70
1
 71
0
 91
1
 92
3
 72
0
 73
1
 93
8
 10
5761.125596316008
 20
4615.856006392874
 10
5761.125596316008
 20
4619.856006392875
 10
5761.125596316008
 20
4619.856006392875
 10
5701.125596316037
 20
4619.856006392875
 10
5701.125596316037
 20
4619.856006392875
 10
5701.125596316037
 20
4615.856006392874
 10
5701.125596316037
 20
4615.856006392874
 10
5761.125596316008
 20
4615.856006392874
 97
0
 75
1
 76
1
 98
0
  0
HATCH
  5
10E
330
17
100
AcDbEntity
  8
Hachura
 62
7
100
AcDbHatch
 10
0.0
 20
0.0
 30
0.0
210
0.0
220
0.0
230
1.0
  2
SOLID
 70
1
 71
0
 91
1
 92
3
 72
0
 73
1
 93
8
 10
5663.125596316038
 20
4615.856006392874
 10
5663.125596316038
 20
4619.856006392875
 10
5663.125596316038
 20
4619.856006392875
 10
5607.525596316061
 20
4619.856006392867
 10
5607.525596316061
 20
4619.856006392867
 10
5607.525596316061
 20
4615.856006392867
 10
5607.525596316061
 20
4615.856006392867
 10
5663.125596316038
 20
4615.856006392874
 97
0
 75
1
 76
1
 98
0
  0
HATCH
  5
10F
330
17
100
AcDbEntity
  8
Hachura
 62
7
100
AcDbHatch
 10
0.0
 20
0.0
 30
0.0
210
0.0
220
0.0
230
1.0
  2
SOLID
 70
1
 71
0
 91
1
 92
3
 72
0
 73
1
 93
8
 10
5654.725596316043
 20
4601.856006392874
 10
5659.125596316037
 20
4601.856006392874
 10
5659.125596316037
 20
4601.856006392874
 10
5659.125596316037
 20
4615.856006392874
 10
5659.125596316037
 20
4615.856006392874
 10
5654.725596316043
 20
4615.856006392874
 10
5654.725596316043
 20
4615.856006392874
 10
5654.725596316043
 20
4601.856006392874
 97
0
 75
1
 76
1
 98
0
  0
HATCH
  5
110
330
17
100
AcDbEntity
  8
Hachura
 62
7
100
AcDbHatch
 10
0.0
 20
0.0
 30
0.0
210
0.0
220
0.0
230
1.0
  2
SOLID
 70
1
 71
0
 91
1
 92
3
 72
0
 73
1
 93
8
 10
5654.725596316043
 20
4531.856006392896
 10
5659.125596316037
 20
4531.856006392896
 10
5659.125596316037
 20
4531.856006392896
 10
5659.125596316037
 20
4545.856006392896
 10
5659.125596316037
 20
4545.856006392896
 10
5654.725596316043
 20
4545.856006392896
 10
5654.725596316043
 20
4545.856006392896
 10
5654.725596316043
 20
4531.856006392896
 97
0
 75
1
 76
1
 98
0
  0
HATCH
  5
111
330
17
100
AcDbEntity
  8
Hachura
 62
7
100
AcDbHatch
 10
0.0
 20
0.0
 30
0.0
210
0.0
220
0.0
230
1.0
  2
SOLID
 70
1
 71
0
 91
1
 92
3
 72
0
 73
1
 93
8
 10
5709.525596316032
 20
4601.856006392874
 10
5705.125596316037
 20
4601.856006392874
 10
5705.125596316037
 20
4601.856006392874
 10
5705.125596316037
 20
4615.856006392874
 10
5705.125596316037
 20
4615.856006392874
 10
5709.525596316032
 20
4615.856006392874
 10
5709.525596316032
 20
4615.856006392874
 10
5709.525596316032
 20
4601.856006392874
 97
0
 75
1
 76
1
 98
0
  0
HATCH
  5
112
330
17
100
AcDbEntity
  8
Hachura
 62
7
100
AcDbHatch
 10
0.0
 20
0.0
 30
0.0
210
0.0
220
0.0
230
1.0
  2
SOLID
 70
1
 71
0
 91
1
 92
3
 72
0
 73
1
 93
8
 10
5709.525596316032
 20
4531.856006392896
 10
5705.125596316037
 20
4531.856006392896
 10
5705.125596316037
 20
4531.856006392896
 10
5705.125596316037
 20
4545.856006392896
 10
5705.125596316037
 20
4545.856006392896
 10
5709.525596316032
 20
4545.856006392896
 10
5709.525596316032
 20
4545.856006392896
 10
5709.525596316032
 20
4531.856006392896
 97
0
 75
1
 76
1
 98
0
  0
HATCH
  5
113
330
17
100
AcDbEntity
  8
Hachura
 62
7
100
AcDbHatch
 10
0.0
 20
0.0
 30
0.0
210
0.0
220
0.0
230
1.0
  2
SOLID
 70
1
 71
0
 91
1
 92
3
 72
0
 73
1
 93
8
 10
5654.725596316043
 20
4568.856006392885
 10
5659.125596316037
 20
4568.856006392885
 10
5659.125596316037
 20
4568.856006392885
 10
5659.125596316037
 20
4582.856006392885
 10
5659.125596316037
 20
4582.856006392885
 10
5654.725596316043
 20
4582.856006392885
 10
5654.725596316043
 20
4582.856006392885
 10
5654.725596316043
 20
4568.856006392885
 97
0
 75
1
 76
1
 98
0
  0
HATCH
  5
114
330
17
100
AcDbEntity
  8
Hachura
 62
7
100
AcDbHatch
 10
0.0
 20
0.0
 30
0.0
210
0.0
220
0.0
230
1.0
  2
SOLID
 70
1
 71
0
 91
1
 92
3
 72
0
 73
1
 93
8
 10
5709.525596316032
 20
4568.856006392885
 10
5705.125596316037
 20
4568.856006392885
 10
5705.125596316037
 20
4568.856006392885
 10
5705.125596316037
 20
4582.856006392885
 10
5705.125596316037
 20
4582.856006392885
 10
5709.525596316032
 20
4582.856006392885
 10
5709.525596316032
 20
4582.856006392885
 10
5709.525596316032
 20
4568.856006392885
 97
0
 75
1
 76
1
 98
0
  0
HATCH
  5
115
330
17
100
AcDbEntity
  8
COTA
 62
7
100
AcDbHatch
 10
0.0
 20
0.0
 30
0.0
210
0.0
220
0.0
230
1.0
  2
SOLID
 70
1
 71
0
 91
1
 92
3
 72
0
 73
1
 93
8
 10
5803.579374122286
 20
4198.615059391975
 10
5803.579374122286
 20
4215.615059391955
 10
5803.579374122286
 20
4215.615059391955
 10
5492.579374122293
 20
4215.615059391955
 10
5492.579374122293
 20
4215.615059391955
 10
5492.579374122293
 20
4198.615059391957
 10
5492.579374122293
 20
4198.615059391957
 10
5803.579374122286
 20
4198.615059391975
 97
0
 75
1
 76
1
 98
0
  0
LINE
  5
116
330
17
100
AcDbEntity
  8
0
 62
7
370
25
100
AcDbLine
 10
5328.291076537818
 20
3804.8560063929035
 30
0.0
 11
5328.291076537818
 21
4004.0995198037926
 31
0.0
  0
LWPOLYLINE
  5
117
330
17
100
AcDbEntity
  8
Texto Seção
 62
7
370
25
100
AcDbPolyline
 90
4
 70
1
 10
6158.719601608861
 20
4045.327037342132
 10
6302.481143181856
 20
4045.327037342132
 10
6302.481143181856
 20
4022.126160274384
 10
6158.719601608861
 20
4022.126160274384
  0
LWPOLYLINE
  5
118
330
17
100
AcDbEntity
  8
Texto Seção
 62
7
370
25
100
AcDbPolyline
 90
4
 70
1
 10
5191.3991928594
 20
4045.327037342135
 10
5337.992757979835
 20
4045.327037342135
 10
5337.992757979835
 20
4022.126160274386
 10
5191.3991928594
 20
4022.126160274386
  0
TEXT
  5
119
330
17
100
AcDbEntity
  8
Texto Seção
 62
7
370
25
100
AcDbText
 10
6160.042777786768
 20
4026.877755361604
 30
0.0
 40
13.0
  1
VEM DA V423
100
AcDbText
  0
TEXT
  5
11A
330
17
100
AcDbEntity
  8
Texto Seção
 62
7
370
25
100
AcDbText
 10
5195.554392584747
 20
4026.877755361606
 30
0.0
 40
13.0
  1
VEM DA V422
100
AcDbText
  0
ENDSEC
  0
SECTION
  2
OBJECTS
  0
DICTIONARY
  5
A
330
0
100
AcDbDictionary
281
1
  3
ACAD_COLOR
350
B
  3
ACAD_GROUP
350
C
  3
ACAD_LAYOUT
350
D
  3
ACAD_MATERIAL
350
E
  3
ACAD_MLEADERSTYLE
350
F
  3
ACAD_MLINESTYLE
350
10
  3
ACAD_PLOTSETTINGS
350
11
  3
ACAD_PLOTSTYLENAME
350
12
  3
ACAD_SCALELIST
350
14
  3
ACAD_TABLESTYLE
350
15
  3
ACAD_VISUALSTYLE
350
16
  3
EZDXF_META
350
2D
  0
DICTIONARY
  5
B
330
A
100
AcDbDictionary
281
1
  0
DICTIONARY
  5
C
330
A
100
AcDbDictionary
281
1
  0
DICTIONARY
  5
D
330
A
100
AcDbDictionary
281
1
  3
Model
350
1A
  3
Layout1
350
1E
  0
DICTIONARY
  5
E
330
A
100
AcDbDictionary
281
1
  3
ByBlock
350
1F
  3
ByLayer
350
20
  3
Global
350
21
  0
DICTIONARY
  5
F
330
A
100
AcDbDictionary
281
1
  3
Standard
350
2C
  0
DICTIONARY
  5
10
330
A
100
AcDbDictionary
281
1
  3
Standard
350
22
  0
DICTIONARY
  5
11
330
A
100
AcDbDictionary
281
1
  0
ACDBDICTIONARYWDFLT
  5
12
330
A
100
AcDbDictionary
281
1
  3
Normal
350
13
100
AcDbDictionaryWithDefault
340
13
  0
ACDBPLACEHOLDER
  5
13
330
12
  0
DICTIONARY
  5
14
330
A
100
AcDbDictionary
281
1
  0
DICTIONARY
  5
15
330
A
100
AcDbDictionary
281
1
  0
DICTIONARY
  5
16
330
A
100
AcDbDictionary
281
1
  0
LAYOUT
  5
1A
330
D
100
AcDbPlotSettings
  1

  4
A3
  6

 40
7.5
 41
20.0
 42
7.5
 43
20.0
 44
420.0
 45
297.0
 46
0.0
 47
0.0
 48
0.0
 49
0.0
140
0.0
141
0.0
142
1.0
143
1.0
 70
1024
 72
1
 73
0
 74
5
  7

 75
16
 76
0
 77
2
 78
300
147
1.0
148
0.0
149
0.0
100
AcDbLayout
  1
Model
 70
1
 71
0
 10
0.0
 20
0.0
 11
420.0
 21
297.0
 12
0.0
 22
0.0
 32
0.0
 14
1e+20
 24
1e+20
 34
1e+20
 15
-1e+20
 25
-1e+20
 35
-1e+20
146
0.0
 13
0.0
 23
0.0
 33
0.0
 16
1.0
 26
0.0
 36
0.0
 17
0.0
 27
1.0
 37
0.0
 76
1
330
17
  0
LAYOUT
  5
1E
330
D
100
AcDbPlotSettings
  1

  4
A3
  6

 40
7.5
 41
20.0
 42
7.5
 43
20.0
 44
420.0
 45
297.0
 46
0.0
 47
0.0
 48
0.0
 49
0.0
140
0.0
141
0.0
142
1.0
143
1.0
 70
0
 72
1
 73
0
 74
5
  7

 75
16
 76
0
 77
2
 78
300
147
1.0
148
0.0
149
0.0
100
AcDbLayout
  1
Layout1
 70
1
 71
1
 10
0.0
 20
0.0
 11
420.0
 21
297.0
 12
0.0
 22
0.0
 32
0.0
 14
1e+20
 24
1e+20
 34
1e+20
 15
-1e+20
 25
-1e+20
 35
-1e+20
146
0.0
 13
0.0
 23
0.0
 33
0.0
 16
1.0
 26
0.0
 36
0.0
 17
0.0
 27
1.0
 37
0.0
 76
1
330
1B
  0
MATERIAL
  5
1F
102
{ACAD_REACTORS
330
E
102
}
330
E
100
AcDbMaterial
  1
ByBlock
  2

 70
0
 40
1.0
 71
1
 41
1.0
 91
-1023410177
 42
1.0
 72
1
  3

 73
1
 74
1
 75
1
 44
0.5
 73
0
 45
1.0
 46
1.0
 77
1
  4

 78
1
 79
1
170
1
 48
1.0
171
1
  6

172
1
173
1
174
1
140
1.0
141
1.0
175
1
  7

176
1
177
1
178
1
143
1.0
179
1
  8

270
1
271
1
272
1
145
1.0
146
1.0
273
1
  9

274
1
275
1
276
1
 42
1.0
 72
1
  3

 73
1
 74
1
 75
1
 94
63
  0
MATERIAL
  5
20
102
{ACAD_REACTORS
330
E
102
}
330
E
100
AcDbMaterial
  1
ByLayer
  2

 70
0
 40
1.0
 71
1
 41
1.0
 91
-1023410177
 42
1.0
 72
1
  3

 73
1
 74
1
 75
1
 44
0.5
 73
0
 45
1.0
 46
1.0
 77
1
  4

 78
1
 79
1
170
1
 48
1.0
171
1
  6

172
1
173
1
174
1
140
1.0
141
1.0
175
1
  7

176
1
177
1
178
1
143
1.0
179
1
  8

270
1
271
1
272
1
145
1.0
146
1.0
273
1
  9

274
1
275
1
276
1
 42
1.0
 72
1
  3

 73
1
 74
1
 75
1
 94
63
  0
MATERIAL
  5
21
102
{ACAD_REACTORS
330
E
102
}
330
E
100
AcDbMaterial
  1
Global
  2

 70
0
 40
1.0
 71
1
 41
1.0
 91
-1023410177
 42
1.0
 72
1
  3

 73
1
 74
1
 75
1
 44
0.5
 73
0
 45
1.0
 46
1.0
 77
1
  4

 78
1
 79
1
170
1
 48
1.0
171
1
  6

172
1
173
1
174
1
140
1.0
141
1.0
175
1
  7

176
1
177
1
178
1
143
1.0
179
1
  8

270
1
271
1
272
1
145
1.0
146
1.0
273
1
  9

274
1
275
1
276
1
 42
1.0
 72
1
  3

 73
1
 74
1
 75
1
 94
63
  0
MLINESTYLE
  5
22
102
{ACAD_REACTORS
330
10
102
}
330
10
100
AcDbMlineStyle
  2
Standard
 70
0
  3

 62
256
 51
90.0
 52
90.0
 71
2
 49
0.5
 62
256
  6
BYLAYER
 49
-0.5
 62
256
  6
BYLAYER
  0
MLEADERSTYLE
  5
2C
102
{ACAD_REACTORS
330
F
102
}
330
F
100
AcDbMLeaderStyle
179
2
170
2
171
1
172
0
 90
2
 40
0.0
 41
0.0
173
1
 91
-1056964608
 92
-2
290
1
 42
2.0
291
1
 43
8.0
  3
Standard
 44
4.0
300

342
29
174
1
175
1
176
0
178
1
 93
-1056964608
 45
4.0
292
0
297
0
 46
4.0
 94
-1056964608
 47
1.0
 49
1.0
140
1.0
294
1
141
0.0
177
0
142
1.0
295
0
296
0
143
3.75
271
0
272
9
273
9
  0
DICTIONARY
  5
2D
330
A
100
AcDbDictionary
280
1
281
1
  3
CREATED_BY_EZDXF
350
2E
  3
WRITTEN_BY_EZDXF
350
11D
  0
DICTIONARYVAR
  5
2E
330
2D
100
DictionaryVariables
280
0
  1
1.4.3 @ 2026-06-10T16:54:43.075369+00:00
  0
DICTIONARYVAR
  5
11D
330
2D
100
DictionaryVariables
280
0
  1
1.4.3 @ 2026-06-10T16:54:43.084587+00:00
  0
ENDSEC
  0
EOF
