  0
SECTION
  2
HEADER
  9
$ACADVER
  1
AC1024
  9
$ACADMAINTVER
 70
6
  9
$DWGCODEPAGE
  3
ANSI_1252
  9
$LASTSAVEDBY
  1
ezdxf
  9
$INSBASE
 10
0.0
 20
0.0
 30
0.0
  9
$EXTMIN
 10
1e+20
 20
1e+20
 30
1e+20
  9
$EXTMAX
 10
-1e+20
 20
-1e+20
 30
-1e+20
  9
$LIMMIN
 10
0.0
 20
0.0
  9
$LIMMAX
 10
420.0
 20
297.0
  9
$ORTHOMODE
 70
0
  9
$REGENMODE
 70
1
  9
$FILLMODE
 70
1
  9
$QTEXTMODE
 70
0
  9
$MIRRTEXT
 70
1
  9
$LTSCALE
 40
1.0
  9
$ATTMODE
 70
1
  9
$TEXTSIZE
 40
2.5
  9
$TRACEWID
 40
1.0
  9
$TEXTSTYLE
  7
Standard
  9
$CLAYER
  8
0
  9
$CELTYPE
  6
ByLayer
  9
$CECOLOR
 62
256
  9
$CELTSCALE
 40
1.0
  9
$DISPSILH
 70
0
  9
$DIMSCALE
 40
1.0
  9
$DIMASZ
 40
2.5
  9
$DIMEXO
 40
0.625
  9
$DIMDLI
 40
3.75
  9
$DIMRND
 40
0.0
  9
$DIMDLE
 40
0.0
  9
$DIMEXE
 40
1.25
  9
$DIMTP
 40
0.0
  9
$DIMTM
 40
0.0
  9
$DIMTXT
 40
2.5
  9
$DIMCEN
 40
2.5
  9
$DIMTSZ
 40
0.0
  9
$DIMTOL
 70
0
  9
$DIMLIM
 70
0
  9
$DIMTIH
 70
0
  9
$DIMTOH
 70
0
  9
$DIMSE1
 70
0
  9
$DIMSE2
 70
0
  9
$DIMTAD
 70
1
  9
$DIMZIN
 70
8
  9
$DIMBLK
  1

  9
$DIMASO
 70
1
  9
$DIMSHO
 70
1
  9
$DIMPOST
  1

  9
$DIMAPOST
  1

  9
$DIMALT
 70
0
  9
$DIMALTD
 70
3
  9
$DIMALTF
 40
0.03937007874
  9
$DIMLFAC
 40
1.0
  9
$DIMTOFL
 70
1
  9
$DIMTVP
 40
0.0
  9
$DIMTIX
 70
0
  9
$DIMSOXD
 70
0
  9
$DIMSAH
 70
0
  9
$DIMBLK1
  1

  9
$DIMBLK2
  1

  9
$DIMSTYLE
  2
ISO-25
  9
$DIMCLRD
 70
0
  9
$DIMCLRE
 70
0
  9
$DIMCLRT
 70
0
  9
$DIMTFAC
 40
1.0
  9
$DIMGAP
 40
0.625
  9
$DIMJUST
 70
0
  9
$DIMSD1
 70
0
  9
$DIMSD2
 70
0
  9
$DIMTOLJ
 70
0
  9
$DIMTZIN
 70
8
  9
$DIMALTZ
 70
0
  9
$DIMALTTZ
 70
0
  9
$DIMUPT
 70
0
  9
$DIMDEC
 70
2
  9
$DIMTDEC
 70
2
  9
$DIMALTU
 70
2
  9
$DIMALTTD
 70
3
  9
$DIMTXSTY
  7
Standard
  9
$DIMAUNIT
 70
0
  9
$DIMADEC
 70
0
  9
$DIMALTRND
 40
0.0
  9
$DIMAZIN
 70
0
  9
$DIMDSEP
 70
44
  9
$DIMATFIT
 70
3
  9
$DIMFRAC
 70
0
  9
$DIMLDRBLK
  1

  9
$DIMLUNIT
 70
2
  9
$DIMLWD
 70
-2
  9
$DIMLWE
 70
-2
  9
$DIMTMOVE
 70
0
  9
$DIMFXL
 40
1.0
  9
$DIMFXLON
 70
0
  9
$DIMJOGANG
 40
0.785398163397
  9
$DIMTFILL
 70
0
  9
$DIMTFILLCLR
 70
0
  9
$DIMARCSYM
 70
0
  9
$DIMLTYPE
  6

  9
$DIMLTEX1
  6

  9
$DIMLTEX2
  6

  9
$DIMTXTDIRECTION
 70
0
  9
$LUNITS
 70
2
  9
$LUPREC
 70
4
  9
$SKETCHINC
 40
1.0
  9
$FILLETRAD
 40
10.0
  9
$AUNITS
 70
0
  9
$AUPREC
 70
2
  9
$MENU
  1
.
  9
$ELEVATION
 40
0.0
  9
$PELEVATION
 40
0.0
  9
$THICKNESS
 40
0.0
  9
$LIMCHECK
 70
0
  9
$CHAMFERA
 40
0.0
  9
$CHAMFERB
 40
0.0
  9
$CHAMFERC
 40
0.0
  9
$CHAMFERD
 40
0.0
  9
$SKPOLY
 70
0
  9
$TDCREATE
 40
2461202.579664352
  9
$TDUCREATE
 40
2458532.153996898
  9
$TDUPDATE
 40
2461202.579664352
  9
$TDUUPDATE
 40
2458532.1544311
  9
$TDINDWG
 40
0.0
  9
$TDUSRTIMER
 40
0.0
  9
$USRTIMER
 70
1
  9
$ANGBASE
 50
0.0
  9
$ANGDIR
 70
0
  9
$PDMODE
 70
0
  9
$PDSIZE
 40
0.0
  9
$PLINEWID
 40
0.0
  9
$SPLFRAME
 70
0
  9
$SPLINETYPE
 70
6
  9
$SPLINESEGS
 70
8
  9
$HANDSEED
  5
140
  9
$SURFTAB1
 70
6
  9
$SURFTAB2
 70
6
  9
$SURFTYPE
 70
6
  9
$SURFU
 70
6
  9
$SURFV
 70
6
  9
$UCSBASE
  2

  9
$UCSNAME
  2

  9
$UCSORG
 10
0.0
 20
0.0
 30
0.0
  9
$UCSXDIR
 10
1.0
 20
0.0
 30
0.0
  9
$UCSYDIR
 10
0.0
 20
1.0
 30
0.0
  9
$UCSORTHOREF
  2

  9
$UCSORTHOVIEW
 70
0
  9
$UCSORGTOP
 10
0.0
 20
0.0
 30
0.0
  9
$UCSORGBOTTOM
 10
0.0
 20
0.0
 30
0.0
  9
$UCSORGLEFT
 10
0.0
 20
0.0
 30
0.0
  9
$UCSORGRIGHT
 10
0.0
 20
0.0
 30
0.0
  9
$UCSORGFRONT
 10
0.0
 20
0.0
 30
0.0
  9
$UCSORGBACK
 10
0.0
 20
0.0
 30
0.0
  9
$PUCSBASE
  2

  9
$PUCSNAME
  2

  9
$PUCSORG
 10
0.0
 20
0.0
 30
0.0
  9
$PUCSXDIR
 10
1.0
 20
0.0
 30
0.0
  9
$PUCSYDIR
 10
0.0
 20
1.0
 30
0.0
  9
$PUCSORTHOREF
  2

  9
$PUCSORTHOVIEW
 70
0
  9
$PUCSORGTOP
 10
0.0
 20
0.0
 30
0.0
  9
$PUCSORGBOTTOM
 10
0.0
 20
0.0
 30
0.0
  9
$PUCSORGLEFT
 10
0.0
 20
0.0
 30
0.0
  9
$PUCSORGRIGHT
 10
0.0
 20
0.0
 30
0.0
  9
$PUCSORGFRONT
 10
0.0
 20
0.0
 30
0.0
  9
$PUCSORGBACK
 10
0.0
 20
0.0
 30
0.0
  9
$USERI1
 70
0
  9
$USERI2
 70
0
  9
$USERI3
 70
0
  9
$USERI4
 70
0
  9
$USERI5
 70
0
  9
$USERR1
 40
0.0
  9
$USERR2
 40
0.0
  9
$USERR3
 40
0.0
  9
$USERR4
 40
0.0
  9
$USERR5
 40
0.0
  9
$WORLDVIEW
 70
1
  9
$SHADEDGE
 70
3
  9
$SHADEDIF
 70
70
  9
$TILEMODE
 70
1
  9
$MAXACTVP
 70
64
  9
$PINSBASE
 10
0.0
 20
0.0
 30
0.0
  9
$PLIMCHECK
 70
0
  9
$PEXTMIN
 10
1e+20
 20
1e+20
 30
1e+20
  9
$PEXTMAX
 10
-1e+20
 20
-1e+20
 30
-1e+20
  9
$PLIMMIN
 10
0.0
 20
0.0
  9
$PLIMMAX
 10
420.0
 20
297.0
  9
$UNITMODE
 70
0
  9
$VISRETAIN
 70
1
  9
$PLINEGEN
 70
0
  9
$PSLTSCALE
 70
1
  9
$TREEDEPTH
 70
3020
  9
$CMLSTYLE
  2
Standard
  9
$CMLJUST
 70
0
  9
$CMLSCALE
 40
20.0
  9
$PROXYGRAPHICS
 70
1
  9
$MEASUREMENT
 70
1
  9
$CELWEIGHT
370
-1
  9
$ENDCAPS
280
0
  9
$JOINSTYLE
280
0
  9
$LWDISPLAY
290
0
  9
$INSUNITS
 70
6
  9
$HYPERLINKBASE
  1

  9
$STYLESHEET
  1

  9
$XEDIT
290
1
  9
$CEPSNTYPE
380
0
  9
$PSTYLEMODE
290
1
  9
$FINGERPRINTGUID
  2
{4A0132E8-E3BD-4FD1-A6E0-578EFB876F57}
  9
$VERSIONGUID
  2
{7206352A-E0C5-4DFC-A9E0-2CEEFAE78B7A}
  9
$EXTNAMES
290
1
  9
$PSVPSCALE
 40
0.0
  9
$OLESTARTUP
290
0
  9
$SORTENTS
280
127
  9
$INDEXCTL
280
0
  9
$HIDETEXT
280
1
  9
$XCLIPFRAME
280
1
  9
$HALOGAP
280
0
  9
$OBSCOLOR
 70
257
  9
$OBSLTYPE
280
0
  9
$INTERSECTIONDISPLAY
280
0
  9
$INTERSECTIONCOLOR
 70
257
  9
$DIMASSOC
280
2
  9
$PROJECTNAME
  1

  9
$CAMERADISPLAY
290
0
  9
$LENSLENGTH
 40
50.0
  9
$CAMERAHEIGHT
 40
0.0
  9
$STEPSPERSEC
 40
24.0
  9
$STEPSIZE
 40
100.0
  9
$3DDWFPREC
 40
2.0
  9
$PSOLWIDTH
 40
0.005
  9
$PSOLHEIGHT
 40
0.08
  9
$LOFTANG1
 40
1.570796326795
  9
$LOFTANG2
 40
1.570796326795
  9
$LOFTMAG1
 40
0.0
  9
$LOFTMAG2
 40
0.0
  9
$LOFTPARAM
 70
7
  9
$LOFTNORMALS
280
1
  9
$LATITUDE
 40
37.795
  9
$LONGITUDE
 40
-122.394
  9
$NORTHDIRECTION
 40
0.0
  9
$TIMEZONE
 70
-8000
  9
$LIGHTGLYPHDISPLAY
280
1
  9
$TILEMODELIGHTSYNCH
280
1
  9
$CMATERIAL
347
20
  9
$SOLIDHIST
280
0
  9
$SHOWHIST
280
1
  9
$DWFFRAME
280
2
  9
$DGNFRAME
280
2
  9
$REALWORLDSCALE
290
1
  9
$INTERFERECOLOR
 62
256
  9
$CSHADOW
280
0
  9
$SHADOWPLANELOCATION
 40
0.0
  0
ENDSEC
  0
SECTION
  2
CLASSES
  0
CLASS
  1
ACDBDICTIONARYWDFLT
  2
AcDbDictionaryWithDefault
  3
ObjectDBX Classes
 90
0
 91
0
280
0
281
0
  0
CLASS
  1
SUN
  2
AcDbSun
  3
SCENEOE
 90
1153
 91
0
280
0
281
0
  0
CLASS
  1
VISUALSTYLE
  2
AcDbVisualStyle
  3
ObjectDBX Classes
 90
4095
 91
0
280
0
281
0
  0
CLASS
  1
MATERIAL
  2
AcDbMaterial
  3
ObjectDBX Classes
 90
1153
 91
0
280
0
281
0
  0
CLASS
  1
SCALE
  2
AcDbScale
  3
ObjectDBX Classes
 90
1153
 91
0
280
0
281
0
  0
CLASS
  1
TABLESTYLE
  2
AcDbTableStyle
  3
ObjectDBX Classes
 90
4095
 91
0
280
0
281
0
  0
CLASS
  1
MLEADERSTYLE
  2
AcDbMLeaderStyle
  3
ACDB_MLEADERSTYLE_CLASS
 90
4095
 91
0
280
0
281
0
  0
CLASS
  1
DICTIONARYVAR
  2
AcDbDictionaryVar
  3
ObjectDBX Classes
 90
0
 91
0
280
0
281
0
  0
CLASS
  1
CELLSTYLEMAP
  2
AcDbCellStyleMap
  3
ObjectDBX Classes
 90
1152
 91
0
280
0
281
0
  0
CLASS
  1
MENTALRAYRENDERSETTINGS
  2
AcDbMentalRayRenderSettings
  3
SCENEOE
 90
1024
 91
0
280
0
281
0
  0
CLASS
  1
ACDBDETAILVIEWSTYLE
  2
AcDbDetailViewStyle
  3
ObjectDBX Classes
 90
1025
 91
0
280
0
281
0
  0
CLASS
  1
ACDBSECTIONVIEWSTYLE
  2
AcDbSectionViewStyle
  3
ObjectDBX Classes
 90
1025
 91
0
280
0
281
0
  0
CLASS
  1
RASTERVARIABLES
  2
AcDbRasterVariables
  3
ISM
 90
0
 91
0
280
0
281
0
  0
CLASS
  1
LAYOUT
  2
AcDbLayout
  3
ObjectDBX Classes
 90
0
 91
0
280
0
281
0
  0
CLASS
  1
ACDBPLACEHOLDER
  2
AcDbPlaceHolder
  3
ObjectDBX Classes
 90
0
 91
0
280
0
281
0
  0
ENDSEC
  0
SECTION
  2
TABLES
  0
TABLE
  2
VPORT
  5
8
330
0
100
AcDbSymbolTable
 70
1
  0
VPORT
  5
23
330
8
100
AcDbSymbolTableRecord
100
AcDbViewportTableRecord
  2
*Active
 70
0
 10
0.0
 20
0.0
 11
1.0
 21
1.0
 12
0.0
 22
0.0
 13
0.0
 23
0.0
 14
0.5
 24
0.5
 15
0.5
 25
0.5
 16
0.0
 26
0.0
 36
1.0
 17
0.0
 27
0.0
 37
0.0
 40
1000.0
 41
1.34
 42
50.0
 43
0.0
 44
0.0
 50
0.0
 51
0.0
 71
0
 72
1000
 73
1
 74
3
 75
0
 76
0
 77
0
 78
0
281
0
 65
0
146
0.0
  0
ENDTAB
  0
TABLE
  2
LTYPE
  5
2
330
0
100
AcDbSymbolTable
 70
3
  0
LTYPE
  5
24
330
2
100
AcDbSymbolTableRecord
100
AcDbLinetypeTableRecord
  2
ByBlock
 70
0
  3

 72
65
 73
0
 40
0.0
  0
LTYPE
  5
25
330
2
100
AcDbSymbolTableRecord
100
AcDbLinetypeTableRecord
  2
ByLayer
 70
0
  3

 72
65
 73
0
 40
0.0
  0
LTYPE
  5
26
330
2
100
AcDbSymbolTableRecord
100
AcDbLinetypeTableRecord
  2
Continuous
 70
0
  3

 72
65
 73
0
 40
0.0
  0
ENDTAB
  0
TABLE
  2
LAYER
  5
1
330
0
100
AcDbSymbolTable
 70
17
  0
LAYER
  5
27
330
1
100
AcDbSymbolTableRecord
100
AcDbLayerTableRecord
  2
0
 70
0
 62
7
  6
Continuous
370
-3
390
13
347
21
  0
LAYER
  5
28
330
1
100
AcDbSymbolTableRecord
100
AcDbLayerTableRecord
  2
Defpoints
 70
0
 62
7
  6
Continuous
290
0
370
-3
390
13
347
21
  0
LAYER
  5
2F
330
1
100
AcDbSymbolTableRecord
100
AcDbLayerTableRecord
  2
texto
 70
0
 62
7
  6
Continuous
370
-3
390
13
347
21
  0
LAYER
  5
30
330
1
100
AcDbSymbolTableRecord
100
AcDbLayerTableRecord
  2
COTA
 70
0
 62
7
  6
Continuous
370
-3
390
13
347
21
  0
LAYER
  5
31
330
1
100
AcDbSymbolTableRecord
100
AcDbLayerTableRecord
  2
SCO-___-LAJ
 70
0
 62
7
  6
Continuous
370
-3
390
13
347
21
  0
LAYER
  5
32
330
1
100
AcDbSymbolTableRecord
100
AcDbLayerTableRecord
  2
presilha
 70
0
 62
7
  6
Continuous
370
-3
390
13
347
21
  0
LAYER
  5
33
330
1
100
AcDbSymbolTableRecord
100
AcDbLayerTableRecord
  2
Texto Seção
 70
0
 62
7
  6
Continuous
370
-3
390
13
347
21
  0
LAYER
  5
34
330
1
100
AcDbSymbolTableRecord
100
AcDbLayerTableRecord
  2
Hachura
 70
0
 62
7
  6
Continuous
370
-3
390
13
347
21
  0
LAYER
  5
35
330
1
100
AcDbSymbolTableRecord
100
AcDbLayerTableRecord
  2
Painéis
 70
0
 62
7
  6
Continuous
370
-3
390
13
347
21
  0
LAYER
  5
36
330
1
100
AcDbSymbolTableRecord
100
AcDbLayerTableRecord
  2
Madeira
 70
0
 62
7
  6
Continuous
370
-3
390
13
347
21
  0
LAYER
  5
37
330
1
100
AcDbSymbolTableRecord
100
AcDbLayerTableRecord
  2
SARR_2.2x7
 70
0
 62
7
  6
Continuous
370
-3
390
13
347
21
  0
LAYER
  5
38
330
1
100
AcDbSymbolTableRecord
100
AcDbLayerTableRecord
  2
SARR_3.5x7
 70
0
 62
7
  6
Continuous
370
-3
390
13
347
21
  0
LAYER
  5
39
330
1
100
AcDbSymbolTableRecord
100
AcDbLayerTableRecord
  2
CONCRETO
 70
0
 62
7
  6
Continuous
370
-3
390
13
347
21
  0
LAYER
  5
3A
330
1
100
AcDbSymbolTableRecord
100
AcDbLayerTableRecord
  2
barrote
 70
0
 62
7
  6
Continuous
370
-3
390
13
347
21
  0
LAYER
  5
3B
330
1
100
AcDbSymbolTableRecord
100
AcDbLayerTableRecord
  2
5
 70
0
 62
7
  6
Continuous
370
-3
390
13
347
21
  0
LAYER
  5
3C
330
1
100
AcDbSymbolTableRecord
100
AcDbLayerTableRecord
  2
TENSOR
 70
0
 62
7
  6
Continuous
370
-3
390
13
347
21
  0
LAYER
  5
3D
330
1
100
AcDbSymbolTableRecord
100
AcDbLayerTableRecord
  2
detalhes
 70
0
 62
7
  6
Continuous
370
-3
390
13
347
21
  0
ENDTAB
  0
TABLE
  2
STYLE
  5
5
330
0
100
AcDbSymbolTable
 70
1
  0
STYLE
  5
29
330
5
100
AcDbSymbolTableRecord
100
AcDbTextStyleTableRecord
  2
Standard
 70
0
 40
0.0
 41
1.0
 50
0.0
 71
0
 42
2.5
  3
txt
  4

  0
ENDTAB
  0
TABLE
  2
VIEW
  5
7
330
0
100
AcDbSymbolTable
 70
0
  0
ENDTAB
  0
TABLE
  2
UCS
  5
6
330
0
100
AcDbSymbolTable
 70
0
  0
ENDTAB
  0
TABLE
  2
APPID
  5
3
330
0
100
AcDbSymbolTable
 70
3
  0
APPID
  5
2A
330
3
100
AcDbSymbolTableRecord
100
AcDbRegAppTableRecord
  2
ACAD
 70
0
  0
APPID
  5
13D
330
3
100
AcDbSymbolTableRecord
100
AcDbRegAppTableRecord
  2
HATCHBACKGROUNDCOLOR
 70
0
  0
APPID
  5
13E
330
3
100
AcDbSymbolTableRecord
100
AcDbRegAppTableRecord
  2
EZDXF
 70
0
  0
ENDTAB
  0
TABLE
  2
DIMSTYLE
  5
4
330
0
100
AcDbSymbolTable
 70
1
100
AcDbDimStyleTable
  0
DIMSTYLE
105
2B
330
4
100
AcDbSymbolTableRecord
100
AcDbDimStyleTableRecord
  2
Standard
 70
0
 40
1.0
 41
2.5
 42
0.625
 43
3.75
 44
1.25
 45
0.0
 46
0.0
 47
0.0
 48
0.0
 49
2.5
140
2.5
141
2.5
142
0.0
143
0.03937007874
144
1.0
145
0.0
146
1.0
147
0.625
148
0.0
 69
0
 70
0
 71
0
 72
0
 73
0
 74
0
 75
0
 76
0
 77
1
 78
8
 79
3
170
0
171
3
172
1
173
0
174
0
175
0
176
0
177
0
178
0
179
2
271
2
272
2
273
2
274
3
275
0
276
0
277
2
278
44
279
0
280
0
281
0
282
0
283
0
284
8
285
0
286
0
288
0
289
3
290
0
371
-2
372
-2
  0
ENDTAB
  0
TABLE
  2
BLOCK_RECORD
  5
9
330
0
100
AcDbSymbolTable
 70
2
  0
BLOCK_RECORD
  5
17
330
9
100
AcDbSymbolTableRecord
100
AcDbBlockTableRecord
  2
*Model_Space
340
1A
 70
0
280
1
281
0
  0
BLOCK_RECORD
  5
1B
330
9
100
AcDbSymbolTableRecord
100
AcDbBlockTableRecord
  2
*Paper_Space
340
1E
 70
0
280
1
281
0
  0
ENDTAB
  0
ENDSEC
  0
SECTION
  2
BLOCKS
  0
BLOCK
  5
18
330
17
100
AcDbEntity
  8
0
100
AcDbBlockBegin
  2
*Model_Space
 70
0
 10
0.0
 20
0.0
 30
0.0
  3
*Model_Space
  1

  0
ENDBLK
  5
19
330
17
100
AcDbEntity
  8
0
100
AcDbBlockEnd
  0
BLOCK
  5
1C
330
1B
100
AcDbEntity
  8
0
100
AcDbBlockBegin
  2
*Paper_Space
 70
0
 10
0.0
 20
0.0
 30
0.0
  3
*Paper_Space
  1

  0
ENDBLK
  5
1D
330
1B
100
AcDbEntity
  8
0
100
AcDbBlockEnd
  0
ENDSEC
  0
SECTION
  2
ENTITIES
  0
LINE
  5
3E
330
17
100
AcDbEntity
  8
Defpoints
 62
7
370
25
100
AcDbLine
 10
3574.484823006911
 20
2352.705791019552
 30
0.0
 11
3574.484823006911
 21
2477.705791019552
 31
0.0
  0
LINE
  5
3F
330
17
100
AcDbEntity
  8
presilha
 62
7
370
25
100
AcDbLine
 10
3531.4176238723726
 20
2264.072457686252
 30
0.0
 11
3531.4176238723726
 21
2259.4726176862664
 31
0.0
  0
LINE
  5
40
330
17
100
AcDbEntity
  8
presilha
 62
7
370
25
100
AcDbLine
 10
3531.4176238723726
 20
2259.4726176862664
 30
0.0
 11
3511.4172593680205
 21
2259.472617686259
 31
0.0
  0
LINE
  5
41
330
17
100
AcDbEntity
  8
presilha
 62
7
370
25
100
AcDbLine
 10
3510.4172593680205
 20
2267.0724576862526
 30
0.0
 11
3511.4172593680205
 21
2267.0724576862526
 31
0.0
  0
LINE
  5
42
330
17
100
AcDbEntity
  8
presilha
 62
7
370
25
100
AcDbLine
 10
3511.4172593680205
 20
2267.0724576862526
 30
0.0
 11
3511.4172593680205
 21
2255.0724576862526
 31
0.0
  0
LINE
  5
43
330
17
100
AcDbEntity
  8
presilha
 62
7
370
25
100
AcDbLine
 10
3511.4172593680205
 20
2255.0724576862526
 30
0.0
 11
3510.4172593680205
 21
2255.0724576862526
 31
0.0
  0
LINE
  5
44
330
17
100
AcDbEntity
  8
presilha
 62
7
370
25
100
AcDbLine
 10
3510.4172593680205
 20
2255.0724576862526
 30
0.0
 11
3510.4172593680205
 21
2267.0724576862526
 31
0.0
  0
LINE
  5
45
330
17
100
AcDbEntity
  8
presilha
 62
7
370
25
100
AcDbLine
 10
3514.4172593680187
 20
2270.7391243529187
 30
0.0
 11
3514.4172593680187
 21
2269.7391243529187
 31
0.0
  0
LINE
  5
46
330
17
100
AcDbEntity
  8
presilha
 62
7
370
25
100
AcDbLine
 10
3531.4176238723726
 20
2264.0724576862517
 30
0.0
 11
3512.797623872373
 21
2264.0724576862517
 31
0.0
  0
LINE
  5
47
330
17
100
AcDbEntity
  8
presilha
 62
7
370
25
100
AcDbLine
 10
3511.4176238723726
 20
2263.8324576862515
 30
0.0
 11
3511.4172593680187
 21
2269.979124352921
 31
0.0
  0
LINE
  5
48
330
17
100
AcDbEntity
  8
presilha
 62
7
370
25
100
AcDbLine
 10
3512.417623872372
 20
2264.452457686252
 30
0.0
 11
3512.4172593680187
 21
2269.3591243529186
 31
0.0
  0
LINE
  5
49
330
17
100
AcDbEntity
  8
presilha
 62
7
370
25
100
AcDbLine
 10
3514.4172593680187
 20
2270.7391243529187
 30
0.0
 11
3512.177259367999
 21
2270.7391243529187
 31
0.0
  0
LINE
  5
4A
330
17
100
AcDbEntity
  8
presilha
 62
7
370
25
100
AcDbLine
 10
3514.4172593680187
 20
2269.7391243529187
 30
0.0
 11
3512.7972593680192
 21
2269.7391243529187
 31
0.0
  0
LINE
  5
4B
330
17
100
AcDbEntity
  8
presilha
 62
7
370
25
100
AcDbLine
 10
3506.41725936802
 20
2265.4057910195875
 30
0.0
 11
3510.41725936802
 21
2265.4057910195875
 31
0.0
  0
LINE
  5
4C
330
17
100
AcDbEntity
  8
presilha
 62
7
370
25
100
AcDbLine
 10
3510.41725936802
 20
2265.4057910195875
 30
0.0
 11
3510.41725936802
 21
2256.739124352921
 31
0.0
  0
LINE
  5
4D
330
17
100
AcDbEntity
  8
presilha
 62
7
370
25
100
AcDbLine
 10
3510.41725936802
 20
2256.739124352921
 30
0.0
 11
3506.41725936802
 21
2256.739124352921
 31
0.0
  0
LINE
  5
4E
330
17
100
AcDbEntity
  8
presilha
 62
7
370
25
100
AcDbLine
 10
3506.41725936802
 20
2265.4057910195875
 30
0.0
 11
3506.41725936802
 21
2256.739124352921
 31
0.0
  0
LINE
  5
4F
330
17
100
AcDbEntity
  8
presilha
 62
7
370
25
100
AcDbLine
 10
3613.1520221414553
 20
2264.072457686252
 30
0.0
 11
3613.1520221414553
 21
2259.4726176862664
 31
0.0
  0
LINE
  5
50
330
17
100
AcDbEntity
  8
presilha
 62
7
370
25
100
AcDbLine
 10
3613.1520221414553
 20
2259.4726176862664
 30
0.0
 11
3633.1523866458074
 21
2259.472617686259
 31
0.0
  0
LINE
  5
51
330
17
100
AcDbEntity
  8
presilha
 62
7
370
25
100
AcDbLine
 10
3634.1523866458074
 20
2267.0724576862526
 30
0.0
 11
3633.1523866458074
 21
2267.0724576862526
 31
0.0
  0
LINE
  5
52
330
17
100
AcDbEntity
  8
presilha
 62
7
370
25
100
AcDbLine
 10
3633.1523866458074
 20
2267.0724576862526
 30
0.0
 11
3633.1523866458074
 21
2255.0724576862526
 31
0.0
  0
LINE
  5
53
330
17
100
AcDbEntity
  8
presilha
 62
7
370
25
100
AcDbLine
 10
3633.1523866458074
 20
2255.0724576862526
 30
0.0
 11
3634.1523866458074
 21
2255.0724576862526
 31
0.0
  0
LINE
  5
54
330
17
100
AcDbEntity
  8
presilha
 62
7
370
25
100
AcDbLine
 10
3634.1523866458074
 20
2255.0724576862526
 30
0.0
 11
3634.1523866458074
 21
2267.0724576862526
 31
0.0
  0
LINE
  5
55
330
17
100
AcDbEntity
  8
presilha
 62
7
370
25
100
AcDbLine
 10
3630.152386645809
 20
2270.7391243529187
 30
0.0
 11
3630.152386645809
 21
2269.7391243529187
 31
0.0
  0
LINE
  5
56
330
17
100
AcDbEntity
  8
presilha
 62
7
370
25
100
AcDbLine
 10
3613.1520221414553
 20
2264.0724576862517
 30
0.0
 11
3631.7720221414547
 21
2264.0724576862517
 31
0.0
  0
LINE
  5
57
330
17
100
AcDbEntity
  8
presilha
 62
7
370
25
100
AcDbLine
 10
3633.1520221414553
 20
2263.8324576862515
 30
0.0
 11
3633.152386645809
 21
2269.979124352921
 31
0.0
  0
LINE
  5
58
330
17
100
AcDbEntity
  8
presilha
 62
7
370
25
100
AcDbLine
 10
3632.1520221414557
 20
2264.452457686252
 30
0.0
 11
3632.152386645809
 21
2269.3591243529186
 31
0.0
  0
LINE
  5
59
330
17
100
AcDbEntity
  8
presilha
 62
7
370
25
100
AcDbLine
 10
3630.152386645809
 20
2270.7391243529187
 30
0.0
 11
3632.392386645829
 21
2270.7391243529187
 31
0.0
  0
LINE
  5
5A
330
17
100
AcDbEntity
  8
presilha
 62
7
370
25
100
AcDbLine
 10
3630.152386645809
 20
2269.7391243529187
 30
0.0
 11
3631.7723866458086
 21
2269.7391243529187
 31
0.0
  0
LINE
  5
5B
330
17
100
AcDbEntity
  8
presilha
 62
7
370
25
100
AcDbLine
 10
3638.152386645808
 20
2265.4057910195875
 30
0.0
 11
3634.152386645808
 21
2265.4057910195875
 31
0.0
  0
LINE
  5
5C
330
17
100
AcDbEntity
  8
presilha
 62
7
370
25
100
AcDbLine
 10
3634.152386645808
 20
2265.4057910195875
 30
0.0
 11
3634.152386645808
 21
2256.739124352921
 31
0.0
  0
LINE
  5
5D
330
17
100
AcDbEntity
  8
presilha
 62
7
370
25
100
AcDbLine
 10
3634.152386645808
 20
2256.739124352921
 30
0.0
 11
3638.152386645808
 21
2256.739124352921
 31
0.0
  0
LINE
  5
5E
330
17
100
AcDbEntity
  8
presilha
 62
7
370
25
100
AcDbLine
 10
3638.152386645808
 20
2265.4057910195875
 30
0.0
 11
3638.152386645808
 21
2256.739124352921
 31
0.0
  0
LINE
  5
5F
330
17
100
AcDbEntity
  8
0
 62
7
370
25
100
AcDbLine
 10
3505.284823006885
 20
2300.675848547843
 30
0.0
 11
3505.284823006885
 21
2288.675848547843
 31
0.0
  0
LINE
  5
60
330
17
100
AcDbEntity
  8
0
 62
7
370
25
100
AcDbLine
 10
3641.284823006914
 20
2297.675848547858
 30
0.0
 11
3641.284823006914
 21
2291.675848547858
 31
0.0
  0
LINE
  5
61
330
17
100
AcDbEntity
  8
0
 62
7
370
25
100
AcDbLine
 10
3639.284823006914
 20
2300.675848547858
 30
0.0
 11
3639.284823006914
 21
2288.675848547858
 31
0.0
  0
LINE
  5
62
330
17
100
AcDbEntity
  8
0
 62
7
370
25
100
AcDbLine
 10
3639.284823006914
 20
2291.675848547858
 30
0.0
 11
3641.284823006914
 21
2291.675848547858
 31
0.0
  0
LINE
  5
63
330
17
100
AcDbEntity
  8
0
 62
7
370
25
100
AcDbLine
 10
3505.284823006885
 20
2288.675848547843
 30
0.0
 11
3535.284823006885
 21
2288.675848547843
 31
0.0
  0
LINE
  5
64
330
17
100
AcDbEntity
  8
0
 62
7
370
25
100
AcDbLine
 10
3609.284823006914
 20
2293.675848547858
 30
0.0
 11
3639.284823006914
 21
2293.675848547858
 31
0.0
  0
LINE
  5
65
330
17
100
AcDbEntity
  8
0
 62
7
370
25
100
AcDbLine
 10
3609.284823006914
 20
2295.675848547858
 30
0.0
 11
3639.284823006914
 21
2295.675848547858
 31
0.0
  0
LINE
  5
66
330
17
100
AcDbEntity
  8
TENSOR
 62
7
370
25
100
AcDbLine
 10
3644.284823006914
 20
2294.675848547843
 30
0.0
 11
3499.981528828786
 21
2294.675848547843
 31
0.0
  0
LINE
  5
67
330
17
100
AcDbEntity
  8
0
 62
7
370
25
100
AcDbLine
 10
3639.284823006914
 20
2297.675848547858
 30
0.0
 11
3641.284823006914
 21
2297.675848547858
 31
0.0
  0
LINE
  5
68
330
17
100
AcDbEntity
  8
0
 62
7
370
25
100
AcDbLine
 10
3535.284823006885
 20
2293.675848547843
 30
0.0
 11
3505.284823006885
 21
2293.675848547843
 31
0.0
  0
LINE
  5
69
330
17
100
AcDbEntity
  8
0
 62
7
370
25
100
AcDbLine
 10
3535.284823006885
 20
2295.675848547843
 30
0.0
 11
3505.284823006885
 21
2295.675848547843
 31
0.0
  0
LINE
  5
6A
330
17
100
AcDbEntity
  8
0
 62
7
370
25
100
AcDbLine
 10
3505.284823006885
 20
2300.675848547843
 30
0.0
 11
3535.284823006885
 21
2300.675848547843
 31
0.0
  0
LINE
  5
6B
330
17
100
AcDbEntity
  8
0
 62
7
370
25
100
AcDbLine
 10
3639.284823006914
 20
2288.675848547858
 30
0.0
 11
3609.284823006914
 21
2288.675848547858
 31
0.0
  0
LINE
  5
6C
330
17
100
AcDbEntity
  8
0
 62
7
370
25
100
AcDbLine
 10
3639.284823006914
 20
2300.675848547858
 30
0.0
 11
3609.284823006914
 21
2300.675848547858
 31
0.0
  0
LINE
  5
6D
330
17
100
AcDbEntity
  8
0
 62
7
370
25
100
AcDbLine
 10
3503.284823006885
 20
2297.675848547843
 30
0.0
 11
3503.284823006885
 21
2291.675848547843
 31
0.0
  0
LINE
  5
6E
330
17
100
AcDbEntity
  8
0
 62
7
370
25
100
AcDbLine
 10
3505.284823006885
 20
2291.675848547843
 30
0.0
 11
3503.284823006885
 21
2291.675848547843
 31
0.0
  0
LINE
  5
6F
330
17
100
AcDbEntity
  8
0
 62
7
370
25
100
AcDbLine
 10
3503.284823006885
 20
2297.675848547843
 30
0.0
 11
3505.284823006885
 21
2297.675848547843
 31
0.0
  0
LINE
  5
70
330
17
100
AcDbEntity
  8
COTA
 62
7
370
25
100
AcDbLine
 10
3834.242829289048
 20
2401.967836359069
 30
0.0
 11
3834.242829289048
 21
2415.967836359068
 31
0.0
  0
LINE
  5
71
330
17
100
AcDbEntity
  8
COTA
 62
7
370
25
100
AcDbLine
 10
3834.242829289048
 20
2415.967836359068
 30
0.0
 11
4128.242829289054
 21
2415.967836359068
 31
0.0
  0
LINE
  5
72
330
17
100
AcDbEntity
  8
COTA
 62
7
370
25
100
AcDbLine
 10
4128.242829289054
 20
2401.967836359069
 30
0.0
 11
4128.242829289054
 21
2415.967836359068
 31
0.0
  0
LINE
  5
73
330
17
100
AcDbEntity
  8
Painéis
 62
7
370
25
100
AcDbLine
 10
3834.242829289048
 20
2401.967836359069
 30
0.0
 11
4128.242829289054
 21
2401.967836359069
 31
0.0
  0
LINE
  5
74
330
17
100
AcDbEntity
  8
Painéis
 62
7
370
25
100
AcDbLine
 10
3834.242829289048
 20
2371.967836359068
 30
0.0
 11
4128.242829289054
 21
2371.967836359068
 31
0.0
  0
LINE
  5
75
330
17
100
AcDbEntity
  8
Painéis
 62
7
370
25
100
AcDbLine
 10
3834.242829289048
 20
2371.967836359068
 30
0.0
 11
3834.242829289048
 21
2401.967836359069
 31
0.0
  0
LINE
  5
76
330
17
100
AcDbEntity
  8
Painéis
 62
7
370
25
100
AcDbLine
 10
3956.242829289055
 20
2371.967836359068
 30
0.0
 11
3956.242829289055
 21
2401.967836359069
 31
0.0
  0
LINE
  5
77
330
17
100
AcDbEntity
  8
Painéis
 62
7
370
25
100
AcDbLine
 10
4128.242829289054
 20
2371.967836359068
 30
0.0
 11
4128.242829289054
 21
2401.967836359069
 31
0.0
  0
LINE
  5
78
330
17
100
AcDbEntity
  8
SARR_2.2x7
 62
7
370
25
100
AcDbLine
 10
3841.242829289044
 20
2371.967836359068
 30
0.0
 11
3841.242829289044
 21
2401.967836359069
 31
0.0
  0
LINE
  5
79
330
17
100
AcDbEntity
  8
SARR_2.2x7
 62
7
370
25
100
AcDbLine
 10
4121.242829289054
 20
2371.967836359068
 30
0.0
 11
4121.242829289054
 21
2401.967836359069
 31
0.0
  0
LINE
  5
7A
330
17
100
AcDbEntity
  8
SARR_2.2x7
 62
7
370
25
100
AcDbLine
 10
3849.242829289048
 20
2399.767836359071
 30
0.0
 11
3956.242829289055
 21
2399.767836359103
 31
0.0
  0
LINE
  5
7B
330
17
100
AcDbEntity
  8
SARR_3.5x7
 62
7
370
25
100
AcDbLine
 10
3849.242829289048
 20
2401.967836359083
 30
0.0
 11
3849.24282928905
 21
2371.967836359068
 31
0.0
  0
LINE
  5
7C
330
17
100
AcDbEntity
  8
SARR_3.5x7
 62
7
370
25
100
AcDbLine
 10
3852.742829289047
 20
2399.767836359086
 30
0.0
 11
3852.742829289049
 21
2371.967836359068
 31
0.0
  0
LINE
  5
7D
330
17
100
AcDbEntity
  8
SARR_2.2x7
 62
7
370
25
100
AcDbLine
 10
3956.242829289053
 20
2399.767836359075
 30
0.0
 11
4113.24282928904
 21
2399.767836359075
 31
0.0
  0
LINE
  5
7E
330
17
100
AcDbEntity
  8
SARR_3.5x7
 62
7
370
25
100
AcDbLine
 10
4113.242829289044
 20
2401.967836359057
 30
0.0
 11
4113.24282928904
 21
2371.967836359068
 31
0.0
  0
LINE
  5
7F
330
17
100
AcDbEntity
  8
SARR_3.5x7
 62
7
370
25
100
AcDbLine
 10
4109.742829289043
 20
2399.76783635906
 30
0.0
 11
4109.742829289039
 21
2371.967836359068
 31
0.0
  0
LINE
  5
80
330
17
100
AcDbEntity
  8
SARR_3.5x7
 62
7
370
25
100
AcDbLine
 10
3959.742829289084
 20
2399.767836359127
 30
0.0
 11
3959.742829289107
 21
2371.967836359068
 31
0.0
  0
LINE
  5
81
330
17
100
AcDbEntity
  8
SARR_3.5x7
 62
7
370
25
100
AcDbLine
 10
3952.742829288997
 20
2399.767836359185
 30
0.0
 11
3952.742829288975
 21
2371.967836359068
 31
0.0
  0
LINE
  5
82
330
17
100
AcDbEntity
  8
COTA
 62
7
370
25
100
AcDbLine
 10
3834.242829289048
 20
2218.640238403423
 30
0.0
 11
3834.242829289048
 21
2232.640238403423
 31
0.0
  0
LINE
  5
83
330
17
100
AcDbEntity
  8
COTA
 62
7
370
25
100
AcDbLine
 10
3834.242829289048
 20
2232.640238403423
 30
0.0
 11
4128.242829289054
 21
2232.640238403423
 31
0.0
  0
LINE
  5
84
330
17
100
AcDbEntity
  8
COTA
 62
7
370
25
100
AcDbLine
 10
4128.242829289054
 20
2218.640238403423
 30
0.0
 11
4128.242829289054
 21
2232.640238403423
 31
0.0
  0
LINE
  5
85
330
17
100
AcDbEntity
  8
Painéis
 62
7
370
25
100
AcDbLine
 10
3834.242829289048
 20
2218.640238403423
 30
0.0
 11
4128.242829289054
 21
2218.640238403423
 31
0.0
  0
LINE
  5
86
330
17
100
AcDbEntity
  8
Painéis
 62
7
370
25
100
AcDbLine
 10
3834.242829289048
 20
2188.640238403423
 30
0.0
 11
4128.242829289054
 21
2188.640238403423
 31
0.0
  0
LINE
  5
87
330
17
100
AcDbEntity
  8
Painéis
 62
7
370
25
100
AcDbLine
 10
3834.242829289048
 20
2188.640238403423
 30
0.0
 11
3834.242829289048
 21
2218.640238403423
 31
0.0
  0
LINE
  5
88
330
17
100
AcDbEntity
  8
Painéis
 62
7
370
25
100
AcDbLine
 10
3956.242829289055
 20
2188.640238403423
 30
0.0
 11
3956.242829289055
 21
2218.640238403423
 31
0.0
  0
LINE
  5
89
330
17
100
AcDbEntity
  8
Painéis
 62
7
370
25
100
AcDbLine
 10
4128.242829289054
 20
2188.640238403423
 30
0.0
 11
4128.242829289054
 21
2218.640238403423
 31
0.0
  0
LINE
  5
8A
330
17
100
AcDbEntity
  8
SARR_2.2x7
 62
7
370
25
100
AcDbLine
 10
3841.242829289044
 20
2188.640238403423
 30
0.0
 11
3841.242829289044
 21
2218.640238403423
 31
0.0
  0
LINE
  5
8B
330
17
100
AcDbEntity
  8
SARR_2.2x7
 62
7
370
25
100
AcDbLine
 10
4121.242829289054
 20
2188.640238403423
 30
0.0
 11
4121.242829289054
 21
2218.640238403423
 31
0.0
  0
LINE
  5
8C
330
17
100
AcDbEntity
  8
SARR_2.2x7
 62
7
370
25
100
AcDbLine
 10
3849.242829289048
 20
2216.440238403426
 30
0.0
 11
3956.242829289055
 21
2216.440238403457
 31
0.0
  0
LINE
  5
8D
330
17
100
AcDbEntity
  8
SARR_3.5x7
 62
7
370
25
100
AcDbLine
 10
3849.242829289048
 20
2218.640238403438
 30
0.0
 11
3849.24282928905
 21
2188.640238403423
 31
0.0
  0
LINE
  5
8E
330
17
100
AcDbEntity
  8
SARR_3.5x7
 62
7
370
25
100
AcDbLine
 10
3852.742829289047
 20
2216.44023840344
 30
0.0
 11
3852.742829289049
 21
2188.640238403423
 31
0.0
  0
LINE
  5
8F
330
17
100
AcDbEntity
  8
SARR_2.2x7
 62
7
370
25
100
AcDbLine
 10
3956.242829289053
 20
2216.440238403429
 30
0.0
 11
4113.24282928904
 21
2216.440238403429
 31
0.0
  0
LINE
  5
90
330
17
100
AcDbEntity
  8
SARR_3.5x7
 62
7
370
25
100
AcDbLine
 10
4113.242829289044
 20
2218.640238403412
 30
0.0
 11
4113.24282928904
 21
2188.640238403423
 31
0.0
  0
LINE
  5
91
330
17
100
AcDbEntity
  8
SARR_3.5x7
 62
7
370
25
100
AcDbLine
 10
4109.742829289043
 20
2216.440238403415
 30
0.0
 11
4109.742829289039
 21
2188.640238403423
 31
0.0
  0
LINE
  5
92
330
17
100
AcDbEntity
  8
SARR_3.5x7
 62
7
370
25
100
AcDbLine
 10
3959.742829289084
 20
2216.440238403481
 30
0.0
 11
3959.742829289107
 21
2188.640238403423
 31
0.0
  0
LINE
  5
93
330
17
100
AcDbEntity
  8
SARR_3.5x7
 62
7
370
25
100
AcDbLine
 10
3952.742829288997
 20
2216.440238403539
 30
0.0
 11
3952.742829288975
 21
2188.640238403423
 31
0.0
  0
LINE
  5
94
330
17
100
AcDbEntity
  8
COTA
 62
7
370
25
100
AcDbLine
 10
3392.707468427921
 20
2074.649500349805
 30
0.0
 11
4762.707468427922
 21
2074.649500349805
 31
0.0
  0
LINE
  5
95
330
17
100
AcDbEntity
  8
Defpoints
 62
7
370
25
100
AcDbLine
 10
3574.484823006911
 20
1949.649500349806
 30
0.0
 11
3574.484823006911
 21
2074.6495003498057
 31
0.0
  0
LINE
  5
96
330
17
100
AcDbEntity
  8
presilha
 62
7
370
25
100
AcDbLine
 10
3531.4176238723726
 20
1861.0161670165073
 30
0.0
 11
3531.4176238723726
 21
1856.4163270165213
 31
0.0
  0
LINE
  5
97
330
17
100
AcDbEntity
  8
presilha
 62
7
370
25
100
AcDbLine
 10
3531.4176238723726
 20
1856.4163270165213
 30
0.0
 11
3511.4172593680205
 21
1856.416327016514
 31
0.0
  0
LINE
  5
98
330
17
100
AcDbEntity
  8
presilha
 62
7
370
25
100
AcDbLine
 10
3510.4172593680205
 20
1864.0161670165076
 30
0.0
 11
3511.4172593680205
 21
1864.0161670165076
 31
0.0
  0
LINE
  5
99
330
17
100
AcDbEntity
  8
presilha
 62
7
370
25
100
AcDbLine
 10
3511.4172593680205
 20
1864.0161670165076
 30
0.0
 11
3511.4172593680205
 21
1852.0161670165076
 31
0.0
  0
LINE
  5
9A
330
17
100
AcDbEntity
  8
presilha
 62
7
370
25
100
AcDbLine
 10
3511.4172593680205
 20
1852.0161670165076
 30
0.0
 11
3510.4172593680205
 21
1852.0161670165076
 31
0.0
  0
LINE
  5
9B
330
17
100
AcDbEntity
  8
presilha
 62
7
370
25
100
AcDbLine
 10
3510.4172593680205
 20
1852.0161670165076
 30
0.0
 11
3510.4172593680205
 21
1864.0161670165076
 31
0.0
  0
LINE
  5
9C
330
17
100
AcDbEntity
  8
presilha
 62
7
370
25
100
AcDbLine
 10
3514.4172593680187
 20
1867.6828336831736
 30
0.0
 11
3514.4172593680187
 21
1866.6828336831736
 31
0.0
  0
LINE
  5
9D
330
17
100
AcDbEntity
  8
presilha
 62
7
370
25
100
AcDbLine
 10
3531.4176238723726
 20
1861.016167016507
 30
0.0
 11
3512.797623872373
 21
1861.016167016507
 31
0.0
  0
LINE
  5
9E
330
17
100
AcDbEntity
  8
presilha
 62
7
370
25
100
AcDbLine
 10
3511.4176238723726
 20
1860.7761670165066
 30
0.0
 11
3511.4172593680187
 21
1866.9228336831766
 31
0.0
  0
LINE
  5
9F
330
17
100
AcDbEntity
  8
presilha
 62
7
370
25
100
AcDbLine
 10
3512.417623872372
 20
1861.3961670165068
 30
0.0
 11
3512.4172593680187
 21
1866.302833683174
 31
0.0
  0
LINE
  5
A0
330
17
100
AcDbEntity
  8
presilha
 62
7
370
25
100
AcDbLine
 10
3514.4172593680187
 20
1867.6828336831736
 30
0.0
 11
3512.177259367999
 21
1867.6828336831736
 31
0.0
  0
LINE
  5
A1
330
17
100
AcDbEntity
  8
presilha
 62
7
370
25
100
AcDbLine
 10
3514.4172593680187
 20
1866.6828336831736
 30
0.0
 11
3512.7972593680192
 21
1866.6828336831736
 31
0.0
  0
LINE
  5
A2
330
17
100
AcDbEntity
  8
presilha
 62
7
370
25
100
AcDbLine
 10
3506.41725936802
 20
1862.3495003498429
 30
0.0
 11
3510.41725936802
 21
1862.3495003498429
 31
0.0
  0
LINE
  5
A3
330
17
100
AcDbEntity
  8
presilha
 62
7
370
25
100
AcDbLine
 10
3510.41725936802
 20
1862.3495003498429
 30
0.0
 11
3510.41725936802
 21
1853.682833683176
 31
0.0
  0
LINE
  5
A4
330
17
100
AcDbEntity
  8
presilha
 62
7
370
25
100
AcDbLine
 10
3510.41725936802
 20
1853.682833683176
 30
0.0
 11
3506.41725936802
 21
1853.682833683176
 31
0.0
  0
LINE
  5
A5
330
17
100
AcDbEntity
  8
presilha
 62
7
370
25
100
AcDbLine
 10
3506.41725936802
 20
1862.3495003498429
 30
0.0
 11
3506.41725936802
 21
1853.682833683176
 31
0.0
  0
LINE
  5
A6
330
17
100
AcDbEntity
  8
presilha
 62
7
370
25
100
AcDbLine
 10
3613.1520221414553
 20
1861.0161670165073
 30
0.0
 11
3613.1520221414553
 21
1856.4163270165213
 31
0.0
  0
LINE
  5
A7
330
17
100
AcDbEntity
  8
presilha
 62
7
370
25
100
AcDbLine
 10
3613.1520221414553
 20
1856.4163270165213
 30
0.0
 11
3633.1523866458074
 21
1856.416327016514
 31
0.0
  0
LINE
  5
A8
330
17
100
AcDbEntity
  8
presilha
 62
7
370
25
100
AcDbLine
 10
3634.1523866458074
 20
1864.0161670165076
 30
0.0
 11
3633.1523866458074
 21
1864.0161670165076
 31
0.0
  0
LINE
  5
A9
330
17
100
AcDbEntity
  8
presilha
 62
7
370
25
100
AcDbLine
 10
3633.1523866458074
 20
1864.0161670165076
 30
0.0
 11
3633.1523866458074
 21
1852.0161670165076
 31
0.0
  0
LINE
  5
AA
330
17
100
AcDbEntity
  8
presilha
 62
7
370
25
100
AcDbLine
 10
3633.1523866458074
 20
1852.0161670165076
 30
0.0
 11
3634.1523866458074
 21
1852.0161670165076
 31
0.0
  0
LINE
  5
AB
330
17
100
AcDbEntity
  8
presilha
 62
7
370
25
100
AcDbLine
 10
3634.1523866458074
 20
1852.0161670165076
 30
0.0
 11
3634.1523866458074
 21
1864.0161670165076
 31
0.0
  0
LINE
  5
AC
330
17
100
AcDbEntity
  8
presilha
 62
7
370
25
100
AcDbLine
 10
3630.152386645809
 20
1867.6828336831736
 30
0.0
 11
3630.152386645809
 21
1866.6828336831736
 31
0.0
  0
LINE
  5
AD
330
17
100
AcDbEntity
  8
presilha
 62
7
370
25
100
AcDbLine
 10
3613.1520221414553
 20
1861.016167016507
 30
0.0
 11
3631.7720221414547
 21
1861.016167016507
 31
0.0
  0
LINE
  5
AE
330
17
100
AcDbEntity
  8
presilha
 62
7
370
25
100
AcDbLine
 10
3633.1520221414553
 20
1860.7761670165066
 30
0.0
 11
3633.152386645809
 21
1866.9228336831766
 31
0.0
  0
LINE
  5
AF
330
17
100
AcDbEntity
  8
presilha
 62
7
370
25
100
AcDbLine
 10
3632.1520221414557
 20
1861.3961670165068
 30
0.0
 11
3632.152386645809
 21
1866.302833683174
 31
0.0
  0
LINE
  5
B0
330
17
100
AcDbEntity
  8
presilha
 62
7
370
25
100
AcDbLine
 10
3630.152386645809
 20
1867.6828336831736
 30
0.0
 11
3632.392386645829
 21
1867.6828336831736
 31
0.0
  0
LINE
  5
B1
330
17
100
AcDbEntity
  8
presilha
 62
7
370
25
100
AcDbLine
 10
3630.152386645809
 20
1866.6828336831736
 30
0.0
 11
3631.7723866458086
 21
1866.6828336831736
 31
0.0
  0
LINE
  5
B2
330
17
100
AcDbEntity
  8
presilha
 62
7
370
25
100
AcDbLine
 10
3638.152386645808
 20
1862.3495003498429
 30
0.0
 11
3634.152386645808
 21
1862.3495003498429
 31
0.0
  0
LINE
  5
B3
330
17
100
AcDbEntity
  8
presilha
 62
7
370
25
100
AcDbLine
 10
3634.152386645808
 20
1862.3495003498429
 30
0.0
 11
3634.152386645808
 21
1853.682833683176
 31
0.0
  0
LINE
  5
B4
330
17
100
AcDbEntity
  8
presilha
 62
7
370
25
100
AcDbLine
 10
3634.152386645808
 20
1853.682833683176
 30
0.0
 11
3638.152386645808
 21
1853.682833683176
 31
0.0
  0
LINE
  5
B5
330
17
100
AcDbEntity
  8
presilha
 62
7
370
25
100
AcDbLine
 10
3638.152386645808
 20
1862.3495003498429
 30
0.0
 11
3638.152386645808
 21
1853.682833683176
 31
0.0
  0
LINE
  5
B6
330
17
100
AcDbEntity
  8
0
 62
7
370
25
100
AcDbLine
 10
3505.284823006885
 20
1897.619557878098
 30
0.0
 11
3505.284823006885
 21
1885.619557878098
 31
0.0
  0
LINE
  5
B7
330
17
100
AcDbEntity
  8
0
 62
7
370
25
100
AcDbLine
 10
3641.284823006914
 20
1894.619557878112
 30
0.0
 11
3641.284823006914
 21
1888.619557878113
 31
0.0
  0
LINE
  5
B8
330
17
100
AcDbEntity
  8
0
 62
7
370
25
100
AcDbLine
 10
3639.284823006914
 20
1897.619557878113
 30
0.0
 11
3639.284823006914
 21
1885.619557878112
 31
0.0
  0
LINE
  5
B9
330
17
100
AcDbEntity
  8
0
 62
7
370
25
100
AcDbLine
 10
3639.284823006914
 20
1888.619557878113
 30
0.0
 11
3641.284823006914
 21
1888.619557878113
 31
0.0
  0
LINE
  5
BA
330
17
100
AcDbEntity
  8
0
 62
7
370
25
100
AcDbLine
 10
3505.284823006885
 20
1885.619557878098
 30
0.0
 11
3535.284823006885
 21
1885.619557878098
 31
0.0
  0
LINE
  5
BB
330
17
100
AcDbEntity
  8
0
 62
7
370
25
100
AcDbLine
 10
3609.284823006914
 20
1890.619557878112
 30
0.0
 11
3639.284823006914
 21
1890.619557878112
 31
0.0
  0
LINE
  5
BC
330
17
100
AcDbEntity
  8
0
 62
7
370
25
100
AcDbLine
 10
3609.284823006914
 20
1892.619557878112
 30
0.0
 11
3639.284823006914
 21
1892.619557878112
 31
0.0
  0
LINE
  5
BD
330
17
100
AcDbEntity
  8
TENSOR
 62
7
370
25
100
AcDbLine
 10
3644.284823006914
 20
1891.619557878098
 30
0.0
 11
3499.981528828786
 21
1891.619557878098
 31
0.0
  0
LINE
  5
BE
330
17
100
AcDbEntity
  8
0
 62
7
370
25
100
AcDbLine
 10
3639.284823006914
 20
1894.619557878112
 30
0.0
 11
3641.284823006914
 21
1894.619557878112
 31
0.0
  0
LINE
  5
BF
330
17
100
AcDbEntity
  8
0
 62
7
370
25
100
AcDbLine
 10
3535.284823006885
 20
1890.619557878098
 30
0.0
 11
3505.284823006885
 21
1890.619557878098
 31
0.0
  0
LINE
  5
C0
330
17
100
AcDbEntity
  8
0
 62
7
370
25
100
AcDbLine
 10
3535.284823006885
 20
1892.619557878098
 30
0.0
 11
3505.284823006885
 21
1892.619557878098
 31
0.0
  0
LINE
  5
C1
330
17
100
AcDbEntity
  8
0
 62
7
370
25
100
AcDbLine
 10
3505.284823006885
 20
1897.619557878098
 30
0.0
 11
3535.284823006885
 21
1897.619557878098
 31
0.0
  0
LINE
  5
C2
330
17
100
AcDbEntity
  8
0
 62
7
370
25
100
AcDbLine
 10
3639.284823006914
 20
1885.619557878112
 30
0.0
 11
3609.284823006914
 21
1885.619557878112
 31
0.0
  0
LINE
  5
C3
330
17
100
AcDbEntity
  8
0
 62
7
370
25
100
AcDbLine
 10
3639.284823006914
 20
1897.619557878113
 30
0.0
 11
3609.284823006914
 21
1897.619557878113
 31
0.0
  0
LINE
  5
C4
330
17
100
AcDbEntity
  8
0
 62
7
370
25
100
AcDbLine
 10
3503.284823006885
 20
1894.619557878098
 30
0.0
 11
3503.284823006885
 21
1888.619557878098
 31
0.0
  0
LINE
  5
C5
330
17
100
AcDbEntity
  8
0
 62
7
370
25
100
AcDbLine
 10
3505.284823006885
 20
1888.619557878098
 30
0.0
 11
3503.284823006885
 21
1888.619557878098
 31
0.0
  0
LINE
  5
C6
330
17
100
AcDbEntity
  8
0
 62
7
370
25
100
AcDbLine
 10
3503.284823006885
 20
1894.619557878098
 30
0.0
 11
3505.284823006885
 21
1894.619557878098
 31
0.0
  0
LINE
  5
C7
330
17
100
AcDbEntity
  8
COTA
 62
7
370
25
100
AcDbLine
 10
3834.242829289048
 20
2025.110563447135
 30
0.0
 11
3834.242829289048
 21
2039.110563447136
 31
0.0
  0
LINE
  5
C8
330
17
100
AcDbEntity
  8
COTA
 62
7
370
25
100
AcDbLine
 10
3834.242829289048
 20
2039.110563447136
 30
0.0
 11
4128.242829289054
 21
2039.110563447136
 31
0.0
  0
LINE
  5
C9
330
17
100
AcDbEntity
  8
COTA
 62
7
370
25
100
AcDbLine
 10
4128.242829289054
 20
2025.110563447135
 30
0.0
 11
4128.242829289054
 21
2039.110563447136
 31
0.0
  0
LINE
  5
CA
330
17
100
AcDbEntity
  8
Painéis
 62
7
370
25
100
AcDbLine
 10
3834.242829289048
 20
2025.110563447135
 30
0.0
 11
4128.242829289054
 21
2025.110563447135
 31
0.0
  0
LINE
  5
CB
330
17
100
AcDbEntity
  8
Painéis
 62
7
370
25
100
AcDbLine
 10
3834.242829289048
 20
1995.110563447135
 30
0.0
 11
4128.242829289054
 21
1995.110563447135
 31
0.0
  0
LINE
  5
CC
330
17
100
AcDbEntity
  8
Painéis
 62
7
370
25
100
AcDbLine
 10
3834.242829289048
 20
1995.110563447135
 30
0.0
 11
3834.242829289048
 21
2025.110563447135
 31
0.0
  0
LINE
  5
CD
330
17
100
AcDbEntity
  8
Painéis
 62
7
370
25
100
AcDbLine
 10
3956.242829289055
 20
1995.110563447135
 30
0.0
 11
3956.242829289055
 21
2025.110563447135
 31
0.0
  0
LINE
  5
CE
330
17
100
AcDbEntity
  8
Painéis
 62
7
370
25
100
AcDbLine
 10
4128.242829289054
 20
1995.110563447135
 30
0.0
 11
4128.242829289054
 21
2025.110563447135
 31
0.0
  0
LINE
  5
CF
330
17
100
AcDbEntity
  8
SARR_2.2x7
 62
7
370
25
100
AcDbLine
 10
3841.242829289044
 20
1995.110563447135
 30
0.0
 11
3841.242829289044
 21
2025.110563447135
 31
0.0
  0
LINE
  5
D0
330
17
100
AcDbEntity
  8
SARR_2.2x7
 62
7
370
25
100
AcDbLine
 10
4121.242829289054
 20
1995.110563447135
 30
0.0
 11
4121.242829289054
 21
2025.110563447135
 31
0.0
  0
LINE
  5
D1
330
17
100
AcDbEntity
  8
SARR_2.2x7
 62
7
370
25
100
AcDbLine
 10
3849.242829289048
 20
2022.910563447138
 30
0.0
 11
3956.242829289055
 21
2022.910563447169
 31
0.0
  0
LINE
  5
D2
330
17
100
AcDbEntity
  8
SARR_3.5x7
 62
7
370
25
100
AcDbLine
 10
3849.242829289048
 20
2025.11056344715
 30
0.0
 11
3849.24282928905
 21
1995.110563447135
 31
0.0
  0
LINE
  5
D3
330
17
100
AcDbEntity
  8
SARR_3.5x7
 62
7
370
25
100
AcDbLine
 10
3852.742829289047
 20
2022.910563447153
 30
0.0
 11
3852.742829289049
 21
1995.110563447135
 31
0.0
  0
LINE
  5
D4
330
17
100
AcDbEntity
  8
SARR_2.2x7
 62
7
370
25
100
AcDbLine
 10
3956.242829289053
 20
2022.910563447142
 30
0.0
 11
4113.24282928904
 21
2022.910563447142
 31
0.0
  0
LINE
  5
D5
330
17
100
AcDbEntity
  8
SARR_3.5x7
 62
7
370
25
100
AcDbLine
 10
4113.242829289044
 20
2025.110563447125
 30
0.0
 11
4113.24282928904
 21
1995.110563447135
 31
0.0
  0
LINE
  5
D6
330
17
100
AcDbEntity
  8
SARR_3.5x7
 62
7
370
25
100
AcDbLine
 10
4109.742829289043
 20
2022.910563447128
 30
0.0
 11
4109.742829289039
 21
1995.110563447135
 31
0.0
  0
LINE
  5
D7
330
17
100
AcDbEntity
  8
SARR_3.5x7
 62
7
370
25
100
AcDbLine
 10
3959.742829289084
 20
2022.910563447193
 30
0.0
 11
3959.742829289107
 21
1995.110563447135
 31
0.0
  0
LINE
  5
D8
330
17
100
AcDbEntity
  8
SARR_3.5x7
 62
7
370
25
100
AcDbLine
 10
3952.742829288997
 20
2022.910563447251
 30
0.0
 11
3952.742829288975
 21
1995.110563447135
 31
0.0
  0
LINE
  5
D9
330
17
100
AcDbEntity
  8
COTA
 62
7
370
25
100
AcDbLine
 10
3834.242829289048
 20
1841.782965491489
 30
0.0
 11
3834.242829289048
 21
1855.78296549149
 31
0.0
  0
LINE
  5
DA
330
17
100
AcDbEntity
  8
COTA
 62
7
370
25
100
AcDbLine
 10
3834.242829289048
 20
1855.78296549149
 30
0.0
 11
4128.242829289054
 21
1855.78296549149
 31
0.0
  0
LINE
  5
DB
330
17
100
AcDbEntity
  8
COTA
 62
7
370
25
100
AcDbLine
 10
4128.242829289054
 20
1841.782965491489
 30
0.0
 11
4128.242829289054
 21
1855.78296549149
 31
0.0
  0
LINE
  5
DC
330
17
100
AcDbEntity
  8
Painéis
 62
7
370
25
100
AcDbLine
 10
3834.242829289048
 20
1841.782965491489
 30
0.0
 11
4128.242829289054
 21
1841.782965491489
 31
0.0
  0
LINE
  5
DD
330
17
100
AcDbEntity
  8
Painéis
 62
7
370
25
100
AcDbLine
 10
3834.242829289048
 20
1811.782965491489
 30
0.0
 11
4128.242829289054
 21
1811.782965491489
 31
0.0
  0
LINE
  5
DE
330
17
100
AcDbEntity
  8
Painéis
 62
7
370
25
100
AcDbLine
 10
3834.242829289048
 20
1811.782965491489
 30
0.0
 11
3834.242829289048
 21
1841.782965491489
 31
0.0
  0
LINE
  5
DF
330
17
100
AcDbEntity
  8
Painéis
 62
7
370
25
100
AcDbLine
 10
3956.242829289055
 20
1811.782965491489
 30
0.0
 11
3956.242829289055
 21
1841.782965491489
 31
0.0
  0
LINE
  5
E0
330
17
100
AcDbEntity
  8
Painéis
 62
7
370
25
100
AcDbLine
 10
4128.242829289054
 20
1811.782965491489
 30
0.0
 11
4128.242829289054
 21
1841.782965491489
 31
0.0
  0
LINE
  5
E1
330
17
100
AcDbEntity
  8
SARR_2.2x7
 62
7
370
25
100
AcDbLine
 10
3841.242829289044
 20
1811.782965491489
 30
0.0
 11
3841.242829289044
 21
1841.782965491489
 31
0.0
  0
LINE
  5
E2
330
17
100
AcDbEntity
  8
SARR_2.2x7
 62
7
370
25
100
AcDbLine
 10
4121.242829289054
 20
1811.782965491489
 30
0.0
 11
4121.242829289054
 21
1841.782965491489
 31
0.0
  0
LINE
  5
E3
330
17
100
AcDbEntity
  8
SARR_2.2x7
 62
7
370
25
100
AcDbLine
 10
3849.242829289048
 20
1839.582965491493
 30
0.0
 11
3956.242829289055
 21
1839.582965491524
 31
0.0
  0
LINE
  5
E4
330
17
100
AcDbEntity
  8
SARR_3.5x7
 62
7
370
25
100
AcDbLine
 10
3849.242829289048
 20
1841.782965491504
 30
0.0
 11
3849.24282928905
 21
1811.782965491489
 31
0.0
  0
LINE
  5
E5
330
17
100
AcDbEntity
  8
SARR_3.5x7
 62
7
370
25
100
AcDbLine
 10
3852.742829289047
 20
1839.582965491507
 30
0.0
 11
3852.742829289049
 21
1811.782965491489
 31
0.0
  0
LINE
  5
E6
330
17
100
AcDbEntity
  8
SARR_2.2x7
 62
7
370
25
100
AcDbLine
 10
3956.242829289053
 20
1839.582965491496
 30
0.0
 11
4113.24282928904
 21
1839.582965491496
 31
0.0
  0
LINE
  5
E7
330
17
100
AcDbEntity
  8
SARR_3.5x7
 62
7
370
25
100
AcDbLine
 10
4113.242829289044
 20
1841.782965491479
 30
0.0
 11
4113.24282928904
 21
1811.782965491489
 31
0.0
  0
LINE
  5
E8
330
17
100
AcDbEntity
  8
SARR_3.5x7
 62
7
370
25
100
AcDbLine
 10
4109.742829289043
 20
1839.582965491482
 30
0.0
 11
4109.742829289039
 21
1811.782965491489
 31
0.0
  0
LINE
  5
E9
330
17
100
AcDbEntity
  8
SARR_3.5x7
 62
7
370
25
100
AcDbLine
 10
3959.742829289084
 20
1839.582965491548
 30
0.0
 11
3959.742829289107
 21
1811.782965491489
 31
0.0
  0
LINE
  5
EA
330
17
100
AcDbEntity
  8
SARR_3.5x7
 62
7
370
25
100
AcDbLine
 10
3952.742829288997
 20
1839.582965491606
 30
0.0
 11
3952.742829288975
 21
1811.782965491489
 31
0.0
  0
LWPOLYLINE
  5
EB
330
17
100
AcDbEntity
  8
Painéis
 62
7
370
25
100
AcDbPolyline
 90
4
 70
1
 10
3549.284823006914
 20
2324.70579101953
 10
3553.284823006914
 20
2324.70579101953
 10
3553.284823006914
 20
2264.705791019552
 10
3549.284823006914
 20
2264.705791019552
  0
LWPOLYLINE
  5
EC
330
17
100
AcDbEntity
  8
Madeira
 62
7
370
25
100
AcDbPolyline
 90
4
 70
1
 10
3549.284823006914
 20
2320.305791019528
 10
3549.284823006914
 20
2324.70579101953
 10
3535.284823006914
 20
2324.70579101953
 10
3535.284823006914
 20
2320.305791019528
  0
LWPOLYLINE
  5
ED
330
17
100
AcDbEntity
  8
Madeira
 62
7
370
25
100
AcDbPolyline
 90
4
 70
1
 10
3515.284823006914
 20
2264.705791019552
 10
3515.284823006914
 20
2269.105791019546
 10
3535.284823006914
 20
2269.105791019546
 10
3535.284823006914
 20
2264.705791019552
  0
LWPOLYLINE
  5
EE
330
17
100
AcDbEntity
  8
Madeira
 62
7
370
25
100
AcDbPolyline
 90
4
 70
1
 10
3549.284823006914
 20
2324.70579101953
 10
3535.284823006914
 20
2324.70579101953
 10
3535.284823006914
 20
2264.705791019552
 10
3549.284823006914
 20
2264.705791019552
  0
LWPOLYLINE
  5
EF
330
17
100
AcDbEntity
  8
Madeira
 62
7
370
25
100
AcDbPolyline
 90
4
 70
1
 10
3591.284823006914
 20
2264.705791019552
 10
3591.284823006914
 20
2269.105791019546
 10
3577.284823006914
 20
2269.105791019546
 10
3577.284823006914
 20
2264.705791019552
  0
LWPOLYLINE
  5
F0
330
17
100
AcDbEntity
  8
Painéis
 62
7
370
25
100
AcDbPolyline
 90
4
 70
1
 10
3591.284823006914
 20
2269.105791019546
 10
3591.284823006914
 20
2272.705791019552
 10
3553.284823006914
 20
2272.705791019552
 10
3553.284823006914
 20
2269.105791019546
  0
LWPOLYLINE
  5
F1
330
17
100
AcDbEntity
  8
Madeira
 62
7
370
25
100
AcDbPolyline
 90
4
 70
1
 10
3553.284823006914
 20
2264.705791019552
 10
3553.284823006914
 20
2269.105791019546
 10
3567.284823006914
 20
2269.105791019546
 10
3567.284823006914
 20
2264.705791019552
  0
LWPOLYLINE
  5
F2
330
17
100
AcDbEntity
  8
Painéis
 62
7
370
25
100
AcDbPolyline
 90
4
 70
1
 10
3595.284823006914
 20
2324.70579101953
 10
3591.284823006914
 20
2324.70579101953
 10
3591.284823006914
 20
2264.705791019552
 10
3595.284823006914
 20
2264.705791019552
  0
LWPOLYLINE
  5
F3
330
17
100
AcDbEntity
  8
Painéis
 62
7
370
25
100
AcDbPolyline
 90
4
 70
1
 10
3651.284823006885
 20
2324.70579101953
 10
3651.284823006885
 20
2328.70579101953
 10
3591.284823006914
 20
2328.70579101953
 10
3591.284823006914
 20
2324.70579101953
  0
LWPOLYLINE
  5
F4
330
17
100
AcDbEntity
  8
Madeira
 62
7
370
25
100
AcDbPolyline
 90
4
 70
1
 10
3595.284823006914
 20
2320.305791019528
 10
3595.284823006914
 20
2324.70579101953
 10
3609.284823006914
 20
2324.70579101953
 10
3609.284823006914
 20
2320.305791019528
  0
LWPOLYLINE
  5
F5
330
17
100
AcDbEntity
  8
Madeira
 62
7
370
25
100
AcDbPolyline
 90
4
 70
1
 10
3629.284823006914
 20
2264.705791019552
 10
3629.284823006914
 20
2269.105791019546
 10
3609.284823006914
 20
2269.105791019546
 10
3609.284823006914
 20
2264.705791019552
  0
LWPOLYLINE
  5
F6
330
17
100
AcDbEntity
  8
Madeira
 62
7
370
25
100
AcDbPolyline
 90
4
 70
1
 10
3595.284823006914
 20
2324.70579101953
 10
3609.284823006914
 20
2324.70579101953
 10
3609.284823006914
 20
2264.705791019552
 10
3595.284823006914
 20
2264.705791019552
  0
LWPOLYLINE
  5
F7
330
17
100
AcDbEntity
  8
Painéis
 62
7
370
25
100
AcDbPolyline
 90
4
 70
1
 10
3553.284823006914
 20
2324.70579101953
 10
3553.284823006914
 20
2328.70579101953
 10
3497.684823006937
 20
2328.705791019523
 10
3497.684823006937
 20
2324.705791019523
  0
LWPOLYLINE
  5
F8
330
17
100
AcDbEntity
  8
CONCRETO
 62
7
370
25
100
AcDbPolyline
 90
8
 70
1
 10
3497.684823006937
 20
2328.705791019523
 10
3497.684823006937
 20
2352.705791019552
 10
3651.284823006885
 20
2352.705791019552
 10
3651.284823006885
 20
2328.705791019537
 10
3591.284823006914
 20
2328.705791019537
 10
3591.284823006855
 20
2272.705791019552
 10
3553.284823006914
 20
2272.705791019552
 10
3553.284823006914
 20
2328.70579101953
  0
LWPOLYLINE
  5
F9
330
17
100
AcDbEntity
  8
barrote
 62
7
370
25
100
AcDbPolyline
 90
4
 70
1
 10
3481.82962533502
 20
2244.705791019596
 10
3677.012565844715
 20
2244.705791019596
 10
3677.012565844715
 20
2264.705791019552
 10
3481.82962533502
 20
2264.705791019552
  0
LWPOLYLINE
  5
FA
330
17
100
AcDbEntity
  8
SCO-___-LAJ
 62
7
370
25
100
AcDbPolyline
 90
4
 70
1
 10
3490.831892750481
 20
2263.372377686225
 10
3658.137753263342
 20
2263.372377686218
 10
3658.137753263342
 20
2260.172697686242
 10
3490.831892750481
 20
2260.172697686249
  0
LWPOLYLINE
  5
FB
330
17
100
AcDbEntity
  8
Painéis
 62
7
370
25
100
AcDbPolyline
 90
4
 70
1
 10
3549.284823006914
 20
1921.649500349785
 10
3553.284823006914
 20
1921.649500349785
 10
3553.284823006914
 20
1861.649500349806
 10
3549.284823006914
 20
1861.649500349806
  0
LWPOLYLINE
  5
FC
330
17
100
AcDbEntity
  8
Madeira
 62
7
370
25
100
AcDbPolyline
 90
4
 70
1
 10
3549.284823006914
 20
1917.249500349783
 10
3549.284823006914
 20
1921.649500349785
 10
3535.284823006914
 20
1921.649500349785
 10
3535.284823006914
 20
1917.249500349783
  0
LWPOLYLINE
  5
FD
330
17
100
AcDbEntity
  8
Madeira
 62
7
370
25
100
AcDbPolyline
 90
4
 70
1
 10
3515.284823006914
 20
1861.649500349806
 10
3515.284823006914
 20
1866.049500349801
 10
3535.284823006914
 20
1866.049500349801
 10
3535.284823006914
 20
1861.649500349806
  0
LWPOLYLINE
  5
FE
330
17
100
AcDbEntity
  8
Madeira
 62
7
370
25
100
AcDbPolyline
 90
4
 70
1
 10
3549.284823006914
 20
1921.649500349785
 10
3535.284823006914
 20
1921.649500349785
 10
3535.284823006914
 20
1861.649500349806
 10
3549.284823006914
 20
1861.649500349806
  0
LWPOLYLINE
  5
FF
330
17
100
AcDbEntity
  8
Madeira
 62
7
370
25
100
AcDbPolyline
 90
4
 70
1
 10
3591.284823006914
 20
1861.649500349806
 10
3591.284823006914
 20
1866.049500349801
 10
3577.284823006914
 20
1866.049500349801
 10
3577.284823006914
 20
1861.649500349806
  0
LWPOLYLINE
  5
100
330
17
100
AcDbEntity
  8
Painéis
 62
7
370
25
100
AcDbPolyline
 90
4
 70
1
 10
3591.284823006914
 20
1866.049500349801
 10
3591.284823006914
 20
1869.649500349806
 10
3553.284823006914
 20
1869.649500349806
 10
3553.284823006914
 20
1866.049500349801
  0
LWPOLYLINE
  5
101
330
17
100
AcDbEntity
  8
Madeira
 62
7
370
25
100
AcDbPolyline
 90
4
 70
1
 10
3553.284823006914
 20
1861.649500349806
 10
3553.284823006914
 20
1866.049500349801
 10
3567.284823006914
 20
1866.049500349801
 10
3567.284823006914
 20
1861.649500349806
  0
LWPOLYLINE
  5
102
330
17
100
AcDbEntity
  8
Painéis
 62
7
370
25
100
AcDbPolyline
 90
4
 70
1
 10
3595.284823006914
 20
1921.649500349785
 10
3591.284823006914
 20
1921.649500349785
 10
3591.284823006914
 20
1861.649500349806
 10
3595.284823006914
 20
1861.649500349806
  0
LWPOLYLINE
  5
103
330
17
100
AcDbEntity
  8
Painéis
 62
7
370
25
100
AcDbPolyline
 90
4
 70
1
 10
3651.284823006885
 20
1921.649500349785
 10
3651.284823006885
 20
1925.649500349785
 10
3591.284823006914
 20
1925.649500349785
 10
3591.284823006914
 20
1921.649500349785
  0
LWPOLYLINE
  5
104
330
17
100
AcDbEntity
  8
Madeira
 62
7
370
25
100
AcDbPolyline
 90
4
 70
1
 10
3595.284823006914
 20
1917.249500349783
 10
3595.284823006914
 20
1921.649500349785
 10
3609.284823006914
 20
1921.649500349785
 10
3609.284823006914
 20
1917.249500349783
  0
LWPOLYLINE
  5
105
330
17
100
AcDbEntity
  8
Madeira
 62
7
370
25
100
AcDbPolyline
 90
4
 70
1
 10
3629.284823006914
 20
1861.649500349806
 10
3629.284823006914
 20
1866.049500349801
 10
3609.284823006914
 20
1866.049500349801
 10
3609.284823006914
 20
1861.649500349806
  0
LWPOLYLINE
  5
106
330
17
100
AcDbEntity
  8
Madeira
 62
7
370
25
100
AcDbPolyline
 90
4
 70
1
 10
3595.284823006914
 20
1921.649500349785
 10
3609.284823006914
 20
1921.649500349785
 10
3609.284823006914
 20
1861.649500349806
 10
3595.284823006914
 20
1861.649500349806
  0
LWPOLYLINE
  5
107
330
17
100
AcDbEntity
  8
Painéis
 62
7
370
25
100
AcDbPolyline
 90
4
 70
1
 10
3553.284823006914
 20
1921.649500349785
 10
3553.284823006914
 20
1925.649500349785
 10
3497.684823006937
 20
1925.649500349777
 10
3497.684823006937
 20
1921.649500349777
  0
LWPOLYLINE
  5
108
330
17
100
AcDbEntity
  8
CONCRETO
 62
7
370
25
100
AcDbPolyline
 90
8
 70
1
 10
3497.684823006937
 20
1925.649500349777
 10
3497.684823006937
 20
1949.649500349806
 10
3651.284823006885
 20
1949.649500349806
 10
3651.284823006885
 20
1925.649500349792
 10
3591.284823006914
 20
1925.649500349792
 10
3591.284823006855
 20
1869.649500349806
 10
3553.284823006914
 20
1869.649500349806
 10
3553.284823006914
 20
1925.649500349785
  0
LWPOLYLINE
  5
109
330
17
100
AcDbEntity
  8
barrote
 62
7
370
25
100
AcDbPolyline
 90
4
 70
1
 10
3481.82962533502
 20
1841.64950034985
 10
3677.012565844715
 20
1841.64950034985
 10
3677.012565844715
 20
1861.649500349806
 10
3481.82962533502
 20
1861.649500349806
  0
LWPOLYLINE
  5
10A
330
17
100
AcDbEntity
  8
SCO-___-LAJ
 62
7
370
25
100
AcDbPolyline
 90
4
 70
1
 10
3490.831892750481
 20
1860.31608701648
 10
3658.137753263342
 20
1860.316087016473
 10
3658.137753263342
 20
1857.116407016497
 10
3490.831892750481
 20
1857.116407016504
  0
TEXT
  5
10B
330
17
100
AcDbEntity
  8
detalhes
 62
7
370
25
100
AcDbText
 10
3599.999306182952
 20
2282.895462548834
 30
0.0
 40
9.600000000000001
  1
b
100
AcDbText
  0
TEXT
  5
10C
330
17
100
AcDbEntity
  8
detalhes
 62
7
370
25
100
AcDbText
 10
3537.455647537216
 20
2282.90651999441
 30
0.0
 40
9.600000000000001
  1
a
100
AcDbText
  0
TEXT
  5
10D
330
17
100
AcDbEntity
  8
detalhes
 62
7
370
25
100
AcDbText
 10
3563.88508862236
 20
2274.941544539391
 30
0.0
 40
9.600000000000001
  1
c
100
AcDbText
  0
TEXT
  5
10E
330
17
100
AcDbEntity
  8
Texto Seção
 62
7
370
25
100
AcDbText
 10
3837.242829289019
 20
2425.154211780045
 30
0.0
 40
13.0
  1
VD9.A
100
AcDbText
  0
TEXT
  5
10F
330
17
100
AcDbEntity
  8
5
 62
7
370
25
100
AcDbText
 10
3835.284693744302
 20
2283.87424114993
 30
0.0
 40
12.0
  1
P12
100
AcDbText
  0
TEXT
  5
110
330
17
100
AcDbEntity
  8
5
 62
7
370
25
100
AcDbText
 10
4086.664220865467
 20
2283.204245341764
 30
0.0
 40
12.0
  1
PAR1
100
AcDbText
  0
TEXT
  5
111
330
17
100
AcDbEntity
  8
texto
 62
7
370
25
100
AcDbText
 10
3897.527990706927
 20
2384.542254628689
 30
0.0
 40
8.0
  1
{\Q19;\C256;5 1/2pont}
100
AcDbText
  0
TEXT
  5
112
330
17
100
AcDbEntity
  8
texto
 62
7
370
25
100
AcDbText
 10
4036.934676934339
 20
2384.542254628689
 30
0.0
 40
8.0
  1
{\Q19;\C256;6 1/2pont}
100
AcDbText
  0
TEXT
  5
113
330
17
100
AcDbEntity
  8
Texto Seção
 62
7
370
25
100
AcDbText
 10
3837.242829289019
 20
2241.8266138244
 30
0.0
 40
13.0
  1
VD9.B
100
AcDbText
  0
TEXT
  5
114
330
17
100
AcDbEntity
  8
5
 62
7
370
25
100
AcDbText
 10
4097.593870700108
 20
2100.546661539879
 30
0.0
 40
12.0
  1
P12
100
AcDbText
  0
TEXT
  5
115
330
17
100
AcDbEntity
  8
5
 62
7
370
25
100
AcDbText
 10
3833.813252173763
 20
2099.876673415864
 30
0.0
 40
12.0
  1
PAR1
100
AcDbText
  0
TEXT
  5
116
330
17
100
AcDbEntity
  8
texto
 62
7
370
25
100
AcDbText
 10
3897.527990706927
 20
2201.214656673043
 30
0.0
 40
8.0
  1
{\Q19;\C256;5 1/2pont}
100
AcDbText
  0
TEXT
  5
117
330
17
100
AcDbEntity
  8
texto
 62
7
370
25
100
AcDbText
 10
4036.934676934339
 20
2201.214656673043
 30
0.0
 40
8.0
  1
{\Q19;\C256;6 1/2pont}
100
AcDbText
  0
TEXT
  5
118
330
17
100
AcDbEntity
  8
detalhes
 62
7
370
25
100
AcDbText
 10
3599.999306182952
 20
1879.839171879089
 30
0.0
 40
9.600000000000001
  1
b
100
AcDbText
  0
TEXT
  5
119
330
17
100
AcDbEntity
  8
detalhes
 62
7
370
25
100
AcDbText
 10
3537.455647537216
 20
1879.850229324665
 30
0.0
 40
9.600000000000001
  1
a
100
AcDbText
  0
TEXT
  5
11A
330
17
100
AcDbEntity
  8
detalhes
 62
7
370
25
100
AcDbText
 10
3563.88508862236
 20
1871.885253869645
 30
0.0
 40
9.600000000000001
  1
c
100
AcDbText
  0
TEXT
  5
11B
330
17
100
AcDbEntity
  8
Texto Seção
 62
7
370
25
100
AcDbText
 10
3837.242829289019
 20
2048.296938868112
 30
0.0
 40
13.0
  1
VD10.A
100
AcDbText
  0
TEXT
  5
11C
330
17
100
AcDbEntity
  8
5
 62
7
370
25
100
AcDbText
 10
3835.284693744302
 20
1907.016968237996
 30
0.0
 40
12.0
  1
P50
100
AcDbText
  0
TEXT
  5
11D
330
17
100
AcDbEntity
  8
5
 62
7
370
25
100
AcDbText
 10
4086.664220865467
 20
1906.34697242983
 30
0.0
 40
12.0
  1
PAR1
100
AcDbText
  0
TEXT
  5
11E
330
17
100
AcDbEntity
  8
texto
 62
7
370
25
100
AcDbText
 10
3897.527990706927
 20
2007.684981716755
 30
0.0
 40
8.0
  1
{\Q19;\C256;5 1/2pont}
100
AcDbText
  0
TEXT
  5
11F
330
17
100
AcDbEntity
  8
texto
 62
7
370
25
100
AcDbText
 10
4036.934676934339
 20
2007.684981716755
 30
0.0
 40
8.0
  1
{\Q19;\C256;6 1/2pont}
100
AcDbText
  0
TEXT
  5
120
330
17
100
AcDbEntity
  8
Texto Seção
 62
7
370
25
100
AcDbText
 10
3837.242829289019
 20
1864.969340912467
 30
0.0
 40
13.0
  1
VD10.B
100
AcDbText
  0
TEXT
  5
121
330
17
100
AcDbEntity
  8
texto
 62
7
370
25
100
AcDbText
 10
3897.527990706927
 20
1824.35738376111
 30
0.0
 40
8.0
  1
{\Q19;\C256;5 1/2pont}
100
AcDbText
  0
TEXT
  5
122
330
17
100
AcDbEntity
  8
texto
 62
7
370
25
100
AcDbText
 10
4036.934676934339
 20
1824.35738376111
 30
0.0
 40
8.0
  1
{\Q19;\C256;6 1/2pont}
100
AcDbText
  0
HATCH
  5
123
330
17
100
AcDbEntity
  8
Hachura
 62
7
100
AcDbHatch
 10
0.0
 20
0.0
 30
0.0
210
0.0
220
0.0
230
1.0
  2
SOLID
 70
1
 71
0
 91
1
 92
3
 72
0
 73
1
 93
8
 10
3553.284823006916
 20
2324.705791019532
 10
3549.284823006916
 20
2324.705791019528
 10
3549.284823006916
 20
2324.705791019528
 10
3549.284823006914
 20
2264.705791019552
 10
3549.284823006914
 20
2264.705791019552
 10
3553.284823006914
 20
2264.705791019552
 10
3553.284823006914
 20
2264.705791019552
 10
3553.284823006916
 20
2324.705791019532
 97
0
 75
1
 76
1
 98
0
  0
HATCH
  5
124
330
17
100
AcDbEntity
  8
Hachura
 62
7
100
AcDbHatch
 10
0.0
 20
0.0
 30
0.0
210
0.0
220
0.0
230
1.0
  2
SOLID
 70
1
 71
0
 91
1
 92
3
 72
0
 73
1
 93
8
 10
3549.284823006914
 20
2320.305791019528
 10
3549.284823006914
 20
2324.70579101953
 10
3549.284823006914
 20
2324.70579101953
 10
3535.284823006914
 20
2324.70579101953
 10
3535.284823006914
 20
2324.70579101953
 10
3535.284823006914
 20
2320.305791019528
 10
3535.284823006914
 20
2320.305791019528
 10
3549.284823006914
 20
2320.305791019528
 97
0
 75
1
 76
1
 98
0
  0
HATCH
  5
125
330
17
100
AcDbEntity
  8
Hachura
 62
7
100
AcDbHatch
 10
0.0
 20
0.0
 30
0.0
210
0.0
220
0.0
230
1.0
  2
SOLID
 70
1
 71
0
 91
1
 92
3
 72
0
 73
1
 93
8
 10
3515.284823006914
 20
2264.705791019552
 10
3515.284823006914
 20
2269.105791019546
 10
3515.284823006914
 20
2269.105791019546
 10
3535.284823006914
 20
2269.105791019546
 10
3535.284823006914
 20
2269.105791019546
 10
3535.284823006914
 20
2264.705791019552
 10
3535.284823006914
 20
2264.705791019552
 10
3515.284823006914
 20
2264.705791019552
 97
0
 75
1
 76
1
 98
0
  0
HATCH
  5
126
330
17
100
AcDbEntity
  8
Hachura
 62
7
100
AcDbHatch
 10
0.0
 20
0.0
 30
0.0
210
0.0
220
0.0
230
1.0
  2
SOLID
 70
1
 71
0
 91
1
 92
3
 72
0
 73
1
 93
8
 10
3591.284823006914
 20
2264.705791019552
 10
3591.284823006914
 20
2269.105791019546
 10
3591.284823006914
 20
2269.105791019546
 10
3577.284823006914
 20
2269.105791019546
 10
3577.284823006914
 20
2269.105791019546
 10
3577.284823006914
 20
2264.705791019552
 10
3577.284823006914
 20
2264.705791019552
 10
3591.284823006914
 20
2264.705791019552
 97
0
 75
1
 76
1
 98
0
  0
HATCH
  5
127
330
17
100
AcDbEntity
  8
Hachura
 62
7
100
AcDbHatch
 10
0.0
 20
0.0
 30
0.0
210
0.0
220
0.0
230
1.0
  2
SOLID
 70
1
 71
0
 91
1
 92
3
 72
0
 73
1
 93
8
 10
3591.284823006914
 20
2269.105791019546
 10
3591.284823006914
 20
2272.705791019552
 10
3591.284823006914
 20
2272.705791019552
 10
3553.284823006914
 20
2272.705791019552
 10
3553.284823006914
 20
2272.705791019552
 10
3553.284823006914
 20
2269.105791019546
 10
3553.284823006914
 20
2269.105791019546
 10
3591.284823006914
 20
2269.105791019546
 97
0
 75
1
 76
1
 98
0
  0
HATCH
  5
128
330
17
100
AcDbEntity
  8
Hachura
 62
7
100
AcDbHatch
 10
0.0
 20
0.0
 30
0.0
210
0.0
220
0.0
230
1.0
  2
SOLID
 70
1
 71
0
 91
1
 92
3
 72
0
 73
1
 93
8
 10
3553.284823006914
 20
2264.705791019552
 10
3553.284823006914
 20
2269.105791019546
 10
3553.284823006914
 20
2269.105791019546
 10
3567.284823006914
 20
2269.105791019546
 10
3567.284823006914
 20
2269.105791019546
 10
3567.284823006914
 20
2264.705791019552
 10
3567.284823006914
 20
2264.705791019552
 10
3553.284823006914
 20
2264.705791019552
 97
0
 75
1
 76
1
 98
0
  0
HATCH
  5
129
330
17
100
AcDbEntity
  8
Hachura
 62
7
100
AcDbHatch
 10
0.0
 20
0.0
 30
0.0
210
0.0
220
0.0
230
1.0
  2
SOLID
 70
1
 71
0
 91
1
 92
3
 72
0
 73
1
 93
8
 10
3595.284823006914
 20
2324.70579101953
 10
3591.284823006914
 20
2324.70579101953
 10
3591.284823006914
 20
2324.70579101953
 10
3591.284823006914
 20
2264.705791019552
 10
3591.284823006914
 20
2264.705791019552
 10
3595.284823006914
 20
2264.705791019552
 10
3595.284823006914
 20
2264.705791019552
 10
3595.284823006914
 20
2324.70579101953
 97
0
 75
1
 76
1
 98
0
  0
HATCH
  5
12A
330
17
100
AcDbEntity
  8
Hachura
 62
7
100
AcDbHatch
 10
0.0
 20
0.0
 30
0.0
210
0.0
220
0.0
230
1.0
  2
SOLID
 70
1
 71
0
 91
1
 92
3
 72
0
 73
1
 93
8
 10
3651.284823006885
 20
2324.70579101953
 10
3651.284823006885
 20
2328.70579101953
 10
3651.284823006885
 20
2328.70579101953
 10
3591.284823006914
 20
2328.70579101953
 10
3591.284823006914
 20
2328.70579101953
 10
3591.284823006914
 20
2324.70579101953
 10
3591.284823006914
 20
2324.70579101953
 10
3651.284823006885
 20
2324.70579101953
 97
0
 75
1
 76
1
 98
0
  0
HATCH
  5
12B
330
17
100
AcDbEntity
  8
Hachura
 62
7
100
AcDbHatch
 10
0.0
 20
0.0
 30
0.0
210
0.0
220
0.0
230
1.0
  2
SOLID
 70
1
 71
0
 91
1
 92
3
 72
0
 73
1
 93
8
 10
3595.284823006914
 20
2320.305791019528
 10
3595.284823006914
 20
2324.70579101953
 10
3595.284823006914
 20
2324.70579101953
 10
3609.284823006914
 20
2324.70579101953
 10
3609.284823006914
 20
2324.70579101953
 10
3609.284823006914
 20
2320.305791019528
 10
3609.284823006914
 20
2320.305791019528
 10
3595.284823006914
 20
2320.305791019528
 97
0
 75
1
 76
1
 98
0
  0
HATCH
  5
12C
330
17
100
AcDbEntity
  8
Hachura
 62
7
100
AcDbHatch
 10
0.0
 20
0.0
 30
0.0
210
0.0
220
0.0
230
1.0
  2
SOLID
 70
1
 71
0
 91
1
 92
3
 72
0
 73
1
 93
8
 10
3629.284823006914
 20
2264.705791019552
 10
3629.284823006914
 20
2269.105791019546
 10
3629.284823006914
 20
2269.105791019546
 10
3609.284823006914
 20
2269.105791019546
 10
3609.284823006914
 20
2269.105791019546
 10
3609.284823006914
 20
2264.705791019552
 10
3609.284823006914
 20
2264.705791019552
 10
3629.284823006914
 20
2264.705791019552
 97
0
 75
1
 76
1
 98
0
  0
HATCH
  5
12D
330
17
100
AcDbEntity
  8
Hachura
 62
7
100
AcDbHatch
 10
0.0
 20
0.0
 30
0.0
210
0.0
220
0.0
230
1.0
  2
SOLID
 70
1
 71
0
 91
1
 92
3
 72
0
 73
1
 93
8
 10
3553.284823006914
 20
2324.70579101953
 10
3553.284823006914
 20
2328.70579101953
 10
3553.284823006914
 20
2328.70579101953
 10
3497.684823006937
 20
2328.705791019523
 10
3497.684823006937
 20
2328.705791019523
 10
3497.684823006937
 20
2324.705791019523
 10
3497.684823006937
 20
2324.705791019523
 10
3553.284823006914
 20
2324.70579101953
 97
0
 75
1
 76
1
 98
0
  0
HATCH
  5
12E
330
17
100
AcDbEntity
  8
COTA
 62
7
100
AcDbHatch
 10
0.0
 20
0.0
 30
0.0
210
0.0
220
0.0
230
1.0
  2
SOLID
 70
1
 71
0
 91
1
 92
3
 72
0
 73
1
 93
8
 10
4128.242829289054
 20
2401.967836359069
 10
4128.242829289054
 20
2415.967836359068
 10
4128.242829289054
 20
2415.967836359068
 10
3834.242829289048
 20
2415.967836359068
 10
3834.242829289048
 20
2415.967836359068
 10
3834.242829289048
 20
2401.967836359069
 10
3834.242829289048
 20
2401.967836359069
 10
4128.242829289054
 20
2401.967836359069
 97
0
 75
1
 76
1
 98
0
  0
HATCH
  5
12F
330
17
100
AcDbEntity
  8
COTA
 62
7
100
AcDbHatch
 10
0.0
 20
0.0
 30
0.0
210
0.0
220
0.0
230
1.0
  2
SOLID
 70
1
 71
0
 91
1
 92
3
 72
0
 73
1
 93
8
 10
4128.242829289054
 20
2218.640238403423
 10
4128.242829289054
 20
2232.640238403423
 10
4128.242829289054
 20
2232.640238403423
 10
3834.242829289048
 20
2232.640238403423
 10
3834.242829289048
 20
2232.640238403423
 10
3834.242829289048
 20
2218.640238403423
 10
3834.242829289048
 20
2218.640238403423
 10
4128.242829289054
 20
2218.640238403423
 97
0
 75
1
 76
1
 98
0
  0
HATCH
  5
130
330
17
100
AcDbEntity
  8
Hachura
 62
7
100
AcDbHatch
 10
0.0
 20
0.0
 30
0.0
210
0.0
220
0.0
230
1.0
  2
SOLID
 70
1
 71
0
 91
1
 92
3
 72
0
 73
1
 93
8
 10
3553.284823006916
 20
1921.649500349786
 10
3549.284823006916
 20
1921.649500349783
 10
3549.284823006916
 20
1921.649500349783
 10
3549.284823006914
 20
1861.649500349806
 10
3549.284823006914
 20
1861.649500349806
 10
3553.284823006914
 20
1861.649500349806
 10
3553.284823006914
 20
1861.649500349806
 10
3553.284823006916
 20
1921.649500349786
 97
0
 75
1
 76
1
 98
0
  0
HATCH
  5
131
330
17
100
AcDbEntity
  8
Hachura
 62
7
100
AcDbHatch
 10
0.0
 20
0.0
 30
0.0
210
0.0
220
0.0
230
1.0
  2
SOLID
 70
1
 71
0
 91
1
 92
3
 72
0
 73
1
 93
8
 10
3549.284823006914
 20
1917.249500349783
 10
3549.284823006914
 20
1921.649500349785
 10
3549.284823006914
 20
1921.649500349785
 10
3535.284823006914
 20
1921.649500349785
 10
3535.284823006914
 20
1921.649500349785
 10
3535.284823006914
 20
1917.249500349783
 10
3535.284823006914
 20
1917.249500349783
 10
3549.284823006914
 20
1917.249500349783
 97
0
 75
1
 76
1
 98
0
  0
HATCH
  5
132
330
17
100
AcDbEntity
  8
Hachura
 62
7
100
AcDbHatch
 10
0.0
 20
0.0
 30
0.0
210
0.0
220
0.0
230
1.0
  2
SOLID
 70
1
 71
0
 91
1
 92
3
 72
0
 73
1
 93
8
 10
3515.284823006914
 20
1861.649500349806
 10
3515.284823006914
 20
1866.049500349801
 10
3515.284823006914
 20
1866.049500349801
 10
3535.284823006914
 20
1866.049500349801
 10
3535.284823006914
 20
1866.049500349801
 10
3535.284823006914
 20
1861.649500349806
 10
3535.284823006914
 20
1861.649500349806
 10
3515.284823006914
 20
1861.649500349806
 97
0
 75
1
 76
1
 98
0
  0
HATCH
  5
133
330
17
100
AcDbEntity
  8
Hachura
 62
7
100
AcDbHatch
 10
0.0
 20
0.0
 30
0.0
210
0.0
220
0.0
230
1.0
  2
SOLID
 70
1
 71
0
 91
1
 92
3
 72
0
 73
1
 93
8
 10
3591.284823006914
 20
1861.649500349806
 10
3591.284823006914
 20
1866.049500349801
 10
3591.284823006914
 20
1866.049500349801
 10
3577.284823006914
 20
1866.049500349801
 10
3577.284823006914
 20
1866.049500349801
 10
3577.284823006914
 20
1861.649500349806
 10
3577.284823006914
 20
1861.649500349806
 10
3591.284823006914
 20
1861.649500349806
 97
0
 75
1
 76
1
 98
0
  0
HATCH
  5
134
330
17
100
AcDbEntity
  8
Hachura
 62
7
100
AcDbHatch
 10
0.0
 20
0.0
 30
0.0
210
0.0
220
0.0
230
1.0
  2
SOLID
 70
1
 71
0
 91
1
 92
3
 72
0
 73
1
 93
8
 10
3591.284823006914
 20
1866.049500349801
 10
3591.284823006914
 20
1869.649500349806
 10
3591.284823006914
 20
1869.649500349806
 10
3553.284823006914
 20
1869.649500349806
 10
3553.284823006914
 20
1869.649500349806
 10
3553.284823006914
 20
1866.049500349801
 10
3553.284823006914
 20
1866.049500349801
 10
3591.284823006914
 20
1866.049500349801
 97
0
 75
1
 76
1
 98
0
  0
HATCH
  5
135
330
17
100
AcDbEntity
  8
Hachura
 62
7
100
AcDbHatch
 10
0.0
 20
0.0
 30
0.0
210
0.0
220
0.0
230
1.0
  2
SOLID
 70
1
 71
0
 91
1
 92
3
 72
0
 73
1
 93
8
 10
3553.284823006914
 20
1861.649500349806
 10
3553.284823006914
 20
1866.049500349801
 10
3553.284823006914
 20
1866.049500349801
 10
3567.284823006914
 20
1866.049500349801
 10
3567.284823006914
 20
1866.049500349801
 10
3567.284823006914
 20
1861.649500349806
 10
3567.284823006914
 20
1861.649500349806
 10
3553.284823006914
 20
1861.649500349806
 97
0
 75
1
 76
1
 98
0
  0
HATCH
  5
136
330
17
100
AcDbEntity
  8
Hachura
 62
7
100
AcDbHatch
 10
0.0
 20
0.0
 30
0.0
210
0.0
220
0.0
230
1.0
  2
SOLID
 70
1
 71
0
 91
1
 92
3
 72
0
 73
1
 93
8
 10
3595.284823006914
 20
1921.649500349785
 10
3591.284823006914
 20
1921.649500349785
 10
3591.284823006914
 20
1921.649500349785
 10
3591.284823006914
 20
1861.649500349806
 10
3591.284823006914
 20
1861.649500349806
 10
3595.284823006914
 20
1861.649500349806
 10
3595.284823006914
 20
1861.649500349806
 10
3595.284823006914
 20
1921.649500349785
 97
0
 75
1
 76
1
 98
0
  0
HATCH
  5
137
330
17
100
AcDbEntity
  8
Hachura
 62
7
100
AcDbHatch
 10
0.0
 20
0.0
 30
0.0
210
0.0
220
0.0
230
1.0
  2
SOLID
 70
1
 71
0
 91
1
 92
3
 72
0
 73
1
 93
8
 10
3651.284823006885
 20
1921.649500349785
 10
3651.284823006885
 20
1925.649500349785
 10
3651.284823006885
 20
1925.649500349785
 10
3591.284823006914
 20
1925.649500349785
 10
3591.284823006914
 20
1925.649500349785
 10
3591.284823006914
 20
1921.649500349785
 10
3591.284823006914
 20
1921.649500349785
 10
3651.284823006885
 20
1921.649500349785
 97
0
 75
1
 76
1
 98
0
  0
HATCH
  5
138
330
17
100
AcDbEntity
  8
Hachura
 62
7
100
AcDbHatch
 10
0.0
 20
0.0
 30
0.0
210
0.0
220
0.0
230
1.0
  2
SOLID
 70
1
 71
0
 91
1
 92
3
 72
0
 73
1
 93
8
 10
3595.284823006914
 20
1917.249500349783
 10
3595.284823006914
 20
1921.649500349785
 10
3595.284823006914
 20
1921.649500349785
 10
3609.284823006914
 20
1921.649500349785
 10
3609.284823006914
 20
1921.649500349785
 10
3609.284823006914
 20
1917.249500349783
 10
3609.284823006914
 20
1917.249500349783
 10
3595.284823006914
 20
1917.249500349783
 97
0
 75
1
 76
1
 98
0
  0
HATCH
  5
139
330
17
100
AcDbEntity
  8
Hachura
 62
7
100
AcDbHatch
 10
0.0
 20
0.0
 30
0.0
210
0.0
220
0.0
230
1.0
  2
SOLID
 70
1
 71
0
 91
1
 92
3
 72
0
 73
1
 93
8
 10
3629.284823006914
 20
1861.649500349806
 10
3629.284823006914
 20
1866.049500349801
 10
3629.284823006914
 20
1866.049500349801
 10
3609.284823006914
 20
1866.049500349801
 10
3609.284823006914
 20
1866.049500349801
 10
3609.284823006914
 20
1861.649500349806
 10
3609.284823006914
 20
1861.649500349806
 10
3629.284823006914
 20
1861.649500349806
 97
0
 75
1
 76
1
 98
0
  0
HATCH
  5
13A
330
17
100
AcDbEntity
  8
Hachura
 62
7
100
AcDbHatch
 10
0.0
 20
0.0
 30
0.0
210
0.0
220
0.0
230
1.0
  2
SOLID
 70
1
 71
0
 91
1
 92
3
 72
0
 73
1
 93
8
 10
3553.284823006914
 20
1921.649500349785
 10
3553.284823006914
 20
1925.649500349785
 10
3553.284823006914
 20
1925.649500349785
 10
3497.684823006937
 20
1925.649500349777
 10
3497.684823006937
 20
1925.649500349777
 10
3497.684823006937
 20
1921.649500349777
 10
3497.684823006937
 20
1921.649500349777
 10
3553.284823006914
 20
1921.649500349785
 97
0
 75
1
 76
1
 98
0
  0
HATCH
  5
13B
330
17
100
AcDbEntity
  8
COTA
 62
7
100
AcDbHatch
 10
0.0
 20
0.0
 30
0.0
210
0.0
220
0.0
230
1.0
  2
SOLID
 70
1
 71
0
 91
1
 92
3
 72
0
 73
1
 93
8
 10
4128.242829289054
 20
2025.110563447135
 10
4128.242829289054
 20
2039.110563447136
 10
4128.242829289054
 20
2039.110563447136
 10
3834.242829289048
 20
2039.110563447136
 10
3834.242829289048
 20
2039.110563447136
 10
3834.242829289048
 20
2025.110563447135
 10
3834.242829289048
 20
2025.110563447135
 10
4128.242829289054
 20
2025.110563447135
 97
0
 75
1
 76
1
 98
0
  0
HATCH
  5
13C
330
17
100
AcDbEntity
  8
COTA
 62
7
100
AcDbHatch
 10
0.0
 20
0.0
 30
0.0
210
0.0
220
0.0
230
1.0
  2
SOLID
 70
1
 71
0
 91
1
 92
3
 72
0
 73
1
 93
8
 10
4128.242829289054
 20
1841.782965491489
 10
4128.242829289054
 20
1855.78296549149
 10
4128.242829289054
 20
1855.78296549149
 10
3834.242829289048
 20
1855.78296549149
 10
3834.242829289048
 20
1855.78296549149
 10
3834.242829289048
 20
1841.782965491489
 10
3834.242829289048
 20
1841.782965491489
 10
4128.242829289054
 20
1841.782965491489
 97
0
 75
1
 76
1
 98
0
  0
ENDSEC
  0
SECTION
  2
OBJECTS
  0
DICTIONARY
  5
A
330
0
100
AcDbDictionary
281
1
  3
ACAD_COLOR
350
B
  3
ACAD_GROUP
350
C
  3
ACAD_LAYOUT
350
D
  3
ACAD_MATERIAL
350
E
  3
ACAD_MLEADERSTYLE
350
F
  3
ACAD_MLINESTYLE
350
10
  3
ACAD_PLOTSETTINGS
350
11
  3
ACAD_PLOTSTYLENAME
350
12
  3
ACAD_SCALELIST
350
14
  3
ACAD_TABLESTYLE
350
15
  3
ACAD_VISUALSTYLE
350
16
  3
EZDXF_META
350
2D
  0
DICTIONARY
  5
B
330
A
100
AcDbDictionary
281
1
  0
DICTIONARY
  5
C
330
A
100
AcDbDictionary
281
1
  0
DICTIONARY
  5
D
330
A
100
AcDbDictionary
281
1
  3
Model
350
1A
  3
Layout1
350
1E
  0
DICTIONARY
  5
E
330
A
100
AcDbDictionary
281
1
  3
ByBlock
350
1F
  3
ByLayer
350
20
  3
Global
350
21
  0
DICTIONARY
  5
F
330
A
100
AcDbDictionary
281
1
  3
Standard
350
2C
  0
DICTIONARY
  5
10
330
A
100
AcDbDictionary
281
1
  3
Standard
350
22
  0
DICTIONARY
  5
11
330
A
100
AcDbDictionary
281
1
  0
ACDBDICTIONARYWDFLT
  5
12
330
A
100
AcDbDictionary
281
1
  3
Normal
350
13
100
AcDbDictionaryWithDefault
340
13
  0
ACDBPLACEHOLDER
  5
13
330
12
  0
DICTIONARY
  5
14
330
A
100
AcDbDictionary
281
1
  0
DICTIONARY
  5
15
330
A
100
AcDbDictionary
281
1
  0
DICTIONARY
  5
16
330
A
100
AcDbDictionary
281
1
  0
LAYOUT
  5
1A
330
D
100
AcDbPlotSettings
  1

  4
A3
  6

 40
7.5
 41
20.0
 42
7.5
 43
20.0
 44
420.0
 45
297.0
 46
0.0
 47
0.0
 48
0.0
 49
0.0
140
0.0
141
0.0
142
1.0
143
1.0
 70
1024
 72
1
 73
0
 74
5
  7

 75
16
 76
0
 77
2
 78
300
147
1.0
148
0.0
149
0.0
100
AcDbLayout
  1
Model
 70
1
 71
0
 10
0.0
 20
0.0
 11
420.0
 21
297.0
 12
0.0
 22
0.0
 32
0.0
 14
1e+20
 24
1e+20
 34
1e+20
 15
-1e+20
 25
-1e+20
 35
-1e+20
146
0.0
 13
0.0
 23
0.0
 33
0.0
 16
1.0
 26
0.0
 36
0.0
 17
0.0
 27
1.0
 37
0.0
 76
1
330
17
  0
LAYOUT
  5
1E
330
D
100
AcDbPlotSettings
  1

  4
A3
  6

 40
7.5
 41
20.0
 42
7.5
 43
20.0
 44
420.0
 45
297.0
 46
0.0
 47
0.0
 48
0.0
 49
0.0
140
0.0
141
0.0
142
1.0
143
1.0
 70
0
 72
1
 73
0
 74
5
  7

 75
16
 76
0
 77
2
 78
300
147
1.0
148
0.0
149
0.0
100
AcDbLayout
  1
Layout1
 70
1
 71
1
 10
0.0
 20
0.0
 11
420.0
 21
297.0
 12
0.0
 22
0.0
 32
0.0
 14
1e+20
 24
1e+20
 34
1e+20
 15
-1e+20
 25
-1e+20
 35
-1e+20
146
0.0
 13
0.0
 23
0.0
 33
0.0
 16
1.0
 26
0.0
 36
0.0
 17
0.0
 27
1.0
 37
0.0
 76
1
330
1B
  0
MATERIAL
  5
1F
102
{ACAD_REACTORS
330
E
102
}
330
E
100
AcDbMaterial
  1
ByBlock
  2

 70
0
 40
1.0
 71
1
 41
1.0
 91
-1023410177
 42
1.0
 72
1
  3

 73
1
 74
1
 75
1
 44
0.5
 73
0
 45
1.0
 46
1.0
 77
1
  4

 78
1
 79
1
170
1
 48
1.0
171
1
  6

172
1
173
1
174
1
140
1.0
141
1.0
175
1
  7

176
1
177
1
178
1
143
1.0
179
1
  8

270
1
271
1
272
1
145
1.0
146
1.0
273
1
  9

274
1
275
1
276
1
 42
1.0
 72
1
  3

 73
1
 74
1
 75
1
 94
63
  0
MATERIAL
  5
20
102
{ACAD_REACTORS
330
E
102
}
330
E
100
AcDbMaterial
  1
ByLayer
  2

 70
0
 40
1.0
 71
1
 41
1.0
 91
-1023410177
 42
1.0
 72
1
  3

 73
1
 74
1
 75
1
 44
0.5
 73
0
 45
1.0
 46
1.0
 77
1
  4

 78
1
 79
1
170
1
 48
1.0
171
1
  6

172
1
173
1
174
1
140
1.0
141
1.0
175
1
  7

176
1
177
1
178
1
143
1.0
179
1
  8

270
1
271
1
272
1
145
1.0
146
1.0
273
1
  9

274
1
275
1
276
1
 42
1.0
 72
1
  3

 73
1
 74
1
 75
1
 94
63
  0
MATERIAL
  5
21
102
{ACAD_REACTORS
330
E
102
}
330
E
100
AcDbMaterial
  1
Global
  2

 70
0
 40
1.0
 71
1
 41
1.0
 91
-1023410177
 42
1.0
 72
1
  3

 73
1
 74
1
 75
1
 44
0.5
 73
0
 45
1.0
 46
1.0
 77
1
  4

 78
1
 79
1
170
1
 48
1.0
171
1
  6

172
1
173
1
174
1
140
1.0
141
1.0
175
1
  7

176
1
177
1
178
1
143
1.0
179
1
  8

270
1
271
1
272
1
145
1.0
146
1.0
273
1
  9

274
1
275
1
276
1
 42
1.0
 72
1
  3

 73
1
 74
1
 75
1
 94
63
  0
MLINESTYLE
  5
22
102
{ACAD_REACTORS
330
10
102
}
330
10
100
AcDbMlineStyle
  2
Standard
 70
0
  3

 62
256
 51
90.0
 52
90.0
 71
2
 49
0.5
 62
256
  6
BYLAYER
 49
-0.5
 62
256
  6
BYLAYER
  0
MLEADERSTYLE
  5
2C
102
{ACAD_REACTORS
330
F
102
}
330
F
100
AcDbMLeaderStyle
179
2
170
2
171
1
172
0
 90
2
 40
0.0
 41
0.0
173
1
 91
-1056964608
 92
-2
290
1
 42
2.0
291
1
 43
8.0
  3
Standard
 44
4.0
300

342
29
174
1
175
1
176
0
178
1
 93
-1056964608
 45
4.0
292
0
297
0
 46
4.0
 94
-1056964608
 47
1.0
 49
1.0
140
1.0
294
1
141
0.0
177
0
142
1.0
295
0
296
0
143
3.75
271
0
272
9
273
9
  0
DICTIONARY
  5
2D
330
A
100
AcDbDictionary
280
1
281
1
  3
CREATED_BY_EZDXF
350
2E
  3
WRITTEN_BY_EZDXF
350
13F
  0
DICTIONARYVAR
  5
2E
330
2D
100
DictionaryVariables
280
0
  1
1.4.3 @ 2026-06-10T16:54:43.715857+00:00
  0
DICTIONARYVAR
  5
13F
330
2D
100
DictionaryVariables
280
0
  1
1.4.3 @ 2026-06-10T16:54:43.725051+00:00
  0
ENDSEC
  0
EOF
