  0
SECTION
  2
HEADER
  9
$ACADVER
  1
AC1024
  9
$ACADMAINTVER
 70
6
  9
$DWGCODEPAGE
  3
ANSI_1252
  9
$LASTSAVEDBY
  1
ezdxf
  9
$INSBASE
 10
0.0
 20
0.0
 30
0.0
  9
$EXTMIN
 10
1e+20
 20
1e+20
 30
1e+20
  9
$EXTMAX
 10
-1e+20
 20
-1e+20
 30
-1e+20
  9
$LIMMIN
 10
0.0
 20
0.0
  9
$LIMMAX
 10
420.0
 20
297.0
  9
$ORTHOMODE
 70
0
  9
$REGENMODE
 70
1
  9
$FILLMODE
 70
1
  9
$QTEXTMODE
 70
0
  9
$MIRRTEXT
 70
1
  9
$LTSCALE
 40
1.0
  9
$ATTMODE
 70
1
  9
$TEXTSIZE
 40
2.5
  9
$TRACEWID
 40
1.0
  9
$TEXTSTYLE
  7
Standard
  9
$CLAYER
  8
0
  9
$CELTYPE
  6
ByLayer
  9
$CECOLOR
 62
256
  9
$CELTSCALE
 40
1.0
  9
$DISPSILH
 70
0
  9
$DIMSCALE
 40
1.0
  9
$DIMASZ
 40
2.5
  9
$DIMEXO
 40
0.625
  9
$DIMDLI
 40
3.75
  9
$DIMRND
 40
0.0
  9
$DIMDLE
 40
0.0
  9
$DIMEXE
 40
1.25
  9
$DIMTP
 40
0.0
  9
$DIMTM
 40
0.0
  9
$DIMTXT
 40
2.5
  9
$DIMCEN
 40
2.5
  9
$DIMTSZ
 40
0.0
  9
$DIMTOL
 70
0
  9
$DIMLIM
 70
0
  9
$DIMTIH
 70
0
  9
$DIMTOH
 70
0
  9
$DIMSE1
 70
0
  9
$DIMSE2
 70
0
  9
$DIMTAD
 70
1
  9
$DIMZIN
 70
8
  9
$DIMBLK
  1

  9
$DIMASO
 70
1
  9
$DIMSHO
 70
1
  9
$DIMPOST
  1

  9
$DIMAPOST
  1

  9
$DIMALT
 70
0
  9
$DIMALTD
 70
3
  9
$DIMALTF
 40
0.03937007874
  9
$DIMLFAC
 40
1.0
  9
$DIMTOFL
 70
1
  9
$DIMTVP
 40
0.0
  9
$DIMTIX
 70
0
  9
$DIMSOXD
 70
0
  9
$DIMSAH
 70
0
  9
$DIMBLK1
  1

  9
$DIMBLK2
  1

  9
$DIMSTYLE
  2
ISO-25
  9
$DIMCLRD
 70
0
  9
$DIMCLRE
 70
0
  9
$DIMCLRT
 70
0
  9
$DIMTFAC
 40
1.0
  9
$DIMGAP
 40
0.625
  9
$DIMJUST
 70
0
  9
$DIMSD1
 70
0
  9
$DIMSD2
 70
0
  9
$DIMTOLJ
 70
0
  9
$DIMTZIN
 70
8
  9
$DIMALTZ
 70
0
  9
$DIMALTTZ
 70
0
  9
$DIMUPT
 70
0
  9
$DIMDEC
 70
2
  9
$DIMTDEC
 70
2
  9
$DIMALTU
 70
2
  9
$DIMALTTD
 70
3
  9
$DIMTXSTY
  7
Standard
  9
$DIMAUNIT
 70
0
  9
$DIMADEC
 70
0
  9
$DIMALTRND
 40
0.0
  9
$DIMAZIN
 70
0
  9
$DIMDSEP
 70
44
  9
$DIMATFIT
 70
3
  9
$DIMFRAC
 70
0
  9
$DIMLDRBLK
  1

  9
$DIMLUNIT
 70
2
  9
$DIMLWD
 70
-2
  9
$DIMLWE
 70
-2
  9
$DIMTMOVE
 70
0
  9
$DIMFXL
 40
1.0
  9
$DIMFXLON
 70
0
  9
$DIMJOGANG
 40
0.785398163397
  9
$DIMTFILL
 70
0
  9
$DIMTFILLCLR
 70
0
  9
$DIMARCSYM
 70
0
  9
$DIMLTYPE
  6

  9
$DIMLTEX1
  6

  9
$DIMLTEX2
  6

  9
$DIMTXTDIRECTION
 70
0
  9
$LUNITS
 70
2
  9
$LUPREC
 70
4
  9
$SKETCHINC
 40
1.0
  9
$FILLETRAD
 40
10.0
  9
$AUNITS
 70
0
  9
$AUPREC
 70
2
  9
$MENU
  1
.
  9
$ELEVATION
 40
0.0
  9
$PELEVATION
 40
0.0
  9
$THICKNESS
 40
0.0
  9
$LIMCHECK
 70
0
  9
$CHAMFERA
 40
0.0
  9
$CHAMFERB
 40
0.0
  9
$CHAMFERC
 40
0.0
  9
$CHAMFERD
 40
0.0
  9
$SKPOLY
 70
0
  9
$TDCREATE
 40
2461202.6158564813
  9
$TDUCREATE
 40
2458532.153996898
  9
$TDUPDATE
 40
2461202.6158564813
  9
$TDUUPDATE
 40
2458532.1544311
  9
$TDINDWG
 40
0.0
  9
$TDUSRTIMER
 40
0.0
  9
$USRTIMER
 70
1
  9
$ANGBASE
 50
0.0
  9
$ANGDIR
 70
0
  9
$PDMODE
 70
0
  9
$PDSIZE
 40
0.0
  9
$PLINEWID
 40
0.0
  9
$SPLFRAME
 70
0
  9
$SPLINETYPE
 70
6
  9
$SPLINESEGS
 70
8
  9
$HANDSEED
  5
2B5
  9
$SURFTAB1
 70
6
  9
$SURFTAB2
 70
6
  9
$SURFTYPE
 70
6
  9
$SURFU
 70
6
  9
$SURFV
 70
6
  9
$UCSBASE
  2

  9
$UCSNAME
  2

  9
$UCSORG
 10
0.0
 20
0.0
 30
0.0
  9
$UCSXDIR
 10
1.0
 20
0.0
 30
0.0
  9
$UCSYDIR
 10
0.0
 20
1.0
 30
0.0
  9
$UCSORTHOREF
  2

  9
$UCSORTHOVIEW
 70
0
  9
$UCSORGTOP
 10
0.0
 20
0.0
 30
0.0
  9
$UCSORGBOTTOM
 10
0.0
 20
0.0
 30
0.0
  9
$UCSORGLEFT
 10
0.0
 20
0.0
 30
0.0
  9
$UCSORGRIGHT
 10
0.0
 20
0.0
 30
0.0
  9
$UCSORGFRONT
 10
0.0
 20
0.0
 30
0.0
  9
$UCSORGBACK
 10
0.0
 20
0.0
 30
0.0
  9
$PUCSBASE
  2

  9
$PUCSNAME
  2

  9
$PUCSORG
 10
0.0
 20
0.0
 30
0.0
  9
$PUCSXDIR
 10
1.0
 20
0.0
 30
0.0
  9
$PUCSYDIR
 10
0.0
 20
1.0
 30
0.0
  9
$PUCSORTHOREF
  2

  9
$PUCSORTHOVIEW
 70
0
  9
$PUCSORGTOP
 10
0.0
 20
0.0
 30
0.0
  9
$PUCSORGBOTTOM
 10
0.0
 20
0.0
 30
0.0
  9
$PUCSORGLEFT
 10
0.0
 20
0.0
 30
0.0
  9
$PUCSORGRIGHT
 10
0.0
 20
0.0
 30
0.0
  9
$PUCSORGFRONT
 10
0.0
 20
0.0
 30
0.0
  9
$PUCSORGBACK
 10
0.0
 20
0.0
 30
0.0
  9
$USERI1
 70
0
  9
$USERI2
 70
0
  9
$USERI3
 70
0
  9
$USERI4
 70
0
  9
$USERI5
 70
0
  9
$USERR1
 40
0.0
  9
$USERR2
 40
0.0
  9
$USERR3
 40
0.0
  9
$USERR4
 40
0.0
  9
$USERR5
 40
0.0
  9
$WORLDVIEW
 70
1
  9
$SHADEDGE
 70
3
  9
$SHADEDIF
 70
70
  9
$TILEMODE
 70
1
  9
$MAXACTVP
 70
64
  9
$PINSBASE
 10
0.0
 20
0.0
 30
0.0
  9
$PLIMCHECK
 70
0
  9
$PEXTMIN
 10
1e+20
 20
1e+20
 30
1e+20
  9
$PEXTMAX
 10
-1e+20
 20
-1e+20
 30
-1e+20
  9
$PLIMMIN
 10
0.0
 20
0.0
  9
$PLIMMAX
 10
420.0
 20
297.0
  9
$UNITMODE
 70
0
  9
$VISRETAIN
 70
1
  9
$PLINEGEN
 70
0
  9
$PSLTSCALE
 70
1
  9
$TREEDEPTH
 70
3020
  9
$CMLSTYLE
  2
Standard
  9
$CMLJUST
 70
0
  9
$CMLSCALE
 40
20.0
  9
$PROXYGRAPHICS
 70
1
  9
$MEASUREMENT
 70
1
  9
$CELWEIGHT
370
-1
  9
$ENDCAPS
280
0
  9
$JOINSTYLE
280
0
  9
$LWDISPLAY
290
0
  9
$INSUNITS
 70
6
  9
$HYPERLINKBASE
  1

  9
$STYLESHEET
  1

  9
$XEDIT
290
1
  9
$CEPSNTYPE
380
0
  9
$PSTYLEMODE
290
1
  9
$FINGERPRINTGUID
  2
{18412CA5-89BB-4895-8CB5-BD0B87215174}
  9
$VERSIONGUID
  2
{985499A3-F1B7-43E7-9382-027AA8C965BC}
  9
$EXTNAMES
290
1
  9
$PSVPSCALE
 40
0.0
  9
$OLESTARTUP
290
0
  9
$SORTENTS
280
127
  9
$INDEXCTL
280
0
  9
$HIDETEXT
280
1
  9
$XCLIPFRAME
280
1
  9
$HALOGAP
280
0
  9
$OBSCOLOR
 70
257
  9
$OBSLTYPE
280
0
  9
$INTERSECTIONDISPLAY
280
0
  9
$INTERSECTIONCOLOR
 70
257
  9
$DIMASSOC
280
2
  9
$PROJECTNAME
  1

  9
$CAMERADISPLAY
290
0
  9
$LENSLENGTH
 40
50.0
  9
$CAMERAHEIGHT
 40
0.0
  9
$STEPSPERSEC
 40
24.0
  9
$STEPSIZE
 40
100.0
  9
$3DDWFPREC
 40
2.0
  9
$PSOLWIDTH
 40
0.005
  9
$PSOLHEIGHT
 40
0.08
  9
$LOFTANG1
 40
1.570796326795
  9
$LOFTANG2
 40
1.570796326795
  9
$LOFTMAG1
 40
0.0
  9
$LOFTMAG2
 40
0.0
  9
$LOFTPARAM
 70
7
  9
$LOFTNORMALS
280
1
  9
$LATITUDE
 40
37.795
  9
$LONGITUDE
 40
-122.394
  9
$NORTHDIRECTION
 40
0.0
  9
$TIMEZONE
 70
-8000
  9
$LIGHTGLYPHDISPLAY
280
1
  9
$TILEMODELIGHTSYNCH
280
1
  9
$CMATERIAL
347
20
  9
$SOLIDHIST
280
0
  9
$SHOWHIST
280
1
  9
$DWFFRAME
280
2
  9
$DGNFRAME
280
2
  9
$REALWORLDSCALE
290
1
  9
$INTERFERECOLOR
 62
256
  9
$CSHADOW
280
0
  9
$SHADOWPLANELOCATION
 40
0.0
  0
ENDSEC
  0
SECTION
  2
CLASSES
  0
CLASS
  1
ACDBDICTIONARYWDFLT
  2
AcDbDictionaryWithDefault
  3
ObjectDBX Classes
 90
0
 91
0
280
0
281
0
  0
CLASS
  1
SUN
  2
AcDbSun
  3
SCENEOE
 90
1153
 91
0
280
0
281
0
  0
CLASS
  1
VISUALSTYLE
  2
AcDbVisualStyle
  3
ObjectDBX Classes
 90
4095
 91
0
280
0
281
0
  0
CLASS
  1
MATERIAL
  2
AcDbMaterial
  3
ObjectDBX Classes
 90
1153
 91
0
280
0
281
0
  0
CLASS
  1
SCALE
  2
AcDbScale
  3
ObjectDBX Classes
 90
1153
 91
0
280
0
281
0
  0
CLASS
  1
TABLESTYLE
  2
AcDbTableStyle
  3
ObjectDBX Classes
 90
4095
 91
0
280
0
281
0
  0
CLASS
  1
MLEADERSTYLE
  2
AcDbMLeaderStyle
  3
ACDB_MLEADERSTYLE_CLASS
 90
4095
 91
0
280
0
281
0
  0
CLASS
  1
DICTIONARYVAR
  2
AcDbDictionaryVar
  3
ObjectDBX Classes
 90
0
 91
0
280
0
281
0
  0
CLASS
  1
CELLSTYLEMAP
  2
AcDbCellStyleMap
  3
ObjectDBX Classes
 90
1152
 91
0
280
0
281
0
  0
CLASS
  1
MENTALRAYRENDERSETTINGS
  2
AcDbMentalRayRenderSettings
  3
SCENEOE
 90
1024
 91
0
280
0
281
0
  0
CLASS
  1
ACDBDETAILVIEWSTYLE
  2
AcDbDetailViewStyle
  3
ObjectDBX Classes
 90
1025
 91
0
280
0
281
0
  0
CLASS
  1
ACDBSECTIONVIEWSTYLE
  2
AcDbSectionViewStyle
  3
ObjectDBX Classes
 90
1025
 91
0
280
0
281
0
  0
CLASS
  1
RASTERVARIABLES
  2
AcDbRasterVariables
  3
ISM
 90
0
 91
0
280
0
281
0
  0
CLASS
  1
ACDBPLACEHOLDER
  2
AcDbPlaceHolder
  3
ObjectDBX Classes
 90
0
 91
0
280
0
281
0
  0
CLASS
  1
LAYOUT
  2
AcDbLayout
  3
ObjectDBX Classes
 90
0
 91
0
280
0
281
0
  0
ENDSEC
  0
SECTION
  2
TABLES
  0
TABLE
  2
VPORT
  5
8
330
0
100
AcDbSymbolTable
 70
1
  0
VPORT
  5
23
330
8
100
AcDbSymbolTableRecord
100
AcDbViewportTableRecord
  2
*Active
 70
0
 10
0.0
 20
0.0
 11
1.0
 21
1.0
 12
0.0
 22
0.0
 13
0.0
 23
0.0
 14
0.5
 24
0.5
 15
0.5
 25
0.5
 16
0.0
 26
0.0
 36
1.0
 17
0.0
 27
0.0
 37
0.0
 40
1000.0
 41
1.34
 42
50.0
 43
0.0
 44
0.0
 50
0.0
 51
0.0
 71
0
 72
1000
 73
1
 74
3
 75
0
 76
0
 77
0
 78
0
281
0
 65
0
146
0.0
  0
ENDTAB
  0
TABLE
  2
LTYPE
  5
2
330
0
100
AcDbSymbolTable
 70
3
  0
LTYPE
  5
24
330
2
100
AcDbSymbolTableRecord
100
AcDbLinetypeTableRecord
  2
ByBlock
 70
0
  3

 72
65
 73
0
 40
0.0
  0
LTYPE
  5
25
330
2
100
AcDbSymbolTableRecord
100
AcDbLinetypeTableRecord
  2
ByLayer
 70
0
  3

 72
65
 73
0
 40
0.0
  0
LTYPE
  5
26
330
2
100
AcDbSymbolTableRecord
100
AcDbLinetypeTableRecord
  2
Continuous
 70
0
  3

 72
65
 73
0
 40
0.0
  0
ENDTAB
  0
TABLE
  2
LAYER
  5
1
330
0
100
AcDbSymbolTable
 70
21
  0
LAYER
  5
27
330
1
100
AcDbSymbolTableRecord
100
AcDbLayerTableRecord
  2
0
 70
0
 62
7
  6
Continuous
370
-3
390
13
347
21
  0
LAYER
  5
28
330
1
100
AcDbSymbolTableRecord
100
AcDbLayerTableRecord
  2
Defpoints
 70
0
 62
7
  6
Continuous
290
0
370
-3
390
13
347
21
  0
LAYER
  5
2F
330
1
100
AcDbSymbolTableRecord
100
AcDbLayerTableRecord
  2
barrote
 70
0
 62
7
  6
Continuous
370
-3
390
13
347
21
  0
LAYER
  5
30
330
1
100
AcDbSymbolTableRecord
100
AcDbLayerTableRecord
  2
COTA
 70
0
 62
7
  6
Continuous
370
-3
390
13
347
21
  0
LAYER
  5
31
330
1
100
AcDbSymbolTableRecord
100
AcDbLayerTableRecord
  2
SCO-___-LAJ
 70
0
 62
7
  6
Continuous
370
-3
390
13
347
21
  0
LAYER
  5
32
330
1
100
AcDbSymbolTableRecord
100
AcDbLayerTableRecord
  2
Cota Seção (2x)
 70
0
 62
7
  6
Continuous
370
-3
390
13
347
21
  0
LAYER
  5
33
330
1
100
AcDbSymbolTableRecord
100
AcDbLayerTableRecord
  2
5
 70
0
 62
7
  6
Continuous
370
-3
390
13
347
21
  0
LAYER
  5
34
330
1
100
AcDbSymbolTableRecord
100
AcDbLayerTableRecord
  2
detalhes
 70
0
 62
7
  6
Continuous
370
-3
390
13
347
21
  0
LAYER
  5
35
330
1
100
AcDbSymbolTableRecord
100
AcDbLayerTableRecord
  2
CONCRETO
 70
0
 62
7
  6
Continuous
370
-3
390
13
347
21
  0
LAYER
  5
36
330
1
100
AcDbSymbolTableRecord
100
AcDbLayerTableRecord
  2
Madeira
 70
0
 62
7
  6
Continuous
370
-3
390
13
347
21
  0
LAYER
  5
37
330
1
100
AcDbSymbolTableRecord
100
AcDbLayerTableRecord
  2
Texto Seção
 70
0
 62
7
  6
Continuous
370
-3
390
13
347
21
  0
LAYER
  5
38
330
1
100
AcDbSymbolTableRecord
100
AcDbLayerTableRecord
  2
Hachura
 70
0
 62
7
  6
Continuous
370
-3
390
13
347
21
  0
LAYER
  5
39
330
1
100
AcDbSymbolTableRecord
100
AcDbLayerTableRecord
  2
TENSOR
 70
0
 62
7
  6
Continuous
370
-3
390
13
347
21
  0
LAYER
  5
3A
330
1
100
AcDbSymbolTableRecord
100
AcDbLayerTableRecord
  2
presilha
 70
0
 62
7
  6
Continuous
370
-3
390
13
347
21
  0
LAYER
  5
3B
330
1
100
AcDbSymbolTableRecord
100
AcDbLayerTableRecord
  2
texto
 70
0
 62
7
  6
Continuous
370
-3
390
13
347
21
  0
LAYER
  5
3C
330
1
100
AcDbSymbolTableRecord
100
AcDbLayerTableRecord
  2
SARR_2.2x7
 70
0
 62
7
  6
Continuous
370
-3
390
13
347
21
  0
LAYER
  5
3D
330
1
100
AcDbSymbolTableRecord
100
AcDbLayerTableRecord
  2
SARR_3.5x7
 70
0
 62
7
  6
Continuous
370
-3
390
13
347
21
  0
LAYER
  5
3E
330
1
100
AcDbSymbolTableRecord
100
AcDbLayerTableRecord
  2
TEXTO PILAR
 70
0
 62
7
  6
Continuous
370
-3
390
13
347
21
  0
LAYER
  5
3F
330
1
100
AcDbSymbolTableRecord
100
AcDbLayerTableRecord
  2
Painéis
 70
0
 62
7
  6
Continuous
370
-3
390
13
347
21
  0
LAYER
  5
40
330
1
100
AcDbSymbolTableRecord
100
AcDbLayerTableRecord
  2
NOMENCLATURA
 70
0
 62
7
  6
Continuous
370
-3
390
13
347
21
  0
LAYER
  5
41
330
1
100
AcDbSymbolTableRecord
100
AcDbLayerTableRecord
  2
Cotas
 70
0
 62
7
  6
Continuous
370
-3
390
13
347
21
  0
ENDTAB
  0
TABLE
  2
STYLE
  5
5
330
0
100
AcDbSymbolTable
 70
1
  0
STYLE
  5
29
330
5
100
AcDbSymbolTableRecord
100
AcDbTextStyleTableRecord
  2
Standard
 70
0
 40
0.0
 41
1.0
 50
0.0
 71
0
 42
2.5
  3
txt
  4

  0
ENDTAB
  0
TABLE
  2
VIEW
  5
7
330
0
100
AcDbSymbolTable
 70
0
  0
ENDTAB
  0
TABLE
  2
UCS
  5
6
330
0
100
AcDbSymbolTable
 70
0
  0
ENDTAB
  0
TABLE
  2
APPID
  5
3
330
0
100
AcDbSymbolTable
 70
3
  0
APPID
  5
2A
330
3
100
AcDbSymbolTableRecord
100
AcDbRegAppTableRecord
  2
ACAD
 70
0
  0
APPID
  5
2B2
330
3
100
AcDbSymbolTableRecord
100
AcDbRegAppTableRecord
  2
HATCHBACKGROUNDCOLOR
 70
0
  0
APPID
  5
2B3
330
3
100
AcDbSymbolTableRecord
100
AcDbRegAppTableRecord
  2
EZDXF
 70
0
  0
ENDTAB
  0
TABLE
  2
DIMSTYLE
  5
4
330
0
100
AcDbSymbolTable
 70
1
100
AcDbDimStyleTable
  0
DIMSTYLE
105
2B
330
4
100
AcDbSymbolTableRecord
100
AcDbDimStyleTableRecord
  2
Standard
 70
0
 40
1.0
 41
2.5
 42
0.625
 43
3.75
 44
1.25
 45
0.0
 46
0.0
 47
0.0
 48
0.0
 49
2.5
140
2.5
141
2.5
142
0.0
143
0.03937007874
144
1.0
145
0.0
146
1.0
147
0.625
148
0.0
 69
0
 70
0
 71
0
 72
0
 73
0
 74
0
 75
0
 76
0
 77
1
 78
8
 79
3
170
0
171
3
172
1
173
0
174
0
175
0
176
0
177
0
178
0
179
2
271
2
272
2
273
2
274
3
275
0
276
0
277
2
278
44
279
0
280
0
281
0
282
0
283
0
284
8
285
0
286
0
288
0
289
3
290
0
371
-2
372
-2
  0
ENDTAB
  0
TABLE
  2
BLOCK_RECORD
  5
9
330
0
100
AcDbSymbolTable
 70
2
  0
BLOCK_RECORD
  5
17
330
9
100
AcDbSymbolTableRecord
100
AcDbBlockTableRecord
  2
*Model_Space
340
1A
 70
0
280
1
281
0
  0
BLOCK_RECORD
  5
1B
330
9
100
AcDbSymbolTableRecord
100
AcDbBlockTableRecord
  2
*Paper_Space
340
1E
 70
0
280
1
281
0
  0
ENDTAB
  0
ENDSEC
  0
SECTION
  2
BLOCKS
  0
BLOCK
  5
18
330
17
100
AcDbEntity
  8
0
100
AcDbBlockBegin
  2
*Model_Space
 70
0
 10
0.0
 20
0.0
 30
0.0
  3
*Model_Space
  1

  0
ENDBLK
  5
19
330
17
100
AcDbEntity
  8
0
100
AcDbBlockEnd
  0
BLOCK
  5
1C
330
1B
100
AcDbEntity
  8
0
100
AcDbBlockBegin
  2
*Paper_Space
 70
0
 10
0.0
 20
0.0
 30
0.0
  3
*Paper_Space
  1

  0
ENDBLK
  5
1D
330
1B
100
AcDbEntity
  8
0
100
AcDbBlockEnd
  0
ENDSEC
  0
SECTION
  2
ENTITIES
  0
LINE
  5
42
330
17
100
AcDbEntity
  8
0
 62
7
370
25
100
AcDbLine
 10
5090.284823006885
 20
2280.675848547843
 30
0.0
 11
5090.284823006885
 21
2268.675848547843
 31
0.0
  0
LINE
  5
43
330
17
100
AcDbEntity
  8
0
 62
7
370
25
100
AcDbLine
 10
5226.284823006913
 20
2277.675848547858
 30
0.0
 11
5226.284823006913
 21
2271.675848547857
 31
0.0
  0
LINE
  5
44
330
17
100
AcDbEntity
  8
0
 62
7
370
25
100
AcDbLine
 10
5224.284823006914
 20
2280.675848547858
 30
0.0
 11
5224.284823006914
 21
2268.675848547858
 31
0.0
  0
LINE
  5
45
330
17
100
AcDbEntity
  8
0
 62
7
370
25
100
AcDbLine
 10
5224.284823006914
 20
2271.675848547857
 30
0.0
 11
5226.284823006913
 21
2271.675848547857
 31
0.0
  0
LINE
  5
46
330
17
100
AcDbEntity
  8
0
 62
7
370
25
100
AcDbLine
 10
5090.284823006885
 20
2268.675848547843
 30
0.0
 11
5120.284823006885
 21
2268.675848547843
 31
0.0
  0
LINE
  5
47
330
17
100
AcDbEntity
  8
0
 62
7
370
25
100
AcDbLine
 10
5194.284823006913
 20
2273.675848547858
 30
0.0
 11
5224.284823006914
 21
2273.675848547858
 31
0.0
  0
LINE
  5
48
330
17
100
AcDbEntity
  8
0
 62
7
370
25
100
AcDbLine
 10
5194.284823006913
 20
2275.675848547858
 30
0.0
 11
5224.284823006914
 21
2275.675848547858
 31
0.0
  0
LINE
  5
49
330
17
100
AcDbEntity
  8
TENSOR
 62
3
370
25
100
AcDbLine
 10
5229.284823006913
 20
2274.675848547843
 30
0.0
 11
5084.981528828786
 21
2274.675848547843
 31
0.0
  0
LINE
  5
4A
330
17
100
AcDbEntity
  8
0
 62
7
370
25
100
AcDbLine
 10
5224.284823006914
 20
2277.675848547858
 30
0.0
 11
5226.284823006913
 21
2277.675848547858
 31
0.0
  0
LINE
  5
4B
330
17
100
AcDbEntity
  8
0
 62
7
370
25
100
AcDbLine
 10
5120.284823006885
 20
2273.675848547843
 30
0.0
 11
5090.284823006885
 21
2273.675848547843
 31
0.0
  0
LINE
  5
4C
330
17
100
AcDbEntity
  8
0
 62
7
370
25
100
AcDbLine
 10
5120.284823006885
 20
2275.675848547843
 30
0.0
 11
5090.284823006885
 21
2275.675848547843
 31
0.0
  0
LINE
  5
4D
330
17
100
AcDbEntity
  8
0
 62
7
370
25
100
AcDbLine
 10
5090.284823006885
 20
2280.675848547843
 30
0.0
 11
5120.284823006885
 21
2280.675848547843
 31
0.0
  0
LINE
  5
4E
330
17
100
AcDbEntity
  8
0
 62
7
370
25
100
AcDbLine
 10
5224.284823006914
 20
2268.675848547858
 30
0.0
 11
5194.284823006913
 21
2268.675848547858
 31
0.0
  0
LINE
  5
4F
330
17
100
AcDbEntity
  8
0
 62
7
370
25
100
AcDbLine
 10
5224.284823006914
 20
2280.675848547858
 30
0.0
 11
5194.284823006913
 21
2280.675848547858
 31
0.0
  0
LINE
  5
50
330
17
100
AcDbEntity
  8
0
 62
7
370
25
100
AcDbLine
 10
5088.284823006885
 20
2277.675848547843
 30
0.0
 11
5088.284823006885
 21
2271.675848547843
 31
0.0
  0
LINE
  5
51
330
17
100
AcDbEntity
  8
0
 62
7
370
25
100
AcDbLine
 10
5090.284823006885
 20
2271.675848547843
 30
0.0
 11
5088.284823006885
 21
2271.675848547843
 31
0.0
  0
LINE
  5
52
330
17
100
AcDbEntity
  8
0
 62
7
370
25
100
AcDbLine
 10
5088.284823006885
 20
2277.675848547843
 30
0.0
 11
5090.284823006885
 21
2277.675848547843
 31
0.0
  0
LINE
  5
53
330
17
100
AcDbEntity
  8
COTA
 62
241
370
25
100
AcDbLine
 10
5661.856366096479
 20
2401.967836359069
 30
0.0
 11
5661.856366096479
 21
2415.967836359068
 31
0.0
  0
LINE
  5
54
330
17
100
AcDbEntity
  8
COTA
 62
241
370
25
100
AcDbLine
 10
5661.856366096479
 20
2415.967836359068
 30
0.0
 11
5980.856366096486
 21
2415.967836359068
 31
0.0
  0
LINE
  5
55
330
17
100
AcDbEntity
  8
COTA
 62
241
370
25
100
AcDbLine
 10
5980.856366096486
 20
2401.967836359069
 30
0.0
 11
5980.856366096486
 21
2415.967836359068
 31
0.0
  0
LINE
  5
56
330
17
100
AcDbEntity
  8
Painéis
 62
200
370
25
100
AcDbLine
 10
5661.856366096479
 20
2401.967836359069
 30
0.0
 11
5980.856366096486
 21
2401.967836359069
 31
0.0
  0
LINE
  5
57
330
17
100
AcDbEntity
  8
Painéis
 62
200
370
25
100
AcDbLine
 10
5661.856366096479
 20
2361.967836359069
 30
0.0
 11
5980.856366096486
 21
2361.967836359069
 31
0.0
  0
LINE
  5
58
330
17
100
AcDbEntity
  8
Painéis
 62
200
370
25
100
AcDbLine
 10
5661.856366096479
 20
2361.967836359069
 30
0.0
 11
5661.856366096479
 21
2401.967836359069
 31
0.0
  0
LINE
  5
59
330
17
100
AcDbEntity
  8
Painéis
 62
200
370
25
100
AcDbLine
 10
5783.856366096486
 20
2361.967836359069
 30
0.0
 11
5783.856366096486
 21
2401.967836359069
 31
0.0
  0
LINE
  5
5A
330
17
100
AcDbEntity
  8
Painéis
 62
200
370
25
100
AcDbLine
 10
5980.856366096486
 20
2361.967836359069
 30
0.0
 11
5980.856366096486
 21
2401.967836359069
 31
0.0
  0
LINE
  5
5B
330
17
100
AcDbEntity
  8
SARR_2.2x7
 62
40
370
25
100
AcDbLine
 10
5668.856366096475
 20
2361.967836359069
 30
0.0
 11
5668.856366096475
 21
2401.967836359069
 31
0.0
  0
LINE
  5
5C
330
17
100
AcDbEntity
  8
SARR_2.2x7
 62
40
370
25
100
AcDbLine
 10
5973.856366096486
 20
2361.967836359069
 30
0.0
 11
5973.856366096486
 21
2401.967836359069
 31
0.0
  0
LINE
  5
5D
330
17
100
AcDbEntity
  8
SARR_2.2x7
 62
40
370
25
100
AcDbLine
 10
5676.85636609648
 20
2399.767836359071
 30
0.0
 11
5783.856366096486
 21
2399.767836359103
 31
0.0
  0
LINE
  5
5E
330
17
100
AcDbEntity
  8
SARR_3.5x7
 62
81
370
25
100
AcDbLine
 10
5676.85636609648
 20
2401.967836359083
 30
0.0
 11
5676.856366096481
 21
2361.967836359069
 31
0.0
  0
LINE
  5
5F
330
17
100
AcDbEntity
  8
SARR_3.5x7
 62
81
370
25
100
AcDbLine
 10
5680.356366096479
 20
2399.767836359086
 30
0.0
 11
5680.356366096481
 21
2361.967836359069
 31
0.0
  0
LINE
  5
60
330
17
100
AcDbEntity
  8
SARR_2.2x7
 62
40
370
25
100
AcDbLine
 10
5783.856366096484
 20
2399.767836359075
 30
0.0
 11
5965.856366096471
 21
2399.767836359075
 31
0.0
  0
LINE
  5
61
330
17
100
AcDbEntity
  8
SARR_3.5x7
 62
81
370
25
100
AcDbLine
 10
5965.856366096476
 20
2401.967836359057
 30
0.0
 11
5965.856366096471
 21
2361.967836359069
 31
0.0
  0
LINE
  5
62
330
17
100
AcDbEntity
  8
SARR_3.5x7
 62
81
370
25
100
AcDbLine
 10
5962.356366096475
 20
2399.76783635906
 30
0.0
 11
5962.356366096472
 21
2361.967836359069
 31
0.0
  0
LINE
  5
63
330
17
100
AcDbEntity
  8
SARR_3.5x7
 62
81
370
25
100
AcDbLine
 10
5787.356366096515
 20
2399.767836359127
 30
0.0
 11
5787.356366096539
 21
2361.967836359069
 31
0.0
  0
LINE
  5
64
330
17
100
AcDbEntity
  8
SARR_3.5x7
 62
81
370
25
100
AcDbLine
 10
5780.356366096428
 20
2399.767836359185
 30
0.0
 11
5780.356366096406
 21
2361.967836359069
 31
0.0
  0
LINE
  5
65
330
17
100
AcDbEntity
  8
Painéis
 62
200
370
25
100
AcDbLine
 10
5560.782656560879
 20
2401.967836359069
 30
0.0
 11
5636.282656560885
 21
2401.967836359069
 31
0.0
  0
LINE
  5
66
330
17
100
AcDbEntity
  8
Painéis
 62
200
370
25
100
AcDbLine
 10
5560.782656560879
 20
2361.967836359069
 30
0.0
 11
5636.282656560885
 21
2361.967836359065
 31
0.0
  0
LINE
  5
67
330
17
100
AcDbEntity
  8
Painéis
 62
200
370
25
100
AcDbLine
 10
5560.782656560879
 20
2361.967836359069
 30
0.0
 11
5560.782656560879
 21
2401.967836359069
 31
0.0
  0
LINE
  5
68
330
17
100
AcDbEntity
  8
Painéis
 62
200
370
25
100
AcDbLine
 10
5636.282656560885
 20
2361.967836359065
 30
0.0
 11
5636.282656560885
 21
2401.967836359069
 31
0.0
  0
LINE
  5
69
330
17
100
AcDbEntity
  8
SARR_2.2x7
 62
40
370
25
100
AcDbLine
 10
5567.782656560876
 20
2361.967836359069
 30
0.0
 11
5567.782656560876
 21
2401.967836359069
 31
0.0
  0
LINE
  5
6A
330
17
100
AcDbEntity
  8
SARR_2.2x7
 62
40
370
25
100
AcDbLine
 10
5629.282656560885
 20
2361.967836359069
 30
0.0
 11
5629.282656560885
 21
2401.967836359069
 31
0.0
  0
LINE
  5
6B
330
17
100
AcDbEntity
  8
SARR_2.2x7
 62
40
370
25
100
AcDbLine
 10
5605.782656560879
 20
2399.76783635907
 30
0.0
 11
5621.282656560873
 21
2399.767836359059
 31
0.0
  0
LINE
  5
6C
330
17
100
AcDbEntity
  8
SARR_3.5x7
 62
81
370
25
100
AcDbLine
 10
5605.782656560879
 20
2401.967836359082
 30
0.0
 11
5605.782656560879
 21
2361.967836359067
 31
0.0
  0
LINE
  5
6D
330
17
100
AcDbEntity
  8
SARR_3.5x7
 62
81
370
25
100
AcDbLine
 10
5609.282656560878
 20
2399.767836359084
 30
0.0
 11
5609.282656560879
 21
2361.967836359067
 31
0.0
  0
LINE
  5
6E
330
17
100
AcDbEntity
  8
SARR_3.5x7
 62
81
370
25
100
AcDbLine
 10
5621.282656560874
 20
2401.967836359057
 30
0.0
 11
5621.282656560872
 21
2361.967836359069
 31
0.0
  0
LINE
  5
6F
330
17
100
AcDbEntity
  8
SARR_3.5x7
 62
81
370
25
100
AcDbLine
 10
5617.782656560874
 20
2399.76783635906
 30
0.0
 11
5617.782656560871
 21
2361.967836359069
 31
0.0
  0
LINE
  5
70
330
17
100
AcDbEntity
  8
COTA
 62
241
370
25
100
AcDbLine
 10
5560.782656560879
 20
2401.967836359069
 30
0.0
 11
5560.782656560879
 21
2415.967836359068
 31
0.0
  0
LINE
  5
71
330
17
100
AcDbEntity
  8
COTA
 62
241
370
25
100
AcDbLine
 10
5560.782656560879
 20
2415.967836359068
 30
0.0
 11
5636.282656560879
 21
2415.967836359068
 31
0.0
  0
LINE
  5
72
330
17
100
AcDbEntity
  8
COTA
 62
241
370
25
100
AcDbLine
 10
5636.282656560879
 20
2415.967836359068
 30
0.0
 11
5636.282656560879
 21
2401.967836359069
 31
0.0
  0
LINE
  5
73
330
17
100
AcDbEntity
  8
COTA
 62
241
370
25
100
AcDbLine
 10
5556.955241380237
 20
2203.538282891512
 30
0.0
 11
5556.955241380237
 21
2217.538282891513
 31
0.0
  0
LINE
  5
74
330
17
100
AcDbEntity
  8
COTA
 62
241
370
25
100
AcDbLine
 10
5556.955241380237
 20
2217.538282891513
 30
0.0
 11
5786.955241380245
 21
2217.538282891513
 31
0.0
  0
LINE
  5
75
330
17
100
AcDbEntity
  8
COTA
 62
241
370
25
100
AcDbLine
 10
5786.955241380245
 20
2203.538282891512
 30
0.0
 11
5786.955241380245
 21
2217.538282891513
 31
0.0
  0
LINE
  5
76
330
17
100
AcDbEntity
  8
Painéis
 62
200
370
25
100
AcDbLine
 10
5556.955241380237
 20
2203.538282891512
 30
0.0
 11
5786.955241380245
 21
2203.538282891512
 31
0.0
  0
LINE
  5
77
330
17
100
AcDbEntity
  8
Painéis
 62
200
370
25
100
AcDbLine
 10
5556.955241380237
 20
2163.538282891513
 30
0.0
 11
5786.955241380245
 21
2163.538282891513
 31
0.0
  0
LINE
  5
78
330
17
100
AcDbEntity
  8
Painéis
 62
200
370
25
100
AcDbLine
 10
5556.955241380237
 20
2163.538282891513
 30
0.0
 11
5556.955241380237
 21
2203.538282891512
 31
0.0
  0
LINE
  5
79
330
17
100
AcDbEntity
  8
Painéis
 62
200
370
25
100
AcDbLine
 10
5678.955241380244
 20
2163.538282891513
 30
0.0
 11
5678.955241380244
 21
2203.538282891512
 31
0.0
  0
LINE
  5
7A
330
17
100
AcDbEntity
  8
Painéis
 62
200
370
25
100
AcDbLine
 10
5786.955241380245
 20
2163.538282891513
 30
0.0
 11
5786.955241380245
 21
2203.538282891512
 31
0.0
  0
LINE
  5
7B
330
17
100
AcDbEntity
  8
SARR_2.2x7
 62
40
370
25
100
AcDbLine
 10
5563.955241380234
 20
2163.538282891513
 30
0.0
 11
5563.955241380234
 21
2203.538282891512
 31
0.0
  0
LINE
  5
7C
330
17
100
AcDbEntity
  8
SARR_2.2x7
 62
40
370
25
100
AcDbLine
 10
5779.955241380245
 20
2163.538282891513
 30
0.0
 11
5779.955241380245
 21
2203.538282891512
 31
0.0
  0
LINE
  5
7D
330
17
100
AcDbEntity
  8
SARR_2.2x7
 62
40
370
25
100
AcDbLine
 10
5571.955241380237
 20
2201.338282891516
 30
0.0
 11
5678.955241380244
 21
2201.338282891546
 31
0.0
  0
LINE
  5
7E
330
17
100
AcDbEntity
  8
SARR_3.5x7
 62
81
370
25
100
AcDbLine
 10
5571.955241380237
 20
2203.538282891527
 30
0.0
 11
5571.95524138024
 21
2163.538282891513
 31
0.0
  0
LINE
  5
7F
330
17
100
AcDbEntity
  8
SARR_3.5x7
 62
81
370
25
100
AcDbLine
 10
5575.455241380238
 20
2201.33828289153
 30
0.0
 11
5575.45524138024
 21
2163.538282891513
 31
0.0
  0
LINE
  5
80
330
17
100
AcDbEntity
  8
SARR_2.2x7
 62
40
370
25
100
AcDbLine
 10
5678.955241380243
 20
2201.338282891519
 30
0.0
 11
5771.95524138023
 21
2201.338282891519
 31
0.0
  0
LINE
  5
81
330
17
100
AcDbEntity
  8
SARR_3.5x7
 62
81
370
25
100
AcDbLine
 10
5771.955241380234
 20
2203.538282891502
 30
0.0
 11
5771.95524138023
 21
2163.538282891513
 31
0.0
  0
LINE
  5
82
330
17
100
AcDbEntity
  8
SARR_3.5x7
 62
81
370
25
100
AcDbLine
 10
5768.455241380234
 20
2201.338282891505
 30
0.0
 11
5768.45524138023
 21
2163.538282891513
 31
0.0
  0
LINE
  5
83
330
17
100
AcDbEntity
  8
SARR_3.5x7
 62
81
370
25
100
AcDbLine
 10
5682.455241380274
 20
2201.338282891571
 30
0.0
 11
5682.455241380298
 21
2163.538282891513
 31
0.0
  0
LINE
  5
84
330
17
100
AcDbEntity
  8
SARR_3.5x7
 62
81
370
25
100
AcDbLine
 10
5675.455241380187
 20
2201.338282891629
 30
0.0
 11
5675.455241380165
 21
2163.538282891513
 31
0.0
  0
LINE
  5
85
330
17
100
AcDbEntity
  8
COTA
 62
241
370
25
100
AcDbLine
 10
5808.31874526794
 20
2203.423486266212
 30
0.0
 11
5808.31874526794
 21
2217.423486266211
 31
0.0
  0
LINE
  5
86
330
17
100
AcDbEntity
  8
COTA
 62
241
370
25
100
AcDbLine
 10
5808.31874526794
 20
2217.423486266211
 30
0.0
 11
5964.818745267946
 21
2217.423486266211
 31
0.0
  0
LINE
  5
87
330
17
100
AcDbEntity
  8
Painéis
 62
200
370
25
100
AcDbLine
 10
5808.31874526794
 20
2203.423486266212
 30
0.0
 11
5937.818745267946
 21
2203.423486266212
 31
0.0
  0
LINE
  5
88
330
17
100
AcDbEntity
  8
Painéis
 62
200
370
25
100
AcDbLine
 10
5808.31874526794
 20
2163.423486266212
 30
0.0
 11
5964.818745267946
 21
2163.423486266212
 31
0.0
  0
LINE
  5
89
330
17
100
AcDbEntity
  8
Painéis
 62
200
370
25
100
AcDbLine
 10
5808.31874526794
 20
2163.423486266212
 30
0.0
 11
5808.31874526794
 21
2203.423486266212
 31
0.0
  0
LINE
  5
8A
330
17
100
AcDbEntity
  8
SARR_2.2x7
 62
40
370
25
100
AcDbLine
 10
5815.318745267937
 20
2163.423486266212
 30
0.0
 11
5815.318745267937
 21
2203.423486266212
 31
0.0
  0
LINE
  5
8B
330
17
100
AcDbEntity
  8
SARR_3.5x7
 62
81
370
25
100
AcDbLine
 10
5823.31874526794
 20
2203.423486266226
 30
0.0
 11
5823.318745267942
 21
2163.423486266212
 31
0.0
  0
LINE
  5
8C
330
17
100
AcDbEntity
  8
SARR_3.5x7
 62
81
370
25
100
AcDbLine
 10
5826.81874526794
 20
2201.223486266229
 30
0.0
 11
5826.818745267941
 21
2163.423486266212
 31
0.0
  0
LINE
  5
8D
330
17
100
AcDbEntity
  8
SARR_2.2x7
 62
40
370
25
100
AcDbLine
 10
5823.31874526794
 20
2201.223486266218
 30
0.0
 11
5937.818745267944
 21
2201.223486266218
 31
0.0
  0
LINE
  5
8E
330
17
100
AcDbEntity
  8
SARR_3.5x7
 62
81
370
25
100
AcDbLine
 10
5937.818745267946
 20
2203.423486266201
 30
0.0
 11
5937.818745267943
 21
2163.423486266212
 31
0.0
  0
LINE
  5
8F
330
17
100
AcDbEntity
  8
SARR_3.5x7
 62
81
370
25
100
AcDbLine
 10
5934.318745267946
 20
2201.223486266204
 30
0.0
 11
5934.318745267943
 21
2163.423486266212
 31
0.0
  0
LINE
  5
90
330
17
100
AcDbEntity
  8
Painéis
 62
200
370
25
100
AcDbLine
 10
5937.818745267946
 20
2203.423486266212
 30
0.0
 11
5937.818745267946
 21
2173.423486266212
 31
0.0
  0
LINE
  5
91
330
17
100
AcDbEntity
  8
Painéis
 62
200
370
25
100
AcDbLine
 10
5937.818745267946
 20
2173.423486266212
 30
0.0
 11
5964.818745267946
 21
2173.423486266212
 31
0.0
  0
LINE
  5
92
330
17
100
AcDbEntity
  8
SARR_2.2x7
 62
40
370
25
100
AcDbLine
 10
5964.818745267946
 20
2168.423486266211
 30
0.0
 11
5937.818745267943
 21
2168.423486266211
 31
0.0
  0
LINE
  5
93
330
17
100
AcDbEntity
  8
Painéis
 62
200
370
25
100
AcDbLine
 10
5964.818745267946
 20
2163.423486266212
 30
0.0
 11
5964.818745267945
 21
2173.423486266212
 31
0.0
  0
LINE
  5
94
330
17
100
AcDbEntity
  8
COTA
 62
241
370
25
100
AcDbLine
 10
5964.818745267945
 20
2173.423486266212
 30
0.0
 11
5964.818745267941
 21
2217.423486266211
 31
0.0
  0
LINE
  5
95
330
17
100
AcDbEntity
  8
SARR_2.2x7
 62
40
370
25
100
AcDbLine
 10
5957.818745267946
 20
2163.423486266212
 30
0.0
 11
5957.818745267945
 21
2173.423486266212
 31
0.0
  0
LINE
  5
96
330
17
100
AcDbEntity
  8
COTA
 62
241
370
25
100
AcDbLine
 10
5327.027766173217
 20
1919.296898876913
 30
0.0
 11
5327.027766173217
 21
1933.296898876912
 31
0.0
  0
LINE
  5
97
330
17
100
AcDbEntity
  8
COTA
 62
241
370
25
100
AcDbLine
 10
5327.027766173217
 20
1933.296898876912
 30
0.0
 11
5552.527766173223
 21
1933.296898876912
 31
0.0
  0
LINE
  5
98
330
17
100
AcDbEntity
  8
COTA
 62
241
370
25
100
AcDbLine
 10
5552.527766173223
 20
1919.296898876913
 30
0.0
 11
5552.527766173223
 21
1933.296898876912
 31
0.0
  0
LINE
  5
99
330
17
100
AcDbEntity
  8
Painéis
 62
200
370
25
100
AcDbLine
 10
5327.027766173217
 20
1919.296898876913
 30
0.0
 11
5552.527766173223
 21
1919.296898876913
 31
0.0
  0
LINE
  5
9A
330
17
100
AcDbEntity
  8
Painéis
 62
200
370
25
100
AcDbLine
 10
5327.027766173217
 20
1889.296898876913
 30
0.0
 11
5552.527766173223
 21
1889.296898876913
 31
0.0
  0
LINE
  5
9B
330
17
100
AcDbEntity
  8
Painéis
 62
200
370
25
100
AcDbLine
 10
5327.027766173217
 20
1889.296898876913
 30
0.0
 11
5327.027766173217
 21
1919.296898876913
 31
0.0
  0
LINE
  5
9C
330
17
100
AcDbEntity
  8
Painéis
 62
200
370
25
100
AcDbLine
 10
5449.027766173223
 20
1889.296898876913
 30
0.0
 11
5449.027766173223
 21
1919.296898876913
 31
0.0
  0
LINE
  5
9D
330
17
100
AcDbEntity
  8
Painéis
 62
200
370
25
100
AcDbLine
 10
5552.527766173223
 20
1889.296898876913
 30
0.0
 11
5552.527766173223
 21
1919.296898876913
 31
0.0
  0
LINE
  5
9E
330
17
100
AcDbEntity
  8
SARR_2.2x7
 62
40
370
25
100
AcDbLine
 10
5334.027766173214
 20
1889.296898876913
 30
0.0
 11
5334.027766173214
 21
1919.296898876913
 31
0.0
  0
LINE
  5
9F
330
17
100
AcDbEntity
  8
SARR_2.2x7
 62
40
370
25
100
AcDbLine
 10
5545.527766173222
 20
1889.296898876913
 30
0.0
 11
5545.527766173222
 21
1919.296898876913
 31
0.0
  0
LINE
  5
A0
330
17
100
AcDbEntity
  8
SARR_2.2x7
 62
40
370
25
100
AcDbLine
 10
5342.027766173217
 20
1917.096898876915
 30
0.0
 11
5449.027766173223
 21
1917.096898876947
 31
0.0
  0
LINE
  5
A1
330
17
100
AcDbEntity
  8
SARR_3.5x7
 62
81
370
25
100
AcDbLine
 10
5342.027766173217
 20
1919.296898876927
 30
0.0
 11
5342.027766173218
 21
1889.296898876913
 31
0.0
  0
LINE
  5
A2
330
17
100
AcDbEntity
  8
SARR_3.5x7
 62
81
370
25
100
AcDbLine
 10
5345.527766173217
 20
1917.09689887693
 30
0.0
 11
5345.527766173218
 21
1889.296898876913
 31
0.0
  0
LINE
  5
A3
330
17
100
AcDbEntity
  8
SARR_2.2x7
 62
40
370
25
100
AcDbLine
 10
5449.027766173221
 20
1917.096898876919
 30
0.0
 11
5537.52776617321
 21
1917.096898876919
 31
0.0
  0
LINE
  5
A4
330
17
100
AcDbEntity
  8
SARR_3.5x7
 62
81
370
25
100
AcDbLine
 10
5537.527766173212
 20
1919.296898876902
 30
0.0
 11
5537.527766173209
 21
1889.296898876913
 31
0.0
  0
LINE
  5
A5
330
17
100
AcDbEntity
  8
SARR_3.5x7
 62
81
370
25
100
AcDbLine
 10
5534.027766173212
 20
1917.096898876905
 30
0.0
 11
5534.027766173209
 21
1889.296898876913
 31
0.0
  0
LINE
  5
A6
330
17
100
AcDbEntity
  8
SARR_3.5x7
 62
81
370
25
100
AcDbLine
 10
5452.527766173251
 20
1917.096898876971
 30
0.0
 11
5452.527766173276
 21
1889.296898876913
 31
0.0
  0
LINE
  5
A7
330
17
100
AcDbEntity
  8
SARR_3.5x7
 62
81
370
25
100
AcDbLine
 10
5445.527766173164
 20
1917.096898877029
 30
0.0
 11
5445.527766173142
 21
1889.296898876913
 31
0.0
  0
LINE
  5
A8
330
17
100
AcDbEntity
  8
0
 62
7
370
25
100
AcDbLine
 10
5081.005598493058
 20
1848.813107461747
 30
0.0
 11
5081.005598493058
 21
1836.813107461748
 31
0.0
  0
LINE
  5
A9
330
17
100
AcDbEntity
  8
0
 62
7
370
25
100
AcDbLine
 10
5217.005598493088
 20
1845.813107461762
 30
0.0
 11
5217.005598493088
 21
1839.813107461762
 31
0.0
  0
LINE
  5
AA
330
17
100
AcDbEntity
  8
0
 62
7
370
25
100
AcDbLine
 10
5215.005598493088
 20
1848.813107461762
 30
0.0
 11
5215.005598493088
 21
1836.813107461762
 31
0.0
  0
LINE
  5
AB
330
17
100
AcDbEntity
  8
0
 62
7
370
25
100
AcDbLine
 10
5215.005598493088
 20
1839.813107461762
 30
0.0
 11
5217.005598493088
 21
1839.813107461762
 31
0.0
  0
LINE
  5
AC
330
17
100
AcDbEntity
  8
0
 62
7
370
25
100
AcDbLine
 10
5081.005598493058
 20
1836.813107461748
 30
0.0
 11
5111.005598493059
 21
1836.813107461748
 31
0.0
  0
LINE
  5
AD
330
17
100
AcDbEntity
  8
0
 62
7
370
25
100
AcDbLine
 10
5185.005598493088
 20
1841.813107461762
 30
0.0
 11
5215.005598493088
 21
1841.813107461762
 31
0.0
  0
LINE
  5
AE
330
17
100
AcDbEntity
  8
0
 62
7
370
25
100
AcDbLine
 10
5185.005598493088
 20
1843.813107461762
 30
0.0
 11
5215.005598493088
 21
1843.813107461762
 31
0.0
  0
LINE
  5
AF
330
17
100
AcDbEntity
  8
TENSOR
 62
3
370
25
100
AcDbLine
 10
5220.005598493088
 20
1842.813107461748
 30
0.0
 11
5075.70230431496
 21
1842.813107461748
 31
0.0
  0
LINE
  5
B0
330
17
100
AcDbEntity
  8
0
 62
7
370
25
100
AcDbLine
 10
5215.005598493088
 20
1845.813107461762
 30
0.0
 11
5217.005598493088
 21
1845.813107461762
 31
0.0
  0
LINE
  5
B1
330
17
100
AcDbEntity
  8
0
 62
7
370
25
100
AcDbLine
 10
5111.005598493059
 20
1841.813107461748
 30
0.0
 11
5081.005598493058
 21
1841.813107461748
 31
0.0
  0
LINE
  5
B2
330
17
100
AcDbEntity
  8
0
 62
7
370
25
100
AcDbLine
 10
5111.005598493059
 20
1843.813107461748
 30
0.0
 11
5081.005598493058
 21
1843.813107461748
 31
0.0
  0
LINE
  5
B3
330
17
100
AcDbEntity
  8
0
 62
7
370
25
100
AcDbLine
 10
5081.005598493058
 20
1848.813107461747
 30
0.0
 11
5111.005598493059
 21
1848.813107461747
 31
0.0
  0
LINE
  5
B4
330
17
100
AcDbEntity
  8
0
 62
7
370
25
100
AcDbLine
 10
5215.005598493088
 20
1836.813107461762
 30
0.0
 11
5185.005598493088
 21
1836.813107461762
 31
0.0
  0
LINE
  5
B5
330
17
100
AcDbEntity
  8
0
 62
7
370
25
100
AcDbLine
 10
5215.005598493088
 20
1848.813107461762
 30
0.0
 11
5185.005598493088
 21
1848.813107461762
 31
0.0
  0
LINE
  5
B6
330
17
100
AcDbEntity
  8
0
 62
7
370
25
100
AcDbLine
 10
5079.005598493059
 20
1845.813107461747
 30
0.0
 11
5079.005598493059
 21
1839.813107461748
 31
0.0
  0
LINE
  5
B7
330
17
100
AcDbEntity
  8
0
 62
7
370
25
100
AcDbLine
 10
5081.005598493058
 20
1839.813107461748
 30
0.0
 11
5079.005598493059
 21
1839.813107461748
 31
0.0
  0
LINE
  5
B8
330
17
100
AcDbEntity
  8
0
 62
7
370
25
100
AcDbLine
 10
5079.005598493059
 20
1845.813107461747
 30
0.0
 11
5081.005598493058
 21
1845.813107461747
 31
0.0
  0
LINE
  5
B9
330
17
100
AcDbEntity
  8
COTA
 62
241
370
25
100
AcDbLine
 10
4977.707468427921
 20
2025.843049933456
 30
0.0
 11
6347.707468427921
 21
2025.843049933456
 31
0.0
  0
LINE
  5
BA
330
17
100
AcDbEntity
  8
Painéis
 62
200
370
25
100
AcDbLine
 10
5666.263255056521
 20
1934.77267362831
 30
0.0
 11
5910.763255056527
 21
1934.77267362831
 31
0.0
  0
LINE
  5
BB
330
17
100
AcDbEntity
  8
Painéis
 62
200
370
25
100
AcDbLine
 10
5666.263255056521
 20
1890.77267362831
 30
0.0
 11
5891.763255056527
 21
1890.77267362831
 31
0.0
  0
LINE
  5
BC
330
17
100
AcDbEntity
  8
Painéis
 62
200
370
25
100
AcDbLine
 10
5666.263255056521
 20
1890.77267362831
 30
0.0
 11
5666.263255056521
 21
1934.77267362831
 31
0.0
  0
LINE
  5
BD
330
17
100
AcDbEntity
  8
Painéis
 62
200
370
25
100
AcDbLine
 10
5788.263255056527
 20
1890.77267362831
 30
0.0
 11
5788.263255056527
 21
1934.77267362831
 31
0.0
  0
LINE
  5
BE
330
17
100
AcDbEntity
  8
Painéis
 62
200
370
25
100
AcDbLine
 10
5910.763255056527
 20
1880.77267362831
 30
0.0
 11
5910.763255056527
 21
1934.77267362831
 31
0.0
  0
LINE
  5
BF
330
17
100
AcDbEntity
  8
SARR_2.2x7
 62
40
370
25
100
AcDbLine
 10
5673.263255056518
 20
1890.77267362831
 30
0.0
 11
5673.263255056518
 21
1934.77267362831
 31
0.0
  0
LINE
  5
C0
330
17
100
AcDbEntity
  8
SARR_2.2x7
 62
40
370
25
100
AcDbLine
 10
5903.763255056527
 20
1890.77267362831
 30
0.0
 11
5903.763255056527
 21
1934.77267362831
 31
0.0
  0
LINE
  5
C1
330
17
100
AcDbEntity
  8
SARR_2.2x7
 62
40
370
25
100
AcDbLine
 10
5681.263255056521
 20
1932.572673628313
 30
0.0
 11
5788.263255056527
 21
1932.572673628344
 31
0.0
  0
LINE
  5
C2
330
17
100
AcDbEntity
  8
SARR_3.5x7
 62
81
370
25
100
AcDbLine
 10
5681.263255056521
 20
1934.772673628325
 30
0.0
 11
5681.263255056522
 21
1890.77267362831
 31
0.0
  0
LINE
  5
C3
330
17
100
AcDbEntity
  8
SARR_3.5x7
 62
81
370
25
100
AcDbLine
 10
5684.763255056521
 20
1932.572673628328
 30
0.0
 11
5684.763255056522
 21
1890.77267362831
 31
0.0
  0
LINE
  5
C4
330
17
100
AcDbEntity
  8
SARR_2.2x7
 62
40
370
25
100
AcDbLine
 10
5788.263255056526
 20
1932.572673628317
 30
0.0
 11
5895.763255056515
 21
1932.572673628317
 31
0.0
  0
LINE
  5
C5
330
17
100
AcDbEntity
  8
SARR_3.5x7
 62
81
370
25
100
AcDbLine
 10
5895.763255056515
 20
1934.772673628299
 30
0.0
 11
5895.763255056513
 21
1890.77267362831
 31
0.0
  0
LINE
  5
C6
330
17
100
AcDbEntity
  8
SARR_3.5x7
 62
81
370
25
100
AcDbLine
 10
5892.263255056516
 20
1932.572673628302
 30
0.0
 11
5892.263255056513
 21
1890.77267362831
 31
0.0
  0
LINE
  5
C7
330
17
100
AcDbEntity
  8
SARR_3.5x7
 62
81
370
25
100
AcDbLine
 10
5791.763255056555
 20
1932.572673628368
 30
0.0
 11
5791.76325505658
 21
1890.77267362831
 31
0.0
  0
LINE
  5
C8
330
17
100
AcDbEntity
  8
SARR_3.5x7
 62
81
370
25
100
AcDbLine
 10
5784.763255056469
 20
1932.572673628426
 30
0.0
 11
5784.763255056446
 21
1890.77267362831
 31
0.0
  0
LINE
  5
C9
330
17
100
AcDbEntity
  8
Painéis
 62
200
370
25
100
AcDbLine
 10
6248.307041716522
 20
2106.06923913561
 30
0.0
 11
6178.452023600438
 21
2106.06923913561
 31
0.0
  0
LINE
  5
CA
330
17
100
AcDbEntity
  8
Painéis
 62
200
370
25
100
AcDbLine
 10
6248.307041716522
 20
2102.469239135619
 30
0.0
 11
6178.468185377052
 21
2102.469239135608
 31
0.0
  0
LINE
  5
CB
330
17
100
AcDbEntity
  8
Painéis
 62
200
370
25
100
AcDbLine
 10
6248.307041716522
 20
2106.06923913561
 30
0.0
 11
6248.307041716522
 21
2101.069239135617
 31
0.0
  0
LINE
  5
CC
330
17
100
AcDbEntity
  8
NOMENCLATURA
 62
7
370
25
100
AcDbLine
 10
5543.866885866466
 20
2185.092530603117
 30
0.0
 11
5586.631655751631
 21
2185.092530603117
 31
0.0
  0
LINE
  5
CD
330
17
100
AcDbEntity
  8
NOMENCLATURA
 62
7
370
25
100
AcDbLine
 10
5581.631655751631
 20
2190.070152492017
 30
0.0
 11
5581.631655751631
 21
2180.114908714215
 31
0.0
  0
LINE
  5
CE
330
17
100
AcDbEntity
  8
NOMENCLATURA
 62
7
370
25
100
AcDbLine
 10
5548.866885866466
 20
2190.070152492017
 30
0.0
 11
5548.866885866466
 21
2180.114908714215
 31
0.0
  0
LINE
  5
CF
330
17
100
AcDbEntity
  8
SARR_2.2x7
 62
40
370
25
100
AcDbLine
 10
5560.782656560879
 20
2394.967836359068
 30
0.0
 11
5605.782656560879
 21
2394.96783635907
 31
0.0
  0
LINE
  5
D0
330
17
100
AcDbEntity
  8
Painéis
 62
200
370
25
100
AcDbLine
 10
5891.763255056527
 20
1890.77267362831
 30
0.0
 11
5891.763255056527
 21
1880.77267362831
 31
0.0
  0
LINE
  5
D1
330
17
100
AcDbEntity
  8
Painéis
 62
200
370
25
100
AcDbLine
 10
5891.763255056527
 20
1880.77267362831
 30
0.0
 11
5910.763255056527
 21
1880.77267362831
 31
0.0
  0
LINE
  5
D2
330
17
100
AcDbEntity
  8
SARR_2.2x7
 62
40
370
25
100
AcDbLine
 10
5891.763255056527
 20
1890.77267362831
 30
0.0
 11
5910.763255056527
 21
1890.77267362831
 31
0.0
  0
LINE
  5
D3
330
17
100
AcDbEntity
  8
SARR_2.2x7
 62
40
370
25
100
AcDbLine
 10
5891.763255056527
 20
1885.77267362831
 30
0.0
 11
5910.763255056527
 21
1885.77267362831
 31
0.0
  0
LINE
  5
D4
330
17
100
AcDbEntity
  8
COTA
 62
4
370
25
100
AcDbLine
 10
5239.284823006887
 20
2352.705791019545
 30
0.0
 11
5256.156555764825
 21
2352.705791019545
 31
0.0
  0
LINE
  5
D5
330
17
100
AcDbEntity
  8
COTA
 62
4
370
25
100
AcDbLine
 10
5239.284823006887
 20
2328.705791019531
 30
0.0
 11
5256.156555764825
 21
2328.705791019531
 31
0.0
  0
LINE
  5
D6
330
17
100
AcDbEntity
  8
COTA
 62
4
370
25
100
AcDbLine
 10
5253.156555764825
 20
2352.705791019545
 30
0.0
 11
5253.156555764825
 21
2328.705791019531
 31
0.0
  0
LINE
  5
D7
330
17
100
AcDbEntity
  8
COTA
 62
4
370
25
100
AcDbLine
 10
5101.684823006939
 20
2244.705791019553
 30
0.0
 11
5027.308099917752
 21
2244.705791019553
 31
0.0
  0
LINE
  5
D8
330
17
100
AcDbEntity
  8
COTA
 62
4
370
25
100
AcDbLine
 10
5079.684823006939
 20
2352.705791019545
 30
0.0
 11
5027.308099917752
 21
2352.705791019545
 31
0.0
  0
LINE
  5
D9
330
17
100
AcDbEntity
  8
COTA
 62
4
370
25
100
AcDbLine
 10
5030.308099917752
 20
2244.705791019553
 30
0.0
 11
5030.308099917752
 21
2352.705791019545
 31
0.0
  0
LINE
  5
DA
330
17
100
AcDbEntity
  8
COTA
 62
4
370
25
100
AcDbLine
 10
5212.884823006922
 20
2244.705791019553
 30
0.0
 11
5256.156555765253
 21
2244.705791019553
 31
0.0
  0
LINE
  5
DB
330
17
100
AcDbEntity
  8
COTA
 62
4
370
25
100
AcDbLine
 10
5239.284823006887
 20
2324.705791019531
 30
0.0
 11
5256.156555765253
 21
2324.705791019531
 31
0.0
  0
LINE
  5
DC
330
17
100
AcDbEntity
  8
COTA
 62
4
370
25
100
AcDbLine
 10
5253.156555765253
 20
2244.705791019553
 30
0.0
 11
5253.156555765253
 21
2324.705791019531
 31
0.0
  0
LINE
  5
DD
330
17
100
AcDbEntity
  8
Cota Seção (2x)
 62
180
370
25
100
AcDbLine
 10
5171.784823008573
 20
2303.039124352851
 30
0.0
 11
5171.784823008573
 21
2322.372457686184
 31
0.0
  0
LINE
  5
DE
330
17
100
AcDbEntity
  8
Cota Seção (2x)
 62
180
370
25
100
AcDbLine
 10
5171.784823008573
 20
2322.372457686184
 30
0.0
 11
5156.784823008573
 21
2322.372457686184
 31
0.0
  0
LINE
  5
DF
330
17
100
AcDbEntity
  8
Cota Seção (2x)
 62
180
370
25
100
AcDbLine
 10
5156.784823008573
 20
2322.372457686184
 30
0.0
 11
5156.784823008573
 21
2303.039124352851
 31
0.0
  0
LINE
  5
E0
330
17
100
AcDbEntity
  8
Cota Seção (2x)
 62
180
370
25
100
AcDbLine
 10
5156.784823008573
 20
2303.039124352851
 30
0.0
 11
5171.784823008573
 21
2303.039124352851
 31
0.0
  0
LINE
  5
E1
330
17
100
AcDbEntity
  8
COTA
 62
4
370
25
100
AcDbLine
 10
5079.684823006939
 20
2352.705791019545
 30
0.0
 11
5046.627528403206
 21
2352.705791019545
 31
0.0
  0
LINE
  5
E2
330
17
100
AcDbEntity
  8
COTA
 62
4
370
25
100
AcDbLine
 10
5079.684823006939
 20
2328.705791019524
 30
0.0
 11
5046.627528403206
 21
2328.705791019524
 31
0.0
  0
LINE
  5
E3
330
17
100
AcDbEntity
  8
COTA
 62
4
370
25
100
AcDbLine
 10
5049.627528403206
 20
2352.705791019545
 30
0.0
 11
5049.627528403206
 21
2328.705791019524
 31
0.0
  0
LINE
  5
E4
330
17
100
AcDbEntity
  8
COTA
 62
4
370
25
100
AcDbLine
 10
5079.684823006939
 20
2324.705791019523
 30
0.0
 11
5046.627528403544
 21
2324.705791019523
 31
0.0
  0
LINE
  5
E5
330
17
100
AcDbEntity
  8
COTA
 62
4
370
25
100
AcDbLine
 10
5101.684823006939
 20
2244.705791019553
 30
0.0
 11
5046.627528403544
 21
2244.705791019553
 31
0.0
  0
LINE
  5
E6
330
17
100
AcDbEntity
  8
COTA
 62
4
370
25
100
AcDbLine
 10
5049.627528403545
 20
2324.705791019523
 30
0.0
 11
5049.627528403545
 21
2244.705791019553
 31
0.0
  0
LINE
  5
E7
330
17
100
AcDbEntity
  8
COTA
 62
4
370
25
100
AcDbLine
 10
5138.284823006914
 20
2241.705791019545
 30
0.0
 11
5138.284823006914
 21
2196.978977217362
 31
0.0
  0
LINE
  5
E8
330
17
100
AcDbEntity
  8
COTA
 62
4
370
25
100
AcDbLine
 10
5176.284823006914
 20
2241.705791019545
 30
0.0
 11
5176.284823006914
 21
2196.978977217362
 31
0.0
  0
LINE
  5
E9
330
17
100
AcDbEntity
  8
COTA
 62
4
370
25
100
AcDbLine
 10
5138.284823006914
 20
2199.978977217362
 30
0.0
 11
5176.284823006914
 21
2199.978977217362
 31
0.0
  0
LINE
  5
EA
330
17
100
AcDbEntity
  8
COTA
 62
4
370
25
100
AcDbLine
 10
5081.981528828788
 20
2274.675848547844
 30
0.0
 11
5063.426915559499
 21
2274.675848547844
 31
0.0
  0
LINE
  5
EB
330
17
100
AcDbEntity
  8
COTA
 62
4
370
25
100
AcDbLine
 10
5081.981528828788
 20
2244.705791019582
 30
0.0
 11
5063.426915559499
 21
2244.705791019582
 31
0.0
  0
LINE
  5
EC
330
17
100
AcDbEntity
  8
COTA
 62
4
370
25
100
AcDbLine
 10
5066.4269155595
 20
2274.675848547844
 30
0.0
 11
5066.4269155595
 21
2244.705791019582
 31
0.0
  0
LINE
  5
ED
330
17
100
AcDbEntity
  8
Cota Seção (2x)
 62
180
370
25
100
AcDbLine
 10
5138.284823006885
 20
2264.705791019552
 30
0.0
 11
5156.284823006885
 21
2264.705791019552
 31
0.0
  0
LINE
  5
EE
330
17
100
AcDbEntity
  8
Cota Seção (2x)
 62
180
370
25
100
AcDbLine
 10
5156.284823006885
 20
2264.705791019552
 30
0.0
 11
5156.284823006885
 21
2279.705791019551
 31
0.0
  0
LINE
  5
EF
330
17
100
AcDbEntity
  8
Cota Seção (2x)
 62
180
370
25
100
AcDbLine
 10
5156.284823006885
 20
2279.705791019551
 30
0.0
 11
5138.284823006885
 21
2279.705791019551
 31
0.0
  0
LINE
  5
F0
330
17
100
AcDbEntity
  8
Cota Seção (2x)
 62
180
370
25
100
AcDbLine
 10
5138.284823006885
 20
2279.705791019551
 30
0.0
 11
5138.284823006885
 21
2264.705791019552
 31
0.0
  0
LINE
  5
F1
330
17
100
AcDbEntity
  8
COTA
 62
4
370
25
100
AcDbLine
 10
5661.856366096479
 20
2358.967836359068
 30
0.0
 11
5661.856366096479
 21
2328.430958271889
 31
0.0
  0
LINE
  5
F2
330
17
100
AcDbEntity
  8
COTA
 62
4
370
25
100
AcDbLine
 10
5783.856366096486
 20
2358.967836359083
 30
0.0
 11
5783.856366096486
 21
2328.430958271889
 31
0.0
  0
LINE
  5
F3
330
17
100
AcDbEntity
  8
COTA
 62
4
370
25
100
AcDbLine
 10
5661.856366096479
 20
2331.430958271889
 30
0.0
 11
5783.856366096486
 21
2331.430958271889
 31
0.0
  0
LINE
  5
F4
330
17
100
AcDbEntity
  8
COTA
 62
0
370
25
100
AcDbLine
 10
5663.356366096479
 20
2332.930958271889
 30
0.0
 11
5660.356366096479
 21
2329.930958271889
 31
0.0
  0
LINE
  5
F5
330
17
100
AcDbEntity
  8
COTA
 62
0
370
25
100
AcDbLine
 10
5782.356366096486
 20
2329.930958271889
 30
0.0
 11
5785.356366096486
 21
2332.930958271889
 31
0.0
  0
LINE
  5
F6
330
17
100
AcDbEntity
  8
COTA
 62
4
370
25
100
AcDbLine
 10
5783.856366096486
 20
2358.967836359083
 30
0.0
 11
5783.856366096486
 21
2328.430958271889
 31
0.0
  0
LINE
  5
F7
330
17
100
AcDbEntity
  8
COTA
 62
4
370
25
100
AcDbLine
 10
5980.856366096486
 20
2358.967836359068
 30
0.0
 11
5980.856366096486
 21
2328.430958271889
 31
0.0
  0
LINE
  5
F8
330
17
100
AcDbEntity
  8
COTA
 62
4
370
25
100
AcDbLine
 10
5783.856366096486
 20
2331.430958271889
 30
0.0
 11
5980.856366096486
 21
2331.430958271889
 31
0.0
  0
LINE
  5
F9
330
17
100
AcDbEntity
  8
COTA
 62
0
370
25
100
AcDbLine
 10
5785.356366096486
 20
2332.930958271889
 30
0.0
 11
5782.356366096486
 21
2329.930958271889
 31
0.0
  0
LINE
  5
FA
330
17
100
AcDbEntity
  8
COTA
 62
0
370
25
100
AcDbLine
 10
5979.356366096486
 20
2329.930958271889
 30
0.0
 11
5982.356366096486
 21
2332.930958271889
 31
0.0
  0
LINE
  5
FB
330
17
100
AcDbEntity
  8
COTA
 62
4
370
25
100
AcDbLine
 10
5661.856366096479
 20
2358.967836359068
 30
0.0
 11
5661.856366096479
 21
2298.885722909738
 31
0.0
  0
LINE
  5
FC
330
17
100
AcDbEntity
  8
COTA
 62
4
370
25
100
AcDbLine
 10
5980.856366096486
 20
2358.967836359068
 30
0.0
 11
5980.856366096486
 21
2298.885722909738
 31
0.0
  0
LINE
  5
FD
330
17
100
AcDbEntity
  8
COTA
 62
4
370
25
100
AcDbLine
 10
5661.856366096479
 20
2301.885722909737
 30
0.0
 11
5980.856366096486
 21
2301.885722909737
 31
0.0
  0
LINE
  5
FE
330
17
100
AcDbEntity
  8
COTA
 62
0
370
25
100
AcDbLine
 10
5663.356366096479
 20
2303.385722909737
 30
0.0
 11
5660.356366096479
 21
2300.385722909737
 31
0.0
  0
LINE
  5
FF
330
17
100
AcDbEntity
  8
COTA
 62
0
370
25
100
AcDbLine
 10
5979.356366096486
 20
2300.385722909737
 30
0.0
 11
5982.356366096486
 21
2303.385722909737
 31
0.0
  0
LINE
  5
100
330
17
100
AcDbEntity
  8
COTA
 62
4
370
25
100
AcDbLine
 10
5983.856366096489
 20
2401.967836359069
 30
0.0
 11
6010.042001979008
 21
2401.967836359069
 31
0.0
  0
LINE
  5
101
330
17
100
AcDbEntity
  8
COTA
 62
4
370
25
100
AcDbLine
 10
5983.856366096489
 20
2361.967836359069
 30
0.0
 11
6010.042001979008
 21
2361.967836359069
 31
0.0
  0
LINE
  5
102
330
17
100
AcDbEntity
  8
COTA
 62
4
370
25
100
AcDbLine
 10
6007.042001979009
 20
2401.967836359069
 30
0.0
 11
6007.042001979009
 21
2361.967836359069
 31
0.0
  0
LINE
  5
103
330
17
100
AcDbEntity
  8
COTA
 62
0
370
25
100
AcDbLine
 10
6008.542001979009
 20
2400.467836359069
 30
0.0
 11
6005.542001979009
 21
2403.467836359069
 31
0.0
  0
LINE
  5
104
330
17
100
AcDbEntity
  8
COTA
 62
0
370
25
100
AcDbLine
 10
6005.542001979009
 20
2363.467836359069
 30
0.0
 11
6008.542001979009
 21
2360.467836359069
 31
0.0
  0
LINE
  5
105
330
17
100
AcDbEntity
  8
COTA
 62
4
370
25
100
AcDbLine
 10
5983.856366096489
 20
2401.967836359069
 30
0.0
 11
6010.042001979004
 21
2401.967836359069
 31
0.0
  0
LINE
  5
106
330
17
100
AcDbEntity
  8
COTA
 62
4
370
25
100
AcDbLine
 10
5983.856366096489
 20
2415.967836359069
 30
0.0
 11
6010.042001979004
 21
2415.967836359069
 31
0.0
  0
LINE
  5
107
330
17
100
AcDbEntity
  8
COTA
 62
4
370
25
100
AcDbLine
 10
6007.042001979005
 20
2401.967836359069
 30
0.0
 11
6007.042001979005
 21
2415.967836359069
 31
0.0
  0
LINE
  5
108
330
17
100
AcDbEntity
  8
COTA
 62
4
370
25
100
AcDbLine
 10
6007.042001979005
 20
2415.967836359069
 30
0.0
 11
6007.042001979005
 21
2435.084795423397
 31
0.0
  0
LINE
  5
109
330
17
100
AcDbEntity
  8
COTA
 62
0
370
25
100
AcDbLine
 10
6005.542001979005
 20
2403.467836359069
 30
0.0
 11
6008.542001979005
 21
2400.467836359069
 31
0.0
  0
LINE
  5
10A
330
17
100
AcDbEntity
  8
COTA
 62
0
370
25
100
AcDbLine
 10
6008.542001979005
 20
2414.467836359069
 30
0.0
 11
6005.542001979005
 21
2417.467836359069
 31
0.0
  0
LINE
  5
10B
330
17
100
AcDbEntity
  8
COTA
 62
4
370
25
100
AcDbLine
 10
5983.856366096489
 20
2415.967836359069
 30
0.0
 11
6031.360667040611
 21
2415.967836359069
 31
0.0
  0
LINE
  5
10C
330
17
100
AcDbEntity
  8
COTA
 62
4
370
25
100
AcDbLine
 10
5983.856366096489
 20
2361.967836359069
 30
0.0
 11
6031.360667040611
 21
2361.967836359069
 31
0.0
  0
LINE
  5
10D
330
17
100
AcDbEntity
  8
COTA
 62
4
370
25
100
AcDbLine
 10
6028.360667040611
 20
2415.967836359069
 30
0.0
 11
6028.360667040611
 21
2361.967836359069
 31
0.0
  0
LINE
  5
10E
330
17
100
AcDbEntity
  8
COTA
 62
0
370
25
100
AcDbLine
 10
6029.860667040611
 20
2414.467836359069
 30
0.0
 11
6026.860667040611
 21
2417.467836359069
 31
0.0
  0
LINE
  5
10F
330
17
100
AcDbEntity
  8
COTA
 62
0
370
25
100
AcDbLine
 10
6026.860667040611
 20
2363.467836359069
 30
0.0
 11
6029.860667040611
 21
2360.467836359069
 31
0.0
  0
LINE
  5
110
330
17
100
AcDbEntity
  8
COTA
 62
4
370
25
100
AcDbLine
 10
5560.782656560879
 20
2358.967836359068
 30
0.0
 11
5560.782656560879
 21
2299.040290976256
 31
0.0
  0
LINE
  5
111
330
17
100
AcDbEntity
  8
COTA
 62
4
370
25
100
AcDbLine
 10
5636.282656560885
 20
2358.967836359065
 30
0.0
 11
5636.282656560885
 21
2299.040290976256
 31
0.0
  0
LINE
  5
112
330
17
100
AcDbEntity
  8
COTA
 62
4
370
25
100
AcDbLine
 10
5560.782656560879
 20
2302.040290976256
 30
0.0
 11
5636.282656560885
 21
2302.040290976256
 31
0.0
  0
LINE
  5
113
330
17
100
AcDbEntity
  8
COTA
 62
0
370
25
100
AcDbLine
 10
5562.282656560879
 20
2303.540290976256
 30
0.0
 11
5559.282656560879
 21
2300.540290976256
 31
0.0
  0
LINE
  5
114
330
17
100
AcDbEntity
  8
COTA
 62
0
370
25
100
AcDbLine
 10
5634.782656560885
 20
2300.540290976256
 30
0.0
 11
5637.782656560885
 21
2303.540290976256
 31
0.0
  0
LINE
  5
115
330
17
100
AcDbEntity
  8
COTA
 62
4
370
25
100
AcDbLine
 10
5557.782656560881
 20
2361.967836359069
 30
0.0
 11
5541.448313000405
 21
2361.967836359069
 31
0.0
  0
LINE
  5
116
330
17
100
AcDbEntity
  8
COTA
 62
4
370
25
100
AcDbLine
 10
5557.782656560881
 20
2401.967836359069
 30
0.0
 11
5541.448313000405
 21
2401.967836359069
 31
0.0
  0
LINE
  5
117
330
17
100
AcDbEntity
  8
COTA
 62
4
370
25
100
AcDbLine
 10
5544.448313000405
 20
2361.967836359069
 30
0.0
 11
5544.448313000405
 21
2401.967836359069
 31
0.0
  0
LINE
  5
118
330
17
100
AcDbEntity
  8
COTA
 62
0
370
25
100
AcDbLine
 10
5542.948313000405
 20
2363.467836359069
 30
0.0
 11
5545.948313000405
 21
2360.467836359069
 31
0.0
  0
LINE
  5
119
330
17
100
AcDbEntity
  8
COTA
 62
0
370
25
100
AcDbLine
 10
5545.948313000405
 20
2400.467836359069
 30
0.0
 11
5542.948313000405
 21
2403.467836359069
 31
0.0
  0
LINE
  5
11A
330
17
100
AcDbEntity
  8
COTA
 62
4
370
25
100
AcDbLine
 10
5557.782656560881
 20
2401.967836359069
 30
0.0
 11
5541.448313000408
 21
2401.967836359069
 31
0.0
  0
LINE
  5
11B
330
17
100
AcDbEntity
  8
COTA
 62
4
370
25
100
AcDbLine
 10
5557.782656560881
 20
2415.967836359069
 30
0.0
 11
5541.448313000408
 21
2415.967836359069
 31
0.0
  0
LINE
  5
11C
330
17
100
AcDbEntity
  8
COTA
 62
4
370
25
100
AcDbLine
 10
5544.448313000408
 20
2401.967836359069
 30
0.0
 11
5544.448313000408
 21
2415.967836359069
 31
0.0
  0
LINE
  5
11D
330
17
100
AcDbEntity
  8
COTA
 62
4
370
25
100
AcDbLine
 10
5544.448313000408
 20
2415.967836359069
 30
0.0
 11
5544.448313000408
 21
2435.084795423397
 31
0.0
  0
LINE
  5
11E
330
17
100
AcDbEntity
  8
COTA
 62
0
370
25
100
AcDbLine
 10
5542.948313000408
 20
2403.467836359069
 30
0.0
 11
5545.948313000408
 21
2400.467836359069
 31
0.0
  0
LINE
  5
11F
330
17
100
AcDbEntity
  8
COTA
 62
0
370
25
100
AcDbLine
 10
5545.948313000408
 20
2414.467836359069
 30
0.0
 11
5542.948313000408
 21
2417.467836359069
 31
0.0
  0
LINE
  5
120
330
17
100
AcDbEntity
  8
COTA
 62
4
370
25
100
AcDbLine
 10
5557.782656560881
 20
2415.967836359069
 30
0.0
 11
5520.239762765573
 21
2415.967836359069
 31
0.0
  0
LINE
  5
121
330
17
100
AcDbEntity
  8
COTA
 62
4
370
25
100
AcDbLine
 10
5557.782656560881
 20
2361.967836359069
 30
0.0
 11
5520.239762765573
 21
2361.967836359069
 31
0.0
  0
LINE
  5
122
330
17
100
AcDbEntity
  8
COTA
 62
4
370
25
100
AcDbLine
 10
5523.239762765573
 20
2415.967836359069
 30
0.0
 11
5523.239762765573
 21
2361.967836359069
 31
0.0
  0
LINE
  5
123
330
17
100
AcDbEntity
  8
COTA
 62
0
370
25
100
AcDbLine
 10
5524.739762765573
 20
2414.467836359069
 30
0.0
 11
5521.739762765573
 21
2417.467836359069
 31
0.0
  0
LINE
  5
124
330
17
100
AcDbEntity
  8
COTA
 62
0
370
25
100
AcDbLine
 10
5521.739762765573
 20
2363.467836359069
 30
0.0
 11
5524.739762765573
 21
2360.467836359069
 31
0.0
  0
LINE
  5
125
330
17
100
AcDbEntity
  8
COTA
 62
4
370
25
100
AcDbLine
 10
5556.955241380237
 20
2160.538282891513
 30
0.0
 11
5556.955241380237
 21
2130.001404804333
 31
0.0
  0
LINE
  5
126
330
17
100
AcDbEntity
  8
COTA
 62
4
370
25
100
AcDbLine
 10
5678.955241380244
 20
2160.538282891527
 30
0.0
 11
5678.955241380244
 21
2130.001404804333
 31
0.0
  0
LINE
  5
127
330
17
100
AcDbEntity
  8
COTA
 62
4
370
25
100
AcDbLine
 10
5556.955241380237
 20
2133.001404804333
 30
0.0
 11
5678.955241380244
 21
2133.001404804333
 31
0.0
  0
LINE
  5
128
330
17
100
AcDbEntity
  8
COTA
 62
0
370
25
100
AcDbLine
 10
5558.455241380237
 20
2134.501404804333
 30
0.0
 11
5555.455241380237
 21
2131.501404804333
 31
0.0
  0
LINE
  5
129
330
17
100
AcDbEntity
  8
COTA
 62
0
370
25
100
AcDbLine
 10
5677.455241380244
 20
2131.501404804333
 30
0.0
 11
5680.455241380244
 21
2134.501404804333
 31
0.0
  0
LINE
  5
12A
330
17
100
AcDbEntity
  8
COTA
 62
4
370
25
100
AcDbLine
 10
5678.955241380244
 20
2160.538282891527
 30
0.0
 11
5678.955241380244
 21
2130.001404804333
 31
0.0
  0
LINE
  5
12B
330
17
100
AcDbEntity
  8
COTA
 62
4
370
25
100
AcDbLine
 10
5786.955241380245
 20
2160.538282891513
 30
0.0
 11
5786.955241380245
 21
2130.001404804333
 31
0.0
  0
LINE
  5
12C
330
17
100
AcDbEntity
  8
COTA
 62
4
370
25
100
AcDbLine
 10
5678.955241380244
 20
2133.001404804333
 30
0.0
 11
5786.955241380245
 21
2133.001404804333
 31
0.0
  0
LINE
  5
12D
330
17
100
AcDbEntity
  8
COTA
 62
0
370
25
100
AcDbLine
 10
5680.455241380244
 20
2134.501404804333
 30
0.0
 11
5677.455241380244
 21
2131.501404804333
 31
0.0
  0
LINE
  5
12E
330
17
100
AcDbEntity
  8
COTA
 62
0
370
25
100
AcDbLine
 10
5785.455241380245
 20
2131.501404804333
 30
0.0
 11
5788.455241380245
 21
2134.501404804333
 31
0.0
  0
LINE
  5
12F
330
17
100
AcDbEntity
  8
COTA
 62
4
370
25
100
AcDbLine
 10
5556.955241380237
 20
2160.538282891513
 30
0.0
 11
5556.955241380237
 21
2100.456169442182
 31
0.0
  0
LINE
  5
130
330
17
100
AcDbEntity
  8
COTA
 62
4
370
25
100
AcDbLine
 10
5786.955241380245
 20
2160.538282891513
 30
0.0
 11
5786.955241380245
 21
2100.456169442182
 31
0.0
  0
LINE
  5
131
330
17
100
AcDbEntity
  8
COTA
 62
4
370
25
100
AcDbLine
 10
5556.955241380237
 20
2103.456169442182
 30
0.0
 11
5786.955241380245
 21
2103.456169442182
 31
0.0
  0
LINE
  5
132
330
17
100
AcDbEntity
  8
COTA
 62
0
370
25
100
AcDbLine
 10
5558.455241380237
 20
2104.956169442182
 30
0.0
 11
5555.455241380237
 21
2101.956169442182
 31
0.0
  0
LINE
  5
133
330
17
100
AcDbEntity
  8
COTA
 62
0
370
25
100
AcDbLine
 10
5785.455241380245
 20
2101.956169442182
 30
0.0
 11
5788.455241380245
 21
2104.956169442182
 31
0.0
  0
LINE
  5
134
330
17
100
AcDbEntity
  8
COTA
 62
4
370
25
100
AcDbLine
 10
5808.31874526794
 20
2160.423486266211
 30
0.0
 11
5808.31874526794
 21
2098.956169442182
 31
0.0
  0
LINE
  5
135
330
17
100
AcDbEntity
  8
COTA
 62
4
370
25
100
AcDbLine
 10
5964.818745267946
 20
2160.423486266211
 30
0.0
 11
5964.818745267946
 21
2098.956169442182
 31
0.0
  0
LINE
  5
136
330
17
100
AcDbEntity
  8
COTA
 62
4
370
25
100
AcDbLine
 10
5808.31874526794
 20
2101.956169442182
 30
0.0
 11
5964.818745267946
 21
2101.956169442182
 31
0.0
  0
LINE
  5
137
330
17
100
AcDbEntity
  8
COTA
 62
0
370
25
100
AcDbLine
 10
5809.81874526794
 20
2103.456169442182
 30
0.0
 11
5806.81874526794
 21
2100.456169442182
 31
0.0
  0
LINE
  5
138
330
17
100
AcDbEntity
  8
COTA
 62
0
370
25
100
AcDbLine
 10
5963.318745267946
 20
2100.456169442182
 30
0.0
 11
5966.318745267946
 21
2103.456169442182
 31
0.0
  0
LINE
  5
139
330
17
100
AcDbEntity
  8
COTA
 62
4
370
25
100
AcDbLine
 10
5964.818745267946
 20
2220.423486266211
 30
0.0
 11
5964.818745267946
 21
2236.638551234666
 31
0.0
  0
LINE
  5
13A
330
17
100
AcDbEntity
  8
COTA
 62
4
370
25
100
AcDbLine
 10
5937.818745267946
 20
2206.423486266212
 30
0.0
 11
5937.818745267946
 21
2236.638551234666
 31
0.0
  0
LINE
  5
13B
330
17
100
AcDbEntity
  8
COTA
 62
4
370
25
100
AcDbLine
 10
5964.818745267946
 20
2233.638551234665
 30
0.0
 11
5937.818745267946
 21
2233.638551234665
 31
0.0
  0
LINE
  5
13C
330
17
100
AcDbEntity
  8
COTA
 62
0
370
25
100
AcDbLine
 10
5963.318745267946
 20
2232.138551234665
 30
0.0
 11
5966.318745267946
 21
2235.138551234665
 31
0.0
  0
LINE
  5
13D
330
17
100
AcDbEntity
  8
COTA
 62
0
370
25
100
AcDbLine
 10
5939.318745267946
 20
2235.138551234665
 30
0.0
 11
5936.318745267946
 21
2232.138551234665
 31
0.0
  0
LINE
  5
13E
330
17
100
AcDbEntity
  8
COTA
 62
4
370
25
100
AcDbLine
 10
5934.818745267949
 20
2203.423486266212
 30
0.0
 11
5915.627333286501
 21
2203.423486266212
 31
0.0
  0
LINE
  5
13F
330
17
100
AcDbEntity
  8
COTA
 62
4
370
25
100
AcDbLine
 10
5934.818745267947
 20
2173.423486266212
 30
0.0
 11
5915.627333286501
 21
2173.423486266212
 31
0.0
  0
LINE
  5
140
330
17
100
AcDbEntity
  8
COTA
 62
4
370
25
100
AcDbLine
 10
5918.627333286501
 20
2203.423486266212
 30
0.0
 11
5918.627333286501
 21
2173.423486266212
 31
0.0
  0
LINE
  5
141
330
17
100
AcDbEntity
  8
COTA
 62
0
370
25
100
AcDbLine
 10
5920.127333286501
 20
2201.923486266212
 30
0.0
 11
5917.127333286501
 21
2204.923486266212
 31
0.0
  0
LINE
  5
142
330
17
100
AcDbEntity
  8
COTA
 62
0
370
25
100
AcDbLine
 10
5917.127333286501
 20
2174.923486266212
 30
0.0
 11
5920.127333286501
 21
2171.923486266212
 31
0.0
  0
LINE
  5
143
330
17
100
AcDbEntity
  8
COTA
 62
4
370
25
100
AcDbLine
 10
5967.818745267948
 20
2163.423486266212
 30
0.0
 11
5994.665047546501
 21
2163.423486266212
 31
0.0
  0
LINE
  5
144
330
17
100
AcDbEntity
  8
COTA
 62
4
370
25
100
AcDbLine
 10
5940.818745267947
 20
2203.423486266201
 30
0.0
 11
5994.665047546501
 21
2203.423486266201
 31
0.0
  0
LINE
  5
145
330
17
100
AcDbEntity
  8
COTA
 62
4
370
25
100
AcDbLine
 10
5991.665047546501
 20
2163.423486266212
 30
0.0
 11
5991.665047546501
 21
2203.423486266201
 31
0.0
  0
LINE
  5
146
330
17
100
AcDbEntity
  8
COTA
 62
0
370
25
100
AcDbLine
 10
5990.165047546501
 20
2164.923486266212
 30
0.0
 11
5993.165047546501
 21
2161.923486266212
 31
0.0
  0
LINE
  5
147
330
17
100
AcDbEntity
  8
COTA
 62
0
370
25
100
AcDbLine
 10
5993.165047546501
 20
2201.923486266201
 30
0.0
 11
5990.165047546501
 21
2204.923486266201
 31
0.0
  0
LINE
  5
148
330
17
100
AcDbEntity
  8
COTA
 62
4
370
25
100
AcDbLine
 10
5967.818745267944
 20
2203.423486266201
 30
0.0
 11
5994.665047546504
 21
2203.423486266201
 31
0.0
  0
LINE
  5
149
330
17
100
AcDbEntity
  8
COTA
 62
4
370
25
100
AcDbLine
 10
5967.818745267943
 20
2217.423486266213
 30
0.0
 11
5994.665047546504
 21
2217.423486266213
 31
0.0
  0
LINE
  5
14A
330
17
100
AcDbEntity
  8
COTA
 62
4
370
25
100
AcDbLine
 10
5991.665047546504
 20
2203.423486266201
 30
0.0
 11
5991.665047546504
 21
2217.423486266213
 31
0.0
  0
LINE
  5
14B
330
17
100
AcDbEntity
  8
COTA
 62
4
370
25
100
AcDbLine
 10
5991.665047546504
 20
2217.423486266213
 30
0.0
 11
5991.665047546504
 21
2236.54044533054
 31
0.0
  0
LINE
  5
14C
330
17
100
AcDbEntity
  8
COTA
 62
0
370
25
100
AcDbLine
 10
5990.165047546504
 20
2204.923486266201
 30
0.0
 11
5993.165047546504
 21
2201.923486266201
 31
0.0
  0
LINE
  5
14D
330
17
100
AcDbEntity
  8
COTA
 62
0
370
25
100
AcDbLine
 10
5993.165047546504
 20
2215.923486266213
 30
0.0
 11
5990.165047546504
 21
2218.923486266213
 31
0.0
  0
LINE
  5
14E
330
17
100
AcDbEntity
  8
COTA
 62
4
370
25
100
AcDbLine
 10
5967.818745267948
 20
2217.423486266213
 30
0.0
 11
6015.58267026514
 21
2217.423486266213
 31
0.0
  0
LINE
  5
14F
330
17
100
AcDbEntity
  8
COTA
 62
4
370
25
100
AcDbLine
 10
5967.818745267948
 20
2163.423486266212
 30
0.0
 11
6015.58267026514
 21
2163.423486266212
 31
0.0
  0
LINE
  5
150
330
17
100
AcDbEntity
  8
COTA
 62
4
370
25
100
AcDbLine
 10
6012.58267026514
 20
2217.423486266213
 30
0.0
 11
6012.58267026514
 21
2163.423486266212
 31
0.0
  0
LINE
  5
151
330
17
100
AcDbEntity
  8
COTA
 62
0
370
25
100
AcDbLine
 10
6014.08267026514
 20
2215.923486266213
 30
0.0
 11
6011.08267026514
 21
2218.923486266213
 31
0.0
  0
LINE
  5
152
330
17
100
AcDbEntity
  8
COTA
 62
0
370
25
100
AcDbLine
 10
6011.08267026514
 20
2164.923486266212
 30
0.0
 11
6014.08267026514
 21
2161.923486266212
 31
0.0
  0
LINE
  5
153
330
17
100
AcDbEntity
  8
COTA
 62
4
370
25
100
AcDbLine
 10
5964.818745267946
 20
2160.423486266211
 30
0.0
 11
5964.818745267946
 21
2141.854329638484
 31
0.0
  0
LINE
  5
154
330
17
100
AcDbEntity
  8
COTA
 62
4
370
25
100
AcDbLine
 10
5957.818745267946
 20
2160.423486266211
 30
0.0
 11
5957.818745267946
 21
2141.854329638484
 31
0.0
  0
LINE
  5
155
330
17
100
AcDbEntity
  8
COTA
 62
4
370
25
100
AcDbLine
 10
5957.818745267946
 20
2144.854329638484
 30
0.0
 11
5964.818745267946
 21
2144.854329638484
 31
0.0
  0
LINE
  5
156
330
17
100
AcDbEntity
  8
COTA
 62
4
370
25
100
AcDbLine
 10
5964.818745267946
 20
2144.854329638484
 30
0.0
 11
5985.80870215898
 21
2144.854329638484
 31
0.0
  0
LINE
  5
157
330
17
100
AcDbEntity
  8
COTA
 62
0
370
25
100
AcDbLine
 10
5959.318745267946
 20
2146.354329638484
 30
0.0
 11
5956.318745267946
 21
2143.354329638484
 31
0.0
  0
LINE
  5
158
330
17
100
AcDbEntity
  8
COTA
 62
0
370
25
100
AcDbLine
 10
5963.318745267946
 20
2143.354329638484
 30
0.0
 11
5966.318745267946
 21
2146.354329638484
 31
0.0
  0
LINE
  5
159
330
17
100
AcDbEntity
  8
COTA
 62
4
370
25
100
AcDbLine
 10
5327.027766173217
 20
1886.296898876912
 30
0.0
 11
5327.027766173217
 21
1845.760020789733
 31
0.0
  0
LINE
  5
15A
330
17
100
AcDbEntity
  8
COTA
 62
4
370
25
100
AcDbLine
 10
5449.027766173223
 20
1886.296898876927
 30
0.0
 11
5449.027766173223
 21
1845.760020789733
 31
0.0
  0
LINE
  5
15B
330
17
100
AcDbEntity
  8
COTA
 62
4
370
25
100
AcDbLine
 10
5327.027766173217
 20
1848.760020789733
 30
0.0
 11
5449.027766173223
 21
1848.760020789733
 31
0.0
  0
LINE
  5
15C
330
17
100
AcDbEntity
  8
COTA
 62
0
370
25
100
AcDbLine
 10
5328.527766173217
 20
1850.260020789733
 30
0.0
 11
5325.527766173217
 21
1847.260020789733
 31
0.0
  0
LINE
  5
15D
330
17
100
AcDbEntity
  8
COTA
 62
0
370
25
100
AcDbLine
 10
5447.527766173223
 20
1847.260020789733
 30
0.0
 11
5450.527766173223
 21
1850.260020789733
 31
0.0
  0
LINE
  5
15E
330
17
100
AcDbEntity
  8
COTA
 62
4
370
25
100
AcDbLine
 10
5449.027766173223
 20
1886.296898876927
 30
0.0
 11
5449.027766173223
 21
1845.760020789733
 31
0.0
  0
LINE
  5
15F
330
17
100
AcDbEntity
  8
COTA
 62
4
370
25
100
AcDbLine
 10
5552.527766173223
 20
1886.296898876912
 30
0.0
 11
5552.527766173223
 21
1845.760020789733
 31
0.0
  0
LINE
  5
160
330
17
100
AcDbEntity
  8
COTA
 62
4
370
25
100
AcDbLine
 10
5449.027766173223
 20
1848.760020789733
 30
0.0
 11
5552.527766173223
 21
1848.760020789733
 31
0.0
  0
LINE
  5
161
330
17
100
AcDbEntity
  8
COTA
 62
0
370
25
100
AcDbLine
 10
5450.527766173223
 20
1850.260020789733
 30
0.0
 11
5447.527766173223
 21
1847.260020789733
 31
0.0
  0
LINE
  5
162
330
17
100
AcDbEntity
  8
COTA
 62
0
370
25
100
AcDbLine
 10
5551.027766173223
 20
1847.260020789733
 30
0.0
 11
5554.027766173223
 21
1850.260020789733
 31
0.0
  0
LINE
  5
163
330
17
100
AcDbEntity
  8
COTA
 62
4
370
25
100
AcDbLine
 10
5327.027766173217
 20
1886.296898876912
 30
0.0
 11
5327.027766173217
 21
1816.214785427582
 31
0.0
  0
LINE
  5
164
330
17
100
AcDbEntity
  8
COTA
 62
4
370
25
100
AcDbLine
 10
5552.527766173223
 20
1886.296898876912
 30
0.0
 11
5552.527766173223
 21
1816.214785427582
 31
0.0
  0
LINE
  5
165
330
17
100
AcDbEntity
  8
COTA
 62
4
370
25
100
AcDbLine
 10
5327.027766173217
 20
1819.214785427582
 30
0.0
 11
5552.527766173223
 21
1819.214785427582
 31
0.0
  0
LINE
  5
166
330
17
100
AcDbEntity
  8
COTA
 62
0
370
25
100
AcDbLine
 10
5328.527766173217
 20
1820.714785427582
 30
0.0
 11
5325.527766173217
 21
1817.714785427582
 31
0.0
  0
LINE
  5
167
330
17
100
AcDbEntity
  8
COTA
 62
0
370
25
100
AcDbLine
 10
5551.027766173223
 20
1817.714785427582
 30
0.0
 11
5554.027766173223
 21
1820.714785427582
 31
0.0
  0
LINE
  5
168
330
17
100
AcDbEntity
  8
COTA
 62
4
370
25
100
AcDbLine
 10
5092.405598493113
 20
1812.843049933457
 30
0.0
 11
5018.028875403924
 21
1812.843049933457
 31
0.0
  0
LINE
  5
169
330
17
100
AcDbEntity
  8
COTA
 62
4
370
25
100
AcDbLine
 10
5070.405598493113
 20
1900.84304993345
 30
0.0
 11
5018.028875403924
 21
1900.84304993345
 31
0.0
  0
LINE
  5
16A
330
17
100
AcDbEntity
  8
COTA
 62
4
370
25
100
AcDbLine
 10
5021.028875403924
 20
1812.843049933457
 30
0.0
 11
5021.028875403924
 21
1900.84304993345
 31
0.0
  0
LINE
  5
16B
330
17
100
AcDbEntity
  8
COTA
 62
4
370
25
100
AcDbLine
 10
5203.605598493095
 20
1812.843049933457
 30
0.0
 11
5246.877331251428
 21
1812.843049933457
 31
0.0
  0
LINE
  5
16C
330
17
100
AcDbEntity
  8
COTA
 62
4
370
25
100
AcDbLine
 10
5188.0055984931
 20
1900.843049933457
 30
0.0
 11
5246.877331251428
 21
1900.843049933457
 31
0.0
  0
LINE
  5
16D
330
17
100
AcDbEntity
  8
COTA
 62
4
370
25
100
AcDbLine
 10
5243.877331251428
 20
1812.843049933457
 30
0.0
 11
5243.877331251428
 21
1900.843049933457
 31
0.0
  0
LINE
  5
16E
330
17
100
AcDbEntity
  8
Cota Seção (2x)
 62
180
370
25
100
AcDbLine
 10
5162.505598494748
 20
1851.176383266755
 30
0.0
 11
5162.505598494748
 21
1870.509716600088
 31
0.0
  0
LINE
  5
16F
330
17
100
AcDbEntity
  8
Cota Seção (2x)
 62
180
370
25
100
AcDbLine
 10
5162.505598494748
 20
1870.509716600088
 30
0.0
 11
5147.505598494747
 21
1870.509716600088
 31
0.0
  0
LINE
  5
170
330
17
100
AcDbEntity
  8
Cota Seção (2x)
 62
180
370
25
100
AcDbLine
 10
5147.505598494747
 20
1870.509716600088
 30
0.0
 11
5147.505598494747
 21
1851.176383266755
 31
0.0
  0
LINE
  5
171
330
17
100
AcDbEntity
  8
Cota Seção (2x)
 62
180
370
25
100
AcDbLine
 10
5147.505598494747
 20
1851.176383266755
 30
0.0
 11
5162.505598494748
 21
1851.176383266755
 31
0.0
  0
LINE
  5
172
330
17
100
AcDbEntity
  8
COTA
 62
4
370
25
100
AcDbLine
 10
5070.405598493113
 20
1900.84304993345
 30
0.0
 11
5037.348303889387
 21
1900.84304993345
 31
0.0
  0
LINE
  5
173
330
17
100
AcDbEntity
  8
COTA
 62
4
370
25
100
AcDbLine
 10
5070.405598493113
 20
1876.843049933428
 30
0.0
 11
5037.348303889387
 21
1876.843049933428
 31
0.0
  0
LINE
  5
174
330
17
100
AcDbEntity
  8
COTA
 62
4
370
25
100
AcDbLine
 10
5040.348303889387
 20
1900.84304993345
 30
0.0
 11
5040.348303889387
 21
1876.843049933428
 31
0.0
  0
LINE
  5
175
330
17
100
AcDbEntity
  8
COTA
 62
4
370
25
100
AcDbLine
 10
5070.405598493113
 20
1872.843049933428
 30
0.0
 11
5037.348303889719
 21
1872.843049933428
 31
0.0
  0
LINE
  5
176
330
17
100
AcDbEntity
  8
COTA
 62
4
370
25
100
AcDbLine
 10
5092.405598493113
 20
1812.843049933457
 30
0.0
 11
5037.348303889719
 21
1812.843049933457
 31
0.0
  0
LINE
  5
177
330
17
100
AcDbEntity
  8
COTA
 62
4
370
25
100
AcDbLine
 10
5040.348303889719
 20
1872.843049933428
 30
0.0
 11
5040.348303889719
 21
1812.843049933457
 31
0.0
  0
LINE
  5
178
330
17
100
AcDbEntity
  8
COTA
 62
4
370
25
100
AcDbLine
 10
5129.005598493088
 20
1809.843049933449
 30
0.0
 11
5129.005598493088
 21
1765.116236131266
 31
0.0
  0
LINE
  5
179
330
17
100
AcDbEntity
  8
COTA
 62
4
370
25
100
AcDbLine
 10
5167.005598493087
 20
1809.843049933449
 30
0.0
 11
5167.005598493087
 21
1765.116236131266
 31
0.0
  0
LINE
  5
17A
330
17
100
AcDbEntity
  8
COTA
 62
4
370
25
100
AcDbLine
 10
5129.005598493088
 20
1768.116236131266
 30
0.0
 11
5167.005598493087
 21
1768.116236131266
 31
0.0
  0
LINE
  5
17B
330
17
100
AcDbEntity
  8
COTA
 62
4
370
25
100
AcDbLine
 10
5072.702304314962
 20
1842.813107461748
 30
0.0
 11
5054.147691045669
 21
1842.813107461748
 31
0.0
  0
LINE
  5
17C
330
17
100
AcDbEntity
  8
COTA
 62
4
370
25
100
AcDbLine
 10
5072.702304314962
 20
1812.843049933457
 30
0.0
 11
5054.147691045669
 21
1812.843049933457
 31
0.0
  0
LINE
  5
17D
330
17
100
AcDbEntity
  8
COTA
 62
4
370
25
100
AcDbLine
 10
5057.147691045669
 20
1842.813107461748
 30
0.0
 11
5057.147691045669
 21
1812.843049933457
 31
0.0
  0
LINE
  5
17E
330
17
100
AcDbEntity
  8
Cota Seção (2x)
 62
180
370
25
100
AcDbLine
 10
5139.005598493059
 20
1832.843049933456
 30
0.0
 11
5157.005598493059
 21
1832.843049933456
 31
0.0
  0
LINE
  5
17F
330
17
100
AcDbEntity
  8
Cota Seção (2x)
 62
180
370
25
100
AcDbLine
 10
5157.005598493059
 20
1832.843049933456
 30
0.0
 11
5157.005598493059
 21
1847.843049933456
 31
0.0
  0
LINE
  5
180
330
17
100
AcDbEntity
  8
Cota Seção (2x)
 62
180
370
25
100
AcDbLine
 10
5157.005598493059
 20
1847.843049933456
 30
0.0
 11
5139.005598493059
 21
1847.843049933456
 31
0.0
  0
LINE
  5
181
330
17
100
AcDbEntity
  8
Cota Seção (2x)
 62
180
370
25
100
AcDbLine
 10
5139.005598493059
 20
1847.843049933456
 30
0.0
 11
5139.005598493059
 21
1832.843049933456
 31
0.0
  0
LINE
  5
182
330
17
100
AcDbEntity
  8
COTA
 62
4
370
25
100
AcDbLine
 10
5555.527766173224
 20
1919.296898876913
 30
0.0
 11
5581.713402055726
 21
1919.296898876913
 31
0.0
  0
LINE
  5
183
330
17
100
AcDbEntity
  8
COTA
 62
4
370
25
100
AcDbLine
 10
5555.527766173224
 20
1889.296898876913
 30
0.0
 11
5581.713402055726
 21
1889.296898876913
 31
0.0
  0
LINE
  5
184
330
17
100
AcDbEntity
  8
COTA
 62
4
370
25
100
AcDbLine
 10
5578.713402055726
 20
1919.296898876913
 30
0.0
 11
5578.713402055726
 21
1889.296898876913
 31
0.0
  0
LINE
  5
185
330
17
100
AcDbEntity
  8
COTA
 62
0
370
25
100
AcDbLine
 10
5580.213402055726
 20
1917.796898876913
 30
0.0
 11
5577.213402055726
 21
1920.796898876913
 31
0.0
  0
LINE
  5
186
330
17
100
AcDbEntity
  8
COTA
 62
0
370
25
100
AcDbLine
 10
5577.213402055726
 20
1890.796898876913
 30
0.0
 11
5580.213402055726
 21
1887.796898876913
 31
0.0
  0
LINE
  5
187
330
17
100
AcDbEntity
  8
COTA
 62
4
370
25
100
AcDbLine
 10
5555.527766173224
 20
1919.296898876913
 30
0.0
 11
5581.713402055723
 21
1919.296898876913
 31
0.0
  0
LINE
  5
188
330
17
100
AcDbEntity
  8
COTA
 62
4
370
25
100
AcDbLine
 10
5555.527766173224
 20
1933.296898876913
 30
0.0
 11
5581.713402055723
 21
1933.296898876913
 31
0.0
  0
LINE
  5
189
330
17
100
AcDbEntity
  8
COTA
 62
4
370
25
100
AcDbLine
 10
5578.713402055723
 20
1919.296898876913
 30
0.0
 11
5578.713402055723
 21
1933.296898876913
 31
0.0
  0
LINE
  5
18A
330
17
100
AcDbEntity
  8
COTA
 62
4
370
25
100
AcDbLine
 10
5578.713402055723
 20
1933.296898876913
 30
0.0
 11
5578.713402055723
 21
1952.413857941241
 31
0.0
  0
LINE
  5
18B
330
17
100
AcDbEntity
  8
COTA
 62
0
370
25
100
AcDbLine
 10
5577.213402055723
 20
1920.796898876913
 30
0.0
 11
5580.213402055723
 21
1917.796898876913
 31
0.0
  0
LINE
  5
18C
330
17
100
AcDbEntity
  8
COTA
 62
0
370
25
100
AcDbLine
 10
5580.213402055723
 20
1931.796898876913
 30
0.0
 11
5577.213402055723
 21
1934.796898876913
 31
0.0
  0
LINE
  5
18D
330
17
100
AcDbEntity
  8
COTA
 62
4
370
25
100
AcDbLine
 10
5555.527766173224
 20
1933.296898876913
 30
0.0
 11
5603.032067117328
 21
1933.296898876913
 31
0.0
  0
LINE
  5
18E
330
17
100
AcDbEntity
  8
COTA
 62
4
370
25
100
AcDbLine
 10
5555.527766173224
 20
1889.296898876913
 30
0.0
 11
5603.032067117328
 21
1889.296898876913
 31
0.0
  0
LINE
  5
18F
330
17
100
AcDbEntity
  8
COTA
 62
4
370
25
100
AcDbLine
 10
5600.032067117328
 20
1933.296898876913
 30
0.0
 11
5600.032067117328
 21
1889.296898876913
 31
0.0
  0
LINE
  5
190
330
17
100
AcDbEntity
  8
COTA
 62
0
370
25
100
AcDbLine
 10
5601.532067117328
 20
1931.796898876913
 30
0.0
 11
5598.532067117328
 21
1934.796898876913
 31
0.0
  0
LINE
  5
191
330
17
100
AcDbEntity
  8
COTA
 62
0
370
25
100
AcDbLine
 10
5598.532067117328
 20
1890.796898876913
 30
0.0
 11
5601.532067117328
 21
1887.796898876913
 31
0.0
  0
LINE
  5
192
330
17
100
AcDbEntity
  8
COTA
 62
4
370
25
100
AcDbLine
 10
5666.263255056521
 20
1887.77267362831
 30
0.0
 11
5666.263255056521
 21
1845.237645702938
 31
0.0
  0
LINE
  5
193
330
17
100
AcDbEntity
  8
COTA
 62
4
370
25
100
AcDbLine
 10
5788.263255056527
 20
1887.772673628324
 30
0.0
 11
5788.263255056527
 21
1845.237645702938
 31
0.0
  0
LINE
  5
194
330
17
100
AcDbEntity
  8
COTA
 62
4
370
25
100
AcDbLine
 10
5666.263255056521
 20
1848.237645702938
 30
0.0
 11
5788.263255056527
 21
1848.237645702938
 31
0.0
  0
LINE
  5
195
330
17
100
AcDbEntity
  8
COTA
 62
0
370
25
100
AcDbLine
 10
5667.763255056521
 20
1849.737645702938
 30
0.0
 11
5664.763255056521
 21
1846.737645702938
 31
0.0
  0
LINE
  5
196
330
17
100
AcDbEntity
  8
COTA
 62
0
370
25
100
AcDbLine
 10
5786.763255056527
 20
1846.737645702938
 30
0.0
 11
5789.763255056527
 21
1849.737645702938
 31
0.0
  0
LINE
  5
197
330
17
100
AcDbEntity
  8
COTA
 62
4
370
25
100
AcDbLine
 10
5788.263255056527
 20
1887.772673628324
 30
0.0
 11
5788.263255056527
 21
1845.237645702938
 31
0.0
  0
LINE
  5
198
330
17
100
AcDbEntity
  8
COTA
 62
4
370
25
100
AcDbLine
 10
5910.763255056527
 20
1877.77267362831
 30
0.0
 11
5910.763255056527
 21
1845.237645702938
 31
0.0
  0
LINE
  5
199
330
17
100
AcDbEntity
  8
COTA
 62
4
370
25
100
AcDbLine
 10
5788.263255056527
 20
1848.237645702938
 30
0.0
 11
5910.763255056527
 21
1848.237645702938
 31
0.0
  0
LINE
  5
19A
330
17
100
AcDbEntity
  8
COTA
 62
0
370
25
100
AcDbLine
 10
5789.763255056527
 20
1849.737645702938
 30
0.0
 11
5786.763255056527
 21
1846.737645702938
 31
0.0
  0
LINE
  5
19B
330
17
100
AcDbEntity
  8
COTA
 62
0
370
25
100
AcDbLine
 10
5909.263255056527
 20
1846.737645702938
 30
0.0
 11
5912.263255056527
 21
1849.737645702938
 31
0.0
  0
LINE
  5
19C
330
17
100
AcDbEntity
  8
COTA
 62
4
370
25
100
AcDbLine
 10
5666.263255056521
 20
1887.77267362831
 30
0.0
 11
5666.263255056521
 21
1821.690560178979
 31
0.0
  0
LINE
  5
19D
330
17
100
AcDbEntity
  8
COTA
 62
4
370
25
100
AcDbLine
 10
5910.763255056527
 20
1877.77267362831
 30
0.0
 11
5910.763255056527
 21
1821.690560178979
 31
0.0
  0
LINE
  5
19E
330
17
100
AcDbEntity
  8
COTA
 62
4
370
25
100
AcDbLine
 10
5666.263255056521
 20
1824.690560178979
 30
0.0
 11
5910.763255056527
 21
1824.690560178979
 31
0.0
  0
LINE
  5
19F
330
17
100
AcDbEntity
  8
COTA
 62
0
370
25
100
AcDbLine
 10
5667.763255056521
 20
1826.190560178979
 30
0.0
 11
5664.763255056521
 21
1823.190560178979
 31
0.0
  0
LINE
  5
1A0
330
17
100
AcDbEntity
  8
COTA
 62
0
370
25
100
AcDbLine
 10
5909.263255056527
 20
1823.190560178979
 30
0.0
 11
5912.263255056527
 21
1826.190560178979
 31
0.0
  0
LINE
  5
1A1
330
17
100
AcDbEntity
  8
COTA
 62
4
370
25
100
AcDbLine
 10
5913.763255056529
 20
1934.772673628311
 30
0.0
 11
5927.67313904827
 21
1934.772673628311
 31
0.0
  0
LINE
  5
1A2
330
17
100
AcDbEntity
  8
COTA
 62
4
370
25
100
AcDbLine
 10
5913.763255056529
 20
1880.772673628311
 30
0.0
 11
5927.67313904827
 21
1880.772673628311
 31
0.0
  0
LINE
  5
1A3
330
17
100
AcDbEntity
  8
COTA
 62
4
370
25
100
AcDbLine
 10
5924.67313904827
 20
1934.772673628311
 30
0.0
 11
5924.67313904827
 21
1880.772673628311
 31
0.0
  0
LINE
  5
1A4
330
17
100
AcDbEntity
  8
COTA
 62
0
370
25
100
AcDbLine
 10
5926.17313904827
 20
1933.272673628311
 30
0.0
 11
5923.17313904827
 21
1936.272673628311
 31
0.0
  0
LINE
  5
1A5
330
17
100
AcDbEntity
  8
COTA
 62
0
370
25
100
AcDbLine
 10
5923.17313904827
 20
1882.272673628311
 30
0.0
 11
5926.17313904827
 21
1879.272673628311
 31
0.0
  0
LINE
  5
1A6
330
17
100
AcDbEntity
  8
COTA
 62
4
370
25
100
AcDbLine
 10
6252.801994531117
 20
2106.069239135611
 30
0.0
 11
6284.148502827978
 21
2106.069239135611
 31
0.0
  0
LINE
  5
1A7
330
17
100
AcDbEntity
  8
COTA
 62
4
370
25
100
AcDbLine
 10
6252.801994531117
 20
2101.069239135618
 30
0.0
 11
6284.148502827978
 21
2101.069239135618
 31
0.0
  0
LINE
  5
1A8
330
17
100
AcDbEntity
  8
COTA
 62
4
370
25
100
AcDbLine
 10
6279.148502827979
 20
2106.069239135611
 30
0.0
 11
6279.148502827979
 21
2110.069239135611
 31
0.0
  0
LINE
  5
1A9
330
17
100
AcDbEntity
  8
COTA
 62
4
370
25
100
AcDbLine
 10
6279.148502827979
 20
2101.069239135618
 30
0.0
 11
6279.148502827979
 21
2068.212096278475
 31
0.0
  0
LINE
  5
1AA
330
17
100
AcDbEntity
  8
COTA
 62
4
370
25
100
AcDbLine
 10
6279.148502827979
 20
2106.069239135611
 30
0.0
 11
6279.148502827979
 21
2101.069239135618
 31
0.0
  0
LINE
  5
1AB
330
17
100
AcDbEntity
  8
COTA
 62
4
370
25
100
AcDbLine
 10
5567.782656560876
 20
2358.967836359068
 30
0.0
 11
5567.782656560876
 21
2339.762393009998
 31
0.0
  0
LINE
  5
1AC
330
17
100
AcDbEntity
  8
COTA
 62
4
370
25
100
AcDbLine
 10
5560.782656560879
 20
2358.967836359068
 30
0.0
 11
5560.782656560879
 21
2339.762393009998
 31
0.0
  0
LINE
  5
1AD
330
17
100
AcDbEntity
  8
COTA
 62
4
370
25
100
AcDbLine
 10
5567.782656560876
 20
2342.762393009998
 30
0.0
 11
5560.782656560879
 21
2342.762393009998
 31
0.0
  0
LINE
  5
1AE
330
17
100
AcDbEntity
  8
COTA
 62
4
370
25
100
AcDbLine
 10
5560.782656560879
 20
2342.762393009998
 30
0.0
 11
5546.051662408832
 21
2342.762393009998
 31
0.0
  0
LINE
  5
1AF
330
17
100
AcDbEntity
  8
COTA
 62
0
370
25
100
AcDbLine
 10
5566.282656560876
 20
2341.262393009998
 30
0.0
 11
5569.282656560876
 21
2344.262393009998
 31
0.0
  0
LINE
  5
1B0
330
17
100
AcDbEntity
  8
COTA
 62
0
370
25
100
AcDbLine
 10
5562.282656560879
 20
2344.262393009998
 30
0.0
 11
5559.282656560879
 21
2341.262393009998
 31
0.0
  0
LINE
  5
1B1
330
17
100
AcDbEntity
  8
COTA
 62
4
370
25
100
AcDbLine
 10
5560.782656560879
 20
2358.967836359068
 30
0.0
 11
5560.782656560879
 21
2325.982025089695
 31
0.0
  0
LINE
  5
1B2
330
17
100
AcDbEntity
  8
COTA
 62
4
370
25
100
AcDbLine
 10
5605.782656560879
 20
2358.967836359067
 30
0.0
 11
5605.782656560879
 21
2325.982025089695
 31
0.0
  0
LINE
  5
1B3
330
17
100
AcDbEntity
  8
COTA
 62
4
370
25
100
AcDbLine
 10
5560.782656560879
 20
2328.982025089695
 30
0.0
 11
5605.782656560879
 21
2328.982025089695
 31
0.0
  0
LINE
  5
1B4
330
17
100
AcDbEntity
  8
COTA
 62
0
370
25
100
AcDbLine
 10
5562.282656560879
 20
2330.482025089695
 30
0.0
 11
5559.282656560879
 21
2327.482025089695
 31
0.0
  0
LINE
  5
1B5
330
17
100
AcDbEntity
  8
COTA
 62
0
370
25
100
AcDbLine
 10
5604.282656560879
 20
2327.482025089695
 30
0.0
 11
5607.282656560879
 21
2330.482025089695
 31
0.0
  0
LINE
  5
1B6
330
17
100
AcDbEntity
  8
COTA
 62
4
370
25
100
AcDbLine
 10
5910.763255056527
 20
1877.77267362831
 30
0.0
 11
5910.763255056527
 21
1862.011468226661
 31
0.0
  0
LINE
  5
1B7
330
17
100
AcDbEntity
  8
COTA
 62
4
370
25
100
AcDbLine
 10
5891.763255056527
 20
1877.77267362831
 30
0.0
 11
5891.763255056527
 21
1862.011468226661
 31
0.0
  0
LINE
  5
1B8
330
17
100
AcDbEntity
  8
COTA
 62
4
370
25
100
AcDbLine
 10
5910.763255056527
 20
1865.011468226661
 30
0.0
 11
5891.763255056527
 21
1865.011468226661
 31
0.0
  0
LINE
  5
1B9
330
17
100
AcDbEntity
  8
COTA
 62
0
370
25
100
AcDbLine
 10
5909.263255056527
 20
1863.511468226661
 30
0.0
 11
5912.263255056527
 21
1866.511468226661
 31
0.0
  0
LINE
  5
1BA
330
17
100
AcDbEntity
  8
COTA
 62
0
370
25
100
AcDbLine
 10
5893.263255056527
 20
1866.511468226661
 30
0.0
 11
5890.263255056527
 21
1863.511468226661
 31
0.0
  0
LINE
  5
1BB
330
17
100
AcDbEntity
  8
COTA
 62
4
370
25
100
AcDbLine
 10
5888.763255056528
 20
1880.772673628311
 30
0.0
 11
5878.91973992551
 21
1880.772673628311
 31
0.0
  0
LINE
  5
1BC
330
17
100
AcDbEntity
  8
COTA
 62
4
370
25
100
AcDbLine
 10
5888.763255056528
 20
1890.772673628311
 30
0.0
 11
5878.91973992551
 21
1890.772673628311
 31
0.0
  0
LINE
  5
1BD
330
17
100
AcDbEntity
  8
COTA
 62
4
370
25
100
AcDbLine
 10
5881.91973992551
 20
1880.772673628311
 30
0.0
 11
5881.91973992551
 21
1890.772673628311
 31
0.0
  0
LINE
  5
1BE
330
17
100
AcDbEntity
  8
COTA
 62
0
370
25
100
AcDbLine
 10
5880.41973992551
 20
1882.272673628311
 30
0.0
 11
5883.41973992551
 21
1879.272673628311
 31
0.0
  0
LINE
  5
1BF
330
17
100
AcDbEntity
  8
COTA
 62
0
370
25
100
AcDbLine
 10
5883.41973992551
 20
1889.272673628311
 30
0.0
 11
5880.41973992551
 21
1892.272673628311
 31
0.0
  0
LINE
  5
1C0
330
17
100
AcDbEntity
  8
Texto Seção
 62
252
370
15
100
AcDbLine
 10
5159.484823006911
 20
2352.705791019552
 30
0.0
 11
5159.484823006911
 21
2477.705791019552
 31
0.0
  0
LINE
  5
1C1
330
17
100
AcDbEntity
  8
presilha
 62
1
370
25
100
AcDbLine
 10
5116.417623872372
 20
2244.072457686252
 30
0.0
 11
5116.417623872372
 21
2239.4726176862664
 31
0.0
  0
LINE
  5
1C2
330
17
100
AcDbEntity
  8
presilha
 62
1
370
25
100
AcDbLine
 10
5116.417623872372
 20
2239.4726176862664
 30
0.0
 11
5096.4172593680205
 21
2239.472617686259
 31
0.0
  0
LINE
  5
1C3
330
17
100
AcDbEntity
  8
presilha
 62
1
370
25
100
AcDbLine
 10
5095.4172593680205
 20
2247.0724576862526
 30
0.0
 11
5096.4172593680205
 21
2247.0724576862526
 31
0.0
  0
LINE
  5
1C4
330
17
100
AcDbEntity
  8
presilha
 62
1
370
25
100
AcDbLine
 10
5096.4172593680205
 20
2247.0724576862526
 30
0.0
 11
5096.4172593680205
 21
2235.0724576862526
 31
0.0
  0
LINE
  5
1C5
330
17
100
AcDbEntity
  8
presilha
 62
1
370
25
100
AcDbLine
 10
5096.4172593680205
 20
2235.0724576862526
 30
0.0
 11
5095.4172593680205
 21
2235.0724576862526
 31
0.0
  0
LINE
  5
1C6
330
17
100
AcDbEntity
  8
presilha
 62
1
370
25
100
AcDbLine
 10
5095.4172593680205
 20
2235.0724576862526
 30
0.0
 11
5095.4172593680205
 21
2247.0724576862526
 31
0.0
  0
LINE
  5
1C7
330
17
100
AcDbEntity
  8
presilha
 62
1
370
25
100
AcDbLine
 10
5099.417259368019
 20
2250.7391243529187
 30
0.0
 11
5099.417259368019
 21
2249.7391243529187
 31
0.0
  0
LINE
  5
1C8
330
17
100
AcDbEntity
  8
presilha
 62
1
370
25
100
AcDbLine
 10
5116.417623872372
 20
2244.0724576862517
 30
0.0
 11
5097.797623872372
 21
2244.0724576862517
 31
0.0
  0
LINE
  5
1C9
330
17
100
AcDbEntity
  8
presilha
 62
1
370
25
100
AcDbLine
 10
5096.417623872372
 20
2243.8324576862515
 30
0.0
 11
5096.417259368019
 21
2249.979124352921
 31
0.0
  0
LINE
  5
1CA
330
17
100
AcDbEntity
  8
presilha
 62
1
370
25
100
AcDbLine
 10
5097.417623872371
 20
2244.452457686252
 30
0.0
 11
5097.417259368019
 21
2249.3591243529186
 31
0.0
  0
LINE
  5
1CB
330
17
100
AcDbEntity
  8
presilha
 62
1
370
25
100
AcDbLine
 10
5099.417259368019
 20
2250.7391243529187
 30
0.0
 11
5097.177259367999
 21
2250.7391243529187
 31
0.0
  0
LINE
  5
1CC
330
17
100
AcDbEntity
  8
presilha
 62
1
370
25
100
AcDbLine
 10
5099.417259368019
 20
2249.7391243529187
 30
0.0
 11
5097.797259368019
 21
2249.7391243529187
 31
0.0
  0
LINE
  5
1CD
330
17
100
AcDbEntity
  8
presilha
 62
1
370
25
100
AcDbLine
 10
5091.41725936802
 20
2245.4057910195875
 30
0.0
 11
5095.41725936802
 21
2245.4057910195875
 31
0.0
  0
LINE
  5
1CE
330
17
100
AcDbEntity
  8
presilha
 62
1
370
25
100
AcDbLine
 10
5095.41725936802
 20
2245.4057910195875
 30
0.0
 11
5095.41725936802
 21
2236.739124352921
 31
0.0
  0
LINE
  5
1CF
330
17
100
AcDbEntity
  8
presilha
 62
1
370
25
100
AcDbLine
 10
5095.41725936802
 20
2236.739124352921
 30
0.0
 11
5091.41725936802
 21
2236.739124352921
 31
0.0
  0
LINE
  5
1D0
330
17
100
AcDbEntity
  8
presilha
 62
1
370
25
100
AcDbLine
 10
5091.41725936802
 20
2245.4057910195875
 30
0.0
 11
5091.41725936802
 21
2236.739124352921
 31
0.0
  0
LINE
  5
1D1
330
17
100
AcDbEntity
  8
presilha
 62
1
370
25
100
AcDbLine
 10
5198.152022141456
 20
2244.072457686252
 30
0.0
 11
5198.152022141456
 21
2239.4726176862664
 31
0.0
  0
LINE
  5
1D2
330
17
100
AcDbEntity
  8
presilha
 62
1
370
25
100
AcDbLine
 10
5198.152022141456
 20
2239.4726176862664
 30
0.0
 11
5218.152386645807
 21
2239.472617686259
 31
0.0
  0
LINE
  5
1D3
330
17
100
AcDbEntity
  8
presilha
 62
1
370
25
100
AcDbLine
 10
5219.152386645807
 20
2247.0724576862526
 30
0.0
 11
5218.152386645807
 21
2247.0724576862526
 31
0.0
  0
LINE
  5
1D4
330
17
100
AcDbEntity
  8
presilha
 62
1
370
25
100
AcDbLine
 10
5218.152386645807
 20
2247.0724576862526
 30
0.0
 11
5218.152386645807
 21
2235.0724576862526
 31
0.0
  0
LINE
  5
1D5
330
17
100
AcDbEntity
  8
presilha
 62
1
370
25
100
AcDbLine
 10
5218.152386645807
 20
2235.0724576862526
 30
0.0
 11
5219.152386645807
 21
2235.0724576862526
 31
0.0
  0
LINE
  5
1D6
330
17
100
AcDbEntity
  8
presilha
 62
1
370
25
100
AcDbLine
 10
5219.152386645807
 20
2235.0724576862526
 30
0.0
 11
5219.152386645807
 21
2247.0724576862526
 31
0.0
  0
LINE
  5
1D7
330
17
100
AcDbEntity
  8
presilha
 62
1
370
25
100
AcDbLine
 10
5215.152386645809
 20
2250.7391243529187
 30
0.0
 11
5215.152386645809
 21
2249.7391243529187
 31
0.0
  0
LINE
  5
1D8
330
17
100
AcDbEntity
  8
presilha
 62
1
370
25
100
AcDbLine
 10
5198.152022141456
 20
2244.0724576862517
 30
0.0
 11
5216.772022141456
 21
2244.0724576862517
 31
0.0
  0
LINE
  5
1D9
330
17
100
AcDbEntity
  8
presilha
 62
1
370
25
100
AcDbLine
 10
5218.152022141456
 20
2243.8324576862515
 30
0.0
 11
5218.152386645809
 21
2249.979124352921
 31
0.0
  0
LINE
  5
1DA
330
17
100
AcDbEntity
  8
presilha
 62
1
370
25
100
AcDbLine
 10
5217.152022141457
 20
2244.452457686252
 30
0.0
 11
5217.152386645809
 21
2249.3591243529186
 31
0.0
  0
LINE
  5
1DB
330
17
100
AcDbEntity
  8
presilha
 62
1
370
25
100
AcDbLine
 10
5215.152386645809
 20
2250.7391243529187
 30
0.0
 11
5217.392386645829
 21
2250.7391243529187
 31
0.0
  0
LINE
  5
1DC
330
17
100
AcDbEntity
  8
presilha
 62
1
370
25
100
AcDbLine
 10
5215.152386645809
 20
2249.7391243529187
 30
0.0
 11
5216.772386645809
 21
2249.7391243529187
 31
0.0
  0
LINE
  5
1DD
330
17
100
AcDbEntity
  8
presilha
 62
1
370
25
100
AcDbLine
 10
5223.152386645808
 20
2245.4057910195875
 30
0.0
 11
5219.152386645808
 21
2245.4057910195875
 31
0.0
  0
LINE
  5
1DE
330
17
100
AcDbEntity
  8
presilha
 62
1
370
25
100
AcDbLine
 10
5219.152386645808
 20
2245.4057910195875
 30
0.0
 11
5219.152386645808
 21
2236.739124352921
 31
0.0
  0
LINE
  5
1DF
330
17
100
AcDbEntity
  8
presilha
 62
1
370
25
100
AcDbLine
 10
5219.152386645808
 20
2236.739124352921
 30
0.0
 11
5223.152386645808
 21
2236.739124352921
 31
0.0
  0
LINE
  5
1E0
330
17
100
AcDbEntity
  8
presilha
 62
1
370
25
100
AcDbLine
 10
5223.152386645808
 20
2245.4057910195875
 30
0.0
 11
5223.152386645808
 21
2236.739124352921
 31
0.0
  0
LINE
  5
1E1
330
17
100
AcDbEntity
  8
Texto Seção
 62
252
370
15
100
AcDbLine
 10
5150.205598493085
 20
1900.843049933456
 30
0.0
 11
5150.205598493085
 21
2025.843049933456
 31
0.0
  0
LINE
  5
1E2
330
17
100
AcDbEntity
  8
presilha
 62
1
370
25
100
AcDbLine
 10
5107.138399358546
 20
1812.2097166001572
 30
0.0
 11
5107.138399358546
 21
1807.6098766001712
 31
0.0
  0
LINE
  5
1E3
330
17
100
AcDbEntity
  8
presilha
 62
1
370
25
100
AcDbLine
 10
5107.138399358546
 20
1807.6098766001712
 30
0.0
 11
5087.138034854194
 21
1807.609876600164
 31
0.0
  0
LINE
  5
1E4
330
17
100
AcDbEntity
  8
presilha
 62
1
370
25
100
AcDbLine
 10
5086.138034854194
 20
1815.2097166001574
 30
0.0
 11
5087.138034854194
 21
1815.2097166001574
 31
0.0
  0
LINE
  5
1E5
330
17
100
AcDbEntity
  8
presilha
 62
1
370
25
100
AcDbLine
 10
5087.138034854194
 20
1815.2097166001574
 30
0.0
 11
5087.138034854194
 21
1803.2097166001574
 31
0.0
  0
LINE
  5
1E6
330
17
100
AcDbEntity
  8
presilha
 62
1
370
25
100
AcDbLine
 10
5087.138034854194
 20
1803.2097166001574
 30
0.0
 11
5086.138034854194
 21
1803.2097166001574
 31
0.0
  0
LINE
  5
1E7
330
17
100
AcDbEntity
  8
presilha
 62
1
370
25
100
AcDbLine
 10
5086.138034854194
 20
1803.2097166001574
 30
0.0
 11
5086.138034854194
 21
1815.2097166001574
 31
0.0
  0
LINE
  5
1E8
330
17
100
AcDbEntity
  8
presilha
 62
1
370
25
100
AcDbLine
 10
5090.1380348541925
 20
1818.8763832668235
 30
0.0
 11
5090.1380348541925
 21
1817.8763832668235
 31
0.0
  0
LINE
  5
1E9
330
17
100
AcDbEntity
  8
presilha
 62
1
370
25
100
AcDbLine
 10
5107.138399358546
 20
1812.209716600157
 30
0.0
 11
5088.518399358546
 21
1812.209716600157
 31
0.0
  0
LINE
  5
1EA
330
17
100
AcDbEntity
  8
presilha
 62
1
370
25
100
AcDbLine
 10
5087.138399358546
 20
1811.9697166001565
 30
0.0
 11
5087.1380348541925
 21
1818.1163832668265
 31
0.0
  0
LINE
  5
1EB
330
17
100
AcDbEntity
  8
presilha
 62
1
370
25
100
AcDbLine
 10
5088.138399358545
 20
1812.5897166001566
 30
0.0
 11
5088.1380348541925
 21
1817.4963832668238
 31
0.0
  0
LINE
  5
1EC
330
17
100
AcDbEntity
  8
presilha
 62
1
370
25
100
AcDbLine
 10
5090.1380348541925
 20
1818.8763832668235
 30
0.0
 11
5087.898034854173
 21
1818.8763832668235
 31
0.0
  0
LINE
  5
1ED
330
17
100
AcDbEntity
  8
presilha
 62
1
370
25
100
AcDbLine
 10
5090.1380348541925
 20
1817.8763832668235
 30
0.0
 11
5088.518034854193
 21
1817.8763832668235
 31
0.0
  0
LINE
  5
1EE
330
17
100
AcDbEntity
  8
presilha
 62
1
370
25
100
AcDbLine
 10
5082.138034854193
 20
1813.5430499334927
 30
0.0
 11
5086.138034854193
 21
1813.5430499334927
 31
0.0
  0
LINE
  5
1EF
330
17
100
AcDbEntity
  8
presilha
 62
1
370
25
100
AcDbLine
 10
5086.138034854193
 20
1813.5430499334927
 30
0.0
 11
5086.138034854193
 21
1804.876383266826
 31
0.0
  0
LINE
  5
1F0
330
17
100
AcDbEntity
  8
presilha
 62
1
370
25
100
AcDbLine
 10
5086.138034854193
 20
1804.876383266826
 30
0.0
 11
5082.138034854193
 21
1804.876383266826
 31
0.0
  0
LINE
  5
1F1
330
17
100
AcDbEntity
  8
presilha
 62
1
370
25
100
AcDbLine
 10
5082.138034854193
 20
1813.5430499334927
 30
0.0
 11
5082.138034854193
 21
1804.876383266826
 31
0.0
  0
LINE
  5
1F2
330
17
100
AcDbEntity
  8
presilha
 62
1
370
25
100
AcDbLine
 10
5188.87279762763
 20
1812.2097166001572
 30
0.0
 11
5188.87279762763
 21
1807.6098766001712
 31
0.0
  0
LINE
  5
1F3
330
17
100
AcDbEntity
  8
presilha
 62
1
370
25
100
AcDbLine
 10
5188.87279762763
 20
1807.6098766001712
 30
0.0
 11
5208.873162131981
 21
1807.609876600164
 31
0.0
  0
LINE
  5
1F4
330
17
100
AcDbEntity
  8
presilha
 62
1
370
25
100
AcDbLine
 10
5209.873162131981
 20
1815.2097166001574
 30
0.0
 11
5208.873162131981
 21
1815.2097166001574
 31
0.0
  0
LINE
  5
1F5
330
17
100
AcDbEntity
  8
presilha
 62
1
370
25
100
AcDbLine
 10
5208.873162131981
 20
1815.2097166001574
 30
0.0
 11
5208.873162131981
 21
1803.2097166001574
 31
0.0
  0
LINE
  5
1F6
330
17
100
AcDbEntity
  8
presilha
 62
1
370
25
100
AcDbLine
 10
5208.873162131981
 20
1803.2097166001574
 30
0.0
 11
5209.873162131981
 21
1803.2097166001574
 31
0.0
  0
LINE
  5
1F7
330
17
100
AcDbEntity
  8
presilha
 62
1
370
25
100
AcDbLine
 10
5209.873162131981
 20
1803.2097166001574
 30
0.0
 11
5209.873162131981
 21
1815.2097166001574
 31
0.0
  0
LINE
  5
1F8
330
17
100
AcDbEntity
  8
presilha
 62
1
370
25
100
AcDbLine
 10
5205.873162131983
 20
1818.8763832668235
 30
0.0
 11
5205.873162131983
 21
1817.8763832668235
 31
0.0
  0
LINE
  5
1F9
330
17
100
AcDbEntity
  8
presilha
 62
1
370
25
100
AcDbLine
 10
5188.87279762763
 20
1812.209716600157
 30
0.0
 11
5207.492797627629
 21
1812.209716600157
 31
0.0
  0
LINE
  5
1FA
330
17
100
AcDbEntity
  8
presilha
 62
1
370
25
100
AcDbLine
 10
5208.87279762763
 20
1811.9697166001565
 30
0.0
 11
5208.873162131983
 21
1818.1163832668265
 31
0.0
  0
LINE
  5
1FB
330
17
100
AcDbEntity
  8
presilha
 62
1
370
25
100
AcDbLine
 10
5207.8727976276305
 20
1812.5897166001566
 30
0.0
 11
5207.873162131983
 21
1817.4963832668238
 31
0.0
  0
LINE
  5
1FC
330
17
100
AcDbEntity
  8
presilha
 62
1
370
25
100
AcDbLine
 10
5205.873162131983
 20
1818.8763832668235
 30
0.0
 11
5208.113162132003
 21
1818.8763832668235
 31
0.0
  0
LINE
  5
1FD
330
17
100
AcDbEntity
  8
presilha
 62
1
370
25
100
AcDbLine
 10
5205.873162131983
 20
1817.8763832668235
 30
0.0
 11
5207.493162131983
 21
1817.8763832668235
 31
0.0
  0
LINE
  5
1FE
330
17
100
AcDbEntity
  8
presilha
 62
1
370
25
100
AcDbLine
 10
5213.873162131982
 20
1813.5430499334927
 30
0.0
 11
5209.873162131982
 21
1813.5430499334927
 31
0.0
  0
LINE
  5
1FF
330
17
100
AcDbEntity
  8
presilha
 62
1
370
25
100
AcDbLine
 10
5209.873162131982
 20
1813.5430499334927
 30
0.0
 11
5209.873162131982
 21
1804.876383266826
 31
0.0
  0
LINE
  5
200
330
17
100
AcDbEntity
  8
presilha
 62
1
370
25
100
AcDbLine
 10
5209.873162131982
 20
1804.876383266826
 30
0.0
 11
5213.873162131982
 21
1804.876383266826
 31
0.0
  0
LINE
  5
201
330
17
100
AcDbEntity
  8
presilha
 62
1
370
25
100
AcDbLine
 10
5213.873162131982
 20
1813.5430499334927
 30
0.0
 11
5213.873162131982
 21
1804.876383266826
 31
0.0
  0
LWPOLYLINE
  5
202
330
17
100
AcDbEntity
  8
Painéis
 62
200
370
25
100
AcDbPolyline
 90
4
 70
1
 10
5134.284823006914
 20
2324.70579101953
 10
5138.284823006914
 20
2324.70579101953
 10
5138.284823006914
 20
2244.705791019552
 10
5134.284823006914
 20
2244.705791019552
  0
LWPOLYLINE
  5
203
330
17
100
AcDbEntity
  8
Madeira
 62
126
370
18
100
AcDbPolyline
 90
4
 70
1
 10
5134.284823006914
 20
2320.305791019528
 10
5134.284823006914
 20
2324.70579101953
 10
5120.284823006914
 20
2324.70579101953
 10
5120.284823006914
 20
2320.305791019528
  0
LWPOLYLINE
  5
204
330
17
100
AcDbEntity
  8
Madeira
 62
126
370
18
100
AcDbPolyline
 90
4
 70
1
 10
5100.284823006914
 20
2244.705791019552
 10
5100.284823006914
 20
2249.105791019546
 10
5120.284823006914
 20
2249.105791019546
 10
5120.284823006914
 20
2244.705791019552
  0
LWPOLYLINE
  5
205
330
17
100
AcDbEntity
  8
Madeira
 62
126
370
18
100
AcDbPolyline
 90
4
 70
1
 10
5134.284823006914
 20
2324.70579101953
 10
5120.284823006914
 20
2324.70579101953
 10
5120.284823006914
 20
2244.705791019552
 10
5134.284823006914
 20
2244.705791019552
  0
LWPOLYLINE
  5
206
330
17
100
AcDbEntity
  8
Madeira
 62
126
370
18
100
AcDbPolyline
 90
4
 70
1
 10
5176.284823006914
 20
2244.705791019552
 10
5176.284823006914
 20
2249.105791019546
 10
5162.284823006913
 20
2249.105791019546
 10
5162.284823006913
 20
2244.705791019552
  0
LWPOLYLINE
  5
207
330
17
100
AcDbEntity
  8
Painéis
 62
200
370
25
100
AcDbPolyline
 90
4
 70
1
 10
5176.284823006914
 20
2249.105791019546
 10
5176.284823006914
 20
2252.705791019552
 10
5138.284823006914
 20
2252.705791019552
 10
5138.284823006914
 20
2249.105791019546
  0
LWPOLYLINE
  5
208
330
17
100
AcDbEntity
  8
Madeira
 62
126
370
18
100
AcDbPolyline
 90
4
 70
1
 10
5138.284823006914
 20
2244.705791019552
 10
5138.284823006914
 20
2249.105791019546
 10
5152.284823006914
 20
2249.105791019546
 10
5152.284823006914
 20
2244.705791019552
  0
LWPOLYLINE
  5
209
330
17
100
AcDbEntity
  8
Painéis
 62
200
370
25
100
AcDbPolyline
 90
4
 70
1
 10
5180.284823006914
 20
2324.70579101953
 10
5176.284823006914
 20
2324.70579101953
 10
5176.284823006914
 20
2244.705791019552
 10
5180.284823006914
 20
2244.705791019552
  0
LWPOLYLINE
  5
20A
330
17
100
AcDbEntity
  8
Painéis
 62
200
370
25
100
AcDbPolyline
 90
4
 70
1
 10
5236.284823006885
 20
2324.70579101953
 10
5236.284823006885
 20
2328.70579101953
 10
5176.284823006914
 20
2328.70579101953
 10
5176.284823006914
 20
2324.70579101953
  0
LWPOLYLINE
  5
20B
330
17
100
AcDbEntity
  8
Madeira
 62
126
370
18
100
AcDbPolyline
 90
4
 70
1
 10
5180.284823006914
 20
2320.305791019528
 10
5180.284823006914
 20
2324.70579101953
 10
5194.284823006913
 20
2324.70579101953
 10
5194.284823006913
 20
2320.305791019528
  0
LWPOLYLINE
  5
20C
330
17
100
AcDbEntity
  8
Madeira
 62
126
370
18
100
AcDbPolyline
 90
4
 70
1
 10
5214.284823006914
 20
2244.705791019552
 10
5214.284823006914
 20
2249.105791019546
 10
5194.284823006913
 20
2249.105791019546
 10
5194.284823006913
 20
2244.705791019552
  0
LWPOLYLINE
  5
20D
330
17
100
AcDbEntity
  8
Madeira
 62
126
370
18
100
AcDbPolyline
 90
4
 70
1
 10
5180.284823006914
 20
2324.70579101953
 10
5194.284823006913
 20
2324.70579101953
 10
5194.284823006913
 20
2244.705791019552
 10
5180.284823006914
 20
2244.705791019552
  0
LWPOLYLINE
  5
20E
330
17
100
AcDbEntity
  8
Painéis
 62
200
370
25
100
AcDbPolyline
 90
4
 70
1
 10
5138.284823006914
 20
2324.70579101953
 10
5138.284823006914
 20
2328.70579101953
 10
5082.684823006937
 20
2328.705791019523
 10
5082.684823006937
 20
2324.705791019523
  0
LWPOLYLINE
  5
20F
330
17
100
AcDbEntity
  8
CONCRETO
 62
251
370
25
100
AcDbPolyline
 90
8
 70
1
 10
5082.684823006937
 20
2328.705791019523
 10
5082.684823006937
 20
2352.705791019552
 10
5236.284823006885
 20
2352.705791019552
 10
5236.284823006885
 20
2328.705791019537
 10
5176.284823006914
 20
2328.705791019537
 10
5176.284823006856
 20
2252.705791019552
 10
5138.284823006914
 20
2252.705791019552
 10
5138.284823006914
 20
2328.70579101953
  0
LWPOLYLINE
  5
210
330
17
100
AcDbEntity
  8
barrote
 62
251
370
25
100
AcDbPolyline
 90
4
 70
1
 10
5066.82962533502
 20
2224.705791019596
 10
5262.012565844714
 20
2224.705791019596
 10
5262.012565844714
 20
2244.705791019552
 10
5066.82962533502
 20
2244.705791019552
  0
LWPOLYLINE
  5
211
330
17
100
AcDbEntity
  8
SCO-___-LAJ
 62
1
370
0
100
AcDbPolyline
 90
4
 70
1
 10
5075.831892750481
 20
2243.372377686225
 10
5243.137753263341
 20
2243.372377686218
 10
5243.137753263341
 20
2240.172697686242
 10
5075.831892750481
 20
2240.172697686249
  0
LWPOLYLINE
  5
212
330
17
100
AcDbEntity
  8
Painéis
 62
200
370
25
100
AcDbPolyline
 90
4
 70
1
 10
5125.005598493088
 20
1872.843049933434
 10
5129.005598493088
 20
1872.843049933434
 10
5129.005598493088
 20
1812.843049933456
 10
5125.005598493088
 20
1812.843049933456
  0
LWPOLYLINE
  5
213
330
17
100
AcDbEntity
  8
Madeira
 62
126
370
18
100
AcDbPolyline
 90
4
 70
1
 10
5125.005598493088
 20
1868.443049933433
 10
5125.005598493088
 20
1872.843049933434
 10
5111.005598493088
 20
1872.843049933434
 10
5111.005598493088
 20
1868.443049933433
  0
LWPOLYLINE
  5
214
330
17
100
AcDbEntity
  8
Madeira
 62
126
370
18
100
AcDbPolyline
 90
4
 70
1
 10
5091.005598493087
 20
1812.843049933456
 10
5091.005598493087
 20
1817.24304993345
 10
5111.005598493088
 20
1817.24304993345
 10
5111.005598493088
 20
1812.843049933456
  0
LWPOLYLINE
  5
215
330
17
100
AcDbEntity
  8
Madeira
 62
126
370
18
100
AcDbPolyline
 90
4
 70
1
 10
5125.005598493088
 20
1872.843049933434
 10
5111.005598493088
 20
1872.843049933434
 10
5111.005598493088
 20
1782.843049933456
 10
5125.005598493088
 20
1782.843049933456
  0
LWPOLYLINE
  5
216
330
17
100
AcDbEntity
  8
Madeira
 62
126
370
18
100
AcDbPolyline
 90
4
 70
1
 10
5167.005598493087
 20
1812.843049933456
 10
5167.005598493087
 20
1817.24304993345
 10
5153.005598493088
 20
1817.24304993345
 10
5153.005598493088
 20
1812.843049933456
  0
LWPOLYLINE
  5
217
330
17
100
AcDbEntity
  8
Painéis
 62
200
370
25
100
AcDbPolyline
 90
4
 70
1
 10
5167.005598493087
 20
1817.24304993345
 10
5167.005598493087
 20
1820.843049933456
 10
5129.005598493088
 20
1820.843049933456
 10
5129.005598493088
 20
1817.24304993345
  0
LWPOLYLINE
  5
218
330
17
100
AcDbEntity
  8
Madeira
 62
126
370
18
100
AcDbPolyline
 90
4
 70
1
 10
5129.005598493088
 20
1812.843049933456
 10
5129.005598493088
 20
1817.24304993345
 10
5143.005598493088
 20
1817.24304993345
 10
5143.005598493088
 20
1812.843049933456
  0
LWPOLYLINE
  5
219
330
17
100
AcDbEntity
  8
Painéis
 62
200
370
25
100
AcDbPolyline
 90
4
 70
1
 10
5171.005598493099
 20
1900.843049933456
 10
5167.005598493099
 20
1900.843049933456
 10
5167.005598493087
 20
1812.843049933456
 10
5171.005598493088
 20
1812.843049933456
  0
LWPOLYLINE
  5
21A
330
17
100
AcDbEntity
  8
Madeira
 62
126
370
18
100
AcDbPolyline
 90
4
 70
1
 10
5171.005598493099
 20
1896.443049933455
 10
5171.005598493099
 20
1900.843049933456
 10
5185.005598493098
 20
1900.843049933456
 10
5185.005598493098
 20
1896.443049933455
  0
LWPOLYLINE
  5
21B
330
17
100
AcDbEntity
  8
Madeira
 62
126
370
18
100
AcDbPolyline
 90
4
 70
1
 10
5205.005598493087
 20
1812.843049933456
 10
5205.005598493087
 20
1817.24304993345
 10
5185.005598493088
 20
1817.24304993345
 10
5185.005598493088
 20
1812.843049933456
  0
LWPOLYLINE
  5
21C
330
17
100
AcDbEntity
  8
Madeira
 62
126
370
18
100
AcDbPolyline
 90
4
 70
1
 10
5171.005598493099
 20
1900.843049933456
 10
5185.005598493098
 20
1900.843049933456
 10
5185.005598493088
 20
1812.843049933456
 10
5171.005598493088
 20
1812.843049933456
  0
LWPOLYLINE
  5
21D
330
17
100
AcDbEntity
  8
Painéis
 62
200
370
25
100
AcDbPolyline
 90
4
 70
1
 10
5129.005598493088
 20
1872.843049933434
 10
5129.005598493088
 20
1876.843049933435
 10
5073.405598493111
 20
1876.843049933427
 10
5073.405598493111
 20
1872.843049933427
  0
LWPOLYLINE
  5
21E
330
17
100
AcDbEntity
  8
CONCRETO
 62
251
370
25
100
AcDbPolyline
 90
8
 70
1
 10
5073.405598493111
 20
1876.843049933427
 10
5073.405598493111
 20
1900.843049933456
 10
5167.005598493097
 20
1900.843049933456
 10
5167.005598493097
 20
1872.843049933442
 10
5167.005598493087
 20
1872.843049933442
 10
5167.005598493029
 20
1820.843049933456
 10
5129.005598493088
 20
1820.843049933456
 10
5129.005598493088
 20
1876.843049933435
  0
LWPOLYLINE
  5
21F
330
17
100
AcDbEntity
  8
barrote
 62
251
370
25
100
AcDbPolyline
 90
4
 70
1
 10
5057.550400821194
 20
1792.8430499335
 10
5252.733341330888
 20
1792.8430499335
 10
5252.733341330888
 20
1812.843049933456
 10
5057.550400821194
 20
1812.843049933456
  0
LWPOLYLINE
  5
220
330
17
100
AcDbEntity
  8
SCO-___-LAJ
 62
1
370
0
100
AcDbPolyline
 90
4
 70
1
 10
5066.552668236655
 20
1811.50963660013
 10
5233.858528749515
 20
1811.509636600122
 10
5233.858528749515
 20
1808.309956600146
 10
5066.552668236655
 20
1808.309956600154
  0
LWPOLYLINE
  5
221
330
17
100
AcDbEntity
  8
Cotas
 62
1
370
25
100
AcDbPolyline
 90
4
 70
1
 10
6148.961319967111
 20
2139.468464150075
 10
6330.926121902896
 20
2139.468464150075
 10
6330.926121902896
 20
2038.032396041439
 10
6148.961319967111
 20
2038.032396041439
  0
LWPOLYLINE
  5
222
330
17
100
AcDbEntity
  8
Madeira
 62
126
370
18
100
AcDbPolyline
 90
4
 70
1
 10
6209.944254916941
 20
2088.469239135608
 10
6209.944254916941
 20
2102.469239135611
 10
6202.94425491694
 20
2102.469239135611
 10
6202.94425491694
 20
2088.469239135608
  0
LWPOLYLINE
  5
223
330
17
100
AcDbEntity
  8
Madeira
 62
126
370
18
100
AcDbPolyline
 90
3
 70
0
 10
6209.944254916941
 20
2102.469239135611
 10
6209.944254916941
 20
2088.469239135608
 10
6178.468185377052
 20
2088.469239135608
  0
LWPOLYLINE
  5
224
330
17
100
AcDbEntity
  8
Madeira
 62
126
370
18
100
AcDbPolyline
 90
4
 70
1
 10
6234.327678758939
 20
2102.469239135619
 10
6248.307041716522
 20
2102.469239135619
 10
6248.307041716522
 20
2101.069239135617
 10
6234.327678758939
 20
2101.069239135617
  0
LWPOLYLINE
  5
225
330
17
100
AcDbEntity
  8
COTA
 62
0
370
25
100
AcDbPolyline
 90
2
 70
0
 10
5255.656555764825
 20
2350.205791019545
 10
5250.656555764825
 20
2355.205791019545
  0
LWPOLYLINE
  5
226
330
17
100
AcDbEntity
  8
COTA
 62
0
370
25
100
AcDbPolyline
 90
2
 70
0
 10
5250.656555764825
 20
2331.205791019531
 10
5255.656555764825
 20
2326.205791019531
  0
LWPOLYLINE
  5
227
330
17
100
AcDbEntity
  8
COTA
 62
0
370
25
100
AcDbPolyline
 90
2
 70
0
 10
5027.808099917752
 20
2247.205791019553
 10
5032.808099917752
 20
2242.205791019553
  0
LWPOLYLINE
  5
228
330
17
100
AcDbEntity
  8
COTA
 62
0
370
25
100
AcDbPolyline
 90
2
 70
0
 10
5032.808099917752
 20
2350.205791019545
 10
5027.808099917752
 20
2355.205791019545
  0
LWPOLYLINE
  5
229
330
17
100
AcDbEntity
  8
COTA
 62
0
370
25
100
AcDbPolyline
 90
2
 70
0
 10
5250.656555765253
 20
2247.205791019553
 10
5255.656555765253
 20
2242.205791019553
  0
LWPOLYLINE
  5
22A
330
17
100
AcDbEntity
  8
COTA
 62
0
370
25
100
AcDbPolyline
 90
2
 70
0
 10
5255.656555765253
 20
2322.205791019531
 10
5250.656555765253
 20
2327.205791019531
  0
LWPOLYLINE
  5
22B
330
17
100
AcDbEntity
  8
COTA
 62
0
370
25
100
AcDbPolyline
 90
2
 70
0
 10
5052.127528403206
 20
2350.205791019545
 10
5047.127528403206
 20
2355.205791019545
  0
LWPOLYLINE
  5
22C
330
17
100
AcDbEntity
  8
COTA
 62
0
370
25
100
AcDbPolyline
 90
2
 70
0
 10
5047.127528403206
 20
2331.205791019524
 10
5052.127528403206
 20
2326.205791019524
  0
LWPOLYLINE
  5
22D
330
17
100
AcDbEntity
  8
COTA
 62
0
370
25
100
AcDbPolyline
 90
2
 70
0
 10
5052.127528403545
 20
2322.205791019523
 10
5047.127528403545
 20
2327.205791019523
  0
LWPOLYLINE
  5
22E
330
17
100
AcDbEntity
  8
COTA
 62
0
370
25
100
AcDbPolyline
 90
2
 70
0
 10
5047.127528403545
 20
2247.205791019553
 10
5052.127528403545
 20
2242.205791019553
  0
LWPOLYLINE
  5
22F
330
17
100
AcDbEntity
  8
COTA
 62
0
370
25
100
AcDbPolyline
 90
2
 70
0
 10
5140.784823006914
 20
2202.478977217362
 10
5135.784823006914
 20
2197.478977217362
  0
LWPOLYLINE
  5
230
330
17
100
AcDbEntity
  8
COTA
 62
0
370
25
100
AcDbPolyline
 90
2
 70
0
 10
5173.784823006914
 20
2197.478977217362
 10
5178.784823006914
 20
2202.478977217362
  0
LWPOLYLINE
  5
231
330
17
100
AcDbEntity
  8
COTA
 62
0
370
25
100
AcDbPolyline
 90
2
 70
0
 10
5068.9269155595
 20
2272.175848547844
 10
5063.9269155595
 20
2277.175848547844
  0
LWPOLYLINE
  5
232
330
17
100
AcDbEntity
  8
COTA
 62
0
370
25
100
AcDbPolyline
 90
2
 70
0
 10
5063.9269155595
 20
2247.205791019582
 10
5068.9269155595
 20
2242.205791019582
  0
LWPOLYLINE
  5
233
330
17
100
AcDbEntity
  8
COTA
 62
0
370
25
100
AcDbPolyline
 90
2
 70
0
 10
5018.528875403924
 20
1815.343049933457
 10
5023.528875403924
 20
1810.343049933457
  0
LWPOLYLINE
  5
234
330
17
100
AcDbEntity
  8
COTA
 62
0
370
25
100
AcDbPolyline
 90
2
 70
0
 10
5023.528875403924
 20
1898.34304993345
 10
5018.528875403924
 20
1903.34304993345
  0
LWPOLYLINE
  5
235
330
17
100
AcDbEntity
  8
COTA
 62
0
370
25
100
AcDbPolyline
 90
2
 70
0
 10
5241.377331251428
 20
1815.343049933457
 10
5246.377331251428
 20
1810.343049933457
  0
LWPOLYLINE
  5
236
330
17
100
AcDbEntity
  8
COTA
 62
0
370
25
100
AcDbPolyline
 90
2
 70
0
 10
5246.377331251428
 20
1898.343049933457
 10
5241.377331251428
 20
1903.343049933457
  0
LWPOLYLINE
  5
237
330
17
100
AcDbEntity
  8
COTA
 62
0
370
25
100
AcDbPolyline
 90
2
 70
0
 10
5042.848303889387
 20
1898.34304993345
 10
5037.848303889387
 20
1903.34304993345
  0
LWPOLYLINE
  5
238
330
17
100
AcDbEntity
  8
COTA
 62
0
370
25
100
AcDbPolyline
 90
2
 70
0
 10
5037.848303889387
 20
1879.343049933428
 10
5042.848303889387
 20
1874.343049933428
  0
LWPOLYLINE
  5
239
330
17
100
AcDbEntity
  8
COTA
 62
0
370
25
100
AcDbPolyline
 90
2
 70
0
 10
5042.848303889719
 20
1870.343049933428
 10
5037.848303889719
 20
1875.343049933428
  0
LWPOLYLINE
  5
23A
330
17
100
AcDbEntity
  8
COTA
 62
0
370
25
100
AcDbPolyline
 90
2
 70
0
 10
5037.848303889719
 20
1815.343049933457
 10
5042.848303889719
 20
1810.343049933457
  0
LWPOLYLINE
  5
23B
330
17
100
AcDbEntity
  8
COTA
 62
0
370
25
100
AcDbPolyline
 90
2
 70
0
 10
5131.505598493088
 20
1770.616236131266
 10
5126.505598493088
 20
1765.616236131266
  0
LWPOLYLINE
  5
23C
330
17
100
AcDbEntity
  8
COTA
 62
0
370
25
100
AcDbPolyline
 90
2
 70
0
 10
5164.505598493087
 20
1765.616236131266
 10
5169.505598493087
 20
1770.616236131266
  0
LWPOLYLINE
  5
23D
330
17
100
AcDbEntity
  8
COTA
 62
0
370
25
100
AcDbPolyline
 90
2
 70
0
 10
5059.647691045669
 20
1840.313107461748
 10
5054.647691045669
 20
1845.313107461748
  0
LWPOLYLINE
  5
23E
330
17
100
AcDbEntity
  8
COTA
 62
0
370
25
100
AcDbPolyline
 90
2
 70
0
 10
5054.647691045669
 20
1815.343049933457
 10
5059.647691045669
 20
1810.343049933457
  0
LWPOLYLINE
  5
23F
330
17
100
AcDbEntity
  8
COTA
 62
0
370
25
100
AcDbPolyline
 90
2
 70
0
 10
6277.148502827979
 20
2108.069239135611
 10
6281.148502827979
 20
2104.069239135611
  0
LWPOLYLINE
  5
240
330
17
100
AcDbEntity
  8
COTA
 62
0
370
25
100
AcDbPolyline
 90
2
 70
0
 10
6281.148502827979
 20
2099.069239135618
 10
6277.148502827979
 20
2103.069239135618
  0
TEXT
  5
241
330
17
100
AcDbEntity
  8
detalhes
 62
4
370
25
100
AcDbText
 10
5184.999306182952
 20
2262.895462548834
 30
0.0
 40
9.600000000000001
  1
b
100
AcDbText
  0
TEXT
  5
242
330
17
100
AcDbEntity
  8
detalhes
 62
4
370
25
100
AcDbText
 10
5122.455647537215
 20
2262.90651999441
 30
0.0
 40
9.600000000000001
  1
a
100
AcDbText
  0
TEXT
  5
243
330
17
100
AcDbEntity
  8
detalhes
 62
4
370
25
100
AcDbText
 10
5148.885088622359
 20
2254.941544539391
 30
0.0
 40
9.600000000000001
  1
c
100
AcDbText
  0
TEXT
  5
244
330
17
100
AcDbEntity
  8
Texto Seção
 62
7
370
15
100
AcDbText
 10
5556.156355658211
 20
2425.154211780045
 30
0.0
 40
13.0
  1
VD11.A
100
AcDbText
  0
TEXT
  5
245
330
17
100
AcDbEntity
  8
5
 62
5
370
25
100
AcDbText
 10
5939.277757672899
 20
2283.204245341764
 30
0.0
 40
12.0
  1
PAR1
 50
3.55024762388e-05
100
AcDbText
  0
TEXT
  5
246
330
17
100
AcDbEntity
  8
texto
 62
2
370
25
100
AcDbText
 10
5725.14152751436
 20
2384.542254628689
 30
0.0
 40
8.0
  1
5 1/2pont
100
AcDbText
  0
TEXT
  5
247
330
17
100
AcDbEntity
  8
texto
 62
2
370
25
100
AcDbText
 10
5881.259338901422
 20
2384.542254628689
 30
0.0
 40
8.0
  1
7 1/2pont
100
AcDbText
  0
TEXT
  5
248
330
17
100
AcDbEntity
  8
5
 62
5
370
25
100
AcDbText
 10
5551.424329572335
 20
2283.595483126523
 30
0.0
 40
12.0
  1
VD12
 50
3.55024762388e-05
100
AcDbText
  0
TEXT
  5
249
330
17
100
AcDbEntity
  8
5
 62
5
370
25
100
AcDbText
 10
5635.572921003455
 20
2283.595483126523
 30
0.0
 40
12.0
  1
PD1
 50
3.55024762388e-05
100
AcDbText
  0
TEXT
  5
24A
330
17
100
AcDbEntity
  8
texto
 62
2
370
25
100
AcDbText
 10
5620.240402798117
 20
2186.112701161133
 30
0.0
 40
8.0
  1
5 1/2pont
100
AcDbText
  0
TEXT
  5
24B
330
17
100
AcDbEntity
  8
texto
 62
2
370
25
100
AcDbText
 10
5724.42934149906
 20
2186.112701161133
 30
0.0
 40
8.0
  1
5 1/2pont
100
AcDbText
  0
TEXT
  5
24C
330
17
100
AcDbEntity
  8
5
 62
5
370
25
100
AcDbText
 10
5557.507370827582
 20
2085.165929658967
 30
0.0
 40
12.0
  1
PD1
 50
3.55024762388e-05
100
AcDbText
  0
TEXT
  5
24D
330
17
100
AcDbEntity
  8
Texto Seção
 62
7
370
15
100
AcDbText
 10
5554.644520398068
 20
2226.609861687188
 30
0.0
 40
13.0
  1
VD11.B
100
AcDbText
  0
TEXT
  5
24E
330
17
100
AcDbEntity
  8
5
 62
5
370
25
100
AcDbText
 10
5783.431878031166
 20
2083.272156215239
 30
0.0
 40
12.0
  1
P10
 50
3.55024762388e-05
100
AcDbText
  0
TEXT
  5
24F
330
17
100
AcDbEntity
  8
5
 62
5
370
25
100
AcDbText
 10
5942.500805576462
 20
2083.272156215239
 30
0.0
 40
12.0
  1
P10
 50
3.55024762388e-05
100
AcDbText
  0
TEXT
  5
250
330
17
100
AcDbEntity
  8
Texto Seção
 62
7
370
15
100
AcDbText
 10
5330.027766173188
 20
1942.48327429789
 30
0.0
 40
13.0
  1
VD12.A
100
AcDbText
  0
TEXT
  5
251
330
17
100
AcDbEntity
  8
5
 62
5
370
25
100
AcDbText
 10
5328.069630628473
 20
1801.203303667774
 30
0.0
 40
12.0
  1
VD1
 50
3.55024762388e-05
100
AcDbText
  0
TEXT
  5
252
330
17
100
AcDbEntity
  8
5
 62
5
370
25
100
AcDbText
 10
5522.816140153282
 20
1803.248558053404
 30
0.0
 40
12.0
  1
VD2
 50
3.55024762388e-05
100
AcDbText
  0
TEXT
  5
253
330
17
100
AcDbEntity
  8
texto
 62
2
370
25
100
AcDbText
 10
5390.312927591097
 20
1901.871317146532
 30
0.0
 40
8.0
  1
5 1/2pont
100
AcDbText
  0
TEXT
  5
254
330
17
100
AcDbEntity
  8
texto
 62
2
370
25
100
AcDbText
 10
5489.421933190561
 20
1901.871317146532
 30
0.0
 40
8.0
  1
4 1/2pont
100
AcDbText
  0
TEXT
  5
255
330
17
100
AcDbEntity
  8
detalhes
 62
4
370
25
100
AcDbText
 10
5175.720081669126
 20
1831.032721462739
 30
0.0
 40
9.600000000000001
  1
b
100
AcDbText
  0
TEXT
  5
256
330
17
100
AcDbEntity
  8
detalhes
 62
4
370
25
100
AcDbText
 10
5113.176423023389
 20
1831.043778908314
 30
0.0
 40
9.600000000000001
  1
a
100
AcDbText
  0
TEXT
  5
257
330
17
100
AcDbEntity
  8
detalhes
 62
4
370
25
100
AcDbText
 10
5139.605864108533
 20
1823.078803453295
 30
0.0
 40
9.600000000000001
  1
c
100
AcDbText
  0
TEXT
  5
258
330
17
100
AcDbEntity
  8
Texto Seção
 62
7
370
15
100
AcDbText
 10
5662.245064589235
 20
1939.975384668297
 30
0.0
 40
13.0
  1
VD12.B
100
AcDbText
  0
TEXT
  5
259
330
17
100
AcDbEntity
  8
5
 62
5
370
25
100
AcDbText
 10
5667.305119511777
 20
1806.679078419172
 30
0.0
 40
12.0
  1
VD2
 50
3.55024762388e-05
100
AcDbText
  0
TEXT
  5
25A
330
17
100
AcDbEntity
  8
5
 62
5
370
25
100
AcDbText
 10
5878.940143122274
 20
1805.199486881599
 30
0.0
 40
12.0
  1
VD1
 50
3.55024762388e-05
100
AcDbText
  0
TEXT
  5
25B
330
17
100
AcDbEntity
  8
texto
 62
2
370
25
100
AcDbText
 10
5729.548416474401
 20
1907.34709189793
 30
0.0
 40
8.0
  1
5 1/2pont
100
AcDbText
  0
TEXT
  5
25C
330
17
100
AcDbEntity
  8
texto
 62
2
370
25
100
AcDbText
 10
5841.281058585521
 20
1907.34709189793
 30
0.0
 40
8.0
  1
4 1/2pont
100
AcDbText
  0
TEXT
  5
25D
330
17
100
AcDbEntity
  8
TEXTO PILAR
 62
3
370
15
100
AcDbText
 10
6237.586960185799
 20
2126.724937091818
 30
0.0
 40
12.0
  1
CORTE A - A
100
AcDbText
  0
TEXT
  5
25E
330
17
100
AcDbEntity
  8
detalhes
 62
4
370
25
100
AcDbText
 10
5544.861347420198
 20
2170.436529197192
 30
0.0
 40
9.600000000000001
  1
a
100
AcDbText
  0
TEXT
  5
25F
330
17
100
AcDbEntity
  8
detalhes
 62
4
370
25
100
AcDbText
 10
5577.637194197899
 20
2170.436529197192
 30
0.0
 40
9.600000000000001
  1
a
100
AcDbText
  0
TEXT
  5
260
330
17
100
AcDbEntity
  8
texto
 62
2
370
25
100
AcDbText
 10
5871.393539269977
 20
2186.112701161133
 30
0.0
 40
8.0
  1
5 1/2pont
100
AcDbText
  0
TEXT
  5
261
330
17
100
AcDbEntity
  8
COTA
 62
1
370
25
100
AcDbText
 10
5261.656555764826
 20
2340.705791019536
 30
0.0
 40
7.0
  1
12
 50
90.0
100
AcDbText
  0
TEXT
  5
262
330
17
100
AcDbEntity
  8
COTA
 62
1
370
25
100
AcDbText
 10
5038.808099917752
 20
2298.705791019547
 30
0.0
 40
7.0
  1
54
 50
90.0
100
AcDbText
  0
TEXT
  5
263
330
17
100
AcDbEntity
  8
COTA
 62
1
370
25
100
AcDbText
 10
5261.656555765253
 20
2284.70579101954
 30
0.0
 40
7.0
  1
40
 50
90.0
100
AcDbText
  0
TEXT
  5
264
330
17
100
AcDbEntity
  8
Cota Seção (2x)
 62
1
370
25
100
AcDbText
 10
5178.284823008573
 20
2312.705791019515
 30
0.0
 40
7.0
  1
50
 50
90.0
100
AcDbText
  0
TEXT
  5
265
330
17
100
AcDbEntity
  8
COTA
 62
1
370
25
100
AcDbText
 10
5058.127528403206
 20
2340.705791019533
 30
0.0
 40
7.0
  1
12
 50
90.0
100
AcDbText
  0
TEXT
  5
266
330
17
100
AcDbEntity
  8
COTA
 62
1
370
25
100
AcDbText
 10
5058.127528403545
 20
2284.705791019536
 30
0.0
 40
7.0
  1
40
 50
90.0
100
AcDbText
  0
TEXT
  5
267
330
17
100
AcDbEntity
  8
COTA
 62
1
370
25
100
AcDbText
 10
5157.284823006914
 20
2205.478977217362
 30
0.0
 40
7.0
  1
19
100
AcDbText
  0
TEXT
  5
268
330
17
100
AcDbEntity
  8
COTA
 62
1
370
25
100
AcDbText
 10
5074.926915559499
 20
2259.690819783711
 30
0.0
 40
7.0
  1
15
 50
90.0
100
AcDbText
  0
TEXT
  5
269
330
17
100
AcDbEntity
  8
Cota Seção (2x)
 62
1
370
25
100
AcDbText
 10
5147.284823006884
 20
2272.205791019552
 30
0.0
 40
7.0
  1
19
100
AcDbText
  0
TEXT
  5
26A
330
17
100
AcDbEntity
  8
COTA
 62
240
370
25
100
AcDbText
 10
5722.856366096483
 20
2339.489437804052
 30
0.0
 40
10.0
  1
122
100
AcDbText
  0
TEXT
  5
26B
330
17
100
AcDbEntity
  8
COTA
 62
240
370
25
100
AcDbText
 10
5882.356366096487
 20
2339.533297453175
 30
0.0
 40
10.0
  1
197
100
AcDbText
  0
TEXT
  5
26C
330
17
100
AcDbEntity
  8
COTA
 62
240
370
25
100
AcDbText
 10
5821.356366096483
 20
2310.134260921433
 30
0.0
 40
10.0
  1
319
100
AcDbText
  0
TEXT
  5
26D
330
17
100
AcDbEntity
  8
COTA
 62
240
370
25
100
AcDbText
 10
6018.939662797721
 20
2381.967836359067
 30
0.0
 40
10.0
  1
40
 50
90.0
100
AcDbText
  0
TEXT
  5
26E
330
17
100
AcDbEntity
  8
COTA
 62
240
370
25
100
AcDbText
 10
6018.9689025638
 20
2427.026315891231
 30
0.0
 40
10.0
  1
14
 50
90.0
100
AcDbText
  0
TEXT
  5
26F
330
17
100
AcDbEntity
  8
COTA
 62
240
370
25
100
AcDbText
 10
6040.251017917804
 20
2388.967836359067
 30
0.0
 40
10.0
  1
54
 50
90.0
100
AcDbText
  0
TEXT
  5
270
330
17
100
AcDbEntity
  8
COTA
 62
240
370
25
100
AcDbText
 10
5598.532656560882
 20
2310.149940099063
 30
0.0
 40
10.0
  1
75.5
100
AcDbText
  0
TEXT
  5
271
330
17
100
AcDbEntity
  8
COTA
 62
240
370
25
100
AcDbText
 10
5556.345973819118
 20
2381.967836359067
 30
0.0
 40
10.0
  1
40
 50
90.0
100
AcDbText
  0
TEXT
  5
272
330
17
100
AcDbEntity
  8
COTA
 62
240
370
25
100
AcDbText
 10
5556.375213585204
 20
2427.026315891231
 30
0.0
 40
10.0
  1
14
 50
90.0
100
AcDbText
  0
TEXT
  5
273
330
17
100
AcDbEntity
  8
COTA
 62
240
370
25
100
AcDbText
 10
5535.130113642765
 20
2388.967836359067
 30
0.0
 40
10.0
  1
54
 50
90.0
100
AcDbText
  0
TEXT
  5
274
330
17
100
AcDbEntity
  8
COTA
 62
240
370
25
100
AcDbText
 10
5617.955241380241
 20
2141.059884336497
 30
0.0
 40
10.0
  1
122
100
AcDbText
  0
TEXT
  5
275
330
17
100
AcDbEntity
  8
COTA
 62
240
370
25
100
AcDbText
 10
5732.955241380245
 20
2141.125673810181
 30
0.0
 40
10.0
  1
108
100
AcDbText
  0
TEXT
  5
276
330
17
100
AcDbEntity
  8
COTA
 62
240
370
25
100
AcDbText
 10
5671.955241380241
 20
2111.675467687796
 30
0.0
 40
10.0
  1
230
100
AcDbText
  0
TEXT
  5
277
330
17
100
AcDbEntity
  8
COTA
 62
240
370
25
100
AcDbText
 10
5886.568745267943
 20
2110.065818564989
 30
0.0
 40
10.0
  1
156.5
100
AcDbText
  0
TEXT
  5
278
330
17
100
AcDbEntity
  8
COTA
 62
240
370
25
100
AcDbText
 10
5951.318745267947
 20
2241.71165064987
 30
0.0
 40
10.0
  1
27
100
AcDbText
  0
TEXT
  5
279
330
17
100
AcDbEntity
  8
COTA
 62
240
370
25
100
AcDbText
 10
5930.408035040887
 20
2188.42348626621
 30
0.0
 40
10.0
  1
30
 50
90.0
100
AcDbText
  0
TEXT
  5
27A
330
17
100
AcDbEntity
  8
COTA
 62
240
370
25
100
AcDbText
 10
6003.562708365214
 20
2183.423486266205
 30
0.0
 40
10.0
  1
40
 50
90.0
100
AcDbText
  0
TEXT
  5
27B
330
17
100
AcDbEntity
  8
COTA
 62
240
370
25
100
AcDbText
 10
6003.591948131301
 20
2228.481965798374
 30
0.0
 40
10.0
  1
14
 50
90.0
100
AcDbText
  0
TEXT
  5
27C
330
17
100
AcDbEntity
  8
COTA
 62
240
370
25
100
AcDbText
 10
6024.473021142333
 20
2190.42348626621
 30
0.0
 40
10.0
  1
54
 50
90.0
100
AcDbText
  0
TEXT
  5
27D
330
17
100
AcDbEntity
  8
COTA
 62
240
370
25
100
AcDbText
 10
5979.943205082957
 20
2152.927429053689
 30
0.0
 40
10.0
  1
7
100
AcDbText
  0
TEXT
  5
27E
330
17
100
AcDbEntity
  8
COTA
 62
240
370
25
100
AcDbText
 10
5388.02776617322
 20
1856.818500321897
 30
0.0
 40
10.0
  1
122
100
AcDbText
  0
TEXT
  5
27F
330
17
100
AcDbEntity
  8
COTA
 62
240
370
25
100
AcDbText
 10
5500.777766173222
 20
1856.979319035347
 30
0.0
 40
10.0
  1
103.5
100
AcDbText
  0
TEXT
  5
280
330
17
100
AcDbEntity
  8
COTA
 62
240
370
25
100
AcDbText
 10
5439.77776617322
 20
1827.324434550389
 30
0.0
 40
10.0
  1
225.5
100
AcDbText
  0
TEXT
  5
281
330
17
100
AcDbEntity
  8
COTA
 62
1
370
25
100
AcDbText
 10
5029.528875403924
 20
1856.843049933452
 30
0.0
 40
7.0
  1
44
 50
90.0
100
AcDbText
  0
TEXT
  5
282
330
17
100
AcDbEntity
  8
COTA
 62
1
370
25
100
AcDbText
 10
5252.377331251427
 20
1856.843049933455
 30
0.0
 40
7.0
  1
44
 50
90.0
100
AcDbText
  0
TEXT
  5
283
330
17
100
AcDbEntity
  8
Cota Seção (2x)
 62
1
370
25
100
AcDbText
 10
5169.005598494747
 20
1860.84304993342
 30
0.0
 40
7.0
  1
40
 50
90.0
100
AcDbText
  0
TEXT
  5
284
330
17
100
AcDbEntity
  8
COTA
 62
1
370
25
100
AcDbText
 10
5048.848303889385
 20
1888.843049933437
 30
0.0
 40
7.0
  1
12
 50
90.0
100
AcDbText
  0
TEXT
  5
285
330
17
100
AcDbEntity
  8
COTA
 62
1
370
25
100
AcDbText
 10
5048.848303889718
 20
1842.84304993344
 30
0.0
 40
7.0
  1
30
 50
90.0
100
AcDbText
  0
TEXT
  5
286
330
17
100
AcDbEntity
  8
COTA
 62
1
370
25
100
AcDbText
 10
5148.005598493088
 20
1773.616236131266
 30
0.0
 40
7.0
  1
19
100
AcDbText
  0
TEXT
  5
287
330
17
100
AcDbEntity
  8
COTA
 62
1
370
25
100
AcDbText
 10
5065.647691045667
 20
1827.828078697601
 30
0.0
 40
7.0
  1
15
 50
90.0
100
AcDbText
  0
TEXT
  5
288
330
17
100
AcDbEntity
  8
Cota Seção (2x)
 62
1
370
25
100
AcDbText
 10
5148.005598493059
 20
1840.343049933456
 30
0.0
 40
7.0
  1
19
100
AcDbText
  0
TEXT
  5
289
330
17
100
AcDbEntity
  8
COTA
 62
240
370
25
100
AcDbText
 10
5590.494103810109
 20
1904.296898876911
 30
0.0
 40
10.0
  1
30
 50
90.0
100
AcDbText
  0
TEXT
  5
28A
330
17
100
AcDbEntity
  8
COTA
 62
240
370
25
100
AcDbText
 10
5590.640302640518
 20
1944.355378409075
 30
0.0
 40
10.0
  1
14
 50
90.0
100
AcDbText
  0
TEXT
  5
28B
330
17
100
AcDbEntity
  8
COTA
 62
240
370
25
100
AcDbText
 10
5611.958967702122
 20
1911.296898876911
 30
0.0
 40
10.0
  1
44
 50
90.0
100
AcDbText
  0
TEXT
  5
28C
330
17
100
AcDbEntity
  8
COTA
 62
240
370
25
100
AcDbText
 10
5727.263255056524
 20
1856.296125235101
 30
0.0
 40
10.0
  1
122
100
AcDbText
  0
TEXT
  5
28D
330
17
100
AcDbEntity
  8
COTA
 62
240
370
25
100
AcDbText
 10
5849.513255056526
 20
1856.347294825745
 30
0.0
 40
10.0
  1
122.5
100
AcDbText
  0
TEXT
  5
28E
330
17
100
AcDbEntity
  8
COTA
 62
240
370
25
100
AcDbText
 10
5788.513255056524
 20
1832.800209301786
 30
0.0
 40
10.0
  1
244.5
100
AcDbText
  0
TEXT
  5
28F
330
17
100
AcDbEntity
  8
COTA
 62
240
370
25
100
AcDbText
 10
5936.563489925461
 20
1907.772673628309
 30
0.0
 40
10.0
  1
54
 50
90.0
100
AcDbText
  0
TEXT
  5
290
330
17
100
AcDbEntity
  8
COTA
 62
240
370
25
100
AcDbText
 10
6289.648502827978
 20
2080.640667707044
 30
0.0
 40
9.0
  1
2.5
 50
90.0
100
AcDbText
  0
TEXT
  5
291
330
17
100
AcDbEntity
  8
COTA
 62
240
370
25
100
AcDbText
 10
5551.917159484855
 20
2350.835492425202
 30
0.0
 40
10.0
  1
7
100
AcDbText
  0
TEXT
  5
292
330
17
100
AcDbEntity
  8
COTA
 62
240
370
25
100
AcDbText
 10
5583.282656560879
 20
2337.091674212503
 30
0.0
 40
10.0
  1
45
100
AcDbText
  0
TEXT
  5
293
330
17
100
AcDbEntity
  8
COTA
 62
240
370
25
100
AcDbText
 10
5901.263255056527
 20
1873.099187524907
 30
0.0
 40
10.0
  1
19
100
AcDbText
  0
TEXT
  5
294
330
17
100
AcDbEntity
  8
COTA
 62
240
370
25
100
AcDbText
 10
5893.817400744223
 20
1885.772673628309
 30
0.0
 40
10.0
  1
10
 50
90.0
100
AcDbText
  0
TEXT
  5
295
330
17
100
AcDbEntity
  8
Texto Seção
 62
3
370
15
100
AcDbText
 10
5159.484823006911
 20
2424.1545553925257
 30
0.0
 40
17.0
  1

100
AcDbText
  0
TEXT
  5
296
330
17
100
AcDbEntity
  8
Texto Seção
 62
3
370
15
100
AcDbText
 10
5159.484823006911
 20
2394.253970748204
 30
0.0
 40
12.0
  1

100
AcDbText
  0
TEXT
  5
297
330
17
100
AcDbEntity
  8
Texto Seção
 62
7
370
15
100
AcDbText
 10
5159.484823006911
 20
2368.282541859718
 30
0.0
 40
10.0
  1

100
AcDbText
  0
HATCH
  5
298
330
17
100
AcDbEntity
  8
Hachura
 62
7
100
AcDbHatch
 10
0.0
 20
0.0
 30
0.0
210
0.0
220
0.0
230
1.0
  2
SOLID
 70
1
 71
0
 91
1
 92
3
 72
0
 73
1
 93
5
 10
5138.284823006916
 20
2324.705791019532
 10
5134.284823006916
 20
2324.705791019528
 10
5134.284823006914
 20
2244.705791019552
 10
5138.284823006914
 20
2244.705791019552
 10
5138.284823006916
 20
2324.705791019532
 97
0
 75
1
 76
1
 98
0
  0
HATCH
  5
299
330
17
100
AcDbEntity
  8
Hachura
 62
7
100
AcDbHatch
 10
0.0
 20
0.0
 30
0.0
210
0.0
220
0.0
230
1.0
  2
ANSI31
 70
0
 71
0
 91
1
 92
3
 72
0
 73
1
 93
5
 10
5134.284823006914
 20
2320.305791019528
 10
5134.284823006914
 20
2324.70579101953
 10
5120.284823006914
 20
2324.70579101953
 10
5120.284823006914
 20
2320.305791019528
 10
5134.284823006914
 20
2320.305791019528
 97
0
 75
1
 76
1
 52
0.0
 41
1.0
 77
0
 78
1
 53
45.0
 43
0.0
 44
0.0
 45
-2.2450640303
 46
2.2450640303
 79
0
 98
0
  0
HATCH
  5
29A
330
17
100
AcDbEntity
  8
Hachura
 62
7
100
AcDbHatch
 10
0.0
 20
0.0
 30
0.0
210
0.0
220
0.0
230
1.0
  2
ANSI31
 70
0
 71
0
 91
1
 92
3
 72
0
 73
1
 93
5
 10
5100.284823006914
 20
2244.705791019552
 10
5100.284823006914
 20
2249.105791019546
 10
5120.284823006914
 20
2249.105791019546
 10
5120.284823006914
 20
2244.705791019552
 10
5100.284823006914
 20
2244.705791019552
 97
0
 75
1
 76
1
 52
0.0
 41
1.0
 77
0
 78
1
 53
45.0
 43
0.0
 44
0.0
 45
-2.2450640303
 46
2.2450640303
 79
0
 98
0
  0
HATCH
  5
29B
330
17
100
AcDbEntity
  8
Hachura
 62
7
100
AcDbHatch
 10
0.0
 20
0.0
 30
0.0
210
0.0
220
0.0
230
1.0
  2
ANSI31
 70
0
 71
0
 91
1
 92
3
 72
0
 73
1
 93
5
 10
5176.284823006914
 20
2244.705791019552
 10
5176.284823006914
 20
2249.105791019546
 10
5162.284823006913
 20
2249.105791019546
 10
5162.284823006913
 20
2244.705791019552
 10
5176.284823006914
 20
2244.705791019552
 97
0
 75
1
 76
1
 52
0.0
 41
1.0
 77
0
 78
1
 53
45.0
 43
0.0
 44
0.0
 45
-2.2450640303
 46
2.2450640303
 79
0
 98
0
  0
HATCH
  5
29C
330
17
100
AcDbEntity
  8
Hachura
 62
7
100
AcDbHatch
 10
0.0
 20
0.0
 30
0.0
210
0.0
220
0.0
230
1.0
  2
SOLID
 70
1
 71
0
 91
1
 92
3
 72
0
 73
1
 93
5
 10
5176.284823006914
 20
2249.105791019546
 10
5176.284823006914
 20
2252.705791019552
 10
5138.284823006914
 20
2252.705791019552
 10
5138.284823006914
 20
2249.105791019546
 10
5176.284823006914
 20
2249.105791019546
 97
0
 75
1
 76
1
 98
0
  0
HATCH
  5
29D
330
17
100
AcDbEntity
  8
Hachura
 62
7
100
AcDbHatch
 10
0.0
 20
0.0
 30
0.0
210
0.0
220
0.0
230
1.0
  2
ANSI31
 70
0
 71
0
 91
1
 92
3
 72
0
 73
1
 93
5
 10
5138.284823006914
 20
2244.705791019552
 10
5138.284823006914
 20
2249.105791019546
 10
5152.284823006914
 20
2249.105791019546
 10
5152.284823006914
 20
2244.705791019552
 10
5138.284823006914
 20
2244.705791019552
 97
0
 75
1
 76
1
 52
0.0
 41
1.0
 77
0
 78
1
 53
45.0
 43
0.0
 44
0.0
 45
-2.2450640303
 46
2.2450640303
 79
0
 98
0
  0
HATCH
  5
29E
330
17
100
AcDbEntity
  8
Hachura
 62
7
100
AcDbHatch
 10
0.0
 20
0.0
 30
0.0
210
0.0
220
0.0
230
1.0
  2
SOLID
 70
1
 71
0
 91
1
 92
3
 72
0
 73
1
 93
5
 10
5180.284823006914
 20
2324.70579101953
 10
5176.284823006914
 20
2324.70579101953
 10
5176.284823006914
 20
2244.705791019552
 10
5180.284823006914
 20
2244.705791019552
 10
5180.284823006914
 20
2324.70579101953
 97
0
 75
1
 76
1
 98
0
  0
HATCH
  5
29F
330
17
100
AcDbEntity
  8
Hachura
 62
7
100
AcDbHatch
 10
0.0
 20
0.0
 30
0.0
210
0.0
220
0.0
230
1.0
  2
SOLID
 70
1
 71
0
 91
1
 92
3
 72
0
 73
1
 93
5
 10
5236.284823006885
 20
2324.70579101953
 10
5236.284823006885
 20
2328.70579101953
 10
5176.284823006914
 20
2328.70579101953
 10
5176.284823006914
 20
2324.70579101953
 10
5236.284823006885
 20
2324.70579101953
 97
0
 75
1
 76
1
 98
0
  0
HATCH
  5
2A0
330
17
100
AcDbEntity
  8
Hachura
 62
7
100
AcDbHatch
 10
0.0
 20
0.0
 30
0.0
210
0.0
220
0.0
230
1.0
  2
ANSI31
 70
0
 71
0
 91
1
 92
3
 72
0
 73
1
 93
5
 10
5180.284823006914
 20
2320.305791019528
 10
5180.284823006914
 20
2324.70579101953
 10
5194.284823006913
 20
2324.70579101953
 10
5194.284823006913
 20
2320.305791019528
 10
5180.284823006914
 20
2320.305791019528
 97
0
 75
1
 76
1
 52
0.0
 41
1.0
 77
0
 78
1
 53
45.0
 43
0.0
 44
0.0
 45
-2.2450640303
 46
2.2450640303
 79
0
 98
0
  0
HATCH
  5
2A1
330
17
100
AcDbEntity
  8
Hachura
 62
7
100
AcDbHatch
 10
0.0
 20
0.0
 30
0.0
210
0.0
220
0.0
230
1.0
  2
ANSI31
 70
0
 71
0
 91
1
 92
3
 72
0
 73
1
 93
5
 10
5214.284823006914
 20
2244.705791019552
 10
5214.284823006914
 20
2249.105791019546
 10
5194.284823006913
 20
2249.105791019546
 10
5194.284823006913
 20
2244.705791019552
 10
5214.284823006914
 20
2244.705791019552
 97
0
 75
1
 76
1
 52
0.0
 41
1.0
 77
0
 78
1
 53
45.0
 43
0.0
 44
0.0
 45
-2.2450640303
 46
2.2450640303
 79
0
 98
0
  0
HATCH
  5
2A2
330
17
100
AcDbEntity
  8
Hachura
 62
7
100
AcDbHatch
 10
0.0
 20
0.0
 30
0.0
210
0.0
220
0.0
230
1.0
  2
SOLID
 70
1
 71
0
 91
1
 92
3
 72
0
 73
1
 93
5
 10
5138.284823006914
 20
2324.70579101953
 10
5138.284823006914
 20
2328.70579101953
 10
5082.684823006937
 20
2328.705791019523
 10
5082.684823006937
 20
2324.705791019523
 10
5138.284823006914
 20
2324.70579101953
 97
0
 75
1
 76
1
 98
0
  0
HATCH
  5
2A3
330
17
100
AcDbEntity
  8
COTA
 62
7
100
AcDbHatch
 10
0.0
 20
0.0
 30
0.0
210
0.0
220
0.0
230
1.0
  2
AR-CONC
 70
0
 71
0
 91
1
 92
3
 72
0
 73
1
 93
5
 10
5980.856366096486
 20
2401.967836359069
 10
5980.856366096486
 20
2415.967836359068
 10
5661.856366096479
 20
2415.967836359068
 10
5661.856366096479
 20
2401.967836359069
 10
5980.856366096486
 20
2401.967836359069
 97
0
 75
1
 76
1
 52
0.0
 41
1.0
 77
0
 78
13
 53
50.0
 43
0.0
 44
0.0
 45
182.184668996
 46
-15.9390855389
 79
2
 49
19.05
 49
-209.55
 53
355.0
 43
0.0
 44
0.0
 45
-35.243421425
 46
191.056845239
 79
2
 49
15.24
 49
-167.64058417
 53
100.4514447
 43
15.182007
 44
-1.3282535
 45
146.9412470904
 46
175.1177519122
 79
2
 49
16.1900088
 49
-178.0902446
 53
46.1842
 43
0.0
 44
50.8
 45
271.0790408921
 46
-42.0423279327
 79
2
 49
28.575
 49
-314.325
 53
96.63555761
 43
22.5899
 44
47.2965
 45
237.4041340515
 46
247.4261245977
 79
2
 49
24.28502314
 49
-267.13560816
 53
351.18415117
 43
0.0
 44
50.8
 45
237.404134065
 46
247.4261245855
 79
2
 49
22.85996707
 49
-251.45973192
 53
21.0
 43
25.4
 44
38.1
 45
151.6143912691
 46
-102.2651981871
 79
2
 49
19.05
 49
-209.55
 53
326.0
 43
25.4
 44
38.1
 45
61.8020283476
 46
184.1879661223
 79
2
 49
15.24
 49
-167.64
 53
71.451445
 43
38.0345326
 44
29.5779001
 45
213.4164192787
 46
81.9227688859
 79
2
 49
16.1900088
 49
-178.0899376
 53
37.5
 43
0.0
 44
0.0
 45
3.0886032506
 46
84.5550388732
 79
6
 49
0.0
 49
-165.608
 49
0.0
 49
-170.18
 49
0.0
 49
-168.275
 53
7.5
 43
0.0
 44
0.0
 45
66.8196625103
 46
100.1805748181
 79
6
 49
0.0
 49
-97.028
 49
0.0
 49
-161.798
 49
0.0
 49
-64.135
 53
-32.5
 43
-56.642
 44
0.0
 45
135.5905951669
 46
-5.7287439927
 79
6
 49
0.0
 49
-63.5
 49
0.0
 49
-198.12
 49
0.0
 49
-262.89
 53
-42.5
 43
-82.042
 44
0.0
 45
148.129181386
 46
25.4264910333
 79
6
 49
0.0
 49
-82.55
 49
0.0
 49
-131.572
 49
0.0
 49
-186.69
 98
0
  0
HATCH
  5
2A4
330
17
100
AcDbEntity
  8
COTA
 62
7
100
AcDbHatch
 10
0.0
 20
0.0
 30
0.0
210
0.0
220
0.0
230
1.0
  2
AR-CONC
 70
0
 71
0
 91
1
 92
3
 72
0
 73
1
 93
5
 10
5786.955241380245
 20
2203.538282891512
 10
5786.955241380245
 20
2217.538282891513
 10
5556.955241380237
 20
2217.538282891513
 10
5556.955241380237
 20
2203.538282891512
 10
5786.955241380245
 20
2203.538282891512
 97
0
 75
1
 76
1
 52
0.0
 41
1.0
 77
0
 78
13
 53
50.0
 43
0.0
 44
0.0
 45
182.184668996
 46
-15.9390855389
 79
2
 49
19.05
 49
-209.55
 53
355.0
 43
0.0
 44
0.0
 45
-35.243421425
 46
191.056845239
 79
2
 49
15.24
 49
-167.64058417
 53
100.4514447
 43
15.182007
 44
-1.3282535
 45
146.9412470904
 46
175.1177519122
 79
2
 49
16.1900088
 49
-178.0902446
 53
46.1842
 43
0.0
 44
50.8
 45
271.0790408921
 46
-42.0423279327
 79
2
 49
28.575
 49
-314.325
 53
96.63555761
 43
22.5899
 44
47.2965
 45
237.4041340515
 46
247.4261245977
 79
2
 49
24.28502314
 49
-267.13560816
 53
351.18415117
 43
0.0
 44
50.8
 45
237.404134065
 46
247.4261245855
 79
2
 49
22.85996707
 49
-251.45973192
 53
21.0
 43
25.4
 44
38.1
 45
151.6143912691
 46
-102.2651981871
 79
2
 49
19.05
 49
-209.55
 53
326.0
 43
25.4
 44
38.1
 45
61.8020283476
 46
184.1879661223
 79
2
 49
15.24
 49
-167.64
 53
71.451445
 43
38.0345326
 44
29.5779001
 45
213.4164192787
 46
81.9227688859
 79
2
 49
16.1900088
 49
-178.0899376
 53
37.5
 43
0.0
 44
0.0
 45
3.0886032506
 46
84.5550388732
 79
6
 49
0.0
 49
-165.608
 49
0.0
 49
-170.18
 49
0.0
 49
-168.275
 53
7.5
 43
0.0
 44
0.0
 45
66.8196625103
 46
100.1805748181
 79
6
 49
0.0
 49
-97.028
 49
0.0
 49
-161.798
 49
0.0
 49
-64.135
 53
-32.5
 43
-56.642
 44
0.0
 45
135.5905951669
 46
-5.7287439927
 79
6
 49
0.0
 49
-63.5
 49
0.0
 49
-198.12
 49
0.0
 49
-262.89
 53
-42.5
 43
-82.042
 44
0.0
 45
148.129181386
 46
25.4264910333
 79
6
 49
0.0
 49
-82.55
 49
0.0
 49
-131.572
 49
0.0
 49
-186.69
 98
0
  0
HATCH
  5
2A5
330
17
100
AcDbEntity
  8
COTA
 62
7
100
AcDbHatch
 10
0.0
 20
0.0
 30
0.0
210
0.0
220
0.0
230
1.0
  2
AR-CONC
 70
0
 71
0
 91
1
 92
3
 72
0
 73
1
 93
7
 10
5808.31874526794
 20
2217.423486266211
 10
5808.31874526794
 20
2203.423486266212
 10
5937.818745267946
 20
2203.423486266212
 10
5937.818745267945
 20
2173.423486266212
 10
5964.818745267943
 20
2173.423486266212
 10
5964.818745267943
 20
2217.423486266211
 10
5808.31874526794
 20
2217.423486266211
 97
0
 75
1
 76
1
 52
0.0
 41
1.0
 77
0
 78
13
 53
50.0
 43
0.0
 44
0.0
 45
182.184668996
 46
-15.9390855389
 79
2
 49
19.05
 49
-209.55
 53
355.0
 43
0.0
 44
0.0
 45
-35.243421425
 46
191.056845239
 79
2
 49
15.24
 49
-167.64058417
 53
100.4514447
 43
15.182007
 44
-1.3282535
 45
146.9412470904
 46
175.1177519122
 79
2
 49
16.1900088
 49
-178.0902446
 53
46.1842
 43
0.0
 44
50.8
 45
271.0790408921
 46
-42.0423279327
 79
2
 49
28.575
 49
-314.325
 53
96.63555761
 43
22.5899
 44
47.2965
 45
237.4041340515
 46
247.4261245977
 79
2
 49
24.28502314
 49
-267.13560816
 53
351.18415117
 43
0.0
 44
50.8
 45
237.404134065
 46
247.4261245855
 79
2
 49
22.85996707
 49
-251.45973192
 53
21.0
 43
25.4
 44
38.1
 45
151.6143912691
 46
-102.2651981871
 79
2
 49
19.05
 49
-209.55
 53
326.0
 43
25.4
 44
38.1
 45
61.8020283476
 46
184.1879661223
 79
2
 49
15.24
 49
-167.64
 53
71.451445
 43
38.0345326
 44
29.5779001
 45
213.4164192787
 46
81.9227688859
 79
2
 49
16.1900088
 49
-178.0899376
 53
37.5
 43
0.0
 44
0.0
 45
3.0886032506
 46
84.5550388732
 79
6
 49
0.0
 49
-165.608
 49
0.0
 49
-170.18
 49
0.0
 49
-168.275
 53
7.5
 43
0.0
 44
0.0
 45
66.8196625103
 46
100.1805748181
 79
6
 49
0.0
 49
-97.028
 49
0.0
 49
-161.798
 49
0.0
 49
-64.135
 53
-32.5
 43
-56.642
 44
0.0
 45
135.5905951669
 46
-5.7287439927
 79
6
 49
0.0
 49
-63.5
 49
0.0
 49
-198.12
 49
0.0
 49
-262.89
 53
-42.5
 43
-82.042
 44
0.0
 45
148.129181386
 46
25.4264910333
 79
6
 49
0.0
 49
-82.55
 49
0.0
 49
-131.572
 49
0.0
 49
-186.69
 98
0
  0
HATCH
  5
2A6
330
17
100
AcDbEntity
  8
COTA
 62
7
100
AcDbHatch
 10
0.0
 20
0.0
 30
0.0
210
0.0
220
0.0
230
1.0
  2
AR-CONC
 70
0
 71
0
 91
1
 92
3
 72
0
 73
1
 93
5
 10
5552.527766173223
 20
1919.296898876912
 10
5552.527766173223
 20
1933.296898876912
 10
5327.027766173217
 20
1933.296898876912
 10
5327.027766173217
 20
1919.296898876913
 10
5552.527766173223
 20
1919.296898876912
 97
0
 75
1
 76
1
 52
0.0
 41
1.0
 77
0
 78
13
 53
50.0
 43
0.0
 44
0.0
 45
182.184668996
 46
-15.9390855389
 79
2
 49
19.05
 49
-209.55
 53
355.0
 43
0.0
 44
0.0
 45
-35.243421425
 46
191.056845239
 79
2
 49
15.24
 49
-167.64058417
 53
100.4514447
 43
15.182007
 44
-1.3282535
 45
146.9412470904
 46
175.1177519122
 79
2
 49
16.1900088
 49
-178.0902446
 53
46.1842
 43
0.0
 44
50.8
 45
271.0790408921
 46
-42.0423279327
 79
2
 49
28.575
 49
-314.325
 53
96.63555761
 43
22.5899
 44
47.2965
 45
237.4041340515
 46
247.4261245977
 79
2
 49
24.28502314
 49
-267.13560816
 53
351.18415117
 43
0.0
 44
50.8
 45
237.404134065
 46
247.4261245855
 79
2
 49
22.85996707
 49
-251.45973192
 53
21.0
 43
25.4
 44
38.1
 45
151.6143912691
 46
-102.2651981871
 79
2
 49
19.05
 49
-209.55
 53
326.0
 43
25.4
 44
38.1
 45
61.8020283476
 46
184.1879661223
 79
2
 49
15.24
 49
-167.64
 53
71.451445
 43
38.0345326
 44
29.5779001
 45
213.4164192787
 46
81.9227688859
 79
2
 49
16.1900088
 49
-178.0899376
 53
37.5
 43
0.0
 44
0.0
 45
3.0886032506
 46
84.5550388732
 79
6
 49
0.0
 49
-165.608
 49
0.0
 49
-170.18
 49
0.0
 49
-168.275
 53
7.5
 43
0.0
 44
0.0
 45
66.8196625103
 46
100.1805748181
 79
6
 49
0.0
 49
-97.028
 49
0.0
 49
-161.798
 49
0.0
 49
-64.135
 53
-32.5
 43
-56.642
 44
0.0
 45
135.5905951669
 46
-5.7287439927
 79
6
 49
0.0
 49
-63.5
 49
0.0
 49
-198.12
 49
0.0
 49
-262.89
 53
-42.5
 43
-82.042
 44
0.0
 45
148.129181386
 46
25.4264910333
 79
6
 49
0.0
 49
-82.55
 49
0.0
 49
-131.572
 49
0.0
 49
-186.69
 98
0
  0
HATCH
  5
2A7
330
17
100
AcDbEntity
  8
Hachura
 62
7
100
AcDbHatch
 10
0.0
 20
0.0
 30
0.0
210
0.0
220
0.0
230
1.0
  2
SOLID
 70
1
 71
0
 91
1
 92
3
 72
0
 73
1
 93
5
 10
5129.00559849309
 20
1872.843049933434
 10
5125.005598493089
 20
1872.843049933434
 10
5125.005598493088
 20
1812.843049933456
 10
5129.005598493088
 20
1812.843049933456
 10
5129.00559849309
 20
1872.843049933434
 97
0
 75
1
 76
1
 98
0
  0
HATCH
  5
2A8
330
17
100
AcDbEntity
  8
Hachura
 62
7
100
AcDbHatch
 10
0.0
 20
0.0
 30
0.0
210
0.0
220
0.0
230
1.0
  2
ANSI31
 70
0
 71
0
 91
1
 92
3
 72
0
 73
1
 93
5
 10
5125.005598493088
 20
1868.443049933433
 10
5125.005598493088
 20
1872.843049933434
 10
5111.005598493088
 20
1872.843049933434
 10
5111.005598493088
 20
1868.443049933433
 10
5125.005598493088
 20
1868.443049933433
 97
0
 75
1
 76
1
 52
0.0
 41
1.0
 77
0
 78
1
 53
45.0
 43
0.0
 44
0.0
 45
-2.2450640303
 46
2.2450640303
 79
0
 98
0
  0
HATCH
  5
2A9
330
17
100
AcDbEntity
  8
Hachura
 62
7
100
AcDbHatch
 10
0.0
 20
0.0
 30
0.0
210
0.0
220
0.0
230
1.0
  2
ANSI31
 70
0
 71
0
 91
1
 92
3
 72
0
 73
1
 93
5
 10
5091.005598493087
 20
1812.843049933456
 10
5091.005598493087
 20
1817.24304993345
 10
5111.005598493088
 20
1817.24304993345
 10
5111.005598493088
 20
1812.843049933456
 10
5091.005598493087
 20
1812.843049933456
 97
0
 75
1
 76
1
 52
0.0
 41
1.0
 77
0
 78
1
 53
45.0
 43
0.0
 44
0.0
 45
-2.2450640303
 46
2.2450640303
 79
0
 98
0
  0
HATCH
  5
2AA
330
17
100
AcDbEntity
  8
Hachura
 62
7
100
AcDbHatch
 10
0.0
 20
0.0
 30
0.0
210
0.0
220
0.0
230
1.0
  2
ANSI31
 70
0
 71
0
 91
1
 92
3
 72
0
 73
1
 93
5
 10
5167.005598493087
 20
1812.843049933456
 10
5167.005598493087
 20
1817.24304993345
 10
5153.005598493088
 20
1817.24304993345
 10
5153.005598493088
 20
1812.843049933456
 10
5167.005598493087
 20
1812.843049933456
 97
0
 75
1
 76
1
 52
0.0
 41
1.0
 77
0
 78
1
 53
45.0
 43
0.0
 44
0.0
 45
-2.2450640303
 46
2.2450640303
 79
0
 98
0
  0
HATCH
  5
2AB
330
17
100
AcDbEntity
  8
Hachura
 62
7
100
AcDbHatch
 10
0.0
 20
0.0
 30
0.0
210
0.0
220
0.0
230
1.0
  2
SOLID
 70
1
 71
0
 91
1
 92
3
 72
0
 73
1
 93
5
 10
5167.005598493087
 20
1817.24304993345
 10
5167.005598493087
 20
1820.843049933456
 10
5129.005598493088
 20
1820.843049933456
 10
5129.005598493088
 20
1817.24304993345
 10
5167.005598493087
 20
1817.24304993345
 97
0
 75
1
 76
1
 98
0
  0
HATCH
  5
2AC
330
17
100
AcDbEntity
  8
Hachura
 62
7
100
AcDbHatch
 10
0.0
 20
0.0
 30
0.0
210
0.0
220
0.0
230
1.0
  2
ANSI31
 70
0
 71
0
 91
1
 92
3
 72
0
 73
1
 93
5
 10
5129.005598493088
 20
1812.843049933456
 10
5129.005598493088
 20
1817.24304993345
 10
5143.005598493088
 20
1817.24304993345
 10
5143.005598493088
 20
1812.843049933456
 10
5129.005598493088
 20
1812.843049933456
 97
0
 75
1
 76
1
 52
0.0
 41
1.0
 77
0
 78
1
 53
45.0
 43
0.0
 44
0.0
 45
-2.2450640303
 46
2.2450640303
 79
0
 98
0
  0
HATCH
  5
2AD
330
17
100
AcDbEntity
  8
Hachura
 62
7
100
AcDbHatch
 10
0.0
 20
0.0
 30
0.0
210
0.0
220
0.0
230
1.0
  2
SOLID
 70
1
 71
0
 91
1
 92
3
 72
0
 73
1
 93
5
 10
5171.005598493099
 20
1900.843049933456
 10
5167.005598493099
 20
1900.843049933456
 10
5167.005598493087
 20
1812.843049933456
 10
5171.005598493088
 20
1812.843049933456
 10
5171.005598493099
 20
1900.843049933456
 97
0
 75
1
 76
1
 98
0
  0
HATCH
  5
2AE
330
17
100
AcDbEntity
  8
Hachura
 62
7
100
AcDbHatch
 10
0.0
 20
0.0
 30
0.0
210
0.0
220
0.0
230
1.0
  2
ANSI31
 70
0
 71
0
 91
1
 92
3
 72
0
 73
1
 93
5
 10
5171.005598493099
 20
1896.443049933455
 10
5171.005598493099
 20
1900.843049933456
 10
5185.005598493098
 20
1900.843049933456
 10
5185.005598493098
 20
1896.443049933455
 10
5171.005598493099
 20
1896.443049933455
 97
0
 75
1
 76
1
 52
0.0
 41
1.0
 77
0
 78
1
 53
45.0
 43
0.0
 44
0.0
 45
-2.2450640303
 46
2.2450640303
 79
0
 98
0
  0
HATCH
  5
2AF
330
17
100
AcDbEntity
  8
Hachura
 62
7
100
AcDbHatch
 10
0.0
 20
0.0
 30
0.0
210
0.0
220
0.0
230
1.0
  2
ANSI31
 70
0
 71
0
 91
1
 92
3
 72
0
 73
1
 93
5
 10
5205.005598493087
 20
1812.843049933456
 10
5205.005598493087
 20
1817.24304993345
 10
5185.005598493088
 20
1817.24304993345
 10
5185.005598493088
 20
1812.843049933456
 10
5205.005598493087
 20
1812.843049933456
 97
0
 75
1
 76
1
 52
0.0
 41
1.0
 77
0
 78
1
 53
45.0
 43
0.0
 44
0.0
 45
-2.2450640303
 46
2.2450640303
 79
0
 98
0
  0
HATCH
  5
2B0
330
17
100
AcDbEntity
  8
Hachura
 62
7
100
AcDbHatch
 10
0.0
 20
0.0
 30
0.0
210
0.0
220
0.0
230
1.0
  2
SOLID
 70
1
 71
0
 91
1
 92
3
 72
0
 73
1
 93
5
 10
5129.005598493088
 20
1872.843049933434
 10
5129.005598493088
 20
1876.843049933435
 10
5073.405598493111
 20
1876.843049933427
 10
5073.405598493111
 20
1872.843049933427
 10
5129.005598493088
 20
1872.843049933434
 97
0
 75
1
 76
1
 98
0
  0
HATCH
  5
2B1
330
17
100
AcDbEntity
  8
Hachura
 62
7
100
AcDbHatch
 10
0.0
 20
0.0
 30
0.0
210
0.0
220
0.0
230
1.0
  2
ANSI31
 70
0
 71
0
 91
1
 92
3
 72
0
 73
1
 93
5
 10
6234.327678758939
 20
2102.469239135619
 10
6234.327678758939
 20
2101.069239135617
 10
6248.307041716522
 20
2101.069239135617
 10
6248.307041716522
 20
2102.469239135619
 10
6234.327678758939
 20
2102.469239135619
 97
0
 75
1
 76
1
 52
0.0
 41
1.0
 77
0
 78
1
 53
45.0
 43
0.0
 44
0.0
 45
-2.2450640303
 46
2.2450640303
 79
0
 98
0
  0
ENDSEC
  0
SECTION
  2
OBJECTS
  0
DICTIONARY
  5
A
330
0
100
AcDbDictionary
281
1
  3
ACAD_COLOR
350
B
  3
ACAD_GROUP
350
C
  3
ACAD_LAYOUT
350
D
  3
ACAD_MATERIAL
350
E
  3
ACAD_MLEADERSTYLE
350
F
  3
ACAD_MLINESTYLE
350
10
  3
ACAD_PLOTSETTINGS
350
11
  3
ACAD_PLOTSTYLENAME
350
12
  3
ACAD_SCALELIST
350
14
  3
ACAD_TABLESTYLE
350
15
  3
ACAD_VISUALSTYLE
350
16
  3
EZDXF_META
350
2D
  0
DICTIONARY
  5
B
330
A
100
AcDbDictionary
281
1
  0
DICTIONARY
  5
C
330
A
100
AcDbDictionary
281
1
  0
DICTIONARY
  5
D
330
A
100
AcDbDictionary
281
1
  3
Model
350
1A
  3
Layout1
350
1E
  0
DICTIONARY
  5
E
330
A
100
AcDbDictionary
281
1
  3
ByBlock
350
1F
  3
ByLayer
350
20
  3
Global
350
21
  0
DICTIONARY
  5
F
330
A
100
AcDbDictionary
281
1
  3
Standard
350
2C
  0
DICTIONARY
  5
10
330
A
100
AcDbDictionary
281
1
  3
Standard
350
22
  0
DICTIONARY
  5
11
330
A
100
AcDbDictionary
281
1
  0
ACDBDICTIONARYWDFLT
  5
12
330
A
100
AcDbDictionary
281
1
  3
Normal
350
13
100
AcDbDictionaryWithDefault
340
13
  0
ACDBPLACEHOLDER
  5
13
330
12
  0
DICTIONARY
  5
14
330
A
100
AcDbDictionary
281
1
  0
DICTIONARY
  5
15
330
A
100
AcDbDictionary
281
1
  0
DICTIONARY
  5
16
330
A
100
AcDbDictionary
281
1
  0
LAYOUT
  5
1A
330
D
100
AcDbPlotSettings
  1

  4
A3
  6

 40
7.5
 41
20.0
 42
7.5
 43
20.0
 44
420.0
 45
297.0
 46
0.0
 47
0.0
 48
0.0
 49
0.0
140
0.0
141
0.0
142
1.0
143
1.0
 70
1024
 72
1
 73
0
 74
5
  7

 75
16
 76
0
 77
2
 78
300
147
1.0
148
0.0
149
0.0
100
AcDbLayout
  1
Model
 70
1
 71
0
 10
0.0
 20
0.0
 11
420.0
 21
297.0
 12
0.0
 22
0.0
 32
0.0
 14
1e+20
 24
1e+20
 34
1e+20
 15
-1e+20
 25
-1e+20
 35
-1e+20
146
0.0
 13
0.0
 23
0.0
 33
0.0
 16
1.0
 26
0.0
 36
0.0
 17
0.0
 27
1.0
 37
0.0
 76
1
330
17
  0
LAYOUT
  5
1E
330
D
100
AcDbPlotSettings
  1

  4
A3
  6

 40
7.5
 41
20.0
 42
7.5
 43
20.0
 44
420.0
 45
297.0
 46
0.0
 47
0.0
 48
0.0
 49
0.0
140
0.0
141
0.0
142
1.0
143
1.0
 70
0
 72
1
 73
0
 74
5
  7

 75
16
 76
0
 77
2
 78
300
147
1.0
148
0.0
149
0.0
100
AcDbLayout
  1
Layout1
 70
1
 71
1
 10
0.0
 20
0.0
 11
420.0
 21
297.0
 12
0.0
 22
0.0
 32
0.0
 14
1e+20
 24
1e+20
 34
1e+20
 15
-1e+20
 25
-1e+20
 35
-1e+20
146
0.0
 13
0.0
 23
0.0
 33
0.0
 16
1.0
 26
0.0
 36
0.0
 17
0.0
 27
1.0
 37
0.0
 76
1
330
1B
  0
MATERIAL
  5
1F
102
{ACAD_REACTORS
330
E
102
}
330
E
100
AcDbMaterial
  1
ByBlock
  2

 70
0
 40
1.0
 71
1
 41
1.0
 91
-1023410177
 42
1.0
 72
1
  3

 73
1
 74
1
 75
1
 44
0.5
 73
0
 45
1.0
 46
1.0
 77
1
  4

 78
1
 79
1
170
1
 48
1.0
171
1
  6

172
1
173
1
174
1
140
1.0
141
1.0
175
1
  7

176
1
177
1
178
1
143
1.0
179
1
  8

270
1
271
1
272
1
145
1.0
146
1.0
273
1
  9

274
1
275
1
276
1
 42
1.0
 72
1
  3

 73
1
 74
1
 75
1
 94
63
  0
MATERIAL
  5
20
102
{ACAD_REACTORS
330
E
102
}
330
E
100
AcDbMaterial
  1
ByLayer
  2

 70
0
 40
1.0
 71
1
 41
1.0
 91
-1023410177
 42
1.0
 72
1
  3

 73
1
 74
1
 75
1
 44
0.5
 73
0
 45
1.0
 46
1.0
 77
1
  4

 78
1
 79
1
170
1
 48
1.0
171
1
  6

172
1
173
1
174
1
140
1.0
141
1.0
175
1
  7

176
1
177
1
178
1
143
1.0
179
1
  8

270
1
271
1
272
1
145
1.0
146
1.0
273
1
  9

274
1
275
1
276
1
 42
1.0
 72
1
  3

 73
1
 74
1
 75
1
 94
63
  0
MATERIAL
  5
21
102
{ACAD_REACTORS
330
E
102
}
330
E
100
AcDbMaterial
  1
Global
  2

 70
0
 40
1.0
 71
1
 41
1.0
 91
-1023410177
 42
1.0
 72
1
  3

 73
1
 74
1
 75
1
 44
0.5
 73
0
 45
1.0
 46
1.0
 77
1
  4

 78
1
 79
1
170
1
 48
1.0
171
1
  6

172
1
173
1
174
1
140
1.0
141
1.0
175
1
  7

176
1
177
1
178
1
143
1.0
179
1
  8

270
1
271
1
272
1
145
1.0
146
1.0
273
1
  9

274
1
275
1
276
1
 42
1.0
 72
1
  3

 73
1
 74
1
 75
1
 94
63
  0
MLINESTYLE
  5
22
102
{ACAD_REACTORS
330
10
102
}
330
10
100
AcDbMlineStyle
  2
Standard
 70
0
  3

 62
256
 51
90.0
 52
90.0
 71
2
 49
0.5
 62
256
  6
BYLAYER
 49
-0.5
 62
256
  6
BYLAYER
  0
MLEADERSTYLE
  5
2C
102
{ACAD_REACTORS
330
F
102
}
330
F
100
AcDbMLeaderStyle
179
2
170
2
171
1
172
0
 90
2
 40
0.0
 41
0.0
173
1
 91
-1056964608
 92
-2
290
1
 42
2.0
291
1
 43
8.0
  3
Standard
 44
4.0
300

342
29
174
1
175
1
176
0
178
1
 93
-1056964608
 45
4.0
292
0
297
0
 46
4.0
 94
-1056964608
 47
1.0
 49
1.0
140
1.0
294
1
141
0.0
177
0
142
1.0
295
0
296
0
143
3.75
271
0
272
9
273
9
  0
DICTIONARY
  5
2D
330
A
100
AcDbDictionary
280
1
281
1
  3
CREATED_BY_EZDXF
350
2E
  3
WRITTEN_BY_EZDXF
350
2B4
  0
DICTIONARYVAR
  5
2E
330
2D
100
DictionaryVariables
280
0
  1
1.4.3 @ 2026-06-10T17:46:50.807542+00:00
  0
DICTIONARYVAR
  5
2B4
330
2D
100
DictionaryVariables
280
0
  1
1.4.3 @ 2026-06-10T17:46:50.827385+00:00
  0
ENDSEC
  0
EOF
