  0
SECTION
  2
HEADER
  9
$ACADVER
  1
AC1024
  9
$ACADMAINTVER
 70
6
  9
$DWGCODEPAGE
  3
ANSI_1252
  9
$LASTSAVEDBY
  1
ezdxf
  9
$INSBASE
 10
0.0
 20
0.0
 30
0.0
  9
$EXTMIN
 10
1e+20
 20
1e+20
 30
1e+20
  9
$EXTMAX
 10
-1e+20
 20
-1e+20
 30
-1e+20
  9
$LIMMIN
 10
0.0
 20
0.0
  9
$LIMMAX
 10
420.0
 20
297.0
  9
$ORTHOMODE
 70
0
  9
$REGENMODE
 70
1
  9
$FILLMODE
 70
1
  9
$QTEXTMODE
 70
0
  9
$MIRRTEXT
 70
1
  9
$LTSCALE
 40
1.0
  9
$ATTMODE
 70
1
  9
$TEXTSIZE
 40
2.5
  9
$TRACEWID
 40
1.0
  9
$TEXTSTYLE
  7
Standard
  9
$CLAYER
  8
0
  9
$CELTYPE
  6
ByLayer
  9
$CECOLOR
 62
256
  9
$CELTSCALE
 40
1.0
  9
$DISPSILH
 70
0
  9
$DIMSCALE
 40
1.0
  9
$DIMASZ
 40
2.5
  9
$DIMEXO
 40
0.625
  9
$DIMDLI
 40
3.75
  9
$DIMRND
 40
0.0
  9
$DIMDLE
 40
0.0
  9
$DIMEXE
 40
1.25
  9
$DIMTP
 40
0.0
  9
$DIMTM
 40
0.0
  9
$DIMTXT
 40
2.5
  9
$DIMCEN
 40
2.5
  9
$DIMTSZ
 40
0.0
  9
$DIMTOL
 70
0
  9
$DIMLIM
 70
0
  9
$DIMTIH
 70
0
  9
$DIMTOH
 70
0
  9
$DIMSE1
 70
0
  9
$DIMSE2
 70
0
  9
$DIMTAD
 70
1
  9
$DIMZIN
 70
8
  9
$DIMBLK
  1

  9
$DIMASO
 70
1
  9
$DIMSHO
 70
1
  9
$DIMPOST
  1

  9
$DIMAPOST
  1

  9
$DIMALT
 70
0
  9
$DIMALTD
 70
3
  9
$DIMALTF
 40
0.03937007874
  9
$DIMLFAC
 40
1.0
  9
$DIMTOFL
 70
1
  9
$DIMTVP
 40
0.0
  9
$DIMTIX
 70
0
  9
$DIMSOXD
 70
0
  9
$DIMSAH
 70
0
  9
$DIMBLK1
  1

  9
$DIMBLK2
  1

  9
$DIMSTYLE
  2
ISO-25
  9
$DIMCLRD
 70
0
  9
$DIMCLRE
 70
0
  9
$DIMCLRT
 70
0
  9
$DIMTFAC
 40
1.0
  9
$DIMGAP
 40
0.625
  9
$DIMJUST
 70
0
  9
$DIMSD1
 70
0
  9
$DIMSD2
 70
0
  9
$DIMTOLJ
 70
0
  9
$DIMTZIN
 70
8
  9
$DIMALTZ
 70
0
  9
$DIMALTTZ
 70
0
  9
$DIMUPT
 70
0
  9
$DIMDEC
 70
2
  9
$DIMTDEC
 70
2
  9
$DIMALTU
 70
2
  9
$DIMALTTD
 70
3
  9
$DIMTXSTY
  7
Standard
  9
$DIMAUNIT
 70
0
  9
$DIMADEC
 70
0
  9
$DIMALTRND
 40
0.0
  9
$DIMAZIN
 70
0
  9
$DIMDSEP
 70
44
  9
$DIMATFIT
 70
3
  9
$DIMFRAC
 70
0
  9
$DIMLDRBLK
  1

  9
$DIMLUNIT
 70
2
  9
$DIMLWD
 70
-2
  9
$DIMLWE
 70
-2
  9
$DIMTMOVE
 70
0
  9
$DIMFXL
 40
1.0
  9
$DIMFXLON
 70
0
  9
$DIMJOGANG
 40
0.785398163397
  9
$DIMTFILL
 70
0
  9
$DIMTFILLCLR
 70
0
  9
$DIMARCSYM
 70
0
  9
$DIMLTYPE
  6

  9
$DIMLTEX1
  6

  9
$DIMLTEX2
  6

  9
$DIMTXTDIRECTION
 70
0
  9
$LUNITS
 70
2
  9
$LUPREC
 70
4
  9
$SKETCHINC
 40
1.0
  9
$FILLETRAD
 40
10.0
  9
$AUNITS
 70
0
  9
$AUPREC
 70
2
  9
$MENU
  1
.
  9
$ELEVATION
 40
0.0
  9
$PELEVATION
 40
0.0
  9
$THICKNESS
 40
0.0
  9
$LIMCHECK
 70
0
  9
$CHAMFERA
 40
0.0
  9
$CHAMFERB
 40
0.0
  9
$CHAMFERC
 40
0.0
  9
$CHAMFERD
 40
0.0
  9
$SKPOLY
 70
0
  9
$TDCREATE
 40
2461202.579664352
  9
$TDUCREATE
 40
2458532.153996898
  9
$TDUPDATE
 40
2461202.579664352
  9
$TDUUPDATE
 40
2458532.1544311
  9
$TDINDWG
 40
0.0
  9
$TDUSRTIMER
 40
0.0
  9
$USRTIMER
 70
1
  9
$ANGBASE
 50
0.0
  9
$ANGDIR
 70
0
  9
$PDMODE
 70
0
  9
$PDSIZE
 40
0.0
  9
$PLINEWID
 40
0.0
  9
$SPLFRAME
 70
0
  9
$SPLINETYPE
 70
6
  9
$SPLINESEGS
 70
8
  9
$HANDSEED
  5
154
  9
$SURFTAB1
 70
6
  9
$SURFTAB2
 70
6
  9
$SURFTYPE
 70
6
  9
$SURFU
 70
6
  9
$SURFV
 70
6
  9
$UCSBASE
  2

  9
$UCSNAME
  2

  9
$UCSORG
 10
0.0
 20
0.0
 30
0.0
  9
$UCSXDIR
 10
1.0
 20
0.0
 30
0.0
  9
$UCSYDIR
 10
0.0
 20
1.0
 30
0.0
  9
$UCSORTHOREF
  2

  9
$UCSORTHOVIEW
 70
0
  9
$UCSORGTOP
 10
0.0
 20
0.0
 30
0.0
  9
$UCSORGBOTTOM
 10
0.0
 20
0.0
 30
0.0
  9
$UCSORGLEFT
 10
0.0
 20
0.0
 30
0.0
  9
$UCSORGRIGHT
 10
0.0
 20
0.0
 30
0.0
  9
$UCSORGFRONT
 10
0.0
 20
0.0
 30
0.0
  9
$UCSORGBACK
 10
0.0
 20
0.0
 30
0.0
  9
$PUCSBASE
  2

  9
$PUCSNAME
  2

  9
$PUCSORG
 10
0.0
 20
0.0
 30
0.0
  9
$PUCSXDIR
 10
1.0
 20
0.0
 30
0.0
  9
$PUCSYDIR
 10
0.0
 20
1.0
 30
0.0
  9
$PUCSORTHOREF
  2

  9
$PUCSORTHOVIEW
 70
0
  9
$PUCSORGTOP
 10
0.0
 20
0.0
 30
0.0
  9
$PUCSORGBOTTOM
 10
0.0
 20
0.0
 30
0.0
  9
$PUCSORGLEFT
 10
0.0
 20
0.0
 30
0.0
  9
$PUCSORGRIGHT
 10
0.0
 20
0.0
 30
0.0
  9
$PUCSORGFRONT
 10
0.0
 20
0.0
 30
0.0
  9
$PUCSORGBACK
 10
0.0
 20
0.0
 30
0.0
  9
$USERI1
 70
0
  9
$USERI2
 70
0
  9
$USERI3
 70
0
  9
$USERI4
 70
0
  9
$USERI5
 70
0
  9
$USERR1
 40
0.0
  9
$USERR2
 40
0.0
  9
$USERR3
 40
0.0
  9
$USERR4
 40
0.0
  9
$USERR5
 40
0.0
  9
$WORLDVIEW
 70
1
  9
$SHADEDGE
 70
3
  9
$SHADEDIF
 70
70
  9
$TILEMODE
 70
1
  9
$MAXACTVP
 70
64
  9
$PINSBASE
 10
0.0
 20
0.0
 30
0.0
  9
$PLIMCHECK
 70
0
  9
$PEXTMIN
 10
1e+20
 20
1e+20
 30
1e+20
  9
$PEXTMAX
 10
-1e+20
 20
-1e+20
 30
-1e+20
  9
$PLIMMIN
 10
0.0
 20
0.0
  9
$PLIMMAX
 10
420.0
 20
297.0
  9
$UNITMODE
 70
0
  9
$VISRETAIN
 70
1
  9
$PLINEGEN
 70
0
  9
$PSLTSCALE
 70
1
  9
$TREEDEPTH
 70
3020
  9
$CMLSTYLE
  2
Standard
  9
$CMLJUST
 70
0
  9
$CMLSCALE
 40
20.0
  9
$PROXYGRAPHICS
 70
1
  9
$MEASUREMENT
 70
1
  9
$CELWEIGHT
370
-1
  9
$ENDCAPS
280
0
  9
$JOINSTYLE
280
0
  9
$LWDISPLAY
290
0
  9
$INSUNITS
 70
6
  9
$HYPERLINKBASE
  1

  9
$STYLESHEET
  1

  9
$XEDIT
290
1
  9
$CEPSNTYPE
380
0
  9
$PSTYLEMODE
290
1
  9
$FINGERPRINTGUID
  2
{9D037FE4-88E7-4B31-AA49-F73FB46B94C2}
  9
$VERSIONGUID
  2
{335F079C-FE85-4C18-8663-3409BD9AFA3E}
  9
$EXTNAMES
290
1
  9
$PSVPSCALE
 40
0.0
  9
$OLESTARTUP
290
0
  9
$SORTENTS
280
127
  9
$INDEXCTL
280
0
  9
$HIDETEXT
280
1
  9
$XCLIPFRAME
280
1
  9
$HALOGAP
280
0
  9
$OBSCOLOR
 70
257
  9
$OBSLTYPE
280
0
  9
$INTERSECTIONDISPLAY
280
0
  9
$INTERSECTIONCOLOR
 70
257
  9
$DIMASSOC
280
2
  9
$PROJECTNAME
  1

  9
$CAMERADISPLAY
290
0
  9
$LENSLENGTH
 40
50.0
  9
$CAMERAHEIGHT
 40
0.0
  9
$STEPSPERSEC
 40
24.0
  9
$STEPSIZE
 40
100.0
  9
$3DDWFPREC
 40
2.0
  9
$PSOLWIDTH
 40
0.005
  9
$PSOLHEIGHT
 40
0.08
  9
$LOFTANG1
 40
1.570796326795
  9
$LOFTANG2
 40
1.570796326795
  9
$LOFTMAG1
 40
0.0
  9
$LOFTMAG2
 40
0.0
  9
$LOFTPARAM
 70
7
  9
$LOFTNORMALS
280
1
  9
$LATITUDE
 40
37.795
  9
$LONGITUDE
 40
-122.394
  9
$NORTHDIRECTION
 40
0.0
  9
$TIMEZONE
 70
-8000
  9
$LIGHTGLYPHDISPLAY
280
1
  9
$TILEMODELIGHTSYNCH
280
1
  9
$CMATERIAL
347
20
  9
$SOLIDHIST
280
0
  9
$SHOWHIST
280
1
  9
$DWFFRAME
280
2
  9
$DGNFRAME
280
2
  9
$REALWORLDSCALE
290
1
  9
$INTERFERECOLOR
 62
256
  9
$CSHADOW
280
0
  9
$SHADOWPLANELOCATION
 40
0.0
  0
ENDSEC
  0
SECTION
  2
CLASSES
  0
CLASS
  1
ACDBDICTIONARYWDFLT
  2
AcDbDictionaryWithDefault
  3
ObjectDBX Classes
 90
0
 91
0
280
0
281
0
  0
CLASS
  1
SUN
  2
AcDbSun
  3
SCENEOE
 90
1153
 91
0
280
0
281
0
  0
CLASS
  1
VISUALSTYLE
  2
AcDbVisualStyle
  3
ObjectDBX Classes
 90
4095
 91
0
280
0
281
0
  0
CLASS
  1
MATERIAL
  2
AcDbMaterial
  3
ObjectDBX Classes
 90
1153
 91
0
280
0
281
0
  0
CLASS
  1
SCALE
  2
AcDbScale
  3
ObjectDBX Classes
 90
1153
 91
0
280
0
281
0
  0
CLASS
  1
TABLESTYLE
  2
AcDbTableStyle
  3
ObjectDBX Classes
 90
4095
 91
0
280
0
281
0
  0
CLASS
  1
MLEADERSTYLE
  2
AcDbMLeaderStyle
  3
ACDB_MLEADERSTYLE_CLASS
 90
4095
 91
0
280
0
281
0
  0
CLASS
  1
DICTIONARYVAR
  2
AcDbDictionaryVar
  3
ObjectDBX Classes
 90
0
 91
0
280
0
281
0
  0
CLASS
  1
CELLSTYLEMAP
  2
AcDbCellStyleMap
  3
ObjectDBX Classes
 90
1152
 91
0
280
0
281
0
  0
CLASS
  1
MENTALRAYRENDERSETTINGS
  2
AcDbMentalRayRenderSettings
  3
SCENEOE
 90
1024
 91
0
280
0
281
0
  0
CLASS
  1
ACDBDETAILVIEWSTYLE
  2
AcDbDetailViewStyle
  3
ObjectDBX Classes
 90
1025
 91
0
280
0
281
0
  0
CLASS
  1
ACDBSECTIONVIEWSTYLE
  2
AcDbSectionViewStyle
  3
ObjectDBX Classes
 90
1025
 91
0
280
0
281
0
  0
CLASS
  1
RASTERVARIABLES
  2
AcDbRasterVariables
  3
ISM
 90
0
 91
0
280
0
281
0
  0
CLASS
  1
LAYOUT
  2
AcDbLayout
  3
ObjectDBX Classes
 90
0
 91
0
280
0
281
0
  0
CLASS
  1
ACDBPLACEHOLDER
  2
AcDbPlaceHolder
  3
ObjectDBX Classes
 90
0
 91
0
280
0
281
0
  0
ENDSEC
  0
SECTION
  2
TABLES
  0
TABLE
  2
VPORT
  5
8
330
0
100
AcDbSymbolTable
 70
1
  0
VPORT
  5
23
330
8
100
AcDbSymbolTableRecord
100
AcDbViewportTableRecord
  2
*Active
 70
0
 10
0.0
 20
0.0
 11
1.0
 21
1.0
 12
0.0
 22
0.0
 13
0.0
 23
0.0
 14
0.5
 24
0.5
 15
0.5
 25
0.5
 16
0.0
 26
0.0
 36
1.0
 17
0.0
 27
0.0
 37
0.0
 40
1000.0
 41
1.34
 42
50.0
 43
0.0
 44
0.0
 50
0.0
 51
0.0
 71
0
 72
1000
 73
1
 74
3
 75
0
 76
0
 77
0
 78
0
281
0
 65
0
146
0.0
  0
ENDTAB
  0
TABLE
  2
LTYPE
  5
2
330
0
100
AcDbSymbolTable
 70
3
  0
LTYPE
  5
24
330
2
100
AcDbSymbolTableRecord
100
AcDbLinetypeTableRecord
  2
ByBlock
 70
0
  3

 72
65
 73
0
 40
0.0
  0
LTYPE
  5
25
330
2
100
AcDbSymbolTableRecord
100
AcDbLinetypeTableRecord
  2
ByLayer
 70
0
  3

 72
65
 73
0
 40
0.0
  0
LTYPE
  5
26
330
2
100
AcDbSymbolTableRecord
100
AcDbLinetypeTableRecord
  2
Continuous
 70
0
  3

 72
65
 73
0
 40
0.0
  0
ENDTAB
  0
TABLE
  2
LAYER
  5
1
330
0
100
AcDbSymbolTable
 70
17
  0
LAYER
  5
27
330
1
100
AcDbSymbolTableRecord
100
AcDbLayerTableRecord
  2
0
 70
0
 62
7
  6
Continuous
370
-3
390
13
347
21
  0
LAYER
  5
28
330
1
100
AcDbSymbolTableRecord
100
AcDbLayerTableRecord
  2
Defpoints
 70
0
 62
7
  6
Continuous
290
0
370
-3
390
13
347
21
  0
LAYER
  5
2F
330
1
100
AcDbSymbolTableRecord
100
AcDbLayerTableRecord
  2
texto
 70
0
 62
7
  6
Continuous
370
-3
390
13
347
21
  0
LAYER
  5
30
330
1
100
AcDbSymbolTableRecord
100
AcDbLayerTableRecord
  2
COTA
 70
0
 62
7
  6
Continuous
370
-3
390
13
347
21
  0
LAYER
  5
31
330
1
100
AcDbSymbolTableRecord
100
AcDbLayerTableRecord
  2
SCO-___-LAJ
 70
0
 62
7
  6
Continuous
370
-3
390
13
347
21
  0
LAYER
  5
32
330
1
100
AcDbSymbolTableRecord
100
AcDbLayerTableRecord
  2
presilha
 70
0
 62
7
  6
Continuous
370
-3
390
13
347
21
  0
LAYER
  5
33
330
1
100
AcDbSymbolTableRecord
100
AcDbLayerTableRecord
  2
Hachura
 70
0
 62
7
  6
Continuous
370
-3
390
13
347
21
  0
LAYER
  5
34
330
1
100
AcDbSymbolTableRecord
100
AcDbLayerTableRecord
  2
detalhes
 70
0
 62
7
  6
Continuous
370
-3
390
13
347
21
  0
LAYER
  5
35
330
1
100
AcDbSymbolTableRecord
100
AcDbLayerTableRecord
  2
Painéis
 70
0
 62
7
  6
Continuous
370
-3
390
13
347
21
  0
LAYER
  5
36
330
1
100
AcDbSymbolTableRecord
100
AcDbLayerTableRecord
  2
Madeira
 70
0
 62
7
  6
Continuous
370
-3
390
13
347
21
  0
LAYER
  5
37
330
1
100
AcDbSymbolTableRecord
100
AcDbLayerTableRecord
  2
SARR_3.5x7
 70
0
 62
7
  6
Continuous
370
-3
390
13
347
21
  0
LAYER
  5
38
330
1
100
AcDbSymbolTableRecord
100
AcDbLayerTableRecord
  2
SARR_2.2x7
 70
0
 62
7
  6
Continuous
370
-3
390
13
347
21
  0
LAYER
  5
39
330
1
100
AcDbSymbolTableRecord
100
AcDbLayerTableRecord
  2
CONCRETO
 70
0
 62
7
  6
Continuous
370
-3
390
13
347
21
  0
LAYER
  5
3A
330
1
100
AcDbSymbolTableRecord
100
AcDbLayerTableRecord
  2
barrote
 70
0
 62
7
  6
Continuous
370
-3
390
13
347
21
  0
LAYER
  5
3B
330
1
100
AcDbSymbolTableRecord
100
AcDbLayerTableRecord
  2
5
 70
0
 62
7
  6
Continuous
370
-3
390
13
347
21
  0
LAYER
  5
3C
330
1
100
AcDbSymbolTableRecord
100
AcDbLayerTableRecord
  2
TENSOR
 70
0
 62
7
  6
Continuous
370
-3
390
13
347
21
  0
LAYER
  5
3D
330
1
100
AcDbSymbolTableRecord
100
AcDbLayerTableRecord
  2
Texto Seção
 70
0
 62
7
  6
Continuous
370
-3
390
13
347
21
  0
ENDTAB
  0
TABLE
  2
STYLE
  5
5
330
0
100
AcDbSymbolTable
 70
1
  0
STYLE
  5
29
330
5
100
AcDbSymbolTableRecord
100
AcDbTextStyleTableRecord
  2
Standard
 70
0
 40
0.0
 41
1.0
 50
0.0
 71
0
 42
2.5
  3
txt
  4

  0
ENDTAB
  0
TABLE
  2
VIEW
  5
7
330
0
100
AcDbSymbolTable
 70
0
  0
ENDTAB
  0
TABLE
  2
UCS
  5
6
330
0
100
AcDbSymbolTable
 70
0
  0
ENDTAB
  0
TABLE
  2
APPID
  5
3
330
0
100
AcDbSymbolTable
 70
3
  0
APPID
  5
2A
330
3
100
AcDbSymbolTableRecord
100
AcDbRegAppTableRecord
  2
ACAD
 70
0
  0
APPID
  5
151
330
3
100
AcDbSymbolTableRecord
100
AcDbRegAppTableRecord
  2
HATCHBACKGROUNDCOLOR
 70
0
  0
APPID
  5
152
330
3
100
AcDbSymbolTableRecord
100
AcDbRegAppTableRecord
  2
EZDXF
 70
0
  0
ENDTAB
  0
TABLE
  2
DIMSTYLE
  5
4
330
0
100
AcDbSymbolTable
 70
1
100
AcDbDimStyleTable
  0
DIMSTYLE
105
2B
330
4
100
AcDbSymbolTableRecord
100
AcDbDimStyleTableRecord
  2
Standard
 70
0
 40
1.0
 41
2.5
 42
0.625
 43
3.75
 44
1.25
 45
0.0
 46
0.0
 47
0.0
 48
0.0
 49
2.5
140
2.5
141
2.5
142
0.0
143
0.03937007874
144
1.0
145
0.0
146
1.0
147
0.625
148
0.0
 69
0
 70
0
 71
0
 72
0
 73
0
 74
0
 75
0
 76
0
 77
1
 78
8
 79
3
170
0
171
3
172
1
173
0
174
0
175
0
176
0
177
0
178
0
179
2
271
2
272
2
273
2
274
3
275
0
276
0
277
2
278
44
279
0
280
0
281
0
282
0
283
0
284
8
285
0
286
0
288
0
289
3
290
0
371
-2
372
-2
  0
ENDTAB
  0
TABLE
  2
BLOCK_RECORD
  5
9
330
0
100
AcDbSymbolTable
 70
2
  0
BLOCK_RECORD
  5
17
330
9
100
AcDbSymbolTableRecord
100
AcDbBlockTableRecord
  2
*Model_Space
340
1A
 70
0
280
1
281
0
  0
BLOCK_RECORD
  5
1B
330
9
100
AcDbSymbolTableRecord
100
AcDbBlockTableRecord
  2
*Paper_Space
340
1E
 70
0
280
1
281
0
  0
ENDTAB
  0
ENDSEC
  0
SECTION
  2
BLOCKS
  0
BLOCK
  5
18
330
17
100
AcDbEntity
  8
0
100
AcDbBlockBegin
  2
*Model_Space
 70
0
 10
0.0
 20
0.0
 30
0.0
  3
*Model_Space
  1

  0
ENDBLK
  5
19
330
17
100
AcDbEntity
  8
0
100
AcDbBlockEnd
  0
BLOCK
  5
1C
330
1B
100
AcDbEntity
  8
0
100
AcDbBlockBegin
  2
*Paper_Space
 70
0
 10
0.0
 20
0.0
 30
0.0
  3
*Paper_Space
  1

  0
ENDBLK
  5
1D
330
1B
100
AcDbEntity
  8
0
100
AcDbBlockEnd
  0
ENDSEC
  0
SECTION
  2
ENTITIES
  0
LINE
  5
3E
330
17
100
AcDbEntity
  8
COTA
 62
7
370
25
100
AcDbLine
 10
5327.027766173217
 20
3552.872006563585
 30
0.0
 11
5327.027766173217
 21
3566.872006563585
 31
0.0
  0
LINE
  5
3F
330
17
100
AcDbEntity
  8
COTA
 62
7
370
25
100
AcDbLine
 10
5327.027766173217
 20
3566.872006563585
 30
0.0
 11
5543.027766173223
 21
3566.872006563585
 31
0.0
  0
LINE
  5
40
330
17
100
AcDbEntity
  8
COTA
 62
7
370
25
100
AcDbLine
 10
5543.027766173223
 20
3552.872006563585
 30
0.0
 11
5543.027766173223
 21
3566.872006563585
 31
0.0
  0
LINE
  5
41
330
17
100
AcDbEntity
  8
Painéis
 62
7
370
25
100
AcDbLine
 10
5327.027766173217
 20
3552.872006563585
 30
0.0
 11
5543.027766173223
 21
3552.872006563585
 31
0.0
  0
LINE
  5
42
330
17
100
AcDbEntity
  8
Painéis
 62
7
370
25
100
AcDbLine
 10
5327.027766173217
 20
3522.872006563586
 30
0.0
 11
5543.027766173223
 21
3522.872006563586
 31
0.0
  0
LINE
  5
43
330
17
100
AcDbEntity
  8
Painéis
 62
7
370
25
100
AcDbLine
 10
5327.027766173217
 20
3522.872006563586
 30
0.0
 11
5327.027766173217
 21
3552.872006563585
 31
0.0
  0
LINE
  5
44
330
17
100
AcDbEntity
  8
Painéis
 62
7
370
25
100
AcDbLine
 10
5449.027766173223
 20
3522.872006563586
 30
0.0
 11
5449.027766173223
 21
3552.872006563585
 31
0.0
  0
LINE
  5
45
330
17
100
AcDbEntity
  8
Painéis
 62
7
370
25
100
AcDbLine
 10
5543.027766173223
 20
3522.872006563586
 30
0.0
 11
5543.027766173223
 21
3552.872006563585
 31
0.0
  0
LINE
  5
46
330
17
100
AcDbEntity
  8
SARR_2.2x7
 62
7
370
25
100
AcDbLine
 10
5334.027766173214
 20
3522.872006563586
 30
0.0
 11
5334.027766173214
 21
3552.872006563585
 31
0.0
  0
LINE
  5
47
330
17
100
AcDbEntity
  8
SARR_2.2x7
 62
7
370
25
100
AcDbLine
 10
5536.027766173223
 20
3522.872006563586
 30
0.0
 11
5536.027766173223
 21
3552.872006563585
 31
0.0
  0
LINE
  5
48
330
17
100
AcDbEntity
  8
SARR_2.2x7
 62
7
370
25
100
AcDbLine
 10
5342.027766173217
 20
3550.672006563588
 30
0.0
 11
5449.027766173223
 21
3550.672006563619
 31
0.0
  0
LINE
  5
49
330
17
100
AcDbEntity
  8
SARR_3.5x7
 62
7
370
25
100
AcDbLine
 10
5342.027766173217
 20
3552.8720065636
 30
0.0
 11
5342.027766173218
 21
3522.872006563586
 31
0.0
  0
LINE
  5
4A
330
17
100
AcDbEntity
  8
SARR_3.5x7
 62
7
370
25
100
AcDbLine
 10
5345.527766173217
 20
3550.672006563603
 30
0.0
 11
5345.527766173218
 21
3522.872006563586
 31
0.0
  0
LINE
  5
4B
330
17
100
AcDbEntity
  8
SARR_2.2x7
 62
7
370
25
100
AcDbLine
 10
5449.027766173221
 20
3550.672006563592
 30
0.0
 11
5528.02776617321
 21
3550.672006563592
 31
0.0
  0
LINE
  5
4C
330
17
100
AcDbEntity
  8
SARR_3.5x7
 62
7
370
25
100
AcDbLine
 10
5528.027766173211
 20
3552.872006563575
 30
0.0
 11
5528.02776617321
 21
3522.872006563586
 31
0.0
  0
LINE
  5
4D
330
17
100
AcDbEntity
  8
SARR_3.5x7
 62
7
370
25
100
AcDbLine
 10
5524.527766173211
 20
3550.672006563578
 30
0.0
 11
5524.527766173209
 21
3522.872006563586
 31
0.0
  0
LINE
  5
4E
330
17
100
AcDbEntity
  8
SARR_3.5x7
 62
7
370
25
100
AcDbLine
 10
5452.527766173251
 20
3550.672006563644
 30
0.0
 11
5452.527766173276
 21
3522.872006563586
 31
0.0
  0
LINE
  5
4F
330
17
100
AcDbEntity
  8
SARR_3.5x7
 62
7
370
25
100
AcDbLine
 10
5445.527766173164
 20
3550.672006563701
 30
0.0
 11
5445.527766173142
 21
3522.872006563586
 31
0.0
  0
LINE
  5
50
330
17
100
AcDbEntity
  8
Defpoints
 62
7
370
25
100
AcDbLine
 10
5132.093109151728
 20
3501.28089870622
 30
0.0
 11
5132.093109151728
 21
3626.28089870622
 31
0.0
  0
LINE
  5
51
330
17
100
AcDbEntity
  8
presilha
 62
7
370
25
100
AcDbLine
 10
5089.02591001719
 20
3412.6475653729203
 30
0.0
 11
5089.02591001719
 21
3408.0477253729346
 31
0.0
  0
LINE
  5
52
330
17
100
AcDbEntity
  8
presilha
 62
7
370
25
100
AcDbLine
 10
5089.02591001719
 20
3408.0477253729346
 30
0.0
 11
5069.025545512838
 21
3408.0477253729273
 31
0.0
  0
LINE
  5
53
330
17
100
AcDbEntity
  8
presilha
 62
7
370
25
100
AcDbLine
 10
5068.025545512838
 20
3415.647565372921
 30
0.0
 11
5069.025545512838
 21
3415.647565372921
 31
0.0
  0
LINE
  5
54
330
17
100
AcDbEntity
  8
presilha
 62
7
370
25
100
AcDbLine
 10
5069.025545512838
 20
3415.647565372921
 30
0.0
 11
5069.025545512838
 21
3403.647565372921
 31
0.0
  0
LINE
  5
55
330
17
100
AcDbEntity
  8
presilha
 62
7
370
25
100
AcDbLine
 10
5069.025545512838
 20
3403.647565372921
 30
0.0
 11
5068.025545512838
 21
3403.647565372921
 31
0.0
  0
LINE
  5
56
330
17
100
AcDbEntity
  8
presilha
 62
7
370
25
100
AcDbLine
 10
5068.025545512838
 20
3403.647565372921
 30
0.0
 11
5068.025545512838
 21
3415.647565372921
 31
0.0
  0
LINE
  5
57
330
17
100
AcDbEntity
  8
presilha
 62
7
370
25
100
AcDbLine
 10
5072.025545512836
 20
3419.314232039587
 30
0.0
 11
5072.025545512836
 21
3418.314232039587
 31
0.0
  0
LINE
  5
58
330
17
100
AcDbEntity
  8
presilha
 62
7
370
25
100
AcDbLine
 10
5089.02591001719
 20
3412.64756537292
 30
0.0
 11
5070.40591001719
 21
3412.64756537292
 31
0.0
  0
LINE
  5
59
330
17
100
AcDbEntity
  8
presilha
 62
7
370
25
100
AcDbLine
 10
5069.02591001719
 20
3412.4075653729196
 30
0.0
 11
5069.025545512836
 21
3418.5542320395894
 31
0.0
  0
LINE
  5
5A
330
17
100
AcDbEntity
  8
presilha
 62
7
370
25
100
AcDbLine
 10
5070.025910017189
 20
3413.02756537292
 30
0.0
 11
5070.025545512836
 21
3417.9342320395867
 31
0.0
  0
LINE
  5
5B
330
17
100
AcDbEntity
  8
presilha
 62
7
370
25
100
AcDbLine
 10
5072.025545512836
 20
3419.314232039587
 30
0.0
 11
5069.7855455128165
 21
3419.314232039587
 31
0.0
  0
LINE
  5
5C
330
17
100
AcDbEntity
  8
presilha
 62
7
370
25
100
AcDbLine
 10
5072.025545512836
 20
3418.314232039587
 30
0.0
 11
5070.405545512836
 21
3418.314232039587
 31
0.0
  0
LINE
  5
5D
330
17
100
AcDbEntity
  8
presilha
 62
7
370
25
100
AcDbLine
 10
5064.025545512837
 20
3413.9808987062556
 30
0.0
 11
5068.025545512837
 21
3413.9808987062556
 31
0.0
  0
LINE
  5
5E
330
17
100
AcDbEntity
  8
presilha
 62
7
370
25
100
AcDbLine
 10
5068.025545512837
 20
3413.9808987062556
 30
0.0
 11
5068.025545512837
 21
3405.314232039589
 31
0.0
  0
LINE
  5
5F
330
17
100
AcDbEntity
  8
presilha
 62
7
370
25
100
AcDbLine
 10
5068.025545512837
 20
3405.314232039589
 30
0.0
 11
5064.025545512837
 21
3405.314232039589
 31
0.0
  0
LINE
  5
60
330
17
100
AcDbEntity
  8
presilha
 62
7
370
25
100
AcDbLine
 10
5064.025545512837
 20
3413.9808987062556
 30
0.0
 11
5064.025545512837
 21
3405.314232039589
 31
0.0
  0
LINE
  5
61
330
17
100
AcDbEntity
  8
presilha
 62
7
370
25
100
AcDbLine
 10
5170.760308286273
 20
3412.6475653729203
 30
0.0
 11
5170.760308286273
 21
3408.0477253729346
 31
0.0
  0
LINE
  5
62
330
17
100
AcDbEntity
  8
presilha
 62
7
370
25
100
AcDbLine
 10
5170.760308286273
 20
3408.0477253729346
 30
0.0
 11
5190.760672790625
 21
3408.0477253729273
 31
0.0
  0
LINE
  5
63
330
17
100
AcDbEntity
  8
presilha
 62
7
370
25
100
AcDbLine
 10
5191.760672790625
 20
3415.647565372921
 30
0.0
 11
5190.760672790625
 21
3415.647565372921
 31
0.0
  0
LINE
  5
64
330
17
100
AcDbEntity
  8
presilha
 62
7
370
25
100
AcDbLine
 10
5190.760672790625
 20
3415.647565372921
 30
0.0
 11
5190.760672790625
 21
3403.647565372921
 31
0.0
  0
LINE
  5
65
330
17
100
AcDbEntity
  8
presilha
 62
7
370
25
100
AcDbLine
 10
5190.760672790625
 20
3403.647565372921
 30
0.0
 11
5191.760672790625
 21
3403.647565372921
 31
0.0
  0
LINE
  5
66
330
17
100
AcDbEntity
  8
presilha
 62
7
370
25
100
AcDbLine
 10
5191.760672790625
 20
3403.647565372921
 30
0.0
 11
5191.760672790625
 21
3415.647565372921
 31
0.0
  0
LINE
  5
67
330
17
100
AcDbEntity
  8
presilha
 62
7
370
25
100
AcDbLine
 10
5187.760672790627
 20
3419.314232039587
 30
0.0
 11
5187.760672790627
 21
3418.314232039587
 31
0.0
  0
LINE
  5
68
330
17
100
AcDbEntity
  8
presilha
 62
7
370
25
100
AcDbLine
 10
5170.760308286273
 20
3412.64756537292
 30
0.0
 11
5189.380308286273
 21
3412.64756537292
 31
0.0
  0
LINE
  5
69
330
17
100
AcDbEntity
  8
presilha
 62
7
370
25
100
AcDbLine
 10
5190.760308286273
 20
3412.4075653729196
 30
0.0
 11
5190.760672790627
 21
3418.5542320395894
 31
0.0
  0
LINE
  5
6A
330
17
100
AcDbEntity
  8
presilha
 62
7
370
25
100
AcDbLine
 10
5189.760308286274
 20
3413.02756537292
 30
0.0
 11
5189.760672790627
 21
3417.9342320395867
 31
0.0
  0
LINE
  5
6B
330
17
100
AcDbEntity
  8
presilha
 62
7
370
25
100
AcDbLine
 10
5187.760672790627
 20
3419.314232039587
 30
0.0
 11
5190.000672790647
 21
3419.314232039587
 31
0.0
  0
LINE
  5
6C
330
17
100
AcDbEntity
  8
presilha
 62
7
370
25
100
AcDbLine
 10
5187.760672790627
 20
3418.314232039587
 30
0.0
 11
5189.380672790627
 21
3418.314232039587
 31
0.0
  0
LINE
  5
6D
330
17
100
AcDbEntity
  8
presilha
 62
7
370
25
100
AcDbLine
 10
5195.760672790626
 20
3413.9808987062556
 30
0.0
 11
5191.760672790626
 21
3413.9808987062556
 31
0.0
  0
LINE
  5
6E
330
17
100
AcDbEntity
  8
presilha
 62
7
370
25
100
AcDbLine
 10
5191.760672790626
 20
3413.9808987062556
 30
0.0
 11
5191.760672790626
 21
3405.314232039589
 31
0.0
  0
LINE
  5
6F
330
17
100
AcDbEntity
  8
presilha
 62
7
370
25
100
AcDbLine
 10
5191.760672790626
 20
3405.314232039589
 30
0.0
 11
5195.760672790626
 21
3405.314232039589
 31
0.0
  0
LINE
  5
70
330
17
100
AcDbEntity
  8
presilha
 62
7
370
25
100
AcDbLine
 10
5195.760672790626
 20
3413.9808987062556
 30
0.0
 11
5195.760672790626
 21
3405.314232039589
 31
0.0
  0
LINE
  5
71
330
17
100
AcDbEntity
  8
0
 62
7
370
25
100
AcDbLine
 10
5062.893109151702
 20
3449.250956234511
 30
0.0
 11
5062.893109151702
 21
3437.250956234512
 31
0.0
  0
LINE
  5
72
330
17
100
AcDbEntity
  8
0
 62
7
370
25
100
AcDbLine
 10
5198.893109151732
 20
3446.250956234526
 30
0.0
 11
5198.893109151732
 21
3440.250956234526
 31
0.0
  0
LINE
  5
73
330
17
100
AcDbEntity
  8
0
 62
7
370
25
100
AcDbLine
 10
5196.893109151732
 20
3449.250956234526
 30
0.0
 11
5196.893109151732
 21
3437.250956234526
 31
0.0
  0
LINE
  5
74
330
17
100
AcDbEntity
  8
0
 62
7
370
25
100
AcDbLine
 10
5196.893109151732
 20
3440.250956234526
 30
0.0
 11
5198.893109151732
 21
3440.250956234526
 31
0.0
  0
LINE
  5
75
330
17
100
AcDbEntity
  8
0
 62
7
370
25
100
AcDbLine
 10
5062.893109151702
 20
3437.250956234512
 30
0.0
 11
5092.893109151702
 21
3437.250956234512
 31
0.0
  0
LINE
  5
76
330
17
100
AcDbEntity
  8
0
 62
7
370
25
100
AcDbLine
 10
5166.893109151732
 20
3442.250956234526
 30
0.0
 11
5196.893109151732
 21
3442.250956234526
 31
0.0
  0
LINE
  5
77
330
17
100
AcDbEntity
  8
0
 62
7
370
25
100
AcDbLine
 10
5166.893109151732
 20
3444.250956234526
 30
0.0
 11
5196.893109151732
 21
3444.250956234526
 31
0.0
  0
LINE
  5
78
330
17
100
AcDbEntity
  8
TENSOR
 62
7
370
25
100
AcDbLine
 10
5201.893109151732
 20
3443.250956234511
 30
0.0
 11
5057.589814973604
 21
3443.250956234511
 31
0.0
  0
LINE
  5
79
330
17
100
AcDbEntity
  8
0
 62
7
370
25
100
AcDbLine
 10
5196.893109151732
 20
3446.250956234526
 30
0.0
 11
5198.893109151732
 21
3446.250956234526
 31
0.0
  0
LINE
  5
7A
330
17
100
AcDbEntity
  8
0
 62
7
370
25
100
AcDbLine
 10
5092.893109151702
 20
3442.250956234512
 30
0.0
 11
5062.893109151702
 21
3442.250956234512
 31
0.0
  0
LINE
  5
7B
330
17
100
AcDbEntity
  8
0
 62
7
370
25
100
AcDbLine
 10
5092.893109151702
 20
3444.250956234512
 30
0.0
 11
5062.893109151702
 21
3444.250956234512
 31
0.0
  0
LINE
  5
7C
330
17
100
AcDbEntity
  8
0
 62
7
370
25
100
AcDbLine
 10
5062.893109151702
 20
3449.250956234511
 30
0.0
 11
5092.893109151702
 21
3449.250956234511
 31
0.0
  0
LINE
  5
7D
330
17
100
AcDbEntity
  8
0
 62
7
370
25
100
AcDbLine
 10
5196.893109151732
 20
3437.250956234526
 30
0.0
 11
5166.893109151732
 21
3437.250956234526
 31
0.0
  0
LINE
  5
7E
330
17
100
AcDbEntity
  8
0
 62
7
370
25
100
AcDbLine
 10
5196.893109151732
 20
3449.250956234526
 30
0.0
 11
5166.893109151732
 21
3449.250956234526
 31
0.0
  0
LINE
  5
7F
330
17
100
AcDbEntity
  8
0
 62
7
370
25
100
AcDbLine
 10
5060.893109151702
 20
3446.250956234511
 30
0.0
 11
5060.893109151702
 21
3440.250956234512
 31
0.0
  0
LINE
  5
80
330
17
100
AcDbEntity
  8
0
 62
7
370
25
100
AcDbLine
 10
5062.893109151702
 20
3440.250956234512
 30
0.0
 11
5060.893109151702
 21
3440.250956234512
 31
0.0
  0
LINE
  5
81
330
17
100
AcDbEntity
  8
0
 62
7
370
25
100
AcDbLine
 10
5060.893109151702
 20
3446.250956234511
 30
0.0
 11
5062.893109151702
 21
3446.250956234511
 31
0.0
  0
LINE
  5
82
330
17
100
AcDbEntity
  8
Painéis
 62
7
370
25
100
AcDbLine
 10
5672.794133733026
 20
3566.872006563585
 30
0.0
 11
5853.794133733032
 21
3566.872006563585
 31
0.0
  0
LINE
  5
83
330
17
100
AcDbEntity
  8
Painéis
 62
7
370
25
100
AcDbLine
 10
5672.794133733026
 20
3522.872006563586
 30
0.0
 11
5853.794133733032
 21
3522.872006563586
 31
0.0
  0
LINE
  5
84
330
17
100
AcDbEntity
  8
Painéis
 62
7
370
25
100
AcDbLine
 10
5672.794133733026
 20
3522.872006563586
 30
0.0
 11
5672.794133733026
 21
3566.872006563585
 31
0.0
  0
LINE
  5
85
330
17
100
AcDbEntity
  8
Painéis
 62
7
370
25
100
AcDbLine
 10
5853.794133733032
 20
3522.872006563586
 30
0.0
 11
5853.794133733032
 21
3566.872006563585
 31
0.0
  0
LINE
  5
86
330
17
100
AcDbEntity
  8
SARR_2.2x7
 62
7
370
25
100
AcDbLine
 10
5679.794133733022
 20
3522.872006563586
 30
0.0
 11
5679.794133733022
 21
3566.872006563585
 31
0.0
  0
LINE
  5
87
330
17
100
AcDbEntity
  8
SARR_2.2x7
 62
7
370
25
100
AcDbLine
 10
5846.794133733031
 20
3522.872006563586
 30
0.0
 11
5846.794133733031
 21
3566.872006563585
 31
0.0
  0
LINE
  5
88
330
17
100
AcDbEntity
  8
SARR_2.2x7
 62
7
370
25
100
AcDbLine
 10
5687.794133733025
 20
3564.672006563589
 30
0.0
 11
5838.79413373302
 21
3564.672006563576
 31
0.0
  0
LINE
  5
89
330
17
100
AcDbEntity
  8
SARR_3.5x7
 62
7
370
25
100
AcDbLine
 10
5687.794133733025
 20
3566.8720065636
 30
0.0
 11
5687.794133733027
 21
3522.872006563586
 31
0.0
  0
LINE
  5
8A
330
17
100
AcDbEntity
  8
SARR_3.5x7
 62
7
370
25
100
AcDbLine
 10
5691.294133733026
 20
3564.672006563603
 30
0.0
 11
5691.294133733027
 21
3522.872006563586
 31
0.0
  0
LINE
  5
8B
330
17
100
AcDbEntity
  8
SARR_3.5x7
 62
7
370
25
100
AcDbLine
 10
5838.794133733021
 20
3566.872006563575
 30
0.0
 11
5838.794133733017
 21
3522.872006563586
 31
0.0
  0
LINE
  5
8C
330
17
100
AcDbEntity
  8
SARR_3.5x7
 62
7
370
25
100
AcDbLine
 10
5835.294133733021
 20
3564.672006563578
 30
0.0
 11
5835.294133733018
 21
3522.872006563586
 31
0.0
  0
LINE
  5
8D
330
17
100
AcDbEntity
  8
Painéis
 62
7
370
25
100
AcDbLine
 10
5869.560435101899
 20
3566.872006563585
 30
0.0
 11
5923.560435101904
 21
3566.872006563585
 31
0.0
  0
LINE
  5
8E
330
17
100
AcDbEntity
  8
Painéis
 62
7
370
25
100
AcDbLine
 10
5869.560435101899
 20
3522.872006563586
 30
0.0
 11
5923.560435101904
 21
3522.872006563583
 31
0.0
  0
LINE
  5
8F
330
17
100
AcDbEntity
  8
Painéis
 62
7
370
25
100
AcDbLine
 10
5869.560435101899
 20
3522.872006563586
 30
0.0
 11
5869.560435101899
 21
3566.872006563585
 31
0.0
  0
LINE
  5
90
330
17
100
AcDbEntity
  8
Painéis
 62
7
370
25
100
AcDbLine
 10
5923.560435101904
 20
3522.872006563584
 30
0.0
 11
5923.560435101904
 21
3566.872006563585
 31
0.0
  0
LINE
  5
91
330
17
100
AcDbEntity
  8
SARR_2.2x7
 62
7
370
25
100
AcDbLine
 10
5876.560435101895
 20
3522.872006563586
 30
0.0
 11
5876.560435101895
 21
3566.872006563585
 31
0.0
  0
LINE
  5
92
330
17
100
AcDbEntity
  8
SARR_2.2x7
 62
7
370
25
100
AcDbLine
 10
5916.560435101904
 20
3522.872006563586
 30
0.0
 11
5916.560435101904
 21
3566.872006563585
 31
0.0
  0
LINE
  5
93
330
17
100
AcDbEntity
  8
SARR_2.2x7
 62
7
370
25
100
AcDbLine
 10
5884.560435101898
 20
3564.672006563589
 30
0.0
 11
5908.560435101892
 21
3564.672006563576
 31
0.0
  0
LINE
  5
94
330
17
100
AcDbEntity
  8
SARR_3.5x7
 62
7
370
25
100
AcDbLine
 10
5884.560435101898
 20
3566.8720065636
 30
0.0
 11
5884.560435101899
 21
3522.872006563586
 31
0.0
  0
LINE
  5
95
330
17
100
AcDbEntity
  8
SARR_3.5x7
 62
7
370
25
100
AcDbLine
 10
5888.060435101898
 20
3564.672006563603
 30
0.0
 11
5888.060435101899
 21
3522.872006563586
 31
0.0
  0
LINE
  5
96
330
17
100
AcDbEntity
  8
SARR_3.5x7
 62
7
370
25
100
AcDbLine
 10
5908.560435101893
 20
3566.872006563575
 30
0.0
 11
5908.56043510189
 21
3522.872006563586
 31
0.0
  0
LINE
  5
97
330
17
100
AcDbEntity
  8
SARR_3.5x7
 62
7
370
25
100
AcDbLine
 10
5905.060435101893
 20
3564.672006563578
 30
0.0
 11
5905.060435101891
 21
3522.872006563586
 31
0.0
  0
LINE
  5
98
330
17
100
AcDbEntity
  8
COTA
 62
7
370
25
100
AcDbLine
 10
4977.707468427921
 20
3276.459475030365
 30
0.0
 11
6347.707468427921
 21
3276.459475030365
 31
0.0
  0
LINE
  5
99
330
17
100
AcDbEntity
  8
COTA
 62
7
370
25
100
AcDbLine
 10
5327.027766173231
 20
3203.050582887728
 30
0.0
 11
5327.027766173231
 21
3217.050582887728
 31
0.0
  0
LINE
  5
9A
330
17
100
AcDbEntity
  8
COTA
 62
7
370
25
100
AcDbLine
 10
5327.027766173231
 20
3217.050582887728
 30
0.0
 11
5775.027766173238
 21
3217.050582887728
 31
0.0
  0
LINE
  5
9B
330
17
100
AcDbEntity
  8
COTA
 62
7
370
25
100
AcDbLine
 10
5775.027766173238
 20
3173.050582887728
 30
0.0
 11
5775.027766173238
 21
3217.050582887728
 31
0.0
  0
LINE
  5
9C
330
17
100
AcDbEntity
  8
Painéis
 62
7
370
25
100
AcDbLine
 10
5327.027766173231
 20
3203.050582887728
 30
0.0
 11
5745.027766173237
 21
3203.050582887728
 31
0.0
  0
LINE
  5
9D
330
17
100
AcDbEntity
  8
Painéis
 62
7
370
25
100
AcDbLine
 10
5327.027766173231
 20
3163.050582887728
 30
0.0
 11
5775.027766173237
 21
3163.050582887728
 31
0.0
  0
LINE
  5
9E
330
17
100
AcDbEntity
  8
Painéis
 62
7
370
25
100
AcDbLine
 10
5327.027766173231
 20
3163.050582887728
 30
0.0
 11
5327.027766173231
 21
3203.050582887728
 31
0.0
  0
LINE
  5
9F
330
17
100
AcDbEntity
  8
Painéis
 62
7
370
25
100
AcDbLine
 10
5571.027766173237
 20
3163.050582887728
 30
0.0
 11
5571.027766173237
 21
3203.050582887728
 31
0.0
  0
LINE
  5
A0
330
17
100
AcDbEntity
  8
Painéis
 62
7
370
25
100
AcDbLine
 10
5745.027766173237
 20
3173.050582887728
 30
0.0
 11
5745.027766173237
 21
3203.050582887728
 31
0.0
  0
LINE
  5
A1
330
17
100
AcDbEntity
  8
SARR_2.2x7
 62
7
370
25
100
AcDbLine
 10
5334.027766173228
 20
3163.050582887728
 30
0.0
 11
5334.027766173228
 21
3203.050582887728
 31
0.0
  0
LINE
  5
A2
330
17
100
AcDbEntity
  8
SARR_2.2x7
 62
7
370
25
100
AcDbLine
 10
5342.027766173231
 20
3200.85058288773
 30
0.0
 11
5571.027766173237
 21
3200.850582887762
 31
0.0
  0
LINE
  5
A3
330
17
100
AcDbEntity
  8
SARR_3.5x7
 62
7
370
25
100
AcDbLine
 10
5342.027766173231
 20
3203.050582887743
 30
0.0
 11
5342.027766173233
 21
3163.050582887728
 31
0.0
  0
LINE
  5
A4
330
17
100
AcDbEntity
  8
SARR_3.5x7
 62
7
370
25
100
AcDbLine
 10
5345.527766173232
 20
3200.850582887746
 30
0.0
 11
5345.527766173232
 21
3163.050582887728
 31
0.0
  0
LINE
  5
A5
330
17
100
AcDbEntity
  8
SARR_2.2x7
 62
7
370
25
100
AcDbLine
 10
5571.027766173236
 20
3200.850582887734
 30
0.0
 11
5745.027766173237
 21
3200.850582887734
 31
0.0
  0
LINE
  5
A6
330
17
100
AcDbEntity
  8
SARR_3.5x7
 62
7
370
25
100
AcDbLine
 10
5745.027766173238
 20
3203.050582887717
 30
0.0
 11
5745.027766173235
 21
3163.050582887728
 31
0.0
  0
LINE
  5
A7
330
17
100
AcDbEntity
  8
SARR_3.5x7
 62
7
370
25
100
AcDbLine
 10
5741.527766173238
 20
3200.85058288772
 30
0.0
 11
5741.527766173235
 21
3163.050582887728
 31
0.0
  0
LINE
  5
A8
330
17
100
AcDbEntity
  8
SARR_3.5x7
 62
7
370
25
100
AcDbLine
 10
5574.527766173266
 20
3200.850582887786
 30
0.0
 11
5574.52776617329
 21
3163.050582887728
 31
0.0
  0
LINE
  5
A9
330
17
100
AcDbEntity
  8
SARR_3.5x7
 62
7
370
25
100
AcDbLine
 10
5567.527766173179
 20
3200.850582887844
 30
0.0
 11
5567.527766173157
 21
3163.050582887728
 31
0.0
  0
LINE
  5
AA
330
17
100
AcDbEntity
  8
Defpoints
 62
7
370
25
100
AcDbLine
 10
5132.093109151742
 20
3151.459475030363
 30
0.0
 11
5132.093109151742
 21
3276.459475030363
 31
0.0
  0
LINE
  5
AB
330
17
100
AcDbEntity
  8
presilha
 62
7
370
25
100
AcDbLine
 10
5089.025910017203
 20
3042.826141697063
 30
0.0
 11
5089.025910017203
 21
3038.2263016970774
 31
0.0
  0
LINE
  5
AC
330
17
100
AcDbEntity
  8
presilha
 62
7
370
25
100
AcDbLine
 10
5089.025910017203
 20
3038.2263016970774
 30
0.0
 11
5069.025545512852
 21
3038.22630169707
 31
0.0
  0
LINE
  5
AD
330
17
100
AcDbEntity
  8
presilha
 62
7
370
25
100
AcDbLine
 10
5068.025545512852
 20
3045.8261416970636
 30
0.0
 11
5069.025545512852
 21
3045.8261416970636
 31
0.0
  0
LINE
  5
AE
330
17
100
AcDbEntity
  8
presilha
 62
7
370
25
100
AcDbLine
 10
5069.025545512852
 20
3045.8261416970636
 30
0.0
 11
5069.025545512852
 21
3033.8261416970636
 31
0.0
  0
LINE
  5
AF
330
17
100
AcDbEntity
  8
presilha
 62
7
370
25
100
AcDbLine
 10
5069.025545512852
 20
3033.8261416970636
 30
0.0
 11
5068.025545512852
 21
3033.8261416970636
 31
0.0
  0
LINE
  5
B0
330
17
100
AcDbEntity
  8
presilha
 62
7
370
25
100
AcDbLine
 10
5068.025545512852
 20
3033.8261416970636
 30
0.0
 11
5068.025545512852
 21
3045.8261416970636
 31
0.0
  0
LINE
  5
B1
330
17
100
AcDbEntity
  8
presilha
 62
7
370
25
100
AcDbLine
 10
5072.02554551285
 20
3049.4928083637296
 30
0.0
 11
5072.02554551285
 21
3048.4928083637296
 31
0.0
  0
LINE
  5
B2
330
17
100
AcDbEntity
  8
presilha
 62
7
370
25
100
AcDbLine
 10
5089.025910017203
 20
3042.8261416970627
 30
0.0
 11
5070.4059100172035
 21
3042.8261416970627
 31
0.0
  0
LINE
  5
B3
330
17
100
AcDbEntity
  8
presilha
 62
7
370
25
100
AcDbLine
 10
5069.025910017203
 20
3042.5861416970624
 30
0.0
 11
5069.02554551285
 21
3048.732808363732
 31
0.0
  0
LINE
  5
B4
330
17
100
AcDbEntity
  8
presilha
 62
7
370
25
100
AcDbLine
 10
5070.0259100172025
 20
3043.206141697063
 30
0.0
 11
5070.02554551285
 21
3048.1128083637295
 31
0.0
  0
LINE
  5
B5
330
17
100
AcDbEntity
  8
presilha
 62
7
370
25
100
AcDbLine
 10
5072.02554551285
 20
3049.4928083637296
 30
0.0
 11
5069.78554551283
 21
3049.4928083637296
 31
0.0
  0
LINE
  5
B6
330
17
100
AcDbEntity
  8
presilha
 62
7
370
25
100
AcDbLine
 10
5072.02554551285
 20
3048.4928083637296
 30
0.0
 11
5070.40554551285
 21
3048.4928083637296
 31
0.0
  0
LINE
  5
B7
330
17
100
AcDbEntity
  8
presilha
 62
7
370
25
100
AcDbLine
 10
5064.025545512851
 20
3044.1594750303984
 30
0.0
 11
5068.025545512851
 21
3044.1594750303984
 31
0.0
  0
LINE
  5
B8
330
17
100
AcDbEntity
  8
presilha
 62
7
370
25
100
AcDbLine
 10
5068.025545512851
 20
3044.1594750303984
 30
0.0
 11
5068.025545512851
 21
3035.492808363732
 31
0.0
  0
LINE
  5
B9
330
17
100
AcDbEntity
  8
presilha
 62
7
370
25
100
AcDbLine
 10
5068.025545512851
 20
3035.492808363732
 30
0.0
 11
5064.025545512851
 21
3035.492808363732
 31
0.0
  0
LINE
  5
BA
330
17
100
AcDbEntity
  8
presilha
 62
7
370
25
100
AcDbLine
 10
5064.025545512851
 20
3044.1594750303984
 30
0.0
 11
5064.025545512851
 21
3035.492808363732
 31
0.0
  0
LINE
  5
BB
330
17
100
AcDbEntity
  8
presilha
 62
7
370
25
100
AcDbLine
 10
5170.760308286287
 20
3042.826141697063
 30
0.0
 11
5170.760308286287
 21
3038.2263016970774
 31
0.0
  0
LINE
  5
BC
330
17
100
AcDbEntity
  8
presilha
 62
7
370
25
100
AcDbLine
 10
5170.760308286287
 20
3038.2263016970774
 30
0.0
 11
5190.760672790639
 21
3038.22630169707
 31
0.0
  0
LINE
  5
BD
330
17
100
AcDbEntity
  8
presilha
 62
7
370
25
100
AcDbLine
 10
5191.760672790639
 20
3045.8261416970636
 30
0.0
 11
5190.760672790639
 21
3045.8261416970636
 31
0.0
  0
LINE
  5
BE
330
17
100
AcDbEntity
  8
presilha
 62
7
370
25
100
AcDbLine
 10
5190.760672790639
 20
3045.8261416970636
 30
0.0
 11
5190.760672790639
 21
3033.8261416970636
 31
0.0
  0
LINE
  5
BF
330
17
100
AcDbEntity
  8
presilha
 62
7
370
25
100
AcDbLine
 10
5190.760672790639
 20
3033.8261416970636
 30
0.0
 11
5191.760672790639
 21
3033.8261416970636
 31
0.0
  0
LINE
  5
C0
330
17
100
AcDbEntity
  8
presilha
 62
7
370
25
100
AcDbLine
 10
5191.760672790639
 20
3033.8261416970636
 30
0.0
 11
5191.760672790639
 21
3045.8261416970636
 31
0.0
  0
LINE
  5
C1
330
17
100
AcDbEntity
  8
presilha
 62
7
370
25
100
AcDbLine
 10
5187.7606727906405
 20
3049.4928083637296
 30
0.0
 11
5187.7606727906405
 21
3048.4928083637296
 31
0.0
  0
LINE
  5
C2
330
17
100
AcDbEntity
  8
presilha
 62
7
370
25
100
AcDbLine
 10
5170.760308286287
 20
3042.8261416970627
 30
0.0
 11
5189.380308286287
 21
3042.8261416970627
 31
0.0
  0
LINE
  5
C3
330
17
100
AcDbEntity
  8
presilha
 62
7
370
25
100
AcDbLine
 10
5190.760308286287
 20
3042.5861416970624
 30
0.0
 11
5190.7606727906405
 21
3048.732808363732
 31
0.0
  0
LINE
  5
C4
330
17
100
AcDbEntity
  8
presilha
 62
7
370
25
100
AcDbLine
 10
5189.760308286288
 20
3043.206141697063
 30
0.0
 11
5189.7606727906405
 21
3048.1128083637295
 31
0.0
  0
LINE
  5
C5
330
17
100
AcDbEntity
  8
presilha
 62
7
370
25
100
AcDbLine
 10
5187.7606727906405
 20
3049.4928083637296
 30
0.0
 11
5190.00067279066
 21
3049.4928083637296
 31
0.0
  0
LINE
  5
C6
330
17
100
AcDbEntity
  8
presilha
 62
7
370
25
100
AcDbLine
 10
5187.7606727906405
 20
3048.4928083637296
 30
0.0
 11
5189.38067279064
 21
3048.4928083637296
 31
0.0
  0
LINE
  5
C7
330
17
100
AcDbEntity
  8
presilha
 62
7
370
25
100
AcDbLine
 10
5195.76067279064
 20
3044.1594750303984
 30
0.0
 11
5191.76067279064
 21
3044.1594750303984
 31
0.0
  0
LINE
  5
C8
330
17
100
AcDbEntity
  8
presilha
 62
7
370
25
100
AcDbLine
 10
5191.76067279064
 20
3044.1594750303984
 30
0.0
 11
5191.76067279064
 21
3035.492808363732
 31
0.0
  0
LINE
  5
C9
330
17
100
AcDbEntity
  8
presilha
 62
7
370
25
100
AcDbLine
 10
5191.76067279064
 20
3035.492808363732
 30
0.0
 11
5195.76067279064
 21
3035.492808363732
 31
0.0
  0
LINE
  5
CA
330
17
100
AcDbEntity
  8
presilha
 62
7
370
25
100
AcDbLine
 10
5195.76067279064
 20
3044.1594750303984
 30
0.0
 11
5195.76067279064
 21
3035.492808363732
 31
0.0
  0
LINE
  5
CB
330
17
100
AcDbEntity
  8
0
 62
7
370
25
100
AcDbLine
 10
5062.893109151717
 20
3099.429532558654
 30
0.0
 11
5062.893109151717
 21
3087.429532558654
 31
0.0
  0
LINE
  5
CC
330
17
100
AcDbEntity
  8
0
 62
7
370
25
100
AcDbLine
 10
5198.893109151747
 20
3096.429532558668
 30
0.0
 11
5198.893109151747
 21
3090.429532558668
 31
0.0
  0
LINE
  5
CD
330
17
100
AcDbEntity
  8
0
 62
7
370
25
100
AcDbLine
 10
5196.893109151746
 20
3099.429532558668
 30
0.0
 11
5196.893109151746
 21
3087.429532558668
 31
0.0
  0
LINE
  5
CE
330
17
100
AcDbEntity
  8
0
 62
7
370
25
100
AcDbLine
 10
5196.893109151746
 20
3090.429532558668
 30
0.0
 11
5198.893109151747
 21
3090.429532558668
 31
0.0
  0
LINE
  5
CF
330
17
100
AcDbEntity
  8
0
 62
7
370
25
100
AcDbLine
 10
5062.893109151717
 20
3087.429532558654
 30
0.0
 11
5092.893109151717
 21
3087.429532558654
 31
0.0
  0
LINE
  5
D0
330
17
100
AcDbEntity
  8
0
 62
7
370
25
100
AcDbLine
 10
5166.893109151747
 20
3092.429532558668
 30
0.0
 11
5196.893109151746
 21
3092.429532558668
 31
0.0
  0
LINE
  5
D1
330
17
100
AcDbEntity
  8
0
 62
7
370
25
100
AcDbLine
 10
5166.893109151747
 20
3094.429532558669
 30
0.0
 11
5196.893109151746
 21
3094.429532558669
 31
0.0
  0
LINE
  5
D2
330
17
100
AcDbEntity
  8
TENSOR
 62
7
370
25
100
AcDbLine
 10
5201.893109151746
 20
3093.429532558654
 30
0.0
 11
5057.589814973619
 21
3093.429532558654
 31
0.0
  0
LINE
  5
D3
330
17
100
AcDbEntity
  8
0
 62
7
370
25
100
AcDbLine
 10
5196.893109151746
 20
3096.429532558668
 30
0.0
 11
5198.893109151747
 21
3096.429532558668
 31
0.0
  0
LINE
  5
D4
330
17
100
AcDbEntity
  8
0
 62
7
370
25
100
AcDbLine
 10
5092.893109151717
 20
3092.429532558654
 30
0.0
 11
5062.893109151717
 21
3092.429532558654
 31
0.0
  0
LINE
  5
D5
330
17
100
AcDbEntity
  8
0
 62
7
370
25
100
AcDbLine
 10
5092.893109151717
 20
3094.429532558654
 30
0.0
 11
5062.893109151717
 21
3094.429532558654
 31
0.0
  0
LINE
  5
D6
330
17
100
AcDbEntity
  8
0
 62
7
370
25
100
AcDbLine
 10
5062.893109151717
 20
3099.429532558654
 30
0.0
 11
5092.893109151717
 21
3099.429532558654
 31
0.0
  0
LINE
  5
D7
330
17
100
AcDbEntity
  8
0
 62
7
370
25
100
AcDbLine
 10
5196.893109151746
 20
3087.429532558668
 30
0.0
 11
5166.893109151747
 21
3087.429532558668
 31
0.0
  0
LINE
  5
D8
330
17
100
AcDbEntity
  8
0
 62
7
370
25
100
AcDbLine
 10
5196.893109151746
 20
3099.429532558668
 30
0.0
 11
5166.893109151747
 21
3099.429532558668
 31
0.0
  0
LINE
  5
D9
330
17
100
AcDbEntity
  8
0
 62
7
370
25
100
AcDbLine
 10
5060.893109151717
 20
3096.429532558654
 30
0.0
 11
5060.893109151717
 21
3090.429532558653
 31
0.0
  0
LINE
  5
DA
330
17
100
AcDbEntity
  8
0
 62
7
370
25
100
AcDbLine
 10
5062.893109151717
 20
3090.429532558653
 30
0.0
 11
5060.893109151717
 21
3090.429532558653
 31
0.0
  0
LINE
  5
DB
330
17
100
AcDbEntity
  8
0
 62
7
370
25
100
AcDbLine
 10
5060.893109151717
 20
3096.429532558654
 30
0.0
 11
5062.893109151717
 21
3096.429532558654
 31
0.0
  0
LINE
  5
DC
330
17
100
AcDbEntity
  8
Painéis
 62
7
370
25
100
AcDbLine
 10
5327.027766173217
 20
3012.697778219924
 30
0.0
 11
5536.027766173223
 21
3012.697778219924
 31
0.0
  0
LINE
  5
DD
330
17
100
AcDbEntity
  8
Painéis
 62
7
370
25
100
AcDbLine
 10
5327.027766173217
 20
2958.697778219924
 30
0.0
 11
5563.027766173223
 21
2958.697778219924
 31
0.0
  0
LINE
  5
DE
330
17
100
AcDbEntity
  8
Painéis
 62
7
370
25
100
AcDbLine
 10
5327.027766173217
 20
2958.697778219924
 30
0.0
 11
5327.027766173217
 21
3012.697778219924
 31
0.0
  0
LINE
  5
DF
330
17
100
AcDbEntity
  8
Painéis
 62
7
370
25
100
AcDbLine
 10
5449.027766173223
 20
2958.697778219924
 30
0.0
 11
5449.027766173223
 21
3012.697778219924
 31
0.0
  0
LINE
  5
E0
330
17
100
AcDbEntity
  8
Painéis
 62
7
370
25
100
AcDbLine
 10
5563.027766173223
 20
2958.697778219924
 30
0.0
 11
5563.027766173223
 21
2968.697778219924
 31
0.0
  0
LINE
  5
E1
330
17
100
AcDbEntity
  8
SARR_2.2x7
 62
7
370
25
100
AcDbLine
 10
5334.027766173214
 20
2958.697778219924
 30
0.0
 11
5334.027766173214
 21
3012.697778219924
 31
0.0
  0
LINE
  5
E2
330
17
100
AcDbEntity
  8
SARR_2.2x7
 62
7
370
25
100
AcDbLine
 10
5327.027766173216
 20
3005.697778219913
 30
0.0
 11
5372.027766173216
 21
3005.697778219924
 31
0.0
  0
LINE
  5
E3
330
17
100
AcDbEntity
  8
SARR_3.5x7
 62
7
370
25
100
AcDbLine
 10
5372.027766173216
 20
3012.697778219938
 30
0.0
 11
5372.027766173217
 21
2958.697778219924
 31
0.0
  0
LINE
  5
E4
330
17
100
AcDbEntity
  8
SARR_3.5x7
 62
7
370
25
100
AcDbLine
 10
5375.527766173217
 20
3010.497778219941
 30
0.0
 11
5375.527766173217
 21
2958.697778219924
 31
0.0
  0
LINE
  5
E5
330
17
100
AcDbEntity
  8
SARR_2.2x7
 62
7
370
25
100
AcDbLine
 10
5449.027766173221
 20
3010.49777821993
 30
0.0
 11
5536.027766173223
 21
3010.49777821993
 31
0.0
  0
LINE
  5
E6
330
17
100
AcDbEntity
  8
SARR_3.5x7
 62
7
370
25
100
AcDbLine
 10
5536.027766173225
 20
3012.697778219913
 30
0.0
 11
5536.027766173222
 21
2958.697778219924
 31
0.0
  0
LINE
  5
E7
330
17
100
AcDbEntity
  8
SARR_3.5x7
 62
7
370
25
100
AcDbLine
 10
5532.527766173224
 20
3010.497778219916
 30
0.0
 11
5532.527766173221
 21
2958.697778219924
 31
0.0
  0
LINE
  5
E8
330
17
100
AcDbEntity
  8
SARR_3.5x7
 62
7
370
25
100
AcDbLine
 10
5452.527766173251
 20
3010.497778219982
 30
0.0
 11
5452.527766173276
 21
2958.697778219924
 31
0.0
  0
LINE
  5
E9
330
17
100
AcDbEntity
  8
SARR_3.5x7
 62
7
370
25
100
AcDbLine
 10
5445.527766173164
 20
3010.49777822004
 30
0.0
 11
5445.527766173142
 21
2958.697778219924
 31
0.0
  0
LINE
  5
EA
330
17
100
AcDbEntity
  8
COTA
 62
7
370
25
100
AcDbLine
 10
5536.027766173225
 20
3012.697778219936
 30
0.0
 11
5775.027766173228
 21
3012.697778219924
 31
0.0
  0
LINE
  5
EB
330
17
100
AcDbEntity
  8
COTA
 62
7
370
25
100
AcDbLine
 10
5775.027766173228
 20
2998.697778219924
 30
0.0
 11
5775.027766173228
 21
3012.697778219924
 31
0.0
  0
LINE
  5
EC
330
17
100
AcDbEntity
  8
Painéis
 62
7
370
25
100
AcDbLine
 10
5563.027766173223
 20
2998.697778219924
 30
0.0
 11
5775.027766173228
 21
2998.697778219924
 31
0.0
  0
LINE
  5
ED
330
17
100
AcDbEntity
  8
Painéis
 62
7
370
25
100
AcDbLine
 10
5563.027766173223
 20
2958.697778219924
 30
0.0
 11
5775.027766173228
 21
2958.697778219924
 31
0.0
  0
LINE
  5
EE
330
17
100
AcDbEntity
  8
Painéis
 62
7
370
25
100
AcDbLine
 10
5563.027766173223
 20
2958.697778219924
 30
0.0
 11
5563.027766173223
 21
2998.697778219924
 31
0.0
  0
LINE
  5
EF
330
17
100
AcDbEntity
  8
Painéis
 62
7
370
25
100
AcDbLine
 10
5685.027766173227
 20
2958.697778219924
 30
0.0
 11
5685.027766173227
 21
2998.697778219924
 31
0.0
  0
LINE
  5
F0
330
17
100
AcDbEntity
  8
Painéis
 62
7
370
25
100
AcDbLine
 10
5775.027766173228
 20
2958.697778219924
 30
0.0
 11
5775.027766173228
 21
2998.697778219924
 31
0.0
  0
LINE
  5
F1
330
17
100
AcDbEntity
  8
SARR_2.2x7
 62
7
370
25
100
AcDbLine
 10
5768.027766173228
 20
2958.697778219924
 30
0.0
 11
5768.027766173228
 21
2998.697778219924
 31
0.0
  0
LINE
  5
F2
330
17
100
AcDbEntity
  8
SARR_2.2x7
 62
7
370
25
100
AcDbLine
 10
5563.027766173223
 20
2996.497778219927
 30
0.0
 11
5685.027766173227
 21
2996.497778219957
 31
0.0
  0
LINE
  5
F3
330
17
100
AcDbEntity
  8
SARR_3.5x7
 62
7
370
25
100
AcDbLine
 10
5563.027766173223
 20
2998.697778219938
 30
0.0
 11
5563.027766173224
 21
2958.697778219924
 31
0.0
  0
LINE
  5
F4
330
17
100
AcDbEntity
  8
SARR_3.5x7
 62
7
370
25
100
AcDbLine
 10
5566.527766173223
 20
2996.497778219941
 30
0.0
 11
5566.527766173223
 21
2958.697778219924
 31
0.0
  0
LINE
  5
F5
330
17
100
AcDbEntity
  8
SARR_2.2x7
 62
7
370
25
100
AcDbLine
 10
5685.027766173227
 20
2996.49777821993
 30
0.0
 11
5760.027766173215
 21
2996.49777821993
 31
0.0
  0
LINE
  5
F6
330
17
100
AcDbEntity
  8
SARR_3.5x7
 62
7
370
25
100
AcDbLine
 10
5760.027766173217
 20
2998.697778219913
 30
0.0
 11
5760.027766173214
 21
2958.697778219924
 31
0.0
  0
LINE
  5
F7
330
17
100
AcDbEntity
  8
SARR_3.5x7
 62
7
370
25
100
AcDbLine
 10
5756.527766173217
 20
2996.497778219916
 30
0.0
 11
5756.527766173214
 21
2958.697778219924
 31
0.0
  0
LINE
  5
F8
330
17
100
AcDbEntity
  8
SARR_3.5x7
 62
7
370
25
100
AcDbLine
 10
5688.527766173257
 20
2996.497778219982
 30
0.0
 11
5688.527766173281
 21
2958.697778219924
 31
0.0
  0
LINE
  5
F9
330
17
100
AcDbEntity
  8
SARR_3.5x7
 62
7
370
25
100
AcDbLine
 10
5681.52776617317
 20
2996.49777822004
 30
0.0
 11
5681.527766173148
 21
2958.697778219924
 31
0.0
  0
LINE
  5
FA
330
17
100
AcDbEntity
  8
Painéis
 62
7
370
25
100
AcDbLine
 10
5536.027766173223
 20
3012.697778219924
 30
0.0
 11
5536.027766173223
 21
2968.697778219924
 31
0.0
  0
LINE
  5
FB
330
17
100
AcDbEntity
  8
Painéis
 62
7
370
25
100
AcDbLine
 10
5536.027766173223
 20
2968.697778219924
 30
0.0
 11
5563.027766173223
 21
2968.697778219924
 31
0.0
  0
LINE
  5
FC
330
17
100
AcDbEntity
  8
SARR_2.2x7
 62
7
370
25
100
AcDbLine
 10
5563.027766173223
 20
2963.697778219924
 30
0.0
 11
5536.027766173222
 21
2963.697778219924
 31
0.0
  0
LINE
  5
FD
330
17
100
AcDbEntity
  8
Painéis
 62
7
370
25
100
AcDbLine
 10
5775.027766173237
 20
3163.050582887728
 30
0.0
 11
5775.027766173237
 21
3173.050582887728
 31
0.0
  0
LINE
  5
FE
330
17
100
AcDbEntity
  8
Painéis
 62
7
370
25
100
AcDbLine
 10
5775.027766173237
 20
3173.050582887728
 30
0.0
 11
5745.027766173237
 21
3173.050582887728
 31
0.0
  0
LINE
  5
FF
330
17
100
AcDbEntity
  8
SARR_2.2x7
 62
7
370
25
100
AcDbLine
 10
5775.027766173237
 20
3168.050582887728
 30
0.0
 11
5745.027766173237
 21
3168.05058288773
 31
0.0
  0
LINE
  5
100
330
17
100
AcDbEntity
  8
SARR_2.2x7
 62
7
370
25
100
AcDbLine
 10
5768.027766173236
 20
3163.050582887728
 30
0.0
 11
5768.027766173236
 21
3173.050582887728
 31
0.0
  0
LINE
  5
101
330
17
100
AcDbEntity
  8
SARR_2.2x7
 62
7
370
25
100
AcDbLine
 10
5372.027766173216
 20
3010.497778219938
 30
0.0
 11
5449.027766173223
 21
3010.497778219958
 31
0.0
  0
LWPOLYLINE
  5
102
330
17
100
AcDbEntity
  8
Painéis
 62
7
370
25
100
AcDbPolyline
 90
4
 70
1
 10
5106.893109151731
 20
3473.280898706198
 10
5110.893109151732
 20
3473.280898706198
 10
5110.893109151732
 20
3413.28089870622
 10
5106.893109151731
 20
3413.28089870622
  0
LWPOLYLINE
  5
103
330
17
100
AcDbEntity
  8
Madeira
 62
7
370
25
100
AcDbPolyline
 90
4
 70
1
 10
5106.893109151731
 20
3468.880898706197
 10
5106.893109151731
 20
3473.280898706198
 10
5092.893109151731
 20
3473.280898706198
 10
5092.893109151731
 20
3468.880898706197
  0
LWPOLYLINE
  5
104
330
17
100
AcDbEntity
  8
Madeira
 62
7
370
25
100
AcDbPolyline
 90
4
 70
1
 10
5072.893109151731
 20
3413.28089870622
 10
5072.893109151731
 20
3417.680898706214
 10
5092.893109151731
 20
3417.680898706214
 10
5092.893109151731
 20
3413.28089870622
  0
LWPOLYLINE
  5
105
330
17
100
AcDbEntity
  8
Madeira
 62
7
370
25
100
AcDbPolyline
 90
4
 70
1
 10
5106.893109151731
 20
3473.280898706198
 10
5092.893109151731
 20
3473.280898706198
 10
5092.893109151731
 20
3383.28089870622
 10
5106.893109151731
 20
3383.28089870622
  0
LWPOLYLINE
  5
106
330
17
100
AcDbEntity
  8
Madeira
 62
7
370
25
100
AcDbPolyline
 90
4
 70
1
 10
5148.893109151732
 20
3413.28089870622
 10
5148.893109151732
 20
3417.680898706214
 10
5134.893109151732
 20
3417.680898706214
 10
5134.893109151732
 20
3413.28089870622
  0
LWPOLYLINE
  5
107
330
17
100
AcDbEntity
  8
Painéis
 62
7
370
25
100
AcDbPolyline
 90
4
 70
1
 10
5148.893109151732
 20
3417.680898706214
 10
5148.893109151732
 20
3421.28089870622
 10
5110.893109151732
 20
3421.28089870622
 10
5110.893109151732
 20
3417.680898706214
  0
LWPOLYLINE
  5
108
330
17
100
AcDbEntity
  8
Madeira
 62
7
370
25
100
AcDbPolyline
 90
4
 70
1
 10
5110.893109151732
 20
3413.28089870622
 10
5110.893109151732
 20
3417.680898706214
 10
5124.893109151731
 20
3417.680898706214
 10
5124.893109151731
 20
3413.28089870622
  0
LWPOLYLINE
  5
109
330
17
100
AcDbEntity
  8
Painéis
 62
7
370
25
100
AcDbPolyline
 90
4
 70
1
 10
5152.893109151743
 20
3501.28089870622
 10
5148.893109151742
 20
3501.28089870622
 10
5148.893109151732
 20
3413.28089870622
 10
5152.893109151731
 20
3413.28089870622
  0
LWPOLYLINE
  5
10A
330
17
100
AcDbEntity
  8
Madeira
 62
7
370
25
100
AcDbPolyline
 90
4
 70
1
 10
5152.893109151743
 20
3496.880898706218
 10
5152.893109151743
 20
3501.28089870622
 10
5166.893109151743
 20
3501.28089870622
 10
5166.893109151743
 20
3496.880898706218
  0
LWPOLYLINE
  5
10B
330
17
100
AcDbEntity
  8
Madeira
 62
7
370
25
100
AcDbPolyline
 90
4
 70
1
 10
5186.893109151732
 20
3413.28089870622
 10
5186.893109151732
 20
3417.680898706214
 10
5166.893109151732
 20
3417.680898706214
 10
5166.893109151732
 20
3413.28089870622
  0
LWPOLYLINE
  5
10C
330
17
100
AcDbEntity
  8
Madeira
 62
7
370
25
100
AcDbPolyline
 90
4
 70
1
 10
5152.893109151743
 20
3501.28089870622
 10
5166.893109151743
 20
3501.28089870622
 10
5166.893109151732
 20
3413.28089870622
 10
5152.893109151731
 20
3413.28089870622
  0
LWPOLYLINE
  5
10D
330
17
100
AcDbEntity
  8
Painéis
 62
7
370
25
100
AcDbPolyline
 90
4
 70
1
 10
5110.893109151732
 20
3473.280898706198
 10
5110.893109151732
 20
3477.280898706198
 10
5055.293109151755
 20
3477.280898706191
 10
5055.293109151755
 20
3473.280898706191
  0
LWPOLYLINE
  5
10E
330
17
100
AcDbEntity
  8
CONCRETO
 62
7
370
25
100
AcDbPolyline
 90
8
 70
1
 10
5055.293109151755
 20
3477.280898706191
 10
5055.293109151755
 20
3501.28089870622
 10
5148.893109151741
 20
3501.28089870622
 10
5148.893109151741
 20
3473.280898706206
 10
5148.893109151732
 20
3473.280898706206
 10
5148.893109151673
 20
3421.28089870622
 10
5110.893109151732
 20
3421.28089870622
 10
5110.893109151732
 20
3477.280898706198
  0
LWPOLYLINE
  5
10F
330
17
100
AcDbEntity
  8
barrote
 62
7
370
25
100
AcDbPolyline
 90
4
 70
1
 10
5039.437911479837
 20
3393.280898706264
 10
5234.620851989532
 20
3393.280898706264
 10
5234.620851989532
 20
3413.28089870622
 10
5039.437911479837
 20
3413.28089870622
  0
LWPOLYLINE
  5
110
330
17
100
AcDbEntity
  8
SCO-___-LAJ
 62
7
370
25
100
AcDbPolyline
 90
4
 70
1
 10
5048.440178895298
 20
3411.947485372893
 10
5215.746039408159
 20
3411.947485372886
 10
5215.746039408159
 20
3408.74780537291
 10
5048.440178895298
 20
3408.747805372917
  0
LWPOLYLINE
  5
111
330
17
100
AcDbEntity
  8
Painéis
 62
7
370
25
100
AcDbPolyline
 90
4
 70
1
 10
5106.893109151746
 20
3123.459475030341
 10
5110.893109151746
 20
3123.459475030341
 10
5110.893109151746
 20
3043.459475030362
 10
5106.893109151746
 20
3043.459475030362
  0
LWPOLYLINE
  5
112
330
17
100
AcDbEntity
  8
Madeira
 62
7
370
25
100
AcDbPolyline
 90
4
 70
1
 10
5106.893109151746
 20
3119.059475030339
 10
5106.893109151746
 20
3123.459475030341
 10
5092.893109151746
 20
3123.459475030341
 10
5092.893109151746
 20
3119.059475030339
  0
LWPOLYLINE
  5
113
330
17
100
AcDbEntity
  8
Madeira
 62
7
370
25
100
AcDbPolyline
 90
4
 70
1
 10
5072.893109151745
 20
3043.459475030362
 10
5072.893109151745
 20
3047.859475030357
 10
5092.893109151746
 20
3047.859475030357
 10
5092.893109151746
 20
3043.459475030362
  0
LWPOLYLINE
  5
114
330
17
100
AcDbEntity
  8
Madeira
 62
7
370
25
100
AcDbPolyline
 90
4
 70
1
 10
5106.893109151746
 20
3123.459475030341
 10
5092.893109151746
 20
3123.459475030341
 10
5092.893109151746
 20
3013.459475030363
 10
5106.893109151746
 20
3013.459475030363
  0
LWPOLYLINE
  5
115
330
17
100
AcDbEntity
  8
Madeira
 62
7
370
25
100
AcDbPolyline
 90
4
 70
1
 10
5148.893109151746
 20
3043.459475030362
 10
5148.893109151746
 20
3047.859475030357
 10
5134.893109151747
 20
3047.859475030357
 10
5134.893109151747
 20
3043.459475030362
  0
LWPOLYLINE
  5
116
330
17
100
AcDbEntity
  8
Painéis
 62
7
370
25
100
AcDbPolyline
 90
4
 70
1
 10
5148.893109151746
 20
3047.859475030357
 10
5148.893109151746
 20
3051.459475030362
 10
5110.893109151746
 20
3051.459475030362
 10
5110.893109151746
 20
3047.859475030357
  0
LWPOLYLINE
  5
117
330
17
100
AcDbEntity
  8
Madeira
 62
7
370
25
100
AcDbPolyline
 90
4
 70
1
 10
5110.893109151746
 20
3043.459475030362
 10
5110.893109151746
 20
3047.859475030357
 10
5124.893109151746
 20
3047.859475030357
 10
5124.893109151746
 20
3043.459475030362
  0
LWPOLYLINE
  5
118
330
17
100
AcDbEntity
  8
Painéis
 62
7
370
25
100
AcDbPolyline
 90
4
 70
1
 10
5152.893109151757
 20
3151.459475030363
 10
5148.893109151757
 20
3151.459475030363
 10
5148.893109151746
 20
3043.459475030362
 10
5152.893109151746
 20
3043.459475030362
  0
LWPOLYLINE
  5
119
330
17
100
AcDbEntity
  8
Madeira
 62
7
370
25
100
AcDbPolyline
 90
4
 70
1
 10
5152.893109151757
 20
3147.059475030361
 10
5152.893109151757
 20
3151.459475030363
 10
5166.893109151757
 20
3151.459475030363
 10
5166.893109151757
 20
3147.059475030361
  0
LWPOLYLINE
  5
11A
330
17
100
AcDbEntity
  8
Madeira
 62
7
370
25
100
AcDbPolyline
 90
4
 70
1
 10
5186.893109151746
 20
3043.459475030362
 10
5186.893109151746
 20
3047.859475030357
 10
5166.893109151747
 20
3047.859475030357
 10
5166.893109151747
 20
3043.459475030362
  0
LWPOLYLINE
  5
11B
330
17
100
AcDbEntity
  8
Madeira
 62
7
370
25
100
AcDbPolyline
 90
4
 70
1
 10
5152.893109151757
 20
3151.459475030363
 10
5166.893109151757
 20
3151.459475030363
 10
5166.893109151747
 20
3043.459475030362
 10
5152.893109151746
 20
3043.459475030362
  0
LWPOLYLINE
  5
11C
330
17
100
AcDbEntity
  8
Painéis
 62
7
370
25
100
AcDbPolyline
 90
4
 70
1
 10
5110.893109151746
 20
3123.459475030341
 10
5110.893109151746
 20
3127.45947503034
 10
5055.293109151769
 20
3127.459475030333
 10
5055.293109151769
 20
3123.459475030334
  0
LWPOLYLINE
  5
11D
330
17
100
AcDbEntity
  8
CONCRETO
 62
7
370
25
100
AcDbPolyline
 90
8
 70
1
 10
5055.293109151769
 20
3127.459475030333
 10
5055.293109151769
 20
3151.459475030363
 10
5148.893109151755
 20
3151.459475030363
 10
5148.893109151755
 20
3123.459475030348
 10
5148.893109151746
 20
3123.459475030348
 10
5148.893109151688
 20
3051.459475030362
 10
5110.893109151746
 20
3051.459475030362
 10
5110.893109151746
 20
3127.45947503034
  0
LWPOLYLINE
  5
11E
330
17
100
AcDbEntity
  8
barrote
 62
7
370
25
100
AcDbPolyline
 90
4
 70
1
 10
5039.437911479852
 20
3023.459475030406
 10
5234.620851989546
 20
3023.459475030406
 10
5234.620851989546
 20
3043.459475030362
 10
5039.437911479852
 20
3043.459475030362
  0
LWPOLYLINE
  5
11F
330
17
100
AcDbEntity
  8
SCO-___-LAJ
 62
7
370
25
100
AcDbPolyline
 90
4
 70
1
 10
5048.440178895313
 20
3042.126061697036
 10
5215.746039408173
 20
3042.126061697029
 10
5215.746039408173
 20
3038.926381697053
 10
5048.440178895313
 20
3038.92638169706
  0
TEXT
  5
120
330
17
100
AcDbEntity
  8
Texto Seção
 62
7
370
25
100
AcDbText
 10
5330.027766173188
 20
3576.058381984563
 30
0.0
 40
13.0
  1
VD2.A
100
AcDbText
  0
TEXT
  5
121
330
17
100
AcDbEntity
  8
5
 62
7
370
25
100
AcDbText
 10
5328.069630628473
 20
3434.778411354447
 30
0.0
 40
12.0
  1
PD1
100
AcDbText
  0
TEXT
  5
122
330
17
100
AcDbEntity
  8
5
 62
7
370
25
100
AcDbText
 10
5513.316140153282
 20
3436.823665740077
 30
0.0
 40
12.0
  1
PD2
100
AcDbText
  0
TEXT
  5
123
330
17
100
AcDbEntity
  8
texto
 62
7
370
25
100
AcDbText
 10
5390.312927591097
 20
3535.446424833205
 30
0.0
 40
8.0
  1
{\Q19;\C256;5 1/2pont}
100
AcDbText
  0
TEXT
  5
124
330
17
100
AcDbEntity
  8
texto
 62
7
370
25
100
AcDbText
 10
5489.421933190561
 20
3535.446424833205
 30
0.0
 40
8.0
  1
{\Q19;\C256;4 1/2pont}
100
AcDbText
  0
TEXT
  5
125
330
17
100
AcDbEntity
  8
detalhes
 62
7
370
25
100
AcDbText
 10
5157.60759232777
 20
3431.470570235502
 30
0.0
 40
9.600000000000001
  1
b
100
AcDbText
  0
TEXT
  5
126
330
17
100
AcDbEntity
  8
detalhes
 62
7
370
25
100
AcDbText
 10
5095.063933682033
 20
3431.481627681078
 30
0.0
 40
9.600000000000001
  1
a
100
AcDbText
  0
TEXT
  5
127
330
17
100
AcDbEntity
  8
detalhes
 62
7
370
25
100
AcDbText
 10
5121.493374767176
 20
3423.516652226059
 30
0.0
 40
9.600000000000001
  1
c
100
AcDbText
  0
TEXT
  5
128
330
17
100
AcDbEntity
  8
Texto Seção
 62
7
370
25
100
AcDbText
 10
5675.794133732996
 20
3576.058381984563
 30
0.0
 40
13.0
  1
VD2.B
100
AcDbText
  0
TEXT
  5
129
330
17
100
AcDbEntity
  8
5
 62
7
370
25
100
AcDbText
 10
5673.835998188281
 20
3447.148067880898
 30
0.0
 40
12.0
  1
PD2
100
AcDbText
  0
TEXT
  5
12A
330
17
100
AcDbEntity
  8
5
 62
7
370
25
100
AcDbText
 10
5838.702108113355
 20
3444.453998525117
 30
0.0
 40
12.0
  1
VD12
100
AcDbText
  0
TEXT
  5
12B
330
17
100
AcDbEntity
  8
texto
 62
7
370
25
100
AcDbText
 10
5766.704406517934
 20
3544.878883820126
 30
0.0
 40
8.0
  1
{\Q19;\C256;6 1/2pont}
100
AcDbText
  0
TEXT
  5
12C
330
17
100
AcDbEntity
  8
5
 62
7
370
25
100
AcDbText
 10
5897.034457803985
 20
3444.453998525117
 30
0.0
 40
12.0
  1
PD1
100
AcDbText
  0
TEXT
  5
12D
330
17
100
AcDbEntity
  8
Texto Seção
 62
7
370
25
100
AcDbText
 10
5330.027766173202
 20
3226.236958308705
 30
0.0
 40
13.0
  1
VD3.A
100
AcDbText
  0
TEXT
  5
12E
330
17
100
AcDbEntity
  8
5
 62
7
370
25
100
AcDbText
 10
5328.069630628487
 20
3074.956987678589
 30
0.0
 40
12.0
  1
VD11
100
AcDbText
  0
TEXT
  5
12F
330
17
100
AcDbEntity
  8
5
 62
7
370
25
100
AcDbText
 10
5715.316140153297
 20
3077.00224206422
 30
0.0
 40
12.0
  1
VD14
100
AcDbText
  0
TEXT
  5
130
330
17
100
AcDbEntity
  8
texto
 62
7
370
25
100
AcDbText
 10
5449.844873895561
 20
3185.625001157348
 30
0.0
 40
8.0
  1
{\Q19;\C256;8 1/2pont}
100
AcDbText
  0
TEXT
  5
131
330
17
100
AcDbEntity
  8
texto
 62
7
370
25
100
AcDbText
 10
5655.140703099494
 20
3185.625001157348
 30
0.0
 40
8.0
  1
{\Q19;\C256;6 1/2pont}
100
AcDbText
  0
TEXT
  5
132
330
17
100
AcDbEntity
  8
detalhes
 62
7
370
25
100
AcDbText
 10
5157.607592327784
 20
3061.649146559645
 30
0.0
 40
9.600000000000001
  1
b
100
AcDbText
  0
TEXT
  5
133
330
17
100
AcDbEntity
  8
detalhes
 62
7
370
25
100
AcDbText
 10
5095.063933682048
 20
3061.66020400522
 30
0.0
 40
9.600000000000001
  1
a
100
AcDbText
  0
TEXT
  5
134
330
17
100
AcDbEntity
  8
detalhes
 62
7
370
25
100
AcDbText
 10
5121.493374767191
 20
3053.695228550201
 30
0.0
 40
9.600000000000001
  1
c
100
AcDbText
  0
TEXT
  5
135
330
17
100
AcDbEntity
  8
Texto Seção
 62
7
370
25
100
AcDbText
 10
5323.009575705931
 20
3017.900489259911
 30
0.0
 40
13.0
  1
VD3.B
100
AcDbText
  0
TEXT
  5
136
330
17
100
AcDbEntity
  8
texto
 62
7
370
25
100
AcDbText
 10
5390.312927591097
 20
2981.272196489544
 30
0.0
 40
8.0
  1
{\Q19;\C256;5 1/2pont}
100
AcDbText
  0
TEXT
  5
137
330
17
100
AcDbEntity
  8
texto
 62
7
370
25
100
AcDbText
 10
5489.421933190561
 20
2981.272196489544
 30
0.0
 40
8.0
  1
{\Q19;\C256;4 1/2pont}
100
AcDbText
  0
TEXT
  5
138
330
17
100
AcDbEntity
  8
texto
 62
7
370
25
100
AcDbText
 10
5626.312927591101
 20
2981.272196489544
 30
0.0
 40
8.0
  1
{\Q19;\C256;5 1/2pont}
100
AcDbText
  0
TEXT
  5
139
330
17
100
AcDbEntity
  8
texto
 62
7
370
25
100
AcDbText
 10
5721.421933190566
 20
2981.272196489544
 30
0.0
 40
8.0
  1
{\Q19;\C256;4 1/2pont}
100
AcDbText
  0
HATCH
  5
13A
330
17
100
AcDbEntity
  8
COTA
 62
7
100
AcDbHatch
 10
0.0
 20
0.0
 30
0.0
210
0.0
220
0.0
230
1.0
  2
SOLID
 70
1
 71
0
 91
1
 92
3
 72
0
 73
1
 93
8
 10
5543.027766173223
 20
3552.872006563585
 10
5543.027766173223
 20
3566.872006563585
 10
5543.027766173223
 20
3566.872006563585
 10
5327.027766173217
 20
3566.872006563585
 10
5327.027766173217
 20
3566.872006563585
 10
5327.027766173217
 20
3552.872006563585
 10
5327.027766173217
 20
3552.872006563585
 10
5543.027766173223
 20
3552.872006563585
 97
0
 75
1
 76
1
 98
0
  0
HATCH
  5
13B
330
17
100
AcDbEntity
  8
Hachura
 62
7
100
AcDbHatch
 10
0.0
 20
0.0
 30
0.0
210
0.0
220
0.0
230
1.0
  2
SOLID
 70
1
 71
0
 91
1
 92
3
 72
0
 73
1
 93
8
 10
5110.893109151733
 20
3473.280898706198
 10
5106.893109151733
 20
3473.280898706198
 10
5106.893109151733
 20
3473.280898706198
 10
5106.893109151731
 20
3413.28089870622
 10
5106.893109151731
 20
3413.28089870622
 10
5110.893109151732
 20
3413.28089870622
 10
5110.893109151732
 20
3413.28089870622
 10
5110.893109151733
 20
3473.280898706198
 97
0
 75
1
 76
1
 98
0
  0
HATCH
  5
13C
330
17
100
AcDbEntity
  8
Hachura
 62
7
100
AcDbHatch
 10
0.0
 20
0.0
 30
0.0
210
0.0
220
0.0
230
1.0
  2
SOLID
 70
1
 71
0
 91
1
 92
3
 72
0
 73
1
 93
8
 10
5106.893109151731
 20
3468.880898706197
 10
5106.893109151731
 20
3473.280898706198
 10
5106.893109151731
 20
3473.280898706198
 10
5092.893109151731
 20
3473.280898706198
 10
5092.893109151731
 20
3473.280898706198
 10
5092.893109151731
 20
3468.880898706197
 10
5092.893109151731
 20
3468.880898706197
 10
5106.893109151731
 20
3468.880898706197
 97
0
 75
1
 76
1
 98
0
  0
HATCH
  5
13D
330
17
100
AcDbEntity
  8
Hachura
 62
7
100
AcDbHatch
 10
0.0
 20
0.0
 30
0.0
210
0.0
220
0.0
230
1.0
  2
SOLID
 70
1
 71
0
 91
1
 92
3
 72
0
 73
1
 93
8
 10
5072.893109151731
 20
3413.28089870622
 10
5072.893109151731
 20
3417.680898706214
 10
5072.893109151731
 20
3417.680898706214
 10
5092.893109151731
 20
3417.680898706214
 10
5092.893109151731
 20
3417.680898706214
 10
5092.893109151731
 20
3413.28089870622
 10
5092.893109151731
 20
3413.28089870622
 10
5072.893109151731
 20
3413.28089870622
 97
0
 75
1
 76
1
 98
0
  0
HATCH
  5
13E
330
17
100
AcDbEntity
  8
Hachura
 62
7
100
AcDbHatch
 10
0.0
 20
0.0
 30
0.0
210
0.0
220
0.0
230
1.0
  2
SOLID
 70
1
 71
0
 91
1
 92
3
 72
0
 73
1
 93
8
 10
5148.893109151732
 20
3413.28089870622
 10
5148.893109151732
 20
3417.680898706214
 10
5148.893109151732
 20
3417.680898706214
 10
5134.893109151732
 20
3417.680898706214
 10
5134.893109151732
 20
3417.680898706214
 10
5134.893109151732
 20
3413.28089870622
 10
5134.893109151732
 20
3413.28089870622
 10
5148.893109151732
 20
3413.28089870622
 97
0
 75
1
 76
1
 98
0
  0
HATCH
  5
13F
330
17
100
AcDbEntity
  8
Hachura
 62
7
100
AcDbHatch
 10
0.0
 20
0.0
 30
0.0
210
0.0
220
0.0
230
1.0
  2
SOLID
 70
1
 71
0
 91
1
 92
3
 72
0
 73
1
 93
8
 10
5148.893109151732
 20
3417.680898706214
 10
5148.893109151732
 20
3421.28089870622
 10
5148.893109151732
 20
3421.28089870622
 10
5110.893109151732
 20
3421.28089870622
 10
5110.893109151732
 20
3421.28089870622
 10
5110.893109151732
 20
3417.680898706214
 10
5110.893109151732
 20
3417.680898706214
 10
5148.893109151732
 20
3417.680898706214
 97
0
 75
1
 76
1
 98
0
  0
HATCH
  5
140
330
17
100
AcDbEntity
  8
Hachura
 62
7
100
AcDbHatch
 10
0.0
 20
0.0
 30
0.0
210
0.0
220
0.0
230
1.0
  2
SOLID
 70
1
 71
0
 91
1
 92
3
 72
0
 73
1
 93
8
 10
5110.893109151732
 20
3413.28089870622
 10
5110.893109151732
 20
3417.680898706214
 10
5110.893109151732
 20
3417.680898706214
 10
5124.893109151731
 20
3417.680898706214
 10
5124.893109151731
 20
3417.680898706214
 10
5124.893109151731
 20
3413.28089870622
 10
5124.893109151731
 20
3413.28089870622
 10
5110.893109151732
 20
3413.28089870622
 97
0
 75
1
 76
1
 98
0
  0
HATCH
  5
141
330
17
100
AcDbEntity
  8
Hachura
 62
7
100
AcDbHatch
 10
0.0
 20
0.0
 30
0.0
210
0.0
220
0.0
230
1.0
  2
SOLID
 70
1
 71
0
 91
1
 92
3
 72
0
 73
1
 93
8
 10
5152.893109151743
 20
3501.28089870622
 10
5148.893109151742
 20
3501.28089870622
 10
5148.893109151742
 20
3501.28089870622
 10
5148.893109151732
 20
3413.28089870622
 10
5148.893109151732
 20
3413.28089870622
 10
5152.893109151731
 20
3413.28089870622
 10
5152.893109151731
 20
3413.28089870622
 10
5152.893109151743
 20
3501.28089870622
 97
0
 75
1
 76
1
 98
0
  0
HATCH
  5
142
330
17
100
AcDbEntity
  8
Hachura
 62
7
100
AcDbHatch
 10
0.0
 20
0.0
 30
0.0
210
0.0
220
0.0
230
1.0
  2
SOLID
 70
1
 71
0
 91
1
 92
3
 72
0
 73
1
 93
8
 10
5152.893109151743
 20
3496.880898706218
 10
5152.893109151743
 20
3501.28089870622
 10
5152.893109151743
 20
3501.28089870622
 10
5166.893109151743
 20
3501.28089870622
 10
5166.893109151743
 20
3501.28089870622
 10
5166.893109151743
 20
3496.880898706218
 10
5166.893109151743
 20
3496.880898706218
 10
5152.893109151743
 20
3496.880898706218
 97
0
 75
1
 76
1
 98
0
  0
HATCH
  5
143
330
17
100
AcDbEntity
  8
Hachura
 62
7
100
AcDbHatch
 10
0.0
 20
0.0
 30
0.0
210
0.0
220
0.0
230
1.0
  2
SOLID
 70
1
 71
0
 91
1
 92
3
 72
0
 73
1
 93
8
 10
5186.893109151732
 20
3413.28089870622
 10
5186.893109151732
 20
3417.680898706214
 10
5186.893109151732
 20
3417.680898706214
 10
5166.893109151732
 20
3417.680898706214
 10
5166.893109151732
 20
3417.680898706214
 10
5166.893109151732
 20
3413.28089870622
 10
5166.893109151732
 20
3413.28089870622
 10
5186.893109151732
 20
3413.28089870622
 97
0
 75
1
 76
1
 98
0
  0
HATCH
  5
144
330
17
100
AcDbEntity
  8
Hachura
 62
7
100
AcDbHatch
 10
0.0
 20
0.0
 30
0.0
210
0.0
220
0.0
230
1.0
  2
SOLID
 70
1
 71
0
 91
1
 92
3
 72
0
 73
1
 93
8
 10
5110.893109151732
 20
3473.280898706198
 10
5110.893109151732
 20
3477.280898706198
 10
5110.893109151732
 20
3477.280898706198
 10
5055.293109151755
 20
3477.280898706191
 10
5055.293109151755
 20
3477.280898706191
 10
5055.293109151755
 20
3473.280898706191
 10
5055.293109151755
 20
3473.280898706191
 10
5110.893109151732
 20
3473.280898706198
 97
0
 75
1
 76
1
 98
0
  0
HATCH
  5
145
330
17
100
AcDbEntity
  8
COTA
 62
7
100
AcDbHatch
 10
0.0
 20
0.0
 30
0.0
210
0.0
220
0.0
230
1.0
  2
SOLID
 70
1
 71
0
 91
1
 92
3
 72
0
 73
1
 93
12
 10
5327.027766173231
 20
3203.050582887728
 10
5745.027766173237
 20
3203.050582887728
 10
5745.027766173237
 20
3203.050582887728
 10
5745.027766173237
 20
3173.050582887728
 10
5745.027766173237
 20
3173.050582887728
 10
5775.027766173238
 20
3173.050582887728
 10
5775.027766173238
 20
3173.050582887728
 10
5775.027766173238
 20
3217.050582887728
 10
5775.027766173238
 20
3217.050582887728
 10
5327.027766173231
 20
3217.050582887728
 10
5327.027766173231
 20
3217.050582887728
 10
5327.027766173231
 20
3203.050582887728
 97
0
 75
1
 76
1
 98
0
  0
HATCH
  5
146
330
17
100
AcDbEntity
  8
Hachura
 62
7
100
AcDbHatch
 10
0.0
 20
0.0
 30
0.0
210
0.0
220
0.0
230
1.0
  2
SOLID
 70
1
 71
0
 91
1
 92
3
 72
0
 73
1
 93
8
 10
5110.893109151746
 20
3127.45947503034
 10
5106.893109151744
 20
3127.45947503034
 10
5106.893109151744
 20
3127.45947503034
 10
5106.893109151746
 20
3043.459475030362
 10
5106.893109151746
 20
3043.459475030362
 10
5110.893109151746
 20
3043.459475030362
 10
5110.893109151746
 20
3043.459475030362
 10
5110.893109151746
 20
3127.45947503034
 97
0
 75
1
 76
1
 98
0
  0
HATCH
  5
147
330
17
100
AcDbEntity
  8
Hachura
 62
7
100
AcDbHatch
 10
0.0
 20
0.0
 30
0.0
210
0.0
220
0.0
230
1.0
  2
SOLID
 70
1
 71
0
 91
1
 92
3
 72
0
 73
1
 93
8
 10
5106.893109151746
 20
3119.059475030339
 10
5106.893109151746
 20
3123.459475030341
 10
5106.893109151746
 20
3123.459475030341
 10
5092.893109151746
 20
3123.459475030341
 10
5092.893109151746
 20
3123.459475030341
 10
5092.893109151746
 20
3119.059475030339
 10
5092.893109151746
 20
3119.059475030339
 10
5106.893109151746
 20
3119.059475030339
 97
0
 75
1
 76
1
 98
0
  0
HATCH
  5
148
330
17
100
AcDbEntity
  8
Hachura
 62
7
100
AcDbHatch
 10
0.0
 20
0.0
 30
0.0
210
0.0
220
0.0
230
1.0
  2
SOLID
 70
1
 71
0
 91
1
 92
3
 72
0
 73
1
 93
8
 10
5072.893109151745
 20
3043.459475030362
 10
5072.893109151745
 20
3047.859475030357
 10
5072.893109151745
 20
3047.859475030357
 10
5092.893109151746
 20
3047.859475030357
 10
5092.893109151746
 20
3047.859475030357
 10
5092.893109151746
 20
3043.459475030362
 10
5092.893109151746
 20
3043.459475030362
 10
5072.893109151745
 20
3043.459475030362
 97
0
 75
1
 76
1
 98
0
  0
HATCH
  5
149
330
17
100
AcDbEntity
  8
Hachura
 62
7
100
AcDbHatch
 10
0.0
 20
0.0
 30
0.0
210
0.0
220
0.0
230
1.0
  2
SOLID
 70
1
 71
0
 91
1
 92
3
 72
0
 73
1
 93
8
 10
5148.893109151746
 20
3043.459475030362
 10
5148.893109151746
 20
3047.859475030357
 10
5148.893109151746
 20
3047.859475030357
 10
5134.893109151747
 20
3047.859475030357
 10
5134.893109151747
 20
3047.859475030357
 10
5134.893109151747
 20
3043.459475030362
 10
5134.893109151747
 20
3043.459475030362
 10
5148.893109151746
 20
3043.459475030362
 97
0
 75
1
 76
1
 98
0
  0
HATCH
  5
14A
330
17
100
AcDbEntity
  8
Hachura
 62
7
100
AcDbHatch
 10
0.0
 20
0.0
 30
0.0
210
0.0
220
0.0
230
1.0
  2
SOLID
 70
1
 71
0
 91
1
 92
3
 72
0
 73
1
 93
8
 10
5148.893109151746
 20
3047.859475030357
 10
5148.893109151746
 20
3051.459475030362
 10
5148.893109151746
 20
3051.459475030362
 10
5110.893109151746
 20
3051.459475030362
 10
5110.893109151746
 20
3051.459475030362
 10
5110.893109151746
 20
3047.859475030357
 10
5110.893109151746
 20
3047.859475030357
 10
5148.893109151746
 20
3047.859475030357
 97
0
 75
1
 76
1
 98
0
  0
HATCH
  5
14B
330
17
100
AcDbEntity
  8
Hachura
 62
7
100
AcDbHatch
 10
0.0
 20
0.0
 30
0.0
210
0.0
220
0.0
230
1.0
  2
SOLID
 70
1
 71
0
 91
1
 92
3
 72
0
 73
1
 93
8
 10
5110.893109151746
 20
3043.459475030362
 10
5110.893109151746
 20
3047.859475030357
 10
5110.893109151746
 20
3047.859475030357
 10
5124.893109151746
 20
3047.859475030357
 10
5124.893109151746
 20
3047.859475030357
 10
5124.893109151746
 20
3043.459475030362
 10
5124.893109151746
 20
3043.459475030362
 10
5110.893109151746
 20
3043.459475030362
 97
0
 75
1
 76
1
 98
0
  0
HATCH
  5
14C
330
17
100
AcDbEntity
  8
Hachura
 62
7
100
AcDbHatch
 10
0.0
 20
0.0
 30
0.0
210
0.0
220
0.0
230
1.0
  2
SOLID
 70
1
 71
0
 91
1
 92
3
 72
0
 73
1
 93
8
 10
5152.893109151746
 20
3151.459475030363
 10
5148.893109151746
 20
3151.459475030363
 10
5148.893109151746
 20
3151.459475030363
 10
5148.893109151746
 20
3043.459475030362
 10
5148.893109151746
 20
3043.459475030362
 10
5152.893109151746
 20
3043.459475030362
 10
5152.893109151746
 20
3043.459475030362
 10
5152.893109151746
 20
3151.459475030363
 97
0
 75
1
 76
1
 98
0
  0
HATCH
  5
14D
330
17
100
AcDbEntity
  8
Hachura
 62
7
100
AcDbHatch
 10
0.0
 20
0.0
 30
0.0
210
0.0
220
0.0
230
1.0
  2
SOLID
 70
1
 71
0
 91
1
 92
3
 72
0
 73
1
 93
8
 10
5152.893109151757
 20
3147.059475030361
 10
5152.893109151757
 20
3151.459475030363
 10
5152.893109151757
 20
3151.459475030363
 10
5166.893109151757
 20
3151.459475030363
 10
5166.893109151757
 20
3151.459475030363
 10
5166.893109151757
 20
3147.059475030361
 10
5166.893109151757
 20
3147.059475030361
 10
5152.893109151757
 20
3147.059475030361
 97
0
 75
1
 76
1
 98
0
  0
HATCH
  5
14E
330
17
100
AcDbEntity
  8
Hachura
 62
7
100
AcDbHatch
 10
0.0
 20
0.0
 30
0.0
210
0.0
220
0.0
230
1.0
  2
SOLID
 70
1
 71
0
 91
1
 92
3
 72
0
 73
1
 93
8
 10
5186.893109151746
 20
3043.459475030362
 10
5186.893109151746
 20
3047.859475030357
 10
5186.893109151746
 20
3047.859475030357
 10
5166.893109151747
 20
3047.859475030357
 10
5166.893109151747
 20
3047.859475030357
 10
5166.893109151747
 20
3043.459475030362
 10
5166.893109151747
 20
3043.459475030362
 10
5186.893109151746
 20
3043.459475030362
 97
0
 75
1
 76
1
 98
0
  0
HATCH
  5
14F
330
17
100
AcDbEntity
  8
Hachura
 62
7
100
AcDbHatch
 10
0.0
 20
0.0
 30
0.0
210
0.0
220
0.0
230
1.0
  2
SOLID
 70
1
 71
0
 91
1
 92
3
 72
0
 73
1
 93
8
 10
5110.893109151746
 20
3123.459475030341
 10
5110.893109151746
 20
3127.45947503034
 10
5110.893109151746
 20
3127.45947503034
 10
5055.293109151769
 20
3127.459475030333
 10
5055.293109151769
 20
3127.459475030333
 10
5055.293109151769
 20
3123.459475030334
 10
5055.293109151769
 20
3123.459475030334
 10
5110.893109151746
 20
3123.459475030341
 97
0
 75
1
 76
1
 98
0
  0
HATCH
  5
150
330
17
100
AcDbEntity
  8
COTA
 62
7
100
AcDbHatch
 10
0.0
 20
0.0
 30
0.0
210
0.0
220
0.0
230
1.0
  2
SOLID
 70
1
 71
0
 91
1
 92
3
 72
0
 73
1
 93
12
 10
5563.027766173223
 20
2998.697778219924
 10
5775.027766173228
 20
2998.697778219924
 10
5775.027766173228
 20
2998.697778219924
 10
5775.027766173228
 20
3012.697778219924
 10
5775.027766173228
 20
3012.697778219924
 10
5536.027766173225
 20
3012.697778219924
 10
5536.027766173225
 20
3012.697778219924
 10
5536.027766173223
 20
2968.697778219924
 10
5536.027766173223
 20
2968.697778219924
 10
5563.027766173224
 20
2968.697778219924
 10
5563.027766173224
 20
2968.697778219924
 10
5563.027766173223
 20
2998.697778219924
 97
0
 75
1
 76
1
 98
0
  0
ENDSEC
  0
SECTION
  2
OBJECTS
  0
DICTIONARY
  5
A
330
0
100
AcDbDictionary
281
1
  3
ACAD_COLOR
350
B
  3
ACAD_GROUP
350
C
  3
ACAD_LAYOUT
350
D
  3
ACAD_MATERIAL
350
E
  3
ACAD_MLEADERSTYLE
350
F
  3
ACAD_MLINESTYLE
350
10
  3
ACAD_PLOTSETTINGS
350
11
  3
ACAD_PLOTSTYLENAME
350
12
  3
ACAD_SCALELIST
350
14
  3
ACAD_TABLESTYLE
350
15
  3
ACAD_VISUALSTYLE
350
16
  3
EZDXF_META
350
2D
  0
DICTIONARY
  5
B
330
A
100
AcDbDictionary
281
1
  0
DICTIONARY
  5
C
330
A
100
AcDbDictionary
281
1
  0
DICTIONARY
  5
D
330
A
100
AcDbDictionary
281
1
  3
Model
350
1A
  3
Layout1
350
1E
  0
DICTIONARY
  5
E
330
A
100
AcDbDictionary
281
1
  3
ByBlock
350
1F
  3
ByLayer
350
20
  3
Global
350
21
  0
DICTIONARY
  5
F
330
A
100
AcDbDictionary
281
1
  3
Standard
350
2C
  0
DICTIONARY
  5
10
330
A
100
AcDbDictionary
281
1
  3
Standard
350
22
  0
DICTIONARY
  5
11
330
A
100
AcDbDictionary
281
1
  0
ACDBDICTIONARYWDFLT
  5
12
330
A
100
AcDbDictionary
281
1
  3
Normal
350
13
100
AcDbDictionaryWithDefault
340
13
  0
ACDBPLACEHOLDER
  5
13
330
12
  0
DICTIONARY
  5
14
330
A
100
AcDbDictionary
281
1
  0
DICTIONARY
  5
15
330
A
100
AcDbDictionary
281
1
  0
DICTIONARY
  5
16
330
A
100
AcDbDictionary
281
1
  0
LAYOUT
  5
1A
330
D
100
AcDbPlotSettings
  1

  4
A3
  6

 40
7.5
 41
20.0
 42
7.5
 43
20.0
 44
420.0
 45
297.0
 46
0.0
 47
0.0
 48
0.0
 49
0.0
140
0.0
141
0.0
142
1.0
143
1.0
 70
1024
 72
1
 73
0
 74
5
  7

 75
16
 76
0
 77
2
 78
300
147
1.0
148
0.0
149
0.0
100
AcDbLayout
  1
Model
 70
1
 71
0
 10
0.0
 20
0.0
 11
420.0
 21
297.0
 12
0.0
 22
0.0
 32
0.0
 14
1e+20
 24
1e+20
 34
1e+20
 15
-1e+20
 25
-1e+20
 35
-1e+20
146
0.0
 13
0.0
 23
0.0
 33
0.0
 16
1.0
 26
0.0
 36
0.0
 17
0.0
 27
1.0
 37
0.0
 76
1
330
17
  0
LAYOUT
  5
1E
330
D
100
AcDbPlotSettings
  1

  4
A3
  6

 40
7.5
 41
20.0
 42
7.5
 43
20.0
 44
420.0
 45
297.0
 46
0.0
 47
0.0
 48
0.0
 49
0.0
140
0.0
141
0.0
142
1.0
143
1.0
 70
0
 72
1
 73
0
 74
5
  7

 75
16
 76
0
 77
2
 78
300
147
1.0
148
0.0
149
0.0
100
AcDbLayout
  1
Layout1
 70
1
 71
1
 10
0.0
 20
0.0
 11
420.0
 21
297.0
 12
0.0
 22
0.0
 32
0.0
 14
1e+20
 24
1e+20
 34
1e+20
 15
-1e+20
 25
-1e+20
 35
-1e+20
146
0.0
 13
0.0
 23
0.0
 33
0.0
 16
1.0
 26
0.0
 36
0.0
 17
0.0
 27
1.0
 37
0.0
 76
1
330
1B
  0
MATERIAL
  5
1F
102
{ACAD_REACTORS
330
E
102
}
330
E
100
AcDbMaterial
  1
ByBlock
  2

 70
0
 40
1.0
 71
1
 41
1.0
 91
-1023410177
 42
1.0
 72
1
  3

 73
1
 74
1
 75
1
 44
0.5
 73
0
 45
1.0
 46
1.0
 77
1
  4

 78
1
 79
1
170
1
 48
1.0
171
1
  6

172
1
173
1
174
1
140
1.0
141
1.0
175
1
  7

176
1
177
1
178
1
143
1.0
179
1
  8

270
1
271
1
272
1
145
1.0
146
1.0
273
1
  9

274
1
275
1
276
1
 42
1.0
 72
1
  3

 73
1
 74
1
 75
1
 94
63
  0
MATERIAL
  5
20
102
{ACAD_REACTORS
330
E
102
}
330
E
100
AcDbMaterial
  1
ByLayer
  2

 70
0
 40
1.0
 71
1
 41
1.0
 91
-1023410177
 42
1.0
 72
1
  3

 73
1
 74
1
 75
1
 44
0.5
 73
0
 45
1.0
 46
1.0
 77
1
  4

 78
1
 79
1
170
1
 48
1.0
171
1
  6

172
1
173
1
174
1
140
1.0
141
1.0
175
1
  7

176
1
177
1
178
1
143
1.0
179
1
  8

270
1
271
1
272
1
145
1.0
146
1.0
273
1
  9

274
1
275
1
276
1
 42
1.0
 72
1
  3

 73
1
 74
1
 75
1
 94
63
  0
MATERIAL
  5
21
102
{ACAD_REACTORS
330
E
102
}
330
E
100
AcDbMaterial
  1
Global
  2

 70
0
 40
1.0
 71
1
 41
1.0
 91
-1023410177
 42
1.0
 72
1
  3

 73
1
 74
1
 75
1
 44
0.5
 73
0
 45
1.0
 46
1.0
 77
1
  4

 78
1
 79
1
170
1
 48
1.0
171
1
  6

172
1
173
1
174
1
140
1.0
141
1.0
175
1
  7

176
1
177
1
178
1
143
1.0
179
1
  8

270
1
271
1
272
1
145
1.0
146
1.0
273
1
  9

274
1
275
1
276
1
 42
1.0
 72
1
  3

 73
1
 74
1
 75
1
 94
63
  0
MLINESTYLE
  5
22
102
{ACAD_REACTORS
330
10
102
}
330
10
100
AcDbMlineStyle
  2
Standard
 70
0
  3

 62
256
 51
90.0
 52
90.0
 71
2
 49
0.5
 62
256
  6
BYLAYER
 49
-0.5
 62
256
  6
BYLAYER
  0
MLEADERSTYLE
  5
2C
102
{ACAD_REACTORS
330
F
102
}
330
F
100
AcDbMLeaderStyle
179
2
170
2
171
1
172
0
 90
2
 40
0.0
 41
0.0
173
1
 91
-1056964608
 92
-2
290
1
 42
2.0
291
1
 43
8.0
  3
Standard
 44
4.0
300

342
29
174
1
175
1
176
0
178
1
 93
-1056964608
 45
4.0
292
0
297
0
 46
4.0
 94
-1056964608
 47
1.0
 49
1.0
140
1.0
294
1
141
0.0
177
0
142
1.0
295
0
296
0
143
3.75
271
0
272
9
273
9
  0
DICTIONARY
  5
2D
330
A
100
AcDbDictionary
280
1
281
1
  3
CREATED_BY_EZDXF
350
2E
  3
WRITTEN_BY_EZDXF
350
153
  0
DICTIONARYVAR
  5
2E
330
2D
100
DictionaryVariables
280
0
  1
1.4.3 @ 2026-06-10T16:54:43.383572+00:00
  0
DICTIONARYVAR
  5
153
330
2D
100
DictionaryVariables
280
0
  1
1.4.3 @ 2026-06-10T16:54:43.393097+00:00
  0
ENDSEC
  0
EOF
