  0
SECTION
  2
HEADER
  9
$ACADVER
  1
AC1024
  9
$ACADMAINTVER
 70
6
  9
$DWGCODEPAGE
  3
ANSI_1252
  9
$LASTSAVEDBY
  1
ezdxf
  9
$INSBASE
 10
0.0
 20
0.0
 30
0.0
  9
$EXTMIN
 10
1e+20
 20
1e+20
 30
1e+20
  9
$EXTMAX
 10
-1e+20
 20
-1e+20
 30
-1e+20
  9
$LIMMIN
 10
0.0
 20
0.0
  9
$LIMMAX
 10
420.0
 20
297.0
  9
$ORTHOMODE
 70
0
  9
$REGENMODE
 70
1
  9
$FILLMODE
 70
1
  9
$QTEXTMODE
 70
0
  9
$MIRRTEXT
 70
1
  9
$LTSCALE
 40
1.0
  9
$ATTMODE
 70
1
  9
$TEXTSIZE
 40
2.5
  9
$TRACEWID
 40
1.0
  9
$TEXTSTYLE
  7
Standard
  9
$CLAYER
  8
0
  9
$CELTYPE
  6
ByLayer
  9
$CECOLOR
 62
256
  9
$CELTSCALE
 40
1.0
  9
$DISPSILH
 70
0
  9
$DIMSCALE
 40
1.0
  9
$DIMASZ
 40
2.5
  9
$DIMEXO
 40
0.625
  9
$DIMDLI
 40
3.75
  9
$DIMRND
 40
0.0
  9
$DIMDLE
 40
0.0
  9
$DIMEXE
 40
1.25
  9
$DIMTP
 40
0.0
  9
$DIMTM
 40
0.0
  9
$DIMTXT
 40
2.5
  9
$DIMCEN
 40
2.5
  9
$DIMTSZ
 40
0.0
  9
$DIMTOL
 70
0
  9
$DIMLIM
 70
0
  9
$DIMTIH
 70
0
  9
$DIMTOH
 70
0
  9
$DIMSE1
 70
0
  9
$DIMSE2
 70
0
  9
$DIMTAD
 70
1
  9
$DIMZIN
 70
8
  9
$DIMBLK
  1

  9
$DIMASO
 70
1
  9
$DIMSHO
 70
1
  9
$DIMPOST
  1

  9
$DIMAPOST
  1

  9
$DIMALT
 70
0
  9
$DIMALTD
 70
3
  9
$DIMALTF
 40
0.03937007874
  9
$DIMLFAC
 40
1.0
  9
$DIMTOFL
 70
1
  9
$DIMTVP
 40
0.0
  9
$DIMTIX
 70
0
  9
$DIMSOXD
 70
0
  9
$DIMSAH
 70
0
  9
$DIMBLK1
  1

  9
$DIMBLK2
  1

  9
$DIMSTYLE
  2
ISO-25
  9
$DIMCLRD
 70
0
  9
$DIMCLRE
 70
0
  9
$DIMCLRT
 70
0
  9
$DIMTFAC
 40
1.0
  9
$DIMGAP
 40
0.625
  9
$DIMJUST
 70
0
  9
$DIMSD1
 70
0
  9
$DIMSD2
 70
0
  9
$DIMTOLJ
 70
0
  9
$DIMTZIN
 70
8
  9
$DIMALTZ
 70
0
  9
$DIMALTTZ
 70
0
  9
$DIMUPT
 70
0
  9
$DIMDEC
 70
2
  9
$DIMTDEC
 70
2
  9
$DIMALTU
 70
2
  9
$DIMALTTD
 70
3
  9
$DIMTXSTY
  7
Standard
  9
$DIMAUNIT
 70
0
  9
$DIMADEC
 70
0
  9
$DIMALTRND
 40
0.0
  9
$DIMAZIN
 70
0
  9
$DIMDSEP
 70
44
  9
$DIMATFIT
 70
3
  9
$DIMFRAC
 70
0
  9
$DIMLDRBLK
  1

  9
$DIMLUNIT
 70
2
  9
$DIMLWD
 70
-2
  9
$DIMLWE
 70
-2
  9
$DIMTMOVE
 70
0
  9
$DIMFXL
 40
1.0
  9
$DIMFXLON
 70
0
  9
$DIMJOGANG
 40
0.785398163397
  9
$DIMTFILL
 70
0
  9
$DIMTFILLCLR
 70
0
  9
$DIMARCSYM
 70
0
  9
$DIMLTYPE
  6

  9
$DIMLTEX1
  6

  9
$DIMLTEX2
  6

  9
$DIMTXTDIRECTION
 70
0
  9
$LUNITS
 70
2
  9
$LUPREC
 70
4
  9
$SKETCHINC
 40
1.0
  9
$FILLETRAD
 40
10.0
  9
$AUNITS
 70
0
  9
$AUPREC
 70
2
  9
$MENU
  1
.
  9
$ELEVATION
 40
0.0
  9
$PELEVATION
 40
0.0
  9
$THICKNESS
 40
0.0
  9
$LIMCHECK
 70
0
  9
$CHAMFERA
 40
0.0
  9
$CHAMFERB
 40
0.0
  9
$CHAMFERC
 40
0.0
  9
$CHAMFERD
 40
0.0
  9
$SKPOLY
 70
0
  9
$TDCREATE
 40
2461202.579652778
  9
$TDUCREATE
 40
2458532.153996898
  9
$TDUPDATE
 40
2461202.579652778
  9
$TDUUPDATE
 40
2458532.1544311
  9
$TDINDWG
 40
0.0
  9
$TDUSRTIMER
 40
0.0
  9
$USRTIMER
 70
1
  9
$ANGBASE
 50
0.0
  9
$ANGDIR
 70
0
  9
$PDMODE
 70
0
  9
$PDSIZE
 40
0.0
  9
$PLINEWID
 40
0.0
  9
$SPLFRAME
 70
0
  9
$SPLINETYPE
 70
6
  9
$SPLINESEGS
 70
8
  9
$HANDSEED
  5
11F
  9
$SURFTAB1
 70
6
  9
$SURFTAB2
 70
6
  9
$SURFTYPE
 70
6
  9
$SURFU
 70
6
  9
$SURFV
 70
6
  9
$UCSBASE
  2

  9
$UCSNAME
  2

  9
$UCSORG
 10
0.0
 20
0.0
 30
0.0
  9
$UCSXDIR
 10
1.0
 20
0.0
 30
0.0
  9
$UCSYDIR
 10
0.0
 20
1.0
 30
0.0
  9
$UCSORTHOREF
  2

  9
$UCSORTHOVIEW
 70
0
  9
$UCSORGTOP
 10
0.0
 20
0.0
 30
0.0
  9
$UCSORGBOTTOM
 10
0.0
 20
0.0
 30
0.0
  9
$UCSORGLEFT
 10
0.0
 20
0.0
 30
0.0
  9
$UCSORGRIGHT
 10
0.0
 20
0.0
 30
0.0
  9
$UCSORGFRONT
 10
0.0
 20
0.0
 30
0.0
  9
$UCSORGBACK
 10
0.0
 20
0.0
 30
0.0
  9
$PUCSBASE
  2

  9
$PUCSNAME
  2

  9
$PUCSORG
 10
0.0
 20
0.0
 30
0.0
  9
$PUCSXDIR
 10
1.0
 20
0.0
 30
0.0
  9
$PUCSYDIR
 10
0.0
 20
1.0
 30
0.0
  9
$PUCSORTHOREF
  2

  9
$PUCSORTHOVIEW
 70
0
  9
$PUCSORGTOP
 10
0.0
 20
0.0
 30
0.0
  9
$PUCSORGBOTTOM
 10
0.0
 20
0.0
 30
0.0
  9
$PUCSORGLEFT
 10
0.0
 20
0.0
 30
0.0
  9
$PUCSORGRIGHT
 10
0.0
 20
0.0
 30
0.0
  9
$PUCSORGFRONT
 10
0.0
 20
0.0
 30
0.0
  9
$PUCSORGBACK
 10
0.0
 20
0.0
 30
0.0
  9
$USERI1
 70
0
  9
$USERI2
 70
0
  9
$USERI3
 70
0
  9
$USERI4
 70
0
  9
$USERI5
 70
0
  9
$USERR1
 40
0.0
  9
$USERR2
 40
0.0
  9
$USERR3
 40
0.0
  9
$USERR4
 40
0.0
  9
$USERR5
 40
0.0
  9
$WORLDVIEW
 70
1
  9
$SHADEDGE
 70
3
  9
$SHADEDIF
 70
70
  9
$TILEMODE
 70
1
  9
$MAXACTVP
 70
64
  9
$PINSBASE
 10
0.0
 20
0.0
 30
0.0
  9
$PLIMCHECK
 70
0
  9
$PEXTMIN
 10
1e+20
 20
1e+20
 30
1e+20
  9
$PEXTMAX
 10
-1e+20
 20
-1e+20
 30
-1e+20
  9
$PLIMMIN
 10
0.0
 20
0.0
  9
$PLIMMAX
 10
420.0
 20
297.0
  9
$UNITMODE
 70
0
  9
$VISRETAIN
 70
1
  9
$PLINEGEN
 70
0
  9
$PSLTSCALE
 70
1
  9
$TREEDEPTH
 70
3020
  9
$CMLSTYLE
  2
Standard
  9
$CMLJUST
 70
0
  9
$CMLSCALE
 40
20.0
  9
$PROXYGRAPHICS
 70
1
  9
$MEASUREMENT
 70
1
  9
$CELWEIGHT
370
-1
  9
$ENDCAPS
280
0
  9
$JOINSTYLE
280
0
  9
$LWDISPLAY
290
0
  9
$INSUNITS
 70
6
  9
$HYPERLINKBASE
  1

  9
$STYLESHEET
  1

  9
$XEDIT
290
1
  9
$CEPSNTYPE
380
0
  9
$PSTYLEMODE
290
1
  9
$FINGERPRINTGUID
  2
{CE20165A-B2C4-4D03-9F54-D2F3DB47A9D6}
  9
$VERSIONGUID
  2
{67D86EB2-33A7-4FF9-8982-8CFDAE1540C1}
  9
$EXTNAMES
290
1
  9
$PSVPSCALE
 40
0.0
  9
$OLESTARTUP
290
0
  9
$SORTENTS
280
127
  9
$INDEXCTL
280
0
  9
$HIDETEXT
280
1
  9
$XCLIPFRAME
280
1
  9
$HALOGAP
280
0
  9
$OBSCOLOR
 70
257
  9
$OBSLTYPE
280
0
  9
$INTERSECTIONDISPLAY
280
0
  9
$INTERSECTIONCOLOR
 70
257
  9
$DIMASSOC
280
2
  9
$PROJECTNAME
  1

  9
$CAMERADISPLAY
290
0
  9
$LENSLENGTH
 40
50.0
  9
$CAMERAHEIGHT
 40
0.0
  9
$STEPSPERSEC
 40
24.0
  9
$STEPSIZE
 40
100.0
  9
$3DDWFPREC
 40
2.0
  9
$PSOLWIDTH
 40
0.005
  9
$PSOLHEIGHT
 40
0.08
  9
$LOFTANG1
 40
1.570796326795
  9
$LOFTANG2
 40
1.570796326795
  9
$LOFTMAG1
 40
0.0
  9
$LOFTMAG2
 40
0.0
  9
$LOFTPARAM
 70
7
  9
$LOFTNORMALS
280
1
  9
$LATITUDE
 40
37.795
  9
$LONGITUDE
 40
-122.394
  9
$NORTHDIRECTION
 40
0.0
  9
$TIMEZONE
 70
-8000
  9
$LIGHTGLYPHDISPLAY
280
1
  9
$TILEMODELIGHTSYNCH
280
1
  9
$CMATERIAL
347
20
  9
$SOLIDHIST
280
0
  9
$SHOWHIST
280
1
  9
$DWFFRAME
280
2
  9
$DGNFRAME
280
2
  9
$REALWORLDSCALE
290
1
  9
$INTERFERECOLOR
 62
256
  9
$CSHADOW
280
0
  9
$SHADOWPLANELOCATION
 40
0.0
  0
ENDSEC
  0
SECTION
  2
CLASSES
  0
CLASS
  1
ACDBDICTIONARYWDFLT
  2
AcDbDictionaryWithDefault
  3
ObjectDBX Classes
 90
0
 91
0
280
0
281
0
  0
CLASS
  1
SUN
  2
AcDbSun
  3
SCENEOE
 90
1153
 91
0
280
0
281
0
  0
CLASS
  1
VISUALSTYLE
  2
AcDbVisualStyle
  3
ObjectDBX Classes
 90
4095
 91
0
280
0
281
0
  0
CLASS
  1
MATERIAL
  2
AcDbMaterial
  3
ObjectDBX Classes
 90
1153
 91
0
280
0
281
0
  0
CLASS
  1
SCALE
  2
AcDbScale
  3
ObjectDBX Classes
 90
1153
 91
0
280
0
281
0
  0
CLASS
  1
TABLESTYLE
  2
AcDbTableStyle
  3
ObjectDBX Classes
 90
4095
 91
0
280
0
281
0
  0
CLASS
  1
MLEADERSTYLE
  2
AcDbMLeaderStyle
  3
ACDB_MLEADERSTYLE_CLASS
 90
4095
 91
0
280
0
281
0
  0
CLASS
  1
DICTIONARYVAR
  2
AcDbDictionaryVar
  3
ObjectDBX Classes
 90
0
 91
0
280
0
281
0
  0
CLASS
  1
CELLSTYLEMAP
  2
AcDbCellStyleMap
  3
ObjectDBX Classes
 90
1152
 91
0
280
0
281
0
  0
CLASS
  1
MENTALRAYRENDERSETTINGS
  2
AcDbMentalRayRenderSettings
  3
SCENEOE
 90
1024
 91
0
280
0
281
0
  0
CLASS
  1
ACDBDETAILVIEWSTYLE
  2
AcDbDetailViewStyle
  3
ObjectDBX Classes
 90
1025
 91
0
280
0
281
0
  0
CLASS
  1
ACDBSECTIONVIEWSTYLE
  2
AcDbSectionViewStyle
  3
ObjectDBX Classes
 90
1025
 91
0
280
0
281
0
  0
CLASS
  1
RASTERVARIABLES
  2
AcDbRasterVariables
  3
ISM
 90
0
 91
0
280
0
281
0
  0
CLASS
  1
LAYOUT
  2
AcDbLayout
  3
ObjectDBX Classes
 90
0
 91
0
280
0
281
0
  0
CLASS
  1
ACDBPLACEHOLDER
  2
AcDbPlaceHolder
  3
ObjectDBX Classes
 90
0
 91
0
280
0
281
0
  0
ENDSEC
  0
SECTION
  2
TABLES
  0
TABLE
  2
VPORT
  5
8
330
0
100
AcDbSymbolTable
 70
1
  0
VPORT
  5
23
330
8
100
AcDbSymbolTableRecord
100
AcDbViewportTableRecord
  2
*Active
 70
0
 10
0.0
 20
0.0
 11
1.0
 21
1.0
 12
0.0
 22
0.0
 13
0.0
 23
0.0
 14
0.5
 24
0.5
 15
0.5
 25
0.5
 16
0.0
 26
0.0
 36
1.0
 17
0.0
 27
0.0
 37
0.0
 40
1000.0
 41
1.34
 42
50.0
 43
0.0
 44
0.0
 50
0.0
 51
0.0
 71
0
 72
1000
 73
1
 74
3
 75
0
 76
0
 77
0
 78
0
281
0
 65
0
146
0.0
  0
ENDTAB
  0
TABLE
  2
LTYPE
  5
2
330
0
100
AcDbSymbolTable
 70
3
  0
LTYPE
  5
24
330
2
100
AcDbSymbolTableRecord
100
AcDbLinetypeTableRecord
  2
ByBlock
 70
0
  3

 72
65
 73
0
 40
0.0
  0
LTYPE
  5
25
330
2
100
AcDbSymbolTableRecord
100
AcDbLinetypeTableRecord
  2
ByLayer
 70
0
  3

 72
65
 73
0
 40
0.0
  0
LTYPE
  5
26
330
2
100
AcDbSymbolTableRecord
100
AcDbLinetypeTableRecord
  2
Continuous
 70
0
  3

 72
65
 73
0
 40
0.0
  0
ENDTAB
  0
TABLE
  2
LAYER
  5
1
330
0
100
AcDbSymbolTable
 70
18
  0
LAYER
  5
27
330
1
100
AcDbSymbolTableRecord
100
AcDbLayerTableRecord
  2
0
 70
0
 62
7
  6
Continuous
370
-3
390
13
347
21
  0
LAYER
  5
28
330
1
100
AcDbSymbolTableRecord
100
AcDbLayerTableRecord
  2
Defpoints
 70
0
 62
7
  6
Continuous
290
0
370
-3
390
13
347
21
  0
LAYER
  5
2F
330
1
100
AcDbSymbolTableRecord
100
AcDbLayerTableRecord
  2
SARR_EDITAR
 70
0
 62
7
  6
Continuous
370
-3
390
13
347
21
  0
LAYER
  5
30
330
1
100
AcDbSymbolTableRecord
100
AcDbLayerTableRecord
  2
COTA
 70
0
 62
7
  6
Continuous
370
-3
390
13
347
21
  0
LAYER
  5
31
330
1
100
AcDbSymbolTableRecord
100
AcDbLayerTableRecord
  2
SCO-___-LAJ
 70
0
 62
7
  6
Continuous
370
-3
390
13
347
21
  0
LAYER
  5
32
330
1
100
AcDbSymbolTableRecord
100
AcDbLayerTableRecord
  2
presilha
 70
0
 62
7
  6
Continuous
370
-3
390
13
347
21
  0
LAYER
  5
33
330
1
100
AcDbSymbolTableRecord
100
AcDbLayerTableRecord
  2
Hachura
 70
0
 62
7
  6
Continuous
370
-3
390
13
347
21
  0
LAYER
  5
34
330
1
100
AcDbSymbolTableRecord
100
AcDbLayerTableRecord
  2
detalhes
 70
0
 62
7
  6
Continuous
370
-3
390
13
347
21
  0
LAYER
  5
35
330
1
100
AcDbSymbolTableRecord
100
AcDbLayerTableRecord
  2
Painéis
 70
0
 62
7
  6
Continuous
370
-3
390
13
347
21
  0
LAYER
  5
36
330
1
100
AcDbSymbolTableRecord
100
AcDbLayerTableRecord
  2
Madeira
 70
0
 62
7
  6
Continuous
370
-3
390
13
347
21
  0
LAYER
  5
37
330
1
100
AcDbSymbolTableRecord
100
AcDbLayerTableRecord
  2
SARR_2.2x7
 70
0
 62
7
  6
Continuous
370
-3
390
13
347
21
  0
LAYER
  5
38
330
1
100
AcDbSymbolTableRecord
100
AcDbLayerTableRecord
  2
SARR_3.5x7
 70
0
 62
7
  6
Continuous
370
-3
390
13
347
21
  0
LAYER
  5
39
330
1
100
AcDbSymbolTableRecord
100
AcDbLayerTableRecord
  2
CONCRETO
 70
0
 62
7
  6
Continuous
370
-3
390
13
347
21
  0
LAYER
  5
3A
330
1
100
AcDbSymbolTableRecord
100
AcDbLayerTableRecord
  2
barrote
 70
0
 62
7
  6
Continuous
370
-3
390
13
347
21
  0
LAYER
  5
3B
330
1
100
AcDbSymbolTableRecord
100
AcDbLayerTableRecord
  2
5
 70
0
 62
7
  6
Continuous
370
-3
390
13
347
21
  0
LAYER
  5
3C
330
1
100
AcDbSymbolTableRecord
100
AcDbLayerTableRecord
  2
TENSOR
 70
0
 62
7
  6
Continuous
370
-3
390
13
347
21
  0
LAYER
  5
3D
330
1
100
AcDbSymbolTableRecord
100
AcDbLayerTableRecord
  2
REAPROVEITAMENTO
 70
0
 62
7
  6
Continuous
370
-3
390
13
347
21
  0
LAYER
  5
3E
330
1
100
AcDbSymbolTableRecord
100
AcDbLayerTableRecord
  2
Texto Seção
 70
0
 62
7
  6
Continuous
370
-3
390
13
347
21
  0
ENDTAB
  0
TABLE
  2
STYLE
  5
5
330
0
100
AcDbSymbolTable
 70
1
  0
STYLE
  5
29
330
5
100
AcDbSymbolTableRecord
100
AcDbTextStyleTableRecord
  2
Standard
 70
0
 40
0.0
 41
1.0
 50
0.0
 71
0
 42
2.5
  3
txt
  4

  0
ENDTAB
  0
TABLE
  2
VIEW
  5
7
330
0
100
AcDbSymbolTable
 70
0
  0
ENDTAB
  0
TABLE
  2
UCS
  5
6
330
0
100
AcDbSymbolTable
 70
0
  0
ENDTAB
  0
TABLE
  2
APPID
  5
3
330
0
100
AcDbSymbolTable
 70
3
  0
APPID
  5
2A
330
3
100
AcDbSymbolTableRecord
100
AcDbRegAppTableRecord
  2
ACAD
 70
0
  0
APPID
  5
11C
330
3
100
AcDbSymbolTableRecord
100
AcDbRegAppTableRecord
  2
HATCHBACKGROUNDCOLOR
 70
0
  0
APPID
  5
11D
330
3
100
AcDbSymbolTableRecord
100
AcDbRegAppTableRecord
  2
EZDXF
 70
0
  0
ENDTAB
  0
TABLE
  2
DIMSTYLE
  5
4
330
0
100
AcDbSymbolTable
 70
1
100
AcDbDimStyleTable
  0
DIMSTYLE
105
2B
330
4
100
AcDbSymbolTableRecord
100
AcDbDimStyleTableRecord
  2
Standard
 70
0
 40
1.0
 41
2.5
 42
0.625
 43
3.75
 44
1.25
 45
0.0
 46
0.0
 47
0.0
 48
0.0
 49
2.5
140
2.5
141
2.5
142
0.0
143
0.03937007874
144
1.0
145
0.0
146
1.0
147
0.625
148
0.0
 69
0
 70
0
 71
0
 72
0
 73
0
 74
0
 75
0
 76
0
 77
1
 78
8
 79
3
170
0
171
3
172
1
173
0
174
0
175
0
176
0
177
0
178
0
179
2
271
2
272
2
273
2
274
3
275
0
276
0
277
2
278
44
279
0
280
0
281
0
282
0
283
0
284
8
285
0
286
0
288
0
289
3
290
0
371
-2
372
-2
  0
ENDTAB
  0
TABLE
  2
BLOCK_RECORD
  5
9
330
0
100
AcDbSymbolTable
 70
2
  0
BLOCK_RECORD
  5
17
330
9
100
AcDbSymbolTableRecord
100
AcDbBlockTableRecord
  2
*Model_Space
340
1A
 70
0
280
1
281
0
  0
BLOCK_RECORD
  5
1B
330
9
100
AcDbSymbolTableRecord
100
AcDbBlockTableRecord
  2
*Paper_Space
340
1E
 70
0
280
1
281
0
  0
ENDTAB
  0
ENDSEC
  0
SECTION
  2
BLOCKS
  0
BLOCK
  5
18
330
17
100
AcDbEntity
  8
0
100
AcDbBlockBegin
  2
*Model_Space
 70
0
 10
0.0
 20
0.0
 30
0.0
  3
*Model_Space
  1

  0
ENDBLK
  5
19
330
17
100
AcDbEntity
  8
0
100
AcDbBlockEnd
  0
BLOCK
  5
1C
330
1B
100
AcDbEntity
  8
0
100
AcDbBlockBegin
  2
*Paper_Space
 70
0
 10
0.0
 20
0.0
 30
0.0
  3
*Paper_Space
  1

  0
ENDBLK
  5
1D
330
1B
100
AcDbEntity
  8
0
100
AcDbBlockEnd
  0
ENDSEC
  0
SECTION
  2
ENTITIES
  0
LINE
  5
3F
330
17
100
AcDbEntity
  8
Painéis
 62
7
370
25
100
AcDbLine
 10
8656.666613951997
 20
8991.468743471925
 30
0.0
 11
9084.666613952022
 21
8991.468743471953
 31
0.0
  0
LINE
  5
40
330
17
100
AcDbEntity
  8
Painéis
 62
7
370
25
100
AcDbLine
 10
8633.66661395202
 20
8932.468743471938
 30
0.0
 11
9084.666613952022
 21
8932.468743471956
 31
0.0
  0
LINE
  5
41
330
17
100
AcDbEntity
  8
Painéis
 62
7
370
25
100
AcDbLine
 10
8633.66661395202
 20
8932.468743471938
 30
0.0
 11
8633.666613952018
 21
8937.468743471924
 31
0.0
  0
LINE
  5
42
330
17
100
AcDbEntity
  8
Painéis
 62
7
370
25
100
AcDbLine
 10
8877.66661395202
 20
8932.468743471953
 30
0.0
 11
8877.66661395202
 21
8991.46874347194
 31
0.0
  0
LINE
  5
43
330
17
100
AcDbEntity
  8
Painéis
 62
7
370
25
100
AcDbLine
 10
9084.666613952022
 20
8932.468743471953
 30
0.0
 11
9084.666613952011
 21
8991.468743471953
 31
0.0
  0
LINE
  5
44
330
17
100
AcDbEntity
  8
SARR_2.2x7
 62
7
370
25
100
AcDbLine
 10
9077.666613952022
 20
8932.468743471953
 30
0.0
 11
9077.666613952022
 21
8991.468743471953
 31
0.0
  0
LINE
  5
45
330
17
100
AcDbEntity
  8
Defpoints
 62
7
370
25
100
AcDbLine
 10
8341.559622868997
 20
8932.389487999637
 30
0.0
 11
8341.559622868997
 21
9057.389487999637
 31
0.0
  0
LINE
  5
46
330
17
100
AcDbEntity
  8
SARR_2.2x7
 62
7
370
25
100
AcDbLine
 10
8638.794803056882
 20
8736.28277795811
 30
0.0
 11
8638.79480305688
 21
8795.28277795811
 31
0.0
  0
LINE
  5
47
330
17
100
AcDbEntity
  8
Painéis
 62
7
370
25
100
AcDbLine
 10
8631.794803056879
 20
8795.28277795811
 30
0.0
 11
8803.794803056879
 21
8795.282777958117
 31
0.0
  0
LINE
  5
48
330
17
100
AcDbEntity
  8
Painéis
 62
7
370
25
100
AcDbLine
 10
8631.794803056882
 20
8736.28277795811
 30
0.0
 11
9201.794803056882
 21
8736.282777958137
 31
0.0
  0
LINE
  5
49
330
17
100
AcDbEntity
  8
Painéis
 62
7
370
25
100
AcDbLine
 10
8830.79480305688
 20
8736.282777958122
 30
0.0
 11
8830.79480305688
 21
8795.282777958124
 31
0.0
  0
LINE
  5
4A
330
17
100
AcDbEntity
  8
Painéis
 62
7
370
25
100
AcDbLine
 10
8631.794803056882
 20
8736.28277795811
 30
0.0
 11
8631.794803056879
 21
8795.28277795811
 31
0.0
  0
LINE
  5
4B
330
17
100
AcDbEntity
  8
Painéis
 62
7
370
25
100
AcDbLine
 10
8830.79480305688
 20
8741.282777958117
 30
0.0
 11
8803.794803056879
 21
8741.282777958117
 31
0.0
  0
LINE
  5
4C
330
17
100
AcDbEntity
  8
Painéis
 62
7
370
25
100
AcDbLine
 10
8803.794803056879
 20
8741.282777958117
 30
0.0
 11
8803.794803056879
 21
8795.282777958117
 31
0.0
  0
LINE
  5
4D
330
17
100
AcDbEntity
  8
COTA
 62
7
370
25
100
AcDbLine
 10
8803.794803056879
 20
8795.282777958117
 30
0.0
 11
8830.79480305688
 21
8795.282777958124
 31
0.0
  0
LINE
  5
4E
330
17
100
AcDbEntity
  8
SARR_2.2x7
 62
7
370
25
100
AcDbLine
 10
9194.794803056877
 20
8736.28277795811
 30
0.0
 11
9194.794803056877
 21
8795.28277795811
 31
0.0
  0
LINE
  5
4F
330
17
100
AcDbEntity
  8
Painéis
 62
7
370
25
100
AcDbLine
 10
9201.794803056882
 20
8795.28277795811
 30
0.0
 11
9029.794803056879
 21
8795.282777958117
 31
0.0
  0
LINE
  5
50
330
17
100
AcDbEntity
  8
Painéis
 62
7
370
25
100
AcDbLine
 10
9002.794803056879
 20
8736.282777958122
 30
0.0
 11
9002.794803056886
 21
8795.282777958124
 31
0.0
  0
LINE
  5
51
330
17
100
AcDbEntity
  8
Painéis
 62
7
370
25
100
AcDbLine
 10
9201.794803056879
 20
8736.28277795811
 30
0.0
 11
9201.794803056879
 21
8795.28277795811
 31
0.0
  0
LINE
  5
52
330
17
100
AcDbEntity
  8
Painéis
 62
7
370
25
100
AcDbLine
 10
9002.794803056879
 20
8741.282777958117
 30
0.0
 11
9029.794803056879
 21
8741.282777958117
 31
0.0
  0
LINE
  5
53
330
17
100
AcDbEntity
  8
Painéis
 62
7
370
25
100
AcDbLine
 10
9029.794803056879
 20
8741.282777958117
 30
0.0
 11
9029.794803056879
 21
8795.282777958117
 31
0.0
  0
LINE
  5
54
330
17
100
AcDbEntity
  8
COTA
 62
7
370
25
100
AcDbLine
 10
9029.794803056879
 20
8795.282777958117
 30
0.0
 11
9002.794803056886
 21
8795.282777958124
 31
0.0
  0
LINE
  5
55
330
17
100
AcDbEntity
  8
Painéis
 62
7
370
25
100
AcDbLine
 10
8830.79480305688
 20
8795.282777958117
 30
0.0
 11
9002.794803056886
 21
8795.28277795811
 31
0.0
  0
LINE
  5
56
330
17
100
AcDbEntity
  8
SARR_2.2x7
 62
7
370
25
100
AcDbLine
 10
9194.794803056877
 20
8788.282777958108
 30
0.0
 11
9036.794803056879
 21
8788.28277795812
 31
0.0
  0
LINE
  5
57
330
17
100
AcDbEntity
  8
SARR_2.2x7
 62
7
370
25
100
AcDbLine
 10
9194.794803056877
 20
8743.28277795811
 30
0.0
 11
9029.794803056879
 21
8743.282777958098
 31
0.0
  0
LINE
  5
58
330
17
100
AcDbEntity
  8
SARR_2.2x7
 62
7
370
25
100
AcDbLine
 10
9036.794803056882
 20
8762.282777958131
 30
0.0
 11
9194.794803056857
 21
8762.282777958
 31
0.0
  0
LINE
  5
59
330
17
100
AcDbEntity
  8
SARR_2.2x7
 62
7
370
25
100
AcDbLine
 10
9036.794803056882
 20
8769.28277795783
 30
0.0
 11
9194.794803056877
 21
8769.282777957698
 31
0.0
  0
LINE
  5
5A
330
17
100
AcDbEntity
  8
SARR_2.2x7
 62
7
370
25
100
AcDbLine
 10
8995.794803056882
 20
8788.28277795812
 30
0.0
 11
8837.794803056879
 21
8788.282777958135
 31
0.0
  0
LINE
  5
5B
330
17
100
AcDbEntity
  8
SARR_2.2x7
 62
7
370
25
100
AcDbLine
 10
8995.794803056879
 20
8743.282777958126
 30
0.0
 11
8837.794803056882
 21
8743.282777958111
 31
0.0
  0
LINE
  5
5C
330
17
100
AcDbEntity
  8
SARR_2.2x7
 62
7
370
25
100
AcDbLine
 10
8837.794803056879
 20
8762.28277795815
 30
0.0
 11
8995.794803056879
 21
8762.282777958018
 31
0.0
  0
LINE
  5
5D
330
17
100
AcDbEntity
  8
SARR_2.2x7
 62
7
370
25
100
AcDbLine
 10
8837.794803056879
 20
8769.282777957847
 30
0.0
 11
8995.794803056879
 21
8769.28277795772
 31
0.0
  0
LINE
  5
5E
330
17
100
AcDbEntity
  8
SARR_2.2x7
 62
7
370
25
100
AcDbLine
 10
8796.794803056879
 20
8790.782777958111
 30
0.0
 11
8638.79480305688
 21
8790.782777958128
 31
0.0
  0
LINE
  5
5F
330
17
100
AcDbEntity
  8
SARR_2.2x7
 62
7
370
25
100
AcDbLine
 10
8803.794803056879
 20
8745.782777958117
 30
0.0
 11
8638.794803056882
 21
8745.782777958106
 31
0.0
  0
LINE
  5
60
330
17
100
AcDbEntity
  8
SARR_2.2x7
 62
7
370
25
100
AcDbLine
 10
8638.79480305688
 20
8764.782777958142
 30
0.0
 11
8796.794803056873
 21
8764.782777958011
 31
0.0
  0
LINE
  5
61
330
17
100
AcDbEntity
  8
SARR_2.2x7
 62
7
370
25
100
AcDbLine
 10
8638.79480305688
 20
8771.78277795784
 30
0.0
 11
8796.794803056873
 21
8771.782777957707
 31
0.0
  0
LINE
  5
62
330
17
100
AcDbEntity
  8
SARR_2.2x7
 62
7
370
25
100
AcDbLine
 10
8796.794803056873
 20
8745.782777958117
 30
0.0
 11
8796.794803056879
 21
8795.28277795811
 31
0.0
  0
LINE
  5
63
330
17
100
AcDbEntity
  8
SARR_2.2x7
 62
7
370
25
100
AcDbLine
 10
8995.794803056879
 20
8736.282777958098
 30
0.0
 11
8995.794803056882
 21
8795.282777958098
 31
0.0
  0
LINE
  5
64
330
17
100
AcDbEntity
  8
SARR_2.2x7
 62
7
370
25
100
AcDbLine
 10
8837.794803056882
 20
8736.282777958122
 30
0.0
 11
8837.794803056879
 21
8795.282777958118
 31
0.0
  0
LINE
  5
65
330
17
100
AcDbEntity
  8
SARR_2.2x7
 62
7
370
25
100
AcDbLine
 10
9036.794803056884
 20
8743.282777958098
 30
0.0
 11
9036.794803056879
 21
8795.28277795811
 31
0.0
  0
LINE
  5
66
330
17
100
AcDbEntity
  8
SARR_2.2x7
 62
7
370
25
100
AcDbLine
 10
9077.666613952022
 20
8984.468743471947
 30
0.0
 11
8877.66661395202
 21
8984.468743471962
 31
0.0
  0
LINE
  5
67
330
17
100
AcDbEntity
  8
SARR_2.2x7
 62
7
370
25
100
AcDbLine
 10
9077.666613952022
 20
8939.468743471954
 30
0.0
 11
8877.66661395202
 21
8939.468743471942
 31
0.0
  0
LINE
  5
68
330
17
100
AcDbEntity
  8
SARR_2.2x7
 62
7
370
25
100
AcDbLine
 10
8877.66661395202
 20
8958.46874347201
 30
0.0
 11
9077.666613952
 21
8958.468743471843
 31
0.0
  0
LINE
  5
69
330
17
100
AcDbEntity
  8
SARR_2.2x7
 62
7
370
25
100
AcDbLine
 10
8877.66661395202
 20
8965.468743471709
 30
0.0
 11
9077.666613952022
 21
8965.468743471542
 31
0.0
  0
LINE
  5
6A
330
17
100
AcDbEntity
  8
SARR_2.2x7
 62
7
370
25
100
AcDbLine
 10
8877.66661395202
 20
8984.468743471942
 30
0.0
 11
8663.666613951988
 21
8984.468743471962
 31
0.0
  0
LINE
  5
6B
330
17
100
AcDbEntity
  8
SARR_2.2x7
 62
7
370
25
100
AcDbLine
 10
8877.66661395202
 20
8939.468743471947
 30
0.0
 11
8663.666613951988
 21
8939.468743471933
 31
0.0
  0
LINE
  5
6C
330
17
100
AcDbEntity
  8
SARR_2.2x7
 62
7
370
25
100
AcDbLine
 10
8663.666613951988
 20
8958.468743471996
 30
0.0
 11
8877.666613951998
 21
8958.468743471836
 31
0.0
  0
LINE
  5
6D
330
17
100
AcDbEntity
  8
SARR_2.2x7
 62
7
370
25
100
AcDbLine
 10
8663.666613951988
 20
8965.468743471694
 30
0.0
 11
8877.66661395202
 21
8965.468743471534
 31
0.0
  0
LINE
  5
6E
330
17
100
AcDbEntity
  8
SARR_2.2x7
 62
7
370
25
100
AcDbLine
 10
8663.666613951988
 20
8932.468743471938
 30
0.0
 11
8663.666613951988
 21
8991.468743471925
 31
0.0
  0
LINE
  5
6F
330
17
100
AcDbEntity
  8
Painéis
 62
7
370
25
100
AcDbLine
 10
8656.666613952
 20
8991.468743471925
 30
0.0
 11
8656.666613952
 21
8937.468743471927
 31
0.0
  0
LINE
  5
70
330
17
100
AcDbEntity
  8
Painéis
 62
7
370
25
100
AcDbLine
 10
8656.666613952
 20
8937.468743471927
 30
0.0
 11
8633.666613952018
 21
8937.468743471924
 31
0.0
  0
LINE
  5
71
330
17
100
AcDbEntity
  8
SARR_EDITAR
 62
7
370
25
100
AcDbLine
 10
8656.666613952
 20
8937.468743471927
 30
0.0
 11
8656.666613951997
 21
8932.468743471938
 31
0.0
  0
LINE
  5
72
330
17
100
AcDbEntity
  8
SARR_EDITAR
 62
7
370
25
100
AcDbLine
 10
8656.666613952
 20
8934.968743471933
 30
0.0
 11
8633.666613952018
 21
8934.968743471933
 31
0.0
  0
LINE
  5
73
330
17
100
AcDbEntity
  8
COTA
 62
7
370
25
100
AcDbLine
 10
8633.666613952018
 20
8937.468743471924
 30
0.0
 11
8633.666613952
 21
8991.468743471925
 31
0.0
  0
LINE
  5
74
330
17
100
AcDbEntity
  8
COTA
 62
7
370
25
100
AcDbLine
 10
8633.666613952
 20
8991.468743471925
 30
0.0
 11
8656.666613951997
 21
8991.468743471925
 31
0.0
  0
LINE
  5
75
330
17
100
AcDbEntity
  8
COTA
 62
7
370
25
100
AcDbLine
 10
8900.989606560244
 20
9306.7014541686
 30
0.0
 11
8900.989606560244
 21
9320.7014541686
 31
0.0
  0
LINE
  5
76
330
17
100
AcDbEntity
  8
COTA
 62
7
370
25
100
AcDbLine
 10
8900.989606560244
 20
9320.7014541686
 30
0.0
 11
8482.994606560245
 21
9320.7014541686
 31
0.0
  0
LINE
  5
77
330
17
100
AcDbEntity
  8
COTA
 62
7
370
25
100
AcDbLine
 10
8482.994606560245
 20
9320.7014541686
 30
0.0
 11
8482.994606560245
 21
9306.701454168602
 31
0.0
  0
LINE
  5
78
330
17
100
AcDbEntity
  8
SARR_2.2x7
 62
7
370
25
100
AcDbLine
 10
8893.989606560244
 20
9266.7014541686
 30
0.0
 11
8893.989606560244
 21
9306.7014541686
 31
0.0
  0
LINE
  5
79
330
17
100
AcDbEntity
  8
SARR_2.2x7
 62
7
370
25
100
AcDbLine
 10
8489.994606560243
 20
9266.7014541686
 30
0.0
 11
8489.994606560243
 21
9306.7014541686
 31
0.0
  0
LINE
  5
7A
330
17
100
AcDbEntity
  8
Painéis
 62
7
370
25
100
AcDbLine
 10
8726.94460656024
 20
9306.7014541686
 30
0.0
 11
8726.94460656024
 21
9266.701454168604
 31
0.0
  0
LINE
  5
7B
330
17
100
AcDbEntity
  8
Defpoints
 62
7
370
25
100
AcDbLine
 10
8341.576003866747
 20
9244.15643713961
 30
0.0
 11
8341.576003866747
 21
9369.15643713961
 31
0.0
  0
LINE
  5
7C
330
17
100
AcDbEntity
  8
presilha
 62
7
370
25
100
AcDbLine
 10
8298.508804732208
 20
9135.523103806308
 30
0.0
 11
8298.508804732208
 21
9130.923263806324
 31
0.0
  0
LINE
  5
7D
330
17
100
AcDbEntity
  8
presilha
 62
7
370
25
100
AcDbLine
 10
8298.508804732208
 20
9130.923263806324
 30
0.0
 11
8278.508440227855
 21
9130.923263806317
 31
0.0
  0
LINE
  5
7E
330
17
100
AcDbEntity
  8
presilha
 62
7
370
25
100
AcDbLine
 10
8277.508440227855
 20
9138.52310380631
 30
0.0
 11
8278.508440227855
 21
9138.52310380631
 31
0.0
  0
LINE
  5
7F
330
17
100
AcDbEntity
  8
presilha
 62
7
370
25
100
AcDbLine
 10
8278.508440227855
 20
9138.52310380631
 30
0.0
 11
8278.508440227855
 21
9126.52310380631
 31
0.0
  0
LINE
  5
80
330
17
100
AcDbEntity
  8
presilha
 62
7
370
25
100
AcDbLine
 10
8278.508440227855
 20
9126.52310380631
 30
0.0
 11
8277.508440227855
 21
9126.52310380631
 31
0.0
  0
LINE
  5
81
330
17
100
AcDbEntity
  8
presilha
 62
7
370
25
100
AcDbLine
 10
8277.508440227855
 20
9126.52310380631
 30
0.0
 11
8277.508440227855
 21
9138.52310380631
 31
0.0
  0
LINE
  5
82
330
17
100
AcDbEntity
  8
presilha
 62
7
370
25
100
AcDbLine
 10
8281.508440227853
 20
9142.189770472976
 30
0.0
 11
8281.508440227853
 21
9141.189770472976
 31
0.0
  0
LINE
  5
83
330
17
100
AcDbEntity
  8
presilha
 62
7
370
25
100
AcDbLine
 10
8298.508804732208
 20
9135.523103806308
 30
0.0
 11
8279.888804732209
 21
9135.523103806308
 31
0.0
  0
LINE
  5
84
330
17
100
AcDbEntity
  8
presilha
 62
7
370
25
100
AcDbLine
 10
8278.508804732208
 20
9135.283103806309
 30
0.0
 11
8278.508440227853
 21
9141.429770472978
 31
0.0
  0
LINE
  5
85
330
17
100
AcDbEntity
  8
presilha
 62
7
370
25
100
AcDbLine
 10
8279.508804732208
 20
9135.90310380631
 30
0.0
 11
8279.508440227853
 21
9140.809770472975
 31
0.0
  0
LINE
  5
86
330
17
100
AcDbEntity
  8
presilha
 62
7
370
25
100
AcDbLine
 10
8281.508440227853
 20
9142.189770472976
 30
0.0
 11
8279.268440227834
 21
9142.189770472976
 31
0.0
  0
LINE
  5
87
330
17
100
AcDbEntity
  8
presilha
 62
7
370
25
100
AcDbLine
 10
8281.508440227853
 20
9141.189770472976
 30
0.0
 11
8279.888440227855
 21
9141.189770472976
 31
0.0
  0
LINE
  5
88
330
17
100
AcDbEntity
  8
presilha
 62
7
370
25
100
AcDbLine
 10
8273.508440227855
 20
9136.856437139644
 30
0.0
 11
8277.508440227855
 21
9136.856437139644
 31
0.0
  0
LINE
  5
89
330
17
100
AcDbEntity
  8
presilha
 62
7
370
25
100
AcDbLine
 10
8277.508440227855
 20
9136.856437139644
 30
0.0
 11
8277.508440227855
 21
9128.189770472978
 31
0.0
  0
LINE
  5
8A
330
17
100
AcDbEntity
  8
presilha
 62
7
370
25
100
AcDbLine
 10
8277.508440227855
 20
9128.189770472978
 30
0.0
 11
8273.508440227855
 21
9128.189770472978
 31
0.0
  0
LINE
  5
8B
330
17
100
AcDbEntity
  8
presilha
 62
7
370
25
100
AcDbLine
 10
8273.508440227855
 20
9136.856437139644
 30
0.0
 11
8273.508440227855
 21
9128.189770472978
 31
0.0
  0
LINE
  5
8C
330
17
100
AcDbEntity
  8
presilha
 62
7
370
25
100
AcDbLine
 10
8380.243203001291
 20
9135.523103806308
 30
0.0
 11
8380.243203001291
 21
9130.923263806324
 31
0.0
  0
LINE
  5
8D
330
17
100
AcDbEntity
  8
presilha
 62
7
370
25
100
AcDbLine
 10
8380.243203001291
 20
9130.923263806324
 30
0.0
 11
8400.243567505644
 21
9130.923263806317
 31
0.0
  0
LINE
  5
8E
330
17
100
AcDbEntity
  8
presilha
 62
7
370
25
100
AcDbLine
 10
8401.243567505644
 20
9138.52310380631
 30
0.0
 11
8400.243567505644
 21
9138.52310380631
 31
0.0
  0
LINE
  5
8F
330
17
100
AcDbEntity
  8
presilha
 62
7
370
25
100
AcDbLine
 10
8400.243567505644
 20
9138.52310380631
 30
0.0
 11
8400.243567505644
 21
9126.52310380631
 31
0.0
  0
LINE
  5
90
330
17
100
AcDbEntity
  8
presilha
 62
7
370
25
100
AcDbLine
 10
8400.243567505644
 20
9126.52310380631
 30
0.0
 11
8401.243567505644
 21
9126.52310380631
 31
0.0
  0
LINE
  5
91
330
17
100
AcDbEntity
  8
presilha
 62
7
370
25
100
AcDbLine
 10
8401.243567505644
 20
9126.52310380631
 30
0.0
 11
8401.243567505644
 21
9138.52310380631
 31
0.0
  0
LINE
  5
92
330
17
100
AcDbEntity
  8
presilha
 62
7
370
25
100
AcDbLine
 10
8397.243567505646
 20
9142.189770472976
 30
0.0
 11
8397.243567505646
 21
9141.189770472976
 31
0.0
  0
LINE
  5
93
330
17
100
AcDbEntity
  8
presilha
 62
7
370
25
100
AcDbLine
 10
8380.243203001291
 20
9135.523103806308
 30
0.0
 11
8398.86320300129
 21
9135.523103806308
 31
0.0
  0
LINE
  5
94
330
17
100
AcDbEntity
  8
presilha
 62
7
370
25
100
AcDbLine
 10
8400.243203001291
 20
9135.283103806309
 30
0.0
 11
8400.243567505646
 21
9141.429770472978
 31
0.0
  0
LINE
  5
95
330
17
100
AcDbEntity
  8
presilha
 62
7
370
25
100
AcDbLine
 10
8399.243203001291
 20
9135.90310380631
 30
0.0
 11
8399.243567505646
 21
9140.809770472975
 31
0.0
  0
LINE
  5
96
330
17
100
AcDbEntity
  8
presilha
 62
7
370
25
100
AcDbLine
 10
8397.243567505646
 20
9142.189770472976
 30
0.0
 11
8399.483567505666
 21
9142.189770472976
 31
0.0
  0
LINE
  5
97
330
17
100
AcDbEntity
  8
presilha
 62
7
370
25
100
AcDbLine
 10
8397.243567505646
 20
9141.189770472976
 30
0.0
 11
8398.863567505645
 21
9141.189770472976
 31
0.0
  0
LINE
  5
98
330
17
100
AcDbEntity
  8
presilha
 62
7
370
25
100
AcDbLine
 10
8405.243567505644
 20
9136.856437139644
 30
0.0
 11
8401.243567505644
 21
9136.856437139644
 31
0.0
  0
LINE
  5
99
330
17
100
AcDbEntity
  8
presilha
 62
7
370
25
100
AcDbLine
 10
8401.243567505644
 20
9136.856437139644
 30
0.0
 11
8401.243567505644
 21
9128.189770472978
 31
0.0
  0
LINE
  5
9A
330
17
100
AcDbEntity
  8
presilha
 62
7
370
25
100
AcDbLine
 10
8401.243567505644
 20
9128.189770472978
 30
0.0
 11
8405.243567505644
 21
9128.189770472978
 31
0.0
  0
LINE
  5
9B
330
17
100
AcDbEntity
  8
presilha
 62
7
370
25
100
AcDbLine
 10
8405.243567505644
 20
9136.856437139644
 30
0.0
 11
8405.243567505644
 21
9128.189770472978
 31
0.0
  0
LINE
  5
9C
330
17
100
AcDbEntity
  8
0
 62
7
370
25
100
AcDbLine
 10
8272.37600386672
 20
9192.1264946679
 30
0.0
 11
8272.37600386672
 21
9180.1264946679
 31
0.0
  0
LINE
  5
9D
330
17
100
AcDbEntity
  8
0
 62
7
370
25
100
AcDbLine
 10
8408.37600386675
 20
9189.126494667915
 30
0.0
 11
8408.37600386675
 21
9183.126494667915
 31
0.0
  0
LINE
  5
9E
330
17
100
AcDbEntity
  8
0
 62
7
370
25
100
AcDbLine
 10
8406.37600386675
 20
9192.126494667915
 30
0.0
 11
8406.37600386675
 21
9180.126494667915
 31
0.0
  0
LINE
  5
9F
330
17
100
AcDbEntity
  8
0
 62
7
370
25
100
AcDbLine
 10
8406.37600386675
 20
9183.126494667915
 30
0.0
 11
8408.37600386675
 21
9183.126494667915
 31
0.0
  0
LINE
  5
A0
330
17
100
AcDbEntity
  8
0
 62
7
370
25
100
AcDbLine
 10
8272.37600386672
 20
9180.1264946679
 30
0.0
 11
8302.37600386672
 21
9180.1264946679
 31
0.0
  0
LINE
  5
A1
330
17
100
AcDbEntity
  8
0
 62
7
370
25
100
AcDbLine
 10
8376.37600386675
 20
9185.126494667915
 30
0.0
 11
8406.37600386675
 21
9185.126494667915
 31
0.0
  0
LINE
  5
A2
330
17
100
AcDbEntity
  8
0
 62
7
370
25
100
AcDbLine
 10
8376.37600386675
 20
9187.126494667915
 30
0.0
 11
8406.37600386675
 21
9187.126494667915
 31
0.0
  0
LINE
  5
A3
330
17
100
AcDbEntity
  8
TENSOR
 62
7
370
25
100
AcDbLine
 10
8411.37600386675
 20
9186.1264946679
 30
0.0
 11
8267.072709688622
 21
9186.1264946679
 31
0.0
  0
LINE
  5
A4
330
17
100
AcDbEntity
  8
0
 62
7
370
25
100
AcDbLine
 10
8406.37600386675
 20
9189.126494667915
 30
0.0
 11
8408.37600386675
 21
9189.126494667915
 31
0.0
  0
LINE
  5
A5
330
17
100
AcDbEntity
  8
0
 62
7
370
25
100
AcDbLine
 10
8302.37600386672
 20
9185.1264946679
 30
0.0
 11
8272.37600386672
 21
9185.1264946679
 31
0.0
  0
LINE
  5
A6
330
17
100
AcDbEntity
  8
0
 62
7
370
25
100
AcDbLine
 10
8302.37600386672
 20
9187.1264946679
 30
0.0
 11
8272.37600386672
 21
9187.1264946679
 31
0.0
  0
LINE
  5
A7
330
17
100
AcDbEntity
  8
0
 62
7
370
25
100
AcDbLine
 10
8272.37600386672
 20
9192.1264946679
 30
0.0
 11
8302.37600386672
 21
9192.1264946679
 31
0.0
  0
LINE
  5
A8
330
17
100
AcDbEntity
  8
0
 62
7
370
25
100
AcDbLine
 10
8406.37600386675
 20
9180.126494667915
 30
0.0
 11
8376.37600386675
 21
9180.126494667915
 31
0.0
  0
LINE
  5
A9
330
17
100
AcDbEntity
  8
0
 62
7
370
25
100
AcDbLine
 10
8406.37600386675
 20
9192.126494667915
 30
0.0
 11
8376.37600386675
 21
9192.126494667915
 31
0.0
  0
LINE
  5
AA
330
17
100
AcDbEntity
  8
0
 62
7
370
25
100
AcDbLine
 10
8270.37600386672
 20
9189.1264946679
 30
0.0
 11
8270.37600386672
 21
9183.1264946679
 31
0.0
  0
LINE
  5
AB
330
17
100
AcDbEntity
  8
0
 62
7
370
25
100
AcDbLine
 10
8272.37600386672
 20
9183.1264946679
 30
0.0
 11
8270.37600386672
 21
9183.1264946679
 31
0.0
  0
LINE
  5
AC
330
17
100
AcDbEntity
  8
0
 62
7
370
25
100
AcDbLine
 10
8270.37600386672
 20
9189.1264946679
 30
0.0
 11
8272.37600386672
 21
9189.1264946679
 31
0.0
  0
LINE
  5
AD
330
17
100
AcDbEntity
  8
COTA
 62
7
370
25
100
AcDbLine
 10
9206.058402613022
 20
9305.023313140206
 30
0.0
 11
9206.058402613022
 21
9319.023313140204
 31
0.0
  0
LINE
  5
AE
330
17
100
AcDbEntity
  8
COTA
 62
7
370
25
100
AcDbLine
 10
9206.058402613022
 20
9319.023313140204
 30
0.0
 11
9023.063402613025
 21
9319.023313140204
 31
0.0
  0
LINE
  5
AF
330
17
100
AcDbEntity
  8
COTA
 62
7
370
25
100
AcDbLine
 10
9023.063402613025
 20
9319.023313140204
 30
0.0
 11
9023.063402613025
 21
9305.02331314021
 31
0.0
  0
LINE
  5
B0
330
17
100
AcDbEntity
  8
SARR_2.2x7
 62
7
370
25
100
AcDbLine
 10
9199.058402613022
 20
9265.023313140206
 30
0.0
 11
9199.058402613022
 21
9305.023313140206
 31
0.0
  0
LINE
  5
B1
330
17
100
AcDbEntity
  8
SARR_2.2x7
 62
7
370
25
100
AcDbLine
 10
9030.063402613023
 20
9265.023313140206
 30
0.0
 11
9030.063402613023
 21
9305.023313140206
 31
0.0
  0
LINE
  5
B2
330
17
100
AcDbEntity
  8
Painéis
 62
7
370
25
100
AcDbLine
 10
9145.013402613018
 20
9305.023313140206
 30
0.0
 11
9145.013402613018
 21
9265.02331314021
 31
0.0
  0
LINE
  5
B3
330
17
100
AcDbEntity
  8
COTA
 62
7
370
25
100
AcDbLine
 10
9454.446243041026
 20
9305.023313140206
 30
0.0
 11
9454.446243041026
 21
9319.023313140204
 31
0.0
  0
LINE
  5
B4
330
17
100
AcDbEntity
  8
COTA
 62
7
370
25
100
AcDbLine
 10
9454.446243041026
 20
9319.023313140204
 30
0.0
 11
9238.451243041027
 21
9319.023313140204
 31
0.0
  0
LINE
  5
B5
330
17
100
AcDbEntity
  8
COTA
 62
7
370
25
100
AcDbLine
 10
9238.451243041027
 20
9319.023313140204
 30
0.0
 11
9238.451243041027
 21
9305.02331314021
 31
0.0
  0
LINE
  5
B6
330
17
100
AcDbEntity
  8
SARR_2.2x7
 62
7
370
25
100
AcDbLine
 10
9447.446243041026
 20
9265.023313140206
 30
0.0
 11
9447.446243041026
 21
9305.023313140206
 31
0.0
  0
LINE
  5
B7
330
17
100
AcDbEntity
  8
SARR_2.2x7
 62
7
370
25
100
AcDbLine
 10
9245.451243041029
 20
9265.023313140206
 30
0.0
 11
9245.451243041029
 21
9305.023313140206
 31
0.0
  0
LINE
  5
B8
330
17
100
AcDbEntity
  8
Painéis
 62
7
370
25
100
AcDbLine
 10
9360.401243041022
 20
9305.023313140206
 30
0.0
 11
9360.401243041022
 21
9265.02331314021
 31
0.0
  0
LINE
  5
B9
330
17
100
AcDbEntity
  8
COTA
 62
7
370
25
100
AcDbLine
 10
8147.707468427922
 20
9057.389487999637
 30
0.0
 11
9517.707468427921
 21
9057.389487999637
 31
0.0
  0
LINE
  5
BA
330
17
100
AcDbEntity
  8
SARR_2.2x7
 62
7
370
25
100
AcDbLine
 10
8726.94460656024
 20
9299.701454169044
 30
0.0
 11
8489.99460656025
 21
9299.70145416843
 31
0.0
  0
LINE
  5
BB
330
17
100
AcDbEntity
  8
SARR_2.2x7
 62
7
370
25
100
AcDbLine
 10
8726.94460656024
 20
9273.701454168104
 30
0.0
 11
8489.99460656025
 21
9273.701454168757
 31
0.0
  0
LINE
  5
BC
330
17
100
AcDbEntity
  8
SARR_2.2x7
 62
7
370
25
100
AcDbLine
 10
8893.989606560244
 20
9299.701454168862
 30
0.0
 11
8726.944606560242
 21
9299.70145416843
 31
0.0
  0
LINE
  5
BD
330
17
100
AcDbEntity
  8
SARR_2.2x7
 62
7
370
25
100
AcDbLine
 10
8893.989606560244
 20
9273.701454168295
 30
0.0
 11
8726.944606560242
 21
9273.701454168757
 31
0.0
  0
LINE
  5
BE
330
17
100
AcDbEntity
  8
SARR_2.2x7
 62
7
370
25
100
AcDbLine
 10
9145.013402613018
 20
9298.02331314033
 30
0.0
 11
9030.063402613026
 21
9298.023313140035
 31
0.0
  0
LINE
  5
BF
330
17
100
AcDbEntity
  8
SARR_2.2x7
 62
7
370
25
100
AcDbLine
 10
9145.013402613018
 20
9272.023313140042
 30
0.0
 11
9030.063402613026
 21
9272.023313140362
 31
0.0
  0
LINE
  5
C0
330
17
100
AcDbEntity
  8
SARR_2.2x7
 62
7
370
25
100
AcDbLine
 10
9199.058402613022
 20
9298.02331314025
 30
0.0
 11
9145.013402613022
 21
9298.023313140035
 31
0.0
  0
LINE
  5
C1
330
17
100
AcDbEntity
  8
SARR_2.2x7
 62
7
370
25
100
AcDbLine
 10
9199.058402613022
 20
9272.023313140133
 30
0.0
 11
9145.013402613022
 21
9272.023313140362
 31
0.0
  0
LINE
  5
C2
330
17
100
AcDbEntity
  8
SARR_2.2x7
 62
7
370
25
100
AcDbLine
 10
9360.401243041022
 20
9298.02331314033
 30
0.0
 11
9245.45124304103
 21
9298.023313140035
 31
0.0
  0
LINE
  5
C3
330
17
100
AcDbEntity
  8
SARR_2.2x7
 62
7
370
25
100
AcDbLine
 10
9360.401243041022
 20
9272.023313140042
 30
0.0
 11
9245.45124304103
 21
9272.023313140362
 31
0.0
  0
LINE
  5
C4
330
17
100
AcDbEntity
  8
SARR_2.2x7
 62
7
370
25
100
AcDbLine
 10
9447.446243041028
 20
9298.023313140166
 30
0.0
 11
9360.401243041026
 21
9298.023313140035
 31
0.0
  0
LINE
  5
C5
330
17
100
AcDbEntity
  8
SARR_2.2x7
 62
7
370
25
100
AcDbLine
 10
9447.446243041028
 20
9272.023313140224
 30
0.0
 11
9360.401243041026
 21
9272.023313140362
 31
0.0
  0
LWPOLYLINE
  5
C6
330
17
100
AcDbEntity
  8
Painéis
 62
7
370
25
100
AcDbPolyline
 90
4
 70
1
 10
8316.359622869
 20
8932.389487999637
 10
8320.359622869
 20
8932.389487999637
 10
8320.359622869
 20
8814.389487999637
 10
8316.359622869
 20
8814.389487999637
  0
LWPOLYLINE
  5
C7
330
17
100
AcDbEntity
  8
Madeira
 62
7
370
25
100
AcDbPolyline
 90
4
 70
1
 10
8358.359622869
 20
8814.389487999637
 10
8358.359622869
 20
8818.78948799963
 10
8344.359622868998
 20
8818.78948799963
 10
8344.359622868998
 20
8814.389487999637
  0
LWPOLYLINE
  5
C8
330
17
100
AcDbEntity
  8
Painéis
 62
7
370
25
100
AcDbPolyline
 90
4
 70
1
 10
8358.359622869
 20
8818.78948799963
 10
8358.359622869
 20
8822.389487999635
 10
8320.359622869
 20
8822.389487999635
 10
8320.359622869
 20
8818.78948799963
  0
LWPOLYLINE
  5
C9
330
17
100
AcDbEntity
  8
Madeira
 62
7
370
25
100
AcDbPolyline
 90
4
 70
1
 10
8320.359622869
 20
8814.389487999637
 10
8320.359622869
 20
8818.78948799963
 10
8334.359622869
 20
8818.78948799963
 10
8334.359622869
 20
8814.389487999637
  0
LWPOLYLINE
  5
CA
330
17
100
AcDbEntity
  8
Painéis
 62
7
370
25
100
AcDbPolyline
 90
4
 70
1
 10
8362.359622869011
 20
8932.389487999637
 10
8358.359622869011
 20
8932.389487999637
 10
8358.359622869
 20
8814.389487999637
 10
8362.359622869
 20
8814.389487999637
  0
LWPOLYLINE
  5
CB
330
17
100
AcDbEntity
  8
CONCRETO
 62
7
370
25
100
AcDbPolyline
 90
8
 70
1
 10
8320.359622869
 20
8932.389487999637
 10
8320.359622869
 20
8932.389487999637
 10
8358.359622869008
 20
8932.389487999637
 10
8358.359622869008
 20
8904.389487999622
 10
8358.359622869
 20
8904.389487999622
 10
8358.359622868942
 20
8822.389487999635
 10
8320.359622869
 20
8822.389487999635
 10
8320.359622869
 20
8932.389487999644
  0
LWPOLYLINE
  5
CC
330
17
100
AcDbEntity
  8
Madeira
 62
7
370
25
100
AcDbPolyline
 90
4
 70
1
 10
8311.959622869006
 20
8918.389487999639
 10
8316.359622869
 20
8918.389487999639
 10
8316.359622869
 20
8932.389487999637
 10
8311.959622869006
 20
8932.389487999637
  0
LWPOLYLINE
  5
CD
330
17
100
AcDbEntity
  8
Madeira
 62
7
370
25
100
AcDbPolyline
 90
4
 70
1
 10
8311.959622868999
 20
8863.531310802075
 10
8316.359622868991
 20
8863.531310802075
 10
8316.359622868991
 20
8877.531310802075
 10
8311.959622868999
 20
8877.531310802075
  0
LWPOLYLINE
  5
CE
330
17
100
AcDbEntity
  8
Madeira
 62
7
370
25
100
AcDbPolyline
 90
4
 70
1
 10
8311.959622868995
 20
8814.389487999637
 10
8316.35962286899
 20
8814.389487999637
 10
8316.35962286899
 20
8828.389487999635
 10
8311.959622868995
 20
8828.389487999635
  0
LWPOLYLINE
  5
CF
330
17
100
AcDbEntity
  8
Madeira
 62
7
370
25
100
AcDbPolyline
 90
4
 70
1
 10
8366.759622868994
 20
8918.389487999639
 10
8362.359622869
 20
8918.389487999639
 10
8362.359622869
 20
8932.389487999637
 10
8366.759622868994
 20
8932.389487999637
  0
LWPOLYLINE
  5
D0
330
17
100
AcDbEntity
  8
Madeira
 62
7
370
25
100
AcDbPolyline
 90
4
 70
1
 10
8366.759622869002
 20
8863.531310802075
 10
8362.359622869008
 20
8863.531310802075
 10
8362.359622869008
 20
8877.531310802075
 10
8366.759622869002
 20
8877.531310802075
  0
LWPOLYLINE
  5
D1
330
17
100
AcDbEntity
  8
Madeira
 62
7
370
25
100
AcDbPolyline
 90
4
 70
1
 10
8366.759622869005
 20
8814.389487999637
 10
8362.359622869011
 20
8814.389487999637
 10
8362.359622869011
 20
8828.389487999635
 10
8366.759622869005
 20
8828.389487999635
  0
LWPOLYLINE
  5
D2
330
17
100
AcDbEntity
  8
SARR_3.5x7
 62
7
370
25
100
AcDbPolyline
 90
4
 70
1
 10
8297.959622868933
 20
8926.389487999637
 10
8311.959622868933
 20
8926.389487999637
 10
8311.95962286906
 20
8737.911274593833
 10
8297.95962286906
 20
8737.911274593833
  0
LWPOLYLINE
  5
D3
330
17
100
AcDbEntity
  8
SARR_3.5x7
 62
7
370
25
100
AcDbPolyline
 90
4
 70
1
 10
8380.75962286922
 20
8926.38948799964
 10
8366.759622869222
 20
8926.38948799964
 10
8366.75962286907
 20
8737.911274593833
 10
8380.75962286907
 20
8737.911274593833
  0
LWPOLYLINE
  5
D4
330
17
100
AcDbEntity
  8
SARR_3.5x7
 62
7
370
25
100
AcDbPolyline
 90
4
 70
1
 10
8297.959622868919
 20
8814.389487999637
 10
8380.759622869118
 20
8814.389487999637
 10
8380.759622869118
 20
8784.331426395638
 10
8297.959622868919
 20
8784.331426395638
  0
LWPOLYLINE
  5
D5
330
17
100
AcDbEntity
  8
Painéis
 62
7
370
25
100
AcDbPolyline
 90
4
 70
1
 10
8482.994606560245
 20
9306.7014541686
 10
8900.989606560244
 20
9306.7014541686
 10
8900.989606560244
 20
9266.7014541686
 10
8482.994606560245
 20
9266.7014541686
  0
LWPOLYLINE
  5
D6
330
17
100
AcDbEntity
  8
Painéis
 62
7
370
25
100
AcDbPolyline
 90
4
 70
1
 10
8316.37600386675
 20
9216.156437139585
 10
8320.37600386675
 20
9216.156437139585
 10
8320.37600386675
 20
9136.156437139609
 10
8316.37600386675
 20
9136.156437139609
  0
LWPOLYLINE
  5
D7
330
17
100
AcDbEntity
  8
Madeira
 62
7
370
25
100
AcDbPolyline
 90
4
 70
1
 10
8316.37600386675
 20
9211.756437139586
 10
8316.37600386675
 20
9216.156437139585
 10
8302.376003866751
 20
9216.156437139585
 10
8302.376003866751
 20
9211.756437139586
  0
LWPOLYLINE
  5
D8
330
17
100
AcDbEntity
  8
Madeira
 62
7
370
25
100
AcDbPolyline
 90
4
 70
1
 10
8282.37600386675
 20
9136.156437139609
 10
8282.37600386675
 20
9140.556437139605
 10
8302.376003866751
 20
9140.556437139605
 10
8302.376003866751
 20
9136.156437139609
  0
LWPOLYLINE
  5
D9
330
17
100
AcDbEntity
  8
Madeira
 62
7
370
25
100
AcDbPolyline
 90
4
 70
1
 10
8316.37600386675
 20
9216.156437139585
 10
8302.376003866751
 20
9216.156437139585
 10
8302.376003866751
 20
9136.156437139609
 10
8316.37600386675
 20
9136.156437139609
  0
LWPOLYLINE
  5
DA
330
17
100
AcDbEntity
  8
Madeira
 62
7
370
25
100
AcDbPolyline
 90
4
 70
1
 10
8358.37600386675
 20
9136.156437139609
 10
8358.37600386675
 20
9140.556437139605
 10
8344.37600386675
 20
9140.556437139605
 10
8344.37600386675
 20
9136.156437139609
  0
LWPOLYLINE
  5
DB
330
17
100
AcDbEntity
  8
Painéis
 62
7
370
25
100
AcDbPolyline
 90
4
 70
1
 10
8358.37600386675
 20
9140.556437139605
 10
8358.37600386675
 20
9144.15643713961
 10
8320.37600386675
 20
9144.15643713961
 10
8320.37600386675
 20
9140.556437139605
  0
LWPOLYLINE
  5
DC
330
17
100
AcDbEntity
  8
Madeira
 62
7
370
25
100
AcDbPolyline
 90
4
 70
1
 10
8320.37600386675
 20
9136.156437139609
 10
8320.37600386675
 20
9140.556437139605
 10
8334.37600386675
 20
9140.556437139605
 10
8334.37600386675
 20
9136.156437139609
  0
LWPOLYLINE
  5
DD
330
17
100
AcDbEntity
  8
Painéis
 62
7
370
25
100
AcDbPolyline
 90
4
 70
1
 10
8362.37600386675
 20
9216.156437139585
 10
8358.37600386675
 20
9216.156437139585
 10
8358.37600386675
 20
9136.156437139609
 10
8362.37600386675
 20
9136.156437139609
  0
LWPOLYLINE
  5
DE
330
17
100
AcDbEntity
  8
Painéis
 62
7
370
25
100
AcDbPolyline
 90
4
 70
1
 10
8418.37600386672
 20
9216.156437139585
 10
8418.37600386672
 20
9220.156437139587
 10
8358.37600386675
 20
9220.156437139587
 10
8358.37600386675
 20
9216.156437139585
  0
LWPOLYLINE
  5
DF
330
17
100
AcDbEntity
  8
Madeira
 62
7
370
25
100
AcDbPolyline
 90
4
 70
1
 10
8362.37600386675
 20
9211.756437139586
 10
8362.37600386675
 20
9216.156437139585
 10
8376.37600386675
 20
9216.156437139585
 10
8376.37600386675
 20
9211.756437139586
  0
LWPOLYLINE
  5
E0
330
17
100
AcDbEntity
  8
Madeira
 62
7
370
25
100
AcDbPolyline
 90
4
 70
1
 10
8396.37600386675
 20
9136.156437139609
 10
8396.37600386675
 20
9140.556437139605
 10
8376.37600386675
 20
9140.556437139605
 10
8376.37600386675
 20
9136.156437139609
  0
LWPOLYLINE
  5
E1
330
17
100
AcDbEntity
  8
Madeira
 62
7
370
25
100
AcDbPolyline
 90
4
 70
1
 10
8362.37600386675
 20
9216.156437139585
 10
8376.37600386675
 20
9216.156437139585
 10
8376.37600386675
 20
9136.156437139609
 10
8362.37600386675
 20
9136.156437139609
  0
LWPOLYLINE
  5
E2
330
17
100
AcDbEntity
  8
Painéis
 62
7
370
25
100
AcDbPolyline
 90
4
 70
1
 10
8320.37600386675
 20
9216.156437139585
 10
8320.37600386675
 20
9220.156437139587
 10
8264.776003866773
 20
9220.15643713958
 10
8264.776003866773
 20
9216.15643713958
  0
LWPOLYLINE
  5
E3
330
17
100
AcDbEntity
  8
CONCRETO
 62
7
370
25
100
AcDbPolyline
 90
8
 70
1
 10
8264.776003866773
 20
9220.15643713958
 10
8264.776003866773
 20
9244.15643713961
 10
8418.37600386672
 20
9244.15643713961
 10
8418.37600386672
 20
9220.156437139594
 10
8358.37600386675
 20
9220.156437139594
 10
8358.376003866691
 20
9144.15643713961
 10
8320.37600386675
 20
9144.15643713961
 10
8320.37600386675
 20
9220.156437139587
  0
LWPOLYLINE
  5
E4
330
17
100
AcDbEntity
  8
barrote
 62
7
370
25
100
AcDbPolyline
 90
4
 70
1
 10
8248.920806194856
 20
9116.156437139653
 10
8444.10374670455
 20
9116.156437139653
 10
8444.10374670455
 20
9136.156437139609
 10
8248.920806194856
 20
9136.156437139609
  0
LWPOLYLINE
  5
E5
330
17
100
AcDbEntity
  8
SCO-___-LAJ
 62
7
370
25
100
AcDbPolyline
 90
4
 70
1
 10
8257.923073610316
 20
9134.823023806282
 10
8425.228934123177
 20
9134.823023806275
 10
8425.228934123177
 20
9131.6233438063
 10
8257.923073610316
 20
9131.623343806306
  0
LWPOLYLINE
  5
E6
330
17
100
AcDbEntity
  8
Painéis
 62
7
370
25
100
AcDbPolyline
 90
4
 70
1
 10
9023.063402613025
 20
9305.023313140206
 10
9206.058402613022
 20
9305.023313140206
 10
9206.058402613022
 20
9265.023313140206
 10
9023.063402613025
 20
9265.023313140206
  0
LWPOLYLINE
  5
E7
330
17
100
AcDbEntity
  8
Painéis
 62
7
370
25
100
AcDbPolyline
 90
4
 70
1
 10
9238.451243041027
 20
9305.023313140206
 10
9454.446243041026
 20
9305.023313140206
 10
9454.446243041026
 20
9265.023313140206
 10
9238.451243041027
 20
9265.023313140206
  0
TEXT
  5
E8
330
17
100
AcDbEntity
  8
Texto Seção
 62
7
370
25
100
AcDbText
 10
8667.827479418382
 20
8998.820334032363
 30
0.0
 40
13.0
  1
V506.A
100
AcDbText
  0
TEXT
  5
E9
330
17
100
AcDbEntity
  8
5
 62
7
370
25
100
AcDbText
 10
8635.73936804426
 20
8849.04434326072
 30
0.0
 40
12.0
  1
P26
100
AcDbText
  0
TEXT
  5
EA
330
17
100
AcDbEntity
  8
5
 62
7
370
25
100
AcDbText
 10
9049.180177827728
 20
8853.762639092703
 30
0.0
 40
12.0
  1
P27
100
AcDbText
  0
TEXT
  5
EB
330
17
100
AcDbEntity
  8
detalhes
 62
7
370
25
100
AcDbText
 10
8367.074106045038
 20
8866.04984095276
 30
0.0
 40
9.600000000000001
  1
b
100
AcDbText
  0
TEXT
  5
EC
330
17
100
AcDbEntity
  8
detalhes
 62
7
370
25
100
AcDbText
 10
8304.530447399304
 20
8866.060898398337
 30
0.0
 40
9.600000000000001
  1
a
100
AcDbText
  0
TEXT
  5
ED
330
17
100
AcDbEntity
  8
detalhes
 62
7
370
25
100
AcDbText
 10
8330.959888484445
 20
8824.625241519476
 30
0.0
 40
9.600000000000001
  1
c
100
AcDbText
  0
TEXT
  5
EE
330
17
100
AcDbEntity
  8
5
 62
7
370
25
100
AcDbText
 10
9168.606547662042
 20
8656.343756589597
 30
0.0
 40
12.0
  1
P26
100
AcDbText
  0
TEXT
  5
EF
330
17
100
AcDbEntity
  8
5
 62
7
370
25
100
AcDbText
 10
8630.439394771767
 20
8654.29620172505
 30
0.0
 40
12.0
  1
P27
100
AcDbText
  0
TEXT
  5
F0
330
17
100
AcDbEntity
  8
Texto Seção
 62
7
370
25
100
AcDbText
 10
8627.421640981634
 20
8798.51464920005
 30
0.0
 40
13.0
  1
V506.B
100
AcDbText
  0
TEXT
  5
F1
330
17
100
AcDbEntity
  8
5
 62
7
370
25
100
AcDbText
 10
8893.620773223854
 20
9184.65658996722
 30
0.0
 40
12.0
  1
PD3
100
AcDbText
  0
TEXT
  5
F2
330
17
100
AcDbEntity
  8
detalhes
 62
7
370
25
100
AcDbText
 10
8367.090487042788
 20
9154.346108668891
 30
0.0
 40
9.600000000000001
  1
b
100
AcDbText
  0
TEXT
  5
F3
330
17
100
AcDbEntity
  8
detalhes
 62
7
370
25
100
AcDbText
 10
8304.546828397051
 20
9154.357166114467
 30
0.0
 40
9.600000000000001
  1
a
100
AcDbText
  0
TEXT
  5
F4
330
17
100
AcDbEntity
  8
detalhes
 62
7
370
25
100
AcDbText
 10
8330.976269482197
 20
9146.392190659448
 30
0.0
 40
9.600000000000001
  1
c
100
AcDbText
  0
TEXT
  5
F5
330
17
100
AcDbEntity
  8
Texto Seção
 62
7
370
25
100
AcDbText
 10
8488.227438471184
 20
9325.38385390411
 30
0.0
 40
13.0
  1
V505.A
100
AcDbText
  0
TEXT
  5
F6
330
17
100
AcDbEntity
  8
5
 62
7
370
25
100
AcDbText
 10
8480.920565410997
 20
9184.65658996722
 30
0.0
 40
12.0
  1
V518
100
AcDbText
  0
TEXT
  5
F7
330
17
100
AcDbEntity
  8
5
 62
7
370
25
100
AcDbText
 10
9198.689569276632
 20
9182.978448938826
 30
0.0
 40
12.0
  1
V520
100
AcDbText
  0
TEXT
  5
F8
330
17
100
AcDbEntity
  8
Texto Seção
 62
7
370
25
100
AcDbText
 10
9028.29623452396
 20
9323.705712875715
 30
0.0
 40
13.0
  1
V505.B
100
AcDbText
  0
TEXT
  5
F9
330
17
100
AcDbEntity
  8
5
 62
7
370
25
100
AcDbText
 10
9020.989361463773
 20
9182.978448938826
 30
0.0
 40
12.0
  1
PD3
100
AcDbText
  0
TEXT
  5
FA
330
17
100
AcDbEntity
  8
5
 62
7
370
25
100
AcDbText
 10
9377.932622765846
 20
9182.978448938826
 30
0.0
 40
12.0
  1
V518
100
AcDbText
  0
HATCH
  5
FB
330
17
100
AcDbEntity
  8
COTA
 62
7
100
AcDbHatch
 10
0.0
 20
0.0
 30
0.0
210
0.0
220
0.0
230
1.0
  2
SOLID
 70
1
 71
0
 91
1
 92
3
 72
0
 73
1
 93
9
 10
8656.666613951995
 20
8991.468743471933
 10
8633.666613952008
 20
8991.468743471925
 10
8633.666613952008
 20
8991.468743471925
 10
8633.666613952008
 20
8937.468743471924
 10
8633.666613952008
 20
8937.468743471927
 10
8656.666613951998
 20
8937.468743471927
 10
8656.666613952
 20
8937.468743471924
 10
8656.666613951997
 20
8991.468743471933
 10
8656.666613951995
 20
8991.468743471933
 97
0
 75
1
 76
1
 98
0
  0
HATCH
  5
FC
330
17
100
AcDbEntity
  8
Hachura
 62
7
100
AcDbHatch
 10
0.0
 20
0.0
 30
0.0
210
0.0
220
0.0
230
1.0
  2
SOLID
 70
1
 71
0
 91
1
 92
3
 72
0
 73
1
 93
8
 10
8320.359622869
 20
8932.389487999637
 10
8316.359622869
 20
8932.389487999637
 10
8316.359622869
 20
8932.389487999637
 10
8316.359622869
 20
8814.389487999637
 10
8316.359622869
 20
8814.389487999637
 10
8320.359622869
 20
8814.389487999637
 10
8320.359622869
 20
8814.389487999637
 10
8320.359622869
 20
8932.389487999637
 97
0
 75
1
 76
1
 98
0
  0
HATCH
  5
FD
330
17
100
AcDbEntity
  8
Hachura
 62
7
100
AcDbHatch
 10
0.0
 20
0.0
 30
0.0
210
0.0
220
0.0
230
1.0
  2
SOLID
 70
1
 71
0
 91
1
 92
3
 72
0
 73
1
 93
8
 10
8358.359622869
 20
8814.389487999637
 10
8358.359622869
 20
8818.78948799963
 10
8358.359622869
 20
8818.78948799963
 10
8344.359622868998
 20
8818.78948799963
 10
8344.359622868998
 20
8818.78948799963
 10
8344.359622868998
 20
8814.389487999637
 10
8344.359622868998
 20
8814.389487999637
 10
8358.359622869
 20
8814.389487999637
 97
0
 75
1
 76
1
 98
0
  0
HATCH
  5
FE
330
17
100
AcDbEntity
  8
Hachura
 62
7
100
AcDbHatch
 10
0.0
 20
0.0
 30
0.0
210
0.0
220
0.0
230
1.0
  2
SOLID
 70
1
 71
0
 91
1
 92
3
 72
0
 73
1
 93
8
 10
8358.359622869
 20
8818.78948799963
 10
8358.359622869
 20
8822.389487999635
 10
8358.359622869
 20
8822.389487999635
 10
8320.359622869
 20
8822.389487999635
 10
8320.359622869
 20
8822.389487999635
 10
8320.359622869
 20
8818.78948799963
 10
8320.359622869
 20
8818.78948799963
 10
8358.359622869
 20
8818.78948799963
 97
0
 75
1
 76
1
 98
0
  0
HATCH
  5
FF
330
17
100
AcDbEntity
  8
Hachura
 62
7
100
AcDbHatch
 10
0.0
 20
0.0
 30
0.0
210
0.0
220
0.0
230
1.0
  2
SOLID
 70
1
 71
0
 91
1
 92
3
 72
0
 73
1
 93
8
 10
8320.359622869
 20
8814.389487999637
 10
8320.359622869
 20
8818.78948799963
 10
8320.359622869
 20
8818.78948799963
 10
8334.359622869
 20
8818.78948799963
 10
8334.359622869
 20
8818.78948799963
 10
8334.359622869
 20
8814.389487999637
 10
8334.359622869
 20
8814.389487999637
 10
8320.359622869
 20
8814.389487999637
 97
0
 75
1
 76
1
 98
0
  0
HATCH
  5
100
330
17
100
AcDbEntity
  8
Hachura
 62
7
100
AcDbHatch
 10
0.0
 20
0.0
 30
0.0
210
0.0
220
0.0
230
1.0
  2
SOLID
 70
1
 71
0
 91
1
 92
3
 72
0
 73
1
 93
8
 10
8362.359622869
 20
8932.389487999637
 10
8358.359622869
 20
8932.389487999637
 10
8358.359622869
 20
8932.389487999637
 10
8358.359622869
 20
8814.389487999637
 10
8358.359622869
 20
8814.389487999637
 10
8362.359622869
 20
8814.389487999637
 10
8362.359622869
 20
8814.389487999637
 10
8362.359622869
 20
8932.389487999637
 97
0
 75
1
 76
1
 98
0
  0
HATCH
  5
101
330
17
100
AcDbEntity
  8
COTA
 62
7
100
AcDbHatch
 10
0.0
 20
0.0
 30
0.0
210
0.0
220
0.0
230
1.0
  2
SOLID
 70
1
 71
0
 91
1
 92
3
 72
0
 73
1
 93
5
 10
8830.79480305688
 20
8795.282777958124
 10
8803.794803056879
 20
8795.282777958117
 10
8803.794803056879
 20
8741.282777958117
 10
8830.79480305688
 20
8741.282777958117
 10
8830.79480305688
 20
8795.282777958124
 97
0
 75
1
 76
1
 98
0
  0
HATCH
  5
102
330
17
100
AcDbEntity
  8
COTA
 62
7
100
AcDbHatch
 10
0.0
 20
0.0
 30
0.0
210
0.0
220
0.0
230
1.0
  2
SOLID
 70
1
 71
0
 91
1
 92
3
 72
0
 73
1
 93
6
 10
9029.79480305685
 20
8793.082777958123
 10
9029.794803056879
 20
8795.282777958117
 10
9002.794803056886
 20
8795.282777958124
 10
9002.794803056879
 20
8741.282777958117
 10
9029.794803056882
 20
8741.282777958117
 10
9029.79480305685
 20
8793.082777958123
 97
0
 75
1
 76
1
 98
0
  0
HATCH
  5
103
330
17
100
AcDbEntity
  8
Hachura
 62
7
100
AcDbHatch
 10
0.0
 20
0.0
 30
0.0
210
0.0
220
0.0
230
1.0
  2
SOLID
 70
1
 71
0
 91
1
 92
3
 72
0
 73
1
 93
8
 10
8311.959622869006
 20
8918.389487999639
 10
8316.359622869
 20
8918.389487999639
 10
8316.359622869
 20
8918.389487999639
 10
8316.359622869
 20
8932.389487999637
 10
8316.359622869
 20
8932.389487999637
 10
8311.959622869006
 20
8932.389487999637
 10
8311.959622869006
 20
8932.389487999637
 10
8311.959622869006
 20
8918.389487999639
 97
0
 75
1
 76
1
 98
0
  0
HATCH
  5
104
330
17
100
AcDbEntity
  8
Hachura
 62
7
100
AcDbHatch
 10
0.0
 20
0.0
 30
0.0
210
0.0
220
0.0
230
1.0
  2
SOLID
 70
1
 71
0
 91
1
 92
3
 72
0
 73
1
 93
8
 10
8311.959622868999
 20
8863.531310802075
 10
8316.359622868991
 20
8863.531310802075
 10
8316.359622868991
 20
8863.531310802075
 10
8316.359622868991
 20
8877.531310802075
 10
8316.359622868991
 20
8877.531310802075
 10
8311.959622868999
 20
8877.531310802075
 10
8311.959622868999
 20
8877.531310802075
 10
8311.959622868999
 20
8863.531310802075
 97
0
 75
1
 76
1
 98
0
  0
HATCH
  5
105
330
17
100
AcDbEntity
  8
Hachura
 62
7
100
AcDbHatch
 10
0.0
 20
0.0
 30
0.0
210
0.0
220
0.0
230
1.0
  2
SOLID
 70
1
 71
0
 91
1
 92
3
 72
0
 73
1
 93
8
 10
8311.959622868995
 20
8814.389487999637
 10
8316.35962286899
 20
8814.389487999637
 10
8316.35962286899
 20
8814.389487999637
 10
8316.35962286899
 20
8828.389487999635
 10
8316.35962286899
 20
8828.389487999635
 10
8311.959622868995
 20
8828.389487999635
 10
8311.959622868995
 20
8828.389487999635
 10
8311.959622868995
 20
8814.389487999637
 97
0
 75
1
 76
1
 98
0
  0
HATCH
  5
106
330
17
100
AcDbEntity
  8
Hachura
 62
7
100
AcDbHatch
 10
0.0
 20
0.0
 30
0.0
210
0.0
220
0.0
230
1.0
  2
SOLID
 70
1
 71
0
 91
1
 92
3
 72
0
 73
1
 93
8
 10
8366.759622868994
 20
8918.389487999639
 10
8362.359622869
 20
8918.389487999639
 10
8362.359622869
 20
8918.389487999639
 10
8362.359622869
 20
8932.389487999637
 10
8362.359622869
 20
8932.389487999637
 10
8366.759622868994
 20
8932.389487999637
 10
8366.759622868994
 20
8932.389487999637
 10
8366.759622868994
 20
8918.389487999639
 97
0
 75
1
 76
1
 98
0
  0
HATCH
  5
107
330
17
100
AcDbEntity
  8
Hachura
 62
7
100
AcDbHatch
 10
0.0
 20
0.0
 30
0.0
210
0.0
220
0.0
230
1.0
  2
SOLID
 70
1
 71
0
 91
1
 92
3
 72
0
 73
1
 93
8
 10
8366.759622869002
 20
8863.531310802075
 10
8362.359622869008
 20
8863.531310802075
 10
8362.359622869008
 20
8863.531310802075
 10
8362.359622869008
 20
8877.531310802075
 10
8362.359622869008
 20
8877.531310802075
 10
8366.759622869002
 20
8877.531310802075
 10
8366.759622869002
 20
8877.531310802075
 10
8366.759622869002
 20
8863.531310802075
 97
0
 75
1
 76
1
 98
0
  0
HATCH
  5
108
330
17
100
AcDbEntity
  8
Hachura
 62
7
100
AcDbHatch
 10
0.0
 20
0.0
 30
0.0
210
0.0
220
0.0
230
1.0
  2
SOLID
 70
1
 71
0
 91
1
 92
3
 72
0
 73
1
 93
8
 10
8366.759622869005
 20
8814.389487999637
 10
8362.359622869011
 20
8814.389487999637
 10
8362.359622869011
 20
8814.389487999637
 10
8362.359622869011
 20
8828.389487999635
 10
8362.359622869011
 20
8828.389487999635
 10
8366.759622869005
 20
8828.389487999635
 10
8366.759622869005
 20
8828.389487999635
 10
8366.759622869005
 20
8814.389487999637
 97
0
 75
1
 76
1
 98
0
  0
HATCH
  5
109
330
17
100
AcDbEntity
  8
REAPROVEITAMENTO
 62
7
100
AcDbHatch
 10
0.0
 20
0.0
 30
0.0
210
0.0
220
0.0
230
1.0
  2
SOLID
 70
1
 71
0
 91
1
 92
3
 72
0
 73
1
 93
8
 10
9061.666613952015
 20
8932.468743471924
 10
9061.666613952015
 20
8991.468743471925
 10
9061.666613952015
 20
8991.46874347192
 10
8877.666613952018
 20
8991.468743471925
 10
8877.666613952018
 20
8991.468743471925
 10
8877.66661395202
 20
8932.468743471925
 10
8877.66661395202
 20
8932.468743471927
 10
9061.666613952015
 20
8932.468743471924
 97
0
 75
1
 76
1
 98
0
  0
HATCH
  5
10A
330
17
100
AcDbEntity
  8
REAPROVEITAMENTO
 62
7
100
AcDbHatch
 10
0.0
 20
0.0
 30
0.0
210
0.0
220
0.0
230
1.0
  2
SOLID
 70
1
 71
0
 91
1
 92
3
 72
0
 73
1
 93
12
 10
8803.794803056879
 20
8741.282777958117
 10
8803.794803056879
 20
8795.282777958111
 10
8803.794803056879
 20
8795.282777958111
 10
8631.794803056873
 20
8795.28277795811
 10
8631.794803056871
 20
8795.28277795811
 10
8631.794803056873
 20
8736.282777958111
 10
8631.794803056875
 20
8736.28277795811
 10
8830.79480305688
 20
8736.282777958115
 10
8830.79480305688
 20
8736.282777958115
 10
8830.79480305688
 20
8741.282777958115
 10
8830.79480305688
 20
8741.282777958117
 10
8803.794803056879
 20
8741.282777958117
 97
0
 75
1
 76
1
 98
0
  0
HATCH
  5
10B
330
17
100
AcDbEntity
  8
REAPROVEITAMENTO
 62
7
100
AcDbHatch
 10
0.0
 20
0.0
 30
0.0
210
0.0
220
0.0
230
1.0
  2
SOLID
 70
1
 71
0
 91
1
 92
3
 72
0
 73
1
 93
8
 10
9002.794803056882
 20
8736.282777958106
 10
9002.794803056882
 20
8795.282777958106
 10
9002.794803056882
 20
8795.282777958106
 10
8830.794803056873
 20
8795.282777958115
 10
8830.794803056871
 20
8795.282777958117
 10
8830.794803056873
 20
8736.282777958118
 10
8830.794803056875
 20
8736.282777958117
 10
9002.794803056882
 20
8736.282777958106
 97
0
 75
1
 76
1
 98
0
  0
HATCH
  5
10C
330
17
100
AcDbEntity
  8
REAPROVEITAMENTO
 62
7
100
AcDbHatch
 10
0.0
 20
0.0
 30
0.0
210
0.0
220
0.0
230
1.0
  2
SOLID
 70
1
 71
0
 91
1
 92
3
 72
0
 73
1
 93
13
 10
9029.794803056879
 20
8741.282777958117
 10
9002.79480305688
 20
8741.282777958117
 10
9002.794803056882
 20
8741.282777958117
 10
9002.794803056882
 20
8736.282777958111
 10
9002.794803056882
 20
8736.28277795811
 10
9201.794803056879
 20
8736.282777958097
 10
9201.794803056879
 20
8736.282777958098
 10
9201.794803056879
 20
8795.282777958098
 10
9201.794803056879
 20
8795.282777958095
 10
9029.79480305688
 20
8795.282777958106
 10
9029.794803056879
 20
8795.282777958106
 10
9029.794803056879
 20
8741.282777958115
 10
9029.794803056879
 20
8741.282777958117
 97
0
 75
1
 76
1
 98
0
  0
HATCH
  5
10D
330
17
100
AcDbEntity
  8
REAPROVEITAMENTO
 62
7
100
AcDbHatch
 10
0.0
 20
0.0
 30
0.0
210
0.0
220
0.0
230
1.0
  2
SOLID
 70
1
 71
0
 91
1
 92
3
 72
0
 73
1
 93
12
 10
8656.666613952
 20
8937.468743471924
 10
8633.666613952015
 20
8937.468743471924
 10
8633.666613952011
 20
8937.468743471924
 10
8633.666613952011
 20
8932.468743471885
 10
8633.666613952011
 20
8932.468743471885
 10
8877.666613952015
 20
8932.468743471945
 10
8877.666613952015
 20
8932.468743471945
 10
8877.666613952017
 20
8991.468743471962
 10
8877.666613952018
 20
8991.468743471964
 10
8656.666613951998
 20
8991.46874347191
 10
8656.666613952
 20
8991.468743471909
 10
8656.666613952
 20
8937.468743471924
 97
0
 75
1
 76
1
 98
0
  0
HATCH
  5
10E
330
17
100
AcDbEntity
  8
COTA
 62
7
100
AcDbHatch
 10
0.0
 20
0.0
 30
0.0
210
0.0
220
0.0
230
1.0
  2
SOLID
 70
1
 71
0
 91
1
 92
3
 72
0
 73
1
 93
8
 10
8900.989606560244
 20
9320.7014541686
 10
8482.994606560245
 20
9320.7014541686
 10
8482.994606560245
 20
9320.7014541686
 10
8482.994606560245
 20
9306.7014541686
 10
8482.994606560245
 20
9306.7014541686
 10
8900.989606560244
 20
9306.7014541686
 10
8900.989606560244
 20
9306.7014541686
 10
8900.989606560244
 20
9320.7014541686
 97
0
 75
1
 76
1
 98
0
  0
HATCH
  5
10F
330
17
100
AcDbEntity
  8
Hachura
 62
7
100
AcDbHatch
 10
0.0
 20
0.0
 30
0.0
210
0.0
220
0.0
230
1.0
  2
SOLID
 70
1
 71
0
 91
1
 92
3
 72
0
 73
1
 93
8
 10
8316.376003866748
 20
9220.156437139587
 10
8320.376003866748
 20
9220.156437139587
 10
8320.376003866748
 20
9220.156437139587
 10
8320.37600386675
 20
9136.156437139609
 10
8320.37600386675
 20
9136.156437139609
 10
8316.37600386675
 20
9136.156437139609
 10
8316.37600386675
 20
9136.156437139609
 10
8316.376003866748
 20
9220.156437139587
 97
0
 75
1
 76
1
 98
0
  0
HATCH
  5
110
330
17
100
AcDbEntity
  8
Hachura
 62
7
100
AcDbHatch
 10
0.0
 20
0.0
 30
0.0
210
0.0
220
0.0
230
1.0
  2
SOLID
 70
1
 71
0
 91
1
 92
3
 72
0
 73
1
 93
8
 10
8316.37600386675
 20
9211.756437139586
 10
8316.37600386675
 20
9216.156437139585
 10
8316.37600386675
 20
9216.156437139585
 10
8302.376003866751
 20
9216.156437139585
 10
8302.376003866751
 20
9216.156437139585
 10
8302.376003866751
 20
9211.756437139586
 10
8302.376003866751
 20
9211.756437139586
 10
8316.37600386675
 20
9211.756437139586
 97
0
 75
1
 76
1
 98
0
  0
HATCH
  5
111
330
17
100
AcDbEntity
  8
Hachura
 62
7
100
AcDbHatch
 10
0.0
 20
0.0
 30
0.0
210
0.0
220
0.0
230
1.0
  2
SOLID
 70
1
 71
0
 91
1
 92
3
 72
0
 73
1
 93
8
 10
8282.37600386675
 20
9136.156437139609
 10
8282.37600386675
 20
9140.556437139605
 10
8282.37600386675
 20
9140.556437139605
 10
8302.376003866751
 20
9140.556437139605
 10
8302.376003866751
 20
9140.556437139605
 10
8302.376003866751
 20
9136.156437139609
 10
8302.376003866751
 20
9136.156437139609
 10
8282.37600386675
 20
9136.156437139609
 97
0
 75
1
 76
1
 98
0
  0
HATCH
  5
112
330
17
100
AcDbEntity
  8
Hachura
 62
7
100
AcDbHatch
 10
0.0
 20
0.0
 30
0.0
210
0.0
220
0.0
230
1.0
  2
SOLID
 70
1
 71
0
 91
1
 92
3
 72
0
 73
1
 93
8
 10
8358.37600386675
 20
9136.156437139609
 10
8358.37600386675
 20
9140.556437139605
 10
8358.37600386675
 20
9140.556437139605
 10
8344.37600386675
 20
9140.556437139605
 10
8344.37600386675
 20
9140.556437139605
 10
8344.37600386675
 20
9136.156437139609
 10
8344.37600386675
 20
9136.156437139609
 10
8358.37600386675
 20
9136.156437139609
 97
0
 75
1
 76
1
 98
0
  0
HATCH
  5
113
330
17
100
AcDbEntity
  8
Hachura
 62
7
100
AcDbHatch
 10
0.0
 20
0.0
 30
0.0
210
0.0
220
0.0
230
1.0
  2
SOLID
 70
1
 71
0
 91
1
 92
3
 72
0
 73
1
 93
8
 10
8358.37600386675
 20
9140.556437139605
 10
8358.37600386675
 20
9144.15643713961
 10
8358.37600386675
 20
9144.15643713961
 10
8320.37600386675
 20
9144.15643713961
 10
8320.37600386675
 20
9144.15643713961
 10
8320.37600386675
 20
9140.556437139605
 10
8320.37600386675
 20
9140.556437139605
 10
8358.37600386675
 20
9140.556437139605
 97
0
 75
1
 76
1
 98
0
  0
HATCH
  5
114
330
17
100
AcDbEntity
  8
Hachura
 62
7
100
AcDbHatch
 10
0.0
 20
0.0
 30
0.0
210
0.0
220
0.0
230
1.0
  2
SOLID
 70
1
 71
0
 91
1
 92
3
 72
0
 73
1
 93
8
 10
8320.37600386675
 20
9136.156437139609
 10
8320.37600386675
 20
9140.556437139605
 10
8320.37600386675
 20
9140.556437139605
 10
8334.37600386675
 20
9140.556437139605
 10
8334.37600386675
 20
9140.556437139605
 10
8334.37600386675
 20
9136.156437139609
 10
8334.37600386675
 20
9136.156437139609
 10
8320.37600386675
 20
9136.156437139609
 97
0
 75
1
 76
1
 98
0
  0
HATCH
  5
115
330
17
100
AcDbEntity
  8
Hachura
 62
7
100
AcDbHatch
 10
0.0
 20
0.0
 30
0.0
210
0.0
220
0.0
230
1.0
  2
SOLID
 70
1
 71
0
 91
1
 92
3
 72
0
 73
1
 93
8
 10
8362.37600386675
 20
9220.156437139594
 10
8358.37600386675
 20
9220.156437139594
 10
8358.37600386675
 20
9220.156437139594
 10
8358.37600386675
 20
9136.156437139609
 10
8358.37600386675
 20
9136.156437139609
 10
8362.37600386675
 20
9136.156437139609
 10
8362.37600386675
 20
9136.156437139609
 10
8362.37600386675
 20
9220.156437139594
 97
0
 75
1
 76
1
 98
0
  0
HATCH
  5
116
330
17
100
AcDbEntity
  8
Hachura
 62
7
100
AcDbHatch
 10
0.0
 20
0.0
 30
0.0
210
0.0
220
0.0
230
1.0
  2
SOLID
 70
1
 71
0
 91
1
 92
3
 72
0
 73
1
 93
8
 10
8418.37600386672
 20
9216.156437139585
 10
8418.37600386672
 20
9220.156437139587
 10
8418.37600386672
 20
9220.156437139587
 10
8358.37600386675
 20
9220.156437139587
 10
8358.37600386675
 20
9220.156437139587
 10
8358.37600386675
 20
9216.156437139585
 10
8358.37600386675
 20
9216.156437139585
 10
8418.37600386672
 20
9216.156437139585
 97
0
 75
1
 76
1
 98
0
  0
HATCH
  5
117
330
17
100
AcDbEntity
  8
Hachura
 62
7
100
AcDbHatch
 10
0.0
 20
0.0
 30
0.0
210
0.0
220
0.0
230
1.0
  2
SOLID
 70
1
 71
0
 91
1
 92
3
 72
0
 73
1
 93
8
 10
8362.37600386675
 20
9211.756437139586
 10
8362.37600386675
 20
9216.156437139585
 10
8362.37600386675
 20
9216.156437139585
 10
8376.37600386675
 20
9216.156437139585
 10
8376.37600386675
 20
9216.156437139585
 10
8376.37600386675
 20
9211.756437139586
 10
8376.37600386675
 20
9211.756437139586
 10
8362.37600386675
 20
9211.756437139586
 97
0
 75
1
 76
1
 98
0
  0
HATCH
  5
118
330
17
100
AcDbEntity
  8
Hachura
 62
7
100
AcDbHatch
 10
0.0
 20
0.0
 30
0.0
210
0.0
220
0.0
230
1.0
  2
SOLID
 70
1
 71
0
 91
1
 92
3
 72
0
 73
1
 93
8
 10
8396.37600386675
 20
9136.156437139609
 10
8396.37600386675
 20
9140.556437139605
 10
8396.37600386675
 20
9140.556437139605
 10
8376.37600386675
 20
9140.556437139605
 10
8376.37600386675
 20
9140.556437139605
 10
8376.37600386675
 20
9136.156437139609
 10
8376.37600386675
 20
9136.156437139609
 10
8396.37600386675
 20
9136.156437139609
 97
0
 75
1
 76
1
 98
0
  0
HATCH
  5
119
330
17
100
AcDbEntity
  8
Hachura
 62
7
100
AcDbHatch
 10
0.0
 20
0.0
 30
0.0
210
0.0
220
0.0
230
1.0
  2
SOLID
 70
1
 71
0
 91
1
 92
3
 72
0
 73
1
 93
8
 10
8320.37600386675
 20
9216.156437139585
 10
8320.37600386675
 20
9220.156437139587
 10
8320.37600386675
 20
9220.156437139587
 10
8264.776003866773
 20
9220.15643713958
 10
8264.776003866773
 20
9220.15643713958
 10
8264.776003866773
 20
9216.15643713958
 10
8264.776003866773
 20
9216.15643713958
 10
8320.37600386675
 20
9216.156437139585
 97
0
 75
1
 76
1
 98
0
  0
HATCH
  5
11A
330
17
100
AcDbEntity
  8
COTA
 62
7
100
AcDbHatch
 10
0.0
 20
0.0
 30
0.0
210
0.0
220
0.0
230
1.0
  2
SOLID
 70
1
 71
0
 91
1
 92
3
 72
0
 73
1
 93
8
 10
9206.058402613022
 20
9305.023313140206
 10
9206.058402613022
 20
9319.023313140204
 10
9206.058402613022
 20
9319.023313140204
 10
9023.063402613025
 20
9319.023313140204
 10
9023.063402613025
 20
9319.023313140204
 10
9023.063402613025
 20
9305.023313140206
 10
9023.063402613025
 20
9305.023313140206
 10
9206.058402613022
 20
9305.023313140206
 97
0
 75
1
 76
1
 98
0
  0
HATCH
  5
11B
330
17
100
AcDbEntity
  8
COTA
 62
7
100
AcDbHatch
 10
0.0
 20
0.0
 30
0.0
210
0.0
220
0.0
230
1.0
  2
SOLID
 70
1
 71
0
 91
1
 92
3
 72
0
 73
1
 93
8
 10
9454.446243041026
 20
9319.023313140204
 10
9238.451243041027
 20
9319.023313140204
 10
9238.451243041027
 20
9319.023313140204
 10
9238.451243041027
 20
9305.023313140206
 10
9238.451243041027
 20
9305.023313140206
 10
9454.446243041026
 20
9305.023313140206
 10
9454.446243041026
 20
9305.023313140206
 10
9454.446243041026
 20
9319.023313140204
 97
0
 75
1
 76
1
 98
0
  0
ENDSEC
  0
SECTION
  2
OBJECTS
  0
DICTIONARY
  5
A
330
0
100
AcDbDictionary
281
1
  3
ACAD_COLOR
350
B
  3
ACAD_GROUP
350
C
  3
ACAD_LAYOUT
350
D
  3
ACAD_MATERIAL
350
E
  3
ACAD_MLEADERSTYLE
350
F
  3
ACAD_MLINESTYLE
350
10
  3
ACAD_PLOTSETTINGS
350
11
  3
ACAD_PLOTSTYLENAME
350
12
  3
ACAD_SCALELIST
350
14
  3
ACAD_TABLESTYLE
350
15
  3
ACAD_VISUALSTYLE
350
16
  3
EZDXF_META
350
2D
  0
DICTIONARY
  5
B
330
A
100
AcDbDictionary
281
1
  0
DICTIONARY
  5
C
330
A
100
AcDbDictionary
281
1
  0
DICTIONARY
  5
D
330
A
100
AcDbDictionary
281
1
  3
Model
350
1A
  3
Layout1
350
1E
  0
DICTIONARY
  5
E
330
A
100
AcDbDictionary
281
1
  3
ByBlock
350
1F
  3
ByLayer
350
20
  3
Global
350
21
  0
DICTIONARY
  5
F
330
A
100
AcDbDictionary
281
1
  3
Standard
350
2C
  0
DICTIONARY
  5
10
330
A
100
AcDbDictionary
281
1
  3
Standard
350
22
  0
DICTIONARY
  5
11
330
A
100
AcDbDictionary
281
1
  0
ACDBDICTIONARYWDFLT
  5
12
330
A
100
AcDbDictionary
281
1
  3
Normal
350
13
100
AcDbDictionaryWithDefault
340
13
  0
ACDBPLACEHOLDER
  5
13
330
12
  0
DICTIONARY
  5
14
330
A
100
AcDbDictionary
281
1
  0
DICTIONARY
  5
15
330
A
100
AcDbDictionary
281
1
  0
DICTIONARY
  5
16
330
A
100
AcDbDictionary
281
1
  0
LAYOUT
  5
1A
330
D
100
AcDbPlotSettings
  1

  4
A3
  6

 40
7.5
 41
20.0
 42
7.5
 43
20.0
 44
420.0
 45
297.0
 46
0.0
 47
0.0
 48
0.0
 49
0.0
140
0.0
141
0.0
142
1.0
143
1.0
 70
1024
 72
1
 73
0
 74
5
  7

 75
16
 76
0
 77
2
 78
300
147
1.0
148
0.0
149
0.0
100
AcDbLayout
  1
Model
 70
1
 71
0
 10
0.0
 20
0.0
 11
420.0
 21
297.0
 12
0.0
 22
0.0
 32
0.0
 14
1e+20
 24
1e+20
 34
1e+20
 15
-1e+20
 25
-1e+20
 35
-1e+20
146
0.0
 13
0.0
 23
0.0
 33
0.0
 16
1.0
 26
0.0
 36
0.0
 17
0.0
 27
1.0
 37
0.0
 76
1
330
17
  0
LAYOUT
  5
1E
330
D
100
AcDbPlotSettings
  1

  4
A3
  6

 40
7.5
 41
20.0
 42
7.5
 43
20.0
 44
420.0
 45
297.0
 46
0.0
 47
0.0
 48
0.0
 49
0.0
140
0.0
141
0.0
142
1.0
143
1.0
 70
0
 72
1
 73
0
 74
5
  7

 75
16
 76
0
 77
2
 78
300
147
1.0
148
0.0
149
0.0
100
AcDbLayout
  1
Layout1
 70
1
 71
1
 10
0.0
 20
0.0
 11
420.0
 21
297.0
 12
0.0
 22
0.0
 32
0.0
 14
1e+20
 24
1e+20
 34
1e+20
 15
-1e+20
 25
-1e+20
 35
-1e+20
146
0.0
 13
0.0
 23
0.0
 33
0.0
 16
1.0
 26
0.0
 36
0.0
 17
0.0
 27
1.0
 37
0.0
 76
1
330
1B
  0
MATERIAL
  5
1F
102
{ACAD_REACTORS
330
E
102
}
330
E
100
AcDbMaterial
  1
ByBlock
  2

 70
0
 40
1.0
 71
1
 41
1.0
 91
-1023410177
 42
1.0
 72
1
  3

 73
1
 74
1
 75
1
 44
0.5
 73
0
 45
1.0
 46
1.0
 77
1
  4

 78
1
 79
1
170
1
 48
1.0
171
1
  6

172
1
173
1
174
1
140
1.0
141
1.0
175
1
  7

176
1
177
1
178
1
143
1.0
179
1
  8

270
1
271
1
272
1
145
1.0
146
1.0
273
1
  9

274
1
275
1
276
1
 42
1.0
 72
1
  3

 73
1
 74
1
 75
1
 94
63
  0
MATERIAL
  5
20
102
{ACAD_REACTORS
330
E
102
}
330
E
100
AcDbMaterial
  1
ByLayer
  2

 70
0
 40
1.0
 71
1
 41
1.0
 91
-1023410177
 42
1.0
 72
1
  3

 73
1
 74
1
 75
1
 44
0.5
 73
0
 45
1.0
 46
1.0
 77
1
  4

 78
1
 79
1
170
1
 48
1.0
171
1
  6

172
1
173
1
174
1
140
1.0
141
1.0
175
1
  7

176
1
177
1
178
1
143
1.0
179
1
  8

270
1
271
1
272
1
145
1.0
146
1.0
273
1
  9

274
1
275
1
276
1
 42
1.0
 72
1
  3

 73
1
 74
1
 75
1
 94
63
  0
MATERIAL
  5
21
102
{ACAD_REACTORS
330
E
102
}
330
E
100
AcDbMaterial
  1
Global
  2

 70
0
 40
1.0
 71
1
 41
1.0
 91
-1023410177
 42
1.0
 72
1
  3

 73
1
 74
1
 75
1
 44
0.5
 73
0
 45
1.0
 46
1.0
 77
1
  4

 78
1
 79
1
170
1
 48
1.0
171
1
  6

172
1
173
1
174
1
140
1.0
141
1.0
175
1
  7

176
1
177
1
178
1
143
1.0
179
1
  8

270
1
271
1
272
1
145
1.0
146
1.0
273
1
  9

274
1
275
1
276
1
 42
1.0
 72
1
  3

 73
1
 74
1
 75
1
 94
63
  0
MLINESTYLE
  5
22
102
{ACAD_REACTORS
330
10
102
}
330
10
100
AcDbMlineStyle
  2
Standard
 70
0
  3

 62
256
 51
90.0
 52
90.0
 71
2
 49
0.5
 62
256
  6
BYLAYER
 49
-0.5
 62
256
  6
BYLAYER
  0
MLEADERSTYLE
  5
2C
102
{ACAD_REACTORS
330
F
102
}
330
F
100
AcDbMLeaderStyle
179
2
170
2
171
1
172
0
 90
2
 40
0.0
 41
0.0
173
1
 91
-1056964608
 92
-2
290
1
 42
2.0
291
1
 43
8.0
  3
Standard
 44
4.0
300

342
29
174
1
175
1
176
0
178
1
 93
-1056964608
 45
4.0
292
0
297
0
 46
4.0
 94
-1056964608
 47
1.0
 49
1.0
140
1.0
294
1
141
0.0
177
0
142
1.0
295
0
296
0
143
3.75
271
0
272
9
273
9
  0
DICTIONARY
  5
2D
330
A
100
AcDbDictionary
280
1
281
1
  3
CREATED_BY_EZDXF
350
2E
  3
WRITTEN_BY_EZDXF
350
11E
  0
DICTIONARYVAR
  5
2E
330
2D
100
DictionaryVariables
280
0
  1
1.4.3 @ 2026-06-10T16:54:42.106493+00:00
  0
DICTIONARYVAR
  5
11E
330
2D
100
DictionaryVariables
280
0
  1
1.4.3 @ 2026-06-10T16:54:42.115412+00:00
  0
ENDSEC
  0
EOF
