  0
SECTION
  2
HEADER
  9
$ACADVER
  1
AC1024
  9
$ACADMAINTVER
 70
6
  9
$DWGCODEPAGE
  3
ANSI_1252
  9
$LASTSAVEDBY
  1
ezdxf
  9
$INSBASE
 10
0.0
 20
0.0
 30
0.0
  9
$EXTMIN
 10
1e+20
 20
1e+20
 30
1e+20
  9
$EXTMAX
 10
-1e+20
 20
-1e+20
 30
-1e+20
  9
$LIMMIN
 10
0.0
 20
0.0
  9
$LIMMAX
 10
420.0
 20
297.0
  9
$ORTHOMODE
 70
0
  9
$REGENMODE
 70
1
  9
$FILLMODE
 70
1
  9
$QTEXTMODE
 70
0
  9
$MIRRTEXT
 70
1
  9
$LTSCALE
 40
1.0
  9
$ATTMODE
 70
1
  9
$TEXTSIZE
 40
2.5
  9
$TRACEWID
 40
1.0
  9
$TEXTSTYLE
  7
Standard
  9
$CLAYER
  8
0
  9
$CELTYPE
  6
ByLayer
  9
$CECOLOR
 62
256
  9
$CELTSCALE
 40
1.0
  9
$DISPSILH
 70
0
  9
$DIMSCALE
 40
1.0
  9
$DIMASZ
 40
2.5
  9
$DIMEXO
 40
0.625
  9
$DIMDLI
 40
3.75
  9
$DIMRND
 40
0.0
  9
$DIMDLE
 40
0.0
  9
$DIMEXE
 40
1.25
  9
$DIMTP
 40
0.0
  9
$DIMTM
 40
0.0
  9
$DIMTXT
 40
2.5
  9
$DIMCEN
 40
2.5
  9
$DIMTSZ
 40
0.0
  9
$DIMTOL
 70
0
  9
$DIMLIM
 70
0
  9
$DIMTIH
 70
0
  9
$DIMTOH
 70
0
  9
$DIMSE1
 70
0
  9
$DIMSE2
 70
0
  9
$DIMTAD
 70
1
  9
$DIMZIN
 70
8
  9
$DIMBLK
  1

  9
$DIMASO
 70
1
  9
$DIMSHO
 70
1
  9
$DIMPOST
  1

  9
$DIMAPOST
  1

  9
$DIMALT
 70
0
  9
$DIMALTD
 70
3
  9
$DIMALTF
 40
0.03937007874
  9
$DIMLFAC
 40
1.0
  9
$DIMTOFL
 70
1
  9
$DIMTVP
 40
0.0
  9
$DIMTIX
 70
0
  9
$DIMSOXD
 70
0
  9
$DIMSAH
 70
0
  9
$DIMBLK1
  1

  9
$DIMBLK2
  1

  9
$DIMSTYLE
  2
ISO-25
  9
$DIMCLRD
 70
0
  9
$DIMCLRE
 70
0
  9
$DIMCLRT
 70
0
  9
$DIMTFAC
 40
1.0
  9
$DIMGAP
 40
0.625
  9
$DIMJUST
 70
0
  9
$DIMSD1
 70
0
  9
$DIMSD2
 70
0
  9
$DIMTOLJ
 70
0
  9
$DIMTZIN
 70
8
  9
$DIMALTZ
 70
0
  9
$DIMALTTZ
 70
0
  9
$DIMUPT
 70
0
  9
$DIMDEC
 70
2
  9
$DIMTDEC
 70
2
  9
$DIMALTU
 70
2
  9
$DIMALTTD
 70
3
  9
$DIMTXSTY
  7
Standard
  9
$DIMAUNIT
 70
0
  9
$DIMADEC
 70
0
  9
$DIMALTRND
 40
0.0
  9
$DIMAZIN
 70
0
  9
$DIMDSEP
 70
44
  9
$DIMATFIT
 70
3
  9
$DIMFRAC
 70
0
  9
$DIMLDRBLK
  1

  9
$DIMLUNIT
 70
2
  9
$DIMLWD
 70
-2
  9
$DIMLWE
 70
-2
  9
$DIMTMOVE
 70
0
  9
$DIMFXL
 40
1.0
  9
$DIMFXLON
 70
0
  9
$DIMJOGANG
 40
0.785398163397
  9
$DIMTFILL
 70
0
  9
$DIMTFILLCLR
 70
0
  9
$DIMARCSYM
 70
0
  9
$DIMLTYPE
  6

  9
$DIMLTEX1
  6

  9
$DIMLTEX2
  6

  9
$DIMTXTDIRECTION
 70
0
  9
$LUNITS
 70
2
  9
$LUPREC
 70
4
  9
$SKETCHINC
 40
1.0
  9
$FILLETRAD
 40
10.0
  9
$AUNITS
 70
0
  9
$AUPREC
 70
2
  9
$MENU
  1
.
  9
$ELEVATION
 40
0.0
  9
$PELEVATION
 40
0.0
  9
$THICKNESS
 40
0.0
  9
$LIMCHECK
 70
0
  9
$CHAMFERA
 40
0.0
  9
$CHAMFERB
 40
0.0
  9
$CHAMFERC
 40
0.0
  9
$CHAMFERD
 40
0.0
  9
$SKPOLY
 70
0
  9
$TDCREATE
 40
2461202.615821759
  9
$TDUCREATE
 40
2458532.153996898
  9
$TDUPDATE
 40
2461202.615821759
  9
$TDUUPDATE
 40
2458532.1544311
  9
$TDINDWG
 40
0.0
  9
$TDUSRTIMER
 40
0.0
  9
$USRTIMER
 70
1
  9
$ANGBASE
 50
0.0
  9
$ANGDIR
 70
0
  9
$PDMODE
 70
0
  9
$PDSIZE
 40
0.0
  9
$PLINEWID
 40
0.0
  9
$SPLFRAME
 70
0
  9
$SPLINETYPE
 70
6
  9
$SPLINESEGS
 70
8
  9
$HANDSEED
  5
1AC
  9
$SURFTAB1
 70
6
  9
$SURFTAB2
 70
6
  9
$SURFTYPE
 70
6
  9
$SURFU
 70
6
  9
$SURFV
 70
6
  9
$UCSBASE
  2

  9
$UCSNAME
  2

  9
$UCSORG
 10
0.0
 20
0.0
 30
0.0
  9
$UCSXDIR
 10
1.0
 20
0.0
 30
0.0
  9
$UCSYDIR
 10
0.0
 20
1.0
 30
0.0
  9
$UCSORTHOREF
  2

  9
$UCSORTHOVIEW
 70
0
  9
$UCSORGTOP
 10
0.0
 20
0.0
 30
0.0
  9
$UCSORGBOTTOM
 10
0.0
 20
0.0
 30
0.0
  9
$UCSORGLEFT
 10
0.0
 20
0.0
 30
0.0
  9
$UCSORGRIGHT
 10
0.0
 20
0.0
 30
0.0
  9
$UCSORGFRONT
 10
0.0
 20
0.0
 30
0.0
  9
$UCSORGBACK
 10
0.0
 20
0.0
 30
0.0
  9
$PUCSBASE
  2

  9
$PUCSNAME
  2

  9
$PUCSORG
 10
0.0
 20
0.0
 30
0.0
  9
$PUCSXDIR
 10
1.0
 20
0.0
 30
0.0
  9
$PUCSYDIR
 10
0.0
 20
1.0
 30
0.0
  9
$PUCSORTHOREF
  2

  9
$PUCSORTHOVIEW
 70
0
  9
$PUCSORGTOP
 10
0.0
 20
0.0
 30
0.0
  9
$PUCSORGBOTTOM
 10
0.0
 20
0.0
 30
0.0
  9
$PUCSORGLEFT
 10
0.0
 20
0.0
 30
0.0
  9
$PUCSORGRIGHT
 10
0.0
 20
0.0
 30
0.0
  9
$PUCSORGFRONT
 10
0.0
 20
0.0
 30
0.0
  9
$PUCSORGBACK
 10
0.0
 20
0.0
 30
0.0
  9
$USERI1
 70
0
  9
$USERI2
 70
0
  9
$USERI3
 70
0
  9
$USERI4
 70
0
  9
$USERI5
 70
0
  9
$USERR1
 40
0.0
  9
$USERR2
 40
0.0
  9
$USERR3
 40
0.0
  9
$USERR4
 40
0.0
  9
$USERR5
 40
0.0
  9
$WORLDVIEW
 70
1
  9
$SHADEDGE
 70
3
  9
$SHADEDIF
 70
70
  9
$TILEMODE
 70
1
  9
$MAXACTVP
 70
64
  9
$PINSBASE
 10
0.0
 20
0.0
 30
0.0
  9
$PLIMCHECK
 70
0
  9
$PEXTMIN
 10
1e+20
 20
1e+20
 30
1e+20
  9
$PEXTMAX
 10
-1e+20
 20
-1e+20
 30
-1e+20
  9
$PLIMMIN
 10
0.0
 20
0.0
  9
$PLIMMAX
 10
420.0
 20
297.0
  9
$UNITMODE
 70
0
  9
$VISRETAIN
 70
1
  9
$PLINEGEN
 70
0
  9
$PSLTSCALE
 70
1
  9
$TREEDEPTH
 70
3020
  9
$CMLSTYLE
  2
Standard
  9
$CMLJUST
 70
0
  9
$CMLSCALE
 40
20.0
  9
$PROXYGRAPHICS
 70
1
  9
$MEASUREMENT
 70
1
  9
$CELWEIGHT
370
-1
  9
$ENDCAPS
280
0
  9
$JOINSTYLE
280
0
  9
$LWDISPLAY
290
0
  9
$INSUNITS
 70
6
  9
$HYPERLINKBASE
  1

  9
$STYLESHEET
  1

  9
$XEDIT
290
1
  9
$CEPSNTYPE
380
0
  9
$PSTYLEMODE
290
1
  9
$FINGERPRINTGUID
  2
{EF758333-AF35-4202-AEB1-86CA04980255}
  9
$VERSIONGUID
  2
{78D5AD68-E637-4D96-8D24-75946911BA48}
  9
$EXTNAMES
290
1
  9
$PSVPSCALE
 40
0.0
  9
$OLESTARTUP
290
0
  9
$SORTENTS
280
127
  9
$INDEXCTL
280
0
  9
$HIDETEXT
280
1
  9
$XCLIPFRAME
280
1
  9
$HALOGAP
280
0
  9
$OBSCOLOR
 70
257
  9
$OBSLTYPE
280
0
  9
$INTERSECTIONDISPLAY
280
0
  9
$INTERSECTIONCOLOR
 70
257
  9
$DIMASSOC
280
2
  9
$PROJECTNAME
  1

  9
$CAMERADISPLAY
290
0
  9
$LENSLENGTH
 40
50.0
  9
$CAMERAHEIGHT
 40
0.0
  9
$STEPSPERSEC
 40
24.0
  9
$STEPSIZE
 40
100.0
  9
$3DDWFPREC
 40
2.0
  9
$PSOLWIDTH
 40
0.005
  9
$PSOLHEIGHT
 40
0.08
  9
$LOFTANG1
 40
1.570796326795
  9
$LOFTANG2
 40
1.570796326795
  9
$LOFTMAG1
 40
0.0
  9
$LOFTMAG2
 40
0.0
  9
$LOFTPARAM
 70
7
  9
$LOFTNORMALS
280
1
  9
$LATITUDE
 40
37.795
  9
$LONGITUDE
 40
-122.394
  9
$NORTHDIRECTION
 40
0.0
  9
$TIMEZONE
 70
-8000
  9
$LIGHTGLYPHDISPLAY
280
1
  9
$TILEMODELIGHTSYNCH
280
1
  9
$CMATERIAL
347
20
  9
$SOLIDHIST
280
0
  9
$SHOWHIST
280
1
  9
$DWFFRAME
280
2
  9
$DGNFRAME
280
2
  9
$REALWORLDSCALE
290
1
  9
$INTERFERECOLOR
 62
256
  9
$CSHADOW
280
0
  9
$SHADOWPLANELOCATION
 40
0.0
  0
ENDSEC
  0
SECTION
  2
CLASSES
  0
CLASS
  1
ACDBDICTIONARYWDFLT
  2
AcDbDictionaryWithDefault
  3
ObjectDBX Classes
 90
0
 91
0
280
0
281
0
  0
CLASS
  1
SUN
  2
AcDbSun
  3
SCENEOE
 90
1153
 91
0
280
0
281
0
  0
CLASS
  1
VISUALSTYLE
  2
AcDbVisualStyle
  3
ObjectDBX Classes
 90
4095
 91
0
280
0
281
0
  0
CLASS
  1
MATERIAL
  2
AcDbMaterial
  3
ObjectDBX Classes
 90
1153
 91
0
280
0
281
0
  0
CLASS
  1
SCALE
  2
AcDbScale
  3
ObjectDBX Classes
 90
1153
 91
0
280
0
281
0
  0
CLASS
  1
TABLESTYLE
  2
AcDbTableStyle
  3
ObjectDBX Classes
 90
4095
 91
0
280
0
281
0
  0
CLASS
  1
MLEADERSTYLE
  2
AcDbMLeaderStyle
  3
ACDB_MLEADERSTYLE_CLASS
 90
4095
 91
0
280
0
281
0
  0
CLASS
  1
DICTIONARYVAR
  2
AcDbDictionaryVar
  3
ObjectDBX Classes
 90
0
 91
0
280
0
281
0
  0
CLASS
  1
CELLSTYLEMAP
  2
AcDbCellStyleMap
  3
ObjectDBX Classes
 90
1152
 91
0
280
0
281
0
  0
CLASS
  1
MENTALRAYRENDERSETTINGS
  2
AcDbMentalRayRenderSettings
  3
SCENEOE
 90
1024
 91
0
280
0
281
0
  0
CLASS
  1
ACDBDETAILVIEWSTYLE
  2
AcDbDetailViewStyle
  3
ObjectDBX Classes
 90
1025
 91
0
280
0
281
0
  0
CLASS
  1
ACDBSECTIONVIEWSTYLE
  2
AcDbSectionViewStyle
  3
ObjectDBX Classes
 90
1025
 91
0
280
0
281
0
  0
CLASS
  1
RASTERVARIABLES
  2
AcDbRasterVariables
  3
ISM
 90
0
 91
0
280
0
281
0
  0
CLASS
  1
ACDBPLACEHOLDER
  2
AcDbPlaceHolder
  3
ObjectDBX Classes
 90
0
 91
0
280
0
281
0
  0
CLASS
  1
LAYOUT
  2
AcDbLayout
  3
ObjectDBX Classes
 90
0
 91
0
280
0
281
0
  0
ENDSEC
  0
SECTION
  2
TABLES
  0
TABLE
  2
VPORT
  5
8
330
0
100
AcDbSymbolTable
 70
1
  0
VPORT
  5
23
330
8
100
AcDbSymbolTableRecord
100
AcDbViewportTableRecord
  2
*Active
 70
0
 10
0.0
 20
0.0
 11
1.0
 21
1.0
 12
0.0
 22
0.0
 13
0.0
 23
0.0
 14
0.5
 24
0.5
 15
0.5
 25
0.5
 16
0.0
 26
0.0
 36
1.0
 17
0.0
 27
0.0
 37
0.0
 40
1000.0
 41
1.34
 42
50.0
 43
0.0
 44
0.0
 50
0.0
 51
0.0
 71
0
 72
1000
 73
1
 74
3
 75
0
 76
0
 77
0
 78
0
281
0
 65
0
146
0.0
  0
ENDTAB
  0
TABLE
  2
LTYPE
  5
2
330
0
100
AcDbSymbolTable
 70
3
  0
LTYPE
  5
24
330
2
100
AcDbSymbolTableRecord
100
AcDbLinetypeTableRecord
  2
ByBlock
 70
0
  3

 72
65
 73
0
 40
0.0
  0
LTYPE
  5
25
330
2
100
AcDbSymbolTableRecord
100
AcDbLinetypeTableRecord
  2
ByLayer
 70
0
  3

 72
65
 73
0
 40
0.0
  0
LTYPE
  5
26
330
2
100
AcDbSymbolTableRecord
100
AcDbLinetypeTableRecord
  2
Continuous
 70
0
  3

 72
65
 73
0
 40
0.0
  0
ENDTAB
  0
TABLE
  2
LAYER
  5
1
330
0
100
AcDbSymbolTable
 70
16
  0
LAYER
  5
27
330
1
100
AcDbSymbolTableRecord
100
AcDbLayerTableRecord
  2
0
 70
0
 62
7
  6
Continuous
370
-3
390
13
347
21
  0
LAYER
  5
28
330
1
100
AcDbSymbolTableRecord
100
AcDbLayerTableRecord
  2
Defpoints
 70
0
 62
7
  6
Continuous
290
0
370
-3
390
13
347
21
  0
LAYER
  5
2F
330
1
100
AcDbSymbolTableRecord
100
AcDbLayerTableRecord
  2
detalhes
 70
0
 62
7
  6
Continuous
370
-3
390
13
347
21
  0
LAYER
  5
30
330
1
100
AcDbSymbolTableRecord
100
AcDbLayerTableRecord
  2
barrote
 70
0
 62
7
  6
Continuous
370
-3
390
13
347
21
  0
LAYER
  5
31
330
1
100
AcDbSymbolTableRecord
100
AcDbLayerTableRecord
  2
COTA
 70
0
 62
7
  6
Continuous
370
-3
390
13
347
21
  0
LAYER
  5
32
330
1
100
AcDbSymbolTableRecord
100
AcDbLayerTableRecord
  2
Hachura
 70
0
 62
7
  6
Continuous
370
-3
390
13
347
21
  0
LAYER
  5
33
330
1
100
AcDbSymbolTableRecord
100
AcDbLayerTableRecord
  2
CONCRETO
 70
0
 62
7
  6
Continuous
370
-3
390
13
347
21
  0
LAYER
  5
34
330
1
100
AcDbSymbolTableRecord
100
AcDbLayerTableRecord
  2
SCO-___-LAJ
 70
0
 62
7
  6
Continuous
370
-3
390
13
347
21
  0
LAYER
  5
35
330
1
100
AcDbSymbolTableRecord
100
AcDbLayerTableRecord
  2
Madeira
 70
0
 62
7
  6
Continuous
370
-3
390
13
347
21
  0
LAYER
  5
36
330
1
100
AcDbSymbolTableRecord
100
AcDbLayerTableRecord
  2
Cota Seção (2x)
 70
0
 62
7
  6
Continuous
370
-3
390
13
347
21
  0
LAYER
  5
37
330
1
100
AcDbSymbolTableRecord
100
AcDbLayerTableRecord
  2
Painéis
 70
0
 62
7
  6
Continuous
370
-3
390
13
347
21
  0
LAYER
  5
38
330
1
100
AcDbSymbolTableRecord
100
AcDbLayerTableRecord
  2
TENSOR
 70
0
 62
7
  6
Continuous
370
-3
390
13
347
21
  0
LAYER
  5
39
330
1
100
AcDbSymbolTableRecord
100
AcDbLayerTableRecord
  2
presilha
 70
0
 62
7
  6
Continuous
370
-3
390
13
347
21
  0
LAYER
  5
3A
330
1
100
AcDbSymbolTableRecord
100
AcDbLayerTableRecord
  2
Texto Seção
 70
0
 62
7
  6
Continuous
370
-3
390
13
347
21
  0
LAYER
  5
3B
330
1
100
AcDbSymbolTableRecord
100
AcDbLayerTableRecord
  2
SARR_2.2x7
 70
0
 62
7
  6
Continuous
370
-3
390
13
347
21
  0
LAYER
  5
3C
330
1
100
AcDbSymbolTableRecord
100
AcDbLayerTableRecord
  2
5
 70
0
 62
7
  6
Continuous
370
-3
390
13
347
21
  0
ENDTAB
  0
TABLE
  2
STYLE
  5
5
330
0
100
AcDbSymbolTable
 70
1
  0
STYLE
  5
29
330
5
100
AcDbSymbolTableRecord
100
AcDbTextStyleTableRecord
  2
Standard
 70
0
 40
0.0
 41
1.0
 50
0.0
 71
0
 42
2.5
  3
txt
  4

  0
ENDTAB
  0
TABLE
  2
VIEW
  5
7
330
0
100
AcDbSymbolTable
 70
0
  0
ENDTAB
  0
TABLE
  2
UCS
  5
6
330
0
100
AcDbSymbolTable
 70
0
  0
ENDTAB
  0
TABLE
  2
APPID
  5
3
330
0
100
AcDbSymbolTable
 70
3
  0
APPID
  5
2A
330
3
100
AcDbSymbolTableRecord
100
AcDbRegAppTableRecord
  2
ACAD
 70
0
  0
APPID
  5
1A9
330
3
100
AcDbSymbolTableRecord
100
AcDbRegAppTableRecord
  2
HATCHBACKGROUNDCOLOR
 70
0
  0
APPID
  5
1AA
330
3
100
AcDbSymbolTableRecord
100
AcDbRegAppTableRecord
  2
EZDXF
 70
0
  0
ENDTAB
  0
TABLE
  2
DIMSTYLE
  5
4
330
0
100
AcDbSymbolTable
 70
1
100
AcDbDimStyleTable
  0
DIMSTYLE
105
2B
330
4
100
AcDbSymbolTableRecord
100
AcDbDimStyleTableRecord
  2
Standard
 70
0
 40
1.0
 41
2.5
 42
0.625
 43
3.75
 44
1.25
 45
0.0
 46
0.0
 47
0.0
 48
0.0
 49
2.5
140
2.5
141
2.5
142
0.0
143
0.03937007874
144
1.0
145
0.0
146
1.0
147
0.625
148
0.0
 69
0
 70
0
 71
0
 72
0
 73
0
 74
0
 75
0
 76
0
 77
1
 78
8
 79
3
170
0
171
3
172
1
173
0
174
0
175
0
176
0
177
0
178
0
179
2
271
2
272
2
273
2
274
3
275
0
276
0
277
2
278
44
279
0
280
0
281
0
282
0
283
0
284
8
285
0
286
0
288
0
289
3
290
0
371
-2
372
-2
  0
ENDTAB
  0
TABLE
  2
BLOCK_RECORD
  5
9
330
0
100
AcDbSymbolTable
 70
2
  0
BLOCK_RECORD
  5
17
330
9
100
AcDbSymbolTableRecord
100
AcDbBlockTableRecord
  2
*Model_Space
340
1A
 70
0
280
1
281
0
  0
BLOCK_RECORD
  5
1B
330
9
100
AcDbSymbolTableRecord
100
AcDbBlockTableRecord
  2
*Paper_Space
340
1E
 70
0
280
1
281
0
  0
ENDTAB
  0
ENDSEC
  0
SECTION
  2
BLOCKS
  0
BLOCK
  5
18
330
17
100
AcDbEntity
  8
0
100
AcDbBlockBegin
  2
*Model_Space
 70
0
 10
0.0
 20
0.0
 30
0.0
  3
*Model_Space
  1

  0
ENDBLK
  5
19
330
17
100
AcDbEntity
  8
0
100
AcDbBlockEnd
  0
BLOCK
  5
1C
330
1B
100
AcDbEntity
  8
0
100
AcDbBlockBegin
  2
*Paper_Space
 70
0
 10
0.0
 20
0.0
 30
0.0
  3
*Paper_Space
  1

  0
ENDBLK
  5
1D
330
1B
100
AcDbEntity
  8
0
100
AcDbBlockEnd
  0
ENDSEC
  0
SECTION
  2
ENTITIES
  0
LINE
  5
3D
330
17
100
AcDbEntity
  8
Painéis
 62
200
370
25
100
AcDbLine
 10
4228.534945638435
 20
6489.538232667688
 30
0.0
 11
4338.534945638435
 21
6489.538232667706
 31
0.0
  0
LINE
  5
3E
330
17
100
AcDbEntity
  8
Painéis
 62
200
370
25
100
AcDbLine
 10
4314.021037142178
 20
6716.635319943772
 30
0.0
 11
3629.521037142178
 21
6716.635319943772
 31
0.0
  0
LINE
  5
3F
330
17
100
AcDbEntity
  8
Painéis
 62
200
370
25
100
AcDbLine
 10
4314.021037142178
 20
6652.635319943772
 30
0.0
 11
3629.521037142178
 21
6652.635319943772
 31
0.0
  0
LINE
  5
40
330
17
100
AcDbEntity
  8
Painéis
 62
200
370
25
100
AcDbLine
 10
4117.521037142178
 20
6652.635319943787
 30
0.0
 11
4117.521037142178
 21
6716.635319943788
 31
0.0
  0
LINE
  5
41
330
17
100
AcDbEntity
  8
Painéis
 62
200
370
25
100
AcDbLine
 10
3629.521037142178
 20
6652.635319943772
 30
0.0
 11
3629.521037142178
 21
6716.635319943772
 31
0.0
  0
LINE
  5
42
330
17
100
AcDbEntity
  8
Painéis
 62
200
370
25
100
AcDbLine
 10
4314.021037142178
 20
6652.635319943772
 30
0.0
 11
4314.021037142178
 21
6716.635319943772
 31
0.0
  0
LINE
  5
43
330
17
100
AcDbEntity
  8
Painéis
 62
200
370
25
100
AcDbLine
 10
3873.521037142178
 20
6652.635319943787
 30
0.0
 11
3873.521037142178
 21
6716.635319943788
 31
0.0
  0
LINE
  5
44
330
17
100
AcDbEntity
  8
Painéis
 62
200
370
25
100
AcDbLine
 10
3755.534945638451
 20
6503.538232667712
 30
0.0
 11
3631.53494563845
 21
6503.538232667712
 31
0.0
  0
LINE
  5
45
330
17
100
AcDbEntity
  8
Painéis
 62
200
370
25
100
AcDbLine
 10
3777.534945638443
 20
6439.538232667712
 30
0.0
 11
3631.534945638443
 21
6439.538232667712
 31
0.0
  0
LINE
  5
46
330
17
100
AcDbEntity
  8
Painéis
 62
200
370
25
100
AcDbLine
 10
3631.534945638443
 20
6439.538232667726
 30
0.0
 11
3631.53494563845
 21
6503.538232667726
 31
0.0
  0
LINE
  5
47
330
17
100
AcDbEntity
  8
Painéis
 62
200
370
25
100
AcDbLine
 10
4201.534945638442
 20
6439.538232667683
 30
0.0
 11
4349.534945638443
 21
6439.538232667707
 31
0.0
  0
LINE
  5
48
330
17
100
AcDbEntity
  8
Painéis
 62
200
370
25
100
AcDbLine
 10
4349.534945638443
 20
6439.538232667707
 30
0.0
 11
4349.534945638443
 21
6448.538232667683
 31
0.0
  0
LINE
  5
49
330
17
100
AcDbEntity
  8
Painéis
 62
200
370
25
100
AcDbLine
 10
4201.534945638442
 20
6439.538232667683
 30
0.0
 11
4201.534945638442
 21
6449.538232667684
 31
0.0
  0
LINE
  5
4A
330
17
100
AcDbEntity
  8
COTA
 62
241
370
25
100
AcDbLine
 10
4201.534945638435
 20
6503.538232667683
 30
0.0
 11
4349.534945638435
 21
6503.538232667683
 31
0.0
  0
LINE
  5
4B
330
17
100
AcDbEntity
  8
COTA
 62
241
370
25
100
AcDbLine
 10
4349.534945638435
 20
6503.538232667683
 30
0.0
 11
4349.534945638443
 21
6448.538232667683
 31
0.0
  0
LINE
  5
4C
330
17
100
AcDbEntity
  8
SARR_2.2x7
 62
40
370
25
100
AcDbLine
 10
4307.021037142177
 20
6652.634752898456
 30
0.0
 11
4307.021037142177
 21
6716.635319943772
 31
0.0
  0
LINE
  5
4D
330
17
100
AcDbEntity
  8
Painéis
 62
200
370
25
100
AcDbLine
 10
3777.534945638436
 20
6503.538232667709
 30
0.0
 11
4202.419694846521
 21
6503.538232667735
 31
0.0
  0
LINE
  5
4E
330
17
100
AcDbEntity
  8
Painéis
 62
200
370
25
100
AcDbLine
 10
3777.534945638443
 20
6439.538232667709
 30
0.0
 11
4201.534945638442
 21
6439.538232667735
 31
0.0
  0
LINE
  5
4F
330
17
100
AcDbEntity
  8
Painéis
 62
200
370
25
100
AcDbLine
 10
4021.534945638443
 20
6439.538232667725
 30
0.0
 11
4021.534945638443
 21
6503.538232667725
 31
0.0
  0
LINE
  5
50
330
17
100
AcDbEntity
  8
Painéis
 62
200
370
25
100
AcDbLine
 10
4201.534945638442
 20
6439.538232667735
 30
0.0
 11
4201.534945638442
 21
6503.538232667735
 31
0.0
  0
LINE
  5
51
330
17
100
AcDbEntity
  8
Painéis
 62
200
370
25
100
AcDbLine
 10
3777.534945638443
 20
6439.538232667709
 30
0.0
 11
3777.534945638443
 21
6503.538232667709
 31
0.0
  0
LINE
  5
52
330
17
100
AcDbEntity
  8
Painéis
 62
200
370
25
100
AcDbLine
 10
3755.534945638451
 20
6503.538232667712
 30
0.0
 11
3755.534945638451
 21
6449.538232667712
 31
0.0
  0
LINE
  5
53
330
17
100
AcDbEntity
  8
Painéis
 62
200
370
25
100
AcDbLine
 10
3755.534945638451
 20
6449.538232667712
 30
0.0
 11
3777.534945638443
 21
6449.53823266771
 31
0.0
  0
LINE
  5
54
330
17
100
AcDbEntity
  8
COTA
 62
241
370
25
100
AcDbLine
 10
3755.534945638451
 20
6503.538232667712
 30
0.0
 11
3777.53494563845
 21
6503.538232667712
 31
0.0
  0
LINE
  5
55
330
17
100
AcDbEntity
  8
Painéis
 62
200
370
25
100
AcDbLine
 10
4201.534945638442
 20
6449.538232667683
 30
0.0
 11
4228.534945638442
 21
6449.538232667683
 31
0.0
  0
LINE
  5
56
330
17
100
AcDbEntity
  8
Painéis
 62
200
370
25
100
AcDbLine
 10
4228.534945638442
 20
6449.538232667683
 30
0.0
 11
4228.534945638435
 21
6489.538232667688
 31
0.0
  0
LINE
  5
57
330
17
100
AcDbEntity
  8
SARR_2.2x7
 62
40
370
25
100
AcDbLine
 10
4235.534945638437
 20
6482.53823266778
 30
0.0
 11
4338.534945638435
 21
6482.538232667782
 31
0.0
  0
LINE
  5
58
330
17
100
AcDbEntity
  8
SARR_2.2x7
 62
40
370
25
100
AcDbLine
 10
3755.534945638451
 20
6496.53823266782
 30
0.0
 11
3631.534945638443
 21
6496.538232667825
 31
0.0
  0
LINE
  5
59
330
17
100
AcDbEntity
  8
SARR_2.2x7
 62
40
370
25
100
AcDbLine
 10
4201.534945638442
 20
6496.538232667799
 30
0.0
 11
4021.534945638443
 21
6496.538232667801
 31
0.0
  0
LINE
  5
5A
330
17
100
AcDbEntity
  8
SARR_2.2x7
 62
40
370
25
100
AcDbLine
 10
3943.534945638441
 20
6474.913842720987
 30
0.0
 11
3943.534945638442
 21
6467.913842721277
 31
0.0
  0
LINE
  5
5B
330
17
100
AcDbEntity
  8
SARR_2.2x7
 62
40
370
25
100
AcDbLine
 10
3943.534945638443
 20
6446.538232667638
 30
0.0
 11
3943.534945638444
 21
6439.538232667721
 31
0.0
  0
LINE
  5
5C
330
17
100
AcDbEntity
  8
SARR_2.2x7
 62
40
370
25
100
AcDbLine
 10
3755.534945638451
 20
6449.538232667712
 30
0.0
 11
3755.534945638451
 21
6439.538232667712
 31
0.0
  0
LINE
  5
5D
330
17
100
AcDbEntity
  8
SARR_2.2x7
 62
40
370
25
100
AcDbLine
 10
4033.534945638445
 20
6503.538232667503
 30
0.0
 11
4033.534945638445
 21
6496.538232667799
 31
0.0
  0
LINE
  5
5E
330
17
100
AcDbEntity
  8
SARR_2.2x7
 62
40
370
25
100
AcDbLine
 10
4033.534945638446
 20
6474.913842720994
 30
0.0
 11
4033.534945638446
 21
6467.913842721299
 31
0.0
  0
LINE
  5
5F
330
17
100
AcDbEntity
  8
SARR_2.2x7
 62
40
370
25
100
AcDbLine
 10
4033.534945638447
 20
6446.538232667643
 30
0.0
 11
4033.534945638448
 21
6439.538232667725
 31
0.0
  0
LINE
  5
60
330
17
100
AcDbEntity
  8
SARR_2.2x7
 62
40
370
25
100
AcDbLine
 10
4253.534945638453
 20
6439.538232667692
 30
0.0
 11
4253.534945638452
 21
6446.538232667595
 31
0.0
  0
LINE
  5
61
330
17
100
AcDbEntity
  8
SARR_2.2x7
 62
40
370
25
100
AcDbLine
 10
4253.534945638449
 20
6461.253292118382
 30
0.0
 11
4253.534945638448
 21
6468.253292118077
 31
0.0
  0
LINE
  5
62
330
17
100
AcDbEntity
  8
SARR_2.2x7
 62
40
370
25
100
AcDbLine
 10
3755.534945638451
 20
6444.538232667712
 30
0.0
 11
3777.534945638443
 21
6444.53823266771
 31
0.0
  0
LINE
  5
63
330
17
100
AcDbEntity
  8
SARR_2.2x7
 62
40
370
25
100
AcDbLine
 10
4201.534945638442
 20
6444.538232667712
 30
0.0
 11
4228.534945638552
 21
6444.538232667709
 31
0.0
  0
LINE
  5
64
330
17
100
AcDbEntity
  8
0
 62
7
370
25
100
AcDbLine
 10
4018.507468427895
 20
6874.976279294547
 30
0.0
 11
4018.507468427895
 21
6862.976279294547
 31
0.0
  0
LINE
  5
65
330
17
100
AcDbEntity
  8
0
 62
7
370
25
100
AcDbLine
 10
4154.507468427924
 20
6871.976279294561
 30
0.0
 11
4154.507468427924
 21
6865.976279294563
 31
0.0
  0
LINE
  5
66
330
17
100
AcDbEntity
  8
0
 62
7
370
25
100
AcDbLine
 10
4152.507468427924
 20
6874.976279294561
 30
0.0
 11
4152.507468427924
 21
6862.976279294563
 31
0.0
  0
LINE
  5
67
330
17
100
AcDbEntity
  8
0
 62
7
370
25
100
AcDbLine
 10
4152.507468427924
 20
6865.976279294563
 30
0.0
 11
4154.507468427924
 21
6865.976279294563
 31
0.0
  0
LINE
  5
68
330
17
100
AcDbEntity
  8
0
 62
7
370
25
100
AcDbLine
 10
4018.507468427895
 20
6862.976279294547
 30
0.0
 11
4048.507468427895
 21
6862.976279294547
 31
0.0
  0
LINE
  5
69
330
17
100
AcDbEntity
  8
0
 62
7
370
25
100
AcDbLine
 10
4122.507468427924
 20
6867.976279294563
 30
0.0
 11
4152.507468427924
 21
6867.976279294563
 31
0.0
  0
LINE
  5
6A
330
17
100
AcDbEntity
  8
0
 62
7
370
25
100
AcDbLine
 10
4122.507468427924
 20
6869.976279294562
 30
0.0
 11
4152.507468427924
 21
6869.976279294562
 31
0.0
  0
LINE
  5
6B
330
17
100
AcDbEntity
  8
TENSOR
 62
3
370
25
100
AcDbLine
 10
4157.507468427924
 20
6868.976279294547
 30
0.0
 11
4013.204174249796
 21
6868.976279294547
 31
0.0
  0
LINE
  5
6C
330
17
100
AcDbEntity
  8
0
 62
7
370
25
100
AcDbLine
 10
4152.507468427924
 20
6871.976279294561
 30
0.0
 11
4154.507468427924
 21
6871.976279294561
 31
0.0
  0
LINE
  5
6D
330
17
100
AcDbEntity
  8
0
 62
7
370
25
100
AcDbLine
 10
4048.507468427895
 20
6867.976279294548
 30
0.0
 11
4018.507468427895
 21
6867.976279294548
 31
0.0
  0
LINE
  5
6E
330
17
100
AcDbEntity
  8
0
 62
7
370
25
100
AcDbLine
 10
4048.507468427895
 20
6869.976279294547
 30
0.0
 11
4018.507468427895
 21
6869.976279294547
 31
0.0
  0
LINE
  5
6F
330
17
100
AcDbEntity
  8
0
 62
7
370
25
100
AcDbLine
 10
4018.507468427895
 20
6874.976279294547
 30
0.0
 11
4048.507468427895
 21
6874.976279294547
 31
0.0
  0
LINE
  5
70
330
17
100
AcDbEntity
  8
0
 62
7
370
25
100
AcDbLine
 10
4152.507468427924
 20
6862.976279294563
 30
0.0
 11
4122.507468427924
 21
6862.976279294563
 31
0.0
  0
LINE
  5
71
330
17
100
AcDbEntity
  8
0
 62
7
370
25
100
AcDbLine
 10
4152.507468427924
 20
6874.976279294561
 30
0.0
 11
4122.507468427924
 21
6874.976279294561
 31
0.0
  0
LINE
  5
72
330
17
100
AcDbEntity
  8
0
 62
7
370
25
100
AcDbLine
 10
4016.507468427895
 20
6871.976279294547
 30
0.0
 11
4016.507468427895
 21
6865.976279294547
 31
0.0
  0
LINE
  5
73
330
17
100
AcDbEntity
  8
0
 62
7
370
25
100
AcDbLine
 10
4018.507468427895
 20
6865.976279294547
 30
0.0
 11
4016.507468427895
 21
6865.976279294547
 31
0.0
  0
LINE
  5
74
330
17
100
AcDbEntity
  8
0
 62
7
370
25
100
AcDbLine
 10
4016.507468427895
 20
6871.976279294547
 30
0.0
 11
4018.507468427895
 21
6871.976279294547
 31
0.0
  0
LINE
  5
75
330
17
100
AcDbEntity
  8
SARR_2.2x7
 62
40
370
25
100
AcDbLine
 10
3873.521037142178
 20
6709.635319944189
 30
0.0
 11
3629.521037142178
 21
6709.635319943558
 31
0.0
  0
LINE
  5
76
330
17
100
AcDbEntity
  8
SARR_2.2x7
 62
40
370
25
100
AcDbLine
 10
3654.021037142177
 20
6681.350379394441
 30
0.0
 11
3873.521037142178
 21
6681.350379394271
 31
0.0
  0
LINE
  5
77
330
17
100
AcDbEntity
  8
SARR_2.2x7
 62
40
370
25
100
AcDbLine
 10
3654.021037142177
 20
6688.350379394139
 30
0.0
 11
3873.521037142178
 21
6688.350379393963
 31
0.0
  0
LINE
  5
78
330
17
100
AcDbEntity
  8
SARR_2.2x7
 62
40
370
25
100
AcDbLine
 10
3873.521037142178
 20
6659.635319943356
 30
0.0
 11
3654.021037142177
 21
6659.635319943923
 31
0.0
  0
LINE
  5
79
330
17
100
AcDbEntity
  8
SARR_2.2x7
 62
40
370
25
100
AcDbLine
 10
4117.521037142178
 20
6709.635319944208
 30
0.0
 11
3873.521037142182
 21
6709.635319943576
 31
0.0
  0
LINE
  5
7A
330
17
100
AcDbEntity
  8
SARR_2.2x7
 62
40
370
25
100
AcDbLine
 10
3967.021037142178
 20
6681.350379394382
 30
0.0
 11
4117.521037142178
 21
6681.350379394266
 31
0.0
  0
LINE
  5
7B
330
17
100
AcDbEntity
  8
SARR_2.2x7
 62
40
370
25
100
AcDbLine
 10
3967.021037142178
 20
6688.350379394077
 30
0.0
 11
4117.521037142178
 21
6688.350379393956
 31
0.0
  0
LINE
  5
7C
330
17
100
AcDbEntity
  8
SARR_2.2x7
 62
40
370
25
100
AcDbLine
 10
4117.521037142178
 20
6659.635319943338
 30
0.0
 11
3967.021037142178
 21
6659.635319943728
 31
0.0
  0
LINE
  5
7D
330
17
100
AcDbEntity
  8
SARR_2.2x7
 62
40
370
25
100
AcDbLine
 10
4314.021037142178
 20
6709.635319944125
 30
0.0
 11
4117.521037142181
 21
6709.635319943616
 31
0.0
  0
LINE
  5
7E
330
17
100
AcDbEntity
  8
SARR_2.2x7
 62
40
370
25
100
AcDbLine
 10
4117.521037142181
 20
6681.350379394493
 30
0.0
 11
4228.021037142177
 21
6681.350379394408
 31
0.0
  0
LINE
  5
7F
330
17
100
AcDbEntity
  8
SARR_2.2x7
 62
40
370
25
100
AcDbLine
 10
4117.521037142181
 20
6688.350379394191
 30
0.0
 11
4228.021037142177
 21
6688.350379394103
 31
0.0
  0
LINE
  5
80
330
17
100
AcDbEntity
  8
SARR_2.2x7
 62
40
370
25
100
AcDbLine
 10
4228.021037142177
 20
6659.635319943723
 30
0.0
 11
4117.521037142181
 21
6659.635319944008
 31
0.0
  0
LINE
  5
81
330
17
100
AcDbEntity
  8
SARR_2.2x7
 62
40
370
25
100
AcDbLine
 10
3683.534945638442
 20
6467.91384272128
 30
0.0
 11
3683.534945638442
 21
6474.913842720981
 31
0.0
  0
LINE
  5
82
330
17
100
AcDbEntity
  8
SARR_2.2x7
 62
40
370
25
100
AcDbLine
 10
3683.534945638441
 20
6467.91384272128
 30
0.0
 11
3631.53494563844
 21
6467.913842721284
 31
0.0
  0
LINE
  5
83
330
17
100
AcDbEntity
  8
SARR_2.2x7
 62
40
370
25
100
AcDbLine
 10
3683.534945638444
 20
6446.538232667632
 30
0.0
 11
3683.534945638444
 21
6439.538232667932
 31
0.0
  0
LINE
  5
84
330
17
100
AcDbEntity
  8
SARR_2.2x7
 62
40
370
25
100
AcDbLine
 10
3683.534945638444
 20
6446.538232667632
 30
0.0
 11
3631.534945638443
 21
6446.538232667629
 31
0.0
  0
LINE
  5
85
330
17
100
AcDbEntity
  8
SARR_2.2x7
 62
40
370
25
100
AcDbLine
 10
3683.534945638442
 20
6474.913842720981
 30
0.0
 11
3631.534945638441
 21
6474.913842720979
 31
0.0
  0
LINE
  5
86
330
17
100
AcDbEntity
  8
SARR_2.2x7
 62
40
370
25
100
AcDbLine
 10
3784.534945638443
 20
6439.538232667709
 30
0.0
 11
3784.534945638443
 21
6503.538232667709
 31
0.0
  0
LINE
  5
87
330
17
100
AcDbEntity
  8
SARR_2.2x7
 62
40
370
25
100
AcDbLine
 10
4021.534945638443
 20
6496.538232667813
 30
0.0
 11
3784.534945638436
 21
6496.538232667825
 31
0.0
  0
LINE
  5
88
330
17
100
AcDbEntity
  8
SARR_2.2x7
 62
40
370
25
100
AcDbLine
 10
3943.534945638442
 20
6467.913842721277
 30
0.0
 11
3784.534945638433
 21
6467.913842721284
 31
0.0
  0
LINE
  5
89
330
17
100
AcDbEntity
  8
SARR_2.2x7
 62
40
370
25
100
AcDbLine
 10
3943.534945638443
 20
6446.538232667638
 30
0.0
 11
3784.534945638436
 21
6446.538232667629
 31
0.0
  0
LINE
  5
8A
330
17
100
AcDbEntity
  8
SARR_2.2x7
 62
40
370
25
100
AcDbLine
 10
3943.534945638442
 20
6474.913842720987
 30
0.0
 11
3784.534945638433
 21
6474.913842720979
 31
0.0
  0
LINE
  5
8B
330
17
100
AcDbEntity
  8
SARR_2.2x7
 62
40
370
25
100
AcDbLine
 10
4194.534945638443
 20
6467.913842721291
 30
0.0
 11
4033.534945638434
 21
6467.913842721299
 31
0.0
  0
LINE
  5
8C
330
17
100
AcDbEntity
  8
SARR_2.2x7
 62
40
370
25
100
AcDbLine
 10
4194.534945638443
 20
6446.538232667653
 30
0.0
 11
4033.534945638438
 21
6446.538232667643
 31
0.0
  0
LINE
  5
8D
330
17
100
AcDbEntity
  8
SARR_2.2x7
 62
40
370
25
100
AcDbLine
 10
4194.534945638443
 20
6474.913842721003
 30
0.0
 11
4033.534945638435
 21
6474.913842720994
 31
0.0
  0
LINE
  5
8E
330
17
100
AcDbEntity
  8
SARR_2.2x7
 62
40
370
25
100
AcDbLine
 10
4194.534945638443
 20
6439.538232667735
 30
0.0
 11
4194.534945638443
 21
6496.538232667799
 31
0.0
  0
LINE
  5
8F
330
17
100
AcDbEntity
  8
SARR_2.2x7
 62
40
370
25
100
AcDbLine
 10
4235.534945638444
 20
6439.538232667688
 30
0.0
 11
4235.534945638436
 21
6489.538232667688
 31
0.0
  0
LINE
  5
90
330
17
100
AcDbEntity
  8
SARR_2.2x7
 62
40
370
25
100
AcDbLine
 10
4235.534945638444
 20
6446.538232667596
 30
0.0
 11
4253.534945638452
 21
6446.538232667595
 31
0.0
  0
LINE
  5
91
330
17
100
AcDbEntity
  8
SARR_2.2x7
 62
40
370
25
100
AcDbLine
 10
4235.534945638444
 20
6461.253292118394
 30
0.0
 11
4253.534945638449
 21
6461.25329211838
 31
0.0
  0
LINE
  5
92
330
17
100
AcDbEntity
  8
SARR_2.2x7
 62
40
370
25
100
AcDbLine
 10
4235.534945638444
 20
6468.253292118092
 30
0.0
 11
4253.534945638447
 21
6468.253292118077
 31
0.0
  0
LINE
  5
93
330
17
100
AcDbEntity
  8
SARR_2.2x7
 62
40
370
25
100
AcDbLine
 10
4228.534945638442
 20
6449.538232667683
 30
0.0
 11
4228.534945638444
 21
6439.538232667686
 31
0.0
  0
LINE
  5
94
330
17
100
AcDbEntity
  8
SARR_2.2x7
 62
40
370
25
100
AcDbLine
 10
3654.021037142177
 20
6652.635319943769
 30
0.0
 11
3654.021037142177
 21
6659.635319943925
 31
0.0
  0
LINE
  5
95
330
17
100
AcDbEntity
  8
SARR_2.2x7
 62
40
370
25
100
AcDbLine
 10
3967.021037142178
 20
6652.635319943765
 30
0.0
 11
3967.021037142178
 21
6659.635319943726
 31
0.0
  0
LINE
  5
96
330
17
100
AcDbEntity
  8
SARR_2.2x7
 62
40
370
25
100
AcDbLine
 10
4228.021037142177
 20
6652.635319943765
 30
0.0
 11
4228.021037142177
 21
6659.635319943723
 31
0.0
  0
LINE
  5
97
330
17
100
AcDbEntity
  8
SARR_2.2x7
 62
40
370
25
100
AcDbLine
 10
4228.021037142177
 20
6681.350379394409
 30
0.0
 11
4228.021037142177
 21
6688.350379394103
 31
0.0
  0
LINE
  5
98
330
17
100
AcDbEntity
  8
SARR_2.2x7
 62
40
370
25
100
AcDbLine
 10
3967.021037142178
 20
6681.350379394382
 30
0.0
 11
3967.021037142178
 21
6688.350379394076
 31
0.0
  0
LINE
  5
99
330
17
100
AcDbEntity
  8
SARR_2.2x7
 62
40
370
25
100
AcDbLine
 10
3654.021037142177
 20
6681.350379394441
 30
0.0
 11
3654.021037142177
 21
6688.350379394139
 31
0.0
  0
LINE
  5
9A
330
17
100
AcDbEntity
  8
Painéis
 62
200
370
25
100
AcDbLine
 10
4338.534945638435
 20
6489.538232667706
 30
0.0
 11
4338.534945638435
 21
6448.538232667683
 31
0.0
  0
LINE
  5
9B
330
17
100
AcDbEntity
  8
Painéis
 62
200
370
25
100
AcDbLine
 10
4338.534945638435
 20
6448.538232667683
 30
0.0
 11
4349.534945638443
 21
6448.538232667683
 31
0.0
  0
LINE
  5
9C
330
17
100
AcDbEntity
  8
SARR_2.2x7
 62
40
370
25
100
AcDbLine
 10
4349.534945638443
 20
6444.038232667695
 30
0.0
 11
4338.534945638435
 21
6444.038232667695
 31
0.0
  0
LINE
  5
9D
330
17
100
AcDbEntity
  8
SARR_2.2x7
 62
40
370
25
100
AcDbLine
 10
4338.534945638435
 20
6448.538232667683
 30
0.0
 11
4338.534945638435
 21
6439.538232667707
 31
0.0
  0
LINE
  5
9E
330
17
100
AcDbEntity
  8
COTA
 62
4
370
25
100
AcDbLine
 10
4314.021037142178
 20
6649.635319943772
 30
0.0
 11
4314.021037142178
 21
6623.095393965617
 31
0.0
  0
LINE
  5
9F
330
17
100
AcDbEntity
  8
COTA
 62
4
370
25
100
AcDbLine
 10
4117.521037142178
 20
6649.635319943802
 30
0.0
 11
4117.521037142178
 21
6623.095393965617
 31
0.0
  0
LINE
  5
A0
330
17
100
AcDbEntity
  8
COTA
 62
4
370
25
100
AcDbLine
 10
4314.021037142178
 20
6626.095393965617
 30
0.0
 11
4117.521037142178
 21
6626.095393965617
 31
0.0
  0
LINE
  5
A1
330
17
100
AcDbEntity
  8
COTA
 62
0
370
25
100
AcDbLine
 10
4312.521037142178
 20
6624.595393965617
 30
0.0
 11
4315.521037142178
 21
6627.595393965617
 31
0.0
  0
LINE
  5
A2
330
17
100
AcDbEntity
  8
COTA
 62
0
370
25
100
AcDbLine
 10
4119.021037142178
 20
6627.595393965617
 30
0.0
 11
4116.021037142178
 21
6624.595393965617
 31
0.0
  0
LINE
  5
A3
330
17
100
AcDbEntity
  8
COTA
 62
4
370
25
100
AcDbLine
 10
4314.021037142178
 20
6649.635319943772
 30
0.0
 11
4314.021037142178
 21
6589.556883276862
 31
0.0
  0
LINE
  5
A4
330
17
100
AcDbEntity
  8
COTA
 62
4
370
25
100
AcDbLine
 10
3629.521037142178
 20
6649.635319943772
 30
0.0
 11
3629.521037142178
 21
6589.556883276862
 31
0.0
  0
LINE
  5
A5
330
17
100
AcDbEntity
  8
COTA
 62
4
370
25
100
AcDbLine
 10
4314.021037142178
 20
6592.556883276862
 30
0.0
 11
3629.521037142178
 21
6592.556883276862
 31
0.0
  0
LINE
  5
A6
330
17
100
AcDbEntity
  8
COTA
 62
0
370
25
100
AcDbLine
 10
4312.521037142178
 20
6591.056883276862
 30
0.0
 11
4315.521037142178
 21
6594.056883276862
 31
0.0
  0
LINE
  5
A7
330
17
100
AcDbEntity
  8
COTA
 62
0
370
25
100
AcDbLine
 10
3631.021037142178
 20
6594.056883276862
 30
0.0
 11
3628.021037142178
 21
6591.056883276862
 31
0.0
  0
LINE
  5
A8
330
17
100
AcDbEntity
  8
COTA
 62
4
370
25
100
AcDbLine
 10
4117.521037142178
 20
6649.635319943772
 30
0.0
 11
4117.521037142178
 21
6623.095393965617
 31
0.0
  0
LINE
  5
A9
330
17
100
AcDbEntity
  8
COTA
 62
4
370
25
100
AcDbLine
 10
3873.521037142178
 20
6649.635319943802
 30
0.0
 11
3873.521037142178
 21
6623.095393965617
 31
0.0
  0
LINE
  5
AA
330
17
100
AcDbEntity
  8
COTA
 62
4
370
25
100
AcDbLine
 10
4117.521037142178
 20
6626.095393965617
 30
0.0
 11
3873.521037142178
 21
6626.095393965617
 31
0.0
  0
LINE
  5
AB
330
17
100
AcDbEntity
  8
COTA
 62
0
370
25
100
AcDbLine
 10
4116.021037142178
 20
6624.595393965617
 30
0.0
 11
4119.021037142178
 21
6627.595393965617
 31
0.0
  0
LINE
  5
AC
330
17
100
AcDbEntity
  8
COTA
 62
0
370
25
100
AcDbLine
 10
3875.021037142178
 20
6627.595393965617
 30
0.0
 11
3872.021037142178
 21
6624.595393965617
 31
0.0
  0
LINE
  5
AD
330
17
100
AcDbEntity
  8
COTA
 62
4
370
25
100
AcDbLine
 10
3873.521037142178
 20
6649.635319943802
 30
0.0
 11
3873.521037142178
 21
6623.095393965624
 31
0.0
  0
LINE
  5
AE
330
17
100
AcDbEntity
  8
COTA
 62
4
370
25
100
AcDbLine
 10
3629.521037142178
 20
6649.635319943772
 30
0.0
 11
3629.521037142178
 21
6623.095393965624
 31
0.0
  0
LINE
  5
AF
330
17
100
AcDbEntity
  8
COTA
 62
4
370
25
100
AcDbLine
 10
3873.521037142178
 20
6626.095393965624
 30
0.0
 11
3629.521037142178
 21
6626.095393965624
 31
0.0
  0
LINE
  5
B0
330
17
100
AcDbEntity
  8
COTA
 62
0
370
25
100
AcDbLine
 10
3872.021037142178
 20
6624.595393965624
 30
0.0
 11
3875.021037142178
 21
6627.595393965624
 31
0.0
  0
LINE
  5
B1
330
17
100
AcDbEntity
  8
COTA
 62
0
370
25
100
AcDbLine
 10
3631.021037142178
 20
6627.595393965624
 30
0.0
 11
3628.021037142178
 21
6624.595393965624
 31
0.0
  0
LINE
  5
B2
330
17
100
AcDbEntity
  8
COTA
 62
4
370
25
100
AcDbLine
 10
4317.02103714218
 20
6652.635319943776
 30
0.0
 11
4344.378403722885
 21
6652.635319943776
 31
0.0
  0
LINE
  5
B3
330
17
100
AcDbEntity
  8
COTA
 62
4
370
25
100
AcDbLine
 10
4317.02103714218
 20
6716.635319943776
 30
0.0
 11
4344.378403722885
 21
6716.635319943776
 31
0.0
  0
LINE
  5
B4
330
17
100
AcDbEntity
  8
COTA
 62
4
370
25
100
AcDbLine
 10
4341.378403722885
 20
6652.635319943776
 30
0.0
 11
4341.378403722885
 21
6716.635319943776
 31
0.0
  0
LINE
  5
B5
330
17
100
AcDbEntity
  8
COTA
 62
0
370
25
100
AcDbLine
 10
4339.878403722885
 20
6654.135319943776
 30
0.0
 11
4342.878403722885
 21
6651.135319943776
 31
0.0
  0
LINE
  5
B6
330
17
100
AcDbEntity
  8
COTA
 62
0
370
25
100
AcDbLine
 10
4342.878403722885
 20
6715.135319943776
 30
0.0
 11
4339.878403722885
 21
6718.135319943776
 31
0.0
  0
LINE
  5
B7
330
17
100
AcDbEntity
  8
COTA
 62
4
370
25
100
AcDbLine
 10
3631.534945638443
 20
6436.53823266774
 30
0.0
 11
3631.534945638443
 21
6409.998306689541
 31
0.0
  0
LINE
  5
B8
330
17
100
AcDbEntity
  8
COTA
 62
4
370
25
100
AcDbLine
 10
3777.534945638443
 20
6436.538232667685
 30
0.0
 11
3777.534945638443
 21
6409.998306689541
 31
0.0
  0
LINE
  5
B9
330
17
100
AcDbEntity
  8
COTA
 62
4
370
25
100
AcDbLine
 10
3631.534945638443
 20
6412.998306689541
 30
0.0
 11
3777.534945638443
 21
6412.998306689541
 31
0.0
  0
LINE
  5
BA
330
17
100
AcDbEntity
  8
COTA
 62
0
370
25
100
AcDbLine
 10
3633.034945638443
 20
6414.498306689541
 30
0.0
 11
3630.034945638443
 21
6411.498306689541
 31
0.0
  0
LINE
  5
BB
330
17
100
AcDbEntity
  8
COTA
 62
0
370
25
100
AcDbLine
 10
3776.034945638443
 20
6411.498306689541
 30
0.0
 11
3779.034945638443
 21
6414.498306689541
 31
0.0
  0
LINE
  5
BC
330
17
100
AcDbEntity
  8
COTA
 62
4
370
25
100
AcDbLine
 10
4201.534945638442
 20
6436.538232667682
 30
0.0
 11
4201.534945638442
 21
6409.998306689527
 31
0.0
  0
LINE
  5
BD
330
17
100
AcDbEntity
  8
COTA
 62
4
370
25
100
AcDbLine
 10
4349.534945638443
 20
6436.538232667674
 30
0.0
 11
4349.534945638443
 21
6409.998306689527
 31
0.0
  0
LINE
  5
BE
330
17
100
AcDbEntity
  8
COTA
 62
4
370
25
100
AcDbLine
 10
4201.534945638442
 20
6412.998306689527
 30
0.0
 11
4349.534945638443
 21
6412.998306689527
 31
0.0
  0
LINE
  5
BF
330
17
100
AcDbEntity
  8
COTA
 62
0
370
25
100
AcDbLine
 10
4203.034945638442
 20
6414.498306689527
 30
0.0
 11
4200.034945638442
 21
6411.498306689527
 31
0.0
  0
LINE
  5
C0
330
17
100
AcDbEntity
  8
COTA
 62
0
370
25
100
AcDbLine
 10
4348.034945638443
 20
6411.498306689527
 30
0.0
 11
4351.034945638443
 21
6414.498306689527
 31
0.0
  0
LINE
  5
C1
330
17
100
AcDbEntity
  8
COTA
 62
4
370
25
100
AcDbLine
 10
4352.534945638445
 20
6439.538232667712
 30
0.0
 11
4372.533152582722
 21
6439.538232667712
 31
0.0
  0
LINE
  5
C2
330
17
100
AcDbEntity
  8
COTA
 62
4
370
25
100
AcDbLine
 10
4341.534945638438
 20
6489.538232667709
 30
0.0
 11
4372.533152582722
 21
6489.538232667709
 31
0.0
  0
LINE
  5
C3
330
17
100
AcDbEntity
  8
COTA
 62
4
370
25
100
AcDbLine
 10
4369.533152582722
 20
6439.538232667712
 30
0.0
 11
4369.533152582722
 21
6489.538232667709
 31
0.0
  0
LINE
  5
C4
330
17
100
AcDbEntity
  8
COTA
 62
0
370
25
100
AcDbLine
 10
4368.033152582722
 20
6441.038232667712
 30
0.0
 11
4371.033152582722
 21
6438.038232667712
 31
0.0
  0
LINE
  5
C5
330
17
100
AcDbEntity
  8
COTA
 62
0
370
25
100
AcDbLine
 10
4371.033152582722
 20
6488.038232667709
 30
0.0
 11
4368.033152582722
 21
6491.038232667709
 31
0.0
  0
LINE
  5
C6
330
17
100
AcDbEntity
  8
COTA
 62
4
370
25
100
AcDbLine
 10
4341.534945638438
 20
6489.538232667709
 30
0.0
 11
4372.533152582721
 21
6489.538232667709
 31
0.0
  0
LINE
  5
C7
330
17
100
AcDbEntity
  8
COTA
 62
4
370
25
100
AcDbLine
 10
4352.534945638438
 20
6503.538232667686
 30
0.0
 11
4372.533152582721
 21
6503.538232667686
 31
0.0
  0
LINE
  5
C8
330
17
100
AcDbEntity
  8
COTA
 62
4
370
25
100
AcDbLine
 10
4369.533152582721
 20
6489.538232667709
 30
0.0
 11
4369.533152582721
 21
6503.538232667686
 31
0.0
  0
LINE
  5
C9
330
17
100
AcDbEntity
  8
COTA
 62
4
370
25
100
AcDbLine
 10
4369.533152582721
 20
6503.538232667686
 30
0.0
 11
4369.533152582721
 21
6522.655191732013
 31
0.0
  0
LINE
  5
CA
330
17
100
AcDbEntity
  8
COTA
 62
0
370
25
100
AcDbLine
 10
4368.033152582721
 20
6491.038232667709
 30
0.0
 11
4371.033152582721
 21
6488.038232667709
 31
0.0
  0
LINE
  5
CB
330
17
100
AcDbEntity
  8
COTA
 62
0
370
25
100
AcDbLine
 10
4371.033152582721
 20
6502.038232667686
 30
0.0
 11
4368.033152582721
 21
6505.038232667686
 31
0.0
  0
LINE
  5
CC
330
17
100
AcDbEntity
  8
COTA
 62
4
370
25
100
AcDbLine
 10
4352.534945638438
 20
6503.538232667686
 30
0.0
 11
4392.672361201454
 21
6503.538232667686
 31
0.0
  0
LINE
  5
CD
330
17
100
AcDbEntity
  8
COTA
 62
4
370
25
100
AcDbLine
 10
4352.534945638445
 20
6439.538232667712
 30
0.0
 11
4392.672361201454
 21
6439.538232667712
 31
0.0
  0
LINE
  5
CE
330
17
100
AcDbEntity
  8
COTA
 62
4
370
25
100
AcDbLine
 10
4389.672361201454
 20
6503.538232667686
 30
0.0
 11
4389.672361201454
 21
6439.538232667712
 31
0.0
  0
LINE
  5
CF
330
17
100
AcDbEntity
  8
COTA
 62
0
370
25
100
AcDbLine
 10
4391.172361201454
 20
6502.038232667686
 30
0.0
 11
4388.172361201454
 21
6505.038232667686
 31
0.0
  0
LINE
  5
D0
330
17
100
AcDbEntity
  8
COTA
 62
0
370
25
100
AcDbLine
 10
4388.172361201454
 20
6441.038232667712
 30
0.0
 11
4391.172361201454
 21
6438.038232667712
 31
0.0
  0
LINE
  5
D1
330
17
100
AcDbEntity
  8
COTA
 62
4
370
25
100
AcDbLine
 10
4307.021037142177
 20
6649.635319943772
 30
0.0
 11
4307.021037142177
 21
6635.731875187878
 31
0.0
  0
LINE
  5
D2
330
17
100
AcDbEntity
  8
COTA
 62
4
370
25
100
AcDbLine
 10
4314.021037142178
 20
6649.635319943772
 30
0.0
 11
4314.021037142178
 21
6635.731875187878
 31
0.0
  0
LINE
  5
D3
330
17
100
AcDbEntity
  8
COTA
 62
4
370
25
100
AcDbLine
 10
4307.021037142177
 20
6638.731875187878
 30
0.0
 11
4314.021037142178
 21
6638.731875187878
 31
0.0
  0
LINE
  5
D4
330
17
100
AcDbEntity
  8
COTA
 62
4
370
25
100
AcDbLine
 10
4314.021037142178
 20
6638.731875187878
 30
0.0
 11
4328.752031294225
 21
6638.731875187878
 31
0.0
  0
LINE
  5
D5
330
17
100
AcDbEntity
  8
COTA
 62
0
370
25
100
AcDbLine
 10
4308.521037142177
 20
6640.231875187878
 30
0.0
 11
4305.521037142177
 21
6637.231875187878
 31
0.0
  0
LINE
  5
D6
330
17
100
AcDbEntity
  8
COTA
 62
0
370
25
100
AcDbLine
 10
4312.521037142178
 20
6637.231875187878
 30
0.0
 11
4315.521037142178
 21
6640.231875187878
 31
0.0
  0
LINE
  5
D7
330
17
100
AcDbEntity
  8
COTA
 62
4
370
25
100
AcDbLine
 10
3777.534945638443
 20
6436.538232667711
 30
0.0
 11
3777.534945638443
 21
6409.998306689555
 31
0.0
  0
LINE
  5
D8
330
17
100
AcDbEntity
  8
COTA
 62
4
370
25
100
AcDbLine
 10
4021.534945638443
 20
6436.538232667739
 30
0.0
 11
4021.534945638443
 21
6409.998306689555
 31
0.0
  0
LINE
  5
D9
330
17
100
AcDbEntity
  8
COTA
 62
4
370
25
100
AcDbLine
 10
3777.534945638443
 20
6412.998306689555
 30
0.0
 11
4021.534945638443
 21
6412.998306689555
 31
0.0
  0
LINE
  5
DA
330
17
100
AcDbEntity
  8
COTA
 62
0
370
25
100
AcDbLine
 10
3779.034945638443
 20
6414.498306689555
 30
0.0
 11
3776.034945638443
 21
6411.498306689555
 31
0.0
  0
LINE
  5
DB
330
17
100
AcDbEntity
  8
COTA
 62
0
370
25
100
AcDbLine
 10
4020.034945638443
 20
6411.498306689555
 30
0.0
 11
4023.034945638443
 21
6414.498306689555
 31
0.0
  0
LINE
  5
DC
330
17
100
AcDbEntity
  8
COTA
 62
4
370
25
100
AcDbLine
 10
4021.534945638443
 20
6436.538232667739
 30
0.0
 11
4021.534945638443
 21
6409.998306689566
 31
0.0
  0
LINE
  5
DD
330
17
100
AcDbEntity
  8
COTA
 62
4
370
25
100
AcDbLine
 10
4201.534945638442
 20
6436.538232667735
 30
0.0
 11
4201.534945638442
 21
6409.998306689566
 31
0.0
  0
LINE
  5
DE
330
17
100
AcDbEntity
  8
COTA
 62
4
370
25
100
AcDbLine
 10
4021.534945638443
 20
6412.998306689566
 30
0.0
 11
4201.534945638442
 21
6412.998306689566
 31
0.0
  0
LINE
  5
DF
330
17
100
AcDbEntity
  8
COTA
 62
0
370
25
100
AcDbLine
 10
4023.034945638443
 20
6414.498306689566
 30
0.0
 11
4020.034945638443
 21
6411.498306689566
 31
0.0
  0
LINE
  5
E0
330
17
100
AcDbEntity
  8
COTA
 62
0
370
25
100
AcDbLine
 10
4200.034945638442
 20
6411.498306689566
 30
0.0
 11
4203.034945638442
 21
6414.498306689566
 31
0.0
  0
LINE
  5
E1
330
17
100
AcDbEntity
  8
COTA
 62
4
370
25
100
AcDbLine
 10
3631.534945638443
 20
6436.53823266774
 30
0.0
 11
3631.534945638443
 21
6381.459796000832
 31
0.0
  0
LINE
  5
E2
330
17
100
AcDbEntity
  8
COTA
 62
4
370
25
100
AcDbLine
 10
4349.534945638443
 20
6436.538232667746
 30
0.0
 11
4349.534945638443
 21
6381.459796000832
 31
0.0
  0
LINE
  5
E3
330
17
100
AcDbEntity
  8
COTA
 62
4
370
25
100
AcDbLine
 10
3631.534945638443
 20
6384.459796000832
 30
0.0
 11
4349.534945638443
 21
6384.459796000832
 31
0.0
  0
LINE
  5
E4
330
17
100
AcDbEntity
  8
COTA
 62
0
370
25
100
AcDbLine
 10
3633.034945638443
 20
6385.959796000832
 30
0.0
 11
3630.034945638443
 21
6382.959796000832
 31
0.0
  0
LINE
  5
E5
330
17
100
AcDbEntity
  8
COTA
 62
0
370
25
100
AcDbLine
 10
4348.034945638443
 20
6382.959796000832
 30
0.0
 11
4351.034945638443
 21
6385.959796000832
 31
0.0
  0
LINE
  5
E6
330
17
100
AcDbEntity
  8
COTA
 62
4
370
25
100
AcDbLine
 10
3628.534945638445
 20
6439.538232667731
 30
0.0
 11
3615.492562663696
 21
6439.538232667731
 31
0.0
  0
LINE
  5
E7
330
17
100
AcDbEntity
  8
COTA
 62
4
370
25
100
AcDbLine
 10
3628.534945638453
 20
6503.538232667731
 30
0.0
 11
3615.492562663696
 21
6503.538232667731
 31
0.0
  0
LINE
  5
E8
330
17
100
AcDbEntity
  8
COTA
 62
4
370
25
100
AcDbLine
 10
3618.492562663696
 20
6439.538232667731
 30
0.0
 11
3618.492562663696
 21
6503.538232667731
 31
0.0
  0
LINE
  5
E9
330
17
100
AcDbEntity
  8
COTA
 62
0
370
25
100
AcDbLine
 10
3616.992562663696
 20
6441.038232667731
 30
0.0
 11
3619.992562663696
 21
6438.038232667731
 31
0.0
  0
LINE
  5
EA
330
17
100
AcDbEntity
  8
COTA
 62
0
370
25
100
AcDbLine
 10
3619.992562663696
 20
6502.038232667731
 30
0.0
 11
3616.992562663696
 21
6505.038232667731
 31
0.0
  0
LINE
  5
EB
330
17
100
AcDbEntity
  8
COTA
 62
4
370
25
100
AcDbLine
 10
3752.534945638452
 20
6503.538232667715
 30
0.0
 11
3737.733541305656
 21
6503.538232667715
 31
0.0
  0
LINE
  5
EC
330
17
100
AcDbEntity
  8
COTA
 62
4
370
25
100
AcDbLine
 10
3752.534945638452
 20
6449.538232667716
 30
0.0
 11
3737.733541305656
 21
6449.538232667716
 31
0.0
  0
LINE
  5
ED
330
17
100
AcDbEntity
  8
COTA
 62
4
370
25
100
AcDbLine
 10
3740.733541305655
 20
6503.538232667715
 30
0.0
 11
3740.733541305655
 21
6449.538232667716
 31
0.0
  0
LINE
  5
EE
330
17
100
AcDbEntity
  8
COTA
 62
0
370
25
100
AcDbLine
 10
3742.233541305655
 20
6502.038232667715
 30
0.0
 11
3739.233541305655
 21
6505.038232667715
 31
0.0
  0
LINE
  5
EF
330
17
100
AcDbEntity
  8
COTA
 62
0
370
25
100
AcDbLine
 10
3739.233541305655
 20
6451.038232667716
 30
0.0
 11
3742.233541305655
 21
6448.038232667716
 31
0.0
  0
LINE
  5
F0
330
17
100
AcDbEntity
  8
COTA
 62
4
370
25
100
AcDbLine
 10
3755.534945638451
 20
6506.538232667712
 30
0.0
 11
3755.534945638451
 21
6516.57104163323
 31
0.0
  0
LINE
  5
F1
330
17
100
AcDbEntity
  8
COTA
 62
4
370
25
100
AcDbLine
 10
3777.534945638436
 20
6506.538232667709
 30
0.0
 11
3777.534945638436
 21
6516.57104163323
 31
0.0
  0
LINE
  5
F2
330
17
100
AcDbEntity
  8
COTA
 62
4
370
25
100
AcDbLine
 10
3755.534945638451
 20
6513.57104163323
 30
0.0
 11
3777.534945638436
 21
6513.57104163323
 31
0.0
  0
LINE
  5
F3
330
17
100
AcDbEntity
  8
COTA
 62
0
370
25
100
AcDbLine
 10
3757.034945638451
 20
6515.07104163323
 30
0.0
 11
3754.034945638451
 21
6512.07104163323
 31
0.0
  0
LINE
  5
F4
330
17
100
AcDbEntity
  8
COTA
 62
0
370
25
100
AcDbLine
 10
3776.034945638436
 20
6512.07104163323
 30
0.0
 11
3779.034945638436
 21
6515.07104163323
 31
0.0
  0
LINE
  5
F5
330
17
100
AcDbEntity
  8
COTA
 62
4
370
25
100
AcDbLine
 10
4225.534945638437
 20
6489.538232667692
 30
0.0
 11
4217.359607586815
 21
6489.538232667692
 31
0.0
  0
LINE
  5
F6
330
17
100
AcDbEntity
  8
COTA
 62
4
370
25
100
AcDbLine
 10
4225.534945638445
 20
6449.538232667686
 30
0.0
 11
4217.359607586815
 21
6449.538232667686
 31
0.0
  0
LINE
  5
F7
330
17
100
AcDbEntity
  8
COTA
 62
4
370
25
100
AcDbLine
 10
4220.359607586815
 20
6489.538232667692
 30
0.0
 11
4220.359607586815
 21
6449.538232667686
 31
0.0
  0
LINE
  5
F8
330
17
100
AcDbEntity
  8
COTA
 62
0
370
25
100
AcDbLine
 10
4221.859607586815
 20
6488.038232667692
 30
0.0
 11
4218.859607586815
 21
6491.038232667692
 31
0.0
  0
LINE
  5
F9
330
17
100
AcDbEntity
  8
COTA
 62
0
370
25
100
AcDbLine
 10
4218.859607586815
 20
6451.038232667686
 30
0.0
 11
4221.859607586815
 21
6448.038232667686
 31
0.0
  0
LINE
  5
FA
330
17
100
AcDbEntity
  8
COTA
 62
4
370
25
100
AcDbLine
 10
4228.534945638435
 20
6492.538232667688
 30
0.0
 11
4228.534945638435
 21
6512.316097915675
 31
0.0
  0
LINE
  5
FB
330
17
100
AcDbEntity
  8
COTA
 62
4
370
25
100
AcDbLine
 10
4201.534945638442
 20
6506.538232667735
 30
0.0
 11
4201.534945638442
 21
6512.316097915675
 31
0.0
  0
LINE
  5
FC
330
17
100
AcDbEntity
  8
COTA
 62
4
370
25
100
AcDbLine
 10
4228.534945638435
 20
6509.316097915675
 30
0.0
 11
4201.534945638442
 21
6509.316097915675
 31
0.0
  0
LINE
  5
FD
330
17
100
AcDbEntity
  8
COTA
 62
0
370
25
100
AcDbLine
 10
4227.034945638435
 20
6507.816097915675
 30
0.0
 11
4230.034945638435
 21
6510.816097915675
 31
0.0
  0
LINE
  5
FE
330
17
100
AcDbEntity
  8
COTA
 62
0
370
25
100
AcDbLine
 10
4203.034945638442
 20
6510.816097915675
 30
0.0
 11
4200.034945638442
 21
6507.816097915675
 31
0.0
  0
LINE
  5
FF
330
17
100
AcDbEntity
  8
COTA
 62
4
370
25
100
AcDbLine
 10
3683.534945638443
 20
6471.038232667726
 30
0.0
 11
3683.534945638443
 21
6468.538232667727
 31
0.0
  0
LINE
  5
100
330
17
100
AcDbEntity
  8
COTA
 62
4
370
25
100
AcDbLine
 10
3631.534945638447
 20
6471.538232667727
 30
0.0
 11
3683.534945638443
 21
6471.538232667727
 31
0.0
  0
LINE
  5
101
330
17
100
AcDbEntity
  8
COTA
 62
0
370
25
100
AcDbLine
 10
3633.034945638447
 20
6473.038232667727
 30
0.0
 11
3630.034945638447
 21
6470.038232667727
 31
0.0
  0
LINE
  5
102
330
17
100
AcDbEntity
  8
COTA
 62
0
370
25
100
AcDbLine
 10
3682.034945638443
 20
6470.038232667727
 30
0.0
 11
3685.034945638443
 21
6473.038232667727
 31
0.0
  0
LINE
  5
103
330
17
100
AcDbEntity
  8
COTA
 62
4
370
25
100
AcDbLine
 10
4021.534945638443
 20
6474.038232667725
 30
0.0
 11
4033.534945638442
 21
6474.038232667725
 31
0.0
  0
LINE
  5
104
330
17
100
AcDbEntity
  8
COTA
 62
0
370
25
100
AcDbLine
 10
4023.034945638443
 20
6475.538232667725
 30
0.0
 11
4020.034945638443
 21
6472.538232667725
 31
0.0
  0
LINE
  5
105
330
17
100
AcDbEntity
  8
COTA
 62
0
370
25
100
AcDbLine
 10
4032.034945638442
 20
6472.538232667725
 30
0.0
 11
4035.034945638442
 21
6475.538232667725
 31
0.0
  0
LINE
  5
106
330
17
100
AcDbEntity
  8
COTA
 62
4
370
25
100
AcDbLine
 10
4021.534945638443
 20
6474.038232667729
 30
0.0
 11
3943.534945638443
 21
6474.038232667729
 31
0.0
  0
LINE
  5
107
330
17
100
AcDbEntity
  8
COTA
 62
0
370
25
100
AcDbLine
 10
4020.034945638443
 20
6472.538232667729
 30
0.0
 11
4023.034945638443
 21
6475.538232667729
 31
0.0
  0
LINE
  5
108
330
17
100
AcDbEntity
  8
COTA
 62
0
370
25
100
AcDbLine
 10
3945.034945638443
 20
6475.538232667729
 30
0.0
 11
3942.034945638443
 21
6472.538232667729
 31
0.0
  0
LINE
  5
109
330
17
100
AcDbEntity
  8
COTA
 62
4
370
25
100
AcDbLine
 10
4253.534945638443
 20
6462.6755983401
 30
0.0
 11
4253.534945638443
 21
6463.890657790471
 31
0.0
  0
LINE
  5
10A
330
17
100
AcDbEntity
  8
COTA
 62
4
370
25
100
AcDbLine
 10
4338.534945638435
 20
6460.890657790471
 30
0.0
 11
4253.534945638443
 21
6460.890657790471
 31
0.0
  0
LINE
  5
10B
330
17
100
AcDbEntity
  8
COTA
 62
0
370
25
100
AcDbLine
 10
4337.034945638435
 20
6459.390657790471
 30
0.0
 11
4340.034945638435
 21
6462.390657790471
 31
0.0
  0
LINE
  5
10C
330
17
100
AcDbEntity
  8
COTA
 62
0
370
25
100
AcDbLine
 10
4255.034945638443
 20
6462.390657790471
 30
0.0
 11
4252.034945638443
 21
6459.390657790471
 31
0.0
  0
LINE
  5
10D
330
17
100
AcDbEntity
  8
COTA
 62
4
370
25
100
AcDbLine
 10
4029.907468427949
 20
6819.00622176626
 30
0.0
 11
3955.530745338704
 21
6819.00622176626
 31
0.0
  0
LINE
  5
10E
330
17
100
AcDbEntity
  8
COTA
 62
4
370
25
100
AcDbLine
 10
4059.507468427915
 20
6947.006221766253
 30
0.0
 11
3955.530745338704
 21
6947.006221766253
 31
0.0
  0
LINE
  5
10F
330
17
100
AcDbEntity
  8
COTA
 62
4
370
25
100
AcDbLine
 10
3958.530745338704
 20
6819.00622176626
 30
0.0
 11
3958.530745338704
 21
6947.006221766253
 31
0.0
  0
LINE
  5
110
330
17
100
AcDbEntity
  8
COTA
 62
4
370
25
100
AcDbLine
 10
4141.107468427931
 20
6819.00622176626
 30
0.0
 11
4184.379201186207
 21
6819.00622176626
 31
0.0
  0
LINE
  5
111
330
17
100
AcDbEntity
  8
COTA
 62
4
370
25
100
AcDbLine
 10
4125.507468427938
 20
6947.006221766258
 30
0.0
 11
4184.379201186207
 21
6947.006221766258
 31
0.0
  0
LINE
  5
112
330
17
100
AcDbEntity
  8
COTA
 62
4
370
25
100
AcDbLine
 10
4181.379201186207
 20
6819.00622176626
 30
0.0
 11
4181.379201186207
 21
6947.006221766258
 31
0.0
  0
LINE
  5
113
330
17
100
AcDbEntity
  8
Cota Seção (2x)
 62
180
370
25
100
AcDbLine
 10
4100.007468429582
 20
6897.506221766223
 30
0.0
 11
4100.007468429582
 21
6916.506221766223
 31
0.0
  0
LINE
  5
114
330
17
100
AcDbEntity
  8
Cota Seção (2x)
 62
180
370
25
100
AcDbLine
 10
4100.007468429582
 20
6916.506221766223
 30
0.0
 11
4085.007468429583
 21
6916.506221766223
 31
0.0
  0
LINE
  5
115
330
17
100
AcDbEntity
  8
Cota Seção (2x)
 62
180
370
25
100
AcDbLine
 10
4085.007468429583
 20
6916.506221766223
 30
0.0
 11
4085.007468429583
 21
6897.506221766223
 31
0.0
  0
LINE
  5
116
330
17
100
AcDbEntity
  8
Cota Seção (2x)
 62
180
370
25
100
AcDbLine
 10
4085.007468429583
 20
6897.506221766223
 30
0.0
 11
4100.007468429582
 21
6897.506221766223
 31
0.0
  0
LINE
  5
117
330
17
100
AcDbEntity
  8
COTA
 62
4
370
25
100
AcDbLine
 10
4066.507468427924
 20
6816.006221766248
 30
0.0
 11
4066.507468427924
 21
6771.279407964065
 31
0.0
  0
LINE
  5
118
330
17
100
AcDbEntity
  8
COTA
 62
4
370
25
100
AcDbLine
 10
4104.507468427924
 20
6816.006221766248
 30
0.0
 11
4104.507468427924
 21
6771.279407964065
 31
0.0
  0
LINE
  5
119
330
17
100
AcDbEntity
  8
COTA
 62
4
370
25
100
AcDbLine
 10
4066.507468427924
 20
6774.279407964066
 30
0.0
 11
4104.507468427924
 21
6774.279407964066
 31
0.0
  0
LINE
  5
11A
330
17
100
AcDbEntity
  8
COTA
 62
4
370
25
100
AcDbLine
 10
4010.204174249799
 20
6868.976279294551
 30
0.0
 11
3991.649560980461
 21
6868.976279294551
 31
0.0
  0
LINE
  5
11B
330
17
100
AcDbEntity
  8
COTA
 62
4
370
25
100
AcDbLine
 10
4010.204174249799
 20
6819.006221766288
 30
0.0
 11
3991.649560980461
 21
6819.006221766288
 31
0.0
  0
LINE
  5
11C
330
17
100
AcDbEntity
  8
COTA
 62
4
370
25
100
AcDbLine
 10
3994.649560980461
 20
6868.976279294551
 30
0.0
 11
3994.649560980461
 21
6819.006221766288
 31
0.0
  0
LINE
  5
11D
330
17
100
AcDbEntity
  8
Cota Seção (2x)
 62
180
370
25
100
AcDbLine
 10
4066.507468427896
 20
6839.006221766256
 30
0.0
 11
4084.507468427895
 21
6839.006221766256
 31
0.0
  0
LINE
  5
11E
330
17
100
AcDbEntity
  8
Cota Seção (2x)
 62
180
370
25
100
AcDbLine
 10
4084.507468427895
 20
6839.006221766256
 30
0.0
 11
4084.507468427895
 21
6854.006221766256
 31
0.0
  0
LINE
  5
11F
330
17
100
AcDbEntity
  8
Cota Seção (2x)
 62
180
370
25
100
AcDbLine
 10
4084.507468427895
 20
6854.006221766256
 30
0.0
 11
4066.507468427896
 21
6854.006221766256
 31
0.0
  0
LINE
  5
120
330
17
100
AcDbEntity
  8
Cota Seção (2x)
 62
180
370
25
100
AcDbLine
 10
4066.507468427896
 20
6854.006221766256
 30
0.0
 11
4066.507468427896
 21
6839.006221766256
 31
0.0
  0
LINE
  5
121
330
17
100
AcDbEntity
  8
Painéis
 62
4
370
25
100
AcDbLine
 10
4314.021037142178
 20
6684.850379394264
 30
0.0
 11
4228.021037142177
 21
6684.850379394264
 31
0.0
  0
LINE
  5
122
330
17
100
AcDbEntity
  8
Painéis
 62
0
370
25
100
AcDbLine
 10
4312.521037142178
 20
6683.350379394264
 30
0.0
 11
4315.521037142178
 21
6686.350379394264
 31
0.0
  0
LINE
  5
123
330
17
100
AcDbEntity
  8
Painéis
 62
0
370
25
100
AcDbLine
 10
4229.521037142177
 20
6686.350379394264
 30
0.0
 11
4226.521037142177
 21
6683.350379394264
 31
0.0
  0
LINE
  5
124
330
17
100
AcDbEntity
  8
Painéis
 62
4
370
25
100
AcDbLine
 10
3873.521037142178
 20
6684.850379394233
 30
0.0
 11
3967.021037142178
 21
6684.850379394233
 31
0.0
  0
LINE
  5
125
330
17
100
AcDbEntity
  8
Painéis
 62
0
370
25
100
AcDbLine
 10
3875.021037142178
 20
6686.350379394233
 30
0.0
 11
3872.021037142178
 21
6683.350379394233
 31
0.0
  0
LINE
  5
126
330
17
100
AcDbEntity
  8
Painéis
 62
0
370
25
100
AcDbLine
 10
3965.521037142178
 20
6683.350379394233
 30
0.0
 11
3968.521037142178
 21
6686.350379394233
 31
0.0
  0
LINE
  5
127
330
17
100
AcDbEntity
  8
Painéis
 62
4
370
25
100
AcDbLine
 10
3629.521037142178
 20
6681.85037939429
 30
0.0
 11
3629.521037142178
 21
6669.09039066354
 31
0.0
  0
LINE
  5
128
330
17
100
AcDbEntity
  8
Painéis
 62
4
370
25
100
AcDbLine
 10
3654.021037142177
 20
6681.85037939429
 30
0.0
 11
3654.021037142177
 21
6669.09039066354
 31
0.0
  0
LINE
  5
129
330
17
100
AcDbEntity
  8
Painéis
 62
4
370
25
100
AcDbLine
 10
3629.521037142178
 20
6672.09039066354
 30
0.0
 11
3654.021037142177
 21
6672.09039066354
 31
0.0
  0
LINE
  5
12A
330
17
100
AcDbEntity
  8
Painéis
 62
0
370
25
100
AcDbLine
 10
3631.021037142178
 20
6673.59039066354
 30
0.0
 11
3628.021037142178
 21
6670.59039066354
 31
0.0
  0
LINE
  5
12B
330
17
100
AcDbEntity
  8
Painéis
 62
0
370
25
100
AcDbLine
 10
3652.521037142177
 20
6670.59039066354
 30
0.0
 11
3655.521037142177
 21
6673.59039066354
 31
0.0
  0
LINE
  5
12C
330
17
100
AcDbEntity
  8
COTA
 62
4
370
25
100
AcDbLine
 10
4349.534945638435
 20
6506.538232667683
 30
0.0
 11
4349.534945638435
 21
6522.958691428273
 31
0.0
  0
LINE
  5
12D
330
17
100
AcDbEntity
  8
COTA
 62
4
370
25
100
AcDbLine
 10
4338.534945638435
 20
6506.538232667683
 30
0.0
 11
4338.534945638435
 21
6522.958691428273
 31
0.0
  0
LINE
  5
12E
330
17
100
AcDbEntity
  8
COTA
 62
4
370
25
100
AcDbLine
 10
4349.534945638435
 20
6519.958691428273
 30
0.0
 11
4338.534945638435
 21
6519.958691428273
 31
0.0
  0
LINE
  5
12F
330
17
100
AcDbEntity
  8
COTA
 62
4
370
25
100
AcDbLine
 10
4338.534945638435
 20
6519.958691428273
 30
0.0
 11
4324.44722634019
 21
6519.958691428273
 31
0.0
  0
LINE
  5
130
330
17
100
AcDbEntity
  8
COTA
 62
0
370
25
100
AcDbLine
 10
4348.034945638435
 20
6518.458691428273
 30
0.0
 11
4351.034945638435
 21
6521.458691428273
 31
0.0
  0
LINE
  5
131
330
17
100
AcDbEntity
  8
COTA
 62
0
370
25
100
AcDbLine
 10
4340.034945638435
 20
6521.458691428273
 30
0.0
 11
4337.034945638435
 21
6518.458691428273
 31
0.0
  0
LINE
  5
132
330
17
100
AcDbEntity
  8
COTA
 62
4
370
25
100
AcDbLine
 10
4335.534945638437
 20
6448.538232667686
 30
0.0
 11
4326.855586712836
 21
6448.538232667686
 31
0.0
  0
LINE
  5
133
330
17
100
AcDbEntity
  8
COTA
 62
4
370
25
100
AcDbLine
 10
4335.534945638437
 20
6489.538232667709
 30
0.0
 11
4326.855586712836
 21
6489.538232667709
 31
0.0
  0
LINE
  5
134
330
17
100
AcDbEntity
  8
COTA
 62
4
370
25
100
AcDbLine
 10
4329.855586712836
 20
6448.538232667686
 30
0.0
 11
4329.855586712836
 21
6489.538232667709
 31
0.0
  0
LINE
  5
135
330
17
100
AcDbEntity
  8
COTA
 62
0
370
25
100
AcDbLine
 10
4328.355586712836
 20
6450.038232667686
 30
0.0
 11
4331.355586712836
 21
6447.038232667686
 31
0.0
  0
LINE
  5
136
330
17
100
AcDbEntity
  8
COTA
 62
0
370
25
100
AcDbLine
 10
4331.355586712836
 20
6488.038232667709
 30
0.0
 11
4328.355586712836
 21
6491.038232667709
 31
0.0
  0
LINE
  5
137
330
17
100
AcDbEntity
  8
Texto Seção
 62
252
370
15
100
AcDbLine
 10
4083.507468427924
 20
6947.006221766256
 30
0.0
 11
4083.507468427924
 21
7072.006221766256
 31
0.0
  0
LINE
  5
138
330
17
100
AcDbEntity
  8
presilha
 62
1
370
25
100
AcDbLine
 10
4044.6402692933825
 20
6818.372888432957
 30
0.0
 11
4044.6402692933825
 21
6813.77304843297
 31
0.0
  0
LINE
  5
139
330
17
100
AcDbEntity
  8
presilha
 62
1
370
25
100
AcDbLine
 10
4044.6402692933825
 20
6813.77304843297
 30
0.0
 11
4024.6399047890304
 21
6813.773048432963
 31
0.0
  0
LINE
  5
13A
330
17
100
AcDbEntity
  8
presilha
 62
1
370
25
100
AcDbLine
 10
4023.6399047890304
 20
6821.372888432957
 30
0.0
 11
4024.6399047890304
 21
6821.372888432957
 31
0.0
  0
LINE
  5
13B
330
17
100
AcDbEntity
  8
presilha
 62
1
370
25
100
AcDbLine
 10
4024.6399047890304
 20
6821.372888432957
 30
0.0
 11
4024.6399047890304
 21
6809.372888432957
 31
0.0
  0
LINE
  5
13C
330
17
100
AcDbEntity
  8
presilha
 62
1
370
25
100
AcDbLine
 10
4024.6399047890304
 20
6809.372888432957
 30
0.0
 11
4023.6399047890304
 21
6809.372888432957
 31
0.0
  0
LINE
  5
13D
330
17
100
AcDbEntity
  8
presilha
 62
1
370
25
100
AcDbLine
 10
4023.6399047890304
 20
6809.372888432957
 30
0.0
 11
4023.6399047890304
 21
6821.372888432957
 31
0.0
  0
LINE
  5
13E
330
17
100
AcDbEntity
  8
presilha
 62
1
370
25
100
AcDbLine
 10
4027.6399047890286
 20
6825.039555099623
 30
0.0
 11
4027.6399047890286
 21
6824.039555099623
 31
0.0
  0
LINE
  5
13F
330
17
100
AcDbEntity
  8
presilha
 62
1
370
25
100
AcDbLine
 10
4044.6402692933825
 20
6818.372888432957
 30
0.0
 11
4026.020269293383
 21
6818.372888432957
 31
0.0
  0
LINE
  5
140
330
17
100
AcDbEntity
  8
presilha
 62
1
370
25
100
AcDbLine
 10
4024.6402692933825
 20
6818.132888432956
 30
0.0
 11
4024.6399047890286
 21
6824.279555099626
 31
0.0
  0
LINE
  5
141
330
17
100
AcDbEntity
  8
presilha
 62
1
370
25
100
AcDbLine
 10
4025.640269293382
 20
6818.752888432956
 30
0.0
 11
4025.6399047890286
 21
6823.6595550996235
 31
0.0
  0
LINE
  5
142
330
17
100
AcDbEntity
  8
presilha
 62
1
370
25
100
AcDbLine
 10
4027.6399047890286
 20
6825.039555099623
 30
0.0
 11
4025.399904789009
 21
6825.039555099623
 31
0.0
  0
LINE
  5
143
330
17
100
AcDbEntity
  8
presilha
 62
1
370
25
100
AcDbLine
 10
4027.6399047890286
 20
6824.039555099623
 30
0.0
 11
4026.019904789029
 21
6824.039555099623
 31
0.0
  0
LINE
  5
144
330
17
100
AcDbEntity
  8
presilha
 62
1
370
25
100
AcDbLine
 10
4019.63990478903
 20
6819.706221766292
 30
0.0
 11
4023.63990478903
 21
6819.706221766292
 31
0.0
  0
LINE
  5
145
330
17
100
AcDbEntity
  8
presilha
 62
1
370
25
100
AcDbLine
 10
4023.63990478903
 20
6819.706221766292
 30
0.0
 11
4023.63990478903
 21
6811.039555099625
 31
0.0
  0
LINE
  5
146
330
17
100
AcDbEntity
  8
presilha
 62
1
370
25
100
AcDbLine
 10
4023.63990478903
 20
6811.039555099625
 30
0.0
 11
4019.63990478903
 21
6811.039555099625
 31
0.0
  0
LINE
  5
147
330
17
100
AcDbEntity
  8
presilha
 62
1
370
25
100
AcDbLine
 10
4019.63990478903
 20
6819.706221766292
 30
0.0
 11
4019.63990478903
 21
6811.039555099625
 31
0.0
  0
LINE
  5
148
330
17
100
AcDbEntity
  8
presilha
 62
1
370
25
100
AcDbLine
 10
4126.374667562466
 20
6818.372888432957
 30
0.0
 11
4126.374667562466
 21
6813.77304843297
 31
0.0
  0
LINE
  5
149
330
17
100
AcDbEntity
  8
presilha
 62
1
370
25
100
AcDbLine
 10
4126.374667562466
 20
6813.77304843297
 30
0.0
 11
4146.375032066818
 21
6813.773048432963
 31
0.0
  0
LINE
  5
14A
330
17
100
AcDbEntity
  8
presilha
 62
1
370
25
100
AcDbLine
 10
4147.375032066818
 20
6821.372888432957
 30
0.0
 11
4146.375032066818
 21
6821.372888432957
 31
0.0
  0
LINE
  5
14B
330
17
100
AcDbEntity
  8
presilha
 62
1
370
25
100
AcDbLine
 10
4146.375032066818
 20
6821.372888432957
 30
0.0
 11
4146.375032066818
 21
6809.372888432957
 31
0.0
  0
LINE
  5
14C
330
17
100
AcDbEntity
  8
presilha
 62
1
370
25
100
AcDbLine
 10
4146.375032066818
 20
6809.372888432957
 30
0.0
 11
4147.375032066818
 21
6809.372888432957
 31
0.0
  0
LINE
  5
14D
330
17
100
AcDbEntity
  8
presilha
 62
1
370
25
100
AcDbLine
 10
4147.375032066818
 20
6809.372888432957
 30
0.0
 11
4147.375032066818
 21
6821.372888432957
 31
0.0
  0
LINE
  5
14E
330
17
100
AcDbEntity
  8
presilha
 62
1
370
25
100
AcDbLine
 10
4143.37503206682
 20
6825.039555099623
 30
0.0
 11
4143.37503206682
 21
6824.039555099623
 31
0.0
  0
LINE
  5
14F
330
17
100
AcDbEntity
  8
presilha
 62
1
370
25
100
AcDbLine
 10
4126.374667562466
 20
6818.372888432957
 30
0.0
 11
4144.994667562466
 21
6818.372888432957
 31
0.0
  0
LINE
  5
150
330
17
100
AcDbEntity
  8
presilha
 62
1
370
25
100
AcDbLine
 10
4146.374667562466
 20
6818.132888432956
 30
0.0
 11
4146.37503206682
 21
6824.279555099626
 31
0.0
  0
LINE
  5
151
330
17
100
AcDbEntity
  8
presilha
 62
1
370
25
100
AcDbLine
 10
4145.374667562467
 20
6818.752888432956
 30
0.0
 11
4145.37503206682
 21
6823.6595550996235
 31
0.0
  0
LINE
  5
152
330
17
100
AcDbEntity
  8
presilha
 62
1
370
25
100
AcDbLine
 10
4143.37503206682
 20
6825.039555099623
 30
0.0
 11
4145.615032066839
 21
6825.039555099623
 31
0.0
  0
LINE
  5
153
330
17
100
AcDbEntity
  8
presilha
 62
1
370
25
100
AcDbLine
 10
4143.37503206682
 20
6824.039555099623
 30
0.0
 11
4144.9950320668195
 21
6824.039555099623
 31
0.0
  0
LINE
  5
154
330
17
100
AcDbEntity
  8
presilha
 62
1
370
25
100
AcDbLine
 10
4151.375032066819
 20
6819.706221766292
 30
0.0
 11
4147.375032066819
 21
6819.706221766292
 31
0.0
  0
LINE
  5
155
330
17
100
AcDbEntity
  8
presilha
 62
1
370
25
100
AcDbLine
 10
4147.375032066819
 20
6819.706221766292
 30
0.0
 11
4147.375032066819
 21
6811.039555099625
 31
0.0
  0
LINE
  5
156
330
17
100
AcDbEntity
  8
presilha
 62
1
370
25
100
AcDbLine
 10
4147.375032066819
 20
6811.039555099625
 30
0.0
 11
4151.375032066819
 21
6811.039555099625
 31
0.0
  0
LINE
  5
157
330
17
100
AcDbEntity
  8
presilha
 62
1
370
25
100
AcDbLine
 10
4151.375032066819
 20
6819.706221766292
 30
0.0
 11
4151.375032066819
 21
6811.039555099625
 31
0.0
  0
LWPOLYLINE
  5
158
330
17
100
AcDbEntity
  8
Painéis
 62
200
370
25
100
AcDbPolyline
 90
4
 70
1
 10
4062.507468427924
 20
6915.006221766235
 10
4066.507468427924
 20
6915.006221766235
 10
4066.507468427924
 20
6819.006221766255
 10
4062.507468427924
 20
6819.006221766255
  0
LWPOLYLINE
  5
159
330
17
100
AcDbEntity
  8
Madeira
 62
126
370
18
100
AcDbPolyline
 90
4
 70
1
 10
4028.507468427924
 20
6819.006221766255
 10
4028.507468427924
 20
6823.406221766251
 10
4048.507468427924
 20
6823.406221766251
 10
4048.507468427924
 20
6819.006221766255
  0
LWPOLYLINE
  5
15A
330
17
100
AcDbEntity
  8
Madeira
 62
126
370
18
100
AcDbPolyline
 90
4
 70
1
 10
4104.507468427924
 20
6819.006221766255
 10
4104.507468427924
 20
6823.406221766251
 10
4090.507468427924
 20
6823.406221766251
 10
4090.507468427924
 20
6819.006221766255
  0
LWPOLYLINE
  5
15B
330
17
100
AcDbEntity
  8
Painéis
 62
200
370
25
100
AcDbPolyline
 90
4
 70
1
 10
4104.507468427924
 20
6823.406221766251
 10
4104.507468427924
 20
6827.006221766257
 10
4066.507468427924
 20
6827.006221766257
 10
4066.507468427924
 20
6823.406221766251
  0
LWPOLYLINE
  5
15C
330
17
100
AcDbEntity
  8
Madeira
 62
126
370
18
100
AcDbPolyline
 90
4
 70
1
 10
4066.507468427924
 20
6819.006221766255
 10
4066.507468427924
 20
6823.406221766251
 10
4080.507468427923
 20
6823.406221766251
 10
4080.507468427923
 20
6819.006221766255
  0
LWPOLYLINE
  5
15D
330
17
100
AcDbEntity
  8
Painéis
 62
200
370
25
100
AcDbPolyline
 90
4
 70
1
 10
4108.507468427936
 20
6947.006221766255
 10
4104.507468427936
 20
6947.006221766255
 10
4104.507468427924
 20
6819.006221766255
 10
4108.507468427924
 20
6819.006221766255
  0
LWPOLYLINE
  5
15E
330
17
100
AcDbEntity
  8
Madeira
 62
126
370
18
100
AcDbPolyline
 90
4
 70
1
 10
4108.507468427936
 20
6942.606221766253
 10
4108.507468427936
 20
6947.006221766255
 10
4122.507468427936
 20
6947.006221766255
 10
4122.507468427936
 20
6942.606221766253
  0
LWPOLYLINE
  5
15F
330
17
100
AcDbEntity
  8
Madeira
 62
126
370
18
100
AcDbPolyline
 90
4
 70
1
 10
4142.507468427925
 20
6819.006221766255
 10
4142.507468427925
 20
6823.406221766251
 10
4122.507468427924
 20
6823.406221766251
 10
4122.507468427924
 20
6819.006221766255
  0
LWPOLYLINE
  5
160
330
17
100
AcDbEntity
  8
Madeira
 62
126
370
18
100
AcDbPolyline
 90
4
 70
1
 10
4108.507468427936
 20
6947.006221766255
 10
4122.507468427936
 20
6947.006221766255
 10
4122.507468427924
 20
6819.006221766255
 10
4108.507468427924
 20
6819.006221766255
  0
LWPOLYLINE
  5
161
330
17
100
AcDbEntity
  8
Painéis
 62
200
370
25
100
AcDbPolyline
 90
4
 70
1
 10
4066.507468427924
 20
6915.006221766235
 10
4066.507468427925
 20
6947.00622176626
 10
4062.507468427915
 20
6947.006221766253
 10
4062.507468427914
 20
6915.006221766226
  0
LWPOLYLINE
  5
162
330
17
100
AcDbEntity
  8
CONCRETO
 62
251
370
25
100
AcDbPolyline
 90
8
 70
1
 10
4062.507468427915
 20
6947.006221766253
 10
4062.507468427914
 20
6947.006221766256
 10
4104.507468427933
 20
6947.006221766255
 10
4104.507468427933
 20
6919.00622176624
 10
4104.507468427924
 20
6919.006221766242
 10
4104.507468427866
 20
6827.006221766257
 10
4066.507468427924
 20
6827.006221766257
 10
4066.507468427925
 20
6947.00622176626
  0
LWPOLYLINE
  5
163
330
17
100
AcDbEntity
  8
barrote
 62
251
370
25
100
AcDbPolyline
 90
4
 70
1
 10
3995.05227075603
 20
6799.006221766299
 10
4190.235211265725
 20
6799.006221766299
 10
4190.235211265725
 20
6819.006221766255
 10
3995.05227075603
 20
6819.006221766255
  0
LWPOLYLINE
  5
164
330
17
100
AcDbEntity
  8
SCO-___-LAJ
 62
1
370
0
100
AcDbPolyline
 90
4
 70
1
 10
4004.054538171491
 20
6817.67280843293
 10
4171.360398684352
 20
6817.672808432923
 10
4171.360398684352
 20
6814.473128432947
 10
4004.054538171491
 20
6814.473128432954
  0
LWPOLYLINE
  5
165
330
17
100
AcDbEntity
  8
Madeira
 62
126
370
18
100
AcDbPolyline
 90
4
 70
1
 10
4062.507468427912
 20
6942.606221766253
 10
4062.507468427912
 20
6947.006221766255
 10
4048.507468427913
 20
6947.006221766255
 10
4048.507468427913
 20
6942.606221766253
  0
LWPOLYLINE
  5
166
330
17
100
AcDbEntity
  8
Madeira
 62
126
370
18
100
AcDbPolyline
 90
4
 70
1
 10
4062.507468427912
 20
6947.006221766255
 10
4048.507468427913
 20
6947.006221766255
 10
4048.507468427924
 20
6819.006221766255
 10
4062.507468427924
 20
6819.006221766255
  0
LWPOLYLINE
  5
167
330
17
100
AcDbEntity
  8
COTA
 62
0
370
25
100
AcDbPolyline
 90
2
 70
0
 10
3956.030745338704
 20
6821.50622176626
 10
3961.030745338704
 20
6816.50622176626
  0
LWPOLYLINE
  5
168
330
17
100
AcDbEntity
  8
COTA
 62
0
370
25
100
AcDbPolyline
 90
2
 70
0
 10
3961.030745338704
 20
6944.506221766253
 10
3956.030745338704
 20
6949.506221766253
  0
LWPOLYLINE
  5
169
330
17
100
AcDbEntity
  8
COTA
 62
0
370
25
100
AcDbPolyline
 90
2
 70
0
 10
4178.879201186207
 20
6821.50622176626
 10
4183.879201186207
 20
6816.50622176626
  0
LWPOLYLINE
  5
16A
330
17
100
AcDbEntity
  8
COTA
 62
0
370
25
100
AcDbPolyline
 90
2
 70
0
 10
4183.879201186207
 20
6944.506221766258
 10
4178.879201186207
 20
6949.506221766258
  0
LWPOLYLINE
  5
16B
330
17
100
AcDbEntity
  8
COTA
 62
0
370
25
100
AcDbPolyline
 90
2
 70
0
 10
4069.007468427924
 20
6776.779407964066
 10
4064.007468427924
 20
6771.779407964066
  0
LWPOLYLINE
  5
16C
330
17
100
AcDbEntity
  8
COTA
 62
0
370
25
100
AcDbPolyline
 90
2
 70
0
 10
4102.007468427924
 20
6771.779407964066
 10
4107.007468427924
 20
6776.779407964066
  0
LWPOLYLINE
  5
16D
330
17
100
AcDbEntity
  8
COTA
 62
0
370
25
100
AcDbPolyline
 90
2
 70
0
 10
3997.149560980461
 20
6866.476279294551
 10
3992.149560980461
 20
6871.476279294551
  0
LWPOLYLINE
  5
16E
330
17
100
AcDbEntity
  8
COTA
 62
0
370
25
100
AcDbPolyline
 90
2
 70
0
 10
3992.149560980461
 20
6821.506221766288
 10
3997.149560980461
 20
6816.506221766288
  0
TEXT
  5
16F
330
17
100
AcDbEntity
  8
5
 62
5
370
25
100
AcDbText
 10
4276.411288923249
 20
6574.630797707857
 30
0.0
 40
12.0
  1
P35
 50
3.55024762388e-05
100
AcDbText
  0
TEXT
  5
170
330
17
100
AcDbEntity
  8
Texto Seção
 62
7
370
15
100
AcDbText
 10
3625.119441602736
 20
6515.343778965834
 30
0.0
 40
13.0
  1
V509.B
100
AcDbText
  0
TEXT
  5
171
330
17
100
AcDbEntity
  8
5
 62
5
370
25
100
AcDbText
 10
3644.529403592976
 20
6362.493368491684
 30
0.0
 40
12.0
  1
P35
 50
3.55024762388e-05
100
AcDbText
  0
TEXT
  5
172
330
17
100
AcDbEntity
  8
Texto Seção
 62
7
370
15
100
AcDbText
 10
3624.109811638926
 20
6724.677335478751
 30
0.0
 40
13.0
  1
V509.A
100
AcDbText
  0
TEXT
  5
173
330
17
100
AcDbEntity
  8
5
 62
5
370
25
100
AcDbText
 10
3628.802496604323
 20
6574.63080272411
 30
0.0
 40
12.0
  1
P33
 50
3.55024762388e-05
100
AcDbText
  0
TEXT
  5
174
330
17
100
AcDbEntity
  8
5
 62
5
370
25
100
AcDbText
 10
4318.364870214391
 20
6362.493368491682
 30
0.0
 40
12.0
  1
V523
 50
3.55024762388e-05
100
AcDbText
  0
TEXT
  5
175
330
17
100
AcDbEntity
  8
detalhes
 62
4
370
25
100
AcDbText
 10
4113.221951603962
 20
6837.19589329554
 30
0.0
 40
9.600000000000001
  1
b
100
AcDbText
  0
TEXT
  5
176
330
17
100
AcDbEntity
  8
detalhes
 62
4
370
25
100
AcDbText
 10
4050.678292958226
 20
6837.206950741114
 30
0.0
 40
9.600000000000001
  1
a
100
AcDbText
  0
TEXT
  5
177
330
17
100
AcDbEntity
  8
detalhes
 62
4
370
25
100
AcDbText
 10
4077.107734043369
 20
6829.241975286095
 30
0.0
 40
9.600000000000001
  1
c
100
AcDbText
  0
TEXT
  5
178
330
17
100
AcDbEntity
  8
COTA
 62
240
370
25
100
AcDbText
 10
4215.771037142178
 20
6634.234282854506
 30
0.0
 40
10.0
  1
196.5
100
AcDbText
  0
TEXT
  5
179
330
17
100
AcDbEntity
  8
COTA
 62
240
370
25
100
AcDbText
 10
3971.771037142178
 20
6600.688462224231
 30
0.0
 40
10.0
  1
684.5
100
AcDbText
  0
TEXT
  5
17A
330
17
100
AcDbEntity
  8
COTA
 62
240
370
25
100
AcDbText
 10
3995.521037142179
 20
6634.168493380823
 30
0.0
 40
10.0
  1
244
100
AcDbText
  0
TEXT
  5
17B
330
17
100
AcDbEntity
  8
COTA
 62
240
370
25
100
AcDbText
 10
3751.521037142178
 20
6634.16849338083
 30
0.0
 40
10.0
  1
244
100
AcDbText
  0
TEXT
  5
17C
330
17
100
AcDbEntity
  8
COTA
 62
240
370
25
100
AcDbText
 10
4353.276064541599
 20
6684.635319943774
 30
0.0
 40
10.0
  1
64
 50
90.0
100
AcDbText
  0
TEXT
  5
17D
330
17
100
AcDbEntity
  8
COTA
 62
240
370
25
100
AcDbText
 10
3704.534945638443
 20
6421.100645870827
 30
0.0
 40
10.0
  1
146
100
AcDbText
  0
TEXT
  5
17E
330
17
100
AcDbEntity
  8
COTA
 62
240
370
25
100
AcDbText
 10
4275.534945638443
 20
6421.093335929294
 30
0.0
 40
10.0
  1
148
100
AcDbText
  0
TEXT
  5
17F
330
17
100
AcDbEntity
  8
COTA
 62
240
370
25
100
AcDbText
 10
4381.423503459916
 20
6464.538232667708
 30
0.0
 40
10.0
  1
50
 50
90.0
100
AcDbText
  0
TEXT
  5
180
330
17
100
AcDbEntity
  8
COTA
 62
240
370
25
100
AcDbText
 10
4381.460053167517
 20
6514.596712199848
 30
0.0
 40
10.0
  1
14
 50
90.0
100
AcDbText
  0
TEXT
  5
181
330
17
100
AcDbEntity
  8
COTA
 62
240
370
25
100
AcDbText
 10
4401.570022020167
 20
6471.538232667696
 30
0.0
 40
10.0
  1
64
 50
90.0
100
AcDbText
  0
TEXT
  5
182
330
17
100
AcDbEntity
  8
COTA
 62
240
370
25
100
AcDbText
 10
4322.886534218201
 20
6646.804974603082
 30
0.0
 40
10.0
  1
7
100
AcDbText
  0
TEXT
  5
183
330
17
100
AcDbEntity
  8
COTA
 62
240
370
25
100
AcDbText
 10
3899.534945638443
 20
6421.07140610476
 30
0.0
 40
10.0
  1
244
100
AcDbText
  0
TEXT
  5
184
330
17
100
AcDbEntity
  8
COTA
 62
240
370
25
100
AcDbText
 10
4111.534945638442
 20
6421.122575695413
 30
0.0
 40
10.0
  1
180
100
AcDbText
  0
TEXT
  5
185
330
17
100
AcDbEntity
  8
COTA
 62
240
370
25
100
AcDbText
 10
3990.534945638443
 20
6392.554825240599
 30
0.0
 40
10.0
  1
718
100
AcDbText
  0
TEXT
  5
186
330
17
100
AcDbEntity
  8
COTA
 62
240
370
25
100
AcDbText
 10
3630.390223482411
 20
6471.538232667727
 30
0.0
 40
10.0
  1
64
 50
90.0
100
AcDbText
  0
TEXT
  5
187
330
17
100
AcDbEntity
  8
COTA
 62
240
370
25
100
AcDbText
 10
3752.623892182849
 20
6476.538232667713
 30
0.0
 40
10.0
  1
54
 50
90.0
100
AcDbText
  0
TEXT
  5
188
330
17
100
AcDbEntity
  8
COTA
 62
240
370
25
100
AcDbText
 10
3766.534945638443
 20
6521.571041633229
 30
0.0
 40
10.0
  1
22
100
AcDbText
  0
TEXT
  5
189
330
17
100
AcDbEntity
  8
COTA
 62
240
370
25
100
AcDbText
 10
4232.257268405529
 20
6469.538232667686
 30
0.0
 40
10.0
  1
40
 50
90.0
100
AcDbText
  0
TEXT
  5
18A
330
17
100
AcDbEntity
  8
COTA
 62
240
370
25
100
AcDbText
 10
4215.034945638438
 20
6517.38919733088
 30
0.0
 40
10.0
  1
27
100
AcDbText
  0
TEXT
  5
18B
330
17
100
AcDbEntity
  8
COTA
 62
240
370
25
100
AcDbText
 10
3657.534945638445
 20
6479.647881790535
 30
0.0
 40
10.0
  1
52
100
AcDbText
  0
TEXT
  5
18C
330
17
100
AcDbEntity
  8
COTA
 62
240
370
25
100
AcDbText
 10
4027.534945638443
 20
6482.096712199889
 30
0.0
 40
10.0
  1
12
100
AcDbText
  0
TEXT
  5
18D
330
17
100
AcDbEntity
  8
COTA
 62
240
370
25
100
AcDbText
 10
3982.534945638443
 20
6482.133261907495
 30
0.0
 40
10.0
  1
78
100
AcDbText
  0
TEXT
  5
18E
330
17
100
AcDbEntity
  8
COTA
 62
240
370
25
100
AcDbText
 10
4296.034945638439
 20
6469.022236737838
 30
0.0
 40
10.0
  1
85
100
AcDbText
  0
TEXT
  5
18F
330
17
100
AcDbEntity
  8
COTA
 62
1
370
25
100
AcDbText
 10
3967.030745338704
 20
6883.006221766253
 30
0.0
 40
7.0
  1
64
 50
90.0
100
AcDbText
  0
TEXT
  5
190
330
17
100
AcDbEntity
  8
COTA
 62
1
370
25
100
AcDbText
 10
4189.879201186209
 20
6883.006221766255
 30
0.0
 40
7.0
  1
64
 50
90.0
100
AcDbText
  0
TEXT
  5
191
330
17
100
AcDbEntity
  8
Cota Seção (2x)
 62
1
370
25
100
AcDbText
 10
4106.507468429583
 20
6907.00622176622
 30
0.0
 40
7.0
  1
60
 50
90.0
100
AcDbText
  0
TEXT
  5
192
330
17
100
AcDbEntity
  8
COTA
 62
1
370
25
100
AcDbText
 10
4085.507468427924
 20
6779.779407964067
 30
0.0
 40
7.0
  1
19
100
AcDbText
  0
TEXT
  5
193
330
17
100
AcDbEntity
  8
COTA
 62
1
370
25
100
AcDbText
 10
4003.149560980462
 20
6843.991250530418
 30
0.0
 40
7.0
  1
25
 50
90.0
100
AcDbText
  0
TEXT
  5
194
330
17
100
AcDbEntity
  8
Cota Seção (2x)
 62
1
370
25
100
AcDbText
 10
4075.507468427895
 20
6846.506221766256
 30
0.0
 40
7.0
  1
19
100
AcDbText
  0
TEXT
  5
195
330
17
100
AcDbEntity
  8
Painéis
 62
240
370
25
100
AcDbText
 10
4271.021037142178
 20
6692.974648400111
 30
0.0
 40
10.0
  1
86
100
AcDbText
  0
TEXT
  5
196
330
17
100
AcDbEntity
  8
Painéis
 62
240
370
25
100
AcDbText
 10
3920.271037142178
 20
6693.098917405929
 30
0.0
 40
10.0
  1
93.5
100
AcDbText
  0
TEXT
  5
197
330
17
100
AcDbEntity
  8
Painéis
 62
240
370
25
100
AcDbText
 10
3641.771037142178
 20
6680.200039786346
 30
0.0
 40
10.0
  1
24.5
100
AcDbText
  0
TEXT
  5
198
330
17
100
AcDbEntity
  8
COTA
 62
240
370
25
100
AcDbText
 10
4329.991085989312
 20
6528.017170960437
 30
0.0
 40
10.0
  1
11
100
AcDbText
  0
TEXT
  5
199
330
17
100
AcDbEntity
  8
COTA
 62
240
370
25
100
AcDbText
 10
4341.782487297633
 20
6469.038232667696
 30
0.0
 40
10.0
  1
41
 50
90.0
100
AcDbText
  0
TEXT
  5
19A
330
17
100
AcDbEntity
  8
Texto Seção
 62
3
370
15
100
AcDbText
 10
4083.507468427924
 20
7018.45498613923
 30
0.0
 40
17.0
  1

100
AcDbText
  0
TEXT
  5
19B
330
17
100
AcDbEntity
  8
Texto Seção
 62
3
370
15
100
AcDbText
 10
4083.507468427924
 20
6988.554401494908
 30
0.0
 40
12.0
  1

100
AcDbText
  0
TEXT
  5
19C
330
17
100
AcDbEntity
  8
Texto Seção
 62
7
370
15
100
AcDbText
 10
4083.507468427924
 20
6962.582972606422
 30
0.0
 40
10.0
  1

100
AcDbText
  0
HATCH
  5
19D
330
17
100
AcDbEntity
  8
COTA
 62
7
100
AcDbHatch
 10
0.0
 20
0.0
 30
0.0
210
0.0
220
0.0
230
1.0
  2
AR-CONC
 70
0
 71
0
 91
1
 92
3
 72
0
 73
1
 93
9
 10
4338.534945638435
 20
6489.538232667705
 10
4338.534945638435
 20
6448.538232667683
 10
4349.534945638439
 20
6448.538232667683
 10
4349.534945638439
 20
6503.538232667686
 10
4201.534945638435
 20
6503.538232667681
 10
4201.534945638435
 20
6449.538232667684
 10
4228.534945638442
 20
6449.538232667677
 10
4228.534945638435
 20
6489.538232667685
 10
4338.534945638435
 20
6489.538232667705
 97
0
 75
1
 76
1
 52
0.0
 41
1.0
 77
0
 78
13
 53
50.0
 43
0.0
 44
0.0
 45
182.184668996
 46
-15.9390855389
 79
2
 49
19.05
 49
-209.55
 53
355.0
 43
0.0
 44
0.0
 45
-35.243421425
 46
191.056845239
 79
2
 49
15.24
 49
-167.64058417
 53
100.4514447
 43
15.182007
 44
-1.3282535
 45
146.9412470904
 46
175.1177519122
 79
2
 49
16.1900088
 49
-178.0902446
 53
46.1842
 43
0.0
 44
50.8
 45
271.0790408921
 46
-42.0423279327
 79
2
 49
28.575
 49
-314.325
 53
96.63555761
 43
22.5899
 44
47.2965
 45
237.4041340515
 46
247.4261245977
 79
2
 49
24.28502314
 49
-267.13560816
 53
351.18415117
 43
0.0
 44
50.8
 45
237.404134065
 46
247.4261245855
 79
2
 49
22.85996707
 49
-251.45973192
 53
21.0
 43
25.4
 44
38.1
 45
151.6143912691
 46
-102.2651981871
 79
2
 49
19.05
 49
-209.55
 53
326.0
 43
25.4
 44
38.1
 45
61.8020283476
 46
184.1879661223
 79
2
 49
15.24
 49
-167.64
 53
71.451445
 43
38.0345326
 44
29.5779001
 45
213.4164192787
 46
81.9227688859
 79
2
 49
16.1900088
 49
-178.0899376
 53
37.5
 43
0.0
 44
0.0
 45
3.0886032506
 46
84.5550388732
 79
6
 49
0.0
 49
-165.608
 49
0.0
 49
-170.18
 49
0.0
 49
-168.275
 53
7.5
 43
0.0
 44
0.0
 45
66.8196625103
 46
100.1805748181
 79
6
 49
0.0
 49
-97.028
 49
0.0
 49
-161.798
 49
0.0
 49
-64.135
 53
-32.5
 43
-56.642
 44
0.0
 45
135.5905951669
 46
-5.7287439927
 79
6
 49
0.0
 49
-63.5
 49
0.0
 49
-198.12
 49
0.0
 49
-262.89
 53
-42.5
 43
-82.042
 44
0.0
 45
148.129181386
 46
25.4264910333
 79
6
 49
0.0
 49
-82.55
 49
0.0
 49
-131.572
 49
0.0
 49
-186.69
 98
0
  0
HATCH
  5
19E
330
17
100
AcDbEntity
  8
COTA
 62
7
100
AcDbHatch
 10
0.0
 20
0.0
 30
0.0
210
0.0
220
0.0
230
1.0
  2
AR-CONC
 70
0
 71
0
 91
1
 92
3
 72
0
 73
1
 93
6
 10
3777.534945638443
 20
6449.538232667713
 10
3777.534945638436
 20
6503.538232667709
 10
3755.534945638447
 20
6503.538232667712
 10
3755.534945638451
 20
6449.53823266771
 10
3777.53494563845
 20
6449.538232667713
 10
3777.534945638443
 20
6449.538232667713
 97
0
 75
1
 76
1
 52
0.0
 41
1.0
 77
0
 78
13
 53
50.0
 43
0.0
 44
0.0
 45
182.184668996
 46
-15.9390855389
 79
2
 49
19.05
 49
-209.55
 53
355.0
 43
0.0
 44
0.0
 45
-35.243421425
 46
191.056845239
 79
2
 49
15.24
 49
-167.64058417
 53
100.4514447
 43
15.182007
 44
-1.3282535
 45
146.9412470904
 46
175.1177519122
 79
2
 49
16.1900088
 49
-178.0902446
 53
46.1842
 43
0.0
 44
50.8
 45
271.0790408921
 46
-42.0423279327
 79
2
 49
28.575
 49
-314.325
 53
96.63555761
 43
22.5899
 44
47.2965
 45
237.4041340515
 46
247.4261245977
 79
2
 49
24.28502314
 49
-267.13560816
 53
351.18415117
 43
0.0
 44
50.8
 45
237.404134065
 46
247.4261245855
 79
2
 49
22.85996707
 49
-251.45973192
 53
21.0
 43
25.4
 44
38.1
 45
151.6143912691
 46
-102.2651981871
 79
2
 49
19.05
 49
-209.55
 53
326.0
 43
25.4
 44
38.1
 45
61.8020283476
 46
184.1879661223
 79
2
 49
15.24
 49
-167.64
 53
71.451445
 43
38.0345326
 44
29.5779001
 45
213.4164192787
 46
81.9227688859
 79
2
 49
16.1900088
 49
-178.0899376
 53
37.5
 43
0.0
 44
0.0
 45
3.0886032506
 46
84.5550388732
 79
6
 49
0.0
 49
-165.608
 49
0.0
 49
-170.18
 49
0.0
 49
-168.275
 53
7.5
 43
0.0
 44
0.0
 45
66.8196625103
 46
100.1805748181
 79
6
 49
0.0
 49
-97.028
 49
0.0
 49
-161.798
 49
0.0
 49
-64.135
 53
-32.5
 43
-56.642
 44
0.0
 45
135.5905951669
 46
-5.7287439927
 79
6
 49
0.0
 49
-63.5
 49
0.0
 49
-198.12
 49
0.0
 49
-262.89
 53
-42.5
 43
-82.042
 44
0.0
 45
148.129181386
 46
25.4264910333
 79
6
 49
0.0
 49
-82.55
 49
0.0
 49
-131.572
 49
0.0
 49
-186.69
 98
0
  0
HATCH
  5
19F
330
17
100
AcDbEntity
  8
Hachura
 62
7
100
AcDbHatch
 10
0.0
 20
0.0
 30
0.0
210
0.0
220
0.0
230
1.0
  2
SOLID
 70
1
 71
0
 91
1
 92
3
 72
0
 73
1
 93
5
 10
4062.507468427923
 20
6947.00622176626
 10
4066.507468427923
 20
6947.00622176626
 10
4066.507468427924
 20
6819.006221766255
 10
4062.507468427924
 20
6819.006221766255
 10
4062.507468427923
 20
6947.00622176626
 97
0
 75
1
 76
1
 98
0
  0
HATCH
  5
1A0
330
17
100
AcDbEntity
  8
Hachura
 62
7
100
AcDbHatch
 10
0.0
 20
0.0
 30
0.0
210
0.0
220
0.0
230
1.0
  2
ANSI31
 70
0
 71
0
 91
1
 92
3
 72
0
 73
1
 93
5
 10
4028.507468427924
 20
6819.006221766255
 10
4028.507468427924
 20
6823.406221766251
 10
4048.507468427924
 20
6823.406221766251
 10
4048.507468427924
 20
6819.006221766255
 10
4028.507468427924
 20
6819.006221766255
 97
0
 75
1
 76
1
 52
0.0
 41
1.0
 77
0
 78
1
 53
45.0
 43
0.0
 44
0.0
 45
-2.2450640303
 46
2.2450640303
 79
0
 98
0
  0
HATCH
  5
1A1
330
17
100
AcDbEntity
  8
Hachura
 62
7
100
AcDbHatch
 10
0.0
 20
0.0
 30
0.0
210
0.0
220
0.0
230
1.0
  2
ANSI31
 70
0
 71
0
 91
1
 92
3
 72
0
 73
1
 93
5
 10
4104.507468427924
 20
6819.006221766255
 10
4104.507468427924
 20
6823.406221766251
 10
4090.507468427924
 20
6823.406221766251
 10
4090.507468427924
 20
6819.006221766255
 10
4104.507468427924
 20
6819.006221766255
 97
0
 75
1
 76
1
 52
0.0
 41
1.0
 77
0
 78
1
 53
45.0
 43
0.0
 44
0.0
 45
-2.2450640303
 46
2.2450640303
 79
0
 98
0
  0
HATCH
  5
1A2
330
17
100
AcDbEntity
  8
Hachura
 62
7
100
AcDbHatch
 10
0.0
 20
0.0
 30
0.0
210
0.0
220
0.0
230
1.0
  2
SOLID
 70
1
 71
0
 91
1
 92
3
 72
0
 73
1
 93
5
 10
4104.507468427924
 20
6823.406221766251
 10
4104.507468427924
 20
6827.006221766257
 10
4066.507468427924
 20
6827.006221766257
 10
4066.507468427924
 20
6823.406221766251
 10
4104.507468427924
 20
6823.406221766251
 97
0
 75
1
 76
1
 98
0
  0
HATCH
  5
1A3
330
17
100
AcDbEntity
  8
Hachura
 62
7
100
AcDbHatch
 10
0.0
 20
0.0
 30
0.0
210
0.0
220
0.0
230
1.0
  2
ANSI31
 70
0
 71
0
 91
1
 92
3
 72
0
 73
1
 93
5
 10
4066.507468427924
 20
6819.006221766255
 10
4066.507468427924
 20
6823.406221766251
 10
4080.507468427923
 20
6823.406221766251
 10
4080.507468427923
 20
6819.006221766255
 10
4066.507468427924
 20
6819.006221766255
 97
0
 75
1
 76
1
 52
0.0
 41
1.0
 77
0
 78
1
 53
45.0
 43
0.0
 44
0.0
 45
-2.2450640303
 46
2.2450640303
 79
0
 98
0
  0
HATCH
  5
1A4
330
17
100
AcDbEntity
  8
Hachura
 62
7
100
AcDbHatch
 10
0.0
 20
0.0
 30
0.0
210
0.0
220
0.0
230
1.0
  2
SOLID
 70
1
 71
0
 91
1
 92
3
 72
0
 73
1
 93
5
 10
4108.507468427924
 20
6947.006221766255
 10
4104.507468427924
 20
6947.006221766255
 10
4104.507468427924
 20
6819.006221766255
 10
4108.507468427924
 20
6819.006221766255
 10
4108.507468427924
 20
6947.006221766255
 97
0
 75
1
 76
1
 98
0
  0
HATCH
  5
1A5
330
17
100
AcDbEntity
  8
Hachura
 62
7
100
AcDbHatch
 10
0.0
 20
0.0
 30
0.0
210
0.0
220
0.0
230
1.0
  2
ANSI31
 70
0
 71
0
 91
1
 92
3
 72
0
 73
1
 93
5
 10
4108.507468427936
 20
6942.606221766253
 10
4108.507468427936
 20
6947.006221766255
 10
4122.507468427936
 20
6947.006221766255
 10
4122.507468427936
 20
6942.606221766253
 10
4108.507468427936
 20
6942.606221766253
 97
0
 75
1
 76
1
 52
0.0
 41
1.0
 77
0
 78
1
 53
45.0
 43
0.0
 44
0.0
 45
-2.2450640303
 46
2.2450640303
 79
0
 98
0
  0
HATCH
  5
1A6
330
17
100
AcDbEntity
  8
Hachura
 62
7
100
AcDbHatch
 10
0.0
 20
0.0
 30
0.0
210
0.0
220
0.0
230
1.0
  2
ANSI31
 70
0
 71
0
 91
1
 92
3
 72
0
 73
1
 93
5
 10
4142.507468427925
 20
6819.006221766255
 10
4142.507468427925
 20
6823.406221766251
 10
4122.507468427924
 20
6823.406221766251
 10
4122.507468427924
 20
6819.006221766255
 10
4142.507468427925
 20
6819.006221766255
 97
0
 75
1
 76
1
 52
0.0
 41
1.0
 77
0
 78
1
 53
45.0
 43
0.0
 44
0.0
 45
-2.2450640303
 46
2.2450640303
 79
0
 98
0
  0
HATCH
  5
1A7
330
17
100
AcDbEntity
  8
Hachura
 62
7
100
AcDbHatch
 10
0.0
 20
0.0
 30
0.0
210
0.0
220
0.0
230
1.0
  2
SOLID
 70
1
 71
0
 91
1
 92
3
 72
0
 73
1
 93
5
 10
4066.507468427924
 20
6915.006221766235
 10
4066.507468427925
 20
6947.00622176626
 10
4062.507468427915
 20
6947.006221766253
 10
4062.507468427914
 20
6915.006221766226
 10
4066.507468427924
 20
6915.006221766235
 97
0
 75
1
 76
1
 98
0
  0
HATCH
  5
1A8
330
17
100
AcDbEntity
  8
Hachura
 62
7
100
AcDbHatch
 10
0.0
 20
0.0
 30
0.0
210
0.0
220
0.0
230
1.0
  2
ANSI31
 70
0
 71
0
 91
1
 92
3
 72
0
 73
1
 93
5
 10
4062.507468427912
 20
6942.606221766253
 10
4062.507468427912
 20
6947.006221766255
 10
4048.507468427913
 20
6947.006221766255
 10
4048.507468427913
 20
6942.606221766253
 10
4062.507468427912
 20
6942.606221766253
 97
0
 75
1
 76
1
 52
0.0
 41
1.0
 77
0
 78
1
 53
45.0
 43
0.0
 44
0.0
 45
-2.2450640303
 46
2.2450640303
 79
0
 98
0
  0
ENDSEC
  0
SECTION
  2
OBJECTS
  0
DICTIONARY
  5
A
330
0
100
AcDbDictionary
281
1
  3
ACAD_COLOR
350
B
  3
ACAD_GROUP
350
C
  3
ACAD_LAYOUT
350
D
  3
ACAD_MATERIAL
350
E
  3
ACAD_MLEADERSTYLE
350
F
  3
ACAD_MLINESTYLE
350
10
  3
ACAD_PLOTSETTINGS
350
11
  3
ACAD_PLOTSTYLENAME
350
12
  3
ACAD_SCALELIST
350
14
  3
ACAD_TABLESTYLE
350
15
  3
ACAD_VISUALSTYLE
350
16
  3
EZDXF_META
350
2D
  0
DICTIONARY
  5
B
330
A
100
AcDbDictionary
281
1
  0
DICTIONARY
  5
C
330
A
100
AcDbDictionary
281
1
  0
DICTIONARY
  5
D
330
A
100
AcDbDictionary
281
1
  3
Model
350
1A
  3
Layout1
350
1E
  0
DICTIONARY
  5
E
330
A
100
AcDbDictionary
281
1
  3
ByBlock
350
1F
  3
ByLayer
350
20
  3
Global
350
21
  0
DICTIONARY
  5
F
330
A
100
AcDbDictionary
281
1
  3
Standard
350
2C
  0
DICTIONARY
  5
10
330
A
100
AcDbDictionary
281
1
  3
Standard
350
22
  0
DICTIONARY
  5
11
330
A
100
AcDbDictionary
281
1
  0
ACDBDICTIONARYWDFLT
  5
12
330
A
100
AcDbDictionary
281
1
  3
Normal
350
13
100
AcDbDictionaryWithDefault
340
13
  0
ACDBPLACEHOLDER
  5
13
330
12
  0
DICTIONARY
  5
14
330
A
100
AcDbDictionary
281
1
  0
DICTIONARY
  5
15
330
A
100
AcDbDictionary
281
1
  0
DICTIONARY
  5
16
330
A
100
AcDbDictionary
281
1
  0
LAYOUT
  5
1A
330
D
100
AcDbPlotSettings
  1

  4
A3
  6

 40
7.5
 41
20.0
 42
7.5
 43
20.0
 44
420.0
 45
297.0
 46
0.0
 47
0.0
 48
0.0
 49
0.0
140
0.0
141
0.0
142
1.0
143
1.0
 70
1024
 72
1
 73
0
 74
5
  7

 75
16
 76
0
 77
2
 78
300
147
1.0
148
0.0
149
0.0
100
AcDbLayout
  1
Model
 70
1
 71
0
 10
0.0
 20
0.0
 11
420.0
 21
297.0
 12
0.0
 22
0.0
 32
0.0
 14
1e+20
 24
1e+20
 34
1e+20
 15
-1e+20
 25
-1e+20
 35
-1e+20
146
0.0
 13
0.0
 23
0.0
 33
0.0
 16
1.0
 26
0.0
 36
0.0
 17
0.0
 27
1.0
 37
0.0
 76
1
330
17
  0
LAYOUT
  5
1E
330
D
100
AcDbPlotSettings
  1

  4
A3
  6

 40
7.5
 41
20.0
 42
7.5
 43
20.0
 44
420.0
 45
297.0
 46
0.0
 47
0.0
 48
0.0
 49
0.0
140
0.0
141
0.0
142
1.0
143
1.0
 70
0
 72
1
 73
0
 74
5
  7

 75
16
 76
0
 77
2
 78
300
147
1.0
148
0.0
149
0.0
100
AcDbLayout
  1
Layout1
 70
1
 71
1
 10
0.0
 20
0.0
 11
420.0
 21
297.0
 12
0.0
 22
0.0
 32
0.0
 14
1e+20
 24
1e+20
 34
1e+20
 15
-1e+20
 25
-1e+20
 35
-1e+20
146
0.0
 13
0.0
 23
0.0
 33
0.0
 16
1.0
 26
0.0
 36
0.0
 17
0.0
 27
1.0
 37
0.0
 76
1
330
1B
  0
MATERIAL
  5
1F
102
{ACAD_REACTORS
330
E
102
}
330
E
100
AcDbMaterial
  1
ByBlock
  2

 70
0
 40
1.0
 71
1
 41
1.0
 91
-1023410177
 42
1.0
 72
1
  3

 73
1
 74
1
 75
1
 44
0.5
 73
0
 45
1.0
 46
1.0
 77
1
  4

 78
1
 79
1
170
1
 48
1.0
171
1
  6

172
1
173
1
174
1
140
1.0
141
1.0
175
1
  7

176
1
177
1
178
1
143
1.0
179
1
  8

270
1
271
1
272
1
145
1.0
146
1.0
273
1
  9

274
1
275
1
276
1
 42
1.0
 72
1
  3

 73
1
 74
1
 75
1
 94
63
  0
MATERIAL
  5
20
102
{ACAD_REACTORS
330
E
102
}
330
E
100
AcDbMaterial
  1
ByLayer
  2

 70
0
 40
1.0
 71
1
 41
1.0
 91
-1023410177
 42
1.0
 72
1
  3

 73
1
 74
1
 75
1
 44
0.5
 73
0
 45
1.0
 46
1.0
 77
1
  4

 78
1
 79
1
170
1
 48
1.0
171
1
  6

172
1
173
1
174
1
140
1.0
141
1.0
175
1
  7

176
1
177
1
178
1
143
1.0
179
1
  8

270
1
271
1
272
1
145
1.0
146
1.0
273
1
  9

274
1
275
1
276
1
 42
1.0
 72
1
  3

 73
1
 74
1
 75
1
 94
63
  0
MATERIAL
  5
21
102
{ACAD_REACTORS
330
E
102
}
330
E
100
AcDbMaterial
  1
Global
  2

 70
0
 40
1.0
 71
1
 41
1.0
 91
-1023410177
 42
1.0
 72
1
  3

 73
1
 74
1
 75
1
 44
0.5
 73
0
 45
1.0
 46
1.0
 77
1
  4

 78
1
 79
1
170
1
 48
1.0
171
1
  6

172
1
173
1
174
1
140
1.0
141
1.0
175
1
  7

176
1
177
1
178
1
143
1.0
179
1
  8

270
1
271
1
272
1
145
1.0
146
1.0
273
1
  9

274
1
275
1
276
1
 42
1.0
 72
1
  3

 73
1
 74
1
 75
1
 94
63
  0
MLINESTYLE
  5
22
102
{ACAD_REACTORS
330
10
102
}
330
10
100
AcDbMlineStyle
  2
Standard
 70
0
  3

 62
256
 51
90.0
 52
90.0
 71
2
 49
0.5
 62
256
  6
BYLAYER
 49
-0.5
 62
256
  6
BYLAYER
  0
MLEADERSTYLE
  5
2C
102
{ACAD_REACTORS
330
F
102
}
330
F
100
AcDbMLeaderStyle
179
2
170
2
171
1
172
0
 90
2
 40
0.0
 41
0.0
173
1
 91
-1056964608
 92
-2
290
1
 42
2.0
291
1
 43
8.0
  3
Standard
 44
4.0
300

342
29
174
1
175
1
176
0
178
1
 93
-1056964608
 45
4.0
292
0
297
0
 46
4.0
 94
-1056964608
 47
1.0
 49
1.0
140
1.0
294
1
141
0.0
177
0
142
1.0
295
0
296
0
143
3.75
271
0
272
9
273
9
  0
DICTIONARY
  5
2D
330
A
100
AcDbDictionary
280
1
281
1
  3
CREATED_BY_EZDXF
350
2E
  3
WRITTEN_BY_EZDXF
350
1AB
  0
DICTIONARYVAR
  5
2E
330
2D
100
DictionaryVariables
280
0
  1
1.4.3 @ 2026-06-10T17:46:47.072225+00:00
  0
DICTIONARYVAR
  5
1AB
330
2D
100
DictionaryVariables
280
0
  1
1.4.3 @ 2026-06-10T17:46:47.083892+00:00
  0
ENDSEC
  0
EOF
