  0
SECTION
  2
HEADER
  9
$ACADVER
  1
AC1024
  9
$ACADMAINTVER
 70
6
  9
$DWGCODEPAGE
  3
ANSI_1252
  9
$LASTSAVEDBY
  1
ezdxf
  9
$INSBASE
 10
0.0
 20
0.0
 30
0.0
  9
$EXTMIN
 10
1e+20
 20
1e+20
 30
1e+20
  9
$EXTMAX
 10
-1e+20
 20
-1e+20
 30
-1e+20
  9
$LIMMIN
 10
0.0
 20
0.0
  9
$LIMMAX
 10
420.0
 20
297.0
  9
$ORTHOMODE
 70
0
  9
$REGENMODE
 70
1
  9
$FILLMODE
 70
1
  9
$QTEXTMODE
 70
0
  9
$MIRRTEXT
 70
1
  9
$LTSCALE
 40
1.0
  9
$ATTMODE
 70
1
  9
$TEXTSIZE
 40
2.5
  9
$TRACEWID
 40
1.0
  9
$TEXTSTYLE
  7
Standard
  9
$CLAYER
  8
0
  9
$CELTYPE
  6
ByLayer
  9
$CECOLOR
 62
256
  9
$CELTSCALE
 40
1.0
  9
$DISPSILH
 70
0
  9
$DIMSCALE
 40
1.0
  9
$DIMASZ
 40
2.5
  9
$DIMEXO
 40
0.625
  9
$DIMDLI
 40
3.75
  9
$DIMRND
 40
0.0
  9
$DIMDLE
 40
0.0
  9
$DIMEXE
 40
1.25
  9
$DIMTP
 40
0.0
  9
$DIMTM
 40
0.0
  9
$DIMTXT
 40
2.5
  9
$DIMCEN
 40
2.5
  9
$DIMTSZ
 40
0.0
  9
$DIMTOL
 70
0
  9
$DIMLIM
 70
0
  9
$DIMTIH
 70
0
  9
$DIMTOH
 70
0
  9
$DIMSE1
 70
0
  9
$DIMSE2
 70
0
  9
$DIMTAD
 70
1
  9
$DIMZIN
 70
8
  9
$DIMBLK
  1

  9
$DIMASO
 70
1
  9
$DIMSHO
 70
1
  9
$DIMPOST
  1

  9
$DIMAPOST
  1

  9
$DIMALT
 70
0
  9
$DIMALTD
 70
3
  9
$DIMALTF
 40
0.03937007874
  9
$DIMLFAC
 40
1.0
  9
$DIMTOFL
 70
1
  9
$DIMTVP
 40
0.0
  9
$DIMTIX
 70
0
  9
$DIMSOXD
 70
0
  9
$DIMSAH
 70
0
  9
$DIMBLK1
  1

  9
$DIMBLK2
  1

  9
$DIMSTYLE
  2
ISO-25
  9
$DIMCLRD
 70
0
  9
$DIMCLRE
 70
0
  9
$DIMCLRT
 70
0
  9
$DIMTFAC
 40
1.0
  9
$DIMGAP
 40
0.625
  9
$DIMJUST
 70
0
  9
$DIMSD1
 70
0
  9
$DIMSD2
 70
0
  9
$DIMTOLJ
 70
0
  9
$DIMTZIN
 70
8
  9
$DIMALTZ
 70
0
  9
$DIMALTTZ
 70
0
  9
$DIMUPT
 70
0
  9
$DIMDEC
 70
2
  9
$DIMTDEC
 70
2
  9
$DIMALTU
 70
2
  9
$DIMALTTD
 70
3
  9
$DIMTXSTY
  7
Standard
  9
$DIMAUNIT
 70
0
  9
$DIMADEC
 70
0
  9
$DIMALTRND
 40
0.0
  9
$DIMAZIN
 70
0
  9
$DIMDSEP
 70
44
  9
$DIMATFIT
 70
3
  9
$DIMFRAC
 70
0
  9
$DIMLDRBLK
  1

  9
$DIMLUNIT
 70
2
  9
$DIMLWD
 70
-2
  9
$DIMLWE
 70
-2
  9
$DIMTMOVE
 70
0
  9
$DIMFXL
 40
1.0
  9
$DIMFXLON
 70
0
  9
$DIMJOGANG
 40
0.785398163397
  9
$DIMTFILL
 70
0
  9
$DIMTFILLCLR
 70
0
  9
$DIMARCSYM
 70
0
  9
$DIMLTYPE
  6

  9
$DIMLTEX1
  6

  9
$DIMLTEX2
  6

  9
$DIMTXTDIRECTION
 70
0
  9
$LUNITS
 70
2
  9
$LUPREC
 70
4
  9
$SKETCHINC
 40
1.0
  9
$FILLETRAD
 40
10.0
  9
$AUNITS
 70
0
  9
$AUPREC
 70
2
  9
$MENU
  1
.
  9
$ELEVATION
 40
0.0
  9
$PELEVATION
 40
0.0
  9
$THICKNESS
 40
0.0
  9
$LIMCHECK
 70
0
  9
$CHAMFERA
 40
0.0
  9
$CHAMFERB
 40
0.0
  9
$CHAMFERC
 40
0.0
  9
$CHAMFERD
 40
0.0
  9
$SKPOLY
 70
0
  9
$TDCREATE
 40
2461202.009560185
  9
$TDUCREATE
 40
2458532.153996898
  9
$TDUPDATE
 40
2461202.009560185
  9
$TDUUPDATE
 40
2458532.1544311
  9
$TDINDWG
 40
0.0
  9
$TDUSRTIMER
 40
0.0
  9
$USRTIMER
 70
1
  9
$ANGBASE
 50
0.0
  9
$ANGDIR
 70
0
  9
$PDMODE
 70
0
  9
$PDSIZE
 40
0.0
  9
$PLINEWID
 40
0.0
  9
$SPLFRAME
 70
0
  9
$SPLINETYPE
 70
6
  9
$SPLINESEGS
 70
8
  9
$HANDSEED
  5
F2
  9
$SURFTAB1
 70
6
  9
$SURFTAB2
 70
6
  9
$SURFTYPE
 70
6
  9
$SURFU
 70
6
  9
$SURFV
 70
6
  9
$UCSBASE
  2

  9
$UCSNAME
  2

  9
$UCSORG
 10
0.0
 20
0.0
 30
0.0
  9
$UCSXDIR
 10
1.0
 20
0.0
 30
0.0
  9
$UCSYDIR
 10
0.0
 20
1.0
 30
0.0
  9
$UCSORTHOREF
  2

  9
$UCSORTHOVIEW
 70
0
  9
$UCSORGTOP
 10
0.0
 20
0.0
 30
0.0
  9
$UCSORGBOTTOM
 10
0.0
 20
0.0
 30
0.0
  9
$UCSORGLEFT
 10
0.0
 20
0.0
 30
0.0
  9
$UCSORGRIGHT
 10
0.0
 20
0.0
 30
0.0
  9
$UCSORGFRONT
 10
0.0
 20
0.0
 30
0.0
  9
$UCSORGBACK
 10
0.0
 20
0.0
 30
0.0
  9
$PUCSBASE
  2

  9
$PUCSNAME
  2

  9
$PUCSORG
 10
0.0
 20
0.0
 30
0.0
  9
$PUCSXDIR
 10
1.0
 20
0.0
 30
0.0
  9
$PUCSYDIR
 10
0.0
 20
1.0
 30
0.0
  9
$PUCSORTHOREF
  2

  9
$PUCSORTHOVIEW
 70
0
  9
$PUCSORGTOP
 10
0.0
 20
0.0
 30
0.0
  9
$PUCSORGBOTTOM
 10
0.0
 20
0.0
 30
0.0
  9
$PUCSORGLEFT
 10
0.0
 20
0.0
 30
0.0
  9
$PUCSORGRIGHT
 10
0.0
 20
0.0
 30
0.0
  9
$PUCSORGFRONT
 10
0.0
 20
0.0
 30
0.0
  9
$PUCSORGBACK
 10
0.0
 20
0.0
 30
0.0
  9
$USERI1
 70
0
  9
$USERI2
 70
0
  9
$USERI3
 70
0
  9
$USERI4
 70
0
  9
$USERI5
 70
0
  9
$USERR1
 40
0.0
  9
$USERR2
 40
0.0
  9
$USERR3
 40
0.0
  9
$USERR4
 40
0.0
  9
$USERR5
 40
0.0
  9
$WORLDVIEW
 70
1
  9
$SHADEDGE
 70
3
  9
$SHADEDIF
 70
70
  9
$TILEMODE
 70
1
  9
$MAXACTVP
 70
64
  9
$PINSBASE
 10
0.0
 20
0.0
 30
0.0
  9
$PLIMCHECK
 70
0
  9
$PEXTMIN
 10
1e+20
 20
1e+20
 30
1e+20
  9
$PEXTMAX
 10
-1e+20
 20
-1e+20
 30
-1e+20
  9
$PLIMMIN
 10
0.0
 20
0.0
  9
$PLIMMAX
 10
420.0
 20
297.0
  9
$UNITMODE
 70
0
  9
$VISRETAIN
 70
1
  9
$PLINEGEN
 70
0
  9
$PSLTSCALE
 70
1
  9
$TREEDEPTH
 70
3020
  9
$CMLSTYLE
  2
Standard
  9
$CMLJUST
 70
0
  9
$CMLSCALE
 40
20.0
  9
$PROXYGRAPHICS
 70
1
  9
$MEASUREMENT
 70
1
  9
$CELWEIGHT
370
-1
  9
$ENDCAPS
280
0
  9
$JOINSTYLE
280
0
  9
$LWDISPLAY
290
0
  9
$INSUNITS
 70
6
  9
$HYPERLINKBASE
  1

  9
$STYLESHEET
  1

  9
$XEDIT
290
1
  9
$CEPSNTYPE
380
0
  9
$PSTYLEMODE
290
1
  9
$FINGERPRINTGUID
  2
{E1737E23-5320-4982-AEF3-F747A808FC96}
  9
$VERSIONGUID
  2
{62A0ECD2-6CE8-42DF-9615-2FB0B09D4CAA}
  9
$EXTNAMES
290
1
  9
$PSVPSCALE
 40
0.0
  9
$OLESTARTUP
290
0
  9
$SORTENTS
280
127
  9
$INDEXCTL
280
0
  9
$HIDETEXT
280
1
  9
$XCLIPFRAME
280
1
  9
$HALOGAP
280
0
  9
$OBSCOLOR
 70
257
  9
$OBSLTYPE
280
0
  9
$INTERSECTIONDISPLAY
280
0
  9
$INTERSECTIONCOLOR
 70
257
  9
$DIMASSOC
280
2
  9
$PROJECTNAME
  1

  9
$CAMERADISPLAY
290
0
  9
$LENSLENGTH
 40
50.0
  9
$CAMERAHEIGHT
 40
0.0
  9
$STEPSPERSEC
 40
24.0
  9
$STEPSIZE
 40
100.0
  9
$3DDWFPREC
 40
2.0
  9
$PSOLWIDTH
 40
0.005
  9
$PSOLHEIGHT
 40
0.08
  9
$LOFTANG1
 40
1.570796326795
  9
$LOFTANG2
 40
1.570796326795
  9
$LOFTMAG1
 40
0.0
  9
$LOFTMAG2
 40
0.0
  9
$LOFTPARAM
 70
7
  9
$LOFTNORMALS
280
1
  9
$LATITUDE
 40
37.795
  9
$LONGITUDE
 40
-122.394
  9
$NORTHDIRECTION
 40
0.0
  9
$TIMEZONE
 70
-8000
  9
$LIGHTGLYPHDISPLAY
280
1
  9
$TILEMODELIGHTSYNCH
280
1
  9
$CMATERIAL
347
20
  9
$SOLIDHIST
280
0
  9
$SHOWHIST
280
1
  9
$DWFFRAME
280
2
  9
$DGNFRAME
280
2
  9
$REALWORLDSCALE
290
1
  9
$INTERFERECOLOR
 62
256
  9
$CSHADOW
280
0
  9
$SHADOWPLANELOCATION
 40
0.0
  0
ENDSEC
  0
SECTION
  2
CLASSES
  0
CLASS
  1
ACDBDICTIONARYWDFLT
  2
AcDbDictionaryWithDefault
  3
ObjectDBX Classes
 90
0
 91
0
280
0
281
0
  0
CLASS
  1
SUN
  2
AcDbSun
  3
SCENEOE
 90
1153
 91
0
280
0
281
0
  0
CLASS
  1
VISUALSTYLE
  2
AcDbVisualStyle
  3
ObjectDBX Classes
 90
4095
 91
0
280
0
281
0
  0
CLASS
  1
MATERIAL
  2
AcDbMaterial
  3
ObjectDBX Classes
 90
1153
 91
0
280
0
281
0
  0
CLASS
  1
SCALE
  2
AcDbScale
  3
ObjectDBX Classes
 90
1153
 91
0
280
0
281
0
  0
CLASS
  1
TABLESTYLE
  2
AcDbTableStyle
  3
ObjectDBX Classes
 90
4095
 91
0
280
0
281
0
  0
CLASS
  1
MLEADERSTYLE
  2
AcDbMLeaderStyle
  3
ACDB_MLEADERSTYLE_CLASS
 90
4095
 91
0
280
0
281
0
  0
CLASS
  1
DICTIONARYVAR
  2
AcDbDictionaryVar
  3
ObjectDBX Classes
 90
0
 91
0
280
0
281
0
  0
CLASS
  1
CELLSTYLEMAP
  2
AcDbCellStyleMap
  3
ObjectDBX Classes
 90
1152
 91
0
280
0
281
0
  0
CLASS
  1
MENTALRAYRENDERSETTINGS
  2
AcDbMentalRayRenderSettings
  3
SCENEOE
 90
1024
 91
0
280
0
281
0
  0
CLASS
  1
ACDBDETAILVIEWSTYLE
  2
AcDbDetailViewStyle
  3
ObjectDBX Classes
 90
1025
 91
0
280
0
281
0
  0
CLASS
  1
ACDBSECTIONVIEWSTYLE
  2
AcDbSectionViewStyle
  3
ObjectDBX Classes
 90
1025
 91
0
280
0
281
0
  0
CLASS
  1
RASTERVARIABLES
  2
AcDbRasterVariables
  3
ISM
 90
0
 91
0
280
0
281
0
  0
CLASS
  1
ACDBPLACEHOLDER
  2
AcDbPlaceHolder
  3
ObjectDBX Classes
 90
0
 91
0
280
0
281
0
  0
CLASS
  1
LAYOUT
  2
AcDbLayout
  3
ObjectDBX Classes
 90
0
 91
0
280
0
281
0
  0
ENDSEC
  0
SECTION
  2
TABLES
  0
TABLE
  2
VPORT
  5
8
330
0
100
AcDbSymbolTable
 70
1
  0
VPORT
  5
23
330
8
100
AcDbSymbolTableRecord
100
AcDbViewportTableRecord
  2
*Active
 70
0
 10
0.0
 20
0.0
 11
1.0
 21
1.0
 12
0.0
 22
0.0
 13
0.0
 23
0.0
 14
0.5
 24
0.5
 15
0.5
 25
0.5
 16
0.0
 26
0.0
 36
1.0
 17
0.0
 27
0.0
 37
0.0
 40
1000.0
 41
1.34
 42
50.0
 43
0.0
 44
0.0
 50
0.0
 51
0.0
 71
0
 72
1000
 73
1
 74
3
 75
0
 76
0
 77
0
 78
0
281
0
 65
0
146
0.0
  0
ENDTAB
  0
TABLE
  2
LTYPE
  5
2
330
0
100
AcDbSymbolTable
 70
3
  0
LTYPE
  5
24
330
2
100
AcDbSymbolTableRecord
100
AcDbLinetypeTableRecord
  2
ByBlock
 70
0
  3

 72
65
 73
0
 40
0.0
  0
LTYPE
  5
25
330
2
100
AcDbSymbolTableRecord
100
AcDbLinetypeTableRecord
  2
ByLayer
 70
0
  3

 72
65
 73
0
 40
0.0
  0
LTYPE
  5
26
330
2
100
AcDbSymbolTableRecord
100
AcDbLinetypeTableRecord
  2
Continuous
 70
0
  3

 72
65
 73
0
 40
0.0
  0
ENDTAB
  0
TABLE
  2
LAYER
  5
1
330
0
100
AcDbSymbolTable
 70
13
  0
LAYER
  5
27
330
1
100
AcDbSymbolTableRecord
100
AcDbLayerTableRecord
  2
0
 70
0
 62
7
  6
Continuous
370
-3
390
13
347
21
  0
LAYER
  5
28
330
1
100
AcDbSymbolTableRecord
100
AcDbLayerTableRecord
  2
Defpoints
 70
0
 62
7
  6
Continuous
290
0
370
-3
390
13
347
21
  0
LAYER
  5
2F
330
1
100
AcDbSymbolTableRecord
100
AcDbLayerTableRecord
  2
TENSOR
 70
0
 62
7
  6
Continuous
370
-3
390
13
347
21
  0
LAYER
  5
30
330
1
100
AcDbSymbolTableRecord
100
AcDbLayerTableRecord
  2
SARR_3.5x7
 70
0
 62
7
  6
Continuous
370
-3
390
13
347
21
  0
LAYER
  5
31
330
1
100
AcDbSymbolTableRecord
100
AcDbLayerTableRecord
  2
NOMENCLATURA
 70
0
 62
7
  6
Continuous
370
-3
390
13
347
21
  0
LAYER
  5
32
330
1
100
AcDbSymbolTableRecord
100
AcDbLayerTableRecord
  2
SCO-___-LAJ
 70
0
 62
7
  6
Continuous
370
-3
390
13
347
21
  0
LAYER
  5
33
330
1
100
AcDbSymbolTableRecord
100
AcDbLayerTableRecord
  2
SARR_2.2x7
 70
0
 62
7
  6
Continuous
370
-3
390
13
347
21
  0
LAYER
  5
34
330
1
100
AcDbSymbolTableRecord
100
AcDbLayerTableRecord
  2
Cotas
 70
0
 62
7
  6
Continuous
370
-3
390
13
347
21
  0
LAYER
  5
35
330
1
100
AcDbSymbolTableRecord
100
AcDbLayerTableRecord
  2
COTA
 70
0
 62
7
  6
Continuous
370
-3
390
13
347
21
  0
LAYER
  5
36
330
1
100
AcDbSymbolTableRecord
100
AcDbLayerTableRecord
  2
CONCRETO
 70
0
 62
7
  6
Continuous
370
-3
390
13
347
21
  0
LAYER
  5
37
330
1
100
AcDbSymbolTableRecord
100
AcDbLayerTableRecord
  2
barrote
 70
0
 62
7
  6
Continuous
370
-3
390
13
347
21
  0
LAYER
  5
38
330
1
100
AcDbSymbolTableRecord
100
AcDbLayerTableRecord
  2
Painéis
 70
0
 62
7
  6
Continuous
370
-3
390
13
347
21
  0
LAYER
  5
39
330
1
100
AcDbSymbolTableRecord
100
AcDbLayerTableRecord
  2
Madeira
 70
0
 62
7
  6
Continuous
370
-3
390
13
347
21
  0
ENDTAB
  0
TABLE
  2
STYLE
  5
5
330
0
100
AcDbSymbolTable
 70
1
  0
STYLE
  5
29
330
5
100
AcDbSymbolTableRecord
100
AcDbTextStyleTableRecord
  2
Standard
 70
0
 40
0.0
 41
1.0
 50
0.0
 71
0
 42
2.5
  3
txt
  4

  0
ENDTAB
  0
TABLE
  2
VIEW
  5
7
330
0
100
AcDbSymbolTable
 70
0
  0
ENDTAB
  0
TABLE
  2
UCS
  5
6
330
0
100
AcDbSymbolTable
 70
0
  0
ENDTAB
  0
TABLE
  2
APPID
  5
3
330
0
100
AcDbSymbolTable
 70
3
  0
APPID
  5
2A
330
3
100
AcDbSymbolTableRecord
100
AcDbRegAppTableRecord
  2
ACAD
 70
0
  0
APPID
  5
EF
330
3
100
AcDbSymbolTableRecord
100
AcDbRegAppTableRecord
  2
HATCHBACKGROUNDCOLOR
 70
0
  0
APPID
  5
F0
330
3
100
AcDbSymbolTableRecord
100
AcDbRegAppTableRecord
  2
EZDXF
 70
0
  0
ENDTAB
  0
TABLE
  2
DIMSTYLE
  5
4
330
0
100
AcDbSymbolTable
 70
1
100
AcDbDimStyleTable
  0
DIMSTYLE
105
2B
330
4
100
AcDbSymbolTableRecord
100
AcDbDimStyleTableRecord
  2
Standard
 70
0
 40
1.0
 41
2.5
 42
0.625
 43
3.75
 44
1.25
 45
0.0
 46
0.0
 47
0.0
 48
0.0
 49
2.5
140
2.5
141
2.5
142
0.0
143
0.03937007874
144
1.0
145
0.0
146
1.0
147
0.625
148
0.0
 69
0
 70
0
 71
0
 72
0
 73
0
 74
0
 75
0
 76
0
 77
1
 78
8
 79
3
170
0
171
3
172
1
173
0
174
0
175
0
176
0
177
0
178
0
179
2
271
2
272
2
273
2
274
3
275
0
276
0
277
2
278
44
279
0
280
0
281
0
282
0
283
0
284
8
285
0
286
0
288
0
289
3
290
0
371
-2
372
-2
  0
ENDTAB
  0
TABLE
  2
BLOCK_RECORD
  5
9
330
0
100
AcDbSymbolTable
 70
2
  0
BLOCK_RECORD
  5
17
330
9
100
AcDbSymbolTableRecord
100
AcDbBlockTableRecord
  2
*Model_Space
340
1A
 70
0
280
1
281
0
  0
BLOCK_RECORD
  5
1B
330
9
100
AcDbSymbolTableRecord
100
AcDbBlockTableRecord
  2
*Paper_Space
340
1E
 70
0
280
1
281
0
  0
ENDTAB
  0
ENDSEC
  0
SECTION
  2
BLOCKS
  0
BLOCK
  5
18
330
17
100
AcDbEntity
  8
0
100
AcDbBlockBegin
  2
*Model_Space
 70
0
 10
0.0
 20
0.0
 30
0.0
  3
*Model_Space
  1

  0
ENDBLK
  5
19
330
17
100
AcDbEntity
  8
0
100
AcDbBlockEnd
  0
BLOCK
  5
1C
330
1B
100
AcDbEntity
  8
0
100
AcDbBlockBegin
  2
*Paper_Space
 70
0
 10
0.0
 20
0.0
 30
0.0
  3
*Paper_Space
  1

  0
ENDBLK
  5
1D
330
1B
100
AcDbEntity
  8
0
100
AcDbBlockEnd
  0
ENDSEC
  0
SECTION
  2
ENTITIES
  0
LINE
  5
3A
330
17
100
AcDbEntity
  8
0
 62
7
370
25
100
AcDbLine
 10
5090.284823006885
 20
2280.675848547843
 30
0.0
 11
5090.284823006885
 21
2268.675848547843
 31
0.0
  0
LINE
  5
3B
330
17
100
AcDbEntity
  8
0
 62
7
370
25
100
AcDbLine
 10
5226.284823006913
 20
2277.675848547858
 30
0.0
 11
5226.284823006913
 21
2271.675848547857
 31
0.0
  0
LINE
  5
3C
330
17
100
AcDbEntity
  8
0
 62
7
370
25
100
AcDbLine
 10
5224.284823006914
 20
2280.675848547858
 30
0.0
 11
5224.284823006914
 21
2268.675848547858
 31
0.0
  0
LINE
  5
3D
330
17
100
AcDbEntity
  8
0
 62
7
370
25
100
AcDbLine
 10
5224.284823006914
 20
2271.675848547857
 30
0.0
 11
5226.284823006913
 21
2271.675848547857
 31
0.0
  0
LINE
  5
3E
330
17
100
AcDbEntity
  8
0
 62
7
370
25
100
AcDbLine
 10
5090.284823006885
 20
2268.675848547843
 30
0.0
 11
5120.284823006885
 21
2268.675848547843
 31
0.0
  0
LINE
  5
3F
330
17
100
AcDbEntity
  8
0
 62
7
370
25
100
AcDbLine
 10
5194.284823006913
 20
2273.675848547858
 30
0.0
 11
5224.284823006914
 21
2273.675848547858
 31
0.0
  0
LINE
  5
40
330
17
100
AcDbEntity
  8
0
 62
7
370
25
100
AcDbLine
 10
5194.284823006913
 20
2275.675848547858
 30
0.0
 11
5224.284823006914
 21
2275.675848547858
 31
0.0
  0
LINE
  5
41
330
17
100
AcDbEntity
  8
TENSOR
 62
7
370
25
100
AcDbLine
 10
5229.284823006913
 20
2274.675848547843
 30
0.0
 11
5084.981528828786
 21
2274.675848547843
 31
0.0
  0
LINE
  5
42
330
17
100
AcDbEntity
  8
0
 62
7
370
25
100
AcDbLine
 10
5224.284823006914
 20
2277.675848547858
 30
0.0
 11
5226.284823006913
 21
2277.675848547858
 31
0.0
  0
LINE
  5
43
330
17
100
AcDbEntity
  8
0
 62
7
370
25
100
AcDbLine
 10
5120.284823006885
 20
2273.675848547843
 30
0.0
 11
5090.284823006885
 21
2273.675848547843
 31
0.0
  0
LINE
  5
44
330
17
100
AcDbEntity
  8
0
 62
7
370
25
100
AcDbLine
 10
5120.284823006885
 20
2275.675848547843
 30
0.0
 11
5090.284823006885
 21
2275.675848547843
 31
0.0
  0
LINE
  5
45
330
17
100
AcDbEntity
  8
0
 62
7
370
25
100
AcDbLine
 10
5090.284823006885
 20
2280.675848547843
 30
0.0
 11
5120.284823006885
 21
2280.675848547843
 31
0.0
  0
LINE
  5
46
330
17
100
AcDbEntity
  8
0
 62
7
370
25
100
AcDbLine
 10
5224.284823006914
 20
2268.675848547858
 30
0.0
 11
5194.284823006913
 21
2268.675848547858
 31
0.0
  0
LINE
  5
47
330
17
100
AcDbEntity
  8
0
 62
7
370
25
100
AcDbLine
 10
5224.284823006914
 20
2280.675848547858
 30
0.0
 11
5194.284823006913
 21
2280.675848547858
 31
0.0
  0
LINE
  5
48
330
17
100
AcDbEntity
  8
0
 62
7
370
25
100
AcDbLine
 10
5088.284823006885
 20
2277.675848547843
 30
0.0
 11
5088.284823006885
 21
2271.675848547843
 31
0.0
  0
LINE
  5
49
330
17
100
AcDbEntity
  8
0
 62
7
370
25
100
AcDbLine
 10
5090.284823006885
 20
2271.675848547843
 30
0.0
 11
5088.284823006885
 21
2271.675848547843
 31
0.0
  0
LINE
  5
4A
330
17
100
AcDbEntity
  8
0
 62
7
370
25
100
AcDbLine
 10
5088.284823006885
 20
2277.675848547843
 30
0.0
 11
5090.284823006885
 21
2277.675848547843
 31
0.0
  0
LINE
  5
4B
330
17
100
AcDbEntity
  8
COTA
 62
7
370
25
100
AcDbLine
 10
5661.856366096479
 20
2401.967836359069
 30
0.0
 11
5661.856366096479
 21
2415.967836359068
 31
0.0
  0
LINE
  5
4C
330
17
100
AcDbEntity
  8
COTA
 62
7
370
25
100
AcDbLine
 10
5661.856366096479
 20
2415.967836359068
 30
0.0
 11
5980.856366096486
 21
2415.967836359068
 31
0.0
  0
LINE
  5
4D
330
17
100
AcDbEntity
  8
COTA
 62
7
370
25
100
AcDbLine
 10
5980.856366096486
 20
2401.967836359069
 30
0.0
 11
5980.856366096486
 21
2415.967836359068
 31
0.0
  0
LINE
  5
4E
330
17
100
AcDbEntity
  8
Painéis
 62
7
370
25
100
AcDbLine
 10
5661.856366096479
 20
2401.967836359069
 30
0.0
 11
5980.856366096486
 21
2401.967836359069
 31
0.0
  0
LINE
  5
4F
330
17
100
AcDbEntity
  8
Painéis
 62
7
370
25
100
AcDbLine
 10
5661.856366096479
 20
2361.967836359069
 30
0.0
 11
5980.856366096486
 21
2361.967836359069
 31
0.0
  0
LINE
  5
50
330
17
100
AcDbEntity
  8
Painéis
 62
7
370
25
100
AcDbLine
 10
5661.856366096479
 20
2361.967836359069
 30
0.0
 11
5661.856366096479
 21
2401.967836359069
 31
0.0
  0
LINE
  5
51
330
17
100
AcDbEntity
  8
Painéis
 62
7
370
25
100
AcDbLine
 10
5783.856366096486
 20
2361.967836359069
 30
0.0
 11
5783.856366096486
 21
2401.967836359069
 31
0.0
  0
LINE
  5
52
330
17
100
AcDbEntity
  8
Painéis
 62
7
370
25
100
AcDbLine
 10
5980.856366096486
 20
2361.967836359069
 30
0.0
 11
5980.856366096486
 21
2401.967836359069
 31
0.0
  0
LINE
  5
53
330
17
100
AcDbEntity
  8
SARR_2.2x7
 62
7
370
25
100
AcDbLine
 10
5668.856366096475
 20
2361.967836359069
 30
0.0
 11
5668.856366096475
 21
2401.967836359069
 31
0.0
  0
LINE
  5
54
330
17
100
AcDbEntity
  8
SARR_2.2x7
 62
7
370
25
100
AcDbLine
 10
5973.856366096486
 20
2361.967836359069
 30
0.0
 11
5973.856366096486
 21
2401.967836359069
 31
0.0
  0
LINE
  5
55
330
17
100
AcDbEntity
  8
SARR_2.2x7
 62
7
370
25
100
AcDbLine
 10
5676.85636609648
 20
2399.767836359071
 30
0.0
 11
5783.856366096486
 21
2399.767836359103
 31
0.0
  0
LINE
  5
56
330
17
100
AcDbEntity
  8
SARR_3.5x7
 62
7
370
25
100
AcDbLine
 10
5676.85636609648
 20
2401.967836359083
 30
0.0
 11
5676.856366096481
 21
2361.967836359069
 31
0.0
  0
LINE
  5
57
330
17
100
AcDbEntity
  8
SARR_3.5x7
 62
7
370
25
100
AcDbLine
 10
5680.356366096479
 20
2399.767836359086
 30
0.0
 11
5680.356366096481
 21
2361.967836359069
 31
0.0
  0
LINE
  5
58
330
17
100
AcDbEntity
  8
SARR_2.2x7
 62
7
370
25
100
AcDbLine
 10
5783.856366096484
 20
2399.767836359075
 30
0.0
 11
5965.856366096471
 21
2399.767836359075
 31
0.0
  0
LINE
  5
59
330
17
100
AcDbEntity
  8
SARR_3.5x7
 62
7
370
25
100
AcDbLine
 10
5965.856366096476
 20
2401.967836359057
 30
0.0
 11
5965.856366096471
 21
2361.967836359069
 31
0.0
  0
LINE
  5
5A
330
17
100
AcDbEntity
  8
SARR_3.5x7
 62
7
370
25
100
AcDbLine
 10
5962.356366096475
 20
2399.76783635906
 30
0.0
 11
5962.356366096472
 21
2361.967836359069
 31
0.0
  0
LINE
  5
5B
330
17
100
AcDbEntity
  8
SARR_3.5x7
 62
7
370
25
100
AcDbLine
 10
5787.356366096515
 20
2399.767836359127
 30
0.0
 11
5787.356366096539
 21
2361.967836359069
 31
0.0
  0
LINE
  5
5C
330
17
100
AcDbEntity
  8
SARR_3.5x7
 62
7
370
25
100
AcDbLine
 10
5780.356366096428
 20
2399.767836359185
 30
0.0
 11
5780.356366096406
 21
2361.967836359069
 31
0.0
  0
LINE
  5
5D
330
17
100
AcDbEntity
  8
Painéis
 62
7
370
25
100
AcDbLine
 10
5560.782656560879
 20
2401.967836359069
 30
0.0
 11
5636.282656560885
 21
2401.967836359069
 31
0.0
  0
LINE
  5
5E
330
17
100
AcDbEntity
  8
Painéis
 62
7
370
25
100
AcDbLine
 10
5560.782656560879
 20
2361.967836359069
 30
0.0
 11
5636.282656560885
 21
2361.967836359065
 31
0.0
  0
LINE
  5
5F
330
17
100
AcDbEntity
  8
Painéis
 62
7
370
25
100
AcDbLine
 10
5560.782656560879
 20
2361.967836359069
 30
0.0
 11
5560.782656560879
 21
2401.967836359069
 31
0.0
  0
LINE
  5
60
330
17
100
AcDbEntity
  8
Painéis
 62
7
370
25
100
AcDbLine
 10
5636.282656560885
 20
2361.967836359065
 30
0.0
 11
5636.282656560885
 21
2401.967836359069
 31
0.0
  0
LINE
  5
61
330
17
100
AcDbEntity
  8
SARR_2.2x7
 62
7
370
25
100
AcDbLine
 10
5567.782656560876
 20
2361.967836359069
 30
0.0
 11
5567.782656560876
 21
2401.967836359069
 31
0.0
  0
LINE
  5
62
330
17
100
AcDbEntity
  8
SARR_2.2x7
 62
7
370
25
100
AcDbLine
 10
5629.282656560885
 20
2361.967836359069
 30
0.0
 11
5629.282656560885
 21
2401.967836359069
 31
0.0
  0
LINE
  5
63
330
17
100
AcDbEntity
  8
SARR_2.2x7
 62
7
370
25
100
AcDbLine
 10
5605.782656560879
 20
2399.76783635907
 30
0.0
 11
5621.282656560873
 21
2399.767836359059
 31
0.0
  0
LINE
  5
64
330
17
100
AcDbEntity
  8
SARR_3.5x7
 62
7
370
25
100
AcDbLine
 10
5605.782656560879
 20
2401.967836359082
 30
0.0
 11
5605.782656560879
 21
2361.967836359067
 31
0.0
  0
LINE
  5
65
330
17
100
AcDbEntity
  8
SARR_3.5x7
 62
7
370
25
100
AcDbLine
 10
5609.282656560878
 20
2399.767836359084
 30
0.0
 11
5609.282656560879
 21
2361.967836359067
 31
0.0
  0
LINE
  5
66
330
17
100
AcDbEntity
  8
SARR_3.5x7
 62
7
370
25
100
AcDbLine
 10
5621.282656560874
 20
2401.967836359057
 30
0.0
 11
5621.282656560872
 21
2361.967836359069
 31
0.0
  0
LINE
  5
67
330
17
100
AcDbEntity
  8
SARR_3.5x7
 62
7
370
25
100
AcDbLine
 10
5617.782656560874
 20
2399.76783635906
 30
0.0
 11
5617.782656560871
 21
2361.967836359069
 31
0.0
  0
LINE
  5
68
330
17
100
AcDbEntity
  8
COTA
 62
7
370
25
100
AcDbLine
 10
5560.782656560879
 20
2401.967836359069
 30
0.0
 11
5560.782656560879
 21
2415.967836359068
 31
0.0
  0
LINE
  5
69
330
17
100
AcDbEntity
  8
COTA
 62
7
370
25
100
AcDbLine
 10
5560.782656560879
 20
2415.967836359068
 30
0.0
 11
5636.282656560879
 21
2415.967836359068
 31
0.0
  0
LINE
  5
6A
330
17
100
AcDbEntity
  8
COTA
 62
7
370
25
100
AcDbLine
 10
5636.282656560879
 20
2415.967836359068
 30
0.0
 11
5636.282656560879
 21
2401.967836359069
 31
0.0
  0
LINE
  5
6B
330
17
100
AcDbEntity
  8
COTA
 62
7
370
25
100
AcDbLine
 10
5556.955241380237
 20
2203.538282891512
 30
0.0
 11
5556.955241380237
 21
2217.538282891513
 31
0.0
  0
LINE
  5
6C
330
17
100
AcDbEntity
  8
COTA
 62
7
370
25
100
AcDbLine
 10
5556.955241380237
 20
2217.538282891513
 30
0.0
 11
5786.955241380245
 21
2217.538282891513
 31
0.0
  0
LINE
  5
6D
330
17
100
AcDbEntity
  8
COTA
 62
7
370
25
100
AcDbLine
 10
5786.955241380245
 20
2203.538282891512
 30
0.0
 11
5786.955241380245
 21
2217.538282891513
 31
0.0
  0
LINE
  5
6E
330
17
100
AcDbEntity
  8
Painéis
 62
7
370
25
100
AcDbLine
 10
5556.955241380237
 20
2203.538282891512
 30
0.0
 11
5786.955241380245
 21
2203.538282891512
 31
0.0
  0
LINE
  5
6F
330
17
100
AcDbEntity
  8
Painéis
 62
7
370
25
100
AcDbLine
 10
5556.955241380237
 20
2163.538282891513
 30
0.0
 11
5786.955241380245
 21
2163.538282891513
 31
0.0
  0
LINE
  5
70
330
17
100
AcDbEntity
  8
Painéis
 62
7
370
25
100
AcDbLine
 10
5556.955241380237
 20
2163.538282891513
 30
0.0
 11
5556.955241380237
 21
2203.538282891512
 31
0.0
  0
LINE
  5
71
330
17
100
AcDbEntity
  8
Painéis
 62
7
370
25
100
AcDbLine
 10
5678.955241380244
 20
2163.538282891513
 30
0.0
 11
5678.955241380244
 21
2203.538282891512
 31
0.0
  0
LINE
  5
72
330
17
100
AcDbEntity
  8
Painéis
 62
7
370
25
100
AcDbLine
 10
5786.955241380245
 20
2163.538282891513
 30
0.0
 11
5786.955241380245
 21
2203.538282891512
 31
0.0
  0
LINE
  5
73
330
17
100
AcDbEntity
  8
SARR_2.2x7
 62
7
370
25
100
AcDbLine
 10
5563.955241380234
 20
2163.538282891513
 30
0.0
 11
5563.955241380234
 21
2203.538282891512
 31
0.0
  0
LINE
  5
74
330
17
100
AcDbEntity
  8
SARR_2.2x7
 62
7
370
25
100
AcDbLine
 10
5779.955241380245
 20
2163.538282891513
 30
0.0
 11
5779.955241380245
 21
2203.538282891512
 31
0.0
  0
LINE
  5
75
330
17
100
AcDbEntity
  8
SARR_2.2x7
 62
7
370
25
100
AcDbLine
 10
5571.955241380237
 20
2201.338282891516
 30
0.0
 11
5678.955241380244
 21
2201.338282891546
 31
0.0
  0
LINE
  5
76
330
17
100
AcDbEntity
  8
SARR_3.5x7
 62
7
370
25
100
AcDbLine
 10
5571.955241380237
 20
2203.538282891527
 30
0.0
 11
5571.95524138024
 21
2163.538282891513
 31
0.0
  0
LINE
  5
77
330
17
100
AcDbEntity
  8
SARR_3.5x7
 62
7
370
25
100
AcDbLine
 10
5575.455241380238
 20
2201.33828289153
 30
0.0
 11
5575.45524138024
 21
2163.538282891513
 31
0.0
  0
LINE
  5
78
330
17
100
AcDbEntity
  8
SARR_2.2x7
 62
7
370
25
100
AcDbLine
 10
5678.955241380243
 20
2201.338282891519
 30
0.0
 11
5771.95524138023
 21
2201.338282891519
 31
0.0
  0
LINE
  5
79
330
17
100
AcDbEntity
  8
SARR_3.5x7
 62
7
370
25
100
AcDbLine
 10
5771.955241380234
 20
2203.538282891502
 30
0.0
 11
5771.95524138023
 21
2163.538282891513
 31
0.0
  0
LINE
  5
7A
330
17
100
AcDbEntity
  8
SARR_3.5x7
 62
7
370
25
100
AcDbLine
 10
5768.455241380234
 20
2201.338282891505
 30
0.0
 11
5768.45524138023
 21
2163.538282891513
 31
0.0
  0
LINE
  5
7B
330
17
100
AcDbEntity
  8
SARR_3.5x7
 62
7
370
25
100
AcDbLine
 10
5682.455241380274
 20
2201.338282891571
 30
0.0
 11
5682.455241380298
 21
2163.538282891513
 31
0.0
  0
LINE
  5
7C
330
17
100
AcDbEntity
  8
SARR_3.5x7
 62
7
370
25
100
AcDbLine
 10
5675.455241380187
 20
2201.338282891629
 30
0.0
 11
5675.455241380165
 21
2163.538282891513
 31
0.0
  0
LINE
  5
7D
330
17
100
AcDbEntity
  8
COTA
 62
7
370
25
100
AcDbLine
 10
5808.31874526794
 20
2203.423486266212
 30
0.0
 11
5808.31874526794
 21
2217.423486266211
 31
0.0
  0
LINE
  5
7E
330
17
100
AcDbEntity
  8
COTA
 62
7
370
25
100
AcDbLine
 10
5808.31874526794
 20
2217.423486266211
 30
0.0
 11
5964.818745267946
 21
2217.423486266211
 31
0.0
  0
LINE
  5
7F
330
17
100
AcDbEntity
  8
Painéis
 62
7
370
25
100
AcDbLine
 10
5808.31874526794
 20
2203.423486266212
 30
0.0
 11
5937.818745267946
 21
2203.423486266212
 31
0.0
  0
LINE
  5
80
330
17
100
AcDbEntity
  8
Painéis
 62
7
370
25
100
AcDbLine
 10
5808.31874526794
 20
2163.423486266212
 30
0.0
 11
5964.818745267946
 21
2163.423486266212
 31
0.0
  0
LINE
  5
81
330
17
100
AcDbEntity
  8
Painéis
 62
7
370
25
100
AcDbLine
 10
5808.31874526794
 20
2163.423486266212
 30
0.0
 11
5808.31874526794
 21
2203.423486266212
 31
0.0
  0
LINE
  5
82
330
17
100
AcDbEntity
  8
SARR_2.2x7
 62
7
370
25
100
AcDbLine
 10
5815.318745267937
 20
2163.423486266212
 30
0.0
 11
5815.318745267937
 21
2203.423486266212
 31
0.0
  0
LINE
  5
83
330
17
100
AcDbEntity
  8
SARR_3.5x7
 62
7
370
25
100
AcDbLine
 10
5823.31874526794
 20
2203.423486266226
 30
0.0
 11
5823.318745267942
 21
2163.423486266212
 31
0.0
  0
LINE
  5
84
330
17
100
AcDbEntity
  8
SARR_3.5x7
 62
7
370
25
100
AcDbLine
 10
5826.81874526794
 20
2201.223486266229
 30
0.0
 11
5826.818745267941
 21
2163.423486266212
 31
0.0
  0
LINE
  5
85
330
17
100
AcDbEntity
  8
SARR_2.2x7
 62
7
370
25
100
AcDbLine
 10
5823.31874526794
 20
2201.223486266218
 30
0.0
 11
5937.818745267944
 21
2201.223486266218
 31
0.0
  0
LINE
  5
86
330
17
100
AcDbEntity
  8
SARR_3.5x7
 62
7
370
25
100
AcDbLine
 10
5937.818745267946
 20
2203.423486266201
 30
0.0
 11
5937.818745267943
 21
2163.423486266212
 31
0.0
  0
LINE
  5
87
330
17
100
AcDbEntity
  8
SARR_3.5x7
 62
7
370
25
100
AcDbLine
 10
5934.318745267946
 20
2201.223486266204
 30
0.0
 11
5934.318745267943
 21
2163.423486266212
 31
0.0
  0
LINE
  5
88
330
17
100
AcDbEntity
  8
Painéis
 62
7
370
25
100
AcDbLine
 10
5937.818745267946
 20
2203.423486266212
 30
0.0
 11
5937.818745267946
 21
2173.423486266212
 31
0.0
  0
LINE
  5
89
330
17
100
AcDbEntity
  8
Painéis
 62
7
370
25
100
AcDbLine
 10
5937.818745267946
 20
2173.423486266212
 30
0.0
 11
5964.818745267946
 21
2173.423486266212
 31
0.0
  0
LINE
  5
8A
330
17
100
AcDbEntity
  8
SARR_2.2x7
 62
7
370
25
100
AcDbLine
 10
5964.818745267946
 20
2168.423486266211
 30
0.0
 11
5937.818745267943
 21
2168.423486266211
 31
0.0
  0
LINE
  5
8B
330
17
100
AcDbEntity
  8
Painéis
 62
7
370
25
100
AcDbLine
 10
5964.818745267946
 20
2163.423486266212
 30
0.0
 11
5964.818745267945
 21
2173.423486266212
 31
0.0
  0
LINE
  5
8C
330
17
100
AcDbEntity
  8
COTA
 62
7
370
25
100
AcDbLine
 10
5964.818745267945
 20
2173.423486266212
 30
0.0
 11
5964.818745267941
 21
2217.423486266211
 31
0.0
  0
LINE
  5
8D
330
17
100
AcDbEntity
  8
SARR_2.2x7
 62
7
370
25
100
AcDbLine
 10
5957.818745267946
 20
2163.423486266212
 30
0.0
 11
5957.818745267945
 21
2173.423486266212
 31
0.0
  0
LINE
  5
8E
330
17
100
AcDbEntity
  8
COTA
 62
7
370
25
100
AcDbLine
 10
5327.027766173217
 20
1919.296898876913
 30
0.0
 11
5327.027766173217
 21
1933.296898876912
 31
0.0
  0
LINE
  5
8F
330
17
100
AcDbEntity
  8
COTA
 62
7
370
25
100
AcDbLine
 10
5327.027766173217
 20
1933.296898876912
 30
0.0
 11
5552.527766173223
 21
1933.296898876912
 31
0.0
  0
LINE
  5
90
330
17
100
AcDbEntity
  8
COTA
 62
7
370
25
100
AcDbLine
 10
5552.527766173223
 20
1919.296898876913
 30
0.0
 11
5552.527766173223
 21
1933.296898876912
 31
0.0
  0
LINE
  5
91
330
17
100
AcDbEntity
  8
Painéis
 62
7
370
25
100
AcDbLine
 10
5327.027766173217
 20
1919.296898876913
 30
0.0
 11
5552.527766173223
 21
1919.296898876913
 31
0.0
  0
LINE
  5
92
330
17
100
AcDbEntity
  8
Painéis
 62
7
370
25
100
AcDbLine
 10
5327.027766173217
 20
1889.296898876913
 30
0.0
 11
5552.527766173223
 21
1889.296898876913
 31
0.0
  0
LINE
  5
93
330
17
100
AcDbEntity
  8
Painéis
 62
7
370
25
100
AcDbLine
 10
5327.027766173217
 20
1889.296898876913
 30
0.0
 11
5327.027766173217
 21
1919.296898876913
 31
0.0
  0
LINE
  5
94
330
17
100
AcDbEntity
  8
Painéis
 62
7
370
25
100
AcDbLine
 10
5449.027766173223
 20
1889.296898876913
 30
0.0
 11
5449.027766173223
 21
1919.296898876913
 31
0.0
  0
LINE
  5
95
330
17
100
AcDbEntity
  8
Painéis
 62
7
370
25
100
AcDbLine
 10
5552.527766173223
 20
1889.296898876913
 30
0.0
 11
5552.527766173223
 21
1919.296898876913
 31
0.0
  0
LINE
  5
96
330
17
100
AcDbEntity
  8
SARR_2.2x7
 62
7
370
25
100
AcDbLine
 10
5334.027766173214
 20
1889.296898876913
 30
0.0
 11
5334.027766173214
 21
1919.296898876913
 31
0.0
  0
LINE
  5
97
330
17
100
AcDbEntity
  8
SARR_2.2x7
 62
7
370
25
100
AcDbLine
 10
5545.527766173222
 20
1889.296898876913
 30
0.0
 11
5545.527766173222
 21
1919.296898876913
 31
0.0
  0
LINE
  5
98
330
17
100
AcDbEntity
  8
SARR_2.2x7
 62
7
370
25
100
AcDbLine
 10
5342.027766173217
 20
1917.096898876915
 30
0.0
 11
5449.027766173223
 21
1917.096898876947
 31
0.0
  0
LINE
  5
99
330
17
100
AcDbEntity
  8
SARR_3.5x7
 62
7
370
25
100
AcDbLine
 10
5342.027766173217
 20
1919.296898876927
 30
0.0
 11
5342.027766173218
 21
1889.296898876913
 31
0.0
  0
LINE
  5
9A
330
17
100
AcDbEntity
  8
SARR_3.5x7
 62
7
370
25
100
AcDbLine
 10
5345.527766173217
 20
1917.09689887693
 30
0.0
 11
5345.527766173218
 21
1889.296898876913
 31
0.0
  0
LINE
  5
9B
330
17
100
AcDbEntity
  8
SARR_2.2x7
 62
7
370
25
100
AcDbLine
 10
5449.027766173221
 20
1917.096898876919
 30
0.0
 11
5537.52776617321
 21
1917.096898876919
 31
0.0
  0
LINE
  5
9C
330
17
100
AcDbEntity
  8
SARR_3.5x7
 62
7
370
25
100
AcDbLine
 10
5537.527766173212
 20
1919.296898876902
 30
0.0
 11
5537.527766173209
 21
1889.296898876913
 31
0.0
  0
LINE
  5
9D
330
17
100
AcDbEntity
  8
SARR_3.5x7
 62
7
370
25
100
AcDbLine
 10
5534.027766173212
 20
1917.096898876905
 30
0.0
 11
5534.027766173209
 21
1889.296898876913
 31
0.0
  0
LINE
  5
9E
330
17
100
AcDbEntity
  8
SARR_3.5x7
 62
7
370
25
100
AcDbLine
 10
5452.527766173251
 20
1917.096898876971
 30
0.0
 11
5452.527766173276
 21
1889.296898876913
 31
0.0
  0
LINE
  5
9F
330
17
100
AcDbEntity
  8
SARR_3.5x7
 62
7
370
25
100
AcDbLine
 10
5445.527766173164
 20
1917.096898877029
 30
0.0
 11
5445.527766173142
 21
1889.296898876913
 31
0.0
  0
LINE
  5
A0
330
17
100
AcDbEntity
  8
0
 62
7
370
25
100
AcDbLine
 10
5081.005598493058
 20
1848.813107461747
 30
0.0
 11
5081.005598493058
 21
1836.813107461748
 31
0.0
  0
LINE
  5
A1
330
17
100
AcDbEntity
  8
0
 62
7
370
25
100
AcDbLine
 10
5217.005598493088
 20
1845.813107461762
 30
0.0
 11
5217.005598493088
 21
1839.813107461762
 31
0.0
  0
LINE
  5
A2
330
17
100
AcDbEntity
  8
0
 62
7
370
25
100
AcDbLine
 10
5215.005598493088
 20
1848.813107461762
 30
0.0
 11
5215.005598493088
 21
1836.813107461762
 31
0.0
  0
LINE
  5
A3
330
17
100
AcDbEntity
  8
0
 62
7
370
25
100
AcDbLine
 10
5215.005598493088
 20
1839.813107461762
 30
0.0
 11
5217.005598493088
 21
1839.813107461762
 31
0.0
  0
LINE
  5
A4
330
17
100
AcDbEntity
  8
0
 62
7
370
25
100
AcDbLine
 10
5081.005598493058
 20
1836.813107461748
 30
0.0
 11
5111.005598493059
 21
1836.813107461748
 31
0.0
  0
LINE
  5
A5
330
17
100
AcDbEntity
  8
0
 62
7
370
25
100
AcDbLine
 10
5185.005598493088
 20
1841.813107461762
 30
0.0
 11
5215.005598493088
 21
1841.813107461762
 31
0.0
  0
LINE
  5
A6
330
17
100
AcDbEntity
  8
0
 62
7
370
25
100
AcDbLine
 10
5185.005598493088
 20
1843.813107461762
 30
0.0
 11
5215.005598493088
 21
1843.813107461762
 31
0.0
  0
LINE
  5
A7
330
17
100
AcDbEntity
  8
TENSOR
 62
7
370
25
100
AcDbLine
 10
5220.005598493088
 20
1842.813107461748
 30
0.0
 11
5075.70230431496
 21
1842.813107461748
 31
0.0
  0
LINE
  5
A8
330
17
100
AcDbEntity
  8
0
 62
7
370
25
100
AcDbLine
 10
5215.005598493088
 20
1845.813107461762
 30
0.0
 11
5217.005598493088
 21
1845.813107461762
 31
0.0
  0
LINE
  5
A9
330
17
100
AcDbEntity
  8
0
 62
7
370
25
100
AcDbLine
 10
5111.005598493059
 20
1841.813107461748
 30
0.0
 11
5081.005598493058
 21
1841.813107461748
 31
0.0
  0
LINE
  5
AA
330
17
100
AcDbEntity
  8
0
 62
7
370
25
100
AcDbLine
 10
5111.005598493059
 20
1843.813107461748
 30
0.0
 11
5081.005598493058
 21
1843.813107461748
 31
0.0
  0
LINE
  5
AB
330
17
100
AcDbEntity
  8
0
 62
7
370
25
100
AcDbLine
 10
5081.005598493058
 20
1848.813107461747
 30
0.0
 11
5111.005598493059
 21
1848.813107461747
 31
0.0
  0
LINE
  5
AC
330
17
100
AcDbEntity
  8
0
 62
7
370
25
100
AcDbLine
 10
5215.005598493088
 20
1836.813107461762
 30
0.0
 11
5185.005598493088
 21
1836.813107461762
 31
0.0
  0
LINE
  5
AD
330
17
100
AcDbEntity
  8
0
 62
7
370
25
100
AcDbLine
 10
5215.005598493088
 20
1848.813107461762
 30
0.0
 11
5185.005598493088
 21
1848.813107461762
 31
0.0
  0
LINE
  5
AE
330
17
100
AcDbEntity
  8
0
 62
7
370
25
100
AcDbLine
 10
5079.005598493059
 20
1845.813107461747
 30
0.0
 11
5079.005598493059
 21
1839.813107461748
 31
0.0
  0
LINE
  5
AF
330
17
100
AcDbEntity
  8
0
 62
7
370
25
100
AcDbLine
 10
5081.005598493058
 20
1839.813107461748
 30
0.0
 11
5079.005598493059
 21
1839.813107461748
 31
0.0
  0
LINE
  5
B0
330
17
100
AcDbEntity
  8
0
 62
7
370
25
100
AcDbLine
 10
5079.005598493059
 20
1845.813107461747
 30
0.0
 11
5081.005598493058
 21
1845.813107461747
 31
0.0
  0
LINE
  5
B1
330
17
100
AcDbEntity
  8
COTA
 62
7
370
25
100
AcDbLine
 10
4977.707468427921
 20
2025.843049933456
 30
0.0
 11
6347.707468427921
 21
2025.843049933456
 31
0.0
  0
LINE
  5
B2
330
17
100
AcDbEntity
  8
Painéis
 62
7
370
25
100
AcDbLine
 10
5666.263255056521
 20
1934.77267362831
 30
0.0
 11
5910.763255056527
 21
1934.77267362831
 31
0.0
  0
LINE
  5
B3
330
17
100
AcDbEntity
  8
Painéis
 62
7
370
25
100
AcDbLine
 10
5666.263255056521
 20
1890.77267362831
 30
0.0
 11
5891.763255056527
 21
1890.77267362831
 31
0.0
  0
LINE
  5
B4
330
17
100
AcDbEntity
  8
Painéis
 62
7
370
25
100
AcDbLine
 10
5666.263255056521
 20
1890.77267362831
 30
0.0
 11
5666.263255056521
 21
1934.77267362831
 31
0.0
  0
LINE
  5
B5
330
17
100
AcDbEntity
  8
Painéis
 62
7
370
25
100
AcDbLine
 10
5788.263255056527
 20
1890.77267362831
 30
0.0
 11
5788.263255056527
 21
1934.77267362831
 31
0.0
  0
LINE
  5
B6
330
17
100
AcDbEntity
  8
Painéis
 62
7
370
25
100
AcDbLine
 10
5910.763255056527
 20
1880.77267362831
 30
0.0
 11
5910.763255056527
 21
1934.77267362831
 31
0.0
  0
LINE
  5
B7
330
17
100
AcDbEntity
  8
SARR_2.2x7
 62
7
370
25
100
AcDbLine
 10
5673.263255056518
 20
1890.77267362831
 30
0.0
 11
5673.263255056518
 21
1934.77267362831
 31
0.0
  0
LINE
  5
B8
330
17
100
AcDbEntity
  8
SARR_2.2x7
 62
7
370
25
100
AcDbLine
 10
5903.763255056527
 20
1890.77267362831
 30
0.0
 11
5903.763255056527
 21
1934.77267362831
 31
0.0
  0
LINE
  5
B9
330
17
100
AcDbEntity
  8
SARR_2.2x7
 62
7
370
25
100
AcDbLine
 10
5681.263255056521
 20
1932.572673628313
 30
0.0
 11
5788.263255056527
 21
1932.572673628344
 31
0.0
  0
LINE
  5
BA
330
17
100
AcDbEntity
  8
SARR_3.5x7
 62
7
370
25
100
AcDbLine
 10
5681.263255056521
 20
1934.772673628325
 30
0.0
 11
5681.263255056522
 21
1890.77267362831
 31
0.0
  0
LINE
  5
BB
330
17
100
AcDbEntity
  8
SARR_3.5x7
 62
7
370
25
100
AcDbLine
 10
5684.763255056521
 20
1932.572673628328
 30
0.0
 11
5684.763255056522
 21
1890.77267362831
 31
0.0
  0
LINE
  5
BC
330
17
100
AcDbEntity
  8
SARR_2.2x7
 62
7
370
25
100
AcDbLine
 10
5788.263255056526
 20
1932.572673628317
 30
0.0
 11
5895.763255056515
 21
1932.572673628317
 31
0.0
  0
LINE
  5
BD
330
17
100
AcDbEntity
  8
SARR_3.5x7
 62
7
370
25
100
AcDbLine
 10
5895.763255056515
 20
1934.772673628299
 30
0.0
 11
5895.763255056513
 21
1890.77267362831
 31
0.0
  0
LINE
  5
BE
330
17
100
AcDbEntity
  8
SARR_3.5x7
 62
7
370
25
100
AcDbLine
 10
5892.263255056516
 20
1932.572673628302
 30
0.0
 11
5892.263255056513
 21
1890.77267362831
 31
0.0
  0
LINE
  5
BF
330
17
100
AcDbEntity
  8
SARR_3.5x7
 62
7
370
25
100
AcDbLine
 10
5791.763255056555
 20
1932.572673628368
 30
0.0
 11
5791.76325505658
 21
1890.77267362831
 31
0.0
  0
LINE
  5
C0
330
17
100
AcDbEntity
  8
SARR_3.5x7
 62
7
370
25
100
AcDbLine
 10
5784.763255056469
 20
1932.572673628426
 30
0.0
 11
5784.763255056446
 21
1890.77267362831
 31
0.0
  0
LINE
  5
C1
330
17
100
AcDbEntity
  8
Painéis
 62
7
370
25
100
AcDbLine
 10
6248.307041716522
 20
2106.06923913561
 30
0.0
 11
6178.452023600438
 21
2106.06923913561
 31
0.0
  0
LINE
  5
C2
330
17
100
AcDbEntity
  8
Painéis
 62
7
370
25
100
AcDbLine
 10
6248.307041716522
 20
2102.469239135619
 30
0.0
 11
6178.468185377052
 21
2102.469239135608
 31
0.0
  0
LINE
  5
C3
330
17
100
AcDbEntity
  8
Painéis
 62
7
370
25
100
AcDbLine
 10
6248.307041716522
 20
2106.06923913561
 30
0.0
 11
6248.307041716522
 21
2101.069239135617
 31
0.0
  0
LINE
  5
C4
330
17
100
AcDbEntity
  8
NOMENCLATURA
 62
7
370
25
100
AcDbLine
 10
5543.866885866466
 20
2185.092530603117
 30
0.0
 11
5586.631655751631
 21
2185.092530603117
 31
0.0
  0
LINE
  5
C5
330
17
100
AcDbEntity
  8
NOMENCLATURA
 62
7
370
25
100
AcDbLine
 10
5581.631655751631
 20
2190.070152492017
 30
0.0
 11
5581.631655751631
 21
2180.114908714215
 31
0.0
  0
LINE
  5
C6
330
17
100
AcDbEntity
  8
NOMENCLATURA
 62
7
370
25
100
AcDbLine
 10
5548.866885866466
 20
2190.070152492017
 30
0.0
 11
5548.866885866466
 21
2180.114908714215
 31
0.0
  0
LINE
  5
C7
330
17
100
AcDbEntity
  8
SARR_2.2x7
 62
7
370
25
100
AcDbLine
 10
5560.782656560879
 20
2394.967836359068
 30
0.0
 11
5605.782656560879
 21
2394.96783635907
 31
0.0
  0
LINE
  5
C8
330
17
100
AcDbEntity
  8
Painéis
 62
7
370
25
100
AcDbLine
 10
5891.763255056527
 20
1890.77267362831
 30
0.0
 11
5891.763255056527
 21
1880.77267362831
 31
0.0
  0
LINE
  5
C9
330
17
100
AcDbEntity
  8
Painéis
 62
7
370
25
100
AcDbLine
 10
5891.763255056527
 20
1880.77267362831
 30
0.0
 11
5910.763255056527
 21
1880.77267362831
 31
0.0
  0
LINE
  5
CA
330
17
100
AcDbEntity
  8
SARR_2.2x7
 62
7
370
25
100
AcDbLine
 10
5891.763255056527
 20
1890.77267362831
 30
0.0
 11
5910.763255056527
 21
1890.77267362831
 31
0.0
  0
LINE
  5
CB
330
17
100
AcDbEntity
  8
SARR_2.2x7
 62
7
370
25
100
AcDbLine
 10
5891.763255056527
 20
1885.77267362831
 30
0.0
 11
5910.763255056527
 21
1885.77267362831
 31
0.0
  0
LWPOLYLINE
  5
CC
330
17
100
AcDbEntity
  8
Painéis
 62
7
370
25
100
AcDbPolyline
 90
4
 70
0
 10
5134.284823006914
 20
2324.70579101953
 10
5138.284823006914
 20
2324.70579101953
 10
5138.284823006914
 20
2244.705791019552
 10
5134.284823006914
 20
2244.705791019552
  0
LWPOLYLINE
  5
CD
330
17
100
AcDbEntity
  8
Madeira
 62
7
370
25
100
AcDbPolyline
 90
4
 70
0
 10
5134.284823006914
 20
2320.305791019528
 10
5134.284823006914
 20
2324.70579101953
 10
5120.284823006914
 20
2324.70579101953
 10
5120.284823006914
 20
2320.305791019528
  0
LWPOLYLINE
  5
CE
330
17
100
AcDbEntity
  8
Madeira
 62
7
370
25
100
AcDbPolyline
 90
4
 70
0
 10
5100.284823006914
 20
2244.705791019552
 10
5100.284823006914
 20
2249.105791019546
 10
5120.284823006914
 20
2249.105791019546
 10
5120.284823006914
 20
2244.705791019552
  0
LWPOLYLINE
  5
CF
330
17
100
AcDbEntity
  8
Madeira
 62
7
370
25
100
AcDbPolyline
 90
4
 70
0
 10
5134.284823006914
 20
2324.70579101953
 10
5120.284823006914
 20
2324.70579101953
 10
5120.284823006914
 20
2244.705791019552
 10
5134.284823006914
 20
2244.705791019552
  0
LWPOLYLINE
  5
D0
330
17
100
AcDbEntity
  8
Madeira
 62
7
370
25
100
AcDbPolyline
 90
4
 70
0
 10
5176.284823006914
 20
2244.705791019552
 10
5176.284823006914
 20
2249.105791019546
 10
5162.284823006913
 20
2249.105791019546
 10
5162.284823006913
 20
2244.705791019552
  0
LWPOLYLINE
  5
D1
330
17
100
AcDbEntity
  8
Painéis
 62
7
370
25
100
AcDbPolyline
 90
4
 70
0
 10
5176.284823006914
 20
2249.105791019546
 10
5176.284823006914
 20
2252.705791019552
 10
5138.284823006914
 20
2252.705791019552
 10
5138.284823006914
 20
2249.105791019546
  0
LWPOLYLINE
  5
D2
330
17
100
AcDbEntity
  8
Madeira
 62
7
370
25
100
AcDbPolyline
 90
4
 70
0
 10
5138.284823006914
 20
2244.705791019552
 10
5138.284823006914
 20
2249.105791019546
 10
5152.284823006914
 20
2249.105791019546
 10
5152.284823006914
 20
2244.705791019552
  0
LWPOLYLINE
  5
D3
330
17
100
AcDbEntity
  8
Painéis
 62
7
370
25
100
AcDbPolyline
 90
4
 70
0
 10
5180.284823006914
 20
2324.70579101953
 10
5176.284823006914
 20
2324.70579101953
 10
5176.284823006914
 20
2244.705791019552
 10
5180.284823006914
 20
2244.705791019552
  0
LWPOLYLINE
  5
D4
330
17
100
AcDbEntity
  8
Painéis
 62
7
370
25
100
AcDbPolyline
 90
4
 70
0
 10
5236.284823006885
 20
2324.70579101953
 10
5236.284823006885
 20
2328.70579101953
 10
5176.284823006914
 20
2328.70579101953
 10
5176.284823006914
 20
2324.70579101953
  0
LWPOLYLINE
  5
D5
330
17
100
AcDbEntity
  8
Madeira
 62
7
370
25
100
AcDbPolyline
 90
4
 70
0
 10
5180.284823006914
 20
2320.305791019528
 10
5180.284823006914
 20
2324.70579101953
 10
5194.284823006913
 20
2324.70579101953
 10
5194.284823006913
 20
2320.305791019528
  0
LWPOLYLINE
  5
D6
330
17
100
AcDbEntity
  8
Madeira
 62
7
370
25
100
AcDbPolyline
 90
4
 70
0
 10
5214.284823006914
 20
2244.705791019552
 10
5214.284823006914
 20
2249.105791019546
 10
5194.284823006913
 20
2249.105791019546
 10
5194.284823006913
 20
2244.705791019552
  0
LWPOLYLINE
  5
D7
330
17
100
AcDbEntity
  8
Madeira
 62
7
370
25
100
AcDbPolyline
 90
4
 70
0
 10
5180.284823006914
 20
2324.70579101953
 10
5194.284823006913
 20
2324.70579101953
 10
5194.284823006913
 20
2244.705791019552
 10
5180.284823006914
 20
2244.705791019552
  0
LWPOLYLINE
  5
D8
330
17
100
AcDbEntity
  8
Painéis
 62
7
370
25
100
AcDbPolyline
 90
4
 70
0
 10
5138.284823006914
 20
2324.70579101953
 10
5138.284823006914
 20
2328.70579101953
 10
5082.684823006937
 20
2328.705791019523
 10
5082.684823006937
 20
2324.705791019523
  0
LWPOLYLINE
  5
D9
330
17
100
AcDbEntity
  8
CONCRETO
 62
7
370
25
100
AcDbPolyline
 90
8
 70
0
 10
5082.684823006937
 20
2328.705791019523
 10
5082.684823006937
 20
2352.705791019552
 10
5236.284823006885
 20
2352.705791019552
 10
5236.284823006885
 20
2328.705791019537
 10
5176.284823006914
 20
2328.705791019537
 10
5176.284823006856
 20
2252.705791019552
 10
5138.284823006914
 20
2252.705791019552
 10
5138.284823006914
 20
2328.70579101953
  0
LWPOLYLINE
  5
DA
330
17
100
AcDbEntity
  8
barrote
 62
7
370
25
100
AcDbPolyline
 90
4
 70
0
 10
5066.82962533502
 20
2224.705791019596
 10
5262.012565844714
 20
2224.705791019596
 10
5262.012565844714
 20
2244.705791019552
 10
5066.82962533502
 20
2244.705791019552
  0
LWPOLYLINE
  5
DB
330
17
100
AcDbEntity
  8
SCO-___-LAJ
 62
7
370
25
100
AcDbPolyline
 90
4
 70
0
 10
5075.831892750481
 20
2243.372377686225
 10
5243.137753263341
 20
2243.372377686218
 10
5243.137753263341
 20
2240.172697686242
 10
5075.831892750481
 20
2240.172697686249
  0
LWPOLYLINE
  5
DC
330
17
100
AcDbEntity
  8
Painéis
 62
7
370
25
100
AcDbPolyline
 90
4
 70
0
 10
5125.005598493088
 20
1872.843049933434
 10
5129.005598493088
 20
1872.843049933434
 10
5129.005598493088
 20
1812.843049933456
 10
5125.005598493088
 20
1812.843049933456
  0
LWPOLYLINE
  5
DD
330
17
100
AcDbEntity
  8
Madeira
 62
7
370
25
100
AcDbPolyline
 90
4
 70
0
 10
5125.005598493088
 20
1868.443049933433
 10
5125.005598493088
 20
1872.843049933434
 10
5111.005598493088
 20
1872.843049933434
 10
5111.005598493088
 20
1868.443049933433
  0
LWPOLYLINE
  5
DE
330
17
100
AcDbEntity
  8
Madeira
 62
7
370
25
100
AcDbPolyline
 90
4
 70
0
 10
5091.005598493087
 20
1812.843049933456
 10
5091.005598493087
 20
1817.24304993345
 10
5111.005598493088
 20
1817.24304993345
 10
5111.005598493088
 20
1812.843049933456
  0
LWPOLYLINE
  5
DF
330
17
100
AcDbEntity
  8
Madeira
 62
7
370
25
100
AcDbPolyline
 90
4
 70
0
 10
5125.005598493088
 20
1872.843049933434
 10
5111.005598493088
 20
1872.843049933434
 10
5111.005598493088
 20
1782.843049933456
 10
5125.005598493088
 20
1782.843049933456
  0
LWPOLYLINE
  5
E0
330
17
100
AcDbEntity
  8
Madeira
 62
7
370
25
100
AcDbPolyline
 90
4
 70
0
 10
5167.005598493087
 20
1812.843049933456
 10
5167.005598493087
 20
1817.24304993345
 10
5153.005598493088
 20
1817.24304993345
 10
5153.005598493088
 20
1812.843049933456
  0
LWPOLYLINE
  5
E1
330
17
100
AcDbEntity
  8
Painéis
 62
7
370
25
100
AcDbPolyline
 90
4
 70
0
 10
5167.005598493087
 20
1817.24304993345
 10
5167.005598493087
 20
1820.843049933456
 10
5129.005598493088
 20
1820.843049933456
 10
5129.005598493088
 20
1817.24304993345
  0
LWPOLYLINE
  5
E2
330
17
100
AcDbEntity
  8
Madeira
 62
7
370
25
100
AcDbPolyline
 90
4
 70
0
 10
5129.005598493088
 20
1812.843049933456
 10
5129.005598493088
 20
1817.24304993345
 10
5143.005598493088
 20
1817.24304993345
 10
5143.005598493088
 20
1812.843049933456
  0
LWPOLYLINE
  5
E3
330
17
100
AcDbEntity
  8
Painéis
 62
7
370
25
100
AcDbPolyline
 90
4
 70
0
 10
5171.005598493099
 20
1900.843049933456
 10
5167.005598493099
 20
1900.843049933456
 10
5167.005598493087
 20
1812.843049933456
 10
5171.005598493088
 20
1812.843049933456
  0
LWPOLYLINE
  5
E4
330
17
100
AcDbEntity
  8
Madeira
 62
7
370
25
100
AcDbPolyline
 90
4
 70
0
 10
5171.005598493099
 20
1896.443049933455
 10
5171.005598493099
 20
1900.843049933456
 10
5185.005598493098
 20
1900.843049933456
 10
5185.005598493098
 20
1896.443049933455
  0
LWPOLYLINE
  5
E5
330
17
100
AcDbEntity
  8
Madeira
 62
7
370
25
100
AcDbPolyline
 90
4
 70
0
 10
5205.005598493087
 20
1812.843049933456
 10
5205.005598493087
 20
1817.24304993345
 10
5185.005598493088
 20
1817.24304993345
 10
5185.005598493088
 20
1812.843049933456
  0
LWPOLYLINE
  5
E6
330
17
100
AcDbEntity
  8
Madeira
 62
7
370
25
100
AcDbPolyline
 90
4
 70
0
 10
5171.005598493099
 20
1900.843049933456
 10
5185.005598493098
 20
1900.843049933456
 10
5185.005598493088
 20
1812.843049933456
 10
5171.005598493088
 20
1812.843049933456
  0
LWPOLYLINE
  5
E7
330
17
100
AcDbEntity
  8
Painéis
 62
7
370
25
100
AcDbPolyline
 90
4
 70
0
 10
5129.005598493088
 20
1872.843049933434
 10
5129.005598493088
 20
1876.843049933435
 10
5073.405598493111
 20
1876.843049933427
 10
5073.405598493111
 20
1872.843049933427
  0
LWPOLYLINE
  5
E8
330
17
100
AcDbEntity
  8
CONCRETO
 62
7
370
25
100
AcDbPolyline
 90
8
 70
0
 10
5073.405598493111
 20
1876.843049933427
 10
5073.405598493111
 20
1900.843049933456
 10
5167.005598493097
 20
1900.843049933456
 10
5167.005598493097
 20
1872.843049933442
 10
5167.005598493087
 20
1872.843049933442
 10
5167.005598493029
 20
1820.843049933456
 10
5129.005598493088
 20
1820.843049933456
 10
5129.005598493088
 20
1876.843049933435
  0
LWPOLYLINE
  5
E9
330
17
100
AcDbEntity
  8
barrote
 62
7
370
25
100
AcDbPolyline
 90
4
 70
0
 10
5057.550400821194
 20
1792.8430499335
 10
5252.733341330888
 20
1792.8430499335
 10
5252.733341330888
 20
1812.843049933456
 10
5057.550400821194
 20
1812.843049933456
  0
LWPOLYLINE
  5
EA
330
17
100
AcDbEntity
  8
SCO-___-LAJ
 62
7
370
25
100
AcDbPolyline
 90
4
 70
0
 10
5066.552668236655
 20
1811.50963660013
 10
5233.858528749515
 20
1811.509636600122
 10
5233.858528749515
 20
1808.309956600146
 10
5066.552668236655
 20
1808.309956600154
  0
LWPOLYLINE
  5
EB
330
17
100
AcDbEntity
  8
Cotas
 62
7
370
25
100
AcDbPolyline
 90
4
 70
0
 10
6148.961319967111
 20
2139.468464150075
 10
6330.926121902896
 20
2139.468464150075
 10
6330.926121902896
 20
2038.032396041439
 10
6148.961319967111
 20
2038.032396041439
  0
LWPOLYLINE
  5
EC
330
17
100
AcDbEntity
  8
Madeira
 62
7
370
25
100
AcDbPolyline
 90
4
 70
0
 10
6209.944254916941
 20
2088.469239135608
 10
6209.944254916941
 20
2102.469239135611
 10
6202.94425491694
 20
2102.469239135611
 10
6202.94425491694
 20
2088.469239135608
  0
LWPOLYLINE
  5
ED
330
17
100
AcDbEntity
  8
Madeira
 62
7
370
25
100
AcDbPolyline
 90
3
 70
0
 10
6209.944254916941
 20
2102.469239135611
 10
6209.944254916941
 20
2088.469239135608
 10
6178.468185377052
 20
2088.469239135608
  0
LWPOLYLINE
  5
EE
330
17
100
AcDbEntity
  8
Madeira
 62
7
370
25
100
AcDbPolyline
 90
4
 70
0
 10
6234.327678758939
 20
2102.469239135619
 10
6248.307041716522
 20
2102.469239135619
 10
6248.307041716522
 20
2101.069239135617
 10
6234.327678758939
 20
2101.069239135617
  0
ENDSEC
  0
SECTION
  2
OBJECTS
  0
DICTIONARY
  5
A
330
0
100
AcDbDictionary
281
1
  3
ACAD_COLOR
350
B
  3
ACAD_GROUP
350
C
  3
ACAD_LAYOUT
350
D
  3
ACAD_MATERIAL
350
E
  3
ACAD_MLEADERSTYLE
350
F
  3
ACAD_MLINESTYLE
350
10
  3
ACAD_PLOTSETTINGS
350
11
  3
ACAD_PLOTSTYLENAME
350
12
  3
ACAD_SCALELIST
350
14
  3
ACAD_TABLESTYLE
350
15
  3
ACAD_VISUALSTYLE
350
16
  3
EZDXF_META
350
2D
  0
DICTIONARY
  5
B
330
A
100
AcDbDictionary
281
1
  0
DICTIONARY
  5
C
330
A
100
AcDbDictionary
281
1
  0
DICTIONARY
  5
D
330
A
100
AcDbDictionary
281
1
  3
Model
350
1A
  3
Layout1
350
1E
  0
DICTIONARY
  5
E
330
A
100
AcDbDictionary
281
1
  3
ByBlock
350
1F
  3
ByLayer
350
20
  3
Global
350
21
  0
DICTIONARY
  5
F
330
A
100
AcDbDictionary
281
1
  3
Standard
350
2C
  0
DICTIONARY
  5
10
330
A
100
AcDbDictionary
281
1
  3
Standard
350
22
  0
DICTIONARY
  5
11
330
A
100
AcDbDictionary
281
1
  0
ACDBDICTIONARYWDFLT
  5
12
330
A
100
AcDbDictionary
281
1
  3
Normal
350
13
100
AcDbDictionaryWithDefault
340
13
  0
ACDBPLACEHOLDER
  5
13
330
12
  0
DICTIONARY
  5
14
330
A
100
AcDbDictionary
281
1
  0
DICTIONARY
  5
15
330
A
100
AcDbDictionary
281
1
  0
DICTIONARY
  5
16
330
A
100
AcDbDictionary
281
1
  0
LAYOUT
  5
1A
330
D
100
AcDbPlotSettings
  1

  4
A3
  6

 40
7.5
 41
20.0
 42
7.5
 43
20.0
 44
420.0
 45
297.0
 46
0.0
 47
0.0
 48
0.0
 49
0.0
140
0.0
141
0.0
142
1.0
143
1.0
 70
1024
 72
1
 73
0
 74
5
  7

 75
16
 76
0
 77
2
 78
300
147
1.0
148
0.0
149
0.0
100
AcDbLayout
  1
Model
 70
1
 71
0
 10
0.0
 20
0.0
 11
420.0
 21
297.0
 12
0.0
 22
0.0
 32
0.0
 14
1e+20
 24
1e+20
 34
1e+20
 15
-1e+20
 25
-1e+20
 35
-1e+20
146
0.0
 13
0.0
 23
0.0
 33
0.0
 16
1.0
 26
0.0
 36
0.0
 17
0.0
 27
1.0
 37
0.0
 76
1
330
17
  0
LAYOUT
  5
1E
330
D
100
AcDbPlotSettings
  1

  4
A3
  6

 40
7.5
 41
20.0
 42
7.5
 43
20.0
 44
420.0
 45
297.0
 46
0.0
 47
0.0
 48
0.0
 49
0.0
140
0.0
141
0.0
142
1.0
143
1.0
 70
0
 72
1
 73
0
 74
5
  7

 75
16
 76
0
 77
2
 78
300
147
1.0
148
0.0
149
0.0
100
AcDbLayout
  1
Layout1
 70
1
 71
1
 10
0.0
 20
0.0
 11
420.0
 21
297.0
 12
0.0
 22
0.0
 32
0.0
 14
1e+20
 24
1e+20
 34
1e+20
 15
-1e+20
 25
-1e+20
 35
-1e+20
146
0.0
 13
0.0
 23
0.0
 33
0.0
 16
1.0
 26
0.0
 36
0.0
 17
0.0
 27
1.0
 37
0.0
 76
1
330
1B
  0
MATERIAL
  5
1F
102
{ACAD_REACTORS
330
E
102
}
330
E
100
AcDbMaterial
  1
ByBlock
  2

 70
0
 40
1.0
 71
1
 41
1.0
 91
-1023410177
 42
1.0
 72
1
  3

 73
1
 74
1
 75
1
 44
0.5
 73
0
 45
1.0
 46
1.0
 77
1
  4

 78
1
 79
1
170
1
 48
1.0
171
1
  6

172
1
173
1
174
1
140
1.0
141
1.0
175
1
  7

176
1
177
1
178
1
143
1.0
179
1
  8

270
1
271
1
272
1
145
1.0
146
1.0
273
1
  9

274
1
275
1
276
1
 42
1.0
 72
1
  3

 73
1
 74
1
 75
1
 94
63
  0
MATERIAL
  5
20
102
{ACAD_REACTORS
330
E
102
}
330
E
100
AcDbMaterial
  1
ByLayer
  2

 70
0
 40
1.0
 71
1
 41
1.0
 91
-1023410177
 42
1.0
 72
1
  3

 73
1
 74
1
 75
1
 44
0.5
 73
0
 45
1.0
 46
1.0
 77
1
  4

 78
1
 79
1
170
1
 48
1.0
171
1
  6

172
1
173
1
174
1
140
1.0
141
1.0
175
1
  7

176
1
177
1
178
1
143
1.0
179
1
  8

270
1
271
1
272
1
145
1.0
146
1.0
273
1
  9

274
1
275
1
276
1
 42
1.0
 72
1
  3

 73
1
 74
1
 75
1
 94
63
  0
MATERIAL
  5
21
102
{ACAD_REACTORS
330
E
102
}
330
E
100
AcDbMaterial
  1
Global
  2

 70
0
 40
1.0
 71
1
 41
1.0
 91
-1023410177
 42
1.0
 72
1
  3

 73
1
 74
1
 75
1
 44
0.5
 73
0
 45
1.0
 46
1.0
 77
1
  4

 78
1
 79
1
170
1
 48
1.0
171
1
  6

172
1
173
1
174
1
140
1.0
141
1.0
175
1
  7

176
1
177
1
178
1
143
1.0
179
1
  8

270
1
271
1
272
1
145
1.0
146
1.0
273
1
  9

274
1
275
1
276
1
 42
1.0
 72
1
  3

 73
1
 74
1
 75
1
 94
63
  0
MLINESTYLE
  5
22
102
{ACAD_REACTORS
330
10
102
}
330
10
100
AcDbMlineStyle
  2
Standard
 70
0
  3

 62
256
 51
90.0
 52
90.0
 71
2
 49
0.5
 62
256
  6
BYLAYER
 49
-0.5
 62
256
  6
BYLAYER
  0
MLEADERSTYLE
  5
2C
102
{ACAD_REACTORS
330
F
102
}
330
F
100
AcDbMLeaderStyle
179
2
170
2
171
1
172
0
 90
2
 40
0.0
 41
0.0
173
1
 91
-1056964608
 92
-2
290
1
 42
2.0
291
1
 43
8.0
  3
Standard
 44
4.0
300

342
29
174
1
175
1
176
0
178
1
 93
-1056964608
 45
4.0
292
0
297
0
 46
4.0
 94
-1056964608
 47
1.0
 49
1.0
140
1.0
294
1
141
0.0
177
0
142
1.0
295
0
296
0
143
3.75
271
0
272
9
273
9
  0
DICTIONARY
  5
2D
330
A
100
AcDbDictionary
280
1
281
1
  3
CREATED_BY_EZDXF
350
2E
  3
WRITTEN_BY_EZDXF
350
F1
  0
DICTIONARYVAR
  5
2E
330
2D
100
DictionaryVariables
280
0
  1
1.4.3 @ 2026-06-10T03:13:46.732965+00:00
  0
DICTIONARYVAR
  5
F1
330
2D
100
DictionaryVariables
280
0
  1
1.4.3 @ 2026-06-10T03:13:46.739812+00:00
  0
ENDSEC
  0
EOF
