  0
SECTION
  2
HEADER
  9
$ACADVER
  1
AC1024
  9
$ACADMAINTVER
 70
6
  9
$DWGCODEPAGE
  3
ANSI_1252
  9
$LASTSAVEDBY
  1
ezdxf
  9
$INSBASE
 10
0.0
 20
0.0
 30
0.0
  9
$EXTMIN
 10
1e+20
 20
1e+20
 30
1e+20
  9
$EXTMAX
 10
-1e+20
 20
-1e+20
 30
-1e+20
  9
$LIMMIN
 10
0.0
 20
0.0
  9
$LIMMAX
 10
420.0
 20
297.0
  9
$ORTHOMODE
 70
0
  9
$REGENMODE
 70
1
  9
$FILLMODE
 70
1
  9
$QTEXTMODE
 70
0
  9
$MIRRTEXT
 70
1
  9
$LTSCALE
 40
1.0
  9
$ATTMODE
 70
1
  9
$TEXTSIZE
 40
2.5
  9
$TRACEWID
 40
1.0
  9
$TEXTSTYLE
  7
Standard
  9
$CLAYER
  8
0
  9
$CELTYPE
  6
ByLayer
  9
$CECOLOR
 62
256
  9
$CELTSCALE
 40
1.0
  9
$DISPSILH
 70
0
  9
$DIMSCALE
 40
1.0
  9
$DIMASZ
 40
2.5
  9
$DIMEXO
 40
0.625
  9
$DIMDLI
 40
3.75
  9
$DIMRND
 40
0.0
  9
$DIMDLE
 40
0.0
  9
$DIMEXE
 40
1.25
  9
$DIMTP
 40
0.0
  9
$DIMTM
 40
0.0
  9
$DIMTXT
 40
2.5
  9
$DIMCEN
 40
2.5
  9
$DIMTSZ
 40
0.0
  9
$DIMTOL
 70
0
  9
$DIMLIM
 70
0
  9
$DIMTIH
 70
0
  9
$DIMTOH
 70
0
  9
$DIMSE1
 70
0
  9
$DIMSE2
 70
0
  9
$DIMTAD
 70
1
  9
$DIMZIN
 70
8
  9
$DIMBLK
  1

  9
$DIMASO
 70
1
  9
$DIMSHO
 70
1
  9
$DIMPOST
  1

  9
$DIMAPOST
  1

  9
$DIMALT
 70
0
  9
$DIMALTD
 70
3
  9
$DIMALTF
 40
0.03937007874
  9
$DIMLFAC
 40
1.0
  9
$DIMTOFL
 70
1
  9
$DIMTVP
 40
0.0
  9
$DIMTIX
 70
0
  9
$DIMSOXD
 70
0
  9
$DIMSAH
 70
0
  9
$DIMBLK1
  1

  9
$DIMBLK2
  1

  9
$DIMSTYLE
  2
ISO-25
  9
$DIMCLRD
 70
0
  9
$DIMCLRE
 70
0
  9
$DIMCLRT
 70
0
  9
$DIMTFAC
 40
1.0
  9
$DIMGAP
 40
0.625
  9
$DIMJUST
 70
0
  9
$DIMSD1
 70
0
  9
$DIMSD2
 70
0
  9
$DIMTOLJ
 70
0
  9
$DIMTZIN
 70
8
  9
$DIMALTZ
 70
0
  9
$DIMALTTZ
 70
0
  9
$DIMUPT
 70
0
  9
$DIMDEC
 70
2
  9
$DIMTDEC
 70
2
  9
$DIMALTU
 70
2
  9
$DIMALTTD
 70
3
  9
$DIMTXSTY
  7
Standard
  9
$DIMAUNIT
 70
0
  9
$DIMADEC
 70
0
  9
$DIMALTRND
 40
0.0
  9
$DIMAZIN
 70
0
  9
$DIMDSEP
 70
44
  9
$DIMATFIT
 70
3
  9
$DIMFRAC
 70
0
  9
$DIMLDRBLK
  1

  9
$DIMLUNIT
 70
2
  9
$DIMLWD
 70
-2
  9
$DIMLWE
 70
-2
  9
$DIMTMOVE
 70
0
  9
$DIMFXL
 40
1.0
  9
$DIMFXLON
 70
0
  9
$DIMJOGANG
 40
0.785398163397
  9
$DIMTFILL
 70
0
  9
$DIMTFILLCLR
 70
0
  9
$DIMARCSYM
 70
0
  9
$DIMLTYPE
  6

  9
$DIMLTEX1
  6

  9
$DIMLTEX2
  6

  9
$DIMTXTDIRECTION
 70
0
  9
$LUNITS
 70
2
  9
$LUPREC
 70
4
  9
$SKETCHINC
 40
1.0
  9
$FILLETRAD
 40
10.0
  9
$AUNITS
 70
0
  9
$AUPREC
 70
2
  9
$MENU
  1
.
  9
$ELEVATION
 40
0.0
  9
$PELEVATION
 40
0.0
  9
$THICKNESS
 40
0.0
  9
$LIMCHECK
 70
0
  9
$CHAMFERA
 40
0.0
  9
$CHAMFERB
 40
0.0
  9
$CHAMFERC
 40
0.0
  9
$CHAMFERD
 40
0.0
  9
$SKPOLY
 70
0
  9
$TDCREATE
 40
2461202.579652778
  9
$TDUCREATE
 40
2458532.153996898
  9
$TDUPDATE
 40
2461202.579652778
  9
$TDUUPDATE
 40
2458532.1544311
  9
$TDINDWG
 40
0.0
  9
$TDUSRTIMER
 40
0.0
  9
$USRTIMER
 70
1
  9
$ANGBASE
 50
0.0
  9
$ANGDIR
 70
0
  9
$PDMODE
 70
0
  9
$PDSIZE
 40
0.0
  9
$PLINEWID
 40
0.0
  9
$SPLFRAME
 70
0
  9
$SPLINETYPE
 70
6
  9
$SPLINESEGS
 70
8
  9
$HANDSEED
  5
13B
  9
$SURFTAB1
 70
6
  9
$SURFTAB2
 70
6
  9
$SURFTYPE
 70
6
  9
$SURFU
 70
6
  9
$SURFV
 70
6
  9
$UCSBASE
  2

  9
$UCSNAME
  2

  9
$UCSORG
 10
0.0
 20
0.0
 30
0.0
  9
$UCSXDIR
 10
1.0
 20
0.0
 30
0.0
  9
$UCSYDIR
 10
0.0
 20
1.0
 30
0.0
  9
$UCSORTHOREF
  2

  9
$UCSORTHOVIEW
 70
0
  9
$UCSORGTOP
 10
0.0
 20
0.0
 30
0.0
  9
$UCSORGBOTTOM
 10
0.0
 20
0.0
 30
0.0
  9
$UCSORGLEFT
 10
0.0
 20
0.0
 30
0.0
  9
$UCSORGRIGHT
 10
0.0
 20
0.0
 30
0.0
  9
$UCSORGFRONT
 10
0.0
 20
0.0
 30
0.0
  9
$UCSORGBACK
 10
0.0
 20
0.0
 30
0.0
  9
$PUCSBASE
  2

  9
$PUCSNAME
  2

  9
$PUCSORG
 10
0.0
 20
0.0
 30
0.0
  9
$PUCSXDIR
 10
1.0
 20
0.0
 30
0.0
  9
$PUCSYDIR
 10
0.0
 20
1.0
 30
0.0
  9
$PUCSORTHOREF
  2

  9
$PUCSORTHOVIEW
 70
0
  9
$PUCSORGTOP
 10
0.0
 20
0.0
 30
0.0
  9
$PUCSORGBOTTOM
 10
0.0
 20
0.0
 30
0.0
  9
$PUCSORGLEFT
 10
0.0
 20
0.0
 30
0.0
  9
$PUCSORGRIGHT
 10
0.0
 20
0.0
 30
0.0
  9
$PUCSORGFRONT
 10
0.0
 20
0.0
 30
0.0
  9
$PUCSORGBACK
 10
0.0
 20
0.0
 30
0.0
  9
$USERI1
 70
0
  9
$USERI2
 70
0
  9
$USERI3
 70
0
  9
$USERI4
 70
0
  9
$USERI5
 70
0
  9
$USERR1
 40
0.0
  9
$USERR2
 40
0.0
  9
$USERR3
 40
0.0
  9
$USERR4
 40
0.0
  9
$USERR5
 40
0.0
  9
$WORLDVIEW
 70
1
  9
$SHADEDGE
 70
3
  9
$SHADEDIF
 70
70
  9
$TILEMODE
 70
1
  9
$MAXACTVP
 70
64
  9
$PINSBASE
 10
0.0
 20
0.0
 30
0.0
  9
$PLIMCHECK
 70
0
  9
$PEXTMIN
 10
1e+20
 20
1e+20
 30
1e+20
  9
$PEXTMAX
 10
-1e+20
 20
-1e+20
 30
-1e+20
  9
$PLIMMIN
 10
0.0
 20
0.0
  9
$PLIMMAX
 10
420.0
 20
297.0
  9
$UNITMODE
 70
0
  9
$VISRETAIN
 70
1
  9
$PLINEGEN
 70
0
  9
$PSLTSCALE
 70
1
  9
$TREEDEPTH
 70
3020
  9
$CMLSTYLE
  2
Standard
  9
$CMLJUST
 70
0
  9
$CMLSCALE
 40
20.0
  9
$PROXYGRAPHICS
 70
1
  9
$MEASUREMENT
 70
1
  9
$CELWEIGHT
370
-1
  9
$ENDCAPS
280
0
  9
$JOINSTYLE
280
0
  9
$LWDISPLAY
290
0
  9
$INSUNITS
 70
6
  9
$HYPERLINKBASE
  1

  9
$STYLESHEET
  1

  9
$XEDIT
290
1
  9
$CEPSNTYPE
380
0
  9
$PSTYLEMODE
290
1
  9
$FINGERPRINTGUID
  2
{998AD0FD-D8BE-4503-820A-F25B245294F1}
  9
$VERSIONGUID
  2
{9EF528F5-039B-4BF1-B43B-7B22D51A1B84}
  9
$EXTNAMES
290
1
  9
$PSVPSCALE
 40
0.0
  9
$OLESTARTUP
290
0
  9
$SORTENTS
280
127
  9
$INDEXCTL
280
0
  9
$HIDETEXT
280
1
  9
$XCLIPFRAME
280
1
  9
$HALOGAP
280
0
  9
$OBSCOLOR
 70
257
  9
$OBSLTYPE
280
0
  9
$INTERSECTIONDISPLAY
280
0
  9
$INTERSECTIONCOLOR
 70
257
  9
$DIMASSOC
280
2
  9
$PROJECTNAME
  1

  9
$CAMERADISPLAY
290
0
  9
$LENSLENGTH
 40
50.0
  9
$CAMERAHEIGHT
 40
0.0
  9
$STEPSPERSEC
 40
24.0
  9
$STEPSIZE
 40
100.0
  9
$3DDWFPREC
 40
2.0
  9
$PSOLWIDTH
 40
0.005
  9
$PSOLHEIGHT
 40
0.08
  9
$LOFTANG1
 40
1.570796326795
  9
$LOFTANG2
 40
1.570796326795
  9
$LOFTMAG1
 40
0.0
  9
$LOFTMAG2
 40
0.0
  9
$LOFTPARAM
 70
7
  9
$LOFTNORMALS
280
1
  9
$LATITUDE
 40
37.795
  9
$LONGITUDE
 40
-122.394
  9
$NORTHDIRECTION
 40
0.0
  9
$TIMEZONE
 70
-8000
  9
$LIGHTGLYPHDISPLAY
280
1
  9
$TILEMODELIGHTSYNCH
280
1
  9
$CMATERIAL
347
20
  9
$SOLIDHIST
280
0
  9
$SHOWHIST
280
1
  9
$DWFFRAME
280
2
  9
$DGNFRAME
280
2
  9
$REALWORLDSCALE
290
1
  9
$INTERFERECOLOR
 62
256
  9
$CSHADOW
280
0
  9
$SHADOWPLANELOCATION
 40
0.0
  0
ENDSEC
  0
SECTION
  2
CLASSES
  0
CLASS
  1
ACDBDICTIONARYWDFLT
  2
AcDbDictionaryWithDefault
  3
ObjectDBX Classes
 90
0
 91
0
280
0
281
0
  0
CLASS
  1
SUN
  2
AcDbSun
  3
SCENEOE
 90
1153
 91
0
280
0
281
0
  0
CLASS
  1
VISUALSTYLE
  2
AcDbVisualStyle
  3
ObjectDBX Classes
 90
4095
 91
0
280
0
281
0
  0
CLASS
  1
MATERIAL
  2
AcDbMaterial
  3
ObjectDBX Classes
 90
1153
 91
0
280
0
281
0
  0
CLASS
  1
SCALE
  2
AcDbScale
  3
ObjectDBX Classes
 90
1153
 91
0
280
0
281
0
  0
CLASS
  1
TABLESTYLE
  2
AcDbTableStyle
  3
ObjectDBX Classes
 90
4095
 91
0
280
0
281
0
  0
CLASS
  1
MLEADERSTYLE
  2
AcDbMLeaderStyle
  3
ACDB_MLEADERSTYLE_CLASS
 90
4095
 91
0
280
0
281
0
  0
CLASS
  1
DICTIONARYVAR
  2
AcDbDictionaryVar
  3
ObjectDBX Classes
 90
0
 91
0
280
0
281
0
  0
CLASS
  1
CELLSTYLEMAP
  2
AcDbCellStyleMap
  3
ObjectDBX Classes
 90
1152
 91
0
280
0
281
0
  0
CLASS
  1
MENTALRAYRENDERSETTINGS
  2
AcDbMentalRayRenderSettings
  3
SCENEOE
 90
1024
 91
0
280
0
281
0
  0
CLASS
  1
ACDBDETAILVIEWSTYLE
  2
AcDbDetailViewStyle
  3
ObjectDBX Classes
 90
1025
 91
0
280
0
281
0
  0
CLASS
  1
ACDBSECTIONVIEWSTYLE
  2
AcDbSectionViewStyle
  3
ObjectDBX Classes
 90
1025
 91
0
280
0
281
0
  0
CLASS
  1
RASTERVARIABLES
  2
AcDbRasterVariables
  3
ISM
 90
0
 91
0
280
0
281
0
  0
CLASS
  1
LAYOUT
  2
AcDbLayout
  3
ObjectDBX Classes
 90
0
 91
0
280
0
281
0
  0
CLASS
  1
ACDBPLACEHOLDER
  2
AcDbPlaceHolder
  3
ObjectDBX Classes
 90
0
 91
0
280
0
281
0
  0
ENDSEC
  0
SECTION
  2
TABLES
  0
TABLE
  2
VPORT
  5
8
330
0
100
AcDbSymbolTable
 70
1
  0
VPORT
  5
23
330
8
100
AcDbSymbolTableRecord
100
AcDbViewportTableRecord
  2
*Active
 70
0
 10
0.0
 20
0.0
 11
1.0
 21
1.0
 12
0.0
 22
0.0
 13
0.0
 23
0.0
 14
0.5
 24
0.5
 15
0.5
 25
0.5
 16
0.0
 26
0.0
 36
1.0
 17
0.0
 27
0.0
 37
0.0
 40
1000.0
 41
1.34
 42
50.0
 43
0.0
 44
0.0
 50
0.0
 51
0.0
 71
0
 72
1000
 73
1
 74
3
 75
0
 76
0
 77
0
 78
0
281
0
 65
0
146
0.0
  0
ENDTAB
  0
TABLE
  2
LTYPE
  5
2
330
0
100
AcDbSymbolTable
 70
3
  0
LTYPE
  5
24
330
2
100
AcDbSymbolTableRecord
100
AcDbLinetypeTableRecord
  2
ByBlock
 70
0
  3

 72
65
 73
0
 40
0.0
  0
LTYPE
  5
25
330
2
100
AcDbSymbolTableRecord
100
AcDbLinetypeTableRecord
  2
ByLayer
 70
0
  3

 72
65
 73
0
 40
0.0
  0
LTYPE
  5
26
330
2
100
AcDbSymbolTableRecord
100
AcDbLinetypeTableRecord
  2
Continuous
 70
0
  3

 72
65
 73
0
 40
0.0
  0
ENDTAB
  0
TABLE
  2
LAYER
  5
1
330
0
100
AcDbSymbolTable
 70
19
  0
LAYER
  5
27
330
1
100
AcDbSymbolTableRecord
100
AcDbLayerTableRecord
  2
0
 70
0
 62
7
  6
Continuous
370
-3
390
13
347
21
  0
LAYER
  5
28
330
1
100
AcDbSymbolTableRecord
100
AcDbLayerTableRecord
  2
Defpoints
 70
0
 62
7
  6
Continuous
290
0
370
-3
390
13
347
21
  0
LAYER
  5
2F
330
1
100
AcDbSymbolTableRecord
100
AcDbLayerTableRecord
  2
Cotas
 70
0
 62
7
  6
Continuous
370
-3
390
13
347
21
  0
LAYER
  5
30
330
1
100
AcDbSymbolTableRecord
100
AcDbLayerTableRecord
  2
Madeira
 70
0
 62
7
  6
Continuous
370
-3
390
13
347
21
  0
LAYER
  5
31
330
1
100
AcDbSymbolTableRecord
100
AcDbLayerTableRecord
  2
5
 70
0
 62
7
  6
Continuous
370
-3
390
13
347
21
  0
LAYER
  5
32
330
1
100
AcDbSymbolTableRecord
100
AcDbLayerTableRecord
  2
detalhes
 70
0
 62
7
  6
Continuous
370
-3
390
13
347
21
  0
LAYER
  5
33
330
1
100
AcDbSymbolTableRecord
100
AcDbLayerTableRecord
  2
COTA
 70
0
 62
7
  6
Continuous
370
-3
390
13
347
21
  0
LAYER
  5
34
330
1
100
AcDbSymbolTableRecord
100
AcDbLayerTableRecord
  2
SCO-___-LAJ
 70
0
 62
7
  6
Continuous
370
-3
390
13
347
21
  0
LAYER
  5
35
330
1
100
AcDbSymbolTableRecord
100
AcDbLayerTableRecord
  2
Hachura
 70
0
 62
7
  6
Continuous
370
-3
390
13
347
21
  0
LAYER
  5
36
330
1
100
AcDbSymbolTableRecord
100
AcDbLayerTableRecord
  2
barrote
 70
0
 62
7
  6
Continuous
370
-3
390
13
347
21
  0
LAYER
  5
37
330
1
100
AcDbSymbolTableRecord
100
AcDbLayerTableRecord
  2
REAPROVEITAMENTO
 70
0
 62
7
  6
Continuous
370
-3
390
13
347
21
  0
LAYER
  5
38
330
1
100
AcDbSymbolTableRecord
100
AcDbLayerTableRecord
  2
presilha
 70
0
 62
7
  6
Continuous
370
-3
390
13
347
21
  0
LAYER
  5
39
330
1
100
AcDbSymbolTableRecord
100
AcDbLayerTableRecord
  2
Painéis
 70
0
 62
7
  6
Continuous
370
-3
390
13
347
21
  0
LAYER
  5
3A
330
1
100
AcDbSymbolTableRecord
100
AcDbLayerTableRecord
  2
SARR_3.5x7
 70
0
 62
7
  6
Continuous
370
-3
390
13
347
21
  0
LAYER
  5
3B
330
1
100
AcDbSymbolTableRecord
100
AcDbLayerTableRecord
  2
CONCRETO
 70
0
 62
7
  6
Continuous
370
-3
390
13
347
21
  0
LAYER
  5
3C
330
1
100
AcDbSymbolTableRecord
100
AcDbLayerTableRecord
  2
Texto Seção
 70
0
 62
7
  6
Continuous
370
-3
390
13
347
21
  0
LAYER
  5
3D
330
1
100
AcDbSymbolTableRecord
100
AcDbLayerTableRecord
  2
TEXTO PILAR
 70
0
 62
7
  6
Continuous
370
-3
390
13
347
21
  0
LAYER
  5
3E
330
1
100
AcDbSymbolTableRecord
100
AcDbLayerTableRecord
  2
SARR_2.2x7
 70
0
 62
7
  6
Continuous
370
-3
390
13
347
21
  0
LAYER
  5
3F
330
1
100
AcDbSymbolTableRecord
100
AcDbLayerTableRecord
  2
TENSOR
 70
0
 62
7
  6
Continuous
370
-3
390
13
347
21
  0
ENDTAB
  0
TABLE
  2
STYLE
  5
5
330
0
100
AcDbSymbolTable
 70
1
  0
STYLE
  5
29
330
5
100
AcDbSymbolTableRecord
100
AcDbTextStyleTableRecord
  2
Standard
 70
0
 40
0.0
 41
1.0
 50
0.0
 71
0
 42
2.5
  3
txt
  4

  0
ENDTAB
  0
TABLE
  2
VIEW
  5
7
330
0
100
AcDbSymbolTable
 70
0
  0
ENDTAB
  0
TABLE
  2
UCS
  5
6
330
0
100
AcDbSymbolTable
 70
0
  0
ENDTAB
  0
TABLE
  2
APPID
  5
3
330
0
100
AcDbSymbolTable
 70
3
  0
APPID
  5
2A
330
3
100
AcDbSymbolTableRecord
100
AcDbRegAppTableRecord
  2
ACAD
 70
0
  0
APPID
  5
138
330
3
100
AcDbSymbolTableRecord
100
AcDbRegAppTableRecord
  2
HATCHBACKGROUNDCOLOR
 70
0
  0
APPID
  5
139
330
3
100
AcDbSymbolTableRecord
100
AcDbRegAppTableRecord
  2
EZDXF
 70
0
  0
ENDTAB
  0
TABLE
  2
DIMSTYLE
  5
4
330
0
100
AcDbSymbolTable
 70
1
100
AcDbDimStyleTable
  0
DIMSTYLE
105
2B
330
4
100
AcDbSymbolTableRecord
100
AcDbDimStyleTableRecord
  2
Standard
 70
0
 40
1.0
 41
2.5
 42
0.625
 43
3.75
 44
1.25
 45
0.0
 46
0.0
 47
0.0
 48
0.0
 49
2.5
140
2.5
141
2.5
142
0.0
143
0.03937007874
144
1.0
145
0.0
146
1.0
147
0.625
148
0.0
 69
0
 70
0
 71
0
 72
0
 73
0
 74
0
 75
0
 76
0
 77
1
 78
8
 79
3
170
0
171
3
172
1
173
0
174
0
175
0
176
0
177
0
178
0
179
2
271
2
272
2
273
2
274
3
275
0
276
0
277
2
278
44
279
0
280
0
281
0
282
0
283
0
284
8
285
0
286
0
288
0
289
3
290
0
371
-2
372
-2
  0
ENDTAB
  0
TABLE
  2
BLOCK_RECORD
  5
9
330
0
100
AcDbSymbolTable
 70
2
  0
BLOCK_RECORD
  5
17
330
9
100
AcDbSymbolTableRecord
100
AcDbBlockTableRecord
  2
*Model_Space
340
1A
 70
0
280
1
281
0
  0
BLOCK_RECORD
  5
1B
330
9
100
AcDbSymbolTableRecord
100
AcDbBlockTableRecord
  2
*Paper_Space
340
1E
 70
0
280
1
281
0
  0
ENDTAB
  0
ENDSEC
  0
SECTION
  2
BLOCKS
  0
BLOCK
  5
18
330
17
100
AcDbEntity
  8
0
100
AcDbBlockBegin
  2
*Model_Space
 70
0
 10
0.0
 20
0.0
 30
0.0
  3
*Model_Space
  1

  0
ENDBLK
  5
19
330
17
100
AcDbEntity
  8
0
100
AcDbBlockEnd
  0
BLOCK
  5
1C
330
1B
100
AcDbEntity
  8
0
100
AcDbBlockBegin
  2
*Paper_Space
 70
0
 10
0.0
 20
0.0
 30
0.0
  3
*Paper_Space
  1

  0
ENDBLK
  5
1D
330
1B
100
AcDbEntity
  8
0
100
AcDbBlockEnd
  0
ENDSEC
  0
SECTION
  2
ENTITIES
  0
LINE
  5
40
330
17
100
AcDbEntity
  8
Defpoints
 62
7
370
25
100
AcDbLine
 10
3667.786959775754
 20
4649.85600639289
 30
0.0
 11
3667.786959775754
 21
4774.85600639289
 31
0.0
  0
LINE
  5
41
330
17
100
AcDbEntity
  8
presilha
 62
7
370
25
100
AcDbLine
 10
3624.7197606412155
 20
4531.22267305959
 30
0.0
 11
3624.7197606412155
 21
4526.622833059604
 31
0.0
  0
LINE
  5
42
330
17
100
AcDbEntity
  8
presilha
 62
7
370
25
100
AcDbLine
 10
3624.7197606412155
 20
4526.622833059604
 30
0.0
 11
3604.7193961368635
 21
4526.622833059597
 31
0.0
  0
LINE
  5
43
330
17
100
AcDbEntity
  8
presilha
 62
7
370
25
100
AcDbLine
 10
3603.7193961368635
 20
4534.22267305959
 30
0.0
 11
3604.7193961368635
 21
4534.22267305959
 31
0.0
  0
LINE
  5
44
330
17
100
AcDbEntity
  8
presilha
 62
7
370
25
100
AcDbLine
 10
3604.7193961368635
 20
4534.22267305959
 30
0.0
 11
3604.7193961368635
 21
4522.22267305959
 31
0.0
  0
LINE
  5
45
330
17
100
AcDbEntity
  8
presilha
 62
7
370
25
100
AcDbLine
 10
3604.7193961368635
 20
4522.22267305959
 30
0.0
 11
3603.7193961368635
 21
4522.22267305959
 31
0.0
  0
LINE
  5
46
330
17
100
AcDbEntity
  8
presilha
 62
7
370
25
100
AcDbLine
 10
3603.7193961368635
 20
4522.22267305959
 30
0.0
 11
3603.7193961368635
 21
4534.22267305959
 31
0.0
  0
LINE
  5
47
330
17
100
AcDbEntity
  8
presilha
 62
7
370
25
100
AcDbLine
 10
3607.7193961368616
 20
4537.889339726256
 30
0.0
 11
3607.7193961368616
 21
4536.889339726256
 31
0.0
  0
LINE
  5
48
330
17
100
AcDbEntity
  8
presilha
 62
7
370
25
100
AcDbLine
 10
3624.7197606412155
 20
4531.22267305959
 30
0.0
 11
3606.099760641216
 21
4531.22267305959
 31
0.0
  0
LINE
  5
49
330
17
100
AcDbEntity
  8
presilha
 62
7
370
25
100
AcDbLine
 10
3604.7197606412155
 20
4530.98267305959
 30
0.0
 11
3604.7193961368616
 21
4537.12933972626
 31
0.0
  0
LINE
  5
4A
330
17
100
AcDbEntity
  8
presilha
 62
7
370
25
100
AcDbLine
 10
3605.719760641215
 20
4531.6026730595895
 30
0.0
 11
3605.7193961368616
 21
4536.509339726257
 31
0.0
  0
LINE
  5
4B
330
17
100
AcDbEntity
  8
presilha
 62
7
370
25
100
AcDbLine
 10
3607.7193961368616
 20
4537.889339726256
 30
0.0
 11
3605.479396136842
 21
4537.889339726256
 31
0.0
  0
LINE
  5
4C
330
17
100
AcDbEntity
  8
presilha
 62
7
370
25
100
AcDbLine
 10
3607.7193961368616
 20
4536.889339726256
 30
0.0
 11
3606.099396136862
 21
4536.889339726256
 31
0.0
  0
LINE
  5
4D
330
17
100
AcDbEntity
  8
presilha
 62
7
370
25
100
AcDbLine
 10
3599.719396136863
 20
4532.556006392926
 30
0.0
 11
3603.719396136863
 21
4532.556006392926
 31
0.0
  0
LINE
  5
4E
330
17
100
AcDbEntity
  8
presilha
 62
7
370
25
100
AcDbLine
 10
3603.719396136863
 20
4532.556006392926
 30
0.0
 11
3603.719396136863
 21
4523.889339726259
 31
0.0
  0
LINE
  5
4F
330
17
100
AcDbEntity
  8
presilha
 62
7
370
25
100
AcDbLine
 10
3603.719396136863
 20
4523.889339726259
 30
0.0
 11
3599.719396136863
 21
4523.889339726259
 31
0.0
  0
LINE
  5
50
330
17
100
AcDbEntity
  8
presilha
 62
7
370
25
100
AcDbLine
 10
3599.719396136863
 20
4532.556006392926
 30
0.0
 11
3599.719396136863
 21
4523.889339726259
 31
0.0
  0
LINE
  5
51
330
17
100
AcDbEntity
  8
presilha
 62
7
370
25
100
AcDbLine
 10
3706.4541589102982
 20
4531.22267305959
 30
0.0
 11
3706.4541589102982
 21
4526.622833059604
 31
0.0
  0
LINE
  5
52
330
17
100
AcDbEntity
  8
presilha
 62
7
370
25
100
AcDbLine
 10
3706.4541589102982
 20
4526.622833059604
 30
0.0
 11
3726.4545234146503
 21
4526.622833059597
 31
0.0
  0
LINE
  5
53
330
17
100
AcDbEntity
  8
presilha
 62
7
370
25
100
AcDbLine
 10
3727.4545234146503
 20
4534.22267305959
 30
0.0
 11
3726.4545234146503
 21
4534.22267305959
 31
0.0
  0
LINE
  5
54
330
17
100
AcDbEntity
  8
presilha
 62
7
370
25
100
AcDbLine
 10
3726.4545234146503
 20
4534.22267305959
 30
0.0
 11
3726.4545234146503
 21
4522.22267305959
 31
0.0
  0
LINE
  5
55
330
17
100
AcDbEntity
  8
presilha
 62
7
370
25
100
AcDbLine
 10
3726.4545234146503
 20
4522.22267305959
 30
0.0
 11
3727.4545234146503
 21
4522.22267305959
 31
0.0
  0
LINE
  5
56
330
17
100
AcDbEntity
  8
presilha
 62
7
370
25
100
AcDbLine
 10
3727.4545234146503
 20
4522.22267305959
 30
0.0
 11
3727.4545234146503
 21
4534.22267305959
 31
0.0
  0
LINE
  5
57
330
17
100
AcDbEntity
  8
presilha
 62
7
370
25
100
AcDbLine
 10
3723.454523414652
 20
4537.889339726256
 30
0.0
 11
3723.454523414652
 21
4536.889339726256
 31
0.0
  0
LINE
  5
58
330
17
100
AcDbEntity
  8
presilha
 62
7
370
25
100
AcDbLine
 10
3706.4541589102982
 20
4531.22267305959
 30
0.0
 11
3725.0741589102977
 21
4531.22267305959
 31
0.0
  0
LINE
  5
59
330
17
100
AcDbEntity
  8
presilha
 62
7
370
25
100
AcDbLine
 10
3726.4541589102982
 20
4530.98267305959
 30
0.0
 11
3726.454523414652
 21
4537.12933972626
 31
0.0
  0
LINE
  5
5A
330
17
100
AcDbEntity
  8
presilha
 62
7
370
25
100
AcDbLine
 10
3725.4541589102987
 20
4531.6026730595895
 30
0.0
 11
3725.454523414652
 21
4536.509339726257
 31
0.0
  0
LINE
  5
5B
330
17
100
AcDbEntity
  8
presilha
 62
7
370
25
100
AcDbLine
 10
3723.454523414652
 20
4537.889339726256
 30
0.0
 11
3725.694523414672
 21
4537.889339726256
 31
0.0
  0
LINE
  5
5C
330
17
100
AcDbEntity
  8
presilha
 62
7
370
25
100
AcDbLine
 10
3723.454523414652
 20
4536.889339726256
 30
0.0
 11
3725.0745234146516
 21
4536.889339726256
 31
0.0
  0
LINE
  5
5D
330
17
100
AcDbEntity
  8
presilha
 62
7
370
25
100
AcDbLine
 10
3731.454523414651
 20
4532.556006392926
 30
0.0
 11
3727.454523414651
 21
4532.556006392926
 31
0.0
  0
LINE
  5
5E
330
17
100
AcDbEntity
  8
presilha
 62
7
370
25
100
AcDbLine
 10
3727.454523414651
 20
4532.556006392926
 30
0.0
 11
3727.454523414651
 21
4523.889339726259
 31
0.0
  0
LINE
  5
5F
330
17
100
AcDbEntity
  8
presilha
 62
7
370
25
100
AcDbLine
 10
3727.454523414651
 20
4523.889339726259
 30
0.0
 11
3731.454523414651
 21
4523.889339726259
 31
0.0
  0
LINE
  5
60
330
17
100
AcDbEntity
  8
presilha
 62
7
370
25
100
AcDbLine
 10
3731.454523414651
 20
4532.556006392926
 30
0.0
 11
3731.454523414651
 21
4523.889339726259
 31
0.0
  0
LINE
  5
61
330
17
100
AcDbEntity
  8
0
 62
7
370
25
100
AcDbLine
 10
3598.586959775729
 20
4587.82606392118
 30
0.0
 11
3598.586959775729
 21
4575.826063921181
 31
0.0
  0
LINE
  5
62
330
17
100
AcDbEntity
  8
0
 62
7
370
25
100
AcDbLine
 10
3734.586959775758
 20
4584.826063921195
 30
0.0
 11
3734.586959775758
 21
4578.826063921195
 31
0.0
  0
LINE
  5
63
330
17
100
AcDbEntity
  8
0
 62
7
370
25
100
AcDbLine
 10
3732.586959775757
 20
4587.826063921196
 30
0.0
 11
3732.586959775757
 21
4575.826063921196
 31
0.0
  0
LINE
  5
64
330
17
100
AcDbEntity
  8
0
 62
7
370
25
100
AcDbLine
 10
3732.586959775757
 20
4578.826063921195
 30
0.0
 11
3734.586959775758
 21
4578.826063921195
 31
0.0
  0
LINE
  5
65
330
17
100
AcDbEntity
  8
0
 62
7
370
25
100
AcDbLine
 10
3598.586959775729
 20
4575.826063921181
 30
0.0
 11
3628.586959775728
 21
4575.826063921181
 31
0.0
  0
LINE
  5
66
330
17
100
AcDbEntity
  8
0
 62
7
370
25
100
AcDbLine
 10
3702.586959775758
 20
4580.826063921196
 30
0.0
 11
3732.586959775757
 21
4580.826063921196
 31
0.0
  0
LINE
  5
67
330
17
100
AcDbEntity
  8
0
 62
7
370
25
100
AcDbLine
 10
3702.586959775758
 20
4582.826063921196
 30
0.0
 11
3732.586959775757
 21
4582.826063921196
 31
0.0
  0
LINE
  5
68
330
17
100
AcDbEntity
  8
TENSOR
 62
7
370
25
100
AcDbLine
 10
3737.586959775757
 20
4581.826063921181
 30
0.0
 11
3593.28366559763
 21
4581.826063921181
 31
0.0
  0
LINE
  5
69
330
17
100
AcDbEntity
  8
0
 62
7
370
25
100
AcDbLine
 10
3732.586959775757
 20
4584.826063921195
 30
0.0
 11
3734.586959775758
 21
4584.826063921195
 31
0.0
  0
LINE
  5
6A
330
17
100
AcDbEntity
  8
0
 62
7
370
25
100
AcDbLine
 10
3628.586959775728
 20
4580.826063921182
 30
0.0
 11
3598.586959775729
 21
4580.826063921182
 31
0.0
  0
LINE
  5
6B
330
17
100
AcDbEntity
  8
0
 62
7
370
25
100
AcDbLine
 10
3628.586959775728
 20
4582.826063921181
 30
0.0
 11
3598.586959775729
 21
4582.826063921181
 31
0.0
  0
LINE
  5
6C
330
17
100
AcDbEntity
  8
0
 62
7
370
25
100
AcDbLine
 10
3598.586959775729
 20
4587.82606392118
 30
0.0
 11
3628.586959775728
 21
4587.82606392118
 31
0.0
  0
LINE
  5
6D
330
17
100
AcDbEntity
  8
0
 62
7
370
25
100
AcDbLine
 10
3732.586959775757
 20
4575.826063921196
 30
0.0
 11
3702.586959775758
 21
4575.826063921196
 31
0.0
  0
LINE
  5
6E
330
17
100
AcDbEntity
  8
0
 62
7
370
25
100
AcDbLine
 10
3732.586959775757
 20
4587.826063921196
 30
0.0
 11
3702.586959775758
 21
4587.826063921196
 31
0.0
  0
LINE
  5
6F
330
17
100
AcDbEntity
  8
0
 62
7
370
25
100
AcDbLine
 10
3596.586959775728
 20
4584.826063921181
 30
0.0
 11
3596.586959775728
 21
4578.826063921181
 31
0.0
  0
LINE
  5
70
330
17
100
AcDbEntity
  8
0
 62
7
370
25
100
AcDbLine
 10
3598.586959775729
 20
4578.826063921181
 30
0.0
 11
3596.586959775728
 21
4578.826063921181
 31
0.0
  0
LINE
  5
71
330
17
100
AcDbEntity
  8
0
 62
7
370
25
100
AcDbLine
 10
3596.586959775728
 20
4584.826063921181
 30
0.0
 11
3598.586959775729
 21
4584.826063921181
 31
0.0
  0
LINE
  5
72
330
17
100
AcDbEntity
  8
COTA
 62
7
370
25
100
AcDbLine
 10
3898.23623983725
 20
4408.85962552712
 30
0.0
 11
3595.236239837248
 21
4408.859625527145
 31
0.0
  0
LINE
  5
73
330
17
100
AcDbEntity
  8
COTA
 62
7
370
25
100
AcDbLine
 10
3898.23623983725
 20
4391.85962552712
 30
0.0
 11
3898.23623983725
 21
4408.85962552712
 31
0.0
  0
LINE
  5
74
330
17
100
AcDbEntity
  8
SARR_2.2x7
 62
7
370
25
100
AcDbLine
 10
3595.236239837248
 20
4384.859625527145
 30
0.0
 11
3717.236239837248
 21
4384.859625527322
 31
0.0
  0
LINE
  5
75
330
17
100
AcDbEntity
  8
COTA
 62
7
370
25
100
AcDbLine
 10
3595.236239837248
 20
4391.859625527145
 30
0.0
 11
3595.236239837248
 21
4408.859625527145
 31
0.0
  0
LINE
  5
76
330
17
100
AcDbEntity
  8
Painéis
 62
7
370
25
100
AcDbLine
 10
3898.23623983725
 20
4391.85962552712
 30
0.0
 11
3595.236239837248
 21
4391.859625527145
 31
0.0
  0
LINE
  5
77
330
17
100
AcDbEntity
  8
Painéis
 62
7
370
25
100
AcDbLine
 10
3898.236239837242
 20
4349.859625527119
 30
0.0
 11
3595.236239837245
 21
4349.859625527145
 31
0.0
  0
LINE
  5
78
330
17
100
AcDbEntity
  8
Painéis
 62
7
370
25
100
AcDbLine
 10
3898.236239837242
 20
4349.859625527119
 30
0.0
 11
3898.23623983725
 21
4391.85962552712
 31
0.0
  0
LINE
  5
79
330
17
100
AcDbEntity
  8
Painéis
 62
7
370
25
100
AcDbLine
 10
3717.236239837244
 20
4349.859625527134
 30
0.0
 11
3717.236239837248
 21
4391.859625527134
 31
0.0
  0
LINE
  5
7A
330
17
100
AcDbEntity
  8
Painéis
 62
7
370
25
100
AcDbLine
 10
3595.236239837245
 20
4349.859625527145
 30
0.0
 11
3595.236239837248
 21
4391.859625527145
 31
0.0
  0
LINE
  5
7B
330
17
100
AcDbEntity
  8
SARR_2.2x7
 62
7
370
25
100
AcDbLine
 10
3717.236239837248
 20
4384.859625527322
 30
0.0
 11
3891.236239837246
 21
4384.859625527198
 31
0.0
  0
LINE
  5
7C
330
17
100
AcDbEntity
  8
COTA
 62
7
370
25
100
AcDbLine
 10
3466.997116235989
 20
4193.812204096704
 30
0.0
 11
3769.997116235989
 21
4193.812204096729
 31
0.0
  0
LINE
  5
7D
330
17
100
AcDbEntity
  8
COTA
 62
7
370
25
100
AcDbLine
 10
3466.997116235989
 20
4176.812204096703
 30
0.0
 11
3466.997116235989
 21
4193.812204096704
 31
0.0
  0
LINE
  5
7E
330
17
100
AcDbEntity
  8
SARR_2.2x7
 62
7
370
25
100
AcDbLine
 10
3769.997116235989
 20
4169.812204096729
 30
0.0
 11
3647.997116235991
 21
4169.812204096906
 31
0.0
  0
LINE
  5
7F
330
17
100
AcDbEntity
  8
COTA
 62
7
370
25
100
AcDbLine
 10
3769.997116235989
 20
4176.812204096729
 30
0.0
 11
3769.997116235989
 21
4193.812204096729
 31
0.0
  0
LINE
  5
80
330
17
100
AcDbEntity
  8
Painéis
 62
7
370
25
100
AcDbLine
 10
3466.997116235989
 20
4176.812204096703
 30
0.0
 11
3769.997116235989
 21
4176.812204096729
 31
0.0
  0
LINE
  5
81
330
17
100
AcDbEntity
  8
Painéis
 62
7
370
25
100
AcDbLine
 10
3466.997116235993
 20
4134.812204096703
 30
0.0
 11
3769.997116235992
 21
4134.812204096729
 31
0.0
  0
LINE
  5
82
330
17
100
AcDbEntity
  8
Painéis
 62
7
370
25
100
AcDbLine
 10
3466.997116235993
 20
4134.812204096703
 30
0.0
 11
3466.997116235989
 21
4176.812204096703
 31
0.0
  0
LINE
  5
83
330
17
100
AcDbEntity
  8
Painéis
 62
7
370
25
100
AcDbLine
 10
3647.997116235992
 20
4134.812204096718
 30
0.0
 11
3647.997116235989
 21
4176.812204096719
 31
0.0
  0
LINE
  5
84
330
17
100
AcDbEntity
  8
Painéis
 62
7
370
25
100
AcDbLine
 10
3769.997116235992
 20
4134.812204096729
 30
0.0
 11
3769.997116235989
 21
4176.812204096729
 31
0.0
  0
LINE
  5
85
330
17
100
AcDbEntity
  8
SARR_2.2x7
 62
7
370
25
100
AcDbLine
 10
3647.997116235989
 20
4169.8122040968
 30
0.0
 11
3473.997116235997
 21
4169.812204096784
 31
0.0
  0
LINE
  5
86
330
17
100
AcDbEntity
  8
SARR_2.2x7
 62
7
370
25
100
AcDbLine
 10
3891.236239837246
 20
4356.859625526629
 30
0.0
 11
3818.207060481891
 21
4356.859625527305
 31
0.0
  0
LINE
  5
87
330
17
100
AcDbEntity
  8
SARR_2.2x7
 62
7
370
25
100
AcDbLine
 10
3891.236239837246
 20
4367.959043348577
 30
0.0
 11
3818.236239837246
 21
4367.959043348519
 31
0.0
  0
LINE
  5
88
330
17
100
AcDbEntity
  8
SARR_2.2x7
 62
7
370
25
100
AcDbLine
 10
3891.236239837246
 20
4374.959043348277
 30
0.0
 11
3818.236239837246
 21
4374.959043348215
 31
0.0
  0
LINE
  5
89
330
17
100
AcDbEntity
  8
SARR_2.2x7
 62
7
370
25
100
AcDbLine
 10
3688.202044661223
 20
4356.859625526833
 30
0.0
 11
3637.191099078024
 21
4356.859625527305
 31
0.0
  0
LINE
  5
8A
330
17
100
AcDbEntity
  8
SARR_2.2x7
 62
7
370
25
100
AcDbLine
 10
3688.202116140497
 20
4371.459043348409
 30
0.0
 11
3637.220278433377
 21
4371.459043348367
 31
0.0
  0
LINE
  5
8B
330
17
100
AcDbEntity
  8
SARR_2.2x7
 62
7
370
25
100
AcDbLine
 10
3637.220278433377
 20
4364.45904334867
 30
0.0
 11
3637.220278433377
 21
4371.459043348367
 31
0.0
  0
LINE
  5
8C
330
17
100
AcDbEntity
  8
SARR_2.2x7
 62
7
370
25
100
AcDbLine
 10
3637.191099078024
 20
4349.859625527609
 30
0.0
 11
3637.191099078024
 21
4356.859625527305
 31
0.0
  0
LINE
  5
8D
330
17
100
AcDbEntity
  8
SARR_2.2x7
 62
7
370
25
100
AcDbLine
 10
3688.202116140497
 20
4364.459043348712
 30
0.0
 11
3688.202116140497
 21
4371.459043348409
 31
0.0
  0
LINE
  5
8E
330
17
100
AcDbEntity
  8
SARR_2.2x7
 62
7
370
25
100
AcDbLine
 10
3688.202044661223
 20
4349.859625527137
 30
0.0
 11
3688.202044661223
 21
4356.859625526833
 31
0.0
  0
LINE
  5
8F
330
17
100
AcDbEntity
  8
SARR_2.2x7
 62
7
370
25
100
AcDbLine
 10
3688.202116140497
 20
4364.45904334841
 30
0.0
 11
3637.220278433377
 21
4364.459043348367
 31
0.0
  0
LINE
  5
90
330
17
100
AcDbEntity
  8
SARR_2.2x7
 62
7
370
25
100
AcDbLine
 10
3818.236239837246
 20
4367.959043348519
 30
0.0
 11
3818.236239837246
 21
4374.959043348215
 31
0.0
  0
LINE
  5
91
330
17
100
AcDbEntity
  8
SARR_2.2x7
 62
7
370
25
100
AcDbLine
 10
3818.207060481891
 20
4349.859625527609
 30
0.0
 11
3818.207060481891
 21
4356.859625527305
 31
0.0
  0
LINE
  5
92
330
17
100
AcDbEntity
  8
SARR_2.2x7
 62
7
370
25
100
AcDbLine
 10
3473.997116235997
 20
4141.812204095741
 30
0.0
 11
3547.026295591285
 21
4141.812204096416
 31
0.0
  0
LINE
  5
93
330
17
100
AcDbEntity
  8
SARR_2.2x7
 62
7
370
25
100
AcDbLine
 10
3473.997116235994
 20
4152.273254634825
 30
0.0
 11
3546.997116235929
 21
4152.273254634766
 31
0.0
  0
LINE
  5
94
330
17
100
AcDbEntity
  8
SARR_2.2x7
 62
7
370
25
100
AcDbLine
 10
3473.997116235997
 20
4159.273254634525
 30
0.0
 11
3546.997116235929
 21
4159.273254634464
 31
0.0
  0
LINE
  5
95
330
17
100
AcDbEntity
  8
SARR_2.2x7
 62
7
370
25
100
AcDbLine
 10
3546.997116235929
 20
4152.273254634766
 30
0.0
 11
3546.997116235929
 21
4159.273254634464
 31
0.0
  0
LINE
  5
96
330
17
100
AcDbEntity
  8
SARR_2.2x7
 62
7
370
25
100
AcDbLine
 10
3547.026295591285
 20
4134.812204096718
 30
0.0
 11
3547.026295591285
 21
4141.812204096416
 31
0.0
  0
LINE
  5
97
330
17
100
AcDbEntity
  8
SARR_2.2x7
 62
7
370
25
100
AcDbLine
 10
3727.978882463835
 20
4141.812204096423
 30
0.0
 11
3676.967936880636
 21
4141.812204096894
 31
0.0
  0
LINE
  5
98
330
17
100
AcDbEntity
  8
SARR_2.2x7
 62
7
370
25
100
AcDbLine
 10
3727.978953943111
 20
4156.411621917998
 30
0.0
 11
3676.997116235991
 21
4156.411621917956
 31
0.0
  0
LINE
  5
99
330
17
100
AcDbEntity
  8
SARR_2.2x7
 62
7
370
25
100
AcDbLine
 10
3676.997116235991
 20
4149.411621918258
 30
0.0
 11
3676.997116235991
 21
4156.411621917956
 31
0.0
  0
LINE
  5
9A
330
17
100
AcDbEntity
  8
SARR_2.2x7
 62
7
370
25
100
AcDbLine
 10
3676.967936880636
 20
4134.812204097197
 30
0.0
 11
3676.967936880636
 21
4141.812204096894
 31
0.0
  0
LINE
  5
9B
330
17
100
AcDbEntity
  8
SARR_2.2x7
 62
7
370
25
100
AcDbLine
 10
3727.978953943111
 20
4149.411621918301
 30
0.0
 11
3727.978953943111
 21
4156.411621917998
 31
0.0
  0
LINE
  5
9C
330
17
100
AcDbEntity
  8
SARR_2.2x7
 62
7
370
25
100
AcDbLine
 10
3727.978882463835
 20
4134.812204096725
 30
0.0
 11
3727.978882463835
 21
4141.812204096423
 31
0.0
  0
LINE
  5
9D
330
17
100
AcDbEntity
  8
SARR_2.2x7
 62
7
370
25
100
AcDbLine
 10
3727.978953943111
 20
4149.411621917997
 30
0.0
 11
3676.997116235991
 21
4149.411621917955
 31
0.0
  0
LINE
  5
9E
330
17
100
AcDbEntity
  8
SARR_2.2x7
 62
7
370
25
100
AcDbLine
 10
3891.23623983725
 20
4349.859625527116
 30
0.0
 11
3891.236239837243
 21
4391.85962552712
 31
0.0
  0
LINE
  5
9F
330
17
100
AcDbEntity
  8
SARR_2.2x7
 62
7
370
25
100
AcDbLine
 10
3473.997116235997
 20
4134.812204096716
 30
0.0
 11
3473.997116235997
 21
4176.812204096704
 31
0.0
  0
LINE
  5
A0
330
17
100
AcDbEntity
  8
COTA
 62
7
370
25
100
AcDbLine
 10
3574.663273739972
 20
4394.859625527145
 30
0.0
 11
3574.663273739972
 21
4408.859625527146
 31
0.0
  0
LINE
  5
A1
330
17
100
AcDbEntity
  8
COTA
 62
7
370
25
100
AcDbLine
 10
3478.663273739972
 20
4408.85962552712
 30
0.0
 11
3478.663273739976
 21
4394.859625527121
 31
0.0
  0
LINE
  5
A2
330
17
100
AcDbEntity
  8
Painéis
 62
7
370
25
100
AcDbLine
 10
3574.663273739972
 20
4394.859625527145
 30
0.0
 11
3478.663273739984
 21
4394.859625527147
 31
0.0
  0
LINE
  5
A3
330
17
100
AcDbEntity
  8
Painéis
 62
7
370
25
100
AcDbLine
 10
3574.663273739972
 20
4349.859625527124
 30
0.0
 11
3478.663273739972
 21
4349.859625527124
 31
0.0
  0
LINE
  5
A4
330
17
100
AcDbEntity
  8
Painéis
 62
7
370
25
100
AcDbLine
 10
3574.663273739972
 20
4349.859625527124
 30
0.0
 11
3574.663273739972
 21
4394.859625527145
 31
0.0
  0
LINE
  5
A5
330
17
100
AcDbEntity
  8
Painéis
 62
7
370
25
100
AcDbLine
 10
3478.663273739972
 20
4349.859625527124
 30
0.0
 11
3478.663273739984
 21
4394.859625527147
 31
0.0
  0
LINE
  5
A6
330
17
100
AcDbEntity
  8
SARR_2.2x7
 62
7
370
25
100
AcDbLine
 10
3567.663273739976
 20
4349.859625527124
 30
0.0
 11
3567.663273739972
 21
4394.859625527145
 31
0.0
  0
LINE
  5
A7
330
17
100
AcDbEntity
  8
SARR_2.2x7
 62
7
370
25
100
AcDbLine
 10
3478.663273739982
 20
4387.859625527224
 30
0.0
 11
3567.663273739974
 21
4387.859625527261
 31
0.0
  0
LINE
  5
A8
330
17
100
AcDbEntity
  8
SARR_2.2x7
 62
7
370
25
100
AcDbLine
 10
3478.663273739974
 20
4356.859625527135
 30
0.0
 11
3567.663273739976
 21
4356.859625527095
 31
0.0
  0
LINE
  5
A9
330
17
100
AcDbEntity
  8
SARR_2.2x7
 62
7
370
25
100
AcDbLine
 10
3478.663273739978
 20
4368.517041591621
 30
0.0
 11
3567.663273739975
 21
4368.517041591572
 31
0.0
  0
LINE
  5
AA
330
17
100
AcDbEntity
  8
SARR_2.2x7
 62
7
370
25
100
AcDbLine
 10
3478.66327373998
 20
4375.517041591319
 30
0.0
 11
3567.663273739975
 21
4375.51704159127
 31
0.0
  0
LINE
  5
AB
330
17
100
AcDbEntity
  8
COTA
 62
7
370
25
100
AcDbLine
 10
3574.663273739972
 20
4408.859625527146
 30
0.0
 11
3478.663273739974
 21
4408.859625527146
 31
0.0
  0
LINE
  5
AC
330
17
100
AcDbEntity
  8
SARR_2.2x7
 62
7
370
25
100
AcDbLine
 10
3485.663273739972
 20
4349.859625527124
 30
0.0
 11
3485.663273739972
 21
4394.859625527147
 31
0.0
  0
LINE
  5
AD
330
17
100
AcDbEntity
  8
COTA
 62
7
370
25
100
AcDbLine
 10
3798.594786797295
 20
4179.812204096729
 30
0.0
 11
3798.594786797295
 21
4193.812204096729
 31
0.0
  0
LINE
  5
AE
330
17
100
AcDbEntity
  8
COTA
 62
7
370
25
100
AcDbLine
 10
3894.594786797295
 20
4193.812204096704
 30
0.0
 11
3894.594786797292
 21
4179.812204096704
 31
0.0
  0
LINE
  5
AF
330
17
100
AcDbEntity
  8
Painéis
 62
7
370
25
100
AcDbLine
 10
3798.594786797295
 20
4179.812204096729
 30
0.0
 11
3894.594786797284
 21
4179.812204096729
 31
0.0
  0
LINE
  5
B0
330
17
100
AcDbEntity
  8
Painéis
 62
7
370
25
100
AcDbLine
 10
3798.594786797295
 20
4134.812204096707
 30
0.0
 11
3894.594786797295
 21
4134.812204096707
 31
0.0
  0
LINE
  5
B1
330
17
100
AcDbEntity
  8
Painéis
 62
7
370
25
100
AcDbLine
 10
3798.594786797295
 20
4134.812204096707
 30
0.0
 11
3798.594786797295
 21
4179.812204096729
 31
0.0
  0
LINE
  5
B2
330
17
100
AcDbEntity
  8
Painéis
 62
7
370
25
100
AcDbLine
 10
3894.594786797295
 20
4134.812204096707
 30
0.0
 11
3894.594786797284
 21
4179.812204096729
 31
0.0
  0
LINE
  5
B3
330
17
100
AcDbEntity
  8
SARR_2.2x7
 62
7
370
25
100
AcDbLine
 10
3805.594786797292
 20
4134.812204096707
 30
0.0
 11
3805.594786797295
 21
4179.812204096729
 31
0.0
  0
LINE
  5
B4
330
17
100
AcDbEntity
  8
SARR_2.2x7
 62
7
370
25
100
AcDbLine
 10
3894.594786797286
 20
4172.812204096806
 30
0.0
 11
3805.594786797295
 21
4172.812204096845
 31
0.0
  0
LINE
  5
B5
330
17
100
AcDbEntity
  8
SARR_2.2x7
 62
7
370
25
100
AcDbLine
 10
3894.594786797294
 20
4141.812204096718
 30
0.0
 11
3805.594786797293
 21
4141.812204096677
 31
0.0
  0
LINE
  5
B6
330
17
100
AcDbEntity
  8
SARR_2.2x7
 62
7
370
25
100
AcDbLine
 10
3894.59478679729
 20
4153.469620161204
 30
0.0
 11
3805.594786797293
 21
4153.469620161154
 31
0.0
  0
LINE
  5
B7
330
17
100
AcDbEntity
  8
SARR_2.2x7
 62
7
370
25
100
AcDbLine
 10
3894.594786797288
 20
4160.469620160902
 30
0.0
 11
3805.594786797294
 21
4160.469620160854
 31
0.0
  0
LINE
  5
B8
330
17
100
AcDbEntity
  8
COTA
 62
7
370
25
100
AcDbLine
 10
3798.594786797295
 20
4193.812204096729
 30
0.0
 11
3894.594786797294
 21
4193.812204096729
 31
0.0
  0
LINE
  5
B9
330
17
100
AcDbEntity
  8
SARR_2.2x7
 62
7
370
25
100
AcDbLine
 10
3887.594786797296
 20
4134.812204096707
 30
0.0
 11
3887.594786797296
 21
4179.812204096729
 31
0.0
  0
LINE
  5
BA
330
17
100
AcDbEntity
  8
Defpoints
 62
7
370
25
100
AcDbLine
 10
4332.635475651297
 20
4649.856006392893
 30
0.0
 11
4332.635475651297
 21
4774.856006392893
 31
0.0
  0
LINE
  5
BB
330
17
100
AcDbEntity
  8
COTA
 62
7
370
25
100
AcDbLine
 10
4159.783329990943
 20
4398.716959358629
 30
0.0
 11
4159.783329990943
 21
4412.716959358629
 31
0.0
  0
LINE
  5
BC
330
17
100
AcDbEntity
  8
COTA
 62
7
370
25
100
AcDbLine
 10
4159.783329990943
 20
4412.716959358629
 30
0.0
 11
4614.783329990949
 21
4412.716959358629
 31
0.0
  0
LINE
  5
BD
330
17
100
AcDbEntity
  8
COTA
 62
7
370
25
100
AcDbLine
 10
4614.783329990949
 20
4398.716959358629
 30
0.0
 11
4614.783329990949
 21
4412.716959358629
 31
0.0
  0
LINE
  5
BE
330
17
100
AcDbEntity
  8
Painéis
 62
7
370
25
100
AcDbLine
 10
4159.783329990943
 20
4398.716959358629
 30
0.0
 11
4614.783329990949
 21
4398.716959358629
 31
0.0
  0
LINE
  5
BF
330
17
100
AcDbEntity
  8
Painéis
 62
7
370
25
100
AcDbLine
 10
4159.783329990943
 20
4358.71695935863
 30
0.0
 11
4614.783329990949
 21
4358.71695935863
 31
0.0
  0
LINE
  5
C0
330
17
100
AcDbEntity
  8
Painéis
 62
7
370
25
100
AcDbLine
 10
4159.783329990943
 20
4358.71695935863
 30
0.0
 11
4159.783329990943
 21
4398.716959358629
 31
0.0
  0
LINE
  5
C1
330
17
100
AcDbEntity
  8
Painéis
 62
7
370
25
100
AcDbLine
 10
4370.783329990948
 20
4358.71695935863
 30
0.0
 11
4370.783329990948
 21
4398.716959358629
 31
0.0
  0
LINE
  5
C2
330
17
100
AcDbEntity
  8
Painéis
 62
7
370
25
100
AcDbLine
 10
4614.783329990949
 20
4358.71695935863
 30
0.0
 11
4614.783329990949
 21
4398.716959358629
 31
0.0
  0
LINE
  5
C3
330
17
100
AcDbEntity
  8
Painéis
 62
7
370
25
100
AcDbLine
 10
4159.783329990943
 20
4218.812742314237
 30
0.0
 11
4419.783329990949
 21
4218.812742314237
 31
0.0
  0
LINE
  5
C4
330
17
100
AcDbEntity
  8
Painéis
 62
7
370
25
100
AcDbLine
 10
4159.783329990943
 20
4164.812742314238
 30
0.0
 11
4419.783329990949
 21
4164.812742314238
 31
0.0
  0
LINE
  5
C5
330
17
100
AcDbEntity
  8
Painéis
 62
7
370
25
100
AcDbLine
 10
4159.783329990943
 20
4164.812742314238
 30
0.0
 11
4159.783329990943
 21
4218.812742314237
 31
0.0
  0
LINE
  5
C6
330
17
100
AcDbEntity
  8
Painéis
 62
7
370
25
100
AcDbLine
 10
4297.783329990949
 20
4164.812742314238
 30
0.0
 11
4297.783329990949
 21
4218.812742314237
 31
0.0
  0
LINE
  5
C7
330
17
100
AcDbEntity
  8
Painéis
 62
7
370
25
100
AcDbLine
 10
4419.783329990949
 20
4164.812742314238
 30
0.0
 11
4419.783329990949
 21
4218.812742314237
 31
0.0
  0
LINE
  5
C8
330
17
100
AcDbEntity
  8
SARR_2.2x7
 62
7
370
25
100
AcDbLine
 10
4166.78332999094
 20
4358.71695935863
 30
0.0
 11
4166.78332999094
 21
4398.716959358629
 31
0.0
  0
LINE
  5
C9
330
17
100
AcDbEntity
  8
SARR_2.2x7
 62
7
370
25
100
AcDbLine
 10
4166.78332999094
 20
4164.812742314238
 30
0.0
 11
4166.783329990943
 21
4218.812742314237
 31
0.0
  0
LINE
  5
CA
330
17
100
AcDbEntity
  8
SARR_2.2x7
 62
7
370
25
100
AcDbLine
 10
4607.783329990949
 20
4358.71695935863
 30
0.0
 11
4607.783329990949
 21
4398.716959358629
 31
0.0
  0
LINE
  5
CB
330
17
100
AcDbEntity
  8
SARR_2.2x7
 62
7
370
25
100
AcDbLine
 10
4412.783329990949
 20
4164.812742314236
 30
0.0
 11
4412.783329990949
 21
4218.812742314237
 31
0.0
  0
LINE
  5
CC
330
17
100
AcDbEntity
  8
SARR_2.2x7
 62
7
370
25
100
AcDbLine
 10
4166.78332999094
 20
4391.716959358629
 30
0.0
 11
4607.783329990949
 21
4391.716959358629
 31
0.0
  0
LINE
  5
CD
330
17
100
AcDbEntity
  8
SARR_2.2x7
 62
7
370
25
100
AcDbLine
 10
4166.78332999094
 20
4365.716959358629
 30
0.0
 11
4607.783329990949
 21
4365.716959358629
 31
0.0
  0
LINE
  5
CE
330
17
100
AcDbEntity
  8
SARR_2.2x7
 62
7
370
25
100
AcDbLine
 10
4166.783329990943
 20
4211.812742314331
 30
0.0
 11
4297.783329990949
 21
4211.81274231434
 31
0.0
  0
LINE
  5
CF
330
17
100
AcDbEntity
  8
SARR_2.2x7
 62
7
370
25
100
AcDbLine
 10
4166.783329990922
 20
4188.594617797784
 30
0.0
 11
4297.783329990949
 21
4188.594617797795
 31
0.0
  0
LINE
  5
D0
330
17
100
AcDbEntity
  8
SARR_2.2x7
 62
7
370
25
100
AcDbLine
 10
4166.783329990948
 20
4195.594617797482
 30
0.0
 11
4297.783329990949
 21
4195.594617797497
 31
0.0
  0
LINE
  5
D1
330
17
100
AcDbEntity
  8
SARR_2.2x7
 62
7
370
25
100
AcDbLine
 10
4166.783329990943
 20
4171.812742314145
 30
0.0
 11
4297.783329990949
 21
4171.812742314133
 31
0.0
  0
LINE
  5
D2
330
17
100
AcDbEntity
  8
SARR_2.2x7
 62
7
370
25
100
AcDbLine
 10
4297.783329990949
 20
4211.812742314324
 30
0.0
 11
4412.783329990949
 21
4211.812742314335
 31
0.0
  0
LINE
  5
D3
330
17
100
AcDbEntity
  8
SARR_2.2x7
 62
7
370
25
100
AcDbLine
 10
4297.783329990949
 20
4188.594617797778
 30
0.0
 11
4412.783329990949
 21
4188.594617797789
 31
0.0
  0
LINE
  5
D4
330
17
100
AcDbEntity
  8
SARR_2.2x7
 62
7
370
25
100
AcDbLine
 10
4297.783329990949
 20
4195.594617797474
 30
0.0
 11
4412.783329990949
 21
4195.594617797488
 31
0.0
  0
LINE
  5
D5
330
17
100
AcDbEntity
  8
SARR_2.2x7
 62
7
370
25
100
AcDbLine
 10
4297.783329990949
 20
4171.812742314152
 30
0.0
 11
4412.783329990949
 21
4171.812742314142
 31
0.0
  0
LINE
  5
D6
330
17
100
AcDbEntity
  8
SARR_2.2x7
 62
7
370
25
100
AcDbLine
 10
4166.78332999094
 20
4375.216959358659
 30
0.0
 11
4370.783329990948
 21
4375.216959358495
 31
0.0
  0
LINE
  5
D7
330
17
100
AcDbEntity
  8
SARR_2.2x7
 62
7
370
25
100
AcDbLine
 10
4166.78332999094
 20
4382.216959358356
 30
0.0
 11
4370.783329990948
 21
4382.216959358194
 31
0.0
  0
LINE
  5
D8
330
17
100
AcDbEntity
  8
SARR_2.2x7
 62
7
370
25
100
AcDbLine
 10
4370.783329990948
 20
4375.216959358659
 30
0.0
 11
4607.783329990949
 21
4375.216959358469
 31
0.0
  0
LINE
  5
D9
330
17
100
AcDbEntity
  8
SARR_2.2x7
 62
7
370
25
100
AcDbLine
 10
4370.783329990948
 20
4382.216959358356
 30
0.0
 11
4607.783329990949
 21
4382.216959358167
 31
0.0
  0
LINE
  5
DA
330
17
100
AcDbEntity
  8
COTA
 62
7
370
25
100
AcDbLine
 10
4077.707468427921
 20
4774.856006392896
 30
0.0
 11
4077.707468427921
 21
4004.099519803792
 31
0.0
  0
LINE
  5
DB
330
17
100
AcDbEntity
  8
Painéis
 62
7
370
25
100
AcDbLine
 10
4008.586092569807
 20
4621.422797109505
 30
0.0
 11
3970.631074453724
 21
4621.422797109505
 31
0.0
  0
LINE
  5
DC
330
17
100
AcDbEntity
  8
Painéis
 62
7
370
25
100
AcDbLine
 10
4008.586092569807
 20
4503.422797109513
 30
0.0
 11
3970.647236230337
 21
4503.422797109503
 31
0.0
  0
LINE
  5
DD
330
17
100
AcDbEntity
  8
Painéis
 62
7
370
25
100
AcDbLine
 10
3970.647236230337
 20
4503.422797109503
 30
0.0
 11
3970.631074453724
 21
4621.422797109505
 31
0.0
  0
LINE
  5
DE
330
17
100
AcDbEntity
  8
Painéis
 62
7
370
25
100
AcDbLine
 10
4008.586092569807
 20
4621.422797109505
 30
0.0
 11
4008.586092569807
 21
4503.422797109513
 31
0.0
  0
LWPOLYLINE
  5
DF
330
17
100
AcDbEntity
  8
Painéis
 62
7
370
25
100
AcDbPolyline
 90
4
 70
1
 10
3642.586959775758
 20
4615.856006392868
 10
3646.586959775758
 20
4615.856006392868
 10
3646.586959775758
 20
4531.85600639289
 10
3642.586959775758
 20
4531.85600639289
  0
LWPOLYLINE
  5
E0
330
17
100
AcDbEntity
  8
Madeira
 62
7
370
25
100
AcDbPolyline
 90
4
 70
1
 10
3642.586959775758
 20
4611.456006392866
 10
3642.586959775758
 20
4615.856006392868
 10
3628.586959775758
 20
4615.856006392868
 10
3628.586959775758
 20
4611.456006392866
  0
LWPOLYLINE
  5
E1
330
17
100
AcDbEntity
  8
Madeira
 62
7
370
25
100
AcDbPolyline
 90
4
 70
1
 10
3608.586959775757
 20
4531.85600639289
 10
3608.586959775757
 20
4536.256006392884
 10
3628.586959775758
 20
4536.256006392884
 10
3628.586959775758
 20
4531.85600639289
  0
LWPOLYLINE
  5
E2
330
17
100
AcDbEntity
  8
Madeira
 62
7
370
25
100
AcDbPolyline
 90
4
 70
1
 10
3642.586959775758
 20
4615.856006392868
 10
3628.586959775758
 20
4615.856006392868
 10
3628.586959775758
 20
4531.85600639289
 10
3642.586959775758
 20
4531.85600639289
  0
LWPOLYLINE
  5
E3
330
17
100
AcDbEntity
  8
Madeira
 62
7
370
25
100
AcDbPolyline
 90
4
 70
1
 10
3684.586959775758
 20
4531.85600639289
 10
3684.586959775758
 20
4536.256006392884
 10
3670.586959775758
 20
4536.256006392884
 10
3670.586959775758
 20
4531.85600639289
  0
LWPOLYLINE
  5
E4
330
17
100
AcDbEntity
  8
Painéis
 62
7
370
25
100
AcDbPolyline
 90
4
 70
1
 10
3684.586959775758
 20
4536.256006392884
 10
3684.586959775758
 20
4539.85600639289
 10
3646.586959775758
 20
4539.85600639289
 10
3646.586959775758
 20
4536.256006392884
  0
LWPOLYLINE
  5
E5
330
17
100
AcDbEntity
  8
Madeira
 62
7
370
25
100
AcDbPolyline
 90
4
 70
1
 10
3646.586959775758
 20
4531.85600639289
 10
3646.586959775758
 20
4536.256006392884
 10
3660.586959775758
 20
4536.256006392884
 10
3660.586959775758
 20
4531.85600639289
  0
LWPOLYLINE
  5
E6
330
17
100
AcDbEntity
  8
Painéis
 62
7
370
25
100
AcDbPolyline
 90
4
 70
1
 10
3688.586959775758
 20
4615.856006392868
 10
3684.586959775758
 20
4615.856006392868
 10
3684.586959775758
 20
4531.85600639289
 10
3688.586959775758
 20
4531.85600639289
  0
LWPOLYLINE
  5
E7
330
17
100
AcDbEntity
  8
Painéis
 62
7
370
25
100
AcDbPolyline
 90
4
 70
1
 10
3744.586959775728
 20
4615.856006392868
 10
3744.586959775728
 20
4619.856006392867
 10
3684.586959775758
 20
4619.856006392867
 10
3684.586959775758
 20
4615.856006392868
  0
LWPOLYLINE
  5
E8
330
17
100
AcDbEntity
  8
Madeira
 62
7
370
25
100
AcDbPolyline
 90
4
 70
1
 10
3688.586959775758
 20
4611.456006392866
 10
3688.586959775758
 20
4615.856006392868
 10
3702.586959775758
 20
4615.856006392868
 10
3702.586959775758
 20
4611.456006392866
  0
LWPOLYLINE
  5
E9
330
17
100
AcDbEntity
  8
Madeira
 62
7
370
25
100
AcDbPolyline
 90
4
 70
1
 10
3722.586959775757
 20
4531.85600639289
 10
3722.586959775757
 20
4536.256006392884
 10
3702.586959775758
 20
4536.256006392884
 10
3702.586959775758
 20
4531.85600639289
  0
LWPOLYLINE
  5
EA
330
17
100
AcDbEntity
  8
Madeira
 62
7
370
25
100
AcDbPolyline
 90
4
 70
1
 10
3688.586959775758
 20
4615.856006392868
 10
3702.586959775758
 20
4615.856006392868
 10
3702.586959775758
 20
4531.85600639289
 10
3688.586959775758
 20
4531.85600639289
  0
LWPOLYLINE
  5
EB
330
17
100
AcDbEntity
  8
Painéis
 62
7
370
25
100
AcDbPolyline
 90
4
 70
1
 10
3646.586959775758
 20
4615.856006392868
 10
3646.586959775758
 20
4619.856006392867
 10
3590.986959775781
 20
4619.85600639286
 10
3590.986959775781
 20
4615.856006392861
  0
LWPOLYLINE
  5
EC
330
17
100
AcDbEntity
  8
CONCRETO
 62
7
370
25
100
AcDbPolyline
 90
8
 70
1
 10
3590.986959775781
 20
4619.85600639286
 10
3590.986959775781
 20
4649.85600639289
 10
3744.586959775728
 20
4649.85600639289
 10
3744.586959775728
 20
4619.856006392875
 10
3684.586959775758
 20
4619.856006392875
 10
3684.5869597757
 20
4539.85600639289
 10
3646.586959775758
 20
4539.85600639289
 10
3646.586959775758
 20
4619.856006392867
  0
LWPOLYLINE
  5
ED
330
17
100
AcDbEntity
  8
barrote
 62
7
370
25
100
AcDbPolyline
 90
4
 70
1
 10
3575.131762103864
 20
4511.856006392934
 10
3770.314702613557
 20
4511.856006392934
 10
3770.314702613557
 20
4531.85600639289
 10
3575.131762103864
 20
4531.85600639289
  0
LWPOLYLINE
  5
EE
330
17
100
AcDbEntity
  8
SCO-___-LAJ
 62
7
370
25
100
AcDbPolyline
 90
4
 70
1
 10
3584.134029519324
 20
4530.522593059563
 10
3751.439890032185
 20
4530.522593059556
 10
3751.439890032185
 20
4527.32291305958
 10
3584.134029519324
 20
4527.322913059587
  0
LWPOLYLINE
  5
EF
330
17
100
AcDbEntity
  8
Painéis
 62
7
370
25
100
AcDbPolyline
 90
4
 70
1
 10
4309.635475651268
 20
4619.856006392871
 10
4313.635475651268
 20
4619.856006392871
 10
4313.635475651268
 20
4541.856006392893
 10
4309.635475651268
 20
4541.856006392893
  0
LWPOLYLINE
  5
F0
330
17
100
AcDbEntity
  8
Madeira
 62
7
370
25
100
AcDbPolyline
 90
4
 70
1
 10
4351.635475651268
 20
4541.856006392893
 10
4351.635475651268
 20
4546.256006392886
 10
4341.635475651268
 20
4546.256006392886
 10
4341.635475651268
 20
4541.856006392893
  0
LWPOLYLINE
  5
F1
330
17
100
AcDbEntity
  8
Painéis
 62
7
370
25
100
AcDbPolyline
 90
4
 70
1
 10
4351.635475651268
 20
4546.256006392886
 10
4351.635475651268
 20
4549.856006392892
 10
4313.635475651268
 20
4549.856006392892
 10
4313.635475651268
 20
4546.256006392886
  0
LWPOLYLINE
  5
F2
330
17
100
AcDbEntity
  8
Madeira
 62
7
370
25
100
AcDbPolyline
 90
4
 70
1
 10
4313.635475651268
 20
4541.856006392893
 10
4313.635475651268
 20
4546.256006392886
 10
4323.635475651268
 20
4546.256006392886
 10
4323.635475651268
 20
4541.856006392893
  0
LWPOLYLINE
  5
F3
330
17
100
AcDbEntity
  8
Painéis
 62
7
370
25
100
AcDbPolyline
 90
4
 70
1
 10
4355.635475651275
 20
4649.856006392893
 10
4351.635475651275
 20
4649.856006392893
 10
4351.635475651268
 20
4541.856006392893
 10
4355.635475651268
 20
4541.856006392893
  0
LWPOLYLINE
  5
F4
330
17
100
AcDbEntity
  8
Painéis
 62
7
370
25
100
AcDbPolyline
 90
4
 70
1
 10
4313.635475651268
 20
4619.856006392871
 10
4313.635475651268
 20
4623.856006392871
 10
4258.035475651292
 20
4623.856006392863
 10
4258.035475651292
 20
4619.856006392864
  0
LWPOLYLINE
  5
F5
330
17
100
AcDbEntity
  8
CONCRETO
 62
7
370
25
100
AcDbPolyline
 90
8
 70
1
 10
4258.035475651292
 20
4623.856006392863
 10
4258.035475651292
 20
4649.856006392893
 10
4313.635475651268
 20
4649.856006392893
 10
4313.635475651268
 20
4649.856006392893
 10
4351.635475651209
 20
4649.856006392893
 10
4351.635475651209
 20
4549.856006392892
 10
4313.635475651268
 20
4549.856006392892
 10
4313.635475651268
 20
4623.856006392871
  0
LWPOLYLINE
  5
F6
330
17
100
AcDbEntity
  8
Madeira
 62
7
370
25
100
AcDbPolyline
 90
4
 70
1
 10
4305.235475651274
 20
4605.856006392871
 10
4309.635475651268
 20
4605.856006392871
 10
4309.635475651268
 20
4619.856006392871
 10
4305.235475651274
 20
4619.856006392871
  0
LWPOLYLINE
  5
F7
330
17
100
AcDbEntity
  8
Madeira
 62
7
370
25
100
AcDbPolyline
 90
4
 70
1
 10
4355.635475651275
 20
4635.856006392892
 10
4360.03547565127
 20
4635.856006392892
 10
4360.03547565127
 20
4649.856006392893
 10
4355.635475651275
 20
4649.856006392893
  0
LWPOLYLINE
  5
F8
330
17
100
AcDbEntity
  8
Madeira
 62
7
370
25
100
AcDbPolyline
 90
4
 70
1
 10
4355.635475651268
 20
4584.318691711123
 10
4360.035475651262
 20
4584.318691711123
 10
4360.035475651262
 20
4598.318691711123
 10
4355.635475651268
 20
4598.318691711123
  0
LWPOLYLINE
  5
F9
330
17
100
AcDbEntity
  8
Madeira
 62
7
370
25
100
AcDbPolyline
 90
4
 70
1
 10
4355.635475651268
 20
4541.856006392893
 10
4360.035475651262
 20
4541.856006392893
 10
4360.035475651262
 20
4555.856006392892
 10
4355.635475651268
 20
4555.856006392892
  0
LWPOLYLINE
  5
FA
330
17
100
AcDbEntity
  8
Madeira
 62
7
370
25
100
AcDbPolyline
 90
4
 70
1
 10
4305.235475651274
 20
4541.856006392893
 10
4309.635475651268
 20
4541.856006392893
 10
4309.635475651268
 20
4555.856006392892
 10
4305.235475651274
 20
4555.856006392892
  0
LWPOLYLINE
  5
FB
330
17
100
AcDbEntity
  8
SARR_3.5x7
 62
7
370
25
100
AcDbPolyline
 90
4
 70
1
 10
4291.235475651208
 20
4613.856006392867
 10
4305.235475651208
 20
4613.856006392867
 10
4305.235475651332
 20
4465.377792987086
 10
4291.235475651332
 20
4465.377792987086
  0
LWPOLYLINE
  5
FC
330
17
100
AcDbEntity
  8
SARR_3.5x7
 62
7
370
25
100
AcDbPolyline
 90
4
 70
1
 10
4374.035475651495
 20
4643.856006392892
 10
4360.035475651495
 20
4643.856006392892
 10
4360.03547565135
 20
4465.377792987086
 10
4374.035475651349
 20
4465.377792987086
  0
LWPOLYLINE
  5
FD
330
17
100
AcDbEntity
  8
SARR_3.5x7
 62
7
370
25
100
AcDbPolyline
 90
4
 70
1
 10
4291.235475651194
 20
4541.856006392893
 10
4374.035475651393
 20
4541.85600639289
 10
4374.035475651393
 20
4511.797944788892
 10
4291.235475651194
 20
4511.797944788894
  0
LWPOLYLINE
  5
FE
330
17
100
AcDbEntity
  8
SARR_2.2x7
 62
7
370
25
100
AcDbPolyline
 90
4
 70
1
 10
3994.60672961222
 20
4621.422797109505
 10
4008.586092569807
 20
4621.422797109505
 10
4008.586092569807
 20
4503.422797109513
 10
3994.60672961222
 20
4503.422797109513
  0
LWPOLYLINE
  5
FF
330
17
100
AcDbEntity
  8
SARR_2.2x7
 62
7
370
25
100
AcDbPolyline
 90
4
 70
1
 10
3984.626599187924
 20
4621.422797109505
 10
3970.647236230337
 20
4621.422797109505
 10
3970.647236230337
 20
4503.422797109513
 10
3984.626599187924
 20
4503.422797109513
  0
LWPOLYLINE
  5
100
330
17
100
AcDbEntity
  8
Cotas
 62
7
370
25
100
AcDbPolyline
 90
4
 70
1
 10
3927.203536042462
 20
4654.822022123971
 10
4059.569596472224
 20
4654.822022123971
 10
4059.569596472224
 20
4443.254168626899
 10
3927.203536042462
 20
4443.254168626899
  0
TEXT
  5
101
330
17
100
AcDbEntity
  8
detalhes
 62
7
370
25
100
AcDbText
 10
3693.301442951796
 20
4550.045677922172
 30
0.0
 40
9.600000000000001
  1
b
100
AcDbText
  0
TEXT
  5
102
330
17
100
AcDbEntity
  8
detalhes
 62
7
370
25
100
AcDbText
 10
3630.757784306059
 20
4550.056735367748
 30
0.0
 40
9.600000000000001
  1
a
100
AcDbText
  0
TEXT
  5
103
330
17
100
AcDbEntity
  8
detalhes
 62
7
370
25
100
AcDbText
 10
3657.187225391203
 20
4542.091759912728
 30
0.0
 40
9.600000000000001
  1
c
100
AcDbText
  0
TEXT
  5
104
330
17
100
AcDbEntity
  8
5
 62
7
370
25
100
AcDbText
 10
3570.568548377842
 20
4276.852273662568
 30
0.0
 40
12.0
  1
P47
100
AcDbText
  0
TEXT
  5
105
330
17
100
AcDbEntity
  8
5
 62
7
370
25
100
AcDbText
 10
3868.997569380932
 20
4280.892590100402
 30
0.0
 40
12.0
  1
V502
100
AcDbText
  0
TEXT
  5
106
330
17
100
AcDbEntity
  8
Texto Seção
 62
7
370
25
100
AcDbText
 10
3465.821261937997
 20
4206.064947182091
 30
0.0
 40
13.0
  1
V524.B
100
AcDbText
  0
TEXT
  5
107
330
17
100
AcDbEntity
  8
5
 62
7
370
25
100
AcDbText
 10
3770.355562498924
 20
4061.804833419929
 30
0.0
 40
12.0
  1
P47
100
AcDbText
  0
TEXT
  5
108
330
17
100
AcDbEntity
  8
5
 62
7
370
25
100
AcDbText
 10
3465.998406064751
 20
4065.845187406128
 30
0.0
 40
12.0
  1
V502
100
AcDbText
  0
TEXT
  5
109
330
17
100
AcDbEntity
  8
Texto Seção
 62
7
370
25
100
AcDbText
 10
3473.35712202713
 20
4414.804653552048
 30
0.0
 40
13.0
  1
V524.A
100
AcDbText
  0
TEXT
  5
10A
330
17
100
AcDbEntity
  8
Texto Seção
 62
7
370
25
100
AcDbText
 10
4162.783329990914
 20
4421.903334779607
 30
0.0
 40
13.0
  1
V525.A
100
AcDbText
  0
TEXT
  5
10B
330
17
100
AcDbEntity
  8
5
 62
7
370
25
100
AcDbText
 10
4160.825194446199
 20
4270.623364149491
 30
0.0
 40
12.0
  1
V504
100
AcDbText
  0
TEXT
  5
10C
330
17
100
AcDbEntity
  8
5
 62
7
370
25
100
AcDbText
 10
4571.332062028147
 20
4272.668618535121
 30
0.0
 40
12.0
  1
V509
100
AcDbText
  0
TEXT
  5
10D
330
17
100
AcDbEntity
  8
5
 62
7
370
25
100
AcDbText
 10
4160.825194446199
 20
4081.719147105099
 30
0.0
 40
12.0
  1
V509
100
AcDbText
  0
TEXT
  5
10E
330
17
100
AcDbEntity
  8
5
 62
7
370
25
100
AcDbText
 10
4396.137836045943
 20
4081.719147105099
 30
0.0
 40
12.0
  1
P26
100
AcDbText
  0
TEXT
  5
10F
330
17
100
AcDbEntity
  8
Texto Seção
 62
7
370
25
100
AcDbText
 10
4162.783329990914
 20
4227.999117735214
 30
0.0
 40
13.0
  1
V525.B
100
AcDbText
  0
TEXT
  5
110
330
17
100
AcDbEntity
  8
detalhes
 62
7
370
25
100
AcDbText
 10
4365.331095195377
 20
4600.07898936827
 30
0.0
 40
9.600000000000001
  1
b
100
AcDbText
  0
TEXT
  5
111
330
17
100
AcDbEntity
  8
detalhes
 62
7
370
25
100
AcDbText
 10
4299.380381665179
 20
4571.540023117647
 30
0.0
 40
9.600000000000001
  1
a
100
AcDbText
  0
TEXT
  5
112
330
17
100
AcDbEntity
  8
detalhes
 62
7
370
25
100
AcDbText
 10
4334.235741266713
 20
4552.091759912731
 30
0.0
 40
9.600000000000001
  1
c
100
AcDbText
  0
TEXT
  5
113
330
17
100
AcDbEntity
  8
TEXTO PILAR
 62
7
370
25
100
AcDbText
 10
3934.656018179545
 20
4636.078495065713
 30
0.0
 40
12.0
  1
FECHAMENTO
100
AcDbText
  0
HATCH
  5
114
330
17
100
AcDbEntity
  8
Hachura
 62
7
100
AcDbHatch
 10
0.0
 20
0.0
 30
0.0
210
0.0
220
0.0
230
1.0
  2
SOLID
 70
1
 71
0
 91
1
 92
3
 72
0
 73
1
 93
8
 10
3642.586959775758
 20
4615.856006392868
 10
3646.586959775758
 20
4615.856006392868
 10
3646.586959775758
 20
4615.856006392868
 10
3646.586959775758
 20
4531.85600639289
 10
3646.586959775758
 20
4531.85600639289
 10
3642.586959775758
 20
4531.85600639289
 10
3642.586959775758
 20
4531.85600639289
 10
3642.586959775758
 20
4615.856006392868
 97
0
 75
1
 76
1
 98
0
  0
HATCH
  5
115
330
17
100
AcDbEntity
  8
Hachura
 62
7
100
AcDbHatch
 10
0.0
 20
0.0
 30
0.0
210
0.0
220
0.0
230
1.0
  2
SOLID
 70
1
 71
0
 91
1
 92
3
 72
0
 73
1
 93
8
 10
3642.586959775758
 20
4611.456006392866
 10
3642.586959775758
 20
4615.856006392868
 10
3642.586959775758
 20
4615.856006392868
 10
3628.586959775758
 20
4615.856006392868
 10
3628.586959775758
 20
4615.856006392868
 10
3628.586959775758
 20
4611.456006392866
 10
3628.586959775758
 20
4611.456006392866
 10
3642.586959775758
 20
4611.456006392866
 97
0
 75
1
 76
1
 98
0
  0
HATCH
  5
116
330
17
100
AcDbEntity
  8
Hachura
 62
7
100
AcDbHatch
 10
0.0
 20
0.0
 30
0.0
210
0.0
220
0.0
230
1.0
  2
SOLID
 70
1
 71
0
 91
1
 92
3
 72
0
 73
1
 93
8
 10
3608.586959775757
 20
4531.85600639289
 10
3608.586959775757
 20
4536.256006392884
 10
3608.586959775757
 20
4536.256006392884
 10
3628.586959775758
 20
4536.256006392884
 10
3628.586959775758
 20
4536.256006392884
 10
3628.586959775758
 20
4531.85600639289
 10
3628.586959775758
 20
4531.85600639289
 10
3608.586959775757
 20
4531.85600639289
 97
0
 75
1
 76
1
 98
0
  0
HATCH
  5
117
330
17
100
AcDbEntity
  8
Hachura
 62
7
100
AcDbHatch
 10
0.0
 20
0.0
 30
0.0
210
0.0
220
0.0
230
1.0
  2
SOLID
 70
1
 71
0
 91
1
 92
3
 72
0
 73
1
 93
8
 10
3684.586959775758
 20
4531.85600639289
 10
3684.586959775758
 20
4536.256006392884
 10
3684.586959775758
 20
4536.256006392884
 10
3670.586959775758
 20
4536.256006392884
 10
3670.586959775758
 20
4536.256006392884
 10
3670.586959775758
 20
4531.85600639289
 10
3670.586959775758
 20
4531.85600639289
 10
3684.586959775758
 20
4531.85600639289
 97
0
 75
1
 76
1
 98
0
  0
HATCH
  5
118
330
17
100
AcDbEntity
  8
Hachura
 62
7
100
AcDbHatch
 10
0.0
 20
0.0
 30
0.0
210
0.0
220
0.0
230
1.0
  2
SOLID
 70
1
 71
0
 91
1
 92
3
 72
0
 73
1
 93
8
 10
3684.586959775758
 20
4536.256006392884
 10
3684.586959775758
 20
4539.85600639289
 10
3684.586959775758
 20
4539.85600639289
 10
3646.586959775758
 20
4539.85600639289
 10
3646.586959775758
 20
4539.85600639289
 10
3646.586959775758
 20
4536.256006392884
 10
3646.586959775758
 20
4536.256006392884
 10
3684.586959775758
 20
4536.256006392884
 97
0
 75
1
 76
1
 98
0
  0
HATCH
  5
119
330
17
100
AcDbEntity
  8
Hachura
 62
7
100
AcDbHatch
 10
0.0
 20
0.0
 30
0.0
210
0.0
220
0.0
230
1.0
  2
SOLID
 70
1
 71
0
 91
1
 92
3
 72
0
 73
1
 93
8
 10
3646.586959775758
 20
4531.85600639289
 10
3646.586959775758
 20
4536.256006392884
 10
3646.586959775758
 20
4536.256006392884
 10
3660.586959775758
 20
4536.256006392884
 10
3660.586959775758
 20
4536.256006392884
 10
3660.586959775758
 20
4531.85600639289
 10
3660.586959775758
 20
4531.85600639289
 10
3646.586959775758
 20
4531.85600639289
 97
0
 75
1
 76
1
 98
0
  0
HATCH
  5
11A
330
17
100
AcDbEntity
  8
Hachura
 62
7
100
AcDbHatch
 10
0.0
 20
0.0
 30
0.0
210
0.0
220
0.0
230
1.0
  2
SOLID
 70
1
 71
0
 91
1
 92
3
 72
0
 73
1
 93
8
 10
3688.586959775758
 20
4615.856006392868
 10
3684.586959775758
 20
4615.856006392868
 10
3684.586959775758
 20
4615.856006392868
 10
3684.586959775758
 20
4531.85600639289
 10
3684.586959775758
 20
4531.85600639289
 10
3688.586959775758
 20
4531.85600639289
 10
3688.586959775758
 20
4531.85600639289
 10
3688.586959775758
 20
4615.856006392868
 97
0
 75
1
 76
1
 98
0
  0
HATCH
  5
11B
330
17
100
AcDbEntity
  8
Hachura
 62
7
100
AcDbHatch
 10
0.0
 20
0.0
 30
0.0
210
0.0
220
0.0
230
1.0
  2
SOLID
 70
1
 71
0
 91
1
 92
3
 72
0
 73
1
 93
8
 10
3744.586959775728
 20
4615.856006392868
 10
3744.586959775728
 20
4619.856006392867
 10
3744.586959775728
 20
4619.856006392867
 10
3684.586959775758
 20
4619.856006392867
 10
3684.586959775758
 20
4619.856006392867
 10
3684.586959775758
 20
4615.856006392868
 10
3684.586959775758
 20
4615.856006392868
 10
3744.586959775728
 20
4615.856006392868
 97
0
 75
1
 76
1
 98
0
  0
HATCH
  5
11C
330
17
100
AcDbEntity
  8
Hachura
 62
7
100
AcDbHatch
 10
0.0
 20
0.0
 30
0.0
210
0.0
220
0.0
230
1.0
  2
SOLID
 70
1
 71
0
 91
1
 92
3
 72
0
 73
1
 93
8
 10
3688.586959775758
 20
4611.456006392866
 10
3688.586959775758
 20
4615.856006392868
 10
3688.586959775758
 20
4615.856006392868
 10
3702.586959775758
 20
4615.856006392868
 10
3702.586959775758
 20
4615.856006392868
 10
3702.586959775758
 20
4611.456006392866
 10
3702.586959775758
 20
4611.456006392866
 10
3688.586959775758
 20
4611.456006392866
 97
0
 75
1
 76
1
 98
0
  0
HATCH
  5
11D
330
17
100
AcDbEntity
  8
Hachura
 62
7
100
AcDbHatch
 10
0.0
 20
0.0
 30
0.0
210
0.0
220
0.0
230
1.0
  2
SOLID
 70
1
 71
0
 91
1
 92
3
 72
0
 73
1
 93
8
 10
3722.586959775757
 20
4531.85600639289
 10
3722.586959775757
 20
4536.256006392884
 10
3722.586959775757
 20
4536.256006392884
 10
3702.586959775758
 20
4536.256006392884
 10
3702.586959775758
 20
4536.256006392884
 10
3702.586959775758
 20
4531.85600639289
 10
3702.586959775758
 20
4531.85600639289
 10
3722.586959775757
 20
4531.85600639289
 97
0
 75
1
 76
1
 98
0
  0
HATCH
  5
11E
330
17
100
AcDbEntity
  8
Hachura
 62
7
100
AcDbHatch
 10
0.0
 20
0.0
 30
0.0
210
0.0
220
0.0
230
1.0
  2
SOLID
 70
1
 71
0
 91
1
 92
3
 72
0
 73
1
 93
8
 10
3646.586959775758
 20
4615.856006392868
 10
3646.586959775758
 20
4619.856006392867
 10
3646.586959775758
 20
4619.856006392867
 10
3590.986959775781
 20
4619.85600639286
 10
3590.986959775781
 20
4619.85600639286
 10
3590.986959775781
 20
4615.856006392861
 10
3590.986959775781
 20
4615.856006392861
 10
3646.586959775758
 20
4615.856006392868
 97
0
 75
1
 76
1
 98
0
  0
HATCH
  5
11F
330
17
100
AcDbEntity
  8
COTA
 62
7
100
AcDbHatch
 10
0.0
 20
0.0
 30
0.0
210
0.0
220
0.0
230
1.0
  2
SOLID
 70
1
 71
0
 91
1
 92
3
 72
0
 73
1
 93
8
 10
3898.23623983725
 20
4391.859625527123
 10
3898.23623983725
 20
4408.859625527127
 10
3898.236239837246
 20
4408.859625527127
 10
3595.236239837247
 20
4408.859625527143
 10
3595.236239837248
 20
4408.859625527143
 10
3595.236239837248
 20
4391.859625527138
 10
3595.236239837248
 20
4391.859625527138
 10
3898.23623983725
 20
4391.859625527123
 97
0
 75
1
 76
1
 98
0
  0
HATCH
  5
120
330
17
100
AcDbEntity
  8
COTA
 62
7
100
AcDbHatch
 10
0.0
 20
0.0
 30
0.0
210
0.0
220
0.0
230
1.0
  2
SOLID
 70
1
 71
0
 91
1
 92
3
 72
0
 73
1
 93
8
 10
3466.997116235989
 20
4176.812204096707
 10
3466.997116235991
 20
4193.812204096711
 10
3466.997116235991
 20
4193.812204096711
 10
3769.997116235991
 20
4193.812204096727
 10
3769.997116235989
 20
4193.812204096727
 10
3769.997116235989
 20
4176.812204096722
 10
3769.997116235989
 20
4176.812204096722
 10
3466.997116235989
 20
4176.812204096707
 97
0
 75
1
 76
1
 98
0
  0
HATCH
  5
121
330
17
100
AcDbEntity
  8
COTA
 62
7
100
AcDbHatch
 10
0.0
 20
0.0
 30
0.0
210
0.0
220
0.0
230
1.0
  2
SOLID
 70
1
 71
0
 91
1
 92
3
 72
0
 73
1
 93
8
 10
3478.663273739972
 20
4394.859625527147
 10
3574.663273739973
 20
4394.859625527147
 10
3574.663273739972
 20
4394.859625527147
 10
3574.663273739972
 20
4408.859625527147
 10
3574.663273739972
 20
4408.859625527146
 10
3478.663273739971
 20
4408.859625527146
 10
3478.663273739971
 20
4408.859625527147
 10
3478.663273739972
 20
4394.859625527147
 97
0
 75
1
 76
1
 98
0
  0
HATCH
  5
122
330
17
100
AcDbEntity
  8
REAPROVEITAMENTO
 62
7
100
AcDbHatch
 10
0.0
 20
0.0
 30
0.0
210
0.0
220
0.0
230
1.0
  2
SOLID
 70
1
 71
0
 91
1
 92
3
 72
0
 73
1
 93
8
 10
3898.236239837244
 20
4349.777210055806
 10
3898.236239837248
 20
4391.942040998432
 10
3898.236239837248
 20
4391.942040998432
 10
3595.23623983725
 20
4392.109625527138
 10
3595.23623983725
 20
4392.109625527138
 10
3595.236239837254
 20
4349.944794584509
 10
3595.236239837254
 20
4349.944794584509
 10
3898.236239837244
 20
4349.777210055806
 97
0
 75
1
 76
1
 98
0
  0
HATCH
  5
123
330
17
100
AcDbEntity
  8
COTA
 62
7
100
AcDbHatch
 10
0.0
 20
0.0
 30
0.0
210
0.0
220
0.0
230
1.0
  2
SOLID
 70
1
 71
0
 91
1
 92
3
 72
0
 73
1
 93
9
 10
3894.594786797295
 20
4179.812204096729
 10
3798.594786797295
 20
4179.812204096729
 10
3798.594786797295
 20
4179.812204096729
 10
3798.594786797295
 20
4193.812204096729
 10
3798.594786797295
 20
4193.812204096729
 10
3894.594786797298
 20
4193.81220409673
 10
3894.594786797298
 20
4193.81220409673
 10
3894.594786797296
 20
4179.812204096729
 10
3894.594786797295
 20
4179.812204096729
 97
0
 75
1
 76
1
 98
0
  0
HATCH
  5
124
330
17
100
AcDbEntity
  8
REAPROVEITAMENTO
 62
7
100
AcDbHatch
 10
0.0
 20
0.0
 30
0.0
210
0.0
220
0.0
230
1.0
  2
SOLID
 70
1
 71
0
 91
1
 92
3
 72
0
 73
1
 93
8
 10
3769.997116235985
 20
4134.729788625365
 10
3769.997116235989
 20
4176.894619567991
 10
3769.997116235989
 20
4176.894619567991
 10
3466.997116235991
 20
4177.062204096696
 10
3466.997116235991
 20
4177.062204096696
 10
3466.997116235994
 20
4134.897373154068
 10
3466.997116235994
 20
4134.897373154068
 10
3769.997116235985
 20
4134.729788625365
 97
0
 75
1
 76
1
 98
0
  0
HATCH
  5
125
330
17
100
AcDbEntity
  8
COTA
 62
7
100
AcDbHatch
 10
0.0
 20
0.0
 30
0.0
210
0.0
220
0.0
230
1.0
  2
SOLID
 70
1
 71
0
 91
1
 92
3
 72
0
 73
1
 93
9
 10
4614.783329990949
 20
4398.716959358629
 10
4614.783329990949
 20
4412.716959358629
 10
4614.783329990949
 20
4412.716959358629
 10
4159.783329990949
 20
4412.716959358629
 10
4159.783329990943
 20
4412.716959358629
 10
4159.783329990943
 20
4398.716959358629
 10
4159.783329990943
 20
4398.716959358629
 10
4614.783329990944
 20
4398.716959358629
 10
4614.783329990949
 20
4398.716959358629
 97
0
 75
1
 76
1
 98
0
  0
HATCH
  5
126
330
17
100
AcDbEntity
  8
Hachura
 62
7
100
AcDbHatch
 10
0.0
 20
0.0
 30
0.0
210
0.0
220
0.0
230
1.0
  2
SOLID
 70
1
 71
0
 91
1
 92
3
 72
0
 73
1
 93
9
 10
4313.635475651261
 20
4619.856006392871
 10
4309.635475651261
 20
4619.856006392871
 10
4309.635475651261
 20
4619.856006392871
 10
4309.635475651261
 20
4541.856006392893
 10
4309.635475651268
 20
4541.856006392893
 10
4313.635475651268
 20
4541.856006392893
 10
4313.635475651268
 20
4541.856006392893
 10
4313.635475651268
 20
4619.856006392871
 10
4313.635475651261
 20
4619.856006392871
 97
0
 75
1
 76
1
 98
0
  0
HATCH
  5
127
330
17
100
AcDbEntity
  8
Hachura
 62
7
100
AcDbHatch
 10
0.0
 20
0.0
 30
0.0
210
0.0
220
0.0
230
1.0
  2
SOLID
 70
1
 71
0
 91
1
 92
3
 72
0
 73
1
 93
8
 10
4351.635475651268
 20
4541.856006392893
 10
4351.635475651268
 20
4546.256006392886
 10
4351.635475651268
 20
4546.256006392886
 10
4341.635475651268
 20
4546.256006392886
 10
4341.635475651268
 20
4546.256006392886
 10
4341.635475651268
 20
4541.856006392893
 10
4341.635475651268
 20
4541.856006392893
 10
4351.635475651268
 20
4541.856006392893
 97
0
 75
1
 76
1
 98
0
  0
HATCH
  5
128
330
17
100
AcDbEntity
  8
Hachura
 62
7
100
AcDbHatch
 10
0.0
 20
0.0
 30
0.0
210
0.0
220
0.0
230
1.0
  2
SOLID
 70
1
 71
0
 91
1
 92
3
 72
0
 73
1
 93
8
 10
4351.635475651268
 20
4546.256006392886
 10
4351.635475651268
 20
4549.856006392892
 10
4351.635475651268
 20
4549.856006392892
 10
4313.635475651268
 20
4549.856006392892
 10
4313.635475651268
 20
4549.856006392892
 10
4313.635475651268
 20
4546.256006392886
 10
4313.635475651268
 20
4546.256006392886
 10
4351.635475651268
 20
4546.256006392886
 97
0
 75
1
 76
1
 98
0
  0
HATCH
  5
129
330
17
100
AcDbEntity
  8
Hachura
 62
7
100
AcDbHatch
 10
0.0
 20
0.0
 30
0.0
210
0.0
220
0.0
230
1.0
  2
SOLID
 70
1
 71
0
 91
1
 92
3
 72
0
 73
1
 93
8
 10
4313.635475651268
 20
4541.856006392893
 10
4313.635475651268
 20
4546.256006392886
 10
4313.635475651268
 20
4546.256006392886
 10
4323.635475651268
 20
4546.256006392886
 10
4323.635475651268
 20
4546.256006392886
 10
4323.635475651268
 20
4541.856006392893
 10
4323.635475651268
 20
4541.856006392893
 10
4313.635475651268
 20
4541.856006392893
 97
0
 75
1
 76
1
 98
0
  0
HATCH
  5
12A
330
17
100
AcDbEntity
  8
Hachura
 62
7
100
AcDbHatch
 10
0.0
 20
0.0
 30
0.0
210
0.0
220
0.0
230
1.0
  2
SOLID
 70
1
 71
0
 91
1
 92
3
 72
0
 73
1
 93
8
 10
4355.635475651268
 20
4649.856006392893
 10
4351.635475651268
 20
4649.856006392893
 10
4351.635475651261
 20
4649.856006392893
 10
4351.635475651261
 20
4541.856006392893
 10
4351.635475651268
 20
4541.856006392893
 10
4355.635475651268
 20
4541.856006392893
 10
4355.635475651268
 20
4541.856006392893
 10
4355.635475651268
 20
4649.856006392893
 97
0
 75
1
 76
1
 98
0
  0
HATCH
  5
12B
330
17
100
AcDbEntity
  8
Hachura
 62
7
100
AcDbHatch
 10
0.0
 20
0.0
 30
0.0
210
0.0
220
0.0
230
1.0
  2
SOLID
 70
1
 71
0
 91
1
 92
3
 72
0
 73
1
 93
8
 10
4313.635475651268
 20
4619.856006392871
 10
4313.635475651268
 20
4623.856006392871
 10
4313.635475651268
 20
4623.856006392871
 10
4258.035475651292
 20
4623.856006392863
 10
4258.035475651292
 20
4623.856006392863
 10
4258.035475651292
 20
4619.856006392864
 10
4258.035475651292
 20
4619.856006392864
 10
4313.635475651268
 20
4619.856006392871
 97
0
 75
1
 76
1
 98
0
  0
HATCH
  5
12C
330
17
100
AcDbEntity
  8
Hachura
 62
7
100
AcDbHatch
 10
0.0
 20
0.0
 30
0.0
210
0.0
220
0.0
230
1.0
  2
SOLID
 70
1
 71
0
 91
1
 92
3
 72
0
 73
1
 93
8
 10
4305.235475651274
 20
4605.856006392871
 10
4309.635475651268
 20
4605.856006392871
 10
4309.635475651268
 20
4605.856006392871
 10
4309.635475651268
 20
4619.856006392871
 10
4309.635475651268
 20
4619.856006392871
 10
4305.235475651274
 20
4619.856006392871
 10
4305.235475651274
 20
4619.856006392871
 10
4305.235475651274
 20
4605.856006392871
 97
0
 75
1
 76
1
 98
0
  0
HATCH
  5
12D
330
17
100
AcDbEntity
  8
Hachura
 62
7
100
AcDbHatch
 10
0.0
 20
0.0
 30
0.0
210
0.0
220
0.0
230
1.0
  2
SOLID
 70
1
 71
0
 91
1
 92
3
 72
0
 73
1
 93
8
 10
4355.635475651275
 20
4635.856006392892
 10
4360.03547565127
 20
4635.856006392892
 10
4360.03547565127
 20
4635.856006392892
 10
4360.03547565127
 20
4649.856006392893
 10
4360.03547565127
 20
4649.856006392893
 10
4355.635475651275
 20
4649.856006392893
 10
4355.635475651275
 20
4649.856006392893
 10
4355.635475651275
 20
4635.856006392892
 97
0
 75
1
 76
1
 98
0
  0
HATCH
  5
12E
330
17
100
AcDbEntity
  8
Hachura
 62
7
100
AcDbHatch
 10
0.0
 20
0.0
 30
0.0
210
0.0
220
0.0
230
1.0
  2
SOLID
 70
1
 71
0
 91
1
 92
3
 72
0
 73
1
 93
8
 10
4355.635475651268
 20
4584.318691711123
 10
4360.035475651262
 20
4584.318691711123
 10
4360.035475651262
 20
4584.318691711123
 10
4360.035475651262
 20
4598.318691711123
 10
4360.035475651262
 20
4598.318691711123
 10
4355.635475651268
 20
4598.318691711123
 10
4355.635475651268
 20
4598.318691711123
 10
4355.635475651268
 20
4584.318691711123
 97
0
 75
1
 76
1
 98
0
  0
HATCH
  5
12F
330
17
100
AcDbEntity
  8
Hachura
 62
7
100
AcDbHatch
 10
0.0
 20
0.0
 30
0.0
210
0.0
220
0.0
230
1.0
  2
SOLID
 70
1
 71
0
 91
1
 92
3
 72
0
 73
1
 93
8
 10
4355.635475651268
 20
4541.856006392893
 10
4360.035475651262
 20
4541.856006392893
 10
4360.035475651262
 20
4541.856006392893
 10
4360.035475651262
 20
4555.856006392892
 10
4360.035475651262
 20
4555.856006392892
 10
4355.635475651268
 20
4555.856006392892
 10
4355.635475651268
 20
4555.856006392892
 10
4355.635475651268
 20
4541.856006392893
 97
0
 75
1
 76
1
 98
0
  0
HATCH
  5
130
330
17
100
AcDbEntity
  8
Hachura
 62
7
100
AcDbHatch
 10
0.0
 20
0.0
 30
0.0
210
0.0
220
0.0
230
1.0
  2
SOLID
 70
1
 71
0
 91
1
 92
3
 72
0
 73
1
 93
8
 10
4305.235475651274
 20
4541.856006392893
 10
4309.635475651268
 20
4541.856006392893
 10
4309.635475651268
 20
4541.856006392893
 10
4309.635475651268
 20
4555.856006392892
 10
4309.635475651268
 20
4555.856006392892
 10
4305.235475651274
 20
4555.856006392892
 10
4305.235475651274
 20
4555.856006392892
 10
4305.235475651274
 20
4541.856006392893
 97
0
 75
1
 76
1
 98
0
  0
HATCH
  5
131
330
17
100
AcDbEntity
  8
REAPROVEITAMENTO
 62
7
100
AcDbHatch
 10
0.0
 20
0.0
 30
0.0
210
0.0
220
0.0
230
1.0
  2
SOLID
 70
1
 71
0
 91
1
 92
3
 72
0
 73
1
 93
9
 10
4159.783329990954
 20
4358.841959358634
 10
4159.783329990949
 20
4398.966959358654
 10
4159.783329990947
 20
4398.966959358654
 10
4614.783329990941
 20
4398.779459358638
 10
4614.783329990949
 20
4398.779459358638
 10
4614.783329990949
 20
4358.65445935862
 10
4614.783329990949
 20
4358.65445935862
 10
4159.783329990958
 20
4358.841959358634
 10
4159.783329990954
 20
4358.841959358634
 97
0
 75
1
 76
1
 98
0
  0
HATCH
  5
132
330
17
100
AcDbEntity
  8
REAPROVEITAMENTO
 62
7
100
AcDbHatch
 10
0.0
 20
0.0
 30
0.0
210
0.0
220
0.0
230
1.0
  2
SOLID
 70
1
 71
0
 91
1
 92
3
 72
0
 73
1
 93
9
 10
4159.783329990947
 20
4164.937742314243
 10
4159.783329990947
 20
4219.062742314262
 10
4159.783329990947
 20
4219.062742314262
 10
4419.783329990941
 20
4218.812742314251
 10
4419.783329990949
 20
4218.812742314251
 10
4419.783329990941
 20
4164.687742314233
 10
4419.783329990941
 20
4164.687742314233
 10
4159.783329990951
 20
4164.937742314243
 10
4159.783329990947
 20
4164.937742314243
 97
0
 75
1
 76
1
 98
0
  0
LINE
  5
133
330
17
100
AcDbEntity
  8
0
 62
7
370
25
100
AcDbLine
 10
3743.2910765378183
 20
3804.8560063929035
 30
0.0
 11
3743.2910765378183
 21
4004.0995198037926
 31
0.0
  0
LWPOLYLINE
  5
134
330
17
100
AcDbEntity
  8
Texto Seção
 62
7
370
25
100
AcDbPolyline
 90
4
 70
1
 10
4564.720293447173
 20
4045.327037342135
 10
4708.994932288088
 20
4045.327037342135
 10
4708.994932288088
 20
4022.126160274386
 10
4564.720293447173
 20
4022.126160274386
  0
LWPOLYLINE
  5
135
330
17
100
AcDbEntity
  8
Texto Seção
 62
7
370
25
100
AcDbPolyline
 90
4
 70
1
 10
3915.09082871878
 20
4045.327037342135
 10
4059.365467559693
 20
4045.327037342135
 10
4059.365467559693
 20
4022.126160274386
 10
3915.09082871878
 20
4022.126160274386
  0
TEXT
  5
136
330
17
100
AcDbEntity
  8
Texto Seção
 62
7
370
25
100
AcDbText
 10
4568.506566893
 20
4026.877755361606
 30
0.0
 40
13.0
  1
VEM DA V421
100
AcDbText
  0
TEXT
  5
137
330
17
100
AcDbEntity
  8
Texto Seção
 62
7
370
25
100
AcDbText
 10
3916.927102164606
 20
4026.877755361606
 30
0.0
 40
13.0
  1
VEM DA V420
100
AcDbText
  0
ENDSEC
  0
SECTION
  2
OBJECTS
  0
DICTIONARY
  5
A
330
0
100
AcDbDictionary
281
1
  3
ACAD_COLOR
350
B
  3
ACAD_GROUP
350
C
  3
ACAD_LAYOUT
350
D
  3
ACAD_MATERIAL
350
E
  3
ACAD_MLEADERSTYLE
350
F
  3
ACAD_MLINESTYLE
350
10
  3
ACAD_PLOTSETTINGS
350
11
  3
ACAD_PLOTSTYLENAME
350
12
  3
ACAD_SCALELIST
350
14
  3
ACAD_TABLESTYLE
350
15
  3
ACAD_VISUALSTYLE
350
16
  3
EZDXF_META
350
2D
  0
DICTIONARY
  5
B
330
A
100
AcDbDictionary
281
1
  0
DICTIONARY
  5
C
330
A
100
AcDbDictionary
281
1
  0
DICTIONARY
  5
D
330
A
100
AcDbDictionary
281
1
  3
Model
350
1A
  3
Layout1
350
1E
  0
DICTIONARY
  5
E
330
A
100
AcDbDictionary
281
1
  3
ByBlock
350
1F
  3
ByLayer
350
20
  3
Global
350
21
  0
DICTIONARY
  5
F
330
A
100
AcDbDictionary
281
1
  3
Standard
350
2C
  0
DICTIONARY
  5
10
330
A
100
AcDbDictionary
281
1
  3
Standard
350
22
  0
DICTIONARY
  5
11
330
A
100
AcDbDictionary
281
1
  0
ACDBDICTIONARYWDFLT
  5
12
330
A
100
AcDbDictionary
281
1
  3
Normal
350
13
100
AcDbDictionaryWithDefault
340
13
  0
ACDBPLACEHOLDER
  5
13
330
12
  0
DICTIONARY
  5
14
330
A
100
AcDbDictionary
281
1
  0
DICTIONARY
  5
15
330
A
100
AcDbDictionary
281
1
  0
DICTIONARY
  5
16
330
A
100
AcDbDictionary
281
1
  0
LAYOUT
  5
1A
330
D
100
AcDbPlotSettings
  1

  4
A3
  6

 40
7.5
 41
20.0
 42
7.5
 43
20.0
 44
420.0
 45
297.0
 46
0.0
 47
0.0
 48
0.0
 49
0.0
140
0.0
141
0.0
142
1.0
143
1.0
 70
1024
 72
1
 73
0
 74
5
  7

 75
16
 76
0
 77
2
 78
300
147
1.0
148
0.0
149
0.0
100
AcDbLayout
  1
Model
 70
1
 71
0
 10
0.0
 20
0.0
 11
420.0
 21
297.0
 12
0.0
 22
0.0
 32
0.0
 14
1e+20
 24
1e+20
 34
1e+20
 15
-1e+20
 25
-1e+20
 35
-1e+20
146
0.0
 13
0.0
 23
0.0
 33
0.0
 16
1.0
 26
0.0
 36
0.0
 17
0.0
 27
1.0
 37
0.0
 76
1
330
17
  0
LAYOUT
  5
1E
330
D
100
AcDbPlotSettings
  1

  4
A3
  6

 40
7.5
 41
20.0
 42
7.5
 43
20.0
 44
420.0
 45
297.0
 46
0.0
 47
0.0
 48
0.0
 49
0.0
140
0.0
141
0.0
142
1.0
143
1.0
 70
0
 72
1
 73
0
 74
5
  7

 75
16
 76
0
 77
2
 78
300
147
1.0
148
0.0
149
0.0
100
AcDbLayout
  1
Layout1
 70
1
 71
1
 10
0.0
 20
0.0
 11
420.0
 21
297.0
 12
0.0
 22
0.0
 32
0.0
 14
1e+20
 24
1e+20
 34
1e+20
 15
-1e+20
 25
-1e+20
 35
-1e+20
146
0.0
 13
0.0
 23
0.0
 33
0.0
 16
1.0
 26
0.0
 36
0.0
 17
0.0
 27
1.0
 37
0.0
 76
1
330
1B
  0
MATERIAL
  5
1F
102
{ACAD_REACTORS
330
E
102
}
330
E
100
AcDbMaterial
  1
ByBlock
  2

 70
0
 40
1.0
 71
1
 41
1.0
 91
-1023410177
 42
1.0
 72
1
  3

 73
1
 74
1
 75
1
 44
0.5
 73
0
 45
1.0
 46
1.0
 77
1
  4

 78
1
 79
1
170
1
 48
1.0
171
1
  6

172
1
173
1
174
1
140
1.0
141
1.0
175
1
  7

176
1
177
1
178
1
143
1.0
179
1
  8

270
1
271
1
272
1
145
1.0
146
1.0
273
1
  9

274
1
275
1
276
1
 42
1.0
 72
1
  3

 73
1
 74
1
 75
1
 94
63
  0
MATERIAL
  5
20
102
{ACAD_REACTORS
330
E
102
}
330
E
100
AcDbMaterial
  1
ByLayer
  2

 70
0
 40
1.0
 71
1
 41
1.0
 91
-1023410177
 42
1.0
 72
1
  3

 73
1
 74
1
 75
1
 44
0.5
 73
0
 45
1.0
 46
1.0
 77
1
  4

 78
1
 79
1
170
1
 48
1.0
171
1
  6

172
1
173
1
174
1
140
1.0
141
1.0
175
1
  7

176
1
177
1
178
1
143
1.0
179
1
  8

270
1
271
1
272
1
145
1.0
146
1.0
273
1
  9

274
1
275
1
276
1
 42
1.0
 72
1
  3

 73
1
 74
1
 75
1
 94
63
  0
MATERIAL
  5
21
102
{ACAD_REACTORS
330
E
102
}
330
E
100
AcDbMaterial
  1
Global
  2

 70
0
 40
1.0
 71
1
 41
1.0
 91
-1023410177
 42
1.0
 72
1
  3

 73
1
 74
1
 75
1
 44
0.5
 73
0
 45
1.0
 46
1.0
 77
1
  4

 78
1
 79
1
170
1
 48
1.0
171
1
  6

172
1
173
1
174
1
140
1.0
141
1.0
175
1
  7

176
1
177
1
178
1
143
1.0
179
1
  8

270
1
271
1
272
1
145
1.0
146
1.0
273
1
  9

274
1
275
1
276
1
 42
1.0
 72
1
  3

 73
1
 74
1
 75
1
 94
63
  0
MLINESTYLE
  5
22
102
{ACAD_REACTORS
330
10
102
}
330
10
100
AcDbMlineStyle
  2
Standard
 70
0
  3

 62
256
 51
90.0
 52
90.0
 71
2
 49
0.5
 62
256
  6
BYLAYER
 49
-0.5
 62
256
  6
BYLAYER
  0
MLEADERSTYLE
  5
2C
102
{ACAD_REACTORS
330
F
102
}
330
F
100
AcDbMLeaderStyle
179
2
170
2
171
1
172
0
 90
2
 40
0.0
 41
0.0
173
1
 91
-1056964608
 92
-2
290
1
 42
2.0
291
1
 43
8.0
  3
Standard
 44
4.0
300

342
29
174
1
175
1
176
0
178
1
 93
-1056964608
 45
4.0
292
0
297
0
 46
4.0
 94
-1056964608
 47
1.0
 49
1.0
140
1.0
294
1
141
0.0
177
0
142
1.0
295
0
296
0
143
3.75
271
0
272
9
273
9
  0
DICTIONARY
  5
2D
330
A
100
AcDbDictionary
280
1
281
1
  3
CREATED_BY_EZDXF
350
2E
  3
WRITTEN_BY_EZDXF
350
13A
  0
DICTIONARYVAR
  5
2E
330
2D
100
DictionaryVariables
280
0
  1
1.4.3 @ 2026-06-10T16:54:42.907173+00:00
  0
DICTIONARYVAR
  5
13A
330
2D
100
DictionaryVariables
280
0
  1
1.4.3 @ 2026-06-10T16:54:42.916546+00:00
  0
ENDSEC
  0
EOF
