  0
SECTION
  2
HEADER
  9
$ACADVER
  1
AC1024
  9
$ACADMAINTVER
 70
6
  9
$DWGCODEPAGE
  3
ANSI_1252
  9
$LASTSAVEDBY
  1
ezdxf
  9
$INSBASE
 10
0.0
 20
0.0
 30
0.0
  9
$EXTMIN
 10
1e+20
 20
1e+20
 30
1e+20
  9
$EXTMAX
 10
-1e+20
 20
-1e+20
 30
-1e+20
  9
$LIMMIN
 10
0.0
 20
0.0
  9
$LIMMAX
 10
420.0
 20
297.0
  9
$ORTHOMODE
 70
0
  9
$REGENMODE
 70
1
  9
$FILLMODE
 70
1
  9
$QTEXTMODE
 70
0
  9
$MIRRTEXT
 70
1
  9
$LTSCALE
 40
1.0
  9
$ATTMODE
 70
1
  9
$TEXTSIZE
 40
2.5
  9
$TRACEWID
 40
1.0
  9
$TEXTSTYLE
  7
Standard
  9
$CLAYER
  8
0
  9
$CELTYPE
  6
ByLayer
  9
$CECOLOR
 62
256
  9
$CELTSCALE
 40
1.0
  9
$DISPSILH
 70
0
  9
$DIMSCALE
 40
1.0
  9
$DIMASZ
 40
2.5
  9
$DIMEXO
 40
0.625
  9
$DIMDLI
 40
3.75
  9
$DIMRND
 40
0.0
  9
$DIMDLE
 40
0.0
  9
$DIMEXE
 40
1.25
  9
$DIMTP
 40
0.0
  9
$DIMTM
 40
0.0
  9
$DIMTXT
 40
2.5
  9
$DIMCEN
 40
2.5
  9
$DIMTSZ
 40
0.0
  9
$DIMTOL
 70
0
  9
$DIMLIM
 70
0
  9
$DIMTIH
 70
0
  9
$DIMTOH
 70
0
  9
$DIMSE1
 70
0
  9
$DIMSE2
 70
0
  9
$DIMTAD
 70
1
  9
$DIMZIN
 70
8
  9
$DIMBLK
  1

  9
$DIMASO
 70
1
  9
$DIMSHO
 70
1
  9
$DIMPOST
  1

  9
$DIMAPOST
  1

  9
$DIMALT
 70
0
  9
$DIMALTD
 70
3
  9
$DIMALTF
 40
0.03937007874
  9
$DIMLFAC
 40
1.0
  9
$DIMTOFL
 70
1
  9
$DIMTVP
 40
0.0
  9
$DIMTIX
 70
0
  9
$DIMSOXD
 70
0
  9
$DIMSAH
 70
0
  9
$DIMBLK1
  1

  9
$DIMBLK2
  1

  9
$DIMSTYLE
  2
ISO-25
  9
$DIMCLRD
 70
0
  9
$DIMCLRE
 70
0
  9
$DIMCLRT
 70
0
  9
$DIMTFAC
 40
1.0
  9
$DIMGAP
 40
0.625
  9
$DIMJUST
 70
0
  9
$DIMSD1
 70
0
  9
$DIMSD2
 70
0
  9
$DIMTOLJ
 70
0
  9
$DIMTZIN
 70
8
  9
$DIMALTZ
 70
0
  9
$DIMALTTZ
 70
0
  9
$DIMUPT
 70
0
  9
$DIMDEC
 70
2
  9
$DIMTDEC
 70
2
  9
$DIMALTU
 70
2
  9
$DIMALTTD
 70
3
  9
$DIMTXSTY
  7
Standard
  9
$DIMAUNIT
 70
0
  9
$DIMADEC
 70
0
  9
$DIMALTRND
 40
0.0
  9
$DIMAZIN
 70
0
  9
$DIMDSEP
 70
44
  9
$DIMATFIT
 70
3
  9
$DIMFRAC
 70
0
  9
$DIMLDRBLK
  1

  9
$DIMLUNIT
 70
2
  9
$DIMLWD
 70
-2
  9
$DIMLWE
 70
-2
  9
$DIMTMOVE
 70
0
  9
$DIMFXL
 40
1.0
  9
$DIMFXLON
 70
0
  9
$DIMJOGANG
 40
0.785398163397
  9
$DIMTFILL
 70
0
  9
$DIMTFILLCLR
 70
0
  9
$DIMARCSYM
 70
0
  9
$DIMLTYPE
  6

  9
$DIMLTEX1
  6

  9
$DIMLTEX2
  6

  9
$DIMTXTDIRECTION
 70
0
  9
$LUNITS
 70
2
  9
$LUPREC
 70
4
  9
$SKETCHINC
 40
1.0
  9
$FILLETRAD
 40
10.0
  9
$AUNITS
 70
0
  9
$AUPREC
 70
2
  9
$MENU
  1
.
  9
$ELEVATION
 40
0.0
  9
$PELEVATION
 40
0.0
  9
$THICKNESS
 40
0.0
  9
$LIMCHECK
 70
0
  9
$CHAMFERA
 40
0.0
  9
$CHAMFERB
 40
0.0
  9
$CHAMFERC
 40
0.0
  9
$CHAMFERD
 40
0.0
  9
$SKPOLY
 70
0
  9
$TDCREATE
 40
2461202.0092708333
  9
$TDUCREATE
 40
2458532.153996898
  9
$TDUPDATE
 40
2461202.0092708333
  9
$TDUUPDATE
 40
2458532.1544311
  9
$TDINDWG
 40
0.0
  9
$TDUSRTIMER
 40
0.0
  9
$USRTIMER
 70
1
  9
$ANGBASE
 50
0.0
  9
$ANGDIR
 70
0
  9
$PDMODE
 70
0
  9
$PDSIZE
 40
0.0
  9
$PLINEWID
 40
0.0
  9
$SPLFRAME
 70
0
  9
$SPLINETYPE
 70
6
  9
$SPLINESEGS
 70
8
  9
$HANDSEED
  5
EE
  9
$SURFTAB1
 70
6
  9
$SURFTAB2
 70
6
  9
$SURFTYPE
 70
6
  9
$SURFU
 70
6
  9
$SURFV
 70
6
  9
$UCSBASE
  2

  9
$UCSNAME
  2

  9
$UCSORG
 10
0.0
 20
0.0
 30
0.0
  9
$UCSXDIR
 10
1.0
 20
0.0
 30
0.0
  9
$UCSYDIR
 10
0.0
 20
1.0
 30
0.0
  9
$UCSORTHOREF
  2

  9
$UCSORTHOVIEW
 70
0
  9
$UCSORGTOP
 10
0.0
 20
0.0
 30
0.0
  9
$UCSORGBOTTOM
 10
0.0
 20
0.0
 30
0.0
  9
$UCSORGLEFT
 10
0.0
 20
0.0
 30
0.0
  9
$UCSORGRIGHT
 10
0.0
 20
0.0
 30
0.0
  9
$UCSORGFRONT
 10
0.0
 20
0.0
 30
0.0
  9
$UCSORGBACK
 10
0.0
 20
0.0
 30
0.0
  9
$PUCSBASE
  2

  9
$PUCSNAME
  2

  9
$PUCSORG
 10
0.0
 20
0.0
 30
0.0
  9
$PUCSXDIR
 10
1.0
 20
0.0
 30
0.0
  9
$PUCSYDIR
 10
0.0
 20
1.0
 30
0.0
  9
$PUCSORTHOREF
  2

  9
$PUCSORTHOVIEW
 70
0
  9
$PUCSORGTOP
 10
0.0
 20
0.0
 30
0.0
  9
$PUCSORGBOTTOM
 10
0.0
 20
0.0
 30
0.0
  9
$PUCSORGLEFT
 10
0.0
 20
0.0
 30
0.0
  9
$PUCSORGRIGHT
 10
0.0
 20
0.0
 30
0.0
  9
$PUCSORGFRONT
 10
0.0
 20
0.0
 30
0.0
  9
$PUCSORGBACK
 10
0.0
 20
0.0
 30
0.0
  9
$USERI1
 70
0
  9
$USERI2
 70
0
  9
$USERI3
 70
0
  9
$USERI4
 70
0
  9
$USERI5
 70
0
  9
$USERR1
 40
0.0
  9
$USERR2
 40
0.0
  9
$USERR3
 40
0.0
  9
$USERR4
 40
0.0
  9
$USERR5
 40
0.0
  9
$WORLDVIEW
 70
1
  9
$SHADEDGE
 70
3
  9
$SHADEDIF
 70
70
  9
$TILEMODE
 70
1
  9
$MAXACTVP
 70
64
  9
$PINSBASE
 10
0.0
 20
0.0
 30
0.0
  9
$PLIMCHECK
 70
0
  9
$PEXTMIN
 10
1e+20
 20
1e+20
 30
1e+20
  9
$PEXTMAX
 10
-1e+20
 20
-1e+20
 30
-1e+20
  9
$PLIMMIN
 10
0.0
 20
0.0
  9
$PLIMMAX
 10
420.0
 20
297.0
  9
$UNITMODE
 70
0
  9
$VISRETAIN
 70
1
  9
$PLINEGEN
 70
0
  9
$PSLTSCALE
 70
1
  9
$TREEDEPTH
 70
3020
  9
$CMLSTYLE
  2
Standard
  9
$CMLJUST
 70
0
  9
$CMLSCALE
 40
20.0
  9
$PROXYGRAPHICS
 70
1
  9
$MEASUREMENT
 70
1
  9
$CELWEIGHT
370
-1
  9
$ENDCAPS
280
0
  9
$JOINSTYLE
280
0
  9
$LWDISPLAY
290
0
  9
$INSUNITS
 70
6
  9
$HYPERLINKBASE
  1

  9
$STYLESHEET
  1

  9
$XEDIT
290
1
  9
$CEPSNTYPE
380
0
  9
$PSTYLEMODE
290
1
  9
$FINGERPRINTGUID
  2
{11667120-E517-4BBA-BD69-E2362C1488E6}
  9
$VERSIONGUID
  2
{2830781E-B646-4E71-A115-909C4A5DB614}
  9
$EXTNAMES
290
1
  9
$PSVPSCALE
 40
0.0
  9
$OLESTARTUP
290
0
  9
$SORTENTS
280
127
  9
$INDEXCTL
280
0
  9
$HIDETEXT
280
1
  9
$XCLIPFRAME
280
1
  9
$HALOGAP
280
0
  9
$OBSCOLOR
 70
257
  9
$OBSLTYPE
280
0
  9
$INTERSECTIONDISPLAY
280
0
  9
$INTERSECTIONCOLOR
 70
257
  9
$DIMASSOC
280
2
  9
$PROJECTNAME
  1

  9
$CAMERADISPLAY
290
0
  9
$LENSLENGTH
 40
50.0
  9
$CAMERAHEIGHT
 40
0.0
  9
$STEPSPERSEC
 40
24.0
  9
$STEPSIZE
 40
100.0
  9
$3DDWFPREC
 40
2.0
  9
$PSOLWIDTH
 40
0.005
  9
$PSOLHEIGHT
 40
0.08
  9
$LOFTANG1
 40
1.570796326795
  9
$LOFTANG2
 40
1.570796326795
  9
$LOFTMAG1
 40
0.0
  9
$LOFTMAG2
 40
0.0
  9
$LOFTPARAM
 70
7
  9
$LOFTNORMALS
280
1
  9
$LATITUDE
 40
37.795
  9
$LONGITUDE
 40
-122.394
  9
$NORTHDIRECTION
 40
0.0
  9
$TIMEZONE
 70
-8000
  9
$LIGHTGLYPHDISPLAY
280
1
  9
$TILEMODELIGHTSYNCH
280
1
  9
$CMATERIAL
347
20
  9
$SOLIDHIST
280
0
  9
$SHOWHIST
280
1
  9
$DWFFRAME
280
2
  9
$DGNFRAME
280
2
  9
$REALWORLDSCALE
290
1
  9
$INTERFERECOLOR
 62
256
  9
$CSHADOW
280
0
  9
$SHADOWPLANELOCATION
 40
0.0
  0
ENDSEC
  0
SECTION
  2
CLASSES
  0
CLASS
  1
ACDBDICTIONARYWDFLT
  2
AcDbDictionaryWithDefault
  3
ObjectDBX Classes
 90
0
 91
0
280
0
281
0
  0
CLASS
  1
SUN
  2
AcDbSun
  3
SCENEOE
 90
1153
 91
0
280
0
281
0
  0
CLASS
  1
VISUALSTYLE
  2
AcDbVisualStyle
  3
ObjectDBX Classes
 90
4095
 91
0
280
0
281
0
  0
CLASS
  1
MATERIAL
  2
AcDbMaterial
  3
ObjectDBX Classes
 90
1153
 91
0
280
0
281
0
  0
CLASS
  1
SCALE
  2
AcDbScale
  3
ObjectDBX Classes
 90
1153
 91
0
280
0
281
0
  0
CLASS
  1
TABLESTYLE
  2
AcDbTableStyle
  3
ObjectDBX Classes
 90
4095
 91
0
280
0
281
0
  0
CLASS
  1
MLEADERSTYLE
  2
AcDbMLeaderStyle
  3
ACDB_MLEADERSTYLE_CLASS
 90
4095
 91
0
280
0
281
0
  0
CLASS
  1
DICTIONARYVAR
  2
AcDbDictionaryVar
  3
ObjectDBX Classes
 90
0
 91
0
280
0
281
0
  0
CLASS
  1
CELLSTYLEMAP
  2
AcDbCellStyleMap
  3
ObjectDBX Classes
 90
1152
 91
0
280
0
281
0
  0
CLASS
  1
MENTALRAYRENDERSETTINGS
  2
AcDbMentalRayRenderSettings
  3
SCENEOE
 90
1024
 91
0
280
0
281
0
  0
CLASS
  1
ACDBDETAILVIEWSTYLE
  2
AcDbDetailViewStyle
  3
ObjectDBX Classes
 90
1025
 91
0
280
0
281
0
  0
CLASS
  1
ACDBSECTIONVIEWSTYLE
  2
AcDbSectionViewStyle
  3
ObjectDBX Classes
 90
1025
 91
0
280
0
281
0
  0
CLASS
  1
RASTERVARIABLES
  2
AcDbRasterVariables
  3
ISM
 90
0
 91
0
280
0
281
0
  0
CLASS
  1
ACDBPLACEHOLDER
  2
AcDbPlaceHolder
  3
ObjectDBX Classes
 90
0
 91
0
280
0
281
0
  0
CLASS
  1
LAYOUT
  2
AcDbLayout
  3
ObjectDBX Classes
 90
0
 91
0
280
0
281
0
  0
ENDSEC
  0
SECTION
  2
TABLES
  0
TABLE
  2
VPORT
  5
8
330
0
100
AcDbSymbolTable
 70
1
  0
VPORT
  5
23
330
8
100
AcDbSymbolTableRecord
100
AcDbViewportTableRecord
  2
*Active
 70
0
 10
0.0
 20
0.0
 11
1.0
 21
1.0
 12
0.0
 22
0.0
 13
0.0
 23
0.0
 14
0.5
 24
0.5
 15
0.5
 25
0.5
 16
0.0
 26
0.0
 36
1.0
 17
0.0
 27
0.0
 37
0.0
 40
1000.0
 41
1.34
 42
50.0
 43
0.0
 44
0.0
 50
0.0
 51
0.0
 71
0
 72
1000
 73
1
 74
3
 75
0
 76
0
 77
0
 78
0
281
0
 65
0
146
0.0
  0
ENDTAB
  0
TABLE
  2
LTYPE
  5
2
330
0
100
AcDbSymbolTable
 70
3
  0
LTYPE
  5
24
330
2
100
AcDbSymbolTableRecord
100
AcDbLinetypeTableRecord
  2
ByBlock
 70
0
  3

 72
65
 73
0
 40
0.0
  0
LTYPE
  5
25
330
2
100
AcDbSymbolTableRecord
100
AcDbLinetypeTableRecord
  2
ByLayer
 70
0
  3

 72
65
 73
0
 40
0.0
  0
LTYPE
  5
26
330
2
100
AcDbSymbolTableRecord
100
AcDbLinetypeTableRecord
  2
Continuous
 70
0
  3

 72
65
 73
0
 40
0.0
  0
ENDTAB
  0
TABLE
  2
LAYER
  5
1
330
0
100
AcDbSymbolTable
 70
11
  0
LAYER
  5
27
330
1
100
AcDbSymbolTableRecord
100
AcDbLayerTableRecord
  2
0
 70
0
 62
7
  6
Continuous
370
-3
390
13
347
21
  0
LAYER
  5
28
330
1
100
AcDbSymbolTableRecord
100
AcDbLayerTableRecord
  2
Defpoints
 70
0
 62
7
  6
Continuous
290
0
370
-3
390
13
347
21
  0
LAYER
  5
2F
330
1
100
AcDbSymbolTableRecord
100
AcDbLayerTableRecord
  2
SARR_3.5x7
 70
0
 62
7
  6
Continuous
370
-3
390
13
347
21
  0
LAYER
  5
30
330
1
100
AcDbSymbolTableRecord
100
AcDbLayerTableRecord
  2
NOMENCLATURA
 70
0
 62
7
  6
Continuous
370
-3
390
13
347
21
  0
LAYER
  5
31
330
1
100
AcDbSymbolTableRecord
100
AcDbLayerTableRecord
  2
SARR_2.2x7
 70
0
 62
7
  6
Continuous
370
-3
390
13
347
21
  0
LAYER
  5
32
330
1
100
AcDbSymbolTableRecord
100
AcDbLayerTableRecord
  2
Cotas
 70
0
 62
7
  6
Continuous
370
-3
390
13
347
21
  0
LAYER
  5
33
330
1
100
AcDbSymbolTableRecord
100
AcDbLayerTableRecord
  2
COTA
 70
0
 62
7
  6
Continuous
370
-3
390
13
347
21
  0
LAYER
  5
34
330
1
100
AcDbSymbolTableRecord
100
AcDbLayerTableRecord
  2
Hachura
 70
0
 62
7
  6
Continuous
370
-3
390
13
347
21
  0
LAYER
  5
35
330
1
100
AcDbSymbolTableRecord
100
AcDbLayerTableRecord
  2
CONCRETO
 70
0
 62
7
  6
Continuous
370
-3
390
13
347
21
  0
LAYER
  5
36
330
1
100
AcDbSymbolTableRecord
100
AcDbLayerTableRecord
  2
Painéis
 70
0
 62
7
  6
Continuous
370
-3
390
13
347
21
  0
LAYER
  5
37
330
1
100
AcDbSymbolTableRecord
100
AcDbLayerTableRecord
  2
Madeira
 70
0
 62
7
  6
Continuous
370
-3
390
13
347
21
  0
ENDTAB
  0
TABLE
  2
STYLE
  5
5
330
0
100
AcDbSymbolTable
 70
1
  0
STYLE
  5
29
330
5
100
AcDbSymbolTableRecord
100
AcDbTextStyleTableRecord
  2
Standard
 70
0
 40
0.0
 41
1.0
 50
0.0
 71
0
 42
2.5
  3
txt
  4

  0
ENDTAB
  0
TABLE
  2
VIEW
  5
7
330
0
100
AcDbSymbolTable
 70
0
  0
ENDTAB
  0
TABLE
  2
UCS
  5
6
330
0
100
AcDbSymbolTable
 70
0
  0
ENDTAB
  0
TABLE
  2
APPID
  5
3
330
0
100
AcDbSymbolTable
 70
3
  0
APPID
  5
2A
330
3
100
AcDbSymbolTableRecord
100
AcDbRegAppTableRecord
  2
ACAD
 70
0
  0
APPID
  5
EB
330
3
100
AcDbSymbolTableRecord
100
AcDbRegAppTableRecord
  2
HATCHBACKGROUNDCOLOR
 70
0
  0
APPID
  5
EC
330
3
100
AcDbSymbolTableRecord
100
AcDbRegAppTableRecord
  2
EZDXF
 70
0
  0
ENDTAB
  0
TABLE
  2
DIMSTYLE
  5
4
330
0
100
AcDbSymbolTable
 70
1
100
AcDbDimStyleTable
  0
DIMSTYLE
105
2B
330
4
100
AcDbSymbolTableRecord
100
AcDbDimStyleTableRecord
  2
Standard
 70
0
 40
1.0
 41
2.5
 42
0.625
 43
3.75
 44
1.25
 45
0.0
 46
0.0
 47
0.0
 48
0.0
 49
2.5
140
2.5
141
2.5
142
0.0
143
0.03937007874
144
1.0
145
0.0
146
1.0
147
0.625
148
0.0
 69
0
 70
0
 71
0
 72
0
 73
0
 74
0
 75
0
 76
0
 77
1
 78
8
 79
3
170
0
171
3
172
1
173
0
174
0
175
0
176
0
177
0
178
0
179
2
271
2
272
2
273
2
274
3
275
0
276
0
277
2
278
44
279
0
280
0
281
0
282
0
283
0
284
8
285
0
286
0
288
0
289
3
290
0
371
-2
372
-2
  0
ENDTAB
  0
TABLE
  2
BLOCK_RECORD
  5
9
330
0
100
AcDbSymbolTable
 70
2
  0
BLOCK_RECORD
  5
17
330
9
100
AcDbSymbolTableRecord
100
AcDbBlockTableRecord
  2
*Model_Space
340
1A
 70
0
280
1
281
0
  0
BLOCK_RECORD
  5
1B
330
9
100
AcDbSymbolTableRecord
100
AcDbBlockTableRecord
  2
*Paper_Space
340
1E
 70
0
280
1
281
0
  0
ENDTAB
  0
ENDSEC
  0
SECTION
  2
BLOCKS
  0
BLOCK
  5
18
330
17
100
AcDbEntity
  8
0
100
AcDbBlockBegin
  2
*Model_Space
 70
0
 10
0.0
 20
0.0
 30
0.0
  3
*Model_Space
  1

  0
ENDBLK
  5
19
330
17
100
AcDbEntity
  8
0
100
AcDbBlockEnd
  0
BLOCK
  5
1C
330
1B
100
AcDbEntity
  8
0
100
AcDbBlockBegin
  2
*Paper_Space
 70
0
 10
0.0
 20
0.0
 30
0.0
  3
*Paper_Space
  1

  0
ENDBLK
  5
1D
330
1B
100
AcDbEntity
  8
0
100
AcDbBlockEnd
  0
ENDSEC
  0
SECTION
  2
ENTITIES
  0
LINE
  5
38
330
17
100
AcDbEntity
  8
SARR_2.2x7
 62
7
370
25
100
AcDbLine
 10
4324.257675489386
 20
4575.946217969483
 30
0.0
 11
4439.302816248572
 21
4575.946217969501
 31
0.0
  0
LINE
  5
39
330
17
100
AcDbEntity
  8
SARR_2.2x7
 62
7
370
25
100
AcDbLine
 10
4439.302816248572
 20
4575.946217969501
 30
0.0
 11
4612.34795700776
 21
4575.946217969237
 31
0.0
  0
LINE
  5
3A
330
17
100
AcDbEntity
  8
Painéis
 62
7
370
25
100
AcDbLine
 10
4315.302816248568
 20
4582.946217969389
 30
0.0
 11
4619.302816248569
 21
4582.946217969415
 31
0.0
  0
LINE
  5
3B
330
17
100
AcDbEntity
  8
Painéis
 62
7
370
25
100
AcDbLine
 10
4315.302816248573
 20
4538.94621796939
 30
0.0
 11
4619.302816248573
 21
4538.946217969415
 31
0.0
  0
LINE
  5
3C
330
17
100
AcDbEntity
  8
Painéis
 62
7
370
25
100
AcDbLine
 10
4619.302816248573
 20
4538.946217969415
 30
0.0
 11
4619.302816248569
 21
4582.946217969415
 31
0.0
  0
LINE
  5
3D
330
17
100
AcDbEntity
  8
Painéis
 62
7
370
25
100
AcDbLine
 10
4315.302816248573
 20
4538.94621796939
 30
0.0
 11
4315.30281624857
 21
4582.946217969389
 31
0.0
  0
LINE
  5
3E
330
17
100
AcDbEntity
  8
SARR_2.2x7
 62
7
370
25
100
AcDbLine
 10
4324.257675489389
 20
4538.946217969386
 30
0.0
 11
4324.257675489385
 21
4582.946217969389
 31
0.0
  0
LINE
  5
3F
330
17
100
AcDbEntity
  8
SARR_2.2x7
 62
7
370
25
100
AcDbLine
 10
4612.347957007758
 20
4538.946217969412
 30
0.0
 11
4612.347957007761
 21
4582.946217969389
 31
0.0
  0
LINE
  5
40
330
17
100
AcDbEntity
  8
Painéis
 62
7
370
25
100
AcDbLine
 10
4439.302816248573
 20
4538.946217969405
 30
0.0
 11
4439.302816248569
 21
4582.946217969404
 31
0.0
  0
LINE
  5
41
330
17
100
AcDbEntity
  8
COTA
 62
7
370
25
100
AcDbLine
 10
4315.302816248568
 20
4582.946217969389
 30
0.0
 11
4315.302816248568
 21
4597.94621796939
 31
0.0
  0
LINE
  5
42
330
17
100
AcDbEntity
  8
COTA
 62
7
370
25
100
AcDbLine
 10
4619.302816248568
 20
4597.94621796939
 30
0.0
 11
4619.302816248568
 21
4582.946217969415
 31
0.0
  0
LINE
  5
43
330
17
100
AcDbEntity
  8
SARR_2.2x7
 62
7
370
25
100
AcDbLine
 10
4324.257675489386
 20
4545.946217969318
 30
0.0
 11
4439.302816248572
 21
4545.946217969301
 31
0.0
  0
LINE
  5
44
330
17
100
AcDbEntity
  8
SARR_2.2x7
 62
7
370
25
100
AcDbLine
 10
4439.302816248572
 20
4545.946217969301
 30
0.0
 11
4612.34795700776
 21
4545.946217969564
 31
0.0
  0
LINE
  5
45
330
17
100
AcDbEntity
  8
COTA
 62
7
370
25
100
AcDbLine
 10
4619.302816248568
 20
4597.94621796939
 30
0.0
 11
4315.302816248568
 21
4597.94621796939
 31
0.0
  0
LINE
  5
46
330
17
100
AcDbEntity
  8
SARR_2.2x7
 62
7
370
25
100
AcDbLine
 10
4322.257675489386
 20
4366.080219741315
 30
0.0
 11
4437.302816248571
 21
4366.080219741333
 31
0.0
  0
LINE
  5
47
330
17
100
AcDbEntity
  8
SARR_2.2x7
 62
7
370
25
100
AcDbLine
 10
4437.302816248571
 20
4366.080219741333
 30
0.0
 11
4612.34795700776
 21
4366.080219741069
 31
0.0
  0
LINE
  5
48
330
17
100
AcDbEntity
  8
Painéis
 62
7
370
25
100
AcDbLine
 10
4315.302816248568
 20
4373.080219741222
 30
0.0
 11
4619.302816248569
 21
4373.080219741248
 31
0.0
  0
LINE
  5
49
330
17
100
AcDbEntity
  8
Painéis
 62
7
370
25
100
AcDbLine
 10
4315.302816248573
 20
4328.080219741222
 30
0.0
 11
4619.302816248573
 21
4328.080219741248
 31
0.0
  0
LINE
  5
4A
330
17
100
AcDbEntity
  8
Painéis
 62
7
370
25
100
AcDbLine
 10
4619.302816248573
 20
4328.080219741248
 30
0.0
 11
4619.302816248569
 21
4373.080219741248
 31
0.0
  0
LINE
  5
4B
330
17
100
AcDbEntity
  8
Painéis
 62
7
370
25
100
AcDbLine
 10
4315.302816248573
 20
4328.080219741222
 30
0.0
 11
4315.30281624857
 21
4373.080219741222
 31
0.0
  0
LINE
  5
4C
330
17
100
AcDbEntity
  8
SARR_2.2x7
 62
7
370
25
100
AcDbLine
 10
4322.257675489389
 20
4328.080219741218
 30
0.0
 11
4322.257675489384
 21
4373.080219741222
 31
0.0
  0
LINE
  5
4D
330
17
100
AcDbEntity
  8
SARR_2.2x7
 62
7
370
25
100
AcDbLine
 10
4612.347957007758
 20
4328.080219741244
 30
0.0
 11
4612.347957007761
 21
4373.080219741222
 31
0.0
  0
LINE
  5
4E
330
17
100
AcDbEntity
  8
Painéis
 62
7
370
25
100
AcDbLine
 10
4437.302816248574
 20
4328.080219741237
 30
0.0
 11
4437.302816248569
 21
4373.080219741236
 31
0.0
  0
LINE
  5
4F
330
17
100
AcDbEntity
  8
COTA
 62
7
370
25
100
AcDbLine
 10
4315.302816248568
 20
4373.080219741222
 30
0.0
 11
4315.302816248568
 21
4387.080219741222
 31
0.0
  0
LINE
  5
50
330
17
100
AcDbEntity
  8
COTA
 62
7
370
25
100
AcDbLine
 10
4619.302816248568
 20
4387.080219741222
 30
0.0
 11
4619.302816248568
 21
4373.080219741248
 31
0.0
  0
LINE
  5
51
330
17
100
AcDbEntity
  8
SARR_2.2x7
 62
7
370
25
100
AcDbLine
 10
4322.257675489388
 20
4335.080219741151
 30
0.0
 11
4437.302816248571
 21
4335.080219741133
 31
0.0
  0
LINE
  5
52
330
17
100
AcDbEntity
  8
SARR_2.2x7
 62
7
370
25
100
AcDbLine
 10
4437.302816248571
 20
4335.080219741133
 30
0.0
 11
4612.34795700776
 21
4335.080219741397
 31
0.0
  0
LINE
  5
53
330
17
100
AcDbEntity
  8
COTA
 62
7
370
25
100
AcDbLine
 10
4619.302816248568
 20
4387.080219741222
 30
0.0
 11
4315.302816248568
 21
4387.080219741222
 31
0.0
  0
LINE
  5
54
330
17
100
AcDbEntity
  8
SARR_2.2x7
 62
7
370
25
100
AcDbLine
 10
5053.958723169122
 20
4575.946217969483
 30
0.0
 11
5169.003863928309
 21
4575.946217969501
 31
0.0
  0
LINE
  5
55
330
17
100
AcDbEntity
  8
SARR_2.2x7
 62
7
370
25
100
AcDbLine
 10
5169.003863928309
 20
4575.946217969501
 30
0.0
 11
5250.549004687498
 21
4575.946217969237
 31
0.0
  0
LINE
  5
56
330
17
100
AcDbEntity
  8
Painéis
 62
7
370
25
100
AcDbLine
 10
5047.003863928305
 20
4582.946217969389
 30
0.0
 11
5259.503863928307
 21
4582.946217969415
 31
0.0
  0
LINE
  5
57
330
17
100
AcDbEntity
  8
Painéis
 62
7
370
25
100
AcDbLine
 10
5047.00386392831
 20
4538.94621796939
 30
0.0
 11
5259.50386392831
 21
4538.946217969415
 31
0.0
  0
LINE
  5
58
330
17
100
AcDbEntity
  8
Painéis
 62
7
370
25
100
AcDbLine
 10
5259.50386392831
 20
4538.946217969415
 30
0.0
 11
5259.503863928307
 21
4582.946217969415
 31
0.0
  0
LINE
  5
59
330
17
100
AcDbEntity
  8
Painéis
 62
7
370
25
100
AcDbLine
 10
5047.00386392831
 20
4538.94621796939
 30
0.0
 11
5047.003863928306
 21
4582.946217969389
 31
0.0
  0
LINE
  5
5A
330
17
100
AcDbEntity
  8
SARR_2.2x7
 62
7
370
25
100
AcDbLine
 10
5053.958723169126
 20
4538.946217969386
 30
0.0
 11
5053.958723169122
 21
4582.946217969389
 31
0.0
  0
LINE
  5
5B
330
17
100
AcDbEntity
  8
SARR_2.2x7
 62
7
370
25
100
AcDbLine
 10
5250.549004687495
 20
4538.946217969412
 30
0.0
 11
5250.549004687498
 21
4582.946217969389
 31
0.0
  0
LINE
  5
5C
330
17
100
AcDbEntity
  8
Painéis
 62
7
370
25
100
AcDbLine
 10
5169.00386392831
 20
4538.946217969405
 30
0.0
 11
5169.003863928306
 21
4582.946217969404
 31
0.0
  0
LINE
  5
5D
330
17
100
AcDbEntity
  8
COTA
 62
7
370
25
100
AcDbLine
 10
5047.003863928305
 20
4582.946217969389
 30
0.0
 11
5047.003863928305
 21
4597.94621796939
 31
0.0
  0
LINE
  5
5E
330
17
100
AcDbEntity
  8
COTA
 62
7
370
25
100
AcDbLine
 10
5259.503863928305
 20
4597.94621796939
 30
0.0
 11
5259.503863928305
 21
4582.946217969415
 31
0.0
  0
LINE
  5
5F
330
17
100
AcDbEntity
  8
SARR_2.2x7
 62
7
370
25
100
AcDbLine
 10
5053.958723169122
 20
4545.946217969318
 30
0.0
 11
5169.003863928309
 21
4545.946217969301
 31
0.0
  0
LINE
  5
60
330
17
100
AcDbEntity
  8
SARR_2.2x7
 62
7
370
25
100
AcDbLine
 10
5169.003863928309
 20
4545.946217969301
 30
0.0
 11
5250.549004687498
 21
4545.946217969564
 31
0.0
  0
LINE
  5
61
330
17
100
AcDbEntity
  8
COTA
 62
7
370
25
100
AcDbLine
 10
5259.503863928305
 20
4597.94621796939
 30
0.0
 11
5047.003863928305
 21
4597.94621796939
 31
0.0
  0
LINE
  5
62
330
17
100
AcDbEntity
  8
SARR_2.2x7
 62
7
370
25
100
AcDbLine
 10
5053.958723169122
 20
4365.080219741314
 30
0.0
 11
5093.003863928308
 21
4365.080219741333
 31
0.0
  0
LINE
  5
63
330
17
100
AcDbEntity
  8
SARR_2.2x7
 62
7
370
25
100
AcDbLine
 10
5093.003863928308
 20
4365.080219741333
 30
0.0
 11
5130.549004687498
 21
4365.080219741069
 31
0.0
  0
LINE
  5
64
330
17
100
AcDbEntity
  8
Painéis
 62
7
370
25
100
AcDbLine
 10
5047.003863928305
 20
4372.080219741222
 30
0.0
 11
5139.503863928307
 21
4372.080219741247
 31
0.0
  0
LINE
  5
65
330
17
100
AcDbEntity
  8
Painéis
 62
7
370
25
100
AcDbLine
 10
5047.00386392831
 20
4328.080219741222
 30
0.0
 11
5139.50386392831
 21
4328.080219741248
 31
0.0
  0
LINE
  5
66
330
17
100
AcDbEntity
  8
Painéis
 62
7
370
25
100
AcDbLine
 10
5139.50386392831
 20
4328.080219741248
 30
0.0
 11
5139.503863928307
 21
4372.080219741247
 31
0.0
  0
LINE
  5
67
330
17
100
AcDbEntity
  8
Painéis
 62
7
370
25
100
AcDbLine
 10
5047.00386392831
 20
4328.080219741222
 30
0.0
 11
5047.003863928306
 21
4372.080219741222
 31
0.0
  0
LINE
  5
68
330
17
100
AcDbEntity
  8
SARR_2.2x7
 62
7
370
25
100
AcDbLine
 10
5053.958723169126
 20
4328.080219741218
 30
0.0
 11
5053.958723169122
 21
4372.080219741222
 31
0.0
  0
LINE
  5
69
330
17
100
AcDbEntity
  8
SARR_2.2x7
 62
7
370
25
100
AcDbLine
 10
5130.549004687495
 20
4328.080219741244
 30
0.0
 11
5130.549004687498
 21
4372.080219741222
 31
0.0
  0
LINE
  5
6A
330
17
100
AcDbEntity
  8
Painéis
 62
7
370
25
100
AcDbLine
 10
5093.00386392831
 20
4328.080219741237
 30
0.0
 11
5093.003863928307
 21
4372.080219741237
 31
0.0
  0
LINE
  5
6B
330
17
100
AcDbEntity
  8
COTA
 62
7
370
25
100
AcDbLine
 10
5047.003863928305
 20
4372.080219741222
 30
0.0
 11
5047.003863928305
 21
4387.080219741222
 31
0.0
  0
LINE
  5
6C
330
17
100
AcDbEntity
  8
COTA
 62
7
370
25
100
AcDbLine
 10
5139.503863928305
 20
4387.080219741222
 30
0.0
 11
5139.503863928305
 21
4372.080219741247
 31
0.0
  0
LINE
  5
6D
330
17
100
AcDbEntity
  8
SARR_2.2x7
 62
7
370
25
100
AcDbLine
 10
5053.958723169122
 20
4335.080219741151
 30
0.0
 11
5093.003863928308
 21
4335.080219741133
 31
0.0
  0
LINE
  5
6E
330
17
100
AcDbEntity
  8
SARR_2.2x7
 62
7
370
25
100
AcDbLine
 10
5093.003863928308
 20
4335.080219741133
 30
0.0
 11
5130.549004687498
 21
4335.080219741397
 31
0.0
  0
LINE
  5
6F
330
17
100
AcDbEntity
  8
COTA
 62
7
370
25
100
AcDbLine
 10
5139.503863928305
 20
4387.080219741222
 30
0.0
 11
5047.003863928305
 21
4387.080219741222
 31
0.0
  0
LINE
  5
70
330
17
100
AcDbEntity
  8
COTA
 62
7
370
25
100
AcDbLine
 10
4908.258379021587
 20
4947.393321079998
 30
0.0
 11
4908.258379021587
 21
4176.636834490894
 31
0.0
  0
LINE
  5
71
330
17
100
AcDbEntity
  8
SARR_2.2x7
 62
7
370
25
100
AcDbLine
 10
5345.228402162014
 20
4575.946217969521
 30
0.0
 11
5382.2735429212
 21
4575.946217969539
 31
0.0
  0
LINE
  5
72
330
17
100
AcDbEntity
  8
SARR_2.2x7
 62
7
370
25
100
AcDbLine
 10
5382.2735429212
 20
4575.946217969539
 30
0.0
 11
5421.818683680391
 21
4575.946217969275
 31
0.0
  0
LINE
  5
73
330
17
100
AcDbEntity
  8
Painéis
 62
7
370
25
100
AcDbLine
 10
5336.273542921198
 20
4582.946217969428
 30
0.0
 11
5428.773542921199
 21
4582.946217969453
 31
0.0
  0
LINE
  5
74
330
17
100
AcDbEntity
  8
Painéis
 62
7
370
25
100
AcDbLine
 10
5336.273542921202
 20
4538.946217969428
 30
0.0
 11
5428.773542921202
 21
4538.946217969454
 31
0.0
  0
LINE
  5
75
330
17
100
AcDbEntity
  8
Painéis
 62
7
370
25
100
AcDbLine
 10
5428.773542921202
 20
4538.946217969454
 30
0.0
 11
5428.773542921199
 21
4582.946217969453
 31
0.0
  0
LINE
  5
76
330
17
100
AcDbEntity
  8
Painéis
 62
7
370
25
100
AcDbLine
 10
5336.273542921202
 20
4538.946217969428
 30
0.0
 11
5336.273542921198
 21
4582.946217969428
 31
0.0
  0
LINE
  5
77
330
17
100
AcDbEntity
  8
SARR_2.2x7
 62
7
370
25
100
AcDbLine
 10
5345.228402162017
 20
4538.946217969424
 30
0.0
 11
5345.228402162014
 21
4582.946217969428
 31
0.0
  0
LINE
  5
78
330
17
100
AcDbEntity
  8
SARR_2.2x7
 62
7
370
25
100
AcDbLine
 10
5421.818683680387
 20
4538.94621796945
 30
0.0
 11
5421.818683680391
 21
4582.946217969428
 31
0.0
  0
LINE
  5
79
330
17
100
AcDbEntity
  8
Painéis
 62
7
370
25
100
AcDbLine
 10
5382.273542921202
 20
4538.946217969442
 30
0.0
 11
5382.273542921199
 21
4582.946217969443
 31
0.0
  0
LINE
  5
7A
330
17
100
AcDbEntity
  8
COTA
 62
7
370
25
100
AcDbLine
 10
5336.273542921198
 20
4582.946217969428
 30
0.0
 11
5336.273542921198
 21
4597.946217969428
 31
0.0
  0
LINE
  5
7B
330
17
100
AcDbEntity
  8
COTA
 62
7
370
25
100
AcDbLine
 10
5428.773542921197
 20
4597.946217969428
 30
0.0
 11
5428.773542921197
 21
4582.946217969453
 31
0.0
  0
LINE
  5
7C
330
17
100
AcDbEntity
  8
SARR_2.2x7
 62
7
370
25
100
AcDbLine
 10
5345.228402162014
 20
4545.946217969357
 30
0.0
 11
5382.2735429212
 21
4545.946217969339
 31
0.0
  0
LINE
  5
7D
330
17
100
AcDbEntity
  8
SARR_2.2x7
 62
7
370
25
100
AcDbLine
 10
5382.2735429212
 20
4545.946217969339
 30
0.0
 11
5421.818683680391
 21
4545.946217969603
 31
0.0
  0
LINE
  5
7E
330
17
100
AcDbEntity
  8
COTA
 62
7
370
25
100
AcDbLine
 10
5428.773542921197
 20
4597.946217969428
 30
0.0
 11
5336.273542921198
 21
4597.946217969428
 31
0.0
  0
LINE
  5
7F
330
17
100
AcDbEntity
  8
SARR_2.2x7
 62
7
370
25
100
AcDbLine
 10
5225.228402162014
 20
4365.08021974134
 30
0.0
 11
5338.2735429212
 21
4365.080219741359
 31
0.0
  0
LINE
  5
80
330
17
100
AcDbEntity
  8
SARR_2.2x7
 62
7
370
25
100
AcDbLine
 10
5338.2735429212
 20
4365.080219741359
 30
0.0
 11
5421.818683680391
 21
4365.080219741094
 31
0.0
  0
LINE
  5
81
330
17
100
AcDbEntity
  8
Painéis
 62
7
370
25
100
AcDbLine
 10
5216.273542921197
 20
4372.080219741247
 30
0.0
 11
5428.773542921199
 21
4372.080219741273
 31
0.0
  0
LINE
  5
82
330
17
100
AcDbEntity
  8
Painéis
 62
7
370
25
100
AcDbLine
 10
5216.273542921203
 20
4328.080219741248
 30
0.0
 11
5428.773542921202
 21
4328.080219741273
 31
0.0
  0
LINE
  5
83
330
17
100
AcDbEntity
  8
Painéis
 62
7
370
25
100
AcDbLine
 10
5428.773542921202
 20
4328.080219741273
 30
0.0
 11
5428.773542921199
 21
4372.080219741273
 31
0.0
  0
LINE
  5
84
330
17
100
AcDbEntity
  8
Painéis
 62
7
370
25
100
AcDbLine
 10
5216.273542921203
 20
4328.080219741248
 30
0.0
 11
5216.273542921199
 21
4372.080219741247
 31
0.0
  0
LINE
  5
85
330
17
100
AcDbEntity
  8
SARR_2.2x7
 62
7
370
25
100
AcDbLine
 10
5225.228402162018
 20
4328.080219741244
 30
0.0
 11
5225.228402162014
 21
4372.080219741247
 31
0.0
  0
LINE
  5
86
330
17
100
AcDbEntity
  8
SARR_2.2x7
 62
7
370
25
100
AcDbLine
 10
5421.818683680387
 20
4328.080219741269
 30
0.0
 11
5421.818683680391
 21
4372.080219741247
 31
0.0
  0
LINE
  5
87
330
17
100
AcDbEntity
  8
Painéis
 62
7
370
25
100
AcDbLine
 10
5338.273542921203
 20
4328.080219741262
 30
0.0
 11
5338.273542921199
 21
4372.080219741262
 31
0.0
  0
LINE
  5
88
330
17
100
AcDbEntity
  8
COTA
 62
7
370
25
100
AcDbLine
 10
5216.273542921197
 20
4372.080219741247
 30
0.0
 11
5216.273542921197
 21
4387.080219741248
 31
0.0
  0
LINE
  5
89
330
17
100
AcDbEntity
  8
COTA
 62
7
370
25
100
AcDbLine
 10
5428.773542921197
 20
4387.080219741248
 30
0.0
 11
5428.773542921197
 21
4372.080219741273
 31
0.0
  0
LINE
  5
8A
330
17
100
AcDbEntity
  8
SARR_2.2x7
 62
7
370
25
100
AcDbLine
 10
5225.228402162014
 20
4335.080219741176
 30
0.0
 11
5338.2735429212
 21
4335.080219741159
 31
0.0
  0
LINE
  5
8B
330
17
100
AcDbEntity
  8
SARR_2.2x7
 62
7
370
25
100
AcDbLine
 10
5338.2735429212
 20
4335.080219741159
 30
0.0
 11
5421.818683680391
 21
4335.080219741422
 31
0.0
  0
LINE
  5
8C
330
17
100
AcDbEntity
  8
COTA
 62
7
370
25
100
AcDbLine
 10
5428.773542921197
 20
4387.080219741248
 30
0.0
 11
5216.273542921197
 21
4387.080219741248
 31
0.0
  0
LINE
  5
8D
330
17
100
AcDbEntity
  8
SARR_2.2x7
 62
7
370
25
100
AcDbLine
 10
4324.257675489387
 20
4557.446217969417
 30
0.0
 11
4439.302816248572
 21
4557.446217969228
 31
0.0
  0
LINE
  5
8E
330
17
100
AcDbEntity
  8
SARR_2.2x7
 62
7
370
25
100
AcDbLine
 10
4324.257675489387
 20
4564.446217969115
 30
0.0
 11
4439.30281624857
 21
4564.446217968926
 31
0.0
  0
LINE
  5
8F
330
17
100
AcDbEntity
  8
SARR_2.2x7
 62
7
370
25
100
AcDbLine
 10
4439.302816248572
 20
4557.446217969434
 30
0.0
 11
4612.347957007759
 21
4557.446217969391
 31
0.0
  0
LINE
  5
90
330
17
100
AcDbEntity
  8
SARR_2.2x7
 62
7
370
25
100
AcDbLine
 10
4439.302816248572
 20
4564.446217969131
 30
0.0
 11
4612.347957007759
 21
4564.44621796909
 31
0.0
  0
LINE
  5
91
330
17
100
AcDbEntity
  8
SARR_2.2x7
 62
7
370
25
100
AcDbLine
 10
4437.302816248571
 20
4347.080219741266
 30
0.0
 11
4612.347957007759
 21
4347.080219741223
 31
0.0
  0
LINE
  5
92
330
17
100
AcDbEntity
  8
SARR_2.2x7
 62
7
370
25
100
AcDbLine
 10
4437.302816248571
 20
4354.080219740963
 30
0.0
 11
4612.347957007759
 21
4354.080219740921
 31
0.0
  0
LINE
  5
93
330
17
100
AcDbEntity
  8
SARR_2.2x7
 62
7
370
25
100
AcDbLine
 10
4322.257675489388
 20
4347.080219741252
 30
0.0
 11
4437.302816248571
 21
4347.080219741061
 31
0.0
  0
LINE
  5
94
330
17
100
AcDbEntity
  8
SARR_2.2x7
 62
7
370
25
100
AcDbLine
 10
4322.257675489387
 20
4354.08021974095
 30
0.0
 11
4437.302816248571
 21
4354.080219740759
 31
0.0
  0
LINE
  5
95
330
17
100
AcDbEntity
  8
SARR_2.2x7
 62
7
370
25
100
AcDbLine
 10
5053.958723169124
 20
4557.446217969417
 30
0.0
 11
5169.003863928309
 21
4557.446217969325
 31
0.0
  0
LINE
  5
96
330
17
100
AcDbEntity
  8
SARR_2.2x7
 62
7
370
25
100
AcDbLine
 10
5053.958723169124
 20
4564.446217969115
 30
0.0
 11
5169.003863928309
 21
4564.446217969023
 31
0.0
  0
LINE
  5
97
330
17
100
AcDbEntity
  8
SARR_2.2x7
 62
7
370
25
100
AcDbLine
 10
5169.003863928309
 20
4557.446217969434
 30
0.0
 11
5250.549004687497
 21
4557.446217969367
 31
0.0
  0
LINE
  5
98
330
17
100
AcDbEntity
  8
SARR_2.2x7
 62
7
370
25
100
AcDbLine
 10
5169.003863928309
 20
4564.446217969131
 30
0.0
 11
5250.549004687497
 21
4564.446217969066
 31
0.0
  0
LINE
  5
99
330
17
100
AcDbEntity
  8
SARR_2.2x7
 62
7
370
25
100
AcDbLine
 10
5345.228402162017
 20
4557.446217969455
 30
0.0
 11
5382.2735429212
 21
4557.446217969423
 31
0.0
  0
LINE
  5
9A
330
17
100
AcDbEntity
  8
SARR_2.2x7
 62
7
370
25
100
AcDbLine
 10
5345.228402162017
 20
4564.446217969154
 30
0.0
 11
5382.2735429212
 21
4564.446217969122
 31
0.0
  0
LINE
  5
9B
330
17
100
AcDbEntity
  8
SARR_2.2x7
 62
7
370
25
100
AcDbLine
 10
5382.2735429212
 20
4557.446217969472
 30
0.0
 11
5421.818683680388
 21
4557.44621796944
 31
0.0
  0
LINE
  5
9C
330
17
100
AcDbEntity
  8
SARR_2.2x7
 62
7
370
25
100
AcDbLine
 10
5382.2735429212
 20
4564.44621796917
 30
0.0
 11
5421.818683680388
 21
4564.446217969139
 31
0.0
  0
LINE
  5
9D
330
17
100
AcDbEntity
  8
SARR_2.2x7
 62
7
370
25
100
AcDbLine
 10
5053.958723169124
 20
4346.580219741249
 30
0.0
 11
5093.003863928309
 21
4346.580219741219
 31
0.0
  0
LINE
  5
9E
330
17
100
AcDbEntity
  8
SARR_2.2x7
 62
7
370
25
100
AcDbLine
 10
5053.958723169124
 20
4353.580219740947
 30
0.0
 11
5093.003863928308
 21
4353.580219740917
 31
0.0
  0
LINE
  5
9F
330
17
100
AcDbEntity
  8
SARR_2.2x7
 62
7
370
25
100
AcDbLine
 10
5093.003863928308
 20
4346.580219741265
 30
0.0
 11
5130.549004687495
 21
4346.580219741234
 31
0.0
  0
LINE
  5
A0
330
17
100
AcDbEntity
  8
SARR_2.2x7
 62
7
370
25
100
AcDbLine
 10
5093.003863928308
 20
4353.580219740964
 30
0.0
 11
5130.549004687496
 21
4353.580219740933
 31
0.0
  0
LINE
  5
A1
330
17
100
AcDbEntity
  8
SARR_2.2x7
 62
7
370
25
100
AcDbLine
 10
5225.228402162017
 20
4346.580219741275
 30
0.0
 11
5338.273542921202
 21
4346.580219741183
 31
0.0
  0
LINE
  5
A2
330
17
100
AcDbEntity
  8
SARR_2.2x7
 62
7
370
25
100
AcDbLine
 10
5225.228402162017
 20
4353.580219740972
 30
0.0
 11
5338.2735429212
 21
4353.580219740881
 31
0.0
  0
LINE
  5
A3
330
17
100
AcDbEntity
  8
SARR_2.2x7
 62
7
370
25
100
AcDbLine
 10
5338.2735429212
 20
4346.580219741291
 30
0.0
 11
5421.818683680388
 21
4346.580219741225
 31
0.0
  0
LINE
  5
A4
330
17
100
AcDbEntity
  8
SARR_2.2x7
 62
7
370
25
100
AcDbLine
 10
5338.2735429212
 20
4353.580219740989
 30
0.0
 11
5421.81868368039
 21
4353.580219740923
 31
0.0
  0
LINE
  5
A5
330
17
100
AcDbEntity
  8
NOMENCLATURA
 62
7
370
25
100
AcDbLine
 10
4305.10481489332
 20
4468.625312774649
 30
0.0
 11
4252.688946853244
 21
4468.625312774649
 31
0.0
  0
LINE
  5
A6
330
17
100
AcDbEntity
  8
Painéis
 62
7
370
25
100
AcDbLine
 10
4317.302816248579
 20
4538.946217969479
 30
0.0
 11
4317.302816248576
 21
4582.946217969389
 31
0.0
  0
LINE
  5
A7
330
17
100
AcDbEntity
  8
NOMENCLATURA
 62
7
370
25
100
AcDbLine
 10
4305.10481489332
 20
4468.625312774649
 30
0.0
 11
4305.10481489332
 21
4519.012048605989
 31
0.0
  0
LINE
  5
A8
330
17
100
AcDbEntity
  8
NOMENCLATURA
 62
7
370
25
100
AcDbLine
 10
4629.500817603826
 20
4257.759314546507
 30
0.0
 11
4685.874493886212
 21
4257.759314546507
 31
0.0
  0
LINE
  5
A9
330
17
100
AcDbEntity
  8
Painéis
 62
7
370
25
100
AcDbLine
 10
4617.302816248567
 20
4328.080219741337
 30
0.0
 11
4617.302816248571
 21
4372.080219741247
 31
0.0
  0
LINE
  5
AA
330
17
100
AcDbEntity
  8
NOMENCLATURA
 62
7
370
25
100
AcDbLine
 10
4629.500817603826
 20
4257.759314546507
 30
0.0
 11
4629.500817603826
 21
4308.146050377846
 31
0.0
  0
LINE
  5
AB
330
17
100
AcDbEntity
  8
NOMENCLATURA
 62
7
370
25
100
AcDbLine
 10
5326.075541565949
 20
4468.625312774686
 30
0.0
 11
5269.701865283563
 21
4468.625312774686
 31
0.0
  0
LINE
  5
AC
330
17
100
AcDbEntity
  8
Painéis
 62
7
370
25
100
AcDbLine
 10
5338.273542921208
 20
4538.946217969517
 30
0.0
 11
5338.273542921204
 21
4582.946217969428
 31
0.0
  0
LINE
  5
AD
330
17
100
AcDbEntity
  8
NOMENCLATURA
 62
7
370
25
100
AcDbLine
 10
5326.075541565949
 20
4468.625312774686
 30
0.0
 11
5326.075541565949
 21
4519.012048606026
 31
0.0
  0
LINE
  5
AE
330
17
100
AcDbEntity
  8
Painéis
 62
7
370
25
100
AcDbLine
 10
5257.503863928305
 20
4538.946217969517
 30
0.0
 11
5257.503863928309
 21
4582.946217969428
 31
0.0
  0
LINE
  5
AF
330
17
100
AcDbEntity
  8
NOMENCLATURA
 62
7
370
25
100
AcDbLine
 10
5269.701865283563
 20
4468.625312774686
 30
0.0
 11
5269.701865283563
 21
4519.012048606026
 31
0.0
  0
LINE
  5
B0
330
17
100
AcDbEntity
  8
NOMENCLATURA
 62
7
370
25
100
AcDbLine
 10
5206.07554156595
 20
4257.759314546507
 30
0.0
 11
5149.701865283564
 21
4257.759314546507
 31
0.0
  0
LINE
  5
B1
330
17
100
AcDbEntity
  8
Painéis
 62
7
370
25
100
AcDbLine
 10
5218.273542921208
 20
4328.080219741337
 30
0.0
 11
5218.273542921204
 21
4372.080219741247
 31
0.0
  0
LINE
  5
B2
330
17
100
AcDbEntity
  8
NOMENCLATURA
 62
7
370
25
100
AcDbLine
 10
5206.07554156595
 20
4257.759314546507
 30
0.0
 11
5206.07554156595
 21
4308.146050377846
 31
0.0
  0
LINE
  5
B3
330
17
100
AcDbEntity
  8
Painéis
 62
7
370
25
100
AcDbLine
 10
5137.503863928305
 20
4328.080219741337
 30
0.0
 11
5137.503863928309
 21
4372.080219741247
 31
0.0
  0
LINE
  5
B4
330
17
100
AcDbEntity
  8
NOMENCLATURA
 62
7
370
25
100
AcDbLine
 10
5149.701865283564
 20
4257.759314546507
 30
0.0
 11
5149.701865283564
 21
4308.146050377846
 31
0.0
  0
LINE
  5
B5
330
17
100
AcDbEntity
  8
Madeira
 62
7
370
25
100
AcDbLine
 10
4732.808344546596
 20
4874.087721738572
 30
0.0
 11
4802.466764821179
 21
4874.087721738572
 31
0.0
  0
LINE
  5
B6
330
17
100
AcDbEntity
  8
Madeira
 62
7
370
25
100
AcDbLine
 10
4802.466764821179
 20
4874.087721738572
 30
0.0
 11
4802.466764821179
 21
4869.68772173857
 31
0.0
  0
LINE
  5
B7
330
17
100
AcDbEntity
  8
Madeira
 62
7
370
25
100
AcDbLine
 10
4802.466764821179
 20
4869.68772173857
 30
0.0
 11
4732.808344546596
 21
4869.68772173857
 31
0.0
  0
LINE
  5
B8
330
17
100
AcDbEntity
  8
Painéis
 62
7
370
25
100
AcDbLine
 10
4802.466764821179
 20
4877.687721738563
 30
0.0
 11
4732.611746705097
 21
4877.687721738563
 31
0.0
  0
LINE
  5
B9
330
17
100
AcDbEntity
  8
Painéis
 62
7
370
25
100
AcDbLine
 10
4802.466764821179
 20
4874.087721738572
 30
0.0
 11
4732.627908481711
 21
4874.087721738561
 31
0.0
  0
LINE
  5
BA
330
17
100
AcDbEntity
  8
Madeira
 62
7
370
25
100
AcDbLine
 10
4798.06676482118
 20
4839.687721738564
 30
0.0
 11
4798.06676482118
 21
4869.68772173857
 31
0.0
  0
LINE
  5
BB
330
17
100
AcDbEntity
  8
Madeira
 62
7
370
25
100
AcDbLine
 10
4802.466764821179
 20
4844.12046315362
 30
0.0
 11
4802.466764821179
 21
4869.68772173857
 31
0.0
  0
LINE
  5
BC
330
17
100
AcDbEntity
  8
Hachura
 62
7
370
25
100
AcDbLine
 10
4802.466764821179
 20
4839.687721738564
 30
0.0
 11
4798.066764821181
 21
4839.687721738567
 31
0.0
  0
LINE
  5
BD
330
17
100
AcDbEntity
  8
Madeira
 62
7
370
25
100
AcDbLine
 10
5425.945262966612
 20
4875.465629533625
 30
0.0
 11
5495.603683241196
 21
4875.465629533625
 31
0.0
  0
LINE
  5
BE
330
17
100
AcDbEntity
  8
Madeira
 62
7
370
25
100
AcDbLine
 10
5495.603683241196
 20
4875.465629533625
 30
0.0
 11
5495.603683241196
 21
4871.065629533623
 31
0.0
  0
LINE
  5
BF
330
17
100
AcDbEntity
  8
Madeira
 62
7
370
25
100
AcDbLine
 10
5495.603683241196
 20
4871.065629533623
 30
0.0
 11
5425.945262966612
 21
4871.065629533623
 31
0.0
  0
LINE
  5
C0
330
17
100
AcDbEntity
  8
Painéis
 62
7
370
25
100
AcDbLine
 10
5495.603683241196
 20
4879.065629533616
 30
0.0
 11
5425.748665125112
 21
4879.065629533616
 31
0.0
  0
LINE
  5
C1
330
17
100
AcDbEntity
  8
Painéis
 62
7
370
25
100
AcDbLine
 10
5495.603683241196
 20
4875.465629533625
 30
0.0
 11
5425.764826901726
 21
4875.465629533613
 31
0.0
  0
LINE
  5
C2
330
17
100
AcDbEntity
  8
Madeira
 62
7
370
25
100
AcDbLine
 10
5491.203683241195
 20
4841.065629533617
 30
0.0
 11
5491.203683241195
 21
4871.065629533623
 31
0.0
  0
LINE
  5
C3
330
17
100
AcDbEntity
  8
Madeira
 62
7
370
25
100
AcDbLine
 10
5495.603683241196
 20
4845.498370948673
 30
0.0
 11
5495.603683241196
 21
4871.065629533623
 31
0.0
  0
LINE
  5
C4
330
17
100
AcDbEntity
  8
Hachura
 62
7
370
25
100
AcDbLine
 10
5495.603683241196
 20
4841.065629533617
 30
0.0
 11
5491.203683241197
 21
4841.06562953362
 31
0.0
  0
LWPOLYLINE
  5
C5
330
17
100
AcDbEntity
  8
Painéis
 62
7
370
25
100
AcDbPolyline
 90
4
 70
0
 10
4481.849038442312
 20
4792.393321079976
 10
4485.849038442313
 20
4792.393321079976
 10
4485.849038442313
 20
4704.393321079997
 10
4481.849038442312
 20
4704.393321079997
  0
LWPOLYLINE
  5
C6
330
17
100
AcDbEntity
  8
Madeira
 62
7
370
25
100
AcDbPolyline
 90
4
 70
0
 10
4523.849038442313
 20
4704.393321079997
 10
4523.849038442313
 20
4708.793321079991
 10
4509.849038442313
 20
4708.793321079991
 10
4509.849038442313
 20
4704.393321079997
  0
LWPOLYLINE
  5
C7
330
17
100
AcDbEntity
  8
Painéis
 62
7
370
25
100
AcDbPolyline
 90
4
 70
0
 10
4523.849038442313
 20
4708.793321079991
 10
4523.849038442313
 20
4712.393321079997
 10
4485.849038442313
 20
4712.393321079997
 10
4485.849038442313
 20
4708.793321079991
  0
LWPOLYLINE
  5
C8
330
17
100
AcDbEntity
  8
Madeira
 62
7
370
25
100
AcDbPolyline
 90
4
 70
0
 10
4485.849038442313
 20
4704.393321079997
 10
4485.849038442313
 20
4708.793321079991
 10
4499.849038442312
 20
4708.793321079991
 10
4499.849038442312
 20
4704.393321079997
  0
LWPOLYLINE
  5
C9
330
17
100
AcDbEntity
  8
Painéis
 62
7
370
25
100
AcDbPolyline
 90
4
 70
0
 10
4527.849038442313
 20
4794.393321079976
 10
4523.849038442313
 20
4794.393321079976
 10
4523.849038442313
 20
4704.393321079997
 10
4527.849038442313
 20
4704.393321079997
  0
LWPOLYLINE
  5
CA
330
17
100
AcDbEntity
  8
Painéis
 62
7
370
25
100
AcDbPolyline
 90
4
 70
0
 10
4583.849038442283
 20
4794.393321079976
 10
4583.849038442283
 20
4798.393321079976
 10
4523.849038442313
 20
4798.393321079976
 10
4523.849038442313
 20
4794.393321079976
  0
LWPOLYLINE
  5
CB
330
17
100
AcDbEntity
  8
Painéis
 62
7
370
25
100
AcDbPolyline
 90
4
 70
0
 10
4485.849038442313
 20
4792.393321079976
 10
4485.849038442313
 20
4796.393321079976
 10
4430.249038442336
 20
4796.393321079968
 10
4430.249038442336
 20
4792.393321079969
  0
LWPOLYLINE
  5
CC
330
17
100
AcDbEntity
  8
CONCRETO
 62
7
370
25
100
AcDbPolyline
 90
8
 70
0
 10
4430.249038442336
 20
4796.393321079968
 10
4430.249038442336
 20
4822.393321079998
 10
4583.849038442283
 20
4822.393321079998
 10
4583.849038442283
 20
4798.393321079983
 10
4523.849038442313
 20
4798.393321079983
 10
4523.849038442254
 20
4712.393321079997
 10
4485.849038442313
 20
4712.393321079997
 10
4485.849038442313
 20
4796.393321079976
  0
LWPOLYLINE
  5
CD
330
17
100
AcDbEntity
  8
Madeira
 62
7
370
25
100
AcDbPolyline
 90
4
 70
0
 10
4477.449038442318
 20
4778.393321079976
 10
4481.849038442312
 20
4778.393321079976
 10
4481.849038442312
 20
4792.393321079976
 10
4477.449038442318
 20
4792.393321079976
  0
LWPOLYLINE
  5
CE
330
17
100
AcDbEntity
  8
Madeira
 62
7
370
25
100
AcDbPolyline
 90
4
 70
0
 10
4477.449038442318
 20
4704.393321079997
 10
4481.849038442312
 20
4704.393321079997
 10
4481.849038442312
 20
4718.393321079997
 10
4477.449038442318
 20
4718.393321079997
  0
LWPOLYLINE
  5
CF
330
17
100
AcDbEntity
  8
Madeira
 62
7
370
25
100
AcDbPolyline
 90
4
 70
0
 10
4532.249038442307
 20
4780.393321079976
 10
4527.849038442313
 20
4780.393321079976
 10
4527.849038442313
 20
4794.393321079976
 10
4532.249038442307
 20
4794.393321079976
  0
LWPOLYLINE
  5
D0
330
17
100
AcDbEntity
  8
Madeira
 62
7
370
25
100
AcDbPolyline
 90
4
 70
0
 10
4532.249038442307
 20
4704.393321079997
 10
4527.849038442313
 20
4704.393321079997
 10
4527.849038442313
 20
4718.393321079997
 10
4532.249038442307
 20
4718.393321079997
  0
LWPOLYLINE
  5
D1
330
17
100
AcDbEntity
  8
Madeira
 62
7
370
25
100
AcDbPolyline
 90
4
 70
0
 10
4477.449038442318
 20
4741.393321079987
 10
4481.849038442312
 20
4741.393321079987
 10
4481.849038442312
 20
4755.393321079987
 10
4477.449038442318
 20
4755.393321079987
  0
LWPOLYLINE
  5
D2
330
17
100
AcDbEntity
  8
Madeira
 62
7
370
25
100
AcDbPolyline
 90
4
 70
0
 10
4532.249038442307
 20
4741.393321079987
 10
4527.849038442313
 20
4741.393321079987
 10
4527.849038442313
 20
4755.393321079987
 10
4532.249038442307
 20
4755.393321079987
  0
LWPOLYLINE
  5
D3
330
17
100
AcDbEntity
  8
SARR_3.5x7
 62
7
370
25
100
AcDbPolyline
 90
4
 70
0
 10
4463.449038442252
 20
4786.393321079976
 10
4477.449038442252
 20
4786.393321079976
 10
4477.449038442381
 20
4627.915107674192
 10
4463.449038442382
 20
4627.915107674192
  0
LWPOLYLINE
  5
D4
330
17
100
AcDbEntity
  8
SARR_3.5x7
 62
7
370
25
100
AcDbPolyline
 90
4
 70
0
 10
4546.249038442539
 20
4788.393321079978
 10
4532.249038442539
 20
4788.393321079978
 10
4532.249038442393
 20
4627.915107674192
 10
4546.249038442393
 20
4627.915107674192
  0
LWPOLYLINE
  5
D5
330
17
100
AcDbEntity
  8
SARR_3.5x7
 62
7
370
25
100
AcDbPolyline
 90
4
 70
0
 10
4463.44903844224
 20
4704.393321079997
 10
4546.249038442441
 20
4704.393321079996
 10
4546.249038442441
 20
4674.335259475998
 10
4463.44903844224
 20
4674.335259475999
  0
LWPOLYLINE
  5
D6
330
17
100
AcDbEntity
  8
Painéis
 62
7
370
25
100
AcDbPolyline
 90
4
 70
0
 10
5213.55008612205
 20
4792.393321079976
 10
5217.55008612205
 20
4792.393321079976
 10
5217.55008612205
 20
4704.393321079997
 10
5213.55008612205
 20
4704.393321079997
  0
LWPOLYLINE
  5
D7
330
17
100
AcDbEntity
  8
Madeira
 62
7
370
25
100
AcDbPolyline
 90
4
 70
0
 10
5255.55008612205
 20
4704.393321079997
 10
5255.55008612205
 20
4708.793321079991
 10
5241.55008612205
 20
4708.793321079991
 10
5241.55008612205
 20
4704.393321079997
  0
LWPOLYLINE
  5
D8
330
17
100
AcDbEntity
  8
Painéis
 62
7
370
25
100
AcDbPolyline
 90
4
 70
0
 10
5255.55008612205
 20
4708.793321079991
 10
5255.55008612205
 20
4712.393321079997
 10
5217.55008612205
 20
4712.393321079997
 10
5217.55008612205
 20
4708.793321079991
  0
LWPOLYLINE
  5
D9
330
17
100
AcDbEntity
  8
Madeira
 62
7
370
25
100
AcDbPolyline
 90
4
 70
0
 10
5217.55008612205
 20
4704.393321079997
 10
5217.55008612205
 20
4708.793321079991
 10
5231.55008612205
 20
4708.793321079991
 10
5231.55008612205
 20
4704.393321079997
  0
LWPOLYLINE
  5
DA
330
17
100
AcDbEntity
  8
Painéis
 62
7
370
25
100
AcDbPolyline
 90
4
 70
0
 10
5259.55008612205
 20
4792.393321079976
 10
5255.55008612205
 20
4792.393321079976
 10
5255.55008612205
 20
4704.393321079997
 10
5259.55008612205
 20
4704.393321079997
  0
LWPOLYLINE
  5
DB
330
17
100
AcDbEntity
  8
Painéis
 62
7
370
25
100
AcDbPolyline
 90
4
 70
0
 10
5315.550086122021
 20
4792.393321079976
 10
5315.550086122021
 20
4796.393321079976
 10
5255.55008612205
 20
4796.393321079976
 10
5255.55008612205
 20
4792.393321079976
  0
LWPOLYLINE
  5
DC
330
17
100
AcDbEntity
  8
Painéis
 62
7
370
25
100
AcDbPolyline
 90
4
 70
0
 10
5217.55008612205
 20
4792.393321079976
 10
5217.55008612205
 20
4796.393321079976
 10
5161.950086122073
 20
4796.393321079968
 10
5161.950086122073
 20
4792.393321079969
  0
LWPOLYLINE
  5
DD
330
17
100
AcDbEntity
  8
CONCRETO
 62
7
370
25
100
AcDbPolyline
 90
8
 70
0
 10
5161.950086122073
 20
4796.393321079968
 10
5161.950086122073
 20
4822.393321079998
 10
5315.550086122021
 20
4822.393321079998
 10
5315.550086122021
 20
4796.393321079984
 10
5255.55008612205
 20
4796.393321079984
 10
5255.550086121992
 20
4712.393321079997
 10
5217.55008612205
 20
4712.393321079997
 10
5217.55008612205
 20
4796.393321079976
  0
LWPOLYLINE
  5
DE
330
17
100
AcDbEntity
  8
Madeira
 62
7
370
25
100
AcDbPolyline
 90
4
 70
0
 10
5209.150086122056
 20
4778.393321079976
 10
5213.55008612205
 20
4778.393321079976
 10
5213.55008612205
 20
4792.393321079976
 10
5209.150086122056
 20
4792.393321079976
  0
LWPOLYLINE
  5
DF
330
17
100
AcDbEntity
  8
Madeira
 62
7
370
25
100
AcDbPolyline
 90
4
 70
0
 10
5209.150086122056
 20
4704.393321079997
 10
5213.55008612205
 20
4704.393321079997
 10
5213.55008612205
 20
4718.393321079997
 10
5209.150086122056
 20
4718.393321079997
  0
LWPOLYLINE
  5
E0
330
17
100
AcDbEntity
  8
Madeira
 62
7
370
25
100
AcDbPolyline
 90
4
 70
0
 10
5263.950086122044
 20
4778.393321079976
 10
5259.55008612205
 20
4778.393321079976
 10
5259.55008612205
 20
4792.393321079976
 10
5263.950086122044
 20
4792.393321079976
  0
LWPOLYLINE
  5
E1
330
17
100
AcDbEntity
  8
Madeira
 62
7
370
25
100
AcDbPolyline
 90
4
 70
0
 10
5263.950086122044
 20
4704.393321079997
 10
5259.55008612205
 20
4704.393321079997
 10
5259.55008612205
 20
4718.393321079997
 10
5263.950086122044
 20
4718.393321079997
  0
LWPOLYLINE
  5
E2
330
17
100
AcDbEntity
  8
Madeira
 62
7
370
25
100
AcDbPolyline
 90
4
 70
0
 10
5209.150086122056
 20
4741.393321079987
 10
5213.55008612205
 20
4741.393321079987
 10
5213.55008612205
 20
4755.393321079987
 10
5209.150086122056
 20
4755.393321079987
  0
LWPOLYLINE
  5
E3
330
17
100
AcDbEntity
  8
Madeira
 62
7
370
25
100
AcDbPolyline
 90
4
 70
0
 10
5263.950086122044
 20
4741.393321079987
 10
5259.55008612205
 20
4741.393321079987
 10
5259.55008612205
 20
4755.393321079987
 10
5263.950086122044
 20
4755.393321079987
  0
LWPOLYLINE
  5
E4
330
17
100
AcDbEntity
  8
SARR_3.5x7
 62
7
370
25
100
AcDbPolyline
 90
4
 70
0
 10
5195.150086121989
 20
4786.393321079976
 10
5209.150086121989
 20
4786.393321079976
 10
5209.150086122118
 20
4627.915107674192
 10
5195.150086122119
 20
4627.915107674192
  0
LWPOLYLINE
  5
E5
330
17
100
AcDbEntity
  8
SARR_3.5x7
 62
7
370
25
100
AcDbPolyline
 90
4
 70
0
 10
5277.950086122276
 20
4786.393321079978
 10
5263.950086122275
 20
4786.393321079978
 10
5263.950086122131
 20
4627.915107674192
 10
5277.950086122131
 20
4627.915107674192
  0
LWPOLYLINE
  5
E6
330
17
100
AcDbEntity
  8
SARR_3.5x7
 62
7
370
25
100
AcDbPolyline
 90
4
 70
0
 10
5195.150086121977
 20
4704.393321079997
 10
5277.950086122178
 20
4704.393321079996
 10
5277.950086122178
 20
4674.335259475998
 10
5195.150086121977
 20
4674.335259475999
  0
LWPOLYLINE
  5
E7
330
17
100
AcDbEntity
  8
Cotas
 62
7
370
25
100
AcDbPolyline
 90
4
 70
0
 10
4695.512571603198
 20
4928.113469449032
 10
4877.477373538983
 20
4928.113469449032
 10
4877.477373538983
 20
4801.227154110595
 10
4695.512571603198
 20
4801.227154110595
  0
LWPOLYLINE
  5
E8
330
17
100
AcDbEntity
  8
Painéis
 62
7
370
25
100
AcDbPolyline
 90
4
 70
0
 10
4802.466764821179
 20
4877.687721738563
 10
4806.066764821181
 20
4877.687721738563
 10
4806.066764821181
 20
4839.687721738564
 10
4802.466764821179
 20
4839.687721738564
  0
LWPOLYLINE
  5
E9
330
17
100
AcDbEntity
  8
Cotas
 62
7
370
25
100
AcDbPolyline
 90
4
 70
0
 10
5388.649490023214
 20
4929.491377244085
 10
5570.614291958999
 20
4929.491377244085
 10
5570.614291958999
 20
4802.605061905648
 10
5388.649490023214
 20
4802.605061905648
  0
LWPOLYLINE
  5
EA
330
17
100
AcDbEntity
  8
Painéis
 62
7
370
25
100
AcDbPolyline
 90
4
 70
0
 10
5495.603683241196
 20
4879.065629533616
 10
5499.203683241198
 20
4879.065629533616
 10
5499.203683241198
 20
4841.065629533617
 10
5495.603683241196
 20
4841.065629533617
  0
ENDSEC
  0
SECTION
  2
OBJECTS
  0
DICTIONARY
  5
A
330
0
100
AcDbDictionary
281
1
  3
ACAD_COLOR
350
B
  3
ACAD_GROUP
350
C
  3
ACAD_LAYOUT
350
D
  3
ACAD_MATERIAL
350
E
  3
ACAD_MLEADERSTYLE
350
F
  3
ACAD_MLINESTYLE
350
10
  3
ACAD_PLOTSETTINGS
350
11
  3
ACAD_PLOTSTYLENAME
350
12
  3
ACAD_SCALELIST
350
14
  3
ACAD_TABLESTYLE
350
15
  3
ACAD_VISUALSTYLE
350
16
  3
EZDXF_META
350
2D
  0
DICTIONARY
  5
B
330
A
100
AcDbDictionary
281
1
  0
DICTIONARY
  5
C
330
A
100
AcDbDictionary
281
1
  0
DICTIONARY
  5
D
330
A
100
AcDbDictionary
281
1
  3
Model
350
1A
  3
Layout1
350
1E
  0
DICTIONARY
  5
E
330
A
100
AcDbDictionary
281
1
  3
ByBlock
350
1F
  3
ByLayer
350
20
  3
Global
350
21
  0
DICTIONARY
  5
F
330
A
100
AcDbDictionary
281
1
  3
Standard
350
2C
  0
DICTIONARY
  5
10
330
A
100
AcDbDictionary
281
1
  3
Standard
350
22
  0
DICTIONARY
  5
11
330
A
100
AcDbDictionary
281
1
  0
ACDBDICTIONARYWDFLT
  5
12
330
A
100
AcDbDictionary
281
1
  3
Normal
350
13
100
AcDbDictionaryWithDefault
340
13
  0
ACDBPLACEHOLDER
  5
13
330
12
  0
DICTIONARY
  5
14
330
A
100
AcDbDictionary
281
1
  0
DICTIONARY
  5
15
330
A
100
AcDbDictionary
281
1
  0
DICTIONARY
  5
16
330
A
100
AcDbDictionary
281
1
  0
LAYOUT
  5
1A
330
D
100
AcDbPlotSettings
  1

  4
A3
  6

 40
7.5
 41
20.0
 42
7.5
 43
20.0
 44
420.0
 45
297.0
 46
0.0
 47
0.0
 48
0.0
 49
0.0
140
0.0
141
0.0
142
1.0
143
1.0
 70
1024
 72
1
 73
0
 74
5
  7

 75
16
 76
0
 77
2
 78
300
147
1.0
148
0.0
149
0.0
100
AcDbLayout
  1
Model
 70
1
 71
0
 10
0.0
 20
0.0
 11
420.0
 21
297.0
 12
0.0
 22
0.0
 32
0.0
 14
1e+20
 24
1e+20
 34
1e+20
 15
-1e+20
 25
-1e+20
 35
-1e+20
146
0.0
 13
0.0
 23
0.0
 33
0.0
 16
1.0
 26
0.0
 36
0.0
 17
0.0
 27
1.0
 37
0.0
 76
1
330
17
  0
LAYOUT
  5
1E
330
D
100
AcDbPlotSettings
  1

  4
A3
  6

 40
7.5
 41
20.0
 42
7.5
 43
20.0
 44
420.0
 45
297.0
 46
0.0
 47
0.0
 48
0.0
 49
0.0
140
0.0
141
0.0
142
1.0
143
1.0
 70
0
 72
1
 73
0
 74
5
  7

 75
16
 76
0
 77
2
 78
300
147
1.0
148
0.0
149
0.0
100
AcDbLayout
  1
Layout1
 70
1
 71
1
 10
0.0
 20
0.0
 11
420.0
 21
297.0
 12
0.0
 22
0.0
 32
0.0
 14
1e+20
 24
1e+20
 34
1e+20
 15
-1e+20
 25
-1e+20
 35
-1e+20
146
0.0
 13
0.0
 23
0.0
 33
0.0
 16
1.0
 26
0.0
 36
0.0
 17
0.0
 27
1.0
 37
0.0
 76
1
330
1B
  0
MATERIAL
  5
1F
102
{ACAD_REACTORS
330
E
102
}
330
E
100
AcDbMaterial
  1
ByBlock
  2

 70
0
 40
1.0
 71
1
 41
1.0
 91
-1023410177
 42
1.0
 72
1
  3

 73
1
 74
1
 75
1
 44
0.5
 73
0
 45
1.0
 46
1.0
 77
1
  4

 78
1
 79
1
170
1
 48
1.0
171
1
  6

172
1
173
1
174
1
140
1.0
141
1.0
175
1
  7

176
1
177
1
178
1
143
1.0
179
1
  8

270
1
271
1
272
1
145
1.0
146
1.0
273
1
  9

274
1
275
1
276
1
 42
1.0
 72
1
  3

 73
1
 74
1
 75
1
 94
63
  0
MATERIAL
  5
20
102
{ACAD_REACTORS
330
E
102
}
330
E
100
AcDbMaterial
  1
ByLayer
  2

 70
0
 40
1.0
 71
1
 41
1.0
 91
-1023410177
 42
1.0
 72
1
  3

 73
1
 74
1
 75
1
 44
0.5
 73
0
 45
1.0
 46
1.0
 77
1
  4

 78
1
 79
1
170
1
 48
1.0
171
1
  6

172
1
173
1
174
1
140
1.0
141
1.0
175
1
  7

176
1
177
1
178
1
143
1.0
179
1
  8

270
1
271
1
272
1
145
1.0
146
1.0
273
1
  9

274
1
275
1
276
1
 42
1.0
 72
1
  3

 73
1
 74
1
 75
1
 94
63
  0
MATERIAL
  5
21
102
{ACAD_REACTORS
330
E
102
}
330
E
100
AcDbMaterial
  1
Global
  2

 70
0
 40
1.0
 71
1
 41
1.0
 91
-1023410177
 42
1.0
 72
1
  3

 73
1
 74
1
 75
1
 44
0.5
 73
0
 45
1.0
 46
1.0
 77
1
  4

 78
1
 79
1
170
1
 48
1.0
171
1
  6

172
1
173
1
174
1
140
1.0
141
1.0
175
1
  7

176
1
177
1
178
1
143
1.0
179
1
  8

270
1
271
1
272
1
145
1.0
146
1.0
273
1
  9

274
1
275
1
276
1
 42
1.0
 72
1
  3

 73
1
 74
1
 75
1
 94
63
  0
MLINESTYLE
  5
22
102
{ACAD_REACTORS
330
10
102
}
330
10
100
AcDbMlineStyle
  2
Standard
 70
0
  3

 62
256
 51
90.0
 52
90.0
 71
2
 49
0.5
 62
256
  6
BYLAYER
 49
-0.5
 62
256
  6
BYLAYER
  0
MLEADERSTYLE
  5
2C
102
{ACAD_REACTORS
330
F
102
}
330
F
100
AcDbMLeaderStyle
179
2
170
2
171
1
172
0
 90
2
 40
0.0
 41
0.0
173
1
 91
-1056964608
 92
-2
290
1
 42
2.0
291
1
 43
8.0
  3
Standard
 44
4.0
300

342
29
174
1
175
1
176
0
178
1
 93
-1056964608
 45
4.0
292
0
297
0
 46
4.0
 94
-1056964608
 47
1.0
 49
1.0
140
1.0
294
1
141
0.0
177
0
142
1.0
295
0
296
0
143
3.75
271
0
272
9
273
9
  0
DICTIONARY
  5
2D
330
A
100
AcDbDictionary
280
1
281
1
  3
CREATED_BY_EZDXF
350
2E
  3
WRITTEN_BY_EZDXF
350
ED
  0
DICTIONARYVAR
  5
2E
330
2D
100
DictionaryVariables
280
0
  1
1.4.3 @ 2026-06-10T03:13:21.600365+00:00
  0
DICTIONARYVAR
  5
ED
330
2D
100
DictionaryVariables
280
0
  1
1.4.3 @ 2026-06-10T03:13:21.608170+00:00
  0
ENDSEC
  0
EOF
