  0
SECTION
  2
HEADER
  9
$ACADVER
  1
AC1024
  9
$ACADMAINTVER
 70
6
  9
$DWGCODEPAGE
  3
ANSI_1252
  9
$LASTSAVEDBY
  1
ezdxf
  9
$INSBASE
 10
0.0
 20
0.0
 30
0.0
  9
$EXTMIN
 10
1e+20
 20
1e+20
 30
1e+20
  9
$EXTMAX
 10
-1e+20
 20
-1e+20
 30
-1e+20
  9
$LIMMIN
 10
0.0
 20
0.0
  9
$LIMMAX
 10
420.0
 20
297.0
  9
$ORTHOMODE
 70
0
  9
$REGENMODE
 70
1
  9
$FILLMODE
 70
1
  9
$QTEXTMODE
 70
0
  9
$MIRRTEXT
 70
1
  9
$LTSCALE
 40
1.0
  9
$ATTMODE
 70
1
  9
$TEXTSIZE
 40
2.5
  9
$TRACEWID
 40
1.0
  9
$TEXTSTYLE
  7
Standard
  9
$CLAYER
  8
0
  9
$CELTYPE
  6
ByLayer
  9
$CECOLOR
 62
256
  9
$CELTSCALE
 40
1.0
  9
$DISPSILH
 70
0
  9
$DIMSCALE
 40
1.0
  9
$DIMASZ
 40
2.5
  9
$DIMEXO
 40
0.625
  9
$DIMDLI
 40
3.75
  9
$DIMRND
 40
0.0
  9
$DIMDLE
 40
0.0
  9
$DIMEXE
 40
1.25
  9
$DIMTP
 40
0.0
  9
$DIMTM
 40
0.0
  9
$DIMTXT
 40
2.5
  9
$DIMCEN
 40
2.5
  9
$DIMTSZ
 40
0.0
  9
$DIMTOL
 70
0
  9
$DIMLIM
 70
0
  9
$DIMTIH
 70
0
  9
$DIMTOH
 70
0
  9
$DIMSE1
 70
0
  9
$DIMSE2
 70
0
  9
$DIMTAD
 70
1
  9
$DIMZIN
 70
8
  9
$DIMBLK
  1

  9
$DIMASO
 70
1
  9
$DIMSHO
 70
1
  9
$DIMPOST
  1

  9
$DIMAPOST
  1

  9
$DIMALT
 70
0
  9
$DIMALTD
 70
3
  9
$DIMALTF
 40
0.03937007874
  9
$DIMLFAC
 40
1.0
  9
$DIMTOFL
 70
1
  9
$DIMTVP
 40
0.0
  9
$DIMTIX
 70
0
  9
$DIMSOXD
 70
0
  9
$DIMSAH
 70
0
  9
$DIMBLK1
  1

  9
$DIMBLK2
  1

  9
$DIMSTYLE
  2
ISO-25
  9
$DIMCLRD
 70
0
  9
$DIMCLRE
 70
0
  9
$DIMCLRT
 70
0
  9
$DIMTFAC
 40
1.0
  9
$DIMGAP
 40
0.625
  9
$DIMJUST
 70
0
  9
$DIMSD1
 70
0
  9
$DIMSD2
 70
0
  9
$DIMTOLJ
 70
0
  9
$DIMTZIN
 70
8
  9
$DIMALTZ
 70
0
  9
$DIMALTTZ
 70
0
  9
$DIMUPT
 70
0
  9
$DIMDEC
 70
2
  9
$DIMTDEC
 70
2
  9
$DIMALTU
 70
2
  9
$DIMALTTD
 70
3
  9
$DIMTXSTY
  7
Standard
  9
$DIMAUNIT
 70
0
  9
$DIMADEC
 70
0
  9
$DIMALTRND
 40
0.0
  9
$DIMAZIN
 70
0
  9
$DIMDSEP
 70
44
  9
$DIMATFIT
 70
3
  9
$DIMFRAC
 70
0
  9
$DIMLDRBLK
  1

  9
$DIMLUNIT
 70
2
  9
$DIMLWD
 70
-2
  9
$DIMLWE
 70
-2
  9
$DIMTMOVE
 70
0
  9
$DIMFXL
 40
1.0
  9
$DIMFXLON
 70
0
  9
$DIMJOGANG
 40
0.785398163397
  9
$DIMTFILL
 70
0
  9
$DIMTFILLCLR
 70
0
  9
$DIMARCSYM
 70
0
  9
$DIMLTYPE
  6

  9
$DIMLTEX1
  6

  9
$DIMLTEX2
  6

  9
$DIMTXTDIRECTION
 70
0
  9
$LUNITS
 70
2
  9
$LUPREC
 70
4
  9
$SKETCHINC
 40
1.0
  9
$FILLETRAD
 40
10.0
  9
$AUNITS
 70
0
  9
$AUPREC
 70
2
  9
$MENU
  1
.
  9
$ELEVATION
 40
0.0
  9
$PELEVATION
 40
0.0
  9
$THICKNESS
 40
0.0
  9
$LIMCHECK
 70
0
  9
$CHAMFERA
 40
0.0
  9
$CHAMFERB
 40
0.0
  9
$CHAMFERC
 40
0.0
  9
$CHAMFERD
 40
0.0
  9
$SKPOLY
 70
0
  9
$TDCREATE
 40
2461202.0578472223
  9
$TDUCREATE
 40
2458532.153996898
  9
$TDUPDATE
 40
2461202.0578472223
  9
$TDUUPDATE
 40
2458532.1544311
  9
$TDINDWG
 40
0.0
  9
$TDUSRTIMER
 40
0.0
  9
$USRTIMER
 70
1
  9
$ANGBASE
 50
0.0
  9
$ANGDIR
 70
0
  9
$PDMODE
 70
0
  9
$PDSIZE
 40
0.0
  9
$PLINEWID
 40
0.0
  9
$SPLFRAME
 70
0
  9
$SPLINETYPE
 70
6
  9
$SPLINESEGS
 70
8
  9
$HANDSEED
  5
173
  9
$SURFTAB1
 70
6
  9
$SURFTAB2
 70
6
  9
$SURFTYPE
 70
6
  9
$SURFU
 70
6
  9
$SURFV
 70
6
  9
$UCSBASE
  2

  9
$UCSNAME
  2

  9
$UCSORG
 10
0.0
 20
0.0
 30
0.0
  9
$UCSXDIR
 10
1.0
 20
0.0
 30
0.0
  9
$UCSYDIR
 10
0.0
 20
1.0
 30
0.0
  9
$UCSORTHOREF
  2

  9
$UCSORTHOVIEW
 70
0
  9
$UCSORGTOP
 10
0.0
 20
0.0
 30
0.0
  9
$UCSORGBOTTOM
 10
0.0
 20
0.0
 30
0.0
  9
$UCSORGLEFT
 10
0.0
 20
0.0
 30
0.0
  9
$UCSORGRIGHT
 10
0.0
 20
0.0
 30
0.0
  9
$UCSORGFRONT
 10
0.0
 20
0.0
 30
0.0
  9
$UCSORGBACK
 10
0.0
 20
0.0
 30
0.0
  9
$PUCSBASE
  2

  9
$PUCSNAME
  2

  9
$PUCSORG
 10
0.0
 20
0.0
 30
0.0
  9
$PUCSXDIR
 10
1.0
 20
0.0
 30
0.0
  9
$PUCSYDIR
 10
0.0
 20
1.0
 30
0.0
  9
$PUCSORTHOREF
  2

  9
$PUCSORTHOVIEW
 70
0
  9
$PUCSORGTOP
 10
0.0
 20
0.0
 30
0.0
  9
$PUCSORGBOTTOM
 10
0.0
 20
0.0
 30
0.0
  9
$PUCSORGLEFT
 10
0.0
 20
0.0
 30
0.0
  9
$PUCSORGRIGHT
 10
0.0
 20
0.0
 30
0.0
  9
$PUCSORGFRONT
 10
0.0
 20
0.0
 30
0.0
  9
$PUCSORGBACK
 10
0.0
 20
0.0
 30
0.0
  9
$USERI1
 70
0
  9
$USERI2
 70
0
  9
$USERI3
 70
0
  9
$USERI4
 70
0
  9
$USERI5
 70
0
  9
$USERR1
 40
0.0
  9
$USERR2
 40
0.0
  9
$USERR3
 40
0.0
  9
$USERR4
 40
0.0
  9
$USERR5
 40
0.0
  9
$WORLDVIEW
 70
1
  9
$SHADEDGE
 70
3
  9
$SHADEDIF
 70
70
  9
$TILEMODE
 70
1
  9
$MAXACTVP
 70
64
  9
$PINSBASE
 10
0.0
 20
0.0
 30
0.0
  9
$PLIMCHECK
 70
0
  9
$PEXTMIN
 10
1e+20
 20
1e+20
 30
1e+20
  9
$PEXTMAX
 10
-1e+20
 20
-1e+20
 30
-1e+20
  9
$PLIMMIN
 10
0.0
 20
0.0
  9
$PLIMMAX
 10
420.0
 20
297.0
  9
$UNITMODE
 70
0
  9
$VISRETAIN
 70
1
  9
$PLINEGEN
 70
0
  9
$PSLTSCALE
 70
1
  9
$TREEDEPTH
 70
3020
  9
$CMLSTYLE
  2
Standard
  9
$CMLJUST
 70
0
  9
$CMLSCALE
 40
20.0
  9
$PROXYGRAPHICS
 70
1
  9
$MEASUREMENT
 70
1
  9
$CELWEIGHT
370
-1
  9
$ENDCAPS
280
0
  9
$JOINSTYLE
280
0
  9
$LWDISPLAY
290
0
  9
$INSUNITS
 70
6
  9
$HYPERLINKBASE
  1

  9
$STYLESHEET
  1

  9
$XEDIT
290
1
  9
$CEPSNTYPE
380
0
  9
$PSTYLEMODE
290
1
  9
$FINGERPRINTGUID
  2
{44CACDEC-B3A4-4734-9F7A-E4C669E5A366}
  9
$VERSIONGUID
  2
{D16FA7CC-418F-47D9-B508-71060FBDC62E}
  9
$EXTNAMES
290
1
  9
$PSVPSCALE
 40
0.0
  9
$OLESTARTUP
290
0
  9
$SORTENTS
280
127
  9
$INDEXCTL
280
0
  9
$HIDETEXT
280
1
  9
$XCLIPFRAME
280
1
  9
$HALOGAP
280
0
  9
$OBSCOLOR
 70
257
  9
$OBSLTYPE
280
0
  9
$INTERSECTIONDISPLAY
280
0
  9
$INTERSECTIONCOLOR
 70
257
  9
$DIMASSOC
280
2
  9
$PROJECTNAME
  1

  9
$CAMERADISPLAY
290
0
  9
$LENSLENGTH
 40
50.0
  9
$CAMERAHEIGHT
 40
0.0
  9
$STEPSPERSEC
 40
24.0
  9
$STEPSIZE
 40
100.0
  9
$3DDWFPREC
 40
2.0
  9
$PSOLWIDTH
 40
0.005
  9
$PSOLHEIGHT
 40
0.08
  9
$LOFTANG1
 40
1.570796326795
  9
$LOFTANG2
 40
1.570796326795
  9
$LOFTMAG1
 40
0.0
  9
$LOFTMAG2
 40
0.0
  9
$LOFTPARAM
 70
7
  9
$LOFTNORMALS
280
1
  9
$LATITUDE
 40
37.795
  9
$LONGITUDE
 40
-122.394
  9
$NORTHDIRECTION
 40
0.0
  9
$TIMEZONE
 70
-8000
  9
$LIGHTGLYPHDISPLAY
280
1
  9
$TILEMODELIGHTSYNCH
280
1
  9
$CMATERIAL
347
20
  9
$SOLIDHIST
280
0
  9
$SHOWHIST
280
1
  9
$DWFFRAME
280
2
  9
$DGNFRAME
280
2
  9
$REALWORLDSCALE
290
1
  9
$INTERFERECOLOR
 62
256
  9
$CSHADOW
280
0
  9
$SHADOWPLANELOCATION
 40
0.0
  0
ENDSEC
  0
SECTION
  2
CLASSES
  0
CLASS
  1
ACDBDICTIONARYWDFLT
  2
AcDbDictionaryWithDefault
  3
ObjectDBX Classes
 90
0
 91
0
280
0
281
0
  0
CLASS
  1
SUN
  2
AcDbSun
  3
SCENEOE
 90
1153
 91
0
280
0
281
0
  0
CLASS
  1
VISUALSTYLE
  2
AcDbVisualStyle
  3
ObjectDBX Classes
 90
4095
 91
0
280
0
281
0
  0
CLASS
  1
MATERIAL
  2
AcDbMaterial
  3
ObjectDBX Classes
 90
1153
 91
0
280
0
281
0
  0
CLASS
  1
SCALE
  2
AcDbScale
  3
ObjectDBX Classes
 90
1153
 91
0
280
0
281
0
  0
CLASS
  1
TABLESTYLE
  2
AcDbTableStyle
  3
ObjectDBX Classes
 90
4095
 91
0
280
0
281
0
  0
CLASS
  1
MLEADERSTYLE
  2
AcDbMLeaderStyle
  3
ACDB_MLEADERSTYLE_CLASS
 90
4095
 91
0
280
0
281
0
  0
CLASS
  1
DICTIONARYVAR
  2
AcDbDictionaryVar
  3
ObjectDBX Classes
 90
0
 91
0
280
0
281
0
  0
CLASS
  1
CELLSTYLEMAP
  2
AcDbCellStyleMap
  3
ObjectDBX Classes
 90
1152
 91
0
280
0
281
0
  0
CLASS
  1
MENTALRAYRENDERSETTINGS
  2
AcDbMentalRayRenderSettings
  3
SCENEOE
 90
1024
 91
0
280
0
281
0
  0
CLASS
  1
ACDBDETAILVIEWSTYLE
  2
AcDbDetailViewStyle
  3
ObjectDBX Classes
 90
1025
 91
0
280
0
281
0
  0
CLASS
  1
ACDBSECTIONVIEWSTYLE
  2
AcDbSectionViewStyle
  3
ObjectDBX Classes
 90
1025
 91
0
280
0
281
0
  0
CLASS
  1
RASTERVARIABLES
  2
AcDbRasterVariables
  3
ISM
 90
0
 91
0
280
0
281
0
  0
CLASS
  1
ACDBPLACEHOLDER
  2
AcDbPlaceHolder
  3
ObjectDBX Classes
 90
0
 91
0
280
0
281
0
  0
CLASS
  1
LAYOUT
  2
AcDbLayout
  3
ObjectDBX Classes
 90
0
 91
0
280
0
281
0
  0
ENDSEC
  0
SECTION
  2
TABLES
  0
TABLE
  2
VPORT
  5
8
330
0
100
AcDbSymbolTable
 70
1
  0
VPORT
  5
23
330
8
100
AcDbSymbolTableRecord
100
AcDbViewportTableRecord
  2
*Active
 70
0
 10
0.0
 20
0.0
 11
1.0
 21
1.0
 12
0.0
 22
0.0
 13
0.0
 23
0.0
 14
0.5
 24
0.5
 15
0.5
 25
0.5
 16
0.0
 26
0.0
 36
1.0
 17
0.0
 27
0.0
 37
0.0
 40
1000.0
 41
1.34
 42
50.0
 43
0.0
 44
0.0
 50
0.0
 51
0.0
 71
0
 72
1000
 73
1
 74
3
 75
0
 76
0
 77
0
 78
0
281
0
 65
0
146
0.0
  0
ENDTAB
  0
TABLE
  2
LTYPE
  5
2
330
0
100
AcDbSymbolTable
 70
3
  0
LTYPE
  5
24
330
2
100
AcDbSymbolTableRecord
100
AcDbLinetypeTableRecord
  2
ByBlock
 70
0
  3

 72
65
 73
0
 40
0.0
  0
LTYPE
  5
25
330
2
100
AcDbSymbolTableRecord
100
AcDbLinetypeTableRecord
  2
ByLayer
 70
0
  3

 72
65
 73
0
 40
0.0
  0
LTYPE
  5
26
330
2
100
AcDbSymbolTableRecord
100
AcDbLinetypeTableRecord
  2
Continuous
 70
0
  3

 72
65
 73
0
 40
0.0
  0
ENDTAB
  0
TABLE
  2
LAYER
  5
1
330
0
100
AcDbSymbolTable
 70
14
  0
LAYER
  5
27
330
1
100
AcDbSymbolTableRecord
100
AcDbLayerTableRecord
  2
0
 70
0
 62
7
  6
Continuous
370
-3
390
13
347
21
  0
LAYER
  5
28
330
1
100
AcDbSymbolTableRecord
100
AcDbLayerTableRecord
  2
Defpoints
 70
0
 62
7
  6
Continuous
290
0
370
-3
390
13
347
21
  0
LAYER
  5
2F
330
1
100
AcDbSymbolTableRecord
100
AcDbLayerTableRecord
  2
5
 70
0
 62
7
  6
Continuous
370
-3
390
13
347
21
  0
LAYER
  5
30
330
1
100
AcDbSymbolTableRecord
100
AcDbLayerTableRecord
  2
SARR_2.2x7
 70
0
 62
7
  6
Continuous
370
-3
390
13
347
21
  0
LAYER
  5
31
330
1
100
AcDbSymbolTableRecord
100
AcDbLayerTableRecord
  2
00 - FELIPE
 70
0
 62
7
  6
Continuous
370
-3
390
13
347
21
  0
LAYER
  5
32
330
1
100
AcDbSymbolTableRecord
100
AcDbLayerTableRecord
  2
CONCRETO
 70
0
 62
7
  6
Continuous
370
-3
390
13
347
21
  0
LAYER
  5
33
330
1
100
AcDbSymbolTableRecord
100
AcDbLayerTableRecord
  2
detalhes
 70
0
 62
7
  6
Continuous
370
-3
390
13
347
21
  0
LAYER
  5
34
330
1
100
AcDbSymbolTableRecord
100
AcDbLayerTableRecord
  2
Madeira
 70
0
 62
7
  6
Continuous
370
-3
390
13
347
21
  0
LAYER
  5
35
330
1
100
AcDbSymbolTableRecord
100
AcDbLayerTableRecord
  2
COTA
 70
0
 62
7
  6
Continuous
370
-3
390
13
347
21
  0
LAYER
  5
36
330
1
100
AcDbSymbolTableRecord
100
AcDbLayerTableRecord
  2
Painéis
 70
0
 62
7
  6
Continuous
370
-3
390
13
347
21
  0
LAYER
  5
37
330
1
100
AcDbSymbolTableRecord
100
AcDbLayerTableRecord
  2
Texto Seção
 70
0
 62
7
  6
Continuous
370
-3
390
13
347
21
  0
LAYER
  5
38
330
1
100
AcDbSymbolTableRecord
100
AcDbLayerTableRecord
  2
SARR_3.5x7
 70
0
 62
7
  6
Continuous
370
-3
390
13
347
21
  0
LAYER
  5
39
330
1
100
AcDbSymbolTableRecord
100
AcDbLayerTableRecord
  2
Cota Seção (2x)
 70
0
 62
7
  6
Continuous
370
-3
390
13
347
21
  0
LAYER
  5
3A
330
1
100
AcDbSymbolTableRecord
100
AcDbLayerTableRecord
  2
Hachura
 70
0
 62
7
  6
Continuous
370
-3
390
13
347
21
  0
ENDTAB
  0
TABLE
  2
STYLE
  5
5
330
0
100
AcDbSymbolTable
 70
1
  0
STYLE
  5
29
330
5
100
AcDbSymbolTableRecord
100
AcDbTextStyleTableRecord
  2
Standard
 70
0
 40
0.0
 41
1.0
 50
0.0
 71
0
 42
2.5
  3
txt
  4

  0
ENDTAB
  0
TABLE
  2
VIEW
  5
7
330
0
100
AcDbSymbolTable
 70
0
  0
ENDTAB
  0
TABLE
  2
UCS
  5
6
330
0
100
AcDbSymbolTable
 70
0
  0
ENDTAB
  0
TABLE
  2
APPID
  5
3
330
0
100
AcDbSymbolTable
 70
3
  0
APPID
  5
2A
330
3
100
AcDbSymbolTableRecord
100
AcDbRegAppTableRecord
  2
ACAD
 70
0
  0
APPID
  5
170
330
3
100
AcDbSymbolTableRecord
100
AcDbRegAppTableRecord
  2
HATCHBACKGROUNDCOLOR
 70
0
  0
APPID
  5
171
330
3
100
AcDbSymbolTableRecord
100
AcDbRegAppTableRecord
  2
EZDXF
 70
0
  0
ENDTAB
  0
TABLE
  2
DIMSTYLE
  5
4
330
0
100
AcDbSymbolTable
 70
1
100
AcDbDimStyleTable
  0
DIMSTYLE
105
2B
330
4
100
AcDbSymbolTableRecord
100
AcDbDimStyleTableRecord
  2
Standard
 70
0
 40
1.0
 41
2.5
 42
0.625
 43
3.75
 44
1.25
 45
0.0
 46
0.0
 47
0.0
 48
0.0
 49
2.5
140
2.5
141
2.5
142
0.0
143
0.03937007874
144
1.0
145
0.0
146
1.0
147
0.625
148
0.0
 69
0
 70
0
 71
0
 72
0
 73
0
 74
0
 75
0
 76
0
 77
1
 78
8
 79
3
170
0
171
3
172
1
173
0
174
0
175
0
176
0
177
0
178
0
179
2
271
2
272
2
273
2
274
3
275
0
276
0
277
2
278
44
279
0
280
0
281
0
282
0
283
0
284
8
285
0
286
0
288
0
289
3
290
0
371
-2
372
-2
  0
ENDTAB
  0
TABLE
  2
BLOCK_RECORD
  5
9
330
0
100
AcDbSymbolTable
 70
2
  0
BLOCK_RECORD
  5
17
330
9
100
AcDbSymbolTableRecord
100
AcDbBlockTableRecord
  2
*Model_Space
340
1A
 70
0
280
1
281
0
  0
BLOCK_RECORD
  5
1B
330
9
100
AcDbSymbolTableRecord
100
AcDbBlockTableRecord
  2
*Paper_Space
340
1E
 70
0
280
1
281
0
  0
ENDTAB
  0
ENDSEC
  0
SECTION
  2
BLOCKS
  0
BLOCK
  5
18
330
17
100
AcDbEntity
  8
0
100
AcDbBlockBegin
  2
*Model_Space
 70
0
 10
0.0
 20
0.0
 30
0.0
  3
*Model_Space
  1

  0
ENDBLK
  5
19
330
17
100
AcDbEntity
  8
0
100
AcDbBlockEnd
  0
BLOCK
  5
1C
330
1B
100
AcDbEntity
  8
0
100
AcDbBlockBegin
  2
*Paper_Space
 70
0
 10
0.0
 20
0.0
 30
0.0
  3
*Paper_Space
  1

  0
ENDBLK
  5
1D
330
1B
100
AcDbEntity
  8
0
100
AcDbBlockEnd
  0
ENDSEC
  0
SECTION
  2
ENTITIES
  0
LINE
  5
3B
330
17
100
AcDbEntity
  8
SARR_2.2x7
 62
40
370
25
100
AcDbLine
 10
4587.566107426971
 20
9430.635324250941
 30
0.0
 11
4824.611248186156
 21
9430.635324250958
 31
0.0
  0
LINE
  5
3C
330
17
100
AcDbEntity
  8
SARR_2.2x7
 62
40
370
25
100
AcDbLine
 10
4824.611248186156
 20
9430.635324250958
 30
0.0
 11
4968.656388945345
 21
9430.635324250696
 31
0.0
  0
LINE
  5
3D
330
17
100
AcDbEntity
  8
Painéis
 62
200
370
25
100
AcDbLine
 10
4580.611248186152
 20
9437.635324250848
 30
0.0
 11
4975.611248186154
 21
9437.635324250876
 31
0.0
  0
LINE
  5
3E
330
17
100
AcDbEntity
  8
Painéis
 62
200
370
25
100
AcDbLine
 10
4580.611248186158
 20
9397.635324250847
 30
0.0
 11
4975.611248186158
 21
9397.635324250874
 31
0.0
  0
LINE
  5
3F
330
17
100
AcDbEntity
  8
Painéis
 62
200
370
25
100
AcDbLine
 10
4975.611248186158
 20
9397.635324250874
 30
0.0
 11
4975.611248186154
 21
9437.635324250876
 31
0.0
  0
LINE
  5
40
330
17
100
AcDbEntity
  8
Painéis
 62
200
370
25
100
AcDbLine
 10
4580.611248186158
 20
9397.635324250847
 30
0.0
 11
4580.611248186154
 21
9437.635324250848
 31
0.0
  0
LINE
  5
41
330
17
100
AcDbEntity
  8
SARR_2.2x7
 62
40
370
25
100
AcDbLine
 10
4587.566107426973
 20
9397.635324250845
 30
0.0
 11
4587.56610742697
 21
9437.635324250848
 31
0.0
  0
LINE
  5
42
330
17
100
AcDbEntity
  8
SARR_2.2x7
 62
40
370
25
100
AcDbLine
 10
4968.656388945343
 20
9397.63532425087
 30
0.0
 11
4968.656388945347
 21
9437.635324250848
 31
0.0
  0
LINE
  5
43
330
17
100
AcDbEntity
  8
Painéis
 62
200
370
25
100
AcDbLine
 10
4824.611248186158
 20
9397.635324250863
 30
0.0
 11
4824.611248186155
 21
9437.635324250861
 31
0.0
  0
LINE
  5
44
330
17
100
AcDbEntity
  8
COTA
 62
241
370
25
100
AcDbLine
 10
4580.611248186152
 20
9437.635324250848
 30
0.0
 11
4580.611248186152
 21
9449.635324250848
 31
0.0
  0
LINE
  5
45
330
17
100
AcDbEntity
  8
COTA
 62
241
370
25
100
AcDbLine
 10
4975.611248186153
 20
9449.635324250848
 30
0.0
 11
4975.611248186153
 21
9437.635324250876
 31
0.0
  0
LINE
  5
46
330
17
100
AcDbEntity
  8
SARR_2.2x7
 62
40
370
25
100
AcDbLine
 10
4580.611248186152
 20
9453.135324250836
 30
0.0
 11
4824.611248186155
 21
9453.135324250841
 31
0.0
  0
LINE
  5
47
330
17
100
AcDbEntity
  8
SARR_2.2x7
 62
40
370
25
100
AcDbLine
 10
4824.611248186155
 20
9453.135324250841
 30
0.0
 11
4975.611248186153
 21
9453.135324250848
 31
0.0
  0
LINE
  5
48
330
17
100
AcDbEntity
  8
Painéis
 62
200
370
25
100
AcDbLine
 10
4824.611248186155
 20
9449.635324250848
 30
0.0
 11
4824.611248186155
 21
9456.635324250848
 31
0.0
  0
LINE
  5
49
330
17
100
AcDbEntity
  8
SARR_2.2x7
 62
40
370
25
100
AcDbLine
 10
4587.566107426971
 20
9404.635324250776
 30
0.0
 11
4824.611248186156
 21
9404.635324250758
 31
0.0
  0
LINE
  5
4A
330
17
100
AcDbEntity
  8
SARR_2.2x7
 62
40
370
25
100
AcDbLine
 10
4824.611248186156
 20
9404.635324250758
 30
0.0
 11
4968.656388945345
 21
9404.635324251023
 31
0.0
  0
LINE
  5
4B
330
17
100
AcDbEntity
  8
SARR_2.2x7
 62
40
370
25
100
AcDbLine
 10
5004.983161340814
 20
9430.635324250941
 30
0.0
 11
5242.028302099999
 21
9430.635324250958
 31
0.0
  0
LINE
  5
4C
330
17
100
AcDbEntity
  8
SARR_2.2x7
 62
40
370
25
100
AcDbLine
 10
5242.028302099999
 20
9430.635324250958
 30
0.0
 11
5380.073442859188
 21
9430.635324250696
 31
0.0
  0
LINE
  5
4D
330
17
100
AcDbEntity
  8
Painéis
 62
200
370
25
100
AcDbLine
 10
4998.028302099996
 20
9437.635324250848
 30
0.0
 11
5387.028302099998
 21
9437.635324250876
 31
0.0
  0
LINE
  5
4E
330
17
100
AcDbEntity
  8
Painéis
 62
200
370
25
100
AcDbLine
 10
4998.028302100001
 20
9397.635324250847
 30
0.0
 11
5387.028302100001
 21
9397.635324250874
 31
0.0
  0
LINE
  5
4F
330
17
100
AcDbEntity
  8
Painéis
 62
200
370
25
100
AcDbLine
 10
5387.028302100001
 20
9397.635324250874
 30
0.0
 11
5387.028302099998
 21
9437.635324250876
 31
0.0
  0
LINE
  5
50
330
17
100
AcDbEntity
  8
Painéis
 62
200
370
25
100
AcDbLine
 10
4998.028302100001
 20
9397.635324250847
 30
0.0
 11
4998.028302099998
 21
9437.635324250848
 31
0.0
  0
LINE
  5
51
330
17
100
AcDbEntity
  8
SARR_2.2x7
 62
40
370
25
100
AcDbLine
 10
5004.983161340817
 20
9397.635324250845
 30
0.0
 11
5004.983161340813
 21
9437.635324250848
 31
0.0
  0
LINE
  5
52
330
17
100
AcDbEntity
  8
SARR_2.2x7
 62
40
370
25
100
AcDbLine
 10
5380.073442859186
 20
9397.63532425087
 30
0.0
 11
5380.073442859189
 21
9437.635324250848
 31
0.0
  0
LINE
  5
53
330
17
100
AcDbEntity
  8
Painéis
 62
200
370
25
100
AcDbLine
 10
5242.028302100002
 20
9397.635324250863
 30
0.0
 11
5242.028302099998
 21
9437.635324250861
 31
0.0
  0
LINE
  5
54
330
17
100
AcDbEntity
  8
COTA
 62
241
370
25
100
AcDbLine
 10
4998.028302099996
 20
9437.635324250848
 30
0.0
 11
4998.028302099996
 21
9449.635324250848
 31
0.0
  0
LINE
  5
55
330
17
100
AcDbEntity
  8
COTA
 62
241
370
25
100
AcDbLine
 10
5387.028302099996
 20
9449.635324250848
 30
0.0
 11
5387.028302099996
 21
9437.635324250876
 31
0.0
  0
LINE
  5
56
330
17
100
AcDbEntity
  8
SARR_2.2x7
 62
40
370
25
100
AcDbLine
 10
4998.028302099996
 20
9453.135324250836
 30
0.0
 11
5242.028302099998
 21
9453.135324250841
 31
0.0
  0
LINE
  5
57
330
17
100
AcDbEntity
  8
SARR_2.2x7
 62
40
370
25
100
AcDbLine
 10
5242.028302099998
 20
9453.135324250841
 30
0.0
 11
5387.028302099996
 21
9453.135324250848
 31
0.0
  0
LINE
  5
58
330
17
100
AcDbEntity
  8
Painéis
 62
200
370
25
100
AcDbLine
 10
5242.028302099998
 20
9449.635324250848
 30
0.0
 11
5242.028302099998
 21
9456.635324250848
 31
0.0
  0
LINE
  5
59
330
17
100
AcDbEntity
  8
SARR_2.2x7
 62
40
370
25
100
AcDbLine
 10
5004.983161340814
 20
9404.635324250776
 30
0.0
 11
5242.028302099999
 21
9404.635324250758
 31
0.0
  0
LINE
  5
5A
330
17
100
AcDbEntity
  8
SARR_2.2x7
 62
40
370
25
100
AcDbLine
 10
5242.028302099999
 20
9404.635324250758
 30
0.0
 11
5380.073442859188
 21
9404.635324251023
 31
0.0
  0
LINE
  5
5B
330
17
100
AcDbEntity
  8
SARR_2.2x7
 62
40
370
25
100
AcDbLine
 10
4587.566107426971
 20
9241.878470475222
 30
0.0
 11
4824.611248186156
 21
9241.87847047524
 31
0.0
  0
LINE
  5
5C
330
17
100
AcDbEntity
  8
SARR_2.2x7
 62
40
370
25
100
AcDbLine
 10
4824.611248186156
 20
9241.87847047524
 30
0.0
 11
4944.656388945346
 21
9241.878470474978
 31
0.0
  0
LINE
  5
5D
330
17
100
AcDbEntity
  8
Painéis
 62
200
370
25
100
AcDbLine
 10
4580.611248186152
 20
9248.878470475132
 30
0.0
 11
4951.611248186154
 21
9248.878470475156
 31
0.0
  0
LINE
  5
5E
330
17
100
AcDbEntity
  8
Painéis
 62
200
370
25
100
AcDbLine
 10
4580.611248186158
 20
9208.87847047513
 30
0.0
 11
4951.611248186158
 21
9208.878470475156
 31
0.0
  0
LINE
  5
5F
330
17
100
AcDbEntity
  8
Painéis
 62
200
370
25
100
AcDbLine
 10
4951.611248186158
 20
9208.878470475156
 30
0.0
 11
4951.611248186154
 21
9248.878470475156
 31
0.0
  0
LINE
  5
60
330
17
100
AcDbEntity
  8
Painéis
 62
200
370
25
100
AcDbLine
 10
4580.611248186158
 20
9208.87847047513
 30
0.0
 11
4580.611248186154
 21
9248.878470475132
 31
0.0
  0
LINE
  5
61
330
17
100
AcDbEntity
  8
SARR_2.2x7
 62
40
370
25
100
AcDbLine
 10
4587.566107426973
 20
9208.878470475127
 30
0.0
 11
4587.56610742697
 21
9248.878470475132
 31
0.0
  0
LINE
  5
62
330
17
100
AcDbEntity
  8
SARR_2.2x7
 62
40
370
25
100
AcDbLine
 10
4944.656388945343
 20
9208.878470475154
 30
0.0
 11
4944.656388945347
 21
9248.878470475132
 31
0.0
  0
LINE
  5
63
330
17
100
AcDbEntity
  8
Painéis
 62
200
370
25
100
AcDbLine
 10
4824.611248186158
 20
9208.878470475145
 30
0.0
 11
4824.611248186155
 21
9248.878470475145
 31
0.0
  0
LINE
  5
64
330
17
100
AcDbEntity
  8
COTA
 62
241
370
25
100
AcDbLine
 10
4580.611248186152
 20
9248.878470475132
 30
0.0
 11
4580.611248186152
 21
9260.87847047513
 31
0.0
  0
LINE
  5
65
330
17
100
AcDbEntity
  8
COTA
 62
241
370
25
100
AcDbLine
 10
4951.611248186153
 20
9260.87847047513
 30
0.0
 11
4951.611248186153
 21
9248.878470475156
 31
0.0
  0
LINE
  5
66
330
17
100
AcDbEntity
  8
SARR_2.2x7
 62
40
370
25
100
AcDbLine
 10
4580.611248186152
 20
9264.378470475112
 30
0.0
 11
4824.611248186155
 21
9264.378470475123
 31
0.0
  0
LINE
  5
67
330
17
100
AcDbEntity
  8
SARR_2.2x7
 62
40
370
25
100
AcDbLine
 10
4824.611248186155
 20
9264.378470475123
 30
0.0
 11
4951.611248186153
 21
9264.37847047513
 31
0.0
  0
LINE
  5
68
330
17
100
AcDbEntity
  8
Painéis
 62
200
370
25
100
AcDbLine
 10
4824.611248186155
 20
9260.87847047513
 30
0.0
 11
4824.611248186155
 21
9267.87847047513
 31
0.0
  0
LINE
  5
69
330
17
100
AcDbEntity
  8
SARR_2.2x7
 62
40
370
25
100
AcDbLine
 10
4587.566107426971
 20
9215.878470475058
 30
0.0
 11
4824.611248186156
 21
9215.87847047504
 31
0.0
  0
LINE
  5
6A
330
17
100
AcDbEntity
  8
SARR_2.2x7
 62
40
370
25
100
AcDbLine
 10
4824.611248186156
 20
9215.87847047504
 30
0.0
 11
4944.656388945346
 21
9215.878470475305
 31
0.0
  0
LINE
  5
6B
330
17
100
AcDbEntity
  8
SARR_2.2x7
 62
40
370
25
100
AcDbLine
 10
4587.566107426971
 20
9036.67124070054
 30
0.0
 11
4824.611248186156
 21
9036.671240700558
 31
0.0
  0
LINE
  5
6C
330
17
100
AcDbEntity
  8
SARR_2.2x7
 62
40
370
25
100
AcDbLine
 10
4824.611248186156
 20
9036.671240700558
 30
0.0
 11
5068.611248186155
 21
9036.671240700354
 31
0.0
  0
LINE
  5
6D
330
17
100
AcDbEntity
  8
SARR_2.2x7
 62
40
370
25
100
AcDbLine
 10
5068.611248186154
 20
9036.671240700352
 30
0.0
 11
5190.611248186155
 21
9036.671240700336
 31
0.0
  0
LINE
  5
6E
330
17
100
AcDbEntity
  8
Painéis
 62
200
370
25
100
AcDbLine
 10
4580.611248186152
 20
9043.671240700449
 30
0.0
 11
5384.611248186154
 21
9043.671240700474
 31
0.0
  0
LINE
  5
6F
330
17
100
AcDbEntity
  8
Painéis
 62
200
370
25
100
AcDbLine
 10
4580.611248186158
 20
8984.671240700449
 30
0.0
 11
5384.611248186158
 21
8984.671240700474
 31
0.0
  0
LINE
  5
70
330
17
100
AcDbEntity
  8
Painéis
 62
200
370
25
100
AcDbLine
 10
5384.611248186158
 20
8984.671240700474
 30
0.0
 11
5384.611248186154
 21
9043.671240700474
 31
0.0
  0
LINE
  5
71
330
17
100
AcDbEntity
  8
Painéis
 62
200
370
25
100
AcDbLine
 10
4580.611248186158
 20
8984.671240700449
 30
0.0
 11
4580.611248186154
 21
9043.671240700449
 31
0.0
  0
LINE
  5
72
330
17
100
AcDbEntity
  8
SARR_2.2x7
 62
40
370
25
100
AcDbLine
 10
4587.566107426973
 20
8984.671240700445
 30
0.0
 11
4587.56610742697
 21
9043.671240700449
 31
0.0
  0
LINE
  5
73
330
17
100
AcDbEntity
  8
SARR_2.2x7
 62
40
370
25
100
AcDbLine
 10
5377.656388945343
 20
8984.671240700469
 30
0.0
 11
5377.656388945347
 21
9043.671240700449
 31
0.0
  0
LINE
  5
74
330
17
100
AcDbEntity
  8
Painéis
 62
200
370
25
100
AcDbLine
 10
4824.611248186158
 20
8984.671240700462
 30
0.0
 11
4824.611248186155
 21
9043.671240700463
 31
0.0
  0
LINE
  5
75
330
17
100
AcDbEntity
  8
SARR_2.2x7
 62
40
370
25
100
AcDbLine
 10
4587.566107426971
 20
8991.671240700374
 30
0.0
 11
4824.611248186156
 21
8991.67124070036
 31
0.0
  0
LINE
  5
76
330
17
100
AcDbEntity
  8
SARR_2.2x7
 62
40
370
25
100
AcDbLine
 10
4824.611248186156
 20
8991.67124070036
 30
0.0
 11
5068.611248186158
 21
8991.671240700472
 31
0.0
  0
LINE
  5
77
330
17
100
AcDbEntity
  8
Painéis
 62
200
370
25
100
AcDbLine
 10
5068.611248186158
 20
8984.671240700462
 30
0.0
 11
5068.611248186154
 21
9043.671240700463
 31
0.0
  0
LINE
  5
78
330
17
100
AcDbEntity
  8
Painéis
 62
200
370
25
100
AcDbLine
 10
5068.611248186158
 20
8984.671240700462
 30
0.0
 11
5068.611248186154
 21
9043.671240700463
 31
0.0
  0
LINE
  5
79
330
17
100
AcDbEntity
  8
SARR_2.2x7
 62
40
370
25
100
AcDbLine
 10
4824.611248186158
 20
9010.671240700613
 30
0.0
 11
5068.611248186158
 21
9010.671240700409
 31
0.0
  0
LINE
  5
7A
330
17
100
AcDbEntity
  8
SARR_2.2x7
 62
40
370
25
100
AcDbLine
 10
4824.611248186158
 20
9017.67124070031
 30
0.0
 11
5068.611248186158
 21
9017.67124070052
 31
0.0
  0
LINE
  5
7B
330
17
100
AcDbEntity
  8
SARR_2.2x7
 62
40
370
25
100
AcDbLine
 10
4587.566107426948
 20
9010.671240700593
 30
0.0
 11
4824.611248186133
 21
9010.671240700613
 31
0.0
  0
LINE
  5
7C
330
17
100
AcDbEntity
  8
SARR_2.2x7
 62
40
370
25
100
AcDbLine
 10
5068.611248186158
 20
9010.671240700405
 30
0.0
 11
5190.611248186158
 21
9010.67124070039
 31
0.0
  0
LINE
  5
7D
330
17
100
AcDbEntity
  8
SARR_2.2x7
 62
40
370
25
100
AcDbLine
 10
4587.566107426972
 20
9017.671240700292
 30
0.0
 11
4824.611248186158
 21
9017.67124070031
 31
0.0
  0
LINE
  5
7E
330
17
100
AcDbEntity
  8
SARR_2.2x7
 62
40
370
25
100
AcDbLine
 10
5068.611248186158
 20
9017.671240700103
 30
0.0
 11
5190.611248186156
 21
9017.671240700089
 31
0.0
  0
LINE
  5
7F
330
17
100
AcDbEntity
  8
Painéis
 62
200
370
25
100
AcDbLine
 10
5190.611248186158
 20
8984.671240700462
 30
0.0
 11
5190.611248186154
 21
9043.671240700463
 31
0.0
  0
LINE
  5
80
330
17
100
AcDbEntity
  8
Painéis
 62
200
370
25
100
AcDbLine
 10
5190.611248186158
 20
8984.671240700462
 30
0.0
 11
5190.611248186154
 21
9043.671240700463
 31
0.0
  0
LINE
  5
81
330
17
100
AcDbEntity
  8
SARR_2.2x7
 62
40
370
25
100
AcDbLine
 10
5190.611248186155
 20
9036.671240700336
 30
0.0
 11
5377.656388945346
 21
9036.671240700298
 31
0.0
  0
LINE
  5
82
330
17
100
AcDbEntity
  8
SARR_2.2x7
 62
40
370
25
100
AcDbLine
 10
5190.611248186156
 20
9017.67124070009
 30
0.0
 11
5377.656388945347
 21
9017.67124070005
 31
0.0
  0
LINE
  5
83
330
17
100
AcDbEntity
  8
SARR_2.2x7
 62
40
370
25
100
AcDbLine
 10
5190.611248186158
 20
9010.67124070039
 30
0.0
 11
5377.656388945323
 21
9010.671240700352
 31
0.0
  0
LINE
  5
84
330
17
100
AcDbEntity
  8
SARR_2.2x7
 62
40
370
25
100
AcDbLine
 10
5190.611248186158
 20
8991.67124070051
 30
0.0
 11
5377.656388945346
 21
8991.671240700623
 31
0.0
  0
LINE
  5
85
330
17
100
AcDbEntity
  8
SARR_2.2x7
 62
40
370
25
100
AcDbLine
 10
5068.611248186158
 20
8991.67124070047
 30
0.0
 11
5190.611248186158
 21
8991.671240700514
 31
0.0
  0
LINE
  5
86
330
17
100
AcDbEntity
  8
SARR_2.2x7
 62
40
370
25
100
AcDbLine
 10
5242.028302099998
 20
9414.135324251045
 30
0.0
 11
5380.073442859186
 21
9414.135324250785
 31
0.0
  0
LINE
  5
87
330
17
100
AcDbEntity
  8
SARR_2.2x7
 62
40
370
25
100
AcDbLine
 10
5242.028302099998
 20
9421.135324250676
 30
0.0
 11
5380.073442859186
 21
9421.135324250936
 31
0.0
  0
LINE
  5
88
330
17
100
AcDbEntity
  8
SARR_2.2x7
 62
40
370
25
100
AcDbLine
 10
5004.983161340816
 20
9414.135324251496
 30
0.0
 11
5242.028302099996
 21
9414.135324251045
 31
0.0
  0
LINE
  5
89
330
17
100
AcDbEntity
  8
SARR_2.2x7
 62
40
370
25
100
AcDbLine
 10
5004.983161340816
 20
9421.135324250748
 30
0.0
 11
5242.028302099996
 21
9421.135324251198
 31
0.0
  0
LINE
  5
8A
330
17
100
AcDbEntity
  8
SARR_2.2x7
 62
40
370
25
100
AcDbLine
 10
4824.611248186157
 20
9414.135324251045
 30
0.0
 11
4968.656388945344
 21
9414.13532425077
 31
0.0
  0
LINE
  5
8B
330
17
100
AcDbEntity
  8
SARR_2.2x7
 62
40
370
25
100
AcDbLine
 10
4824.611248186157
 20
9421.135324250676
 30
0.0
 11
4968.656388945345
 21
9421.135324250945
 31
0.0
  0
LINE
  5
8C
330
17
100
AcDbEntity
  8
SARR_2.2x7
 62
40
370
25
100
AcDbLine
 10
4587.566107426975
 20
9414.135324251496
 30
0.0
 11
4824.611248186156
 21
9414.135324251045
 31
0.0
  0
LINE
  5
8D
330
17
100
AcDbEntity
  8
SARR_2.2x7
 62
40
370
25
100
AcDbLine
 10
4587.566107426975
 20
9421.135324250748
 30
0.0
 11
4824.611248186156
 21
9421.135324251198
 31
0.0
  0
LINE
  5
8E
330
17
100
AcDbEntity
  8
SARR_2.2x7
 62
40
370
25
100
AcDbLine
 10
4587.566107426975
 20
9225.378470475778
 30
0.0
 11
4824.611248186156
 21
9225.378470475327
 31
0.0
  0
LINE
  5
8F
330
17
100
AcDbEntity
  8
SARR_2.2x7
 62
40
370
25
100
AcDbLine
 10
4587.566107426975
 20
9232.378470475032
 30
0.0
 11
4824.611248186156
 21
9232.37847047548
 31
0.0
  0
LINE
  5
90
330
17
100
AcDbEntity
  8
SARR_2.2x7
 62
40
370
25
100
AcDbLine
 10
4824.61124818616
 20
9225.378470475795
 30
0.0
 11
4944.656388945346
 21
9225.378470475567
 31
0.0
  0
LINE
  5
91
330
17
100
AcDbEntity
  8
SARR_2.2x7
 62
40
370
25
100
AcDbLine
 10
4824.61124818616
 20
9232.378470475045
 30
0.0
 11
4944.656388945347
 21
9232.378470475276
 31
0.0
  0
LINE
  5
92
330
17
100
AcDbEntity
  8
COTA
 62
4
370
25
100
AcDbLine
 10
4426.044995620279
 20
9249.139327400708
 30
0.0
 11
4459.767947616358
 21
9249.139327400708
 31
0.0
  0
LINE
  5
93
330
17
100
AcDbEntity
  8
COTA
 62
4
370
25
100
AcDbLine
 10
4421.644995620225
 20
9367.139327400699
 30
0.0
 11
4459.767947616358
 21
9367.139327400699
 31
0.0
  0
LINE
  5
94
330
17
100
AcDbEntity
  8
COTA
 62
4
370
25
100
AcDbLine
 10
4456.767947616358
 20
9249.139327400708
 30
0.0
 11
4456.767947616358
 21
9367.139327400699
 31
0.0
  0
LINE
  5
95
330
17
100
AcDbEntity
  8
Cota Seção (2x)
 62
180
370
25
100
AcDbLine
 10
4396.644995620203
 20
9317.472660733982
 30
0.0
 11
4396.644995620203
 21
9336.805994067314
 31
0.0
  0
LINE
  5
96
330
17
100
AcDbEntity
  8
Cota Seção (2x)
 62
180
370
25
100
AcDbLine
 10
4396.644995620203
 20
9336.805994067314
 30
0.0
 11
4381.644995620203
 21
9336.805994067314
 31
0.0
  0
LINE
  5
97
330
17
100
AcDbEntity
  8
Cota Seção (2x)
 62
180
370
25
100
AcDbLine
 10
4381.644995620203
 20
9336.805994067314
 30
0.0
 11
4381.644995620203
 21
9317.472660733982
 31
0.0
  0
LINE
  5
98
330
17
100
AcDbEntity
  8
Cota Seção (2x)
 62
180
370
25
100
AcDbLine
 10
4381.644995620203
 20
9317.472660733982
 30
0.0
 11
4396.644995620203
 21
9317.472660733982
 31
0.0
  0
LINE
  5
99
330
17
100
AcDbEntity
  8
COTA
 62
4
370
25
100
AcDbLine
 10
4314.044995620237
 20
9353.139327400699
 30
0.0
 11
4280.987701016426
 21
9353.139327400699
 31
0.0
  0
LINE
  5
9A
330
17
100
AcDbEntity
  8
COTA
 62
4
370
25
100
AcDbLine
 10
4314.044995620237
 20
9333.139327400671
 30
0.0
 11
4280.987701016426
 21
9333.139327400671
 31
0.0
  0
LINE
  5
9B
330
17
100
AcDbEntity
  8
COTA
 62
4
370
25
100
AcDbLine
 10
4283.987701016426
 20
9353.139327400699
 30
0.0
 11
4283.987701016426
 21
9333.139327400671
 31
0.0
  0
LINE
  5
9C
330
17
100
AcDbEntity
  8
COTA
 62
4
370
25
100
AcDbLine
 10
4314.044995620237
 20
9329.13932740067
 30
0.0
 11
4280.987701016754
 21
9329.13932740067
 31
0.0
  0
LINE
  5
9D
330
17
100
AcDbEntity
  8
COTA
 62
4
370
25
100
AcDbLine
 10
4336.044995620237
 20
9249.139327400699
 30
0.0
 11
4280.987701016754
 21
9249.139327400699
 31
0.0
  0
LINE
  5
9E
330
17
100
AcDbEntity
  8
COTA
 62
4
370
25
100
AcDbLine
 10
4283.987701016754
 20
9329.13932740067
 30
0.0
 11
4283.987701016754
 21
9249.139327400699
 31
0.0
  0
LINE
  5
9F
330
17
100
AcDbEntity
  8
COTA
 62
4
370
25
100
AcDbLine
 10
4372.644995620212
 20
9246.13932740069
 30
0.0
 11
4372.644995620212
 21
9201.412513598505
 31
0.0
  0
LINE
  5
A0
330
17
100
AcDbEntity
  8
COTA
 62
4
370
25
100
AcDbLine
 10
4400.644995620212
 20
9246.13932740069
 30
0.0
 11
4400.644995620212
 21
9201.412513598505
 31
0.0
  0
LINE
  5
A1
330
17
100
AcDbEntity
  8
COTA
 62
4
370
25
100
AcDbLine
 10
4372.644995620212
 20
9204.412513598505
 30
0.0
 11
4400.644995620212
 21
9204.412513598505
 31
0.0
  0
LINE
  5
A2
330
17
100
AcDbEntity
  8
Cota Seção (2x)
 62
180
370
25
100
AcDbLine
 10
4372.31166228685
 20
9269.139327400695
 30
0.0
 11
4390.978328953516
 21
9269.139327400695
 31
0.0
  0
LINE
  5
A3
330
17
100
AcDbEntity
  8
Cota Seção (2x)
 62
180
370
25
100
AcDbLine
 10
4390.978328953516
 20
9269.139327400695
 30
0.0
 11
4390.978328953516
 21
9284.139327400693
 31
0.0
  0
LINE
  5
A4
330
17
100
AcDbEntity
  8
Cota Seção (2x)
 62
180
370
25
100
AcDbLine
 10
4390.978328953516
 20
9284.139327400693
 30
0.0
 11
4372.31166228685
 21
9284.139327400693
 31
0.0
  0
LINE
  5
A5
330
17
100
AcDbEntity
  8
Cota Seção (2x)
 62
180
370
25
100
AcDbLine
 10
4372.31166228685
 20
9284.139327400693
 30
0.0
 11
4372.31166228685
 21
9269.139327400695
 31
0.0
  0
LINE
  5
A6
330
17
100
AcDbEntity
  8
COTA
 62
4
370
25
100
AcDbLine
 10
4314.044995620237
 20
9353.139327400699
 30
0.0
 11
4280.987701016431
 21
9353.139327400699
 31
0.0
  0
LINE
  5
A7
330
17
100
AcDbEntity
  8
COTA
 62
4
370
25
100
AcDbLine
 10
4361.644995620213
 20
9367.139327400699
 30
0.0
 11
4280.987701016431
 21
9367.139327400699
 31
0.0
  0
LINE
  5
A8
330
17
100
AcDbEntity
  8
COTA
 62
4
370
25
100
AcDbLine
 10
4283.987701016431
 20
9353.139327400699
 30
0.0
 11
4283.987701016431
 21
9367.139327400699
 31
0.0
  0
LINE
  5
A9
330
17
100
AcDbEntity
  8
COTA
 62
4
370
25
100
AcDbLine
 10
4580.611248186158
 20
9394.635324250848
 30
0.0
 11
4580.611248186158
 21
9368.095398272693
 31
0.0
  0
LINE
  5
AA
330
17
100
AcDbEntity
  8
COTA
 62
4
370
25
100
AcDbLine
 10
4824.611248186158
 20
9394.635324250878
 30
0.0
 11
4824.611248186158
 21
9368.095398272693
 31
0.0
  0
LINE
  5
AB
330
17
100
AcDbEntity
  8
COTA
 62
4
370
25
100
AcDbLine
 10
4580.611248186158
 20
9371.095398272693
 30
0.0
 11
4824.611248186158
 21
9371.095398272693
 31
0.0
  0
LINE
  5
AC
330
17
100
AcDbEntity
  8
COTA
 62
0
370
25
100
AcDbLine
 10
4582.111248186158
 20
9372.595398272693
 30
0.0
 11
4579.111248186158
 21
9369.595398272693
 31
0.0
  0
LINE
  5
AD
330
17
100
AcDbEntity
  8
COTA
 62
0
370
25
100
AcDbLine
 10
4823.111248186158
 20
9369.595398272693
 30
0.0
 11
4826.111248186158
 21
9372.595398272693
 31
0.0
  0
LINE
  5
AE
330
17
100
AcDbEntity
  8
COTA
 62
4
370
25
100
AcDbLine
 10
4824.611248186158
 20
9394.635324250878
 30
0.0
 11
4824.611248186158
 21
9368.095398272704
 31
0.0
  0
LINE
  5
AF
330
17
100
AcDbEntity
  8
COTA
 62
4
370
25
100
AcDbLine
 10
4975.611248186158
 20
9394.635324250874
 30
0.0
 11
4975.611248186158
 21
9368.095398272704
 31
0.0
  0
LINE
  5
B0
330
17
100
AcDbEntity
  8
COTA
 62
4
370
25
100
AcDbLine
 10
4824.611248186158
 20
9371.095398272704
 30
0.0
 11
4975.611248186158
 21
9371.095398272704
 31
0.0
  0
LINE
  5
B1
330
17
100
AcDbEntity
  8
COTA
 62
0
370
25
100
AcDbLine
 10
4826.111248186158
 20
9372.595398272704
 30
0.0
 11
4823.111248186158
 21
9369.595398272704
 31
0.0
  0
LINE
  5
B2
330
17
100
AcDbEntity
  8
COTA
 62
0
370
25
100
AcDbLine
 10
4974.111248186158
 20
9369.595398272704
 30
0.0
 11
4977.111248186158
 21
9372.595398272704
 31
0.0
  0
LINE
  5
B3
330
17
100
AcDbEntity
  8
Painéis
 62
4
370
25
100
AcDbLine
 10
5390.028302099995
 20
9437.635324250856
 30
0.0
 11
5419.374065084028
 21
9437.635324250856
 31
0.0
  0
LINE
  5
B4
330
17
100
AcDbEntity
  8
Painéis
 62
4
370
25
100
AcDbLine
 10
5390.028302099992
 20
9397.635324250856
 30
0.0
 11
5419.374065084028
 21
9397.635324250856
 31
0.0
  0
LINE
  5
B5
330
17
100
AcDbEntity
  8
Painéis
 62
4
370
25
100
AcDbLine
 10
5416.374065084028
 20
9437.635324250856
 30
0.0
 11
5416.374065084028
 21
9397.635324250856
 31
0.0
  0
LINE
  5
B6
330
17
100
AcDbEntity
  8
Painéis
 62
0
370
25
100
AcDbLine
 10
5417.874065084028
 20
9436.135324250856
 30
0.0
 11
5414.874065084028
 21
9439.135324250856
 31
0.0
  0
LINE
  5
B7
330
17
100
AcDbEntity
  8
Painéis
 62
0
370
25
100
AcDbLine
 10
5414.874065084028
 20
9399.135324250856
 30
0.0
 11
5417.874065084028
 21
9396.135324250856
 31
0.0
  0
LINE
  5
B8
330
17
100
AcDbEntity
  8
Painéis
 62
4
370
25
100
AcDbLine
 10
5390.028302099998
 20
9437.635324250856
 30
0.0
 11
5419.37406508401
 21
9437.635324250856
 31
0.0
  0
LINE
  5
B9
330
17
100
AcDbEntity
  8
Painéis
 62
4
370
25
100
AcDbLine
 10
5390.028302099998
 20
9449.635324250856
 30
0.0
 11
5419.37406508401
 21
9449.635324250856
 31
0.0
  0
LINE
  5
BA
330
17
100
AcDbEntity
  8
Painéis
 62
4
370
25
100
AcDbLine
 10
5416.37406508401
 20
9437.635324250856
 30
0.0
 11
5416.37406508401
 21
9449.635324250856
 31
0.0
  0
LINE
  5
BB
330
17
100
AcDbEntity
  8
Painéis
 62
0
370
25
100
AcDbLine
 10
5414.87406508401
 20
9439.135324250856
 30
0.0
 11
5417.87406508401
 21
9436.135324250856
 31
0.0
  0
LINE
  5
BC
330
17
100
AcDbEntity
  8
Painéis
 62
0
370
25
100
AcDbLine
 10
5417.87406508401
 20
9448.135324250856
 30
0.0
 11
5414.87406508401
 21
9451.135324250856
 31
0.0
  0
LINE
  5
BD
330
17
100
AcDbEntity
  8
Painéis
 62
4
370
25
100
AcDbLine
 10
5390.028302099998
 20
9449.635324250856
 30
0.0
 11
5419.37406508402
 21
9449.635324250856
 31
0.0
  0
LINE
  5
BE
330
17
100
AcDbEntity
  8
Painéis
 62
4
370
25
100
AcDbLine
 10
5390.028302099998
 20
9456.635324250856
 30
0.0
 11
5419.37406508402
 21
9456.635324250856
 31
0.0
  0
LINE
  5
BF
330
17
100
AcDbEntity
  8
Painéis
 62
4
370
25
100
AcDbLine
 10
5416.374065084021
 20
9449.635324250856
 30
0.0
 11
5416.374065084021
 21
9456.635324250856
 31
0.0
  0
LINE
  5
C0
330
17
100
AcDbEntity
  8
Painéis
 62
4
370
25
100
AcDbLine
 10
5416.374065084021
 20
9456.635324250856
 30
0.0
 11
5416.374065084021
 21
9471.366318402903
 31
0.0
  0
LINE
  5
C1
330
17
100
AcDbEntity
  8
Painéis
 62
0
370
25
100
AcDbLine
 10
5414.874065084021
 20
9451.135324250856
 30
0.0
 11
5417.874065084021
 21
9448.135324250856
 31
0.0
  0
LINE
  5
C2
330
17
100
AcDbEntity
  8
Painéis
 62
0
370
25
100
AcDbLine
 10
5417.874065084021
 20
9455.135324250856
 30
0.0
 11
5414.874065084021
 21
9458.135324250856
 31
0.0
  0
LINE
  5
C3
330
17
100
AcDbEntity
  8
Painéis
 62
4
370
25
100
AcDbLine
 10
5390.028302099998
 20
9456.635324250856
 30
0.0
 11
5445.368103534967
 21
9456.635324250856
 31
0.0
  0
LINE
  5
C4
330
17
100
AcDbEntity
  8
Painéis
 62
4
370
25
100
AcDbLine
 10
5390.028302099994
 20
9397.635324250856
 30
0.0
 11
5445.368103534967
 21
9397.635324250856
 31
0.0
  0
LINE
  5
C5
330
17
100
AcDbEntity
  8
Painéis
 62
4
370
25
100
AcDbLine
 10
5442.368103534967
 20
9456.635324250856
 30
0.0
 11
5442.368103534967
 21
9397.635324250856
 31
0.0
  0
LINE
  5
C6
330
17
100
AcDbEntity
  8
Painéis
 62
0
370
25
100
AcDbLine
 10
5443.868103534967
 20
9455.135324250856
 30
0.0
 11
5440.868103534967
 21
9458.135324250856
 31
0.0
  0
LINE
  5
C7
330
17
100
AcDbEntity
  8
Painéis
 62
0
370
25
100
AcDbLine
 10
5440.868103534967
 20
9399.135324250856
 30
0.0
 11
5443.868103534967
 21
9396.135324250856
 31
0.0
  0
LINE
  5
C8
330
17
100
AcDbEntity
  8
COTA
 62
4
370
25
100
AcDbLine
 10
4998.028302100001
 20
9394.635324250848
 30
0.0
 11
4998.028302100001
 21
9368.095398272693
 31
0.0
  0
LINE
  5
C9
330
17
100
AcDbEntity
  8
COTA
 62
4
370
25
100
AcDbLine
 10
5242.028302100002
 20
9394.635324250878
 30
0.0
 11
5242.028302100002
 21
9368.095398272693
 31
0.0
  0
LINE
  5
CA
330
17
100
AcDbEntity
  8
COTA
 62
4
370
25
100
AcDbLine
 10
4998.028302100001
 20
9371.095398272693
 30
0.0
 11
5242.028302100002
 21
9371.095398272693
 31
0.0
  0
LINE
  5
CB
330
17
100
AcDbEntity
  8
COTA
 62
0
370
25
100
AcDbLine
 10
4999.528302100001
 20
9372.595398272693
 30
0.0
 11
4996.528302100001
 21
9369.595398272693
 31
0.0
  0
LINE
  5
CC
330
17
100
AcDbEntity
  8
COTA
 62
0
370
25
100
AcDbLine
 10
5240.528302100002
 20
9369.595398272693
 30
0.0
 11
5243.528302100002
 21
9372.595398272693
 31
0.0
  0
LINE
  5
CD
330
17
100
AcDbEntity
  8
COTA
 62
4
370
25
100
AcDbLine
 10
5242.028302100002
 20
9394.635324250878
 30
0.0
 11
5242.028302100002
 21
9368.095398272704
 31
0.0
  0
LINE
  5
CE
330
17
100
AcDbEntity
  8
COTA
 62
4
370
25
100
AcDbLine
 10
5387.028302100001
 20
9394.635324250874
 30
0.0
 11
5387.028302100001
 21
9368.095398272704
 31
0.0
  0
LINE
  5
CF
330
17
100
AcDbEntity
  8
COTA
 62
4
370
25
100
AcDbLine
 10
5242.028302100002
 20
9371.095398272704
 30
0.0
 11
5387.028302100001
 21
9371.095398272704
 31
0.0
  0
LINE
  5
D0
330
17
100
AcDbEntity
  8
COTA
 62
0
370
25
100
AcDbLine
 10
5243.528302100002
 20
9372.595398272704
 30
0.0
 11
5240.528302100002
 21
9369.595398272704
 31
0.0
  0
LINE
  5
D1
330
17
100
AcDbEntity
  8
COTA
 62
0
370
25
100
AcDbLine
 10
5385.528302100001
 20
9369.595398272704
 30
0.0
 11
5388.528302100001
 21
9372.595398272704
 31
0.0
  0
LINE
  5
D2
330
17
100
AcDbEntity
  8
COTA
 62
4
370
25
100
AcDbLine
 10
4580.611248186158
 20
9205.87847047513
 30
0.0
 11
4580.611248186158
 21
9179.338544496975
 31
0.0
  0
LINE
  5
D3
330
17
100
AcDbEntity
  8
COTA
 62
4
370
25
100
AcDbLine
 10
4824.611248186158
 20
9205.878470475162
 30
0.0
 11
4824.611248186158
 21
9179.338544496975
 31
0.0
  0
LINE
  5
D4
330
17
100
AcDbEntity
  8
COTA
 62
4
370
25
100
AcDbLine
 10
4580.611248186158
 20
9182.338544496975
 30
0.0
 11
4824.611248186158
 21
9182.338544496975
 31
0.0
  0
LINE
  5
D5
330
17
100
AcDbEntity
  8
COTA
 62
0
370
25
100
AcDbLine
 10
4582.111248186158
 20
9183.838544496975
 30
0.0
 11
4579.111248186158
 21
9180.838544496975
 31
0.0
  0
LINE
  5
D6
330
17
100
AcDbEntity
  8
COTA
 62
0
370
25
100
AcDbLine
 10
4823.111248186158
 20
9180.838544496975
 30
0.0
 11
4826.111248186158
 21
9183.838544496975
 31
0.0
  0
LINE
  5
D7
330
17
100
AcDbEntity
  8
COTA
 62
4
370
25
100
AcDbLine
 10
4824.611248186158
 20
9205.878470475162
 30
0.0
 11
4824.611248186158
 21
9179.338544496986
 31
0.0
  0
LINE
  5
D8
330
17
100
AcDbEntity
  8
COTA
 62
4
370
25
100
AcDbLine
 10
4951.611248186158
 20
9205.878470475154
 30
0.0
 11
4951.611248186158
 21
9179.338544496986
 31
0.0
  0
LINE
  5
D9
330
17
100
AcDbEntity
  8
COTA
 62
4
370
25
100
AcDbLine
 10
4824.611248186158
 20
9182.338544496984
 30
0.0
 11
4951.611248186158
 21
9182.338544496984
 31
0.0
  0
LINE
  5
DA
330
17
100
AcDbEntity
  8
COTA
 62
0
370
25
100
AcDbLine
 10
4826.111248186158
 20
9183.838544496984
 30
0.0
 11
4823.111248186158
 21
9180.838544496984
 31
0.0
  0
LINE
  5
DB
330
17
100
AcDbEntity
  8
COTA
 62
0
370
25
100
AcDbLine
 10
4950.111248186158
 20
9180.838544496984
 30
0.0
 11
4953.111248186158
 21
9183.838544496984
 31
0.0
  0
LINE
  5
DC
330
17
100
AcDbEntity
  8
Painéis
 62
4
370
25
100
AcDbLine
 10
4954.611248186153
 20
9248.87847047514
 30
0.0
 11
4985.076860592352
 21
9248.87847047514
 31
0.0
  0
LINE
  5
DD
330
17
100
AcDbEntity
  8
Painéis
 62
4
370
25
100
AcDbLine
 10
4954.611248186149
 20
9208.878470475138
 30
0.0
 11
4985.076860592352
 21
9208.878470475138
 31
0.0
  0
LINE
  5
DE
330
17
100
AcDbEntity
  8
Painéis
 62
4
370
25
100
AcDbLine
 10
4982.076860592353
 20
9248.87847047514
 30
0.0
 11
4982.076860592353
 21
9208.878470475138
 31
0.0
  0
LINE
  5
DF
330
17
100
AcDbEntity
  8
Painéis
 62
0
370
25
100
AcDbLine
 10
4983.576860592353
 20
9247.37847047514
 30
0.0
 11
4980.576860592353
 21
9250.37847047514
 31
0.0
  0
LINE
  5
E0
330
17
100
AcDbEntity
  8
Painéis
 62
0
370
25
100
AcDbLine
 10
4980.576860592353
 20
9210.378470475138
 30
0.0
 11
4983.576860592353
 21
9207.378470475138
 31
0.0
  0
LINE
  5
E1
330
17
100
AcDbEntity
  8
Painéis
 62
4
370
25
100
AcDbLine
 10
4954.611248186155
 20
9248.87847047514
 30
0.0
 11
4985.076860592328
 21
9248.87847047514
 31
0.0
  0
LINE
  5
E2
330
17
100
AcDbEntity
  8
Painéis
 62
4
370
25
100
AcDbLine
 10
4954.611248186155
 20
9260.87847047514
 30
0.0
 11
4985.076860592328
 21
9260.87847047514
 31
0.0
  0
LINE
  5
E3
330
17
100
AcDbEntity
  8
Painéis
 62
4
370
25
100
AcDbLine
 10
4982.076860592328
 20
9248.87847047514
 30
0.0
 11
4982.076860592328
 21
9260.87847047514
 31
0.0
  0
LINE
  5
E4
330
17
100
AcDbEntity
  8
Painéis
 62
0
370
25
100
AcDbLine
 10
4980.576860592328
 20
9250.37847047514
 30
0.0
 11
4983.576860592328
 21
9247.37847047514
 31
0.0
  0
LINE
  5
E5
330
17
100
AcDbEntity
  8
Painéis
 62
0
370
25
100
AcDbLine
 10
4983.576860592328
 20
9259.37847047514
 30
0.0
 11
4980.576860592328
 21
9262.37847047514
 31
0.0
  0
LINE
  5
E6
330
17
100
AcDbEntity
  8
Painéis
 62
4
370
25
100
AcDbLine
 10
4954.611248186155
 20
9260.87847047514
 30
0.0
 11
4985.076860592345
 21
9260.87847047514
 31
0.0
  0
LINE
  5
E7
330
17
100
AcDbEntity
  8
Painéis
 62
4
370
25
100
AcDbLine
 10
4954.611248186155
 20
9267.878470475138
 30
0.0
 11
4985.076860592345
 21
9267.878470475138
 31
0.0
  0
LINE
  5
E8
330
17
100
AcDbEntity
  8
Painéis
 62
4
370
25
100
AcDbLine
 10
4982.076860592345
 20
9260.87847047514
 30
0.0
 11
4982.076860592345
 21
9267.878470475138
 31
0.0
  0
LINE
  5
E9
330
17
100
AcDbEntity
  8
Painéis
 62
4
370
25
100
AcDbLine
 10
4982.076860592345
 20
9267.878470475138
 30
0.0
 11
4982.076860592345
 21
9282.609464627185
 31
0.0
  0
LINE
  5
EA
330
17
100
AcDbEntity
  8
Painéis
 62
0
370
25
100
AcDbLine
 10
4980.576860592345
 20
9262.37847047514
 30
0.0
 11
4983.576860592345
 21
9259.37847047514
 31
0.0
  0
LINE
  5
EB
330
17
100
AcDbEntity
  8
Painéis
 62
0
370
25
100
AcDbLine
 10
4983.576860592345
 20
9266.378470475138
 30
0.0
 11
4980.576860592345
 21
9269.378470475138
 31
0.0
  0
LINE
  5
EC
330
17
100
AcDbEntity
  8
Painéis
 62
4
370
25
100
AcDbLine
 10
4954.611248186155
 20
9267.878470475138
 30
0.0
 11
5011.070899043291
 21
9267.878470475138
 31
0.0
  0
LINE
  5
ED
330
17
100
AcDbEntity
  8
Painéis
 62
4
370
25
100
AcDbLine
 10
4954.611248186151
 20
9208.878470475138
 30
0.0
 11
5011.070899043291
 21
9208.878470475138
 31
0.0
  0
LINE
  5
EE
330
17
100
AcDbEntity
  8
Painéis
 62
4
370
25
100
AcDbLine
 10
5008.070899043292
 20
9267.878470475138
 30
0.0
 11
5008.070899043292
 21
9208.878470475138
 31
0.0
  0
LINE
  5
EF
330
17
100
AcDbEntity
  8
Painéis
 62
0
370
25
100
AcDbLine
 10
5009.570899043292
 20
9266.378470475138
 30
0.0
 11
5006.570899043292
 21
9269.378470475138
 31
0.0
  0
LINE
  5
F0
330
17
100
AcDbEntity
  8
Painéis
 62
0
370
25
100
AcDbLine
 10
5006.570899043292
 20
9210.378470475138
 30
0.0
 11
5009.570899043292
 21
9207.378470475138
 31
0.0
  0
LINE
  5
F1
330
17
100
AcDbEntity
  8
Painéis
 62
4
370
25
100
AcDbLine
 10
4580.611248186158
 20
9205.87847047513
 30
0.0
 11
4580.611248186158
 21
9152.669172145204
 31
0.0
  0
LINE
  5
F2
330
17
100
AcDbEntity
  8
Painéis
 62
4
370
25
100
AcDbLine
 10
4951.611248186147
 20
9205.878470475134
 30
0.0
 11
4951.611248186147
 21
9152.669172145204
 31
0.0
  0
LINE
  5
F3
330
17
100
AcDbEntity
  8
Painéis
 62
4
370
25
100
AcDbLine
 10
4580.611248186158
 20
9155.669172145204
 30
0.0
 11
4951.611248186147
 21
9155.669172145204
 31
0.0
  0
LINE
  5
F4
330
17
100
AcDbEntity
  8
Painéis
 62
0
370
25
100
AcDbLine
 10
4582.111248186158
 20
9157.169172145204
 30
0.0
 11
4579.111248186158
 21
9154.169172145204
 31
0.0
  0
LINE
  5
F5
330
17
100
AcDbEntity
  8
Painéis
 62
0
370
25
100
AcDbLine
 10
4950.111248186147
 20
9154.169172145204
 30
0.0
 11
4953.111248186147
 21
9157.169172145204
 31
0.0
  0
LINE
  5
F6
330
17
100
AcDbEntity
  8
COTA
 62
4
370
25
100
AcDbLine
 10
4580.611248186158
 20
8981.671240700449
 30
0.0
 11
4580.611248186158
 21
8955.131314722305
 31
0.0
  0
LINE
  5
F7
330
17
100
AcDbEntity
  8
COTA
 62
4
370
25
100
AcDbLine
 10
4824.611248186158
 20
8981.671240700478
 30
0.0
 11
4824.611248186158
 21
8955.131314722305
 31
0.0
  0
LINE
  5
F8
330
17
100
AcDbEntity
  8
COTA
 62
4
370
25
100
AcDbLine
 10
4580.611248186158
 20
8958.131314722305
 30
0.0
 11
4824.611248186158
 21
8958.131314722305
 31
0.0
  0
LINE
  5
F9
330
17
100
AcDbEntity
  8
COTA
 62
0
370
25
100
AcDbLine
 10
4582.111248186158
 20
8959.631314722305
 30
0.0
 11
4579.111248186158
 21
8956.631314722305
 31
0.0
  0
LINE
  5
FA
330
17
100
AcDbEntity
  8
COTA
 62
0
370
25
100
AcDbLine
 10
4823.111248186158
 20
8956.631314722305
 30
0.0
 11
4826.111248186158
 21
8959.631314722305
 31
0.0
  0
LINE
  5
FB
330
17
100
AcDbEntity
  8
COTA
 62
4
370
25
100
AcDbLine
 10
4824.611248186158
 20
8981.671240700478
 30
0.0
 11
4824.611248186158
 21
8955.131314722305
 31
0.0
  0
LINE
  5
FC
330
17
100
AcDbEntity
  8
COTA
 62
4
370
25
100
AcDbLine
 10
5068.611248186158
 20
8981.671240700454
 30
0.0
 11
5068.611248186158
 21
8955.131314722305
 31
0.0
  0
LINE
  5
FD
330
17
100
AcDbEntity
  8
COTA
 62
4
370
25
100
AcDbLine
 10
4824.611248186158
 20
8958.131314722305
 30
0.0
 11
5068.611248186158
 21
8958.131314722305
 31
0.0
  0
LINE
  5
FE
330
17
100
AcDbEntity
  8
COTA
 62
0
370
25
100
AcDbLine
 10
4826.111248186158
 20
8959.631314722305
 30
0.0
 11
4823.111248186158
 21
8956.631314722305
 31
0.0
  0
LINE
  5
FF
330
17
100
AcDbEntity
  8
COTA
 62
0
370
25
100
AcDbLine
 10
5067.111248186158
 20
8956.631314722305
 30
0.0
 11
5070.111248186158
 21
8959.631314722305
 31
0.0
  0
LINE
  5
100
330
17
100
AcDbEntity
  8
COTA
 62
4
370
25
100
AcDbLine
 10
4824.611248186158
 20
8981.671240700478
 30
0.0
 11
4824.611248186158
 21
8921.094382951876
 31
0.0
  0
LINE
  5
101
330
17
100
AcDbEntity
  8
COTA
 62
4
370
25
100
AcDbLine
 10
5068.611248186158
 20
8981.671240700454
 30
0.0
 11
5068.611248186158
 21
8921.094382951876
 31
0.0
  0
LINE
  5
102
330
17
100
AcDbEntity
  8
COTA
 62
4
370
25
100
AcDbLine
 10
4824.611248186158
 20
8924.094382951876
 30
0.0
 11
5068.611248186158
 21
8924.094382951876
 31
0.0
  0
LINE
  5
103
330
17
100
AcDbEntity
  8
COTA
 62
0
370
25
100
AcDbLine
 10
4826.111248186158
 20
8925.594382951876
 30
0.0
 11
4823.111248186158
 21
8922.594382951876
 31
0.0
  0
LINE
  5
104
330
17
100
AcDbEntity
  8
COTA
 62
0
370
25
100
AcDbLine
 10
5067.111248186158
 20
8922.594382951876
 30
0.0
 11
5070.111248186158
 21
8925.594382951876
 31
0.0
  0
LINE
  5
105
330
17
100
AcDbEntity
  8
Painéis
 62
4
370
25
100
AcDbLine
 10
5387.611248186161
 20
8984.671240700478
 30
0.0
 11
5416.125620431019
 21
8984.671240700478
 31
0.0
  0
LINE
  5
106
330
17
100
AcDbEntity
  8
Painéis
 62
4
370
25
100
AcDbLine
 10
5387.611248186157
 20
9043.671240700478
 30
0.0
 11
5416.125620431019
 21
9043.671240700478
 31
0.0
  0
LINE
  5
107
330
17
100
AcDbEntity
  8
Painéis
 62
4
370
25
100
AcDbLine
 10
5413.12562043102
 20
8984.671240700478
 30
0.0
 11
5413.12562043102
 21
9043.671240700478
 31
0.0
  0
LINE
  5
108
330
17
100
AcDbEntity
  8
Painéis
 62
0
370
25
100
AcDbLine
 10
5411.62562043102
 20
8986.171240700478
 30
0.0
 11
5414.62562043102
 21
8983.171240700478
 31
0.0
  0
LINE
  5
109
330
17
100
AcDbEntity
  8
Painéis
 62
0
370
25
100
AcDbLine
 10
5414.62562043102
 20
9042.171240700478
 30
0.0
 11
5411.62562043102
 21
9045.171240700478
 31
0.0
  0
LINE
  5
10A
330
17
100
AcDbEntity
  8
Painéis
 62
4
370
25
100
AcDbLine
 10
5384.611248186158
 20
8981.671240700474
 30
0.0
 11
5384.611248186158
 21
8955.131314722305
 31
0.0
  0
LINE
  5
10B
330
17
100
AcDbEntity
  8
Painéis
 62
4
370
25
100
AcDbLine
 10
5190.611248186158
 20
8981.671240700462
 30
0.0
 11
5190.611248186158
 21
8955.131314722305
 31
0.0
  0
LINE
  5
10C
330
17
100
AcDbEntity
  8
Painéis
 62
4
370
25
100
AcDbLine
 10
5384.611248186158
 20
8958.131314722305
 30
0.0
 11
5190.611248186158
 21
8958.131314722305
 31
0.0
  0
LINE
  5
10D
330
17
100
AcDbEntity
  8
Painéis
 62
0
370
25
100
AcDbLine
 10
5383.111248186158
 20
8956.631314722305
 30
0.0
 11
5386.111248186158
 21
8959.631314722305
 31
0.0
  0
LINE
  5
10E
330
17
100
AcDbEntity
  8
Painéis
 62
0
370
25
100
AcDbLine
 10
5192.111248186158
 20
8959.631314722305
 30
0.0
 11
5189.111248186158
 21
8956.631314722305
 31
0.0
  0
LINE
  5
10F
330
17
100
AcDbEntity
  8
00 - FELIPE
 62
4
370
25
100
AcDbLine
 10
5068.611248186158
 20
8981.671240700462
 30
0.0
 11
5068.611248186158
 21
8955.13131472231
 31
0.0
  0
LINE
  5
110
330
17
100
AcDbEntity
  8
00 - FELIPE
 62
4
370
25
100
AcDbLine
 10
5190.611248186158
 20
8981.671240700472
 30
0.0
 11
5190.611248186158
 21
8955.13131472231
 31
0.0
  0
LINE
  5
111
330
17
100
AcDbEntity
  8
00 - FELIPE
 62
4
370
25
100
AcDbLine
 10
5068.611248186158
 20
8958.13131472231
 30
0.0
 11
5190.611248186158
 21
8958.13131472231
 31
0.0
  0
LINE
  5
112
330
17
100
AcDbEntity
  8
00 - FELIPE
 62
0
370
25
100
AcDbLine
 10
5070.111248186158
 20
8959.63131472231
 30
0.0
 11
5067.111248186158
 21
8956.63131472231
 31
0.0
  0
LINE
  5
113
330
17
100
AcDbEntity
  8
00 - FELIPE
 62
0
370
25
100
AcDbLine
 10
5189.111248186158
 20
8956.63131472231
 30
0.0
 11
5192.111248186158
 21
8959.63131472231
 31
0.0
  0
LINE
  5
114
330
17
100
AcDbEntity
  8
Texto Seção
 62
252
370
15
100
AcDbLine
 10
4383.84499562021
 20
9367.139327400693
 30
0.0
 11
4383.84499562021
 21
9492.139327400693
 31
0.0
  0
LWPOLYLINE
  5
115
330
17
100
AcDbEntity
  8
Painéis
 62
200
370
25
100
AcDbPolyline
 90
4
 70
1
 10
4368.644995620212
 20
9329.139327400673
 10
4372.644995620212
 20
9329.139327400673
 10
4372.644995620212
 20
9249.139327400697
 10
4368.644995620212
 20
9249.139327400697
  0
LWPOLYLINE
  5
116
330
17
100
AcDbEntity
  8
Madeira
 62
126
370
18
100
AcDbPolyline
 90
4
 70
1
 10
4400.644995620212
 20
9249.139327400697
 10
4400.644995620212
 20
9253.53932740069
 10
4390.644995620212
 20
9253.53932740069
 10
4390.644995620212
 20
9249.139327400697
  0
LWPOLYLINE
  5
117
330
17
100
AcDbEntity
  8
Painéis
 62
200
370
25
100
AcDbPolyline
 90
4
 70
1
 10
4400.644995620212
 20
9253.53932740069
 10
4400.644995620212
 20
9257.139327400695
 10
4372.644995620212
 20
9257.139327400695
 10
4372.644995620212
 20
9253.53932740069
  0
LWPOLYLINE
  5
118
330
17
100
AcDbEntity
  8
Madeira
 62
126
370
18
100
AcDbPolyline
 90
4
 70
1
 10
4372.644995620212
 20
9249.139327400697
 10
4372.644995620212
 20
9253.53932740069
 10
4382.644995620212
 20
9253.53932740069
 10
4382.644995620212
 20
9249.139327400697
  0
LWPOLYLINE
  5
119
330
17
100
AcDbEntity
  8
Painéis
 62
200
370
25
100
AcDbPolyline
 90
4
 70
1
 10
4404.644995620222
 20
9367.139327400693
 10
4400.644995620223
 20
9367.139327400693
 10
4400.644995620212
 20
9249.139327400697
 10
4404.644995620212
 20
9249.139327400697
  0
LWPOLYLINE
  5
11A
330
17
100
AcDbEntity
  8
Painéis
 62
200
370
25
100
AcDbPolyline
 90
4
 70
1
 10
4372.644995620212
 20
9329.139327400673
 10
4372.644995620212
 20
9333.139327400671
 10
4317.044995620235
 20
9333.139327400664
 10
4317.044995620235
 20
9329.139327400666
  0
LWPOLYLINE
  5
11B
330
17
100
AcDbEntity
  8
CONCRETO
 62
251
370
25
100
AcDbPolyline
 90
8
 70
1
 10
4317.044995620235
 20
9333.139327400664
 10
4317.044995620235
 20
9353.139327400695
 10
4372.644995620212
 20
9353.139327400695
 10
4372.644995620212
 20
9367.139327400693
 10
4400.644995620154
 20
9367.139327400693
 10
4400.644995620154
 20
9257.139327400695
 10
4372.644995620212
 20
9257.139327400695
 10
4372.644995620212
 20
9333.139327400671
  0
LWPOLYLINE
  5
11C
330
17
100
AcDbEntity
  8
Painéis
 62
200
370
25
100
AcDbPolyline
 90
4
 70
1
 10
4369.044995620206
 20
9367.139327400693
 10
4372.644995620212
 20
9367.139327400693
 10
4372.644995620212
 20
9353.139327400695
 10
4369.044995620206
 20
9353.139327400695
  0
LWPOLYLINE
  5
11D
330
17
100
AcDbEntity
  8
Madeira
 62
126
370
18
100
AcDbPolyline
 90
4
 70
1
 10
4364.644995620213
 20
9353.139327400695
 10
4369.044995620206
 20
9353.139327400695
 10
4369.044995620206
 20
9367.139327400693
 10
4364.644995620213
 20
9367.139327400693
  0
LWPOLYLINE
  5
11E
330
17
100
AcDbEntity
  8
Painéis
 62
200
370
25
100
AcDbPolyline
 90
4
 70
1
 10
4580.611248186152
 20
9449.635324250848
 10
4975.611248186153
 20
9449.635324250848
 10
4975.611248186153
 20
9456.635324250848
 10
4580.611248186152
 20
9456.635324250848
  0
LWPOLYLINE
  5
11F
330
17
100
AcDbEntity
  8
Painéis
 62
200
370
25
100
AcDbPolyline
 90
4
 70
1
 10
4998.028302099996
 20
9449.635324250848
 10
5387.028302099996
 20
9449.635324250848
 10
5387.028302099996
 20
9456.635324250848
 10
4998.028302099996
 20
9456.635324250848
  0
LWPOLYLINE
  5
120
330
17
100
AcDbEntity
  8
Painéis
 62
200
370
25
100
AcDbPolyline
 90
4
 70
1
 10
4580.611248186152
 20
9260.87847047513
 10
4951.611248186153
 20
9260.87847047513
 10
4951.611248186153
 20
9267.87847047513
 10
4580.611248186152
 20
9267.87847047513
  0
LWPOLYLINE
  5
121
330
17
100
AcDbEntity
  8
Madeira
 62
126
370
18
100
AcDbPolyline
 90
4
 70
1
 10
4364.244995620218
 20
9315.139327400673
 10
4368.644995620212
 20
9315.139327400673
 10
4368.644995620212
 20
9329.139327400673
 10
4364.244995620218
 20
9329.139327400673
  0
LWPOLYLINE
  5
122
330
17
100
AcDbEntity
  8
Madeira
 62
126
370
18
100
AcDbPolyline
 90
4
 70
1
 10
4404.644995620222
 20
9353.139327400695
 10
4409.044995620217
 20
9353.139327400695
 10
4409.044995620217
 20
9367.139327400693
 10
4404.644995620222
 20
9367.139327400693
  0
LWPOLYLINE
  5
123
330
17
100
AcDbEntity
  8
Madeira
 62
126
370
18
100
AcDbPolyline
 90
4
 70
1
 10
4404.644995620218
 20
9305.109384929003
 10
4409.044995620212
 20
9305.109384929003
 10
4409.044995620212
 20
9319.109384929001
 10
4404.644995620218
 20
9319.109384929001
  0
LWPOLYLINE
  5
124
330
17
100
AcDbEntity
  8
Madeira
 62
126
370
18
100
AcDbPolyline
 90
4
 70
1
 10
4404.644995620212
 20
9249.139327400697
 10
4409.044995620206
 20
9249.139327400697
 10
4409.044995620206
 20
9263.139327400695
 10
4404.644995620212
 20
9263.139327400695
  0
LWPOLYLINE
  5
125
330
17
100
AcDbEntity
  8
Madeira
 62
126
370
18
100
AcDbPolyline
 90
4
 70
1
 10
4364.244995620218
 20
9249.139327400697
 10
4368.644995620212
 20
9249.139327400697
 10
4368.644995620212
 20
9263.139327400695
 10
4364.244995620218
 20
9263.139327400695
  0
LWPOLYLINE
  5
126
330
17
100
AcDbEntity
  8
SARR_3.5x7
 62
81
370
25
100
AcDbPolyline
 90
4
 70
1
 10
4350.244995620078
 20
9324.739327400684
 10
4364.244995620078
 20
9324.739327400684
 10
4364.244995620206
 20
9172.661113994878
 10
4350.244995620206
 20
9172.661113994878
  0
LWPOLYLINE
  5
127
330
17
100
AcDbEntity
  8
SARR_3.5x7
 62
81
370
25
100
AcDbPolyline
 90
4
 70
1
 10
4423.044995620364
 20
9362.739327400708
 10
4409.044995620365
 20
9362.739327400708
 10
4409.044995620218
 20
9172.661113994878
 10
4423.044995620219
 20
9172.661113994878
  0
LWPOLYLINE
  5
128
330
17
100
AcDbEntity
  8
SARR_3.5x7
 62
81
370
25
100
AcDbPolyline
 90
4
 70
1
 10
4350.244995620065
 20
9249.139327400682
 10
4423.044995620265
 20
9249.139327400682
 10
4423.044995620265
 20
9219.081265796684
 10
4350.244995620065
 20
9219.081265796685
  0
LWPOLYLINE
  5
129
330
17
100
AcDbEntity
  8
Madeira
 62
126
370
18
100
AcDbPolyline
 90
4
 70
1
 10
4364.244995620218
 20
9282.139327400682
 10
4368.644995620212
 20
9282.139327400682
 10
4368.644995620212
 20
9296.139327400684
 10
4364.244995620218
 20
9296.139327400684
  0
LWPOLYLINE
  5
12A
330
17
100
AcDbEntity
  8
COTA
 62
0
370
25
100
AcDbPolyline
 90
2
 70
0
 10
4454.267947616358
 20
9251.639327400708
 10
4459.267947616358
 20
9246.639327400708
  0
LWPOLYLINE
  5
12B
330
17
100
AcDbEntity
  8
COTA
 62
0
370
25
100
AcDbPolyline
 90
2
 70
0
 10
4459.267947616358
 20
9364.639327400699
 10
4454.267947616358
 20
9369.639327400699
  0
LWPOLYLINE
  5
12C
330
17
100
AcDbEntity
  8
COTA
 62
0
370
25
100
AcDbPolyline
 90
2
 70
0
 10
4286.487701016426
 20
9350.639327400699
 10
4281.487701016426
 20
9355.639327400699
  0
LWPOLYLINE
  5
12D
330
17
100
AcDbEntity
  8
COTA
 62
0
370
25
100
AcDbPolyline
 90
2
 70
0
 10
4281.487701016426
 20
9335.639327400671
 10
4286.487701016426
 20
9330.639327400671
  0
LWPOLYLINE
  5
12E
330
17
100
AcDbEntity
  8
COTA
 62
0
370
25
100
AcDbPolyline
 90
2
 70
0
 10
4286.487701016754
 20
9326.63932740067
 10
4281.487701016754
 20
9331.63932740067
  0
LWPOLYLINE
  5
12F
330
17
100
AcDbEntity
  8
COTA
 62
0
370
25
100
AcDbPolyline
 90
2
 70
0
 10
4281.487701016754
 20
9251.639327400699
 10
4286.487701016754
 20
9246.639327400699
  0
LWPOLYLINE
  5
130
330
17
100
AcDbEntity
  8
COTA
 62
0
370
25
100
AcDbPolyline
 90
2
 70
0
 10
4375.144995620212
 20
9206.912513598505
 10
4370.144995620212
 20
9201.912513598505
  0
LWPOLYLINE
  5
131
330
17
100
AcDbEntity
  8
COTA
 62
0
370
25
100
AcDbPolyline
 90
2
 70
0
 10
4398.144995620212
 20
9201.912513598505
 10
4403.144995620212
 20
9206.912513598505
  0
LWPOLYLINE
  5
132
330
17
100
AcDbEntity
  8
COTA
 62
0
370
25
100
AcDbPolyline
 90
2
 70
0
 10
4281.487701016431
 20
9355.639327400699
 10
4286.487701016431
 20
9350.639327400699
  0
LWPOLYLINE
  5
133
330
17
100
AcDbEntity
  8
COTA
 62
0
370
25
100
AcDbPolyline
 90
2
 70
0
 10
4286.487701016431
 20
9364.639327400699
 10
4281.487701016431
 20
9369.639327400699
  0
TEXT
  5
134
330
17
100
AcDbEntity
  8
detalhes
 62
4
370
25
100
AcDbText
 10
4414.340615164386
 20
9307.362310376073
 30
0.0
 40
9.600000000000001
  1
b
100
AcDbText
  0
TEXT
  5
135
330
17
100
AcDbEntity
  8
detalhes
 62
4
370
25
100
AcDbText
 10
4358.389901634184
 20
9278.823344125449
 30
0.0
 40
9.600000000000001
  1
a
100
AcDbText
  0
TEXT
  5
136
330
17
100
AcDbEntity
  8
detalhes
 62
4
370
25
100
AcDbText
 10
4383.245261235657
 20
9259.375080920534
 30
0.0
 40
9.600000000000001
  1
c
100
AcDbText
  0
TEXT
  5
137
330
17
100
AcDbEntity
  8
5
 62
5
370
25
100
AcDbText
 10
4575.67093674953
 20
9351.581425313836
 30
0.0
 40
12.0
  1
P1
 50
3.55024762388e-05
100
AcDbText
  0
TEXT
  5
138
330
17
100
AcDbEntity
  8
5
 62
5
370
25
100
AcDbText
 10
4977.286073564635
 20
9351.581425313836
 30
0.0
 40
12.0
  1
P2
 50
3.55024762388e-05
100
AcDbText
  0
TEXT
  5
139
330
17
100
AcDbEntity
  8
5
 62
5
370
25
100
AcDbText
 10
5384.221366526016
 20
9351.581425313836
 30
0.0
 40
12.0
  1
P3
 50
3.55024762388e-05
100
AcDbText
  0
TEXT
  5
13A
330
17
100
AcDbEntity
  8
5
 62
5
370
25
100
AcDbText
 10
4575.67093674953
 20
9136.594498714469
 30
0.0
 40
12.0
  1
P3
 50
3.55024762388e-05
100
AcDbText
  0
TEXT
  5
13B
330
17
100
AcDbEntity
  8
5
 62
5
370
25
100
AcDbText
 10
4922.315343403567
 20
9138.129919530678
 30
0.0
 40
12.0
  1
P9
 50
3.55024762388e-05
100
AcDbText
  0
TEXT
  5
13C
330
17
100
AcDbEntity
  8
Texto Seção
 62
7
370
15
100
AcDbText
 10
4586.244080097088
 20
9461.31772398636
 30
0.0
 40
13.0
  1
VF51.A
100
AcDbText
  0
TEXT
  5
13D
330
17
100
AcDbEntity
  8
Texto Seção
 62
7
370
15
100
AcDbText
 10
4585.844080097089
 20
9272.560870210638
 30
0.0
 40
13.0
  1
CONT. VF51.A
100
AcDbText
  0
TEXT
  5
13E
330
17
100
AcDbEntity
  8
5
 62
5
370
25
100
AcDbText
 10
4575.67093674953
 20
8933.810842811738
 30
0.0
 40
12.0
  1
P9
 50
3.55024762388e-05
100
AcDbText
  0
TEXT
  5
13F
330
17
100
AcDbEntity
  8
5
 62
5
370
25
100
AcDbText
 10
5376.843146721654
 20
8933.810842811738
 30
0.0
 40
12.0
  1
P1
 50
3.55024762388e-05
100
AcDbText
  0
TEXT
  5
140
330
17
100
AcDbEntity
  8
Texto Seção
 62
7
370
15
100
AcDbText
 10
4585.844080097089
 20
9048.353640435958
 30
0.0
 40
13.0
  1
VF51.B
100
AcDbText
  0
TEXT
  5
141
330
17
100
AcDbEntity
  8
COTA
 62
1
370
25
100
AcDbText
 10
4465.267947616361
 20
9308.139327400699
 30
0.0
 40
7.0
  1
59
 50
90.0
100
AcDbText
  0
TEXT
  5
142
330
17
100
AcDbEntity
  8
Cota Seção (2x)
 62
1
370
25
100
AcDbText
 10
4403.144995620205
 20
9327.139327400644
 30
0.0
 40
7.0
  1
55
 50
90.0
100
AcDbText
  0
TEXT
  5
143
330
17
100
AcDbEntity
  8
COTA
 62
1
370
25
100
AcDbText
 10
4292.487701016428
 20
9343.13932740068
 30
0.0
 40
7.0
  1
10
 50
90.0
100
AcDbText
  0
TEXT
  5
144
330
17
100
AcDbEntity
  8
COTA
 62
1
370
25
100
AcDbText
 10
4292.487701016755
 20
9289.13932740068
 30
0.0
 40
7.0
  1
40
 50
90.0
100
AcDbText
  0
TEXT
  5
145
330
17
100
AcDbEntity
  8
COTA
 62
1
370
25
100
AcDbText
 10
4386.644995620212
 20
9209.912513598505
 30
0.0
 40
7.0
  1
14
100
AcDbText
  0
TEXT
  5
146
330
17
100
AcDbEntity
  8
Cota Seção (2x)
 62
1
370
25
100
AcDbText
 10
4381.644995620183
 20
9276.639327400697
 30
0.0
 40
7.0
  1
14
100
AcDbText
  0
TEXT
  5
147
330
17
100
AcDbEntity
  8
COTA
 62
1
370
25
100
AcDbText
 10
4292.487701016433
 20
9360.139327400695
 30
0.0
 40
7.0
  1
7
 50
90.0
100
AcDbText
  0
TEXT
  5
148
330
17
100
AcDbEntity
  8
COTA
 62
240
370
25
100
AcDbText
 10
4702.611248186157
 20
9379.168497687897
 30
0.0
 40
10.0
  1
244
100
AcDbText
  0
TEXT
  5
149
330
17
100
AcDbEntity
  8
COTA
 62
240
370
25
100
AcDbText
 10
4900.111248186158
 20
9379.205047395511
 30
0.0
 40
10.0
  1
151
100
AcDbText
  0
TEXT
  5
14A
330
17
100
AcDbEntity
  8
Painéis
 62
240
370
25
100
AcDbText
 10
5428.271725902743
 20
9417.635324250852
 30
0.0
 40
10.0
  1
40
 50
90.0
100
AcDbText
  0
TEXT
  5
14B
330
17
100
AcDbEntity
  8
Painéis
 62
240
370
25
100
AcDbText
 10
5428.315585551848
 20
9443.635324250852
 30
0.0
 40
10.0
  1
12
 50
90.0
100
AcDbText
  0
TEXT
  5
14C
330
17
100
AcDbEntity
  8
Painéis
 62
240
370
25
100
AcDbText
 10
5428.300965668818
 20
9465.500821326876
 30
0.0
 40
10.0
  1
7
 50
90.0
100
AcDbText
  0
TEXT
  5
14D
330
17
100
AcDbEntity
  8
Painéis
 62
240
370
25
100
AcDbText
 10
5454.22921464608
 20
9427.135324250852
 30
0.0
 40
10.0
  1
59
 50
90.0
100
AcDbText
  0
TEXT
  5
14E
330
17
100
AcDbEntity
  8
COTA
 62
240
370
25
100
AcDbText
 10
5120.028302100002
 20
9379.168497687897
 30
0.0
 40
10.0
  1
244
100
AcDbText
  0
TEXT
  5
14F
330
17
100
AcDbEntity
  8
COTA
 62
240
370
25
100
AcDbText
 10
5314.528302100001
 20
9379.205047395511
 30
0.0
 40
10.0
  1
145
100
AcDbText
  0
TEXT
  5
150
330
17
100
AcDbEntity
  8
COTA
 62
240
370
25
100
AcDbText
 10
4702.611248186157
 20
9190.41164391218
 30
0.0
 40
10.0
  1
244
100
AcDbText
  0
TEXT
  5
151
330
17
100
AcDbEntity
  8
COTA
 62
240
370
25
100
AcDbText
 10
4888.111248186159
 20
9190.411643912192
 30
0.0
 40
10.0
  1
127
100
AcDbText
  0
TEXT
  5
152
330
17
100
AcDbEntity
  8
Painéis
 62
240
370
25
100
AcDbText
 10
4993.974521411067
 20
9228.878470475136
 30
0.0
 40
10.0
  1
40
 50
90.0
100
AcDbText
  0
TEXT
  5
153
330
17
100
AcDbEntity
  8
Painéis
 62
240
370
25
100
AcDbText
 10
4994.018381060165
 20
9254.878470475134
 30
0.0
 40
10.0
  1
12
 50
90.0
100
AcDbText
  0
TEXT
  5
154
330
17
100
AcDbEntity
  8
Painéis
 62
240
370
25
100
AcDbText
 10
4994.003761177142
 20
9276.743967551158
 30
0.0
 40
10.0
  1
7
 50
90.0
100
AcDbText
  0
TEXT
  5
155
330
17
100
AcDbEntity
  8
Painéis
 62
240
370
25
100
AcDbText
 10
5019.932010154404
 20
9238.378470475134
 30
0.0
 40
10.0
  1
59
 50
90.0
100
AcDbText
  0
TEXT
  5
156
330
17
100
AcDbEntity
  8
Painéis
 62
240
370
25
100
AcDbText
 10
4766.111248186152
 20
9163.771511326491
 30
0.0
 40
10.0
  1
6X
100
AcDbText
  0
TEXT
  5
157
330
17
100
AcDbEntity
  8
COTA
 62
240
370
25
100
AcDbText
 10
4702.611248186157
 20
8966.204414137512
 30
0.0
 40
10.0
  1
244
100
AcDbText
  0
TEXT
  5
158
330
17
100
AcDbEntity
  8
COTA
 62
240
370
25
100
AcDbText
 10
4946.611248186158
 20
8966.204414137512
 30
0.0
 40
10.0
  1
244
100
AcDbText
  0
TEXT
  5
159
330
17
100
AcDbEntity
  8
COTA
 62
240
370
25
100
AcDbText
 10
4946.611248186158
 20
8932.15286248404
 30
0.0
 40
10.0
  1
12X
100
AcDbText
  0
TEXT
  5
15A
330
17
100
AcDbEntity
  8
Painéis
 62
240
370
25
100
AcDbText
 10
5424.986731542132
 20
9014.171240700474
 30
0.0
 40
10.0
  1
59
 50
90.0
100
AcDbText
  0
TEXT
  5
15B
330
17
100
AcDbEntity
  8
Painéis
 62
240
370
25
100
AcDbText
 10
5287.611248186158
 20
8966.233653903591
 30
0.0
 40
10.0
  1
194
100
AcDbText
  0
TEXT
  5
15C
330
17
100
AcDbEntity
  8
00 - FELIPE
 62
240
370
25
100
AcDbText
 10
5129.611248186158
 20
8966.189794254473
 30
0.0
 40
10.0
  1
122
100
AcDbText
  0
TEXT
  5
15D
330
17
100
AcDbEntity
  8
Texto Seção
 62
3
370
15
100
AcDbText
 10
4383.84499562021
 20
9438.588091773667
 30
0.0
 40
17.0
  1

100
AcDbText
  0
TEXT
  5
15E
330
17
100
AcDbEntity
  8
Texto Seção
 62
3
370
15
100
AcDbText
 10
4383.84499562021
 20
9408.687507129345
 30
0.0
 40
12.0
  1

100
AcDbText
  0
TEXT
  5
15F
330
17
100
AcDbEntity
  8
Texto Seção
 62
7
370
15
100
AcDbText
 10
4383.84499562021
 20
9382.71607824086
 30
0.0
 40
10.0
  1

100
AcDbText
  0
HATCH
  5
160
330
17
100
AcDbEntity
  8
Hachura
 62
7
100
AcDbHatch
 10
0.0
 20
0.0
 30
0.0
210
0.0
220
0.0
230
1.0
  2
SOLID
 70
1
 71
0
 91
1
 92
3
 72
0
 73
1
 93
5
 10
4372.644995620212
 20
9329.139327400673
 10
4368.644995620212
 20
9329.139327400673
 10
4368.644995620212
 20
9249.139327400697
 10
4372.644995620212
 20
9249.139327400697
 10
4372.644995620212
 20
9329.139327400673
 97
0
 75
1
 76
1
 98
0
  0
HATCH
  5
161
330
17
100
AcDbEntity
  8
Hachura
 62
7
100
AcDbHatch
 10
0.0
 20
0.0
 30
0.0
210
0.0
220
0.0
230
1.0
  2
ANSI31
 70
0
 71
0
 91
1
 92
3
 72
0
 73
1
 93
5
 10
4400.644995620212
 20
9249.139327400697
 10
4400.644995620212
 20
9253.53932740069
 10
4390.644995620212
 20
9253.53932740069
 10
4390.644995620212
 20
9249.139327400697
 10
4400.644995620212
 20
9249.139327400697
 97
0
 75
1
 76
1
 52
0.0
 41
1.0
 77
0
 78
1
 53
45.0
 43
0.0
 44
0.0
 45
-2.2450640303
 46
2.2450640303
 79
0
 98
0
  0
HATCH
  5
162
330
17
100
AcDbEntity
  8
Hachura
 62
7
100
AcDbHatch
 10
0.0
 20
0.0
 30
0.0
210
0.0
220
0.0
230
1.0
  2
SOLID
 70
1
 71
0
 91
1
 92
3
 72
0
 73
1
 93
5
 10
4400.644995620212
 20
9253.53932740069
 10
4400.644995620212
 20
9257.139327400695
 10
4372.644995620212
 20
9257.139327400695
 10
4372.644995620212
 20
9253.53932740069
 10
4400.644995620212
 20
9253.53932740069
 97
0
 75
1
 76
1
 98
0
  0
HATCH
  5
163
330
17
100
AcDbEntity
  8
Hachura
 62
7
100
AcDbHatch
 10
0.0
 20
0.0
 30
0.0
210
0.0
220
0.0
230
1.0
  2
ANSI31
 70
0
 71
0
 91
1
 92
3
 72
0
 73
1
 93
5
 10
4372.644995620212
 20
9249.139327400697
 10
4372.644995620212
 20
9253.53932740069
 10
4382.644995620212
 20
9253.53932740069
 10
4382.644995620212
 20
9249.139327400697
 10
4372.644995620212
 20
9249.139327400697
 97
0
 75
1
 76
1
 52
0.0
 41
1.0
 77
0
 78
1
 53
45.0
 43
0.0
 44
0.0
 45
-2.2450640303
 46
2.2450640303
 79
0
 98
0
  0
HATCH
  5
164
330
17
100
AcDbEntity
  8
Hachura
 62
7
100
AcDbHatch
 10
0.0
 20
0.0
 30
0.0
210
0.0
220
0.0
230
1.0
  2
SOLID
 70
1
 71
0
 91
1
 92
3
 72
0
 73
1
 93
5
 10
4404.644995620212
 20
9367.139327400693
 10
4400.64499562021
 20
9367.139327400693
 10
4400.644995620212
 20
9249.139327400697
 10
4404.644995620212
 20
9249.139327400697
 10
4404.644995620212
 20
9367.139327400693
 97
0
 75
1
 76
1
 98
0
  0
HATCH
  5
165
330
17
100
AcDbEntity
  8
Hachura
 62
7
100
AcDbHatch
 10
0.0
 20
0.0
 30
0.0
210
0.0
220
0.0
230
1.0
  2
SOLID
 70
1
 71
0
 91
1
 92
3
 72
0
 73
1
 93
5
 10
4372.644995620212
 20
9329.139327400673
 10
4372.644995620212
 20
9333.139327400671
 10
4317.044995620235
 20
9333.139327400664
 10
4317.044995620235
 20
9329.139327400666
 10
4372.644995620212
 20
9329.139327400673
 97
0
 75
1
 76
1
 98
0
  0
HATCH
  5
166
330
17
100
AcDbEntity
  8
Hachura
 62
7
100
AcDbHatch
 10
0.0
 20
0.0
 30
0.0
210
0.0
220
0.0
230
1.0
  2
SOLID
 70
1
 71
0
 91
1
 92
3
 72
0
 73
1
 93
5
 10
4369.044995620206
 20
9367.139327400693
 10
4372.644995620212
 20
9367.139327400693
 10
4372.644995620212
 20
9353.139327400695
 10
4369.044995620206
 20
9353.139327400695
 10
4369.044995620206
 20
9367.139327400693
 97
0
 75
1
 76
1
 98
0
  0
HATCH
  5
167
330
17
100
AcDbEntity
  8
Hachura
 62
7
100
AcDbHatch
 10
0.0
 20
0.0
 30
0.0
210
0.0
220
0.0
230
1.0
  2
ANSI31
 70
0
 71
0
 91
1
 92
3
 72
0
 73
1
 93
5
 10
4364.644995620213
 20
9353.139327400695
 10
4369.044995620206
 20
9353.139327400695
 10
4369.044995620206
 20
9367.139327400693
 10
4364.644995620213
 20
9367.139327400693
 10
4364.644995620213
 20
9353.139327400695
 97
0
 75
1
 76
1
 52
0.0
 41
1.0
 77
0
 78
1
 53
45.0
 43
0.0
 44
0.0
 45
-2.2450640303
 46
2.2450640303
 79
0
 98
0
  0
HATCH
  5
168
330
17
100
AcDbEntity
  8
COTA
 62
7
100
AcDbHatch
 10
0.0
 20
0.0
 30
0.0
210
0.0
220
0.0
230
1.0
  2
AR-CONC
 70
0
 71
0
 91
1
 92
3
 72
0
 73
1
 93
5
 10
5387.028302099996
 20
9449.635324250848
 10
4998.028302099996
 20
9449.635324250848
 10
4998.028302099996
 20
9437.635324250848
 10
5387.028302099996
 20
9437.635324250876
 10
5387.028302099996
 20
9449.635324250848
 97
0
 75
1
 76
1
 52
0.0
 41
1.0
 77
0
 78
13
 53
50.0
 43
0.0
 44
0.0
 45
182.184668996
 46
-15.9390855389
 79
2
 49
19.05
 49
-209.55
 53
355.0
 43
0.0
 44
0.0
 45
-35.243421425
 46
191.056845239
 79
2
 49
15.24
 49
-167.64058417
 53
100.4514447
 43
15.182007
 44
-1.3282535
 45
146.9412470904
 46
175.1177519122
 79
2
 49
16.1900088
 49
-178.0902446
 53
46.1842
 43
0.0
 44
50.8
 45
271.0790408921
 46
-42.0423279327
 79
2
 49
28.575
 49
-314.325
 53
96.63555761
 43
22.5899
 44
47.2965
 45
237.4041340515
 46
247.4261245977
 79
2
 49
24.28502314
 49
-267.13560816
 53
351.18415117
 43
0.0
 44
50.8
 45
237.404134065
 46
247.4261245855
 79
2
 49
22.85996707
 49
-251.45973192
 53
21.0
 43
25.4
 44
38.1
 45
151.6143912691
 46
-102.2651981871
 79
2
 49
19.05
 49
-209.55
 53
326.0
 43
25.4
 44
38.1
 45
61.8020283476
 46
184.1879661223
 79
2
 49
15.24
 49
-167.64
 53
71.451445
 43
38.0345326
 44
29.5779001
 45
213.4164192787
 46
81.9227688859
 79
2
 49
16.1900088
 49
-178.0899376
 53
37.5
 43
0.0
 44
0.0
 45
3.0886032506
 46
84.5550388732
 79
6
 49
0.0
 49
-165.608
 49
0.0
 49
-170.18
 49
0.0
 49
-168.275
 53
7.5
 43
0.0
 44
0.0
 45
66.8196625103
 46
100.1805748181
 79
6
 49
0.0
 49
-97.028
 49
0.0
 49
-161.798
 49
0.0
 49
-64.135
 53
-32.5
 43
-56.642
 44
0.0
 45
135.5905951669
 46
-5.7287439927
 79
6
 49
0.0
 49
-63.5
 49
0.0
 49
-198.12
 49
0.0
 49
-262.89
 53
-42.5
 43
-82.042
 44
0.0
 45
148.129181386
 46
25.4264910333
 79
6
 49
0.0
 49
-82.55
 49
0.0
 49
-131.572
 49
0.0
 49
-186.69
 98
0
  0
HATCH
  5
169
330
17
100
AcDbEntity
  8
COTA
 62
7
100
AcDbHatch
 10
0.0
 20
0.0
 30
0.0
210
0.0
220
0.0
230
1.0
  2
AR-CONC
 70
0
 71
0
 91
1
 92
3
 72
0
 73
1
 93
5
 10
4951.611248186153
 20
9248.878470475152
 10
4951.611248186153
 20
9260.878470475129
 10
4580.611248186152
 20
9260.87847047513
 10
4580.611248186152
 20
9248.878470475132
 10
4951.611248186153
 20
9248.878470475152
 97
0
 75
1
 76
1
 52
0.0
 41
1.0
 77
0
 78
13
 53
50.0
 43
0.0
 44
0.0
 45
182.184668996
 46
-15.9390855389
 79
2
 49
19.05
 49
-209.55
 53
355.0
 43
0.0
 44
0.0
 45
-35.243421425
 46
191.056845239
 79
2
 49
15.24
 49
-167.64058417
 53
100.4514447
 43
15.182007
 44
-1.3282535
 45
146.9412470904
 46
175.1177519122
 79
2
 49
16.1900088
 49
-178.0902446
 53
46.1842
 43
0.0
 44
50.8
 45
271.0790408921
 46
-42.0423279327
 79
2
 49
28.575
 49
-314.325
 53
96.63555761
 43
22.5899
 44
47.2965
 45
237.4041340515
 46
247.4261245977
 79
2
 49
24.28502314
 49
-267.13560816
 53
351.18415117
 43
0.0
 44
50.8
 45
237.404134065
 46
247.4261245855
 79
2
 49
22.85996707
 49
-251.45973192
 53
21.0
 43
25.4
 44
38.1
 45
151.6143912691
 46
-102.2651981871
 79
2
 49
19.05
 49
-209.55
 53
326.0
 43
25.4
 44
38.1
 45
61.8020283476
 46
184.1879661223
 79
2
 49
15.24
 49
-167.64
 53
71.451445
 43
38.0345326
 44
29.5779001
 45
213.4164192787
 46
81.9227688859
 79
2
 49
16.1900088
 49
-178.0899376
 53
37.5
 43
0.0
 44
0.0
 45
3.0886032506
 46
84.5550388732
 79
6
 49
0.0
 49
-165.608
 49
0.0
 49
-170.18
 49
0.0
 49
-168.275
 53
7.5
 43
0.0
 44
0.0
 45
66.8196625103
 46
100.1805748181
 79
6
 49
0.0
 49
-97.028
 49
0.0
 49
-161.798
 49
0.0
 49
-64.135
 53
-32.5
 43
-56.642
 44
0.0
 45
135.5905951669
 46
-5.7287439927
 79
6
 49
0.0
 49
-63.5
 49
0.0
 49
-198.12
 49
0.0
 49
-262.89
 53
-42.5
 43
-82.042
 44
0.0
 45
148.129181386
 46
25.4264910333
 79
6
 49
0.0
 49
-82.55
 49
0.0
 49
-131.572
 49
0.0
 49
-186.69
 98
0
  0
HATCH
  5
16A
330
17
100
AcDbEntity
  8
Hachura
 62
7
100
AcDbHatch
 10
0.0
 20
0.0
 30
0.0
210
0.0
220
0.0
230
1.0
  2
ANSI31
 70
0
 71
0
 91
1
 92
3
 72
0
 73
1
 93
5
 10
4364.244995620218
 20
9315.139327400673
 10
4368.644995620212
 20
9315.139327400673
 10
4368.644995620212
 20
9329.139327400673
 10
4364.244995620218
 20
9329.139327400673
 10
4364.244995620218
 20
9315.139327400673
 97
0
 75
1
 76
1
 52
0.0
 41
1.0
 77
0
 78
1
 53
45.0
 43
0.0
 44
0.0
 45
-2.2450640303
 46
2.2450640303
 79
0
 98
0
  0
HATCH
  5
16B
330
17
100
AcDbEntity
  8
Hachura
 62
7
100
AcDbHatch
 10
0.0
 20
0.0
 30
0.0
210
0.0
220
0.0
230
1.0
  2
ANSI31
 70
0
 71
0
 91
1
 92
3
 72
0
 73
1
 93
5
 10
4404.644995620222
 20
9353.139327400695
 10
4409.044995620217
 20
9353.139327400695
 10
4409.044995620217
 20
9367.139327400693
 10
4404.644995620222
 20
9367.139327400693
 10
4404.644995620222
 20
9353.139327400695
 97
0
 75
1
 76
1
 52
0.0
 41
1.0
 77
0
 78
1
 53
45.0
 43
0.0
 44
0.0
 45
-2.2450640303
 46
2.2450640303
 79
0
 98
0
  0
HATCH
  5
16C
330
17
100
AcDbEntity
  8
Hachura
 62
7
100
AcDbHatch
 10
0.0
 20
0.0
 30
0.0
210
0.0
220
0.0
230
1.0
  2
ANSI31
 70
0
 71
0
 91
1
 92
3
 72
0
 73
1
 93
5
 10
4404.644995620218
 20
9305.109384929003
 10
4409.044995620212
 20
9305.109384929003
 10
4409.044995620212
 20
9319.109384929001
 10
4404.644995620218
 20
9319.109384929001
 10
4404.644995620218
 20
9305.109384929003
 97
0
 75
1
 76
1
 52
0.0
 41
1.0
 77
0
 78
1
 53
45.0
 43
0.0
 44
0.0
 45
-2.2450640303
 46
2.2450640303
 79
0
 98
0
  0
HATCH
  5
16D
330
17
100
AcDbEntity
  8
Hachura
 62
7
100
AcDbHatch
 10
0.0
 20
0.0
 30
0.0
210
0.0
220
0.0
230
1.0
  2
ANSI31
 70
0
 71
0
 91
1
 92
3
 72
0
 73
1
 93
5
 10
4404.644995620212
 20
9249.139327400697
 10
4409.044995620206
 20
9249.139327400697
 10
4409.044995620206
 20
9263.139327400695
 10
4404.644995620212
 20
9263.139327400695
 10
4404.644995620212
 20
9249.139327400697
 97
0
 75
1
 76
1
 52
0.0
 41
1.0
 77
0
 78
1
 53
45.0
 43
0.0
 44
0.0
 45
-2.2450640303
 46
2.2450640303
 79
0
 98
0
  0
HATCH
  5
16E
330
17
100
AcDbEntity
  8
Hachura
 62
7
100
AcDbHatch
 10
0.0
 20
0.0
 30
0.0
210
0.0
220
0.0
230
1.0
  2
ANSI31
 70
0
 71
0
 91
1
 92
3
 72
0
 73
1
 93
5
 10
4364.244995620218
 20
9249.139327400697
 10
4368.644995620212
 20
9249.139327400697
 10
4368.644995620212
 20
9263.139327400695
 10
4364.244995620218
 20
9263.139327400695
 10
4364.244995620218
 20
9249.139327400697
 97
0
 75
1
 76
1
 52
0.0
 41
1.0
 77
0
 78
1
 53
45.0
 43
0.0
 44
0.0
 45
-2.2450640303
 46
2.2450640303
 79
0
 98
0
  0
HATCH
  5
16F
330
17
100
AcDbEntity
  8
Hachura
 62
7
100
AcDbHatch
 10
0.0
 20
0.0
 30
0.0
210
0.0
220
0.0
230
1.0
  2
ANSI31
 70
0
 71
0
 91
1
 92
3
 72
0
 73
1
 93
5
 10
4364.244995620218
 20
9282.139327400682
 10
4368.644995620212
 20
9282.139327400682
 10
4368.644995620212
 20
9296.139327400684
 10
4364.244995620218
 20
9296.139327400684
 10
4364.244995620218
 20
9282.139327400682
 97
0
 75
1
 76
1
 52
0.0
 41
1.0
 77
0
 78
1
 53
45.0
 43
0.0
 44
0.0
 45
-2.2450640303
 46
2.2450640303
 79
0
 98
0
  0
ENDSEC
  0
SECTION
  2
OBJECTS
  0
DICTIONARY
  5
A
330
0
100
AcDbDictionary
281
1
  3
ACAD_COLOR
350
B
  3
ACAD_GROUP
350
C
  3
ACAD_LAYOUT
350
D
  3
ACAD_MATERIAL
350
E
  3
ACAD_MLEADERSTYLE
350
F
  3
ACAD_MLINESTYLE
350
10
  3
ACAD_PLOTSETTINGS
350
11
  3
ACAD_PLOTSTYLENAME
350
12
  3
ACAD_SCALELIST
350
14
  3
ACAD_TABLESTYLE
350
15
  3
ACAD_VISUALSTYLE
350
16
  3
EZDXF_META
350
2D
  0
DICTIONARY
  5
B
330
A
100
AcDbDictionary
281
1
  0
DICTIONARY
  5
C
330
A
100
AcDbDictionary
281
1
  0
DICTIONARY
  5
D
330
A
100
AcDbDictionary
281
1
  3
Model
350
1A
  3
Layout1
350
1E
  0
DICTIONARY
  5
E
330
A
100
AcDbDictionary
281
1
  3
ByBlock
350
1F
  3
ByLayer
350
20
  3
Global
350
21
  0
DICTIONARY
  5
F
330
A
100
AcDbDictionary
281
1
  3
Standard
350
2C
  0
DICTIONARY
  5
10
330
A
100
AcDbDictionary
281
1
  3
Standard
350
22
  0
DICTIONARY
  5
11
330
A
100
AcDbDictionary
281
1
  0
ACDBDICTIONARYWDFLT
  5
12
330
A
100
AcDbDictionary
281
1
  3
Normal
350
13
100
AcDbDictionaryWithDefault
340
13
  0
ACDBPLACEHOLDER
  5
13
330
12
  0
DICTIONARY
  5
14
330
A
100
AcDbDictionary
281
1
  0
DICTIONARY
  5
15
330
A
100
AcDbDictionary
281
1
  0
DICTIONARY
  5
16
330
A
100
AcDbDictionary
281
1
  0
LAYOUT
  5
1A
330
D
100
AcDbPlotSettings
  1

  4
A3
  6

 40
7.5
 41
20.0
 42
7.5
 43
20.0
 44
420.0
 45
297.0
 46
0.0
 47
0.0
 48
0.0
 49
0.0
140
0.0
141
0.0
142
1.0
143
1.0
 70
1024
 72
1
 73
0
 74
5
  7

 75
16
 76
0
 77
2
 78
300
147
1.0
148
0.0
149
0.0
100
AcDbLayout
  1
Model
 70
1
 71
0
 10
0.0
 20
0.0
 11
420.0
 21
297.0
 12
0.0
 22
0.0
 32
0.0
 14
1e+20
 24
1e+20
 34
1e+20
 15
-1e+20
 25
-1e+20
 35
-1e+20
146
0.0
 13
0.0
 23
0.0
 33
0.0
 16
1.0
 26
0.0
 36
0.0
 17
0.0
 27
1.0
 37
0.0
 76
1
330
17
  0
LAYOUT
  5
1E
330
D
100
AcDbPlotSettings
  1

  4
A3
  6

 40
7.5
 41
20.0
 42
7.5
 43
20.0
 44
420.0
 45
297.0
 46
0.0
 47
0.0
 48
0.0
 49
0.0
140
0.0
141
0.0
142
1.0
143
1.0
 70
0
 72
1
 73
0
 74
5
  7

 75
16
 76
0
 77
2
 78
300
147
1.0
148
0.0
149
0.0
100
AcDbLayout
  1
Layout1
 70
1
 71
1
 10
0.0
 20
0.0
 11
420.0
 21
297.0
 12
0.0
 22
0.0
 32
0.0
 14
1e+20
 24
1e+20
 34
1e+20
 15
-1e+20
 25
-1e+20
 35
-1e+20
146
0.0
 13
0.0
 23
0.0
 33
0.0
 16
1.0
 26
0.0
 36
0.0
 17
0.0
 27
1.0
 37
0.0
 76
1
330
1B
  0
MATERIAL
  5
1F
102
{ACAD_REACTORS
330
E
102
}
330
E
100
AcDbMaterial
  1
ByBlock
  2

 70
0
 40
1.0
 71
1
 41
1.0
 91
-1023410177
 42
1.0
 72
1
  3

 73
1
 74
1
 75
1
 44
0.5
 73
0
 45
1.0
 46
1.0
 77
1
  4

 78
1
 79
1
170
1
 48
1.0
171
1
  6

172
1
173
1
174
1
140
1.0
141
1.0
175
1
  7

176
1
177
1
178
1
143
1.0
179
1
  8

270
1
271
1
272
1
145
1.0
146
1.0
273
1
  9

274
1
275
1
276
1
 42
1.0
 72
1
  3

 73
1
 74
1
 75
1
 94
63
  0
MATERIAL
  5
20
102
{ACAD_REACTORS
330
E
102
}
330
E
100
AcDbMaterial
  1
ByLayer
  2

 70
0
 40
1.0
 71
1
 41
1.0
 91
-1023410177
 42
1.0
 72
1
  3

 73
1
 74
1
 75
1
 44
0.5
 73
0
 45
1.0
 46
1.0
 77
1
  4

 78
1
 79
1
170
1
 48
1.0
171
1
  6

172
1
173
1
174
1
140
1.0
141
1.0
175
1
  7

176
1
177
1
178
1
143
1.0
179
1
  8

270
1
271
1
272
1
145
1.0
146
1.0
273
1
  9

274
1
275
1
276
1
 42
1.0
 72
1
  3

 73
1
 74
1
 75
1
 94
63
  0
MATERIAL
  5
21
102
{ACAD_REACTORS
330
E
102
}
330
E
100
AcDbMaterial
  1
Global
  2

 70
0
 40
1.0
 71
1
 41
1.0
 91
-1023410177
 42
1.0
 72
1
  3

 73
1
 74
1
 75
1
 44
0.5
 73
0
 45
1.0
 46
1.0
 77
1
  4

 78
1
 79
1
170
1
 48
1.0
171
1
  6

172
1
173
1
174
1
140
1.0
141
1.0
175
1
  7

176
1
177
1
178
1
143
1.0
179
1
  8

270
1
271
1
272
1
145
1.0
146
1.0
273
1
  9

274
1
275
1
276
1
 42
1.0
 72
1
  3

 73
1
 74
1
 75
1
 94
63
  0
MLINESTYLE
  5
22
102
{ACAD_REACTORS
330
10
102
}
330
10
100
AcDbMlineStyle
  2
Standard
 70
0
  3

 62
256
 51
90.0
 52
90.0
 71
2
 49
0.5
 62
256
  6
BYLAYER
 49
-0.5
 62
256
  6
BYLAYER
  0
MLEADERSTYLE
  5
2C
102
{ACAD_REACTORS
330
F
102
}
330
F
100
AcDbMLeaderStyle
179
2
170
2
171
1
172
0
 90
2
 40
0.0
 41
0.0
173
1
 91
-1056964608
 92
-2
290
1
 42
2.0
291
1
 43
8.0
  3
Standard
 44
4.0
300

342
29
174
1
175
1
176
0
178
1
 93
-1056964608
 45
4.0
292
0
297
0
 46
4.0
 94
-1056964608
 47
1.0
 49
1.0
140
1.0
294
1
141
0.0
177
0
142
1.0
295
0
296
0
143
3.75
271
0
272
9
273
9
  0
DICTIONARY
  5
2D
330
A
100
AcDbDictionary
280
1
281
1
  3
CREATED_BY_EZDXF
350
2E
  3
WRITTEN_BY_EZDXF
350
172
  0
DICTIONARYVAR
  5
2E
330
2D
100
DictionaryVariables
280
0
  1
1.4.3 @ 2026-06-10T04:23:18.461734+00:00
  0
DICTIONARYVAR
  5
172
330
2D
100
DictionaryVariables
280
0
  1
1.4.3 @ 2026-06-10T04:23:18.472192+00:00
  0
ENDSEC
  0
EOF
