  0
SECTION
  2
HEADER
  9
$ACADVER
  1
AC1024
  9
$ACADMAINTVER
 70
6
  9
$DWGCODEPAGE
  3
ANSI_1252
  9
$LASTSAVEDBY
  1
ezdxf
  9
$INSBASE
 10
0.0
 20
0.0
 30
0.0
  9
$EXTMIN
 10
1e+20
 20
1e+20
 30
1e+20
  9
$EXTMAX
 10
-1e+20
 20
-1e+20
 30
-1e+20
  9
$LIMMIN
 10
0.0
 20
0.0
  9
$LIMMAX
 10
420.0
 20
297.0
  9
$ORTHOMODE
 70
0
  9
$REGENMODE
 70
1
  9
$FILLMODE
 70
1
  9
$QTEXTMODE
 70
0
  9
$MIRRTEXT
 70
1
  9
$LTSCALE
 40
1.0
  9
$ATTMODE
 70
1
  9
$TEXTSIZE
 40
2.5
  9
$TRACEWID
 40
1.0
  9
$TEXTSTYLE
  7
Standard
  9
$CLAYER
  8
0
  9
$CELTYPE
  6
ByLayer
  9
$CECOLOR
 62
256
  9
$CELTSCALE
 40
1.0
  9
$DISPSILH
 70
0
  9
$DIMSCALE
 40
1.0
  9
$DIMASZ
 40
2.5
  9
$DIMEXO
 40
0.625
  9
$DIMDLI
 40
3.75
  9
$DIMRND
 40
0.0
  9
$DIMDLE
 40
0.0
  9
$DIMEXE
 40
1.25
  9
$DIMTP
 40
0.0
  9
$DIMTM
 40
0.0
  9
$DIMTXT
 40
2.5
  9
$DIMCEN
 40
2.5
  9
$DIMTSZ
 40
0.0
  9
$DIMTOL
 70
0
  9
$DIMLIM
 70
0
  9
$DIMTIH
 70
0
  9
$DIMTOH
 70
0
  9
$DIMSE1
 70
0
  9
$DIMSE2
 70
0
  9
$DIMTAD
 70
1
  9
$DIMZIN
 70
8
  9
$DIMBLK
  1

  9
$DIMASO
 70
1
  9
$DIMSHO
 70
1
  9
$DIMPOST
  1

  9
$DIMAPOST
  1

  9
$DIMALT
 70
0
  9
$DIMALTD
 70
3
  9
$DIMALTF
 40
0.03937007874
  9
$DIMLFAC
 40
1.0
  9
$DIMTOFL
 70
1
  9
$DIMTVP
 40
0.0
  9
$DIMTIX
 70
0
  9
$DIMSOXD
 70
0
  9
$DIMSAH
 70
0
  9
$DIMBLK1
  1

  9
$DIMBLK2
  1

  9
$DIMSTYLE
  2
ISO-25
  9
$DIMCLRD
 70
0
  9
$DIMCLRE
 70
0
  9
$DIMCLRT
 70
0
  9
$DIMTFAC
 40
1.0
  9
$DIMGAP
 40
0.625
  9
$DIMJUST
 70
0
  9
$DIMSD1
 70
0
  9
$DIMSD2
 70
0
  9
$DIMTOLJ
 70
0
  9
$DIMTZIN
 70
8
  9
$DIMALTZ
 70
0
  9
$DIMALTTZ
 70
0
  9
$DIMUPT
 70
0
  9
$DIMDEC
 70
2
  9
$DIMTDEC
 70
2
  9
$DIMALTU
 70
2
  9
$DIMALTTD
 70
3
  9
$DIMTXSTY
  7
Standard
  9
$DIMAUNIT
 70
0
  9
$DIMADEC
 70
0
  9
$DIMALTRND
 40
0.0
  9
$DIMAZIN
 70
0
  9
$DIMDSEP
 70
44
  9
$DIMATFIT
 70
3
  9
$DIMFRAC
 70
0
  9
$DIMLDRBLK
  1

  9
$DIMLUNIT
 70
2
  9
$DIMLWD
 70
-2
  9
$DIMLWE
 70
-2
  9
$DIMTMOVE
 70
0
  9
$DIMFXL
 40
1.0
  9
$DIMFXLON
 70
0
  9
$DIMJOGANG
 40
0.785398163397
  9
$DIMTFILL
 70
0
  9
$DIMTFILLCLR
 70
0
  9
$DIMARCSYM
 70
0
  9
$DIMLTYPE
  6

  9
$DIMLTEX1
  6

  9
$DIMLTEX2
  6

  9
$DIMTXTDIRECTION
 70
0
  9
$LUNITS
 70
2
  9
$LUPREC
 70
4
  9
$SKETCHINC
 40
1.0
  9
$FILLETRAD
 40
10.0
  9
$AUNITS
 70
0
  9
$AUPREC
 70
2
  9
$MENU
  1
.
  9
$ELEVATION
 40
0.0
  9
$PELEVATION
 40
0.0
  9
$THICKNESS
 40
0.0
  9
$LIMCHECK
 70
0
  9
$CHAMFERA
 40
0.0
  9
$CHAMFERB
 40
0.0
  9
$CHAMFERC
 40
0.0
  9
$CHAMFERD
 40
0.0
  9
$SKPOLY
 70
0
  9
$TDCREATE
 40
2461202.0578356483
  9
$TDUCREATE
 40
2458532.153996898
  9
$TDUPDATE
 40
2461202.0578356483
  9
$TDUUPDATE
 40
2458532.1544311
  9
$TDINDWG
 40
0.0
  9
$TDUSRTIMER
 40
0.0
  9
$USRTIMER
 70
1
  9
$ANGBASE
 50
0.0
  9
$ANGDIR
 70
0
  9
$PDMODE
 70
0
  9
$PDSIZE
 40
0.0
  9
$PLINEWID
 40
0.0
  9
$SPLFRAME
 70
0
  9
$SPLINETYPE
 70
6
  9
$SPLINESEGS
 70
8
  9
$HANDSEED
  5
1DF
  9
$SURFTAB1
 70
6
  9
$SURFTAB2
 70
6
  9
$SURFTYPE
 70
6
  9
$SURFU
 70
6
  9
$SURFV
 70
6
  9
$UCSBASE
  2

  9
$UCSNAME
  2

  9
$UCSORG
 10
0.0
 20
0.0
 30
0.0
  9
$UCSXDIR
 10
1.0
 20
0.0
 30
0.0
  9
$UCSYDIR
 10
0.0
 20
1.0
 30
0.0
  9
$UCSORTHOREF
  2

  9
$UCSORTHOVIEW
 70
0
  9
$UCSORGTOP
 10
0.0
 20
0.0
 30
0.0
  9
$UCSORGBOTTOM
 10
0.0
 20
0.0
 30
0.0
  9
$UCSORGLEFT
 10
0.0
 20
0.0
 30
0.0
  9
$UCSORGRIGHT
 10
0.0
 20
0.0
 30
0.0
  9
$UCSORGFRONT
 10
0.0
 20
0.0
 30
0.0
  9
$UCSORGBACK
 10
0.0
 20
0.0
 30
0.0
  9
$PUCSBASE
  2

  9
$PUCSNAME
  2

  9
$PUCSORG
 10
0.0
 20
0.0
 30
0.0
  9
$PUCSXDIR
 10
1.0
 20
0.0
 30
0.0
  9
$PUCSYDIR
 10
0.0
 20
1.0
 30
0.0
  9
$PUCSORTHOREF
  2

  9
$PUCSORTHOVIEW
 70
0
  9
$PUCSORGTOP
 10
0.0
 20
0.0
 30
0.0
  9
$PUCSORGBOTTOM
 10
0.0
 20
0.0
 30
0.0
  9
$PUCSORGLEFT
 10
0.0
 20
0.0
 30
0.0
  9
$PUCSORGRIGHT
 10
0.0
 20
0.0
 30
0.0
  9
$PUCSORGFRONT
 10
0.0
 20
0.0
 30
0.0
  9
$PUCSORGBACK
 10
0.0
 20
0.0
 30
0.0
  9
$USERI1
 70
0
  9
$USERI2
 70
0
  9
$USERI3
 70
0
  9
$USERI4
 70
0
  9
$USERI5
 70
0
  9
$USERR1
 40
0.0
  9
$USERR2
 40
0.0
  9
$USERR3
 40
0.0
  9
$USERR4
 40
0.0
  9
$USERR5
 40
0.0
  9
$WORLDVIEW
 70
1
  9
$SHADEDGE
 70
3
  9
$SHADEDIF
 70
70
  9
$TILEMODE
 70
1
  9
$MAXACTVP
 70
64
  9
$PINSBASE
 10
0.0
 20
0.0
 30
0.0
  9
$PLIMCHECK
 70
0
  9
$PEXTMIN
 10
1e+20
 20
1e+20
 30
1e+20
  9
$PEXTMAX
 10
-1e+20
 20
-1e+20
 30
-1e+20
  9
$PLIMMIN
 10
0.0
 20
0.0
  9
$PLIMMAX
 10
420.0
 20
297.0
  9
$UNITMODE
 70
0
  9
$VISRETAIN
 70
1
  9
$PLINEGEN
 70
0
  9
$PSLTSCALE
 70
1
  9
$TREEDEPTH
 70
3020
  9
$CMLSTYLE
  2
Standard
  9
$CMLJUST
 70
0
  9
$CMLSCALE
 40
20.0
  9
$PROXYGRAPHICS
 70
1
  9
$MEASUREMENT
 70
1
  9
$CELWEIGHT
370
-1
  9
$ENDCAPS
280
0
  9
$JOINSTYLE
280
0
  9
$LWDISPLAY
290
0
  9
$INSUNITS
 70
6
  9
$HYPERLINKBASE
  1

  9
$STYLESHEET
  1

  9
$XEDIT
290
1
  9
$CEPSNTYPE
380
0
  9
$PSTYLEMODE
290
1
  9
$FINGERPRINTGUID
  2
{4E03ECE7-3625-4CB6-B805-C1F923A94C9E}
  9
$VERSIONGUID
  2
{6E8EA36B-84B2-4C0A-95C0-083208C1FFE9}
  9
$EXTNAMES
290
1
  9
$PSVPSCALE
 40
0.0
  9
$OLESTARTUP
290
0
  9
$SORTENTS
280
127
  9
$INDEXCTL
280
0
  9
$HIDETEXT
280
1
  9
$XCLIPFRAME
280
1
  9
$HALOGAP
280
0
  9
$OBSCOLOR
 70
257
  9
$OBSLTYPE
280
0
  9
$INTERSECTIONDISPLAY
280
0
  9
$INTERSECTIONCOLOR
 70
257
  9
$DIMASSOC
280
2
  9
$PROJECTNAME
  1

  9
$CAMERADISPLAY
290
0
  9
$LENSLENGTH
 40
50.0
  9
$CAMERAHEIGHT
 40
0.0
  9
$STEPSPERSEC
 40
24.0
  9
$STEPSIZE
 40
100.0
  9
$3DDWFPREC
 40
2.0
  9
$PSOLWIDTH
 40
0.005
  9
$PSOLHEIGHT
 40
0.08
  9
$LOFTANG1
 40
1.570796326795
  9
$LOFTANG2
 40
1.570796326795
  9
$LOFTMAG1
 40
0.0
  9
$LOFTMAG2
 40
0.0
  9
$LOFTPARAM
 70
7
  9
$LOFTNORMALS
280
1
  9
$LATITUDE
 40
37.795
  9
$LONGITUDE
 40
-122.394
  9
$NORTHDIRECTION
 40
0.0
  9
$TIMEZONE
 70
-8000
  9
$LIGHTGLYPHDISPLAY
280
1
  9
$TILEMODELIGHTSYNCH
280
1
  9
$CMATERIAL
347
20
  9
$SOLIDHIST
280
0
  9
$SHOWHIST
280
1
  9
$DWFFRAME
280
2
  9
$DGNFRAME
280
2
  9
$REALWORLDSCALE
290
1
  9
$INTERFERECOLOR
 62
256
  9
$CSHADOW
280
0
  9
$SHADOWPLANELOCATION
 40
0.0
  0
ENDSEC
  0
SECTION
  2
CLASSES
  0
CLASS
  1
ACDBDICTIONARYWDFLT
  2
AcDbDictionaryWithDefault
  3
ObjectDBX Classes
 90
0
 91
0
280
0
281
0
  0
CLASS
  1
SUN
  2
AcDbSun
  3
SCENEOE
 90
1153
 91
0
280
0
281
0
  0
CLASS
  1
VISUALSTYLE
  2
AcDbVisualStyle
  3
ObjectDBX Classes
 90
4095
 91
0
280
0
281
0
  0
CLASS
  1
MATERIAL
  2
AcDbMaterial
  3
ObjectDBX Classes
 90
1153
 91
0
280
0
281
0
  0
CLASS
  1
SCALE
  2
AcDbScale
  3
ObjectDBX Classes
 90
1153
 91
0
280
0
281
0
  0
CLASS
  1
TABLESTYLE
  2
AcDbTableStyle
  3
ObjectDBX Classes
 90
4095
 91
0
280
0
281
0
  0
CLASS
  1
MLEADERSTYLE
  2
AcDbMLeaderStyle
  3
ACDB_MLEADERSTYLE_CLASS
 90
4095
 91
0
280
0
281
0
  0
CLASS
  1
DICTIONARYVAR
  2
AcDbDictionaryVar
  3
ObjectDBX Classes
 90
0
 91
0
280
0
281
0
  0
CLASS
  1
CELLSTYLEMAP
  2
AcDbCellStyleMap
  3
ObjectDBX Classes
 90
1152
 91
0
280
0
281
0
  0
CLASS
  1
MENTALRAYRENDERSETTINGS
  2
AcDbMentalRayRenderSettings
  3
SCENEOE
 90
1024
 91
0
280
0
281
0
  0
CLASS
  1
ACDBDETAILVIEWSTYLE
  2
AcDbDetailViewStyle
  3
ObjectDBX Classes
 90
1025
 91
0
280
0
281
0
  0
CLASS
  1
ACDBSECTIONVIEWSTYLE
  2
AcDbSectionViewStyle
  3
ObjectDBX Classes
 90
1025
 91
0
280
0
281
0
  0
CLASS
  1
RASTERVARIABLES
  2
AcDbRasterVariables
  3
ISM
 90
0
 91
0
280
0
281
0
  0
CLASS
  1
ACDBPLACEHOLDER
  2
AcDbPlaceHolder
  3
ObjectDBX Classes
 90
0
 91
0
280
0
281
0
  0
CLASS
  1
LAYOUT
  2
AcDbLayout
  3
ObjectDBX Classes
 90
0
 91
0
280
0
281
0
  0
ENDSEC
  0
SECTION
  2
TABLES
  0
TABLE
  2
VPORT
  5
8
330
0
100
AcDbSymbolTable
 70
1
  0
VPORT
  5
23
330
8
100
AcDbSymbolTableRecord
100
AcDbViewportTableRecord
  2
*Active
 70
0
 10
0.0
 20
0.0
 11
1.0
 21
1.0
 12
0.0
 22
0.0
 13
0.0
 23
0.0
 14
0.5
 24
0.5
 15
0.5
 25
0.5
 16
0.0
 26
0.0
 36
1.0
 17
0.0
 27
0.0
 37
0.0
 40
1000.0
 41
1.34
 42
50.0
 43
0.0
 44
0.0
 50
0.0
 51
0.0
 71
0
 72
1000
 73
1
 74
3
 75
0
 76
0
 77
0
 78
0
281
0
 65
0
146
0.0
  0
ENDTAB
  0
TABLE
  2
LTYPE
  5
2
330
0
100
AcDbSymbolTable
 70
3
  0
LTYPE
  5
24
330
2
100
AcDbSymbolTableRecord
100
AcDbLinetypeTableRecord
  2
ByBlock
 70
0
  3

 72
65
 73
0
 40
0.0
  0
LTYPE
  5
25
330
2
100
AcDbSymbolTableRecord
100
AcDbLinetypeTableRecord
  2
ByLayer
 70
0
  3

 72
65
 73
0
 40
0.0
  0
LTYPE
  5
26
330
2
100
AcDbSymbolTableRecord
100
AcDbLinetypeTableRecord
  2
Continuous
 70
0
  3

 72
65
 73
0
 40
0.0
  0
ENDTAB
  0
TABLE
  2
LAYER
  5
1
330
0
100
AcDbSymbolTable
 70
15
  0
LAYER
  5
27
330
1
100
AcDbSymbolTableRecord
100
AcDbLayerTableRecord
  2
0
 70
0
 62
7
  6
Continuous
370
-3
390
13
347
21
  0
LAYER
  5
28
330
1
100
AcDbSymbolTableRecord
100
AcDbLayerTableRecord
  2
Defpoints
 70
0
 62
7
  6
Continuous
290
0
370
-3
390
13
347
21
  0
LAYER
  5
2F
330
1
100
AcDbSymbolTableRecord
100
AcDbLayerTableRecord
  2
5
 70
0
 62
7
  6
Continuous
370
-3
390
13
347
21
  0
LAYER
  5
30
330
1
100
AcDbSymbolTableRecord
100
AcDbLayerTableRecord
  2
NOMENCLATURA
 70
0
 62
7
  6
Continuous
370
-3
390
13
347
21
  0
LAYER
  5
31
330
1
100
AcDbSymbolTableRecord
100
AcDbLayerTableRecord
  2
SARR_2.2x7
 70
0
 62
7
  6
Continuous
370
-3
390
13
347
21
  0
LAYER
  5
32
330
1
100
AcDbSymbolTableRecord
100
AcDbLayerTableRecord
  2
SARRAFO DE PRESSAO
 70
0
 62
7
  6
Continuous
370
-3
390
13
347
21
  0
LAYER
  5
33
330
1
100
AcDbSymbolTableRecord
100
AcDbLayerTableRecord
  2
CONCRETO
 70
0
 62
7
  6
Continuous
370
-3
390
13
347
21
  0
LAYER
  5
34
330
1
100
AcDbSymbolTableRecord
100
AcDbLayerTableRecord
  2
detalhes
 70
0
 62
7
  6
Continuous
370
-3
390
13
347
21
  0
LAYER
  5
35
330
1
100
AcDbSymbolTableRecord
100
AcDbLayerTableRecord
  2
Madeira
 70
0
 62
7
  6
Continuous
370
-3
390
13
347
21
  0
LAYER
  5
36
330
1
100
AcDbSymbolTableRecord
100
AcDbLayerTableRecord
  2
COTA
 70
0
 62
7
  6
Continuous
370
-3
390
13
347
21
  0
LAYER
  5
37
330
1
100
AcDbSymbolTableRecord
100
AcDbLayerTableRecord
  2
Painéis
 70
0
 62
7
  6
Continuous
370
-3
390
13
347
21
  0
LAYER
  5
38
330
1
100
AcDbSymbolTableRecord
100
AcDbLayerTableRecord
  2
Texto Seção
 70
0
 62
7
  6
Continuous
370
-3
390
13
347
21
  0
LAYER
  5
39
330
1
100
AcDbSymbolTableRecord
100
AcDbLayerTableRecord
  2
SARR_3.5x7
 70
0
 62
7
  6
Continuous
370
-3
390
13
347
21
  0
LAYER
  5
3A
330
1
100
AcDbSymbolTableRecord
100
AcDbLayerTableRecord
  2
Cota Seção (2x)
 70
0
 62
7
  6
Continuous
370
-3
390
13
347
21
  0
LAYER
  5
3B
330
1
100
AcDbSymbolTableRecord
100
AcDbLayerTableRecord
  2
Hachura
 70
0
 62
7
  6
Continuous
370
-3
390
13
347
21
  0
ENDTAB
  0
TABLE
  2
STYLE
  5
5
330
0
100
AcDbSymbolTable
 70
1
  0
STYLE
  5
29
330
5
100
AcDbSymbolTableRecord
100
AcDbTextStyleTableRecord
  2
Standard
 70
0
 40
0.0
 41
1.0
 50
0.0
 71
0
 42
2.5
  3
txt
  4

  0
ENDTAB
  0
TABLE
  2
VIEW
  5
7
330
0
100
AcDbSymbolTable
 70
0
  0
ENDTAB
  0
TABLE
  2
UCS
  5
6
330
0
100
AcDbSymbolTable
 70
0
  0
ENDTAB
  0
TABLE
  2
APPID
  5
3
330
0
100
AcDbSymbolTable
 70
3
  0
APPID
  5
2A
330
3
100
AcDbSymbolTableRecord
100
AcDbRegAppTableRecord
  2
ACAD
 70
0
  0
APPID
  5
1DC
330
3
100
AcDbSymbolTableRecord
100
AcDbRegAppTableRecord
  2
HATCHBACKGROUNDCOLOR
 70
0
  0
APPID
  5
1DD
330
3
100
AcDbSymbolTableRecord
100
AcDbRegAppTableRecord
  2
EZDXF
 70
0
  0
ENDTAB
  0
TABLE
  2
DIMSTYLE
  5
4
330
0
100
AcDbSymbolTable
 70
1
100
AcDbDimStyleTable
  0
DIMSTYLE
105
2B
330
4
100
AcDbSymbolTableRecord
100
AcDbDimStyleTableRecord
  2
Standard
 70
0
 40
1.0
 41
2.5
 42
0.625
 43
3.75
 44
1.25
 45
0.0
 46
0.0
 47
0.0
 48
0.0
 49
2.5
140
2.5
141
2.5
142
0.0
143
0.03937007874
144
1.0
145
0.0
146
1.0
147
0.625
148
0.0
 69
0
 70
0
 71
0
 72
0
 73
0
 74
0
 75
0
 76
0
 77
1
 78
8
 79
3
170
0
171
3
172
1
173
0
174
0
175
0
176
0
177
0
178
0
179
2
271
2
272
2
273
2
274
3
275
0
276
0
277
2
278
44
279
0
280
0
281
0
282
0
283
0
284
8
285
0
286
0
288
0
289
3
290
0
371
-2
372
-2
  0
ENDTAB
  0
TABLE
  2
BLOCK_RECORD
  5
9
330
0
100
AcDbSymbolTable
 70
2
  0
BLOCK_RECORD
  5
17
330
9
100
AcDbSymbolTableRecord
100
AcDbBlockTableRecord
  2
*Model_Space
340
1A
 70
0
280
1
281
0
  0
BLOCK_RECORD
  5
1B
330
9
100
AcDbSymbolTableRecord
100
AcDbBlockTableRecord
  2
*Paper_Space
340
1E
 70
0
280
1
281
0
  0
ENDTAB
  0
ENDSEC
  0
SECTION
  2
BLOCKS
  0
BLOCK
  5
18
330
17
100
AcDbEntity
  8
0
100
AcDbBlockBegin
  2
*Model_Space
 70
0
 10
0.0
 20
0.0
 30
0.0
  3
*Model_Space
  1

  0
ENDBLK
  5
19
330
17
100
AcDbEntity
  8
0
100
AcDbBlockEnd
  0
BLOCK
  5
1C
330
1B
100
AcDbEntity
  8
0
100
AcDbBlockBegin
  2
*Paper_Space
 70
0
 10
0.0
 20
0.0
 30
0.0
  3
*Paper_Space
  1

  0
ENDBLK
  5
1D
330
1B
100
AcDbEntity
  8
0
100
AcDbBlockEnd
  0
ENDSEC
  0
SECTION
  2
ENTITIES
  0
LINE
  5
3C
330
17
100
AcDbEntity
  8
SARR_2.2x7
 62
40
370
25
100
AcDbLine
 10
7492.257675489387
 20
5724.521325656162
 30
0.0
 11
7729.302816248571
 21
5724.521325656181
 31
0.0
  0
LINE
  5
3D
330
17
100
AcDbEntity
  8
SARR_2.2x7
 62
40
370
25
100
AcDbLine
 10
7729.302816248571
 20
5724.521325656181
 30
0.0
 11
7823.347957007761
 21
5724.521325655917
 31
0.0
  0
LINE
  5
3E
330
17
100
AcDbEntity
  8
Painéis
 62
200
370
25
100
AcDbLine
 10
7485.302816248569
 20
5731.52132565607
 30
0.0
 11
7830.30281624857
 21
5731.521325656096
 31
0.0
  0
LINE
  5
3F
330
17
100
AcDbEntity
  8
Painéis
 62
200
370
25
100
AcDbLine
 10
7485.302816248574
 20
5687.52132565607
 30
0.0
 11
7830.302816248573
 21
5687.521325656096
 31
0.0
  0
LINE
  5
40
330
17
100
AcDbEntity
  8
Painéis
 62
200
370
25
100
AcDbLine
 10
7830.302816248573
 20
5687.521325656096
 30
0.0
 11
7830.30281624857
 21
5731.521325656096
 31
0.0
  0
LINE
  5
41
330
17
100
AcDbEntity
  8
Painéis
 62
200
370
25
100
AcDbLine
 10
7485.302816248574
 20
5687.52132565607
 30
0.0
 11
7485.302816248569
 21
5731.52132565607
 31
0.0
  0
LINE
  5
42
330
17
100
AcDbEntity
  8
SARR_2.2x7
 62
40
370
25
100
AcDbLine
 10
7492.25767548939
 20
5687.521325656066
 30
0.0
 11
7492.257675489385
 21
5731.52132565607
 31
0.0
  0
LINE
  5
43
330
17
100
AcDbEntity
  8
SARR_2.2x7
 62
40
370
25
100
AcDbLine
 10
7823.347957007758
 20
5687.521325656092
 30
0.0
 11
7823.347957007761
 21
5731.52132565607
 31
0.0
  0
LINE
  5
44
330
17
100
AcDbEntity
  8
Painéis
 62
200
370
25
100
AcDbLine
 10
7729.302816248574
 20
5687.521325656085
 30
0.0
 11
7729.302816248569
 21
5731.521325656085
 31
0.0
  0
LINE
  5
45
330
17
100
AcDbEntity
  8
COTA
 62
241
370
25
100
AcDbLine
 10
7485.302816248569
 20
5731.52132565607
 30
0.0
 11
7485.302816248569
 21
5746.52132565607
 31
0.0
  0
LINE
  5
46
330
17
100
AcDbEntity
  8
COTA
 62
241
370
25
100
AcDbLine
 10
7830.302816248568
 20
5746.52132565607
 30
0.0
 11
7830.302816248568
 21
5731.521325656096
 31
0.0
  0
LINE
  5
47
330
17
100
AcDbEntity
  8
SARR_2.2x7
 62
40
370
25
100
AcDbLine
 10
7492.257675489387
 20
5694.521325655999
 30
0.0
 11
7729.302816248571
 21
5694.521325655981
 31
0.0
  0
LINE
  5
48
330
17
100
AcDbEntity
  8
SARR_2.2x7
 62
40
370
25
100
AcDbLine
 10
7729.302816248571
 20
5694.521325655981
 30
0.0
 11
7823.347957007761
 21
5694.521325656245
 31
0.0
  0
LINE
  5
49
330
17
100
AcDbEntity
  8
COTA
 62
241
370
25
100
AcDbLine
 10
7830.302816248568
 20
5746.52132565607
 30
0.0
 11
7485.302816248569
 21
5746.52132565607
 31
0.0
  0
LINE
  5
4A
330
17
100
AcDbEntity
  8
SARR_2.2x7
 62
40
370
25
100
AcDbLine
 10
7492.257675489387
 20
5513.655327427994
 30
0.0
 11
7729.302816248571
 21
5513.655327428013
 31
0.0
  0
LINE
  5
4B
330
17
100
AcDbEntity
  8
SARR_2.2x7
 62
40
370
25
100
AcDbLine
 10
7729.302816248571
 20
5513.655327428013
 30
0.0
 11
7823.347957007761
 21
5513.655327427749
 31
0.0
  0
LINE
  5
4C
330
17
100
AcDbEntity
  8
Painéis
 62
200
370
25
100
AcDbLine
 10
7485.302816248569
 20
5520.655327427903
 30
0.0
 11
7830.30281624857
 21
5520.655327427927
 31
0.0
  0
LINE
  5
4D
330
17
100
AcDbEntity
  8
Painéis
 62
200
370
25
100
AcDbLine
 10
7485.302816248574
 20
5476.655327427902
 30
0.0
 11
7830.302816248573
 21
5476.655327427927
 31
0.0
  0
LINE
  5
4E
330
17
100
AcDbEntity
  8
Painéis
 62
200
370
25
100
AcDbLine
 10
7830.302816248573
 20
5476.655327427927
 30
0.0
 11
7830.30281624857
 21
5520.655327427927
 31
0.0
  0
LINE
  5
4F
330
17
100
AcDbEntity
  8
Painéis
 62
200
370
25
100
AcDbLine
 10
7485.302816248574
 20
5476.655327427902
 30
0.0
 11
7485.302816248569
 21
5520.655327427903
 31
0.0
  0
LINE
  5
50
330
17
100
AcDbEntity
  8
SARR_2.2x7
 62
40
370
25
100
AcDbLine
 10
7492.25767548939
 20
5476.655327427899
 30
0.0
 11
7492.257675489385
 21
5520.655327427903
 31
0.0
  0
LINE
  5
51
330
17
100
AcDbEntity
  8
SARR_2.2x7
 62
40
370
25
100
AcDbLine
 10
7823.347957007758
 20
5476.655327427923
 30
0.0
 11
7823.347957007761
 21
5520.655327427903
 31
0.0
  0
LINE
  5
52
330
17
100
AcDbEntity
  8
Painéis
 62
200
370
25
100
AcDbLine
 10
7729.302816248574
 20
5476.655327427916
 30
0.0
 11
7729.302816248569
 21
5520.655327427917
 31
0.0
  0
LINE
  5
53
330
17
100
AcDbEntity
  8
COTA
 62
241
370
25
100
AcDbLine
 10
7485.302816248569
 20
5520.655327427903
 30
0.0
 11
7485.302816248569
 21
5535.655327427902
 31
0.0
  0
LINE
  5
54
330
17
100
AcDbEntity
  8
COTA
 62
241
370
25
100
AcDbLine
 10
7830.302816248568
 20
5535.655327427902
 30
0.0
 11
7830.302816248568
 21
5520.655327427927
 31
0.0
  0
LINE
  5
55
330
17
100
AcDbEntity
  8
SARR_2.2x7
 62
40
370
25
100
AcDbLine
 10
7492.257675489387
 20
5483.655327427832
 30
0.0
 11
7729.302816248571
 21
5483.655327427813
 31
0.0
  0
LINE
  5
56
330
17
100
AcDbEntity
  8
SARR_2.2x7
 62
40
370
25
100
AcDbLine
 10
7729.302816248571
 20
5483.655327427813
 30
0.0
 11
7823.347957007761
 21
5483.655327428077
 31
0.0
  0
LINE
  5
57
330
17
100
AcDbEntity
  8
COTA
 62
241
370
25
100
AcDbLine
 10
7830.302816248568
 20
5535.655327427902
 30
0.0
 11
7485.302816248569
 21
5535.655327427902
 31
0.0
  0
LINE
  5
58
330
17
100
AcDbEntity
  8
SARR_2.2x7
 62
40
370
25
100
AcDbLine
 10
8223.958723169122
 20
5724.521325656162
 30
0.0
 11
8461.00386392831
 21
5724.521325656181
 31
0.0
  0
LINE
  5
59
330
17
100
AcDbEntity
  8
SARR_2.2x7
 62
40
370
25
100
AcDbLine
 10
8461.00386392831
 20
5724.521325656181
 30
0.0
 11
8542.049004687498
 21
5724.521325655917
 31
0.0
  0
LINE
  5
5A
330
17
100
AcDbEntity
  8
Painéis
 62
200
370
25
100
AcDbLine
 10
8217.003863928305
 20
5731.52132565607
 30
0.0
 11
8551.003863928307
 21
5731.521325656096
 31
0.0
  0
LINE
  5
5B
330
17
100
AcDbEntity
  8
Painéis
 62
200
370
25
100
AcDbLine
 10
8217.00386392831
 20
5687.52132565607
 30
0.0
 11
8551.00386392831
 21
5687.521325656096
 31
0.0
  0
LINE
  5
5C
330
17
100
AcDbEntity
  8
Painéis
 62
200
370
25
100
AcDbLine
 10
8551.00386392831
 20
5687.521325656096
 30
0.0
 11
8551.003863928307
 21
5731.521325656096
 31
0.0
  0
LINE
  5
5D
330
17
100
AcDbEntity
  8
Painéis
 62
200
370
25
100
AcDbLine
 10
8217.00386392831
 20
5687.52132565607
 30
0.0
 11
8217.003863928307
 21
5731.52132565607
 31
0.0
  0
LINE
  5
5E
330
17
100
AcDbEntity
  8
SARR_2.2x7
 62
40
370
25
100
AcDbLine
 10
8223.958723169126
 20
5687.521325656066
 30
0.0
 11
8223.958723169122
 21
5731.52132565607
 31
0.0
  0
LINE
  5
5F
330
17
100
AcDbEntity
  8
SARR_2.2x7
 62
40
370
25
100
AcDbLine
 10
8542.049004687495
 20
5687.521325656092
 30
0.0
 11
8542.049004687498
 21
5731.52132565607
 31
0.0
  0
LINE
  5
60
330
17
100
AcDbEntity
  8
Painéis
 62
200
370
25
100
AcDbLine
 10
8461.00386392831
 20
5687.521325656085
 30
0.0
 11
8461.003863928307
 21
5731.521325656085
 31
0.0
  0
LINE
  5
61
330
17
100
AcDbEntity
  8
COTA
 62
241
370
25
100
AcDbLine
 10
8217.003863928305
 20
5731.52132565607
 30
0.0
 11
8217.003863928305
 21
5746.52132565607
 31
0.0
  0
LINE
  5
62
330
17
100
AcDbEntity
  8
COTA
 62
241
370
25
100
AcDbLine
 10
8551.003863928307
 20
5746.52132565607
 30
0.0
 11
8551.003863928307
 21
5731.521325656096
 31
0.0
  0
LINE
  5
63
330
17
100
AcDbEntity
  8
SARR_2.2x7
 62
40
370
25
100
AcDbLine
 10
8223.958723169122
 20
5694.521325655999
 30
0.0
 11
8461.00386392831
 21
5694.521325655981
 31
0.0
  0
LINE
  5
64
330
17
100
AcDbEntity
  8
SARR_2.2x7
 62
40
370
25
100
AcDbLine
 10
8461.00386392831
 20
5694.521325655981
 30
0.0
 11
8542.049004687498
 21
5694.521325656245
 31
0.0
  0
LINE
  5
65
330
17
100
AcDbEntity
  8
COTA
 62
241
370
25
100
AcDbLine
 10
8551.003863928307
 20
5746.52132565607
 30
0.0
 11
8217.003863928305
 21
5746.52132565607
 31
0.0
  0
LINE
  5
66
330
17
100
AcDbEntity
  8
SARR_2.2x7
 62
40
370
25
100
AcDbLine
 10
8225.958723169122
 20
5513.655327427994
 30
0.0
 11
8463.003863928308
 21
5513.655327428013
 31
0.0
  0
LINE
  5
67
330
17
100
AcDbEntity
  8
SARR_2.2x7
 62
40
370
25
100
AcDbLine
 10
8463.003863928308
 20
5513.655327428013
 30
0.0
 11
8544.049004687498
 21
5513.655327427749
 31
0.0
  0
LINE
  5
68
330
17
100
AcDbEntity
  8
Painéis
 62
200
370
25
100
AcDbLine
 10
8217.003863928305
 20
5520.655327427903
 30
0.0
 11
8551.003863928307
 21
5520.655327427927
 31
0.0
  0
LINE
  5
69
330
17
100
AcDbEntity
  8
Painéis
 62
200
370
25
100
AcDbLine
 10
8217.00386392831
 20
5476.655327427902
 30
0.0
 11
8551.00386392831
 21
5476.655327427927
 31
0.0
  0
LINE
  5
6A
330
17
100
AcDbEntity
  8
Painéis
 62
200
370
25
100
AcDbLine
 10
8551.00386392831
 20
5476.655327427927
 30
0.0
 11
8551.003863928307
 21
5520.655327427927
 31
0.0
  0
LINE
  5
6B
330
17
100
AcDbEntity
  8
Painéis
 62
200
370
25
100
AcDbLine
 10
8217.00386392831
 20
5476.655327427902
 30
0.0
 11
8217.003863928307
 21
5520.655327427903
 31
0.0
  0
LINE
  5
6C
330
17
100
AcDbEntity
  8
SARR_2.2x7
 62
40
370
25
100
AcDbLine
 10
8225.958723169126
 20
5476.655327427899
 30
0.0
 11
8225.958723169122
 21
5520.655327427903
 31
0.0
  0
LINE
  5
6D
330
17
100
AcDbEntity
  8
SARR_2.2x7
 62
40
370
25
100
AcDbLine
 10
8544.049004687495
 20
5476.655327427923
 30
0.0
 11
8544.049004687498
 21
5520.655327427903
 31
0.0
  0
LINE
  5
6E
330
17
100
AcDbEntity
  8
Painéis
 62
200
370
25
100
AcDbLine
 10
8463.00386392831
 20
5476.655327427916
 30
0.0
 11
8463.003863928307
 21
5520.655327427917
 31
0.0
  0
LINE
  5
6F
330
17
100
AcDbEntity
  8
COTA
 62
241
370
25
100
AcDbLine
 10
8217.003863928305
 20
5520.655327427903
 30
0.0
 11
8217.003863928305
 21
5535.655327427902
 31
0.0
  0
LINE
  5
70
330
17
100
AcDbEntity
  8
COTA
 62
241
370
25
100
AcDbLine
 10
8551.003863928307
 20
5535.655327427902
 30
0.0
 11
8551.003863928307
 21
5520.655327427927
 31
0.0
  0
LINE
  5
71
330
17
100
AcDbEntity
  8
SARR_2.2x7
 62
40
370
25
100
AcDbLine
 10
8225.958723169122
 20
5483.655327427832
 30
0.0
 11
8463.003863928308
 21
5483.655327427813
 31
0.0
  0
LINE
  5
72
330
17
100
AcDbEntity
  8
SARR_2.2x7
 62
40
370
25
100
AcDbLine
 10
8463.003863928308
 20
5483.655327427813
 30
0.0
 11
8544.049004687498
 21
5483.655327428077
 31
0.0
  0
LINE
  5
73
330
17
100
AcDbEntity
  8
COTA
 62
241
370
25
100
AcDbLine
 10
8551.003863928307
 20
5535.655327427902
 30
0.0
 11
8217.003863928305
 21
5535.655327427902
 31
0.0
  0
LINE
  5
74
330
17
100
AcDbEntity
  8
COTA
 62
241
370
25
100
AcDbLine
 10
8078.258379021587
 20
6095.968428766678
 30
0.0
 11
8078.258379021587
 21
5325.211942177574
 31
0.0
  0
LINE
  5
75
330
17
100
AcDbEntity
  8
SARR_2.2x7
 62
40
370
25
100
AcDbLine
 10
7492.257675489387
 20
5706.021325656098
 30
0.0
 11
7729.302816248571
 21
5706.021325655914
 31
0.0
  0
LINE
  5
76
330
17
100
AcDbEntity
  8
SARR_2.2x7
 62
40
370
25
100
AcDbLine
 10
7492.257675489387
 20
5713.021325655796
 30
0.0
 11
7729.302816248571
 21
5713.021325655608
 31
0.0
  0
LINE
  5
77
330
17
100
AcDbEntity
  8
SARR_2.2x7
 62
40
370
25
100
AcDbLine
 10
7729.302816248571
 20
5706.021325656114
 30
0.0
 11
7823.347957007761
 21
5706.02132565604
 31
0.0
  0
LINE
  5
78
330
17
100
AcDbEntity
  8
SARR_2.2x7
 62
40
370
25
100
AcDbLine
 10
7729.302816248571
 20
5713.021325655812
 30
0.0
 11
7823.347957007761
 21
5713.021325655738
 31
0.0
  0
LINE
  5
79
330
17
100
AcDbEntity
  8
SARR_2.2x7
 62
40
370
25
100
AcDbLine
 10
7492.257675489387
 20
5495.15532742793
 30
0.0
 11
7729.302816248571
 21
5495.155327427745
 31
0.0
  0
LINE
  5
7A
330
17
100
AcDbEntity
  8
SARR_2.2x7
 62
40
370
25
100
AcDbLine
 10
7492.257675489387
 20
5502.155327427628
 30
0.0
 11
7729.302816248571
 21
5502.15532742744
 31
0.0
  0
LINE
  5
7B
330
17
100
AcDbEntity
  8
SARR_2.2x7
 62
40
370
25
100
AcDbLine
 10
7729.302816248571
 20
5495.155327427946
 30
0.0
 11
7823.347957007761
 21
5495.155327427872
 31
0.0
  0
LINE
  5
7C
330
17
100
AcDbEntity
  8
SARR_2.2x7
 62
40
370
25
100
AcDbLine
 10
7729.302816248571
 20
5502.155327427644
 30
0.0
 11
7823.347957007761
 21
5502.155327427569
 31
0.0
  0
LINE
  5
7D
330
17
100
AcDbEntity
  8
SARR_2.2x7
 62
40
370
25
100
AcDbLine
 10
8225.958723169124
 20
5495.15532742793
 30
0.0
 11
8463.003863928308
 21
5495.155327427746
 31
0.0
  0
LINE
  5
7E
330
17
100
AcDbEntity
  8
SARR_2.2x7
 62
40
370
25
100
AcDbLine
 10
8225.958723169124
 20
5502.155327427628
 30
0.0
 11
8463.003863928308
 21
5502.155327427439
 31
0.0
  0
LINE
  5
7F
330
17
100
AcDbEntity
  8
SARR_2.2x7
 62
40
370
25
100
AcDbLine
 10
8463.003863928308
 20
5495.155327427946
 30
0.0
 11
8544.049004687497
 21
5495.155327427881
 31
0.0
  0
LINE
  5
80
330
17
100
AcDbEntity
  8
SARR_2.2x7
 62
40
370
25
100
AcDbLine
 10
8463.003863928308
 20
5502.155327427644
 30
0.0
 11
8544.049004687497
 21
5502.15532742758
 31
0.0
  0
LINE
  5
81
330
17
100
AcDbEntity
  8
SARR_2.2x7
 62
40
370
25
100
AcDbLine
 10
8223.958723169124
 20
5706.021325656098
 30
0.0
 11
8461.00386392831
 21
5706.021325655914
 31
0.0
  0
LINE
  5
82
330
17
100
AcDbEntity
  8
SARR_2.2x7
 62
40
370
25
100
AcDbLine
 10
8223.958723169124
 20
5713.021325655796
 30
0.0
 11
8461.00386392831
 21
5713.021325655608
 31
0.0
  0
LINE
  5
83
330
17
100
AcDbEntity
  8
SARR_2.2x7
 62
40
370
25
100
AcDbLine
 10
8461.00386392831
 20
5706.021325656114
 30
0.0
 11
8542.049004687497
 21
5706.02132565605
 31
0.0
  0
LINE
  5
84
330
17
100
AcDbEntity
  8
SARR_2.2x7
 62
40
370
25
100
AcDbLine
 10
8461.00386392831
 20
5713.021325655812
 30
0.0
 11
8542.049004687498
 21
5713.021325655746
 31
0.0
  0
LINE
  5
85
330
17
100
AcDbEntity
  8
NOMENCLATURA
 62
7
370
25
100
AcDbLine
 10
8206.805862573057
 20
5406.334422233161
 30
0.0
 11
8135.949747646961
 21
5406.334422233161
 31
0.0
  0
LINE
  5
86
330
17
100
AcDbEntity
  8
Painéis
 62
200
370
25
100
AcDbLine
 10
8219.003863928316
 20
5476.655327427991
 30
0.0
 11
8219.003863928312
 21
5520.655327427903
 31
0.0
  0
LINE
  5
87
330
17
100
AcDbEntity
  8
NOMENCLATURA
 62
7
370
25
100
AcDbLine
 10
8206.805862573057
 20
5406.334422233161
 30
0.0
 11
8206.805862573057
 21
5456.7211580645
 31
0.0
  0
LINE
  5
88
330
17
100
AcDbEntity
  8
NOMENCLATURA
 62
7
370
25
100
AcDbLine
 10
8561.201865283561
 20
5617.200420461329
 30
0.0
 11
8632.05798020966
 21
5617.200420461329
 31
0.0
  0
LINE
  5
89
330
17
100
AcDbEntity
  8
Painéis
 62
200
370
25
100
AcDbLine
 10
8549.003863928303
 20
5687.52132565616
 30
0.0
 11
8549.003863928308
 21
5731.52132565607
 31
0.0
  0
LINE
  5
8A
330
17
100
AcDbEntity
  8
NOMENCLATURA
 62
7
370
25
100
AcDbLine
 10
8561.201865283561
 20
5617.200420461329
 30
0.0
 11
8561.201865283561
 21
5667.587156292668
 31
0.0
  0
LINE
  5
8B
330
17
100
AcDbEntity
  8
COTA
 62
4
370
25
100
AcDbLine
 10
7485.302816248574
 20
5684.521325656071
 30
0.0
 11
7485.302816248574
 21
5657.981399677915
 31
0.0
  0
LINE
  5
8C
330
17
100
AcDbEntity
  8
COTA
 62
4
370
25
100
AcDbLine
 10
7729.302816248574
 20
5684.521325656099
 30
0.0
 11
7729.302816248574
 21
5657.981399677915
 31
0.0
  0
LINE
  5
8D
330
17
100
AcDbEntity
  8
COTA
 62
4
370
25
100
AcDbLine
 10
7485.302816248574
 20
5660.981399677915
 30
0.0
 11
7729.302816248574
 21
5660.981399677915
 31
0.0
  0
LINE
  5
8E
330
17
100
AcDbEntity
  8
COTA
 62
0
370
25
100
AcDbLine
 10
7486.802816248574
 20
5662.481399677915
 30
0.0
 11
7483.802816248574
 21
5659.481399677915
 31
0.0
  0
LINE
  5
8F
330
17
100
AcDbEntity
  8
COTA
 62
0
370
25
100
AcDbLine
 10
7727.802816248574
 20
5659.481399677915
 30
0.0
 11
7730.802816248574
 21
5662.481399677915
 31
0.0
  0
LINE
  5
90
330
17
100
AcDbEntity
  8
COTA
 62
4
370
25
100
AcDbLine
 10
7729.302816248574
 20
5684.521325656099
 30
0.0
 11
7729.302816248574
 21
5657.981399677925
 31
0.0
  0
LINE
  5
91
330
17
100
AcDbEntity
  8
COTA
 62
4
370
25
100
AcDbLine
 10
7830.302816248573
 20
5684.521325656096
 30
0.0
 11
7830.302816248573
 21
5657.981399677925
 31
0.0
  0
LINE
  5
92
330
17
100
AcDbEntity
  8
COTA
 62
4
370
25
100
AcDbLine
 10
7729.302816248574
 20
5660.981399677925
 30
0.0
 11
7830.302816248573
 21
5660.981399677925
 31
0.0
  0
LINE
  5
93
330
17
100
AcDbEntity
  8
COTA
 62
0
370
25
100
AcDbLine
 10
7730.802816248574
 20
5662.481399677925
 30
0.0
 11
7727.802816248574
 21
5659.481399677925
 31
0.0
  0
LINE
  5
94
330
17
100
AcDbEntity
  8
COTA
 62
0
370
25
100
AcDbLine
 10
7828.802816248573
 20
5659.481399677925
 30
0.0
 11
7831.802816248573
 21
5662.481399677925
 31
0.0
  0
LINE
  5
95
330
17
100
AcDbEntity
  8
Painéis
 62
4
370
25
100
AcDbLine
 10
7833.302816248583
 20
5731.521325656071
 30
0.0
 11
7856.680248411258
 21
5731.521325656071
 31
0.0
  0
LINE
  5
96
330
17
100
AcDbEntity
  8
Painéis
 62
4
370
25
100
AcDbLine
 10
7833.302816248583
 20
5746.521325656072
 30
0.0
 11
7856.680248411258
 21
5746.521325656072
 31
0.0
  0
LINE
  5
97
330
17
100
AcDbEntity
  8
Painéis
 62
4
370
25
100
AcDbLine
 10
7853.680248411258
 20
5731.521325656071
 30
0.0
 11
7853.680248411258
 21
5746.521325656072
 31
0.0
  0
LINE
  5
98
330
17
100
AcDbEntity
  8
Painéis
 62
4
370
25
100
AcDbLine
 10
7853.680248411258
 20
5746.521325656072
 30
0.0
 11
7853.680248411258
 21
5764.892670685312
 31
0.0
  0
LINE
  5
99
330
17
100
AcDbEntity
  8
Painéis
 62
0
370
25
100
AcDbLine
 10
7852.180248411258
 20
5733.021325656071
 30
0.0
 11
7855.180248411258
 21
5730.021325656071
 31
0.0
  0
LINE
  5
9A
330
17
100
AcDbEntity
  8
Painéis
 62
0
370
25
100
AcDbLine
 10
7855.180248411258
 20
5745.021325656072
 30
0.0
 11
7852.180248411258
 21
5748.021325656072
 31
0.0
  0
LINE
  5
9B
330
17
100
AcDbEntity
  8
Painéis
 62
4
370
25
100
AcDbLine
 10
7833.30281624858
 20
5731.521325656071
 30
0.0
 11
7856.680248411253
 21
5731.521325656071
 31
0.0
  0
LINE
  5
9C
330
17
100
AcDbEntity
  8
Painéis
 62
4
370
25
100
AcDbLine
 10
7833.302816248577
 20
5687.521325656072
 30
0.0
 11
7856.680248411253
 21
5687.521325656072
 31
0.0
  0
LINE
  5
9D
330
17
100
AcDbEntity
  8
Painéis
 62
4
370
25
100
AcDbLine
 10
7853.680248411253
 20
5731.521325656071
 30
0.0
 11
7853.680248411253
 21
5687.521325656072
 31
0.0
  0
LINE
  5
9E
330
17
100
AcDbEntity
  8
Painéis
 62
0
370
25
100
AcDbLine
 10
7855.180248411253
 20
5730.021325656071
 30
0.0
 11
7852.180248411253
 21
5733.021325656071
 31
0.0
  0
LINE
  5
9F
330
17
100
AcDbEntity
  8
Painéis
 62
0
370
25
100
AcDbLine
 10
7852.180248411253
 20
5689.021325656072
 30
0.0
 11
7855.180248411253
 21
5686.021325656072
 31
0.0
  0
LINE
  5
A0
330
17
100
AcDbEntity
  8
Painéis
 62
4
370
25
100
AcDbLine
 10
7833.302816248583
 20
5746.521325656072
 30
0.0
 11
7879.811723228478
 21
5746.521325656072
 31
0.0
  0
LINE
  5
A1
330
17
100
AcDbEntity
  8
Painéis
 62
4
370
25
100
AcDbLine
 10
7833.302816248577
 20
5687.521325656072
 30
0.0
 11
7879.811723228478
 21
5687.521325656072
 31
0.0
  0
LINE
  5
A2
330
17
100
AcDbEntity
  8
Painéis
 62
4
370
25
100
AcDbLine
 10
7876.811723228478
 20
5746.521325656072
 30
0.0
 11
7876.811723228478
 21
5687.521325656072
 31
0.0
  0
LINE
  5
A3
330
17
100
AcDbEntity
  8
Painéis
 62
0
370
25
100
AcDbLine
 10
7878.311723228478
 20
5745.021325656072
 30
0.0
 11
7875.311723228478
 21
5748.021325656072
 31
0.0
  0
LINE
  5
A4
330
17
100
AcDbEntity
  8
Painéis
 62
0
370
25
100
AcDbLine
 10
7875.311723228478
 20
5689.021325656072
 30
0.0
 11
7878.311723228478
 21
5686.021325656072
 31
0.0
  0
LINE
  5
A5
330
17
100
AcDbEntity
  8
COTA
 62
4
370
25
100
AcDbLine
 10
7485.302816248574
 20
5473.655327427902
 30
0.0
 11
7485.302816248574
 21
5447.115401449747
 31
0.0
  0
LINE
  5
A6
330
17
100
AcDbEntity
  8
COTA
 62
4
370
25
100
AcDbLine
 10
7729.302816248574
 20
5473.655327427931
 30
0.0
 11
7729.302816248574
 21
5447.115401449747
 31
0.0
  0
LINE
  5
A7
330
17
100
AcDbEntity
  8
COTA
 62
4
370
25
100
AcDbLine
 10
7485.302816248574
 20
5450.115401449747
 30
0.0
 11
7729.302816248574
 21
5450.115401449747
 31
0.0
  0
LINE
  5
A8
330
17
100
AcDbEntity
  8
COTA
 62
0
370
25
100
AcDbLine
 10
7486.802816248574
 20
5451.615401449747
 30
0.0
 11
7483.802816248574
 21
5448.615401449747
 31
0.0
  0
LINE
  5
A9
330
17
100
AcDbEntity
  8
COTA
 62
0
370
25
100
AcDbLine
 10
7727.802816248574
 20
5448.615401449747
 30
0.0
 11
7730.802816248574
 21
5451.615401449747
 31
0.0
  0
LINE
  5
AA
330
17
100
AcDbEntity
  8
COTA
 62
4
370
25
100
AcDbLine
 10
7729.302816248574
 20
5473.655327427931
 30
0.0
 11
7729.302816248574
 21
5447.115401449758
 31
0.0
  0
LINE
  5
AB
330
17
100
AcDbEntity
  8
COTA
 62
4
370
25
100
AcDbLine
 10
7830.302816248573
 20
5473.655327427928
 30
0.0
 11
7830.302816248573
 21
5447.115401449758
 31
0.0
  0
LINE
  5
AC
330
17
100
AcDbEntity
  8
COTA
 62
4
370
25
100
AcDbLine
 10
7729.302816248574
 20
5450.115401449758
 30
0.0
 11
7830.302816248573
 21
5450.115401449758
 31
0.0
  0
LINE
  5
AD
330
17
100
AcDbEntity
  8
COTA
 62
0
370
25
100
AcDbLine
 10
7730.802816248574
 20
5451.615401449758
 30
0.0
 11
7727.802816248574
 21
5448.615401449758
 31
0.0
  0
LINE
  5
AE
330
17
100
AcDbEntity
  8
COTA
 62
0
370
25
100
AcDbLine
 10
7828.802816248573
 20
5448.615401449758
 30
0.0
 11
7831.802816248573
 21
5451.615401449758
 31
0.0
  0
LINE
  5
AF
330
17
100
AcDbEntity
  8
Painéis
 62
4
370
25
100
AcDbLine
 10
7833.302816248583
 20
5520.655327427903
 30
0.0
 11
7856.68024841126
 21
5520.655327427903
 31
0.0
  0
LINE
  5
B0
330
17
100
AcDbEntity
  8
Painéis
 62
4
370
25
100
AcDbLine
 10
7833.302816248583
 20
5535.655327427904
 30
0.0
 11
7856.68024841126
 21
5535.655327427904
 31
0.0
  0
LINE
  5
B1
330
17
100
AcDbEntity
  8
Painéis
 62
4
370
25
100
AcDbLine
 10
7853.68024841126
 20
5520.655327427903
 30
0.0
 11
7853.68024841126
 21
5535.655327427904
 31
0.0
  0
LINE
  5
B2
330
17
100
AcDbEntity
  8
Painéis
 62
4
370
25
100
AcDbLine
 10
7853.68024841126
 20
5535.655327427904
 30
0.0
 11
7853.68024841126
 21
5554.026672457144
 31
0.0
  0
LINE
  5
B3
330
17
100
AcDbEntity
  8
Painéis
 62
0
370
25
100
AcDbLine
 10
7852.18024841126
 20
5522.155327427903
 30
0.0
 11
7855.18024841126
 21
5519.155327427903
 31
0.0
  0
LINE
  5
B4
330
17
100
AcDbEntity
  8
Painéis
 62
0
370
25
100
AcDbLine
 10
7855.18024841126
 20
5534.155327427904
 30
0.0
 11
7852.18024841126
 21
5537.155327427904
 31
0.0
  0
LINE
  5
B5
330
17
100
AcDbEntity
  8
Painéis
 62
4
370
25
100
AcDbLine
 10
7833.30281624858
 20
5520.655327427903
 30
0.0
 11
7856.680248411255
 21
5520.655327427903
 31
0.0
  0
LINE
  5
B6
330
17
100
AcDbEntity
  8
Painéis
 62
4
370
25
100
AcDbLine
 10
7833.302816248577
 20
5476.655327427904
 30
0.0
 11
7856.680248411255
 21
5476.655327427904
 31
0.0
  0
LINE
  5
B7
330
17
100
AcDbEntity
  8
Painéis
 62
4
370
25
100
AcDbLine
 10
7853.680248411254
 20
5520.655327427903
 30
0.0
 11
7853.680248411254
 21
5476.655327427904
 31
0.0
  0
LINE
  5
B8
330
17
100
AcDbEntity
  8
Painéis
 62
0
370
25
100
AcDbLine
 10
7855.180248411254
 20
5519.155327427903
 30
0.0
 11
7852.180248411254
 21
5522.155327427903
 31
0.0
  0
LINE
  5
B9
330
17
100
AcDbEntity
  8
Painéis
 62
0
370
25
100
AcDbLine
 10
7852.180248411254
 20
5478.155327427904
 30
0.0
 11
7855.180248411254
 21
5475.155327427904
 31
0.0
  0
LINE
  5
BA
330
17
100
AcDbEntity
  8
Painéis
 62
4
370
25
100
AcDbLine
 10
7833.302816248583
 20
5535.655327427904
 30
0.0
 11
7879.811723228482
 21
5535.655327427904
 31
0.0
  0
LINE
  5
BB
330
17
100
AcDbEntity
  8
Painéis
 62
4
370
25
100
AcDbLine
 10
7833.302816248577
 20
5476.655327427904
 30
0.0
 11
7879.811723228482
 21
5476.655327427904
 31
0.0
  0
LINE
  5
BC
330
17
100
AcDbEntity
  8
Painéis
 62
4
370
25
100
AcDbLine
 10
7876.811723228482
 20
5535.655327427904
 30
0.0
 11
7876.811723228482
 21
5476.655327427904
 31
0.0
  0
LINE
  5
BD
330
17
100
AcDbEntity
  8
Painéis
 62
0
370
25
100
AcDbLine
 10
7878.311723228482
 20
5534.155327427904
 30
0.0
 11
7875.311723228482
 21
5537.155327427904
 31
0.0
  0
LINE
  5
BE
330
17
100
AcDbEntity
  8
Painéis
 62
0
370
25
100
AcDbLine
 10
7875.311723228482
 20
5478.155327427904
 30
0.0
 11
7878.311723228482
 21
5475.155327427904
 31
0.0
  0
LINE
  5
BF
330
17
100
AcDbEntity
  8
COTA
 62
4
370
25
100
AcDbLine
 10
8217.00386392831
 20
5684.521325656071
 30
0.0
 11
8217.00386392831
 21
5657.981399677915
 31
0.0
  0
LINE
  5
C0
330
17
100
AcDbEntity
  8
COTA
 62
4
370
25
100
AcDbLine
 10
8461.00386392831
 20
5684.521325656099
 30
0.0
 11
8461.00386392831
 21
5657.981399677915
 31
0.0
  0
LINE
  5
C1
330
17
100
AcDbEntity
  8
COTA
 62
4
370
25
100
AcDbLine
 10
8217.00386392831
 20
5660.981399677915
 30
0.0
 11
8461.00386392831
 21
5660.981399677915
 31
0.0
  0
LINE
  5
C2
330
17
100
AcDbEntity
  8
COTA
 62
0
370
25
100
AcDbLine
 10
8218.50386392831
 20
5662.481399677915
 30
0.0
 11
8215.50386392831
 21
5659.481399677915
 31
0.0
  0
LINE
  5
C3
330
17
100
AcDbEntity
  8
COTA
 62
0
370
25
100
AcDbLine
 10
8459.50386392831
 20
5659.481399677915
 30
0.0
 11
8462.50386392831
 21
5662.481399677915
 31
0.0
  0
LINE
  5
C4
330
17
100
AcDbEntity
  8
COTA
 62
4
370
25
100
AcDbLine
 10
8461.00386392831
 20
5684.521325656099
 30
0.0
 11
8461.00386392831
 21
5657.981399677925
 31
0.0
  0
LINE
  5
C5
330
17
100
AcDbEntity
  8
COTA
 62
4
370
25
100
AcDbLine
 10
8551.00386392831
 20
5684.521325656096
 30
0.0
 11
8551.00386392831
 21
5657.981399677925
 31
0.0
  0
LINE
  5
C6
330
17
100
AcDbEntity
  8
COTA
 62
4
370
25
100
AcDbLine
 10
8461.00386392831
 20
5660.981399677925
 30
0.0
 11
8551.00386392831
 21
5660.981399677925
 31
0.0
  0
LINE
  5
C7
330
17
100
AcDbEntity
  8
COTA
 62
0
370
25
100
AcDbLine
 10
8462.50386392831
 20
5662.481399677925
 30
0.0
 11
8459.50386392831
 21
5659.481399677925
 31
0.0
  0
LINE
  5
C8
330
17
100
AcDbEntity
  8
COTA
 62
0
370
25
100
AcDbLine
 10
8549.50386392831
 20
5659.481399677925
 30
0.0
 11
8552.50386392831
 21
5662.481399677925
 31
0.0
  0
LINE
  5
C9
330
17
100
AcDbEntity
  8
COTA
 62
4
370
25
100
AcDbLine
 10
8217.00386392831
 20
5684.521325656071
 30
0.0
 11
8217.00386392831
 21
5629.442888989192
 31
0.0
  0
LINE
  5
CA
330
17
100
AcDbEntity
  8
COTA
 62
4
370
25
100
AcDbLine
 10
8551.00386392831
 20
5684.521325656096
 30
0.0
 11
8551.00386392831
 21
5629.442888989192
 31
0.0
  0
LINE
  5
CB
330
17
100
AcDbEntity
  8
COTA
 62
4
370
25
100
AcDbLine
 10
8217.00386392831
 20
5632.442888989192
 30
0.0
 11
8551.00386392831
 21
5632.442888989192
 31
0.0
  0
LINE
  5
CC
330
17
100
AcDbEntity
  8
COTA
 62
0
370
25
100
AcDbLine
 10
8218.50386392831
 20
5633.942888989192
 30
0.0
 11
8215.50386392831
 21
5630.942888989192
 31
0.0
  0
LINE
  5
CD
330
17
100
AcDbEntity
  8
COTA
 62
0
370
25
100
AcDbLine
 10
8549.50386392831
 20
5630.942888989192
 30
0.0
 11
8552.50386392831
 21
5633.942888989192
 31
0.0
  0
LINE
  5
CE
330
17
100
AcDbEntity
  8
Painéis
 62
4
370
25
100
AcDbLine
 10
8554.00386392832
 20
5731.521325656071
 30
0.0
 11
8577.381296090996
 21
5731.521325656071
 31
0.0
  0
LINE
  5
CF
330
17
100
AcDbEntity
  8
Painéis
 62
4
370
25
100
AcDbLine
 10
8554.00386392832
 20
5746.521325656072
 30
0.0
 11
8577.381296090996
 21
5746.521325656072
 31
0.0
  0
LINE
  5
D0
330
17
100
AcDbEntity
  8
Painéis
 62
4
370
25
100
AcDbLine
 10
8574.381296090995
 20
5731.521325656071
 30
0.0
 11
8574.381296090995
 21
5746.521325656072
 31
0.0
  0
LINE
  5
D1
330
17
100
AcDbEntity
  8
Painéis
 62
4
370
25
100
AcDbLine
 10
8574.381296090995
 20
5746.521325656072
 30
0.0
 11
8574.381296090995
 21
5764.892670685312
 31
0.0
  0
LINE
  5
D2
330
17
100
AcDbEntity
  8
Painéis
 62
0
370
25
100
AcDbLine
 10
8572.881296090995
 20
5733.021325656071
 30
0.0
 11
8575.881296090995
 21
5730.021325656071
 31
0.0
  0
LINE
  5
D3
330
17
100
AcDbEntity
  8
Painéis
 62
0
370
25
100
AcDbLine
 10
8575.881296090995
 20
5745.021325656072
 30
0.0
 11
8572.881296090995
 21
5748.021325656072
 31
0.0
  0
LINE
  5
D4
330
17
100
AcDbEntity
  8
Painéis
 62
4
370
25
100
AcDbLine
 10
8554.003863928318
 20
5731.521325656071
 30
0.0
 11
8577.38129609099
 21
5731.521325656071
 31
0.0
  0
LINE
  5
D5
330
17
100
AcDbEntity
  8
Painéis
 62
4
370
25
100
AcDbLine
 10
8554.003863928314
 20
5687.521325656072
 30
0.0
 11
8577.38129609099
 21
5687.521325656072
 31
0.0
  0
LINE
  5
D6
330
17
100
AcDbEntity
  8
Painéis
 62
4
370
25
100
AcDbLine
 10
8574.38129609099
 20
5731.521325656071
 30
0.0
 11
8574.38129609099
 21
5687.521325656072
 31
0.0
  0
LINE
  5
D7
330
17
100
AcDbEntity
  8
Painéis
 62
0
370
25
100
AcDbLine
 10
8575.88129609099
 20
5730.021325656071
 30
0.0
 11
8572.88129609099
 21
5733.021325656071
 31
0.0
  0
LINE
  5
D8
330
17
100
AcDbEntity
  8
Painéis
 62
0
370
25
100
AcDbLine
 10
8572.88129609099
 20
5689.021325656072
 30
0.0
 11
8575.88129609099
 21
5686.021325656072
 31
0.0
  0
LINE
  5
D9
330
17
100
AcDbEntity
  8
Painéis
 62
4
370
25
100
AcDbLine
 10
8554.00386392832
 20
5746.521325656072
 30
0.0
 11
8600.512770908219
 21
5746.521325656072
 31
0.0
  0
LINE
  5
DA
330
17
100
AcDbEntity
  8
Painéis
 62
4
370
25
100
AcDbLine
 10
8554.003863928314
 20
5687.521325656072
 30
0.0
 11
8600.512770908219
 21
5687.521325656072
 31
0.0
  0
LINE
  5
DB
330
17
100
AcDbEntity
  8
Painéis
 62
4
370
25
100
AcDbLine
 10
8597.512770908219
 20
5746.521325656072
 30
0.0
 11
8597.512770908219
 21
5687.521325656072
 31
0.0
  0
LINE
  5
DC
330
17
100
AcDbEntity
  8
Painéis
 62
0
370
25
100
AcDbLine
 10
8599.012770908219
 20
5745.021325656072
 30
0.0
 11
8596.012770908219
 21
5748.021325656072
 31
0.0
  0
LINE
  5
DD
330
17
100
AcDbEntity
  8
Painéis
 62
0
370
25
100
AcDbLine
 10
8596.012770908219
 20
5689.021325656072
 30
0.0
 11
8599.012770908219
 21
5686.021325656072
 31
0.0
  0
LINE
  5
DE
330
17
100
AcDbEntity
  8
COTA
 62
4
370
25
100
AcDbLine
 10
8217.00386392831
 20
5473.655327427902
 30
0.0
 11
8217.00386392831
 21
5447.115401449747
 31
0.0
  0
LINE
  5
DF
330
17
100
AcDbEntity
  8
COTA
 62
4
370
25
100
AcDbLine
 10
8463.00386392831
 20
5473.655327427931
 30
0.0
 11
8463.00386392831
 21
5447.115401449747
 31
0.0
  0
LINE
  5
E0
330
17
100
AcDbEntity
  8
COTA
 62
4
370
25
100
AcDbLine
 10
8217.00386392831
 20
5450.115401449747
 30
0.0
 11
8463.00386392831
 21
5450.115401449747
 31
0.0
  0
LINE
  5
E1
330
17
100
AcDbEntity
  8
COTA
 62
0
370
25
100
AcDbLine
 10
8218.50386392831
 20
5451.615401449747
 30
0.0
 11
8215.50386392831
 21
5448.615401449747
 31
0.0
  0
LINE
  5
E2
330
17
100
AcDbEntity
  8
COTA
 62
0
370
25
100
AcDbLine
 10
8461.50386392831
 20
5448.615401449747
 30
0.0
 11
8464.50386392831
 21
5451.615401449747
 31
0.0
  0
LINE
  5
E3
330
17
100
AcDbEntity
  8
COTA
 62
4
370
25
100
AcDbLine
 10
8463.00386392831
 20
5473.655327427931
 30
0.0
 11
8463.00386392831
 21
5447.115401449758
 31
0.0
  0
LINE
  5
E4
330
17
100
AcDbEntity
  8
COTA
 62
4
370
25
100
AcDbLine
 10
8551.00386392831
 20
5473.655327427928
 30
0.0
 11
8551.00386392831
 21
5447.115401449758
 31
0.0
  0
LINE
  5
E5
330
17
100
AcDbEntity
  8
COTA
 62
4
370
25
100
AcDbLine
 10
8463.00386392831
 20
5450.115401449758
 30
0.0
 11
8551.00386392831
 21
5450.115401449758
 31
0.0
  0
LINE
  5
E6
330
17
100
AcDbEntity
  8
COTA
 62
0
370
25
100
AcDbLine
 10
8464.50386392831
 20
5451.615401449758
 30
0.0
 11
8461.50386392831
 21
5448.615401449758
 31
0.0
  0
LINE
  5
E7
330
17
100
AcDbEntity
  8
COTA
 62
0
370
25
100
AcDbLine
 10
8549.50386392831
 20
5448.615401449758
 30
0.0
 11
8552.50386392831
 21
5451.615401449758
 31
0.0
  0
LINE
  5
E8
330
17
100
AcDbEntity
  8
COTA
 62
4
370
25
100
AcDbLine
 10
8217.00386392831
 20
5473.655327427902
 30
0.0
 11
8217.00386392831
 21
5418.576890761024
 31
0.0
  0
LINE
  5
E9
330
17
100
AcDbEntity
  8
COTA
 62
4
370
25
100
AcDbLine
 10
8551.00386392831
 20
5473.655327427928
 30
0.0
 11
8551.00386392831
 21
5418.576890761024
 31
0.0
  0
LINE
  5
EA
330
17
100
AcDbEntity
  8
COTA
 62
4
370
25
100
AcDbLine
 10
8217.00386392831
 20
5421.576890761024
 30
0.0
 11
8551.00386392831
 21
5421.576890761024
 31
0.0
  0
LINE
  5
EB
330
17
100
AcDbEntity
  8
COTA
 62
0
370
25
100
AcDbLine
 10
8218.50386392831
 20
5423.076890761024
 30
0.0
 11
8215.50386392831
 21
5420.076890761024
 31
0.0
  0
LINE
  5
EC
330
17
100
AcDbEntity
  8
COTA
 62
0
370
25
100
AcDbLine
 10
8549.50386392831
 20
5420.076890761024
 30
0.0
 11
8552.50386392831
 21
5423.076890761024
 31
0.0
  0
LINE
  5
ED
330
17
100
AcDbEntity
  8
Painéis
 62
4
370
25
100
AcDbLine
 10
8554.00386392832
 20
5520.655327427903
 30
0.0
 11
8577.381296091002
 21
5520.655327427903
 31
0.0
  0
LINE
  5
EE
330
17
100
AcDbEntity
  8
Painéis
 62
4
370
25
100
AcDbLine
 10
8554.00386392832
 20
5535.655327427904
 30
0.0
 11
8577.381296091002
 21
5535.655327427904
 31
0.0
  0
LINE
  5
EF
330
17
100
AcDbEntity
  8
Painéis
 62
4
370
25
100
AcDbLine
 10
8574.381296091002
 20
5520.655327427903
 30
0.0
 11
8574.381296091002
 21
5535.655327427904
 31
0.0
  0
LINE
  5
F0
330
17
100
AcDbEntity
  8
Painéis
 62
4
370
25
100
AcDbLine
 10
8574.381296091002
 20
5535.655327427904
 30
0.0
 11
8574.381296091002
 21
5554.026672457144
 31
0.0
  0
LINE
  5
F1
330
17
100
AcDbEntity
  8
Painéis
 62
0
370
25
100
AcDbLine
 10
8572.881296091002
 20
5522.155327427903
 30
0.0
 11
8575.881296091002
 21
5519.155327427903
 31
0.0
  0
LINE
  5
F2
330
17
100
AcDbEntity
  8
Painéis
 62
0
370
25
100
AcDbLine
 10
8575.881296091002
 20
5534.155327427904
 30
0.0
 11
8572.881296091002
 21
5537.155327427904
 31
0.0
  0
LINE
  5
F3
330
17
100
AcDbEntity
  8
Painéis
 62
4
370
25
100
AcDbLine
 10
8554.003863928318
 20
5520.655327427903
 30
0.0
 11
8577.381296090996
 21
5520.655327427903
 31
0.0
  0
LINE
  5
F4
330
17
100
AcDbEntity
  8
Painéis
 62
4
370
25
100
AcDbLine
 10
8554.003863928314
 20
5476.655327427904
 30
0.0
 11
8577.381296090996
 21
5476.655327427904
 31
0.0
  0
LINE
  5
F5
330
17
100
AcDbEntity
  8
Painéis
 62
4
370
25
100
AcDbLine
 10
8574.381296090995
 20
5520.655327427903
 30
0.0
 11
8574.381296090995
 21
5476.655327427904
 31
0.0
  0
LINE
  5
F6
330
17
100
AcDbEntity
  8
Painéis
 62
0
370
25
100
AcDbLine
 10
8575.881296090995
 20
5519.155327427903
 30
0.0
 11
8572.881296090995
 21
5522.155327427903
 31
0.0
  0
LINE
  5
F7
330
17
100
AcDbEntity
  8
Painéis
 62
0
370
25
100
AcDbLine
 10
8572.881296090995
 20
5478.155327427904
 30
0.0
 11
8575.881296090995
 21
5475.155327427904
 31
0.0
  0
LINE
  5
F8
330
17
100
AcDbEntity
  8
Painéis
 62
4
370
25
100
AcDbLine
 10
8554.00386392832
 20
5535.655327427904
 30
0.0
 11
8600.512770908223
 21
5535.655327427904
 31
0.0
  0
LINE
  5
F9
330
17
100
AcDbEntity
  8
Painéis
 62
4
370
25
100
AcDbLine
 10
8554.003863928314
 20
5476.655327427904
 30
0.0
 11
8600.512770908223
 21
5476.655327427904
 31
0.0
  0
LINE
  5
FA
330
17
100
AcDbEntity
  8
Painéis
 62
4
370
25
100
AcDbLine
 10
8597.512770908223
 20
5535.655327427904
 30
0.0
 11
8597.512770908223
 21
5476.655327427904
 31
0.0
  0
LINE
  5
FB
330
17
100
AcDbEntity
  8
Painéis
 62
0
370
25
100
AcDbLine
 10
8599.012770908223
 20
5534.155327427904
 30
0.0
 11
8596.012770908223
 21
5537.155327427904
 31
0.0
  0
LINE
  5
FC
330
17
100
AcDbEntity
  8
Painéis
 62
0
370
25
100
AcDbLine
 10
8596.012770908223
 20
5478.155327427904
 30
0.0
 11
8599.012770908223
 21
5475.155327427904
 31
0.0
  0
LINE
  5
FD
330
17
100
AcDbEntity
  8
COTA
 62
4
370
25
100
AcDbLine
 10
8219.00386392831
 20
5473.655327427902
 30
0.0
 11
8219.00386392831
 21
5456.991379948499
 31
0.0
  0
LINE
  5
FE
330
17
100
AcDbEntity
  8
COTA
 62
4
370
25
100
AcDbLine
 10
8217.00386392831
 20
5473.655327427902
 30
0.0
 11
8217.00386392831
 21
5456.991379948499
 31
0.0
  0
LINE
  5
FF
330
17
100
AcDbEntity
  8
COTA
 62
4
370
25
100
AcDbLine
 10
8219.00386392831
 20
5459.991379948499
 30
0.0
 11
8222.00386392831
 21
5459.991379948499
 31
0.0
  0
LINE
  5
100
330
17
100
AcDbEntity
  8
COTA
 62
4
370
25
100
AcDbLine
 10
8217.00386392831
 20
5459.991379948499
 30
0.0
 11
8198.892752817199
 21
5459.991379948499
 31
0.0
  0
LINE
  5
101
330
17
100
AcDbEntity
  8
COTA
 62
4
370
25
100
AcDbLine
 10
8219.00386392831
 20
5459.991379948499
 30
0.0
 11
8217.00386392831
 21
5459.991379948499
 31
0.0
  0
LINE
  5
102
330
17
100
AcDbEntity
  8
COTA
 62
0
370
25
100
AcDbLine
 10
8220.50386392831
 20
5461.491379948499
 30
0.0
 11
8217.50386392831
 21
5458.491379948499
 31
0.0
  0
LINE
  5
103
330
17
100
AcDbEntity
  8
COTA
 62
0
370
25
100
AcDbLine
 10
8215.50386392831
 20
5458.491379948499
 30
0.0
 11
8218.50386392831
 21
5461.491379948499
 31
0.0
  0
LINE
  5
104
330
17
100
AcDbEntity
  8
COTA
 62
4
370
25
100
AcDbLine
 10
8549.00386392831
 20
5684.521325656071
 30
0.0
 11
8549.00386392831
 21
5667.857378176667
 31
0.0
  0
LINE
  5
105
330
17
100
AcDbEntity
  8
COTA
 62
4
370
25
100
AcDbLine
 10
8551.00386392831
 20
5684.521325656071
 30
0.0
 11
8551.00386392831
 21
5667.857378176667
 31
0.0
  0
LINE
  5
106
330
17
100
AcDbEntity
  8
COTA
 62
4
370
25
100
AcDbLine
 10
8549.00386392831
 20
5670.857378176667
 30
0.0
 11
8546.00386392831
 21
5670.857378176667
 31
0.0
  0
LINE
  5
107
330
17
100
AcDbEntity
  8
COTA
 62
4
370
25
100
AcDbLine
 10
8551.00386392831
 20
5670.857378176667
 30
0.0
 11
8569.114975039422
 21
5670.857378176667
 31
0.0
  0
LINE
  5
108
330
17
100
AcDbEntity
  8
COTA
 62
4
370
25
100
AcDbLine
 10
8549.00386392831
 20
5670.857378176667
 30
0.0
 11
8551.00386392831
 21
5670.857378176667
 31
0.0
  0
LINE
  5
109
330
17
100
AcDbEntity
  8
COTA
 62
0
370
25
100
AcDbLine
 10
8547.50386392831
 20
5669.357378176667
 30
0.0
 11
8550.50386392831
 21
5672.357378176667
 31
0.0
  0
LINE
  5
10A
330
17
100
AcDbEntity
  8
COTA
 62
0
370
25
100
AcDbLine
 10
8552.50386392831
 20
5672.357378176667
 30
0.0
 11
8549.50386392831
 21
5669.357378176667
 31
0.0
  0
LINE
  5
10B
330
17
100
AcDbEntity
  8
COTA
 62
4
370
25
100
AcDbLine
 10
7756.849038442287
 20
5970.968428766672
 30
0.0
 11
7773.720771200244
 21
5970.968428766672
 31
0.0
  0
LINE
  5
10C
330
17
100
AcDbEntity
  8
COTA
 62
4
370
25
100
AcDbLine
 10
7756.849038442287
 20
5944.968428766657
 30
0.0
 11
7773.720771200244
 21
5944.968428766657
 31
0.0
  0
LINE
  5
10D
330
17
100
AcDbEntity
  8
COTA
 62
4
370
25
100
AcDbLine
 10
7770.720771200244
 20
5970.968428766672
 30
0.0
 11
7770.720771200244
 21
5944.968428766657
 31
0.0
  0
LINE
  5
10E
330
17
100
AcDbEntity
  8
COTA
 62
4
370
25
100
AcDbLine
 10
7619.24903844234
 20
5852.968428766679
 30
0.0
 11
7544.872315353159
 21
5852.968428766679
 31
0.0
  0
LINE
  5
10F
330
17
100
AcDbEntity
  8
COTA
 62
4
370
25
100
AcDbLine
 10
7597.249038442339
 20
5970.968428766672
 30
0.0
 11
7544.872315353159
 21
5970.968428766672
 31
0.0
  0
LINE
  5
110
330
17
100
AcDbEntity
  8
COTA
 62
4
370
25
100
AcDbLine
 10
7547.872315353159
 20
5852.968428766679
 30
0.0
 11
7547.872315353159
 21
5970.968428766672
 31
0.0
  0
LINE
  5
111
330
17
100
AcDbEntity
  8
COTA
 62
4
370
25
100
AcDbLine
 10
7730.449038442323
 20
5852.968428766679
 30
0.0
 11
7773.720771200664
 21
5852.968428766679
 31
0.0
  0
LINE
  5
112
330
17
100
AcDbEntity
  8
COTA
 62
4
370
25
100
AcDbLine
 10
7756.849038442287
 20
5940.968428766658
 30
0.0
 11
7773.720771200664
 21
5940.968428766658
 31
0.0
  0
LINE
  5
113
330
17
100
AcDbEntity
  8
COTA
 62
4
370
25
100
AcDbLine
 10
7770.720771200664
 20
5852.968428766679
 30
0.0
 11
7770.720771200664
 21
5940.968428766658
 31
0.0
  0
LINE
  5
114
330
17
100
AcDbEntity
  8
Cota Seção (2x)
 62
180
370
25
100
AcDbLine
 10
7689.349038443973
 20
5919.301762099978
 30
0.0
 11
7689.349038443973
 21
5938.635095433312
 31
0.0
  0
LINE
  5
115
330
17
100
AcDbEntity
  8
Cota Seção (2x)
 62
180
370
25
100
AcDbLine
 10
7689.349038443973
 20
5938.635095433312
 30
0.0
 11
7674.349038443972
 21
5938.635095433312
 31
0.0
  0
LINE
  5
116
330
17
100
AcDbEntity
  8
Cota Seção (2x)
 62
180
370
25
100
AcDbLine
 10
7674.349038443972
 20
5938.635095433312
 30
0.0
 11
7674.349038443972
 21
5919.301762099978
 31
0.0
  0
LINE
  5
117
330
17
100
AcDbEntity
  8
Cota Seção (2x)
 62
180
370
25
100
AcDbLine
 10
7674.349038443972
 20
5919.301762099978
 30
0.0
 11
7689.349038443973
 21
5919.301762099978
 31
0.0
  0
LINE
  5
118
330
17
100
AcDbEntity
  8
COTA
 62
4
370
25
100
AcDbLine
 10
7597.249038442339
 20
5970.968428766672
 30
0.0
 11
7564.191743838621
 21
5970.968428766672
 31
0.0
  0
LINE
  5
119
330
17
100
AcDbEntity
  8
COTA
 62
4
370
25
100
AcDbLine
 10
7597.249038442339
 20
5944.96842876665
 30
0.0
 11
7564.191743838621
 21
5944.96842876665
 31
0.0
  0
LINE
  5
11A
330
17
100
AcDbEntity
  8
COTA
 62
4
370
25
100
AcDbLine
 10
7567.191743838622
 20
5970.968428766672
 30
0.0
 11
7567.191743838622
 21
5944.96842876665
 31
0.0
  0
LINE
  5
11B
330
17
100
AcDbEntity
  8
COTA
 62
4
370
25
100
AcDbLine
 10
7597.249038442339
 20
5940.968428766651
 30
0.0
 11
7564.191743838953
 21
5940.968428766651
 31
0.0
  0
LINE
  5
11C
330
17
100
AcDbEntity
  8
COTA
 62
4
370
25
100
AcDbLine
 10
7619.24903844234
 20
5852.968428766679
 30
0.0
 11
7564.191743838953
 21
5852.968428766679
 31
0.0
  0
LINE
  5
11D
330
17
100
AcDbEntity
  8
COTA
 62
4
370
25
100
AcDbLine
 10
7567.191743838953
 20
5940.968428766651
 30
0.0
 11
7567.191743838953
 21
5852.968428766679
 31
0.0
  0
LINE
  5
11E
330
17
100
AcDbEntity
  8
COTA
 62
4
370
25
100
AcDbLine
 10
7655.849038442314
 20
5849.96842876667
 30
0.0
 11
7655.849038442314
 21
5805.241614964487
 31
0.0
  0
LINE
  5
11F
330
17
100
AcDbEntity
  8
COTA
 62
4
370
25
100
AcDbLine
 10
7693.849038442313
 20
5849.96842876667
 30
0.0
 11
7693.849038442313
 21
5805.241614964487
 31
0.0
  0
LINE
  5
120
330
17
100
AcDbEntity
  8
COTA
 62
4
370
25
100
AcDbLine
 10
7655.849038442314
 20
5808.241614964487
 30
0.0
 11
7693.849038442313
 21
5808.241614964487
 31
0.0
  0
LINE
  5
121
330
17
100
AcDbEntity
  8
Cota Seção (2x)
 62
180
370
25
100
AcDbLine
 10
7665.849038442285
 20
5872.968428766678
 30
0.0
 11
7683.849038442284
 21
5872.968428766678
 31
0.0
  0
LINE
  5
122
330
17
100
AcDbEntity
  8
Cota Seção (2x)
 62
180
370
25
100
AcDbLine
 10
7683.849038442284
 20
5872.968428766678
 30
0.0
 11
7683.849038442284
 21
5887.968428766678
 31
0.0
  0
LINE
  5
123
330
17
100
AcDbEntity
  8
Cota Seção (2x)
 62
180
370
25
100
AcDbLine
 10
7683.849038442284
 20
5887.968428766678
 30
0.0
 11
7665.849038442285
 21
5887.968428766678
 31
0.0
  0
LINE
  5
124
330
17
100
AcDbEntity
  8
Cota Seção (2x)
 62
180
370
25
100
AcDbLine
 10
7665.849038442285
 20
5887.968428766678
 30
0.0
 11
7665.849038442285
 21
5872.968428766678
 31
0.0
  0
LINE
  5
125
330
17
100
AcDbEntity
  8
COTA
 62
4
370
25
100
AcDbLine
 10
8488.550086122024
 20
5970.968428766672
 30
0.0
 11
8505.421818879982
 21
5970.968428766672
 31
0.0
  0
LINE
  5
126
330
17
100
AcDbEntity
  8
COTA
 62
4
370
25
100
AcDbLine
 10
8488.550086122024
 20
5944.968428766657
 30
0.0
 11
8505.421818879982
 21
5944.968428766657
 31
0.0
  0
LINE
  5
127
330
17
100
AcDbEntity
  8
COTA
 62
4
370
25
100
AcDbLine
 10
8502.421818879982
 20
5970.968428766672
 30
0.0
 11
8502.421818879982
 21
5944.968428766657
 31
0.0
  0
LINE
  5
128
330
17
100
AcDbEntity
  8
COTA
 62
4
370
25
100
AcDbLine
 10
8350.950086122077
 20
5852.968428766679
 30
0.0
 11
8276.573363032892
 21
5852.968428766679
 31
0.0
  0
LINE
  5
129
330
17
100
AcDbEntity
  8
COTA
 62
4
370
25
100
AcDbLine
 10
8328.950086122077
 20
5970.968428766672
 30
0.0
 11
8276.573363032892
 21
5970.968428766672
 31
0.0
  0
LINE
  5
12A
330
17
100
AcDbEntity
  8
COTA
 62
4
370
25
100
AcDbLine
 10
8279.573363032892
 20
5852.968428766679
 30
0.0
 11
8279.573363032892
 21
5970.968428766672
 31
0.0
  0
LINE
  5
12B
330
17
100
AcDbEntity
  8
COTA
 62
4
370
25
100
AcDbLine
 10
8462.15008612206
 20
5852.968428766679
 30
0.0
 11
8505.4218188804
 21
5852.968428766679
 31
0.0
  0
LINE
  5
12C
330
17
100
AcDbEntity
  8
COTA
 62
4
370
25
100
AcDbLine
 10
8488.550086122024
 20
5940.968428766658
 30
0.0
 11
8505.4218188804
 21
5940.968428766658
 31
0.0
  0
LINE
  5
12D
330
17
100
AcDbEntity
  8
COTA
 62
4
370
25
100
AcDbLine
 10
8502.4218188804
 20
5852.968428766679
 30
0.0
 11
8502.4218188804
 21
5940.968428766658
 31
0.0
  0
LINE
  5
12E
330
17
100
AcDbEntity
  8
Cota Seção (2x)
 62
180
370
25
100
AcDbLine
 10
8421.05008612371
 20
5919.301762099978
 30
0.0
 11
8421.05008612371
 21
5938.635095433312
 31
0.0
  0
LINE
  5
12F
330
17
100
AcDbEntity
  8
Cota Seção (2x)
 62
180
370
25
100
AcDbLine
 10
8421.05008612371
 20
5938.635095433312
 30
0.0
 11
8406.050086123709
 21
5938.635095433312
 31
0.0
  0
LINE
  5
130
330
17
100
AcDbEntity
  8
Cota Seção (2x)
 62
180
370
25
100
AcDbLine
 10
8406.050086123709
 20
5938.635095433312
 30
0.0
 11
8406.050086123709
 21
5919.301762099978
 31
0.0
  0
LINE
  5
131
330
17
100
AcDbEntity
  8
Cota Seção (2x)
 62
180
370
25
100
AcDbLine
 10
8406.050086123709
 20
5919.301762099978
 30
0.0
 11
8421.05008612371
 21
5919.301762099978
 31
0.0
  0
LINE
  5
132
330
17
100
AcDbEntity
  8
COTA
 62
4
370
25
100
AcDbLine
 10
8328.950086122077
 20
5970.968428766672
 30
0.0
 11
8295.89279151836
 21
5970.968428766672
 31
0.0
  0
LINE
  5
133
330
17
100
AcDbEntity
  8
COTA
 62
4
370
25
100
AcDbLine
 10
8328.950086122077
 20
5944.96842876665
 30
0.0
 11
8295.89279151836
 21
5944.96842876665
 31
0.0
  0
LINE
  5
134
330
17
100
AcDbEntity
  8
COTA
 62
4
370
25
100
AcDbLine
 10
8298.89279151836
 20
5970.968428766672
 30
0.0
 11
8298.89279151836
 21
5944.96842876665
 31
0.0
  0
LINE
  5
135
330
17
100
AcDbEntity
  8
COTA
 62
4
370
25
100
AcDbLine
 10
8328.950086122077
 20
5940.968428766651
 30
0.0
 11
8295.89279151869
 21
5940.968428766651
 31
0.0
  0
LINE
  5
136
330
17
100
AcDbEntity
  8
COTA
 62
4
370
25
100
AcDbLine
 10
8350.950086122077
 20
5852.968428766679
 30
0.0
 11
8295.89279151869
 21
5852.968428766679
 31
0.0
  0
LINE
  5
137
330
17
100
AcDbEntity
  8
COTA
 62
4
370
25
100
AcDbLine
 10
8298.89279151869
 20
5940.968428766651
 30
0.0
 11
8298.89279151869
 21
5852.968428766679
 31
0.0
  0
LINE
  5
138
330
17
100
AcDbEntity
  8
COTA
 62
4
370
25
100
AcDbLine
 10
8387.55008612205
 20
5849.96842876667
 30
0.0
 11
8387.55008612205
 21
5805.241614964487
 31
0.0
  0
LINE
  5
139
330
17
100
AcDbEntity
  8
COTA
 62
4
370
25
100
AcDbLine
 10
8425.55008612205
 20
5849.96842876667
 30
0.0
 11
8425.55008612205
 21
5805.241614964487
 31
0.0
  0
LINE
  5
13A
330
17
100
AcDbEntity
  8
COTA
 62
4
370
25
100
AcDbLine
 10
8387.55008612205
 20
5808.241614964487
 30
0.0
 11
8425.55008612205
 21
5808.241614964487
 31
0.0
  0
LINE
  5
13B
330
17
100
AcDbEntity
  8
Cota Seção (2x)
 62
180
370
25
100
AcDbLine
 10
8397.550086122023
 20
5872.968428766678
 30
0.0
 11
8415.55008612202
 21
5872.968428766678
 31
0.0
  0
LINE
  5
13C
330
17
100
AcDbEntity
  8
Cota Seção (2x)
 62
180
370
25
100
AcDbLine
 10
8415.55008612202
 20
5872.968428766678
 30
0.0
 11
8415.55008612202
 21
5887.968428766678
 31
0.0
  0
LINE
  5
13D
330
17
100
AcDbEntity
  8
Cota Seção (2x)
 62
180
370
25
100
AcDbLine
 10
8415.55008612202
 20
5887.968428766678
 30
0.0
 11
8397.550086122023
 21
5887.968428766678
 31
0.0
  0
LINE
  5
13E
330
17
100
AcDbEntity
  8
Cota Seção (2x)
 62
180
370
25
100
AcDbLine
 10
8397.550086122023
 20
5887.968428766678
 30
0.0
 11
8397.550086122023
 21
5872.968428766678
 31
0.0
  0
LINE
  5
13F
330
17
100
AcDbEntity
  8
Texto Seção
 62
252
370
15
100
AcDbLine
 10
7677.04903844231
 20
5970.968428766678
 30
0.0
 11
7677.04903844231
 21
6095.968428766678
 31
0.0
  0
LINE
  5
140
330
17
100
AcDbEntity
  8
Texto Seção
 62
252
370
15
100
AcDbLine
 10
8408.750086122047
 20
5970.968428766678
 30
0.0
 11
8408.750086122047
 21
6095.968428766678
 31
0.0
  0
LWPOLYLINE
  5
141
330
17
100
AcDbEntity
  8
Painéis
 62
200
370
25
100
AcDbPolyline
 90
4
 70
1
 10
7651.849038442313
 20
5940.968428766655
 10
7655.849038442314
 20
5940.968428766655
 10
7655.849038442314
 20
5852.968428766678
 10
7651.849038442313
 20
5852.968428766678
  0
LWPOLYLINE
  5
142
330
17
100
AcDbEntity
  8
Madeira
 62
126
370
18
100
AcDbPolyline
 90
4
 70
1
 10
7693.849038442313
 20
5852.968428766678
 10
7693.849038442313
 20
5857.368428766672
 10
7679.849038442313
 20
5857.368428766672
 10
7679.849038442313
 20
5852.968428766678
  0
LWPOLYLINE
  5
143
330
17
100
AcDbEntity
  8
Painéis
 62
200
370
25
100
AcDbPolyline
 90
4
 70
1
 10
7693.849038442313
 20
5857.368428766672
 10
7693.849038442313
 20
5860.968428766678
 10
7655.849038442314
 20
5860.968428766678
 10
7655.849038442314
 20
5857.368428766672
  0
LWPOLYLINE
  5
144
330
17
100
AcDbEntity
  8
Madeira
 62
126
370
18
100
AcDbPolyline
 90
4
 70
1
 10
7655.849038442314
 20
5852.968428766678
 10
7655.849038442314
 20
5857.368428766672
 10
7669.849038442314
 20
5857.368428766672
 10
7669.849038442314
 20
5852.968428766678
  0
LWPOLYLINE
  5
145
330
17
100
AcDbEntity
  8
Painéis
 62
200
370
25
100
AcDbPolyline
 90
4
 70
1
 10
7697.849038442313
 20
5940.968428766655
 10
7693.849038442313
 20
5940.968428766655
 10
7693.849038442313
 20
5852.968428766678
 10
7697.849038442313
 20
5852.968428766678
  0
LWPOLYLINE
  5
146
330
17
100
AcDbEntity
  8
Painéis
 62
200
370
25
100
AcDbPolyline
 90
4
 70
1
 10
7753.849038442284
 20
5940.968428766655
 10
7753.849038442284
 20
5944.968428766657
 10
7693.849038442313
 20
5944.968428766657
 10
7693.849038442313
 20
5940.968428766655
  0
LWPOLYLINE
  5
147
330
17
100
AcDbEntity
  8
Painéis
 62
200
370
25
100
AcDbPolyline
 90
4
 70
1
 10
7655.849038442314
 20
5940.968428766655
 10
7655.849038442314
 20
5944.968428766657
 10
7600.249038442337
 20
5944.968428766649
 10
7600.249038442337
 20
5940.968428766648
  0
LWPOLYLINE
  5
148
330
17
100
AcDbEntity
  8
CONCRETO
 62
251
370
25
100
AcDbPolyline
 90
8
 70
1
 10
7600.249038442337
 20
5944.968428766649
 10
7600.249038442337
 20
5970.968428766678
 10
7753.849038442284
 20
5970.968428766678
 10
7753.849038442284
 20
5944.968428766664
 10
7693.849038442313
 20
5944.968428766664
 10
7693.849038442255
 20
5860.968428766678
 10
7655.849038442314
 20
5860.968428766678
 10
7655.849038442314
 20
5944.968428766657
  0
LWPOLYLINE
  5
149
330
17
100
AcDbEntity
  8
Madeira
 62
126
370
18
100
AcDbPolyline
 90
4
 70
1
 10
7647.449038442319
 20
5926.968428766656
 10
7651.849038442313
 20
5926.968428766656
 10
7651.849038442313
 20
5940.968428766655
 10
7647.449038442319
 20
5940.968428766655
  0
LWPOLYLINE
  5
14A
330
17
100
AcDbEntity
  8
Madeira
 62
126
370
18
100
AcDbPolyline
 90
4
 70
1
 10
7647.449038442319
 20
5852.968428766678
 10
7651.849038442313
 20
5852.968428766678
 10
7651.849038442313
 20
5866.968428766678
 10
7647.449038442319
 20
5866.968428766678
  0
LWPOLYLINE
  5
14B
330
17
100
AcDbEntity
  8
Madeira
 62
126
370
18
100
AcDbPolyline
 90
4
 70
1
 10
7702.249038442308
 20
5926.968428766656
 10
7697.849038442313
 20
5926.968428766656
 10
7697.849038442313
 20
5940.968428766655
 10
7702.249038442308
 20
5940.968428766655
  0
LWPOLYLINE
  5
14C
330
17
100
AcDbEntity
  8
Madeira
 62
126
370
18
100
AcDbPolyline
 90
4
 70
1
 10
7702.249038442308
 20
5852.968428766678
 10
7697.849038442313
 20
5852.968428766678
 10
7697.849038442313
 20
5866.968428766678
 10
7702.249038442308
 20
5866.968428766678
  0
LWPOLYLINE
  5
14D
330
17
100
AcDbEntity
  8
Madeira
 62
126
370
18
100
AcDbPolyline
 90
4
 70
1
 10
7647.449038442319
 20
5889.968428766668
 10
7651.849038442313
 20
5889.968428766668
 10
7651.849038442313
 20
5903.968428766667
 10
7647.449038442319
 20
5903.968428766667
  0
LWPOLYLINE
  5
14E
330
17
100
AcDbEntity
  8
Madeira
 62
126
370
18
100
AcDbPolyline
 90
4
 70
1
 10
7702.249038442308
 20
5889.968428766668
 10
7697.849038442313
 20
5889.968428766668
 10
7697.849038442313
 20
5903.968428766667
 10
7702.249038442308
 20
5903.968428766667
  0
LWPOLYLINE
  5
14F
330
17
100
AcDbEntity
  8
SARR_3.5x7
 62
81
370
25
100
AcDbPolyline
 90
4
 70
1
 10
7633.449038442252
 20
5934.968428766656
 10
7647.449038442252
 20
5934.968428766656
 10
7647.449038442381
 20
5776.490215360872
 10
7633.449038442382
 20
5776.490215360872
  0
LWPOLYLINE
  5
150
330
17
100
AcDbEntity
  8
SARR_3.5x7
 62
81
370
25
100
AcDbPolyline
 90
4
 70
1
 10
7716.24903844254
 20
5934.968428766658
 10
7702.249038442539
 20
5934.968428766658
 10
7702.249038442393
 20
5776.490215360872
 10
7716.249038442393
 20
5776.490215360872
  0
LWPOLYLINE
  5
151
330
17
100
AcDbEntity
  8
SARR_3.5x7
 62
81
370
25
100
AcDbPolyline
 90
4
 70
1
 10
7633.44903844224
 20
5852.968428766678
 10
7716.249038442441
 20
5852.968428766676
 10
7716.249038442441
 20
5822.910367162677
 10
7633.44903844224
 20
5822.910367162679
  0
LWPOLYLINE
  5
152
330
17
100
AcDbEntity
  8
Painéis
 62
200
370
25
100
AcDbPolyline
 90
4
 70
1
 10
8383.55008612205
 20
5940.968428766655
 10
8387.55008612205
 20
5940.968428766655
 10
8387.55008612205
 20
5852.968428766678
 10
8383.55008612205
 20
5852.968428766678
  0
LWPOLYLINE
  5
153
330
17
100
AcDbEntity
  8
Madeira
 62
126
370
18
100
AcDbPolyline
 90
4
 70
1
 10
8425.55008612205
 20
5852.968428766678
 10
8425.55008612205
 20
5857.368428766672
 10
8411.55008612205
 20
5857.368428766672
 10
8411.55008612205
 20
5852.968428766678
  0
LWPOLYLINE
  5
154
330
17
100
AcDbEntity
  8
Painéis
 62
200
370
25
100
AcDbPolyline
 90
4
 70
1
 10
8425.55008612205
 20
5857.368428766672
 10
8425.55008612205
 20
5860.968428766678
 10
8387.55008612205
 20
5860.968428766678
 10
8387.55008612205
 20
5857.368428766672
  0
LWPOLYLINE
  5
155
330
17
100
AcDbEntity
  8
Madeira
 62
126
370
18
100
AcDbPolyline
 90
4
 70
1
 10
8387.55008612205
 20
5852.968428766678
 10
8387.55008612205
 20
5857.368428766672
 10
8401.55008612205
 20
5857.368428766672
 10
8401.55008612205
 20
5852.968428766678
  0
LWPOLYLINE
  5
156
330
17
100
AcDbEntity
  8
Painéis
 62
200
370
25
100
AcDbPolyline
 90
4
 70
1
 10
8429.55008612205
 20
5940.968428766655
 10
8425.55008612205
 20
5940.968428766655
 10
8425.55008612205
 20
5852.968428766678
 10
8429.55008612205
 20
5852.968428766678
  0
LWPOLYLINE
  5
157
330
17
100
AcDbEntity
  8
Painéis
 62
200
370
25
100
AcDbPolyline
 90
4
 70
1
 10
8485.55008612202
 20
5940.968428766655
 10
8485.55008612202
 20
5944.968428766657
 10
8425.55008612205
 20
5944.968428766657
 10
8425.55008612205
 20
5940.968428766655
  0
LWPOLYLINE
  5
158
330
17
100
AcDbEntity
  8
Painéis
 62
200
370
25
100
AcDbPolyline
 90
4
 70
1
 10
8387.55008612205
 20
5940.968428766655
 10
8387.55008612205
 20
5944.968428766657
 10
8331.950086122073
 20
5944.968428766649
 10
8331.950086122073
 20
5940.968428766648
  0
LWPOLYLINE
  5
159
330
17
100
AcDbEntity
  8
CONCRETO
 62
251
370
25
100
AcDbPolyline
 90
8
 70
1
 10
8331.950086122073
 20
5944.968428766649
 10
8331.950086122073
 20
5970.968428766678
 10
8485.55008612202
 20
5970.968428766678
 10
8485.55008612202
 20
5944.968428766664
 10
8425.55008612205
 20
5944.968428766664
 10
8425.550086121992
 20
5860.968428766678
 10
8387.55008612205
 20
5860.968428766678
 10
8387.55008612205
 20
5944.968428766657
  0
LWPOLYLINE
  5
15A
330
17
100
AcDbEntity
  8
Madeira
 62
126
370
18
100
AcDbPolyline
 90
4
 70
1
 10
8379.150086122056
 20
5926.968428766656
 10
8383.55008612205
 20
5926.968428766656
 10
8383.55008612205
 20
5940.968428766655
 10
8379.150086122056
 20
5940.968428766655
  0
LWPOLYLINE
  5
15B
330
17
100
AcDbEntity
  8
Madeira
 62
126
370
18
100
AcDbPolyline
 90
4
 70
1
 10
8379.150086122056
 20
5852.968428766678
 10
8383.55008612205
 20
5852.968428766678
 10
8383.55008612205
 20
5866.968428766678
 10
8379.150086122056
 20
5866.968428766678
  0
LWPOLYLINE
  5
15C
330
17
100
AcDbEntity
  8
Madeira
 62
126
370
18
100
AcDbPolyline
 90
4
 70
1
 10
8433.950086122042
 20
5926.968428766656
 10
8429.55008612205
 20
5926.968428766656
 10
8429.55008612205
 20
5940.968428766655
 10
8433.950086122042
 20
5940.968428766655
  0
LWPOLYLINE
  5
15D
330
17
100
AcDbEntity
  8
Madeira
 62
126
370
18
100
AcDbPolyline
 90
4
 70
1
 10
8433.950086122042
 20
5852.968428766678
 10
8429.55008612205
 20
5852.968428766678
 10
8429.55008612205
 20
5866.968428766678
 10
8433.950086122042
 20
5866.968428766678
  0
LWPOLYLINE
  5
15E
330
17
100
AcDbEntity
  8
Madeira
 62
126
370
18
100
AcDbPolyline
 90
4
 70
1
 10
8379.150086122056
 20
5889.968428766668
 10
8383.55008612205
 20
5889.968428766668
 10
8383.55008612205
 20
5903.968428766667
 10
8379.150086122056
 20
5903.968428766667
  0
LWPOLYLINE
  5
15F
330
17
100
AcDbEntity
  8
Madeira
 62
126
370
18
100
AcDbPolyline
 90
4
 70
1
 10
8433.950086122042
 20
5889.968428766668
 10
8429.55008612205
 20
5889.968428766668
 10
8429.55008612205
 20
5903.968428766667
 10
8433.950086122042
 20
5903.968428766667
  0
LWPOLYLINE
  5
160
330
17
100
AcDbEntity
  8
SARR_3.5x7
 62
81
370
25
100
AcDbPolyline
 90
4
 70
1
 10
8365.15008612199
 20
5934.968428766656
 10
8379.15008612199
 20
5934.968428766656
 10
8379.150086122118
 20
5776.490215360872
 10
8365.15008612212
 20
5776.490215360872
  0
LWPOLYLINE
  5
161
330
17
100
AcDbEntity
  8
SARR_3.5x7
 62
81
370
25
100
AcDbPolyline
 90
4
 70
1
 10
8447.950086122277
 20
5934.968428766658
 10
8433.950086122279
 20
5934.968428766658
 10
8433.950086122131
 20
5776.490215360872
 10
8447.950086122131
 20
5776.490215360872
  0
LWPOLYLINE
  5
162
330
17
100
AcDbEntity
  8
SARR_3.5x7
 62
81
370
25
100
AcDbPolyline
 90
4
 70
1
 10
8365.150086121976
 20
5852.968428766678
 10
8447.95008612218
 20
5852.968428766676
 10
8447.95008612218
 20
5822.910367162677
 10
8365.150086121976
 20
5822.910367162679
  0
LWPOLYLINE
  5
163
330
17
100
AcDbEntity
  8
COTA
 62
0
370
25
100
AcDbPolyline
 90
2
 70
0
 10
7773.220771200244
 20
5968.468428766672
 10
7768.220771200244
 20
5973.468428766672
  0
LWPOLYLINE
  5
164
330
17
100
AcDbEntity
  8
COTA
 62
0
370
25
100
AcDbPolyline
 90
2
 70
0
 10
7768.220771200244
 20
5947.468428766657
 10
7773.220771200244
 20
5942.468428766657
  0
LWPOLYLINE
  5
165
330
17
100
AcDbEntity
  8
COTA
 62
0
370
25
100
AcDbPolyline
 90
2
 70
0
 10
7545.372315353159
 20
5855.468428766679
 10
7550.372315353159
 20
5850.468428766679
  0
LWPOLYLINE
  5
166
330
17
100
AcDbEntity
  8
COTA
 62
0
370
25
100
AcDbPolyline
 90
2
 70
0
 10
7550.372315353159
 20
5968.468428766672
 10
7545.372315353159
 20
5973.468428766672
  0
LWPOLYLINE
  5
167
330
17
100
AcDbEntity
  8
COTA
 62
0
370
25
100
AcDbPolyline
 90
2
 70
0
 10
7768.220771200664
 20
5855.468428766679
 10
7773.220771200664
 20
5850.468428766679
  0
LWPOLYLINE
  5
168
330
17
100
AcDbEntity
  8
COTA
 62
0
370
25
100
AcDbPolyline
 90
2
 70
0
 10
7773.220771200664
 20
5938.468428766658
 10
7768.220771200664
 20
5943.468428766658
  0
LWPOLYLINE
  5
169
330
17
100
AcDbEntity
  8
COTA
 62
0
370
25
100
AcDbPolyline
 90
2
 70
0
 10
7569.691743838622
 20
5968.468428766672
 10
7564.691743838622
 20
5973.468428766672
  0
LWPOLYLINE
  5
16A
330
17
100
AcDbEntity
  8
COTA
 62
0
370
25
100
AcDbPolyline
 90
2
 70
0
 10
7564.691743838622
 20
5947.46842876665
 10
7569.691743838622
 20
5942.46842876665
  0
LWPOLYLINE
  5
16B
330
17
100
AcDbEntity
  8
COTA
 62
0
370
25
100
AcDbPolyline
 90
2
 70
0
 10
7569.691743838953
 20
5938.468428766651
 10
7564.691743838953
 20
5943.468428766651
  0
LWPOLYLINE
  5
16C
330
17
100
AcDbEntity
  8
COTA
 62
0
370
25
100
AcDbPolyline
 90
2
 70
0
 10
7564.691743838953
 20
5855.468428766679
 10
7569.691743838953
 20
5850.468428766679
  0
LWPOLYLINE
  5
16D
330
17
100
AcDbEntity
  8
COTA
 62
0
370
25
100
AcDbPolyline
 90
2
 70
0
 10
7658.349038442314
 20
5810.741614964487
 10
7653.349038442314
 20
5805.741614964487
  0
LWPOLYLINE
  5
16E
330
17
100
AcDbEntity
  8
COTA
 62
0
370
25
100
AcDbPolyline
 90
2
 70
0
 10
7691.349038442313
 20
5805.741614964487
 10
7696.349038442313
 20
5810.741614964487
  0
LWPOLYLINE
  5
16F
330
17
100
AcDbEntity
  8
COTA
 62
0
370
25
100
AcDbPolyline
 90
2
 70
0
 10
8504.921818879982
 20
5968.468428766672
 10
8499.921818879982
 20
5973.468428766672
  0
LWPOLYLINE
  5
170
330
17
100
AcDbEntity
  8
COTA
 62
0
370
25
100
AcDbPolyline
 90
2
 70
0
 10
8499.921818879982
 20
5947.468428766657
 10
8504.921818879982
 20
5942.468428766657
  0
LWPOLYLINE
  5
171
330
17
100
AcDbEntity
  8
COTA
 62
0
370
25
100
AcDbPolyline
 90
2
 70
0
 10
8277.073363032892
 20
5855.468428766679
 10
8282.073363032892
 20
5850.468428766679
  0
LWPOLYLINE
  5
172
330
17
100
AcDbEntity
  8
COTA
 62
0
370
25
100
AcDbPolyline
 90
2
 70
0
 10
8282.073363032892
 20
5968.468428766672
 10
8277.073363032892
 20
5973.468428766672
  0
LWPOLYLINE
  5
173
330
17
100
AcDbEntity
  8
COTA
 62
0
370
25
100
AcDbPolyline
 90
2
 70
0
 10
8499.9218188804
 20
5855.468428766679
 10
8504.9218188804
 20
5850.468428766679
  0
LWPOLYLINE
  5
174
330
17
100
AcDbEntity
  8
COTA
 62
0
370
25
100
AcDbPolyline
 90
2
 70
0
 10
8504.9218188804
 20
5938.468428766658
 10
8499.9218188804
 20
5943.468428766658
  0
LWPOLYLINE
  5
175
330
17
100
AcDbEntity
  8
COTA
 62
0
370
25
100
AcDbPolyline
 90
2
 70
0
 10
8301.39279151836
 20
5968.468428766672
 10
8296.39279151836
 20
5973.468428766672
  0
LWPOLYLINE
  5
176
330
17
100
AcDbEntity
  8
COTA
 62
0
370
25
100
AcDbPolyline
 90
2
 70
0
 10
8296.39279151836
 20
5947.46842876665
 10
8301.39279151836
 20
5942.46842876665
  0
LWPOLYLINE
  5
177
330
17
100
AcDbEntity
  8
COTA
 62
0
370
25
100
AcDbPolyline
 90
2
 70
0
 10
8301.39279151869
 20
5938.468428766651
 10
8296.39279151869
 20
5943.468428766651
  0
LWPOLYLINE
  5
178
330
17
100
AcDbEntity
  8
COTA
 62
0
370
25
100
AcDbPolyline
 90
2
 70
0
 10
8296.39279151869
 20
5855.468428766679
 10
8301.39279151869
 20
5850.468428766679
  0
LWPOLYLINE
  5
179
330
17
100
AcDbEntity
  8
COTA
 62
0
370
25
100
AcDbPolyline
 90
2
 70
0
 10
8390.05008612205
 20
5810.741614964487
 10
8385.05008612205
 20
5805.741614964487
  0
LWPOLYLINE
  5
17A
330
17
100
AcDbEntity
  8
COTA
 62
0
370
25
100
AcDbPolyline
 90
2
 70
0
 10
8423.05008612205
 20
5805.741614964487
 10
8428.05008612205
 20
5810.741614964487
  0
TEXT
  5
17B
330
17
100
AcDbEntity
  8
5
 62
5
370
25
100
AcDbText
 10
7485.198729924556
 20
5645.080037860814
 30
0.0
 40
12.0
  1
P21
 50
3.55024762388e-05
100
AcDbText
  0
TEXT
  5
17C
330
17
100
AcDbEntity
  8
5
 62
5
370
25
100
AcDbText
 10
7803.159687381008
 20
5639.173516110917
 30
0.0
 40
12.0
  1
V57
 50
3.55024762388e-05
100
AcDbText
  0
TEXT
  5
17D
330
17
100
AcDbEntity
  8
Texto Seção
 62
7
370
15
100
AcDbText
 10
7488.332241557455
 20
5756.203725391579
 30
0.0
 40
13.0
  1
V65.A
100
AcDbText
  0
TEXT
  5
17E
330
17
100
AcDbEntity
  8
5
 62
5
370
25
100
AcDbText
 10
7485.198729924556
 20
5430.169013256516
 30
0.0
 40
12.0
  1
V57
 50
3.55024762388e-05
100
AcDbText
  0
TEXT
  5
17F
330
17
100
AcDbEntity
  8
5
 62
5
370
25
100
AcDbText
 10
7804.258734113169
 20
5427.145408996307
 30
0.0
 40
12.0
  1
P21
 50
3.55024762388e-05
100
AcDbText
  0
TEXT
  5
180
330
17
100
AcDbEntity
  8
Texto Seção
 62
7
370
15
100
AcDbText
 10
7488.332241557455
 20
5545.337727163412
 30
0.0
 40
13.0
  1
V65.B
100
AcDbText
  0
TEXT
  5
181
330
17
100
AcDbEntity
  8
5
 62
5
370
25
100
AcDbText
 10
8216.899777604292
 20
5610.476461480068
 30
0.0
 40
12.0
  1
V51
 50
3.55024762388e-05
100
AcDbText
  0
TEXT
  5
182
330
17
100
AcDbEntity
  8
5
 62
5
370
25
100
AcDbText
 10
8523.860735060745
 20
5604.569939730172
 30
0.0
 40
12.0
  1
P13
 50
3.55024762388e-05
100
AcDbText
  0
TEXT
  5
183
330
17
100
AcDbEntity
  8
Texto Seção
 62
7
370
15
100
AcDbText
 10
8220.033289237192
 20
5756.203725391579
 30
0.0
 40
13.0
  1
V66.A
100
AcDbText
  0
TEXT
  5
184
330
17
100
AcDbEntity
  8
5
 62
5
370
25
100
AcDbText
 10
8216.899777604292
 20
5399.6104632519
 30
0.0
 40
12.0
  1
P13
 50
3.55024762388e-05
100
AcDbText
  0
TEXT
  5
185
330
17
100
AcDbEntity
  8
5
 62
5
370
25
100
AcDbText
 10
8524.959781792906
 20
5393.703941502003
 30
0.0
 40
12.0
  1
V51
 50
3.55024762388e-05
100
AcDbText
  0
TEXT
  5
186
330
17
100
AcDbEntity
  8
Texto Seção
 62
7
370
15
100
AcDbText
 10
8220.033289237192
 20
5545.337727163412
 30
0.0
 40
13.0
  1
V66.B
100
AcDbText
  0
TEXT
  5
187
330
17
100
AcDbEntity
  8
NOMENCLATURA
 62
7
370
25
100
AcDbText
 10
8140.60974038926
 20
5410.53147223507
 30
0.0
 40
16.49999175001634
  1
M30.5
100
AcDbText
  0
TEXT
  5
188
330
17
100
AcDbEntity
  8
NOMENCLATURA
 62
7
370
25
100
AcDbText
 10
8562.546041721387
 20
5621.397470463238
 30
0.0
 40
16.49999175001634
  1
M30.5
100
AcDbText
  0
TEXT
  5
189
330
17
100
AcDbEntity
  8
detalhes
 62
4
370
25
100
AcDbText
 10
7702.563521618351
 20
5871.158100295961
 30
0.0
 40
9.600000000000001
  1
b
100
AcDbText
  0
TEXT
  5
18A
330
17
100
AcDbEntity
  8
detalhes
 62
4
370
25
100
AcDbText
 10
7640.019862972614
 20
5871.169157741536
 30
0.0
 40
9.600000000000001
  1
a
100
AcDbText
  0
TEXT
  5
18B
330
17
100
AcDbEntity
  8
detalhes
 62
4
370
25
100
AcDbText
 10
7666.449304057758
 20
5863.204182286517
 30
0.0
 40
9.600000000000001
  1
c
100
AcDbText
  0
TEXT
  5
18C
330
17
100
AcDbEntity
  8
detalhes
 62
4
370
25
100
AcDbText
 10
8434.264569298088
 20
5871.158100295961
 30
0.0
 40
9.600000000000001
  1
b
100
AcDbText
  0
TEXT
  5
18D
330
17
100
AcDbEntity
  8
detalhes
 62
4
370
25
100
AcDbText
 10
8371.720910652351
 20
5871.169157741536
 30
0.0
 40
9.600000000000001
  1
a
100
AcDbText
  0
TEXT
  5
18E
330
17
100
AcDbEntity
  8
detalhes
 62
4
370
25
100
AcDbText
 10
8398.150351737495
 20
5863.204182286517
 30
0.0
 40
9.600000000000001
  1
c
100
AcDbText
  0
TEXT
  5
18F
330
17
100
AcDbEntity
  8
COTA
 62
240
370
25
100
AcDbText
 10
7607.302816248574
 20
5669.054499093119
 30
0.0
 40
10.0
  1
244
100
AcDbText
  0
TEXT
  5
190
330
17
100
AcDbEntity
  8
COTA
 62
240
370
25
100
AcDbText
 10
7779.802816248573
 20
5669.083738859213
 30
0.0
 40
10.0
  1
101
100
AcDbText
  0
TEXT
  5
191
330
17
100
AcDbEntity
  8
Painéis
 62
240
370
25
100
AcDbText
 10
7865.57059928845
 20
5757.206998170688
 30
0.0
 40
10.0
  1
15
 50
90.0
100
AcDbText
  0
TEXT
  5
192
330
17
100
AcDbEntity
  8
Painéis
 62
240
370
25
100
AcDbText
 10
7865.607148996046
 20
5709.521325656068
 30
0.0
 40
10.0
  1
44
 50
90.0
100
AcDbText
  0
TEXT
  5
193
330
17
100
AcDbEntity
  8
Painéis
 62
240
370
25
100
AcDbText
 10
7888.672834339588
 20
5717.021325656069
 30
0.0
 40
10.0
  1
59
 50
90.0
100
AcDbText
  0
TEXT
  5
194
330
17
100
AcDbEntity
  8
COTA
 62
240
370
25
100
AcDbText
 10
7607.302816248574
 20
5458.188500864951
 30
0.0
 40
10.0
  1
244
100
AcDbText
  0
TEXT
  5
195
330
17
100
AcDbEntity
  8
COTA
 62
240
370
25
100
AcDbText
 10
7779.802816248573
 20
5458.217740631045
 30
0.0
 40
10.0
  1
101
100
AcDbText
  0
TEXT
  5
196
330
17
100
AcDbEntity
  8
Painéis
 62
240
370
25
100
AcDbText
 10
7865.570599288452
 20
5546.34099994252
 30
0.0
 40
10.0
  1
15
 50
90.0
100
AcDbText
  0
TEXT
  5
197
330
17
100
AcDbEntity
  8
Painéis
 62
240
370
25
100
AcDbText
 10
7865.607148996049
 20
5498.655327427901
 30
0.0
 40
10.0
  1
44
 50
90.0
100
AcDbText
  0
TEXT
  5
198
330
17
100
AcDbEntity
  8
Painéis
 62
240
370
25
100
AcDbText
 10
7888.672834339593
 20
5506.155327427901
 30
0.0
 40
10.0
  1
59
 50
90.0
100
AcDbText
  0
TEXT
  5
199
330
17
100
AcDbEntity
  8
COTA
 62
240
370
25
100
AcDbText
 10
8339.00386392831
 20
5669.054499093119
 30
0.0
 40
10.0
  1
244
100
AcDbText
  0
TEXT
  5
19A
330
17
100
AcDbEntity
  8
COTA
 62
240
370
25
100
AcDbText
 10
8506.00386392831
 20
5669.112978625294
 30
0.0
 40
10.0
  1
90
100
AcDbText
  0
TEXT
  5
19B
330
17
100
AcDbEntity
  8
COTA
 62
240
370
25
100
AcDbText
 10
8384.00386392831
 20
5640.662187234807
 30
0.0
 40
10.0
  1
334
100
AcDbText
  0
TEXT
  5
19C
330
17
100
AcDbEntity
  8
Painéis
 62
240
370
25
100
AcDbText
 10
8586.271646968189
 20
5757.206998170688
 30
0.0
 40
10.0
  1
15
 50
90.0
100
AcDbText
  0
TEXT
  5
19D
330
17
100
AcDbEntity
  8
Painéis
 62
240
370
25
100
AcDbText
 10
8586.308196675785
 20
5709.521325656068
 30
0.0
 40
10.0
  1
44
 50
90.0
100
AcDbText
  0
TEXT
  5
19E
330
17
100
AcDbEntity
  8
Painéis
 62
240
370
25
100
AcDbText
 10
8609.37388201933
 20
5717.021325656069
 30
0.0
 40
10.0
  1
59
 50
90.0
100
AcDbText
  0
TEXT
  5
19F
330
17
100
AcDbEntity
  8
COTA
 62
240
370
25
100
AcDbText
 10
8340.00386392831
 20
5458.217740631034
 30
0.0
 40
10.0
  1
246
100
AcDbText
  0
TEXT
  5
1A0
330
17
100
AcDbEntity
  8
COTA
 62
240
370
25
100
AcDbText
 10
8507.003863928308
 20
5458.210430689525
 30
0.0
 40
10.0
  1
88
100
AcDbText
  0
TEXT
  5
1A1
330
17
100
AcDbEntity
  8
COTA
 62
240
370
25
100
AcDbText
 10
8384.00386392831
 20
5429.796189006639
 30
0.0
 40
10.0
  1
334
100
AcDbText
  0
TEXT
  5
1A2
330
17
100
AcDbEntity
  8
Painéis
 62
240
370
25
100
AcDbText
 10
8586.271646968193
 20
5546.34099994252
 30
0.0
 40
10.0
  1
15
 50
90.0
100
AcDbText
  0
TEXT
  5
1A3
330
17
100
AcDbEntity
  8
Painéis
 62
240
370
25
100
AcDbText
 10
8586.308196675789
 20
5498.655327427901
 30
0.0
 40
10.0
  1
44
 50
90.0
100
AcDbText
  0
TEXT
  5
1A4
330
17
100
AcDbEntity
  8
Painéis
 62
240
370
25
100
AcDbText
 10
8609.373882019334
 20
5506.155327427901
 30
0.0
 40
10.0
  1
59
 50
90.0
100
AcDbText
  0
TEXT
  5
1A5
330
17
100
AcDbEntity
  8
COTA
 62
240
370
25
100
AcDbText
 10
8204.948308372754
 20
5467.991379948499
 30
0.0
 40
10.0
  1
2
100
AcDbText
  0
TEXT
  5
1A6
330
17
100
AcDbEntity
  8
COTA
 62
240
370
25
100
AcDbText
 10
8563.059419483865
 20
5678.857378176667
 30
0.0
 40
10.0
  1
2
100
AcDbText
  0
TEXT
  5
1A7
330
17
100
AcDbEntity
  8
COTA
 62
1
370
25
100
AcDbText
 10
7779.220771200244
 20
5957.968428766662
 30
0.0
 40
7.0
  1
13
 50
90.0
100
AcDbText
  0
TEXT
  5
1A8
330
17
100
AcDbEntity
  8
COTA
 62
1
370
25
100
AcDbText
 10
7556.372315353157
 20
5911.968428766672
 30
0.0
 40
7.0
  1
59
 50
90.0
100
AcDbText
  0
TEXT
  5
1A9
330
17
100
AcDbEntity
  8
COTA
 62
1
370
25
100
AcDbText
 10
7779.220771200663
 20
5896.968428766665
 30
0.0
 40
7.0
  1
44
 50
90.0
100
AcDbText
  0
TEXT
  5
1AA
330
17
100
AcDbEntity
  8
Cota Seção (2x)
 62
1
370
25
100
AcDbText
 10
7695.849038443973
 20
5928.968428766641
 30
0.0
 40
7.0
  1
55
 50
90.0
100
AcDbText
  0
TEXT
  5
1AB
330
17
100
AcDbEntity
  8
COTA
 62
1
370
25
100
AcDbText
 10
7575.691743838621
 20
5957.968428766658
 30
0.0
 40
7.0
  1
13
 50
90.0
100
AcDbText
  0
TEXT
  5
1AC
330
17
100
AcDbEntity
  8
COTA
 62
1
370
25
100
AcDbText
 10
7575.691743838952
 20
5896.968428766662
 30
0.0
 40
7.0
  1
44
 50
90.0
100
AcDbText
  0
TEXT
  5
1AD
330
17
100
AcDbEntity
  8
COTA
 62
1
370
25
100
AcDbText
 10
7674.849038442314
 20
5813.741614964488
 30
0.0
 40
7.0
  1
19
100
AcDbText
  0
TEXT
  5
1AE
330
17
100
AcDbEntity
  8
Cota Seção (2x)
 62
1
370
25
100
AcDbText
 10
7674.849038442284
 20
5880.468428766678
 30
0.0
 40
7.0
  1
19
100
AcDbText
  0
TEXT
  5
1AF
330
17
100
AcDbEntity
  8
COTA
 62
1
370
25
100
AcDbText
 10
8510.921818879982
 20
5957.968428766662
 30
0.0
 40
7.0
  1
13
 50
90.0
100
AcDbText
  0
TEXT
  5
1B0
330
17
100
AcDbEntity
  8
COTA
 62
1
370
25
100
AcDbText
 10
8288.073363032894
 20
5911.968428766672
 30
0.0
 40
7.0
  1
59
 50
90.0
100
AcDbText
  0
TEXT
  5
1B1
330
17
100
AcDbEntity
  8
COTA
 62
1
370
25
100
AcDbText
 10
8510.9218188804
 20
5896.968428766665
 30
0.0
 40
7.0
  1
44
 50
90.0
100
AcDbText
  0
TEXT
  5
1B2
330
17
100
AcDbEntity
  8
Cota Seção (2x)
 62
1
370
25
100
AcDbText
 10
8427.550086123709
 20
5928.968428766641
 30
0.0
 40
7.0
  1
55
 50
90.0
100
AcDbText
  0
TEXT
  5
1B3
330
17
100
AcDbEntity
  8
COTA
 62
1
370
25
100
AcDbText
 10
8307.39279151836
 20
5957.968428766658
 30
0.0
 40
7.0
  1
13
 50
90.0
100
AcDbText
  0
TEXT
  5
1B4
330
17
100
AcDbEntity
  8
COTA
 62
1
370
25
100
AcDbText
 10
8307.39279151869
 20
5896.968428766662
 30
0.0
 40
7.0
  1
44
 50
90.0
100
AcDbText
  0
TEXT
  5
1B5
330
17
100
AcDbEntity
  8
COTA
 62
1
370
25
100
AcDbText
 10
8406.550086122052
 20
5813.741614964488
 30
0.0
 40
7.0
  1
19
100
AcDbText
  0
TEXT
  5
1B6
330
17
100
AcDbEntity
  8
Cota Seção (2x)
 62
1
370
25
100
AcDbText
 10
8406.550086122023
 20
5880.468428766678
 30
0.0
 40
7.0
  1
19
100
AcDbText
  0
TEXT
  5
1B7
330
17
100
AcDbEntity
  8
Texto Seção
 62
3
370
15
100
AcDbText
 10
7677.04903844231
 20
6042.417193139651
 30
0.0
 40
17.0
  1

100
AcDbText
  0
TEXT
  5
1B8
330
17
100
AcDbEntity
  8
Texto Seção
 62
3
370
15
100
AcDbText
 10
7677.04903844231
 20
6012.51660849533
 30
0.0
 40
12.0
  1

100
AcDbText
  0
TEXT
  5
1B9
330
17
100
AcDbEntity
  8
Texto Seção
 62
7
370
15
100
AcDbText
 10
7677.04903844231
 20
5986.545179606844
 30
0.0
 40
10.0
  1

100
AcDbText
  0
TEXT
  5
1BA
330
17
100
AcDbEntity
  8
Texto Seção
 62
3
370
15
100
AcDbText
 10
8408.750086122047
 20
6042.417193139651
 30
0.0
 40
17.0
  1

100
AcDbText
  0
TEXT
  5
1BB
330
17
100
AcDbEntity
  8
Texto Seção
 62
3
370
15
100
AcDbText
 10
8408.750086122047
 20
6012.51660849533
 30
0.0
 40
12.0
  1

100
AcDbText
  0
TEXT
  5
1BC
330
17
100
AcDbEntity
  8
Texto Seção
 62
7
370
15
100
AcDbText
 10
8408.750086122047
 20
5986.545179606844
 30
0.0
 40
10.0
  1

100
AcDbText
  0
HATCH
  5
1BD
330
17
100
AcDbEntity
  8
COTA
 62
7
100
AcDbHatch
 10
0.0
 20
0.0
 30
0.0
210
0.0
220
0.0
230
1.0
  2
AR-CONC
 70
0
 71
0
 91
1
 92
3
 72
0
 73
1
 93
5
 10
7830.30281624857
 20
5731.521325656093
 10
7830.302816248568
 20
5746.521325656071
 10
7485.052816248568
 20
5746.52132565607
 10
7485.302816248569
 20
5731.521325656071
 10
7830.30281624857
 20
5731.521325656093
 97
0
 75
1
 76
1
 52
0.0
 41
1.0
 77
0
 78
13
 53
50.0
 43
0.0
 44
0.0
 45
182.184668996
 46
-15.9390855389
 79
2
 49
19.05
 49
-209.55
 53
355.0
 43
0.0
 44
0.0
 45
-35.243421425
 46
191.056845239
 79
2
 49
15.24
 49
-167.64058417
 53
100.4514447
 43
15.182007
 44
-1.3282535
 45
146.9412470904
 46
175.1177519122
 79
2
 49
16.1900088
 49
-178.0902446
 53
46.1842
 43
0.0
 44
50.8
 45
271.0790408921
 46
-42.0423279327
 79
2
 49
28.575
 49
-314.325
 53
96.63555761
 43
22.5899
 44
47.2965
 45
237.4041340515
 46
247.4261245977
 79
2
 49
24.28502314
 49
-267.13560816
 53
351.18415117
 43
0.0
 44
50.8
 45
237.404134065
 46
247.4261245855
 79
2
 49
22.85996707
 49
-251.45973192
 53
21.0
 43
25.4
 44
38.1
 45
151.6143912691
 46
-102.2651981871
 79
2
 49
19.05
 49
-209.55
 53
326.0
 43
25.4
 44
38.1
 45
61.8020283476
 46
184.1879661223
 79
2
 49
15.24
 49
-167.64
 53
71.451445
 43
38.0345326
 44
29.5779001
 45
213.4164192787
 46
81.9227688859
 79
2
 49
16.1900088
 49
-178.0899376
 53
37.5
 43
0.0
 44
0.0
 45
3.0886032506
 46
84.5550388732
 79
6
 49
0.0
 49
-165.608
 49
0.0
 49
-170.18
 49
0.0
 49
-168.275
 53
7.5
 43
0.0
 44
0.0
 45
66.8196625103
 46
100.1805748181
 79
6
 49
0.0
 49
-97.028
 49
0.0
 49
-161.798
 49
0.0
 49
-64.135
 53
-32.5
 43
-56.642
 44
0.0
 45
135.5905951669
 46
-5.7287439927
 79
6
 49
0.0
 49
-63.5
 49
0.0
 49
-198.12
 49
0.0
 49
-262.89
 53
-42.5
 43
-82.042
 44
0.0
 45
148.129181386
 46
25.4264910333
 79
6
 49
0.0
 49
-82.55
 49
0.0
 49
-131.572
 49
0.0
 49
-186.69
 98
0
  0
HATCH
  5
1BE
330
17
100
AcDbEntity
  8
COTA
 62
7
100
AcDbHatch
 10
0.0
 20
0.0
 30
0.0
210
0.0
220
0.0
230
1.0
  2
AR-CONC
 70
0
 71
0
 91
1
 92
3
 72
0
 73
1
 93
5
 10
7830.302816248568
 20
5520.655327427924
 10
7830.302816248568
 20
5535.655327427905
 10
7485.052816248568
 20
5535.655327427902
 10
7485.302816248569
 20
5520.655327427903
 10
7830.302816248568
 20
5520.655327427924
 97
0
 75
1
 76
1
 52
0.0
 41
1.0
 77
0
 78
13
 53
50.0
 43
0.0
 44
0.0
 45
182.184668996
 46
-15.9390855389
 79
2
 49
19.05
 49
-209.55
 53
355.0
 43
0.0
 44
0.0
 45
-35.243421425
 46
191.056845239
 79
2
 49
15.24
 49
-167.64058417
 53
100.4514447
 43
15.182007
 44
-1.3282535
 45
146.9412470904
 46
175.1177519122
 79
2
 49
16.1900088
 49
-178.0902446
 53
46.1842
 43
0.0
 44
50.8
 45
271.0790408921
 46
-42.0423279327
 79
2
 49
28.575
 49
-314.325
 53
96.63555761
 43
22.5899
 44
47.2965
 45
237.4041340515
 46
247.4261245977
 79
2
 49
24.28502314
 49
-267.13560816
 53
351.18415117
 43
0.0
 44
50.8
 45
237.404134065
 46
247.4261245855
 79
2
 49
22.85996707
 49
-251.45973192
 53
21.0
 43
25.4
 44
38.1
 45
151.6143912691
 46
-102.2651981871
 79
2
 49
19.05
 49
-209.55
 53
326.0
 43
25.4
 44
38.1
 45
61.8020283476
 46
184.1879661223
 79
2
 49
15.24
 49
-167.64
 53
71.451445
 43
38.0345326
 44
29.5779001
 45
213.4164192787
 46
81.9227688859
 79
2
 49
16.1900088
 49
-178.0899376
 53
37.5
 43
0.0
 44
0.0
 45
3.0886032506
 46
84.5550388732
 79
6
 49
0.0
 49
-165.608
 49
0.0
 49
-170.18
 49
0.0
 49
-168.275
 53
7.5
 43
0.0
 44
0.0
 45
66.8196625103
 46
100.1805748181
 79
6
 49
0.0
 49
-97.028
 49
0.0
 49
-161.798
 49
0.0
 49
-64.135
 53
-32.5
 43
-56.642
 44
0.0
 45
135.5905951669
 46
-5.7287439927
 79
6
 49
0.0
 49
-63.5
 49
0.0
 49
-198.12
 49
0.0
 49
-262.89
 53
-42.5
 43
-82.042
 44
0.0
 45
148.129181386
 46
25.4264910333
 79
6
 49
0.0
 49
-82.55
 49
0.0
 49
-131.572
 49
0.0
 49
-186.69
 98
0
  0
HATCH
  5
1BF
330
17
100
AcDbEntity
  8
COTA
 62
7
100
AcDbHatch
 10
0.0
 20
0.0
 30
0.0
210
0.0
220
0.0
230
1.0
  2
AR-CONC
 70
0
 71
0
 91
1
 92
3
 72
0
 73
1
 93
5
 10
8551.003863928307
 20
5731.521325656093
 10
8551.003863928307
 20
5746.521325656071
 10
8216.753863928305
 20
5746.52132565607
 10
8217.003863928305
 20
5731.52132565607
 10
8551.003863928307
 20
5731.521325656093
 97
0
 75
1
 76
1
 52
0.0
 41
1.0
 77
0
 78
13
 53
50.0
 43
0.0
 44
0.0
 45
182.184668996
 46
-15.9390855389
 79
2
 49
19.05
 49
-209.55
 53
355.0
 43
0.0
 44
0.0
 45
-35.243421425
 46
191.056845239
 79
2
 49
15.24
 49
-167.64058417
 53
100.4514447
 43
15.182007
 44
-1.3282535
 45
146.9412470904
 46
175.1177519122
 79
2
 49
16.1900088
 49
-178.0902446
 53
46.1842
 43
0.0
 44
50.8
 45
271.0790408921
 46
-42.0423279327
 79
2
 49
28.575
 49
-314.325
 53
96.63555761
 43
22.5899
 44
47.2965
 45
237.4041340515
 46
247.4261245977
 79
2
 49
24.28502314
 49
-267.13560816
 53
351.18415117
 43
0.0
 44
50.8
 45
237.404134065
 46
247.4261245855
 79
2
 49
22.85996707
 49
-251.45973192
 53
21.0
 43
25.4
 44
38.1
 45
151.6143912691
 46
-102.2651981871
 79
2
 49
19.05
 49
-209.55
 53
326.0
 43
25.4
 44
38.1
 45
61.8020283476
 46
184.1879661223
 79
2
 49
15.24
 49
-167.64
 53
71.451445
 43
38.0345326
 44
29.5779001
 45
213.4164192787
 46
81.9227688859
 79
2
 49
16.1900088
 49
-178.0899376
 53
37.5
 43
0.0
 44
0.0
 45
3.0886032506
 46
84.5550388732
 79
6
 49
0.0
 49
-165.608
 49
0.0
 49
-170.18
 49
0.0
 49
-168.275
 53
7.5
 43
0.0
 44
0.0
 45
66.8196625103
 46
100.1805748181
 79
6
 49
0.0
 49
-97.028
 49
0.0
 49
-161.798
 49
0.0
 49
-64.135
 53
-32.5
 43
-56.642
 44
0.0
 45
135.5905951669
 46
-5.7287439927
 79
6
 49
0.0
 49
-63.5
 49
0.0
 49
-198.12
 49
0.0
 49
-262.89
 53
-42.5
 43
-82.042
 44
0.0
 45
148.129181386
 46
25.4264910333
 79
6
 49
0.0
 49
-82.55
 49
0.0
 49
-131.572
 49
0.0
 49
-186.69
 98
0
  0
HATCH
  5
1C0
330
17
100
AcDbEntity
  8
COTA
 62
7
100
AcDbHatch
 10
0.0
 20
0.0
 30
0.0
210
0.0
220
0.0
230
1.0
  2
AR-CONC
 70
0
 71
0
 91
1
 92
3
 72
0
 73
1
 93
5
 10
8551.003863928307
 20
5520.655327427924
 10
8551.003863928307
 20
5535.655327427904
 10
8216.753863928305
 20
5535.655327427902
 10
8217.003863928305
 20
5520.655327427903
 10
8551.003863928307
 20
5520.655327427924
 97
0
 75
1
 76
1
 52
0.0
 41
1.0
 77
0
 78
13
 53
50.0
 43
0.0
 44
0.0
 45
182.184668996
 46
-15.9390855389
 79
2
 49
19.05
 49
-209.55
 53
355.0
 43
0.0
 44
0.0
 45
-35.243421425
 46
191.056845239
 79
2
 49
15.24
 49
-167.64058417
 53
100.4514447
 43
15.182007
 44
-1.3282535
 45
146.9412470904
 46
175.1177519122
 79
2
 49
16.1900088
 49
-178.0902446
 53
46.1842
 43
0.0
 44
50.8
 45
271.0790408921
 46
-42.0423279327
 79
2
 49
28.575
 49
-314.325
 53
96.63555761
 43
22.5899
 44
47.2965
 45
237.4041340515
 46
247.4261245977
 79
2
 49
24.28502314
 49
-267.13560816
 53
351.18415117
 43
0.0
 44
50.8
 45
237.404134065
 46
247.4261245855
 79
2
 49
22.85996707
 49
-251.45973192
 53
21.0
 43
25.4
 44
38.1
 45
151.6143912691
 46
-102.2651981871
 79
2
 49
19.05
 49
-209.55
 53
326.0
 43
25.4
 44
38.1
 45
61.8020283476
 46
184.1879661223
 79
2
 49
15.24
 49
-167.64
 53
71.451445
 43
38.0345326
 44
29.5779001
 45
213.4164192787
 46
81.9227688859
 79
2
 49
16.1900088
 49
-178.0899376
 53
37.5
 43
0.0
 44
0.0
 45
3.0886032506
 46
84.5550388732
 79
6
 49
0.0
 49
-165.608
 49
0.0
 49
-170.18
 49
0.0
 49
-168.275
 53
7.5
 43
0.0
 44
0.0
 45
66.8196625103
 46
100.1805748181
 79
6
 49
0.0
 49
-97.028
 49
0.0
 49
-161.798
 49
0.0
 49
-64.135
 53
-32.5
 43
-56.642
 44
0.0
 45
135.5905951669
 46
-5.7287439927
 79
6
 49
0.0
 49
-63.5
 49
0.0
 49
-198.12
 49
0.0
 49
-262.89
 53
-42.5
 43
-82.042
 44
0.0
 45
148.129181386
 46
25.4264910333
 79
6
 49
0.0
 49
-82.55
 49
0.0
 49
-131.572
 49
0.0
 49
-186.69
 98
0
  0
HATCH
  5
1C1
330
17
100
AcDbEntity
  8
Hachura
 62
7
100
AcDbHatch
 10
0.0
 20
0.0
 30
0.0
210
0.0
220
0.0
230
1.0
  2
SOLID
 70
1
 71
0
 91
1
 92
3
 72
0
 73
1
 93
5
 10
7651.849038442313
 20
5940.968428766655
 10
7655.849038442314
 20
5940.968428766655
 10
7655.849038442314
 20
5852.968428766678
 10
7651.849038442313
 20
5852.968428766678
 10
7651.849038442313
 20
5940.968428766655
 97
0
 75
1
 76
1
 98
0
  0
HATCH
  5
1C2
330
17
100
AcDbEntity
  8
Hachura
 62
7
100
AcDbHatch
 10
0.0
 20
0.0
 30
0.0
210
0.0
220
0.0
230
1.0
  2
ANSI31
 70
0
 71
0
 91
1
 92
3
 72
0
 73
1
 93
5
 10
7693.849038442313
 20
5852.968428766678
 10
7693.849038442313
 20
5857.368428766672
 10
7679.849038442313
 20
5857.368428766672
 10
7679.849038442313
 20
5852.968428766678
 10
7693.849038442313
 20
5852.968428766678
 97
0
 75
1
 76
1
 52
0.0
 41
1.0
 77
0
 78
1
 53
45.0
 43
0.0
 44
0.0
 45
-2.2450640303
 46
2.2450640303
 79
0
 98
0
  0
HATCH
  5
1C3
330
17
100
AcDbEntity
  8
Hachura
 62
7
100
AcDbHatch
 10
0.0
 20
0.0
 30
0.0
210
0.0
220
0.0
230
1.0
  2
SOLID
 70
1
 71
0
 91
1
 92
3
 72
0
 73
1
 93
5
 10
7693.849038442313
 20
5857.368428766672
 10
7693.849038442313
 20
5860.968428766678
 10
7655.849038442314
 20
5860.968428766678
 10
7655.849038442314
 20
5857.368428766672
 10
7693.849038442313
 20
5857.368428766672
 97
0
 75
1
 76
1
 98
0
  0
HATCH
  5
1C4
330
17
100
AcDbEntity
  8
Hachura
 62
7
100
AcDbHatch
 10
0.0
 20
0.0
 30
0.0
210
0.0
220
0.0
230
1.0
  2
ANSI31
 70
0
 71
0
 91
1
 92
3
 72
0
 73
1
 93
5
 10
7655.849038442314
 20
5852.968428766678
 10
7655.849038442314
 20
5857.368428766672
 10
7669.849038442314
 20
5857.368428766672
 10
7669.849038442314
 20
5852.968428766678
 10
7655.849038442314
 20
5852.968428766678
 97
0
 75
1
 76
1
 52
0.0
 41
1.0
 77
0
 78
1
 53
45.0
 43
0.0
 44
0.0
 45
-2.2450640303
 46
2.2450640303
 79
0
 98
0
  0
HATCH
  5
1C5
330
17
100
AcDbEntity
  8
Hachura
 62
7
100
AcDbHatch
 10
0.0
 20
0.0
 30
0.0
210
0.0
220
0.0
230
1.0
  2
SOLID
 70
1
 71
0
 91
1
 92
3
 72
0
 73
1
 93
5
 10
7697.849038442313
 20
5942.968428766656
 10
7693.849038442313
 20
5942.968428766656
 10
7693.849038442313
 20
5852.968428766678
 10
7697.849038442313
 20
5852.968428766678
 10
7697.849038442313
 20
5942.968428766656
 97
0
 75
1
 76
1
 98
0
  0
HATCH
  5
1C6
330
17
100
AcDbEntity
  8
Hachura
 62
7
100
AcDbHatch
 10
0.0
 20
0.0
 30
0.0
210
0.0
220
0.0
230
1.0
  2
SOLID
 70
1
 71
0
 91
1
 92
3
 72
0
 73
1
 93
5
 10
7753.849038442284
 20
5940.968428766655
 10
7753.849038442284
 20
5944.968428766657
 10
7693.849038442313
 20
5944.968428766657
 10
7693.849038442313
 20
5940.968428766655
 10
7753.849038442284
 20
5940.968428766655
 97
0
 75
1
 76
1
 98
0
  0
HATCH
  5
1C7
330
17
100
AcDbEntity
  8
Hachura
 62
7
100
AcDbHatch
 10
0.0
 20
0.0
 30
0.0
210
0.0
220
0.0
230
1.0
  2
SOLID
 70
1
 71
0
 91
1
 92
3
 72
0
 73
1
 93
5
 10
7655.849038442314
 20
5940.968428766655
 10
7655.849038442314
 20
5944.968428766657
 10
7600.249038442337
 20
5944.968428766649
 10
7600.249038442337
 20
5940.968428766648
 10
7655.849038442314
 20
5940.968428766655
 97
0
 75
1
 76
1
 98
0
  0
HATCH
  5
1C8
330
17
100
AcDbEntity
  8
Hachura
 62
7
100
AcDbHatch
 10
0.0
 20
0.0
 30
0.0
210
0.0
220
0.0
230
1.0
  2
ANSI31
 70
0
 71
0
 91
1
 92
3
 72
0
 73
1
 93
5
 10
7647.449038442319
 20
5926.968428766656
 10
7651.849038442313
 20
5926.968428766656
 10
7651.849038442313
 20
5940.968428766655
 10
7647.449038442319
 20
5940.968428766655
 10
7647.449038442319
 20
5926.968428766656
 97
0
 75
1
 76
1
 52
0.0
 41
1.0
 77
0
 78
1
 53
45.0
 43
0.0
 44
0.0
 45
-2.2450640303
 46
2.2450640303
 79
0
 98
0
  0
HATCH
  5
1C9
330
17
100
AcDbEntity
  8
Hachura
 62
7
100
AcDbHatch
 10
0.0
 20
0.0
 30
0.0
210
0.0
220
0.0
230
1.0
  2
ANSI31
 70
0
 71
0
 91
1
 92
3
 72
0
 73
1
 93
5
 10
7647.449038442319
 20
5852.968428766678
 10
7651.849038442313
 20
5852.968428766678
 10
7651.849038442313
 20
5866.968428766678
 10
7647.449038442319
 20
5866.968428766678
 10
7647.449038442319
 20
5852.968428766678
 97
0
 75
1
 76
1
 52
0.0
 41
1.0
 77
0
 78
1
 53
45.0
 43
0.0
 44
0.0
 45
-2.2450640303
 46
2.2450640303
 79
0
 98
0
  0
HATCH
  5
1CA
330
17
100
AcDbEntity
  8
Hachura
 62
7
100
AcDbHatch
 10
0.0
 20
0.0
 30
0.0
210
0.0
220
0.0
230
1.0
  2
ANSI31
 70
0
 71
0
 91
1
 92
3
 72
0
 73
1
 93
5
 10
7702.249038442308
 20
5926.968428766656
 10
7697.849038442313
 20
5926.968428766656
 10
7697.849038442313
 20
5940.968428766655
 10
7702.249038442308
 20
5940.968428766655
 10
7702.249038442308
 20
5926.968428766656
 97
0
 75
1
 76
1
 52
0.0
 41
1.0
 77
0
 78
1
 53
45.0
 43
0.0
 44
0.0
 45
-2.2450640303
 46
2.2450640303
 79
0
 98
0
  0
HATCH
  5
1CB
330
17
100
AcDbEntity
  8
Hachura
 62
7
100
AcDbHatch
 10
0.0
 20
0.0
 30
0.0
210
0.0
220
0.0
230
1.0
  2
ANSI31
 70
0
 71
0
 91
1
 92
3
 72
0
 73
1
 93
5
 10
7702.249038442308
 20
5852.968428766678
 10
7697.849038442313
 20
5852.968428766678
 10
7697.849038442313
 20
5866.968428766678
 10
7702.249038442308
 20
5866.968428766678
 10
7702.249038442308
 20
5852.968428766678
 97
0
 75
1
 76
1
 52
0.0
 41
1.0
 77
0
 78
1
 53
45.0
 43
0.0
 44
0.0
 45
-2.2450640303
 46
2.2450640303
 79
0
 98
0
  0
HATCH
  5
1CC
330
17
100
AcDbEntity
  8
Hachura
 62
7
100
AcDbHatch
 10
0.0
 20
0.0
 30
0.0
210
0.0
220
0.0
230
1.0
  2
ANSI31
 70
0
 71
0
 91
1
 92
3
 72
0
 73
1
 93
5
 10
7647.449038442319
 20
5889.968428766668
 10
7651.849038442313
 20
5889.968428766668
 10
7651.849038442313
 20
5903.968428766667
 10
7647.449038442319
 20
5903.968428766667
 10
7647.449038442319
 20
5889.968428766668
 97
0
 75
1
 76
1
 52
0.0
 41
1.0
 77
0
 78
1
 53
45.0
 43
0.0
 44
0.0
 45
-2.2450640303
 46
2.2450640303
 79
0
 98
0
  0
HATCH
  5
1CD
330
17
100
AcDbEntity
  8
Hachura
 62
7
100
AcDbHatch
 10
0.0
 20
0.0
 30
0.0
210
0.0
220
0.0
230
1.0
  2
ANSI31
 70
0
 71
0
 91
1
 92
3
 72
0
 73
1
 93
5
 10
7702.249038442308
 20
5889.968428766668
 10
7697.849038442313
 20
5889.968428766668
 10
7697.849038442313
 20
5903.968428766667
 10
7702.249038442308
 20
5903.968428766667
 10
7702.249038442308
 20
5889.968428766668
 97
0
 75
1
 76
1
 52
0.0
 41
1.0
 77
0
 78
1
 53
45.0
 43
0.0
 44
0.0
 45
-2.2450640303
 46
2.2450640303
 79
0
 98
0
  0
HATCH
  5
1CE
330
17
100
AcDbEntity
  8
Hachura
 62
7
100
AcDbHatch
 10
0.0
 20
0.0
 30
0.0
210
0.0
220
0.0
230
1.0
  2
SOLID
 70
1
 71
0
 91
1
 92
3
 72
0
 73
1
 93
5
 10
8383.55008612205
 20
5940.968428766655
 10
8387.55008612205
 20
5940.968428766655
 10
8387.55008612205
 20
5852.968428766678
 10
8383.55008612205
 20
5852.968428766678
 10
8383.55008612205
 20
5940.968428766655
 97
0
 75
1
 76
1
 98
0
  0
HATCH
  5
1CF
330
17
100
AcDbEntity
  8
Hachura
 62
7
100
AcDbHatch
 10
0.0
 20
0.0
 30
0.0
210
0.0
220
0.0
230
1.0
  2
ANSI31
 70
0
 71
0
 91
1
 92
3
 72
0
 73
1
 93
5
 10
8425.55008612205
 20
5852.968428766678
 10
8425.55008612205
 20
5857.368428766672
 10
8411.55008612205
 20
5857.368428766672
 10
8411.55008612205
 20
5852.968428766678
 10
8425.55008612205
 20
5852.968428766678
 97
0
 75
1
 76
1
 52
0.0
 41
1.0
 77
0
 78
1
 53
45.0
 43
0.0
 44
0.0
 45
-2.2450640303
 46
2.2450640303
 79
0
 98
0
  0
HATCH
  5
1D0
330
17
100
AcDbEntity
  8
Hachura
 62
7
100
AcDbHatch
 10
0.0
 20
0.0
 30
0.0
210
0.0
220
0.0
230
1.0
  2
SOLID
 70
1
 71
0
 91
1
 92
3
 72
0
 73
1
 93
5
 10
8425.55008612205
 20
5857.368428766672
 10
8425.55008612205
 20
5860.968428766678
 10
8387.55008612205
 20
5860.968428766678
 10
8387.55008612205
 20
5857.368428766672
 10
8425.55008612205
 20
5857.368428766672
 97
0
 75
1
 76
1
 98
0
  0
HATCH
  5
1D1
330
17
100
AcDbEntity
  8
Hachura
 62
7
100
AcDbHatch
 10
0.0
 20
0.0
 30
0.0
210
0.0
220
0.0
230
1.0
  2
ANSI31
 70
0
 71
0
 91
1
 92
3
 72
0
 73
1
 93
5
 10
8387.55008612205
 20
5852.968428766678
 10
8387.55008612205
 20
5857.368428766672
 10
8401.55008612205
 20
5857.368428766672
 10
8401.55008612205
 20
5852.968428766678
 10
8387.55008612205
 20
5852.968428766678
 97
0
 75
1
 76
1
 52
0.0
 41
1.0
 77
0
 78
1
 53
45.0
 43
0.0
 44
0.0
 45
-2.2450640303
 46
2.2450640303
 79
0
 98
0
  0
HATCH
  5
1D2
330
17
100
AcDbEntity
  8
Hachura
 62
7
100
AcDbHatch
 10
0.0
 20
0.0
 30
0.0
210
0.0
220
0.0
230
1.0
  2
SOLID
 70
1
 71
0
 91
1
 92
3
 72
0
 73
1
 93
5
 10
8429.55008612205
 20
5942.968428766656
 10
8425.55008612205
 20
5942.968428766656
 10
8425.55008612205
 20
5852.968428766678
 10
8429.55008612205
 20
5852.968428766678
 10
8429.55008612205
 20
5942.968428766656
 97
0
 75
1
 76
1
 98
0
  0
HATCH
  5
1D3
330
17
100
AcDbEntity
  8
Hachura
 62
7
100
AcDbHatch
 10
0.0
 20
0.0
 30
0.0
210
0.0
220
0.0
230
1.0
  2
SOLID
 70
1
 71
0
 91
1
 92
3
 72
0
 73
1
 93
5
 10
8485.55008612202
 20
5940.968428766655
 10
8485.55008612202
 20
5944.968428766657
 10
8425.55008612205
 20
5944.968428766657
 10
8425.55008612205
 20
5940.968428766655
 10
8485.55008612202
 20
5940.968428766655
 97
0
 75
1
 76
1
 98
0
  0
HATCH
  5
1D4
330
17
100
AcDbEntity
  8
Hachura
 62
7
100
AcDbHatch
 10
0.0
 20
0.0
 30
0.0
210
0.0
220
0.0
230
1.0
  2
SOLID
 70
1
 71
0
 91
1
 92
3
 72
0
 73
1
 93
5
 10
8387.55008612205
 20
5940.968428766655
 10
8387.55008612205
 20
5944.968428766657
 10
8331.950086122073
 20
5944.968428766649
 10
8331.950086122073
 20
5940.968428766648
 10
8387.55008612205
 20
5940.968428766655
 97
0
 75
1
 76
1
 98
0
  0
HATCH
  5
1D5
330
17
100
AcDbEntity
  8
Hachura
 62
7
100
AcDbHatch
 10
0.0
 20
0.0
 30
0.0
210
0.0
220
0.0
230
1.0
  2
ANSI31
 70
0
 71
0
 91
1
 92
3
 72
0
 73
1
 93
5
 10
8379.150086122056
 20
5926.968428766656
 10
8383.55008612205
 20
5926.968428766656
 10
8383.55008612205
 20
5940.968428766655
 10
8379.150086122056
 20
5940.968428766655
 10
8379.150086122056
 20
5926.968428766656
 97
0
 75
1
 76
1
 52
0.0
 41
1.0
 77
0
 78
1
 53
45.0
 43
0.0
 44
0.0
 45
-2.2450640303
 46
2.2450640303
 79
0
 98
0
  0
HATCH
  5
1D6
330
17
100
AcDbEntity
  8
Hachura
 62
7
100
AcDbHatch
 10
0.0
 20
0.0
 30
0.0
210
0.0
220
0.0
230
1.0
  2
ANSI31
 70
0
 71
0
 91
1
 92
3
 72
0
 73
1
 93
5
 10
8379.150086122056
 20
5852.968428766678
 10
8383.55008612205
 20
5852.968428766678
 10
8383.55008612205
 20
5866.968428766678
 10
8379.150086122056
 20
5866.968428766678
 10
8379.150086122056
 20
5852.968428766678
 97
0
 75
1
 76
1
 52
0.0
 41
1.0
 77
0
 78
1
 53
45.0
 43
0.0
 44
0.0
 45
-2.2450640303
 46
2.2450640303
 79
0
 98
0
  0
HATCH
  5
1D7
330
17
100
AcDbEntity
  8
Hachura
 62
7
100
AcDbHatch
 10
0.0
 20
0.0
 30
0.0
210
0.0
220
0.0
230
1.0
  2
ANSI31
 70
0
 71
0
 91
1
 92
3
 72
0
 73
1
 93
5
 10
8433.950086122042
 20
5926.968428766656
 10
8429.55008612205
 20
5926.968428766656
 10
8429.55008612205
 20
5940.968428766655
 10
8433.950086122042
 20
5940.968428766655
 10
8433.950086122042
 20
5926.968428766656
 97
0
 75
1
 76
1
 52
0.0
 41
1.0
 77
0
 78
1
 53
45.0
 43
0.0
 44
0.0
 45
-2.2450640303
 46
2.2450640303
 79
0
 98
0
  0
HATCH
  5
1D8
330
17
100
AcDbEntity
  8
Hachura
 62
7
100
AcDbHatch
 10
0.0
 20
0.0
 30
0.0
210
0.0
220
0.0
230
1.0
  2
ANSI31
 70
0
 71
0
 91
1
 92
3
 72
0
 73
1
 93
5
 10
8433.950086122042
 20
5852.968428766678
 10
8429.55008612205
 20
5852.968428766678
 10
8429.55008612205
 20
5866.968428766678
 10
8433.950086122042
 20
5866.968428766678
 10
8433.950086122042
 20
5852.968428766678
 97
0
 75
1
 76
1
 52
0.0
 41
1.0
 77
0
 78
1
 53
45.0
 43
0.0
 44
0.0
 45
-2.2450640303
 46
2.2450640303
 79
0
 98
0
  0
HATCH
  5
1D9
330
17
100
AcDbEntity
  8
Hachura
 62
7
100
AcDbHatch
 10
0.0
 20
0.0
 30
0.0
210
0.0
220
0.0
230
1.0
  2
ANSI31
 70
0
 71
0
 91
1
 92
3
 72
0
 73
1
 93
5
 10
8379.150086122056
 20
5889.968428766668
 10
8383.55008612205
 20
5889.968428766668
 10
8383.55008612205
 20
5903.968428766667
 10
8379.150086122056
 20
5903.968428766667
 10
8379.150086122056
 20
5889.968428766668
 97
0
 75
1
 76
1
 52
0.0
 41
1.0
 77
0
 78
1
 53
45.0
 43
0.0
 44
0.0
 45
-2.2450640303
 46
2.2450640303
 79
0
 98
0
  0
HATCH
  5
1DA
330
17
100
AcDbEntity
  8
Hachura
 62
7
100
AcDbHatch
 10
0.0
 20
0.0
 30
0.0
210
0.0
220
0.0
230
1.0
  2
ANSI31
 70
0
 71
0
 91
1
 92
3
 72
0
 73
1
 93
5
 10
8433.950086122042
 20
5889.968428766668
 10
8429.55008612205
 20
5889.968428766668
 10
8429.55008612205
 20
5903.968428766667
 10
8433.950086122042
 20
5903.968428766667
 10
8433.950086122042
 20
5889.968428766668
 97
0
 75
1
 76
1
 52
0.0
 41
1.0
 77
0
 78
1
 53
45.0
 43
0.0
 44
0.0
 45
-2.2450640303
 46
2.2450640303
 79
0
 98
0
  0
LINE
  5
1DB
330
17
100
AcDbEntity
  8
SARRAFO DE PRESSAO
 62
30
370
9
100
AcDbLine
 10
7743.841987131498
 20
5125.968428766682
 30
0.0
 11
7743.841987131498
 21
5325.2119421775715
 31
0.0
  0
ENDSEC
  0
SECTION
  2
OBJECTS
  0
DICTIONARY
  5
A
330
0
100
AcDbDictionary
281
1
  3
ACAD_COLOR
350
B
  3
ACAD_GROUP
350
C
  3
ACAD_LAYOUT
350
D
  3
ACAD_MATERIAL
350
E
  3
ACAD_MLEADERSTYLE
350
F
  3
ACAD_MLINESTYLE
350
10
  3
ACAD_PLOTSETTINGS
350
11
  3
ACAD_PLOTSTYLENAME
350
12
  3
ACAD_SCALELIST
350
14
  3
ACAD_TABLESTYLE
350
15
  3
ACAD_VISUALSTYLE
350
16
  3
EZDXF_META
350
2D
  0
DICTIONARY
  5
B
330
A
100
AcDbDictionary
281
1
  0
DICTIONARY
  5
C
330
A
100
AcDbDictionary
281
1
  0
DICTIONARY
  5
D
330
A
100
AcDbDictionary
281
1
  3
Model
350
1A
  3
Layout1
350
1E
  0
DICTIONARY
  5
E
330
A
100
AcDbDictionary
281
1
  3
ByBlock
350
1F
  3
ByLayer
350
20
  3
Global
350
21
  0
DICTIONARY
  5
F
330
A
100
AcDbDictionary
281
1
  3
Standard
350
2C
  0
DICTIONARY
  5
10
330
A
100
AcDbDictionary
281
1
  3
Standard
350
22
  0
DICTIONARY
  5
11
330
A
100
AcDbDictionary
281
1
  0
ACDBDICTIONARYWDFLT
  5
12
330
A
100
AcDbDictionary
281
1
  3
Normal
350
13
100
AcDbDictionaryWithDefault
340
13
  0
ACDBPLACEHOLDER
  5
13
330
12
  0
DICTIONARY
  5
14
330
A
100
AcDbDictionary
281
1
  0
DICTIONARY
  5
15
330
A
100
AcDbDictionary
281
1
  0
DICTIONARY
  5
16
330
A
100
AcDbDictionary
281
1
  0
LAYOUT
  5
1A
330
D
100
AcDbPlotSettings
  1

  4
A3
  6

 40
7.5
 41
20.0
 42
7.5
 43
20.0
 44
420.0
 45
297.0
 46
0.0
 47
0.0
 48
0.0
 49
0.0
140
0.0
141
0.0
142
1.0
143
1.0
 70
1024
 72
1
 73
0
 74
5
  7

 75
16
 76
0
 77
2
 78
300
147
1.0
148
0.0
149
0.0
100
AcDbLayout
  1
Model
 70
1
 71
0
 10
0.0
 20
0.0
 11
420.0
 21
297.0
 12
0.0
 22
0.0
 32
0.0
 14
1e+20
 24
1e+20
 34
1e+20
 15
-1e+20
 25
-1e+20
 35
-1e+20
146
0.0
 13
0.0
 23
0.0
 33
0.0
 16
1.0
 26
0.0
 36
0.0
 17
0.0
 27
1.0
 37
0.0
 76
1
330
17
  0
LAYOUT
  5
1E
330
D
100
AcDbPlotSettings
  1

  4
A3
  6

 40
7.5
 41
20.0
 42
7.5
 43
20.0
 44
420.0
 45
297.0
 46
0.0
 47
0.0
 48
0.0
 49
0.0
140
0.0
141
0.0
142
1.0
143
1.0
 70
0
 72
1
 73
0
 74
5
  7

 75
16
 76
0
 77
2
 78
300
147
1.0
148
0.0
149
0.0
100
AcDbLayout
  1
Layout1
 70
1
 71
1
 10
0.0
 20
0.0
 11
420.0
 21
297.0
 12
0.0
 22
0.0
 32
0.0
 14
1e+20
 24
1e+20
 34
1e+20
 15
-1e+20
 25
-1e+20
 35
-1e+20
146
0.0
 13
0.0
 23
0.0
 33
0.0
 16
1.0
 26
0.0
 36
0.0
 17
0.0
 27
1.0
 37
0.0
 76
1
330
1B
  0
MATERIAL
  5
1F
102
{ACAD_REACTORS
330
E
102
}
330
E
100
AcDbMaterial
  1
ByBlock
  2

 70
0
 40
1.0
 71
1
 41
1.0
 91
-1023410177
 42
1.0
 72
1
  3

 73
1
 74
1
 75
1
 44
0.5
 73
0
 45
1.0
 46
1.0
 77
1
  4

 78
1
 79
1
170
1
 48
1.0
171
1
  6

172
1
173
1
174
1
140
1.0
141
1.0
175
1
  7

176
1
177
1
178
1
143
1.0
179
1
  8

270
1
271
1
272
1
145
1.0
146
1.0
273
1
  9

274
1
275
1
276
1
 42
1.0
 72
1
  3

 73
1
 74
1
 75
1
 94
63
  0
MATERIAL
  5
20
102
{ACAD_REACTORS
330
E
102
}
330
E
100
AcDbMaterial
  1
ByLayer
  2

 70
0
 40
1.0
 71
1
 41
1.0
 91
-1023410177
 42
1.0
 72
1
  3

 73
1
 74
1
 75
1
 44
0.5
 73
0
 45
1.0
 46
1.0
 77
1
  4

 78
1
 79
1
170
1
 48
1.0
171
1
  6

172
1
173
1
174
1
140
1.0
141
1.0
175
1
  7

176
1
177
1
178
1
143
1.0
179
1
  8

270
1
271
1
272
1
145
1.0
146
1.0
273
1
  9

274
1
275
1
276
1
 42
1.0
 72
1
  3

 73
1
 74
1
 75
1
 94
63
  0
MATERIAL
  5
21
102
{ACAD_REACTORS
330
E
102
}
330
E
100
AcDbMaterial
  1
Global
  2

 70
0
 40
1.0
 71
1
 41
1.0
 91
-1023410177
 42
1.0
 72
1
  3

 73
1
 74
1
 75
1
 44
0.5
 73
0
 45
1.0
 46
1.0
 77
1
  4

 78
1
 79
1
170
1
 48
1.0
171
1
  6

172
1
173
1
174
1
140
1.0
141
1.0
175
1
  7

176
1
177
1
178
1
143
1.0
179
1
  8

270
1
271
1
272
1
145
1.0
146
1.0
273
1
  9

274
1
275
1
276
1
 42
1.0
 72
1
  3

 73
1
 74
1
 75
1
 94
63
  0
MLINESTYLE
  5
22
102
{ACAD_REACTORS
330
10
102
}
330
10
100
AcDbMlineStyle
  2
Standard
 70
0
  3

 62
256
 51
90.0
 52
90.0
 71
2
 49
0.5
 62
256
  6
BYLAYER
 49
-0.5
 62
256
  6
BYLAYER
  0
MLEADERSTYLE
  5
2C
102
{ACAD_REACTORS
330
F
102
}
330
F
100
AcDbMLeaderStyle
179
2
170
2
171
1
172
0
 90
2
 40
0.0
 41
0.0
173
1
 91
-1056964608
 92
-2
290
1
 42
2.0
291
1
 43
8.0
  3
Standard
 44
4.0
300

342
29
174
1
175
1
176
0
178
1
 93
-1056964608
 45
4.0
292
0
297
0
 46
4.0
 94
-1056964608
 47
1.0
 49
1.0
140
1.0
294
1
141
0.0
177
0
142
1.0
295
0
296
0
143
3.75
271
0
272
9
273
9
  0
DICTIONARY
  5
2D
330
A
100
AcDbDictionary
280
1
281
1
  3
CREATED_BY_EZDXF
350
2E
  3
WRITTEN_BY_EZDXF
350
1DE
  0
DICTIONARYVAR
  5
2E
330
2D
100
DictionaryVariables
280
0
  1
1.4.3 @ 2026-06-10T04:23:17.018608+00:00
  0
DICTIONARYVAR
  5
1DE
330
2D
100
DictionaryVariables
280
0
  1
1.4.3 @ 2026-06-10T04:23:17.033000+00:00
  0
ENDSEC
  0
EOF
