  0
SECTION
  2
HEADER
  9
$ACADVER
  1
AC1024
  9
$ACADMAINTVER
 70
6
  9
$DWGCODEPAGE
  3
ANSI_1252
  9
$LASTSAVEDBY
  1
ezdxf
  9
$INSBASE
 10
0.0
 20
0.0
 30
0.0
  9
$EXTMIN
 10
1e+20
 20
1e+20
 30
1e+20
  9
$EXTMAX
 10
-1e+20
 20
-1e+20
 30
-1e+20
  9
$LIMMIN
 10
0.0
 20
0.0
  9
$LIMMAX
 10
420.0
 20
297.0
  9
$ORTHOMODE
 70
0
  9
$REGENMODE
 70
1
  9
$FILLMODE
 70
1
  9
$QTEXTMODE
 70
0
  9
$MIRRTEXT
 70
1
  9
$LTSCALE
 40
1.0
  9
$ATTMODE
 70
1
  9
$TEXTSIZE
 40
2.5
  9
$TRACEWID
 40
1.0
  9
$TEXTSTYLE
  7
Standard
  9
$CLAYER
  8
0
  9
$CELTYPE
  6
ByLayer
  9
$CECOLOR
 62
256
  9
$CELTSCALE
 40
1.0
  9
$DISPSILH
 70
0
  9
$DIMSCALE
 40
1.0
  9
$DIMASZ
 40
2.5
  9
$DIMEXO
 40
0.625
  9
$DIMDLI
 40
3.75
  9
$DIMRND
 40
0.0
  9
$DIMDLE
 40
0.0
  9
$DIMEXE
 40
1.25
  9
$DIMTP
 40
0.0
  9
$DIMTM
 40
0.0
  9
$DIMTXT
 40
2.5
  9
$DIMCEN
 40
2.5
  9
$DIMTSZ
 40
0.0
  9
$DIMTOL
 70
0
  9
$DIMLIM
 70
0
  9
$DIMTIH
 70
0
  9
$DIMTOH
 70
0
  9
$DIMSE1
 70
0
  9
$DIMSE2
 70
0
  9
$DIMTAD
 70
1
  9
$DIMZIN
 70
8
  9
$DIMBLK
  1

  9
$DIMASO
 70
1
  9
$DIMSHO
 70
1
  9
$DIMPOST
  1

  9
$DIMAPOST
  1

  9
$DIMALT
 70
0
  9
$DIMALTD
 70
3
  9
$DIMALTF
 40
0.03937007874
  9
$DIMLFAC
 40
1.0
  9
$DIMTOFL
 70
1
  9
$DIMTVP
 40
0.0
  9
$DIMTIX
 70
0
  9
$DIMSOXD
 70
0
  9
$DIMSAH
 70
0
  9
$DIMBLK1
  1

  9
$DIMBLK2
  1

  9
$DIMSTYLE
  2
ISO-25
  9
$DIMCLRD
 70
0
  9
$DIMCLRE
 70
0
  9
$DIMCLRT
 70
0
  9
$DIMTFAC
 40
1.0
  9
$DIMGAP
 40
0.625
  9
$DIMJUST
 70
0
  9
$DIMSD1
 70
0
  9
$DIMSD2
 70
0
  9
$DIMTOLJ
 70
0
  9
$DIMTZIN
 70
8
  9
$DIMALTZ
 70
0
  9
$DIMALTTZ
 70
0
  9
$DIMUPT
 70
0
  9
$DIMDEC
 70
2
  9
$DIMTDEC
 70
2
  9
$DIMALTU
 70
2
  9
$DIMALTTD
 70
3
  9
$DIMTXSTY
  7
Standard
  9
$DIMAUNIT
 70
0
  9
$DIMADEC
 70
0
  9
$DIMALTRND
 40
0.0
  9
$DIMAZIN
 70
0
  9
$DIMDSEP
 70
44
  9
$DIMATFIT
 70
3
  9
$DIMFRAC
 70
0
  9
$DIMLDRBLK
  1

  9
$DIMLUNIT
 70
2
  9
$DIMLWD
 70
-2
  9
$DIMLWE
 70
-2
  9
$DIMTMOVE
 70
0
  9
$DIMFXL
 40
1.0
  9
$DIMFXLON
 70
0
  9
$DIMJOGANG
 40
0.785398163397
  9
$DIMTFILL
 70
0
  9
$DIMTFILLCLR
 70
0
  9
$DIMARCSYM
 70
0
  9
$DIMLTYPE
  6

  9
$DIMLTEX1
  6

  9
$DIMLTEX2
  6

  9
$DIMTXTDIRECTION
 70
0
  9
$LUNITS
 70
2
  9
$LUPREC
 70
4
  9
$SKETCHINC
 40
1.0
  9
$FILLETRAD
 40
10.0
  9
$AUNITS
 70
0
  9
$AUPREC
 70
2
  9
$MENU
  1
.
  9
$ELEVATION
 40
0.0
  9
$PELEVATION
 40
0.0
  9
$THICKNESS
 40
0.0
  9
$LIMCHECK
 70
0
  9
$CHAMFERA
 40
0.0
  9
$CHAMFERB
 40
0.0
  9
$CHAMFERC
 40
0.0
  9
$CHAMFERD
 40
0.0
  9
$SKPOLY
 70
0
  9
$TDCREATE
 40
2461202.578888889
  9
$TDUCREATE
 40
2458532.153996898
  9
$TDUPDATE
 40
2461202.578888889
  9
$TDUUPDATE
 40
2458532.1544311
  9
$TDINDWG
 40
0.0
  9
$TDUSRTIMER
 40
0.0
  9
$USRTIMER
 70
1
  9
$ANGBASE
 50
0.0
  9
$ANGDIR
 70
0
  9
$PDMODE
 70
0
  9
$PDSIZE
 40
0.0
  9
$PLINEWID
 40
0.0
  9
$SPLFRAME
 70
0
  9
$SPLINETYPE
 70
6
  9
$SPLINESEGS
 70
8
  9
$HANDSEED
  5
184
  9
$SURFTAB1
 70
6
  9
$SURFTAB2
 70
6
  9
$SURFTYPE
 70
6
  9
$SURFU
 70
6
  9
$SURFV
 70
6
  9
$UCSBASE
  2

  9
$UCSNAME
  2

  9
$UCSORG
 10
0.0
 20
0.0
 30
0.0
  9
$UCSXDIR
 10
1.0
 20
0.0
 30
0.0
  9
$UCSYDIR
 10
0.0
 20
1.0
 30
0.0
  9
$UCSORTHOREF
  2

  9
$UCSORTHOVIEW
 70
0
  9
$UCSORGTOP
 10
0.0
 20
0.0
 30
0.0
  9
$UCSORGBOTTOM
 10
0.0
 20
0.0
 30
0.0
  9
$UCSORGLEFT
 10
0.0
 20
0.0
 30
0.0
  9
$UCSORGRIGHT
 10
0.0
 20
0.0
 30
0.0
  9
$UCSORGFRONT
 10
0.0
 20
0.0
 30
0.0
  9
$UCSORGBACK
 10
0.0
 20
0.0
 30
0.0
  9
$PUCSBASE
  2

  9
$PUCSNAME
  2

  9
$PUCSORG
 10
0.0
 20
0.0
 30
0.0
  9
$PUCSXDIR
 10
1.0
 20
0.0
 30
0.0
  9
$PUCSYDIR
 10
0.0
 20
1.0
 30
0.0
  9
$PUCSORTHOREF
  2

  9
$PUCSORTHOVIEW
 70
0
  9
$PUCSORGTOP
 10
0.0
 20
0.0
 30
0.0
  9
$PUCSORGBOTTOM
 10
0.0
 20
0.0
 30
0.0
  9
$PUCSORGLEFT
 10
0.0
 20
0.0
 30
0.0
  9
$PUCSORGRIGHT
 10
0.0
 20
0.0
 30
0.0
  9
$PUCSORGFRONT
 10
0.0
 20
0.0
 30
0.0
  9
$PUCSORGBACK
 10
0.0
 20
0.0
 30
0.0
  9
$USERI1
 70
0
  9
$USERI2
 70
0
  9
$USERI3
 70
0
  9
$USERI4
 70
0
  9
$USERI5
 70
0
  9
$USERR1
 40
0.0
  9
$USERR2
 40
0.0
  9
$USERR3
 40
0.0
  9
$USERR4
 40
0.0
  9
$USERR5
 40
0.0
  9
$WORLDVIEW
 70
1
  9
$SHADEDGE
 70
3
  9
$SHADEDIF
 70
70
  9
$TILEMODE
 70
1
  9
$MAXACTVP
 70
64
  9
$PINSBASE
 10
0.0
 20
0.0
 30
0.0
  9
$PLIMCHECK
 70
0
  9
$PEXTMIN
 10
1e+20
 20
1e+20
 30
1e+20
  9
$PEXTMAX
 10
-1e+20
 20
-1e+20
 30
-1e+20
  9
$PLIMMIN
 10
0.0
 20
0.0
  9
$PLIMMAX
 10
420.0
 20
297.0
  9
$UNITMODE
 70
0
  9
$VISRETAIN
 70
1
  9
$PLINEGEN
 70
0
  9
$PSLTSCALE
 70
1
  9
$TREEDEPTH
 70
3020
  9
$CMLSTYLE
  2
Standard
  9
$CMLJUST
 70
0
  9
$CMLSCALE
 40
20.0
  9
$PROXYGRAPHICS
 70
1
  9
$MEASUREMENT
 70
1
  9
$CELWEIGHT
370
-1
  9
$ENDCAPS
280
0
  9
$JOINSTYLE
280
0
  9
$LWDISPLAY
290
0
  9
$INSUNITS
 70
6
  9
$HYPERLINKBASE
  1

  9
$STYLESHEET
  1

  9
$XEDIT
290
1
  9
$CEPSNTYPE
380
0
  9
$PSTYLEMODE
290
1
  9
$FINGERPRINTGUID
  2
{B324D33C-8FC6-48F9-BEC6-68556FA57934}
  9
$VERSIONGUID
  2
{7AFCD0AC-8308-4AFB-B16B-F1FD3EADB39B}
  9
$EXTNAMES
290
1
  9
$PSVPSCALE
 40
0.0
  9
$OLESTARTUP
290
0
  9
$SORTENTS
280
127
  9
$INDEXCTL
280
0
  9
$HIDETEXT
280
1
  9
$XCLIPFRAME
280
1
  9
$HALOGAP
280
0
  9
$OBSCOLOR
 70
257
  9
$OBSLTYPE
280
0
  9
$INTERSECTIONDISPLAY
280
0
  9
$INTERSECTIONCOLOR
 70
257
  9
$DIMASSOC
280
2
  9
$PROJECTNAME
  1

  9
$CAMERADISPLAY
290
0
  9
$LENSLENGTH
 40
50.0
  9
$CAMERAHEIGHT
 40
0.0
  9
$STEPSPERSEC
 40
24.0
  9
$STEPSIZE
 40
100.0
  9
$3DDWFPREC
 40
2.0
  9
$PSOLWIDTH
 40
0.005
  9
$PSOLHEIGHT
 40
0.08
  9
$LOFTANG1
 40
1.570796326795
  9
$LOFTANG2
 40
1.570796326795
  9
$LOFTMAG1
 40
0.0
  9
$LOFTMAG2
 40
0.0
  9
$LOFTPARAM
 70
7
  9
$LOFTNORMALS
280
1
  9
$LATITUDE
 40
37.795
  9
$LONGITUDE
 40
-122.394
  9
$NORTHDIRECTION
 40
0.0
  9
$TIMEZONE
 70
-8000
  9
$LIGHTGLYPHDISPLAY
280
1
  9
$TILEMODELIGHTSYNCH
280
1
  9
$CMATERIAL
347
20
  9
$SOLIDHIST
280
0
  9
$SHOWHIST
280
1
  9
$DWFFRAME
280
2
  9
$DGNFRAME
280
2
  9
$REALWORLDSCALE
290
1
  9
$INTERFERECOLOR
 62
256
  9
$CSHADOW
280
0
  9
$SHADOWPLANELOCATION
 40
0.0
  0
ENDSEC
  0
SECTION
  2
CLASSES
  0
CLASS
  1
ACDBDICTIONARYWDFLT
  2
AcDbDictionaryWithDefault
  3
ObjectDBX Classes
 90
0
 91
0
280
0
281
0
  0
CLASS
  1
SUN
  2
AcDbSun
  3
SCENEOE
 90
1153
 91
0
280
0
281
0
  0
CLASS
  1
VISUALSTYLE
  2
AcDbVisualStyle
  3
ObjectDBX Classes
 90
4095
 91
0
280
0
281
0
  0
CLASS
  1
MATERIAL
  2
AcDbMaterial
  3
ObjectDBX Classes
 90
1153
 91
0
280
0
281
0
  0
CLASS
  1
SCALE
  2
AcDbScale
  3
ObjectDBX Classes
 90
1153
 91
0
280
0
281
0
  0
CLASS
  1
TABLESTYLE
  2
AcDbTableStyle
  3
ObjectDBX Classes
 90
4095
 91
0
280
0
281
0
  0
CLASS
  1
MLEADERSTYLE
  2
AcDbMLeaderStyle
  3
ACDB_MLEADERSTYLE_CLASS
 90
4095
 91
0
280
0
281
0
  0
CLASS
  1
DICTIONARYVAR
  2
AcDbDictionaryVar
  3
ObjectDBX Classes
 90
0
 91
0
280
0
281
0
  0
CLASS
  1
CELLSTYLEMAP
  2
AcDbCellStyleMap
  3
ObjectDBX Classes
 90
1152
 91
0
280
0
281
0
  0
CLASS
  1
MENTALRAYRENDERSETTINGS
  2
AcDbMentalRayRenderSettings
  3
SCENEOE
 90
1024
 91
0
280
0
281
0
  0
CLASS
  1
ACDBDETAILVIEWSTYLE
  2
AcDbDetailViewStyle
  3
ObjectDBX Classes
 90
1025
 91
0
280
0
281
0
  0
CLASS
  1
ACDBSECTIONVIEWSTYLE
  2
AcDbSectionViewStyle
  3
ObjectDBX Classes
 90
1025
 91
0
280
0
281
0
  0
CLASS
  1
RASTERVARIABLES
  2
AcDbRasterVariables
  3
ISM
 90
0
 91
0
280
0
281
0
  0
CLASS
  1
LAYOUT
  2
AcDbLayout
  3
ObjectDBX Classes
 90
0
 91
0
280
0
281
0
  0
CLASS
  1
ACDBPLACEHOLDER
  2
AcDbPlaceHolder
  3
ObjectDBX Classes
 90
0
 91
0
280
0
281
0
  0
ENDSEC
  0
SECTION
  2
TABLES
  0
TABLE
  2
VPORT
  5
8
330
0
100
AcDbSymbolTable
 70
1
  0
VPORT
  5
23
330
8
100
AcDbSymbolTableRecord
100
AcDbViewportTableRecord
  2
*Active
 70
0
 10
0.0
 20
0.0
 11
1.0
 21
1.0
 12
0.0
 22
0.0
 13
0.0
 23
0.0
 14
0.5
 24
0.5
 15
0.5
 25
0.5
 16
0.0
 26
0.0
 36
1.0
 17
0.0
 27
0.0
 37
0.0
 40
1000.0
 41
1.34
 42
50.0
 43
0.0
 44
0.0
 50
0.0
 51
0.0
 71
0
 72
1000
 73
1
 74
3
 75
0
 76
0
 77
0
 78
0
281
0
 65
0
146
0.0
  0
ENDTAB
  0
TABLE
  2
LTYPE
  5
2
330
0
100
AcDbSymbolTable
 70
3
  0
LTYPE
  5
24
330
2
100
AcDbSymbolTableRecord
100
AcDbLinetypeTableRecord
  2
ByBlock
 70
0
  3

 72
65
 73
0
 40
0.0
  0
LTYPE
  5
25
330
2
100
AcDbSymbolTableRecord
100
AcDbLinetypeTableRecord
  2
ByLayer
 70
0
  3

 72
65
 73
0
 40
0.0
  0
LTYPE
  5
26
330
2
100
AcDbSymbolTableRecord
100
AcDbLinetypeTableRecord
  2
Continuous
 70
0
  3

 72
65
 73
0
 40
0.0
  0
ENDTAB
  0
TABLE
  2
LAYER
  5
1
330
0
100
AcDbSymbolTable
 70
17
  0
LAYER
  5
27
330
1
100
AcDbSymbolTableRecord
100
AcDbLayerTableRecord
  2
0
 70
0
 62
7
  6
Continuous
370
-3
390
13
347
21
  0
LAYER
  5
28
330
1
100
AcDbSymbolTableRecord
100
AcDbLayerTableRecord
  2
Defpoints
 70
0
 62
7
  6
Continuous
290
0
370
-3
390
13
347
21
  0
LAYER
  5
2F
330
1
100
AcDbSymbolTableRecord
100
AcDbLayerTableRecord
  2
COTA
 70
0
 62
7
  6
Continuous
370
-3
390
13
347
21
  0
LAYER
  5
30
330
1
100
AcDbSymbolTableRecord
100
AcDbLayerTableRecord
  2
SCO-___-LAJ
 70
0
 62
7
  6
Continuous
370
-3
390
13
347
21
  0
LAYER
  5
31
330
1
100
AcDbSymbolTableRecord
100
AcDbLayerTableRecord
  2
presilha
 70
0
 62
7
  6
Continuous
370
-3
390
13
347
21
  0
LAYER
  5
32
330
1
100
AcDbSymbolTableRecord
100
AcDbLayerTableRecord
  2
Texto Seção
 70
0
 62
7
  6
Continuous
370
-3
390
13
347
21
  0
LAYER
  5
33
330
1
100
AcDbSymbolTableRecord
100
AcDbLayerTableRecord
  2
Hachura
 70
0
 62
7
  6
Continuous
370
-3
390
13
347
21
  0
LAYER
  5
34
330
1
100
AcDbSymbolTableRecord
100
AcDbLayerTableRecord
  2
Painéis
 70
0
 62
7
  6
Continuous
370
-3
390
13
347
21
  0
LAYER
  5
35
330
1
100
AcDbSymbolTableRecord
100
AcDbLayerTableRecord
  2
Madeira
 70
0
 62
7
  6
Continuous
370
-3
390
13
347
21
  0
LAYER
  5
36
330
1
100
AcDbSymbolTableRecord
100
AcDbLayerTableRecord
  2
SARR_2.2x7
 70
0
 62
7
  6
Continuous
370
-3
390
13
347
21
  0
LAYER
  5
37
330
1
100
AcDbSymbolTableRecord
100
AcDbLayerTableRecord
  2
SARR_3.5x7
 70
0
 62
7
  6
Continuous
370
-3
390
13
347
21
  0
LAYER
  5
38
330
1
100
AcDbSymbolTableRecord
100
AcDbLayerTableRecord
  2
CONCRETO
 70
0
 62
7
  6
Continuous
370
-3
390
13
347
21
  0
LAYER
  5
39
330
1
100
AcDbSymbolTableRecord
100
AcDbLayerTableRecord
  2
barrote
 70
0
 62
7
  6
Continuous
370
-3
390
13
347
21
  0
LAYER
  5
3A
330
1
100
AcDbSymbolTableRecord
100
AcDbLayerTableRecord
  2
5
 70
0
 62
7
  6
Continuous
370
-3
390
13
347
21
  0
LAYER
  5
3B
330
1
100
AcDbSymbolTableRecord
100
AcDbLayerTableRecord
  2
TENSOR
 70
0
 62
7
  6
Continuous
370
-3
390
13
347
21
  0
LAYER
  5
3C
330
1
100
AcDbSymbolTableRecord
100
AcDbLayerTableRecord
  2
REAPROVEITAMENTO
 70
0
 62
7
  6
Continuous
370
-3
390
13
347
21
  0
LAYER
  5
3D
330
1
100
AcDbSymbolTableRecord
100
AcDbLayerTableRecord
  2
detalhes
 70
0
 62
7
  6
Continuous
370
-3
390
13
347
21
  0
ENDTAB
  0
TABLE
  2
STYLE
  5
5
330
0
100
AcDbSymbolTable
 70
1
  0
STYLE
  5
29
330
5
100
AcDbSymbolTableRecord
100
AcDbTextStyleTableRecord
  2
Standard
 70
0
 40
0.0
 41
1.0
 50
0.0
 71
0
 42
2.5
  3
txt
  4

  0
ENDTAB
  0
TABLE
  2
VIEW
  5
7
330
0
100
AcDbSymbolTable
 70
0
  0
ENDTAB
  0
TABLE
  2
UCS
  5
6
330
0
100
AcDbSymbolTable
 70
0
  0
ENDTAB
  0
TABLE
  2
APPID
  5
3
330
0
100
AcDbSymbolTable
 70
3
  0
APPID
  5
2A
330
3
100
AcDbSymbolTableRecord
100
AcDbRegAppTableRecord
  2
ACAD
 70
0
  0
APPID
  5
181
330
3
100
AcDbSymbolTableRecord
100
AcDbRegAppTableRecord
  2
HATCHBACKGROUNDCOLOR
 70
0
  0
APPID
  5
182
330
3
100
AcDbSymbolTableRecord
100
AcDbRegAppTableRecord
  2
EZDXF
 70
0
  0
ENDTAB
  0
TABLE
  2
DIMSTYLE
  5
4
330
0
100
AcDbSymbolTable
 70
1
100
AcDbDimStyleTable
  0
DIMSTYLE
105
2B
330
4
100
AcDbSymbolTableRecord
100
AcDbDimStyleTableRecord
  2
Standard
 70
0
 40
1.0
 41
2.5
 42
0.625
 43
3.75
 44
1.25
 45
0.0
 46
0.0
 47
0.0
 48
0.0
 49
2.5
140
2.5
141
2.5
142
0.0
143
0.03937007874
144
1.0
145
0.0
146
1.0
147
0.625
148
0.0
 69
0
 70
0
 71
0
 72
0
 73
0
 74
0
 75
0
 76
0
 77
1
 78
8
 79
3
170
0
171
3
172
1
173
0
174
0
175
0
176
0
177
0
178
0
179
2
271
2
272
2
273
2
274
3
275
0
276
0
277
2
278
44
279
0
280
0
281
0
282
0
283
0
284
8
285
0
286
0
288
0
289
3
290
0
371
-2
372
-2
  0
ENDTAB
  0
TABLE
  2
BLOCK_RECORD
  5
9
330
0
100
AcDbSymbolTable
 70
2
  0
BLOCK_RECORD
  5
17
330
9
100
AcDbSymbolTableRecord
100
AcDbBlockTableRecord
  2
*Model_Space
340
1A
 70
0
280
1
281
0
  0
BLOCK_RECORD
  5
1B
330
9
100
AcDbSymbolTableRecord
100
AcDbBlockTableRecord
  2
*Paper_Space
340
1E
 70
0
280
1
281
0
  0
ENDTAB
  0
ENDSEC
  0
SECTION
  2
BLOCKS
  0
BLOCK
  5
18
330
17
100
AcDbEntity
  8
0
100
AcDbBlockBegin
  2
*Model_Space
 70
0
 10
0.0
 20
0.0
 30
0.0
  3
*Model_Space
  1

  0
ENDBLK
  5
19
330
17
100
AcDbEntity
  8
0
100
AcDbBlockEnd
  0
BLOCK
  5
1C
330
1B
100
AcDbEntity
  8
0
100
AcDbBlockBegin
  2
*Paper_Space
 70
0
 10
0.0
 20
0.0
 30
0.0
  3
*Paper_Space
  1

  0
ENDBLK
  5
1D
330
1B
100
AcDbEntity
  8
0
100
AcDbBlockEnd
  0
ENDSEC
  0
SECTION
  2
ENTITIES
  0
LINE
  5
3E
330
17
100
AcDbEntity
  8
Defpoints
 62
7
370
25
100
AcDbLine
 10
5077.946347277464
 20
3437.853273576492
 30
0.0
 11
5077.946347277464
 21
3562.853273576492
 31
0.0
  0
LINE
  5
3F
330
17
100
AcDbEntity
  8
SARR_2.2x7
 62
7
370
25
100
AcDbLine
 10
4893.154984324539
 20
3190.406170465977
 30
0.0
 11
5130.200125083725
 21
3190.406170465995
 31
0.0
  0
LINE
  5
40
330
17
100
AcDbEntity
  8
SARR_2.2x7
 62
7
370
25
100
AcDbLine
 10
5130.200125083725
 20
3190.406170465995
 30
0.0
 11
5294.745265842916
 21
3190.406170465732
 31
0.0
  0
LINE
  5
41
330
17
100
AcDbEntity
  8
Painéis
 62
7
370
25
100
AcDbLine
 10
4886.200125083722
 20
3197.406170465884
 30
0.0
 11
5301.200125083722
 21
3197.406170465911
 31
0.0
  0
LINE
  5
42
330
17
100
AcDbEntity
  8
Painéis
 62
7
370
25
100
AcDbLine
 10
4886.200125083726
 20
3154.406170465885
 30
0.0
 11
5301.200125083726
 21
3154.40617046591
 31
0.0
  0
LINE
  5
43
330
17
100
AcDbEntity
  8
Painéis
 62
7
370
25
100
AcDbLine
 10
4886.200125083726
 20
3154.406170465885
 30
0.0
 11
4886.200125083726
 21
3197.406170465884
 31
0.0
  0
LINE
  5
44
330
17
100
AcDbEntity
  8
SARR_2.2x7
 62
7
370
25
100
AcDbLine
 10
4893.154984324542
 20
3154.406170465881
 30
0.0
 11
4893.154984324539
 21
3197.406170465884
 31
0.0
  0
LINE
  5
45
330
17
100
AcDbEntity
  8
SARR_2.2x7
 62
7
370
25
100
AcDbLine
 10
5294.745265842912
 20
3154.406170465906
 30
0.0
 11
5294.745265842916
 21
3197.406170465884
 31
0.0
  0
LINE
  5
46
330
17
100
AcDbEntity
  8
Painéis
 62
7
370
25
100
AcDbLine
 10
5130.200125083725
 20
3154.406170465899
 30
0.0
 11
5130.200125083725
 21
3197.406170465899
 31
0.0
  0
LINE
  5
47
330
17
100
AcDbEntity
  8
COTA
 62
7
370
25
100
AcDbLine
 10
4886.200125083722
 20
3197.406170465884
 30
0.0
 11
4886.200125083722
 21
3213.406170465884
 31
0.0
  0
LINE
  5
48
330
17
100
AcDbEntity
  8
COTA
 62
7
370
25
100
AcDbLine
 10
5301.200125083722
 20
3213.406170465884
 30
0.0
 11
5301.200125083722
 21
3197.40617046591
 31
0.0
  0
LINE
  5
49
330
17
100
AcDbEntity
  8
SARR_2.2x7
 62
7
370
25
100
AcDbLine
 10
4893.154984324539
 20
3161.406170465813
 30
0.0
 11
5130.200125083725
 21
3161.406170465796
 31
0.0
  0
LINE
  5
4A
330
17
100
AcDbEntity
  8
SARR_2.2x7
 62
7
370
25
100
AcDbLine
 10
5130.200125083725
 20
3161.406170465796
 30
0.0
 11
5294.745265842916
 21
3161.406170466059
 31
0.0
  0
LINE
  5
4B
330
17
100
AcDbEntity
  8
COTA
 62
7
370
25
100
AcDbLine
 10
5301.200125083722
 20
3213.406170465884
 30
0.0
 11
4886.200125083722
 21
3213.406170465884
 31
0.0
  0
LINE
  5
4C
330
17
100
AcDbEntity
  8
SARR_2.2x7
 62
7
370
25
100
AcDbLine
 10
4893.154984324539
 20
2980.540172237809
 30
0.0
 11
5130.200125083725
 21
2980.540172237827
 31
0.0
  0
LINE
  5
4D
330
17
100
AcDbEntity
  8
SARR_2.2x7
 62
7
370
25
100
AcDbLine
 10
5130.200125083725
 20
2980.540172237827
 30
0.0
 11
5294.745265842916
 21
2980.540172237564
 31
0.0
  0
LINE
  5
4E
330
17
100
AcDbEntity
  8
Painéis
 62
7
370
25
100
AcDbLine
 10
4886.200125083722
 20
2987.540172237716
 30
0.0
 11
5301.200125083726
 21
2987.540172237742
 31
0.0
  0
LINE
  5
4F
330
17
100
AcDbEntity
  8
Painéis
 62
7
370
25
100
AcDbLine
 10
4886.200125083726
 20
2943.540172237717
 30
0.0
 11
5301.200125083726
 21
2943.540172237742
 31
0.0
  0
LINE
  5
50
330
17
100
AcDbEntity
  8
Painéis
 62
7
370
25
100
AcDbLine
 10
5301.200125083726
 20
2943.540172237742
 30
0.0
 11
5301.200125083726
 21
2987.540172237742
 31
0.0
  0
LINE
  5
51
330
17
100
AcDbEntity
  8
Painéis
 62
7
370
25
100
AcDbLine
 10
4886.200125083726
 20
2943.540172237717
 30
0.0
 11
4886.200125083726
 21
2987.540172237716
 31
0.0
  0
LINE
  5
52
330
17
100
AcDbEntity
  8
SARR_2.2x7
 62
7
370
25
100
AcDbLine
 10
4893.154984324542
 20
2943.540172237713
 30
0.0
 11
4893.154984324539
 21
2987.540172237716
 31
0.0
  0
LINE
  5
53
330
17
100
AcDbEntity
  8
SARR_2.2x7
 62
7
370
25
100
AcDbLine
 10
5294.745265842912
 20
2943.540172237738
 30
0.0
 11
5294.745265842916
 21
2987.540172237716
 31
0.0
  0
LINE
  5
54
330
17
100
AcDbEntity
  8
Painéis
 62
7
370
25
100
AcDbLine
 10
5130.200125083725
 20
2943.540172237731
 30
0.0
 11
5130.200125083725
 21
2987.540172237731
 31
0.0
  0
LINE
  5
55
330
17
100
AcDbEntity
  8
COTA
 62
7
370
25
100
AcDbLine
 10
4886.200125083722
 20
2987.540172237716
 30
0.0
 11
4886.200125083722
 21
3002.540172237717
 31
0.0
  0
LINE
  5
56
330
17
100
AcDbEntity
  8
COTA
 62
7
370
25
100
AcDbLine
 10
5301.200125083722
 20
3002.540172237717
 30
0.0
 11
5301.200125083722
 21
2987.540172237742
 31
0.0
  0
LINE
  5
57
330
17
100
AcDbEntity
  8
SARR_2.2x7
 62
7
370
25
100
AcDbLine
 10
4893.154984324539
 20
2950.540172237646
 30
0.0
 11
5130.200125083725
 21
2950.540172237627
 31
0.0
  0
LINE
  5
58
330
17
100
AcDbEntity
  8
SARR_2.2x7
 62
7
370
25
100
AcDbLine
 10
5130.200125083725
 20
2950.540172237627
 30
0.0
 11
5294.745265842916
 21
2950.540172237891
 31
0.0
  0
LINE
  5
59
330
17
100
AcDbEntity
  8
COTA
 62
7
370
25
100
AcDbLine
 10
5301.200125083722
 20
3002.540172237717
 30
0.0
 11
4886.200125083722
 21
3002.540172237717
 31
0.0
  0
LINE
  5
5A
330
17
100
AcDbEntity
  8
COTA
 62
7
370
25
100
AcDbLine
 10
5448.866170133027
 20
3562.853273576492
 30
0.0
 11
5448.866170133027
 21
2792.096786987388
 31
0.0
  0
LINE
  5
5B
330
17
100
AcDbEntity
  8
SARR_2.2x7
 62
7
370
25
100
AcDbLine
 10
4893.154984324542
 20
3172.406170465912
 30
0.0
 11
5130.200125083725
 21
3172.406170465729
 31
0.0
  0
LINE
  5
5C
330
17
100
AcDbEntity
  8
SARR_2.2x7
 62
7
370
25
100
AcDbLine
 10
4893.154984324542
 20
3179.40617046561
 30
0.0
 11
5130.200125083725
 21
3179.406170465422
 31
0.0
  0
LINE
  5
5D
330
17
100
AcDbEntity
  8
SARR_2.2x7
 62
7
370
25
100
AcDbLine
 10
5130.200125083725
 20
3172.406170465928
 30
0.0
 11
5294.745265842916
 21
3172.406170465803
 31
0.0
  0
LINE
  5
5E
330
17
100
AcDbEntity
  8
SARR_2.2x7
 62
7
370
25
100
AcDbLine
 10
5130.200125083725
 20
3179.406170465626
 30
0.0
 11
5294.745265842916
 21
3179.406170465497
 31
0.0
  0
LINE
  5
5F
330
17
100
AcDbEntity
  8
SARR_2.2x7
 62
7
370
25
100
AcDbLine
 10
4893.154984324542
 20
2962.040172237744
 30
0.0
 11
5130.200125083725
 21
2962.040172237561
 31
0.0
  0
LINE
  5
60
330
17
100
AcDbEntity
  8
SARR_2.2x7
 62
7
370
25
100
AcDbLine
 10
4893.154984324542
 20
2969.040172237442
 30
0.0
 11
5130.200125083725
 21
2969.040172237255
 31
0.0
  0
LINE
  5
61
330
17
100
AcDbEntity
  8
SARR_2.2x7
 62
7
370
25
100
AcDbLine
 10
5130.200125083725
 20
2962.04017223776
 30
0.0
 11
5294.745265842912
 21
2962.040172237634
 31
0.0
  0
LINE
  5
62
330
17
100
AcDbEntity
  8
SARR_2.2x7
 62
7
370
25
100
AcDbLine
 10
5130.200125083725
 20
2969.040172237458
 30
0.0
 11
5294.745265842916
 21
2969.040172237329
 31
0.0
  0
LINE
  5
63
330
17
100
AcDbEntity
  8
Painéis
 62
7
370
25
100
AcDbLine
 10
5301.200125083726
 20
3154.40617046591
 30
0.0
 11
5301.200125083726
 21
3197.40617046591
 31
0.0
  0
LINE
  5
64
330
17
100
AcDbEntity
  8
Defpoints
 62
7
370
25
100
AcDbLine
 10
5606.436604091413
 20
3437.853273576492
 30
0.0
 11
5606.436604091413
 21
3562.853273576492
 31
0.0
  0
LINE
  5
65
330
17
100
AcDbEntity
  8
presilha
 62
7
370
25
100
AcDbLine
 10
5645.1038032259585
 20
3319.219940243191
 30
0.0
 11
5645.1038032259585
 21
3314.6201002432053
 31
0.0
  0
LINE
  5
66
330
17
100
AcDbEntity
  8
presilha
 62
7
370
25
100
AcDbLine
 10
5645.1038032259585
 20
3314.6201002432053
 30
0.0
 11
5665.10416773031
 21
3314.620100243198
 31
0.0
  0
LINE
  5
67
330
17
100
AcDbEntity
  8
presilha
 62
7
370
25
100
AcDbLine
 10
5666.10416773031
 20
3322.2199402431916
 30
0.0
 11
5665.10416773031
 21
3322.2199402431916
 31
0.0
  0
LINE
  5
68
330
17
100
AcDbEntity
  8
presilha
 62
7
370
25
100
AcDbLine
 10
5665.10416773031
 20
3322.2199402431916
 30
0.0
 11
5665.10416773031
 21
3310.2199402431916
 31
0.0
  0
LINE
  5
69
330
17
100
AcDbEntity
  8
presilha
 62
7
370
25
100
AcDbLine
 10
5665.10416773031
 20
3310.2199402431916
 30
0.0
 11
5666.10416773031
 21
3310.2199402431916
 31
0.0
  0
LINE
  5
6A
330
17
100
AcDbEntity
  8
presilha
 62
7
370
25
100
AcDbLine
 10
5666.10416773031
 20
3310.2199402431916
 30
0.0
 11
5666.10416773031
 21
3322.2199402431916
 31
0.0
  0
LINE
  5
6B
330
17
100
AcDbEntity
  8
presilha
 62
7
370
25
100
AcDbLine
 10
5662.104167730312
 20
3325.8866069098576
 30
0.0
 11
5662.104167730312
 21
3324.8866069098576
 31
0.0
  0
LINE
  5
6C
330
17
100
AcDbEntity
  8
presilha
 62
7
370
25
100
AcDbLine
 10
5645.1038032259585
 20
3319.2199402431906
 30
0.0
 11
5663.723803225958
 21
3319.2199402431906
 31
0.0
  0
LINE
  5
6D
330
17
100
AcDbEntity
  8
presilha
 62
7
370
25
100
AcDbLine
 10
5665.1038032259585
 20
3318.9799402431904
 30
0.0
 11
5665.104167730312
 21
3325.12660690986
 31
0.0
  0
LINE
  5
6E
330
17
100
AcDbEntity
  8
presilha
 62
7
370
25
100
AcDbLine
 10
5664.103803225959
 20
3319.5999402431908
 30
0.0
 11
5664.104167730312
 21
3324.5066069098575
 31
0.0
  0
LINE
  5
6F
330
17
100
AcDbEntity
  8
presilha
 62
7
370
25
100
AcDbLine
 10
5662.104167730312
 20
3325.8866069098576
 30
0.0
 11
5664.344167730332
 21
3325.8866069098576
 31
0.0
  0
LINE
  5
70
330
17
100
AcDbEntity
  8
presilha
 62
7
370
25
100
AcDbLine
 10
5662.104167730312
 20
3324.8866069098576
 30
0.0
 11
5663.724167730312
 21
3324.8866069098576
 31
0.0
  0
LINE
  5
71
330
17
100
AcDbEntity
  8
presilha
 62
7
370
25
100
AcDbLine
 10
5670.104167730311
 20
3320.5532735765264
 30
0.0
 11
5666.104167730311
 21
3320.5532735765264
 31
0.0
  0
LINE
  5
72
330
17
100
AcDbEntity
  8
presilha
 62
7
370
25
100
AcDbLine
 10
5666.104167730311
 20
3320.5532735765264
 30
0.0
 11
5666.104167730311
 21
3311.88660690986
 31
0.0
  0
LINE
  5
73
330
17
100
AcDbEntity
  8
presilha
 62
7
370
25
100
AcDbLine
 10
5666.104167730311
 20
3311.88660690986
 30
0.0
 11
5670.104167730311
 21
3311.88660690986
 31
0.0
  0
LINE
  5
74
330
17
100
AcDbEntity
  8
presilha
 62
7
370
25
100
AcDbLine
 10
5670.104167730311
 20
3320.5532735765264
 30
0.0
 11
5670.104167730311
 21
3311.88660690986
 31
0.0
  0
LINE
  5
75
330
17
100
AcDbEntity
  8
presilha
 62
7
370
25
100
AcDbLine
 10
5573.369404956876
 20
3319.219940243191
 30
0.0
 11
5573.369404956876
 21
3314.6201002432053
 31
0.0
  0
LINE
  5
76
330
17
100
AcDbEntity
  8
presilha
 62
7
370
25
100
AcDbLine
 10
5573.369404956876
 20
3314.6201002432053
 30
0.0
 11
5553.369040452524
 21
3314.620100243198
 31
0.0
  0
LINE
  5
77
330
17
100
AcDbEntity
  8
presilha
 62
7
370
25
100
AcDbLine
 10
5552.369040452524
 20
3322.2199402431916
 30
0.0
 11
5553.369040452524
 21
3322.2199402431916
 31
0.0
  0
LINE
  5
78
330
17
100
AcDbEntity
  8
presilha
 62
7
370
25
100
AcDbLine
 10
5553.369040452524
 20
3322.2199402431916
 30
0.0
 11
5553.369040452524
 21
3310.2199402431916
 31
0.0
  0
LINE
  5
79
330
17
100
AcDbEntity
  8
presilha
 62
7
370
25
100
AcDbLine
 10
5553.369040452524
 20
3310.2199402431916
 30
0.0
 11
5552.369040452524
 21
3310.2199402431916
 31
0.0
  0
LINE
  5
7A
330
17
100
AcDbEntity
  8
presilha
 62
7
370
25
100
AcDbLine
 10
5552.369040452524
 20
3310.2199402431916
 30
0.0
 11
5552.369040452524
 21
3322.2199402431916
 31
0.0
  0
LINE
  5
7B
330
17
100
AcDbEntity
  8
presilha
 62
7
370
25
100
AcDbLine
 10
5556.369040452522
 20
3325.8866069098576
 30
0.0
 11
5556.369040452522
 21
3324.8866069098576
 31
0.0
  0
LINE
  5
7C
330
17
100
AcDbEntity
  8
presilha
 62
7
370
25
100
AcDbLine
 10
5573.369404956876
 20
3319.2199402431906
 30
0.0
 11
5554.749404956876
 21
3319.2199402431906
 31
0.0
  0
LINE
  5
7D
330
17
100
AcDbEntity
  8
presilha
 62
7
370
25
100
AcDbLine
 10
5553.369404956876
 20
3318.9799402431904
 30
0.0
 11
5553.369040452522
 21
3325.12660690986
 31
0.0
  0
LINE
  5
7E
330
17
100
AcDbEntity
  8
presilha
 62
7
370
25
100
AcDbLine
 10
5554.369404956875
 20
3319.5999402431908
 30
0.0
 11
5554.369040452522
 21
3324.5066069098575
 31
0.0
  0
LINE
  5
7F
330
17
100
AcDbEntity
  8
presilha
 62
7
370
25
100
AcDbLine
 10
5556.369040452522
 20
3325.8866069098576
 30
0.0
 11
5554.1290404525025
 21
3325.8866069098576
 31
0.0
  0
LINE
  5
80
330
17
100
AcDbEntity
  8
presilha
 62
7
370
25
100
AcDbLine
 10
5556.369040452522
 20
3324.8866069098576
 30
0.0
 11
5554.749040452522
 21
3324.8866069098576
 31
0.0
  0
LINE
  5
81
330
17
100
AcDbEntity
  8
presilha
 62
7
370
25
100
AcDbLine
 10
5548.369040452523
 20
3320.5532735765264
 30
0.0
 11
5552.369040452523
 21
3320.5532735765264
 31
0.0
  0
LINE
  5
82
330
17
100
AcDbEntity
  8
presilha
 62
7
370
25
100
AcDbLine
 10
5552.369040452523
 20
3320.5532735765264
 30
0.0
 11
5552.369040452523
 21
3311.88660690986
 31
0.0
  0
LINE
  5
83
330
17
100
AcDbEntity
  8
presilha
 62
7
370
25
100
AcDbLine
 10
5552.369040452523
 20
3311.88660690986
 30
0.0
 11
5548.369040452523
 21
3311.88660690986
 31
0.0
  0
LINE
  5
84
330
17
100
AcDbEntity
  8
presilha
 62
7
370
25
100
AcDbLine
 10
5548.369040452523
 20
3320.5532735765264
 30
0.0
 11
5548.369040452523
 21
3311.88660690986
 31
0.0
  0
LINE
  5
85
330
17
100
AcDbEntity
  8
0
 62
7
370
25
100
AcDbLine
 10
5671.236604091417
 20
3375.823331104783
 30
0.0
 11
5671.236604091417
 21
3363.823331104783
 31
0.0
  0
LINE
  5
86
330
17
100
AcDbEntity
  8
0
 62
7
370
25
100
AcDbLine
 10
5545.236604091417
 20
3372.823331104797
 30
0.0
 11
5545.236604091417
 21
3366.823331104797
 31
0.0
  0
LINE
  5
87
330
17
100
AcDbEntity
  8
0
 62
7
370
25
100
AcDbLine
 10
5547.236604091416
 20
3375.823331104797
 30
0.0
 11
5547.236604091416
 21
3363.823331104797
 31
0.0
  0
LINE
  5
88
330
17
100
AcDbEntity
  8
0
 62
7
370
25
100
AcDbLine
 10
5547.236604091416
 20
3366.823331104797
 30
0.0
 11
5545.236604091417
 21
3366.823331104797
 31
0.0
  0
LINE
  5
89
330
17
100
AcDbEntity
  8
0
 62
7
370
25
100
AcDbLine
 10
5671.236604091417
 20
3363.823331104783
 30
0.0
 11
5641.236604091417
 21
3363.823331104783
 31
0.0
  0
LINE
  5
8A
330
17
100
AcDbEntity
  8
0
 62
7
370
25
100
AcDbLine
 10
5577.236604091416
 20
3368.823331104798
 30
0.0
 11
5547.236604091416
 21
3368.823331104798
 31
0.0
  0
LINE
  5
8B
330
17
100
AcDbEntity
  8
0
 62
7
370
25
100
AcDbLine
 10
5577.236604091416
 20
3370.823331104797
 30
0.0
 11
5547.236604091416
 21
3370.823331104797
 31
0.0
  0
LINE
  5
8C
330
17
100
AcDbEntity
  8
TENSOR
 62
7
370
25
100
AcDbLine
 10
5542.236604091417
 20
3369.823331104782
 30
0.0
 11
5676.539898269515
 21
3369.823331104782
 31
0.0
  0
LINE
  5
8D
330
17
100
AcDbEntity
  8
0
 62
7
370
25
100
AcDbLine
 10
5547.236604091416
 20
3372.823331104797
 30
0.0
 11
5545.236604091417
 21
3372.823331104797
 31
0.0
  0
LINE
  5
8E
330
17
100
AcDbEntity
  8
0
 62
7
370
25
100
AcDbLine
 10
5641.236604091417
 20
3368.823331104783
 30
0.0
 11
5671.236604091417
 21
3368.823331104783
 31
0.0
  0
LINE
  5
8F
330
17
100
AcDbEntity
  8
0
 62
7
370
25
100
AcDbLine
 10
5641.236604091417
 20
3370.823331104783
 30
0.0
 11
5671.236604091417
 21
3370.823331104783
 31
0.0
  0
LINE
  5
90
330
17
100
AcDbEntity
  8
0
 62
7
370
25
100
AcDbLine
 10
5671.236604091417
 20
3375.823331104783
 30
0.0
 11
5641.236604091417
 21
3375.823331104783
 31
0.0
  0
LINE
  5
91
330
17
100
AcDbEntity
  8
0
 62
7
370
25
100
AcDbLine
 10
5547.236604091416
 20
3363.823331104797
 30
0.0
 11
5577.236604091416
 21
3363.823331104797
 31
0.0
  0
LINE
  5
92
330
17
100
AcDbEntity
  8
0
 62
7
370
25
100
AcDbLine
 10
5547.236604091416
 20
3375.823331104797
 30
0.0
 11
5577.236604091416
 21
3375.823331104797
 31
0.0
  0
LINE
  5
93
330
17
100
AcDbEntity
  8
0
 62
7
370
25
100
AcDbLine
 10
5673.236604091417
 20
3372.823331104783
 30
0.0
 11
5673.236604091417
 21
3366.823331104783
 31
0.0
  0
LINE
  5
94
330
17
100
AcDbEntity
  8
0
 62
7
370
25
100
AcDbLine
 10
5671.236604091417
 20
3366.823331104783
 30
0.0
 11
5673.236604091417
 21
3366.823331104783
 31
0.0
  0
LINE
  5
95
330
17
100
AcDbEntity
  8
0
 62
7
370
25
100
AcDbLine
 10
5673.236604091417
 20
3372.823331104783
 30
0.0
 11
5671.236604091417
 21
3372.823331104783
 31
0.0
  0
LINE
  5
96
330
17
100
AcDbEntity
  8
Painéis
 62
7
370
25
100
AcDbLine
 10
5557.0534083289
 20
3204.147396294953
 30
0.0
 11
5642.0534083289
 21
3204.147396294953
 31
0.0
  0
LINE
  5
97
330
17
100
AcDbEntity
  8
Painéis
 62
7
370
25
100
AcDbLine
 10
5557.0534083289
 20
3145.147396294953
 30
0.0
 11
5642.0534083289
 21
3145.147396294953
 31
0.0
  0
LINE
  5
98
330
17
100
AcDbEntity
  8
Painéis
 62
7
370
25
100
AcDbLine
 10
5557.0534083289
 20
3145.147396294953
 30
0.0
 11
5557.0534083289
 21
3204.147396294953
 31
0.0
  0
LINE
  5
99
330
17
100
AcDbEntity
  8
Painéis
 62
7
370
25
100
AcDbLine
 10
5642.0534083289
 20
3145.147396294953
 30
0.0
 11
5642.0534083289
 21
3204.147396294953
 31
0.0
  0
LINE
  5
9A
330
17
100
AcDbEntity
  8
COTA
 62
7
370
25
100
AcDbLine
 10
5557.0534083289
 20
2978.413584925853
 30
0.0
 11
5557.0534083289
 21
2992.413584925853
 31
0.0
  0
LINE
  5
9B
330
17
100
AcDbEntity
  8
COTA
 62
7
370
25
100
AcDbLine
 10
5628.053408328899
 20
2992.413584925828
 30
0.0
 11
5628.053408328899
 21
2978.413584925853
 31
0.0
  0
LINE
  5
9C
330
17
100
AcDbEntity
  8
SARR_2.2x7
 62
7
370
25
100
AcDbLine
 10
5557.0534083289
 20
2995.913584925839
 30
0.0
 11
5628.053408328899
 21
2995.913584925841
 31
0.0
  0
LINE
  5
9D
330
17
100
AcDbEntity
  8
Painéis
 62
7
370
25
100
AcDbLine
 10
5557.0534083289
 20
2978.413584925853
 30
0.0
 11
5628.053408328899
 21
2978.413584925853
 31
0.0
  0
LINE
  5
9E
330
17
100
AcDbEntity
  8
Painéis
 62
7
370
25
100
AcDbLine
 10
5557.0534083289
 20
2940.413584925853
 30
0.0
 11
5628.053408328899
 21
2940.413584925853
 31
0.0
  0
LINE
  5
9F
330
17
100
AcDbEntity
  8
Painéis
 62
7
370
25
100
AcDbLine
 10
5557.0534083289
 20
2940.413584925853
 30
0.0
 11
5557.0534083289
 21
2978.413584925853
 31
0.0
  0
LINE
  5
A0
330
17
100
AcDbEntity
  8
Painéis
 62
7
370
25
100
AcDbLine
 10
5628.053408328899
 20
2940.413584925853
 30
0.0
 11
5628.053408328899
 21
2978.413584925853
 31
0.0
  0
LINE
  5
A1
330
17
100
AcDbEntity
  8
SARR_2.2x7
 62
7
370
25
100
AcDbLine
 10
5564.053408328896
 20
2940.413584925853
 30
0.0
 11
5564.053408328899
 21
2978.413584925853
 31
0.0
  0
LINE
  5
A2
330
17
100
AcDbEntity
  8
SARR_2.2x7
 62
7
370
25
100
AcDbLine
 10
5621.0534083289
 20
2940.413584925851
 30
0.0
 11
5621.0534083289
 21
2978.413584925853
 31
0.0
  0
LINE
  5
A3
330
17
100
AcDbEntity
  8
Painéis
 62
7
370
25
100
AcDbLine
 10
5592.5534083289
 20
2940.413584925853
 30
0.0
 11
5592.5534083289
 21
2978.413584925853
 31
0.0
  0
LINE
  5
A4
330
17
100
AcDbEntity
  8
COTA
 62
7
370
25
100
AcDbLine
 10
5771.899096233428
 20
3562.853273576492
 30
0.0
 11
5771.899096233428
 21
2792.096786987388
 31
0.0
  0
LINE
  5
A5
330
17
100
AcDbEntity
  8
Defpoints
 62
7
370
25
100
AcDbLine
 10
5944.823808220073
 20
3437.853273576492
 30
0.0
 11
5944.823808220073
 21
3562.853273576492
 31
0.0
  0
LINE
  5
A6
330
17
100
AcDbEntity
  8
presilha
 62
7
370
25
100
AcDbLine
 10
5911.756609085534
 20
3319.219940243191
 30
0.0
 11
5911.756609085534
 21
3314.6201002432053
 31
0.0
  0
LINE
  5
A7
330
17
100
AcDbEntity
  8
presilha
 62
7
370
25
100
AcDbLine
 10
5911.756609085534
 20
3314.6201002432053
 30
0.0
 11
5891.756244581183
 21
3314.620100243198
 31
0.0
  0
LINE
  5
A8
330
17
100
AcDbEntity
  8
presilha
 62
7
370
25
100
AcDbLine
 10
5890.756244581183
 20
3322.2199402431916
 30
0.0
 11
5891.756244581183
 21
3322.2199402431916
 31
0.0
  0
LINE
  5
A9
330
17
100
AcDbEntity
  8
presilha
 62
7
370
25
100
AcDbLine
 10
5891.756244581183
 20
3322.2199402431916
 30
0.0
 11
5891.756244581183
 21
3310.2199402431916
 31
0.0
  0
LINE
  5
AA
330
17
100
AcDbEntity
  8
presilha
 62
7
370
25
100
AcDbLine
 10
5891.756244581183
 20
3310.2199402431916
 30
0.0
 11
5890.756244581183
 21
3310.2199402431916
 31
0.0
  0
LINE
  5
AB
330
17
100
AcDbEntity
  8
presilha
 62
7
370
25
100
AcDbLine
 10
5890.756244581183
 20
3310.2199402431916
 30
0.0
 11
5890.756244581183
 21
3322.2199402431916
 31
0.0
  0
LINE
  5
AC
330
17
100
AcDbEntity
  8
presilha
 62
7
370
25
100
AcDbLine
 10
5894.756244581181
 20
3325.8866069098576
 30
0.0
 11
5894.756244581181
 21
3324.8866069098576
 31
0.0
  0
LINE
  5
AD
330
17
100
AcDbEntity
  8
presilha
 62
7
370
25
100
AcDbLine
 10
5911.756609085534
 20
3319.2199402431906
 30
0.0
 11
5893.1366090855345
 21
3319.2199402431906
 31
0.0
  0
LINE
  5
AE
330
17
100
AcDbEntity
  8
presilha
 62
7
370
25
100
AcDbLine
 10
5891.756609085534
 20
3318.9799402431904
 30
0.0
 11
5891.756244581181
 21
3325.12660690986
 31
0.0
  0
LINE
  5
AF
330
17
100
AcDbEntity
  8
presilha
 62
7
370
25
100
AcDbLine
 10
5892.7566090855335
 20
3319.5999402431908
 30
0.0
 11
5892.756244581181
 21
3324.5066069098575
 31
0.0
  0
LINE
  5
B0
330
17
100
AcDbEntity
  8
presilha
 62
7
370
25
100
AcDbLine
 10
5894.756244581181
 20
3325.8866069098576
 30
0.0
 11
5892.516244581161
 21
3325.8866069098576
 31
0.0
  0
LINE
  5
B1
330
17
100
AcDbEntity
  8
presilha
 62
7
370
25
100
AcDbLine
 10
5894.756244581181
 20
3324.8866069098576
 30
0.0
 11
5893.136244581181
 21
3324.8866069098576
 31
0.0
  0
LINE
  5
B2
330
17
100
AcDbEntity
  8
presilha
 62
7
370
25
100
AcDbLine
 10
5886.756244581182
 20
3320.5532735765264
 30
0.0
 11
5890.756244581182
 21
3320.5532735765264
 31
0.0
  0
LINE
  5
B3
330
17
100
AcDbEntity
  8
presilha
 62
7
370
25
100
AcDbLine
 10
5890.756244581182
 20
3320.5532735765264
 30
0.0
 11
5890.756244581182
 21
3311.88660690986
 31
0.0
  0
LINE
  5
B4
330
17
100
AcDbEntity
  8
presilha
 62
7
370
25
100
AcDbLine
 10
5890.756244581182
 20
3311.88660690986
 30
0.0
 11
5886.756244581182
 21
3311.88660690986
 31
0.0
  0
LINE
  5
B5
330
17
100
AcDbEntity
  8
presilha
 62
7
370
25
100
AcDbLine
 10
5886.756244581182
 20
3320.5532735765264
 30
0.0
 11
5886.756244581182
 21
3311.88660690986
 31
0.0
  0
LINE
  5
B6
330
17
100
AcDbEntity
  8
presilha
 62
7
370
25
100
AcDbLine
 10
5983.491007354617
 20
3319.219940243191
 30
0.0
 11
5983.491007354617
 21
3314.6201002432053
 31
0.0
  0
LINE
  5
B7
330
17
100
AcDbEntity
  8
presilha
 62
7
370
25
100
AcDbLine
 10
5983.491007354617
 20
3314.6201002432053
 30
0.0
 11
6003.491371858969
 21
3314.620100243198
 31
0.0
  0
LINE
  5
B8
330
17
100
AcDbEntity
  8
presilha
 62
7
370
25
100
AcDbLine
 10
6004.491371858969
 20
3322.2199402431916
 30
0.0
 11
6003.491371858969
 21
3322.2199402431916
 31
0.0
  0
LINE
  5
B9
330
17
100
AcDbEntity
  8
presilha
 62
7
370
25
100
AcDbLine
 10
6003.491371858969
 20
3322.2199402431916
 30
0.0
 11
6003.491371858969
 21
3310.2199402431916
 31
0.0
  0
LINE
  5
BA
330
17
100
AcDbEntity
  8
presilha
 62
7
370
25
100
AcDbLine
 10
6003.491371858969
 20
3310.2199402431916
 30
0.0
 11
6004.491371858969
 21
3310.2199402431916
 31
0.0
  0
LINE
  5
BB
330
17
100
AcDbEntity
  8
presilha
 62
7
370
25
100
AcDbLine
 10
6004.491371858969
 20
3310.2199402431916
 30
0.0
 11
6004.491371858969
 21
3322.2199402431916
 31
0.0
  0
LINE
  5
BC
330
17
100
AcDbEntity
  8
presilha
 62
7
370
25
100
AcDbLine
 10
6000.4913718589705
 20
3325.8866069098576
 30
0.0
 11
6000.4913718589705
 21
3324.8866069098576
 31
0.0
  0
LINE
  5
BD
330
17
100
AcDbEntity
  8
presilha
 62
7
370
25
100
AcDbLine
 10
5983.491007354617
 20
3319.2199402431906
 30
0.0
 11
6002.111007354617
 21
3319.2199402431906
 31
0.0
  0
LINE
  5
BE
330
17
100
AcDbEntity
  8
presilha
 62
7
370
25
100
AcDbLine
 10
6003.491007354617
 20
3318.9799402431904
 30
0.0
 11
6003.4913718589705
 21
3325.12660690986
 31
0.0
  0
LINE
  5
BF
330
17
100
AcDbEntity
  8
presilha
 62
7
370
25
100
AcDbLine
 10
6002.491007354618
 20
3319.5999402431908
 30
0.0
 11
6002.4913718589705
 21
3324.5066069098575
 31
0.0
  0
LINE
  5
C0
330
17
100
AcDbEntity
  8
presilha
 62
7
370
25
100
AcDbLine
 10
6000.4913718589705
 20
3325.8866069098576
 30
0.0
 11
6002.73137185899
 21
3325.8866069098576
 31
0.0
  0
LINE
  5
C1
330
17
100
AcDbEntity
  8
presilha
 62
7
370
25
100
AcDbLine
 10
6000.4913718589705
 20
3324.8866069098576
 30
0.0
 11
6002.11137185897
 21
3324.8866069098576
 31
0.0
  0
LINE
  5
C2
330
17
100
AcDbEntity
  8
presilha
 62
7
370
25
100
AcDbLine
 10
6008.49137185897
 20
3320.5532735765264
 30
0.0
 11
6004.49137185897
 21
3320.5532735765264
 31
0.0
  0
LINE
  5
C3
330
17
100
AcDbEntity
  8
presilha
 62
7
370
25
100
AcDbLine
 10
6004.49137185897
 20
3320.5532735765264
 30
0.0
 11
6004.49137185897
 21
3311.88660690986
 31
0.0
  0
LINE
  5
C4
330
17
100
AcDbEntity
  8
presilha
 62
7
370
25
100
AcDbLine
 10
6004.49137185897
 20
3311.88660690986
 30
0.0
 11
6008.49137185897
 21
3311.88660690986
 31
0.0
  0
LINE
  5
C5
330
17
100
AcDbEntity
  8
presilha
 62
7
370
25
100
AcDbLine
 10
6008.49137185897
 20
3320.5532735765264
 30
0.0
 11
6008.49137185897
 21
3311.88660690986
 31
0.0
  0
LINE
  5
C6
330
17
100
AcDbEntity
  8
0
 62
7
370
25
100
AcDbLine
 10
5885.623808220076
 20
3375.823331104783
 30
0.0
 11
5885.623808220076
 21
3363.823331104783
 31
0.0
  0
LINE
  5
C7
330
17
100
AcDbEntity
  8
0
 62
7
370
25
100
AcDbLine
 10
6011.623808220076
 20
3372.823331104797
 30
0.0
 11
6011.623808220076
 21
3366.823331104797
 31
0.0
  0
LINE
  5
C8
330
17
100
AcDbEntity
  8
0
 62
7
370
25
100
AcDbLine
 10
6009.623808220077
 20
3375.823331104797
 30
0.0
 11
6009.623808220077
 21
3363.823331104797
 31
0.0
  0
LINE
  5
C9
330
17
100
AcDbEntity
  8
0
 62
7
370
25
100
AcDbLine
 10
6009.623808220077
 20
3366.823331104797
 30
0.0
 11
6011.623808220076
 21
3366.823331104797
 31
0.0
  0
LINE
  5
CA
330
17
100
AcDbEntity
  8
0
 62
7
370
25
100
AcDbLine
 10
5885.623808220076
 20
3363.823331104783
 30
0.0
 11
5915.623808220076
 21
3363.823331104783
 31
0.0
  0
LINE
  5
CB
330
17
100
AcDbEntity
  8
0
 62
7
370
25
100
AcDbLine
 10
5979.623808220076
 20
3368.823331104798
 30
0.0
 11
6009.623808220077
 21
3368.823331104798
 31
0.0
  0
LINE
  5
CC
330
17
100
AcDbEntity
  8
0
 62
7
370
25
100
AcDbLine
 10
5979.623808220076
 20
3370.823331104797
 30
0.0
 11
6009.623808220077
 21
3370.823331104797
 31
0.0
  0
LINE
  5
CD
330
17
100
AcDbEntity
  8
TENSOR
 62
7
370
25
100
AcDbLine
 10
6014.623808220076
 20
3369.823331104782
 30
0.0
 11
5880.320514041978
 21
3369.823331104782
 31
0.0
  0
LINE
  5
CE
330
17
100
AcDbEntity
  8
0
 62
7
370
25
100
AcDbLine
 10
6009.623808220077
 20
3372.823331104797
 30
0.0
 11
6011.623808220076
 21
3372.823331104797
 31
0.0
  0
LINE
  5
CF
330
17
100
AcDbEntity
  8
0
 62
7
370
25
100
AcDbLine
 10
5915.623808220076
 20
3368.823331104783
 30
0.0
 11
5885.623808220076
 21
3368.823331104783
 31
0.0
  0
LINE
  5
D0
330
17
100
AcDbEntity
  8
0
 62
7
370
25
100
AcDbLine
 10
5915.623808220076
 20
3370.823331104783
 30
0.0
 11
5885.623808220076
 21
3370.823331104783
 31
0.0
  0
LINE
  5
D1
330
17
100
AcDbEntity
  8
0
 62
7
370
25
100
AcDbLine
 10
5885.623808220076
 20
3375.823331104783
 30
0.0
 11
5915.623808220076
 21
3375.823331104783
 31
0.0
  0
LINE
  5
D2
330
17
100
AcDbEntity
  8
0
 62
7
370
25
100
AcDbLine
 10
6009.623808220077
 20
3363.823331104797
 30
0.0
 11
5979.623808220076
 21
3363.823331104797
 31
0.0
  0
LINE
  5
D3
330
17
100
AcDbEntity
  8
0
 62
7
370
25
100
AcDbLine
 10
6009.623808220077
 20
3375.823331104797
 30
0.0
 11
5979.623808220076
 21
3375.823331104797
 31
0.0
  0
LINE
  5
D4
330
17
100
AcDbEntity
  8
0
 62
7
370
25
100
AcDbLine
 10
5883.623808220076
 20
3372.823331104783
 30
0.0
 11
5883.623808220076
 21
3366.823331104783
 31
0.0
  0
LINE
  5
D5
330
17
100
AcDbEntity
  8
0
 62
7
370
25
100
AcDbLine
 10
5885.623808220076
 20
3366.823331104783
 30
0.0
 11
5883.623808220076
 21
3366.823331104783
 31
0.0
  0
LINE
  5
D6
330
17
100
AcDbEntity
  8
0
 62
7
370
25
100
AcDbLine
 10
5883.623808220076
 20
3372.823331104783
 30
0.0
 11
5885.623808220076
 21
3372.823331104783
 31
0.0
  0
LINE
  5
D7
330
17
100
AcDbEntity
  8
Painéis
 62
7
370
25
100
AcDbLine
 10
5892.193712618519
 20
2990.163902214634
 30
0.0
 11
5977.193712618519
 21
2990.163902214634
 31
0.0
  0
LINE
  5
D8
330
17
100
AcDbEntity
  8
Painéis
 62
7
370
25
100
AcDbLine
 10
5892.193712618519
 20
2931.163902214634
 30
0.0
 11
5977.193712618519
 21
2931.163902214634
 31
0.0
  0
LINE
  5
D9
330
17
100
AcDbEntity
  8
Painéis
 62
7
370
25
100
AcDbLine
 10
5892.193712618519
 20
2931.163902214634
 30
0.0
 11
5892.193712618519
 21
2990.163902214634
 31
0.0
  0
LINE
  5
DA
330
17
100
AcDbEntity
  8
Painéis
 62
7
370
25
100
AcDbLine
 10
5977.193712618519
 20
2931.163902214634
 30
0.0
 11
5977.193712618519
 21
2990.163902214634
 31
0.0
  0
LINE
  5
DB
330
17
100
AcDbEntity
  8
COTA
 62
7
370
25
100
AcDbLine
 10
5895.440612457559
 20
3187.677279736087
 30
0.0
 11
5895.440612457559
 21
3201.677279736087
 31
0.0
  0
LINE
  5
DC
330
17
100
AcDbEntity
  8
COTA
 62
7
370
25
100
AcDbLine
 10
5966.440612457559
 20
3201.677279736061
 30
0.0
 11
5966.440612457559
 21
3187.677279736087
 31
0.0
  0
LINE
  5
DD
330
17
100
AcDbEntity
  8
SARR_2.2x7
 62
7
370
25
100
AcDbLine
 10
5895.440612457559
 20
3205.177279736072
 30
0.0
 11
5966.440612457559
 21
3205.177279736075
 31
0.0
  0
LINE
  5
DE
330
17
100
AcDbEntity
  8
Painéis
 62
7
370
25
100
AcDbLine
 10
5895.440612457559
 20
3187.677279736087
 30
0.0
 11
5966.440612457559
 21
3187.677279736087
 31
0.0
  0
LINE
  5
DF
330
17
100
AcDbEntity
  8
Painéis
 62
7
370
25
100
AcDbLine
 10
5895.440612457559
 20
3149.677279736087
 30
0.0
 11
5966.440612457559
 21
3149.677279736087
 31
0.0
  0
LINE
  5
E0
330
17
100
AcDbEntity
  8
Painéis
 62
7
370
25
100
AcDbLine
 10
5895.440612457559
 20
3149.677279736087
 30
0.0
 11
5895.440612457559
 21
3187.677279736087
 31
0.0
  0
LINE
  5
E1
330
17
100
AcDbEntity
  8
Painéis
 62
7
370
25
100
AcDbLine
 10
5966.440612457559
 20
3149.677279736087
 30
0.0
 11
5966.440612457559
 21
3187.677279736087
 31
0.0
  0
LINE
  5
E2
330
17
100
AcDbEntity
  8
SARR_2.2x7
 62
7
370
25
100
AcDbLine
 10
5902.440612457556
 20
3149.677279736087
 30
0.0
 11
5902.440612457559
 21
3187.677279736087
 31
0.0
  0
LINE
  5
E3
330
17
100
AcDbEntity
  8
SARR_2.2x7
 62
7
370
25
100
AcDbLine
 10
5959.440612457559
 20
3149.677279736085
 30
0.0
 11
5959.440612457559
 21
3187.677279736087
 31
0.0
  0
LINE
  5
E4
330
17
100
AcDbEntity
  8
Painéis
 62
7
370
25
100
AcDbLine
 10
5930.940612457558
 20
3149.677279736087
 30
0.0
 11
5930.940612457558
 21
3187.677279736087
 31
0.0
  0
LINE
  5
E5
330
17
100
AcDbEntity
  8
SARR_2.2x7
 62
7
370
25
100
AcDbLine
 10
5564.008267569713
 20
2971.413584925933
 30
0.0
 11
5592.5534083289
 21
2971.413584925951
 31
0.0
  0
LINE
  5
E6
330
17
100
AcDbEntity
  8
SARR_2.2x7
 62
7
370
25
100
AcDbLine
 10
5592.5534083289
 20
2971.413584925951
 30
0.0
 11
5621.098549088089
 21
2971.413584925688
 31
0.0
  0
LINE
  5
E7
330
17
100
AcDbEntity
  8
SARR_2.2x7
 62
7
370
25
100
AcDbLine
 10
5564.008267569713
 20
2945.413584925769
 30
0.0
 11
5592.5534083289
 21
2945.413584925751
 31
0.0
  0
LINE
  5
E8
330
17
100
AcDbEntity
  8
SARR_2.2x7
 62
7
370
25
100
AcDbLine
 10
5592.5534083289
 20
2945.413584925751
 30
0.0
 11
5621.098549088089
 21
2945.413584926015
 31
0.0
  0
LINE
  5
E9
330
17
100
AcDbEntity
  8
SARR_2.2x7
 62
7
370
25
100
AcDbLine
 10
5564.008267569715
 20
2955.013002747373
 30
0.0
 11
5592.553408328896
 21
2955.013002747351
 31
0.0
  0
LINE
  5
EA
330
17
100
AcDbEntity
  8
SARR_2.2x7
 62
7
370
25
100
AcDbLine
 10
5564.008267569715
 20
2962.013002747072
 30
0.0
 11
5592.553408328896
 21
2962.013002747049
 31
0.0
  0
LINE
  5
EB
330
17
100
AcDbEntity
  8
SARR_2.2x7
 62
7
370
25
100
AcDbLine
 10
5592.553408328896
 20
2955.01300274739
 30
0.0
 11
5621.098549088083
 21
2955.013002747367
 31
0.0
  0
LINE
  5
EC
330
17
100
AcDbEntity
  8
SARR_2.2x7
 62
7
370
25
100
AcDbLine
 10
5592.553408328896
 20
2962.013002747088
 30
0.0
 11
5621.098549088083
 21
2962.013002747064
 31
0.0
  0
LINE
  5
ED
330
17
100
AcDbEntity
  8
SARR_2.2x7
 62
7
370
25
100
AcDbLine
 10
5902.395471698373
 20
3180.677279736166
 30
0.0
 11
5930.940612457558
 21
3180.677279736185
 31
0.0
  0
LINE
  5
EE
330
17
100
AcDbEntity
  8
SARR_2.2x7
 62
7
370
25
100
AcDbLine
 10
5930.940612457558
 20
3180.677279736185
 30
0.0
 11
5959.485753216749
 21
3180.677279735921
 31
0.0
  0
LINE
  5
EF
330
17
100
AcDbEntity
  8
SARR_2.2x7
 62
7
370
25
100
AcDbLine
 10
5902.395471698373
 20
3154.677279736003
 30
0.0
 11
5930.940612457558
 21
3154.677279735985
 31
0.0
  0
LINE
  5
F0
330
17
100
AcDbEntity
  8
SARR_2.2x7
 62
7
370
25
100
AcDbLine
 10
5930.940612457558
 20
3154.677279735985
 30
0.0
 11
5959.485753216749
 21
3154.677279736248
 31
0.0
  0
LINE
  5
F1
330
17
100
AcDbEntity
  8
SARR_2.2x7
 62
7
370
25
100
AcDbLine
 10
5902.395471698373
 20
3164.276697557607
 30
0.0
 11
5930.940612457556
 21
3164.276697557584
 31
0.0
  0
LINE
  5
F2
330
17
100
AcDbEntity
  8
SARR_2.2x7
 62
7
370
25
100
AcDbLine
 10
5902.395471698373
 20
3171.276697557305
 30
0.0
 11
5930.940612457556
 21
3171.276697557284
 31
0.0
  0
LINE
  5
F3
330
17
100
AcDbEntity
  8
SARR_2.2x7
 62
7
370
25
100
AcDbLine
 10
5930.940612457556
 20
3164.276697557623
 30
0.0
 11
5959.485753216743
 21
3164.276697557601
 31
0.0
  0
LINE
  5
F4
330
17
100
AcDbEntity
  8
SARR_2.2x7
 62
7
370
25
100
AcDbLine
 10
5930.940612457556
 20
3171.276697557321
 30
0.0
 11
5959.485753216743
 21
3171.276697557298
 31
0.0
  0
LINE
  5
F5
330
17
100
AcDbEntity
  8
SARR_2.2x7
 62
7
370
25
100
AcDbLine
 10
5564.0534083289
 20
3197.147396295008
 30
0.0
 11
5635.053408328898
 21
3197.14739629495
 31
0.0
  0
LINE
  5
F6
330
17
100
AcDbEntity
  8
SARR_2.2x7
 62
7
370
25
100
AcDbLine
 10
5564.053408328897
 20
3152.14796334007
 30
0.0
 11
5635.053408328904
 21
3152.147963340118
 31
0.0
  0
LINE
  5
F7
330
17
100
AcDbEntity
  8
SARR_2.2x7
 62
7
370
25
100
AcDbLine
 10
5564.053408328898
 20
3171.147396295063
 30
0.0
 11
5635.053408328901
 21
3171.147396295003
 31
0.0
  0
LINE
  5
F8
330
17
100
AcDbEntity
  8
SARR_2.2x7
 62
7
370
25
100
AcDbLine
 10
5564.053408328899
 20
3178.14739629479
 30
0.0
 11
5635.0534083289
 21
3178.147396294852
 31
0.0
  0
LINE
  5
F9
330
17
100
AcDbEntity
  8
SARR_2.2x7
 62
7
370
25
100
AcDbLine
 10
5899.19371261852
 20
2983.163902214665
 30
0.0
 11
5970.193712618518
 21
2983.163902214606
 31
0.0
  0
LINE
  5
FA
330
17
100
AcDbEntity
  8
SARR_2.2x7
 62
7
370
25
100
AcDbLine
 10
5899.193712618515
 20
2938.164469259724
 30
0.0
 11
5970.193712618522
 21
2938.164469259774
 31
0.0
  0
LINE
  5
FB
330
17
100
AcDbEntity
  8
SARR_2.2x7
 62
7
370
25
100
AcDbLine
 10
5899.193712618519
 20
2957.163902214717
 30
0.0
 11
5970.19371261852
 21
2957.163902214658
 31
0.0
  0
LINE
  5
FC
330
17
100
AcDbEntity
  8
SARR_2.2x7
 62
7
370
25
100
AcDbLine
 10
5899.193712618519
 20
2964.163902214446
 30
0.0
 11
5970.193712618519
 21
2964.163902214508
 31
0.0
  0
LINE
  5
FD
330
17
100
AcDbEntity
  8
SARR_2.2x7
 62
7
370
25
100
AcDbLine
 10
5564.053408328896
 20
3145.147396294953
 30
0.0
 11
5564.053408328901
 21
3204.147396294953
 31
0.0
  0
LINE
  5
FE
330
17
100
AcDbEntity
  8
SARR_2.2x7
 62
7
370
25
100
AcDbLine
 10
5635.053408328904
 20
3145.147396294953
 30
0.0
 11
5635.053408328897
 21
3204.147396294953
 31
0.0
  0
LINE
  5
FF
330
17
100
AcDbEntity
  8
SARR_2.2x7
 62
7
370
25
100
AcDbLine
 10
5899.193712618515
 20
2931.163902214634
 30
0.0
 11
5899.193712618521
 21
2990.163902214634
 31
0.0
  0
LINE
  5
100
330
17
100
AcDbEntity
  8
SARR_2.2x7
 62
7
370
25
100
AcDbLine
 10
5970.193712618523
 20
2931.163902214634
 30
0.0
 11
5970.193712618518
 21
2990.163902214634
 31
0.0
  0
LWPOLYLINE
  5
101
330
17
100
AcDbEntity
  8
Painéis
 62
7
370
25
100
AcDbPolyline
 90
4
 70
1
 10
5052.746347277467
 20
3405.85327357647
 10
5056.746347277467
 20
3405.85327357647
 10
5056.746347277467
 20
3319.853273576492
 10
5052.746347277467
 20
3319.853273576492
  0
LWPOLYLINE
  5
102
330
17
100
AcDbEntity
  8
Madeira
 62
7
370
25
100
AcDbPolyline
 90
4
 70
1
 10
5094.746347277467
 20
3319.853273576492
 10
5094.746347277467
 20
3324.253273576486
 10
5080.746347277467
 20
3324.253273576486
 10
5080.746347277467
 20
3319.853273576492
  0
LWPOLYLINE
  5
103
330
17
100
AcDbEntity
  8
Painéis
 62
7
370
25
100
AcDbPolyline
 90
4
 70
1
 10
5094.746347277467
 20
3324.253273576486
 10
5094.746347277467
 20
3327.853273576492
 10
5056.746347277467
 20
3327.853273576492
 10
5056.746347277467
 20
3324.253273576486
  0
LWPOLYLINE
  5
104
330
17
100
AcDbEntity
  8
Madeira
 62
7
370
25
100
AcDbPolyline
 90
4
 70
1
 10
5056.746347277467
 20
3319.853273576492
 10
5056.746347277467
 20
3324.253273576486
 10
5070.746347277466
 20
3324.253273576486
 10
5070.746347277466
 20
3319.853273576492
  0
LWPOLYLINE
  5
105
330
17
100
AcDbEntity
  8
Painéis
 62
7
370
25
100
AcDbPolyline
 90
4
 70
1
 10
5098.746347277467
 20
3407.853273576471
 10
5094.746347277467
 20
3407.853273576471
 10
5094.746347277467
 20
3319.853273576492
 10
5098.746347277467
 20
3319.853273576492
  0
LWPOLYLINE
  5
106
330
17
100
AcDbEntity
  8
Painéis
 62
7
370
25
100
AcDbPolyline
 90
4
 70
1
 10
5154.746347277438
 20
3407.853273576471
 10
5154.746347277438
 20
3411.853273576471
 10
5094.746347277467
 20
3411.853273576471
 10
5094.746347277467
 20
3407.853273576471
  0
LWPOLYLINE
  5
107
330
17
100
AcDbEntity
  8
Painéis
 62
7
370
25
100
AcDbPolyline
 90
4
 70
1
 10
5056.746347277467
 20
3405.85327357647
 10
5056.746347277467
 20
3409.85327357647
 10
5001.14634727749
 20
3409.853273576463
 10
5001.14634727749
 20
3405.853273576463
  0
LWPOLYLINE
  5
108
330
17
100
AcDbEntity
  8
CONCRETO
 62
7
370
25
100
AcDbPolyline
 90
8
 70
1
 10
5001.14634727749
 20
3409.853273576463
 10
5001.14634727749
 20
3437.853273576492
 10
5154.746347277438
 20
3437.853273576492
 10
5154.746347277438
 20
3411.853273576478
 10
5094.746347277467
 20
3411.853273576478
 10
5094.746347277409
 20
3327.853273576492
 10
5056.746347277467
 20
3327.853273576492
 10
5056.746347277467
 20
3409.85327357647
  0
LWPOLYLINE
  5
109
330
17
100
AcDbEntity
  8
Madeira
 62
7
370
25
100
AcDbPolyline
 90
4
 70
1
 10
5048.346347277473
 20
3391.85327357647
 10
5052.746347277467
 20
3391.85327357647
 10
5052.746347277467
 20
3405.85327357647
 10
5048.346347277473
 20
3405.85327357647
  0
LWPOLYLINE
  5
10A
330
17
100
AcDbEntity
  8
Madeira
 62
7
370
25
100
AcDbPolyline
 90
4
 70
1
 10
5048.346347277473
 20
3319.853273576492
 10
5052.746347277467
 20
3319.853273576492
 10
5052.746347277467
 20
3333.853273576492
 10
5048.346347277473
 20
3333.853273576492
  0
LWPOLYLINE
  5
10B
330
17
100
AcDbEntity
  8
Madeira
 62
7
370
25
100
AcDbPolyline
 90
4
 70
1
 10
5103.146347277461
 20
3393.85327357647
 10
5098.746347277467
 20
3393.85327357647
 10
5098.746347277467
 20
3407.853273576471
 10
5103.146347277461
 20
3407.853273576471
  0
LWPOLYLINE
  5
10C
330
17
100
AcDbEntity
  8
Madeira
 62
7
370
25
100
AcDbPolyline
 90
4
 70
1
 10
5103.146347277461
 20
3319.853273576492
 10
5098.746347277467
 20
3319.853273576492
 10
5098.746347277467
 20
3333.853273576492
 10
5103.146347277461
 20
3333.853273576492
  0
LWPOLYLINE
  5
10D
330
17
100
AcDbEntity
  8
SARR_3.5x7
 62
7
370
25
100
AcDbPolyline
 90
4
 70
1
 10
5034.346347277411
 20
3399.853273576471
 10
5048.346347277411
 20
3399.853273576471
 10
5048.346347277538
 20
3243.375060170686
 10
5034.346347277538
 20
3243.375060170686
  0
LWPOLYLINE
  5
10E
330
17
100
AcDbEntity
  8
SARR_3.5x7
 62
7
370
25
100
AcDbPolyline
 90
4
 70
1
 10
5117.146347277698
 20
3401.853273576473
 10
5103.146347277697
 20
3401.853273576473
 10
5103.146347277552
 20
3243.375060170686
 10
5117.146347277552
 20
3243.375060170686
  0
LWPOLYLINE
  5
10F
330
17
100
AcDbEntity
  8
SARR_3.5x7
 62
7
370
25
100
AcDbPolyline
 90
4
 70
1
 10
5034.3463472774
 20
3319.853273576492
 10
5117.1463472776
 20
3319.85327357649
 10
5117.1463472776
 20
3289.795211972491
 10
5034.3463472774
 20
3289.795211972494
  0
LWPOLYLINE
  5
110
330
17
100
AcDbEntity
  8
Madeira
 62
7
370
25
100
AcDbPolyline
 90
4
 70
1
 10
5048.346347277473
 20
3354.853273576481
 10
5052.746347277467
 20
3354.853273576481
 10
5052.746347277467
 20
3368.853273576481
 10
5048.346347277473
 20
3368.853273576481
  0
LWPOLYLINE
  5
111
330
17
100
AcDbEntity
  8
Madeira
 62
7
370
25
100
AcDbPolyline
 90
4
 70
1
 10
5103.146347277461
 20
3356.853273576481
 10
5098.746347277467
 20
3356.853273576481
 10
5098.746347277467
 20
3370.853273576481
 10
5103.146347277461
 20
3370.853273576481
  0
LWPOLYLINE
  5
112
330
17
100
AcDbEntity
  8
Painéis
 62
7
370
25
100
AcDbPolyline
 90
4
 70
1
 10
5627.236604091416
 20
3395.853273576469
 10
5623.236604091417
 20
3395.853273576469
 10
5623.236604091417
 20
3319.853273576491
 10
5627.236604091416
 20
3319.853273576491
  0
LWPOLYLINE
  5
113
330
17
100
AcDbEntity
  8
Madeira
 62
7
370
25
100
AcDbPolyline
 90
4
 70
1
 10
5595.236604091417
 20
3319.853273576491
 10
5595.236604091417
 20
3324.253273576486
 10
5605.236604091416
 20
3324.253273576486
 10
5605.236604091416
 20
3319.853273576491
  0
LWPOLYLINE
  5
114
330
17
100
AcDbEntity
  8
Painéis
 62
7
370
25
100
AcDbPolyline
 90
4
 70
1
 10
5595.236604091417
 20
3324.253273576486
 10
5595.236604091417
 20
3327.853273576491
 10
5623.236604091417
 20
3327.853273576491
 10
5623.236604091417
 20
3324.253273576486
  0
LWPOLYLINE
  5
115
330
17
100
AcDbEntity
  8
Madeira
 62
7
370
25
100
AcDbPolyline
 90
4
 70
1
 10
5623.236604091417
 20
3319.853273576491
 10
5623.236604091417
 20
3324.253273576486
 10
5613.236604091417
 20
3324.253273576486
 10
5613.236604091417
 20
3319.853273576491
  0
LWPOLYLINE
  5
116
330
17
100
AcDbEntity
  8
Painéis
 62
7
370
25
100
AcDbPolyline
 90
4
 70
1
 10
5591.236604091406
 20
3437.853273576492
 10
5595.236604091406
 20
3437.853273576492
 10
5595.236604091417
 20
3319.853273576491
 10
5591.236604091417
 20
3319.853273576491
  0
LWPOLYLINE
  5
117
330
17
100
AcDbEntity
  8
Painéis
 62
7
370
25
100
AcDbPolyline
 90
4
 70
1
 10
5623.236604091417
 20
3395.853273576469
 10
5623.236604091417
 20
3399.853273576469
 10
5678.836604091394
 20
3399.853273576462
 10
5678.836604091394
 20
3395.853273576462
  0
LWPOLYLINE
  5
118
330
17
100
AcDbEntity
  8
CONCRETO
 62
7
370
25
100
AcDbPolyline
 90
8
 70
1
 10
5678.836604091394
 20
3399.853273576462
 10
5678.836604091394
 20
3423.853273576491
 10
5623.236604091417
 20
3423.853273576491
 10
5623.236604091417
 20
3437.853273576492
 10
5595.236604091475
 20
3437.853273576492
 10
5595.236604091475
 20
3327.853273576491
 10
5623.236604091417
 20
3327.853273576491
 10
5623.236604091417
 20
3399.853273576469
  0
LWPOLYLINE
  5
119
330
17
100
AcDbEntity
  8
Painéis
 62
7
370
25
100
AcDbPolyline
 90
4
 70
1
 10
5626.836604091423
 20
3437.853273576492
 10
5623.236604091417
 20
3437.853273576492
 10
5623.236604091417
 20
3423.853273576491
 10
5626.836604091423
 20
3423.853273576491
  0
LWPOLYLINE
  5
11A
330
17
100
AcDbEntity
  8
Madeira
 62
7
370
25
100
AcDbPolyline
 90
4
 70
1
 10
5631.236604091417
 20
3423.853273576491
 10
5626.836604091423
 20
3423.853273576491
 10
5626.836604091423
 20
3437.853273576492
 10
5631.236604091417
 20
3437.853273576492
  0
LWPOLYLINE
  5
11B
330
17
100
AcDbEntity
  8
Madeira
 62
7
370
25
100
AcDbPolyline
 90
4
 70
1
 10
5591.236604091406
 20
3433.453273576489
 10
5591.236604091406
 20
3437.853273576492
 10
5577.236604091406
 20
3437.853273576492
 10
5577.236604091406
 20
3433.453273576489
  0
LWPOLYLINE
  5
11C
330
17
100
AcDbEntity
  8
Madeira
 62
7
370
25
100
AcDbPolyline
 90
4
 70
1
 10
5557.236604091417
 20
3319.853273576491
 10
5557.236604091417
 20
3324.253273576486
 10
5577.236604091416
 20
3324.253273576486
 10
5577.236604091416
 20
3319.853273576491
  0
LWPOLYLINE
  5
11D
330
17
100
AcDbEntity
  8
Madeira
 62
7
370
25
100
AcDbPolyline
 90
4
 70
1
 10
5591.236604091406
 20
3437.853273576492
 10
5577.236604091406
 20
3437.853273576492
 10
5577.236604091416
 20
3319.853273576491
 10
5591.236604091417
 20
3319.853273576491
  0
LWPOLYLINE
  5
11E
330
17
100
AcDbEntity
  8
Madeira
 62
7
370
25
100
AcDbPolyline
 90
4
 70
1
 10
5627.236604091416
 20
3391.453273576466
 10
5627.236604091416
 20
3395.853273576468
 10
5641.236604091417
 20
3395.853273576468
 10
5641.236604091417
 20
3391.453273576466
  0
LWPOLYLINE
  5
11F
330
17
100
AcDbEntity
  8
Madeira
 62
7
370
25
100
AcDbPolyline
 90
4
 70
1
 10
5661.236604091417
 20
3319.853273576491
 10
5661.236604091417
 20
3324.253273576486
 10
5641.236604091417
 20
3324.253273576486
 10
5641.236604091417
 20
3319.853273576491
  0
LWPOLYLINE
  5
120
330
17
100
AcDbEntity
  8
Madeira
 62
7
370
25
100
AcDbPolyline
 90
4
 70
1
 10
5627.236604091416
 20
3395.853273576468
 10
5641.236604091417
 20
3395.853273576468
 10
5641.236604091417
 20
3319.853273576491
 10
5627.236604091416
 20
3319.853273576491
  0
LWPOLYLINE
  5
121
330
17
100
AcDbEntity
  8
barrote
 62
7
370
25
100
AcDbPolyline
 90
4
 70
1
 10
5694.691801763311
 20
3299.853273576535
 10
5509.508861253617
 20
3299.853273576535
 10
5509.508861253617
 20
3319.853273576491
 10
5694.691801763311
 20
3319.853273576491
  0
LWPOLYLINE
  5
122
330
17
100
AcDbEntity
  8
SCO-___-LAJ
 62
7
370
25
100
AcDbPolyline
 90
4
 70
1
 10
5685.68953434785
 20
3318.519860243165
 10
5528.383673834989
 20
3318.519860243158
 10
5528.383673834989
 20
3315.320180243182
 10
5685.68953434785
 20
3315.320180243189
  0
LWPOLYLINE
  5
123
330
17
100
AcDbEntity
  8
Painéis
 62
7
370
25
100
AcDbPolyline
 90
4
 70
1
 10
5557.0534083289
 20
2992.413584925853
 10
5628.053408328899
 20
2992.413584925828
 10
5628.053408328899
 20
2999.413584925827
 10
5557.0534083289
 20
2999.413584925853
  0
LWPOLYLINE
  5
124
330
17
100
AcDbEntity
  8
Painéis
 62
7
370
25
100
AcDbPolyline
 90
4
 70
1
 10
5929.623808220076
 20
3395.853273576469
 10
5933.623808220076
 20
3395.853273576469
 10
5933.623808220076
 20
3319.853273576491
 10
5929.623808220076
 20
3319.853273576491
  0
LWPOLYLINE
  5
125
330
17
100
AcDbEntity
  8
Madeira
 62
7
370
25
100
AcDbPolyline
 90
4
 70
1
 10
5961.623808220076
 20
3319.853273576491
 10
5961.623808220076
 20
3324.253273576486
 10
5951.623808220077
 20
3324.253273576486
 10
5951.623808220077
 20
3319.853273576491
  0
LWPOLYLINE
  5
126
330
17
100
AcDbEntity
  8
Painéis
 62
7
370
25
100
AcDbPolyline
 90
4
 70
1
 10
5961.623808220076
 20
3324.253273576486
 10
5961.623808220076
 20
3327.853273576491
 10
5933.623808220076
 20
3327.853273576491
 10
5933.623808220076
 20
3324.253273576486
  0
LWPOLYLINE
  5
127
330
17
100
AcDbEntity
  8
Madeira
 62
7
370
25
100
AcDbPolyline
 90
4
 70
1
 10
5933.623808220076
 20
3319.853273576491
 10
5933.623808220076
 20
3324.253273576486
 10
5943.623808220076
 20
3324.253273576486
 10
5943.623808220076
 20
3319.853273576491
  0
LWPOLYLINE
  5
128
330
17
100
AcDbEntity
  8
Painéis
 62
7
370
25
100
AcDbPolyline
 90
4
 70
1
 10
5965.623808220087
 20
3437.853273576492
 10
5961.623808220087
 20
3437.853273576492
 10
5961.623808220076
 20
3319.853273576491
 10
5965.623808220076
 20
3319.853273576491
  0
LWPOLYLINE
  5
129
330
17
100
AcDbEntity
  8
Painéis
 62
7
370
25
100
AcDbPolyline
 90
4
 70
1
 10
5933.623808220076
 20
3395.853273576469
 10
5933.623808220076
 20
3399.853273576469
 10
5878.023808220099
 20
3399.853273576462
 10
5878.023808220099
 20
3395.853273576462
  0
LWPOLYLINE
  5
12A
330
17
100
AcDbEntity
  8
CONCRETO
 62
7
370
25
100
AcDbPolyline
 90
8
 70
1
 10
5878.023808220099
 20
3399.853273576462
 10
5878.023808220099
 20
3423.853273576491
 10
5933.623808220076
 20
3423.853273576491
 10
5933.623808220076
 20
3437.853273576492
 10
5961.623808220018
 20
3437.853273576492
 10
5961.623808220018
 20
3327.853273576491
 10
5933.623808220076
 20
3327.853273576491
 10
5933.623808220076
 20
3399.853273576469
  0
LWPOLYLINE
  5
12B
330
17
100
AcDbEntity
  8
Painéis
 62
7
370
25
100
AcDbPolyline
 90
4
 70
1
 10
5930.02380822007
 20
3437.853273576492
 10
5933.623808220076
 20
3437.853273576492
 10
5933.623808220076
 20
3423.853273576491
 10
5930.02380822007
 20
3423.853273576491
  0
LWPOLYLINE
  5
12C
330
17
100
AcDbEntity
  8
Madeira
 62
7
370
25
100
AcDbPolyline
 90
4
 70
1
 10
5925.623808220076
 20
3423.853273576491
 10
5930.02380822007
 20
3423.853273576491
 10
5930.02380822007
 20
3437.853273576492
 10
5925.623808220076
 20
3437.853273576492
  0
LWPOLYLINE
  5
12D
330
17
100
AcDbEntity
  8
Madeira
 62
7
370
25
100
AcDbPolyline
 90
4
 70
1
 10
5965.623808220087
 20
3433.453273576489
 10
5965.623808220087
 20
3437.853273576492
 10
5979.623808220087
 20
3437.853273576492
 10
5979.623808220087
 20
3433.453273576489
  0
LWPOLYLINE
  5
12E
330
17
100
AcDbEntity
  8
Madeira
 62
7
370
25
100
AcDbPolyline
 90
4
 70
1
 10
5999.623808220076
 20
3319.853273576491
 10
5999.623808220076
 20
3324.253273576486
 10
5979.623808220076
 20
3324.253273576486
 10
5979.623808220076
 20
3319.853273576491
  0
LWPOLYLINE
  5
12F
330
17
100
AcDbEntity
  8
Madeira
 62
7
370
25
100
AcDbPolyline
 90
4
 70
1
 10
5965.623808220087
 20
3437.853273576492
 10
5979.623808220087
 20
3437.853273576492
 10
5979.623808220076
 20
3319.853273576491
 10
5965.623808220076
 20
3319.853273576491
  0
LWPOLYLINE
  5
130
330
17
100
AcDbEntity
  8
Madeira
 62
7
370
25
100
AcDbPolyline
 90
4
 70
1
 10
5929.623808220076
 20
3391.453273576466
 10
5929.623808220076
 20
3395.853273576468
 10
5915.623808220076
 20
3395.853273576468
 10
5915.623808220076
 20
3391.453273576466
  0
LWPOLYLINE
  5
131
330
17
100
AcDbEntity
  8
Madeira
 62
7
370
25
100
AcDbPolyline
 90
4
 70
1
 10
5895.623808220076
 20
3319.853273576491
 10
5895.623808220076
 20
3324.253273576486
 10
5915.623808220076
 20
3324.253273576486
 10
5915.623808220076
 20
3319.853273576491
  0
LWPOLYLINE
  5
132
330
17
100
AcDbEntity
  8
Madeira
 62
7
370
25
100
AcDbPolyline
 90
4
 70
1
 10
5929.623808220076
 20
3395.853273576468
 10
5915.623808220076
 20
3395.853273576468
 10
5915.623808220076
 20
3319.853273576491
 10
5929.623808220076
 20
3319.853273576491
  0
LWPOLYLINE
  5
133
330
17
100
AcDbEntity
  8
barrote
 62
7
370
25
100
AcDbPolyline
 90
4
 70
1
 10
5862.168610548182
 20
3299.853273576535
 10
6047.351551057876
 20
3299.853273576535
 10
6047.351551057876
 20
3319.853273576491
 10
5862.168610548182
 20
3319.853273576491
  0
LWPOLYLINE
  5
134
330
17
100
AcDbEntity
  8
SCO-___-LAJ
 62
7
370
25
100
AcDbPolyline
 90
4
 70
1
 10
5871.170877963643
 20
3318.519860243165
 10
6028.476738476504
 20
3318.519860243158
 10
6028.476738476504
 20
3315.320180243182
 10
5871.170877963643
 20
3315.320180243189
  0
LWPOLYLINE
  5
135
330
17
100
AcDbEntity
  8
Painéis
 62
7
370
25
100
AcDbPolyline
 90
4
 70
1
 10
5895.440612457559
 20
3201.677279736087
 10
5966.440612457559
 20
3201.677279736061
 10
5966.440612457559
 20
3208.677279736061
 10
5895.440612457559
 20
3208.677279736086
  0
TEXT
  5
136
330
17
100
AcDbEntity
  8
detalhes
 62
7
370
25
100
AcDbText
 10
5103.460830453505
 20
3338.042945105775
 30
0.0
 40
9.600000000000001
  1
b
100
AcDbText
  0
TEXT
  5
137
330
17
100
AcDbEntity
  8
detalhes
 62
7
370
25
100
AcDbText
 10
5040.917171807769
 20
3338.054002551351
 30
0.0
 40
9.600000000000001
  1
a
100
AcDbText
  0
TEXT
  5
138
330
17
100
AcDbEntity
  8
detalhes
 62
7
370
25
100
AcDbText
 10
5067.346612892912
 20
3330.089027096331
 30
0.0
 40
9.600000000000001
  1
c
100
AcDbText
  0
TEXT
  5
139
330
17
100
AcDbEntity
  8
5
 62
7
370
25
100
AcDbText
 10
4886.09603875971
 20
3077.361306289883
 30
0.0
 40
12.0
  1
P19
100
AcDbText
  0
TEXT
  5
13A
330
17
100
AcDbEntity
  8
5
 62
7
370
25
100
AcDbText
 10
5266.503791849079
 20
3071.454784539986
 30
0.0
 40
12.0
  1
V407
100
AcDbText
  0
TEXT
  5
13B
330
17
100
AcDbEntity
  8
Texto Seção
 62
7
370
25
100
AcDbText
 10
4889.229550392609
 20
3223.088570201394
 30
0.0
 40
13.0
  1
V412.A
100
AcDbText
  0
TEXT
  5
13C
330
17
100
AcDbEntity
  8
5
 62
7
370
25
100
AcDbText
 10
4886.09603875971
 20
2866.495308061715
 30
0.0
 40
12.0
  1
V407
100
AcDbText
  0
TEXT
  5
13D
330
17
100
AcDbEntity
  8
5
 62
7
370
25
100
AcDbText
 10
5273.656042948323
 20
2860.588786311818
 30
0.0
 40
12.0
  1
P19
100
AcDbText
  0
TEXT
  5
13E
330
17
100
AcDbEntity
  8
Texto Seção
 62
7
370
25
100
AcDbText
 10
4889.229550392609
 20
3012.222571973226
 30
0.0
 40
13.0
  1
V412.B
100
AcDbText
  0
TEXT
  5
13F
330
17
100
AcDbEntity
  8
detalhes
 62
7
370
25
100
AcDbText
 10
5581.269329872299
 20
3384.537690472642
 30
0.0
 40
9.600000000000001
  1
A
100
AcDbText
  0
TEXT
  5
140
330
17
100
AcDbEntity
  8
detalhes
 62
7
370
25
100
AcDbText
 10
5629.967760505562
 20
3349.537290301245
 30
0.0
 40
9.600000000000001
  1
B
100
AcDbText
  0
TEXT
  5
141
330
17
100
AcDbEntity
  8
detalhes
 62
7
370
25
100
AcDbText
 10
5605.534584090007
 20
3330.08902709633
 30
0.0
 40
9.600000000000001
  1
c
100
AcDbText
  0
TEXT
  5
142
330
17
100
AcDbEntity
  8
Texto Seção
 62
7
370
25
100
AcDbText
 10
5515.86177739799
 20
3218.353497037119
 30
0.0
 40
13.0
  1
VF404.A/VF406.A
100
AcDbText
  0
TEXT
  5
143
330
17
100
AcDbEntity
  8
5
 62
7
370
25
100
AcDbText
 10
5534.873415695362
 20
3103.29780639544
 30
0.0
 40
12.0
  1
VF401
100
AcDbText
  0
TEXT
  5
144
330
17
100
AcDbEntity
  8
5
 62
7
370
25
100
AcDbText
 10
5621.757766628984
 20
3103.29780639544
 30
0.0
 40
12.0
  1
V401
100
AcDbText
  0
TEXT
  5
145
330
17
100
AcDbEntity
  8
Texto Seção
 62
7
370
25
100
AcDbText
 10
5511.886193571821
 20
3016.709672584806
 30
0.0
 40
13.0
  1
VF404.B/VF406.B
100
AcDbText
  0
TEXT
  5
146
330
17
100
AcDbEntity
  8
5
 62
7
370
25
100
AcDbText
 10
5536.519909430015
 20
2871.636441095864
 30
0.0
 40
12.0
  1
V401
100
AcDbText
  0
TEXT
  5
147
330
17
100
AcDbEntity
  8
5
 62
7
370
25
100
AcDbText
 10
5598.724152998508
 20
2871.636441095864
 30
0.0
 40
12.0
  1
VF404
100
AcDbText
  0
TEXT
  5
148
330
17
100
AcDbEntity
  8
detalhes
 62
7
370
25
100
AcDbText
 10
5969.303363140949
 20
3384.537690472642
 30
0.0
 40
9.600000000000001
  1
b
100
AcDbText
  0
TEXT
  5
149
330
17
100
AcDbEntity
  8
detalhes
 62
7
370
25
100
AcDbText
 10
5918.89265180593
 20
3349.537290301245
 30
0.0
 40
9.600000000000001
  1
a
100
AcDbText
  0
TEXT
  5
14A
330
17
100
AcDbEntity
  8
detalhes
 62
7
370
25
100
AcDbText
 10
5944.224073835521
 20
3330.08902709633
 30
0.0
 40
9.600000000000001
  1
c
100
AcDbText
  0
TEXT
  5
14B
330
17
100
AcDbEntity
  8
5
 62
7
370
25
100
AcDbText
 10
5870.013719984982
 20
2889.314312315121
 30
0.0
 40
12.0
  1
VF401
100
AcDbText
  0
TEXT
  5
14C
330
17
100
AcDbEntity
  8
5
 62
7
370
25
100
AcDbText
 10
5956.898070918605
 20
2889.314312315121
 30
0.0
 40
12.0
  1
V401
100
AcDbText
  0
TEXT
  5
14D
330
17
100
AcDbEntity
  8
5
 62
7
370
25
100
AcDbText
 10
5874.907113558675
 20
3080.900135906097
 30
0.0
 40
12.0
  1
V401
100
AcDbText
  0
TEXT
  5
14E
330
17
100
AcDbEntity
  8
5
 62
7
370
25
100
AcDbText
 10
5937.111357127168
 20
3080.900135906097
 30
0.0
 40
12.0
  1
VF404
100
AcDbText
  0
TEXT
  5
14F
330
17
100
AcDbEntity
  8
Texto Seção
 62
7
370
25
100
AcDbText
 10
5848.663666136102
 20
3227.846391621792
 30
0.0
 40
13.0
  1
VF405.A/VF406.A
100
AcDbText
  0
TEXT
  5
150
330
17
100
AcDbEntity
  8
Texto Seção
 62
7
370
25
100
AcDbText
 10
5844.688082309932
 20
2999.469071893153
 30
0.0
 40
13.0
  1
VF405.B/VF406.B
100
AcDbText
  0
HATCH
  5
151
330
17
100
AcDbEntity
  8
Hachura
 62
7
100
AcDbHatch
 10
0.0
 20
0.0
 30
0.0
210
0.0
220
0.0
230
1.0
  2
SOLID
 70
1
 71
0
 91
1
 92
3
 72
0
 73
1
 93
8
 10
5052.746347277467
 20
3407.853273576471
 10
5056.746347277467
 20
3407.853273576471
 10
5056.746347277467
 20
3407.853273576471
 10
5056.746347277467
 20
3319.853273576492
 10
5056.746347277467
 20
3319.853273576492
 10
5052.746347277467
 20
3319.853273576492
 10
5052.746347277467
 20
3319.853273576492
 10
5052.746347277467
 20
3407.853273576471
 97
0
 75
1
 76
1
 98
0
  0
HATCH
  5
152
330
17
100
AcDbEntity
  8
Hachura
 62
7
100
AcDbHatch
 10
0.0
 20
0.0
 30
0.0
210
0.0
220
0.0
230
1.0
  2
SOLID
 70
1
 71
0
 91
1
 92
3
 72
0
 73
1
 93
8
 10
5094.746347277467
 20
3319.853273576492
 10
5094.746347277467
 20
3324.253273576486
 10
5094.746347277467
 20
3324.253273576486
 10
5080.746347277467
 20
3324.253273576486
 10
5080.746347277467
 20
3324.253273576486
 10
5080.746347277467
 20
3319.853273576492
 10
5080.746347277467
 20
3319.853273576492
 10
5094.746347277467
 20
3319.853273576492
 97
0
 75
1
 76
1
 98
0
  0
HATCH
  5
153
330
17
100
AcDbEntity
  8
Hachura
 62
7
100
AcDbHatch
 10
0.0
 20
0.0
 30
0.0
210
0.0
220
0.0
230
1.0
  2
SOLID
 70
1
 71
0
 91
1
 92
3
 72
0
 73
1
 93
8
 10
5094.746347277467
 20
3324.253273576486
 10
5094.746347277467
 20
3327.853273576492
 10
5094.746347277467
 20
3327.853273576492
 10
5056.746347277467
 20
3327.853273576492
 10
5056.746347277467
 20
3327.853273576492
 10
5056.746347277467
 20
3324.253273576486
 10
5056.746347277467
 20
3324.253273576486
 10
5094.746347277467
 20
3324.253273576486
 97
0
 75
1
 76
1
 98
0
  0
HATCH
  5
154
330
17
100
AcDbEntity
  8
Hachura
 62
7
100
AcDbHatch
 10
0.0
 20
0.0
 30
0.0
210
0.0
220
0.0
230
1.0
  2
SOLID
 70
1
 71
0
 91
1
 92
3
 72
0
 73
1
 93
8
 10
5056.746347277467
 20
3319.853273576492
 10
5056.746347277467
 20
3324.253273576486
 10
5056.746347277467
 20
3324.253273576486
 10
5070.746347277466
 20
3324.253273576486
 10
5070.746347277466
 20
3324.253273576486
 10
5070.746347277466
 20
3319.853273576492
 10
5070.746347277466
 20
3319.853273576492
 10
5056.746347277467
 20
3319.853273576492
 97
0
 75
1
 76
1
 98
0
  0
HATCH
  5
155
330
17
100
AcDbEntity
  8
Hachura
 62
7
100
AcDbHatch
 10
0.0
 20
0.0
 30
0.0
210
0.0
220
0.0
230
1.0
  2
SOLID
 70
1
 71
0
 91
1
 92
3
 72
0
 73
1
 93
8
 10
5098.746347277467
 20
3409.85327357647
 10
5094.746347277467
 20
3409.85327357647
 10
5094.746347277467
 20
3409.85327357647
 10
5094.746347277467
 20
3319.853273576492
 10
5094.746347277467
 20
3319.853273576492
 10
5098.746347277467
 20
3319.853273576492
 10
5098.746347277467
 20
3319.853273576492
 10
5098.746347277467
 20
3409.85327357647
 97
0
 75
1
 76
1
 98
0
  0
HATCH
  5
156
330
17
100
AcDbEntity
  8
Hachura
 62
7
100
AcDbHatch
 10
0.0
 20
0.0
 30
0.0
210
0.0
220
0.0
230
1.0
  2
SOLID
 70
1
 71
0
 91
1
 92
3
 72
0
 73
1
 93
8
 10
5154.746347277438
 20
3407.853273576471
 10
5154.746347277438
 20
3411.853273576471
 10
5154.746347277438
 20
3411.853273576471
 10
5094.746347277467
 20
3411.853273576471
 10
5094.746347277467
 20
3411.853273576471
 10
5094.746347277467
 20
3407.853273576471
 10
5094.746347277467
 20
3407.853273576471
 10
5154.746347277438
 20
3407.853273576471
 97
0
 75
1
 76
1
 98
0
  0
HATCH
  5
157
330
17
100
AcDbEntity
  8
Hachura
 62
7
100
AcDbHatch
 10
0.0
 20
0.0
 30
0.0
210
0.0
220
0.0
230
1.0
  2
SOLID
 70
1
 71
0
 91
1
 92
3
 72
0
 73
1
 93
8
 10
5056.746347277467
 20
3405.85327357647
 10
5056.746347277467
 20
3409.85327357647
 10
5056.746347277467
 20
3409.85327357647
 10
5001.14634727749
 20
3409.853273576463
 10
5001.14634727749
 20
3409.853273576463
 10
5001.14634727749
 20
3405.853273576463
 10
5001.14634727749
 20
3405.853273576463
 10
5056.746347277467
 20
3405.85327357647
 97
0
 75
1
 76
1
 98
0
  0
HATCH
  5
158
330
17
100
AcDbEntity
  8
Hachura
 62
7
100
AcDbHatch
 10
0.0
 20
0.0
 30
0.0
210
0.0
220
0.0
230
1.0
  2
SOLID
 70
1
 71
0
 91
1
 92
3
 72
0
 73
1
 93
8
 10
5048.346347277473
 20
3391.85327357647
 10
5052.746347277467
 20
3391.85327357647
 10
5052.746347277467
 20
3391.85327357647
 10
5052.746347277467
 20
3405.85327357647
 10
5052.746347277467
 20
3405.85327357647
 10
5048.346347277473
 20
3405.85327357647
 10
5048.346347277473
 20
3405.85327357647
 10
5048.346347277473
 20
3391.85327357647
 97
0
 75
1
 76
1
 98
0
  0
HATCH
  5
159
330
17
100
AcDbEntity
  8
Hachura
 62
7
100
AcDbHatch
 10
0.0
 20
0.0
 30
0.0
210
0.0
220
0.0
230
1.0
  2
SOLID
 70
1
 71
0
 91
1
 92
3
 72
0
 73
1
 93
8
 10
5048.346347277473
 20
3319.853273576492
 10
5052.746347277467
 20
3319.853273576492
 10
5052.746347277467
 20
3319.853273576492
 10
5052.746347277467
 20
3333.853273576492
 10
5052.746347277467
 20
3333.853273576492
 10
5048.346347277473
 20
3333.853273576492
 10
5048.346347277473
 20
3333.853273576492
 10
5048.346347277473
 20
3319.853273576492
 97
0
 75
1
 76
1
 98
0
  0
HATCH
  5
15A
330
17
100
AcDbEntity
  8
Hachura
 62
7
100
AcDbHatch
 10
0.0
 20
0.0
 30
0.0
210
0.0
220
0.0
230
1.0
  2
SOLID
 70
1
 71
0
 91
1
 92
3
 72
0
 73
1
 93
8
 10
5103.146347277461
 20
3393.85327357647
 10
5098.746347277467
 20
3393.85327357647
 10
5098.746347277467
 20
3393.85327357647
 10
5098.746347277467
 20
3407.853273576471
 10
5098.746347277467
 20
3407.853273576471
 10
5103.146347277461
 20
3407.853273576471
 10
5103.146347277461
 20
3407.853273576471
 10
5103.146347277461
 20
3393.85327357647
 97
0
 75
1
 76
1
 98
0
  0
HATCH
  5
15B
330
17
100
AcDbEntity
  8
Hachura
 62
7
100
AcDbHatch
 10
0.0
 20
0.0
 30
0.0
210
0.0
220
0.0
230
1.0
  2
SOLID
 70
1
 71
0
 91
1
 92
3
 72
0
 73
1
 93
8
 10
5103.146347277461
 20
3319.853273576492
 10
5098.746347277467
 20
3319.853273576492
 10
5098.746347277467
 20
3319.853273576492
 10
5098.746347277467
 20
3333.853273576492
 10
5098.746347277467
 20
3333.853273576492
 10
5103.146347277461
 20
3333.853273576492
 10
5103.146347277461
 20
3333.853273576492
 10
5103.146347277461
 20
3319.853273576492
 97
0
 75
1
 76
1
 98
0
  0
HATCH
  5
15C
330
17
100
AcDbEntity
  8
COTA
 62
7
100
AcDbHatch
 10
0.0
 20
0.0
 30
0.0
210
0.0
220
0.0
230
1.0
  2
SOLID
 70
1
 71
0
 91
1
 92
3
 72
0
 73
1
 93
9
 10
5301.200125083722
 20
3213.406170465884
 10
4885.950125083722
 20
3213.406170465884
 10
4885.950125083722
 20
3213.406170465884
 10
4886.200125083722
 20
3197.406170465884
 10
4886.200125083722
 20
3197.406170465884
 10
5301.200125083724
 20
3197.406170465911
 10
5301.200125083726
 20
3197.406170465911
 10
5301.200125083724
 20
3213.406170465884
 10
5301.200125083722
 20
3213.406170465884
 97
0
 75
1
 76
1
 98
0
  0
HATCH
  5
15D
330
17
100
AcDbEntity
  8
COTA
 62
7
100
AcDbHatch
 10
0.0
 20
0.0
 30
0.0
210
0.0
220
0.0
230
1.0
  2
SOLID
 70
1
 71
0
 91
1
 92
3
 72
0
 73
1
 93
8
 10
5301.075125083722
 20
3002.540172237717
 10
4885.950125083722
 20
3002.540172237717
 10
4885.950125083722
 20
3002.540172237717
 10
4886.200125083722
 20
2987.540172237716
 10
4886.200125083722
 20
2987.540172237716
 10
5301.325125083722
 20
2987.540172237742
 10
5301.325125083722
 20
2987.540172237742
 10
5301.075125083722
 20
3002.540172237717
 97
0
 75
1
 76
1
 98
0
  0
HATCH
  5
15E
330
17
100
AcDbEntity
  8
Hachura
 62
7
100
AcDbHatch
 10
0.0
 20
0.0
 30
0.0
210
0.0
220
0.0
230
1.0
  2
SOLID
 70
1
 71
0
 91
1
 92
3
 72
0
 73
1
 93
8
 10
5048.346347277473
 20
3354.853273576481
 10
5052.746347277467
 20
3354.853273576481
 10
5052.746347277467
 20
3354.853273576481
 10
5052.746347277467
 20
3368.853273576481
 10
5052.746347277467
 20
3368.853273576481
 10
5048.346347277473
 20
3368.853273576481
 10
5048.346347277473
 20
3368.853273576481
 10
5048.346347277473
 20
3354.853273576481
 97
0
 75
1
 76
1
 98
0
  0
HATCH
  5
15F
330
17
100
AcDbEntity
  8
Hachura
 62
7
100
AcDbHatch
 10
0.0
 20
0.0
 30
0.0
210
0.0
220
0.0
230
1.0
  2
SOLID
 70
1
 71
0
 91
1
 92
3
 72
0
 73
1
 93
8
 10
5103.146347277461
 20
3356.853273576481
 10
5098.746347277467
 20
3356.853273576481
 10
5098.746347277467
 20
3356.853273576481
 10
5098.746347277467
 20
3370.853273576481
 10
5098.746347277467
 20
3370.853273576481
 10
5103.146347277461
 20
3370.853273576481
 10
5103.146347277461
 20
3370.853273576481
 10
5103.146347277461
 20
3356.853273576481
 97
0
 75
1
 76
1
 98
0
  0
HATCH
  5
160
330
17
100
AcDbEntity
  8
REAPROVEITAMENTO
 62
7
100
AcDbHatch
 10
0.0
 20
0.0
 30
0.0
210
0.0
220
0.0
230
1.0
  2
SOLID
 70
1
 71
0
 91
1
 92
3
 72
0
 73
1
 93
8
 10
5301.200125083726
 20
3154.40617046586
 10
5301.200125083726
 20
3197.406170465893
 10
5301.200125083726
 20
3197.406170465893
 10
4886.200125083722
 20
3197.406170465884
 10
4886.200125083722
 20
3197.406170465884
 10
4886.200125083722
 20
3154.406170465853
 10
4886.200125083722
 20
3154.406170465853
 10
5301.200125083726
 20
3154.40617046586
 97
0
 75
1
 76
1
 98
0
  0
HATCH
  5
161
330
17
100
AcDbEntity
  8
REAPROVEITAMENTO
 62
7
100
AcDbHatch
 10
0.0
 20
0.0
 30
0.0
210
0.0
220
0.0
230
1.0
  2
SOLID
 70
1
 71
0
 91
1
 92
3
 72
0
 73
1
 93
8
 10
5301.200125083726
 20
2943.540172237746
 10
5301.200125083726
 20
2987.540172237738
 10
5301.200125083726
 20
2987.540172237738
 10
4886.200125083733
 20
2987.540172237716
 10
4886.200125083733
 20
2987.540172237716
 10
4886.200125083733
 20
2943.540172237723
 10
4886.200125083733
 20
2943.540172237723
 10
5301.200125083726
 20
2943.540172237746
 97
0
 75
1
 76
1
 98
0
  0
HATCH
  5
162
330
17
100
AcDbEntity
  8
Hachura
 62
7
100
AcDbHatch
 10
0.0
 20
0.0
 30
0.0
210
0.0
220
0.0
230
1.0
  2
SOLID
 70
1
 71
0
 91
1
 92
3
 72
0
 73
1
 93
8
 10
5623.236604091417
 20
3399.853273576469
 10
5627.236604091416
 20
3399.853273576469
 10
5627.236604091416
 20
3399.853273576469
 10
5627.236604091416
 20
3319.853273576491
 10
5627.236604091416
 20
3319.853273576491
 10
5623.236604091417
 20
3319.853273576491
 10
5623.236604091417
 20
3319.853273576491
 10
5623.236604091417
 20
3399.853273576469
 97
0
 75
1
 76
1
 98
0
  0
HATCH
  5
163
330
17
100
AcDbEntity
  8
Hachura
 62
7
100
AcDbHatch
 10
0.0
 20
0.0
 30
0.0
210
0.0
220
0.0
230
1.0
  2
SOLID
 70
1
 71
0
 91
1
 92
3
 72
0
 73
1
 93
8
 10
5595.236604091417
 20
3319.853273576491
 10
5595.236604091417
 20
3324.253273576486
 10
5595.236604091417
 20
3324.253273576486
 10
5605.236604091416
 20
3324.253273576486
 10
5605.236604091416
 20
3324.253273576486
 10
5605.236604091416
 20
3319.853273576491
 10
5605.236604091416
 20
3319.853273576491
 10
5595.236604091417
 20
3319.853273576491
 97
0
 75
1
 76
1
 98
0
  0
HATCH
  5
164
330
17
100
AcDbEntity
  8
Hachura
 62
7
100
AcDbHatch
 10
0.0
 20
0.0
 30
0.0
210
0.0
220
0.0
230
1.0
  2
SOLID
 70
1
 71
0
 91
1
 92
3
 72
0
 73
1
 93
8
 10
5595.236604091417
 20
3324.253273576486
 10
5595.236604091417
 20
3327.853273576491
 10
5595.236604091417
 20
3327.853273576491
 10
5623.236604091417
 20
3327.853273576491
 10
5623.236604091417
 20
3327.853273576491
 10
5623.236604091417
 20
3324.253273576486
 10
5623.236604091417
 20
3324.253273576486
 10
5595.236604091417
 20
3324.253273576486
 97
0
 75
1
 76
1
 98
0
  0
HATCH
  5
165
330
17
100
AcDbEntity
  8
Hachura
 62
7
100
AcDbHatch
 10
0.0
 20
0.0
 30
0.0
210
0.0
220
0.0
230
1.0
  2
SOLID
 70
1
 71
0
 91
1
 92
3
 72
0
 73
1
 93
8
 10
5623.236604091417
 20
3319.853273576491
 10
5623.236604091417
 20
3324.253273576486
 10
5623.236604091417
 20
3324.253273576486
 10
5613.236604091417
 20
3324.253273576486
 10
5613.236604091417
 20
3324.253273576486
 10
5613.236604091417
 20
3319.853273576491
 10
5613.236604091417
 20
3319.853273576491
 10
5623.236604091417
 20
3319.853273576491
 97
0
 75
1
 76
1
 98
0
  0
HATCH
  5
166
330
17
100
AcDbEntity
  8
Hachura
 62
7
100
AcDbHatch
 10
0.0
 20
0.0
 30
0.0
210
0.0
220
0.0
230
1.0
  2
SOLID
 70
1
 71
0
 91
1
 92
3
 72
0
 73
1
 93
8
 10
5591.236604091417
 20
3437.853273576492
 10
5595.236604091417
 20
3437.853273576492
 10
5595.236604091417
 20
3437.853273576492
 10
5595.236604091417
 20
3319.853273576491
 10
5595.236604091417
 20
3319.853273576491
 10
5591.236604091417
 20
3319.853273576491
 10
5591.236604091417
 20
3319.853273576491
 10
5591.236604091417
 20
3437.853273576492
 97
0
 75
1
 76
1
 98
0
  0
HATCH
  5
167
330
17
100
AcDbEntity
  8
Hachura
 62
7
100
AcDbHatch
 10
0.0
 20
0.0
 30
0.0
210
0.0
220
0.0
230
1.0
  2
SOLID
 70
1
 71
0
 91
1
 92
3
 72
0
 73
1
 93
8
 10
5623.236604091417
 20
3395.853273576469
 10
5623.236604091417
 20
3399.853273576469
 10
5623.236604091417
 20
3399.853273576469
 10
5678.836604091394
 20
3399.853273576462
 10
5678.836604091394
 20
3399.853273576462
 10
5678.836604091394
 20
3395.853273576462
 10
5678.836604091394
 20
3395.853273576462
 10
5623.236604091417
 20
3395.853273576469
 97
0
 75
1
 76
1
 98
0
  0
HATCH
  5
168
330
17
100
AcDbEntity
  8
Hachura
 62
7
100
AcDbHatch
 10
0.0
 20
0.0
 30
0.0
210
0.0
220
0.0
230
1.0
  2
SOLID
 70
1
 71
0
 91
1
 92
3
 72
0
 73
1
 93
8
 10
5626.836604091423
 20
3437.853273576492
 10
5623.236604091417
 20
3437.853273576492
 10
5623.236604091417
 20
3437.853273576492
 10
5623.236604091417
 20
3423.853273576491
 10
5623.236604091417
 20
3423.853273576491
 10
5626.836604091423
 20
3423.853273576491
 10
5626.836604091423
 20
3423.853273576491
 10
5626.836604091423
 20
3437.853273576492
 97
0
 75
1
 76
1
 98
0
  0
HATCH
  5
169
330
17
100
AcDbEntity
  8
Hachura
 62
7
100
AcDbHatch
 10
0.0
 20
0.0
 30
0.0
210
0.0
220
0.0
230
1.0
  2
SOLID
 70
1
 71
0
 91
1
 92
3
 72
0
 73
1
 93
8
 10
5631.236604091417
 20
3423.853273576491
 10
5626.836604091423
 20
3423.853273576491
 10
5626.836604091423
 20
3423.853273576491
 10
5626.836604091423
 20
3437.853273576492
 10
5626.836604091423
 20
3437.853273576492
 10
5631.236604091417
 20
3437.853273576492
 10
5631.236604091417
 20
3437.853273576492
 10
5631.236604091417
 20
3423.853273576491
 97
0
 75
1
 76
1
 98
0
  0
HATCH
  5
16A
330
17
100
AcDbEntity
  8
Hachura
 62
7
100
AcDbHatch
 10
0.0
 20
0.0
 30
0.0
210
0.0
220
0.0
230
1.0
  2
SOLID
 70
1
 71
0
 91
1
 92
3
 72
0
 73
1
 93
8
 10
5591.236604091406
 20
3433.453273576489
 10
5591.236604091406
 20
3437.853273576492
 10
5591.236604091406
 20
3437.853273576492
 10
5577.236604091406
 20
3437.853273576492
 10
5577.236604091406
 20
3437.853273576492
 10
5577.236604091406
 20
3433.453273576489
 10
5577.236604091406
 20
3433.453273576489
 10
5591.236604091406
 20
3433.453273576489
 97
0
 75
1
 76
1
 98
0
  0
HATCH
  5
16B
330
17
100
AcDbEntity
  8
Hachura
 62
7
100
AcDbHatch
 10
0.0
 20
0.0
 30
0.0
210
0.0
220
0.0
230
1.0
  2
SOLID
 70
1
 71
0
 91
1
 92
3
 72
0
 73
1
 93
8
 10
5557.236604091417
 20
3319.853273576491
 10
5557.236604091417
 20
3324.253273576486
 10
5557.236604091417
 20
3324.253273576486
 10
5577.236604091416
 20
3324.253273576486
 10
5577.236604091416
 20
3324.253273576486
 10
5577.236604091416
 20
3319.853273576491
 10
5577.236604091416
 20
3319.853273576491
 10
5557.236604091417
 20
3319.853273576491
 97
0
 75
1
 76
1
 98
0
  0
HATCH
  5
16C
330
17
100
AcDbEntity
  8
Hachura
 62
7
100
AcDbHatch
 10
0.0
 20
0.0
 30
0.0
210
0.0
220
0.0
230
1.0
  2
SOLID
 70
1
 71
0
 91
1
 92
3
 72
0
 73
1
 93
8
 10
5627.236604091416
 20
3391.453273576466
 10
5627.236604091416
 20
3395.853273576468
 10
5627.236604091416
 20
3395.853273576468
 10
5641.236604091417
 20
3395.853273576468
 10
5641.236604091417
 20
3395.853273576468
 10
5641.236604091417
 20
3391.453273576466
 10
5641.236604091417
 20
3391.453273576466
 10
5627.236604091416
 20
3391.453273576466
 97
0
 75
1
 76
1
 98
0
  0
HATCH
  5
16D
330
17
100
AcDbEntity
  8
Hachura
 62
7
100
AcDbHatch
 10
0.0
 20
0.0
 30
0.0
210
0.0
220
0.0
230
1.0
  2
SOLID
 70
1
 71
0
 91
1
 92
3
 72
0
 73
1
 93
8
 10
5661.236604091417
 20
3319.853273576491
 10
5661.236604091417
 20
3324.253273576486
 10
5661.236604091417
 20
3324.253273576486
 10
5641.236604091417
 20
3324.253273576486
 10
5641.236604091417
 20
3324.253273576486
 10
5641.236604091417
 20
3319.853273576491
 10
5641.236604091417
 20
3319.853273576491
 10
5661.236604091417
 20
3319.853273576491
 97
0
 75
1
 76
1
 98
0
  0
HATCH
  5
16E
330
17
100
AcDbEntity
  8
COTA
 62
7
100
AcDbHatch
 10
0.0
 20
0.0
 30
0.0
210
0.0
220
0.0
230
1.0
  2
SOLID
 70
1
 71
0
 91
1
 92
3
 72
0
 73
1
 93
8
 10
5557.0534083289
 20
2992.413584925853
 10
5557.0534083289
 20
2978.413584925854
 10
5557.0534083289
 20
2978.413584925854
 10
5628.053408328899
 20
2978.413584925858
 10
5628.053408328899
 20
2978.413584925858
 10
5628.0534083289
 20
2992.413584925853
 10
5628.0534083289
 20
2992.413584925853
 10
5557.0534083289
 20
2992.413584925853
 97
0
 75
1
 76
1
 98
0
  0
HATCH
  5
16F
330
17
100
AcDbEntity
  8
REAPROVEITAMENTO
 62
7
100
AcDbHatch
 10
0.0
 20
0.0
 30
0.0
210
0.0
220
0.0
230
1.0
  2
SOLID
 70
1
 71
0
 91
1
 92
3
 72
0
 73
1
 93
8
 10
5557.0534083289
 20
2999.413584925854
 10
5557.0534083289
 20
2992.413584925854
 10
5557.0534083289
 20
2992.413584925854
 10
5628.053408328899
 20
2992.413584925852
 10
5628.053408328899
 20
2992.413584925852
 10
5628.053408328899
 20
2999.413584925853
 10
5628.053408328899
 20
2999.413584925853
 10
5557.0534083289
 20
2999.413584925854
 97
0
 75
1
 76
1
 98
0
  0
HATCH
  5
170
330
17
100
AcDbEntity
  8
Hachura
 62
7
100
AcDbHatch
 10
0.0
 20
0.0
 30
0.0
210
0.0
220
0.0
230
1.0
  2
SOLID
 70
1
 71
0
 91
1
 92
3
 72
0
 73
1
 93
8
 10
5933.623808220076
 20
3399.853273576469
 10
5929.623808220076
 20
3399.853273576469
 10
5929.623808220076
 20
3399.853273576469
 10
5929.623808220076
 20
3319.853273576491
 10
5929.623808220076
 20
3319.853273576491
 10
5933.623808220076
 20
3319.853273576491
 10
5933.623808220076
 20
3319.853273576491
 10
5933.623808220076
 20
3399.853273576469
 97
0
 75
1
 76
1
 98
0
  0
HATCH
  5
171
330
17
100
AcDbEntity
  8
Hachura
 62
7
100
AcDbHatch
 10
0.0
 20
0.0
 30
0.0
210
0.0
220
0.0
230
1.0
  2
SOLID
 70
1
 71
0
 91
1
 92
3
 72
0
 73
1
 93
8
 10
5961.623808220076
 20
3319.853273576491
 10
5961.623808220076
 20
3324.253273576486
 10
5961.623808220076
 20
3324.253273576486
 10
5951.623808220077
 20
3324.253273576486
 10
5951.623808220077
 20
3324.253273576486
 10
5951.623808220077
 20
3319.853273576491
 10
5951.623808220077
 20
3319.853273576491
 10
5961.623808220076
 20
3319.853273576491
 97
0
 75
1
 76
1
 98
0
  0
HATCH
  5
172
330
17
100
AcDbEntity
  8
Hachura
 62
7
100
AcDbHatch
 10
0.0
 20
0.0
 30
0.0
210
0.0
220
0.0
230
1.0
  2
SOLID
 70
1
 71
0
 91
1
 92
3
 72
0
 73
1
 93
8
 10
5961.623808220076
 20
3324.253273576486
 10
5961.623808220076
 20
3327.853273576491
 10
5961.623808220076
 20
3327.853273576491
 10
5933.623808220076
 20
3327.853273576491
 10
5933.623808220076
 20
3327.853273576491
 10
5933.623808220076
 20
3324.253273576486
 10
5933.623808220076
 20
3324.253273576486
 10
5961.623808220076
 20
3324.253273576486
 97
0
 75
1
 76
1
 98
0
  0
HATCH
  5
173
330
17
100
AcDbEntity
  8
Hachura
 62
7
100
AcDbHatch
 10
0.0
 20
0.0
 30
0.0
210
0.0
220
0.0
230
1.0
  2
SOLID
 70
1
 71
0
 91
1
 92
3
 72
0
 73
1
 93
8
 10
5933.623808220076
 20
3319.853273576491
 10
5933.623808220076
 20
3324.253273576486
 10
5933.623808220076
 20
3324.253273576486
 10
5943.623808220076
 20
3324.253273576486
 10
5943.623808220076
 20
3324.253273576486
 10
5943.623808220076
 20
3319.853273576491
 10
5943.623808220076
 20
3319.853273576491
 10
5933.623808220076
 20
3319.853273576491
 97
0
 75
1
 76
1
 98
0
  0
HATCH
  5
174
330
17
100
AcDbEntity
  8
Hachura
 62
7
100
AcDbHatch
 10
0.0
 20
0.0
 30
0.0
210
0.0
220
0.0
230
1.0
  2
SOLID
 70
1
 71
0
 91
1
 92
3
 72
0
 73
1
 93
8
 10
5965.623808220076
 20
3437.853273576492
 10
5961.623808220076
 20
3437.853273576492
 10
5961.623808220076
 20
3437.853273576492
 10
5961.623808220076
 20
3319.853273576491
 10
5961.623808220076
 20
3319.853273576491
 10
5965.623808220076
 20
3319.853273576491
 10
5965.623808220076
 20
3319.853273576491
 10
5965.623808220076
 20
3437.853273576492
 97
0
 75
1
 76
1
 98
0
  0
HATCH
  5
175
330
17
100
AcDbEntity
  8
Hachura
 62
7
100
AcDbHatch
 10
0.0
 20
0.0
 30
0.0
210
0.0
220
0.0
230
1.0
  2
SOLID
 70
1
 71
0
 91
1
 92
3
 72
0
 73
1
 93
8
 10
5933.623808220076
 20
3395.853273576469
 10
5933.623808220076
 20
3399.853273576469
 10
5933.623808220076
 20
3399.853273576469
 10
5878.023808220099
 20
3399.853273576462
 10
5878.023808220099
 20
3399.853273576462
 10
5878.023808220099
 20
3395.853273576462
 10
5878.023808220099
 20
3395.853273576462
 10
5933.623808220076
 20
3395.853273576469
 97
0
 75
1
 76
1
 98
0
  0
HATCH
  5
176
330
17
100
AcDbEntity
  8
Hachura
 62
7
100
AcDbHatch
 10
0.0
 20
0.0
 30
0.0
210
0.0
220
0.0
230
1.0
  2
SOLID
 70
1
 71
0
 91
1
 92
3
 72
0
 73
1
 93
8
 10
5930.02380822007
 20
3437.853273576492
 10
5933.623808220076
 20
3437.853273576492
 10
5933.623808220076
 20
3437.853273576492
 10
5933.623808220076
 20
3423.853273576491
 10
5933.623808220076
 20
3423.853273576491
 10
5930.02380822007
 20
3423.853273576491
 10
5930.02380822007
 20
3423.853273576491
 10
5930.02380822007
 20
3437.853273576492
 97
0
 75
1
 76
1
 98
0
  0
HATCH
  5
177
330
17
100
AcDbEntity
  8
Hachura
 62
7
100
AcDbHatch
 10
0.0
 20
0.0
 30
0.0
210
0.0
220
0.0
230
1.0
  2
SOLID
 70
1
 71
0
 91
1
 92
3
 72
0
 73
1
 93
8
 10
5925.623808220076
 20
3423.853273576491
 10
5930.02380822007
 20
3423.853273576491
 10
5930.02380822007
 20
3423.853273576491
 10
5930.02380822007
 20
3437.853273576492
 10
5930.02380822007
 20
3437.853273576492
 10
5925.623808220076
 20
3437.853273576492
 10
5925.623808220076
 20
3437.853273576492
 10
5925.623808220076
 20
3423.853273576491
 97
0
 75
1
 76
1
 98
0
  0
HATCH
  5
178
330
17
100
AcDbEntity
  8
Hachura
 62
7
100
AcDbHatch
 10
0.0
 20
0.0
 30
0.0
210
0.0
220
0.0
230
1.0
  2
SOLID
 70
1
 71
0
 91
1
 92
3
 72
0
 73
1
 93
8
 10
5965.623808220087
 20
3433.453273576489
 10
5965.623808220087
 20
3437.853273576492
 10
5965.623808220087
 20
3437.853273576492
 10
5979.623808220087
 20
3437.853273576492
 10
5979.623808220087
 20
3437.853273576492
 10
5979.623808220087
 20
3433.453273576489
 10
5979.623808220087
 20
3433.453273576489
 10
5965.623808220087
 20
3433.453273576489
 97
0
 75
1
 76
1
 98
0
  0
HATCH
  5
179
330
17
100
AcDbEntity
  8
Hachura
 62
7
100
AcDbHatch
 10
0.0
 20
0.0
 30
0.0
210
0.0
220
0.0
230
1.0
  2
SOLID
 70
1
 71
0
 91
1
 92
3
 72
0
 73
1
 93
8
 10
5999.623808220076
 20
3319.853273576491
 10
5999.623808220076
 20
3324.253273576486
 10
5999.623808220076
 20
3324.253273576486
 10
5979.623808220076
 20
3324.253273576486
 10
5979.623808220076
 20
3324.253273576486
 10
5979.623808220076
 20
3319.853273576491
 10
5979.623808220076
 20
3319.853273576491
 10
5999.623808220076
 20
3319.853273576491
 97
0
 75
1
 76
1
 98
0
  0
HATCH
  5
17A
330
17
100
AcDbEntity
  8
Hachura
 62
7
100
AcDbHatch
 10
0.0
 20
0.0
 30
0.0
210
0.0
220
0.0
230
1.0
  2
SOLID
 70
1
 71
0
 91
1
 92
3
 72
0
 73
1
 93
8
 10
5929.623808220076
 20
3391.453273576466
 10
5929.623808220076
 20
3395.853273576468
 10
5929.623808220076
 20
3395.853273576468
 10
5915.623808220076
 20
3395.853273576468
 10
5915.623808220076
 20
3395.853273576468
 10
5915.623808220076
 20
3391.453273576466
 10
5915.623808220076
 20
3391.453273576466
 10
5929.623808220076
 20
3391.453273576466
 97
0
 75
1
 76
1
 98
0
  0
HATCH
  5
17B
330
17
100
AcDbEntity
  8
Hachura
 62
7
100
AcDbHatch
 10
0.0
 20
0.0
 30
0.0
210
0.0
220
0.0
230
1.0
  2
SOLID
 70
1
 71
0
 91
1
 92
3
 72
0
 73
1
 93
8
 10
5895.623808220076
 20
3319.853273576491
 10
5895.623808220076
 20
3324.253273576486
 10
5895.623808220076
 20
3324.253273576486
 10
5915.623808220076
 20
3324.253273576486
 10
5915.623808220076
 20
3324.253273576486
 10
5915.623808220076
 20
3319.853273576491
 10
5915.623808220076
 20
3319.853273576491
 10
5895.623808220076
 20
3319.853273576491
 97
0
 75
1
 76
1
 98
0
  0
HATCH
  5
17C
330
17
100
AcDbEntity
  8
COTA
 62
7
100
AcDbHatch
 10
0.0
 20
0.0
 30
0.0
210
0.0
220
0.0
230
1.0
  2
SOLID
 70
1
 71
0
 91
1
 92
3
 72
0
 73
1
 93
8
 10
5895.440612457559
 20
3201.677279736087
 10
5895.440612457559
 20
3187.677279736087
 10
5895.440612457559
 20
3187.677279736087
 10
5966.440612457559
 20
3187.677279736092
 10
5966.440612457559
 20
3187.677279736092
 10
5966.44061245756
 20
3201.677279736087
 10
5966.44061245756
 20
3201.677279736087
 10
5895.440612457559
 20
3201.677279736087
 97
0
 75
1
 76
1
 98
0
  0
HATCH
  5
17D
330
17
100
AcDbEntity
  8
REAPROVEITAMENTO
 62
7
100
AcDbHatch
 10
0.0
 20
0.0
 30
0.0
210
0.0
220
0.0
230
1.0
  2
SOLID
 70
1
 71
0
 91
1
 92
3
 72
0
 73
1
 93
8
 10
5895.440612457559
 20
3208.677279736087
 10
5895.440612457559
 20
3201.677279736087
 10
5895.440612457559
 20
3201.677279736087
 10
5966.440612457557
 20
3201.677279736086
 10
5966.440612457557
 20
3201.677279736086
 10
5966.440612457559
 20
3208.677279736086
 10
5966.440612457559
 20
3208.677279736086
 10
5895.440612457559
 20
3208.677279736087
 97
0
 75
1
 76
1
 98
0
  0
LINE
  5
17E
330
17
100
AcDbEntity
  8
0
 62
7
370
25
100
AcDbLine
 10
5116.565426323083
 20
2592.853273576493
 30
0.0
 11
5116.565426323083
 21
2792.096786987382
 31
0.0
  0
LWPOLYLINE
  5
17F
330
17
100
AcDbEntity
  8
Texto Seção
 62
7
370
25
100
AcDbPolyline
 90
4
 70
1
 10
4900.623744726996
 20
2833.324304525732
 10
5042.073062879252
 20
2833.324304525732
 10
5042.073062879252
 20
2810.123427457982
 10
4900.623744726996
 20
2810.123427457982
  0
TEXT
  5
180
330
17
100
AcDbEntity
  8
Texto Seção
 62
7
370
25
100
AcDbText
 10
4901.584697484164
 20
2814.875022545202
 30
0.0
 40
13.0
  1
VEM DA V311
100
AcDbText
  0
ENDSEC
  0
SECTION
  2
OBJECTS
  0
DICTIONARY
  5
A
330
0
100
AcDbDictionary
281
1
  3
ACAD_COLOR
350
B
  3
ACAD_GROUP
350
C
  3
ACAD_LAYOUT
350
D
  3
ACAD_MATERIAL
350
E
  3
ACAD_MLEADERSTYLE
350
F
  3
ACAD_MLINESTYLE
350
10
  3
ACAD_PLOTSETTINGS
350
11
  3
ACAD_PLOTSTYLENAME
350
12
  3
ACAD_SCALELIST
350
14
  3
ACAD_TABLESTYLE
350
15
  3
ACAD_VISUALSTYLE
350
16
  3
EZDXF_META
350
2D
  0
DICTIONARY
  5
B
330
A
100
AcDbDictionary
281
1
  0
DICTIONARY
  5
C
330
A
100
AcDbDictionary
281
1
  0
DICTIONARY
  5
D
330
A
100
AcDbDictionary
281
1
  3
Model
350
1A
  3
Layout1
350
1E
  0
DICTIONARY
  5
E
330
A
100
AcDbDictionary
281
1
  3
ByBlock
350
1F
  3
ByLayer
350
20
  3
Global
350
21
  0
DICTIONARY
  5
F
330
A
100
AcDbDictionary
281
1
  3
Standard
350
2C
  0
DICTIONARY
  5
10
330
A
100
AcDbDictionary
281
1
  3
Standard
350
22
  0
DICTIONARY
  5
11
330
A
100
AcDbDictionary
281
1
  0
ACDBDICTIONARYWDFLT
  5
12
330
A
100
AcDbDictionary
281
1
  3
Normal
350
13
100
AcDbDictionaryWithDefault
340
13
  0
ACDBPLACEHOLDER
  5
13
330
12
  0
DICTIONARY
  5
14
330
A
100
AcDbDictionary
281
1
  0
DICTIONARY
  5
15
330
A
100
AcDbDictionary
281
1
  0
DICTIONARY
  5
16
330
A
100
AcDbDictionary
281
1
  0
LAYOUT
  5
1A
330
D
100
AcDbPlotSettings
  1

  4
A3
  6

 40
7.5
 41
20.0
 42
7.5
 43
20.0
 44
420.0
 45
297.0
 46
0.0
 47
0.0
 48
0.0
 49
0.0
140
0.0
141
0.0
142
1.0
143
1.0
 70
1024
 72
1
 73
0
 74
5
  7

 75
16
 76
0
 77
2
 78
300
147
1.0
148
0.0
149
0.0
100
AcDbLayout
  1
Model
 70
1
 71
0
 10
0.0
 20
0.0
 11
420.0
 21
297.0
 12
0.0
 22
0.0
 32
0.0
 14
1e+20
 24
1e+20
 34
1e+20
 15
-1e+20
 25
-1e+20
 35
-1e+20
146
0.0
 13
0.0
 23
0.0
 33
0.0
 16
1.0
 26
0.0
 36
0.0
 17
0.0
 27
1.0
 37
0.0
 76
1
330
17
  0
LAYOUT
  5
1E
330
D
100
AcDbPlotSettings
  1

  4
A3
  6

 40
7.5
 41
20.0
 42
7.5
 43
20.0
 44
420.0
 45
297.0
 46
0.0
 47
0.0
 48
0.0
 49
0.0
140
0.0
141
0.0
142
1.0
143
1.0
 70
0
 72
1
 73
0
 74
5
  7

 75
16
 76
0
 77
2
 78
300
147
1.0
148
0.0
149
0.0
100
AcDbLayout
  1
Layout1
 70
1
 71
1
 10
0.0
 20
0.0
 11
420.0
 21
297.0
 12
0.0
 22
0.0
 32
0.0
 14
1e+20
 24
1e+20
 34
1e+20
 15
-1e+20
 25
-1e+20
 35
-1e+20
146
0.0
 13
0.0
 23
0.0
 33
0.0
 16
1.0
 26
0.0
 36
0.0
 17
0.0
 27
1.0
 37
0.0
 76
1
330
1B
  0
MATERIAL
  5
1F
102
{ACAD_REACTORS
330
E
102
}
330
E
100
AcDbMaterial
  1
ByBlock
  2

 70
0
 40
1.0
 71
1
 41
1.0
 91
-1023410177
 42
1.0
 72
1
  3

 73
1
 74
1
 75
1
 44
0.5
 73
0
 45
1.0
 46
1.0
 77
1
  4

 78
1
 79
1
170
1
 48
1.0
171
1
  6

172
1
173
1
174
1
140
1.0
141
1.0
175
1
  7

176
1
177
1
178
1
143
1.0
179
1
  8

270
1
271
1
272
1
145
1.0
146
1.0
273
1
  9

274
1
275
1
276
1
 42
1.0
 72
1
  3

 73
1
 74
1
 75
1
 94
63
  0
MATERIAL
  5
20
102
{ACAD_REACTORS
330
E
102
}
330
E
100
AcDbMaterial
  1
ByLayer
  2

 70
0
 40
1.0
 71
1
 41
1.0
 91
-1023410177
 42
1.0
 72
1
  3

 73
1
 74
1
 75
1
 44
0.5
 73
0
 45
1.0
 46
1.0
 77
1
  4

 78
1
 79
1
170
1
 48
1.0
171
1
  6

172
1
173
1
174
1
140
1.0
141
1.0
175
1
  7

176
1
177
1
178
1
143
1.0
179
1
  8

270
1
271
1
272
1
145
1.0
146
1.0
273
1
  9

274
1
275
1
276
1
 42
1.0
 72
1
  3

 73
1
 74
1
 75
1
 94
63
  0
MATERIAL
  5
21
102
{ACAD_REACTORS
330
E
102
}
330
E
100
AcDbMaterial
  1
Global
  2

 70
0
 40
1.0
 71
1
 41
1.0
 91
-1023410177
 42
1.0
 72
1
  3

 73
1
 74
1
 75
1
 44
0.5
 73
0
 45
1.0
 46
1.0
 77
1
  4

 78
1
 79
1
170
1
 48
1.0
171
1
  6

172
1
173
1
174
1
140
1.0
141
1.0
175
1
  7

176
1
177
1
178
1
143
1.0
179
1
  8

270
1
271
1
272
1
145
1.0
146
1.0
273
1
  9

274
1
275
1
276
1
 42
1.0
 72
1
  3

 73
1
 74
1
 75
1
 94
63
  0
MLINESTYLE
  5
22
102
{ACAD_REACTORS
330
10
102
}
330
10
100
AcDbMlineStyle
  2
Standard
 70
0
  3

 62
256
 51
90.0
 52
90.0
 71
2
 49
0.5
 62
256
  6
BYLAYER
 49
-0.5
 62
256
  6
BYLAYER
  0
MLEADERSTYLE
  5
2C
102
{ACAD_REACTORS
330
F
102
}
330
F
100
AcDbMLeaderStyle
179
2
170
2
171
1
172
0
 90
2
 40
0.0
 41
0.0
173
1
 91
-1056964608
 92
-2
290
1
 42
2.0
291
1
 43
8.0
  3
Standard
 44
4.0
300

342
29
174
1
175
1
176
0
178
1
 93
-1056964608
 45
4.0
292
0
297
0
 46
4.0
 94
-1056964608
 47
1.0
 49
1.0
140
1.0
294
1
141
0.0
177
0
142
1.0
295
0
296
0
143
3.75
271
0
272
9
273
9
  0
DICTIONARY
  5
2D
330
A
100
AcDbDictionary
280
1
281
1
  3
CREATED_BY_EZDXF
350
2E
  3
WRITTEN_BY_EZDXF
350
183
  0
DICTIONARYVAR
  5
2E
330
2D
100
DictionaryVariables
280
0
  1
1.4.3 @ 2026-06-10T16:53:36.864633+00:00
  0
DICTIONARYVAR
  5
183
330
2D
100
DictionaryVariables
280
0
  1
1.4.3 @ 2026-06-10T16:53:36.877285+00:00
  0
ENDSEC
  0
EOF
