  0
SECTION
  2
HEADER
  9
$ACADVER
  1
AC1024
  9
$ACADMAINTVER
 70
6
  9
$DWGCODEPAGE
  3
ANSI_1252
  9
$LASTSAVEDBY
  1
ezdxf
  9
$INSBASE
 10
0.0
 20
0.0
 30
0.0
  9
$EXTMIN
 10
1e+20
 20
1e+20
 30
1e+20
  9
$EXTMAX
 10
-1e+20
 20
-1e+20
 30
-1e+20
  9
$LIMMIN
 10
0.0
 20
0.0
  9
$LIMMAX
 10
420.0
 20
297.0
  9
$ORTHOMODE
 70
0
  9
$REGENMODE
 70
1
  9
$FILLMODE
 70
1
  9
$QTEXTMODE
 70
0
  9
$MIRRTEXT
 70
1
  9
$LTSCALE
 40
1.0
  9
$ATTMODE
 70
1
  9
$TEXTSIZE
 40
2.5
  9
$TRACEWID
 40
1.0
  9
$TEXTSTYLE
  7
Standard
  9
$CLAYER
  8
0
  9
$CELTYPE
  6
ByLayer
  9
$CECOLOR
 62
256
  9
$CELTSCALE
 40
1.0
  9
$DISPSILH
 70
0
  9
$DIMSCALE
 40
1.0
  9
$DIMASZ
 40
2.5
  9
$DIMEXO
 40
0.625
  9
$DIMDLI
 40
3.75
  9
$DIMRND
 40
0.0
  9
$DIMDLE
 40
0.0
  9
$DIMEXE
 40
1.25
  9
$DIMTP
 40
0.0
  9
$DIMTM
 40
0.0
  9
$DIMTXT
 40
2.5
  9
$DIMCEN
 40
2.5
  9
$DIMTSZ
 40
0.0
  9
$DIMTOL
 70
0
  9
$DIMLIM
 70
0
  9
$DIMTIH
 70
0
  9
$DIMTOH
 70
0
  9
$DIMSE1
 70
0
  9
$DIMSE2
 70
0
  9
$DIMTAD
 70
1
  9
$DIMZIN
 70
8
  9
$DIMBLK
  1

  9
$DIMASO
 70
1
  9
$DIMSHO
 70
1
  9
$DIMPOST
  1

  9
$DIMAPOST
  1

  9
$DIMALT
 70
0
  9
$DIMALTD
 70
3
  9
$DIMALTF
 40
0.03937007874
  9
$DIMLFAC
 40
1.0
  9
$DIMTOFL
 70
1
  9
$DIMTVP
 40
0.0
  9
$DIMTIX
 70
0
  9
$DIMSOXD
 70
0
  9
$DIMSAH
 70
0
  9
$DIMBLK1
  1

  9
$DIMBLK2
  1

  9
$DIMSTYLE
  2
ISO-25
  9
$DIMCLRD
 70
0
  9
$DIMCLRE
 70
0
  9
$DIMCLRT
 70
0
  9
$DIMTFAC
 40
1.0
  9
$DIMGAP
 40
0.625
  9
$DIMJUST
 70
0
  9
$DIMSD1
 70
0
  9
$DIMSD2
 70
0
  9
$DIMTOLJ
 70
0
  9
$DIMTZIN
 70
8
  9
$DIMALTZ
 70
0
  9
$DIMALTTZ
 70
0
  9
$DIMUPT
 70
0
  9
$DIMDEC
 70
2
  9
$DIMTDEC
 70
2
  9
$DIMALTU
 70
2
  9
$DIMALTTD
 70
3
  9
$DIMTXSTY
  7
Standard
  9
$DIMAUNIT
 70
0
  9
$DIMADEC
 70
0
  9
$DIMALTRND
 40
0.0
  9
$DIMAZIN
 70
0
  9
$DIMDSEP
 70
44
  9
$DIMATFIT
 70
3
  9
$DIMFRAC
 70
0
  9
$DIMLDRBLK
  1

  9
$DIMLUNIT
 70
2
  9
$DIMLWD
 70
-2
  9
$DIMLWE
 70
-2
  9
$DIMTMOVE
 70
0
  9
$DIMFXL
 40
1.0
  9
$DIMFXLON
 70
0
  9
$DIMJOGANG
 40
0.785398163397
  9
$DIMTFILL
 70
0
  9
$DIMTFILLCLR
 70
0
  9
$DIMARCSYM
 70
0
  9
$DIMLTYPE
  6

  9
$DIMLTEX1
  6

  9
$DIMLTEX2
  6

  9
$DIMTXTDIRECTION
 70
0
  9
$LUNITS
 70
2
  9
$LUPREC
 70
4
  9
$SKETCHINC
 40
1.0
  9
$FILLETRAD
 40
10.0
  9
$AUNITS
 70
0
  9
$AUPREC
 70
2
  9
$MENU
  1
.
  9
$ELEVATION
 40
0.0
  9
$PELEVATION
 40
0.0
  9
$THICKNESS
 40
0.0
  9
$LIMCHECK
 70
0
  9
$CHAMFERA
 40
0.0
  9
$CHAMFERB
 40
0.0
  9
$CHAMFERC
 40
0.0
  9
$CHAMFERD
 40
0.0
  9
$SKPOLY
 70
0
  9
$TDCREATE
 40
2461202.0090625
  9
$TDUCREATE
 40
2458532.153996898
  9
$TDUPDATE
 40
2461202.0090625
  9
$TDUUPDATE
 40
2458532.1544311
  9
$TDINDWG
 40
0.0
  9
$TDUSRTIMER
 40
0.0
  9
$USRTIMER
 70
1
  9
$ANGBASE
 50
0.0
  9
$ANGDIR
 70
0
  9
$PDMODE
 70
0
  9
$PDSIZE
 40
0.0
  9
$PLINEWID
 40
0.0
  9
$SPLFRAME
 70
0
  9
$SPLINETYPE
 70
6
  9
$SPLINESEGS
 70
8
  9
$HANDSEED
  5
E5
  9
$SURFTAB1
 70
6
  9
$SURFTAB2
 70
6
  9
$SURFTYPE
 70
6
  9
$SURFU
 70
6
  9
$SURFV
 70
6
  9
$UCSBASE
  2

  9
$UCSNAME
  2

  9
$UCSORG
 10
0.0
 20
0.0
 30
0.0
  9
$UCSXDIR
 10
1.0
 20
0.0
 30
0.0
  9
$UCSYDIR
 10
0.0
 20
1.0
 30
0.0
  9
$UCSORTHOREF
  2

  9
$UCSORTHOVIEW
 70
0
  9
$UCSORGTOP
 10
0.0
 20
0.0
 30
0.0
  9
$UCSORGBOTTOM
 10
0.0
 20
0.0
 30
0.0
  9
$UCSORGLEFT
 10
0.0
 20
0.0
 30
0.0
  9
$UCSORGRIGHT
 10
0.0
 20
0.0
 30
0.0
  9
$UCSORGFRONT
 10
0.0
 20
0.0
 30
0.0
  9
$UCSORGBACK
 10
0.0
 20
0.0
 30
0.0
  9
$PUCSBASE
  2

  9
$PUCSNAME
  2

  9
$PUCSORG
 10
0.0
 20
0.0
 30
0.0
  9
$PUCSXDIR
 10
1.0
 20
0.0
 30
0.0
  9
$PUCSYDIR
 10
0.0
 20
1.0
 30
0.0
  9
$PUCSORTHOREF
  2

  9
$PUCSORTHOVIEW
 70
0
  9
$PUCSORGTOP
 10
0.0
 20
0.0
 30
0.0
  9
$PUCSORGBOTTOM
 10
0.0
 20
0.0
 30
0.0
  9
$PUCSORGLEFT
 10
0.0
 20
0.0
 30
0.0
  9
$PUCSORGRIGHT
 10
0.0
 20
0.0
 30
0.0
  9
$PUCSORGFRONT
 10
0.0
 20
0.0
 30
0.0
  9
$PUCSORGBACK
 10
0.0
 20
0.0
 30
0.0
  9
$USERI1
 70
0
  9
$USERI2
 70
0
  9
$USERI3
 70
0
  9
$USERI4
 70
0
  9
$USERI5
 70
0
  9
$USERR1
 40
0.0
  9
$USERR2
 40
0.0
  9
$USERR3
 40
0.0
  9
$USERR4
 40
0.0
  9
$USERR5
 40
0.0
  9
$WORLDVIEW
 70
1
  9
$SHADEDGE
 70
3
  9
$SHADEDIF
 70
70
  9
$TILEMODE
 70
1
  9
$MAXACTVP
 70
64
  9
$PINSBASE
 10
0.0
 20
0.0
 30
0.0
  9
$PLIMCHECK
 70
0
  9
$PEXTMIN
 10
1e+20
 20
1e+20
 30
1e+20
  9
$PEXTMAX
 10
-1e+20
 20
-1e+20
 30
-1e+20
  9
$PLIMMIN
 10
0.0
 20
0.0
  9
$PLIMMAX
 10
420.0
 20
297.0
  9
$UNITMODE
 70
0
  9
$VISRETAIN
 70
1
  9
$PLINEGEN
 70
0
  9
$PSLTSCALE
 70
1
  9
$TREEDEPTH
 70
3020
  9
$CMLSTYLE
  2
Standard
  9
$CMLJUST
 70
0
  9
$CMLSCALE
 40
20.0
  9
$PROXYGRAPHICS
 70
1
  9
$MEASUREMENT
 70
1
  9
$CELWEIGHT
370
-1
  9
$ENDCAPS
280
0
  9
$JOINSTYLE
280
0
  9
$LWDISPLAY
290
0
  9
$INSUNITS
 70
6
  9
$HYPERLINKBASE
  1

  9
$STYLESHEET
  1

  9
$XEDIT
290
1
  9
$CEPSNTYPE
380
0
  9
$PSTYLEMODE
290
1
  9
$FINGERPRINTGUID
  2
{14619DD9-DCE4-4189-A876-9F4D7A9DCA58}
  9
$VERSIONGUID
  2
{0F778600-EEDD-402B-A794-947AB376A82B}
  9
$EXTNAMES
290
1
  9
$PSVPSCALE
 40
0.0
  9
$OLESTARTUP
290
0
  9
$SORTENTS
280
127
  9
$INDEXCTL
280
0
  9
$HIDETEXT
280
1
  9
$XCLIPFRAME
280
1
  9
$HALOGAP
280
0
  9
$OBSCOLOR
 70
257
  9
$OBSLTYPE
280
0
  9
$INTERSECTIONDISPLAY
280
0
  9
$INTERSECTIONCOLOR
 70
257
  9
$DIMASSOC
280
2
  9
$PROJECTNAME
  1

  9
$CAMERADISPLAY
290
0
  9
$LENSLENGTH
 40
50.0
  9
$CAMERAHEIGHT
 40
0.0
  9
$STEPSPERSEC
 40
24.0
  9
$STEPSIZE
 40
100.0
  9
$3DDWFPREC
 40
2.0
  9
$PSOLWIDTH
 40
0.005
  9
$PSOLHEIGHT
 40
0.08
  9
$LOFTANG1
 40
1.570796326795
  9
$LOFTANG2
 40
1.570796326795
  9
$LOFTMAG1
 40
0.0
  9
$LOFTMAG2
 40
0.0
  9
$LOFTPARAM
 70
7
  9
$LOFTNORMALS
280
1
  9
$LATITUDE
 40
37.795
  9
$LONGITUDE
 40
-122.394
  9
$NORTHDIRECTION
 40
0.0
  9
$TIMEZONE
 70
-8000
  9
$LIGHTGLYPHDISPLAY
280
1
  9
$TILEMODELIGHTSYNCH
280
1
  9
$CMATERIAL
347
20
  9
$SOLIDHIST
280
0
  9
$SHOWHIST
280
1
  9
$DWFFRAME
280
2
  9
$DGNFRAME
280
2
  9
$REALWORLDSCALE
290
1
  9
$INTERFERECOLOR
 62
256
  9
$CSHADOW
280
0
  9
$SHADOWPLANELOCATION
 40
0.0
  0
ENDSEC
  0
SECTION
  2
CLASSES
  0
CLASS
  1
ACDBDICTIONARYWDFLT
  2
AcDbDictionaryWithDefault
  3
ObjectDBX Classes
 90
0
 91
0
280
0
281
0
  0
CLASS
  1
SUN
  2
AcDbSun
  3
SCENEOE
 90
1153
 91
0
280
0
281
0
  0
CLASS
  1
VISUALSTYLE
  2
AcDbVisualStyle
  3
ObjectDBX Classes
 90
4095
 91
0
280
0
281
0
  0
CLASS
  1
MATERIAL
  2
AcDbMaterial
  3
ObjectDBX Classes
 90
1153
 91
0
280
0
281
0
  0
CLASS
  1
SCALE
  2
AcDbScale
  3
ObjectDBX Classes
 90
1153
 91
0
280
0
281
0
  0
CLASS
  1
TABLESTYLE
  2
AcDbTableStyle
  3
ObjectDBX Classes
 90
4095
 91
0
280
0
281
0
  0
CLASS
  1
MLEADERSTYLE
  2
AcDbMLeaderStyle
  3
ACDB_MLEADERSTYLE_CLASS
 90
4095
 91
0
280
0
281
0
  0
CLASS
  1
DICTIONARYVAR
  2
AcDbDictionaryVar
  3
ObjectDBX Classes
 90
0
 91
0
280
0
281
0
  0
CLASS
  1
CELLSTYLEMAP
  2
AcDbCellStyleMap
  3
ObjectDBX Classes
 90
1152
 91
0
280
0
281
0
  0
CLASS
  1
MENTALRAYRENDERSETTINGS
  2
AcDbMentalRayRenderSettings
  3
SCENEOE
 90
1024
 91
0
280
0
281
0
  0
CLASS
  1
ACDBDETAILVIEWSTYLE
  2
AcDbDetailViewStyle
  3
ObjectDBX Classes
 90
1025
 91
0
280
0
281
0
  0
CLASS
  1
ACDBSECTIONVIEWSTYLE
  2
AcDbSectionViewStyle
  3
ObjectDBX Classes
 90
1025
 91
0
280
0
281
0
  0
CLASS
  1
RASTERVARIABLES
  2
AcDbRasterVariables
  3
ISM
 90
0
 91
0
280
0
281
0
  0
CLASS
  1
ACDBPLACEHOLDER
  2
AcDbPlaceHolder
  3
ObjectDBX Classes
 90
0
 91
0
280
0
281
0
  0
CLASS
  1
LAYOUT
  2
AcDbLayout
  3
ObjectDBX Classes
 90
0
 91
0
280
0
281
0
  0
ENDSEC
  0
SECTION
  2
TABLES
  0
TABLE
  2
VPORT
  5
8
330
0
100
AcDbSymbolTable
 70
1
  0
VPORT
  5
23
330
8
100
AcDbSymbolTableRecord
100
AcDbViewportTableRecord
  2
*Active
 70
0
 10
0.0
 20
0.0
 11
1.0
 21
1.0
 12
0.0
 22
0.0
 13
0.0
 23
0.0
 14
0.5
 24
0.5
 15
0.5
 25
0.5
 16
0.0
 26
0.0
 36
1.0
 17
0.0
 27
0.0
 37
0.0
 40
1000.0
 41
1.34
 42
50.0
 43
0.0
 44
0.0
 50
0.0
 51
0.0
 71
0
 72
1000
 73
1
 74
3
 75
0
 76
0
 77
0
 78
0
281
0
 65
0
146
0.0
  0
ENDTAB
  0
TABLE
  2
LTYPE
  5
2
330
0
100
AcDbSymbolTable
 70
3
  0
LTYPE
  5
24
330
2
100
AcDbSymbolTableRecord
100
AcDbLinetypeTableRecord
  2
ByBlock
 70
0
  3

 72
65
 73
0
 40
0.0
  0
LTYPE
  5
25
330
2
100
AcDbSymbolTableRecord
100
AcDbLinetypeTableRecord
  2
ByLayer
 70
0
  3

 72
65
 73
0
 40
0.0
  0
LTYPE
  5
26
330
2
100
AcDbSymbolTableRecord
100
AcDbLinetypeTableRecord
  2
Continuous
 70
0
  3

 72
65
 73
0
 40
0.0
  0
ENDTAB
  0
TABLE
  2
LAYER
  5
1
330
0
100
AcDbSymbolTable
 70
11
  0
LAYER
  5
27
330
1
100
AcDbSymbolTableRecord
100
AcDbLayerTableRecord
  2
0
 70
0
 62
7
  6
Continuous
370
-3
390
13
347
21
  0
LAYER
  5
28
330
1
100
AcDbSymbolTableRecord
100
AcDbLayerTableRecord
  2
Defpoints
 70
0
 62
7
  6
Continuous
290
0
370
-3
390
13
347
21
  0
LAYER
  5
2F
330
1
100
AcDbSymbolTableRecord
100
AcDbLayerTableRecord
  2
SARR_3.5x7
 70
0
 62
7
  6
Continuous
370
-3
390
13
347
21
  0
LAYER
  5
30
330
1
100
AcDbSymbolTableRecord
100
AcDbLayerTableRecord
  2
SARR_2.2x7
 70
0
 62
7
  6
Continuous
370
-3
390
13
347
21
  0
LAYER
  5
31
330
1
100
AcDbSymbolTableRecord
100
AcDbLayerTableRecord
  2
Texto Seção
 70
0
 62
7
  6
Continuous
370
-3
390
13
347
21
  0
LAYER
  5
32
330
1
100
AcDbSymbolTableRecord
100
AcDbLayerTableRecord
  2
Cotas
 70
0
 62
7
  6
Continuous
370
-3
390
13
347
21
  0
LAYER
  5
33
330
1
100
AcDbSymbolTableRecord
100
AcDbLayerTableRecord
  2
COTA
 70
0
 62
7
  6
Continuous
370
-3
390
13
347
21
  0
LAYER
  5
34
330
1
100
AcDbSymbolTableRecord
100
AcDbLayerTableRecord
  2
CONCRETO
 70
0
 62
7
  6
Continuous
370
-3
390
13
347
21
  0
LAYER
  5
35
330
1
100
AcDbSymbolTableRecord
100
AcDbLayerTableRecord
  2
SARR_EDITAR
 70
0
 62
7
  6
Continuous
370
-3
390
13
347
21
  0
LAYER
  5
36
330
1
100
AcDbSymbolTableRecord
100
AcDbLayerTableRecord
  2
Painéis
 70
0
 62
7
  6
Continuous
370
-3
390
13
347
21
  0
LAYER
  5
37
330
1
100
AcDbSymbolTableRecord
100
AcDbLayerTableRecord
  2
Madeira
 70
0
 62
7
  6
Continuous
370
-3
390
13
347
21
  0
ENDTAB
  0
TABLE
  2
STYLE
  5
5
330
0
100
AcDbSymbolTable
 70
1
  0
STYLE
  5
29
330
5
100
AcDbSymbolTableRecord
100
AcDbTextStyleTableRecord
  2
Standard
 70
0
 40
0.0
 41
1.0
 50
0.0
 71
0
 42
2.5
  3
txt
  4

  0
ENDTAB
  0
TABLE
  2
VIEW
  5
7
330
0
100
AcDbSymbolTable
 70
0
  0
ENDTAB
  0
TABLE
  2
UCS
  5
6
330
0
100
AcDbSymbolTable
 70
0
  0
ENDTAB
  0
TABLE
  2
APPID
  5
3
330
0
100
AcDbSymbolTable
 70
3
  0
APPID
  5
2A
330
3
100
AcDbSymbolTableRecord
100
AcDbRegAppTableRecord
  2
ACAD
 70
0
  0
APPID
  5
E2
330
3
100
AcDbSymbolTableRecord
100
AcDbRegAppTableRecord
  2
HATCHBACKGROUNDCOLOR
 70
0
  0
APPID
  5
E3
330
3
100
AcDbSymbolTableRecord
100
AcDbRegAppTableRecord
  2
EZDXF
 70
0
  0
ENDTAB
  0
TABLE
  2
DIMSTYLE
  5
4
330
0
100
AcDbSymbolTable
 70
1
100
AcDbDimStyleTable
  0
DIMSTYLE
105
2B
330
4
100
AcDbSymbolTableRecord
100
AcDbDimStyleTableRecord
  2
Standard
 70
0
 40
1.0
 41
2.5
 42
0.625
 43
3.75
 44
1.25
 45
0.0
 46
0.0
 47
0.0
 48
0.0
 49
2.5
140
2.5
141
2.5
142
0.0
143
0.03937007874
144
1.0
145
0.0
146
1.0
147
0.625
148
0.0
 69
0
 70
0
 71
0
 72
0
 73
0
 74
0
 75
0
 76
0
 77
1
 78
8
 79
3
170
0
171
3
172
1
173
0
174
0
175
0
176
0
177
0
178
0
179
2
271
2
272
2
273
2
274
3
275
0
276
0
277
2
278
44
279
0
280
0
281
0
282
0
283
0
284
8
285
0
286
0
288
0
289
3
290
0
371
-2
372
-2
  0
ENDTAB
  0
TABLE
  2
BLOCK_RECORD
  5
9
330
0
100
AcDbSymbolTable
 70
2
  0
BLOCK_RECORD
  5
17
330
9
100
AcDbSymbolTableRecord
100
AcDbBlockTableRecord
  2
*Model_Space
340
1A
 70
0
280
1
281
0
  0
BLOCK_RECORD
  5
1B
330
9
100
AcDbSymbolTableRecord
100
AcDbBlockTableRecord
  2
*Paper_Space
340
1E
 70
0
280
1
281
0
  0
ENDTAB
  0
ENDSEC
  0
SECTION
  2
BLOCKS
  0
BLOCK
  5
18
330
17
100
AcDbEntity
  8
0
100
AcDbBlockBegin
  2
*Model_Space
 70
0
 10
0.0
 20
0.0
 30
0.0
  3
*Model_Space
  1

  0
ENDBLK
  5
19
330
17
100
AcDbEntity
  8
0
100
AcDbBlockEnd
  0
BLOCK
  5
1C
330
1B
100
AcDbEntity
  8
0
100
AcDbBlockBegin
  2
*Paper_Space
 70
0
 10
0.0
 20
0.0
 30
0.0
  3
*Paper_Space
  1

  0
ENDBLK
  5
1D
330
1B
100
AcDbEntity
  8
0
100
AcDbBlockEnd
  0
ENDSEC
  0
SECTION
  2
ENTITIES
  0
LINE
  5
38
330
17
100
AcDbEntity
  8
SARR_2.2x7
 62
7
370
25
100
AcDbLine
 10
4374.099750333484
 20
3275.511403458987
 30
0.0
 11
4374.099750333484
 21
3334.511970504304
 31
0.0
  0
LINE
  5
39
330
17
100
AcDbEntity
  8
SARR_2.2x7
 62
7
370
25
100
AcDbLine
 10
3635.094781058133
 20
2951.925989373633
 30
0.0
 11
3792.09478105813
 21
2951.925989373956
 31
0.0
  0
LINE
  5
3A
330
17
100
AcDbEntity
  8
SARR_2.2x7
 62
7
370
25
100
AcDbLine
 10
3635.094781058133
 20
2951.925989373853
 30
0.0
 11
3635.094781058125
 21
2989.925989373831
 31
0.0
  0
LINE
  5
3B
330
17
100
AcDbEntity
  8
SARR_2.2x7
 62
7
370
25
100
AcDbLine
 10
3496.355542820007
 20
3515.828467956124
 30
0.0
 11
3749.355542820004
 21
3515.828467955913
 31
0.0
  0
LINE
  5
3C
330
17
100
AcDbEntity
  8
SARR_2.2x7
 62
7
370
25
100
AcDbLine
 10
3749.355542820004
 20
3515.828467955913
 30
0.0
 11
4116.055542820002
 21
3515.828467955809
 31
0.0
  0
LINE
  5
3D
330
17
100
AcDbEntity
  8
SARR_2.2x7
 62
7
370
25
100
AcDbLine
 10
4116.055542820002
 20
3515.828467955806
 30
0.0
 11
4386.100683579193
 21
3515.82846795575
 31
0.0
  0
LINE
  5
3E
330
17
100
AcDbEntity
  8
Painéis
 62
7
370
25
100
AcDbLine
 10
3496.355542820003
 20
3522.828467955903
 30
0.0
 11
4393.055542820002
 21
3522.828467955929
 31
0.0
  0
LINE
  5
3F
330
17
100
AcDbEntity
  8
Painéis
 62
7
370
25
100
AcDbLine
 10
3993.355542820004
 20
3463.828467955903
 30
0.0
 11
4393.055542820002
 21
3463.828467955929
 31
0.0
  0
LINE
  5
40
330
17
100
AcDbEntity
  8
Painéis
 62
7
370
25
100
AcDbLine
 10
4393.055542820002
 20
3463.828467955929
 30
0.0
 11
4393.055542820002
 21
3522.828467955929
 31
0.0
  0
LINE
  5
41
330
17
100
AcDbEntity
  8
Painéis
 62
7
370
25
100
AcDbLine
 10
3496.355542820007
 20
3463.828467955903
 30
0.0
 11
3496.355542820007
 21
3522.828467955903
 31
0.0
  0
LINE
  5
42
330
17
100
AcDbEntity
  8
SARR_2.2x7
 62
7
370
25
100
AcDbLine
 10
4386.100683579189
 20
3463.828467955925
 30
0.0
 11
4386.100683579193
 21
3522.828467955903
 31
0.0
  0
LINE
  5
43
330
17
100
AcDbEntity
  8
Painéis
 62
7
370
25
100
AcDbLine
 10
3627.355542820005
 20
3463.828467955903
 30
0.0
 11
3627.355542820004
 21
3522.828467955918
 31
0.0
  0
LINE
  5
44
330
17
100
AcDbEntity
  8
SARR_2.2x7
 62
7
370
25
100
AcDbLine
 10
3657.355542820007
 20
3470.829035001023
 30
0.0
 11
3749.355542820004
 21
3470.829035001131
 31
0.0
  0
LINE
  5
45
330
17
100
AcDbEntity
  8
SARR_2.2x7
 62
7
370
25
100
AcDbLine
 10
3749.355542820004
 20
3470.829035001133
 30
0.0
 11
3907.355542820004
 21
3470.829035001145
 31
0.0
  0
LINE
  5
46
330
17
100
AcDbEntity
  8
SARR_2.2x7
 62
7
370
25
100
AcDbLine
 10
3993.355542820004
 20
3470.828467955943
 30
0.0
 11
4116.055542820002
 21
3470.828467955985
 31
0.0
  0
LINE
  5
47
330
17
100
AcDbEntity
  8
SARR_2.2x7
 62
7
370
25
100
AcDbLine
 10
4116.055542820002
 20
3470.828467955985
 30
0.0
 11
4287.055542820001
 21
3470.828467956041
 31
0.0
  0
LINE
  5
48
330
17
100
AcDbEntity
  8
Painéis
 62
7
370
25
100
AcDbLine
 10
4116.055542820002
 20
3463.828467955918
 30
0.0
 11
4116.055542820002
 21
3522.828467955918
 31
0.0
  0
LINE
  5
49
330
17
100
AcDbEntity
  8
Painéis
 62
7
370
25
100
AcDbLine
 10
4116.055542820002
 20
3463.828467955918
 30
0.0
 11
4116.055542820002
 21
3522.828467955918
 31
0.0
  0
LINE
  5
4A
330
17
100
AcDbEntity
  8
SARR_2.2x7
 62
7
370
25
100
AcDbLine
 10
3657.355542820007
 20
3489.8284679561
 30
0.0
 11
3749.355542820004
 21
3489.828467955966
 31
0.0
  0
LINE
  5
4B
330
17
100
AcDbEntity
  8
SARR_2.2x7
 62
7
370
25
100
AcDbLine
 10
3749.355542820004
 20
3489.828467955967
 30
0.0
 11
3907.355542820004
 21
3489.828467955953
 31
0.0
  0
LINE
  5
4C
330
17
100
AcDbEntity
  8
SARR_2.2x7
 62
7
370
25
100
AcDbLine
 10
3993.355542820004
 20
3489.828467955914
 30
0.0
 11
4116.055542820002
 21
3489.828467955863
 31
0.0
  0
LINE
  5
4D
330
17
100
AcDbEntity
  8
SARR_2.2x7
 62
7
370
25
100
AcDbLine
 10
3657.355542820007
 20
3496.828467955737
 30
0.0
 11
3749.355542820004
 21
3496.828467955868
 31
0.0
  0
LINE
  5
4E
330
17
100
AcDbEntity
  8
SARR_2.2x7
 62
7
370
25
100
AcDbLine
 10
3749.355542820004
 20
3496.828467955867
 30
0.0
 11
3907.355542820004
 21
3496.828467955882
 31
0.0
  0
LINE
  5
4F
330
17
100
AcDbEntity
  8
SARR_2.2x7
 62
7
370
25
100
AcDbLine
 10
3993.355542820004
 20
3496.828467955921
 30
0.0
 11
4116.055542820002
 21
3496.828467955972
 31
0.0
  0
LINE
  5
50
330
17
100
AcDbEntity
  8
SARR_2.2x7
 62
7
370
25
100
AcDbLine
 10
4116.055542820002
 20
3489.828467955863
 30
0.0
 11
4287.055542820001
 21
3489.828467955828
 31
0.0
  0
LINE
  5
51
330
17
100
AcDbEntity
  8
SARR_2.2x7
 62
7
370
25
100
AcDbLine
 10
4116.055542820002
 20
3496.82846795556
 30
0.0
 11
4287.055542820001
 21
3496.828467955525
 31
0.0
  0
LINE
  5
52
330
17
100
AcDbEntity
  8
Painéis
 62
7
370
25
100
AcDbLine
 10
4149.055542820002
 20
3463.828467955918
 30
0.0
 11
4149.055542820002
 21
3522.828467955918
 31
0.0
  0
LINE
  5
53
330
17
100
AcDbEntity
  8
SARR_2.2x7
 62
7
370
25
100
AcDbLine
 10
3876.099750333489
 20
3311.511970504394
 30
0.0
 11
3684.099750333486
 21
3311.51197050441
 31
0.0
  0
LINE
  5
54
330
17
100
AcDbEntity
  8
SARR_2.2x7
 62
7
370
25
100
AcDbLine
 10
3684.099750333486
 20
3311.51197050441
 30
0.0
 11
3488.599750333489
 21
3311.511970504129
 31
0.0
  0
LINE
  5
55
330
17
100
AcDbEntity
  8
Painéis
 62
7
370
25
100
AcDbLine
 10
3876.099750333489
 20
3318.511970504301
 30
0.0
 11
3488.599750333489
 21
3318.511970504324
 31
0.0
  0
LINE
  5
56
330
17
100
AcDbEntity
  8
Painéis
 62
7
370
25
100
AcDbLine
 10
3928.099750333487
 20
3275.511970504304
 30
0.0
 11
3488.599750333486
 21
3275.511970504324
 31
0.0
  0
LINE
  5
57
330
17
100
AcDbEntity
  8
Painéis
 62
7
370
25
100
AcDbLine
 10
3488.599750333486
 20
3275.511970504324
 30
0.0
 11
3488.599750333489
 21
3318.511970504324
 31
0.0
  0
LINE
  5
58
330
17
100
AcDbEntity
  8
SARR_2.2x7
 62
7
370
25
100
AcDbLine
 10
3586.099750333489
 20
3275.511970504324
 30
0.0
 11
3586.099750333486
 21
3282.511970504265
 31
0.0
  0
LINE
  5
59
330
17
100
AcDbEntity
  8
SARR_2.2x7
 62
7
370
25
100
AcDbLine
 10
3586.099750333486
 20
3293.5119705043
 30
0.0
 11
3586.099750333486
 21
3300.511970503996
 31
0.0
  0
LINE
  5
5A
330
17
100
AcDbEntity
  8
Painéis
 62
7
370
25
100
AcDbLine
 10
3684.099750333486
 20
3275.511970504314
 30
0.0
 11
3684.09975033349
 21
3318.511970504314
 31
0.0
  0
LINE
  5
5B
330
17
100
AcDbEntity
  8
COTA
 62
7
370
25
100
AcDbLine
 10
3488.599750333489
 20
3334.511970504299
 30
0.0
 11
3488.599750333489
 21
3318.511970504324
 31
0.0
  0
LINE
  5
5C
330
17
100
AcDbEntity
  8
SARR_2.2x7
 62
7
370
25
100
AcDbLine
 10
3876.099750333489
 20
3282.511970504224
 30
0.0
 11
3684.099750333486
 21
3282.51197050421
 31
0.0
  0
LINE
  5
5D
330
17
100
AcDbEntity
  8
SARR_2.2x7
 62
7
370
25
100
AcDbLine
 10
3684.099750333486
 20
3282.51197050421
 30
0.0
 11
3586.099750333486
 21
3282.511970504265
 31
0.0
  0
LINE
  5
5E
330
17
100
AcDbEntity
  8
COTA
 62
7
370
25
100
AcDbLine
 10
3662.099750333489
 20
3334.511970504299
 30
0.0
 11
3488.599750333489
 21
3334.511970504299
 31
0.0
  0
LINE
  5
5F
330
17
100
AcDbEntity
  8
SARR_EDITAR
 62
7
370
25
100
AcDbLine
 10
3662.099750333489
 20
3333.011970504299
 30
0.0
 11
3874.09975033349
 21
3333.011970504301
 31
0.0
  0
LINE
  5
60
330
17
100
AcDbEntity
  8
COTA
 62
7
370
25
100
AcDbLine
 10
3874.09975033349
 20
3334.511970504301
 30
0.0
 11
4285.099750333376
 21
3334.511970505053
 31
0.0
  0
LINE
  5
61
330
17
100
AcDbEntity
  8
COTA
 62
7
370
25
100
AcDbLine
 10
3799.094781058111
 20
3002.92598937374
 30
0.0
 11
3799.094781058118
 21
2989.925989373788
 31
0.0
  0
LINE
  5
62
330
17
100
AcDbEntity
  8
SARR_2.2x7
 62
7
370
25
100
AcDbLine
 10
3635.094781058125
 20
2982.925989374048
 30
0.0
 11
3792.094781058133
 21
2982.925989373726
 31
0.0
  0
LINE
  5
63
330
17
100
AcDbEntity
  8
Painéis
 62
7
370
25
100
AcDbLine
 10
3628.094781058122
 20
2989.925989373831
 30
0.0
 11
3799.094781058125
 21
2989.925989373853
 31
0.0
  0
LINE
  5
64
330
17
100
AcDbEntity
  8
Painéis
 62
7
370
25
100
AcDbLine
 10
3628.094781058126
 20
2951.925989373831
 30
0.0
 11
3780.094781058133
 21
2951.92598937385
 31
0.0
  0
LINE
  5
65
330
17
100
AcDbEntity
  8
Painéis
 62
7
370
25
100
AcDbLine
 10
3628.094781058126
 20
2951.925989373831
 30
0.0
 11
3628.094781058126
 21
2989.925989373831
 31
0.0
  0
LINE
  5
66
330
17
100
AcDbEntity
  8
SARR_2.2x7
 62
7
370
25
100
AcDbLine
 10
3792.094781058125
 20
2951.925989373958
 30
0.0
 11
3792.094781058133
 21
2989.925989373831
 31
0.0
  0
LINE
  5
67
330
17
100
AcDbEntity
  8
SARR_2.2x7
 62
7
370
25
100
AcDbLine
 10
3635.094781058133
 20
2958.925989373632
 30
0.0
 11
3792.09478105813
 21
2958.925989373956
 31
0.0
  0
LINE
  5
68
330
17
100
AcDbEntity
  8
Painéis
 62
7
370
25
100
AcDbLine
 10
3799.094781058133
 20
2946.925989373853
 30
0.0
 11
3799.094781058125
 21
2989.925989373855
 31
0.0
  0
LINE
  5
69
330
17
100
AcDbEntity
  8
COTA
 62
7
370
25
100
AcDbLine
 10
3628.094781058144
 20
3005.925989373762
 30
0.0
 11
3628.094781058144
 21
2989.925989373788
 31
0.0
  0
LINE
  5
6A
330
17
100
AcDbEntity
  8
COTA
 62
7
370
25
100
AcDbLine
 10
3686.094781058111
 20
3005.925989373762
 30
0.0
 11
3628.094781058144
 21
3005.925989373762
 31
0.0
  0
LINE
  5
6B
330
17
100
AcDbEntity
  8
SARR_EDITAR
 62
7
370
25
100
AcDbLine
 10
3799.094781058111
 20
3004.42598937374
 30
0.0
 11
3686.094781058111
 21
3004.42598937374
 31
0.0
  0
LINE
  5
6C
330
17
100
AcDbEntity
  8
SARR_2.2x7
 62
7
370
25
100
AcDbLine
 10
3939.86732973303
 20
2954.270049323703
 30
0.0
 11
3939.867329733023
 21
2994.270049323681
 31
0.0
  0
LINE
  5
6D
330
17
100
AcDbEntity
  8
COTA
 62
7
370
25
100
AcDbLine
 10
4084.867329733004
 20
3008.270049323612
 30
0.0
 11
4084.867329733015
 21
2994.270049323637
 31
0.0
  0
LINE
  5
6E
330
17
100
AcDbEntity
  8
SARR_2.2x7
 62
7
370
25
100
AcDbLine
 10
3939.867329733023
 20
2987.270049323898
 30
0.0
 11
4077.86732973303
 21
2987.270049323575
 31
0.0
  0
LINE
  5
6F
330
17
100
AcDbEntity
  8
Painéis
 62
7
370
25
100
AcDbLine
 10
3932.867329733019
 20
2994.270049323681
 30
0.0
 11
4084.867329733022
 21
2994.270049323703
 31
0.0
  0
LINE
  5
70
330
17
100
AcDbEntity
  8
Painéis
 62
7
370
25
100
AcDbLine
 10
3932.867329733023
 20
2954.270049323681
 30
0.0
 11
4084.867329733025
 21
2954.270049323703
 31
0.0
  0
LINE
  5
71
330
17
100
AcDbEntity
  8
Painéis
 62
7
370
25
100
AcDbLine
 10
3932.867329733023
 20
2954.270049323681
 30
0.0
 11
3932.867329733023
 21
2994.270049323681
 31
0.0
  0
LINE
  5
72
330
17
100
AcDbEntity
  8
SARR_2.2x7
 62
7
370
25
100
AcDbLine
 10
4077.867329733027
 20
2954.270049323703
 30
0.0
 11
4077.86732973303
 21
2994.270049323681
 31
0.0
  0
LINE
  5
73
330
17
100
AcDbEntity
  8
SARR_2.2x7
 62
7
370
25
100
AcDbLine
 10
3939.86732973303
 20
2961.270049323483
 30
0.0
 11
4077.867329733027
 21
2961.270049323806
 31
0.0
  0
LINE
  5
74
330
17
100
AcDbEntity
  8
Painéis
 62
7
370
25
100
AcDbLine
 10
4084.867329733025
 20
2954.270049323703
 30
0.0
 11
4084.867329733022
 21
2994.270049323704
 31
0.0
  0
LINE
  5
75
330
17
100
AcDbEntity
  8
COTA
 62
7
370
25
100
AcDbLine
 10
3932.867329733041
 20
3008.270049323612
 30
0.0
 11
3932.867329733041
 21
2994.270049323637
 31
0.0
  0
LINE
  5
76
330
17
100
AcDbEntity
  8
COTA
 62
7
370
25
100
AcDbLine
 10
4084.867329733004
 20
3008.270049323612
 30
0.0
 11
3932.867329733041
 21
3008.270049323612
 31
0.0
  0
LINE
  5
77
330
17
100
AcDbEntity
  8
COTA
 62
7
370
25
100
AcDbLine
 10
3180.29801492128
 20
3117.628790319333
 30
0.0
 11
4550.29801492128
 21
3117.628790319333
 31
0.0
  0
LINE
  5
78
330
17
100
AcDbEntity
  8
SARR_2.2x7
 62
7
370
25
100
AcDbLine
 10
3503.355542820006
 20
3463.828467955903
 30
0.0
 11
3503.355542820008
 21
3522.828467955902
 31
0.0
  0
LINE
  5
79
330
17
100
AcDbEntity
  8
Painéis
 62
7
370
25
100
AcDbLine
 10
3749.355542820005
 20
3463.828467955903
 30
0.0
 11
3749.355542820004
 21
3522.828467955918
 31
0.0
  0
LINE
  5
7A
330
17
100
AcDbEntity
  8
SARR_2.2x7
 62
7
370
25
100
AcDbLine
 10
3657.355542820007
 20
3463.828467955818
 30
0.0
 11
3657.355542820007
 21
3470.829035001059
 31
0.0
  0
LINE
  5
7B
330
17
100
AcDbEntity
  8
SARR_2.2x7
 62
7
370
25
100
AcDbLine
 10
3657.355542820007
 20
3489.828467956057
 30
0.0
 11
3657.355542820007
 21
3496.828467955755
 31
0.0
  0
LINE
  5
7C
330
17
100
AcDbEntity
  8
SARR_2.2x7
 62
7
370
25
100
AcDbLine
 10
3907.355542820004
 20
3463.82903500115
 30
0.0
 11
3907.355542820004
 21
3470.829035001145
 31
0.0
  0
LINE
  5
7D
330
17
100
AcDbEntity
  8
SARR_2.2x7
 62
7
370
25
100
AcDbLine
 10
3907.355542820004
 20
3489.828467955952
 30
0.0
 11
3907.355542820004
 21
3496.828467955882
 31
0.0
  0
LINE
  5
7E
330
17
100
AcDbEntity
  8
SARR_2.2x7
 62
7
370
25
100
AcDbLine
 10
3993.355542820004
 20
3463.828467955917
 30
0.0
 11
3993.355542820004
 21
3470.828467955943
 31
0.0
  0
LINE
  5
7F
330
17
100
AcDbEntity
  8
SARR_2.2x7
 62
7
370
25
100
AcDbLine
 10
3993.355542820004
 20
3489.828467955915
 30
0.0
 11
3993.355542820004
 21
3496.828467955921
 31
0.0
  0
LINE
  5
80
330
17
100
AcDbEntity
  8
SARR_2.2x7
 62
7
370
25
100
AcDbLine
 10
4287.055542820001
 20
3463.828467955926
 30
0.0
 11
4287.055542820001
 21
3470.828467956042
 31
0.0
  0
LINE
  5
81
330
17
100
AcDbEntity
  8
SARR_2.2x7
 62
7
370
25
100
AcDbLine
 10
4287.055542820001
 20
3489.828467955828
 30
0.0
 11
4287.055542820001
 21
3496.828467955526
 31
0.0
  0
LINE
  5
82
330
17
100
AcDbEntity
  8
SARR_2.2x7
 62
7
370
25
100
AcDbLine
 10
3586.099750333486
 20
3293.5119705043
 30
0.0
 11
3684.099750333486
 21
3293.511970504288
 31
0.0
  0
LINE
  5
83
330
17
100
AcDbEntity
  8
SARR_2.2x7
 62
7
370
25
100
AcDbLine
 10
3586.099750333486
 20
3300.511970503996
 30
0.0
 11
3684.099750333486
 21
3300.511970503985
 31
0.0
  0
LINE
  5
84
330
17
100
AcDbEntity
  8
SARR_2.2x7
 62
7
370
25
100
AcDbLine
 10
3684.099750333486
 20
3293.511970504343
 30
0.0
 11
3876.099750333489
 21
3293.511970504193
 31
0.0
  0
LINE
  5
85
330
17
100
AcDbEntity
  8
SARR_2.2x7
 62
7
370
25
100
AcDbLine
 10
3684.099750333486
 20
3300.511970504041
 30
0.0
 11
3876.099750333489
 21
3300.511970503889
 31
0.0
  0
LINE
  5
86
330
17
100
AcDbEntity
  8
SARR_2.2x7
 62
7
370
25
100
AcDbLine
 10
3939.867329733026
 20
2970.770049323721
 30
0.0
 11
4077.86732973303
 21
2970.770049323613
 31
0.0
  0
LINE
  5
87
330
17
100
AcDbEntity
  8
SARR_2.2x7
 62
7
370
25
100
AcDbLine
 10
3939.867329733026
 20
2977.770049323419
 30
0.0
 11
4077.86732973303
 21
2977.77004932331
 31
0.0
  0
LINE
  5
88
330
17
100
AcDbEntity
  8
Painéis
 62
7
370
25
100
AcDbLine
 10
3799.094781058133
 20
2946.925989373853
 30
0.0
 11
3780.094781058133
 21
2946.925989373853
 31
0.0
  0
LINE
  5
89
330
17
100
AcDbEntity
  8
Painéis
 62
7
370
25
100
AcDbLine
 10
3780.094781058133
 20
2946.925989373853
 30
0.0
 11
3780.094781058133
 21
2951.925989373851
 31
0.0
  0
LINE
  5
8A
330
17
100
AcDbEntity
  8
SARR_EDITAR
 62
7
370
25
100
AcDbLine
 10
3780.094781058133
 20
2949.425989373852
 30
0.0
 11
3799.094781058133
 21
2949.425989373852
 31
0.0
  0
LINE
  5
8B
330
17
100
AcDbEntity
  8
SARR_2.2x7
 62
7
370
25
100
AcDbLine
 10
3792.094781058125
 20
2951.925989373958
 30
0.0
 11
3799.09478105813
 21
2951.925989373971
 31
0.0
  0
LINE
  5
8C
330
17
100
AcDbEntity
  8
SARR_2.2x7
 62
7
370
25
100
AcDbLine
 10
3876.099750333486
 20
3275.511970504295
 30
0.0
 11
3876.099750333486
 21
3282.511970504226
 31
0.0
  0
LINE
  5
8D
330
17
100
AcDbEntity
  8
SARR_2.2x7
 62
7
370
25
100
AcDbLine
 10
3876.099750333489
 20
3293.511970504193
 30
0.0
 11
3876.099750333489
 21
3300.511970503888
 31
0.0
  0
LINE
  5
8E
330
17
100
AcDbEntity
  8
Painéis
 62
7
370
25
100
AcDbLine
 10
4023.867329733022
 20
2954.270049323787
 30
0.0
 11
4023.867329733015
 21
2994.270049323694
 31
0.0
  0
LINE
  5
8F
330
17
100
AcDbEntity
  8
Painéis
 62
7
370
25
100
AcDbLine
 10
3993.355542820004
 20
3441.285480024742
 30
0.0
 11
3993.355542820004
 21
3522.82846795597
 31
0.0
  0
LINE
  5
90
330
17
100
AcDbEntity
  8
SARR_2.2x7
 62
7
370
25
100
AcDbLine
 10
3749.355542820004
 20
3463.828467955892
 30
0.0
 11
3907.355542820004
 21
3463.828467955903
 31
0.0
  0
LINE
  5
91
330
17
100
AcDbEntity
  8
Painéis
 62
7
370
25
100
AcDbLine
 10
3955.099750333484
 20
3275.511970504304
 30
0.0
 11
3955.099750333484
 21
3319.511970504301
 31
0.0
  0
LINE
  5
92
330
17
100
AcDbEntity
  8
Painéis
 62
7
370
25
100
AcDbLine
 10
3955.099750333484
 20
3275.511970504304
 30
0.0
 11
4258.099750333484
 21
3275.511970504304
 31
0.0
  0
LINE
  5
93
330
17
100
AcDbEntity
  8
Painéis
 62
7
370
25
100
AcDbLine
 10
3928.099750333484
 20
3275.511970504304
 30
0.0
 11
3928.09975033349
 21
3318.511970504301
 31
0.0
  0
LINE
  5
94
330
17
100
AcDbEntity
  8
Painéis
 62
7
370
25
100
AcDbLine
 10
3928.09975033349
 20
3318.511970504301
 30
0.0
 11
3876.099750333489
 21
3318.511970504301
 31
0.0
  0
LINE
  5
95
330
17
100
AcDbEntity
  8
SARR_2.2x7
 62
7
370
25
100
AcDbLine
 10
3961.099750333484
 20
3282.51197050428
 30
0.0
 11
4199.099750333483
 21
3282.511970504282
 31
0.0
  0
LINE
  5
96
330
17
100
AcDbEntity
  8
SARR_2.2x7
 62
7
370
25
100
AcDbLine
 10
3876.099750333489
 20
3311.511970504394
 30
0.0
 11
3928.099750333489
 21
3311.511970504386
 31
0.0
  0
LINE
  5
97
330
17
100
AcDbEntity
  8
SARR_2.2x7
 62
7
370
25
100
AcDbLine
 10
3961.099750333484
 20
3300.511970503882
 30
0.0
 11
4199.099750333486
 21
3300.511970503856
 31
0.0
  0
LINE
  5
98
330
17
100
AcDbEntity
  8
SARR_2.2x7
 62
7
370
25
100
AcDbLine
 10
3961.099750333484
 20
3293.511970504189
 30
0.0
 11
4199.099750333486
 21
3293.511970504161
 31
0.0
  0
LINE
  5
99
330
17
100
AcDbEntity
  8
Painéis
 62
7
370
25
100
AcDbLine
 10
4199.099750333483
 20
3275.511970504292
 30
0.0
 11
4199.099750333483
 21
3319.511970504303
 31
0.0
  0
LINE
  5
9A
330
17
100
AcDbEntity
  8
COTA
 62
7
370
25
100
AcDbLine
 10
4285.099750333484
 20
3275.511970504304
 30
0.0
 11
4258.099750333484
 21
3275.511970504304
 31
0.0
  0
LINE
  5
9B
330
17
100
AcDbEntity
  8
Painéis
 62
7
370
25
100
AcDbLine
 10
4258.099750333484
 20
3275.511970504304
 30
0.0
 11
4258.099750333489
 21
3319.511970504301
 31
0.0
  0
LINE
  5
9C
330
17
100
AcDbEntity
  8
Painéis
 62
7
370
25
100
AcDbLine
 10
3955.099750333484
 20
3319.511970504301
 30
0.0
 11
4258.099750333489
 21
3319.5119705043
 31
0.0
  0
LINE
  5
9D
330
17
100
AcDbEntity
  8
SARR_EDITAR
 62
7
370
25
100
AcDbLine
 10
3951.099750333484
 20
3333.011970504299
 30
0.0
 11
4076.099750333484
 21
3333.011970504301
 31
0.0
  0
LINE
  5
9E
330
17
100
AcDbEntity
  8
SARR_2.2x7
 62
7
370
25
100
AcDbLine
 10
3961.099750333484
 20
3275.511970504304
 30
0.0
 11
3961.099750333484
 21
3319.511970504301
 31
0.0
  0
LINE
  5
9F
330
17
100
AcDbEntity
  8
SARR_2.2x7
 62
7
370
25
100
AcDbLine
 10
3961.099750333484
 20
3312.511970504607
 30
0.0
 11
4199.099750333486
 21
3312.511970504579
 31
0.0
  0
LINE
  5
A0
330
17
100
AcDbEntity
  8
SARR_2.2x7
 62
7
370
25
100
AcDbLine
 10
4199.099750333483
 20
3282.511970504282
 30
0.0
 11
4212.099750333482
 21
3282.511970504281
 31
0.0
  0
LINE
  5
A1
330
17
100
AcDbEntity
  8
SARR_2.2x7
 62
7
370
25
100
AcDbLine
 10
4199.099750333486
 20
3293.511970504161
 30
0.0
 11
4212.099750333487
 21
3293.511970504159
 31
0.0
  0
LINE
  5
A2
330
17
100
AcDbEntity
  8
SARR_2.2x7
 62
7
370
25
100
AcDbLine
 10
4199.099750333486
 20
3300.511970503856
 30
0.0
 11
4212.099750333487
 21
3300.511970503853
 31
0.0
  0
LINE
  5
A3
330
17
100
AcDbEntity
  8
SARR_2.2x7
 62
7
370
25
100
AcDbLine
 10
4199.099750333483
 20
3312.511970504579
 30
0.0
 11
4258.099750333489
 21
3312.511970504576
 31
0.0
  0
LINE
  5
A4
330
17
100
AcDbEntity
  8
Painéis
 62
7
370
25
100
AcDbLine
 10
3496.355542820007
 20
3463.828467955903
 30
0.0
 11
3993.355542820004
 21
3463.828467955903
 31
0.0
  0
LINE
  5
A5
330
17
100
AcDbEntity
  8
Painéis
 62
7
370
25
100
AcDbLine
 10
4285.099750333484
 20
3275.511970504304
 30
0.0
 11
4285.099750333376
 21
3334.511970505053
 31
0.0
  0
LINE
  5
A6
330
17
100
AcDbEntity
  8
Painéis
 62
7
370
25
100
AcDbLine
 10
4381.099750333484
 20
3275.511970504304
 30
0.0
 11
4381.099750333376
 21
3334.511970505053
 31
0.0
  0
LINE
  5
A7
330
17
100
AcDbEntity
  8
Painéis
 62
7
370
25
100
AcDbLine
 10
4285.099750333484
 20
3275.511970504304
 30
0.0
 11
4381.099750333484
 21
3275.511970504304
 31
0.0
  0
LINE
  5
A8
330
17
100
AcDbEntity
  8
Painéis
 62
7
370
25
100
AcDbLine
 10
4381.099750333376
 20
3334.511970505053
 30
0.0
 11
4285.099750333376
 21
3334.511970504877
 31
0.0
  0
LINE
  5
A9
330
17
100
AcDbEntity
  8
SARR_2.2x7
 62
7
370
25
100
AcDbLine
 10
4292.099750333483
 20
3275.511970504304
 30
0.0
 11
4292.099750333377
 21
3334.511970505053
 31
0.0
  0
LINE
  5
AA
330
17
100
AcDbEntity
  8
SARR_2.2x7
 62
7
370
25
100
AcDbLine
 10
4292.099750333388
 20
3327.511970505144
 30
0.0
 11
4381.099750333389
 21
3327.511970505069
 31
0.0
  0
LINE
  5
AB
330
17
100
AcDbEntity
  8
SARR_2.2x7
 62
7
370
25
100
AcDbLine
 10
4292.099750333471
 20
3282.512537550187
 30
0.0
 11
4381.099750333471
 21
3282.512537550249
 31
0.0
  0
LINE
  5
AC
330
17
100
AcDbEntity
  8
SARR_2.2x7
 62
7
370
25
100
AcDbLine
 10
4292.099750333435
 20
3301.511970505198
 30
0.0
 11
4381.099750333436
 21
3301.511970505122
 31
0.0
  0
LINE
  5
AD
330
17
100
AcDbEntity
  8
SARR_2.2x7
 62
7
370
25
100
AcDbLine
 10
4292.099750333423
 20
3308.511970504908
 30
0.0
 11
4381.099750333424
 21
3308.511970504983
 31
0.0
  0
LINE
  5
AE
330
17
100
AcDbEntity
  8
Painéis
 62
7
370
25
100
AcDbLine
 10
4493.843476896661
 20
3209.272010654726
 30
0.0
 11
4474.86596783862
 21
3209.272010654726
 31
0.0
  0
LINE
  5
AF
330
17
100
AcDbEntity
  8
Painéis
 62
7
370
25
100
AcDbLine
 10
4493.843476896661
 20
3150.272010654731
 30
0.0
 11
4474.874048726927
 21
3150.272010654725
 31
0.0
  0
LINE
  5
B0
330
17
100
AcDbEntity
  8
Painéis
 62
7
370
25
100
AcDbLine
 10
4474.874048726927
 20
3150.272010654725
 30
0.0
 11
4474.86596783862
 21
3209.272010654726
 31
0.0
  0
LINE
  5
B1
330
17
100
AcDbEntity
  8
Painéis
 62
7
370
25
100
AcDbLine
 10
4493.843476896661
 20
3209.272010654726
 30
0.0
 11
4493.843476896661
 21
3150.272010654731
 31
0.0
  0
LINE
  5
B2
330
17
100
AcDbEntity
  8
COTA
 62
7
370
25
100
AcDbLine
 10
3928.099750333487
 20
3275.511970504304
 30
0.0
 11
3955.099750333484
 21
3275.511970504304
 31
0.0
  0
LINE
  5
B3
330
17
100
AcDbEntity
  8
SARR_2.2x7
 62
7
370
25
100
AcDbLine
 10
3577.355542820008
 20
3470.82903500102
 30
0.0
 11
3496.355542820007
 21
3470.829035001113
 31
0.0
  0
LINE
  5
B4
330
17
100
AcDbEntity
  8
SARR_2.2x7
 62
7
370
25
100
AcDbLine
 10
3577.355542820007
 20
3489.828467956097
 30
0.0
 11
3496.355542820007
 21
3489.828467955976
 31
0.0
  0
LINE
  5
B5
330
17
100
AcDbEntity
  8
SARR_2.2x7
 62
7
370
25
100
AcDbLine
 10
3577.355542820007
 20
3496.828467955733
 30
0.0
 11
3496.355542820007
 21
3496.828467955847
 31
0.0
  0
LINE
  5
B6
330
17
100
AcDbEntity
  8
SARR_2.2x7
 62
7
370
25
100
AcDbLine
 10
3577.355542820008
 20
3463.828467955815
 30
0.0
 11
3577.355542820008
 21
3470.829035001056
 31
0.0
  0
LINE
  5
B7
330
17
100
AcDbEntity
  8
SARR_2.2x7
 62
7
370
25
100
AcDbLine
 10
3577.355542820007
 20
3489.828467956054
 30
0.0
 11
3577.355542820007
 21
3496.828467955752
 31
0.0
  0
LINE
  5
B8
330
17
100
AcDbEntity
  8
SARR_2.2x7
 62
7
370
25
100
AcDbLine
 10
4212.099750333482
 20
3275.51197050435
 30
0.0
 11
4212.099750333482
 21
3282.511970504281
 31
0.0
  0
LINE
  5
B9
330
17
100
AcDbEntity
  8
SARR_2.2x7
 62
7
370
25
100
AcDbLine
 10
4212.099750333487
 20
3293.511970504249
 30
0.0
 11
4212.099750333487
 21
3300.511970503944
 31
0.0
  0
LWPOLYLINE
  5
BA
330
17
100
AcDbEntity
  8
Painéis
 62
7
370
25
100
AcDbPolyline
 90
4
 70
0
 10
3320.259982880436
 20
3407.853273576471
 10
3316.259982880436
 20
3407.853273576471
 10
3316.259982880436
 20
3319.853273576492
 10
3320.259982880436
 20
3319.853273576492
  0
LWPOLYLINE
  5
BB
330
17
100
AcDbEntity
  8
Madeira
 62
7
370
25
100
AcDbPolyline
 90
4
 70
0
 10
3278.259982880436
 20
3319.853273576492
 10
3278.259982880436
 20
3324.253273576486
 10
3288.259982880436
 20
3324.253273576486
 10
3288.259982880436
 20
3319.853273576492
  0
LWPOLYLINE
  5
BC
330
17
100
AcDbEntity
  8
Painéis
 62
7
370
25
100
AcDbPolyline
 90
4
 70
0
 10
3278.259982880436
 20
3324.253273576486
 10
3278.259982880436
 20
3327.853273576492
 10
3316.259982880436
 20
3327.853273576492
 10
3316.259982880436
 20
3324.253273576486
  0
LWPOLYLINE
  5
BD
330
17
100
AcDbEntity
  8
Madeira
 62
7
370
25
100
AcDbPolyline
 90
4
 70
0
 10
3316.259982880436
 20
3319.853273576492
 10
3316.259982880436
 20
3324.253273576486
 10
3306.259982880436
 20
3324.253273576486
 10
3306.259982880436
 20
3319.853273576492
  0
LWPOLYLINE
  5
BE
330
17
100
AcDbEntity
  8
Painéis
 62
7
370
25
100
AcDbPolyline
 90
4
 70
0
 10
3274.259982880425
 20
3437.853273576492
 10
3278.259982880425
 20
3437.853273576492
 10
3278.259982880436
 20
3319.853273576492
 10
3274.259982880436
 20
3319.853273576492
  0
LWPOLYLINE
  5
BF
330
17
100
AcDbEntity
  8
Painéis
 62
7
370
25
100
AcDbPolyline
 90
4
 70
0
 10
3316.259982880436
 20
3407.853273576471
 10
3316.259982880436
 20
3411.853273576471
 10
3371.859982880413
 20
3411.853273576463
 10
3371.859982880413
 20
3407.853273576463
  0
LWPOLYLINE
  5
C0
330
17
100
AcDbEntity
  8
CONCRETO
 62
7
370
25
100
AcDbPolyline
 90
8
 70
0
 10
3371.859982880413
 20
3411.853273576463
 10
3371.859982880413
 20
3437.853273576492
 10
3316.259982880436
 20
3437.853273576492
 10
3316.259982880436
 20
3437.853273576492
 10
3278.259982880494
 20
3437.853273576492
 10
3278.259982880494
 20
3327.853273576492
 10
3316.259982880436
 20
3327.853273576492
 10
3316.259982880436
 20
3411.853273576471
  0
LWPOLYLINE
  5
C1
330
17
100
AcDbEntity
  8
Madeira
 62
7
370
25
100
AcDbPolyline
 90
4
 70
0
 10
3324.65998288043
 20
3393.85327357647
 10
3320.259982880436
 20
3393.85327357647
 10
3320.259982880436
 20
3407.853273576471
 10
3324.65998288043
 20
3407.853273576471
  0
LWPOLYLINE
  5
C2
330
17
100
AcDbEntity
  8
Madeira
 62
7
370
25
100
AcDbPolyline
 90
4
 70
0
 10
3274.259982880425
 20
3423.853273576492
 10
3269.859982880432
 20
3423.853273576492
 10
3269.859982880432
 20
3437.853273576492
 10
3274.259982880425
 20
3437.853273576492
  0
LWPOLYLINE
  5
C3
330
17
100
AcDbEntity
  8
Madeira
 62
7
370
25
100
AcDbPolyline
 90
4
 70
0
 10
3274.259982880429
 20
3375.823331104798
 10
3269.859982880435
 20
3375.823331104798
 10
3269.859982880435
 20
3389.823331104798
 10
3274.259982880429
 20
3389.823331104798
  0
LWPOLYLINE
  5
C4
330
17
100
AcDbEntity
  8
Madeira
 62
7
370
25
100
AcDbPolyline
 90
4
 70
0
 10
3274.259982880436
 20
3319.853273576492
 10
3269.859982880442
 20
3319.853273576492
 10
3269.859982880442
 20
3333.853273576492
 10
3274.259982880436
 20
3333.853273576492
  0
LWPOLYLINE
  5
C5
330
17
100
AcDbEntity
  8
Madeira
 62
7
370
25
100
AcDbPolyline
 90
4
 70
0
 10
3324.65998288043
 20
3319.853273576492
 10
3320.259982880436
 20
3319.853273576492
 10
3320.259982880436
 20
3333.853273576492
 10
3324.65998288043
 20
3333.853273576492
  0
LWPOLYLINE
  5
C6
330
17
100
AcDbEntity
  8
Painéis
 62
7
370
25
100
AcDbPolyline
 90
4
 70
0
 10
3874.09975033349
 20
3334.511970504301
 10
3662.099750333489
 20
3334.511970504299
 10
3662.099750333489
 20
3331.511970504299
 10
3874.09975033349
 20
3331.511970504301
  0
LWPOLYLINE
  5
C7
330
17
100
AcDbEntity
  8
Painéis
 62
7
370
25
100
AcDbPolyline
 90
4
 70
0
 10
3375.260283413051
 20
2957.871138618863
 10
3379.260283413051
 20
2957.871138618863
 10
3379.260283413051
 20
2881.871138618884
 10
3375.260283413051
 20
2881.871138618884
  0
LWPOLYLINE
  5
C8
330
17
100
AcDbEntity
  8
Madeira
 62
7
370
25
100
AcDbPolyline
 90
4
 70
0
 10
3417.26028341305
 20
2881.871138618884
 10
3417.26028341305
 20
2886.271138618878
 10
3407.260283413051
 20
2886.271138618878
 10
3407.260283413051
 20
2881.871138618884
  0
LWPOLYLINE
  5
C9
330
17
100
AcDbEntity
  8
Painéis
 62
7
370
25
100
AcDbPolyline
 90
4
 70
0
 10
3417.26028341305
 20
2886.271138618878
 10
3417.26028341305
 20
2889.871138618884
 10
3379.260283413051
 20
2889.871138618884
 10
3379.260283413051
 20
2886.271138618878
  0
LWPOLYLINE
  5
CA
330
17
100
AcDbEntity
  8
Madeira
 62
7
370
25
100
AcDbPolyline
 90
4
 70
0
 10
3379.260283413051
 20
2881.871138618884
 10
3379.260283413051
 20
2886.271138618878
 10
3389.26028341305
 20
2886.271138618878
 10
3389.26028341305
 20
2881.871138618884
  0
LWPOLYLINE
  5
CB
330
17
100
AcDbEntity
  8
Painéis
 62
7
370
25
100
AcDbPolyline
 90
4
 70
0
 10
3421.26028341305
 20
2961.871138618862
 10
3417.26028341305
 20
2961.871138618862
 10
3417.26028341305
 20
2881.871138618884
 10
3421.26028341305
 20
2881.871138618884
  0
LWPOLYLINE
  5
CC
330
17
100
AcDbEntity
  8
Painéis
 62
7
370
25
100
AcDbPolyline
 90
4
 70
0
 10
3477.260283413021
 20
2961.871138618862
 10
3477.260283413021
 20
2965.871138618862
 10
3417.26028341305
 20
2965.871138618862
 10
3417.26028341305
 20
2961.871138618862
  0
LWPOLYLINE
  5
CD
330
17
100
AcDbEntity
  8
Painéis
 62
7
370
25
100
AcDbPolyline
 90
4
 70
0
 10
3379.260283413051
 20
2957.871138618863
 10
3379.260283413051
 20
2961.871138618862
 10
3323.660283413074
 20
2961.871138618855
 10
3323.660283413074
 20
2957.871138618855
  0
LWPOLYLINE
  5
CE
330
17
100
AcDbEntity
  8
CONCRETO
 62
7
370
25
100
AcDbPolyline
 90
8
 70
0
 10
3323.660283413074
 20
2961.871138618855
 10
3323.660283413074
 20
2989.871138618884
 10
3477.260283413021
 20
2989.871138618884
 10
3477.260283413021
 20
2965.87113861887
 10
3417.26028341305
 20
2965.87113861887
 10
3417.260283412992
 20
2889.871138618884
 10
3379.260283413051
 20
2889.871138618884
 10
3379.260283413051
 20
2961.871138618862
  0
LWPOLYLINE
  5
CF
330
17
100
AcDbEntity
  8
Madeira
 62
7
370
25
100
AcDbPolyline
 90
4
 70
0
 10
3370.860283413056
 20
2943.871138618863
 10
3375.260283413051
 20
2943.871138618863
 10
3375.260283413051
 20
2957.871138618863
 10
3370.860283413056
 20
2957.871138618863
  0
LWPOLYLINE
  5
D0
330
17
100
AcDbEntity
  8
Madeira
 62
7
370
25
100
AcDbPolyline
 90
4
 70
0
 10
3370.860283413056
 20
2881.871138618884
 10
3375.260283413051
 20
2881.871138618884
 10
3375.260283413051
 20
2895.871138618884
 10
3370.860283413056
 20
2895.871138618884
  0
LWPOLYLINE
  5
D1
330
17
100
AcDbEntity
  8
Madeira
 62
7
370
25
100
AcDbPolyline
 90
4
 70
0
 10
3425.660283413045
 20
2947.871138618863
 10
3421.26028341305
 20
2947.871138618863
 10
3421.26028341305
 20
2961.871138618862
 10
3425.660283413045
 20
2961.871138618862
  0
LWPOLYLINE
  5
D2
330
17
100
AcDbEntity
  8
Madeira
 62
7
370
25
100
AcDbPolyline
 90
4
 70
0
 10
3425.660283413045
 20
2881.871138618884
 10
3421.26028341305
 20
2881.871138618884
 10
3421.26028341305
 20
2895.871138618884
 10
3425.660283413045
 20
2895.871138618884
  0
LWPOLYLINE
  5
D3
330
17
100
AcDbEntity
  8
Painéis
 62
7
370
25
100
AcDbPolyline
 90
4
 70
0
 10
3686.094781058111
 20
3005.92598937374
 10
3799.094781058111
 20
3005.92598937374
 10
3799.094781058111
 20
3002.92598937374
 10
3686.094781058111
 20
3002.92598937374
  0
LWPOLYLINE
  5
D4
330
17
100
AcDbEntity
  8
SARR_3.5x7
 62
7
370
25
100
AcDbPolyline
 90
4
 70
0
 10
3255.859982880377
 20
3431.853273576492
 10
3269.859982880376
 20
3431.853273576492
 10
3269.859982880507
 20
3243.375060170686
 10
3255.859982880507
 20
3243.375060170686
  0
LWPOLYLINE
  5
D5
330
17
100
AcDbEntity
  8
SARR_3.5x7
 62
7
370
25
100
AcDbPolyline
 90
4
 70
0
 10
3338.659982880663
 20
3401.853273576473
 10
3324.659982880663
 20
3401.853273576473
 10
3324.659982880517
 20
3241.375060170686
 10
3338.659982880518
 20
3241.375060170686
  0
LWPOLYLINE
  5
D6
330
17
100
AcDbEntity
  8
SARR_3.5x7
 62
7
370
25
100
AcDbPolyline
 90
4
 70
0
 10
3255.859982880365
 20
3319.853273576492
 10
3338.659982880565
 20
3319.85327357649
 10
3338.659982880565
 20
3289.795211972491
 10
3255.859982880365
 20
3289.795211972494
  0
LWPOLYLINE
  5
D7
330
17
100
AcDbEntity
  8
SARR_3.5x7
 62
7
370
25
100
AcDbPolyline
 90
4
 70
0
 10
3356.860283412991
 20
2951.87113861886
 10
3370.860283412991
 20
2951.87113861886
 10
3370.860283413121
 20
2805.392925213078
 10
3356.860283413122
 20
2805.392925213078
  0
LWPOLYLINE
  5
D8
330
17
100
AcDbEntity
  8
SARR_3.5x7
 62
7
370
25
100
AcDbPolyline
 90
4
 70
0
 10
3439.660283413277
 20
2955.87113861886
 10
3425.660283413277
 20
2955.87113861886
 10
3425.660283413132
 20
2805.392925213078
 10
3439.660283413132
 20
2805.392925213078
  0
LWPOLYLINE
  5
D9
330
17
100
AcDbEntity
  8
SARR_3.5x7
 62
7
370
25
100
AcDbPolyline
 90
4
 70
0
 10
3356.86028341298
 20
2881.871138618884
 10
3439.660283413179
 20
2881.871138618882
 10
3439.660283413179
 20
2851.813077014883
 10
3356.86028341298
 20
2851.813077014885
  0
LWPOLYLINE
  5
DA
330
17
100
AcDbEntity
  8
Madeira
 62
7
370
25
100
AcDbPolyline
 90
4
 70
0
 10
3370.860283413056
 20
2912.871138618874
 10
3375.260283413051
 20
2912.871138618874
 10
3375.260283413051
 20
2926.871138618873
 10
3370.860283413056
 20
2926.871138618873
  0
LWPOLYLINE
  5
DB
330
17
100
AcDbEntity
  8
Madeira
 62
7
370
25
100
AcDbPolyline
 90
4
 70
0
 10
3425.660283413045
 20
2916.871138618873
 10
3421.26028341305
 20
2916.871138618873
 10
3421.26028341305
 20
2930.871138618874
 10
3425.660283413045
 20
2930.871138618874
  0
LWPOLYLINE
  5
DC
330
17
100
AcDbEntity
  8
Painéis
 62
7
370
25
100
AcDbPolyline
 90
4
 70
0
 10
4076.099750333484
 20
3334.511970504301
 10
3951.099750333484
 20
3334.511970504299
 10
3951.099750333484
 20
3331.511970504299
 10
4076.099750333484
 20
3331.511970504301
  0
LWPOLYLINE
  5
DD
330
17
100
AcDbEntity
  8
Texto Seção
 62
7
370
25
100
AcDbPolyline
 90
4
 70
0
 10
3204.39549030325
 20
3152.629355779396
 10
3437.830016182037
 20
3152.629355779396
 10
3437.830016182037
 20
3129.428478711647
 10
3204.39549030325
 20
3129.428478711647
  0
LWPOLYLINE
  5
DE
330
17
100
AcDbEntity
  8
SARR_2.2x7
 62
7
370
25
100
AcDbPolyline
 90
4
 70
0
 10
4486.853795417868
 20
3209.272010654726
 10
4493.843476896661
 20
3209.272010654726
 10
4493.843476896661
 20
3150.272010654731
 10
4486.853795417868
 20
3150.272010654731
  0
LWPOLYLINE
  5
DF
330
17
100
AcDbEntity
  8
SARR_2.2x7
 62
7
370
25
100
AcDbPolyline
 90
4
 70
0
 10
4481.86373020572
 20
3209.272010654726
 10
4474.874048726927
 20
3209.272010654726
 10
4474.874048726927
 20
3150.272010654731
 10
4481.86373020572
 20
3150.272010654731
  0
LWPOLYLINE
  5
E0
330
17
100
AcDbEntity
  8
Cotas
 62
7
370
25
100
AcDbPolyline
 90
4
 70
0
 10
4414.749938810937
 20
3237.076583853292
 10
4547.1159992407
 20
3237.076583853292
 10
4547.1159992407
 20
3123.618700570989
 10
4414.749938810937
 20
3123.618700570989
  0
LWPOLYLINE
  5
E1
330
17
100
AcDbEntity
  8
Texto Seção
 62
7
370
25
100
AcDbPolyline
 90
4
 70
0
 10
4397.984741840605
 20
2833.324304525732
 10
4539.434059992862
 20
2833.324304525732
 10
4539.434059992862
 20
2810.123427457982
 10
4397.984741840605
 20
2810.123427457982
  0
ENDSEC
  0
SECTION
  2
OBJECTS
  0
DICTIONARY
  5
A
330
0
100
AcDbDictionary
281
1
  3
ACAD_COLOR
350
B
  3
ACAD_GROUP
350
C
  3
ACAD_LAYOUT
350
D
  3
ACAD_MATERIAL
350
E
  3
ACAD_MLEADERSTYLE
350
F
  3
ACAD_MLINESTYLE
350
10
  3
ACAD_PLOTSETTINGS
350
11
  3
ACAD_PLOTSTYLENAME
350
12
  3
ACAD_SCALELIST
350
14
  3
ACAD_TABLESTYLE
350
15
  3
ACAD_VISUALSTYLE
350
16
  3
EZDXF_META
350
2D
  0
DICTIONARY
  5
B
330
A
100
AcDbDictionary
281
1
  0
DICTIONARY
  5
C
330
A
100
AcDbDictionary
281
1
  0
DICTIONARY
  5
D
330
A
100
AcDbDictionary
281
1
  3
Model
350
1A
  3
Layout1
350
1E
  0
DICTIONARY
  5
E
330
A
100
AcDbDictionary
281
1
  3
ByBlock
350
1F
  3
ByLayer
350
20
  3
Global
350
21
  0
DICTIONARY
  5
F
330
A
100
AcDbDictionary
281
1
  3
Standard
350
2C
  0
DICTIONARY
  5
10
330
A
100
AcDbDictionary
281
1
  3
Standard
350
22
  0
DICTIONARY
  5
11
330
A
100
AcDbDictionary
281
1
  0
ACDBDICTIONARYWDFLT
  5
12
330
A
100
AcDbDictionary
281
1
  3
Normal
350
13
100
AcDbDictionaryWithDefault
340
13
  0
ACDBPLACEHOLDER
  5
13
330
12
  0
DICTIONARY
  5
14
330
A
100
AcDbDictionary
281
1
  0
DICTIONARY
  5
15
330
A
100
AcDbDictionary
281
1
  0
DICTIONARY
  5
16
330
A
100
AcDbDictionary
281
1
  0
LAYOUT
  5
1A
330
D
100
AcDbPlotSettings
  1

  4
A3
  6

 40
7.5
 41
20.0
 42
7.5
 43
20.0
 44
420.0
 45
297.0
 46
0.0
 47
0.0
 48
0.0
 49
0.0
140
0.0
141
0.0
142
1.0
143
1.0
 70
1024
 72
1
 73
0
 74
5
  7

 75
16
 76
0
 77
2
 78
300
147
1.0
148
0.0
149
0.0
100
AcDbLayout
  1
Model
 70
1
 71
0
 10
0.0
 20
0.0
 11
420.0
 21
297.0
 12
0.0
 22
0.0
 32
0.0
 14
1e+20
 24
1e+20
 34
1e+20
 15
-1e+20
 25
-1e+20
 35
-1e+20
146
0.0
 13
0.0
 23
0.0
 33
0.0
 16
1.0
 26
0.0
 36
0.0
 17
0.0
 27
1.0
 37
0.0
 76
1
330
17
  0
LAYOUT
  5
1E
330
D
100
AcDbPlotSettings
  1

  4
A3
  6

 40
7.5
 41
20.0
 42
7.5
 43
20.0
 44
420.0
 45
297.0
 46
0.0
 47
0.0
 48
0.0
 49
0.0
140
0.0
141
0.0
142
1.0
143
1.0
 70
0
 72
1
 73
0
 74
5
  7

 75
16
 76
0
 77
2
 78
300
147
1.0
148
0.0
149
0.0
100
AcDbLayout
  1
Layout1
 70
1
 71
1
 10
0.0
 20
0.0
 11
420.0
 21
297.0
 12
0.0
 22
0.0
 32
0.0
 14
1e+20
 24
1e+20
 34
1e+20
 15
-1e+20
 25
-1e+20
 35
-1e+20
146
0.0
 13
0.0
 23
0.0
 33
0.0
 16
1.0
 26
0.0
 36
0.0
 17
0.0
 27
1.0
 37
0.0
 76
1
330
1B
  0
MATERIAL
  5
1F
102
{ACAD_REACTORS
330
E
102
}
330
E
100
AcDbMaterial
  1
ByBlock
  2

 70
0
 40
1.0
 71
1
 41
1.0
 91
-1023410177
 42
1.0
 72
1
  3

 73
1
 74
1
 75
1
 44
0.5
 73
0
 45
1.0
 46
1.0
 77
1
  4

 78
1
 79
1
170
1
 48
1.0
171
1
  6

172
1
173
1
174
1
140
1.0
141
1.0
175
1
  7

176
1
177
1
178
1
143
1.0
179
1
  8

270
1
271
1
272
1
145
1.0
146
1.0
273
1
  9

274
1
275
1
276
1
 42
1.0
 72
1
  3

 73
1
 74
1
 75
1
 94
63
  0
MATERIAL
  5
20
102
{ACAD_REACTORS
330
E
102
}
330
E
100
AcDbMaterial
  1
ByLayer
  2

 70
0
 40
1.0
 71
1
 41
1.0
 91
-1023410177
 42
1.0
 72
1
  3

 73
1
 74
1
 75
1
 44
0.5
 73
0
 45
1.0
 46
1.0
 77
1
  4

 78
1
 79
1
170
1
 48
1.0
171
1
  6

172
1
173
1
174
1
140
1.0
141
1.0
175
1
  7

176
1
177
1
178
1
143
1.0
179
1
  8

270
1
271
1
272
1
145
1.0
146
1.0
273
1
  9

274
1
275
1
276
1
 42
1.0
 72
1
  3

 73
1
 74
1
 75
1
 94
63
  0
MATERIAL
  5
21
102
{ACAD_REACTORS
330
E
102
}
330
E
100
AcDbMaterial
  1
Global
  2

 70
0
 40
1.0
 71
1
 41
1.0
 91
-1023410177
 42
1.0
 72
1
  3

 73
1
 74
1
 75
1
 44
0.5
 73
0
 45
1.0
 46
1.0
 77
1
  4

 78
1
 79
1
170
1
 48
1.0
171
1
  6

172
1
173
1
174
1
140
1.0
141
1.0
175
1
  7

176
1
177
1
178
1
143
1.0
179
1
  8

270
1
271
1
272
1
145
1.0
146
1.0
273
1
  9

274
1
275
1
276
1
 42
1.0
 72
1
  3

 73
1
 74
1
 75
1
 94
63
  0
MLINESTYLE
  5
22
102
{ACAD_REACTORS
330
10
102
}
330
10
100
AcDbMlineStyle
  2
Standard
 70
0
  3

 62
256
 51
90.0
 52
90.0
 71
2
 49
0.5
 62
256
  6
BYLAYER
 49
-0.5
 62
256
  6
BYLAYER
  0
MLEADERSTYLE
  5
2C
102
{ACAD_REACTORS
330
F
102
}
330
F
100
AcDbMLeaderStyle
179
2
170
2
171
1
172
0
 90
2
 40
0.0
 41
0.0
173
1
 91
-1056964608
 92
-2
290
1
 42
2.0
291
1
 43
8.0
  3
Standard
 44
4.0
300

342
29
174
1
175
1
176
0
178
1
 93
-1056964608
 45
4.0
292
0
297
0
 46
4.0
 94
-1056964608
 47
1.0
 49
1.0
140
1.0
294
1
141
0.0
177
0
142
1.0
295
0
296
0
143
3.75
271
0
272
9
273
9
  0
DICTIONARY
  5
2D
330
A
100
AcDbDictionary
280
1
281
1
  3
CREATED_BY_EZDXF
350
2E
  3
WRITTEN_BY_EZDXF
350
E4
  0
DICTIONARYVAR
  5
2E
330
2D
100
DictionaryVariables
280
0
  1
1.4.3 @ 2026-06-10T03:13:03.627874+00:00
  0
DICTIONARYVAR
  5
E4
330
2D
100
DictionaryVariables
280
0
  1
1.4.3 @ 2026-06-10T03:13:03.634625+00:00
  0
ENDSEC
  0
EOF
