  0
SECTION
  2
HEADER
  9
$ACADVER
  1
AC1024
  9
$ACADMAINTVER
 70
6
  9
$DWGCODEPAGE
  3
ANSI_1252
  9
$LASTSAVEDBY
  1
ezdxf
  9
$INSBASE
 10
0.0
 20
0.0
 30
0.0
  9
$EXTMIN
 10
1e+20
 20
1e+20
 30
1e+20
  9
$EXTMAX
 10
-1e+20
 20
-1e+20
 30
-1e+20
  9
$LIMMIN
 10
0.0
 20
0.0
  9
$LIMMAX
 10
420.0
 20
297.0
  9
$ORTHOMODE
 70
0
  9
$REGENMODE
 70
1
  9
$FILLMODE
 70
1
  9
$QTEXTMODE
 70
0
  9
$MIRRTEXT
 70
1
  9
$LTSCALE
 40
1.0
  9
$ATTMODE
 70
1
  9
$TEXTSIZE
 40
2.5
  9
$TRACEWID
 40
1.0
  9
$TEXTSTYLE
  7
Standard
  9
$CLAYER
  8
0
  9
$CELTYPE
  6
ByLayer
  9
$CECOLOR
 62
256
  9
$CELTSCALE
 40
1.0
  9
$DISPSILH
 70
0
  9
$DIMSCALE
 40
1.0
  9
$DIMASZ
 40
2.5
  9
$DIMEXO
 40
0.625
  9
$DIMDLI
 40
3.75
  9
$DIMRND
 40
0.0
  9
$DIMDLE
 40
0.0
  9
$DIMEXE
 40
1.25
  9
$DIMTP
 40
0.0
  9
$DIMTM
 40
0.0
  9
$DIMTXT
 40
2.5
  9
$DIMCEN
 40
2.5
  9
$DIMTSZ
 40
0.0
  9
$DIMTOL
 70
0
  9
$DIMLIM
 70
0
  9
$DIMTIH
 70
0
  9
$DIMTOH
 70
0
  9
$DIMSE1
 70
0
  9
$DIMSE2
 70
0
  9
$DIMTAD
 70
1
  9
$DIMZIN
 70
8
  9
$DIMBLK
  1

  9
$DIMASO
 70
1
  9
$DIMSHO
 70
1
  9
$DIMPOST
  1

  9
$DIMAPOST
  1

  9
$DIMALT
 70
0
  9
$DIMALTD
 70
3
  9
$DIMALTF
 40
0.03937007874
  9
$DIMLFAC
 40
1.0
  9
$DIMTOFL
 70
1
  9
$DIMTVP
 40
0.0
  9
$DIMTIX
 70
0
  9
$DIMSOXD
 70
0
  9
$DIMSAH
 70
0
  9
$DIMBLK1
  1

  9
$DIMBLK2
  1

  9
$DIMSTYLE
  2
ISO-25
  9
$DIMCLRD
 70
0
  9
$DIMCLRE
 70
0
  9
$DIMCLRT
 70
0
  9
$DIMTFAC
 40
1.0
  9
$DIMGAP
 40
0.625
  9
$DIMJUST
 70
0
  9
$DIMSD1
 70
0
  9
$DIMSD2
 70
0
  9
$DIMTOLJ
 70
0
  9
$DIMTZIN
 70
8
  9
$DIMALTZ
 70
0
  9
$DIMALTTZ
 70
0
  9
$DIMUPT
 70
0
  9
$DIMDEC
 70
2
  9
$DIMTDEC
 70
2
  9
$DIMALTU
 70
2
  9
$DIMALTTD
 70
3
  9
$DIMTXSTY
  7
Standard
  9
$DIMAUNIT
 70
0
  9
$DIMADEC
 70
0
  9
$DIMALTRND
 40
0.0
  9
$DIMAZIN
 70
0
  9
$DIMDSEP
 70
44
  9
$DIMATFIT
 70
3
  9
$DIMFRAC
 70
0
  9
$DIMLDRBLK
  1

  9
$DIMLUNIT
 70
2
  9
$DIMLWD
 70
-2
  9
$DIMLWE
 70
-2
  9
$DIMTMOVE
 70
0
  9
$DIMFXL
 40
1.0
  9
$DIMFXLON
 70
0
  9
$DIMJOGANG
 40
0.785398163397
  9
$DIMTFILL
 70
0
  9
$DIMTFILLCLR
 70
0
  9
$DIMARCSYM
 70
0
  9
$DIMLTYPE
  6

  9
$DIMLTEX1
  6

  9
$DIMLTEX2
  6

  9
$DIMTXTDIRECTION
 70
0
  9
$LUNITS
 70
2
  9
$LUPREC
 70
4
  9
$SKETCHINC
 40
1.0
  9
$FILLETRAD
 40
10.0
  9
$AUNITS
 70
0
  9
$AUPREC
 70
2
  9
$MENU
  1
.
  9
$ELEVATION
 40
0.0
  9
$PELEVATION
 40
0.0
  9
$THICKNESS
 40
0.0
  9
$LIMCHECK
 70
0
  9
$CHAMFERA
 40
0.0
  9
$CHAMFERB
 40
0.0
  9
$CHAMFERC
 40
0.0
  9
$CHAMFERD
 40
0.0
  9
$SKPOLY
 70
0
  9
$TDCREATE
 40
2461202.578900463
  9
$TDUCREATE
 40
2458532.153996898
  9
$TDUPDATE
 40
2461202.578900463
  9
$TDUUPDATE
 40
2458532.1544311
  9
$TDINDWG
 40
0.0
  9
$TDUSRTIMER
 40
0.0
  9
$USRTIMER
 70
1
  9
$ANGBASE
 50
0.0
  9
$ANGDIR
 70
0
  9
$PDMODE
 70
0
  9
$PDSIZE
 40
0.0
  9
$PLINEWID
 40
0.0
  9
$SPLFRAME
 70
0
  9
$SPLINETYPE
 70
6
  9
$SPLINESEGS
 70
8
  9
$HANDSEED
  5
105
  9
$SURFTAB1
 70
6
  9
$SURFTAB2
 70
6
  9
$SURFTYPE
 70
6
  9
$SURFU
 70
6
  9
$SURFV
 70
6
  9
$UCSBASE
  2

  9
$UCSNAME
  2

  9
$UCSORG
 10
0.0
 20
0.0
 30
0.0
  9
$UCSXDIR
 10
1.0
 20
0.0
 30
0.0
  9
$UCSYDIR
 10
0.0
 20
1.0
 30
0.0
  9
$UCSORTHOREF
  2

  9
$UCSORTHOVIEW
 70
0
  9
$UCSORGTOP
 10
0.0
 20
0.0
 30
0.0
  9
$UCSORGBOTTOM
 10
0.0
 20
0.0
 30
0.0
  9
$UCSORGLEFT
 10
0.0
 20
0.0
 30
0.0
  9
$UCSORGRIGHT
 10
0.0
 20
0.0
 30
0.0
  9
$UCSORGFRONT
 10
0.0
 20
0.0
 30
0.0
  9
$UCSORGBACK
 10
0.0
 20
0.0
 30
0.0
  9
$PUCSBASE
  2

  9
$PUCSNAME
  2

  9
$PUCSORG
 10
0.0
 20
0.0
 30
0.0
  9
$PUCSXDIR
 10
1.0
 20
0.0
 30
0.0
  9
$PUCSYDIR
 10
0.0
 20
1.0
 30
0.0
  9
$PUCSORTHOREF
  2

  9
$PUCSORTHOVIEW
 70
0
  9
$PUCSORGTOP
 10
0.0
 20
0.0
 30
0.0
  9
$PUCSORGBOTTOM
 10
0.0
 20
0.0
 30
0.0
  9
$PUCSORGLEFT
 10
0.0
 20
0.0
 30
0.0
  9
$PUCSORGRIGHT
 10
0.0
 20
0.0
 30
0.0
  9
$PUCSORGFRONT
 10
0.0
 20
0.0
 30
0.0
  9
$PUCSORGBACK
 10
0.0
 20
0.0
 30
0.0
  9
$USERI1
 70
0
  9
$USERI2
 70
0
  9
$USERI3
 70
0
  9
$USERI4
 70
0
  9
$USERI5
 70
0
  9
$USERR1
 40
0.0
  9
$USERR2
 40
0.0
  9
$USERR3
 40
0.0
  9
$USERR4
 40
0.0
  9
$USERR5
 40
0.0
  9
$WORLDVIEW
 70
1
  9
$SHADEDGE
 70
3
  9
$SHADEDIF
 70
70
  9
$TILEMODE
 70
1
  9
$MAXACTVP
 70
64
  9
$PINSBASE
 10
0.0
 20
0.0
 30
0.0
  9
$PLIMCHECK
 70
0
  9
$PEXTMIN
 10
1e+20
 20
1e+20
 30
1e+20
  9
$PEXTMAX
 10
-1e+20
 20
-1e+20
 30
-1e+20
  9
$PLIMMIN
 10
0.0
 20
0.0
  9
$PLIMMAX
 10
420.0
 20
297.0
  9
$UNITMODE
 70
0
  9
$VISRETAIN
 70
1
  9
$PLINEGEN
 70
0
  9
$PSLTSCALE
 70
1
  9
$TREEDEPTH
 70
3020
  9
$CMLSTYLE
  2
Standard
  9
$CMLJUST
 70
0
  9
$CMLSCALE
 40
20.0
  9
$PROXYGRAPHICS
 70
1
  9
$MEASUREMENT
 70
1
  9
$CELWEIGHT
370
-1
  9
$ENDCAPS
280
0
  9
$JOINSTYLE
280
0
  9
$LWDISPLAY
290
0
  9
$INSUNITS
 70
6
  9
$HYPERLINKBASE
  1

  9
$STYLESHEET
  1

  9
$XEDIT
290
1
  9
$CEPSNTYPE
380
0
  9
$PSTYLEMODE
290
1
  9
$FINGERPRINTGUID
  2
{D55A508C-7B19-4167-993F-4FE047AED662}
  9
$VERSIONGUID
  2
{4CC58D58-3281-47E0-AF01-96C424C354FE}
  9
$EXTNAMES
290
1
  9
$PSVPSCALE
 40
0.0
  9
$OLESTARTUP
290
0
  9
$SORTENTS
280
127
  9
$INDEXCTL
280
0
  9
$HIDETEXT
280
1
  9
$XCLIPFRAME
280
1
  9
$HALOGAP
280
0
  9
$OBSCOLOR
 70
257
  9
$OBSLTYPE
280
0
  9
$INTERSECTIONDISPLAY
280
0
  9
$INTERSECTIONCOLOR
 70
257
  9
$DIMASSOC
280
2
  9
$PROJECTNAME
  1

  9
$CAMERADISPLAY
290
0
  9
$LENSLENGTH
 40
50.0
  9
$CAMERAHEIGHT
 40
0.0
  9
$STEPSPERSEC
 40
24.0
  9
$STEPSIZE
 40
100.0
  9
$3DDWFPREC
 40
2.0
  9
$PSOLWIDTH
 40
0.005
  9
$PSOLHEIGHT
 40
0.08
  9
$LOFTANG1
 40
1.570796326795
  9
$LOFTANG2
 40
1.570796326795
  9
$LOFTMAG1
 40
0.0
  9
$LOFTMAG2
 40
0.0
  9
$LOFTPARAM
 70
7
  9
$LOFTNORMALS
280
1
  9
$LATITUDE
 40
37.795
  9
$LONGITUDE
 40
-122.394
  9
$NORTHDIRECTION
 40
0.0
  9
$TIMEZONE
 70
-8000
  9
$LIGHTGLYPHDISPLAY
280
1
  9
$TILEMODELIGHTSYNCH
280
1
  9
$CMATERIAL
347
20
  9
$SOLIDHIST
280
0
  9
$SHOWHIST
280
1
  9
$DWFFRAME
280
2
  9
$DGNFRAME
280
2
  9
$REALWORLDSCALE
290
1
  9
$INTERFERECOLOR
 62
256
  9
$CSHADOW
280
0
  9
$SHADOWPLANELOCATION
 40
0.0
  0
ENDSEC
  0
SECTION
  2
CLASSES
  0
CLASS
  1
ACDBDICTIONARYWDFLT
  2
AcDbDictionaryWithDefault
  3
ObjectDBX Classes
 90
0
 91
0
280
0
281
0
  0
CLASS
  1
SUN
  2
AcDbSun
  3
SCENEOE
 90
1153
 91
0
280
0
281
0
  0
CLASS
  1
VISUALSTYLE
  2
AcDbVisualStyle
  3
ObjectDBX Classes
 90
4095
 91
0
280
0
281
0
  0
CLASS
  1
MATERIAL
  2
AcDbMaterial
  3
ObjectDBX Classes
 90
1153
 91
0
280
0
281
0
  0
CLASS
  1
SCALE
  2
AcDbScale
  3
ObjectDBX Classes
 90
1153
 91
0
280
0
281
0
  0
CLASS
  1
TABLESTYLE
  2
AcDbTableStyle
  3
ObjectDBX Classes
 90
4095
 91
0
280
0
281
0
  0
CLASS
  1
MLEADERSTYLE
  2
AcDbMLeaderStyle
  3
ACDB_MLEADERSTYLE_CLASS
 90
4095
 91
0
280
0
281
0
  0
CLASS
  1
DICTIONARYVAR
  2
AcDbDictionaryVar
  3
ObjectDBX Classes
 90
0
 91
0
280
0
281
0
  0
CLASS
  1
CELLSTYLEMAP
  2
AcDbCellStyleMap
  3
ObjectDBX Classes
 90
1152
 91
0
280
0
281
0
  0
CLASS
  1
MENTALRAYRENDERSETTINGS
  2
AcDbMentalRayRenderSettings
  3
SCENEOE
 90
1024
 91
0
280
0
281
0
  0
CLASS
  1
ACDBDETAILVIEWSTYLE
  2
AcDbDetailViewStyle
  3
ObjectDBX Classes
 90
1025
 91
0
280
0
281
0
  0
CLASS
  1
ACDBSECTIONVIEWSTYLE
  2
AcDbSectionViewStyle
  3
ObjectDBX Classes
 90
1025
 91
0
280
0
281
0
  0
CLASS
  1
RASTERVARIABLES
  2
AcDbRasterVariables
  3
ISM
 90
0
 91
0
280
0
281
0
  0
CLASS
  1
LAYOUT
  2
AcDbLayout
  3
ObjectDBX Classes
 90
0
 91
0
280
0
281
0
  0
CLASS
  1
ACDBPLACEHOLDER
  2
AcDbPlaceHolder
  3
ObjectDBX Classes
 90
0
 91
0
280
0
281
0
  0
ENDSEC
  0
SECTION
  2
TABLES
  0
TABLE
  2
VPORT
  5
8
330
0
100
AcDbSymbolTable
 70
1
  0
VPORT
  5
23
330
8
100
AcDbSymbolTableRecord
100
AcDbViewportTableRecord
  2
*Active
 70
0
 10
0.0
 20
0.0
 11
1.0
 21
1.0
 12
0.0
 22
0.0
 13
0.0
 23
0.0
 14
0.5
 24
0.5
 15
0.5
 25
0.5
 16
0.0
 26
0.0
 36
1.0
 17
0.0
 27
0.0
 37
0.0
 40
1000.0
 41
1.34
 42
50.0
 43
0.0
 44
0.0
 50
0.0
 51
0.0
 71
0
 72
1000
 73
1
 74
3
 75
0
 76
0
 77
0
 78
0
281
0
 65
0
146
0.0
  0
ENDTAB
  0
TABLE
  2
LTYPE
  5
2
330
0
100
AcDbSymbolTable
 70
3
  0
LTYPE
  5
24
330
2
100
AcDbSymbolTableRecord
100
AcDbLinetypeTableRecord
  2
ByBlock
 70
0
  3

 72
65
 73
0
 40
0.0
  0
LTYPE
  5
25
330
2
100
AcDbSymbolTableRecord
100
AcDbLinetypeTableRecord
  2
ByLayer
 70
0
  3

 72
65
 73
0
 40
0.0
  0
LTYPE
  5
26
330
2
100
AcDbSymbolTableRecord
100
AcDbLinetypeTableRecord
  2
Continuous
 70
0
  3

 72
65
 73
0
 40
0.0
  0
ENDTAB
  0
TABLE
  2
LAYER
  5
1
330
0
100
AcDbSymbolTable
 70
14
  0
LAYER
  5
27
330
1
100
AcDbSymbolTableRecord
100
AcDbLayerTableRecord
  2
0
 70
0
 62
7
  6
Continuous
370
-3
390
13
347
21
  0
LAYER
  5
28
330
1
100
AcDbSymbolTableRecord
100
AcDbLayerTableRecord
  2
Defpoints
 70
0
 62
7
  6
Continuous
290
0
370
-3
390
13
347
21
  0
LAYER
  5
2F
330
1
100
AcDbSymbolTableRecord
100
AcDbLayerTableRecord
  2
SARR_EDITAR
 70
0
 62
7
  6
Continuous
370
-3
390
13
347
21
  0
LAYER
  5
30
330
1
100
AcDbSymbolTableRecord
100
AcDbLayerTableRecord
  2
COTA
 70
0
 62
7
  6
Continuous
370
-3
390
13
347
21
  0
LAYER
  5
31
330
1
100
AcDbSymbolTableRecord
100
AcDbLayerTableRecord
  2
Hachura
 70
0
 62
7
  6
Continuous
370
-3
390
13
347
21
  0
LAYER
  5
32
330
1
100
AcDbSymbolTableRecord
100
AcDbLayerTableRecord
  2
detalhes
 70
0
 62
7
  6
Continuous
370
-3
390
13
347
21
  0
LAYER
  5
33
330
1
100
AcDbSymbolTableRecord
100
AcDbLayerTableRecord
  2
Painéis
 70
0
 62
7
  6
Continuous
370
-3
390
13
347
21
  0
LAYER
  5
34
330
1
100
AcDbSymbolTableRecord
100
AcDbLayerTableRecord
  2
Madeira
 70
0
 62
7
  6
Continuous
370
-3
390
13
347
21
  0
LAYER
  5
35
330
1
100
AcDbSymbolTableRecord
100
AcDbLayerTableRecord
  2
SARR_2.2x7
 70
0
 62
7
  6
Continuous
370
-3
390
13
347
21
  0
LAYER
  5
36
330
1
100
AcDbSymbolTableRecord
100
AcDbLayerTableRecord
  2
SARR_3.5x7
 70
0
 62
7
  6
Continuous
370
-3
390
13
347
21
  0
LAYER
  5
37
330
1
100
AcDbSymbolTableRecord
100
AcDbLayerTableRecord
  2
CONCRETO
 70
0
 62
7
  6
Continuous
370
-3
390
13
347
21
  0
LAYER
  5
38
330
1
100
AcDbSymbolTableRecord
100
AcDbLayerTableRecord
  2
5
 70
0
 62
7
  6
Continuous
370
-3
390
13
347
21
  0
LAYER
  5
39
330
1
100
AcDbSymbolTableRecord
100
AcDbLayerTableRecord
  2
REAPROVEITAMENTO
 70
0
 62
7
  6
Continuous
370
-3
390
13
347
21
  0
LAYER
  5
3A
330
1
100
AcDbSymbolTableRecord
100
AcDbLayerTableRecord
  2
Texto Seção
 70
0
 62
7
  6
Continuous
370
-3
390
13
347
21
  0
ENDTAB
  0
TABLE
  2
STYLE
  5
5
330
0
100
AcDbSymbolTable
 70
1
  0
STYLE
  5
29
330
5
100
AcDbSymbolTableRecord
100
AcDbTextStyleTableRecord
  2
Standard
 70
0
 40
0.0
 41
1.0
 50
0.0
 71
0
 42
2.5
  3
txt
  4

  0
ENDTAB
  0
TABLE
  2
VIEW
  5
7
330
0
100
AcDbSymbolTable
 70
0
  0
ENDTAB
  0
TABLE
  2
UCS
  5
6
330
0
100
AcDbSymbolTable
 70
0
  0
ENDTAB
  0
TABLE
  2
APPID
  5
3
330
0
100
AcDbSymbolTable
 70
3
  0
APPID
  5
2A
330
3
100
AcDbSymbolTableRecord
100
AcDbRegAppTableRecord
  2
ACAD
 70
0
  0
APPID
  5
102
330
3
100
AcDbSymbolTableRecord
100
AcDbRegAppTableRecord
  2
HATCHBACKGROUNDCOLOR
 70
0
  0
APPID
  5
103
330
3
100
AcDbSymbolTableRecord
100
AcDbRegAppTableRecord
  2
EZDXF
 70
0
  0
ENDTAB
  0
TABLE
  2
DIMSTYLE
  5
4
330
0
100
AcDbSymbolTable
 70
1
100
AcDbDimStyleTable
  0
DIMSTYLE
105
2B
330
4
100
AcDbSymbolTableRecord
100
AcDbDimStyleTableRecord
  2
Standard
 70
0
 40
1.0
 41
2.5
 42
0.625
 43
3.75
 44
1.25
 45
0.0
 46
0.0
 47
0.0
 48
0.0
 49
2.5
140
2.5
141
2.5
142
0.0
143
0.03937007874
144
1.0
145
0.0
146
1.0
147
0.625
148
0.0
 69
0
 70
0
 71
0
 72
0
 73
0
 74
0
 75
0
 76
0
 77
1
 78
8
 79
3
170
0
171
3
172
1
173
0
174
0
175
0
176
0
177
0
178
0
179
2
271
2
272
2
273
2
274
3
275
0
276
0
277
2
278
44
279
0
280
0
281
0
282
0
283
0
284
8
285
0
286
0
288
0
289
3
290
0
371
-2
372
-2
  0
ENDTAB
  0
TABLE
  2
BLOCK_RECORD
  5
9
330
0
100
AcDbSymbolTable
 70
2
  0
BLOCK_RECORD
  5
17
330
9
100
AcDbSymbolTableRecord
100
AcDbBlockTableRecord
  2
*Model_Space
340
1A
 70
0
280
1
281
0
  0
BLOCK_RECORD
  5
1B
330
9
100
AcDbSymbolTableRecord
100
AcDbBlockTableRecord
  2
*Paper_Space
340
1E
 70
0
280
1
281
0
  0
ENDTAB
  0
ENDSEC
  0
SECTION
  2
BLOCKS
  0
BLOCK
  5
18
330
17
100
AcDbEntity
  8
0
100
AcDbBlockBegin
  2
*Model_Space
 70
0
 10
0.0
 20
0.0
 30
0.0
  3
*Model_Space
  1

  0
ENDBLK
  5
19
330
17
100
AcDbEntity
  8
0
100
AcDbBlockEnd
  0
BLOCK
  5
1C
330
1B
100
AcDbEntity
  8
0
100
AcDbBlockBegin
  2
*Paper_Space
 70
0
 10
0.0
 20
0.0
 30
0.0
  3
*Paper_Space
  1

  0
ENDBLK
  5
1D
330
1B
100
AcDbEntity
  8
0
100
AcDbBlockEnd
  0
ENDSEC
  0
SECTION
  2
ENTITIES
  0
LINE
  5
3B
330
17
100
AcDbEntity
  8
Defpoints
 62
7
370
25
100
AcDbLine
 10
5085.607158363512
 20
2289.278165889816
 30
0.0
 11
5085.607158363512
 21
2414.278165889816
 31
0.0
  0
LINE
  5
3C
330
17
100
AcDbEntity
  8
SARR_2.2x7
 62
7
370
25
100
AcDbLine
 10
4883.064722351433
 20
2042.831062779301
 30
0.0
 11
5120.10986311062
 21
2042.831062779319
 31
0.0
  0
LINE
  5
3D
330
17
100
AcDbEntity
  8
SARR_2.2x7
 62
7
370
25
100
AcDbLine
 10
5120.10986311062
 20
2042.831062779319
 30
0.0
 11
5284.155003869809
 21
2042.831062779055
 31
0.0
  0
LINE
  5
3E
330
17
100
AcDbEntity
  8
Painéis
 62
7
370
25
100
AcDbLine
 10
4876.109863110617
 20
2049.831062779208
 30
0.0
 11
5291.109863110619
 21
2049.831062779233
 31
0.0
  0
LINE
  5
3F
330
17
100
AcDbEntity
  8
Painéis
 62
7
370
25
100
AcDbLine
 10
4876.10986311062
 20
2005.831062779208
 30
0.0
 11
5291.109863110619
 21
2005.831062779233
 31
0.0
  0
LINE
  5
40
330
17
100
AcDbEntity
  8
Painéis
 62
7
370
25
100
AcDbLine
 10
5291.109863110619
 20
2005.831062779233
 30
0.0
 11
5291.109863110619
 21
2049.831062779233
 31
0.0
  0
LINE
  5
41
330
17
100
AcDbEntity
  8
Painéis
 62
7
370
25
100
AcDbLine
 10
4876.10986311062
 20
2005.831062779208
 30
0.0
 11
4876.10986311062
 21
2049.831062779208
 31
0.0
  0
LINE
  5
42
330
17
100
AcDbEntity
  8
SARR_2.2x7
 62
7
370
25
100
AcDbLine
 10
4883.064722351437
 20
2005.831062779204
 30
0.0
 11
4883.064722351433
 21
2049.831062779208
 31
0.0
  0
LINE
  5
43
330
17
100
AcDbEntity
  8
SARR_2.2x7
 62
7
370
25
100
AcDbLine
 10
5284.155003869805
 20
2005.83106277923
 30
0.0
 11
5284.155003869809
 21
2049.831062779208
 31
0.0
  0
LINE
  5
44
330
17
100
AcDbEntity
  8
Painéis
 62
7
370
25
100
AcDbLine
 10
5120.10986311062
 20
2005.831062779222
 30
0.0
 11
5120.10986311062
 21
2049.831062779222
 31
0.0
  0
LINE
  5
45
330
17
100
AcDbEntity
  8
COTA
 62
7
370
25
100
AcDbLine
 10
4876.109863110617
 20
2049.831062779208
 30
0.0
 11
4876.109863110617
 21
2062.831062779208
 31
0.0
  0
LINE
  5
46
330
17
100
AcDbEntity
  8
COTA
 62
7
370
25
100
AcDbLine
 10
5291.109863110616
 20
2064.831062779208
 30
0.0
 11
5291.109863110616
 21
2049.831062779233
 31
0.0
  0
LINE
  5
47
330
17
100
AcDbEntity
  8
SARR_2.2x7
 62
7
370
25
100
AcDbLine
 10
4997.10986311062
 20
2012.831062779129
 30
0.0
 11
5120.10986311062
 21
2012.831062779119
 31
0.0
  0
LINE
  5
48
330
17
100
AcDbEntity
  8
SARR_2.2x7
 62
7
370
25
100
AcDbLine
 10
5120.10986311062
 20
2012.831062779119
 30
0.0
 11
5284.155003869809
 21
2012.831062779383
 31
0.0
  0
LINE
  5
49
330
17
100
AcDbEntity
  8
COTA
 62
7
370
25
100
AcDbLine
 10
5291.109863110616
 20
2064.831062779208
 30
0.0
 11
5072.109863110616
 21
2064.831062779208
 31
0.0
  0
LINE
  5
4A
330
17
100
AcDbEntity
  8
SARR_EDITAR
 62
7
370
25
100
AcDbLine
 10
5072.109863110616
 20
2063.831062779208
 30
0.0
 11
4876.109863110617
 21
2063.831062779208
 31
0.0
  0
LINE
  5
4B
330
17
100
AcDbEntity
  8
SARR_2.2x7
 62
7
370
25
100
AcDbLine
 10
5313.025895626861
 20
2038.831062779301
 30
0.0
 11
5341.571036386047
 21
2038.831062779319
 31
0.0
  0
LINE
  5
4C
330
17
100
AcDbEntity
  8
SARR_2.2x7
 62
7
370
25
100
AcDbLine
 10
5341.571036386047
 20
2038.831062779319
 30
0.0
 11
5370.116177145237
 21
2038.831062779055
 31
0.0
  0
LINE
  5
4D
330
17
100
AcDbEntity
  8
Painéis
 62
7
370
25
100
AcDbLine
 10
5306.071036386043
 20
2045.831062779208
 30
0.0
 11
5377.071036386047
 21
2045.831062779233
 31
0.0
  0
LINE
  5
4E
330
17
100
AcDbEntity
  8
Painéis
 62
7
370
25
100
AcDbLine
 10
5306.071036386047
 20
2005.831062779208
 30
0.0
 11
5377.071036386047
 21
2005.831062779233
 31
0.0
  0
LINE
  5
4F
330
17
100
AcDbEntity
  8
Painéis
 62
7
370
25
100
AcDbLine
 10
5377.071036386047
 20
2005.831062779233
 30
0.0
 11
5377.071036386047
 21
2045.831062779233
 31
0.0
  0
LINE
  5
50
330
17
100
AcDbEntity
  8
Painéis
 62
7
370
25
100
AcDbLine
 10
5306.071036386047
 20
2005.831062779208
 30
0.0
 11
5306.071036386047
 21
2045.831062779208
 31
0.0
  0
LINE
  5
51
330
17
100
AcDbEntity
  8
SARR_2.2x7
 62
7
370
25
100
AcDbLine
 10
5313.025895626864
 20
2005.831062779204
 30
0.0
 11
5313.025895626861
 21
2045.831062779208
 31
0.0
  0
LINE
  5
52
330
17
100
AcDbEntity
  8
SARR_2.2x7
 62
7
370
25
100
AcDbLine
 10
5370.116177145233
 20
2005.83106277923
 30
0.0
 11
5370.116177145237
 21
2045.831062779208
 31
0.0
  0
LINE
  5
53
330
17
100
AcDbEntity
  8
Painéis
 62
7
370
25
100
AcDbLine
 10
5341.571036386047
 20
2005.831062779222
 30
0.0
 11
5341.571036386047
 21
2045.831062779223
 31
0.0
  0
LINE
  5
54
330
17
100
AcDbEntity
  8
COTA
 62
7
370
25
100
AcDbLine
 10
5306.071036386043
 20
2045.831062779208
 30
0.0
 11
5306.071036386043
 21
2057.831062779208
 31
0.0
  0
LINE
  5
55
330
17
100
AcDbEntity
  8
COTA
 62
7
370
25
100
AcDbLine
 10
5377.071036386044
 20
2057.831062779208
 30
0.0
 11
5377.071036386044
 21
2045.831062779233
 31
0.0
  0
LINE
  5
56
330
17
100
AcDbEntity
  8
SARR_2.2x7
 62
7
370
25
100
AcDbLine
 10
5313.025895626861
 20
2012.831062779137
 30
0.0
 11
5341.571036386047
 21
2012.831062779119
 31
0.0
  0
LINE
  5
57
330
17
100
AcDbEntity
  8
SARR_2.2x7
 62
7
370
25
100
AcDbLine
 10
5341.571036386047
 20
2012.831062779119
 30
0.0
 11
5370.116177145237
 21
2012.831062779383
 31
0.0
  0
LINE
  5
58
330
17
100
AcDbEntity
  8
COTA
 62
7
370
25
100
AcDbLine
 10
5377.071036386044
 20
2057.831062779208
 30
0.0
 11
5306.071036386043
 21
2057.831062779208
 31
0.0
  0
LINE
  5
59
330
17
100
AcDbEntity
  8
SARR_2.2x7
 62
7
370
25
100
AcDbLine
 10
4997.10986311062
 20
2024.831062779144
 30
0.0
 11
5120.10986311062
 21
2024.831062779046
 31
0.0
  0
LINE
  5
5A
330
17
100
AcDbEntity
  8
SARR_2.2x7
 62
7
370
25
100
AcDbLine
 10
4997.10986311062
 20
2031.831062778842
 30
0.0
 11
5120.10986311062
 21
2031.831062778744
 31
0.0
  0
LINE
  5
5B
330
17
100
AcDbEntity
  8
SARR_2.2x7
 62
7
370
25
100
AcDbLine
 10
5120.10986311062
 20
2024.831062779252
 30
0.0
 11
5284.155003869805
 21
2024.831062779118
 31
0.0
  0
LINE
  5
5C
330
17
100
AcDbEntity
  8
SARR_2.2x7
 62
7
370
25
100
AcDbLine
 10
5120.10986311062
 20
2031.83106277895
 30
0.0
 11
5284.155003869805
 21
2031.831062778816
 31
0.0
  0
LINE
  5
5D
330
17
100
AcDbEntity
  8
SARR_2.2x7
 62
7
370
25
100
AcDbLine
 10
5313.025895626862
 20
2022.430480600741
 30
0.0
 11
5341.571036386045
 21
2022.430480600719
 31
0.0
  0
LINE
  5
5E
330
17
100
AcDbEntity
  8
SARR_2.2x7
 62
7
370
25
100
AcDbLine
 10
5313.025895626862
 20
2029.430480600439
 30
0.0
 11
5341.571036386045
 21
2029.430480600417
 31
0.0
  0
LINE
  5
5F
330
17
100
AcDbEntity
  8
SARR_2.2x7
 62
7
370
25
100
AcDbLine
 10
5341.571036386045
 20
2022.430480600758
 30
0.0
 11
5370.116177145231
 21
2022.430480600735
 31
0.0
  0
LINE
  5
60
330
17
100
AcDbEntity
  8
SARR_2.2x7
 62
7
370
25
100
AcDbLine
 10
5341.571036386045
 20
2029.430480600456
 30
0.0
 11
5370.116177145231
 21
2029.430480600432
 31
0.0
  0
LINE
  5
61
330
17
100
AcDbEntity
  8
SARR_2.2x7
 62
7
370
25
100
AcDbLine
 10
4997.10986311062
 20
2031.831062778842
 30
0.0
 11
4997.10986311062
 21
2024.831062779145
 31
0.0
  0
LINE
  5
62
330
17
100
AcDbEntity
  8
SARR_2.2x7
 62
7
370
25
100
AcDbLine
 10
4997.10986311062
 20
2012.831062779128
 30
0.0
 11
4997.10986311062
 21
2005.831062779217
 31
0.0
  0
LINE
  5
63
330
17
100
AcDbEntity
  8
SARR_2.2x7
 62
7
370
25
100
AcDbLine
 10
4852.934001233478
 20
1813.501729517739
 30
0.0
 11
5089.97914199266
 21
1813.501729517757
 31
0.0
  0
LINE
  5
64
330
17
100
AcDbEntity
  8
SARR_2.2x7
 62
7
370
25
100
AcDbLine
 10
5089.97914199266
 20
1813.501729517757
 30
0.0
 11
5300.979141992661
 21
1813.501729517485
 31
0.0
  0
LINE
  5
65
330
17
100
AcDbEntity
  8
Painéis
 62
7
370
25
100
AcDbLine
 10
4845.97914199266
 20
1820.501729517647
 30
0.0
 11
5300.979141992661
 21
1820.501729517672
 31
0.0
  0
LINE
  5
66
330
17
100
AcDbEntity
  8
Painéis
 62
7
370
25
100
AcDbLine
 10
4845.979141992664
 20
1775.501729517647
 30
0.0
 11
5300.979141992664
 21
1775.501729517672
 31
0.0
  0
LINE
  5
67
330
17
100
AcDbEntity
  8
Painéis
 62
7
370
25
100
AcDbLine
 10
5300.979141992664
 20
1775.501729517672
 30
0.0
 11
5300.979141992661
 21
1820.501729517672
 31
0.0
  0
LINE
  5
68
330
17
100
AcDbEntity
  8
Painéis
 62
7
370
25
100
AcDbLine
 10
4845.979141992664
 20
1775.501729517647
 30
0.0
 11
4845.97914199266
 21
1820.501729517647
 31
0.0
  0
LINE
  5
69
330
17
100
AcDbEntity
  8
SARR_2.2x7
 62
7
370
25
100
AcDbLine
 10
4852.934001233478
 20
1775.501729517643
 30
0.0
 11
4852.934001233478
 21
1820.501729517647
 31
0.0
  0
LINE
  5
6A
330
17
100
AcDbEntity
  8
Painéis
 62
7
370
25
100
AcDbLine
 10
5089.979141992664
 20
1775.501729517661
 30
0.0
 11
5089.97914199266
 21
1820.501729517661
 31
0.0
  0
LINE
  5
6B
330
17
100
AcDbEntity
  8
COTA
 62
7
370
25
100
AcDbLine
 10
4845.97914199266
 20
1820.501729517647
 30
0.0
 11
4845.97914199266
 21
1834.501729517647
 31
0.0
  0
LINE
  5
6C
330
17
100
AcDbEntity
  8
COTA
 62
7
370
25
100
AcDbLine
 10
5300.979141992661
 20
1834.501729517647
 30
0.0
 11
5300.979141992661
 21
1820.501729517672
 31
0.0
  0
LINE
  5
6D
330
17
100
AcDbEntity
  8
SARR_2.2x7
 62
7
370
25
100
AcDbLine
 10
4852.934001233478
 20
1782.501729517576
 30
0.0
 11
5089.97914199266
 21
1782.501729517558
 31
0.0
  0
LINE
  5
6E
330
17
100
AcDbEntity
  8
SARR_2.2x7
 62
7
370
25
100
AcDbLine
 10
5089.97914199266
 20
1782.501729517558
 30
0.0
 11
5224.979141992661
 21
1782.501729517732
 31
0.0
  0
LINE
  5
6F
330
17
100
AcDbEntity
  8
COTA
 62
7
370
25
100
AcDbLine
 10
5300.979141992661
 20
1834.501729517647
 30
0.0
 11
4845.97914199266
 21
1834.501729517647
 31
0.0
  0
LINE
  5
70
330
17
100
AcDbEntity
  8
SARR_2.2x7
 62
7
370
25
100
AcDbLine
 10
5329.33510022806
 20
1813.501729517743
 30
0.0
 11
5364.425381746432
 21
1813.501729517778
 31
0.0
  0
LINE
  5
71
330
17
100
AcDbEntity
  8
Painéis
 62
7
370
25
100
AcDbLine
 10
5322.380240987243
 20
1820.50172951765
 30
0.0
 11
5371.380240987242
 21
1820.501729517676
 31
0.0
  0
LINE
  5
72
330
17
100
AcDbEntity
  8
Painéis
 62
7
370
25
100
AcDbLine
 10
5322.38024098725
 20
1775.50172951765
 30
0.0
 11
5371.380240987249
 21
1775.501729517676
 31
0.0
  0
LINE
  5
73
330
17
100
AcDbEntity
  8
Painéis
 62
7
370
25
100
AcDbLine
 10
5371.380240987249
 20
1775.501729517676
 30
0.0
 11
5371.380240987242
 21
1820.501729517676
 31
0.0
  0
LINE
  5
74
330
17
100
AcDbEntity
  8
Painéis
 62
7
370
25
100
AcDbLine
 10
5322.38024098725
 20
1775.50172951765
 30
0.0
 11
5322.380240987243
 21
1820.50172951765
 31
0.0
  0
LINE
  5
75
330
17
100
AcDbEntity
  8
SARR_2.2x7
 62
7
370
25
100
AcDbLine
 10
5329.335100228064
 20
1775.501729517647
 30
0.0
 11
5329.33510022806
 21
1820.50172951765
 31
0.0
  0
LINE
  5
76
330
17
100
AcDbEntity
  8
SARR_2.2x7
 62
7
370
25
100
AcDbLine
 10
5364.425381746432
 20
1775.501729517672
 30
0.0
 11
5364.425381746436
 21
1820.50172951765
 31
0.0
  0
LINE
  5
77
330
17
100
AcDbEntity
  8
COTA
 62
7
370
25
100
AcDbLine
 10
5322.380240987243
 20
1820.50172951765
 30
0.0
 11
5322.380240987243
 21
1834.50172951765
 31
0.0
  0
LINE
  5
78
330
17
100
AcDbEntity
  8
COTA
 62
7
370
25
100
AcDbLine
 10
5371.380240987242
 20
1834.50172951765
 30
0.0
 11
5371.380240987242
 21
1820.501729517676
 31
0.0
  0
LINE
  5
79
330
17
100
AcDbEntity
  8
SARR_2.2x7
 62
7
370
25
100
AcDbLine
 10
5329.33510022806
 20
1782.501729517579
 30
0.0
 11
5364.425381746432
 21
1782.501729517543
 31
0.0
  0
LINE
  5
7A
330
17
100
AcDbEntity
  8
COTA
 62
7
370
25
100
AcDbLine
 10
5371.380240987242
 20
1834.50172951765
 30
0.0
 11
5322.380240987243
 21
1834.50172951765
 31
0.0
  0
LINE
  5
7B
330
17
100
AcDbEntity
  8
SARR_2.2x7
 62
7
370
25
100
AcDbLine
 10
4852.934001233478
 20
1794.501729517674
 30
0.0
 11
5089.97914199266
 21
1794.501729517485
 31
0.0
  0
LINE
  5
7C
330
17
100
AcDbEntity
  8
SARR_2.2x7
 62
7
370
25
100
AcDbLine
 10
4852.934001233478
 20
1801.501729517372
 30
0.0
 11
5089.97914199266
 21
1801.501729517183
 31
0.0
  0
LINE
  5
7D
330
17
100
AcDbEntity
  8
SARR_2.2x7
 62
7
370
25
100
AcDbLine
 10
5089.97914199266
 20
1794.501729517485
 30
0.0
 11
5224.979141992661
 21
1794.501729517377
 31
0.0
  0
LINE
  5
7E
330
17
100
AcDbEntity
  8
SARR_2.2x7
 62
7
370
25
100
AcDbLine
 10
5089.97914199266
 20
1801.501729517183
 30
0.0
 11
5224.979141992664
 21
1801.501729517075
 31
0.0
  0
LINE
  5
7F
330
17
100
AcDbEntity
  8
SARR_2.2x7
 62
7
370
25
100
AcDbLine
 10
5329.33510022806
 20
1794.501729517677
 30
0.0
 11
5364.425381746432
 21
1794.50172951765
 31
0.0
  0
LINE
  5
80
330
17
100
AcDbEntity
  8
SARR_2.2x7
 62
7
370
25
100
AcDbLine
 10
5329.33510022806
 20
1801.501729517375
 30
0.0
 11
5364.425381746432
 21
1801.501729517347
 31
0.0
  0
LINE
  5
81
330
17
100
AcDbEntity
  8
SARR_2.2x7
 62
7
370
25
100
AcDbLine
 10
5224.979141992661
 20
1775.725605588925
 30
0.0
 11
5224.979141992661
 21
1782.501729517732
 31
0.0
  0
LINE
  5
82
330
17
100
AcDbEntity
  8
SARR_2.2x7
 62
7
370
25
100
AcDbLine
 10
5224.979141992661
 20
1794.501729517376
 30
0.0
 11
5224.979141992664
 21
1801.501729517075
 31
0.0
  0
LINE
  5
83
330
17
100
AcDbEntity
  8
SARR_2.2x7
 62
7
370
25
100
AcDbLine
 10
5377.071036386044
 20
2061.331062779178
 30
0.0
 11
5306.071036386043
 21
2061.331062779185
 31
0.0
  0
LINE
  5
84
330
17
100
AcDbEntity
  8
Defpoints
 62
7
370
25
100
AcDbLine
 10
5748.074603356072
 20
2289.278165889808
 30
0.0
 11
5748.074603356072
 21
2414.278165889808
 31
0.0
  0
LINE
  5
85
330
17
100
AcDbEntity
  8
COTA
 62
7
370
25
100
AcDbLine
 10
5575.222457695718
 20
2061.780643356927
 30
0.0
 11
5575.222457695718
 21
2075.780643356927
 31
0.0
  0
LINE
  5
86
330
17
100
AcDbEntity
  8
COTA
 62
7
370
25
100
AcDbLine
 10
5575.222457695718
 20
2075.780643356927
 30
0.0
 11
6030.222457695724
 21
2075.780643356927
 31
0.0
  0
LINE
  5
87
330
17
100
AcDbEntity
  8
COTA
 62
7
370
25
100
AcDbLine
 10
6030.222457695724
 20
2061.780643356927
 30
0.0
 11
6030.222457695724
 21
2075.780643356927
 31
0.0
  0
LINE
  5
88
330
17
100
AcDbEntity
  8
Painéis
 62
7
370
25
100
AcDbLine
 10
5575.222457695718
 20
2061.780643356927
 30
0.0
 11
6030.222457695724
 21
2061.780643356927
 31
0.0
  0
LINE
  5
89
330
17
100
AcDbEntity
  8
Painéis
 62
7
370
25
100
AcDbLine
 10
5575.222457695718
 20
2021.780643356927
 30
0.0
 11
6030.222457695724
 21
2021.780643356927
 31
0.0
  0
LINE
  5
8A
330
17
100
AcDbEntity
  8
Painéis
 62
7
370
25
100
AcDbLine
 10
5575.222457695718
 20
2021.780643356927
 30
0.0
 11
5575.222457695718
 21
2061.780643356927
 31
0.0
  0
LINE
  5
8B
330
17
100
AcDbEntity
  8
Painéis
 62
7
370
25
100
AcDbLine
 10
5786.222457695723
 20
2021.780643356927
 30
0.0
 11
5786.222457695723
 21
2061.780643356927
 31
0.0
  0
LINE
  5
8C
330
17
100
AcDbEntity
  8
Painéis
 62
7
370
25
100
AcDbLine
 10
6030.222457695724
 20
2021.780643356927
 30
0.0
 11
6030.222457695724
 21
2061.780643356927
 31
0.0
  0
LINE
  5
8D
330
17
100
AcDbEntity
  8
Painéis
 62
7
370
25
100
AcDbLine
 10
5575.222457695718
 20
1858.234901811153
 30
0.0
 11
5835.222457695723
 21
1858.234901811153
 31
0.0
  0
LINE
  5
8E
330
17
100
AcDbEntity
  8
Painéis
 62
7
370
25
100
AcDbLine
 10
5575.222457695718
 20
1804.234901811154
 30
0.0
 11
5835.222457695723
 21
1804.234901811154
 31
0.0
  0
LINE
  5
8F
330
17
100
AcDbEntity
  8
Painéis
 62
7
370
25
100
AcDbLine
 10
5575.222457695718
 20
1804.234901811154
 30
0.0
 11
5575.222457695718
 21
1858.234901811153
 31
0.0
  0
LINE
  5
90
330
17
100
AcDbEntity
  8
Painéis
 62
7
370
25
100
AcDbLine
 10
5713.222457695724
 20
1804.234901811154
 30
0.0
 11
5713.222457695724
 21
1858.234901811153
 31
0.0
  0
LINE
  5
91
330
17
100
AcDbEntity
  8
Painéis
 62
7
370
25
100
AcDbLine
 10
5835.222457695723
 20
1804.234901811154
 30
0.0
 11
5835.222457695723
 21
1858.234901811153
 31
0.0
  0
LINE
  5
92
330
17
100
AcDbEntity
  8
SARR_2.2x7
 62
7
370
25
100
AcDbLine
 10
5582.222457695714
 20
2021.780643356927
 30
0.0
 11
5582.222457695714
 21
2061.780643356927
 31
0.0
  0
LINE
  5
93
330
17
100
AcDbEntity
  8
SARR_2.2x7
 62
7
370
25
100
AcDbLine
 10
5582.222457695714
 20
1804.234901811154
 30
0.0
 11
5582.222457695718
 21
1858.234901811153
 31
0.0
  0
LINE
  5
94
330
17
100
AcDbEntity
  8
SARR_2.2x7
 62
7
370
25
100
AcDbLine
 10
6023.222457695723
 20
2021.780643356927
 30
0.0
 11
6023.222457695723
 21
2061.780643356927
 31
0.0
  0
LINE
  5
95
330
17
100
AcDbEntity
  8
SARR_2.2x7
 62
7
370
25
100
AcDbLine
 10
5828.222457695723
 20
1804.234901811152
 30
0.0
 11
5828.222457695723
 21
1858.234901811153
 31
0.0
  0
LINE
  5
96
330
17
100
AcDbEntity
  8
SARR_2.2x7
 62
7
370
25
100
AcDbLine
 10
5582.222457695714
 20
2054.780643356927
 30
0.0
 11
6023.222457695723
 21
2054.780643356927
 31
0.0
  0
LINE
  5
97
330
17
100
AcDbEntity
  8
SARR_2.2x7
 62
7
370
25
100
AcDbLine
 10
5582.222457695714
 20
2028.780643356927
 30
0.0
 11
6023.222457695723
 21
2028.780643356927
 31
0.0
  0
LINE
  5
98
330
17
100
AcDbEntity
  8
SARR_2.2x7
 62
7
370
25
100
AcDbLine
 10
5582.222457695718
 20
1851.234901811246
 30
0.0
 11
5713.222457695724
 21
1851.234901811256
 31
0.0
  0
LINE
  5
99
330
17
100
AcDbEntity
  8
SARR_2.2x7
 62
7
370
25
100
AcDbLine
 10
5582.222457695696
 20
1828.0167772947
 30
0.0
 11
5713.222457695724
 21
1828.01677729471
 31
0.0
  0
LINE
  5
9A
330
17
100
AcDbEntity
  8
SARR_2.2x7
 62
7
370
25
100
AcDbLine
 10
5582.222457695722
 20
1835.016777294398
 30
0.0
 11
5713.222457695724
 21
1835.016777294413
 31
0.0
  0
LINE
  5
9B
330
17
100
AcDbEntity
  8
SARR_2.2x7
 62
7
370
25
100
AcDbLine
 10
5582.222457695718
 20
1811.234901811061
 30
0.0
 11
5713.222457695724
 21
1811.23490181105
 31
0.0
  0
LINE
  5
9C
330
17
100
AcDbEntity
  8
SARR_2.2x7
 62
7
370
25
100
AcDbLine
 10
5713.222457695724
 20
1851.234901811241
 30
0.0
 11
5828.222457695723
 21
1851.234901811251
 31
0.0
  0
LINE
  5
9D
330
17
100
AcDbEntity
  8
SARR_2.2x7
 62
7
370
25
100
AcDbLine
 10
5713.222457695724
 20
1828.016777294694
 30
0.0
 11
5828.222457695723
 21
1828.016777294704
 31
0.0
  0
LINE
  5
9E
330
17
100
AcDbEntity
  8
SARR_2.2x7
 62
7
370
25
100
AcDbLine
 10
5713.222457695724
 20
1835.01677729439
 30
0.0
 11
5828.222457695723
 21
1835.016777294404
 31
0.0
  0
LINE
  5
9F
330
17
100
AcDbEntity
  8
SARR_2.2x7
 62
7
370
25
100
AcDbLine
 10
5713.222457695724
 20
1811.234901811068
 30
0.0
 11
5828.222457695723
 21
1811.234901811058
 31
0.0
  0
LINE
  5
A0
330
17
100
AcDbEntity
  8
SARR_2.2x7
 62
7
370
25
100
AcDbLine
 10
5582.222457695714
 20
2038.280643356956
 30
0.0
 11
5786.222457695723
 21
2038.280643356793
 31
0.0
  0
LINE
  5
A1
330
17
100
AcDbEntity
  8
SARR_2.2x7
 62
7
370
25
100
AcDbLine
 10
5582.222457695714
 20
2045.280643356654
 30
0.0
 11
5786.222457695723
 21
2045.280643356491
 31
0.0
  0
LINE
  5
A2
330
17
100
AcDbEntity
  8
SARR_2.2x7
 62
7
370
25
100
AcDbLine
 10
5786.222457695723
 20
2038.280643356956
 30
0.0
 11
6023.222457695723
 21
2038.280643356767
 31
0.0
  0
LINE
  5
A3
330
17
100
AcDbEntity
  8
SARR_2.2x7
 62
7
370
25
100
AcDbLine
 10
5786.222457695723
 20
2045.280643356654
 30
0.0
 11
6023.222457695723
 21
2045.280643356464
 31
0.0
  0
LINE
  5
A4
330
17
100
AcDbEntity
  8
COTA
 62
7
370
25
100
AcDbLine
 10
5493.146596132696
 20
2414.278165889812
 30
0.0
 11
5493.146596132696
 21
1643.521679300708
 31
0.0
  0
LWPOLYLINE
  5
A5
330
17
100
AcDbEntity
  8
Painéis
 62
7
370
25
100
AcDbPolyline
 90
4
 70
1
 10
4876.109863110617
 20
2064.831062779208
 10
5072.109863110616
 20
2064.831062779208
 10
5072.109863110616
 20
2062.831062779208
 10
4876.109863110617
 20
2062.831062779208
  0
LWPOLYLINE
  5
A6
330
17
100
AcDbEntity
  8
Painéis
 62
7
370
25
100
AcDbPolyline
 90
4
 70
1
 10
5060.407158363513
 20
2261.278165889794
 10
5064.407158363514
 20
2261.278165889794
 10
5064.407158363514
 20
2171.278165889816
 10
5060.407158363513
 20
2171.278165889816
  0
LWPOLYLINE
  5
A7
330
17
100
AcDbEntity
  8
Madeira
 62
7
370
25
100
AcDbPolyline
 90
4
 70
1
 10
5102.407158363514
 20
2171.278165889816
 10
5102.407158363514
 20
2175.67816588981
 10
5088.407158363514
 20
2175.67816588981
 10
5088.407158363514
 20
2171.278165889816
  0
LWPOLYLINE
  5
A8
330
17
100
AcDbEntity
  8
Painéis
 62
7
370
25
100
AcDbPolyline
 90
4
 70
1
 10
5102.407158363514
 20
2175.67816588981
 10
5102.407158363514
 20
2179.278165889816
 10
5064.407158363514
 20
2179.278165889816
 10
5064.407158363514
 20
2175.67816588981
  0
LWPOLYLINE
  5
A9
330
17
100
AcDbEntity
  8
Madeira
 62
7
370
25
100
AcDbPolyline
 90
4
 70
1
 10
5064.407158363514
 20
2171.278165889816
 10
5064.407158363514
 20
2175.67816588981
 10
5078.407158363514
 20
2175.67816588981
 10
5078.407158363514
 20
2171.278165889816
  0
LWPOLYLINE
  5
AA
330
17
100
AcDbEntity
  8
Painéis
 62
7
370
25
100
AcDbPolyline
 90
4
 70
1
 10
5106.407158363514
 20
2261.278165889794
 10
5102.407158363514
 20
2261.278165889794
 10
5102.407158363514
 20
2171.278165889816
 10
5106.407158363514
 20
2171.278165889816
  0
LWPOLYLINE
  5
AB
330
17
100
AcDbEntity
  8
Painéis
 62
7
370
25
100
AcDbPolyline
 90
4
 70
1
 10
5162.407158363485
 20
2261.278165889794
 10
5162.407158363485
 20
2265.278165889794
 10
5102.407158363514
 20
2265.278165889794
 10
5102.407158363514
 20
2261.278165889794
  0
LWPOLYLINE
  5
AC
330
17
100
AcDbEntity
  8
Painéis
 62
7
370
25
100
AcDbPolyline
 90
4
 70
1
 10
5064.407158363514
 20
2261.278165889794
 10
5064.407158363514
 20
2265.278165889794
 10
5008.807158363538
 20
2265.278165889787
 10
5008.807158363538
 20
2261.278165889787
  0
LWPOLYLINE
  5
AD
330
17
100
AcDbEntity
  8
CONCRETO
 62
7
370
25
100
AcDbPolyline
 90
8
 70
1
 10
5008.807158363538
 20
2265.278165889787
 10
5008.807158363538
 20
2289.278165889816
 10
5162.407158363485
 20
2289.278165889816
 10
5162.407158363485
 20
2265.278165889801
 10
5102.407158363514
 20
2265.278165889801
 10
5102.407158363456
 20
2179.278165889816
 10
5064.407158363514
 20
2179.278165889816
 10
5064.407158363514
 20
2265.278165889794
  0
LWPOLYLINE
  5
AE
330
17
100
AcDbEntity
  8
Madeira
 62
7
370
25
100
AcDbPolyline
 90
4
 70
1
 10
5056.00715836352
 20
2247.278165889794
 10
5060.407158363513
 20
2247.278165889794
 10
5060.407158363513
 20
2261.278165889794
 10
5056.00715836352
 20
2261.278165889794
  0
LWPOLYLINE
  5
AF
330
17
100
AcDbEntity
  8
Madeira
 62
7
370
25
100
AcDbPolyline
 90
4
 70
1
 10
5056.00715836352
 20
2171.278165889816
 10
5060.407158363513
 20
2171.278165889816
 10
5060.407158363513
 20
2185.278165889815
 10
5056.00715836352
 20
2185.278165889815
  0
LWPOLYLINE
  5
B0
330
17
100
AcDbEntity
  8
Madeira
 62
7
370
25
100
AcDbPolyline
 90
4
 70
1
 10
5110.807158363508
 20
2247.278165889794
 10
5106.407158363514
 20
2247.278165889794
 10
5106.407158363514
 20
2261.278165889794
 10
5110.807158363508
 20
2261.278165889794
  0
LWPOLYLINE
  5
B1
330
17
100
AcDbEntity
  8
Madeira
 62
7
370
25
100
AcDbPolyline
 90
4
 70
1
 10
5110.807158363508
 20
2171.278165889816
 10
5106.407158363514
 20
2171.278165889816
 10
5106.407158363514
 20
2185.278165889815
 10
5110.807158363508
 20
2185.278165889815
  0
LWPOLYLINE
  5
B2
330
17
100
AcDbEntity
  8
Madeira
 62
7
370
25
100
AcDbPolyline
 90
4
 70
1
 10
5056.00715836352
 20
2208.278165889805
 10
5060.407158363513
 20
2208.278165889805
 10
5060.407158363513
 20
2222.278165889805
 10
5056.00715836352
 20
2222.278165889805
  0
LWPOLYLINE
  5
B3
330
17
100
AcDbEntity
  8
Madeira
 62
7
370
25
100
AcDbPolyline
 90
4
 70
1
 10
5110.807158363508
 20
2208.278165889805
 10
5106.407158363514
 20
2208.278165889805
 10
5106.407158363514
 20
2222.278165889805
 10
5110.807158363508
 20
2222.278165889805
  0
LWPOLYLINE
  5
B4
330
17
100
AcDbEntity
  8
SARR_3.5x7
 62
7
370
25
100
AcDbPolyline
 90
4
 70
1
 10
5042.007158363454
 20
2255.278165889794
 10
5056.007158363454
 20
2255.278165889794
 10
5056.007158363581
 20
2094.799952484009
 10
5042.007158363581
 20
2094.799952484009
  0
LWPOLYLINE
  5
B5
330
17
100
AcDbEntity
  8
SARR_3.5x7
 62
7
370
25
100
AcDbPolyline
 90
4
 70
1
 10
5124.807158363741
 20
2255.278165889796
 10
5110.807158363741
 20
2255.278165889796
 10
5110.807158363595
 20
2094.799952484009
 10
5124.807158363595
 20
2094.799952484009
  0
LWPOLYLINE
  5
B6
330
17
100
AcDbEntity
  8
SARR_3.5x7
 62
7
370
25
100
AcDbPolyline
 90
4
 70
1
 10
5042.00715836344
 20
2171.278165889816
 10
5124.807158363643
 20
2171.278165889814
 10
5124.807158363643
 20
2141.220104285815
 10
5042.00715836344
 20
2141.220104285817
  0
LWPOLYLINE
  5
B7
330
17
100
AcDbEntity
  8
Painéis
 62
7
370
25
100
AcDbPolyline
 90
4
 70
1
 10
5377.071036386044
 20
2057.831062779208
 10
5306.071036386043
 20
2057.831062779186
 10
5306.071036386043
 20
2064.831062779186
 10
5377.071036386044
 20
2064.831062779208
  0
LWPOLYLINE
  5
B8
330
17
100
AcDbEntity
  8
Painéis
 62
7
370
25
100
AcDbPolyline
 90
4
 70
1
 10
5725.074603356042
 20
2259.278165889787
 10
5729.074603356043
 20
2259.278165889787
 10
5729.074603356043
 20
2181.278165889809
 10
5725.074603356042
 20
2181.278165889809
  0
LWPOLYLINE
  5
B9
330
17
100
AcDbEntity
  8
Madeira
 62
7
370
25
100
AcDbPolyline
 90
4
 70
1
 10
5767.074603356043
 20
2181.278165889809
 10
5767.074603356043
 20
2185.678165889803
 10
5757.074603356042
 20
2185.678165889803
 10
5757.074603356042
 20
2181.278165889809
  0
LWPOLYLINE
  5
BA
330
17
100
AcDbEntity
  8
Painéis
 62
7
370
25
100
AcDbPolyline
 90
4
 70
1
 10
5767.074603356043
 20
2185.678165889803
 10
5767.074603356043
 20
2189.278165889808
 10
5729.074603356043
 20
2189.278165889808
 10
5729.074603356043
 20
2185.678165889803
  0
LWPOLYLINE
  5
BB
330
17
100
AcDbEntity
  8
Madeira
 62
7
370
25
100
AcDbPolyline
 90
4
 70
1
 10
5729.074603356043
 20
2181.278165889809
 10
5729.074603356043
 20
2185.678165889803
 10
5739.074603356042
 20
2185.678165889803
 10
5739.074603356042
 20
2181.278165889809
  0
LWPOLYLINE
  5
BC
330
17
100
AcDbEntity
  8
Painéis
 62
7
370
25
100
AcDbPolyline
 90
4
 70
1
 10
5771.07460335605
 20
2289.278165889808
 10
5767.07460335605
 20
2289.278165889808
 10
5767.074603356043
 20
2181.278165889809
 10
5771.074603356042
 20
2181.278165889809
  0
LWPOLYLINE
  5
BD
330
17
100
AcDbEntity
  8
Painéis
 62
7
370
25
100
AcDbPolyline
 90
4
 70
1
 10
5729.074603356043
 20
2259.278165889787
 10
5729.074603356043
 20
2263.278165889786
 10
5673.474603356066
 20
2263.278165889779
 10
5673.474603356066
 20
2259.278165889779
  0
LWPOLYLINE
  5
BE
330
17
100
AcDbEntity
  8
CONCRETO
 62
7
370
25
100
AcDbPolyline
 90
8
 70
1
 10
5673.474603356066
 20
2263.278165889779
 10
5673.474603356066
 20
2289.278165889808
 10
5729.074603356043
 20
2289.278165889808
 10
5729.074603356043
 20
2289.278165889808
 10
5767.074603355984
 20
2289.278165889808
 10
5767.074603355984
 20
2189.278165889808
 10
5729.074603356043
 20
2189.278165889808
 10
5729.074603356043
 20
2263.278165889786
  0
LWPOLYLINE
  5
BF
330
17
100
AcDbEntity
  8
Madeira
 62
7
370
25
100
AcDbPolyline
 90
4
 70
1
 10
5720.674603356048
 20
2245.278165889787
 10
5725.074603356042
 20
2245.278165889787
 10
5725.074603356042
 20
2259.278165889787
 10
5720.674603356048
 20
2259.278165889787
  0
LWPOLYLINE
  5
C0
330
17
100
AcDbEntity
  8
Madeira
 62
7
370
25
100
AcDbPolyline
 90
4
 70
1
 10
5771.07460335605
 20
2275.278165889808
 10
5775.474603356045
 20
2275.278165889808
 10
5775.474603356045
 20
2289.278165889808
 10
5771.07460335605
 20
2289.278165889808
  0
LWPOLYLINE
  5
C1
330
17
100
AcDbEntity
  8
Madeira
 62
7
370
25
100
AcDbPolyline
 90
4
 70
1
 10
5771.074603356042
 20
2223.740851208039
 10
5775.474603356037
 20
2223.740851208039
 10
5775.474603356037
 20
2237.740851208039
 10
5771.074603356042
 20
2237.740851208039
  0
LWPOLYLINE
  5
C2
330
17
100
AcDbEntity
  8
Madeira
 62
7
370
25
100
AcDbPolyline
 90
4
 70
1
 10
5771.074603356042
 20
2181.278165889809
 10
5775.474603356037
 20
2181.278165889809
 10
5775.474603356037
 20
2195.278165889809
 10
5771.074603356042
 20
2195.278165889809
  0
LWPOLYLINE
  5
C3
330
17
100
AcDbEntity
  8
Madeira
 62
7
370
25
100
AcDbPolyline
 90
4
 70
1
 10
5720.674603356048
 20
2181.278165889809
 10
5725.074603356042
 20
2181.278165889809
 10
5725.074603356042
 20
2195.278165889809
 10
5720.674603356048
 20
2195.278165889809
  0
LWPOLYLINE
  5
C4
330
17
100
AcDbEntity
  8
SARR_3.5x7
 62
7
370
25
100
AcDbPolyline
 90
4
 70
1
 10
5706.674603355983
 20
2253.278165889784
 10
5720.674603355983
 20
2253.278165889784
 10
5720.674603356107
 20
2104.799952484003
 10
5706.674603356106
 20
2104.799952484003
  0
LWPOLYLINE
  5
C5
330
17
100
AcDbEntity
  8
SARR_3.5x7
 62
7
370
25
100
AcDbPolyline
 90
4
 70
1
 10
5789.47460335627
 20
2283.278165889809
 10
5775.474603356269
 20
2283.278165889809
 10
5775.474603356124
 20
2104.799952484003
 10
5789.474603356124
 20
2104.799952484003
  0
LWPOLYLINE
  5
C6
330
17
100
AcDbEntity
  8
SARR_3.5x7
 62
7
370
25
100
AcDbPolyline
 90
4
 70
1
 10
5706.674603355969
 20
2181.278165889809
 10
5789.474603356168
 20
2181.278165889807
 10
5789.474603356168
 20
2151.220104285808
 10
5706.674603355969
 20
2151.22010428581
  0
TEXT
  5
C7
330
17
100
AcDbEntity
  8
5
 62
7
370
25
100
AcDbText
 10
4876.005776786604
 20
1928.786198603206
 30
0.0
 40
12.0
  1
P24
100
AcDbText
  0
TEXT
  5
C8
330
17
100
AcDbEntity
  8
5
 62
7
370
25
100
AcDbText
 10
5263.966734243057
 20
1922.879676853309
 30
0.0
 40
12.0
  1
V407
100
AcDbText
  0
TEXT
  5
C9
330
17
100
AcDbEntity
  8
Texto Seção
 62
7
370
25
100
AcDbText
 10
4879.139288419503
 20
2091.810694726329
 30
0.0
 40
13.0
  1
V419.A
100
AcDbText
  0
TEXT
  5
CA
330
17
100
AcDbEntity
  8
5
 62
7
370
25
100
AcDbText
 10
5341.841208217743
 20
1924.027653911837
 30
0.0
 40
12.0
  1
P33
100
AcDbText
  0
TEXT
  5
CB
330
17
100
AcDbEntity
  8
detalhes
 62
7
370
25
100
AcDbText
 10
5111.121641539551
 20
2189.467837419098
 30
0.0
 40
9.600000000000001
  1
b
100
AcDbText
  0
TEXT
  5
CC
330
17
100
AcDbEntity
  8
detalhes
 62
7
370
25
100
AcDbText
 10
5048.577982893815
 20
2189.478894864674
 30
0.0
 40
9.600000000000001
  1
a
100
AcDbText
  0
TEXT
  5
CD
330
17
100
AcDbEntity
  8
detalhes
 62
7
370
25
100
AcDbText
 10
5075.007423978959
 20
2181.513919409654
 30
0.0
 40
9.600000000000001
  1
c
100
AcDbText
  0
TEXT
  5
CE
330
17
100
AcDbEntity
  8
5
 62
7
370
25
100
AcDbText
 10
4845.587990871621
 20
1704.159020306065
 30
0.0
 40
12.0
  1
P33
100
AcDbText
  0
TEXT
  5
CF
330
17
100
AcDbEntity
  8
5
 62
7
370
25
100
AcDbText
 10
5290.365793907952
 20
1702.78728971046
 30
0.0
 40
12.0
  1
V404
100
AcDbText
  0
TEXT
  5
D0
330
17
100
AcDbEntity
  8
Texto Seção
 62
7
370
25
100
AcDbText
 10
4849.008567301547
 20
1839.235566187645
 30
0.0
 40
13.0
  1
V419.B
100
AcDbText
  0
TEXT
  5
D1
330
17
100
AcDbEntity
  8
5
 62
7
370
25
100
AcDbText
 10
5352.898183166565
 20
1702.474767698319
 30
0.0
 40
12.0
  1
V403
100
AcDbText
  0
TEXT
  5
D2
330
17
100
AcDbEntity
  8
Texto Seção
 62
7
370
25
100
AcDbText
 10
5578.222457695688
 20
2084.967018777904
 30
0.0
 40
13.0
  1
V421.A
100
AcDbText
  0
TEXT
  5
D3
330
17
100
AcDbEntity
  8
5
 62
7
370
25
100
AcDbText
 10
5576.264322150973
 20
1933.687048147788
 30
0.0
 40
12.0
  1
V404
100
AcDbText
  0
TEXT
  5
D4
330
17
100
AcDbEntity
  8
5
 62
7
370
25
100
AcDbText
 10
5986.77118973292
 20
1935.732302533418
 30
0.0
 40
12.0
  1
V408
100
AcDbText
  0
TEXT
  5
D5
330
17
100
AcDbEntity
  8
5
 62
7
370
25
100
AcDbText
 10
5576.264322150973
 20
1721.141306602015
 30
0.0
 40
12.0
  1
V408
100
AcDbText
  0
TEXT
  5
D6
330
17
100
AcDbEntity
  8
5
 62
7
370
25
100
AcDbText
 10
5811.576963750718
 20
1721.141306602015
 30
0.0
 40
12.0
  1
P26
100
AcDbText
  0
TEXT
  5
D7
330
17
100
AcDbEntity
  8
Texto Seção
 62
7
370
25
100
AcDbText
 10
5578.222457695688
 20
1867.42127723213
 30
0.0
 40
13.0
  1
V421.B
100
AcDbText
  0
TEXT
  5
D8
330
17
100
AcDbEntity
  8
detalhes
 62
7
370
25
100
AcDbText
 10
5780.770222900152
 20
2239.501148865187
 30
0.0
 40
9.600000000000001
  1
b
100
AcDbText
  0
TEXT
  5
D9
330
17
100
AcDbEntity
  8
detalhes
 62
7
370
25
100
AcDbText
 10
5714.819509369954
 20
2210.962182614562
 30
0.0
 40
9.600000000000001
  1
a
100
AcDbText
  0
TEXT
  5
DA
330
17
100
AcDbEntity
  8
detalhes
 62
7
370
25
100
AcDbText
 10
5749.674868971488
 20
2191.513919409647
 30
0.0
 40
9.600000000000001
  1
c
100
AcDbText
  0
HATCH
  5
DB
330
17
100
AcDbEntity
  8
COTA
 62
7
100
AcDbHatch
 10
0.0
 20
0.0
 30
0.0
210
0.0
220
0.0
230
1.0
  2
SOLID
 70
1
 71
0
 91
1
 92
3
 72
0
 73
1
 93
12
 10
5072.109863110616
 20
2062.831062779208
 10
4876.109863110617
 20
2062.831062779208
 10
4876.109863110617
 20
2062.831062779208
 10
4876.109863110617
 20
2049.831062779206
 10
4876.109863110617
 20
2049.831062779206
 10
5291.109863110616
 20
2049.831062779235
 10
5291.109863110616
 20
2049.831062779235
 10
5291.109863110616
 20
2064.831062779214
 10
5291.109863110616
 20
2064.831062779214
 10
5072.109863110616
 20
2064.831062779208
 10
5072.109863110616
 20
2064.831062779208
 10
5072.109863110616
 20
2062.831062779208
 97
0
 75
1
 76
1
 98
0
  0
HATCH
  5
DC
330
17
100
AcDbEntity
  8
COTA
 62
7
100
AcDbHatch
 10
0.0
 20
0.0
 30
0.0
210
0.0
220
0.0
230
1.0
  2
SOLID
 70
1
 71
0
 91
1
 92
3
 72
0
 73
1
 93
8
 10
5377.071036386047
 20
2045.831062779223
 10
5377.071036386045
 20
2057.831062779207
 10
5377.071036386044
 20
2057.831062779207
 10
5306.071036386045
 20
2057.831062779207
 10
5306.071036386043
 20
2057.831062779207
 10
5306.071036386045
 20
2045.831062779219
 10
5306.071036386047
 20
2045.831062779219
 10
5377.071036386047
 20
2045.831062779223
 97
0
 75
1
 76
1
 98
0
  0
HATCH
  5
DD
330
17
100
AcDbEntity
  8
Hachura
 62
7
100
AcDbHatch
 10
0.0
 20
0.0
 30
0.0
210
0.0
220
0.0
230
1.0
  2
SOLID
 70
1
 71
0
 91
1
 92
3
 72
0
 73
1
 93
8
 10
5060.407158363513
 20
2261.278165889794
 10
5064.407158363514
 20
2261.278165889794
 10
5064.407158363514
 20
2261.278165889794
 10
5064.407158363514
 20
2171.278165889816
 10
5064.407158363514
 20
2171.278165889816
 10
5060.407158363513
 20
2171.278165889816
 10
5060.407158363513
 20
2171.278165889816
 10
5060.407158363513
 20
2261.278165889794
 97
0
 75
1
 76
1
 98
0
  0
HATCH
  5
DE
330
17
100
AcDbEntity
  8
Hachura
 62
7
100
AcDbHatch
 10
0.0
 20
0.0
 30
0.0
210
0.0
220
0.0
230
1.0
  2
SOLID
 70
1
 71
0
 91
1
 92
3
 72
0
 73
1
 93
8
 10
5102.407158363514
 20
2171.278165889816
 10
5102.407158363514
 20
2175.67816588981
 10
5102.407158363514
 20
2175.67816588981
 10
5088.407158363514
 20
2175.67816588981
 10
5088.407158363514
 20
2175.67816588981
 10
5088.407158363514
 20
2171.278165889816
 10
5088.407158363514
 20
2171.278165889816
 10
5102.407158363514
 20
2171.278165889816
 97
0
 75
1
 76
1
 98
0
  0
HATCH
  5
DF
330
17
100
AcDbEntity
  8
Hachura
 62
7
100
AcDbHatch
 10
0.0
 20
0.0
 30
0.0
210
0.0
220
0.0
230
1.0
  2
SOLID
 70
1
 71
0
 91
1
 92
3
 72
0
 73
1
 93
8
 10
5102.407158363514
 20
2175.67816588981
 10
5102.407158363514
 20
2179.278165889816
 10
5102.407158363514
 20
2179.278165889816
 10
5064.407158363514
 20
2179.278165889816
 10
5064.407158363514
 20
2179.278165889816
 10
5064.407158363514
 20
2175.67816588981
 10
5064.407158363514
 20
2175.67816588981
 10
5102.407158363514
 20
2175.67816588981
 97
0
 75
1
 76
1
 98
0
  0
HATCH
  5
E0
330
17
100
AcDbEntity
  8
Hachura
 62
7
100
AcDbHatch
 10
0.0
 20
0.0
 30
0.0
210
0.0
220
0.0
230
1.0
  2
SOLID
 70
1
 71
0
 91
1
 92
3
 72
0
 73
1
 93
8
 10
5064.407158363514
 20
2171.278165889816
 10
5064.407158363514
 20
2175.67816588981
 10
5064.407158363514
 20
2175.67816588981
 10
5078.407158363514
 20
2175.67816588981
 10
5078.407158363514
 20
2175.67816588981
 10
5078.407158363514
 20
2171.278165889816
 10
5078.407158363514
 20
2171.278165889816
 10
5064.407158363514
 20
2171.278165889816
 97
0
 75
1
 76
1
 98
0
  0
HATCH
  5
E1
330
17
100
AcDbEntity
  8
Hachura
 62
7
100
AcDbHatch
 10
0.0
 20
0.0
 30
0.0
210
0.0
220
0.0
230
1.0
  2
SOLID
 70
1
 71
0
 91
1
 92
3
 72
0
 73
1
 93
8
 10
5106.407158363514
 20
2261.278165889794
 10
5102.407158363514
 20
2261.278165889794
 10
5102.407158363514
 20
2261.278165889794
 10
5102.407158363514
 20
2171.278165889816
 10
5102.407158363514
 20
2171.278165889816
 10
5106.407158363514
 20
2171.278165889816
 10
5106.407158363514
 20
2171.278165889816
 10
5106.407158363514
 20
2261.278165889794
 97
0
 75
1
 76
1
 98
0
  0
HATCH
  5
E2
330
17
100
AcDbEntity
  8
Hachura
 62
7
100
AcDbHatch
 10
0.0
 20
0.0
 30
0.0
210
0.0
220
0.0
230
1.0
  2
SOLID
 70
1
 71
0
 91
1
 92
3
 72
0
 73
1
 93
8
 10
5162.407158363485
 20
2261.278165889794
 10
5162.407158363485
 20
2265.278165889794
 10
5162.407158363485
 20
2265.278165889794
 10
5102.407158363514
 20
2265.278165889794
 10
5102.407158363514
 20
2265.278165889794
 10
5102.407158363514
 20
2261.278165889794
 10
5102.407158363514
 20
2261.278165889794
 10
5162.407158363485
 20
2261.278165889794
 97
0
 75
1
 76
1
 98
0
  0
HATCH
  5
E3
330
17
100
AcDbEntity
  8
Hachura
 62
7
100
AcDbHatch
 10
0.0
 20
0.0
 30
0.0
210
0.0
220
0.0
230
1.0
  2
SOLID
 70
1
 71
0
 91
1
 92
3
 72
0
 73
1
 93
8
 10
5064.407158363514
 20
2261.278165889794
 10
5064.407158363514
 20
2265.278165889794
 10
5064.407158363514
 20
2265.278165889794
 10
5008.807158363538
 20
2265.278165889787
 10
5008.807158363538
 20
2265.278165889787
 10
5008.807158363538
 20
2261.278165889787
 10
5008.807158363538
 20
2261.278165889787
 10
5064.407158363514
 20
2261.278165889794
 97
0
 75
1
 76
1
 98
0
  0
HATCH
  5
E4
330
17
100
AcDbEntity
  8
Hachura
 62
7
100
AcDbHatch
 10
0.0
 20
0.0
 30
0.0
210
0.0
220
0.0
230
1.0
  2
SOLID
 70
1
 71
0
 91
1
 92
3
 72
0
 73
1
 93
8
 10
5056.00715836352
 20
2247.278165889794
 10
5060.407158363513
 20
2247.278165889794
 10
5060.407158363513
 20
2247.278165889794
 10
5060.407158363513
 20
2261.278165889794
 10
5060.407158363513
 20
2261.278165889794
 10
5056.00715836352
 20
2261.278165889794
 10
5056.00715836352
 20
2261.278165889794
 10
5056.00715836352
 20
2247.278165889794
 97
0
 75
1
 76
1
 98
0
  0
HATCH
  5
E5
330
17
100
AcDbEntity
  8
Hachura
 62
7
100
AcDbHatch
 10
0.0
 20
0.0
 30
0.0
210
0.0
220
0.0
230
1.0
  2
SOLID
 70
1
 71
0
 91
1
 92
3
 72
0
 73
1
 93
8
 10
5056.00715836352
 20
2171.278165889816
 10
5060.407158363513
 20
2171.278165889816
 10
5060.407158363513
 20
2171.278165889816
 10
5060.407158363513
 20
2185.278165889815
 10
5060.407158363513
 20
2185.278165889815
 10
5056.00715836352
 20
2185.278165889815
 10
5056.00715836352
 20
2185.278165889815
 10
5056.00715836352
 20
2171.278165889816
 97
0
 75
1
 76
1
 98
0
  0
HATCH
  5
E6
330
17
100
AcDbEntity
  8
Hachura
 62
7
100
AcDbHatch
 10
0.0
 20
0.0
 30
0.0
210
0.0
220
0.0
230
1.0
  2
SOLID
 70
1
 71
0
 91
1
 92
3
 72
0
 73
1
 93
8
 10
5110.807158363508
 20
2247.278165889794
 10
5106.407158363514
 20
2247.278165889794
 10
5106.407158363514
 20
2247.278165889794
 10
5106.407158363514
 20
2261.278165889794
 10
5106.407158363514
 20
2261.278165889794
 10
5110.807158363508
 20
2261.278165889794
 10
5110.807158363508
 20
2261.278165889794
 10
5110.807158363508
 20
2247.278165889794
 97
0
 75
1
 76
1
 98
0
  0
HATCH
  5
E7
330
17
100
AcDbEntity
  8
Hachura
 62
7
100
AcDbHatch
 10
0.0
 20
0.0
 30
0.0
210
0.0
220
0.0
230
1.0
  2
SOLID
 70
1
 71
0
 91
1
 92
3
 72
0
 73
1
 93
8
 10
5110.807158363508
 20
2171.278165889816
 10
5106.407158363514
 20
2171.278165889816
 10
5106.407158363514
 20
2171.278165889816
 10
5106.407158363514
 20
2185.278165889815
 10
5106.407158363514
 20
2185.278165889815
 10
5110.807158363508
 20
2185.278165889815
 10
5110.807158363508
 20
2185.278165889815
 10
5110.807158363508
 20
2171.278165889816
 97
0
 75
1
 76
1
 98
0
  0
HATCH
  5
E8
330
17
100
AcDbEntity
  8
Hachura
 62
7
100
AcDbHatch
 10
0.0
 20
0.0
 30
0.0
210
0.0
220
0.0
230
1.0
  2
SOLID
 70
1
 71
0
 91
1
 92
3
 72
0
 73
1
 93
8
 10
5056.00715836352
 20
2208.278165889805
 10
5060.407158363513
 20
2208.278165889805
 10
5060.407158363513
 20
2208.278165889805
 10
5060.407158363513
 20
2222.278165889805
 10
5060.407158363513
 20
2222.278165889805
 10
5056.00715836352
 20
2222.278165889805
 10
5056.00715836352
 20
2222.278165889805
 10
5056.00715836352
 20
2208.278165889805
 97
0
 75
1
 76
1
 98
0
  0
HATCH
  5
E9
330
17
100
AcDbEntity
  8
Hachura
 62
7
100
AcDbHatch
 10
0.0
 20
0.0
 30
0.0
210
0.0
220
0.0
230
1.0
  2
SOLID
 70
1
 71
0
 91
1
 92
3
 72
0
 73
1
 93
8
 10
5110.807158363508
 20
2208.278165889805
 10
5106.407158363514
 20
2208.278165889805
 10
5106.407158363514
 20
2208.278165889805
 10
5106.407158363514
 20
2222.278165889805
 10
5106.407158363514
 20
2222.278165889805
 10
5110.807158363508
 20
2222.278165889805
 10
5110.807158363508
 20
2222.278165889805
 10
5110.807158363508
 20
2208.278165889805
 97
0
 75
1
 76
1
 98
0
  0
HATCH
  5
EA
330
17
100
AcDbEntity
  8
REAPROVEITAMENTO
 62
7
100
AcDbHatch
 10
0.0
 20
0.0
 30
0.0
210
0.0
220
0.0
230
1.0
  2
SOLID
 70
1
 71
0
 91
1
 92
3
 72
0
 73
1
 93
8
 10
5291.109863110616
 20
2005.831062779225
 10
5291.109863110621
 20
2049.831062779242
 10
5291.109863110623
 20
2049.831062779242
 10
4876.10986311062
 20
2049.83106277923
 10
4876.10986311062
 20
2049.83106277923
 10
4876.109863110621
 20
2005.831062779215
 10
4876.10986311062
 20
2005.831062779215
 10
5291.109863110616
 20
2005.831062779225
 97
0
 75
1
 76
1
 98
0
  0
HATCH
  5
EB
330
17
100
AcDbEntity
  8
REAPROVEITAMENTO
 62
7
100
AcDbHatch
 10
0.0
 20
0.0
 30
0.0
210
0.0
220
0.0
230
1.0
  2
SOLID
 70
1
 71
0
 91
1
 92
3
 72
0
 73
1
 93
8
 10
5377.071036386047
 20
2005.751400894001
 10
5377.071036386051
 20
2045.745893721855
 10
5377.071036386051
 20
2045.745893721855
 10
5306.071036386043
 20
2045.91623183659
 10
5306.071036386043
 20
2045.91623183659
 10
5306.071036386047
 20
2005.921739008732
 10
5306.071036386047
 20
2005.921739008732
 10
5377.071036386047
 20
2005.751400894001
 97
0
 75
1
 76
1
 98
0
  0
HATCH
  5
EC
330
17
100
AcDbEntity
  8
COTA
 62
7
100
AcDbHatch
 10
0.0
 20
0.0
 30
0.0
210
0.0
220
0.0
230
1.0
  2
SOLID
 70
1
 71
0
 91
1
 92
3
 72
0
 73
1
 93
9
 10
5300.979141992661
 20
1820.501729517665
 10
5300.979141992661
 20
1834.501729517648
 10
5300.979141992661
 20
1834.501729517648
 10
4845.72914199266
 20
1834.501729517647
 10
4845.72914199266
 20
1834.501729517647
 10
4845.97914199266
 20
1820.501729517651
 10
4845.97914199266
 20
1820.501729517651
 10
5300.979141992662
 20
1820.501729517665
 10
5300.979141992661
 20
1820.501729517665
 97
0
 75
1
 76
1
 98
0
  0
HATCH
  5
ED
330
17
100
AcDbEntity
  8
COTA
 62
7
100
AcDbHatch
 10
0.0
 20
0.0
 30
0.0
210
0.0
220
0.0
230
1.0
  2
SOLID
 70
1
 71
0
 91
1
 92
3
 72
0
 73
1
 93
9
 10
5371.380240987242
 20
1820.501729517667
 10
5371.380240987239
 20
1834.501729517649
 10
5371.380240987242
 20
1834.501729517649
 10
5322.380240987244
 20
1834.501729517649
 10
5322.380240987243
 20
1834.501729517649
 10
5322.380240987244
 20
1820.501729517663
 10
5322.380240987246
 20
1820.501729517663
 10
5371.380240987244
 20
1820.501729517667
 10
5371.380240987242
 20
1820.501729517667
 97
0
 75
1
 76
1
 98
0
  0
HATCH
  5
EE
330
17
100
AcDbEntity
  8
REAPROVEITAMENTO
 62
7
100
AcDbHatch
 10
0.0
 20
0.0
 30
0.0
210
0.0
220
0.0
230
1.0
  2
SOLID
 70
1
 71
0
 91
1
 92
3
 72
0
 73
1
 93
8
 10
5371.380240987242
 20
1775.416560460296
 10
5371.380240987246
 20
1820.581391402906
 10
5371.380240987246
 20
1820.581391402906
 10
5322.380240987239
 20
1820.751729517642
 10
5322.380240987239
 20
1820.751729517642
 10
5322.380240987244
 20
1775.58689857503
 10
5322.380240987243
 20
1775.58689857503
 10
5371.380240987242
 20
1775.416560460296
 97
0
 75
1
 76
1
 98
0
  0
HATCH
  5
EF
330
17
100
AcDbEntity
  8
REAPROVEITAMENTO
 62
7
100
AcDbHatch
 10
0.0
 20
0.0
 30
0.0
210
0.0
220
0.0
230
1.0
  2
SOLID
 70
1
 71
0
 91
1
 92
3
 72
0
 73
1
 93
8
 10
5300.979141992661
 20
1775.419314046361
 10
5300.979141992664
 20
1820.584144988983
 10
5300.979141992664
 20
1820.584144988983
 10
4845.979141992657
 20
1820.751729517638
 10
4845.979141992653
 20
1820.751729517638
 10
4845.97914199266
 20
1775.586898575014
 10
4845.97914199266
 20
1775.586898575014
 10
5300.979141992661
 20
1775.419314046361
 97
0
 75
1
 76
1
 98
0
  0
HATCH
  5
F0
330
17
100
AcDbEntity
  8
COTA
 62
7
100
AcDbHatch
 10
0.0
 20
0.0
 30
0.0
210
0.0
220
0.0
230
1.0
  2
SOLID
 70
1
 71
0
 91
1
 92
3
 72
0
 73
1
 93
9
 10
6030.222457695724
 20
2061.780643356927
 10
6030.222457695724
 20
2075.780643356927
 10
6030.222457695724
 20
2075.780643356927
 10
5575.222457695723
 20
2075.780643356927
 10
5575.222457695718
 20
2075.780643356927
 10
5575.222457695718
 20
2061.780643356927
 10
5575.222457695718
 20
2061.780643356927
 10
6030.22245769572
 20
2061.780643356927
 10
6030.222457695724
 20
2061.780643356927
 97
0
 75
1
 76
1
 98
0
  0
HATCH
  5
F1
330
17
100
AcDbEntity
  8
Hachura
 62
7
100
AcDbHatch
 10
0.0
 20
0.0
 30
0.0
210
0.0
220
0.0
230
1.0
  2
SOLID
 70
1
 71
0
 91
1
 92
3
 72
0
 73
1
 93
9
 10
5729.074603356036
 20
2259.278165889787
 10
5725.074603356035
 20
2259.278165889787
 10
5725.074603356035
 20
2259.278165889787
 10
5725.074603356035
 20
2181.278165889809
 10
5725.074603356042
 20
2181.278165889809
 10
5729.074603356043
 20
2181.278165889809
 10
5729.074603356043
 20
2181.278165889809
 10
5729.074603356043
 20
2259.278165889787
 10
5729.074603356036
 20
2259.278165889787
 97
0
 75
1
 76
1
 98
0
  0
HATCH
  5
F2
330
17
100
AcDbEntity
  8
Hachura
 62
7
100
AcDbHatch
 10
0.0
 20
0.0
 30
0.0
210
0.0
220
0.0
230
1.0
  2
SOLID
 70
1
 71
0
 91
1
 92
3
 72
0
 73
1
 93
8
 10
5767.074603356043
 20
2181.278165889809
 10
5767.074603356043
 20
2185.678165889803
 10
5767.074603356043
 20
2185.678165889803
 10
5757.074603356042
 20
2185.678165889803
 10
5757.074603356042
 20
2185.678165889803
 10
5757.074603356042
 20
2181.278165889809
 10
5757.074603356042
 20
2181.278165889809
 10
5767.074603356043
 20
2181.278165889809
 97
0
 75
1
 76
1
 98
0
  0
HATCH
  5
F3
330
17
100
AcDbEntity
  8
Hachura
 62
7
100
AcDbHatch
 10
0.0
 20
0.0
 30
0.0
210
0.0
220
0.0
230
1.0
  2
SOLID
 70
1
 71
0
 91
1
 92
3
 72
0
 73
1
 93
8
 10
5767.074603356043
 20
2185.678165889803
 10
5767.074603356043
 20
2189.278165889808
 10
5767.074603356043
 20
2189.278165889808
 10
5729.074603356043
 20
2189.278165889808
 10
5729.074603356043
 20
2189.278165889808
 10
5729.074603356043
 20
2185.678165889803
 10
5729.074603356043
 20
2185.678165889803
 10
5767.074603356043
 20
2185.678165889803
 97
0
 75
1
 76
1
 98
0
  0
HATCH
  5
F4
330
17
100
AcDbEntity
  8
Hachura
 62
7
100
AcDbHatch
 10
0.0
 20
0.0
 30
0.0
210
0.0
220
0.0
230
1.0
  2
SOLID
 70
1
 71
0
 91
1
 92
3
 72
0
 73
1
 93
8
 10
5729.074603356043
 20
2181.278165889809
 10
5729.074603356043
 20
2185.678165889803
 10
5729.074603356043
 20
2185.678165889803
 10
5739.074603356042
 20
2185.678165889803
 10
5739.074603356042
 20
2185.678165889803
 10
5739.074603356042
 20
2181.278165889809
 10
5739.074603356042
 20
2181.278165889809
 10
5729.074603356043
 20
2181.278165889809
 97
0
 75
1
 76
1
 98
0
  0
HATCH
  5
F5
330
17
100
AcDbEntity
  8
Hachura
 62
7
100
AcDbHatch
 10
0.0
 20
0.0
 30
0.0
210
0.0
220
0.0
230
1.0
  2
SOLID
 70
1
 71
0
 91
1
 92
3
 72
0
 73
1
 93
8
 10
5771.074603356042
 20
2289.278165889808
 10
5767.074603356043
 20
2289.278165889808
 10
5767.074603356036
 20
2289.278165889808
 10
5767.074603356036
 20
2181.278165889809
 10
5767.074603356043
 20
2181.278165889809
 10
5771.074603356042
 20
2181.278165889809
 10
5771.074603356042
 20
2181.278165889809
 10
5771.074603356042
 20
2289.278165889808
 97
0
 75
1
 76
1
 98
0
  0
HATCH
  5
F6
330
17
100
AcDbEntity
  8
Hachura
 62
7
100
AcDbHatch
 10
0.0
 20
0.0
 30
0.0
210
0.0
220
0.0
230
1.0
  2
SOLID
 70
1
 71
0
 91
1
 92
3
 72
0
 73
1
 93
8
 10
5729.074603356043
 20
2259.278165889787
 10
5729.074603356043
 20
2263.278165889786
 10
5729.074603356043
 20
2263.278165889786
 10
5673.474603356066
 20
2263.278165889779
 10
5673.474603356066
 20
2263.278165889779
 10
5673.474603356066
 20
2259.278165889779
 10
5673.474603356066
 20
2259.278165889779
 10
5729.074603356043
 20
2259.278165889787
 97
0
 75
1
 76
1
 98
0
  0
HATCH
  5
F7
330
17
100
AcDbEntity
  8
Hachura
 62
7
100
AcDbHatch
 10
0.0
 20
0.0
 30
0.0
210
0.0
220
0.0
230
1.0
  2
SOLID
 70
1
 71
0
 91
1
 92
3
 72
0
 73
1
 93
8
 10
5720.674603356048
 20
2245.278165889787
 10
5725.074603356042
 20
2245.278165889787
 10
5725.074603356042
 20
2245.278165889787
 10
5725.074603356042
 20
2259.278165889787
 10
5725.074603356042
 20
2259.278165889787
 10
5720.674603356048
 20
2259.278165889787
 10
5720.674603356048
 20
2259.278165889787
 10
5720.674603356048
 20
2245.278165889787
 97
0
 75
1
 76
1
 98
0
  0
HATCH
  5
F8
330
17
100
AcDbEntity
  8
Hachura
 62
7
100
AcDbHatch
 10
0.0
 20
0.0
 30
0.0
210
0.0
220
0.0
230
1.0
  2
SOLID
 70
1
 71
0
 91
1
 92
3
 72
0
 73
1
 93
8
 10
5771.07460335605
 20
2275.278165889808
 10
5775.474603356045
 20
2275.278165889808
 10
5775.474603356045
 20
2275.278165889808
 10
5775.474603356045
 20
2289.278165889808
 10
5775.474603356045
 20
2289.278165889808
 10
5771.07460335605
 20
2289.278165889808
 10
5771.07460335605
 20
2289.278165889808
 10
5771.07460335605
 20
2275.278165889808
 97
0
 75
1
 76
1
 98
0
  0
HATCH
  5
F9
330
17
100
AcDbEntity
  8
Hachura
 62
7
100
AcDbHatch
 10
0.0
 20
0.0
 30
0.0
210
0.0
220
0.0
230
1.0
  2
SOLID
 70
1
 71
0
 91
1
 92
3
 72
0
 73
1
 93
8
 10
5771.074603356042
 20
2223.740851208039
 10
5775.474603356037
 20
2223.740851208039
 10
5775.474603356037
 20
2223.740851208039
 10
5775.474603356037
 20
2237.740851208039
 10
5775.474603356037
 20
2237.740851208039
 10
5771.074603356042
 20
2237.740851208039
 10
5771.074603356042
 20
2237.740851208039
 10
5771.074603356042
 20
2223.740851208039
 97
0
 75
1
 76
1
 98
0
  0
HATCH
  5
FA
330
17
100
AcDbEntity
  8
Hachura
 62
7
100
AcDbHatch
 10
0.0
 20
0.0
 30
0.0
210
0.0
220
0.0
230
1.0
  2
SOLID
 70
1
 71
0
 91
1
 92
3
 72
0
 73
1
 93
8
 10
5771.074603356042
 20
2181.278165889809
 10
5775.474603356037
 20
2181.278165889809
 10
5775.474603356037
 20
2181.278165889809
 10
5775.474603356037
 20
2195.278165889809
 10
5775.474603356037
 20
2195.278165889809
 10
5771.074603356042
 20
2195.278165889809
 10
5771.074603356042
 20
2195.278165889809
 10
5771.074603356042
 20
2181.278165889809
 97
0
 75
1
 76
1
 98
0
  0
HATCH
  5
FB
330
17
100
AcDbEntity
  8
Hachura
 62
7
100
AcDbHatch
 10
0.0
 20
0.0
 30
0.0
210
0.0
220
0.0
230
1.0
  2
SOLID
 70
1
 71
0
 91
1
 92
3
 72
0
 73
1
 93
8
 10
5720.674603356048
 20
2181.278165889809
 10
5725.074603356042
 20
2181.278165889809
 10
5725.074603356042
 20
2181.278165889809
 10
5725.074603356042
 20
2195.278165889809
 10
5725.074603356042
 20
2195.278165889809
 10
5720.674603356048
 20
2195.278165889809
 10
5720.674603356048
 20
2195.278165889809
 10
5720.674603356048
 20
2181.278165889809
 97
0
 75
1
 76
1
 98
0
  0
HATCH
  5
FC
330
17
100
AcDbEntity
  8
REAPROVEITAMENTO
 62
7
100
AcDbHatch
 10
0.0
 20
0.0
 30
0.0
210
0.0
220
0.0
230
1.0
  2
SOLID
 70
1
 71
0
 91
1
 92
3
 72
0
 73
1
 93
9
 10
5575.222457695729
 20
2021.905643356932
 10
5575.222457695723
 20
2062.030643356951
 10
5575.222457695722
 20
2062.030643356951
 10
6030.222457695716
 20
2061.843143356936
 10
6030.222457695724
 20
2061.843143356936
 10
6030.222457695724
 20
2021.718143356918
 10
6030.222457695724
 20
2021.718143356918
 10
5575.222457695732
 20
2021.905643356932
 10
5575.222457695729
 20
2021.905643356932
 97
0
 75
1
 76
1
 98
0
  0
HATCH
  5
FD
330
17
100
AcDbEntity
  8
REAPROVEITAMENTO
 62
7
100
AcDbHatch
 10
0.0
 20
0.0
 30
0.0
210
0.0
220
0.0
230
1.0
  2
SOLID
 70
1
 71
0
 91
1
 92
3
 72
0
 73
1
 93
9
 10
5575.222457695722
 20
1804.359901811158
 10
5575.222457695722
 20
1858.484901811178
 10
5575.222457695722
 20
1858.484901811178
 10
5835.222457695716
 20
1858.234901811167
 10
5835.222457695723
 20
1858.234901811167
 10
5835.222457695716
 20
1804.109901811149
 10
5835.222457695716
 20
1804.109901811149
 10
5575.222457695725
 20
1804.359901811158
 10
5575.222457695722
 20
1804.359901811158
 97
0
 75
1
 76
1
 98
0
  0
LINE
  5
FE
330
17
100
AcDbEntity
  8
0
 62
7
370
25
100
AcDbLine
 10
5116.565426323083
 20
1444.2781658898166
 30
0.0
 11
5116.565426323083
 21
1643.5216793007057
 31
0.0
  0
LWPOLYLINE
  5
FF
330
17
100
AcDbEntity
  8
Texto Seção
 62
7
370
25
100
AcDbPolyline
 90
4
 70
1
 10
5980.159421151948
 20
1684.749196839051
 10
6124.434059992862
 20
1684.749196839051
 10
6124.434059992862
 20
1661.548319771302
 10
5980.159421151948
 20
1661.548319771302
  0
LWPOLYLINE
  5
100
330
17
100
AcDbEntity
  8
Texto Seção
 62
7
370
25
100
AcDbPolyline
 90
4
 70
1
 10
4781.914323982848
 20
1684.749196839051
 10
4923.363642135104
 20
1684.749196839051
 10
4923.363642135104
 20
1661.548319771302
 10
4781.914323982848
 20
1661.548319771302
  0
TEXT
  5
101
330
17
100
AcDbEntity
  8
Texto Seção
 62
7
370
25
100
AcDbText
 10
5981.995694597774
 20
1666.299914858522
 30
0.0
 40
13.0
  1
VEM DA V323
100
AcDbText
  0
ENDSEC
  0
SECTION
  2
OBJECTS
  0
DICTIONARY
  5
A
330
0
100
AcDbDictionary
281
1
  3
ACAD_COLOR
350
B
  3
ACAD_GROUP
350
C
  3
ACAD_LAYOUT
350
D
  3
ACAD_MATERIAL
350
E
  3
ACAD_MLEADERSTYLE
350
F
  3
ACAD_MLINESTYLE
350
10
  3
ACAD_PLOTSETTINGS
350
11
  3
ACAD_PLOTSTYLENAME
350
12
  3
ACAD_SCALELIST
350
14
  3
ACAD_TABLESTYLE
350
15
  3
ACAD_VISUALSTYLE
350
16
  3
EZDXF_META
350
2D
  0
DICTIONARY
  5
B
330
A
100
AcDbDictionary
281
1
  0
DICTIONARY
  5
C
330
A
100
AcDbDictionary
281
1
  0
DICTIONARY
  5
D
330
A
100
AcDbDictionary
281
1
  3
Model
350
1A
  3
Layout1
350
1E
  0
DICTIONARY
  5
E
330
A
100
AcDbDictionary
281
1
  3
ByBlock
350
1F
  3
ByLayer
350
20
  3
Global
350
21
  0
DICTIONARY
  5
F
330
A
100
AcDbDictionary
281
1
  3
Standard
350
2C
  0
DICTIONARY
  5
10
330
A
100
AcDbDictionary
281
1
  3
Standard
350
22
  0
DICTIONARY
  5
11
330
A
100
AcDbDictionary
281
1
  0
ACDBDICTIONARYWDFLT
  5
12
330
A
100
AcDbDictionary
281
1
  3
Normal
350
13
100
AcDbDictionaryWithDefault
340
13
  0
ACDBPLACEHOLDER
  5
13
330
12
  0
DICTIONARY
  5
14
330
A
100
AcDbDictionary
281
1
  0
DICTIONARY
  5
15
330
A
100
AcDbDictionary
281
1
  0
DICTIONARY
  5
16
330
A
100
AcDbDictionary
281
1
  0
LAYOUT
  5
1A
330
D
100
AcDbPlotSettings
  1

  4
A3
  6

 40
7.5
 41
20.0
 42
7.5
 43
20.0
 44
420.0
 45
297.0
 46
0.0
 47
0.0
 48
0.0
 49
0.0
140
0.0
141
0.0
142
1.0
143
1.0
 70
1024
 72
1
 73
0
 74
5
  7

 75
16
 76
0
 77
2
 78
300
147
1.0
148
0.0
149
0.0
100
AcDbLayout
  1
Model
 70
1
 71
0
 10
0.0
 20
0.0
 11
420.0
 21
297.0
 12
0.0
 22
0.0
 32
0.0
 14
1e+20
 24
1e+20
 34
1e+20
 15
-1e+20
 25
-1e+20
 35
-1e+20
146
0.0
 13
0.0
 23
0.0
 33
0.0
 16
1.0
 26
0.0
 36
0.0
 17
0.0
 27
1.0
 37
0.0
 76
1
330
17
  0
LAYOUT
  5
1E
330
D
100
AcDbPlotSettings
  1

  4
A3
  6

 40
7.5
 41
20.0
 42
7.5
 43
20.0
 44
420.0
 45
297.0
 46
0.0
 47
0.0
 48
0.0
 49
0.0
140
0.0
141
0.0
142
1.0
143
1.0
 70
0
 72
1
 73
0
 74
5
  7

 75
16
 76
0
 77
2
 78
300
147
1.0
148
0.0
149
0.0
100
AcDbLayout
  1
Layout1
 70
1
 71
1
 10
0.0
 20
0.0
 11
420.0
 21
297.0
 12
0.0
 22
0.0
 32
0.0
 14
1e+20
 24
1e+20
 34
1e+20
 15
-1e+20
 25
-1e+20
 35
-1e+20
146
0.0
 13
0.0
 23
0.0
 33
0.0
 16
1.0
 26
0.0
 36
0.0
 17
0.0
 27
1.0
 37
0.0
 76
1
330
1B
  0
MATERIAL
  5
1F
102
{ACAD_REACTORS
330
E
102
}
330
E
100
AcDbMaterial
  1
ByBlock
  2

 70
0
 40
1.0
 71
1
 41
1.0
 91
-1023410177
 42
1.0
 72
1
  3

 73
1
 74
1
 75
1
 44
0.5
 73
0
 45
1.0
 46
1.0
 77
1
  4

 78
1
 79
1
170
1
 48
1.0
171
1
  6

172
1
173
1
174
1
140
1.0
141
1.0
175
1
  7

176
1
177
1
178
1
143
1.0
179
1
  8

270
1
271
1
272
1
145
1.0
146
1.0
273
1
  9

274
1
275
1
276
1
 42
1.0
 72
1
  3

 73
1
 74
1
 75
1
 94
63
  0
MATERIAL
  5
20
102
{ACAD_REACTORS
330
E
102
}
330
E
100
AcDbMaterial
  1
ByLayer
  2

 70
0
 40
1.0
 71
1
 41
1.0
 91
-1023410177
 42
1.0
 72
1
  3

 73
1
 74
1
 75
1
 44
0.5
 73
0
 45
1.0
 46
1.0
 77
1
  4

 78
1
 79
1
170
1
 48
1.0
171
1
  6

172
1
173
1
174
1
140
1.0
141
1.0
175
1
  7

176
1
177
1
178
1
143
1.0
179
1
  8

270
1
271
1
272
1
145
1.0
146
1.0
273
1
  9

274
1
275
1
276
1
 42
1.0
 72
1
  3

 73
1
 74
1
 75
1
 94
63
  0
MATERIAL
  5
21
102
{ACAD_REACTORS
330
E
102
}
330
E
100
AcDbMaterial
  1
Global
  2

 70
0
 40
1.0
 71
1
 41
1.0
 91
-1023410177
 42
1.0
 72
1
  3

 73
1
 74
1
 75
1
 44
0.5
 73
0
 45
1.0
 46
1.0
 77
1
  4

 78
1
 79
1
170
1
 48
1.0
171
1
  6

172
1
173
1
174
1
140
1.0
141
1.0
175
1
  7

176
1
177
1
178
1
143
1.0
179
1
  8

270
1
271
1
272
1
145
1.0
146
1.0
273
1
  9

274
1
275
1
276
1
 42
1.0
 72
1
  3

 73
1
 74
1
 75
1
 94
63
  0
MLINESTYLE
  5
22
102
{ACAD_REACTORS
330
10
102
}
330
10
100
AcDbMlineStyle
  2
Standard
 70
0
  3

 62
256
 51
90.0
 52
90.0
 71
2
 49
0.5
 62
256
  6
BYLAYER
 49
-0.5
 62
256
  6
BYLAYER
  0
MLEADERSTYLE
  5
2C
102
{ACAD_REACTORS
330
F
102
}
330
F
100
AcDbMLeaderStyle
179
2
170
2
171
1
172
0
 90
2
 40
0.0
 41
0.0
173
1
 91
-1056964608
 92
-2
290
1
 42
2.0
291
1
 43
8.0
  3
Standard
 44
4.0
300

342
29
174
1
175
1
176
0
178
1
 93
-1056964608
 45
4.0
292
0
297
0
 46
4.0
 94
-1056964608
 47
1.0
 49
1.0
140
1.0
294
1
141
0.0
177
0
142
1.0
295
0
296
0
143
3.75
271
0
272
9
273
9
  0
DICTIONARY
  5
2D
330
A
100
AcDbDictionary
280
1
281
1
  3
CREATED_BY_EZDXF
350
2E
  3
WRITTEN_BY_EZDXF
350
104
  0
DICTIONARYVAR
  5
2E
330
2D
100
DictionaryVariables
280
0
  1
1.4.3 @ 2026-06-10T16:53:37.289411+00:00
  0
DICTIONARYVAR
  5
104
330
2D
100
DictionaryVariables
280
0
  1
1.4.3 @ 2026-06-10T16:53:37.297906+00:00
  0
ENDSEC
  0
EOF
