  0
SECTION
  2
HEADER
  9
$ACADVER
  1
AC1024
  9
$ACADMAINTVER
 70
6
  9
$DWGCODEPAGE
  3
ANSI_1252
  9
$LASTSAVEDBY
  1
ezdxf
  9
$INSBASE
 10
0.0
 20
0.0
 30
0.0
  9
$EXTMIN
 10
1e+20
 20
1e+20
 30
1e+20
  9
$EXTMAX
 10
-1e+20
 20
-1e+20
 30
-1e+20
  9
$LIMMIN
 10
0.0
 20
0.0
  9
$LIMMAX
 10
420.0
 20
297.0
  9
$ORTHOMODE
 70
0
  9
$REGENMODE
 70
1
  9
$FILLMODE
 70
1
  9
$QTEXTMODE
 70
0
  9
$MIRRTEXT
 70
1
  9
$LTSCALE
 40
1.0
  9
$ATTMODE
 70
1
  9
$TEXTSIZE
 40
2.5
  9
$TRACEWID
 40
1.0
  9
$TEXTSTYLE
  7
Standard
  9
$CLAYER
  8
0
  9
$CELTYPE
  6
ByLayer
  9
$CECOLOR
 62
256
  9
$CELTSCALE
 40
1.0
  9
$DISPSILH
 70
0
  9
$DIMSCALE
 40
1.0
  9
$DIMASZ
 40
2.5
  9
$DIMEXO
 40
0.625
  9
$DIMDLI
 40
3.75
  9
$DIMRND
 40
0.0
  9
$DIMDLE
 40
0.0
  9
$DIMEXE
 40
1.25
  9
$DIMTP
 40
0.0
  9
$DIMTM
 40
0.0
  9
$DIMTXT
 40
2.5
  9
$DIMCEN
 40
2.5
  9
$DIMTSZ
 40
0.0
  9
$DIMTOL
 70
0
  9
$DIMLIM
 70
0
  9
$DIMTIH
 70
0
  9
$DIMTOH
 70
0
  9
$DIMSE1
 70
0
  9
$DIMSE2
 70
0
  9
$DIMTAD
 70
1
  9
$DIMZIN
 70
8
  9
$DIMBLK
  1

  9
$DIMASO
 70
1
  9
$DIMSHO
 70
1
  9
$DIMPOST
  1

  9
$DIMAPOST
  1

  9
$DIMALT
 70
0
  9
$DIMALTD
 70
3
  9
$DIMALTF
 40
0.03937007874
  9
$DIMLFAC
 40
1.0
  9
$DIMTOFL
 70
1
  9
$DIMTVP
 40
0.0
  9
$DIMTIX
 70
0
  9
$DIMSOXD
 70
0
  9
$DIMSAH
 70
0
  9
$DIMBLK1
  1

  9
$DIMBLK2
  1

  9
$DIMSTYLE
  2
ISO-25
  9
$DIMCLRD
 70
0
  9
$DIMCLRE
 70
0
  9
$DIMCLRT
 70
0
  9
$DIMTFAC
 40
1.0
  9
$DIMGAP
 40
0.625
  9
$DIMJUST
 70
0
  9
$DIMSD1
 70
0
  9
$DIMSD2
 70
0
  9
$DIMTOLJ
 70
0
  9
$DIMTZIN
 70
8
  9
$DIMALTZ
 70
0
  9
$DIMALTTZ
 70
0
  9
$DIMUPT
 70
0
  9
$DIMDEC
 70
2
  9
$DIMTDEC
 70
2
  9
$DIMALTU
 70
2
  9
$DIMALTTD
 70
3
  9
$DIMTXSTY
  7
Standard
  9
$DIMAUNIT
 70
0
  9
$DIMADEC
 70
0
  9
$DIMALTRND
 40
0.0
  9
$DIMAZIN
 70
0
  9
$DIMDSEP
 70
44
  9
$DIMATFIT
 70
3
  9
$DIMFRAC
 70
0
  9
$DIMLDRBLK
  1

  9
$DIMLUNIT
 70
2
  9
$DIMLWD
 70
-2
  9
$DIMLWE
 70
-2
  9
$DIMTMOVE
 70
0
  9
$DIMFXL
 40
1.0
  9
$DIMFXLON
 70
0
  9
$DIMJOGANG
 40
0.785398163397
  9
$DIMTFILL
 70
0
  9
$DIMTFILLCLR
 70
0
  9
$DIMARCSYM
 70
0
  9
$DIMLTYPE
  6

  9
$DIMLTEX1
  6

  9
$DIMLTEX2
  6

  9
$DIMTXTDIRECTION
 70
0
  9
$LUNITS
 70
2
  9
$LUPREC
 70
4
  9
$SKETCHINC
 40
1.0
  9
$FILLETRAD
 40
10.0
  9
$AUNITS
 70
0
  9
$AUPREC
 70
2
  9
$MENU
  1
.
  9
$ELEVATION
 40
0.0
  9
$PELEVATION
 40
0.0
  9
$THICKNESS
 40
0.0
  9
$LIMCHECK
 70
0
  9
$CHAMFERA
 40
0.0
  9
$CHAMFERB
 40
0.0
  9
$CHAMFERC
 40
0.0
  9
$CHAMFERD
 40
0.0
  9
$SKPOLY
 70
0
  9
$TDCREATE
 40
2461202.613125
  9
$TDUCREATE
 40
2458532.153996898
  9
$TDUPDATE
 40
2461202.613125
  9
$TDUUPDATE
 40
2458532.1544311
  9
$TDINDWG
 40
0.0
  9
$TDUSRTIMER
 40
0.0
  9
$USRTIMER
 70
1
  9
$ANGBASE
 50
0.0
  9
$ANGDIR
 70
0
  9
$PDMODE
 70
0
  9
$PDSIZE
 40
0.0
  9
$PLINEWID
 40
0.0
  9
$SPLFRAME
 70
0
  9
$SPLINETYPE
 70
6
  9
$SPLINESEGS
 70
8
  9
$HANDSEED
  5
1AD
  9
$SURFTAB1
 70
6
  9
$SURFTAB2
 70
6
  9
$SURFTYPE
 70
6
  9
$SURFU
 70
6
  9
$SURFV
 70
6
  9
$UCSBASE
  2

  9
$UCSNAME
  2

  9
$UCSORG
 10
0.0
 20
0.0
 30
0.0
  9
$UCSXDIR
 10
1.0
 20
0.0
 30
0.0
  9
$UCSYDIR
 10
0.0
 20
1.0
 30
0.0
  9
$UCSORTHOREF
  2

  9
$UCSORTHOVIEW
 70
0
  9
$UCSORGTOP
 10
0.0
 20
0.0
 30
0.0
  9
$UCSORGBOTTOM
 10
0.0
 20
0.0
 30
0.0
  9
$UCSORGLEFT
 10
0.0
 20
0.0
 30
0.0
  9
$UCSORGRIGHT
 10
0.0
 20
0.0
 30
0.0
  9
$UCSORGFRONT
 10
0.0
 20
0.0
 30
0.0
  9
$UCSORGBACK
 10
0.0
 20
0.0
 30
0.0
  9
$PUCSBASE
  2

  9
$PUCSNAME
  2

  9
$PUCSORG
 10
0.0
 20
0.0
 30
0.0
  9
$PUCSXDIR
 10
1.0
 20
0.0
 30
0.0
  9
$PUCSYDIR
 10
0.0
 20
1.0
 30
0.0
  9
$PUCSORTHOREF
  2

  9
$PUCSORTHOVIEW
 70
0
  9
$PUCSORGTOP
 10
0.0
 20
0.0
 30
0.0
  9
$PUCSORGBOTTOM
 10
0.0
 20
0.0
 30
0.0
  9
$PUCSORGLEFT
 10
0.0
 20
0.0
 30
0.0
  9
$PUCSORGRIGHT
 10
0.0
 20
0.0
 30
0.0
  9
$PUCSORGFRONT
 10
0.0
 20
0.0
 30
0.0
  9
$PUCSORGBACK
 10
0.0
 20
0.0
 30
0.0
  9
$USERI1
 70
0
  9
$USERI2
 70
0
  9
$USERI3
 70
0
  9
$USERI4
 70
0
  9
$USERI5
 70
0
  9
$USERR1
 40
0.0
  9
$USERR2
 40
0.0
  9
$USERR3
 40
0.0
  9
$USERR4
 40
0.0
  9
$USERR5
 40
0.0
  9
$WORLDVIEW
 70
1
  9
$SHADEDGE
 70
3
  9
$SHADEDIF
 70
70
  9
$TILEMODE
 70
1
  9
$MAXACTVP
 70
64
  9
$PINSBASE
 10
0.0
 20
0.0
 30
0.0
  9
$PLIMCHECK
 70
0
  9
$PEXTMIN
 10
1e+20
 20
1e+20
 30
1e+20
  9
$PEXTMAX
 10
-1e+20
 20
-1e+20
 30
-1e+20
  9
$PLIMMIN
 10
0.0
 20
0.0
  9
$PLIMMAX
 10
420.0
 20
297.0
  9
$UNITMODE
 70
0
  9
$VISRETAIN
 70
1
  9
$PLINEGEN
 70
0
  9
$PSLTSCALE
 70
1
  9
$TREEDEPTH
 70
3020
  9
$CMLSTYLE
  2
Standard
  9
$CMLJUST
 70
0
  9
$CMLSCALE
 40
20.0
  9
$PROXYGRAPHICS
 70
1
  9
$MEASUREMENT
 70
1
  9
$CELWEIGHT
370
-1
  9
$ENDCAPS
280
0
  9
$JOINSTYLE
280
0
  9
$LWDISPLAY
290
0
  9
$INSUNITS
 70
6
  9
$HYPERLINKBASE
  1

  9
$STYLESHEET
  1

  9
$XEDIT
290
1
  9
$CEPSNTYPE
380
0
  9
$PSTYLEMODE
290
1
  9
$FINGERPRINTGUID
  2
{01D3B739-623D-41F8-9C91-CA382F5EC05A}
  9
$VERSIONGUID
  2
{1F0A7DC4-D517-46B7-992C-8A2847011DCD}
  9
$EXTNAMES
290
1
  9
$PSVPSCALE
 40
0.0
  9
$OLESTARTUP
290
0
  9
$SORTENTS
280
127
  9
$INDEXCTL
280
0
  9
$HIDETEXT
280
1
  9
$XCLIPFRAME
280
1
  9
$HALOGAP
280
0
  9
$OBSCOLOR
 70
257
  9
$OBSLTYPE
280
0
  9
$INTERSECTIONDISPLAY
280
0
  9
$INTERSECTIONCOLOR
 70
257
  9
$DIMASSOC
280
2
  9
$PROJECTNAME
  1

  9
$CAMERADISPLAY
290
0
  9
$LENSLENGTH
 40
50.0
  9
$CAMERAHEIGHT
 40
0.0
  9
$STEPSPERSEC
 40
24.0
  9
$STEPSIZE
 40
100.0
  9
$3DDWFPREC
 40
2.0
  9
$PSOLWIDTH
 40
0.005
  9
$PSOLHEIGHT
 40
0.08
  9
$LOFTANG1
 40
1.570796326795
  9
$LOFTANG2
 40
1.570796326795
  9
$LOFTMAG1
 40
0.0
  9
$LOFTMAG2
 40
0.0
  9
$LOFTPARAM
 70
7
  9
$LOFTNORMALS
280
1
  9
$LATITUDE
 40
37.795
  9
$LONGITUDE
 40
-122.394
  9
$NORTHDIRECTION
 40
0.0
  9
$TIMEZONE
 70
-8000
  9
$LIGHTGLYPHDISPLAY
280
1
  9
$TILEMODELIGHTSYNCH
280
1
  9
$CMATERIAL
347
20
  9
$SOLIDHIST
280
0
  9
$SHOWHIST
280
1
  9
$DWFFRAME
280
2
  9
$DGNFRAME
280
2
  9
$REALWORLDSCALE
290
1
  9
$INTERFERECOLOR
 62
256
  9
$CSHADOW
280
0
  9
$SHADOWPLANELOCATION
 40
0.0
  0
ENDSEC
  0
SECTION
  2
CLASSES
  0
CLASS
  1
ACDBDICTIONARYWDFLT
  2
AcDbDictionaryWithDefault
  3
ObjectDBX Classes
 90
0
 91
0
280
0
281
0
  0
CLASS
  1
SUN
  2
AcDbSun
  3
SCENEOE
 90
1153
 91
0
280
0
281
0
  0
CLASS
  1
VISUALSTYLE
  2
AcDbVisualStyle
  3
ObjectDBX Classes
 90
4095
 91
0
280
0
281
0
  0
CLASS
  1
MATERIAL
  2
AcDbMaterial
  3
ObjectDBX Classes
 90
1153
 91
0
280
0
281
0
  0
CLASS
  1
SCALE
  2
AcDbScale
  3
ObjectDBX Classes
 90
1153
 91
0
280
0
281
0
  0
CLASS
  1
TABLESTYLE
  2
AcDbTableStyle
  3
ObjectDBX Classes
 90
4095
 91
0
280
0
281
0
  0
CLASS
  1
MLEADERSTYLE
  2
AcDbMLeaderStyle
  3
ACDB_MLEADERSTYLE_CLASS
 90
4095
 91
0
280
0
281
0
  0
CLASS
  1
DICTIONARYVAR
  2
AcDbDictionaryVar
  3
ObjectDBX Classes
 90
0
 91
0
280
0
281
0
  0
CLASS
  1
CELLSTYLEMAP
  2
AcDbCellStyleMap
  3
ObjectDBX Classes
 90
1152
 91
0
280
0
281
0
  0
CLASS
  1
MENTALRAYRENDERSETTINGS
  2
AcDbMentalRayRenderSettings
  3
SCENEOE
 90
1024
 91
0
280
0
281
0
  0
CLASS
  1
ACDBDETAILVIEWSTYLE
  2
AcDbDetailViewStyle
  3
ObjectDBX Classes
 90
1025
 91
0
280
0
281
0
  0
CLASS
  1
ACDBSECTIONVIEWSTYLE
  2
AcDbSectionViewStyle
  3
ObjectDBX Classes
 90
1025
 91
0
280
0
281
0
  0
CLASS
  1
RASTERVARIABLES
  2
AcDbRasterVariables
  3
ISM
 90
0
 91
0
280
0
281
0
  0
CLASS
  1
ACDBPLACEHOLDER
  2
AcDbPlaceHolder
  3
ObjectDBX Classes
 90
0
 91
0
280
0
281
0
  0
CLASS
  1
LAYOUT
  2
AcDbLayout
  3
ObjectDBX Classes
 90
0
 91
0
280
0
281
0
  0
ENDSEC
  0
SECTION
  2
TABLES
  0
TABLE
  2
VPORT
  5
8
330
0
100
AcDbSymbolTable
 70
1
  0
VPORT
  5
23
330
8
100
AcDbSymbolTableRecord
100
AcDbViewportTableRecord
  2
*Active
 70
0
 10
0.0
 20
0.0
 11
1.0
 21
1.0
 12
0.0
 22
0.0
 13
0.0
 23
0.0
 14
0.5
 24
0.5
 15
0.5
 25
0.5
 16
0.0
 26
0.0
 36
1.0
 17
0.0
 27
0.0
 37
0.0
 40
1000.0
 41
1.34
 42
50.0
 43
0.0
 44
0.0
 50
0.0
 51
0.0
 71
0
 72
1000
 73
1
 74
3
 75
0
 76
0
 77
0
 78
0
281
0
 65
0
146
0.0
  0
ENDTAB
  0
TABLE
  2
LTYPE
  5
2
330
0
100
AcDbSymbolTable
 70
3
  0
LTYPE
  5
24
330
2
100
AcDbSymbolTableRecord
100
AcDbLinetypeTableRecord
  2
ByBlock
 70
0
  3

 72
65
 73
0
 40
0.0
  0
LTYPE
  5
25
330
2
100
AcDbSymbolTableRecord
100
AcDbLinetypeTableRecord
  2
ByLayer
 70
0
  3

 72
65
 73
0
 40
0.0
  0
LTYPE
  5
26
330
2
100
AcDbSymbolTableRecord
100
AcDbLinetypeTableRecord
  2
Continuous
 70
0
  3

 72
65
 73
0
 40
0.0
  0
ENDTAB
  0
TABLE
  2
LAYER
  5
1
330
0
100
AcDbSymbolTable
 70
14
  0
LAYER
  5
27
330
1
100
AcDbSymbolTableRecord
100
AcDbLayerTableRecord
  2
0
 70
0
 62
7
  6
Continuous
370
-3
390
13
347
21
  0
LAYER
  5
28
330
1
100
AcDbSymbolTableRecord
100
AcDbLayerTableRecord
  2
Defpoints
 70
0
 62
7
  6
Continuous
290
0
370
-3
390
13
347
21
  0
LAYER
  5
2F
330
1
100
AcDbSymbolTableRecord
100
AcDbLayerTableRecord
  2
detalhes
 70
0
 62
7
  6
Continuous
370
-3
390
13
347
21
  0
LAYER
  5
30
330
1
100
AcDbSymbolTableRecord
100
AcDbLayerTableRecord
  2
Hachura
 70
0
 62
7
  6
Continuous
370
-3
390
13
347
21
  0
LAYER
  5
31
330
1
100
AcDbSymbolTableRecord
100
AcDbLayerTableRecord
  2
COTA
 70
0
 62
7
  6
Continuous
370
-3
390
13
347
21
  0
LAYER
  5
32
330
1
100
AcDbSymbolTableRecord
100
AcDbLayerTableRecord
  2
SARR_3.5x7
 70
0
 62
7
  6
Continuous
370
-3
390
13
347
21
  0
LAYER
  5
33
330
1
100
AcDbSymbolTableRecord
100
AcDbLayerTableRecord
  2
CONCRETO
 70
0
 62
7
  6
Continuous
370
-3
390
13
347
21
  0
LAYER
  5
34
330
1
100
AcDbSymbolTableRecord
100
AcDbLayerTableRecord
  2
Madeira
 70
0
 62
7
  6
Continuous
370
-3
390
13
347
21
  0
LAYER
  5
35
330
1
100
AcDbSymbolTableRecord
100
AcDbLayerTableRecord
  2
Cota Seção (2x)
 70
0
 62
7
  6
Continuous
370
-3
390
13
347
21
  0
LAYER
  5
36
330
1
100
AcDbSymbolTableRecord
100
AcDbLayerTableRecord
  2
Painéis
 70
0
 62
7
  6
Continuous
370
-3
390
13
347
21
  0
LAYER
  5
37
330
1
100
AcDbSymbolTableRecord
100
AcDbLayerTableRecord
  2
REAPROVEITAMENTO
 70
0
 62
7
  6
Continuous
370
-3
390
13
347
21
  0
LAYER
  5
38
330
1
100
AcDbSymbolTableRecord
100
AcDbLayerTableRecord
  2
Texto Seção
 70
0
 62
7
  6
Continuous
370
-3
390
13
347
21
  0
LAYER
  5
39
330
1
100
AcDbSymbolTableRecord
100
AcDbLayerTableRecord
  2
SARR_2.2x7
 70
0
 62
7
  6
Continuous
370
-3
390
13
347
21
  0
LAYER
  5
3A
330
1
100
AcDbSymbolTableRecord
100
AcDbLayerTableRecord
  2
5
 70
0
 62
7
  6
Continuous
370
-3
390
13
347
21
  0
ENDTAB
  0
TABLE
  2
STYLE
  5
5
330
0
100
AcDbSymbolTable
 70
1
  0
STYLE
  5
29
330
5
100
AcDbSymbolTableRecord
100
AcDbTextStyleTableRecord
  2
Standard
 70
0
 40
0.0
 41
1.0
 50
0.0
 71
0
 42
2.5
  3
txt
  4

  0
ENDTAB
  0
TABLE
  2
VIEW
  5
7
330
0
100
AcDbSymbolTable
 70
0
  0
ENDTAB
  0
TABLE
  2
UCS
  5
6
330
0
100
AcDbSymbolTable
 70
0
  0
ENDTAB
  0
TABLE
  2
APPID
  5
3
330
0
100
AcDbSymbolTable
 70
3
  0
APPID
  5
2A
330
3
100
AcDbSymbolTableRecord
100
AcDbRegAppTableRecord
  2
ACAD
 70
0
  0
APPID
  5
1AA
330
3
100
AcDbSymbolTableRecord
100
AcDbRegAppTableRecord
  2
HATCHBACKGROUNDCOLOR
 70
0
  0
APPID
  5
1AB
330
3
100
AcDbSymbolTableRecord
100
AcDbRegAppTableRecord
  2
EZDXF
 70
0
  0
ENDTAB
  0
TABLE
  2
DIMSTYLE
  5
4
330
0
100
AcDbSymbolTable
 70
1
100
AcDbDimStyleTable
  0
DIMSTYLE
105
2B
330
4
100
AcDbSymbolTableRecord
100
AcDbDimStyleTableRecord
  2
Standard
 70
0
 40
1.0
 41
2.5
 42
0.625
 43
3.75
 44
1.25
 45
0.0
 46
0.0
 47
0.0
 48
0.0
 49
2.5
140
2.5
141
2.5
142
0.0
143
0.03937007874
144
1.0
145
0.0
146
1.0
147
0.625
148
0.0
 69
0
 70
0
 71
0
 72
0
 73
0
 74
0
 75
0
 76
0
 77
1
 78
8
 79
3
170
0
171
3
172
1
173
0
174
0
175
0
176
0
177
0
178
0
179
2
271
2
272
2
273
2
274
3
275
0
276
0
277
2
278
44
279
0
280
0
281
0
282
0
283
0
284
8
285
0
286
0
288
0
289
3
290
0
371
-2
372
-2
  0
ENDTAB
  0
TABLE
  2
BLOCK_RECORD
  5
9
330
0
100
AcDbSymbolTable
 70
2
  0
BLOCK_RECORD
  5
17
330
9
100
AcDbSymbolTableRecord
100
AcDbBlockTableRecord
  2
*Model_Space
340
1A
 70
0
280
1
281
0
  0
BLOCK_RECORD
  5
1B
330
9
100
AcDbSymbolTableRecord
100
AcDbBlockTableRecord
  2
*Paper_Space
340
1E
 70
0
280
1
281
0
  0
ENDTAB
  0
ENDSEC
  0
SECTION
  2
BLOCKS
  0
BLOCK
  5
18
330
17
100
AcDbEntity
  8
0
100
AcDbBlockBegin
  2
*Model_Space
 70
0
 10
0.0
 20
0.0
 30
0.0
  3
*Model_Space
  1

  0
ENDBLK
  5
19
330
17
100
AcDbEntity
  8
0
100
AcDbBlockEnd
  0
BLOCK
  5
1C
330
1B
100
AcDbEntity
  8
0
100
AcDbBlockBegin
  2
*Paper_Space
 70
0
 10
0.0
 20
0.0
 30
0.0
  3
*Paper_Space
  1

  0
ENDBLK
  5
1D
330
1B
100
AcDbEntity
  8
0
100
AcDbBlockEnd
  0
ENDSEC
  0
SECTION
  2
ENTITIES
  0
LINE
  5
3B
330
17
100
AcDbEntity
  8
Painéis
 62
200
370
25
100
AcDbLine
 10
8771.80929542367
 20
4128.960392164601
 30
0.0
 11
8892.809295423676
 21
4128.96039216462
 31
0.0
  0
LINE
  5
3C
330
17
100
AcDbEntity
  8
Painéis
 62
200
370
25
100
AcDbLine
 10
8857.295386927415
 20
4356.057479440686
 30
0.0
 11
8172.795386927411
 21
4356.057479440686
 31
0.0
  0
LINE
  5
3D
330
17
100
AcDbEntity
  8
Painéis
 62
200
370
25
100
AcDbLine
 10
8857.295386927412
 20
4297.057479440685
 30
0.0
 11
8172.795386927411
 21
4297.057479440685
 31
0.0
  0
LINE
  5
3E
330
17
100
AcDbEntity
  8
Painéis
 62
200
370
25
100
AcDbLine
 10
8660.795386927412
 20
4297.057479440701
 30
0.0
 11
8660.795386927412
 21
4356.0574794407
 31
0.0
  0
LINE
  5
3F
330
17
100
AcDbEntity
  8
Painéis
 62
200
370
25
100
AcDbLine
 10
8172.795386927411
 20
4297.057479440685
 30
0.0
 11
8172.795386927411
 21
4356.057479440686
 31
0.0
  0
LINE
  5
40
330
17
100
AcDbEntity
  8
Painéis
 62
200
370
25
100
AcDbLine
 10
8857.295386927412
 20
4297.057479440685
 30
0.0
 11
8857.295386927412
 21
4356.057479440686
 31
0.0
  0
LINE
  5
41
330
17
100
AcDbEntity
  8
Painéis
 62
200
370
25
100
AcDbLine
 10
8416.795386927412
 20
4297.057479440701
 30
0.0
 11
8416.795386927412
 21
4356.0574794407
 31
0.0
  0
LINE
  5
42
330
17
100
AcDbEntity
  8
Painéis
 62
200
370
25
100
AcDbLine
 10
8298.809295423684
 20
4142.960392164624
 30
0.0
 11
8174.809295423683
 21
4142.960392164624
 31
0.0
  0
LINE
  5
43
330
17
100
AcDbEntity
  8
Painéis
 62
200
370
25
100
AcDbLine
 10
8320.809295423676
 20
4083.960392164625
 30
0.0
 11
8174.809295423676
 21
4083.960392164625
 31
0.0
  0
LINE
  5
44
330
17
100
AcDbEntity
  8
Painéis
 62
200
370
25
100
AcDbLine
 10
8174.809295423676
 20
4083.960392164639
 30
0.0
 11
8174.809295423683
 21
4142.960392164639
 31
0.0
  0
LINE
  5
45
330
17
100
AcDbEntity
  8
Painéis
 62
200
370
25
100
AcDbLine
 10
8744.809295423676
 20
4083.960392164596
 30
0.0
 11
8892.809295423676
 21
4083.960392164621
 31
0.0
  0
LINE
  5
46
330
17
100
AcDbEntity
  8
Painéis
 62
200
370
25
100
AcDbLine
 10
8892.809295423676
 20
4083.960392164621
 30
0.0
 11
8892.809295423676
 21
4128.96039216462
 31
0.0
  0
LINE
  5
47
330
17
100
AcDbEntity
  8
Painéis
 62
200
370
25
100
AcDbLine
 10
8744.809295423676
 20
4083.960392164596
 30
0.0
 11
8744.809295423676
 21
4088.960392164597
 31
0.0
  0
LINE
  5
48
330
17
100
AcDbEntity
  8
COTA
 62
241
370
25
100
AcDbLine
 10
8744.809295423673
 20
4142.960392164595
 30
0.0
 11
8892.809295423673
 21
4142.960392164595
 31
0.0
  0
LINE
  5
49
330
17
100
AcDbEntity
  8
COTA
 62
241
370
25
100
AcDbLine
 10
8892.809295423673
 20
4142.960392164595
 30
0.0
 11
8892.809295423676
 21
4128.96039216462
 31
0.0
  0
LINE
  5
4A
330
17
100
AcDbEntity
  8
SARR_2.2x7
 62
40
370
25
100
AcDbLine
 10
8850.295386927412
 20
4297.056912395368
 30
0.0
 11
8850.295386927412
 21
4356.057479440686
 31
0.0
  0
LINE
  5
4B
330
17
100
AcDbEntity
  8
Painéis
 62
200
370
25
100
AcDbLine
 10
8320.809295423673
 20
4142.960392164623
 30
0.0
 11
8744.809295423676
 21
4142.960392164648
 31
0.0
  0
LINE
  5
4C
330
17
100
AcDbEntity
  8
Painéis
 62
200
370
25
100
AcDbLine
 10
8320.809295423676
 20
4083.960392164622
 30
0.0
 11
8744.809295423676
 21
4083.960392164648
 31
0.0
  0
LINE
  5
4D
330
17
100
AcDbEntity
  8
Painéis
 62
200
370
25
100
AcDbLine
 10
8564.809295423676
 20
4083.960392164637
 30
0.0
 11
8564.809295423676
 21
4142.960392164638
 31
0.0
  0
LINE
  5
4E
330
17
100
AcDbEntity
  8
Painéis
 62
200
370
25
100
AcDbLine
 10
8744.809295423676
 20
4083.960392164648
 30
0.0
 11
8744.809295423676
 21
4142.960392164648
 31
0.0
  0
LINE
  5
4F
330
17
100
AcDbEntity
  8
Painéis
 62
200
370
25
100
AcDbLine
 10
8320.809295423676
 20
4083.960392164622
 30
0.0
 11
8320.809295423676
 21
4142.960392164623
 31
0.0
  0
LINE
  5
50
330
17
100
AcDbEntity
  8
Painéis
 62
200
370
25
100
AcDbLine
 10
8298.809295423684
 20
4142.960392164624
 30
0.0
 11
8298.809295423684
 21
4088.960392164625
 31
0.0
  0
LINE
  5
51
330
17
100
AcDbEntity
  8
Painéis
 62
200
370
25
100
AcDbLine
 10
8298.809295423684
 20
4088.960392164625
 30
0.0
 11
8320.809295423676
 21
4088.960392164623
 31
0.0
  0
LINE
  5
52
330
17
100
AcDbEntity
  8
COTA
 62
241
370
25
100
AcDbLine
 10
8298.809295423684
 20
4142.960392164624
 30
0.0
 11
8320.809295423684
 21
4142.960392164624
 31
0.0
  0
LINE
  5
53
330
17
100
AcDbEntity
  8
Painéis
 62
200
370
25
100
AcDbLine
 10
8744.809295423676
 20
4088.960392164596
 30
0.0
 11
8771.809295423676
 21
4088.960392164596
 31
0.0
  0
LINE
  5
54
330
17
100
AcDbEntity
  8
Painéis
 62
200
370
25
100
AcDbLine
 10
8771.809295423676
 20
4088.960392164596
 30
0.0
 11
8771.80929542367
 21
4128.960392164601
 31
0.0
  0
LINE
  5
55
330
17
100
AcDbEntity
  8
SARR_2.2x7
 62
40
370
25
100
AcDbLine
 10
8172.795386927411
 20
4349.057479440777
 30
0.0
 11
8416.795386927415
 21
4349.057479440797
 31
0.0
  0
LINE
  5
56
330
17
100
AcDbEntity
  8
SARR_2.2x7
 62
40
370
25
100
AcDbLine
 10
8416.795386927415
 20
4349.057479440795
 30
0.0
 11
8660.795386927415
 21
4349.057479440591
 31
0.0
  0
LINE
  5
57
330
17
100
AcDbEntity
  8
SARR_2.2x7
 62
40
370
25
100
AcDbLine
 10
8197.795386927412
 20
4304.057479440614
 30
0.0
 11
8416.795386927415
 21
4304.057479440596
 31
0.0
  0
LINE
  5
58
330
17
100
AcDbEntity
  8
SARR_2.2x7
 62
40
370
25
100
AcDbLine
 10
8511.795386927412
 20
4304.057479440591
 30
0.0
 11
8660.795386927412
 21
4304.057479440582
 31
0.0
  0
LINE
  5
59
330
17
100
AcDbEntity
  8
SARR_2.2x7
 62
40
370
25
100
AcDbLine
 10
8511.795386927412
 20
4323.057479440772
 30
0.0
 11
8660.795386927415
 21
4323.057479440645
 31
0.0
  0
LINE
  5
5A
330
17
100
AcDbEntity
  8
SARR_2.2x7
 62
40
370
25
100
AcDbLine
 10
8511.795386927412
 20
4330.057479440627
 30
0.0
 11
8660.795386927415
 21
4330.057479440755
 31
0.0
  0
LINE
  5
5B
330
17
100
AcDbEntity
  8
SARR_2.2x7
 62
40
370
25
100
AcDbLine
 10
8197.795386927412
 20
4323.057479440834
 30
0.0
 11
8416.795386927393
 21
4323.05747944085
 31
0.0
  0
LINE
  5
5C
330
17
100
AcDbEntity
  8
SARR_2.2x7
 62
40
370
25
100
AcDbLine
 10
8197.795386927412
 20
4330.057479440531
 30
0.0
 11
8416.795386927419
 21
4330.057479440549
 31
0.0
  0
LINE
  5
5D
330
17
100
AcDbEntity
  8
SARR_2.2x7
 62
40
370
25
100
AcDbLine
 10
8660.795386927415
 20
4349.057479440797
 30
0.0
 11
8857.295386927412
 21
4349.057479440631
 31
0.0
  0
LINE
  5
5E
330
17
100
AcDbEntity
  8
SARR_2.2x7
 62
40
370
25
100
AcDbLine
 10
8660.795386927415
 20
4304.057479440596
 30
0.0
 11
8771.295386927412
 21
4304.05747944059
 31
0.0
  0
LINE
  5
5F
330
17
100
AcDbEntity
  8
SARR_2.2x7
 62
40
370
25
100
AcDbLine
 10
8660.795386927419
 20
4323.05747944085
 30
0.0
 11
8771.295386927412
 21
4323.057479440757
 31
0.0
  0
LINE
  5
60
330
17
100
AcDbEntity
  8
SARR_2.2x7
 62
40
370
25
100
AcDbLine
 10
8660.795386927419
 20
4330.057479440549
 30
0.0
 11
8771.295386927412
 21
4330.057479440642
 31
0.0
  0
LINE
  5
61
330
17
100
AcDbEntity
  8
SARR_2.2x7
 62
40
370
25
100
AcDbLine
 10
8226.809295423676
 20
4083.960392164629
 30
0.0
 11
8226.809295423676
 21
4090.960392164563
 31
0.0
  0
LINE
  5
62
330
17
100
AcDbEntity
  8
SARR_2.2x7
 62
40
370
25
100
AcDbLine
 10
8226.809295423676
 20
4109.960392164793
 30
0.0
 11
8226.809295423676
 21
4116.960392164492
 31
0.0
  0
LINE
  5
63
330
17
100
AcDbEntity
  8
SARR_2.2x7
 62
40
370
25
100
AcDbLine
 10
8327.764154664492
 20
4135.960392164715
 30
0.0
 11
8564.809295423676
 21
4135.960392164734
 31
0.0
  0
LINE
  5
64
330
17
100
AcDbEntity
  8
SARR_2.2x7
 62
40
370
25
100
AcDbLine
 10
8327.764154664494
 20
4083.960392164619
 30
0.0
 11
8327.764154664485
 21
4142.960392164623
 31
0.0
  0
LINE
  5
65
330
17
100
AcDbEntity
  8
SARR_2.2x7
 62
40
370
25
100
AcDbLine
 10
8327.764154664492
 20
4090.960392164552
 30
0.0
 11
8486.809295423674
 21
4090.960392164538
 31
0.0
  0
LINE
  5
66
330
17
100
AcDbEntity
  8
SARR_2.2x7
 62
40
370
25
100
AcDbLine
 10
8327.764154664465
 20
4109.96039216477
 30
0.0
 11
8486.809295423674
 21
4109.960392164782
 31
0.0
  0
LINE
  5
67
330
17
100
AcDbEntity
  8
SARR_2.2x7
 62
40
370
25
100
AcDbLine
 10
8327.764154664492
 20
4116.960392164468
 30
0.0
 11
8486.809295423674
 21
4116.96039216448
 31
0.0
  0
LINE
  5
68
330
17
100
AcDbEntity
  8
SARR_2.2x7
 62
40
370
25
100
AcDbLine
 10
8778.764154664486
 20
4121.960392164694
 30
0.0
 11
8892.809295423676
 21
4121.960392164704
 31
0.0
  0
LINE
  5
69
330
17
100
AcDbEntity
  8
SARR_2.2x7
 62
40
370
25
100
AcDbLine
 10
8778.764154664486
 20
4090.960392164534
 30
0.0
 11
8778.764154664486
 21
4128.960392164601
 31
0.0
  0
LINE
  5
6A
330
17
100
AcDbEntity
  8
SARR_2.2x7
 62
40
370
25
100
AcDbLine
 10
8771.809295423676
 20
4090.960392164535
 30
0.0
 11
8796.809295423673
 21
4090.960392164532
 31
0.0
  0
LINE
  5
6B
330
17
100
AcDbEntity
  8
SARR_2.2x7
 62
40
370
25
100
AcDbLine
 10
8291.854436182866
 20
4135.960392164732
 30
0.0
 11
8174.809295423679
 21
4135.960392164738
 31
0.0
  0
LINE
  5
6C
330
17
100
AcDbEntity
  8
SARR_2.2x7
 62
40
370
25
100
AcDbLine
 10
8291.854436182866
 20
4090.960392164568
 30
0.0
 11
8291.854436182866
 21
4142.960392164639
 31
0.0
  0
LINE
  5
6D
330
17
100
AcDbEntity
  8
SARR_2.2x7
 62
40
370
25
100
AcDbLine
 10
8298.809295423684
 20
4090.960392164568
 30
0.0
 11
8226.809295423676
 21
4090.960392164563
 31
0.0
  0
LINE
  5
6E
330
17
100
AcDbEntity
  8
SARR_2.2x7
 62
40
370
25
100
AcDbLine
 10
8291.854436182886
 20
4109.960392164786
 30
0.0
 11
8226.809295423676
 21
4109.960392164793
 31
0.0
  0
LINE
  5
6F
330
17
100
AcDbEntity
  8
SARR_2.2x7
 62
40
370
25
100
AcDbLine
 10
8291.854436182866
 20
4116.960392164485
 30
0.0
 11
8226.809295423676
 21
4116.960392164492
 31
0.0
  0
LINE
  5
70
330
17
100
AcDbEntity
  8
SARR_2.2x7
 62
40
370
25
100
AcDbLine
 10
8737.854436182855
 20
4135.960392164703
 30
0.0
 11
8564.809295423676
 21
4135.960392164714
 31
0.0
  0
LINE
  5
71
330
17
100
AcDbEntity
  8
SARR_2.2x7
 62
40
370
25
100
AcDbLine
 10
8737.854436182855
 20
4083.960392164648
 30
0.0
 11
8737.854436182859
 21
4142.96039216461
 31
0.0
  0
LINE
  5
72
330
17
100
AcDbEntity
  8
SARR_2.2x7
 62
40
370
25
100
AcDbLine
 10
8737.854436182852
 20
4090.960392164538
 30
0.0
 11
8576.809295423676
 21
4090.960392164525
 31
0.0
  0
LINE
  5
73
330
17
100
AcDbEntity
  8
SARR_2.2x7
 62
40
370
25
100
AcDbLine
 10
8737.854436182883
 20
4109.960392164757
 30
0.0
 11
8576.809295423676
 21
4109.960392164771
 31
0.0
  0
LINE
  5
74
330
17
100
AcDbEntity
  8
SARR_2.2x7
 62
40
370
25
100
AcDbLine
 10
8737.854436182855
 20
4116.960392164456
 30
0.0
 11
8576.80929542368
 21
4116.960392164475
 31
0.0
  0
LINE
  5
75
330
17
100
AcDbEntity
  8
SARR_2.2x7
 62
40
370
25
100
AcDbLine
 10
8796.809295423676
 20
4083.960392164623
 30
0.0
 11
8796.809295423676
 21
4090.960392164532
 31
0.0
  0
LINE
  5
76
330
17
100
AcDbEntity
  8
SARR_2.2x7
 62
40
370
25
100
AcDbLine
 10
8796.809295423676
 20
4102.96039216477
 30
0.0
 11
8796.809295423676
 21
4109.960392164469
 31
0.0
  0
LINE
  5
77
330
17
100
AcDbEntity
  8
SARR_2.2x7
 62
40
370
25
100
AcDbLine
 10
8197.795386927412
 20
4297.057479440682
 30
0.0
 11
8197.795386927412
 21
4304.057479440614
 31
0.0
  0
LINE
  5
78
330
17
100
AcDbEntity
  8
SARR_2.2x7
 62
40
370
25
100
AcDbLine
 10
8197.795386927412
 20
4323.057479440834
 30
0.0
 11
8197.795386927412
 21
4330.057479440529
 31
0.0
  0
LINE
  5
79
330
17
100
AcDbEntity
  8
SARR_2.2x7
 62
40
370
25
100
AcDbLine
 10
8511.795386927412
 20
4297.057479440682
 30
0.0
 11
8511.795386927412
 21
4304.05747944059
 31
0.0
  0
LINE
  5
7A
330
17
100
AcDbEntity
  8
SARR_2.2x7
 62
40
370
25
100
AcDbLine
 10
8511.795386927412
 20
4323.057479440773
 30
0.0
 11
8511.795386927412
 21
4330.057479440626
 31
0.0
  0
LINE
  5
7B
330
17
100
AcDbEntity
  8
SARR_2.2x7
 62
40
370
25
100
AcDbLine
 10
8771.295386927412
 20
4297.057479440685
 30
0.0
 11
8771.295386927412
 21
4304.057479440591
 31
0.0
  0
LINE
  5
7C
330
17
100
AcDbEntity
  8
SARR_2.2x7
 62
40
370
25
100
AcDbLine
 10
8771.295386927412
 20
4323.057479440758
 30
0.0
 11
8771.295386927412
 21
4330.057479440642
 31
0.0
  0
LINE
  5
7D
330
17
100
AcDbEntity
  8
SARR_2.2x7
 62
40
370
25
100
AcDbLine
 10
8771.295386927412
 20
4356.057479440686
 30
0.0
 11
8771.295386927412
 21
4356.395528749129
 31
0.0
  0
LINE
  5
7E
330
17
100
AcDbEntity
  8
SARR_2.2x7
 62
40
370
25
100
AcDbLine
 10
8486.809295423674
 20
4116.960392164481
 30
0.0
 11
8486.809295423674
 21
4083.960392164634
 31
0.0
  0
LINE
  5
7F
330
17
100
AcDbEntity
  8
SARR_2.2x7
 62
40
370
25
100
AcDbLine
 10
8576.809295423676
 20
4116.960392164474
 30
0.0
 11
8576.809295423676
 21
4109.96039216477
 31
0.0
  0
LINE
  5
80
330
17
100
AcDbEntity
  8
SARR_2.2x7
 62
40
370
25
100
AcDbLine
 10
8576.809295423676
 20
4090.960392164525
 30
0.0
 11
8576.809295423676
 21
4083.960392164639
 31
0.0
  0
LINE
  5
81
330
17
100
AcDbEntity
  8
SARR_2.2x7
 62
40
370
25
100
AcDbLine
 10
8796.809295423676
 20
4102.96039216477
 30
0.0
 11
8778.764154664486
 21
4102.96039216477
 31
0.0
  0
LINE
  5
82
330
17
100
AcDbEntity
  8
SARR_2.2x7
 62
40
370
25
100
AcDbLine
 10
8796.809295423676
 20
4109.960392164469
 30
0.0
 11
8778.764154664486
 21
4109.960392164472
 31
0.0
  0
LINE
  5
83
330
17
100
AcDbEntity
  8
COTA
 62
4
370
25
100
AcDbLine
 10
8857.295386927412
 20
4294.057479440685
 30
0.0
 11
8857.295386927412
 21
4267.51755346253
 31
0.0
  0
LINE
  5
84
330
17
100
AcDbEntity
  8
COTA
 62
4
370
25
100
AcDbLine
 10
8660.795386927412
 20
4294.057479440715
 30
0.0
 11
8660.795386927412
 21
4267.51755346253
 31
0.0
  0
LINE
  5
85
330
17
100
AcDbEntity
  8
COTA
 62
4
370
25
100
AcDbLine
 10
8857.295386927412
 20
4270.51755346253
 30
0.0
 11
8660.795386927412
 21
4270.51755346253
 31
0.0
  0
LINE
  5
86
330
17
100
AcDbEntity
  8
COTA
 62
0
370
25
100
AcDbLine
 10
8855.795386927412
 20
4269.01755346253
 30
0.0
 11
8858.795386927412
 21
4272.01755346253
 31
0.0
  0
LINE
  5
87
330
17
100
AcDbEntity
  8
COTA
 62
0
370
25
100
AcDbLine
 10
8662.295386927412
 20
4272.01755346253
 30
0.0
 11
8659.295386927412
 21
4269.01755346253
 31
0.0
  0
LINE
  5
88
330
17
100
AcDbEntity
  8
COTA
 62
4
370
25
100
AcDbLine
 10
8857.295386927412
 20
4294.057479440685
 30
0.0
 11
8857.295386927412
 21
4233.979042773775
 31
0.0
  0
LINE
  5
89
330
17
100
AcDbEntity
  8
COTA
 62
4
370
25
100
AcDbLine
 10
8172.795386927411
 20
4294.057479440685
 30
0.0
 11
8172.795386927411
 21
4233.979042773775
 31
0.0
  0
LINE
  5
8A
330
17
100
AcDbEntity
  8
COTA
 62
4
370
25
100
AcDbLine
 10
8857.295386927412
 20
4236.979042773775
 30
0.0
 11
8172.795386927411
 21
4236.979042773775
 31
0.0
  0
LINE
  5
8B
330
17
100
AcDbEntity
  8
COTA
 62
0
370
25
100
AcDbLine
 10
8855.795386927412
 20
4235.479042773775
 30
0.0
 11
8858.795386927412
 21
4238.479042773775
 31
0.0
  0
LINE
  5
8C
330
17
100
AcDbEntity
  8
COTA
 62
0
370
25
100
AcDbLine
 10
8174.295386927411
 20
4238.479042773775
 30
0.0
 11
8171.295386927411
 21
4235.479042773775
 31
0.0
  0
LINE
  5
8D
330
17
100
AcDbEntity
  8
COTA
 62
4
370
25
100
AcDbLine
 10
8660.795386927412
 20
4294.057479440685
 30
0.0
 11
8660.795386927412
 21
4267.51755346253
 31
0.0
  0
LINE
  5
8E
330
17
100
AcDbEntity
  8
COTA
 62
4
370
25
100
AcDbLine
 10
8416.795386927412
 20
4294.057479440715
 30
0.0
 11
8416.795386927412
 21
4267.51755346253
 31
0.0
  0
LINE
  5
8F
330
17
100
AcDbEntity
  8
COTA
 62
4
370
25
100
AcDbLine
 10
8660.795386927412
 20
4270.51755346253
 30
0.0
 11
8416.795386927412
 21
4270.51755346253
 31
0.0
  0
LINE
  5
90
330
17
100
AcDbEntity
  8
COTA
 62
0
370
25
100
AcDbLine
 10
8659.295386927412
 20
4269.01755346253
 30
0.0
 11
8662.295386927412
 21
4272.01755346253
 31
0.0
  0
LINE
  5
91
330
17
100
AcDbEntity
  8
COTA
 62
0
370
25
100
AcDbLine
 10
8418.295386927412
 20
4272.01755346253
 30
0.0
 11
8415.295386927412
 21
4269.01755346253
 31
0.0
  0
LINE
  5
92
330
17
100
AcDbEntity
  8
COTA
 62
4
370
25
100
AcDbLine
 10
8416.795386927412
 20
4294.057479440715
 30
0.0
 11
8416.795386927412
 21
4267.517553462538
 31
0.0
  0
LINE
  5
93
330
17
100
AcDbEntity
  8
COTA
 62
4
370
25
100
AcDbLine
 10
8172.795386927411
 20
4294.057479440685
 30
0.0
 11
8172.795386927411
 21
4267.517553462538
 31
0.0
  0
LINE
  5
94
330
17
100
AcDbEntity
  8
COTA
 62
4
370
25
100
AcDbLine
 10
8416.795386927412
 20
4270.517553462537
 30
0.0
 11
8172.795386927411
 21
4270.517553462537
 31
0.0
  0
LINE
  5
95
330
17
100
AcDbEntity
  8
COTA
 62
0
370
25
100
AcDbLine
 10
8415.295386927412
 20
4269.017553462537
 30
0.0
 11
8418.295386927412
 21
4272.017553462537
 31
0.0
  0
LINE
  5
96
330
17
100
AcDbEntity
  8
COTA
 62
0
370
25
100
AcDbLine
 10
8174.295386927411
 20
4272.017553462537
 30
0.0
 11
8171.295386927411
 21
4269.017553462537
 31
0.0
  0
LINE
  5
97
330
17
100
AcDbEntity
  8
COTA
 62
4
370
25
100
AcDbLine
 10
8485.204078015415
 20
4468.428381263175
 30
0.0
 11
8528.475810773833
 21
4468.428381263175
 31
0.0
  0
LINE
  5
98
330
17
100
AcDbEntity
  8
COTA
 62
4
370
25
100
AcDbLine
 10
8469.604078015424
 20
4586.428381263174
 30
0.0
 11
8528.475810773833
 21
4586.428381263174
 31
0.0
  0
LINE
  5
99
330
17
100
AcDbEntity
  8
COTA
 62
4
370
25
100
AcDbLine
 10
8525.475810773833
 20
4468.428381263175
 30
0.0
 11
8525.475810773833
 21
4586.428381263174
 31
0.0
  0
LINE
  5
9A
330
17
100
AcDbEntity
  8
Cota Seção (2x)
 62
180
370
25
100
AcDbLine
 10
8444.104078017064
 20
4536.761714596473
 30
0.0
 11
8444.104078017064
 21
4556.095047929807
 31
0.0
  0
LINE
  5
9B
330
17
100
AcDbEntity
  8
Cota Seção (2x)
 62
180
370
25
100
AcDbLine
 10
8444.104078017064
 20
4556.095047929807
 30
0.0
 11
8429.104078017064
 21
4556.095047929807
 31
0.0
  0
LINE
  5
9C
330
17
100
AcDbEntity
  8
Cota Seção (2x)
 62
180
370
25
100
AcDbLine
 10
8429.104078017064
 20
4556.095047929807
 30
0.0
 11
8429.104078017064
 21
4536.761714596473
 31
0.0
  0
LINE
  5
9D
330
17
100
AcDbEntity
  8
Cota Seção (2x)
 62
180
370
25
100
AcDbLine
 10
8429.104078017064
 20
4536.761714596473
 30
0.0
 11
8444.104078017064
 21
4536.761714596473
 31
0.0
  0
LINE
  5
9E
330
17
100
AcDbEntity
  8
COTA
 62
4
370
25
100
AcDbLine
 10
8399.204078015415
 20
4586.428381263174
 30
0.0
 11
8318.946783412119
 21
4586.428381263174
 31
0.0
  0
LINE
  5
9F
330
17
100
AcDbEntity
  8
COTA
 62
4
370
25
100
AcDbLine
 10
8374.004078015432
 20
4468.428381263175
 30
0.0
 11
8318.946783412119
 21
4468.428381263175
 31
0.0
  0
LINE
  5
A0
330
17
100
AcDbEntity
  8
COTA
 62
4
370
25
100
AcDbLine
 10
8321.946783412119
 20
4586.428381263174
 30
0.0
 11
8321.946783412119
 21
4468.428381263175
 31
0.0
  0
LINE
  5
A1
330
17
100
AcDbEntity
  8
COTA
 62
4
370
25
100
AcDbLine
 10
8410.604078015405
 20
4465.428381263165
 30
0.0
 11
8410.604078015405
 21
4420.701567460983
 31
0.0
  0
LINE
  5
A2
330
17
100
AcDbEntity
  8
COTA
 62
4
370
25
100
AcDbLine
 10
8448.604078015405
 20
4465.428381263165
 30
0.0
 11
8448.604078015405
 21
4420.701567460983
 31
0.0
  0
LINE
  5
A3
330
17
100
AcDbEntity
  8
COTA
 62
4
370
25
100
AcDbLine
 10
8410.604078015405
 20
4423.701567460983
 30
0.0
 11
8448.604078015405
 21
4423.701567460983
 31
0.0
  0
LINE
  5
A4
330
17
100
AcDbEntity
  8
Cota Seção (2x)
 62
180
370
25
100
AcDbLine
 10
8420.604078015378
 20
4488.428381263172
 30
0.0
 11
8438.604078015376
 21
4488.428381263172
 31
0.0
  0
LINE
  5
A5
330
17
100
AcDbEntity
  8
Cota Seção (2x)
 62
180
370
25
100
AcDbLine
 10
8438.604078015376
 20
4488.428381263172
 30
0.0
 11
8438.604078015376
 21
4503.428381263172
 31
0.0
  0
LINE
  5
A6
330
17
100
AcDbEntity
  8
Cota Seção (2x)
 62
180
370
25
100
AcDbLine
 10
8438.604078015376
 20
4503.428381263172
 30
0.0
 11
8420.604078015378
 21
4503.428381263172
 31
0.0
  0
LINE
  5
A7
330
17
100
AcDbEntity
  8
Cota Seção (2x)
 62
180
370
25
100
AcDbLine
 10
8420.604078015378
 20
4503.428381263172
 30
0.0
 11
8420.604078015378
 21
4488.428381263172
 31
0.0
  0
LINE
  5
A8
330
17
100
AcDbEntity
  8
COTA
 62
4
370
25
100
AcDbLine
 10
8732.094816633266
 20
4468.428381263175
 30
0.0
 11
8806.471539722656
 21
4468.428381263175
 31
0.0
  0
LINE
  5
A9
330
17
100
AcDbEntity
  8
COTA
 62
4
370
25
100
AcDbLine
 10
8754.094816633266
 20
4586.428381263167
 30
0.0
 11
8806.471539722656
 21
4586.428381263167
 31
0.0
  0
LINE
  5
AA
330
17
100
AcDbEntity
  8
COTA
 62
4
370
25
100
AcDbLine
 10
8803.471539722656
 20
4468.428381263175
 30
0.0
 11
8803.471539722656
 21
4586.428381263167
 31
0.0
  0
LINE
  5
AB
330
17
100
AcDbEntity
  8
COTA
 62
4
370
25
100
AcDbLine
 10
8620.894816633283
 20
4468.428381263175
 30
0.0
 11
8577.623083875149
 21
4468.428381263175
 31
0.0
  0
LINE
  5
AC
330
17
100
AcDbEntity
  8
COTA
 62
4
370
25
100
AcDbLine
 10
8636.49481663328
 20
4586.428381263174
 30
0.0
 11
8577.623083875149
 21
4586.428381263174
 31
0.0
  0
LINE
  5
AD
330
17
100
AcDbEntity
  8
COTA
 62
4
370
25
100
AcDbLine
 10
8580.623083875149
 20
4468.428381263175
 30
0.0
 11
8580.623083875149
 21
4586.428381263174
 31
0.0
  0
LINE
  5
AE
330
17
100
AcDbEntity
  8
Cota Seção (2x)
 62
180
370
25
100
AcDbLine
 10
8675.014855313957
 20
4536.761714596473
 30
0.0
 11
8675.014855313957
 21
4556.095047929807
 31
0.0
  0
LINE
  5
AF
330
17
100
AcDbEntity
  8
Cota Seção (2x)
 62
180
370
25
100
AcDbLine
 10
8675.014855313957
 20
4556.095047929807
 30
0.0
 11
8660.014855313959
 21
4556.095047929807
 31
0.0
  0
LINE
  5
B0
330
17
100
AcDbEntity
  8
Cota Seção (2x)
 62
180
370
25
100
AcDbLine
 10
8660.014855313959
 20
4556.095047929807
 30
0.0
 11
8660.014855313959
 21
4536.761714596473
 31
0.0
  0
LINE
  5
B1
330
17
100
AcDbEntity
  8
Cota Seção (2x)
 62
180
370
25
100
AcDbLine
 10
8660.014855313959
 20
4536.761714596473
 30
0.0
 11
8675.014855313957
 21
4536.761714596473
 31
0.0
  0
LINE
  5
B2
330
17
100
AcDbEntity
  8
COTA
 62
4
370
25
100
AcDbLine
 10
8754.094816633266
 20
4586.428381263167
 30
0.0
 11
8787.152111237187
 21
4586.428381263167
 31
0.0
  0
LINE
  5
B3
330
17
100
AcDbEntity
  8
COTA
 62
4
370
25
100
AcDbLine
 10
8754.094816633266
 20
4562.428381263145
 30
0.0
 11
8787.152111237187
 21
4562.428381263145
 31
0.0
  0
LINE
  5
B4
330
17
100
AcDbEntity
  8
COTA
 62
4
370
25
100
AcDbLine
 10
8784.152111237187
 20
4586.428381263167
 30
0.0
 11
8784.152111237187
 21
4562.428381263145
 31
0.0
  0
LINE
  5
B5
330
17
100
AcDbEntity
  8
COTA
 62
4
370
25
100
AcDbLine
 10
8754.094816633266
 20
4558.428381263145
 30
0.0
 11
8787.152111236863
 21
4558.428381263145
 31
0.0
  0
LINE
  5
B6
330
17
100
AcDbEntity
  8
COTA
 62
4
370
25
100
AcDbLine
 10
8732.094816633266
 20
4468.428381263175
 30
0.0
 11
8787.152111236863
 21
4468.428381263175
 31
0.0
  0
LINE
  5
B7
330
17
100
AcDbEntity
  8
COTA
 62
4
370
25
100
AcDbLine
 10
8784.152111236863
 20
4558.428381263145
 30
0.0
 11
8784.152111236863
 21
4468.428381263175
 31
0.0
  0
LINE
  5
B8
330
17
100
AcDbEntity
  8
COTA
 62
4
370
25
100
AcDbLine
 10
8695.494816633285
 20
4465.428381263165
 30
0.0
 11
8695.494816633285
 21
4420.701567460983
 31
0.0
  0
LINE
  5
B9
330
17
100
AcDbEntity
  8
COTA
 62
4
370
25
100
AcDbLine
 10
8657.494816633287
 20
4465.428381263165
 30
0.0
 11
8657.494816633287
 21
4420.701567460983
 31
0.0
  0
LINE
  5
BA
330
17
100
AcDbEntity
  8
COTA
 62
4
370
25
100
AcDbLine
 10
8695.494816633285
 20
4423.701567460983
 30
0.0
 11
8657.494816633287
 21
4423.701567460983
 31
0.0
  0
LINE
  5
BB
330
17
100
AcDbEntity
  8
Cota Seção (2x)
 62
180
370
25
100
AcDbLine
 10
8667.494816633312
 20
4488.428381263172
 30
0.0
 11
8685.494816633314
 21
4488.428381263172
 31
0.0
  0
LINE
  5
BC
330
17
100
AcDbEntity
  8
Cota Seção (2x)
 62
180
370
25
100
AcDbLine
 10
8685.494816633314
 20
4488.428381263172
 30
0.0
 11
8685.494816633314
 21
4503.428381263172
 31
0.0
  0
LINE
  5
BD
330
17
100
AcDbEntity
  8
Cota Seção (2x)
 62
180
370
25
100
AcDbLine
 10
8685.494816633314
 20
4503.428381263172
 30
0.0
 11
8667.494816633312
 21
4503.428381263172
 31
0.0
  0
LINE
  5
BE
330
17
100
AcDbEntity
  8
Cota Seção (2x)
 62
180
370
25
100
AcDbLine
 10
8667.494816633312
 20
4503.428381263172
 30
0.0
 11
8667.494816633312
 21
4488.428381263172
 31
0.0
  0
LINE
  5
BF
330
17
100
AcDbEntity
  8
COTA
 62
4
370
25
100
AcDbLine
 10
8860.295386927417
 20
4297.057479440687
 30
0.0
 11
8887.652753508108
 21
4297.057479440687
 31
0.0
  0
LINE
  5
C0
330
17
100
AcDbEntity
  8
COTA
 62
4
370
25
100
AcDbLine
 10
8860.295386927417
 20
4356.057479440687
 30
0.0
 11
8887.652753508108
 21
4356.057479440687
 31
0.0
  0
LINE
  5
C1
330
17
100
AcDbEntity
  8
COTA
 62
4
370
25
100
AcDbLine
 10
8884.652753508108
 20
4297.057479440687
 30
0.0
 11
8884.652753508108
 21
4356.057479440687
 31
0.0
  0
LINE
  5
C2
330
17
100
AcDbEntity
  8
COTA
 62
0
370
25
100
AcDbLine
 10
8883.152753508108
 20
4298.557479440687
 30
0.0
 11
8886.152753508108
 21
4295.557479440687
 31
0.0
  0
LINE
  5
C3
330
17
100
AcDbEntity
  8
COTA
 62
0
370
25
100
AcDbLine
 10
8886.152753508108
 20
4354.557479440687
 30
0.0
 11
8883.152753508108
 21
4357.557479440687
 31
0.0
  0
LINE
  5
C4
330
17
100
AcDbEntity
  8
COTA
 62
4
370
25
100
AcDbLine
 10
8174.809295423676
 20
4080.960392164654
 30
0.0
 11
8174.809295423676
 21
4054.420466186453
 31
0.0
  0
LINE
  5
C5
330
17
100
AcDbEntity
  8
COTA
 62
4
370
25
100
AcDbLine
 10
8320.809295423676
 20
4080.960392164597
 30
0.0
 11
8320.809295423676
 21
4054.420466186453
 31
0.0
  0
LINE
  5
C6
330
17
100
AcDbEntity
  8
COTA
 62
4
370
25
100
AcDbLine
 10
8174.809295423676
 20
4057.420466186453
 30
0.0
 11
8320.809295423676
 21
4057.420466186453
 31
0.0
  0
LINE
  5
C7
330
17
100
AcDbEntity
  8
COTA
 62
0
370
25
100
AcDbLine
 10
8176.309295423676
 20
4058.920466186453
 30
0.0
 11
8173.309295423676
 21
4055.920466186453
 31
0.0
  0
LINE
  5
C8
330
17
100
AcDbEntity
  8
COTA
 62
0
370
25
100
AcDbLine
 10
8319.309295423676
 20
4055.920466186453
 30
0.0
 11
8322.309295423676
 21
4058.920466186453
 31
0.0
  0
LINE
  5
C9
330
17
100
AcDbEntity
  8
COTA
 62
4
370
25
100
AcDbLine
 10
8744.809295423676
 20
4080.960392164596
 30
0.0
 11
8744.809295423676
 21
4054.42046618644
 31
0.0
  0
LINE
  5
CA
330
17
100
AcDbEntity
  8
COTA
 62
4
370
25
100
AcDbLine
 10
8892.809295423676
 20
4080.960392164587
 30
0.0
 11
8892.809295423676
 21
4054.42046618644
 31
0.0
  0
LINE
  5
CB
330
17
100
AcDbEntity
  8
COTA
 62
4
370
25
100
AcDbLine
 10
8744.809295423676
 20
4057.420466186441
 30
0.0
 11
8892.809295423676
 21
4057.420466186441
 31
0.0
  0
LINE
  5
CC
330
17
100
AcDbEntity
  8
COTA
 62
0
370
25
100
AcDbLine
 10
8746.309295423676
 20
4058.920466186441
 30
0.0
 11
8743.309295423676
 21
4055.920466186441
 31
0.0
  0
LINE
  5
CD
330
17
100
AcDbEntity
  8
COTA
 62
0
370
25
100
AcDbLine
 10
8891.309295423676
 20
4055.920466186441
 30
0.0
 11
8894.309295423676
 21
4058.920466186441
 31
0.0
  0
LINE
  5
CE
330
17
100
AcDbEntity
  8
COTA
 62
4
370
25
100
AcDbLine
 10
8895.80929542368
 20
4083.960392164622
 30
0.0
 11
8915.807502367943
 21
4083.960392164622
 31
0.0
  0
LINE
  5
CF
330
17
100
AcDbEntity
  8
COTA
 62
4
370
25
100
AcDbLine
 10
8895.80929542368
 20
4128.960392164623
 30
0.0
 11
8915.807502367941
 21
4128.960392164623
 31
0.0
  0
LINE
  5
D0
330
17
100
AcDbEntity
  8
COTA
 62
4
370
25
100
AcDbLine
 10
8912.807502367943
 20
4083.960392164622
 30
0.0
 11
8912.807502367941
 21
4128.960392164623
 31
0.0
  0
LINE
  5
D1
330
17
100
AcDbEntity
  8
COTA
 62
0
370
25
100
AcDbLine
 10
8911.307502367943
 20
4085.460392164622
 30
0.0
 11
8914.307502367943
 21
4082.460392164622
 31
0.0
  0
LINE
  5
D2
330
17
100
AcDbEntity
  8
COTA
 62
0
370
25
100
AcDbLine
 10
8914.307502367941
 20
4127.460392164623
 30
0.0
 11
8911.307502367941
 21
4130.460392164623
 31
0.0
  0
LINE
  5
D3
330
17
100
AcDbEntity
  8
COTA
 62
4
370
25
100
AcDbLine
 10
8895.80929542368
 20
4128.960392164623
 30
0.0
 11
8915.807502367941
 21
4128.960392164623
 31
0.0
  0
LINE
  5
D4
330
17
100
AcDbEntity
  8
COTA
 62
4
370
25
100
AcDbLine
 10
8895.809295423676
 20
4142.960392164598
 30
0.0
 11
8915.807502367941
 21
4142.960392164598
 31
0.0
  0
LINE
  5
D5
330
17
100
AcDbEntity
  8
COTA
 62
4
370
25
100
AcDbLine
 10
8912.807502367941
 20
4128.960392164623
 30
0.0
 11
8912.807502367941
 21
4142.960392164598
 31
0.0
  0
LINE
  5
D6
330
17
100
AcDbEntity
  8
COTA
 62
4
370
25
100
AcDbLine
 10
8912.807502367941
 20
4142.960392164598
 30
0.0
 11
8912.807502367941
 21
4162.077351228925
 31
0.0
  0
LINE
  5
D7
330
17
100
AcDbEntity
  8
COTA
 62
0
370
25
100
AcDbLine
 10
8911.307502367941
 20
4130.460392164623
 30
0.0
 11
8914.307502367941
 21
4127.460392164623
 31
0.0
  0
LINE
  5
D8
330
17
100
AcDbEntity
  8
COTA
 62
0
370
25
100
AcDbLine
 10
8914.307502367941
 20
4141.460392164598
 30
0.0
 11
8911.307502367941
 21
4144.460392164598
 31
0.0
  0
LINE
  5
D9
330
17
100
AcDbEntity
  8
COTA
 62
4
370
25
100
AcDbLine
 10
8895.809295423676
 20
4142.960392164598
 30
0.0
 11
8935.946710986662
 21
4142.960392164598
 31
0.0
  0
LINE
  5
DA
330
17
100
AcDbEntity
  8
COTA
 62
4
370
25
100
AcDbLine
 10
8895.80929542368
 20
4083.960392164622
 30
0.0
 11
8935.946710986662
 21
4083.960392164622
 31
0.0
  0
LINE
  5
DB
330
17
100
AcDbEntity
  8
COTA
 62
4
370
25
100
AcDbLine
 10
8932.94671098666
 20
4142.960392164598
 30
0.0
 11
8932.946710986662
 21
4083.960392164622
 31
0.0
  0
LINE
  5
DC
330
17
100
AcDbEntity
  8
COTA
 62
0
370
25
100
AcDbLine
 10
8934.44671098666
 20
4141.460392164598
 30
0.0
 11
8931.44671098666
 21
4144.460392164598
 31
0.0
  0
LINE
  5
DD
330
17
100
AcDbEntity
  8
COTA
 62
0
370
25
100
AcDbLine
 10
8931.446710986662
 20
4085.460392164622
 30
0.0
 11
8934.446710986662
 21
4082.460392164622
 31
0.0
  0
LINE
  5
DE
330
17
100
AcDbEntity
  8
COTA
 62
4
370
25
100
AcDbLine
 10
8850.295386927412
 20
4294.057479440685
 30
0.0
 11
8850.295386927412
 21
4280.15403468479
 31
0.0
  0
LINE
  5
DF
330
17
100
AcDbEntity
  8
COTA
 62
4
370
25
100
AcDbLine
 10
8857.295386927412
 20
4294.057479440685
 30
0.0
 11
8857.295386927412
 21
4280.15403468479
 31
0.0
  0
LINE
  5
E0
330
17
100
AcDbEntity
  8
COTA
 62
4
370
25
100
AcDbLine
 10
8850.295386927412
 20
4283.15403468479
 30
0.0
 11
8857.295386927412
 21
4283.15403468479
 31
0.0
  0
LINE
  5
E1
330
17
100
AcDbEntity
  8
COTA
 62
4
370
25
100
AcDbLine
 10
8857.295386927412
 20
4283.15403468479
 30
0.0
 11
8872.026381079459
 21
4283.15403468479
 31
0.0
  0
LINE
  5
E2
330
17
100
AcDbEntity
  8
COTA
 62
0
370
25
100
AcDbLine
 10
8851.795386927412
 20
4284.65403468479
 30
0.0
 11
8848.795386927412
 21
4281.65403468479
 31
0.0
  0
LINE
  5
E3
330
17
100
AcDbEntity
  8
COTA
 62
0
370
25
100
AcDbLine
 10
8855.795386927412
 20
4281.65403468479
 30
0.0
 11
8858.795386927412
 21
4284.65403468479
 31
0.0
  0
LINE
  5
E4
330
17
100
AcDbEntity
  8
COTA
 62
4
370
25
100
AcDbLine
 10
8320.809295423676
 20
4080.960392164622
 30
0.0
 11
8320.809295423676
 21
4054.420466186467
 31
0.0
  0
LINE
  5
E5
330
17
100
AcDbEntity
  8
COTA
 62
4
370
25
100
AcDbLine
 10
8564.809295423676
 20
4080.960392164652
 30
0.0
 11
8564.809295423676
 21
4054.420466186467
 31
0.0
  0
LINE
  5
E6
330
17
100
AcDbEntity
  8
COTA
 62
4
370
25
100
AcDbLine
 10
8320.809295423676
 20
4057.420466186467
 30
0.0
 11
8564.809295423676
 21
4057.420466186467
 31
0.0
  0
LINE
  5
E7
330
17
100
AcDbEntity
  8
COTA
 62
0
370
25
100
AcDbLine
 10
8322.309295423676
 20
4058.920466186467
 30
0.0
 11
8319.309295423676
 21
4055.920466186467
 31
0.0
  0
LINE
  5
E8
330
17
100
AcDbEntity
  8
COTA
 62
0
370
25
100
AcDbLine
 10
8563.309295423676
 20
4055.920466186467
 30
0.0
 11
8566.309295423676
 21
4058.920466186467
 31
0.0
  0
LINE
  5
E9
330
17
100
AcDbEntity
  8
COTA
 62
4
370
25
100
AcDbLine
 10
8564.809295423676
 20
4080.960392164652
 30
0.0
 11
8564.809295423676
 21
4054.420466186479
 31
0.0
  0
LINE
  5
EA
330
17
100
AcDbEntity
  8
COTA
 62
4
370
25
100
AcDbLine
 10
8744.809295423676
 20
4080.960392164648
 30
0.0
 11
8744.809295423676
 21
4054.420466186479
 31
0.0
  0
LINE
  5
EB
330
17
100
AcDbEntity
  8
COTA
 62
4
370
25
100
AcDbLine
 10
8564.809295423676
 20
4057.420466186479
 30
0.0
 11
8744.809295423676
 21
4057.420466186479
 31
0.0
  0
LINE
  5
EC
330
17
100
AcDbEntity
  8
COTA
 62
0
370
25
100
AcDbLine
 10
8566.309295423676
 20
4058.920466186479
 30
0.0
 11
8563.309295423676
 21
4055.920466186479
 31
0.0
  0
LINE
  5
ED
330
17
100
AcDbEntity
  8
COTA
 62
0
370
25
100
AcDbLine
 10
8743.309295423676
 20
4055.920466186479
 30
0.0
 11
8746.309295423676
 21
4058.920466186479
 31
0.0
  0
LINE
  5
EE
330
17
100
AcDbEntity
  8
COTA
 62
4
370
25
100
AcDbLine
 10
8174.809295423676
 20
4080.960392164654
 30
0.0
 11
8174.809295423676
 21
4020.881955497745
 31
0.0
  0
LINE
  5
EF
330
17
100
AcDbEntity
  8
COTA
 62
4
370
25
100
AcDbLine
 10
8892.809295423676
 20
4080.960392164659
 30
0.0
 11
8892.809295423676
 21
4020.881955497745
 31
0.0
  0
LINE
  5
F0
330
17
100
AcDbEntity
  8
COTA
 62
4
370
25
100
AcDbLine
 10
8174.809295423676
 20
4023.881955497745
 30
0.0
 11
8892.809295423676
 21
4023.881955497745
 31
0.0
  0
LINE
  5
F1
330
17
100
AcDbEntity
  8
COTA
 62
0
370
25
100
AcDbLine
 10
8176.309295423676
 20
4025.381955497745
 30
0.0
 11
8173.309295423676
 21
4022.381955497745
 31
0.0
  0
LINE
  5
F2
330
17
100
AcDbEntity
  8
COTA
 62
0
370
25
100
AcDbLine
 10
8891.309295423676
 20
4022.381955497745
 30
0.0
 11
8894.309295423676
 21
4025.381955497745
 31
0.0
  0
LINE
  5
F3
330
17
100
AcDbEntity
  8
COTA
 62
4
370
25
100
AcDbLine
 10
8171.809295423679
 20
4083.960392164641
 30
0.0
 11
8158.766912448918
 21
4083.960392164641
 31
0.0
  0
LINE
  5
F4
330
17
100
AcDbEntity
  8
COTA
 62
4
370
25
100
AcDbLine
 10
8171.809295423688
 20
4142.960392164641
 30
0.0
 11
8158.766912448918
 21
4142.960392164641
 31
0.0
  0
LINE
  5
F5
330
17
100
AcDbEntity
  8
COTA
 62
4
370
25
100
AcDbLine
 10
8161.766912448918
 20
4083.960392164641
 30
0.0
 11
8161.766912448918
 21
4142.960392164641
 31
0.0
  0
LINE
  5
F6
330
17
100
AcDbEntity
  8
COTA
 62
0
370
25
100
AcDbLine
 10
8160.266912448918
 20
4085.460392164641
 30
0.0
 11
8163.266912448918
 21
4082.460392164641
 31
0.0
  0
LINE
  5
F7
330
17
100
AcDbEntity
  8
COTA
 62
0
370
25
100
AcDbLine
 10
8163.266912448918
 20
4141.460392164641
 30
0.0
 11
8160.266912448918
 21
4144.460392164641
 31
0.0
  0
LINE
  5
F8
330
17
100
AcDbEntity
  8
COTA
 62
4
370
25
100
AcDbLine
 10
8295.809295423687
 20
4142.960392164627
 30
0.0
 11
8281.007891090863
 21
4142.960392164627
 31
0.0
  0
LINE
  5
F9
330
17
100
AcDbEntity
  8
COTA
 62
4
370
25
100
AcDbLine
 10
8295.809295423687
 20
4088.960392164627
 30
0.0
 11
8281.007891090865
 21
4088.960392164627
 31
0.0
  0
LINE
  5
FA
330
17
100
AcDbEntity
  8
COTA
 62
4
370
25
100
AcDbLine
 10
8284.007891090863
 20
4142.960392164627
 30
0.0
 11
8284.007891090865
 21
4088.960392164627
 31
0.0
  0
LINE
  5
FB
330
17
100
AcDbEntity
  8
COTA
 62
0
370
25
100
AcDbLine
 10
8285.507891090863
 20
4141.460392164627
 30
0.0
 11
8282.507891090863
 21
4144.460392164627
 31
0.0
  0
LINE
  5
FC
330
17
100
AcDbEntity
  8
COTA
 62
0
370
25
100
AcDbLine
 10
8282.507891090865
 20
4090.460392164627
 30
0.0
 11
8285.507891090865
 21
4087.460392164627
 31
0.0
  0
LINE
  5
FD
330
17
100
AcDbEntity
  8
COTA
 62
4
370
25
100
AcDbLine
 10
8298.809295423684
 20
4145.960392164624
 30
0.0
 11
8298.809295423684
 21
4155.993201130143
 31
0.0
  0
LINE
  5
FE
330
17
100
AcDbEntity
  8
COTA
 62
4
370
25
100
AcDbLine
 10
8320.809295423673
 20
4145.960392164623
 30
0.0
 11
8320.809295423673
 21
4155.993201130143
 31
0.0
  0
LINE
  5
FF
330
17
100
AcDbEntity
  8
COTA
 62
4
370
25
100
AcDbLine
 10
8298.809295423684
 20
4152.993201130143
 30
0.0
 11
8320.809295423673
 21
4152.993201130143
 31
0.0
  0
LINE
  5
100
330
17
100
AcDbEntity
  8
COTA
 62
0
370
25
100
AcDbLine
 10
8300.309295423684
 20
4154.493201130143
 30
0.0
 11
8297.309295423684
 21
4151.493201130143
 31
0.0
  0
LINE
  5
101
330
17
100
AcDbEntity
  8
COTA
 62
0
370
25
100
AcDbLine
 10
8319.309295423673
 20
4151.493201130143
 30
0.0
 11
8322.309295423673
 21
4154.493201130143
 31
0.0
  0
LINE
  5
102
330
17
100
AcDbEntity
  8
COTA
 62
4
370
25
100
AcDbLine
 10
8768.809295423673
 20
4128.960392164603
 30
0.0
 11
8760.633957372036
 21
4128.960392164603
 31
0.0
  0
LINE
  5
103
330
17
100
AcDbEntity
  8
COTA
 62
4
370
25
100
AcDbLine
 10
8768.809295423682
 20
4088.960392164597
 30
0.0
 11
8760.633957372042
 21
4088.960392164597
 31
0.0
  0
LINE
  5
104
330
17
100
AcDbEntity
  8
COTA
 62
4
370
25
100
AcDbLine
 10
8763.633957372038
 20
4128.960392164603
 30
0.0
 11
8763.633957372042
 21
4088.960392164597
 31
0.0
  0
LINE
  5
105
330
17
100
AcDbEntity
  8
COTA
 62
0
370
25
100
AcDbLine
 10
8765.133957372038
 20
4127.460392164603
 30
0.0
 11
8762.133957372038
 21
4130.460392164603
 31
0.0
  0
LINE
  5
106
330
17
100
AcDbEntity
  8
COTA
 62
0
370
25
100
AcDbLine
 10
8762.133957372042
 20
4090.460392164597
 30
0.0
 11
8765.133957372042
 21
4087.460392164597
 31
0.0
  0
LINE
  5
107
330
17
100
AcDbEntity
  8
COTA
 62
4
370
25
100
AcDbLine
 10
8771.80929542367
 20
4131.960392164601
 30
0.0
 11
8771.80929542367
 21
4151.738257412588
 31
0.0
  0
LINE
  5
108
330
17
100
AcDbEntity
  8
COTA
 62
4
370
25
100
AcDbLine
 10
8744.809295423676
 20
4145.960392164648
 30
0.0
 11
8744.809295423676
 21
4151.738257412588
 31
0.0
  0
LINE
  5
109
330
17
100
AcDbEntity
  8
COTA
 62
4
370
25
100
AcDbLine
 10
8771.80929542367
 20
4148.738257412588
 30
0.0
 11
8744.809295423676
 21
4148.738257412588
 31
0.0
  0
LINE
  5
10A
330
17
100
AcDbEntity
  8
COTA
 62
0
370
25
100
AcDbLine
 10
8770.30929542367
 20
4147.238257412588
 30
0.0
 11
8773.30929542367
 21
4150.238257412588
 31
0.0
  0
LINE
  5
10B
330
17
100
AcDbEntity
  8
COTA
 62
0
370
25
100
AcDbLine
 10
8746.309295423676
 20
4150.238257412588
 30
0.0
 11
8743.309295423676
 21
4147.238257412588
 31
0.0
  0
LINE
  5
10C
330
17
100
AcDbEntity
  8
COTA
 62
4
370
25
100
AcDbLine
 10
8172.795386927411
 20
4329.557479440686
 30
0.0
 11
8172.795386927411
 21
4329.787244607302
 31
0.0
  0
LINE
  5
10D
330
17
100
AcDbEntity
  8
COTA
 62
4
370
25
100
AcDbLine
 10
8197.795386927412
 20
4329.557479440686
 30
0.0
 11
8197.795386927412
 21
4329.787244607302
 31
0.0
  0
LINE
  5
10E
330
17
100
AcDbEntity
  8
COTA
 62
4
370
25
100
AcDbLine
 10
8172.795386927411
 20
4326.787244607302
 30
0.0
 11
8197.795386927412
 21
4326.787244607302
 31
0.0
  0
LINE
  5
10F
330
17
100
AcDbEntity
  8
COTA
 62
0
370
25
100
AcDbLine
 10
8174.295386927411
 20
4328.287244607302
 30
0.0
 11
8171.295386927411
 21
4325.287244607302
 31
0.0
  0
LINE
  5
110
330
17
100
AcDbEntity
  8
COTA
 62
0
370
25
100
AcDbLine
 10
8196.295386927412
 20
4325.287244607302
 30
0.0
 11
8199.295386927412
 21
4328.287244607302
 31
0.0
  0
LINE
  5
111
330
17
100
AcDbEntity
  8
COTA
 62
4
370
25
100
AcDbLine
 10
8416.795386927412
 20
4326.557479440714
 30
0.0
 11
8511.795386927412
 21
4326.557479440714
 31
0.0
  0
LINE
  5
112
330
17
100
AcDbEntity
  8
COTA
 62
0
370
25
100
AcDbLine
 10
8418.295386927412
 20
4328.057479440714
 30
0.0
 11
8415.295386927412
 21
4325.057479440714
 31
0.0
  0
LINE
  5
113
330
17
100
AcDbEntity
  8
COTA
 62
0
370
25
100
AcDbLine
 10
8510.295386927412
 20
4325.057479440714
 30
0.0
 11
8513.295386927412
 21
4328.057479440714
 31
0.0
  0
LINE
  5
114
330
17
100
AcDbEntity
  8
COTA
 62
4
370
25
100
AcDbLine
 10
8857.295386927412
 20
4329.557479440686
 30
0.0
 11
8857.295386927412
 21
4330.125293915746
 31
0.0
  0
LINE
  5
115
330
17
100
AcDbEntity
  8
COTA
 62
4
370
25
100
AcDbLine
 10
8771.295386927412
 20
4329.557479440686
 30
0.0
 11
8771.295386927412
 21
4330.125293915746
 31
0.0
  0
LINE
  5
116
330
17
100
AcDbEntity
  8
COTA
 62
4
370
25
100
AcDbLine
 10
8857.295386927412
 20
4327.125293915747
 30
0.0
 11
8771.295386927412
 21
4327.125293915747
 31
0.0
  0
LINE
  5
117
330
17
100
AcDbEntity
  8
COTA
 62
0
370
25
100
AcDbLine
 10
8855.795386927412
 20
4325.625293915747
 30
0.0
 11
8858.795386927412
 21
4328.625293915747
 31
0.0
  0
LINE
  5
118
330
17
100
AcDbEntity
  8
COTA
 62
0
370
25
100
AcDbLine
 10
8772.795386927412
 20
4328.625293915747
 30
0.0
 11
8769.795386927412
 21
4325.625293915747
 31
0.0
  0
LINE
  5
119
330
17
100
AcDbEntity
  8
COTA
 62
4
370
25
100
AcDbLine
 10
8174.809295423679
 20
4113.460392164639
 30
0.0
 11
8226.809295423682
 21
4113.460392164639
 31
0.0
  0
LINE
  5
11A
330
17
100
AcDbEntity
  8
COTA
 62
0
370
25
100
AcDbLine
 10
8176.309295423679
 20
4114.960392164639
 30
0.0
 11
8173.309295423679
 21
4111.960392164639
 31
0.0
  0
LINE
  5
11B
330
17
100
AcDbEntity
  8
COTA
 62
0
370
25
100
AcDbLine
 10
8225.309295423682
 20
4111.960392164639
 30
0.0
 11
8228.309295423682
 21
4114.960392164639
 31
0.0
  0
LINE
  5
11C
330
17
100
AcDbEntity
  8
COTA
 62
4
370
25
100
AcDbLine
 10
8564.809295423676
 20
4113.460392164637
 30
0.0
 11
8576.809295423676
 21
4113.460392164637
 31
0.0
  0
LINE
  5
11D
330
17
100
AcDbEntity
  8
COTA
 62
0
370
25
100
AcDbLine
 10
8566.309295423676
 20
4114.960392164637
 30
0.0
 11
8563.309295423676
 21
4111.960392164637
 31
0.0
  0
LINE
  5
11E
330
17
100
AcDbEntity
  8
COTA
 62
0
370
25
100
AcDbLine
 10
8575.309295423676
 20
4111.960392164637
 30
0.0
 11
8578.309295423676
 21
4114.960392164637
 31
0.0
  0
LINE
  5
11F
330
17
100
AcDbEntity
  8
COTA
 62
4
370
25
100
AcDbLine
 10
8564.809295423676
 20
4113.460392164642
 30
0.0
 11
8486.809295423674
 21
4113.460392164642
 31
0.0
  0
LINE
  5
120
330
17
100
AcDbEntity
  8
COTA
 62
0
370
25
100
AcDbLine
 10
8563.309295423676
 20
4111.960392164642
 30
0.0
 11
8566.309295423676
 21
4114.960392164642
 31
0.0
  0
LINE
  5
121
330
17
100
AcDbEntity
  8
COTA
 62
0
370
25
100
AcDbLine
 10
8488.309295423674
 20
4114.960392164642
 30
0.0
 11
8485.309295423674
 21
4111.960392164642
 31
0.0
  0
LINE
  5
122
330
17
100
AcDbEntity
  8
Painéis
 62
4
370
25
100
AcDbLine
 10
8892.809295423676
 20
4103.460392164621
 30
0.0
 11
8892.809295423676
 21
4103.018253959294
 31
0.0
  0
LINE
  5
123
330
17
100
AcDbEntity
  8
Painéis
 62
4
370
25
100
AcDbLine
 10
8796.809295423676
 20
4103.460392164621
 30
0.0
 11
8796.809295423676
 21
4103.018253959294
 31
0.0
  0
LINE
  5
124
330
17
100
AcDbEntity
  8
Painéis
 62
4
370
25
100
AcDbLine
 10
8892.809295423676
 20
4106.018253959295
 30
0.0
 11
8796.809295423676
 21
4106.018253959295
 31
0.0
  0
LINE
  5
125
330
17
100
AcDbEntity
  8
Painéis
 62
0
370
25
100
AcDbLine
 10
8891.309295423676
 20
4104.518253959295
 30
0.0
 11
8894.309295423676
 21
4107.518253959295
 31
0.0
  0
LINE
  5
126
330
17
100
AcDbEntity
  8
Painéis
 62
0
370
25
100
AcDbLine
 10
8798.309295423676
 20
4107.518253959295
 30
0.0
 11
8795.309295423676
 21
4104.518253959295
 31
0.0
  0
LINE
  5
127
330
17
100
AcDbEntity
  8
Texto Seção
 62
252
370
15
100
AcDbLine
 10
8552.827167537172
 20
4586.428381263173
 30
0.0
 11
8552.827167537172
 21
4711.428381263173
 31
0.0
  0
LWPOLYLINE
  5
128
330
17
100
AcDbEntity
  8
Painéis
 62
200
370
25
100
AcDbPolyline
 90
4
 70
1
 10
8406.604078015405
 20
4586.428381263173
 10
8410.604078015405
 20
4586.428381263173
 10
8410.604078015405
 20
4468.428381263173
 10
8406.604078015405
 20
4468.428381263173
  0
LWPOLYLINE
  5
129
330
17
100
AcDbEntity
  8
Madeira
 62
126
370
18
100
AcDbPolyline
 90
4
 70
1
 10
8448.604078015405
 20
4468.428381263173
 10
8448.604078015405
 20
4472.828381263167
 10
8434.604078015405
 20
4472.828381263167
 10
8434.604078015405
 20
4468.428381263173
  0
LWPOLYLINE
  5
12A
330
17
100
AcDbEntity
  8
Painéis
 62
200
370
25
100
AcDbPolyline
 90
4
 70
1
 10
8448.604078015405
 20
4472.828381263167
 10
8448.604078015405
 20
4476.428381263173
 10
8410.604078015405
 20
4476.428381263173
 10
8410.604078015405
 20
4472.828381263167
  0
LWPOLYLINE
  5
12B
330
17
100
AcDbEntity
  8
Madeira
 62
126
370
18
100
AcDbPolyline
 90
4
 70
1
 10
8410.604078015405
 20
4468.428381263173
 10
8410.604078015405
 20
4472.828381263167
 10
8424.604078015405
 20
4472.828381263167
 10
8424.604078015405
 20
4468.428381263173
  0
LWPOLYLINE
  5
12C
330
17
100
AcDbEntity
  8
Painéis
 62
200
370
25
100
AcDbPolyline
 90
4
 70
1
 10
8452.60407801542
 20
4586.428381263173
 10
8448.60407801542
 20
4586.428381263173
 10
8448.604078015405
 20
4468.428381263173
 10
8452.604078015404
 20
4468.428381263173
  0
LWPOLYLINE
  5
12D
330
17
100
AcDbEntity
  8
CONCRETO
 62
251
370
25
100
AcDbPolyline
 90
8
 70
1
 10
8410.604078015405
 20
4586.428381263173
 10
8410.604078015405
 20
4586.428381263173
 10
8448.604078015416
 20
4586.428381263173
 10
8448.604078015416
 20
4558.428381263158
 10
8448.604078015405
 20
4558.428381263158
 10
8448.604078015347
 20
4476.428381263173
 10
8410.604078015405
 20
4476.428381263173
 10
8410.604078015405
 20
4586.42838126318
  0
LWPOLYLINE
  5
12E
330
17
100
AcDbEntity
  8
Painéis
 62
200
370
25
100
AcDbPolyline
 90
4
 70
1
 10
8699.494816633285
 20
4558.42838126315
 10
8695.494816633285
 20
4558.42838126315
 10
8695.494816633285
 20
4468.428381263173
 10
8699.494816633285
 20
4468.428381263173
  0
LWPOLYLINE
  5
12F
330
17
100
AcDbEntity
  8
Madeira
 62
126
370
18
100
AcDbPolyline
 90
4
 70
1
 10
8657.494816633287
 20
4468.428381263173
 10
8657.494816633287
 20
4472.828381263167
 10
8671.494816633285
 20
4472.828381263167
 10
8671.494816633285
 20
4468.428381263173
  0
LWPOLYLINE
  5
130
330
17
100
AcDbEntity
  8
Painéis
 62
200
370
25
100
AcDbPolyline
 90
4
 70
1
 10
8657.494816633287
 20
4472.828381263167
 10
8657.494816633287
 20
4476.428381263173
 10
8695.494816633285
 20
4476.428381263173
 10
8695.494816633285
 20
4472.828381263167
  0
LWPOLYLINE
  5
131
330
17
100
AcDbEntity
  8
Madeira
 62
126
370
18
100
AcDbPolyline
 90
4
 70
1
 10
8695.494816633285
 20
4468.428381263173
 10
8695.494816633285
 20
4472.828381263167
 10
8681.494816633285
 20
4472.828381263167
 10
8681.494816633285
 20
4468.428381263173
  0
LWPOLYLINE
  5
132
330
17
100
AcDbEntity
  8
Painéis
 62
200
370
25
100
AcDbPolyline
 90
4
 70
1
 10
8653.494816633274
 20
4586.428381263173
 10
8657.494816633274
 20
4586.428381263173
 10
8657.494816633287
 20
4468.428381263173
 10
8653.494816633285
 20
4468.428381263173
  0
LWPOLYLINE
  5
133
330
17
100
AcDbEntity
  8
Painéis
 62
200
370
25
100
AcDbPolyline
 90
4
 70
1
 10
8695.494816633285
 20
4558.42838126315
 10
8695.494816633285
 20
4562.428381263151
 10
8751.094816633262
 20
4562.428381263144
 10
8751.094816633262
 20
4558.428381263143
  0
LWPOLYLINE
  5
134
330
17
100
AcDbEntity
  8
CONCRETO
 62
251
370
25
100
AcDbPolyline
 90
8
 70
1
 10
8751.094816633262
 20
4562.428381263144
 10
8751.094816633262
 20
4586.428381263173
 10
8657.494816633274
 20
4586.428381263173
 10
8657.494816633274
 20
4558.428381263158
 10
8657.494816633287
 20
4558.428381263158
 10
8657.494816633343
 20
4476.428381263173
 10
8695.494816633285
 20
4476.428381263173
 10
8695.494816633285
 20
4562.428381263151
  0
LWPOLYLINE
  5
135
330
17
100
AcDbEntity
  8
Madeira
 62
126
370
18
100
AcDbPolyline
 90
4
 70
1
 10
8406.604078015405
 20
4572.428381263173
 10
8402.204078015411
 20
4572.428381263173
 10
8402.204078015411
 20
4586.428381263173
 10
8406.604078015405
 20
4586.428381263173
  0
LWPOLYLINE
  5
136
330
17
100
AcDbEntity
  8
Madeira
 62
126
370
18
100
AcDbPolyline
 90
4
 70
1
 10
8406.604078015413
 20
4524.398438791478
 10
8402.204078015418
 20
4524.398438791478
 10
8402.204078015418
 20
4538.398438791478
 10
8406.604078015413
 20
4538.398438791478
  0
LWPOLYLINE
  5
137
330
17
100
AcDbEntity
  8
Madeira
 62
126
370
18
100
AcDbPolyline
 90
4
 70
1
 10
8406.60407801542
 20
4468.428381263173
 10
8402.204078015426
 20
4468.428381263173
 10
8402.204078015426
 20
4482.428381263172
 10
8406.60407801542
 20
4482.428381263172
  0
LWPOLYLINE
  5
138
330
17
100
AcDbEntity
  8
Madeira
 62
126
370
18
100
AcDbPolyline
 90
4
 70
1
 10
8653.494816633274
 20
4572.428381263173
 10
8649.094816633278
 20
4572.428381263173
 10
8649.094816633278
 20
4586.428381263173
 10
8653.494816633274
 20
4586.428381263173
  0
LWPOLYLINE
  5
139
330
17
100
AcDbEntity
  8
Madeira
 62
126
370
18
100
AcDbPolyline
 90
4
 70
1
 10
8653.494816633282
 20
4524.398438791478
 10
8649.094816633287
 20
4524.398438791478
 10
8649.094816633287
 20
4538.398438791478
 10
8653.494816633282
 20
4538.398438791478
  0
LWPOLYLINE
  5
13A
330
17
100
AcDbEntity
  8
Madeira
 62
126
370
18
100
AcDbPolyline
 90
4
 70
1
 10
8653.494816633285
 20
4468.428381263173
 10
8649.094816633293
 20
4468.428381263173
 10
8649.094816633293
 20
4482.428381263172
 10
8653.494816633285
 20
4482.428381263172
  0
LWPOLYLINE
  5
13B
330
17
100
AcDbEntity
  8
Madeira
 62
126
370
18
100
AcDbPolyline
 90
4
 70
1
 10
8452.604078015416
 20
4572.428381263173
 10
8457.00407801541
 20
4572.428381263173
 10
8457.00407801541
 20
4586.428381263173
 10
8452.604078015416
 20
4586.428381263173
  0
LWPOLYLINE
  5
13C
330
17
100
AcDbEntity
  8
Madeira
 62
126
370
18
100
AcDbPolyline
 90
4
 70
1
 10
8452.604078015413
 20
4524.398438791478
 10
8457.004078015407
 20
4524.398438791478
 10
8457.004078015407
 20
4538.398438791478
 10
8452.604078015413
 20
4538.398438791478
  0
LWPOLYLINE
  5
13D
330
17
100
AcDbEntity
  8
Madeira
 62
126
370
18
100
AcDbPolyline
 90
4
 70
1
 10
8452.604078015404
 20
4468.428381263173
 10
8457.0040780154
 20
4468.428381263173
 10
8457.0040780154
 20
4482.428381263172
 10
8452.604078015404
 20
4482.428381263172
  0
LWPOLYLINE
  5
13E
330
17
100
AcDbEntity
  8
Madeira
 62
126
370
18
100
AcDbPolyline
 90
4
 70
1
 10
8703.89481663328
 20
4544.428381263151
 10
8699.494816633285
 20
4544.428381263151
 10
8699.494816633285
 20
4558.42838126315
 10
8703.89481663328
 20
4558.42838126315
  0
LWPOLYLINE
  5
13F
330
17
100
AcDbEntity
  8
Madeira
 62
126
370
18
100
AcDbPolyline
 90
4
 70
1
 10
8703.89481663328
 20
4468.428381263173
 10
8699.494816633285
 20
4468.428381263173
 10
8699.494816633285
 20
4482.428381263172
 10
8703.89481663328
 20
4482.428381263172
  0
LWPOLYLINE
  5
140
330
17
100
AcDbEntity
  8
SARR_3.5x7
 62
81
370
25
100
AcDbPolyline
 90
4
 70
1
 10
8388.20407801536
 20
4580.428381263173
 10
8402.20407801536
 20
4580.428381263173
 10
8402.204078015488
 20
4391.950167857367
 10
8388.20407801549
 20
4391.950167857367
  0
LWPOLYLINE
  5
141
330
17
100
AcDbEntity
  8
SARR_3.5x7
 62
81
370
25
100
AcDbPolyline
 90
4
 70
1
 10
8471.004078015647
 20
4580.428381263176
 10
8457.004078015649
 20
4580.428381263176
 10
8457.004078015501
 20
4391.950167857367
 10
8471.004078015501
 20
4391.950167857367
  0
LWPOLYLINE
  5
142
330
17
100
AcDbEntity
  8
SARR_3.5x7
 62
81
370
25
100
AcDbPolyline
 90
4
 70
1
 10
8388.204078015347
 20
4468.428381263173
 10
8471.00407801555
 20
4468.428381263171
 10
8471.00407801555
 20
4438.370319659172
 10
8388.204078015347
 20
4438.370319659173
  0
LWPOLYLINE
  5
143
330
17
100
AcDbEntity
  8
SARR_3.5x7
 62
81
370
25
100
AcDbPolyline
 90
4
 70
1
 10
8635.09481663323
 20
4580.428381263173
 10
8649.094816633227
 20
4580.428381263173
 10
8649.094816633356
 20
4391.950167857367
 10
8635.094816633356
 20
4391.950167857367
  0
LWPOLYLINE
  5
144
330
17
100
AcDbEntity
  8
SARR_3.5x7
 62
81
370
25
100
AcDbPolyline
 90
4
 70
1
 10
8717.894816633516
 20
4552.428381263153
 10
8703.894816633516
 20
4552.428381263153
 10
8703.894816633367
 20
4391.950167857367
 10
8717.894816633367
 20
4391.950167857367
  0
LWPOLYLINE
  5
145
330
17
100
AcDbEntity
  8
SARR_3.5x7
 62
81
370
25
100
AcDbPolyline
 90
4
 70
1
 10
8635.094816633215
 20
4468.428381263173
 10
8717.894816633414
 20
4468.428381263171
 10
8717.894816633414
 20
4438.370319659172
 10
8635.094816633215
 20
4438.370319659173
  0
LWPOLYLINE
  5
146
330
17
100
AcDbEntity
  8
Madeira
 62
126
370
18
100
AcDbPolyline
 90
4
 70
1
 10
8703.89481663328
 20
4506.428381263162
 10
8699.494816633285
 20
4506.428381263162
 10
8699.494816633285
 20
4520.428381263162
 10
8703.89481663328
 20
4520.428381263162
  0
LWPOLYLINE
  5
147
330
17
100
AcDbEntity
  8
COTA
 62
0
370
25
100
AcDbPolyline
 90
2
 70
0
 10
8522.975810773833
 20
4470.928381263175
 10
8527.975810773833
 20
4465.928381263175
  0
LWPOLYLINE
  5
148
330
17
100
AcDbEntity
  8
COTA
 62
0
370
25
100
AcDbPolyline
 90
2
 70
0
 10
8527.975810773833
 20
4583.928381263174
 10
8522.975810773833
 20
4588.928381263174
  0
LWPOLYLINE
  5
149
330
17
100
AcDbEntity
  8
COTA
 62
0
370
25
100
AcDbPolyline
 90
2
 70
0
 10
8324.446783412119
 20
4583.928381263174
 10
8319.446783412119
 20
4588.928381263174
  0
LWPOLYLINE
  5
14A
330
17
100
AcDbEntity
  8
COTA
 62
0
370
25
100
AcDbPolyline
 90
2
 70
0
 10
8319.446783412119
 20
4470.928381263175
 10
8324.446783412119
 20
4465.928381263175
  0
LWPOLYLINE
  5
14B
330
17
100
AcDbEntity
  8
COTA
 62
0
370
25
100
AcDbPolyline
 90
2
 70
0
 10
8413.104078015405
 20
4426.201567460983
 10
8408.104078015405
 20
4421.201567460983
  0
LWPOLYLINE
  5
14C
330
17
100
AcDbEntity
  8
COTA
 62
0
370
25
100
AcDbPolyline
 90
2
 70
0
 10
8446.104078015405
 20
4421.201567460983
 10
8451.104078015405
 20
4426.201567460983
  0
LWPOLYLINE
  5
14D
330
17
100
AcDbEntity
  8
COTA
 62
0
370
25
100
AcDbPolyline
 90
2
 70
0
 10
8800.971539722656
 20
4470.928381263175
 10
8805.971539722656
 20
4465.928381263175
  0
LWPOLYLINE
  5
14E
330
17
100
AcDbEntity
  8
COTA
 62
0
370
25
100
AcDbPolyline
 90
2
 70
0
 10
8805.971539722656
 20
4583.928381263167
 10
8800.971539722656
 20
4588.928381263167
  0
LWPOLYLINE
  5
14F
330
17
100
AcDbEntity
  8
COTA
 62
0
370
25
100
AcDbPolyline
 90
2
 70
0
 10
8578.123083875149
 20
4470.928381263175
 10
8583.123083875149
 20
4465.928381263175
  0
LWPOLYLINE
  5
150
330
17
100
AcDbEntity
  8
COTA
 62
0
370
25
100
AcDbPolyline
 90
2
 70
0
 10
8583.123083875149
 20
4583.928381263174
 10
8578.123083875149
 20
4588.928381263174
  0
LWPOLYLINE
  5
151
330
17
100
AcDbEntity
  8
COTA
 62
0
370
25
100
AcDbPolyline
 90
2
 70
0
 10
8786.652111237187
 20
4583.928381263167
 10
8781.652111237187
 20
4588.928381263167
  0
LWPOLYLINE
  5
152
330
17
100
AcDbEntity
  8
COTA
 62
0
370
25
100
AcDbPolyline
 90
2
 70
0
 10
8781.652111237187
 20
4564.928381263145
 10
8786.652111237187
 20
4559.928381263145
  0
LWPOLYLINE
  5
153
330
17
100
AcDbEntity
  8
COTA
 62
0
370
25
100
AcDbPolyline
 90
2
 70
0
 10
8786.652111236863
 20
4555.928381263145
 10
8781.652111236863
 20
4560.928381263145
  0
LWPOLYLINE
  5
154
330
17
100
AcDbEntity
  8
COTA
 62
0
370
25
100
AcDbPolyline
 90
2
 70
0
 10
8781.652111236863
 20
4470.928381263175
 10
8786.652111236863
 20
4465.928381263175
  0
LWPOLYLINE
  5
155
330
17
100
AcDbEntity
  8
COTA
 62
0
370
25
100
AcDbPolyline
 90
2
 70
0
 10
8692.994816633285
 20
4421.201567460983
 10
8697.994816633285
 20
4426.201567460983
  0
LWPOLYLINE
  5
156
330
17
100
AcDbEntity
  8
COTA
 62
0
370
25
100
AcDbPolyline
 90
2
 70
0
 10
8659.994816633287
 20
4426.201567460983
 10
8654.994816633287
 20
4421.201567460983
  0
TEXT
  5
157
330
17
100
AcDbEntity
  8
5
 62
5
370
25
100
AcDbText
 10
8819.685638708483
 20
4219.052957204771
 30
0.0
 40
12.0
  1
P35
 50
3.55024762388e-05
100
AcDbText
  0
TEXT
  5
158
330
17
100
AcDbEntity
  8
Texto Seção
 62
7
370
15
100
AcDbText
 10
8168.393791387973
 20
4154.765938462747
 30
0.0
 40
13.0
  1
V408.B
100
AcDbText
  0
TEXT
  5
159
330
17
100
AcDbEntity
  8
5
 62
5
370
25
100
AcDbText
 10
8187.80375337821
 20
4001.915527988596
 30
0.0
 40
12.0
  1
P35
 50
3.55024762388e-05
100
AcDbText
  0
TEXT
  5
15A
330
17
100
AcDbEntity
  8
Texto Seção
 62
7
370
15
100
AcDbText
 10
8167.384161424163
 20
4364.099494975664
 30
0.0
 40
13.0
  1
V408.A
100
AcDbText
  0
TEXT
  5
15B
330
17
100
AcDbEntity
  8
detalhes
 62
4
370
25
100
AcDbText
 10
8457.318561191443
 20
4529.050476839064
 30
0.0
 40
9.600000000000001
  1
b
100
AcDbText
  0
TEXT
  5
15C
330
17
100
AcDbEntity
  8
detalhes
 62
4
370
25
100
AcDbText
 10
8394.774902545707
 20
4529.061534284639
 30
0.0
 40
9.600000000000001
  1
a
100
AcDbText
  0
TEXT
  5
15D
330
17
100
AcDbEntity
  8
detalhes
 62
4
370
25
100
AcDbText
 10
8421.20434363085
 20
4478.664134783012
 30
0.0
 40
9.600000000000001
  1
c
100
AcDbText
  0
TEXT
  5
15E
330
17
100
AcDbEntity
  8
detalhes
 62
4
370
25
100
AcDbText
 10
8703.702081322748
 20
4524.449074204629
 30
0.0
 40
9.600000000000001
  1
b
100
AcDbText
  0
TEXT
  5
15F
330
17
100
AcDbEntity
  8
detalhes
 62
4
370
25
100
AcDbText
 10
8642.952378781554
 20
4525.509092149849
 30
0.0
 40
9.600000000000001
  1
a
100
AcDbText
  0
TEXT
  5
160
330
17
100
AcDbEntity
  8
detalhes
 62
4
370
25
100
AcDbText
 10
8677.792796631873
 20
4478.664134783012
 30
0.0
 40
9.600000000000001
  1
c
100
AcDbText
  0
TEXT
  5
161
330
17
100
AcDbEntity
  8
5
 62
5
370
25
100
AcDbText
 10
8172.076846389556
 20
4219.052962221023
 30
0.0
 40
12.0
  1
P33
 50
3.55024762388e-05
100
AcDbText
  0
TEXT
  5
162
330
17
100
AcDbEntity
  8
5
 62
5
370
25
100
AcDbText
 10
8861.63921999963
 20
4001.915527988594
 30
0.0
 40
12.0
  1
V419
 50
3.55024762388e-05
100
AcDbText
  0
TEXT
  5
163
330
17
100
AcDbEntity
  8
COTA
 62
240
370
25
100
AcDbText
 10
8759.045386927412
 20
4278.656442351419
 30
0.0
 40
10.0
  1
196.5
100
AcDbText
  0
TEXT
  5
164
330
17
100
AcDbEntity
  8
COTA
 62
240
370
25
100
AcDbText
 10
8515.045386927412
 20
4245.110621721144
 30
0.0
 40
10.0
  1
684.5
100
AcDbText
  0
TEXT
  5
165
330
17
100
AcDbEntity
  8
COTA
 62
240
370
25
100
AcDbText
 10
8538.795386927412
 20
4278.590652877735
 30
0.0
 40
10.0
  1
244
100
AcDbText
  0
TEXT
  5
166
330
17
100
AcDbEntity
  8
COTA
 62
240
370
25
100
AcDbText
 10
8294.795386927412
 20
4278.590652877742
 30
0.0
 40
10.0
  1
244
100
AcDbText
  0
TEXT
  5
167
330
17
100
AcDbEntity
  8
COTA
 62
1
370
25
100
AcDbText
 10
8533.975810773834
 20
4527.428381263171
 30
0.0
 40
7.0
  1
59
 50
90.0
100
AcDbText
  0
TEXT
  5
168
330
17
100
AcDbEntity
  8
Cota Seção (2x)
 62
1
370
25
100
AcDbText
 10
8450.604078017064
 20
4546.428381263136
 30
0.0
 40
7.0
  1
55
 50
90.0
100
AcDbText
  0
TEXT
  5
169
330
17
100
AcDbEntity
  8
COTA
 62
1
370
25
100
AcDbText
 10
8330.446783412119
 20
4527.428381263171
 30
0.0
 40
7.0
  1
59
 50
90.0
100
AcDbText
  0
TEXT
  5
16A
330
17
100
AcDbEntity
  8
COTA
 62
1
370
25
100
AcDbText
 10
8429.604078015405
 20
4429.201567460983
 30
0.0
 40
7.0
  1
19
100
AcDbText
  0
TEXT
  5
16B
330
17
100
AcDbEntity
  8
Cota Seção (2x)
 62
1
370
25
100
AcDbText
 10
8429.604078015376
 20
4495.928381263173
 30
0.0
 40
7.0
  1
19
100
AcDbText
  0
TEXT
  5
16C
330
17
100
AcDbEntity
  8
COTA
 62
1
370
25
100
AcDbText
 10
8811.971539722656
 20
4527.428381263167
 30
0.0
 40
7.0
  1
59
 50
90.0
100
AcDbText
  0
TEXT
  5
16D
330
17
100
AcDbEntity
  8
COTA
 62
1
370
25
100
AcDbText
 10
8589.123083875149
 20
4527.428381263171
 30
0.0
 40
7.0
  1
59
 50
90.0
100
AcDbText
  0
TEXT
  5
16E
330
17
100
AcDbEntity
  8
Cota Seção (2x)
 62
1
370
25
100
AcDbText
 10
8681.514855313959
 20
4546.428381263136
 30
0.0
 40
7.0
  1
55
 50
90.0
100
AcDbText
  0
TEXT
  5
16F
330
17
100
AcDbEntity
  8
COTA
 62
1
370
25
100
AcDbText
 10
8792.652111237187
 20
4574.428381263152
 30
0.0
 40
7.0
  1
12
 50
90.0
100
AcDbText
  0
TEXT
  5
170
330
17
100
AcDbEntity
  8
COTA
 62
1
370
25
100
AcDbText
 10
8792.652111236865
 20
4513.428381263156
 30
0.0
 40
7.0
  1
45
 50
90.0
100
AcDbText
  0
TEXT
  5
171
330
17
100
AcDbEntity
  8
COTA
 62
1
370
25
100
AcDbText
 10
8676.494816633285
 20
4429.201567460983
 30
0.0
 40
7.0
  1
19
100
AcDbText
  0
TEXT
  5
172
330
17
100
AcDbEntity
  8
Cota Seção (2x)
 62
1
370
25
100
AcDbText
 10
8676.494816633312
 20
4495.928381263173
 30
0.0
 40
7.0
  1
19
100
AcDbText
  0
TEXT
  5
173
330
17
100
AcDbEntity
  8
COTA
 62
240
370
25
100
AcDbText
 10
8896.513864619219
 20
4326.557479440683
 30
0.0
 40
10.0
  1
59
 50
90.0
100
AcDbText
  0
TEXT
  5
174
330
17
100
AcDbEntity
  8
COTA
 62
240
370
25
100
AcDbText
 10
8247.809295423676
 20
4065.52280536774
 30
0.0
 40
10.0
  1
146
100
AcDbText
  0
TEXT
  5
175
330
17
100
AcDbEntity
  8
COTA
 62
240
370
25
100
AcDbText
 10
8818.809295423676
 20
4065.515495426207
 30
0.0
 40
10.0
  1
148
100
AcDbText
  0
TEXT
  5
176
330
17
100
AcDbEntity
  8
COTA
 62
240
370
25
100
AcDbText
 10
8924.697853245136
 20
4106.46039216462
 30
0.0
 40
10.0
  1
45
 50
90.0
100
AcDbText
  0
TEXT
  5
177
330
17
100
AcDbEntity
  8
COTA
 62
240
370
25
100
AcDbText
 10
8924.734402952738
 20
4154.018871696758
 30
0.0
 40
10.0
  1
14
 50
90.0
100
AcDbText
  0
TEXT
  5
178
330
17
100
AcDbEntity
  8
COTA
 62
240
370
25
100
AcDbText
 10
8944.807822097771
 20
4113.460392164607
 30
0.0
 40
10.0
  1
59
 50
90.0
100
AcDbText
  0
TEXT
  5
179
330
17
100
AcDbEntity
  8
COTA
 62
240
370
25
100
AcDbText
 10
8866.160884003433
 20
4291.227134099995
 30
0.0
 40
10.0
  1
7
100
AcDbText
  0
TEXT
  5
17A
330
17
100
AcDbEntity
  8
COTA
 62
240
370
25
100
AcDbText
 10
8442.809295423676
 20
4065.493565601673
 30
0.0
 40
10.0
  1
244
100
AcDbText
  0
TEXT
  5
17B
330
17
100
AcDbEntity
  8
COTA
 62
240
370
25
100
AcDbText
 10
8654.809295423676
 20
4065.544735192326
 30
0.0
 40
10.0
  1
180
100
AcDbText
  0
TEXT
  5
17C
330
17
100
AcDbEntity
  8
COTA
 62
240
370
25
100
AcDbText
 10
8533.809295423678
 20
4031.976984737511
 30
0.0
 40
10.0
  1
718
100
AcDbText
  0
TEXT
  5
17D
330
17
100
AcDbEntity
  8
COTA
 62
240
370
25
100
AcDbText
 10
8173.628023560029
 20
4113.460392164637
 30
0.0
 40
10.0
  1
59
 50
90.0
100
AcDbText
  0
TEXT
  5
17E
330
17
100
AcDbEntity
  8
COTA
 62
240
370
25
100
AcDbText
 10
8295.898241968056
 20
4115.960392164622
 30
0.0
 40
10.0
  1
54
 50
90.0
100
AcDbText
  0
TEXT
  5
17F
330
17
100
AcDbEntity
  8
COTA
 62
240
370
25
100
AcDbText
 10
8309.809295423676
 20
4160.993201130142
 30
0.0
 40
10.0
  1
22
100
AcDbText
  0
TEXT
  5
180
330
17
100
AcDbEntity
  8
COTA
 62
240
370
25
100
AcDbText
 10
8775.531618190751
 20
4108.960392164596
 30
0.0
 40
10.0
  1
40
 50
90.0
100
AcDbText
  0
TEXT
  5
181
330
17
100
AcDbEntity
  8
COTA
 62
240
370
25
100
AcDbText
 10
8758.309295423673
 20
4156.811356827793
 30
0.0
 40
10.0
  1
27
100
AcDbText
  0
TEXT
  5
182
330
17
100
AcDbEntity
  8
COTA
 62
240
370
25
100
AcDbText
 10
8185.045386927411
 20
4334.89689373011
 30
0.0
 40
10.0
  1
25
100
AcDbText
  0
TEXT
  5
183
330
17
100
AcDbEntity
  8
COTA
 62
240
370
25
100
AcDbText
 10
8464.295386927412
 20
4334.696368329604
 30
0.0
 40
10.0
  1
95
100
AcDbText
  0
TEXT
  5
184
330
17
100
AcDbEntity
  8
COTA
 62
240
370
25
100
AcDbText
 10
8814.295386927412
 20
4335.249562921594
 30
0.0
 40
10.0
  1
86
100
AcDbText
  0
TEXT
  5
185
330
17
100
AcDbEntity
  8
COTA
 62
240
370
25
100
AcDbText
 10
8200.809295423678
 20
4121.570041287447
 30
0.0
 40
10.0
  1
52
100
AcDbText
  0
TEXT
  5
186
330
17
100
AcDbEntity
  8
COTA
 62
240
370
25
100
AcDbText
 10
8570.809295423676
 20
4121.518871696801
 30
0.0
 40
10.0
  1
12
100
AcDbText
  0
TEXT
  5
187
330
17
100
AcDbEntity
  8
COTA
 62
240
370
25
100
AcDbText
 10
8525.809295423674
 20
4121.555421404409
 30
0.0
 40
10.0
  1
78
100
AcDbText
  0
TEXT
  5
188
330
17
100
AcDbEntity
  8
Painéis
 62
240
370
25
100
AcDbText
 10
8844.809295423678
 20
4114.149832906663
 30
0.0
 40
10.0
  1
96
100
AcDbText
  0
TEXT
  5
189
330
17
100
AcDbEntity
  8
Texto Seção
 62
3
370
15
100
AcDbText
 10
8552.827167537172
 20
4657.877145636146
 30
0.0
 40
17.0
  1

100
AcDbText
  0
TEXT
  5
18A
330
17
100
AcDbEntity
  8
Texto Seção
 62
3
370
15
100
AcDbText
 10
8552.827167537172
 20
4627.976560991825
 30
0.0
 40
12.0
  1

100
AcDbText
  0
TEXT
  5
18B
330
17
100
AcDbEntity
  8
Texto Seção
 62
7
370
15
100
AcDbText
 10
8552.827167537172
 20
4602.005132103339
 30
0.0
 40
10.0
  1

100
AcDbText
  0
HATCH
  5
18C
330
17
100
AcDbEntity
  8
COTA
 62
7
100
AcDbHatch
 10
0.0
 20
0.0
 30
0.0
210
0.0
220
0.0
230
1.0
  2
AR-CONC
 70
0
 71
0
 91
1
 92
3
 72
0
 73
1
 93
7
 10
8771.809295423676
 20
4088.96039216459
 10
8771.809295423667
 20
4128.960392164597
 10
8892.809295423674
 20
4128.960392164612
 10
8892.809295423674
 20
4142.960392164601
 10
8744.809295423673
 20
4142.960392164594
 10
8744.809295423673
 20
4088.960392164597
 10
8771.809295423676
 20
4088.96039216459
 97
0
 75
1
 76
1
 52
0.0
 41
1.0
 77
0
 78
13
 53
50.0
 43
0.0
 44
0.0
 45
182.184668996
 46
-15.9390855389
 79
2
 49
19.05
 49
-209.55
 53
355.0
 43
0.0
 44
0.0
 45
-35.243421425
 46
191.056845239
 79
2
 49
15.24
 49
-167.64058417
 53
100.4514447
 43
15.182007
 44
-1.3282535
 45
146.9412470904
 46
175.1177519122
 79
2
 49
16.1900088
 49
-178.0902446
 53
46.1842
 43
0.0
 44
50.8
 45
271.0790408921
 46
-42.0423279327
 79
2
 49
28.575
 49
-314.325
 53
96.63555761
 43
22.5899
 44
47.2965
 45
237.4041340515
 46
247.4261245977
 79
2
 49
24.28502314
 49
-267.13560816
 53
351.18415117
 43
0.0
 44
50.8
 45
237.404134065
 46
247.4261245855
 79
2
 49
22.85996707
 49
-251.45973192
 53
21.0
 43
25.4
 44
38.1
 45
151.6143912691
 46
-102.2651981871
 79
2
 49
19.05
 49
-209.55
 53
326.0
 43
25.4
 44
38.1
 45
61.8020283476
 46
184.1879661223
 79
2
 49
15.24
 49
-167.64
 53
71.451445
 43
38.0345326
 44
29.5779001
 45
213.4164192787
 46
81.9227688859
 79
2
 49
16.1900088
 49
-178.0899376
 53
37.5
 43
0.0
 44
0.0
 45
3.0886032506
 46
84.5550388732
 79
6
 49
0.0
 49
-165.608
 49
0.0
 49
-170.18
 49
0.0
 49
-168.275
 53
7.5
 43
0.0
 44
0.0
 45
66.8196625103
 46
100.1805748181
 79
6
 49
0.0
 49
-97.028
 49
0.0
 49
-161.798
 49
0.0
 49
-64.135
 53
-32.5
 43
-56.642
 44
0.0
 45
135.5905951669
 46
-5.7287439927
 79
6
 49
0.0
 49
-63.5
 49
0.0
 49
-198.12
 49
0.0
 49
-262.89
 53
-42.5
 43
-82.042
 44
0.0
 45
148.129181386
 46
25.4264910333
 79
6
 49
0.0
 49
-82.55
 49
0.0
 49
-131.572
 49
0.0
 49
-186.69
 98
0
  0
HATCH
  5
18D
330
17
100
AcDbEntity
  8
Hachura
 62
7
100
AcDbHatch
 10
0.0
 20
0.0
 30
0.0
210
0.0
220
0.0
230
1.0
  2
SOLID
 70
1
 71
0
 91
1
 92
3
 72
0
 73
1
 93
5
 10
8406.604078015405
 20
4586.428381263173
 10
8410.604078015405
 20
4586.428381263173
 10
8410.604078015405
 20
4468.428381263173
 10
8406.604078015405
 20
4468.428381263173
 10
8406.604078015405
 20
4586.428381263173
 97
0
 75
1
 76
1
 98
0
  0
HATCH
  5
18E
330
17
100
AcDbEntity
  8
Hachura
 62
7
100
AcDbHatch
 10
0.0
 20
0.0
 30
0.0
210
0.0
220
0.0
230
1.0
  2
ANSI31
 70
0
 71
0
 91
1
 92
3
 72
0
 73
1
 93
5
 10
8448.604078015405
 20
4468.428381263173
 10
8448.604078015405
 20
4472.828381263167
 10
8434.604078015405
 20
4472.828381263167
 10
8434.604078015405
 20
4468.428381263173
 10
8448.604078015405
 20
4468.428381263173
 97
0
 75
1
 76
1
 52
0.0
 41
1.0
 77
0
 78
1
 53
45.0
 43
0.0
 44
0.0
 45
-2.2450640303
 46
2.2450640303
 79
0
 98
0
  0
HATCH
  5
18F
330
17
100
AcDbEntity
  8
Hachura
 62
7
100
AcDbHatch
 10
0.0
 20
0.0
 30
0.0
210
0.0
220
0.0
230
1.0
  2
SOLID
 70
1
 71
0
 91
1
 92
3
 72
0
 73
1
 93
5
 10
8448.604078015405
 20
4472.828381263167
 10
8448.604078015405
 20
4476.428381263173
 10
8410.604078015405
 20
4476.428381263173
 10
8410.604078015405
 20
4472.828381263167
 10
8448.604078015405
 20
4472.828381263167
 97
0
 75
1
 76
1
 98
0
  0
HATCH
  5
190
330
17
100
AcDbEntity
  8
Hachura
 62
7
100
AcDbHatch
 10
0.0
 20
0.0
 30
0.0
210
0.0
220
0.0
230
1.0
  2
ANSI31
 70
0
 71
0
 91
1
 92
3
 72
0
 73
1
 93
5
 10
8410.604078015405
 20
4468.428381263173
 10
8410.604078015405
 20
4472.828381263167
 10
8424.604078015405
 20
4472.828381263167
 10
8424.604078015405
 20
4468.428381263173
 10
8410.604078015405
 20
4468.428381263173
 97
0
 75
1
 76
1
 52
0.0
 41
1.0
 77
0
 78
1
 53
45.0
 43
0.0
 44
0.0
 45
-2.2450640303
 46
2.2450640303
 79
0
 98
0
  0
HATCH
  5
191
330
17
100
AcDbEntity
  8
Hachura
 62
7
100
AcDbHatch
 10
0.0
 20
0.0
 30
0.0
210
0.0
220
0.0
230
1.0
  2
SOLID
 70
1
 71
0
 91
1
 92
3
 72
0
 73
1
 93
5
 10
8452.604078015404
 20
4586.428381263173
 10
8448.604078015405
 20
4586.428381263173
 10
8448.604078015405
 20
4468.428381263173
 10
8452.604078015404
 20
4468.428381263173
 10
8452.604078015404
 20
4586.428381263173
 97
0
 75
1
 76
1
 98
0
  0
HATCH
  5
192
330
17
100
AcDbEntity
  8
Hachura
 62
7
100
AcDbHatch
 10
0.0
 20
0.0
 30
0.0
210
0.0
220
0.0
230
1.0
  2
SOLID
 70
1
 71
0
 91
1
 92
3
 72
0
 73
1
 93
5
 10
8699.494816633285
 20
4558.42838126315
 10
8695.494816633285
 20
4558.42838126315
 10
8695.494816633285
 20
4468.428381263173
 10
8699.494816633285
 20
4468.428381263173
 10
8699.494816633285
 20
4558.42838126315
 97
0
 75
1
 76
1
 98
0
  0
HATCH
  5
193
330
17
100
AcDbEntity
  8
Hachura
 62
7
100
AcDbHatch
 10
0.0
 20
0.0
 30
0.0
210
0.0
220
0.0
230
1.0
  2
ANSI31
 70
0
 71
0
 91
1
 92
3
 72
0
 73
1
 93
5
 10
8657.494816633287
 20
4468.428381263173
 10
8657.494816633287
 20
4472.828381263167
 10
8671.494816633285
 20
4472.828381263167
 10
8671.494816633285
 20
4468.428381263173
 10
8657.494816633287
 20
4468.428381263173
 97
0
 75
1
 76
1
 52
0.0
 41
1.0
 77
0
 78
1
 53
45.0
 43
0.0
 44
0.0
 45
-2.2450640303
 46
2.2450640303
 79
0
 98
0
  0
HATCH
  5
194
330
17
100
AcDbEntity
  8
Hachura
 62
7
100
AcDbHatch
 10
0.0
 20
0.0
 30
0.0
210
0.0
220
0.0
230
1.0
  2
SOLID
 70
1
 71
0
 91
1
 92
3
 72
0
 73
1
 93
5
 10
8657.494816633287
 20
4472.828381263167
 10
8657.494816633287
 20
4476.428381263173
 10
8695.494816633285
 20
4476.428381263173
 10
8695.494816633285
 20
4472.828381263167
 10
8657.494816633287
 20
4472.828381263167
 97
0
 75
1
 76
1
 98
0
  0
HATCH
  5
195
330
17
100
AcDbEntity
  8
Hachura
 62
7
100
AcDbHatch
 10
0.0
 20
0.0
 30
0.0
210
0.0
220
0.0
230
1.0
  2
ANSI31
 70
0
 71
0
 91
1
 92
3
 72
0
 73
1
 93
5
 10
8695.494816633285
 20
4468.428381263173
 10
8695.494816633285
 20
4472.828381263167
 10
8681.494816633285
 20
4472.828381263167
 10
8681.494816633285
 20
4468.428381263173
 10
8695.494816633285
 20
4468.428381263173
 97
0
 75
1
 76
1
 52
0.0
 41
1.0
 77
0
 78
1
 53
45.0
 43
0.0
 44
0.0
 45
-2.2450640303
 46
2.2450640303
 79
0
 98
0
  0
HATCH
  5
196
330
17
100
AcDbEntity
  8
Hachura
 62
7
100
AcDbHatch
 10
0.0
 20
0.0
 30
0.0
210
0.0
220
0.0
230
1.0
  2
SOLID
 70
1
 71
0
 91
1
 92
3
 72
0
 73
1
 93
5
 10
8653.494816633285
 20
4586.428381263173
 10
8657.494816633287
 20
4586.428381263173
 10
8657.494816633287
 20
4468.428381263173
 10
8653.494816633285
 20
4468.428381263173
 10
8653.494816633285
 20
4586.428381263173
 97
0
 75
1
 76
1
 98
0
  0
HATCH
  5
197
330
17
100
AcDbEntity
  8
Hachura
 62
7
100
AcDbHatch
 10
0.0
 20
0.0
 30
0.0
210
0.0
220
0.0
230
1.0
  2
SOLID
 70
1
 71
0
 91
1
 92
3
 72
0
 73
1
 93
5
 10
8695.494816633285
 20
4558.42838126315
 10
8695.494816633285
 20
4562.428381263151
 10
8751.094816633262
 20
4562.428381263144
 10
8751.094816633262
 20
4558.428381263143
 10
8695.494816633285
 20
4558.42838126315
 97
0
 75
1
 76
1
 98
0
  0
HATCH
  5
198
330
17
100
AcDbEntity
  8
COTA
 62
7
100
AcDbHatch
 10
0.0
 20
0.0
 30
0.0
210
0.0
220
0.0
230
1.0
  2
AR-CONC
 70
0
 71
0
 91
1
 92
3
 72
0
 73
1
 93
6
 10
8320.80929542368
 20
4088.960392164627
 10
8320.809295423673
 20
4142.960392164623
 10
8298.809295423684
 20
4142.960392164624
 10
8298.809295423682
 20
4088.960392164623
 10
8320.809295423682
 20
4088.960392164627
 10
8320.80929542368
 20
4088.960392164627
 97
0
 75
1
 76
1
 52
0.0
 41
1.0
 77
0
 78
13
 53
50.0
 43
0.0
 44
0.0
 45
182.184668996
 46
-15.9390855389
 79
2
 49
19.05
 49
-209.55
 53
355.0
 43
0.0
 44
0.0
 45
-35.243421425
 46
191.056845239
 79
2
 49
15.24
 49
-167.64058417
 53
100.4514447
 43
15.182007
 44
-1.3282535
 45
146.9412470904
 46
175.1177519122
 79
2
 49
16.1900088
 49
-178.0902446
 53
46.1842
 43
0.0
 44
50.8
 45
271.0790408921
 46
-42.0423279327
 79
2
 49
28.575
 49
-314.325
 53
96.63555761
 43
22.5899
 44
47.2965
 45
237.4041340515
 46
247.4261245977
 79
2
 49
24.28502314
 49
-267.13560816
 53
351.18415117
 43
0.0
 44
50.8
 45
237.404134065
 46
247.4261245855
 79
2
 49
22.85996707
 49
-251.45973192
 53
21.0
 43
25.4
 44
38.1
 45
151.6143912691
 46
-102.2651981871
 79
2
 49
19.05
 49
-209.55
 53
326.0
 43
25.4
 44
38.1
 45
61.8020283476
 46
184.1879661223
 79
2
 49
15.24
 49
-167.64
 53
71.451445
 43
38.0345326
 44
29.5779001
 45
213.4164192787
 46
81.9227688859
 79
2
 49
16.1900088
 49
-178.0899376
 53
37.5
 43
0.0
 44
0.0
 45
3.0886032506
 46
84.5550388732
 79
6
 49
0.0
 49
-165.608
 49
0.0
 49
-170.18
 49
0.0
 49
-168.275
 53
7.5
 43
0.0
 44
0.0
 45
66.8196625103
 46
100.1805748181
 79
6
 49
0.0
 49
-97.028
 49
0.0
 49
-161.798
 49
0.0
 49
-64.135
 53
-32.5
 43
-56.642
 44
0.0
 45
135.5905951669
 46
-5.7287439927
 79
6
 49
0.0
 49
-63.5
 49
0.0
 49
-198.12
 49
0.0
 49
-262.89
 53
-42.5
 43
-82.042
 44
0.0
 45
148.129181386
 46
25.4264910333
 79
6
 49
0.0
 49
-82.55
 49
0.0
 49
-131.572
 49
0.0
 49
-186.69
 98
0
  0
HATCH
  5
199
330
17
100
AcDbEntity
  8
Hachura
 62
7
100
AcDbHatch
 10
0.0
 20
0.0
 30
0.0
210
0.0
220
0.0
230
1.0
  2
ANSI31
 70
0
 71
0
 91
1
 92
3
 72
0
 73
1
 93
5
 10
8406.604078015405
 20
4572.428381263173
 10
8402.204078015411
 20
4572.428381263173
 10
8402.204078015411
 20
4586.428381263173
 10
8406.604078015405
 20
4586.428381263173
 10
8406.604078015405
 20
4572.428381263173
 97
0
 75
1
 76
1
 52
0.0
 41
1.0
 77
0
 78
1
 53
45.0
 43
0.0
 44
0.0
 45
-2.2450640303
 46
2.2450640303
 79
0
 98
0
  0
HATCH
  5
19A
330
17
100
AcDbEntity
  8
Hachura
 62
7
100
AcDbHatch
 10
0.0
 20
0.0
 30
0.0
210
0.0
220
0.0
230
1.0
  2
ANSI31
 70
0
 71
0
 91
1
 92
3
 72
0
 73
1
 93
5
 10
8406.604078015413
 20
4524.398438791478
 10
8402.204078015418
 20
4524.398438791478
 10
8402.204078015418
 20
4538.398438791478
 10
8406.604078015413
 20
4538.398438791478
 10
8406.604078015413
 20
4524.398438791478
 97
0
 75
1
 76
1
 52
0.0
 41
1.0
 77
0
 78
1
 53
45.0
 43
0.0
 44
0.0
 45
-2.2450640303
 46
2.2450640303
 79
0
 98
0
  0
HATCH
  5
19B
330
17
100
AcDbEntity
  8
Hachura
 62
7
100
AcDbHatch
 10
0.0
 20
0.0
 30
0.0
210
0.0
220
0.0
230
1.0
  2
ANSI31
 70
0
 71
0
 91
1
 92
3
 72
0
 73
1
 93
5
 10
8406.60407801542
 20
4468.428381263173
 10
8402.204078015426
 20
4468.428381263173
 10
8402.204078015426
 20
4482.428381263172
 10
8406.60407801542
 20
4482.428381263172
 10
8406.60407801542
 20
4468.428381263173
 97
0
 75
1
 76
1
 52
0.0
 41
1.0
 77
0
 78
1
 53
45.0
 43
0.0
 44
0.0
 45
-2.2450640303
 46
2.2450640303
 79
0
 98
0
  0
HATCH
  5
19C
330
17
100
AcDbEntity
  8
Hachura
 62
7
100
AcDbHatch
 10
0.0
 20
0.0
 30
0.0
210
0.0
220
0.0
230
1.0
  2
ANSI31
 70
0
 71
0
 91
1
 92
3
 72
0
 73
1
 93
5
 10
8653.494816633274
 20
4572.428381263173
 10
8649.094816633278
 20
4572.428381263173
 10
8649.094816633278
 20
4586.428381263173
 10
8653.494816633274
 20
4586.428381263173
 10
8653.494816633274
 20
4572.428381263173
 97
0
 75
1
 76
1
 52
0.0
 41
1.0
 77
0
 78
1
 53
45.0
 43
0.0
 44
0.0
 45
-2.2450640303
 46
2.2450640303
 79
0
 98
0
  0
HATCH
  5
19D
330
17
100
AcDbEntity
  8
Hachura
 62
7
100
AcDbHatch
 10
0.0
 20
0.0
 30
0.0
210
0.0
220
0.0
230
1.0
  2
ANSI31
 70
0
 71
0
 91
1
 92
3
 72
0
 73
1
 93
5
 10
8653.494816633282
 20
4524.398438791478
 10
8649.094816633287
 20
4524.398438791478
 10
8649.094816633287
 20
4538.398438791478
 10
8653.494816633282
 20
4538.398438791478
 10
8653.494816633282
 20
4524.398438791478
 97
0
 75
1
 76
1
 52
0.0
 41
1.0
 77
0
 78
1
 53
45.0
 43
0.0
 44
0.0
 45
-2.2450640303
 46
2.2450640303
 79
0
 98
0
  0
HATCH
  5
19E
330
17
100
AcDbEntity
  8
Hachura
 62
7
100
AcDbHatch
 10
0.0
 20
0.0
 30
0.0
210
0.0
220
0.0
230
1.0
  2
ANSI31
 70
0
 71
0
 91
1
 92
3
 72
0
 73
1
 93
5
 10
8653.494816633285
 20
4468.428381263173
 10
8649.094816633293
 20
4468.428381263173
 10
8649.094816633293
 20
4482.428381263172
 10
8653.494816633285
 20
4482.428381263172
 10
8653.494816633285
 20
4468.428381263173
 97
0
 75
1
 76
1
 52
0.0
 41
1.0
 77
0
 78
1
 53
45.0
 43
0.0
 44
0.0
 45
-2.2450640303
 46
2.2450640303
 79
0
 98
0
  0
HATCH
  5
19F
330
17
100
AcDbEntity
  8
Hachura
 62
7
100
AcDbHatch
 10
0.0
 20
0.0
 30
0.0
210
0.0
220
0.0
230
1.0
  2
ANSI31
 70
0
 71
0
 91
1
 92
3
 72
0
 73
1
 93
5
 10
8452.604078015416
 20
4572.428381263173
 10
8457.00407801541
 20
4572.428381263173
 10
8457.00407801541
 20
4586.428381263173
 10
8452.604078015416
 20
4586.428381263173
 10
8452.604078015416
 20
4572.428381263173
 97
0
 75
1
 76
1
 52
0.0
 41
1.0
 77
0
 78
1
 53
45.0
 43
0.0
 44
0.0
 45
-2.2450640303
 46
2.2450640303
 79
0
 98
0
  0
HATCH
  5
1A0
330
17
100
AcDbEntity
  8
Hachura
 62
7
100
AcDbHatch
 10
0.0
 20
0.0
 30
0.0
210
0.0
220
0.0
230
1.0
  2
ANSI31
 70
0
 71
0
 91
1
 92
3
 72
0
 73
1
 93
5
 10
8452.604078015413
 20
4524.398438791478
 10
8457.004078015407
 20
4524.398438791478
 10
8457.004078015407
 20
4538.398438791478
 10
8452.604078015413
 20
4538.398438791478
 10
8452.604078015413
 20
4524.398438791478
 97
0
 75
1
 76
1
 52
0.0
 41
1.0
 77
0
 78
1
 53
45.0
 43
0.0
 44
0.0
 45
-2.2450640303
 46
2.2450640303
 79
0
 98
0
  0
HATCH
  5
1A1
330
17
100
AcDbEntity
  8
Hachura
 62
7
100
AcDbHatch
 10
0.0
 20
0.0
 30
0.0
210
0.0
220
0.0
230
1.0
  2
ANSI31
 70
0
 71
0
 91
1
 92
3
 72
0
 73
1
 93
5
 10
8452.604078015404
 20
4468.428381263173
 10
8457.0040780154
 20
4468.428381263173
 10
8457.0040780154
 20
4482.428381263172
 10
8452.604078015404
 20
4482.428381263172
 10
8452.604078015404
 20
4468.428381263173
 97
0
 75
1
 76
1
 52
0.0
 41
1.0
 77
0
 78
1
 53
45.0
 43
0.0
 44
0.0
 45
-2.2450640303
 46
2.2450640303
 79
0
 98
0
  0
HATCH
  5
1A2
330
17
100
AcDbEntity
  8
Hachura
 62
7
100
AcDbHatch
 10
0.0
 20
0.0
 30
0.0
210
0.0
220
0.0
230
1.0
  2
ANSI31
 70
0
 71
0
 91
1
 92
3
 72
0
 73
1
 93
5
 10
8703.89481663328
 20
4544.428381263151
 10
8699.494816633285
 20
4544.428381263151
 10
8699.494816633285
 20
4558.42838126315
 10
8703.89481663328
 20
4558.42838126315
 10
8703.89481663328
 20
4544.428381263151
 97
0
 75
1
 76
1
 52
0.0
 41
1.0
 77
0
 78
1
 53
45.0
 43
0.0
 44
0.0
 45
-2.2450640303
 46
2.2450640303
 79
0
 98
0
  0
HATCH
  5
1A3
330
17
100
AcDbEntity
  8
Hachura
 62
7
100
AcDbHatch
 10
0.0
 20
0.0
 30
0.0
210
0.0
220
0.0
230
1.0
  2
ANSI31
 70
0
 71
0
 91
1
 92
3
 72
0
 73
1
 93
5
 10
8703.89481663328
 20
4468.428381263173
 10
8699.494816633285
 20
4468.428381263173
 10
8699.494816633285
 20
4482.428381263172
 10
8703.89481663328
 20
4482.428381263172
 10
8703.89481663328
 20
4468.428381263173
 97
0
 75
1
 76
1
 52
0.0
 41
1.0
 77
0
 78
1
 53
45.0
 43
0.0
 44
0.0
 45
-2.2450640303
 46
2.2450640303
 79
0
 98
0
  0
HATCH
  5
1A4
330
17
100
AcDbEntity
  8
Hachura
 62
7
100
AcDbHatch
 10
0.0
 20
0.0
 30
0.0
210
0.0
220
0.0
230
1.0
  2
ANSI31
 70
0
 71
0
 91
1
 92
3
 72
0
 73
1
 93
5
 10
8703.89481663328
 20
4506.428381263162
 10
8699.494816633285
 20
4506.428381263162
 10
8699.494816633285
 20
4520.428381263162
 10
8703.89481663328
 20
4520.428381263162
 10
8703.89481663328
 20
4506.428381263162
 97
0
 75
1
 76
1
 52
0.0
 41
1.0
 77
0
 78
1
 53
45.0
 43
0.0
 44
0.0
 45
-2.2450640303
 46
2.2450640303
 79
0
 98
0
  0
HATCH
  5
1A5
330
17
100
AcDbEntity
  8
REAPROVEITAMENTO
 62
7
100
AcDbHatch
 10
0.0
 20
0.0
 30
0.0
210
0.0
220
0.0
230
1.0
  2
ANSI31
 70
0
 71
0
 91
1
 92
3
 72
0
 73
1
 93
6
 10
8858.795386927412
 20
4297.057479440687
 10
8858.795386927408
 20
4356.05747944069
 10
8174.295386927409
 20
4356.057479440686
 10
8174.295386927411
 20
4297.057479440684
 10
8858.795386927413
 20
4297.057479440687
 10
8858.795386927412
 20
4297.057479440687
 97
0
 75
1
 76
1
 52
0.0
 41
1.0
 77
0
 78
1
 53
45.0
 43
0.0
 44
0.0
 45
-2.2450640303
 46
2.2450640303
 79
0
 98
0
  0
HATCH
  5
1A6
330
17
100
AcDbEntity
  8
REAPROVEITAMENTO
 62
7
100
AcDbHatch
 10
0.0
 20
0.0
 30
0.0
210
0.0
220
0.0
230
1.0
  2
ANSI31
 70
0
 71
0
 91
1
 92
3
 72
0
 73
1
 93
8
 10
8298.809295423684
 20
4088.960392164625
 10
8298.809295423684
 20
4142.960392164634
 10
8174.809295423678
 20
4142.960392164639
 10
8174.809295423679
 20
4083.960392164622
 10
8320.809295423678
 20
4083.960392164613
 10
8320.809295423676
 20
4088.960392164624
 10
8298.809295423682
 20
4088.960392164625
 10
8298.809295423684
 20
4088.960392164625
 97
0
 75
1
 76
1
 52
0.0
 41
1.0
 77
0
 78
1
 53
45.0
 43
0.0
 44
0.0
 45
-2.2450640303
 46
2.2450640303
 79
0
 98
0
  0
HATCH
  5
1A7
330
17
100
AcDbEntity
  8
REAPROVEITAMENTO
 62
7
100
AcDbHatch
 10
0.0
 20
0.0
 30
0.0
210
0.0
220
0.0
230
1.0
  2
ANSI31
 70
0
 71
0
 91
1
 92
3
 72
0
 73
1
 93
6
 10
8564.809295423676
 20
4083.960392164641
 10
8564.809295423673
 20
4142.960392164643
 10
8320.80929542367
 20
4142.960392164624
 10
8320.809295423673
 20
4083.960392164623
 10
8564.809295423678
 20
4083.960392164641
 10
8564.809295423676
 20
4083.960392164641
 97
0
 75
1
 76
1
 52
0.0
 41
1.0
 77
0
 78
1
 53
45.0
 43
0.0
 44
0.0
 45
-2.2450640303
 46
2.2450640303
 79
0
 98
0
  0
HATCH
  5
1A8
330
17
100
AcDbEntity
  8
REAPROVEITAMENTO
 62
7
100
AcDbHatch
 10
0.0
 20
0.0
 30
0.0
210
0.0
220
0.0
230
1.0
  2
ANSI31
 70
0
 71
0
 91
1
 92
3
 72
0
 73
1
 93
5
 10
8744.809295423678
 20
4083.960392164641
 10
8744.809295423676
 20
4142.960392164639
 10
8564.809295423673
 20
4142.960392164638
 10
8564.809295423673
 20
4083.960392164638
 10
8744.809295423678
 20
4083.960392164641
 97
0
 75
1
 76
1
 52
0.0
 41
1.0
 77
0
 78
1
 53
45.0
 43
0.0
 44
0.0
 45
-2.2450640303
 46
2.2450640303
 79
0
 98
0
  0
HATCH
  5
1A9
330
17
100
AcDbEntity
  8
REAPROVEITAMENTO
 62
7
100
AcDbHatch
 10
0.0
 20
0.0
 30
0.0
210
0.0
220
0.0
230
1.0
  2
ANSI31
 70
0
 71
0
 91
1
 92
3
 72
0
 73
1
 93
8
 10
8892.809295423676
 20
4083.960392164621
 10
8892.809295423676
 20
4128.960392164602
 10
8771.80929542367
 20
4128.9603921646
 10
8771.809295423676
 20
4088.960392164596
 10
8744.809295423676
 20
4088.960392164596
 10
8744.809295423676
 20
4083.960392164595
 10
8892.809295423678
 20
4083.960392164621
 10
8892.809295423676
 20
4083.960392164621
 97
0
 75
1
 76
1
 52
0.0
 41
1.0
 77
0
 78
1
 53
45.0
 43
0.0
 44
0.0
 45
-2.2450640303
 46
2.2450640303
 79
0
 98
0
  0
ENDSEC
  0
SECTION
  2
OBJECTS
  0
DICTIONARY
  5
A
330
0
100
AcDbDictionary
281
1
  3
ACAD_COLOR
350
B
  3
ACAD_GROUP
350
C
  3
ACAD_LAYOUT
350
D
  3
ACAD_MATERIAL
350
E
  3
ACAD_MLEADERSTYLE
350
F
  3
ACAD_MLINESTYLE
350
10
  3
ACAD_PLOTSETTINGS
350
11
  3
ACAD_PLOTSTYLENAME
350
12
  3
ACAD_SCALELIST
350
14
  3
ACAD_TABLESTYLE
350
15
  3
ACAD_VISUALSTYLE
350
16
  3
EZDXF_META
350
2D
  0
DICTIONARY
  5
B
330
A
100
AcDbDictionary
281
1
  0
DICTIONARY
  5
C
330
A
100
AcDbDictionary
281
1
  0
DICTIONARY
  5
D
330
A
100
AcDbDictionary
281
1
  3
Model
350
1A
  3
Layout1
350
1E
  0
DICTIONARY
  5
E
330
A
100
AcDbDictionary
281
1
  3
ByBlock
350
1F
  3
ByLayer
350
20
  3
Global
350
21
  0
DICTIONARY
  5
F
330
A
100
AcDbDictionary
281
1
  3
Standard
350
2C
  0
DICTIONARY
  5
10
330
A
100
AcDbDictionary
281
1
  3
Standard
350
22
  0
DICTIONARY
  5
11
330
A
100
AcDbDictionary
281
1
  0
ACDBDICTIONARYWDFLT
  5
12
330
A
100
AcDbDictionary
281
1
  3
Normal
350
13
100
AcDbDictionaryWithDefault
340
13
  0
ACDBPLACEHOLDER
  5
13
330
12
  0
DICTIONARY
  5
14
330
A
100
AcDbDictionary
281
1
  0
DICTIONARY
  5
15
330
A
100
AcDbDictionary
281
1
  0
DICTIONARY
  5
16
330
A
100
AcDbDictionary
281
1
  0
LAYOUT
  5
1A
330
D
100
AcDbPlotSettings
  1

  4
A3
  6

 40
7.5
 41
20.0
 42
7.5
 43
20.0
 44
420.0
 45
297.0
 46
0.0
 47
0.0
 48
0.0
 49
0.0
140
0.0
141
0.0
142
1.0
143
1.0
 70
1024
 72
1
 73
0
 74
5
  7

 75
16
 76
0
 77
2
 78
300
147
1.0
148
0.0
149
0.0
100
AcDbLayout
  1
Model
 70
1
 71
0
 10
0.0
 20
0.0
 11
420.0
 21
297.0
 12
0.0
 22
0.0
 32
0.0
 14
1e+20
 24
1e+20
 34
1e+20
 15
-1e+20
 25
-1e+20
 35
-1e+20
146
0.0
 13
0.0
 23
0.0
 33
0.0
 16
1.0
 26
0.0
 36
0.0
 17
0.0
 27
1.0
 37
0.0
 76
1
330
17
  0
LAYOUT
  5
1E
330
D
100
AcDbPlotSettings
  1

  4
A3
  6

 40
7.5
 41
20.0
 42
7.5
 43
20.0
 44
420.0
 45
297.0
 46
0.0
 47
0.0
 48
0.0
 49
0.0
140
0.0
141
0.0
142
1.0
143
1.0
 70
0
 72
1
 73
0
 74
5
  7

 75
16
 76
0
 77
2
 78
300
147
1.0
148
0.0
149
0.0
100
AcDbLayout
  1
Layout1
 70
1
 71
1
 10
0.0
 20
0.0
 11
420.0
 21
297.0
 12
0.0
 22
0.0
 32
0.0
 14
1e+20
 24
1e+20
 34
1e+20
 15
-1e+20
 25
-1e+20
 35
-1e+20
146
0.0
 13
0.0
 23
0.0
 33
0.0
 16
1.0
 26
0.0
 36
0.0
 17
0.0
 27
1.0
 37
0.0
 76
1
330
1B
  0
MATERIAL
  5
1F
102
{ACAD_REACTORS
330
E
102
}
330
E
100
AcDbMaterial
  1
ByBlock
  2

 70
0
 40
1.0
 71
1
 41
1.0
 91
-1023410177
 42
1.0
 72
1
  3

 73
1
 74
1
 75
1
 44
0.5
 73
0
 45
1.0
 46
1.0
 77
1
  4

 78
1
 79
1
170
1
 48
1.0
171
1
  6

172
1
173
1
174
1
140
1.0
141
1.0
175
1
  7

176
1
177
1
178
1
143
1.0
179
1
  8

270
1
271
1
272
1
145
1.0
146
1.0
273
1
  9

274
1
275
1
276
1
 42
1.0
 72
1
  3

 73
1
 74
1
 75
1
 94
63
  0
MATERIAL
  5
20
102
{ACAD_REACTORS
330
E
102
}
330
E
100
AcDbMaterial
  1
ByLayer
  2

 70
0
 40
1.0
 71
1
 41
1.0
 91
-1023410177
 42
1.0
 72
1
  3

 73
1
 74
1
 75
1
 44
0.5
 73
0
 45
1.0
 46
1.0
 77
1
  4

 78
1
 79
1
170
1
 48
1.0
171
1
  6

172
1
173
1
174
1
140
1.0
141
1.0
175
1
  7

176
1
177
1
178
1
143
1.0
179
1
  8

270
1
271
1
272
1
145
1.0
146
1.0
273
1
  9

274
1
275
1
276
1
 42
1.0
 72
1
  3

 73
1
 74
1
 75
1
 94
63
  0
MATERIAL
  5
21
102
{ACAD_REACTORS
330
E
102
}
330
E
100
AcDbMaterial
  1
Global
  2

 70
0
 40
1.0
 71
1
 41
1.0
 91
-1023410177
 42
1.0
 72
1
  3

 73
1
 74
1
 75
1
 44
0.5
 73
0
 45
1.0
 46
1.0
 77
1
  4

 78
1
 79
1
170
1
 48
1.0
171
1
  6

172
1
173
1
174
1
140
1.0
141
1.0
175
1
  7

176
1
177
1
178
1
143
1.0
179
1
  8

270
1
271
1
272
1
145
1.0
146
1.0
273
1
  9

274
1
275
1
276
1
 42
1.0
 72
1
  3

 73
1
 74
1
 75
1
 94
63
  0
MLINESTYLE
  5
22
102
{ACAD_REACTORS
330
10
102
}
330
10
100
AcDbMlineStyle
  2
Standard
 70
0
  3

 62
256
 51
90.0
 52
90.0
 71
2
 49
0.5
 62
256
  6
BYLAYER
 49
-0.5
 62
256
  6
BYLAYER
  0
MLEADERSTYLE
  5
2C
102
{ACAD_REACTORS
330
F
102
}
330
F
100
AcDbMLeaderStyle
179
2
170
2
171
1
172
0
 90
2
 40
0.0
 41
0.0
173
1
 91
-1056964608
 92
-2
290
1
 42
2.0
291
1
 43
8.0
  3
Standard
 44
4.0
300

342
29
174
1
175
1
176
0
178
1
 93
-1056964608
 45
4.0
292
0
297
0
 46
4.0
 94
-1056964608
 47
1.0
 49
1.0
140
1.0
294
1
141
0.0
177
0
142
1.0
295
0
296
0
143
3.75
271
0
272
9
273
9
  0
DICTIONARY
  5
2D
330
A
100
AcDbDictionary
280
1
281
1
  3
CREATED_BY_EZDXF
350
2E
  3
WRITTEN_BY_EZDXF
350
1AC
  0
DICTIONARYVAR
  5
2E
330
2D
100
DictionaryVariables
280
0
  1
1.4.3 @ 2026-06-10T17:42:54.165756+00:00
  0
DICTIONARYVAR
  5
1AC
330
2D
100
DictionaryVariables
280
0
  1
1.4.3 @ 2026-06-10T17:42:54.178767+00:00
  0
ENDSEC
  0
EOF
