  0
SECTION
  2
HEADER
  9
$ACADVER
  1
AC1024
  9
$ACADMAINTVER
 70
6
  9
$DWGCODEPAGE
  3
ANSI_1252
  9
$LASTSAVEDBY
  1
ezdxf
  9
$INSBASE
 10
0.0
 20
0.0
 30
0.0
  9
$EXTMIN
 10
1e+20
 20
1e+20
 30
1e+20
  9
$EXTMAX
 10
-1e+20
 20
-1e+20
 30
-1e+20
  9
$LIMMIN
 10
0.0
 20
0.0
  9
$LIMMAX
 10
420.0
 20
297.0
  9
$ORTHOMODE
 70
0
  9
$REGENMODE
 70
1
  9
$FILLMODE
 70
1
  9
$QTEXTMODE
 70
0
  9
$MIRRTEXT
 70
1
  9
$LTSCALE
 40
1.0
  9
$ATTMODE
 70
1
  9
$TEXTSIZE
 40
2.5
  9
$TRACEWID
 40
1.0
  9
$TEXTSTYLE
  7
Standard
  9
$CLAYER
  8
0
  9
$CELTYPE
  6
ByLayer
  9
$CECOLOR
 62
256
  9
$CELTSCALE
 40
1.0
  9
$DISPSILH
 70
0
  9
$DIMSCALE
 40
1.0
  9
$DIMASZ
 40
2.5
  9
$DIMEXO
 40
0.625
  9
$DIMDLI
 40
3.75
  9
$DIMRND
 40
0.0
  9
$DIMDLE
 40
0.0
  9
$DIMEXE
 40
1.25
  9
$DIMTP
 40
0.0
  9
$DIMTM
 40
0.0
  9
$DIMTXT
 40
2.5
  9
$DIMCEN
 40
2.5
  9
$DIMTSZ
 40
0.0
  9
$DIMTOL
 70
0
  9
$DIMLIM
 70
0
  9
$DIMTIH
 70
0
  9
$DIMTOH
 70
0
  9
$DIMSE1
 70
0
  9
$DIMSE2
 70
0
  9
$DIMTAD
 70
1
  9
$DIMZIN
 70
8
  9
$DIMBLK
  1

  9
$DIMASO
 70
1
  9
$DIMSHO
 70
1
  9
$DIMPOST
  1

  9
$DIMAPOST
  1

  9
$DIMALT
 70
0
  9
$DIMALTD
 70
3
  9
$DIMALTF
 40
0.03937007874
  9
$DIMLFAC
 40
1.0
  9
$DIMTOFL
 70
1
  9
$DIMTVP
 40
0.0
  9
$DIMTIX
 70
0
  9
$DIMSOXD
 70
0
  9
$DIMSAH
 70
0
  9
$DIMBLK1
  1

  9
$DIMBLK2
  1

  9
$DIMSTYLE
  2
ISO-25
  9
$DIMCLRD
 70
0
  9
$DIMCLRE
 70
0
  9
$DIMCLRT
 70
0
  9
$DIMTFAC
 40
1.0
  9
$DIMGAP
 40
0.625
  9
$DIMJUST
 70
0
  9
$DIMSD1
 70
0
  9
$DIMSD2
 70
0
  9
$DIMTOLJ
 70
0
  9
$DIMTZIN
 70
8
  9
$DIMALTZ
 70
0
  9
$DIMALTTZ
 70
0
  9
$DIMUPT
 70
0
  9
$DIMDEC
 70
2
  9
$DIMTDEC
 70
2
  9
$DIMALTU
 70
2
  9
$DIMALTTD
 70
3
  9
$DIMTXSTY
  7
Standard
  9
$DIMAUNIT
 70
0
  9
$DIMADEC
 70
0
  9
$DIMALTRND
 40
0.0
  9
$DIMAZIN
 70
0
  9
$DIMDSEP
 70
44
  9
$DIMATFIT
 70
3
  9
$DIMFRAC
 70
0
  9
$DIMLDRBLK
  1

  9
$DIMLUNIT
 70
2
  9
$DIMLWD
 70
-2
  9
$DIMLWE
 70
-2
  9
$DIMTMOVE
 70
0
  9
$DIMFXL
 40
1.0
  9
$DIMFXLON
 70
0
  9
$DIMJOGANG
 40
0.785398163397
  9
$DIMTFILL
 70
0
  9
$DIMTFILLCLR
 70
0
  9
$DIMARCSYM
 70
0
  9
$DIMLTYPE
  6

  9
$DIMLTEX1
  6

  9
$DIMLTEX2
  6

  9
$DIMTXTDIRECTION
 70
0
  9
$LUNITS
 70
2
  9
$LUPREC
 70
4
  9
$SKETCHINC
 40
1.0
  9
$FILLETRAD
 40
10.0
  9
$AUNITS
 70
0
  9
$AUPREC
 70
2
  9
$MENU
  1
.
  9
$ELEVATION
 40
0.0
  9
$PELEVATION
 40
0.0
  9
$THICKNESS
 40
0.0
  9
$LIMCHECK
 70
0
  9
$CHAMFERA
 40
0.0
  9
$CHAMFERB
 40
0.0
  9
$CHAMFERC
 40
0.0
  9
$CHAMFERD
 40
0.0
  9
$SKPOLY
 70
0
  9
$TDCREATE
 40
2461202.613113426
  9
$TDUCREATE
 40
2458532.153996898
  9
$TDUPDATE
 40
2461202.613113426
  9
$TDUUPDATE
 40
2458532.1544311
  9
$TDINDWG
 40
0.0
  9
$TDUSRTIMER
 40
0.0
  9
$USRTIMER
 70
1
  9
$ANGBASE
 50
0.0
  9
$ANGDIR
 70
0
  9
$PDMODE
 70
0
  9
$PDSIZE
 40
0.0
  9
$PLINEWID
 40
0.0
  9
$SPLFRAME
 70
0
  9
$SPLINETYPE
 70
6
  9
$SPLINESEGS
 70
8
  9
$HANDSEED
  5
1AC
  9
$SURFTAB1
 70
6
  9
$SURFTAB2
 70
6
  9
$SURFTYPE
 70
6
  9
$SURFU
 70
6
  9
$SURFV
 70
6
  9
$UCSBASE
  2

  9
$UCSNAME
  2

  9
$UCSORG
 10
0.0
 20
0.0
 30
0.0
  9
$UCSXDIR
 10
1.0
 20
0.0
 30
0.0
  9
$UCSYDIR
 10
0.0
 20
1.0
 30
0.0
  9
$UCSORTHOREF
  2

  9
$UCSORTHOVIEW
 70
0
  9
$UCSORGTOP
 10
0.0
 20
0.0
 30
0.0
  9
$UCSORGBOTTOM
 10
0.0
 20
0.0
 30
0.0
  9
$UCSORGLEFT
 10
0.0
 20
0.0
 30
0.0
  9
$UCSORGRIGHT
 10
0.0
 20
0.0
 30
0.0
  9
$UCSORGFRONT
 10
0.0
 20
0.0
 30
0.0
  9
$UCSORGBACK
 10
0.0
 20
0.0
 30
0.0
  9
$PUCSBASE
  2

  9
$PUCSNAME
  2

  9
$PUCSORG
 10
0.0
 20
0.0
 30
0.0
  9
$PUCSXDIR
 10
1.0
 20
0.0
 30
0.0
  9
$PUCSYDIR
 10
0.0
 20
1.0
 30
0.0
  9
$PUCSORTHOREF
  2

  9
$PUCSORTHOVIEW
 70
0
  9
$PUCSORGTOP
 10
0.0
 20
0.0
 30
0.0
  9
$PUCSORGBOTTOM
 10
0.0
 20
0.0
 30
0.0
  9
$PUCSORGLEFT
 10
0.0
 20
0.0
 30
0.0
  9
$PUCSORGRIGHT
 10
0.0
 20
0.0
 30
0.0
  9
$PUCSORGFRONT
 10
0.0
 20
0.0
 30
0.0
  9
$PUCSORGBACK
 10
0.0
 20
0.0
 30
0.0
  9
$USERI1
 70
0
  9
$USERI2
 70
0
  9
$USERI3
 70
0
  9
$USERI4
 70
0
  9
$USERI5
 70
0
  9
$USERR1
 40
0.0
  9
$USERR2
 40
0.0
  9
$USERR3
 40
0.0
  9
$USERR4
 40
0.0
  9
$USERR5
 40
0.0
  9
$WORLDVIEW
 70
1
  9
$SHADEDGE
 70
3
  9
$SHADEDIF
 70
70
  9
$TILEMODE
 70
1
  9
$MAXACTVP
 70
64
  9
$PINSBASE
 10
0.0
 20
0.0
 30
0.0
  9
$PLIMCHECK
 70
0
  9
$PEXTMIN
 10
1e+20
 20
1e+20
 30
1e+20
  9
$PEXTMAX
 10
-1e+20
 20
-1e+20
 30
-1e+20
  9
$PLIMMIN
 10
0.0
 20
0.0
  9
$PLIMMAX
 10
420.0
 20
297.0
  9
$UNITMODE
 70
0
  9
$VISRETAIN
 70
1
  9
$PLINEGEN
 70
0
  9
$PSLTSCALE
 70
1
  9
$TREEDEPTH
 70
3020
  9
$CMLSTYLE
  2
Standard
  9
$CMLJUST
 70
0
  9
$CMLSCALE
 40
20.0
  9
$PROXYGRAPHICS
 70
1
  9
$MEASUREMENT
 70
1
  9
$CELWEIGHT
370
-1
  9
$ENDCAPS
280
0
  9
$JOINSTYLE
280
0
  9
$LWDISPLAY
290
0
  9
$INSUNITS
 70
6
  9
$HYPERLINKBASE
  1

  9
$STYLESHEET
  1

  9
$XEDIT
290
1
  9
$CEPSNTYPE
380
0
  9
$PSTYLEMODE
290
1
  9
$FINGERPRINTGUID
  2
{BE7FC2AB-F5F5-4456-A083-A1DFB2AB6243}
  9
$VERSIONGUID
  2
{ADF01A08-259B-433D-AA05-AEC7E3F68CC9}
  9
$EXTNAMES
290
1
  9
$PSVPSCALE
 40
0.0
  9
$OLESTARTUP
290
0
  9
$SORTENTS
280
127
  9
$INDEXCTL
280
0
  9
$HIDETEXT
280
1
  9
$XCLIPFRAME
280
1
  9
$HALOGAP
280
0
  9
$OBSCOLOR
 70
257
  9
$OBSLTYPE
280
0
  9
$INTERSECTIONDISPLAY
280
0
  9
$INTERSECTIONCOLOR
 70
257
  9
$DIMASSOC
280
2
  9
$PROJECTNAME
  1

  9
$CAMERADISPLAY
290
0
  9
$LENSLENGTH
 40
50.0
  9
$CAMERAHEIGHT
 40
0.0
  9
$STEPSPERSEC
 40
24.0
  9
$STEPSIZE
 40
100.0
  9
$3DDWFPREC
 40
2.0
  9
$PSOLWIDTH
 40
0.005
  9
$PSOLHEIGHT
 40
0.08
  9
$LOFTANG1
 40
1.570796326795
  9
$LOFTANG2
 40
1.570796326795
  9
$LOFTMAG1
 40
0.0
  9
$LOFTMAG2
 40
0.0
  9
$LOFTPARAM
 70
7
  9
$LOFTNORMALS
280
1
  9
$LATITUDE
 40
37.795
  9
$LONGITUDE
 40
-122.394
  9
$NORTHDIRECTION
 40
0.0
  9
$TIMEZONE
 70
-8000
  9
$LIGHTGLYPHDISPLAY
280
1
  9
$TILEMODELIGHTSYNCH
280
1
  9
$CMATERIAL
347
20
  9
$SOLIDHIST
280
0
  9
$SHOWHIST
280
1
  9
$DWFFRAME
280
2
  9
$DGNFRAME
280
2
  9
$REALWORLDSCALE
290
1
  9
$INTERFERECOLOR
 62
256
  9
$CSHADOW
280
0
  9
$SHADOWPLANELOCATION
 40
0.0
  0
ENDSEC
  0
SECTION
  2
CLASSES
  0
CLASS
  1
ACDBDICTIONARYWDFLT
  2
AcDbDictionaryWithDefault
  3
ObjectDBX Classes
 90
0
 91
0
280
0
281
0
  0
CLASS
  1
SUN
  2
AcDbSun
  3
SCENEOE
 90
1153
 91
0
280
0
281
0
  0
CLASS
  1
VISUALSTYLE
  2
AcDbVisualStyle
  3
ObjectDBX Classes
 90
4095
 91
0
280
0
281
0
  0
CLASS
  1
MATERIAL
  2
AcDbMaterial
  3
ObjectDBX Classes
 90
1153
 91
0
280
0
281
0
  0
CLASS
  1
SCALE
  2
AcDbScale
  3
ObjectDBX Classes
 90
1153
 91
0
280
0
281
0
  0
CLASS
  1
TABLESTYLE
  2
AcDbTableStyle
  3
ObjectDBX Classes
 90
4095
 91
0
280
0
281
0
  0
CLASS
  1
MLEADERSTYLE
  2
AcDbMLeaderStyle
  3
ACDB_MLEADERSTYLE_CLASS
 90
4095
 91
0
280
0
281
0
  0
CLASS
  1
DICTIONARYVAR
  2
AcDbDictionaryVar
  3
ObjectDBX Classes
 90
0
 91
0
280
0
281
0
  0
CLASS
  1
CELLSTYLEMAP
  2
AcDbCellStyleMap
  3
ObjectDBX Classes
 90
1152
 91
0
280
0
281
0
  0
CLASS
  1
MENTALRAYRENDERSETTINGS
  2
AcDbMentalRayRenderSettings
  3
SCENEOE
 90
1024
 91
0
280
0
281
0
  0
CLASS
  1
ACDBDETAILVIEWSTYLE
  2
AcDbDetailViewStyle
  3
ObjectDBX Classes
 90
1025
 91
0
280
0
281
0
  0
CLASS
  1
ACDBSECTIONVIEWSTYLE
  2
AcDbSectionViewStyle
  3
ObjectDBX Classes
 90
1025
 91
0
280
0
281
0
  0
CLASS
  1
RASTERVARIABLES
  2
AcDbRasterVariables
  3
ISM
 90
0
 91
0
280
0
281
0
  0
CLASS
  1
ACDBPLACEHOLDER
  2
AcDbPlaceHolder
  3
ObjectDBX Classes
 90
0
 91
0
280
0
281
0
  0
CLASS
  1
LAYOUT
  2
AcDbLayout
  3
ObjectDBX Classes
 90
0
 91
0
280
0
281
0
  0
ENDSEC
  0
SECTION
  2
TABLES
  0
TABLE
  2
VPORT
  5
8
330
0
100
AcDbSymbolTable
 70
1
  0
VPORT
  5
23
330
8
100
AcDbSymbolTableRecord
100
AcDbViewportTableRecord
  2
*Active
 70
0
 10
0.0
 20
0.0
 11
1.0
 21
1.0
 12
0.0
 22
0.0
 13
0.0
 23
0.0
 14
0.5
 24
0.5
 15
0.5
 25
0.5
 16
0.0
 26
0.0
 36
1.0
 17
0.0
 27
0.0
 37
0.0
 40
1000.0
 41
1.34
 42
50.0
 43
0.0
 44
0.0
 50
0.0
 51
0.0
 71
0
 72
1000
 73
1
 74
3
 75
0
 76
0
 77
0
 78
0
281
0
 65
0
146
0.0
  0
ENDTAB
  0
TABLE
  2
LTYPE
  5
2
330
0
100
AcDbSymbolTable
 70
3
  0
LTYPE
  5
24
330
2
100
AcDbSymbolTableRecord
100
AcDbLinetypeTableRecord
  2
ByBlock
 70
0
  3

 72
65
 73
0
 40
0.0
  0
LTYPE
  5
25
330
2
100
AcDbSymbolTableRecord
100
AcDbLinetypeTableRecord
  2
ByLayer
 70
0
  3

 72
65
 73
0
 40
0.0
  0
LTYPE
  5
26
330
2
100
AcDbSymbolTableRecord
100
AcDbLinetypeTableRecord
  2
Continuous
 70
0
  3

 72
65
 73
0
 40
0.0
  0
ENDTAB
  0
TABLE
  2
LAYER
  5
1
330
0
100
AcDbSymbolTable
 70
14
  0
LAYER
  5
27
330
1
100
AcDbSymbolTableRecord
100
AcDbLayerTableRecord
  2
0
 70
0
 62
7
  6
Continuous
370
-3
390
13
347
21
  0
LAYER
  5
28
330
1
100
AcDbSymbolTableRecord
100
AcDbLayerTableRecord
  2
Defpoints
 70
0
 62
7
  6
Continuous
290
0
370
-3
390
13
347
21
  0
LAYER
  5
2F
330
1
100
AcDbSymbolTableRecord
100
AcDbLayerTableRecord
  2
detalhes
 70
0
 62
7
  6
Continuous
370
-3
390
13
347
21
  0
LAYER
  5
30
330
1
100
AcDbSymbolTableRecord
100
AcDbLayerTableRecord
  2
Hachura
 70
0
 62
7
  6
Continuous
370
-3
390
13
347
21
  0
LAYER
  5
31
330
1
100
AcDbSymbolTableRecord
100
AcDbLayerTableRecord
  2
COTA
 70
0
 62
7
  6
Continuous
370
-3
390
13
347
21
  0
LAYER
  5
32
330
1
100
AcDbSymbolTableRecord
100
AcDbLayerTableRecord
  2
SARR_3.5x7
 70
0
 62
7
  6
Continuous
370
-3
390
13
347
21
  0
LAYER
  5
33
330
1
100
AcDbSymbolTableRecord
100
AcDbLayerTableRecord
  2
CONCRETO
 70
0
 62
7
  6
Continuous
370
-3
390
13
347
21
  0
LAYER
  5
34
330
1
100
AcDbSymbolTableRecord
100
AcDbLayerTableRecord
  2
Madeira
 70
0
 62
7
  6
Continuous
370
-3
390
13
347
21
  0
LAYER
  5
35
330
1
100
AcDbSymbolTableRecord
100
AcDbLayerTableRecord
  2
Cota Seção (2x)
 70
0
 62
7
  6
Continuous
370
-3
390
13
347
21
  0
LAYER
  5
36
330
1
100
AcDbSymbolTableRecord
100
AcDbLayerTableRecord
  2
Painéis
 70
0
 62
7
  6
Continuous
370
-3
390
13
347
21
  0
LAYER
  5
37
330
1
100
AcDbSymbolTableRecord
100
AcDbLayerTableRecord
  2
REAPROVEITAMENTO
 70
0
 62
7
  6
Continuous
370
-3
390
13
347
21
  0
LAYER
  5
38
330
1
100
AcDbSymbolTableRecord
100
AcDbLayerTableRecord
  2
Texto Seção
 70
0
 62
7
  6
Continuous
370
-3
390
13
347
21
  0
LAYER
  5
39
330
1
100
AcDbSymbolTableRecord
100
AcDbLayerTableRecord
  2
SARR_2.2x7
 70
0
 62
7
  6
Continuous
370
-3
390
13
347
21
  0
LAYER
  5
3A
330
1
100
AcDbSymbolTableRecord
100
AcDbLayerTableRecord
  2
5
 70
0
 62
7
  6
Continuous
370
-3
390
13
347
21
  0
ENDTAB
  0
TABLE
  2
STYLE
  5
5
330
0
100
AcDbSymbolTable
 70
1
  0
STYLE
  5
29
330
5
100
AcDbSymbolTableRecord
100
AcDbTextStyleTableRecord
  2
Standard
 70
0
 40
0.0
 41
1.0
 50
0.0
 71
0
 42
2.5
  3
txt
  4

  0
ENDTAB
  0
TABLE
  2
VIEW
  5
7
330
0
100
AcDbSymbolTable
 70
0
  0
ENDTAB
  0
TABLE
  2
UCS
  5
6
330
0
100
AcDbSymbolTable
 70
0
  0
ENDTAB
  0
TABLE
  2
APPID
  5
3
330
0
100
AcDbSymbolTable
 70
3
  0
APPID
  5
2A
330
3
100
AcDbSymbolTableRecord
100
AcDbRegAppTableRecord
  2
ACAD
 70
0
  0
APPID
  5
1A9
330
3
100
AcDbSymbolTableRecord
100
AcDbRegAppTableRecord
  2
HATCHBACKGROUNDCOLOR
 70
0
  0
APPID
  5
1AA
330
3
100
AcDbSymbolTableRecord
100
AcDbRegAppTableRecord
  2
EZDXF
 70
0
  0
ENDTAB
  0
TABLE
  2
DIMSTYLE
  5
4
330
0
100
AcDbSymbolTable
 70
1
100
AcDbDimStyleTable
  0
DIMSTYLE
105
2B
330
4
100
AcDbSymbolTableRecord
100
AcDbDimStyleTableRecord
  2
Standard
 70
0
 40
1.0
 41
2.5
 42
0.625
 43
3.75
 44
1.25
 45
0.0
 46
0.0
 47
0.0
 48
0.0
 49
2.5
140
2.5
141
2.5
142
0.0
143
0.03937007874
144
1.0
145
0.0
146
1.0
147
0.625
148
0.0
 69
0
 70
0
 71
0
 72
0
 73
0
 74
0
 75
0
 76
0
 77
1
 78
8
 79
3
170
0
171
3
172
1
173
0
174
0
175
0
176
0
177
0
178
0
179
2
271
2
272
2
273
2
274
3
275
0
276
0
277
2
278
44
279
0
280
0
281
0
282
0
283
0
284
8
285
0
286
0
288
0
289
3
290
0
371
-2
372
-2
  0
ENDTAB
  0
TABLE
  2
BLOCK_RECORD
  5
9
330
0
100
AcDbSymbolTable
 70
2
  0
BLOCK_RECORD
  5
17
330
9
100
AcDbSymbolTableRecord
100
AcDbBlockTableRecord
  2
*Model_Space
340
1A
 70
0
280
1
281
0
  0
BLOCK_RECORD
  5
1B
330
9
100
AcDbSymbolTableRecord
100
AcDbBlockTableRecord
  2
*Paper_Space
340
1E
 70
0
280
1
281
0
  0
ENDTAB
  0
ENDSEC
  0
SECTION
  2
BLOCKS
  0
BLOCK
  5
18
330
17
100
AcDbEntity
  8
0
100
AcDbBlockBegin
  2
*Model_Space
 70
0
 10
0.0
 20
0.0
 30
0.0
  3
*Model_Space
  1

  0
ENDBLK
  5
19
330
17
100
AcDbEntity
  8
0
100
AcDbBlockEnd
  0
BLOCK
  5
1C
330
1B
100
AcDbEntity
  8
0
100
AcDbBlockBegin
  2
*Paper_Space
 70
0
 10
0.0
 20
0.0
 30
0.0
  3
*Paper_Space
  1

  0
ENDBLK
  5
1D
330
1B
100
AcDbEntity
  8
0
100
AcDbBlockEnd
  0
ENDSEC
  0
SECTION
  2
ENTITIES
  0
LINE
  5
3B
330
17
100
AcDbEntity
  8
Painéis
 62
200
370
25
100
AcDbLine
 10
8226.731800458858
 20
5420.196568501239
 30
0.0
 11
8355.731800458858
 21
5420.196568501239
 31
0.0
  0
LINE
  5
3C
330
17
100
AcDbEntity
  8
Painéis
 62
200
370
25
100
AcDbLine
 10
8287.731800458858
 20
5420.196568501239
 30
0.0
 11
8287.731800458858
 21
5465.196568501239
 31
0.0
  0
LINE
  5
3D
330
17
100
AcDbEntity
  8
SARR_2.2x7
 62
40
370
25
100
AcDbLine
 10
8233.731800458858
 20
5458.196568501238
 30
0.0
 11
8287.731800458858
 21
5458.196568501238
 31
0.0
  0
LINE
  5
3E
330
17
100
AcDbEntity
  8
SARR_2.2x7
 62
40
370
25
100
AcDbLine
 10
8287.731800458858
 20
5458.196568501238
 30
0.0
 11
8348.731800458858
 21
5458.196568501239
 31
0.0
  0
LINE
  5
3F
330
17
100
AcDbEntity
  8
SARR_2.2x7
 62
40
370
25
100
AcDbLine
 10
8233.731800458858
 20
5420.196568501239
 30
0.0
 11
8233.731800458858
 21
5465.196568501239
 31
0.0
  0
LINE
  5
40
330
17
100
AcDbEntity
  8
SARR_2.2x7
 62
40
370
25
100
AcDbLine
 10
8348.731800458858
 20
5420.196568501239
 30
0.0
 11
8348.731800458858
 21
5465.196568501239
 31
0.0
  0
LINE
  5
41
330
17
100
AcDbEntity
  8
Painéis
 62
200
370
25
100
AcDbLine
 10
8226.731800458858
 20
5465.196568501239
 30
0.0
 11
8355.731800458858
 21
5465.196568501239
 31
0.0
  0
LINE
  5
42
330
17
100
AcDbEntity
  8
Painéis
 62
200
370
25
100
AcDbLine
 10
8226.731800458858
 20
5420.196568501239
 30
0.0
 11
8226.731800458858
 21
5465.196568501239
 31
0.0
  0
LINE
  5
43
330
17
100
AcDbEntity
  8
Painéis
 62
200
370
25
100
AcDbLine
 10
8355.731800458858
 20
5420.196568501239
 30
0.0
 11
8355.731800458858
 21
5465.196568501239
 31
0.0
  0
LINE
  5
44
330
17
100
AcDbEntity
  8
COTA
 62
241
370
25
100
AcDbLine
 10
8355.731800458858
 20
5465.196568501239
 30
0.0
 11
8355.731800458858
 21
5479.196568501238
 31
0.0
  0
LINE
  5
45
330
17
100
AcDbEntity
  8
COTA
 62
241
370
25
100
AcDbLine
 10
8355.731800458858
 20
5479.196568501238
 30
0.0
 11
8226.731800458858
 21
5479.196568501235
 31
0.0
  0
LINE
  5
46
330
17
100
AcDbEntity
  8
COTA
 62
241
370
25
100
AcDbLine
 10
8226.731800458858
 20
5479.196568501235
 30
0.0
 11
8226.731800458858
 21
5465.196568501239
 31
0.0
  0
LINE
  5
47
330
17
100
AcDbEntity
  8
SARR_2.2x7
 62
40
370
25
100
AcDbLine
 10
8392.095802395877
 20
5472.196568501238
 30
0.0
 11
8554.095802395883
 21
5472.196568501249
 31
0.0
  0
LINE
  5
48
330
17
100
AcDbEntity
  8
SARR_2.2x7
 62
40
370
25
100
AcDbLine
 10
8392.095802395886
 20
5420.196568501239
 30
0.0
 11
8392.095802395877
 21
5479.196568501238
 31
0.0
  0
LINE
  5
49
330
17
100
AcDbEntity
  8
Painéis
 62
200
370
25
100
AcDbLine
 10
8385.09580239588
 20
5479.196568501238
 30
0.0
 11
8561.095802395883
 21
5479.196568501246
 31
0.0
  0
LINE
  5
4A
330
17
100
AcDbEntity
  8
Painéis
 62
200
370
25
100
AcDbLine
 10
8385.095802395886
 20
5420.196568501239
 30
0.0
 11
8963.095802395883
 21
5420.196568501264
 31
0.0
  0
LINE
  5
4B
330
17
100
AcDbEntity
  8
Painéis
 62
200
370
25
100
AcDbLine
 10
8588.095802395883
 20
5420.196568501253
 30
0.0
 11
8588.09580239588
 21
5479.196568501253
 31
0.0
  0
LINE
  5
4C
330
17
100
AcDbEntity
  8
Painéis
 62
200
370
25
100
AcDbLine
 10
8385.095802395886
 20
5420.196568501239
 30
0.0
 11
8385.09580239588
 21
5479.196568501238
 31
0.0
  0
LINE
  5
4D
330
17
100
AcDbEntity
  8
Painéis
 62
200
370
25
100
AcDbLine
 10
8588.095802395883
 20
5425.196568501246
 30
0.0
 11
8561.095802395883
 21
5425.196568501246
 31
0.0
  0
LINE
  5
4E
330
17
100
AcDbEntity
  8
Painéis
 62
200
370
25
100
AcDbLine
 10
8561.095802395883
 20
5425.196568501246
 30
0.0
 11
8561.095802395883
 21
5479.196568501246
 31
0.0
  0
LINE
  5
4F
330
17
100
AcDbEntity
  8
COTA
 62
241
370
25
100
AcDbLine
 10
8561.095802395883
 20
5479.196568501246
 30
0.0
 11
8588.09580239588
 21
5479.196568501253
 31
0.0
  0
LINE
  5
50
330
17
100
AcDbEntity
  8
SARR_2.2x7
 62
40
370
25
100
AcDbLine
 10
8956.095802395885
 20
5472.196568501238
 30
0.0
 11
8794.095802395886
 21
5472.196568501249
 31
0.0
  0
LINE
  5
51
330
17
100
AcDbEntity
  8
SARR_2.2x7
 62
40
370
25
100
AcDbLine
 10
8956.095802395877
 20
5420.196568501239
 30
0.0
 11
8956.095802395885
 21
5479.196568501238
 31
0.0
  0
LINE
  5
52
330
17
100
AcDbEntity
  8
Painéis
 62
200
370
25
100
AcDbLine
 10
8963.095802395883
 20
5479.196568501238
 30
0.0
 11
8787.095802395883
 21
5479.196568501246
 31
0.0
  0
LINE
  5
53
330
17
100
AcDbEntity
  8
Painéis
 62
200
370
25
100
AcDbLine
 10
8760.095802395883
 20
5420.196568501253
 30
0.0
 11
8760.095802395886
 21
5479.196568501253
 31
0.0
  0
LINE
  5
54
330
17
100
AcDbEntity
  8
Painéis
 62
200
370
25
100
AcDbLine
 10
8963.09580239588
 20
5420.196568501239
 30
0.0
 11
8963.095802395883
 21
5479.196568501238
 31
0.0
  0
LINE
  5
55
330
17
100
AcDbEntity
  8
Painéis
 62
200
370
25
100
AcDbLine
 10
8760.095802395883
 20
5425.196568501246
 30
0.0
 11
8787.095802395883
 21
5425.196568501246
 31
0.0
  0
LINE
  5
56
330
17
100
AcDbEntity
  8
Painéis
 62
200
370
25
100
AcDbLine
 10
8787.095802395883
 20
5425.196568501246
 30
0.0
 11
8787.095802395883
 21
5479.196568501246
 31
0.0
  0
LINE
  5
57
330
17
100
AcDbEntity
  8
COTA
 62
241
370
25
100
AcDbLine
 10
8787.095802395883
 20
5479.196568501246
 30
0.0
 11
8760.095802395886
 21
5479.196568501253
 31
0.0
  0
LINE
  5
58
330
17
100
AcDbEntity
  8
Painéis
 62
200
370
25
100
AcDbLine
 10
8588.095802395883
 20
5479.196568501246
 30
0.0
 11
8760.095802395886
 21
5479.196568501238
 31
0.0
  0
LINE
  5
59
330
17
100
AcDbEntity
  8
SARR_2.2x7
 62
40
370
25
100
AcDbLine
 10
8753.095802395883
 20
5472.196568501292
 30
0.0
 11
8595.09580239588
 21
5472.19656850121
 31
0.0
  0
LINE
  5
5A
330
17
100
AcDbEntity
  8
COTA
 62
241
370
25
100
AcDbLine
 10
8312.574685355436
 20
5266.525680221246
 30
0.0
 11
9034.574685355436
 21
5266.52568022127
 31
0.0
  0
LINE
  5
5B
330
17
100
AcDbEntity
  8
COTA
 62
241
370
25
100
AcDbLine
 10
8312.574685355436
 20
5252.525680221245
 30
0.0
 11
8312.574685355436
 21
5266.525680221246
 31
0.0
  0
LINE
  5
5C
330
17
100
AcDbEntity
  8
SARR_2.2x7
 62
40
370
25
100
AcDbLine
 10
8319.57468535544
 20
5207.525680221245
 30
0.0
 11
8319.574685355436
 21
5252.525680221245
 31
0.0
  0
LINE
  5
5D
330
17
100
AcDbEntity
  8
SARR_2.2x7
 62
40
370
25
100
AcDbLine
 10
9025.57468535544
 20
5207.52568022127
 30
0.0
 11
9025.574685355436
 21
5252.525680221271
 31
0.0
  0
LINE
  5
5E
330
17
100
AcDbEntity
  8
COTA
 62
241
370
25
100
AcDbLine
 10
9034.574685355436
 20
5252.525680221271
 30
0.0
 11
9034.574685355436
 21
5266.52568022127
 31
0.0
  0
LINE
  5
5F
330
17
100
AcDbEntity
  8
Painéis
 62
200
370
25
100
AcDbLine
 10
8312.574685355436
 20
5252.525680221245
 30
0.0
 11
9034.574685355436
 21
5252.525680221271
 31
0.0
  0
LINE
  5
60
330
17
100
AcDbEntity
  8
Painéis
 62
200
370
25
100
AcDbLine
 10
8312.57468535544
 20
5207.525680221245
 30
0.0
 11
9034.57468535544
 21
5207.52568022127
 31
0.0
  0
LINE
  5
61
330
17
100
AcDbEntity
  8
Painéis
 62
200
370
25
100
AcDbLine
 10
8312.57468535544
 20
5207.525680221245
 30
0.0
 11
8312.574685355436
 21
5252.525680221245
 31
0.0
  0
LINE
  5
62
330
17
100
AcDbEntity
  8
Painéis
 62
200
370
25
100
AcDbLine
 10
8556.57468535544
 20
5207.52568022126
 30
0.0
 11
8556.574685355436
 21
5252.52568022126
 31
0.0
  0
LINE
  5
63
330
17
100
AcDbEntity
  8
Painéis
 62
200
370
25
100
AcDbLine
 10
9034.57468535544
 20
5207.52568022127
 30
0.0
 11
9034.574685355436
 21
5252.525680221271
 31
0.0
  0
LINE
  5
64
330
17
100
AcDbEntity
  8
Painéis
 62
200
370
25
100
AcDbLine
 10
8800.57468535544
 20
5207.52568022126
 30
0.0
 11
8800.574685355436
 21
5252.52568022126
 31
0.0
  0
LINE
  5
65
330
17
100
AcDbEntity
  8
SARR_2.2x7
 62
40
370
25
100
AcDbLine
 10
8554.09580239588
 20
5427.196568501228
 30
0.0
 11
8554.09580239588
 21
5479.196568501238
 31
0.0
  0
LINE
  5
66
330
17
100
AcDbEntity
  8
SARR_2.2x7
 62
40
370
25
100
AcDbLine
 10
8595.095802395886
 20
5420.196568501246
 30
0.0
 11
8595.09580239588
 21
5479.196568501246
 31
0.0
  0
LINE
  5
67
330
17
100
AcDbEntity
  8
SARR_2.2x7
 62
40
370
25
100
AcDbLine
 10
8794.095802395886
 20
5427.196568501228
 30
0.0
 11
8794.095802395886
 21
5479.196568501246
 31
0.0
  0
LINE
  5
68
330
17
100
AcDbEntity
  8
SARR_2.2x7
 62
40
370
25
100
AcDbLine
 10
8753.09580239588
 20
5420.196568501246
 30
0.0
 11
8753.095802395886
 21
5479.196568501246
 31
0.0
  0
LINE
  5
69
330
17
100
AcDbEntity
  8
SARR_2.2x7
 62
40
370
25
100
AcDbLine
 10
8392.095802395877
 20
5427.196568501241
 30
0.0
 11
8561.095802395883
 21
5427.196568501228
 31
0.0
  0
LINE
  5
6A
330
17
100
AcDbEntity
  8
SARR_2.2x7
 62
40
370
25
100
AcDbLine
 10
8956.095802395885
 20
5427.196568501241
 30
0.0
 11
8787.095802395883
 21
5427.196568501228
 31
0.0
  0
LINE
  5
6B
330
17
100
AcDbEntity
  8
SARR_2.2x7
 62
40
370
25
100
AcDbLine
 10
8753.095802395883
 20
5427.196568501186
 30
0.0
 11
8595.09580239588
 21
5427.196568501268
 31
0.0
  0
LINE
  5
6C
330
17
100
AcDbEntity
  8
SARR_2.2x7
 62
40
370
25
100
AcDbLine
 10
8794.095802395886
 20
5446.196568501265
 30
0.0
 11
8956.095802395857
 21
5446.19656850113
 31
0.0
  0
LINE
  5
6D
330
17
100
AcDbEntity
  8
SARR_2.2x7
 62
40
370
25
100
AcDbLine
 10
8794.095802395886
 20
5453.196568500961
 30
0.0
 11
8956.095802395885
 21
5453.196568500828
 31
0.0
  0
LINE
  5
6E
330
17
100
AcDbEntity
  8
SARR_2.2x7
 62
40
370
25
100
AcDbLine
 10
8595.095802395883
 20
5446.196568501268
 30
0.0
 11
8753.095802395861
 21
5446.196568501137
 31
0.0
  0
LINE
  5
6F
330
17
100
AcDbEntity
  8
SARR_2.2x7
 62
40
370
25
100
AcDbLine
 10
8595.095802395883
 20
5453.196568500968
 30
0.0
 11
8753.095802395886
 21
5453.196568500835
 31
0.0
  0
LINE
  5
70
330
17
100
AcDbEntity
  8
SARR_2.2x7
 62
40
370
25
100
AcDbLine
 10
8392.095802395885
 20
5446.271100728115
 30
0.0
 11
8554.095802395857
 21
5446.271100727979
 31
0.0
  0
LINE
  5
71
330
17
100
AcDbEntity
  8
SARR_2.2x7
 62
40
370
25
100
AcDbLine
 10
8392.095802395885
 20
5453.271100727813
 30
0.0
 11
8554.09580239588
 21
5453.271100727676
 31
0.0
  0
LINE
  5
72
330
17
100
AcDbEntity
  8
SARR_2.2x7
 62
40
370
25
100
AcDbLine
 10
8233.731800458858
 20
5427.196568501241
 30
0.0
 11
8287.731800458858
 21
5427.196568501241
 31
0.0
  0
LINE
  5
73
330
17
100
AcDbEntity
  8
SARR_2.2x7
 62
40
370
25
100
AcDbLine
 10
8287.731800458858
 20
5427.196568501241
 30
0.0
 11
8348.731800458858
 21
5427.196568501239
 31
0.0
  0
LINE
  5
74
330
17
100
AcDbEntity
  8
SARR_2.2x7
 62
40
370
25
100
AcDbLine
 10
8800.574685355436
 20
5245.525680221263
 30
0.0
 11
9025.57468535544
 21
5245.525680221271
 31
0.0
  0
LINE
  5
75
330
17
100
AcDbEntity
  8
SARR_2.2x7
 62
40
370
25
100
AcDbLine
 10
8800.574685355443
 20
5214.52568022128
 30
0.0
 11
9025.57468535544
 21
5214.525680221271
 31
0.0
  0
LINE
  5
76
330
17
100
AcDbEntity
  8
SARR_2.2x7
 62
40
370
25
100
AcDbLine
 10
8556.57468535544
 20
5245.525680221272
 30
0.0
 11
8800.574685355443
 21
5245.52568022128
 31
0.0
  0
LINE
  5
77
330
17
100
AcDbEntity
  8
SARR_2.2x7
 62
40
370
25
100
AcDbLine
 10
8556.574685355443
 20
5214.525680221287
 30
0.0
 11
8800.574685355443
 21
5214.52568022128
 31
0.0
  0
LINE
  5
78
330
17
100
AcDbEntity
  8
SARR_2.2x7
 62
40
370
25
100
AcDbLine
 10
8319.57468535544
 20
5245.52568022128
 30
0.0
 11
8556.574685355443
 21
5245.525680221287
 31
0.0
  0
LINE
  5
79
330
17
100
AcDbEntity
  8
SARR_2.2x7
 62
40
370
25
100
AcDbLine
 10
8319.574685355443
 20
5214.525680221294
 30
0.0
 11
8556.574685355443
 21
5214.525680221287
 31
0.0
  0
LINE
  5
7A
330
17
100
AcDbEntity
  8
SARR_2.2x7
 62
40
370
25
100
AcDbLine
 10
9051.828386241496
 20
5420.352312126524
 30
0.0
 11
9051.828386241496
 21
5479.35287917184
 31
0.0
  0
LINE
  5
7B
330
17
100
AcDbEntity
  8
SARR_2.2x7
 62
40
370
25
100
AcDbLine
 10
9005.828386241503
 20
5420.352879171841
 30
0.0
 11
9005.828386241494
 21
5479.35287917184
 31
0.0
  0
LINE
  5
7C
330
17
100
AcDbEntity
  8
SARR_2.2x7
 62
40
370
25
100
AcDbLine
 10
9058.828386241496
 20
5472.352879171832
 30
0.0
 11
9005.828386241494
 21
5472.352879171804
 31
0.0
  0
LINE
  5
7D
330
17
100
AcDbEntity
  8
SARR_2.2x7
 62
40
370
25
100
AcDbLine
 10
9058.828386241496
 20
5427.352879171835
 30
0.0
 11
9005.828386241494
 21
5427.352879171863
 31
0.0
  0
LINE
  5
7E
330
17
100
AcDbEntity
  8
SARR_2.2x7
 62
40
370
25
100
AcDbLine
 10
9005.8283862415
 20
5446.352879171863
 30
0.0
 11
9058.828386241496
 21
5446.352879171818
 31
0.0
  0
LINE
  5
7F
330
17
100
AcDbEntity
  8
SARR_2.2x7
 62
40
370
25
100
AcDbLine
 10
9005.8283862415
 20
5453.352879171562
 30
0.0
 11
9058.828386241496
 21
5453.352879171519
 31
0.0
  0
LINE
  5
80
330
17
100
AcDbEntity
  8
SARR_2.2x7
 62
40
370
25
100
AcDbLine
 10
8243.078823497199
 20
5206.854566033893
 30
0.0
 11
8243.078823497199
 21
5221.855133079208
 31
0.0
  0
LINE
  5
81
330
17
100
AcDbEntity
  8
SARR_2.2x7
 62
40
370
25
100
AcDbLine
 10
8289.07882349719
 20
5206.855133079209
 30
0.0
 11
8289.078823497197
 21
5265.85513307921
 31
0.0
  0
LINE
  5
82
330
17
100
AcDbEntity
  8
SARR_2.2x7
 62
40
370
25
100
AcDbLine
 10
8265.078823497195
 20
5258.855133079186
 30
0.0
 11
8289.078823497197
 21
5258.855133079173
 31
0.0
  0
LINE
  5
83
330
17
100
AcDbEntity
  8
SARR_2.2x7
 62
40
370
25
100
AcDbLine
 10
8236.078823497199
 20
5213.855133079204
 30
0.0
 11
8289.078823497197
 21
5213.855133079231
 31
0.0
  0
LINE
  5
84
330
17
100
AcDbEntity
  8
SARR_2.2x7
 62
40
370
25
100
AcDbLine
 10
8289.078823497193
 20
5232.855133079231
 30
0.0
 11
8265.078823497195
 21
5232.855133079212
 31
0.0
  0
LINE
  5
85
330
17
100
AcDbEntity
  8
SARR_2.2x7
 62
40
370
25
100
AcDbLine
 10
8289.078823497193
 20
5239.855133078932
 30
0.0
 11
8265.078823497195
 21
5239.855133078913
 31
0.0
  0
LINE
  5
86
330
17
100
AcDbEntity
  8
Painéis
 62
200
370
25
100
AcDbLine
 10
8265.078823497195
 20
5265.85513307921
 30
0.0
 11
8265.078823497195
 21
5221.855133079209
 31
0.0
  0
LINE
  5
87
330
17
100
AcDbEntity
  8
Painéis
 62
200
370
25
100
AcDbLine
 10
8265.078823497195
 20
5221.855133079209
 30
0.0
 11
8236.078823497199
 21
5221.855133079209
 31
0.0
  0
LINE
  5
88
330
17
100
AcDbEntity
  8
SARR_2.2x7
 62
40
370
25
100
AcDbLine
 10
8272.078823497199
 20
5221.855133079209
 30
0.0
 11
8272.078823497199
 21
5265.855133079234
 31
0.0
  0
LINE
  5
89
330
17
100
AcDbEntity
  8
SARR_2.2x7
 62
40
370
25
100
AcDbLine
 10
8272.078823497199
 20
5214.855133079209
 30
0.0
 11
8236.078823497199
 21
5214.855133079209
 31
0.0
  0
LINE
  5
8A
330
17
100
AcDbEntity
  8
SARR_2.2x7
 62
40
370
25
100
AcDbLine
 10
8265.078823497195
 20
5221.855133079209
 30
0.0
 11
8272.078823497199
 21
5221.855133079209
 31
0.0
  0
LINE
  5
8B
330
17
100
AcDbEntity
  8
SARR_2.2x7
 62
40
370
25
100
AcDbLine
 10
8272.078823497199
 20
5214.855133079209
 30
0.0
 11
8272.078823497199
 21
5221.855133079209
 31
0.0
  0
LINE
  5
8C
330
17
100
AcDbEntity
  8
COTA
 62
241
370
25
100
AcDbLine
 10
8236.078823497199
 20
5221.855133079209
 30
0.0
 11
8236.078823497199
 21
5265.85513307921
 31
0.0
  0
LINE
  5
8D
330
17
100
AcDbEntity
  8
COTA
 62
241
370
25
100
AcDbLine
 10
8236.078823497199
 20
5265.85513307921
 30
0.0
 11
8265.078823497195
 21
5265.85513307921
 31
0.0
  0
LINE
  5
8E
330
17
100
AcDbEntity
  8
SARR_2.2x7
 62
40
370
25
100
AcDbLine
 10
8233.73180045886
 20
5439.196568501889
 30
0.0
 11
8287.731800458858
 21
5439.196568501786
 31
0.0
  0
LINE
  5
8F
330
17
100
AcDbEntity
  8
SARR_2.2x7
 62
40
370
25
100
AcDbLine
 10
8287.731800458858
 20
5439.196568501788
 30
0.0
 11
8348.731800458858
 21
5439.196568501669
 31
0.0
  0
LINE
  5
90
330
17
100
AcDbEntity
  8
SARR_2.2x7
 62
40
370
25
100
AcDbLine
 10
8233.73180045886
 20
5446.196568501141
 30
0.0
 11
8287.731800458858
 21
5446.196568501243
 31
0.0
  0
LINE
  5
91
330
17
100
AcDbEntity
  8
SARR_2.2x7
 62
40
370
25
100
AcDbLine
 10
8287.731800458858
 20
5446.196568501244
 30
0.0
 11
8348.731800458858
 21
5446.196568501358
 31
0.0
  0
LINE
  5
92
330
17
100
AcDbEntity
  8
SARR_2.2x7
 62
40
370
25
100
AcDbLine
 10
8319.574685355443
 20
5226.525680221895
 30
0.0
 11
8556.619826114624
 21
5226.525680221444
 31
0.0
  0
LINE
  5
93
330
17
100
AcDbEntity
  8
SARR_2.2x7
 62
40
370
25
100
AcDbLine
 10
8319.574685355443
 20
5233.525680221147
 30
0.0
 11
8556.619826114624
 21
5233.525680221596
 31
0.0
  0
LINE
  5
94
330
17
100
AcDbEntity
  8
SARR_2.2x7
 62
40
370
25
100
AcDbLine
 10
8556.574685355443
 20
5226.525680221909
 30
0.0
 11
8800.574685355436
 21
5226.525680221445
 31
0.0
  0
LINE
  5
95
330
17
100
AcDbEntity
  8
SARR_2.2x7
 62
40
370
25
100
AcDbLine
 10
8556.574685355443
 20
5233.525680221162
 30
0.0
 11
8800.574685355436
 21
5233.525680221624
 31
0.0
  0
LINE
  5
96
330
17
100
AcDbEntity
  8
SARR_2.2x7
 62
40
370
25
100
AcDbLine
 10
8800.574685355443
 20
5226.525680221909
 30
0.0
 11
9025.574685355436
 21
5226.525680221482
 31
0.0
  0
LINE
  5
97
330
17
100
AcDbEntity
  8
SARR_2.2x7
 62
40
370
25
100
AcDbLine
 10
8800.574685355443
 20
5233.525680221162
 30
0.0
 11
9025.574685355436
 21
5233.525680221588
 31
0.0
  0
LINE
  5
98
330
17
100
AcDbEntity
  8
COTA
 62
4
370
25
100
AcDbLine
 10
8226.731800458858
 20
5417.196568501239
 30
0.0
 11
8226.731800458858
 21
5392.656642523069
 31
0.0
  0
LINE
  5
99
330
17
100
AcDbEntity
  8
COTA
 62
4
370
25
100
AcDbLine
 10
8287.731800458858
 20
5417.196568501253
 30
0.0
 11
8287.731800458858
 21
5392.656642523069
 31
0.0
  0
LINE
  5
9A
330
17
100
AcDbEntity
  8
COTA
 62
4
370
25
100
AcDbLine
 10
8226.731800458858
 20
5395.65664252307
 30
0.0
 11
8287.731800458858
 21
5395.65664252307
 31
0.0
  0
LINE
  5
9B
330
17
100
AcDbEntity
  8
COTA
 62
0
370
25
100
AcDbLine
 10
8228.231800458858
 20
5397.15664252307
 30
0.0
 11
8225.231800458858
 21
5394.15664252307
 31
0.0
  0
LINE
  5
9C
330
17
100
AcDbEntity
  8
COTA
 62
0
370
25
100
AcDbLine
 10
8286.231800458858
 20
5394.15664252307
 30
0.0
 11
8289.231800458858
 21
5397.15664252307
 31
0.0
  0
LINE
  5
9D
330
17
100
AcDbEntity
  8
COTA
 62
4
370
25
100
AcDbLine
 10
8287.731800458858
 20
5417.196568501253
 30
0.0
 11
8287.731800458858
 21
5392.656642523069
 31
0.0
  0
LINE
  5
9E
330
17
100
AcDbEntity
  8
COTA
 62
4
370
25
100
AcDbLine
 10
8355.731800458858
 20
5417.196568501239
 30
0.0
 11
8355.731800458858
 21
5392.656642523069
 31
0.0
  0
LINE
  5
9F
330
17
100
AcDbEntity
  8
COTA
 62
4
370
25
100
AcDbLine
 10
8287.731800458858
 20
5395.65664252307
 30
0.0
 11
8355.731800458858
 21
5395.65664252307
 31
0.0
  0
LINE
  5
A0
330
17
100
AcDbEntity
  8
COTA
 62
0
370
25
100
AcDbLine
 10
8289.231800458858
 20
5397.15664252307
 30
0.0
 11
8286.231800458858
 21
5394.15664252307
 31
0.0
  0
LINE
  5
A1
330
17
100
AcDbEntity
  8
COTA
 62
0
370
25
100
AcDbLine
 10
8354.231800458858
 20
5394.15664252307
 30
0.0
 11
8357.231800458858
 21
5397.15664252307
 31
0.0
  0
LINE
  5
A2
330
17
100
AcDbEntity
  8
COTA
 62
4
370
25
100
AcDbLine
 10
8226.731800458858
 20
5417.196568501239
 30
0.0
 11
8226.731800458858
 21
5359.118131834335
 31
0.0
  0
LINE
  5
A3
330
17
100
AcDbEntity
  8
COTA
 62
4
370
25
100
AcDbLine
 10
8355.731800458858
 20
5417.196568501239
 30
0.0
 11
8355.731800458858
 21
5359.118131834335
 31
0.0
  0
LINE
  5
A4
330
17
100
AcDbEntity
  8
COTA
 62
4
370
25
100
AcDbLine
 10
8226.731800458858
 20
5362.118131834336
 30
0.0
 11
8355.731800458858
 21
5362.118131834336
 31
0.0
  0
LINE
  5
A5
330
17
100
AcDbEntity
  8
COTA
 62
0
370
25
100
AcDbLine
 10
8228.231800458858
 20
5363.618131834336
 30
0.0
 11
8225.231800458858
 21
5360.618131834336
 31
0.0
  0
LINE
  5
A6
330
17
100
AcDbEntity
  8
COTA
 62
0
370
25
100
AcDbLine
 10
8354.231800458858
 20
5360.618131834336
 30
0.0
 11
8357.231800458858
 21
5363.618131834336
 31
0.0
  0
LINE
  5
A7
330
17
100
AcDbEntity
  8
COTA
 62
4
370
25
100
AcDbLine
 10
8223.731800458861
 20
5479.19656850124
 30
0.0
 11
8188.21714581681
 21
5479.19656850124
 31
0.0
  0
LINE
  5
A8
330
17
100
AcDbEntity
  8
COTA
 62
4
370
25
100
AcDbLine
 10
8223.731800458861
 20
5420.196568501241
 30
0.0
 11
8188.21714581681
 21
5420.196568501241
 31
0.0
  0
LINE
  5
A9
330
17
100
AcDbEntity
  8
COTA
 62
4
370
25
100
AcDbLine
 10
8191.217145816811
 20
5479.19656850124
 30
0.0
 11
8191.217145816811
 21
5420.196568501241
 31
0.0
  0
LINE
  5
AA
330
17
100
AcDbEntity
  8
COTA
 62
0
370
25
100
AcDbLine
 10
8192.717145816812
 20
5477.69656850124
 30
0.0
 11
8189.717145816811
 21
5480.69656850124
 31
0.0
  0
LINE
  5
AB
330
17
100
AcDbEntity
  8
COTA
 62
0
370
25
100
AcDbLine
 10
8189.717145816811
 20
5421.696568501241
 30
0.0
 11
8192.71714581681
 21
5418.696568501241
 31
0.0
  0
LINE
  5
AC
330
17
100
AcDbEntity
  8
COTA
 62
4
370
25
100
AcDbLine
 10
8223.731800458861
 20
5465.196568501241
 30
0.0
 11
8209.832651490417
 21
5465.196568501241
 31
0.0
  0
LINE
  5
AD
330
17
100
AcDbEntity
  8
COTA
 62
4
370
25
100
AcDbLine
 10
8223.731800458861
 20
5420.196568501241
 30
0.0
 11
8209.832651490417
 21
5420.196568501241
 31
0.0
  0
LINE
  5
AE
330
17
100
AcDbEntity
  8
COTA
 62
4
370
25
100
AcDbLine
 10
8212.832651490417
 20
5465.196568501241
 30
0.0
 11
8212.832651490417
 21
5420.196568501241
 31
0.0
  0
LINE
  5
AF
330
17
100
AcDbEntity
  8
COTA
 62
0
370
25
100
AcDbLine
 10
8214.332651490417
 20
5463.696568501241
 30
0.0
 11
8211.332651490417
 21
5466.696568501241
 31
0.0
  0
LINE
  5
B0
330
17
100
AcDbEntity
  8
COTA
 62
0
370
25
100
AcDbLine
 10
8211.332651490417
 20
5421.696568501241
 30
0.0
 11
8214.332651490417
 21
5418.696568501241
 31
0.0
  0
LINE
  5
B1
330
17
100
AcDbEntity
  8
COTA
 62
4
370
25
100
AcDbLine
 10
8223.731800458861
 20
5465.196568501241
 30
0.0
 11
8209.832651490415
 21
5465.196568501241
 31
0.0
  0
LINE
  5
B2
330
17
100
AcDbEntity
  8
COTA
 62
4
370
25
100
AcDbLine
 10
8223.731800458861
 20
5479.19656850124
 30
0.0
 11
8209.832651490415
 21
5479.19656850124
 31
0.0
  0
LINE
  5
B3
330
17
100
AcDbEntity
  8
COTA
 62
4
370
25
100
AcDbLine
 10
8212.832651490415
 20
5465.196568501241
 30
0.0
 11
8212.832651490415
 21
5479.19656850124
 31
0.0
  0
LINE
  5
B4
330
17
100
AcDbEntity
  8
COTA
 62
4
370
25
100
AcDbLine
 10
8212.832651490415
 20
5479.19656850124
 30
0.0
 11
8212.832651490415
 21
5498.313527565567
 31
0.0
  0
LINE
  5
B5
330
17
100
AcDbEntity
  8
COTA
 62
0
370
25
100
AcDbLine
 10
8211.332651490415
 20
5466.696568501241
 30
0.0
 11
8214.332651490415
 21
5463.696568501241
 31
0.0
  0
LINE
  5
B6
330
17
100
AcDbEntity
  8
COTA
 62
0
370
25
100
AcDbLine
 10
8214.332651490415
 20
5477.69656850124
 30
0.0
 11
8211.332651490415
 21
5480.69656850124
 31
0.0
  0
LINE
  5
B7
330
17
100
AcDbEntity
  8
COTA
 62
4
370
25
100
AcDbLine
 10
8671.798428765525
 20
5617.003488949853
 30
0.0
 11
8746.175151854917
 21
5617.003488949853
 31
0.0
  0
LINE
  5
B8
330
17
100
AcDbEntity
  8
COTA
 62
4
370
25
100
AcDbLine
 10
8693.798428765525
 20
5735.003488949847
 30
0.0
 11
8746.175151854917
 21
5735.003488949847
 31
0.0
  0
LINE
  5
B9
330
17
100
AcDbEntity
  8
COTA
 62
4
370
25
100
AcDbLine
 10
8743.175151854917
 20
5617.003488949853
 30
0.0
 11
8743.175151854917
 21
5735.003488949847
 31
0.0
  0
LINE
  5
BA
330
17
100
AcDbEntity
  8
COTA
 62
4
370
25
100
AcDbLine
 10
8560.598428765543
 20
5617.003488949853
 30
0.0
 11
8517.326696007422
 21
5617.003488949853
 31
0.0
  0
LINE
  5
BB
330
17
100
AcDbEntity
  8
COTA
 62
4
370
25
100
AcDbLine
 10
8585.798428765547
 20
5735.003488949854
 30
0.0
 11
8517.326696007422
 21
5735.003488949854
 31
0.0
  0
LINE
  5
BC
330
17
100
AcDbEntity
  8
COTA
 62
4
370
25
100
AcDbLine
 10
8520.326696007422
 20
5617.003488949853
 30
0.0
 11
8520.326696007422
 21
5735.003488949854
 31
0.0
  0
LINE
  5
BD
330
17
100
AcDbEntity
  8
Cota Seção (2x)
 62
180
370
25
100
AcDbLine
 10
8614.718467446217
 20
5685.336822283153
 30
0.0
 11
8614.718467446217
 21
5704.670155616486
 31
0.0
  0
LINE
  5
BE
330
17
100
AcDbEntity
  8
Cota Seção (2x)
 62
180
370
25
100
AcDbLine
 10
8614.718467446217
 20
5704.670155616486
 30
0.0
 11
8599.718467446217
 21
5704.670155616486
 31
0.0
  0
LINE
  5
BF
330
17
100
AcDbEntity
  8
Cota Seção (2x)
 62
180
370
25
100
AcDbLine
 10
8599.718467446217
 20
5704.670155616486
 30
0.0
 11
8599.718467446217
 21
5685.336822283153
 31
0.0
  0
LINE
  5
C0
330
17
100
AcDbEntity
  8
Cota Seção (2x)
 62
180
370
25
100
AcDbLine
 10
8599.718467446217
 20
5685.336822283153
 30
0.0
 11
8614.718467446217
 21
5685.336822283153
 31
0.0
  0
LINE
  5
C1
330
17
100
AcDbEntity
  8
COTA
 62
4
370
25
100
AcDbLine
 10
8693.798428765525
 20
5735.003488949847
 30
0.0
 11
8726.855723369454
 21
5735.003488949847
 31
0.0
  0
LINE
  5
C2
330
17
100
AcDbEntity
  8
COTA
 62
4
370
25
100
AcDbLine
 10
8693.798428765525
 20
5707.003488949826
 30
0.0
 11
8726.855723369454
 21
5707.003488949826
 31
0.0
  0
LINE
  5
C3
330
17
100
AcDbEntity
  8
COTA
 62
4
370
25
100
AcDbLine
 10
8723.855723369454
 20
5735.003488949847
 30
0.0
 11
8723.855723369454
 21
5707.003488949826
 31
0.0
  0
LINE
  5
C4
330
17
100
AcDbEntity
  8
COTA
 62
4
370
25
100
AcDbLine
 10
8693.798428765525
 20
5703.003488949826
 30
0.0
 11
8726.85572336913
 21
5703.003488949826
 31
0.0
  0
LINE
  5
C5
330
17
100
AcDbEntity
  8
COTA
 62
4
370
25
100
AcDbLine
 10
8671.798428765525
 20
5617.003488949853
 30
0.0
 11
8726.85572336913
 21
5617.003488949853
 31
0.0
  0
LINE
  5
C6
330
17
100
AcDbEntity
  8
COTA
 62
4
370
25
100
AcDbLine
 10
8723.85572336913
 20
5703.003488949826
 30
0.0
 11
8723.85572336913
 21
5617.003488949853
 31
0.0
  0
LINE
  5
C7
330
17
100
AcDbEntity
  8
COTA
 62
4
370
25
100
AcDbLine
 10
8635.198428765547
 20
5614.003488949844
 30
0.0
 11
8635.198428765547
 21
5569.276675147661
 31
0.0
  0
LINE
  5
C8
330
17
100
AcDbEntity
  8
COTA
 62
4
370
25
100
AcDbLine
 10
8597.198428765543
 20
5614.003488949844
 30
0.0
 11
8597.198428765543
 21
5569.276675147661
 31
0.0
  0
LINE
  5
C9
330
17
100
AcDbEntity
  8
COTA
 62
4
370
25
100
AcDbLine
 10
8635.198428765547
 20
5572.276675147661
 30
0.0
 11
8597.198428765543
 21
5572.276675147661
 31
0.0
  0
LINE
  5
CA
330
17
100
AcDbEntity
  8
Cota Seção (2x)
 62
180
370
25
100
AcDbLine
 10
8607.198428765574
 20
5637.003488949851
 30
0.0
 11
8625.198428765574
 21
5637.003488949851
 31
0.0
  0
LINE
  5
CB
330
17
100
AcDbEntity
  8
Cota Seção (2x)
 62
180
370
25
100
AcDbLine
 10
8625.198428765574
 20
5637.003488949851
 30
0.0
 11
8625.198428765574
 21
5652.003488949851
 31
0.0
  0
LINE
  5
CC
330
17
100
AcDbEntity
  8
Cota Seção (2x)
 62
180
370
25
100
AcDbLine
 10
8625.198428765574
 20
5652.003488949851
 30
0.0
 11
8607.198428765574
 21
5652.003488949851
 31
0.0
  0
LINE
  5
CD
330
17
100
AcDbEntity
  8
Cota Seção (2x)
 62
180
370
25
100
AcDbLine
 10
8607.198428765574
 20
5652.003488949851
 30
0.0
 11
8607.198428765574
 21
5637.003488949851
 31
0.0
  0
LINE
  5
CE
330
17
100
AcDbEntity
  8
COTA
 62
4
370
25
100
AcDbLine
 10
8385.095802395886
 20
5417.196568501239
 30
0.0
 11
8385.095802395886
 21
5390.656642523084
 31
0.0
  0
LINE
  5
CF
330
17
100
AcDbEntity
  8
COTA
 62
4
370
25
100
AcDbLine
 10
8588.095802395883
 20
5417.196568501268
 30
0.0
 11
8588.095802395883
 21
5390.656642523084
 31
0.0
  0
LINE
  5
D0
330
17
100
AcDbEntity
  8
COTA
 62
4
370
25
100
AcDbLine
 10
8385.095802395886
 20
5393.656642523084
 30
0.0
 11
8588.095802395883
 21
5393.656642523084
 31
0.0
  0
LINE
  5
D1
330
17
100
AcDbEntity
  8
COTA
 62
0
370
25
100
AcDbLine
 10
8386.595802395886
 20
5395.156642523084
 30
0.0
 11
8383.595802395886
 21
5392.156642523084
 31
0.0
  0
LINE
  5
D2
330
17
100
AcDbEntity
  8
COTA
 62
0
370
25
100
AcDbLine
 10
8586.595802395883
 20
5392.156642523084
 30
0.0
 11
8589.595802395883
 21
5395.156642523084
 31
0.0
  0
LINE
  5
D3
330
17
100
AcDbEntity
  8
COTA
 62
4
370
25
100
AcDbLine
 10
8760.095802395883
 20
5417.196568501253
 30
0.0
 11
8760.095802395883
 21
5390.656642523095
 31
0.0
  0
LINE
  5
D4
330
17
100
AcDbEntity
  8
COTA
 62
4
370
25
100
AcDbLine
 10
8963.095802395883
 20
5417.196568501265
 30
0.0
 11
8963.095802395883
 21
5390.656642523095
 31
0.0
  0
LINE
  5
D5
330
17
100
AcDbEntity
  8
COTA
 62
4
370
25
100
AcDbLine
 10
8760.095802395883
 20
5393.656642523095
 30
0.0
 11
8963.095802395883
 21
5393.656642523095
 31
0.0
  0
LINE
  5
D6
330
17
100
AcDbEntity
  8
COTA
 62
0
370
25
100
AcDbLine
 10
8761.595802395883
 20
5395.156642523095
 30
0.0
 11
8758.595802395883
 21
5392.156642523095
 31
0.0
  0
LINE
  5
D7
330
17
100
AcDbEntity
  8
COTA
 62
0
370
25
100
AcDbLine
 10
8961.595802395883
 20
5392.156642523095
 30
0.0
 11
8964.595802395883
 21
5395.156642523095
 31
0.0
  0
LINE
  5
D8
330
17
100
AcDbEntity
  8
COTA
 62
4
370
25
100
AcDbLine
 10
8385.095802395886
 20
5417.196568501239
 30
0.0
 11
8385.095802395886
 21
5357.118131834361
 31
0.0
  0
LINE
  5
D9
330
17
100
AcDbEntity
  8
COTA
 62
4
370
25
100
AcDbLine
 10
8963.095802395883
 20
5417.196568501265
 30
0.0
 11
8963.095802395883
 21
5357.118131834361
 31
0.0
  0
LINE
  5
DA
330
17
100
AcDbEntity
  8
COTA
 62
4
370
25
100
AcDbLine
 10
8385.095802395886
 20
5360.118131834362
 30
0.0
 11
8963.095802395883
 21
5360.118131834362
 31
0.0
  0
LINE
  5
DB
330
17
100
AcDbEntity
  8
COTA
 62
0
370
25
100
AcDbLine
 10
8386.595802395886
 20
5361.618131834362
 30
0.0
 11
8383.595802395886
 21
5358.618131834362
 31
0.0
  0
LINE
  5
DC
330
17
100
AcDbEntity
  8
COTA
 62
0
370
25
100
AcDbLine
 10
8961.595802395883
 20
5358.618131834362
 30
0.0
 11
8964.595802395883
 21
5361.618131834362
 31
0.0
  0
LINE
  5
DD
330
17
100
AcDbEntity
  8
COTA
 62
4
370
25
100
AcDbLine
 10
8588.095802395883
 20
5417.196568501246
 30
0.0
 11
8588.095802395883
 21
5390.656642523122
 31
0.0
  0
LINE
  5
DE
330
17
100
AcDbEntity
  8
COTA
 62
4
370
25
100
AcDbLine
 10
8760.095802395883
 20
5417.196568501265
 30
0.0
 11
8760.095802395883
 21
5390.656642523122
 31
0.0
  0
LINE
  5
DF
330
17
100
AcDbEntity
  8
COTA
 62
4
370
25
100
AcDbLine
 10
8588.095802395883
 20
5393.656642523122
 30
0.0
 11
8760.095802395883
 21
5393.656642523122
 31
0.0
  0
LINE
  5
E0
330
17
100
AcDbEntity
  8
COTA
 62
0
370
25
100
AcDbLine
 10
8589.595802395883
 20
5395.156642523122
 30
0.0
 11
8586.595802395883
 21
5392.156642523122
 31
0.0
  0
LINE
  5
E1
330
17
100
AcDbEntity
  8
COTA
 62
0
370
25
100
AcDbLine
 10
8758.595802395883
 20
5392.156642523122
 30
0.0
 11
8761.595802395883
 21
5395.156642523122
 31
0.0
  0
LINE
  5
E2
330
17
100
AcDbEntity
  8
COTA
 62
4
370
25
100
AcDbLine
 10
8312.57468535544
 20
5204.525680221245
 30
0.0
 11
8312.57468535544
 21
5177.98575424309
 31
0.0
  0
LINE
  5
E3
330
17
100
AcDbEntity
  8
COTA
 62
4
370
25
100
AcDbLine
 10
8556.57468535544
 20
5204.525680221275
 30
0.0
 11
8556.57468535544
 21
5177.98575424309
 31
0.0
  0
LINE
  5
E4
330
17
100
AcDbEntity
  8
COTA
 62
4
370
25
100
AcDbLine
 10
8312.57468535544
 20
5180.98575424309
 30
0.0
 11
8556.57468535544
 21
5180.98575424309
 31
0.0
  0
LINE
  5
E5
330
17
100
AcDbEntity
  8
COTA
 62
0
370
25
100
AcDbLine
 10
8314.07468535544
 20
5182.48575424309
 30
0.0
 11
8311.07468535544
 21
5179.48575424309
 31
0.0
  0
LINE
  5
E6
330
17
100
AcDbEntity
  8
COTA
 62
0
370
25
100
AcDbLine
 10
8555.07468535544
 20
5179.48575424309
 30
0.0
 11
8558.07468535544
 21
5182.48575424309
 31
0.0
  0
LINE
  5
E7
330
17
100
AcDbEntity
  8
COTA
 62
4
370
25
100
AcDbLine
 10
8800.57468535544
 20
5204.525680221289
 30
0.0
 11
8800.57468535544
 21
5177.985754243101
 31
0.0
  0
LINE
  5
E8
330
17
100
AcDbEntity
  8
COTA
 62
4
370
25
100
AcDbLine
 10
9034.57468535544
 20
5204.52568022127
 30
0.0
 11
9034.57468535544
 21
5177.985754243101
 31
0.0
  0
LINE
  5
E9
330
17
100
AcDbEntity
  8
COTA
 62
4
370
25
100
AcDbLine
 10
8800.57468535544
 20
5180.985754243101
 30
0.0
 11
9034.57468535544
 21
5180.985754243101
 31
0.0
  0
LINE
  5
EA
330
17
100
AcDbEntity
  8
COTA
 62
0
370
25
100
AcDbLine
 10
8802.07468535544
 20
5182.485754243101
 30
0.0
 11
8799.07468535544
 21
5179.485754243101
 31
0.0
  0
LINE
  5
EB
330
17
100
AcDbEntity
  8
COTA
 62
0
370
25
100
AcDbLine
 10
9033.07468535544
 20
5179.485754243101
 30
0.0
 11
9036.07468535544
 21
5182.485754243101
 31
0.0
  0
LINE
  5
EC
330
17
100
AcDbEntity
  8
COTA
 62
4
370
25
100
AcDbLine
 10
8312.57468535544
 20
5204.525680221245
 30
0.0
 11
8312.57468535544
 21
5144.447243554367
 31
0.0
  0
LINE
  5
ED
330
17
100
AcDbEntity
  8
COTA
 62
4
370
25
100
AcDbLine
 10
9034.57468535544
 20
5204.52568022127
 30
0.0
 11
9034.57468535544
 21
5144.447243554367
 31
0.0
  0
LINE
  5
EE
330
17
100
AcDbEntity
  8
COTA
 62
4
370
25
100
AcDbLine
 10
8312.57468535544
 20
5147.447243554367
 30
0.0
 11
9034.57468535544
 21
5147.447243554367
 31
0.0
  0
LINE
  5
EF
330
17
100
AcDbEntity
  8
COTA
 62
0
370
25
100
AcDbLine
 10
8314.07468535544
 20
5148.947243554367
 30
0.0
 11
8311.07468535544
 21
5145.947243554367
 31
0.0
  0
LINE
  5
F0
330
17
100
AcDbEntity
  8
COTA
 62
0
370
25
100
AcDbLine
 10
9033.07468535544
 20
5145.947243554367
 30
0.0
 11
9036.07468535544
 21
5148.947243554367
 31
0.0
  0
LINE
  5
F1
330
17
100
AcDbEntity
  8
COTA
 62
4
370
25
100
AcDbLine
 10
9037.57468535544
 20
5252.525680221272
 30
0.0
 11
9060.003627476111
 21
5252.525680221272
 31
0.0
  0
LINE
  5
F2
330
17
100
AcDbEntity
  8
COTA
 62
4
370
25
100
AcDbLine
 10
9037.574685355428
 20
5207.525680221287
 30
0.0
 11
9060.003627476111
 21
5207.525680221287
 31
0.0
  0
LINE
  5
F3
330
17
100
AcDbEntity
  8
COTA
 62
4
370
25
100
AcDbLine
 10
9057.003627476111
 20
5252.525680221272
 30
0.0
 11
9057.003627476111
 21
5207.525680221287
 31
0.0
  0
LINE
  5
F4
330
17
100
AcDbEntity
  8
COTA
 62
0
370
25
100
AcDbLine
 10
9058.503627476111
 20
5251.025680221272
 30
0.0
 11
9055.503627476111
 21
5254.025680221272
 31
0.0
  0
LINE
  5
F5
330
17
100
AcDbEntity
  8
COTA
 62
0
370
25
100
AcDbLine
 10
9055.503627476111
 20
5209.025680221287
 30
0.0
 11
9058.503627476111
 21
5206.025680221287
 31
0.0
  0
LINE
  5
F6
330
17
100
AcDbEntity
  8
COTA
 62
4
370
25
100
AcDbLine
 10
9037.57468535544
 20
5252.525680221272
 30
0.0
 11
9060.003627476111
 21
5252.525680221272
 31
0.0
  0
LINE
  5
F7
330
17
100
AcDbEntity
  8
COTA
 62
4
370
25
100
AcDbLine
 10
9037.574685355428
 20
5266.525680221287
 30
0.0
 11
9060.003627476111
 21
5266.525680221287
 31
0.0
  0
LINE
  5
F8
330
17
100
AcDbEntity
  8
COTA
 62
4
370
25
100
AcDbLine
 10
9057.003627476111
 20
5252.525680221272
 30
0.0
 11
9057.003627476111
 21
5266.525680221287
 31
0.0
  0
LINE
  5
F9
330
17
100
AcDbEntity
  8
COTA
 62
4
370
25
100
AcDbLine
 10
9057.003627476111
 20
5266.525680221287
 30
0.0
 11
9057.003627476111
 21
5285.642639285615
 31
0.0
  0
LINE
  5
FA
330
17
100
AcDbEntity
  8
COTA
 62
0
370
25
100
AcDbLine
 10
9055.503627476111
 20
5254.025680221272
 30
0.0
 11
9058.503627476111
 21
5251.025680221272
 31
0.0
  0
LINE
  5
FB
330
17
100
AcDbEntity
  8
COTA
 62
0
370
25
100
AcDbLine
 10
9058.503627476111
 20
5265.025680221287
 30
0.0
 11
9055.503627476111
 21
5268.025680221287
 31
0.0
  0
LINE
  5
FC
330
17
100
AcDbEntity
  8
COTA
 62
4
370
25
100
AcDbLine
 10
9037.574685355428
 20
5266.525680221287
 30
0.0
 11
9081.619133149743
 21
5266.525680221287
 31
0.0
  0
LINE
  5
FD
330
17
100
AcDbEntity
  8
COTA
 62
4
370
25
100
AcDbLine
 10
9037.574685355428
 20
5207.525680221287
 30
0.0
 11
9081.619133149743
 21
5207.525680221287
 31
0.0
  0
LINE
  5
FE
330
17
100
AcDbEntity
  8
COTA
 62
4
370
25
100
AcDbLine
 10
9078.619133149743
 20
5266.525680221287
 30
0.0
 11
9078.619133149743
 21
5207.525680221287
 31
0.0
  0
LINE
  5
FF
330
17
100
AcDbEntity
  8
COTA
 62
0
370
25
100
AcDbLine
 10
9080.119133149743
 20
5265.025680221287
 30
0.0
 11
9077.119133149743
 21
5268.025680221287
 31
0.0
  0
LINE
  5
100
330
17
100
AcDbEntity
  8
COTA
 62
0
370
25
100
AcDbLine
 10
9077.119133149743
 20
5209.025680221287
 30
0.0
 11
9080.119133149743
 21
5206.025680221287
 31
0.0
  0
LINE
  5
101
330
17
100
AcDbEntity
  8
COTA
 62
4
370
25
100
AcDbLine
 10
8556.57468535544
 20
5204.525680221245
 30
0.0
 11
8556.57468535544
 21
5177.98575424309
 31
0.0
  0
LINE
  5
102
330
17
100
AcDbEntity
  8
COTA
 62
4
370
25
100
AcDbLine
 10
8800.57468535544
 20
5204.525680221275
 30
0.0
 11
8800.57468535544
 21
5177.98575424309
 31
0.0
  0
LINE
  5
103
330
17
100
AcDbEntity
  8
COTA
 62
4
370
25
100
AcDbLine
 10
8556.57468535544
 20
5180.98575424309
 30
0.0
 11
8800.57468535544
 21
5180.98575424309
 31
0.0
  0
LINE
  5
104
330
17
100
AcDbEntity
  8
COTA
 62
0
370
25
100
AcDbLine
 10
8558.07468535544
 20
5182.48575424309
 30
0.0
 11
8555.07468535544
 21
5179.48575424309
 31
0.0
  0
LINE
  5
105
330
17
100
AcDbEntity
  8
COTA
 62
0
370
25
100
AcDbLine
 10
8799.07468535544
 20
5179.48575424309
 30
0.0
 11
8802.07468535544
 21
5182.48575424309
 31
0.0
  0
LINE
  5
106
330
17
100
AcDbEntity
  8
COTA
 62
4
370
25
100
AcDbLine
 10
8588.09580239588
 20
5482.196568501253
 30
0.0
 11
8588.09580239588
 21
5491.192738814132
 31
0.0
  0
LINE
  5
107
330
17
100
AcDbEntity
  8
COTA
 62
4
370
25
100
AcDbLine
 10
8561.095802395883
 20
5482.196568501253
 30
0.0
 11
8561.095802395883
 21
5491.192738814132
 31
0.0
  0
LINE
  5
108
330
17
100
AcDbEntity
  8
COTA
 62
4
370
25
100
AcDbLine
 10
8588.09580239588
 20
5488.192738814132
 30
0.0
 11
8561.095802395883
 21
5488.192738814132
 31
0.0
  0
LINE
  5
109
330
17
100
AcDbEntity
  8
COTA
 62
0
370
25
100
AcDbLine
 10
8586.59580239588
 20
5486.692738814132
 30
0.0
 11
8589.59580239588
 21
5489.692738814132
 31
0.0
  0
LINE
  5
10A
330
17
100
AcDbEntity
  8
COTA
 62
0
370
25
100
AcDbLine
 10
8562.595802395883
 20
5489.692738814132
 30
0.0
 11
8559.595802395883
 21
5486.692738814132
 31
0.0
  0
LINE
  5
10B
330
17
100
AcDbEntity
  8
COTA
 62
4
370
25
100
AcDbLine
 10
8760.095802395886
 20
5482.196568501253
 30
0.0
 11
8760.095802395886
 21
5493.581040677918
 31
0.0
  0
LINE
  5
10C
330
17
100
AcDbEntity
  8
COTA
 62
4
370
25
100
AcDbLine
 10
8787.095802395883
 20
5482.196568501246
 30
0.0
 11
8787.095802395883
 21
5493.581040677918
 31
0.0
  0
LINE
  5
10D
330
17
100
AcDbEntity
  8
COTA
 62
4
370
25
100
AcDbLine
 10
8760.095802395886
 20
5490.581040677918
 30
0.0
 11
8787.095802395883
 21
5490.581040677918
 31
0.0
  0
LINE
  5
10E
330
17
100
AcDbEntity
  8
COTA
 62
0
370
25
100
AcDbLine
 10
8761.595802395886
 20
5492.081040677918
 30
0.0
 11
8758.595802395886
 21
5489.081040677918
 31
0.0
  0
LINE
  5
10F
330
17
100
AcDbEntity
  8
COTA
 62
0
370
25
100
AcDbLine
 10
8785.595802395883
 20
5489.081040677918
 30
0.0
 11
8788.595802395883
 21
5492.081040677918
 31
0.0
  0
LINE
  5
110
330
17
100
AcDbEntity
  8
COTA
 62
4
370
25
100
AcDbLine
 10
8558.095802395888
 20
5425.196568501249
 30
0.0
 11
8542.655742787287
 21
5425.196568501249
 31
0.0
  0
LINE
  5
111
330
17
100
AcDbEntity
  8
COTA
 62
4
370
25
100
AcDbLine
 10
8558.095802395888
 20
5479.196568501247
 30
0.0
 11
8542.655742787287
 21
5479.196568501247
 31
0.0
  0
LINE
  5
112
330
17
100
AcDbEntity
  8
COTA
 62
4
370
25
100
AcDbLine
 10
8545.655742787287
 20
5425.196568501249
 30
0.0
 11
8545.655742787287
 21
5479.196568501247
 31
0.0
  0
LINE
  5
113
330
17
100
AcDbEntity
  8
COTA
 62
0
370
25
100
AcDbLine
 10
8544.155742787287
 20
5426.696568501249
 30
0.0
 11
8547.155742787287
 21
5423.696568501249
 31
0.0
  0
LINE
  5
114
330
17
100
AcDbEntity
  8
COTA
 62
0
370
25
100
AcDbLine
 10
8547.155742787287
 20
5477.696568501247
 30
0.0
 11
8544.155742787287
 21
5480.696568501247
 31
0.0
  0
LINE
  5
115
330
17
100
AcDbEntity
  8
COTA
 62
4
370
25
100
AcDbLine
 10
8790.095802395886
 20
5479.196568501247
 30
0.0
 11
8816.164094984972
 21
5479.196568501247
 31
0.0
  0
LINE
  5
116
330
17
100
AcDbEntity
  8
COTA
 62
4
370
25
100
AcDbLine
 10
8790.095802395886
 20
5425.196568501249
 30
0.0
 11
8816.164094984972
 21
5425.196568501249
 31
0.0
  0
LINE
  5
117
330
17
100
AcDbEntity
  8
COTA
 62
4
370
25
100
AcDbLine
 10
8813.164094984972
 20
5479.196568501247
 30
0.0
 11
8813.164094984972
 21
5425.196568501249
 31
0.0
  0
LINE
  5
118
330
17
100
AcDbEntity
  8
COTA
 62
0
370
25
100
AcDbLine
 10
8814.664094984972
 20
5477.696568501247
 30
0.0
 11
8811.664094984972
 21
5480.696568501247
 31
0.0
  0
LINE
  5
119
330
17
100
AcDbEntity
  8
COTA
 62
0
370
25
100
AcDbLine
 10
8811.664094984972
 20
5426.696568501249
 30
0.0
 11
8814.664094984972
 21
5423.696568501249
 31
0.0
  0
LINE
  5
11A
330
17
100
AcDbEntity
  8
COTA
 62
4
370
25
100
AcDbLine
 10
9051.828386241496
 20
5417.352879171841
 30
0.0
 11
9051.828386241496
 21
5403.449434415946
 31
0.0
  0
LINE
  5
11B
330
17
100
AcDbEntity
  8
COTA
 62
4
370
25
100
AcDbLine
 10
9058.828386241496
 20
5417.352879171841
 30
0.0
 11
9058.828386241496
 21
5403.449434415946
 31
0.0
  0
LINE
  5
11C
330
17
100
AcDbEntity
  8
COTA
 62
4
370
25
100
AcDbLine
 10
9051.828386241496
 20
5406.449434415946
 30
0.0
 11
9058.828386241496
 21
5406.449434415946
 31
0.0
  0
LINE
  5
11D
330
17
100
AcDbEntity
  8
COTA
 62
4
370
25
100
AcDbLine
 10
9058.828386241496
 20
5406.449434415946
 30
0.0
 11
9073.559380393543
 21
5406.449434415946
 31
0.0
  0
LINE
  5
11E
330
17
100
AcDbEntity
  8
COTA
 62
0
370
25
100
AcDbLine
 10
9053.328386241496
 20
5407.949434415946
 30
0.0
 11
9050.328386241496
 21
5404.949434415946
 31
0.0
  0
LINE
  5
11F
330
17
100
AcDbEntity
  8
COTA
 62
0
370
25
100
AcDbLine
 10
9057.328386241496
 20
5404.949434415946
 30
0.0
 11
9060.328386241496
 21
5407.949434415946
 31
0.0
  0
LINE
  5
120
330
17
100
AcDbEntity
  8
COTA
 62
4
370
25
100
AcDbLine
 10
9061.8283862415
 20
5420.352879171843
 30
0.0
 11
9083.546110186357
 21
5420.352879171843
 31
0.0
  0
LINE
  5
121
330
17
100
AcDbEntity
  8
COTA
 62
4
370
25
100
AcDbLine
 10
9061.8283862415
 20
5479.352879171841
 30
0.0
 11
9083.546110186357
 21
5479.352879171841
 31
0.0
  0
LINE
  5
122
330
17
100
AcDbEntity
  8
COTA
 62
4
370
25
100
AcDbLine
 10
9080.546110186357
 20
5420.352879171843
 30
0.0
 11
9080.546110186357
 21
5479.352879171841
 31
0.0
  0
LINE
  5
123
330
17
100
AcDbEntity
  8
COTA
 62
0
370
25
100
AcDbLine
 10
9079.046110186357
 20
5421.852879171843
 30
0.0
 11
9082.046110186357
 21
5418.852879171843
 31
0.0
  0
LINE
  5
124
330
17
100
AcDbEntity
  8
COTA
 62
0
370
25
100
AcDbLine
 10
9082.046110186357
 20
5477.852879171841
 30
0.0
 11
9079.046110186357
 21
5480.852879171841
 31
0.0
  0
LINE
  5
125
330
17
100
AcDbEntity
  8
COTA
 62
4
370
25
100
AcDbLine
 10
8998.828386241497
 20
5417.352879171841
 30
0.0
 11
8998.828386241497
 21
5357.118131834361
 31
0.0
  0
LINE
  5
126
330
17
100
AcDbEntity
  8
COTA
 62
4
370
25
100
AcDbLine
 10
9058.828386241496
 20
5417.352879171841
 30
0.0
 11
9058.828386241496
 21
5357.118131834361
 31
0.0
  0
LINE
  5
127
330
17
100
AcDbEntity
  8
COTA
 62
4
370
25
100
AcDbLine
 10
8998.828386241497
 20
5360.118131834362
 30
0.0
 11
9058.828386241496
 21
5360.118131834362
 31
0.0
  0
LINE
  5
128
330
17
100
AcDbEntity
  8
COTA
 62
0
370
25
100
AcDbLine
 10
9000.328386241497
 20
5361.618131834362
 30
0.0
 11
8997.328386241497
 21
5358.618131834362
 31
0.0
  0
LINE
  5
129
330
17
100
AcDbEntity
  8
COTA
 62
0
370
25
100
AcDbLine
 10
9057.328386241496
 20
5358.618131834362
 30
0.0
 11
9060.328386241496
 21
5361.618131834362
 31
0.0
  0
LINE
  5
12A
330
17
100
AcDbEntity
  8
COTA
 62
4
370
25
100
AcDbLine
 10
8243.078823497199
 20
5203.855133079209
 30
0.0
 11
8243.078823497199
 21
5179.418084295851
 31
0.0
  0
LINE
  5
12B
330
17
100
AcDbEntity
  8
COTA
 62
4
370
25
100
AcDbLine
 10
8236.078823497199
 20
5203.855133079209
 30
0.0
 11
8236.078823497199
 21
5179.418084295851
 31
0.0
  0
LINE
  5
12C
330
17
100
AcDbEntity
  8
COTA
 62
4
370
25
100
AcDbLine
 10
8243.078823497199
 20
5182.418084295851
 30
0.0
 11
8236.078823497199
 21
5182.418084295851
 31
0.0
  0
LINE
  5
12D
330
17
100
AcDbEntity
  8
COTA
 62
4
370
25
100
AcDbLine
 10
8236.078823497199
 20
5182.418084295851
 30
0.0
 11
8221.34782934515
 21
5182.418084295851
 31
0.0
  0
LINE
  5
12E
330
17
100
AcDbEntity
  8
COTA
 62
0
370
25
100
AcDbLine
 10
8241.578823497199
 20
5180.918084295851
 30
0.0
 11
8244.578823497199
 21
5183.918084295851
 31
0.0
  0
LINE
  5
12F
330
17
100
AcDbEntity
  8
COTA
 62
0
370
25
100
AcDbLine
 10
8237.578823497199
 20
5183.918084295851
 30
0.0
 11
8234.578823497199
 21
5180.918084295851
 31
0.0
  0
LINE
  5
130
330
17
100
AcDbEntity
  8
COTA
 62
4
370
25
100
AcDbLine
 10
8233.0788234972
 20
5206.855133079212
 30
0.0
 11
8196.361099552532
 21
5206.855133079212
 31
0.0
  0
LINE
  5
131
330
17
100
AcDbEntity
  8
COTA
 62
4
370
25
100
AcDbLine
 10
8233.0788234972
 20
5265.855133079211
 30
0.0
 11
8196.361099552532
 21
5265.855133079211
 31
0.0
  0
LINE
  5
132
330
17
100
AcDbEntity
  8
COTA
 62
4
370
25
100
AcDbLine
 10
8199.361099552532
 20
5206.855133079212
 30
0.0
 11
8199.361099552532
 21
5265.855133079211
 31
0.0
  0
LINE
  5
133
330
17
100
AcDbEntity
  8
COTA
 62
0
370
25
100
AcDbLine
 10
8197.861099552532
 20
5208.355133079212
 30
0.0
 11
8200.861099552532
 21
5205.355133079212
 31
0.0
  0
LINE
  5
134
330
17
100
AcDbEntity
  8
COTA
 62
0
370
25
100
AcDbLine
 10
8200.861099552532
 20
5264.355133079211
 30
0.0
 11
8197.861099552532
 21
5267.355133079211
 31
0.0
  0
LINE
  5
135
330
17
100
AcDbEntity
  8
COTA
 62
4
370
25
100
AcDbLine
 10
8236.078823497199
 20
5268.85513307921
 30
0.0
 11
8236.078823497199
 21
5277.896744490512
 31
0.0
  0
LINE
  5
136
330
17
100
AcDbEntity
  8
COTA
 62
4
370
25
100
AcDbLine
 10
8265.078823497195
 20
5268.85513307921
 30
0.0
 11
8265.078823497195
 21
5277.896744490512
 31
0.0
  0
LINE
  5
137
330
17
100
AcDbEntity
  8
COTA
 62
4
370
25
100
AcDbLine
 10
8236.078823497199
 20
5274.896744490513
 30
0.0
 11
8265.078823497195
 21
5274.896744490513
 31
0.0
  0
LINE
  5
138
330
17
100
AcDbEntity
  8
COTA
 62
0
370
25
100
AcDbLine
 10
8237.578823497199
 20
5276.396744490513
 30
0.0
 11
8234.578823497199
 21
5273.396744490513
 31
0.0
  0
LINE
  5
139
330
17
100
AcDbEntity
  8
COTA
 62
0
370
25
100
AcDbLine
 10
8263.578823497195
 20
5273.396744490513
 30
0.0
 11
8266.578823497195
 21
5276.396744490513
 31
0.0
  0
LINE
  5
13A
330
17
100
AcDbEntity
  8
COTA
 62
4
370
25
100
AcDbLine
 10
8233.0788234972
 20
5265.855133079211
 30
0.0
 11
8223.80726308295
 21
5265.855133079211
 31
0.0
  0
LINE
  5
13B
330
17
100
AcDbEntity
  8
COTA
 62
4
370
25
100
AcDbLine
 10
8233.0788234972
 20
5221.855133079212
 30
0.0
 11
8223.80726308295
 21
5221.855133079212
 31
0.0
  0
LINE
  5
13C
330
17
100
AcDbEntity
  8
COTA
 62
4
370
25
100
AcDbLine
 10
8226.80726308295
 20
5265.855133079211
 30
0.0
 11
8226.80726308295
 21
5221.855133079212
 31
0.0
  0
LINE
  5
13D
330
17
100
AcDbEntity
  8
COTA
 62
0
370
25
100
AcDbLine
 10
8228.30726308295
 20
5264.355133079211
 30
0.0
 11
8225.30726308295
 21
5267.355133079211
 31
0.0
  0
LINE
  5
13E
330
17
100
AcDbEntity
  8
COTA
 62
0
370
25
100
AcDbLine
 10
8225.30726308295
 20
5223.355133079212
 30
0.0
 11
8228.30726308295
 21
5220.355133079212
 31
0.0
  0
LINE
  5
13F
330
17
100
AcDbEntity
  8
COTA
 62
4
370
25
100
AcDbLine
 10
8233.0788234972
 20
5221.855133079212
 30
0.0
 11
8223.807263082848
 21
5221.855133079212
 31
0.0
  0
LINE
  5
140
330
17
100
AcDbEntity
  8
COTA
 62
4
370
25
100
AcDbLine
 10
8233.0788234972
 20
5206.855133079212
 30
0.0
 11
8223.807263082848
 21
5206.855133079212
 31
0.0
  0
LINE
  5
141
330
17
100
AcDbEntity
  8
COTA
 62
4
370
25
100
AcDbLine
 10
8226.807263082848
 20
5221.855133079212
 30
0.0
 11
8226.807263082848
 21
5206.855133079212
 31
0.0
  0
LINE
  5
142
330
17
100
AcDbEntity
  8
COTA
 62
0
370
25
100
AcDbLine
 10
8228.307263082848
 20
5220.355133079212
 30
0.0
 11
8225.307263082848
 21
5223.355133079212
 31
0.0
  0
LINE
  5
143
330
17
100
AcDbEntity
  8
COTA
 62
0
370
25
100
AcDbLine
 10
8225.307263082848
 20
5208.355133079212
 30
0.0
 11
8228.307263082848
 21
5205.355133079212
 31
0.0
  0
LINE
  5
144
330
17
100
AcDbEntity
  8
COTA
 62
4
370
25
100
AcDbLine
 10
8296.078823497197
 20
5203.855133079209
 30
0.0
 11
8296.078823497197
 21
5144.447243554367
 31
0.0
  0
LINE
  5
145
330
17
100
AcDbEntity
  8
COTA
 62
4
370
25
100
AcDbLine
 10
8236.078823497199
 20
5203.855133079209
 30
0.0
 11
8236.078823497199
 21
5144.447243554367
 31
0.0
  0
LINE
  5
146
330
17
100
AcDbEntity
  8
COTA
 62
4
370
25
100
AcDbLine
 10
8296.078823497197
 20
5147.447243554367
 30
0.0
 11
8236.078823497199
 21
5147.447243554367
 31
0.0
  0
LINE
  5
147
330
17
100
AcDbEntity
  8
COTA
 62
0
370
25
100
AcDbLine
 10
8294.578823497197
 20
5145.947243554367
 30
0.0
 11
8297.578823497197
 21
5148.947243554367
 31
0.0
  0
LINE
  5
148
330
17
100
AcDbEntity
  8
COTA
 62
0
370
25
100
AcDbLine
 10
8237.578823497199
 20
5148.947243554367
 30
0.0
 11
8234.578823497199
 21
5145.947243554367
 31
0.0
  0
LINE
  5
149
330
17
100
AcDbEntity
  8
Texto Seção
 62
252
370
15
100
AcDbLine
 10
8618.398428765542
 20
5735.003488949853
 30
0.0
 11
8618.398428765542
 21
5860.003488949853
 31
0.0
  0
LWPOLYLINE
  5
14A
330
17
100
AcDbEntity
  8
Painéis
 62
200
370
25
100
AcDbPolyline
 90
4
 70
1
 10
8639.198428765543
 20
5703.003488949831
 10
8635.198428765547
 20
5703.003488949831
 10
8635.198428765547
 20
5617.003488949851
 10
8639.198428765543
 20
5617.003488949851
  0
LWPOLYLINE
  5
14B
330
17
100
AcDbEntity
  8
Madeira
 62
126
370
18
100
AcDbPolyline
 90
4
 70
1
 10
8597.198428765543
 20
5617.003488949851
 10
8597.198428765543
 20
5621.403488949845
 10
8611.198428765545
 20
5621.403488949845
 10
8611.198428765545
 20
5617.003488949851
  0
LWPOLYLINE
  5
14C
330
17
100
AcDbEntity
  8
Painéis
 62
200
370
25
100
AcDbPolyline
 90
4
 70
1
 10
8597.198428765543
 20
5621.403488949845
 10
8597.198428765543
 20
5625.003488949851
 10
8635.198428765547
 20
5625.003488949851
 10
8635.198428765547
 20
5621.403488949845
  0
LWPOLYLINE
  5
14D
330
17
100
AcDbEntity
  8
Madeira
 62
126
370
18
100
AcDbPolyline
 90
4
 70
1
 10
8635.198428765547
 20
5617.003488949851
 10
8635.198428765547
 20
5621.403488949845
 10
8621.198428765545
 20
5621.403488949845
 10
8621.198428765545
 20
5617.003488949851
  0
LWPOLYLINE
  5
14E
330
17
100
AcDbEntity
  8
Painéis
 62
200
370
25
100
AcDbPolyline
 90
4
 70
1
 10
8593.198428765538
 20
5735.003488949853
 10
8597.198428765538
 20
5735.003488949853
 10
8597.198428765543
 20
5617.003488949851
 10
8593.198428765543
 20
5617.003488949851
  0
LWPOLYLINE
  5
14F
330
17
100
AcDbEntity
  8
Painéis
 62
200
370
25
100
AcDbPolyline
 90
4
 70
1
 10
8635.198428765547
 20
5703.003488949831
 10
8635.198428765547
 20
5707.003488949831
 10
8690.798428765524
 20
5707.003488949824
 10
8690.798428765524
 20
5703.003488949824
  0
LWPOLYLINE
  5
150
330
17
100
AcDbEntity
  8
CONCRETO
 62
251
370
25
100
AcDbPolyline
 90
8
 70
1
 10
8690.798428765524
 20
5707.003488949824
 10
8690.798428765524
 20
5735.003488949853
 10
8597.198428765538
 20
5735.003488949853
 10
8597.198428765538
 20
5707.003488949839
 10
8597.198428765543
 20
5707.003488949839
 10
8597.198428765603
 20
5625.003488949851
 10
8635.198428765547
 20
5625.003488949851
 10
8635.198428765547
 20
5707.003488949831
  0
LWPOLYLINE
  5
151
330
17
100
AcDbEntity
  8
Madeira
 62
126
370
18
100
AcDbPolyline
 90
4
 70
1
 10
8588.798428765544
 20
5721.003488949853
 10
8593.198428765538
 20
5721.003488949853
 10
8593.198428765538
 20
5735.003488949853
 10
8588.798428765544
 20
5735.003488949853
  0
LWPOLYLINE
  5
152
330
17
100
AcDbEntity
  8
Madeira
 62
126
370
18
100
AcDbPolyline
 90
4
 70
1
 10
8588.798428765542
 20
5675.107054375057
 10
8593.198428765534
 20
5675.107054375057
 10
8593.198428765534
 20
5689.107054375057
 10
8588.798428765542
 20
5689.107054375057
  0
LWPOLYLINE
  5
153
330
17
100
AcDbEntity
  8
Madeira
 62
126
370
18
100
AcDbPolyline
 90
4
 70
1
 10
8588.798428765533
 20
5617.003488949851
 10
8593.198428765527
 20
5617.003488949851
 10
8593.198428765527
 20
5631.003488949851
 10
8588.798428765533
 20
5631.003488949851
  0
LWPOLYLINE
  5
154
330
17
100
AcDbEntity
  8
Madeira
 62
126
370
18
100
AcDbPolyline
 90
4
 70
1
 10
8643.59842876554
 20
5689.003488949831
 10
8639.198428765543
 20
5689.003488949831
 10
8639.198428765543
 20
5703.003488949831
 10
8643.59842876554
 20
5703.003488949831
  0
LWPOLYLINE
  5
155
330
17
100
AcDbEntity
  8
Madeira
 62
126
370
18
100
AcDbPolyline
 90
4
 70
1
 10
8643.598428765616
 20
5617.003488949851
 10
8639.198428765621
 20
5617.003488949851
 10
8639.198428765621
 20
5631.003488949851
 10
8643.598428765616
 20
5631.003488949851
  0
LWPOLYLINE
  5
156
330
17
100
AcDbEntity
  8
Painéis
 62
200
370
25
100
AcDbPolyline
 90
4
 70
1
 10
8998.828386241497
 20
5420.352879171841
 10
9058.828386241496
 20
5420.352879171841
 10
9058.828386241496
 20
5479.35287917184
 10
8998.828386241497
 20
5479.35287917184
  0
LWPOLYLINE
  5
157
330
17
100
AcDbEntity
  8
Painéis
 62
200
370
25
100
AcDbPolyline
 90
5
 70
0
 10
8265.078823497195
 20
5265.85513307921
 10
8296.078823497197
 20
5265.85513307921
 10
8296.078823497197
 20
5206.855133079209
 10
8236.078823497199
 20
5206.855133079209
 10
8236.078823497199
 20
5221.855133079209
  0
LWPOLYLINE
  5
158
330
17
100
AcDbEntity
  8
SARR_3.5x7
 62
81
370
25
100
AcDbPolyline
 90
4
 70
1
 10
8574.798428765467
 20
5729.003488949853
 10
8588.798428765467
 20
5729.003488949853
 10
8588.798428765596
 20
5540.525275544047
 10
8574.798428765598
 20
5540.525275544047
  0
LWPOLYLINE
  5
159
330
17
100
AcDbEntity
  8
SARR_3.5x7
 62
81
370
25
100
AcDbPolyline
 90
4
 70
1
 10
8657.59842876575
 20
5697.003488949826
 10
8643.59842876575
 20
5697.003488949826
 10
8643.598428765608
 20
5540.525275544047
 10
8657.598428765608
 20
5540.525275544047
  0
LWPOLYLINE
  5
15A
330
17
100
AcDbEntity
  8
SARR_3.5x7
 62
81
370
25
100
AcDbPolyline
 90
4
 70
1
 10
8574.798428765456
 20
5617.003488949851
 10
8657.598428765656
 20
5617.003488949851
 10
8657.598428765656
 20
5586.945427345852
 10
8574.798428765456
 20
5586.945427345852
  0
LWPOLYLINE
  5
15B
330
17
100
AcDbEntity
  8
COTA
 62
0
370
25
100
AcDbPolyline
 90
2
 70
0
 10
8740.675151854917
 20
5619.503488949853
 10
8745.675151854917
 20
5614.503488949853
  0
LWPOLYLINE
  5
15C
330
17
100
AcDbEntity
  8
COTA
 62
0
370
25
100
AcDbPolyline
 90
2
 70
0
 10
8745.675151854917
 20
5732.503488949847
 10
8740.675151854917
 20
5737.503488949847
  0
LWPOLYLINE
  5
15D
330
17
100
AcDbEntity
  8
COTA
 62
0
370
25
100
AcDbPolyline
 90
2
 70
0
 10
8517.826696007422
 20
5619.503488949853
 10
8522.826696007422
 20
5614.503488949853
  0
LWPOLYLINE
  5
15E
330
17
100
AcDbEntity
  8
COTA
 62
0
370
25
100
AcDbPolyline
 90
2
 70
0
 10
8522.826696007422
 20
5732.503488949854
 10
8517.826696007422
 20
5737.503488949854
  0
LWPOLYLINE
  5
15F
330
17
100
AcDbEntity
  8
COTA
 62
0
370
25
100
AcDbPolyline
 90
2
 70
0
 10
8726.355723369454
 20
5732.503488949847
 10
8721.355723369454
 20
5737.503488949847
  0
LWPOLYLINE
  5
160
330
17
100
AcDbEntity
  8
COTA
 62
0
370
25
100
AcDbPolyline
 90
2
 70
0
 10
8721.355723369454
 20
5709.503488949826
 10
8726.355723369454
 20
5704.503488949826
  0
LWPOLYLINE
  5
161
330
17
100
AcDbEntity
  8
COTA
 62
0
370
25
100
AcDbPolyline
 90
2
 70
0
 10
8726.35572336913
 20
5700.503488949826
 10
8721.35572336913
 20
5705.503488949826
  0
LWPOLYLINE
  5
162
330
17
100
AcDbEntity
  8
COTA
 62
0
370
25
100
AcDbPolyline
 90
2
 70
0
 10
8721.35572336913
 20
5619.503488949853
 10
8726.35572336913
 20
5614.503488949853
  0
LWPOLYLINE
  5
163
330
17
100
AcDbEntity
  8
COTA
 62
0
370
25
100
AcDbPolyline
 90
2
 70
0
 10
8632.698428765547
 20
5569.776675147661
 10
8637.698428765547
 20
5574.776675147661
  0
LWPOLYLINE
  5
164
330
17
100
AcDbEntity
  8
COTA
 62
0
370
25
100
AcDbPolyline
 90
2
 70
0
 10
8599.698428765543
 20
5574.776675147661
 10
8594.698428765543
 20
5569.776675147661
  0
TEXT
  5
165
330
17
100
AcDbEntity
  8
Texto Seção
 62
7
370
15
100
AcDbText
 10
8224.289695339232
 20
5487.873714760606
 30
0.0
 40
13.0
  1
V404.A
100
AcDbText
  0
TEXT
  5
166
330
17
100
AcDbEntity
  8
5
 62
5
370
25
100
AcDbText
 10
8227.95891210505
 20
5340.151736253762
 30
0.0
 40
12.0
  1
P24
 50
359.9999644975238
100
AcDbText
  0
TEXT
  5
167
330
17
100
AcDbEntity
  8
5
 62
5
370
25
100
AcDbText
 10
8354.215809410916
 20
5340.257547132728
 30
0.0
 40
12.0
  1
P26
 50
3.55024762388e-05
100
AcDbText
  0
TEXT
  5
168
330
17
100
AcDbEntity
  8
detalhes
 62
4
370
25
100
AcDbText
 10
8643.405693455012
 20
5656.777884529795
 30
0.0
 40
9.600000000000001
  1
b
100
AcDbText
  0
TEXT
  5
169
330
17
100
AcDbEntity
  8
detalhes
 62
4
370
25
100
AcDbText
 10
8577.305699156897
 20
5657.837902475014
 30
0.0
 40
9.600000000000001
  1
a
100
AcDbText
  0
TEXT
  5
16A
330
17
100
AcDbEntity
  8
detalhes
 62
4
370
25
100
AcDbText
 10
8617.496408764138
 20
5627.23924246969
 30
0.0
 40
9.600000000000001
  1
c
100
AcDbText
  0
TEXT
  5
16B
330
17
100
AcDbEntity
  8
5
 62
5
370
25
100
AcDbText
 10
8942.31927746928
 20
5343.960735181229
 30
0.0
 40
12.0
  1
P27
 50
3.55024762388e-05
100
AcDbText
  0
TEXT
  5
16C
330
17
100
AcDbEntity
  8
Texto Seção
 62
7
370
15
100
AcDbText
 10
8230.524054197287
 20
5295.908908093384
 30
0.0
 40
13.0
  1
V404.B
100
AcDbText
  0
TEXT
  5
16D
330
17
100
AcDbEntity
  8
COTA
 62
240
370
25
100
AcDbText
 10
8257.23180045886
 20
5403.758981704356
 30
0.0
 40
10.0
  1
61
100
AcDbText
  0
TEXT
  5
16E
330
17
100
AcDbEntity
  8
COTA
 62
240
370
25
100
AcDbText
 10
8321.731800458858
 20
5403.780911528918
 30
0.0
 40
10.0
  1
68
100
AcDbText
  0
TEXT
  5
16F
330
17
100
AcDbEntity
  8
COTA
 62
240
370
25
100
AcDbText
 10
8291.231800458858
 20
5370.205851132581
 30
0.0
 40
10.0
  1
129
100
AcDbText
  0
TEXT
  5
170
330
17
100
AcDbEntity
  8
COTA
 62
240
370
25
100
AcDbText
 10
8203.07825692792
 20
5449.696568501238
 30
0.0
 40
10.0
  1
59
 50
90.0
100
AcDbText
  0
TEXT
  5
171
330
17
100
AcDbEntity
  8
COTA
 62
240
370
25
100
AcDbText
 10
8224.72300236761
 20
5442.696568501237
 30
0.0
 40
10.0
  1
45
 50
90.0
100
AcDbText
  0
TEXT
  5
172
330
17
100
AcDbEntity
  8
COTA
 62
240
370
25
100
AcDbText
 10
8224.759552075207
 20
5490.2550480334
 30
0.0
 40
10.0
  1
14
 50
90.0
100
AcDbText
  0
TEXT
  5
173
330
17
100
AcDbEntity
  8
COTA
 62
1
370
25
100
AcDbText
 10
8751.67515185492
 20
5676.003488949846
 30
0.0
 40
7.0
  1
59
 50
90.0
100
AcDbText
  0
TEXT
  5
174
330
17
100
AcDbEntity
  8
COTA
 62
1
370
25
100
AcDbText
 10
8528.82669600742
 20
5676.00348894985
 30
0.0
 40
7.0
  1
59
 50
90.0
100
AcDbText
  0
TEXT
  5
175
330
17
100
AcDbEntity
  8
Cota Seção (2x)
 62
1
370
25
100
AcDbText
 10
8621.218467446217
 20
5695.003488949817
 30
0.0
 40
7.0
  1
55
 50
90.0
100
AcDbText
  0
TEXT
  5
176
330
17
100
AcDbEntity
  8
COTA
 62
1
370
25
100
AcDbText
 10
8732.355723369454
 20
5721.003488949833
 30
0.0
 40
7.0
  1
14
 50
90.0
100
AcDbText
  0
TEXT
  5
177
330
17
100
AcDbEntity
  8
COTA
 62
1
370
25
100
AcDbText
 10
8732.35572336913
 20
5660.003488949836
 30
0.0
 40
7.0
  1
43
 50
90.0
100
AcDbText
  0
TEXT
  5
178
330
17
100
AcDbEntity
  8
COTA
 62
1
370
25
100
AcDbText
 10
8616.198428765547
 20
5577.776675147661
 30
0.0
 40
7.0
  1
19
100
AcDbText
  0
TEXT
  5
179
330
17
100
AcDbEntity
  8
Cota Seção (2x)
 62
1
370
25
100
AcDbText
 10
8616.198428765574
 20
5644.503488949851
 30
0.0
 40
7.0
  1
19
100
AcDbText
  0
TEXT
  5
17A
330
17
100
AcDbEntity
  8
COTA
 62
240
370
25
100
AcDbText
 10
8486.595802395886
 20
5401.875940768698
 30
0.0
 40
10.0
  1
203
100
AcDbText
  0
TEXT
  5
17B
330
17
100
AcDbEntity
  8
COTA
 62
240
370
25
100
AcDbText
 10
8861.595802395883
 20
5401.875940768709
 30
0.0
 40
10.0
  1
203
100
AcDbText
  0
TEXT
  5
17C
330
17
100
AcDbEntity
  8
COTA
 62
240
370
25
100
AcDbText
 10
8674.095802395886
 20
5368.249710781729
 30
0.0
 40
10.0
  1
578
100
AcDbText
  0
TEXT
  5
17D
330
17
100
AcDbEntity
  8
COTA
 62
240
370
25
100
AcDbText
 10
8674.095802395883
 20
5401.729741938327
 30
0.0
 40
10.0
  1
172
100
AcDbText
  0
TEXT
  5
17E
330
17
100
AcDbEntity
  8
COTA
 62
240
370
25
100
AcDbText
 10
8434.57468535544
 20
5189.058853658295
 30
0.0
 40
10.0
  1
244
100
AcDbText
  0
TEXT
  5
17F
330
17
100
AcDbEntity
  8
COTA
 62
240
370
25
100
AcDbText
 10
8917.57468535544
 20
5189.205052488715
 30
0.0
 40
10.0
  1
234
100
AcDbText
  0
TEXT
  5
180
330
17
100
AcDbEntity
  8
COTA
 62
240
370
25
100
AcDbText
 10
8673.574685355437
 20
5155.520342969572
 30
0.0
 40
10.0
  1
722
100
AcDbText
  0
TEXT
  5
181
330
17
100
AcDbEntity
  8
COTA
 62
240
370
25
100
AcDbText
 10
9068.893978353302
 20
5230.025680221277
 30
0.0
 40
10.0
  1
45
 50
90.0
100
AcDbText
  0
TEXT
  5
182
330
17
100
AcDbEntity
  8
COTA
 62
240
370
25
100
AcDbText
 10
9068.930528060904
 20
5277.584159753447
 30
0.0
 40
10.0
  1
14
 50
90.0
100
AcDbText
  0
TEXT
  5
183
330
17
100
AcDbEntity
  8
COTA
 62
240
370
25
100
AcDbText
 10
9090.480244260854
 20
5237.025680221283
 30
0.0
 40
10.0
  1
59
 50
90.0
100
AcDbText
  0
TEXT
  5
184
330
17
100
AcDbEntity
  8
COTA
 62
240
370
25
100
AcDbText
 10
8678.574685355441
 20
5189.058853658295
 30
0.0
 40
10.0
  1
244
100
AcDbText
  0
TEXT
  5
185
330
17
100
AcDbEntity
  8
COTA
 62
240
370
25
100
AcDbText
 10
8574.595802395881
 20
5496.265838229337
 30
0.0
 40
10.0
  1
27
100
AcDbText
  0
TEXT
  5
186
330
17
100
AcDbEntity
  8
COTA
 62
240
370
25
100
AcDbText
 10
8773.595802395885
 20
5498.654140093123
 30
0.0
 40
10.0
  1
27
100
AcDbText
  0
TEXT
  5
187
330
17
100
AcDbEntity
  8
COTA
 62
240
370
25
100
AcDbText
 10
8557.54609366448
 20
5452.196568501245
 30
0.0
 40
10.0
  1
54
 50
90.0
100
AcDbText
  0
TEXT
  5
188
330
17
100
AcDbEntity
  8
COTA
 62
240
370
25
100
AcDbText
 10
8825.054445862164
 20
5452.196568501245
 30
0.0
 40
10.0
  1
54
 50
90.0
100
AcDbText
  0
TEXT
  5
189
330
17
100
AcDbEntity
  8
COTA
 62
240
370
25
100
AcDbText
 10
9067.693883317517
 20
5414.52253383115
 30
0.0
 40
10.0
  1
7
100
AcDbText
  0
TEXT
  5
18A
330
17
100
AcDbEntity
  8
COTA
 62
240
370
25
100
AcDbText
 10
9092.407221297466
 20
5449.852879171839
 30
0.0
 40
10.0
  1
59
 50
90.0
100
AcDbText
  0
TEXT
  5
18B
330
17
100
AcDbEntity
  8
COTA
 62
240
370
25
100
AcDbText
 10
9028.828386241496
 20
5368.220471015648
 30
0.0
 40
10.0
  1
60
100
AcDbText
  0
TEXT
  5
18C
330
17
100
AcDbEntity
  8
COTA
 62
240
370
25
100
AcDbText
 10
8227.213326421173
 20
5190.491183711056
 30
0.0
 40
10.0
  1
7
100
AcDbText
  0
TEXT
  5
18D
330
17
100
AcDbEntity
  8
COTA
 62
240
370
25
100
AcDbText
 10
8211.222210663644
 20
5236.355133079207
 30
0.0
 40
10.0
  1
59
 50
90.0
100
AcDbText
  0
TEXT
  5
18E
330
17
100
AcDbEntity
  8
COTA
 62
240
370
25
100
AcDbText
 10
8250.578823497199
 20
5282.984463788758
 30
0.0
 40
10.0
  1
29
100
AcDbText
  0
TEXT
  5
18F
330
17
100
AcDbEntity
  8
COTA
 62
240
370
25
100
AcDbText
 10
8238.734163667745
 20
5243.855133079208
 30
0.0
 40
10.0
  1
44
 50
90.0
100
AcDbText
  0
TEXT
  5
190
330
17
100
AcDbEntity
  8
COTA
 62
240
370
25
100
AcDbText
 10
8238.697613960043
 20
5214.355133079208
 30
0.0
 40
10.0
  1
15
 50
90.0
100
AcDbText
  0
TEXT
  5
191
330
17
100
AcDbEntity
  8
COTA
 62
240
370
25
100
AcDbText
 10
8266.078823497197
 20
5155.549582735655
 30
0.0
 40
10.0
  1
60
100
AcDbText
  0
TEXT
  5
192
330
17
100
AcDbEntity
  8
Texto Seção
 62
3
370
15
100
AcDbText
 10
8618.398428765542
 20
5806.452253322826
 30
0.0
 40
17.0
  1

100
AcDbText
  0
TEXT
  5
193
330
17
100
AcDbEntity
  8
Texto Seção
 62
3
370
15
100
AcDbText
 10
8618.398428765542
 20
5776.551668678505
 30
0.0
 40
12.0
  1

100
AcDbText
  0
TEXT
  5
194
330
17
100
AcDbEntity
  8
Texto Seção
 62
7
370
15
100
AcDbText
 10
8618.398428765542
 20
5750.580239790019
 30
0.0
 40
10.0
  1

100
AcDbText
  0
HATCH
  5
195
330
17
100
AcDbEntity
  8
COTA
 62
7
100
AcDbHatch
 10
0.0
 20
0.0
 30
0.0
210
0.0
220
0.0
230
1.0
  2
AR-CONC
 70
0
 71
0
 91
1
 92
3
 72
0
 73
1
 93
5
 10
8355.731800458858
 20
5479.196568501238
 10
8226.731800458858
 20
5479.196568501237
 10
8226.731800458858
 20
5465.196568501235
 10
8355.731800458858
 20
5465.196568501237
 10
8355.731800458858
 20
5479.196568501238
 97
0
 75
1
 76
1
 52
0.0
 41
1.0
 77
0
 78
13
 53
50.0
 43
0.0
 44
0.0
 45
182.184668996
 46
-15.9390855389
 79
2
 49
19.05
 49
-209.55
 53
355.0
 43
0.0
 44
0.0
 45
-35.243421425
 46
191.056845239
 79
2
 49
15.24
 49
-167.64058417
 53
100.4514447
 43
15.182007
 44
-1.3282535
 45
146.9412470904
 46
175.1177519122
 79
2
 49
16.1900088
 49
-178.0902446
 53
46.1842
 43
0.0
 44
50.8
 45
271.0790408921
 46
-42.0423279327
 79
2
 49
28.575
 49
-314.325
 53
96.63555761
 43
22.5899
 44
47.2965
 45
237.4041340515
 46
247.4261245977
 79
2
 49
24.28502314
 49
-267.13560816
 53
351.18415117
 43
0.0
 44
50.8
 45
237.404134065
 46
247.4261245855
 79
2
 49
22.85996707
 49
-251.45973192
 53
21.0
 43
25.4
 44
38.1
 45
151.6143912691
 46
-102.2651981871
 79
2
 49
19.05
 49
-209.55
 53
326.0
 43
25.4
 44
38.1
 45
61.8020283476
 46
184.1879661223
 79
2
 49
15.24
 49
-167.64
 53
71.451445
 43
38.0345326
 44
29.5779001
 45
213.4164192787
 46
81.9227688859
 79
2
 49
16.1900088
 49
-178.0899376
 53
37.5
 43
0.0
 44
0.0
 45
3.0886032506
 46
84.5550388732
 79
6
 49
0.0
 49
-165.608
 49
0.0
 49
-170.18
 49
0.0
 49
-168.275
 53
7.5
 43
0.0
 44
0.0
 45
66.8196625103
 46
100.1805748181
 79
6
 49
0.0
 49
-97.028
 49
0.0
 49
-161.798
 49
0.0
 49
-64.135
 53
-32.5
 43
-56.642
 44
0.0
 45
135.5905951669
 46
-5.7287439927
 79
6
 49
0.0
 49
-63.5
 49
0.0
 49
-198.12
 49
0.0
 49
-262.89
 53
-42.5
 43
-82.042
 44
0.0
 45
148.129181386
 46
25.4264910333
 79
6
 49
0.0
 49
-82.55
 49
0.0
 49
-131.572
 49
0.0
 49
-186.69
 98
0
  0
HATCH
  5
196
330
17
100
AcDbEntity
  8
Hachura
 62
7
100
AcDbHatch
 10
0.0
 20
0.0
 30
0.0
210
0.0
220
0.0
230
1.0
  2
SOLID
 70
1
 71
0
 91
1
 92
3
 72
0
 73
1
 93
6
 10
8639.198428765543
 20
5703.003488949831
 10
8635.198428765547
 20
5703.003488949831
 10
8635.198428765547
 20
5617.003488949853
 10
8639.198428765543
 20
5617.003488949851
 10
8639.198428765543
 20
5703.003488949829
 10
8639.198428765543
 20
5703.003488949831
 97
0
 75
1
 76
1
 98
0
  0
HATCH
  5
197
330
17
100
AcDbEntity
  8
Hachura
 62
7
100
AcDbHatch
 10
0.0
 20
0.0
 30
0.0
210
0.0
220
0.0
230
1.0
  2
ANSI31
 70
0
 71
0
 91
1
 92
3
 72
0
 73
1
 93
5
 10
8597.198428765543
 20
5617.003488949851
 10
8597.198428765543
 20
5621.403488949845
 10
8611.198428765545
 20
5621.403488949845
 10
8611.198428765545
 20
5617.003488949851
 10
8597.198428765543
 20
5617.003488949851
 97
0
 75
1
 76
1
 52
0.0
 41
1.0
 77
0
 78
1
 53
45.0
 43
0.0
 44
0.0
 45
-2.2450640303
 46
2.2450640303
 79
0
 98
0
  0
HATCH
  5
198
330
17
100
AcDbEntity
  8
Hachura
 62
7
100
AcDbHatch
 10
0.0
 20
0.0
 30
0.0
210
0.0
220
0.0
230
1.0
  2
SOLID
 70
1
 71
0
 91
1
 92
3
 72
0
 73
1
 93
5
 10
8597.198428765543
 20
5621.403488949845
 10
8597.198428765543
 20
5625.003488949851
 10
8635.198428765547
 20
5625.003488949851
 10
8635.198428765547
 20
5621.403488949845
 10
8597.198428765543
 20
5621.403488949845
 97
0
 75
1
 76
1
 98
0
  0
HATCH
  5
199
330
17
100
AcDbEntity
  8
Hachura
 62
7
100
AcDbHatch
 10
0.0
 20
0.0
 30
0.0
210
0.0
220
0.0
230
1.0
  2
ANSI31
 70
0
 71
0
 91
1
 92
3
 72
0
 73
1
 93
5
 10
8635.198428765547
 20
5617.003488949851
 10
8635.198428765547
 20
5621.403488949845
 10
8621.198428765545
 20
5621.403488949845
 10
8621.198428765545
 20
5617.003488949851
 10
8635.198428765547
 20
5617.003488949851
 97
0
 75
1
 76
1
 52
0.0
 41
1.0
 77
0
 78
1
 53
45.0
 43
0.0
 44
0.0
 45
-2.2450640303
 46
2.2450640303
 79
0
 98
0
  0
HATCH
  5
19A
330
17
100
AcDbEntity
  8
Hachura
 62
7
100
AcDbHatch
 10
0.0
 20
0.0
 30
0.0
210
0.0
220
0.0
230
1.0
  2
SOLID
 70
1
 71
0
 91
1
 92
3
 72
0
 73
1
 93
6
 10
8593.198428765543
 20
5735.003488949853
 10
8597.198428765543
 20
5735.003488949853
 10
8597.198428765543
 20
5617.003488949853
 10
8593.198428765543
 20
5617.003488949851
 10
8593.198428765543
 20
5735.003488949851
 10
8593.198428765543
 20
5735.003488949853
 97
0
 75
1
 76
1
 98
0
  0
HATCH
  5
19B
330
17
100
AcDbEntity
  8
Hachura
 62
7
100
AcDbHatch
 10
0.0
 20
0.0
 30
0.0
210
0.0
220
0.0
230
1.0
  2
SOLID
 70
1
 71
0
 91
1
 92
3
 72
0
 73
1
 93
5
 10
8635.198428765547
 20
5703.003488949831
 10
8635.198428765547
 20
5707.003488949831
 10
8690.798428765524
 20
5707.003488949824
 10
8690.798428765524
 20
5703.003488949824
 10
8635.198428765547
 20
5703.003488949831
 97
0
 75
1
 76
1
 98
0
  0
HATCH
  5
19C
330
17
100
AcDbEntity
  8
COTA
 62
7
100
AcDbHatch
 10
0.0
 20
0.0
 30
0.0
210
0.0
220
0.0
230
1.0
  2
AR-CONC
 70
0
 71
0
 91
1
 92
3
 72
0
 73
1
 93
5
 10
9034.574685355436
 20
5266.525680221274
 10
9034.574685355436
 20
5252.525680221268
 10
8312.574685355436
 20
5252.525680221235
 10
8312.574685355436
 20
5266.525680221246
 10
9034.574685355436
 20
5266.525680221274
 97
0
 75
1
 76
1
 52
0.0
 41
1.0
 77
0
 78
13
 53
50.0
 43
0.0
 44
0.0
 45
182.184668996
 46
-15.9390855389
 79
2
 49
19.05
 49
-209.55
 53
355.0
 43
0.0
 44
0.0
 45
-35.243421425
 46
191.056845239
 79
2
 49
15.24
 49
-167.64058417
 53
100.4514447
 43
15.182007
 44
-1.3282535
 45
146.9412470904
 46
175.1177519122
 79
2
 49
16.1900088
 49
-178.0902446
 53
46.1842
 43
0.0
 44
50.8
 45
271.0790408921
 46
-42.0423279327
 79
2
 49
28.575
 49
-314.325
 53
96.63555761
 43
22.5899
 44
47.2965
 45
237.4041340515
 46
247.4261245977
 79
2
 49
24.28502314
 49
-267.13560816
 53
351.18415117
 43
0.0
 44
50.8
 45
237.404134065
 46
247.4261245855
 79
2
 49
22.85996707
 49
-251.45973192
 53
21.0
 43
25.4
 44
38.1
 45
151.6143912691
 46
-102.2651981871
 79
2
 49
19.05
 49
-209.55
 53
326.0
 43
25.4
 44
38.1
 45
61.8020283476
 46
184.1879661223
 79
2
 49
15.24
 49
-167.64
 53
71.451445
 43
38.0345326
 44
29.5779001
 45
213.4164192787
 46
81.9227688859
 79
2
 49
16.1900088
 49
-178.0899376
 53
37.5
 43
0.0
 44
0.0
 45
3.0886032506
 46
84.5550388732
 79
6
 49
0.0
 49
-165.608
 49
0.0
 49
-170.18
 49
0.0
 49
-168.275
 53
7.5
 43
0.0
 44
0.0
 45
66.8196625103
 46
100.1805748181
 79
6
 49
0.0
 49
-97.028
 49
0.0
 49
-161.798
 49
0.0
 49
-64.135
 53
-32.5
 43
-56.642
 44
0.0
 45
135.5905951669
 46
-5.7287439927
 79
6
 49
0.0
 49
-63.5
 49
0.0
 49
-198.12
 49
0.0
 49
-262.89
 53
-42.5
 43
-82.042
 44
0.0
 45
148.129181386
 46
25.4264910333
 79
6
 49
0.0
 49
-82.55
 49
0.0
 49
-131.572
 49
0.0
 49
-186.69
 98
0
  0
HATCH
  5
19D
330
17
100
AcDbEntity
  8
Hachura
 62
7
100
AcDbHatch
 10
0.0
 20
0.0
 30
0.0
210
0.0
220
0.0
230
1.0
  2
ANSI31
 70
0
 71
0
 91
1
 92
3
 72
0
 73
1
 93
5
 10
8588.798428765544
 20
5721.003488949853
 10
8593.198428765538
 20
5721.003488949853
 10
8593.198428765538
 20
5735.003488949853
 10
8588.798428765544
 20
5735.003488949853
 10
8588.798428765544
 20
5721.003488949853
 97
0
 75
1
 76
1
 52
0.0
 41
1.0
 77
0
 78
1
 53
45.0
 43
0.0
 44
0.0
 45
-2.2450640303
 46
2.2450640303
 79
0
 98
0
  0
HATCH
  5
19E
330
17
100
AcDbEntity
  8
Hachura
 62
7
100
AcDbHatch
 10
0.0
 20
0.0
 30
0.0
210
0.0
220
0.0
230
1.0
  2
ANSI31
 70
0
 71
0
 91
1
 92
3
 72
0
 73
1
 93
5
 10
8588.798428765542
 20
5675.107054375057
 10
8593.198428765534
 20
5675.107054375057
 10
8593.198428765534
 20
5689.107054375057
 10
8588.798428765542
 20
5689.107054375057
 10
8588.798428765542
 20
5675.107054375057
 97
0
 75
1
 76
1
 52
0.0
 41
1.0
 77
0
 78
1
 53
45.0
 43
0.0
 44
0.0
 45
-2.2450640303
 46
2.2450640303
 79
0
 98
0
  0
HATCH
  5
19F
330
17
100
AcDbEntity
  8
Hachura
 62
7
100
AcDbHatch
 10
0.0
 20
0.0
 30
0.0
210
0.0
220
0.0
230
1.0
  2
ANSI31
 70
0
 71
0
 91
1
 92
3
 72
0
 73
1
 93
5
 10
8588.798428765533
 20
5617.003488949851
 10
8593.198428765527
 20
5617.003488949851
 10
8593.198428765527
 20
5631.003488949851
 10
8588.798428765533
 20
5631.003488949851
 10
8588.798428765533
 20
5617.003488949851
 97
0
 75
1
 76
1
 52
0.0
 41
1.0
 77
0
 78
1
 53
45.0
 43
0.0
 44
0.0
 45
-2.2450640303
 46
2.2450640303
 79
0
 98
0
  0
HATCH
  5
1A0
330
17
100
AcDbEntity
  8
Hachura
 62
7
100
AcDbHatch
 10
0.0
 20
0.0
 30
0.0
210
0.0
220
0.0
230
1.0
  2
ANSI31
 70
0
 71
0
 91
1
 92
3
 72
0
 73
1
 93
5
 10
8643.59842876554
 20
5689.003488949831
 10
8639.198428765543
 20
5689.003488949831
 10
8639.198428765543
 20
5703.003488949831
 10
8643.59842876554
 20
5703.003488949831
 10
8643.59842876554
 20
5689.003488949831
 97
0
 75
1
 76
1
 52
0.0
 41
1.0
 77
0
 78
1
 53
45.0
 43
0.0
 44
0.0
 45
-2.2450640303
 46
2.2450640303
 79
0
 98
0
  0
HATCH
  5
1A1
330
17
100
AcDbEntity
  8
Hachura
 62
7
100
AcDbHatch
 10
0.0
 20
0.0
 30
0.0
210
0.0
220
0.0
230
1.0
  2
ANSI31
 70
0
 71
0
 91
1
 92
3
 72
0
 73
1
 93
5
 10
8643.598428765616
 20
5617.003488949851
 10
8639.198428765621
 20
5617.003488949851
 10
8639.198428765621
 20
5631.003488949851
 10
8643.598428765616
 20
5631.003488949851
 10
8643.598428765616
 20
5617.003488949851
 97
0
 75
1
 76
1
 52
0.0
 41
1.0
 77
0
 78
1
 53
45.0
 43
0.0
 44
0.0
 45
-2.2450640303
 46
2.2450640303
 79
0
 98
0
  0
HATCH
  5
1A2
330
17
100
AcDbEntity
  8
REAPROVEITAMENTO
 62
7
100
AcDbHatch
 10
0.0
 20
0.0
 30
0.0
210
0.0
220
0.0
230
1.0
  2
ANSI31
 70
0
 71
0
 91
1
 92
3
 72
0
 73
1
 93
6
 10
8355.731800458858
 20
5420.196568501236
 10
8355.731800458858
 20
5465.196568501234
 10
8226.731800458854
 20
5465.196568501239
 10
8226.731800458854
 20
5420.196568501244
 10
8355.731800458861
 20
5420.196568501236
 10
8355.731800458858
 20
5420.196568501236
 97
0
 75
1
 76
1
 52
0.0
 41
1.0
 77
0
 78
1
 53
45.0
 43
0.0
 44
0.0
 45
-2.2450640303
 46
2.2450640303
 79
0
 98
0
  0
HATCH
  5
1A3
330
17
100
AcDbEntity
  8
REAPROVEITAMENTO
 62
7
100
AcDbHatch
 10
0.0
 20
0.0
 30
0.0
210
0.0
220
0.0
230
1.0
  2
ANSI31
 70
0
 71
0
 91
1
 92
3
 72
0
 73
1
 93
7
 10
8588.095802395883
 20
5425.196568501245
 10
8561.095802395883
 20
5425.196568501246
 10
8561.095802395883
 20
5479.196568501227
 10
8385.09580239588
 20
5479.19656850124
 10
8385.09580239588
 20
5420.19656850125
 10
8588.095802395883
 20
5420.196568501237
 10
8588.095802395883
 20
5425.196568501245
 97
0
 75
1
 76
1
 52
0.0
 41
1.0
 77
0
 78
1
 53
45.0
 43
0.0
 44
0.0
 45
-2.2450640303
 46
2.2450640303
 79
0
 98
0
  0
HATCH
  5
1A4
330
17
100
AcDbEntity
  8
REAPROVEITAMENTO
 62
7
100
AcDbHatch
 10
0.0
 20
0.0
 30
0.0
210
0.0
220
0.0
230
1.0
  2
ANSI31
 70
0
 71
0
 91
1
 92
3
 72
0
 73
1
 93
5
 10
8760.095802395886
 20
5420.196568501247
 10
8760.095802395886
 20
5479.196568501244
 10
8588.09580239588
 20
5479.196568501253
 10
8588.09580239588
 20
5420.196568501256
 10
8760.095802395886
 20
5420.196568501247
 97
0
 75
1
 76
1
 52
0.0
 41
1.0
 77
0
 78
1
 53
45.0
 43
0.0
 44
0.0
 45
-2.2450640303
 46
2.2450640303
 79
0
 98
0
  0
HATCH
  5
1A5
330
17
100
AcDbEntity
  8
REAPROVEITAMENTO
 62
7
100
AcDbHatch
 10
0.0
 20
0.0
 30
0.0
210
0.0
220
0.0
230
1.0
  2
ANSI31
 70
0
 71
0
 91
1
 92
3
 72
0
 73
1
 93
8
 10
8787.095802395883
 20
5425.196568501246
 10
8760.095802395886
 20
5425.196568501246
 10
8760.095802395888
 20
5420.196568501263
 10
8963.095802395883
 20
5420.196568501256
 10
8963.095802395883
 20
5479.196568501237
 10
8787.095802395883
 20
5479.196568501242
 10
8787.095802395883
 20
5425.196568501245
 10
8787.095802395883
 20
5425.196568501246
 97
0
 75
1
 76
1
 52
0.0
 41
1.0
 77
0
 78
1
 53
45.0
 43
0.0
 44
0.0
 45
-2.2450640303
 46
2.2450640303
 79
0
 98
0
  0
HATCH
  5
1A6
330
17
100
AcDbEntity
  8
REAPROVEITAMENTO
 62
7
100
AcDbHatch
 10
0.0
 20
0.0
 30
0.0
210
0.0
220
0.0
230
1.0
  2
ANSI31
 70
0
 71
0
 91
1
 92
3
 72
0
 73
1
 93
6
 10
9058.828386241496
 20
5420.352879171839
 10
9058.828386241496
 20
5479.352879171837
 10
8998.828386241492
 20
5479.35287917184
 10
8998.828386241496
 20
5420.352879171842
 10
9058.828386241497
 20
5420.352879171839
 10
9058.828386241496
 20
5420.352879171839
 97
0
 75
1
 76
1
 52
0.0
 41
1.0
 77
0
 78
1
 53
45.0
 43
0.0
 44
0.0
 45
-2.2450640303
 46
2.2450640303
 79
0
 98
0
  0
HATCH
  5
1A7
330
17
100
AcDbEntity
  8
REAPROVEITAMENTO
 62
7
100
AcDbHatch
 10
0.0
 20
0.0
 30
0.0
210
0.0
220
0.0
230
1.0
  2
ANSI31
 70
0
 71
0
 91
1
 92
3
 72
0
 73
1
 93
7
 10
8265.078823497195
 20
5265.855133079206
 10
8265.078823497195
 20
5221.855133079211
 10
8236.078823497199
 20
5221.855133079209
 10
8236.078823497199
 20
5206.855133079213
 10
8296.078823497199
 20
5206.855133079205
 10
8296.078823497197
 20
5265.855133079204
 10
8265.078823497195
 20
5265.855133079206
 97
0
 75
1
 76
1
 52
0.0
 41
1.0
 77
0
 78
1
 53
45.0
 43
0.0
 44
0.0
 45
-2.2450640303
 46
2.2450640303
 79
0
 98
0
  0
HATCH
  5
1A8
330
17
100
AcDbEntity
  8
REAPROVEITAMENTO
 62
7
100
AcDbHatch
 10
0.0
 20
0.0
 30
0.0
210
0.0
220
0.0
230
1.0
  2
ANSI31
 70
0
 71
0
 91
1
 92
3
 72
0
 73
1
 93
5
 10
9034.574685355436
 20
5207.525680221267
 10
9034.574685355436
 20
5252.525680221265
 10
8312.574685355437
 20
5252.525680221243
 10
8312.574685355437
 20
5207.525680221247
 10
9034.574685355436
 20
5207.525680221267
 97
0
 75
1
 76
1
 52
0.0
 41
1.0
 77
0
 78
1
 53
45.0
 43
0.0
 44
0.0
 45
-2.2450640303
 46
2.2450640303
 79
0
 98
0
  0
ENDSEC
  0
SECTION
  2
OBJECTS
  0
DICTIONARY
  5
A
330
0
100
AcDbDictionary
281
1
  3
ACAD_COLOR
350
B
  3
ACAD_GROUP
350
C
  3
ACAD_LAYOUT
350
D
  3
ACAD_MATERIAL
350
E
  3
ACAD_MLEADERSTYLE
350
F
  3
ACAD_MLINESTYLE
350
10
  3
ACAD_PLOTSETTINGS
350
11
  3
ACAD_PLOTSTYLENAME
350
12
  3
ACAD_SCALELIST
350
14
  3
ACAD_TABLESTYLE
350
15
  3
ACAD_VISUALSTYLE
350
16
  3
EZDXF_META
350
2D
  0
DICTIONARY
  5
B
330
A
100
AcDbDictionary
281
1
  0
DICTIONARY
  5
C
330
A
100
AcDbDictionary
281
1
  0
DICTIONARY
  5
D
330
A
100
AcDbDictionary
281
1
  3
Model
350
1A
  3
Layout1
350
1E
  0
DICTIONARY
  5
E
330
A
100
AcDbDictionary
281
1
  3
ByBlock
350
1F
  3
ByLayer
350
20
  3
Global
350
21
  0
DICTIONARY
  5
F
330
A
100
AcDbDictionary
281
1
  3
Standard
350
2C
  0
DICTIONARY
  5
10
330
A
100
AcDbDictionary
281
1
  3
Standard
350
22
  0
DICTIONARY
  5
11
330
A
100
AcDbDictionary
281
1
  0
ACDBDICTIONARYWDFLT
  5
12
330
A
100
AcDbDictionary
281
1
  3
Normal
350
13
100
AcDbDictionaryWithDefault
340
13
  0
ACDBPLACEHOLDER
  5
13
330
12
  0
DICTIONARY
  5
14
330
A
100
AcDbDictionary
281
1
  0
DICTIONARY
  5
15
330
A
100
AcDbDictionary
281
1
  0
DICTIONARY
  5
16
330
A
100
AcDbDictionary
281
1
  0
LAYOUT
  5
1A
330
D
100
AcDbPlotSettings
  1

  4
A3
  6

 40
7.5
 41
20.0
 42
7.5
 43
20.0
 44
420.0
 45
297.0
 46
0.0
 47
0.0
 48
0.0
 49
0.0
140
0.0
141
0.0
142
1.0
143
1.0
 70
1024
 72
1
 73
0
 74
5
  7

 75
16
 76
0
 77
2
 78
300
147
1.0
148
0.0
149
0.0
100
AcDbLayout
  1
Model
 70
1
 71
0
 10
0.0
 20
0.0
 11
420.0
 21
297.0
 12
0.0
 22
0.0
 32
0.0
 14
1e+20
 24
1e+20
 34
1e+20
 15
-1e+20
 25
-1e+20
 35
-1e+20
146
0.0
 13
0.0
 23
0.0
 33
0.0
 16
1.0
 26
0.0
 36
0.0
 17
0.0
 27
1.0
 37
0.0
 76
1
330
17
  0
LAYOUT
  5
1E
330
D
100
AcDbPlotSettings
  1

  4
A3
  6

 40
7.5
 41
20.0
 42
7.5
 43
20.0
 44
420.0
 45
297.0
 46
0.0
 47
0.0
 48
0.0
 49
0.0
140
0.0
141
0.0
142
1.0
143
1.0
 70
0
 72
1
 73
0
 74
5
  7

 75
16
 76
0
 77
2
 78
300
147
1.0
148
0.0
149
0.0
100
AcDbLayout
  1
Layout1
 70
1
 71
1
 10
0.0
 20
0.0
 11
420.0
 21
297.0
 12
0.0
 22
0.0
 32
0.0
 14
1e+20
 24
1e+20
 34
1e+20
 15
-1e+20
 25
-1e+20
 35
-1e+20
146
0.0
 13
0.0
 23
0.0
 33
0.0
 16
1.0
 26
0.0
 36
0.0
 17
0.0
 27
1.0
 37
0.0
 76
1
330
1B
  0
MATERIAL
  5
1F
102
{ACAD_REACTORS
330
E
102
}
330
E
100
AcDbMaterial
  1
ByBlock
  2

 70
0
 40
1.0
 71
1
 41
1.0
 91
-1023410177
 42
1.0
 72
1
  3

 73
1
 74
1
 75
1
 44
0.5
 73
0
 45
1.0
 46
1.0
 77
1
  4

 78
1
 79
1
170
1
 48
1.0
171
1
  6

172
1
173
1
174
1
140
1.0
141
1.0
175
1
  7

176
1
177
1
178
1
143
1.0
179
1
  8

270
1
271
1
272
1
145
1.0
146
1.0
273
1
  9

274
1
275
1
276
1
 42
1.0
 72
1
  3

 73
1
 74
1
 75
1
 94
63
  0
MATERIAL
  5
20
102
{ACAD_REACTORS
330
E
102
}
330
E
100
AcDbMaterial
  1
ByLayer
  2

 70
0
 40
1.0
 71
1
 41
1.0
 91
-1023410177
 42
1.0
 72
1
  3

 73
1
 74
1
 75
1
 44
0.5
 73
0
 45
1.0
 46
1.0
 77
1
  4

 78
1
 79
1
170
1
 48
1.0
171
1
  6

172
1
173
1
174
1
140
1.0
141
1.0
175
1
  7

176
1
177
1
178
1
143
1.0
179
1
  8

270
1
271
1
272
1
145
1.0
146
1.0
273
1
  9

274
1
275
1
276
1
 42
1.0
 72
1
  3

 73
1
 74
1
 75
1
 94
63
  0
MATERIAL
  5
21
102
{ACAD_REACTORS
330
E
102
}
330
E
100
AcDbMaterial
  1
Global
  2

 70
0
 40
1.0
 71
1
 41
1.0
 91
-1023410177
 42
1.0
 72
1
  3

 73
1
 74
1
 75
1
 44
0.5
 73
0
 45
1.0
 46
1.0
 77
1
  4

 78
1
 79
1
170
1
 48
1.0
171
1
  6

172
1
173
1
174
1
140
1.0
141
1.0
175
1
  7

176
1
177
1
178
1
143
1.0
179
1
  8

270
1
271
1
272
1
145
1.0
146
1.0
273
1
  9

274
1
275
1
276
1
 42
1.0
 72
1
  3

 73
1
 74
1
 75
1
 94
63
  0
MLINESTYLE
  5
22
102
{ACAD_REACTORS
330
10
102
}
330
10
100
AcDbMlineStyle
  2
Standard
 70
0
  3

 62
256
 51
90.0
 52
90.0
 71
2
 49
0.5
 62
256
  6
BYLAYER
 49
-0.5
 62
256
  6
BYLAYER
  0
MLEADERSTYLE
  5
2C
102
{ACAD_REACTORS
330
F
102
}
330
F
100
AcDbMLeaderStyle
179
2
170
2
171
1
172
0
 90
2
 40
0.0
 41
0.0
173
1
 91
-1056964608
 92
-2
290
1
 42
2.0
291
1
 43
8.0
  3
Standard
 44
4.0
300

342
29
174
1
175
1
176
0
178
1
 93
-1056964608
 45
4.0
292
0
297
0
 46
4.0
 94
-1056964608
 47
1.0
 49
1.0
140
1.0
294
1
141
0.0
177
0
142
1.0
295
0
296
0
143
3.75
271
0
272
9
273
9
  0
DICTIONARY
  5
2D
330
A
100
AcDbDictionary
280
1
281
1
  3
CREATED_BY_EZDXF
350
2E
  3
WRITTEN_BY_EZDXF
350
1AB
  0
DICTIONARYVAR
  5
2E
330
2D
100
DictionaryVariables
280
0
  1
1.4.3 @ 2026-06-10T17:42:53.881863+00:00
  0
DICTIONARYVAR
  5
1AB
330
2D
100
DictionaryVariables
280
0
  1
1.4.3 @ 2026-06-10T17:42:53.893958+00:00
  0
ENDSEC
  0
EOF
