  0
SECTION
  2
HEADER
  9
$ACADVER
  1
AC1024
  9
$ACADMAINTVER
 70
6
  9
$DWGCODEPAGE
  3
ANSI_1252
  9
$LASTSAVEDBY
  1
ezdxf
  9
$INSBASE
 10
0.0
 20
0.0
 30
0.0
  9
$EXTMIN
 10
1e+20
 20
1e+20
 30
1e+20
  9
$EXTMAX
 10
-1e+20
 20
-1e+20
 30
-1e+20
  9
$LIMMIN
 10
0.0
 20
0.0
  9
$LIMMAX
 10
420.0
 20
297.0
  9
$ORTHOMODE
 70
0
  9
$REGENMODE
 70
1
  9
$FILLMODE
 70
1
  9
$QTEXTMODE
 70
0
  9
$MIRRTEXT
 70
1
  9
$LTSCALE
 40
1.0
  9
$ATTMODE
 70
1
  9
$TEXTSIZE
 40
2.5
  9
$TRACEWID
 40
1.0
  9
$TEXTSTYLE
  7
Standard
  9
$CLAYER
  8
0
  9
$CELTYPE
  6
ByLayer
  9
$CECOLOR
 62
256
  9
$CELTSCALE
 40
1.0
  9
$DISPSILH
 70
0
  9
$DIMSCALE
 40
1.0
  9
$DIMASZ
 40
2.5
  9
$DIMEXO
 40
0.625
  9
$DIMDLI
 40
3.75
  9
$DIMRND
 40
0.0
  9
$DIMDLE
 40
0.0
  9
$DIMEXE
 40
1.25
  9
$DIMTP
 40
0.0
  9
$DIMTM
 40
0.0
  9
$DIMTXT
 40
2.5
  9
$DIMCEN
 40
2.5
  9
$DIMTSZ
 40
0.0
  9
$DIMTOL
 70
0
  9
$DIMLIM
 70
0
  9
$DIMTIH
 70
0
  9
$DIMTOH
 70
0
  9
$DIMSE1
 70
0
  9
$DIMSE2
 70
0
  9
$DIMTAD
 70
1
  9
$DIMZIN
 70
8
  9
$DIMBLK
  1

  9
$DIMASO
 70
1
  9
$DIMSHO
 70
1
  9
$DIMPOST
  1

  9
$DIMAPOST
  1

  9
$DIMALT
 70
0
  9
$DIMALTD
 70
3
  9
$DIMALTF
 40
0.03937007874
  9
$DIMLFAC
 40
1.0
  9
$DIMTOFL
 70
1
  9
$DIMTVP
 40
0.0
  9
$DIMTIX
 70
0
  9
$DIMSOXD
 70
0
  9
$DIMSAH
 70
0
  9
$DIMBLK1
  1

  9
$DIMBLK2
  1

  9
$DIMSTYLE
  2
ISO-25
  9
$DIMCLRD
 70
0
  9
$DIMCLRE
 70
0
  9
$DIMCLRT
 70
0
  9
$DIMTFAC
 40
1.0
  9
$DIMGAP
 40
0.625
  9
$DIMJUST
 70
0
  9
$DIMSD1
 70
0
  9
$DIMSD2
 70
0
  9
$DIMTOLJ
 70
0
  9
$DIMTZIN
 70
8
  9
$DIMALTZ
 70
0
  9
$DIMALTTZ
 70
0
  9
$DIMUPT
 70
0
  9
$DIMDEC
 70
2
  9
$DIMTDEC
 70
2
  9
$DIMALTU
 70
2
  9
$DIMALTTD
 70
3
  9
$DIMTXSTY
  7
Standard
  9
$DIMAUNIT
 70
0
  9
$DIMADEC
 70
0
  9
$DIMALTRND
 40
0.0
  9
$DIMAZIN
 70
0
  9
$DIMDSEP
 70
44
  9
$DIMATFIT
 70
3
  9
$DIMFRAC
 70
0
  9
$DIMLDRBLK
  1

  9
$DIMLUNIT
 70
2
  9
$DIMLWD
 70
-2
  9
$DIMLWE
 70
-2
  9
$DIMTMOVE
 70
0
  9
$DIMFXL
 40
1.0
  9
$DIMFXLON
 70
0
  9
$DIMJOGANG
 40
0.785398163397
  9
$DIMTFILL
 70
0
  9
$DIMTFILLCLR
 70
0
  9
$DIMARCSYM
 70
0
  9
$DIMLTYPE
  6

  9
$DIMLTEX1
  6

  9
$DIMLTEX2
  6

  9
$DIMTXTDIRECTION
 70
0
  9
$LUNITS
 70
2
  9
$LUPREC
 70
4
  9
$SKETCHINC
 40
1.0
  9
$FILLETRAD
 40
10.0
  9
$AUNITS
 70
0
  9
$AUPREC
 70
2
  9
$MENU
  1
.
  9
$ELEVATION
 40
0.0
  9
$PELEVATION
 40
0.0
  9
$THICKNESS
 40
0.0
  9
$LIMCHECK
 70
0
  9
$CHAMFERA
 40
0.0
  9
$CHAMFERB
 40
0.0
  9
$CHAMFERC
 40
0.0
  9
$CHAMFERD
 40
0.0
  9
$SKPOLY
 70
0
  9
$TDCREATE
 40
2461202.6153703704
  9
$TDUCREATE
 40
2458532.153996898
  9
$TDUPDATE
 40
2461202.6153703704
  9
$TDUUPDATE
 40
2458532.1544311
  9
$TDINDWG
 40
0.0
  9
$TDUSRTIMER
 40
0.0
  9
$USRTIMER
 70
1
  9
$ANGBASE
 50
0.0
  9
$ANGDIR
 70
0
  9
$PDMODE
 70
0
  9
$PDSIZE
 40
0.0
  9
$PLINEWID
 40
0.0
  9
$SPLFRAME
 70
0
  9
$SPLINETYPE
 70
6
  9
$SPLINESEGS
 70
8
  9
$HANDSEED
  5
309
  9
$SURFTAB1
 70
6
  9
$SURFTAB2
 70
6
  9
$SURFTYPE
 70
6
  9
$SURFU
 70
6
  9
$SURFV
 70
6
  9
$UCSBASE
  2

  9
$UCSNAME
  2

  9
$UCSORG
 10
0.0
 20
0.0
 30
0.0
  9
$UCSXDIR
 10
1.0
 20
0.0
 30
0.0
  9
$UCSYDIR
 10
0.0
 20
1.0
 30
0.0
  9
$UCSORTHOREF
  2

  9
$UCSORTHOVIEW
 70
0
  9
$UCSORGTOP
 10
0.0
 20
0.0
 30
0.0
  9
$UCSORGBOTTOM
 10
0.0
 20
0.0
 30
0.0
  9
$UCSORGLEFT
 10
0.0
 20
0.0
 30
0.0
  9
$UCSORGRIGHT
 10
0.0
 20
0.0
 30
0.0
  9
$UCSORGFRONT
 10
0.0
 20
0.0
 30
0.0
  9
$UCSORGBACK
 10
0.0
 20
0.0
 30
0.0
  9
$PUCSBASE
  2

  9
$PUCSNAME
  2

  9
$PUCSORG
 10
0.0
 20
0.0
 30
0.0
  9
$PUCSXDIR
 10
1.0
 20
0.0
 30
0.0
  9
$PUCSYDIR
 10
0.0
 20
1.0
 30
0.0
  9
$PUCSORTHOREF
  2

  9
$PUCSORTHOVIEW
 70
0
  9
$PUCSORGTOP
 10
0.0
 20
0.0
 30
0.0
  9
$PUCSORGBOTTOM
 10
0.0
 20
0.0
 30
0.0
  9
$PUCSORGLEFT
 10
0.0
 20
0.0
 30
0.0
  9
$PUCSORGRIGHT
 10
0.0
 20
0.0
 30
0.0
  9
$PUCSORGFRONT
 10
0.0
 20
0.0
 30
0.0
  9
$PUCSORGBACK
 10
0.0
 20
0.0
 30
0.0
  9
$USERI1
 70
0
  9
$USERI2
 70
0
  9
$USERI3
 70
0
  9
$USERI4
 70
0
  9
$USERI5
 70
0
  9
$USERR1
 40
0.0
  9
$USERR2
 40
0.0
  9
$USERR3
 40
0.0
  9
$USERR4
 40
0.0
  9
$USERR5
 40
0.0
  9
$WORLDVIEW
 70
1
  9
$SHADEDGE
 70
3
  9
$SHADEDIF
 70
70
  9
$TILEMODE
 70
1
  9
$MAXACTVP
 70
64
  9
$PINSBASE
 10
0.0
 20
0.0
 30
0.0
  9
$PLIMCHECK
 70
0
  9
$PEXTMIN
 10
1e+20
 20
1e+20
 30
1e+20
  9
$PEXTMAX
 10
-1e+20
 20
-1e+20
 30
-1e+20
  9
$PLIMMIN
 10
0.0
 20
0.0
  9
$PLIMMAX
 10
420.0
 20
297.0
  9
$UNITMODE
 70
0
  9
$VISRETAIN
 70
1
  9
$PLINEGEN
 70
0
  9
$PSLTSCALE
 70
1
  9
$TREEDEPTH
 70
3020
  9
$CMLSTYLE
  2
Standard
  9
$CMLJUST
 70
0
  9
$CMLSCALE
 40
20.0
  9
$PROXYGRAPHICS
 70
1
  9
$MEASUREMENT
 70
1
  9
$CELWEIGHT
370
-1
  9
$ENDCAPS
280
0
  9
$JOINSTYLE
280
0
  9
$LWDISPLAY
290
0
  9
$INSUNITS
 70
6
  9
$HYPERLINKBASE
  1

  9
$STYLESHEET
  1

  9
$XEDIT
290
1
  9
$CEPSNTYPE
380
0
  9
$PSTYLEMODE
290
1
  9
$FINGERPRINTGUID
  2
{5354DAE9-22CE-4444-A3D0-FF72C635A930}
  9
$VERSIONGUID
  2
{784A766E-0B29-46C9-BDF1-26C7EF8DA951}
  9
$EXTNAMES
290
1
  9
$PSVPSCALE
 40
0.0
  9
$OLESTARTUP
290
0
  9
$SORTENTS
280
127
  9
$INDEXCTL
280
0
  9
$HIDETEXT
280
1
  9
$XCLIPFRAME
280
1
  9
$HALOGAP
280
0
  9
$OBSCOLOR
 70
257
  9
$OBSLTYPE
280
0
  9
$INTERSECTIONDISPLAY
280
0
  9
$INTERSECTIONCOLOR
 70
257
  9
$DIMASSOC
280
2
  9
$PROJECTNAME
  1

  9
$CAMERADISPLAY
290
0
  9
$LENSLENGTH
 40
50.0
  9
$CAMERAHEIGHT
 40
0.0
  9
$STEPSPERSEC
 40
24.0
  9
$STEPSIZE
 40
100.0
  9
$3DDWFPREC
 40
2.0
  9
$PSOLWIDTH
 40
0.005
  9
$PSOLHEIGHT
 40
0.08
  9
$LOFTANG1
 40
1.570796326795
  9
$LOFTANG2
 40
1.570796326795
  9
$LOFTMAG1
 40
0.0
  9
$LOFTMAG2
 40
0.0
  9
$LOFTPARAM
 70
7
  9
$LOFTNORMALS
280
1
  9
$LATITUDE
 40
37.795
  9
$LONGITUDE
 40
-122.394
  9
$NORTHDIRECTION
 40
0.0
  9
$TIMEZONE
 70
-8000
  9
$LIGHTGLYPHDISPLAY
280
1
  9
$TILEMODELIGHTSYNCH
280
1
  9
$CMATERIAL
347
20
  9
$SOLIDHIST
280
0
  9
$SHOWHIST
280
1
  9
$DWFFRAME
280
2
  9
$DGNFRAME
280
2
  9
$REALWORLDSCALE
290
1
  9
$INTERFERECOLOR
 62
256
  9
$CSHADOW
280
0
  9
$SHADOWPLANELOCATION
 40
0.0
  0
ENDSEC
  0
SECTION
  2
CLASSES
  0
CLASS
  1
ACDBDICTIONARYWDFLT
  2
AcDbDictionaryWithDefault
  3
ObjectDBX Classes
 90
0
 91
0
280
0
281
0
  0
CLASS
  1
SUN
  2
AcDbSun
  3
SCENEOE
 90
1153
 91
0
280
0
281
0
  0
CLASS
  1
VISUALSTYLE
  2
AcDbVisualStyle
  3
ObjectDBX Classes
 90
4095
 91
0
280
0
281
0
  0
CLASS
  1
MATERIAL
  2
AcDbMaterial
  3
ObjectDBX Classes
 90
1153
 91
0
280
0
281
0
  0
CLASS
  1
SCALE
  2
AcDbScale
  3
ObjectDBX Classes
 90
1153
 91
0
280
0
281
0
  0
CLASS
  1
TABLESTYLE
  2
AcDbTableStyle
  3
ObjectDBX Classes
 90
4095
 91
0
280
0
281
0
  0
CLASS
  1
MLEADERSTYLE
  2
AcDbMLeaderStyle
  3
ACDB_MLEADERSTYLE_CLASS
 90
4095
 91
0
280
0
281
0
  0
CLASS
  1
DICTIONARYVAR
  2
AcDbDictionaryVar
  3
ObjectDBX Classes
 90
0
 91
0
280
0
281
0
  0
CLASS
  1
CELLSTYLEMAP
  2
AcDbCellStyleMap
  3
ObjectDBX Classes
 90
1152
 91
0
280
0
281
0
  0
CLASS
  1
MENTALRAYRENDERSETTINGS
  2
AcDbMentalRayRenderSettings
  3
SCENEOE
 90
1024
 91
0
280
0
281
0
  0
CLASS
  1
ACDBDETAILVIEWSTYLE
  2
AcDbDetailViewStyle
  3
ObjectDBX Classes
 90
1025
 91
0
280
0
281
0
  0
CLASS
  1
ACDBSECTIONVIEWSTYLE
  2
AcDbSectionViewStyle
  3
ObjectDBX Classes
 90
1025
 91
0
280
0
281
0
  0
CLASS
  1
RASTERVARIABLES
  2
AcDbRasterVariables
  3
ISM
 90
0
 91
0
280
0
281
0
  0
CLASS
  1
ACDBPLACEHOLDER
  2
AcDbPlaceHolder
  3
ObjectDBX Classes
 90
0
 91
0
280
0
281
0
  0
CLASS
  1
LAYOUT
  2
AcDbLayout
  3
ObjectDBX Classes
 90
0
 91
0
280
0
281
0
  0
ENDSEC
  0
SECTION
  2
TABLES
  0
TABLE
  2
VPORT
  5
8
330
0
100
AcDbSymbolTable
 70
1
  0
VPORT
  5
23
330
8
100
AcDbSymbolTableRecord
100
AcDbViewportTableRecord
  2
*Active
 70
0
 10
0.0
 20
0.0
 11
1.0
 21
1.0
 12
0.0
 22
0.0
 13
0.0
 23
0.0
 14
0.5
 24
0.5
 15
0.5
 25
0.5
 16
0.0
 26
0.0
 36
1.0
 17
0.0
 27
0.0
 37
0.0
 40
1000.0
 41
1.34
 42
50.0
 43
0.0
 44
0.0
 50
0.0
 51
0.0
 71
0
 72
1000
 73
1
 74
3
 75
0
 76
0
 77
0
 78
0
281
0
 65
0
146
0.0
  0
ENDTAB
  0
TABLE
  2
LTYPE
  5
2
330
0
100
AcDbSymbolTable
 70
3
  0
LTYPE
  5
24
330
2
100
AcDbSymbolTableRecord
100
AcDbLinetypeTableRecord
  2
ByBlock
 70
0
  3

 72
65
 73
0
 40
0.0
  0
LTYPE
  5
25
330
2
100
AcDbSymbolTableRecord
100
AcDbLinetypeTableRecord
  2
ByLayer
 70
0
  3

 72
65
 73
0
 40
0.0
  0
LTYPE
  5
26
330
2
100
AcDbSymbolTableRecord
100
AcDbLinetypeTableRecord
  2
Continuous
 70
0
  3

 72
65
 73
0
 40
0.0
  0
ENDTAB
  0
TABLE
  2
LAYER
  5
1
330
0
100
AcDbSymbolTable
 70
21
  0
LAYER
  5
27
330
1
100
AcDbSymbolTableRecord
100
AcDbLayerTableRecord
  2
0
 70
0
 62
7
  6
Continuous
370
-3
390
13
347
21
  0
LAYER
  5
28
330
1
100
AcDbSymbolTableRecord
100
AcDbLayerTableRecord
  2
Defpoints
 70
0
 62
7
  6
Continuous
290
0
370
-3
390
13
347
21
  0
LAYER
  5
2F
330
1
100
AcDbSymbolTableRecord
100
AcDbLayerTableRecord
  2
barrote
 70
0
 62
7
  6
Continuous
370
-3
390
13
347
21
  0
LAYER
  5
30
330
1
100
AcDbSymbolTableRecord
100
AcDbLayerTableRecord
  2
COTA
 70
0
 62
7
  6
Continuous
370
-3
390
13
347
21
  0
LAYER
  5
31
330
1
100
AcDbSymbolTableRecord
100
AcDbLayerTableRecord
  2
SCO-___-LAJ
 70
0
 62
7
  6
Continuous
370
-3
390
13
347
21
  0
LAYER
  5
32
330
1
100
AcDbSymbolTableRecord
100
AcDbLayerTableRecord
  2
Cota Seção (2x)
 70
0
 62
7
  6
Continuous
370
-3
390
13
347
21
  0
LAYER
  5
33
330
1
100
AcDbSymbolTableRecord
100
AcDbLayerTableRecord
  2
5
 70
0
 62
7
  6
Continuous
370
-3
390
13
347
21
  0
LAYER
  5
34
330
1
100
AcDbSymbolTableRecord
100
AcDbLayerTableRecord
  2
detalhes
 70
0
 62
7
  6
Continuous
370
-3
390
13
347
21
  0
LAYER
  5
35
330
1
100
AcDbSymbolTableRecord
100
AcDbLayerTableRecord
  2
CONCRETO
 70
0
 62
7
  6
Continuous
370
-3
390
13
347
21
  0
LAYER
  5
36
330
1
100
AcDbSymbolTableRecord
100
AcDbLayerTableRecord
  2
Madeira
 70
0
 62
7
  6
Continuous
370
-3
390
13
347
21
  0
LAYER
  5
37
330
1
100
AcDbSymbolTableRecord
100
AcDbLayerTableRecord
  2
Texto Seção
 70
0
 62
7
  6
Continuous
370
-3
390
13
347
21
  0
LAYER
  5
38
330
1
100
AcDbSymbolTableRecord
100
AcDbLayerTableRecord
  2
Hachura
 70
0
 62
7
  6
Continuous
370
-3
390
13
347
21
  0
LAYER
  5
39
330
1
100
AcDbSymbolTableRecord
100
AcDbLayerTableRecord
  2
TENSOR
 70
0
 62
7
  6
Continuous
370
-3
390
13
347
21
  0
LAYER
  5
3A
330
1
100
AcDbSymbolTableRecord
100
AcDbLayerTableRecord
  2
presilha
 70
0
 62
7
  6
Continuous
370
-3
390
13
347
21
  0
LAYER
  5
3B
330
1
100
AcDbSymbolTableRecord
100
AcDbLayerTableRecord
  2
texto
 70
0
 62
7
  6
Continuous
370
-3
390
13
347
21
  0
LAYER
  5
3C
330
1
100
AcDbSymbolTableRecord
100
AcDbLayerTableRecord
  2
SARR_2.2x7
 70
0
 62
7
  6
Continuous
370
-3
390
13
347
21
  0
LAYER
  5
3D
330
1
100
AcDbSymbolTableRecord
100
AcDbLayerTableRecord
  2
SARR_3.5x7
 70
0
 62
7
  6
Continuous
370
-3
390
13
347
21
  0
LAYER
  5
3E
330
1
100
AcDbSymbolTableRecord
100
AcDbLayerTableRecord
  2
TEXTO PILAR
 70
0
 62
7
  6
Continuous
370
-3
390
13
347
21
  0
LAYER
  5
3F
330
1
100
AcDbSymbolTableRecord
100
AcDbLayerTableRecord
  2
Painéis
 70
0
 62
7
  6
Continuous
370
-3
390
13
347
21
  0
LAYER
  5
40
330
1
100
AcDbSymbolTableRecord
100
AcDbLayerTableRecord
  2
NOMENCLATURA
 70
0
 62
7
  6
Continuous
370
-3
390
13
347
21
  0
LAYER
  5
41
330
1
100
AcDbSymbolTableRecord
100
AcDbLayerTableRecord
  2
Cotas
 70
0
 62
7
  6
Continuous
370
-3
390
13
347
21
  0
ENDTAB
  0
TABLE
  2
STYLE
  5
5
330
0
100
AcDbSymbolTable
 70
1
  0
STYLE
  5
29
330
5
100
AcDbSymbolTableRecord
100
AcDbTextStyleTableRecord
  2
Standard
 70
0
 40
0.0
 41
1.0
 50
0.0
 71
0
 42
2.5
  3
txt
  4

  0
ENDTAB
  0
TABLE
  2
VIEW
  5
7
330
0
100
AcDbSymbolTable
 70
0
  0
ENDTAB
  0
TABLE
  2
UCS
  5
6
330
0
100
AcDbSymbolTable
 70
0
  0
ENDTAB
  0
TABLE
  2
APPID
  5
3
330
0
100
AcDbSymbolTable
 70
3
  0
APPID
  5
2A
330
3
100
AcDbSymbolTableRecord
100
AcDbRegAppTableRecord
  2
ACAD
 70
0
  0
APPID
  5
306
330
3
100
AcDbSymbolTableRecord
100
AcDbRegAppTableRecord
  2
HATCHBACKGROUNDCOLOR
 70
0
  0
APPID
  5
307
330
3
100
AcDbSymbolTableRecord
100
AcDbRegAppTableRecord
  2
EZDXF
 70
0
  0
ENDTAB
  0
TABLE
  2
DIMSTYLE
  5
4
330
0
100
AcDbSymbolTable
 70
1
100
AcDbDimStyleTable
  0
DIMSTYLE
105
2B
330
4
100
AcDbSymbolTableRecord
100
AcDbDimStyleTableRecord
  2
Standard
 70
0
 40
1.0
 41
2.5
 42
0.625
 43
3.75
 44
1.25
 45
0.0
 46
0.0
 47
0.0
 48
0.0
 49
2.5
140
2.5
141
2.5
142
0.0
143
0.03937007874
144
1.0
145
0.0
146
1.0
147
0.625
148
0.0
 69
0
 70
0
 71
0
 72
0
 73
0
 74
0
 75
0
 76
0
 77
1
 78
8
 79
3
170
0
171
3
172
1
173
0
174
0
175
0
176
0
177
0
178
0
179
2
271
2
272
2
273
2
274
3
275
0
276
0
277
2
278
44
279
0
280
0
281
0
282
0
283
0
284
8
285
0
286
0
288
0
289
3
290
0
371
-2
372
-2
  0
ENDTAB
  0
TABLE
  2
BLOCK_RECORD
  5
9
330
0
100
AcDbSymbolTable
 70
2
  0
BLOCK_RECORD
  5
17
330
9
100
AcDbSymbolTableRecord
100
AcDbBlockTableRecord
  2
*Model_Space
340
1A
 70
0
280
1
281
0
  0
BLOCK_RECORD
  5
1B
330
9
100
AcDbSymbolTableRecord
100
AcDbBlockTableRecord
  2
*Paper_Space
340
1E
 70
0
280
1
281
0
  0
ENDTAB
  0
ENDSEC
  0
SECTION
  2
BLOCKS
  0
BLOCK
  5
18
330
17
100
AcDbEntity
  8
0
100
AcDbBlockBegin
  2
*Model_Space
 70
0
 10
0.0
 20
0.0
 30
0.0
  3
*Model_Space
  1

  0
ENDBLK
  5
19
330
17
100
AcDbEntity
  8
0
100
AcDbBlockEnd
  0
BLOCK
  5
1C
330
1B
100
AcDbEntity
  8
0
100
AcDbBlockBegin
  2
*Paper_Space
 70
0
 10
0.0
 20
0.0
 30
0.0
  3
*Paper_Space
  1

  0
ENDBLK
  5
1D
330
1B
100
AcDbEntity
  8
0
100
AcDbBlockEnd
  0
ENDSEC
  0
SECTION
  2
ENTITIES
  0
LINE
  5
42
330
17
100
AcDbEntity
  8
0
 62
7
370
25
100
AcDbLine
 10
3359.6685354388
 20
12130.09451909486
 30
0.0
 11
3359.6685354388
 21
12118.09451909486
 31
0.0
  0
LINE
  5
43
330
17
100
AcDbEntity
  8
0
 62
7
370
25
100
AcDbLine
 10
3495.668535438829
 20
12127.09451909487
 30
0.0
 11
3495.668535438829
 21
12121.09451909487
 31
0.0
  0
LINE
  5
44
330
17
100
AcDbEntity
  8
0
 62
7
370
25
100
AcDbLine
 10
3493.668535438828
 20
12130.09451909487
 30
0.0
 11
3493.668535438828
 21
12118.09451909487
 31
0.0
  0
LINE
  5
45
330
17
100
AcDbEntity
  8
0
 62
7
370
25
100
AcDbLine
 10
3493.668535438828
 20
12121.09451909487
 30
0.0
 11
3495.668535438829
 21
12121.09451909487
 31
0.0
  0
LINE
  5
46
330
17
100
AcDbEntity
  8
0
 62
7
370
25
100
AcDbLine
 10
3359.6685354388
 20
12118.09451909486
 30
0.0
 11
3389.668535438799
 21
12118.09451909486
 31
0.0
  0
LINE
  5
47
330
17
100
AcDbEntity
  8
0
 62
7
370
25
100
AcDbLine
 10
3463.668535438829
 20
12123.09451909487
 30
0.0
 11
3493.668535438828
 21
12123.09451909487
 31
0.0
  0
LINE
  5
48
330
17
100
AcDbEntity
  8
0
 62
7
370
25
100
AcDbLine
 10
3463.668535438829
 20
12125.09451909487
 30
0.0
 11
3493.668535438828
 21
12125.09451909487
 31
0.0
  0
LINE
  5
49
330
17
100
AcDbEntity
  8
TENSOR
 62
3
370
25
100
AcDbLine
 10
3498.668535438829
 20
12124.09451909486
 30
0.0
 11
3354.365241260701
 21
12124.09451909486
 31
0.0
  0
LINE
  5
4A
330
17
100
AcDbEntity
  8
0
 62
7
370
25
100
AcDbLine
 10
3493.668535438828
 20
12127.09451909487
 30
0.0
 11
3495.668535438829
 21
12127.09451909487
 31
0.0
  0
LINE
  5
4B
330
17
100
AcDbEntity
  8
0
 62
7
370
25
100
AcDbLine
 10
3389.668535438799
 20
12123.09451909486
 30
0.0
 11
3359.6685354388
 21
12123.09451909486
 31
0.0
  0
LINE
  5
4C
330
17
100
AcDbEntity
  8
0
 62
7
370
25
100
AcDbLine
 10
3389.668535438799
 20
12125.09451909486
 30
0.0
 11
3359.6685354388
 21
12125.09451909486
 31
0.0
  0
LINE
  5
4D
330
17
100
AcDbEntity
  8
0
 62
7
370
25
100
AcDbLine
 10
3359.6685354388
 20
12130.09451909486
 30
0.0
 11
3389.668535438799
 21
12130.09451909486
 31
0.0
  0
LINE
  5
4E
330
17
100
AcDbEntity
  8
0
 62
7
370
25
100
AcDbLine
 10
3493.668535438828
 20
12118.09451909487
 30
0.0
 11
3463.668535438829
 21
12118.09451909487
 31
0.0
  0
LINE
  5
4F
330
17
100
AcDbEntity
  8
0
 62
7
370
25
100
AcDbLine
 10
3493.668535438828
 20
12130.09451909487
 30
0.0
 11
3463.668535438829
 21
12130.09451909487
 31
0.0
  0
LINE
  5
50
330
17
100
AcDbEntity
  8
0
 62
7
370
25
100
AcDbLine
 10
3357.668535438799
 20
12127.09451909486
 30
0.0
 11
3357.668535438799
 21
12121.09451909486
 31
0.0
  0
LINE
  5
51
330
17
100
AcDbEntity
  8
0
 62
7
370
25
100
AcDbLine
 10
3359.6685354388
 20
12121.09451909486
 30
0.0
 11
3357.668535438799
 21
12121.09451909486
 31
0.0
  0
LINE
  5
52
330
17
100
AcDbEntity
  8
0
 62
7
370
25
100
AcDbLine
 10
3357.668535438799
 20
12127.09451909486
 30
0.0
 11
3359.6685354388
 21
12127.09451909486
 31
0.0
  0
LINE
  5
53
330
17
100
AcDbEntity
  8
COTA
 62
241
370
25
100
AcDbLine
 10
3623.904161433744
 20
12298.10992914499
 30
0.0
 11
3925.904161433744
 21
12298.10992914502
 31
0.0
  0
LINE
  5
54
330
17
100
AcDbEntity
  8
SARR_2.2x7
 62
40
370
25
100
AcDbLine
 10
3638.904161433745
 20
12278.909929145
 30
0.0
 11
3679.904161433745
 21
12278.90992914501
 31
0.0
  0
LINE
  5
55
330
17
100
AcDbEntity
  8
SARR_2.2x7
 62
40
370
25
100
AcDbLine
 10
3679.904161433745
 20
12278.90992914501
 30
0.0
 11
3908.904161433745
 21
12278.90992914502
 31
0.0
  0
LINE
  5
56
330
17
100
AcDbEntity
  8
COTA
 62
241
370
25
100
AcDbLine
 10
3623.904161433745
 20
12281.10992914499
 30
0.0
 11
3623.904161433744
 21
12298.10992914499
 31
0.0
  0
LINE
  5
57
330
17
100
AcDbEntity
  8
SARR_2.2x7
 62
40
370
25
100
AcDbLine
 10
3630.904161433747
 20
12234.10992914499
 30
0.0
 11
3630.904161433745
 21
12281.10992914499
 31
0.0
  0
LINE
  5
58
330
17
100
AcDbEntity
  8
SARR_2.2x7
 62
40
370
25
100
AcDbLine
 10
3916.904161433747
 20
12234.10992914502
 30
0.0
 11
3916.904161433745
 21
12281.10992914502
 31
0.0
  0
LINE
  5
59
330
17
100
AcDbEntity
  8
COTA
 62
241
370
25
100
AcDbLine
 10
3925.904161433744
 20
12281.10992914502
 30
0.0
 11
3925.904161433744
 21
12298.10992914502
 31
0.0
  0
LINE
  5
5A
330
17
100
AcDbEntity
  8
SARR_3.5x7
 62
81
370
25
100
AcDbLine
 10
3908.904161433745
 20
12281.10992914506
 30
0.0
 11
3908.90416143366
 21
12234.10992914502
 31
0.0
  0
LINE
  5
5B
330
17
100
AcDbEntity
  8
SARR_3.5x7
 62
81
370
25
100
AcDbLine
 10
3905.404161433745
 20
12278.90992914506
 30
0.0
 11
3905.404161433719
 21
12234.10992914502
 31
0.0
  0
LINE
  5
5C
330
17
100
AcDbEntity
  8
SARR_3.5x7
 62
81
370
25
100
AcDbLine
 10
3683.404161433774
 20
12278.90992914505
 30
0.0
 11
3683.404161433806
 21
12234.10992914501
 31
0.0
  0
LINE
  5
5D
330
17
100
AcDbEntity
  8
SARR_3.5x7
 62
81
370
25
100
AcDbLine
 10
3676.404161433687
 20
12278.90992914511
 30
0.0
 11
3676.404161433661
 21
12234.10992914501
 31
0.0
  0
LINE
  5
5E
330
17
100
AcDbEntity
  8
SARR_3.5x7
 62
81
370
25
100
AcDbLine
 10
3638.904161433745
 20
12281.10992914501
 30
0.0
 11
3638.904161433748
 21
12234.10992914499
 31
0.0
  0
LINE
  5
5F
330
17
100
AcDbEntity
  8
SARR_3.5x7
 62
81
370
25
100
AcDbLine
 10
3642.404161433745
 20
12278.90992914501
 30
0.0
 11
3642.404161433748
 21
12234.10992914499
 31
0.0
  0
LINE
  5
60
330
17
100
AcDbEntity
  8
SARR_3.5x7
 62
81
370
25
100
AcDbLine
 10
3679.904161433745
 20
12278.90992914501
 30
0.0
 11
3679.904161433748
 21
12234.10992914502
 31
0.0
  0
LINE
  5
61
330
17
100
AcDbEntity
  8
SARR_3.5x7
 62
81
370
25
100
AcDbLine
 10
3676.404161433661
 20
12234.10992914501
 30
0.0
 11
3679.904161433748
 21
12234.10992914501
 31
0.0
  0
LINE
  5
62
330
17
100
AcDbEntity
  8
SARR_3.5x7
 62
81
370
25
100
AcDbLine
 10
3679.904161433748
 20
12234.10992914501
 30
0.0
 11
3683.404161433806
 21
12234.10992914501
 31
0.0
  0
LINE
  5
63
330
17
100
AcDbEntity
  8
SARR_3.5x7
 62
81
370
25
100
AcDbLine
 10
3905.404161433719
 20
12234.10992914502
 30
0.0
 11
3908.90416143366
 21
12234.10992914502
 31
0.0
  0
LINE
  5
64
330
17
100
AcDbEntity
  8
SARR_3.5x7
 62
81
370
25
100
AcDbLine
 10
3638.904161433748
 20
12234.10992914499
 30
0.0
 11
3642.404161433748
 21
12234.10992914499
 31
0.0
  0
LINE
  5
65
330
17
100
AcDbEntity
  8
Painéis
 62
200
370
25
100
AcDbLine
 10
3623.904161433745
 20
12281.10992914499
 30
0.0
 11
3925.904161433744
 21
12281.10992914502
 31
0.0
  0
LINE
  5
66
330
17
100
AcDbEntity
  8
Painéis
 62
200
370
25
100
AcDbLine
 10
3623.904161433748
 20
12234.10992914499
 30
0.0
 11
3925.904161433748
 21
12234.10992914502
 31
0.0
  0
LINE
  5
67
330
17
100
AcDbEntity
  8
Painéis
 62
200
370
25
100
AcDbLine
 10
3623.904161433748
 20
12234.10992914499
 30
0.0
 11
3623.904161433745
 21
12281.10992914499
 31
0.0
  0
LINE
  5
68
330
17
100
AcDbEntity
  8
Painéis
 62
200
370
25
100
AcDbLine
 10
3679.904161433748
 20
12234.10992914501
 30
0.0
 11
3679.904161433745
 21
12281.10992914501
 31
0.0
  0
LINE
  5
69
330
17
100
AcDbEntity
  8
Painéis
 62
200
370
25
100
AcDbLine
 10
3925.904161433748
 20
12234.10992914502
 30
0.0
 11
3925.904161433744
 21
12281.10992914502
 31
0.0
  0
LINE
  5
6A
330
17
100
AcDbEntity
  8
Painéis
 62
200
370
25
100
AcDbLine
 10
3923.904161433748
 20
12234.10992914502
 30
0.0
 11
3923.904161433745
 21
12281.10992914502
 31
0.0
  0
LINE
  5
6B
330
17
100
AcDbEntity
  8
SARR_3.5x7
 62
81
370
25
100
AcDbLine
 10
3657.654161433715
 20
12278.909929145
 30
0.0
 11
3657.654161433719
 21
12234.10992914498
 31
0.0
  0
LINE
  5
6C
330
17
100
AcDbEntity
  8
SARR_3.5x7
 62
81
370
25
100
AcDbLine
 10
3661.154161433716
 20
12278.90992914499
 30
0.0
 11
3661.154161433719
 21
12234.10992914498
 31
0.0
  0
LINE
  5
6D
330
17
100
AcDbEntity
  8
Painéis
 62
200
370
25
100
AcDbLine
 10
3403.632364449464
 20
11719.09818591787
 30
0.0
 11
3333.777346333382
 21
11719.09818591787
 31
0.0
  0
LINE
  5
6E
330
17
100
AcDbEntity
  8
Painéis
 62
200
370
25
100
AcDbLine
 10
3403.632364449464
 20
11715.49818591788
 30
0.0
 11
3333.793508109995
 21
11715.49818591787
 31
0.0
  0
LINE
  5
6F
330
17
100
AcDbEntity
  8
NOMENCLATURA
 62
7
370
25
100
AcDbLine
 10
4005.336510004632
 20
12163.78902395027
 30
0.0
 11
3936.102162788997
 21
12163.78902395027
 31
0.0
  0
LINE
  5
70
330
17
100
AcDbEntity
  8
NOMENCLATURA
 62
7
370
25
100
AcDbLine
 10
3936.102162788997
 20
12163.78902395027
 30
0.0
 11
3936.102162788997
 21
12214.17575978161
 31
0.0
  0
LINE
  5
71
330
17
100
AcDbEntity
  8
COTA
 62
241
370
25
100
AcDbLine
 10
4102.534511359881
 20
12281.10992914501
 30
0.0
 11
4102.534511359881
 21
12298.10992914501
 31
0.0
  0
LINE
  5
72
330
17
100
AcDbEntity
  8
COTA
 62
241
370
25
100
AcDbLine
 10
4102.534511359881
 20
12298.10992914501
 30
0.0
 11
4015.534511359881
 21
12298.10992914501
 31
0.0
  0
LINE
  5
73
330
17
100
AcDbEntity
  8
COTA
 62
241
370
25
100
AcDbLine
 10
4015.534511359881
 20
12298.10992914501
 30
0.0
 11
4015.534511359881
 21
12281.10992914501
 31
0.0
  0
LINE
  5
74
330
17
100
AcDbEntity
  8
SARR_2.2x7
 62
40
370
25
100
AcDbLine
 10
4032.534511359886
 20
12278.90992914495
 30
0.0
 11
4087.534511359882
 21
12278.90992914501
 31
0.0
  0
LINE
  5
75
330
17
100
AcDbEntity
  8
SARR_2.2x7
 62
40
370
25
100
AcDbLine
 10
4095.534511359882
 20
12234.10992914501
 30
0.0
 11
4095.534511359882
 21
12281.10992914501
 31
0.0
  0
LINE
  5
76
330
17
100
AcDbEntity
  8
SARR_3.5x7
 62
81
370
25
100
AcDbLine
 10
4087.534511359882
 20
12281.10992914505
 30
0.0
 11
4087.534511359794
 21
12234.10992914501
 31
0.0
  0
LINE
  5
77
330
17
100
AcDbEntity
  8
SARR_3.5x7
 62
81
370
25
100
AcDbLine
 10
4084.034511359881
 20
12278.90992914506
 30
0.0
 11
4084.034511359852
 21
12234.10992914501
 31
0.0
  0
LINE
  5
78
330
17
100
AcDbEntity
  8
SARR_2.2x7
 62
40
370
25
100
AcDbLine
 10
4024.534511359881
 20
12234.10992914501
 30
0.0
 11
4024.534511359881
 21
12281.10992914501
 31
0.0
  0
LINE
  5
79
330
17
100
AcDbEntity
  8
SARR_3.5x7
 62
81
370
25
100
AcDbLine
 10
4032.534511359881
 20
12281.10992914505
 30
0.0
 11
4032.534511359968
 21
12234.10992914501
 31
0.0
  0
LINE
  5
7A
330
17
100
AcDbEntity
  8
SARR_3.5x7
 62
81
370
25
100
AcDbLine
 10
4036.034511359882
 20
12278.90992914506
 30
0.0
 11
4036.03451135991
 21
12234.10992914501
 31
0.0
  0
LINE
  5
7B
330
17
100
AcDbEntity
  8
Painéis
 62
200
370
25
100
AcDbLine
 10
4017.534511359881
 20
12281.10992914501
 30
0.0
 11
4017.534511359881
 21
12234.10992914501
 31
0.0
  0
LINE
  5
7C
330
17
100
AcDbEntity
  8
NOMENCLATURA
 62
7
370
25
100
AcDbLine
 10
4005.336510004632
 20
12163.78902395027
 30
0.0
 11
4005.336510004632
 21
12214.17575978161
 31
0.0
  0
LINE
  5
7D
330
17
100
AcDbEntity
  8
SARR_3.5x7
 62
81
370
25
100
AcDbLine
 10
4058.284511359881
 20
12278.90992914515
 30
0.0
 11
4058.284511359884
 21
12234.10992914513
 31
0.0
  0
LINE
  5
7E
330
17
100
AcDbEntity
  8
SARR_3.5x7
 62
81
370
25
100
AcDbLine
 10
4061.784511359881
 20
12278.90992914514
 30
0.0
 11
4061.784511359884
 21
12234.10992914513
 31
0.0
  0
LINE
  5
7F
330
17
100
AcDbEntity
  8
SARR_2.2x7
 62
40
370
25
100
AcDbLine
 10
4191.810881875682
 20
12281.90992914502
 30
0.0
 11
4298.810881875683
 21
12281.90992914502
 31
0.0
  0
LINE
  5
80
330
17
100
AcDbEntity
  8
SARR_2.2x7
 62
40
370
25
100
AcDbLine
 10
4298.810881875683
 20
12281.90992914502
 30
0.0
 11
4381.810881875682
 21
12281.90992914502
 31
0.0
  0
LINE
  5
81
330
17
100
AcDbEntity
  8
SARR_2.2x7
 62
40
370
25
100
AcDbLine
 10
4183.810881875682
 20
12234.10992914502
 30
0.0
 11
4183.810881875682
 21
12284.10992914501
 31
0.0
  0
LINE
  5
82
330
17
100
AcDbEntity
  8
SARR_2.2x7
 62
40
370
25
100
AcDbLine
 10
4389.810881875683
 20
12234.10992914502
 30
0.0
 11
4389.810881875683
 21
12284.10992914501
 31
0.0
  0
LINE
  5
83
330
17
100
AcDbEntity
  8
SARR_3.5x7
 62
81
370
25
100
AcDbLine
 10
4381.810881875682
 20
12284.10992914506
 30
0.0
 11
4381.810881875595
 21
12234.10992914502
 31
0.0
  0
LINE
  5
84
330
17
100
AcDbEntity
  8
SARR_3.5x7
 62
81
370
25
100
AcDbLine
 10
4378.310881875683
 20
12281.90992914506
 30
0.0
 11
4378.310881875654
 21
12234.10992914502
 31
0.0
  0
LINE
  5
85
330
17
100
AcDbEntity
  8
SARR_3.5x7
 62
81
370
25
100
AcDbLine
 10
4302.310881875711
 20
12281.90992914506
 30
0.0
 11
4302.31088187574
 21
12234.10992914502
 31
0.0
  0
LINE
  5
86
330
17
100
AcDbEntity
  8
SARR_3.5x7
 62
81
370
25
100
AcDbLine
 10
4295.310881875624
 20
12281.90992914512
 30
0.0
 11
4295.310881875596
 21
12234.10992914502
 31
0.0
  0
LINE
  5
87
330
17
100
AcDbEntity
  8
SARR_3.5x7
 62
81
370
25
100
AcDbLine
 10
4191.810881875682
 20
12284.10992914503
 30
0.0
 11
4191.810881875682
 21
12234.10992914502
 31
0.0
  0
LINE
  5
88
330
17
100
AcDbEntity
  8
SARR_3.5x7
 62
81
370
25
100
AcDbLine
 10
4195.310881875683
 20
12281.90992914503
 30
0.0
 11
4195.310881875683
 21
12234.10992914502
 31
0.0
  0
LINE
  5
89
330
17
100
AcDbEntity
  8
SARR_3.5x7
 62
81
370
25
100
AcDbLine
 10
4298.810881875683
 20
12281.90992914502
 30
0.0
 11
4298.810881875683
 21
12234.10992914503
 31
0.0
  0
LINE
  5
8A
330
17
100
AcDbEntity
  8
SARR_3.5x7
 62
81
370
25
100
AcDbLine
 10
4295.310881875596
 20
12234.10992914502
 30
0.0
 11
4298.810881875683
 21
12234.10992914502
 31
0.0
  0
LINE
  5
8B
330
17
100
AcDbEntity
  8
SARR_3.5x7
 62
81
370
25
100
AcDbLine
 10
4298.810881875683
 20
12234.10992914502
 30
0.0
 11
4302.31088187574
 21
12234.10992914502
 31
0.0
  0
LINE
  5
8C
330
17
100
AcDbEntity
  8
SARR_3.5x7
 62
81
370
25
100
AcDbLine
 10
4378.310881875654
 20
12234.10992914502
 30
0.0
 11
4381.810881875595
 21
12234.10992914502
 31
0.0
  0
LINE
  5
8D
330
17
100
AcDbEntity
  8
SARR_3.5x7
 62
81
370
25
100
AcDbLine
 10
4191.810881875682
 20
12234.10992914502
 30
0.0
 11
4195.310881875683
 21
12234.10992914502
 31
0.0
  0
LINE
  5
8E
330
17
100
AcDbEntity
  8
Painéis
 62
200
370
25
100
AcDbLine
 10
4176.810881875683
 20
12284.10992914501
 30
0.0
 11
4396.810881875683
 21
12284.10992914501
 31
0.0
  0
LINE
  5
8F
330
17
100
AcDbEntity
  8
Painéis
 62
200
370
25
100
AcDbLine
 10
4176.810881875683
 20
12234.10992914502
 30
0.0
 11
4396.810881875683
 21
12234.10992914502
 31
0.0
  0
LINE
  5
90
330
17
100
AcDbEntity
  8
Painéis
 62
200
370
25
100
AcDbLine
 10
4176.810881875683
 20
12234.10992914502
 30
0.0
 11
4176.810881875683
 21
12284.10992914501
 31
0.0
  0
LINE
  5
91
330
17
100
AcDbEntity
  8
Painéis
 62
200
370
25
100
AcDbLine
 10
4298.810881875683
 20
12234.10992914502
 30
0.0
 11
4298.810881875683
 21
12284.10992914501
 31
0.0
  0
LINE
  5
92
330
17
100
AcDbEntity
  8
Painéis
 62
200
370
25
100
AcDbLine
 10
4396.810881875683
 20
12234.10992914502
 30
0.0
 11
4396.810881875683
 21
12284.10992914501
 31
0.0
  0
LINE
  5
93
330
17
100
AcDbEntity
  8
COTA
 62
241
370
25
100
AcDbLine
 10
4396.810881875683
 20
12284.10992914501
 30
0.0
 11
4396.810881875683
 21
12298.10992914502
 31
0.0
  0
LINE
  5
94
330
17
100
AcDbEntity
  8
COTA
 62
241
370
25
100
AcDbLine
 10
4396.810881875683
 20
12298.10992914502
 30
0.0
 11
4176.810881875683
 21
12298.10992914501
 31
0.0
  0
LINE
  5
95
330
17
100
AcDbEntity
  8
COTA
 62
241
370
25
100
AcDbLine
 10
4176.810881875683
 20
12298.10992914501
 30
0.0
 11
4176.810881875683
 21
12284.10992914501
 31
0.0
  0
LINE
  5
96
330
17
100
AcDbEntity
  8
COTA
 62
241
370
25
100
AcDbLine
 10
4011.904161433752
 20
12110.34048383728
 30
0.0
 11
3613.904161433751
 21
12110.3404838373
 31
0.0
  0
LINE
  5
97
330
17
100
AcDbEntity
  8
SARR_2.2x7
 62
40
370
25
100
AcDbLine
 10
3996.90416143375
 20
12092.14048383728
 30
0.0
 11
3767.90416143375
 21
12092.1404838373
 31
0.0
  0
LINE
  5
98
330
17
100
AcDbEntity
  8
SARR_2.2x7
 62
40
370
25
100
AcDbLine
 10
3767.90416143375
 20
12092.1404838373
 30
0.0
 11
3630.90416143375
 21
12092.14048383731
 31
0.0
  0
LINE
  5
99
330
17
100
AcDbEntity
  8
COTA
 62
241
370
25
100
AcDbLine
 10
4011.90416143375
 20
12094.34048383728
 30
0.0
 11
4011.904161433752
 21
12110.34048383728
 31
0.0
  0
LINE
  5
9A
330
17
100
AcDbEntity
  8
SARR_2.2x7
 62
40
370
25
100
AcDbLine
 10
4004.904161433747
 20
12046.34048383728
 30
0.0
 11
4004.90416143375
 21
12094.34048383728
 31
0.0
  0
LINE
  5
9B
330
17
100
AcDbEntity
  8
SARR_2.2x7
 62
40
370
25
100
AcDbLine
 10
3622.904161433748
 20
12046.34048383731
 30
0.0
 11
3622.904161433751
 21
12094.3404838373
 31
0.0
  0
LINE
  5
9C
330
17
100
AcDbEntity
  8
COTA
 62
241
370
25
100
AcDbLine
 10
3613.904161433751
 20
12094.3404838373
 30
0.0
 11
3613.904161433751
 21
12110.3404838373
 31
0.0
  0
LINE
  5
9D
330
17
100
AcDbEntity
  8
SARR_3.5x7
 62
81
370
25
100
AcDbLine
 10
3630.904161433751
 20
12094.34048383735
 30
0.0
 11
3630.904161433835
 21
12046.34048383731
 31
0.0
  0
LINE
  5
9E
330
17
100
AcDbEntity
  8
SARR_3.5x7
 62
81
370
25
100
AcDbLine
 10
3634.404161433751
 20
12092.14048383735
 30
0.0
 11
3634.404161433777
 21
12046.34048383731
 31
0.0
  0
LINE
  5
9F
330
17
100
AcDbEntity
  8
SARR_3.5x7
 62
81
370
25
100
AcDbLine
 10
3764.404161433721
 20
12092.14048383734
 30
0.0
 11
3764.404161433689
 21
12046.34048383729
 31
0.0
  0
LINE
  5
A0
330
17
100
AcDbEntity
  8
SARR_3.5x7
 62
81
370
25
100
AcDbLine
 10
3771.404161433809
 20
12092.1404838374
 30
0.0
 11
3771.404161433835
 21
12046.34048383729
 31
0.0
  0
LINE
  5
A1
330
17
100
AcDbEntity
  8
SARR_3.5x7
 62
81
370
25
100
AcDbLine
 10
3996.90416143375
 20
12094.34048383729
 30
0.0
 11
3996.904161433748
 21
12046.34048383728
 31
0.0
  0
LINE
  5
A2
330
17
100
AcDbEntity
  8
SARR_3.5x7
 62
81
370
25
100
AcDbLine
 10
3993.40416143375
 20
12092.1404838373
 30
0.0
 11
3993.404161433748
 21
12046.34048383728
 31
0.0
  0
LINE
  5
A3
330
17
100
AcDbEntity
  8
SARR_3.5x7
 62
81
370
25
100
AcDbLine
 10
3767.90416143375
 20
12092.1404838373
 30
0.0
 11
3767.904161433748
 21
12046.34048383731
 31
0.0
  0
LINE
  5
A4
330
17
100
AcDbEntity
  8
SARR_3.5x7
 62
81
370
25
100
AcDbLine
 10
3771.404161433835
 20
12046.34048383729
 30
0.0
 11
3767.904161433748
 21
12046.34048383729
 31
0.0
  0
LINE
  5
A5
330
17
100
AcDbEntity
  8
SARR_3.5x7
 62
81
370
25
100
AcDbLine
 10
3767.904161433748
 20
12046.34048383729
 30
0.0
 11
3764.404161433689
 21
12046.34048383729
 31
0.0
  0
LINE
  5
A6
330
17
100
AcDbEntity
  8
SARR_3.5x7
 62
81
370
25
100
AcDbLine
 10
3634.404161433777
 20
12046.34048383731
 30
0.0
 11
3630.904161433835
 21
12046.34048383731
 31
0.0
  0
LINE
  5
A7
330
17
100
AcDbEntity
  8
SARR_3.5x7
 62
81
370
25
100
AcDbLine
 10
3996.904161433748
 20
12046.34048383728
 30
0.0
 11
3993.404161433748
 21
12046.34048383728
 31
0.0
  0
LINE
  5
A8
330
17
100
AcDbEntity
  8
Painéis
 62
200
370
25
100
AcDbLine
 10
4011.90416143375
 20
12094.34048383728
 30
0.0
 11
3613.904161433751
 21
12094.3404838373
 31
0.0
  0
LINE
  5
A9
330
17
100
AcDbEntity
  8
Painéis
 62
200
370
25
100
AcDbLine
 10
4011.904161433747
 20
12046.34048383728
 30
0.0
 11
3613.904161433748
 21
12046.34048383731
 31
0.0
  0
LINE
  5
AA
330
17
100
AcDbEntity
  8
Painéis
 62
200
370
25
100
AcDbLine
 10
4011.904161433747
 20
12046.34048383728
 30
0.0
 11
4011.90416143375
 21
12094.34048383728
 31
0.0
  0
LINE
  5
AB
330
17
100
AcDbEntity
  8
Painéis
 62
200
370
25
100
AcDbLine
 10
3767.904161433748
 20
12046.34048383729
 30
0.0
 11
3767.904161433751
 21
12094.34048383729
 31
0.0
  0
LINE
  5
AC
330
17
100
AcDbEntity
  8
Painéis
 62
200
370
25
100
AcDbLine
 10
3613.904161433748
 20
12046.34048383731
 30
0.0
 11
3613.904161433751
 21
12094.3404838373
 31
0.0
  0
LINE
  5
AD
330
17
100
AcDbEntity
  8
Painéis
 62
200
370
25
100
AcDbLine
 10
3615.904161433748
 20
12046.34048383731
 30
0.0
 11
3615.904161433751
 21
12094.3404838373
 31
0.0
  0
LINE
  5
AE
330
17
100
AcDbEntity
  8
NOMENCLATURA
 62
7
370
25
100
AcDbLine
 10
3534.471812862863
 20
11965.20979761232
 30
0.0
 11
3603.706160078498
 21
11965.20979761232
 31
0.0
  0
LINE
  5
AF
330
17
100
AcDbEntity
  8
NOMENCLATURA
 62
7
370
25
100
AcDbLine
 10
3603.706160078498
 20
11965.20979761232
 30
0.0
 11
3603.706160078498
 21
12026.40631447389
 31
0.0
  0
LINE
  5
B0
330
17
100
AcDbEntity
  8
COTA
 62
241
370
25
100
AcDbLine
 10
3613.904161433744
 20
11916.10902540148
 30
0.0
 11
4011.904161433743
 21
11916.10902540151
 31
0.0
  0
LINE
  5
B1
330
17
100
AcDbEntity
  8
SARR_2.2x7
 62
40
370
25
100
AcDbLine
 10
3628.904161433745
 20
11899.90902540149
 30
0.0
 11
3857.904161433745
 21
11899.9090254015
 31
0.0
  0
LINE
  5
B2
330
17
100
AcDbEntity
  8
SARR_2.2x7
 62
40
370
25
100
AcDbLine
 10
3857.904161433745
 20
11899.9090254015
 30
0.0
 11
3994.904161433744
 21
11899.90902540151
 31
0.0
  0
LINE
  5
B3
330
17
100
AcDbEntity
  8
COTA
 62
241
370
25
100
AcDbLine
 10
3613.904161433744
 20
11902.10902540148
 30
0.0
 11
3613.904161433744
 21
11916.10902540148
 31
0.0
  0
LINE
  5
B4
330
17
100
AcDbEntity
  8
SARR_2.2x7
 62
40
370
25
100
AcDbLine
 10
3620.904161433748
 20
11852.10902540148
 30
0.0
 11
3620.904161433744
 21
11902.10902540148
 31
0.0
  0
LINE
  5
B5
330
17
100
AcDbEntity
  8
SARR_2.2x7
 62
40
370
25
100
AcDbLine
 10
4002.904161433747
 20
11852.10902540151
 30
0.0
 11
4002.904161433744
 21
11902.10902540151
 31
0.0
  0
LINE
  5
B6
330
17
100
AcDbEntity
  8
COTA
 62
241
370
25
100
AcDbLine
 10
4011.904161433744
 20
11902.10902540151
 30
0.0
 11
4011.904161433743
 21
11916.10902540151
 31
0.0
  0
LINE
  5
B7
330
17
100
AcDbEntity
  8
SARR_3.5x7
 62
81
370
25
100
AcDbLine
 10
3994.904161433744
 20
11902.10902540155
 30
0.0
 11
3994.90416143366
 21
11852.10902540151
 31
0.0
  0
LINE
  5
B8
330
17
100
AcDbEntity
  8
SARR_3.5x7
 62
81
370
25
100
AcDbLine
 10
3991.404161433745
 20
11899.90902540156
 30
0.0
 11
3991.404161433719
 21
11852.10902540151
 31
0.0
  0
LINE
  5
B9
330
17
100
AcDbEntity
  8
SARR_3.5x7
 62
81
370
25
100
AcDbLine
 10
3861.404161433774
 20
11899.90902540154
 30
0.0
 11
3861.404161433806
 21
11852.1090254015
 31
0.0
  0
LINE
  5
BA
330
17
100
AcDbEntity
  8
SARR_3.5x7
 62
81
370
25
100
AcDbLine
 10
3854.404161433687
 20
11899.9090254016
 30
0.0
 11
3854.40416143366
 21
11852.1090254015
 31
0.0
  0
LINE
  5
BB
330
17
100
AcDbEntity
  8
SARR_3.5x7
 62
81
370
25
100
AcDbLine
 10
3628.904161433744
 20
11902.1090254015
 30
0.0
 11
3628.904161433748
 21
11852.10902540148
 31
0.0
  0
LINE
  5
BC
330
17
100
AcDbEntity
  8
SARR_3.5x7
 62
81
370
25
100
AcDbLine
 10
3632.404161433745
 20
11899.9090254015
 30
0.0
 11
3632.404161433747
 21
11852.10902540148
 31
0.0
  0
LINE
  5
BD
330
17
100
AcDbEntity
  8
SARR_3.5x7
 62
81
370
25
100
AcDbLine
 10
3857.904161433745
 20
11899.9090254015
 30
0.0
 11
3857.904161433748
 21
11852.10902540151
 31
0.0
  0
LINE
  5
BE
330
17
100
AcDbEntity
  8
SARR_3.5x7
 62
81
370
25
100
AcDbLine
 10
3854.40416143366
 20
11852.1090254015
 30
0.0
 11
3857.904161433748
 21
11852.1090254015
 31
0.0
  0
LINE
  5
BF
330
17
100
AcDbEntity
  8
SARR_3.5x7
 62
81
370
25
100
AcDbLine
 10
3857.904161433748
 20
11852.1090254015
 30
0.0
 11
3861.404161433806
 21
11852.1090254015
 31
0.0
  0
LINE
  5
C0
330
17
100
AcDbEntity
  8
SARR_3.5x7
 62
81
370
25
100
AcDbLine
 10
3991.404161433719
 20
11852.10902540151
 30
0.0
 11
3994.90416143366
 21
11852.10902540151
 31
0.0
  0
LINE
  5
C1
330
17
100
AcDbEntity
  8
SARR_3.5x7
 62
81
370
25
100
AcDbLine
 10
3628.904161433748
 20
11852.10902540148
 30
0.0
 11
3632.404161433747
 21
11852.10902540148
 31
0.0
  0
LINE
  5
C2
330
17
100
AcDbEntity
  8
Painéis
 62
200
370
25
100
AcDbLine
 10
3613.904161433744
 20
11902.10902540148
 30
0.0
 11
4011.904161433744
 21
11902.10902540151
 31
0.0
  0
LINE
  5
C3
330
17
100
AcDbEntity
  8
Painéis
 62
200
370
25
100
AcDbLine
 10
3613.904161433748
 20
11852.10902540148
 30
0.0
 11
4011.904161433747
 21
11852.10902540151
 31
0.0
  0
LINE
  5
C4
330
17
100
AcDbEntity
  8
Painéis
 62
200
370
25
100
AcDbLine
 10
3613.904161433748
 20
11852.10902540148
 30
0.0
 11
3613.904161433744
 21
11902.10902540148
 31
0.0
  0
LINE
  5
C5
330
17
100
AcDbEntity
  8
Painéis
 62
200
370
25
100
AcDbLine
 10
3857.904161433748
 20
11852.1090254015
 30
0.0
 11
3857.904161433744
 21
11902.1090254015
 31
0.0
  0
LINE
  5
C6
330
17
100
AcDbEntity
  8
Painéis
 62
200
370
25
100
AcDbLine
 10
4011.904161433747
 20
11852.10902540151
 30
0.0
 11
4011.904161433744
 21
11902.10902540151
 31
0.0
  0
LINE
  5
C7
330
17
100
AcDbEntity
  8
Painéis
 62
200
370
25
100
AcDbLine
 10
4009.904161433747
 20
11852.10902540151
 30
0.0
 11
4009.904161433744
 21
11902.10902540151
 31
0.0
  0
LINE
  5
C8
330
17
100
AcDbEntity
  8
NOMENCLATURA
 62
7
370
25
100
AcDbLine
 10
4091.336510004635
 20
11770.97833917653
 30
0.0
 11
4022.102162788996
 21
11770.97833917653
 31
0.0
  0
LINE
  5
C9
330
17
100
AcDbEntity
  8
NOMENCLATURA
 62
7
370
25
100
AcDbLine
 10
4022.102162788996
 20
11770.97833917653
 30
0.0
 11
4022.102162788996
 21
11832.1748560381
 31
0.0
  0
LINE
  5
CA
330
17
100
AcDbEntity
  8
COTA
 62
241
370
25
100
AcDbLine
 10
4261.029511359884
 20
11902.1090254015
 30
0.0
 11
4261.029511359884
 21
11916.1090254015
 31
0.0
  0
LINE
  5
CB
330
17
100
AcDbEntity
  8
COTA
 62
241
370
25
100
AcDbLine
 10
4261.029511359884
 20
11916.1090254015
 30
0.0
 11
4101.534511359884
 21
11916.1090254015
 31
0.0
  0
LINE
  5
CC
330
17
100
AcDbEntity
  8
COTA
 62
241
370
25
100
AcDbLine
 10
4101.534511359884
 20
11916.1090254015
 30
0.0
 11
4101.534511359884
 21
11902.10902540151
 31
0.0
  0
LINE
  5
CD
330
17
100
AcDbEntity
  8
SARR_2.2x7
 62
40
370
25
100
AcDbLine
 10
4118.534511359889
 20
11899.90902540144
 30
0.0
 11
4246.029511359884
 21
11899.9090254015
 31
0.0
  0
LINE
  5
CE
330
17
100
AcDbEntity
  8
SARR_2.2x7
 62
40
370
25
100
AcDbLine
 10
4254.029511359884
 20
11852.1090254015
 30
0.0
 11
4254.029511359884
 21
11902.1090254015
 31
0.0
  0
LINE
  5
CF
330
17
100
AcDbEntity
  8
SARR_3.5x7
 62
81
370
25
100
AcDbLine
 10
4246.029511359884
 20
11902.10902540155
 30
0.0
 11
4246.029511359796
 21
11852.1090254015
 31
0.0
  0
LINE
  5
D0
330
17
100
AcDbEntity
  8
SARR_3.5x7
 62
81
370
25
100
AcDbLine
 10
4242.529511359884
 20
11899.90902540155
 30
0.0
 11
4242.529511359855
 21
11852.1090254015
 31
0.0
  0
LINE
  5
D1
330
17
100
AcDbEntity
  8
SARR_2.2x7
 62
40
370
25
100
AcDbLine
 10
4110.534511359884
 20
11852.1090254015
 30
0.0
 11
4110.534511359884
 21
11902.1090254015
 31
0.0
  0
LINE
  5
D2
330
17
100
AcDbEntity
  8
SARR_3.5x7
 62
81
370
25
100
AcDbLine
 10
4118.534511359884
 20
11902.10902540155
 30
0.0
 11
4118.534511359971
 21
11852.1090254015
 31
0.0
  0
LINE
  5
D3
330
17
100
AcDbEntity
  8
SARR_3.5x7
 62
81
370
25
100
AcDbLine
 10
4122.034511359884
 20
11899.90902540155
 30
0.0
 11
4122.034511359912
 21
11852.1090254015
 31
0.0
  0
LINE
  5
D4
330
17
100
AcDbEntity
  8
Painéis
 62
200
370
25
100
AcDbLine
 10
4103.534511359884
 20
11902.1090254015
 30
0.0
 11
4103.534511359884
 21
11852.1090254015
 31
0.0
  0
LINE
  5
D5
330
17
100
AcDbEntity
  8
NOMENCLATURA
 62
7
370
25
100
AcDbLine
 10
4091.336510004635
 20
11770.97833917653
 30
0.0
 11
4091.336510004635
 21
11832.1748560381
 31
0.0
  0
LINE
  5
D6
330
17
100
AcDbEntity
  8
Painéis
 62
200
370
25
100
AcDbLine
 10
4162.48451135988
 20
11902.1090254015
 30
0.0
 11
4162.48451135988
 21
11852.1090254015
 31
0.0
  0
LINE
  5
D7
330
17
100
AcDbEntity
  8
SARR_3.5x7
 62
81
370
25
100
AcDbLine
 10
4165.984511359904
 20
11899.90902540146
 30
0.0
 11
4165.984511359939
 21
11852.10902540149
 31
0.0
  0
LINE
  5
D8
330
17
100
AcDbEntity
  8
SARR_3.5x7
 62
81
370
25
100
AcDbLine
 10
4158.984511359821
 20
11899.90902540146
 30
0.0
 11
4158.984511359792
 21
11852.10902540149
 31
0.0
  0
LINE
  5
D9
330
17
100
AcDbEntity
  8
SARR_3.5x7
 62
81
370
25
100
AcDbLine
 10
4138.234511359848
 20
11899.90902540145
 30
0.0
 11
4138.234511359851
 21
11852.10902540146
 31
0.0
  0
LINE
  5
DA
330
17
100
AcDbEntity
  8
SARR_3.5x7
 62
81
370
25
100
AcDbLine
 10
4141.734511359849
 20
11899.90902540145
 30
0.0
 11
4141.734511359851
 21
11852.10902540146
 31
0.0
  0
LINE
  5
DB
330
17
100
AcDbEntity
  8
NOMENCLATURA
 62
7
370
25
100
AcDbLine
 10
4520.923586804726
 20
11770.97833917653
 30
0.0
 11
4590.157934020364
 21
11770.97833917653
 31
0.0
  0
LINE
  5
DC
330
17
100
AcDbEntity
  8
COTA
 62
241
370
25
100
AcDbLine
 10
4332.730585449477
 20
11899.1090254015
 30
0.0
 11
4332.730585449477
 21
11916.1090254015
 31
0.0
  0
LINE
  5
DD
330
17
100
AcDbEntity
  8
COTA
 62
241
370
25
100
AcDbLine
 10
4332.730585449477
 20
11916.1090254015
 30
0.0
 11
4510.725585449477
 21
11916.1090254015
 31
0.0
  0
LINE
  5
DE
330
17
100
AcDbEntity
  8
COTA
 62
241
370
25
100
AcDbLine
 10
4510.725585449477
 20
11916.1090254015
 30
0.0
 11
4510.725585449477
 21
11899.10902540151
 31
0.0
  0
LINE
  5
DF
330
17
100
AcDbEntity
  8
SARR_2.2x7
 62
40
370
25
100
AcDbLine
 10
4493.725585449472
 20
11896.90902540144
 30
0.0
 11
4347.730585449477
 21
11896.9090254015
 31
0.0
  0
LINE
  5
E0
330
17
100
AcDbEntity
  8
SARR_2.2x7
 62
40
370
25
100
AcDbLine
 10
4339.730585449477
 20
11852.1090254015
 30
0.0
 11
4339.730585449477
 21
11899.1090254015
 31
0.0
  0
LINE
  5
E1
330
17
100
AcDbEntity
  8
SARR_3.5x7
 62
81
370
25
100
AcDbLine
 10
4347.730585449477
 20
11899.10902540155
 30
0.0
 11
4347.730585449564
 21
11852.1090254015
 31
0.0
  0
LINE
  5
E2
330
17
100
AcDbEntity
  8
SARR_3.5x7
 62
81
370
25
100
AcDbLine
 10
4351.230585449477
 20
11896.90902540155
 30
0.0
 11
4351.230585449505
 21
11852.1090254015
 31
0.0
  0
LINE
  5
E3
330
17
100
AcDbEntity
  8
SARR_2.2x7
 62
40
370
25
100
AcDbLine
 10
4501.725585449476
 20
11852.1090254015
 30
0.0
 11
4501.725585449476
 21
11899.1090254015
 31
0.0
  0
LINE
  5
E4
330
17
100
AcDbEntity
  8
SARR_3.5x7
 62
81
370
25
100
AcDbLine
 10
4493.725585449477
 20
11899.10902540155
 30
0.0
 11
4493.725585449389
 21
11852.1090254015
 31
0.0
  0
LINE
  5
E5
330
17
100
AcDbEntity
  8
SARR_3.5x7
 62
81
370
25
100
AcDbLine
 10
4490.225585449477
 20
11896.90902540155
 30
0.0
 11
4490.225585449447
 21
11852.1090254015
 31
0.0
  0
LINE
  5
E6
330
17
100
AcDbEntity
  8
Painéis
 62
200
370
25
100
AcDbLine
 10
4508.725585449477
 20
11899.1090254015
 30
0.0
 11
4508.725585449477
 21
11852.1090254015
 31
0.0
  0
LINE
  5
E7
330
17
100
AcDbEntity
  8
NOMENCLATURA
 62
7
370
25
100
AcDbLine
 10
4520.923586804726
 20
11770.97833917653
 30
0.0
 11
4520.923586804726
 21
11832.1748560381
 31
0.0
  0
LINE
  5
E8
330
17
100
AcDbEntity
  8
Painéis
 62
200
370
25
100
AcDbLine
 10
4454.775585449481
 20
11899.1090254015
 30
0.0
 11
4454.775585449481
 21
11852.1090254015
 31
0.0
  0
LINE
  5
E9
330
17
100
AcDbEntity
  8
SARR_3.5x7
 62
81
370
25
100
AcDbLine
 10
4451.275585449456
 20
11896.90902540146
 30
0.0
 11
4451.275585449422
 21
11852.10902540149
 31
0.0
  0
LINE
  5
EA
330
17
100
AcDbEntity
  8
SARR_3.5x7
 62
81
370
25
100
AcDbLine
 10
4458.275585449539
 20
11896.90902540146
 30
0.0
 11
4458.275585449568
 21
11852.10902540149
 31
0.0
  0
LINE
  5
EB
330
17
100
AcDbEntity
  8
SARR_3.5x7
 62
81
370
25
100
AcDbLine
 10
4474.025585449513
 20
11896.90902540145
 30
0.0
 11
4474.025585449509
 21
11852.10902540146
 31
0.0
  0
LINE
  5
EC
330
17
100
AcDbEntity
  8
SARR_3.5x7
 62
81
370
25
100
AcDbLine
 10
4470.525585449513
 20
11896.90902540145
 30
0.0
 11
4470.52558544951
 21
11852.10902540146
 31
0.0
  0
LINE
  5
ED
330
17
100
AcDbEntity
  8
COTA
 62
241
370
25
100
AcDbLine
 10
3905.901448981454
 20
11718.52161985289
 30
0.0
 11
3603.901448981453
 21
11718.52161985292
 31
0.0
  0
LINE
  5
EE
330
17
100
AcDbEntity
  8
SARR_2.2x7
 62
40
370
25
100
AcDbLine
 10
3890.901448981452
 20
11699.3216198529
 30
0.0
 11
3849.901448981452
 21
11699.32161985291
 31
0.0
  0
LINE
  5
EF
330
17
100
AcDbEntity
  8
SARR_2.2x7
 62
40
370
25
100
AcDbLine
 10
3849.901448981452
 20
11699.32161985291
 30
0.0
 11
3620.901448981452
 21
11699.32161985292
 31
0.0
  0
LINE
  5
F0
330
17
100
AcDbEntity
  8
COTA
 62
241
370
25
100
AcDbLine
 10
3905.901448981453
 20
11701.5216198529
 30
0.0
 11
3905.901448981454
 21
11718.52161985289
 31
0.0
  0
LINE
  5
F1
330
17
100
AcDbEntity
  8
SARR_2.2x7
 62
40
370
25
100
AcDbLine
 10
3898.90144898145
 20
11654.5216198529
 30
0.0
 11
3898.901448981453
 21
11701.5216198529
 31
0.0
  0
LINE
  5
F2
330
17
100
AcDbEntity
  8
SARR_2.2x7
 62
40
370
25
100
AcDbLine
 10
3612.90144898145
 20
11654.52161985292
 30
0.0
 11
3612.901448981453
 21
11701.52161985292
 31
0.0
  0
LINE
  5
F3
330
17
100
AcDbEntity
  8
COTA
 62
241
370
25
100
AcDbLine
 10
3603.901448981453
 20
11701.52161985292
 30
0.0
 11
3603.901448981453
 21
11718.52161985292
 31
0.0
  0
LINE
  5
F4
330
17
100
AcDbEntity
  8
SARR_3.5x7
 62
81
370
25
100
AcDbLine
 10
3620.901448981453
 20
11701.52161985297
 30
0.0
 11
3620.901448981537
 21
11654.52161985292
 31
0.0
  0
LINE
  5
F5
330
17
100
AcDbEntity
  8
SARR_3.5x7
 62
81
370
25
100
AcDbLine
 10
3624.401448981453
 20
11699.32161985297
 30
0.0
 11
3624.401448981479
 21
11654.52161985292
 31
0.0
  0
LINE
  5
F6
330
17
100
AcDbEntity
  8
SARR_3.5x7
 62
81
370
25
100
AcDbLine
 10
3846.401448981423
 20
11699.32161985296
 30
0.0
 11
3846.401448981391
 21
11654.52161985291
 31
0.0
  0
LINE
  5
F7
330
17
100
AcDbEntity
  8
SARR_3.5x7
 62
81
370
25
100
AcDbLine
 10
3853.401448981511
 20
11699.32161985302
 30
0.0
 11
3853.401448981537
 21
11654.52161985291
 31
0.0
  0
LINE
  5
F8
330
17
100
AcDbEntity
  8
SARR_3.5x7
 62
81
370
25
100
AcDbLine
 10
3890.901448981452
 20
11701.52161985291
 30
0.0
 11
3890.90144898145
 21
11654.5216198529
 31
0.0
  0
LINE
  5
F9
330
17
100
AcDbEntity
  8
SARR_3.5x7
 62
81
370
25
100
AcDbLine
 10
3887.401448981452
 20
11699.32161985291
 30
0.0
 11
3887.401448981449
 21
11654.5216198529
 31
0.0
  0
LINE
  5
FA
330
17
100
AcDbEntity
  8
SARR_3.5x7
 62
81
370
25
100
AcDbLine
 10
3849.901448981452
 20
11699.32161985291
 30
0.0
 11
3849.901448981449
 21
11654.52161985292
 31
0.0
  0
LINE
  5
FB
330
17
100
AcDbEntity
  8
SARR_3.5x7
 62
81
370
25
100
AcDbLine
 10
3853.401448981537
 20
11654.52161985291
 30
0.0
 11
3849.901448981449
 21
11654.52161985291
 31
0.0
  0
LINE
  5
FC
330
17
100
AcDbEntity
  8
SARR_3.5x7
 62
81
370
25
100
AcDbLine
 10
3849.901448981449
 20
11654.52161985291
 30
0.0
 11
3846.401448981391
 21
11654.52161985291
 31
0.0
  0
LINE
  5
FD
330
17
100
AcDbEntity
  8
SARR_3.5x7
 62
81
370
25
100
AcDbLine
 10
3624.401448981479
 20
11654.52161985292
 30
0.0
 11
3620.901448981537
 21
11654.52161985292
 31
0.0
  0
LINE
  5
FE
330
17
100
AcDbEntity
  8
SARR_3.5x7
 62
81
370
25
100
AcDbLine
 10
3890.90144898145
 20
11654.5216198529
 30
0.0
 11
3887.401448981449
 21
11654.5216198529
 31
0.0
  0
LINE
  5
FF
330
17
100
AcDbEntity
  8
Painéis
 62
200
370
25
100
AcDbLine
 10
3905.901448981453
 20
11701.5216198529
 30
0.0
 11
3603.901448981453
 21
11701.52161985292
 31
0.0
  0
LINE
  5
100
330
17
100
AcDbEntity
  8
Painéis
 62
200
370
25
100
AcDbLine
 10
3905.901448981449
 20
11654.5216198529
 30
0.0
 11
3603.90144898145
 21
11654.52161985292
 31
0.0
  0
LINE
  5
101
330
17
100
AcDbEntity
  8
Painéis
 62
200
370
25
100
AcDbLine
 10
3905.901448981449
 20
11654.5216198529
 30
0.0
 11
3905.901448981453
 21
11701.5216198529
 31
0.0
  0
LINE
  5
102
330
17
100
AcDbEntity
  8
Painéis
 62
200
370
25
100
AcDbLine
 10
3849.901448981449
 20
11654.52161985291
 30
0.0
 11
3849.901448981453
 21
11701.52161985291
 31
0.0
  0
LINE
  5
103
330
17
100
AcDbEntity
  8
Painéis
 62
200
370
25
100
AcDbLine
 10
3603.90144898145
 20
11654.52161985292
 30
0.0
 11
3603.901448981453
 21
11701.52161985292
 31
0.0
  0
LINE
  5
104
330
17
100
AcDbEntity
  8
Painéis
 62
200
370
25
100
AcDbLine
 10
3605.90144898145
 20
11654.52161985292
 30
0.0
 11
3605.901448981453
 21
11701.52161985292
 31
0.0
  0
LINE
  5
105
330
17
100
AcDbEntity
  8
SARR_3.5x7
 62
81
370
25
100
AcDbLine
 10
3872.151448981482
 20
11699.3216198529
 30
0.0
 11
3872.151448981479
 21
11654.52161985288
 31
0.0
  0
LINE
  5
106
330
17
100
AcDbEntity
  8
SARR_3.5x7
 62
81
370
25
100
AcDbLine
 10
3868.651448981481
 20
11699.3216198529
 30
0.0
 11
3868.651448981479
 21
11654.52161985288
 31
0.0
  0
LINE
  5
107
330
17
100
AcDbEntity
  8
NOMENCLATURA
 62
7
370
25
100
AcDbLine
 10
3593.7034476262
 20
11584.20071465817
 30
0.0
 11
3593.7034476262
 21
11634.58745048951
 31
0.0
  0
LINE
  5
108
330
17
100
AcDbEntity
  8
COTA
 62
4
370
25
100
AcDbLine
 10
3508.668535438801
 20
12202.12446156656
 30
0.0
 11
3525.540268196683
 21
12202.12446156656
 31
0.0
  0
LINE
  5
109
330
17
100
AcDbEntity
  8
COTA
 62
4
370
25
100
AcDbLine
 10
3508.668535438801
 20
12174.12446156655
 30
0.0
 11
3525.540268196683
 21
12174.12446156655
 31
0.0
  0
LINE
  5
10A
330
17
100
AcDbEntity
  8
COTA
 62
4
370
25
100
AcDbLine
 10
3522.540268196683
 20
12202.12446156656
 30
0.0
 11
3522.540268196683
 21
12174.12446156655
 31
0.0
  0
LINE
  5
10B
330
17
100
AcDbEntity
  8
COTA
 62
4
370
25
100
AcDbLine
 10
3371.068535438853
 20
12074.12446156657
 30
0.0
 11
3296.691812349595
 21
12074.12446156657
 31
0.0
  0
LINE
  5
10C
330
17
100
AcDbEntity
  8
COTA
 62
4
370
25
100
AcDbLine
 10
3349.068535438853
 20
12202.12446156656
 30
0.0
 11
3296.691812349595
 21
12202.12446156656
 31
0.0
  0
LINE
  5
10D
330
17
100
AcDbEntity
  8
COTA
 62
4
370
25
100
AcDbLine
 10
3299.691812349595
 20
12074.12446156657
 30
0.0
 11
3299.691812349595
 21
12202.12446156656
 31
0.0
  0
LINE
  5
10E
330
17
100
AcDbEntity
  8
COTA
 62
4
370
25
100
AcDbLine
 10
3482.268535438836
 20
12074.12446156657
 30
0.0
 11
3525.540268197099
 21
12074.12446156657
 31
0.0
  0
LINE
  5
10F
330
17
100
AcDbEntity
  8
COTA
 62
4
370
25
100
AcDbLine
 10
3508.668535438801
 20
12170.12446156655
 30
0.0
 11
3525.540268197099
 21
12170.12446156655
 31
0.0
  0
LINE
  5
110
330
17
100
AcDbEntity
  8
COTA
 62
4
370
25
100
AcDbLine
 10
3522.540268197098
 20
12074.12446156657
 30
0.0
 11
3522.540268197098
 21
12170.12446156655
 31
0.0
  0
LINE
  5
111
330
17
100
AcDbEntity
  8
Cota Seção (2x)
 62
180
370
25
100
AcDbLine
 10
3441.168535440485
 20
12152.62446156653
 30
0.0
 11
3441.168535440485
 21
12171.62446156653
 31
0.0
  0
LINE
  5
112
330
17
100
AcDbEntity
  8
Cota Seção (2x)
 62
180
370
25
100
AcDbLine
 10
3441.168535440485
 20
12171.62446156653
 30
0.0
 11
3426.168535440485
 21
12171.62446156653
 31
0.0
  0
LINE
  5
113
330
17
100
AcDbEntity
  8
Cota Seção (2x)
 62
180
370
25
100
AcDbLine
 10
3426.168535440485
 20
12171.62446156653
 30
0.0
 11
3426.168535440485
 21
12152.62446156653
 31
0.0
  0
LINE
  5
114
330
17
100
AcDbEntity
  8
Cota Seção (2x)
 62
180
370
25
100
AcDbLine
 10
3426.168535440485
 20
12152.62446156653
 30
0.0
 11
3441.168535440485
 21
12152.62446156653
 31
0.0
  0
LINE
  5
115
330
17
100
AcDbEntity
  8
COTA
 62
4
370
25
100
AcDbLine
 10
3349.068535438853
 20
12202.12446156656
 30
0.0
 11
3316.011240835056
 21
12202.12446156656
 31
0.0
  0
LINE
  5
116
330
17
100
AcDbEntity
  8
COTA
 62
4
370
25
100
AcDbLine
 10
3349.068535438853
 20
12174.12446156654
 30
0.0
 11
3316.011240835056
 21
12174.12446156654
 31
0.0
  0
LINE
  5
117
330
17
100
AcDbEntity
  8
COTA
 62
4
370
25
100
AcDbLine
 10
3319.011240835056
 20
12202.12446156656
 30
0.0
 11
3319.011240835056
 21
12174.12446156654
 31
0.0
  0
LINE
  5
118
330
17
100
AcDbEntity
  8
COTA
 62
4
370
25
100
AcDbLine
 10
3349.068535438853
 20
12170.12446156654
 30
0.0
 11
3316.011240835385
 21
12170.12446156654
 31
0.0
  0
LINE
  5
119
330
17
100
AcDbEntity
  8
COTA
 62
4
370
25
100
AcDbLine
 10
3371.068535438853
 20
12074.12446156657
 30
0.0
 11
3316.011240835385
 21
12074.12446156657
 31
0.0
  0
LINE
  5
11A
330
17
100
AcDbEntity
  8
COTA
 62
4
370
25
100
AcDbLine
 10
3319.011240835384
 20
12170.12446156654
 30
0.0
 11
3319.011240835384
 21
12074.12446156657
 31
0.0
  0
LINE
  5
11B
330
17
100
AcDbEntity
  8
COTA
 62
4
370
25
100
AcDbLine
 10
3407.668535438828
 20
12071.12446156656
 30
0.0
 11
3407.668535438828
 21
12026.39764776437
 31
0.0
  0
LINE
  5
11C
330
17
100
AcDbEntity
  8
COTA
 62
4
370
25
100
AcDbLine
 10
3445.668535438829
 20
12071.12446156656
 30
0.0
 11
3445.668535438829
 21
12026.39764776437
 31
0.0
  0
LINE
  5
11D
330
17
100
AcDbEntity
  8
COTA
 62
4
370
25
100
AcDbLine
 10
3407.668535438828
 20
12029.39764776437
 30
0.0
 11
3445.668535438829
 21
12029.39764776437
 31
0.0
  0
LINE
  5
11E
330
17
100
AcDbEntity
  8
COTA
 62
4
370
25
100
AcDbLine
 10
3351.365241260702
 20
12124.09451909486
 30
0.0
 11
3332.810627991356
 21
12124.09451909486
 31
0.0
  0
LINE
  5
11F
330
17
100
AcDbEntity
  8
COTA
 62
4
370
25
100
AcDbLine
 10
3351.365241260702
 20
12074.1244615666
 30
0.0
 11
3332.810627991356
 21
12074.1244615666
 31
0.0
  0
LINE
  5
120
330
17
100
AcDbEntity
  8
COTA
 62
4
370
25
100
AcDbLine
 10
3335.810627991356
 20
12124.09451909486
 30
0.0
 11
3335.810627991356
 21
12074.1244615666
 31
0.0
  0
LINE
  5
121
330
17
100
AcDbEntity
  8
Cota Seção (2x)
 62
180
370
25
100
AcDbLine
 10
3417.668535438799
 20
12094.12446156657
 30
0.0
 11
3435.668535438799
 21
12094.12446156657
 31
0.0
  0
LINE
  5
122
330
17
100
AcDbEntity
  8
Cota Seção (2x)
 62
180
370
25
100
AcDbLine
 10
3435.668535438799
 20
12094.12446156657
 30
0.0
 11
3435.668535438799
 21
12109.12446156656
 31
0.0
  0
LINE
  5
123
330
17
100
AcDbEntity
  8
Cota Seção (2x)
 62
180
370
25
100
AcDbLine
 10
3435.668535438799
 20
12109.12446156656
 30
0.0
 11
3417.668535438799
 21
12109.12446156656
 31
0.0
  0
LINE
  5
124
330
17
100
AcDbEntity
  8
Cota Seção (2x)
 62
180
370
25
100
AcDbLine
 10
3417.668535438799
 20
12109.12446156656
 30
0.0
 11
3417.668535438799
 21
12094.12446156657
 31
0.0
  0
LINE
  5
125
330
17
100
AcDbEntity
  8
COTA
 62
4
370
25
100
AcDbLine
 10
3623.904161433748
 20
12231.10992914499
 30
0.0
 11
3623.904161433748
 21
12204.57000316684
 31
0.0
  0
LINE
  5
126
330
17
100
AcDbEntity
  8
COTA
 62
4
370
25
100
AcDbLine
 10
3679.904161433748
 20
12231.10992914502
 30
0.0
 11
3679.904161433748
 21
12204.57000316684
 31
0.0
  0
LINE
  5
127
330
17
100
AcDbEntity
  8
COTA
 62
4
370
25
100
AcDbLine
 10
3623.904161433748
 20
12207.57000316684
 30
0.0
 11
3679.904161433748
 21
12207.57000316684
 31
0.0
  0
LINE
  5
128
330
17
100
AcDbEntity
  8
COTA
 62
0
370
25
100
AcDbLine
 10
3625.404161433748
 20
12209.07000316684
 30
0.0
 11
3622.404161433748
 21
12206.07000316684
 31
0.0
  0
LINE
  5
129
330
17
100
AcDbEntity
  8
COTA
 62
0
370
25
100
AcDbLine
 10
3678.404161433748
 20
12206.07000316684
 30
0.0
 11
3681.404161433748
 21
12209.07000316684
 31
0.0
  0
LINE
  5
12A
330
17
100
AcDbEntity
  8
COTA
 62
4
370
25
100
AcDbLine
 10
3679.904161433748
 20
12231.10992914502
 30
0.0
 11
3679.904161433748
 21
12204.57000316685
 31
0.0
  0
LINE
  5
12B
330
17
100
AcDbEntity
  8
COTA
 62
4
370
25
100
AcDbLine
 10
3925.904161433748
 20
12231.10992914502
 30
0.0
 11
3925.904161433748
 21
12204.57000316685
 31
0.0
  0
LINE
  5
12C
330
17
100
AcDbEntity
  8
COTA
 62
4
370
25
100
AcDbLine
 10
3679.904161433748
 20
12207.57000316685
 30
0.0
 11
3925.904161433748
 21
12207.57000316685
 31
0.0
  0
LINE
  5
12D
330
17
100
AcDbEntity
  8
COTA
 62
0
370
25
100
AcDbLine
 10
3681.404161433748
 20
12209.07000316685
 30
0.0
 11
3678.404161433748
 21
12206.07000316685
 31
0.0
  0
LINE
  5
12E
330
17
100
AcDbEntity
  8
COTA
 62
0
370
25
100
AcDbLine
 10
3924.404161433748
 20
12206.07000316685
 30
0.0
 11
3927.404161433748
 21
12209.07000316685
 31
0.0
  0
LINE
  5
12F
330
17
100
AcDbEntity
  8
COTA
 62
4
370
25
100
AcDbLine
 10
3623.904161433748
 20
12231.10992914499
 30
0.0
 11
3623.904161433748
 21
12171.03149247812
 31
0.0
  0
LINE
  5
130
330
17
100
AcDbEntity
  8
COTA
 62
4
370
25
100
AcDbLine
 10
3925.904161433748
 20
12231.10992914502
 30
0.0
 11
3925.904161433748
 21
12171.03149247812
 31
0.0
  0
LINE
  5
131
330
17
100
AcDbEntity
  8
COTA
 62
4
370
25
100
AcDbLine
 10
3623.904161433748
 20
12174.03149247812
 30
0.0
 11
3925.904161433748
 21
12174.03149247812
 31
0.0
  0
LINE
  5
132
330
17
100
AcDbEntity
  8
COTA
 62
0
370
25
100
AcDbLine
 10
3625.404161433748
 20
12175.53149247812
 30
0.0
 11
3622.404161433748
 21
12172.53149247812
 31
0.0
  0
LINE
  5
133
330
17
100
AcDbEntity
  8
COTA
 62
0
370
25
100
AcDbLine
 10
3924.404161433748
 20
12172.53149247812
 30
0.0
 11
3927.404161433748
 21
12175.53149247812
 31
0.0
  0
LINE
  5
134
330
17
100
AcDbEntity
  8
COTA
 62
4
370
25
100
AcDbLine
 10
3923.904161433744
 20
12231.10992914501
 30
0.0
 11
3923.904161433744
 21
12214.4459816656
 31
0.0
  0
LINE
  5
135
330
17
100
AcDbEntity
  8
COTA
 62
4
370
25
100
AcDbLine
 10
3925.904161433744
 20
12231.10992914501
 30
0.0
 11
3925.904161433744
 21
12214.4459816656
 31
0.0
  0
LINE
  5
136
330
17
100
AcDbEntity
  8
COTA
 62
4
370
25
100
AcDbLine
 10
3923.904161433744
 20
12217.4459816656
 30
0.0
 11
3920.904161433744
 21
12217.4459816656
 31
0.0
  0
LINE
  5
137
330
17
100
AcDbEntity
  8
COTA
 62
4
370
25
100
AcDbLine
 10
3925.904161433744
 20
12217.4459816656
 30
0.0
 11
3944.015272544856
 21
12217.4459816656
 31
0.0
  0
LINE
  5
138
330
17
100
AcDbEntity
  8
COTA
 62
4
370
25
100
AcDbLine
 10
3923.904161433744
 20
12217.4459816656
 30
0.0
 11
3925.904161433744
 21
12217.4459816656
 31
0.0
  0
LINE
  5
139
330
17
100
AcDbEntity
  8
COTA
 62
0
370
25
100
AcDbLine
 10
3922.404161433744
 20
12215.9459816656
 30
0.0
 11
3925.404161433744
 21
12218.9459816656
 31
0.0
  0
LINE
  5
13A
330
17
100
AcDbEntity
  8
COTA
 62
0
370
25
100
AcDbLine
 10
3927.404161433744
 20
12218.9459816656
 30
0.0
 11
3924.404161433744
 21
12215.9459816656
 31
0.0
  0
LINE
  5
13B
330
17
100
AcDbEntity
  8
COTA
 62
4
370
25
100
AcDbLine
 10
3412.232364449469
 20
11719.09818591787
 30
0.0
 11
3439.47382556083
 21
11719.09818591787
 31
0.0
  0
LINE
  5
13C
330
17
100
AcDbEntity
  8
COTA
 62
4
370
25
100
AcDbLine
 10
3412.232364449469
 20
11676.09818591787
 30
0.0
 11
3439.47382556083
 21
11676.09818591787
 31
0.0
  0
LINE
  5
13D
330
17
100
AcDbEntity
  8
COTA
 62
4
370
25
100
AcDbLine
 10
3434.473825560831
 20
11724.09818591787
 30
0.0
 11
3434.473825560831
 21
11671.09818591787
 31
0.0
  0
LINE
  5
13E
330
17
100
AcDbEntity
  8
COTA
 62
4
370
25
100
AcDbLine
 10
4102.534511359881
 20
12231.10992914501
 30
0.0
 11
4102.534511359881
 21
12171.03149247812
 31
0.0
  0
LINE
  5
13F
330
17
100
AcDbEntity
  8
COTA
 62
4
370
25
100
AcDbLine
 10
4015.534511359881
 20
12231.10992914501
 30
0.0
 11
4015.534511359881
 21
12171.03149247812
 31
0.0
  0
LINE
  5
140
330
17
100
AcDbEntity
  8
COTA
 62
4
370
25
100
AcDbLine
 10
4102.534511359881
 20
12174.03149247812
 30
0.0
 11
4015.534511359881
 21
12174.03149247812
 31
0.0
  0
LINE
  5
141
330
17
100
AcDbEntity
  8
COTA
 62
0
370
25
100
AcDbLine
 10
4101.034511359881
 20
12172.53149247812
 30
0.0
 11
4104.034511359881
 21
12175.53149247812
 31
0.0
  0
LINE
  5
142
330
17
100
AcDbEntity
  8
COTA
 62
0
370
25
100
AcDbLine
 10
4017.034511359881
 20
12175.53149247812
 30
0.0
 11
4014.034511359881
 21
12172.53149247812
 31
0.0
  0
LINE
  5
143
330
17
100
AcDbEntity
  8
COTA
 62
4
370
25
100
AcDbLine
 10
4017.534511359885
 20
12231.10992914501
 30
0.0
 11
4017.534511359885
 21
12214.4459816656
 31
0.0
  0
LINE
  5
144
330
17
100
AcDbEntity
  8
COTA
 62
4
370
25
100
AcDbLine
 10
4015.534511359884
 20
12231.10992914501
 30
0.0
 11
4015.534511359884
 21
12214.4459816656
 31
0.0
  0
LINE
  5
145
330
17
100
AcDbEntity
  8
COTA
 62
4
370
25
100
AcDbLine
 10
4017.534511359885
 20
12217.4459816656
 30
0.0
 11
4020.534511359885
 21
12217.4459816656
 31
0.0
  0
LINE
  5
146
330
17
100
AcDbEntity
  8
COTA
 62
4
370
25
100
AcDbLine
 10
4015.534511359884
 20
12217.4459816656
 30
0.0
 11
3997.423400248774
 21
12217.4459816656
 31
0.0
  0
LINE
  5
147
330
17
100
AcDbEntity
  8
COTA
 62
4
370
25
100
AcDbLine
 10
4017.534511359885
 20
12217.4459816656
 30
0.0
 11
4015.534511359884
 21
12217.4459816656
 31
0.0
  0
LINE
  5
148
330
17
100
AcDbEntity
  8
COTA
 62
0
370
25
100
AcDbLine
 10
4019.034511359885
 20
12218.9459816656
 30
0.0
 11
4016.034511359885
 21
12215.9459816656
 31
0.0
  0
LINE
  5
149
330
17
100
AcDbEntity
  8
COTA
 62
0
370
25
100
AcDbLine
 10
4014.034511359884
 20
12215.9459816656
 30
0.0
 11
4017.034511359884
 21
12218.9459816656
 31
0.0
  0
LINE
  5
14A
330
17
100
AcDbEntity
  8
COTA
 62
4
370
25
100
AcDbLine
 10
3928.904161433747
 20
12281.10992914502
 30
0.0
 11
3951.333103554233
 21
12281.10992914502
 31
0.0
  0
LINE
  5
14B
330
17
100
AcDbEntity
  8
COTA
 62
4
370
25
100
AcDbLine
 10
3928.904161433738
 20
12234.10992914504
 30
0.0
 11
3951.333103554233
 21
12234.10992914504
 31
0.0
  0
LINE
  5
14C
330
17
100
AcDbEntity
  8
COTA
 62
4
370
25
100
AcDbLine
 10
3948.333103554233
 20
12281.10992914502
 30
0.0
 11
3948.333103554233
 21
12234.10992914504
 31
0.0
  0
LINE
  5
14D
330
17
100
AcDbEntity
  8
COTA
 62
0
370
25
100
AcDbLine
 10
3949.833103554233
 20
12279.60992914502
 30
0.0
 11
3946.833103554233
 21
12282.60992914502
 31
0.0
  0
LINE
  5
14E
330
17
100
AcDbEntity
  8
COTA
 62
0
370
25
100
AcDbLine
 10
3946.833103554233
 20
12235.60992914504
 30
0.0
 11
3949.833103554233
 21
12232.60992914504
 31
0.0
  0
LINE
  5
14F
330
17
100
AcDbEntity
  8
COTA
 62
4
370
25
100
AcDbLine
 10
3928.904161433747
 20
12281.10992914502
 30
0.0
 11
3951.333103554233
 21
12281.10992914502
 31
0.0
  0
LINE
  5
150
330
17
100
AcDbEntity
  8
COTA
 62
4
370
25
100
AcDbLine
 10
3928.904161433738
 20
12298.10992914504
 30
0.0
 11
3951.333103554233
 21
12298.10992914504
 31
0.0
  0
LINE
  5
151
330
17
100
AcDbEntity
  8
COTA
 62
4
370
25
100
AcDbLine
 10
3948.333103554233
 20
12281.10992914502
 30
0.0
 11
3948.333103554233
 21
12298.10992914504
 31
0.0
  0
LINE
  5
152
330
17
100
AcDbEntity
  8
COTA
 62
0
370
25
100
AcDbLine
 10
3946.833103554233
 20
12282.60992914502
 30
0.0
 11
3949.833103554233
 21
12279.60992914502
 31
0.0
  0
LINE
  5
153
330
17
100
AcDbEntity
  8
COTA
 62
0
370
25
100
AcDbLine
 10
3949.833103554233
 20
12296.60992914504
 30
0.0
 11
3946.833103554233
 21
12299.60992914504
 31
0.0
  0
LINE
  5
154
330
17
100
AcDbEntity
  8
COTA
 62
4
370
25
100
AcDbLine
 10
3928.904161433738
 20
12298.10992914504
 30
0.0
 11
3972.948609227866
 21
12298.10992914504
 31
0.0
  0
LINE
  5
155
330
17
100
AcDbEntity
  8
COTA
 62
4
370
25
100
AcDbLine
 10
3928.904161433738
 20
12234.10992914504
 30
0.0
 11
3972.948609227866
 21
12234.10992914504
 31
0.0
  0
LINE
  5
156
330
17
100
AcDbEntity
  8
COTA
 62
4
370
25
100
AcDbLine
 10
3969.948609227866
 20
12298.10992914504
 30
0.0
 11
3969.948609227866
 21
12234.10992914504
 31
0.0
  0
LINE
  5
157
330
17
100
AcDbEntity
  8
COTA
 62
0
370
25
100
AcDbLine
 10
3971.448609227866
 20
12296.60992914504
 30
0.0
 11
3968.448609227866
 21
12299.60992914504
 31
0.0
  0
LINE
  5
158
330
17
100
AcDbEntity
  8
COTA
 62
0
370
25
100
AcDbLine
 10
3968.448609227866
 20
12235.60992914504
 30
0.0
 11
3971.448609227866
 21
12232.60992914504
 31
0.0
  0
LINE
  5
159
330
17
100
AcDbEntity
  8
COTA
 62
4
370
25
100
AcDbLine
 10
4176.810881875683
 20
12231.10992914502
 30
0.0
 11
4176.810881875683
 21
12201.57000316685
 31
0.0
  0
LINE
  5
15A
330
17
100
AcDbEntity
  8
COTA
 62
4
370
25
100
AcDbLine
 10
4298.810881875683
 20
12231.10992914503
 30
0.0
 11
4298.810881875683
 21
12201.57000316685
 31
0.0
  0
LINE
  5
15B
330
17
100
AcDbEntity
  8
COTA
 62
4
370
25
100
AcDbLine
 10
4176.810881875683
 20
12204.57000316685
 30
0.0
 11
4298.810881875683
 21
12204.57000316685
 31
0.0
  0
LINE
  5
15C
330
17
100
AcDbEntity
  8
COTA
 62
0
370
25
100
AcDbLine
 10
4178.310881875683
 20
12206.07000316685
 30
0.0
 11
4175.310881875683
 21
12203.07000316685
 31
0.0
  0
LINE
  5
15D
330
17
100
AcDbEntity
  8
COTA
 62
0
370
25
100
AcDbLine
 10
4297.310881875683
 20
12203.07000316685
 30
0.0
 11
4300.310881875683
 21
12206.07000316685
 31
0.0
  0
LINE
  5
15E
330
17
100
AcDbEntity
  8
COTA
 62
4
370
25
100
AcDbLine
 10
4298.810881875683
 20
12231.10992914503
 30
0.0
 11
4298.810881875683
 21
12201.57000316685
 31
0.0
  0
LINE
  5
15F
330
17
100
AcDbEntity
  8
COTA
 62
4
370
25
100
AcDbLine
 10
4396.810881875683
 20
12231.10992914502
 30
0.0
 11
4396.810881875683
 21
12201.57000316685
 31
0.0
  0
LINE
  5
160
330
17
100
AcDbEntity
  8
COTA
 62
4
370
25
100
AcDbLine
 10
4298.810881875683
 20
12204.57000316685
 30
0.0
 11
4396.810881875683
 21
12204.57000316685
 31
0.0
  0
LINE
  5
161
330
17
100
AcDbEntity
  8
COTA
 62
0
370
25
100
AcDbLine
 10
4300.310881875683
 20
12206.07000316685
 30
0.0
 11
4297.310881875683
 21
12203.07000316685
 31
0.0
  0
LINE
  5
162
330
17
100
AcDbEntity
  8
COTA
 62
0
370
25
100
AcDbLine
 10
4395.310881875683
 20
12203.07000316685
 30
0.0
 11
4398.310881875683
 21
12206.07000316685
 31
0.0
  0
LINE
  5
163
330
17
100
AcDbEntity
  8
COTA
 62
4
370
25
100
AcDbLine
 10
4176.810881875683
 20
12231.10992914502
 30
0.0
 11
4176.810881875683
 21
12171.03149247812
 31
0.0
  0
LINE
  5
164
330
17
100
AcDbEntity
  8
COTA
 62
4
370
25
100
AcDbLine
 10
4396.810881875683
 20
12231.10992914502
 30
0.0
 11
4396.810881875683
 21
12171.03149247812
 31
0.0
  0
LINE
  5
165
330
17
100
AcDbEntity
  8
COTA
 62
4
370
25
100
AcDbLine
 10
4176.810881875683
 20
12174.03149247812
 30
0.0
 11
4396.810881875683
 21
12174.03149247812
 31
0.0
  0
LINE
  5
166
330
17
100
AcDbEntity
  8
COTA
 62
0
370
25
100
AcDbLine
 10
4178.310881875683
 20
12175.53149247812
 30
0.0
 11
4175.310881875683
 21
12172.53149247812
 31
0.0
  0
LINE
  5
167
330
17
100
AcDbEntity
  8
COTA
 62
0
370
25
100
AcDbLine
 10
4395.310881875683
 20
12172.53149247812
 30
0.0
 11
4398.310881875683
 21
12175.53149247812
 31
0.0
  0
LINE
  5
168
330
17
100
AcDbEntity
  8
COTA
 62
4
370
25
100
AcDbLine
 10
4399.810881875684
 20
12298.10992914502
 30
0.0
 11
4443.855329669797
 21
12298.10992914502
 31
0.0
  0
LINE
  5
169
330
17
100
AcDbEntity
  8
COTA
 62
4
370
25
100
AcDbLine
 10
4399.810881875684
 20
12234.10992914502
 30
0.0
 11
4443.855329669797
 21
12234.10992914502
 31
0.0
  0
LINE
  5
16A
330
17
100
AcDbEntity
  8
COTA
 62
4
370
25
100
AcDbLine
 10
4440.855329669797
 20
12298.10992914502
 30
0.0
 11
4440.855329669797
 21
12234.10992914502
 31
0.0
  0
LINE
  5
16B
330
17
100
AcDbEntity
  8
COTA
 62
0
370
25
100
AcDbLine
 10
4442.355329669797
 20
12296.60992914502
 30
0.0
 11
4439.355329669797
 21
12299.60992914502
 31
0.0
  0
LINE
  5
16C
330
17
100
AcDbEntity
  8
COTA
 62
0
370
25
100
AcDbLine
 10
4439.355329669797
 20
12235.60992914502
 30
0.0
 11
4442.355329669797
 21
12232.60992914502
 31
0.0
  0
LINE
  5
16D
330
17
100
AcDbEntity
  8
COTA
 62
4
370
25
100
AcDbLine
 10
4399.810881875684
 20
12284.10992914502
 30
0.0
 11
4422.239823996192
 21
12284.10992914502
 31
0.0
  0
LINE
  5
16E
330
17
100
AcDbEntity
  8
COTA
 62
4
370
25
100
AcDbLine
 10
4399.810881875684
 20
12234.10992914502
 30
0.0
 11
4422.239823996192
 21
12234.10992914502
 31
0.0
  0
LINE
  5
16F
330
17
100
AcDbEntity
  8
COTA
 62
4
370
25
100
AcDbLine
 10
4419.239823996192
 20
12284.10992914502
 30
0.0
 11
4419.239823996192
 21
12234.10992914502
 31
0.0
  0
LINE
  5
170
330
17
100
AcDbEntity
  8
COTA
 62
0
370
25
100
AcDbLine
 10
4420.739823996192
 20
12282.60992914502
 30
0.0
 11
4417.739823996192
 21
12285.60992914502
 31
0.0
  0
LINE
  5
171
330
17
100
AcDbEntity
  8
COTA
 62
0
370
25
100
AcDbLine
 10
4417.739823996192
 20
12235.60992914502
 30
0.0
 11
4420.739823996192
 21
12232.60992914502
 31
0.0
  0
LINE
  5
172
330
17
100
AcDbEntity
  8
COTA
 62
4
370
25
100
AcDbLine
 10
4399.810881875684
 20
12284.10992914502
 30
0.0
 11
4422.239823996187
 21
12284.10992914502
 31
0.0
  0
LINE
  5
173
330
17
100
AcDbEntity
  8
COTA
 62
4
370
25
100
AcDbLine
 10
4399.810881875684
 20
12298.10992914502
 30
0.0
 11
4422.239823996187
 21
12298.10992914502
 31
0.0
  0
LINE
  5
174
330
17
100
AcDbEntity
  8
COTA
 62
4
370
25
100
AcDbLine
 10
4419.239823996187
 20
12284.10992914502
 30
0.0
 11
4419.239823996187
 21
12298.10992914502
 31
0.0
  0
LINE
  5
175
330
17
100
AcDbEntity
  8
COTA
 62
4
370
25
100
AcDbLine
 10
4419.239823996187
 20
12298.10992914502
 30
0.0
 11
4419.239823996187
 21
12317.22688820935
 31
0.0
  0
LINE
  5
176
330
17
100
AcDbEntity
  8
COTA
 62
0
370
25
100
AcDbLine
 10
4417.739823996187
 20
12285.60992914502
 30
0.0
 11
4420.739823996187
 21
12282.60992914502
 31
0.0
  0
LINE
  5
177
330
17
100
AcDbEntity
  8
COTA
 62
0
370
25
100
AcDbLine
 10
4420.739823996187
 20
12296.60992914502
 30
0.0
 11
4417.739823996187
 21
12299.60992914502
 31
0.0
  0
LINE
  5
178
330
17
100
AcDbEntity
  8
COTA
 62
4
370
25
100
AcDbLine
 10
4011.904161433747
 20
12043.34048383728
 30
0.0
 11
4011.904161433747
 21
12016.80055785912
 31
0.0
  0
LINE
  5
179
330
17
100
AcDbEntity
  8
COTA
 62
4
370
25
100
AcDbLine
 10
3767.904161433748
 20
12043.34048383731
 30
0.0
 11
3767.904161433748
 21
12016.80055785912
 31
0.0
  0
LINE
  5
17A
330
17
100
AcDbEntity
  8
COTA
 62
4
370
25
100
AcDbLine
 10
4011.904161433747
 20
12019.80055785912
 30
0.0
 11
3767.904161433748
 21
12019.80055785912
 31
0.0
  0
LINE
  5
17B
330
17
100
AcDbEntity
  8
COTA
 62
0
370
25
100
AcDbLine
 10
4010.404161433747
 20
12018.30055785912
 30
0.0
 11
4013.404161433747
 21
12021.30055785912
 31
0.0
  0
LINE
  5
17C
330
17
100
AcDbEntity
  8
COTA
 62
0
370
25
100
AcDbLine
 10
3769.404161433748
 20
12021.30055785912
 30
0.0
 11
3766.404161433748
 21
12018.30055785912
 31
0.0
  0
LINE
  5
17D
330
17
100
AcDbEntity
  8
COTA
 62
4
370
25
100
AcDbLine
 10
3767.904161433748
 20
12043.34048383731
 30
0.0
 11
3767.904161433748
 21
12016.80055785913
 31
0.0
  0
LINE
  5
17E
330
17
100
AcDbEntity
  8
COTA
 62
4
370
25
100
AcDbLine
 10
3613.904161433748
 20
12043.3404838373
 30
0.0
 11
3613.904161433748
 21
12016.80055785913
 31
0.0
  0
LINE
  5
17F
330
17
100
AcDbEntity
  8
COTA
 62
4
370
25
100
AcDbLine
 10
3767.904161433748
 20
12019.80055785913
 30
0.0
 11
3613.904161433748
 21
12019.80055785913
 31
0.0
  0
LINE
  5
180
330
17
100
AcDbEntity
  8
COTA
 62
0
370
25
100
AcDbLine
 10
3766.404161433748
 20
12018.30055785913
 30
0.0
 11
3769.404161433748
 21
12021.30055785913
 31
0.0
  0
LINE
  5
181
330
17
100
AcDbEntity
  8
COTA
 62
0
370
25
100
AcDbLine
 10
3615.404161433748
 20
12021.30055785913
 30
0.0
 11
3612.404161433748
 21
12018.30055785913
 31
0.0
  0
LINE
  5
182
330
17
100
AcDbEntity
  8
COTA
 62
4
370
25
100
AcDbLine
 10
4011.904161433747
 20
12043.34048383728
 30
0.0
 11
4011.904161433747
 21
11983.2620471704
 31
0.0
  0
LINE
  5
183
330
17
100
AcDbEntity
  8
COTA
 62
4
370
25
100
AcDbLine
 10
3613.904161433748
 20
12043.3404838373
 30
0.0
 11
3613.904161433748
 21
11983.2620471704
 31
0.0
  0
LINE
  5
184
330
17
100
AcDbEntity
  8
COTA
 62
4
370
25
100
AcDbLine
 10
4011.904161433747
 20
11986.2620471704
 30
0.0
 11
3613.904161433748
 21
11986.2620471704
 31
0.0
  0
LINE
  5
185
330
17
100
AcDbEntity
  8
COTA
 62
0
370
25
100
AcDbLine
 10
4010.404161433747
 20
11984.7620471704
 30
0.0
 11
4013.404161433747
 21
11987.7620471704
 31
0.0
  0
LINE
  5
186
330
17
100
AcDbEntity
  8
COTA
 62
0
370
25
100
AcDbLine
 10
3615.404161433748
 20
11987.7620471704
 30
0.0
 11
3612.404161433748
 21
11984.7620471704
 31
0.0
  0
LINE
  5
187
330
17
100
AcDbEntity
  8
COTA
 62
4
370
25
100
AcDbLine
 10
3615.904161433751
 20
12043.34048383729
 30
0.0
 11
3615.904161433751
 21
12026.67653635789
 31
0.0
  0
LINE
  5
188
330
17
100
AcDbEntity
  8
COTA
 62
4
370
25
100
AcDbLine
 10
3613.904161433751
 20
12043.34048383729
 30
0.0
 11
3613.904161433751
 21
12026.67653635789
 31
0.0
  0
LINE
  5
189
330
17
100
AcDbEntity
  8
COTA
 62
4
370
25
100
AcDbLine
 10
3615.904161433751
 20
12029.67653635789
 30
0.0
 11
3618.904161433751
 21
12029.67653635789
 31
0.0
  0
LINE
  5
18A
330
17
100
AcDbEntity
  8
COTA
 62
4
370
25
100
AcDbLine
 10
3613.904161433751
 20
12029.67653635789
 30
0.0
 11
3595.79305032264
 21
12029.67653635789
 31
0.0
  0
LINE
  5
18B
330
17
100
AcDbEntity
  8
COTA
 62
4
370
25
100
AcDbLine
 10
3615.904161433751
 20
12029.67653635789
 30
0.0
 11
3613.904161433751
 21
12029.67653635789
 31
0.0
  0
LINE
  5
18C
330
17
100
AcDbEntity
  8
COTA
 62
0
370
25
100
AcDbLine
 10
3617.404161433751
 20
12031.17653635789
 30
0.0
 11
3614.404161433751
 21
12028.17653635789
 31
0.0
  0
LINE
  5
18D
330
17
100
AcDbEntity
  8
COTA
 62
0
370
25
100
AcDbLine
 10
3612.404161433751
 20
12028.17653635789
 30
0.0
 11
3615.404161433751
 21
12031.17653635789
 31
0.0
  0
LINE
  5
18E
330
17
100
AcDbEntity
  8
COTA
 62
4
370
25
100
AcDbLine
 10
4014.904161433746
 20
12094.34048383731
 30
0.0
 11
4037.333103554236
 21
12094.34048383731
 31
0.0
  0
LINE
  5
18F
330
17
100
AcDbEntity
  8
COTA
 62
4
370
25
100
AcDbLine
 10
4014.904161433737
 20
12046.34048383732
 30
0.0
 11
4037.333103554236
 21
12046.34048383732
 31
0.0
  0
LINE
  5
190
330
17
100
AcDbEntity
  8
COTA
 62
4
370
25
100
AcDbLine
 10
4034.333103554236
 20
12094.34048383731
 30
0.0
 11
4034.333103554236
 21
12046.34048383732
 31
0.0
  0
LINE
  5
191
330
17
100
AcDbEntity
  8
COTA
 62
0
370
25
100
AcDbLine
 10
4035.833103554236
 20
12092.84048383731
 30
0.0
 11
4032.833103554236
 21
12095.84048383731
 31
0.0
  0
LINE
  5
192
330
17
100
AcDbEntity
  8
COTA
 62
0
370
25
100
AcDbLine
 10
4032.833103554236
 20
12047.84048383732
 30
0.0
 11
4035.833103554236
 21
12044.84048383732
 31
0.0
  0
LINE
  5
193
330
17
100
AcDbEntity
  8
COTA
 62
4
370
25
100
AcDbLine
 10
4014.904161433746
 20
12094.34048383731
 30
0.0
 11
4037.333103554236
 21
12094.34048383731
 31
0.0
  0
LINE
  5
194
330
17
100
AcDbEntity
  8
COTA
 62
4
370
25
100
AcDbLine
 10
4014.904161433737
 20
12110.34048383732
 30
0.0
 11
4037.333103554236
 21
12110.34048383732
 31
0.0
  0
LINE
  5
195
330
17
100
AcDbEntity
  8
COTA
 62
4
370
25
100
AcDbLine
 10
4034.333103554236
 20
12094.34048383731
 30
0.0
 11
4034.333103554236
 21
12110.34048383732
 31
0.0
  0
LINE
  5
196
330
17
100
AcDbEntity
  8
COTA
 62
4
370
25
100
AcDbLine
 10
4034.333103554236
 20
12110.34048383732
 30
0.0
 11
4034.333103554236
 21
12129.35510372036
 31
0.0
  0
LINE
  5
197
330
17
100
AcDbEntity
  8
COTA
 62
0
370
25
100
AcDbLine
 10
4032.833103554236
 20
12095.84048383731
 30
0.0
 11
4035.833103554236
 21
12092.84048383731
 31
0.0
  0
LINE
  5
198
330
17
100
AcDbEntity
  8
COTA
 62
0
370
25
100
AcDbLine
 10
4035.833103554236
 20
12108.84048383732
 30
0.0
 11
4032.833103554236
 21
12111.84048383732
 31
0.0
  0
LINE
  5
199
330
17
100
AcDbEntity
  8
COTA
 62
4
370
25
100
AcDbLine
 10
4014.904161433737
 20
12110.34048383732
 30
0.0
 11
4058.948609227868
 21
12110.34048383732
 31
0.0
  0
LINE
  5
19A
330
17
100
AcDbEntity
  8
COTA
 62
4
370
25
100
AcDbLine
 10
4014.904161433737
 20
12046.34048383732
 30
0.0
 11
4058.948609227868
 21
12046.34048383732
 31
0.0
  0
LINE
  5
19B
330
17
100
AcDbEntity
  8
COTA
 62
4
370
25
100
AcDbLine
 10
4055.948609227868
 20
12110.34048383732
 30
0.0
 11
4055.948609227868
 21
12046.34048383732
 31
0.0
  0
LINE
  5
19C
330
17
100
AcDbEntity
  8
COTA
 62
0
370
25
100
AcDbLine
 10
4057.448609227868
 20
12108.84048383732
 30
0.0
 11
4054.448609227868
 21
12111.84048383732
 31
0.0
  0
LINE
  5
19D
330
17
100
AcDbEntity
  8
COTA
 62
0
370
25
100
AcDbLine
 10
4054.448609227868
 20
12047.84048383732
 30
0.0
 11
4057.448609227868
 21
12044.84048383732
 31
0.0
  0
LINE
  5
19E
330
17
100
AcDbEntity
  8
COTA
 62
4
370
25
100
AcDbLine
 10
4105.534511359883
 20
12281.10992914502
 30
0.0
 11
4127.963453480372
 21
12281.10992914502
 31
0.0
  0
LINE
  5
19F
330
17
100
AcDbEntity
  8
COTA
 62
4
370
25
100
AcDbLine
 10
4105.534511359876
 20
12234.10992914504
 30
0.0
 11
4127.963453480372
 21
12234.10992914504
 31
0.0
  0
LINE
  5
1A0
330
17
100
AcDbEntity
  8
COTA
 62
4
370
25
100
AcDbLine
 10
4124.963453480372
 20
12281.10992914502
 30
0.0
 11
4124.963453480372
 21
12234.10992914504
 31
0.0
  0
LINE
  5
1A1
330
17
100
AcDbEntity
  8
COTA
 62
0
370
25
100
AcDbLine
 10
4126.463453480372
 20
12279.60992914502
 30
0.0
 11
4123.463453480372
 21
12282.60992914502
 31
0.0
  0
LINE
  5
1A2
330
17
100
AcDbEntity
  8
COTA
 62
0
370
25
100
AcDbLine
 10
4123.463453480372
 20
12235.60992914504
 30
0.0
 11
4126.463453480372
 21
12232.60992914504
 31
0.0
  0
LINE
  5
1A3
330
17
100
AcDbEntity
  8
COTA
 62
4
370
25
100
AcDbLine
 10
4105.534511359883
 20
12281.10992914502
 30
0.0
 11
4127.963453480372
 21
12281.10992914502
 31
0.0
  0
LINE
  5
1A4
330
17
100
AcDbEntity
  8
COTA
 62
4
370
25
100
AcDbLine
 10
4105.534511359876
 20
12298.10992914504
 30
0.0
 11
4127.963453480372
 21
12298.10992914504
 31
0.0
  0
LINE
  5
1A5
330
17
100
AcDbEntity
  8
COTA
 62
4
370
25
100
AcDbLine
 10
4124.963453480372
 20
12281.10992914502
 30
0.0
 11
4124.963453480372
 21
12298.10992914504
 31
0.0
  0
LINE
  5
1A6
330
17
100
AcDbEntity
  8
COTA
 62
0
370
25
100
AcDbLine
 10
4123.463453480372
 20
12282.60992914502
 30
0.0
 11
4126.463453480372
 21
12279.60992914502
 31
0.0
  0
LINE
  5
1A7
330
17
100
AcDbEntity
  8
COTA
 62
0
370
25
100
AcDbLine
 10
4126.463453480372
 20
12296.60992914504
 30
0.0
 11
4123.463453480372
 21
12299.60992914504
 31
0.0
  0
LINE
  5
1A8
330
17
100
AcDbEntity
  8
COTA
 62
4
370
25
100
AcDbLine
 10
4105.534511359876
 20
12298.10992914504
 30
0.0
 11
4149.578959154005
 21
12298.10992914504
 31
0.0
  0
LINE
  5
1A9
330
17
100
AcDbEntity
  8
COTA
 62
4
370
25
100
AcDbLine
 10
4105.534511359876
 20
12234.10992914504
 30
0.0
 11
4149.578959154005
 21
12234.10992914504
 31
0.0
  0
LINE
  5
1AA
330
17
100
AcDbEntity
  8
COTA
 62
4
370
25
100
AcDbLine
 10
4146.578959154004
 20
12298.10992914504
 30
0.0
 11
4146.578959154004
 21
12234.10992914504
 31
0.0
  0
LINE
  5
1AB
330
17
100
AcDbEntity
  8
COTA
 62
0
370
25
100
AcDbLine
 10
4148.078959154004
 20
12296.60992914504
 30
0.0
 11
4145.078959154004
 21
12299.60992914504
 31
0.0
  0
LINE
  5
1AC
330
17
100
AcDbEntity
  8
COTA
 62
0
370
25
100
AcDbLine
 10
4145.078959154004
 20
12235.60992914504
 30
0.0
 11
4148.078959154004
 21
12232.60992914504
 31
0.0
  0
LINE
  5
1AD
330
17
100
AcDbEntity
  8
COTA
 62
4
370
25
100
AcDbLine
 10
3613.904161433748
 20
11849.10902540148
 30
0.0
 11
3613.904161433748
 21
11822.56909942333
 31
0.0
  0
LINE
  5
1AE
330
17
100
AcDbEntity
  8
COTA
 62
4
370
25
100
AcDbLine
 10
3857.904161433748
 20
11849.10902540151
 30
0.0
 11
3857.904161433748
 21
11822.56909942333
 31
0.0
  0
LINE
  5
1AF
330
17
100
AcDbEntity
  8
COTA
 62
4
370
25
100
AcDbLine
 10
3613.904161433748
 20
11825.56909942333
 30
0.0
 11
3857.904161433748
 21
11825.56909942333
 31
0.0
  0
LINE
  5
1B0
330
17
100
AcDbEntity
  8
COTA
 62
0
370
25
100
AcDbLine
 10
3615.404161433748
 20
11827.06909942333
 30
0.0
 11
3612.404161433748
 21
11824.06909942333
 31
0.0
  0
LINE
  5
1B1
330
17
100
AcDbEntity
  8
COTA
 62
0
370
25
100
AcDbLine
 10
3856.404161433748
 20
11824.06909942333
 30
0.0
 11
3859.404161433748
 21
11827.06909942333
 31
0.0
  0
LINE
  5
1B2
330
17
100
AcDbEntity
  8
COTA
 62
4
370
25
100
AcDbLine
 10
3857.904161433748
 20
11849.10902540151
 30
0.0
 11
3857.904161433748
 21
11822.56909942334
 31
0.0
  0
LINE
  5
1B3
330
17
100
AcDbEntity
  8
COTA
 62
4
370
25
100
AcDbLine
 10
4011.904161433747
 20
11849.10902540151
 30
0.0
 11
4011.904161433747
 21
11822.56909942334
 31
0.0
  0
LINE
  5
1B4
330
17
100
AcDbEntity
  8
COTA
 62
4
370
25
100
AcDbLine
 10
3857.904161433748
 20
11825.56909942334
 30
0.0
 11
4011.904161433747
 21
11825.56909942334
 31
0.0
  0
LINE
  5
1B5
330
17
100
AcDbEntity
  8
COTA
 62
0
370
25
100
AcDbLine
 10
3859.404161433748
 20
11827.06909942334
 30
0.0
 11
3856.404161433748
 21
11824.06909942334
 31
0.0
  0
LINE
  5
1B6
330
17
100
AcDbEntity
  8
COTA
 62
0
370
25
100
AcDbLine
 10
4010.404161433747
 20
11824.06909942334
 30
0.0
 11
4013.404161433747
 21
11827.06909942334
 31
0.0
  0
LINE
  5
1B7
330
17
100
AcDbEntity
  8
COTA
 62
4
370
25
100
AcDbLine
 10
3613.904161433748
 20
11849.10902540148
 30
0.0
 11
3613.904161433748
 21
11789.03058873461
 31
0.0
  0
LINE
  5
1B8
330
17
100
AcDbEntity
  8
COTA
 62
4
370
25
100
AcDbLine
 10
4011.904161433747
 20
11849.10902540151
 30
0.0
 11
4011.904161433747
 21
11789.03058873461
 31
0.0
  0
LINE
  5
1B9
330
17
100
AcDbEntity
  8
COTA
 62
4
370
25
100
AcDbLine
 10
3613.904161433748
 20
11792.0305887346
 30
0.0
 11
4011.904161433747
 21
11792.0305887346
 31
0.0
  0
LINE
  5
1BA
330
17
100
AcDbEntity
  8
COTA
 62
0
370
25
100
AcDbLine
 10
3615.404161433748
 20
11793.5305887346
 30
0.0
 11
3612.404161433748
 21
11790.5305887346
 31
0.0
  0
LINE
  5
1BB
330
17
100
AcDbEntity
  8
COTA
 62
0
370
25
100
AcDbLine
 10
4010.404161433747
 20
11790.5305887346
 30
0.0
 11
4013.404161433747
 21
11793.5305887346
 31
0.0
  0
LINE
  5
1BC
330
17
100
AcDbEntity
  8
COTA
 62
4
370
25
100
AcDbLine
 10
4009.904161433744
 20
11849.1090254015
 30
0.0
 11
4009.904161433744
 21
11832.4450779221
 31
0.0
  0
LINE
  5
1BD
330
17
100
AcDbEntity
  8
COTA
 62
4
370
25
100
AcDbLine
 10
4011.904161433744
 20
11849.1090254015
 30
0.0
 11
4011.904161433744
 21
11832.4450779221
 31
0.0
  0
LINE
  5
1BE
330
17
100
AcDbEntity
  8
COTA
 62
4
370
25
100
AcDbLine
 10
4009.904161433744
 20
11835.44507792209
 30
0.0
 11
4006.904161433744
 21
11835.44507792209
 31
0.0
  0
LINE
  5
1BF
330
17
100
AcDbEntity
  8
COTA
 62
4
370
25
100
AcDbLine
 10
4011.904161433744
 20
11835.44507792209
 30
0.0
 11
4030.015272544855
 21
11835.44507792209
 31
0.0
  0
LINE
  5
1C0
330
17
100
AcDbEntity
  8
COTA
 62
4
370
25
100
AcDbLine
 10
4009.904161433744
 20
11835.44507792209
 30
0.0
 11
4011.904161433744
 21
11835.44507792209
 31
0.0
  0
LINE
  5
1C1
330
17
100
AcDbEntity
  8
COTA
 62
0
370
25
100
AcDbLine
 10
4008.404161433744
 20
11833.94507792209
 30
0.0
 11
4011.404161433744
 21
11836.94507792209
 31
0.0
  0
LINE
  5
1C2
330
17
100
AcDbEntity
  8
COTA
 62
0
370
25
100
AcDbLine
 10
4013.404161433744
 20
11836.94507792209
 30
0.0
 11
4010.404161433744
 21
11833.94507792209
 31
0.0
  0
LINE
  5
1C3
330
17
100
AcDbEntity
  8
COTA
 62
4
370
25
100
AcDbLine
 10
4014.904161433746
 20
11902.10902540151
 30
0.0
 11
4037.333103554237
 21
11902.10902540151
 31
0.0
  0
LINE
  5
1C4
330
17
100
AcDbEntity
  8
COTA
 62
4
370
25
100
AcDbLine
 10
4014.904161433737
 20
11852.10902540153
 30
0.0
 11
4037.333103554237
 21
11852.10902540153
 31
0.0
  0
LINE
  5
1C5
330
17
100
AcDbEntity
  8
COTA
 62
4
370
25
100
AcDbLine
 10
4034.333103554238
 20
11902.10902540151
 30
0.0
 11
4034.333103554238
 21
11852.10902540153
 31
0.0
  0
LINE
  5
1C6
330
17
100
AcDbEntity
  8
COTA
 62
0
370
25
100
AcDbLine
 10
4035.833103554238
 20
11900.60902540151
 30
0.0
 11
4032.833103554238
 21
11903.60902540151
 31
0.0
  0
LINE
  5
1C7
330
17
100
AcDbEntity
  8
COTA
 62
0
370
25
100
AcDbLine
 10
4032.833103554238
 20
11853.60902540153
 30
0.0
 11
4035.833103554238
 21
11850.60902540153
 31
0.0
  0
LINE
  5
1C8
330
17
100
AcDbEntity
  8
COTA
 62
4
370
25
100
AcDbLine
 10
4014.904161433746
 20
11902.10902540151
 30
0.0
 11
4037.333103554237
 21
11902.10902540151
 31
0.0
  0
LINE
  5
1C9
330
17
100
AcDbEntity
  8
COTA
 62
4
370
25
100
AcDbLine
 10
4014.904161433737
 20
11916.10902540153
 30
0.0
 11
4037.333103554237
 21
11916.10902540153
 31
0.0
  0
LINE
  5
1CA
330
17
100
AcDbEntity
  8
COTA
 62
4
370
25
100
AcDbLine
 10
4034.333103554238
 20
11902.10902540151
 30
0.0
 11
4034.333103554238
 21
11916.10902540153
 31
0.0
  0
LINE
  5
1CB
330
17
100
AcDbEntity
  8
COTA
 62
4
370
25
100
AcDbLine
 10
4034.333103554238
 20
11916.10902540153
 30
0.0
 11
4034.333103554238
 21
11935.22598446586
 31
0.0
  0
LINE
  5
1CC
330
17
100
AcDbEntity
  8
COTA
 62
0
370
25
100
AcDbLine
 10
4032.833103554238
 20
11903.60902540151
 30
0.0
 11
4035.833103554238
 21
11900.60902540151
 31
0.0
  0
LINE
  5
1CD
330
17
100
AcDbEntity
  8
COTA
 62
0
370
25
100
AcDbLine
 10
4035.833103554238
 20
11914.60902540153
 30
0.0
 11
4032.833103554238
 21
11917.60902540153
 31
0.0
  0
LINE
  5
1CE
330
17
100
AcDbEntity
  8
COTA
 62
4
370
25
100
AcDbLine
 10
4014.904161433737
 20
11916.10902540153
 30
0.0
 11
4058.948609227868
 21
11916.10902540153
 31
0.0
  0
LINE
  5
1CF
330
17
100
AcDbEntity
  8
COTA
 62
4
370
25
100
AcDbLine
 10
4014.904161433737
 20
11852.10902540153
 30
0.0
 11
4058.948609227868
 21
11852.10902540153
 31
0.0
  0
LINE
  5
1D0
330
17
100
AcDbEntity
  8
COTA
 62
4
370
25
100
AcDbLine
 10
4055.948609227868
 20
11916.10902540153
 30
0.0
 11
4055.948609227868
 21
11852.10902540153
 31
0.0
  0
LINE
  5
1D1
330
17
100
AcDbEntity
  8
COTA
 62
0
370
25
100
AcDbLine
 10
4057.448609227868
 20
11914.60902540153
 30
0.0
 11
4054.448609227868
 21
11917.60902540153
 31
0.0
  0
LINE
  5
1D2
330
17
100
AcDbEntity
  8
COTA
 62
0
370
25
100
AcDbLine
 10
4054.448609227868
 20
11853.60902540153
 30
0.0
 11
4057.448609227868
 21
11850.60902540153
 31
0.0
  0
LINE
  5
1D3
330
17
100
AcDbEntity
  8
COTA
 62
4
370
25
100
AcDbLine
 10
4261.029511359884
 20
11849.1090254015
 30
0.0
 11
4261.029511359884
 21
11789.03058873461
 31
0.0
  0
LINE
  5
1D4
330
17
100
AcDbEntity
  8
COTA
 62
4
370
25
100
AcDbLine
 10
4101.534511359884
 20
11849.1090254015
 30
0.0
 11
4101.534511359884
 21
11789.03058873461
 31
0.0
  0
LINE
  5
1D5
330
17
100
AcDbEntity
  8
COTA
 62
4
370
25
100
AcDbLine
 10
4261.029511359884
 20
11792.0305887346
 30
0.0
 11
4101.534511359884
 21
11792.0305887346
 31
0.0
  0
LINE
  5
1D6
330
17
100
AcDbEntity
  8
COTA
 62
0
370
25
100
AcDbLine
 10
4259.529511359884
 20
11790.5305887346
 30
0.0
 11
4262.529511359884
 21
11793.5305887346
 31
0.0
  0
LINE
  5
1D7
330
17
100
AcDbEntity
  8
COTA
 62
0
370
25
100
AcDbLine
 10
4103.034511359884
 20
11793.5305887346
 30
0.0
 11
4100.034511359884
 21
11790.5305887346
 31
0.0
  0
LINE
  5
1D8
330
17
100
AcDbEntity
  8
COTA
 62
4
370
25
100
AcDbLine
 10
4103.534511359888
 20
11849.1090254015
 30
0.0
 11
4103.534511359888
 21
11832.4450779221
 31
0.0
  0
LINE
  5
1D9
330
17
100
AcDbEntity
  8
COTA
 62
4
370
25
100
AcDbLine
 10
4101.534511359887
 20
11849.1090254015
 30
0.0
 11
4101.534511359887
 21
11832.4450779221
 31
0.0
  0
LINE
  5
1DA
330
17
100
AcDbEntity
  8
COTA
 62
4
370
25
100
AcDbLine
 10
4103.534511359888
 20
11835.44507792209
 30
0.0
 11
4106.534511359888
 21
11835.44507792209
 31
0.0
  0
LINE
  5
1DB
330
17
100
AcDbEntity
  8
COTA
 62
4
370
25
100
AcDbLine
 10
4101.534511359887
 20
11835.44507792209
 30
0.0
 11
4083.423400248777
 21
11835.44507792209
 31
0.0
  0
LINE
  5
1DC
330
17
100
AcDbEntity
  8
COTA
 62
4
370
25
100
AcDbLine
 10
4103.534511359888
 20
11835.44507792209
 30
0.0
 11
4101.534511359887
 21
11835.44507792209
 31
0.0
  0
LINE
  5
1DD
330
17
100
AcDbEntity
  8
COTA
 62
0
370
25
100
AcDbLine
 10
4105.034511359888
 20
11836.94507792209
 30
0.0
 11
4102.034511359888
 21
11833.94507792209
 31
0.0
  0
LINE
  5
1DE
330
17
100
AcDbEntity
  8
COTA
 62
0
370
25
100
AcDbLine
 10
4100.034511359887
 20
11833.94507792209
 30
0.0
 11
4103.034511359887
 21
11836.94507792209
 31
0.0
  0
LINE
  5
1DF
330
17
100
AcDbEntity
  8
COTA
 62
4
370
25
100
AcDbLine
 10
4264.029511359886
 20
11902.10902540151
 30
0.0
 11
4286.458453480378
 21
11902.10902540151
 31
0.0
  0
LINE
  5
1E0
330
17
100
AcDbEntity
  8
COTA
 62
4
370
25
100
AcDbLine
 10
4264.029511359878
 20
11852.10902540153
 30
0.0
 11
4286.458453480378
 21
11852.10902540153
 31
0.0
  0
LINE
  5
1E1
330
17
100
AcDbEntity
  8
COTA
 62
4
370
25
100
AcDbLine
 10
4283.458453480378
 20
11902.10902540151
 30
0.0
 11
4283.458453480378
 21
11852.10902540153
 31
0.0
  0
LINE
  5
1E2
330
17
100
AcDbEntity
  8
COTA
 62
0
370
25
100
AcDbLine
 10
4284.958453480378
 20
11900.60902540151
 30
0.0
 11
4281.958453480378
 21
11903.60902540151
 31
0.0
  0
LINE
  5
1E3
330
17
100
AcDbEntity
  8
COTA
 62
0
370
25
100
AcDbLine
 10
4281.958453480378
 20
11853.60902540153
 30
0.0
 11
4284.958453480378
 21
11850.60902540153
 31
0.0
  0
LINE
  5
1E4
330
17
100
AcDbEntity
  8
COTA
 62
4
370
25
100
AcDbLine
 10
4264.029511359886
 20
11902.10902540151
 30
0.0
 11
4286.458453480378
 21
11902.10902540151
 31
0.0
  0
LINE
  5
1E5
330
17
100
AcDbEntity
  8
COTA
 62
4
370
25
100
AcDbLine
 10
4264.029511359878
 20
11916.10902540153
 30
0.0
 11
4286.458453480378
 21
11916.10902540153
 31
0.0
  0
LINE
  5
1E6
330
17
100
AcDbEntity
  8
COTA
 62
4
370
25
100
AcDbLine
 10
4283.458453480378
 20
11902.10902540151
 30
0.0
 11
4283.458453480378
 21
11916.10902540153
 31
0.0
  0
LINE
  5
1E7
330
17
100
AcDbEntity
  8
COTA
 62
4
370
25
100
AcDbLine
 10
4283.458453480378
 20
11916.10902540153
 30
0.0
 11
4283.458453480378
 21
11935.22598446586
 31
0.0
  0
LINE
  5
1E8
330
17
100
AcDbEntity
  8
COTA
 62
0
370
25
100
AcDbLine
 10
4281.958453480378
 20
11903.60902540151
 30
0.0
 11
4284.958453480378
 21
11900.60902540151
 31
0.0
  0
LINE
  5
1E9
330
17
100
AcDbEntity
  8
COTA
 62
0
370
25
100
AcDbLine
 10
4284.958453480378
 20
11914.60902540153
 30
0.0
 11
4281.958453480378
 21
11917.60902540153
 31
0.0
  0
LINE
  5
1EA
330
17
100
AcDbEntity
  8
COTA
 62
4
370
25
100
AcDbLine
 10
4264.029511359878
 20
11916.10902540153
 30
0.0
 11
4308.073959154009
 21
11916.10902540153
 31
0.0
  0
LINE
  5
1EB
330
17
100
AcDbEntity
  8
COTA
 62
4
370
25
100
AcDbLine
 10
4264.029511359878
 20
11852.10902540153
 30
0.0
 11
4308.073959154009
 21
11852.10902540153
 31
0.0
  0
LINE
  5
1EC
330
17
100
AcDbEntity
  8
COTA
 62
4
370
25
100
AcDbLine
 10
4305.073959154009
 20
11916.10902540153
 30
0.0
 11
4305.073959154009
 21
11852.10902540153
 31
0.0
  0
LINE
  5
1ED
330
17
100
AcDbEntity
  8
COTA
 62
0
370
25
100
AcDbLine
 10
4306.573959154009
 20
11914.60902540153
 30
0.0
 11
4303.573959154009
 21
11917.60902540153
 31
0.0
  0
LINE
  5
1EE
330
17
100
AcDbEntity
  8
COTA
 62
0
370
25
100
AcDbLine
 10
4303.573959154009
 20
11853.60902540153
 30
0.0
 11
4306.573959154009
 21
11850.60902540153
 31
0.0
  0
LINE
  5
1EF
330
17
100
AcDbEntity
  8
COTA
 62
4
370
25
100
AcDbLine
 10
4101.534511359884
 20
11849.1090254015
 30
0.0
 11
4101.534511359884
 21
11819.52796594935
 31
0.0
  0
LINE
  5
1F0
330
17
100
AcDbEntity
  8
COTA
 62
4
370
25
100
AcDbLine
 10
4162.48451135988
 20
11849.1090254015
 30
0.0
 11
4162.48451135988
 21
11819.52796594935
 31
0.0
  0
LINE
  5
1F1
330
17
100
AcDbEntity
  8
COTA
 62
4
370
25
100
AcDbLine
 10
4101.534511359884
 20
11822.52796594936
 30
0.0
 11
4162.48451135988
 21
11822.52796594936
 31
0.0
  0
LINE
  5
1F2
330
17
100
AcDbEntity
  8
COTA
 62
0
370
25
100
AcDbLine
 10
4103.034511359884
 20
11824.02796594936
 30
0.0
 11
4100.034511359884
 21
11821.02796594936
 31
0.0
  0
LINE
  5
1F3
330
17
100
AcDbEntity
  8
COTA
 62
0
370
25
100
AcDbLine
 10
4160.98451135988
 20
11821.02796594936
 30
0.0
 11
4163.98451135988
 21
11824.02796594936
 31
0.0
  0
LINE
  5
1F4
330
17
100
AcDbEntity
  8
COTA
 62
4
370
25
100
AcDbLine
 10
4162.484511359884
 20
11849.1090254015
 30
0.0
 11
4162.484511359884
 21
11819.52796594935
 31
0.0
  0
LINE
  5
1F5
330
17
100
AcDbEntity
  8
COTA
 62
4
370
25
100
AcDbLine
 10
4261.029511359876
 20
11849.10902540152
 30
0.0
 11
4261.029511359876
 21
11819.52796594935
 31
0.0
  0
LINE
  5
1F6
330
17
100
AcDbEntity
  8
COTA
 62
4
370
25
100
AcDbLine
 10
4162.484511359884
 20
11822.52796594936
 30
0.0
 11
4261.029511359876
 21
11822.52796594936
 31
0.0
  0
LINE
  5
1F7
330
17
100
AcDbEntity
  8
COTA
 62
0
370
25
100
AcDbLine
 10
4163.984511359884
 20
11824.02796594936
 30
0.0
 11
4160.984511359884
 21
11821.02796594936
 31
0.0
  0
LINE
  5
1F8
330
17
100
AcDbEntity
  8
COTA
 62
0
370
25
100
AcDbLine
 10
4259.529511359876
 20
11821.02796594936
 30
0.0
 11
4262.529511359876
 21
11824.02796594936
 31
0.0
  0
LINE
  5
1F9
330
17
100
AcDbEntity
  8
COTA
 62
4
370
25
100
AcDbLine
 10
4332.730585449477
 20
11849.1090254015
 30
0.0
 11
4332.730585449477
 21
11789.03058873461
 31
0.0
  0
LINE
  5
1FA
330
17
100
AcDbEntity
  8
COTA
 62
4
370
25
100
AcDbLine
 10
4510.725585449477
 20
11849.1090254015
 30
0.0
 11
4510.725585449477
 21
11789.03058873461
 31
0.0
  0
LINE
  5
1FB
330
17
100
AcDbEntity
  8
COTA
 62
4
370
25
100
AcDbLine
 10
4332.730585449477
 20
11792.0305887346
 30
0.0
 11
4510.725585449477
 21
11792.0305887346
 31
0.0
  0
LINE
  5
1FC
330
17
100
AcDbEntity
  8
COTA
 62
0
370
25
100
AcDbLine
 10
4334.230585449477
 20
11793.5305887346
 30
0.0
 11
4331.230585449477
 21
11790.5305887346
 31
0.0
  0
LINE
  5
1FD
330
17
100
AcDbEntity
  8
COTA
 62
0
370
25
100
AcDbLine
 10
4509.225585449477
 20
11790.5305887346
 30
0.0
 11
4512.225585449477
 21
11793.5305887346
 31
0.0
  0
LINE
  5
1FE
330
17
100
AcDbEntity
  8
COTA
 62
4
370
25
100
AcDbLine
 10
4508.725585449473
 20
11849.1090254015
 30
0.0
 11
4508.725585449473
 21
11832.4450779221
 31
0.0
  0
LINE
  5
1FF
330
17
100
AcDbEntity
  8
COTA
 62
4
370
25
100
AcDbLine
 10
4510.725585449473
 20
11849.1090254015
 30
0.0
 11
4510.725585449473
 21
11832.4450779221
 31
0.0
  0
LINE
  5
200
330
17
100
AcDbEntity
  8
COTA
 62
4
370
25
100
AcDbLine
 10
4508.725585449473
 20
11835.44507792209
 30
0.0
 11
4505.725585449473
 21
11835.44507792209
 31
0.0
  0
LINE
  5
201
330
17
100
AcDbEntity
  8
COTA
 62
4
370
25
100
AcDbLine
 10
4510.725585449473
 20
11835.44507792209
 30
0.0
 11
4528.836696560584
 21
11835.44507792209
 31
0.0
  0
LINE
  5
202
330
17
100
AcDbEntity
  8
COTA
 62
4
370
25
100
AcDbLine
 10
4508.725585449473
 20
11835.44507792209
 30
0.0
 11
4510.725585449473
 21
11835.44507792209
 31
0.0
  0
LINE
  5
203
330
17
100
AcDbEntity
  8
COTA
 62
0
370
25
100
AcDbLine
 10
4507.225585449473
 20
11833.94507792209
 30
0.0
 11
4510.225585449473
 21
11836.94507792209
 31
0.0
  0
LINE
  5
204
330
17
100
AcDbEntity
  8
COTA
 62
0
370
25
100
AcDbLine
 10
4512.225585449473
 20
11836.94507792209
 30
0.0
 11
4509.225585449473
 21
11833.94507792209
 31
0.0
  0
LINE
  5
205
330
17
100
AcDbEntity
  8
COTA
 62
4
370
25
100
AcDbLine
 10
4510.725585449477
 20
11849.1090254015
 30
0.0
 11
4510.725585449477
 21
11819.52796594935
 31
0.0
  0
LINE
  5
206
330
17
100
AcDbEntity
  8
COTA
 62
4
370
25
100
AcDbLine
 10
4454.775585449481
 20
11849.1090254015
 30
0.0
 11
4454.775585449481
 21
11819.52796594935
 31
0.0
  0
LINE
  5
207
330
17
100
AcDbEntity
  8
COTA
 62
4
370
25
100
AcDbLine
 10
4510.725585449477
 20
11822.52796594936
 30
0.0
 11
4454.775585449481
 21
11822.52796594936
 31
0.0
  0
LINE
  5
208
330
17
100
AcDbEntity
  8
COTA
 62
0
370
25
100
AcDbLine
 10
4509.225585449477
 20
11821.02796594936
 30
0.0
 11
4512.225585449477
 21
11824.02796594936
 31
0.0
  0
LINE
  5
209
330
17
100
AcDbEntity
  8
COTA
 62
0
370
25
100
AcDbLine
 10
4456.275585449481
 20
11824.02796594936
 30
0.0
 11
4453.275585449481
 21
11821.02796594936
 31
0.0
  0
LINE
  5
20A
330
17
100
AcDbEntity
  8
COTA
 62
4
370
25
100
AcDbLine
 10
4454.775585449477
 20
11849.1090254015
 30
0.0
 11
4454.775585449477
 21
11819.52796594935
 31
0.0
  0
LINE
  5
20B
330
17
100
AcDbEntity
  8
COTA
 62
4
370
25
100
AcDbLine
 10
4332.730585449485
 20
11849.10902540152
 30
0.0
 11
4332.730585449485
 21
11819.52796594935
 31
0.0
  0
LINE
  5
20C
330
17
100
AcDbEntity
  8
COTA
 62
4
370
25
100
AcDbLine
 10
4454.775585449477
 20
11822.52796594936
 30
0.0
 11
4332.730585449485
 21
11822.52796594936
 31
0.0
  0
LINE
  5
20D
330
17
100
AcDbEntity
  8
COTA
 62
0
370
25
100
AcDbLine
 10
4453.275585449477
 20
11821.02796594936
 30
0.0
 11
4456.275585449477
 21
11824.02796594936
 31
0.0
  0
LINE
  5
20E
330
17
100
AcDbEntity
  8
COTA
 62
0
370
25
100
AcDbLine
 10
4334.230585449485
 20
11824.02796594936
 30
0.0
 11
4331.230585449485
 21
11821.02796594936
 31
0.0
  0
LINE
  5
20F
330
17
100
AcDbEntity
  8
COTA
 62
4
370
25
100
AcDbLine
 10
4513.725585449487
 20
11899.10902540151
 30
0.0
 11
4536.154527569981
 21
11899.10902540151
 31
0.0
  0
LINE
  5
210
330
17
100
AcDbEntity
  8
COTA
 62
4
370
25
100
AcDbLine
 10
4513.725585449479
 20
11852.10902540153
 30
0.0
 11
4536.154527569981
 21
11852.10902540153
 31
0.0
  0
LINE
  5
211
330
17
100
AcDbEntity
  8
COTA
 62
4
370
25
100
AcDbLine
 10
4533.154527569981
 20
11899.10902540151
 30
0.0
 11
4533.154527569981
 21
11852.10902540153
 31
0.0
  0
LINE
  5
212
330
17
100
AcDbEntity
  8
COTA
 62
0
370
25
100
AcDbLine
 10
4534.654527569981
 20
11897.60902540151
 30
0.0
 11
4531.654527569981
 21
11900.60902540151
 31
0.0
  0
LINE
  5
213
330
17
100
AcDbEntity
  8
COTA
 62
0
370
25
100
AcDbLine
 10
4531.654527569981
 20
11853.60902540153
 30
0.0
 11
4534.654527569981
 21
11850.60902540153
 31
0.0
  0
LINE
  5
214
330
17
100
AcDbEntity
  8
COTA
 62
4
370
25
100
AcDbLine
 10
4513.725585449487
 20
11899.10902540151
 30
0.0
 11
4536.154527569981
 21
11899.10902540151
 31
0.0
  0
LINE
  5
215
330
17
100
AcDbEntity
  8
COTA
 62
4
370
25
100
AcDbLine
 10
4513.725585449479
 20
11916.10902540153
 30
0.0
 11
4536.154527569981
 21
11916.10902540153
 31
0.0
  0
LINE
  5
216
330
17
100
AcDbEntity
  8
COTA
 62
4
370
25
100
AcDbLine
 10
4533.154527569981
 20
11899.10902540151
 30
0.0
 11
4533.154527569981
 21
11916.10902540153
 31
0.0
  0
LINE
  5
217
330
17
100
AcDbEntity
  8
COTA
 62
0
370
25
100
AcDbLine
 10
4531.654527569981
 20
11900.60902540151
 30
0.0
 11
4534.654527569981
 21
11897.60902540151
 31
0.0
  0
LINE
  5
218
330
17
100
AcDbEntity
  8
COTA
 62
0
370
25
100
AcDbLine
 10
4534.654527569981
 20
11914.60902540153
 30
0.0
 11
4531.654527569981
 21
11917.60902540153
 31
0.0
  0
LINE
  5
219
330
17
100
AcDbEntity
  8
COTA
 62
4
370
25
100
AcDbLine
 10
4513.725585449479
 20
11916.10902540153
 30
0.0
 11
4557.770033243611
 21
11916.10902540153
 31
0.0
  0
LINE
  5
21A
330
17
100
AcDbEntity
  8
COTA
 62
4
370
25
100
AcDbLine
 10
4513.725585449479
 20
11852.10902540153
 30
0.0
 11
4557.770033243611
 21
11852.10902540153
 31
0.0
  0
LINE
  5
21B
330
17
100
AcDbEntity
  8
COTA
 62
4
370
25
100
AcDbLine
 10
4554.770033243611
 20
11916.10902540153
 30
0.0
 11
4554.770033243611
 21
11852.10902540153
 31
0.0
  0
LINE
  5
21C
330
17
100
AcDbEntity
  8
COTA
 62
0
370
25
100
AcDbLine
 10
4556.270033243611
 20
11914.60902540153
 30
0.0
 11
4553.270033243611
 21
11917.60902540153
 31
0.0
  0
LINE
  5
21D
330
17
100
AcDbEntity
  8
COTA
 62
0
370
25
100
AcDbLine
 10
4553.270033243611
 20
11853.60902540153
 30
0.0
 11
4556.270033243611
 21
11850.60902540153
 31
0.0
  0
LINE
  5
21E
330
17
100
AcDbEntity
  8
COTA
 62
4
370
25
100
AcDbLine
 10
3905.901448981449
 20
11651.5216198529
 30
0.0
 11
3905.901448981449
 21
11624.98169387474
 31
0.0
  0
LINE
  5
21F
330
17
100
AcDbEntity
  8
COTA
 62
4
370
25
100
AcDbLine
 10
3849.901448981449
 20
11651.52161985292
 30
0.0
 11
3849.901448981449
 21
11624.98169387474
 31
0.0
  0
LINE
  5
220
330
17
100
AcDbEntity
  8
COTA
 62
4
370
25
100
AcDbLine
 10
3905.901448981449
 20
11627.98169387474
 30
0.0
 11
3849.901448981449
 21
11627.98169387474
 31
0.0
  0
LINE
  5
221
330
17
100
AcDbEntity
  8
COTA
 62
0
370
25
100
AcDbLine
 10
3904.401448981449
 20
11626.48169387474
 30
0.0
 11
3907.401448981449
 21
11629.48169387474
 31
0.0
  0
LINE
  5
222
330
17
100
AcDbEntity
  8
COTA
 62
0
370
25
100
AcDbLine
 10
3851.401448981449
 20
11629.48169387474
 30
0.0
 11
3848.401448981449
 21
11626.48169387474
 31
0.0
  0
LINE
  5
223
330
17
100
AcDbEntity
  8
COTA
 62
4
370
25
100
AcDbLine
 10
3849.901448981449
 20
11651.52161985292
 30
0.0
 11
3849.901448981449
 21
11624.98169387475
 31
0.0
  0
LINE
  5
224
330
17
100
AcDbEntity
  8
COTA
 62
4
370
25
100
AcDbLine
 10
3603.90144898145
 20
11651.52161985292
 30
0.0
 11
3603.90144898145
 21
11624.98169387475
 31
0.0
  0
LINE
  5
225
330
17
100
AcDbEntity
  8
COTA
 62
4
370
25
100
AcDbLine
 10
3849.901448981449
 20
11627.98169387475
 30
0.0
 11
3603.90144898145
 21
11627.98169387475
 31
0.0
  0
LINE
  5
226
330
17
100
AcDbEntity
  8
COTA
 62
0
370
25
100
AcDbLine
 10
3848.401448981449
 20
11626.48169387475
 30
0.0
 11
3851.401448981449
 21
11629.48169387475
 31
0.0
  0
LINE
  5
227
330
17
100
AcDbEntity
  8
COTA
 62
0
370
25
100
AcDbLine
 10
3605.40144898145
 20
11629.48169387475
 30
0.0
 11
3602.40144898145
 21
11626.48169387475
 31
0.0
  0
LINE
  5
228
330
17
100
AcDbEntity
  8
COTA
 62
4
370
25
100
AcDbLine
 10
3905.901448981449
 20
11651.5216198529
 30
0.0
 11
3905.901448981449
 21
11591.44318318602
 31
0.0
  0
LINE
  5
229
330
17
100
AcDbEntity
  8
COTA
 62
4
370
25
100
AcDbLine
 10
3603.90144898145
 20
11651.52161985292
 30
0.0
 11
3603.90144898145
 21
11591.44318318602
 31
0.0
  0
LINE
  5
22A
330
17
100
AcDbEntity
  8
COTA
 62
4
370
25
100
AcDbLine
 10
3605.901448981453
 20
11651.52161985291
 30
0.0
 11
3605.901448981453
 21
11634.85767237351
 31
0.0
  0
LINE
  5
22B
330
17
100
AcDbEntity
  8
COTA
 62
4
370
25
100
AcDbLine
 10
3603.901448981453
 20
11651.52161985291
 30
0.0
 11
3603.901448981453
 21
11634.85767237351
 31
0.0
  0
LINE
  5
22C
330
17
100
AcDbEntity
  8
COTA
 62
4
370
25
100
AcDbLine
 10
3605.901448981453
 20
11637.85767237351
 30
0.0
 11
3608.901448981453
 21
11637.85767237351
 31
0.0
  0
LINE
  5
22D
330
17
100
AcDbEntity
  8
COTA
 62
4
370
25
100
AcDbLine
 10
3603.901448981453
 20
11637.85767237351
 30
0.0
 11
3585.790337870342
 21
11637.85767237351
 31
0.0
  0
LINE
  5
22E
330
17
100
AcDbEntity
  8
COTA
 62
4
370
25
100
AcDbLine
 10
3605.901448981453
 20
11637.85767237351
 30
0.0
 11
3603.901448981453
 21
11637.85767237351
 31
0.0
  0
LINE
  5
22F
330
17
100
AcDbEntity
  8
COTA
 62
0
370
25
100
AcDbLine
 10
3607.401448981453
 20
11639.35767237351
 30
0.0
 11
3604.401448981453
 21
11636.35767237351
 31
0.0
  0
LINE
  5
230
330
17
100
AcDbEntity
  8
COTA
 62
0
370
25
100
AcDbLine
 10
3602.401448981453
 20
11636.35767237351
 30
0.0
 11
3605.401448981453
 21
11639.35767237351
 31
0.0
  0
LINE
  5
231
330
17
100
AcDbEntity
  8
COTA
 62
4
370
25
100
AcDbLine
 10
3908.901448981456
 20
11701.52161985293
 30
0.0
 11
3931.330391101944
 21
11701.52161985293
 31
0.0
  0
LINE
  5
232
330
17
100
AcDbEntity
  8
COTA
 62
4
370
25
100
AcDbLine
 10
3908.901448981448
 20
11654.52161985294
 30
0.0
 11
3931.330391101944
 21
11654.52161985294
 31
0.0
  0
LINE
  5
233
330
17
100
AcDbEntity
  8
COTA
 62
4
370
25
100
AcDbLine
 10
3928.330391101944
 20
11701.52161985293
 30
0.0
 11
3928.330391101944
 21
11654.52161985294
 31
0.0
  0
LINE
  5
234
330
17
100
AcDbEntity
  8
COTA
 62
0
370
25
100
AcDbLine
 10
3929.830391101944
 20
11700.02161985293
 30
0.0
 11
3926.830391101944
 21
11703.02161985293
 31
0.0
  0
LINE
  5
235
330
17
100
AcDbEntity
  8
COTA
 62
0
370
25
100
AcDbLine
 10
3926.830391101944
 20
11656.02161985294
 30
0.0
 11
3929.830391101944
 21
11653.02161985294
 31
0.0
  0
LINE
  5
236
330
17
100
AcDbEntity
  8
COTA
 62
4
370
25
100
AcDbLine
 10
3908.901448981456
 20
11701.52161985293
 30
0.0
 11
3931.330391101944
 21
11701.52161985293
 31
0.0
  0
LINE
  5
237
330
17
100
AcDbEntity
  8
COTA
 62
4
370
25
100
AcDbLine
 10
3908.901448981448
 20
11718.52161985294
 30
0.0
 11
3931.330391101944
 21
11718.52161985294
 31
0.0
  0
LINE
  5
238
330
17
100
AcDbEntity
  8
COTA
 62
4
370
25
100
AcDbLine
 10
3928.330391101944
 20
11701.52161985293
 30
0.0
 11
3928.330391101944
 21
11718.52161985294
 31
0.0
  0
LINE
  5
239
330
17
100
AcDbEntity
  8
COTA
 62
0
370
25
100
AcDbLine
 10
3926.830391101944
 20
11703.02161985293
 30
0.0
 11
3929.830391101944
 21
11700.02161985293
 31
0.0
  0
LINE
  5
23A
330
17
100
AcDbEntity
  8
COTA
 62
0
370
25
100
AcDbLine
 10
3929.830391101944
 20
11717.02161985294
 30
0.0
 11
3926.830391101944
 21
11720.02161985294
 31
0.0
  0
LINE
  5
23B
330
17
100
AcDbEntity
  8
COTA
 62
4
370
25
100
AcDbLine
 10
3908.901448981448
 20
11718.52161985294
 30
0.0
 11
3952.945896775577
 21
11718.52161985294
 31
0.0
  0
LINE
  5
23C
330
17
100
AcDbEntity
  8
COTA
 62
4
370
25
100
AcDbLine
 10
3908.901448981448
 20
11654.52161985294
 30
0.0
 11
3952.945896775577
 21
11654.52161985294
 31
0.0
  0
LINE
  5
23D
330
17
100
AcDbEntity
  8
COTA
 62
4
370
25
100
AcDbLine
 10
3949.945896775577
 20
11718.52161985294
 30
0.0
 11
3949.945896775577
 21
11654.52161985294
 31
0.0
  0
LINE
  5
23E
330
17
100
AcDbEntity
  8
COTA
 62
0
370
25
100
AcDbLine
 10
3951.445896775577
 20
11717.02161985294
 30
0.0
 11
3948.445896775577
 21
11720.02161985294
 31
0.0
  0
LINE
  5
23F
330
17
100
AcDbEntity
  8
COTA
 62
0
370
25
100
AcDbLine
 10
3948.445896775577
 20
11656.02161985294
 30
0.0
 11
3951.445896775577
 21
11653.02161985294
 31
0.0
  0
LINE
  5
240
330
17
100
AcDbEntity
  8
Texto Seção
 62
252
370
15
100
AcDbLine
 10
3428.868535438826
 20
12202.12446156657
 30
0.0
 11
3428.868535438826
 21
12327.12446156657
 31
0.0
  0
LINE
  5
241
330
17
100
AcDbEntity
  8
presilha
 62
1
370
25
100
AcDbLine
 10
3385.8013363042865
 20
12073.49112823326
 30
0.0
 11
3385.8013363042865
 21
12068.891288233275
 31
0.0
  0
LINE
  5
242
330
17
100
AcDbEntity
  8
presilha
 62
1
370
25
100
AcDbLine
 10
3385.8013363042865
 20
12068.891288233275
 30
0.0
 11
3365.8009717999344
 21
12068.891288233268
 31
0.0
  0
LINE
  5
243
330
17
100
AcDbEntity
  8
presilha
 62
1
370
25
100
AcDbLine
 10
3364.8009717999344
 20
12076.491128233261
 30
0.0
 11
3365.8009717999344
 21
12076.491128233261
 31
0.0
  0
LINE
  5
244
330
17
100
AcDbEntity
  8
presilha
 62
1
370
25
100
AcDbLine
 10
3365.8009717999344
 20
12076.491128233261
 30
0.0
 11
3365.8009717999344
 21
12064.491128233261
 31
0.0
  0
LINE
  5
245
330
17
100
AcDbEntity
  8
presilha
 62
1
370
25
100
AcDbLine
 10
3365.8009717999344
 20
12064.491128233261
 30
0.0
 11
3364.8009717999344
 21
12064.491128233261
 31
0.0
  0
LINE
  5
246
330
17
100
AcDbEntity
  8
presilha
 62
1
370
25
100
AcDbLine
 10
3364.8009717999344
 20
12064.491128233261
 30
0.0
 11
3364.8009717999344
 21
12076.491128233261
 31
0.0
  0
LINE
  5
247
330
17
100
AcDbEntity
  8
presilha
 62
1
370
25
100
AcDbLine
 10
3368.8009717999325
 20
12080.157794899927
 30
0.0
 11
3368.8009717999325
 21
12079.157794899927
 31
0.0
  0
LINE
  5
248
330
17
100
AcDbEntity
  8
presilha
 62
1
370
25
100
AcDbLine
 10
3385.8013363042865
 20
12073.49112823326
 30
0.0
 11
3367.181336304287
 21
12073.49112823326
 31
0.0
  0
LINE
  5
249
330
17
100
AcDbEntity
  8
presilha
 62
1
370
25
100
AcDbLine
 10
3365.8013363042865
 20
12073.25112823326
 30
0.0
 11
3365.8009717999325
 21
12079.397794899929
 31
0.0
  0
LINE
  5
24A
330
17
100
AcDbEntity
  8
presilha
 62
1
370
25
100
AcDbLine
 10
3366.801336304286
 20
12073.87112823326
 30
0.0
 11
3366.8009717999325
 21
12078.777794899926
 31
0.0
  0
LINE
  5
24B
330
17
100
AcDbEntity
  8
presilha
 62
1
370
25
100
AcDbLine
 10
3368.8009717999325
 20
12080.157794899927
 30
0.0
 11
3366.5609717999127
 21
12080.157794899927
 31
0.0
  0
LINE
  5
24C
330
17
100
AcDbEntity
  8
presilha
 62
1
370
25
100
AcDbLine
 10
3368.8009717999325
 20
12079.157794899927
 30
0.0
 11
3367.180971799933
 21
12079.157794899927
 31
0.0
  0
LINE
  5
24D
330
17
100
AcDbEntity
  8
presilha
 62
1
370
25
100
AcDbLine
 10
3360.800971799934
 20
12074.824461566595
 30
0.0
 11
3364.800971799934
 21
12074.824461566595
 31
0.0
  0
LINE
  5
24E
330
17
100
AcDbEntity
  8
presilha
 62
1
370
25
100
AcDbLine
 10
3364.800971799934
 20
12074.824461566595
 30
0.0
 11
3364.800971799934
 21
12066.15779489993
 31
0.0
  0
LINE
  5
24F
330
17
100
AcDbEntity
  8
presilha
 62
1
370
25
100
AcDbLine
 10
3364.800971799934
 20
12066.15779489993
 30
0.0
 11
3360.800971799934
 21
12066.15779489993
 31
0.0
  0
LINE
  5
250
330
17
100
AcDbEntity
  8
presilha
 62
1
370
25
100
AcDbLine
 10
3360.800971799934
 20
12074.824461566595
 30
0.0
 11
3360.800971799934
 21
12066.15779489993
 31
0.0
  0
LINE
  5
251
330
17
100
AcDbEntity
  8
presilha
 62
1
370
25
100
AcDbLine
 10
3467.5357345733705
 20
12073.49112823326
 30
0.0
 11
3467.5357345733705
 21
12068.891288233275
 31
0.0
  0
LINE
  5
252
330
17
100
AcDbEntity
  8
presilha
 62
1
370
25
100
AcDbLine
 10
3467.5357345733705
 20
12068.891288233275
 30
0.0
 11
3487.5360990777226
 21
12068.891288233268
 31
0.0
  0
LINE
  5
253
330
17
100
AcDbEntity
  8
presilha
 62
1
370
25
100
AcDbLine
 10
3488.5360990777226
 20
12076.491128233261
 30
0.0
 11
3487.5360990777226
 21
12076.491128233261
 31
0.0
  0
LINE
  5
254
330
17
100
AcDbEntity
  8
presilha
 62
1
370
25
100
AcDbLine
 10
3487.5360990777226
 20
12076.491128233261
 30
0.0
 11
3487.5360990777226
 21
12064.491128233261
 31
0.0
  0
LINE
  5
255
330
17
100
AcDbEntity
  8
presilha
 62
1
370
25
100
AcDbLine
 10
3487.5360990777226
 20
12064.491128233261
 30
0.0
 11
3488.5360990777226
 21
12064.491128233261
 31
0.0
  0
LINE
  5
256
330
17
100
AcDbEntity
  8
presilha
 62
1
370
25
100
AcDbLine
 10
3488.5360990777226
 20
12064.491128233261
 30
0.0
 11
3488.5360990777226
 21
12076.491128233261
 31
0.0
  0
LINE
  5
257
330
17
100
AcDbEntity
  8
presilha
 62
1
370
25
100
AcDbLine
 10
3484.5360990777244
 20
12080.157794899927
 30
0.0
 11
3484.5360990777244
 21
12079.157794899927
 31
0.0
  0
LINE
  5
258
330
17
100
AcDbEntity
  8
presilha
 62
1
370
25
100
AcDbLine
 10
3467.5357345733705
 20
12073.49112823326
 30
0.0
 11
3486.15573457337
 21
12073.49112823326
 31
0.0
  0
LINE
  5
259
330
17
100
AcDbEntity
  8
presilha
 62
1
370
25
100
AcDbLine
 10
3487.5357345733705
 20
12073.25112823326
 30
0.0
 11
3487.5360990777244
 21
12079.397794899929
 31
0.0
  0
LINE
  5
25A
330
17
100
AcDbEntity
  8
presilha
 62
1
370
25
100
AcDbLine
 10
3486.535734573371
 20
12073.87112823326
 30
0.0
 11
3486.5360990777244
 21
12078.777794899926
 31
0.0
  0
LINE
  5
25B
330
17
100
AcDbEntity
  8
presilha
 62
1
370
25
100
AcDbLine
 10
3484.5360990777244
 20
12080.157794899927
 30
0.0
 11
3486.776099077744
 21
12080.157794899927
 31
0.0
  0
LINE
  5
25C
330
17
100
AcDbEntity
  8
presilha
 62
1
370
25
100
AcDbLine
 10
3484.5360990777244
 20
12079.157794899927
 30
0.0
 11
3486.156099077724
 21
12079.157794899927
 31
0.0
  0
LINE
  5
25D
330
17
100
AcDbEntity
  8
presilha
 62
1
370
25
100
AcDbLine
 10
3492.536099077723
 20
12074.824461566595
 30
0.0
 11
3488.536099077723
 21
12074.824461566595
 31
0.0
  0
LINE
  5
25E
330
17
100
AcDbEntity
  8
presilha
 62
1
370
25
100
AcDbLine
 10
3488.536099077723
 20
12074.824461566595
 30
0.0
 11
3488.536099077723
 21
12066.15779489993
 31
0.0
  0
LINE
  5
25F
330
17
100
AcDbEntity
  8
presilha
 62
1
370
25
100
AcDbLine
 10
3488.536099077723
 20
12066.15779489993
 30
0.0
 11
3492.536099077723
 21
12066.15779489993
 31
0.0
  0
LINE
  5
260
330
17
100
AcDbEntity
  8
presilha
 62
1
370
25
100
AcDbLine
 10
3492.536099077723
 20
12074.824461566595
 30
0.0
 11
3492.536099077723
 21
12066.15779489993
 31
0.0
  0
LWPOLYLINE
  5
261
330
17
100
AcDbEntity
  8
Painéis
 62
200
370
25
100
AcDbPolyline
 90
4
 70
1
 10
3403.668535438828
 20
12170.12446156654
 10
3407.668535438828
 20
12170.12446156654
 10
3407.668535438828
 20
12074.12446156657
 10
3403.668535438828
 20
12074.12446156657
  0
LWPOLYLINE
  5
262
330
17
100
AcDbEntity
  8
Madeira
 62
126
370
18
100
AcDbPolyline
 90
4
 70
1
 10
3403.668535438828
 20
12165.72446156654
 10
3403.668535438828
 20
12170.12446156654
 10
3389.668535438828
 20
12170.12446156654
 10
3389.668535438828
 20
12165.72446156654
  0
LWPOLYLINE
  5
263
330
17
100
AcDbEntity
  8
Madeira
 62
126
370
18
100
AcDbPolyline
 90
4
 70
1
 10
3369.668535438829
 20
12074.12446156657
 10
3369.668535438829
 20
12078.52446156656
 10
3389.668535438828
 20
12078.52446156656
 10
3389.668535438828
 20
12074.12446156657
  0
LWPOLYLINE
  5
264
330
17
100
AcDbEntity
  8
Madeira
 62
126
370
18
100
AcDbPolyline
 90
4
 70
1
 10
3403.668535438828
 20
12170.12446156654
 10
3389.668535438828
 20
12170.12446156654
 10
3389.668535438828
 20
12074.12446156657
 10
3403.668535438828
 20
12074.12446156657
  0
LWPOLYLINE
  5
265
330
17
100
AcDbEntity
  8
Madeira
 62
126
370
18
100
AcDbPolyline
 90
4
 70
1
 10
3445.668535438829
 20
12074.12446156657
 10
3445.668535438829
 20
12078.52446156656
 10
3431.668535438828
 20
12078.52446156656
 10
3431.668535438828
 20
12074.12446156657
  0
LWPOLYLINE
  5
266
330
17
100
AcDbEntity
  8
Painéis
 62
200
370
25
100
AcDbPolyline
 90
4
 70
1
 10
3445.668535438829
 20
12078.52446156656
 10
3445.668535438829
 20
12082.12446156657
 10
3407.668535438828
 20
12082.12446156657
 10
3407.668535438828
 20
12078.52446156656
  0
LWPOLYLINE
  5
267
330
17
100
AcDbEntity
  8
Madeira
 62
126
370
18
100
AcDbPolyline
 90
4
 70
1
 10
3407.668535438828
 20
12074.12446156657
 10
3407.668535438828
 20
12078.52446156656
 10
3421.668535438828
 20
12078.52446156656
 10
3421.668535438828
 20
12074.12446156657
  0
LWPOLYLINE
  5
268
330
17
100
AcDbEntity
  8
Painéis
 62
200
370
25
100
AcDbPolyline
 90
4
 70
1
 10
3449.668535438828
 20
12170.12446156654
 10
3445.668535438829
 20
12170.12446156654
 10
3445.668535438829
 20
12074.12446156657
 10
3449.668535438828
 20
12074.12446156657
  0
LWPOLYLINE
  5
269
330
17
100
AcDbEntity
  8
Painéis
 62
200
370
25
100
AcDbPolyline
 90
4
 70
1
 10
3505.668535438799
 20
12170.12446156654
 10
3505.668535438799
 20
12174.12446156654
 10
3445.668535438829
 20
12174.12446156654
 10
3445.668535438829
 20
12170.12446156654
  0
LWPOLYLINE
  5
26A
330
17
100
AcDbEntity
  8
Madeira
 62
126
370
18
100
AcDbPolyline
 90
4
 70
1
 10
3449.668535438828
 20
12165.72446156654
 10
3449.668535438828
 20
12170.12446156654
 10
3463.668535438829
 20
12170.12446156654
 10
3463.668535438829
 20
12165.72446156654
  0
LWPOLYLINE
  5
26B
330
17
100
AcDbEntity
  8
Madeira
 62
126
370
18
100
AcDbPolyline
 90
4
 70
1
 10
3483.668535438829
 20
12074.12446156657
 10
3483.668535438829
 20
12078.52446156656
 10
3463.668535438829
 20
12078.52446156656
 10
3463.668535438829
 20
12074.12446156657
  0
LWPOLYLINE
  5
26C
330
17
100
AcDbEntity
  8
Madeira
 62
126
370
18
100
AcDbPolyline
 90
4
 70
1
 10
3449.668535438828
 20
12170.12446156654
 10
3463.668535438829
 20
12170.12446156654
 10
3463.668535438829
 20
12074.12446156657
 10
3449.668535438828
 20
12074.12446156657
  0
LWPOLYLINE
  5
26D
330
17
100
AcDbEntity
  8
Painéis
 62
200
370
25
100
AcDbPolyline
 90
4
 70
1
 10
3407.668535438828
 20
12170.12446156654
 10
3407.668535438828
 20
12174.12446156654
 10
3352.068535438852
 20
12174.12446156654
 10
3352.068535438852
 20
12170.12446156654
  0
LWPOLYLINE
  5
26E
330
17
100
AcDbEntity
  8
CONCRETO
 62
251
370
25
100
AcDbPolyline
 90
8
 70
1
 10
3352.068535438852
 20
12174.12446156654
 10
3352.068535438852
 20
12202.12446156657
 10
3505.668535438799
 20
12202.12446156657
 10
3505.668535438799
 20
12174.12446156655
 10
3445.668535438829
 20
12174.12446156655
 10
3445.66853543877
 20
12082.12446156657
 10
3407.668535438828
 20
12082.12446156657
 10
3407.668535438828
 20
12174.12446156654
  0
LWPOLYLINE
  5
26F
330
17
100
AcDbEntity
  8
barrote
 62
251
370
25
100
AcDbPolyline
 90
4
 70
1
 10
3336.213337766935
 20
12054.12446156661
 10
3531.396278276628
 20
12054.12446156661
 10
3531.396278276628
 20
12074.12446156657
 10
3336.213337766935
 20
12074.12446156657
  0
LWPOLYLINE
  5
270
330
17
100
AcDbEntity
  8
SCO-___-LAJ
 62
1
370
0
100
AcDbPolyline
 90
4
 70
1
 10
3345.215605182395
 20
12072.79104823324
 10
3512.521465695256
 20
12072.79104823323
 10
3512.521465695256
 20
12069.59136823326
 10
3345.215605182395
 20
12069.59136823326
  0
LWPOLYLINE
  5
271
330
17
100
AcDbEntity
  8
Cotas
 62
1
370
25
100
AcDbPolyline
 90
4
 70
1
 10
3304.286642700053
 20
11752.49741093234
 10
3486.251444635839
 20
11752.49741093234
 10
3486.251444635839
 20
11651.0613428237
 10
3304.286642700053
 20
11651.0613428237
  0
LWPOLYLINE
  5
272
330
17
100
AcDbEntity
  8
Madeira
 62
126
370
18
100
AcDbPolyline
 90
4
 70
1
 10
3365.269577649883
 20
11701.49818591787
 10
3365.269577649883
 20
11715.49818591787
 10
3358.269577649882
 20
11715.49818591787
 10
3358.269577649882
 20
11701.49818591787
  0
LWPOLYLINE
  5
273
330
17
100
AcDbEntity
  8
Madeira
 62
126
370
18
100
AcDbPolyline
 90
3
 70
0
 10
3365.269577649883
 20
11715.49818591787
 10
3365.269577649883
 20
11701.49818591787
 10
3333.793508109995
 20
11701.49818591787
  0
LWPOLYLINE
  5
274
330
17
100
AcDbEntity
  8
Madeira
 62
126
370
18
100
AcDbPolyline
 90
4
 70
1
 10
3389.653001491881
 20
11715.49818591788
 10
3403.632364449464
 20
11715.49818591788
 10
3403.632364449464
 20
11711.09818591788
 10
3389.653001491881
 20
11711.09818591788
  0
LWPOLYLINE
  5
275
330
17
100
AcDbEntity
  8
Painéis
 62
200
370
25
100
AcDbPolyline
 90
4
 70
1
 10
3403.632364449464
 20
11719.09818591787
 10
3407.232364449467
 20
11719.09818591787
 10
3407.232364449467
 20
11676.09818591787
 10
3403.632364449464
 20
11676.09818591787
  0
LWPOLYLINE
  5
276
330
17
100
AcDbEntity
  8
Madeira
 62
126
370
18
100
AcDbPolyline
 90
4
 70
1
 10
3407.232364449467
 20
11676.09818591787
 10
3407.232364449467
 20
11690.07754887545
 10
3411.632364449468
 20
11690.07754887545
 10
3411.632364449468
 20
11676.09818591787
  0
LWPOLYLINE
  5
277
330
17
100
AcDbEntity
  8
Painéis
 62
200
370
25
100
AcDbPolyline
 90
4
 70
1
 10
4015.534511359881
 20
12281.10992914501
 10
4102.534511359881
 20
12281.10992914501
 10
4102.534511359881
 20
12234.10992914501
 10
4015.534511359881
 20
12234.10992914501
  0
LWPOLYLINE
  5
278
330
17
100
AcDbEntity
  8
Painéis
 62
200
370
25
100
AcDbPolyline
 90
4
 70
1
 10
4101.534511359884
 20
11902.1090254015
 10
4261.029511359884
 20
11902.1090254015
 10
4261.029511359884
 20
11852.1090254015
 10
4101.534511359884
 20
11852.1090254015
  0
LWPOLYLINE
  5
279
330
17
100
AcDbEntity
  8
Painéis
 62
200
370
25
100
AcDbPolyline
 90
4
 70
1
 10
4510.725585449477
 20
11899.1090254015
 10
4332.730585449477
 20
11899.1090254015
 10
4332.730585449477
 20
11852.1090254015
 10
4510.725585449477
 20
11852.1090254015
  0
LWPOLYLINE
  5
27A
330
17
100
AcDbEntity
  8
COTA
 62
0
370
25
100
AcDbPolyline
 90
2
 70
0
 10
3525.040268196683
 20
12199.62446156656
 10
3520.040268196683
 20
12204.62446156656
  0
LWPOLYLINE
  5
27B
330
17
100
AcDbEntity
  8
COTA
 62
0
370
25
100
AcDbPolyline
 90
2
 70
0
 10
3520.040268196683
 20
12176.62446156655
 10
3525.040268196683
 20
12171.62446156655
  0
LWPOLYLINE
  5
27C
330
17
100
AcDbEntity
  8
COTA
 62
0
370
25
100
AcDbPolyline
 90
2
 70
0
 10
3297.191812349595
 20
12076.62446156657
 10
3302.191812349595
 20
12071.62446156657
  0
LWPOLYLINE
  5
27D
330
17
100
AcDbEntity
  8
COTA
 62
0
370
25
100
AcDbPolyline
 90
2
 70
0
 10
3302.191812349595
 20
12199.62446156656
 10
3297.191812349595
 20
12204.62446156656
  0
LWPOLYLINE
  5
27E
330
17
100
AcDbEntity
  8
COTA
 62
0
370
25
100
AcDbPolyline
 90
2
 70
0
 10
3520.040268197098
 20
12076.62446156657
 10
3525.040268197098
 20
12071.62446156657
  0
LWPOLYLINE
  5
27F
330
17
100
AcDbEntity
  8
COTA
 62
0
370
25
100
AcDbPolyline
 90
2
 70
0
 10
3525.040268197098
 20
12167.62446156655
 10
3520.040268197098
 20
12172.62446156655
  0
LWPOLYLINE
  5
280
330
17
100
AcDbEntity
  8
COTA
 62
0
370
25
100
AcDbPolyline
 90
2
 70
0
 10
3321.511240835056
 20
12199.62446156656
 10
3316.511240835056
 20
12204.62446156656
  0
LWPOLYLINE
  5
281
330
17
100
AcDbEntity
  8
COTA
 62
0
370
25
100
AcDbPolyline
 90
2
 70
0
 10
3316.511240835056
 20
12176.62446156654
 10
3321.511240835056
 20
12171.62446156654
  0
LWPOLYLINE
  5
282
330
17
100
AcDbEntity
  8
COTA
 62
0
370
25
100
AcDbPolyline
 90
2
 70
0
 10
3321.511240835384
 20
12167.62446156654
 10
3316.511240835384
 20
12172.62446156654
  0
LWPOLYLINE
  5
283
330
17
100
AcDbEntity
  8
COTA
 62
0
370
25
100
AcDbPolyline
 90
2
 70
0
 10
3316.511240835384
 20
12076.62446156657
 10
3321.511240835384
 20
12071.62446156657
  0
LWPOLYLINE
  5
284
330
17
100
AcDbEntity
  8
COTA
 62
0
370
25
100
AcDbPolyline
 90
2
 70
0
 10
3410.168535438828
 20
12031.89764776437
 10
3405.168535438828
 20
12026.89764776437
  0
LWPOLYLINE
  5
285
330
17
100
AcDbEntity
  8
COTA
 62
0
370
25
100
AcDbPolyline
 90
2
 70
0
 10
3443.168535438829
 20
12026.89764776437
 10
3448.168535438829
 20
12031.89764776437
  0
LWPOLYLINE
  5
286
330
17
100
AcDbEntity
  8
COTA
 62
0
370
25
100
AcDbPolyline
 90
2
 70
0
 10
3338.310627991356
 20
12121.59451909486
 10
3333.310627991356
 20
12126.59451909486
  0
LWPOLYLINE
  5
287
330
17
100
AcDbEntity
  8
COTA
 62
0
370
25
100
AcDbPolyline
 90
2
 70
0
 10
3333.310627991356
 20
12076.6244615666
 10
3338.310627991356
 20
12071.6244615666
  0
LWPOLYLINE
  5
288
330
17
100
AcDbEntity
  8
COTA
 62
0
370
25
100
AcDbPolyline
 90
2
 70
0
 10
3436.473825560831
 20
11717.09818591787
 10
3432.473825560831
 20
11721.09818591787
  0
LWPOLYLINE
  5
289
330
17
100
AcDbEntity
  8
COTA
 62
0
370
25
100
AcDbPolyline
 90
2
 70
0
 10
3432.473825560831
 20
11678.09818591787
 10
3436.473825560831
 20
11674.09818591787
  0
TEXT
  5
28A
330
17
100
AcDbEntity
  8
detalhes
 62
4
370
25
100
AcDbText
 10
3454.383018614866
 20
12092.31413309585
 30
0.0
 40
9.600000000000001
  1
b
100
AcDbText
  0
TEXT
  5
28B
330
17
100
AcDbEntity
  8
detalhes
 62
4
370
25
100
AcDbText
 10
3391.83935996913
 20
12092.32519054142
 30
0.0
 40
9.600000000000001
  1
a
100
AcDbText
  0
TEXT
  5
28C
330
17
100
AcDbEntity
  8
detalhes
 62
4
370
25
100
AcDbText
 10
3418.268801054273
 20
12084.3602150864
 30
0.0
 40
9.600000000000001
  1
c
100
AcDbText
  0
TEXT
  5
28D
330
17
100
AcDbEntity
  8
texto
 62
2
370
25
100
AcDbText
 10
3794.377650291279
 20
12255.33042602808
 30
0.0
 40
8.0
  1
8 1/2pont
100
AcDbText
  0
TEXT
  5
28E
330
17
100
AcDbEntity
  8
5
 62
5
370
25
100
AcDbText
 10
3895.260136282728
 20
12152.06506496899
 30
0.0
 40
12.0
  1
P15
 50
3.55024762388e-05
100
AcDbText
  0
TEXT
  5
28F
330
17
100
AcDbEntity
  8
5
 62
5
370
25
100
AcDbText
 10
3625.099175682697
 20
12156.1054307122
 30
0.0
 40
12.0
  1
CORT.
 50
359.9999644975238
100
AcDbText
  0
TEXT
  5
290
330
17
100
AcDbEntity
  8
Texto Seção
 62
7
370
15
100
AcDbText
 10
3629.13699334468
 20
12302.7923288805
 30
0.0
 40
13.0
  1
V123.A
100
AcDbText
  0
TEXT
  5
291
330
17
100
AcDbEntity
  8
TEXTO PILAR
 62
3
370
15
100
AcDbText
 10
3392.912282918742
 20
11739.75388387408
 30
0.0
 40
12.0
  1
MOSCA DE 21.5cm
100
AcDbText
  0
TEXT
  5
292
330
17
100
AcDbEntity
  8
NOMENCLATURA
 62
7
370
25
100
AcDbText
 10
3937.608342883436
 20
12167.98607395217
 30
0.0
 40
16.49999175001634
  1
M21.5
100
AcDbText
  0
TEXT
  5
293
330
17
100
AcDbEntity
  8
5
 62
5
370
25
100
AcDbText
 10
4359.996096601689
 20
12154.4024207051
 30
0.0
 40
12.0
  1
P23
 50
3.55024762388e-05
100
AcDbText
  0
TEXT
  5
294
330
17
100
AcDbEntity
  8
texto
 62
2
370
25
100
AcDbText
 10
4242.384905808047
 20
12257.33042602809
 30
0.0
 40
8.0
  1
5 1/2pont
100
AcDbText
  0
TEXT
  5
295
330
17
100
AcDbEntity
  8
texto
 62
2
370
25
100
AcDbText
 10
4340.798783190077
 20
12257.33042602809
 30
0.0
 40
8.0
  1
4 1/2pont
100
AcDbText
  0
TEXT
  5
296
330
17
100
AcDbEntity
  8
texto
 62
2
370
25
100
AcDbText
 10
3888.378070531997
 20
12067.56098072036
 30
0.0
 40
8.0
  1
8 1/2pont
100
AcDbText
  0
TEXT
  5
297
330
17
100
AcDbEntity
  8
5
 62
5
370
25
100
AcDbText
 10
3614.228950568402
 20
11964.29563844814
 30
0.0
 40
12.0
  1
P23
 50
359.9999644975238
100
AcDbText
  0
TEXT
  5
298
330
17
100
AcDbEntity
  8
5
 62
5
370
25
100
AcDbText
 10
3985.802008589323
 20
11968.33596802765
 30
0.0
 40
12.0
  1
P32
 50
3.55024762388e-05
100
AcDbText
  0
TEXT
  5
299
330
17
100
AcDbEntity
  8
NOMENCLATURA
 62
7
370
25
100
AcDbText
 10
3537.348034238088
 20
11969.40684761423
 30
0.0
 40
16.49999175001634
  1
M21.5
100
AcDbText
  0
TEXT
  5
29A
330
17
100
AcDbEntity
  8
texto
 62
2
370
25
100
AcDbText
 10
3691.317451511162
 20
12067.56098072036
 30
0.0
 40
8.0
  1
5 1/2pont
100
AcDbText
  0
TEXT
  5
29B
330
17
100
AcDbEntity
  8
Texto Seção
 62
7
370
15
100
AcDbText
 10
3619.136993344681
 20
12115.27195487762
 30
0.0
 40
13.0
  1
CONT. V123.A
100
AcDbText
  0
TEXT
  5
29C
330
17
100
AcDbEntity
  8
5
 62
5
370
25
100
AcDbText
 10
4127.749736379295
 20
12152.06506496899
 30
0.0
 40
12.0
  1
V103
 50
3.55024762388e-05
100
AcDbText
  0
TEXT
  5
29D
330
17
100
AcDbEntity
  8
texto
 62
2
370
25
100
AcDbText
 10
3737.430252335498
 20
11873.32952228457
 30
0.0
 40
8.0
  1
8 1/2pont
100
AcDbText
  0
TEXT
  5
29E
330
17
100
AcDbEntity
  8
5
 62
5
370
25
100
AcDbText
 10
3981.219208588322
 20
11770.06416120012
 30
0.0
 40
12.0
  1
P23
 50
3.55024762388e-05
100
AcDbText
  0
TEXT
  5
29F
330
17
100
AcDbEntity
  8
5
 62
5
370
25
100
AcDbText
 10
3609.768933650622
 20
11774.10452832799
 30
0.0
 40
12.0
  1
P32
 50
359.9999644975238
100
AcDbText
  0
TEXT
  5
2A0
330
17
100
AcDbEntity
  8
NOMENCLATURA
 62
7
370
25
100
AcDbText
 10
4023.608342883435
 20
11775.17538917844
 30
0.0
 40
16.49999175001634
  1
M21.5
100
AcDbText
  0
TEXT
  5
2A1
330
17
100
AcDbEntity
  8
texto
 62
2
370
25
100
AcDbText
 10
3934.490871356334
 20
11873.32952228457
 30
0.0
 40
8.0
  1
5 1/2pont
100
AcDbText
  0
TEXT
  5
2A2
330
17
100
AcDbEntity
  8
Texto Seção
 62
7
370
15
100
AcDbText
 10
3619.136993344681
 20
11921.04049644183
 30
0.0
 40
13.0
  1
V123.B
100
AcDbText
  0
TEXT
  5
2A3
330
17
100
AcDbEntity
  8
texto
 62
2
370
25
100
AcDbText
 10
4206.646513817262
 20
11873.32952228457
 30
0.0
 40
8.0
  1
4 1/2pont
100
AcDbText
  0
TEXT
  5
2A4
330
17
100
AcDbEntity
  8
NOMENCLATURA
 62
7
370
25
100
AcDbText
 10
4523.799808179954
 20
11775.17538917844
 30
0.0
 40
16.49999175001634
  1
M21.5
100
AcDbText
  0
TEXT
  5
2A5
330
17
100
AcDbEntity
  8
texto
 62
2
370
25
100
AcDbText
 10
4387.113582992099
 20
11873.32952228457
 30
0.0
 40
8.0
  1
4 1/2pont
100
AcDbText
  0
TEXT
  5
2A6
330
17
100
AcDbEntity
  8
5
 62
5
370
25
100
AcDbText
 10
4281.385057793675
 20
11770.06416120012
 30
0.0
 40
12.0
  1
V105
 50
3.55024762388e-05
100
AcDbText
  0
TEXT
  5
2A7
330
17
100
AcDbEntity
  8
5
 62
5
370
25
100
AcDbText
 10
4487.715066047115
 20
11770.06416120012
 30
0.0
 40
12.0
  1
P15
 50
3.55024762388e-05
100
AcDbText
  0
TEXT
  5
2A8
330
17
100
AcDbEntity
  8
texto
 62
2
370
25
100
AcDbText
 10
3735.427960123918
 20
11675.74211673598
 30
0.0
 40
8.0
  1
8 1/2pont
100
AcDbText
  0
TEXT
  5
2A9
330
17
100
AcDbEntity
  8
Texto Seção
 62
7
370
15
100
AcDbText
 10
3609.134280892391
 20
11723.45309089326
 30
0.0
 40
13.0
  1
CONT. V123.B
100
AcDbText
  0
TEXT
  5
2AA
330
17
100
AcDbEntity
  8
COTA
 62
1
370
25
100
AcDbText
 10
3531.040268196686
 20
12188.12446156655
 30
0.0
 40
7.0
  1
14
 50
90.0
100
AcDbText
  0
TEXT
  5
2AB
330
17
100
AcDbEntity
  8
COTA
 62
1
370
25
100
AcDbText
 10
3308.191812349597
 20
12138.12446156656
 30
0.0
 40
7.0
  1
64
 50
90.0
100
AcDbText
  0
TEXT
  5
2AC
330
17
100
AcDbEntity
  8
COTA
 62
1
370
25
100
AcDbText
 10
3531.040268197102
 20
12122.12446156656
 30
0.0
 40
7.0
  1
48
 50
90.0
100
AcDbText
  0
TEXT
  5
2AD
330
17
100
AcDbEntity
  8
Cota Seção (2x)
 62
1
370
25
100
AcDbText
 10
3447.668535440487
 20
12162.12446156653
 30
0.0
 40
7.0
  1
60
 50
90.0
100
AcDbText
  0
TEXT
  5
2AE
330
17
100
AcDbEntity
  8
COTA
 62
1
370
25
100
AcDbText
 10
3327.511240835059
 20
12188.12446156655
 30
0.0
 40
7.0
  1
14
 50
90.0
100
AcDbText
  0
TEXT
  5
2AF
330
17
100
AcDbEntity
  8
COTA
 62
1
370
25
100
AcDbText
 10
3327.511240835387
 20
12122.12446156655
 30
0.0
 40
7.0
  1
48
 50
90.0
100
AcDbText
  0
TEXT
  5
2B0
330
17
100
AcDbEntity
  8
COTA
 62
1
370
25
100
AcDbText
 10
3426.668535438829
 20
12034.89764776437
 30
0.0
 40
7.0
  1
19
100
AcDbText
  0
TEXT
  5
2B1
330
17
100
AcDbEntity
  8
COTA
 62
1
370
25
100
AcDbText
 10
3344.310627991359
 20
12099.10949033073
 30
0.0
 40
7.0
  1
25
 50
90.0
100
AcDbText
  0
TEXT
  5
2B2
330
17
100
AcDbEntity
  8
Cota Seção (2x)
 62
1
370
25
100
AcDbText
 10
3426.6685354388
 20
12101.62446156656
 30
0.0
 40
7.0
  1
19
100
AcDbText
  0
TEXT
  5
2B3
330
17
100
AcDbEntity
  8
COTA
 62
240
370
25
100
AcDbText
 10
3651.904161433748
 20
12215.67965228965
 30
0.0
 40
10.0
  1
56
100
AcDbText
  0
TEXT
  5
2B4
330
17
100
AcDbEntity
  8
COTA
 62
240
370
25
100
AcDbText
 10
3802.904161433747
 20
12215.67234234814
 30
0.0
 40
10.0
  1
246
100
AcDbText
  0
TEXT
  5
2B5
330
17
100
AcDbEntity
  8
COTA
 62
240
370
25
100
AcDbText
 10
3774.904161433748
 20
12182.25079072373
 30
0.0
 40
10.0
  1
302
100
AcDbText
  0
TEXT
  5
2B6
330
17
100
AcDbEntity
  8
COTA
 62
240
370
25
100
AcDbText
 10
3937.9597169893
 20
12225.44598166561
 30
0.0
 40
10.0
  1
2
100
AcDbText
  0
TEXT
  5
2B7
330
17
100
AcDbEntity
  8
COTA
 62
240
370
25
100
AcDbText
 10
3444.973825560833
 20
11697.59818591787
 30
0.0
 40
9.0
  1
21.5
 50
90.0
100
AcDbText
  0
TEXT
  5
2B8
330
17
100
AcDbEntity
  8
COTA
 62
240
370
25
100
AcDbText
 10
4059.034511359882
 20
12182.12652171788
 30
0.0
 40
10.0
  1
87
100
AcDbText
  0
TEXT
  5
2B9
330
17
100
AcDbEntity
  8
COTA
 62
240
370
25
100
AcDbText
 10
4003.478955804329
 20
12225.44598166561
 30
0.0
 40
10.0
  1
2
100
AcDbText
  0
TEXT
  5
2BA
330
17
100
AcDbEntity
  8
COTA
 62
240
370
25
100
AcDbText
 10
3960.260004139032
 20
12257.60992914503
 30
0.0
 40
10.0
  1
47
 50
90.0
100
AcDbText
  0
TEXT
  5
2BB
330
17
100
AcDbEntity
  8
COTA
 62
240
370
25
100
AcDbText
 10
3960.260004139032
 20
12289.60992914503
 30
0.0
 40
10.0
  1
17
 50
90.0
100
AcDbText
  0
TEXT
  5
2BC
330
17
100
AcDbEntity
  8
COTA
 62
240
370
25
100
AcDbText
 10
3981.846270046582
 20
12266.10992914503
 30
0.0
 40
10.0
  1
64
 50
90.0
100
AcDbText
  0
TEXT
  5
2BD
330
17
100
AcDbEntity
  8
COTA
 62
240
370
25
100
AcDbText
 10
4237.810881875683
 20
12212.62848269901
 30
0.0
 40
10.0
  1
122
100
AcDbText
  0
TEXT
  5
2BE
330
17
100
AcDbEntity
  8
COTA
 62
240
370
25
100
AcDbText
 10
4347.810881875683
 20
12212.67234234813
 30
0.0
 40
10.0
  1
98
100
AcDbText
  0
TEXT
  5
2BF
330
17
100
AcDbEntity
  8
COTA
 62
240
370
25
100
AcDbText
 10
4286.810881875683
 20
12182.1338316594
 30
0.0
 40
10.0
  1
220
100
AcDbText
  0
TEXT
  5
2C0
330
17
100
AcDbEntity
  8
COTA
 62
240
370
25
100
AcDbText
 10
4452.752990488513
 20
12266.10992914502
 30
0.0
 40
10.0
  1
64
 50
90.0
100
AcDbText
  0
TEXT
  5
2C1
330
17
100
AcDbEntity
  8
COTA
 62
240
370
25
100
AcDbText
 10
4431.130174873387
 20
12259.10992914502
 30
0.0
 40
10.0
  1
50
 50
90.0
100
AcDbText
  0
TEXT
  5
2C2
330
17
100
AcDbEntity
  8
COTA
 62
240
370
25
100
AcDbText
 10
4431.166724580986
 20
12309.16840867718
 30
0.0
 40
10.0
  1
14
 50
90.0
100
AcDbText
  0
TEXT
  5
2C3
330
17
100
AcDbEntity
  8
COTA
 62
240
370
25
100
AcDbText
 10
3889.904161433748
 20
12027.87365727433
 30
0.0
 40
10.0
  1
244
100
AcDbText
  0
TEXT
  5
2C4
330
17
100
AcDbEntity
  8
COTA
 62
240
370
25
100
AcDbText
 10
3690.904161433748
 20
12027.91020698194
 30
0.0
 40
10.0
  1
154
100
AcDbText
  0
TEXT
  5
2C5
330
17
100
AcDbEntity
  8
COTA
 62
240
370
25
100
AcDbText
 10
3812.904161433748
 20
11994.5105851821
 30
0.0
 40
10.0
  1
398
100
AcDbText
  0
TEXT
  5
2C6
330
17
100
AcDbEntity
  8
COTA
 62
240
370
25
100
AcDbText
 10
3601.848605878195
 20
12037.67653635789
 30
0.0
 40
10.0
  1
2
100
AcDbText
  0
TEXT
  5
2C7
330
17
100
AcDbEntity
  8
COTA
 62
240
370
25
100
AcDbText
 10
4046.238074314473
 20
12070.34048383731
 30
0.0
 40
10.0
  1
48
 50
90.0
100
AcDbText
  0
TEXT
  5
2C8
330
17
100
AcDbEntity
  8
COTA
 62
240
370
25
100
AcDbText
 10
4046.230764372952
 20
12121.34779377884
 30
0.0
 40
10.0
  1
16
 50
90.0
100
AcDbText
  0
TEXT
  5
2C9
330
17
100
AcDbEntity
  8
COTA
 62
240
370
25
100
AcDbText
 10
4067.846270046584
 20
12078.34048383732
 30
0.0
 40
10.0
  1
64
 50
90.0
100
AcDbText
  0
TEXT
  5
2CA
330
17
100
AcDbEntity
  8
COTA
 62
240
370
25
100
AcDbText
 10
4136.890354065171
 20
12257.60992914503
 30
0.0
 40
10.0
  1
47
 50
90.0
100
AcDbText
  0
TEXT
  5
2CB
330
17
100
AcDbEntity
  8
COTA
 62
240
370
25
100
AcDbText
 10
4136.890354065171
 20
12289.60992914502
 30
0.0
 40
10.0
  1
17
 50
90.0
100
AcDbText
  0
TEXT
  5
2CC
330
17
100
AcDbEntity
  8
COTA
 62
240
370
25
100
AcDbText
 10
4158.47661997272
 20
12266.10992914503
 30
0.0
 40
10.0
  1
64
 50
90.0
100
AcDbText
  0
TEXT
  5
2CD
330
17
100
AcDbEntity
  8
COTA
 62
240
370
25
100
AcDbText
 10
3735.904161433748
 20
11833.64219883853
 30
0.0
 40
10.0
  1
244
100
AcDbText
  0
TEXT
  5
2CE
330
17
100
AcDbEntity
  8
COTA
 62
240
370
25
100
AcDbText
 10
3934.904161433748
 20
11833.67874854615
 30
0.0
 40
10.0
  1
154
100
AcDbText
  0
TEXT
  5
2CF
330
17
100
AcDbEntity
  8
COTA
 62
240
370
25
100
AcDbText
 10
3812.904161433748
 20
11800.2791267463
 30
0.0
 40
10.0
  1
398
100
AcDbText
  0
TEXT
  5
2D0
330
17
100
AcDbEntity
  8
COTA
 62
240
370
25
100
AcDbText
 10
4023.959716989299
 20
11843.44507792209
 30
0.0
 40
10.0
  1
2
100
AcDbText
  0
TEXT
  5
2D1
330
17
100
AcDbEntity
  8
COTA
 62
240
370
25
100
AcDbText
 10
4046.223454431433
 20
11877.10902540152
 30
0.0
 40
10.0
  1
50
 50
90.0
100
AcDbText
  0
TEXT
  5
2D2
330
17
100
AcDbEntity
  8
COTA
 62
240
370
25
100
AcDbText
 10
4046.260004139035
 20
11927.16750493369
 30
0.0
 40
10.0
  1
14
 50
90.0
100
AcDbText
  0
TEXT
  5
2D3
330
17
100
AcDbEntity
  8
COTA
 62
240
370
25
100
AcDbText
 10
4067.846270046584
 20
11884.10902540153
 30
0.0
 40
10.0
  1
64
 50
90.0
100
AcDbText
  0
TEXT
  5
2D4
330
17
100
AcDbEntity
  8
COTA
 62
240
370
25
100
AcDbText
 10
4181.282011359884
 20
11800.16947762349
 30
0.0
 40
10.0
  1
159.5
100
AcDbText
  0
TEXT
  5
2D5
330
17
100
AcDbEntity
  8
COTA
 62
240
370
25
100
AcDbText
 10
4089.478955804332
 20
11843.44507792209
 30
0.0
 40
10.0
  1
2
100
AcDbText
  0
TEXT
  5
2D6
330
17
100
AcDbEntity
  8
COTA
 62
240
370
25
100
AcDbText
 10
4295.348804357573
 20
11877.10902540151
 30
0.0
 40
10.0
  1
50
 50
90.0
100
AcDbText
  0
TEXT
  5
2D7
330
17
100
AcDbEntity
  8
COTA
 62
240
370
25
100
AcDbText
 10
4295.385354065176
 20
11927.16750493369
 30
0.0
 40
10.0
  1
14
 50
90.0
100
AcDbText
  0
TEXT
  5
2D8
330
17
100
AcDbEntity
  8
COTA
 62
240
370
25
100
AcDbText
 10
4316.971619972725
 20
11884.10902540152
 30
0.0
 40
10.0
  1
64
 50
90.0
100
AcDbText
  0
TEXT
  5
2D9
330
17
100
AcDbEntity
  8
COTA
 62
240
370
25
100
AcDbText
 10
4132.009511359881
 20
11830.63030513064
 30
0.0
 40
10.0
  1
61
100
AcDbText
  0
TEXT
  5
2DA
330
17
100
AcDbEntity
  8
COTA
 62
240
370
25
100
AcDbText
 10
4211.75701135988
 20
11830.66685483824
 30
0.0
 40
10.0
  1
98.5
100
AcDbText
  0
TEXT
  5
2DB
330
17
100
AcDbEntity
  8
COTA
 62
240
370
25
100
AcDbText
 10
4421.728085449476
 20
11800.12561797437
 30
0.0
 40
10.0
  1
178
100
AcDbText
  0
TEXT
  5
2DC
330
17
100
AcDbEntity
  8
COTA
 62
240
370
25
100
AcDbText
 10
4522.781141005029
 20
11843.44507792209
 30
0.0
 40
10.0
  1
2
100
AcDbText
  0
TEXT
  5
2DD
330
17
100
AcDbEntity
  8
COTA
 62
240
370
25
100
AcDbText
 10
4482.750585449479
 20
11830.63761507216
 30
0.0
 40
10.0
  1
56
100
AcDbText
  0
TEXT
  5
2DE
330
17
100
AcDbEntity
  8
COTA
 62
240
370
25
100
AcDbText
 10
4393.753085449481
 20
11830.58644548152
 30
0.0
 40
10.0
  1
122
100
AcDbText
  0
TEXT
  5
2DF
330
17
100
AcDbEntity
  8
COTA
 62
240
370
25
100
AcDbText
 10
4545.081428154779
 20
11875.60902540152
 30
0.0
 40
10.0
  1
47
 50
90.0
100
AcDbText
  0
TEXT
  5
2E0
330
17
100
AcDbEntity
  8
COTA
 62
240
370
25
100
AcDbText
 10
4545.081428154779
 20
11907.60902540151
 30
0.0
 40
10.0
  1
17
 50
90.0
100
AcDbText
  0
TEXT
  5
2E1
330
17
100
AcDbEntity
  8
COTA
 62
240
370
25
100
AcDbText
 10
4566.667694062327
 20
11884.10902540152
 30
0.0
 40
10.0
  1
64
 50
90.0
100
AcDbText
  0
TEXT
  5
2E2
330
17
100
AcDbEntity
  8
COTA
 62
240
370
25
100
AcDbText
 10
3877.901448981449
 20
11636.09134299755
 30
0.0
 40
10.0
  1
56
100
AcDbText
  0
TEXT
  5
2E3
330
17
100
AcDbEntity
  8
COTA
 62
240
370
25
100
AcDbText
 10
3726.90144898145
 20
11636.08403305604
 30
0.0
 40
10.0
  1
246
100
AcDbText
  0
TEXT
  5
2E4
330
17
100
AcDbEntity
  8
COTA
 62
240
370
25
100
AcDbText
 10
3591.845893425897
 20
11645.85767237351
 30
0.0
 40
10.0
  1
2
100
AcDbText
  0
TEXT
  5
2E5
330
17
100
AcDbEntity
  8
COTA
 62
240
370
25
100
AcDbText
 10
3940.257291686743
 20
11678.02161985293
 30
0.0
 40
10.0
  1
47
 50
90.0
100
AcDbText
  0
TEXT
  5
2E6
330
17
100
AcDbEntity
  8
COTA
 62
240
370
25
100
AcDbText
 10
3940.257291686743
 20
11710.02161985293
 30
0.0
 40
10.0
  1
17
 50
90.0
100
AcDbText
  0
TEXT
  5
2E7
330
17
100
AcDbEntity
  8
COTA
 62
240
370
25
100
AcDbText
 10
3961.843557594293
 20
11686.52161985294
 30
0.0
 40
10.0
  1
64
 50
90.0
100
AcDbText
  0
TEXT
  5
2E8
330
17
100
AcDbEntity
  8
Texto Seção
 62
3
370
15
100
AcDbText
 10
3428.868535438826
 20
12273.573225939543
 30
0.0
 40
17.0
  1

100
AcDbText
  0
TEXT
  5
2E9
330
17
100
AcDbEntity
  8
Texto Seção
 62
3
370
15
100
AcDbText
 10
3428.868535438826
 20
12243.672641295221
 30
0.0
 40
12.0
  1

100
AcDbText
  0
TEXT
  5
2EA
330
17
100
AcDbEntity
  8
Texto Seção
 62
7
370
15
100
AcDbText
 10
3428.868535438826
 20
12217.701212406735
 30
0.0
 40
10.0
  1

100
AcDbText
  0
HATCH
  5
2EB
330
17
100
AcDbEntity
  8
Hachura
 62
7
100
AcDbHatch
 10
0.0
 20
0.0
 30
0.0
210
0.0
220
0.0
230
1.0
  2
SOLID
 70
1
 71
0
 91
1
 92
3
 72
0
 73
1
 93
5
 10
3403.668535438827
 20
12174.12446156654
 10
3407.668535438827
 20
12174.12446156654
 10
3407.668535438828
 20
12074.12446156657
 10
3403.668535438828
 20
12074.12446156657
 10
3403.668535438827
 20
12174.12446156654
 97
0
 75
1
 76
1
 98
0
  0
HATCH
  5
2EC
330
17
100
AcDbEntity
  8
Hachura
 62
7
100
AcDbHatch
 10
0.0
 20
0.0
 30
0.0
210
0.0
220
0.0
230
1.0
  2
ANSI31
 70
0
 71
0
 91
1
 92
3
 72
0
 73
1
 93
5
 10
3403.668535438828
 20
12165.72446156654
 10
3403.668535438828
 20
12170.12446156654
 10
3389.668535438828
 20
12170.12446156654
 10
3389.668535438828
 20
12165.72446156654
 10
3403.668535438828
 20
12165.72446156654
 97
0
 75
1
 76
1
 52
0.0
 41
1.0
 77
0
 78
1
 53
45.0
 43
0.0
 44
0.0
 45
-2.2450640303
 46
2.2450640303
 79
0
 98
0
  0
HATCH
  5
2ED
330
17
100
AcDbEntity
  8
Hachura
 62
7
100
AcDbHatch
 10
0.0
 20
0.0
 30
0.0
210
0.0
220
0.0
230
1.0
  2
ANSI31
 70
0
 71
0
 91
1
 92
3
 72
0
 73
1
 93
5
 10
3369.668535438829
 20
12074.12446156657
 10
3369.668535438829
 20
12078.52446156656
 10
3389.668535438828
 20
12078.52446156656
 10
3389.668535438828
 20
12074.12446156657
 10
3369.668535438829
 20
12074.12446156657
 97
0
 75
1
 76
1
 52
0.0
 41
1.0
 77
0
 78
1
 53
45.0
 43
0.0
 44
0.0
 45
-2.2450640303
 46
2.2450640303
 79
0
 98
0
  0
HATCH
  5
2EE
330
17
100
AcDbEntity
  8
Hachura
 62
7
100
AcDbHatch
 10
0.0
 20
0.0
 30
0.0
210
0.0
220
0.0
230
1.0
  2
ANSI31
 70
0
 71
0
 91
1
 92
3
 72
0
 73
1
 93
5
 10
3445.668535438829
 20
12074.12446156657
 10
3445.668535438829
 20
12078.52446156656
 10
3431.668535438828
 20
12078.52446156656
 10
3431.668535438828
 20
12074.12446156657
 10
3445.668535438829
 20
12074.12446156657
 97
0
 75
1
 76
1
 52
0.0
 41
1.0
 77
0
 78
1
 53
45.0
 43
0.0
 44
0.0
 45
-2.2450640303
 46
2.2450640303
 79
0
 98
0
  0
HATCH
  5
2EF
330
17
100
AcDbEntity
  8
Hachura
 62
7
100
AcDbHatch
 10
0.0
 20
0.0
 30
0.0
210
0.0
220
0.0
230
1.0
  2
SOLID
 70
1
 71
0
 91
1
 92
3
 72
0
 73
1
 93
5
 10
3445.668535438829
 20
12078.52446156656
 10
3445.668535438829
 20
12082.12446156657
 10
3407.668535438828
 20
12082.12446156657
 10
3407.668535438828
 20
12078.52446156656
 10
3445.668535438829
 20
12078.52446156656
 97
0
 75
1
 76
1
 98
0
  0
HATCH
  5
2F0
330
17
100
AcDbEntity
  8
Hachura
 62
7
100
AcDbHatch
 10
0.0
 20
0.0
 30
0.0
210
0.0
220
0.0
230
1.0
  2
ANSI31
 70
0
 71
0
 91
1
 92
3
 72
0
 73
1
 93
5
 10
3407.668535438828
 20
12074.12446156657
 10
3407.668535438828
 20
12078.52446156656
 10
3421.668535438828
 20
12078.52446156656
 10
3421.668535438828
 20
12074.12446156657
 10
3407.668535438828
 20
12074.12446156657
 97
0
 75
1
 76
1
 52
0.0
 41
1.0
 77
0
 78
1
 53
45.0
 43
0.0
 44
0.0
 45
-2.2450640303
 46
2.2450640303
 79
0
 98
0
  0
HATCH
  5
2F1
330
17
100
AcDbEntity
  8
Hachura
 62
7
100
AcDbHatch
 10
0.0
 20
0.0
 30
0.0
210
0.0
220
0.0
230
1.0
  2
SOLID
 70
1
 71
0
 91
1
 92
3
 72
0
 73
1
 93
5
 10
3449.668535438828
 20
12174.12446156654
 10
3445.668535438829
 20
12174.12446156654
 10
3445.668535438829
 20
12074.12446156657
 10
3449.668535438828
 20
12074.12446156657
 10
3449.668535438828
 20
12174.12446156654
 97
0
 75
1
 76
1
 98
0
  0
HATCH
  5
2F2
330
17
100
AcDbEntity
  8
Hachura
 62
7
100
AcDbHatch
 10
0.0
 20
0.0
 30
0.0
210
0.0
220
0.0
230
1.0
  2
SOLID
 70
1
 71
0
 91
1
 92
3
 72
0
 73
1
 93
5
 10
3505.668535438799
 20
12170.12446156654
 10
3505.668535438799
 20
12174.12446156654
 10
3445.668535438829
 20
12174.12446156654
 10
3445.668535438829
 20
12170.12446156654
 10
3505.668535438799
 20
12170.12446156654
 97
0
 75
1
 76
1
 98
0
  0
HATCH
  5
2F3
330
17
100
AcDbEntity
  8
Hachura
 62
7
100
AcDbHatch
 10
0.0
 20
0.0
 30
0.0
210
0.0
220
0.0
230
1.0
  2
ANSI31
 70
0
 71
0
 91
1
 92
3
 72
0
 73
1
 93
5
 10
3449.668535438828
 20
12165.72446156654
 10
3449.668535438828
 20
12170.12446156654
 10
3463.668535438829
 20
12170.12446156654
 10
3463.668535438829
 20
12165.72446156654
 10
3449.668535438828
 20
12165.72446156654
 97
0
 75
1
 76
1
 52
0.0
 41
1.0
 77
0
 78
1
 53
45.0
 43
0.0
 44
0.0
 45
-2.2450640303
 46
2.2450640303
 79
0
 98
0
  0
HATCH
  5
2F4
330
17
100
AcDbEntity
  8
Hachura
 62
7
100
AcDbHatch
 10
0.0
 20
0.0
 30
0.0
210
0.0
220
0.0
230
1.0
  2
ANSI31
 70
0
 71
0
 91
1
 92
3
 72
0
 73
1
 93
5
 10
3483.668535438829
 20
12074.12446156657
 10
3483.668535438829
 20
12078.52446156656
 10
3463.668535438829
 20
12078.52446156656
 10
3463.668535438829
 20
12074.12446156657
 10
3483.668535438829
 20
12074.12446156657
 97
0
 75
1
 76
1
 52
0.0
 41
1.0
 77
0
 78
1
 53
45.0
 43
0.0
 44
0.0
 45
-2.2450640303
 46
2.2450640303
 79
0
 98
0
  0
HATCH
  5
2F5
330
17
100
AcDbEntity
  8
Hachura
 62
7
100
AcDbHatch
 10
0.0
 20
0.0
 30
0.0
210
0.0
220
0.0
230
1.0
  2
SOLID
 70
1
 71
0
 91
1
 92
3
 72
0
 73
1
 93
5
 10
3407.668535438828
 20
12170.12446156654
 10
3407.668535438828
 20
12174.12446156654
 10
3352.068535438852
 20
12174.12446156654
 10
3352.068535438852
 20
12170.12446156654
 10
3407.668535438828
 20
12170.12446156654
 97
0
 75
1
 76
1
 98
0
  0
HATCH
  5
2F6
330
17
100
AcDbEntity
  8
COTA
 62
7
100
AcDbHatch
 10
0.0
 20
0.0
 30
0.0
210
0.0
220
0.0
230
1.0
  2
AR-CONC
 70
0
 71
0
 91
1
 92
3
 72
0
 73
1
 93
5
 10
3925.904161433744
 20
12298.10992914502
 10
3925.904161433744
 20
12281.10992914502
 10
3623.904161433745
 20
12281.10992914499
 10
3623.904161433744
 20
12298.109929145
 10
3925.904161433744
 20
12298.10992914502
 97
0
 75
1
 76
1
 52
0.0
 41
1.0
 77
0
 78
13
 53
50.0
 43
0.0
 44
0.0
 45
182.184668996
 46
-15.9390855389
 79
2
 49
19.05
 49
-209.55
 53
355.0
 43
0.0
 44
0.0
 45
-35.243421425
 46
191.056845239
 79
2
 49
15.24
 49
-167.64058417
 53
100.4514447
 43
15.182007
 44
-1.3282535
 45
146.9412470904
 46
175.1177519122
 79
2
 49
16.1900088
 49
-178.0902446
 53
46.1842
 43
0.0
 44
50.8
 45
271.0790408921
 46
-42.0423279327
 79
2
 49
28.575
 49
-314.325
 53
96.63555761
 43
22.5899
 44
47.2965
 45
237.4041340515
 46
247.4261245977
 79
2
 49
24.28502314
 49
-267.13560816
 53
351.18415117
 43
0.0
 44
50.8
 45
237.404134065
 46
247.4261245855
 79
2
 49
22.85996707
 49
-251.45973192
 53
21.0
 43
25.4
 44
38.1
 45
151.6143912691
 46
-102.2651981871
 79
2
 49
19.05
 49
-209.55
 53
326.0
 43
25.4
 44
38.1
 45
61.8020283476
 46
184.1879661223
 79
2
 49
15.24
 49
-167.64
 53
71.451445
 43
38.0345326
 44
29.5779001
 45
213.4164192787
 46
81.9227688859
 79
2
 49
16.1900088
 49
-178.0899376
 53
37.5
 43
0.0
 44
0.0
 45
3.0886032506
 46
84.5550388732
 79
6
 49
0.0
 49
-165.608
 49
0.0
 49
-170.18
 49
0.0
 49
-168.275
 53
7.5
 43
0.0
 44
0.0
 45
66.8196625103
 46
100.1805748181
 79
6
 49
0.0
 49
-97.028
 49
0.0
 49
-161.798
 49
0.0
 49
-64.135
 53
-32.5
 43
-56.642
 44
0.0
 45
135.5905951669
 46
-5.7287439927
 79
6
 49
0.0
 49
-63.5
 49
0.0
 49
-198.12
 49
0.0
 49
-262.89
 53
-42.5
 43
-82.042
 44
0.0
 45
148.129181386
 46
25.4264910333
 79
6
 49
0.0
 49
-82.55
 49
0.0
 49
-131.572
 49
0.0
 49
-186.69
 98
0
  0
HATCH
  5
2F7
330
17
100
AcDbEntity
  8
Hachura
 62
7
100
AcDbHatch
 10
0.0
 20
0.0
 30
0.0
210
0.0
220
0.0
230
1.0
  2
ANSI31
 70
0
 71
0
 91
1
 92
3
 72
0
 73
1
 93
6
 10
3389.653001491881
 20
11715.49818591788
 10
3389.653001491881
 20
11711.09818591788
 10
3403.632364449464
 20
11711.09818591788
 10
3403.632364449464
 20
11715.49818591788
 10
3389.653001491878
 20
11715.49818591788
 10
3389.653001491881
 20
11715.49818591788
 97
0
 75
1
 76
1
 52
0.0
 41
1.0
 77
0
 78
1
 53
45.0
 43
0.0
 44
0.0
 45
-2.2450640303
 46
2.2450640303
 79
0
 98
0
  0
HATCH
  5
2F8
330
17
100
AcDbEntity
  8
Hachura
 62
7
100
AcDbHatch
 10
0.0
 20
0.0
 30
0.0
210
0.0
220
0.0
230
1.0
  2
ANSI31
 70
0
 71
0
 91
1
 92
3
 72
0
 73
1
 93
5
 10
3407.232364449467
 20
11676.09818591787
 10
3411.632364449467
 20
11676.09818591787
 10
3411.632364449468
 20
11690.07754887545
 10
3407.232364449468
 20
11690.07754887545
 10
3407.232364449467
 20
11676.09818591787
 97
0
 75
1
 76
1
 52
0.0
 41
1.0
 77
0
 78
1
 53
45.0
 43
0.0
 44
0.0
 45
-2.2450640303
 46
2.2450640303
 79
0
 98
0
  0
HATCH
  5
2F9
330
17
100
AcDbEntity
  8
COTA
 62
7
100
AcDbHatch
 10
0.0
 20
0.0
 30
0.0
210
0.0
220
0.0
230
1.0
  2
AR-CONC
 70
0
 71
0
 91
1
 92
3
 72
0
 73
1
 93
5
 10
4102.534511359881
 20
12298.10992914501
 10
4015.534511359881
 20
12298.10992914501
 10
4015.534511359881
 20
12281.10992914501
 10
4102.534511359881
 20
12281.10992914501
 10
4102.534511359881
 20
12298.10992914501
 97
0
 75
1
 76
1
 52
0.0
 41
1.0
 77
0
 78
13
 53
50.0
 43
0.0
 44
0.0
 45
182.184668996
 46
-15.9390855389
 79
2
 49
19.05
 49
-209.55
 53
355.0
 43
0.0
 44
0.0
 45
-35.243421425
 46
191.056845239
 79
2
 49
15.24
 49
-167.64058417
 53
100.4514447
 43
15.182007
 44
-1.3282535
 45
146.9412470904
 46
175.1177519122
 79
2
 49
16.1900088
 49
-178.0902446
 53
46.1842
 43
0.0
 44
50.8
 45
271.0790408921
 46
-42.0423279327
 79
2
 49
28.575
 49
-314.325
 53
96.63555761
 43
22.5899
 44
47.2965
 45
237.4041340515
 46
247.4261245977
 79
2
 49
24.28502314
 49
-267.13560816
 53
351.18415117
 43
0.0
 44
50.8
 45
237.404134065
 46
247.4261245855
 79
2
 49
22.85996707
 49
-251.45973192
 53
21.0
 43
25.4
 44
38.1
 45
151.6143912691
 46
-102.2651981871
 79
2
 49
19.05
 49
-209.55
 53
326.0
 43
25.4
 44
38.1
 45
61.8020283476
 46
184.1879661223
 79
2
 49
15.24
 49
-167.64
 53
71.451445
 43
38.0345326
 44
29.5779001
 45
213.4164192787
 46
81.9227688859
 79
2
 49
16.1900088
 49
-178.0899376
 53
37.5
 43
0.0
 44
0.0
 45
3.0886032506
 46
84.5550388732
 79
6
 49
0.0
 49
-165.608
 49
0.0
 49
-170.18
 49
0.0
 49
-168.275
 53
7.5
 43
0.0
 44
0.0
 45
66.8196625103
 46
100.1805748181
 79
6
 49
0.0
 49
-97.028
 49
0.0
 49
-161.798
 49
0.0
 49
-64.135
 53
-32.5
 43
-56.642
 44
0.0
 45
135.5905951669
 46
-5.7287439927
 79
6
 49
0.0
 49
-63.5
 49
0.0
 49
-198.12
 49
0.0
 49
-262.89
 53
-42.5
 43
-82.042
 44
0.0
 45
148.129181386
 46
25.4264910333
 79
6
 49
0.0
 49
-82.55
 49
0.0
 49
-131.572
 49
0.0
 49
-186.69
 98
0
  0
HATCH
  5
2FA
330
17
100
AcDbEntity
  8
COTA
 62
7
100
AcDbHatch
 10
0.0
 20
0.0
 30
0.0
210
0.0
220
0.0
230
1.0
  2
AR-CONC
 70
0
 71
0
 91
1
 92
3
 72
0
 73
1
 93
5
 10
4396.810881875683
 20
12298.10992914502
 10
4176.810881875683
 20
12298.10992914502
 10
4176.810881875683
 20
12284.10992914501
 10
4396.810881875683
 20
12284.10992914501
 10
4396.810881875683
 20
12298.10992914502
 97
0
 75
1
 76
1
 52
0.0
 41
1.0
 77
0
 78
13
 53
50.0
 43
0.0
 44
0.0
 45
182.184668996
 46
-15.9390855389
 79
2
 49
19.05
 49
-209.55
 53
355.0
 43
0.0
 44
0.0
 45
-35.243421425
 46
191.056845239
 79
2
 49
15.24
 49
-167.64058417
 53
100.4514447
 43
15.182007
 44
-1.3282535
 45
146.9412470904
 46
175.1177519122
 79
2
 49
16.1900088
 49
-178.0902446
 53
46.1842
 43
0.0
 44
50.8
 45
271.0790408921
 46
-42.0423279327
 79
2
 49
28.575
 49
-314.325
 53
96.63555761
 43
22.5899
 44
47.2965
 45
237.4041340515
 46
247.4261245977
 79
2
 49
24.28502314
 49
-267.13560816
 53
351.18415117
 43
0.0
 44
50.8
 45
237.404134065
 46
247.4261245855
 79
2
 49
22.85996707
 49
-251.45973192
 53
21.0
 43
25.4
 44
38.1
 45
151.6143912691
 46
-102.2651981871
 79
2
 49
19.05
 49
-209.55
 53
326.0
 43
25.4
 44
38.1
 45
61.8020283476
 46
184.1879661223
 79
2
 49
15.24
 49
-167.64
 53
71.451445
 43
38.0345326
 44
29.5779001
 45
213.4164192787
 46
81.9227688859
 79
2
 49
16.1900088
 49
-178.0899376
 53
37.5
 43
0.0
 44
0.0
 45
3.0886032506
 46
84.5550388732
 79
6
 49
0.0
 49
-165.608
 49
0.0
 49
-170.18
 49
0.0
 49
-168.275
 53
7.5
 43
0.0
 44
0.0
 45
66.8196625103
 46
100.1805748181
 79
6
 49
0.0
 49
-97.028
 49
0.0
 49
-161.798
 49
0.0
 49
-64.135
 53
-32.5
 43
-56.642
 44
0.0
 45
135.5905951669
 46
-5.7287439927
 79
6
 49
0.0
 49
-63.5
 49
0.0
 49
-198.12
 49
0.0
 49
-262.89
 53
-42.5
 43
-82.042
 44
0.0
 45
148.129181386
 46
25.4264910333
 79
6
 49
0.0
 49
-82.55
 49
0.0
 49
-131.572
 49
0.0
 49
-186.69
 98
0
  0
HATCH
  5
2FB
330
17
100
AcDbEntity
  8
COTA
 62
7
100
AcDbHatch
 10
0.0
 20
0.0
 30
0.0
210
0.0
220
0.0
230
1.0
  2
AR-CONC
 70
0
 71
0
 91
1
 92
3
 72
0
 73
1
 93
5
 10
3613.904161433751
 20
12110.34048383731
 10
3613.904161433751
 20
12094.3404838373
 10
4011.90416143375
 20
12094.34048383727
 10
4011.904161433752
 20
12110.34048383728
 10
3613.904161433751
 20
12110.34048383731
 97
0
 75
1
 76
1
 52
0.0
 41
1.0
 77
0
 78
13
 53
50.0
 43
0.0
 44
0.0
 45
182.184668996
 46
-15.9390855389
 79
2
 49
19.05
 49
-209.55
 53
355.0
 43
0.0
 44
0.0
 45
-35.243421425
 46
191.056845239
 79
2
 49
15.24
 49
-167.64058417
 53
100.4514447
 43
15.182007
 44
-1.3282535
 45
146.9412470904
 46
175.1177519122
 79
2
 49
16.1900088
 49
-178.0902446
 53
46.1842
 43
0.0
 44
50.8
 45
271.0790408921
 46
-42.0423279327
 79
2
 49
28.575
 49
-314.325
 53
96.63555761
 43
22.5899
 44
47.2965
 45
237.4041340515
 46
247.4261245977
 79
2
 49
24.28502314
 49
-267.13560816
 53
351.18415117
 43
0.0
 44
50.8
 45
237.404134065
 46
247.4261245855
 79
2
 49
22.85996707
 49
-251.45973192
 53
21.0
 43
25.4
 44
38.1
 45
151.6143912691
 46
-102.2651981871
 79
2
 49
19.05
 49
-209.55
 53
326.0
 43
25.4
 44
38.1
 45
61.8020283476
 46
184.1879661223
 79
2
 49
15.24
 49
-167.64
 53
71.451445
 43
38.0345326
 44
29.5779001
 45
213.4164192787
 46
81.9227688859
 79
2
 49
16.1900088
 49
-178.0899376
 53
37.5
 43
0.0
 44
0.0
 45
3.0886032506
 46
84.5550388732
 79
6
 49
0.0
 49
-165.608
 49
0.0
 49
-170.18
 49
0.0
 49
-168.275
 53
7.5
 43
0.0
 44
0.0
 45
66.8196625103
 46
100.1805748181
 79
6
 49
0.0
 49
-97.028
 49
0.0
 49
-161.798
 49
0.0
 49
-64.135
 53
-32.5
 43
-56.642
 44
0.0
 45
135.5905951669
 46
-5.7287439927
 79
6
 49
0.0
 49
-63.5
 49
0.0
 49
-198.12
 49
0.0
 49
-262.89
 53
-42.5
 43
-82.042
 44
0.0
 45
148.129181386
 46
25.4264910333
 79
6
 49
0.0
 49
-82.55
 49
0.0
 49
-131.572
 49
0.0
 49
-186.69
 98
0
  0
HATCH
  5
2FC
330
17
100
AcDbEntity
  8
COTA
 62
7
100
AcDbHatch
 10
0.0
 20
0.0
 30
0.0
210
0.0
220
0.0
230
1.0
  2
AR-CONC
 70
0
 71
0
 91
1
 92
3
 72
0
 73
1
 93
5
 10
4011.904161433743
 20
11916.10902540151
 10
4011.904161433744
 20
11902.10902540151
 10
3613.904161433744
 20
11902.10902540148
 10
3613.904161433744
 20
11916.10902540148
 10
4011.904161433743
 20
11916.10902540151
 97
0
 75
1
 76
1
 52
0.0
 41
1.0
 77
0
 78
13
 53
50.0
 43
0.0
 44
0.0
 45
182.184668996
 46
-15.9390855389
 79
2
 49
19.05
 49
-209.55
 53
355.0
 43
0.0
 44
0.0
 45
-35.243421425
 46
191.056845239
 79
2
 49
15.24
 49
-167.64058417
 53
100.4514447
 43
15.182007
 44
-1.3282535
 45
146.9412470904
 46
175.1177519122
 79
2
 49
16.1900088
 49
-178.0902446
 53
46.1842
 43
0.0
 44
50.8
 45
271.0790408921
 46
-42.0423279327
 79
2
 49
28.575
 49
-314.325
 53
96.63555761
 43
22.5899
 44
47.2965
 45
237.4041340515
 46
247.4261245977
 79
2
 49
24.28502314
 49
-267.13560816
 53
351.18415117
 43
0.0
 44
50.8
 45
237.404134065
 46
247.4261245855
 79
2
 49
22.85996707
 49
-251.45973192
 53
21.0
 43
25.4
 44
38.1
 45
151.6143912691
 46
-102.2651981871
 79
2
 49
19.05
 49
-209.55
 53
326.0
 43
25.4
 44
38.1
 45
61.8020283476
 46
184.1879661223
 79
2
 49
15.24
 49
-167.64
 53
71.451445
 43
38.0345326
 44
29.5779001
 45
213.4164192787
 46
81.9227688859
 79
2
 49
16.1900088
 49
-178.0899376
 53
37.5
 43
0.0
 44
0.0
 45
3.0886032506
 46
84.5550388732
 79
6
 49
0.0
 49
-165.608
 49
0.0
 49
-170.18
 49
0.0
 49
-168.275
 53
7.5
 43
0.0
 44
0.0
 45
66.8196625103
 46
100.1805748181
 79
6
 49
0.0
 49
-97.028
 49
0.0
 49
-161.798
 49
0.0
 49
-64.135
 53
-32.5
 43
-56.642
 44
0.0
 45
135.5905951669
 46
-5.7287439927
 79
6
 49
0.0
 49
-63.5
 49
0.0
 49
-198.12
 49
0.0
 49
-262.89
 53
-42.5
 43
-82.042
 44
0.0
 45
148.129181386
 46
25.4264910333
 79
6
 49
0.0
 49
-82.55
 49
0.0
 49
-131.572
 49
0.0
 49
-186.69
 98
0
  0
HATCH
  5
2FD
330
17
100
AcDbEntity
  8
COTA
 62
7
100
AcDbHatch
 10
0.0
 20
0.0
 30
0.0
210
0.0
220
0.0
230
1.0
  2
AR-CONC
 70
0
 71
0
 91
1
 92
3
 72
0
 73
1
 93
5
 10
4261.029511359884
 20
11916.1090254015
 10
4101.534511359884
 20
11916.1090254015
 10
4101.534511359884
 20
11902.1090254015
 10
4261.029511359884
 20
11902.1090254015
 10
4261.029511359884
 20
11916.1090254015
 97
0
 75
1
 76
1
 52
0.0
 41
1.0
 77
0
 78
13
 53
50.0
 43
0.0
 44
0.0
 45
182.184668996
 46
-15.9390855389
 79
2
 49
19.05
 49
-209.55
 53
355.0
 43
0.0
 44
0.0
 45
-35.243421425
 46
191.056845239
 79
2
 49
15.24
 49
-167.64058417
 53
100.4514447
 43
15.182007
 44
-1.3282535
 45
146.9412470904
 46
175.1177519122
 79
2
 49
16.1900088
 49
-178.0902446
 53
46.1842
 43
0.0
 44
50.8
 45
271.0790408921
 46
-42.0423279327
 79
2
 49
28.575
 49
-314.325
 53
96.63555761
 43
22.5899
 44
47.2965
 45
237.4041340515
 46
247.4261245977
 79
2
 49
24.28502314
 49
-267.13560816
 53
351.18415117
 43
0.0
 44
50.8
 45
237.404134065
 46
247.4261245855
 79
2
 49
22.85996707
 49
-251.45973192
 53
21.0
 43
25.4
 44
38.1
 45
151.6143912691
 46
-102.2651981871
 79
2
 49
19.05
 49
-209.55
 53
326.0
 43
25.4
 44
38.1
 45
61.8020283476
 46
184.1879661223
 79
2
 49
15.24
 49
-167.64
 53
71.451445
 43
38.0345326
 44
29.5779001
 45
213.4164192787
 46
81.9227688859
 79
2
 49
16.1900088
 49
-178.0899376
 53
37.5
 43
0.0
 44
0.0
 45
3.0886032506
 46
84.5550388732
 79
6
 49
0.0
 49
-165.608
 49
0.0
 49
-170.18
 49
0.0
 49
-168.275
 53
7.5
 43
0.0
 44
0.0
 45
66.8196625103
 46
100.1805748181
 79
6
 49
0.0
 49
-97.028
 49
0.0
 49
-161.798
 49
0.0
 49
-64.135
 53
-32.5
 43
-56.642
 44
0.0
 45
135.5905951669
 46
-5.7287439927
 79
6
 49
0.0
 49
-63.5
 49
0.0
 49
-198.12
 49
0.0
 49
-262.89
 53
-42.5
 43
-82.042
 44
0.0
 45
148.129181386
 46
25.4264910333
 79
6
 49
0.0
 49
-82.55
 49
0.0
 49
-131.572
 49
0.0
 49
-186.69
 98
0
  0
HATCH
  5
2FE
330
17
100
AcDbEntity
  8
COTA
 62
7
100
AcDbHatch
 10
0.0
 20
0.0
 30
0.0
210
0.0
220
0.0
230
1.0
  2
AR-CONC
 70
0
 71
0
 91
1
 92
3
 72
0
 73
1
 93
5
 10
4332.730585449477
 20
11916.1090254015
 10
4510.725585449477
 20
11916.1090254015
 10
4510.725585449477
 20
11899.1090254015
 10
4332.730585449477
 20
11899.1090254015
 10
4332.730585449477
 20
11916.1090254015
 97
0
 75
1
 76
1
 52
0.0
 41
1.0
 77
0
 78
13
 53
50.0
 43
0.0
 44
0.0
 45
182.184668996
 46
-15.9390855389
 79
2
 49
19.05
 49
-209.55
 53
355.0
 43
0.0
 44
0.0
 45
-35.243421425
 46
191.056845239
 79
2
 49
15.24
 49
-167.64058417
 53
100.4514447
 43
15.182007
 44
-1.3282535
 45
146.9412470904
 46
175.1177519122
 79
2
 49
16.1900088
 49
-178.0902446
 53
46.1842
 43
0.0
 44
50.8
 45
271.0790408921
 46
-42.0423279327
 79
2
 49
28.575
 49
-314.325
 53
96.63555761
 43
22.5899
 44
47.2965
 45
237.4041340515
 46
247.4261245977
 79
2
 49
24.28502314
 49
-267.13560816
 53
351.18415117
 43
0.0
 44
50.8
 45
237.404134065
 46
247.4261245855
 79
2
 49
22.85996707
 49
-251.45973192
 53
21.0
 43
25.4
 44
38.1
 45
151.6143912691
 46
-102.2651981871
 79
2
 49
19.05
 49
-209.55
 53
326.0
 43
25.4
 44
38.1
 45
61.8020283476
 46
184.1879661223
 79
2
 49
15.24
 49
-167.64
 53
71.451445
 43
38.0345326
 44
29.5779001
 45
213.4164192787
 46
81.9227688859
 79
2
 49
16.1900088
 49
-178.0899376
 53
37.5
 43
0.0
 44
0.0
 45
3.0886032506
 46
84.5550388732
 79
6
 49
0.0
 49
-165.608
 49
0.0
 49
-170.18
 49
0.0
 49
-168.275
 53
7.5
 43
0.0
 44
0.0
 45
66.8196625103
 46
100.1805748181
 79
6
 49
0.0
 49
-97.028
 49
0.0
 49
-161.798
 49
0.0
 49
-64.135
 53
-32.5
 43
-56.642
 44
0.0
 45
135.5905951669
 46
-5.7287439927
 79
6
 49
0.0
 49
-63.5
 49
0.0
 49
-198.12
 49
0.0
 49
-262.89
 53
-42.5
 43
-82.042
 44
0.0
 45
148.129181386
 46
25.4264910333
 79
6
 49
0.0
 49
-82.55
 49
0.0
 49
-131.572
 49
0.0
 49
-186.69
 98
0
  0
HATCH
  5
2FF
330
17
100
AcDbEntity
  8
COTA
 62
7
100
AcDbHatch
 10
0.0
 20
0.0
 30
0.0
210
0.0
220
0.0
230
1.0
  2
AR-CONC
 70
0
 71
0
 91
1
 92
3
 72
0
 73
1
 93
5
 10
3603.901448981453
 20
11718.52161985292
 10
3603.901448981453
 20
11701.52161985292
 10
3905.901448981453
 20
11701.5216198529
 10
3905.901448981454
 20
11718.52161985289
 10
3603.901448981453
 20
11718.52161985292
 97
0
 75
1
 76
1
 52
0.0
 41
1.0
 77
0
 78
13
 53
50.0
 43
0.0
 44
0.0
 45
182.184668996
 46
-15.9390855389
 79
2
 49
19.05
 49
-209.55
 53
355.0
 43
0.0
 44
0.0
 45
-35.243421425
 46
191.056845239
 79
2
 49
15.24
 49
-167.64058417
 53
100.4514447
 43
15.182007
 44
-1.3282535
 45
146.9412470904
 46
175.1177519122
 79
2
 49
16.1900088
 49
-178.0902446
 53
46.1842
 43
0.0
 44
50.8
 45
271.0790408921
 46
-42.0423279327
 79
2
 49
28.575
 49
-314.325
 53
96.63555761
 43
22.5899
 44
47.2965
 45
237.4041340515
 46
247.4261245977
 79
2
 49
24.28502314
 49
-267.13560816
 53
351.18415117
 43
0.0
 44
50.8
 45
237.404134065
 46
247.4261245855
 79
2
 49
22.85996707
 49
-251.45973192
 53
21.0
 43
25.4
 44
38.1
 45
151.6143912691
 46
-102.2651981871
 79
2
 49
19.05
 49
-209.55
 53
326.0
 43
25.4
 44
38.1
 45
61.8020283476
 46
184.1879661223
 79
2
 49
15.24
 49
-167.64
 53
71.451445
 43
38.0345326
 44
29.5779001
 45
213.4164192787
 46
81.9227688859
 79
2
 49
16.1900088
 49
-178.0899376
 53
37.5
 43
0.0
 44
0.0
 45
3.0886032506
 46
84.5550388732
 79
6
 49
0.0
 49
-165.608
 49
0.0
 49
-170.18
 49
0.0
 49
-168.275
 53
7.5
 43
0.0
 44
0.0
 45
66.8196625103
 46
100.1805748181
 79
6
 49
0.0
 49
-97.028
 49
0.0
 49
-161.798
 49
0.0
 49
-64.135
 53
-32.5
 43
-56.642
 44
0.0
 45
135.5905951669
 46
-5.7287439927
 79
6
 49
0.0
 49
-63.5
 49
0.0
 49
-198.12
 49
0.0
 49
-262.89
 53
-42.5
 43
-82.042
 44
0.0
 45
148.129181386
 46
25.4264910333
 79
6
 49
0.0
 49
-82.55
 49
0.0
 49
-131.572
 49
0.0
 49
-186.69
 98
0
  0
LINE
  5
300
330
17
100
AcDbEntity
  8
NOMENCLATURA
 62
7
370
25
100
AcDbLine
 10
3524.469100410565
 20
11584.20071465817
 30
0.0
 11
3593.7034476262
 21
11584.20071465817
 31
0.0
  0
LINE
  5
301
330
17
100
AcDbEntity
  8
COTA
 62
4
370
25
100
AcDbLine
 10
3905.901448981449
 20
11594.44318318602
 30
0.0
 11
3603.90144898145
 21
11594.44318318602
 31
0.0
  0
LINE
  5
302
330
17
100
AcDbEntity
  8
COTA
 62
0
370
25
100
AcDbLine
 10
3904.401448981449
 20
11592.94318318602
 30
0.0
 11
3907.401448981449
 21
11595.94318318602
 31
0.0
  0
LINE
  5
303
330
17
100
AcDbEntity
  8
COTA
 62
0
370
25
100
AcDbLine
 10
3605.40144898145
 20
11595.94318318602
 30
0.0
 11
3602.40144898145
 21
11592.94318318602
 31
0.0
  0
TEXT
  5
304
330
17
100
AcDbEntity
  8
NOMENCLATURA
 62
7
370
25
100
AcDbText
 10
3527.34532178579
 20
11588.39776466008
 30
0.0
 40
16.49999175001634
  1
M21.5
100
AcDbText
  0
TEXT
  5
305
330
17
100
AcDbEntity
  8
COTA
 62
240
370
25
100
AcDbText
 10
3754.90144898145
 20
11602.66248143163
 30
0.0
 40
10.0
  1
302
100
AcDbText
  0
ENDSEC
  0
SECTION
  2
OBJECTS
  0
DICTIONARY
  5
A
330
0
100
AcDbDictionary
281
1
  3
ACAD_COLOR
350
B
  3
ACAD_GROUP
350
C
  3
ACAD_LAYOUT
350
D
  3
ACAD_MATERIAL
350
E
  3
ACAD_MLEADERSTYLE
350
F
  3
ACAD_MLINESTYLE
350
10
  3
ACAD_PLOTSETTINGS
350
11
  3
ACAD_PLOTSTYLENAME
350
12
  3
ACAD_SCALELIST
350
14
  3
ACAD_TABLESTYLE
350
15
  3
ACAD_VISUALSTYLE
350
16
  3
EZDXF_META
350
2D
  0
DICTIONARY
  5
B
330
A
100
AcDbDictionary
281
1
  0
DICTIONARY
  5
C
330
A
100
AcDbDictionary
281
1
  0
DICTIONARY
  5
D
330
A
100
AcDbDictionary
281
1
  3
Model
350
1A
  3
Layout1
350
1E
  0
DICTIONARY
  5
E
330
A
100
AcDbDictionary
281
1
  3
ByBlock
350
1F
  3
ByLayer
350
20
  3
Global
350
21
  0
DICTIONARY
  5
F
330
A
100
AcDbDictionary
281
1
  3
Standard
350
2C
  0
DICTIONARY
  5
10
330
A
100
AcDbDictionary
281
1
  3
Standard
350
22
  0
DICTIONARY
  5
11
330
A
100
AcDbDictionary
281
1
  0
ACDBDICTIONARYWDFLT
  5
12
330
A
100
AcDbDictionary
281
1
  3
Normal
350
13
100
AcDbDictionaryWithDefault
340
13
  0
ACDBPLACEHOLDER
  5
13
330
12
  0
DICTIONARY
  5
14
330
A
100
AcDbDictionary
281
1
  0
DICTIONARY
  5
15
330
A
100
AcDbDictionary
281
1
  0
DICTIONARY
  5
16
330
A
100
AcDbDictionary
281
1
  0
LAYOUT
  5
1A
330
D
100
AcDbPlotSettings
  1

  4
A3
  6

 40
7.5
 41
20.0
 42
7.5
 43
20.0
 44
420.0
 45
297.0
 46
0.0
 47
0.0
 48
0.0
 49
0.0
140
0.0
141
0.0
142
1.0
143
1.0
 70
1024
 72
1
 73
0
 74
5
  7

 75
16
 76
0
 77
2
 78
300
147
1.0
148
0.0
149
0.0
100
AcDbLayout
  1
Model
 70
1
 71
0
 10
0.0
 20
0.0
 11
420.0
 21
297.0
 12
0.0
 22
0.0
 32
0.0
 14
1e+20
 24
1e+20
 34
1e+20
 15
-1e+20
 25
-1e+20
 35
-1e+20
146
0.0
 13
0.0
 23
0.0
 33
0.0
 16
1.0
 26
0.0
 36
0.0
 17
0.0
 27
1.0
 37
0.0
 76
1
330
17
  0
LAYOUT
  5
1E
330
D
100
AcDbPlotSettings
  1

  4
A3
  6

 40
7.5
 41
20.0
 42
7.5
 43
20.0
 44
420.0
 45
297.0
 46
0.0
 47
0.0
 48
0.0
 49
0.0
140
0.0
141
0.0
142
1.0
143
1.0
 70
0
 72
1
 73
0
 74
5
  7

 75
16
 76
0
 77
2
 78
300
147
1.0
148
0.0
149
0.0
100
AcDbLayout
  1
Layout1
 70
1
 71
1
 10
0.0
 20
0.0
 11
420.0
 21
297.0
 12
0.0
 22
0.0
 32
0.0
 14
1e+20
 24
1e+20
 34
1e+20
 15
-1e+20
 25
-1e+20
 35
-1e+20
146
0.0
 13
0.0
 23
0.0
 33
0.0
 16
1.0
 26
0.0
 36
0.0
 17
0.0
 27
1.0
 37
0.0
 76
1
330
1B
  0
MATERIAL
  5
1F
102
{ACAD_REACTORS
330
E
102
}
330
E
100
AcDbMaterial
  1
ByBlock
  2

 70
0
 40
1.0
 71
1
 41
1.0
 91
-1023410177
 42
1.0
 72
1
  3

 73
1
 74
1
 75
1
 44
0.5
 73
0
 45
1.0
 46
1.0
 77
1
  4

 78
1
 79
1
170
1
 48
1.0
171
1
  6

172
1
173
1
174
1
140
1.0
141
1.0
175
1
  7

176
1
177
1
178
1
143
1.0
179
1
  8

270
1
271
1
272
1
145
1.0
146
1.0
273
1
  9

274
1
275
1
276
1
 42
1.0
 72
1
  3

 73
1
 74
1
 75
1
 94
63
  0
MATERIAL
  5
20
102
{ACAD_REACTORS
330
E
102
}
330
E
100
AcDbMaterial
  1
ByLayer
  2

 70
0
 40
1.0
 71
1
 41
1.0
 91
-1023410177
 42
1.0
 72
1
  3

 73
1
 74
1
 75
1
 44
0.5
 73
0
 45
1.0
 46
1.0
 77
1
  4

 78
1
 79
1
170
1
 48
1.0
171
1
  6

172
1
173
1
174
1
140
1.0
141
1.0
175
1
  7

176
1
177
1
178
1
143
1.0
179
1
  8

270
1
271
1
272
1
145
1.0
146
1.0
273
1
  9

274
1
275
1
276
1
 42
1.0
 72
1
  3

 73
1
 74
1
 75
1
 94
63
  0
MATERIAL
  5
21
102
{ACAD_REACTORS
330
E
102
}
330
E
100
AcDbMaterial
  1
Global
  2

 70
0
 40
1.0
 71
1
 41
1.0
 91
-1023410177
 42
1.0
 72
1
  3

 73
1
 74
1
 75
1
 44
0.5
 73
0
 45
1.0
 46
1.0
 77
1
  4

 78
1
 79
1
170
1
 48
1.0
171
1
  6

172
1
173
1
174
1
140
1.0
141
1.0
175
1
  7

176
1
177
1
178
1
143
1.0
179
1
  8

270
1
271
1
272
1
145
1.0
146
1.0
273
1
  9

274
1
275
1
276
1
 42
1.0
 72
1
  3

 73
1
 74
1
 75
1
 94
63
  0
MLINESTYLE
  5
22
102
{ACAD_REACTORS
330
10
102
}
330
10
100
AcDbMlineStyle
  2
Standard
 70
0
  3

 62
256
 51
90.0
 52
90.0
 71
2
 49
0.5
 62
256
  6
BYLAYER
 49
-0.5
 62
256
  6
BYLAYER
  0
MLEADERSTYLE
  5
2C
102
{ACAD_REACTORS
330
F
102
}
330
F
100
AcDbMLeaderStyle
179
2
170
2
171
1
172
0
 90
2
 40
0.0
 41
0.0
173
1
 91
-1056964608
 92
-2
290
1
 42
2.0
291
1
 43
8.0
  3
Standard
 44
4.0
300

342
29
174
1
175
1
176
0
178
1
 93
-1056964608
 45
4.0
292
0
297
0
 46
4.0
 94
-1056964608
 47
1.0
 49
1.0
140
1.0
294
1
141
0.0
177
0
142
1.0
295
0
296
0
143
3.75
271
0
272
9
273
9
  0
DICTIONARY
  5
2D
330
A
100
AcDbDictionary
280
1
281
1
  3
CREATED_BY_EZDXF
350
2E
  3
WRITTEN_BY_EZDXF
350
308
  0
DICTIONARYVAR
  5
2E
330
2D
100
DictionaryVariables
280
0
  1
1.4.3 @ 2026-06-10T17:46:08.045524+00:00
  0
DICTIONARYVAR
  5
308
330
2D
100
DictionaryVariables
280
0
  1
1.4.3 @ 2026-06-10T17:46:08.067047+00:00
  0
ENDSEC
  0
EOF
