  0
SECTION
  2
HEADER
  9
$ACADVER
  1
AC1024
  9
$ACADMAINTVER
 70
6
  9
$DWGCODEPAGE
  3
ANSI_1252
  9
$LASTSAVEDBY
  1
ezdxf
  9
$INSBASE
 10
0.0
 20
0.0
 30
0.0
  9
$EXTMIN
 10
1e+20
 20
1e+20
 30
1e+20
  9
$EXTMAX
 10
-1e+20
 20
-1e+20
 30
-1e+20
  9
$LIMMIN
 10
0.0
 20
0.0
  9
$LIMMAX
 10
420.0
 20
297.0
  9
$ORTHOMODE
 70
0
  9
$REGENMODE
 70
1
  9
$FILLMODE
 70
1
  9
$QTEXTMODE
 70
0
  9
$MIRRTEXT
 70
1
  9
$LTSCALE
 40
1.0
  9
$ATTMODE
 70
1
  9
$TEXTSIZE
 40
2.5
  9
$TRACEWID
 40
1.0
  9
$TEXTSTYLE
  7
Standard
  9
$CLAYER
  8
0
  9
$CELTYPE
  6
ByLayer
  9
$CECOLOR
 62
256
  9
$CELTSCALE
 40
1.0
  9
$DISPSILH
 70
0
  9
$DIMSCALE
 40
1.0
  9
$DIMASZ
 40
2.5
  9
$DIMEXO
 40
0.625
  9
$DIMDLI
 40
3.75
  9
$DIMRND
 40
0.0
  9
$DIMDLE
 40
0.0
  9
$DIMEXE
 40
1.25
  9
$DIMTP
 40
0.0
  9
$DIMTM
 40
0.0
  9
$DIMTXT
 40
2.5
  9
$DIMCEN
 40
2.5
  9
$DIMTSZ
 40
0.0
  9
$DIMTOL
 70
0
  9
$DIMLIM
 70
0
  9
$DIMTIH
 70
0
  9
$DIMTOH
 70
0
  9
$DIMSE1
 70
0
  9
$DIMSE2
 70
0
  9
$DIMTAD
 70
1
  9
$DIMZIN
 70
8
  9
$DIMBLK
  1

  9
$DIMASO
 70
1
  9
$DIMSHO
 70
1
  9
$DIMPOST
  1

  9
$DIMAPOST
  1

  9
$DIMALT
 70
0
  9
$DIMALTD
 70
3
  9
$DIMALTF
 40
0.03937007874
  9
$DIMLFAC
 40
1.0
  9
$DIMTOFL
 70
1
  9
$DIMTVP
 40
0.0
  9
$DIMTIX
 70
0
  9
$DIMSOXD
 70
0
  9
$DIMSAH
 70
0
  9
$DIMBLK1
  1

  9
$DIMBLK2
  1

  9
$DIMSTYLE
  2
ISO-25
  9
$DIMCLRD
 70
0
  9
$DIMCLRE
 70
0
  9
$DIMCLRT
 70
0
  9
$DIMTFAC
 40
1.0
  9
$DIMGAP
 40
0.625
  9
$DIMJUST
 70
0
  9
$DIMSD1
 70
0
  9
$DIMSD2
 70
0
  9
$DIMTOLJ
 70
0
  9
$DIMTZIN
 70
8
  9
$DIMALTZ
 70
0
  9
$DIMALTTZ
 70
0
  9
$DIMUPT
 70
0
  9
$DIMDEC
 70
2
  9
$DIMTDEC
 70
2
  9
$DIMALTU
 70
2
  9
$DIMALTTD
 70
3
  9
$DIMTXSTY
  7
Standard
  9
$DIMAUNIT
 70
0
  9
$DIMADEC
 70
0
  9
$DIMALTRND
 40
0.0
  9
$DIMAZIN
 70
0
  9
$DIMDSEP
 70
44
  9
$DIMATFIT
 70
3
  9
$DIMFRAC
 70
0
  9
$DIMLDRBLK
  1

  9
$DIMLUNIT
 70
2
  9
$DIMLWD
 70
-2
  9
$DIMLWE
 70
-2
  9
$DIMTMOVE
 70
0
  9
$DIMFXL
 40
1.0
  9
$DIMFXLON
 70
0
  9
$DIMJOGANG
 40
0.785398163397
  9
$DIMTFILL
 70
0
  9
$DIMTFILLCLR
 70
0
  9
$DIMARCSYM
 70
0
  9
$DIMLTYPE
  6

  9
$DIMLTEX1
  6

  9
$DIMLTEX2
  6

  9
$DIMTXTDIRECTION
 70
0
  9
$LUNITS
 70
2
  9
$LUPREC
 70
4
  9
$SKETCHINC
 40
1.0
  9
$FILLETRAD
 40
10.0
  9
$AUNITS
 70
0
  9
$AUPREC
 70
2
  9
$MENU
  1
.
  9
$ELEVATION
 40
0.0
  9
$PELEVATION
 40
0.0
  9
$THICKNESS
 40
0.0
  9
$LIMCHECK
 70
0
  9
$CHAMFERA
 40
0.0
  9
$CHAMFERB
 40
0.0
  9
$CHAMFERC
 40
0.0
  9
$CHAMFERD
 40
0.0
  9
$SKPOLY
 70
0
  9
$TDCREATE
 40
2461202.6153472224
  9
$TDUCREATE
 40
2458532.153996898
  9
$TDUPDATE
 40
2461202.6153472224
  9
$TDUUPDATE
 40
2458532.1544311
  9
$TDINDWG
 40
0.0
  9
$TDUSRTIMER
 40
0.0
  9
$USRTIMER
 70
1
  9
$ANGBASE
 50
0.0
  9
$ANGDIR
 70
0
  9
$PDMODE
 70
0
  9
$PDSIZE
 40
0.0
  9
$PLINEWID
 40
0.0
  9
$SPLFRAME
 70
0
  9
$SPLINETYPE
 70
6
  9
$SPLINESEGS
 70
8
  9
$HANDSEED
  5
195
  9
$SURFTAB1
 70
6
  9
$SURFTAB2
 70
6
  9
$SURFTYPE
 70
6
  9
$SURFU
 70
6
  9
$SURFV
 70
6
  9
$UCSBASE
  2

  9
$UCSNAME
  2

  9
$UCSORG
 10
0.0
 20
0.0
 30
0.0
  9
$UCSXDIR
 10
1.0
 20
0.0
 30
0.0
  9
$UCSYDIR
 10
0.0
 20
1.0
 30
0.0
  9
$UCSORTHOREF
  2

  9
$UCSORTHOVIEW
 70
0
  9
$UCSORGTOP
 10
0.0
 20
0.0
 30
0.0
  9
$UCSORGBOTTOM
 10
0.0
 20
0.0
 30
0.0
  9
$UCSORGLEFT
 10
0.0
 20
0.0
 30
0.0
  9
$UCSORGRIGHT
 10
0.0
 20
0.0
 30
0.0
  9
$UCSORGFRONT
 10
0.0
 20
0.0
 30
0.0
  9
$UCSORGBACK
 10
0.0
 20
0.0
 30
0.0
  9
$PUCSBASE
  2

  9
$PUCSNAME
  2

  9
$PUCSORG
 10
0.0
 20
0.0
 30
0.0
  9
$PUCSXDIR
 10
1.0
 20
0.0
 30
0.0
  9
$PUCSYDIR
 10
0.0
 20
1.0
 30
0.0
  9
$PUCSORTHOREF
  2

  9
$PUCSORTHOVIEW
 70
0
  9
$PUCSORGTOP
 10
0.0
 20
0.0
 30
0.0
  9
$PUCSORGBOTTOM
 10
0.0
 20
0.0
 30
0.0
  9
$PUCSORGLEFT
 10
0.0
 20
0.0
 30
0.0
  9
$PUCSORGRIGHT
 10
0.0
 20
0.0
 30
0.0
  9
$PUCSORGFRONT
 10
0.0
 20
0.0
 30
0.0
  9
$PUCSORGBACK
 10
0.0
 20
0.0
 30
0.0
  9
$USERI1
 70
0
  9
$USERI2
 70
0
  9
$USERI3
 70
0
  9
$USERI4
 70
0
  9
$USERI5
 70
0
  9
$USERR1
 40
0.0
  9
$USERR2
 40
0.0
  9
$USERR3
 40
0.0
  9
$USERR4
 40
0.0
  9
$USERR5
 40
0.0
  9
$WORLDVIEW
 70
1
  9
$SHADEDGE
 70
3
  9
$SHADEDIF
 70
70
  9
$TILEMODE
 70
1
  9
$MAXACTVP
 70
64
  9
$PINSBASE
 10
0.0
 20
0.0
 30
0.0
  9
$PLIMCHECK
 70
0
  9
$PEXTMIN
 10
1e+20
 20
1e+20
 30
1e+20
  9
$PEXTMAX
 10
-1e+20
 20
-1e+20
 30
-1e+20
  9
$PLIMMIN
 10
0.0
 20
0.0
  9
$PLIMMAX
 10
420.0
 20
297.0
  9
$UNITMODE
 70
0
  9
$VISRETAIN
 70
1
  9
$PLINEGEN
 70
0
  9
$PSLTSCALE
 70
1
  9
$TREEDEPTH
 70
3020
  9
$CMLSTYLE
  2
Standard
  9
$CMLJUST
 70
0
  9
$CMLSCALE
 40
20.0
  9
$PROXYGRAPHICS
 70
1
  9
$MEASUREMENT
 70
1
  9
$CELWEIGHT
370
-1
  9
$ENDCAPS
280
0
  9
$JOINSTYLE
280
0
  9
$LWDISPLAY
290
0
  9
$INSUNITS
 70
6
  9
$HYPERLINKBASE
  1

  9
$STYLESHEET
  1

  9
$XEDIT
290
1
  9
$CEPSNTYPE
380
0
  9
$PSTYLEMODE
290
1
  9
$FINGERPRINTGUID
  2
{1D862560-7125-4E49-B9CC-7201A16230B1}
  9
$VERSIONGUID
  2
{6DEB9BB5-5BA6-4B27-A56C-F370AC70AB6E}
  9
$EXTNAMES
290
1
  9
$PSVPSCALE
 40
0.0
  9
$OLESTARTUP
290
0
  9
$SORTENTS
280
127
  9
$INDEXCTL
280
0
  9
$HIDETEXT
280
1
  9
$XCLIPFRAME
280
1
  9
$HALOGAP
280
0
  9
$OBSCOLOR
 70
257
  9
$OBSLTYPE
280
0
  9
$INTERSECTIONDISPLAY
280
0
  9
$INTERSECTIONCOLOR
 70
257
  9
$DIMASSOC
280
2
  9
$PROJECTNAME
  1

  9
$CAMERADISPLAY
290
0
  9
$LENSLENGTH
 40
50.0
  9
$CAMERAHEIGHT
 40
0.0
  9
$STEPSPERSEC
 40
24.0
  9
$STEPSIZE
 40
100.0
  9
$3DDWFPREC
 40
2.0
  9
$PSOLWIDTH
 40
0.005
  9
$PSOLHEIGHT
 40
0.08
  9
$LOFTANG1
 40
1.570796326795
  9
$LOFTANG2
 40
1.570796326795
  9
$LOFTMAG1
 40
0.0
  9
$LOFTMAG2
 40
0.0
  9
$LOFTPARAM
 70
7
  9
$LOFTNORMALS
280
1
  9
$LATITUDE
 40
37.795
  9
$LONGITUDE
 40
-122.394
  9
$NORTHDIRECTION
 40
0.0
  9
$TIMEZONE
 70
-8000
  9
$LIGHTGLYPHDISPLAY
280
1
  9
$TILEMODELIGHTSYNCH
280
1
  9
$CMATERIAL
347
20
  9
$SOLIDHIST
280
0
  9
$SHOWHIST
280
1
  9
$DWFFRAME
280
2
  9
$DGNFRAME
280
2
  9
$REALWORLDSCALE
290
1
  9
$INTERFERECOLOR
 62
256
  9
$CSHADOW
280
0
  9
$SHADOWPLANELOCATION
 40
0.0
  0
ENDSEC
  0
SECTION
  2
CLASSES
  0
CLASS
  1
ACDBDICTIONARYWDFLT
  2
AcDbDictionaryWithDefault
  3
ObjectDBX Classes
 90
0
 91
0
280
0
281
0
  0
CLASS
  1
SUN
  2
AcDbSun
  3
SCENEOE
 90
1153
 91
0
280
0
281
0
  0
CLASS
  1
VISUALSTYLE
  2
AcDbVisualStyle
  3
ObjectDBX Classes
 90
4095
 91
0
280
0
281
0
  0
CLASS
  1
MATERIAL
  2
AcDbMaterial
  3
ObjectDBX Classes
 90
1153
 91
0
280
0
281
0
  0
CLASS
  1
SCALE
  2
AcDbScale
  3
ObjectDBX Classes
 90
1153
 91
0
280
0
281
0
  0
CLASS
  1
TABLESTYLE
  2
AcDbTableStyle
  3
ObjectDBX Classes
 90
4095
 91
0
280
0
281
0
  0
CLASS
  1
MLEADERSTYLE
  2
AcDbMLeaderStyle
  3
ACDB_MLEADERSTYLE_CLASS
 90
4095
 91
0
280
0
281
0
  0
CLASS
  1
DICTIONARYVAR
  2
AcDbDictionaryVar
  3
ObjectDBX Classes
 90
0
 91
0
280
0
281
0
  0
CLASS
  1
CELLSTYLEMAP
  2
AcDbCellStyleMap
  3
ObjectDBX Classes
 90
1152
 91
0
280
0
281
0
  0
CLASS
  1
MENTALRAYRENDERSETTINGS
  2
AcDbMentalRayRenderSettings
  3
SCENEOE
 90
1024
 91
0
280
0
281
0
  0
CLASS
  1
ACDBDETAILVIEWSTYLE
  2
AcDbDetailViewStyle
  3
ObjectDBX Classes
 90
1025
 91
0
280
0
281
0
  0
CLASS
  1
ACDBSECTIONVIEWSTYLE
  2
AcDbSectionViewStyle
  3
ObjectDBX Classes
 90
1025
 91
0
280
0
281
0
  0
CLASS
  1
RASTERVARIABLES
  2
AcDbRasterVariables
  3
ISM
 90
0
 91
0
280
0
281
0
  0
CLASS
  1
ACDBPLACEHOLDER
  2
AcDbPlaceHolder
  3
ObjectDBX Classes
 90
0
 91
0
280
0
281
0
  0
CLASS
  1
LAYOUT
  2
AcDbLayout
  3
ObjectDBX Classes
 90
0
 91
0
280
0
281
0
  0
ENDSEC
  0
SECTION
  2
TABLES
  0
TABLE
  2
VPORT
  5
8
330
0
100
AcDbSymbolTable
 70
1
  0
VPORT
  5
23
330
8
100
AcDbSymbolTableRecord
100
AcDbViewportTableRecord
  2
*Active
 70
0
 10
0.0
 20
0.0
 11
1.0
 21
1.0
 12
0.0
 22
0.0
 13
0.0
 23
0.0
 14
0.5
 24
0.5
 15
0.5
 25
0.5
 16
0.0
 26
0.0
 36
1.0
 17
0.0
 27
0.0
 37
0.0
 40
1000.0
 41
1.34
 42
50.0
 43
0.0
 44
0.0
 50
0.0
 51
0.0
 71
0
 72
1000
 73
1
 74
3
 75
0
 76
0
 77
0
 78
0
281
0
 65
0
146
0.0
  0
ENDTAB
  0
TABLE
  2
LTYPE
  5
2
330
0
100
AcDbSymbolTable
 70
3
  0
LTYPE
  5
24
330
2
100
AcDbSymbolTableRecord
100
AcDbLinetypeTableRecord
  2
ByBlock
 70
0
  3

 72
65
 73
0
 40
0.0
  0
LTYPE
  5
25
330
2
100
AcDbSymbolTableRecord
100
AcDbLinetypeTableRecord
  2
ByLayer
 70
0
  3

 72
65
 73
0
 40
0.0
  0
LTYPE
  5
26
330
2
100
AcDbSymbolTableRecord
100
AcDbLinetypeTableRecord
  2
Continuous
 70
0
  3

 72
65
 73
0
 40
0.0
  0
ENDTAB
  0
TABLE
  2
LAYER
  5
1
330
0
100
AcDbSymbolTable
 70
22
  0
LAYER
  5
27
330
1
100
AcDbSymbolTableRecord
100
AcDbLayerTableRecord
  2
0
 70
0
 62
7
  6
Continuous
370
-3
390
13
347
21
  0
LAYER
  5
28
330
1
100
AcDbSymbolTableRecord
100
AcDbLayerTableRecord
  2
Defpoints
 70
0
 62
7
  6
Continuous
290
0
370
-3
390
13
347
21
  0
LAYER
  5
2F
330
1
100
AcDbSymbolTableRecord
100
AcDbLayerTableRecord
  2
barrote
 70
0
 62
7
  6
Continuous
370
-3
390
13
347
21
  0
LAYER
  5
30
330
1
100
AcDbSymbolTableRecord
100
AcDbLayerTableRecord
  2
COTA
 70
0
 62
7
  6
Continuous
370
-3
390
13
347
21
  0
LAYER
  5
31
330
1
100
AcDbSymbolTableRecord
100
AcDbLayerTableRecord
  2
SCO-___-LAJ
 70
0
 62
7
  6
Continuous
370
-3
390
13
347
21
  0
LAYER
  5
32
330
1
100
AcDbSymbolTableRecord
100
AcDbLayerTableRecord
  2
Cota Seção (2x)
 70
0
 62
7
  6
Continuous
370
-3
390
13
347
21
  0
LAYER
  5
33
330
1
100
AcDbSymbolTableRecord
100
AcDbLayerTableRecord
  2
5
 70
0
 62
7
  6
Continuous
370
-3
390
13
347
21
  0
LAYER
  5
34
330
1
100
AcDbSymbolTableRecord
100
AcDbLayerTableRecord
  2
detalhes
 70
0
 62
7
  6
Continuous
370
-3
390
13
347
21
  0
LAYER
  5
35
330
1
100
AcDbSymbolTableRecord
100
AcDbLayerTableRecord
  2
CONCRETO
 70
0
 62
7
  6
Continuous
370
-3
390
13
347
21
  0
LAYER
  5
36
330
1
100
AcDbSymbolTableRecord
100
AcDbLayerTableRecord
  2
Madeira
 70
0
 62
7
  6
Continuous
370
-3
390
13
347
21
  0
LAYER
  5
37
330
1
100
AcDbSymbolTableRecord
100
AcDbLayerTableRecord
  2
Texto Seção
 70
0
 62
7
  6
Continuous
370
-3
390
13
347
21
  0
LAYER
  5
38
330
1
100
AcDbSymbolTableRecord
100
AcDbLayerTableRecord
  2
Hachura
 70
0
 62
7
  6
Continuous
370
-3
390
13
347
21
  0
LAYER
  5
39
330
1
100
AcDbSymbolTableRecord
100
AcDbLayerTableRecord
  2
TENSOR
 70
0
 62
7
  6
Continuous
370
-3
390
13
347
21
  0
LAYER
  5
3A
330
1
100
AcDbSymbolTableRecord
100
AcDbLayerTableRecord
  2
presilha
 70
0
 62
7
  6
Continuous
370
-3
390
13
347
21
  0
LAYER
  5
3B
330
1
100
AcDbSymbolTableRecord
100
AcDbLayerTableRecord
  2
texto
 70
0
 62
7
  6
Continuous
370
-3
390
13
347
21
  0
LAYER
  5
3C
330
1
100
AcDbSymbolTableRecord
100
AcDbLayerTableRecord
  2
SARR_2.2x7
 70
0
 62
7
  6
Continuous
370
-3
390
13
347
21
  0
LAYER
  5
3D
330
1
100
AcDbSymbolTableRecord
100
AcDbLayerTableRecord
  2
SARR_3.5x7
 70
0
 62
7
  6
Continuous
370
-3
390
13
347
21
  0
LAYER
  5
3E
330
1
100
AcDbSymbolTableRecord
100
AcDbLayerTableRecord
  2
00 - FELIPE
 70
0
 62
7
  6
Continuous
370
-3
390
13
347
21
  0
LAYER
  5
3F
330
1
100
AcDbSymbolTableRecord
100
AcDbLayerTableRecord
  2
TEXTO PILAR
 70
0
 62
7
  6
Continuous
370
-3
390
13
347
21
  0
LAYER
  5
40
330
1
100
AcDbSymbolTableRecord
100
AcDbLayerTableRecord
  2
Painéis
 70
0
 62
7
  6
Continuous
370
-3
390
13
347
21
  0
LAYER
  5
41
330
1
100
AcDbSymbolTableRecord
100
AcDbLayerTableRecord
  2
NOMENCLATURA
 70
0
 62
7
  6
Continuous
370
-3
390
13
347
21
  0
LAYER
  5
42
330
1
100
AcDbSymbolTableRecord
100
AcDbLayerTableRecord
  2
Cotas
 70
0
 62
7
  6
Continuous
370
-3
390
13
347
21
  0
ENDTAB
  0
TABLE
  2
STYLE
  5
5
330
0
100
AcDbSymbolTable
 70
1
  0
STYLE
  5
29
330
5
100
AcDbSymbolTableRecord
100
AcDbTextStyleTableRecord
  2
Standard
 70
0
 40
0.0
 41
1.0
 50
0.0
 71
0
 42
2.5
  3
txt
  4

  0
ENDTAB
  0
TABLE
  2
VIEW
  5
7
330
0
100
AcDbSymbolTable
 70
0
  0
ENDTAB
  0
TABLE
  2
UCS
  5
6
330
0
100
AcDbSymbolTable
 70
0
  0
ENDTAB
  0
TABLE
  2
APPID
  5
3
330
0
100
AcDbSymbolTable
 70
3
  0
APPID
  5
2A
330
3
100
AcDbSymbolTableRecord
100
AcDbRegAppTableRecord
  2
ACAD
 70
0
  0
APPID
  5
192
330
3
100
AcDbSymbolTableRecord
100
AcDbRegAppTableRecord
  2
HATCHBACKGROUNDCOLOR
 70
0
  0
APPID
  5
193
330
3
100
AcDbSymbolTableRecord
100
AcDbRegAppTableRecord
  2
EZDXF
 70
0
  0
ENDTAB
  0
TABLE
  2
DIMSTYLE
  5
4
330
0
100
AcDbSymbolTable
 70
1
100
AcDbDimStyleTable
  0
DIMSTYLE
105
2B
330
4
100
AcDbSymbolTableRecord
100
AcDbDimStyleTableRecord
  2
Standard
 70
0
 40
1.0
 41
2.5
 42
0.625
 43
3.75
 44
1.25
 45
0.0
 46
0.0
 47
0.0
 48
0.0
 49
2.5
140
2.5
141
2.5
142
0.0
143
0.03937007874
144
1.0
145
0.0
146
1.0
147
0.625
148
0.0
 69
0
 70
0
 71
0
 72
0
 73
0
 74
0
 75
0
 76
0
 77
1
 78
8
 79
3
170
0
171
3
172
1
173
0
174
0
175
0
176
0
177
0
178
0
179
2
271
2
272
2
273
2
274
3
275
0
276
0
277
2
278
44
279
0
280
0
281
0
282
0
283
0
284
8
285
0
286
0
288
0
289
3
290
0
371
-2
372
-2
  0
ENDTAB
  0
TABLE
  2
BLOCK_RECORD
  5
9
330
0
100
AcDbSymbolTable
 70
2
  0
BLOCK_RECORD
  5
17
330
9
100
AcDbSymbolTableRecord
100
AcDbBlockTableRecord
  2
*Model_Space
340
1A
 70
0
280
1
281
0
  0
BLOCK_RECORD
  5
1B
330
9
100
AcDbSymbolTableRecord
100
AcDbBlockTableRecord
  2
*Paper_Space
340
1E
 70
0
280
1
281
0
  0
ENDTAB
  0
ENDSEC
  0
SECTION
  2
BLOCKS
  0
BLOCK
  5
18
330
17
100
AcDbEntity
  8
0
100
AcDbBlockBegin
  2
*Model_Space
 70
0
 10
0.0
 20
0.0
 30
0.0
  3
*Model_Space
  1

  0
ENDBLK
  5
19
330
17
100
AcDbEntity
  8
0
100
AcDbBlockEnd
  0
BLOCK
  5
1C
330
1B
100
AcDbEntity
  8
0
100
AcDbBlockBegin
  2
*Paper_Space
 70
0
 10
0.0
 20
0.0
 30
0.0
  3
*Paper_Space
  1

  0
ENDBLK
  5
1D
330
1B
100
AcDbEntity
  8
0
100
AcDbBlockEnd
  0
ENDSEC
  0
SECTION
  2
ENTITIES
  0
LINE
  5
43
330
17
100
AcDbEntity
  8
0
 62
7
370
25
100
AcDbLine
 10
1774.668535438799
 20
16724.3949498416
 30
0.0
 11
1774.668535438799
 21
16712.3949498416
 31
0.0
  0
LINE
  5
44
330
17
100
AcDbEntity
  8
0
 62
7
370
25
100
AcDbLine
 10
1910.668535438828
 20
16721.39494984161
 30
0.0
 11
1910.668535438828
 21
16715.39494984161
 31
0.0
  0
LINE
  5
45
330
17
100
AcDbEntity
  8
0
 62
7
370
25
100
AcDbLine
 10
1908.668535438828
 20
16724.39494984161
 30
0.0
 11
1908.668535438828
 21
16712.39494984161
 31
0.0
  0
LINE
  5
46
330
17
100
AcDbEntity
  8
0
 62
7
370
25
100
AcDbLine
 10
1908.668535438828
 20
16715.39494984161
 30
0.0
 11
1910.668535438828
 21
16715.39494984161
 31
0.0
  0
LINE
  5
47
330
17
100
AcDbEntity
  8
0
 62
7
370
25
100
AcDbLine
 10
1774.668535438799
 20
16712.3949498416
 30
0.0
 11
1804.668535438799
 21
16712.3949498416
 31
0.0
  0
LINE
  5
48
330
17
100
AcDbEntity
  8
0
 62
7
370
25
100
AcDbLine
 10
1878.668535438828
 20
16717.39494984161
 30
0.0
 11
1908.668535438828
 21
16717.39494984161
 31
0.0
  0
LINE
  5
49
330
17
100
AcDbEntity
  8
0
 62
7
370
25
100
AcDbLine
 10
1878.668535438828
 20
16719.39494984161
 30
0.0
 11
1908.668535438828
 21
16719.39494984161
 31
0.0
  0
LINE
  5
4A
330
17
100
AcDbEntity
  8
TENSOR
 62
3
370
25
100
AcDbLine
 10
1913.668535438828
 20
16718.3949498416
 30
0.0
 11
1769.365241260701
 21
16718.3949498416
 31
0.0
  0
LINE
  5
4B
330
17
100
AcDbEntity
  8
0
 62
7
370
25
100
AcDbLine
 10
1908.668535438828
 20
16721.39494984161
 30
0.0
 11
1910.668535438828
 21
16721.39494984161
 31
0.0
  0
LINE
  5
4C
330
17
100
AcDbEntity
  8
0
 62
7
370
25
100
AcDbLine
 10
1804.668535438799
 20
16717.3949498416
 30
0.0
 11
1774.668535438799
 21
16717.3949498416
 31
0.0
  0
LINE
  5
4D
330
17
100
AcDbEntity
  8
0
 62
7
370
25
100
AcDbLine
 10
1804.668535438799
 20
16719.3949498416
 30
0.0
 11
1774.668535438799
 21
16719.3949498416
 31
0.0
  0
LINE
  5
4E
330
17
100
AcDbEntity
  8
0
 62
7
370
25
100
AcDbLine
 10
1774.668535438799
 20
16724.3949498416
 30
0.0
 11
1804.668535438799
 21
16724.3949498416
 31
0.0
  0
LINE
  5
4F
330
17
100
AcDbEntity
  8
0
 62
7
370
25
100
AcDbLine
 10
1908.668535438828
 20
16712.39494984161
 30
0.0
 11
1878.668535438828
 21
16712.39494984161
 31
0.0
  0
LINE
  5
50
330
17
100
AcDbEntity
  8
0
 62
7
370
25
100
AcDbLine
 10
1908.668535438828
 20
16724.39494984161
 30
0.0
 11
1878.668535438828
 21
16724.39494984161
 31
0.0
  0
LINE
  5
51
330
17
100
AcDbEntity
  8
0
 62
7
370
25
100
AcDbLine
 10
1772.668535438799
 20
16721.3949498416
 30
0.0
 11
1772.668535438799
 21
16715.3949498416
 31
0.0
  0
LINE
  5
52
330
17
100
AcDbEntity
  8
0
 62
7
370
25
100
AcDbLine
 10
1774.668535438799
 20
16715.3949498416
 30
0.0
 11
1772.668535438799
 21
16715.3949498416
 31
0.0
  0
LINE
  5
53
330
17
100
AcDbEntity
  8
0
 62
7
370
25
100
AcDbLine
 10
1772.668535438799
 20
16721.3949498416
 30
0.0
 11
1774.668535438799
 21
16721.3949498416
 31
0.0
  0
LINE
  5
54
330
17
100
AcDbEntity
  8
COTA
 62
241
370
25
100
AcDbLine
 10
2080.557586737181
 20
16801.08158613205
 30
0.0
 11
2461.557586737181
 21
16801.08158613207
 31
0.0
  0
LINE
  5
55
330
17
100
AcDbEntity
  8
SARR_2.2x7
 62
40
370
25
100
AcDbLine
 10
2097.557586737182
 20
16784.88158613205
 30
0.0
 11
2326.557586737182
 21
16784.88158613206
 31
0.0
  0
LINE
  5
56
330
17
100
AcDbEntity
  8
SARR_2.2x7
 62
40
370
25
100
AcDbLine
 10
2326.557586737182
 20
16784.88158613206
 30
0.0
 11
2432.557586737182
 21
16784.88158613207
 31
0.0
  0
LINE
  5
57
330
17
100
AcDbEntity
  8
COTA
 62
241
370
25
100
AcDbLine
 10
2080.557586737182
 20
16787.08158613205
 30
0.0
 11
2080.557586737181
 21
16801.08158613205
 31
0.0
  0
LINE
  5
58
330
17
100
AcDbEntity
  8
SARR_2.2x7
 62
40
370
25
100
AcDbLine
 10
2089.557586737185
 20
16737.08158613204
 30
0.0
 11
2089.557586737182
 21
16787.08158613205
 31
0.0
  0
LINE
  5
59
330
17
100
AcDbEntity
  8
COTA
 62
241
370
25
100
AcDbLine
 10
2461.557586737182
 20
16787.08158613207
 30
0.0
 11
2461.557586737181
 21
16801.08158613207
 31
0.0
  0
LINE
  5
5A
330
17
100
AcDbEntity
  8
SARR_3.5x7
 62
81
370
25
100
AcDbLine
 10
2432.557586737182
 20
16787.08158613211
 30
0.0
 11
2432.557586737098
 21
16737.08158613207
 31
0.0
  0
LINE
  5
5B
330
17
100
AcDbEntity
  8
SARR_3.5x7
 62
81
370
25
100
AcDbLine
 10
2429.057586737182
 20
16784.88158613212
 30
0.0
 11
2429.057586737156
 21
16737.08158613207
 31
0.0
  0
LINE
  5
5C
330
17
100
AcDbEntity
  8
SARR_3.5x7
 62
81
370
25
100
AcDbLine
 10
2330.057586737211
 20
16784.88158613211
 30
0.0
 11
2330.057586737243
 21
16737.08158613206
 31
0.0
  0
LINE
  5
5D
330
17
100
AcDbEntity
  8
SARR_3.5x7
 62
81
370
25
100
AcDbLine
 10
2323.057586737124
 20
16784.88158613216
 30
0.0
 11
2323.057586737098
 21
16737.08158613206
 31
0.0
  0
LINE
  5
5E
330
17
100
AcDbEntity
  8
SARR_3.5x7
 62
81
370
25
100
AcDbLine
 10
2097.557586737182
 20
16787.08158613206
 30
0.0
 11
2097.557586737185
 21
16737.08158613204
 31
0.0
  0
LINE
  5
5F
330
17
100
AcDbEntity
  8
SARR_3.5x7
 62
81
370
25
100
AcDbLine
 10
2101.057586737182
 20
16784.88158613206
 30
0.0
 11
2101.057586737185
 21
16737.08158613204
 31
0.0
  0
LINE
  5
60
330
17
100
AcDbEntity
  8
SARR_3.5x7
 62
81
370
25
100
AcDbLine
 10
2326.557586737182
 20
16784.88158613206
 30
0.0
 11
2326.557586737185
 21
16737.08158613208
 31
0.0
  0
LINE
  5
61
330
17
100
AcDbEntity
  8
SARR_3.5x7
 62
81
370
25
100
AcDbLine
 10
2323.057586737098
 20
16737.08158613206
 30
0.0
 11
2326.557586737185
 21
16737.08158613206
 31
0.0
  0
LINE
  5
62
330
17
100
AcDbEntity
  8
SARR_3.5x7
 62
81
370
25
100
AcDbLine
 10
2326.557586737185
 20
16737.08158613206
 30
0.0
 11
2330.057586737243
 21
16737.08158613206
 31
0.0
  0
LINE
  5
63
330
17
100
AcDbEntity
  8
SARR_3.5x7
 62
81
370
25
100
AcDbLine
 10
2429.057586737156
 20
16737.08158613207
 30
0.0
 11
2432.557586737098
 21
16737.08158613207
 31
0.0
  0
LINE
  5
64
330
17
100
AcDbEntity
  8
SARR_3.5x7
 62
81
370
25
100
AcDbLine
 10
2097.557586737185
 20
16737.08158613204
 30
0.0
 11
2101.057586737185
 21
16737.08158613204
 31
0.0
  0
LINE
  5
65
330
17
100
AcDbEntity
  8
Painéis
 62
200
370
25
100
AcDbLine
 10
2080.557586737182
 20
16787.08158613205
 30
0.0
 11
2461.557586737182
 21
16787.08158613207
 31
0.0
  0
LINE
  5
66
330
17
100
AcDbEntity
  8
Painéis
 62
200
370
25
100
AcDbLine
 10
2080.557586737185
 20
16737.08158613204
 30
0.0
 11
2461.557586737185
 21
16737.08158613207
 31
0.0
  0
LINE
  5
67
330
17
100
AcDbEntity
  8
Painéis
 62
200
370
25
100
AcDbLine
 10
2080.557586737185
 20
16737.08158613204
 30
0.0
 11
2080.557586737182
 21
16787.08158613205
 31
0.0
  0
LINE
  5
68
330
17
100
AcDbEntity
  8
Painéis
 62
200
370
25
100
AcDbLine
 10
2326.557586737185
 20
16737.08158613206
 30
0.0
 11
2326.557586737182
 21
16787.08158613206
 31
0.0
  0
LINE
  5
69
330
17
100
AcDbEntity
  8
Painéis
 62
200
370
25
100
AcDbLine
 10
2461.557586737185
 20
16737.08158613207
 30
0.0
 11
2461.557586737182
 21
16787.08158613207
 31
0.0
  0
LINE
  5
6A
330
17
100
AcDbEntity
  8
SARR_2.2x7
 62
40
370
25
100
AcDbLine
 10
2154.909097850533
 20
16609.62578818832
 30
0.0
 11
2323.90909785053
 21
16609.62578818835
 31
0.0
  0
LINE
  5
6B
330
17
100
AcDbEntity
  8
SARR_3.5x7
 62
81
370
25
100
AcDbLine
 10
2327.409097850559
 20
16609.62578818839
 30
0.0
 11
2327.409097850591
 21
16547.82578818833
 31
0.0
  0
LINE
  5
6C
330
17
100
AcDbEntity
  8
SARR_3.5x7
 62
81
370
25
100
AcDbLine
 10
2320.409097850472
 20
16609.62578818845
 30
0.0
 11
2320.409097850446
 21
16547.82578818833
 31
0.0
  0
LINE
  5
6D
330
17
100
AcDbEntity
  8
SARR_3.5x7
 62
81
370
25
100
AcDbLine
 10
2154.909097850533
 20
16611.82578818833
 30
0.0
 11
2154.909097850536
 21
16547.8257881883
 31
0.0
  0
LINE
  5
6E
330
17
100
AcDbEntity
  8
SARR_3.5x7
 62
81
370
25
100
AcDbLine
 10
2158.409097850533
 20
16609.62578818833
 30
0.0
 11
2158.409097850536
 21
16547.8257881883
 31
0.0
  0
LINE
  5
6F
330
17
100
AcDbEntity
  8
SARR_3.5x7
 62
81
370
25
100
AcDbLine
 10
2323.90909785053
 20
16609.62578818835
 30
0.0
 11
2323.909097850533
 21
16547.82578818835
 31
0.0
  0
LINE
  5
70
330
17
100
AcDbEntity
  8
SARR_3.5x7
 62
81
370
25
100
AcDbLine
 10
2320.409097850446
 20
16547.82578818833
 30
0.0
 11
2323.909097850533
 21
16547.82578818833
 31
0.0
  0
LINE
  5
71
330
17
100
AcDbEntity
  8
SARR_3.5x7
 62
81
370
25
100
AcDbLine
 10
2323.909097850533
 20
16547.82578818833
 30
0.0
 11
2327.409097850591
 21
16547.82578818833
 31
0.0
  0
LINE
  5
72
330
17
100
AcDbEntity
  8
SARR_3.5x7
 62
81
370
25
100
AcDbLine
 10
2154.909097850536
 20
16547.8257881883
 30
0.0
 11
2158.409097850536
 21
16547.8257881883
 31
0.0
  0
LINE
  5
73
330
17
100
AcDbEntity
  8
Painéis
 62
200
370
25
100
AcDbLine
 10
2323.909097850533
 20
16547.82578818833
 30
0.0
 11
2323.909097850529
 21
16611.82578818834
 31
0.0
  0
LINE
  5
74
330
17
100
AcDbEntity
  8
COTA
 62
241
370
25
100
AcDbLine
 10
2533.409097850533
 20
16611.82578818833
 30
0.0
 11
2597.909097850533
 21
16611.82578818833
 31
0.0
  0
LINE
  5
75
330
17
100
AcDbEntity
  8
COTA
 62
241
370
25
100
AcDbLine
 10
2597.909097850533
 20
16611.82578818833
 30
0.0
 11
2597.909097850533
 21
16595.82578818833
 31
0.0
  0
LINE
  5
76
330
17
100
AcDbEntity
  8
SARR_2.2x7
 62
40
370
25
100
AcDbLine
 10
2590.909097850534
 20
16547.82578818832
 30
0.0
 11
2590.909097850534
 21
16595.82578818833
 31
0.0
  0
LINE
  5
77
330
17
100
AcDbEntity
  8
SARR_2.2x7
 62
40
370
25
100
AcDbLine
 10
2323.90909785053
 20
16609.62578818831
 30
0.0
 11
2491.909097850534
 21
16609.62578818833
 31
0.0
  0
LINE
  5
78
330
17
100
AcDbEntity
  8
Painéis
 62
200
370
25
100
AcDbLine
 10
2445.909097850533
 20
16547.82578818833
 30
0.0
 11
2445.909097850533
 21
16611.82578818833
 31
0.0
  0
LINE
  5
79
330
17
100
AcDbEntity
  8
Painéis
 62
200
370
25
100
AcDbLine
 10
2082.557586737185
 20
16737.08158613204
 30
0.0
 11
2082.557586737182
 21
16787.08158613205
 31
0.0
  0
LINE
  5
7A
330
17
100
AcDbEntity
  8
NOMENCLATURA
 62
7
370
25
100
AcDbLine
 10
2010.348398422421
 20
16665.53696404737
 30
0.0
 11
2068.555062362726
 21
16665.53696404737
 31
0.0
  0
LINE
  5
7B
330
17
100
AcDbEntity
  8
NOMENCLATURA
 62
7
370
25
100
AcDbLine
 10
2068.555062362726
 20
16665.53696404737
 30
0.0
 11
2068.555062362726
 21
16715.92369987871
 31
0.0
  0
LINE
  5
7C
330
17
100
AcDbEntity
  8
SARR_2.2x7
 62
40
370
25
100
AcDbLine
 10
2432.55758673717
 20
16780.08158613207
 30
0.0
 11
2461.557586737182
 21
16780.08158613207
 31
0.0
  0
LINE
  5
7D
330
17
100
AcDbEntity
  8
Painéis
 62
200
370
25
100
AcDbLine
 10
2079.909097850533
 20
16547.82578818833
 30
0.0
 11
2079.909097850533
 21
16611.82578818833
 31
0.0
  0
LINE
  5
7E
330
17
100
AcDbEntity
  8
Painéis
 62
200
370
25
100
AcDbLine
 10
2079.909097850533
 20
16611.82578818833
 30
0.0
 11
2533.409097850533
 21
16611.82578818833
 31
0.0
  0
LINE
  5
7F
330
17
100
AcDbEntity
  8
Painéis
 62
200
370
25
100
AcDbLine
 10
2533.409097850533
 20
16611.82578818833
 30
0.0
 11
2533.409097850533
 21
16595.82578818833
 31
0.0
  0
LINE
  5
80
330
17
100
AcDbEntity
  8
Painéis
 62
200
370
25
100
AcDbLine
 10
2533.409097850533
 20
16595.82578818833
 30
0.0
 11
2597.909097850533
 21
16595.82578818833
 31
0.0
  0
LINE
  5
81
330
17
100
AcDbEntity
  8
Painéis
 62
200
370
25
100
AcDbLine
 10
2597.909097850533
 20
16595.82578818833
 30
0.0
 11
2597.909097850533
 21
16547.82578818833
 31
0.0
  0
LINE
  5
82
330
17
100
AcDbEntity
  8
Painéis
 62
200
370
25
100
AcDbLine
 10
2597.909097850533
 20
16547.82578818833
 30
0.0
 11
2079.909097850533
 21
16547.82578818833
 31
0.0
  0
LINE
  5
83
330
17
100
AcDbEntity
  8
SARR_3.5x7
 62
81
370
25
100
AcDbLine
 10
2491.909097850534
 20
16611.82578818833
 30
0.0
 11
2491.909097850533
 21
16547.82578818833
 31
0.0
  0
LINE
  5
84
330
17
100
AcDbEntity
  8
SARR_3.5x7
 62
81
370
25
100
AcDbLine
 10
2488.409097850504
 20
16609.62578818839
 30
0.0
 11
2488.409097850472
 21
16547.82578818833
 31
0.0
  0
LINE
  5
85
330
17
100
AcDbEntity
  8
SARR_2.2x7
 62
40
370
25
100
AcDbLine
 10
2079.909097850533
 20
16604.82578818833
 30
0.0
 11
2154.909097850533
 21
16604.82578818833
 31
0.0
  0
LINE
  5
86
330
17
100
AcDbEntity
  8
SARR_2.2x7
 62
40
370
25
100
AcDbLine
 10
2491.909097850533
 20
16604.82578818833
 30
0.0
 11
2533.409097850533
 21
16604.82578818833
 31
0.0
  0
LINE
  5
87
330
17
100
AcDbEntity
  8
SARR_2.2x7
 62
40
370
25
100
AcDbLine
 10
2526.409097850533
 20
16588.82578818833
 30
0.0
 11
2597.909097850533
 21
16588.82578818833
 31
0.0
  0
LINE
  5
88
330
17
100
AcDbEntity
  8
SARR_2.2x7
 62
40
370
25
100
AcDbLine
 10
2526.409097850533
 20
16604.82578818833
 30
0.0
 11
2526.409097850533
 21
16595.82578818833
 31
0.0
  0
LINE
  5
89
330
17
100
AcDbEntity
  8
SARR_2.2x7
 62
40
370
25
100
AcDbLine
 10
2533.409097850533
 20
16595.82578818833
 30
0.0
 11
2526.409097850533
 21
16595.82578818833
 31
0.0
  0
LINE
  5
8A
330
17
100
AcDbEntity
  8
SARR_2.2x7
 62
40
370
25
100
AcDbLine
 10
2526.409097850533
 20
16595.82578818833
 30
0.0
 11
2526.409097850533
 21
16588.82578818833
 31
0.0
  0
LINE
  5
8B
330
17
100
AcDbEntity
  8
Painéis
 62
200
370
25
100
AcDbLine
 10
1843.715747521805
 20
16450.91490159995
 30
0.0
 11
1913.570765637888
 21
16450.91490159993
 31
0.0
  0
LINE
  5
8C
330
17
100
AcDbEntity
  8
Painéis
 62
200
370
25
100
AcDbLine
 10
1843.715747521805
 20
16447.31490159996
 30
0.0
 11
1913.554603861274
 21
16447.31490159993
 31
0.0
  0
LINE
  5
8D
330
17
100
AcDbEntity
  8
COTA
 62
4
370
25
100
AcDbLine
 10
1786.068535438852
 20
16668.42489231332
 30
0.0
 11
1711.691812349593
 21
16668.42489231332
 31
0.0
  0
LINE
  5
8E
330
17
100
AcDbEntity
  8
COTA
 62
4
370
25
100
AcDbLine
 10
1764.068535438852
 20
16796.42489231331
 30
0.0
 11
1711.691812349593
 21
16796.42489231331
 31
0.0
  0
LINE
  5
8F
330
17
100
AcDbEntity
  8
COTA
 62
4
370
25
100
AcDbLine
 10
1714.691812349593
 20
16668.42489231332
 30
0.0
 11
1714.691812349593
 21
16796.42489231331
 31
0.0
  0
LINE
  5
90
330
17
100
AcDbEntity
  8
COTA
 62
4
370
25
100
AcDbLine
 10
1897.268535438835
 20
16668.42489231332
 30
0.0
 11
1940.540268197102
 21
16668.42489231332
 31
0.0
  0
LINE
  5
91
330
17
100
AcDbEntity
  8
COTA
 62
4
370
25
100
AcDbLine
 10
1881.668535438841
 20
16796.42489231332
 30
0.0
 11
1940.540268197102
 21
16796.42489231332
 31
0.0
  0
LINE
  5
92
330
17
100
AcDbEntity
  8
COTA
 62
4
370
25
100
AcDbLine
 10
1937.540268197103
 20
16668.42489231332
 30
0.0
 11
1937.540268197103
 21
16796.42489231332
 31
0.0
  0
LINE
  5
93
330
17
100
AcDbEntity
  8
Cota Seção (2x)
 62
180
370
25
100
AcDbLine
 10
1856.168535440483
 20
16746.92489231327
 30
0.0
 11
1856.168535440483
 21
16765.92489231327
 31
0.0
  0
LINE
  5
94
330
17
100
AcDbEntity
  8
Cota Seção (2x)
 62
180
370
25
100
AcDbLine
 10
1856.168535440483
 20
16765.92489231327
 30
0.0
 11
1841.168535440482
 21
16765.92489231327
 31
0.0
  0
LINE
  5
95
330
17
100
AcDbEntity
  8
Cota Seção (2x)
 62
180
370
25
100
AcDbLine
 10
1841.168535440482
 20
16765.92489231327
 30
0.0
 11
1841.168535440482
 21
16746.92489231327
 31
0.0
  0
LINE
  5
96
330
17
100
AcDbEntity
  8
Cota Seção (2x)
 62
180
370
25
100
AcDbLine
 10
1841.168535440482
 20
16746.92489231327
 30
0.0
 11
1856.168535440483
 21
16746.92489231327
 31
0.0
  0
LINE
  5
97
330
17
100
AcDbEntity
  8
COTA
 62
4
370
25
100
AcDbLine
 10
1764.068535438852
 20
16796.42489231331
 30
0.0
 11
1731.011240835055
 21
16796.42489231331
 31
0.0
  0
LINE
  5
98
330
17
100
AcDbEntity
  8
COTA
 62
4
370
25
100
AcDbLine
 10
1764.068535438852
 20
16768.42489231328
 30
0.0
 11
1731.011240835055
 21
16768.42489231328
 31
0.0
  0
LINE
  5
99
330
17
100
AcDbEntity
  8
COTA
 62
4
370
25
100
AcDbLine
 10
1734.011240835055
 20
16796.42489231331
 30
0.0
 11
1734.011240835055
 21
16768.42489231328
 31
0.0
  0
LINE
  5
9A
330
17
100
AcDbEntity
  8
COTA
 62
4
370
25
100
AcDbLine
 10
1764.068535438852
 20
16764.42489231328
 30
0.0
 11
1731.011240835383
 21
16764.42489231328
 31
0.0
  0
LINE
  5
9B
330
17
100
AcDbEntity
  8
COTA
 62
4
370
25
100
AcDbLine
 10
1786.068535438852
 20
16668.42489231332
 30
0.0
 11
1731.011240835383
 21
16668.42489231332
 31
0.0
  0
LINE
  5
9C
330
17
100
AcDbEntity
  8
COTA
 62
4
370
25
100
AcDbLine
 10
1734.011240835383
 20
16764.42489231328
 30
0.0
 11
1734.011240835383
 21
16668.42489231332
 31
0.0
  0
LINE
  5
9D
330
17
100
AcDbEntity
  8
COTA
 62
4
370
25
100
AcDbLine
 10
1822.668535438828
 20
16665.4248923133
 30
0.0
 11
1822.668535438828
 21
16620.69807851112
 31
0.0
  0
LINE
  5
9E
330
17
100
AcDbEntity
  8
COTA
 62
4
370
25
100
AcDbLine
 10
1860.668535438828
 20
16665.4248923133
 30
0.0
 11
1860.668535438828
 21
16620.69807851112
 31
0.0
  0
LINE
  5
9F
330
17
100
AcDbEntity
  8
COTA
 62
4
370
25
100
AcDbLine
 10
1822.668535438828
 20
16623.69807851112
 30
0.0
 11
1860.668535438828
 21
16623.69807851112
 31
0.0
  0
LINE
  5
A0
330
17
100
AcDbEntity
  8
COTA
 62
4
370
25
100
AcDbLine
 10
1766.365241260702
 20
16718.39494984161
 30
0.0
 11
1747.810627991355
 21
16718.39494984161
 31
0.0
  0
LINE
  5
A1
330
17
100
AcDbEntity
  8
COTA
 62
4
370
25
100
AcDbLine
 10
1766.365241260702
 20
16668.42489231334
 30
0.0
 11
1747.810627991355
 21
16668.42489231334
 31
0.0
  0
LINE
  5
A2
330
17
100
AcDbEntity
  8
COTA
 62
4
370
25
100
AcDbLine
 10
1750.810627991354
 20
16718.39494984161
 30
0.0
 11
1750.810627991354
 21
16668.42489231334
 31
0.0
  0
LINE
  5
A3
330
17
100
AcDbEntity
  8
Cota Seção (2x)
 62
180
370
25
100
AcDbLine
 10
1832.668535438799
 20
16688.42489231331
 30
0.0
 11
1850.668535438799
 21
16688.42489231331
 31
0.0
  0
LINE
  5
A4
330
17
100
AcDbEntity
  8
Cota Seção (2x)
 62
180
370
25
100
AcDbLine
 10
1850.668535438799
 20
16688.42489231331
 30
0.0
 11
1850.668535438799
 21
16703.42489231331
 31
0.0
  0
LINE
  5
A5
330
17
100
AcDbEntity
  8
Cota Seção (2x)
 62
180
370
25
100
AcDbLine
 10
1850.668535438799
 20
16703.42489231331
 30
0.0
 11
1832.668535438799
 21
16703.42489231331
 31
0.0
  0
LINE
  5
A6
330
17
100
AcDbEntity
  8
Cota Seção (2x)
 62
180
370
25
100
AcDbLine
 10
1832.668535438799
 20
16703.42489231331
 30
0.0
 11
1832.668535438799
 21
16688.42489231331
 31
0.0
  0
LINE
  5
A7
330
17
100
AcDbEntity
  8
COTA
 62
4
370
25
100
AcDbLine
 10
2080.557586737185
 20
16734.08158613205
 30
0.0
 11
2080.557586737185
 21
16707.54166015389
 31
0.0
  0
LINE
  5
A8
330
17
100
AcDbEntity
  8
COTA
 62
4
370
25
100
AcDbLine
 10
2326.557586737185
 20
16734.08158613207
 30
0.0
 11
2326.557586737185
 21
16707.54166015389
 31
0.0
  0
LINE
  5
A9
330
17
100
AcDbEntity
  8
COTA
 62
4
370
25
100
AcDbLine
 10
2080.557586737185
 20
16710.54166015389
 30
0.0
 11
2326.557586737185
 21
16710.54166015389
 31
0.0
  0
LINE
  5
AA
330
17
100
AcDbEntity
  8
COTA
 62
0
370
25
100
AcDbLine
 10
2082.057586737185
 20
16712.04166015389
 30
0.0
 11
2079.057586737185
 21
16709.04166015389
 31
0.0
  0
LINE
  5
AB
330
17
100
AcDbEntity
  8
COTA
 62
0
370
25
100
AcDbLine
 10
2325.057586737185
 20
16709.04166015389
 30
0.0
 11
2328.057586737185
 21
16712.04166015389
 31
0.0
  0
LINE
  5
AC
330
17
100
AcDbEntity
  8
COTA
 62
4
370
25
100
AcDbLine
 10
2326.557586737185
 20
16734.08158613207
 30
0.0
 11
2326.557586737185
 21
16707.5416601539
 31
0.0
  0
LINE
  5
AD
330
17
100
AcDbEntity
  8
COTA
 62
4
370
25
100
AcDbLine
 10
2461.557586737185
 20
16734.08158613207
 30
0.0
 11
2461.557586737185
 21
16707.5416601539
 31
0.0
  0
LINE
  5
AE
330
17
100
AcDbEntity
  8
COTA
 62
4
370
25
100
AcDbLine
 10
2326.557586737185
 20
16710.5416601539
 30
0.0
 11
2461.557586737185
 21
16710.5416601539
 31
0.0
  0
LINE
  5
AF
330
17
100
AcDbEntity
  8
COTA
 62
0
370
25
100
AcDbLine
 10
2328.057586737185
 20
16712.0416601539
 30
0.0
 11
2325.057586737185
 21
16709.0416601539
 31
0.0
  0
LINE
  5
B0
330
17
100
AcDbEntity
  8
COTA
 62
0
370
25
100
AcDbLine
 10
2460.057586737185
 20
16709.0416601539
 30
0.0
 11
2463.057586737185
 21
16712.0416601539
 31
0.0
  0
LINE
  5
B1
330
17
100
AcDbEntity
  8
COTA
 62
4
370
25
100
AcDbLine
 10
2080.557586737185
 20
16734.08158613205
 30
0.0
 11
2080.557586737185
 21
16674.00314946517
 31
0.0
  0
LINE
  5
B2
330
17
100
AcDbEntity
  8
COTA
 62
4
370
25
100
AcDbLine
 10
2461.557586737185
 20
16734.08158613207
 30
0.0
 11
2461.557586737185
 21
16674.00314946517
 31
0.0
  0
LINE
  5
B3
330
17
100
AcDbEntity
  8
COTA
 62
4
370
25
100
AcDbLine
 10
2080.557586737185
 20
16677.00314946517
 30
0.0
 11
2461.557586737185
 21
16677.00314946517
 31
0.0
  0
LINE
  5
B4
330
17
100
AcDbEntity
  8
COTA
 62
0
370
25
100
AcDbLine
 10
2082.057586737185
 20
16678.50314946517
 30
0.0
 11
2079.057586737185
 21
16675.50314946517
 31
0.0
  0
LINE
  5
B5
330
17
100
AcDbEntity
  8
COTA
 62
0
370
25
100
AcDbLine
 10
2460.057586737185
 20
16675.50314946517
 30
0.0
 11
2463.057586737185
 21
16678.50314946517
 31
0.0
  0
LINE
  5
B6
330
17
100
AcDbEntity
  8
COTA
 62
4
370
25
100
AcDbLine
 10
2464.557586737182
 20
16787.08158613207
 30
0.0
 11
2486.986528857678
 21
16787.08158613207
 31
0.0
  0
LINE
  5
B7
330
17
100
AcDbEntity
  8
COTA
 62
4
370
25
100
AcDbLine
 10
2464.557586737182
 20
16737.08158613207
 30
0.0
 11
2486.986528857678
 21
16737.08158613207
 31
0.0
  0
LINE
  5
B8
330
17
100
AcDbEntity
  8
COTA
 62
4
370
25
100
AcDbLine
 10
2483.986528857677
 20
16787.08158613207
 30
0.0
 11
2483.986528857677
 21
16737.08158613207
 31
0.0
  0
LINE
  5
B9
330
17
100
AcDbEntity
  8
COTA
 62
0
370
25
100
AcDbLine
 10
2485.486528857677
 20
16785.58158613207
 30
0.0
 11
2482.486528857677
 21
16788.58158613207
 31
0.0
  0
LINE
  5
BA
330
17
100
AcDbEntity
  8
COTA
 62
0
370
25
100
AcDbLine
 10
2482.486528857677
 20
16738.58158613207
 30
0.0
 11
2485.486528857677
 21
16735.58158613207
 31
0.0
  0
LINE
  5
BB
330
17
100
AcDbEntity
  8
COTA
 62
4
370
25
100
AcDbLine
 10
2464.557586737182
 20
16787.08158613207
 30
0.0
 11
2486.986528857678
 21
16787.08158613207
 31
0.0
  0
LINE
  5
BC
330
17
100
AcDbEntity
  8
COTA
 62
4
370
25
100
AcDbLine
 10
2464.557586737182
 20
16801.08158613207
 30
0.0
 11
2486.986528857678
 21
16801.08158613207
 31
0.0
  0
LINE
  5
BD
330
17
100
AcDbEntity
  8
COTA
 62
4
370
25
100
AcDbLine
 10
2483.986528857677
 20
16787.08158613207
 30
0.0
 11
2483.986528857677
 21
16801.08158613207
 31
0.0
  0
LINE
  5
BE
330
17
100
AcDbEntity
  8
COTA
 62
4
370
25
100
AcDbLine
 10
2483.986528857677
 20
16801.08158613207
 30
0.0
 11
2483.986528857677
 21
16820.19854519639
 31
0.0
  0
LINE
  5
BF
330
17
100
AcDbEntity
  8
COTA
 62
0
370
25
100
AcDbLine
 10
2482.486528857677
 20
16788.58158613207
 30
0.0
 11
2485.486528857677
 21
16785.58158613207
 31
0.0
  0
LINE
  5
C0
330
17
100
AcDbEntity
  8
COTA
 62
0
370
25
100
AcDbLine
 10
2485.486528857677
 20
16799.58158613207
 30
0.0
 11
2482.486528857677
 21
16802.58158613207
 31
0.0
  0
LINE
  5
C1
330
17
100
AcDbEntity
  8
COTA
 62
4
370
25
100
AcDbLine
 10
2464.557586737182
 20
16801.08158613207
 30
0.0
 11
2508.602034531309
 21
16801.08158613207
 31
0.0
  0
LINE
  5
C2
330
17
100
AcDbEntity
  8
COTA
 62
4
370
25
100
AcDbLine
 10
2464.557586737182
 20
16737.08158613207
 30
0.0
 11
2508.602034531309
 21
16737.08158613207
 31
0.0
  0
LINE
  5
C3
330
17
100
AcDbEntity
  8
COTA
 62
4
370
25
100
AcDbLine
 10
2505.602034531309
 20
16801.08158613207
 30
0.0
 11
2505.602034531309
 21
16737.08158613207
 31
0.0
  0
LINE
  5
C4
330
17
100
AcDbEntity
  8
COTA
 62
0
370
25
100
AcDbLine
 10
2507.102034531309
 20
16799.58158613207
 30
0.0
 11
2504.102034531309
 21
16802.58158613207
 31
0.0
  0
LINE
  5
C5
330
17
100
AcDbEntity
  8
COTA
 62
0
370
25
100
AcDbLine
 10
2504.102034531309
 20
16738.58158613207
 30
0.0
 11
2507.102034531309
 21
16735.58158613207
 31
0.0
  0
LINE
  5
C6
330
17
100
AcDbEntity
  8
COTA
 62
4
370
25
100
AcDbLine
 10
2079.909097850533
 20
16544.82578818832
 30
0.0
 11
2079.909097850533
 21
16490.80764702133
 31
0.0
  0
LINE
  5
C7
330
17
100
AcDbEntity
  8
COTA
 62
4
370
25
100
AcDbLine
 10
2323.909097850533
 20
16544.82578818835
 30
0.0
 11
2323.909097850533
 21
16490.80764702133
 31
0.0
  0
LINE
  5
C8
330
17
100
AcDbEntity
  8
COTA
 62
4
370
25
100
AcDbLine
 10
2079.909097850533
 20
16493.80764702133
 30
0.0
 11
2323.909097850533
 21
16493.80764702133
 31
0.0
  0
LINE
  5
C9
330
17
100
AcDbEntity
  8
COTA
 62
0
370
25
100
AcDbLine
 10
2081.409097850533
 20
16495.30764702133
 30
0.0
 11
2078.409097850533
 21
16492.30764702133
 31
0.0
  0
LINE
  5
CA
330
17
100
AcDbEntity
  8
COTA
 62
0
370
25
100
AcDbLine
 10
2322.409097850533
 20
16492.30764702133
 30
0.0
 11
2325.409097850533
 21
16495.30764702133
 31
0.0
  0
LINE
  5
CB
330
17
100
AcDbEntity
  8
COTA
 62
4
370
25
100
AcDbLine
 10
2323.909097850533
 20
16544.82578818833
 30
0.0
 11
2323.909097850533
 21
16518.28586221016
 31
0.0
  0
LINE
  5
CC
330
17
100
AcDbEntity
  8
COTA
 62
4
370
25
100
AcDbLine
 10
2445.909097850533
 20
16544.82578818833
 30
0.0
 11
2445.909097850533
 21
16518.28586221016
 31
0.0
  0
LINE
  5
CD
330
17
100
AcDbEntity
  8
COTA
 62
4
370
25
100
AcDbLine
 10
2323.909097850533
 20
16521.28586221016
 30
0.0
 11
2445.909097850533
 21
16521.28586221016
 31
0.0
  0
LINE
  5
CE
330
17
100
AcDbEntity
  8
COTA
 62
0
370
25
100
AcDbLine
 10
2325.409097850533
 20
16522.78586221016
 30
0.0
 11
2322.409097850533
 21
16519.78586221016
 31
0.0
  0
LINE
  5
CF
330
17
100
AcDbEntity
  8
COTA
 62
0
370
25
100
AcDbLine
 10
2444.409097850533
 20
16519.78586221016
 30
0.0
 11
2447.409097850533
 21
16522.78586221016
 31
0.0
  0
LINE
  5
D0
330
17
100
AcDbEntity
  8
COTA
 62
4
370
25
100
AcDbLine
 10
2445.909097850533
 20
16544.82578818833
 30
0.0
 11
2445.909097850533
 21
16518.28586221016
 31
0.0
  0
LINE
  5
D1
330
17
100
AcDbEntity
  8
COTA
 62
4
370
25
100
AcDbLine
 10
2597.909097850533
 20
16544.82578818833
 30
0.0
 11
2597.909097850533
 21
16518.28586221016
 31
0.0
  0
LINE
  5
D2
330
17
100
AcDbEntity
  8
COTA
 62
4
370
25
100
AcDbLine
 10
2445.909097850533
 20
16521.28586221016
 30
0.0
 11
2597.909097850533
 21
16521.28586221016
 31
0.0
  0
LINE
  5
D3
330
17
100
AcDbEntity
  8
COTA
 62
0
370
25
100
AcDbLine
 10
2447.409097850533
 20
16522.78586221016
 30
0.0
 11
2444.409097850533
 21
16519.78586221016
 31
0.0
  0
LINE
  5
D4
330
17
100
AcDbEntity
  8
COTA
 62
0
370
25
100
AcDbLine
 10
2596.409097850533
 20
16519.78586221016
 30
0.0
 11
2599.409097850533
 21
16522.78586221016
 31
0.0
  0
LINE
  5
D5
330
17
100
AcDbEntity
  8
COTA
 62
4
370
25
100
AcDbLine
 10
2590.909097850534
 20
16544.82578818832
 30
0.0
 11
2590.909097850534
 21
16528.61463105477
 31
0.0
  0
LINE
  5
D6
330
17
100
AcDbEntity
  8
COTA
 62
4
370
25
100
AcDbLine
 10
2597.909097850534
 20
16544.82578818833
 30
0.0
 11
2597.909097850534
 21
16528.61463105477
 31
0.0
  0
LINE
  5
D7
330
17
100
AcDbEntity
  8
COTA
 62
4
370
25
100
AcDbLine
 10
2590.909097850534
 20
16531.61463105476
 30
0.0
 11
2597.909097850534
 21
16531.61463105476
 31
0.0
  0
LINE
  5
D8
330
17
100
AcDbEntity
  8
COTA
 62
4
370
25
100
AcDbLine
 10
2597.909097850534
 20
16531.61463105476
 30
0.0
 11
2612.64009200258
 21
16531.61463105476
 31
0.0
  0
LINE
  5
D9
330
17
100
AcDbEntity
  8
COTA
 62
0
370
25
100
AcDbLine
 10
2592.409097850534
 20
16533.11463105476
 30
0.0
 11
2589.409097850534
 21
16530.11463105476
 31
0.0
  0
LINE
  5
DA
330
17
100
AcDbEntity
  8
COTA
 62
0
370
25
100
AcDbLine
 10
2596.409097850534
 20
16530.11463105476
 30
0.0
 11
2599.409097850534
 21
16533.11463105476
 31
0.0
  0
LINE
  5
DB
330
17
100
AcDbEntity
  8
COTA
 62
4
370
25
100
AcDbLine
 10
2323.909097850533
 20
16544.82578818833
 30
0.0
 11
2323.909097850533
 21
16490.80764702179
 31
0.0
  0
LINE
  5
DC
330
17
100
AcDbEntity
  8
COTA
 62
4
370
25
100
AcDbLine
 10
2597.909097850534
 20
16544.82578818833
 30
0.0
 11
2597.909097850534
 21
16490.80764702179
 31
0.0
  0
LINE
  5
DD
330
17
100
AcDbEntity
  8
COTA
 62
4
370
25
100
AcDbLine
 10
2323.909097850533
 20
16493.80764702179
 30
0.0
 11
2597.909097850534
 21
16493.80764702179
 31
0.0
  0
LINE
  5
DE
330
17
100
AcDbEntity
  8
COTA
 62
0
370
25
100
AcDbLine
 10
2325.409097850533
 20
16495.30764702179
 30
0.0
 11
2322.409097850533
 21
16492.30764702179
 31
0.0
  0
LINE
  5
DF
330
17
100
AcDbEntity
  8
COTA
 62
0
370
25
100
AcDbLine
 10
2596.409097850534
 20
16492.30764702179
 30
0.0
 11
2599.409097850534
 21
16495.30764702179
 31
0.0
  0
LINE
  5
E0
330
17
100
AcDbEntity
  8
COTA
 62
4
370
25
100
AcDbLine
 10
2079.909097850533
 20
16544.82578818832
 30
0.0
 11
2079.909097850533
 21
16464.43740680395
 31
0.0
  0
LINE
  5
E1
330
17
100
AcDbEntity
  8
COTA
 62
4
370
25
100
AcDbLine
 10
2597.909097850534
 20
16544.82578818833
 30
0.0
 11
2597.909097850534
 21
16464.43740680395
 31
0.0
  0
LINE
  5
E2
330
17
100
AcDbEntity
  8
COTA
 62
4
370
25
100
AcDbLine
 10
2079.909097850533
 20
16467.43740680395
 30
0.0
 11
2597.909097850534
 21
16467.43740680395
 31
0.0
  0
LINE
  5
E3
330
17
100
AcDbEntity
  8
COTA
 62
0
370
25
100
AcDbLine
 10
2081.409097850533
 20
16468.93740680395
 30
0.0
 11
2078.409097850533
 21
16465.93740680395
 31
0.0
  0
LINE
  5
E4
330
17
100
AcDbEntity
  8
COTA
 62
0
370
25
100
AcDbLine
 10
2596.409097850534
 20
16465.93740680395
 30
0.0
 11
2599.409097850534
 21
16468.93740680395
 31
0.0
  0
LINE
  5
E5
330
17
100
AcDbEntity
  8
COTA
 62
4
370
25
100
AcDbLine
 10
2600.909097850615
 20
16595.82578818834
 30
0.0
 11
2623.338039971031
 21
16595.82578818834
 31
0.0
  0
LINE
  5
E6
330
17
100
AcDbEntity
  8
COTA
 62
4
370
25
100
AcDbLine
 10
2600.909097850534
 20
16547.82578818834
 30
0.0
 11
2623.338039971031
 21
16547.82578818834
 31
0.0
  0
LINE
  5
E7
330
17
100
AcDbEntity
  8
COTA
 62
4
370
25
100
AcDbLine
 10
2620.338039971031
 20
16595.82578818834
 30
0.0
 11
2620.338039971031
 21
16547.82578818834
 31
0.0
  0
LINE
  5
E8
330
17
100
AcDbEntity
  8
COTA
 62
0
370
25
100
AcDbLine
 10
2621.838039971031
 20
16594.32578818834
 30
0.0
 11
2618.838039971031
 21
16597.32578818834
 31
0.0
  0
LINE
  5
E9
330
17
100
AcDbEntity
  8
COTA
 62
0
370
25
100
AcDbLine
 10
2618.838039971031
 20
16549.32578818834
 30
0.0
 11
2621.838039971031
 21
16546.32578818834
 31
0.0
  0
LINE
  5
EA
330
17
100
AcDbEntity
  8
COTA
 62
4
370
25
100
AcDbLine
 10
2600.909097850615
 20
16595.82578818834
 30
0.0
 11
2623.338039971031
 21
16595.82578818834
 31
0.0
  0
LINE
  5
EB
330
17
100
AcDbEntity
  8
COTA
 62
4
370
25
100
AcDbLine
 10
2600.909097850534
 20
16611.82578818834
 30
0.0
 11
2623.338039971031
 21
16611.82578818834
 31
0.0
  0
LINE
  5
EC
330
17
100
AcDbEntity
  8
COTA
 62
4
370
25
100
AcDbLine
 10
2620.338039971031
 20
16595.82578818834
 30
0.0
 11
2620.338039971031
 21
16611.82578818834
 31
0.0
  0
LINE
  5
ED
330
17
100
AcDbEntity
  8
COTA
 62
4
370
25
100
AcDbLine
 10
2620.338039971031
 20
16611.82578818834
 30
0.0
 11
2620.338039971031
 21
16630.84040807138
 31
0.0
  0
LINE
  5
EE
330
17
100
AcDbEntity
  8
COTA
 62
0
370
25
100
AcDbLine
 10
2618.838039971031
 20
16597.32578818834
 30
0.0
 11
2621.838039971031
 21
16594.32578818834
 31
0.0
  0
LINE
  5
EF
330
17
100
AcDbEntity
  8
COTA
 62
0
370
25
100
AcDbLine
 10
2621.838039971031
 20
16610.32578818834
 30
0.0
 11
2618.838039971031
 21
16613.32578818834
 31
0.0
  0
LINE
  5
F0
330
17
100
AcDbEntity
  8
COTA
 62
4
370
25
100
AcDbLine
 10
2600.909097850534
 20
16611.82578818834
 30
0.0
 11
2644.953545644662
 21
16611.82578818834
 31
0.0
  0
LINE
  5
F1
330
17
100
AcDbEntity
  8
COTA
 62
4
370
25
100
AcDbLine
 10
2600.909097850534
 20
16547.82578818834
 30
0.0
 11
2644.953545644662
 21
16547.82578818834
 31
0.0
  0
LINE
  5
F2
330
17
100
AcDbEntity
  8
COTA
 62
4
370
25
100
AcDbLine
 10
2641.953545644662
 20
16611.82578818834
 30
0.0
 11
2641.953545644662
 21
16547.82578818834
 31
0.0
  0
LINE
  5
F3
330
17
100
AcDbEntity
  8
COTA
 62
0
370
25
100
AcDbLine
 10
2643.453545644662
 20
16610.32578818834
 30
0.0
 11
2640.453545644662
 21
16613.32578818834
 31
0.0
  0
LINE
  5
F4
330
17
100
AcDbEntity
  8
COTA
 62
0
370
25
100
AcDbLine
 10
2640.453545644662
 20
16549.32578818834
 30
0.0
 11
2643.453545644662
 21
16546.32578818834
 31
0.0
  0
LINE
  5
F5
330
17
100
AcDbEntity
  8
COTA
 62
4
370
25
100
AcDbLine
 10
2597.909097850533
 20
16614.82578818833
 30
0.0
 11
2597.909097850533
 21
16629.10675884945
 31
0.0
  0
LINE
  5
F6
330
17
100
AcDbEntity
  8
COTA
 62
4
370
25
100
AcDbLine
 10
2533.409097850533
 20
16614.82578818844
 30
0.0
 11
2533.409097850533
 21
16629.10675884945
 31
0.0
  0
LINE
  5
F7
330
17
100
AcDbEntity
  8
COTA
 62
4
370
25
100
AcDbLine
 10
2597.909097850533
 20
16626.10675884945
 30
0.0
 11
2533.409097850533
 21
16626.10675884945
 31
0.0
  0
LINE
  5
F8
330
17
100
AcDbEntity
  8
COTA
 62
0
370
25
100
AcDbLine
 10
2596.409097850533
 20
16624.60675884945
 30
0.0
 11
2599.409097850533
 21
16627.60675884945
 31
0.0
  0
LINE
  5
F9
330
17
100
AcDbEntity
  8
COTA
 62
0
370
25
100
AcDbLine
 10
2534.909097850533
 20
16627.60675884945
 30
0.0
 11
2531.909097850533
 21
16624.60675884945
 31
0.0
  0
LINE
  5
FA
330
17
100
AcDbEntity
  8
00 - FELIPE
 62
4
370
25
100
AcDbLine
 10
2082.557586737185
 20
16734.08158613205
 30
0.0
 11
2082.557586737185
 21
16716.1939217627
 31
0.0
  0
LINE
  5
FB
330
17
100
AcDbEntity
  8
00 - FELIPE
 62
4
370
25
100
AcDbLine
 10
2080.557586737185
 20
16734.08158613205
 30
0.0
 11
2080.557586737185
 21
16716.1939217627
 31
0.0
  0
LINE
  5
FC
330
17
100
AcDbEntity
  8
00 - FELIPE
 62
4
370
25
100
AcDbLine
 10
2082.557586737185
 20
16719.19392176271
 30
0.0
 11
2085.557586737185
 21
16719.19392176271
 31
0.0
  0
LINE
  5
FD
330
17
100
AcDbEntity
  8
00 - FELIPE
 62
4
370
25
100
AcDbLine
 10
2080.557586737185
 20
16719.19392176271
 30
0.0
 11
2062.446475626074
 21
16719.19392176271
 31
0.0
  0
LINE
  5
FE
330
17
100
AcDbEntity
  8
00 - FELIPE
 62
4
370
25
100
AcDbLine
 10
2082.557586737185
 20
16719.19392176271
 30
0.0
 11
2080.557586737185
 21
16719.19392176271
 31
0.0
  0
LINE
  5
FF
330
17
100
AcDbEntity
  8
00 - FELIPE
 62
0
370
25
100
AcDbLine
 10
2084.057586737185
 20
16720.69392176271
 30
0.0
 11
2081.057586737185
 21
16717.69392176271
 31
0.0
  0
LINE
  5
100
330
17
100
AcDbEntity
  8
00 - FELIPE
 62
0
370
25
100
AcDbLine
 10
2079.057586737185
 20
16717.69392176271
 30
0.0
 11
2082.057586737185
 21
16720.69392176271
 31
0.0
  0
LINE
  5
101
330
17
100
AcDbEntity
  8
00 - FELIPE
 62
4
370
25
100
AcDbLine
 10
2432.557586737098
 20
16740.08158613207
 30
0.0
 11
2432.557586737098
 21
16747.13109608662
 31
0.0
  0
LINE
  5
102
330
17
100
AcDbEntity
  8
00 - FELIPE
 62
4
370
25
100
AcDbLine
 10
2461.557586737185
 20
16740.08158613207
 30
0.0
 11
2461.557586737185
 21
16747.13109608662
 31
0.0
  0
LINE
  5
103
330
17
100
AcDbEntity
  8
00 - FELIPE
 62
4
370
25
100
AcDbLine
 10
2432.557586737098
 20
16744.13109608662
 30
0.0
 11
2461.557586737185
 21
16744.13109608662
 31
0.0
  0
LINE
  5
104
330
17
100
AcDbEntity
  8
00 - FELIPE
 62
0
370
25
100
AcDbLine
 10
2434.057586737098
 20
16745.63109608662
 30
0.0
 11
2431.057586737098
 21
16742.63109608662
 31
0.0
  0
LINE
  5
105
330
17
100
AcDbEntity
  8
00 - FELIPE
 62
0
370
25
100
AcDbLine
 10
2460.057586737185
 20
16742.63109608662
 30
0.0
 11
2463.057586737185
 21
16745.63109608662
 31
0.0
  0
LINE
  5
106
330
17
100
AcDbEntity
  8
00 - FELIPE
 62
4
370
25
100
AcDbLine
 10
2491.909097850533
 20
16550.82578818833
 30
0.0
 11
2491.909097850533
 21
16556.71698070437
 31
0.0
  0
LINE
  5
107
330
17
100
AcDbEntity
  8
00 - FELIPE
 62
4
370
25
100
AcDbLine
 10
2597.909097850533
 20
16550.82578818833
 30
0.0
 11
2597.909097850533
 21
16556.71698070437
 31
0.0
  0
LINE
  5
108
330
17
100
AcDbEntity
  8
00 - FELIPE
 62
4
370
25
100
AcDbLine
 10
2491.909097850533
 20
16553.71698070437
 30
0.0
 11
2597.909097850533
 21
16553.71698070437
 31
0.0
  0
LINE
  5
109
330
17
100
AcDbEntity
  8
00 - FELIPE
 62
0
370
25
100
AcDbLine
 10
2493.409097850533
 20
16555.21698070437
 30
0.0
 11
2490.409097850533
 21
16552.21698070437
 31
0.0
  0
LINE
  5
10A
330
17
100
AcDbEntity
  8
00 - FELIPE
 62
0
370
25
100
AcDbLine
 10
2596.409097850533
 20
16552.21698070437
 30
0.0
 11
2599.409097850533
 21
16555.21698070437
 31
0.0
  0
LINE
  5
10B
330
17
100
AcDbEntity
  8
00 - FELIPE
 62
4
370
25
100
AcDbLine
 10
2079.909097850533
 20
16550.82578818833
 30
0.0
 11
2079.909097850533
 21
16556.71698070437
 31
0.0
  0
LINE
  5
10C
330
17
100
AcDbEntity
  8
00 - FELIPE
 62
4
370
25
100
AcDbLine
 10
2154.909097850536
 20
16550.82578818833
 30
0.0
 11
2154.909097850536
 21
16556.71698070437
 31
0.0
  0
LINE
  5
10D
330
17
100
AcDbEntity
  8
00 - FELIPE
 62
4
370
25
100
AcDbLine
 10
2079.909097850533
 20
16553.71698070437
 30
0.0
 11
2154.909097850536
 21
16553.71698070437
 31
0.0
  0
LINE
  5
10E
330
17
100
AcDbEntity
  8
00 - FELIPE
 62
0
370
25
100
AcDbLine
 10
2081.409097850533
 20
16555.21698070437
 30
0.0
 11
2078.409097850533
 21
16552.21698070437
 31
0.0
  0
LINE
  5
10F
330
17
100
AcDbEntity
  8
00 - FELIPE
 62
0
370
25
100
AcDbLine
 10
2153.409097850536
 20
16552.21698070437
 30
0.0
 11
2156.409097850536
 21
16555.21698070437
 31
0.0
  0
LINE
  5
110
330
17
100
AcDbEntity
  8
COTA
 62
4
370
25
100
AcDbLine
 10
1835.115747521804
 20
16450.91490159996
 30
0.0
 11
1807.874286410426
 21
16450.91490159996
 31
0.0
  0
LINE
  5
111
330
17
100
AcDbEntity
  8
COTA
 62
4
370
25
100
AcDbLine
 10
1835.115747521802
 20
16440.91490159997
 30
0.0
 11
1807.874286410426
 21
16440.91490159997
 31
0.0
  0
LINE
  5
112
330
17
100
AcDbEntity
  8
COTA
 62
4
370
25
100
AcDbLine
 10
1812.874286410426
 20
16455.91490159996
 30
0.0
 11
1812.874286410426
 21
16440.91490159997
 31
0.0
  0
LINE
  5
113
330
17
100
AcDbEntity
  8
COTA
 62
4
370
25
100
AcDbLine
 10
1812.874286410426
 20
16440.91490159997
 30
0.0
 11
1812.874286410426
 21
16424.91490159997
 31
0.0
  0
LINE
  5
114
330
17
100
AcDbEntity
  8
Texto Seção
 62
252
370
15
100
AcDbLine
 10
1843.868535438825
 20
16796.42489231331
 30
0.0
 11
1843.868535438825
 21
16921.42489231331
 31
0.0
  0
LINE
  5
115
330
17
100
AcDbEntity
  8
presilha
 62
1
370
25
100
AcDbLine
 10
1800.8013363042865
 20
16667.79155898001
 30
0.0
 11
1800.8013363042865
 21
16663.191718980022
 31
0.0
  0
LINE
  5
116
330
17
100
AcDbEntity
  8
presilha
 62
1
370
25
100
AcDbLine
 10
1800.8013363042865
 20
16663.191718980022
 30
0.0
 11
1780.8009717999346
 21
16663.191718980015
 31
0.0
  0
LINE
  5
117
330
17
100
AcDbEntity
  8
presilha
 62
1
370
25
100
AcDbLine
 10
1779.8009717999346
 20
16670.79155898001
 30
0.0
 11
1780.8009717999346
 21
16670.79155898001
 31
0.0
  0
LINE
  5
118
330
17
100
AcDbEntity
  8
presilha
 62
1
370
25
100
AcDbLine
 10
1780.8009717999346
 20
16670.79155898001
 30
0.0
 11
1780.8009717999346
 21
16658.79155898001
 31
0.0
  0
LINE
  5
119
330
17
100
AcDbEntity
  8
presilha
 62
1
370
25
100
AcDbLine
 10
1780.8009717999346
 20
16658.79155898001
 30
0.0
 11
1779.8009717999346
 21
16658.79155898001
 31
0.0
  0
LINE
  5
11A
330
17
100
AcDbEntity
  8
presilha
 62
1
370
25
100
AcDbLine
 10
1779.8009717999346
 20
16658.79155898001
 30
0.0
 11
1779.8009717999346
 21
16670.79155898001
 31
0.0
  0
LINE
  5
11B
330
17
100
AcDbEntity
  8
presilha
 62
1
370
25
100
AcDbLine
 10
1783.8009717999328
 20
16674.458225646675
 30
0.0
 11
1783.8009717999328
 21
16673.458225646675
 31
0.0
  0
LINE
  5
11C
330
17
100
AcDbEntity
  8
presilha
 62
1
370
25
100
AcDbLine
 10
1800.8013363042865
 20
16667.79155898001
 30
0.0
 11
1782.1813363042868
 21
16667.79155898001
 31
0.0
  0
LINE
  5
11D
330
17
100
AcDbEntity
  8
presilha
 62
1
370
25
100
AcDbLine
 10
1780.8013363042865
 20
16667.55155898001
 30
0.0
 11
1780.8009717999328
 21
16673.69822564668
 31
0.0
  0
LINE
  5
11E
330
17
100
AcDbEntity
  8
presilha
 62
1
370
25
100
AcDbLine
 10
1781.8013363042858
 20
16668.171558980008
 30
0.0
 11
1781.8009717999328
 21
16673.078225646677
 31
0.0
  0
LINE
  5
11F
330
17
100
AcDbEntity
  8
presilha
 62
1
370
25
100
AcDbLine
 10
1783.8009717999328
 20
16674.458225646675
 30
0.0
 11
1781.560971799913
 21
16674.458225646675
 31
0.0
  0
LINE
  5
120
330
17
100
AcDbEntity
  8
presilha
 62
1
370
25
100
AcDbLine
 10
1783.8009717999328
 20
16673.458225646675
 30
0.0
 11
1782.180971799933
 21
16673.458225646675
 31
0.0
  0
LINE
  5
121
330
17
100
AcDbEntity
  8
presilha
 62
1
370
25
100
AcDbLine
 10
1775.800971799934
 20
16669.124892313346
 30
0.0
 11
1779.800971799934
 21
16669.124892313346
 31
0.0
  0
LINE
  5
122
330
17
100
AcDbEntity
  8
presilha
 62
1
370
25
100
AcDbLine
 10
1779.800971799934
 20
16669.124892313346
 30
0.0
 11
1779.800971799934
 21
16660.45822564668
 31
0.0
  0
LINE
  5
123
330
17
100
AcDbEntity
  8
presilha
 62
1
370
25
100
AcDbLine
 10
1779.800971799934
 20
16660.45822564668
 30
0.0
 11
1775.800971799934
 21
16660.45822564668
 31
0.0
  0
LINE
  5
124
330
17
100
AcDbEntity
  8
presilha
 62
1
370
25
100
AcDbLine
 10
1775.800971799934
 20
16669.124892313346
 30
0.0
 11
1775.800971799934
 21
16660.45822564668
 31
0.0
  0
LINE
  5
125
330
17
100
AcDbEntity
  8
presilha
 62
1
370
25
100
AcDbLine
 10
1882.5357345733705
 20
16667.79155898001
 30
0.0
 11
1882.5357345733705
 21
16663.191718980022
 31
0.0
  0
LINE
  5
126
330
17
100
AcDbEntity
  8
presilha
 62
1
370
25
100
AcDbLine
 10
1882.5357345733705
 20
16663.191718980022
 30
0.0
 11
1902.5360990777224
 21
16663.191718980015
 31
0.0
  0
LINE
  5
127
330
17
100
AcDbEntity
  8
presilha
 62
1
370
25
100
AcDbLine
 10
1903.5360990777224
 20
16670.79155898001
 30
0.0
 11
1902.5360990777224
 21
16670.79155898001
 31
0.0
  0
LINE
  5
128
330
17
100
AcDbEntity
  8
presilha
 62
1
370
25
100
AcDbLine
 10
1902.5360990777224
 20
16670.79155898001
 30
0.0
 11
1902.5360990777224
 21
16658.79155898001
 31
0.0
  0
LINE
  5
129
330
17
100
AcDbEntity
  8
presilha
 62
1
370
25
100
AcDbLine
 10
1902.5360990777224
 20
16658.79155898001
 30
0.0
 11
1903.5360990777224
 21
16658.79155898001
 31
0.0
  0
LINE
  5
12A
330
17
100
AcDbEntity
  8
presilha
 62
1
370
25
100
AcDbLine
 10
1903.5360990777224
 20
16658.79155898001
 30
0.0
 11
1903.5360990777224
 21
16670.79155898001
 31
0.0
  0
LINE
  5
12B
330
17
100
AcDbEntity
  8
presilha
 62
1
370
25
100
AcDbLine
 10
1899.5360990777242
 20
16674.458225646675
 30
0.0
 11
1899.5360990777242
 21
16673.458225646675
 31
0.0
  0
LINE
  5
12C
330
17
100
AcDbEntity
  8
presilha
 62
1
370
25
100
AcDbLine
 10
1882.5357345733705
 20
16667.79155898001
 30
0.0
 11
1901.1557345733702
 21
16667.79155898001
 31
0.0
  0
LINE
  5
12D
330
17
100
AcDbEntity
  8
presilha
 62
1
370
25
100
AcDbLine
 10
1902.5357345733705
 20
16667.55155898001
 30
0.0
 11
1902.5360990777242
 21
16673.69822564668
 31
0.0
  0
LINE
  5
12E
330
17
100
AcDbEntity
  8
presilha
 62
1
370
25
100
AcDbLine
 10
1901.5357345733712
 20
16668.171558980008
 30
0.0
 11
1901.5360990777242
 21
16673.078225646677
 31
0.0
  0
LINE
  5
12F
330
17
100
AcDbEntity
  8
presilha
 62
1
370
25
100
AcDbLine
 10
1899.5360990777242
 20
16674.458225646675
 30
0.0
 11
1901.776099077744
 21
16674.458225646675
 31
0.0
  0
LINE
  5
130
330
17
100
AcDbEntity
  8
presilha
 62
1
370
25
100
AcDbLine
 10
1899.5360990777242
 20
16673.458225646675
 30
0.0
 11
1901.1560990777239
 21
16673.458225646675
 31
0.0
  0
LINE
  5
131
330
17
100
AcDbEntity
  8
presilha
 62
1
370
25
100
AcDbLine
 10
1907.536099077723
 20
16669.124892313346
 30
0.0
 11
1903.536099077723
 21
16669.124892313346
 31
0.0
  0
LINE
  5
132
330
17
100
AcDbEntity
  8
presilha
 62
1
370
25
100
AcDbLine
 10
1903.536099077723
 20
16669.124892313346
 30
0.0
 11
1903.536099077723
 21
16660.45822564668
 31
0.0
  0
LINE
  5
133
330
17
100
AcDbEntity
  8
presilha
 62
1
370
25
100
AcDbLine
 10
1903.536099077723
 20
16660.45822564668
 30
0.0
 11
1907.536099077723
 21
16660.45822564668
 31
0.0
  0
LINE
  5
134
330
17
100
AcDbEntity
  8
presilha
 62
1
370
25
100
AcDbLine
 10
1907.536099077723
 20
16669.124892313346
 30
0.0
 11
1907.536099077723
 21
16660.45822564668
 31
0.0
  0
LWPOLYLINE
  5
135
330
17
100
AcDbEntity
  8
Painéis
 62
200
370
25
100
AcDbPolyline
 90
4
 70
1
 10
1818.668535438828
 20
16764.42489231328
 10
1822.668535438828
 20
16764.42489231328
 10
1822.668535438828
 20
16668.42489231331
 10
1818.668535438828
 20
16668.42489231331
  0
LWPOLYLINE
  5
136
330
17
100
AcDbEntity
  8
Madeira
 62
126
370
18
100
AcDbPolyline
 90
4
 70
1
 10
1818.668535438828
 20
16760.02489231328
 10
1818.668535438828
 20
16764.42489231328
 10
1804.668535438828
 20
16764.42489231328
 10
1804.668535438828
 20
16760.02489231328
  0
LWPOLYLINE
  5
137
330
17
100
AcDbEntity
  8
Madeira
 62
126
370
18
100
AcDbPolyline
 90
4
 70
1
 10
1784.668535438828
 20
16668.42489231331
 10
1784.668535438828
 20
16672.8248923133
 10
1804.668535438828
 20
16672.8248923133
 10
1804.668535438828
 20
16668.42489231331
  0
LWPOLYLINE
  5
138
330
17
100
AcDbEntity
  8
Madeira
 62
126
370
18
100
AcDbPolyline
 90
4
 70
1
 10
1818.668535438828
 20
16764.42489231328
 10
1804.668535438828
 20
16764.42489231328
 10
1804.668535438828
 20
16668.42489231331
 10
1818.668535438828
 20
16668.42489231331
  0
LWPOLYLINE
  5
139
330
17
100
AcDbEntity
  8
Madeira
 62
126
370
18
100
AcDbPolyline
 90
4
 70
1
 10
1860.668535438828
 20
16668.42489231331
 10
1860.668535438828
 20
16672.8248923133
 10
1846.668535438828
 20
16672.8248923133
 10
1846.668535438828
 20
16668.42489231331
  0
LWPOLYLINE
  5
13A
330
17
100
AcDbEntity
  8
Painéis
 62
200
370
25
100
AcDbPolyline
 90
4
 70
1
 10
1860.668535438828
 20
16672.8248923133
 10
1860.668535438828
 20
16676.42489231331
 10
1822.668535438828
 20
16676.42489231331
 10
1822.668535438828
 20
16672.8248923133
  0
LWPOLYLINE
  5
13B
330
17
100
AcDbEntity
  8
Madeira
 62
126
370
18
100
AcDbPolyline
 90
4
 70
1
 10
1822.668535438828
 20
16668.42489231331
 10
1822.668535438828
 20
16672.8248923133
 10
1836.668535438828
 20
16672.8248923133
 10
1836.668535438828
 20
16668.42489231331
  0
LWPOLYLINE
  5
13C
330
17
100
AcDbEntity
  8
Painéis
 62
200
370
25
100
AcDbPolyline
 90
4
 70
1
 10
1864.66853543884
 20
16796.42489231331
 10
1860.66853543884
 20
16796.42489231331
 10
1860.668535438828
 20
16668.42489231331
 10
1864.668535438828
 20
16668.42489231331
  0
LWPOLYLINE
  5
13D
330
17
100
AcDbEntity
  8
Madeira
 62
126
370
18
100
AcDbPolyline
 90
4
 70
1
 10
1864.66853543884
 20
16792.02489231331
 10
1864.66853543884
 20
16796.42489231331
 10
1878.66853543884
 20
16796.42489231331
 10
1878.66853543884
 20
16792.02489231331
  0
LWPOLYLINE
  5
13E
330
17
100
AcDbEntity
  8
Madeira
 62
126
370
18
100
AcDbPolyline
 90
4
 70
1
 10
1898.668535438828
 20
16668.42489231331
 10
1898.668535438828
 20
16672.8248923133
 10
1878.668535438828
 20
16672.8248923133
 10
1878.668535438828
 20
16668.42489231331
  0
LWPOLYLINE
  5
13F
330
17
100
AcDbEntity
  8
Madeira
 62
126
370
18
100
AcDbPolyline
 90
4
 70
1
 10
1864.66853543884
 20
16796.42489231331
 10
1878.66853543884
 20
16796.42489231331
 10
1878.668535438828
 20
16668.42489231331
 10
1864.668535438828
 20
16668.42489231331
  0
LWPOLYLINE
  5
140
330
17
100
AcDbEntity
  8
Painéis
 62
200
370
25
100
AcDbPolyline
 90
4
 70
1
 10
1822.668535438828
 20
16764.42489231328
 10
1822.668535438828
 20
16768.42489231328
 10
1767.068535438852
 20
16768.42489231328
 10
1767.068535438852
 20
16764.42489231328
  0
LWPOLYLINE
  5
141
330
17
100
AcDbEntity
  8
CONCRETO
 62
251
370
25
100
AcDbPolyline
 90
8
 70
1
 10
1767.068535438852
 20
16768.42489231328
 10
1767.068535438852
 20
16796.42489231331
 10
1860.668535438837
 20
16796.42489231331
 10
1860.668535438837
 20
16768.42489231329
 10
1860.668535438828
 20
16768.42489231329
 10
1860.66853543877
 20
16676.42489231331
 10
1822.668535438828
 20
16676.42489231331
 10
1822.668535438828
 20
16768.42489231328
  0
LWPOLYLINE
  5
142
330
17
100
AcDbEntity
  8
barrote
 62
251
370
25
100
AcDbPolyline
 90
4
 70
1
 10
1751.213337766934
 20
16648.42489231335
 10
1946.396278276628
 20
16648.42489231335
 10
1946.396278276628
 20
16668.42489231331
 10
1751.213337766934
 20
16668.42489231331
  0
LWPOLYLINE
  5
143
330
17
100
AcDbEntity
  8
SCO-___-LAJ
 62
1
370
0
100
AcDbPolyline
 90
4
 70
1
 10
1760.215605182395
 20
16667.09147897998
 10
1927.521465695255
 20
16667.09147897997
 10
1927.521465695255
 20
16663.89179898
 10
1760.215605182395
 20
16663.89179898001
  0
LWPOLYLINE
  5
144
330
17
100
AcDbEntity
  8
Cotas
 62
1
370
25
100
AcDbPolyline
 90
4
 70
1
 10
1761.096667335429
 20
16501.61930460339
 10
1943.061469271213
 20
16501.61930460339
 10
1943.061469271213
 20
16400.18323649476
 10
1761.096667335429
 20
16400.18323649476
  0
LWPOLYLINE
  5
145
330
17
100
AcDbEntity
  8
Madeira
 62
126
370
18
100
AcDbPolyline
 90
4
 70
1
 10
1882.078534321382
 20
16433.31490159994
 10
1882.078534321387
 20
16447.31490159994
 10
1889.078534321386
 20
16447.31490159994
 10
1889.078534321382
 20
16433.31490159994
  0
LWPOLYLINE
  5
146
330
17
100
AcDbEntity
  8
Madeira
 62
126
370
18
100
AcDbPolyline
 90
3
 70
0
 10
1882.078534321387
 20
16447.31490159994
 10
1882.078534321382
 20
16433.31490159994
 10
1913.55460386127
 20
16433.31490159993
  0
LWPOLYLINE
  5
147
330
17
100
AcDbEntity
  8
Madeira
 62
126
370
18
100
AcDbPolyline
 90
4
 70
1
 10
1857.695110479388
 20
16447.31490159996
 10
1843.715747521805
 20
16447.31490159996
 10
1843.715747521803
 20
16442.91490159996
 10
1857.695110479387
 20
16442.91490159996
  0
LWPOLYLINE
  5
148
330
17
100
AcDbEntity
  8
Painéis
 62
200
370
25
100
AcDbPolyline
 90
4
 70
1
 10
1843.715747521805
 20
16450.91490159995
 10
1840.115747521803
 20
16450.91490159995
 10
1840.115747521801
 20
16440.91490159996
 10
1843.715747521803
 20
16440.91490159996
  0
LWPOLYLINE
  5
149
330
17
100
AcDbEntity
  8
COTA
 62
0
370
25
100
AcDbPolyline
 90
2
 70
0
 10
1712.191812349593
 20
16670.92489231332
 10
1717.191812349593
 20
16665.92489231332
  0
LWPOLYLINE
  5
14A
330
17
100
AcDbEntity
  8
COTA
 62
0
370
25
100
AcDbPolyline
 90
2
 70
0
 10
1717.191812349593
 20
16793.92489231331
 10
1712.191812349593
 20
16798.92489231331
  0
LWPOLYLINE
  5
14B
330
17
100
AcDbEntity
  8
COTA
 62
0
370
25
100
AcDbPolyline
 90
2
 70
0
 10
1935.040268197103
 20
16670.92489231332
 10
1940.040268197103
 20
16665.92489231332
  0
LWPOLYLINE
  5
14C
330
17
100
AcDbEntity
  8
COTA
 62
0
370
25
100
AcDbPolyline
 90
2
 70
0
 10
1940.040268197103
 20
16793.92489231332
 10
1935.040268197103
 20
16798.92489231332
  0
LWPOLYLINE
  5
14D
330
17
100
AcDbEntity
  8
COTA
 62
0
370
25
100
AcDbPolyline
 90
2
 70
0
 10
1736.511240835055
 20
16793.92489231331
 10
1731.511240835055
 20
16798.92489231331
  0
LWPOLYLINE
  5
14E
330
17
100
AcDbEntity
  8
COTA
 62
0
370
25
100
AcDbPolyline
 90
2
 70
0
 10
1731.511240835055
 20
16770.92489231328
 10
1736.511240835055
 20
16765.92489231328
  0
LWPOLYLINE
  5
14F
330
17
100
AcDbEntity
  8
COTA
 62
0
370
25
100
AcDbPolyline
 90
2
 70
0
 10
1736.511240835383
 20
16761.92489231328
 10
1731.511240835383
 20
16766.92489231328
  0
LWPOLYLINE
  5
150
330
17
100
AcDbEntity
  8
COTA
 62
0
370
25
100
AcDbPolyline
 90
2
 70
0
 10
1731.511240835383
 20
16670.92489231332
 10
1736.511240835383
 20
16665.92489231332
  0
LWPOLYLINE
  5
151
330
17
100
AcDbEntity
  8
COTA
 62
0
370
25
100
AcDbPolyline
 90
2
 70
0
 10
1825.168535438828
 20
16626.19807851112
 10
1820.168535438828
 20
16621.19807851112
  0
LWPOLYLINE
  5
152
330
17
100
AcDbEntity
  8
COTA
 62
0
370
25
100
AcDbPolyline
 90
2
 70
0
 10
1858.168535438828
 20
16621.19807851112
 10
1863.168535438828
 20
16626.19807851112
  0
LWPOLYLINE
  5
153
330
17
100
AcDbEntity
  8
COTA
 62
0
370
25
100
AcDbPolyline
 90
2
 70
0
 10
1753.310627991354
 20
16715.89494984161
 10
1748.310627991354
 20
16720.89494984161
  0
LWPOLYLINE
  5
154
330
17
100
AcDbEntity
  8
COTA
 62
0
370
25
100
AcDbPolyline
 90
2
 70
0
 10
1748.310627991354
 20
16670.92489231334
 10
1753.310627991354
 20
16665.92489231334
  0
LWPOLYLINE
  5
155
330
17
100
AcDbEntity
  8
COTA
 62
0
370
25
100
AcDbPolyline
 90
2
 70
0
 10
1814.874286410426
 20
16448.91490159996
 10
1810.874286410426
 20
16452.91490159996
  0
LWPOLYLINE
  5
156
330
17
100
AcDbEntity
  8
COTA
 62
0
370
25
100
AcDbPolyline
 90
2
 70
0
 10
1810.874286410426
 20
16442.91490159997
 10
1814.874286410426
 20
16438.91490159997
  0
TEXT
  5
157
330
17
100
AcDbEntity
  8
detalhes
 62
4
370
25
100
AcDbText
 10
1869.383018614866
 20
16686.61456384259
 30
0.0
 40
9.600000000000001
  1
b
100
AcDbText
  0
TEXT
  5
158
330
17
100
AcDbEntity
  8
detalhes
 62
4
370
25
100
AcDbText
 10
1806.83935996913
 20
16686.62562128816
 30
0.0
 40
9.600000000000001
  1
a
100
AcDbText
  0
TEXT
  5
159
330
17
100
AcDbEntity
  8
detalhes
 62
4
370
25
100
AcDbText
 10
1833.268801054273
 20
16678.66064583315
 30
0.0
 40
9.600000000000001
  1
c
100
AcDbText
  0
TEXT
  5
15A
330
17
100
AcDbEntity
  8
texto
 62
2
370
25
100
AcDbText
 10
2208.916412523019
 20
16758.30208301513
 30
0.0
 40
8.0
  1
8 1/2pont
100
AcDbText
  0
TEXT
  5
15B
330
17
100
AcDbEntity
  8
texto
 62
2
370
25
100
AcDbText
 10
2385.529848450419
 20
16758.30208301515
 30
0.0
 40
8.0
  1
5 1/2pont
100
AcDbText
  0
TEXT
  5
15C
330
17
100
AcDbEntity
  8
5
 62
5
370
25
100
AcDbText
 10
2432.913561586166
 20
16655.03672195604
 30
0.0
 40
12.0
  1
P103
 50
3.55024762388e-05
100
AcDbText
  0
TEXT
  5
15D
330
17
100
AcDbEntity
  8
5
 62
5
370
25
100
AcDbText
 10
2081.752600986134
 20
16659.07708769925
 30
0.0
 40
12.0
  1
P16
 50
359.9999644975238
100
AcDbText
  0
TEXT
  5
15E
330
17
100
AcDbEntity
  8
Texto Seção
 62
7
370
15
100
AcDbText
 10
2085.790418648118
 20
16805.76398586756
 30
0.0
 40
13.0
  1
V101.A
100
AcDbText
  0
TEXT
  5
15F
330
17
100
AcDbEntity
  8
texto
 62
2
370
25
100
AcDbText
 10
2239.409097850533
 20
16583.04628507142
 30
0.0
 40
8.0
  1
7 1/2pont
100
AcDbText
  0
TEXT
  5
160
330
17
100
AcDbEntity
  8
5
 62
5
370
25
100
AcDbText
 10
2077.920020347656
 20
16447.95400310648
 30
0.0
 40
12.0
  1
P103
 50
3.55024762388e-05
100
AcDbText
  0
TEXT
  5
161
330
17
100
AcDbEntity
  8
5
 62
5
370
25
100
AcDbText
 10
2572.271841953016
 20
16446.78189545516
 30
0.0
 40
12.0
  1
P16
 50
359.9999644975238
100
AcDbText
  0
TEXT
  5
162
330
17
100
AcDbEntity
  8
Texto Seção
 62
7
370
15
100
AcDbText
 10
2085.14192976147
 20
16616.50818792384
 30
0.0
 40
13.0
  1
V101.B
100
AcDbText
  0
TEXT
  5
163
330
17
100
AcDbEntity
  8
NOMENCLATURA
 62
7
370
25
100
AcDbText
 10
2013.224619797646
 20
16669.73401404928
 30
0.0
 40
16.49999175001634
  1
M5
100
AcDbText
  0
TEXT
  5
164
330
17
100
AcDbEntity
  8
texto
 62
2
370
25
100
AcDbText
 10
2407.909097850533
 20
16583.0462850714
 30
0.0
 40
8.0
  1
7 1/2pont
100
AcDbText
  0
TEXT
  5
165
330
17
100
AcDbEntity
  8
TEXTO PILAR
 62
3
370
15
100
AcDbText
 10
1849.722307554117
 20
16488.87577754513
 30
0.0
 40
12.0
  1
MOSCA DE 5cm
100
AcDbText
  0
TEXT
  5
166
330
17
100
AcDbEntity
  8
COTA
 62
1
370
25
100
AcDbText
 10
1723.191812349598
 20
16732.42489231331
 30
0.0
 40
7.0
  1
64
 50
90.0
100
AcDbText
  0
TEXT
  5
167
330
17
100
AcDbEntity
  8
COTA
 62
1
370
25
100
AcDbText
 10
1946.040268197107
 20
16732.42489231331
 30
0.0
 40
7.0
  1
64
 50
90.0
100
AcDbText
  0
TEXT
  5
168
330
17
100
AcDbEntity
  8
Cota Seção (2x)
 62
1
370
25
100
AcDbText
 10
1862.668535440487
 20
16756.42489231327
 30
0.0
 40
7.0
  1
60
 50
90.0
100
AcDbText
  0
TEXT
  5
169
330
17
100
AcDbEntity
  8
COTA
 62
1
370
25
100
AcDbText
 10
1742.511240835059
 20
16782.42489231329
 30
0.0
 40
7.0
  1
14
 50
90.0
100
AcDbText
  0
TEXT
  5
16A
330
17
100
AcDbEntity
  8
COTA
 62
1
370
25
100
AcDbText
 10
1742.511240835388
 20
16716.4248923133
 30
0.0
 40
7.0
  1
48
 50
90.0
100
AcDbText
  0
TEXT
  5
16B
330
17
100
AcDbEntity
  8
COTA
 62
1
370
25
100
AcDbText
 10
1841.668535438828
 20
16629.19807851112
 30
0.0
 40
7.0
  1
19
100
AcDbText
  0
TEXT
  5
16C
330
17
100
AcDbEntity
  8
COTA
 62
1
370
25
100
AcDbText
 10
1759.310627991359
 20
16693.40992107747
 30
0.0
 40
7.0
  1
25
 50
90.0
100
AcDbText
  0
TEXT
  5
16D
330
17
100
AcDbEntity
  8
Cota Seção (2x)
 62
1
370
25
100
AcDbText
 10
1841.668535438799
 20
16695.92489231331
 30
0.0
 40
7.0
  1
19
100
AcDbText
  0
TEXT
  5
16E
330
17
100
AcDbEntity
  8
COTA
 62
240
370
25
100
AcDbText
 10
2203.557586737185
 20
16718.64399933518
 30
0.0
 40
10.0
  1
246
100
AcDbText
  0
TEXT
  5
16F
330
17
100
AcDbEntity
  8
COTA
 62
240
370
25
100
AcDbText
 10
2394.057586737185
 20
16718.76095839952
 30
0.0
 40
10.0
  1
135
100
AcDbText
  0
TEXT
  5
170
330
17
100
AcDbEntity
  8
COTA
 62
240
370
25
100
AcDbText
 10
2271.057586737185
 20
16685.24437753534
 30
0.0
 40
10.0
  1
381
100
AcDbText
  0
TEXT
  5
171
330
17
100
AcDbEntity
  8
COTA
 62
240
370
25
100
AcDbText
 10
2495.876879734875
 20
16762.08158613206
 30
0.0
 40
10.0
  1
50
 50
90.0
100
AcDbText
  0
TEXT
  5
172
330
17
100
AcDbEntity
  8
COTA
 62
240
370
25
100
AcDbText
 10
2495.913429442477
 20
16812.14006566423
 30
0.0
 40
10.0
  1
14
 50
90.0
100
AcDbText
  0
TEXT
  5
173
330
17
100
AcDbEntity
  8
COTA
 62
240
370
25
100
AcDbText
 10
2517.499695350027
 20
16769.08158613206
 30
0.0
 40
10.0
  1
64
 50
90.0
100
AcDbText
  0
TEXT
  5
174
330
17
100
AcDbEntity
  8
COTA
 62
240
370
25
100
AcDbText
 10
2201.909097850533
 20
16501.88074643653
 30
0.0
 40
10.0
  1
244
100
AcDbText
  0
TEXT
  5
175
330
17
100
AcDbEntity
  8
COTA
 62
240
370
25
100
AcDbText
 10
2384.909097850533
 20
16529.34434174233
 30
0.0
 40
10.0
  1
122
100
AcDbText
  0
TEXT
  5
176
330
17
100
AcDbEntity
  8
COTA
 62
240
370
25
100
AcDbText
 10
2521.909097850533
 20
16529.39551133297
 30
0.0
 40
10.0
  1
152
100
AcDbText
  0
TEXT
  5
177
330
17
100
AcDbEntity
  8
COTA
 62
240
370
25
100
AcDbText
 10
2606.774594926557
 20
16539.68773046997
 30
0.0
 40
10.0
  1
7
100
AcDbText
  0
TEXT
  5
178
330
17
100
AcDbEntity
  8
COTA
 62
240
370
25
100
AcDbText
 10
2460.909097850533
 20
16501.880746437
 30
0.0
 40
10.0
  1
274
100
AcDbText
  0
TEXT
  5
179
330
17
100
AcDbEntity
  8
COTA
 62
240
370
25
100
AcDbText
 10
2338.909097850534
 20
16475.56898575132
 30
0.0
 40
10.0
  1
518
100
AcDbText
  0
TEXT
  5
17A
330
17
100
AcDbEntity
  8
COTA
 62
240
370
25
100
AcDbText
 10
2632.243010731269
 20
16571.82578818833
 30
0.0
 40
10.0
  1
48
 50
90.0
100
AcDbText
  0
TEXT
  5
17B
330
17
100
AcDbEntity
  8
COTA
 62
240
370
25
100
AcDbText
 10
2632.235700789749
 20
16622.83309812985
 30
0.0
 40
10.0
  1
16
 50
90.0
100
AcDbText
  0
TEXT
  5
17C
330
17
100
AcDbEntity
  8
COTA
 62
240
370
25
100
AcDbText
 10
2653.85120646338
 20
16579.82578818834
 30
0.0
 40
10.0
  1
64
 50
90.0
100
AcDbText
  0
TEXT
  5
17D
330
17
100
AcDbEntity
  8
COTA
 62
240
370
25
100
AcDbText
 10
2565.659097850533
 20
16634.21640797226
 30
0.0
 40
10.0
  1
64.5
100
AcDbText
  0
TEXT
  5
17E
330
17
100
AcDbEntity
  8
00 - FELIPE
 62
240
370
25
100
AcDbText
 10
2068.502031181629
 20
16727.19392176271
 30
0.0
 40
10.0
  1
2
100
AcDbText
  0
TEXT
  5
17F
330
17
100
AcDbEntity
  8
00 - FELIPE
 62
240
370
25
100
AcDbText
 10
2447.057586737142
 20
16752.21881538487
 30
0.0
 40
10.0
  1
29
100
AcDbText
  0
TEXT
  5
180
330
17
100
AcDbEntity
  8
00 - FELIPE
 62
240
370
25
100
AcDbText
 10
2544.909097850533
 20
16561.81931988565
 30
0.0
 40
10.0
  1
106
100
AcDbText
  0
TEXT
  5
181
330
17
100
AcDbEntity
  8
00 - FELIPE
 62
240
370
25
100
AcDbText
 10
2117.409097850535
 20
16561.82662982717
 30
0.0
 40
10.0
  1
75
100
AcDbText
  0
TEXT
  5
182
330
17
100
AcDbEntity
  8
COTA
 62
240
370
25
100
AcDbText
 10
1823.37428641043
 20
16430.91490159996
 30
0.0
 40
9.0
  1
5
 50
90.0
100
AcDbText
  0
TEXT
  5
183
330
17
100
AcDbEntity
  8
Texto Seção
 62
3
370
15
100
AcDbText
 10
1843.868535438825
 20
16867.873656686283
 30
0.0
 40
17.0
  1

100
AcDbText
  0
TEXT
  5
184
330
17
100
AcDbEntity
  8
Texto Seção
 62
3
370
15
100
AcDbText
 10
1843.868535438825
 20
16837.97307204196
 30
0.0
 40
12.0
  1

100
AcDbText
  0
TEXT
  5
185
330
17
100
AcDbEntity
  8
Texto Seção
 62
7
370
15
100
AcDbText
 10
1843.868535438825
 20
16812.001643153475
 30
0.0
 40
10.0
  1

100
AcDbText
  0
HATCH
  5
186
330
17
100
AcDbEntity
  8
Hachura
 62
7
100
AcDbHatch
 10
0.0
 20
0.0
 30
0.0
210
0.0
220
0.0
230
1.0
  2
SOLID
 70
1
 71
0
 91
1
 92
3
 72
0
 73
1
 93
5
 10
1818.668535438826
 20
16768.42489231328
 10
1822.668535438826
 20
16768.42489231328
 10
1822.668535438828
 20
16668.42489231331
 10
1818.668535438828
 20
16668.42489231331
 10
1818.668535438826
 20
16768.42489231328
 97
0
 75
1
 76
1
 98
0
  0
HATCH
  5
187
330
17
100
AcDbEntity
  8
Hachura
 62
7
100
AcDbHatch
 10
0.0
 20
0.0
 30
0.0
210
0.0
220
0.0
230
1.0
  2
ANSI31
 70
0
 71
0
 91
1
 92
3
 72
0
 73
1
 93
5
 10
1818.668535438828
 20
16760.02489231328
 10
1818.668535438828
 20
16764.42489231328
 10
1804.668535438828
 20
16764.42489231328
 10
1804.668535438828
 20
16760.02489231328
 10
1818.668535438828
 20
16760.02489231328
 97
0
 75
1
 76
1
 52
0.0
 41
1.0
 77
0
 78
1
 53
45.0
 43
0.0
 44
0.0
 45
-2.2450640303
 46
2.2450640303
 79
0
 98
0
  0
HATCH
  5
188
330
17
100
AcDbEntity
  8
Hachura
 62
7
100
AcDbHatch
 10
0.0
 20
0.0
 30
0.0
210
0.0
220
0.0
230
1.0
  2
ANSI31
 70
0
 71
0
 91
1
 92
3
 72
0
 73
1
 93
5
 10
1784.668535438828
 20
16668.42489231331
 10
1784.668535438828
 20
16672.8248923133
 10
1804.668535438828
 20
16672.8248923133
 10
1804.668535438828
 20
16668.42489231331
 10
1784.668535438828
 20
16668.42489231331
 97
0
 75
1
 76
1
 52
0.0
 41
1.0
 77
0
 78
1
 53
45.0
 43
0.0
 44
0.0
 45
-2.2450640303
 46
2.2450640303
 79
0
 98
0
  0
HATCH
  5
189
330
17
100
AcDbEntity
  8
Hachura
 62
7
100
AcDbHatch
 10
0.0
 20
0.0
 30
0.0
210
0.0
220
0.0
230
1.0
  2
ANSI31
 70
0
 71
0
 91
1
 92
3
 72
0
 73
1
 93
5
 10
1860.668535438828
 20
16668.42489231331
 10
1860.668535438828
 20
16672.8248923133
 10
1846.668535438828
 20
16672.8248923133
 10
1846.668535438828
 20
16668.42489231331
 10
1860.668535438828
 20
16668.42489231331
 97
0
 75
1
 76
1
 52
0.0
 41
1.0
 77
0
 78
1
 53
45.0
 43
0.0
 44
0.0
 45
-2.2450640303
 46
2.2450640303
 79
0
 98
0
  0
HATCH
  5
18A
330
17
100
AcDbEntity
  8
Hachura
 62
7
100
AcDbHatch
 10
0.0
 20
0.0
 30
0.0
210
0.0
220
0.0
230
1.0
  2
SOLID
 70
1
 71
0
 91
1
 92
3
 72
0
 73
1
 93
5
 10
1860.668535438828
 20
16672.8248923133
 10
1860.668535438828
 20
16676.42489231331
 10
1822.668535438828
 20
16676.42489231331
 10
1822.668535438828
 20
16672.8248923133
 10
1860.668535438828
 20
16672.8248923133
 97
0
 75
1
 76
1
 98
0
  0
HATCH
  5
18B
330
17
100
AcDbEntity
  8
Hachura
 62
7
100
AcDbHatch
 10
0.0
 20
0.0
 30
0.0
210
0.0
220
0.0
230
1.0
  2
ANSI31
 70
0
 71
0
 91
1
 92
3
 72
0
 73
1
 93
5
 10
1822.668535438828
 20
16668.42489231331
 10
1822.668535438828
 20
16672.8248923133
 10
1836.668535438828
 20
16672.8248923133
 10
1836.668535438828
 20
16668.42489231331
 10
1822.668535438828
 20
16668.42489231331
 97
0
 75
1
 76
1
 52
0.0
 41
1.0
 77
0
 78
1
 53
45.0
 43
0.0
 44
0.0
 45
-2.2450640303
 46
2.2450640303
 79
0
 98
0
  0
HATCH
  5
18C
330
17
100
AcDbEntity
  8
Hachura
 62
7
100
AcDbHatch
 10
0.0
 20
0.0
 30
0.0
210
0.0
220
0.0
230
1.0
  2
SOLID
 70
1
 71
0
 91
1
 92
3
 72
0
 73
1
 93
5
 10
1864.668535438828
 20
16796.42489231331
 10
1860.668535438828
 20
16796.42489231331
 10
1860.668535438828
 20
16668.42489231331
 10
1864.668535438828
 20
16668.42489231331
 10
1864.668535438828
 20
16796.42489231331
 97
0
 75
1
 76
1
 98
0
  0
HATCH
  5
18D
330
17
100
AcDbEntity
  8
Hachura
 62
7
100
AcDbHatch
 10
0.0
 20
0.0
 30
0.0
210
0.0
220
0.0
230
1.0
  2
ANSI31
 70
0
 71
0
 91
1
 92
3
 72
0
 73
1
 93
5
 10
1864.66853543884
 20
16792.02489231331
 10
1864.66853543884
 20
16796.42489231331
 10
1878.66853543884
 20
16796.42489231331
 10
1878.66853543884
 20
16792.02489231331
 10
1864.66853543884
 20
16792.02489231331
 97
0
 75
1
 76
1
 52
0.0
 41
1.0
 77
0
 78
1
 53
45.0
 43
0.0
 44
0.0
 45
-2.2450640303
 46
2.2450640303
 79
0
 98
0
  0
HATCH
  5
18E
330
17
100
AcDbEntity
  8
Hachura
 62
7
100
AcDbHatch
 10
0.0
 20
0.0
 30
0.0
210
0.0
220
0.0
230
1.0
  2
ANSI31
 70
0
 71
0
 91
1
 92
3
 72
0
 73
1
 93
5
 10
1898.668535438828
 20
16668.42489231331
 10
1898.668535438828
 20
16672.8248923133
 10
1878.668535438828
 20
16672.8248923133
 10
1878.668535438828
 20
16668.42489231331
 10
1898.668535438828
 20
16668.42489231331
 97
0
 75
1
 76
1
 52
0.0
 41
1.0
 77
0
 78
1
 53
45.0
 43
0.0
 44
0.0
 45
-2.2450640303
 46
2.2450640303
 79
0
 98
0
  0
HATCH
  5
18F
330
17
100
AcDbEntity
  8
Hachura
 62
7
100
AcDbHatch
 10
0.0
 20
0.0
 30
0.0
210
0.0
220
0.0
230
1.0
  2
SOLID
 70
1
 71
0
 91
1
 92
3
 72
0
 73
1
 93
5
 10
1822.668535438828
 20
16764.42489231328
 10
1822.668535438828
 20
16768.42489231328
 10
1767.068535438852
 20
16768.42489231328
 10
1767.068535438852
 20
16764.42489231328
 10
1822.668535438828
 20
16764.42489231328
 97
0
 75
1
 76
1
 98
0
  0
HATCH
  5
190
330
17
100
AcDbEntity
  8
COTA
 62
7
100
AcDbHatch
 10
0.0
 20
0.0
 30
0.0
210
0.0
220
0.0
230
1.0
  2
AR-CONC
 70
0
 71
0
 91
1
 92
3
 72
0
 73
1
 93
5
 10
2461.557586737181
 20
16801.08158613207
 10
2461.557586737182
 20
16787.08158613207
 10
2080.557586737182
 20
16787.08158613205
 10
2080.557586737181
 20
16801.08158613205
 10
2461.557586737181
 20
16801.08158613207
 97
0
 75
1
 76
1
 52
0.0
 41
1.0
 77
0
 78
13
 53
50.0
 43
0.0
 44
0.0
 45
182.184668996
 46
-15.9390855389
 79
2
 49
19.05
 49
-209.55
 53
355.0
 43
0.0
 44
0.0
 45
-35.243421425
 46
191.056845239
 79
2
 49
15.24
 49
-167.64058417
 53
100.4514447
 43
15.182007
 44
-1.3282535
 45
146.9412470904
 46
175.1177519122
 79
2
 49
16.1900088
 49
-178.0902446
 53
46.1842
 43
0.0
 44
50.8
 45
271.0790408921
 46
-42.0423279327
 79
2
 49
28.575
 49
-314.325
 53
96.63555761
 43
22.5899
 44
47.2965
 45
237.4041340515
 46
247.4261245977
 79
2
 49
24.28502314
 49
-267.13560816
 53
351.18415117
 43
0.0
 44
50.8
 45
237.404134065
 46
247.4261245855
 79
2
 49
22.85996707
 49
-251.45973192
 53
21.0
 43
25.4
 44
38.1
 45
151.6143912691
 46
-102.2651981871
 79
2
 49
19.05
 49
-209.55
 53
326.0
 43
25.4
 44
38.1
 45
61.8020283476
 46
184.1879661223
 79
2
 49
15.24
 49
-167.64
 53
71.451445
 43
38.0345326
 44
29.5779001
 45
213.4164192787
 46
81.9227688859
 79
2
 49
16.1900088
 49
-178.0899376
 53
37.5
 43
0.0
 44
0.0
 45
3.0886032506
 46
84.5550388732
 79
6
 49
0.0
 49
-165.608
 49
0.0
 49
-170.18
 49
0.0
 49
-168.275
 53
7.5
 43
0.0
 44
0.0
 45
66.8196625103
 46
100.1805748181
 79
6
 49
0.0
 49
-97.028
 49
0.0
 49
-161.798
 49
0.0
 49
-64.135
 53
-32.5
 43
-56.642
 44
0.0
 45
135.5905951669
 46
-5.7287439927
 79
6
 49
0.0
 49
-63.5
 49
0.0
 49
-198.12
 49
0.0
 49
-262.89
 53
-42.5
 43
-82.042
 44
0.0
 45
148.129181386
 46
25.4264910333
 79
6
 49
0.0
 49
-82.55
 49
0.0
 49
-131.572
 49
0.0
 49
-186.69
 98
0
  0
HATCH
  5
191
330
17
100
AcDbEntity
  8
Hachura
 62
7
100
AcDbHatch
 10
0.0
 20
0.0
 30
0.0
210
0.0
220
0.0
230
1.0
  2
ANSI31
 70
0
 71
0
 91
1
 92
3
 72
0
 73
1
 93
6
 10
1857.695110479388
 20
16447.31490159996
 10
1857.695110479387
 20
16442.91490159996
 10
1843.715747521803
 20
16442.91490159996
 10
1843.715747521804
 20
16447.31490159996
 10
1857.695110479392
 20
16447.31490159996
 10
1857.695110479388
 20
16447.31490159996
 97
0
 75
1
 76
1
 52
0.0
 41
1.0
 77
0
 78
1
 53
45.0
 43
0.0
 44
0.0
 45
-2.2450640303
 46
2.2450640303
 79
0
 98
0
  0
ENDSEC
  0
SECTION
  2
OBJECTS
  0
DICTIONARY
  5
A
330
0
100
AcDbDictionary
281
1
  3
ACAD_COLOR
350
B
  3
ACAD_GROUP
350
C
  3
ACAD_LAYOUT
350
D
  3
ACAD_MATERIAL
350
E
  3
ACAD_MLEADERSTYLE
350
F
  3
ACAD_MLINESTYLE
350
10
  3
ACAD_PLOTSETTINGS
350
11
  3
ACAD_PLOTSTYLENAME
350
12
  3
ACAD_SCALELIST
350
14
  3
ACAD_TABLESTYLE
350
15
  3
ACAD_VISUALSTYLE
350
16
  3
EZDXF_META
350
2D
  0
DICTIONARY
  5
B
330
A
100
AcDbDictionary
281
1
  0
DICTIONARY
  5
C
330
A
100
AcDbDictionary
281
1
  0
DICTIONARY
  5
D
330
A
100
AcDbDictionary
281
1
  3
Model
350
1A
  3
Layout1
350
1E
  0
DICTIONARY
  5
E
330
A
100
AcDbDictionary
281
1
  3
ByBlock
350
1F
  3
ByLayer
350
20
  3
Global
350
21
  0
DICTIONARY
  5
F
330
A
100
AcDbDictionary
281
1
  3
Standard
350
2C
  0
DICTIONARY
  5
10
330
A
100
AcDbDictionary
281
1
  3
Standard
350
22
  0
DICTIONARY
  5
11
330
A
100
AcDbDictionary
281
1
  0
ACDBDICTIONARYWDFLT
  5
12
330
A
100
AcDbDictionary
281
1
  3
Normal
350
13
100
AcDbDictionaryWithDefault
340
13
  0
ACDBPLACEHOLDER
  5
13
330
12
  0
DICTIONARY
  5
14
330
A
100
AcDbDictionary
281
1
  0
DICTIONARY
  5
15
330
A
100
AcDbDictionary
281
1
  0
DICTIONARY
  5
16
330
A
100
AcDbDictionary
281
1
  0
LAYOUT
  5
1A
330
D
100
AcDbPlotSettings
  1

  4
A3
  6

 40
7.5
 41
20.0
 42
7.5
 43
20.0
 44
420.0
 45
297.0
 46
0.0
 47
0.0
 48
0.0
 49
0.0
140
0.0
141
0.0
142
1.0
143
1.0
 70
1024
 72
1
 73
0
 74
5
  7

 75
16
 76
0
 77
2
 78
300
147
1.0
148
0.0
149
0.0
100
AcDbLayout
  1
Model
 70
1
 71
0
 10
0.0
 20
0.0
 11
420.0
 21
297.0
 12
0.0
 22
0.0
 32
0.0
 14
1e+20
 24
1e+20
 34
1e+20
 15
-1e+20
 25
-1e+20
 35
-1e+20
146
0.0
 13
0.0
 23
0.0
 33
0.0
 16
1.0
 26
0.0
 36
0.0
 17
0.0
 27
1.0
 37
0.0
 76
1
330
17
  0
LAYOUT
  5
1E
330
D
100
AcDbPlotSettings
  1

  4
A3
  6

 40
7.5
 41
20.0
 42
7.5
 43
20.0
 44
420.0
 45
297.0
 46
0.0
 47
0.0
 48
0.0
 49
0.0
140
0.0
141
0.0
142
1.0
143
1.0
 70
0
 72
1
 73
0
 74
5
  7

 75
16
 76
0
 77
2
 78
300
147
1.0
148
0.0
149
0.0
100
AcDbLayout
  1
Layout1
 70
1
 71
1
 10
0.0
 20
0.0
 11
420.0
 21
297.0
 12
0.0
 22
0.0
 32
0.0
 14
1e+20
 24
1e+20
 34
1e+20
 15
-1e+20
 25
-1e+20
 35
-1e+20
146
0.0
 13
0.0
 23
0.0
 33
0.0
 16
1.0
 26
0.0
 36
0.0
 17
0.0
 27
1.0
 37
0.0
 76
1
330
1B
  0
MATERIAL
  5
1F
102
{ACAD_REACTORS
330
E
102
}
330
E
100
AcDbMaterial
  1
ByBlock
  2

 70
0
 40
1.0
 71
1
 41
1.0
 91
-1023410177
 42
1.0
 72
1
  3

 73
1
 74
1
 75
1
 44
0.5
 73
0
 45
1.0
 46
1.0
 77
1
  4

 78
1
 79
1
170
1
 48
1.0
171
1
  6

172
1
173
1
174
1
140
1.0
141
1.0
175
1
  7

176
1
177
1
178
1
143
1.0
179
1
  8

270
1
271
1
272
1
145
1.0
146
1.0
273
1
  9

274
1
275
1
276
1
 42
1.0
 72
1
  3

 73
1
 74
1
 75
1
 94
63
  0
MATERIAL
  5
20
102
{ACAD_REACTORS
330
E
102
}
330
E
100
AcDbMaterial
  1
ByLayer
  2

 70
0
 40
1.0
 71
1
 41
1.0
 91
-1023410177
 42
1.0
 72
1
  3

 73
1
 74
1
 75
1
 44
0.5
 73
0
 45
1.0
 46
1.0
 77
1
  4

 78
1
 79
1
170
1
 48
1.0
171
1
  6

172
1
173
1
174
1
140
1.0
141
1.0
175
1
  7

176
1
177
1
178
1
143
1.0
179
1
  8

270
1
271
1
272
1
145
1.0
146
1.0
273
1
  9

274
1
275
1
276
1
 42
1.0
 72
1
  3

 73
1
 74
1
 75
1
 94
63
  0
MATERIAL
  5
21
102
{ACAD_REACTORS
330
E
102
}
330
E
100
AcDbMaterial
  1
Global
  2

 70
0
 40
1.0
 71
1
 41
1.0
 91
-1023410177
 42
1.0
 72
1
  3

 73
1
 74
1
 75
1
 44
0.5
 73
0
 45
1.0
 46
1.0
 77
1
  4

 78
1
 79
1
170
1
 48
1.0
171
1
  6

172
1
173
1
174
1
140
1.0
141
1.0
175
1
  7

176
1
177
1
178
1
143
1.0
179
1
  8

270
1
271
1
272
1
145
1.0
146
1.0
273
1
  9

274
1
275
1
276
1
 42
1.0
 72
1
  3

 73
1
 74
1
 75
1
 94
63
  0
MLINESTYLE
  5
22
102
{ACAD_REACTORS
330
10
102
}
330
10
100
AcDbMlineStyle
  2
Standard
 70
0
  3

 62
256
 51
90.0
 52
90.0
 71
2
 49
0.5
 62
256
  6
BYLAYER
 49
-0.5
 62
256
  6
BYLAYER
  0
MLEADERSTYLE
  5
2C
102
{ACAD_REACTORS
330
F
102
}
330
F
100
AcDbMLeaderStyle
179
2
170
2
171
1
172
0
 90
2
 40
0.0
 41
0.0
173
1
 91
-1056964608
 92
-2
290
1
 42
2.0
291
1
 43
8.0
  3
Standard
 44
4.0
300

342
29
174
1
175
1
176
0
178
1
 93
-1056964608
 45
4.0
292
0
297
0
 46
4.0
 94
-1056964608
 47
1.0
 49
1.0
140
1.0
294
1
141
0.0
177
0
142
1.0
295
0
296
0
143
3.75
271
0
272
9
273
9
  0
DICTIONARY
  5
2D
330
A
100
AcDbDictionary
280
1
281
1
  3
CREATED_BY_EZDXF
350
2E
  3
WRITTEN_BY_EZDXF
350
194
  0
DICTIONARYVAR
  5
2E
330
2D
100
DictionaryVariables
280
0
  1
1.4.3 @ 2026-06-10T17:46:06.127886+00:00
  0
DICTIONARYVAR
  5
194
330
2D
100
DictionaryVariables
280
0
  1
1.4.3 @ 2026-06-10T17:46:06.139543+00:00
  0
ENDSEC
  0
EOF
