  0
SECTION
  2
HEADER
  9
$ACADVER
  1
AC1024
  9
$ACADMAINTVER
 70
6
  9
$DWGCODEPAGE
  3
ANSI_1252
  9
$LASTSAVEDBY
  1
ezdxf
  9
$INSBASE
 10
0.0
 20
0.0
 30
0.0
  9
$EXTMIN
 10
1e+20
 20
1e+20
 30
1e+20
  9
$EXTMAX
 10
-1e+20
 20
-1e+20
 30
-1e+20
  9
$LIMMIN
 10
0.0
 20
0.0
  9
$LIMMAX
 10
420.0
 20
297.0
  9
$ORTHOMODE
 70
0
  9
$REGENMODE
 70
1
  9
$FILLMODE
 70
1
  9
$QTEXTMODE
 70
0
  9
$MIRRTEXT
 70
1
  9
$LTSCALE
 40
1.0
  9
$ATTMODE
 70
1
  9
$TEXTSIZE
 40
2.5
  9
$TRACEWID
 40
1.0
  9
$TEXTSTYLE
  7
Standard
  9
$CLAYER
  8
0
  9
$CELTYPE
  6
ByLayer
  9
$CECOLOR
 62
256
  9
$CELTSCALE
 40
1.0
  9
$DISPSILH
 70
0
  9
$DIMSCALE
 40
1.0
  9
$DIMASZ
 40
2.5
  9
$DIMEXO
 40
0.625
  9
$DIMDLI
 40
3.75
  9
$DIMRND
 40
0.0
  9
$DIMDLE
 40
0.0
  9
$DIMEXE
 40
1.25
  9
$DIMTP
 40
0.0
  9
$DIMTM
 40
0.0
  9
$DIMTXT
 40
2.5
  9
$DIMCEN
 40
2.5
  9
$DIMTSZ
 40
0.0
  9
$DIMTOL
 70
0
  9
$DIMLIM
 70
0
  9
$DIMTIH
 70
0
  9
$DIMTOH
 70
0
  9
$DIMSE1
 70
0
  9
$DIMSE2
 70
0
  9
$DIMTAD
 70
1
  9
$DIMZIN
 70
8
  9
$DIMBLK
  1

  9
$DIMASO
 70
1
  9
$DIMSHO
 70
1
  9
$DIMPOST
  1

  9
$DIMAPOST
  1

  9
$DIMALT
 70
0
  9
$DIMALTD
 70
3
  9
$DIMALTF
 40
0.03937007874
  9
$DIMLFAC
 40
1.0
  9
$DIMTOFL
 70
1
  9
$DIMTVP
 40
0.0
  9
$DIMTIX
 70
0
  9
$DIMSOXD
 70
0
  9
$DIMSAH
 70
0
  9
$DIMBLK1
  1

  9
$DIMBLK2
  1

  9
$DIMSTYLE
  2
ISO-25
  9
$DIMCLRD
 70
0
  9
$DIMCLRE
 70
0
  9
$DIMCLRT
 70
0
  9
$DIMTFAC
 40
1.0
  9
$DIMGAP
 40
0.625
  9
$DIMJUST
 70
0
  9
$DIMSD1
 70
0
  9
$DIMSD2
 70
0
  9
$DIMTOLJ
 70
0
  9
$DIMTZIN
 70
8
  9
$DIMALTZ
 70
0
  9
$DIMALTTZ
 70
0
  9
$DIMUPT
 70
0
  9
$DIMDEC
 70
2
  9
$DIMTDEC
 70
2
  9
$DIMALTU
 70
2
  9
$DIMALTTD
 70
3
  9
$DIMTXSTY
  7
Standard
  9
$DIMAUNIT
 70
0
  9
$DIMADEC
 70
0
  9
$DIMALTRND
 40
0.0
  9
$DIMAZIN
 70
0
  9
$DIMDSEP
 70
44
  9
$DIMATFIT
 70
3
  9
$DIMFRAC
 70
0
  9
$DIMLDRBLK
  1

  9
$DIMLUNIT
 70
2
  9
$DIMLWD
 70
-2
  9
$DIMLWE
 70
-2
  9
$DIMTMOVE
 70
0
  9
$DIMFXL
 40
1.0
  9
$DIMFXLON
 70
0
  9
$DIMJOGANG
 40
0.785398163397
  9
$DIMTFILL
 70
0
  9
$DIMTFILLCLR
 70
0
  9
$DIMARCSYM
 70
0
  9
$DIMLTYPE
  6

  9
$DIMLTEX1
  6

  9
$DIMLTEX2
  6

  9
$DIMTXTDIRECTION
 70
0
  9
$LUNITS
 70
2
  9
$LUPREC
 70
4
  9
$SKETCHINC
 40
1.0
  9
$FILLETRAD
 40
10.0
  9
$AUNITS
 70
0
  9
$AUPREC
 70
2
  9
$MENU
  1
.
  9
$ELEVATION
 40
0.0
  9
$PELEVATION
 40
0.0
  9
$THICKNESS
 40
0.0
  9
$LIMCHECK
 70
0
  9
$CHAMFERA
 40
0.0
  9
$CHAMFERB
 40
0.0
  9
$CHAMFERC
 40
0.0
  9
$CHAMFERD
 40
0.0
  9
$SKPOLY
 70
0
  9
$TDCREATE
 40
2461202.009490741
  9
$TDUCREATE
 40
2458532.153996898
  9
$TDUPDATE
 40
2461202.009490741
  9
$TDUUPDATE
 40
2458532.1544311
  9
$TDINDWG
 40
0.0
  9
$TDUSRTIMER
 40
0.0
  9
$USRTIMER
 70
1
  9
$ANGBASE
 50
0.0
  9
$ANGDIR
 70
0
  9
$PDMODE
 70
0
  9
$PDSIZE
 40
0.0
  9
$PLINEWID
 40
0.0
  9
$SPLFRAME
 70
0
  9
$SPLINETYPE
 70
6
  9
$SPLINESEGS
 70
8
  9
$HANDSEED
  5
11D
  9
$SURFTAB1
 70
6
  9
$SURFTAB2
 70
6
  9
$SURFTYPE
 70
6
  9
$SURFU
 70
6
  9
$SURFV
 70
6
  9
$UCSBASE
  2

  9
$UCSNAME
  2

  9
$UCSORG
 10
0.0
 20
0.0
 30
0.0
  9
$UCSXDIR
 10
1.0
 20
0.0
 30
0.0
  9
$UCSYDIR
 10
0.0
 20
1.0
 30
0.0
  9
$UCSORTHOREF
  2

  9
$UCSORTHOVIEW
 70
0
  9
$UCSORGTOP
 10
0.0
 20
0.0
 30
0.0
  9
$UCSORGBOTTOM
 10
0.0
 20
0.0
 30
0.0
  9
$UCSORGLEFT
 10
0.0
 20
0.0
 30
0.0
  9
$UCSORGRIGHT
 10
0.0
 20
0.0
 30
0.0
  9
$UCSORGFRONT
 10
0.0
 20
0.0
 30
0.0
  9
$UCSORGBACK
 10
0.0
 20
0.0
 30
0.0
  9
$PUCSBASE
  2

  9
$PUCSNAME
  2

  9
$PUCSORG
 10
0.0
 20
0.0
 30
0.0
  9
$PUCSXDIR
 10
1.0
 20
0.0
 30
0.0
  9
$PUCSYDIR
 10
0.0
 20
1.0
 30
0.0
  9
$PUCSORTHOREF
  2

  9
$PUCSORTHOVIEW
 70
0
  9
$PUCSORGTOP
 10
0.0
 20
0.0
 30
0.0
  9
$PUCSORGBOTTOM
 10
0.0
 20
0.0
 30
0.0
  9
$PUCSORGLEFT
 10
0.0
 20
0.0
 30
0.0
  9
$PUCSORGRIGHT
 10
0.0
 20
0.0
 30
0.0
  9
$PUCSORGFRONT
 10
0.0
 20
0.0
 30
0.0
  9
$PUCSORGBACK
 10
0.0
 20
0.0
 30
0.0
  9
$USERI1
 70
0
  9
$USERI2
 70
0
  9
$USERI3
 70
0
  9
$USERI4
 70
0
  9
$USERI5
 70
0
  9
$USERR1
 40
0.0
  9
$USERR2
 40
0.0
  9
$USERR3
 40
0.0
  9
$USERR4
 40
0.0
  9
$USERR5
 40
0.0
  9
$WORLDVIEW
 70
1
  9
$SHADEDGE
 70
3
  9
$SHADEDIF
 70
70
  9
$TILEMODE
 70
1
  9
$MAXACTVP
 70
64
  9
$PINSBASE
 10
0.0
 20
0.0
 30
0.0
  9
$PLIMCHECK
 70
0
  9
$PEXTMIN
 10
1e+20
 20
1e+20
 30
1e+20
  9
$PEXTMAX
 10
-1e+20
 20
-1e+20
 30
-1e+20
  9
$PLIMMIN
 10
0.0
 20
0.0
  9
$PLIMMAX
 10
420.0
 20
297.0
  9
$UNITMODE
 70
0
  9
$VISRETAIN
 70
1
  9
$PLINEGEN
 70
0
  9
$PSLTSCALE
 70
1
  9
$TREEDEPTH
 70
3020
  9
$CMLSTYLE
  2
Standard
  9
$CMLJUST
 70
0
  9
$CMLSCALE
 40
20.0
  9
$PROXYGRAPHICS
 70
1
  9
$MEASUREMENT
 70
1
  9
$CELWEIGHT
370
-1
  9
$ENDCAPS
280
0
  9
$JOINSTYLE
280
0
  9
$LWDISPLAY
290
0
  9
$INSUNITS
 70
6
  9
$HYPERLINKBASE
  1

  9
$STYLESHEET
  1

  9
$XEDIT
290
1
  9
$CEPSNTYPE
380
0
  9
$PSTYLEMODE
290
1
  9
$FINGERPRINTGUID
  2
{93C83BA7-AFDB-4265-8175-D69C8B12D756}
  9
$VERSIONGUID
  2
{2591D437-EC7B-40C1-87E7-335B16A89537}
  9
$EXTNAMES
290
1
  9
$PSVPSCALE
 40
0.0
  9
$OLESTARTUP
290
0
  9
$SORTENTS
280
127
  9
$INDEXCTL
280
0
  9
$HIDETEXT
280
1
  9
$XCLIPFRAME
280
1
  9
$HALOGAP
280
0
  9
$OBSCOLOR
 70
257
  9
$OBSLTYPE
280
0
  9
$INTERSECTIONDISPLAY
280
0
  9
$INTERSECTIONCOLOR
 70
257
  9
$DIMASSOC
280
2
  9
$PROJECTNAME
  1

  9
$CAMERADISPLAY
290
0
  9
$LENSLENGTH
 40
50.0
  9
$CAMERAHEIGHT
 40
0.0
  9
$STEPSPERSEC
 40
24.0
  9
$STEPSIZE
 40
100.0
  9
$3DDWFPREC
 40
2.0
  9
$PSOLWIDTH
 40
0.005
  9
$PSOLHEIGHT
 40
0.08
  9
$LOFTANG1
 40
1.570796326795
  9
$LOFTANG2
 40
1.570796326795
  9
$LOFTMAG1
 40
0.0
  9
$LOFTMAG2
 40
0.0
  9
$LOFTPARAM
 70
7
  9
$LOFTNORMALS
280
1
  9
$LATITUDE
 40
37.795
  9
$LONGITUDE
 40
-122.394
  9
$NORTHDIRECTION
 40
0.0
  9
$TIMEZONE
 70
-8000
  9
$LIGHTGLYPHDISPLAY
280
1
  9
$TILEMODELIGHTSYNCH
280
1
  9
$CMATERIAL
347
20
  9
$SOLIDHIST
280
0
  9
$SHOWHIST
280
1
  9
$DWFFRAME
280
2
  9
$DGNFRAME
280
2
  9
$REALWORLDSCALE
290
1
  9
$INTERFERECOLOR
 62
256
  9
$CSHADOW
280
0
  9
$SHADOWPLANELOCATION
 40
0.0
  0
ENDSEC
  0
SECTION
  2
CLASSES
  0
CLASS
  1
ACDBDICTIONARYWDFLT
  2
AcDbDictionaryWithDefault
  3
ObjectDBX Classes
 90
0
 91
0
280
0
281
0
  0
CLASS
  1
SUN
  2
AcDbSun
  3
SCENEOE
 90
1153
 91
0
280
0
281
0
  0
CLASS
  1
VISUALSTYLE
  2
AcDbVisualStyle
  3
ObjectDBX Classes
 90
4095
 91
0
280
0
281
0
  0
CLASS
  1
MATERIAL
  2
AcDbMaterial
  3
ObjectDBX Classes
 90
1153
 91
0
280
0
281
0
  0
CLASS
  1
SCALE
  2
AcDbScale
  3
ObjectDBX Classes
 90
1153
 91
0
280
0
281
0
  0
CLASS
  1
TABLESTYLE
  2
AcDbTableStyle
  3
ObjectDBX Classes
 90
4095
 91
0
280
0
281
0
  0
CLASS
  1
MLEADERSTYLE
  2
AcDbMLeaderStyle
  3
ACDB_MLEADERSTYLE_CLASS
 90
4095
 91
0
280
0
281
0
  0
CLASS
  1
DICTIONARYVAR
  2
AcDbDictionaryVar
  3
ObjectDBX Classes
 90
0
 91
0
280
0
281
0
  0
CLASS
  1
CELLSTYLEMAP
  2
AcDbCellStyleMap
  3
ObjectDBX Classes
 90
1152
 91
0
280
0
281
0
  0
CLASS
  1
MENTALRAYRENDERSETTINGS
  2
AcDbMentalRayRenderSettings
  3
SCENEOE
 90
1024
 91
0
280
0
281
0
  0
CLASS
  1
ACDBDETAILVIEWSTYLE
  2
AcDbDetailViewStyle
  3
ObjectDBX Classes
 90
1025
 91
0
280
0
281
0
  0
CLASS
  1
ACDBSECTIONVIEWSTYLE
  2
AcDbSectionViewStyle
  3
ObjectDBX Classes
 90
1025
 91
0
280
0
281
0
  0
CLASS
  1
RASTERVARIABLES
  2
AcDbRasterVariables
  3
ISM
 90
0
 91
0
280
0
281
0
  0
CLASS
  1
ACDBPLACEHOLDER
  2
AcDbPlaceHolder
  3
ObjectDBX Classes
 90
0
 91
0
280
0
281
0
  0
CLASS
  1
LAYOUT
  2
AcDbLayout
  3
ObjectDBX Classes
 90
0
 91
0
280
0
281
0
  0
ENDSEC
  0
SECTION
  2
TABLES
  0
TABLE
  2
VPORT
  5
8
330
0
100
AcDbSymbolTable
 70
1
  0
VPORT
  5
23
330
8
100
AcDbSymbolTableRecord
100
AcDbViewportTableRecord
  2
*Active
 70
0
 10
0.0
 20
0.0
 11
1.0
 21
1.0
 12
0.0
 22
0.0
 13
0.0
 23
0.0
 14
0.5
 24
0.5
 15
0.5
 25
0.5
 16
0.0
 26
0.0
 36
1.0
 17
0.0
 27
0.0
 37
0.0
 40
1000.0
 41
1.34
 42
50.0
 43
0.0
 44
0.0
 50
0.0
 51
0.0
 71
0
 72
1000
 73
1
 74
3
 75
0
 76
0
 77
0
 78
0
281
0
 65
0
146
0.0
  0
ENDTAB
  0
TABLE
  2
LTYPE
  5
2
330
0
100
AcDbSymbolTable
 70
3
  0
LTYPE
  5
24
330
2
100
AcDbSymbolTableRecord
100
AcDbLinetypeTableRecord
  2
ByBlock
 70
0
  3

 72
65
 73
0
 40
0.0
  0
LTYPE
  5
25
330
2
100
AcDbSymbolTableRecord
100
AcDbLinetypeTableRecord
  2
ByLayer
 70
0
  3

 72
65
 73
0
 40
0.0
  0
LTYPE
  5
26
330
2
100
AcDbSymbolTableRecord
100
AcDbLinetypeTableRecord
  2
Continuous
 70
0
  3

 72
65
 73
0
 40
0.0
  0
ENDTAB
  0
TABLE
  2
LAYER
  5
1
330
0
100
AcDbSymbolTable
 70
13
  0
LAYER
  5
27
330
1
100
AcDbSymbolTableRecord
100
AcDbLayerTableRecord
  2
0
 70
0
 62
7
  6
Continuous
370
-3
390
13
347
21
  0
LAYER
  5
28
330
1
100
AcDbSymbolTableRecord
100
AcDbLayerTableRecord
  2
Defpoints
 70
0
 62
7
  6
Continuous
290
0
370
-3
390
13
347
21
  0
LAYER
  5
2F
330
1
100
AcDbSymbolTableRecord
100
AcDbLayerTableRecord
  2
TENSOR
 70
0
 62
7
  6
Continuous
370
-3
390
13
347
21
  0
LAYER
  5
30
330
1
100
AcDbSymbolTableRecord
100
AcDbLayerTableRecord
  2
SARR_3.5x7
 70
0
 62
7
  6
Continuous
370
-3
390
13
347
21
  0
LAYER
  5
31
330
1
100
AcDbSymbolTableRecord
100
AcDbLayerTableRecord
  2
NOMENCLATURA
 70
0
 62
7
  6
Continuous
370
-3
390
13
347
21
  0
LAYER
  5
32
330
1
100
AcDbSymbolTableRecord
100
AcDbLayerTableRecord
  2
SCO-___-LAJ
 70
0
 62
7
  6
Continuous
370
-3
390
13
347
21
  0
LAYER
  5
33
330
1
100
AcDbSymbolTableRecord
100
AcDbLayerTableRecord
  2
SARR_2.2x7
 70
0
 62
7
  6
Continuous
370
-3
390
13
347
21
  0
LAYER
  5
34
330
1
100
AcDbSymbolTableRecord
100
AcDbLayerTableRecord
  2
Cotas
 70
0
 62
7
  6
Continuous
370
-3
390
13
347
21
  0
LAYER
  5
35
330
1
100
AcDbSymbolTableRecord
100
AcDbLayerTableRecord
  2
COTA
 70
0
 62
7
  6
Continuous
370
-3
390
13
347
21
  0
LAYER
  5
36
330
1
100
AcDbSymbolTableRecord
100
AcDbLayerTableRecord
  2
CONCRETO
 70
0
 62
7
  6
Continuous
370
-3
390
13
347
21
  0
LAYER
  5
37
330
1
100
AcDbSymbolTableRecord
100
AcDbLayerTableRecord
  2
barrote
 70
0
 62
7
  6
Continuous
370
-3
390
13
347
21
  0
LAYER
  5
38
330
1
100
AcDbSymbolTableRecord
100
AcDbLayerTableRecord
  2
Painéis
 70
0
 62
7
  6
Continuous
370
-3
390
13
347
21
  0
LAYER
  5
39
330
1
100
AcDbSymbolTableRecord
100
AcDbLayerTableRecord
  2
Madeira
 70
0
 62
7
  6
Continuous
370
-3
390
13
347
21
  0
ENDTAB
  0
TABLE
  2
STYLE
  5
5
330
0
100
AcDbSymbolTable
 70
1
  0
STYLE
  5
29
330
5
100
AcDbSymbolTableRecord
100
AcDbTextStyleTableRecord
  2
Standard
 70
0
 40
0.0
 41
1.0
 50
0.0
 71
0
 42
2.5
  3
txt
  4

  0
ENDTAB
  0
TABLE
  2
VIEW
  5
7
330
0
100
AcDbSymbolTable
 70
0
  0
ENDTAB
  0
TABLE
  2
UCS
  5
6
330
0
100
AcDbSymbolTable
 70
0
  0
ENDTAB
  0
TABLE
  2
APPID
  5
3
330
0
100
AcDbSymbolTable
 70
3
  0
APPID
  5
2A
330
3
100
AcDbSymbolTableRecord
100
AcDbRegAppTableRecord
  2
ACAD
 70
0
  0
APPID
  5
11A
330
3
100
AcDbSymbolTableRecord
100
AcDbRegAppTableRecord
  2
HATCHBACKGROUNDCOLOR
 70
0
  0
APPID
  5
11B
330
3
100
AcDbSymbolTableRecord
100
AcDbRegAppTableRecord
  2
EZDXF
 70
0
  0
ENDTAB
  0
TABLE
  2
DIMSTYLE
  5
4
330
0
100
AcDbSymbolTable
 70
1
100
AcDbDimStyleTable
  0
DIMSTYLE
105
2B
330
4
100
AcDbSymbolTableRecord
100
AcDbDimStyleTableRecord
  2
Standard
 70
0
 40
1.0
 41
2.5
 42
0.625
 43
3.75
 44
1.25
 45
0.0
 46
0.0
 47
0.0
 48
0.0
 49
2.5
140
2.5
141
2.5
142
0.0
143
0.03937007874
144
1.0
145
0.0
146
1.0
147
0.625
148
0.0
 69
0
 70
0
 71
0
 72
0
 73
0
 74
0
 75
0
 76
0
 77
1
 78
8
 79
3
170
0
171
3
172
1
173
0
174
0
175
0
176
0
177
0
178
0
179
2
271
2
272
2
273
2
274
3
275
0
276
0
277
2
278
44
279
0
280
0
281
0
282
0
283
0
284
8
285
0
286
0
288
0
289
3
290
0
371
-2
372
-2
  0
ENDTAB
  0
TABLE
  2
BLOCK_RECORD
  5
9
330
0
100
AcDbSymbolTable
 70
2
  0
BLOCK_RECORD
  5
17
330
9
100
AcDbSymbolTableRecord
100
AcDbBlockTableRecord
  2
*Model_Space
340
1A
 70
0
280
1
281
0
  0
BLOCK_RECORD
  5
1B
330
9
100
AcDbSymbolTableRecord
100
AcDbBlockTableRecord
  2
*Paper_Space
340
1E
 70
0
280
1
281
0
  0
ENDTAB
  0
ENDSEC
  0
SECTION
  2
BLOCKS
  0
BLOCK
  5
18
330
17
100
AcDbEntity
  8
0
100
AcDbBlockBegin
  2
*Model_Space
 70
0
 10
0.0
 20
0.0
 30
0.0
  3
*Model_Space
  1

  0
ENDBLK
  5
19
330
17
100
AcDbEntity
  8
0
100
AcDbBlockEnd
  0
BLOCK
  5
1C
330
1B
100
AcDbEntity
  8
0
100
AcDbBlockBegin
  2
*Paper_Space
 70
0
 10
0.0
 20
0.0
 30
0.0
  3
*Paper_Space
  1

  0
ENDBLK
  5
1D
330
1B
100
AcDbEntity
  8
0
100
AcDbBlockEnd
  0
ENDSEC
  0
SECTION
  2
ENTITIES
  0
LINE
  5
3A
330
17
100
AcDbEntity
  8
0
 62
7
370
25
100
AcDbLine
 10
3359.6685354388
 20
12130.09451909486
 30
0.0
 11
3359.6685354388
 21
12118.09451909486
 31
0.0
  0
LINE
  5
3B
330
17
100
AcDbEntity
  8
0
 62
7
370
25
100
AcDbLine
 10
3495.668535438829
 20
12127.09451909487
 30
0.0
 11
3495.668535438829
 21
12121.09451909487
 31
0.0
  0
LINE
  5
3C
330
17
100
AcDbEntity
  8
0
 62
7
370
25
100
AcDbLine
 10
3493.668535438828
 20
12130.09451909487
 30
0.0
 11
3493.668535438828
 21
12118.09451909487
 31
0.0
  0
LINE
  5
3D
330
17
100
AcDbEntity
  8
0
 62
7
370
25
100
AcDbLine
 10
3493.668535438828
 20
12121.09451909487
 30
0.0
 11
3495.668535438829
 21
12121.09451909487
 31
0.0
  0
LINE
  5
3E
330
17
100
AcDbEntity
  8
0
 62
7
370
25
100
AcDbLine
 10
3359.6685354388
 20
12118.09451909486
 30
0.0
 11
3389.668535438799
 21
12118.09451909486
 31
0.0
  0
LINE
  5
3F
330
17
100
AcDbEntity
  8
0
 62
7
370
25
100
AcDbLine
 10
3463.668535438829
 20
12123.09451909487
 30
0.0
 11
3493.668535438828
 21
12123.09451909487
 31
0.0
  0
LINE
  5
40
330
17
100
AcDbEntity
  8
0
 62
7
370
25
100
AcDbLine
 10
3463.668535438829
 20
12125.09451909487
 30
0.0
 11
3493.668535438828
 21
12125.09451909487
 31
0.0
  0
LINE
  5
41
330
17
100
AcDbEntity
  8
TENSOR
 62
7
370
25
100
AcDbLine
 10
3498.668535438829
 20
12124.09451909486
 30
0.0
 11
3354.365241260701
 21
12124.09451909486
 31
0.0
  0
LINE
  5
42
330
17
100
AcDbEntity
  8
0
 62
7
370
25
100
AcDbLine
 10
3493.668535438828
 20
12127.09451909487
 30
0.0
 11
3495.668535438829
 21
12127.09451909487
 31
0.0
  0
LINE
  5
43
330
17
100
AcDbEntity
  8
0
 62
7
370
25
100
AcDbLine
 10
3389.668535438799
 20
12123.09451909486
 30
0.0
 11
3359.6685354388
 21
12123.09451909486
 31
0.0
  0
LINE
  5
44
330
17
100
AcDbEntity
  8
0
 62
7
370
25
100
AcDbLine
 10
3389.668535438799
 20
12125.09451909486
 30
0.0
 11
3359.6685354388
 21
12125.09451909486
 31
0.0
  0
LINE
  5
45
330
17
100
AcDbEntity
  8
0
 62
7
370
25
100
AcDbLine
 10
3359.6685354388
 20
12130.09451909486
 30
0.0
 11
3389.668535438799
 21
12130.09451909486
 31
0.0
  0
LINE
  5
46
330
17
100
AcDbEntity
  8
0
 62
7
370
25
100
AcDbLine
 10
3493.668535438828
 20
12118.09451909487
 30
0.0
 11
3463.668535438829
 21
12118.09451909487
 31
0.0
  0
LINE
  5
47
330
17
100
AcDbEntity
  8
0
 62
7
370
25
100
AcDbLine
 10
3493.668535438828
 20
12130.09451909487
 30
0.0
 11
3463.668535438829
 21
12130.09451909487
 31
0.0
  0
LINE
  5
48
330
17
100
AcDbEntity
  8
0
 62
7
370
25
100
AcDbLine
 10
3357.668535438799
 20
12127.09451909486
 30
0.0
 11
3357.668535438799
 21
12121.09451909486
 31
0.0
  0
LINE
  5
49
330
17
100
AcDbEntity
  8
0
 62
7
370
25
100
AcDbLine
 10
3359.6685354388
 20
12121.09451909486
 30
0.0
 11
3357.668535438799
 21
12121.09451909486
 31
0.0
  0
LINE
  5
4A
330
17
100
AcDbEntity
  8
0
 62
7
370
25
100
AcDbLine
 10
3357.668535438799
 20
12127.09451909486
 30
0.0
 11
3359.6685354388
 21
12127.09451909486
 31
0.0
  0
LINE
  5
4B
330
17
100
AcDbEntity
  8
COTA
 62
7
370
25
100
AcDbLine
 10
3623.904161433744
 20
12298.10992914499
 30
0.0
 11
3925.904161433744
 21
12298.10992914502
 31
0.0
  0
LINE
  5
4C
330
17
100
AcDbEntity
  8
SARR_2.2x7
 62
7
370
25
100
AcDbLine
 10
3638.904161433745
 20
12278.909929145
 30
0.0
 11
3679.904161433745
 21
12278.90992914501
 31
0.0
  0
LINE
  5
4D
330
17
100
AcDbEntity
  8
SARR_2.2x7
 62
7
370
25
100
AcDbLine
 10
3679.904161433745
 20
12278.90992914501
 30
0.0
 11
3908.904161433745
 21
12278.90992914502
 31
0.0
  0
LINE
  5
4E
330
17
100
AcDbEntity
  8
COTA
 62
7
370
25
100
AcDbLine
 10
3623.904161433745
 20
12281.10992914499
 30
0.0
 11
3623.904161433744
 21
12298.10992914499
 31
0.0
  0
LINE
  5
4F
330
17
100
AcDbEntity
  8
SARR_2.2x7
 62
7
370
25
100
AcDbLine
 10
3630.904161433747
 20
12234.10992914499
 30
0.0
 11
3630.904161433745
 21
12281.10992914499
 31
0.0
  0
LINE
  5
50
330
17
100
AcDbEntity
  8
SARR_2.2x7
 62
7
370
25
100
AcDbLine
 10
3916.904161433747
 20
12234.10992914502
 30
0.0
 11
3916.904161433745
 21
12281.10992914502
 31
0.0
  0
LINE
  5
51
330
17
100
AcDbEntity
  8
COTA
 62
7
370
25
100
AcDbLine
 10
3925.904161433744
 20
12281.10992914502
 30
0.0
 11
3925.904161433744
 21
12298.10992914502
 31
0.0
  0
LINE
  5
52
330
17
100
AcDbEntity
  8
SARR_3.5x7
 62
7
370
25
100
AcDbLine
 10
3908.904161433745
 20
12281.10992914506
 30
0.0
 11
3908.90416143366
 21
12234.10992914502
 31
0.0
  0
LINE
  5
53
330
17
100
AcDbEntity
  8
SARR_3.5x7
 62
7
370
25
100
AcDbLine
 10
3905.404161433745
 20
12278.90992914506
 30
0.0
 11
3905.404161433719
 21
12234.10992914502
 31
0.0
  0
LINE
  5
54
330
17
100
AcDbEntity
  8
SARR_3.5x7
 62
7
370
25
100
AcDbLine
 10
3683.404161433774
 20
12278.90992914505
 30
0.0
 11
3683.404161433806
 21
12234.10992914501
 31
0.0
  0
LINE
  5
55
330
17
100
AcDbEntity
  8
SARR_3.5x7
 62
7
370
25
100
AcDbLine
 10
3676.404161433687
 20
12278.90992914511
 30
0.0
 11
3676.404161433661
 21
12234.10992914501
 31
0.0
  0
LINE
  5
56
330
17
100
AcDbEntity
  8
SARR_3.5x7
 62
7
370
25
100
AcDbLine
 10
3638.904161433745
 20
12281.10992914501
 30
0.0
 11
3638.904161433748
 21
12234.10992914499
 31
0.0
  0
LINE
  5
57
330
17
100
AcDbEntity
  8
SARR_3.5x7
 62
7
370
25
100
AcDbLine
 10
3642.404161433745
 20
12278.90992914501
 30
0.0
 11
3642.404161433748
 21
12234.10992914499
 31
0.0
  0
LINE
  5
58
330
17
100
AcDbEntity
  8
SARR_3.5x7
 62
7
370
25
100
AcDbLine
 10
3679.904161433745
 20
12278.90992914501
 30
0.0
 11
3679.904161433748
 21
12234.10992914502
 31
0.0
  0
LINE
  5
59
330
17
100
AcDbEntity
  8
SARR_3.5x7
 62
7
370
25
100
AcDbLine
 10
3676.404161433661
 20
12234.10992914501
 30
0.0
 11
3679.904161433748
 21
12234.10992914501
 31
0.0
  0
LINE
  5
5A
330
17
100
AcDbEntity
  8
SARR_3.5x7
 62
7
370
25
100
AcDbLine
 10
3679.904161433748
 20
12234.10992914501
 30
0.0
 11
3683.404161433806
 21
12234.10992914501
 31
0.0
  0
LINE
  5
5B
330
17
100
AcDbEntity
  8
SARR_3.5x7
 62
7
370
25
100
AcDbLine
 10
3905.404161433719
 20
12234.10992914502
 30
0.0
 11
3908.90416143366
 21
12234.10992914502
 31
0.0
  0
LINE
  5
5C
330
17
100
AcDbEntity
  8
SARR_3.5x7
 62
7
370
25
100
AcDbLine
 10
3638.904161433748
 20
12234.10992914499
 30
0.0
 11
3642.404161433748
 21
12234.10992914499
 31
0.0
  0
LINE
  5
5D
330
17
100
AcDbEntity
  8
Painéis
 62
7
370
25
100
AcDbLine
 10
3623.904161433745
 20
12281.10992914499
 30
0.0
 11
3925.904161433744
 21
12281.10992914502
 31
0.0
  0
LINE
  5
5E
330
17
100
AcDbEntity
  8
Painéis
 62
7
370
25
100
AcDbLine
 10
3623.904161433748
 20
12234.10992914499
 30
0.0
 11
3925.904161433748
 21
12234.10992914502
 31
0.0
  0
LINE
  5
5F
330
17
100
AcDbEntity
  8
Painéis
 62
7
370
25
100
AcDbLine
 10
3623.904161433748
 20
12234.10992914499
 30
0.0
 11
3623.904161433745
 21
12281.10992914499
 31
0.0
  0
LINE
  5
60
330
17
100
AcDbEntity
  8
Painéis
 62
7
370
25
100
AcDbLine
 10
3679.904161433748
 20
12234.10992914501
 30
0.0
 11
3679.904161433745
 21
12281.10992914501
 31
0.0
  0
LINE
  5
61
330
17
100
AcDbEntity
  8
Painéis
 62
7
370
25
100
AcDbLine
 10
3925.904161433748
 20
12234.10992914502
 30
0.0
 11
3925.904161433744
 21
12281.10992914502
 31
0.0
  0
LINE
  5
62
330
17
100
AcDbEntity
  8
Painéis
 62
7
370
25
100
AcDbLine
 10
3923.904161433748
 20
12234.10992914502
 30
0.0
 11
3923.904161433745
 21
12281.10992914502
 31
0.0
  0
LINE
  5
63
330
17
100
AcDbEntity
  8
SARR_3.5x7
 62
7
370
25
100
AcDbLine
 10
3657.654161433715
 20
12278.909929145
 30
0.0
 11
3657.654161433719
 21
12234.10992914498
 31
0.0
  0
LINE
  5
64
330
17
100
AcDbEntity
  8
SARR_3.5x7
 62
7
370
25
100
AcDbLine
 10
3661.154161433716
 20
12278.90992914499
 30
0.0
 11
3661.154161433719
 21
12234.10992914498
 31
0.0
  0
LINE
  5
65
330
17
100
AcDbEntity
  8
Painéis
 62
7
370
25
100
AcDbLine
 10
3403.632364449464
 20
11719.09818591787
 30
0.0
 11
3333.777346333382
 21
11719.09818591787
 31
0.0
  0
LINE
  5
66
330
17
100
AcDbEntity
  8
Painéis
 62
7
370
25
100
AcDbLine
 10
3403.632364449464
 20
11715.49818591788
 30
0.0
 11
3333.793508109995
 21
11715.49818591787
 31
0.0
  0
LINE
  5
67
330
17
100
AcDbEntity
  8
NOMENCLATURA
 62
7
370
25
100
AcDbLine
 10
4005.336510004632
 20
12163.78902395027
 30
0.0
 11
3936.102162788997
 21
12163.78902395027
 31
0.0
  0
LINE
  5
68
330
17
100
AcDbEntity
  8
NOMENCLATURA
 62
7
370
25
100
AcDbLine
 10
3936.102162788997
 20
12163.78902395027
 30
0.0
 11
3936.102162788997
 21
12214.17575978161
 31
0.0
  0
LINE
  5
69
330
17
100
AcDbEntity
  8
COTA
 62
7
370
25
100
AcDbLine
 10
4102.534511359881
 20
12281.10992914501
 30
0.0
 11
4102.534511359881
 21
12298.10992914501
 31
0.0
  0
LINE
  5
6A
330
17
100
AcDbEntity
  8
COTA
 62
7
370
25
100
AcDbLine
 10
4102.534511359881
 20
12298.10992914501
 30
0.0
 11
4015.534511359881
 21
12298.10992914501
 31
0.0
  0
LINE
  5
6B
330
17
100
AcDbEntity
  8
COTA
 62
7
370
25
100
AcDbLine
 10
4015.534511359881
 20
12298.10992914501
 30
0.0
 11
4015.534511359881
 21
12281.10992914501
 31
0.0
  0
LINE
  5
6C
330
17
100
AcDbEntity
  8
SARR_2.2x7
 62
7
370
25
100
AcDbLine
 10
4032.534511359886
 20
12278.90992914495
 30
0.0
 11
4087.534511359882
 21
12278.90992914501
 31
0.0
  0
LINE
  5
6D
330
17
100
AcDbEntity
  8
SARR_2.2x7
 62
7
370
25
100
AcDbLine
 10
4095.534511359882
 20
12234.10992914501
 30
0.0
 11
4095.534511359882
 21
12281.10992914501
 31
0.0
  0
LINE
  5
6E
330
17
100
AcDbEntity
  8
SARR_3.5x7
 62
7
370
25
100
AcDbLine
 10
4087.534511359882
 20
12281.10992914505
 30
0.0
 11
4087.534511359794
 21
12234.10992914501
 31
0.0
  0
LINE
  5
6F
330
17
100
AcDbEntity
  8
SARR_3.5x7
 62
7
370
25
100
AcDbLine
 10
4084.034511359881
 20
12278.90992914506
 30
0.0
 11
4084.034511359852
 21
12234.10992914501
 31
0.0
  0
LINE
  5
70
330
17
100
AcDbEntity
  8
SARR_2.2x7
 62
7
370
25
100
AcDbLine
 10
4024.534511359881
 20
12234.10992914501
 30
0.0
 11
4024.534511359881
 21
12281.10992914501
 31
0.0
  0
LINE
  5
71
330
17
100
AcDbEntity
  8
SARR_3.5x7
 62
7
370
25
100
AcDbLine
 10
4032.534511359881
 20
12281.10992914505
 30
0.0
 11
4032.534511359968
 21
12234.10992914501
 31
0.0
  0
LINE
  5
72
330
17
100
AcDbEntity
  8
SARR_3.5x7
 62
7
370
25
100
AcDbLine
 10
4036.034511359882
 20
12278.90992914506
 30
0.0
 11
4036.03451135991
 21
12234.10992914501
 31
0.0
  0
LINE
  5
73
330
17
100
AcDbEntity
  8
Painéis
 62
7
370
25
100
AcDbLine
 10
4017.534511359881
 20
12281.10992914501
 30
0.0
 11
4017.534511359881
 21
12234.10992914501
 31
0.0
  0
LINE
  5
74
330
17
100
AcDbEntity
  8
NOMENCLATURA
 62
7
370
25
100
AcDbLine
 10
4005.336510004632
 20
12163.78902395027
 30
0.0
 11
4005.336510004632
 21
12214.17575978161
 31
0.0
  0
LINE
  5
75
330
17
100
AcDbEntity
  8
SARR_3.5x7
 62
7
370
25
100
AcDbLine
 10
4058.284511359881
 20
12278.90992914515
 30
0.0
 11
4058.284511359884
 21
12234.10992914513
 31
0.0
  0
LINE
  5
76
330
17
100
AcDbEntity
  8
SARR_3.5x7
 62
7
370
25
100
AcDbLine
 10
4061.784511359881
 20
12278.90992914514
 30
0.0
 11
4061.784511359884
 21
12234.10992914513
 31
0.0
  0
LINE
  5
77
330
17
100
AcDbEntity
  8
SARR_2.2x7
 62
7
370
25
100
AcDbLine
 10
4191.810881875682
 20
12281.90992914502
 30
0.0
 11
4298.810881875683
 21
12281.90992914502
 31
0.0
  0
LINE
  5
78
330
17
100
AcDbEntity
  8
SARR_2.2x7
 62
7
370
25
100
AcDbLine
 10
4298.810881875683
 20
12281.90992914502
 30
0.0
 11
4381.810881875682
 21
12281.90992914502
 31
0.0
  0
LINE
  5
79
330
17
100
AcDbEntity
  8
SARR_2.2x7
 62
7
370
25
100
AcDbLine
 10
4183.810881875682
 20
12234.10992914502
 30
0.0
 11
4183.810881875682
 21
12284.10992914501
 31
0.0
  0
LINE
  5
7A
330
17
100
AcDbEntity
  8
SARR_2.2x7
 62
7
370
25
100
AcDbLine
 10
4389.810881875683
 20
12234.10992914502
 30
0.0
 11
4389.810881875683
 21
12284.10992914501
 31
0.0
  0
LINE
  5
7B
330
17
100
AcDbEntity
  8
SARR_3.5x7
 62
7
370
25
100
AcDbLine
 10
4381.810881875682
 20
12284.10992914506
 30
0.0
 11
4381.810881875595
 21
12234.10992914502
 31
0.0
  0
LINE
  5
7C
330
17
100
AcDbEntity
  8
SARR_3.5x7
 62
7
370
25
100
AcDbLine
 10
4378.310881875683
 20
12281.90992914506
 30
0.0
 11
4378.310881875654
 21
12234.10992914502
 31
0.0
  0
LINE
  5
7D
330
17
100
AcDbEntity
  8
SARR_3.5x7
 62
7
370
25
100
AcDbLine
 10
4302.310881875711
 20
12281.90992914506
 30
0.0
 11
4302.31088187574
 21
12234.10992914502
 31
0.0
  0
LINE
  5
7E
330
17
100
AcDbEntity
  8
SARR_3.5x7
 62
7
370
25
100
AcDbLine
 10
4295.310881875624
 20
12281.90992914512
 30
0.0
 11
4295.310881875596
 21
12234.10992914502
 31
0.0
  0
LINE
  5
7F
330
17
100
AcDbEntity
  8
SARR_3.5x7
 62
7
370
25
100
AcDbLine
 10
4191.810881875682
 20
12284.10992914503
 30
0.0
 11
4191.810881875682
 21
12234.10992914502
 31
0.0
  0
LINE
  5
80
330
17
100
AcDbEntity
  8
SARR_3.5x7
 62
7
370
25
100
AcDbLine
 10
4195.310881875683
 20
12281.90992914503
 30
0.0
 11
4195.310881875683
 21
12234.10992914502
 31
0.0
  0
LINE
  5
81
330
17
100
AcDbEntity
  8
SARR_3.5x7
 62
7
370
25
100
AcDbLine
 10
4298.810881875683
 20
12281.90992914502
 30
0.0
 11
4298.810881875683
 21
12234.10992914503
 31
0.0
  0
LINE
  5
82
330
17
100
AcDbEntity
  8
SARR_3.5x7
 62
7
370
25
100
AcDbLine
 10
4295.310881875596
 20
12234.10992914502
 30
0.0
 11
4298.810881875683
 21
12234.10992914502
 31
0.0
  0
LINE
  5
83
330
17
100
AcDbEntity
  8
SARR_3.5x7
 62
7
370
25
100
AcDbLine
 10
4298.810881875683
 20
12234.10992914502
 30
0.0
 11
4302.31088187574
 21
12234.10992914502
 31
0.0
  0
LINE
  5
84
330
17
100
AcDbEntity
  8
SARR_3.5x7
 62
7
370
25
100
AcDbLine
 10
4378.310881875654
 20
12234.10992914502
 30
0.0
 11
4381.810881875595
 21
12234.10992914502
 31
0.0
  0
LINE
  5
85
330
17
100
AcDbEntity
  8
SARR_3.5x7
 62
7
370
25
100
AcDbLine
 10
4191.810881875682
 20
12234.10992914502
 30
0.0
 11
4195.310881875683
 21
12234.10992914502
 31
0.0
  0
LINE
  5
86
330
17
100
AcDbEntity
  8
Painéis
 62
7
370
25
100
AcDbLine
 10
4176.810881875683
 20
12284.10992914501
 30
0.0
 11
4396.810881875683
 21
12284.10992914501
 31
0.0
  0
LINE
  5
87
330
17
100
AcDbEntity
  8
Painéis
 62
7
370
25
100
AcDbLine
 10
4176.810881875683
 20
12234.10992914502
 30
0.0
 11
4396.810881875683
 21
12234.10992914502
 31
0.0
  0
LINE
  5
88
330
17
100
AcDbEntity
  8
Painéis
 62
7
370
25
100
AcDbLine
 10
4176.810881875683
 20
12234.10992914502
 30
0.0
 11
4176.810881875683
 21
12284.10992914501
 31
0.0
  0
LINE
  5
89
330
17
100
AcDbEntity
  8
Painéis
 62
7
370
25
100
AcDbLine
 10
4298.810881875683
 20
12234.10992914502
 30
0.0
 11
4298.810881875683
 21
12284.10992914501
 31
0.0
  0
LINE
  5
8A
330
17
100
AcDbEntity
  8
Painéis
 62
7
370
25
100
AcDbLine
 10
4396.810881875683
 20
12234.10992914502
 30
0.0
 11
4396.810881875683
 21
12284.10992914501
 31
0.0
  0
LINE
  5
8B
330
17
100
AcDbEntity
  8
COTA
 62
7
370
25
100
AcDbLine
 10
4396.810881875683
 20
12284.10992914501
 30
0.0
 11
4396.810881875683
 21
12298.10992914502
 31
0.0
  0
LINE
  5
8C
330
17
100
AcDbEntity
  8
COTA
 62
7
370
25
100
AcDbLine
 10
4396.810881875683
 20
12298.10992914502
 30
0.0
 11
4176.810881875683
 21
12298.10992914501
 31
0.0
  0
LINE
  5
8D
330
17
100
AcDbEntity
  8
COTA
 62
7
370
25
100
AcDbLine
 10
4176.810881875683
 20
12298.10992914501
 30
0.0
 11
4176.810881875683
 21
12284.10992914501
 31
0.0
  0
LINE
  5
8E
330
17
100
AcDbEntity
  8
COTA
 62
7
370
25
100
AcDbLine
 10
4011.904161433752
 20
12110.34048383728
 30
0.0
 11
3613.904161433751
 21
12110.3404838373
 31
0.0
  0
LINE
  5
8F
330
17
100
AcDbEntity
  8
SARR_2.2x7
 62
7
370
25
100
AcDbLine
 10
3996.90416143375
 20
12092.14048383728
 30
0.0
 11
3767.90416143375
 21
12092.1404838373
 31
0.0
  0
LINE
  5
90
330
17
100
AcDbEntity
  8
SARR_2.2x7
 62
7
370
25
100
AcDbLine
 10
3767.90416143375
 20
12092.1404838373
 30
0.0
 11
3630.90416143375
 21
12092.14048383731
 31
0.0
  0
LINE
  5
91
330
17
100
AcDbEntity
  8
COTA
 62
7
370
25
100
AcDbLine
 10
4011.90416143375
 20
12094.34048383728
 30
0.0
 11
4011.904161433752
 21
12110.34048383728
 31
0.0
  0
LINE
  5
92
330
17
100
AcDbEntity
  8
SARR_2.2x7
 62
7
370
25
100
AcDbLine
 10
4004.904161433747
 20
12046.34048383728
 30
0.0
 11
4004.90416143375
 21
12094.34048383728
 31
0.0
  0
LINE
  5
93
330
17
100
AcDbEntity
  8
SARR_2.2x7
 62
7
370
25
100
AcDbLine
 10
3622.904161433748
 20
12046.34048383731
 30
0.0
 11
3622.904161433751
 21
12094.3404838373
 31
0.0
  0
LINE
  5
94
330
17
100
AcDbEntity
  8
COTA
 62
7
370
25
100
AcDbLine
 10
3613.904161433751
 20
12094.3404838373
 30
0.0
 11
3613.904161433751
 21
12110.3404838373
 31
0.0
  0
LINE
  5
95
330
17
100
AcDbEntity
  8
SARR_3.5x7
 62
7
370
25
100
AcDbLine
 10
3630.904161433751
 20
12094.34048383735
 30
0.0
 11
3630.904161433835
 21
12046.34048383731
 31
0.0
  0
LINE
  5
96
330
17
100
AcDbEntity
  8
SARR_3.5x7
 62
7
370
25
100
AcDbLine
 10
3634.404161433751
 20
12092.14048383735
 30
0.0
 11
3634.404161433777
 21
12046.34048383731
 31
0.0
  0
LINE
  5
97
330
17
100
AcDbEntity
  8
SARR_3.5x7
 62
7
370
25
100
AcDbLine
 10
3764.404161433721
 20
12092.14048383734
 30
0.0
 11
3764.404161433689
 21
12046.34048383729
 31
0.0
  0
LINE
  5
98
330
17
100
AcDbEntity
  8
SARR_3.5x7
 62
7
370
25
100
AcDbLine
 10
3771.404161433809
 20
12092.1404838374
 30
0.0
 11
3771.404161433835
 21
12046.34048383729
 31
0.0
  0
LINE
  5
99
330
17
100
AcDbEntity
  8
SARR_3.5x7
 62
7
370
25
100
AcDbLine
 10
3996.90416143375
 20
12094.34048383729
 30
0.0
 11
3996.904161433748
 21
12046.34048383728
 31
0.0
  0
LINE
  5
9A
330
17
100
AcDbEntity
  8
SARR_3.5x7
 62
7
370
25
100
AcDbLine
 10
3993.40416143375
 20
12092.1404838373
 30
0.0
 11
3993.404161433748
 21
12046.34048383728
 31
0.0
  0
LINE
  5
9B
330
17
100
AcDbEntity
  8
SARR_3.5x7
 62
7
370
25
100
AcDbLine
 10
3767.90416143375
 20
12092.1404838373
 30
0.0
 11
3767.904161433748
 21
12046.34048383731
 31
0.0
  0
LINE
  5
9C
330
17
100
AcDbEntity
  8
SARR_3.5x7
 62
7
370
25
100
AcDbLine
 10
3771.404161433835
 20
12046.34048383729
 30
0.0
 11
3767.904161433748
 21
12046.34048383729
 31
0.0
  0
LINE
  5
9D
330
17
100
AcDbEntity
  8
SARR_3.5x7
 62
7
370
25
100
AcDbLine
 10
3767.904161433748
 20
12046.34048383729
 30
0.0
 11
3764.404161433689
 21
12046.34048383729
 31
0.0
  0
LINE
  5
9E
330
17
100
AcDbEntity
  8
SARR_3.5x7
 62
7
370
25
100
AcDbLine
 10
3634.404161433777
 20
12046.34048383731
 30
0.0
 11
3630.904161433835
 21
12046.34048383731
 31
0.0
  0
LINE
  5
9F
330
17
100
AcDbEntity
  8
SARR_3.5x7
 62
7
370
25
100
AcDbLine
 10
3996.904161433748
 20
12046.34048383728
 30
0.0
 11
3993.404161433748
 21
12046.34048383728
 31
0.0
  0
LINE
  5
A0
330
17
100
AcDbEntity
  8
Painéis
 62
7
370
25
100
AcDbLine
 10
4011.90416143375
 20
12094.34048383728
 30
0.0
 11
3613.904161433751
 21
12094.3404838373
 31
0.0
  0
LINE
  5
A1
330
17
100
AcDbEntity
  8
Painéis
 62
7
370
25
100
AcDbLine
 10
4011.904161433747
 20
12046.34048383728
 30
0.0
 11
3613.904161433748
 21
12046.34048383731
 31
0.0
  0
LINE
  5
A2
330
17
100
AcDbEntity
  8
Painéis
 62
7
370
25
100
AcDbLine
 10
4011.904161433747
 20
12046.34048383728
 30
0.0
 11
4011.90416143375
 21
12094.34048383728
 31
0.0
  0
LINE
  5
A3
330
17
100
AcDbEntity
  8
Painéis
 62
7
370
25
100
AcDbLine
 10
3767.904161433748
 20
12046.34048383729
 30
0.0
 11
3767.904161433751
 21
12094.34048383729
 31
0.0
  0
LINE
  5
A4
330
17
100
AcDbEntity
  8
Painéis
 62
7
370
25
100
AcDbLine
 10
3613.904161433748
 20
12046.34048383731
 30
0.0
 11
3613.904161433751
 21
12094.3404838373
 31
0.0
  0
LINE
  5
A5
330
17
100
AcDbEntity
  8
Painéis
 62
7
370
25
100
AcDbLine
 10
3615.904161433748
 20
12046.34048383731
 30
0.0
 11
3615.904161433751
 21
12094.3404838373
 31
0.0
  0
LINE
  5
A6
330
17
100
AcDbEntity
  8
NOMENCLATURA
 62
7
370
25
100
AcDbLine
 10
3534.471812862863
 20
11965.20979761232
 30
0.0
 11
3603.706160078498
 21
11965.20979761232
 31
0.0
  0
LINE
  5
A7
330
17
100
AcDbEntity
  8
NOMENCLATURA
 62
7
370
25
100
AcDbLine
 10
3603.706160078498
 20
11965.20979761232
 30
0.0
 11
3603.706160078498
 21
12026.40631447389
 31
0.0
  0
LINE
  5
A8
330
17
100
AcDbEntity
  8
COTA
 62
7
370
25
100
AcDbLine
 10
3613.904161433744
 20
11916.10902540148
 30
0.0
 11
4011.904161433743
 21
11916.10902540151
 31
0.0
  0
LINE
  5
A9
330
17
100
AcDbEntity
  8
SARR_2.2x7
 62
7
370
25
100
AcDbLine
 10
3628.904161433745
 20
11899.90902540149
 30
0.0
 11
3857.904161433745
 21
11899.9090254015
 31
0.0
  0
LINE
  5
AA
330
17
100
AcDbEntity
  8
SARR_2.2x7
 62
7
370
25
100
AcDbLine
 10
3857.904161433745
 20
11899.9090254015
 30
0.0
 11
3994.904161433744
 21
11899.90902540151
 31
0.0
  0
LINE
  5
AB
330
17
100
AcDbEntity
  8
COTA
 62
7
370
25
100
AcDbLine
 10
3613.904161433744
 20
11902.10902540148
 30
0.0
 11
3613.904161433744
 21
11916.10902540148
 31
0.0
  0
LINE
  5
AC
330
17
100
AcDbEntity
  8
SARR_2.2x7
 62
7
370
25
100
AcDbLine
 10
3620.904161433748
 20
11852.10902540148
 30
0.0
 11
3620.904161433744
 21
11902.10902540148
 31
0.0
  0
LINE
  5
AD
330
17
100
AcDbEntity
  8
SARR_2.2x7
 62
7
370
25
100
AcDbLine
 10
4002.904161433747
 20
11852.10902540151
 30
0.0
 11
4002.904161433744
 21
11902.10902540151
 31
0.0
  0
LINE
  5
AE
330
17
100
AcDbEntity
  8
COTA
 62
7
370
25
100
AcDbLine
 10
4011.904161433744
 20
11902.10902540151
 30
0.0
 11
4011.904161433743
 21
11916.10902540151
 31
0.0
  0
LINE
  5
AF
330
17
100
AcDbEntity
  8
SARR_3.5x7
 62
7
370
25
100
AcDbLine
 10
3994.904161433744
 20
11902.10902540155
 30
0.0
 11
3994.90416143366
 21
11852.10902540151
 31
0.0
  0
LINE
  5
B0
330
17
100
AcDbEntity
  8
SARR_3.5x7
 62
7
370
25
100
AcDbLine
 10
3991.404161433745
 20
11899.90902540156
 30
0.0
 11
3991.404161433719
 21
11852.10902540151
 31
0.0
  0
LINE
  5
B1
330
17
100
AcDbEntity
  8
SARR_3.5x7
 62
7
370
25
100
AcDbLine
 10
3861.404161433774
 20
11899.90902540154
 30
0.0
 11
3861.404161433806
 21
11852.1090254015
 31
0.0
  0
LINE
  5
B2
330
17
100
AcDbEntity
  8
SARR_3.5x7
 62
7
370
25
100
AcDbLine
 10
3854.404161433687
 20
11899.9090254016
 30
0.0
 11
3854.40416143366
 21
11852.1090254015
 31
0.0
  0
LINE
  5
B3
330
17
100
AcDbEntity
  8
SARR_3.5x7
 62
7
370
25
100
AcDbLine
 10
3628.904161433744
 20
11902.1090254015
 30
0.0
 11
3628.904161433748
 21
11852.10902540148
 31
0.0
  0
LINE
  5
B4
330
17
100
AcDbEntity
  8
SARR_3.5x7
 62
7
370
25
100
AcDbLine
 10
3632.404161433745
 20
11899.9090254015
 30
0.0
 11
3632.404161433747
 21
11852.10902540148
 31
0.0
  0
LINE
  5
B5
330
17
100
AcDbEntity
  8
SARR_3.5x7
 62
7
370
25
100
AcDbLine
 10
3857.904161433745
 20
11899.9090254015
 30
0.0
 11
3857.904161433748
 21
11852.10902540151
 31
0.0
  0
LINE
  5
B6
330
17
100
AcDbEntity
  8
SARR_3.5x7
 62
7
370
25
100
AcDbLine
 10
3854.40416143366
 20
11852.1090254015
 30
0.0
 11
3857.904161433748
 21
11852.1090254015
 31
0.0
  0
LINE
  5
B7
330
17
100
AcDbEntity
  8
SARR_3.5x7
 62
7
370
25
100
AcDbLine
 10
3857.904161433748
 20
11852.1090254015
 30
0.0
 11
3861.404161433806
 21
11852.1090254015
 31
0.0
  0
LINE
  5
B8
330
17
100
AcDbEntity
  8
SARR_3.5x7
 62
7
370
25
100
AcDbLine
 10
3991.404161433719
 20
11852.10902540151
 30
0.0
 11
3994.90416143366
 21
11852.10902540151
 31
0.0
  0
LINE
  5
B9
330
17
100
AcDbEntity
  8
SARR_3.5x7
 62
7
370
25
100
AcDbLine
 10
3628.904161433748
 20
11852.10902540148
 30
0.0
 11
3632.404161433747
 21
11852.10902540148
 31
0.0
  0
LINE
  5
BA
330
17
100
AcDbEntity
  8
Painéis
 62
7
370
25
100
AcDbLine
 10
3613.904161433744
 20
11902.10902540148
 30
0.0
 11
4011.904161433744
 21
11902.10902540151
 31
0.0
  0
LINE
  5
BB
330
17
100
AcDbEntity
  8
Painéis
 62
7
370
25
100
AcDbLine
 10
3613.904161433748
 20
11852.10902540148
 30
0.0
 11
4011.904161433747
 21
11852.10902540151
 31
0.0
  0
LINE
  5
BC
330
17
100
AcDbEntity
  8
Painéis
 62
7
370
25
100
AcDbLine
 10
3613.904161433748
 20
11852.10902540148
 30
0.0
 11
3613.904161433744
 21
11902.10902540148
 31
0.0
  0
LINE
  5
BD
330
17
100
AcDbEntity
  8
Painéis
 62
7
370
25
100
AcDbLine
 10
3857.904161433748
 20
11852.1090254015
 30
0.0
 11
3857.904161433744
 21
11902.1090254015
 31
0.0
  0
LINE
  5
BE
330
17
100
AcDbEntity
  8
Painéis
 62
7
370
25
100
AcDbLine
 10
4011.904161433747
 20
11852.10902540151
 30
0.0
 11
4011.904161433744
 21
11902.10902540151
 31
0.0
  0
LINE
  5
BF
330
17
100
AcDbEntity
  8
Painéis
 62
7
370
25
100
AcDbLine
 10
4009.904161433747
 20
11852.10902540151
 30
0.0
 11
4009.904161433744
 21
11902.10902540151
 31
0.0
  0
LINE
  5
C0
330
17
100
AcDbEntity
  8
NOMENCLATURA
 62
7
370
25
100
AcDbLine
 10
4091.336510004635
 20
11770.97833917653
 30
0.0
 11
4022.102162788996
 21
11770.97833917653
 31
0.0
  0
LINE
  5
C1
330
17
100
AcDbEntity
  8
NOMENCLATURA
 62
7
370
25
100
AcDbLine
 10
4022.102162788996
 20
11770.97833917653
 30
0.0
 11
4022.102162788996
 21
11832.1748560381
 31
0.0
  0
LINE
  5
C2
330
17
100
AcDbEntity
  8
COTA
 62
7
370
25
100
AcDbLine
 10
4261.029511359884
 20
11902.1090254015
 30
0.0
 11
4261.029511359884
 21
11916.1090254015
 31
0.0
  0
LINE
  5
C3
330
17
100
AcDbEntity
  8
COTA
 62
7
370
25
100
AcDbLine
 10
4261.029511359884
 20
11916.1090254015
 30
0.0
 11
4101.534511359884
 21
11916.1090254015
 31
0.0
  0
LINE
  5
C4
330
17
100
AcDbEntity
  8
COTA
 62
7
370
25
100
AcDbLine
 10
4101.534511359884
 20
11916.1090254015
 30
0.0
 11
4101.534511359884
 21
11902.10902540151
 31
0.0
  0
LINE
  5
C5
330
17
100
AcDbEntity
  8
SARR_2.2x7
 62
7
370
25
100
AcDbLine
 10
4118.534511359889
 20
11899.90902540144
 30
0.0
 11
4246.029511359884
 21
11899.9090254015
 31
0.0
  0
LINE
  5
C6
330
17
100
AcDbEntity
  8
SARR_2.2x7
 62
7
370
25
100
AcDbLine
 10
4254.029511359884
 20
11852.1090254015
 30
0.0
 11
4254.029511359884
 21
11902.1090254015
 31
0.0
  0
LINE
  5
C7
330
17
100
AcDbEntity
  8
SARR_3.5x7
 62
7
370
25
100
AcDbLine
 10
4246.029511359884
 20
11902.10902540155
 30
0.0
 11
4246.029511359796
 21
11852.1090254015
 31
0.0
  0
LINE
  5
C8
330
17
100
AcDbEntity
  8
SARR_3.5x7
 62
7
370
25
100
AcDbLine
 10
4242.529511359884
 20
11899.90902540155
 30
0.0
 11
4242.529511359855
 21
11852.1090254015
 31
0.0
  0
LINE
  5
C9
330
17
100
AcDbEntity
  8
SARR_2.2x7
 62
7
370
25
100
AcDbLine
 10
4110.534511359884
 20
11852.1090254015
 30
0.0
 11
4110.534511359884
 21
11902.1090254015
 31
0.0
  0
LINE
  5
CA
330
17
100
AcDbEntity
  8
SARR_3.5x7
 62
7
370
25
100
AcDbLine
 10
4118.534511359884
 20
11902.10902540155
 30
0.0
 11
4118.534511359971
 21
11852.1090254015
 31
0.0
  0
LINE
  5
CB
330
17
100
AcDbEntity
  8
SARR_3.5x7
 62
7
370
25
100
AcDbLine
 10
4122.034511359884
 20
11899.90902540155
 30
0.0
 11
4122.034511359912
 21
11852.1090254015
 31
0.0
  0
LINE
  5
CC
330
17
100
AcDbEntity
  8
Painéis
 62
7
370
25
100
AcDbLine
 10
4103.534511359884
 20
11902.1090254015
 30
0.0
 11
4103.534511359884
 21
11852.1090254015
 31
0.0
  0
LINE
  5
CD
330
17
100
AcDbEntity
  8
NOMENCLATURA
 62
7
370
25
100
AcDbLine
 10
4091.336510004635
 20
11770.97833917653
 30
0.0
 11
4091.336510004635
 21
11832.1748560381
 31
0.0
  0
LINE
  5
CE
330
17
100
AcDbEntity
  8
Painéis
 62
7
370
25
100
AcDbLine
 10
4162.48451135988
 20
11902.1090254015
 30
0.0
 11
4162.48451135988
 21
11852.1090254015
 31
0.0
  0
LINE
  5
CF
330
17
100
AcDbEntity
  8
SARR_3.5x7
 62
7
370
25
100
AcDbLine
 10
4165.984511359904
 20
11899.90902540146
 30
0.0
 11
4165.984511359939
 21
11852.10902540149
 31
0.0
  0
LINE
  5
D0
330
17
100
AcDbEntity
  8
SARR_3.5x7
 62
7
370
25
100
AcDbLine
 10
4158.984511359821
 20
11899.90902540146
 30
0.0
 11
4158.984511359792
 21
11852.10902540149
 31
0.0
  0
LINE
  5
D1
330
17
100
AcDbEntity
  8
SARR_3.5x7
 62
7
370
25
100
AcDbLine
 10
4138.234511359848
 20
11899.90902540145
 30
0.0
 11
4138.234511359851
 21
11852.10902540146
 31
0.0
  0
LINE
  5
D2
330
17
100
AcDbEntity
  8
SARR_3.5x7
 62
7
370
25
100
AcDbLine
 10
4141.734511359849
 20
11899.90902540145
 30
0.0
 11
4141.734511359851
 21
11852.10902540146
 31
0.0
  0
LINE
  5
D3
330
17
100
AcDbEntity
  8
NOMENCLATURA
 62
7
370
25
100
AcDbLine
 10
4520.923586804726
 20
11770.97833917653
 30
0.0
 11
4590.157934020364
 21
11770.97833917653
 31
0.0
  0
LINE
  5
D4
330
17
100
AcDbEntity
  8
COTA
 62
7
370
25
100
AcDbLine
 10
4332.730585449477
 20
11899.1090254015
 30
0.0
 11
4332.730585449477
 21
11916.1090254015
 31
0.0
  0
LINE
  5
D5
330
17
100
AcDbEntity
  8
COTA
 62
7
370
25
100
AcDbLine
 10
4332.730585449477
 20
11916.1090254015
 30
0.0
 11
4510.725585449477
 21
11916.1090254015
 31
0.0
  0
LINE
  5
D6
330
17
100
AcDbEntity
  8
COTA
 62
7
370
25
100
AcDbLine
 10
4510.725585449477
 20
11916.1090254015
 30
0.0
 11
4510.725585449477
 21
11899.10902540151
 31
0.0
  0
LINE
  5
D7
330
17
100
AcDbEntity
  8
SARR_2.2x7
 62
7
370
25
100
AcDbLine
 10
4493.725585449472
 20
11896.90902540144
 30
0.0
 11
4347.730585449477
 21
11896.9090254015
 31
0.0
  0
LINE
  5
D8
330
17
100
AcDbEntity
  8
SARR_2.2x7
 62
7
370
25
100
AcDbLine
 10
4339.730585449477
 20
11852.1090254015
 30
0.0
 11
4339.730585449477
 21
11899.1090254015
 31
0.0
  0
LINE
  5
D9
330
17
100
AcDbEntity
  8
SARR_3.5x7
 62
7
370
25
100
AcDbLine
 10
4347.730585449477
 20
11899.10902540155
 30
0.0
 11
4347.730585449564
 21
11852.1090254015
 31
0.0
  0
LINE
  5
DA
330
17
100
AcDbEntity
  8
SARR_3.5x7
 62
7
370
25
100
AcDbLine
 10
4351.230585449477
 20
11896.90902540155
 30
0.0
 11
4351.230585449505
 21
11852.1090254015
 31
0.0
  0
LINE
  5
DB
330
17
100
AcDbEntity
  8
SARR_2.2x7
 62
7
370
25
100
AcDbLine
 10
4501.725585449476
 20
11852.1090254015
 30
0.0
 11
4501.725585449476
 21
11899.1090254015
 31
0.0
  0
LINE
  5
DC
330
17
100
AcDbEntity
  8
SARR_3.5x7
 62
7
370
25
100
AcDbLine
 10
4493.725585449477
 20
11899.10902540155
 30
0.0
 11
4493.725585449389
 21
11852.1090254015
 31
0.0
  0
LINE
  5
DD
330
17
100
AcDbEntity
  8
SARR_3.5x7
 62
7
370
25
100
AcDbLine
 10
4490.225585449477
 20
11896.90902540155
 30
0.0
 11
4490.225585449447
 21
11852.1090254015
 31
0.0
  0
LINE
  5
DE
330
17
100
AcDbEntity
  8
Painéis
 62
7
370
25
100
AcDbLine
 10
4508.725585449477
 20
11899.1090254015
 30
0.0
 11
4508.725585449477
 21
11852.1090254015
 31
0.0
  0
LINE
  5
DF
330
17
100
AcDbEntity
  8
NOMENCLATURA
 62
7
370
25
100
AcDbLine
 10
4520.923586804726
 20
11770.97833917653
 30
0.0
 11
4520.923586804726
 21
11832.1748560381
 31
0.0
  0
LINE
  5
E0
330
17
100
AcDbEntity
  8
Painéis
 62
7
370
25
100
AcDbLine
 10
4454.775585449481
 20
11899.1090254015
 30
0.0
 11
4454.775585449481
 21
11852.1090254015
 31
0.0
  0
LINE
  5
E1
330
17
100
AcDbEntity
  8
SARR_3.5x7
 62
7
370
25
100
AcDbLine
 10
4451.275585449456
 20
11896.90902540146
 30
0.0
 11
4451.275585449422
 21
11852.10902540149
 31
0.0
  0
LINE
  5
E2
330
17
100
AcDbEntity
  8
SARR_3.5x7
 62
7
370
25
100
AcDbLine
 10
4458.275585449539
 20
11896.90902540146
 30
0.0
 11
4458.275585449568
 21
11852.10902540149
 31
0.0
  0
LINE
  5
E3
330
17
100
AcDbEntity
  8
SARR_3.5x7
 62
7
370
25
100
AcDbLine
 10
4474.025585449513
 20
11896.90902540145
 30
0.0
 11
4474.025585449509
 21
11852.10902540146
 31
0.0
  0
LINE
  5
E4
330
17
100
AcDbEntity
  8
SARR_3.5x7
 62
7
370
25
100
AcDbLine
 10
4470.525585449513
 20
11896.90902540145
 30
0.0
 11
4470.52558544951
 21
11852.10902540146
 31
0.0
  0
LINE
  5
E5
330
17
100
AcDbEntity
  8
COTA
 62
7
370
25
100
AcDbLine
 10
3905.901448981454
 20
11718.52161985289
 30
0.0
 11
3603.901448981453
 21
11718.52161985292
 31
0.0
  0
LINE
  5
E6
330
17
100
AcDbEntity
  8
SARR_2.2x7
 62
7
370
25
100
AcDbLine
 10
3890.901448981452
 20
11699.3216198529
 30
0.0
 11
3849.901448981452
 21
11699.32161985291
 31
0.0
  0
LINE
  5
E7
330
17
100
AcDbEntity
  8
SARR_2.2x7
 62
7
370
25
100
AcDbLine
 10
3849.901448981452
 20
11699.32161985291
 30
0.0
 11
3620.901448981452
 21
11699.32161985292
 31
0.0
  0
LINE
  5
E8
330
17
100
AcDbEntity
  8
COTA
 62
7
370
25
100
AcDbLine
 10
3905.901448981453
 20
11701.5216198529
 30
0.0
 11
3905.901448981454
 21
11718.52161985289
 31
0.0
  0
LINE
  5
E9
330
17
100
AcDbEntity
  8
SARR_2.2x7
 62
7
370
25
100
AcDbLine
 10
3898.90144898145
 20
11654.5216198529
 30
0.0
 11
3898.901448981453
 21
11701.5216198529
 31
0.0
  0
LINE
  5
EA
330
17
100
AcDbEntity
  8
SARR_2.2x7
 62
7
370
25
100
AcDbLine
 10
3612.90144898145
 20
11654.52161985292
 30
0.0
 11
3612.901448981453
 21
11701.52161985292
 31
0.0
  0
LINE
  5
EB
330
17
100
AcDbEntity
  8
COTA
 62
7
370
25
100
AcDbLine
 10
3603.901448981453
 20
11701.52161985292
 30
0.0
 11
3603.901448981453
 21
11718.52161985292
 31
0.0
  0
LINE
  5
EC
330
17
100
AcDbEntity
  8
SARR_3.5x7
 62
7
370
25
100
AcDbLine
 10
3620.901448981453
 20
11701.52161985297
 30
0.0
 11
3620.901448981537
 21
11654.52161985292
 31
0.0
  0
LINE
  5
ED
330
17
100
AcDbEntity
  8
SARR_3.5x7
 62
7
370
25
100
AcDbLine
 10
3624.401448981453
 20
11699.32161985297
 30
0.0
 11
3624.401448981479
 21
11654.52161985292
 31
0.0
  0
LINE
  5
EE
330
17
100
AcDbEntity
  8
SARR_3.5x7
 62
7
370
25
100
AcDbLine
 10
3846.401448981423
 20
11699.32161985296
 30
0.0
 11
3846.401448981391
 21
11654.52161985291
 31
0.0
  0
LINE
  5
EF
330
17
100
AcDbEntity
  8
SARR_3.5x7
 62
7
370
25
100
AcDbLine
 10
3853.401448981511
 20
11699.32161985302
 30
0.0
 11
3853.401448981537
 21
11654.52161985291
 31
0.0
  0
LINE
  5
F0
330
17
100
AcDbEntity
  8
SARR_3.5x7
 62
7
370
25
100
AcDbLine
 10
3890.901448981452
 20
11701.52161985291
 30
0.0
 11
3890.90144898145
 21
11654.5216198529
 31
0.0
  0
LINE
  5
F1
330
17
100
AcDbEntity
  8
SARR_3.5x7
 62
7
370
25
100
AcDbLine
 10
3887.401448981452
 20
11699.32161985291
 30
0.0
 11
3887.401448981449
 21
11654.5216198529
 31
0.0
  0
LINE
  5
F2
330
17
100
AcDbEntity
  8
SARR_3.5x7
 62
7
370
25
100
AcDbLine
 10
3849.901448981452
 20
11699.32161985291
 30
0.0
 11
3849.901448981449
 21
11654.52161985292
 31
0.0
  0
LINE
  5
F3
330
17
100
AcDbEntity
  8
SARR_3.5x7
 62
7
370
25
100
AcDbLine
 10
3853.401448981537
 20
11654.52161985291
 30
0.0
 11
3849.901448981449
 21
11654.52161985291
 31
0.0
  0
LINE
  5
F4
330
17
100
AcDbEntity
  8
SARR_3.5x7
 62
7
370
25
100
AcDbLine
 10
3849.901448981449
 20
11654.52161985291
 30
0.0
 11
3846.401448981391
 21
11654.52161985291
 31
0.0
  0
LINE
  5
F5
330
17
100
AcDbEntity
  8
SARR_3.5x7
 62
7
370
25
100
AcDbLine
 10
3624.401448981479
 20
11654.52161985292
 30
0.0
 11
3620.901448981537
 21
11654.52161985292
 31
0.0
  0
LINE
  5
F6
330
17
100
AcDbEntity
  8
SARR_3.5x7
 62
7
370
25
100
AcDbLine
 10
3890.90144898145
 20
11654.5216198529
 30
0.0
 11
3887.401448981449
 21
11654.5216198529
 31
0.0
  0
LINE
  5
F7
330
17
100
AcDbEntity
  8
Painéis
 62
7
370
25
100
AcDbLine
 10
3905.901448981453
 20
11701.5216198529
 30
0.0
 11
3603.901448981453
 21
11701.52161985292
 31
0.0
  0
LINE
  5
F8
330
17
100
AcDbEntity
  8
Painéis
 62
7
370
25
100
AcDbLine
 10
3905.901448981449
 20
11654.5216198529
 30
0.0
 11
3603.90144898145
 21
11654.52161985292
 31
0.0
  0
LINE
  5
F9
330
17
100
AcDbEntity
  8
Painéis
 62
7
370
25
100
AcDbLine
 10
3905.901448981449
 20
11654.5216198529
 30
0.0
 11
3905.901448981453
 21
11701.5216198529
 31
0.0
  0
LINE
  5
FA
330
17
100
AcDbEntity
  8
Painéis
 62
7
370
25
100
AcDbLine
 10
3849.901448981449
 20
11654.52161985291
 30
0.0
 11
3849.901448981453
 21
11701.52161985291
 31
0.0
  0
LINE
  5
FB
330
17
100
AcDbEntity
  8
Painéis
 62
7
370
25
100
AcDbLine
 10
3603.90144898145
 20
11654.52161985292
 30
0.0
 11
3603.901448981453
 21
11701.52161985292
 31
0.0
  0
LINE
  5
FC
330
17
100
AcDbEntity
  8
Painéis
 62
7
370
25
100
AcDbLine
 10
3605.90144898145
 20
11654.52161985292
 30
0.0
 11
3605.901448981453
 21
11701.52161985292
 31
0.0
  0
LINE
  5
FD
330
17
100
AcDbEntity
  8
SARR_3.5x7
 62
7
370
25
100
AcDbLine
 10
3872.151448981482
 20
11699.3216198529
 30
0.0
 11
3872.151448981479
 21
11654.52161985288
 31
0.0
  0
LINE
  5
FE
330
17
100
AcDbEntity
  8
SARR_3.5x7
 62
7
370
25
100
AcDbLine
 10
3868.651448981481
 20
11699.3216198529
 30
0.0
 11
3868.651448981479
 21
11654.52161985288
 31
0.0
  0
LINE
  5
FF
330
17
100
AcDbEntity
  8
NOMENCLATURA
 62
7
370
25
100
AcDbLine
 10
3593.7034476262
 20
11584.20071465817
 30
0.0
 11
3593.7034476262
 21
11634.58745048951
 31
0.0
  0
LWPOLYLINE
  5
100
330
17
100
AcDbEntity
  8
Painéis
 62
7
370
25
100
AcDbPolyline
 90
4
 70
0
 10
3403.668535438828
 20
12170.12446156654
 10
3407.668535438828
 20
12170.12446156654
 10
3407.668535438828
 20
12074.12446156657
 10
3403.668535438828
 20
12074.12446156657
  0
LWPOLYLINE
  5
101
330
17
100
AcDbEntity
  8
Madeira
 62
7
370
25
100
AcDbPolyline
 90
4
 70
0
 10
3403.668535438828
 20
12165.72446156654
 10
3403.668535438828
 20
12170.12446156654
 10
3389.668535438828
 20
12170.12446156654
 10
3389.668535438828
 20
12165.72446156654
  0
LWPOLYLINE
  5
102
330
17
100
AcDbEntity
  8
Madeira
 62
7
370
25
100
AcDbPolyline
 90
4
 70
0
 10
3369.668535438829
 20
12074.12446156657
 10
3369.668535438829
 20
12078.52446156656
 10
3389.668535438828
 20
12078.52446156656
 10
3389.668535438828
 20
12074.12446156657
  0
LWPOLYLINE
  5
103
330
17
100
AcDbEntity
  8
Madeira
 62
7
370
25
100
AcDbPolyline
 90
4
 70
0
 10
3403.668535438828
 20
12170.12446156654
 10
3389.668535438828
 20
12170.12446156654
 10
3389.668535438828
 20
12074.12446156657
 10
3403.668535438828
 20
12074.12446156657
  0
LWPOLYLINE
  5
104
330
17
100
AcDbEntity
  8
Madeira
 62
7
370
25
100
AcDbPolyline
 90
4
 70
0
 10
3445.668535438829
 20
12074.12446156657
 10
3445.668535438829
 20
12078.52446156656
 10
3431.668535438828
 20
12078.52446156656
 10
3431.668535438828
 20
12074.12446156657
  0
LWPOLYLINE
  5
105
330
17
100
AcDbEntity
  8
Painéis
 62
7
370
25
100
AcDbPolyline
 90
4
 70
0
 10
3445.668535438829
 20
12078.52446156656
 10
3445.668535438829
 20
12082.12446156657
 10
3407.668535438828
 20
12082.12446156657
 10
3407.668535438828
 20
12078.52446156656
  0
LWPOLYLINE
  5
106
330
17
100
AcDbEntity
  8
Madeira
 62
7
370
25
100
AcDbPolyline
 90
4
 70
0
 10
3407.668535438828
 20
12074.12446156657
 10
3407.668535438828
 20
12078.52446156656
 10
3421.668535438828
 20
12078.52446156656
 10
3421.668535438828
 20
12074.12446156657
  0
LWPOLYLINE
  5
107
330
17
100
AcDbEntity
  8
Painéis
 62
7
370
25
100
AcDbPolyline
 90
4
 70
0
 10
3449.668535438828
 20
12170.12446156654
 10
3445.668535438829
 20
12170.12446156654
 10
3445.668535438829
 20
12074.12446156657
 10
3449.668535438828
 20
12074.12446156657
  0
LWPOLYLINE
  5
108
330
17
100
AcDbEntity
  8
Painéis
 62
7
370
25
100
AcDbPolyline
 90
4
 70
0
 10
3505.668535438799
 20
12170.12446156654
 10
3505.668535438799
 20
12174.12446156654
 10
3445.668535438829
 20
12174.12446156654
 10
3445.668535438829
 20
12170.12446156654
  0
LWPOLYLINE
  5
109
330
17
100
AcDbEntity
  8
Madeira
 62
7
370
25
100
AcDbPolyline
 90
4
 70
0
 10
3449.668535438828
 20
12165.72446156654
 10
3449.668535438828
 20
12170.12446156654
 10
3463.668535438829
 20
12170.12446156654
 10
3463.668535438829
 20
12165.72446156654
  0
LWPOLYLINE
  5
10A
330
17
100
AcDbEntity
  8
Madeira
 62
7
370
25
100
AcDbPolyline
 90
4
 70
0
 10
3483.668535438829
 20
12074.12446156657
 10
3483.668535438829
 20
12078.52446156656
 10
3463.668535438829
 20
12078.52446156656
 10
3463.668535438829
 20
12074.12446156657
  0
LWPOLYLINE
  5
10B
330
17
100
AcDbEntity
  8
Madeira
 62
7
370
25
100
AcDbPolyline
 90
4
 70
0
 10
3449.668535438828
 20
12170.12446156654
 10
3463.668535438829
 20
12170.12446156654
 10
3463.668535438829
 20
12074.12446156657
 10
3449.668535438828
 20
12074.12446156657
  0
LWPOLYLINE
  5
10C
330
17
100
AcDbEntity
  8
Painéis
 62
7
370
25
100
AcDbPolyline
 90
4
 70
0
 10
3407.668535438828
 20
12170.12446156654
 10
3407.668535438828
 20
12174.12446156654
 10
3352.068535438852
 20
12174.12446156654
 10
3352.068535438852
 20
12170.12446156654
  0
LWPOLYLINE
  5
10D
330
17
100
AcDbEntity
  8
CONCRETO
 62
7
370
25
100
AcDbPolyline
 90
8
 70
0
 10
3352.068535438852
 20
12174.12446156654
 10
3352.068535438852
 20
12202.12446156657
 10
3505.668535438799
 20
12202.12446156657
 10
3505.668535438799
 20
12174.12446156655
 10
3445.668535438829
 20
12174.12446156655
 10
3445.66853543877
 20
12082.12446156657
 10
3407.668535438828
 20
12082.12446156657
 10
3407.668535438828
 20
12174.12446156654
  0
LWPOLYLINE
  5
10E
330
17
100
AcDbEntity
  8
barrote
 62
7
370
25
100
AcDbPolyline
 90
4
 70
0
 10
3336.213337766935
 20
12054.12446156661
 10
3531.396278276628
 20
12054.12446156661
 10
3531.396278276628
 20
12074.12446156657
 10
3336.213337766935
 20
12074.12446156657
  0
LWPOLYLINE
  5
10F
330
17
100
AcDbEntity
  8
SCO-___-LAJ
 62
7
370
25
100
AcDbPolyline
 90
4
 70
0
 10
3345.215605182395
 20
12072.79104823324
 10
3512.521465695256
 20
12072.79104823323
 10
3512.521465695256
 20
12069.59136823326
 10
3345.215605182395
 20
12069.59136823326
  0
LWPOLYLINE
  5
110
330
17
100
AcDbEntity
  8
Cotas
 62
7
370
25
100
AcDbPolyline
 90
4
 70
0
 10
3304.286642700053
 20
11752.49741093234
 10
3486.251444635839
 20
11752.49741093234
 10
3486.251444635839
 20
11651.0613428237
 10
3304.286642700053
 20
11651.0613428237
  0
LWPOLYLINE
  5
111
330
17
100
AcDbEntity
  8
Madeira
 62
7
370
25
100
AcDbPolyline
 90
4
 70
0
 10
3365.269577649883
 20
11701.49818591787
 10
3365.269577649883
 20
11715.49818591787
 10
3358.269577649882
 20
11715.49818591787
 10
3358.269577649882
 20
11701.49818591787
  0
LWPOLYLINE
  5
112
330
17
100
AcDbEntity
  8
Madeira
 62
7
370
25
100
AcDbPolyline
 90
3
 70
0
 10
3365.269577649883
 20
11715.49818591787
 10
3365.269577649883
 20
11701.49818591787
 10
3333.793508109995
 20
11701.49818591787
  0
LWPOLYLINE
  5
113
330
17
100
AcDbEntity
  8
Madeira
 62
7
370
25
100
AcDbPolyline
 90
4
 70
0
 10
3389.653001491881
 20
11715.49818591788
 10
3403.632364449464
 20
11715.49818591788
 10
3403.632364449464
 20
11711.09818591788
 10
3389.653001491881
 20
11711.09818591788
  0
LWPOLYLINE
  5
114
330
17
100
AcDbEntity
  8
Painéis
 62
7
370
25
100
AcDbPolyline
 90
4
 70
0
 10
3403.632364449464
 20
11719.09818591787
 10
3407.232364449467
 20
11719.09818591787
 10
3407.232364449467
 20
11676.09818591787
 10
3403.632364449464
 20
11676.09818591787
  0
LWPOLYLINE
  5
115
330
17
100
AcDbEntity
  8
Madeira
 62
7
370
25
100
AcDbPolyline
 90
4
 70
0
 10
3407.232364449467
 20
11676.09818591787
 10
3407.232364449467
 20
11690.07754887545
 10
3411.632364449468
 20
11690.07754887545
 10
3411.632364449468
 20
11676.09818591787
  0
LWPOLYLINE
  5
116
330
17
100
AcDbEntity
  8
Painéis
 62
7
370
25
100
AcDbPolyline
 90
4
 70
0
 10
4015.534511359881
 20
12281.10992914501
 10
4102.534511359881
 20
12281.10992914501
 10
4102.534511359881
 20
12234.10992914501
 10
4015.534511359881
 20
12234.10992914501
  0
LWPOLYLINE
  5
117
330
17
100
AcDbEntity
  8
Painéis
 62
7
370
25
100
AcDbPolyline
 90
4
 70
0
 10
4101.534511359884
 20
11902.1090254015
 10
4261.029511359884
 20
11902.1090254015
 10
4261.029511359884
 20
11852.1090254015
 10
4101.534511359884
 20
11852.1090254015
  0
LWPOLYLINE
  5
118
330
17
100
AcDbEntity
  8
Painéis
 62
7
370
25
100
AcDbPolyline
 90
4
 70
0
 10
4510.725585449477
 20
11899.1090254015
 10
4332.730585449477
 20
11899.1090254015
 10
4332.730585449477
 20
11852.1090254015
 10
4510.725585449477
 20
11852.1090254015
  0
LINE
  5
119
330
17
100
AcDbEntity
  8
NOMENCLATURA
 62
7
370
25
100
AcDbLine
 10
3524.469100410565
 20
11584.20071465817
 30
0.0
 11
3593.7034476262
 21
11584.20071465817
 31
0.0
  0
ENDSEC
  0
SECTION
  2
OBJECTS
  0
DICTIONARY
  5
A
330
0
100
AcDbDictionary
281
1
  3
ACAD_COLOR
350
B
  3
ACAD_GROUP
350
C
  3
ACAD_LAYOUT
350
D
  3
ACAD_MATERIAL
350
E
  3
ACAD_MLEADERSTYLE
350
F
  3
ACAD_MLINESTYLE
350
10
  3
ACAD_PLOTSETTINGS
350
11
  3
ACAD_PLOTSTYLENAME
350
12
  3
ACAD_SCALELIST
350
14
  3
ACAD_TABLESTYLE
350
15
  3
ACAD_VISUALSTYLE
350
16
  3
EZDXF_META
350
2D
  0
DICTIONARY
  5
B
330
A
100
AcDbDictionary
281
1
  0
DICTIONARY
  5
C
330
A
100
AcDbDictionary
281
1
  0
DICTIONARY
  5
D
330
A
100
AcDbDictionary
281
1
  3
Model
350
1A
  3
Layout1
350
1E
  0
DICTIONARY
  5
E
330
A
100
AcDbDictionary
281
1
  3
ByBlock
350
1F
  3
ByLayer
350
20
  3
Global
350
21
  0
DICTIONARY
  5
F
330
A
100
AcDbDictionary
281
1
  3
Standard
350
2C
  0
DICTIONARY
  5
10
330
A
100
AcDbDictionary
281
1
  3
Standard
350
22
  0
DICTIONARY
  5
11
330
A
100
AcDbDictionary
281
1
  0
ACDBDICTIONARYWDFLT
  5
12
330
A
100
AcDbDictionary
281
1
  3
Normal
350
13
100
AcDbDictionaryWithDefault
340
13
  0
ACDBPLACEHOLDER
  5
13
330
12
  0
DICTIONARY
  5
14
330
A
100
AcDbDictionary
281
1
  0
DICTIONARY
  5
15
330
A
100
AcDbDictionary
281
1
  0
DICTIONARY
  5
16
330
A
100
AcDbDictionary
281
1
  0
LAYOUT
  5
1A
330
D
100
AcDbPlotSettings
  1

  4
A3
  6

 40
7.5
 41
20.0
 42
7.5
 43
20.0
 44
420.0
 45
297.0
 46
0.0
 47
0.0
 48
0.0
 49
0.0
140
0.0
141
0.0
142
1.0
143
1.0
 70
1024
 72
1
 73
0
 74
5
  7

 75
16
 76
0
 77
2
 78
300
147
1.0
148
0.0
149
0.0
100
AcDbLayout
  1
Model
 70
1
 71
0
 10
0.0
 20
0.0
 11
420.0
 21
297.0
 12
0.0
 22
0.0
 32
0.0
 14
1e+20
 24
1e+20
 34
1e+20
 15
-1e+20
 25
-1e+20
 35
-1e+20
146
0.0
 13
0.0
 23
0.0
 33
0.0
 16
1.0
 26
0.0
 36
0.0
 17
0.0
 27
1.0
 37
0.0
 76
1
330
17
  0
LAYOUT
  5
1E
330
D
100
AcDbPlotSettings
  1

  4
A3
  6

 40
7.5
 41
20.0
 42
7.5
 43
20.0
 44
420.0
 45
297.0
 46
0.0
 47
0.0
 48
0.0
 49
0.0
140
0.0
141
0.0
142
1.0
143
1.0
 70
0
 72
1
 73
0
 74
5
  7

 75
16
 76
0
 77
2
 78
300
147
1.0
148
0.0
149
0.0
100
AcDbLayout
  1
Layout1
 70
1
 71
1
 10
0.0
 20
0.0
 11
420.0
 21
297.0
 12
0.0
 22
0.0
 32
0.0
 14
1e+20
 24
1e+20
 34
1e+20
 15
-1e+20
 25
-1e+20
 35
-1e+20
146
0.0
 13
0.0
 23
0.0
 33
0.0
 16
1.0
 26
0.0
 36
0.0
 17
0.0
 27
1.0
 37
0.0
 76
1
330
1B
  0
MATERIAL
  5
1F
102
{ACAD_REACTORS
330
E
102
}
330
E
100
AcDbMaterial
  1
ByBlock
  2

 70
0
 40
1.0
 71
1
 41
1.0
 91
-1023410177
 42
1.0
 72
1
  3

 73
1
 74
1
 75
1
 44
0.5
 73
0
 45
1.0
 46
1.0
 77
1
  4

 78
1
 79
1
170
1
 48
1.0
171
1
  6

172
1
173
1
174
1
140
1.0
141
1.0
175
1
  7

176
1
177
1
178
1
143
1.0
179
1
  8

270
1
271
1
272
1
145
1.0
146
1.0
273
1
  9

274
1
275
1
276
1
 42
1.0
 72
1
  3

 73
1
 74
1
 75
1
 94
63
  0
MATERIAL
  5
20
102
{ACAD_REACTORS
330
E
102
}
330
E
100
AcDbMaterial
  1
ByLayer
  2

 70
0
 40
1.0
 71
1
 41
1.0
 91
-1023410177
 42
1.0
 72
1
  3

 73
1
 74
1
 75
1
 44
0.5
 73
0
 45
1.0
 46
1.0
 77
1
  4

 78
1
 79
1
170
1
 48
1.0
171
1
  6

172
1
173
1
174
1
140
1.0
141
1.0
175
1
  7

176
1
177
1
178
1
143
1.0
179
1
  8

270
1
271
1
272
1
145
1.0
146
1.0
273
1
  9

274
1
275
1
276
1
 42
1.0
 72
1
  3

 73
1
 74
1
 75
1
 94
63
  0
MATERIAL
  5
21
102
{ACAD_REACTORS
330
E
102
}
330
E
100
AcDbMaterial
  1
Global
  2

 70
0
 40
1.0
 71
1
 41
1.0
 91
-1023410177
 42
1.0
 72
1
  3

 73
1
 74
1
 75
1
 44
0.5
 73
0
 45
1.0
 46
1.0
 77
1
  4

 78
1
 79
1
170
1
 48
1.0
171
1
  6

172
1
173
1
174
1
140
1.0
141
1.0
175
1
  7

176
1
177
1
178
1
143
1.0
179
1
  8

270
1
271
1
272
1
145
1.0
146
1.0
273
1
  9

274
1
275
1
276
1
 42
1.0
 72
1
  3

 73
1
 74
1
 75
1
 94
63
  0
MLINESTYLE
  5
22
102
{ACAD_REACTORS
330
10
102
}
330
10
100
AcDbMlineStyle
  2
Standard
 70
0
  3

 62
256
 51
90.0
 52
90.0
 71
2
 49
0.5
 62
256
  6
BYLAYER
 49
-0.5
 62
256
  6
BYLAYER
  0
MLEADERSTYLE
  5
2C
102
{ACAD_REACTORS
330
F
102
}
330
F
100
AcDbMLeaderStyle
179
2
170
2
171
1
172
0
 90
2
 40
0.0
 41
0.0
173
1
 91
-1056964608
 92
-2
290
1
 42
2.0
291
1
 43
8.0
  3
Standard
 44
4.0
300

342
29
174
1
175
1
176
0
178
1
 93
-1056964608
 45
4.0
292
0
297
0
 46
4.0
 94
-1056964608
 47
1.0
 49
1.0
140
1.0
294
1
141
0.0
177
0
142
1.0
295
0
296
0
143
3.75
271
0
272
9
273
9
  0
DICTIONARY
  5
2D
330
A
100
AcDbDictionary
280
1
281
1
  3
CREATED_BY_EZDXF
350
2E
  3
WRITTEN_BY_EZDXF
350
11C
  0
DICTIONARYVAR
  5
2E
330
2D
100
DictionaryVariables
280
0
  1
1.4.3 @ 2026-06-10T03:13:40.053308+00:00
  0
DICTIONARYVAR
  5
11C
330
2D
100
DictionaryVariables
280
0
  1
1.4.3 @ 2026-06-10T03:13:40.060875+00:00
  0
ENDSEC
  0
EOF
