  0
SECTION
  2
HEADER
  9
$ACADVER
  1
AC1024
  9
$ACADMAINTVER
 70
6
  9
$DWGCODEPAGE
  3
ANSI_1252
  9
$LASTSAVEDBY
  1
ezdxf
  9
$INSBASE
 10
0.0
 20
0.0
 30
0.0
  9
$EXTMIN
 10
1e+20
 20
1e+20
 30
1e+20
  9
$EXTMAX
 10
-1e+20
 20
-1e+20
 30
-1e+20
  9
$LIMMIN
 10
0.0
 20
0.0
  9
$LIMMAX
 10
420.0
 20
297.0
  9
$ORTHOMODE
 70
0
  9
$REGENMODE
 70
1
  9
$FILLMODE
 70
1
  9
$QTEXTMODE
 70
0
  9
$MIRRTEXT
 70
1
  9
$LTSCALE
 40
1.0
  9
$ATTMODE
 70
1
  9
$TEXTSIZE
 40
2.5
  9
$TRACEWID
 40
1.0
  9
$TEXTSTYLE
  7
Standard
  9
$CLAYER
  8
0
  9
$CELTYPE
  6
ByLayer
  9
$CECOLOR
 62
256
  9
$CELTSCALE
 40
1.0
  9
$DISPSILH
 70
0
  9
$DIMSCALE
 40
1.0
  9
$DIMASZ
 40
2.5
  9
$DIMEXO
 40
0.625
  9
$DIMDLI
 40
3.75
  9
$DIMRND
 40
0.0
  9
$DIMDLE
 40
0.0
  9
$DIMEXE
 40
1.25
  9
$DIMTP
 40
0.0
  9
$DIMTM
 40
0.0
  9
$DIMTXT
 40
2.5
  9
$DIMCEN
 40
2.5
  9
$DIMTSZ
 40
0.0
  9
$DIMTOL
 70
0
  9
$DIMLIM
 70
0
  9
$DIMTIH
 70
0
  9
$DIMTOH
 70
0
  9
$DIMSE1
 70
0
  9
$DIMSE2
 70
0
  9
$DIMTAD
 70
1
  9
$DIMZIN
 70
8
  9
$DIMBLK
  1

  9
$DIMASO
 70
1
  9
$DIMSHO
 70
1
  9
$DIMPOST
  1

  9
$DIMAPOST
  1

  9
$DIMALT
 70
0
  9
$DIMALTD
 70
3
  9
$DIMALTF
 40
0.03937007874
  9
$DIMLFAC
 40
1.0
  9
$DIMTOFL
 70
1
  9
$DIMTVP
 40
0.0
  9
$DIMTIX
 70
0
  9
$DIMSOXD
 70
0
  9
$DIMSAH
 70
0
  9
$DIMBLK1
  1

  9
$DIMBLK2
  1

  9
$DIMSTYLE
  2
ISO-25
  9
$DIMCLRD
 70
0
  9
$DIMCLRE
 70
0
  9
$DIMCLRT
 70
0
  9
$DIMTFAC
 40
1.0
  9
$DIMGAP
 40
0.625
  9
$DIMJUST
 70
0
  9
$DIMSD1
 70
0
  9
$DIMSD2
 70
0
  9
$DIMTOLJ
 70
0
  9
$DIMTZIN
 70
8
  9
$DIMALTZ
 70
0
  9
$DIMALTTZ
 70
0
  9
$DIMUPT
 70
0
  9
$DIMDEC
 70
2
  9
$DIMTDEC
 70
2
  9
$DIMALTU
 70
2
  9
$DIMALTTD
 70
3
  9
$DIMTXSTY
  7
Standard
  9
$DIMAUNIT
 70
0
  9
$DIMADEC
 70
0
  9
$DIMALTRND
 40
0.0
  9
$DIMAZIN
 70
0
  9
$DIMDSEP
 70
44
  9
$DIMATFIT
 70
3
  9
$DIMFRAC
 70
0
  9
$DIMLDRBLK
  1

  9
$DIMLUNIT
 70
2
  9
$DIMLWD
 70
-2
  9
$DIMLWE
 70
-2
  9
$DIMTMOVE
 70
0
  9
$DIMFXL
 40
1.0
  9
$DIMFXLON
 70
0
  9
$DIMJOGANG
 40
0.785398163397
  9
$DIMTFILL
 70
0
  9
$DIMTFILLCLR
 70
0
  9
$DIMARCSYM
 70
0
  9
$DIMLTYPE
  6

  9
$DIMLTEX1
  6

  9
$DIMLTEX2
  6

  9
$DIMTXTDIRECTION
 70
0
  9
$LUNITS
 70
2
  9
$LUPREC
 70
4
  9
$SKETCHINC
 40
1.0
  9
$FILLETRAD
 40
10.0
  9
$AUNITS
 70
0
  9
$AUPREC
 70
2
  9
$MENU
  1
.
  9
$ELEVATION
 40
0.0
  9
$PELEVATION
 40
0.0
  9
$THICKNESS
 40
0.0
  9
$LIMCHECK
 70
0
  9
$CHAMFERA
 40
0.0
  9
$CHAMFERB
 40
0.0
  9
$CHAMFERC
 40
0.0
  9
$CHAMFERD
 40
0.0
  9
$SKPOLY
 70
0
  9
$TDCREATE
 40
2461202.579537037
  9
$TDUCREATE
 40
2458532.153996898
  9
$TDUPDATE
 40
2461202.579537037
  9
$TDUUPDATE
 40
2458532.1544311
  9
$TDINDWG
 40
0.0
  9
$TDUSRTIMER
 40
0.0
  9
$USRTIMER
 70
1
  9
$ANGBASE
 50
0.0
  9
$ANGDIR
 70
0
  9
$PDMODE
 70
0
  9
$PDSIZE
 40
0.0
  9
$PLINEWID
 40
0.0
  9
$SPLFRAME
 70
0
  9
$SPLINETYPE
 70
6
  9
$SPLINESEGS
 70
8
  9
$HANDSEED
  5
14F
  9
$SURFTAB1
 70
6
  9
$SURFTAB2
 70
6
  9
$SURFTYPE
 70
6
  9
$SURFU
 70
6
  9
$SURFV
 70
6
  9
$UCSBASE
  2

  9
$UCSNAME
  2

  9
$UCSORG
 10
0.0
 20
0.0
 30
0.0
  9
$UCSXDIR
 10
1.0
 20
0.0
 30
0.0
  9
$UCSYDIR
 10
0.0
 20
1.0
 30
0.0
  9
$UCSORTHOREF
  2

  9
$UCSORTHOVIEW
 70
0
  9
$UCSORGTOP
 10
0.0
 20
0.0
 30
0.0
  9
$UCSORGBOTTOM
 10
0.0
 20
0.0
 30
0.0
  9
$UCSORGLEFT
 10
0.0
 20
0.0
 30
0.0
  9
$UCSORGRIGHT
 10
0.0
 20
0.0
 30
0.0
  9
$UCSORGFRONT
 10
0.0
 20
0.0
 30
0.0
  9
$UCSORGBACK
 10
0.0
 20
0.0
 30
0.0
  9
$PUCSBASE
  2

  9
$PUCSNAME
  2

  9
$PUCSORG
 10
0.0
 20
0.0
 30
0.0
  9
$PUCSXDIR
 10
1.0
 20
0.0
 30
0.0
  9
$PUCSYDIR
 10
0.0
 20
1.0
 30
0.0
  9
$PUCSORTHOREF
  2

  9
$PUCSORTHOVIEW
 70
0
  9
$PUCSORGTOP
 10
0.0
 20
0.0
 30
0.0
  9
$PUCSORGBOTTOM
 10
0.0
 20
0.0
 30
0.0
  9
$PUCSORGLEFT
 10
0.0
 20
0.0
 30
0.0
  9
$PUCSORGRIGHT
 10
0.0
 20
0.0
 30
0.0
  9
$PUCSORGFRONT
 10
0.0
 20
0.0
 30
0.0
  9
$PUCSORGBACK
 10
0.0
 20
0.0
 30
0.0
  9
$USERI1
 70
0
  9
$USERI2
 70
0
  9
$USERI3
 70
0
  9
$USERI4
 70
0
  9
$USERI5
 70
0
  9
$USERR1
 40
0.0
  9
$USERR2
 40
0.0
  9
$USERR3
 40
0.0
  9
$USERR4
 40
0.0
  9
$USERR5
 40
0.0
  9
$WORLDVIEW
 70
1
  9
$SHADEDGE
 70
3
  9
$SHADEDIF
 70
70
  9
$TILEMODE
 70
1
  9
$MAXACTVP
 70
64
  9
$PINSBASE
 10
0.0
 20
0.0
 30
0.0
  9
$PLIMCHECK
 70
0
  9
$PEXTMIN
 10
1e+20
 20
1e+20
 30
1e+20
  9
$PEXTMAX
 10
-1e+20
 20
-1e+20
 30
-1e+20
  9
$PLIMMIN
 10
0.0
 20
0.0
  9
$PLIMMAX
 10
420.0
 20
297.0
  9
$UNITMODE
 70
0
  9
$VISRETAIN
 70
1
  9
$PLINEGEN
 70
0
  9
$PSLTSCALE
 70
1
  9
$TREEDEPTH
 70
3020
  9
$CMLSTYLE
  2
Standard
  9
$CMLJUST
 70
0
  9
$CMLSCALE
 40
20.0
  9
$PROXYGRAPHICS
 70
1
  9
$MEASUREMENT
 70
1
  9
$CELWEIGHT
370
-1
  9
$ENDCAPS
280
0
  9
$JOINSTYLE
280
0
  9
$LWDISPLAY
290
0
  9
$INSUNITS
 70
6
  9
$HYPERLINKBASE
  1

  9
$STYLESHEET
  1

  9
$XEDIT
290
1
  9
$CEPSNTYPE
380
0
  9
$PSTYLEMODE
290
1
  9
$FINGERPRINTGUID
  2
{467AAAB6-24BF-409F-AF37-DCE62E280F33}
  9
$VERSIONGUID
  2
{676FB611-8DD4-41C9-BE36-9F4303DC9FA6}
  9
$EXTNAMES
290
1
  9
$PSVPSCALE
 40
0.0
  9
$OLESTARTUP
290
0
  9
$SORTENTS
280
127
  9
$INDEXCTL
280
0
  9
$HIDETEXT
280
1
  9
$XCLIPFRAME
280
1
  9
$HALOGAP
280
0
  9
$OBSCOLOR
 70
257
  9
$OBSLTYPE
280
0
  9
$INTERSECTIONDISPLAY
280
0
  9
$INTERSECTIONCOLOR
 70
257
  9
$DIMASSOC
280
2
  9
$PROJECTNAME
  1

  9
$CAMERADISPLAY
290
0
  9
$LENSLENGTH
 40
50.0
  9
$CAMERAHEIGHT
 40
0.0
  9
$STEPSPERSEC
 40
24.0
  9
$STEPSIZE
 40
100.0
  9
$3DDWFPREC
 40
2.0
  9
$PSOLWIDTH
 40
0.005
  9
$PSOLHEIGHT
 40
0.08
  9
$LOFTANG1
 40
1.570796326795
  9
$LOFTANG2
 40
1.570796326795
  9
$LOFTMAG1
 40
0.0
  9
$LOFTMAG2
 40
0.0
  9
$LOFTPARAM
 70
7
  9
$LOFTNORMALS
280
1
  9
$LATITUDE
 40
37.795
  9
$LONGITUDE
 40
-122.394
  9
$NORTHDIRECTION
 40
0.0
  9
$TIMEZONE
 70
-8000
  9
$LIGHTGLYPHDISPLAY
280
1
  9
$TILEMODELIGHTSYNCH
280
1
  9
$CMATERIAL
347
20
  9
$SOLIDHIST
280
0
  9
$SHOWHIST
280
1
  9
$DWFFRAME
280
2
  9
$DGNFRAME
280
2
  9
$REALWORLDSCALE
290
1
  9
$INTERFERECOLOR
 62
256
  9
$CSHADOW
280
0
  9
$SHADOWPLANELOCATION
 40
0.0
  0
ENDSEC
  0
SECTION
  2
CLASSES
  0
CLASS
  1
ACDBDICTIONARYWDFLT
  2
AcDbDictionaryWithDefault
  3
ObjectDBX Classes
 90
0
 91
0
280
0
281
0
  0
CLASS
  1
SUN
  2
AcDbSun
  3
SCENEOE
 90
1153
 91
0
280
0
281
0
  0
CLASS
  1
VISUALSTYLE
  2
AcDbVisualStyle
  3
ObjectDBX Classes
 90
4095
 91
0
280
0
281
0
  0
CLASS
  1
MATERIAL
  2
AcDbMaterial
  3
ObjectDBX Classes
 90
1153
 91
0
280
0
281
0
  0
CLASS
  1
SCALE
  2
AcDbScale
  3
ObjectDBX Classes
 90
1153
 91
0
280
0
281
0
  0
CLASS
  1
TABLESTYLE
  2
AcDbTableStyle
  3
ObjectDBX Classes
 90
4095
 91
0
280
0
281
0
  0
CLASS
  1
MLEADERSTYLE
  2
AcDbMLeaderStyle
  3
ACDB_MLEADERSTYLE_CLASS
 90
4095
 91
0
280
0
281
0
  0
CLASS
  1
DICTIONARYVAR
  2
AcDbDictionaryVar
  3
ObjectDBX Classes
 90
0
 91
0
280
0
281
0
  0
CLASS
  1
CELLSTYLEMAP
  2
AcDbCellStyleMap
  3
ObjectDBX Classes
 90
1152
 91
0
280
0
281
0
  0
CLASS
  1
MENTALRAYRENDERSETTINGS
  2
AcDbMentalRayRenderSettings
  3
SCENEOE
 90
1024
 91
0
280
0
281
0
  0
CLASS
  1
ACDBDETAILVIEWSTYLE
  2
AcDbDetailViewStyle
  3
ObjectDBX Classes
 90
1025
 91
0
280
0
281
0
  0
CLASS
  1
ACDBSECTIONVIEWSTYLE
  2
AcDbSectionViewStyle
  3
ObjectDBX Classes
 90
1025
 91
0
280
0
281
0
  0
CLASS
  1
RASTERVARIABLES
  2
AcDbRasterVariables
  3
ISM
 90
0
 91
0
280
0
281
0
  0
CLASS
  1
LAYOUT
  2
AcDbLayout
  3
ObjectDBX Classes
 90
0
 91
0
280
0
281
0
  0
CLASS
  1
ACDBPLACEHOLDER
  2
AcDbPlaceHolder
  3
ObjectDBX Classes
 90
0
 91
0
280
0
281
0
  0
ENDSEC
  0
SECTION
  2
TABLES
  0
TABLE
  2
VPORT
  5
8
330
0
100
AcDbSymbolTable
 70
1
  0
VPORT
  5
23
330
8
100
AcDbSymbolTableRecord
100
AcDbViewportTableRecord
  2
*Active
 70
0
 10
0.0
 20
0.0
 11
1.0
 21
1.0
 12
0.0
 22
0.0
 13
0.0
 23
0.0
 14
0.5
 24
0.5
 15
0.5
 25
0.5
 16
0.0
 26
0.0
 36
1.0
 17
0.0
 27
0.0
 37
0.0
 40
1000.0
 41
1.34
 42
50.0
 43
0.0
 44
0.0
 50
0.0
 51
0.0
 71
0
 72
1000
 73
1
 74
3
 75
0
 76
0
 77
0
 78
0
281
0
 65
0
146
0.0
  0
ENDTAB
  0
TABLE
  2
LTYPE
  5
2
330
0
100
AcDbSymbolTable
 70
3
  0
LTYPE
  5
24
330
2
100
AcDbSymbolTableRecord
100
AcDbLinetypeTableRecord
  2
ByBlock
 70
0
  3

 72
65
 73
0
 40
0.0
  0
LTYPE
  5
25
330
2
100
AcDbSymbolTableRecord
100
AcDbLinetypeTableRecord
  2
ByLayer
 70
0
  3

 72
65
 73
0
 40
0.0
  0
LTYPE
  5
26
330
2
100
AcDbSymbolTableRecord
100
AcDbLinetypeTableRecord
  2
Continuous
 70
0
  3

 72
65
 73
0
 40
0.0
  0
ENDTAB
  0
TABLE
  2
LAYER
  5
1
330
0
100
AcDbSymbolTable
 70
17
  0
LAYER
  5
27
330
1
100
AcDbSymbolTableRecord
100
AcDbLayerTableRecord
  2
0
 70
0
 62
7
  6
Continuous
370
-3
390
13
347
21
  0
LAYER
  5
28
330
1
100
AcDbSymbolTableRecord
100
AcDbLayerTableRecord
  2
Defpoints
 70
0
 62
7
  6
Continuous
290
0
370
-3
390
13
347
21
  0
LAYER
  5
2F
330
1
100
AcDbSymbolTableRecord
100
AcDbLayerTableRecord
  2
texto
 70
0
 62
7
  6
Continuous
370
-3
390
13
347
21
  0
LAYER
  5
30
330
1
100
AcDbSymbolTableRecord
100
AcDbLayerTableRecord
  2
COTA
 70
0
 62
7
  6
Continuous
370
-3
390
13
347
21
  0
LAYER
  5
31
330
1
100
AcDbSymbolTableRecord
100
AcDbLayerTableRecord
  2
SCO-___-LAJ
 70
0
 62
7
  6
Continuous
370
-3
390
13
347
21
  0
LAYER
  5
32
330
1
100
AcDbSymbolTableRecord
100
AcDbLayerTableRecord
  2
presilha
 70
0
 62
7
  6
Continuous
370
-3
390
13
347
21
  0
LAYER
  5
33
330
1
100
AcDbSymbolTableRecord
100
AcDbLayerTableRecord
  2
Texto Seção
 70
0
 62
7
  6
Continuous
370
-3
390
13
347
21
  0
LAYER
  5
34
330
1
100
AcDbSymbolTableRecord
100
AcDbLayerTableRecord
  2
Hachura
 70
0
 62
7
  6
Continuous
370
-3
390
13
347
21
  0
LAYER
  5
35
330
1
100
AcDbSymbolTableRecord
100
AcDbLayerTableRecord
  2
Painéis
 70
0
 62
7
  6
Continuous
370
-3
390
13
347
21
  0
LAYER
  5
36
330
1
100
AcDbSymbolTableRecord
100
AcDbLayerTableRecord
  2
Madeira
 70
0
 62
7
  6
Continuous
370
-3
390
13
347
21
  0
LAYER
  5
37
330
1
100
AcDbSymbolTableRecord
100
AcDbLayerTableRecord
  2
SARR_2.2x7
 70
0
 62
7
  6
Continuous
370
-3
390
13
347
21
  0
LAYER
  5
38
330
1
100
AcDbSymbolTableRecord
100
AcDbLayerTableRecord
  2
SARR_3.5x7
 70
0
 62
7
  6
Continuous
370
-3
390
13
347
21
  0
LAYER
  5
39
330
1
100
AcDbSymbolTableRecord
100
AcDbLayerTableRecord
  2
CONCRETO
 70
0
 62
7
  6
Continuous
370
-3
390
13
347
21
  0
LAYER
  5
3A
330
1
100
AcDbSymbolTableRecord
100
AcDbLayerTableRecord
  2
barrote
 70
0
 62
7
  6
Continuous
370
-3
390
13
347
21
  0
LAYER
  5
3B
330
1
100
AcDbSymbolTableRecord
100
AcDbLayerTableRecord
  2
5
 70
0
 62
7
  6
Continuous
370
-3
390
13
347
21
  0
LAYER
  5
3C
330
1
100
AcDbSymbolTableRecord
100
AcDbLayerTableRecord
  2
TENSOR
 70
0
 62
7
  6
Continuous
370
-3
390
13
347
21
  0
LAYER
  5
3D
330
1
100
AcDbSymbolTableRecord
100
AcDbLayerTableRecord
  2
detalhes
 70
0
 62
7
  6
Continuous
370
-3
390
13
347
21
  0
ENDTAB
  0
TABLE
  2
STYLE
  5
5
330
0
100
AcDbSymbolTable
 70
1
  0
STYLE
  5
29
330
5
100
AcDbSymbolTableRecord
100
AcDbTextStyleTableRecord
  2
Standard
 70
0
 40
0.0
 41
1.0
 50
0.0
 71
0
 42
2.5
  3
txt
  4

  0
ENDTAB
  0
TABLE
  2
VIEW
  5
7
330
0
100
AcDbSymbolTable
 70
0
  0
ENDTAB
  0
TABLE
  2
UCS
  5
6
330
0
100
AcDbSymbolTable
 70
0
  0
ENDTAB
  0
TABLE
  2
APPID
  5
3
330
0
100
AcDbSymbolTable
 70
3
  0
APPID
  5
2A
330
3
100
AcDbSymbolTableRecord
100
AcDbRegAppTableRecord
  2
ACAD
 70
0
  0
APPID
  5
14C
330
3
100
AcDbSymbolTableRecord
100
AcDbRegAppTableRecord
  2
HATCHBACKGROUNDCOLOR
 70
0
  0
APPID
  5
14D
330
3
100
AcDbSymbolTableRecord
100
AcDbRegAppTableRecord
  2
EZDXF
 70
0
  0
ENDTAB
  0
TABLE
  2
DIMSTYLE
  5
4
330
0
100
AcDbSymbolTable
 70
1
100
AcDbDimStyleTable
  0
DIMSTYLE
105
2B
330
4
100
AcDbSymbolTableRecord
100
AcDbDimStyleTableRecord
  2
Standard
 70
0
 40
1.0
 41
2.5
 42
0.625
 43
3.75
 44
1.25
 45
0.0
 46
0.0
 47
0.0
 48
0.0
 49
2.5
140
2.5
141
2.5
142
0.0
143
0.03937007874
144
1.0
145
0.0
146
1.0
147
0.625
148
0.0
 69
0
 70
0
 71
0
 72
0
 73
0
 74
0
 75
0
 76
0
 77
1
 78
8
 79
3
170
0
171
3
172
1
173
0
174
0
175
0
176
0
177
0
178
0
179
2
271
2
272
2
273
2
274
3
275
0
276
0
277
2
278
44
279
0
280
0
281
0
282
0
283
0
284
8
285
0
286
0
288
0
289
3
290
0
371
-2
372
-2
  0
ENDTAB
  0
TABLE
  2
BLOCK_RECORD
  5
9
330
0
100
AcDbSymbolTable
 70
2
  0
BLOCK_RECORD
  5
17
330
9
100
AcDbSymbolTableRecord
100
AcDbBlockTableRecord
  2
*Model_Space
340
1A
 70
0
280
1
281
0
  0
BLOCK_RECORD
  5
1B
330
9
100
AcDbSymbolTableRecord
100
AcDbBlockTableRecord
  2
*Paper_Space
340
1E
 70
0
280
1
281
0
  0
ENDTAB
  0
ENDSEC
  0
SECTION
  2
BLOCKS
  0
BLOCK
  5
18
330
17
100
AcDbEntity
  8
0
100
AcDbBlockBegin
  2
*Model_Space
 70
0
 10
0.0
 20
0.0
 30
0.0
  3
*Model_Space
  1

  0
ENDBLK
  5
19
330
17
100
AcDbEntity
  8
0
100
AcDbBlockEnd
  0
BLOCK
  5
1C
330
1B
100
AcDbEntity
  8
0
100
AcDbBlockBegin
  2
*Paper_Space
 70
0
 10
0.0
 20
0.0
 30
0.0
  3
*Paper_Space
  1

  0
ENDBLK
  5
1D
330
1B
100
AcDbEntity
  8
0
100
AcDbBlockEnd
  0
ENDSEC
  0
SECTION
  2
ENTITIES
  0
LINE
  5
3E
330
17
100
AcDbEntity
  8
Defpoints
 62
7
370
25
100
AcDbLine
 10
4140.07194410327
 20
14499.27467693994
 30
0.0
 11
4140.07194410327
 21
14624.27467693994
 31
0.0
  0
LINE
  5
3F
330
17
100
AcDbEntity
  8
presilha
 62
7
370
25
100
AcDbLine
 10
4097.004744968732
 20
14410.64134360664
 30
0.0
 11
4097.004744968732
 21
14406.041503606655
 31
0.0
  0
LINE
  5
40
330
17
100
AcDbEntity
  8
presilha
 62
7
370
25
100
AcDbLine
 10
4097.004744968732
 20
14406.041503606655
 30
0.0
 11
4077.0043804643797
 21
14406.041503606648
 31
0.0
  0
LINE
  5
41
330
17
100
AcDbEntity
  8
presilha
 62
7
370
25
100
AcDbLine
 10
4076.0043804643797
 20
14413.641343606641
 30
0.0
 11
4077.0043804643797
 21
14413.641343606641
 31
0.0
  0
LINE
  5
42
330
17
100
AcDbEntity
  8
presilha
 62
7
370
25
100
AcDbLine
 10
4077.0043804643797
 20
14413.641343606641
 30
0.0
 11
4077.0043804643797
 21
14401.641343606641
 31
0.0
  0
LINE
  5
43
330
17
100
AcDbEntity
  8
presilha
 62
7
370
25
100
AcDbLine
 10
4077.0043804643797
 20
14401.641343606641
 30
0.0
 11
4076.0043804643797
 21
14401.641343606641
 31
0.0
  0
LINE
  5
44
330
17
100
AcDbEntity
  8
presilha
 62
7
370
25
100
AcDbLine
 10
4076.0043804643797
 20
14401.641343606641
 30
0.0
 11
4076.0043804643797
 21
14413.641343606641
 31
0.0
  0
LINE
  5
45
330
17
100
AcDbEntity
  8
presilha
 62
7
370
25
100
AcDbLine
 10
4080.004380464378
 20
14417.308010273307
 30
0.0
 11
4080.004380464378
 21
14416.308010273307
 31
0.0
  0
LINE
  5
46
330
17
100
AcDbEntity
  8
presilha
 62
7
370
25
100
AcDbLine
 10
4097.004744968732
 20
14410.64134360664
 30
0.0
 11
4078.3847449687323
 21
14410.64134360664
 31
0.0
  0
LINE
  5
47
330
17
100
AcDbEntity
  8
presilha
 62
7
370
25
100
AcDbLine
 10
4077.0047449687318
 20
14410.40134360664
 30
0.0
 11
4077.004380464378
 21
14416.548010273309
 31
0.0
  0
LINE
  5
48
330
17
100
AcDbEntity
  8
presilha
 62
7
370
25
100
AcDbLine
 10
4078.0047449687313
 20
14411.02134360664
 30
0.0
 11
4078.004380464378
 21
14415.928010273306
 31
0.0
  0
LINE
  5
49
330
17
100
AcDbEntity
  8
presilha
 62
7
370
25
100
AcDbLine
 10
4080.004380464378
 20
14417.308010273307
 30
0.0
 11
4077.764380464358
 21
14417.308010273307
 31
0.0
  0
LINE
  5
4A
330
17
100
AcDbEntity
  8
presilha
 62
7
370
25
100
AcDbLine
 10
4080.004380464378
 20
14416.308010273307
 30
0.0
 11
4078.3843804643784
 21
14416.308010273307
 31
0.0
  0
LINE
  5
4B
330
17
100
AcDbEntity
  8
presilha
 62
7
370
25
100
AcDbLine
 10
4072.004380464379
 20
14411.974676939975
 30
0.0
 11
4076.004380464379
 21
14411.974676939975
 31
0.0
  0
LINE
  5
4C
330
17
100
AcDbEntity
  8
presilha
 62
7
370
25
100
AcDbLine
 10
4076.004380464379
 20
14411.974676939975
 30
0.0
 11
4076.004380464379
 21
14403.30801027331
 31
0.0
  0
LINE
  5
4D
330
17
100
AcDbEntity
  8
presilha
 62
7
370
25
100
AcDbLine
 10
4076.004380464379
 20
14403.30801027331
 30
0.0
 11
4072.004380464379
 21
14403.30801027331
 31
0.0
  0
LINE
  5
4E
330
17
100
AcDbEntity
  8
presilha
 62
7
370
25
100
AcDbLine
 10
4072.004380464379
 20
14411.974676939975
 30
0.0
 11
4072.004380464379
 21
14403.30801027331
 31
0.0
  0
LINE
  5
4F
330
17
100
AcDbEntity
  8
presilha
 62
7
370
25
100
AcDbLine
 10
4178.7391432378145
 20
14410.64134360664
 30
0.0
 11
4178.7391432378145
 21
14406.041503606655
 31
0.0
  0
LINE
  5
50
330
17
100
AcDbEntity
  8
presilha
 62
7
370
25
100
AcDbLine
 10
4178.7391432378145
 20
14406.041503606655
 30
0.0
 11
4198.739507742166
 21
14406.041503606648
 31
0.0
  0
LINE
  5
51
330
17
100
AcDbEntity
  8
presilha
 62
7
370
25
100
AcDbLine
 10
4199.739507742166
 20
14413.641343606641
 30
0.0
 11
4198.739507742166
 21
14413.641343606641
 31
0.0
  0
LINE
  5
52
330
17
100
AcDbEntity
  8
presilha
 62
7
370
25
100
AcDbLine
 10
4198.739507742166
 20
14413.641343606641
 30
0.0
 11
4198.739507742166
 21
14401.641343606641
 31
0.0
  0
LINE
  5
53
330
17
100
AcDbEntity
  8
presilha
 62
7
370
25
100
AcDbLine
 10
4198.739507742166
 20
14401.641343606641
 30
0.0
 11
4199.739507742166
 21
14401.641343606641
 31
0.0
  0
LINE
  5
54
330
17
100
AcDbEntity
  8
presilha
 62
7
370
25
100
AcDbLine
 10
4199.739507742166
 20
14401.641343606641
 30
0.0
 11
4199.739507742166
 21
14413.641343606641
 31
0.0
  0
LINE
  5
55
330
17
100
AcDbEntity
  8
presilha
 62
7
370
25
100
AcDbLine
 10
4195.739507742168
 20
14417.308010273307
 30
0.0
 11
4195.739507742168
 21
14416.308010273307
 31
0.0
  0
LINE
  5
56
330
17
100
AcDbEntity
  8
presilha
 62
7
370
25
100
AcDbLine
 10
4178.7391432378145
 20
14410.64134360664
 30
0.0
 11
4197.359143237814
 21
14410.64134360664
 31
0.0
  0
LINE
  5
57
330
17
100
AcDbEntity
  8
presilha
 62
7
370
25
100
AcDbLine
 10
4198.7391432378145
 20
14410.40134360664
 30
0.0
 11
4198.739507742168
 21
14416.548010273309
 31
0.0
  0
LINE
  5
58
330
17
100
AcDbEntity
  8
presilha
 62
7
370
25
100
AcDbLine
 10
4197.739143237815
 20
14411.02134360664
 30
0.0
 11
4197.739507742168
 21
14415.928010273306
 31
0.0
  0
LINE
  5
59
330
17
100
AcDbEntity
  8
presilha
 62
7
370
25
100
AcDbLine
 10
4195.739507742168
 20
14417.308010273307
 30
0.0
 11
4197.979507742188
 21
14417.308010273307
 31
0.0
  0
LINE
  5
5A
330
17
100
AcDbEntity
  8
presilha
 62
7
370
25
100
AcDbLine
 10
4195.739507742168
 20
14416.308010273307
 30
0.0
 11
4197.359507742168
 21
14416.308010273307
 31
0.0
  0
LINE
  5
5B
330
17
100
AcDbEntity
  8
presilha
 62
7
370
25
100
AcDbLine
 10
4203.739507742167
 20
14411.974676939975
 30
0.0
 11
4199.739507742167
 21
14411.974676939975
 31
0.0
  0
LINE
  5
5C
330
17
100
AcDbEntity
  8
presilha
 62
7
370
25
100
AcDbLine
 10
4199.739507742167
 20
14411.974676939975
 30
0.0
 11
4199.739507742167
 21
14403.30801027331
 31
0.0
  0
LINE
  5
5D
330
17
100
AcDbEntity
  8
presilha
 62
7
370
25
100
AcDbLine
 10
4199.739507742167
 20
14403.30801027331
 30
0.0
 11
4203.739507742167
 21
14403.30801027331
 31
0.0
  0
LINE
  5
5E
330
17
100
AcDbEntity
  8
presilha
 62
7
370
25
100
AcDbLine
 10
4203.739507742167
 20
14411.974676939975
 30
0.0
 11
4203.739507742167
 21
14403.30801027331
 31
0.0
  0
LINE
  5
5F
330
17
100
AcDbEntity
  8
0
 62
7
370
25
100
AcDbLine
 10
4070.871944103244
 20
14447.24473446823
 30
0.0
 11
4070.871944103244
 21
14435.24473446823
 31
0.0
  0
LINE
  5
60
330
17
100
AcDbEntity
  8
0
 62
7
370
25
100
AcDbLine
 10
4206.871944103273
 20
14444.24473446825
 30
0.0
 11
4206.871944103273
 21
14438.24473446825
 31
0.0
  0
LINE
  5
61
330
17
100
AcDbEntity
  8
0
 62
7
370
25
100
AcDbLine
 10
4204.871944103273
 20
14447.24473446824
 30
0.0
 11
4204.871944103273
 21
14435.24473446825
 31
0.0
  0
LINE
  5
62
330
17
100
AcDbEntity
  8
0
 62
7
370
25
100
AcDbLine
 10
4204.871944103273
 20
14438.24473446825
 30
0.0
 11
4206.871944103273
 21
14438.24473446825
 31
0.0
  0
LINE
  5
63
330
17
100
AcDbEntity
  8
0
 62
7
370
25
100
AcDbLine
 10
4070.871944103244
 20
14435.24473446823
 30
0.0
 11
4100.871944103245
 21
14435.24473446823
 31
0.0
  0
LINE
  5
64
330
17
100
AcDbEntity
  8
0
 62
7
370
25
100
AcDbLine
 10
4174.871944103273
 20
14440.24473446825
 30
0.0
 11
4204.871944103273
 21
14440.24473446825
 31
0.0
  0
LINE
  5
65
330
17
100
AcDbEntity
  8
0
 62
7
370
25
100
AcDbLine
 10
4174.871944103273
 20
14442.24473446825
 30
0.0
 11
4204.871944103273
 21
14442.24473446825
 31
0.0
  0
LINE
  5
66
330
17
100
AcDbEntity
  8
TENSOR
 62
7
370
25
100
AcDbLine
 10
4209.871944103273
 20
14441.24473446823
 30
0.0
 11
4065.568649925146
 21
14441.24473446823
 31
0.0
  0
LINE
  5
67
330
17
100
AcDbEntity
  8
0
 62
7
370
25
100
AcDbLine
 10
4204.871944103273
 20
14444.24473446825
 30
0.0
 11
4206.871944103273
 21
14444.24473446825
 31
0.0
  0
LINE
  5
68
330
17
100
AcDbEntity
  8
0
 62
7
370
25
100
AcDbLine
 10
4100.871944103245
 20
14440.24473446823
 30
0.0
 11
4070.871944103244
 21
14440.24473446823
 31
0.0
  0
LINE
  5
69
330
17
100
AcDbEntity
  8
0
 62
7
370
25
100
AcDbLine
 10
4100.871944103245
 20
14442.24473446823
 30
0.0
 11
4070.871944103244
 21
14442.24473446823
 31
0.0
  0
LINE
  5
6A
330
17
100
AcDbEntity
  8
0
 62
7
370
25
100
AcDbLine
 10
4070.871944103244
 20
14447.24473446823
 30
0.0
 11
4100.871944103245
 21
14447.24473446823
 31
0.0
  0
LINE
  5
6B
330
17
100
AcDbEntity
  8
0
 62
7
370
25
100
AcDbLine
 10
4204.871944103273
 20
14435.24473446825
 30
0.0
 11
4174.871944103273
 21
14435.24473446825
 31
0.0
  0
LINE
  5
6C
330
17
100
AcDbEntity
  8
0
 62
7
370
25
100
AcDbLine
 10
4204.871944103273
 20
14447.24473446824
 30
0.0
 11
4174.871944103273
 21
14447.24473446824
 31
0.0
  0
LINE
  5
6D
330
17
100
AcDbEntity
  8
0
 62
7
370
25
100
AcDbLine
 10
4068.871944103245
 20
14444.24473446823
 30
0.0
 11
4068.871944103245
 21
14438.24473446823
 31
0.0
  0
LINE
  5
6E
330
17
100
AcDbEntity
  8
0
 62
7
370
25
100
AcDbLine
 10
4070.871944103244
 20
14438.24473446823
 30
0.0
 11
4068.871944103245
 21
14438.24473446823
 31
0.0
  0
LINE
  5
6F
330
17
100
AcDbEntity
  8
0
 62
7
370
25
100
AcDbLine
 10
4068.871944103245
 20
14444.24473446823
 30
0.0
 11
4070.871944103244
 21
14444.24473446823
 31
0.0
  0
LINE
  5
70
330
17
100
AcDbEntity
  8
SARR_2.2x7
 62
7
370
25
100
AcDbLine
 10
4035.973226936014
 20
14242.95479994927
 30
0.0
 11
4081.973226936013
 21
14242.95479994927
 31
0.0
  0
LINE
  5
71
330
17
100
AcDbEntity
  8
SARR_2.2x7
 62
7
370
25
100
AcDbLine
 10
4081.973226936013
 20
14242.95479994927
 30
0.0
 11
4188.973226936013
 21
14242.95479994927
 31
0.0
  0
LINE
  5
72
330
17
100
AcDbEntity
  8
SARR_2.2x7
 62
7
370
25
100
AcDbLine
 10
4027.973226936014
 20
14215.15479994927
 30
0.0
 11
4027.973226936014
 21
14245.15479994927
 31
0.0
  0
LINE
  5
73
330
17
100
AcDbEntity
  8
SARR_2.2x7
 62
7
370
25
100
AcDbLine
 10
4196.973226936013
 20
14215.15479994927
 30
0.0
 11
4196.973226936013
 21
14245.15479994927
 31
0.0
  0
LINE
  5
74
330
17
100
AcDbEntity
  8
SARR_3.5x7
 62
7
370
25
100
AcDbLine
 10
4188.973226936013
 20
14245.15479994931
 30
0.0
 11
4188.973226935926
 21
14215.15479994927
 31
0.0
  0
LINE
  5
75
330
17
100
AcDbEntity
  8
SARR_3.5x7
 62
7
370
25
100
AcDbLine
 10
4185.473226936013
 20
14242.95479994932
 30
0.0
 11
4185.473226935985
 21
14215.15479994927
 31
0.0
  0
LINE
  5
76
330
17
100
AcDbEntity
  8
SARR_3.5x7
 62
7
370
25
100
AcDbLine
 10
4085.473226936043
 20
14242.95479994932
 30
0.0
 11
4085.473226936072
 21
14215.15479994927
 31
0.0
  0
LINE
  5
77
330
17
100
AcDbEntity
  8
SARR_3.5x7
 62
7
370
25
100
AcDbLine
 10
4078.473226935956
 20
14242.95479994937
 30
0.0
 11
4078.473226935926
 21
14215.15479994927
 31
0.0
  0
LINE
  5
78
330
17
100
AcDbEntity
  8
SARR_3.5x7
 62
7
370
25
100
AcDbLine
 10
4035.973226936014
 20
14245.15479994928
 30
0.0
 11
4035.973226936014
 21
14215.15479994927
 31
0.0
  0
LINE
  5
79
330
17
100
AcDbEntity
  8
SARR_3.5x7
 62
7
370
25
100
AcDbLine
 10
4039.473226936014
 20
14242.95479994929
 30
0.0
 11
4039.473226936014
 21
14215.15479994927
 31
0.0
  0
LINE
  5
7A
330
17
100
AcDbEntity
  8
SARR_3.5x7
 62
7
370
25
100
AcDbLine
 10
4081.973226936013
 20
14242.95479994927
 30
0.0
 11
4081.973226936013
 21
14215.15479994928
 31
0.0
  0
LINE
  5
7B
330
17
100
AcDbEntity
  8
SARR_3.5x7
 62
7
370
25
100
AcDbLine
 10
4078.473226935926
 20
14215.15479994927
 30
0.0
 11
4081.973226936013
 21
14215.15479994927
 31
0.0
  0
LINE
  5
7C
330
17
100
AcDbEntity
  8
SARR_3.5x7
 62
7
370
25
100
AcDbLine
 10
4081.973226936013
 20
14215.15479994927
 30
0.0
 11
4085.473226936072
 21
14215.15479994927
 31
0.0
  0
LINE
  5
7D
330
17
100
AcDbEntity
  8
SARR_3.5x7
 62
7
370
25
100
AcDbLine
 10
4185.473226935985
 20
14215.15479994927
 30
0.0
 11
4188.973226935926
 21
14215.15479994927
 31
0.0
  0
LINE
  5
7E
330
17
100
AcDbEntity
  8
SARR_3.5x7
 62
7
370
25
100
AcDbLine
 10
4035.973226936014
 20
14215.15479994927
 30
0.0
 11
4039.473226936014
 21
14215.15479994927
 31
0.0
  0
LINE
  5
7F
330
17
100
AcDbEntity
  8
Painéis
 62
7
370
25
100
AcDbLine
 10
4020.973226936013
 20
14245.15479994927
 30
0.0
 11
4203.973226936013
 21
14245.15479994927
 31
0.0
  0
LINE
  5
80
330
17
100
AcDbEntity
  8
Painéis
 62
7
370
25
100
AcDbLine
 10
4020.973226936013
 20
14215.15479994927
 30
0.0
 11
4203.973226936013
 21
14215.15479994927
 31
0.0
  0
LINE
  5
81
330
17
100
AcDbEntity
  8
Painéis
 62
7
370
25
100
AcDbLine
 10
4020.973226936013
 20
14215.15479994927
 30
0.0
 11
4020.973226936013
 21
14245.15479994927
 31
0.0
  0
LINE
  5
82
330
17
100
AcDbEntity
  8
Painéis
 62
7
370
25
100
AcDbLine
 10
4081.973226936013
 20
14215.15479994927
 30
0.0
 11
4081.973226936013
 21
14245.15479994927
 31
0.0
  0
LINE
  5
83
330
17
100
AcDbEntity
  8
Painéis
 62
7
370
25
100
AcDbLine
 10
4203.973226936013
 20
14215.15479994927
 30
0.0
 11
4203.973226936013
 21
14245.15479994927
 31
0.0
  0
LINE
  5
84
330
17
100
AcDbEntity
  8
SARR_2.2x7
 62
7
370
25
100
AcDbLine
 10
4036.627787144587
 20
14053.96514198265
 30
0.0
 11
4143.627787144587
 21
14053.96514198265
 31
0.0
  0
LINE
  5
85
330
17
100
AcDbEntity
  8
SARR_2.2x7
 62
7
370
25
100
AcDbLine
 10
4143.627787144587
 20
14053.96514198265
 30
0.0
 11
4189.627787144587
 21
14053.96514198265
 31
0.0
  0
LINE
  5
86
330
17
100
AcDbEntity
  8
SARR_2.2x7
 62
7
370
25
100
AcDbLine
 10
4028.627787144587
 20
14012.16514198265
 30
0.0
 11
4028.627787144587
 21
14056.16514198265
 31
0.0
  0
LINE
  5
87
330
17
100
AcDbEntity
  8
SARR_2.2x7
 62
7
370
25
100
AcDbLine
 10
4197.627787144587
 20
14012.16514198265
 30
0.0
 11
4197.627787144587
 21
14056.16514198265
 31
0.0
  0
LINE
  5
88
330
17
100
AcDbEntity
  8
SARR_3.5x7
 62
7
370
25
100
AcDbLine
 10
4189.627787144587
 20
14056.16514198269
 30
0.0
 11
4189.6277871445
 21
14012.16514198265
 31
0.0
  0
LINE
  5
89
330
17
100
AcDbEntity
  8
SARR_3.5x7
 62
7
370
25
100
AcDbLine
 10
4186.127787144587
 20
14053.96514198269
 30
0.0
 11
4186.127787144558
 21
14012.16514198265
 31
0.0
  0
LINE
  5
8A
330
17
100
AcDbEntity
  8
SARR_3.5x7
 62
7
370
25
100
AcDbLine
 10
4147.127787144616
 20
14053.96514198269
 30
0.0
 11
4147.127787144645
 21
14012.16514198265
 31
0.0
  0
LINE
  5
8B
330
17
100
AcDbEntity
  8
SARR_3.5x7
 62
7
370
25
100
AcDbLine
 10
4140.127787144529
 20
14053.96514198275
 30
0.0
 11
4140.1277871445
 21
14012.16514198265
 31
0.0
  0
LINE
  5
8C
330
17
100
AcDbEntity
  8
SARR_3.5x7
 62
7
370
25
100
AcDbLine
 10
4036.627787144587
 20
14056.16514198266
 30
0.0
 11
4036.627787144587
 21
14012.16514198265
 31
0.0
  0
LINE
  5
8D
330
17
100
AcDbEntity
  8
SARR_3.5x7
 62
7
370
25
100
AcDbLine
 10
4040.127787144586
 20
14053.96514198266
 30
0.0
 11
4040.127787144586
 21
14012.16514198265
 31
0.0
  0
LINE
  5
8E
330
17
100
AcDbEntity
  8
SARR_3.5x7
 62
7
370
25
100
AcDbLine
 10
4143.627787144587
 20
14053.96514198265
 30
0.0
 11
4143.627787144587
 21
14012.16514198266
 31
0.0
  0
LINE
  5
8F
330
17
100
AcDbEntity
  8
SARR_3.5x7
 62
7
370
25
100
AcDbLine
 10
4140.1277871445
 20
14012.16514198265
 30
0.0
 11
4143.627787144587
 21
14012.16514198265
 31
0.0
  0
LINE
  5
90
330
17
100
AcDbEntity
  8
SARR_3.5x7
 62
7
370
25
100
AcDbLine
 10
4143.627787144587
 20
14012.16514198265
 30
0.0
 11
4147.127787144645
 21
14012.16514198265
 31
0.0
  0
LINE
  5
91
330
17
100
AcDbEntity
  8
SARR_3.5x7
 62
7
370
25
100
AcDbLine
 10
4186.127787144558
 20
14012.16514198265
 30
0.0
 11
4189.6277871445
 21
14012.16514198265
 31
0.0
  0
LINE
  5
92
330
17
100
AcDbEntity
  8
SARR_3.5x7
 62
7
370
25
100
AcDbLine
 10
4036.627787144587
 20
14012.16514198265
 30
0.0
 11
4040.127787144586
 21
14012.16514198265
 31
0.0
  0
LINE
  5
93
330
17
100
AcDbEntity
  8
Painéis
 62
7
370
25
100
AcDbLine
 10
4021.627787144587
 20
14056.16514198265
 30
0.0
 11
4204.627787144587
 21
14056.16514198265
 31
0.0
  0
LINE
  5
94
330
17
100
AcDbEntity
  8
Painéis
 62
7
370
25
100
AcDbLine
 10
4021.627787144587
 20
14012.16514198265
 30
0.0
 11
4204.627787144587
 21
14012.16514198265
 31
0.0
  0
LINE
  5
95
330
17
100
AcDbEntity
  8
Painéis
 62
7
370
25
100
AcDbLine
 10
4021.627787144587
 20
14012.16514198265
 30
0.0
 11
4021.627787144587
 21
14056.16514198265
 31
0.0
  0
LINE
  5
96
330
17
100
AcDbEntity
  8
Painéis
 62
7
370
25
100
AcDbLine
 10
4143.627787144587
 20
14012.16514198265
 30
0.0
 11
4143.627787144587
 21
14056.16514198265
 31
0.0
  0
LINE
  5
97
330
17
100
AcDbEntity
  8
Painéis
 62
7
370
25
100
AcDbLine
 10
4204.627787144587
 20
14012.16514198265
 30
0.0
 11
4204.627787144587
 21
14056.16514198265
 31
0.0
  0
LINE
  5
98
330
17
100
AcDbEntity
  8
SARR_3.5x7
 62
7
370
25
100
AcDbLine
 10
4057.223226935985
 20
14242.95479994927
 30
0.0
 11
4057.223226935985
 21
14215.15479994926
 31
0.0
  0
LINE
  5
99
330
17
100
AcDbEntity
  8
SARR_3.5x7
 62
7
370
25
100
AcDbLine
 10
4060.723226935984
 20
14242.95479994927
 30
0.0
 11
4060.723226935984
 21
14215.15479994926
 31
0.0
  0
LINE
  5
9A
330
17
100
AcDbEntity
  8
COTA
 62
7
370
25
100
AcDbLine
 10
4203.973226936013
 20
14245.15479994927
 30
0.0
 11
4203.973226936013
 21
14259.15479994927
 31
0.0
  0
LINE
  5
9B
330
17
100
AcDbEntity
  8
COTA
 62
7
370
25
100
AcDbLine
 10
4203.973226936013
 20
14259.15479994927
 30
0.0
 11
4020.973226936013
 21
14259.15479994927
 31
0.0
  0
LINE
  5
9C
330
17
100
AcDbEntity
  8
COTA
 62
7
370
25
100
AcDbLine
 10
4020.973226936013
 20
14259.15479994927
 30
0.0
 11
4020.973226936013
 21
14245.15479994927
 31
0.0
  0
LINE
  5
9D
330
17
100
AcDbEntity
  8
SARR_3.5x7
 62
7
370
25
100
AcDbLine
 10
4164.877787144558
 20
14053.96514198265
 30
0.0
 11
4164.877787144558
 21
14012.16514198265
 31
0.0
  0
LINE
  5
9E
330
17
100
AcDbEntity
  8
SARR_3.5x7
 62
7
370
25
100
AcDbLine
 10
4168.377787144558
 20
14053.96514198265
 30
0.0
 11
4168.377787144557
 21
14012.16514198265
 31
0.0
  0
LINE
  5
9F
330
17
100
AcDbEntity
  8
Defpoints
 62
7
370
25
100
AcDbLine
 10
3691.841450860255
 20
14499.27467693995
 30
0.0
 11
3691.841450860255
 21
14624.27467693995
 31
0.0
  0
LINE
  5
A0
330
17
100
AcDbEntity
  8
presilha
 62
7
370
25
100
AcDbLine
 10
3648.7742517257157
 20
14410.64134360665
 30
0.0
 11
3648.7742517257157
 21
14406.041503606666
 31
0.0
  0
LINE
  5
A1
330
17
100
AcDbEntity
  8
presilha
 62
7
370
25
100
AcDbLine
 10
3648.7742517257157
 20
14406.041503606666
 30
0.0
 11
3628.7738872213636
 21
14406.041503606659
 31
0.0
  0
LINE
  5
A2
330
17
100
AcDbEntity
  8
presilha
 62
7
370
25
100
AcDbLine
 10
3627.7738872213636
 20
14413.641343606652
 30
0.0
 11
3628.7738872213636
 21
14413.641343606652
 31
0.0
  0
LINE
  5
A3
330
17
100
AcDbEntity
  8
presilha
 62
7
370
25
100
AcDbLine
 10
3628.7738872213636
 20
14413.641343606652
 30
0.0
 11
3628.7738872213636
 21
14401.641343606652
 31
0.0
  0
LINE
  5
A4
330
17
100
AcDbEntity
  8
presilha
 62
7
370
25
100
AcDbLine
 10
3628.7738872213636
 20
14401.641343606652
 30
0.0
 11
3627.7738872213636
 21
14401.641343606652
 31
0.0
  0
LINE
  5
A5
330
17
100
AcDbEntity
  8
presilha
 62
7
370
25
100
AcDbLine
 10
3627.7738872213636
 20
14401.641343606652
 30
0.0
 11
3627.7738872213636
 21
14413.641343606652
 31
0.0
  0
LINE
  5
A6
330
17
100
AcDbEntity
  8
presilha
 62
7
370
25
100
AcDbLine
 10
3631.7738872213617
 20
14417.308010273318
 30
0.0
 11
3631.7738872213617
 21
14416.308010273318
 31
0.0
  0
LINE
  5
A7
330
17
100
AcDbEntity
  8
presilha
 62
7
370
25
100
AcDbLine
 10
3648.7742517257157
 20
14410.64134360665
 30
0.0
 11
3630.154251725716
 21
14410.64134360665
 31
0.0
  0
LINE
  5
A8
330
17
100
AcDbEntity
  8
presilha
 62
7
370
25
100
AcDbLine
 10
3628.7742517257157
 20
14410.40134360665
 30
0.0
 11
3628.7738872213617
 21
14416.54801027332
 31
0.0
  0
LINE
  5
A9
330
17
100
AcDbEntity
  8
presilha
 62
7
370
25
100
AcDbLine
 10
3629.774251725715
 20
14411.021343606651
 30
0.0
 11
3629.7738872213617
 21
14415.928010273317
 31
0.0
  0
LINE
  5
AA
330
17
100
AcDbEntity
  8
presilha
 62
7
370
25
100
AcDbLine
 10
3631.7738872213617
 20
14417.308010273318
 30
0.0
 11
3629.533887221342
 21
14417.308010273318
 31
0.0
  0
LINE
  5
AB
330
17
100
AcDbEntity
  8
presilha
 62
7
370
25
100
AcDbLine
 10
3631.7738872213617
 20
14416.308010273318
 30
0.0
 11
3630.1538872213623
 21
14416.308010273318
 31
0.0
  0
LINE
  5
AC
330
17
100
AcDbEntity
  8
presilha
 62
7
370
25
100
AcDbLine
 10
3623.773887221363
 20
14411.974676939986
 30
0.0
 11
3627.773887221363
 21
14411.974676939986
 31
0.0
  0
LINE
  5
AD
330
17
100
AcDbEntity
  8
presilha
 62
7
370
25
100
AcDbLine
 10
3627.773887221363
 20
14411.974676939986
 30
0.0
 11
3627.773887221363
 21
14403.30801027332
 31
0.0
  0
LINE
  5
AE
330
17
100
AcDbEntity
  8
presilha
 62
7
370
25
100
AcDbLine
 10
3627.773887221363
 20
14403.30801027332
 30
0.0
 11
3623.773887221363
 21
14403.30801027332
 31
0.0
  0
LINE
  5
AF
330
17
100
AcDbEntity
  8
presilha
 62
7
370
25
100
AcDbLine
 10
3623.773887221363
 20
14411.974676939986
 30
0.0
 11
3623.773887221363
 21
14403.30801027332
 31
0.0
  0
LINE
  5
B0
330
17
100
AcDbEntity
  8
presilha
 62
7
370
25
100
AcDbLine
 10
3730.5086499947993
 20
14410.64134360665
 30
0.0
 11
3730.5086499947993
 21
14406.041503606666
 31
0.0
  0
LINE
  5
B1
330
17
100
AcDbEntity
  8
presilha
 62
7
370
25
100
AcDbLine
 10
3730.5086499947993
 20
14406.041503606666
 30
0.0
 11
3750.5090144991514
 21
14406.041503606659
 31
0.0
  0
LINE
  5
B2
330
17
100
AcDbEntity
  8
presilha
 62
7
370
25
100
AcDbLine
 10
3751.5090144991514
 20
14413.641343606652
 30
0.0
 11
3750.5090144991514
 21
14413.641343606652
 31
0.0
  0
LINE
  5
B3
330
17
100
AcDbEntity
  8
presilha
 62
7
370
25
100
AcDbLine
 10
3750.5090144991514
 20
14413.641343606652
 30
0.0
 11
3750.5090144991514
 21
14401.641343606652
 31
0.0
  0
LINE
  5
B4
330
17
100
AcDbEntity
  8
presilha
 62
7
370
25
100
AcDbLine
 10
3750.5090144991514
 20
14401.641343606652
 30
0.0
 11
3751.5090144991514
 21
14401.641343606652
 31
0.0
  0
LINE
  5
B5
330
17
100
AcDbEntity
  8
presilha
 62
7
370
25
100
AcDbLine
 10
3751.5090144991514
 20
14401.641343606652
 30
0.0
 11
3751.5090144991514
 21
14413.641343606652
 31
0.0
  0
LINE
  5
B6
330
17
100
AcDbEntity
  8
presilha
 62
7
370
25
100
AcDbLine
 10
3747.509014499153
 20
14417.308010273318
 30
0.0
 11
3747.509014499153
 21
14416.308010273318
 31
0.0
  0
LINE
  5
B7
330
17
100
AcDbEntity
  8
presilha
 62
7
370
25
100
AcDbLine
 10
3730.5086499947993
 20
14410.64134360665
 30
0.0
 11
3749.1286499947987
 21
14410.64134360665
 31
0.0
  0
LINE
  5
B8
330
17
100
AcDbEntity
  8
presilha
 62
7
370
25
100
AcDbLine
 10
3750.5086499947993
 20
14410.40134360665
 30
0.0
 11
3750.509014499153
 21
14416.54801027332
 31
0.0
  0
LINE
  5
B9
330
17
100
AcDbEntity
  8
presilha
 62
7
370
25
100
AcDbLine
 10
3749.5086499947997
 20
14411.021343606651
 30
0.0
 11
3749.509014499153
 21
14415.928010273317
 31
0.0
  0
LINE
  5
BA
330
17
100
AcDbEntity
  8
presilha
 62
7
370
25
100
AcDbLine
 10
3747.509014499153
 20
14417.308010273318
 30
0.0
 11
3749.749014499173
 21
14417.308010273318
 31
0.0
  0
LINE
  5
BB
330
17
100
AcDbEntity
  8
presilha
 62
7
370
25
100
AcDbLine
 10
3747.509014499153
 20
14416.308010273318
 30
0.0
 11
3749.1290144991526
 21
14416.308010273318
 31
0.0
  0
LINE
  5
BC
330
17
100
AcDbEntity
  8
presilha
 62
7
370
25
100
AcDbLine
 10
3755.509014499152
 20
14411.974676939986
 30
0.0
 11
3751.509014499152
 21
14411.974676939986
 31
0.0
  0
LINE
  5
BD
330
17
100
AcDbEntity
  8
presilha
 62
7
370
25
100
AcDbLine
 10
3751.509014499152
 20
14411.974676939986
 30
0.0
 11
3751.509014499152
 21
14403.30801027332
 31
0.0
  0
LINE
  5
BE
330
17
100
AcDbEntity
  8
presilha
 62
7
370
25
100
AcDbLine
 10
3751.509014499152
 20
14403.30801027332
 30
0.0
 11
3755.509014499152
 21
14403.30801027332
 31
0.0
  0
LINE
  5
BF
330
17
100
AcDbEntity
  8
presilha
 62
7
370
25
100
AcDbLine
 10
3755.509014499152
 20
14411.974676939986
 30
0.0
 11
3755.509014499152
 21
14403.30801027332
 31
0.0
  0
LINE
  5
C0
330
17
100
AcDbEntity
  8
0
 62
7
370
25
100
AcDbLine
 10
3622.641450860228
 20
14447.24473446824
 30
0.0
 11
3622.641450860228
 21
14435.24473446824
 31
0.0
  0
LINE
  5
C1
330
17
100
AcDbEntity
  8
0
 62
7
370
25
100
AcDbLine
 10
3758.641450860257
 20
14444.24473446825
 30
0.0
 11
3758.641450860257
 21
14438.24473446825
 31
0.0
  0
LINE
  5
C2
330
17
100
AcDbEntity
  8
0
 62
7
370
25
100
AcDbLine
 10
3756.641450860258
 20
14447.24473446825
 30
0.0
 11
3756.641450860258
 21
14435.24473446825
 31
0.0
  0
LINE
  5
C3
330
17
100
AcDbEntity
  8
0
 62
7
370
25
100
AcDbLine
 10
3756.641450860258
 20
14438.24473446825
 30
0.0
 11
3758.641450860257
 21
14438.24473446825
 31
0.0
  0
LINE
  5
C4
330
17
100
AcDbEntity
  8
0
 62
7
370
25
100
AcDbLine
 10
3622.641450860228
 20
14435.24473446824
 30
0.0
 11
3652.641450860229
 21
14435.24473446824
 31
0.0
  0
LINE
  5
C5
330
17
100
AcDbEntity
  8
0
 62
7
370
25
100
AcDbLine
 10
3726.641450860257
 20
14440.24473446825
 30
0.0
 11
3756.641450860258
 21
14440.24473446825
 31
0.0
  0
LINE
  5
C6
330
17
100
AcDbEntity
  8
0
 62
7
370
25
100
AcDbLine
 10
3726.641450860257
 20
14442.24473446825
 30
0.0
 11
3756.641450860258
 21
14442.24473446825
 31
0.0
  0
LINE
  5
C7
330
17
100
AcDbEntity
  8
TENSOR
 62
7
370
25
100
AcDbLine
 10
3761.641450860258
 20
14441.24473446824
 30
0.0
 11
3617.33815668213
 21
14441.24473446824
 31
0.0
  0
LINE
  5
C8
330
17
100
AcDbEntity
  8
0
 62
7
370
25
100
AcDbLine
 10
3756.641450860258
 20
14444.24473446825
 30
0.0
 11
3758.641450860257
 21
14444.24473446825
 31
0.0
  0
LINE
  5
C9
330
17
100
AcDbEntity
  8
0
 62
7
370
25
100
AcDbLine
 10
3652.641450860229
 20
14440.24473446824
 30
0.0
 11
3622.641450860228
 21
14440.24473446824
 31
0.0
  0
LINE
  5
CA
330
17
100
AcDbEntity
  8
0
 62
7
370
25
100
AcDbLine
 10
3652.641450860229
 20
14442.24473446824
 30
0.0
 11
3622.641450860228
 21
14442.24473446824
 31
0.0
  0
LINE
  5
CB
330
17
100
AcDbEntity
  8
0
 62
7
370
25
100
AcDbLine
 10
3622.641450860228
 20
14447.24473446824
 30
0.0
 11
3652.641450860229
 21
14447.24473446824
 31
0.0
  0
LINE
  5
CC
330
17
100
AcDbEntity
  8
0
 62
7
370
25
100
AcDbLine
 10
3756.641450860258
 20
14435.24473446825
 30
0.0
 11
3726.641450860257
 21
14435.24473446825
 31
0.0
  0
LINE
  5
CD
330
17
100
AcDbEntity
  8
0
 62
7
370
25
100
AcDbLine
 10
3756.641450860258
 20
14447.24473446825
 30
0.0
 11
3726.641450860257
 21
14447.24473446825
 31
0.0
  0
LINE
  5
CE
330
17
100
AcDbEntity
  8
0
 62
7
370
25
100
AcDbLine
 10
3620.641450860229
 20
14444.24473446824
 30
0.0
 11
3620.641450860229
 21
14438.24473446824
 31
0.0
  0
LINE
  5
CF
330
17
100
AcDbEntity
  8
0
 62
7
370
25
100
AcDbLine
 10
3622.641450860228
 20
14438.24473446824
 30
0.0
 11
3620.641450860229
 21
14438.24473446824
 31
0.0
  0
LINE
  5
D0
330
17
100
AcDbEntity
  8
0
 62
7
370
25
100
AcDbLine
 10
3620.641450860229
 20
14444.24473446824
 30
0.0
 11
3622.641450860228
 21
14444.24473446824
 31
0.0
  0
LINE
  5
D1
330
17
100
AcDbEntity
  8
SARR_2.2x7
 62
7
370
25
100
AcDbLine
 10
3587.742733692998
 20
14042.8860829171
 30
0.0
 11
3633.742733692998
 21
14042.8860829171
 31
0.0
  0
LINE
  5
D2
330
17
100
AcDbEntity
  8
SARR_2.2x7
 62
7
370
25
100
AcDbLine
 10
3633.742733692998
 20
14042.8860829171
 30
0.0
 11
3740.742733692998
 21
14042.8860829171
 31
0.0
  0
LINE
  5
D3
330
17
100
AcDbEntity
  8
SARR_2.2x7
 62
7
370
25
100
AcDbLine
 10
3579.742733692998
 20
14015.0860829171
 30
0.0
 11
3579.742733692998
 21
14045.0860829171
 31
0.0
  0
LINE
  5
D4
330
17
100
AcDbEntity
  8
SARR_2.2x7
 62
7
370
25
100
AcDbLine
 10
3748.742733692998
 20
14015.0860829171
 30
0.0
 11
3748.742733692998
 21
14045.0860829171
 31
0.0
  0
LINE
  5
D5
330
17
100
AcDbEntity
  8
SARR_3.5x7
 62
7
370
25
100
AcDbLine
 10
3740.742733692998
 20
14045.08608291715
 30
0.0
 11
3740.74273369291
 21
14015.0860829171
 31
0.0
  0
LINE
  5
D6
330
17
100
AcDbEntity
  8
SARR_3.5x7
 62
7
370
25
100
AcDbLine
 10
3737.242733692998
 20
14042.88608291715
 30
0.0
 11
3737.242733692969
 21
14015.0860829171
 31
0.0
  0
LINE
  5
D7
330
17
100
AcDbEntity
  8
SARR_3.5x7
 62
7
370
25
100
AcDbLine
 10
3637.242733693027
 20
14042.88608291715
 30
0.0
 11
3637.242733693057
 21
14015.0860829171
 31
0.0
  0
LINE
  5
D8
330
17
100
AcDbEntity
  8
SARR_3.5x7
 62
7
370
25
100
AcDbLine
 10
3630.24273369294
 20
14042.88608291721
 30
0.0
 11
3630.242733692911
 21
14015.0860829171
 31
0.0
  0
LINE
  5
D9
330
17
100
AcDbEntity
  8
SARR_3.5x7
 62
7
370
25
100
AcDbLine
 10
3587.742733692998
 20
14045.08608291711
 30
0.0
 11
3587.742733692998
 21
14015.0860829171
 31
0.0
  0
LINE
  5
DA
330
17
100
AcDbEntity
  8
SARR_3.5x7
 62
7
370
25
100
AcDbLine
 10
3591.242733692998
 20
14042.88608291712
 30
0.0
 11
3591.242733692998
 21
14015.0860829171
 31
0.0
  0
LINE
  5
DB
330
17
100
AcDbEntity
  8
SARR_3.5x7
 62
7
370
25
100
AcDbLine
 10
3633.742733692998
 20
14042.8860829171
 30
0.0
 11
3633.742733692998
 21
14015.08608291712
 31
0.0
  0
LINE
  5
DC
330
17
100
AcDbEntity
  8
SARR_3.5x7
 62
7
370
25
100
AcDbLine
 10
3630.242733692911
 20
14015.0860829171
 30
0.0
 11
3633.742733692998
 21
14015.0860829171
 31
0.0
  0
LINE
  5
DD
330
17
100
AcDbEntity
  8
SARR_3.5x7
 62
7
370
25
100
AcDbLine
 10
3633.742733692998
 20
14015.0860829171
 30
0.0
 11
3637.242733693057
 21
14015.0860829171
 31
0.0
  0
LINE
  5
DE
330
17
100
AcDbEntity
  8
SARR_3.5x7
 62
7
370
25
100
AcDbLine
 10
3737.242733692969
 20
14015.0860829171
 30
0.0
 11
3740.74273369291
 21
14015.0860829171
 31
0.0
  0
LINE
  5
DF
330
17
100
AcDbEntity
  8
SARR_3.5x7
 62
7
370
25
100
AcDbLine
 10
3587.742733692998
 20
14015.0860829171
 30
0.0
 11
3591.242733692998
 21
14015.0860829171
 31
0.0
  0
LINE
  5
E0
330
17
100
AcDbEntity
  8
Painéis
 62
7
370
25
100
AcDbLine
 10
3572.742733692998
 20
14045.0860829171
 30
0.0
 11
3755.742733692998
 21
14045.0860829171
 31
0.0
  0
LINE
  5
E1
330
17
100
AcDbEntity
  8
Painéis
 62
7
370
25
100
AcDbLine
 10
3572.742733692998
 20
14015.0860829171
 30
0.0
 11
3755.742733692998
 21
14015.0860829171
 31
0.0
  0
LINE
  5
E2
330
17
100
AcDbEntity
  8
Painéis
 62
7
370
25
100
AcDbLine
 10
3572.742733692998
 20
14015.0860829171
 30
0.0
 11
3572.742733692998
 21
14045.0860829171
 31
0.0
  0
LINE
  5
E3
330
17
100
AcDbEntity
  8
Painéis
 62
7
370
25
100
AcDbLine
 10
3633.742733692998
 20
14015.0860829171
 30
0.0
 11
3633.742733692998
 21
14045.0860829171
 31
0.0
  0
LINE
  5
E4
330
17
100
AcDbEntity
  8
Painéis
 62
7
370
25
100
AcDbLine
 10
3755.742733692998
 20
14015.0860829171
 30
0.0
 11
3755.742733692998
 21
14045.0860829171
 31
0.0
  0
LINE
  5
E5
330
17
100
AcDbEntity
  8
SARR_2.2x7
 62
7
370
25
100
AcDbLine
 10
3588.397293901572
 20
14256.1519063992
 30
0.0
 11
3695.397293901571
 21
14256.1519063992
 31
0.0
  0
LINE
  5
E6
330
17
100
AcDbEntity
  8
SARR_2.2x7
 62
7
370
25
100
AcDbLine
 10
3695.397293901571
 20
14256.1519063992
 30
0.0
 11
3741.397293901572
 21
14256.1519063992
 31
0.0
  0
LINE
  5
E7
330
17
100
AcDbEntity
  8
SARR_2.2x7
 62
7
370
25
100
AcDbLine
 10
3580.397293901572
 20
14214.3519063992
 30
0.0
 11
3580.397293901572
 21
14258.3519063992
 31
0.0
  0
LINE
  5
E8
330
17
100
AcDbEntity
  8
SARR_2.2x7
 62
7
370
25
100
AcDbLine
 10
3749.397293901572
 20
14214.3519063992
 30
0.0
 11
3749.397293901572
 21
14258.3519063992
 31
0.0
  0
LINE
  5
E9
330
17
100
AcDbEntity
  8
SARR_3.5x7
 62
7
370
25
100
AcDbLine
 10
3741.397293901572
 20
14258.35190639924
 30
0.0
 11
3741.397293901484
 21
14214.3519063992
 31
0.0
  0
LINE
  5
EA
330
17
100
AcDbEntity
  8
SARR_3.5x7
 62
7
370
25
100
AcDbLine
 10
3737.897293901571
 20
14256.15190639925
 30
0.0
 11
3737.897293901542
 21
14214.3519063992
 31
0.0
  0
LINE
  5
EB
330
17
100
AcDbEntity
  8
SARR_3.5x7
 62
7
370
25
100
AcDbLine
 10
3698.8972939016
 20
14256.15190639925
 30
0.0
 11
3698.897293901629
 21
14214.3519063992
 31
0.0
  0
LINE
  5
EC
330
17
100
AcDbEntity
  8
SARR_3.5x7
 62
7
370
25
100
AcDbLine
 10
3691.897293901513
 20
14256.15190639931
 30
0.0
 11
3691.897293901484
 21
14214.3519063992
 31
0.0
  0
LINE
  5
ED
330
17
100
AcDbEntity
  8
SARR_3.5x7
 62
7
370
25
100
AcDbLine
 10
3588.397293901572
 20
14258.35190639921
 30
0.0
 11
3588.397293901572
 21
14214.3519063992
 31
0.0
  0
LINE
  5
EE
330
17
100
AcDbEntity
  8
SARR_3.5x7
 62
7
370
25
100
AcDbLine
 10
3591.897293901571
 20
14256.15190639922
 30
0.0
 11
3591.897293901571
 21
14214.3519063992
 31
0.0
  0
LINE
  5
EF
330
17
100
AcDbEntity
  8
SARR_3.5x7
 62
7
370
25
100
AcDbLine
 10
3695.397293901571
 20
14256.1519063992
 30
0.0
 11
3695.397293901571
 21
14214.35190639922
 31
0.0
  0
LINE
  5
F0
330
17
100
AcDbEntity
  8
SARR_3.5x7
 62
7
370
25
100
AcDbLine
 10
3691.897293901484
 20
14214.3519063992
 30
0.0
 11
3695.397293901571
 21
14214.3519063992
 31
0.0
  0
LINE
  5
F1
330
17
100
AcDbEntity
  8
SARR_3.5x7
 62
7
370
25
100
AcDbLine
 10
3695.397293901571
 20
14214.3519063992
 30
0.0
 11
3698.897293901629
 21
14214.3519063992
 31
0.0
  0
LINE
  5
F2
330
17
100
AcDbEntity
  8
SARR_3.5x7
 62
7
370
25
100
AcDbLine
 10
3737.897293901542
 20
14214.3519063992
 30
0.0
 11
3741.397293901484
 21
14214.3519063992
 31
0.0
  0
LINE
  5
F3
330
17
100
AcDbEntity
  8
SARR_3.5x7
 62
7
370
25
100
AcDbLine
 10
3588.397293901572
 20
14214.3519063992
 30
0.0
 11
3591.897293901571
 21
14214.3519063992
 31
0.0
  0
LINE
  5
F4
330
17
100
AcDbEntity
  8
Painéis
 62
7
370
25
100
AcDbLine
 10
3573.397293901571
 20
14258.3519063992
 30
0.0
 11
3756.397293901571
 21
14258.3519063992
 31
0.0
  0
LINE
  5
F5
330
17
100
AcDbEntity
  8
Painéis
 62
7
370
25
100
AcDbLine
 10
3573.397293901571
 20
14214.3519063992
 30
0.0
 11
3756.397293901571
 21
14214.3519063992
 31
0.0
  0
LINE
  5
F6
330
17
100
AcDbEntity
  8
Painéis
 62
7
370
25
100
AcDbLine
 10
3573.397293901571
 20
14214.3519063992
 30
0.0
 11
3573.397293901571
 21
14258.3519063992
 31
0.0
  0
LINE
  5
F7
330
17
100
AcDbEntity
  8
Painéis
 62
7
370
25
100
AcDbLine
 10
3695.397293901571
 20
14214.3519063992
 30
0.0
 11
3695.397293901571
 21
14258.3519063992
 31
0.0
  0
LINE
  5
F8
330
17
100
AcDbEntity
  8
Painéis
 62
7
370
25
100
AcDbLine
 10
3756.397293901571
 20
14214.3519063992
 30
0.0
 11
3756.397293901571
 21
14258.3519063992
 31
0.0
  0
LINE
  5
F9
330
17
100
AcDbEntity
  8
SARR_3.5x7
 62
7
370
25
100
AcDbLine
 10
3608.992733692968
 20
14042.8860829171
 30
0.0
 11
3608.992733692968
 21
14015.08608291709
 31
0.0
  0
LINE
  5
FA
330
17
100
AcDbEntity
  8
SARR_3.5x7
 62
7
370
25
100
AcDbLine
 10
3612.492733692969
 20
14042.8860829171
 30
0.0
 11
3612.492733692969
 21
14015.08608291709
 31
0.0
  0
LINE
  5
FB
330
17
100
AcDbEntity
  8
COTA
 62
7
370
25
100
AcDbLine
 10
3755.742733692998
 20
14045.0860829171
 30
0.0
 11
3755.742733692998
 21
14059.0860829171
 31
0.0
  0
LINE
  5
FC
330
17
100
AcDbEntity
  8
COTA
 62
7
370
25
100
AcDbLine
 10
3755.742733692998
 20
14059.0860829171
 30
0.0
 11
3572.742733692998
 21
14059.0860829171
 31
0.0
  0
LINE
  5
FD
330
17
100
AcDbEntity
  8
COTA
 62
7
370
25
100
AcDbLine
 10
3572.742733692998
 20
14059.0860829171
 30
0.0
 11
3572.742733692998
 21
14045.0860829171
 31
0.0
  0
LINE
  5
FE
330
17
100
AcDbEntity
  8
SARR_3.5x7
 62
7
370
25
100
AcDbLine
 10
3716.647293901542
 20
14256.1519063992
 30
0.0
 11
3716.647293901542
 21
14214.3519063992
 31
0.0
  0
LINE
  5
FF
330
17
100
AcDbEntity
  8
SARR_3.5x7
 62
7
370
25
100
AcDbLine
 10
3720.147293901542
 20
14256.1519063992
 30
0.0
 11
3720.147293901541
 21
14214.3519063992
 31
0.0
  0
LINE
  5
100
330
17
100
AcDbEntity
  8
COTA
 62
7
370
25
100
AcDbLine
 10
3888.89602342881
 20
14624.27467693994
 30
0.0
 11
3888.89602342881
 21
13853.51819035084
 31
0.0
  0
LWPOLYLINE
  5
101
330
17
100
AcDbEntity
  8
Painéis
 62
7
370
25
100
AcDbPolyline
 90
4
 70
1
 10
4114.871944103273
 20
14471.27467693992
 10
4118.871944103274
 20
14471.27467693992
 10
4118.871944103274
 20
14411.27467693994
 10
4114.871944103273
 20
14411.27467693994
  0
LWPOLYLINE
  5
102
330
17
100
AcDbEntity
  8
Madeira
 62
7
370
25
100
AcDbPolyline
 90
4
 70
1
 10
4114.871944103273
 20
14466.87467693992
 10
4114.871944103273
 20
14471.27467693992
 10
4100.871944103274
 20
14471.27467693992
 10
4100.871944103274
 20
14466.87467693992
  0
LWPOLYLINE
  5
103
330
17
100
AcDbEntity
  8
Madeira
 62
7
370
25
100
AcDbPolyline
 90
4
 70
1
 10
4080.871944103273
 20
14411.27467693994
 10
4080.871944103273
 20
14415.67467693993
 10
4100.871944103274
 20
14415.67467693993
 10
4100.871944103274
 20
14411.27467693994
  0
LWPOLYLINE
  5
104
330
17
100
AcDbEntity
  8
Madeira
 62
7
370
25
100
AcDbPolyline
 90
4
 70
1
 10
4114.871944103273
 20
14471.27467693992
 10
4100.871944103274
 20
14471.27467693992
 10
4100.871944103274
 20
14411.27467693994
 10
4114.871944103273
 20
14411.27467693994
  0
LWPOLYLINE
  5
105
330
17
100
AcDbEntity
  8
Madeira
 62
7
370
25
100
AcDbPolyline
 90
4
 70
1
 10
4156.871944103273
 20
14411.27467693994
 10
4156.871944103273
 20
14415.67467693993
 10
4142.871944103273
 20
14415.67467693993
 10
4142.871944103273
 20
14411.27467693994
  0
LWPOLYLINE
  5
106
330
17
100
AcDbEntity
  8
Painéis
 62
7
370
25
100
AcDbPolyline
 90
4
 70
1
 10
4156.871944103273
 20
14415.67467693993
 10
4156.871944103273
 20
14419.27467693994
 10
4118.871944103274
 20
14419.27467693994
 10
4118.871944103274
 20
14415.67467693993
  0
LWPOLYLINE
  5
107
330
17
100
AcDbEntity
  8
Madeira
 62
7
370
25
100
AcDbPolyline
 90
4
 70
1
 10
4118.871944103274
 20
14411.27467693994
 10
4118.871944103274
 20
14415.67467693993
 10
4132.871944103274
 20
14415.67467693993
 10
4132.871944103274
 20
14411.27467693994
  0
LWPOLYLINE
  5
108
330
17
100
AcDbEntity
  8
Painéis
 62
7
370
25
100
AcDbPolyline
 90
4
 70
1
 10
4160.871944103285
 20
14499.27467693994
 10
4156.871944103285
 20
14499.27467693994
 10
4156.871944103273
 20
14411.27467693994
 10
4160.871944103273
 20
14411.27467693994
  0
LWPOLYLINE
  5
109
330
17
100
AcDbEntity
  8
Madeira
 62
7
370
25
100
AcDbPolyline
 90
4
 70
1
 10
4160.871944103285
 20
14494.87467693994
 10
4160.871944103285
 20
14499.27467693994
 10
4174.871944103285
 20
14499.27467693994
 10
4174.871944103285
 20
14494.87467693994
  0
LWPOLYLINE
  5
10A
330
17
100
AcDbEntity
  8
Madeira
 62
7
370
25
100
AcDbPolyline
 90
4
 70
1
 10
4194.871944103273
 20
14411.27467693994
 10
4194.871944103273
 20
14415.67467693993
 10
4174.871944103273
 20
14415.67467693993
 10
4174.871944103273
 20
14411.27467693994
  0
LWPOLYLINE
  5
10B
330
17
100
AcDbEntity
  8
Madeira
 62
7
370
25
100
AcDbPolyline
 90
4
 70
1
 10
4160.871944103285
 20
14499.27467693994
 10
4174.871944103285
 20
14499.27467693994
 10
4174.871944103273
 20
14411.27467693994
 10
4160.871944103273
 20
14411.27467693994
  0
LWPOLYLINE
  5
10C
330
17
100
AcDbEntity
  8
Painéis
 62
7
370
25
100
AcDbPolyline
 90
4
 70
1
 10
4118.871944103274
 20
14471.27467693992
 10
4118.871944103274
 20
14475.27467693992
 10
4063.271944103297
 20
14475.27467693991
 10
4063.271944103297
 20
14471.27467693991
  0
LWPOLYLINE
  5
10D
330
17
100
AcDbEntity
  8
CONCRETO
 62
7
370
25
100
AcDbPolyline
 90
8
 70
1
 10
4063.271944103297
 20
14475.27467693991
 10
4063.271944103297
 20
14499.27467693994
 10
4156.871944103282
 20
14499.27467693994
 10
4156.871944103282
 20
14471.27467693992
 10
4156.871944103273
 20
14471.27467693992
 10
4156.871944103214
 20
14419.27467693994
 10
4118.871944103274
 20
14419.27467693994
 10
4118.871944103274
 20
14475.27467693992
  0
LWPOLYLINE
  5
10E
330
17
100
AcDbEntity
  8
barrote
 62
7
370
25
100
AcDbPolyline
 90
4
 70
1
 10
4047.416746431379
 20
14391.27467693998
 10
4242.599686941074
 20
14391.27467693998
 10
4242.599686941074
 20
14411.27467693994
 10
4047.416746431379
 20
14411.27467693994
  0
LWPOLYLINE
  5
10F
330
17
100
AcDbEntity
  8
SCO-___-LAJ
 62
7
370
25
100
AcDbPolyline
 90
4
 70
1
 10
4056.419013846841
 20
14409.94126360661
 10
4223.724874359701
 20
14409.94126360661
 10
4223.724874359701
 20
14406.74158360663
 10
4056.419013846841
 20
14406.74158360664
  0
LWPOLYLINE
  5
110
330
17
100
AcDbEntity
  8
Painéis
 62
7
370
25
100
AcDbPolyline
 90
4
 70
1
 10
3666.641450860258
 20
14471.27467693992
 10
3670.641450860258
 20
14471.27467693992
 10
3670.641450860258
 20
14411.27467693995
 10
3666.641450860258
 20
14411.27467693995
  0
LWPOLYLINE
  5
111
330
17
100
AcDbEntity
  8
Madeira
 62
7
370
25
100
AcDbPolyline
 90
4
 70
1
 10
3666.641450860258
 20
14466.87467693992
 10
3666.641450860258
 20
14471.27467693992
 10
3652.641450860258
 20
14471.27467693992
 10
3652.641450860258
 20
14466.87467693992
  0
LWPOLYLINE
  5
112
330
17
100
AcDbEntity
  8
Madeira
 62
7
370
25
100
AcDbPolyline
 90
4
 70
1
 10
3632.641450860258
 20
14411.27467693995
 10
3632.641450860258
 20
14415.67467693994
 10
3652.641450860258
 20
14415.67467693994
 10
3652.641450860258
 20
14411.27467693995
  0
LWPOLYLINE
  5
113
330
17
100
AcDbEntity
  8
Madeira
 62
7
370
25
100
AcDbPolyline
 90
4
 70
1
 10
3666.641450860258
 20
14471.27467693992
 10
3652.641450860258
 20
14471.27467693992
 10
3652.641450860258
 20
14411.27467693995
 10
3666.641450860258
 20
14411.27467693995
  0
LWPOLYLINE
  5
114
330
17
100
AcDbEntity
  8
Madeira
 62
7
370
25
100
AcDbPolyline
 90
4
 70
1
 10
3708.641450860258
 20
14411.27467693995
 10
3708.641450860258
 20
14415.67467693994
 10
3694.641450860257
 20
14415.67467693994
 10
3694.641450860257
 20
14411.27467693995
  0
LWPOLYLINE
  5
115
330
17
100
AcDbEntity
  8
Painéis
 62
7
370
25
100
AcDbPolyline
 90
4
 70
1
 10
3708.641450860258
 20
14415.67467693994
 10
3708.641450860258
 20
14419.27467693995
 10
3670.641450860258
 20
14419.27467693995
 10
3670.641450860258
 20
14415.67467693994
  0
LWPOLYLINE
  5
116
330
17
100
AcDbEntity
  8
Madeira
 62
7
370
25
100
AcDbPolyline
 90
4
 70
1
 10
3670.641450860258
 20
14411.27467693995
 10
3670.641450860258
 20
14415.67467693994
 10
3684.641450860258
 20
14415.67467693994
 10
3684.641450860258
 20
14411.27467693995
  0
LWPOLYLINE
  5
117
330
17
100
AcDbEntity
  8
Painéis
 62
7
370
25
100
AcDbPolyline
 90
4
 70
1
 10
3712.64145086027
 20
14499.27467693995
 10
3708.64145086027
 20
14499.27467693995
 10
3708.641450860258
 20
14411.27467693995
 10
3712.641450860257
 20
14411.27467693995
  0
LWPOLYLINE
  5
118
330
17
100
AcDbEntity
  8
Madeira
 62
7
370
25
100
AcDbPolyline
 90
4
 70
1
 10
3712.64145086027
 20
14494.87467693995
 10
3712.64145086027
 20
14499.27467693995
 10
3726.641450860269
 20
14499.27467693995
 10
3726.641450860269
 20
14494.87467693995
  0
LWPOLYLINE
  5
119
330
17
100
AcDbEntity
  8
Madeira
 62
7
370
25
100
AcDbPolyline
 90
4
 70
1
 10
3746.641450860258
 20
14411.27467693995
 10
3746.641450860258
 20
14415.67467693994
 10
3726.641450860257
 20
14415.67467693994
 10
3726.641450860257
 20
14411.27467693995
  0
LWPOLYLINE
  5
11A
330
17
100
AcDbEntity
  8
Madeira
 62
7
370
25
100
AcDbPolyline
 90
4
 70
1
 10
3712.64145086027
 20
14499.27467693995
 10
3726.641450860269
 20
14499.27467693995
 10
3726.641450860257
 20
14411.27467693995
 10
3712.641450860257
 20
14411.27467693995
  0
LWPOLYLINE
  5
11B
330
17
100
AcDbEntity
  8
Painéis
 62
7
370
25
100
AcDbPolyline
 90
4
 70
1
 10
3670.641450860258
 20
14471.27467693992
 10
3670.641450860258
 20
14475.27467693993
 10
3615.041450860281
 20
14475.27467693992
 10
3615.041450860281
 20
14471.27467693992
  0
LWPOLYLINE
  5
11C
330
17
100
AcDbEntity
  8
CONCRETO
 62
7
370
25
100
AcDbPolyline
 90
8
 70
1
 10
3615.041450860281
 20
14475.27467693992
 10
3615.041450860281
 20
14499.27467693995
 10
3708.641450860266
 20
14499.27467693995
 10
3708.641450860266
 20
14471.27467693993
 10
3708.641450860258
 20
14471.27467693993
 10
3708.641450860199
 20
14419.27467693995
 10
3670.641450860258
 20
14419.27467693995
 10
3670.641450860258
 20
14475.27467693993
  0
LWPOLYLINE
  5
11D
330
17
100
AcDbEntity
  8
barrote
 62
7
370
25
100
AcDbPolyline
 90
4
 70
1
 10
3599.186253188364
 20
14391.27467693999
 10
3794.369193698058
 20
14391.27467693999
 10
3794.369193698058
 20
14411.27467693995
 10
3599.186253188364
 20
14411.27467693995
  0
LWPOLYLINE
  5
11E
330
17
100
AcDbEntity
  8
SCO-___-LAJ
 62
7
370
25
100
AcDbPolyline
 90
4
 70
1
 10
3608.188520603825
 20
14409.94126360662
 10
3775.494381116685
 20
14409.94126360661
 10
3775.494381116685
 20
14406.74158360664
 10
3608.188520603825
 20
14406.74158360665
  0
TEXT
  5
11F
330
17
100
AcDbEntity
  8
detalhes
 62
7
370
25
100
AcDbText
 10
4165.586427279311
 20
14429.46434846922
 30
0.0
 40
9.600000000000001
  1
b
100
AcDbText
  0
TEXT
  5
120
330
17
100
AcDbEntity
  8
detalhes
 62
7
370
25
100
AcDbText
 10
4103.042768633575
 20
14429.4754059148
 30
0.0
 40
9.600000000000001
  1
a
100
AcDbText
  0
TEXT
  5
121
330
17
100
AcDbEntity
  8
detalhes
 62
7
370
25
100
AcDbText
 10
4129.472209718719
 20
14421.51043045978
 30
0.0
 40
9.600000000000001
  1
c
100
AcDbText
  0
TEXT
  5
122
330
17
100
AcDbEntity
  8
5
 62
7
370
25
100
AcDbText
 10
4022.200338582206
 20
14135.10996770179
 30
0.0
 40
12.0
  1
V124
100
AcDbText
  0
TEXT
  5
123
330
17
100
AcDbEntity
  8
5
 62
7
370
25
100
AcDbText
 10
4165.999245201867
 20
14135.21577858076
 30
0.0
 40
12.0
  1
V125
100
AcDbText
  0
TEXT
  5
124
330
17
100
AcDbEntity
  8
texto
 62
7
370
25
100
AcDbText
 10
4087.201811076951
 20
14031.90145901003
 30
0.0
 40
8.0
  1
{\Q19;\C256;5 1/2pont}
100
AcDbText
  0
TEXT
  5
125
330
17
100
AcDbEntity
  8
5
 62
7
370
25
100
AcDbText
 10
4018.127634833372
 20
13927.12030973517
 30
0.0
 40
12.0
  1
V125
100
AcDbText
  0
TEXT
  5
126
330
17
100
AcDbEntity
  8
5
 62
7
370
25
100
AcDbText
 10
4168.041522145688
 20
13927.22612061414
 30
0.0
 40
12.0
  1
V124
100
AcDbText
  0
TEXT
  5
127
330
17
100
AcDbEntity
  8
Texto Seção
 62
7
370
25
100
AcDbText
 10
4019.013759249432
 20
14265.83719968476
 30
0.0
 40
13.0
  1
V111.A
100
AcDbText
  0
TEXT
  5
128
330
17
100
AcDbEntity
  8
Texto Seção
 62
7
370
25
100
AcDbText
 10
4019.627787144558
 20
14065.35151740362
 30
0.0
 40
13.0
  1
V111.B
100
AcDbText
  0
TEXT
  5
129
330
17
100
AcDbEntity
  8
texto
 62
7
370
25
100
AcDbText
 10
4138.672282064073
 20
14227.94958351281
 30
0.0
 40
8.0
  1
{\Q19;\C256;5 1/2pont}
100
AcDbText
  0
TEXT
  5
12A
330
17
100
AcDbEntity
  8
detalhes
 62
7
370
25
100
AcDbText
 10
3717.355934036296
 20
14429.46434846923
 30
0.0
 40
9.600000000000001
  1
b
100
AcDbText
  0
TEXT
  5
12B
330
17
100
AcDbEntity
  8
detalhes
 62
7
370
25
100
AcDbText
 10
3654.81227539056
 20
14429.47540591481
 30
0.0
 40
9.600000000000001
  1
a
100
AcDbText
  0
TEXT
  5
12C
330
17
100
AcDbEntity
  8
detalhes
 62
7
370
25
100
AcDbText
 10
3681.241716475703
 20
14421.51043045979
 30
0.0
 40
9.600000000000001
  1
c
100
AcDbText
  0
TEXT
  5
12D
330
17
100
AcDbEntity
  8
5
 62
7
370
25
100
AcDbText
 10
3573.969845339191
 20
14130.41717135457
 30
0.0
 40
12.0
  1
V124
100
AcDbText
  0
TEXT
  5
12E
330
17
100
AcDbEntity
  8
5
 62
7
370
25
100
AcDbText
 10
3717.768751958851
 20
14130.52298223354
 30
0.0
 40
12.0
  1
P24
100
AcDbText
  0
TEXT
  5
12F
330
17
100
AcDbEntity
  8
texto
 62
7
370
25
100
AcDbText
 10
3638.971317833936
 20
14234.08822342658
 30
0.0
 40
8.0
  1
{\Q19;\C256;5 1/2pont}
100
AcDbText
  0
TEXT
  5
130
330
17
100
AcDbEntity
  8
5
 62
7
370
25
100
AcDbText
 10
3569.897141590356
 20
13937.09943380237
 30
0.0
 40
12.0
  1
P24
100
AcDbText
  0
TEXT
  5
131
330
17
100
AcDbEntity
  8
5
 62
7
370
25
100
AcDbText
 10
3719.811028902672
 20
13937.20524468133
 30
0.0
 40
12.0
  1
V124
100
AcDbText
  0
TEXT
  5
132
330
17
100
AcDbEntity
  8
Texto Seção
 62
7
370
25
100
AcDbText
 10
3570.783266006416
 20
14265.83719968477
 30
0.0
 40
13.0
  1
V109.A
100
AcDbText
  0
TEXT
  5
133
330
17
100
AcDbEntity
  8
Texto Seção
 62
7
370
25
100
AcDbText
 10
3571.397293901542
 20
14065.35151740363
 30
0.0
 40
13.0
  1
V109.B
100
AcDbText
  0
TEXT
  5
134
330
17
100
AcDbEntity
  8
texto
 62
7
370
25
100
AcDbText
 10
3690.441788821057
 20
14027.88086648064
 30
0.0
 40
8.0
  1
{\Q19;\C256;5 1/2pont}
100
AcDbText
  0
HATCH
  5
135
330
17
100
AcDbEntity
  8
Hachura
 62
7
100
AcDbHatch
 10
0.0
 20
0.0
 30
0.0
210
0.0
220
0.0
230
1.0
  2
SOLID
 70
1
 71
0
 91
1
 92
3
 72
0
 73
1
 93
8
 10
4114.871944103271
 20
14471.27467693992
 10
4118.871944103271
 20
14471.27467693992
 10
4118.871944103271
 20
14471.27467693992
 10
4118.871944103274
 20
14411.27467693994
 10
4118.871944103274
 20
14411.27467693994
 10
4114.871944103273
 20
14411.27467693994
 10
4114.871944103273
 20
14411.27467693994
 10
4114.871944103271
 20
14471.27467693992
 97
0
 75
1
 76
1
 98
0
  0
HATCH
  5
136
330
17
100
AcDbEntity
  8
Hachura
 62
7
100
AcDbHatch
 10
0.0
 20
0.0
 30
0.0
210
0.0
220
0.0
230
1.0
  2
SOLID
 70
1
 71
0
 91
1
 92
3
 72
0
 73
1
 93
8
 10
4114.871944103273
 20
14466.87467693992
 10
4114.871944103273
 20
14471.27467693992
 10
4114.871944103273
 20
14471.27467693992
 10
4100.871944103274
 20
14471.27467693992
 10
4100.871944103274
 20
14471.27467693992
 10
4100.871944103274
 20
14466.87467693992
 10
4100.871944103274
 20
14466.87467693992
 10
4114.871944103273
 20
14466.87467693992
 97
0
 75
1
 76
1
 98
0
  0
HATCH
  5
137
330
17
100
AcDbEntity
  8
Hachura
 62
7
100
AcDbHatch
 10
0.0
 20
0.0
 30
0.0
210
0.0
220
0.0
230
1.0
  2
SOLID
 70
1
 71
0
 91
1
 92
3
 72
0
 73
1
 93
8
 10
4080.871944103273
 20
14411.27467693994
 10
4080.871944103273
 20
14415.67467693993
 10
4080.871944103273
 20
14415.67467693993
 10
4100.871944103274
 20
14415.67467693993
 10
4100.871944103274
 20
14415.67467693993
 10
4100.871944103274
 20
14411.27467693994
 10
4100.871944103274
 20
14411.27467693994
 10
4080.871944103273
 20
14411.27467693994
 97
0
 75
1
 76
1
 98
0
  0
HATCH
  5
138
330
17
100
AcDbEntity
  8
Hachura
 62
7
100
AcDbHatch
 10
0.0
 20
0.0
 30
0.0
210
0.0
220
0.0
230
1.0
  2
SOLID
 70
1
 71
0
 91
1
 92
3
 72
0
 73
1
 93
8
 10
4156.871944103273
 20
14411.27467693994
 10
4156.871944103273
 20
14415.67467693993
 10
4156.871944103273
 20
14415.67467693993
 10
4142.871944103273
 20
14415.67467693993
 10
4142.871944103273
 20
14415.67467693993
 10
4142.871944103273
 20
14411.27467693994
 10
4142.871944103273
 20
14411.27467693994
 10
4156.871944103273
 20
14411.27467693994
 97
0
 75
1
 76
1
 98
0
  0
HATCH
  5
139
330
17
100
AcDbEntity
  8
Hachura
 62
7
100
AcDbHatch
 10
0.0
 20
0.0
 30
0.0
210
0.0
220
0.0
230
1.0
  2
SOLID
 70
1
 71
0
 91
1
 92
3
 72
0
 73
1
 93
8
 10
4156.871944103273
 20
14415.67467693993
 10
4156.871944103273
 20
14419.27467693994
 10
4156.871944103273
 20
14419.27467693994
 10
4118.871944103274
 20
14419.27467693994
 10
4118.871944103274
 20
14419.27467693994
 10
4118.871944103274
 20
14415.67467693993
 10
4118.871944103274
 20
14415.67467693993
 10
4156.871944103273
 20
14415.67467693993
 97
0
 75
1
 76
1
 98
0
  0
HATCH
  5
13A
330
17
100
AcDbEntity
  8
Hachura
 62
7
100
AcDbHatch
 10
0.0
 20
0.0
 30
0.0
210
0.0
220
0.0
230
1.0
  2
SOLID
 70
1
 71
0
 91
1
 92
3
 72
0
 73
1
 93
8
 10
4118.871944103274
 20
14411.27467693994
 10
4118.871944103274
 20
14415.67467693993
 10
4118.871944103274
 20
14415.67467693993
 10
4132.871944103274
 20
14415.67467693993
 10
4132.871944103274
 20
14415.67467693993
 10
4132.871944103274
 20
14411.27467693994
 10
4132.871944103274
 20
14411.27467693994
 10
4118.871944103274
 20
14411.27467693994
 97
0
 75
1
 76
1
 98
0
  0
HATCH
  5
13B
330
17
100
AcDbEntity
  8
Hachura
 62
7
100
AcDbHatch
 10
0.0
 20
0.0
 30
0.0
210
0.0
220
0.0
230
1.0
  2
SOLID
 70
1
 71
0
 91
1
 92
3
 72
0
 73
1
 93
8
 10
4160.871944103285
 20
14499.27467693994
 10
4156.871944103285
 20
14499.27467693994
 10
4156.871944103285
 20
14499.27467693994
 10
4156.871944103273
 20
14411.27467693994
 10
4156.871944103273
 20
14411.27467693994
 10
4160.871944103273
 20
14411.27467693994
 10
4160.871944103273
 20
14411.27467693994
 10
4160.871944103285
 20
14499.27467693994
 97
0
 75
1
 76
1
 98
0
  0
HATCH
  5
13C
330
17
100
AcDbEntity
  8
Hachura
 62
7
100
AcDbHatch
 10
0.0
 20
0.0
 30
0.0
210
0.0
220
0.0
230
1.0
  2
SOLID
 70
1
 71
0
 91
1
 92
3
 72
0
 73
1
 93
8
 10
4160.871944103285
 20
14494.87467693994
 10
4160.871944103285
 20
14499.27467693994
 10
4160.871944103285
 20
14499.27467693994
 10
4174.871944103285
 20
14499.27467693994
 10
4174.871944103285
 20
14499.27467693994
 10
4174.871944103285
 20
14494.87467693994
 10
4174.871944103285
 20
14494.87467693994
 10
4160.871944103285
 20
14494.87467693994
 97
0
 75
1
 76
1
 98
0
  0
HATCH
  5
13D
330
17
100
AcDbEntity
  8
Hachura
 62
7
100
AcDbHatch
 10
0.0
 20
0.0
 30
0.0
210
0.0
220
0.0
230
1.0
  2
SOLID
 70
1
 71
0
 91
1
 92
3
 72
0
 73
1
 93
8
 10
4194.871944103273
 20
14411.27467693994
 10
4194.871944103273
 20
14415.67467693993
 10
4194.871944103273
 20
14415.67467693993
 10
4174.871944103273
 20
14415.67467693993
 10
4174.871944103273
 20
14415.67467693993
 10
4174.871944103273
 20
14411.27467693994
 10
4174.871944103273
 20
14411.27467693994
 10
4194.871944103273
 20
14411.27467693994
 97
0
 75
1
 76
1
 98
0
  0
HATCH
  5
13E
330
17
100
AcDbEntity
  8
Hachura
 62
7
100
AcDbHatch
 10
0.0
 20
0.0
 30
0.0
210
0.0
220
0.0
230
1.0
  2
SOLID
 70
1
 71
0
 91
1
 92
3
 72
0
 73
1
 93
8
 10
4118.871944103274
 20
14471.27467693992
 10
4118.871944103274
 20
14475.27467693992
 10
4118.871944103274
 20
14475.27467693992
 10
4063.271944103297
 20
14475.27467693991
 10
4063.271944103297
 20
14475.27467693991
 10
4063.271944103297
 20
14471.27467693991
 10
4063.271944103297
 20
14471.27467693991
 10
4118.871944103274
 20
14471.27467693992
 97
0
 75
1
 76
1
 98
0
  0
HATCH
  5
13F
330
17
100
AcDbEntity
  8
COTA
 62
7
100
AcDbHatch
 10
0.0
 20
0.0
 30
0.0
210
0.0
220
0.0
230
1.0
  2
SOLID
 70
1
 71
0
 91
1
 92
3
 72
0
 73
1
 93
8
 10
4203.973226936013
 20
14259.15479994927
 10
4020.973226936013
 20
14259.15479994927
 10
4020.973226936013
 20
14259.15479994927
 10
4020.973226936013
 20
14245.15479994927
 10
4020.973226936013
 20
14245.15479994927
 10
4203.973226936013
 20
14245.15479994927
 10
4203.973226936013
 20
14245.15479994927
 10
4203.973226936013
 20
14259.15479994927
 97
0
 75
1
 76
1
 98
0
  0
HATCH
  5
140
330
17
100
AcDbEntity
  8
Hachura
 62
7
100
AcDbHatch
 10
0.0
 20
0.0
 30
0.0
210
0.0
220
0.0
230
1.0
  2
SOLID
 70
1
 71
0
 91
1
 92
3
 72
0
 73
1
 93
8
 10
3666.641450860256
 20
14471.27467693992
 10
3670.641450860256
 20
14471.27467693992
 10
3670.641450860256
 20
14471.27467693992
 10
3670.641450860258
 20
14411.27467693995
 10
3670.641450860258
 20
14411.27467693995
 10
3666.641450860258
 20
14411.27467693995
 10
3666.641450860258
 20
14411.27467693995
 10
3666.641450860256
 20
14471.27467693992
 97
0
 75
1
 76
1
 98
0
  0
HATCH
  5
141
330
17
100
AcDbEntity
  8
Hachura
 62
7
100
AcDbHatch
 10
0.0
 20
0.0
 30
0.0
210
0.0
220
0.0
230
1.0
  2
SOLID
 70
1
 71
0
 91
1
 92
3
 72
0
 73
1
 93
8
 10
3666.641450860258
 20
14466.87467693992
 10
3666.641450860258
 20
14471.27467693992
 10
3666.641450860258
 20
14471.27467693992
 10
3652.641450860258
 20
14471.27467693992
 10
3652.641450860258
 20
14471.27467693992
 10
3652.641450860258
 20
14466.87467693992
 10
3652.641450860258
 20
14466.87467693992
 10
3666.641450860258
 20
14466.87467693992
 97
0
 75
1
 76
1
 98
0
  0
HATCH
  5
142
330
17
100
AcDbEntity
  8
Hachura
 62
7
100
AcDbHatch
 10
0.0
 20
0.0
 30
0.0
210
0.0
220
0.0
230
1.0
  2
SOLID
 70
1
 71
0
 91
1
 92
3
 72
0
 73
1
 93
8
 10
3632.641450860258
 20
14411.27467693995
 10
3632.641450860258
 20
14415.67467693994
 10
3632.641450860258
 20
14415.67467693994
 10
3652.641450860258
 20
14415.67467693994
 10
3652.641450860258
 20
14415.67467693994
 10
3652.641450860258
 20
14411.27467693995
 10
3652.641450860258
 20
14411.27467693995
 10
3632.641450860258
 20
14411.27467693995
 97
0
 75
1
 76
1
 98
0
  0
HATCH
  5
143
330
17
100
AcDbEntity
  8
Hachura
 62
7
100
AcDbHatch
 10
0.0
 20
0.0
 30
0.0
210
0.0
220
0.0
230
1.0
  2
SOLID
 70
1
 71
0
 91
1
 92
3
 72
0
 73
1
 93
8
 10
3708.641450860258
 20
14411.27467693995
 10
3708.641450860258
 20
14415.67467693994
 10
3708.641450860258
 20
14415.67467693994
 10
3694.641450860257
 20
14415.67467693994
 10
3694.641450860257
 20
14415.67467693994
 10
3694.641450860257
 20
14411.27467693995
 10
3694.641450860257
 20
14411.27467693995
 10
3708.641450860258
 20
14411.27467693995
 97
0
 75
1
 76
1
 98
0
  0
HATCH
  5
144
330
17
100
AcDbEntity
  8
Hachura
 62
7
100
AcDbHatch
 10
0.0
 20
0.0
 30
0.0
210
0.0
220
0.0
230
1.0
  2
SOLID
 70
1
 71
0
 91
1
 92
3
 72
0
 73
1
 93
8
 10
3708.641450860258
 20
14415.67467693994
 10
3708.641450860258
 20
14419.27467693995
 10
3708.641450860258
 20
14419.27467693995
 10
3670.641450860258
 20
14419.27467693995
 10
3670.641450860258
 20
14419.27467693995
 10
3670.641450860258
 20
14415.67467693994
 10
3670.641450860258
 20
14415.67467693994
 10
3708.641450860258
 20
14415.67467693994
 97
0
 75
1
 76
1
 98
0
  0
HATCH
  5
145
330
17
100
AcDbEntity
  8
Hachura
 62
7
100
AcDbHatch
 10
0.0
 20
0.0
 30
0.0
210
0.0
220
0.0
230
1.0
  2
SOLID
 70
1
 71
0
 91
1
 92
3
 72
0
 73
1
 93
8
 10
3670.641450860258
 20
14411.27467693995
 10
3670.641450860258
 20
14415.67467693994
 10
3670.641450860258
 20
14415.67467693994
 10
3684.641450860258
 20
14415.67467693994
 10
3684.641450860258
 20
14415.67467693994
 10
3684.641450860258
 20
14411.27467693995
 10
3684.641450860258
 20
14411.27467693995
 10
3670.641450860258
 20
14411.27467693995
 97
0
 75
1
 76
1
 98
0
  0
HATCH
  5
146
330
17
100
AcDbEntity
  8
Hachura
 62
7
100
AcDbHatch
 10
0.0
 20
0.0
 30
0.0
210
0.0
220
0.0
230
1.0
  2
SOLID
 70
1
 71
0
 91
1
 92
3
 72
0
 73
1
 93
8
 10
3712.64145086027
 20
14499.27467693995
 10
3708.64145086027
 20
14499.27467693995
 10
3708.64145086027
 20
14499.27467693995
 10
3708.641450860258
 20
14411.27467693995
 10
3708.641450860258
 20
14411.27467693995
 10
3712.641450860257
 20
14411.27467693995
 10
3712.641450860257
 20
14411.27467693995
 10
3712.64145086027
 20
14499.27467693995
 97
0
 75
1
 76
1
 98
0
  0
HATCH
  5
147
330
17
100
AcDbEntity
  8
Hachura
 62
7
100
AcDbHatch
 10
0.0
 20
0.0
 30
0.0
210
0.0
220
0.0
230
1.0
  2
SOLID
 70
1
 71
0
 91
1
 92
3
 72
0
 73
1
 93
8
 10
3712.64145086027
 20
14494.87467693995
 10
3712.64145086027
 20
14499.27467693995
 10
3712.64145086027
 20
14499.27467693995
 10
3726.641450860269
 20
14499.27467693995
 10
3726.641450860269
 20
14499.27467693995
 10
3726.641450860269
 20
14494.87467693995
 10
3726.641450860269
 20
14494.87467693995
 10
3712.64145086027
 20
14494.87467693995
 97
0
 75
1
 76
1
 98
0
  0
HATCH
  5
148
330
17
100
AcDbEntity
  8
Hachura
 62
7
100
AcDbHatch
 10
0.0
 20
0.0
 30
0.0
210
0.0
220
0.0
230
1.0
  2
SOLID
 70
1
 71
0
 91
1
 92
3
 72
0
 73
1
 93
8
 10
3746.641450860258
 20
14411.27467693995
 10
3746.641450860258
 20
14415.67467693994
 10
3746.641450860258
 20
14415.67467693994
 10
3726.641450860257
 20
14415.67467693994
 10
3726.641450860257
 20
14415.67467693994
 10
3726.641450860257
 20
14411.27467693995
 10
3726.641450860257
 20
14411.27467693995
 10
3746.641450860258
 20
14411.27467693995
 97
0
 75
1
 76
1
 98
0
  0
HATCH
  5
149
330
17
100
AcDbEntity
  8
Hachura
 62
7
100
AcDbHatch
 10
0.0
 20
0.0
 30
0.0
210
0.0
220
0.0
230
1.0
  2
SOLID
 70
1
 71
0
 91
1
 92
3
 72
0
 73
1
 93
8
 10
3670.641450860258
 20
14471.27467693992
 10
3670.641450860258
 20
14475.27467693993
 10
3670.641450860258
 20
14475.27467693993
 10
3615.041450860281
 20
14475.27467693992
 10
3615.041450860281
 20
14475.27467693992
 10
3615.041450860281
 20
14471.27467693992
 10
3615.041450860281
 20
14471.27467693992
 10
3670.641450860258
 20
14471.27467693992
 97
0
 75
1
 76
1
 98
0
  0
HATCH
  5
14A
330
17
100
AcDbEntity
  8
COTA
 62
7
100
AcDbHatch
 10
0.0
 20
0.0
 30
0.0
210
0.0
220
0.0
230
1.0
  2
SOLID
 70
1
 71
0
 91
1
 92
3
 72
0
 73
1
 93
8
 10
3755.742733692998
 20
14059.0860829171
 10
3572.742733692998
 20
14059.0860829171
 10
3572.742733692998
 20
14059.0860829171
 10
3572.742733692998
 20
14045.0860829171
 10
3572.742733692998
 20
14045.0860829171
 10
3755.742733692998
 20
14045.0860829171
 10
3755.742733692998
 20
14045.0860829171
 10
3755.742733692998
 20
14059.0860829171
 97
0
 75
1
 76
1
 98
0
  0
LINE
  5
14B
330
17
100
AcDbEntity
  8
0
 62
7
370
25
100
AcDbLine
 10
3595.583608109926
 20
13654.274676939953
 30
0.0
 11
3595.583608109926
 21
13853.518190350842
 31
0.0
  0
ENDSEC
  0
SECTION
  2
OBJECTS
  0
DICTIONARY
  5
A
330
0
100
AcDbDictionary
281
1
  3
ACAD_COLOR
350
B
  3
ACAD_GROUP
350
C
  3
ACAD_LAYOUT
350
D
  3
ACAD_MATERIAL
350
E
  3
ACAD_MLEADERSTYLE
350
F
  3
ACAD_MLINESTYLE
350
10
  3
ACAD_PLOTSETTINGS
350
11
  3
ACAD_PLOTSTYLENAME
350
12
  3
ACAD_SCALELIST
350
14
  3
ACAD_TABLESTYLE
350
15
  3
ACAD_VISUALSTYLE
350
16
  3
EZDXF_META
350
2D
  0
DICTIONARY
  5
B
330
A
100
AcDbDictionary
281
1
  0
DICTIONARY
  5
C
330
A
100
AcDbDictionary
281
1
  0
DICTIONARY
  5
D
330
A
100
AcDbDictionary
281
1
  3
Model
350
1A
  3
Layout1
350
1E
  0
DICTIONARY
  5
E
330
A
100
AcDbDictionary
281
1
  3
ByBlock
350
1F
  3
ByLayer
350
20
  3
Global
350
21
  0
DICTIONARY
  5
F
330
A
100
AcDbDictionary
281
1
  3
Standard
350
2C
  0
DICTIONARY
  5
10
330
A
100
AcDbDictionary
281
1
  3
Standard
350
22
  0
DICTIONARY
  5
11
330
A
100
AcDbDictionary
281
1
  0
ACDBDICTIONARYWDFLT
  5
12
330
A
100
AcDbDictionary
281
1
  3
Normal
350
13
100
AcDbDictionaryWithDefault
340
13
  0
ACDBPLACEHOLDER
  5
13
330
12
  0
DICTIONARY
  5
14
330
A
100
AcDbDictionary
281
1
  0
DICTIONARY
  5
15
330
A
100
AcDbDictionary
281
1
  0
DICTIONARY
  5
16
330
A
100
AcDbDictionary
281
1
  0
LAYOUT
  5
1A
330
D
100
AcDbPlotSettings
  1

  4
A3
  6

 40
7.5
 41
20.0
 42
7.5
 43
20.0
 44
420.0
 45
297.0
 46
0.0
 47
0.0
 48
0.0
 49
0.0
140
0.0
141
0.0
142
1.0
143
1.0
 70
1024
 72
1
 73
0
 74
5
  7

 75
16
 76
0
 77
2
 78
300
147
1.0
148
0.0
149
0.0
100
AcDbLayout
  1
Model
 70
1
 71
0
 10
0.0
 20
0.0
 11
420.0
 21
297.0
 12
0.0
 22
0.0
 32
0.0
 14
1e+20
 24
1e+20
 34
1e+20
 15
-1e+20
 25
-1e+20
 35
-1e+20
146
0.0
 13
0.0
 23
0.0
 33
0.0
 16
1.0
 26
0.0
 36
0.0
 17
0.0
 27
1.0
 37
0.0
 76
1
330
17
  0
LAYOUT
  5
1E
330
D
100
AcDbPlotSettings
  1

  4
A3
  6

 40
7.5
 41
20.0
 42
7.5
 43
20.0
 44
420.0
 45
297.0
 46
0.0
 47
0.0
 48
0.0
 49
0.0
140
0.0
141
0.0
142
1.0
143
1.0
 70
0
 72
1
 73
0
 74
5
  7

 75
16
 76
0
 77
2
 78
300
147
1.0
148
0.0
149
0.0
100
AcDbLayout
  1
Layout1
 70
1
 71
1
 10
0.0
 20
0.0
 11
420.0
 21
297.0
 12
0.0
 22
0.0
 32
0.0
 14
1e+20
 24
1e+20
 34
1e+20
 15
-1e+20
 25
-1e+20
 35
-1e+20
146
0.0
 13
0.0
 23
0.0
 33
0.0
 16
1.0
 26
0.0
 36
0.0
 17
0.0
 27
1.0
 37
0.0
 76
1
330
1B
  0
MATERIAL
  5
1F
102
{ACAD_REACTORS
330
E
102
}
330
E
100
AcDbMaterial
  1
ByBlock
  2

 70
0
 40
1.0
 71
1
 41
1.0
 91
-1023410177
 42
1.0
 72
1
  3

 73
1
 74
1
 75
1
 44
0.5
 73
0
 45
1.0
 46
1.0
 77
1
  4

 78
1
 79
1
170
1
 48
1.0
171
1
  6

172
1
173
1
174
1
140
1.0
141
1.0
175
1
  7

176
1
177
1
178
1
143
1.0
179
1
  8

270
1
271
1
272
1
145
1.0
146
1.0
273
1
  9

274
1
275
1
276
1
 42
1.0
 72
1
  3

 73
1
 74
1
 75
1
 94
63
  0
MATERIAL
  5
20
102
{ACAD_REACTORS
330
E
102
}
330
E
100
AcDbMaterial
  1
ByLayer
  2

 70
0
 40
1.0
 71
1
 41
1.0
 91
-1023410177
 42
1.0
 72
1
  3

 73
1
 74
1
 75
1
 44
0.5
 73
0
 45
1.0
 46
1.0
 77
1
  4

 78
1
 79
1
170
1
 48
1.0
171
1
  6

172
1
173
1
174
1
140
1.0
141
1.0
175
1
  7

176
1
177
1
178
1
143
1.0
179
1
  8

270
1
271
1
272
1
145
1.0
146
1.0
273
1
  9

274
1
275
1
276
1
 42
1.0
 72
1
  3

 73
1
 74
1
 75
1
 94
63
  0
MATERIAL
  5
21
102
{ACAD_REACTORS
330
E
102
}
330
E
100
AcDbMaterial
  1
Global
  2

 70
0
 40
1.0
 71
1
 41
1.0
 91
-1023410177
 42
1.0
 72
1
  3

 73
1
 74
1
 75
1
 44
0.5
 73
0
 45
1.0
 46
1.0
 77
1
  4

 78
1
 79
1
170
1
 48
1.0
171
1
  6

172
1
173
1
174
1
140
1.0
141
1.0
175
1
  7

176
1
177
1
178
1
143
1.0
179
1
  8

270
1
271
1
272
1
145
1.0
146
1.0
273
1
  9

274
1
275
1
276
1
 42
1.0
 72
1
  3

 73
1
 74
1
 75
1
 94
63
  0
MLINESTYLE
  5
22
102
{ACAD_REACTORS
330
10
102
}
330
10
100
AcDbMlineStyle
  2
Standard
 70
0
  3

 62
256
 51
90.0
 52
90.0
 71
2
 49
0.5
 62
256
  6
BYLAYER
 49
-0.5
 62
256
  6
BYLAYER
  0
MLEADERSTYLE
  5
2C
102
{ACAD_REACTORS
330
F
102
}
330
F
100
AcDbMLeaderStyle
179
2
170
2
171
1
172
0
 90
2
 40
0.0
 41
0.0
173
1
 91
-1056964608
 92
-2
290
1
 42
2.0
291
1
 43
8.0
  3
Standard
 44
4.0
300

342
29
174
1
175
1
176
0
178
1
 93
-1056964608
 45
4.0
292
0
297
0
 46
4.0
 94
-1056964608
 47
1.0
 49
1.0
140
1.0
294
1
141
0.0
177
0
142
1.0
295
0
296
0
143
3.75
271
0
272
9
273
9
  0
DICTIONARY
  5
2D
330
A
100
AcDbDictionary
280
1
281
1
  3
CREATED_BY_EZDXF
350
2E
  3
WRITTEN_BY_EZDXF
350
14E
  0
DICTIONARYVAR
  5
2E
330
2D
100
DictionaryVariables
280
0
  1
1.4.3 @ 2026-06-10T16:54:32.928407+00:00
  0
DICTIONARYVAR
  5
14E
330
2D
100
DictionaryVariables
280
0
  1
1.4.3 @ 2026-06-10T16:54:32.938184+00:00
  0
ENDSEC
  0
EOF
