  0
SECTION
  2
HEADER
  9
$ACADVER
  1
AC1024
  9
$ACADMAINTVER
 70
6
  9
$DWGCODEPAGE
  3
ANSI_1252
  9
$LASTSAVEDBY
  1
ezdxf
  9
$INSBASE
 10
0.0
 20
0.0
 30
0.0
  9
$EXTMIN
 10
1e+20
 20
1e+20
 30
1e+20
  9
$EXTMAX
 10
-1e+20
 20
-1e+20
 30
-1e+20
  9
$LIMMIN
 10
0.0
 20
0.0
  9
$LIMMAX
 10
420.0
 20
297.0
  9
$ORTHOMODE
 70
0
  9
$REGENMODE
 70
1
  9
$FILLMODE
 70
1
  9
$QTEXTMODE
 70
0
  9
$MIRRTEXT
 70
1
  9
$LTSCALE
 40
1.0
  9
$ATTMODE
 70
1
  9
$TEXTSIZE
 40
2.5
  9
$TRACEWID
 40
1.0
  9
$TEXTSTYLE
  7
Standard
  9
$CLAYER
  8
0
  9
$CELTYPE
  6
ByLayer
  9
$CECOLOR
 62
256
  9
$CELTSCALE
 40
1.0
  9
$DISPSILH
 70
0
  9
$DIMSCALE
 40
1.0
  9
$DIMASZ
 40
2.5
  9
$DIMEXO
 40
0.625
  9
$DIMDLI
 40
3.75
  9
$DIMRND
 40
0.0
  9
$DIMDLE
 40
0.0
  9
$DIMEXE
 40
1.25
  9
$DIMTP
 40
0.0
  9
$DIMTM
 40
0.0
  9
$DIMTXT
 40
2.5
  9
$DIMCEN
 40
2.5
  9
$DIMTSZ
 40
0.0
  9
$DIMTOL
 70
0
  9
$DIMLIM
 70
0
  9
$DIMTIH
 70
0
  9
$DIMTOH
 70
0
  9
$DIMSE1
 70
0
  9
$DIMSE2
 70
0
  9
$DIMTAD
 70
1
  9
$DIMZIN
 70
8
  9
$DIMBLK
  1

  9
$DIMASO
 70
1
  9
$DIMSHO
 70
1
  9
$DIMPOST
  1

  9
$DIMAPOST
  1

  9
$DIMALT
 70
0
  9
$DIMALTD
 70
3
  9
$DIMALTF
 40
0.03937007874
  9
$DIMLFAC
 40
1.0
  9
$DIMTOFL
 70
1
  9
$DIMTVP
 40
0.0
  9
$DIMTIX
 70
0
  9
$DIMSOXD
 70
0
  9
$DIMSAH
 70
0
  9
$DIMBLK1
  1

  9
$DIMBLK2
  1

  9
$DIMSTYLE
  2
ISO-25
  9
$DIMCLRD
 70
0
  9
$DIMCLRE
 70
0
  9
$DIMCLRT
 70
0
  9
$DIMTFAC
 40
1.0
  9
$DIMGAP
 40
0.625
  9
$DIMJUST
 70
0
  9
$DIMSD1
 70
0
  9
$DIMSD2
 70
0
  9
$DIMTOLJ
 70
0
  9
$DIMTZIN
 70
8
  9
$DIMALTZ
 70
0
  9
$DIMALTTZ
 70
0
  9
$DIMUPT
 70
0
  9
$DIMDEC
 70
2
  9
$DIMTDEC
 70
2
  9
$DIMALTU
 70
2
  9
$DIMALTTD
 70
3
  9
$DIMTXSTY
  7
Standard
  9
$DIMAUNIT
 70
0
  9
$DIMADEC
 70
0
  9
$DIMALTRND
 40
0.0
  9
$DIMAZIN
 70
0
  9
$DIMDSEP
 70
44
  9
$DIMATFIT
 70
3
  9
$DIMFRAC
 70
0
  9
$DIMLDRBLK
  1

  9
$DIMLUNIT
 70
2
  9
$DIMLWD
 70
-2
  9
$DIMLWE
 70
-2
  9
$DIMTMOVE
 70
0
  9
$DIMFXL
 40
1.0
  9
$DIMFXLON
 70
0
  9
$DIMJOGANG
 40
0.785398163397
  9
$DIMTFILL
 70
0
  9
$DIMTFILLCLR
 70
0
  9
$DIMARCSYM
 70
0
  9
$DIMLTYPE
  6

  9
$DIMLTEX1
  6

  9
$DIMLTEX2
  6

  9
$DIMTXTDIRECTION
 70
0
  9
$LUNITS
 70
2
  9
$LUPREC
 70
4
  9
$SKETCHINC
 40
1.0
  9
$FILLETRAD
 40
10.0
  9
$AUNITS
 70
0
  9
$AUPREC
 70
2
  9
$MENU
  1
.
  9
$ELEVATION
 40
0.0
  9
$PELEVATION
 40
0.0
  9
$THICKNESS
 40
0.0
  9
$LIMCHECK
 70
0
  9
$CHAMFERA
 40
0.0
  9
$CHAMFERB
 40
0.0
  9
$CHAMFERC
 40
0.0
  9
$CHAMFERD
 40
0.0
  9
$SKPOLY
 70
0
  9
$TDCREATE
 40
2461202.0095949075
  9
$TDUCREATE
 40
2458532.153996898
  9
$TDUPDATE
 40
2461202.0095949075
  9
$TDUUPDATE
 40
2458532.1544311
  9
$TDINDWG
 40
0.0
  9
$TDUSRTIMER
 40
0.0
  9
$USRTIMER
 70
1
  9
$ANGBASE
 50
0.0
  9
$ANGDIR
 70
0
  9
$PDMODE
 70
0
  9
$PDSIZE
 40
0.0
  9
$PLINEWID
 40
0.0
  9
$SPLFRAME
 70
0
  9
$SPLINETYPE
 70
6
  9
$SPLINESEGS
 70
8
  9
$HANDSEED
  5
C0
  9
$SURFTAB1
 70
6
  9
$SURFTAB2
 70
6
  9
$SURFTYPE
 70
6
  9
$SURFU
 70
6
  9
$SURFV
 70
6
  9
$UCSBASE
  2

  9
$UCSNAME
  2

  9
$UCSORG
 10
0.0
 20
0.0
 30
0.0
  9
$UCSXDIR
 10
1.0
 20
0.0
 30
0.0
  9
$UCSYDIR
 10
0.0
 20
1.0
 30
0.0
  9
$UCSORTHOREF
  2

  9
$UCSORTHOVIEW
 70
0
  9
$UCSORGTOP
 10
0.0
 20
0.0
 30
0.0
  9
$UCSORGBOTTOM
 10
0.0
 20
0.0
 30
0.0
  9
$UCSORGLEFT
 10
0.0
 20
0.0
 30
0.0
  9
$UCSORGRIGHT
 10
0.0
 20
0.0
 30
0.0
  9
$UCSORGFRONT
 10
0.0
 20
0.0
 30
0.0
  9
$UCSORGBACK
 10
0.0
 20
0.0
 30
0.0
  9
$PUCSBASE
  2

  9
$PUCSNAME
  2

  9
$PUCSORG
 10
0.0
 20
0.0
 30
0.0
  9
$PUCSXDIR
 10
1.0
 20
0.0
 30
0.0
  9
$PUCSYDIR
 10
0.0
 20
1.0
 30
0.0
  9
$PUCSORTHOREF
  2

  9
$PUCSORTHOVIEW
 70
0
  9
$PUCSORGTOP
 10
0.0
 20
0.0
 30
0.0
  9
$PUCSORGBOTTOM
 10
0.0
 20
0.0
 30
0.0
  9
$PUCSORGLEFT
 10
0.0
 20
0.0
 30
0.0
  9
$PUCSORGRIGHT
 10
0.0
 20
0.0
 30
0.0
  9
$PUCSORGFRONT
 10
0.0
 20
0.0
 30
0.0
  9
$PUCSORGBACK
 10
0.0
 20
0.0
 30
0.0
  9
$USERI1
 70
0
  9
$USERI2
 70
0
  9
$USERI3
 70
0
  9
$USERI4
 70
0
  9
$USERI5
 70
0
  9
$USERR1
 40
0.0
  9
$USERR2
 40
0.0
  9
$USERR3
 40
0.0
  9
$USERR4
 40
0.0
  9
$USERR5
 40
0.0
  9
$WORLDVIEW
 70
1
  9
$SHADEDGE
 70
3
  9
$SHADEDIF
 70
70
  9
$TILEMODE
 70
1
  9
$MAXACTVP
 70
64
  9
$PINSBASE
 10
0.0
 20
0.0
 30
0.0
  9
$PLIMCHECK
 70
0
  9
$PEXTMIN
 10
1e+20
 20
1e+20
 30
1e+20
  9
$PEXTMAX
 10
-1e+20
 20
-1e+20
 30
-1e+20
  9
$PLIMMIN
 10
0.0
 20
0.0
  9
$PLIMMAX
 10
420.0
 20
297.0
  9
$UNITMODE
 70
0
  9
$VISRETAIN
 70
1
  9
$PLINEGEN
 70
0
  9
$PSLTSCALE
 70
1
  9
$TREEDEPTH
 70
3020
  9
$CMLSTYLE
  2
Standard
  9
$CMLJUST
 70
0
  9
$CMLSCALE
 40
20.0
  9
$PROXYGRAPHICS
 70
1
  9
$MEASUREMENT
 70
1
  9
$CELWEIGHT
370
-1
  9
$ENDCAPS
280
0
  9
$JOINSTYLE
280
0
  9
$LWDISPLAY
290
0
  9
$INSUNITS
 70
6
  9
$HYPERLINKBASE
  1

  9
$STYLESHEET
  1

  9
$XEDIT
290
1
  9
$CEPSNTYPE
380
0
  9
$PSTYLEMODE
290
1
  9
$FINGERPRINTGUID
  2
{D82B8138-C2FA-4BB5-BA96-F729AF487A01}
  9
$VERSIONGUID
  2
{4BB9C163-6164-4984-82DF-F490611908FE}
  9
$EXTNAMES
290
1
  9
$PSVPSCALE
 40
0.0
  9
$OLESTARTUP
290
0
  9
$SORTENTS
280
127
  9
$INDEXCTL
280
0
  9
$HIDETEXT
280
1
  9
$XCLIPFRAME
280
1
  9
$HALOGAP
280
0
  9
$OBSCOLOR
 70
257
  9
$OBSLTYPE
280
0
  9
$INTERSECTIONDISPLAY
280
0
  9
$INTERSECTIONCOLOR
 70
257
  9
$DIMASSOC
280
2
  9
$PROJECTNAME
  1

  9
$CAMERADISPLAY
290
0
  9
$LENSLENGTH
 40
50.0
  9
$CAMERAHEIGHT
 40
0.0
  9
$STEPSPERSEC
 40
24.0
  9
$STEPSIZE
 40
100.0
  9
$3DDWFPREC
 40
2.0
  9
$PSOLWIDTH
 40
0.005
  9
$PSOLHEIGHT
 40
0.08
  9
$LOFTANG1
 40
1.570796326795
  9
$LOFTANG2
 40
1.570796326795
  9
$LOFTMAG1
 40
0.0
  9
$LOFTMAG2
 40
0.0
  9
$LOFTPARAM
 70
7
  9
$LOFTNORMALS
280
1
  9
$LATITUDE
 40
37.795
  9
$LONGITUDE
 40
-122.394
  9
$NORTHDIRECTION
 40
0.0
  9
$TIMEZONE
 70
-8000
  9
$LIGHTGLYPHDISPLAY
280
1
  9
$TILEMODELIGHTSYNCH
280
1
  9
$CMATERIAL
347
20
  9
$SOLIDHIST
280
0
  9
$SHOWHIST
280
1
  9
$DWFFRAME
280
2
  9
$DGNFRAME
280
2
  9
$REALWORLDSCALE
290
1
  9
$INTERFERECOLOR
 62
256
  9
$CSHADOW
280
0
  9
$SHADOWPLANELOCATION
 40
0.0
  0
ENDSEC
  0
SECTION
  2
CLASSES
  0
CLASS
  1
ACDBDICTIONARYWDFLT
  2
AcDbDictionaryWithDefault
  3
ObjectDBX Classes
 90
0
 91
0
280
0
281
0
  0
CLASS
  1
SUN
  2
AcDbSun
  3
SCENEOE
 90
1153
 91
0
280
0
281
0
  0
CLASS
  1
VISUALSTYLE
  2
AcDbVisualStyle
  3
ObjectDBX Classes
 90
4095
 91
0
280
0
281
0
  0
CLASS
  1
MATERIAL
  2
AcDbMaterial
  3
ObjectDBX Classes
 90
1153
 91
0
280
0
281
0
  0
CLASS
  1
SCALE
  2
AcDbScale
  3
ObjectDBX Classes
 90
1153
 91
0
280
0
281
0
  0
CLASS
  1
TABLESTYLE
  2
AcDbTableStyle
  3
ObjectDBX Classes
 90
4095
 91
0
280
0
281
0
  0
CLASS
  1
MLEADERSTYLE
  2
AcDbMLeaderStyle
  3
ACDB_MLEADERSTYLE_CLASS
 90
4095
 91
0
280
0
281
0
  0
CLASS
  1
DICTIONARYVAR
  2
AcDbDictionaryVar
  3
ObjectDBX Classes
 90
0
 91
0
280
0
281
0
  0
CLASS
  1
CELLSTYLEMAP
  2
AcDbCellStyleMap
  3
ObjectDBX Classes
 90
1152
 91
0
280
0
281
0
  0
CLASS
  1
MENTALRAYRENDERSETTINGS
  2
AcDbMentalRayRenderSettings
  3
SCENEOE
 90
1024
 91
0
280
0
281
0
  0
CLASS
  1
ACDBDETAILVIEWSTYLE
  2
AcDbDetailViewStyle
  3
ObjectDBX Classes
 90
1025
 91
0
280
0
281
0
  0
CLASS
  1
ACDBSECTIONVIEWSTYLE
  2
AcDbSectionViewStyle
  3
ObjectDBX Classes
 90
1025
 91
0
280
0
281
0
  0
CLASS
  1
RASTERVARIABLES
  2
AcDbRasterVariables
  3
ISM
 90
0
 91
0
280
0
281
0
  0
CLASS
  1
ACDBPLACEHOLDER
  2
AcDbPlaceHolder
  3
ObjectDBX Classes
 90
0
 91
0
280
0
281
0
  0
CLASS
  1
LAYOUT
  2
AcDbLayout
  3
ObjectDBX Classes
 90
0
 91
0
280
0
281
0
  0
ENDSEC
  0
SECTION
  2
TABLES
  0
TABLE
  2
VPORT
  5
8
330
0
100
AcDbSymbolTable
 70
1
  0
VPORT
  5
23
330
8
100
AcDbSymbolTableRecord
100
AcDbViewportTableRecord
  2
*Active
 70
0
 10
0.0
 20
0.0
 11
1.0
 21
1.0
 12
0.0
 22
0.0
 13
0.0
 23
0.0
 14
0.5
 24
0.5
 15
0.5
 25
0.5
 16
0.0
 26
0.0
 36
1.0
 17
0.0
 27
0.0
 37
0.0
 40
1000.0
 41
1.34
 42
50.0
 43
0.0
 44
0.0
 50
0.0
 51
0.0
 71
0
 72
1000
 73
1
 74
3
 75
0
 76
0
 77
0
 78
0
281
0
 65
0
146
0.0
  0
ENDTAB
  0
TABLE
  2
LTYPE
  5
2
330
0
100
AcDbSymbolTable
 70
3
  0
LTYPE
  5
24
330
2
100
AcDbSymbolTableRecord
100
AcDbLinetypeTableRecord
  2
ByBlock
 70
0
  3

 72
65
 73
0
 40
0.0
  0
LTYPE
  5
25
330
2
100
AcDbSymbolTableRecord
100
AcDbLinetypeTableRecord
  2
ByLayer
 70
0
  3

 72
65
 73
0
 40
0.0
  0
LTYPE
  5
26
330
2
100
AcDbSymbolTableRecord
100
AcDbLinetypeTableRecord
  2
Continuous
 70
0
  3

 72
65
 73
0
 40
0.0
  0
ENDTAB
  0
TABLE
  2
LAYER
  5
1
330
0
100
AcDbSymbolTable
 70
11
  0
LAYER
  5
27
330
1
100
AcDbSymbolTableRecord
100
AcDbLayerTableRecord
  2
0
 70
0
 62
7
  6
Continuous
370
-3
390
13
347
21
  0
LAYER
  5
28
330
1
100
AcDbSymbolTableRecord
100
AcDbLayerTableRecord
  2
Defpoints
 70
0
 62
7
  6
Continuous
290
0
370
-3
390
13
347
21
  0
LAYER
  5
2F
330
1
100
AcDbSymbolTableRecord
100
AcDbLayerTableRecord
  2
Perfil Metálico
 70
0
 62
7
  6
Continuous
370
-3
390
13
347
21
  0
LAYER
  5
30
330
1
100
AcDbSymbolTableRecord
100
AcDbLayerTableRecord
  2
SARR_2.2x7
 70
0
 62
7
  6
Continuous
370
-3
390
13
347
21
  0
LAYER
  5
31
330
1
100
AcDbSymbolTableRecord
100
AcDbLayerTableRecord
  2
Nível
 70
0
 62
7
  6
Continuous
370
-3
390
13
347
21
  0
LAYER
  5
32
330
1
100
AcDbSymbolTableRecord
100
AcDbLayerTableRecord
  2
COTA
 70
0
 62
7
  6
Continuous
370
-3
390
13
347
21
  0
LAYER
  5
33
330
1
100
AcDbSymbolTableRecord
100
AcDbLayerTableRecord
  2
Hachura
 70
0
 62
7
  6
Continuous
370
-3
390
13
347
21
  0
LAYER
  5
34
330
1
100
AcDbSymbolTableRecord
100
AcDbLayerTableRecord
  2
CHAPA
 70
0
 62
7
  6
Continuous
370
-3
390
13
347
21
  0
LAYER
  5
35
330
1
100
AcDbSymbolTableRecord
100
AcDbLayerTableRecord
  2
Painéis
 70
0
 62
7
  6
Continuous
370
-3
390
13
347
21
  0
LAYER
  5
36
330
1
100
AcDbSymbolTableRecord
100
AcDbLayerTableRecord
  2
Madeira
 70
0
 62
7
  6
Continuous
370
-3
390
13
347
21
  0
LAYER
  5
37
330
1
100
AcDbSymbolTableRecord
100
AcDbLayerTableRecord
  2
SARRAFO
 70
0
 62
7
  6
Continuous
370
-3
390
13
347
21
  0
ENDTAB
  0
TABLE
  2
STYLE
  5
5
330
0
100
AcDbSymbolTable
 70
1
  0
STYLE
  5
29
330
5
100
AcDbSymbolTableRecord
100
AcDbTextStyleTableRecord
  2
Standard
 70
0
 40
0.0
 41
1.0
 50
0.0
 71
0
 42
2.5
  3
txt
  4

  0
ENDTAB
  0
TABLE
  2
VIEW
  5
7
330
0
100
AcDbSymbolTable
 70
0
  0
ENDTAB
  0
TABLE
  2
UCS
  5
6
330
0
100
AcDbSymbolTable
 70
0
  0
ENDTAB
  0
TABLE
  2
APPID
  5
3
330
0
100
AcDbSymbolTable
 70
3
  0
APPID
  5
2A
330
3
100
AcDbSymbolTableRecord
100
AcDbRegAppTableRecord
  2
ACAD
 70
0
  0
APPID
  5
BD
330
3
100
AcDbSymbolTableRecord
100
AcDbRegAppTableRecord
  2
HATCHBACKGROUNDCOLOR
 70
0
  0
APPID
  5
BE
330
3
100
AcDbSymbolTableRecord
100
AcDbRegAppTableRecord
  2
EZDXF
 70
0
  0
ENDTAB
  0
TABLE
  2
DIMSTYLE
  5
4
330
0
100
AcDbSymbolTable
 70
1
100
AcDbDimStyleTable
  0
DIMSTYLE
105
2B
330
4
100
AcDbSymbolTableRecord
100
AcDbDimStyleTableRecord
  2
Standard
 70
0
 40
1.0
 41
2.5
 42
0.625
 43
3.75
 44
1.25
 45
0.0
 46
0.0
 47
0.0
 48
0.0
 49
2.5
140
2.5
141
2.5
142
0.0
143
0.03937007874
144
1.0
145
0.0
146
1.0
147
0.625
148
0.0
 69
0
 70
0
 71
0
 72
0
 73
0
 74
0
 75
0
 76
0
 77
1
 78
8
 79
3
170
0
171
3
172
1
173
0
174
0
175
0
176
0
177
0
178
0
179
2
271
2
272
2
273
2
274
3
275
0
276
0
277
2
278
44
279
0
280
0
281
0
282
0
283
0
284
8
285
0
286
0
288
0
289
3
290
0
371
-2
372
-2
  0
ENDTAB
  0
TABLE
  2
BLOCK_RECORD
  5
9
330
0
100
AcDbSymbolTable
 70
2
  0
BLOCK_RECORD
  5
17
330
9
100
AcDbSymbolTableRecord
100
AcDbBlockTableRecord
  2
*Model_Space
340
1A
 70
0
280
1
281
0
  0
BLOCK_RECORD
  5
1B
330
9
100
AcDbSymbolTableRecord
100
AcDbBlockTableRecord
  2
*Paper_Space
340
1E
 70
0
280
1
281
0
  0
ENDTAB
  0
ENDSEC
  0
SECTION
  2
BLOCKS
  0
BLOCK
  5
18
330
17
100
AcDbEntity
  8
0
100
AcDbBlockBegin
  2
*Model_Space
 70
0
 10
0.0
 20
0.0
 30
0.0
  3
*Model_Space
  1

  0
ENDBLK
  5
19
330
17
100
AcDbEntity
  8
0
100
AcDbBlockEnd
  0
BLOCK
  5
1C
330
1B
100
AcDbEntity
  8
0
100
AcDbBlockBegin
  2
*Paper_Space
 70
0
 10
0.0
 20
0.0
 30
0.0
  3
*Paper_Space
  1

  0
ENDBLK
  5
1D
330
1B
100
AcDbEntity
  8
0
100
AcDbBlockEnd
  0
ENDSEC
  0
SECTION
  2
ENTITIES
  0
LINE
  5
38
330
17
100
AcDbEntity
  8
Nível
 62
7
370
25
100
AcDbLine
 10
4951.845822790677
 20
7799.561832856163
 30
0.0
 11
5791.680626554512
 21
7799.561832856163
 31
0.0
  0
LINE
  5
39
330
17
100
AcDbEntity
  8
SARR_2.2x7
 62
7
370
25
100
AcDbLine
 10
5079.131332334975
 20
7801.56183285616
 30
0.0
 11
5079.131332334975
 21
7923.56183285616
 31
0.0
  0
LINE
  5
3A
330
17
100
AcDbEntity
  8
SARR_2.2x7
 62
7
370
25
100
AcDbLine
 10
5079.131332334859
 20
7923.561832856178
 30
0.0
 11
5079.131332334902
 21
8020.561832856165
 31
0.0
  0
LINE
  5
3B
330
17
100
AcDbEntity
  8
SARR_2.2x7
 62
7
370
25
100
AcDbLine
 10
5167.131332334917
 20
7801.561832856176
 30
0.0
 11
5167.131332334917
 21
7923.56183285616
 31
0.0
  0
LINE
  5
3C
330
17
100
AcDbEntity
  8
SARR_2.2x7
 62
7
370
25
100
AcDbLine
 10
5167.1313323348
 20
7923.561832856178
 30
0.0
 11
5167.131332334884
 21
8020.561832856165
 31
0.0
  0
LINE
  5
3D
330
17
100
AcDbEntity
  8
SARR_2.2x7
 62
7
370
25
100
AcDbLine
 10
5079.131332334975
 20
7801.56183285616
 30
0.0
 11
5079.131332334975
 21
7801.561832856188
 31
0.0
  0
LINE
  5
3E
330
17
100
AcDbEntity
  8
SARR_2.2x7
 62
7
370
25
100
AcDbLine
 10
5167.131332334917
 20
7801.561832856176
 30
0.0
 11
5167.131332334917
 21
7801.56183285616
 31
0.0
  0
LINE
  5
3F
330
17
100
AcDbEntity
  8
Painéis
 62
7
370
25
100
AcDbLine
 10
5174.131332334975
 20
7801.56183285616
 30
0.0
 11
5174.131332334975
 21
7923.56183285616
 31
0.0
  0
LINE
  5
40
330
17
100
AcDbEntity
  8
Painéis
 62
7
370
25
100
AcDbLine
 10
5174.131332334975
 20
7923.56183285616
 30
0.0
 11
5174.131332334975
 21
8020.561832856165
 31
0.0
  0
LINE
  5
41
330
17
100
AcDbEntity
  8
Painéis
 62
7
370
25
100
AcDbLine
 10
5072.131332334973
 20
8020.561832856165
 30
0.0
 11
5174.131332334916
 21
8020.561832856165
 31
0.0
  0
LINE
  5
42
330
17
100
AcDbEntity
  8
Painéis
 62
7
370
25
100
AcDbLine
 10
5072.13133233498
 20
8020.561832856165
 30
0.0
 11
5072.131332334977
 21
7923.56183285616
 31
0.0
  0
LINE
  5
43
330
17
100
AcDbEntity
  8
Painéis
 62
7
370
25
100
AcDbLine
 10
5072.131332334976
 20
7923.56183285616
 30
0.0
 11
5072.131332334969
 21
7801.56183285616
 31
0.0
  0
LINE
  5
44
330
17
100
AcDbEntity
  8
Painéis
 62
7
370
25
100
AcDbLine
 10
5072.131332334971
 20
7801.56183285616
 30
0.0
 11
5174.131332334975
 21
7801.56183285616
 31
0.0
  0
LINE
  5
45
330
17
100
AcDbEntity
  8
Hachura
 62
7
370
25
100
AcDbLine
 10
4736.913714936917
 20
8287.025363329014
 30
0.0
 11
4736.922256147791
 21
8145.224996201491
 31
0.0
  0
LINE
  5
46
330
17
100
AcDbEntity
  8
Hachura
 62
7
370
25
100
AcDbLine
 10
4528.91258215236
 20
8287.025363329014
 30
0.0
 11
4528.904040941513
 21
8145.224996201491
 31
0.0
  0
LINE
  5
47
330
17
100
AcDbEntity
  8
Hachura
 62
7
370
25
100
AcDbLine
 10
4632.912888125818
 20
8287.025363329014
 30
0.0
 11
4632.904346914943
 21
8145.224996201491
 31
0.0
  0
LINE
  5
48
330
17
100
AcDbEntity
  8
Painéis
 62
7
370
25
100
AcDbLine
 10
5174.131332334975
 20
7923.561832856164
 30
0.0
 11
5072.131332334976
 21
7923.561832856169
 31
0.0
  0
LINE
  5
49
330
17
100
AcDbEntity
  8
Painéis
 62
7
370
25
100
AcDbLine
 10
5145.131332334972
 20
8132.561832856154
 30
0.0
 11
5083.131332334988
 21
8132.561832856163
 31
0.0
  0
LINE
  5
4A
330
17
100
AcDbEntity
  8
SARR_2.2x7
 62
7
370
25
100
AcDbLine
 10
5079.131332334902
 20
8020.561832856168
 30
0.0
 11
5079.131332334901
 21
8020.561832856165
 31
0.0
  0
LINE
  5
4B
330
17
100
AcDbEntity
  8
Painéis
 62
7
370
25
100
AcDbLine
 10
5174.131332334961
 20
8020.561832856165
 30
0.0
 11
5072.13133233498
 21
8020.561832856165
 31
0.0
  0
LINE
  5
4C
330
17
100
AcDbEntity
  8
SARR_2.2x7
 62
7
370
25
100
AcDbLine
 10
5174.131332334969
 20
8085.561832856161
 30
0.0
 11
5138.13133233496
 21
8085.561832856159
 31
0.0
  0
LINE
  5
4D
330
17
100
AcDbEntity
  8
Painéis
 62
7
370
25
100
AcDbLine
 10
5145.131332334961
 20
8092.56183285616
 30
0.0
 11
5145.131332334972
 21
8132.561832856163
 31
0.0
  0
LINE
  5
4E
330
17
100
AcDbEntity
  8
SARR_2.2x7
 62
7
370
25
100
AcDbLine
 10
5138.13133233496
 20
8092.561832856164
 30
0.0
 11
5138.131332334971
 21
8125.561832856156
 31
0.0
  0
LINE
  5
4F
330
17
100
AcDbEntity
  8
COTA
 62
7
370
25
100
AcDbLine
 10
5174.131332334975
 20
8092.561832856164
 30
0.0
 11
5174.131332334975
 21
8149.561832856162
 31
0.0
  0
LINE
  5
50
330
17
100
AcDbEntity
  8
COTA
 62
7
370
25
100
AcDbLine
 10
5174.131332334975
 20
8149.561832856162
 30
0.0
 11
5072.131332334983
 21
8149.561832856162
 31
0.0
  0
LINE
  5
51
330
17
100
AcDbEntity
  8
SARR_2.2x7
 62
7
370
25
100
AcDbLine
 10
5145.131332334961
 20
8092.56183285616
 30
0.0
 11
5138.13133233496
 21
8092.56183285616
 31
0.0
  0
LINE
  5
52
330
17
100
AcDbEntity
  8
SARR_2.2x7
 62
7
370
25
100
AcDbLine
 10
5138.13133233496
 20
8092.56183285616
 30
0.0
 11
5138.13133233496
 21
8085.561832856159
 31
0.0
  0
LINE
  5
53
330
17
100
AcDbEntity
  8
SARR_2.2x7
 62
7
370
25
100
AcDbLine
 10
5405.228688195595
 20
7801.56183285616
 30
0.0
 11
5405.228688195595
 21
7923.56183285616
 31
0.0
  0
LINE
  5
54
330
17
100
AcDbEntity
  8
SARR_2.2x7
 62
7
370
25
100
AcDbLine
 10
5405.228688195712
 20
7923.561832856178
 30
0.0
 11
5405.228688195668
 21
8020.561832856165
 31
0.0
  0
LINE
  5
55
330
17
100
AcDbEntity
  8
SARR_2.2x7
 62
7
370
25
100
AcDbLine
 10
5317.228688195654
 20
7801.561832856176
 30
0.0
 11
5317.228688195654
 21
7923.56183285616
 31
0.0
  0
LINE
  5
56
330
17
100
AcDbEntity
  8
SARR_2.2x7
 62
7
370
25
100
AcDbLine
 10
5317.228688195769
 20
7923.561832856178
 30
0.0
 11
5317.228688195687
 21
8020.561832856165
 31
0.0
  0
LINE
  5
57
330
17
100
AcDbEntity
  8
SARR_2.2x7
 62
7
370
25
100
AcDbLine
 10
5405.228688195595
 20
7801.56183285616
 30
0.0
 11
5405.228688195595
 21
7801.561832856188
 31
0.0
  0
LINE
  5
58
330
17
100
AcDbEntity
  8
SARR_2.2x7
 62
7
370
25
100
AcDbLine
 10
5317.228688195654
 20
7801.561832856176
 30
0.0
 11
5317.228688195654
 21
7801.56183285616
 31
0.0
  0
LINE
  5
59
330
17
100
AcDbEntity
  8
Painéis
 62
7
370
25
100
AcDbLine
 10
5310.228688195596
 20
7801.56183285616
 30
0.0
 11
5310.228688195593
 21
7923.56183285616
 31
0.0
  0
LINE
  5
5A
330
17
100
AcDbEntity
  8
Painéis
 62
7
370
25
100
AcDbLine
 10
5310.228688195593
 20
7923.56183285616
 30
0.0
 11
5310.228688195592
 21
8020.561832856163
 31
0.0
  0
LINE
  5
5B
330
17
100
AcDbEntity
  8
Painéis
 62
7
370
25
100
AcDbLine
 10
5412.228688195593
 20
8020.561832856165
 30
0.0
 11
5310.228688195651
 21
8020.561832856165
 31
0.0
  0
LINE
  5
5C
330
17
100
AcDbEntity
  8
Painéis
 62
7
370
25
100
AcDbLine
 10
5412.228688195586
 20
8020.561832856168
 30
0.0
 11
5412.228688195591
 21
7923.56183285616
 31
0.0
  0
LINE
  5
5D
330
17
100
AcDbEntity
  8
Painéis
 62
7
370
25
100
AcDbLine
 10
5412.228688195593
 20
7923.56183285616
 30
0.0
 11
5412.2286881956
 21
7801.56183285616
 31
0.0
  0
LINE
  5
5E
330
17
100
AcDbEntity
  8
Painéis
 62
7
370
25
100
AcDbLine
 10
5412.228688195598
 20
7801.56183285616
 30
0.0
 11
5310.228688195596
 21
7801.56183285616
 31
0.0
  0
LINE
  5
5F
330
17
100
AcDbEntity
  8
Painéis
 62
7
370
25
100
AcDbLine
 10
5310.228688195596
 20
7923.561832856164
 30
0.0
 11
5412.228688195595
 21
7923.561832856169
 31
0.0
  0
LINE
  5
60
330
17
100
AcDbEntity
  8
Painéis
 62
7
370
25
100
AcDbLine
 10
5339.228688195595
 20
8132.561832856154
 30
0.0
 11
5401.228688195582
 21
8132.561832856163
 31
0.0
  0
LINE
  5
61
330
17
100
AcDbEntity
  8
Painéis
 62
7
370
25
100
AcDbLine
 10
5310.228688195606
 20
8020.561832856163
 30
0.0
 11
5412.228688195586
 21
8020.561832856163
 31
0.0
  0
LINE
  5
62
330
17
100
AcDbEntity
  8
Painéis
 62
7
370
25
100
AcDbLine
 10
5339.228688195606
 20
8092.56183285616
 30
0.0
 11
5339.228688195595
 21
8132.561832856163
 31
0.0
  0
LINE
  5
63
330
17
100
AcDbEntity
  8
SARR_2.2x7
 62
7
370
25
100
AcDbLine
 10
5346.228688195606
 20
8092.56183285616
 30
0.0
 11
5346.228688195595
 21
8125.561832856151
 31
0.0
  0
LINE
  5
64
330
17
100
AcDbEntity
  8
COTA
 62
7
370
25
100
AcDbLine
 10
5310.228688195592
 20
8092.56183285616
 30
0.0
 11
5310.228688195592
 21
8149.561832856159
 31
0.0
  0
LINE
  5
65
330
17
100
AcDbEntity
  8
SARR_2.2x7
 62
7
370
25
100
AcDbLine
 10
5145.131332334957
 20
8125.561832856154
 30
0.0
 11
5083.131332334986
 21
8125.561832856156
 31
0.0
  0
LINE
  5
66
330
17
100
AcDbEntity
  8
SARR_2.2x7
 62
7
370
25
100
AcDbLine
 10
5401.228688195584
 20
8125.56183285616
 30
0.0
 11
5339.228688195595
 21
8125.561832856147
 31
0.0
  0
LINE
  5
67
330
17
100
AcDbEntity
  8
COTA
 62
7
370
25
100
AcDbLine
 10
5072.131332335434
 20
8085.561832856162
 30
0.0
 11
5072.131332334983
 21
8149.561832856162
 31
0.0
  0
LINE
  5
68
330
17
100
AcDbEntity
  8
COTA
 62
7
370
25
100
AcDbLine
 10
5412.228688194949
 20
8085.561832856168
 30
0.0
 11
5412.228688195581
 21
8149.561832856155
 31
0.0
  0
LINE
  5
69
330
17
100
AcDbEntity
  8
Painéis
 62
7
370
25
100
AcDbLine
 10
5083.13133233498
 20
8092.561832856164
 30
0.0
 11
5083.131332334988
 21
8132.561832856163
 31
0.0
  0
LINE
  5
6A
330
17
100
AcDbEntity
  8
COTA
 62
7
370
25
100
AcDbLine
 10
5412.228688195581
 20
8149.561832855395
 30
0.0
 11
5310.228688195592
 21
8149.561832856159
 31
0.0
  0
LINE
  5
6B
330
17
100
AcDbEntity
  8
SARR_2.2x7
 62
7
370
25
100
AcDbLine
 10
5561.267590021407
 20
8020.561832856158
 30
0.0
 11
5561.267590021464
 21
7801.561832856163
 31
0.0
  0
LINE
  5
6C
330
17
100
AcDbEntity
  8
SARR_2.2x7
 62
7
370
25
100
AcDbLine
 10
5551.267590021451
 20
8020.561832856158
 30
0.0
 11
5551.267590021406
 21
7801.561832856163
 31
0.0
  0
LINE
  5
6D
330
17
100
AcDbEntity
  8
Painéis
 62
7
370
25
100
AcDbLine
 10
5544.267590021434
 20
7801.561832856163
 30
0.0
 11
5568.267590021434
 21
7801.561832856163
 31
0.0
  0
LINE
  5
6E
330
17
100
AcDbEntity
  8
Painéis
 62
7
370
25
100
AcDbLine
 10
5568.267590021434
 20
7801.561832856163
 30
0.0
 11
5568.267590021429
 21
8020.561832856158
 31
0.0
  0
LINE
  5
6F
330
17
100
AcDbEntity
  8
Painéis
 62
7
370
25
100
AcDbLine
 10
5544.267590021433
 20
8020.561832856158
 30
0.0
 11
5544.267590021434
 21
7801.561832856163
 31
0.0
  0
LINE
  5
70
330
17
100
AcDbEntity
  8
Painéis
 62
7
370
25
100
AcDbLine
 10
5568.267590021434
 20
8020.561832856168
 30
0.0
 11
5544.267590021431
 21
8020.561832856168
 31
0.0
  0
LINE
  5
71
330
17
100
AcDbEntity
  8
SARR_2.2x7
 62
7
370
25
100
AcDbLine
 10
5711.220622887251
 20
8020.561832856158
 30
0.0
 11
5711.220622887307
 21
7801.561832856163
 31
0.0
  0
LINE
  5
72
330
17
100
AcDbEntity
  8
SARR_2.2x7
 62
7
370
25
100
AcDbLine
 10
5701.220622887294
 20
8020.561832856158
 30
0.0
 11
5701.220622887249
 21
7801.561832856163
 31
0.0
  0
LINE
  5
73
330
17
100
AcDbEntity
  8
Painéis
 62
7
370
25
100
AcDbLine
 10
5694.220622887279
 20
7801.561832856163
 30
0.0
 11
5718.220622887279
 21
7801.561832856163
 31
0.0
  0
LINE
  5
74
330
17
100
AcDbEntity
  8
Painéis
 62
7
370
25
100
AcDbLine
 10
5718.220622887279
 20
7801.561832856163
 30
0.0
 11
5718.220622887272
 21
8020.561832856158
 31
0.0
  0
LINE
  5
75
330
17
100
AcDbEntity
  8
Painéis
 62
7
370
25
100
AcDbLine
 10
5694.220622887276
 20
8020.561832856158
 30
0.0
 11
5694.220622887279
 21
7801.561832856163
 31
0.0
  0
LINE
  5
76
330
17
100
AcDbEntity
  8
Painéis
 62
7
370
25
100
AcDbLine
 10
5718.220622887279
 20
8020.561832856168
 30
0.0
 11
5694.220622887275
 21
8020.561832856168
 31
0.0
  0
LINE
  5
77
330
17
100
AcDbEntity
  8
Painéis
 62
7
370
25
100
AcDbLine
 10
5401.228688195588
 20
8092.561832856167
 30
0.0
 11
5401.228688195584
 21
8132.561832856163
 31
0.0
  0
LINE
  5
78
330
17
100
AcDbEntity
  8
COTA
 62
7
370
25
100
AcDbLine
 10
5401.228688195582
 20
8149.561832856162
 30
0.0
 11
5412.228688195581
 21
8149.561832856162
 31
0.0
  0
LINE
  5
79
330
17
100
AcDbEntity
  8
SARR_2.2x7
 62
7
370
25
100
AcDbLine
 10
5167.131332334264
 20
8020.561832856165
 30
0.0
 11
5167.131332334264
 21
8092.561832856628
 31
0.0
  0
LINE
  5
7A
330
17
100
AcDbEntity
  8
SARR_2.2x7
 62
7
370
25
100
AcDbLine
 10
5079.131332335625
 20
8020.561832856165
 30
0.0
 11
5079.131332335624
 21
8065.561832856163
 31
0.0
  0
LINE
  5
7B
330
17
100
AcDbEntity
  8
Painéis
 62
7
370
25
100
AcDbLine
 10
5544.267590021431
 20
8046.561832856152
 30
0.0
 11
5568.267590021431
 21
8046.561832856152
 31
0.0
  0
LINE
  5
7C
330
17
100
AcDbEntity
  8
SARR_2.2x7
 62
7
370
25
100
AcDbLine
 10
5551.26759002146
 20
8020.56183285615
 30
0.0
 11
5551.267590021485
 21
8046.561832856149
 31
0.0
  0
LINE
  5
7D
330
17
100
AcDbEntity
  8
SARR_2.2x7
 62
7
370
25
100
AcDbLine
 10
5561.179769101084
 20
8020.561832856158
 30
0.0
 11
5561.179769101109
 21
8046.561832856156
 31
0.0
  0
LINE
  5
7E
330
17
100
AcDbEntity
  8
Painéis
 62
7
370
25
100
AcDbLine
 10
5568.267590021433
 20
8020.561832856168
 30
0.0
 11
5568.267590021431
 21
8046.561832856152
 31
0.0
  0
LINE
  5
7F
330
17
100
AcDbEntity
  8
Painéis
 62
7
370
25
100
AcDbLine
 10
5544.267590021433
 20
8020.561832856158
 30
0.0
 11
5544.267590021431
 21
8046.561832856141
 31
0.0
  0
LINE
  5
80
330
17
100
AcDbEntity
  8
Painéis
 62
7
370
25
100
AcDbLine
 10
5694.220622887272
 20
8046.561832856163
 30
0.0
 11
5718.220622887272
 21
8046.561832856163
 31
0.0
  0
LINE
  5
81
330
17
100
AcDbEntity
  8
SARR_2.2x7
 62
7
370
25
100
AcDbLine
 10
5701.220622887301
 20
8020.561832856161
 30
0.0
 11
5701.220622887327
 21
8046.561832856161
 31
0.0
  0
LINE
  5
82
330
17
100
AcDbEntity
  8
SARR_2.2x7
 62
7
370
25
100
AcDbLine
 10
5711.132801966925
 20
8020.561832856168
 30
0.0
 11
5711.13280196695
 21
8046.561832856168
 31
0.0
  0
LINE
  5
83
330
17
100
AcDbEntity
  8
Painéis
 62
7
370
25
100
AcDbLine
 10
5718.220622887275
 20
8020.561832856179
 30
0.0
 11
5718.220622887272
 21
8046.561832856163
 31
0.0
  0
LINE
  5
84
330
17
100
AcDbEntity
  8
Painéis
 62
7
370
25
100
AcDbLine
 10
5694.220622887275
 20
8020.561832856168
 30
0.0
 11
5694.220622887272
 21
8046.561832856152
 31
0.0
  0
LINE
  5
85
330
17
100
AcDbEntity
  8
Painéis
 62
7
370
25
100
AcDbLine
 10
5083.13133233498
 20
8092.561832856164
 30
0.0
 11
5083.13133233498
 21
8087.561832856163
 31
0.0
  0
LINE
  5
86
330
17
100
AcDbEntity
  8
Nível
 62
7
370
25
100
AcDbLine
 10
4943.039924077428
 20
8149.561832856162
 30
0.0
 11
5791.680626554517
 21
8149.561832856162
 31
0.0
  0
LINE
  5
87
330
17
100
AcDbEntity
  8
Painéis
 62
7
370
25
100
AcDbLine
 10
5568.267590021433
 20
8020.561832856158
 30
0.0
 11
5544.26759002144
 21
8020.561832856158
 31
0.0
  0
LINE
  5
88
330
17
100
AcDbEntity
  8
Painéis
 62
7
370
25
100
AcDbLine
 10
5718.220622887272
 20
8020.561832856168
 30
0.0
 11
5694.220622887282
 21
8020.561832856168
 31
0.0
  0
LINE
  5
89
330
17
100
AcDbEntity
  8
Painéis
 62
7
370
25
100
AcDbLine
 10
5412.228688195654
 20
8020.561832856165
 30
0.0
 11
5310.228688195712
 21
8020.561832856165
 31
0.0
  0
LINE
  5
8A
330
17
100
AcDbEntity
  8
SARR_2.2x7
 62
7
370
25
100
AcDbLine
 10
5405.228688195724
 20
8020.561832856168
 30
0.0
 11
5405.228688195727
 21
8020.561832856165
 31
0.0
  0
LINE
  5
8B
330
17
100
AcDbEntity
  8
Painéis
 62
7
370
25
100
AcDbLine
 10
5310.228688195667
 20
8020.561832856165
 30
0.0
 11
5412.228688195646
 21
8020.561832856165
 31
0.0
  0
LINE
  5
8C
330
17
100
AcDbEntity
  8
SARR_2.2x7
 62
7
370
25
100
AcDbLine
 10
5310.228688195657
 20
8085.561832856161
 30
0.0
 11
5346.228688195666
 21
8085.561832856159
 31
0.0
  0
LINE
  5
8D
330
17
100
AcDbEntity
  8
SARR_2.2x7
 62
7
370
25
100
AcDbLine
 10
5339.228688195666
 20
8092.56183285616
 30
0.0
 11
5346.228688195666
 21
8092.56183285616
 31
0.0
  0
LINE
  5
8E
330
17
100
AcDbEntity
  8
SARR_2.2x7
 62
7
370
25
100
AcDbLine
 10
5346.228688195666
 20
8092.56183285616
 30
0.0
 11
5346.228688195666
 21
8085.561832856159
 31
0.0
  0
LINE
  5
8F
330
17
100
AcDbEntity
  8
SARR_2.2x7
 62
7
370
25
100
AcDbLine
 10
5317.228688196363
 20
8020.561832856165
 30
0.0
 11
5317.228688196363
 21
8092.561832856628
 31
0.0
  0
LINE
  5
90
330
17
100
AcDbEntity
  8
SARR_2.2x7
 62
7
370
25
100
AcDbLine
 10
5405.228688195002
 20
8020.561832856165
 30
0.0
 11
5405.228688195002
 21
8065.561832856163
 31
0.0
  0
LINE
  5
91
330
17
100
AcDbEntity
  8
Painéis
 62
7
370
25
100
AcDbLine
 10
5401.228688195646
 20
8092.561832856164
 30
0.0
 11
5401.228688195646
 21
8087.561832856163
 31
0.0
  0
LINE
  5
92
330
17
100
AcDbEntity
  8
Painéis
 62
7
370
25
100
AcDbLine
 10
5694.220622887272
 20
8090.561832856176
 30
0.0
 11
5718.220622887272
 21
8090.561832856176
 31
0.0
  0
LINE
  5
93
330
17
100
AcDbEntity
  8
SARR_2.2x7
 62
7
370
25
100
AcDbLine
 10
5701.220622887275
 20
8046.561832856163
 30
0.0
 11
5701.220622887327
 21
8090.561832856172
 31
0.0
  0
LINE
  5
94
330
17
100
AcDbEntity
  8
SARR_2.2x7
 62
7
370
25
100
AcDbLine
 10
5711.132801966898
 20
8046.561832856163
 30
0.0
 11
5711.13280196695
 21
8090.561832856179
 31
0.0
  0
LINE
  5
95
330
17
100
AcDbEntity
  8
Painéis
 62
7
370
25
100
AcDbLine
 10
5718.220622887276
 20
8046.561832856163
 30
0.0
 11
5718.220622887272
 21
8090.561832856176
 31
0.0
  0
LINE
  5
96
330
17
100
AcDbEntity
  8
Painéis
 62
7
370
25
100
AcDbLine
 10
5694.220622887276
 20
8046.561832856163
 30
0.0
 11
5694.220622887272
 21
8090.561832856165
 31
0.0
  0
LINE
  5
97
330
17
100
AcDbEntity
  8
Painéis
 62
7
370
25
100
AcDbLine
 10
5544.267590021429
 20
8065.561832856175
 30
0.0
 11
5568.267590021429
 21
8065.561832856175
 31
0.0
  0
LINE
  5
98
330
17
100
AcDbEntity
  8
SARR_2.2x7
 62
7
370
25
100
AcDbLine
 10
5551.267590021456
 20
8046.561832856152
 30
0.0
 11
5551.267590021484
 21
8065.561832856172
 31
0.0
  0
LINE
  5
99
330
17
100
AcDbEntity
  8
SARR_2.2x7
 62
7
370
25
100
AcDbLine
 10
5561.179769101078
 20
8046.561832856152
 30
0.0
 11
5561.179769101107
 21
8065.561832856179
 31
0.0
  0
LINE
  5
9A
330
17
100
AcDbEntity
  8
Painéis
 62
7
370
25
100
AcDbLine
 10
5568.267590021431
 20
8046.561832856152
 30
0.0
 11
5568.267590021429
 21
8065.561832856175
 31
0.0
  0
LINE
  5
9B
330
17
100
AcDbEntity
  8
Painéis
 62
7
370
25
100
AcDbLine
 10
5544.267590021431
 20
8046.561832856152
 30
0.0
 11
5544.267590021429
 21
8065.561832856165
 31
0.0
  0
LINE
  5
9C
330
17
100
AcDbEntity
  8
SARR_2.2x7
 62
7
370
25
100
AcDbLine
 10
5079.131332335624
 20
8065.561832856163
 30
0.0
 11
5072.131332335249
 21
8065.561832856163
 31
0.0
  0
LINE
  5
9D
330
17
100
AcDbEntity
  8
SARR_2.2x7
 62
7
370
25
100
AcDbLine
 10
5412.228688195377
 20
8065.561832856163
 30
0.0
 11
5405.228688195002
 21
8065.561832856163
 31
0.0
  0
LWPOLYLINE
  5
9E
330
17
100
AcDbEntity
  8
Painéis
 62
7
370
25
100
AcDbPolyline
 90
4
 70
0
 10
5174.131332334975
 20
7801.56183285616
 10
5072.131332334976
 20
7801.56183285619
 10
5072.131332334976
 20
7799.56183285619
 10
5174.131332334975
 20
7799.56183285616
  0
LWPOLYLINE
  5
9F
330
17
100
AcDbEntity
  8
SARRAFO
 62
7
370
25
100
AcDbPolyline
 90
4
 70
0
 10
4530.913148564384
 20
8233.824996115496
 10
4544.91314855024
 20
8233.824996115613
 10
4544.91314855024
 20
8238.224996109931
 10
4530.913148564384
 20
8238.224996109931
  0
LWPOLYLINE
  5
A0
330
17
100
AcDbEntity
  8
SARRAFO
 62
7
370
25
100
AcDbPolyline
 90
4
 70
0
 10
4734.913148520205
 20
8194.624996154193
 10
4720.913148534349
 20
8194.624996154134
 10
4720.913148534349
 20
8190.224996159816
 10
4734.913148520205
 20
8190.224996159816
  0
LWPOLYLINE
  5
A1
330
17
100
AcDbEntity
  8
SARRAFO
 62
7
370
25
100
AcDbPolyline
 90
4
 70
0
 10
4734.913148520205
 20
8233.824996115496
 10
4720.913148534349
 20
8233.824996115613
 10
4720.913148534349
 20
8238.224996109931
 10
4734.913148520205
 20
8238.224996109931
  0
LWPOLYLINE
  5
A2
330
17
100
AcDbEntity
  8
SARRAFO
 62
7
370
25
100
AcDbPolyline
 90
4
 70
0
 10
4530.913148564384
 20
8194.624996154193
 10
4544.91314855024
 20
8194.624996154134
 10
4544.91314855024
 20
8190.224996159816
 10
4530.913148564384
 20
8190.224996159816
  0
LWPOLYLINE
  5
A3
330
17
100
AcDbEntity
  8
Perfil Metálico
 62
7
370
25
100
AcDbPolyline
 90
4
 70
0
 10
4770.913148488395
 20
8260.224996140956
 10
4770.913148488395
 20
8272.224996127918
 10
4494.913148596632
 20
8272.224996127918
 10
4494.913148596632
 20
8260.224996140956
  0
LWPOLYLINE
  5
A4
330
17
100
AcDbEntity
  8
Perfil Metálico
 62
7
370
25
100
AcDbPolyline
 90
4
 70
0
 10
4494.913148596632
 20
8276.22499612361
 10
4494.913148596632
 20
8256.224996145203
 10
4770.913148488395
 20
8256.224996145203
 10
4770.913148488395
 20
8276.22499612361
  0
LWPOLYLINE
  5
A5
330
17
100
AcDbEntity
  8
Perfil Metálico
 62
7
370
25
100
AcDbPolyline
 90
4
 70
0
 10
4770.913148488395
 20
8168.224996184147
 10
4770.913148488395
 20
8156.224996197185
 10
4494.913148596632
 20
8156.224996197185
 10
4494.913148596632
 20
8168.224996184147
  0
LWPOLYLINE
  5
A6
330
17
100
AcDbEntity
  8
Perfil Metálico
 62
7
370
25
100
AcDbPolyline
 90
4
 70
0
 10
4494.913148596632
 20
8152.224996201493
 10
4494.913148596632
 20
8172.224996179897
 10
4770.913148488395
 20
8172.224996179897
 10
4770.913148488395
 20
8152.224996201493
  0
LWPOLYLINE
  5
A7
330
17
100
AcDbEntity
  8
Madeira
 62
7
370
25
100
AcDbPolyline
 90
4
 70
0
 10
4734.928520500816
 20
8172.213383859258
 10
4734.913148520728
 20
8186.213375470108
 10
4530.920137404591
 20
8186.21337547008
 10
4530.935509384678
 20
8172.213383859228
  0
LWPOLYLINE
  5
A8
330
17
100
AcDbEntity
  8
Madeira
 62
7
370
25
100
AcDbPolyline
 90
4
 70
0
 10
4734.928520500816
 20
8256.236608410489
 10
4734.913148520728
 20
8242.236616799639
 10
4530.920137404591
 20
8242.23661679967
 10
4530.935509384678
 20
8256.236608410518
  0
LWPOLYLINE
  5
A9
330
17
100
AcDbEntity
  8
CHAPA
 62
7
370
25
100
AcDbPolyline
 90
4
 70
0
 10
4530.913148564851
 20
8190.224996215171
 10
4530.913148564851
 20
8186.224996215171
 10
4734.913148520205
 20
8186.224996215171
 10
4734.913148520205
 20
8190.224996215171
  0
LWPOLYLINE
  5
AA
330
17
100
AcDbEntity
  8
CHAPA
 62
7
370
25
100
AcDbPolyline
 90
4
 70
0
 10
4530.913148564851
 20
8238.224996054576
 10
4530.913148564851
 20
8242.224996054574
 10
4734.913148520205
 20
8242.224996054574
 10
4734.913148520205
 20
8238.224996054576
  0
LWPOLYLINE
  5
AB
330
17
100
AcDbEntity
  8
CHAPA
 62
7
370
25
100
AcDbPolyline
 90
4
 70
0
 10
4716.513148544658
 20
8238.224996054576
 10
4712.913148544652
 20
8238.224996054576
 10
4712.913148544652
 20
8190.224996215171
 10
4716.513148544658
 20
8190.224996215171
  0
LWPOLYLINE
  5
AC
330
17
100
AcDbEntity
  8
CHAPA
 62
7
370
25
100
AcDbPolyline
 90
4
 70
0
 10
4552.913148544653
 20
8238.224996054634
 10
4549.313148544647
 20
8238.224996054634
 10
4549.313148544647
 20
8190.22499621523
 10
4552.913148544653
 20
8190.22499621523
  0
LWPOLYLINE
  5
AD
330
17
100
AcDbEntity
  8
CHAPA
 62
7
370
25
100
AcDbPolyline
 90
4
 70
0
 10
4530.913148564851
 20
8190.224996215171
 10
4530.913148564851
 20
8186.224996215171
 10
4734.913148520205
 20
8186.224996215171
 10
4734.913148520205
 20
8190.224996215171
  0
LWPOLYLINE
  5
AE
330
17
100
AcDbEntity
  8
CHAPA
 62
7
370
25
100
AcDbPolyline
 90
4
 70
0
 10
4530.913148564851
 20
8238.224996054576
 10
4530.913148564851
 20
8242.224996054574
 10
4734.913148520205
 20
8242.224996054574
 10
4734.913148520205
 20
8238.224996054576
  0
LWPOLYLINE
  5
AF
330
17
100
AcDbEntity
  8
CHAPA
 62
7
370
25
100
AcDbPolyline
 90
4
 70
0
 10
4716.513148544658
 20
8238.224996054576
 10
4712.913148544652
 20
8238.224996054576
 10
4712.913148544652
 20
8190.224996215171
 10
4716.513148544658
 20
8190.224996215171
  0
LWPOLYLINE
  5
B0
330
17
100
AcDbEntity
  8
CHAPA
 62
7
370
25
100
AcDbPolyline
 90
4
 70
0
 10
4552.913148544653
 20
8238.224996054634
 10
4549.313148544647
 20
8238.224996054634
 10
4549.313148544647
 20
8190.22499621523
 10
4552.913148544653
 20
8190.22499621523
  0
LWPOLYLINE
  5
B1
330
17
100
AcDbEntity
  8
SARRAFO
 62
7
370
25
100
AcDbPolyline
 90
4
 70
0
 10
4716.513148539943
 20
8204.224996311708
 10
4716.51314854003
 20
8190.224996325852
 10
4720.913148534349
 20
8190.224996325852
 10
4720.913148534349
 20
8204.224996311708
  0
LWPOLYLINE
  5
B2
330
17
100
AcDbEntity
  8
SARRAFO
 62
7
370
25
100
AcDbPolyline
 90
4
 70
0
 10
4544.91314855024
 20
8204.224996311767
 10
4544.913148550327
 20
8190.224996325911
 10
4549.313148544647
 20
8190.224996325911
 10
4549.313148544647
 20
8204.224996311767
  0
LWPOLYLINE
  5
B3
330
17
100
AcDbEntity
  8
SARRAFO
 62
7
370
25
100
AcDbPolyline
 90
4
 70
0
 10
4716.513148539943
 20
8224.224995958039
 10
4716.51314854003
 20
8238.224995943892
 10
4720.913148534349
 20
8238.224995943892
 10
4720.913148534349
 20
8224.224995958039
  0
LWPOLYLINE
  5
B4
330
17
100
AcDbEntity
  8
SARRAFO
 62
7
370
25
100
AcDbPolyline
 90
4
 70
0
 10
4544.91314855024
 20
8224.22499595798
 10
4544.913148550327
 20
8238.224995943836
 10
4549.313148544647
 20
8238.224995943836
 10
4549.313148544647
 20
8224.22499595798
  0
LWPOLYLINE
  5
B5
330
17
100
AcDbEntity
  8
Painéis
 62
7
370
25
100
AcDbPolyline
 90
4
 70
0
 10
4712.913148544652
 20
8190.224996215171
 10
4712.913148544652
 20
8238.224996054576
 10
4552.913148544653
 20
8238.224996054576
 10
4552.913148544653
 20
8190.224996215171
  0
LWPOLYLINE
  5
B6
330
17
100
AcDbEntity
  8
Painéis
 62
7
370
25
100
AcDbPolyline
 90
4
 70
0
 10
5310.228688195596
 20
7801.56183285616
 10
5412.228688195595
 20
7801.56183285619
 10
5412.228688195595
 20
7799.56183285619
 10
5310.228688195596
 20
7799.56183285616
  0
LWPOLYLINE
  5
B7
330
17
100
AcDbEntity
  8
COTA
 62
7
370
25
100
AcDbPolyline
 90
4
 70
0
 10
5568.267590021429
 20
8065.561832856165
 10
5568.267590021429
 20
8149.561832856162
 10
5544.267590021429
 20
8149.561832856162
 10
5544.267590021429
 20
8065.561832856165
  0
LWPOLYLINE
  5
B8
330
17
100
AcDbEntity
  8
Painéis
 62
7
370
25
100
AcDbPolyline
 90
4
 70
0
 10
5544.267590021434
 20
7801.561832856163
 10
5568.267590021434
 20
7801.561832856163
 10
5568.267590021434
 20
7799.561832856163
 10
5544.267590021434
 20
7799.561832856163
  0
LWPOLYLINE
  5
B9
330
17
100
AcDbEntity
  8
COTA
 62
7
370
25
100
AcDbPolyline
 90
4
 70
0
 10
5718.220622887272
 20
8090.561832856165
 10
5718.220622887272
 20
8149.561832856162
 10
5694.220622887272
 20
8149.561832856162
 10
5694.220622887272
 20
8090.561832856165
  0
LWPOLYLINE
  5
BA
330
17
100
AcDbEntity
  8
Painéis
 62
7
370
25
100
AcDbPolyline
 90
4
 70
0
 10
5694.220622887279
 20
7801.561832856163
 10
5718.220622887279
 20
7801.561832856163
 10
5718.220622887279
 20
7799.561832856163
 10
5694.220622887279
 20
7799.561832856163
  0
LWPOLYLINE
  5
BB
330
17
100
AcDbEntity
  8
Painéis
 62
7
370
25
100
AcDbPolyline
 90
7
 70
0
 10
5174.131332334916
 20
8020.561832856165
 10
5174.131332334975
 20
8092.561832856164
 10
5083.131332334979
 20
8092.561832856164
 10
5083.131332334979
 20
8085.561832856162
 10
5072.131332335372
 20
8085.561832856162
 10
5072.131332334973
 20
8020.561832856165
 10
5174.131332334975
 20
8020.561832856165
  0
LWPOLYLINE
  5
BC
330
17
100
AcDbEntity
  8
Painéis
 62
7
370
25
100
AcDbPolyline
 90
7
 70
0
 10
5310.228688195712
 20
8020.561832856165
 10
5310.228688195651
 20
8092.561832856164
 10
5401.228688195646
 20
8092.561832856164
 10
5401.228688195646
 20
8085.561832856162
 10
5412.228688195256
 20
8085.561832856162
 10
5412.228688195654
 20
8020.561832856165
 10
5310.228688195651
 20
8020.561832856165
  0
ENDSEC
  0
SECTION
  2
OBJECTS
  0
DICTIONARY
  5
A
330
0
100
AcDbDictionary
281
1
  3
ACAD_COLOR
350
B
  3
ACAD_GROUP
350
C
  3
ACAD_LAYOUT
350
D
  3
ACAD_MATERIAL
350
E
  3
ACAD_MLEADERSTYLE
350
F
  3
ACAD_MLINESTYLE
350
10
  3
ACAD_PLOTSETTINGS
350
11
  3
ACAD_PLOTSTYLENAME
350
12
  3
ACAD_SCALELIST
350
14
  3
ACAD_TABLESTYLE
350
15
  3
ACAD_VISUALSTYLE
350
16
  3
EZDXF_META
350
2D
  0
DICTIONARY
  5
B
330
A
100
AcDbDictionary
281
1
  0
DICTIONARY
  5
C
330
A
100
AcDbDictionary
281
1
  0
DICTIONARY
  5
D
330
A
100
AcDbDictionary
281
1
  3
Model
350
1A
  3
Layout1
350
1E
  0
DICTIONARY
  5
E
330
A
100
AcDbDictionary
281
1
  3
ByBlock
350
1F
  3
ByLayer
350
20
  3
Global
350
21
  0
DICTIONARY
  5
F
330
A
100
AcDbDictionary
281
1
  3
Standard
350
2C
  0
DICTIONARY
  5
10
330
A
100
AcDbDictionary
281
1
  3
Standard
350
22
  0
DICTIONARY
  5
11
330
A
100
AcDbDictionary
281
1
  0
ACDBDICTIONARYWDFLT
  5
12
330
A
100
AcDbDictionary
281
1
  3
Normal
350
13
100
AcDbDictionaryWithDefault
340
13
  0
ACDBPLACEHOLDER
  5
13
330
12
  0
DICTIONARY
  5
14
330
A
100
AcDbDictionary
281
1
  0
DICTIONARY
  5
15
330
A
100
AcDbDictionary
281
1
  0
DICTIONARY
  5
16
330
A
100
AcDbDictionary
281
1
  0
LAYOUT
  5
1A
330
D
100
AcDbPlotSettings
  1

  4
A3
  6

 40
7.5
 41
20.0
 42
7.5
 43
20.0
 44
420.0
 45
297.0
 46
0.0
 47
0.0
 48
0.0
 49
0.0
140
0.0
141
0.0
142
1.0
143
1.0
 70
1024
 72
1
 73
0
 74
5
  7

 75
16
 76
0
 77
2
 78
300
147
1.0
148
0.0
149
0.0
100
AcDbLayout
  1
Model
 70
1
 71
0
 10
0.0
 20
0.0
 11
420.0
 21
297.0
 12
0.0
 22
0.0
 32
0.0
 14
1e+20
 24
1e+20
 34
1e+20
 15
-1e+20
 25
-1e+20
 35
-1e+20
146
0.0
 13
0.0
 23
0.0
 33
0.0
 16
1.0
 26
0.0
 36
0.0
 17
0.0
 27
1.0
 37
0.0
 76
1
330
17
  0
LAYOUT
  5
1E
330
D
100
AcDbPlotSettings
  1

  4
A3
  6

 40
7.5
 41
20.0
 42
7.5
 43
20.0
 44
420.0
 45
297.0
 46
0.0
 47
0.0
 48
0.0
 49
0.0
140
0.0
141
0.0
142
1.0
143
1.0
 70
0
 72
1
 73
0
 74
5
  7

 75
16
 76
0
 77
2
 78
300
147
1.0
148
0.0
149
0.0
100
AcDbLayout
  1
Layout1
 70
1
 71
1
 10
0.0
 20
0.0
 11
420.0
 21
297.0
 12
0.0
 22
0.0
 32
0.0
 14
1e+20
 24
1e+20
 34
1e+20
 15
-1e+20
 25
-1e+20
 35
-1e+20
146
0.0
 13
0.0
 23
0.0
 33
0.0
 16
1.0
 26
0.0
 36
0.0
 17
0.0
 27
1.0
 37
0.0
 76
1
330
1B
  0
MATERIAL
  5
1F
102
{ACAD_REACTORS
330
E
102
}
330
E
100
AcDbMaterial
  1
ByBlock
  2

 70
0
 40
1.0
 71
1
 41
1.0
 91
-1023410177
 42
1.0
 72
1
  3

 73
1
 74
1
 75
1
 44
0.5
 73
0
 45
1.0
 46
1.0
 77
1
  4

 78
1
 79
1
170
1
 48
1.0
171
1
  6

172
1
173
1
174
1
140
1.0
141
1.0
175
1
  7

176
1
177
1
178
1
143
1.0
179
1
  8

270
1
271
1
272
1
145
1.0
146
1.0
273
1
  9

274
1
275
1
276
1
 42
1.0
 72
1
  3

 73
1
 74
1
 75
1
 94
63
  0
MATERIAL
  5
20
102
{ACAD_REACTORS
330
E
102
}
330
E
100
AcDbMaterial
  1
ByLayer
  2

 70
0
 40
1.0
 71
1
 41
1.0
 91
-1023410177
 42
1.0
 72
1
  3

 73
1
 74
1
 75
1
 44
0.5
 73
0
 45
1.0
 46
1.0
 77
1
  4

 78
1
 79
1
170
1
 48
1.0
171
1
  6

172
1
173
1
174
1
140
1.0
141
1.0
175
1
  7

176
1
177
1
178
1
143
1.0
179
1
  8

270
1
271
1
272
1
145
1.0
146
1.0
273
1
  9

274
1
275
1
276
1
 42
1.0
 72
1
  3

 73
1
 74
1
 75
1
 94
63
  0
MATERIAL
  5
21
102
{ACAD_REACTORS
330
E
102
}
330
E
100
AcDbMaterial
  1
Global
  2

 70
0
 40
1.0
 71
1
 41
1.0
 91
-1023410177
 42
1.0
 72
1
  3

 73
1
 74
1
 75
1
 44
0.5
 73
0
 45
1.0
 46
1.0
 77
1
  4

 78
1
 79
1
170
1
 48
1.0
171
1
  6

172
1
173
1
174
1
140
1.0
141
1.0
175
1
  7

176
1
177
1
178
1
143
1.0
179
1
  8

270
1
271
1
272
1
145
1.0
146
1.0
273
1
  9

274
1
275
1
276
1
 42
1.0
 72
1
  3

 73
1
 74
1
 75
1
 94
63
  0
MLINESTYLE
  5
22
102
{ACAD_REACTORS
330
10
102
}
330
10
100
AcDbMlineStyle
  2
Standard
 70
0
  3

 62
256
 51
90.0
 52
90.0
 71
2
 49
0.5
 62
256
  6
BYLAYER
 49
-0.5
 62
256
  6
BYLAYER
  0
MLEADERSTYLE
  5
2C
102
{ACAD_REACTORS
330
F
102
}
330
F
100
AcDbMLeaderStyle
179
2
170
2
171
1
172
0
 90
2
 40
0.0
 41
0.0
173
1
 91
-1056964608
 92
-2
290
1
 42
2.0
291
1
 43
8.0
  3
Standard
 44
4.0
300

342
29
174
1
175
1
176
0
178
1
 93
-1056964608
 45
4.0
292
0
297
0
 46
4.0
 94
-1056964608
 47
1.0
 49
1.0
140
1.0
294
1
141
0.0
177
0
142
1.0
295
0
296
0
143
3.75
271
0
272
9
273
9
  0
DICTIONARY
  5
2D
330
A
100
AcDbDictionary
280
1
281
1
  3
CREATED_BY_EZDXF
350
2E
  3
WRITTEN_BY_EZDXF
350
BF
  0
DICTIONARYVAR
  5
2E
330
2D
100
DictionaryVariables
280
0
  1
1.4.3 @ 2026-06-10T03:13:49.897596+00:00
  0
DICTIONARYVAR
  5
BF
330
2D
100
DictionaryVariables
280
0
  1
1.4.3 @ 2026-06-10T03:13:49.903144+00:00
  0
ENDSEC
  0
EOF
