  0
SECTION
  2
HEADER
  9
$ACADVER
  1
AC1024
  9
$ACADMAINTVER
 70
6
  9
$DWGCODEPAGE
  3
ANSI_1252
  9
$LASTSAVEDBY
  1
ezdxf
  9
$INSBASE
 10
0.0
 20
0.0
 30
0.0
  9
$EXTMIN
 10
1e+20
 20
1e+20
 30
1e+20
  9
$EXTMAX
 10
-1e+20
 20
-1e+20
 30
-1e+20
  9
$LIMMIN
 10
0.0
 20
0.0
  9
$LIMMAX
 10
420.0
 20
297.0
  9
$ORTHOMODE
 70
0
  9
$REGENMODE
 70
1
  9
$FILLMODE
 70
1
  9
$QTEXTMODE
 70
0
  9
$MIRRTEXT
 70
1
  9
$LTSCALE
 40
1.0
  9
$ATTMODE
 70
1
  9
$TEXTSIZE
 40
2.5
  9
$TRACEWID
 40
1.0
  9
$TEXTSTYLE
  7
Standard
  9
$CLAYER
  8
0
  9
$CELTYPE
  6
ByLayer
  9
$CECOLOR
 62
256
  9
$CELTSCALE
 40
1.0
  9
$DISPSILH
 70
0
  9
$DIMSCALE
 40
1.0
  9
$DIMASZ
 40
2.5
  9
$DIMEXO
 40
0.625
  9
$DIMDLI
 40
3.75
  9
$DIMRND
 40
0.0
  9
$DIMDLE
 40
0.0
  9
$DIMEXE
 40
1.25
  9
$DIMTP
 40
0.0
  9
$DIMTM
 40
0.0
  9
$DIMTXT
 40
2.5
  9
$DIMCEN
 40
2.5
  9
$DIMTSZ
 40
0.0
  9
$DIMTOL
 70
0
  9
$DIMLIM
 70
0
  9
$DIMTIH
 70
0
  9
$DIMTOH
 70
0
  9
$DIMSE1
 70
0
  9
$DIMSE2
 70
0
  9
$DIMTAD
 70
1
  9
$DIMZIN
 70
8
  9
$DIMBLK
  1

  9
$DIMASO
 70
1
  9
$DIMSHO
 70
1
  9
$DIMPOST
  1

  9
$DIMAPOST
  1

  9
$DIMALT
 70
0
  9
$DIMALTD
 70
3
  9
$DIMALTF
 40
0.03937007874
  9
$DIMLFAC
 40
1.0
  9
$DIMTOFL
 70
1
  9
$DIMTVP
 40
0.0
  9
$DIMTIX
 70
0
  9
$DIMSOXD
 70
0
  9
$DIMSAH
 70
0
  9
$DIMBLK1
  1

  9
$DIMBLK2
  1

  9
$DIMSTYLE
  2
ISO-25
  9
$DIMCLRD
 70
0
  9
$DIMCLRE
 70
0
  9
$DIMCLRT
 70
0
  9
$DIMTFAC
 40
1.0
  9
$DIMGAP
 40
0.625
  9
$DIMJUST
 70
0
  9
$DIMSD1
 70
0
  9
$DIMSD2
 70
0
  9
$DIMTOLJ
 70
0
  9
$DIMTZIN
 70
8
  9
$DIMALTZ
 70
0
  9
$DIMALTTZ
 70
0
  9
$DIMUPT
 70
0
  9
$DIMDEC
 70
2
  9
$DIMTDEC
 70
2
  9
$DIMALTU
 70
2
  9
$DIMALTTD
 70
3
  9
$DIMTXSTY
  7
Standard
  9
$DIMAUNIT
 70
0
  9
$DIMADEC
 70
0
  9
$DIMALTRND
 40
0.0
  9
$DIMAZIN
 70
0
  9
$DIMDSEP
 70
44
  9
$DIMATFIT
 70
3
  9
$DIMFRAC
 70
0
  9
$DIMLDRBLK
  1

  9
$DIMLUNIT
 70
2
  9
$DIMLWD
 70
-2
  9
$DIMLWE
 70
-2
  9
$DIMTMOVE
 70
0
  9
$DIMFXL
 40
1.0
  9
$DIMFXLON
 70
0
  9
$DIMJOGANG
 40
0.785398163397
  9
$DIMTFILL
 70
0
  9
$DIMTFILLCLR
 70
0
  9
$DIMARCSYM
 70
0
  9
$DIMLTYPE
  6

  9
$DIMLTEX1
  6

  9
$DIMLTEX2
  6

  9
$DIMTXTDIRECTION
 70
0
  9
$LUNITS
 70
2
  9
$LUPREC
 70
4
  9
$SKETCHINC
 40
1.0
  9
$FILLETRAD
 40
10.0
  9
$AUNITS
 70
0
  9
$AUPREC
 70
2
  9
$MENU
  1
.
  9
$ELEVATION
 40
0.0
  9
$PELEVATION
 40
0.0
  9
$THICKNESS
 40
0.0
  9
$LIMCHECK
 70
0
  9
$CHAMFERA
 40
0.0
  9
$CHAMFERB
 40
0.0
  9
$CHAMFERC
 40
0.0
  9
$CHAMFERD
 40
0.0
  9
$SKPOLY
 70
0
  9
$TDCREATE
 40
2461202.5797569444
  9
$TDUCREATE
 40
2458532.153996898
  9
$TDUPDATE
 40
2461202.5797569444
  9
$TDUUPDATE
 40
2458532.1544311
  9
$TDINDWG
 40
0.0
  9
$TDUSRTIMER
 40
0.0
  9
$USRTIMER
 70
1
  9
$ANGBASE
 50
0.0
  9
$ANGDIR
 70
0
  9
$PDMODE
 70
0
  9
$PDSIZE
 40
0.0
  9
$PLINEWID
 40
0.0
  9
$SPLFRAME
 70
0
  9
$SPLINETYPE
 70
6
  9
$SPLINESEGS
 70
8
  9
$HANDSEED
  5
2E3
  9
$SURFTAB1
 70
6
  9
$SURFTAB2
 70
6
  9
$SURFTYPE
 70
6
  9
$SURFU
 70
6
  9
$SURFV
 70
6
  9
$UCSBASE
  2

  9
$UCSNAME
  2

  9
$UCSORG
 10
0.0
 20
0.0
 30
0.0
  9
$UCSXDIR
 10
1.0
 20
0.0
 30
0.0
  9
$UCSYDIR
 10
0.0
 20
1.0
 30
0.0
  9
$UCSORTHOREF
  2

  9
$UCSORTHOVIEW
 70
0
  9
$UCSORGTOP
 10
0.0
 20
0.0
 30
0.0
  9
$UCSORGBOTTOM
 10
0.0
 20
0.0
 30
0.0
  9
$UCSORGLEFT
 10
0.0
 20
0.0
 30
0.0
  9
$UCSORGRIGHT
 10
0.0
 20
0.0
 30
0.0
  9
$UCSORGFRONT
 10
0.0
 20
0.0
 30
0.0
  9
$UCSORGBACK
 10
0.0
 20
0.0
 30
0.0
  9
$PUCSBASE
  2

  9
$PUCSNAME
  2

  9
$PUCSORG
 10
0.0
 20
0.0
 30
0.0
  9
$PUCSXDIR
 10
1.0
 20
0.0
 30
0.0
  9
$PUCSYDIR
 10
0.0
 20
1.0
 30
0.0
  9
$PUCSORTHOREF
  2

  9
$PUCSORTHOVIEW
 70
0
  9
$PUCSORGTOP
 10
0.0
 20
0.0
 30
0.0
  9
$PUCSORGBOTTOM
 10
0.0
 20
0.0
 30
0.0
  9
$PUCSORGLEFT
 10
0.0
 20
0.0
 30
0.0
  9
$PUCSORGRIGHT
 10
0.0
 20
0.0
 30
0.0
  9
$PUCSORGFRONT
 10
0.0
 20
0.0
 30
0.0
  9
$PUCSORGBACK
 10
0.0
 20
0.0
 30
0.0
  9
$USERI1
 70
0
  9
$USERI2
 70
0
  9
$USERI3
 70
0
  9
$USERI4
 70
0
  9
$USERI5
 70
0
  9
$USERR1
 40
0.0
  9
$USERR2
 40
0.0
  9
$USERR3
 40
0.0
  9
$USERR4
 40
0.0
  9
$USERR5
 40
0.0
  9
$WORLDVIEW
 70
1
  9
$SHADEDGE
 70
3
  9
$SHADEDIF
 70
70
  9
$TILEMODE
 70
1
  9
$MAXACTVP
 70
64
  9
$PINSBASE
 10
0.0
 20
0.0
 30
0.0
  9
$PLIMCHECK
 70
0
  9
$PEXTMIN
 10
1e+20
 20
1e+20
 30
1e+20
  9
$PEXTMAX
 10
-1e+20
 20
-1e+20
 30
-1e+20
  9
$PLIMMIN
 10
0.0
 20
0.0
  9
$PLIMMAX
 10
420.0
 20
297.0
  9
$UNITMODE
 70
0
  9
$VISRETAIN
 70
1
  9
$PLINEGEN
 70
0
  9
$PSLTSCALE
 70
1
  9
$TREEDEPTH
 70
3020
  9
$CMLSTYLE
  2
Standard
  9
$CMLJUST
 70
0
  9
$CMLSCALE
 40
20.0
  9
$PROXYGRAPHICS
 70
1
  9
$MEASUREMENT
 70
1
  9
$CELWEIGHT
370
-1
  9
$ENDCAPS
280
0
  9
$JOINSTYLE
280
0
  9
$LWDISPLAY
290
0
  9
$INSUNITS
 70
6
  9
$HYPERLINKBASE
  1

  9
$STYLESHEET
  1

  9
$XEDIT
290
1
  9
$CEPSNTYPE
380
0
  9
$PSTYLEMODE
290
1
  9
$FINGERPRINTGUID
  2
{718272F6-388A-4AE4-BDEB-18E91AAB4719}
  9
$VERSIONGUID
  2
{C78C7EAD-9796-435B-B9D4-20CB516C4226}
  9
$EXTNAMES
290
1
  9
$PSVPSCALE
 40
0.0
  9
$OLESTARTUP
290
0
  9
$SORTENTS
280
127
  9
$INDEXCTL
280
0
  9
$HIDETEXT
280
1
  9
$XCLIPFRAME
280
1
  9
$HALOGAP
280
0
  9
$OBSCOLOR
 70
257
  9
$OBSLTYPE
280
0
  9
$INTERSECTIONDISPLAY
280
0
  9
$INTERSECTIONCOLOR
 70
257
  9
$DIMASSOC
280
2
  9
$PROJECTNAME
  1

  9
$CAMERADISPLAY
290
0
  9
$LENSLENGTH
 40
50.0
  9
$CAMERAHEIGHT
 40
0.0
  9
$STEPSPERSEC
 40
24.0
  9
$STEPSIZE
 40
100.0
  9
$3DDWFPREC
 40
2.0
  9
$PSOLWIDTH
 40
0.005
  9
$PSOLHEIGHT
 40
0.08
  9
$LOFTANG1
 40
1.570796326795
  9
$LOFTANG2
 40
1.570796326795
  9
$LOFTMAG1
 40
0.0
  9
$LOFTMAG2
 40
0.0
  9
$LOFTPARAM
 70
7
  9
$LOFTNORMALS
280
1
  9
$LATITUDE
 40
37.795
  9
$LONGITUDE
 40
-122.394
  9
$NORTHDIRECTION
 40
0.0
  9
$TIMEZONE
 70
-8000
  9
$LIGHTGLYPHDISPLAY
280
1
  9
$TILEMODELIGHTSYNCH
280
1
  9
$CMATERIAL
347
20
  9
$SOLIDHIST
280
0
  9
$SHOWHIST
280
1
  9
$DWFFRAME
280
2
  9
$DGNFRAME
280
2
  9
$REALWORLDSCALE
290
1
  9
$INTERFERECOLOR
 62
256
  9
$CSHADOW
280
0
  9
$SHADOWPLANELOCATION
 40
0.0
  0
ENDSEC
  0
SECTION
  2
CLASSES
  0
CLASS
  1
ACDBDICTIONARYWDFLT
  2
AcDbDictionaryWithDefault
  3
ObjectDBX Classes
 90
0
 91
0
280
0
281
0
  0
CLASS
  1
SUN
  2
AcDbSun
  3
SCENEOE
 90
1153
 91
0
280
0
281
0
  0
CLASS
  1
VISUALSTYLE
  2
AcDbVisualStyle
  3
ObjectDBX Classes
 90
4095
 91
0
280
0
281
0
  0
CLASS
  1
MATERIAL
  2
AcDbMaterial
  3
ObjectDBX Classes
 90
1153
 91
0
280
0
281
0
  0
CLASS
  1
SCALE
  2
AcDbScale
  3
ObjectDBX Classes
 90
1153
 91
0
280
0
281
0
  0
CLASS
  1
TABLESTYLE
  2
AcDbTableStyle
  3
ObjectDBX Classes
 90
4095
 91
0
280
0
281
0
  0
CLASS
  1
MLEADERSTYLE
  2
AcDbMLeaderStyle
  3
ACDB_MLEADERSTYLE_CLASS
 90
4095
 91
0
280
0
281
0
  0
CLASS
  1
DICTIONARYVAR
  2
AcDbDictionaryVar
  3
ObjectDBX Classes
 90
0
 91
0
280
0
281
0
  0
CLASS
  1
CELLSTYLEMAP
  2
AcDbCellStyleMap
  3
ObjectDBX Classes
 90
1152
 91
0
280
0
281
0
  0
CLASS
  1
MENTALRAYRENDERSETTINGS
  2
AcDbMentalRayRenderSettings
  3
SCENEOE
 90
1024
 91
0
280
0
281
0
  0
CLASS
  1
ACDBDETAILVIEWSTYLE
  2
AcDbDetailViewStyle
  3
ObjectDBX Classes
 90
1025
 91
0
280
0
281
0
  0
CLASS
  1
ACDBSECTIONVIEWSTYLE
  2
AcDbSectionViewStyle
  3
ObjectDBX Classes
 90
1025
 91
0
280
0
281
0
  0
CLASS
  1
RASTERVARIABLES
  2
AcDbRasterVariables
  3
ISM
 90
0
 91
0
280
0
281
0
  0
CLASS
  1
LAYOUT
  2
AcDbLayout
  3
ObjectDBX Classes
 90
0
 91
0
280
0
281
0
  0
CLASS
  1
ACDBPLACEHOLDER
  2
AcDbPlaceHolder
  3
ObjectDBX Classes
 90
0
 91
0
280
0
281
0
  0
ENDSEC
  0
SECTION
  2
TABLES
  0
TABLE
  2
VPORT
  5
8
330
0
100
AcDbSymbolTable
 70
1
  0
VPORT
  5
23
330
8
100
AcDbSymbolTableRecord
100
AcDbViewportTableRecord
  2
*Active
 70
0
 10
0.0
 20
0.0
 11
1.0
 21
1.0
 12
0.0
 22
0.0
 13
0.0
 23
0.0
 14
0.5
 24
0.5
 15
0.5
 25
0.5
 16
0.0
 26
0.0
 36
1.0
 17
0.0
 27
0.0
 37
0.0
 40
1000.0
 41
1.34
 42
50.0
 43
0.0
 44
0.0
 50
0.0
 51
0.0
 71
0
 72
1000
 73
1
 74
3
 75
0
 76
0
 77
0
 78
0
281
0
 65
0
146
0.0
  0
ENDTAB
  0
TABLE
  2
LTYPE
  5
2
330
0
100
AcDbSymbolTable
 70
3
  0
LTYPE
  5
24
330
2
100
AcDbSymbolTableRecord
100
AcDbLinetypeTableRecord
  2
ByBlock
 70
0
  3

 72
65
 73
0
 40
0.0
  0
LTYPE
  5
25
330
2
100
AcDbSymbolTableRecord
100
AcDbLinetypeTableRecord
  2
ByLayer
 70
0
  3

 72
65
 73
0
 40
0.0
  0
LTYPE
  5
26
330
2
100
AcDbSymbolTableRecord
100
AcDbLinetypeTableRecord
  2
Continuous
 70
0
  3

 72
65
 73
0
 40
0.0
  0
ENDTAB
  0
TABLE
  2
LAYER
  5
1
330
0
100
AcDbSymbolTable
 70
14
  0
LAYER
  5
27
330
1
100
AcDbSymbolTableRecord
100
AcDbLayerTableRecord
  2
0
 70
0
 62
7
  6
Continuous
370
-3
390
13
347
21
  0
LAYER
  5
28
330
1
100
AcDbSymbolTableRecord
100
AcDbLayerTableRecord
  2
Defpoints
 70
0
 62
7
  6
Continuous
290
0
370
-3
390
13
347
21
  0
LAYER
  5
2F
330
1
100
AcDbSymbolTableRecord
100
AcDbLayerTableRecord
  2
COTA
 70
0
 62
7
  6
Continuous
370
-3
390
13
347
21
  0
LAYER
  5
30
330
1
100
AcDbSymbolTableRecord
100
AcDbLayerTableRecord
  2
Perfil Metálico
 70
0
 62
7
  6
Continuous
370
-3
390
13
347
21
  0
LAYER
  5
31
330
1
100
AcDbSymbolTableRecord
100
AcDbLayerTableRecord
  2
TEXTO_GERAL
 70
0
 62
7
  6
Continuous
370
-3
390
13
347
21
  0
LAYER
  5
32
330
1
100
AcDbSymbolTableRecord
100
AcDbLayerTableRecord
  2
Hachura
 70
0
 62
7
  6
Continuous
370
-3
390
13
347
21
  0
LAYER
  5
33
330
1
100
AcDbSymbolTableRecord
100
AcDbLayerTableRecord
  2
Painéis
 70
0
 62
7
  6
Continuous
370
-3
390
13
347
21
  0
LAYER
  5
34
330
1
100
AcDbSymbolTableRecord
100
AcDbLayerTableRecord
  2
Madeira
 70
0
 62
7
  6
Continuous
370
-3
390
13
347
21
  0
LAYER
  5
35
330
1
100
AcDbSymbolTableRecord
100
AcDbLayerTableRecord
  2
CHAPA
 70
0
 62
7
  6
Continuous
370
-3
390
13
347
21
  0
LAYER
  5
36
330
1
100
AcDbSymbolTableRecord
100
AcDbLayerTableRecord
  2
SARR_2.2x7
 70
0
 62
7
  6
Continuous
370
-3
390
13
347
21
  0
LAYER
  5
37
330
1
100
AcDbSymbolTableRecord
100
AcDbLayerTableRecord
  2
SARRAFO
 70
0
 62
7
  6
Continuous
370
-3
390
13
347
21
  0
LAYER
  5
38
330
1
100
AcDbSymbolTableRecord
100
AcDbLayerTableRecord
  2
NOMENCLATURA
 70
0
 62
7
  6
Continuous
370
-3
390
13
347
21
  0
LAYER
  5
39
330
1
100
AcDbSymbolTableRecord
100
AcDbLayerTableRecord
  2
Nível
 70
0
 62
7
  6
Continuous
370
-3
390
13
347
21
  0
LAYER
  5
3A
330
1
100
AcDbSymbolTableRecord
100
AcDbLayerTableRecord
  2
Texto Seção
 70
0
 62
7
  6
Continuous
370
-3
390
13
347
21
  0
ENDTAB
  0
TABLE
  2
STYLE
  5
5
330
0
100
AcDbSymbolTable
 70
1
  0
STYLE
  5
29
330
5
100
AcDbSymbolTableRecord
100
AcDbTextStyleTableRecord
  2
Standard
 70
0
 40
0.0
 41
1.0
 50
0.0
 71
0
 42
2.5
  3
txt
  4

  0
ENDTAB
  0
TABLE
  2
VIEW
  5
7
330
0
100
AcDbSymbolTable
 70
0
  0
ENDTAB
  0
TABLE
  2
UCS
  5
6
330
0
100
AcDbSymbolTable
 70
0
  0
ENDTAB
  0
TABLE
  2
APPID
  5
3
330
0
100
AcDbSymbolTable
 70
3
  0
APPID
  5
2A
330
3
100
AcDbSymbolTableRecord
100
AcDbRegAppTableRecord
  2
ACAD
 70
0
  0
APPID
  5
2E0
330
3
100
AcDbSymbolTableRecord
100
AcDbRegAppTableRecord
  2
HATCHBACKGROUNDCOLOR
 70
0
  0
APPID
  5
2E1
330
3
100
AcDbSymbolTableRecord
100
AcDbRegAppTableRecord
  2
EZDXF
 70
0
  0
ENDTAB
  0
TABLE
  2
DIMSTYLE
  5
4
330
0
100
AcDbSymbolTable
 70
1
100
AcDbDimStyleTable
  0
DIMSTYLE
105
2B
330
4
100
AcDbSymbolTableRecord
100
AcDbDimStyleTableRecord
  2
Standard
 70
0
 40
1.0
 41
2.5
 42
0.625
 43
3.75
 44
1.25
 45
0.0
 46
0.0
 47
0.0
 48
0.0
 49
2.5
140
2.5
141
2.5
142
0.0
143
0.03937007874
144
1.0
145
0.0
146
1.0
147
0.625
148
0.0
 69
0
 70
0
 71
0
 72
0
 73
0
 74
0
 75
0
 76
0
 77
1
 78
8
 79
3
170
0
171
3
172
1
173
0
174
0
175
0
176
0
177
0
178
0
179
2
271
2
272
2
273
2
274
3
275
0
276
0
277
2
278
44
279
0
280
0
281
0
282
0
283
0
284
8
285
0
286
0
288
0
289
3
290
0
371
-2
372
-2
  0
ENDTAB
  0
TABLE
  2
BLOCK_RECORD
  5
9
330
0
100
AcDbSymbolTable
 70
2
  0
BLOCK_RECORD
  5
17
330
9
100
AcDbSymbolTableRecord
100
AcDbBlockTableRecord
  2
*Model_Space
340
1A
 70
0
280
1
281
0
  0
BLOCK_RECORD
  5
1B
330
9
100
AcDbSymbolTableRecord
100
AcDbBlockTableRecord
  2
*Paper_Space
340
1E
 70
0
280
1
281
0
  0
ENDTAB
  0
ENDSEC
  0
SECTION
  2
BLOCKS
  0
BLOCK
  5
18
330
17
100
AcDbEntity
  8
0
100
AcDbBlockBegin
  2
*Model_Space
 70
0
 10
0.0
 20
0.0
 30
0.0
  3
*Model_Space
  1

  0
ENDBLK
  5
19
330
17
100
AcDbEntity
  8
0
100
AcDbBlockEnd
  0
BLOCK
  5
1C
330
1B
100
AcDbEntity
  8
0
100
AcDbBlockBegin
  2
*Paper_Space
 70
0
 10
0.0
 20
0.0
 30
0.0
  3
*Paper_Space
  1

  0
ENDBLK
  5
1D
330
1B
100
AcDbEntity
  8
0
100
AcDbBlockEnd
  0
ENDSEC
  0
SECTION
  2
ENTITIES
  0
LINE
  5
3B
330
17
100
AcDbEntity
  8
Nível
 62
7
370
25
100
AcDbLine
 10
3377.345822790678
 20
5502.411617482818
 30
0.0
 11
4193.180626554513
 21
5502.411617482818
 31
0.0
  0
LINE
  5
3C
330
17
100
AcDbEntity
  8
SARR_2.2x7
 62
7
370
25
100
AcDbLine
 10
3455.809775954662
 20
5504.411617482817
 30
0.0
 11
3455.809775954662
 21
5626.411617482818
 31
0.0
  0
LINE
  5
3D
330
17
100
AcDbEntity
  8
SARR_2.2x7
 62
7
370
25
100
AcDbLine
 10
3523.809775954604
 20
5504.411617482833
 30
0.0
 11
3523.809775954604
 21
5626.411617482818
 31
0.0
  0
LINE
  5
3E
330
17
100
AcDbEntity
  8
SARR_2.2x7
 62
7
370
25
100
AcDbLine
 10
3455.809775954662
 20
5504.411617482817
 30
0.0
 11
3455.809775954662
 21
5504.411617482845
 31
0.0
  0
LINE
  5
3F
330
17
100
AcDbEntity
  8
SARR_2.2x7
 62
7
370
25
100
AcDbLine
 10
3523.809775954604
 20
5504.411617482833
 30
0.0
 11
3523.809775954604
 21
5504.411617482817
 31
0.0
  0
LINE
  5
40
330
17
100
AcDbEntity
  8
Painéis
 62
7
370
25
100
AcDbLine
 10
3530.809775954662
 20
5502.411617482309
 30
0.0
 11
3530.809775954605
 21
5626.411617482818
 31
0.0
  0
LINE
  5
41
330
17
100
AcDbEntity
  8
Painéis
 62
7
370
25
100
AcDbLine
 10
3530.809775954549
 20
5626.411617482822
 30
0.0
 11
3530.809775954506
 21
5723.411617482816
 31
0.0
  0
LINE
  5
42
330
17
100
AcDbEntity
  8
Painéis
 62
7
370
25
100
AcDbLine
 10
3448.809775954662
 20
5723.41161748282
 30
0.0
 11
3448.809775954662
 21
5626.411617482819
 31
0.0
  0
LINE
  5
43
330
17
100
AcDbEntity
  8
Painéis
 62
7
370
25
100
AcDbLine
 10
3448.80977595466
 20
5626.411617482818
 30
0.0
 11
3448.809775954658
 21
5502.411617482337
 31
0.0
  0
LINE
  5
44
330
17
100
AcDbEntity
  8
Painéis
 62
7
370
25
100
AcDbLine
 10
3448.809775954658
 20
5504.411617482817
 30
0.0
 11
3530.809775954662
 21
5504.411617482817
 31
0.0
  0
LINE
  5
45
330
17
100
AcDbEntity
  8
SARR_2.2x7
 62
7
370
25
100
AcDbLine
 10
3523.809775954596
 20
5626.411617482819
 30
0.0
 11
3523.809775954458
 21
5723.411617482816
 31
0.0
  0
LINE
  5
46
330
17
100
AcDbEntity
  8
SARR_2.2x7
 62
7
370
25
100
AcDbLine
 10
3455.809775954593
 20
5626.411617482822
 30
0.0
 11
3455.809775954604
 21
5723.411617482818
 31
0.0
  0
LINE
  5
47
330
17
100
AcDbEntity
  8
Painéis
 62
7
370
25
100
AcDbLine
 10
3530.809775954604
 20
5626.411617482818
 30
0.0
 11
3448.809775954658
 21
5626.411617482819
 31
0.0
  0
LINE
  5
48
330
17
100
AcDbEntity
  8
Painéis
 62
7
370
25
100
AcDbLine
 10
3530.809775954444
 20
5723.411617482816
 30
0.0
 11
3448.809775954662
 21
5723.411617482818
 31
0.0
  0
LINE
  5
49
330
17
100
AcDbEntity
  8
SARR_2.2x7
 62
7
370
25
100
AcDbLine
 10
3693.76015384946
 20
5504.411617482817
 30
0.0
 11
3693.76015384946
 21
5626.411617482818
 31
0.0
  0
LINE
  5
4A
330
17
100
AcDbEntity
  8
SARR_2.2x7
 62
7
370
25
100
AcDbLine
 10
3761.760153849402
 20
5504.411617482833
 30
0.0
 11
3761.760153849402
 21
5626.411617482818
 31
0.0
  0
LINE
  5
4B
330
17
100
AcDbEntity
  8
SARR_2.2x7
 62
7
370
25
100
AcDbLine
 10
3693.76015384946
 20
5504.411617482817
 30
0.0
 11
3693.76015384946
 21
5504.411617482845
 31
0.0
  0
LINE
  5
4C
330
17
100
AcDbEntity
  8
SARR_2.2x7
 62
7
370
25
100
AcDbLine
 10
3761.760153849402
 20
5504.411617482833
 30
0.0
 11
3761.760153849402
 21
5504.411617482817
 31
0.0
  0
LINE
  5
4D
330
17
100
AcDbEntity
  8
Painéis
 62
7
370
25
100
AcDbLine
 10
3768.760153849461
 20
5502.411617482309
 30
0.0
 11
3768.760153849404
 21
5626.411617482818
 31
0.0
  0
LINE
  5
4E
330
17
100
AcDbEntity
  8
Painéis
 62
7
370
25
100
AcDbLine
 10
3768.760153849348
 20
5626.411617482819
 30
0.0
 11
3768.760153849303
 21
5723.411617482818
 31
0.0
  0
LINE
  5
4F
330
17
100
AcDbEntity
  8
Painéis
 62
7
370
25
100
AcDbLine
 10
3686.760153849461
 20
5723.41161748282
 30
0.0
 11
3686.760153849458
 21
5626.411617482822
 31
0.0
  0
LINE
  5
50
330
17
100
AcDbEntity
  8
Painéis
 62
7
370
25
100
AcDbLine
 10
3686.760153849458
 20
5626.411617482819
 30
0.0
 11
3686.760153849456
 21
5502.411617482337
 31
0.0
  0
LINE
  5
51
330
17
100
AcDbEntity
  8
Painéis
 62
7
370
25
100
AcDbLine
 10
3686.760153849456
 20
5504.411617482817
 30
0.0
 11
3768.760153849461
 21
5504.411617482817
 31
0.0
  0
LINE
  5
52
330
17
100
AcDbEntity
  8
SARR_2.2x7
 62
7
370
25
100
AcDbLine
 10
3761.760153849394
 20
5626.411617482819
 30
0.0
 11
3761.760153849257
 21
5723.411617482816
 31
0.0
  0
LINE
  5
53
330
17
100
AcDbEntity
  8
SARR_2.2x7
 62
7
370
25
100
AcDbLine
 10
3693.760153849391
 20
5626.411617482822
 30
0.0
 11
3693.760153849402
 21
5723.411617482818
 31
0.0
  0
LINE
  5
54
330
17
100
AcDbEntity
  8
Painéis
 62
7
370
25
100
AcDbLine
 10
3768.760153849402
 20
5626.411617482818
 30
0.0
 11
3686.760153849456
 21
5626.411617482819
 31
0.0
  0
LINE
  5
55
330
17
100
AcDbEntity
  8
Painéis
 62
7
370
25
100
AcDbLine
 10
3768.760153849242
 20
5777.411617482815
 30
0.0
 11
3686.760153849461
 21
5777.411617482818
 31
0.0
  0
LINE
  5
56
330
17
100
AcDbEntity
  8
COTA
 62
7
370
25
100
AcDbLine
 10
3768.760153849508
 20
5803.411617482856
 30
0.0
 11
3768.760153849456
 21
5862.411617482858
 31
0.0
  0
LINE
  5
57
330
17
100
AcDbEntity
  8
COTA
 62
7
370
25
100
AcDbLine
 10
3768.760153849456
 20
5862.411617482858
 30
0.0
 11
3686.760153849409
 21
5862.411617482855
 31
0.0
  0
LINE
  5
58
330
17
100
AcDbEntity
  8
COTA
 62
7
370
25
100
AcDbLine
 10
3686.760153849461
 20
5798.411617482833
 30
0.0
 11
3686.760153849409
 21
5862.411617482855
 31
0.0
  0
LINE
  5
59
330
17
100
AcDbEntity
  8
COTA
 62
7
370
25
100
AcDbLine
 10
3448.809775954662
 20
5798.411617482816
 30
0.0
 11
3448.809775954662
 21
5862.411617482818
 31
0.0
  0
LINE
  5
5A
330
17
100
AcDbEntity
  8
COTA
 62
7
370
25
100
AcDbLine
 10
3530.809775954487
 20
5798.411617482816
 30
0.0
 11
3530.809775954462
 21
5862.411617482818
 31
0.0
  0
LINE
  5
5B
330
17
100
AcDbEntity
  8
COTA
 62
7
370
25
100
AcDbLine
 10
3530.809775954462
 20
5862.411617482874
 30
0.0
 11
3448.809775954662
 21
5862.411617482822
 31
0.0
  0
LINE
  5
5C
330
17
100
AcDbEntity
  8
SARR_2.2x7
 62
7
370
25
100
AcDbLine
 10
4077.704055700808
 20
5723.411617482818
 30
0.0
 11
4077.704055700869
 21
5504.411617482817
 31
0.0
  0
LINE
  5
5D
330
17
100
AcDbEntity
  8
SARR_2.2x7
 62
7
370
25
100
AcDbLine
 10
4072.70405570087
 20
5723.411617482818
 30
0.0
 11
4072.704055700811
 21
5504.411617482817
 31
0.0
  0
LINE
  5
5E
330
17
100
AcDbEntity
  8
Painéis
 62
7
370
25
100
AcDbLine
 10
4065.70405570084
 20
5504.411617482817
 30
0.0
 11
4084.70405570084
 21
5504.411617482817
 31
0.0
  0
LINE
  5
5F
330
17
100
AcDbEntity
  8
Painéis
 62
7
370
25
100
AcDbLine
 10
4084.70405570084
 20
5504.411617482817
 30
0.0
 11
4084.704055700837
 21
5723.41161748281
 31
0.0
  0
LINE
  5
60
330
17
100
AcDbEntity
  8
Painéis
 62
7
370
25
100
AcDbLine
 10
4065.70405570084
 20
5723.41161748282
 30
0.0
 11
4065.70405570084
 21
5504.411617482817
 31
0.0
  0
LINE
  5
61
330
17
100
AcDbEntity
  8
Painéis
 62
7
370
25
100
AcDbLine
 10
4065.70405570084
 20
5723.41161748282
 30
0.0
 11
4084.704055700837
 21
5723.411617482809
 31
0.0
  0
LINE
  5
62
330
17
100
AcDbEntity
  8
SARR_2.2x7
 62
7
370
25
100
AcDbLine
 10
3913.979317534204
 20
5723.411617482818
 30
0.0
 11
3913.979317534268
 21
5504.411617482817
 31
0.0
  0
LINE
  5
63
330
17
100
AcDbEntity
  8
SARR_2.2x7
 62
7
370
25
100
AcDbLine
 10
3908.979317534269
 20
5723.411617482818
 30
0.0
 11
3908.97931753421
 21
5504.411617482817
 31
0.0
  0
LINE
  5
64
330
17
100
AcDbEntity
  8
Painéis
 62
7
370
25
100
AcDbLine
 10
3901.979317534239
 20
5504.411617482817
 30
0.0
 11
3920.979317534238
 21
5504.411617482817
 31
0.0
  0
LINE
  5
65
330
17
100
AcDbEntity
  8
Painéis
 62
7
370
25
100
AcDbLine
 10
3920.979317534238
 20
5504.411617482817
 30
0.0
 11
3920.979317534235
 21
5723.411617482809
 31
0.0
  0
LINE
  5
66
330
17
100
AcDbEntity
  8
Painéis
 62
7
370
25
100
AcDbLine
 10
3901.979317534236
 20
5723.41161748282
 30
0.0
 11
3901.979317534239
 21
5504.411617482817
 31
0.0
  0
LINE
  5
67
330
17
100
AcDbEntity
  8
Painéis
 62
7
370
25
100
AcDbLine
 10
3901.979317534239
 20
5723.41161748282
 30
0.0
 11
3920.979317534235
 21
5723.411617482809
 31
0.0
  0
LINE
  5
68
330
17
100
AcDbEntity
  8
Nível
 62
7
370
25
100
AcDbLine
 10
3251.159838549499
 20
5862.411617482818
 30
0.0
 11
4193.180626554513
 21
5862.411617482818
 31
0.0
  0
LINE
  5
69
330
17
100
AcDbEntity
  8
Painéis
 62
7
370
25
100
AcDbLine
 10
3448.809775954662
 20
5749.411617482816
 30
0.0
 11
3530.809775954535
 21
5749.411617482816
 31
0.0
  0
LINE
  5
6A
330
17
100
AcDbEntity
  8
Painéis
 62
7
370
25
100
AcDbLine
 10
3720.76015384946
 20
5803.411617482835
 30
0.0
 11
3768.760153849456
 21
5803.411617482858
 31
0.0
  0
LINE
  5
6B
330
17
100
AcDbEntity
  8
Painéis
 62
7
370
25
100
AcDbLine
 10
4065.70405570084
 20
5749.41161748282
 30
0.0
 11
4084.704055700837
 21
5749.411617482809
 31
0.0
  0
LINE
  5
6C
330
17
100
AcDbEntity
  8
Painéis
 62
7
370
25
100
AcDbLine
 10
3901.979317534239
 20
5744.411617482819
 30
0.0
 11
3920.979317534235
 21
5744.411617482809
 31
0.0
  0
LINE
  5
6D
330
17
100
AcDbEntity
  8
SARR_2.2x7
 62
7
370
25
100
AcDbLine
 10
3455.809775954604
 20
5723.411617482818
 30
0.0
 11
3455.809775954604
 21
5749.411617482816
 31
0.0
  0
LINE
  5
6E
330
17
100
AcDbEntity
  8
SARR_2.2x7
 62
7
370
25
100
AcDbLine
 10
3523.809775954458
 20
5723.411617482816
 30
0.0
 11
3523.809775954458
 21
5749.411617482814
 31
0.0
  0
LINE
  5
6F
330
17
100
AcDbEntity
  8
SARR_2.2x7
 62
7
370
25
100
AcDbLine
 10
3693.760153849402
 20
5777.411617482792
 30
0.0
 11
3693.760153849402
 21
5798.411617482833
 31
0.0
  0
LINE
  5
70
330
17
100
AcDbEntity
  8
SARR_2.2x7
 62
7
370
25
100
AcDbLine
 10
3761.760153849257
 20
5777.411617482815
 30
0.0
 11
3761.760153849257
 21
5803.411617482814
 31
0.0
  0
LINE
  5
71
330
17
100
AcDbEntity
  8
SARR_2.2x7
 62
7
370
25
100
AcDbLine
 10
4072.70405570087
 20
5723.411617482818
 30
0.0
 11
4072.704055700895
 21
5749.411617482816
 31
0.0
  0
LINE
  5
72
330
17
100
AcDbEntity
  8
SARR_2.2x7
 62
7
370
25
100
AcDbLine
 10
4077.616234780489
 20
5723.411617482814
 30
0.0
 11
4077.616234780514
 21
5749.411617482812
 31
0.0
  0
LINE
  5
73
330
17
100
AcDbEntity
  8
SARR_2.2x7
 62
7
370
25
100
AcDbLine
 10
3908.891496613953
 20
5723.41161748282
 30
0.0
 11
3908.891496613977
 21
5744.411617482818
 31
0.0
  0
LINE
  5
74
330
17
100
AcDbEntity
  8
SARR_2.2x7
 62
7
370
25
100
AcDbLine
 10
3913.891496613888
 20
5723.411617482867
 30
0.0
 11
3913.891496613911
 21
5744.411617482865
 31
0.0
  0
LINE
  5
75
330
17
100
AcDbEntity
  8
Painéis
 62
7
370
25
100
AcDbLine
 10
3920.979317534235
 20
5723.411617482825
 30
0.0
 11
3920.979317534235
 21
5744.411617482809
 31
0.0
  0
LINE
  5
76
330
17
100
AcDbEntity
  8
Painéis
 62
7
370
25
100
AcDbLine
 10
3901.97931753424
 20
5723.411617482825
 30
0.0
 11
3901.979317534239
 21
5744.411617482809
 31
0.0
  0
LINE
  5
77
330
17
100
AcDbEntity
  8
Painéis
 62
7
370
25
100
AcDbLine
 10
4084.704055700838
 20
5723.411617482825
 30
0.0
 11
4084.704055700837
 21
5749.411617482809
 31
0.0
  0
LINE
  5
78
330
17
100
AcDbEntity
  8
Painéis
 62
7
370
25
100
AcDbLine
 10
4065.704055700842
 20
5723.411617482825
 30
0.0
 11
4065.70405570084
 21
5749.411617482809
 31
0.0
  0
LINE
  5
79
330
17
100
AcDbEntity
  8
Painéis
 62
7
370
25
100
AcDbLine
 10
3768.760153849509
 20
5777.41161748257
 30
0.0
 11
3768.760153849508
 21
5803.411617482554
 31
0.0
  0
LINE
  5
7A
330
17
100
AcDbEntity
  8
Painéis
 62
7
370
25
100
AcDbLine
 10
3686.760153849462
 20
5777.411617482461
 30
0.0
 11
3686.760153849461
 21
5798.411617482833
 31
0.0
  0
LINE
  5
7B
330
17
100
AcDbEntity
  8
Painéis
 62
7
370
25
100
AcDbLine
 10
3530.80977595449
 20
5723.411617482596
 30
0.0
 11
3530.809775954487
 21
5749.41161748258
 31
0.0
  0
LINE
  5
7C
330
17
100
AcDbEntity
  8
Painéis
 62
7
370
25
100
AcDbLine
 10
3448.809775954663
 20
5723.411617482825
 30
0.0
 11
3448.809775954662
 21
5749.411617482809
 31
0.0
  0
LINE
  5
7D
330
17
100
AcDbEntity
  8
Defpoints
 62
7
370
25
100
AcDbLine
 10
3031.413148542528
 20
6048.128482802968
 30
0.0
 11
3031.413148542528
 21
6173.128482802968
 31
0.0
  0
LINE
  5
7E
330
17
100
AcDbEntity
  8
Hachura
 62
7
370
25
100
AcDbLine
 10
3119.4471013644406
 20
5989.07107880019
 30
0.0
 11
3119.4471013644406
 21
5989.716001255024
 31
0.0
  0
LINE
  5
7F
330
17
100
AcDbEntity
  8
Hachura
 62
7
370
25
100
AcDbLine
 10
3119.4471013644406
 20
5990.231939214605
 30
0.0
 11
3117.512333999938
 21
5989.264555532351
 31
0.0
  0
LINE
  5
80
330
17
100
AcDbEntity
  8
Hachura
 62
7
370
25
100
AcDbLine
 10
3119.519784695287
 20
5990.139296374052
 30
0.0
 11
3117.354171937729
 21
5989.056490038151
 31
0.0
  0
LINE
  5
81
330
17
100
AcDbEntity
  8
Hachura
 62
7
370
25
100
AcDbLine
 10
3117.4126098281513
 20
5988.827739960694
 30
0.0
 11
3119.5531874968165
 21
5989.898028816466
 31
0.0
  0
LINE
  5
82
330
17
100
AcDbEntity
  8
Hachura
 62
7
370
25
100
AcDbLine
 10
3117.512333999938
 20
5988.748617572775
 30
0.0
 11
3119.4471013644406
 21
5989.716001255024
 31
0.0
  0
LINE
  5
83
330
17
100
AcDbEntity
  8
Hachura
 62
7
370
25
100
AcDbLine
 10
3117.512333999938
 20
5988.103695117941
 30
0.0
 11
3117.512333999938
 21
5988.748617572775
 31
0.0
  0
LINE
  5
84
330
17
100
AcDbEntity
  8
Hachura
 62
7
370
25
100
AcDbLine
 10
3117.512333999938
 20
5986.426896733228
 30
0.0
 11
3117.512333999938
 21
5985.781974278394
 31
0.0
  0
LINE
  5
85
330
17
100
AcDbEntity
  8
Hachura
 62
7
370
25
100
AcDbLine
 10
3117.512333999938
 20
5987.375902498523
 30
0.0
 11
3117.512333999938
 21
5987.5877571476385
 31
0.0
  0
LINE
  5
86
330
17
100
AcDbEntity
  8
Hachura
 62
7
370
25
100
AcDbLine
 10
3117.512333999938
 20
5987.375902498523
 30
0.0
 11
3117.512333999938
 21
5986.942834692809
 31
0.0
  0
LINE
  5
87
330
17
100
AcDbEntity
  8
Hachura
 62
7
370
25
100
AcDbLine
 10
3119.4471013644406
 20
5987.910218375058
 30
0.0
 11
3119.4471013644406
 21
5988.5551408298925
 31
0.0
  0
LINE
  5
88
330
17
100
AcDbEntity
  8
Hachura
 62
7
370
25
100
AcDbLine
 10
3119.4471013644406
 20
5986.7493579606435
 30
0.0
 11
3119.4471013644406
 21
5987.394280415478
 31
0.0
  0
LINE
  5
89
330
17
100
AcDbEntity
  8
Hachura
 62
7
370
25
100
AcDbLine
 10
3119.4471013644406
 20
5989.07107880019
 30
0.0
 11
3117.512333999938
 21
5988.103695117941
 31
0.0
  0
LINE
  5
8A
330
17
100
AcDbEntity
  8
Hachura
 62
7
370
25
100
AcDbLine
 10
3119.519784695287
 20
5988.97843594892
 30
0.0
 11
3117.354171937729
 21
5987.89562961302
 31
0.0
  0
LINE
  5
8B
330
17
100
AcDbEntity
  8
Hachura
 62
7
370
25
100
AcDbLine
 10
3117.4126098281513
 20
5987.666879546284
 30
0.0
 11
3119.5531874968165
 21
5988.737168391333
 31
0.0
  0
LINE
  5
8C
330
17
100
AcDbEntity
  8
Hachura
 62
7
370
25
100
AcDbLine
 10
3117.512333999938
 20
5987.5877571476385
 30
0.0
 11
3119.4471013644406
 21
5988.5551408298925
 31
0.0
  0
LINE
  5
8D
330
17
100
AcDbEntity
  8
Hachura
 62
7
370
25
100
AcDbLine
 10
3119.4471013644406
 20
5986.7493579606435
 30
0.0
 11
3117.512333999938
 21
5985.781974278394
 31
0.0
  0
LINE
  5
8E
330
17
100
AcDbEntity
  8
Hachura
 62
7
370
25
100
AcDbLine
 10
3119.4471013644406
 20
5987.910218375058
 30
0.0
 11
3117.512333999938
 21
5986.942834692809
 31
0.0
  0
LINE
  5
8F
330
17
100
AcDbEntity
  8
Hachura
 62
7
370
25
100
AcDbLine
 10
3119.519784695287
 20
5987.8175755345055
 30
0.0
 11
3117.354171937729
 21
5986.734769198605
 31
0.0
  0
LINE
  5
90
330
17
100
AcDbEntity
  8
Hachura
 62
7
370
25
100
AcDbLine
 10
3117.4126098281513
 20
5986.50601913187
 30
0.0
 11
3119.5531874968165
 21
5987.576307976919
 31
0.0
  0
LINE
  5
91
330
17
100
AcDbEntity
  8
Hachura
 62
7
370
25
100
AcDbLine
 10
3117.512333999938
 20
5986.426896733228
 30
0.0
 11
3119.4471013644406
 21
5987.394280415478
 31
0.0
  0
LINE
  5
92
330
17
100
AcDbEntity
  8
Hachura
 62
7
370
25
100
AcDbLine
 10
3117.770095670373
 20
5990.554296803423
 30
0.0
 11
3117.512333999938
 21
5990.4254159467655
 31
0.0
  0
LINE
  5
93
330
17
100
AcDbEntity
  8
Hachura
 62
7
370
25
100
AcDbLine
 10
3118.0280646608826
 20
5990.554296803423
 30
0.0
 11
3117.354171937729
 21
5990.217350441844
 31
0.0
  0
LINE
  5
94
330
17
100
AcDbEntity
  8
Hachura
 62
7
370
25
100
AcDbLine
 10
3117.512333999938
 20
5990.4254159467655
 30
0.0
 11
3117.512333999938
 21
5990.554296803423
 31
0.0
  0
LINE
  5
95
330
17
100
AcDbEntity
  8
Hachura
 62
7
370
25
100
AcDbLine
 10
3117.5141257856585
 20
5990.55268670684
 30
0.0
 11
3117.8365870130756
 21
5990.875147955699
 31
0.0
  0
LINE
  5
96
330
17
100
AcDbEntity
  8
Hachura
 62
7
370
25
100
AcDbLine
 10
3117.512333999938
 20
5989.909477987185
 30
0.0
 11
3117.512333999938
 21
5989.264555532351
 31
0.0
  0
LINE
  5
97
330
17
100
AcDbEntity
  8
Hachura
 62
7
370
25
100
AcDbLine
 10
3119.4471013644406
 20
5990.231939214605
 30
0.0
 11
3119.4471013644406
 21
5990.554296803423
 31
0.0
  0
LINE
  5
98
330
17
100
AcDbEntity
  8
Hachura
 62
7
370
25
100
AcDbLine
 10
3119.448978650932
 20
5990.552686728279
 30
0.0
 11
3119.448978650932
 21
5990.552609310205
 31
0.0
  0
LINE
  5
99
330
17
100
AcDbEntity
  8
Hachura
 62
7
370
25
100
AcDbLine
 10
3119.448978650932
 20
5990.552686728279
 30
0.0
 11
3119.126431922744
 21
5990.875147955699
 31
0.0
  0
LINE
  5
9A
330
17
100
AcDbEntity
  8
Hachura
 62
7
370
25
100
AcDbLine
 10
3119.4471013644406
 20
5988.343286170055
 30
0.0
 11
3119.4471013644406
 21
5988.55514081917
 31
0.0
  0
LINE
  5
9B
330
17
100
AcDbEntity
  8
Hachura
 62
7
370
25
100
AcDbLine
 10
3117.4126098281513
 20
5989.988600375109
 30
0.0
 11
3118.5440026419
 21
5990.554296803423
 31
0.0
  0
LINE
  5
9C
330
17
100
AcDbEntity
  8
Hachura
 62
7
370
25
100
AcDbLine
 10
3117.512333999938
 20
5989.909477987185
 30
0.0
 11
3118.8019715895307
 21
5990.554296803423
 31
0.0
  0
LINE
  5
9D
330
17
100
AcDbEntity
  8
Hachura
 62
7
370
25
100
AcDbLine
 10
3119.126431922744
 20
5990.875147955699
 30
0.0
 11
3117.8365870130756
 21
5990.875147955699
 31
0.0
  0
LINE
  5
9E
330
17
100
AcDbEntity
  8
Hachura
 62
7
370
25
100
AcDbLine
 10
3119.4471013644406
 20
5990.231939214605
 30
0.0
 11
3117.512333999938
 21
5989.264555532351
 31
0.0
  0
LINE
  5
9F
330
17
100
AcDbEntity
  8
Hachura
 62
7
370
25
100
AcDbLine
 10
3117.5141257856585
 20
5990.55268670684
 30
0.0
 11
3119.448893150161
 21
5990.55268670684
 31
0.0
  0
LINE
  5
A0
330
17
100
AcDbEntity
  8
Hachura
 62
7
370
25
100
AcDbLine
 10
3112.918770507814
 20
5979.074780750265
 30
0.0
 11
3120.733432252445
 21
5979.074780750265
 31
0.0
  0
LINE
  5
A1
330
17
100
AcDbEntity
  8
Hachura
 62
7
370
25
100
AcDbLine
 10
3116.738427028411
 20
5985.781974278394
 30
0.0
 11
3120.092023819275
 21
5985.781974278394
 31
0.0
  0
LINE
  5
A2
330
17
100
AcDbEntity
  8
Hachura
 62
7
370
25
100
AcDbLine
 10
3116.738427028411
 20
5985.714257421066
 30
0.0
 11
3120.092023819275
 21
5985.714257421066
 31
0.0
  0
LINE
  5
A3
330
17
100
AcDbEntity
  8
Hachura
 62
7
370
25
100
AcDbLine
 10
3120.3499927669063
 20
5982.557362004225
 30
0.0
 11
3116.4804580379014
 21
5982.557362004225
 31
0.0
  0
LINE
  5
A4
330
17
100
AcDbEntity
  8
Hachura
 62
7
370
25
100
AcDbLine
 10
3124.8644499507427
 20
5979.977672184889
 30
0.0
 11
3111.966000854064
 21
5979.977672184889
 31
0.0
  0
LINE
  5
A5
330
17
100
AcDbEntity
  8
Hachura
 62
7
370
25
100
AcDbLine
 10
3111.966000854064
 20
5979.074780750265
 30
0.0
 11
3124.8609081863497
 21
5979.074780750265
 31
0.0
  0
LINE
  5
A6
330
17
100
AcDbEntity
  8
Hachura
 62
7
370
25
100
AcDbLine
 10
3119.060147857238
 20
5985.781974278394
 30
0.0
 11
3119.060147857238
 21
5982.557362004225
 31
0.0
  0
LINE
  5
A7
330
17
100
AcDbEntity
  8
Hachura
 62
7
370
25
100
AcDbLine
 10
3120.092023819275
 20
5985.781974278394
 30
0.0
 11
3120.092023819275
 21
5982.557362004225
 31
0.0
  0
LINE
  5
A8
330
17
100
AcDbEntity
  8
Hachura
 62
7
370
25
100
AcDbLine
 10
3118.415225402404
 20
5979.977672184889
 30
0.0
 11
3120.3499927669063
 21
5979.977672184889
 31
0.0
  0
LINE
  5
A9
330
17
100
AcDbEntity
  8
Hachura
 62
7
370
25
100
AcDbLine
 10
3119.705070312072
 20
5979.977672184889
 30
0.0
 11
3119.060147857238
 21
5979.977672184889
 31
0.0
  0
LINE
  5
AA
330
17
100
AcDbEntity
  8
Hachura
 62
7
370
25
100
AcDbLine
 10
3118.420865764765
 20
5979.977672184889
 30
0.0
 11
3118.420865764765
 21
5979.074780750265
 31
0.0
  0
LINE
  5
AB
330
17
100
AcDbEntity
  8
Hachura
 62
7
370
25
100
AcDbLine
 10
3118.7274074561137
 20
5979.977672184889
 30
0.0
 11
3118.7274074561137
 21
5981.976831374347
 31
0.0
  0
LINE
  5
AC
330
17
100
AcDbEntity
  8
Hachura
 62
7
370
25
100
AcDbLine
 10
3118.2114694750944
 20
5981.976831374347
 30
0.0
 11
3118.2114694750944
 21
5979.977672184889
 31
0.0
  0
LINE
  5
AD
330
17
100
AcDbEntity
  8
Hachura
 62
7
370
25
100
AcDbLine
 10
3121.455102026136
 20
5979.995946741957
 30
0.0
 11
3121.455102026136
 21
5979.068724066875
 31
0.0
  0
LINE
  5
AE
330
17
100
AcDbEntity
  8
Hachura
 62
7
370
25
100
AcDbLine
 10
3119.374841035152
 20
5979.224826628188
 30
0.0
 11
3119.374841035152
 21
5979.657894433907
 31
0.0
  0
LINE
  5
AF
330
17
100
AcDbEntity
  8
Hachura
 62
7
370
25
100
AcDbLine
 10
3120.3499927669063
 20
5979.977672184889
 30
0.0
 11
3120.3499927669063
 21
5982.557362004225
 31
0.0
  0
LINE
  5
B0
330
17
100
AcDbEntity
  8
Hachura
 62
7
370
25
100
AcDbLine
 10
3119.374841035152
 20
5979.657894433907
 30
0.0
 11
3119.374841035152
 21
5979.869749083022
 31
0.0
  0
LINE
  5
B1
330
17
100
AcDbEntity
  8
Hachura
 62
7
370
25
100
AcDbLine
 10
3124.8609081863497
 20
5979.074780750265
 30
0.0
 11
3124.8609081863497
 21
5984.211449332351
 31
0.0
  0
LINE
  5
B2
330
17
100
AcDbEntity
  8
Hachura
 62
7
370
25
100
AcDbLine
 10
3123.18765157675
 20
5984.234160388937
 30
0.0
 11
3122.6059915026954
 21
5982.023852071084
 31
0.0
  0
LINE
  5
B3
330
17
100
AcDbEntity
  8
Hachura
 62
7
370
25
100
AcDbLine
 10
3124.8644499507427
 20
5984.234160388937
 30
0.0
 11
3123.18765157675
 21
5984.234160388937
 31
0.0
  0
LINE
  5
B4
330
17
100
AcDbEntity
  8
Hachura
 62
7
370
25
100
AcDbLine
 10
3122.294147464322
 20
5981.783455064855
 30
0.0
 11
3120.3499927669063
 21
5981.783455064855
 31
0.0
  0
LINE
  5
B5
330
17
100
AcDbEntity
  8
Hachura
 62
7
370
25
100
AcDbLine
 10
3124.8644499507427
 20
5979.977672184889
 30
0.0
 11
3119.705070312072
 21
5979.977672184889
 31
0.0
  0
LINE
  5
B6
330
17
100
AcDbEntity
  8
Hachura
 62
7
370
25
100
AcDbLine
 10
3113.642799270935
 20
5984.234160388937
 30
0.0
 11
3114.2244593449896
 21
5982.023852071084
 31
0.0
  0
LINE
  5
B7
330
17
100
AcDbEntity
  8
Hachura
 62
7
370
25
100
AcDbLine
 10
3116.738427028411
 20
5982.557362004225
 30
0.0
 11
3116.738427028411
 21
5985.781974278394
 31
0.0
  0
LINE
  5
B8
330
17
100
AcDbEntity
  8
Hachura
 62
7
370
25
100
AcDbLine
 10
3117.512333999938
 20
5985.781974278394
 30
0.0
 11
3117.512333999938
 21
5982.557362004225
 31
0.0
  0
LINE
  5
B9
330
17
100
AcDbEntity
  8
Hachura
 62
7
370
25
100
AcDbLine
 10
3115.389087431926
 20
5979.995946741957
 30
0.0
 11
3115.389087431926
 21
5979.074780750265
 31
0.0
  0
LINE
  5
BA
330
17
100
AcDbEntity
  8
Hachura
 62
7
370
25
100
AcDbLine
 10
3117.4400736706493
 20
5979.851371166069
 30
0.0
 11
3117.4400736706493
 21
5979.418303371071
 31
0.0
  0
LINE
  5
BB
330
17
100
AcDbEntity
  8
Hachura
 62
7
370
25
100
AcDbLine
 10
3113.956833827061
 20
5979.995946741957
 30
0.0
 11
3113.956833827061
 21
5979.068724066875
 31
0.0
  0
LINE
  5
BC
330
17
100
AcDbEntity
  8
Hachura
 62
7
370
25
100
AcDbLine
 10
3116.4804580379014
 20
5982.557362004225
 30
0.0
 11
3116.4804580379014
 21
5979.977672184889
 31
0.0
  0
LINE
  5
BD
330
17
100
AcDbEntity
  8
Hachura
 62
7
370
25
100
AcDbLine
 10
3116.4804580379014
 20
5982.557362004225
 30
0.0
 11
3116.738427028411
 21
5982.557362004225
 31
0.0
  0
LINE
  5
BE
330
17
100
AcDbEntity
  8
Hachura
 62
7
370
25
100
AcDbLine
 10
3116.4804580379014
 20
5982.557362004225
 30
0.0
 11
3116.738427028411
 21
5982.557362004225
 31
0.0
  0
LINE
  5
BF
330
17
100
AcDbEntity
  8
Hachura
 62
7
370
25
100
AcDbLine
 10
3114.5363033833655
 20
5981.783455064855
 30
0.0
 11
3116.48433996158
 21
5981.783455064855
 31
0.0
  0
LINE
  5
C0
330
17
100
AcDbEntity
  8
Hachura
 62
7
370
25
100
AcDbLine
 10
3111.966000854064
 20
5979.977672184889
 30
0.0
 11
3111.966000854064
 21
5984.234160388937
 31
0.0
  0
LINE
  5
C1
330
17
100
AcDbEntity
  8
Hachura
 62
7
370
25
100
AcDbLine
 10
3111.966000854064
 20
5979.977672184889
 30
0.0
 11
3111.966000854064
 21
5979.074780750265
 31
0.0
  0
LINE
  5
C2
330
17
100
AcDbEntity
  8
Hachura
 62
7
370
25
100
AcDbLine
 10
3113.1143319108587
 20
5979.995946741957
 30
0.0
 11
3113.1143319108587
 21
5979.068724066875
 31
0.0
  0
LINE
  5
C3
330
17
100
AcDbEntity
  8
Hachura
 62
7
370
25
100
AcDbLine
 10
3112.6509556789997
 20
5979.995946741957
 30
0.0
 11
3112.6509556789997
 21
5979.068724066875
 31
0.0
  0
LINE
  5
C4
330
17
100
AcDbEntity
  8
Hachura
 62
7
370
25
100
AcDbLine
 10
3112.3139549468224
 20
5979.995946741957
 30
0.0
 11
3112.3139549468224
 21
5979.068724066875
 31
0.0
  0
LINE
  5
C5
330
17
100
AcDbEntity
  8
Hachura
 62
7
370
25
100
AcDbLine
 10
3112.1033291997774
 20
5979.995946741957
 30
0.0
 11
3112.1033291997774
 21
5979.068724066875
 31
0.0
  0
LINE
  5
C6
330
17
100
AcDbEntity
  8
Hachura
 62
7
370
25
100
AcDbLine
 10
3111.966000854064
 20
5984.234160388937
 30
0.0
 11
3113.642799270935
 21
5984.234160388937
 31
0.0
  0
LINE
  5
C7
330
17
100
AcDbEntity
  8
Hachura
 62
7
370
25
100
AcDbLine
 10
3118.286240947449
 20
5985.781974278394
 30
0.0
 11
3119.5531875004144
 21
5986.41544756122
 31
0.0
  0
LINE
  5
C8
330
17
100
AcDbEntity
  8
Hachura
 62
7
370
25
100
AcDbLine
 10
3118.5442099252678
 20
5985.781974278394
 30
0.0
 11
3119.4471013680386
 21
5986.2334199997795
 31
0.0
  0
LINE
  5
C9
330
17
100
AcDbEntity
  8
Hachura
 62
7
370
25
100
AcDbLine
 10
3119.4471013680395
 20
5985.781974278394
 30
0.0
 11
3119.4471013680395
 21
5986.2334199997795
 31
0.0
  0
LINE
  5
CA
330
17
100
AcDbEntity
  8
Hachura
 62
7
370
25
100
AcDbLine
 10
3122.8700752133527
 20
5979.995946741957
 30
0.0
 11
3122.8700752133527
 21
5979.068724066875
 31
0.0
  0
LINE
  5
CB
330
17
100
AcDbEntity
  8
Hachura
 62
7
370
25
100
AcDbLine
 10
3123.712577129555
 20
5979.995946741957
 30
0.0
 11
3123.712577129555
 21
5979.068724066875
 31
0.0
  0
LINE
  5
CC
330
17
100
AcDbEntity
  8
Hachura
 62
7
370
25
100
AcDbLine
 10
3124.175953361414
 20
5979.995946741957
 30
0.0
 11
3124.175953361414
 21
5979.068724066875
 31
0.0
  0
LINE
  5
CD
330
17
100
AcDbEntity
  8
Hachura
 62
7
370
25
100
AcDbLine
 10
3124.5129540935914
 20
5979.995946741957
 30
0.0
 11
3124.5129540935914
 21
5979.068724066875
 31
0.0
  0
LINE
  5
CE
330
17
100
AcDbEntity
  8
Hachura
 62
7
370
25
100
AcDbLine
 10
3124.7235798406364
 20
5979.995946741957
 30
0.0
 11
3124.7235798406364
 21
5979.068724066875
 31
0.0
  0
LINE
  5
CF
330
17
100
AcDbEntity
  8
Hachura
 62
7
370
25
100
AcDbLine
 10
3119.446479100302
 20
5855.078482778221
 30
0.0
 11
3119.446479100302
 21
5854.433560323387
 31
0.0
  0
LINE
  5
D0
330
17
100
AcDbEntity
  8
Hachura
 62
7
370
25
100
AcDbLine
 10
3119.446479100302
 20
5853.917622363806
 30
0.0
 11
3117.5117117357995
 21
5854.88500604606
 31
0.0
  0
LINE
  5
D1
330
17
100
AcDbEntity
  8
Hachura
 62
7
370
25
100
AcDbLine
 10
3119.5191624311483
 20
5854.010265204359
 30
0.0
 11
3117.3535496735904
 21
5855.093071540259
 31
0.0
  0
LINE
  5
D2
330
17
100
AcDbEntity
  8
Hachura
 62
7
370
25
100
AcDbLine
 10
3117.4119875640126
 20
5855.3218216177165
 30
0.0
 11
3119.552565232678
 21
5854.251532761945
 31
0.0
  0
LINE
  5
D3
330
17
100
AcDbEntity
  8
Hachura
 62
7
370
25
100
AcDbLine
 10
3117.5117117357995
 20
5855.400944005635
 30
0.0
 11
3119.446479100302
 21
5854.433560323387
 31
0.0
  0
LINE
  5
D4
330
17
100
AcDbEntity
  8
Hachura
 62
7
370
25
100
AcDbLine
 10
3117.5117117357995
 20
5856.045866460469
 30
0.0
 11
3117.5117117357995
 21
5855.400944005635
 31
0.0
  0
LINE
  5
D5
330
17
100
AcDbEntity
  8
Hachura
 62
7
370
25
100
AcDbLine
 10
3117.5117117357995
 20
5857.722664845182
 30
0.0
 11
3117.5117117357995
 21
5858.367587300017
 31
0.0
  0
LINE
  5
D6
330
17
100
AcDbEntity
  8
Hachura
 62
7
370
25
100
AcDbLine
 10
3117.5117117357995
 20
5856.773659079888
 30
0.0
 11
3117.5117117357995
 21
5856.561804430772
 31
0.0
  0
LINE
  5
D7
330
17
100
AcDbEntity
  8
Hachura
 62
7
370
25
100
AcDbLine
 10
3117.5117117357995
 20
5856.773659079888
 30
0.0
 11
3117.5117117357995
 21
5857.206726885602
 31
0.0
  0
LINE
  5
D8
330
17
100
AcDbEntity
  8
Hachura
 62
7
370
25
100
AcDbLine
 10
3119.446479100302
 20
5856.239343203352
 30
0.0
 11
3119.446479100302
 21
5855.594420748518
 31
0.0
  0
LINE
  5
D9
330
17
100
AcDbEntity
  8
Hachura
 62
7
370
25
100
AcDbLine
 10
3119.446479100302
 20
5857.400203617767
 30
0.0
 11
3119.446479100302
 21
5856.755281162933
 31
0.0
  0
LINE
  5
DA
330
17
100
AcDbEntity
  8
Hachura
 62
7
370
25
100
AcDbLine
 10
3119.446479100302
 20
5855.078482778221
 30
0.0
 11
3117.5117117357995
 21
5856.045866460469
 31
0.0
  0
LINE
  5
DB
330
17
100
AcDbEntity
  8
Hachura
 62
7
370
25
100
AcDbLine
 10
3119.5191624311483
 20
5855.17112562949
 30
0.0
 11
3117.3535496735904
 21
5856.253931965391
 31
0.0
  0
LINE
  5
DC
330
17
100
AcDbEntity
  8
Hachura
 62
7
370
25
100
AcDbLine
 10
3117.4119875640126
 20
5856.482682032127
 30
0.0
 11
3119.552565232678
 21
5855.412393187077
 31
0.0
  0
LINE
  5
DD
330
17
100
AcDbEntity
  8
Hachura
 62
7
370
25
100
AcDbLine
 10
3117.5117117357995
 20
5856.561804430772
 30
0.0
 11
3119.446479100302
 21
5855.594420748518
 31
0.0
  0
LINE
  5
DE
330
17
100
AcDbEntity
  8
Hachura
 62
7
370
25
100
AcDbLine
 10
3119.446479100302
 20
5857.400203617767
 30
0.0
 11
3117.5117117357995
 21
5858.367587300017
 31
0.0
  0
LINE
  5
DF
330
17
100
AcDbEntity
  8
Hachura
 62
7
370
25
100
AcDbLine
 10
3119.446479100302
 20
5856.239343203352
 30
0.0
 11
3117.5117117357995
 21
5857.206726885602
 31
0.0
  0
LINE
  5
E0
330
17
100
AcDbEntity
  8
Hachura
 62
7
370
25
100
AcDbLine
 10
3119.5191624311483
 20
5856.331986043905
 30
0.0
 11
3117.3535496735904
 21
5857.4147923798055
 31
0.0
  0
LINE
  5
E1
330
17
100
AcDbEntity
  8
Hachura
 62
7
370
25
100
AcDbLine
 10
3117.4119875640126
 20
5857.643542446541
 30
0.0
 11
3119.552565232678
 21
5856.573253601491
 31
0.0
  0
LINE
  5
E2
330
17
100
AcDbEntity
  8
Hachura
 62
7
370
25
100
AcDbLine
 10
3117.5117117357995
 20
5857.722664845182
 30
0.0
 11
3119.446479100302
 21
5856.755281162933
 31
0.0
  0
LINE
  5
E3
330
17
100
AcDbEntity
  8
Hachura
 62
7
370
25
100
AcDbLine
 10
3117.7694734062343
 20
5853.595264774987
 30
0.0
 11
3117.5117117357995
 21
5853.724145631645
 31
0.0
  0
LINE
  5
E4
330
17
100
AcDbEntity
  8
Hachura
 62
7
370
25
100
AcDbLine
 10
3118.027442396744
 20
5853.595264774987
 30
0.0
 11
3117.3535496735904
 21
5853.932211136566
 31
0.0
  0
LINE
  5
E5
330
17
100
AcDbEntity
  8
Hachura
 62
7
370
25
100
AcDbLine
 10
3117.5117117357995
 20
5853.724145631645
 30
0.0
 11
3117.5117117357995
 21
5853.595264774987
 31
0.0
  0
LINE
  5
E6
330
17
100
AcDbEntity
  8
Hachura
 62
7
370
25
100
AcDbLine
 10
3117.51350352152
 20
5853.59687487157
 30
0.0
 11
3117.835964748937
 21
5853.274413622712
 31
0.0
  0
LINE
  5
E7
330
17
100
AcDbEntity
  8
Hachura
 62
7
370
25
100
AcDbLine
 10
3117.5117117357995
 20
5854.240083591226
 30
0.0
 11
3117.5117117357995
 21
5854.88500604606
 31
0.0
  0
LINE
  5
E8
330
17
100
AcDbEntity
  8
Hachura
 62
7
370
25
100
AcDbLine
 10
3119.446479100302
 20
5853.917622363806
 30
0.0
 11
3119.446479100302
 21
5853.595264774987
 31
0.0
  0
LINE
  5
E9
330
17
100
AcDbEntity
  8
Hachura
 62
7
370
25
100
AcDbLine
 10
3119.4483563867934
 20
5853.596874850132
 30
0.0
 11
3119.4483563867934
 21
5853.596952268205
 31
0.0
  0
LINE
  5
EA
330
17
100
AcDbEntity
  8
Hachura
 62
7
370
25
100
AcDbLine
 10
3119.4483563867934
 20
5853.596874850132
 30
0.0
 11
3119.1258096586052
 21
5853.274413622712
 31
0.0
  0
LINE
  5
EB
330
17
100
AcDbEntity
  8
Hachura
 62
7
370
25
100
AcDbLine
 10
3119.446479100302
 20
5855.806275408356
 30
0.0
 11
3119.446479100302
 21
5855.59442075924
 31
0.0
  0
LINE
  5
EC
330
17
100
AcDbEntity
  8
Hachura
 62
7
370
25
100
AcDbLine
 10
3117.4119875640126
 20
5854.160961203302
 30
0.0
 11
3118.5433803777614
 21
5853.595264774987
 31
0.0
  0
LINE
  5
ED
330
17
100
AcDbEntity
  8
Hachura
 62
7
370
25
100
AcDbLine
 10
3117.5117117357995
 20
5854.240083591226
 30
0.0
 11
3118.801349325392
 21
5853.595264774987
 31
0.0
  0
LINE
  5
EE
330
17
100
AcDbEntity
  8
Hachura
 62
7
370
25
100
AcDbLine
 10
3119.1258096586052
 20
5853.274413622712
 30
0.0
 11
3117.835964748937
 21
5853.274413622712
 31
0.0
  0
LINE
  5
EF
330
17
100
AcDbEntity
  8
Hachura
 62
7
370
25
100
AcDbLine
 10
3119.446479100302
 20
5853.917622363806
 30
0.0
 11
3117.5117117357995
 21
5854.88500604606
 31
0.0
  0
LINE
  5
F0
330
17
100
AcDbEntity
  8
Hachura
 62
7
370
25
100
AcDbLine
 10
3117.51350352152
 20
5853.59687487157
 30
0.0
 11
3119.4482708860223
 21
5853.59687487157
 31
0.0
  0
LINE
  5
F1
330
17
100
AcDbEntity
  8
Hachura
 62
7
370
25
100
AcDbLine
 10
3112.918148243675
 20
5865.074780828146
 30
0.0
 11
3120.732809988306
 21
5865.074780828146
 31
0.0
  0
LINE
  5
F2
330
17
100
AcDbEntity
  8
Hachura
 62
7
370
25
100
AcDbLine
 10
3116.7378047642724
 20
5858.367587300017
 30
0.0
 11
3120.091401555136
 21
5858.367587300017
 31
0.0
  0
LINE
  5
F3
330
17
100
AcDbEntity
  8
Hachura
 62
7
370
25
100
AcDbLine
 10
3116.7378047642724
 20
5858.435304157345
 30
0.0
 11
3120.091401555136
 21
5858.435304157345
 31
0.0
  0
LINE
  5
F4
330
17
100
AcDbEntity
  8
Hachura
 62
7
370
25
100
AcDbLine
 10
3120.3493705027677
 20
5861.5921995741855
 30
0.0
 11
3116.4798357737627
 21
5861.5921995741855
 31
0.0
  0
LINE
  5
F5
330
17
100
AcDbEntity
  8
Hachura
 62
7
370
25
100
AcDbLine
 10
3124.863827686604
 20
5864.171889393521
 30
0.0
 11
3111.9653785899254
 21
5864.171889393521
 31
0.0
  0
LINE
  5
F6
330
17
100
AcDbEntity
  8
Hachura
 62
7
370
25
100
AcDbLine
 10
3111.9653785899254
 20
5865.074780828146
 30
0.0
 11
3124.860285922211
 21
5865.074780828146
 31
0.0
  0
LINE
  5
F7
330
17
100
AcDbEntity
  8
Hachura
 62
7
370
25
100
AcDbLine
 10
3119.0595255930994
 20
5858.367587300017
 30
0.0
 11
3119.0595255930994
 21
5861.5921995741855
 31
0.0
  0
LINE
  5
F8
330
17
100
AcDbEntity
  8
Hachura
 62
7
370
25
100
AcDbLine
 10
3120.091401555136
 20
5858.367587300017
 30
0.0
 11
3120.091401555136
 21
5861.5921995741855
 31
0.0
  0
LINE
  5
F9
330
17
100
AcDbEntity
  8
Hachura
 62
7
370
25
100
AcDbLine
 10
3118.414603138265
 20
5864.171889393521
 30
0.0
 11
3120.3493705027677
 21
5864.171889393521
 31
0.0
  0
LINE
  5
FA
330
17
100
AcDbEntity
  8
Hachura
 62
7
370
25
100
AcDbLine
 10
3119.7044480479335
 20
5864.171889393521
 30
0.0
 11
3119.0595255930994
 21
5864.171889393521
 31
0.0
  0
LINE
  5
FB
330
17
100
AcDbEntity
  8
Hachura
 62
7
370
25
100
AcDbLine
 10
3118.4202435006264
 20
5864.171889393521
 30
0.0
 11
3118.4202435006264
 21
5865.074780828146
 31
0.0
  0
LINE
  5
FC
330
17
100
AcDbEntity
  8
Hachura
 62
7
370
25
100
AcDbLine
 10
3118.726785191975
 20
5864.171889393521
 30
0.0
 11
3118.726785191975
 21
5862.172730204064
 31
0.0
  0
LINE
  5
FD
330
17
100
AcDbEntity
  8
Hachura
 62
7
370
25
100
AcDbLine
 10
3118.2108472109558
 20
5862.172730204064
 30
0.0
 11
3118.2108472109558
 21
5864.171889393521
 31
0.0
  0
LINE
  5
FE
330
17
100
AcDbEntity
  8
Hachura
 62
7
370
25
100
AcDbLine
 10
3121.4544797619974
 20
5864.153614836454
 30
0.0
 11
3121.4544797619974
 21
5865.080837511536
 31
0.0
  0
LINE
  5
FF
330
17
100
AcDbEntity
  8
Hachura
 62
7
370
25
100
AcDbLine
 10
3119.374218771013
 20
5864.924734950223
 30
0.0
 11
3119.374218771013
 21
5864.4916671445035
 31
0.0
  0
LINE
  5
100
330
17
100
AcDbEntity
  8
Hachura
 62
7
370
25
100
AcDbLine
 10
3120.3493705027677
 20
5864.171889393521
 30
0.0
 11
3120.3493705027677
 21
5861.5921995741855
 31
0.0
  0
LINE
  5
101
330
17
100
AcDbEntity
  8
Hachura
 62
7
370
25
100
AcDbLine
 10
3119.374218771013
 20
5864.4916671445035
 30
0.0
 11
3119.374218771013
 21
5864.279812495389
 31
0.0
  0
LINE
  5
102
330
17
100
AcDbEntity
  8
Hachura
 62
7
370
25
100
AcDbLine
 10
3124.860285922211
 20
5865.074780828146
 30
0.0
 11
3124.860285922211
 21
5859.93811224606
 31
0.0
  0
LINE
  5
103
330
17
100
AcDbEntity
  8
Hachura
 62
7
370
25
100
AcDbLine
 10
3123.1870293126112
 20
5859.915401189473
 30
0.0
 11
3122.6053692385567
 21
5862.125709507327
 31
0.0
  0
LINE
  5
104
330
17
100
AcDbEntity
  8
Hachura
 62
7
370
25
100
AcDbLine
 10
3124.863827686604
 20
5859.915401189473
 30
0.0
 11
3123.1870293126112
 21
5859.915401189473
 31
0.0
  0
LINE
  5
105
330
17
100
AcDbEntity
  8
Hachura
 62
7
370
25
100
AcDbLine
 10
3122.2935252001835
 20
5862.366106513556
 30
0.0
 11
3120.3493705027677
 21
5862.366106513556
 31
0.0
  0
LINE
  5
106
330
17
100
AcDbEntity
  8
Hachura
 62
7
370
25
100
AcDbLine
 10
3124.863827686604
 20
5864.171889393521
 30
0.0
 11
3119.7044480479335
 21
5864.171889393521
 31
0.0
  0
LINE
  5
107
330
17
100
AcDbEntity
  8
Hachura
 62
7
370
25
100
AcDbLine
 10
3113.6421770067964
 20
5859.915401189473
 30
0.0
 11
3114.223837080851
 21
5862.125709507327
 31
0.0
  0
LINE
  5
108
330
17
100
AcDbEntity
  8
Hachura
 62
7
370
25
100
AcDbLine
 10
3116.7378047642724
 20
5861.5921995741855
 30
0.0
 11
3116.7378047642724
 21
5858.367587300017
 31
0.0
  0
LINE
  5
109
330
17
100
AcDbEntity
  8
Hachura
 62
7
370
25
100
AcDbLine
 10
3117.5117117357995
 20
5858.367587300017
 30
0.0
 11
3117.5117117357995
 21
5861.5921995741855
 31
0.0
  0
LINE
  5
10A
330
17
100
AcDbEntity
  8
Hachura
 62
7
370
25
100
AcDbLine
 10
3115.388465167787
 20
5864.153614836454
 30
0.0
 11
3115.388465167787
 21
5865.074780828146
 31
0.0
  0
LINE
  5
10B
330
17
100
AcDbEntity
  8
Hachura
 62
7
370
25
100
AcDbLine
 10
3117.4394514065107
 20
5864.298190412342
 30
0.0
 11
3117.4394514065107
 21
5864.73125820734
 31
0.0
  0
LINE
  5
10C
330
17
100
AcDbEntity
  8
Hachura
 62
7
370
25
100
AcDbLine
 10
3113.9562115629224
 20
5864.153614836454
 30
0.0
 11
3113.9562115629224
 21
5865.080837511536
 31
0.0
  0
LINE
  5
10D
330
17
100
AcDbEntity
  8
Hachura
 62
7
370
25
100
AcDbLine
 10
3116.4798357737627
 20
5861.5921995741855
 30
0.0
 11
3116.4798357737627
 21
5864.171889393521
 31
0.0
  0
LINE
  5
10E
330
17
100
AcDbEntity
  8
Hachura
 62
7
370
25
100
AcDbLine
 10
3116.4798357737627
 20
5861.5921995741855
 30
0.0
 11
3116.7378047642724
 21
5861.5921995741855
 31
0.0
  0
LINE
  5
10F
330
17
100
AcDbEntity
  8
Hachura
 62
7
370
25
100
AcDbLine
 10
3116.4798357737627
 20
5861.5921995741855
 30
0.0
 11
3116.7378047642724
 21
5861.5921995741855
 31
0.0
  0
LINE
  5
110
330
17
100
AcDbEntity
  8
Hachura
 62
7
370
25
100
AcDbLine
 10
3114.535681119227
 20
5862.366106513556
 30
0.0
 11
3116.4837176974415
 21
5862.366106513556
 31
0.0
  0
LINE
  5
111
330
17
100
AcDbEntity
  8
Hachura
 62
7
370
25
100
AcDbLine
 10
3111.9653785899254
 20
5864.171889393521
 30
0.0
 11
3111.9653785899254
 21
5859.915401189473
 31
0.0
  0
LINE
  5
112
330
17
100
AcDbEntity
  8
Hachura
 62
7
370
25
100
AcDbLine
 10
3111.9653785899254
 20
5864.171889393521
 30
0.0
 11
3111.9653785899254
 21
5865.074780828146
 31
0.0
  0
LINE
  5
113
330
17
100
AcDbEntity
  8
Hachura
 62
7
370
25
100
AcDbLine
 10
3113.11370964672
 20
5864.153614836454
 30
0.0
 11
3113.11370964672
 21
5865.080837511536
 31
0.0
  0
LINE
  5
114
330
17
100
AcDbEntity
  8
Hachura
 62
7
370
25
100
AcDbLine
 10
3112.650333414861
 20
5864.153614836454
 30
0.0
 11
3112.650333414861
 21
5865.080837511536
 31
0.0
  0
LINE
  5
115
330
17
100
AcDbEntity
  8
Hachura
 62
7
370
25
100
AcDbLine
 10
3112.3133326826837
 20
5864.153614836454
 30
0.0
 11
3112.3133326826837
 21
5865.080837511536
 31
0.0
  0
LINE
  5
116
330
17
100
AcDbEntity
  8
Hachura
 62
7
370
25
100
AcDbLine
 10
3112.1027069356387
 20
5864.153614836454
 30
0.0
 11
3112.1027069356387
 21
5865.080837511536
 31
0.0
  0
LINE
  5
117
330
17
100
AcDbEntity
  8
Hachura
 62
7
370
25
100
AcDbLine
 10
3111.9653785899254
 20
5859.915401189473
 30
0.0
 11
3113.6421770067964
 21
5859.915401189473
 31
0.0
  0
LINE
  5
118
330
17
100
AcDbEntity
  8
Hachura
 62
7
370
25
100
AcDbLine
 10
3118.2856186833105
 20
5858.367587300017
 30
0.0
 11
3119.5525652362758
 21
5857.73411401719
 31
0.0
  0
LINE
  5
119
330
17
100
AcDbEntity
  8
Hachura
 62
7
370
25
100
AcDbLine
 10
3118.543587661129
 20
5858.367587300017
 30
0.0
 11
3119.4464791039
 21
5857.916141578631
 31
0.0
  0
LINE
  5
11A
330
17
100
AcDbEntity
  8
Hachura
 62
7
370
25
100
AcDbLine
 10
3119.446479103901
 20
5858.367587300017
 30
0.0
 11
3119.446479103901
 21
5857.916141578631
 31
0.0
  0
LINE
  5
11B
330
17
100
AcDbEntity
  8
Hachura
 62
7
370
25
100
AcDbLine
 10
3122.869452949214
 20
5864.153614836454
 30
0.0
 11
3122.869452949214
 21
5865.080837511536
 31
0.0
  0
LINE
  5
11C
330
17
100
AcDbEntity
  8
Hachura
 62
7
370
25
100
AcDbLine
 10
3123.7119548654164
 20
5864.153614836454
 30
0.0
 11
3123.7119548654164
 21
5865.080837511536
 31
0.0
  0
LINE
  5
11D
330
17
100
AcDbEntity
  8
Hachura
 62
7
370
25
100
AcDbLine
 10
3124.1753310972754
 20
5864.153614836454
 30
0.0
 11
3124.1753310972754
 21
5865.080837511536
 31
0.0
  0
LINE
  5
11E
330
17
100
AcDbEntity
  8
Hachura
 62
7
370
25
100
AcDbLine
 10
3124.5123318294527
 20
5864.153614836454
 30
0.0
 11
3124.5123318294527
 21
5865.080837511536
 31
0.0
  0
LINE
  5
11F
330
17
100
AcDbEntity
  8
Hachura
 62
7
370
25
100
AcDbLine
 10
3124.7229575764977
 20
5864.153614836454
 30
0.0
 11
3124.7229575764977
 21
5865.080837511536
 31
0.0
  0
LINE
  5
120
330
17
100
AcDbEntity
  8
Hachura
 62
7
370
25
100
AcDbLine
 10
3118.413714936917
 20
5989.875147955668
 30
0.0
 11
3118.422256147791
 21
5858.074780828147
 31
0.0
  0
LINE
  5
121
330
17
100
AcDbEntity
  8
Hachura
 62
7
370
25
100
AcDbLine
 10
2949.3791957248354
 20
5989.07107880019
 30
0.0
 11
2949.3791957248354
 21
5989.716001255024
 31
0.0
  0
LINE
  5
122
330
17
100
AcDbEntity
  8
Hachura
 62
7
370
25
100
AcDbLine
 10
2949.3791957248354
 20
5990.231939214605
 30
0.0
 11
2951.313963089338
 21
5989.264555532351
 31
0.0
  0
LINE
  5
123
330
17
100
AcDbEntity
  8
Hachura
 62
7
370
25
100
AcDbLine
 10
2949.306512393989
 20
5990.139296374052
 30
0.0
 11
2951.472125151547
 21
5989.056490038151
 31
0.0
  0
LINE
  5
124
330
17
100
AcDbEntity
  8
Hachura
 62
7
370
25
100
AcDbLine
 10
2951.413687261125
 20
5988.827739960694
 30
0.0
 11
2949.2731095924596
 21
5989.898028816466
 31
0.0
  0
LINE
  5
125
330
17
100
AcDbEntity
  8
Hachura
 62
7
370
25
100
AcDbLine
 10
2951.313963089338
 20
5988.748617572775
 30
0.0
 11
2949.3791957248354
 21
5989.716001255024
 31
0.0
  0
LINE
  5
126
330
17
100
AcDbEntity
  8
Hachura
 62
7
370
25
100
AcDbLine
 10
2951.313963089338
 20
5988.103695117941
 30
0.0
 11
2951.313963089338
 21
5988.748617572775
 31
0.0
  0
LINE
  5
127
330
17
100
AcDbEntity
  8
Hachura
 62
7
370
25
100
AcDbLine
 10
2951.313963089338
 20
5986.426896733228
 30
0.0
 11
2951.313963089338
 21
5985.781974278394
 31
0.0
  0
LINE
  5
128
330
17
100
AcDbEntity
  8
Hachura
 62
7
370
25
100
AcDbLine
 10
2951.313963089338
 20
5987.375902498523
 30
0.0
 11
2951.313963089338
 21
5987.5877571476385
 31
0.0
  0
LINE
  5
129
330
17
100
AcDbEntity
  8
Hachura
 62
7
370
25
100
AcDbLine
 10
2951.313963089338
 20
5987.375902498523
 30
0.0
 11
2951.313963089338
 21
5986.942834692809
 31
0.0
  0
LINE
  5
12A
330
17
100
AcDbEntity
  8
Hachura
 62
7
370
25
100
AcDbLine
 10
2949.3791957248354
 20
5987.910218375058
 30
0.0
 11
2949.3791957248354
 21
5988.5551408298925
 31
0.0
  0
LINE
  5
12B
330
17
100
AcDbEntity
  8
Hachura
 62
7
370
25
100
AcDbLine
 10
2949.3791957248354
 20
5986.7493579606435
 30
0.0
 11
2949.3791957248354
 21
5987.394280415478
 31
0.0
  0
LINE
  5
12C
330
17
100
AcDbEntity
  8
Hachura
 62
7
370
25
100
AcDbLine
 10
2949.3791957248354
 20
5989.07107880019
 30
0.0
 11
2951.313963089338
 21
5988.103695117941
 31
0.0
  0
LINE
  5
12D
330
17
100
AcDbEntity
  8
Hachura
 62
7
370
25
100
AcDbLine
 10
2949.306512393989
 20
5988.97843594892
 30
0.0
 11
2951.472125151547
 21
5987.89562961302
 31
0.0
  0
LINE
  5
12E
330
17
100
AcDbEntity
  8
Hachura
 62
7
370
25
100
AcDbLine
 10
2951.413687261125
 20
5987.666879546284
 30
0.0
 11
2949.2731095924596
 21
5988.737168391333
 31
0.0
  0
LINE
  5
12F
330
17
100
AcDbEntity
  8
Hachura
 62
7
370
25
100
AcDbLine
 10
2951.313963089338
 20
5987.5877571476385
 30
0.0
 11
2949.3791957248354
 21
5988.5551408298925
 31
0.0
  0
LINE
  5
130
330
17
100
AcDbEntity
  8
Hachura
 62
7
370
25
100
AcDbLine
 10
2949.3791957248354
 20
5986.7493579606435
 30
0.0
 11
2951.313963089338
 21
5985.781974278394
 31
0.0
  0
LINE
  5
131
330
17
100
AcDbEntity
  8
Hachura
 62
7
370
25
100
AcDbLine
 10
2949.3791957248354
 20
5987.910218375058
 30
0.0
 11
2951.313963089338
 21
5986.942834692809
 31
0.0
  0
LINE
  5
132
330
17
100
AcDbEntity
  8
Hachura
 62
7
370
25
100
AcDbLine
 10
2949.306512393989
 20
5987.8175755345055
 30
0.0
 11
2951.472125151547
 21
5986.734769198605
 31
0.0
  0
LINE
  5
133
330
17
100
AcDbEntity
  8
Hachura
 62
7
370
25
100
AcDbLine
 10
2951.413687261125
 20
5986.50601913187
 30
0.0
 11
2949.2731095924596
 21
5987.576307976919
 31
0.0
  0
LINE
  5
134
330
17
100
AcDbEntity
  8
Hachura
 62
7
370
25
100
AcDbLine
 10
2951.313963089338
 20
5986.426896733228
 30
0.0
 11
2949.3791957248354
 21
5987.394280415478
 31
0.0
  0
LINE
  5
135
330
17
100
AcDbEntity
  8
Hachura
 62
7
370
25
100
AcDbLine
 10
2951.056201418903
 20
5990.554296803423
 30
0.0
 11
2951.313963089338
 21
5990.4254159467655
 31
0.0
  0
LINE
  5
136
330
17
100
AcDbEntity
  8
Hachura
 62
7
370
25
100
AcDbLine
 10
2950.7982324283935
 20
5990.554296803423
 30
0.0
 11
2951.472125151547
 21
5990.217350441844
 31
0.0
  0
LINE
  5
137
330
17
100
AcDbEntity
  8
Hachura
 62
7
370
25
100
AcDbLine
 10
2951.313963089338
 20
5990.4254159467655
 30
0.0
 11
2951.313963089338
 21
5990.554296803423
 31
0.0
  0
LINE
  5
138
330
17
100
AcDbEntity
  8
Hachura
 62
7
370
25
100
AcDbLine
 10
2951.3121713036176
 20
5990.55268670684
 30
0.0
 11
2950.9897100762005
 21
5990.875147955699
 31
0.0
  0
LINE
  5
139
330
17
100
AcDbEntity
  8
Hachura
 62
7
370
25
100
AcDbLine
 10
2951.313963089338
 20
5989.909477987185
 30
0.0
 11
2951.313963089338
 21
5989.264555532351
 31
0.0
  0
LINE
  5
13A
330
17
100
AcDbEntity
  8
Hachura
 62
7
370
25
100
AcDbLine
 10
2949.3791957248354
 20
5990.231939214605
 30
0.0
 11
2949.3791957248354
 21
5990.554296803423
 31
0.0
  0
LINE
  5
13B
330
17
100
AcDbEntity
  8
Hachura
 62
7
370
25
100
AcDbLine
 10
2949.377318438344
 20
5990.552686728279
 30
0.0
 11
2949.377318438344
 21
5990.552609310205
 31
0.0
  0
LINE
  5
13C
330
17
100
AcDbEntity
  8
Hachura
 62
7
370
25
100
AcDbLine
 10
2949.377318438344
 20
5990.552686728279
 30
0.0
 11
2949.699865166532
 21
5990.875147955699
 31
0.0
  0
LINE
  5
13D
330
17
100
AcDbEntity
  8
Hachura
 62
7
370
25
100
AcDbLine
 10
2949.3791957248354
 20
5988.343286170055
 30
0.0
 11
2949.3791957248354
 21
5988.55514081917
 31
0.0
  0
LINE
  5
13E
330
17
100
AcDbEntity
  8
Hachura
 62
7
370
25
100
AcDbLine
 10
2951.413687261125
 20
5989.988600375109
 30
0.0
 11
2950.282294447376
 21
5990.554296803423
 31
0.0
  0
LINE
  5
13F
330
17
100
AcDbEntity
  8
Hachura
 62
7
370
25
100
AcDbLine
 10
2951.313963089338
 20
5989.909477987185
 30
0.0
 11
2950.0243254997454
 21
5990.554296803423
 31
0.0
  0
LINE
  5
140
330
17
100
AcDbEntity
  8
Hachura
 62
7
370
25
100
AcDbLine
 10
2949.699865166532
 20
5990.875147955699
 30
0.0
 11
2950.9897100762005
 21
5990.875147955699
 31
0.0
  0
LINE
  5
141
330
17
100
AcDbEntity
  8
Hachura
 62
7
370
25
100
AcDbLine
 10
2949.3791957248354
 20
5990.231939214605
 30
0.0
 11
2951.313963089338
 21
5989.264555532351
 31
0.0
  0
LINE
  5
142
330
17
100
AcDbEntity
  8
Hachura
 62
7
370
25
100
AcDbLine
 10
2951.3121713036176
 20
5990.55268670684
 30
0.0
 11
2949.377403939115
 21
5990.55268670684
 31
0.0
  0
LINE
  5
143
330
17
100
AcDbEntity
  8
Hachura
 62
7
370
25
100
AcDbLine
 10
2955.907526581462
 20
5979.074780750265
 30
0.0
 11
2948.0928648368313
 21
5979.074780750265
 31
0.0
  0
LINE
  5
144
330
17
100
AcDbEntity
  8
Hachura
 62
7
370
25
100
AcDbLine
 10
2952.087870060865
 20
5985.781974278394
 30
0.0
 11
2948.7342732700013
 21
5985.781974278394
 31
0.0
  0
LINE
  5
145
330
17
100
AcDbEntity
  8
Hachura
 62
7
370
25
100
AcDbLine
 10
2952.087870060865
 20
5985.714257421066
 30
0.0
 11
2948.7342732700013
 21
5985.714257421066
 31
0.0
  0
LINE
  5
146
330
17
100
AcDbEntity
  8
Hachura
 62
7
370
25
100
AcDbLine
 10
2948.4763043223697
 20
5982.557362004225
 30
0.0
 11
2952.3458390513747
 21
5982.557362004225
 31
0.0
  0
LINE
  5
147
330
17
100
AcDbEntity
  8
Hachura
 62
7
370
25
100
AcDbLine
 10
2943.9618471385334
 20
5979.977672184889
 30
0.0
 11
2956.860296235212
 21
5979.977672184889
 31
0.0
  0
LINE
  5
148
330
17
100
AcDbEntity
  8
Hachura
 62
7
370
25
100
AcDbLine
 10
2956.860296235212
 20
5979.074780750265
 30
0.0
 11
2943.9653889029264
 21
5979.074780750265
 31
0.0
  0
LINE
  5
149
330
17
100
AcDbEntity
  8
Hachura
 62
7
370
25
100
AcDbLine
 10
2949.766149232038
 20
5985.781974278394
 30
0.0
 11
2949.766149232038
 21
5982.557362004225
 31
0.0
  0
LINE
  5
14A
330
17
100
AcDbEntity
  8
Hachura
 62
7
370
25
100
AcDbLine
 10
2948.7342732700013
 20
5985.781974278394
 30
0.0
 11
2948.7342732700013
 21
5982.557362004225
 31
0.0
  0
LINE
  5
14B
330
17
100
AcDbEntity
  8
Hachura
 62
7
370
25
100
AcDbLine
 10
2950.411071686872
 20
5979.977672184889
 30
0.0
 11
2948.4763043223697
 21
5979.977672184889
 31
0.0
  0
LINE
  5
14C
330
17
100
AcDbEntity
  8
Hachura
 62
7
370
25
100
AcDbLine
 10
2949.121226777204
 20
5979.977672184889
 30
0.0
 11
2949.766149232038
 21
5979.977672184889
 31
0.0
  0
LINE
  5
14D
330
17
100
AcDbEntity
  8
Hachura
 62
7
370
25
100
AcDbLine
 10
2950.405431324511
 20
5979.977672184889
 30
0.0
 11
2950.405431324511
 21
5979.074780750265
 31
0.0
  0
LINE
  5
14E
330
17
100
AcDbEntity
  8
Hachura
 62
7
370
25
100
AcDbLine
 10
2950.0988896331623
 20
5979.977672184889
 30
0.0
 11
2950.0988896331623
 21
5981.976831374347
 31
0.0
  0
LINE
  5
14F
330
17
100
AcDbEntity
  8
Hachura
 62
7
370
25
100
AcDbLine
 10
2950.6148276141816
 20
5981.976831374347
 30
0.0
 11
2950.6148276141816
 21
5979.977672184889
 31
0.0
  0
LINE
  5
150
330
17
100
AcDbEntity
  8
Hachura
 62
7
370
25
100
AcDbLine
 10
2947.37119506314
 20
5979.995946741957
 30
0.0
 11
2947.37119506314
 21
5979.068724066875
 31
0.0
  0
LINE
  5
151
330
17
100
AcDbEntity
  8
Hachura
 62
7
370
25
100
AcDbLine
 10
2949.4514560541243
 20
5979.224826628188
 30
0.0
 11
2949.4514560541243
 21
5979.657894433907
 31
0.0
  0
LINE
  5
152
330
17
100
AcDbEntity
  8
Hachura
 62
7
370
25
100
AcDbLine
 10
2948.4763043223697
 20
5979.977672184889
 30
0.0
 11
2948.4763043223697
 21
5982.557362004225
 31
0.0
  0
LINE
  5
153
330
17
100
AcDbEntity
  8
Hachura
 62
7
370
25
100
AcDbLine
 10
2949.4514560541243
 20
5979.657894433907
 30
0.0
 11
2949.4514560541243
 21
5979.869749083022
 31
0.0
  0
LINE
  5
154
330
17
100
AcDbEntity
  8
Hachura
 62
7
370
25
100
AcDbLine
 10
2943.9653889029264
 20
5979.074780750265
 30
0.0
 11
2943.9653889029264
 21
5984.211449332351
 31
0.0
  0
LINE
  5
155
330
17
100
AcDbEntity
  8
Hachura
 62
7
370
25
100
AcDbLine
 10
2945.638645512526
 20
5984.234160388937
 30
0.0
 11
2946.2203055865807
 21
5982.023852071084
 31
0.0
  0
LINE
  5
156
330
17
100
AcDbEntity
  8
Hachura
 62
7
370
25
100
AcDbLine
 10
2943.9618471385334
 20
5984.234160388937
 30
0.0
 11
2945.638645512526
 21
5984.234160388937
 31
0.0
  0
LINE
  5
157
330
17
100
AcDbEntity
  8
Hachura
 62
7
370
25
100
AcDbLine
 10
2946.532149624954
 20
5981.783455064855
 30
0.0
 11
2948.4763043223697
 21
5981.783455064855
 31
0.0
  0
LINE
  5
158
330
17
100
AcDbEntity
  8
Hachura
 62
7
370
25
100
AcDbLine
 10
2943.9618471385334
 20
5979.977672184889
 30
0.0
 11
2949.121226777204
 21
5979.977672184889
 31
0.0
  0
LINE
  5
159
330
17
100
AcDbEntity
  8
Hachura
 62
7
370
25
100
AcDbLine
 10
2955.183497818341
 20
5984.234160388937
 30
0.0
 11
2954.6018377442865
 21
5982.023852071084
 31
0.0
  0
LINE
  5
15A
330
17
100
AcDbEntity
  8
Hachura
 62
7
370
25
100
AcDbLine
 10
2952.087870060865
 20
5982.557362004225
 30
0.0
 11
2952.087870060865
 21
5985.781974278394
 31
0.0
  0
LINE
  5
15B
330
17
100
AcDbEntity
  8
Hachura
 62
7
370
25
100
AcDbLine
 10
2951.313963089338
 20
5985.781974278394
 30
0.0
 11
2951.313963089338
 21
5982.557362004225
 31
0.0
  0
LINE
  5
15C
330
17
100
AcDbEntity
  8
Hachura
 62
7
370
25
100
AcDbLine
 10
2953.43720965735
 20
5979.995946741957
 30
0.0
 11
2953.43720965735
 21
5979.074780750265
 31
0.0
  0
LINE
  5
15D
330
17
100
AcDbEntity
  8
Hachura
 62
7
370
25
100
AcDbLine
 10
2951.3862234186267
 20
5979.851371166069
 30
0.0
 11
2951.3862234186267
 21
5979.418303371071
 31
0.0
  0
LINE
  5
15E
330
17
100
AcDbEntity
  8
Hachura
 62
7
370
25
100
AcDbLine
 10
2954.869463262215
 20
5979.995946741957
 30
0.0
 11
2954.869463262215
 21
5979.068724066875
 31
0.0
  0
LINE
  5
15F
330
17
100
AcDbEntity
  8
Hachura
 62
7
370
25
100
AcDbLine
 10
2952.3458390513747
 20
5982.557362004225
 30
0.0
 11
2952.3458390513747
 21
5979.977672184889
 31
0.0
  0
LINE
  5
160
330
17
100
AcDbEntity
  8
Hachura
 62
7
370
25
100
AcDbLine
 10
2952.3458390513747
 20
5982.557362004225
 30
0.0
 11
2952.087870060865
 21
5982.557362004225
 31
0.0
  0
LINE
  5
161
330
17
100
AcDbEntity
  8
Hachura
 62
7
370
25
100
AcDbLine
 10
2952.3458390513747
 20
5982.557362004225
 30
0.0
 11
2952.087870060865
 21
5982.557362004225
 31
0.0
  0
LINE
  5
162
330
17
100
AcDbEntity
  8
Hachura
 62
7
370
25
100
AcDbLine
 10
2954.2899937059105
 20
5981.783455064855
 30
0.0
 11
2952.341957127696
 21
5981.783455064855
 31
0.0
  0
LINE
  5
163
330
17
100
AcDbEntity
  8
Hachura
 62
7
370
25
100
AcDbLine
 10
2956.860296235212
 20
5979.977672184889
 30
0.0
 11
2956.860296235212
 21
5984.234160388937
 31
0.0
  0
LINE
  5
164
330
17
100
AcDbEntity
  8
Hachura
 62
7
370
25
100
AcDbLine
 10
2956.860296235212
 20
5979.977672184889
 30
0.0
 11
2956.860296235212
 21
5979.074780750265
 31
0.0
  0
LINE
  5
165
330
17
100
AcDbEntity
  8
Hachura
 62
7
370
25
100
AcDbLine
 10
2955.7119651784174
 20
5979.995946741957
 30
0.0
 11
2955.7119651784174
 21
5979.068724066875
 31
0.0
  0
LINE
  5
166
330
17
100
AcDbEntity
  8
Hachura
 62
7
370
25
100
AcDbLine
 10
2956.1753414102764
 20
5979.995946741957
 30
0.0
 11
2956.1753414102764
 21
5979.068724066875
 31
0.0
  0
LINE
  5
167
330
17
100
AcDbEntity
  8
Hachura
 62
7
370
25
100
AcDbLine
 10
2956.5123421424537
 20
5979.995946741957
 30
0.0
 11
2956.5123421424537
 21
5979.068724066875
 31
0.0
  0
LINE
  5
168
330
17
100
AcDbEntity
  8
Hachura
 62
7
370
25
100
AcDbLine
 10
2956.7229678894987
 20
5979.995946741957
 30
0.0
 11
2956.7229678894987
 21
5979.068724066875
 31
0.0
  0
LINE
  5
169
330
17
100
AcDbEntity
  8
Hachura
 62
7
370
25
100
AcDbLine
 10
2956.860296235212
 20
5984.234160388937
 30
0.0
 11
2955.183497818341
 21
5984.234160388937
 31
0.0
  0
LINE
  5
16A
330
17
100
AcDbEntity
  8
Hachura
 62
7
370
25
100
AcDbLine
 10
2950.540056141827
 20
5985.781974278394
 30
0.0
 11
2949.2731095888616
 21
5986.41544756122
 31
0.0
  0
LINE
  5
16B
330
17
100
AcDbEntity
  8
Hachura
 62
7
370
25
100
AcDbLine
 10
2950.2820871640083
 20
5985.781974278394
 30
0.0
 11
2949.3791957212375
 21
5986.2334199997795
 31
0.0
  0
LINE
  5
16C
330
17
100
AcDbEntity
  8
Hachura
 62
7
370
25
100
AcDbLine
 10
2949.3791957212366
 20
5985.781974278394
 30
0.0
 11
2949.3791957212366
 21
5986.2334199997795
 31
0.0
  0
LINE
  5
16D
330
17
100
AcDbEntity
  8
Hachura
 62
7
370
25
100
AcDbLine
 10
2945.9562218759233
 20
5979.995946741957
 30
0.0
 11
2945.9562218759233
 21
5979.068724066875
 31
0.0
  0
LINE
  5
16E
330
17
100
AcDbEntity
  8
Hachura
 62
7
370
25
100
AcDbLine
 10
2945.113719959721
 20
5979.995946741957
 30
0.0
 11
2945.113719959721
 21
5979.068724066875
 31
0.0
  0
LINE
  5
16F
330
17
100
AcDbEntity
  8
Hachura
 62
7
370
25
100
AcDbLine
 10
2944.650343727862
 20
5979.995946741957
 30
0.0
 11
2944.650343727862
 21
5979.068724066875
 31
0.0
  0
LINE
  5
170
330
17
100
AcDbEntity
  8
Hachura
 62
7
370
25
100
AcDbLine
 10
2944.3133429956847
 20
5979.995946741957
 30
0.0
 11
2944.3133429956847
 21
5979.068724066875
 31
0.0
  0
LINE
  5
171
330
17
100
AcDbEntity
  8
Hachura
 62
7
370
25
100
AcDbLine
 10
2944.1027172486397
 20
5979.995946741957
 30
0.0
 11
2944.1027172486397
 21
5979.068724066875
 31
0.0
  0
LINE
  5
172
330
17
100
AcDbEntity
  8
Hachura
 62
7
370
25
100
AcDbLine
 10
2949.3798179890023
 20
5855.078482778221
 30
0.0
 11
2949.3798179890023
 21
5854.433560323387
 31
0.0
  0
LINE
  5
173
330
17
100
AcDbEntity
  8
Hachura
 62
7
370
25
100
AcDbLine
 10
2949.3798179890023
 20
5853.917622363806
 30
0.0
 11
2951.3145853535048
 21
5854.88500604606
 31
0.0
  0
LINE
  5
174
330
17
100
AcDbEntity
  8
Hachura
 62
7
370
25
100
AcDbLine
 10
2949.307134658156
 20
5854.010265204359
 30
0.0
 11
2951.472747415714
 21
5855.093071540259
 31
0.0
  0
LINE
  5
175
330
17
100
AcDbEntity
  8
Hachura
 62
7
370
25
100
AcDbLine
 10
2951.4143095252916
 20
5855.3218216177165
 30
0.0
 11
2949.2737318566265
 21
5854.251532761945
 31
0.0
  0
LINE
  5
176
330
17
100
AcDbEntity
  8
Hachura
 62
7
370
25
100
AcDbLine
 10
2951.3145853535048
 20
5855.400944005635
 30
0.0
 11
2949.3798179890023
 21
5854.433560323387
 31
0.0
  0
LINE
  5
177
330
17
100
AcDbEntity
  8
Hachura
 62
7
370
25
100
AcDbLine
 10
2951.3145853535048
 20
5856.045866460469
 30
0.0
 11
2951.3145853535048
 21
5855.400944005635
 31
0.0
  0
LINE
  5
178
330
17
100
AcDbEntity
  8
Hachura
 62
7
370
25
100
AcDbLine
 10
2951.3145853535048
 20
5857.722664845182
 30
0.0
 11
2951.3145853535048
 21
5858.367587300017
 31
0.0
  0
LINE
  5
179
330
17
100
AcDbEntity
  8
Hachura
 62
7
370
25
100
AcDbLine
 10
2951.3145853535048
 20
5856.773659079888
 30
0.0
 11
2951.3145853535048
 21
5856.561804430772
 31
0.0
  0
LINE
  5
17A
330
17
100
AcDbEntity
  8
Hachura
 62
7
370
25
100
AcDbLine
 10
2951.3145853535048
 20
5856.773659079888
 30
0.0
 11
2951.3145853535048
 21
5857.206726885602
 31
0.0
  0
LINE
  5
17B
330
17
100
AcDbEntity
  8
Hachura
 62
7
370
25
100
AcDbLine
 10
2949.3798179890023
 20
5856.239343203352
 30
0.0
 11
2949.3798179890023
 21
5855.594420748518
 31
0.0
  0
LINE
  5
17C
330
17
100
AcDbEntity
  8
Hachura
 62
7
370
25
100
AcDbLine
 10
2949.3798179890023
 20
5857.400203617767
 30
0.0
 11
2949.3798179890023
 21
5856.755281162933
 31
0.0
  0
LINE
  5
17D
330
17
100
AcDbEntity
  8
Hachura
 62
7
370
25
100
AcDbLine
 10
2949.3798179890023
 20
5855.078482778221
 30
0.0
 11
2951.3145853535048
 21
5856.045866460469
 31
0.0
  0
LINE
  5
17E
330
17
100
AcDbEntity
  8
Hachura
 62
7
370
25
100
AcDbLine
 10
2949.307134658156
 20
5855.17112562949
 30
0.0
 11
2951.472747415714
 21
5856.253931965391
 31
0.0
  0
LINE
  5
17F
330
17
100
AcDbEntity
  8
Hachura
 62
7
370
25
100
AcDbLine
 10
2951.4143095252916
 20
5856.482682032127
 30
0.0
 11
2949.2737318566265
 21
5855.412393187077
 31
0.0
  0
LINE
  5
180
330
17
100
AcDbEntity
  8
Hachura
 62
7
370
25
100
AcDbLine
 10
2951.3145853535048
 20
5856.561804430772
 30
0.0
 11
2949.3798179890023
 21
5855.594420748518
 31
0.0
  0
LINE
  5
181
330
17
100
AcDbEntity
  8
Hachura
 62
7
370
25
100
AcDbLine
 10
2949.3798179890023
 20
5857.400203617767
 30
0.0
 11
2951.3145853535048
 21
5858.367587300017
 31
0.0
  0
LINE
  5
182
330
17
100
AcDbEntity
  8
Hachura
 62
7
370
25
100
AcDbLine
 10
2949.3798179890023
 20
5856.239343203352
 30
0.0
 11
2951.3145853535048
 21
5857.206726885602
 31
0.0
  0
LINE
  5
183
330
17
100
AcDbEntity
  8
Hachura
 62
7
370
25
100
AcDbLine
 10
2949.307134658156
 20
5856.331986043905
 30
0.0
 11
2951.472747415714
 21
5857.4147923798055
 31
0.0
  0
LINE
  5
184
330
17
100
AcDbEntity
  8
Hachura
 62
7
370
25
100
AcDbLine
 10
2951.4143095252916
 20
5857.643542446541
 30
0.0
 11
2949.2737318566265
 21
5856.573253601491
 31
0.0
  0
LINE
  5
185
330
17
100
AcDbEntity
  8
Hachura
 62
7
370
25
100
AcDbLine
 10
2951.3145853535048
 20
5857.722664845182
 30
0.0
 11
2949.3798179890023
 21
5856.755281162933
 31
0.0
  0
LINE
  5
186
330
17
100
AcDbEntity
  8
Hachura
 62
7
370
25
100
AcDbLine
 10
2951.05682368307
 20
5853.595264774987
 30
0.0
 11
2951.3145853535048
 21
5853.724145631645
 31
0.0
  0
LINE
  5
187
330
17
100
AcDbEntity
  8
Hachura
 62
7
370
25
100
AcDbLine
 10
2950.7988546925603
 20
5853.595264774987
 30
0.0
 11
2951.472747415714
 21
5853.932211136566
 31
0.0
  0
LINE
  5
188
330
17
100
AcDbEntity
  8
Hachura
 62
7
370
25
100
AcDbLine
 10
2951.3145853535048
 20
5853.724145631645
 30
0.0
 11
2951.3145853535048
 21
5853.595264774987
 31
0.0
  0
LINE
  5
189
330
17
100
AcDbEntity
  8
Hachura
 62
7
370
25
100
AcDbLine
 10
2951.3127935677844
 20
5853.59687487157
 30
0.0
 11
2950.9903323403673
 21
5853.274413622712
 31
0.0
  0
LINE
  5
18A
330
17
100
AcDbEntity
  8
Hachura
 62
7
370
25
100
AcDbLine
 10
2951.3145853535048
 20
5854.240083591226
 30
0.0
 11
2951.3145853535048
 21
5854.88500604606
 31
0.0
  0
LINE
  5
18B
330
17
100
AcDbEntity
  8
Hachura
 62
7
370
25
100
AcDbLine
 10
2949.3798179890023
 20
5853.917622363806
 30
0.0
 11
2949.3798179890023
 21
5853.595264774987
 31
0.0
  0
LINE
  5
18C
330
17
100
AcDbEntity
  8
Hachura
 62
7
370
25
100
AcDbLine
 10
2949.377940702511
 20
5853.596874850132
 30
0.0
 11
2949.377940702511
 21
5853.596952268205
 31
0.0
  0
LINE
  5
18D
330
17
100
AcDbEntity
  8
Hachura
 62
7
370
25
100
AcDbLine
 10
2949.377940702511
 20
5853.596874850132
 30
0.0
 11
2949.700487430699
 21
5853.274413622712
 31
0.0
  0
LINE
  5
18E
330
17
100
AcDbEntity
  8
Hachura
 62
7
370
25
100
AcDbLine
 10
2949.3798179890023
 20
5855.806275408356
 30
0.0
 11
2949.3798179890023
 21
5855.59442075924
 31
0.0
  0
LINE
  5
18F
330
17
100
AcDbEntity
  8
Hachura
 62
7
370
25
100
AcDbLine
 10
2951.4143095252916
 20
5854.160961203302
 30
0.0
 11
2950.282916711543
 21
5853.595264774987
 31
0.0
  0
LINE
  5
190
330
17
100
AcDbEntity
  8
Hachura
 62
7
370
25
100
AcDbLine
 10
2951.3145853535048
 20
5854.240083591226
 30
0.0
 11
2950.024947763912
 21
5853.595264774987
 31
0.0
  0
LINE
  5
191
330
17
100
AcDbEntity
  8
Hachura
 62
7
370
25
100
AcDbLine
 10
2949.700487430699
 20
5853.274413622712
 30
0.0
 11
2950.9903323403673
 21
5853.274413622712
 31
0.0
  0
LINE
  5
192
330
17
100
AcDbEntity
  8
Hachura
 62
7
370
25
100
AcDbLine
 10
2949.3798179890023
 20
5853.917622363806
 30
0.0
 11
2951.3145853535048
 21
5854.88500604606
 31
0.0
  0
LINE
  5
193
330
17
100
AcDbEntity
  8
Hachura
 62
7
370
25
100
AcDbLine
 10
2951.3127935677844
 20
5853.59687487157
 30
0.0
 11
2949.378026203282
 21
5853.59687487157
 31
0.0
  0
LINE
  5
194
330
17
100
AcDbEntity
  8
Hachura
 62
7
370
25
100
AcDbLine
 10
2955.908148845629
 20
5865.074780828146
 30
0.0
 11
2948.093487100998
 21
5865.074780828146
 31
0.0
  0
LINE
  5
195
330
17
100
AcDbEntity
  8
Hachura
 62
7
370
25
100
AcDbLine
 10
2952.088492325032
 20
5858.367587300017
 30
0.0
 11
2948.734895534168
 21
5858.367587300017
 31
0.0
  0
LINE
  5
196
330
17
100
AcDbEntity
  8
Hachura
 62
7
370
25
100
AcDbLine
 10
2952.088492325032
 20
5858.435304157345
 30
0.0
 11
2948.734895534168
 21
5858.435304157345
 31
0.0
  0
LINE
  5
197
330
17
100
AcDbEntity
  8
Hachura
 62
7
370
25
100
AcDbLine
 10
2948.4769265865366
 20
5861.5921995741855
 30
0.0
 11
2952.3464613155415
 21
5861.5921995741855
 31
0.0
  0
LINE
  5
198
330
17
100
AcDbEntity
  8
Hachura
 62
7
370
25
100
AcDbLine
 10
2943.9624694027
 20
5864.171889393521
 30
0.0
 11
2956.860918499379
 21
5864.171889393521
 31
0.0
  0
LINE
  5
199
330
17
100
AcDbEntity
  8
Hachura
 62
7
370
25
100
AcDbLine
 10
2956.860918499379
 20
5865.074780828146
 30
0.0
 11
2943.9660111670933
 21
5865.074780828146
 31
0.0
  0
LINE
  5
19A
330
17
100
AcDbEntity
  8
Hachura
 62
7
370
25
100
AcDbLine
 10
2949.766771496205
 20
5858.367587300017
 30
0.0
 11
2949.766771496205
 21
5861.5921995741855
 31
0.0
  0
LINE
  5
19B
330
17
100
AcDbEntity
  8
Hachura
 62
7
370
25
100
AcDbLine
 10
2948.734895534168
 20
5858.367587300017
 30
0.0
 11
2948.734895534168
 21
5861.5921995741855
 31
0.0
  0
LINE
  5
19C
330
17
100
AcDbEntity
  8
Hachura
 62
7
370
25
100
AcDbLine
 10
2950.411693951039
 20
5864.171889393521
 30
0.0
 11
2948.4769265865366
 21
5864.171889393521
 31
0.0
  0
LINE
  5
19D
330
17
100
AcDbEntity
  8
Hachura
 62
7
370
25
100
AcDbLine
 10
2949.1218490413708
 20
5864.171889393521
 30
0.0
 11
2949.766771496205
 21
5864.171889393521
 31
0.0
  0
LINE
  5
19E
330
17
100
AcDbEntity
  8
Hachura
 62
7
370
25
100
AcDbLine
 10
2950.406053588678
 20
5864.171889393521
 30
0.0
 11
2950.406053588678
 21
5865.074780828146
 31
0.0
  0
LINE
  5
19F
330
17
100
AcDbEntity
  8
Hachura
 62
7
370
25
100
AcDbLine
 10
2950.099511897329
 20
5864.171889393521
 30
0.0
 11
2950.099511897329
 21
5862.172730204064
 31
0.0
  0
LINE
  5
1A0
330
17
100
AcDbEntity
  8
Hachura
 62
7
370
25
100
AcDbLine
 10
2950.6154498783485
 20
5862.172730204064
 30
0.0
 11
2950.6154498783485
 21
5864.171889393521
 31
0.0
  0
LINE
  5
1A1
330
17
100
AcDbEntity
  8
Hachura
 62
7
370
25
100
AcDbLine
 10
2947.371817327307
 20
5864.153614836454
 30
0.0
 11
2947.371817327307
 21
5865.080837511536
 31
0.0
  0
LINE
  5
1A2
330
17
100
AcDbEntity
  8
Hachura
 62
7
370
25
100
AcDbLine
 10
2949.452078318291
 20
5864.924734950223
 30
0.0
 11
2949.452078318291
 21
5864.4916671445035
 31
0.0
  0
LINE
  5
1A3
330
17
100
AcDbEntity
  8
Hachura
 62
7
370
25
100
AcDbLine
 10
2948.4769265865366
 20
5864.171889393521
 30
0.0
 11
2948.4769265865366
 21
5861.5921995741855
 31
0.0
  0
LINE
  5
1A4
330
17
100
AcDbEntity
  8
Hachura
 62
7
370
25
100
AcDbLine
 10
2949.452078318291
 20
5864.4916671445035
 30
0.0
 11
2949.452078318291
 21
5864.279812495389
 31
0.0
  0
LINE
  5
1A5
330
17
100
AcDbEntity
  8
Hachura
 62
7
370
25
100
AcDbLine
 10
2943.9660111670933
 20
5865.074780828146
 30
0.0
 11
2943.9660111670933
 21
5859.93811224606
 31
0.0
  0
LINE
  5
1A6
330
17
100
AcDbEntity
  8
Hachura
 62
7
370
25
100
AcDbLine
 10
2945.639267776693
 20
5859.915401189473
 30
0.0
 11
2946.2209278507476
 21
5862.125709507327
 31
0.0
  0
LINE
  5
1A7
330
17
100
AcDbEntity
  8
Hachura
 62
7
370
25
100
AcDbLine
 10
2943.9624694027
 20
5859.915401189473
 30
0.0
 11
2945.639267776693
 21
5859.915401189473
 31
0.0
  0
LINE
  5
1A8
330
17
100
AcDbEntity
  8
Hachura
 62
7
370
25
100
AcDbLine
 10
2946.532771889121
 20
5862.366106513556
 30
0.0
 11
2948.4769265865366
 21
5862.366106513556
 31
0.0
  0
LINE
  5
1A9
330
17
100
AcDbEntity
  8
Hachura
 62
7
370
25
100
AcDbLine
 10
2943.9624694027
 20
5864.171889393521
 30
0.0
 11
2949.1218490413708
 21
5864.171889393521
 31
0.0
  0
LINE
  5
1AA
330
17
100
AcDbEntity
  8
Hachura
 62
7
370
25
100
AcDbLine
 10
2955.184120082508
 20
5859.915401189473
 30
0.0
 11
2954.6024600084534
 21
5862.125709507327
 31
0.0
  0
LINE
  5
1AB
330
17
100
AcDbEntity
  8
Hachura
 62
7
370
25
100
AcDbLine
 10
2952.088492325032
 20
5861.5921995741855
 30
0.0
 11
2952.088492325032
 21
5858.367587300017
 31
0.0
  0
LINE
  5
1AC
330
17
100
AcDbEntity
  8
Hachura
 62
7
370
25
100
AcDbLine
 10
2951.3145853535048
 20
5858.367587300017
 30
0.0
 11
2951.3145853535048
 21
5861.5921995741855
 31
0.0
  0
LINE
  5
1AD
330
17
100
AcDbEntity
  8
Hachura
 62
7
370
25
100
AcDbLine
 10
2953.437831921517
 20
5864.153614836454
 30
0.0
 11
2953.437831921517
 21
5865.074780828146
 31
0.0
  0
LINE
  5
1AE
330
17
100
AcDbEntity
  8
Hachura
 62
7
370
25
100
AcDbLine
 10
2951.3868456827936
 20
5864.298190412342
 30
0.0
 11
2951.3868456827936
 21
5864.73125820734
 31
0.0
  0
LINE
  5
1AF
330
17
100
AcDbEntity
  8
Hachura
 62
7
370
25
100
AcDbLine
 10
2954.870085526382
 20
5864.153614836454
 30
0.0
 11
2954.870085526382
 21
5865.080837511536
 31
0.0
  0
LINE
  5
1B0
330
17
100
AcDbEntity
  8
Hachura
 62
7
370
25
100
AcDbLine
 10
2952.3464613155415
 20
5861.5921995741855
 30
0.0
 11
2952.3464613155415
 21
5864.171889393521
 31
0.0
  0
LINE
  5
1B1
330
17
100
AcDbEntity
  8
Hachura
 62
7
370
25
100
AcDbLine
 10
2952.3464613155415
 20
5861.5921995741855
 30
0.0
 11
2952.088492325032
 21
5861.5921995741855
 31
0.0
  0
LINE
  5
1B2
330
17
100
AcDbEntity
  8
Hachura
 62
7
370
25
100
AcDbLine
 10
2952.3464613155415
 20
5861.5921995741855
 30
0.0
 11
2952.088492325032
 21
5861.5921995741855
 31
0.0
  0
LINE
  5
1B3
330
17
100
AcDbEntity
  8
Hachura
 62
7
370
25
100
AcDbLine
 10
2954.2906159700774
 20
5862.366106513556
 30
0.0
 11
2952.3425793918627
 21
5862.366106513556
 31
0.0
  0
LINE
  5
1B4
330
17
100
AcDbEntity
  8
Hachura
 62
7
370
25
100
AcDbLine
 10
2956.860918499379
 20
5864.171889393521
 30
0.0
 11
2956.860918499379
 21
5859.915401189473
 31
0.0
  0
LINE
  5
1B5
330
17
100
AcDbEntity
  8
Hachura
 62
7
370
25
100
AcDbLine
 10
2956.860918499379
 20
5864.171889393521
 30
0.0
 11
2956.860918499379
 21
5865.074780828146
 31
0.0
  0
LINE
  5
1B6
330
17
100
AcDbEntity
  8
Hachura
 62
7
370
25
100
AcDbLine
 10
2955.712587442584
 20
5864.153614836454
 30
0.0
 11
2955.712587442584
 21
5865.080837511536
 31
0.0
  0
LINE
  5
1B7
330
17
100
AcDbEntity
  8
Hachura
 62
7
370
25
100
AcDbLine
 10
2956.175963674443
 20
5864.153614836454
 30
0.0
 11
2956.175963674443
 21
5865.080837511536
 31
0.0
  0
LINE
  5
1B8
330
17
100
AcDbEntity
  8
Hachura
 62
7
370
25
100
AcDbLine
 10
2956.5129644066205
 20
5864.153614836454
 30
0.0
 11
2956.5129644066205
 21
5865.080837511536
 31
0.0
  0
LINE
  5
1B9
330
17
100
AcDbEntity
  8
Hachura
 62
7
370
25
100
AcDbLine
 10
2956.7235901536656
 20
5864.153614836454
 30
0.0
 11
2956.7235901536656
 21
5865.080837511536
 31
0.0
  0
LINE
  5
1BA
330
17
100
AcDbEntity
  8
Hachura
 62
7
370
25
100
AcDbLine
 10
2956.860918499379
 20
5859.915401189473
 30
0.0
 11
2955.184120082508
 21
5859.915401189473
 31
0.0
  0
LINE
  5
1BB
330
17
100
AcDbEntity
  8
Hachura
 62
7
370
25
100
AcDbLine
 10
2950.5406784059937
 20
5858.367587300017
 30
0.0
 11
2949.2737318530285
 21
5857.73411401719
 31
0.0
  0
LINE
  5
1BC
330
17
100
AcDbEntity
  8
Hachura
 62
7
370
25
100
AcDbLine
 10
2950.282709428175
 20
5858.367587300017
 30
0.0
 11
2949.3798179854043
 21
5857.916141578631
 31
0.0
  0
LINE
  5
1BD
330
17
100
AcDbEntity
  8
Hachura
 62
7
370
25
100
AcDbLine
 10
2949.3798179854034
 20
5858.367587300017
 30
0.0
 11
2949.3798179854034
 21
5857.916141578631
 31
0.0
  0
LINE
  5
1BE
330
17
100
AcDbEntity
  8
Hachura
 62
7
370
25
100
AcDbLine
 10
2945.95684414009
 20
5864.153614836454
 30
0.0
 11
2945.95684414009
 21
5865.080837511536
 31
0.0
  0
LINE
  5
1BF
330
17
100
AcDbEntity
  8
Hachura
 62
7
370
25
100
AcDbLine
 10
2945.114342223888
 20
5864.153614836454
 30
0.0
 11
2945.114342223888
 21
5865.080837511536
 31
0.0
  0
LINE
  5
1C0
330
17
100
AcDbEntity
  8
Hachura
 62
7
370
25
100
AcDbLine
 10
2944.650965992029
 20
5864.153614836454
 30
0.0
 11
2944.650965992029
 21
5865.080837511536
 31
0.0
  0
LINE
  5
1C1
330
17
100
AcDbEntity
  8
Hachura
 62
7
370
25
100
AcDbLine
 10
2944.3139652598516
 20
5864.153614836454
 30
0.0
 11
2944.3139652598516
 21
5865.080837511536
 31
0.0
  0
LINE
  5
1C2
330
17
100
AcDbEntity
  8
Hachura
 62
7
370
25
100
AcDbLine
 10
2944.1033395128065
 20
5864.153614836454
 30
0.0
 11
2944.1033395128065
 21
5865.080837511536
 31
0.0
  0
LINE
  5
1C3
330
17
100
AcDbEntity
  8
Hachura
 62
7
370
25
100
AcDbLine
 10
2950.41258215236
 20
5989.875147955668
 30
0.0
 11
2950.404040941514
 21
5858.074780828147
 31
0.0
  0
LINE
  5
1C4
330
17
100
AcDbEntity
  8
Hachura
 62
7
370
25
100
AcDbLine
 10
3033.379501698294
 20
5989.07107880019
 30
0.0
 11
3033.379501698294
 21
5989.716001255024
 31
0.0
  0
LINE
  5
1C5
330
17
100
AcDbEntity
  8
Hachura
 62
7
370
25
100
AcDbLine
 10
3033.379501698294
 20
5990.231939214605
 30
0.0
 11
3035.3142690627965
 21
5989.264555532351
 31
0.0
  0
LINE
  5
1C6
330
17
100
AcDbEntity
  8
Hachura
 62
7
370
25
100
AcDbLine
 10
3033.3068183674477
 20
5990.139296374052
 30
0.0
 11
3035.4724311250056
 21
5989.056490038151
 31
0.0
  0
LINE
  5
1C7
330
17
100
AcDbEntity
  8
Hachura
 62
7
370
25
100
AcDbLine
 10
3035.4139932345834
 20
5988.827739960694
 30
0.0
 11
3033.273415565918
 21
5989.898028816466
 31
0.0
  0
LINE
  5
1C8
330
17
100
AcDbEntity
  8
Hachura
 62
7
370
25
100
AcDbLine
 10
3035.3142690627965
 20
5988.748617572775
 30
0.0
 11
3033.379501698294
 21
5989.716001255024
 31
0.0
  0
LINE
  5
1C9
330
17
100
AcDbEntity
  8
Hachura
 62
7
370
25
100
AcDbLine
 10
3035.3142690627965
 20
5988.103695117941
 30
0.0
 11
3035.3142690627965
 21
5988.748617572775
 31
0.0
  0
LINE
  5
1CA
330
17
100
AcDbEntity
  8
Hachura
 62
7
370
25
100
AcDbLine
 10
3035.3142690627965
 20
5986.426896733228
 30
0.0
 11
3035.3142690627965
 21
5985.781974278394
 31
0.0
  0
LINE
  5
1CB
330
17
100
AcDbEntity
  8
Hachura
 62
7
370
25
100
AcDbLine
 10
3035.3142690627965
 20
5987.375902498523
 30
0.0
 11
3035.3142690627965
 21
5987.5877571476385
 31
0.0
  0
LINE
  5
1CC
330
17
100
AcDbEntity
  8
Hachura
 62
7
370
25
100
AcDbLine
 10
3035.3142690627965
 20
5987.375902498523
 30
0.0
 11
3035.3142690627965
 21
5986.942834692809
 31
0.0
  0
LINE
  5
1CD
330
17
100
AcDbEntity
  8
Hachura
 62
7
370
25
100
AcDbLine
 10
3033.379501698294
 20
5987.910218375058
 30
0.0
 11
3033.379501698294
 21
5988.5551408298925
 31
0.0
  0
LINE
  5
1CE
330
17
100
AcDbEntity
  8
Hachura
 62
7
370
25
100
AcDbLine
 10
3033.379501698294
 20
5986.7493579606435
 30
0.0
 11
3033.379501698294
 21
5987.394280415478
 31
0.0
  0
LINE
  5
1CF
330
17
100
AcDbEntity
  8
Hachura
 62
7
370
25
100
AcDbLine
 10
3033.379501698294
 20
5989.07107880019
 30
0.0
 11
3035.3142690627965
 21
5988.103695117941
 31
0.0
  0
LINE
  5
1D0
330
17
100
AcDbEntity
  8
Hachura
 62
7
370
25
100
AcDbLine
 10
3033.3068183674477
 20
5988.97843594892
 30
0.0
 11
3035.4724311250056
 21
5987.89562961302
 31
0.0
  0
LINE
  5
1D1
330
17
100
AcDbEntity
  8
Hachura
 62
7
370
25
100
AcDbLine
 10
3035.4139932345834
 20
5987.666879546284
 30
0.0
 11
3033.273415565918
 21
5988.737168391333
 31
0.0
  0
LINE
  5
1D2
330
17
100
AcDbEntity
  8
Hachura
 62
7
370
25
100
AcDbLine
 10
3035.3142690627965
 20
5987.5877571476385
 30
0.0
 11
3033.379501698294
 21
5988.5551408298925
 31
0.0
  0
LINE
  5
1D3
330
17
100
AcDbEntity
  8
Hachura
 62
7
370
25
100
AcDbLine
 10
3033.379501698294
 20
5986.7493579606435
 30
0.0
 11
3035.3142690627965
 21
5985.781974278394
 31
0.0
  0
LINE
  5
1D4
330
17
100
AcDbEntity
  8
Hachura
 62
7
370
25
100
AcDbLine
 10
3033.379501698294
 20
5987.910218375058
 30
0.0
 11
3035.3142690627965
 21
5986.942834692809
 31
0.0
  0
LINE
  5
1D5
330
17
100
AcDbEntity
  8
Hachura
 62
7
370
25
100
AcDbLine
 10
3033.3068183674477
 20
5987.8175755345055
 30
0.0
 11
3035.4724311250056
 21
5986.734769198605
 31
0.0
  0
LINE
  5
1D6
330
17
100
AcDbEntity
  8
Hachura
 62
7
370
25
100
AcDbLine
 10
3035.4139932345834
 20
5986.50601913187
 30
0.0
 11
3033.273415565918
 21
5987.576307976919
 31
0.0
  0
LINE
  5
1D7
330
17
100
AcDbEntity
  8
Hachura
 62
7
370
25
100
AcDbLine
 10
3035.3142690627965
 20
5986.426896733228
 30
0.0
 11
3033.379501698294
 21
5987.394280415478
 31
0.0
  0
LINE
  5
1D8
330
17
100
AcDbEntity
  8
Hachura
 62
7
370
25
100
AcDbLine
 10
3035.0565073923617
 20
5990.554296803423
 30
0.0
 11
3035.3142690627965
 21
5990.4254159467655
 31
0.0
  0
LINE
  5
1D9
330
17
100
AcDbEntity
  8
Hachura
 62
7
370
25
100
AcDbLine
 10
3034.798538401852
 20
5990.554296803423
 30
0.0
 11
3035.4724311250056
 21
5990.217350441844
 31
0.0
  0
LINE
  5
1DA
330
17
100
AcDbEntity
  8
Hachura
 62
7
370
25
100
AcDbLine
 10
3035.3142690627965
 20
5990.4254159467655
 30
0.0
 11
3035.3142690627965
 21
5990.554296803423
 31
0.0
  0
LINE
  5
1DB
330
17
100
AcDbEntity
  8
Hachura
 62
7
370
25
100
AcDbLine
 10
3035.312477277076
 20
5990.55268670684
 30
0.0
 11
3034.990016049659
 21
5990.875147955699
 31
0.0
  0
LINE
  5
1DC
330
17
100
AcDbEntity
  8
Hachura
 62
7
370
25
100
AcDbLine
 10
3035.3142690627965
 20
5989.909477987185
 30
0.0
 11
3035.3142690627965
 21
5989.264555532351
 31
0.0
  0
LINE
  5
1DD
330
17
100
AcDbEntity
  8
Hachura
 62
7
370
25
100
AcDbLine
 10
3033.379501698294
 20
5990.231939214605
 30
0.0
 11
3033.379501698294
 21
5990.554296803423
 31
0.0
  0
LINE
  5
1DE
330
17
100
AcDbEntity
  8
Hachura
 62
7
370
25
100
AcDbLine
 10
3033.3776244118026
 20
5990.552686728279
 30
0.0
 11
3033.3776244118026
 21
5990.552609310205
 31
0.0
  0
LINE
  5
1DF
330
17
100
AcDbEntity
  8
Hachura
 62
7
370
25
100
AcDbLine
 10
3033.3776244118026
 20
5990.552686728279
 30
0.0
 11
3033.7001711399907
 21
5990.875147955699
 31
0.0
  0
LINE
  5
1E0
330
17
100
AcDbEntity
  8
Hachura
 62
7
370
25
100
AcDbLine
 10
3033.379501698294
 20
5988.343286170055
 30
0.0
 11
3033.379501698294
 21
5988.55514081917
 31
0.0
  0
LINE
  5
1E1
330
17
100
AcDbEntity
  8
Hachura
 62
7
370
25
100
AcDbLine
 10
3035.4139932345834
 20
5989.988600375109
 30
0.0
 11
3034.2826004208346
 21
5990.554296803423
 31
0.0
  0
LINE
  5
1E2
330
17
100
AcDbEntity
  8
Hachura
 62
7
370
25
100
AcDbLine
 10
3035.3142690627965
 20
5989.909477987185
 30
0.0
 11
3034.024631473204
 21
5990.554296803423
 31
0.0
  0
LINE
  5
1E3
330
17
100
AcDbEntity
  8
Hachura
 62
7
370
25
100
AcDbLine
 10
3033.7001711399907
 20
5990.875147955699
 30
0.0
 11
3034.990016049659
 21
5990.875147955699
 31
0.0
  0
LINE
  5
1E4
330
17
100
AcDbEntity
  8
Hachura
 62
7
370
25
100
AcDbLine
 10
3033.379501698294
 20
5990.231939214605
 30
0.0
 11
3035.3142690627965
 21
5989.264555532351
 31
0.0
  0
LINE
  5
1E5
330
17
100
AcDbEntity
  8
Hachura
 62
7
370
25
100
AcDbLine
 10
3035.312477277076
 20
5990.55268670684
 30
0.0
 11
3033.3777099125737
 21
5990.55268670684
 31
0.0
  0
LINE
  5
1E6
330
17
100
AcDbEntity
  8
Hachura
 62
7
370
25
100
AcDbLine
 10
3039.907832554921
 20
5979.074780750265
 30
0.0
 11
3032.09317081029
 21
5979.074780750265
 31
0.0
  0
LINE
  5
1E7
330
17
100
AcDbEntity
  8
Hachura
 62
7
370
25
100
AcDbLine
 10
3036.0881760343236
 20
5985.781974278394
 30
0.0
 11
3032.73457924346
 21
5985.781974278394
 31
0.0
  0
LINE
  5
1E8
330
17
100
AcDbEntity
  8
Hachura
 62
7
370
25
100
AcDbLine
 10
3036.0881760343236
 20
5985.714257421066
 30
0.0
 11
3032.73457924346
 21
5985.714257421066
 31
0.0
  0
LINE
  5
1E9
330
17
100
AcDbEntity
  8
Hachura
 62
7
370
25
100
AcDbLine
 10
3032.4766102958283
 20
5982.557362004225
 30
0.0
 11
3036.3461450248333
 21
5982.557362004225
 31
0.0
  0
LINE
  5
1EA
330
17
100
AcDbEntity
  8
Hachura
 62
7
370
25
100
AcDbLine
 10
3027.962153111992
 20
5979.977672184889
 30
0.0
 11
3040.8606022086706
 21
5979.977672184889
 31
0.0
  0
LINE
  5
1EB
330
17
100
AcDbEntity
  8
Hachura
 62
7
370
25
100
AcDbLine
 10
3040.8606022086706
 20
5979.074780750265
 30
0.0
 11
3027.965694876385
 21
5979.074780750265
 31
0.0
  0
LINE
  5
1EC
330
17
100
AcDbEntity
  8
Hachura
 62
7
370
25
100
AcDbLine
 10
3033.7664552054966
 20
5985.781974278394
 30
0.0
 11
3033.7664552054966
 21
5982.557362004225
 31
0.0
  0
LINE
  5
1ED
330
17
100
AcDbEntity
  8
Hachura
 62
7
370
25
100
AcDbLine
 10
3032.73457924346
 20
5985.781974278394
 30
0.0
 11
3032.73457924346
 21
5982.557362004225
 31
0.0
  0
LINE
  5
1EE
330
17
100
AcDbEntity
  8
Hachura
 62
7
370
25
100
AcDbLine
 10
3034.411377660331
 20
5979.977672184889
 30
0.0
 11
3032.4766102958283
 21
5979.977672184889
 31
0.0
  0
LINE
  5
1EF
330
17
100
AcDbEntity
  8
Hachura
 62
7
370
25
100
AcDbLine
 10
3033.1215327506625
 20
5979.977672184889
 30
0.0
 11
3033.7664552054966
 21
5979.977672184889
 31
0.0
  0
LINE
  5
1F0
330
17
100
AcDbEntity
  8
Hachura
 62
7
370
25
100
AcDbLine
 10
3034.4057372979696
 20
5979.977672184889
 30
0.0
 11
3034.4057372979696
 21
5979.074780750265
 31
0.0
  0
LINE
  5
1F1
330
17
100
AcDbEntity
  8
Hachura
 62
7
370
25
100
AcDbLine
 10
3034.099195606621
 20
5979.977672184889
 30
0.0
 11
3034.099195606621
 21
5981.976831374347
 31
0.0
  0
LINE
  5
1F2
330
17
100
AcDbEntity
  8
Hachura
 62
7
370
25
100
AcDbLine
 10
3034.6151335876402
 20
5981.976831374347
 30
0.0
 11
3034.6151335876402
 21
5979.977672184889
 31
0.0
  0
LINE
  5
1F3
330
17
100
AcDbEntity
  8
Hachura
 62
7
370
25
100
AcDbLine
 10
3031.3715010365986
 20
5979.995946741957
 30
0.0
 11
3031.3715010365986
 21
5979.068724066875
 31
0.0
  0
LINE
  5
1F4
330
17
100
AcDbEntity
  8
Hachura
 62
7
370
25
100
AcDbLine
 10
3033.451762027583
 20
5979.224826628188
 30
0.0
 11
3033.451762027583
 21
5979.657894433907
 31
0.0
  0
LINE
  5
1F5
330
17
100
AcDbEntity
  8
Hachura
 62
7
370
25
100
AcDbLine
 10
3032.4766102958283
 20
5979.977672184889
 30
0.0
 11
3032.4766102958283
 21
5982.557362004225
 31
0.0
  0
LINE
  5
1F6
330
17
100
AcDbEntity
  8
Hachura
 62
7
370
25
100
AcDbLine
 10
3033.451762027583
 20
5979.657894433907
 30
0.0
 11
3033.451762027583
 21
5979.869749083022
 31
0.0
  0
LINE
  5
1F7
330
17
100
AcDbEntity
  8
Hachura
 62
7
370
25
100
AcDbLine
 10
3027.965694876385
 20
5979.074780750265
 30
0.0
 11
3027.965694876385
 21
5984.211449332351
 31
0.0
  0
LINE
  5
1F8
330
17
100
AcDbEntity
  8
Hachura
 62
7
370
25
100
AcDbLine
 10
3029.6389514859848
 20
5984.234160388937
 30
0.0
 11
3030.2206115600393
 21
5982.023852071084
 31
0.0
  0
LINE
  5
1F9
330
17
100
AcDbEntity
  8
Hachura
 62
7
370
25
100
AcDbLine
 10
3027.962153111992
 20
5984.234160388937
 30
0.0
 11
3029.6389514859848
 21
5984.234160388937
 31
0.0
  0
LINE
  5
1FA
330
17
100
AcDbEntity
  8
Hachura
 62
7
370
25
100
AcDbLine
 10
3030.5324555984125
 20
5981.783455064855
 30
0.0
 11
3032.4766102958283
 21
5981.783455064855
 31
0.0
  0
LINE
  5
1FB
330
17
100
AcDbEntity
  8
Hachura
 62
7
370
25
100
AcDbLine
 10
3027.962153111992
 20
5979.977672184889
 30
0.0
 11
3033.1215327506625
 21
5979.977672184889
 31
0.0
  0
LINE
  5
1FC
330
17
100
AcDbEntity
  8
Hachura
 62
7
370
25
100
AcDbLine
 10
3039.1838037917996
 20
5984.234160388937
 30
0.0
 11
3038.602143717745
 21
5982.023852071084
 31
0.0
  0
LINE
  5
1FD
330
17
100
AcDbEntity
  8
Hachura
 62
7
370
25
100
AcDbLine
 10
3036.0881760343236
 20
5982.557362004225
 30
0.0
 11
3036.0881760343236
 21
5985.781974278394
 31
0.0
  0
LINE
  5
1FE
330
17
100
AcDbEntity
  8
Hachura
 62
7
370
25
100
AcDbLine
 10
3035.3142690627965
 20
5985.781974278394
 30
0.0
 11
3035.3142690627965
 21
5982.557362004225
 31
0.0
  0
LINE
  5
1FF
330
17
100
AcDbEntity
  8
Hachura
 62
7
370
25
100
AcDbLine
 10
3037.437515630809
 20
5979.995946741957
 30
0.0
 11
3037.437515630809
 21
5979.074780750265
 31
0.0
  0
LINE
  5
200
330
17
100
AcDbEntity
  8
Hachura
 62
7
370
25
100
AcDbLine
 10
3035.3865293920853
 20
5979.851371166069
 30
0.0
 11
3035.3865293920853
 21
5979.418303371071
 31
0.0
  0
LINE
  5
201
330
17
100
AcDbEntity
  8
Hachura
 62
7
370
25
100
AcDbLine
 10
3038.8697692356736
 20
5979.995946741957
 30
0.0
 11
3038.8697692356736
 21
5979.068724066875
 31
0.0
  0
LINE
  5
202
330
17
100
AcDbEntity
  8
Hachura
 62
7
370
25
100
AcDbLine
 10
3036.3461450248333
 20
5982.557362004225
 30
0.0
 11
3036.3461450248333
 21
5979.977672184889
 31
0.0
  0
LINE
  5
203
330
17
100
AcDbEntity
  8
Hachura
 62
7
370
25
100
AcDbLine
 10
3036.3461450248333
 20
5982.557362004225
 30
0.0
 11
3036.0881760343236
 21
5982.557362004225
 31
0.0
  0
LINE
  5
204
330
17
100
AcDbEntity
  8
Hachura
 62
7
370
25
100
AcDbLine
 10
3036.3461450248333
 20
5982.557362004225
 30
0.0
 11
3036.0881760343236
 21
5982.557362004225
 31
0.0
  0
LINE
  5
205
330
17
100
AcDbEntity
  8
Hachura
 62
7
370
25
100
AcDbLine
 10
3038.290299679369
 20
5981.783455064855
 30
0.0
 11
3036.3422631011545
 21
5981.783455064855
 31
0.0
  0
LINE
  5
206
330
17
100
AcDbEntity
  8
Hachura
 62
7
370
25
100
AcDbLine
 10
3040.8606022086706
 20
5979.977672184889
 30
0.0
 11
3040.8606022086706
 21
5984.234160388937
 31
0.0
  0
LINE
  5
207
330
17
100
AcDbEntity
  8
Hachura
 62
7
370
25
100
AcDbLine
 10
3040.8606022086706
 20
5979.977672184889
 30
0.0
 11
3040.8606022086706
 21
5979.074780750265
 31
0.0
  0
LINE
  5
208
330
17
100
AcDbEntity
  8
Hachura
 62
7
370
25
100
AcDbLine
 10
3039.712271151876
 20
5979.995946741957
 30
0.0
 11
3039.712271151876
 21
5979.068724066875
 31
0.0
  0
LINE
  5
209
330
17
100
AcDbEntity
  8
Hachura
 62
7
370
25
100
AcDbLine
 10
3040.175647383735
 20
5979.995946741957
 30
0.0
 11
3040.175647383735
 21
5979.068724066875
 31
0.0
  0
LINE
  5
20A
330
17
100
AcDbEntity
  8
Hachura
 62
7
370
25
100
AcDbLine
 10
3040.5126481159123
 20
5979.995946741957
 30
0.0
 11
3040.5126481159123
 21
5979.068724066875
 31
0.0
  0
LINE
  5
20B
330
17
100
AcDbEntity
  8
Hachura
 62
7
370
25
100
AcDbLine
 10
3040.7232738629573
 20
5979.995946741957
 30
0.0
 11
3040.7232738629573
 21
5979.068724066875
 31
0.0
  0
LINE
  5
20C
330
17
100
AcDbEntity
  8
Hachura
 62
7
370
25
100
AcDbLine
 10
3040.8606022086706
 20
5984.234160388937
 30
0.0
 11
3039.1838037917996
 21
5984.234160388937
 31
0.0
  0
LINE
  5
20D
330
17
100
AcDbEntity
  8
Hachura
 62
7
370
25
100
AcDbLine
 10
3034.5403621152855
 20
5985.781974278394
 30
0.0
 11
3033.27341556232
 21
5986.41544756122
 31
0.0
  0
LINE
  5
20E
330
17
100
AcDbEntity
  8
Hachura
 62
7
370
25
100
AcDbLine
 10
3034.282393137467
 20
5985.781974278394
 30
0.0
 11
3033.379501694696
 21
5986.2334199997795
 31
0.0
  0
LINE
  5
20F
330
17
100
AcDbEntity
  8
Hachura
 62
7
370
25
100
AcDbLine
 10
3033.379501694695
 20
5985.781974278394
 30
0.0
 11
3033.379501694695
 21
5986.2334199997795
 31
0.0
  0
LINE
  5
210
330
17
100
AcDbEntity
  8
Hachura
 62
7
370
25
100
AcDbLine
 10
3029.956527849382
 20
5979.995946741957
 30
0.0
 11
3029.956527849382
 21
5979.068724066875
 31
0.0
  0
LINE
  5
211
330
17
100
AcDbEntity
  8
Hachura
 62
7
370
25
100
AcDbLine
 10
3029.1140259331796
 20
5979.995946741957
 30
0.0
 11
3029.1140259331796
 21
5979.068724066875
 31
0.0
  0
LINE
  5
212
330
17
100
AcDbEntity
  8
Hachura
 62
7
370
25
100
AcDbLine
 10
3028.6506497013206
 20
5979.995946741957
 30
0.0
 11
3028.6506497013206
 21
5979.068724066875
 31
0.0
  0
LINE
  5
213
330
17
100
AcDbEntity
  8
Hachura
 62
7
370
25
100
AcDbLine
 10
3028.3136489691433
 20
5979.995946741957
 30
0.0
 11
3028.3136489691433
 21
5979.068724066875
 31
0.0
  0
LINE
  5
214
330
17
100
AcDbEntity
  8
Hachura
 62
7
370
25
100
AcDbLine
 10
3028.1030232220983
 20
5979.995946741957
 30
0.0
 11
3028.1030232220983
 21
5979.068724066875
 31
0.0
  0
LINE
  5
215
330
17
100
AcDbEntity
  8
Hachura
 62
7
370
25
100
AcDbLine
 10
3033.380123962433
 20
5855.078482778221
 30
0.0
 11
3033.380123962433
 21
5854.433560323387
 31
0.0
  0
LINE
  5
216
330
17
100
AcDbEntity
  8
Hachura
 62
7
370
25
100
AcDbLine
 10
3033.380123962433
 20
5853.917622363806
 30
0.0
 11
3035.3148913269356
 21
5854.88500604606
 31
0.0
  0
LINE
  5
217
330
17
100
AcDbEntity
  8
Hachura
 62
7
370
25
100
AcDbLine
 10
3033.307440631587
 20
5854.010265204359
 30
0.0
 11
3035.4730533891448
 21
5855.093071540259
 31
0.0
  0
LINE
  5
218
330
17
100
AcDbEntity
  8
Hachura
 62
7
370
25
100
AcDbLine
 10
3035.4146154987225
 20
5855.3218216177165
 30
0.0
 11
3033.2740378300573
 21
5854.251532761945
 31
0.0
  0
LINE
  5
219
330
17
100
AcDbEntity
  8
Hachura
 62
7
370
25
100
AcDbLine
 10
3035.3148913269356
 20
5855.400944005635
 30
0.0
 11
3033.380123962433
 21
5854.433560323387
 31
0.0
  0
LINE
  5
21A
330
17
100
AcDbEntity
  8
Hachura
 62
7
370
25
100
AcDbLine
 10
3035.3148913269356
 20
5856.045866460469
 30
0.0
 11
3035.3148913269356
 21
5855.400944005635
 31
0.0
  0
LINE
  5
21B
330
17
100
AcDbEntity
  8
Hachura
 62
7
370
25
100
AcDbLine
 10
3035.3148913269356
 20
5857.722664845182
 30
0.0
 11
3035.3148913269356
 21
5858.367587300017
 31
0.0
  0
LINE
  5
21C
330
17
100
AcDbEntity
  8
Hachura
 62
7
370
25
100
AcDbLine
 10
3035.3148913269356
 20
5856.773659079888
 30
0.0
 11
3035.3148913269356
 21
5856.561804430772
 31
0.0
  0
LINE
  5
21D
330
17
100
AcDbEntity
  8
Hachura
 62
7
370
25
100
AcDbLine
 10
3035.3148913269356
 20
5856.773659079888
 30
0.0
 11
3035.3148913269356
 21
5857.206726885602
 31
0.0
  0
LINE
  5
21E
330
17
100
AcDbEntity
  8
Hachura
 62
7
370
25
100
AcDbLine
 10
3033.380123962433
 20
5856.239343203352
 30
0.0
 11
3033.380123962433
 21
5855.594420748518
 31
0.0
  0
LINE
  5
21F
330
17
100
AcDbEntity
  8
Hachura
 62
7
370
25
100
AcDbLine
 10
3033.380123962433
 20
5857.400203617767
 30
0.0
 11
3033.380123962433
 21
5856.755281162933
 31
0.0
  0
LINE
  5
220
330
17
100
AcDbEntity
  8
Hachura
 62
7
370
25
100
AcDbLine
 10
3033.380123962433
 20
5855.078482778221
 30
0.0
 11
3035.3148913269356
 21
5856.045866460469
 31
0.0
  0
LINE
  5
221
330
17
100
AcDbEntity
  8
Hachura
 62
7
370
25
100
AcDbLine
 10
3033.307440631587
 20
5855.17112562949
 30
0.0
 11
3035.4730533891448
 21
5856.253931965391
 31
0.0
  0
LINE
  5
222
330
17
100
AcDbEntity
  8
Hachura
 62
7
370
25
100
AcDbLine
 10
3035.4146154987225
 20
5856.482682032127
 30
0.0
 11
3033.2740378300573
 21
5855.412393187077
 31
0.0
  0
LINE
  5
223
330
17
100
AcDbEntity
  8
Hachura
 62
7
370
25
100
AcDbLine
 10
3035.3148913269356
 20
5856.561804430772
 30
0.0
 11
3033.380123962433
 21
5855.594420748518
 31
0.0
  0
LINE
  5
224
330
17
100
AcDbEntity
  8
Hachura
 62
7
370
25
100
AcDbLine
 10
3033.380123962433
 20
5857.400203617767
 30
0.0
 11
3035.3148913269356
 21
5858.367587300017
 31
0.0
  0
LINE
  5
225
330
17
100
AcDbEntity
  8
Hachura
 62
7
370
25
100
AcDbLine
 10
3033.380123962433
 20
5856.239343203352
 30
0.0
 11
3035.3148913269356
 21
5857.206726885602
 31
0.0
  0
LINE
  5
226
330
17
100
AcDbEntity
  8
Hachura
 62
7
370
25
100
AcDbLine
 10
3033.307440631587
 20
5856.331986043905
 30
0.0
 11
3035.4730533891448
 21
5857.4147923798055
 31
0.0
  0
LINE
  5
227
330
17
100
AcDbEntity
  8
Hachura
 62
7
370
25
100
AcDbLine
 10
3035.4146154987225
 20
5857.643542446541
 30
0.0
 11
3033.2740378300573
 21
5856.573253601491
 31
0.0
  0
LINE
  5
228
330
17
100
AcDbEntity
  8
Hachura
 62
7
370
25
100
AcDbLine
 10
3035.3148913269356
 20
5857.722664845182
 30
0.0
 11
3033.380123962433
 21
5856.755281162933
 31
0.0
  0
LINE
  5
229
330
17
100
AcDbEntity
  8
Hachura
 62
7
370
25
100
AcDbLine
 10
3035.057129656501
 20
5853.595264774987
 30
0.0
 11
3035.3148913269356
 21
5853.724145631645
 31
0.0
  0
LINE
  5
22A
330
17
100
AcDbEntity
  8
Hachura
 62
7
370
25
100
AcDbLine
 10
3034.799160665991
 20
5853.595264774987
 30
0.0
 11
3035.4730533891448
 21
5853.932211136566
 31
0.0
  0
LINE
  5
22B
330
17
100
AcDbEntity
  8
Hachura
 62
7
370
25
100
AcDbLine
 10
3035.3148913269356
 20
5853.724145631645
 30
0.0
 11
3035.3148913269356
 21
5853.595264774987
 31
0.0
  0
LINE
  5
22C
330
17
100
AcDbEntity
  8
Hachura
 62
7
370
25
100
AcDbLine
 10
3035.3130995412153
 20
5853.59687487157
 30
0.0
 11
3034.990638313798
 21
5853.274413622712
 31
0.0
  0
LINE
  5
22D
330
17
100
AcDbEntity
  8
Hachura
 62
7
370
25
100
AcDbLine
 10
3035.3148913269356
 20
5854.240083591226
 30
0.0
 11
3035.3148913269356
 21
5854.88500604606
 31
0.0
  0
LINE
  5
22E
330
17
100
AcDbEntity
  8
Hachura
 62
7
370
25
100
AcDbLine
 10
3033.380123962433
 20
5853.917622363806
 30
0.0
 11
3033.380123962433
 21
5853.595264774987
 31
0.0
  0
LINE
  5
22F
330
17
100
AcDbEntity
  8
Hachura
 62
7
370
25
100
AcDbLine
 10
3033.3782466759417
 20
5853.596874850132
 30
0.0
 11
3033.3782466759417
 21
5853.596952268205
 31
0.0
  0
LINE
  5
230
330
17
100
AcDbEntity
  8
Hachura
 62
7
370
25
100
AcDbLine
 10
3033.3782466759417
 20
5853.596874850132
 30
0.0
 11
3033.70079340413
 21
5853.274413622712
 31
0.0
  0
LINE
  5
231
330
17
100
AcDbEntity
  8
Hachura
 62
7
370
25
100
AcDbLine
 10
3033.380123962433
 20
5855.806275408356
 30
0.0
 11
3033.380123962433
 21
5855.59442075924
 31
0.0
  0
LINE
  5
232
330
17
100
AcDbEntity
  8
Hachura
 62
7
370
25
100
AcDbLine
 10
3035.4146154987225
 20
5854.160961203302
 30
0.0
 11
3034.2832226849737
 21
5853.595264774987
 31
0.0
  0
LINE
  5
233
330
17
100
AcDbEntity
  8
Hachura
 62
7
370
25
100
AcDbLine
 10
3035.3148913269356
 20
5854.240083591226
 30
0.0
 11
3034.025253737343
 21
5853.595264774987
 31
0.0
  0
LINE
  5
234
330
17
100
AcDbEntity
  8
Hachura
 62
7
370
25
100
AcDbLine
 10
3033.70079340413
 20
5853.274413622712
 30
0.0
 11
3034.990638313798
 21
5853.274413622712
 31
0.0
  0
LINE
  5
235
330
17
100
AcDbEntity
  8
Hachura
 62
7
370
25
100
AcDbLine
 10
3033.380123962433
 20
5853.917622363806
 30
0.0
 11
3035.3148913269356
 21
5854.88500604606
 31
0.0
  0
LINE
  5
236
330
17
100
AcDbEntity
  8
Hachura
 62
7
370
25
100
AcDbLine
 10
3035.3130995412153
 20
5853.59687487157
 30
0.0
 11
3033.378332176713
 21
5853.59687487157
 31
0.0
  0
LINE
  5
237
330
17
100
AcDbEntity
  8
Hachura
 62
7
370
25
100
AcDbLine
 10
3039.90845481906
 20
5865.074780828146
 30
0.0
 11
3032.093793074429
 21
5865.074780828146
 31
0.0
  0
LINE
  5
238
330
17
100
AcDbEntity
  8
Hachura
 62
7
370
25
100
AcDbLine
 10
3036.0887982984627
 20
5858.367587300017
 30
0.0
 11
3032.735201507599
 21
5858.367587300017
 31
0.0
  0
LINE
  5
239
330
17
100
AcDbEntity
  8
Hachura
 62
7
370
25
100
AcDbLine
 10
3036.0887982984627
 20
5858.435304157345
 30
0.0
 11
3032.735201507599
 21
5858.435304157345
 31
0.0
  0
LINE
  5
23A
330
17
100
AcDbEntity
  8
Hachura
 62
7
370
25
100
AcDbLine
 10
3032.4772325599674
 20
5861.5921995741855
 30
0.0
 11
3036.3467672889724
 21
5861.5921995741855
 31
0.0
  0
LINE
  5
23B
330
17
100
AcDbEntity
  8
Hachura
 62
7
370
25
100
AcDbLine
 10
3027.962775376131
 20
5864.171889393521
 30
0.0
 11
3040.8612244728097
 21
5864.171889393521
 31
0.0
  0
LINE
  5
23C
330
17
100
AcDbEntity
  8
Hachura
 62
7
370
25
100
AcDbLine
 10
3040.8612244728097
 20
5865.074780828146
 30
0.0
 11
3027.966317140524
 21
5865.074780828146
 31
0.0
  0
LINE
  5
23D
330
17
100
AcDbEntity
  8
Hachura
 62
7
370
25
100
AcDbLine
 10
3033.7670774696358
 20
5858.367587300017
 30
0.0
 11
3033.7670774696358
 21
5861.5921995741855
 31
0.0
  0
LINE
  5
23E
330
17
100
AcDbEntity
  8
Hachura
 62
7
370
25
100
AcDbLine
 10
3032.735201507599
 20
5858.367587300017
 30
0.0
 11
3032.735201507599
 21
5861.5921995741855
 31
0.0
  0
LINE
  5
23F
330
17
100
AcDbEntity
  8
Hachura
 62
7
370
25
100
AcDbLine
 10
3034.41199992447
 20
5864.171889393521
 30
0.0
 11
3032.4772325599674
 21
5864.171889393521
 31
0.0
  0
LINE
  5
240
330
17
100
AcDbEntity
  8
Hachura
 62
7
370
25
100
AcDbLine
 10
3033.1221550148016
 20
5864.171889393521
 30
0.0
 11
3033.7670774696358
 21
5864.171889393521
 31
0.0
  0
LINE
  5
241
330
17
100
AcDbEntity
  8
Hachura
 62
7
370
25
100
AcDbLine
 10
3034.4063595621087
 20
5864.171889393521
 30
0.0
 11
3034.4063595621087
 21
5865.074780828146
 31
0.0
  0
LINE
  5
242
330
17
100
AcDbEntity
  8
Hachura
 62
7
370
25
100
AcDbLine
 10
3034.09981787076
 20
5864.171889393521
 30
0.0
 11
3034.09981787076
 21
5862.172730204064
 31
0.0
  0
LINE
  5
243
330
17
100
AcDbEntity
  8
Hachura
 62
7
370
25
100
AcDbLine
 10
3034.6157558517793
 20
5862.172730204064
 30
0.0
 11
3034.6157558517793
 21
5864.171889393521
 31
0.0
  0
LINE
  5
244
330
17
100
AcDbEntity
  8
Hachura
 62
7
370
25
100
AcDbLine
 10
3031.3721233007377
 20
5864.153614836454
 30
0.0
 11
3031.3721233007377
 21
5865.080837511536
 31
0.0
  0
LINE
  5
245
330
17
100
AcDbEntity
  8
Hachura
 62
7
370
25
100
AcDbLine
 10
3033.452384291722
 20
5864.924734950223
 30
0.0
 11
3033.452384291722
 21
5864.4916671445035
 31
0.0
  0
LINE
  5
246
330
17
100
AcDbEntity
  8
Hachura
 62
7
370
25
100
AcDbLine
 10
3032.4772325599674
 20
5864.171889393521
 30
0.0
 11
3032.4772325599674
 21
5861.5921995741855
 31
0.0
  0
LINE
  5
247
330
17
100
AcDbEntity
  8
Hachura
 62
7
370
25
100
AcDbLine
 10
3033.452384291722
 20
5864.4916671445035
 30
0.0
 11
3033.452384291722
 21
5864.279812495389
 31
0.0
  0
LINE
  5
248
330
17
100
AcDbEntity
  8
Hachura
 62
7
370
25
100
AcDbLine
 10
3027.966317140524
 20
5865.074780828146
 30
0.0
 11
3027.966317140524
 21
5859.93811224606
 31
0.0
  0
LINE
  5
249
330
17
100
AcDbEntity
  8
Hachura
 62
7
370
25
100
AcDbLine
 10
3029.639573750124
 20
5859.915401189473
 30
0.0
 11
3030.2212338241784
 21
5862.125709507327
 31
0.0
  0
LINE
  5
24A
330
17
100
AcDbEntity
  8
Hachura
 62
7
370
25
100
AcDbLine
 10
3027.962775376131
 20
5859.915401189473
 30
0.0
 11
3029.639573750124
 21
5859.915401189473
 31
0.0
  0
LINE
  5
24B
330
17
100
AcDbEntity
  8
Hachura
 62
7
370
25
100
AcDbLine
 10
3030.5330778625516
 20
5862.366106513556
 30
0.0
 11
3032.4772325599674
 21
5862.366106513556
 31
0.0
  0
LINE
  5
24C
330
17
100
AcDbEntity
  8
Hachura
 62
7
370
25
100
AcDbLine
 10
3027.962775376131
 20
5864.171889393521
 30
0.0
 11
3033.1221550148016
 21
5864.171889393521
 31
0.0
  0
LINE
  5
24D
330
17
100
AcDbEntity
  8
Hachura
 62
7
370
25
100
AcDbLine
 10
3039.1844260559387
 20
5859.915401189473
 30
0.0
 11
3038.602765981884
 21
5862.125709507327
 31
0.0
  0
LINE
  5
24E
330
17
100
AcDbEntity
  8
Hachura
 62
7
370
25
100
AcDbLine
 10
3036.0887982984627
 20
5861.5921995741855
 30
0.0
 11
3036.0887982984627
 21
5858.367587300017
 31
0.0
  0
LINE
  5
24F
330
17
100
AcDbEntity
  8
Hachura
 62
7
370
25
100
AcDbLine
 10
3035.3148913269356
 20
5858.367587300017
 30
0.0
 11
3035.3148913269356
 21
5861.5921995741855
 31
0.0
  0
LINE
  5
250
330
17
100
AcDbEntity
  8
Hachura
 62
7
370
25
100
AcDbLine
 10
3037.438137894948
 20
5864.153614836454
 30
0.0
 11
3037.438137894948
 21
5865.074780828146
 31
0.0
  0
LINE
  5
251
330
17
100
AcDbEntity
  8
Hachura
 62
7
370
25
100
AcDbLine
 10
3035.3871516562244
 20
5864.298190412342
 30
0.0
 11
3035.3871516562244
 21
5864.73125820734
 31
0.0
  0
LINE
  5
252
330
17
100
AcDbEntity
  8
Hachura
 62
7
370
25
100
AcDbLine
 10
3038.8703914998127
 20
5864.153614836454
 30
0.0
 11
3038.8703914998127
 21
5865.080837511536
 31
0.0
  0
LINE
  5
253
330
17
100
AcDbEntity
  8
Hachura
 62
7
370
25
100
AcDbLine
 10
3036.3467672889724
 20
5861.5921995741855
 30
0.0
 11
3036.3467672889724
 21
5864.171889393521
 31
0.0
  0
LINE
  5
254
330
17
100
AcDbEntity
  8
Hachura
 62
7
370
25
100
AcDbLine
 10
3036.3467672889724
 20
5861.5921995741855
 30
0.0
 11
3036.0887982984627
 21
5861.5921995741855
 31
0.0
  0
LINE
  5
255
330
17
100
AcDbEntity
  8
Hachura
 62
7
370
25
100
AcDbLine
 10
3036.3467672889724
 20
5861.5921995741855
 30
0.0
 11
3036.0887982984627
 21
5861.5921995741855
 31
0.0
  0
LINE
  5
256
330
17
100
AcDbEntity
  8
Hachura
 62
7
370
25
100
AcDbLine
 10
3038.2909219435082
 20
5862.366106513556
 30
0.0
 11
3036.3428853652936
 21
5862.366106513556
 31
0.0
  0
LINE
  5
257
330
17
100
AcDbEntity
  8
Hachura
 62
7
370
25
100
AcDbLine
 10
3040.8612244728097
 20
5864.171889393521
 30
0.0
 11
3040.8612244728097
 21
5859.915401189473
 31
0.0
  0
LINE
  5
258
330
17
100
AcDbEntity
  8
Hachura
 62
7
370
25
100
AcDbLine
 10
3040.8612244728097
 20
5864.171889393521
 30
0.0
 11
3040.8612244728097
 21
5865.074780828146
 31
0.0
  0
LINE
  5
259
330
17
100
AcDbEntity
  8
Hachura
 62
7
370
25
100
AcDbLine
 10
3039.712893416015
 20
5864.153614836454
 30
0.0
 11
3039.712893416015
 21
5865.080837511536
 31
0.0
  0
LINE
  5
25A
330
17
100
AcDbEntity
  8
Hachura
 62
7
370
25
100
AcDbLine
 10
3040.176269647874
 20
5864.153614836454
 30
0.0
 11
3040.176269647874
 21
5865.080837511536
 31
0.0
  0
LINE
  5
25B
330
17
100
AcDbEntity
  8
Hachura
 62
7
370
25
100
AcDbLine
 10
3040.5132703800514
 20
5864.153614836454
 30
0.0
 11
3040.5132703800514
 21
5865.080837511536
 31
0.0
  0
LINE
  5
25C
330
17
100
AcDbEntity
  8
Hachura
 62
7
370
25
100
AcDbLine
 10
3040.7238961270964
 20
5864.153614836454
 30
0.0
 11
3040.7238961270964
 21
5865.080837511536
 31
0.0
  0
LINE
  5
25D
330
17
100
AcDbEntity
  8
Hachura
 62
7
370
25
100
AcDbLine
 10
3040.8612244728097
 20
5859.915401189473
 30
0.0
 11
3039.1844260559387
 21
5859.915401189473
 31
0.0
  0
LINE
  5
25E
330
17
100
AcDbEntity
  8
Hachura
 62
7
370
25
100
AcDbLine
 10
3034.5409843794246
 20
5858.367587300017
 30
0.0
 11
3033.2740378264593
 21
5857.73411401719
 31
0.0
  0
LINE
  5
25F
330
17
100
AcDbEntity
  8
Hachura
 62
7
370
25
100
AcDbLine
 10
3034.283015401606
 20
5858.367587300017
 30
0.0
 11
3033.380123958835
 21
5857.916141578631
 31
0.0
  0
LINE
  5
260
330
17
100
AcDbEntity
  8
Hachura
 62
7
370
25
100
AcDbLine
 10
3033.3801239588342
 20
5858.367587300017
 30
0.0
 11
3033.3801239588342
 21
5857.916141578631
 31
0.0
  0
LINE
  5
261
330
17
100
AcDbEntity
  8
Hachura
 62
7
370
25
100
AcDbLine
 10
3029.957150113521
 20
5864.153614836454
 30
0.0
 11
3029.957150113521
 21
5865.080837511536
 31
0.0
  0
LINE
  5
262
330
17
100
AcDbEntity
  8
Hachura
 62
7
370
25
100
AcDbLine
 10
3029.1146481973187
 20
5864.153614836454
 30
0.0
 11
3029.1146481973187
 21
5865.080837511536
 31
0.0
  0
LINE
  5
263
330
17
100
AcDbEntity
  8
Hachura
 62
7
370
25
100
AcDbLine
 10
3028.6512719654597
 20
5864.153614836454
 30
0.0
 11
3028.6512719654597
 21
5865.080837511536
 31
0.0
  0
LINE
  5
264
330
17
100
AcDbEntity
  8
Hachura
 62
7
370
25
100
AcDbLine
 10
3028.3142712332824
 20
5864.153614836454
 30
0.0
 11
3028.3142712332824
 21
5865.080837511536
 31
0.0
  0
LINE
  5
265
330
17
100
AcDbEntity
  8
Hachura
 62
7
370
25
100
AcDbLine
 10
3028.1036454862374
 20
5864.153614836454
 30
0.0
 11
3028.1036454862374
 21
5865.080837511536
 31
0.0
  0
LINE
  5
266
330
17
100
AcDbEntity
  8
Hachura
 62
7
370
25
100
AcDbLine
 10
3034.412888125819
 20
5989.875147955668
 30
0.0
 11
3034.404346914944
 21
5858.074780828147
 31
0.0
  0
LINE
  5
267
330
17
100
AcDbEntity
  8
Madeira
 62
7
370
25
100
AcDbLine
 10
3102.428528939472
 20
5885.059417300976
 30
0.0
 11
3113.928976985189
 21
5899.072053223367
 31
0.0
  0
LINE
  5
268
330
17
100
AcDbEntity
  8
Madeira
 62
7
370
25
100
AcDbLine
 10
3102.428528939472
 20
5885.059417300976
 30
0.0
 11
3105.897021874735
 21
5899.063234142785
 31
0.0
  0
LINE
  5
269
330
17
100
AcDbEntity
  8
Madeira
 62
7
370
25
100
AcDbLine
 10
3102.428528939472
 20
5885.059417300976
 30
0.0
 11
3116.422561361946
 21
5890.50205928055
 31
0.0
  0
LINE
  5
26A
330
17
100
AcDbEntity
  8
Madeira
 62
7
370
25
100
AcDbLine
 10
2966.435500945441
 20
5885.078540490972
 30
0.0
 11
2954.9043089396255
 21
5899.065887690163
 31
0.0
  0
LINE
  5
26B
330
17
100
AcDbEntity
  8
Madeira
 62
7
370
25
100
AcDbLine
 10
2966.435500945441
 20
5885.078540490972
 30
0.0
 11
2962.9362640500794
 21
5899.074706770745
 31
0.0
  0
LINE
  5
26C
330
17
100
AcDbEntity
  8
Madeira
 62
7
370
25
100
AcDbLine
 10
2966.435500945441
 20
5885.078540490972
 30
0.0
 11
2952.4295502463324
 21
5890.490438510448
 31
0.0
  0
LINE
  5
26D
330
17
100
AcDbEntity
  8
Madeira
 62
7
370
25
100
AcDbLine
 10
3011.928618451795
 20
5885.067011545239
 30
0.0
 11
3004.9223004977366
 21
5890.817235562242
 31
0.0
  0
LINE
  5
26E
330
17
100
AcDbEntity
  8
Madeira
 62
7
370
25
100
AcDbLine
 10
3011.928618451795
 20
5885.067011545239
 30
0.0
 11
3004.9267100380225
 21
5886.801258011105
 31
0.0
  0
LINE
  5
26F
330
17
100
AcDbEntity
  8
Madeira
 62
7
370
25
100
AcDbLine
 10
3011.928618451795
 20
5885.067011545239
 30
0.0
 11
3006.485976477765
 21
5899.0610439534585
 31
0.0
  0
LINE
  5
270
330
17
100
AcDbEntity
  8
Madeira
 62
7
370
25
100
AcDbLine
 10
3063.928585291124
 20
5885.067011545239
 30
0.0
 11
3056.9222673370655
 21
5890.817235562242
 31
0.0
  0
LINE
  5
271
330
17
100
AcDbEntity
  8
Madeira
 62
7
370
25
100
AcDbLine
 10
3063.928585291124
 20
5885.067011545239
 30
0.0
 11
3056.9266768773514
 21
5886.801258011105
 31
0.0
  0
LINE
  5
272
330
17
100
AcDbEntity
  8
Madeira
 62
7
370
25
100
AcDbLine
 10
3063.928585291124
 20
5885.067011545239
 30
0.0
 11
3058.4859433170936
 21
5899.0610439534585
 31
0.0
  0
LINE
  5
273
330
17
100
AcDbEntity
  8
Madeira
 62
7
370
25
100
AcDbLine
 10
3102.428528939472
 20
5959.090144222081
 30
0.0
 11
3113.928976985189
 21
5945.07750829969
 31
0.0
  0
LINE
  5
274
330
17
100
AcDbEntity
  8
Madeira
 62
7
370
25
100
AcDbLine
 10
3102.428528939472
 20
5959.090144222081
 30
0.0
 11
3105.897021874735
 21
5945.0863273802715
 31
0.0
  0
LINE
  5
275
330
17
100
AcDbEntity
  8
Madeira
 62
7
370
25
100
AcDbLine
 10
3102.428528939472
 20
5959.090144222081
 30
0.0
 11
3116.422561361946
 21
5953.647502242507
 31
0.0
  0
LINE
  5
276
330
17
100
AcDbEntity
  8
Madeira
 62
7
370
25
100
AcDbLine
 10
2966.435500945441
 20
5959.071021032085
 30
0.0
 11
2954.9043089396255
 21
5945.0836738328935
 31
0.0
  0
LINE
  5
277
330
17
100
AcDbEntity
  8
Madeira
 62
7
370
25
100
AcDbLine
 10
2966.435500945441
 20
5959.071021032085
 30
0.0
 11
2962.9362640500794
 21
5945.074854752312
 31
0.0
  0
LINE
  5
278
330
17
100
AcDbEntity
  8
Madeira
 62
7
370
25
100
AcDbLine
 10
2966.435500945441
 20
5959.071021032085
 30
0.0
 11
2952.4295502463324
 21
5953.659123012609
 31
0.0
  0
LINE
  5
279
330
17
100
AcDbEntity
  8
Madeira
 62
7
370
25
100
AcDbLine
 10
3011.928618451795
 20
5959.082549977817
 30
0.0
 11
3004.9223004977366
 21
5953.332325960814
 31
0.0
  0
LINE
  5
27A
330
17
100
AcDbEntity
  8
Madeira
 62
7
370
25
100
AcDbLine
 10
3011.928618451795
 20
5959.082549977817
 30
0.0
 11
3004.9267100380225
 21
5957.348303511951
 31
0.0
  0
LINE
  5
27B
330
17
100
AcDbEntity
  8
Madeira
 62
7
370
25
100
AcDbLine
 10
3011.928618451795
 20
5959.082549977817
 30
0.0
 11
3006.485976477765
 21
5945.088517569598
 31
0.0
  0
LINE
  5
27C
330
17
100
AcDbEntity
  8
Madeira
 62
7
370
25
100
AcDbLine
 10
3063.928585291124
 20
5959.082549977817
 30
0.0
 11
3056.9222673370655
 21
5953.332325960814
 31
0.0
  0
LINE
  5
27D
330
17
100
AcDbEntity
  8
Madeira
 62
7
370
25
100
AcDbLine
 10
3063.928585291124
 20
5959.082549977817
 30
0.0
 11
3056.9266768773514
 21
5957.348303511951
 31
0.0
  0
LINE
  5
27E
330
17
100
AcDbEntity
  8
Madeira
 62
7
370
25
100
AcDbLine
 10
3063.928585291124
 20
5959.082549977817
 30
0.0
 11
3058.4859433170936
 21
5945.088517569598
 31
0.0
  0
LINE
  5
27F
330
17
100
AcDbEntity
  8
Painéis
 62
7
370
25
100
AcDbLine
 10
3720.76015384946
 20
5803.411617482835
 30
0.0
 11
3720.76015384946
 21
5798.411617482835
 31
0.0
  0
LINE
  5
280
330
17
100
AcDbEntity
  8
Painéis
 62
7
370
25
100
AcDbLine
 10
3720.76015384946
 20
5798.411617482835
 30
0.0
 11
3686.760153849461
 21
5798.411617482833
 31
0.0
  0
LINE
  5
281
330
17
100
AcDbEntity
  8
SARR_2.2x7
 62
7
370
25
100
AcDbLine
 10
3720.76015384946
 20
5791.411617482835
 30
0.0
 11
3686.760153849461
 21
5791.411617482833
 31
0.0
  0
LINE
  5
282
330
17
100
AcDbEntity
  8
SARR_2.2x7
 62
7
370
25
100
AcDbLine
 10
3727.76015384946
 20
5796.411617482839
 30
0.0
 11
3768.760153849456
 21
5796.411617482857
 31
0.0
  0
LINE
  5
283
330
17
100
AcDbEntity
  8
SARR_2.2x7
 62
7
370
25
100
AcDbLine
 10
3727.76015384946
 20
5791.411617482835
 30
0.0
 11
3727.760153849454
 21
5803.411617482837
 31
0.0
  0
LINE
  5
284
330
17
100
AcDbEntity
  8
SARR_2.2x7
 62
7
370
25
100
AcDbLine
 10
3720.76015384946
 20
5798.411617482835
 30
0.0
 11
3720.76015384946
 21
5791.411617482835
 31
0.0
  0
LINE
  5
285
330
17
100
AcDbEntity
  8
SARR_2.2x7
 62
7
370
25
100
AcDbLine
 10
3727.76015384946
 20
5791.411617482835
 30
0.0
 11
3720.76015384946
 21
5791.411617482835
 31
0.0
  0
LINE
  5
286
330
17
100
AcDbEntity
  8
Painéis
 62
7
370
25
100
AcDbLine
 10
3686.760153849461
 20
5723.41161748282
 30
0.0
 11
3768.760153849303
 21
5723.411617482818
 31
0.0
  0
LINE
  5
287
330
17
100
AcDbEntity
  8
Painéis
 62
7
370
25
100
AcDbLine
 10
3768.760153849303
 20
5723.411617482818
 30
0.0
 11
3768.760153849509
 21
5777.41161748257
 31
0.0
  0
LINE
  5
288
330
17
100
AcDbEntity
  8
Painéis
 62
7
370
25
100
AcDbLine
 10
3686.760153849462
 20
5777.411617482461
 30
0.0
 11
3686.760153849461
 21
5723.41161748282
 31
0.0
  0
LINE
  5
289
330
17
100
AcDbEntity
  8
SARR_2.2x7
 62
7
370
25
100
AcDbLine
 10
3693.760153849402
 20
5723.41161748282
 30
0.0
 11
3693.760153849402
 21
5777.411617482818
 31
0.0
  0
LINE
  5
28A
330
17
100
AcDbEntity
  8
SARR_2.2x7
 62
7
370
25
100
AcDbLine
 10
3761.760153849256
 20
5723.411617482818
 30
0.0
 11
3761.760153849256
 21
5777.411617482815
 31
0.0
  0
LINE
  5
28B
330
17
100
AcDbEntity
  8
Painéis
 62
7
370
25
100
AcDbLine
 10
3448.809775954662
 20
5798.411617482816
 30
0.0
 11
3530.809775954535
 21
5798.411617482816
 31
0.0
  0
LINE
  5
28C
330
17
100
AcDbEntity
  8
SARR_2.2x7
 62
7
370
25
100
AcDbLine
 10
3455.809775954605
 20
5749.411617482809
 30
0.0
 11
3455.809775954604
 21
5798.411617482816
 31
0.0
  0
LINE
  5
28D
330
17
100
AcDbEntity
  8
SARR_2.2x7
 62
7
370
25
100
AcDbLine
 10
3523.80977595446
 20
5749.411617482807
 30
0.0
 11
3523.809775954458
 21
5798.411617482814
 31
0.0
  0
LINE
  5
28E
330
17
100
AcDbEntity
  8
Painéis
 62
7
370
25
100
AcDbLine
 10
3530.809775954491
 20
5749.411617482587
 30
0.0
 11
3530.809775954487
 21
5798.411617482579
 31
0.0
  0
LINE
  5
28F
330
17
100
AcDbEntity
  8
Painéis
 62
7
370
25
100
AcDbLine
 10
3448.809775954666
 20
5749.411617482816
 30
0.0
 11
3448.809775954662
 21
5798.411617482809
 31
0.0
  0
LINE
  5
290
330
17
100
AcDbEntity
  8
Painéis
 62
7
370
25
100
AcDbLine
 10
3901.979317534289
 20
5744.411617482819
 30
0.0
 11
3920.979317534286
 21
5744.411617482809
 31
0.0
  0
LINE
  5
291
330
17
100
AcDbEntity
  8
Painéis
 62
7
370
25
100
AcDbLine
 10
3901.979317534261
 20
5744.411617482819
 30
0.0
 11
3920.979317534257
 21
5744.411617482809
 31
0.0
  0
LINE
  5
292
330
17
100
AcDbEntity
  8
Painéis
 62
7
370
25
100
AcDbLine
 10
3901.979317534261
 20
5744.411617482819
 30
0.0
 11
3901.979317534239
 21
5798.41161748282
 31
0.0
  0
LINE
  5
293
330
17
100
AcDbEntity
  8
Painéis
 62
7
370
25
100
AcDbLine
 10
3901.979317534239
 20
5798.41161748282
 30
0.0
 11
3920.979317534235
 21
5798.411617482809
 31
0.0
  0
LINE
  5
294
330
17
100
AcDbEntity
  8
Painéis
 62
7
370
25
100
AcDbLine
 10
3920.979317534235
 20
5798.411617482809
 30
0.0
 11
3920.979317534206
 21
5744.411617482809
 31
0.0
  0
LINE
  5
295
330
17
100
AcDbEntity
  8
SARR_2.2x7
 62
7
370
25
100
AcDbLine
 10
3913.891496613935
 20
5744.411617482812
 30
0.0
 11
3913.891496613982
 21
5798.411617482813
 31
0.0
  0
LINE
  5
296
330
17
100
AcDbEntity
  8
SARR_2.2x7
 62
7
370
25
100
AcDbLine
 10
3908.979317534315
 20
5744.411617482816
 30
0.0
 11
3908.979317534315
 21
5798.411617482816
 31
0.0
  0
LINE
  5
297
330
17
100
AcDbEntity
  8
Painéis
 62
7
370
25
100
AcDbLine
 10
4065.704055700888
 20
5749.41161748282
 30
0.0
 11
4084.704055700885
 21
5749.411617482809
 31
0.0
  0
LINE
  5
298
330
17
100
AcDbEntity
  8
Painéis
 62
7
370
25
100
AcDbLine
 10
4065.704055700859
 20
5749.41161748282
 30
0.0
 11
4084.704055700856
 21
5749.411617482809
 31
0.0
  0
LINE
  5
299
330
17
100
AcDbEntity
  8
Painéis
 62
7
370
25
100
AcDbLine
 10
4065.704055700859
 20
5749.41161748282
 30
0.0
 11
4065.70405570084
 21
5803.41161748282
 31
0.0
  0
LINE
  5
29A
330
17
100
AcDbEntity
  8
Painéis
 62
7
370
25
100
AcDbLine
 10
4065.70405570084
 20
5803.41161748282
 30
0.0
 11
4084.704055700837
 21
5803.411617482808
 31
0.0
  0
LINE
  5
29B
330
17
100
AcDbEntity
  8
Painéis
 62
7
370
25
100
AcDbLine
 10
4084.704055700837
 20
5803.411617482808
 30
0.0
 11
4084.704055700805
 21
5749.411617482809
 31
0.0
  0
LINE
  5
29C
330
17
100
AcDbEntity
  8
SARR_2.2x7
 62
7
370
25
100
AcDbLine
 10
4077.616234780534
 20
5749.411617482812
 30
0.0
 11
4077.616234780584
 21
5803.411617482812
 31
0.0
  0
LINE
  5
29D
330
17
100
AcDbEntity
  8
SARR_2.2x7
 62
7
370
25
100
AcDbLine
 10
4072.704055700913
 20
5749.411617482816
 30
0.0
 11
4072.704055700916
 21
5803.411617482816
 31
0.0
  0
LWPOLYLINE
  5
29E
330
17
100
AcDbEntity
  8
Painéis
 62
7
370
25
100
AcDbPolyline
 90
4
 70
1
 10
3530.809775954662
 20
5504.411617482817
 10
3448.809775954662
 20
5504.411617482847
 10
3448.809775954662
 20
5502.411617482847
 10
3530.809775954662
 20
5502.411617482818
  0
LWPOLYLINE
  5
29F
330
17
100
AcDbEntity
  8
Painéis
 62
7
370
25
100
AcDbPolyline
 90
4
 70
1
 10
3768.760153849461
 20
5504.411617482817
 10
3686.760153849461
 20
5504.411617482847
 10
3686.760153849461
 20
5502.411617482847
 10
3768.760153849461
 20
5502.411617482818
  0
LWPOLYLINE
  5
2A0
330
17
100
AcDbEntity
  8
COTA
 62
7
370
25
100
AcDbPolyline
 90
4
 70
0
 10
4084.70405570084
 20
5803.41161748282
 10
4084.70405570084
 20
5862.411617482818
 10
4065.70405570084
 20
5862.411617482818
 10
4065.70405570084
 20
5803.41161748282
  0
LWPOLYLINE
  5
2A1
330
17
100
AcDbEntity
  8
Painéis
 62
7
370
25
100
AcDbPolyline
 90
4
 70
1
 10
4065.70405570084
 20
5504.411617482817
 10
4084.70405570084
 20
5504.411617482817
 10
4084.70405570084
 20
5502.411617482818
 10
4065.70405570084
 20
5502.411617482818
  0
LWPOLYLINE
  5
2A2
330
17
100
AcDbEntity
  8
COTA
 62
7
370
25
100
AcDbPolyline
 90
4
 70
0
 10
3920.979317534238
 20
5798.41161748282
 10
3920.979317534238
 20
5862.411617482818
 10
3901.979317534239
 20
5862.411617482818
 10
3901.979317534239
 20
5798.41161748282
  0
LWPOLYLINE
  5
2A3
330
17
100
AcDbEntity
  8
Painéis
 62
7
370
25
100
AcDbPolyline
 90
4
 70
1
 10
3901.979317534239
 20
5504.411617482817
 10
3920.979317534238
 20
5504.411617482817
 10
3920.979317534238
 20
5502.411617482818
 10
3901.979317534239
 20
5502.411617482818
  0
LWPOLYLINE
  5
2A4
330
17
100
AcDbEntity
  8
SARRAFO
 62
7
370
25
100
AcDbPolyline
 90
4
 70
1
 10
2952.413148564385
 20
5936.674780742151
 10
2966.41314855024
 20
5936.674780742267
 10
2966.41314855024
 20
5941.074780736586
 10
2952.413148564385
 20
5941.074780736586
  0
LWPOLYLINE
  5
2A5
330
17
100
AcDbEntity
  8
SARRAFO
 62
7
370
25
100
AcDbPolyline
 90
4
 70
1
 10
3116.413148520206
 20
5907.474780780847
 10
3102.41314853435
 20
5907.474780780789
 10
3102.41314853435
 20
5903.07478078647
 10
3116.413148520206
 20
5903.07478078647
  0
LWPOLYLINE
  5
2A6
330
17
100
AcDbEntity
  8
SARRAFO
 62
7
370
25
100
AcDbPolyline
 90
4
 70
1
 10
3116.413148520206
 20
5936.674780742151
 10
3102.41314853435
 20
5936.674780742267
 10
3102.41314853435
 20
5941.074780736586
 10
3116.413148520206
 20
5941.074780736586
  0
LWPOLYLINE
  5
2A7
330
17
100
AcDbEntity
  8
SARRAFO
 62
7
370
25
100
AcDbPolyline
 90
4
 70
1
 10
2952.413148564385
 20
5907.474780780847
 10
2966.41314855024
 20
5907.474780780789
 10
2966.41314855024
 20
5903.07478078647
 10
2952.413148564385
 20
5903.07478078647
  0
LWPOLYLINE
  5
2A8
330
17
100
AcDbEntity
  8
Perfil Metálico
 62
7
370
25
100
AcDbPolyline
 90
4
 70
1
 10
3152.413148488395
 20
5963.074780767611
 10
3152.413148488395
 20
5975.074780754572
 10
2916.413148596632
 20
5975.074780754572
 10
2916.413148596632
 20
5963.074780767611
  0
LWPOLYLINE
  5
2A9
330
17
100
AcDbEntity
  8
Perfil Metálico
 62
7
370
25
100
AcDbPolyline
 90
4
 70
1
 10
2916.413148596632
 20
5979.074780750265
 10
2916.413148596632
 20
5959.07478077186
 10
3152.413148488395
 20
5959.07478077186
 10
3152.413148488395
 20
5979.074780750265
  0
LWPOLYLINE
  5
2AA
330
17
100
AcDbEntity
  8
Perfil Metálico
 62
7
370
25
100
AcDbPolyline
 90
4
 70
1
 10
3152.413148488395
 20
5881.074780810801
 10
3152.413148488395
 20
5869.074780823839
 10
2916.413148596632
 20
5869.074780823839
 10
2916.413148596632
 20
5881.074780810801
  0
LWPOLYLINE
  5
2AB
330
17
100
AcDbEntity
  8
Perfil Metálico
 62
7
370
25
100
AcDbPolyline
 90
4
 70
1
 10
2916.413148596632
 20
5865.074780828146
 10
2916.413148596632
 20
5885.074780806552
 10
3152.413148488395
 20
5885.074780806552
 10
3152.413148488395
 20
5865.074780828146
  0
LWPOLYLINE
  5
2AC
330
17
100
AcDbEntity
  8
Madeira
 62
7
370
25
100
AcDbPolyline
 90
4
 70
1
 10
2966.435500945441
 20
5885.078540490972
 10
2966.420128965392
 20
5899.078532051763
 10
2952.4201374046006
 20
5899.063160071714
 10
2952.43550938465
 20
5885.063168510923
  0
LWPOLYLINE
  5
2AD
330
17
100
AcDbEntity
  8
Madeira
 62
7
370
25
100
AcDbPolyline
 90
4
 70
1
 10
3116.428520500817
 20
5885.063168485913
 10
3116.41314852073
 20
5899.063160096762
 10
2952.420137404592
 20
5899.063160096734
 10
2952.435509384679
 20
5885.063168485884
  0
LWPOLYLINE
  5
2AE
330
17
100
AcDbEntity
  8
Madeira
 62
7
370
25
100
AcDbPolyline
 90
4
 70
1
 10
3116.428520500817
 20
5959.086393037143
 10
3116.41314852073
 20
5945.086401426293
 10
2952.420137404592
 20
5945.086401426323
 10
2952.435509384679
 20
5959.086393037172
  0
LWPOLYLINE
  5
2AF
330
17
100
AcDbEntity
  8
CHAPA
 62
7
370
25
100
AcDbPolyline
 90
4
 70
1
 10
2952.413148564851
 20
5903.074780841826
 10
2952.413148564851
 20
5899.074780841825
 10
3116.413148520206
 20
5899.074780841825
 10
3116.413148520206
 20
5903.074780841826
  0
LWPOLYLINE
  5
2B0
330
17
100
AcDbEntity
  8
CHAPA
 62
7
370
25
100
AcDbPolyline
 90
4
 70
1
 10
2952.413148564851
 20
5941.074780681231
 10
2952.413148564851
 20
5945.074780681231
 10
3116.413148520206
 20
5945.074780681231
 10
3116.413148520206
 20
5941.074780681231
  0
LWPOLYLINE
  5
2B1
330
17
100
AcDbEntity
  8
CHAPA
 62
7
370
25
100
AcDbPolyline
 90
4
 70
1
 10
3098.013148544658
 20
5941.074780681231
 10
3094.413148544652
 20
5941.074780681231
 10
3094.413148544652
 20
5903.074780841826
 10
3098.013148544658
 20
5903.074780841826
  0
LWPOLYLINE
  5
2B2
330
17
100
AcDbEntity
  8
CHAPA
 62
7
370
25
100
AcDbPolyline
 90
4
 70
1
 10
2974.413148544652
 20
5941.074780681288
 10
2970.813148544646
 20
5941.074780681288
 10
2970.813148544646
 20
5903.074780841883
 10
2974.413148544652
 20
5903.074780841883
  0
LWPOLYLINE
  5
2B3
330
17
100
AcDbEntity
  8
CHAPA
 62
7
370
25
100
AcDbPolyline
 90
4
 70
1
 10
2952.413148564851
 20
5903.074780841826
 10
2952.413148564851
 20
5899.074780841825
 10
3116.413148520206
 20
5899.074780841825
 10
3116.413148520206
 20
5903.074780841826
  0
LWPOLYLINE
  5
2B4
330
17
100
AcDbEntity
  8
CHAPA
 62
7
370
25
100
AcDbPolyline
 90
4
 70
1
 10
2952.413148564851
 20
5941.074780681231
 10
2952.413148564851
 20
5945.074780681231
 10
3116.413148520206
 20
5945.074780681231
 10
3116.413148520206
 20
5941.074780681231
  0
LWPOLYLINE
  5
2B5
330
17
100
AcDbEntity
  8
CHAPA
 62
7
370
25
100
AcDbPolyline
 90
4
 70
1
 10
3098.013148544658
 20
5941.074780681231
 10
3094.413148544652
 20
5941.074780681231
 10
3094.413148544652
 20
5903.074780841826
 10
3098.013148544658
 20
5903.074780841826
  0
LWPOLYLINE
  5
2B6
330
17
100
AcDbEntity
  8
CHAPA
 62
7
370
25
100
AcDbPolyline
 90
4
 70
1
 10
2974.413148544652
 20
5941.074780681288
 10
2970.813148544646
 20
5941.074780681288
 10
2970.813148544646
 20
5903.074780841883
 10
2974.413148544652
 20
5903.074780841883
  0
LWPOLYLINE
  5
2B7
330
17
100
AcDbEntity
  8
SARRAFO
 62
7
370
25
100
AcDbPolyline
 90
4
 70
1
 10
3098.013148539943
 20
5917.074780938363
 10
3098.013148540031
 20
5903.074780952508
 10
3102.41314853435
 20
5903.074780952508
 10
3102.41314853435
 20
5917.074780938363
  0
LWPOLYLINE
  5
2B8
330
17
100
AcDbEntity
  8
SARRAFO
 62
7
370
25
100
AcDbPolyline
 90
4
 70
1
 10
2966.41314855024
 20
5917.07478093842
 10
2966.413148550328
 20
5903.074780952565
 10
2970.813148544646
 20
5903.074780952565
 10
2970.813148544646
 20
5917.07478093842
  0
LWPOLYLINE
  5
2B9
330
17
100
AcDbEntity
  8
SARRAFO
 62
7
370
25
100
AcDbPolyline
 90
4
 70
1
 10
3098.013148539943
 20
5927.074780584693
 10
3098.013148540031
 20
5941.074780570549
 10
3102.41314853435
 20
5941.074780570549
 10
3102.41314853435
 20
5927.074780584693
  0
LWPOLYLINE
  5
2BA
330
17
100
AcDbEntity
  8
SARRAFO
 62
7
370
25
100
AcDbPolyline
 90
4
 70
1
 10
2966.41314855024
 20
5927.074780584635
 10
2966.413148550328
 20
5941.074780570491
 10
2970.813148544646
 20
5941.074780570491
 10
2970.813148544646
 20
5927.074780584635
  0
LWPOLYLINE
  5
2BB
330
17
100
AcDbEntity
  8
Painéis
 62
7
370
25
100
AcDbPolyline
 90
4
 70
1
 10
3094.413148544652
 20
5903.074780841826
 10
3094.413148544652
 20
5941.074780681231
 10
2974.413148544652
 20
5941.074780681231
 10
2974.413148544652
 20
5903.074780841826
  0
LWPOLYLINE
  5
2BC
330
17
100
AcDbEntity
  8
Madeira
 62
7
370
25
100
AcDbPolyline
 90
4
 70
1
 10
3102.428528939472
 20
5959.090144222081
 10
3102.413156959423
 20
5945.09015266129
 10
3116.4131485202142
 20
5945.074780681241
 10
3116.4285205002634
 20
5959.074772242032
  0
LWPOLYLINE
  5
2BD
330
17
100
AcDbEntity
  8
Madeira
 62
7
370
25
100
AcDbPolyline
 90
4
 70
1
 10
3011.928618451795
 20
5959.082549977817
 10
3004.92862267853
 20
5959.090235967833
 10
3004.913250698496
 20
5945.0902444213025
 10
3011.9132464717613
 20
5945.082558431286
  0
LWPOLYLINE
  5
2BE
330
17
100
AcDbEntity
  8
Madeira
 62
7
370
25
100
AcDbPolyline
 90
4
 70
1
 10
3063.928585291124
 20
5959.082549977817
 10
3056.9285895178587
 20
5959.090235967833
 10
3056.913217537825
 20
5945.0902444213025
 10
3063.91321331109
 20
5945.082558431286
  0
TEXT
  5
2BF
330
17
100
AcDbEntity
  8
Texto Seção
 62
7
370
25
100
AcDbText
 10
3439.865584343581
 20
5519.240213108993
 30
0.0
 40
13.0
  1
P35.A
100
AcDbText
  0
TEXT
  5
2C0
330
17
100
AcDbEntity
  8
Texto Seção
 62
7
370
25
100
AcDbText
 10
3895.237727471959
 20
5513.701191061032
 30
0.0
 40
13.0
  1
P35.C
100
AcDbText
  0
TEXT
  5
2C1
330
17
100
AcDbEntity
  8
Texto Seção
 62
7
370
25
100
AcDbText
 10
4059.021418677945
 20
5513.701191061032
 30
0.0
 40
13.0
  1
P35.D
100
AcDbText
  0
TEXT
  5
2C2
330
17
100
AcDbEntity
  8
Texto Seção
 62
7
370
25
100
AcDbText
 10
3677.815962238379
 20
5519.240213108993
 30
0.0
 40
13.0
  1
P35.B
100
AcDbText
  0
TEXT
  5
2C3
330
17
100
AcDbEntity
  8
TEXTO_GERAL
 62
7
370
25
100
AcDbText
 10
3035.933079139754
 20
5910.669245265201
 30
0.0
 40
10.99999999889889
  1
A
100
AcDbText
  0
TEXT
  5
2C4
330
17
100
AcDbEntity
  8
TEXTO_GERAL
 62
7
370
25
100
AcDbText
 10
3075.590413497753
 20
5927.269771582706
 30
0.0
 40
10.99999999889889
  1
D
100
AcDbText
  0
TEXT
  5
2C5
330
17
100
AcDbEntity
  8
TEXTO_GERAL
 62
7
370
25
100
AcDbText
 10
2974.605194553598
 20
5920.843724056739
 30
0.0
 40
10.99999999889889
  1
C
100
AcDbText
  0
TEXT
  5
2C6
330
17
100
AcDbEntity
  8
TEXTO_GERAL
 62
7
370
25
100
AcDbText
 10
3037.392365914044
 20
5930.405708667613
 30
0.0
 40
10.99999999889889
  1
B
100
AcDbText
  0
TEXT
  5
2C7
330
17
100
AcDbEntity
  8
NOMENCLATURA
 62
7
370
25
100
AcDbText
 10
3981.776183572151
 20
6142.92230426533
 30
0.0
 40
16.0
  1
COBERTURA - PD: 3.60\PNIVEL DE SAÍDA: 855.25\PNIVEL DE CHEGADA: 858.85
100
AcDbText
  0
HATCH
  5
2C8
330
17
100
AcDbEntity
  8
COTA
 62
7
100
AcDbHatch
 10
0.0
 20
0.0
 30
0.0
210
0.0
220
0.0
230
1.0
  2
SOLID
 70
1
 71
0
 91
1
 92
3
 72
0
 73
1
 93
8
 10
3448.809775954662
 20
5862.411617482818
 10
3448.809775954686
 20
5798.411617482816
 10
3448.809775954686
 20
5798.411617482816
 10
3530.809775954511
 20
5798.411617482815
 10
3530.809775954511
 20
5798.411617482815
 10
3530.809775954462
 20
5862.411617482818
 10
3530.809775954462
 20
5862.411617482818
 10
3448.809775954662
 20
5862.411617482818
 97
0
 75
1
 76
1
 98
0
  0
HATCH
  5
2C9
330
17
100
AcDbEntity
  8
COTA
 62
7
100
AcDbHatch
 10
0.0
 20
0.0
 30
0.0
210
0.0
220
0.0
230
1.0
  2
SOLID
 70
1
 71
0
 91
1
 92
3
 72
0
 73
1
 93
12
 10
3720.76015384946
 20
5803.411617482835
 10
3768.760153849511
 20
5803.411617482886
 10
3768.760153849511
 20
5803.411617482886
 10
3768.760153849453
 20
5862.411617482887
 10
3768.760153849453
 20
5862.411617482887
 10
3686.760153849409
 20
5862.41161748287
 10
3686.760153849409
 20
5862.41161748287
 10
3686.760153849461
 20
5798.411617482833
 10
3686.760153849461
 20
5798.411617482833
 10
3720.76015384946
 20
5798.411617482835
 10
3720.76015384946
 20
5798.411617482835
 10
3720.76015384946
 20
5803.411617482835
 97
0
 75
1
 76
1
 98
0
  0
HATCH
  5
2CA
330
17
100
AcDbEntity
  8
Hachura
 62
7
100
AcDbHatch
 10
0.0
 20
0.0
 30
0.0
210
0.0
220
0.0
230
1.0
  2
SOLID
 70
1
 71
0
 91
2
 92
3
 72
0
 73
1
 93
12
 10
3686.760153849458
 20
5777.411617482818
 10
3768.760153849433
 20
5777.411617482815
 10
3768.760153849433
 20
5777.411617482815
 10
3768.760153849437
 20
5803.411617482846
 10
3768.760153849437
 20
5803.411617482847
 10
3720.76015384948
 20
5803.411617482847
 10
3720.76015384948
 20
5803.411617482847
 10
3720.760153849457
 20
5798.411617482835
 10
3720.760153849457
 20
5798.411617482835
 10
3686.760153849459
 20
5798.411617482833
 10
3686.760153849459
 20
5798.411617482833
 10
3686.760153849458
 20
5777.411617482818
 97
0
 92
3
 72
0
 73
1
 93
8
 10
3768.760153849424
 20
5723.411617482818
 10
3686.760153849455
 20
5723.41161748282
 10
3686.760153849455
 20
5723.41161748282
 10
3686.760153849442
 20
5502.41161748281
 10
3686.760153849442
 20
5502.41161748281
 10
3768.760153849393
 20
5502.411617482845
 10
3768.760153849393
 20
5502.411617482845
 10
3768.760153849424
 20
5723.411617482818
 97
0
 75
1
 76
1
 98
0
  0
HATCH
  5
2CB
330
17
100
AcDbEntity
  8
Hachura
 62
7
100
AcDbHatch
 10
0.0
 20
0.0
 30
0.0
210
0.0
220
0.0
230
1.0
  2
SOLID
 70
1
 71
0
 91
1
 92
3
 72
0
 73
1
 93
8
 10
3530.809775954629
 20
5749.411617482816
 10
3448.809775954676
 20
5749.411617482816
 10
3448.809775954676
 20
5749.411617482816
 10
3448.809775954643
 20
5502.411617482809
 10
3448.809775954643
 20
5502.411617482809
 10
3530.809775954594
 20
5502.411617482843
 10
3530.809775954594
 20
5502.411617482843
 10
3530.809775954629
 20
5749.411617482816
 97
0
 75
1
 76
1
 98
0
  0
HATCH
  5
2CC
330
17
100
AcDbEntity
  8
COTA
 62
7
100
AcDbHatch
 10
0.0
 20
0.0
 30
0.0
210
0.0
220
0.0
230
1.0
  2
SOLID
 70
1
 71
0
 91
1
 92
3
 72
0
 73
1
 93
8
 10
4084.70405570084
 20
5803.411617482816
 10
4084.70405570084
 20
5862.411617482818
 10
4084.70405570084
 20
5862.411617482818
 10
4065.70405570084
 20
5862.411617482818
 10
4065.70405570084
 20
5862.411617482818
 10
4065.704055700838
 20
5803.411617482814
 10
4065.704055700838
 20
5803.411617482814
 10
4084.70405570084
 20
5803.411617482816
 97
0
 75
1
 76
1
 98
0
  0
HATCH
  5
2CD
330
17
100
AcDbEntity
  8
COTA
 62
7
100
AcDbHatch
 10
0.0
 20
0.0
 30
0.0
210
0.0
220
0.0
230
1.0
  2
SOLID
 70
1
 71
0
 91
1
 92
3
 72
0
 73
1
 93
9
 10
3920.979317534235
 20
5798.411617482816
 10
3920.979317534238
 20
5862.411617482818
 10
3920.979317534238
 20
5862.411617482818
 10
3901.979317534239
 20
5862.411617482818
 10
3901.979317534239
 20
5862.411617482818
 10
3901.979317534235
 20
5798.411617482814
 10
3901.979317534235
 20
5798.411617482814
 10
3920.979317534237
 20
5798.411617482816
 10
3920.979317534235
 20
5798.411617482816
 97
0
 75
1
 76
1
 98
0
  0
HATCH
  5
2CE
330
17
100
AcDbEntity
  8
Hachura
 62
7
100
AcDbHatch
 10
0.0
 20
0.0
 30
0.0
210
0.0
220
0.0
230
1.0
  2
SOLID
 70
1
 71
0
 91
1
 92
3
 72
0
 73
1
 93
8
 10
4084.70405570087
 20
5749.411617482814
 10
4065.70405570092
 20
5749.411617482816
 10
4065.70405570092
 20
5749.411617482816
 10
4065.704055700873
 20
5502.411617482812
 10
4065.704055700873
 20
5502.411617482812
 10
4084.704055700822
 20
5502.411617482845
 10
4084.704055700822
 20
5502.411617482845
 10
4084.70405570087
 20
5749.411617482814
 97
0
 75
1
 76
1
 98
0
  0
HATCH
  5
2CF
330
17
100
AcDbEntity
  8
Hachura
 62
7
100
AcDbHatch
 10
0.0
 20
0.0
 30
0.0
210
0.0
220
0.0
230
1.0
  2
SOLID
 70
1
 71
0
 91
1
 92
3
 72
0
 73
1
 93
8
 10
3920.979317534266
 20
5744.411617482814
 10
3901.979317534317
 20
5744.411617482816
 10
3901.979317534317
 20
5744.411617482816
 10
3901.979317534271
 20
5502.411617482811
 10
3901.979317534271
 20
5502.411617482811
 10
3920.979317534221
 20
5502.411617482843
 10
3920.979317534221
 20
5502.411617482843
 10
3920.979317534266
 20
5744.411617482814
 97
0
 75
1
 76
1
 98
0
  0
HATCH
  5
2D0
330
17
100
AcDbEntity
  8
Hachura
 62
7
100
AcDbHatch
 10
0.0
 20
0.0
 30
0.0
210
0.0
220
0.0
230
1.0
  2
SOLID
 70
1
 71
0
 91
1
 92
3
 72
0
 73
1
 93
8
 10
2966.41314855024
 20
5903.07478078647
 10
2966.41314855024
 20
5907.474780780789
 10
2966.41314855024
 20
5907.474780780789
 10
2952.413148564385
 20
5907.474780780876
 10
2952.413148564385
 20
5907.474780780847
 10
2952.413148564385
 20
5903.07478078644
 10
2952.413148564385
 20
5903.07478078647
 10
2966.41314855024
 20
5903.07478078647
 97
0
 75
1
 76
1
 98
0
  0
HATCH
  5
2D1
330
17
100
AcDbEntity
  8
Hachura
 62
7
100
AcDbHatch
 10
0.0
 20
0.0
 30
0.0
210
0.0
220
0.0
230
1.0
  2
SOLID
 70
1
 71
0
 91
1
 92
3
 72
0
 73
1
 93
8
 10
2966.41314855024
 20
5941.074780736586
 10
2966.41314855024
 20
5936.674780742267
 10
2966.41314855024
 20
5936.674780742267
 10
2952.413148564385
 20
5936.67478074218
 10
2952.413148564385
 20
5936.674780742151
 10
2952.413148564385
 20
5941.074780736556
 10
2952.413148564385
 20
5941.074780736586
 10
2966.41314855024
 20
5941.074780736586
 97
0
 75
1
 76
1
 98
0
  0
HATCH
  5
2D2
330
17
100
AcDbEntity
  8
Hachura
 62
7
100
AcDbHatch
 10
0.0
 20
0.0
 30
0.0
210
0.0
220
0.0
230
1.0
  2
SOLID
 70
1
 71
0
 91
1
 92
3
 72
0
 73
1
 93
8
 10
3102.41314853435
 20
5903.07478078647
 10
3102.41314853435
 20
5907.474780780789
 10
3102.41314853435
 20
5907.474780780789
 10
3116.413148520206
 20
5907.474780780876
 10
3116.413148520206
 20
5907.474780780847
 10
3116.413148520206
 20
5903.07478078644
 10
3116.413148520206
 20
5903.07478078647
 10
3102.41314853435
 20
5903.07478078647
 97
0
 75
1
 76
1
 98
0
  0
HATCH
  5
2D3
330
17
100
AcDbEntity
  8
Hachura
 62
7
100
AcDbHatch
 10
0.0
 20
0.0
 30
0.0
210
0.0
220
0.0
230
1.0
  2
SOLID
 70
1
 71
0
 91
1
 92
3
 72
0
 73
1
 93
8
 10
2952.413148564851
 20
5903.074780841826
 10
2952.413148564851
 20
5899.074780841825
 10
2952.413148564851
 20
5899.074780841825
 10
3116.413148520206
 20
5899.074780841825
 10
3116.413148520206
 20
5899.074780841825
 10
3116.413148520206
 20
5903.074780841826
 10
3116.413148520206
 20
5903.074780841826
 10
2952.413148564851
 20
5903.074780841826
 97
0
 75
1
 76
1
 98
0
  0
HATCH
  5
2D4
330
17
100
AcDbEntity
  8
Hachura
 62
7
100
AcDbHatch
 10
0.0
 20
0.0
 30
0.0
210
0.0
220
0.0
230
1.0
  2
SOLID
 70
1
 71
0
 91
1
 92
3
 72
0
 73
1
 93
8
 10
2952.413148564851
 20
5941.074780681231
 10
2952.413148564851
 20
5945.074780681231
 10
2952.413148564851
 20
5945.074780681231
 10
3116.413148520206
 20
5945.074780681231
 10
3116.413148520206
 20
5945.074780681231
 10
3116.413148520206
 20
5941.074780681231
 10
3116.413148520206
 20
5941.074780681231
 10
2952.413148564851
 20
5941.074780681231
 97
0
 75
1
 76
1
 98
0
  0
HATCH
  5
2D5
330
17
100
AcDbEntity
  8
Hachura
 62
7
100
AcDbHatch
 10
0.0
 20
0.0
 30
0.0
210
0.0
220
0.0
230
1.0
  2
SOLID
 70
1
 71
0
 91
1
 92
3
 72
0
 73
1
 93
8
 10
3098.013148544658
 20
5941.074780681231
 10
3094.413148544652
 20
5941.074780681231
 10
3094.413148544652
 20
5941.074780681231
 10
3094.413148544652
 20
5903.074780841826
 10
3094.413148544652
 20
5903.074780841826
 10
3098.013148544658
 20
5903.074780841826
 10
3098.013148544658
 20
5903.074780841826
 10
3098.013148544658
 20
5941.074780681231
 97
0
 75
1
 76
1
 98
0
  0
HATCH
  5
2D6
330
17
100
AcDbEntity
  8
Hachura
 62
7
100
AcDbHatch
 10
0.0
 20
0.0
 30
0.0
210
0.0
220
0.0
230
1.0
  2
SOLID
 70
1
 71
0
 91
1
 92
3
 72
0
 73
1
 93
8
 10
2974.413148544652
 20
5941.074780681288
 10
2970.813148544646
 20
5941.074780681288
 10
2970.813148544646
 20
5941.074780681288
 10
2970.813148544646
 20
5903.074780841883
 10
2970.813148544646
 20
5903.074780841883
 10
2974.413148544652
 20
5903.074780841883
 10
2974.413148544652
 20
5903.074780841883
 10
2974.413148544652
 20
5941.074780681288
 97
0
 75
1
 76
1
 98
0
  0
HATCH
  5
2D7
330
17
100
AcDbEntity
  8
Hachura
 62
7
100
AcDbHatch
 10
0.0
 20
0.0
 30
0.0
210
0.0
220
0.0
230
1.0
  2
SOLID
 70
1
 71
0
 91
1
 92
3
 72
0
 73
1
 93
8
 10
3102.41314853435
 20
5941.074780736586
 10
3102.41314853435
 20
5936.674780742267
 10
3102.41314853435
 20
5936.674780742267
 10
3116.413148520206
 20
5936.67478074218
 10
3116.413148520206
 20
5936.674780742151
 10
3116.413148520206
 20
5941.074780736556
 10
3116.413148520206
 20
5941.074780736586
 10
3102.41314853435
 20
5941.074780736586
 97
0
 75
1
 76
1
 98
0
  0
HATCH
  5
2D8
330
17
100
AcDbEntity
  8
Hachura
 62
7
100
AcDbHatch
 10
0.0
 20
0.0
 30
0.0
210
0.0
220
0.0
230
1.0
  2
SOLID
 70
1
 71
0
 91
1
 92
3
 72
0
 73
1
 93
8
 10
2952.413148564851
 20
5903.074780841826
 10
2952.413148564851
 20
5899.074780841825
 10
2952.413148564851
 20
5899.074780841825
 10
3116.413148520206
 20
5899.074780841825
 10
3116.413148520206
 20
5899.074780841825
 10
3116.413148520206
 20
5903.074780841826
 10
3116.413148520206
 20
5903.074780841826
 10
2952.413148564851
 20
5903.074780841826
 97
0
 75
1
 76
1
 98
0
  0
HATCH
  5
2D9
330
17
100
AcDbEntity
  8
Hachura
 62
7
100
AcDbHatch
 10
0.0
 20
0.0
 30
0.0
210
0.0
220
0.0
230
1.0
  2
SOLID
 70
1
 71
0
 91
1
 92
3
 72
0
 73
1
 93
8
 10
2952.413148564851
 20
5941.074780681231
 10
2952.413148564851
 20
5945.074780681231
 10
2952.413148564851
 20
5945.074780681231
 10
3116.413148520206
 20
5945.074780681231
 10
3116.413148520206
 20
5945.074780681231
 10
3116.413148520206
 20
5941.074780681231
 10
3116.413148520206
 20
5941.074780681231
 10
2952.413148564851
 20
5941.074780681231
 97
0
 75
1
 76
1
 98
0
  0
HATCH
  5
2DA
330
17
100
AcDbEntity
  8
Hachura
 62
7
100
AcDbHatch
 10
0.0
 20
0.0
 30
0.0
210
0.0
220
0.0
230
1.0
  2
SOLID
 70
1
 71
0
 91
1
 92
3
 72
0
 73
1
 93
8
 10
3098.013148544658
 20
5941.074780681231
 10
3094.413148544652
 20
5941.074780681231
 10
3094.413148544652
 20
5941.074780681231
 10
3094.413148544652
 20
5903.074780841826
 10
3094.413148544652
 20
5903.074780841826
 10
3098.013148544658
 20
5903.074780841826
 10
3098.013148544658
 20
5903.074780841826
 10
3098.013148544658
 20
5941.074780681231
 97
0
 75
1
 76
1
 98
0
  0
HATCH
  5
2DB
330
17
100
AcDbEntity
  8
Hachura
 62
7
100
AcDbHatch
 10
0.0
 20
0.0
 30
0.0
210
0.0
220
0.0
230
1.0
  2
SOLID
 70
1
 71
0
 91
1
 92
3
 72
0
 73
1
 93
8
 10
2974.413148544652
 20
5941.074780681288
 10
2970.813148544646
 20
5941.074780681288
 10
2970.813148544646
 20
5941.074780681288
 10
2970.813148544646
 20
5903.074780841883
 10
2970.813148544646
 20
5903.074780841883
 10
2974.413148544652
 20
5903.074780841883
 10
2974.413148544652
 20
5903.074780841883
 10
2974.413148544652
 20
5941.074780681288
 97
0
 75
1
 76
1
 98
0
  0
HATCH
  5
2DC
330
17
100
AcDbEntity
  8
Hachura
 62
7
100
AcDbHatch
 10
0.0
 20
0.0
 30
0.0
210
0.0
220
0.0
230
1.0
  2
SOLID
 70
1
 71
0
 91
1
 92
3
 72
0
 73
1
 93
8
 10
3102.41314853435
 20
5903.074780952508
 10
3098.013148540031
 20
5903.074780952508
 10
3098.013148540031
 20
5903.074780952508
 10
3098.013148539943
 20
5917.074780938363
 10
3098.013148539943
 20
5917.074780938363
 10
3102.41314853435
 20
5917.074780938363
 10
3102.41314853435
 20
5917.074780938363
 10
3102.41314853435
 20
5903.074780952508
 97
0
 75
1
 76
1
 98
0
  0
HATCH
  5
2DD
330
17
100
AcDbEntity
  8
Hachura
 62
7
100
AcDbHatch
 10
0.0
 20
0.0
 30
0.0
210
0.0
220
0.0
230
1.0
  2
SOLID
 70
1
 71
0
 91
1
 92
3
 72
0
 73
1
 93
8
 10
2970.813148544646
 20
5903.074780952565
 10
2966.413148550328
 20
5903.074780952565
 10
2966.413148550328
 20
5903.074780952565
 10
2966.41314855024
 20
5917.07478093842
 10
2966.41314855024
 20
5917.07478093842
 10
2970.813148544646
 20
5917.07478093842
 10
2970.813148544646
 20
5917.07478093842
 10
2970.813148544646
 20
5903.074780952565
 97
0
 75
1
 76
1
 98
0
  0
HATCH
  5
2DE
330
17
100
AcDbEntity
  8
Hachura
 62
7
100
AcDbHatch
 10
0.0
 20
0.0
 30
0.0
210
0.0
220
0.0
230
1.0
  2
SOLID
 70
1
 71
0
 91
1
 92
3
 72
0
 73
1
 93
8
 10
3102.41314853435
 20
5941.074780570549
 10
3098.013148540031
 20
5941.074780570549
 10
3098.013148540031
 20
5941.074780570549
 10
3098.013148539943
 20
5927.074780584693
 10
3098.013148539943
 20
5927.074780584693
 10
3102.41314853435
 20
5927.074780584693
 10
3102.41314853435
 20
5927.074780584693
 10
3102.41314853435
 20
5941.074780570549
 97
0
 75
1
 76
1
 98
0
  0
HATCH
  5
2DF
330
17
100
AcDbEntity
  8
Hachura
 62
7
100
AcDbHatch
 10
0.0
 20
0.0
 30
0.0
210
0.0
220
0.0
230
1.0
  2
SOLID
 70
1
 71
0
 91
1
 92
3
 72
0
 73
1
 93
8
 10
2970.813148544646
 20
5941.074780570491
 10
2966.413148550328
 20
5941.074780570491
 10
2966.413148550328
 20
5941.074780570491
 10
2966.41314855024
 20
5927.074780584635
 10
2966.41314855024
 20
5927.074780584635
 10
2970.813148544646
 20
5927.074780584635
 10
2970.813148544646
 20
5927.074780584635
 10
2970.813148544646
 20
5941.074780570491
 97
0
 75
1
 76
1
 98
0
  0
ENDSEC
  0
SECTION
  2
OBJECTS
  0
DICTIONARY
  5
A
330
0
100
AcDbDictionary
281
1
  3
ACAD_COLOR
350
B
  3
ACAD_GROUP
350
C
  3
ACAD_LAYOUT
350
D
  3
ACAD_MATERIAL
350
E
  3
ACAD_MLEADERSTYLE
350
F
  3
ACAD_MLINESTYLE
350
10
  3
ACAD_PLOTSETTINGS
350
11
  3
ACAD_PLOTSTYLENAME
350
12
  3
ACAD_SCALELIST
350
14
  3
ACAD_TABLESTYLE
350
15
  3
ACAD_VISUALSTYLE
350
16
  3
EZDXF_META
350
2D
  0
DICTIONARY
  5
B
330
A
100
AcDbDictionary
281
1
  0
DICTIONARY
  5
C
330
A
100
AcDbDictionary
281
1
  0
DICTIONARY
  5
D
330
A
100
AcDbDictionary
281
1
  3
Model
350
1A
  3
Layout1
350
1E
  0
DICTIONARY
  5
E
330
A
100
AcDbDictionary
281
1
  3
ByBlock
350
1F
  3
ByLayer
350
20
  3
Global
350
21
  0
DICTIONARY
  5
F
330
A
100
AcDbDictionary
281
1
  3
Standard
350
2C
  0
DICTIONARY
  5
10
330
A
100
AcDbDictionary
281
1
  3
Standard
350
22
  0
DICTIONARY
  5
11
330
A
100
AcDbDictionary
281
1
  0
ACDBDICTIONARYWDFLT
  5
12
330
A
100
AcDbDictionary
281
1
  3
Normal
350
13
100
AcDbDictionaryWithDefault
340
13
  0
ACDBPLACEHOLDER
  5
13
330
12
  0
DICTIONARY
  5
14
330
A
100
AcDbDictionary
281
1
  0
DICTIONARY
  5
15
330
A
100
AcDbDictionary
281
1
  0
DICTIONARY
  5
16
330
A
100
AcDbDictionary
281
1
  0
LAYOUT
  5
1A
330
D
100
AcDbPlotSettings
  1

  4
A3
  6

 40
7.5
 41
20.0
 42
7.5
 43
20.0
 44
420.0
 45
297.0
 46
0.0
 47
0.0
 48
0.0
 49
0.0
140
0.0
141
0.0
142
1.0
143
1.0
 70
1024
 72
1
 73
0
 74
5
  7

 75
16
 76
0
 77
2
 78
300
147
1.0
148
0.0
149
0.0
100
AcDbLayout
  1
Model
 70
1
 71
0
 10
0.0
 20
0.0
 11
420.0
 21
297.0
 12
0.0
 22
0.0
 32
0.0
 14
1e+20
 24
1e+20
 34
1e+20
 15
-1e+20
 25
-1e+20
 35
-1e+20
146
0.0
 13
0.0
 23
0.0
 33
0.0
 16
1.0
 26
0.0
 36
0.0
 17
0.0
 27
1.0
 37
0.0
 76
1
330
17
  0
LAYOUT
  5
1E
330
D
100
AcDbPlotSettings
  1

  4
A3
  6

 40
7.5
 41
20.0
 42
7.5
 43
20.0
 44
420.0
 45
297.0
 46
0.0
 47
0.0
 48
0.0
 49
0.0
140
0.0
141
0.0
142
1.0
143
1.0
 70
0
 72
1
 73
0
 74
5
  7

 75
16
 76
0
 77
2
 78
300
147
1.0
148
0.0
149
0.0
100
AcDbLayout
  1
Layout1
 70
1
 71
1
 10
0.0
 20
0.0
 11
420.0
 21
297.0
 12
0.0
 22
0.0
 32
0.0
 14
1e+20
 24
1e+20
 34
1e+20
 15
-1e+20
 25
-1e+20
 35
-1e+20
146
0.0
 13
0.0
 23
0.0
 33
0.0
 16
1.0
 26
0.0
 36
0.0
 17
0.0
 27
1.0
 37
0.0
 76
1
330
1B
  0
MATERIAL
  5
1F
102
{ACAD_REACTORS
330
E
102
}
330
E
100
AcDbMaterial
  1
ByBlock
  2

 70
0
 40
1.0
 71
1
 41
1.0
 91
-1023410177
 42
1.0
 72
1
  3

 73
1
 74
1
 75
1
 44
0.5
 73
0
 45
1.0
 46
1.0
 77
1
  4

 78
1
 79
1
170
1
 48
1.0
171
1
  6

172
1
173
1
174
1
140
1.0
141
1.0
175
1
  7

176
1
177
1
178
1
143
1.0
179
1
  8

270
1
271
1
272
1
145
1.0
146
1.0
273
1
  9

274
1
275
1
276
1
 42
1.0
 72
1
  3

 73
1
 74
1
 75
1
 94
63
  0
MATERIAL
  5
20
102
{ACAD_REACTORS
330
E
102
}
330
E
100
AcDbMaterial
  1
ByLayer
  2

 70
0
 40
1.0
 71
1
 41
1.0
 91
-1023410177
 42
1.0
 72
1
  3

 73
1
 74
1
 75
1
 44
0.5
 73
0
 45
1.0
 46
1.0
 77
1
  4

 78
1
 79
1
170
1
 48
1.0
171
1
  6

172
1
173
1
174
1
140
1.0
141
1.0
175
1
  7

176
1
177
1
178
1
143
1.0
179
1
  8

270
1
271
1
272
1
145
1.0
146
1.0
273
1
  9

274
1
275
1
276
1
 42
1.0
 72
1
  3

 73
1
 74
1
 75
1
 94
63
  0
MATERIAL
  5
21
102
{ACAD_REACTORS
330
E
102
}
330
E
100
AcDbMaterial
  1
Global
  2

 70
0
 40
1.0
 71
1
 41
1.0
 91
-1023410177
 42
1.0
 72
1
  3

 73
1
 74
1
 75
1
 44
0.5
 73
0
 45
1.0
 46
1.0
 77
1
  4

 78
1
 79
1
170
1
 48
1.0
171
1
  6

172
1
173
1
174
1
140
1.0
141
1.0
175
1
  7

176
1
177
1
178
1
143
1.0
179
1
  8

270
1
271
1
272
1
145
1.0
146
1.0
273
1
  9

274
1
275
1
276
1
 42
1.0
 72
1
  3

 73
1
 74
1
 75
1
 94
63
  0
MLINESTYLE
  5
22
102
{ACAD_REACTORS
330
10
102
}
330
10
100
AcDbMlineStyle
  2
Standard
 70
0
  3

 62
256
 51
90.0
 52
90.0
 71
2
 49
0.5
 62
256
  6
BYLAYER
 49
-0.5
 62
256
  6
BYLAYER
  0
MLEADERSTYLE
  5
2C
102
{ACAD_REACTORS
330
F
102
}
330
F
100
AcDbMLeaderStyle
179
2
170
2
171
1
172
0
 90
2
 40
0.0
 41
0.0
173
1
 91
-1056964608
 92
-2
290
1
 42
2.0
291
1
 43
8.0
  3
Standard
 44
4.0
300

342
29
174
1
175
1
176
0
178
1
 93
-1056964608
 45
4.0
292
0
297
0
 46
4.0
 94
-1056964608
 47
1.0
 49
1.0
140
1.0
294
1
141
0.0
177
0
142
1.0
295
0
296
0
143
3.75
271
0
272
9
273
9
  0
DICTIONARY
  5
2D
330
A
100
AcDbDictionary
280
1
281
1
  3
CREATED_BY_EZDXF
350
2E
  3
WRITTEN_BY_EZDXF
350
2E2
  0
DICTIONARYVAR
  5
2E
330
2D
100
DictionaryVariables
280
0
  1
1.4.3 @ 2026-06-10T16:54:51.551576+00:00
  0
DICTIONARYVAR
  5
2E2
330
2D
100
DictionaryVariables
280
0
  1
1.4.3 @ 2026-06-10T16:54:51.570801+00:00
  0
ENDSEC
  0
EOF
