  0
SECTION
  2
HEADER
  9
$ACADVER
  1
AC1024
  9
$ACADMAINTVER
 70
6
  9
$DWGCODEPAGE
  3
ANSI_1252
  9
$LASTSAVEDBY
  1
ezdxf
  9
$INSBASE
 10
0.0
 20
0.0
 30
0.0
  9
$EXTMIN
 10
1e+20
 20
1e+20
 30
1e+20
  9
$EXTMAX
 10
-1e+20
 20
-1e+20
 30
-1e+20
  9
$LIMMIN
 10
0.0
 20
0.0
  9
$LIMMAX
 10
420.0
 20
297.0
  9
$ORTHOMODE
 70
0
  9
$REGENMODE
 70
1
  9
$FILLMODE
 70
1
  9
$QTEXTMODE
 70
0
  9
$MIRRTEXT
 70
1
  9
$LTSCALE
 40
1.0
  9
$ATTMODE
 70
1
  9
$TEXTSIZE
 40
2.5
  9
$TRACEWID
 40
1.0
  9
$TEXTSTYLE
  7
Standard
  9
$CLAYER
  8
0
  9
$CELTYPE
  6
ByLayer
  9
$CECOLOR
 62
256
  9
$CELTSCALE
 40
1.0
  9
$DISPSILH
 70
0
  9
$DIMSCALE
 40
1.0
  9
$DIMASZ
 40
2.5
  9
$DIMEXO
 40
0.625
  9
$DIMDLI
 40
3.75
  9
$DIMRND
 40
0.0
  9
$DIMDLE
 40
0.0
  9
$DIMEXE
 40
1.25
  9
$DIMTP
 40
0.0
  9
$DIMTM
 40
0.0
  9
$DIMTXT
 40
2.5
  9
$DIMCEN
 40
2.5
  9
$DIMTSZ
 40
0.0
  9
$DIMTOL
 70
0
  9
$DIMLIM
 70
0
  9
$DIMTIH
 70
0
  9
$DIMTOH
 70
0
  9
$DIMSE1
 70
0
  9
$DIMSE2
 70
0
  9
$DIMTAD
 70
1
  9
$DIMZIN
 70
8
  9
$DIMBLK
  1

  9
$DIMASO
 70
1
  9
$DIMSHO
 70
1
  9
$DIMPOST
  1

  9
$DIMAPOST
  1

  9
$DIMALT
 70
0
  9
$DIMALTD
 70
3
  9
$DIMALTF
 40
0.03937007874
  9
$DIMLFAC
 40
1.0
  9
$DIMTOFL
 70
1
  9
$DIMTVP
 40
0.0
  9
$DIMTIX
 70
0
  9
$DIMSOXD
 70
0
  9
$DIMSAH
 70
0
  9
$DIMBLK1
  1

  9
$DIMBLK2
  1

  9
$DIMSTYLE
  2
ISO-25
  9
$DIMCLRD
 70
0
  9
$DIMCLRE
 70
0
  9
$DIMCLRT
 70
0
  9
$DIMTFAC
 40
1.0
  9
$DIMGAP
 40
0.625
  9
$DIMJUST
 70
0
  9
$DIMSD1
 70
0
  9
$DIMSD2
 70
0
  9
$DIMTOLJ
 70
0
  9
$DIMTZIN
 70
8
  9
$DIMALTZ
 70
0
  9
$DIMALTTZ
 70
0
  9
$DIMUPT
 70
0
  9
$DIMDEC
 70
2
  9
$DIMTDEC
 70
2
  9
$DIMALTU
 70
2
  9
$DIMALTTD
 70
3
  9
$DIMTXSTY
  7
Standard
  9
$DIMAUNIT
 70
0
  9
$DIMADEC
 70
0
  9
$DIMALTRND
 40
0.0
  9
$DIMAZIN
 70
0
  9
$DIMDSEP
 70
44
  9
$DIMATFIT
 70
3
  9
$DIMFRAC
 70
0
  9
$DIMLDRBLK
  1

  9
$DIMLUNIT
 70
2
  9
$DIMLWD
 70
-2
  9
$DIMLWE
 70
-2
  9
$DIMTMOVE
 70
0
  9
$DIMFXL
 40
1.0
  9
$DIMFXLON
 70
0
  9
$DIMJOGANG
 40
0.785398163397
  9
$DIMTFILL
 70
0
  9
$DIMTFILLCLR
 70
0
  9
$DIMARCSYM
 70
0
  9
$DIMLTYPE
  6

  9
$DIMLTEX1
  6

  9
$DIMLTEX2
  6

  9
$DIMTXTDIRECTION
 70
0
  9
$LUNITS
 70
2
  9
$LUPREC
 70
4
  9
$SKETCHINC
 40
1.0
  9
$FILLETRAD
 40
10.0
  9
$AUNITS
 70
0
  9
$AUPREC
 70
2
  9
$MENU
  1
.
  9
$ELEVATION
 40
0.0
  9
$PELEVATION
 40
0.0
  9
$THICKNESS
 40
0.0
  9
$LIMCHECK
 70
0
  9
$CHAMFERA
 40
0.0
  9
$CHAMFERB
 40
0.0
  9
$CHAMFERC
 40
0.0
  9
$CHAMFERD
 40
0.0
  9
$SKPOLY
 70
0
  9
$TDCREATE
 40
2461202.009398148
  9
$TDUCREATE
 40
2458532.153996898
  9
$TDUPDATE
 40
2461202.009398148
  9
$TDUUPDATE
 40
2458532.1544311
  9
$TDINDWG
 40
0.0
  9
$TDUSRTIMER
 40
0.0
  9
$USRTIMER
 70
1
  9
$ANGBASE
 50
0.0
  9
$ANGDIR
 70
0
  9
$PDMODE
 70
0
  9
$PDSIZE
 40
0.0
  9
$PLINEWID
 40
0.0
  9
$SPLFRAME
 70
0
  9
$SPLINETYPE
 70
6
  9
$SPLINESEGS
 70
8
  9
$HANDSEED
  5
DB
  9
$SURFTAB1
 70
6
  9
$SURFTAB2
 70
6
  9
$SURFTYPE
 70
6
  9
$SURFU
 70
6
  9
$SURFV
 70
6
  9
$UCSBASE
  2

  9
$UCSNAME
  2

  9
$UCSORG
 10
0.0
 20
0.0
 30
0.0
  9
$UCSXDIR
 10
1.0
 20
0.0
 30
0.0
  9
$UCSYDIR
 10
0.0
 20
1.0
 30
0.0
  9
$UCSORTHOREF
  2

  9
$UCSORTHOVIEW
 70
0
  9
$UCSORGTOP
 10
0.0
 20
0.0
 30
0.0
  9
$UCSORGBOTTOM
 10
0.0
 20
0.0
 30
0.0
  9
$UCSORGLEFT
 10
0.0
 20
0.0
 30
0.0
  9
$UCSORGRIGHT
 10
0.0
 20
0.0
 30
0.0
  9
$UCSORGFRONT
 10
0.0
 20
0.0
 30
0.0
  9
$UCSORGBACK
 10
0.0
 20
0.0
 30
0.0
  9
$PUCSBASE
  2

  9
$PUCSNAME
  2

  9
$PUCSORG
 10
0.0
 20
0.0
 30
0.0
  9
$PUCSXDIR
 10
1.0
 20
0.0
 30
0.0
  9
$PUCSYDIR
 10
0.0
 20
1.0
 30
0.0
  9
$PUCSORTHOREF
  2

  9
$PUCSORTHOVIEW
 70
0
  9
$PUCSORGTOP
 10
0.0
 20
0.0
 30
0.0
  9
$PUCSORGBOTTOM
 10
0.0
 20
0.0
 30
0.0
  9
$PUCSORGLEFT
 10
0.0
 20
0.0
 30
0.0
  9
$PUCSORGRIGHT
 10
0.0
 20
0.0
 30
0.0
  9
$PUCSORGFRONT
 10
0.0
 20
0.0
 30
0.0
  9
$PUCSORGBACK
 10
0.0
 20
0.0
 30
0.0
  9
$USERI1
 70
0
  9
$USERI2
 70
0
  9
$USERI3
 70
0
  9
$USERI4
 70
0
  9
$USERI5
 70
0
  9
$USERR1
 40
0.0
  9
$USERR2
 40
0.0
  9
$USERR3
 40
0.0
  9
$USERR4
 40
0.0
  9
$USERR5
 40
0.0
  9
$WORLDVIEW
 70
1
  9
$SHADEDGE
 70
3
  9
$SHADEDIF
 70
70
  9
$TILEMODE
 70
1
  9
$MAXACTVP
 70
64
  9
$PINSBASE
 10
0.0
 20
0.0
 30
0.0
  9
$PLIMCHECK
 70
0
  9
$PEXTMIN
 10
1e+20
 20
1e+20
 30
1e+20
  9
$PEXTMAX
 10
-1e+20
 20
-1e+20
 30
-1e+20
  9
$PLIMMIN
 10
0.0
 20
0.0
  9
$PLIMMAX
 10
420.0
 20
297.0
  9
$UNITMODE
 70
0
  9
$VISRETAIN
 70
1
  9
$PLINEGEN
 70
0
  9
$PSLTSCALE
 70
1
  9
$TREEDEPTH
 70
3020
  9
$CMLSTYLE
  2
Standard
  9
$CMLJUST
 70
0
  9
$CMLSCALE
 40
20.0
  9
$PROXYGRAPHICS
 70
1
  9
$MEASUREMENT
 70
1
  9
$CELWEIGHT
370
-1
  9
$ENDCAPS
280
0
  9
$JOINSTYLE
280
0
  9
$LWDISPLAY
290
0
  9
$INSUNITS
 70
6
  9
$HYPERLINKBASE
  1

  9
$STYLESHEET
  1

  9
$XEDIT
290
1
  9
$CEPSNTYPE
380
0
  9
$PSTYLEMODE
290
1
  9
$FINGERPRINTGUID
  2
{57566F88-B60F-4A26-9781-CEF89C466196}
  9
$VERSIONGUID
  2
{500FD239-958C-47D2-BA26-6E5AA91C648B}
  9
$EXTNAMES
290
1
  9
$PSVPSCALE
 40
0.0
  9
$OLESTARTUP
290
0
  9
$SORTENTS
280
127
  9
$INDEXCTL
280
0
  9
$HIDETEXT
280
1
  9
$XCLIPFRAME
280
1
  9
$HALOGAP
280
0
  9
$OBSCOLOR
 70
257
  9
$OBSLTYPE
280
0
  9
$INTERSECTIONDISPLAY
280
0
  9
$INTERSECTIONCOLOR
 70
257
  9
$DIMASSOC
280
2
  9
$PROJECTNAME
  1

  9
$CAMERADISPLAY
290
0
  9
$LENSLENGTH
 40
50.0
  9
$CAMERAHEIGHT
 40
0.0
  9
$STEPSPERSEC
 40
24.0
  9
$STEPSIZE
 40
100.0
  9
$3DDWFPREC
 40
2.0
  9
$PSOLWIDTH
 40
0.005
  9
$PSOLHEIGHT
 40
0.08
  9
$LOFTANG1
 40
1.570796326795
  9
$LOFTANG2
 40
1.570796326795
  9
$LOFTMAG1
 40
0.0
  9
$LOFTMAG2
 40
0.0
  9
$LOFTPARAM
 70
7
  9
$LOFTNORMALS
280
1
  9
$LATITUDE
 40
37.795
  9
$LONGITUDE
 40
-122.394
  9
$NORTHDIRECTION
 40
0.0
  9
$TIMEZONE
 70
-8000
  9
$LIGHTGLYPHDISPLAY
280
1
  9
$TILEMODELIGHTSYNCH
280
1
  9
$CMATERIAL
347
20
  9
$SOLIDHIST
280
0
  9
$SHOWHIST
280
1
  9
$DWFFRAME
280
2
  9
$DGNFRAME
280
2
  9
$REALWORLDSCALE
290
1
  9
$INTERFERECOLOR
 62
256
  9
$CSHADOW
280
0
  9
$SHADOWPLANELOCATION
 40
0.0
  0
ENDSEC
  0
SECTION
  2
CLASSES
  0
CLASS
  1
ACDBDICTIONARYWDFLT
  2
AcDbDictionaryWithDefault
  3
ObjectDBX Classes
 90
0
 91
0
280
0
281
0
  0
CLASS
  1
SUN
  2
AcDbSun
  3
SCENEOE
 90
1153
 91
0
280
0
281
0
  0
CLASS
  1
VISUALSTYLE
  2
AcDbVisualStyle
  3
ObjectDBX Classes
 90
4095
 91
0
280
0
281
0
  0
CLASS
  1
MATERIAL
  2
AcDbMaterial
  3
ObjectDBX Classes
 90
1153
 91
0
280
0
281
0
  0
CLASS
  1
SCALE
  2
AcDbScale
  3
ObjectDBX Classes
 90
1153
 91
0
280
0
281
0
  0
CLASS
  1
TABLESTYLE
  2
AcDbTableStyle
  3
ObjectDBX Classes
 90
4095
 91
0
280
0
281
0
  0
CLASS
  1
MLEADERSTYLE
  2
AcDbMLeaderStyle
  3
ACDB_MLEADERSTYLE_CLASS
 90
4095
 91
0
280
0
281
0
  0
CLASS
  1
DICTIONARYVAR
  2
AcDbDictionaryVar
  3
ObjectDBX Classes
 90
0
 91
0
280
0
281
0
  0
CLASS
  1
CELLSTYLEMAP
  2
AcDbCellStyleMap
  3
ObjectDBX Classes
 90
1152
 91
0
280
0
281
0
  0
CLASS
  1
MENTALRAYRENDERSETTINGS
  2
AcDbMentalRayRenderSettings
  3
SCENEOE
 90
1024
 91
0
280
0
281
0
  0
CLASS
  1
ACDBDETAILVIEWSTYLE
  2
AcDbDetailViewStyle
  3
ObjectDBX Classes
 90
1025
 91
0
280
0
281
0
  0
CLASS
  1
ACDBSECTIONVIEWSTYLE
  2
AcDbSectionViewStyle
  3
ObjectDBX Classes
 90
1025
 91
0
280
0
281
0
  0
CLASS
  1
RASTERVARIABLES
  2
AcDbRasterVariables
  3
ISM
 90
0
 91
0
280
0
281
0
  0
CLASS
  1
ACDBPLACEHOLDER
  2
AcDbPlaceHolder
  3
ObjectDBX Classes
 90
0
 91
0
280
0
281
0
  0
CLASS
  1
LAYOUT
  2
AcDbLayout
  3
ObjectDBX Classes
 90
0
 91
0
280
0
281
0
  0
ENDSEC
  0
SECTION
  2
TABLES
  0
TABLE
  2
VPORT
  5
8
330
0
100
AcDbSymbolTable
 70
1
  0
VPORT
  5
23
330
8
100
AcDbSymbolTableRecord
100
AcDbViewportTableRecord
  2
*Active
 70
0
 10
0.0
 20
0.0
 11
1.0
 21
1.0
 12
0.0
 22
0.0
 13
0.0
 23
0.0
 14
0.5
 24
0.5
 15
0.5
 25
0.5
 16
0.0
 26
0.0
 36
1.0
 17
0.0
 27
0.0
 37
0.0
 40
1000.0
 41
1.34
 42
50.0
 43
0.0
 44
0.0
 50
0.0
 51
0.0
 71
0
 72
1000
 73
1
 74
3
 75
0
 76
0
 77
0
 78
0
281
0
 65
0
146
0.0
  0
ENDTAB
  0
TABLE
  2
LTYPE
  5
2
330
0
100
AcDbSymbolTable
 70
3
  0
LTYPE
  5
24
330
2
100
AcDbSymbolTableRecord
100
AcDbLinetypeTableRecord
  2
ByBlock
 70
0
  3

 72
65
 73
0
 40
0.0
  0
LTYPE
  5
25
330
2
100
AcDbSymbolTableRecord
100
AcDbLinetypeTableRecord
  2
ByLayer
 70
0
  3

 72
65
 73
0
 40
0.0
  0
LTYPE
  5
26
330
2
100
AcDbSymbolTableRecord
100
AcDbLinetypeTableRecord
  2
Continuous
 70
0
  3

 72
65
 73
0
 40
0.0
  0
ENDTAB
  0
TABLE
  2
LAYER
  5
1
330
0
100
AcDbSymbolTable
 70
7
  0
LAYER
  5
27
330
1
100
AcDbSymbolTableRecord
100
AcDbLayerTableRecord
  2
0
 70
0
 62
7
  6
Continuous
370
-3
390
13
347
21
  0
LAYER
  5
28
330
1
100
AcDbSymbolTableRecord
100
AcDbLayerTableRecord
  2
Defpoints
 70
0
 62
7
  6
Continuous
290
0
370
-3
390
13
347
21
  0
LAYER
  5
2F
330
1
100
AcDbSymbolTableRecord
100
AcDbLayerTableRecord
  2
1
 70
0
 62
7
  6
Continuous
370
-3
390
13
347
21
  0
LAYER
  5
30
330
1
100
AcDbSymbolTableRecord
100
AcDbLayerTableRecord
  2
9
 70
0
 62
7
  6
Continuous
370
-3
390
13
347
21
  0
LAYER
  5
31
330
1
100
AcDbSymbolTableRecord
100
AcDbLayerTableRecord
  2
3
 70
0
 62
7
  6
Continuous
370
-3
390
13
347
21
  0
LAYER
  5
32
330
1
100
AcDbSymbolTableRecord
100
AcDbLayerTableRecord
  2
Painéis
 70
0
 62
7
  6
Continuous
370
-3
390
13
347
21
  0
LAYER
  5
33
330
1
100
AcDbSymbolTableRecord
100
AcDbLayerTableRecord
  2
7
 70
0
 62
7
  6
Continuous
370
-3
390
13
347
21
  0
ENDTAB
  0
TABLE
  2
STYLE
  5
5
330
0
100
AcDbSymbolTable
 70
1
  0
STYLE
  5
29
330
5
100
AcDbSymbolTableRecord
100
AcDbTextStyleTableRecord
  2
Standard
 70
0
 40
0.0
 41
1.0
 50
0.0
 71
0
 42
2.5
  3
txt
  4

  0
ENDTAB
  0
TABLE
  2
VIEW
  5
7
330
0
100
AcDbSymbolTable
 70
0
  0
ENDTAB
  0
TABLE
  2
UCS
  5
6
330
0
100
AcDbSymbolTable
 70
0
  0
ENDTAB
  0
TABLE
  2
APPID
  5
3
330
0
100
AcDbSymbolTable
 70
3
  0
APPID
  5
2A
330
3
100
AcDbSymbolTableRecord
100
AcDbRegAppTableRecord
  2
ACAD
 70
0
  0
APPID
  5
D8
330
3
100
AcDbSymbolTableRecord
100
AcDbRegAppTableRecord
  2
HATCHBACKGROUNDCOLOR
 70
0
  0
APPID
  5
D9
330
3
100
AcDbSymbolTableRecord
100
AcDbRegAppTableRecord
  2
EZDXF
 70
0
  0
ENDTAB
  0
TABLE
  2
DIMSTYLE
  5
4
330
0
100
AcDbSymbolTable
 70
1
100
AcDbDimStyleTable
  0
DIMSTYLE
105
2B
330
4
100
AcDbSymbolTableRecord
100
AcDbDimStyleTableRecord
  2
Standard
 70
0
 40
1.0
 41
2.5
 42
0.625
 43
3.75
 44
1.25
 45
0.0
 46
0.0
 47
0.0
 48
0.0
 49
2.5
140
2.5
141
2.5
142
0.0
143
0.03937007874
144
1.0
145
0.0
146
1.0
147
0.625
148
0.0
 69
0
 70
0
 71
0
 72
0
 73
0
 74
0
 75
0
 76
0
 77
1
 78
8
 79
3
170
0
171
3
172
1
173
0
174
0
175
0
176
0
177
0
178
0
179
2
271
2
272
2
273
2
274
3
275
0
276
0
277
2
278
44
279
0
280
0
281
0
282
0
283
0
284
8
285
0
286
0
288
0
289
3
290
0
371
-2
372
-2
  0
ENDTAB
  0
TABLE
  2
BLOCK_RECORD
  5
9
330
0
100
AcDbSymbolTable
 70
2
  0
BLOCK_RECORD
  5
17
330
9
100
AcDbSymbolTableRecord
100
AcDbBlockTableRecord
  2
*Model_Space
340
1A
 70
0
280
1
281
0
  0
BLOCK_RECORD
  5
1B
330
9
100
AcDbSymbolTableRecord
100
AcDbBlockTableRecord
  2
*Paper_Space
340
1E
 70
0
280
1
281
0
  0
ENDTAB
  0
ENDSEC
  0
SECTION
  2
BLOCKS
  0
BLOCK
  5
18
330
17
100
AcDbEntity
  8
0
100
AcDbBlockBegin
  2
*Model_Space
 70
0
 10
0.0
 20
0.0
 30
0.0
  3
*Model_Space
  1

  0
ENDBLK
  5
19
330
17
100
AcDbEntity
  8
0
100
AcDbBlockEnd
  0
BLOCK
  5
1C
330
1B
100
AcDbEntity
  8
0
100
AcDbBlockBegin
  2
*Paper_Space
 70
0
 10
0.0
 20
0.0
 30
0.0
  3
*Paper_Space
  1

  0
ENDBLK
  5
1D
330
1B
100
AcDbEntity
  8
0
100
AcDbBlockEnd
  0
ENDSEC
  0
SECTION
  2
ENTITIES
  0
LINE
  5
34
330
17
100
AcDbEntity
  8
3
 62
7
370
25
100
AcDbLine
 10
6249.424831724581
 20
2331.817183813212
 30
0.0
 11
6258.422076724579
 21
2322.819938813212
 31
0.0
  0
LINE
  5
35
330
17
100
AcDbEntity
  8
3
 62
7
370
25
100
AcDbLine
 10
6251.442891724581
 20
2341.819938813212
 30
0.0
 11
6270.442891724581
 21
2322.819938813212
 31
0.0
  0
LINE
  5
36
330
17
100
AcDbEntity
  8
3
 62
7
370
25
100
AcDbLine
 10
6263.46370672458
 20
2341.819938813212
 30
0.0
 11
6282.46370672458
 21
2322.819938813212
 31
0.0
  0
LINE
  5
37
330
17
100
AcDbEntity
  8
3
 62
7
370
25
100
AcDbLine
 10
6275.48452172458
 20
2341.819938813212
 30
0.0
 11
6294.48452172458
 21
2322.819938813212
 31
0.0
  0
LINE
  5
38
330
17
100
AcDbEntity
  8
3
 62
7
370
25
100
AcDbLine
 10
6287.505337724581
 20
2341.819938813212
 30
0.0
 11
6306.50533772458
 21
2322.819938813212
 31
0.0
  0
LINE
  5
39
330
17
100
AcDbEntity
  8
3
 62
7
370
25
100
AcDbLine
 10
6299.52615272458
 20
2341.819938813212
 30
0.0
 11
6318.52615272458
 21
2322.819938813212
 31
0.0
  0
LINE
  5
3A
330
17
100
AcDbEntity
  8
3
 62
7
370
25
100
AcDbLine
 10
6311.546967724581
 20
2341.819938813212
 30
0.0
 11
6330.54696772458
 21
2322.819938813212
 31
0.0
  0
LINE
  5
3B
330
17
100
AcDbEntity
  8
3
 62
7
370
25
100
AcDbLine
 10
6323.56778272458
 20
2341.819938813212
 30
0.0
 11
6342.56778272458
 21
2322.819938813212
 31
0.0
  0
LINE
  5
3C
330
17
100
AcDbEntity
  8
3
 62
7
370
25
100
AcDbLine
 10
6335.58859872458
 20
2341.819938813212
 30
0.0
 11
6354.58859872458
 21
2322.819938813212
 31
0.0
  0
LINE
  5
3D
330
17
100
AcDbEntity
  8
3
 62
7
370
25
100
AcDbLine
 10
6347.60941372458
 20
2341.819938813212
 30
0.0
 11
6366.60941372458
 21
2322.819938813212
 31
0.0
  0
LINE
  5
3E
330
17
100
AcDbEntity
  8
3
 62
7
370
25
100
AcDbLine
 10
6359.630228724579
 20
2341.819938813212
 30
0.0
 11
6378.63022872458
 21
2322.819938813212
 31
0.0
  0
LINE
  5
3F
330
17
100
AcDbEntity
  8
3
 62
7
370
25
100
AcDbLine
 10
6371.65104472458
 20
2341.819938813212
 30
0.0
 11
6390.65104472458
 21
2322.819938813212
 31
0.0
  0
LINE
  5
40
330
17
100
AcDbEntity
  8
3
 62
7
370
25
100
AcDbLine
 10
6383.67185972458
 20
2341.819938813212
 30
0.0
 11
6402.671859724581
 21
2322.819938813212
 31
0.0
  0
LINE
  5
41
330
17
100
AcDbEntity
  8
3
 62
7
370
25
100
AcDbLine
 10
6395.42483172458
 20
2342.087781813212
 30
0.0
 11
6414.42483172458
 21
2323.087781813212
 31
0.0
  0
LINE
  5
42
330
17
100
AcDbEntity
  8
3
 62
7
370
25
100
AcDbLine
 10
6395.42483172458
 20
2354.108596813212
 30
0.0
 11
6414.42483172458
 21
2335.108596813212
 31
0.0
  0
LINE
  5
43
330
17
100
AcDbEntity
  8
3
 62
7
370
25
100
AcDbLine
 10
6395.42483172458
 20
2366.129412813212
 30
0.0
 11
6414.42483172458
 21
2347.129412813212
 31
0.0
  0
LINE
  5
44
330
17
100
AcDbEntity
  8
3
 62
7
370
25
100
AcDbLine
 10
6395.42483172458
 20
2378.150227813212
 30
0.0
 11
6414.42483172458
 21
2359.150227813212
 31
0.0
  0
LINE
  5
45
330
17
100
AcDbEntity
  8
3
 62
7
370
25
100
AcDbLine
 10
6395.42483172458
 20
2390.171042813212
 30
0.0
 11
6414.42483172458
 21
2371.171042813212
 31
0.0
  0
LINE
  5
46
330
17
100
AcDbEntity
  8
3
 62
7
370
25
100
AcDbLine
 10
6395.42483172458
 20
2402.191858813212
 30
0.0
 11
6414.42483172458
 21
2383.191858813212
 31
0.0
  0
LINE
  5
47
330
17
100
AcDbEntity
  8
3
 62
7
370
25
100
AcDbLine
 10
6395.42483172458
 20
2414.212673813212
 30
0.0
 11
6414.42483172458
 21
2395.212673813212
 31
0.0
  0
LINE
  5
48
330
17
100
AcDbEntity
  8
3
 62
7
370
25
100
AcDbLine
 10
6395.42483172458
 20
2426.233488813213
 30
0.0
 11
6414.42483172458
 21
2407.233488813213
 31
0.0
  0
LINE
  5
49
330
17
100
AcDbEntity
  8
3
 62
7
370
25
100
AcDbLine
 10
6395.42483172458
 20
2438.254303813213
 30
0.0
 11
6414.42483172458
 21
2419.254303813213
 31
0.0
  0
LINE
  5
4A
330
17
100
AcDbEntity
  8
3
 62
7
370
25
100
AcDbLine
 10
6395.42483172458
 20
2450.275119813213
 30
0.0
 11
6414.42483172458
 21
2431.275119813213
 31
0.0
  0
LINE
  5
4B
330
17
100
AcDbEntity
  8
3
 62
7
370
25
100
AcDbLine
 10
6395.42483172458
 20
2462.295934813213
 30
0.0
 11
6414.42483172458
 21
2443.295934813213
 31
0.0
  0
LINE
  5
4C
330
17
100
AcDbEntity
  8
3
 62
7
370
25
100
AcDbLine
 10
6395.42483172458
 20
2474.316749813212
 30
0.0
 11
6414.42483172458
 21
2455.316749813213
 31
0.0
  0
LINE
  5
4D
330
17
100
AcDbEntity
  8
3
 62
7
370
25
100
AcDbLine
 10
6395.42483172458
 20
2486.337565813213
 30
0.0
 11
6414.42483172458
 21
2467.337565813213
 31
0.0
  0
LINE
  5
4E
330
17
100
AcDbEntity
  8
3
 62
7
370
25
100
AcDbLine
 10
6395.42483172458
 20
2498.358380813213
 30
0.0
 11
6414.42483172458
 21
2479.358380813213
 31
0.0
  0
LINE
  5
4F
330
17
100
AcDbEntity
  8
3
 62
7
370
25
100
AcDbLine
 10
6395.42483172458
 20
2510.379195813213
 30
0.0
 11
6414.42483172458
 21
2491.379195813212
 31
0.0
  0
LINE
  5
50
330
17
100
AcDbEntity
  8
3
 62
7
370
25
100
AcDbLine
 10
6395.42483172458
 20
2522.400010813213
 30
0.0
 11
6414.42483172458
 21
2503.400010813213
 31
0.0
  0
LINE
  5
51
330
17
100
AcDbEntity
  8
3
 62
7
370
25
100
AcDbLine
 10
6395.42483172458
 20
2534.420826813212
 30
0.0
 11
6414.42483172458
 21
2515.420826813212
 31
0.0
  0
LINE
  5
52
330
17
100
AcDbEntity
  8
3
 62
7
370
25
100
AcDbLine
 10
6401.046534724581
 20
2540.819938813212
 30
0.0
 11
6414.42483172458
 21
2527.441641813212
 31
0.0
  0
LINE
  5
53
330
17
100
AcDbEntity
  8
1
 62
7
370
25
100
AcDbLine
 10
6263.424831724581
 20
2087.819938813212
 30
0.0
 11
6395.42483172458
 21
2322.819938813212
 31
0.0
  0
LINE
  5
54
330
17
100
AcDbEntity
  8
1
 62
7
370
25
100
AcDbLine
 10
6263.424831724581
 20
2322.819938813212
 30
0.0
 11
6395.42483172458
 21
2087.819938813212
 31
0.0
  0
LINE
  5
55
330
17
100
AcDbEntity
  8
3
 62
7
370
25
100
AcDbLine
 10
6414.42483172458
 20
2420.820033813212
 30
0.0
 11
6731.499850214565
 21
2420.820033813212
 31
0.0
  0
LINE
  5
56
330
17
100
AcDbEntity
  8
3
 62
7
370
25
100
AcDbLine
 10
6414.42483172458
 20
2401.820033813212
 30
0.0
 11
6725.058714548757
 21
2401.820033813212
 31
0.0
  0
LINE
  5
57
330
17
100
AcDbEntity
  8
3
 62
7
370
25
100
AcDbLine
 10
6447.97934783773
 20
2198.897940361595
 30
0.0
 11
6447.97934783773
 21
2173.897940361595
 31
0.0
  0
LINE
  5
58
330
17
100
AcDbEntity
  8
3
 62
7
370
25
100
AcDbLine
 10
6435.479347837731
 20
2186.397940361595
 30
0.0
 11
6460.47934783773
 21
2186.397940361595
 31
0.0
  0
LINE
  5
59
330
17
100
AcDbEntity
  8
3
 62
7
370
25
100
AcDbLine
 10
6447.97934783773
 20
2198.290592361596
 30
0.0
 11
6451.828472837731
 21
2198.290592361596
 31
0.0
  0
LINE
  5
5A
330
17
100
AcDbEntity
  8
3
 62
7
370
25
100
AcDbLine
 10
6447.97934783773
 20
2197.497743361596
 30
0.0
 11
6453.727809837731
 21
2197.497743361596
 31
0.0
  0
LINE
  5
5B
330
17
100
AcDbEntity
  8
3
 62
7
370
25
100
AcDbLine
 10
6447.97934783773
 20
2196.704894361596
 30
0.0
 11
6455.051605837731
 21
2196.704894361596
 31
0.0
  0
LINE
  5
5C
330
17
100
AcDbEntity
  8
3
 62
7
370
25
100
AcDbLine
 10
6447.97934783773
 20
2195.912033361596
 30
0.0
 11
6456.086866837729
 21
2195.912033361596
 31
0.0
  0
LINE
  5
5D
330
17
100
AcDbEntity
  8
3
 62
7
370
25
100
AcDbLine
 10
6447.97934783773
 20
2195.119244361595
 30
0.0
 11
6456.93420583773
 21
2195.119244361595
 31
0.0
  0
LINE
  5
5E
330
17
100
AcDbEntity
  8
3
 62
7
370
25
100
AcDbLine
 10
6447.97934783773
 20
2194.326395361596
 30
0.0
 11
6457.643215837731
 21
2194.326395361596
 31
0.0
  0
LINE
  5
5F
330
17
100
AcDbEntity
  8
3
 62
7
370
25
100
AcDbLine
 10
6447.97934783773
 20
2193.533534361596
 30
0.0
 11
6458.242551837732
 21
2193.533534361596
 31
0.0
  0
LINE
  5
60
330
17
100
AcDbEntity
  8
3
 62
7
370
25
100
AcDbLine
 10
6447.97934783773
 20
2192.740685361595
 30
0.0
 11
6458.750574837729
 21
2192.740685361595
 31
0.0
  0
LINE
  5
61
330
17
100
AcDbEntity
  8
3
 62
7
370
25
100
AcDbLine
 10
6447.97934783773
 20
2191.947835361595
 30
0.0
 11
6459.179727837732
 21
2191.947835361595
 31
0.0
  0
LINE
  5
62
330
17
100
AcDbEntity
  8
3
 62
7
370
25
100
AcDbLine
 10
6447.97934783773
 20
2191.154986361596
 30
0.0
 11
6459.538785837731
 21
2191.154986361596
 31
0.0
  0
LINE
  5
63
330
17
100
AcDbEntity
  8
3
 62
7
370
25
100
AcDbLine
 10
6447.97934783773
 20
2190.362137361596
 30
0.0
 11
6459.834091837731
 21
2190.362137361596
 31
0.0
  0
LINE
  5
64
330
17
100
AcDbEntity
  8
3
 62
7
370
25
100
AcDbLine
 10
6447.97934783773
 20
2189.569336361596
 30
0.0
 11
6460.070363837731
 21
2189.569336361596
 31
0.0
  0
LINE
  5
65
330
17
100
AcDbEntity
  8
3
 62
7
370
25
100
AcDbLine
 10
6447.97934783773
 20
2188.776487361595
 30
0.0
 11
6460.25094283773
 21
2188.776487361595
 31
0.0
  0
LINE
  5
66
330
17
100
AcDbEntity
  8
3
 62
7
370
25
100
AcDbLine
 10
6447.97934783773
 20
2187.983638361596
 30
0.0
 11
6460.378353837731
 21
2187.983638361596
 31
0.0
  0
LINE
  5
67
330
17
100
AcDbEntity
  8
3
 62
7
370
25
100
AcDbLine
 10
6447.97934783773
 20
2187.190789361595
 30
0.0
 11
6460.47934783773
 21
2187.190789361595
 31
0.0
  0
LINE
  5
68
330
17
100
AcDbEntity
  8
3
 62
7
370
25
100
AcDbLine
 10
6447.97929983773
 20
2174.505335361596
 30
0.0
 11
6444.130222837732
 21
2174.505335361596
 31
0.0
  0
LINE
  5
69
330
17
100
AcDbEntity
  8
3
 62
7
370
25
100
AcDbLine
 10
6447.97929983773
 20
2175.298184361595
 30
0.0
 11
6442.230836837731
 21
2175.298184361595
 31
0.0
  0
LINE
  5
6A
330
17
100
AcDbEntity
  8
3
 62
7
370
25
100
AcDbLine
 10
6447.97929983773
 20
2176.091033361596
 30
0.0
 11
6440.907041837731
 21
2176.091033361596
 31
0.0
  0
LINE
  5
6B
330
17
100
AcDbEntity
  8
3
 62
7
370
25
100
AcDbLine
 10
6447.97929983773
 20
2176.883834361595
 30
0.0
 11
6439.87178083773
 21
2176.883834361595
 31
0.0
  0
LINE
  5
6C
330
17
100
AcDbEntity
  8
3
 62
7
370
25
100
AcDbLine
 10
6447.97929983773
 20
2177.676743361596
 30
0.0
 11
6439.024440837731
 21
2177.676743361596
 31
0.0
  0
LINE
  5
6D
330
17
100
AcDbEntity
  8
3
 62
7
370
25
100
AcDbLine
 10
6447.97929983773
 20
2178.469544361596
 30
0.0
 11
6438.31547983773
 21
2178.469544361596
 31
0.0
  0
LINE
  5
6E
330
17
100
AcDbEntity
  8
3
 62
7
370
25
100
AcDbLine
 10
6447.97929983773
 20
2179.262393361595
 30
0.0
 11
6437.716094837731
 21
2179.262393361595
 31
0.0
  0
LINE
  5
6F
330
17
100
AcDbEntity
  8
3
 62
7
370
25
100
AcDbLine
 10
6447.97929983773
 20
2180.055243361595
 30
0.0
 11
6437.208072837731
 21
2180.055243361595
 31
0.0
  0
LINE
  5
70
330
17
100
AcDbEntity
  8
3
 62
7
370
25
100
AcDbLine
 10
6447.97929983773
 20
2180.848092361595
 30
0.0
 11
6436.778919837732
 21
2180.848092361595
 31
0.0
  0
LINE
  5
71
330
17
100
AcDbEntity
  8
3
 62
7
370
25
100
AcDbLine
 10
6447.97929983773
 20
2181.640893361596
 30
0.0
 11
6436.41986083773
 21
2181.640893361596
 31
0.0
  0
LINE
  5
72
330
17
100
AcDbEntity
  8
3
 62
7
370
25
100
AcDbLine
 10
6447.97929983773
 20
2182.433790361595
 30
0.0
 11
6436.12455583773
 21
2182.433790361595
 31
0.0
  0
LINE
  5
73
330
17
100
AcDbEntity
  8
3
 62
7
370
25
100
AcDbLine
 10
6447.97929983773
 20
2183.226591361596
 30
0.0
 11
6435.888282837732
 21
2183.226591361596
 31
0.0
  0
LINE
  5
74
330
17
100
AcDbEntity
  8
3
 62
7
370
25
100
AcDbLine
 10
6447.97929983773
 20
2184.019440361596
 30
0.0
 11
6435.707656837731
 21
2184.019440361596
 31
0.0
  0
LINE
  5
75
330
17
100
AcDbEntity
  8
3
 62
7
370
25
100
AcDbLine
 10
6447.97929983773
 20
2184.812289361595
 30
0.0
 11
6435.58029383773
 21
2184.812289361595
 31
0.0
  0
LINE
  5
76
330
17
100
AcDbEntity
  8
3
 62
7
370
25
100
AcDbLine
 10
6447.97929983773
 20
2185.605138361595
 30
0.0
 11
6435.47929983773
 21
2185.605138361595
 31
0.0
  0
LINE
  5
77
330
17
100
AcDbEntity
  8
3
 62
7
370
25
100
AcDbLine
 10
6460.47934783773
 20
2186.397940361595
 30
0.0
 11
6522.270221837731
 21
2186.397940361595
 31
0.0
  0
LINE
  5
78
330
17
100
AcDbEntity
  8
3
 62
7
370
25
100
AcDbLine
 10
6435.479347837731
 20
2186.397940361595
 30
0.0
 11
6427.018906837732
 21
2186.397940361595
 31
0.0
  0
LINE
  5
79
330
17
100
AcDbEntity
  8
3
 62
7
370
25
100
AcDbLine
 10
6447.97934783773
 20
2198.897940361595
 30
0.0
 11
6447.97934783773
 21
2206.608755361596
 31
0.0
  0
LINE
  5
7A
330
17
100
AcDbEntity
  8
3
 62
7
370
25
100
AcDbLine
 10
6447.97934783773
 20
2173.897940361595
 30
0.0
 11
6447.97934783773
 21
2165.043674361596
 31
0.0
  0
LINE
  5
7B
330
17
100
AcDbEntity
  8
3
 62
7
370
25
100
AcDbLine
 10
6112.062227506943
 20
2467.138078581156
 30
0.0
 11
6182.218212506946
 21
2467.138078581156
 31
0.0
  0
LINE
  5
7C
330
17
100
AcDbEntity
  8
3
 62
7
370
25
100
AcDbLine
 10
6102.687227506944
 20
2476.513078581156
 30
0.0
 11
6102.687227506944
 21
2457.763078581156
 31
0.0
  0
LINE
  5
7D
330
17
100
AcDbEntity
  8
3
 62
7
370
25
100
AcDbLine
 10
6093.312227506944
 20
2467.138078581156
 30
0.0
 11
6112.062227506943
 21
2467.138078581156
 31
0.0
  0
LINE
  5
7E
330
17
100
AcDbEntity
  8
3
 62
7
370
25
100
AcDbLine
 10
6102.687227506944
 20
2476.057568581156
 30
0.0
 11
6105.574071506944
 21
2476.057568581156
 31
0.0
  0
LINE
  5
7F
330
17
100
AcDbEntity
  8
3
 62
7
370
25
100
AcDbLine
 10
6102.687227506944
 20
2475.462931581156
 30
0.0
 11
6106.998574506945
 21
2475.462931581156
 31
0.0
  0
LINE
  5
80
330
17
100
AcDbEntity
  8
3
 62
7
370
25
100
AcDbLine
 10
6102.687227506944
 20
2474.868294581157
 30
0.0
 11
6107.991421506944
 21
2474.868294581157
 31
0.0
  0
LINE
  5
81
330
17
100
AcDbEntity
  8
3
 62
7
370
25
100
AcDbLine
 10
6102.687227506944
 20
2474.273648581156
 30
0.0
 11
6108.767867506944
 21
2474.273648581156
 31
0.0
  0
LINE
  5
82
330
17
100
AcDbEntity
  8
3
 62
7
370
25
100
AcDbLine
 10
6102.687227506944
 20
2473.679056581156
 30
0.0
 11
6109.403371506946
 21
2473.679056581156
 31
0.0
  0
LINE
  5
83
330
17
100
AcDbEntity
  8
3
 62
7
370
25
100
AcDbLine
 10
6102.687227506944
 20
2473.084419581156
 30
0.0
 11
6109.935128506946
 21
2473.084419581156
 31
0.0
  0
LINE
  5
84
330
17
100
AcDbEntity
  8
3
 62
7
370
25
100
AcDbLine
 10
6102.687227506944
 20
2472.489774581156
 30
0.0
 11
6110.384631506946
 21
2472.489774581156
 31
0.0
  0
LINE
  5
85
330
17
100
AcDbEntity
  8
3
 62
7
370
25
100
AcDbLine
 10
6102.687227506944
 20
2471.895137581156
 30
0.0
 11
6110.765648506945
 21
2471.895137581156
 31
0.0
  0
LINE
  5
86
330
17
100
AcDbEntity
  8
3
 62
7
370
25
100
AcDbLine
 10
6102.687227506944
 20
2471.300500581157
 30
0.0
 11
6111.087513506944
 21
2471.300500581157
 31
0.0
  0
LINE
  5
87
330
17
100
AcDbEntity
  8
3
 62
7
370
25
100
AcDbLine
 10
6102.687227506944
 20
2470.705863581156
 30
0.0
 11
6111.356806506945
 21
2470.705863581156
 31
0.0
  0
LINE
  5
88
330
17
100
AcDbEntity
  8
3
 62
7
370
25
100
AcDbLine
 10
6102.687227506944
 20
2470.111226581157
 30
0.0
 11
6111.578285506944
 21
2470.111226581157
 31
0.0
  0
LINE
  5
89
330
17
100
AcDbEntity
  8
3
 62
7
370
25
100
AcDbLine
 10
6102.687227506944
 20
2469.516625581156
 30
0.0
 11
6111.755490506944
 21
2469.516625581156
 31
0.0
  0
LINE
  5
8A
330
17
100
AcDbEntity
  8
3
 62
7
370
25
100
AcDbLine
 10
6102.687227506944
 20
2468.921989581156
 30
0.0
 11
6111.890924506944
 21
2468.921989581156
 31
0.0
  0
LINE
  5
8B
330
17
100
AcDbEntity
  8
3
 62
7
370
25
100
AcDbLine
 10
6102.687227506944
 20
2468.327352581156
 30
0.0
 11
6111.986482506946
 21
2468.327352581156
 31
0.0
  0
LINE
  5
8C
330
17
100
AcDbEntity
  8
3
 62
7
370
25
100
AcDbLine
 10
6102.687227506944
 20
2467.732715581155
 30
0.0
 11
6112.062227506943
 21
2467.732715581155
 31
0.0
  0
LINE
  5
8D
330
17
100
AcDbEntity
  8
3
 62
7
370
25
100
AcDbLine
 10
6102.687192506946
 20
2458.218625581156
 30
0.0
 11
6099.800384506945
 21
2458.218625581156
 31
0.0
  0
LINE
  5
8E
330
17
100
AcDbEntity
  8
3
 62
7
370
25
100
AcDbLine
 10
6102.687192506946
 20
2458.813261581156
 30
0.0
 11
6098.375845506944
 21
2458.813261581156
 31
0.0
  0
LINE
  5
8F
330
17
100
AcDbEntity
  8
3
 62
7
370
25
100
AcDbLine
 10
6102.687192506946
 20
2459.407898581157
 30
0.0
 11
6097.382998506946
 21
2459.407898581157
 31
0.0
  0
LINE
  5
90
330
17
100
AcDbEntity
  8
3
 62
7
370
25
100
AcDbLine
 10
6102.687192506946
 20
2460.002499581156
 30
0.0
 11
6096.606552506946
 21
2460.002499581156
 31
0.0
  0
LINE
  5
91
330
17
100
AcDbEntity
  8
3
 62
7
370
25
100
AcDbLine
 10
6102.687192506946
 20
2460.597181581157
 30
0.0
 11
6095.971047506944
 21
2460.597181581157
 31
0.0
  0
LINE
  5
92
330
17
100
AcDbEntity
  8
3
 62
7
370
25
100
AcDbLine
 10
6102.687192506946
 20
2461.191782581156
 30
0.0
 11
6095.439326506944
 21
2461.191782581156
 31
0.0
  0
LINE
  5
93
330
17
100
AcDbEntity
  8
3
 62
7
370
25
100
AcDbLine
 10
6102.687192506946
 20
2461.786418581156
 30
0.0
 11
6094.989788506944
 21
2461.786418581156
 31
0.0
  0
LINE
  5
94
330
17
100
AcDbEntity
  8
3
 62
7
370
25
100
AcDbLine
 10
6102.687192506946
 20
2462.381055581156
 30
0.0
 11
6094.608771506944
 21
2462.381055581156
 31
0.0
  0
LINE
  5
95
330
17
100
AcDbEntity
  8
3
 62
7
370
25
100
AcDbLine
 10
6102.687192506946
 20
2462.975692581155
 30
0.0
 11
6094.286906506947
 21
2462.975692581155
 31
0.0
  0
LINE
  5
96
330
17
100
AcDbEntity
  8
3
 62
7
370
25
100
AcDbLine
 10
6102.687192506946
 20
2463.570293581156
 30
0.0
 11
6094.017613506945
 21
2463.570293581156
 31
0.0
  0
LINE
  5
97
330
17
100
AcDbEntity
  8
3
 62
7
370
25
100
AcDbLine
 10
6102.687192506946
 20
2464.164966581156
 30
0.0
 11
6093.796134506945
 21
2464.164966581156
 31
0.0
  0
LINE
  5
98
330
17
100
AcDbEntity
  8
3
 62
7
370
25
100
AcDbLine
 10
6102.687192506946
 20
2464.759567581156
 30
0.0
 11
6093.618929506945
 21
2464.759567581156
 31
0.0
  0
LINE
  5
99
330
17
100
AcDbEntity
  8
3
 62
7
370
25
100
AcDbLine
 10
6102.687192506946
 20
2465.354204581157
 30
0.0
 11
6093.483460506945
 21
2465.354204581157
 31
0.0
  0
LINE
  5
9A
330
17
100
AcDbEntity
  8
3
 62
7
370
25
100
AcDbLine
 10
6102.687192506946
 20
2465.948840581156
 30
0.0
 11
6093.387937506944
 21
2465.948840581156
 31
0.0
  0
LINE
  5
9B
330
17
100
AcDbEntity
  8
3
 62
7
370
25
100
AcDbLine
 10
6102.687192506946
 20
2466.543477581156
 30
0.0
 11
6093.312192506946
 21
2466.543477581156
 31
0.0
  0
LINE
  5
9C
330
17
100
AcDbEntity
  8
3
 62
7
370
25
100
AcDbLine
 10
6093.312227506944
 20
2467.138078581156
 30
0.0
 11
6086.966897506945
 21
2467.138078581156
 31
0.0
  0
LINE
  5
9D
330
17
100
AcDbEntity
  8
3
 62
7
370
25
100
AcDbLine
 10
6102.687227506944
 20
2476.513078581156
 30
0.0
 11
6102.687227506944
 21
2482.296190581156
 31
0.0
  0
LINE
  5
9E
330
17
100
AcDbEntity
  8
3
 62
7
370
25
100
AcDbLine
 10
6102.687227506944
 20
2457.763078581156
 30
0.0
 11
6102.687227506944
 21
2451.122379581156
 31
0.0
  0
LINE
  5
9F
330
17
100
AcDbEntity
  8
1
 62
7
370
25
100
AcDbLine
 10
6173.42483172458
 20
2027.819938813212
 30
0.0
 11
6173.42483172458
 21
2087.819938813212
 31
0.0
  0
LINE
  5
A0
330
17
100
AcDbEntity
  8
1
 62
7
370
25
100
AcDbLine
 10
6249.424831724581
 20
2027.819938813212
 30
0.0
 11
6249.424831724581
 21
2087.819938813212
 31
0.0
  0
LINE
  5
A1
330
17
100
AcDbEntity
  8
1
 62
7
370
25
100
AcDbLine
 10
6519.42498172458
 20
2027.819938813212
 30
0.0
 11
6519.42498172458
 21
2087.819938813212
 31
0.0
  0
LINE
  5
A2
330
17
100
AcDbEntity
  8
1
 62
7
370
25
100
AcDbLine
 10
6249.424831724581
 20
2087.819938813212
 30
0.0
 11
6519.42498172458
 21
2087.819938813212
 31
0.0
  0
LINE
  5
A3
330
17
100
AcDbEntity
  8
3
 62
7
370
25
100
AcDbLine
 10
6263.424831724581
 20
2087.819938813212
 30
0.0
 11
6263.424831724581
 21
2071.818072813212
 31
0.0
  0
LINE
  5
A4
330
17
100
AcDbEntity
  8
3
 62
7
370
25
100
AcDbLine
 10
6395.42483172458
 20
2087.819938813212
 30
0.0
 11
6395.42483172458
 21
2062.819938813212
 31
0.0
  0
LINE
  5
A5
330
17
100
AcDbEntity
  8
3
 62
7
370
25
100
AcDbLine
 10
6414.42483172458
 20
2087.819938813212
 30
0.0
 11
6414.42483172458
 21
2062.819938813212
 31
0.0
  0
LINE
  5
A6
330
17
100
AcDbEntity
  8
1
 62
7
370
25
100
AcDbLine
 10
6678.14258372458
 20
2071.819938813212
 30
0.0
 11
6678.14258372458
 21
2373.820088813212
 31
0.0
  0
LINE
  5
A7
330
17
100
AcDbEntity
  8
1
 62
7
370
25
100
AcDbLine
 10
6678.14258372458
 20
2373.820088813212
 30
0.0
 11
6774.639880724581
 21
2458.820088813212
 31
0.0
  0
LINE
  5
A8
330
17
100
AcDbEntity
  8
1
 62
7
370
25
100
AcDbLine
 10
6800.63988072458
 20
2447.073899813212
 30
0.0
 11
6704.142583724581
 21
2362.073899813212
 31
0.0
  0
LINE
  5
A9
330
17
100
AcDbEntity
  8
1
 62
7
370
25
100
AcDbLine
 10
6704.142583724581
 20
2362.073899813212
 30
0.0
 11
6704.142583724581
 21
2043.819938813212
 31
0.0
  0
LINE
  5
AA
330
17
100
AcDbEntity
  8
1
 62
7
370
25
100
AcDbLine
 10
6774.639880724581
 20
2458.820088813212
 30
0.0
 11
6774.639880724581
 21
2652.809711813213
 31
0.0
  0
LINE
  5
AB
330
17
100
AcDbEntity
  8
9
 62
7
370
25
100
AcDbLine
 10
6043.924831724581
 20
2185.819938813212
 30
0.0
 11
6043.924831724581
 21
2322.819938813212
 31
0.0
  0
LINE
  5
AC
330
17
100
AcDbEntity
  8
9
 62
7
370
25
100
AcDbLine
 10
6043.924831724581
 20
2185.819938813212
 30
0.0
 11
6043.924831724581
 21
2071.819938813212
 31
0.0
  0
LINE
  5
AD
330
17
100
AcDbEntity
  8
9
 62
7
370
25
100
AcDbLine
 10
6067.07500972458
 20
2254.906191813212
 30
0.0
 11
6067.07500972458
 21
2329.955419813213
 31
0.0
  0
LINE
  5
AE
330
17
100
AcDbEntity
  8
9
 62
7
370
25
100
AcDbLine
 10
6067.07500972458
 20
2185.819938813212
 30
0.0
 11
6067.07500972458
 21
2246.881129813212
 31
0.0
  0
LINE
  5
AF
330
17
100
AcDbEntity
  8
9
 62
7
370
25
100
AcDbLine
 10
6067.07500972458
 20
2201.819938813212
 30
0.0
 11
6249.424831724581
 21
2322.819938813212
 31
0.0
  0
LINE
  5
B0
330
17
100
AcDbEntity
  8
9
 62
7
370
25
100
AcDbLine
 10
6067.07500972458
 20
2322.819938813212
 30
0.0
 11
6249.424831724581
 21
2156.391259813212
 31
0.0
  0
LINE
  5
B1
330
17
100
AcDbEntity
  8
9
 62
7
370
25
100
AcDbLine
 10
6071.924831724579
 20
2201.819938813212
 30
0.0
 11
6071.924831724579
 21
2071.819938813212
 31
0.0
  0
LINE
  5
B2
330
17
100
AcDbEntity
  8
9
 62
7
370
25
100
AcDbLine
 10
6127.92483172458
 20
2201.819938813212
 30
0.0
 11
5817.42483172458
 21
2201.819938813212
 31
0.0
  0
LINE
  5
B3
330
17
100
AcDbEntity
  8
9
 62
7
370
25
100
AcDbLine
 10
6099.92483172458
 20
2201.819938813212
 30
0.0
 11
6099.92483172458
 21
2071.819938813212
 31
0.0
  0
LINE
  5
B4
330
17
100
AcDbEntity
  8
9
 62
7
370
25
100
AcDbLine
 10
6127.92483172458
 20
2201.819938813212
 30
0.0
 11
6127.92483172458
 21
2071.819938813212
 31
0.0
  0
LINE
  5
B5
330
17
100
AcDbEntity
  8
9
 62
7
370
25
100
AcDbLine
 10
6127.92483172458
 20
2201.819938813212
 30
0.0
 11
6187.111536724581
 21
2179.690112813212
 31
0.0
  0
LINE
  5
B6
330
17
100
AcDbEntity
  8
9
 62
7
370
25
100
AcDbLine
 10
6196.17977072458
 20
2176.299458813212
 30
0.0
 11
6263.424831724581
 21
2151.156678813212
 31
0.0
  0
LINE
  5
B7
330
17
100
AcDbEntity
  8
Painéis
 62
7
370
25
100
AcDbLine
 10
6074.424831724581
 20
2521.819938813212
 30
0.0
 11
6074.424831724581
 21
2341.819938813213
 31
0.0
  0
LINE
  5
B8
330
17
100
AcDbEntity
  8
Painéis
 62
7
370
25
100
AcDbLine
 10
6196.424831724581
 20
2399.819938813212
 30
0.0
 11
6016.42483172458
 21
2399.819938813212
 31
0.0
  0
LINE
  5
B9
330
17
100
AcDbEntity
  8
Painéis
 62
7
370
25
100
AcDbLine
 10
6273.42483172458
 20
2521.819938813212
 30
0.0
 11
6273.42483172458
 21
2341.819938813213
 31
0.0
  0
LINE
  5
BA
330
17
100
AcDbEntity
  8
Painéis
 62
7
370
25
100
AcDbLine
 10
6395.42483172458
 20
2399.819938813212
 30
0.0
 11
6215.42483172458
 21
2399.819938813212
 31
0.0
  0
LINE
  5
BB
330
17
100
AcDbEntity
  8
Painéis
 62
7
370
25
100
AcDbLine
 10
6536.42483172458
 20
2071.819938813212
 30
0.0
 11
6536.42483172458
 21
2401.820033813212
 31
0.0
  0
LINE
  5
BC
330
17
100
AcDbEntity
  8
Painéis
 62
7
370
25
100
AcDbLine
 10
6414.42483172458
 20
2304.919555382097
 30
0.0
 11
6688.142583724581
 21
2306.141345233088
 31
0.0
  0
LINE
  5
BD
330
17
100
AcDbEntity
  8
Painéis
 62
7
370
25
100
AcDbLine
 10
6566.124831724581
 20
2071.819938813212
 30
0.0
 11
6566.124831724581
 21
2401.820033813212
 31
0.0
  0
LINE
  5
BE
330
17
100
AcDbEntity
  8
Painéis
 62
7
370
25
100
AcDbLine
 10
6519.42498172458
 20
2061.819938813211
 30
0.0
 11
6688.14258372458
 21
2061.819938813211
 31
0.0
  0
LINE
  5
BF
330
17
100
AcDbEntity
  8
Painéis
 62
7
370
25
100
AcDbLine
 10
6688.14258372458
 20
2061.819938813211
 30
0.0
 11
6688.142583724581
 21
2369.302323808805
 31
0.0
  0
LINE
  5
C0
330
17
100
AcDbEntity
  8
Painéis
 62
7
370
25
100
AcDbLine
 10
6688.142583724581
 20
2369.302323808805
 30
0.0
 11
6725.058714548758
 21
2401.820033813212
 31
0.0
  0
LWPOLYLINE
  5
C1
330
17
100
AcDbEntity
  8
3
 62
7
370
25
100
AcDbPolyline
 90
2
 70
0
 10
6063.424831724581
 20
2043.819938813212
 10
6256.42483172458
 20
2043.819938813212
  0
LWPOLYLINE
  5
C2
330
17
100
AcDbEntity
  8
3
 62
7
370
25
100
AcDbPolyline
 90
2
 70
0
 10
6256.42483172458
 20
2043.819938813212
 10
6354.42483172458
 20
2043.819938813212
  0
LWPOLYLINE
  5
C3
330
17
100
AcDbEntity
  8
3
 62
7
370
25
100
AcDbPolyline
 90
2
 70
0
 10
5817.42483172458
 20
2521.819938813212
 10
6395.42483172458
 20
2521.819938813212
  0
LWPOLYLINE
  5
C4
330
17
100
AcDbEntity
  8
3
 62
7
370
25
100
AcDbPolyline
 90
2
 70
0
 10
6196.424831724581
 20
2521.819938813212
 10
6196.424831724581
 20
2341.819938813212
  0
LWPOLYLINE
  5
C5
330
17
100
AcDbEntity
  8
3
 62
7
370
25
100
AcDbPolyline
 90
2
 70
0
 10
6215.42483172458
 20
2341.819938813212
 10
6215.42483172458
 20
2521.819938813212
  0
LWPOLYLINE
  5
C6
330
17
100
AcDbEntity
  8
3
 62
7
370
25
100
AcDbPolyline
 90
2
 70
0
 10
6395.42483172458
 20
2322.819938813212
 10
6395.42483172458
 20
2087.819938813212
  0
LWPOLYLINE
  5
C7
330
17
100
AcDbEntity
  8
3
 62
7
370
25
100
AcDbPolyline
 90
2
 70
0
 10
6414.42483172458
 20
2087.819938813212
 10
6414.42483172458
 20
2322.819938813212
  0
LWPOLYLINE
  5
C8
330
17
100
AcDbEntity
  8
3
 62
7
370
25
100
AcDbPolyline
 90
2
 70
0
 10
6249.424831724581
 20
2322.819938813212
 10
6249.424831724581
 20
2071.819938813212
  0
LWPOLYLINE
  5
C9
330
17
100
AcDbEntity
  8
3
 62
7
370
25
100
AcDbPolyline
 90
2
 70
0
 10
6263.424831724581
 20
2087.819938813212
 10
6263.424831724581
 20
2322.819938813212
  0
LWPOLYLINE
  5
CA
330
17
100
AcDbEntity
  8
3
 62
7
370
25
100
AcDbPolyline
 90
2
 70
0
 10
6249.424831724581
 20
2341.819938813212
 10
5963.42483172458
 20
2341.819938813212
  0
LWPOLYLINE
  5
CB
330
17
100
AcDbEntity
  8
3
 62
7
370
25
100
AcDbPolyline
 90
2
 70
0
 10
6006.92483172458
 20
2322.819938813212
 10
6205.92483172458
 20
2322.819938813212
  0
LWPOLYLINE
  5
CC
330
17
100
AcDbEntity
  8
3
 62
7
370
25
100
AcDbPolyline
 90
2
 70
0
 10
6205.92483172458
 20
2322.819938813212
 10
6249.424831724581
 20
2322.819938813212
  0
LWPOLYLINE
  5
CD
330
17
100
AcDbEntity
  8
1
 62
7
370
25
100
AcDbPolyline
 90
2
 70
0
 10
6414.42483172458
 20
2043.819938813212
 10
6800.63988072458
 20
2043.819938813212
  0
LWPOLYLINE
  5
CE
330
17
100
AcDbEntity
  8
7
 62
7
370
25
100
AcDbPolyline
 90
5
 70
0
 10
6003.42483172458
 20
2043.819938813212
 10
6063.424831724581
 20
2043.819938813212
 10
6063.424831724581
 20
2062.819938813212
 10
6003.42483172458
 20
2062.819938813212
 10
6003.42483172458
 20
2043.819938813212
  0
LWPOLYLINE
  5
CF
330
17
100
AcDbEntity
  8
7
 62
7
370
25
100
AcDbPolyline
 90
5
 70
0
 10
6354.42483172458
 20
2043.819938813212
 10
6414.42483172458
 20
2043.819938813212
 10
6414.42483172458
 20
2062.819938813212
 10
6354.42483172458
 20
2062.819938813212
 10
6354.42483172458
 20
2043.819938813212
  0
LWPOLYLINE
  5
D0
330
17
100
AcDbEntity
  8
7
 62
7
370
25
100
AcDbPolyline
 90
7
 70
0
 10
6414.42483172458
 20
2322.819938813212
 10
6414.42483172458
 20
2540.819938813212
 10
6395.42483172458
 20
2540.819938813212
 10
6395.42483172458
 20
2341.819938813212
 10
6249.424831724581
 20
2341.819938813212
 10
6249.424831724581
 20
2322.819938813212
 10
6414.42483172458
 20
2322.819938813212
  0
LWPOLYLINE
  5
D1
330
17
100
AcDbEntity
  8
1
 62
7
370
25
100
AcDbPolyline
 90
2
 70
0
 10
6800.63988072458
 20
2652.809711813213
 10
6800.63988072458
 20
2043.819938813212
  0
LWPOLYLINE
  5
D2
330
17
100
AcDbEntity
  8
1
 62
7
370
25
100
AcDbPolyline
 90
3
 70
0
 10
5893.424681724581
 20
2087.819938813212
 10
6173.42483172458
 20
2087.819938813212
 10
5893.424681724581
 20
2087.819938813212
  0
LWPOLYLINE
  5
D3
330
17
100
AcDbEntity
  8
1
 62
7
370
25
100
AcDbPolyline
 90
3
 70
0
 10
5893.424681724581
 20
2027.819938813212
 10
6173.42483172458
 20
2027.819938813212
 10
5893.424681724581
 20
2027.819938813212
  0
LWPOLYLINE
  5
D4
330
17
100
AcDbEntity
  8
1
 62
7
370
25
100
AcDbPolyline
 90
3
 70
0
 10
6249.424831724581
 20
2027.819938813212
 10
6519.42498172458
 20
2027.819938813212
 10
6249.424831724581
 20
2027.819938813212
  0
LWPOLYLINE
  5
D5
330
17
100
AcDbEntity
  8
1
 62
7
370
25
100
AcDbPolyline
 90
3
 70
0
 10
5257.924831724579
 20
2071.819938813212
 10
6678.14258372458
 20
2071.819938813212
 10
6678.14258372458
 20
2373.820088813212
  0
LWPOLYLINE
  5
D6
330
17
100
AcDbEntity
  8
9
 62
7
370
25
100
AcDbPolyline
 90
6
 70
0
 10
6067.07500972458
 20
2238.856044813212
 10
6067.07500972458
 20
2246.881129813212
 10
6055.037405724579
 20
2250.893649813213
 10
6079.112612724581
 20
2250.893649813213
 10
6067.07500972458
 20
2254.906191813212
 10
6067.07500972458
 20
2262.931253813212
  0
LWPOLYLINE
  5
D7
330
17
100
AcDbEntity
  8
9
 62
7
370
25
100
AcDbPolyline
 90
6
 70
0
 10
6178.04320272458
 20
2183.080750813212
 10
6187.111515724581
 20
2179.690120813212
 10
6196.73158172458
 20
2191.597259813212
 10
6186.55971272458
 20
2164.392371813213
 10
6196.179803724579
 20
2176.299500813212
 10
6205.248091724581
 20
2172.908880813212
  0
ENDSEC
  0
SECTION
  2
OBJECTS
  0
DICTIONARY
  5
A
330
0
100
AcDbDictionary
281
1
  3
ACAD_COLOR
350
B
  3
ACAD_GROUP
350
C
  3
ACAD_LAYOUT
350
D
  3
ACAD_MATERIAL
350
E
  3
ACAD_MLEADERSTYLE
350
F
  3
ACAD_MLINESTYLE
350
10
  3
ACAD_PLOTSETTINGS
350
11
  3
ACAD_PLOTSTYLENAME
350
12
  3
ACAD_SCALELIST
350
14
  3
ACAD_TABLESTYLE
350
15
  3
ACAD_VISUALSTYLE
350
16
  3
EZDXF_META
350
2D
  0
DICTIONARY
  5
B
330
A
100
AcDbDictionary
281
1
  0
DICTIONARY
  5
C
330
A
100
AcDbDictionary
281
1
  0
DICTIONARY
  5
D
330
A
100
AcDbDictionary
281
1
  3
Model
350
1A
  3
Layout1
350
1E
  0
DICTIONARY
  5
E
330
A
100
AcDbDictionary
281
1
  3
ByBlock
350
1F
  3
ByLayer
350
20
  3
Global
350
21
  0
DICTIONARY
  5
F
330
A
100
AcDbDictionary
281
1
  3
Standard
350
2C
  0
DICTIONARY
  5
10
330
A
100
AcDbDictionary
281
1
  3
Standard
350
22
  0
DICTIONARY
  5
11
330
A
100
AcDbDictionary
281
1
  0
ACDBDICTIONARYWDFLT
  5
12
330
A
100
AcDbDictionary
281
1
  3
Normal
350
13
100
AcDbDictionaryWithDefault
340
13
  0
ACDBPLACEHOLDER
  5
13
330
12
  0
DICTIONARY
  5
14
330
A
100
AcDbDictionary
281
1
  0
DICTIONARY
  5
15
330
A
100
AcDbDictionary
281
1
  0
DICTIONARY
  5
16
330
A
100
AcDbDictionary
281
1
  0
LAYOUT
  5
1A
330
D
100
AcDbPlotSettings
  1

  4
A3
  6

 40
7.5
 41
20.0
 42
7.5
 43
20.0
 44
420.0
 45
297.0
 46
0.0
 47
0.0
 48
0.0
 49
0.0
140
0.0
141
0.0
142
1.0
143
1.0
 70
1024
 72
1
 73
0
 74
5
  7

 75
16
 76
0
 77
2
 78
300
147
1.0
148
0.0
149
0.0
100
AcDbLayout
  1
Model
 70
1
 71
0
 10
0.0
 20
0.0
 11
420.0
 21
297.0
 12
0.0
 22
0.0
 32
0.0
 14
1e+20
 24
1e+20
 34
1e+20
 15
-1e+20
 25
-1e+20
 35
-1e+20
146
0.0
 13
0.0
 23
0.0
 33
0.0
 16
1.0
 26
0.0
 36
0.0
 17
0.0
 27
1.0
 37
0.0
 76
1
330
17
  0
LAYOUT
  5
1E
330
D
100
AcDbPlotSettings
  1

  4
A3
  6

 40
7.5
 41
20.0
 42
7.5
 43
20.0
 44
420.0
 45
297.0
 46
0.0
 47
0.0
 48
0.0
 49
0.0
140
0.0
141
0.0
142
1.0
143
1.0
 70
0
 72
1
 73
0
 74
5
  7

 75
16
 76
0
 77
2
 78
300
147
1.0
148
0.0
149
0.0
100
AcDbLayout
  1
Layout1
 70
1
 71
1
 10
0.0
 20
0.0
 11
420.0
 21
297.0
 12
0.0
 22
0.0
 32
0.0
 14
1e+20
 24
1e+20
 34
1e+20
 15
-1e+20
 25
-1e+20
 35
-1e+20
146
0.0
 13
0.0
 23
0.0
 33
0.0
 16
1.0
 26
0.0
 36
0.0
 17
0.0
 27
1.0
 37
0.0
 76
1
330
1B
  0
MATERIAL
  5
1F
102
{ACAD_REACTORS
330
E
102
}
330
E
100
AcDbMaterial
  1
ByBlock
  2

 70
0
 40
1.0
 71
1
 41
1.0
 91
-1023410177
 42
1.0
 72
1
  3

 73
1
 74
1
 75
1
 44
0.5
 73
0
 45
1.0
 46
1.0
 77
1
  4

 78
1
 79
1
170
1
 48
1.0
171
1
  6

172
1
173
1
174
1
140
1.0
141
1.0
175
1
  7

176
1
177
1
178
1
143
1.0
179
1
  8

270
1
271
1
272
1
145
1.0
146
1.0
273
1
  9

274
1
275
1
276
1
 42
1.0
 72
1
  3

 73
1
 74
1
 75
1
 94
63
  0
MATERIAL
  5
20
102
{ACAD_REACTORS
330
E
102
}
330
E
100
AcDbMaterial
  1
ByLayer
  2

 70
0
 40
1.0
 71
1
 41
1.0
 91
-1023410177
 42
1.0
 72
1
  3

 73
1
 74
1
 75
1
 44
0.5
 73
0
 45
1.0
 46
1.0
 77
1
  4

 78
1
 79
1
170
1
 48
1.0
171
1
  6

172
1
173
1
174
1
140
1.0
141
1.0
175
1
  7

176
1
177
1
178
1
143
1.0
179
1
  8

270
1
271
1
272
1
145
1.0
146
1.0
273
1
  9

274
1
275
1
276
1
 42
1.0
 72
1
  3

 73
1
 74
1
 75
1
 94
63
  0
MATERIAL
  5
21
102
{ACAD_REACTORS
330
E
102
}
330
E
100
AcDbMaterial
  1
Global
  2

 70
0
 40
1.0
 71
1
 41
1.0
 91
-1023410177
 42
1.0
 72
1
  3

 73
1
 74
1
 75
1
 44
0.5
 73
0
 45
1.0
 46
1.0
 77
1
  4

 78
1
 79
1
170
1
 48
1.0
171
1
  6

172
1
173
1
174
1
140
1.0
141
1.0
175
1
  7

176
1
177
1
178
1
143
1.0
179
1
  8

270
1
271
1
272
1
145
1.0
146
1.0
273
1
  9

274
1
275
1
276
1
 42
1.0
 72
1
  3

 73
1
 74
1
 75
1
 94
63
  0
MLINESTYLE
  5
22
102
{ACAD_REACTORS
330
10
102
}
330
10
100
AcDbMlineStyle
  2
Standard
 70
0
  3

 62
256
 51
90.0
 52
90.0
 71
2
 49
0.5
 62
256
  6
BYLAYER
 49
-0.5
 62
256
  6
BYLAYER
  0
MLEADERSTYLE
  5
2C
102
{ACAD_REACTORS
330
F
102
}
330
F
100
AcDbMLeaderStyle
179
2
170
2
171
1
172
0
 90
2
 40
0.0
 41
0.0
173
1
 91
-1056964608
 92
-2
290
1
 42
2.0
291
1
 43
8.0
  3
Standard
 44
4.0
300

342
29
174
1
175
1
176
0
178
1
 93
-1056964608
 45
4.0
292
0
297
0
 46
4.0
 94
-1056964608
 47
1.0
 49
1.0
140
1.0
294
1
141
0.0
177
0
142
1.0
295
0
296
0
143
3.75
271
0
272
9
273
9
  0
DICTIONARY
  5
2D
330
A
100
AcDbDictionary
280
1
281
1
  3
CREATED_BY_EZDXF
350
2E
  3
WRITTEN_BY_EZDXF
350
DA
  0
DICTIONARYVAR
  5
2E
330
2D
100
DictionaryVariables
280
0
  1
1.4.3 @ 2026-06-10T03:13:32.586924+00:00
  0
DICTIONARYVAR
  5
DA
330
2D
100
DictionaryVariables
280
0
  1
1.4.3 @ 2026-06-10T03:13:32.592609+00:00
  0
ENDSEC
  0
EOF
