  0
SECTION
  2
HEADER
  9
$ACADVER
  1
AC1024
  9
$ACADMAINTVER
 70
6
  9
$DWGCODEPAGE
  3
ANSI_1252
  9
$LASTSAVEDBY
  1
ezdxf
  9
$INSBASE
 10
0.0
 20
0.0
 30
0.0
  9
$EXTMIN
 10
1e+20
 20
1e+20
 30
1e+20
  9
$EXTMAX
 10
-1e+20
 20
-1e+20
 30
-1e+20
  9
$LIMMIN
 10
0.0
 20
0.0
  9
$LIMMAX
 10
420.0
 20
297.0
  9
$ORTHOMODE
 70
0
  9
$REGENMODE
 70
1
  9
$FILLMODE
 70
1
  9
$QTEXTMODE
 70
0
  9
$MIRRTEXT
 70
1
  9
$LTSCALE
 40
1.0
  9
$ATTMODE
 70
1
  9
$TEXTSIZE
 40
2.5
  9
$TRACEWID
 40
1.0
  9
$TEXTSTYLE
  7
Standard
  9
$CLAYER
  8
0
  9
$CELTYPE
  6
ByLayer
  9
$CECOLOR
 62
256
  9
$CELTSCALE
 40
1.0
  9
$DISPSILH
 70
0
  9
$DIMSCALE
 40
1.0
  9
$DIMASZ
 40
2.5
  9
$DIMEXO
 40
0.625
  9
$DIMDLI
 40
3.75
  9
$DIMRND
 40
0.0
  9
$DIMDLE
 40
0.0
  9
$DIMEXE
 40
1.25
  9
$DIMTP
 40
0.0
  9
$DIMTM
 40
0.0
  9
$DIMTXT
 40
2.5
  9
$DIMCEN
 40
2.5
  9
$DIMTSZ
 40
0.0
  9
$DIMTOL
 70
0
  9
$DIMLIM
 70
0
  9
$DIMTIH
 70
0
  9
$DIMTOH
 70
0
  9
$DIMSE1
 70
0
  9
$DIMSE2
 70
0
  9
$DIMTAD
 70
1
  9
$DIMZIN
 70
8
  9
$DIMBLK
  1

  9
$DIMASO
 70
1
  9
$DIMSHO
 70
1
  9
$DIMPOST
  1

  9
$DIMAPOST
  1

  9
$DIMALT
 70
0
  9
$DIMALTD
 70
3
  9
$DIMALTF
 40
0.03937007874
  9
$DIMLFAC
 40
1.0
  9
$DIMTOFL
 70
1
  9
$DIMTVP
 40
0.0
  9
$DIMTIX
 70
0
  9
$DIMSOXD
 70
0
  9
$DIMSAH
 70
0
  9
$DIMBLK1
  1

  9
$DIMBLK2
  1

  9
$DIMSTYLE
  2
ISO-25
  9
$DIMCLRD
 70
0
  9
$DIMCLRE
 70
0
  9
$DIMCLRT
 70
0
  9
$DIMTFAC
 40
1.0
  9
$DIMGAP
 40
0.625
  9
$DIMJUST
 70
0
  9
$DIMSD1
 70
0
  9
$DIMSD2
 70
0
  9
$DIMTOLJ
 70
0
  9
$DIMTZIN
 70
8
  9
$DIMALTZ
 70
0
  9
$DIMALTTZ
 70
0
  9
$DIMUPT
 70
0
  9
$DIMDEC
 70
2
  9
$DIMTDEC
 70
2
  9
$DIMALTU
 70
2
  9
$DIMALTTD
 70
3
  9
$DIMTXSTY
  7
Standard
  9
$DIMAUNIT
 70
0
  9
$DIMADEC
 70
0
  9
$DIMALTRND
 40
0.0
  9
$DIMAZIN
 70
0
  9
$DIMDSEP
 70
44
  9
$DIMATFIT
 70
3
  9
$DIMFRAC
 70
0
  9
$DIMLDRBLK
  1

  9
$DIMLUNIT
 70
2
  9
$DIMLWD
 70
-2
  9
$DIMLWE
 70
-2
  9
$DIMTMOVE
 70
0
  9
$DIMFXL
 40
1.0
  9
$DIMFXLON
 70
0
  9
$DIMJOGANG
 40
0.785398163397
  9
$DIMTFILL
 70
0
  9
$DIMTFILLCLR
 70
0
  9
$DIMARCSYM
 70
0
  9
$DIMLTYPE
  6

  9
$DIMLTEX1
  6

  9
$DIMLTEX2
  6

  9
$DIMTXTDIRECTION
 70
0
  9
$LUNITS
 70
2
  9
$LUPREC
 70
4
  9
$SKETCHINC
 40
1.0
  9
$FILLETRAD
 40
10.0
  9
$AUNITS
 70
0
  9
$AUPREC
 70
2
  9
$MENU
  1
.
  9
$ELEVATION
 40
0.0
  9
$PELEVATION
 40
0.0
  9
$THICKNESS
 40
0.0
  9
$LIMCHECK
 70
0
  9
$CHAMFERA
 40
0.0
  9
$CHAMFERB
 40
0.0
  9
$CHAMFERC
 40
0.0
  9
$CHAMFERD
 40
0.0
  9
$SKPOLY
 70
0
  9
$TDCREATE
 40
2461202.6155787036
  9
$TDUCREATE
 40
2458532.153996898
  9
$TDUPDATE
 40
2461202.6155787036
  9
$TDUUPDATE
 40
2458532.1544311
  9
$TDINDWG
 40
0.0
  9
$TDUSRTIMER
 40
0.0
  9
$USRTIMER
 70
1
  9
$ANGBASE
 50
0.0
  9
$ANGDIR
 70
0
  9
$PDMODE
 70
0
  9
$PDSIZE
 40
0.0
  9
$PLINEWID
 40
0.0
  9
$SPLFRAME
 70
0
  9
$SPLINETYPE
 70
6
  9
$SPLINESEGS
 70
8
  9
$HANDSEED
  5
19F
  9
$SURFTAB1
 70
6
  9
$SURFTAB2
 70
6
  9
$SURFTYPE
 70
6
  9
$SURFU
 70
6
  9
$SURFV
 70
6
  9
$UCSBASE
  2

  9
$UCSNAME
  2

  9
$UCSORG
 10
0.0
 20
0.0
 30
0.0
  9
$UCSXDIR
 10
1.0
 20
0.0
 30
0.0
  9
$UCSYDIR
 10
0.0
 20
1.0
 30
0.0
  9
$UCSORTHOREF
  2

  9
$UCSORTHOVIEW
 70
0
  9
$UCSORGTOP
 10
0.0
 20
0.0
 30
0.0
  9
$UCSORGBOTTOM
 10
0.0
 20
0.0
 30
0.0
  9
$UCSORGLEFT
 10
0.0
 20
0.0
 30
0.0
  9
$UCSORGRIGHT
 10
0.0
 20
0.0
 30
0.0
  9
$UCSORGFRONT
 10
0.0
 20
0.0
 30
0.0
  9
$UCSORGBACK
 10
0.0
 20
0.0
 30
0.0
  9
$PUCSBASE
  2

  9
$PUCSNAME
  2

  9
$PUCSORG
 10
0.0
 20
0.0
 30
0.0
  9
$PUCSXDIR
 10
1.0
 20
0.0
 30
0.0
  9
$PUCSYDIR
 10
0.0
 20
1.0
 30
0.0
  9
$PUCSORTHOREF
  2

  9
$PUCSORTHOVIEW
 70
0
  9
$PUCSORGTOP
 10
0.0
 20
0.0
 30
0.0
  9
$PUCSORGBOTTOM
 10
0.0
 20
0.0
 30
0.0
  9
$PUCSORGLEFT
 10
0.0
 20
0.0
 30
0.0
  9
$PUCSORGRIGHT
 10
0.0
 20
0.0
 30
0.0
  9
$PUCSORGFRONT
 10
0.0
 20
0.0
 30
0.0
  9
$PUCSORGBACK
 10
0.0
 20
0.0
 30
0.0
  9
$USERI1
 70
0
  9
$USERI2
 70
0
  9
$USERI3
 70
0
  9
$USERI4
 70
0
  9
$USERI5
 70
0
  9
$USERR1
 40
0.0
  9
$USERR2
 40
0.0
  9
$USERR3
 40
0.0
  9
$USERR4
 40
0.0
  9
$USERR5
 40
0.0
  9
$WORLDVIEW
 70
1
  9
$SHADEDGE
 70
3
  9
$SHADEDIF
 70
70
  9
$TILEMODE
 70
1
  9
$MAXACTVP
 70
64
  9
$PINSBASE
 10
0.0
 20
0.0
 30
0.0
  9
$PLIMCHECK
 70
0
  9
$PEXTMIN
 10
1e+20
 20
1e+20
 30
1e+20
  9
$PEXTMAX
 10
-1e+20
 20
-1e+20
 30
-1e+20
  9
$PLIMMIN
 10
0.0
 20
0.0
  9
$PLIMMAX
 10
420.0
 20
297.0
  9
$UNITMODE
 70
0
  9
$VISRETAIN
 70
1
  9
$PLINEGEN
 70
0
  9
$PSLTSCALE
 70
1
  9
$TREEDEPTH
 70
3020
  9
$CMLSTYLE
  2
Standard
  9
$CMLJUST
 70
0
  9
$CMLSCALE
 40
20.0
  9
$PROXYGRAPHICS
 70
1
  9
$MEASUREMENT
 70
1
  9
$CELWEIGHT
370
-1
  9
$ENDCAPS
280
0
  9
$JOINSTYLE
280
0
  9
$LWDISPLAY
290
0
  9
$INSUNITS
 70
6
  9
$HYPERLINKBASE
  1

  9
$STYLESHEET
  1

  9
$XEDIT
290
1
  9
$CEPSNTYPE
380
0
  9
$PSTYLEMODE
290
1
  9
$FINGERPRINTGUID
  2
{E0ACA6EA-435E-4346-9154-6AD316581DA9}
  9
$VERSIONGUID
  2
{CDFC5A73-4856-4AEB-8749-B2FC3BC95571}
  9
$EXTNAMES
290
1
  9
$PSVPSCALE
 40
0.0
  9
$OLESTARTUP
290
0
  9
$SORTENTS
280
127
  9
$INDEXCTL
280
0
  9
$HIDETEXT
280
1
  9
$XCLIPFRAME
280
1
  9
$HALOGAP
280
0
  9
$OBSCOLOR
 70
257
  9
$OBSLTYPE
280
0
  9
$INTERSECTIONDISPLAY
280
0
  9
$INTERSECTIONCOLOR
 70
257
  9
$DIMASSOC
280
2
  9
$PROJECTNAME
  1

  9
$CAMERADISPLAY
290
0
  9
$LENSLENGTH
 40
50.0
  9
$CAMERAHEIGHT
 40
0.0
  9
$STEPSPERSEC
 40
24.0
  9
$STEPSIZE
 40
100.0
  9
$3DDWFPREC
 40
2.0
  9
$PSOLWIDTH
 40
0.005
  9
$PSOLHEIGHT
 40
0.08
  9
$LOFTANG1
 40
1.570796326795
  9
$LOFTANG2
 40
1.570796326795
  9
$LOFTMAG1
 40
0.0
  9
$LOFTMAG2
 40
0.0
  9
$LOFTPARAM
 70
7
  9
$LOFTNORMALS
280
1
  9
$LATITUDE
 40
37.795
  9
$LONGITUDE
 40
-122.394
  9
$NORTHDIRECTION
 40
0.0
  9
$TIMEZONE
 70
-8000
  9
$LIGHTGLYPHDISPLAY
280
1
  9
$TILEMODELIGHTSYNCH
280
1
  9
$CMATERIAL
347
20
  9
$SOLIDHIST
280
0
  9
$SHOWHIST
280
1
  9
$DWFFRAME
280
2
  9
$DGNFRAME
280
2
  9
$REALWORLDSCALE
290
1
  9
$INTERFERECOLOR
 62
256
  9
$CSHADOW
280
0
  9
$SHADOWPLANELOCATION
 40
0.0
  0
ENDSEC
  0
SECTION
  2
CLASSES
  0
CLASS
  1
ACDBDICTIONARYWDFLT
  2
AcDbDictionaryWithDefault
  3
ObjectDBX Classes
 90
0
 91
0
280
0
281
0
  0
CLASS
  1
SUN
  2
AcDbSun
  3
SCENEOE
 90
1153
 91
0
280
0
281
0
  0
CLASS
  1
VISUALSTYLE
  2
AcDbVisualStyle
  3
ObjectDBX Classes
 90
4095
 91
0
280
0
281
0
  0
CLASS
  1
MATERIAL
  2
AcDbMaterial
  3
ObjectDBX Classes
 90
1153
 91
0
280
0
281
0
  0
CLASS
  1
SCALE
  2
AcDbScale
  3
ObjectDBX Classes
 90
1153
 91
0
280
0
281
0
  0
CLASS
  1
TABLESTYLE
  2
AcDbTableStyle
  3
ObjectDBX Classes
 90
4095
 91
0
280
0
281
0
  0
CLASS
  1
MLEADERSTYLE
  2
AcDbMLeaderStyle
  3
ACDB_MLEADERSTYLE_CLASS
 90
4095
 91
0
280
0
281
0
  0
CLASS
  1
DICTIONARYVAR
  2
AcDbDictionaryVar
  3
ObjectDBX Classes
 90
0
 91
0
280
0
281
0
  0
CLASS
  1
CELLSTYLEMAP
  2
AcDbCellStyleMap
  3
ObjectDBX Classes
 90
1152
 91
0
280
0
281
0
  0
CLASS
  1
MENTALRAYRENDERSETTINGS
  2
AcDbMentalRayRenderSettings
  3
SCENEOE
 90
1024
 91
0
280
0
281
0
  0
CLASS
  1
ACDBDETAILVIEWSTYLE
  2
AcDbDetailViewStyle
  3
ObjectDBX Classes
 90
1025
 91
0
280
0
281
0
  0
CLASS
  1
ACDBSECTIONVIEWSTYLE
  2
AcDbSectionViewStyle
  3
ObjectDBX Classes
 90
1025
 91
0
280
0
281
0
  0
CLASS
  1
RASTERVARIABLES
  2
AcDbRasterVariables
  3
ISM
 90
0
 91
0
280
0
281
0
  0
CLASS
  1
ACDBPLACEHOLDER
  2
AcDbPlaceHolder
  3
ObjectDBX Classes
 90
0
 91
0
280
0
281
0
  0
CLASS
  1
LAYOUT
  2
AcDbLayout
  3
ObjectDBX Classes
 90
0
 91
0
280
0
281
0
  0
ENDSEC
  0
SECTION
  2
TABLES
  0
TABLE
  2
VPORT
  5
8
330
0
100
AcDbSymbolTable
 70
1
  0
VPORT
  5
23
330
8
100
AcDbSymbolTableRecord
100
AcDbViewportTableRecord
  2
*Active
 70
0
 10
0.0
 20
0.0
 11
1.0
 21
1.0
 12
0.0
 22
0.0
 13
0.0
 23
0.0
 14
0.5
 24
0.5
 15
0.5
 25
0.5
 16
0.0
 26
0.0
 36
1.0
 17
0.0
 27
0.0
 37
0.0
 40
1000.0
 41
1.34
 42
50.0
 43
0.0
 44
0.0
 50
0.0
 51
0.0
 71
0
 72
1000
 73
1
 74
3
 75
0
 76
0
 77
0
 78
0
281
0
 65
0
146
0.0
  0
ENDTAB
  0
TABLE
  2
LTYPE
  5
2
330
0
100
AcDbSymbolTable
 70
3
  0
LTYPE
  5
24
330
2
100
AcDbSymbolTableRecord
100
AcDbLinetypeTableRecord
  2
ByBlock
 70
0
  3

 72
65
 73
0
 40
0.0
  0
LTYPE
  5
25
330
2
100
AcDbSymbolTableRecord
100
AcDbLinetypeTableRecord
  2
ByLayer
 70
0
  3

 72
65
 73
0
 40
0.0
  0
LTYPE
  5
26
330
2
100
AcDbSymbolTableRecord
100
AcDbLinetypeTableRecord
  2
Continuous
 70
0
  3

 72
65
 73
0
 40
0.0
  0
ENDTAB
  0
TABLE
  2
LAYER
  5
1
330
0
100
AcDbSymbolTable
 70
14
  0
LAYER
  5
27
330
1
100
AcDbSymbolTableRecord
100
AcDbLayerTableRecord
  2
0
 70
0
 62
7
  6
Continuous
370
-3
390
13
347
21
  0
LAYER
  5
28
330
1
100
AcDbSymbolTableRecord
100
AcDbLayerTableRecord
  2
Defpoints
 70
0
 62
7
  6
Continuous
290
0
370
-3
390
13
347
21
  0
LAYER
  5
2F
330
1
100
AcDbSymbolTableRecord
100
AcDbLayerTableRecord
  2
Perfil Metálico
 70
0
 62
7
  6
Continuous
370
-3
390
13
347
21
  0
LAYER
  5
30
330
1
100
AcDbSymbolTableRecord
100
AcDbLayerTableRecord
  2
COTA
 70
0
 62
7
  6
Continuous
370
-3
390
13
347
21
  0
LAYER
  5
31
330
1
100
AcDbSymbolTableRecord
100
AcDbLayerTableRecord
  2
Hachura
 70
0
 62
7
  6
Continuous
370
-3
390
13
347
21
  0
LAYER
  5
32
330
1
100
AcDbSymbolTableRecord
100
AcDbLayerTableRecord
  2
SARRAFO
 70
0
 62
7
  6
Continuous
370
-3
390
13
347
21
  0
LAYER
  5
33
330
1
100
AcDbSymbolTableRecord
100
AcDbLayerTableRecord
  2
CHAPA
 70
0
 62
7
  6
Continuous
370
-3
390
13
347
21
  0
LAYER
  5
34
330
1
100
AcDbSymbolTableRecord
100
AcDbLayerTableRecord
  2
Madeira
 70
0
 62
7
  6
Continuous
370
-3
390
13
347
21
  0
LAYER
  5
35
330
1
100
AcDbSymbolTableRecord
100
AcDbLayerTableRecord
  2
TEXTO_GERAL
 70
0
 62
7
  6
Continuous
370
-3
390
13
347
21
  0
LAYER
  5
36
330
1
100
AcDbSymbolTableRecord
100
AcDbLayerTableRecord
  2
Painéis
 70
0
 62
7
  6
Continuous
370
-3
390
13
347
21
  0
LAYER
  5
37
330
1
100
AcDbSymbolTableRecord
100
AcDbLayerTableRecord
  2
NOMENCLATURA
 70
0
 62
7
  6
Continuous
370
-3
390
13
347
21
  0
LAYER
  5
38
330
1
100
AcDbSymbolTableRecord
100
AcDbLayerTableRecord
  2
Nível
 70
0
 62
7
  6
Continuous
370
-3
390
13
347
21
  0
LAYER
  5
39
330
1
100
AcDbSymbolTableRecord
100
AcDbLayerTableRecord
  2
Texto Seção
 70
0
 62
7
  6
Continuous
370
-3
390
13
347
21
  0
LAYER
  5
3A
330
1
100
AcDbSymbolTableRecord
100
AcDbLayerTableRecord
  2
SARR_2.2x7
 70
0
 62
7
  6
Continuous
370
-3
390
13
347
21
  0
ENDTAB
  0
TABLE
  2
STYLE
  5
5
330
0
100
AcDbSymbolTable
 70
1
  0
STYLE
  5
29
330
5
100
AcDbSymbolTableRecord
100
AcDbTextStyleTableRecord
  2
Standard
 70
0
 40
0.0
 41
1.0
 50
0.0
 71
0
 42
2.5
  3
txt
  4

  0
ENDTAB
  0
TABLE
  2
VIEW
  5
7
330
0
100
AcDbSymbolTable
 70
0
  0
ENDTAB
  0
TABLE
  2
UCS
  5
6
330
0
100
AcDbSymbolTable
 70
0
  0
ENDTAB
  0
TABLE
  2
APPID
  5
3
330
0
100
AcDbSymbolTable
 70
3
  0
APPID
  5
2A
330
3
100
AcDbSymbolTableRecord
100
AcDbRegAppTableRecord
  2
ACAD
 70
0
  0
APPID
  5
19C
330
3
100
AcDbSymbolTableRecord
100
AcDbRegAppTableRecord
  2
HATCHBACKGROUNDCOLOR
 70
0
  0
APPID
  5
19D
330
3
100
AcDbSymbolTableRecord
100
AcDbRegAppTableRecord
  2
EZDXF
 70
0
  0
ENDTAB
  0
TABLE
  2
DIMSTYLE
  5
4
330
0
100
AcDbSymbolTable
 70
1
100
AcDbDimStyleTable
  0
DIMSTYLE
105
2B
330
4
100
AcDbSymbolTableRecord
100
AcDbDimStyleTableRecord
  2
Standard
 70
0
 40
1.0
 41
2.5
 42
0.625
 43
3.75
 44
1.25
 45
0.0
 46
0.0
 47
0.0
 48
0.0
 49
2.5
140
2.5
141
2.5
142
0.0
143
0.03937007874
144
1.0
145
0.0
146
1.0
147
0.625
148
0.0
 69
0
 70
0
 71
0
 72
0
 73
0
 74
0
 75
0
 76
0
 77
1
 78
8
 79
3
170
0
171
3
172
1
173
0
174
0
175
0
176
0
177
0
178
0
179
2
271
2
272
2
273
2
274
3
275
0
276
0
277
2
278
44
279
0
280
0
281
0
282
0
283
0
284
8
285
0
286
0
288
0
289
3
290
0
371
-2
372
-2
  0
ENDTAB
  0
TABLE
  2
BLOCK_RECORD
  5
9
330
0
100
AcDbSymbolTable
 70
2
  0
BLOCK_RECORD
  5
17
330
9
100
AcDbSymbolTableRecord
100
AcDbBlockTableRecord
  2
*Model_Space
340
1A
 70
0
280
1
281
0
  0
BLOCK_RECORD
  5
1B
330
9
100
AcDbSymbolTableRecord
100
AcDbBlockTableRecord
  2
*Paper_Space
340
1E
 70
0
280
1
281
0
  0
ENDTAB
  0
ENDSEC
  0
SECTION
  2
BLOCKS
  0
BLOCK
  5
18
330
17
100
AcDbEntity
  8
0
100
AcDbBlockBegin
  2
*Model_Space
 70
0
 10
0.0
 20
0.0
 30
0.0
  3
*Model_Space
  1

  0
ENDBLK
  5
19
330
17
100
AcDbEntity
  8
0
100
AcDbBlockEnd
  0
BLOCK
  5
1C
330
1B
100
AcDbEntity
  8
0
100
AcDbBlockBegin
  2
*Paper_Space
 70
0
 10
0.0
 20
0.0
 30
0.0
  3
*Paper_Space
  1

  0
ENDBLK
  5
1D
330
1B
100
AcDbEntity
  8
0
100
AcDbBlockEnd
  0
ENDSEC
  0
SECTION
  2
ENTITIES
  0
LINE
  5
3B
330
17
100
AcDbEntity
  8
Nível
 62
4
370
25
100
AcDbLine
 10
18202.13248502313
 20
-617.4402007962544
 30
0.0
 11
19041.96728878696
 21
-617.4402007962544
 31
0.0
  0
LINE
  5
3C
330
17
100
AcDbEntity
  8
Nível
 62
4
370
25
100
AcDbLine
 10
18202.13248502313
 20
-290.4402007962545
 30
0.0
 11
19041.96728878696
 21
-290.4402007962545
 31
0.0
  0
LINE
  5
3D
330
17
100
AcDbEntity
  8
COTA
 62
241
370
25
100
AcDbLine
 10
18017.37589859093
 20
-215.7770374372176
 30
0.0
 11
17749.02372296327
 21
-215.7770374372176
 31
0.0
  0
LINE
  5
3E
330
17
100
AcDbEntity
  8
COTA
 62
241
370
25
100
AcDbLine
 10
18017.37589859093
 20
-271.7770374372176
 30
0.0
 11
17749.02372296327
 21
-271.7770374372176
 31
0.0
  0
LINE
  5
3F
330
17
100
AcDbEntity
  8
COTA
 62
241
370
25
100
AcDbLine
 10
17749.02372296327
 20
-215.7770374372176
 30
0.0
 11
17749.02372296327
 21
-271.7770374372176
 31
0.0
  0
LINE
  5
40
330
17
100
AcDbEntity
  8
COTA
 62
241
370
25
100
AcDbLine
 10
18017.37589859093
 20
-215.7770374372176
 30
0.0
 11
18017.37589859093
 21
-271.7770374372176
 31
0.0
  0
LINE
  5
41
330
17
100
AcDbEntity
  8
SARR_2.2x7
 62
40
370
25
100
AcDbLine
 10
18599.47450949282
 20
-615.4402007962544
 30
0.0
 11
18599.47450949277
 21
-493.4402007962519
 31
0.0
  0
LINE
  5
42
330
17
100
AcDbEntity
  8
SARR_2.2x7
 62
40
370
25
100
AcDbLine
 10
18511.47450949292
 20
-615.4402007962544
 30
0.0
 11
18511.47450949284
 21
-493.4402007962542
 31
0.0
  0
LINE
  5
43
330
17
100
AcDbEntity
  8
COTA
 62
241
370
25
100
AcDbLine
 10
18504.47450949288
 20
-290.4402007962545
 30
0.0
 11
18606.47450949288
 21
-290.4402007962545
 31
0.0
  0
LINE
  5
44
330
17
100
AcDbEntity
  8
COTA
 62
241
370
25
100
AcDbLine
 10
18606.47450949284
 20
-321.4402007962544
 30
0.0
 11
18606.47450949288
 21
-290.4402007962545
 31
0.0
  0
LINE
  5
45
330
17
100
AcDbEntity
  8
Painéis
 62
200
370
25
100
AcDbLine
 10
18504.47450949266
 20
-617.4402007967637
 30
0.0
 11
18504.47450949247
 21
-306.4402007962546
 31
0.0
  0
LINE
  5
46
330
17
100
AcDbEntity
  8
Painéis
 62
200
370
25
100
AcDbLine
 10
18606.47450949287
 20
-321.4402007962543
 30
0.0
 11
18606.47450949267
 21
-617.4402007967346
 31
0.0
  0
LINE
  5
47
330
17
100
AcDbEntity
  8
Painéis
 62
200
370
25
100
AcDbLine
 10
18606.47450949267
 20
-615.4402007962544
 30
0.0
 11
18504.47450949266
 21
-615.4402007962544
 31
0.0
  0
LINE
  5
48
330
17
100
AcDbEntity
  8
Painéis
 62
200
370
25
100
AcDbLine
 10
18541.97450949253
 20
-354.4402007961987
 30
0.0
 11
18606.47450949266
 21
-354.4402007962517
 31
0.0
  0
LINE
  5
49
330
17
100
AcDbEntity
  8
SARR_2.2x7
 62
40
370
25
100
AcDbLine
 10
18534.97450949254
 20
-361.4402007961925
 30
0.0
 11
18575.97450949285
 21
-361.4402007962291
 31
0.0
  0
LINE
  5
4A
330
17
100
AcDbEntity
  8
SARR_2.2x7
 62
40
370
25
100
AcDbLine
 10
18511.47450949275
 20
-371.4402007962535
 30
0.0
 11
18511.47450949275
 21
-306.4402007962473
 31
0.0
  0
LINE
  5
4B
330
17
100
AcDbEntity
  8
SARR_2.2x7
 62
40
370
25
100
AcDbLine
 10
18599.47450949273
 20
-371.4402007962508
 30
0.0
 11
18599.47450949271
 21
-354.4402007962535
 31
0.0
  0
LINE
  5
4C
330
17
100
AcDbEntity
  8
SARR_2.2x7
 62
40
370
25
100
AcDbLine
 10
18511.47450949275
 20
-306.4402007962473
 30
0.0
 11
18504.47450949292
 21
-306.4402007962546
 31
0.0
  0
LINE
  5
4D
330
17
100
AcDbEntity
  8
Painéis
 62
200
370
25
100
AcDbLine
 10
18606.47450949266
 20
-371.4402007962535
 30
0.0
 11
18504.47450949272
 21
-371.4402007962535
 31
0.0
  0
LINE
  5
4E
330
17
100
AcDbEntity
  8
Painéis
 62
200
370
25
100
AcDbLine
 10
18504.47450949266
 20
-493.4402007962544
 30
0.0
 11
18606.4745094926
 21
-493.4402007962517
 31
0.0
  0
LINE
  5
4F
330
17
100
AcDbEntity
  8
Painéis
 62
200
370
25
100
AcDbLine
 10
18606.47450949284
 20
-321.4402007962544
 30
0.0
 11
18568.97450949287
 21
-321.4402007962342
 31
0.0
  0
LINE
  5
50
330
17
100
AcDbEntity
  8
Painéis
 62
200
370
25
100
AcDbLine
 10
18568.97450949287
 20
-321.4402007962342
 30
0.0
 11
18568.97450949285
 21
-354.4402007962383
 31
0.0
  0
LINE
  5
51
330
17
100
AcDbEntity
  8
SARR_2.2x7
 62
40
370
25
100
AcDbLine
 10
18575.97450949287
 20
-321.4402007962374
 30
0.0
 11
18575.97450949285
 21
-354.4402007962414
 31
0.0
  0
LINE
  5
52
330
17
100
AcDbEntity
  8
COTA
 62
241
370
25
100
AcDbLine
 10
18504.47450949254
 20
-306.4402007962546
 30
0.0
 11
18504.4745094925
 21
-290.4402007962545
 31
0.0
  0
LINE
  5
53
330
17
100
AcDbEntity
  8
Painéis
 62
200
370
25
100
AcDbLine
 10
18504.47450949254
 20
-306.4402007962546
 30
0.0
 11
18541.97450949251
 21
-306.4402007962343
 31
0.0
  0
LINE
  5
54
330
17
100
AcDbEntity
  8
Painéis
 62
200
370
25
100
AcDbLine
 10
18541.97450949251
 20
-306.4402007962343
 30
0.0
 11
18541.97450949253
 21
-354.4402007962383
 31
0.0
  0
LINE
  5
55
330
17
100
AcDbEntity
  8
SARR_2.2x7
 62
40
370
25
100
AcDbLine
 10
18534.97450949251
 20
-306.4402007962375
 30
0.0
 11
18534.97450949253
 21
-354.4402007962314
 31
0.0
  0
LINE
  5
56
330
17
100
AcDbEntity
  8
SARR_2.2x7
 62
40
370
25
100
AcDbLine
 10
18599.47450949271
 20
-354.4402007962535
 30
0.0
 11
18599.47450949274
 21
-321.4402007962501
 31
0.0
  0
LINE
  5
57
330
17
100
AcDbEntity
  8
SARR_2.2x7
 62
40
370
25
100
AcDbLine
 10
18541.97450949253
 20
-354.4402007962383
 30
0.0
 11
18534.97450949254
 21
-354.440200796231
 31
0.0
  0
LINE
  5
58
330
17
100
AcDbEntity
  8
SARR_2.2x7
 62
40
370
25
100
AcDbLine
 10
18575.97450949285
 20
-354.440200796229
 30
0.0
 11
18575.97450949285
 21
-361.440200796229
 31
0.0
  0
LINE
  5
59
330
17
100
AcDbEntity
  8
Painéis
 62
200
370
25
100
AcDbLine
 10
18606.47450949288
 20
-290.4402007962545
 30
0.0
 11
18568.97450949287
 21
-290.4402007962545
 31
0.0
  0
LINE
  5
5A
330
17
100
AcDbEntity
  8
Painéis
 62
200
370
25
100
AcDbLine
 10
18568.97450949287
 20
-290.4402007962545
 30
0.0
 11
18568.97450949287
 21
-305.4402007962543
 31
0.0
  0
LINE
  5
5B
330
17
100
AcDbEntity
  8
Painéis
 62
200
370
25
100
AcDbLine
 10
18568.97450949287
 20
-305.4402007962543
 30
0.0
 11
18606.47450949284
 21
-305.4402007962544
 31
0.0
  0
LINE
  5
5C
330
17
100
AcDbEntity
  8
Painéis
 62
200
370
25
100
AcDbLine
 10
18606.47450949284
 20
-305.4402007962544
 30
0.0
 11
18606.47450949288
 21
-290.4402007962545
 31
0.0
  0
LINE
  5
5D
330
17
100
AcDbEntity
  8
SARR_2.2x7
 62
40
370
25
100
AcDbLine
 10
18504.47450949254
 20
-313.4402007962545
 30
0.0
 11
18534.97450949251
 21
-313.4402007962544
 31
0.0
  0
LINE
  5
5E
330
17
100
AcDbEntity
  8
SARR_2.2x7
 62
40
370
25
100
AcDbLine
 10
18606.47450949284
 20
-328.4402007962544
 30
0.0
 11
18575.97450949286
 21
-328.4402007962381
 31
0.0
  0
LINE
  5
5F
330
17
100
AcDbEntity
  8
SARR_2.2x7
 62
40
370
25
100
AcDbLine
 10
18575.97450949287
 20
-297.4402007962544
 30
0.0
 11
18575.97450949287
 21
-305.7059514716601
 31
0.0
  0
LINE
  5
60
330
17
100
AcDbEntity
  8
SARR_2.2x7
 62
40
370
25
100
AcDbLine
 10
18599.47450949284
 20
-305.4402007962341
 30
0.0
 11
18599.47450949288
 21
-290.4402007962341
 31
0.0
  0
LINE
  5
61
330
17
100
AcDbEntity
  8
SARR_2.2x7
 62
40
370
25
100
AcDbLine
 10
18775.72173055608
 20
-321.4402007962535
 30
0.0
 11
18775.72173055609
 21
-371.4402007962508
 31
0.0
  0
LINE
  5
62
330
17
100
AcDbEntity
  8
SARR_2.2x7
 62
40
370
25
100
AcDbLine
 10
18771.22173055617
 20
-321.4402007962535
 30
0.0
 11
18771.22173055615
 21
-371.4402007962508
 31
0.0
  0
LINE
  5
63
330
17
100
AcDbEntity
  8
Painéis
 62
200
370
25
100
AcDbLine
 10
18764.22173055612
 20
-615.4402007962544
 30
0.0
 11
18782.72173055612
 21
-615.4402007962544
 31
0.0
  0
LINE
  5
64
330
17
100
AcDbEntity
  8
Painéis
 62
200
370
25
100
AcDbLine
 10
18764.22173055612
 20
-371.4402007962508
 30
0.0
 11
18782.72173055612
 21
-371.4402007962508
 31
0.0
  0
LINE
  5
65
330
17
100
AcDbEntity
  8
Painéis
 62
200
370
25
100
AcDbLine
 10
18782.72173055612
 20
-615.4402007962544
 30
0.0
 11
18782.72173055612
 21
-321.4402007962535
 31
0.0
  0
LINE
  5
66
330
17
100
AcDbEntity
  8
Painéis
 62
200
370
25
100
AcDbLine
 10
18782.72173055612
 20
-371.4402007962544
 30
0.0
 11
18764.22173055612
 21
-371.4402007962544
 31
0.0
  0
LINE
  5
67
330
17
100
AcDbEntity
  8
Painéis
 62
200
370
25
100
AcDbLine
 10
18764.22173055612
 20
-321.4402007962526
 30
0.0
 11
18764.22173055612
 21
-615.4402007962544
 31
0.0
  0
LINE
  5
68
330
17
100
AcDbEntity
  8
Painéis
 62
200
370
25
100
AcDbLine
 10
18782.72173055612
 20
-371.4402007962544
 30
0.0
 11
18764.22173055612
 21
-371.4402007962544
 31
0.0
  0
LINE
  5
69
330
17
100
AcDbEntity
  8
Painéis
 62
200
370
25
100
AcDbLine
 10
18782.72173055612
 20
-371.4402007962544
 30
0.0
 11
18764.22173055612
 21
-371.4402007962544
 31
0.0
  0
LINE
  5
6A
330
17
100
AcDbEntity
  8
Painéis
 62
200
370
25
100
AcDbLine
 10
18782.72173055612
 20
-321.4402007962526
 30
0.0
 11
18782.72173055612
 21
-615.4402007962544
 31
0.0
  0
LINE
  5
6B
330
17
100
AcDbEntity
  8
Painéis
 62
200
370
25
100
AcDbLine
 10
18764.22173055612
 20
-321.4402007962526
 30
0.0
 11
18782.72173055612
 21
-321.4402007962526
 31
0.0
  0
LINE
  5
6C
330
17
100
AcDbEntity
  8
Painéis
 62
200
370
25
100
AcDbLine
 10
18782.72173055612
 20
-321.4402007962562
 30
0.0
 11
18764.22173055612
 21
-321.4402007962562
 31
0.0
  0
LINE
  5
6D
330
17
100
AcDbEntity
  8
Painéis
 62
200
370
25
100
AcDbLine
 10
18782.72173055612
 20
-321.4402007962562
 30
0.0
 11
18764.22173055612
 21
-321.4402007962562
 31
0.0
  0
LINE
  5
6E
330
17
100
AcDbEntity
  8
Painéis
 62
200
370
25
100
AcDbLine
 10
18782.72173055612
 20
-321.4402007962562
 30
0.0
 11
18764.22173055612
 21
-321.4402007962562
 31
0.0
  0
LINE
  5
6F
330
17
100
AcDbEntity
  8
SARR_2.2x7
 62
40
370
25
100
AcDbLine
 10
18914.12785628429
 20
-306.4402007962517
 30
0.0
 11
18914.12785628431
 21
-371.440200796249
 31
0.0
  0
LINE
  5
70
330
17
100
AcDbEntity
  8
SARR_2.2x7
 62
40
370
25
100
AcDbLine
 10
18909.62785628438
 20
-306.4402007962517
 30
0.0
 11
18909.62785628436
 21
-371.440200796249
 31
0.0
  0
LINE
  5
71
330
17
100
AcDbEntity
  8
Painéis
 62
200
370
25
100
AcDbLine
 10
18902.62785628434
 20
-615.4402007962525
 30
0.0
 11
18921.12785628433
 21
-615.4402007962525
 31
0.0
  0
LINE
  5
72
330
17
100
AcDbEntity
  8
Painéis
 62
200
370
25
100
AcDbLine
 10
18902.62785628434
 20
-371.440200796249
 30
0.0
 11
18921.12785628433
 21
-371.440200796249
 31
0.0
  0
LINE
  5
73
330
17
100
AcDbEntity
  8
Painéis
 62
200
370
25
100
AcDbLine
 10
18921.12785628433
 20
-615.4402007962525
 30
0.0
 11
18921.12785628433
 21
-306.4402007962517
 31
0.0
  0
LINE
  5
74
330
17
100
AcDbEntity
  8
Painéis
 62
200
370
25
100
AcDbLine
 10
18921.12785628433
 20
-371.4402007962526
 30
0.0
 11
18902.62785628434
 21
-371.4402007962526
 31
0.0
  0
LINE
  5
75
330
17
100
AcDbEntity
  8
Painéis
 62
200
370
25
100
AcDbLine
 10
18902.62785628434
 20
-306.4402007962508
 30
0.0
 11
18902.62785628434
 21
-615.4402007962525
 31
0.0
  0
LINE
  5
76
330
17
100
AcDbEntity
  8
Painéis
 62
200
370
25
100
AcDbLine
 10
18921.12785628433
 20
-371.4402007962526
 30
0.0
 11
18902.62785628434
 21
-371.4402007962526
 31
0.0
  0
LINE
  5
77
330
17
100
AcDbEntity
  8
Painéis
 62
200
370
25
100
AcDbLine
 10
18921.12785628433
 20
-371.4402007962526
 30
0.0
 11
18902.62785628434
 21
-371.4402007962526
 31
0.0
  0
LINE
  5
78
330
17
100
AcDbEntity
  8
Painéis
 62
200
370
25
100
AcDbLine
 10
18921.12785628433
 20
-306.4402007962508
 30
0.0
 11
18921.12785628433
 21
-615.4402007962525
 31
0.0
  0
LINE
  5
79
330
17
100
AcDbEntity
  8
Painéis
 62
200
370
25
100
AcDbLine
 10
18902.62785628434
 20
-306.4402007962508
 30
0.0
 11
18921.12785628433
 21
-306.4402007962508
 31
0.0
  0
LINE
  5
7A
330
17
100
AcDbEntity
  8
Painéis
 62
200
370
25
100
AcDbLine
 10
18921.12785628433
 20
-306.4402007962544
 30
0.0
 11
18902.62785628434
 21
-306.4402007962544
 31
0.0
  0
LINE
  5
7B
330
17
100
AcDbEntity
  8
Painéis
 62
200
370
25
100
AcDbLine
 10
18921.12785628433
 20
-306.4402007962544
 30
0.0
 11
18902.62785628434
 21
-306.4402007962544
 31
0.0
  0
LINE
  5
7C
330
17
100
AcDbEntity
  8
Painéis
 62
200
370
25
100
AcDbLine
 10
18921.12785628433
 20
-306.4402007962544
 30
0.0
 11
18902.62785628434
 21
-306.4402007962544
 31
0.0
  0
LINE
  5
7D
330
17
100
AcDbEntity
  8
Painéis
 62
200
370
25
100
AcDbLine
 10
18782.72173055612
 20
-290.4402007962545
 30
0.0
 11
18764.22173055612
 21
-290.4402007962545
 31
0.0
  0
LINE
  5
7E
330
17
100
AcDbEntity
  8
Painéis
 62
200
370
25
100
AcDbLine
 10
18764.22173055612
 20
-290.4402007962545
 30
0.0
 11
18764.22173055612
 21
-305.4402007962006
 31
0.0
  0
LINE
  5
7F
330
17
100
AcDbEntity
  8
SARR_2.2x7
 62
40
370
25
100
AcDbLine
 10
18771.22173055612
 20
-290.4402007962545
 30
0.0
 11
18771.22173055612
 21
-305.440200796221
 31
0.0
  0
LINE
  5
80
330
17
100
AcDbEntity
  8
Painéis
 62
200
370
25
100
AcDbLine
 10
18764.22173055612
 20
-305.4402007962006
 30
0.0
 11
18782.72173055608
 21
-305.4402007962544
 31
0.0
  0
LINE
  5
81
330
17
100
AcDbEntity
  8
Painéis
 62
200
370
25
100
AcDbLine
 10
18782.72173055608
 20
-305.4402007962544
 30
0.0
 11
18782.72173055612
 21
-290.4402007962545
 31
0.0
  0
LINE
  5
82
330
17
100
AcDbEntity
  8
SARR_2.2x7
 62
40
370
25
100
AcDbLine
 10
18775.97173055608
 20
-305.4402007962341
 30
0.0
 11
18775.97173055613
 21
-290.4402007962341
 31
0.0
  0
LINE
  5
83
330
17
100
AcDbEntity
  8
SARR_2.2x7
 62
40
370
25
100
AcDbLine
 10
18914.12785628432
 20
-371.440200796249
 30
0.0
 11
18914.12785628436
 21
-615.4402007962525
 31
0.0
  0
LINE
  5
84
330
17
100
AcDbEntity
  8
SARR_2.2x7
 62
40
370
25
100
AcDbLine
 10
18909.62785628437
 20
-371.440200796249
 30
0.0
 11
18909.6278562843
 21
-615.4402007962525
 31
0.0
  0
LINE
  5
85
330
17
100
AcDbEntity
  8
SARR_2.2x7
 62
40
370
25
100
AcDbLine
 10
18775.72173055609
 20
-371.4402007962508
 30
0.0
 11
18775.72173055615
 21
-615.4402007962544
 31
0.0
  0
LINE
  5
86
330
17
100
AcDbEntity
  8
SARR_2.2x7
 62
40
370
25
100
AcDbLine
 10
18771.22173055616
 20
-371.4402007962508
 30
0.0
 11
18771.22173055609
 21
-615.4402007962544
 31
0.0
  0
LINE
  5
87
330
17
100
AcDbEntity
  8
SARR_2.2x7
 62
40
370
25
100
AcDbLine
 10
18606.47450949288
 20
-297.4402007962544
 30
0.0
 11
18568.97450949287
 21
-297.4402007962544
 31
0.0
  0
LINE
  5
88
330
17
100
AcDbEntity
  8
SARR_2.2x7
 62
40
370
25
100
AcDbLine
 10
18599.47450949278
 20
-493.4402007962519
 30
0.0
 11
18599.47450949273
 21
-371.4402007962544
 31
0.0
  0
LINE
  5
89
330
17
100
AcDbEntity
  8
SARR_2.2x7
 62
40
370
25
100
AcDbLine
 10
18511.47450949284
 20
-493.4402007962543
 30
0.0
 11
18511.47450949275
 21
-371.4402007962544
 31
0.0
  0
LINE
  5
8A
330
17
100
AcDbEntity
  8
SARR_2.2x7
 62
40
370
25
100
AcDbLine
 10
18534.97450949254
 20
-354.440200796231
 30
0.0
 11
18534.97450949254
 21
-361.4402007961914
 31
0.0
  0
LINE
  5
8B
330
17
100
AcDbEntity
  8
COTA
 62
180
370
25
100
AcDbLine
 10
17858.98146570497
 20
-195.322613694485
 30
0.0
 11
17878.31479903831
 21
-195.322613694485
 31
0.0
  0
LINE
  5
8C
330
17
100
AcDbEntity
  8
COTA
 62
180
370
25
100
AcDbLine
 10
17878.31479903831
 20
-195.322613694485
 30
0.0
 11
17878.31479903831
 21
-180.3226136944849
 31
0.0
  0
LINE
  5
8D
330
17
100
AcDbEntity
  8
COTA
 62
180
370
25
100
AcDbLine
 10
17878.31479903831
 20
-180.3226136944849
 30
0.0
 11
17858.98146570497
 21
-180.3226136944849
 31
0.0
  0
LINE
  5
8E
330
17
100
AcDbEntity
  8
COTA
 62
180
370
25
100
AcDbLine
 10
17858.98146570497
 20
-180.3226136944849
 30
0.0
 11
17858.98146570497
 21
-195.322613694485
 31
0.0
  0
LINE
  5
8F
330
17
100
AcDbEntity
  8
COTA
 62
180
370
25
100
AcDbLine
 10
17947.63164801409
 20
-215.4926764317567
 30
0.0
 11
17947.63164801409
 21
-187.1593430984233
 31
0.0
  0
LINE
  5
90
330
17
100
AcDbEntity
  8
COTA
 62
180
370
25
100
AcDbLine
 10
17947.63164801409
 20
-187.1593430984233
 30
0.0
 11
17932.63164801409
 21
-187.1593430984233
 31
0.0
  0
LINE
  5
91
330
17
100
AcDbEntity
  8
COTA
 62
180
370
25
100
AcDbLine
 10
17932.63164801409
 20
-187.1593430984233
 30
0.0
 11
17932.63164801409
 21
-215.4926764317567
 31
0.0
  0
LINE
  5
92
330
17
100
AcDbEntity
  8
COTA
 62
180
370
25
100
AcDbLine
 10
17932.63164801409
 20
-215.4926764317567
 30
0.0
 11
17947.63164801409
 21
-215.4926764317567
 31
0.0
  0
LINE
  5
93
330
17
100
AcDbEntity
  8
COTA
 62
4
370
25
100
AcDbLine
 10
18205.13248502314
 20
-617.4402007962545
 30
0.0
 11
18216.98374129442
 21
-617.4402007962545
 31
0.0
  0
LINE
  5
94
330
17
100
AcDbEntity
  8
COTA
 62
4
370
25
100
AcDbLine
 10
18205.13248502314
 20
-290.4402007962545
 30
0.0
 11
18216.98374129442
 21
-290.4402007962545
 31
0.0
  0
LINE
  5
95
330
17
100
AcDbEntity
  8
COTA
 62
4
370
25
100
AcDbLine
 10
18213.98374129442
 20
-617.4402007962545
 30
0.0
 11
18213.98374129442
 21
-290.4402007962545
 31
0.0
  0
LINE
  5
96
330
17
100
AcDbEntity
  8
COTA
 62
0
370
25
100
AcDbLine
 10
18212.48374129442
 20
-615.9402007962545
 30
0.0
 11
18215.48374129442
 21
-618.9402007962545
 31
0.0
  0
LINE
  5
97
330
17
100
AcDbEntity
  8
COTA
 62
0
370
25
100
AcDbLine
 10
18215.48374129442
 20
-291.9402007962545
 30
0.0
 11
18212.48374129442
 21
-288.9402007962545
 31
0.0
  0
LINE
  5
98
330
17
100
AcDbEntity
  8
COTA
 62
4
370
25
100
AcDbLine
 10
18606.4745094926
 20
-618.4402007962544
 30
0.0
 11
18606.4745094926
 21
-663.052185976243
 31
0.0
  0
LINE
  5
99
330
17
100
AcDbEntity
  8
COTA
 62
4
370
25
100
AcDbLine
 10
18504.4745094926
 20
-618.4402007962253
 30
0.0
 11
18504.4745094926
 21
-663.052185976243
 31
0.0
  0
LINE
  5
9A
330
17
100
AcDbEntity
  8
COTA
 62
4
370
25
100
AcDbLine
 10
18606.4745094926
 20
-660.0521859762429
 30
0.0
 11
18504.4745094926
 21
-660.0521859762429
 31
0.0
  0
LINE
  5
9B
330
17
100
AcDbEntity
  8
COTA
 62
0
370
25
100
AcDbLine
 10
18604.9745094926
 20
-661.5521859762429
 30
0.0
 11
18607.9745094926
 21
-658.5521859762429
 31
0.0
  0
LINE
  5
9C
330
17
100
AcDbEntity
  8
COTA
 62
0
370
25
100
AcDbLine
 10
18505.9745094926
 20
-658.5521859762429
 30
0.0
 11
18502.9745094926
 21
-661.5521859762429
 31
0.0
  0
LINE
  5
9D
330
17
100
AcDbEntity
  8
COTA
 62
4
370
25
100
AcDbLine
 10
18599.4745094926
 20
-618.4402007962399
 30
0.0
 11
18599.4745094926
 21
-638.9502967601493
 31
0.0
  0
LINE
  5
9E
330
17
100
AcDbEntity
  8
COTA
 62
4
370
25
100
AcDbLine
 10
18606.4745094926
 20
-620.4402007967637
 30
0.0
 11
18606.4745094926
 21
-638.9502967601493
 31
0.0
  0
LINE
  5
9F
330
17
100
AcDbEntity
  8
COTA
 62
4
370
25
100
AcDbLine
 10
18599.4745094926
 20
-635.9502967601493
 30
0.0
 11
18606.4745094926
 21
-635.9502967601493
 31
0.0
  0
LINE
  5
A0
330
17
100
AcDbEntity
  8
COTA
 62
4
370
25
100
AcDbLine
 10
18606.4745094926
 20
-635.9502967601493
 30
0.0
 11
18621.20550364465
 21
-635.9502967601493
 31
0.0
  0
LINE
  5
A1
330
17
100
AcDbEntity
  8
COTA
 62
0
370
25
100
AcDbLine
 10
18600.9745094926
 20
-634.4502967601493
 30
0.0
 11
18597.9745094926
 21
-637.4502967601493
 31
0.0
  0
LINE
  5
A2
330
17
100
AcDbEntity
  8
COTA
 62
0
370
25
100
AcDbLine
 10
18604.9745094926
 20
-637.4502967601493
 30
0.0
 11
18607.9745094926
 21
-634.4502967601493
 31
0.0
  0
LINE
  5
A3
330
17
100
AcDbEntity
  8
COTA
 62
4
370
25
100
AcDbLine
 10
18511.47450949254
 20
-618.4402007962107
 30
0.0
 11
18511.47450949254
 21
-638.9502967601202
 31
0.0
  0
LINE
  5
A4
330
17
100
AcDbEntity
  8
COTA
 62
4
370
25
100
AcDbLine
 10
18504.4745094926
 20
-620.4402007967346
 30
0.0
 11
18504.4745094926
 21
-638.9502967601202
 31
0.0
  0
LINE
  5
A5
330
17
100
AcDbEntity
  8
COTA
 62
4
370
25
100
AcDbLine
 10
18511.47450949254
 20
-635.9502967601201
 30
0.0
 11
18504.4745094926
 21
-635.9502967601201
 31
0.0
  0
LINE
  5
A6
330
17
100
AcDbEntity
  8
COTA
 62
4
370
25
100
AcDbLine
 10
18504.4745094926
 20
-635.9502967601201
 30
0.0
 11
18489.74351534056
 21
-635.9502967601201
 31
0.0
  0
LINE
  5
A7
330
17
100
AcDbEntity
  8
COTA
 62
0
370
25
100
AcDbLine
 10
18509.97450949254
 20
-637.4502967601201
 30
0.0
 11
18512.97450949254
 21
-634.4502967601201
 31
0.0
  0
LINE
  5
A8
330
17
100
AcDbEntity
  8
COTA
 62
0
370
25
100
AcDbLine
 10
18505.9745094926
 20
-634.4502967601201
 30
0.0
 11
18502.9745094926
 21
-637.4502967601201
 31
0.0
  0
LINE
  5
A9
330
17
100
AcDbEntity
  8
COTA
 62
4
370
25
100
AcDbLine
 10
18609.4745094926
 20
-615.4402007962401
 30
0.0
 11
18628.73270770351
 21
-615.4402007962401
 31
0.0
  0
LINE
  5
AA
330
17
100
AcDbEntity
  8
COTA
 62
4
370
25
100
AcDbLine
 10
18609.4745094926
 20
-617.4402007962545
 30
0.0
 11
18628.73270770351
 21
-617.4402007962545
 31
0.0
  0
LINE
  5
AB
330
17
100
AcDbEntity
  8
COTA
 62
4
370
25
100
AcDbLine
 10
18625.73270770351
 20
-617.4402007962545
 30
0.0
 11
18625.73270770351
 21
-620.4402007962547
 31
0.0
  0
LINE
  5
AC
330
17
100
AcDbEntity
  8
COTA
 62
4
370
25
100
AcDbLine
 10
18625.73270770351
 20
-615.4402007962401
 30
0.0
 11
18625.73270770351
 21
-596.6377493477552
 31
0.0
  0
LINE
  5
AD
330
17
100
AcDbEntity
  8
COTA
 62
4
370
25
100
AcDbLine
 10
18625.73270770351
 20
-617.4402007962545
 30
0.0
 11
18625.73270770351
 21
-615.4402007962401
 31
0.0
  0
LINE
  5
AE
330
17
100
AcDbEntity
  8
COTA
 62
0
370
25
100
AcDbLine
 10
18627.23270770351
 20
-618.9402007962545
 30
0.0
 11
18624.23270770351
 21
-615.9402007962545
 31
0.0
  0
LINE
  5
AF
330
17
100
AcDbEntity
  8
COTA
 62
0
370
25
100
AcDbLine
 10
18624.23270770351
 20
-613.9402007962401
 30
0.0
 11
18627.23270770351
 21
-616.9402007962401
 31
0.0
  0
LINE
  5
B0
330
17
100
AcDbEntity
  8
COTA
 62
4
370
25
100
AcDbLine
 10
18609.47450949261
 20
-371.4402007962537
 30
0.0
 11
18647.31545267479
 21
-371.4402007962537
 31
0.0
  0
LINE
  5
B1
330
17
100
AcDbEntity
  8
COTA
 62
4
370
25
100
AcDbLine
 10
18609.4745094923
 20
-354.4402007962518
 30
0.0
 11
18647.31545267479
 21
-354.4402007962518
 31
0.0
  0
LINE
  5
B2
330
17
100
AcDbEntity
  8
COTA
 62
4
370
25
100
AcDbLine
 10
18644.31545267479
 20
-371.4402007962537
 30
0.0
 11
18644.31545267479
 21
-354.4402007962518
 31
0.0
  0
LINE
  5
B3
330
17
100
AcDbEntity
  8
COTA
 62
0
370
25
100
AcDbLine
 10
18642.81545267479
 20
-369.9402007962537
 30
0.0
 11
18645.81545267479
 21
-372.9402007962537
 31
0.0
  0
LINE
  5
B4
330
17
100
AcDbEntity
  8
COTA
 62
0
370
25
100
AcDbLine
 10
18645.81545267479
 20
-355.9402007962518
 30
0.0
 11
18642.81545267479
 21
-352.9402007962518
 31
0.0
  0
LINE
  5
B5
330
17
100
AcDbEntity
  8
COTA
 62
4
370
25
100
AcDbLine
 10
18609.47450949261
 20
-617.4402007962545
 30
0.0
 11
18647.31545267473
 21
-617.4402007962545
 31
0.0
  0
LINE
  5
B6
330
17
100
AcDbEntity
  8
COTA
 62
4
370
25
100
AcDbLine
 10
18609.47450949261
 20
-493.4402007962546
 30
0.0
 11
18647.31545267473
 21
-493.4402007962546
 31
0.0
  0
LINE
  5
B7
330
17
100
AcDbEntity
  8
COTA
 62
4
370
25
100
AcDbLine
 10
18644.31545267473
 20
-617.4402007962545
 30
0.0
 11
18644.31545267473
 21
-493.4402007962546
 31
0.0
  0
LINE
  5
B8
330
17
100
AcDbEntity
  8
COTA
 62
0
370
25
100
AcDbLine
 10
18642.81545267473
 20
-615.9402007962545
 30
0.0
 11
18645.81545267473
 21
-618.9402007962545
 31
0.0
  0
LINE
  5
B9
330
17
100
AcDbEntity
  8
COTA
 62
0
370
25
100
AcDbLine
 10
18645.81545267473
 20
-494.9402007962546
 30
0.0
 11
18642.81545267473
 21
-491.9402007962546
 31
0.0
  0
LINE
  5
BA
330
17
100
AcDbEntity
  8
COTA
 62
4
370
25
100
AcDbLine
 10
18609.47450949261
 20
-493.4402007962546
 30
0.0
 11
18647.31545267477
 21
-493.4402007962546
 31
0.0
  0
LINE
  5
BB
330
17
100
AcDbEntity
  8
COTA
 62
4
370
25
100
AcDbLine
 10
18609.47450949261
 20
-371.4402007962537
 30
0.0
 11
18647.31545267477
 21
-371.4402007962537
 31
0.0
  0
LINE
  5
BC
330
17
100
AcDbEntity
  8
COTA
 62
4
370
25
100
AcDbLine
 10
18644.31545267477
 20
-493.4402007962546
 30
0.0
 11
18644.31545267477
 21
-371.4402007962537
 31
0.0
  0
LINE
  5
BD
330
17
100
AcDbEntity
  8
COTA
 62
0
370
25
100
AcDbLine
 10
18642.81545267477
 20
-491.9402007962546
 30
0.0
 11
18645.81545267477
 21
-494.9402007962546
 31
0.0
  0
LINE
  5
BE
330
17
100
AcDbEntity
  8
COTA
 62
0
370
25
100
AcDbLine
 10
18645.81545267477
 20
-372.9402007962537
 30
0.0
 11
18642.81545267477
 21
-369.9402007962537
 31
0.0
  0
LINE
  5
BF
330
17
100
AcDbEntity
  8
COTA
 62
4
370
25
100
AcDbLine
 10
18504.47450949288
 20
-287.4402007962544
 30
0.0
 11
18504.47450949288
 21
-262.971702147086
 31
0.0
  0
LINE
  5
C0
330
17
100
AcDbEntity
  8
COTA
 62
4
370
25
100
AcDbLine
 10
18541.97450949251
 20
-303.4402007962344
 30
0.0
 11
18541.97450949251
 21
-262.971702147086
 31
0.0
  0
LINE
  5
C1
330
17
100
AcDbEntity
  8
COTA
 62
4
370
25
100
AcDbLine
 10
18504.47450949288
 20
-265.971702147086
 30
0.0
 11
18541.97450949251
 21
-265.971702147086
 31
0.0
  0
LINE
  5
C2
330
17
100
AcDbEntity
  8
COTA
 62
0
370
25
100
AcDbLine
 10
18505.97450949288
 20
-264.471702147086
 30
0.0
 11
18502.97450949288
 21
-267.471702147086
 31
0.0
  0
LINE
  5
C3
330
17
100
AcDbEntity
  8
COTA
 62
0
370
25
100
AcDbLine
 10
18540.47450949251
 20
-267.471702147086
 30
0.0
 11
18543.47450949251
 21
-264.471702147086
 31
0.0
  0
LINE
  5
C4
330
17
100
AcDbEntity
  8
COTA
 62
4
370
25
100
AcDbLine
 10
18568.97450949287
 20
-287.7059514716601
 30
0.0
 11
18568.97450949287
 21
-262.971702147086
 31
0.0
  0
LINE
  5
C5
330
17
100
AcDbEntity
  8
COTA
 62
4
370
25
100
AcDbLine
 10
18606.47450949288
 20
-287.4402007962544
 30
0.0
 11
18606.47450949288
 21
-262.971702147086
 31
0.0
  0
LINE
  5
C6
330
17
100
AcDbEntity
  8
COTA
 62
4
370
25
100
AcDbLine
 10
18568.97450949287
 20
-265.971702147086
 30
0.0
 11
18606.47450949288
 21
-265.971702147086
 31
0.0
  0
LINE
  5
C7
330
17
100
AcDbEntity
  8
COTA
 62
0
370
25
100
AcDbLine
 10
18570.47450949287
 20
-264.471702147086
 30
0.0
 11
18567.47450949287
 21
-267.471702147086
 31
0.0
  0
LINE
  5
C8
330
17
100
AcDbEntity
  8
COTA
 62
0
370
25
100
AcDbLine
 10
18604.97450949288
 20
-267.471702147086
 30
0.0
 11
18607.97450949288
 21
-264.471702147086
 31
0.0
  0
LINE
  5
C9
330
17
100
AcDbEntity
  8
COTA
 62
4
370
25
100
AcDbLine
 10
18609.47450949285
 20
-321.4402007962545
 30
0.0
 11
18647.31545267484
 21
-321.4402007962545
 31
0.0
  0
LINE
  5
CA
330
17
100
AcDbEntity
  8
COTA
 62
4
370
25
100
AcDbLine
 10
18609.47450949258
 20
-354.4402007962927
 30
0.0
 11
18647.31545267484
 21
-354.4402007962927
 31
0.0
  0
LINE
  5
CB
330
17
100
AcDbEntity
  8
COTA
 62
4
370
25
100
AcDbLine
 10
18644.31545267484
 20
-321.4402007962545
 30
0.0
 11
18644.31545267484
 21
-354.4402007962927
 31
0.0
  0
LINE
  5
CC
330
17
100
AcDbEntity
  8
COTA
 62
0
370
25
100
AcDbLine
 10
18645.81545267484
 20
-322.9402007962545
 30
0.0
 11
18642.81545267484
 21
-319.9402007962545
 31
0.0
  0
LINE
  5
CD
330
17
100
AcDbEntity
  8
COTA
 62
0
370
25
100
AcDbLine
 10
18642.81545267484
 20
-352.9402007962927
 30
0.0
 11
18645.81545267484
 21
-355.9402007962927
 31
0.0
  0
LINE
  5
CE
330
17
100
AcDbEntity
  8
COTA
 62
4
370
25
100
AcDbLine
 10
18609.47450949289
 20
-290.4402007962545
 30
0.0
 11
18647.31545267484
 21
-290.4402007962545
 31
0.0
  0
LINE
  5
CF
330
17
100
AcDbEntity
  8
COTA
 62
4
370
25
100
AcDbLine
 10
18609.47450949285
 20
-305.4402007962545
 30
0.0
 11
18647.31545267484
 21
-305.4402007962545
 31
0.0
  0
LINE
  5
D0
330
17
100
AcDbEntity
  8
COTA
 62
4
370
25
100
AcDbLine
 10
18644.31545267484
 20
-290.4402007962545
 30
0.0
 11
18644.31545267484
 21
-305.4402007962545
 31
0.0
  0
LINE
  5
D1
330
17
100
AcDbEntity
  8
COTA
 62
0
370
25
100
AcDbLine
 10
18645.81545267484
 20
-291.9402007962545
 30
0.0
 11
18642.81545267484
 21
-288.9402007962545
 31
0.0
  0
LINE
  5
D2
330
17
100
AcDbEntity
  8
COTA
 62
0
370
25
100
AcDbLine
 10
18642.81545267484
 20
-303.9402007962545
 30
0.0
 11
18645.81545267484
 21
-306.9402007962545
 31
0.0
  0
LINE
  5
D3
330
17
100
AcDbEntity
  8
COTA
 62
4
370
25
100
AcDbLine
 10
18609.47450949285
 20
-305.4402007962545
 30
0.0
 11
18647.31545267483
 21
-305.4402007962545
 31
0.0
  0
LINE
  5
D4
330
17
100
AcDbEntity
  8
COTA
 62
4
370
25
100
AcDbLine
 10
18609.47450949288
 20
-321.4402007962545
 30
0.0
 11
18647.31545267483
 21
-321.4402007962545
 31
0.0
  0
LINE
  5
D5
330
17
100
AcDbEntity
  8
COTA
 62
4
370
25
100
AcDbLine
 10
18644.31545267483
 20
-305.4402007962545
 30
0.0
 11
18644.31545267483
 21
-321.4402007962545
 31
0.0
  0
LINE
  5
D6
330
17
100
AcDbEntity
  8
COTA
 62
0
370
25
100
AcDbLine
 10
18645.81545267483
 20
-306.9402007962545
 30
0.0
 11
18642.81545267483
 21
-303.9402007962545
 31
0.0
  0
LINE
  5
D7
330
17
100
AcDbEntity
  8
COTA
 62
0
370
25
100
AcDbLine
 10
18642.81545267483
 20
-319.9402007962545
 30
0.0
 11
18645.81545267483
 21
-322.9402007962545
 31
0.0
  0
LINE
  5
D8
330
17
100
AcDbEntity
  8
COTA
 62
4
370
25
100
AcDbLine
 10
18764.22173055612
 20
-618.4402007962544
 30
0.0
 11
18764.22173055612
 21
-650.3344124424239
 31
0.0
  0
LINE
  5
D9
330
17
100
AcDbEntity
  8
COTA
 62
4
370
25
100
AcDbLine
 10
18782.72173055612
 20
-618.4402007962544
 30
0.0
 11
18782.72173055612
 21
-650.3344124424239
 31
0.0
  0
LINE
  5
DA
330
17
100
AcDbEntity
  8
COTA
 62
4
370
25
100
AcDbLine
 10
18764.22173055612
 20
-647.3344124424239
 30
0.0
 11
18782.72173055612
 21
-647.3344124424239
 31
0.0
  0
LINE
  5
DB
330
17
100
AcDbEntity
  8
COTA
 62
4
370
25
100
AcDbLine
 10
18782.72173055612
 20
-647.3344124424239
 30
0.0
 11
18814.06091184267
 21
-647.3344124424239
 31
0.0
  0
LINE
  5
DC
330
17
100
AcDbEntity
  8
COTA
 62
0
370
25
100
AcDbLine
 10
18765.72173055612
 20
-645.8344124424239
 30
0.0
 11
18762.72173055612
 21
-648.8344124424239
 31
0.0
  0
LINE
  5
DD
330
17
100
AcDbEntity
  8
COTA
 62
0
370
25
100
AcDbLine
 10
18781.22173055612
 20
-648.8344124424239
 30
0.0
 11
18784.22173055612
 21
-645.8344124424239
 31
0.0
  0
LINE
  5
DE
330
17
100
AcDbEntity
  8
COTA
 62
4
370
25
100
AcDbLine
 10
18785.72173055618
 20
-617.4402007962838
 30
0.0
 11
18804.62914822438
 21
-617.4402007962838
 31
0.0
  0
LINE
  5
DF
330
17
100
AcDbEntity
  8
COTA
 62
4
370
25
100
AcDbLine
 10
18785.72173055612
 20
-615.4402007962836
 30
0.0
 11
18804.62914822438
 21
-615.4402007962836
 31
0.0
  0
LINE
  5
E0
330
17
100
AcDbEntity
  8
COTA
 62
4
370
25
100
AcDbLine
 10
18801.62914822438
 20
-617.4402007962838
 30
0.0
 11
18801.62914822438
 21
-620.4402007962836
 31
0.0
  0
LINE
  5
E1
330
17
100
AcDbEntity
  8
COTA
 62
4
370
25
100
AcDbLine
 10
18801.62914822438
 20
-615.4402007962836
 30
0.0
 11
18801.62914822438
 21
-612.4402007962836
 31
0.0
  0
LINE
  5
E2
330
17
100
AcDbEntity
  8
COTA
 62
4
370
25
100
AcDbLine
 10
18801.62914822438
 20
-617.4402007962838
 30
0.0
 11
18801.62914822438
 21
-615.4402007962836
 31
0.0
  0
LINE
  5
E3
330
17
100
AcDbEntity
  8
COTA
 62
0
370
25
100
AcDbLine
 10
18803.12914822438
 20
-618.9402007962838
 30
0.0
 11
18800.12914822438
 21
-615.9402007962838
 31
0.0
  0
LINE
  5
E4
330
17
100
AcDbEntity
  8
COTA
 62
0
370
25
100
AcDbLine
 10
18800.12914822438
 20
-613.9402007962836
 30
0.0
 11
18803.12914822438
 21
-616.9402007962836
 31
0.0
  0
LINE
  5
E5
330
17
100
AcDbEntity
  8
COTA
 62
4
370
25
100
AcDbLine
 10
18785.72173055612
 20
-321.44020079626
 30
0.0
 11
18808.17748428216
 21
-321.44020079626
 31
0.0
  0
LINE
  5
E6
330
17
100
AcDbEntity
  8
COTA
 62
4
370
25
100
AcDbLine
 10
18785.72173055612
 20
-305.4402007962545
 30
0.0
 11
18808.17748428216
 21
-305.4402007962545
 31
0.0
  0
LINE
  5
E7
330
17
100
AcDbEntity
  8
COTA
 62
4
370
25
100
AcDbLine
 10
18805.17748428216
 20
-321.44020079626
 30
0.0
 11
18805.17748428216
 21
-305.4402007962545
 31
0.0
  0
LINE
  5
E8
330
17
100
AcDbEntity
  8
COTA
 62
0
370
25
100
AcDbLine
 10
18803.67748428216
 20
-319.94020079626
 30
0.0
 11
18806.67748428216
 21
-322.94020079626
 31
0.0
  0
LINE
  5
E9
330
17
100
AcDbEntity
  8
COTA
 62
0
370
25
100
AcDbLine
 10
18806.67748428216
 20
-306.9402007962545
 30
0.0
 11
18803.67748428216
 21
-303.9402007962545
 31
0.0
  0
LINE
  5
EA
330
17
100
AcDbEntity
  8
COTA
 62
4
370
25
100
AcDbLine
 10
18785.72173055612
 20
-321.4402007962564
 30
0.0
 11
18808.17748428217
 21
-321.4402007962564
 31
0.0
  0
LINE
  5
EB
330
17
100
AcDbEntity
  8
COTA
 62
4
370
25
100
AcDbLine
 10
18785.72173055612
 20
-371.4402007962491
 30
0.0
 11
18808.17748428217
 21
-371.4402007962491
 31
0.0
  0
LINE
  5
EC
330
17
100
AcDbEntity
  8
COTA
 62
4
370
25
100
AcDbLine
 10
18805.17748428217
 20
-321.4402007962564
 30
0.0
 11
18805.17748428217
 21
-371.4402007962491
 31
0.0
  0
LINE
  5
ED
330
17
100
AcDbEntity
  8
COTA
 62
0
370
25
100
AcDbLine
 10
18806.67748428217
 20
-322.9402007962564
 30
0.0
 11
18803.67748428217
 21
-319.9402007962564
 31
0.0
  0
LINE
  5
EE
330
17
100
AcDbEntity
  8
COTA
 62
0
370
25
100
AcDbLine
 10
18803.67748428217
 20
-369.9402007962491
 30
0.0
 11
18806.67748428217
 21
-372.9402007962491
 31
0.0
  0
LINE
  5
EF
330
17
100
AcDbEntity
  8
COTA
 62
4
370
25
100
AcDbLine
 10
18785.72173055612
 20
-371.4402007962491
 30
0.0
 11
18808.17748428218
 21
-371.4402007962491
 31
0.0
  0
LINE
  5
F0
330
17
100
AcDbEntity
  8
COTA
 62
4
370
25
100
AcDbLine
 10
18785.72173055612
 20
-617.4402007962545
 30
0.0
 11
18808.17748428218
 21
-617.4402007962545
 31
0.0
  0
LINE
  5
F1
330
17
100
AcDbEntity
  8
COTA
 62
4
370
25
100
AcDbLine
 10
18805.17748428218
 20
-371.4402007962491
 30
0.0
 11
18805.17748428218
 21
-617.4402007962545
 31
0.0
  0
LINE
  5
F2
330
17
100
AcDbEntity
  8
COTA
 62
0
370
25
100
AcDbLine
 10
18806.67748428218
 20
-372.9402007962491
 30
0.0
 11
18803.67748428218
 21
-369.9402007962491
 31
0.0
  0
LINE
  5
F3
330
17
100
AcDbEntity
  8
COTA
 62
0
370
25
100
AcDbLine
 10
18803.67748428218
 20
-615.9402007962545
 30
0.0
 11
18806.67748428218
 21
-618.9402007962545
 31
0.0
  0
LINE
  5
F4
330
17
100
AcDbEntity
  8
COTA
 62
4
370
25
100
AcDbLine
 10
18902.62785628434
 20
-618.4402007962526
 30
0.0
 11
18902.62785628434
 21
-650.334412442422
 31
0.0
  0
LINE
  5
F5
330
17
100
AcDbEntity
  8
COTA
 62
4
370
25
100
AcDbLine
 10
18921.12785628433
 20
-618.4402007962526
 30
0.0
 11
18921.12785628433
 21
-650.334412442422
 31
0.0
  0
LINE
  5
F6
330
17
100
AcDbEntity
  8
COTA
 62
4
370
25
100
AcDbLine
 10
18902.62785628434
 20
-647.334412442422
 30
0.0
 11
18921.12785628433
 21
-647.334412442422
 31
0.0
  0
LINE
  5
F7
330
17
100
AcDbEntity
  8
COTA
 62
4
370
25
100
AcDbLine
 10
18921.12785628433
 20
-647.334412442422
 30
0.0
 11
18952.46703757088
 21
-647.334412442422
 31
0.0
  0
LINE
  5
F8
330
17
100
AcDbEntity
  8
COTA
 62
0
370
25
100
AcDbLine
 10
18904.12785628434
 20
-645.834412442422
 30
0.0
 11
18901.12785628434
 21
-648.834412442422
 31
0.0
  0
LINE
  5
F9
330
17
100
AcDbEntity
  8
COTA
 62
0
370
25
100
AcDbLine
 10
18919.62785628433
 20
-648.834412442422
 30
0.0
 11
18922.62785628433
 21
-645.834412442422
 31
0.0
  0
LINE
  5
FA
330
17
100
AcDbEntity
  8
COTA
 62
4
370
25
100
AcDbLine
 10
18924.1278562844
 20
-617.4402007962819
 30
0.0
 11
18943.0352739526
 21
-617.4402007962819
 31
0.0
  0
LINE
  5
FB
330
17
100
AcDbEntity
  8
COTA
 62
4
370
25
100
AcDbLine
 10
18924.12785628434
 20
-615.4402007962819
 30
0.0
 11
18943.0352739526
 21
-615.4402007962819
 31
0.0
  0
LINE
  5
FC
330
17
100
AcDbEntity
  8
COTA
 62
4
370
25
100
AcDbLine
 10
18940.0352739526
 20
-617.4402007962819
 30
0.0
 11
18940.0352739526
 21
-620.4402007962819
 31
0.0
  0
LINE
  5
FD
330
17
100
AcDbEntity
  8
COTA
 62
4
370
25
100
AcDbLine
 10
18940.0352739526
 20
-615.4402007962819
 30
0.0
 11
18940.0352739526
 21
-612.4402007962819
 31
0.0
  0
LINE
  5
FE
330
17
100
AcDbEntity
  8
COTA
 62
4
370
25
100
AcDbLine
 10
18940.0352739526
 20
-617.4402007962819
 30
0.0
 11
18940.0352739526
 21
-615.4402007962819
 31
0.0
  0
LINE
  5
FF
330
17
100
AcDbEntity
  8
COTA
 62
0
370
25
100
AcDbLine
 10
18941.5352739526
 20
-618.9402007962819
 30
0.0
 11
18938.5352739526
 21
-615.9402007962819
 31
0.0
  0
LINE
  5
100
330
17
100
AcDbEntity
  8
COTA
 62
0
370
25
100
AcDbLine
 10
18938.5352739526
 20
-613.9402007962819
 30
0.0
 11
18941.5352739526
 21
-616.9402007962819
 31
0.0
  0
LINE
  5
101
330
17
100
AcDbEntity
  8
COTA
 62
4
370
25
100
AcDbLine
 10
18924.12785628434
 20
-306.4402007962582
 30
0.0
 11
18946.5836100104
 21
-306.4402007962582
 31
0.0
  0
LINE
  5
102
330
17
100
AcDbEntity
  8
COTA
 62
4
370
25
100
AcDbLine
 10
18924.12785628434
 20
-290.4402007962527
 30
0.0
 11
18946.5836100104
 21
-290.4402007962527
 31
0.0
  0
LINE
  5
103
330
17
100
AcDbEntity
  8
COTA
 62
4
370
25
100
AcDbLine
 10
18943.5836100104
 20
-306.4402007962582
 30
0.0
 11
18943.5836100104
 21
-290.4402007962527
 31
0.0
  0
LINE
  5
104
330
17
100
AcDbEntity
  8
COTA
 62
0
370
25
100
AcDbLine
 10
18942.0836100104
 20
-304.9402007962582
 30
0.0
 11
18945.0836100104
 21
-307.9402007962582
 31
0.0
  0
LINE
  5
105
330
17
100
AcDbEntity
  8
COTA
 62
0
370
25
100
AcDbLine
 10
18945.0836100104
 20
-291.9402007962527
 30
0.0
 11
18942.0836100104
 21
-288.9402007962527
 31
0.0
  0
LINE
  5
106
330
17
100
AcDbEntity
  8
COTA
 62
4
370
25
100
AcDbLine
 10
18924.12785628434
 20
-306.4402007962546
 30
0.0
 11
18946.5836100104
 21
-306.4402007962546
 31
0.0
  0
LINE
  5
107
330
17
100
AcDbEntity
  8
COTA
 62
4
370
25
100
AcDbLine
 10
18924.12785628434
 20
-371.4402007962473
 30
0.0
 11
18946.5836100104
 21
-371.4402007962473
 31
0.0
  0
LINE
  5
108
330
17
100
AcDbEntity
  8
COTA
 62
4
370
25
100
AcDbLine
 10
18943.5836100104
 20
-306.4402007962546
 30
0.0
 11
18943.5836100104
 21
-371.4402007962473
 31
0.0
  0
LINE
  5
109
330
17
100
AcDbEntity
  8
COTA
 62
0
370
25
100
AcDbLine
 10
18945.0836100104
 20
-307.9402007962546
 30
0.0
 11
18942.0836100104
 21
-304.9402007962546
 31
0.0
  0
LINE
  5
10A
330
17
100
AcDbEntity
  8
COTA
 62
0
370
25
100
AcDbLine
 10
18942.0836100104
 20
-369.9402007962473
 30
0.0
 11
18945.0836100104
 21
-372.9402007962473
 31
0.0
  0
LINE
  5
10B
330
17
100
AcDbEntity
  8
COTA
 62
4
370
25
100
AcDbLine
 10
18924.12785628434
 20
-371.4402007962473
 30
0.0
 11
18946.58361001042
 21
-371.4402007962473
 31
0.0
  0
LINE
  5
10C
330
17
100
AcDbEntity
  8
COTA
 62
4
370
25
100
AcDbLine
 10
18924.12785628434
 20
-617.4402007962528
 30
0.0
 11
18946.58361001042
 21
-617.4402007962528
 31
0.0
  0
LINE
  5
10D
330
17
100
AcDbEntity
  8
COTA
 62
4
370
25
100
AcDbLine
 10
18943.58361001041
 20
-371.4402007962473
 30
0.0
 11
18943.58361001041
 21
-617.4402007962528
 31
0.0
  0
LINE
  5
10E
330
17
100
AcDbEntity
  8
COTA
 62
0
370
25
100
AcDbLine
 10
18945.08361001041
 20
-372.9402007962473
 30
0.0
 11
18942.08361001041
 21
-369.9402007962473
 31
0.0
  0
LINE
  5
10F
330
17
100
AcDbEntity
  8
COTA
 62
0
370
25
100
AcDbLine
 10
18942.08361001041
 20
-615.9402007962528
 30
0.0
 11
18945.08361001041
 21
-618.9402007962528
 31
0.0
  0
LINE
  5
110
330
17
100
AcDbEntity
  8
COTA
 62
241
370
25
100
AcDbLine
 10
17985.19981075265
 20
-157.7770375477921
 30
0.0
 11
17985.19981075265
 21
-97.21565776029087
 31
0.0
  0
LINE
  5
111
330
17
100
AcDbEntity
  8
COTA
 62
241
370
25
100
AcDbLine
 10
17781.1998107973
 20
-157.7770375477921
 30
0.0
 11
17781.1998107973
 21
-97.21565776029087
 31
0.0
  0
LINE
  5
112
330
17
100
AcDbEntity
  8
COTA
 62
241
370
25
100
AcDbLine
 10
17985.19981075265
 20
-100.2156577602908
 30
0.0
 11
17781.1998107973
 21
-100.2156577602908
 31
0.0
  0
LINE
  5
113
330
17
100
AcDbEntity
  8
COTA
 62
0
370
25
100
AcDbLine
 10
17983.69981075265
 20
-101.7156577602908
 30
0.0
 11
17986.69981075265
 21
-98.7156577602908
 31
0.0
  0
LINE
  5
114
330
17
100
AcDbEntity
  8
COTA
 62
0
370
25
100
AcDbLine
 10
17782.6998107973
 20
-98.7156577602908
 30
0.0
 11
17779.6998107973
 21
-101.7156577602908
 31
0.0
  0
LINE
  5
115
330
17
100
AcDbEntity
  8
COTA
 62
241
370
25
100
AcDbLine
 10
17781.22217161712
 20
-157.7654252419087
 30
0.0
 11
17781.22217161712
 21
-122.1484122181027
 31
0.0
  0
LINE
  5
116
330
17
100
AcDbEntity
  8
COTA
 62
241
370
25
100
AcDbLine
 10
17827.21522421224
 20
-157.7654252419087
 30
0.0
 11
17827.21522421224
 21
-122.1484122181027
 31
0.0
  0
LINE
  5
117
330
17
100
AcDbEntity
  8
COTA
 62
241
370
25
100
AcDbLine
 10
17781.22217161712
 20
-125.1484122181027
 30
0.0
 11
17827.21522421224
 21
-125.1484122181027
 31
0.0
  0
LINE
  5
118
330
17
100
AcDbEntity
  8
COTA
 62
0
370
25
100
AcDbLine
 10
17782.72217161712
 20
-123.6484122181027
 30
0.0
 11
17779.72217161712
 21
-126.6484122181027
 31
0.0
  0
LINE
  5
119
330
17
100
AcDbEntity
  8
COTA
 62
0
370
25
100
AcDbLine
 10
17825.71522421224
 20
-126.6484122181027
 30
0.0
 11
17828.71522421224
 21
-123.6484122181027
 31
0.0
  0
LINE
  5
11A
330
17
100
AcDbEntity
  8
COTA
 62
241
370
25
100
AcDbLine
 10
17827.21522420033
 20
-157.765425241916
 30
0.0
 11
17827.21522420033
 21
-122.1484122185538
 31
0.0
  0
LINE
  5
11B
330
17
100
AcDbEntity
  8
COTA
 62
241
370
25
100
AcDbLine
 10
17873.21867717521
 20
-157.7654252419087
 30
0.0
 11
17873.21867717521
 21
-122.1484122185538
 31
0.0
  0
LINE
  5
11C
330
17
100
AcDbEntity
  8
COTA
 62
241
370
25
100
AcDbLine
 10
17827.21522420033
 20
-125.1484122185538
 30
0.0
 11
17873.21867717521
 21
-125.1484122185538
 31
0.0
  0
LINE
  5
11D
330
17
100
AcDbEntity
  8
COTA
 62
0
370
25
100
AcDbLine
 10
17828.71522420033
 20
-123.6484122185538
 30
0.0
 11
17825.71522420033
 21
-126.6484122185538
 31
0.0
  0
LINE
  5
11E
330
17
100
AcDbEntity
  8
COTA
 62
0
370
25
100
AcDbLine
 10
17871.71867717521
 20
-126.6484122185538
 30
0.0
 11
17874.71867717521
 21
-123.6484122185538
 31
0.0
  0
LINE
  5
11F
330
17
100
AcDbEntity
  8
COTA
 62
241
370
25
100
AcDbLine
 10
17873.21867717521
 20
-157.7654252419087
 30
0.0
 11
17873.21867717521
 21
-122.148412218772
 31
0.0
  0
LINE
  5
120
330
17
100
AcDbEntity
  8
COTA
 62
241
370
25
100
AcDbLine
 10
17929.21514897634
 20
-157.7654253062573
 30
0.0
 11
17929.21514897634
 21
-122.148412218772
 31
0.0
  0
LINE
  5
121
330
17
100
AcDbEntity
  8
COTA
 62
241
370
25
100
AcDbLine
 10
17873.21867717521
 20
-125.148412218772
 30
0.0
 11
17929.21514897634
 21
-125.148412218772
 31
0.0
  0
LINE
  5
122
330
17
100
AcDbEntity
  8
COTA
 62
0
370
25
100
AcDbLine
 10
17874.71867717521
 20
-123.648412218772
 30
0.0
 11
17871.71867717521
 21
-126.648412218772
 31
0.0
  0
LINE
  5
123
330
17
100
AcDbEntity
  8
COTA
 62
0
370
25
100
AcDbLine
 10
17927.71514897634
 20
-126.648412218772
 30
0.0
 11
17930.71514897634
 21
-123.648412218772
 31
0.0
  0
LINE
  5
124
330
17
100
AcDbEntity
  8
COTA
 62
241
370
25
100
AcDbLine
 10
17929.21514897634
 20
-157.7654253062573
 30
0.0
 11
17929.21514897634
 21
-122.1484122186556
 31
0.0
  0
LINE
  5
125
330
17
100
AcDbEntity
  8
COTA
 62
241
370
25
100
AcDbLine
 10
17985.21518273326
 20
-157.7654252419378
 30
0.0
 11
17985.21518273326
 21
-122.1484122186556
 31
0.0
  0
LINE
  5
126
330
17
100
AcDbEntity
  8
COTA
 62
241
370
25
100
AcDbLine
 10
17929.21514897634
 20
-125.1484122186556
 30
0.0
 11
17985.21518273326
 21
-125.1484122186556
 31
0.0
  0
LINE
  5
127
330
17
100
AcDbEntity
  8
COTA
 62
0
370
25
100
AcDbLine
 10
17930.71514897634
 20
-123.6484122186556
 30
0.0
 11
17927.71514897634
 21
-126.6484122186556
 31
0.0
  0
LINE
  5
128
330
17
100
AcDbEntity
  8
COTA
 62
0
370
25
100
AcDbLine
 10
17983.71518273326
 20
-126.6484122186556
 30
0.0
 11
17986.71518273326
 21
-123.6484122186556
 31
0.0
  0
LINE
  5
129
330
17
100
AcDbEntity
  8
COTA
 62
4
370
25
100
AcDbLine
 10
18501.47450949247
 20
-306.4402007962546
 30
0.0
 11
18486.77464687551
 21
-306.4402007962546
 31
0.0
  0
LINE
  5
12A
330
17
100
AcDbEntity
  8
COTA
 62
4
370
25
100
AcDbLine
 10
18501.47450949247
 20
-371.4402007962537
 30
0.0
 11
18486.77464687551
 21
-371.4402007962537
 31
0.0
  0
LINE
  5
12B
330
17
100
AcDbEntity
  8
COTA
 62
4
370
25
100
AcDbLine
 10
18489.77464687551
 20
-306.4402007962546
 30
0.0
 11
18489.77464687551
 21
-371.4402007962537
 31
0.0
  0
LINE
  5
12C
330
17
100
AcDbEntity
  8
COTA
 62
0
370
25
100
AcDbLine
 10
18491.27464687551
 20
-307.9402007962546
 30
0.0
 11
18488.27464687551
 21
-304.9402007962546
 31
0.0
  0
LINE
  5
12D
330
17
100
AcDbEntity
  8
COTA
 62
0
370
25
100
AcDbLine
 10
18488.27464687551
 20
-369.9402007962537
 30
0.0
 11
18491.27464687551
 21
-372.9402007962537
 31
0.0
  0
LINE
  5
12E
330
17
100
AcDbEntity
  8
COTA
 62
4
370
25
100
AcDbLine
 10
18538.97450949252
 20
-306.4402007962345
 30
0.0
 11
18525.33409600302
 21
-306.4402007962345
 31
0.0
  0
LINE
  5
12F
330
17
100
AcDbEntity
  8
COTA
 62
4
370
25
100
AcDbLine
 10
18531.97450949255
 20
-354.4402007962311
 30
0.0
 11
18525.33409600302
 21
-354.4402007962311
 31
0.0
  0
LINE
  5
130
330
17
100
AcDbEntity
  8
COTA
 62
4
370
25
100
AcDbLine
 10
18528.33409600302
 20
-306.4402007962345
 30
0.0
 11
18528.33409600302
 21
-354.4402007962311
 31
0.0
  0
LINE
  5
131
330
17
100
AcDbEntity
  8
COTA
 62
0
370
25
100
AcDbLine
 10
18529.83409600302
 20
-307.9402007962345
 30
0.0
 11
18526.83409600302
 21
-304.9402007962345
 31
0.0
  0
LINE
  5
132
330
17
100
AcDbEntity
  8
COTA
 62
0
370
25
100
AcDbLine
 10
18526.83409600302
 20
-352.9402007962311
 30
0.0
 11
18529.83409600302
 21
-355.9402007962311
 31
0.0
  0
LINE
  5
133
330
17
100
AcDbEntity
  8
COTA
 62
4
370
25
100
AcDbLine
 10
18785.72173055612
 20
-290.4402007962545
 30
0.0
 11
18808.17748428215
 21
-290.4402007962545
 31
0.0
  0
LINE
  5
134
330
17
100
AcDbEntity
  8
COTA
 62
4
370
25
100
AcDbLine
 10
18785.72173055608
 20
-305.4402007962545
 30
0.0
 11
18808.17748428215
 21
-305.4402007962545
 31
0.0
  0
LINE
  5
135
330
17
100
AcDbEntity
  8
COTA
 62
4
370
25
100
AcDbLine
 10
18805.17748428216
 20
-290.4402007962545
 30
0.0
 11
18805.17748428216
 21
-305.4402007962545
 31
0.0
  0
LINE
  5
136
330
17
100
AcDbEntity
  8
COTA
 62
0
370
25
100
AcDbLine
 10
18806.67748428216
 20
-291.9402007962545
 30
0.0
 11
18803.67748428216
 21
-288.9402007962545
 31
0.0
  0
LINE
  5
137
330
17
100
AcDbEntity
  8
COTA
 62
0
370
25
100
AcDbLine
 10
18803.67748428216
 20
-303.9402007962545
 30
0.0
 11
18806.67748428216
 21
-306.9402007962545
 31
0.0
  0
LINE
  5
138
330
17
100
AcDbEntity
  8
Texto Seção
 62
252
370
15
100
AcDbLine
 10
17880.19981077498
 20
-71.7233354761047
 30
0.0
 11
17880.19981077498
 21
53.276664523895306
 31
0.0
  0
LINE
  5
139
330
17
100
AcDbEntity
  8
Madeira
 62
126
370
18
100
AcDbLine
 10
17971.21519117192
 20
-160.761674057001
 30
0.0
 11
17982.715639217637
 21
-174.77430997939203
 31
0.0
  0
LINE
  5
13A
330
17
100
AcDbEntity
  8
Madeira
 62
126
370
18
100
AcDbLine
 10
17971.21519117192
 20
-160.761674057001
 30
0.0
 11
17974.68368410718
 21
-174.76549089881055
 31
0.0
  0
LINE
  5
13B
330
17
100
AcDbEntity
  8
Madeira
 62
126
370
18
100
AcDbLine
 10
17971.21519117192
 20
-160.761674057001
 30
0.0
 11
17985.209223594393
 21
-166.20431603657536
 31
0.0
  0
LINE
  5
13C
330
17
100
AcDbEntity
  8
Madeira
 62
126
370
18
100
AcDbLine
 10
17795.22216317789
 20
-160.7807972469963
 30
0.0
 11
17783.690971172073
 21
-174.768144446188
 31
0.0
  0
LINE
  5
13D
330
17
100
AcDbEntity
  8
Madeira
 62
126
370
18
100
AcDbLine
 10
17795.22216317789
 20
-160.7807972469963
 30
0.0
 11
17791.722926282528
 21
-174.77696352676944
 31
0.0
  0
LINE
  5
13E
330
17
100
AcDbEntity
  8
Madeira
 62
126
370
18
100
AcDbLine
 10
17795.22216317789
 20
-160.7807972469963
 30
0.0
 11
17781.21621247878
 21
-166.19269526647213
 31
0.0
  0
LINE
  5
13F
330
17
100
AcDbEntity
  8
Madeira
 62
126
370
18
100
AcDbLine
 10
17830.71528068424
 20
-160.7692683012646
 30
0.0
 11
17823.70896273018
 21
-166.51949231826666
 31
0.0
  0
LINE
  5
140
330
17
100
AcDbEntity
  8
Madeira
 62
126
370
18
100
AcDbLine
 10
17830.71528068424
 20
-160.7692683012646
 30
0.0
 11
17823.713372270468
 21
-162.50351476713047
 31
0.0
  0
LINE
  5
141
330
17
100
AcDbEntity
  8
Madeira
 62
126
370
18
100
AcDbLine
 10
17830.71528068424
 20
-160.7692683012646
 30
0.0
 11
17825.27263871021
 21
-174.76330070948364
 31
0.0
  0
LINE
  5
142
330
17
100
AcDbEntity
  8
Madeira
 62
126
370
18
100
AcDbLine
 10
17876.71524752357
 20
-160.7692683012646
 30
0.0
 11
17869.70892956951
 21
-166.51949231826666
 31
0.0
  0
LINE
  5
143
330
17
100
AcDbEntity
  8
Madeira
 62
126
370
18
100
AcDbLine
 10
17876.71524752357
 20
-160.7692683012646
 30
0.0
 11
17869.7133391098
 21
-162.50351476713047
 31
0.0
  0
LINE
  5
144
330
17
100
AcDbEntity
  8
Madeira
 62
126
370
18
100
AcDbLine
 10
17876.71524752357
 20
-160.7692683012646
 30
0.0
 11
17871.27260554954
 21
-174.76330070948364
 31
0.0
  0
LINE
  5
145
330
17
100
AcDbEntity
  8
Madeira
 62
126
370
18
100
AcDbLine
 10
17932.71524752357
 20
-160.7692683012646
 30
0.0
 11
17925.70892956951
 21
-166.51949231826666
 31
0.0
  0
LINE
  5
146
330
17
100
AcDbEntity
  8
Madeira
 62
126
370
18
100
AcDbLine
 10
17932.71524752357
 20
-160.7692683012646
 30
0.0
 11
17925.7133391098
 21
-162.50351476713047
 31
0.0
  0
LINE
  5
147
330
17
100
AcDbEntity
  8
Madeira
 62
126
370
18
100
AcDbLine
 10
17932.71524752357
 20
-160.7692683012646
 30
0.0
 11
17927.27260554954
 21
-174.76330070948364
 31
0.0
  0
LWPOLYLINE
  5
148
330
17
100
AcDbEntity
  8
SARRAFO
 62
251
370
25
100
AcDbPolyline
 90
4
 70
1
 10
17781.19981079684
 20
-183.1770375369215
 10
17795.19981078269
 20
-183.177037536805
 10
17795.19981078269
 20
-178.7770375424861
 10
17781.19981079684
 20
-178.7770375424861
  0
LWPOLYLINE
  5
149
330
17
100
AcDbEntity
  8
SARRAFO
 62
251
370
25
100
AcDbPolyline
 90
4
 70
1
 10
17985.19981075266
 20
-183.1770375369215
 10
17971.1998107668
 20
-183.177037536805
 10
17971.1998107668
 20
-178.7770375424861
 10
17985.19981075266
 20
-178.7770375424861
  0
LWPOLYLINE
  5
14A
330
17
100
AcDbEntity
  8
Perfil Metálico
 62
224
370
18
100
AcDbPolyline
 90
4
 70
1
 10
18021.19981072085
 20
-156.7770375114614
 10
18021.19981072085
 20
-144.7770375244999
 10
17745.19981082908
 20
-144.7770375244999
 10
17745.19981082908
 20
-156.7770375114614
  0
LWPOLYLINE
  5
14B
330
17
100
AcDbEntity
  8
Perfil Metálico
 62
224
370
18
100
AcDbPolyline
 90
4
 70
1
 10
17745.19981082908
 20
-140.7770375288073
 10
17745.19981082908
 20
-160.7770375072123
 10
18021.19981072085
 20
-160.7770375072123
 10
18021.19981072085
 20
-140.7770375288073
  0
LWPOLYLINE
  5
14C
330
17
100
AcDbEntity
  8
CHAPA
 62
1
370
25
100
AcDbPolyline
 90
4
 70
1
 10
17781.1998107973
 20
-178.7770375978416
 10
17781.1998107973
 20
-174.7770375978416
 10
17985.19981075266
 20
-174.7770375978416
 10
17985.19981075266
 20
-178.7770375978416
  0
LWPOLYLINE
  5
14D
330
17
100
AcDbEntity
  8
CHAPA
 62
1
370
25
100
AcDbPolyline
 90
4
 70
1
 10
17966.79981077711
 20
-178.7770375978416
 10
17963.19981077711
 20
-178.7770375978416
 10
17963.19981077711
 20
-215.7770374372467
 10
17966.79981077711
 20
-215.7770374372467
  0
LWPOLYLINE
  5
14E
330
17
100
AcDbEntity
  8
CHAPA
 62
1
370
25
100
AcDbPolyline
 90
4
 70
1
 10
17803.19981077711
 20
-178.7770375977834
 10
17799.5998107771
 20
-178.7770375977834
 10
17799.5998107771
 20
-215.7770374371885
 10
17803.19981077711
 20
-215.7770374371885
  0
LWPOLYLINE
  5
14F
330
17
100
AcDbEntity
  8
CHAPA
 62
1
370
25
100
AcDbPolyline
 90
4
 70
1
 10
17781.1998107973
 20
-178.7770375978416
 10
17781.1998107973
 20
-174.7770375978416
 10
17985.19981075266
 20
-174.7770375978416
 10
17985.19981075266
 20
-178.7770375978416
  0
LWPOLYLINE
  5
150
330
17
100
AcDbEntity
  8
CHAPA
 62
1
370
25
100
AcDbPolyline
 90
4
 70
1
 10
17966.79981077711
 20
-178.7770375978416
 10
17963.19981077711
 20
-178.7770375978416
 10
17963.19981077711
 20
-215.7770374372467
 10
17966.79981077711
 20
-215.7770374372467
  0
LWPOLYLINE
  5
151
330
17
100
AcDbEntity
  8
CHAPA
 62
1
370
25
100
AcDbPolyline
 90
4
 70
1
 10
17803.19981077711
 20
-178.7770375977834
 10
17799.5998107771
 20
-178.7770375977834
 10
17799.5998107771
 20
-215.7770374371885
 10
17803.19981077711
 20
-215.7770374371885
  0
LWPOLYLINE
  5
152
330
17
100
AcDbEntity
  8
SARRAFO
 62
251
370
25
100
AcDbPolyline
 90
4
 70
1
 10
17966.7998107724
 20
-201.7770373407093
 10
17966.79981077248
 20
-215.7770373265648
 10
17971.1998107668
 20
-215.7770373265648
 10
17971.1998107668
 20
-201.7770373407093
  0
LWPOLYLINE
  5
153
330
17
100
AcDbEntity
  8
SARRAFO
 62
251
370
25
100
AcDbPolyline
 90
4
 70
1
 10
17795.19981078269
 20
-201.7770373406511
 10
17795.19981078278
 20
-215.7770373265066
 10
17799.5998107771
 20
-215.7770373265066
 10
17799.5998107771
 20
-201.7770373406511
  0
LWPOLYLINE
  5
154
330
17
100
AcDbEntity
  8
SARRAFO
 62
251
370
25
100
AcDbPolyline
 90
4
 70
1
 10
17966.7998107724
 20
-192.777037694379
 10
17966.79981077248
 20
-178.7770377085235
 10
17971.1998107668
 20
-178.7770377085235
 10
17971.1998107668
 20
-192.777037694379
  0
LWPOLYLINE
  5
155
330
17
100
AcDbEntity
  8
SARRAFO
 62
251
370
25
100
AcDbPolyline
 90
4
 70
1
 10
17795.19981078269
 20
-192.7770376944372
 10
17795.19981078278
 20
-178.7770377085817
 10
17799.5998107771
 20
-178.7770377085817
 10
17799.5998107771
 20
-192.7770376944372
  0
LWPOLYLINE
  5
156
330
17
100
AcDbEntity
  8
Painéis
 62
200
370
25
100
AcDbPolyline
 90
4
 70
1
 10
18504.47450949266
 20
-615.4402007962544
 10
18606.47450949266
 20
-615.4402007962253
 10
18606.47450949266
 20
-617.4402007962253
 10
18504.47450949266
 20
-617.4402007962544
  0
LWPOLYLINE
  5
157
330
17
100
AcDbEntity
  8
COTA
 62
241
370
25
100
AcDbPolyline
 90
4
 70
0
 10
18782.72173055612
 20
-321.4402007962526
 10
18782.72173055612
 20
-290.4402007962545
 10
18764.22173055612
 20
-290.4402007962545
 10
18764.22173055612
 20
-321.4402007962526
  0
LWPOLYLINE
  5
158
330
17
100
AcDbEntity
  8
Painéis
 62
200
370
25
100
AcDbPolyline
 90
4
 70
1
 10
18764.22173055612
 20
-615.4402007962544
 10
18782.72173055612
 20
-615.4402007962544
 10
18782.72173055612
 20
-617.4402007962544
 10
18764.22173055612
 20
-617.4402007962544
  0
LWPOLYLINE
  5
159
330
17
100
AcDbEntity
  8
COTA
 62
241
370
25
100
AcDbPolyline
 90
4
 70
0
 10
18921.12785628433
 20
-306.4402007962508
 10
18921.12785628433
 20
-290.4402007962526
 10
18902.62785628434
 20
-290.4402007962526
 10
18902.62785628434
 20
-306.4402007962508
  0
LWPOLYLINE
  5
15A
330
17
100
AcDbEntity
  8
Painéis
 62
200
370
25
100
AcDbPolyline
 90
4
 70
1
 10
18902.62785628434
 20
-615.4402007962525
 10
18921.12785628433
 20
-615.4402007962525
 10
18921.12785628433
 20
-617.4402007962526
 10
18902.62785628434
 20
-617.4402007962526
  0
LWPOLYLINE
  5
15B
330
17
100
AcDbEntity
  8
Madeira
 62
126
370
18
100
AcDbPolyline
 90
4
 70
1
 10
17985.21518273326
 20
-160.7654252419378
 10
17985.19981075317
 20
-174.7654168527878
 10
17781.20679963704
 20
-174.7654168527587
 10
17781.22217161712
 20
-160.7654252419087
  0
LWPOLYLINE
  5
15C
330
17
100
AcDbEntity
  8
Madeira
 62
126
370
18
100
AcDbPolyline
 90
4
 70
1
 10
17971.21519117192
 20
-160.761674057001
 10
17971.19981919187
 20
-174.76166561779235
 10
17985.19981075266
 20
-174.77703759784163
 10
17985.21518273271
 20
-160.77704603705024
  0
LWPOLYLINE
  5
15D
330
17
100
AcDbEntity
  8
Madeira
 62
126
370
18
100
AcDbPolyline
 90
4
 70
1
 10
17795.22216317789
 20
-160.7807972469963
 10
17795.206791197837
 20
-174.78078880778764
 10
17781.206799637046
 20
-174.7654168277384
 10
17781.222171617097
 20
-160.76542526694703
  0
LWPOLYLINE
  5
15E
330
17
100
AcDbEntity
  8
Madeira
 62
126
370
18
100
AcDbPolyline
 90
4
 70
1
 10
17830.71528068424
 20
-160.7692683012646
 10
17823.715284910973
 20
-160.7615823112478
 10
17823.69991293094
 20
-174.76157385777827
 10
17830.699908704206
 20
-174.76925984779507
  0
LWPOLYLINE
  5
15F
330
17
100
AcDbEntity
  8
Madeira
 62
126
370
18
100
AcDbPolyline
 90
4
 70
1
 10
17876.71524752357
 20
-160.7692683012646
 10
17869.715251750305
 20
-160.7615823112478
 10
17869.699879770273
 20
-174.76157385777827
 10
17876.699875543538
 20
-174.76925984779507
  0
LWPOLYLINE
  5
160
330
17
100
AcDbEntity
  8
Madeira
 62
126
370
18
100
AcDbPolyline
 90
4
 70
1
 10
17932.71524752357
 20
-160.7692683012646
 10
17925.715251750305
 20
-160.7615823112478
 10
17925.699879770273
 20
-174.76157385777827
 10
17932.699875543538
 20
-174.76925984779507
  0
TEXT
  5
161
330
17
100
AcDbEntity
  8
TEXTO_GERAL
 62
7
370
25
100
AcDbText
 10
17957.1804201827
 20
-195.8260097656457
 30
0.0
 40
10.99999999889889
  1
D
100
AcDbText
  0
TEXT
  5
162
330
17
100
AcDbEntity
  8
TEXTO_GERAL
 62
7
370
25
100
AcDbText
 10
17808.94062895466
 20
-193.5080942228833
 30
0.0
 40
10.99999999889889
  1
C
100
AcDbText
  0
TEXT
  5
163
330
17
100
AcDbEntity
  8
TEXTO_GERAL
 62
7
370
25
100
AcDbText
 10
17891.30385761392
 20
-183.9461096120085
 30
0.0
 40
10.99999999889889
  1
B
100
AcDbText
  0
TEXT
  5
164
330
17
100
AcDbEntity
  8
NOMENCLATURA
 62
2
370
25
100
AcDbText
 10
18850.46284580461
 20
23.07048598625261
 30
0.0
 40
16.0
  1
térreo - PD: 3.27
100
AcDbText
  0
TEXT
  5
165
330
17
100
AcDbEntity
  8
Texto Seção
 62
7
370
15
100
AcDbText
 10
18495.53031788152
 20
-600.6116051700792
 30
0.0
 40
13.0
  1
P31.B
 50
90.0
100
AcDbText
  0
TEXT
  5
166
330
17
100
AcDbEntity
  8
Texto Seção
 62
7
370
15
100
AcDbText
 10
18756.07062918589
 20
-600.5390222655096
 30
0.0
 40
13.0
  1
P31.C
 50
90.0
100
AcDbText
  0
TEXT
  5
167
330
17
100
AcDbEntity
  8
Texto Seção
 62
7
370
15
100
AcDbText
 10
18894.47675491411
 20
-600.8603201864734
 30
0.0
 40
13.0
  1
P31.D
 50
90.0
100
AcDbText
  0
TEXT
  5
168
330
17
100
AcDbEntity
  8
COTA
 62
1
370
25
100
AcDbText
 10
17868.64813237164
 20
-187.822613694485
 30
0.0
 40
7.0
  1
80
100
AcDbText
  0
TEXT
  5
169
330
17
100
AcDbEntity
  8
COTA
 62
1
370
25
100
AcDbText
 10
17954.13164801409
 20
-201.326009765095
 30
0.0
 40
7.0
  1
18.5
 50
90.0
100
AcDbText
  0
TEXT
  5
16A
330
17
100
AcDbEntity
  8
COTA
 62
240
370
25
100
AcDbText
 10
18225.76444304881
 20
-453.9402007962597
 30
0.0
 40
10.0
  1
327
 50
90.0
100
AcDbText
  0
TEXT
  5
16B
330
17
100
AcDbEntity
  8
COTA
 62
240
370
25
100
AcDbText
 10
18555.4745094926
 20
-651.9498467949564
 30
0.0
 40
10.0
  1
102
100
AcDbText
  0
TEXT
  5
16C
330
17
100
AcDbEntity
  8
COTA
 62
240
370
25
100
AcDbText
 10
18615.34000656862
 20
-627.8771973449446
 30
0.0
 40
10.0
  1
7
100
AcDbText
  0
TEXT
  5
16D
330
17
100
AcDbEntity
  8
COTA
 62
240
370
25
100
AcDbText
 10
18495.60901241658
 20
-627.8771973449155
 30
0.0
 40
10.0
  1
7
100
AcDbText
  0
TEXT
  5
16E
330
17
100
AcDbEntity
  8
COTA
 62
240
370
25
100
AcDbText
 10
18637.73270770351
 20
-602.693304903316
 30
0.0
 40
10.0
  1
2
 50
90.0
100
AcDbText
  0
TEXT
  5
16F
330
17
100
AcDbEntity
  8
COTA
 62
240
370
25
100
AcDbText
 10
18656.24235325958
 20
-362.940200796258
 30
0.0
 40
10.0
  1
17
 50
90.0
100
AcDbText
  0
TEXT
  5
170
330
17
100
AcDbEntity
  8
COTA
 62
240
370
25
100
AcDbText
 10
18656.24235325952
 20
-555.4402007962598
 30
0.0
 40
10.0
  1
124
 50
90.0
100
AcDbText
  0
TEXT
  5
171
330
17
100
AcDbEntity
  8
COTA
 62
240
370
25
100
AcDbText
 10
18656.25697314261
 20
-432.4402007962593
 30
0.0
 40
10.0
  1
122
 50
90.0
100
AcDbText
  0
TEXT
  5
172
330
17
100
AcDbEntity
  8
COTA
 62
240
370
25
100
AcDbText
 10
18525.7245094927
 20
-257.752403901472
 30
0.0
 40
10.0
  1
37.5
100
AcDbText
  0
TEXT
  5
173
330
17
100
AcDbEntity
  8
COTA
 62
240
370
25
100
AcDbText
 10
18585.22450949287
 20
-257.752403901472
 30
0.0
 40
10.0
  1
37.5
100
AcDbText
  0
TEXT
  5
174
330
17
100
AcDbEntity
  8
COTA
 62
240
370
25
100
AcDbText
 10
18656.09615442922
 20
-337.9402007962789
 30
0.0
 40
10.0
  1
33
 50
90.0
100
AcDbText
  0
TEXT
  5
175
330
17
100
AcDbEntity
  8
COTA
 62
240
370
25
100
AcDbText
 10
18656.20580355203
 20
-297.9402007962598
 30
0.0
 40
10.0
  1
15
 50
90.0
100
AcDbText
  0
TEXT
  5
176
330
17
100
AcDbEntity
  8
COTA
 62
240
370
25
100
AcDbText
 10
18656.21311349354
 20
-313.4402007962598
 30
0.0
 40
10.0
  1
16
 50
90.0
100
AcDbText
  0
TEXT
  5
177
330
17
100
AcDbEntity
  8
COTA
 62
240
370
25
100
AcDbText
 10
18799.8913211994
 20
-639.2028334950554
 30
0.0
 40
10.0
  1
18.5
100
AcDbText
  0
TEXT
  5
178
330
17
100
AcDbEntity
  8
COTA
 62
240
370
25
100
AcDbText
 10
18813.62914822438
 20
-616.4402007962889
 30
0.0
 40
10.0
  1
2
 50
90.0
100
AcDbText
  0
TEXT
  5
179
330
17
100
AcDbEntity
  8
COTA
 62
240
370
25
100
AcDbText
 10
18817.07514510087
 20
-313.4402007962625
 30
0.0
 40
10.0
  1
16
 50
90.0
100
AcDbText
  0
TEXT
  5
17A
330
17
100
AcDbEntity
  8
COTA
 62
240
370
25
100
AcDbText
 10
18817.06783515936
 20
-346.440200796258
 30
0.0
 40
10.0
  1
50
 50
90.0
100
AcDbText
  0
TEXT
  5
17B
330
17
100
AcDbEntity
  8
COTA
 62
240
370
25
100
AcDbText
 10
18817.07514510089
 20
-494.4402007962571
 30
0.0
 40
10.0
  1
246
 50
90.0
100
AcDbText
  0
TEXT
  5
17C
330
17
100
AcDbEntity
  8
COTA
 62
240
370
25
100
AcDbText
 10
18938.29744692761
 20
-639.2028334950536
 30
0.0
 40
10.0
  1
18.5
100
AcDbText
  0
TEXT
  5
17D
330
17
100
AcDbEntity
  8
COTA
 62
240
370
25
100
AcDbText
 10
18952.0352739526
 20
-616.4402007962872
 30
0.0
 40
10.0
  1
2
 50
90.0
100
AcDbText
  0
TEXT
  5
17E
330
17
100
AcDbEntity
  8
COTA
 62
240
370
25
100
AcDbText
 10
18955.48127082911
 20
-298.4402007962607
 30
0.0
 40
10.0
  1
16
 50
90.0
100
AcDbText
  0
TEXT
  5
17F
330
17
100
AcDbEntity
  8
COTA
 62
240
370
25
100
AcDbText
 10
18955.47396088759
 20
-338.9402007962562
 30
0.0
 40
10.0
  1
65
 50
90.0
100
AcDbText
  0
TEXT
  5
180
330
17
100
AcDbEntity
  8
COTA
 62
240
370
25
100
AcDbText
 10
18955.48127082913
 20
-494.4402007962553
 30
0.0
 40
10.0
  1
246
 50
90.0
100
AcDbText
  0
TEXT
  5
181
330
17
100
AcDbEntity
  8
COTA
 62
241
370
25
100
AcDbText
 10
17883.19981077497
 20
-90.99489752637272
 30
0.0
 40
10.0
  1
102(GRADE)
100
AcDbText
  0
TEXT
  5
182
330
17
100
AcDbEntity
  8
COTA
 62
241
370
25
100
AcDbText
 10
17804.21869791468
 20
-116.9291139724886
 30
0.0
 40
10.0
  1
23
100
AcDbText
  0
TEXT
  5
183
330
17
100
AcDbEntity
  8
COTA
 62
241
370
25
100
AcDbText
 10
17850.21695068777
 20
-116.9291139729397
 30
0.0
 40
10.0
  1
23
100
AcDbText
  0
TEXT
  5
184
330
17
100
AcDbEntity
  8
COTA
 62
241
370
25
100
AcDbText
 10
17901.21691307577
 20
-117.053382979006
 30
0.0
 40
10.0
  1
28
100
AcDbText
  0
TEXT
  5
185
330
17
100
AcDbEntity
  8
COTA
 62
241
370
25
100
AcDbText
 10
17957.2151658548
 20
-117.0533829788896
 30
0.0
 40
10.0
  1
28
100
AcDbText
  0
TEXT
  5
186
330
17
100
AcDbEntity
  8
COTA
 62
240
370
25
100
AcDbText
 10
18501.6649977527
 20
-338.9402007962593
 30
0.0
 40
10.0
  1
65
 50
90.0
100
AcDbText
  0
TEXT
  5
187
330
17
100
AcDbEntity
  8
COTA
 62
240
370
25
100
AcDbText
 10
18540.23906676325
 20
-330.440200796238
 30
0.0
 40
10.0
  1
48
 50
90.0
100
AcDbText
  0
TEXT
  5
188
330
17
100
AcDbEntity
  8
COTA
 62
240
370
25
100
AcDbText
 10
18817.06783515935
 20
-297.9402007962598
 30
0.0
 40
10.0
  1
15
 50
90.0
100
AcDbText
  0
TEXT
  5
189
330
17
100
AcDbEntity
  8
Texto Seção
 62
3
370
15
100
AcDbText
 10
17880.19981077498
 20
-0.27457110313116573
 30
0.0
 40
17.0
  1

100
AcDbText
  0
TEXT
  5
18A
330
17
100
AcDbEntity
  8
Texto Seção
 62
3
370
15
100
AcDbText
 10
17880.19981077498
 20
-30.175155747452663
 30
0.0
 40
12.0
  1

100
AcDbText
  0
TEXT
  5
18B
330
17
100
AcDbEntity
  8
Texto Seção
 62
7
370
15
100
AcDbText
 10
17880.19981077498
 20
-56.14658463593878
 30
0.0
 40
10.0
  1

100
AcDbText
  0
HATCH
  5
18C
330
17
100
AcDbEntity
  8
Hachura
 62
7
100
AcDbHatch
 10
0.0
 20
0.0
 30
0.0
210
0.0
220
0.0
230
1.0
  2
ANSI31
 70
0
 71
0
 91
1
 92
3
 72
0
 73
1
 93
5
 10
17795.19981078269
 20
-178.7770375424861
 10
17795.19981078269
 20
-183.177037536805
 10
17781.19981079684
 20
-183.1770375368924
 10
17781.19981079684
 20
-178.7770375425152
 10
17795.19981078269
 20
-178.7770375424861
 97
0
 75
1
 76
1
 52
0.0
 41
1.0
 77
0
 78
1
 53
45.0
 43
0.0
 44
0.0
 45
-2.2450640303
 46
2.2450640303
 79
0
 98
0
  0
HATCH
  5
18D
330
17
100
AcDbEntity
  8
Hachura
 62
7
100
AcDbHatch
 10
0.0
 20
0.0
 30
0.0
210
0.0
220
0.0
230
1.0
  2
SOLID
 70
1
 71
0
 91
1
 92
3
 72
0
 73
1
 93
5
 10
17781.1998107973
 20
-178.7770375978416
 10
17781.1998107973
 20
-174.7770375978416
 10
17985.19981075266
 20
-174.7770375978416
 10
17985.19981075266
 20
-178.7770375978416
 10
17781.1998107973
 20
-178.7770375978416
 97
0
 75
1
 76
1
 98
0
  0
HATCH
  5
18E
330
17
100
AcDbEntity
  8
Hachura
 62
7
100
AcDbHatch
 10
0.0
 20
0.0
 30
0.0
210
0.0
220
0.0
230
1.0
  2
SOLID
 70
1
 71
0
 91
1
 92
3
 72
0
 73
1
 93
5
 10
17966.79981077711
 20
-178.7770375978416
 10
17963.19981077711
 20
-178.7770375978416
 10
17963.19981077711
 20
-215.7770374372467
 10
17966.79981077711
 20
-215.7770374372467
 10
17966.79981077711
 20
-178.7770375978416
 97
0
 75
1
 76
1
 98
0
  0
HATCH
  5
18F
330
17
100
AcDbEntity
  8
Hachura
 62
7
100
AcDbHatch
 10
0.0
 20
0.0
 30
0.0
210
0.0
220
0.0
230
1.0
  2
SOLID
 70
1
 71
0
 91
1
 92
3
 72
0
 73
1
 93
5
 10
17803.19981077711
 20
-178.7770375977834
 10
17799.5998107771
 20
-178.7770375977834
 10
17799.5998107771
 20
-215.7770374371885
 10
17803.19981077711
 20
-215.7770374371885
 10
17803.19981077711
 20
-178.7770375977834
 97
0
 75
1
 76
1
 98
0
  0
HATCH
  5
190
330
17
100
AcDbEntity
  8
Hachura
 62
7
100
AcDbHatch
 10
0.0
 20
0.0
 30
0.0
210
0.0
220
0.0
230
1.0
  2
ANSI31
 70
0
 71
0
 91
1
 92
3
 72
0
 73
1
 93
5
 10
17971.1998107668
 20
-178.7770375424861
 10
17971.1998107668
 20
-183.177037536805
 10
17985.19981075266
 20
-183.1770375368924
 10
17985.19981075266
 20
-178.7770375425152
 10
17971.1998107668
 20
-178.7770375424861
 97
0
 75
1
 76
1
 52
0.0
 41
1.0
 77
0
 78
1
 53
45.0
 43
0.0
 44
0.0
 45
-2.2450640303
 46
2.2450640303
 79
0
 98
0
  0
HATCH
  5
191
330
17
100
AcDbEntity
  8
Hachura
 62
7
100
AcDbHatch
 10
0.0
 20
0.0
 30
0.0
210
0.0
220
0.0
230
1.0
  2
SOLID
 70
1
 71
0
 91
1
 92
3
 72
0
 73
1
 93
5
 10
17781.1998107973
 20
-178.7770375978416
 10
17781.1998107973
 20
-174.7770375978416
 10
17985.19981075266
 20
-174.7770375978416
 10
17985.19981075266
 20
-178.7770375978416
 10
17781.1998107973
 20
-178.7770375978416
 97
0
 75
1
 76
1
 98
0
  0
HATCH
  5
192
330
17
100
AcDbEntity
  8
Hachura
 62
7
100
AcDbHatch
 10
0.0
 20
0.0
 30
0.0
210
0.0
220
0.0
230
1.0
  2
SOLID
 70
1
 71
0
 91
1
 92
3
 72
0
 73
1
 93
5
 10
17966.79981077711
 20
-178.7770375978416
 10
17963.19981077711
 20
-178.7770375978416
 10
17963.19981077711
 20
-215.7770374372467
 10
17966.79981077711
 20
-215.7770374372467
 10
17966.79981077711
 20
-178.7770375978416
 97
0
 75
1
 76
1
 98
0
  0
HATCH
  5
193
330
17
100
AcDbEntity
  8
Hachura
 62
7
100
AcDbHatch
 10
0.0
 20
0.0
 30
0.0
210
0.0
220
0.0
230
1.0
  2
SOLID
 70
1
 71
0
 91
1
 92
3
 72
0
 73
1
 93
5
 10
17803.19981077711
 20
-178.7770375977834
 10
17799.5998107771
 20
-178.7770375977834
 10
17799.5998107771
 20
-215.7770374371885
 10
17803.19981077711
 20
-215.7770374371885
 10
17803.19981077711
 20
-178.7770375977834
 97
0
 75
1
 76
1
 98
0
  0
HATCH
  5
194
330
17
100
AcDbEntity
  8
Hachura
 62
7
100
AcDbHatch
 10
0.0
 20
0.0
 30
0.0
210
0.0
220
0.0
230
1.0
  2
ANSI31
 70
0
 71
0
 91
1
 92
3
 72
0
 73
1
 93
5
 10
17971.1998107668
 20
-215.7770373265648
 10
17966.79981077248
 20
-215.7770373265648
 10
17966.7998107724
 20
-201.7770373407093
 10
17971.1998107668
 20
-201.7770373407093
 10
17971.1998107668
 20
-215.7770373265648
 97
0
 75
1
 76
1
 52
0.0
 41
1.0
 77
0
 78
1
 53
45.0
 43
0.0
 44
0.0
 45
-2.2450640303
 46
2.2450640303
 79
0
 98
0
  0
HATCH
  5
195
330
17
100
AcDbEntity
  8
Hachura
 62
7
100
AcDbHatch
 10
0.0
 20
0.0
 30
0.0
210
0.0
220
0.0
230
1.0
  2
ANSI31
 70
0
 71
0
 91
1
 92
3
 72
0
 73
1
 93
5
 10
17799.5998107771
 20
-215.7770373265066
 10
17795.19981078278
 20
-215.7770373265066
 10
17795.19981078269
 20
-201.7770373406511
 10
17799.5998107771
 20
-201.7770373406511
 10
17799.5998107771
 20
-215.7770373265066
 97
0
 75
1
 76
1
 52
0.0
 41
1.0
 77
0
 78
1
 53
45.0
 43
0.0
 44
0.0
 45
-2.2450640303
 46
2.2450640303
 79
0
 98
0
  0
HATCH
  5
196
330
17
100
AcDbEntity
  8
Hachura
 62
7
100
AcDbHatch
 10
0.0
 20
0.0
 30
0.0
210
0.0
220
0.0
230
1.0
  2
ANSI31
 70
0
 71
0
 91
1
 92
3
 72
0
 73
1
 93
5
 10
17971.1998107668
 20
-178.7770377085235
 10
17966.79981077248
 20
-178.7770377085235
 10
17966.7998107724
 20
-192.777037694379
 10
17971.1998107668
 20
-192.777037694379
 10
17971.1998107668
 20
-178.7770377085235
 97
0
 75
1
 76
1
 52
0.0
 41
1.0
 77
0
 78
1
 53
45.0
 43
0.0
 44
0.0
 45
-2.2450640303
 46
2.2450640303
 79
0
 98
0
  0
HATCH
  5
197
330
17
100
AcDbEntity
  8
Hachura
 62
7
100
AcDbHatch
 10
0.0
 20
0.0
 30
0.0
210
0.0
220
0.0
230
1.0
  2
ANSI31
 70
0
 71
0
 91
1
 92
3
 72
0
 73
1
 93
5
 10
17799.5998107771
 20
-178.7770377085817
 10
17795.19981078278
 20
-178.7770377085817
 10
17795.19981078269
 20
-192.7770376944372
 10
17799.5998107771
 20
-192.7770376944372
 10
17799.5998107771
 20
-178.7770377085817
 97
0
 75
1
 76
1
 52
0.0
 41
1.0
 77
0
 78
1
 53
45.0
 43
0.0
 44
0.0
 45
-2.2450640303
 46
2.2450640303
 79
0
 98
0
  0
HATCH
  5
198
330
17
100
AcDbEntity
  8
COTA
 62
7
100
AcDbHatch
 10
0.0
 20
0.0
 30
0.0
210
0.0
220
0.0
230
1.0
  2
AR-CONC
 70
0
 71
0
 91
2
 92
3
 72
0
 73
1
 93
5
 10
18017.37589859093
 20
-215.7770374372176
 10
17749.02372296327
 20
-215.7770374372176
 10
17749.02372296327
 20
-271.7770374372176
 10
18017.37589859093
 20
-271.7770374372176
 10
18017.37589859093
 20
-215.7770374372176
 97
0
 92
3
 72
0
 73
1
 93
3
 10
17778.2587840226
 20
-257.9217742458244
 10
17778.2587840226
 20
-240.4363941288654
 10
17778.2587840226
 20
-257.9217742458244
 97
0
 75
1
 76
1
 52
0.0
 41
1.0
 77
0
 78
13
 53
50.0
 43
0.0
 44
0.0
 45
182.184668996
 46
-15.9390855389
 79
2
 49
19.05
 49
-209.55
 53
355.0
 43
0.0
 44
0.0
 45
-35.243421425
 46
191.056845239
 79
2
 49
15.24
 49
-167.64058417
 53
100.4514447
 43
15.182007
 44
-1.3282535
 45
146.9412470904
 46
175.1177519122
 79
2
 49
16.1900088
 49
-178.0902446
 53
46.1842
 43
0.0
 44
50.8
 45
271.0790408921
 46
-42.0423279327
 79
2
 49
28.575
 49
-314.325
 53
96.63555761
 43
22.5899
 44
47.2965
 45
237.4041340515
 46
247.4261245977
 79
2
 49
24.28502314
 49
-267.13560816
 53
351.18415117
 43
0.0
 44
50.8
 45
237.404134065
 46
247.4261245855
 79
2
 49
22.85996707
 49
-251.45973192
 53
21.0
 43
25.4
 44
38.1
 45
151.6143912691
 46
-102.2651981871
 79
2
 49
19.05
 49
-209.55
 53
326.0
 43
25.4
 44
38.1
 45
61.8020283476
 46
184.1879661223
 79
2
 49
15.24
 49
-167.64
 53
71.451445
 43
38.0345326
 44
29.5779001
 45
213.4164192787
 46
81.9227688859
 79
2
 49
16.1900088
 49
-178.0899376
 53
37.5
 43
0.0
 44
0.0
 45
3.0886032506
 46
84.5550388732
 79
6
 49
0.0
 49
-165.608
 49
0.0
 49
-170.18
 49
0.0
 49
-168.275
 53
7.5
 43
0.0
 44
0.0
 45
66.8196625103
 46
100.1805748181
 79
6
 49
0.0
 49
-97.028
 49
0.0
 49
-161.798
 49
0.0
 49
-64.135
 53
-32.5
 43
-56.642
 44
0.0
 45
135.5905951669
 46
-5.7287439927
 79
6
 49
0.0
 49
-63.5
 49
0.0
 49
-198.12
 49
0.0
 49
-262.89
 53
-42.5
 43
-82.042
 44
0.0
 45
148.129181386
 46
25.4264910333
 79
6
 49
0.0
 49
-82.55
 49
0.0
 49
-131.572
 49
0.0
 49
-186.69
 98
0
  0
HATCH
  5
199
330
17
100
AcDbEntity
  8
COTA
 62
7
100
AcDbHatch
 10
0.0
 20
0.0
 30
0.0
210
0.0
220
0.0
230
1.0
  2
AR-CONC
 70
0
 71
0
 91
1
 92
3
 72
0
 73
1
 93
11
 10
18568.97450949287
 20
-290.4402007962507
 10
18568.97450949287
 20
-305.4402007962543
 10
18606.47450949286
 20
-305.4402007962543
 10
18606.47450949285
 20
-321.4402007962562
 10
18568.97450949287
 20
-321.4402007962325
 10
18568.97450949285
 20
-354.4402007962299
 10
18541.97450949254
 20
-354.4402007962186
 10
18541.97450949251
 20
-306.4402007962344
 10
18504.47450949251
 20
-306.4402007962584
 10
18504.47450949253
 20
-290.4402007962506
 10
18568.97450949287
 20
-290.4402007962507
 97
0
 75
1
 76
1
 52
0.0
 41
1.0
 77
0
 78
13
 53
50.0
 43
0.0
 44
0.0
 45
182.184668996
 46
-15.9390855389
 79
2
 49
19.05
 49
-209.55
 53
355.0
 43
0.0
 44
0.0
 45
-35.243421425
 46
191.056845239
 79
2
 49
15.24
 49
-167.64058417
 53
100.4514447
 43
15.182007
 44
-1.3282535
 45
146.9412470904
 46
175.1177519122
 79
2
 49
16.1900088
 49
-178.0902446
 53
46.1842
 43
0.0
 44
50.8
 45
271.0790408921
 46
-42.0423279327
 79
2
 49
28.575
 49
-314.325
 53
96.63555761
 43
22.5899
 44
47.2965
 45
237.4041340515
 46
247.4261245977
 79
2
 49
24.28502314
 49
-267.13560816
 53
351.18415117
 43
0.0
 44
50.8
 45
237.404134065
 46
247.4261245855
 79
2
 49
22.85996707
 49
-251.45973192
 53
21.0
 43
25.4
 44
38.1
 45
151.6143912691
 46
-102.2651981871
 79
2
 49
19.05
 49
-209.55
 53
326.0
 43
25.4
 44
38.1
 45
61.8020283476
 46
184.1879661223
 79
2
 49
15.24
 49
-167.64
 53
71.451445
 43
38.0345326
 44
29.5779001
 45
213.4164192787
 46
81.9227688859
 79
2
 49
16.1900088
 49
-178.0899376
 53
37.5
 43
0.0
 44
0.0
 45
3.0886032506
 46
84.5550388732
 79
6
 49
0.0
 49
-165.608
 49
0.0
 49
-170.18
 49
0.0
 49
-168.275
 53
7.5
 43
0.0
 44
0.0
 45
66.8196625103
 46
100.1805748181
 79
6
 49
0.0
 49
-97.028
 49
0.0
 49
-161.798
 49
0.0
 49
-64.135
 53
-32.5
 43
-56.642
 44
0.0
 45
135.5905951669
 46
-5.7287439927
 79
6
 49
0.0
 49
-63.5
 49
0.0
 49
-198.12
 49
0.0
 49
-262.89
 53
-42.5
 43
-82.042
 44
0.0
 45
148.129181386
 46
25.4264910333
 79
6
 49
0.0
 49
-82.55
 49
0.0
 49
-131.572
 49
0.0
 49
-186.69
 98
0
  0
HATCH
  5
19A
330
17
100
AcDbEntity
  8
COTA
 62
7
100
AcDbHatch
 10
0.0
 20
0.0
 30
0.0
210
0.0
220
0.0
230
1.0
  2
AR-CONC
 70
0
 71
0
 91
1
 92
3
 72
0
 73
1
 93
5
 10
18764.22173055612
 20
-321.4402007962535
 10
18782.72173055612
 20
-321.4402007962517
 10
18782.72173055608
 20
-305.4402007962544
 10
18764.22173055612
 20
-305.4402007962006
 10
18764.22173055612
 20
-321.4402007962535
 97
0
 75
1
 76
1
 52
0.0
 41
1.0
 77
0
 78
13
 53
50.0
 43
0.0
 44
0.0
 45
182.184668996
 46
-15.9390855389
 79
2
 49
19.05
 49
-209.55
 53
355.0
 43
0.0
 44
0.0
 45
-35.243421425
 46
191.056845239
 79
2
 49
15.24
 49
-167.64058417
 53
100.4514447
 43
15.182007
 44
-1.3282535
 45
146.9412470904
 46
175.1177519122
 79
2
 49
16.1900088
 49
-178.0902446
 53
46.1842
 43
0.0
 44
50.8
 45
271.0790408921
 46
-42.0423279327
 79
2
 49
28.575
 49
-314.325
 53
96.63555761
 43
22.5899
 44
47.2965
 45
237.4041340515
 46
247.4261245977
 79
2
 49
24.28502314
 49
-267.13560816
 53
351.18415117
 43
0.0
 44
50.8
 45
237.404134065
 46
247.4261245855
 79
2
 49
22.85996707
 49
-251.45973192
 53
21.0
 43
25.4
 44
38.1
 45
151.6143912691
 46
-102.2651981871
 79
2
 49
19.05
 49
-209.55
 53
326.0
 43
25.4
 44
38.1
 45
61.8020283476
 46
184.1879661223
 79
2
 49
15.24
 49
-167.64
 53
71.451445
 43
38.0345326
 44
29.5779001
 45
213.4164192787
 46
81.9227688859
 79
2
 49
16.1900088
 49
-178.0899376
 53
37.5
 43
0.0
 44
0.0
 45
3.0886032506
 46
84.5550388732
 79
6
 49
0.0
 49
-165.608
 49
0.0
 49
-170.18
 49
0.0
 49
-168.275
 53
7.5
 43
0.0
 44
0.0
 45
66.8196625103
 46
100.1805748181
 79
6
 49
0.0
 49
-97.028
 49
0.0
 49
-161.798
 49
0.0
 49
-64.135
 53
-32.5
 43
-56.642
 44
0.0
 45
135.5905951669
 46
-5.7287439927
 79
6
 49
0.0
 49
-63.5
 49
0.0
 49
-198.12
 49
0.0
 49
-262.89
 53
-42.5
 43
-82.042
 44
0.0
 45
148.129181386
 46
25.4264910333
 79
6
 49
0.0
 49
-82.55
 49
0.0
 49
-131.572
 49
0.0
 49
-186.69
 98
0
  0
HATCH
  5
19B
330
17
100
AcDbEntity
  8
COTA
 62
7
100
AcDbHatch
 10
0.0
 20
0.0
 30
0.0
210
0.0
220
0.0
230
1.0
  2
AR-CONC
 70
0
 71
0
 91
1
 92
3
 72
0
 73
1
 93
5
 10
18902.62785628433
 20
-306.4402007962554
 10
18921.12785628433
 20
-306.4402007962535
 10
18921.12785628433
 20
-290.4402007962508
 10
18902.62785628434
 20
-290.4402007962526
 10
18902.62785628433
 20
-306.4402007962554
 97
0
 75
1
 76
1
 52
0.0
 41
1.0
 77
0
 78
13
 53
50.0
 43
0.0
 44
0.0
 45
182.184668996
 46
-15.9390855389
 79
2
 49
19.05
 49
-209.55
 53
355.0
 43
0.0
 44
0.0
 45
-35.243421425
 46
191.056845239
 79
2
 49
15.24
 49
-167.64058417
 53
100.4514447
 43
15.182007
 44
-1.3282535
 45
146.9412470904
 46
175.1177519122
 79
2
 49
16.1900088
 49
-178.0902446
 53
46.1842
 43
0.0
 44
50.8
 45
271.0790408921
 46
-42.0423279327
 79
2
 49
28.575
 49
-314.325
 53
96.63555761
 43
22.5899
 44
47.2965
 45
237.4041340515
 46
247.4261245977
 79
2
 49
24.28502314
 49
-267.13560816
 53
351.18415117
 43
0.0
 44
50.8
 45
237.404134065
 46
247.4261245855
 79
2
 49
22.85996707
 49
-251.45973192
 53
21.0
 43
25.4
 44
38.1
 45
151.6143912691
 46
-102.2651981871
 79
2
 49
19.05
 49
-209.55
 53
326.0
 43
25.4
 44
38.1
 45
61.8020283476
 46
184.1879661223
 79
2
 49
15.24
 49
-167.64
 53
71.451445
 43
38.0345326
 44
29.5779001
 45
213.4164192787
 46
81.9227688859
 79
2
 49
16.1900088
 49
-178.0899376
 53
37.5
 43
0.0
 44
0.0
 45
3.0886032506
 46
84.5550388732
 79
6
 49
0.0
 49
-165.608
 49
0.0
 49
-170.18
 49
0.0
 49
-168.275
 53
7.5
 43
0.0
 44
0.0
 45
66.8196625103
 46
100.1805748181
 79
6
 49
0.0
 49
-97.028
 49
0.0
 49
-161.798
 49
0.0
 49
-64.135
 53
-32.5
 43
-56.642
 44
0.0
 45
135.5905951669
 46
-5.7287439927
 79
6
 49
0.0
 49
-63.5
 49
0.0
 49
-198.12
 49
0.0
 49
-262.89
 53
-42.5
 43
-82.042
 44
0.0
 45
148.129181386
 46
25.4264910333
 79
6
 49
0.0
 49
-82.55
 49
0.0
 49
-131.572
 49
0.0
 49
-186.69
 98
0
  0
ENDSEC
  0
SECTION
  2
OBJECTS
  0
DICTIONARY
  5
A
330
0
100
AcDbDictionary
281
1
  3
ACAD_COLOR
350
B
  3
ACAD_GROUP
350
C
  3
ACAD_LAYOUT
350
D
  3
ACAD_MATERIAL
350
E
  3
ACAD_MLEADERSTYLE
350
F
  3
ACAD_MLINESTYLE
350
10
  3
ACAD_PLOTSETTINGS
350
11
  3
ACAD_PLOTSTYLENAME
350
12
  3
ACAD_SCALELIST
350
14
  3
ACAD_TABLESTYLE
350
15
  3
ACAD_VISUALSTYLE
350
16
  3
EZDXF_META
350
2D
  0
DICTIONARY
  5
B
330
A
100
AcDbDictionary
281
1
  0
DICTIONARY
  5
C
330
A
100
AcDbDictionary
281
1
  0
DICTIONARY
  5
D
330
A
100
AcDbDictionary
281
1
  3
Model
350
1A
  3
Layout1
350
1E
  0
DICTIONARY
  5
E
330
A
100
AcDbDictionary
281
1
  3
ByBlock
350
1F
  3
ByLayer
350
20
  3
Global
350
21
  0
DICTIONARY
  5
F
330
A
100
AcDbDictionary
281
1
  3
Standard
350
2C
  0
DICTIONARY
  5
10
330
A
100
AcDbDictionary
281
1
  3
Standard
350
22
  0
DICTIONARY
  5
11
330
A
100
AcDbDictionary
281
1
  0
ACDBDICTIONARYWDFLT
  5
12
330
A
100
AcDbDictionary
281
1
  3
Normal
350
13
100
AcDbDictionaryWithDefault
340
13
  0
ACDBPLACEHOLDER
  5
13
330
12
  0
DICTIONARY
  5
14
330
A
100
AcDbDictionary
281
1
  0
DICTIONARY
  5
15
330
A
100
AcDbDictionary
281
1
  0
DICTIONARY
  5
16
330
A
100
AcDbDictionary
281
1
  0
LAYOUT
  5
1A
330
D
100
AcDbPlotSettings
  1

  4
A3
  6

 40
7.5
 41
20.0
 42
7.5
 43
20.0
 44
420.0
 45
297.0
 46
0.0
 47
0.0
 48
0.0
 49
0.0
140
0.0
141
0.0
142
1.0
143
1.0
 70
1024
 72
1
 73
0
 74
5
  7

 75
16
 76
0
 77
2
 78
300
147
1.0
148
0.0
149
0.0
100
AcDbLayout
  1
Model
 70
1
 71
0
 10
0.0
 20
0.0
 11
420.0
 21
297.0
 12
0.0
 22
0.0
 32
0.0
 14
1e+20
 24
1e+20
 34
1e+20
 15
-1e+20
 25
-1e+20
 35
-1e+20
146
0.0
 13
0.0
 23
0.0
 33
0.0
 16
1.0
 26
0.0
 36
0.0
 17
0.0
 27
1.0
 37
0.0
 76
1
330
17
  0
LAYOUT
  5
1E
330
D
100
AcDbPlotSettings
  1

  4
A3
  6

 40
7.5
 41
20.0
 42
7.5
 43
20.0
 44
420.0
 45
297.0
 46
0.0
 47
0.0
 48
0.0
 49
0.0
140
0.0
141
0.0
142
1.0
143
1.0
 70
0
 72
1
 73
0
 74
5
  7

 75
16
 76
0
 77
2
 78
300
147
1.0
148
0.0
149
0.0
100
AcDbLayout
  1
Layout1
 70
1
 71
1
 10
0.0
 20
0.0
 11
420.0
 21
297.0
 12
0.0
 22
0.0
 32
0.0
 14
1e+20
 24
1e+20
 34
1e+20
 15
-1e+20
 25
-1e+20
 35
-1e+20
146
0.0
 13
0.0
 23
0.0
 33
0.0
 16
1.0
 26
0.0
 36
0.0
 17
0.0
 27
1.0
 37
0.0
 76
1
330
1B
  0
MATERIAL
  5
1F
102
{ACAD_REACTORS
330
E
102
}
330
E
100
AcDbMaterial
  1
ByBlock
  2

 70
0
 40
1.0
 71
1
 41
1.0
 91
-1023410177
 42
1.0
 72
1
  3

 73
1
 74
1
 75
1
 44
0.5
 73
0
 45
1.0
 46
1.0
 77
1
  4

 78
1
 79
1
170
1
 48
1.0
171
1
  6

172
1
173
1
174
1
140
1.0
141
1.0
175
1
  7

176
1
177
1
178
1
143
1.0
179
1
  8

270
1
271
1
272
1
145
1.0
146
1.0
273
1
  9

274
1
275
1
276
1
 42
1.0
 72
1
  3

 73
1
 74
1
 75
1
 94
63
  0
MATERIAL
  5
20
102
{ACAD_REACTORS
330
E
102
}
330
E
100
AcDbMaterial
  1
ByLayer
  2

 70
0
 40
1.0
 71
1
 41
1.0
 91
-1023410177
 42
1.0
 72
1
  3

 73
1
 74
1
 75
1
 44
0.5
 73
0
 45
1.0
 46
1.0
 77
1
  4

 78
1
 79
1
170
1
 48
1.0
171
1
  6

172
1
173
1
174
1
140
1.0
141
1.0
175
1
  7

176
1
177
1
178
1
143
1.0
179
1
  8

270
1
271
1
272
1
145
1.0
146
1.0
273
1
  9

274
1
275
1
276
1
 42
1.0
 72
1
  3

 73
1
 74
1
 75
1
 94
63
  0
MATERIAL
  5
21
102
{ACAD_REACTORS
330
E
102
}
330
E
100
AcDbMaterial
  1
Global
  2

 70
0
 40
1.0
 71
1
 41
1.0
 91
-1023410177
 42
1.0
 72
1
  3

 73
1
 74
1
 75
1
 44
0.5
 73
0
 45
1.0
 46
1.0
 77
1
  4

 78
1
 79
1
170
1
 48
1.0
171
1
  6

172
1
173
1
174
1
140
1.0
141
1.0
175
1
  7

176
1
177
1
178
1
143
1.0
179
1
  8

270
1
271
1
272
1
145
1.0
146
1.0
273
1
  9

274
1
275
1
276
1
 42
1.0
 72
1
  3

 73
1
 74
1
 75
1
 94
63
  0
MLINESTYLE
  5
22
102
{ACAD_REACTORS
330
10
102
}
330
10
100
AcDbMlineStyle
  2
Standard
 70
0
  3

 62
256
 51
90.0
 52
90.0
 71
2
 49
0.5
 62
256
  6
BYLAYER
 49
-0.5
 62
256
  6
BYLAYER
  0
MLEADERSTYLE
  5
2C
102
{ACAD_REACTORS
330
F
102
}
330
F
100
AcDbMLeaderStyle
179
2
170
2
171
1
172
0
 90
2
 40
0.0
 41
0.0
173
1
 91
-1056964608
 92
-2
290
1
 42
2.0
291
1
 43
8.0
  3
Standard
 44
4.0
300

342
29
174
1
175
1
176
0
178
1
 93
-1056964608
 45
4.0
292
0
297
0
 46
4.0
 94
-1056964608
 47
1.0
 49
1.0
140
1.0
294
1
141
0.0
177
0
142
1.0
295
0
296
0
143
3.75
271
0
272
9
273
9
  0
DICTIONARY
  5
2D
330
A
100
AcDbDictionary
280
1
281
1
  3
CREATED_BY_EZDXF
350
2E
  3
WRITTEN_BY_EZDXF
350
19E
  0
DICTIONARYVAR
  5
2E
330
2D
100
DictionaryVariables
280
0
  1
1.4.3 @ 2026-06-10T17:46:26.074631+00:00
  0
DICTIONARYVAR
  5
19E
330
2D
100
DictionaryVariables
280
0
  1
1.4.3 @ 2026-06-10T17:46:26.086596+00:00
  0
ENDSEC
  0
EOF
