  0
SECTION
  2
HEADER
  9
$ACADVER
  1
AC1024
  9
$ACADMAINTVER
 70
6
  9
$DWGCODEPAGE
  3
ANSI_1252
  9
$LASTSAVEDBY
  1
ezdxf
  9
$INSBASE
 10
0.0
 20
0.0
 30
0.0
  9
$EXTMIN
 10
1e+20
 20
1e+20
 30
1e+20
  9
$EXTMAX
 10
-1e+20
 20
-1e+20
 30
-1e+20
  9
$LIMMIN
 10
0.0
 20
0.0
  9
$LIMMAX
 10
420.0
 20
297.0
  9
$ORTHOMODE
 70
0
  9
$REGENMODE
 70
1
  9
$FILLMODE
 70
1
  9
$QTEXTMODE
 70
0
  9
$MIRRTEXT
 70
1
  9
$LTSCALE
 40
1.0
  9
$ATTMODE
 70
1
  9
$TEXTSIZE
 40
2.5
  9
$TRACEWID
 40
1.0
  9
$TEXTSTYLE
  7
Standard
  9
$CLAYER
  8
0
  9
$CELTYPE
  6
ByLayer
  9
$CECOLOR
 62
256
  9
$CELTSCALE
 40
1.0
  9
$DISPSILH
 70
0
  9
$DIMSCALE
 40
1.0
  9
$DIMASZ
 40
2.5
  9
$DIMEXO
 40
0.625
  9
$DIMDLI
 40
3.75
  9
$DIMRND
 40
0.0
  9
$DIMDLE
 40
0.0
  9
$DIMEXE
 40
1.25
  9
$DIMTP
 40
0.0
  9
$DIMTM
 40
0.0
  9
$DIMTXT
 40
2.5
  9
$DIMCEN
 40
2.5
  9
$DIMTSZ
 40
0.0
  9
$DIMTOL
 70
0
  9
$DIMLIM
 70
0
  9
$DIMTIH
 70
0
  9
$DIMTOH
 70
0
  9
$DIMSE1
 70
0
  9
$DIMSE2
 70
0
  9
$DIMTAD
 70
1
  9
$DIMZIN
 70
8
  9
$DIMBLK
  1

  9
$DIMASO
 70
1
  9
$DIMSHO
 70
1
  9
$DIMPOST
  1

  9
$DIMAPOST
  1

  9
$DIMALT
 70
0
  9
$DIMALTD
 70
3
  9
$DIMALTF
 40
0.03937007874
  9
$DIMLFAC
 40
1.0
  9
$DIMTOFL
 70
1
  9
$DIMTVP
 40
0.0
  9
$DIMTIX
 70
0
  9
$DIMSOXD
 70
0
  9
$DIMSAH
 70
0
  9
$DIMBLK1
  1

  9
$DIMBLK2
  1

  9
$DIMSTYLE
  2
ISO-25
  9
$DIMCLRD
 70
0
  9
$DIMCLRE
 70
0
  9
$DIMCLRT
 70
0
  9
$DIMTFAC
 40
1.0
  9
$DIMGAP
 40
0.625
  9
$DIMJUST
 70
0
  9
$DIMSD1
 70
0
  9
$DIMSD2
 70
0
  9
$DIMTOLJ
 70
0
  9
$DIMTZIN
 70
8
  9
$DIMALTZ
 70
0
  9
$DIMALTTZ
 70
0
  9
$DIMUPT
 70
0
  9
$DIMDEC
 70
2
  9
$DIMTDEC
 70
2
  9
$DIMALTU
 70
2
  9
$DIMALTTD
 70
3
  9
$DIMTXSTY
  7
Standard
  9
$DIMAUNIT
 70
0
  9
$DIMADEC
 70
0
  9
$DIMALTRND
 40
0.0
  9
$DIMAZIN
 70
0
  9
$DIMDSEP
 70
44
  9
$DIMATFIT
 70
3
  9
$DIMFRAC
 70
0
  9
$DIMLDRBLK
  1

  9
$DIMLUNIT
 70
2
  9
$DIMLWD
 70
-2
  9
$DIMLWE
 70
-2
  9
$DIMTMOVE
 70
0
  9
$DIMFXL
 40
1.0
  9
$DIMFXLON
 70
0
  9
$DIMJOGANG
 40
0.785398163397
  9
$DIMTFILL
 70
0
  9
$DIMTFILLCLR
 70
0
  9
$DIMARCSYM
 70
0
  9
$DIMLTYPE
  6

  9
$DIMLTEX1
  6

  9
$DIMLTEX2
  6

  9
$DIMTXTDIRECTION
 70
0
  9
$LUNITS
 70
2
  9
$LUPREC
 70
4
  9
$SKETCHINC
 40
1.0
  9
$FILLETRAD
 40
10.0
  9
$AUNITS
 70
0
  9
$AUPREC
 70
2
  9
$MENU
  1
.
  9
$ELEVATION
 40
0.0
  9
$PELEVATION
 40
0.0
  9
$THICKNESS
 40
0.0
  9
$LIMCHECK
 70
0
  9
$CHAMFERA
 40
0.0
  9
$CHAMFERB
 40
0.0
  9
$CHAMFERC
 40
0.0
  9
$CHAMFERD
 40
0.0
  9
$SKPOLY
 70
0
  9
$TDCREATE
 40
2461202.0297800926
  9
$TDUCREATE
 40
2458532.153996898
  9
$TDUPDATE
 40
2461202.0297800926
  9
$TDUUPDATE
 40
2458532.1544311
  9
$TDINDWG
 40
0.0
  9
$TDUSRTIMER
 40
0.0
  9
$USRTIMER
 70
1
  9
$ANGBASE
 50
0.0
  9
$ANGDIR
 70
0
  9
$PDMODE
 70
0
  9
$PDSIZE
 40
0.0
  9
$PLINEWID
 40
0.0
  9
$SPLFRAME
 70
0
  9
$SPLINETYPE
 70
6
  9
$SPLINESEGS
 70
8
  9
$HANDSEED
  5
1B5
  9
$SURFTAB1
 70
6
  9
$SURFTAB2
 70
6
  9
$SURFTYPE
 70
6
  9
$SURFU
 70
6
  9
$SURFV
 70
6
  9
$UCSBASE
  2

  9
$UCSNAME
  2

  9
$UCSORG
 10
0.0
 20
0.0
 30
0.0
  9
$UCSXDIR
 10
1.0
 20
0.0
 30
0.0
  9
$UCSYDIR
 10
0.0
 20
1.0
 30
0.0
  9
$UCSORTHOREF
  2

  9
$UCSORTHOVIEW
 70
0
  9
$UCSORGTOP
 10
0.0
 20
0.0
 30
0.0
  9
$UCSORGBOTTOM
 10
0.0
 20
0.0
 30
0.0
  9
$UCSORGLEFT
 10
0.0
 20
0.0
 30
0.0
  9
$UCSORGRIGHT
 10
0.0
 20
0.0
 30
0.0
  9
$UCSORGFRONT
 10
0.0
 20
0.0
 30
0.0
  9
$UCSORGBACK
 10
0.0
 20
0.0
 30
0.0
  9
$PUCSBASE
  2

  9
$PUCSNAME
  2

  9
$PUCSORG
 10
0.0
 20
0.0
 30
0.0
  9
$PUCSXDIR
 10
1.0
 20
0.0
 30
0.0
  9
$PUCSYDIR
 10
0.0
 20
1.0
 30
0.0
  9
$PUCSORTHOREF
  2

  9
$PUCSORTHOVIEW
 70
0
  9
$PUCSORGTOP
 10
0.0
 20
0.0
 30
0.0
  9
$PUCSORGBOTTOM
 10
0.0
 20
0.0
 30
0.0
  9
$PUCSORGLEFT
 10
0.0
 20
0.0
 30
0.0
  9
$PUCSORGRIGHT
 10
0.0
 20
0.0
 30
0.0
  9
$PUCSORGFRONT
 10
0.0
 20
0.0
 30
0.0
  9
$PUCSORGBACK
 10
0.0
 20
0.0
 30
0.0
  9
$USERI1
 70
0
  9
$USERI2
 70
0
  9
$USERI3
 70
0
  9
$USERI4
 70
0
  9
$USERI5
 70
0
  9
$USERR1
 40
0.0
  9
$USERR2
 40
0.0
  9
$USERR3
 40
0.0
  9
$USERR4
 40
0.0
  9
$USERR5
 40
0.0
  9
$WORLDVIEW
 70
1
  9
$SHADEDGE
 70
3
  9
$SHADEDIF
 70
70
  9
$TILEMODE
 70
1
  9
$MAXACTVP
 70
64
  9
$PINSBASE
 10
0.0
 20
0.0
 30
0.0
  9
$PLIMCHECK
 70
0
  9
$PEXTMIN
 10
1e+20
 20
1e+20
 30
1e+20
  9
$PEXTMAX
 10
-1e+20
 20
-1e+20
 30
-1e+20
  9
$PLIMMIN
 10
0.0
 20
0.0
  9
$PLIMMAX
 10
420.0
 20
297.0
  9
$UNITMODE
 70
0
  9
$VISRETAIN
 70
1
  9
$PLINEGEN
 70
0
  9
$PSLTSCALE
 70
1
  9
$TREEDEPTH
 70
3020
  9
$CMLSTYLE
  2
Standard
  9
$CMLJUST
 70
0
  9
$CMLSCALE
 40
20.0
  9
$PROXYGRAPHICS
 70
1
  9
$MEASUREMENT
 70
1
  9
$CELWEIGHT
370
-1
  9
$ENDCAPS
280
0
  9
$JOINSTYLE
280
0
  9
$LWDISPLAY
290
0
  9
$INSUNITS
 70
6
  9
$HYPERLINKBASE
  1

  9
$STYLESHEET
  1

  9
$XEDIT
290
1
  9
$CEPSNTYPE
380
0
  9
$PSTYLEMODE
290
1
  9
$FINGERPRINTGUID
  2
{512A607C-AA5D-47DD-8388-F577975A8680}
  9
$VERSIONGUID
  2
{73832E29-CFAF-4E8E-B162-615C6793BBFF}
  9
$EXTNAMES
290
1
  9
$PSVPSCALE
 40
0.0
  9
$OLESTARTUP
290
0
  9
$SORTENTS
280
127
  9
$INDEXCTL
280
0
  9
$HIDETEXT
280
1
  9
$XCLIPFRAME
280
1
  9
$HALOGAP
280
0
  9
$OBSCOLOR
 70
257
  9
$OBSLTYPE
280
0
  9
$INTERSECTIONDISPLAY
280
0
  9
$INTERSECTIONCOLOR
 70
257
  9
$DIMASSOC
280
2
  9
$PROJECTNAME
  1

  9
$CAMERADISPLAY
290
0
  9
$LENSLENGTH
 40
50.0
  9
$CAMERAHEIGHT
 40
0.0
  9
$STEPSPERSEC
 40
24.0
  9
$STEPSIZE
 40
100.0
  9
$3DDWFPREC
 40
2.0
  9
$PSOLWIDTH
 40
0.005
  9
$PSOLHEIGHT
 40
0.08
  9
$LOFTANG1
 40
1.570796326795
  9
$LOFTANG2
 40
1.570796326795
  9
$LOFTMAG1
 40
0.0
  9
$LOFTMAG2
 40
0.0
  9
$LOFTPARAM
 70
7
  9
$LOFTNORMALS
280
1
  9
$LATITUDE
 40
37.795
  9
$LONGITUDE
 40
-122.394
  9
$NORTHDIRECTION
 40
0.0
  9
$TIMEZONE
 70
-8000
  9
$LIGHTGLYPHDISPLAY
280
1
  9
$TILEMODELIGHTSYNCH
280
1
  9
$CMATERIAL
347
20
  9
$SOLIDHIST
280
0
  9
$SHOWHIST
280
1
  9
$DWFFRAME
280
2
  9
$DGNFRAME
280
2
  9
$REALWORLDSCALE
290
1
  9
$INTERFERECOLOR
 62
256
  9
$CSHADOW
280
0
  9
$SHADOWPLANELOCATION
 40
0.0
  0
ENDSEC
  0
SECTION
  2
CLASSES
  0
CLASS
  1
ACDBDICTIONARYWDFLT
  2
AcDbDictionaryWithDefault
  3
ObjectDBX Classes
 90
0
 91
0
280
0
281
0
  0
CLASS
  1
SUN
  2
AcDbSun
  3
SCENEOE
 90
1153
 91
0
280
0
281
0
  0
CLASS
  1
VISUALSTYLE
  2
AcDbVisualStyle
  3
ObjectDBX Classes
 90
4095
 91
0
280
0
281
0
  0
CLASS
  1
MATERIAL
  2
AcDbMaterial
  3
ObjectDBX Classes
 90
1153
 91
0
280
0
281
0
  0
CLASS
  1
SCALE
  2
AcDbScale
  3
ObjectDBX Classes
 90
1153
 91
0
280
0
281
0
  0
CLASS
  1
TABLESTYLE
  2
AcDbTableStyle
  3
ObjectDBX Classes
 90
4095
 91
0
280
0
281
0
  0
CLASS
  1
MLEADERSTYLE
  2
AcDbMLeaderStyle
  3
ACDB_MLEADERSTYLE_CLASS
 90
4095
 91
0
280
0
281
0
  0
CLASS
  1
DICTIONARYVAR
  2
AcDbDictionaryVar
  3
ObjectDBX Classes
 90
0
 91
0
280
0
281
0
  0
CLASS
  1
CELLSTYLEMAP
  2
AcDbCellStyleMap
  3
ObjectDBX Classes
 90
1152
 91
0
280
0
281
0
  0
CLASS
  1
MENTALRAYRENDERSETTINGS
  2
AcDbMentalRayRenderSettings
  3
SCENEOE
 90
1024
 91
0
280
0
281
0
  0
CLASS
  1
ACDBDETAILVIEWSTYLE
  2
AcDbDetailViewStyle
  3
ObjectDBX Classes
 90
1025
 91
0
280
0
281
0
  0
CLASS
  1
ACDBSECTIONVIEWSTYLE
  2
AcDbSectionViewStyle
  3
ObjectDBX Classes
 90
1025
 91
0
280
0
281
0
  0
CLASS
  1
RASTERVARIABLES
  2
AcDbRasterVariables
  3
ISM
 90
0
 91
0
280
0
281
0
  0
CLASS
  1
LAYOUT
  2
AcDbLayout
  3
ObjectDBX Classes
 90
0
 91
0
280
0
281
0
  0
CLASS
  1
ACDBPLACEHOLDER
  2
AcDbPlaceHolder
  3
ObjectDBX Classes
 90
0
 91
0
280
0
281
0
  0
ENDSEC
  0
SECTION
  2
TABLES
  0
TABLE
  2
VPORT
  5
8
330
0
100
AcDbSymbolTable
 70
1
  0
VPORT
  5
23
330
8
100
AcDbSymbolTableRecord
100
AcDbViewportTableRecord
  2
*Active
 70
0
 10
0.0
 20
0.0
 11
1.0
 21
1.0
 12
0.0
 22
0.0
 13
0.0
 23
0.0
 14
0.5
 24
0.5
 15
0.5
 25
0.5
 16
0.0
 26
0.0
 36
1.0
 17
0.0
 27
0.0
 37
0.0
 40
1000.0
 41
1.34
 42
50.0
 43
0.0
 44
0.0
 50
0.0
 51
0.0
 71
0
 72
1000
 73
1
 74
3
 75
0
 76
0
 77
0
 78
0
281
0
 65
0
146
0.0
  0
ENDTAB
  0
TABLE
  2
LTYPE
  5
2
330
0
100
AcDbSymbolTable
 70
3
  0
LTYPE
  5
24
330
2
100
AcDbSymbolTableRecord
100
AcDbLinetypeTableRecord
  2
ByBlock
 70
0
  3

 72
65
 73
0
 40
0.0
  0
LTYPE
  5
25
330
2
100
AcDbSymbolTableRecord
100
AcDbLinetypeTableRecord
  2
ByLayer
 70
0
  3

 72
65
 73
0
 40
0.0
  0
LTYPE
  5
26
330
2
100
AcDbSymbolTableRecord
100
AcDbLinetypeTableRecord
  2
Continuous
 70
0
  3

 72
65
 73
0
 40
0.0
  0
ENDTAB
  0
TABLE
  2
LAYER
  5
1
330
0
100
AcDbSymbolTable
 70
18
  0
LAYER
  5
27
330
1
100
AcDbSymbolTableRecord
100
AcDbLayerTableRecord
  2
0
 70
0
 62
7
  6
Continuous
370
-3
390
13
347
21
  0
LAYER
  5
28
330
1
100
AcDbSymbolTableRecord
100
AcDbLayerTableRecord
  2
Defpoints
 70
0
 62
7
  6
Continuous
290
0
370
-3
390
13
347
21
  0
LAYER
  5
2F
330
1
100
AcDbSymbolTableRecord
100
AcDbLayerTableRecord
  2
SARR_3.5x7
 70
0
 62
7
  6
Continuous
370
-3
390
13
347
21
  0
LAYER
  5
30
330
1
100
AcDbSymbolTableRecord
100
AcDbLayerTableRecord
  2
Hachura
 70
0
 62
7
  6
Continuous
370
-3
390
13
347
21
  0
LAYER
  5
31
330
1
100
AcDbSymbolTableRecord
100
AcDbLayerTableRecord
  2
Madeira
 70
0
 62
7
  6
Continuous
370
-3
390
13
347
21
  0
LAYER
  5
32
330
1
100
AcDbSymbolTableRecord
100
AcDbLayerTableRecord
  2
TENSOR
 70
0
 62
7
  6
Continuous
370
-3
390
13
347
21
  0
LAYER
  5
33
330
1
100
AcDbSymbolTableRecord
100
AcDbLayerTableRecord
  2
Texto Seção
 70
0
 62
7
  6
Continuous
370
-3
390
13
347
21
  0
LAYER
  5
34
330
1
100
AcDbSymbolTableRecord
100
AcDbLayerTableRecord
  2
SARR_2.2x7
 70
0
 62
7
  6
Continuous
370
-3
390
13
347
21
  0
LAYER
  5
35
330
1
100
AcDbSymbolTableRecord
100
AcDbLayerTableRecord
  2
presilha
 70
0
 62
7
  6
Continuous
370
-3
390
13
347
21
  0
LAYER
  5
36
330
1
100
AcDbSymbolTableRecord
100
AcDbLayerTableRecord
  2
barrote
 70
0
 62
7
  6
Continuous
370
-3
390
13
347
21
  0
LAYER
  5
37
330
1
100
AcDbSymbolTableRecord
100
AcDbLayerTableRecord
  2
Cota Seção (2x)
 70
0
 62
7
  6
Continuous
370
-3
390
13
347
21
  0
LAYER
  5
38
330
1
100
AcDbSymbolTableRecord
100
AcDbLayerTableRecord
  2
detalhes
 70
0
 62
7
  6
Continuous
370
-3
390
13
347
21
  0
LAYER
  5
39
330
1
100
AcDbSymbolTableRecord
100
AcDbLayerTableRecord
  2
texto
 70
0
 62
7
  6
Continuous
370
-3
390
13
347
21
  0
LAYER
  5
3A
330
1
100
AcDbSymbolTableRecord
100
AcDbLayerTableRecord
  2
COTA
 70
0
 62
7
  6
Continuous
370
-3
390
13
347
21
  0
LAYER
  5
3B
330
1
100
AcDbSymbolTableRecord
100
AcDbLayerTableRecord
  2
Painéis
 70
0
 62
7
  6
Continuous
370
-3
390
13
347
21
  0
LAYER
  5
3C
330
1
100
AcDbSymbolTableRecord
100
AcDbLayerTableRecord
  2
5
 70
0
 62
7
  6
Continuous
370
-3
390
13
347
21
  0
LAYER
  5
3D
330
1
100
AcDbSymbolTableRecord
100
AcDbLayerTableRecord
  2
SCO-___-LAJ
 70
0
 62
7
  6
Continuous
370
-3
390
13
347
21
  0
LAYER
  5
3E
330
1
100
AcDbSymbolTableRecord
100
AcDbLayerTableRecord
  2
CONCRETO
 70
0
 62
7
  6
Continuous
370
-3
390
13
347
21
  0
ENDTAB
  0
TABLE
  2
STYLE
  5
5
330
0
100
AcDbSymbolTable
 70
1
  0
STYLE
  5
29
330
5
100
AcDbSymbolTableRecord
100
AcDbTextStyleTableRecord
  2
Standard
 70
0
 40
0.0
 41
1.0
 50
0.0
 71
0
 42
2.5
  3
txt
  4

  0
ENDTAB
  0
TABLE
  2
VIEW
  5
7
330
0
100
AcDbSymbolTable
 70
0
  0
ENDTAB
  0
TABLE
  2
UCS
  5
6
330
0
100
AcDbSymbolTable
 70
0
  0
ENDTAB
  0
TABLE
  2
APPID
  5
3
330
0
100
AcDbSymbolTable
 70
3
  0
APPID
  5
2A
330
3
100
AcDbSymbolTableRecord
100
AcDbRegAppTableRecord
  2
ACAD
 70
0
  0
APPID
  5
1B2
330
3
100
AcDbSymbolTableRecord
100
AcDbRegAppTableRecord
  2
HATCHBACKGROUNDCOLOR
 70
0
  0
APPID
  5
1B3
330
3
100
AcDbSymbolTableRecord
100
AcDbRegAppTableRecord
  2
EZDXF
 70
0
  0
ENDTAB
  0
TABLE
  2
DIMSTYLE
  5
4
330
0
100
AcDbSymbolTable
 70
1
100
AcDbDimStyleTable
  0
DIMSTYLE
105
2B
330
4
100
AcDbSymbolTableRecord
100
AcDbDimStyleTableRecord
  2
Standard
 70
0
 40
1.0
 41
2.5
 42
0.625
 43
3.75
 44
1.25
 45
0.0
 46
0.0
 47
0.0
 48
0.0
 49
2.5
140
2.5
141
2.5
142
0.0
143
0.03937007874
144
1.0
145
0.0
146
1.0
147
0.625
148
0.0
 69
0
 70
0
 71
0
 72
0
 73
0
 74
0
 75
0
 76
0
 77
1
 78
8
 79
3
170
0
171
3
172
1
173
0
174
0
175
0
176
0
177
0
178
0
179
2
271
2
272
2
273
2
274
3
275
0
276
0
277
2
278
44
279
0
280
0
281
0
282
0
283
0
284
8
285
0
286
0
288
0
289
3
290
0
371
-2
372
-2
  0
ENDTAB
  0
TABLE
  2
BLOCK_RECORD
  5
9
330
0
100
AcDbSymbolTable
 70
2
  0
BLOCK_RECORD
  5
17
330
9
100
AcDbSymbolTableRecord
100
AcDbBlockTableRecord
  2
*Model_Space
340
1A
 70
0
280
1
281
0
  0
BLOCK_RECORD
  5
1B
330
9
100
AcDbSymbolTableRecord
100
AcDbBlockTableRecord
  2
*Paper_Space
340
1E
 70
0
280
1
281
0
  0
ENDTAB
  0
ENDSEC
  0
SECTION
  2
BLOCKS
  0
BLOCK
  5
18
330
17
100
AcDbEntity
  8
0
100
AcDbBlockBegin
  2
*Model_Space
 70
0
 10
0.0
 20
0.0
 30
0.0
  3
*Model_Space
  1

  0
ENDBLK
  5
19
330
17
100
AcDbEntity
  8
0
100
AcDbBlockEnd
  0
BLOCK
  5
1C
330
1B
100
AcDbEntity
  8
0
100
AcDbBlockBegin
  2
*Paper_Space
 70
0
 10
0.0
 20
0.0
 30
0.0
  3
*Paper_Space
  1

  0
ENDBLK
  5
1D
330
1B
100
AcDbEntity
  8
0
100
AcDbBlockEnd
  0
ENDSEC
  0
SECTION
  2
ENTITIES
  0
LINE
  5
3F
330
17
100
AcDbEntity
  8
SARR_3.5x7
 62
81
370
25
100
AcDbLine
 10
5313.673068702505
 20
10009.09948950133
 30
0.0
 11
5313.673068702506
 21
9891.299489501347
 31
0.0
  0
LINE
  5
40
330
17
100
AcDbEntity
  8
SARR_3.5x7
 62
81
370
25
100
AcDbLine
 10
5286.673068702497
 20
10007.09948950138
 30
0.0
 11
5286.673068702527
 21
9891.299489501333
 31
0.0
  0
LINE
  5
41
330
17
100
AcDbEntity
  8
COTA
 62
241
370
25
100
AcDbLine
 10
4889.673068702506
 20
10300.45183393613
 30
0.0
 11
5457.173068702506
 21
10300.45183393613
 31
0.0
  0
LINE
  5
42
330
17
100
AcDbEntity
  8
SARR_2.2x7
 62
40
370
25
100
AcDbLine
 10
4904.673068702508
 20
10284.25183393613
 30
0.0
 11
5133.673068702508
 21
10284.25183393615
 31
0.0
  0
LINE
  5
43
330
17
100
AcDbEntity
  8
SARR_2.2x7
 62
40
370
25
100
AcDbLine
 10
5133.673068702508
 20
10284.25183393615
 30
0.0
 11
5442.173068702508
 21
10284.25183393613
 31
0.0
  0
LINE
  5
44
330
17
100
AcDbEntity
  8
COTA
 62
241
370
25
100
AcDbLine
 10
4889.673068702506
 20
10286.45183393613
 30
0.0
 11
4889.673068702506
 21
10300.45183393613
 31
0.0
  0
LINE
  5
45
330
17
100
AcDbEntity
  8
SARR_2.2x7
 62
40
370
25
100
AcDbLine
 10
4896.673068702511
 20
10166.45183393613
 30
0.0
 11
4896.673068702506
 21
10286.45183393613
 31
0.0
  0
LINE
  5
46
330
17
100
AcDbEntity
  8
SARR_2.2x7
 62
40
370
25
100
AcDbLine
 10
5450.17306870251
 20
10166.45183393613
 30
0.0
 11
5450.173068702507
 21
10286.45183393613
 31
0.0
  0
LINE
  5
47
330
17
100
AcDbEntity
  8
COTA
 62
241
370
25
100
AcDbLine
 10
5457.173068702506
 20
10286.45183393613
 30
0.0
 11
5457.173068702506
 21
10300.45183393613
 31
0.0
  0
LINE
  5
48
330
17
100
AcDbEntity
  8
SARR_3.5x7
 62
81
370
25
100
AcDbLine
 10
5442.173068702507
 20
10286.45183393617
 30
0.0
 11
5442.173068702423
 21
10166.45183393613
 31
0.0
  0
LINE
  5
49
330
17
100
AcDbEntity
  8
SARR_3.5x7
 62
81
370
25
100
AcDbLine
 10
5438.673068702509
 20
10284.25183393617
 30
0.0
 11
5438.673068702481
 21
10166.45183393613
 31
0.0
  0
LINE
  5
4A
330
17
100
AcDbEntity
  8
SARR_3.5x7
 62
81
370
25
100
AcDbLine
 10
5137.173068702537
 20
10284.25183393619
 30
0.0
 11
5137.173068702568
 21
10166.45183393614
 31
0.0
  0
LINE
  5
4B
330
17
100
AcDbEntity
  8
SARR_3.5x7
 62
81
370
25
100
AcDbLine
 10
5130.17306870245
 20
10284.25183393625
 30
0.0
 11
5130.173068702423
 21
10166.45183393614
 31
0.0
  0
LINE
  5
4C
330
17
100
AcDbEntity
  8
SARR_3.5x7
 62
81
370
25
100
AcDbLine
 10
4904.673068702507
 20
10286.45183393614
 30
0.0
 11
4904.673068702511
 21
10166.45183393613
 31
0.0
  0
LINE
  5
4D
330
17
100
AcDbEntity
  8
SARR_3.5x7
 62
81
370
25
100
AcDbLine
 10
4908.173068702509
 20
10284.25183393615
 30
0.0
 11
4908.17306870251
 21
10166.45183393613
 31
0.0
  0
LINE
  5
4E
330
17
100
AcDbEntity
  8
SARR_3.5x7
 62
81
370
25
100
AcDbLine
 10
5133.673068702508
 20
10284.25183393615
 30
0.0
 11
5133.67306870251
 21
10166.45183393616
 31
0.0
  0
LINE
  5
4F
330
17
100
AcDbEntity
  8
SARR_3.5x7
 62
81
370
25
100
AcDbLine
 10
5130.173068702423
 20
10166.45183393614
 30
0.0
 11
5133.67306870251
 21
10166.45183393614
 31
0.0
  0
LINE
  5
50
330
17
100
AcDbEntity
  8
SARR_3.5x7
 62
81
370
25
100
AcDbLine
 10
5133.67306870251
 20
10166.45183393614
 30
0.0
 11
5137.173068702568
 21
10166.45183393614
 31
0.0
  0
LINE
  5
51
330
17
100
AcDbEntity
  8
SARR_3.5x7
 62
81
370
25
100
AcDbLine
 10
4904.673068702511
 20
10166.45183393613
 30
0.0
 11
4908.17306870251
 21
10166.45183393613
 31
0.0
  0
LINE
  5
52
330
17
100
AcDbEntity
  8
Painéis
 62
200
370
25
100
AcDbLine
 10
4889.673068702506
 20
10286.45183393613
 30
0.0
 11
5457.173068702506
 21
10286.45183393613
 31
0.0
  0
LINE
  5
53
330
17
100
AcDbEntity
  8
Painéis
 62
200
370
25
100
AcDbLine
 10
4889.67306870251
 20
10166.45183393613
 30
0.0
 11
5457.17306870251
 21
10166.45183393613
 31
0.0
  0
LINE
  5
54
330
17
100
AcDbEntity
  8
Painéis
 62
200
370
25
100
AcDbLine
 10
4889.67306870251
 20
10166.45183393613
 30
0.0
 11
4889.673068702506
 21
10286.45183393613
 31
0.0
  0
LINE
  5
55
330
17
100
AcDbEntity
  8
Painéis
 62
200
370
25
100
AcDbLine
 10
5133.67306870251
 20
10166.45183393614
 30
0.0
 11
5133.673068702506
 21
10286.45183393614
 31
0.0
  0
LINE
  5
56
330
17
100
AcDbEntity
  8
Painéis
 62
200
370
25
100
AcDbLine
 10
5457.17306870251
 20
10166.45183393613
 30
0.0
 11
5457.173068702506
 21
10286.45183393613
 31
0.0
  0
LINE
  5
57
330
17
100
AcDbEntity
  8
0
 62
7
370
25
100
AcDbLine
 10
4461.962257449855
 20
10083.76519764568
 30
0.0
 11
4461.962257449855
 21
10071.76519764568
 31
0.0
  0
LINE
  5
58
330
17
100
AcDbEntity
  8
0
 62
7
370
25
100
AcDbLine
 10
4759.962257449884
 20
10080.7651976457
 30
0.0
 11
4759.962257449884
 21
10074.7651976457
 31
0.0
  0
LINE
  5
59
330
17
100
AcDbEntity
  8
0
 62
7
370
25
100
AcDbLine
 10
4757.962257449884
 20
10083.76519764569
 30
0.0
 11
4757.962257449884
 21
10071.7651976457
 31
0.0
  0
LINE
  5
5A
330
17
100
AcDbEntity
  8
0
 62
7
370
25
100
AcDbLine
 10
4757.962257449884
 20
10074.7651976457
 30
0.0
 11
4759.962257449884
 21
10074.7651976457
 31
0.0
  0
LINE
  5
5B
330
17
100
AcDbEntity
  8
0
 62
7
370
25
100
AcDbLine
 10
4461.962257449855
 20
10071.76519764568
 30
0.0
 11
4491.962257449855
 21
10071.76519764568
 31
0.0
  0
LINE
  5
5C
330
17
100
AcDbEntity
  8
0
 62
7
370
25
100
AcDbLine
 10
4727.962257449884
 20
10076.7651976457
 30
0.0
 11
4757.962257449884
 21
10076.7651976457
 31
0.0
  0
LINE
  5
5D
330
17
100
AcDbEntity
  8
0
 62
7
370
25
100
AcDbLine
 10
4727.962257449884
 20
10078.7651976457
 30
0.0
 11
4757.962257449884
 21
10078.7651976457
 31
0.0
  0
LINE
  5
5E
330
17
100
AcDbEntity
  8
TENSOR
 62
3
370
25
100
AcDbLine
 10
4762.962257449884
 20
10077.76519764568
 30
0.0
 11
4456.658963271757
 21
10077.76519764568
 31
0.0
  0
LINE
  5
5F
330
17
100
AcDbEntity
  8
0
 62
7
370
25
100
AcDbLine
 10
4757.962257449884
 20
10080.7651976457
 30
0.0
 11
4759.962257449884
 21
10080.7651976457
 31
0.0
  0
LINE
  5
60
330
17
100
AcDbEntity
  8
0
 62
7
370
25
100
AcDbLine
 10
4491.962257449855
 20
10076.76519764568
 30
0.0
 11
4461.962257449855
 21
10076.76519764568
 31
0.0
  0
LINE
  5
61
330
17
100
AcDbEntity
  8
0
 62
7
370
25
100
AcDbLine
 10
4491.962257449855
 20
10078.76519764568
 30
0.0
 11
4461.962257449855
 21
10078.76519764568
 31
0.0
  0
LINE
  5
62
330
17
100
AcDbEntity
  8
0
 62
7
370
25
100
AcDbLine
 10
4461.962257449855
 20
10083.76519764568
 30
0.0
 11
4491.962257449855
 21
10083.76519764568
 31
0.0
  0
LINE
  5
63
330
17
100
AcDbEntity
  8
0
 62
7
370
25
100
AcDbLine
 10
4757.962257449884
 20
10071.7651976457
 30
0.0
 11
4727.962257449884
 21
10071.7651976457
 31
0.0
  0
LINE
  5
64
330
17
100
AcDbEntity
  8
0
 62
7
370
25
100
AcDbLine
 10
4757.962257449884
 20
10083.76519764569
 30
0.0
 11
4727.962257449884
 21
10083.76519764569
 31
0.0
  0
LINE
  5
65
330
17
100
AcDbEntity
  8
0
 62
7
370
25
100
AcDbLine
 10
4459.962257449855
 20
10080.76519764568
 30
0.0
 11
4459.962257449855
 21
10074.76519764568
 31
0.0
  0
LINE
  5
66
330
17
100
AcDbEntity
  8
0
 62
7
370
25
100
AcDbLine
 10
4461.962257449855
 20
10074.76519764568
 30
0.0
 11
4459.962257449855
 21
10074.76519764568
 31
0.0
  0
LINE
  5
67
330
17
100
AcDbEntity
  8
0
 62
7
370
25
100
AcDbLine
 10
4459.962257449855
 20
10080.76519764568
 30
0.0
 11
4461.962257449855
 21
10080.76519764568
 31
0.0
  0
LINE
  5
68
330
17
100
AcDbEntity
  8
0
 62
7
370
25
100
AcDbLine
 10
4461.962257449855
 20
10163.76519764568
 30
0.0
 11
4461.962257449855
 21
10151.76519764568
 31
0.0
  0
LINE
  5
69
330
17
100
AcDbEntity
  8
0
 62
7
370
25
100
AcDbLine
 10
4759.962257449884
 20
10160.7651976457
 30
0.0
 11
4759.962257449884
 21
10154.7651976457
 31
0.0
  0
LINE
  5
6A
330
17
100
AcDbEntity
  8
0
 62
7
370
25
100
AcDbLine
 10
4757.962257449884
 20
10163.76519764569
 30
0.0
 11
4757.962257449884
 21
10151.7651976457
 31
0.0
  0
LINE
  5
6B
330
17
100
AcDbEntity
  8
0
 62
7
370
25
100
AcDbLine
 10
4757.962257449884
 20
10154.7651976457
 30
0.0
 11
4759.962257449884
 21
10154.7651976457
 31
0.0
  0
LINE
  5
6C
330
17
100
AcDbEntity
  8
0
 62
7
370
25
100
AcDbLine
 10
4461.962257449855
 20
10151.76519764568
 30
0.0
 11
4491.962257449855
 21
10151.76519764568
 31
0.0
  0
LINE
  5
6D
330
17
100
AcDbEntity
  8
0
 62
7
370
25
100
AcDbLine
 10
4727.962257449884
 20
10156.7651976457
 30
0.0
 11
4757.962257449884
 21
10156.7651976457
 31
0.0
  0
LINE
  5
6E
330
17
100
AcDbEntity
  8
0
 62
7
370
25
100
AcDbLine
 10
4727.962257449884
 20
10158.7651976457
 30
0.0
 11
4757.962257449884
 21
10158.7651976457
 31
0.0
  0
LINE
  5
6F
330
17
100
AcDbEntity
  8
TENSOR
 62
3
370
25
100
AcDbLine
 10
4762.962257449884
 20
10157.76519764568
 30
0.0
 11
4456.658963271757
 21
10157.76519764568
 31
0.0
  0
LINE
  5
70
330
17
100
AcDbEntity
  8
0
 62
7
370
25
100
AcDbLine
 10
4757.962257449884
 20
10160.7651976457
 30
0.0
 11
4759.962257449884
 21
10160.7651976457
 31
0.0
  0
LINE
  5
71
330
17
100
AcDbEntity
  8
0
 62
7
370
25
100
AcDbLine
 10
4491.962257449855
 20
10156.76519764568
 30
0.0
 11
4461.962257449855
 21
10156.76519764568
 31
0.0
  0
LINE
  5
72
330
17
100
AcDbEntity
  8
0
 62
7
370
25
100
AcDbLine
 10
4491.962257449855
 20
10158.76519764568
 30
0.0
 11
4461.962257449855
 21
10158.76519764568
 31
0.0
  0
LINE
  5
73
330
17
100
AcDbEntity
  8
0
 62
7
370
25
100
AcDbLine
 10
4461.962257449855
 20
10163.76519764568
 30
0.0
 11
4491.962257449855
 21
10163.76519764568
 31
0.0
  0
LINE
  5
74
330
17
100
AcDbEntity
  8
0
 62
7
370
25
100
AcDbLine
 10
4757.962257449884
 20
10151.7651976457
 30
0.0
 11
4727.962257449884
 21
10151.7651976457
 31
0.0
  0
LINE
  5
75
330
17
100
AcDbEntity
  8
0
 62
7
370
25
100
AcDbLine
 10
4757.962257449884
 20
10163.76519764569
 30
0.0
 11
4727.962257449884
 21
10163.76519764569
 31
0.0
  0
LINE
  5
76
330
17
100
AcDbEntity
  8
0
 62
7
370
25
100
AcDbLine
 10
4459.962257449855
 20
10160.76519764568
 30
0.0
 11
4459.962257449855
 21
10154.76519764568
 31
0.0
  0
LINE
  5
77
330
17
100
AcDbEntity
  8
0
 62
7
370
25
100
AcDbLine
 10
4461.962257449855
 20
10154.76519764568
 30
0.0
 11
4459.962257449855
 21
10154.76519764568
 31
0.0
  0
LINE
  5
78
330
17
100
AcDbEntity
  8
0
 62
7
370
25
100
AcDbLine
 10
4459.962257449855
 20
10160.76519764568
 30
0.0
 11
4461.962257449855
 21
10160.76519764568
 31
0.0
  0
LINE
  5
79
330
17
100
AcDbEntity
  8
0
 62
7
370
25
100
AcDbLine
 10
4461.962257449855
 20
10243.76519764568
 30
0.0
 11
4461.962257449855
 21
10231.76519764568
 31
0.0
  0
LINE
  5
7A
330
17
100
AcDbEntity
  8
0
 62
7
370
25
100
AcDbLine
 10
4759.962257449884
 20
10240.7651976457
 30
0.0
 11
4759.962257449884
 21
10234.7651976457
 31
0.0
  0
LINE
  5
7B
330
17
100
AcDbEntity
  8
0
 62
7
370
25
100
AcDbLine
 10
4757.962257449884
 20
10243.7651976457
 30
0.0
 11
4757.962257449884
 21
10231.7651976457
 31
0.0
  0
LINE
  5
7C
330
17
100
AcDbEntity
  8
0
 62
7
370
25
100
AcDbLine
 10
4757.962257449884
 20
10234.7651976457
 30
0.0
 11
4759.962257449884
 21
10234.7651976457
 31
0.0
  0
LINE
  5
7D
330
17
100
AcDbEntity
  8
0
 62
7
370
25
100
AcDbLine
 10
4461.962257449855
 20
10231.76519764568
 30
0.0
 11
4491.962257449855
 21
10231.76519764568
 31
0.0
  0
LINE
  5
7E
330
17
100
AcDbEntity
  8
0
 62
7
370
25
100
AcDbLine
 10
4727.962257449884
 20
10236.7651976457
 30
0.0
 11
4757.962257449884
 21
10236.7651976457
 31
0.0
  0
LINE
  5
7F
330
17
100
AcDbEntity
  8
0
 62
7
370
25
100
AcDbLine
 10
4727.962257449884
 20
10238.7651976457
 30
0.0
 11
4757.962257449884
 21
10238.7651976457
 31
0.0
  0
LINE
  5
80
330
17
100
AcDbEntity
  8
TENSOR
 62
3
370
25
100
AcDbLine
 10
4762.962257449884
 20
10237.76519764568
 30
0.0
 11
4456.658963271757
 21
10237.76519764568
 31
0.0
  0
LINE
  5
81
330
17
100
AcDbEntity
  8
0
 62
7
370
25
100
AcDbLine
 10
4757.962257449884
 20
10240.7651976457
 30
0.0
 11
4759.962257449884
 21
10240.7651976457
 31
0.0
  0
LINE
  5
82
330
17
100
AcDbEntity
  8
0
 62
7
370
25
100
AcDbLine
 10
4491.962257449855
 20
10236.76519764568
 30
0.0
 11
4461.962257449855
 21
10236.76519764568
 31
0.0
  0
LINE
  5
83
330
17
100
AcDbEntity
  8
0
 62
7
370
25
100
AcDbLine
 10
4491.962257449855
 20
10238.76519764568
 30
0.0
 11
4461.962257449855
 21
10238.76519764568
 31
0.0
  0
LINE
  5
84
330
17
100
AcDbEntity
  8
0
 62
7
370
25
100
AcDbLine
 10
4461.962257449855
 20
10243.76519764568
 30
0.0
 11
4491.962257449855
 21
10243.76519764568
 31
0.0
  0
LINE
  5
85
330
17
100
AcDbEntity
  8
0
 62
7
370
25
100
AcDbLine
 10
4757.962257449884
 20
10231.7651976457
 30
0.0
 11
4727.962257449884
 21
10231.7651976457
 31
0.0
  0
LINE
  5
86
330
17
100
AcDbEntity
  8
0
 62
7
370
25
100
AcDbLine
 10
4757.962257449884
 20
10243.7651976457
 30
0.0
 11
4727.962257449884
 21
10243.7651976457
 31
0.0
  0
LINE
  5
87
330
17
100
AcDbEntity
  8
0
 62
7
370
25
100
AcDbLine
 10
4459.962257449855
 20
10240.76519764568
 30
0.0
 11
4459.962257449855
 21
10234.76519764568
 31
0.0
  0
LINE
  5
88
330
17
100
AcDbEntity
  8
0
 62
7
370
25
100
AcDbLine
 10
4461.962257449855
 20
10234.76519764568
 30
0.0
 11
4459.962257449855
 21
10234.76519764568
 31
0.0
  0
LINE
  5
89
330
17
100
AcDbEntity
  8
0
 62
7
370
25
100
AcDbLine
 10
4459.962257449855
 20
10240.76519764568
 30
0.0
 11
4461.962257449855
 21
10240.76519764568
 31
0.0
  0
LINE
  5
8A
330
17
100
AcDbEntity
  8
SARR_3.5x7
 62
81
370
25
100
AcDbLine
 10
5381.173068702537
 20
10284.25183393619
 30
0.0
 11
5381.173068702569
 21
10166.45183393614
 31
0.0
  0
LINE
  5
8B
330
17
100
AcDbEntity
  8
SARR_3.5x7
 62
81
370
25
100
AcDbLine
 10
5374.17306870245
 20
10284.25183393625
 30
0.0
 11
5374.173068702423
 21
10166.45183393614
 31
0.0
  0
LINE
  5
8C
330
17
100
AcDbEntity
  8
SARR_3.5x7
 62
81
370
25
100
AcDbLine
 10
5377.673068702509
 20
10284.25183393615
 30
0.0
 11
5377.67306870251
 21
10166.45183393616
 31
0.0
  0
LINE
  5
8D
330
17
100
AcDbEntity
  8
Painéis
 62
200
370
25
100
AcDbLine
 10
5377.67306870251
 20
10166.45183393614
 30
0.0
 11
5377.673068702506
 21
10286.45183393614
 31
0.0
  0
LINE
  5
8E
330
17
100
AcDbEntity
  8
SARR_3.5x7
 62
81
370
25
100
AcDbLine
 10
5411.67306870252
 20
10284.25183393613
 30
0.0
 11
5411.673068702437
 21
10166.45183393613
 31
0.0
  0
LINE
  5
8F
330
17
100
AcDbEntity
  8
SARR_3.5x7
 62
81
370
25
100
AcDbLine
 10
5408.173068702523
 20
10284.25183393617
 30
0.0
 11
5408.173068702495
 21
10166.45183393613
 31
0.0
  0
LINE
  5
90
330
17
100
AcDbEntity
  8
COTA
 62
241
370
25
100
AcDbLine
 10
4889.673068702506
 20
10025.29948950132
 30
0.0
 11
5457.173068702506
 21
10025.29948950132
 31
0.0
  0
LINE
  5
91
330
17
100
AcDbEntity
  8
SARR_2.2x7
 62
40
370
25
100
AcDbLine
 10
4904.673068702508
 20
10007.09948950132
 30
0.0
 11
5133.673068702508
 21
10007.09948950133
 31
0.0
  0
LINE
  5
92
330
17
100
AcDbEntity
  8
SARR_2.2x7
 62
40
370
25
100
AcDbLine
 10
5133.673068702508
 20
10007.09948950133
 30
0.0
 11
5286.673068702507
 21
10007.09948950132
 31
0.0
  0
LINE
  5
93
330
17
100
AcDbEntity
  8
SARR_2.2x7
 62
40
370
25
100
AcDbLine
 10
5313.673068702506
 20
10009.09948950133
 30
0.0
 11
5442.173068702508
 21
10009.09948950132
 31
0.0
  0
LINE
  5
94
330
17
100
AcDbEntity
  8
COTA
 62
241
370
25
100
AcDbLine
 10
4889.673068702506
 20
10009.29948950131
 30
0.0
 11
4889.673068702506
 21
10025.29948950132
 31
0.0
  0
LINE
  5
95
330
17
100
AcDbEntity
  8
SARR_2.2x7
 62
40
370
25
100
AcDbLine
 10
4896.673068702511
 20
9891.29948950132
 30
0.0
 11
4896.673068702506
 21
10009.29948950131
 31
0.0
  0
LINE
  5
96
330
17
100
AcDbEntity
  8
SARR_2.2x7
 62
40
370
25
100
AcDbLine
 10
5450.17306870251
 20
9891.29948950132
 30
0.0
 11
5450.173068702507
 21
10011.29948950131
 31
0.0
  0
LINE
  5
97
330
17
100
AcDbEntity
  8
COTA
 62
241
370
25
100
AcDbLine
 10
5457.173068702506
 20
10011.29948950131
 30
0.0
 11
5457.173068702506
 21
10025.29948950132
 31
0.0
  0
LINE
  5
98
330
17
100
AcDbEntity
  8
SARR_3.5x7
 62
81
370
25
100
AcDbLine
 10
5442.173068702507
 20
10011.29948950136
 30
0.0
 11
5442.173068702423
 21
9891.29948950132
 31
0.0
  0
LINE
  5
99
330
17
100
AcDbEntity
  8
SARR_3.5x7
 62
81
370
25
100
AcDbLine
 10
5438.673068702509
 20
10009.09948950136
 30
0.0
 11
5438.673068702481
 21
9891.29948950132
 31
0.0
  0
LINE
  5
9A
330
17
100
AcDbEntity
  8
SARR_3.5x7
 62
81
370
25
100
AcDbLine
 10
5137.173068702537
 20
10007.09948950138
 30
0.0
 11
5137.173068702568
 21
9891.299489501333
 31
0.0
  0
LINE
  5
9B
330
17
100
AcDbEntity
  8
SARR_3.5x7
 62
81
370
25
100
AcDbLine
 10
5130.17306870245
 20
10007.09948950144
 30
0.0
 11
5130.173068702423
 21
9891.299489501333
 31
0.0
  0
LINE
  5
9C
330
17
100
AcDbEntity
  8
SARR_3.5x7
 62
81
370
25
100
AcDbLine
 10
4904.673068702507
 20
10009.29948950133
 30
0.0
 11
4904.673068702511
 21
9891.29948950132
 31
0.0
  0
LINE
  5
9D
330
17
100
AcDbEntity
  8
SARR_3.5x7
 62
81
370
25
100
AcDbLine
 10
4908.173068702509
 20
10007.09948950133
 30
0.0
 11
4908.17306870251
 21
9891.29948950132
 31
0.0
  0
LINE
  5
9E
330
17
100
AcDbEntity
  8
SARR_3.5x7
 62
81
370
25
100
AcDbLine
 10
5133.673068702508
 20
10007.09948950133
 30
0.0
 11
5133.67306870251
 21
9891.299489501347
 31
0.0
  0
LINE
  5
9F
330
17
100
AcDbEntity
  8
SARR_3.5x7
 62
81
370
25
100
AcDbLine
 10
5130.173068702423
 20
9891.299489501333
 30
0.0
 11
5133.67306870251
 21
9891.299489501333
 31
0.0
  0
LINE
  5
A0
330
17
100
AcDbEntity
  8
SARR_3.5x7
 62
81
370
25
100
AcDbLine
 10
5133.67306870251
 20
9891.299489501333
 30
0.0
 11
5137.173068702568
 21
9891.299489501333
 31
0.0
  0
LINE
  5
A1
330
17
100
AcDbEntity
  8
SARR_3.5x7
 62
81
370
25
100
AcDbLine
 10
4904.673068702511
 20
9891.29948950132
 30
0.0
 11
4908.17306870251
 21
9891.29948950132
 31
0.0
  0
LINE
  5
A2
330
17
100
AcDbEntity
  8
Painéis
 62
200
370
25
100
AcDbLine
 10
4889.673068702506
 20
10009.29948950131
 30
0.0
 11
5286.673068702507
 21
10009.29948950131
 31
0.0
  0
LINE
  5
A3
330
17
100
AcDbEntity
  8
Painéis
 62
200
370
25
100
AcDbLine
 10
5313.673068702506
 20
10011.29948950131
 30
0.0
 11
5457.173068702506
 21
10011.29948950131
 31
0.0
  0
LINE
  5
A4
330
17
100
AcDbEntity
  8
Painéis
 62
200
370
25
100
AcDbLine
 10
4889.67306870251
 20
9891.29948950132
 30
0.0
 11
5457.17306870251
 21
9891.29948950132
 31
0.0
  0
LINE
  5
A5
330
17
100
AcDbEntity
  8
Painéis
 62
200
370
25
100
AcDbLine
 10
4889.67306870251
 20
9891.29948950132
 30
0.0
 11
4889.673068702506
 21
10009.29948950131
 31
0.0
  0
LINE
  5
A6
330
17
100
AcDbEntity
  8
Painéis
 62
200
370
25
100
AcDbLine
 10
5133.67306870251
 20
9891.299489501333
 30
0.0
 11
5133.673068702506
 21
10009.29948950133
 31
0.0
  0
LINE
  5
A7
330
17
100
AcDbEntity
  8
Painéis
 62
200
370
25
100
AcDbLine
 10
5457.17306870251
 20
9891.29948950132
 30
0.0
 11
5457.173068702506
 21
10011.29948950131
 31
0.0
  0
LINE
  5
A8
330
17
100
AcDbEntity
  8
Painéis
 62
200
370
25
100
AcDbLine
 10
5286.673068702507
 20
10009.29948950131
 30
0.0
 11
5286.673068702507
 21
9961.29948950132
 31
0.0
  0
LINE
  5
A9
330
17
100
AcDbEntity
  8
Painéis
 62
200
370
25
100
AcDbLine
 10
5286.673068702507
 20
9961.29948950132
 30
0.0
 11
5313.673068702506
 21
9961.29948950132
 31
0.0
  0
LINE
  5
AA
330
17
100
AcDbEntity
  8
Painéis
 62
200
370
25
100
AcDbLine
 10
5313.673068702506
 20
9891.299489501314
 30
0.0
 11
5313.673068702505
 21
10011.29948950131
 31
0.0
  0
LINE
  5
AB
330
17
100
AcDbEntity
  8
SARR_3.5x7
 62
81
370
25
100
AcDbLine
 10
5317.173068702533
 20
10009.09948950138
 30
0.0
 11
5317.173068702565
 21
9891.299489501333
 31
0.0
  0
LINE
  5
AC
330
17
100
AcDbEntity
  8
SARR_3.5x7
 62
81
370
25
100
AcDbLine
 10
5313.673068702506
 20
9891.299489501333
 30
0.0
 11
5317.173068702565
 21
9891.299489501333
 31
0.0
  0
LINE
  5
AD
330
17
100
AcDbEntity
  8
SARR_3.5x7
 62
81
370
25
100
AcDbLine
 10
5283.173068702467
 20
10007.09948950133
 30
0.0
 11
5283.17306870247
 21
9891.299489501347
 31
0.0
  0
LINE
  5
AE
330
17
100
AcDbEntity
  8
SARR_2.2x7
 62
40
370
25
100
AcDbLine
 10
5286.67306870251
 20
9959.099489501328
 30
0.0
 11
5313.673068702506
 21
9959.099489501328
 31
0.0
  0
LINE
  5
AF
330
17
100
AcDbEntity
  8
SARR_3.5x7
 62
81
370
25
100
AcDbLine
 10
5310.173068702468
 20
9959.099489501335
 30
0.0
 11
5310.173068702468
 21
9891.299489501314
 31
0.0
  0
LINE
  5
B0
330
17
100
AcDbEntity
  8
COTA
 62
4
370
25
100
AcDbLine
 10
4889.67306870251
 20
10163.45183393613
 30
0.0
 11
4889.67306870251
 21
10136.91190795797
 31
0.0
  0
LINE
  5
B1
330
17
100
AcDbEntity
  8
COTA
 62
4
370
25
100
AcDbLine
 10
5133.67306870251
 20
10163.45183393616
 30
0.0
 11
5133.67306870251
 21
10136.91190795797
 31
0.0
  0
LINE
  5
B2
330
17
100
AcDbEntity
  8
COTA
 62
4
370
25
100
AcDbLine
 10
4889.67306870251
 20
10139.91190795797
 30
0.0
 11
5133.67306870251
 21
10139.91190795797
 31
0.0
  0
LINE
  5
B3
330
17
100
AcDbEntity
  8
COTA
 62
0
370
25
100
AcDbLine
 10
4891.17306870251
 20
10141.41190795797
 30
0.0
 11
4888.17306870251
 21
10138.41190795797
 31
0.0
  0
LINE
  5
B4
330
17
100
AcDbEntity
  8
COTA
 62
0
370
25
100
AcDbLine
 10
5132.17306870251
 20
10138.41190795797
 30
0.0
 11
5135.17306870251
 21
10141.41190795797
 31
0.0
  0
LINE
  5
B5
330
17
100
AcDbEntity
  8
COTA
 62
4
370
25
100
AcDbLine
 10
5377.67306870251
 20
10163.45183393602
 30
0.0
 11
5377.67306870251
 21
10136.91190795796
 31
0.0
  0
LINE
  5
B6
330
17
100
AcDbEntity
  8
COTA
 62
4
370
25
100
AcDbLine
 10
5457.17306870251
 20
10163.45183393613
 30
0.0
 11
5457.17306870251
 21
10136.91190795796
 31
0.0
  0
LINE
  5
B7
330
17
100
AcDbEntity
  8
COTA
 62
4
370
25
100
AcDbLine
 10
5377.67306870251
 20
10139.91190795796
 30
0.0
 11
5457.17306870251
 21
10139.91190795796
 31
0.0
  0
LINE
  5
B8
330
17
100
AcDbEntity
  8
COTA
 62
0
370
25
100
AcDbLine
 10
5379.17306870251
 20
10141.41190795796
 30
0.0
 11
5376.17306870251
 21
10138.41190795796
 31
0.0
  0
LINE
  5
B9
330
17
100
AcDbEntity
  8
COTA
 62
0
370
25
100
AcDbLine
 10
5455.67306870251
 20
10138.41190795796
 30
0.0
 11
5458.67306870251
 21
10141.41190795796
 31
0.0
  0
LINE
  5
BA
330
17
100
AcDbEntity
  8
COTA
 62
4
370
25
100
AcDbLine
 10
4889.67306870251
 20
10163.45183393613
 30
0.0
 11
4889.67306870251
 21
10103.37339726923
 31
0.0
  0
LINE
  5
BB
330
17
100
AcDbEntity
  8
COTA
 62
4
370
25
100
AcDbLine
 10
5457.17306870251
 20
10163.45183393613
 30
0.0
 11
5457.17306870251
 21
10103.37339726923
 31
0.0
  0
LINE
  5
BC
330
17
100
AcDbEntity
  8
COTA
 62
4
370
25
100
AcDbLine
 10
4889.67306870251
 20
10106.37339726923
 30
0.0
 11
5457.17306870251
 21
10106.37339726923
 31
0.0
  0
LINE
  5
BD
330
17
100
AcDbEntity
  8
COTA
 62
0
370
25
100
AcDbLine
 10
4891.17306870251
 20
10107.87339726923
 30
0.0
 11
4888.17306870251
 21
10104.87339726923
 31
0.0
  0
LINE
  5
BE
330
17
100
AcDbEntity
  8
COTA
 62
0
370
25
100
AcDbLine
 10
5455.67306870251
 20
10104.87339726923
 30
0.0
 11
5458.67306870251
 21
10107.87339726923
 31
0.0
  0
LINE
  5
BF
330
17
100
AcDbEntity
  8
COTA
 62
4
370
25
100
AcDbLine
 10
4772.962257449857
 20
10295.79514011739
 30
0.0
 11
4789.833990207744
 21
10295.79514011739
 31
0.0
  0
LINE
  5
C0
330
17
100
AcDbEntity
  8
COTA
 62
4
370
25
100
AcDbLine
 10
4772.962257449857
 20
10267.79514011737
 30
0.0
 11
4789.833990207744
 21
10267.79514011737
 31
0.0
  0
LINE
  5
C1
330
17
100
AcDbEntity
  8
COTA
 62
4
370
25
100
AcDbLine
 10
4786.833990207744
 20
10295.79514011739
 30
0.0
 11
4786.833990207744
 21
10267.79514011737
 31
0.0
  0
LINE
  5
C2
330
17
100
AcDbEntity
  8
COTA
 62
4
370
25
100
AcDbLine
 10
4473.362257449909
 20
10027.79514011739
 30
0.0
 11
4398.985534360658
 21
10027.79514011739
 31
0.0
  0
LINE
  5
C3
330
17
100
AcDbEntity
  8
COTA
 62
4
370
25
100
AcDbLine
 10
4451.362257449909
 20
10295.79514011739
 30
0.0
 11
4398.985534360657
 21
10295.79514011739
 31
0.0
  0
LINE
  5
C4
330
17
100
AcDbEntity
  8
COTA
 62
4
370
25
100
AcDbLine
 10
4401.985534360658
 20
10027.79514011739
 30
0.0
 11
4401.985534360657
 21
10295.79514011739
 31
0.0
  0
LINE
  5
C5
330
17
100
AcDbEntity
  8
COTA
 62
4
370
25
100
AcDbLine
 10
4746.562257449892
 20
10027.79514011739
 30
0.0
 11
4789.833990208162
 21
10027.79514011739
 31
0.0
  0
LINE
  5
C6
330
17
100
AcDbEntity
  8
COTA
 62
4
370
25
100
AcDbLine
 10
4772.962257449857
 20
10263.79514011737
 30
0.0
 11
4789.833990208161
 21
10263.79514011737
 31
0.0
  0
LINE
  5
C7
330
17
100
AcDbEntity
  8
COTA
 62
4
370
25
100
AcDbLine
 10
4786.833990208163
 20
10027.79514011739
 30
0.0
 11
4786.833990208161
 21
10263.79514011737
 31
0.0
  0
LINE
  5
C8
330
17
100
AcDbEntity
  8
Cota Seção (2x)
 62
180
370
25
100
AcDbLine
 10
4705.96225744986
 20
10163.4123861892
 30
0.0
 11
4705.96225744986
 21
10188.4123861892
 31
0.0
  0
LINE
  5
C9
330
17
100
AcDbEntity
  8
Cota Seção (2x)
 62
180
370
25
100
AcDbLine
 10
4705.96225744986
 20
10188.4123861892
 30
0.0
 11
4690.96225744986
 21
10188.4123861892
 31
0.0
  0
LINE
  5
CA
330
17
100
AcDbEntity
  8
Cota Seção (2x)
 62
180
370
25
100
AcDbLine
 10
4690.96225744986
 20
10188.4123861892
 30
0.0
 11
4690.96225744986
 21
10163.4123861892
 31
0.0
  0
LINE
  5
CB
330
17
100
AcDbEntity
  8
Cota Seção (2x)
 62
180
370
25
100
AcDbLine
 10
4690.96225744986
 20
10163.4123861892
 30
0.0
 11
4705.96225744986
 21
10163.4123861892
 31
0.0
  0
LINE
  5
CC
330
17
100
AcDbEntity
  8
COTA
 62
4
370
25
100
AcDbLine
 10
4451.362257449909
 20
10295.79514011739
 30
0.0
 11
4418.304962846118
 21
10295.79514011739
 31
0.0
  0
LINE
  5
CD
330
17
100
AcDbEntity
  8
COTA
 62
4
370
25
100
AcDbLine
 10
4451.362257449909
 20
10271.79514011737
 30
0.0
 11
4418.304962846118
 21
10271.79514011737
 31
0.0
  0
LINE
  5
CE
330
17
100
AcDbEntity
  8
COTA
 62
4
370
25
100
AcDbLine
 10
4421.304962846118
 20
10295.79514011739
 30
0.0
 11
4421.304962846118
 21
10271.79514011737
 31
0.0
  0
LINE
  5
CF
330
17
100
AcDbEntity
  8
COTA
 62
4
370
25
100
AcDbLine
 10
4451.362257449909
 20
10267.79514011737
 30
0.0
 11
4418.304962846447
 21
10267.79514011737
 31
0.0
  0
LINE
  5
D0
330
17
100
AcDbEntity
  8
COTA
 62
4
370
25
100
AcDbLine
 10
4473.362257449909
 20
10027.79514011739
 30
0.0
 11
4418.304962846448
 21
10027.79514011739
 31
0.0
  0
LINE
  5
D1
330
17
100
AcDbEntity
  8
COTA
 62
4
370
25
100
AcDbLine
 10
4421.304962846448
 20
10267.79514011737
 30
0.0
 11
4421.304962846448
 21
10027.79514011739
 31
0.0
  0
LINE
  5
D2
330
17
100
AcDbEntity
  8
COTA
 62
4
370
25
100
AcDbLine
 10
4509.962257449884
 20
10024.79514011738
 30
0.0
 11
4509.962257449884
 21
9980.068326315202
 31
0.0
  0
LINE
  5
D3
330
17
100
AcDbEntity
  8
COTA
 62
4
370
25
100
AcDbLine
 10
4709.962257449884
 20
10024.79514011738
 30
0.0
 11
4709.962257449884
 21
9980.068326315202
 31
0.0
  0
LINE
  5
D4
330
17
100
AcDbEntity
  8
COTA
 62
4
370
25
100
AcDbLine
 10
4509.962257449884
 20
9983.068326315202
 30
0.0
 11
4709.962257449884
 21
9983.068326315202
 31
0.0
  0
LINE
  5
D5
330
17
100
AcDbEntity
  8
COTA
 62
4
370
25
100
AcDbLine
 10
4453.658963271759
 20
10077.76519764568
 30
0.0
 11
4435.104350002418
 21
10077.76519764568
 31
0.0
  0
LINE
  5
D6
330
17
100
AcDbEntity
  8
COTA
 62
4
370
25
100
AcDbLine
 10
4453.658963271759
 20
10027.79514011742
 30
0.0
 11
4435.104350002418
 21
10027.79514011742
 31
0.0
  0
LINE
  5
D7
330
17
100
AcDbEntity
  8
COTA
 62
4
370
25
100
AcDbLine
 10
4438.104350002418
 20
10077.76519764568
 30
0.0
 11
4438.104350002418
 21
10027.79514011742
 31
0.0
  0
LINE
  5
D8
330
17
100
AcDbEntity
  8
Cota Seção (2x)
 62
180
370
25
100
AcDbLine
 10
4603.214896360656
 20
10047.79514011739
 30
0.0
 11
4628.214896360655
 21
10047.79514011739
 31
0.0
  0
LINE
  5
D9
330
17
100
AcDbEntity
  8
Cota Seção (2x)
 62
180
370
25
100
AcDbLine
 10
4628.214896360655
 20
10047.79514011739
 30
0.0
 11
4628.214896360655
 21
10062.79514011739
 31
0.0
  0
LINE
  5
DA
330
17
100
AcDbEntity
  8
Cota Seção (2x)
 62
180
370
25
100
AcDbLine
 10
4628.214896360655
 20
10062.79514011739
 30
0.0
 11
4603.214896360656
 21
10062.79514011739
 31
0.0
  0
LINE
  5
DB
330
17
100
AcDbEntity
  8
Cota Seção (2x)
 62
180
370
25
100
AcDbLine
 10
4603.214896360656
 20
10062.79514011739
 30
0.0
 11
4603.214896360656
 21
10047.79514011739
 31
0.0
  0
LINE
  5
DC
330
17
100
AcDbEntity
  8
COTA
 62
4
370
25
100
AcDbLine
 10
4453.658963271759
 20
10157.76519764568
 30
0.0
 11
4435.104350002419
 21
10157.76519764568
 31
0.0
  0
LINE
  5
DD
330
17
100
AcDbEntity
  8
COTA
 62
4
370
25
100
AcDbLine
 10
4453.658963271759
 20
10077.79514011742
 30
0.0
 11
4435.104350002419
 21
10077.79514011742
 31
0.0
  0
LINE
  5
DE
330
17
100
AcDbEntity
  8
COTA
 62
4
370
25
100
AcDbLine
 10
4438.104350002419
 20
10157.76519764568
 30
0.0
 11
4438.104350002419
 21
10077.79514011742
 31
0.0
  0
LINE
  5
DF
330
17
100
AcDbEntity
  8
COTA
 62
4
370
25
100
AcDbLine
 10
4453.658963271759
 20
10237.76519764568
 30
0.0
 11
4435.104350002421
 21
10237.76519764568
 31
0.0
  0
LINE
  5
E0
330
17
100
AcDbEntity
  8
COTA
 62
4
370
25
100
AcDbLine
 10
4453.658963271759
 20
10157.79514011742
 30
0.0
 11
4435.104350002421
 21
10157.79514011742
 31
0.0
  0
LINE
  5
E1
330
17
100
AcDbEntity
  8
COTA
 62
4
370
25
100
AcDbLine
 10
4438.10435000242
 20
10237.76519764568
 30
0.0
 11
4438.10435000242
 21
10157.79514011742
 31
0.0
  0
LINE
  5
E2
330
17
100
AcDbEntity
  8
Painéis
 62
4
370
25
100
AcDbLine
 10
5460.173068702508
 20
10286.45183393613
 30
0.0
 11
5478.50417411064
 21
10286.45183393613
 31
0.0
  0
LINE
  5
E3
330
17
100
AcDbEntity
  8
Painéis
 62
4
370
25
100
AcDbLine
 10
5460.173068702508
 20
10300.45183393613
 30
0.0
 11
5478.50417411064
 21
10300.45183393613
 31
0.0
  0
LINE
  5
E4
330
17
100
AcDbEntity
  8
Painéis
 62
4
370
25
100
AcDbLine
 10
5475.504174110641
 20
10286.45183393613
 30
0.0
 11
5475.504174110641
 21
10300.45183393613
 31
0.0
  0
LINE
  5
E5
330
17
100
AcDbEntity
  8
Painéis
 62
4
370
25
100
AcDbLine
 10
5475.504174110641
 20
10300.45183393613
 30
0.0
 11
5475.504174110641
 21
10319.56879300046
 31
0.0
  0
LINE
  5
E6
330
17
100
AcDbEntity
  8
Painéis
 62
0
370
25
100
AcDbLine
 10
5474.004174110641
 20
10287.95183393613
 30
0.0
 11
5477.004174110641
 21
10284.95183393613
 31
0.0
  0
LINE
  5
E7
330
17
100
AcDbEntity
  8
Painéis
 62
0
370
25
100
AcDbLine
 10
5477.004174110641
 20
10298.95183393613
 30
0.0
 11
5474.004174110641
 21
10301.95183393613
 31
0.0
  0
LINE
  5
E8
330
17
100
AcDbEntity
  8
Painéis
 62
4
370
25
100
AcDbLine
 10
5460.173068702508
 20
10286.45183393613
 30
0.0
 11
5478.504174110643
 21
10286.45183393613
 31
0.0
  0
LINE
  5
E9
330
17
100
AcDbEntity
  8
Painéis
 62
4
370
25
100
AcDbLine
 10
5460.173068702512
 20
10166.45183393613
 30
0.0
 11
5478.504174110643
 21
10166.45183393613
 31
0.0
  0
LINE
  5
EA
330
17
100
AcDbEntity
  8
Painéis
 62
4
370
25
100
AcDbLine
 10
5475.504174110643
 20
10286.45183393613
 30
0.0
 11
5475.504174110643
 21
10166.45183393613
 31
0.0
  0
LINE
  5
EB
330
17
100
AcDbEntity
  8
Painéis
 62
0
370
25
100
AcDbLine
 10
5477.004174110643
 20
10284.95183393613
 30
0.0
 11
5474.004174110643
 21
10287.95183393613
 31
0.0
  0
LINE
  5
EC
330
17
100
AcDbEntity
  8
Painéis
 62
0
370
25
100
AcDbLine
 10
5474.004174110643
 20
10167.95183393613
 30
0.0
 11
5477.004174110643
 21
10164.95183393613
 31
0.0
  0
LINE
  5
ED
330
17
100
AcDbEntity
  8
Painéis
 62
4
370
25
100
AcDbLine
 10
5460.173068702508
 20
10300.45183393613
 30
0.0
 11
5503.704785710914
 21
10300.45183393613
 31
0.0
  0
LINE
  5
EE
330
17
100
AcDbEntity
  8
Painéis
 62
4
370
25
100
AcDbLine
 10
5460.173068702512
 20
10166.45183393613
 30
0.0
 11
5503.704785710915
 21
10166.45183393613
 31
0.0
  0
LINE
  5
EF
330
17
100
AcDbEntity
  8
Painéis
 62
4
370
25
100
AcDbLine
 10
5500.704785710915
 20
10300.45183393613
 30
0.0
 11
5500.704785710915
 21
10166.45183393613
 31
0.0
  0
LINE
  5
F0
330
17
100
AcDbEntity
  8
Painéis
 62
0
370
25
100
AcDbLine
 10
5502.204785710915
 20
10298.95183393613
 30
0.0
 11
5499.204785710915
 21
10301.95183393613
 31
0.0
  0
LINE
  5
F1
330
17
100
AcDbEntity
  8
Painéis
 62
0
370
25
100
AcDbLine
 10
5499.204785710915
 20
10167.95183393613
 30
0.0
 11
5502.204785710915
 21
10164.95183393613
 31
0.0
  0
LINE
  5
F2
330
17
100
AcDbEntity
  8
COTA
 62
4
370
25
100
AcDbLine
 10
5133.67306870251
 20
10163.45183393613
 30
0.0
 11
5133.67306870251
 21
10136.91190795797
 31
0.0
  0
LINE
  5
F3
330
17
100
AcDbEntity
  8
COTA
 62
4
370
25
100
AcDbLine
 10
5377.67306870251
 20
10163.45183393616
 30
0.0
 11
5377.67306870251
 21
10136.91190795797
 31
0.0
  0
LINE
  5
F4
330
17
100
AcDbEntity
  8
COTA
 62
4
370
25
100
AcDbLine
 10
5133.67306870251
 20
10139.91190795797
 30
0.0
 11
5377.67306870251
 21
10139.91190795797
 31
0.0
  0
LINE
  5
F5
330
17
100
AcDbEntity
  8
COTA
 62
0
370
25
100
AcDbLine
 10
5135.17306870251
 20
10141.41190795797
 30
0.0
 11
5132.17306870251
 21
10138.41190795797
 31
0.0
  0
LINE
  5
F6
330
17
100
AcDbEntity
  8
COTA
 62
0
370
25
100
AcDbLine
 10
5376.17306870251
 20
10138.41190795797
 30
0.0
 11
5379.17306870251
 21
10141.41190795797
 31
0.0
  0
LINE
  5
F7
330
17
100
AcDbEntity
  8
COTA
 62
4
370
25
100
AcDbLine
 10
4889.67306870251
 20
9888.29948950132
 30
0.0
 11
4889.67306870251
 21
9861.759563523163
 31
0.0
  0
LINE
  5
F8
330
17
100
AcDbEntity
  8
COTA
 62
4
370
25
100
AcDbLine
 10
5133.67306870251
 20
9888.299489501347
 30
0.0
 11
5133.67306870251
 21
9861.759563523163
 31
0.0
  0
LINE
  5
F9
330
17
100
AcDbEntity
  8
COTA
 62
4
370
25
100
AcDbLine
 10
4889.67306870251
 20
9864.759563523163
 30
0.0
 11
5133.67306870251
 21
9864.759563523163
 31
0.0
  0
LINE
  5
FA
330
17
100
AcDbEntity
  8
COTA
 62
0
370
25
100
AcDbLine
 10
4891.17306870251
 20
9866.259563523163
 30
0.0
 11
4888.17306870251
 21
9863.259563523163
 31
0.0
  0
LINE
  5
FB
330
17
100
AcDbEntity
  8
COTA
 62
0
370
25
100
AcDbLine
 10
5132.17306870251
 20
9863.259563523163
 30
0.0
 11
5135.17306870251
 21
9866.259563523163
 31
0.0
  0
LINE
  5
FC
330
17
100
AcDbEntity
  8
COTA
 62
4
370
25
100
AcDbLine
 10
5313.673068702506
 20
9888.299489501343
 30
0.0
 11
5313.673068702506
 21
9861.759563523148
 31
0.0
  0
LINE
  5
FD
330
17
100
AcDbEntity
  8
COTA
 62
4
370
25
100
AcDbLine
 10
5457.17306870251
 20
9888.29948950132
 30
0.0
 11
5457.17306870251
 21
9861.759563523148
 31
0.0
  0
LINE
  5
FE
330
17
100
AcDbEntity
  8
COTA
 62
4
370
25
100
AcDbLine
 10
5313.673068702506
 20
9864.759563523148
 30
0.0
 11
5457.17306870251
 21
9864.759563523148
 31
0.0
  0
LINE
  5
FF
330
17
100
AcDbEntity
  8
COTA
 62
0
370
25
100
AcDbLine
 10
5315.173068702506
 20
9866.259563523148
 30
0.0
 11
5312.173068702506
 21
9863.259563523148
 31
0.0
  0
LINE
  5
100
330
17
100
AcDbEntity
  8
COTA
 62
0
370
25
100
AcDbLine
 10
5455.67306870251
 20
9863.259563523148
 30
0.0
 11
5458.67306870251
 21
9866.259563523148
 31
0.0
  0
LINE
  5
101
330
17
100
AcDbEntity
  8
COTA
 62
4
370
25
100
AcDbLine
 10
4889.67306870251
 20
9888.29948950132
 30
0.0
 11
4889.67306870251
 21
9828.221052834415
 31
0.0
  0
LINE
  5
102
330
17
100
AcDbEntity
  8
COTA
 62
4
370
25
100
AcDbLine
 10
5457.17306870251
 20
9888.29948950132
 30
0.0
 11
5457.17306870251
 21
9828.221052834415
 31
0.0
  0
LINE
  5
103
330
17
100
AcDbEntity
  8
COTA
 62
4
370
25
100
AcDbLine
 10
4889.67306870251
 20
9831.221052834415
 30
0.0
 11
5457.17306870251
 21
9831.221052834415
 31
0.0
  0
LINE
  5
104
330
17
100
AcDbEntity
  8
COTA
 62
0
370
25
100
AcDbLine
 10
4891.17306870251
 20
9832.721052834415
 30
0.0
 11
4888.17306870251
 21
9829.721052834415
 31
0.0
  0
LINE
  5
105
330
17
100
AcDbEntity
  8
COTA
 62
0
370
25
100
AcDbLine
 10
5455.67306870251
 20
9829.721052834415
 30
0.0
 11
5458.67306870251
 21
9832.721052834415
 31
0.0
  0
LINE
  5
106
330
17
100
AcDbEntity
  8
Painéis
 62
4
370
25
100
AcDbLine
 10
5460.173068702508
 20
10011.29948950132
 30
0.0
 11
5478.504174110642
 21
10011.29948950132
 31
0.0
  0
LINE
  5
107
330
17
100
AcDbEntity
  8
Painéis
 62
4
370
25
100
AcDbLine
 10
5460.173068702508
 20
10025.29948950132
 30
0.0
 11
5478.504174110642
 21
10025.29948950132
 31
0.0
  0
LINE
  5
108
330
17
100
AcDbEntity
  8
Painéis
 62
4
370
25
100
AcDbLine
 10
5475.504174110642
 20
10011.29948950132
 30
0.0
 11
5475.504174110642
 21
10025.29948950132
 31
0.0
  0
LINE
  5
109
330
17
100
AcDbEntity
  8
Painéis
 62
4
370
25
100
AcDbLine
 10
5475.504174110642
 20
10025.29948950132
 30
0.0
 11
5475.504174110642
 21
10044.41644856565
 31
0.0
  0
LINE
  5
10A
330
17
100
AcDbEntity
  8
Painéis
 62
0
370
25
100
AcDbLine
 10
5474.004174110642
 20
10012.79948950132
 30
0.0
 11
5477.004174110642
 21
10009.79948950132
 31
0.0
  0
LINE
  5
10B
330
17
100
AcDbEntity
  8
Painéis
 62
0
370
25
100
AcDbLine
 10
5477.004174110642
 20
10023.79948950132
 30
0.0
 11
5474.004174110642
 21
10026.79948950132
 31
0.0
  0
LINE
  5
10C
330
17
100
AcDbEntity
  8
Painéis
 62
4
370
25
100
AcDbLine
 10
5460.173068702508
 20
10011.29948950132
 30
0.0
 11
5478.504174110645
 21
10011.29948950132
 31
0.0
  0
LINE
  5
10D
330
17
100
AcDbEntity
  8
Painéis
 62
4
370
25
100
AcDbLine
 10
5460.173068702512
 20
9891.299489501322
 30
0.0
 11
5478.504174110645
 21
9891.299489501322
 31
0.0
  0
LINE
  5
10E
330
17
100
AcDbEntity
  8
Painéis
 62
4
370
25
100
AcDbLine
 10
5475.504174110644
 20
10011.29948950132
 30
0.0
 11
5475.504174110644
 21
9891.299489501322
 31
0.0
  0
LINE
  5
10F
330
17
100
AcDbEntity
  8
Painéis
 62
0
370
25
100
AcDbLine
 10
5477.004174110644
 20
10009.79948950132
 30
0.0
 11
5474.004174110644
 21
10012.79948950132
 31
0.0
  0
LINE
  5
110
330
17
100
AcDbEntity
  8
Painéis
 62
0
370
25
100
AcDbLine
 10
5474.004174110644
 20
9892.799489501322
 30
0.0
 11
5477.004174110644
 21
9889.799489501322
 31
0.0
  0
LINE
  5
111
330
17
100
AcDbEntity
  8
Painéis
 62
4
370
25
100
AcDbLine
 10
5460.173068702508
 20
10025.29948950132
 30
0.0
 11
5503.704785710917
 21
10025.29948950132
 31
0.0
  0
LINE
  5
112
330
17
100
AcDbEntity
  8
Painéis
 62
4
370
25
100
AcDbLine
 10
5460.173068702512
 20
9891.299489501322
 30
0.0
 11
5503.704785710917
 21
9891.299489501322
 31
0.0
  0
LINE
  5
113
330
17
100
AcDbEntity
  8
Painéis
 62
4
370
25
100
AcDbLine
 10
5500.704785710917
 20
10025.29948950132
 30
0.0
 11
5500.704785710917
 21
9891.299489501322
 31
0.0
  0
LINE
  5
114
330
17
100
AcDbEntity
  8
Painéis
 62
0
370
25
100
AcDbLine
 10
5502.204785710917
 20
10023.79948950132
 30
0.0
 11
5499.204785710917
 21
10026.79948950132
 31
0.0
  0
LINE
  5
115
330
17
100
AcDbEntity
  8
Painéis
 62
0
370
25
100
AcDbLine
 10
5499.204785710917
 20
9892.799489501322
 30
0.0
 11
5502.204785710917
 21
9889.799489501322
 31
0.0
  0
LINE
  5
116
330
17
100
AcDbEntity
  8
COTA
 62
4
370
25
100
AcDbLine
 10
5133.67306870251
 20
9888.29948950132
 30
0.0
 11
5133.67306870251
 21
9861.759563523163
 31
0.0
  0
LINE
  5
117
330
17
100
AcDbEntity
  8
COTA
 62
4
370
25
100
AcDbLine
 10
5313.673068702506
 20
9888.299489501343
 30
0.0
 11
5313.673068702506
 21
9861.759563523163
 31
0.0
  0
LINE
  5
118
330
17
100
AcDbEntity
  8
COTA
 62
4
370
25
100
AcDbLine
 10
5133.67306870251
 20
9864.759563523163
 30
0.0
 11
5313.673068702506
 21
9864.759563523163
 31
0.0
  0
LINE
  5
119
330
17
100
AcDbEntity
  8
COTA
 62
0
370
25
100
AcDbLine
 10
5135.17306870251
 20
9866.259563523163
 30
0.0
 11
5132.17306870251
 21
9863.259563523163
 31
0.0
  0
LINE
  5
11A
330
17
100
AcDbEntity
  8
COTA
 62
0
370
25
100
AcDbLine
 10
5312.173068702506
 20
9863.259563523163
 30
0.0
 11
5315.173068702506
 21
9866.259563523163
 31
0.0
  0
LINE
  5
11B
330
17
100
AcDbEntity
  8
Painéis
 62
4
370
25
100
AcDbLine
 10
5283.673068702508
 20
10009.29948950132
 30
0.0
 11
5272.575772284138
 21
10009.29948950132
 31
0.0
  0
LINE
  5
11C
330
17
100
AcDbEntity
  8
Painéis
 62
4
370
25
100
AcDbLine
 10
5283.673068702508
 20
9961.299489501322
 30
0.0
 11
5272.575772284138
 21
9961.299489501322
 31
0.0
  0
LINE
  5
11D
330
17
100
AcDbEntity
  8
Painéis
 62
4
370
25
100
AcDbLine
 10
5275.575772284138
 20
10009.29948950132
 30
0.0
 11
5275.575772284138
 21
9961.299489501322
 31
0.0
  0
LINE
  5
11E
330
17
100
AcDbEntity
  8
Painéis
 62
0
370
25
100
AcDbLine
 10
5277.075772284138
 20
10007.79948950132
 30
0.0
 11
5274.075772284138
 21
10010.79948950132
 31
0.0
  0
LINE
  5
11F
330
17
100
AcDbEntity
  8
Painéis
 62
0
370
25
100
AcDbLine
 10
5274.075772284138
 20
9962.799489501322
 30
0.0
 11
5277.075772284138
 21
9959.799489501322
 31
0.0
  0
LINE
  5
120
330
17
100
AcDbEntity
  8
Painéis
 62
4
370
25
100
AcDbLine
 10
4886.673068702508
 20
10009.29948950132
 30
0.0
 11
4868.341963294386
 21
10009.29948950132
 31
0.0
  0
LINE
  5
121
330
17
100
AcDbEntity
  8
Painéis
 62
4
370
25
100
AcDbLine
 10
4886.673068702515
 20
10025.29948950132
 30
0.0
 11
4868.341963294386
 21
10025.29948950132
 31
0.0
  0
LINE
  5
122
330
17
100
AcDbEntity
  8
Painéis
 62
4
370
25
100
AcDbLine
 10
4871.341963294386
 20
10009.29948950132
 30
0.0
 11
4871.341963294386
 21
10025.29948950132
 31
0.0
  0
LINE
  5
123
330
17
100
AcDbEntity
  8
Painéis
 62
4
370
25
100
AcDbLine
 10
4871.341963294386
 20
10025.29948950132
 30
0.0
 11
4871.341963294386
 21
10044.31410938436
 31
0.0
  0
LINE
  5
124
330
17
100
AcDbEntity
  8
Painéis
 62
0
370
25
100
AcDbLine
 10
4869.841963294386
 20
10010.79948950132
 30
0.0
 11
4872.841963294386
 21
10007.79948950132
 31
0.0
  0
LINE
  5
125
330
17
100
AcDbEntity
  8
Painéis
 62
0
370
25
100
AcDbLine
 10
4872.841963294386
 20
10023.79948950132
 30
0.0
 11
4869.841963294386
 21
10026.79948950132
 31
0.0
  0
LINE
  5
126
330
17
100
AcDbEntity
  8
Painéis
 62
4
370
25
100
AcDbLine
 10
4886.673068702508
 20
10009.29948950132
 30
0.0
 11
4868.341963294383
 21
10009.29948950132
 31
0.0
  0
LINE
  5
127
330
17
100
AcDbEntity
  8
Painéis
 62
4
370
25
100
AcDbLine
 10
4886.673068702512
 20
9891.299489501322
 30
0.0
 11
4868.341963294383
 21
9891.299489501322
 31
0.0
  0
LINE
  5
128
330
17
100
AcDbEntity
  8
Painéis
 62
4
370
25
100
AcDbLine
 10
4871.341963294383
 20
10009.29948950132
 30
0.0
 11
4871.341963294383
 21
9891.299489501322
 31
0.0
  0
LINE
  5
129
330
17
100
AcDbEntity
  8
Painéis
 62
0
370
25
100
AcDbLine
 10
4872.841963294383
 20
10007.79948950132
 30
0.0
 11
4869.841963294383
 21
10010.79948950132
 31
0.0
  0
LINE
  5
12A
330
17
100
AcDbEntity
  8
Painéis
 62
0
370
25
100
AcDbLine
 10
4869.841963294383
 20
9892.799489501322
 30
0.0
 11
4872.841963294383
 21
9889.799489501322
 31
0.0
  0
LINE
  5
12B
330
17
100
AcDbEntity
  8
Painéis
 62
4
370
25
100
AcDbLine
 10
4886.673068702515
 20
10025.29948950132
 30
0.0
 11
4843.141351694108
 21
10025.29948950132
 31
0.0
  0
LINE
  5
12C
330
17
100
AcDbEntity
  8
Painéis
 62
4
370
25
100
AcDbLine
 10
4886.673068702512
 20
9891.299489501322
 30
0.0
 11
4843.141351694108
 21
9891.299489501322
 31
0.0
  0
LINE
  5
12D
330
17
100
AcDbEntity
  8
Painéis
 62
4
370
25
100
AcDbLine
 10
4846.141351694108
 20
10025.29948950132
 30
0.0
 11
4846.141351694108
 21
9891.299489501322
 31
0.0
  0
LINE
  5
12E
330
17
100
AcDbEntity
  8
Painéis
 62
0
370
25
100
AcDbLine
 10
4847.641351694108
 20
10023.79948950132
 30
0.0
 11
4844.641351694108
 21
10026.79948950132
 31
0.0
  0
LINE
  5
12F
330
17
100
AcDbEntity
  8
Painéis
 62
0
370
25
100
AcDbLine
 10
4844.641351694108
 20
9892.799489501322
 30
0.0
 11
4847.641351694108
 21
9889.799489501322
 31
0.0
  0
LINE
  5
130
330
17
100
AcDbEntity
  8
Texto Seção
 62
252
370
15
100
AcDbLine
 10
4612.162257449881
 20
10295.79514011739
 30
0.0
 11
4612.162257449881
 21
10420.79514011739
 31
0.0
  0
LINE
  5
131
330
17
100
AcDbEntity
  8
presilha
 62
1
370
25
100
AcDbLine
 10
4488.095058315342
 20
10027.16180678409
 30
0.0
 11
4488.095058315342
 21
10022.561966784106
 31
0.0
  0
LINE
  5
132
330
17
100
AcDbEntity
  8
presilha
 62
1
370
25
100
AcDbLine
 10
4488.095058315342
 20
10022.561966784106
 30
0.0
 11
4468.09469381099
 21
10022.561966784098
 31
0.0
  0
LINE
  5
133
330
17
100
AcDbEntity
  8
presilha
 62
1
370
25
100
AcDbLine
 10
4467.09469381099
 20
10030.161806784092
 30
0.0
 11
4468.09469381099
 21
10030.161806784092
 31
0.0
  0
LINE
  5
134
330
17
100
AcDbEntity
  8
presilha
 62
1
370
25
100
AcDbLine
 10
4468.09469381099
 20
10030.161806784092
 30
0.0
 11
4468.09469381099
 21
10018.161806784092
 31
0.0
  0
LINE
  5
135
330
17
100
AcDbEntity
  8
presilha
 62
1
370
25
100
AcDbLine
 10
4468.09469381099
 20
10018.161806784092
 30
0.0
 11
4467.09469381099
 21
10018.161806784092
 31
0.0
  0
LINE
  5
136
330
17
100
AcDbEntity
  8
presilha
 62
1
370
25
100
AcDbLine
 10
4467.09469381099
 20
10018.161806784092
 30
0.0
 11
4467.09469381099
 21
10030.161806784092
 31
0.0
  0
LINE
  5
137
330
17
100
AcDbEntity
  8
presilha
 62
1
370
25
100
AcDbLine
 10
4471.094693810988
 20
10033.828473450758
 30
0.0
 11
4471.094693810988
 21
10032.828473450758
 31
0.0
  0
LINE
  5
138
330
17
100
AcDbEntity
  8
presilha
 62
1
370
25
100
AcDbLine
 10
4488.095058315342
 20
10027.16180678409
 30
0.0
 11
4469.475058315342
 21
10027.16180678409
 31
0.0
  0
LINE
  5
139
330
17
100
AcDbEntity
  8
presilha
 62
1
370
25
100
AcDbLine
 10
4468.095058315342
 20
10026.92180678409
 30
0.0
 11
4468.094693810988
 21
10033.06847345076
 31
0.0
  0
LINE
  5
13A
330
17
100
AcDbEntity
  8
presilha
 62
1
370
25
100
AcDbLine
 10
4469.095058315341
 20
10027.541806784091
 30
0.0
 11
4469.094693810988
 21
10032.448473450757
 31
0.0
  0
LINE
  5
13B
330
17
100
AcDbEntity
  8
presilha
 62
1
370
25
100
AcDbLine
 10
4471.094693810988
 20
10033.828473450758
 30
0.0
 11
4468.8546938109685
 21
10033.828473450758
 31
0.0
  0
LINE
  5
13C
330
17
100
AcDbEntity
  8
presilha
 62
1
370
25
100
AcDbLine
 10
4471.094693810988
 20
10032.828473450758
 30
0.0
 11
4469.474693810988
 21
10032.828473450758
 31
0.0
  0
LINE
  5
13D
330
17
100
AcDbEntity
  8
presilha
 62
1
370
25
100
AcDbLine
 10
4463.094693810989
 20
10028.495140117426
 30
0.0
 11
4467.094693810989
 21
10028.495140117426
 31
0.0
  0
LINE
  5
13E
330
17
100
AcDbEntity
  8
presilha
 62
1
370
25
100
AcDbLine
 10
4467.094693810989
 20
10028.495140117426
 30
0.0
 11
4467.094693810989
 21
10019.82847345076
 31
0.0
  0
LINE
  5
13F
330
17
100
AcDbEntity
  8
presilha
 62
1
370
25
100
AcDbLine
 10
4467.094693810989
 20
10019.82847345076
 30
0.0
 11
4463.094693810989
 21
10019.82847345076
 31
0.0
  0
LINE
  5
140
330
17
100
AcDbEntity
  8
presilha
 62
1
370
25
100
AcDbLine
 10
4463.094693810989
 20
10028.495140117426
 30
0.0
 11
4463.094693810989
 21
10019.82847345076
 31
0.0
  0
LINE
  5
141
330
17
100
AcDbEntity
  8
presilha
 62
1
370
25
100
AcDbLine
 10
4731.829456584425
 20
10027.16180678409
 30
0.0
 11
4731.829456584425
 21
10022.561966784106
 31
0.0
  0
LINE
  5
142
330
17
100
AcDbEntity
  8
presilha
 62
1
370
25
100
AcDbLine
 10
4731.829456584425
 20
10022.561966784106
 30
0.0
 11
4751.829821088777
 21
10022.561966784098
 31
0.0
  0
LINE
  5
143
330
17
100
AcDbEntity
  8
presilha
 62
1
370
25
100
AcDbLine
 10
4752.829821088777
 20
10030.161806784092
 30
0.0
 11
4751.829821088777
 21
10030.161806784092
 31
0.0
  0
LINE
  5
144
330
17
100
AcDbEntity
  8
presilha
 62
1
370
25
100
AcDbLine
 10
4751.829821088777
 20
10030.161806784092
 30
0.0
 11
4751.829821088777
 21
10018.161806784092
 31
0.0
  0
LINE
  5
145
330
17
100
AcDbEntity
  8
presilha
 62
1
370
25
100
AcDbLine
 10
4751.829821088777
 20
10018.161806784092
 30
0.0
 11
4752.829821088777
 21
10018.161806784092
 31
0.0
  0
LINE
  5
146
330
17
100
AcDbEntity
  8
presilha
 62
1
370
25
100
AcDbLine
 10
4752.829821088777
 20
10018.161806784092
 30
0.0
 11
4752.829821088777
 21
10030.161806784092
 31
0.0
  0
LINE
  5
147
330
17
100
AcDbEntity
  8
presilha
 62
1
370
25
100
AcDbLine
 10
4748.829821088779
 20
10033.828473450758
 30
0.0
 11
4748.829821088779
 21
10032.828473450758
 31
0.0
  0
LINE
  5
148
330
17
100
AcDbEntity
  8
presilha
 62
1
370
25
100
AcDbLine
 10
4731.829456584425
 20
10027.16180678409
 30
0.0
 11
4750.449456584425
 21
10027.16180678409
 31
0.0
  0
LINE
  5
149
330
17
100
AcDbEntity
  8
presilha
 62
1
370
25
100
AcDbLine
 10
4751.829456584425
 20
10026.92180678409
 30
0.0
 11
4751.829821088779
 21
10033.06847345076
 31
0.0
  0
LINE
  5
14A
330
17
100
AcDbEntity
  8
presilha
 62
1
370
25
100
AcDbLine
 10
4750.829456584426
 20
10027.541806784091
 30
0.0
 11
4750.829821088779
 21
10032.448473450757
 31
0.0
  0
LINE
  5
14B
330
17
100
AcDbEntity
  8
presilha
 62
1
370
25
100
AcDbLine
 10
4748.829821088779
 20
10033.828473450758
 30
0.0
 11
4751.069821088799
 21
10033.828473450758
 31
0.0
  0
LINE
  5
14C
330
17
100
AcDbEntity
  8
presilha
 62
1
370
25
100
AcDbLine
 10
4748.829821088779
 20
10032.828473450758
 30
0.0
 11
4750.449821088779
 21
10032.828473450758
 31
0.0
  0
LINE
  5
14D
330
17
100
AcDbEntity
  8
presilha
 62
1
370
25
100
AcDbLine
 10
4756.829821088778
 20
10028.495140117426
 30
0.0
 11
4752.829821088778
 21
10028.495140117426
 31
0.0
  0
LINE
  5
14E
330
17
100
AcDbEntity
  8
presilha
 62
1
370
25
100
AcDbLine
 10
4752.829821088778
 20
10028.495140117426
 30
0.0
 11
4752.829821088778
 21
10019.82847345076
 31
0.0
  0
LINE
  5
14F
330
17
100
AcDbEntity
  8
presilha
 62
1
370
25
100
AcDbLine
 10
4752.829821088778
 20
10019.82847345076
 30
0.0
 11
4756.829821088778
 21
10019.82847345076
 31
0.0
  0
LINE
  5
150
330
17
100
AcDbEntity
  8
presilha
 62
1
370
25
100
AcDbLine
 10
4756.829821088778
 20
10028.495140117426
 30
0.0
 11
4756.829821088778
 21
10019.82847345076
 31
0.0
  0
LWPOLYLINE
  5
151
330
17
100
AcDbEntity
  8
Painéis
 62
200
370
25
100
AcDbPolyline
 90
4
 70
1
 10
4505.962257449884
 20
10267.79514011737
 10
4509.962257449884
 20
10267.79514011737
 10
4509.962257449884
 20
10027.79514011739
 10
4505.962257449884
 20
10027.79514011739
  0
LWPOLYLINE
  5
152
330
17
100
AcDbEntity
  8
Madeira
 62
126
370
18
100
AcDbPolyline
 90
4
 70
1
 10
4505.962257449884
 20
10263.39514011737
 10
4505.962257449884
 20
10267.79514011737
 10
4491.962257449884
 20
10267.79514011737
 10
4491.962257449884
 20
10263.39514011737
  0
LWPOLYLINE
  5
153
330
17
100
AcDbEntity
  8
Madeira
 62
126
370
18
100
AcDbPolyline
 90
4
 70
1
 10
4471.962257449884
 20
10027.79514011739
 10
4471.962257449884
 20
10032.19514011738
 10
4491.962257449884
 20
10032.19514011738
 10
4491.962257449884
 20
10027.79514011739
  0
LWPOLYLINE
  5
154
330
17
100
AcDbEntity
  8
Madeira
 62
126
370
18
100
AcDbPolyline
 90
4
 70
1
 10
4505.962257449884
 20
10267.79514011737
 10
4491.962257449884
 20
10267.79514011737
 10
4491.962257449884
 20
10027.79514011739
 10
4505.962257449884
 20
10027.79514011739
  0
LWPOLYLINE
  5
155
330
17
100
AcDbEntity
  8
Madeira
 62
126
370
18
100
AcDbPolyline
 90
4
 70
1
 10
4709.962257449884
 20
10027.79514011739
 10
4709.962257449884
 20
10032.19514011738
 10
4695.962257449884
 20
10032.19514011738
 10
4695.962257449884
 20
10027.79514011739
  0
LWPOLYLINE
  5
156
330
17
100
AcDbEntity
  8
Painéis
 62
200
370
25
100
AcDbPolyline
 90
4
 70
1
 10
4709.962257449884
 20
10032.19514011738
 10
4709.962257449884
 20
10035.79514011739
 10
4509.962257449884
 20
10035.79514011739
 10
4509.962257449884
 20
10032.19514011738
  0
LWPOLYLINE
  5
157
330
17
100
AcDbEntity
  8
Madeira
 62
126
370
18
100
AcDbPolyline
 90
4
 70
1
 10
4509.962257449884
 20
10027.79514011739
 10
4509.962257449884
 20
10032.19514011738
 10
4523.962257449884
 20
10032.19514011738
 10
4523.962257449884
 20
10027.79514011739
  0
LWPOLYLINE
  5
158
330
17
100
AcDbEntity
  8
Painéis
 62
200
370
25
100
AcDbPolyline
 90
4
 70
1
 10
4713.962257449884
 20
10263.79514011737
 10
4709.962257449884
 20
10263.79514011737
 10
4709.962257449884
 20
10027.79514011739
 10
4713.962257449884
 20
10027.79514011739
  0
LWPOLYLINE
  5
159
330
17
100
AcDbEntity
  8
Painéis
 62
200
370
25
100
AcDbPolyline
 90
4
 70
1
 10
4769.962257449855
 20
10263.79514011737
 10
4769.962257449855
 20
10267.79514011737
 10
4709.962257449884
 20
10267.79514011737
 10
4709.962257449884
 20
10263.79514011737
  0
LWPOLYLINE
  5
15A
330
17
100
AcDbEntity
  8
Madeira
 62
126
370
18
100
AcDbPolyline
 90
4
 70
1
 10
4713.962257449884
 20
10259.39514011737
 10
4713.962257449884
 20
10263.79514011737
 10
4727.962257449884
 20
10263.79514011737
 10
4727.962257449884
 20
10259.39514011737
  0
LWPOLYLINE
  5
15B
330
17
100
AcDbEntity
  8
Madeira
 62
126
370
18
100
AcDbPolyline
 90
4
 70
1
 10
4747.962257449884
 20
10027.79514011739
 10
4747.962257449884
 20
10032.19514011738
 10
4727.962257449884
 20
10032.19514011738
 10
4727.962257449884
 20
10027.79514011739
  0
LWPOLYLINE
  5
15C
330
17
100
AcDbEntity
  8
Madeira
 62
126
370
18
100
AcDbPolyline
 90
4
 70
1
 10
4713.962257449884
 20
10263.79514011737
 10
4727.962257449884
 20
10263.79514011737
 10
4727.962257449884
 20
10027.79514011739
 10
4713.962257449884
 20
10027.79514011739
  0
LWPOLYLINE
  5
15D
330
17
100
AcDbEntity
  8
Painéis
 62
200
370
25
100
AcDbPolyline
 90
4
 70
1
 10
4509.962257449884
 20
10267.79514011737
 10
4509.962257449884
 20
10271.79514011737
 10
4454.362257449907
 20
10271.79514011736
 10
4454.362257449907
 20
10267.79514011736
  0
LWPOLYLINE
  5
15E
330
17
100
AcDbEntity
  8
CONCRETO
 62
251
370
25
100
AcDbPolyline
 90
8
 70
1
 10
4454.362257449907
 20
10271.79514011736
 10
4454.362257449907
 20
10295.79514011739
 10
4769.962257449855
 20
10295.79514011739
 10
4769.962257449855
 20
10267.79514011737
 10
4709.962257449884
 20
10267.79514011737
 10
4709.962257449826
 20
10035.79514011739
 10
4509.962257449884
 20
10035.79514011739
 10
4509.962257449884
 20
10271.79514011737
  0
LWPOLYLINE
  5
15F
330
17
100
AcDbEntity
  8
barrote
 62
251
370
25
100
AcDbPolyline
 90
4
 70
1
 10
4438.50705977799
 20
10007.79514011743
 10
4795.690000287684
 20
10007.79514011743
 10
4795.690000287684
 20
10027.79514011739
 10
4438.50705977799
 20
10027.79514011739
  0
LWPOLYLINE
  5
160
330
17
100
AcDbEntity
  8
SCO-___-LAJ
 62
1
370
0
100
AcDbPolyline
 90
4
 70
1
 10
4447.509327193451
 20
10026.46172678406
 10
4776.815187706311
 20
10026.46172678406
 10
4776.815187706311
 20
10023.26204678408
 10
4447.509327193451
 20
10023.26204678409
  0
LWPOLYLINE
  5
161
330
17
100
AcDbEntity
  8
Madeira
 62
126
370
18
100
AcDbPolyline
 90
4
 70
1
 10
4575.112864460089
 20
10027.79514011739
 10
4575.112864460089
 20
10032.19514011738
 10
4589.112864460088
 20
10032.19514011738
 10
4589.112864460088
 20
10027.79514011739
  0
LWPOLYLINE
  5
162
330
17
100
AcDbEntity
  8
Madeira
 62
126
370
18
100
AcDbPolyline
 90
4
 70
1
 10
4636.385425264093
 20
10027.79514011739
 10
4636.385425264093
 20
10032.19514011738
 10
4650.385425264094
 20
10032.19514011738
 10
4650.385425264094
 20
10027.79514011739
  0
LWPOLYLINE
  5
163
330
17
100
AcDbEntity
  8
COTA
 62
0
370
25
100
AcDbPolyline
 90
2
 70
0
 10
4789.333990207744
 20
10293.29514011739
 10
4784.333990207744
 20
10298.29514011739
  0
LWPOLYLINE
  5
164
330
17
100
AcDbEntity
  8
COTA
 62
0
370
25
100
AcDbPolyline
 90
2
 70
0
 10
4784.333990207744
 20
10270.29514011737
 10
4789.333990207744
 20
10265.29514011737
  0
LWPOLYLINE
  5
165
330
17
100
AcDbEntity
  8
COTA
 62
0
370
25
100
AcDbPolyline
 90
2
 70
0
 10
4399.485534360658
 20
10030.29514011739
 10
4404.485534360658
 20
10025.29514011739
  0
LWPOLYLINE
  5
166
330
17
100
AcDbEntity
  8
COTA
 62
0
370
25
100
AcDbPolyline
 90
2
 70
0
 10
4404.485534360657
 20
10293.29514011739
 10
4399.485534360657
 20
10298.29514011739
  0
LWPOLYLINE
  5
167
330
17
100
AcDbEntity
  8
COTA
 62
0
370
25
100
AcDbPolyline
 90
2
 70
0
 10
4784.333990208163
 20
10030.29514011739
 10
4789.333990208163
 20
10025.29514011739
  0
LWPOLYLINE
  5
168
330
17
100
AcDbEntity
  8
COTA
 62
0
370
25
100
AcDbPolyline
 90
2
 70
0
 10
4789.333990208161
 20
10261.29514011737
 10
4784.333990208161
 20
10266.29514011737
  0
LWPOLYLINE
  5
169
330
17
100
AcDbEntity
  8
COTA
 62
0
370
25
100
AcDbPolyline
 90
2
 70
0
 10
4423.804962846118
 20
10293.29514011739
 10
4418.804962846118
 20
10298.29514011739
  0
LWPOLYLINE
  5
16A
330
17
100
AcDbEntity
  8
COTA
 62
0
370
25
100
AcDbPolyline
 90
2
 70
0
 10
4418.804962846118
 20
10274.29514011737
 10
4423.804962846118
 20
10269.29514011737
  0
LWPOLYLINE
  5
16B
330
17
100
AcDbEntity
  8
COTA
 62
0
370
25
100
AcDbPolyline
 90
2
 70
0
 10
4423.804962846448
 20
10265.29514011737
 10
4418.804962846448
 20
10270.29514011737
  0
LWPOLYLINE
  5
16C
330
17
100
AcDbEntity
  8
COTA
 62
0
370
25
100
AcDbPolyline
 90
2
 70
0
 10
4418.804962846448
 20
10030.29514011739
 10
4423.804962846448
 20
10025.29514011739
  0
LWPOLYLINE
  5
16D
330
17
100
AcDbEntity
  8
COTA
 62
0
370
25
100
AcDbPolyline
 90
2
 70
0
 10
4512.462257449884
 20
9985.568326315202
 10
4507.462257449884
 20
9980.568326315202
  0
LWPOLYLINE
  5
16E
330
17
100
AcDbEntity
  8
COTA
 62
0
370
25
100
AcDbPolyline
 90
2
 70
0
 10
4707.462257449884
 20
9980.568326315202
 10
4712.462257449884
 20
9985.568326315202
  0
LWPOLYLINE
  5
16F
330
17
100
AcDbEntity
  8
COTA
 62
0
370
25
100
AcDbPolyline
 90
2
 70
0
 10
4440.604350002418
 20
10075.26519764568
 10
4435.604350002418
 20
10080.26519764568
  0
LWPOLYLINE
  5
170
330
17
100
AcDbEntity
  8
COTA
 62
0
370
25
100
AcDbPolyline
 90
2
 70
0
 10
4435.604350002418
 20
10030.29514011742
 10
4440.604350002418
 20
10025.29514011742
  0
LWPOLYLINE
  5
171
330
17
100
AcDbEntity
  8
COTA
 62
0
370
25
100
AcDbPolyline
 90
2
 70
0
 10
4440.604350002419
 20
10155.26519764568
 10
4435.604350002419
 20
10160.26519764568
  0
LWPOLYLINE
  5
172
330
17
100
AcDbEntity
  8
COTA
 62
0
370
25
100
AcDbPolyline
 90
2
 70
0
 10
4435.604350002419
 20
10080.29514011742
 10
4440.604350002419
 20
10075.29514011742
  0
LWPOLYLINE
  5
173
330
17
100
AcDbEntity
  8
COTA
 62
0
370
25
100
AcDbPolyline
 90
2
 70
0
 10
4440.60435000242
 20
10235.26519764568
 10
4435.60435000242
 20
10240.26519764568
  0
LWPOLYLINE
  5
174
330
17
100
AcDbEntity
  8
COTA
 62
0
370
25
100
AcDbPolyline
 90
2
 70
0
 10
4435.60435000242
 20
10160.29514011742
 10
4440.60435000242
 20
10155.29514011742
  0
TEXT
  5
175
330
17
100
AcDbEntity
  8
texto
 62
2
370
25
100
AcDbText
 10
5016.031894488346
 20
10227.14687736561
 30
0.0
 40
8.0
  1
8 1/2pont
100
AcDbText
  0
TEXT
  5
176
330
17
100
AcDbEntity
  8
texto
 62
2
370
25
100
AcDbText
 10
5263.668923790419
 20
10227.66424421241
 30
0.0
 40
8.0
  1
8 1/2pont
100
AcDbText
  0
TEXT
  5
177
330
17
100
AcDbEntity
  8
5
 62
5
370
25
100
AcDbText
 10
5433.462763851713
 20
10084.4069697601
 30
0.0
 40
12.0
  1
V229
 50
3.55024762388e-05
100
AcDbText
  0
TEXT
  5
178
330
17
100
AcDbEntity
  8
5
 62
5
370
25
100
AcDbText
 10
4890.86808295146
 20
10088.44733550333
 30
0.0
 40
12.0
  1
V225
 50
359.9999644975238
100
AcDbText
  0
TEXT
  5
179
330
17
100
AcDbEntity
  8
Texto Seção
 62
7
370
15
100
AcDbText
 10
4894.905900613443
 20
10305.13423367164
 30
0.0
 40
13.0
  1
V203.A
100
AcDbText
  0
TEXT
  5
17A
330
17
100
AcDbEntity
  8
detalhes
 62
4
370
25
100
AcDbText
 10
4718.676740625922
 20
10140.50661138627
 30
0.0
 40
9.600000000000001
  1
b
100
AcDbText
  0
TEXT
  5
17B
330
17
100
AcDbEntity
  8
detalhes
 62
4
370
25
100
AcDbText
 10
4494.133081980186
 20
10140.51766883184
 30
0.0
 40
9.600000000000001
  1
a
100
AcDbText
  0
TEXT
  5
17C
330
17
100
AcDbEntity
  8
detalhes
 62
4
370
25
100
AcDbText
 10
4520.562523065329
 20
10038.03089363723
 30
0.0
 40
9.600000000000001
  1
c
100
AcDbText
  0
TEXT
  5
17D
330
17
100
AcDbEntity
  8
texto
 62
2
370
25
100
AcDbText
 10
5016.031894488346
 20
9951.994532930798
 30
0.0
 40
8.0
  1
8 1/2pont
100
AcDbText
  0
TEXT
  5
17E
330
17
100
AcDbEntity
  8
texto
 62
2
370
25
100
AcDbText
 10
5226.688871363148
 20
9952.5118997776
 30
0.0
 40
8.0
  1
6 1/2pont
100
AcDbText
  0
TEXT
  5
17F
330
17
100
AcDbEntity
  8
5
 62
5
370
25
100
AcDbText
 10
5415.689784823771
 20
9809.254625325293
 30
0.0
 40
12.0
  1
V225
 50
3.55024762388e-05
100
AcDbText
  0
TEXT
  5
180
330
17
100
AcDbEntity
  8
5
 62
5
370
25
100
AcDbText
 10
4890.86808295146
 20
9813.29499106852
 30
0.0
 40
12.0
  1
V229
 50
359.9999644975238
100
AcDbText
  0
TEXT
  5
181
330
17
100
AcDbEntity
  8
Texto Seção
 62
7
370
15
100
AcDbText
 10
4894.905900613443
 20
10029.98188923682
 30
0.0
 40
13.0
  1
V203.B
100
AcDbText
  0
TEXT
  5
182
330
17
100
AcDbEntity
  8
texto
 62
2
370
25
100
AcDbText
 10
5383.382858197407
 20
9952.5118997776
 30
0.0
 40
8.0
  1
5 1/2pont
100
AcDbText
  0
TEXT
  5
183
330
17
100
AcDbEntity
  8
COTA
 62
240
370
25
100
AcDbText
 10
5011.67306870251
 20
10147.98500737318
 30
0.0
 40
10.0
  1
244
100
AcDbText
  0
TEXT
  5
184
330
17
100
AcDbEntity
  8
COTA
 62
240
370
25
100
AcDbText
 10
5417.42306870251
 20
10148.05079684685
 30
0.0
 40
10.0
  1
79.5
100
AcDbText
  0
TEXT
  5
185
330
17
100
AcDbEntity
  8
COTA
 62
240
370
25
100
AcDbText
 10
5173.42306870251
 20
10114.48304639203
 30
0.0
 40
10.0
  1
567.5
100
AcDbText
  0
TEXT
  5
186
330
17
100
AcDbEntity
  8
COTA
 62
1
370
25
100
AcDbText
 10
4795.333990207747
 20
10281.79514011738
 30
0.0
 40
7.0
  1
14
 50
90.0
100
AcDbText
  0
TEXT
  5
187
330
17
100
AcDbEntity
  8
COTA
 62
1
370
25
100
AcDbText
 10
4410.48553436066
 20
10161.79514011739
 30
0.0
 40
7.0
  1
134
 50
90.0
100
AcDbText
  0
TEXT
  5
188
330
17
100
AcDbEntity
  8
COTA
 62
1
370
25
100
AcDbText
 10
4795.333990208164
 20
10145.79514011738
 30
0.0
 40
7.0
  1
118
 50
90.0
100
AcDbText
  0
TEXT
  5
189
330
17
100
AcDbEntity
  8
Cota Seção (2x)
 62
1
370
25
100
AcDbText
 10
4712.462257449861
 20
10175.91238618919
 30
0.0
 40
7.0
  1
130
 50
90.0
100
AcDbText
  0
TEXT
  5
18A
330
17
100
AcDbEntity
  8
COTA
 62
1
370
25
100
AcDbText
 10
4429.804962846121
 20
10283.79514011737
 30
0.0
 40
7.0
  1
12
 50
90.0
100
AcDbText
  0
TEXT
  5
18B
330
17
100
AcDbEntity
  8
COTA
 62
1
370
25
100
AcDbText
 10
4429.80496284645
 20
10147.79514011737
 30
0.0
 40
7.0
  1
120
 50
90.0
100
AcDbText
  0
TEXT
  5
18C
330
17
100
AcDbEntity
  8
COTA
 62
1
370
25
100
AcDbText
 10
4609.962257449884
 20
9988.568326315202
 30
0.0
 40
7.0
  1
100
100
AcDbText
  0
TEXT
  5
18D
330
17
100
AcDbEntity
  8
COTA
 62
1
370
25
100
AcDbText
 10
4446.60435000242
 20
10052.78016888155
 30
0.0
 40
7.0
  1
25
 50
90.0
100
AcDbText
  0
TEXT
  5
18E
330
17
100
AcDbEntity
  8
Cota Seção (2x)
 62
1
370
25
100
AcDbText
 10
4615.714896360656
 20
10055.29514011739
 30
0.0
 40
7.0
  1
100
100
AcDbText
  0
TEXT
  5
18F
330
17
100
AcDbEntity
  8
COTA
 62
1
370
25
100
AcDbText
 10
4446.604350002422
 20
10117.78016888155
 30
0.0
 40
7.0
  1
40
 50
90.0
100
AcDbText
  0
TEXT
  5
190
330
17
100
AcDbEntity
  8
COTA
 62
1
370
25
100
AcDbText
 10
4446.604350002423
 20
10197.78016888155
 30
0.0
 40
7.0
  1
40
 50
90.0
100
AcDbText
  0
TEXT
  5
191
330
17
100
AcDbEntity
  8
Painéis
 62
240
370
25
100
AcDbText
 10
5487.431074695439
 20
10311.51031346829
 30
0.0
 40
10.0
  1
14
 50
90.0
100
AcDbText
  0
TEXT
  5
192
330
17
100
AcDbEntity
  8
Painéis
 62
240
370
25
100
AcDbText
 10
5487.401834929358
 20
10226.45183393613
 30
0.0
 40
10.0
  1
120
 50
90.0
100
AcDbText
  0
TEXT
  5
193
330
17
100
AcDbEntity
  8
Painéis
 62
240
370
25
100
AcDbText
 10
5512.485487465303
 20
10233.45183393613
 30
0.0
 40
10.0
  1
134
 50
90.0
100
AcDbText
  0
TEXT
  5
194
330
17
100
AcDbEntity
  8
COTA
 62
240
370
25
100
AcDbText
 10
5255.67306870251
 20
10147.98500737318
 30
0.0
 40
10.0
  1
244
100
AcDbText
  0
TEXT
  5
195
330
17
100
AcDbEntity
  8
COTA
 62
240
370
25
100
AcDbText
 10
5011.67306870251
 20
9872.832662938368
 30
0.0
 40
10.0
  1
244
100
AcDbText
  0
TEXT
  5
196
330
17
100
AcDbEntity
  8
COTA
 62
240
370
25
100
AcDbText
 10
5385.423068702508
 20
9872.978861768765
 30
0.0
 40
10.0
  1
143.5
100
AcDbText
  0
TEXT
  5
197
330
17
100
AcDbEntity
  8
COTA
 62
240
370
25
100
AcDbText
 10
5173.42306870251
 20
9839.330701957222
 30
0.0
 40
10.0
  1
567.5
100
AcDbText
  0
TEXT
  5
198
330
17
100
AcDbEntity
  8
Painéis
 62
240
370
25
100
AcDbText
 10
5487.431074695439
 20
10036.35796903348
 30
0.0
 40
10.0
  1
14
 50
90.0
100
AcDbText
  0
TEXT
  5
199
330
17
100
AcDbEntity
  8
Painéis
 62
240
370
25
100
AcDbText
 10
5487.401834929359
 20
9951.299489501318
 30
0.0
 40
10.0
  1
120
 50
90.0
100
AcDbText
  0
TEXT
  5
19A
330
17
100
AcDbEntity
  8
Painéis
 62
240
370
25
100
AcDbText
 10
5512.485487465305
 20
9958.29948950132
 30
0.0
 40
10.0
  1
134
 50
90.0
100
AcDbText
  0
TEXT
  5
19B
330
17
100
AcDbEntity
  8
COTA
 62
240
370
25
100
AcDbText
 10
5223.673068702509
 20
9872.883832529013
 30
0.0
 40
10.0
  1
180
100
AcDbText
  0
TEXT
  5
19C
330
17
100
AcDbEntity
  8
Painéis
 62
240
370
25
100
AcDbText
 10
5287.480743044373
 20
9985.299489501318
 30
0.0
 40
10.0
  1
48
 50
90.0
100
AcDbText
  0
TEXT
  5
19D
330
17
100
AcDbEntity
  8
Painéis
 62
240
370
25
100
AcDbText
 10
4883.239624113101
 20
10036.30679944284
 30
0.0
 40
10.0
  1
16
 50
90.0
100
AcDbText
  0
TEXT
  5
19E
330
17
100
AcDbEntity
  8
Painéis
 62
240
370
25
100
AcDbText
 10
4883.246934054618
 20
9950.299489501318
 30
0.0
 40
10.0
  1
118
 50
90.0
100
AcDbText
  0
TEXT
  5
19F
330
17
100
AcDbEntity
  8
Painéis
 62
240
370
25
100
AcDbText
 10
4857.922053448496
 20
9958.29948950132
 30
0.0
 40
10.0
  1
134
 50
90.0
100
AcDbText
  0
TEXT
  5
1A0
330
17
100
AcDbEntity
  8
Texto Seção
 62
3
370
15
100
AcDbText
 10
4612.162257449881
 20
10367.243904490364
 30
0.0
 40
17.0
  1

100
AcDbText
  0
TEXT
  5
1A1
330
17
100
AcDbEntity
  8
Texto Seção
 62
3
370
15
100
AcDbText
 10
4612.162257449881
 20
10337.343319846043
 30
0.0
 40
12.0
  1

100
AcDbText
  0
TEXT
  5
1A2
330
17
100
AcDbEntity
  8
Texto Seção
 62
7
370
15
100
AcDbText
 10
4612.162257449881
 20
10311.371890957556
 30
0.0
 40
10.0
  1

100
AcDbText
  0
HATCH
  5
1A3
330
17
100
AcDbEntity
  8
COTA
 62
7
100
AcDbHatch
 10
0.0
 20
0.0
 30
0.0
210
0.0
220
0.0
230
1.0
  2
AR-CONC
 70
0
 71
0
 91
1
 92
3
 72
0
 73
1
 93
5
 10
5457.173068702506
 20
10300.45183393613
 10
5457.173068702506
 20
10286.45183393613
 10
4889.673068702506
 20
10286.45183393613
 10
4889.673068702506
 20
10300.45183393613
 10
5457.173068702506
 20
10300.45183393613
 97
0
 75
1
 76
1
 52
0.0
 41
1.0
 77
0
 78
13
 53
50.0
 43
0.0
 44
0.0
 45
182.184668996
 46
-15.9390855389
 79
2
 49
19.05
 49
-209.55
 53
355.0
 43
0.0
 44
0.0
 45
-35.243421425
 46
191.056845239
 79
2
 49
15.24
 49
-167.64058417
 53
100.4514447
 43
15.182007
 44
-1.3282535
 45
146.9412470904
 46
175.1177519122
 79
2
 49
16.1900088
 49
-178.0902446
 53
46.1842
 43
0.0
 44
50.8
 45
271.0790408921
 46
-42.0423279327
 79
2
 49
28.575
 49
-314.325
 53
96.63555761
 43
22.5899
 44
47.2965
 45
237.4041340515
 46
247.4261245977
 79
2
 49
24.28502314
 49
-267.13560816
 53
351.18415117
 43
0.0
 44
50.8
 45
237.404134065
 46
247.4261245855
 79
2
 49
22.85996707
 49
-251.45973192
 53
21.0
 43
25.4
 44
38.1
 45
151.6143912691
 46
-102.2651981871
 79
2
 49
19.05
 49
-209.55
 53
326.0
 43
25.4
 44
38.1
 45
61.8020283476
 46
184.1879661223
 79
2
 49
15.24
 49
-167.64
 53
71.451445
 43
38.0345326
 44
29.5779001
 45
213.4164192787
 46
81.9227688859
 79
2
 49
16.1900088
 49
-178.0899376
 53
37.5
 43
0.0
 44
0.0
 45
3.0886032506
 46
84.5550388732
 79
6
 49
0.0
 49
-165.608
 49
0.0
 49
-170.18
 49
0.0
 49
-168.275
 53
7.5
 43
0.0
 44
0.0
 45
66.8196625103
 46
100.1805748181
 79
6
 49
0.0
 49
-97.028
 49
0.0
 49
-161.798
 49
0.0
 49
-64.135
 53
-32.5
 43
-56.642
 44
0.0
 45
135.5905951669
 46
-5.7287439927
 79
6
 49
0.0
 49
-63.5
 49
0.0
 49
-198.12
 49
0.0
 49
-262.89
 53
-42.5
 43
-82.042
 44
0.0
 45
148.129181386
 46
25.4264910333
 79
6
 49
0.0
 49
-82.55
 49
0.0
 49
-131.572
 49
0.0
 49
-186.69
 98
0
  0
HATCH
  5
1A4
330
17
100
AcDbEntity
  8
Hachura
 62
7
100
AcDbHatch
 10
0.0
 20
0.0
 30
0.0
210
0.0
220
0.0
230
1.0
  2
SOLID
 70
1
 71
0
 91
1
 92
3
 72
0
 73
1
 93
5
 10
4505.962257449884
 20
10267.79514011737
 10
4509.962257449884
 20
10267.79514011737
 10
4509.962257449884
 20
10027.79514011739
 10
4505.962257449884
 20
10027.79514011739
 10
4505.962257449884
 20
10267.79514011737
 97
0
 75
1
 76
1
 98
0
  0
HATCH
  5
1A5
330
17
100
AcDbEntity
  8
Hachura
 62
7
100
AcDbHatch
 10
0.0
 20
0.0
 30
0.0
210
0.0
220
0.0
230
1.0
  2
ANSI31
 70
0
 71
0
 91
1
 92
3
 72
0
 73
1
 93
5
 10
4505.962257449884
 20
10263.39514011737
 10
4505.962257449884
 20
10267.79514011737
 10
4491.962257449884
 20
10267.79514011737
 10
4491.962257449884
 20
10263.39514011737
 10
4505.962257449884
 20
10263.39514011737
 97
0
 75
1
 76
1
 52
0.0
 41
1.0
 77
0
 78
1
 53
45.0
 43
0.0
 44
0.0
 45
-2.2450640303
 46
2.2450640303
 79
0
 98
0
  0
HATCH
  5
1A6
330
17
100
AcDbEntity
  8
Hachura
 62
7
100
AcDbHatch
 10
0.0
 20
0.0
 30
0.0
210
0.0
220
0.0
230
1.0
  2
ANSI31
 70
0
 71
0
 91
1
 92
3
 72
0
 73
1
 93
5
 10
4471.962257449884
 20
10027.79514011739
 10
4471.962257449884
 20
10032.19514011738
 10
4491.962257449884
 20
10032.19514011738
 10
4491.962257449884
 20
10027.79514011739
 10
4471.962257449884
 20
10027.79514011739
 97
0
 75
1
 76
1
 52
0.0
 41
1.0
 77
0
 78
1
 53
45.0
 43
0.0
 44
0.0
 45
-2.2450640303
 46
2.2450640303
 79
0
 98
0
  0
HATCH
  5
1A7
330
17
100
AcDbEntity
  8
Hachura
 62
7
100
AcDbHatch
 10
0.0
 20
0.0
 30
0.0
210
0.0
220
0.0
230
1.0
  2
ANSI31
 70
0
 71
0
 91
1
 92
3
 72
0
 73
1
 93
5
 10
4709.962257449884
 20
10027.79514011739
 10
4709.962257449884
 20
10032.19514011738
 10
4695.962257449884
 20
10032.19514011738
 10
4695.962257449884
 20
10027.79514011739
 10
4709.962257449884
 20
10027.79514011739
 97
0
 75
1
 76
1
 52
0.0
 41
1.0
 77
0
 78
1
 53
45.0
 43
0.0
 44
0.0
 45
-2.2450640303
 46
2.2450640303
 79
0
 98
0
  0
HATCH
  5
1A8
330
17
100
AcDbEntity
  8
Hachura
 62
7
100
AcDbHatch
 10
0.0
 20
0.0
 30
0.0
210
0.0
220
0.0
230
1.0
  2
SOLID
 70
1
 71
0
 91
1
 92
3
 72
0
 73
1
 93
5
 10
4709.962257449884
 20
10032.19514011738
 10
4709.962257449884
 20
10035.79514011739
 10
4509.962257449884
 20
10035.79514011739
 10
4509.962257449884
 20
10032.19514011738
 10
4709.962257449884
 20
10032.19514011738
 97
0
 75
1
 76
1
 98
0
  0
HATCH
  5
1A9
330
17
100
AcDbEntity
  8
Hachura
 62
7
100
AcDbHatch
 10
0.0
 20
0.0
 30
0.0
210
0.0
220
0.0
230
1.0
  2
ANSI31
 70
0
 71
0
 91
1
 92
3
 72
0
 73
1
 93
5
 10
4509.962257449884
 20
10027.79514011739
 10
4509.962257449884
 20
10032.19514011738
 10
4523.962257449884
 20
10032.19514011738
 10
4523.962257449884
 20
10027.79514011739
 10
4509.962257449884
 20
10027.79514011739
 97
0
 75
1
 76
1
 52
0.0
 41
1.0
 77
0
 78
1
 53
45.0
 43
0.0
 44
0.0
 45
-2.2450640303
 46
2.2450640303
 79
0
 98
0
  0
HATCH
  5
1AA
330
17
100
AcDbEntity
  8
Hachura
 62
7
100
AcDbHatch
 10
0.0
 20
0.0
 30
0.0
210
0.0
220
0.0
230
1.0
  2
SOLID
 70
1
 71
0
 91
1
 92
3
 72
0
 73
1
 93
5
 10
4713.962257449884
 20
10263.79514011737
 10
4709.962257449884
 20
10263.79514011737
 10
4709.962257449884
 20
10027.79514011739
 10
4713.962257449884
 20
10027.79514011739
 10
4713.962257449884
 20
10263.79514011737
 97
0
 75
1
 76
1
 98
0
  0
HATCH
  5
1AB
330
17
100
AcDbEntity
  8
Hachura
 62
7
100
AcDbHatch
 10
0.0
 20
0.0
 30
0.0
210
0.0
220
0.0
230
1.0
  2
SOLID
 70
1
 71
0
 91
1
 92
3
 72
0
 73
1
 93
5
 10
4769.962257449855
 20
10263.79514011737
 10
4769.962257449855
 20
10267.79514011737
 10
4709.962257449884
 20
10267.79514011737
 10
4709.962257449884
 20
10263.79514011737
 10
4769.962257449855
 20
10263.79514011737
 97
0
 75
1
 76
1
 98
0
  0
HATCH
  5
1AC
330
17
100
AcDbEntity
  8
Hachura
 62
7
100
AcDbHatch
 10
0.0
 20
0.0
 30
0.0
210
0.0
220
0.0
230
1.0
  2
ANSI31
 70
0
 71
0
 91
1
 92
3
 72
0
 73
1
 93
5
 10
4713.962257449884
 20
10259.39514011737
 10
4713.962257449884
 20
10263.79514011737
 10
4727.962257449884
 20
10263.79514011737
 10
4727.962257449884
 20
10259.39514011737
 10
4713.962257449884
 20
10259.39514011737
 97
0
 75
1
 76
1
 52
0.0
 41
1.0
 77
0
 78
1
 53
45.0
 43
0.0
 44
0.0
 45
-2.2450640303
 46
2.2450640303
 79
0
 98
0
  0
HATCH
  5
1AD
330
17
100
AcDbEntity
  8
Hachura
 62
7
100
AcDbHatch
 10
0.0
 20
0.0
 30
0.0
210
0.0
220
0.0
230
1.0
  2
ANSI31
 70
0
 71
0
 91
1
 92
3
 72
0
 73
1
 93
5
 10
4747.962257449884
 20
10027.79514011739
 10
4747.962257449884
 20
10032.19514011738
 10
4727.962257449884
 20
10032.19514011738
 10
4727.962257449884
 20
10027.79514011739
 10
4747.962257449884
 20
10027.79514011739
 97
0
 75
1
 76
1
 52
0.0
 41
1.0
 77
0
 78
1
 53
45.0
 43
0.0
 44
0.0
 45
-2.2450640303
 46
2.2450640303
 79
0
 98
0
  0
HATCH
  5
1AE
330
17
100
AcDbEntity
  8
Hachura
 62
7
100
AcDbHatch
 10
0.0
 20
0.0
 30
0.0
210
0.0
220
0.0
230
1.0
  2
SOLID
 70
1
 71
0
 91
1
 92
3
 72
0
 73
1
 93
5
 10
4509.962257449884
 20
10267.79514011737
 10
4509.962257449884
 20
10271.79514011737
 10
4454.362257449907
 20
10271.79514011736
 10
4454.362257449907
 20
10267.79514011736
 10
4509.962257449884
 20
10267.79514011737
 97
0
 75
1
 76
1
 98
0
  0
HATCH
  5
1AF
330
17
100
AcDbEntity
  8
COTA
 62
7
100
AcDbHatch
 10
0.0
 20
0.0
 30
0.0
210
0.0
220
0.0
230
1.0
  2
AR-CONC
 70
0
 71
0
 91
1
 92
3
 72
0
 73
1
 93
9
 10
5313.673068702506
 20
9961.29948950132
 10
5313.673068702506
 20
10011.29948950131
 10
5457.173068702506
 20
10011.29948950131
 10
5457.173068702506
 20
10025.29948950132
 10
4889.673068702506
 20
10025.29948950132
 10
4889.673068702506
 20
10009.29948950132
 10
5286.673068702507
 20
10009.29948950131
 10
5286.673068702507
 20
9961.299489501316
 10
5313.673068702506
 20
9961.29948950132
 97
0
 75
1
 76
1
 52
0.0
 41
1.0
 77
0
 78
13
 53
50.0
 43
0.0
 44
0.0
 45
182.184668996
 46
-15.9390855389
 79
2
 49
19.05
 49
-209.55
 53
355.0
 43
0.0
 44
0.0
 45
-35.243421425
 46
191.056845239
 79
2
 49
15.24
 49
-167.64058417
 53
100.4514447
 43
15.182007
 44
-1.3282535
 45
146.9412470904
 46
175.1177519122
 79
2
 49
16.1900088
 49
-178.0902446
 53
46.1842
 43
0.0
 44
50.8
 45
271.0790408921
 46
-42.0423279327
 79
2
 49
28.575
 49
-314.325
 53
96.63555761
 43
22.5899
 44
47.2965
 45
237.4041340515
 46
247.4261245977
 79
2
 49
24.28502314
 49
-267.13560816
 53
351.18415117
 43
0.0
 44
50.8
 45
237.404134065
 46
247.4261245855
 79
2
 49
22.85996707
 49
-251.45973192
 53
21.0
 43
25.4
 44
38.1
 45
151.6143912691
 46
-102.2651981871
 79
2
 49
19.05
 49
-209.55
 53
326.0
 43
25.4
 44
38.1
 45
61.8020283476
 46
184.1879661223
 79
2
 49
15.24
 49
-167.64
 53
71.451445
 43
38.0345326
 44
29.5779001
 45
213.4164192787
 46
81.9227688859
 79
2
 49
16.1900088
 49
-178.0899376
 53
37.5
 43
0.0
 44
0.0
 45
3.0886032506
 46
84.5550388732
 79
6
 49
0.0
 49
-165.608
 49
0.0
 49
-170.18
 49
0.0
 49
-168.275
 53
7.5
 43
0.0
 44
0.0
 45
66.8196625103
 46
100.1805748181
 79
6
 49
0.0
 49
-97.028
 49
0.0
 49
-161.798
 49
0.0
 49
-64.135
 53
-32.5
 43
-56.642
 44
0.0
 45
135.5905951669
 46
-5.7287439927
 79
6
 49
0.0
 49
-63.5
 49
0.0
 49
-198.12
 49
0.0
 49
-262.89
 53
-42.5
 43
-82.042
 44
0.0
 45
148.129181386
 46
25.4264910333
 79
6
 49
0.0
 49
-82.55
 49
0.0
 49
-131.572
 49
0.0
 49
-186.69
 98
0
  0
HATCH
  5
1B0
330
17
100
AcDbEntity
  8
Hachura
 62
7
100
AcDbHatch
 10
0.0
 20
0.0
 30
0.0
210
0.0
220
0.0
230
1.0
  2
ANSI31
 70
0
 71
0
 91
1
 92
3
 72
0
 73
1
 93
5
 10
4575.112864460089
 20
10027.79514011739
 10
4575.112864460089
 20
10032.19514011738
 10
4589.112864460088
 20
10032.19514011738
 10
4589.112864460088
 20
10027.79514011739
 10
4575.112864460089
 20
10027.79514011739
 97
0
 75
1
 76
1
 52
0.0
 41
1.0
 77
0
 78
1
 53
45.0
 43
0.0
 44
0.0
 45
-2.2450640303
 46
2.2450640303
 79
0
 98
0
  0
HATCH
  5
1B1
330
17
100
AcDbEntity
  8
Hachura
 62
7
100
AcDbHatch
 10
0.0
 20
0.0
 30
0.0
210
0.0
220
0.0
230
1.0
  2
ANSI31
 70
0
 71
0
 91
1
 92
3
 72
0
 73
1
 93
5
 10
4636.385425264093
 20
10027.79514011739
 10
4636.385425264093
 20
10032.19514011738
 10
4650.385425264094
 20
10032.19514011738
 10
4650.385425264094
 20
10027.79514011739
 10
4636.385425264093
 20
10027.79514011739
 97
0
 75
1
 76
1
 52
0.0
 41
1.0
 77
0
 78
1
 53
45.0
 43
0.0
 44
0.0
 45
-2.2450640303
 46
2.2450640303
 79
0
 98
0
  0
ENDSEC
  0
SECTION
  2
OBJECTS
  0
DICTIONARY
  5
A
330
0
100
AcDbDictionary
281
1
  3
ACAD_COLOR
350
B
  3
ACAD_GROUP
350
C
  3
ACAD_LAYOUT
350
D
  3
ACAD_MATERIAL
350
E
  3
ACAD_MLEADERSTYLE
350
F
  3
ACAD_MLINESTYLE
350
10
  3
ACAD_PLOTSETTINGS
350
11
  3
ACAD_PLOTSTYLENAME
350
12
  3
ACAD_SCALELIST
350
14
  3
ACAD_TABLESTYLE
350
15
  3
ACAD_VISUALSTYLE
350
16
  3
EZDXF_META
350
2D
  0
DICTIONARY
  5
B
330
A
100
AcDbDictionary
281
1
  0
DICTIONARY
  5
C
330
A
100
AcDbDictionary
281
1
  0
DICTIONARY
  5
D
330
A
100
AcDbDictionary
281
1
  3
Model
350
1A
  3
Layout1
350
1E
  0
DICTIONARY
  5
E
330
A
100
AcDbDictionary
281
1
  3
ByBlock
350
1F
  3
ByLayer
350
20
  3
Global
350
21
  0
DICTIONARY
  5
F
330
A
100
AcDbDictionary
281
1
  3
Standard
350
2C
  0
DICTIONARY
  5
10
330
A
100
AcDbDictionary
281
1
  3
Standard
350
22
  0
DICTIONARY
  5
11
330
A
100
AcDbDictionary
281
1
  0
ACDBDICTIONARYWDFLT
  5
12
330
A
100
AcDbDictionary
281
1
  3
Normal
350
13
100
AcDbDictionaryWithDefault
340
13
  0
ACDBPLACEHOLDER
  5
13
330
12
  0
DICTIONARY
  5
14
330
A
100
AcDbDictionary
281
1
  0
DICTIONARY
  5
15
330
A
100
AcDbDictionary
281
1
  0
DICTIONARY
  5
16
330
A
100
AcDbDictionary
281
1
  0
LAYOUT
  5
1A
330
D
100
AcDbPlotSettings
  1

  4
A3
  6

 40
7.5
 41
20.0
 42
7.5
 43
20.0
 44
420.0
 45
297.0
 46
0.0
 47
0.0
 48
0.0
 49
0.0
140
0.0
141
0.0
142
1.0
143
1.0
 70
1024
 72
1
 73
0
 74
5
  7

 75
16
 76
0
 77
2
 78
300
147
1.0
148
0.0
149
0.0
100
AcDbLayout
  1
Model
 70
1
 71
0
 10
0.0
 20
0.0
 11
420.0
 21
297.0
 12
0.0
 22
0.0
 32
0.0
 14
1e+20
 24
1e+20
 34
1e+20
 15
-1e+20
 25
-1e+20
 35
-1e+20
146
0.0
 13
0.0
 23
0.0
 33
0.0
 16
1.0
 26
0.0
 36
0.0
 17
0.0
 27
1.0
 37
0.0
 76
1
330
17
  0
LAYOUT
  5
1E
330
D
100
AcDbPlotSettings
  1

  4
A3
  6

 40
7.5
 41
20.0
 42
7.5
 43
20.0
 44
420.0
 45
297.0
 46
0.0
 47
0.0
 48
0.0
 49
0.0
140
0.0
141
0.0
142
1.0
143
1.0
 70
0
 72
1
 73
0
 74
5
  7

 75
16
 76
0
 77
2
 78
300
147
1.0
148
0.0
149
0.0
100
AcDbLayout
  1
Layout1
 70
1
 71
1
 10
0.0
 20
0.0
 11
420.0
 21
297.0
 12
0.0
 22
0.0
 32
0.0
 14
1e+20
 24
1e+20
 34
1e+20
 15
-1e+20
 25
-1e+20
 35
-1e+20
146
0.0
 13
0.0
 23
0.0
 33
0.0
 16
1.0
 26
0.0
 36
0.0
 17
0.0
 27
1.0
 37
0.0
 76
1
330
1B
  0
MATERIAL
  5
1F
102
{ACAD_REACTORS
330
E
102
}
330
E
100
AcDbMaterial
  1
ByBlock
  2

 70
0
 40
1.0
 71
1
 41
1.0
 91
-1023410177
 42
1.0
 72
1
  3

 73
1
 74
1
 75
1
 44
0.5
 73
0
 45
1.0
 46
1.0
 77
1
  4

 78
1
 79
1
170
1
 48
1.0
171
1
  6

172
1
173
1
174
1
140
1.0
141
1.0
175
1
  7

176
1
177
1
178
1
143
1.0
179
1
  8

270
1
271
1
272
1
145
1.0
146
1.0
273
1
  9

274
1
275
1
276
1
 42
1.0
 72
1
  3

 73
1
 74
1
 75
1
 94
63
  0
MATERIAL
  5
20
102
{ACAD_REACTORS
330
E
102
}
330
E
100
AcDbMaterial
  1
ByLayer
  2

 70
0
 40
1.0
 71
1
 41
1.0
 91
-1023410177
 42
1.0
 72
1
  3

 73
1
 74
1
 75
1
 44
0.5
 73
0
 45
1.0
 46
1.0
 77
1
  4

 78
1
 79
1
170
1
 48
1.0
171
1
  6

172
1
173
1
174
1
140
1.0
141
1.0
175
1
  7

176
1
177
1
178
1
143
1.0
179
1
  8

270
1
271
1
272
1
145
1.0
146
1.0
273
1
  9

274
1
275
1
276
1
 42
1.0
 72
1
  3

 73
1
 74
1
 75
1
 94
63
  0
MATERIAL
  5
21
102
{ACAD_REACTORS
330
E
102
}
330
E
100
AcDbMaterial
  1
Global
  2

 70
0
 40
1.0
 71
1
 41
1.0
 91
-1023410177
 42
1.0
 72
1
  3

 73
1
 74
1
 75
1
 44
0.5
 73
0
 45
1.0
 46
1.0
 77
1
  4

 78
1
 79
1
170
1
 48
1.0
171
1
  6

172
1
173
1
174
1
140
1.0
141
1.0
175
1
  7

176
1
177
1
178
1
143
1.0
179
1
  8

270
1
271
1
272
1
145
1.0
146
1.0
273
1
  9

274
1
275
1
276
1
 42
1.0
 72
1
  3

 73
1
 74
1
 75
1
 94
63
  0
MLINESTYLE
  5
22
102
{ACAD_REACTORS
330
10
102
}
330
10
100
AcDbMlineStyle
  2
Standard
 70
0
  3

 62
256
 51
90.0
 52
90.0
 71
2
 49
0.5
 62
256
  6
BYLAYER
 49
-0.5
 62
256
  6
BYLAYER
  0
MLEADERSTYLE
  5
2C
102
{ACAD_REACTORS
330
F
102
}
330
F
100
AcDbMLeaderStyle
179
2
170
2
171
1
172
0
 90
2
 40
0.0
 41
0.0
173
1
 91
-1056964608
 92
-2
290
1
 42
2.0
291
1
 43
8.0
  3
Standard
 44
4.0
300

342
29
174
1
175
1
176
0
178
1
 93
-1056964608
 45
4.0
292
0
297
0
 46
4.0
 94
-1056964608
 47
1.0
 49
1.0
140
1.0
294
1
141
0.0
177
0
142
1.0
295
0
296
0
143
3.75
271
0
272
9
273
9
  0
DICTIONARY
  5
2D
330
A
100
AcDbDictionary
280
1
281
1
  3
CREATED_BY_EZDXF
350
2E
  3
WRITTEN_BY_EZDXF
350
1B4
  0
DICTIONARYVAR
  5
2E
330
2D
100
DictionaryVariables
280
0
  1
1.4.3 @ 2026-06-10T03:42:53.407725+00:00
  0
DICTIONARYVAR
  5
1B4
330
2D
100
DictionaryVariables
280
0
  1
1.4.3 @ 2026-06-10T03:42:53.420070+00:00
  0
ENDSEC
  0
EOF
