  0
SECTION
  2
HEADER
  9
$ACADVER
  1
AC1024
  9
$ACADMAINTVER
 70
6
  9
$DWGCODEPAGE
  3
ANSI_1252
  9
$LASTSAVEDBY
  1
ezdxf
  9
$INSBASE
 10
0.0
 20
0.0
 30
0.0
  9
$EXTMIN
 10
1e+20
 20
1e+20
 30
1e+20
  9
$EXTMAX
 10
-1e+20
 20
-1e+20
 30
-1e+20
  9
$LIMMIN
 10
0.0
 20
0.0
  9
$LIMMAX
 10
420.0
 20
297.0
  9
$ORTHOMODE
 70
0
  9
$REGENMODE
 70
1
  9
$FILLMODE
 70
1
  9
$QTEXTMODE
 70
0
  9
$MIRRTEXT
 70
1
  9
$LTSCALE
 40
1.0
  9
$ATTMODE
 70
1
  9
$TEXTSIZE
 40
2.5
  9
$TRACEWID
 40
1.0
  9
$TEXTSTYLE
  7
Standard
  9
$CLAYER
  8
0
  9
$CELTYPE
  6
ByLayer
  9
$CECOLOR
 62
256
  9
$CELTSCALE
 40
1.0
  9
$DISPSILH
 70
0
  9
$DIMSCALE
 40
1.0
  9
$DIMASZ
 40
2.5
  9
$DIMEXO
 40
0.625
  9
$DIMDLI
 40
3.75
  9
$DIMRND
 40
0.0
  9
$DIMDLE
 40
0.0
  9
$DIMEXE
 40
1.25
  9
$DIMTP
 40
0.0
  9
$DIMTM
 40
0.0
  9
$DIMTXT
 40
2.5
  9
$DIMCEN
 40
2.5
  9
$DIMTSZ
 40
0.0
  9
$DIMTOL
 70
0
  9
$DIMLIM
 70
0
  9
$DIMTIH
 70
0
  9
$DIMTOH
 70
0
  9
$DIMSE1
 70
0
  9
$DIMSE2
 70
0
  9
$DIMTAD
 70
1
  9
$DIMZIN
 70
8
  9
$DIMBLK
  1

  9
$DIMASO
 70
1
  9
$DIMSHO
 70
1
  9
$DIMPOST
  1

  9
$DIMAPOST
  1

  9
$DIMALT
 70
0
  9
$DIMALTD
 70
3
  9
$DIMALTF
 40
0.03937007874
  9
$DIMLFAC
 40
1.0
  9
$DIMTOFL
 70
1
  9
$DIMTVP
 40
0.0
  9
$DIMTIX
 70
0
  9
$DIMSOXD
 70
0
  9
$DIMSAH
 70
0
  9
$DIMBLK1
  1

  9
$DIMBLK2
  1

  9
$DIMSTYLE
  2
ISO-25
  9
$DIMCLRD
 70
0
  9
$DIMCLRE
 70
0
  9
$DIMCLRT
 70
0
  9
$DIMTFAC
 40
1.0
  9
$DIMGAP
 40
0.625
  9
$DIMJUST
 70
0
  9
$DIMSD1
 70
0
  9
$DIMSD2
 70
0
  9
$DIMTOLJ
 70
0
  9
$DIMTZIN
 70
8
  9
$DIMALTZ
 70
0
  9
$DIMALTTZ
 70
0
  9
$DIMUPT
 70
0
  9
$DIMDEC
 70
2
  9
$DIMTDEC
 70
2
  9
$DIMALTU
 70
2
  9
$DIMALTTD
 70
3
  9
$DIMTXSTY
  7
Standard
  9
$DIMAUNIT
 70
0
  9
$DIMADEC
 70
0
  9
$DIMALTRND
 40
0.0
  9
$DIMAZIN
 70
0
  9
$DIMDSEP
 70
44
  9
$DIMATFIT
 70
3
  9
$DIMFRAC
 70
0
  9
$DIMLDRBLK
  1

  9
$DIMLUNIT
 70
2
  9
$DIMLWD
 70
-2
  9
$DIMLWE
 70
-2
  9
$DIMTMOVE
 70
0
  9
$DIMFXL
 40
1.0
  9
$DIMFXLON
 70
0
  9
$DIMJOGANG
 40
0.785398163397
  9
$DIMTFILL
 70
0
  9
$DIMTFILLCLR
 70
0
  9
$DIMARCSYM
 70
0
  9
$DIMLTYPE
  6

  9
$DIMLTEX1
  6

  9
$DIMLTEX2
  6

  9
$DIMTXTDIRECTION
 70
0
  9
$LUNITS
 70
2
  9
$LUPREC
 70
4
  9
$SKETCHINC
 40
1.0
  9
$FILLETRAD
 40
10.0
  9
$AUNITS
 70
0
  9
$AUPREC
 70
2
  9
$MENU
  1
.
  9
$ELEVATION
 40
0.0
  9
$PELEVATION
 40
0.0
  9
$THICKNESS
 40
0.0
  9
$LIMCHECK
 70
0
  9
$CHAMFERA
 40
0.0
  9
$CHAMFERB
 40
0.0
  9
$CHAMFERC
 40
0.0
  9
$CHAMFERD
 40
0.0
  9
$SKPOLY
 70
0
  9
$TDCREATE
 40
2461202.009178241
  9
$TDUCREATE
 40
2458532.153996898
  9
$TDUPDATE
 40
2461202.009178241
  9
$TDUUPDATE
 40
2458532.1544311
  9
$TDINDWG
 40
0.0
  9
$TDUSRTIMER
 40
0.0
  9
$USRTIMER
 70
1
  9
$ANGBASE
 50
0.0
  9
$ANGDIR
 70
0
  9
$PDMODE
 70
0
  9
$PDSIZE
 40
0.0
  9
$PLINEWID
 40
0.0
  9
$SPLFRAME
 70
0
  9
$SPLINETYPE
 70
6
  9
$SPLINESEGS
 70
8
  9
$HANDSEED
  5
F0
  9
$SURFTAB1
 70
6
  9
$SURFTAB2
 70
6
  9
$SURFTYPE
 70
6
  9
$SURFU
 70
6
  9
$SURFV
 70
6
  9
$UCSBASE
  2

  9
$UCSNAME
  2

  9
$UCSORG
 10
0.0
 20
0.0
 30
0.0
  9
$UCSXDIR
 10
1.0
 20
0.0
 30
0.0
  9
$UCSYDIR
 10
0.0
 20
1.0
 30
0.0
  9
$UCSORTHOREF
  2

  9
$UCSORTHOVIEW
 70
0
  9
$UCSORGTOP
 10
0.0
 20
0.0
 30
0.0
  9
$UCSORGBOTTOM
 10
0.0
 20
0.0
 30
0.0
  9
$UCSORGLEFT
 10
0.0
 20
0.0
 30
0.0
  9
$UCSORGRIGHT
 10
0.0
 20
0.0
 30
0.0
  9
$UCSORGFRONT
 10
0.0
 20
0.0
 30
0.0
  9
$UCSORGBACK
 10
0.0
 20
0.0
 30
0.0
  9
$PUCSBASE
  2

  9
$PUCSNAME
  2

  9
$PUCSORG
 10
0.0
 20
0.0
 30
0.0
  9
$PUCSXDIR
 10
1.0
 20
0.0
 30
0.0
  9
$PUCSYDIR
 10
0.0
 20
1.0
 30
0.0
  9
$PUCSORTHOREF
  2

  9
$PUCSORTHOVIEW
 70
0
  9
$PUCSORGTOP
 10
0.0
 20
0.0
 30
0.0
  9
$PUCSORGBOTTOM
 10
0.0
 20
0.0
 30
0.0
  9
$PUCSORGLEFT
 10
0.0
 20
0.0
 30
0.0
  9
$PUCSORGRIGHT
 10
0.0
 20
0.0
 30
0.0
  9
$PUCSORGFRONT
 10
0.0
 20
0.0
 30
0.0
  9
$PUCSORGBACK
 10
0.0
 20
0.0
 30
0.0
  9
$USERI1
 70
0
  9
$USERI2
 70
0
  9
$USERI3
 70
0
  9
$USERI4
 70
0
  9
$USERI5
 70
0
  9
$USERR1
 40
0.0
  9
$USERR2
 40
0.0
  9
$USERR3
 40
0.0
  9
$USERR4
 40
0.0
  9
$USERR5
 40
0.0
  9
$WORLDVIEW
 70
1
  9
$SHADEDGE
 70
3
  9
$SHADEDIF
 70
70
  9
$TILEMODE
 70
1
  9
$MAXACTVP
 70
64
  9
$PINSBASE
 10
0.0
 20
0.0
 30
0.0
  9
$PLIMCHECK
 70
0
  9
$PEXTMIN
 10
1e+20
 20
1e+20
 30
1e+20
  9
$PEXTMAX
 10
-1e+20
 20
-1e+20
 30
-1e+20
  9
$PLIMMIN
 10
0.0
 20
0.0
  9
$PLIMMAX
 10
420.0
 20
297.0
  9
$UNITMODE
 70
0
  9
$VISRETAIN
 70
1
  9
$PLINEGEN
 70
0
  9
$PSLTSCALE
 70
1
  9
$TREEDEPTH
 70
3020
  9
$CMLSTYLE
  2
Standard
  9
$CMLJUST
 70
0
  9
$CMLSCALE
 40
20.0
  9
$PROXYGRAPHICS
 70
1
  9
$MEASUREMENT
 70
1
  9
$CELWEIGHT
370
-1
  9
$ENDCAPS
280
0
  9
$JOINSTYLE
280
0
  9
$LWDISPLAY
290
0
  9
$INSUNITS
 70
6
  9
$HYPERLINKBASE
  1

  9
$STYLESHEET
  1

  9
$XEDIT
290
1
  9
$CEPSNTYPE
380
0
  9
$PSTYLEMODE
290
1
  9
$FINGERPRINTGUID
  2
{E8F55821-B778-4743-B0C2-40EDDF1D0F27}
  9
$VERSIONGUID
  2
{2229515F-760B-42D5-9661-D8B9EC47D367}
  9
$EXTNAMES
290
1
  9
$PSVPSCALE
 40
0.0
  9
$OLESTARTUP
290
0
  9
$SORTENTS
280
127
  9
$INDEXCTL
280
0
  9
$HIDETEXT
280
1
  9
$XCLIPFRAME
280
1
  9
$HALOGAP
280
0
  9
$OBSCOLOR
 70
257
  9
$OBSLTYPE
280
0
  9
$INTERSECTIONDISPLAY
280
0
  9
$INTERSECTIONCOLOR
 70
257
  9
$DIMASSOC
280
2
  9
$PROJECTNAME
  1

  9
$CAMERADISPLAY
290
0
  9
$LENSLENGTH
 40
50.0
  9
$CAMERAHEIGHT
 40
0.0
  9
$STEPSPERSEC
 40
24.0
  9
$STEPSIZE
 40
100.0
  9
$3DDWFPREC
 40
2.0
  9
$PSOLWIDTH
 40
0.005
  9
$PSOLHEIGHT
 40
0.08
  9
$LOFTANG1
 40
1.570796326795
  9
$LOFTANG2
 40
1.570796326795
  9
$LOFTMAG1
 40
0.0
  9
$LOFTMAG2
 40
0.0
  9
$LOFTPARAM
 70
7
  9
$LOFTNORMALS
280
1
  9
$LATITUDE
 40
37.795
  9
$LONGITUDE
 40
-122.394
  9
$NORTHDIRECTION
 40
0.0
  9
$TIMEZONE
 70
-8000
  9
$LIGHTGLYPHDISPLAY
280
1
  9
$TILEMODELIGHTSYNCH
280
1
  9
$CMATERIAL
347
20
  9
$SOLIDHIST
280
0
  9
$SHOWHIST
280
1
  9
$DWFFRAME
280
2
  9
$DGNFRAME
280
2
  9
$REALWORLDSCALE
290
1
  9
$INTERFERECOLOR
 62
256
  9
$CSHADOW
280
0
  9
$SHADOWPLANELOCATION
 40
0.0
  0
ENDSEC
  0
SECTION
  2
CLASSES
  0
CLASS
  1
ACDBDICTIONARYWDFLT
  2
AcDbDictionaryWithDefault
  3
ObjectDBX Classes
 90
0
 91
0
280
0
281
0
  0
CLASS
  1
SUN
  2
AcDbSun
  3
SCENEOE
 90
1153
 91
0
280
0
281
0
  0
CLASS
  1
VISUALSTYLE
  2
AcDbVisualStyle
  3
ObjectDBX Classes
 90
4095
 91
0
280
0
281
0
  0
CLASS
  1
MATERIAL
  2
AcDbMaterial
  3
ObjectDBX Classes
 90
1153
 91
0
280
0
281
0
  0
CLASS
  1
SCALE
  2
AcDbScale
  3
ObjectDBX Classes
 90
1153
 91
0
280
0
281
0
  0
CLASS
  1
TABLESTYLE
  2
AcDbTableStyle
  3
ObjectDBX Classes
 90
4095
 91
0
280
0
281
0
  0
CLASS
  1
MLEADERSTYLE
  2
AcDbMLeaderStyle
  3
ACDB_MLEADERSTYLE_CLASS
 90
4095
 91
0
280
0
281
0
  0
CLASS
  1
DICTIONARYVAR
  2
AcDbDictionaryVar
  3
ObjectDBX Classes
 90
0
 91
0
280
0
281
0
  0
CLASS
  1
CELLSTYLEMAP
  2
AcDbCellStyleMap
  3
ObjectDBX Classes
 90
1152
 91
0
280
0
281
0
  0
CLASS
  1
MENTALRAYRENDERSETTINGS
  2
AcDbMentalRayRenderSettings
  3
SCENEOE
 90
1024
 91
0
280
0
281
0
  0
CLASS
  1
ACDBDETAILVIEWSTYLE
  2
AcDbDetailViewStyle
  3
ObjectDBX Classes
 90
1025
 91
0
280
0
281
0
  0
CLASS
  1
ACDBSECTIONVIEWSTYLE
  2
AcDbSectionViewStyle
  3
ObjectDBX Classes
 90
1025
 91
0
280
0
281
0
  0
CLASS
  1
RASTERVARIABLES
  2
AcDbRasterVariables
  3
ISM
 90
0
 91
0
280
0
281
0
  0
CLASS
  1
ACDBPLACEHOLDER
  2
AcDbPlaceHolder
  3
ObjectDBX Classes
 90
0
 91
0
280
0
281
0
  0
CLASS
  1
LAYOUT
  2
AcDbLayout
  3
ObjectDBX Classes
 90
0
 91
0
280
0
281
0
  0
ENDSEC
  0
SECTION
  2
TABLES
  0
TABLE
  2
VPORT
  5
8
330
0
100
AcDbSymbolTable
 70
1
  0
VPORT
  5
23
330
8
100
AcDbSymbolTableRecord
100
AcDbViewportTableRecord
  2
*Active
 70
0
 10
0.0
 20
0.0
 11
1.0
 21
1.0
 12
0.0
 22
0.0
 13
0.0
 23
0.0
 14
0.5
 24
0.5
 15
0.5
 25
0.5
 16
0.0
 26
0.0
 36
1.0
 17
0.0
 27
0.0
 37
0.0
 40
1000.0
 41
1.34
 42
50.0
 43
0.0
 44
0.0
 50
0.0
 51
0.0
 71
0
 72
1000
 73
1
 74
3
 75
0
 76
0
 77
0
 78
0
281
0
 65
0
146
0.0
  0
ENDTAB
  0
TABLE
  2
LTYPE
  5
2
330
0
100
AcDbSymbolTable
 70
3
  0
LTYPE
  5
24
330
2
100
AcDbSymbolTableRecord
100
AcDbLinetypeTableRecord
  2
ByBlock
 70
0
  3

 72
65
 73
0
 40
0.0
  0
LTYPE
  5
25
330
2
100
AcDbSymbolTableRecord
100
AcDbLinetypeTableRecord
  2
ByLayer
 70
0
  3

 72
65
 73
0
 40
0.0
  0
LTYPE
  5
26
330
2
100
AcDbSymbolTableRecord
100
AcDbLinetypeTableRecord
  2
Continuous
 70
0
  3

 72
65
 73
0
 40
0.0
  0
ENDTAB
  0
TABLE
  2
LAYER
  5
1
330
0
100
AcDbSymbolTable
 70
11
  0
LAYER
  5
27
330
1
100
AcDbSymbolTableRecord
100
AcDbLayerTableRecord
  2
0
 70
0
 62
7
  6
Continuous
370
-3
390
13
347
21
  0
LAYER
  5
28
330
1
100
AcDbSymbolTableRecord
100
AcDbLayerTableRecord
  2
Defpoints
 70
0
 62
7
  6
Continuous
290
0
370
-3
390
13
347
21
  0
LAYER
  5
2F
330
1
100
AcDbSymbolTableRecord
100
AcDbLayerTableRecord
  2
TENSOR
 70
0
 62
7
  6
Continuous
370
-3
390
13
347
21
  0
LAYER
  5
30
330
1
100
AcDbSymbolTableRecord
100
AcDbLayerTableRecord
  2
SARR_3.5x7
 70
0
 62
7
  6
Continuous
370
-3
390
13
347
21
  0
LAYER
  5
31
330
1
100
AcDbSymbolTableRecord
100
AcDbLayerTableRecord
  2
SCO-___-LAJ
 70
0
 62
7
  6
Continuous
370
-3
390
13
347
21
  0
LAYER
  5
32
330
1
100
AcDbSymbolTableRecord
100
AcDbLayerTableRecord
  2
SARR_2.2x7
 70
0
 62
7
  6
Continuous
370
-3
390
13
347
21
  0
LAYER
  5
33
330
1
100
AcDbSymbolTableRecord
100
AcDbLayerTableRecord
  2
COTA
 70
0
 62
7
  6
Continuous
370
-3
390
13
347
21
  0
LAYER
  5
34
330
1
100
AcDbSymbolTableRecord
100
AcDbLayerTableRecord
  2
CONCRETO
 70
0
 62
7
  6
Continuous
370
-3
390
13
347
21
  0
LAYER
  5
35
330
1
100
AcDbSymbolTableRecord
100
AcDbLayerTableRecord
  2
barrote
 70
0
 62
7
  6
Continuous
370
-3
390
13
347
21
  0
LAYER
  5
36
330
1
100
AcDbSymbolTableRecord
100
AcDbLayerTableRecord
  2
Painéis
 70
0
 62
7
  6
Continuous
370
-3
390
13
347
21
  0
LAYER
  5
37
330
1
100
AcDbSymbolTableRecord
100
AcDbLayerTableRecord
  2
Madeira
 70
0
 62
7
  6
Continuous
370
-3
390
13
347
21
  0
ENDTAB
  0
TABLE
  2
STYLE
  5
5
330
0
100
AcDbSymbolTable
 70
1
  0
STYLE
  5
29
330
5
100
AcDbSymbolTableRecord
100
AcDbTextStyleTableRecord
  2
Standard
 70
0
 40
0.0
 41
1.0
 50
0.0
 71
0
 42
2.5
  3
txt
  4

  0
ENDTAB
  0
TABLE
  2
VIEW
  5
7
330
0
100
AcDbSymbolTable
 70
0
  0
ENDTAB
  0
TABLE
  2
UCS
  5
6
330
0
100
AcDbSymbolTable
 70
0
  0
ENDTAB
  0
TABLE
  2
APPID
  5
3
330
0
100
AcDbSymbolTable
 70
3
  0
APPID
  5
2A
330
3
100
AcDbSymbolTableRecord
100
AcDbRegAppTableRecord
  2
ACAD
 70
0
  0
APPID
  5
ED
330
3
100
AcDbSymbolTableRecord
100
AcDbRegAppTableRecord
  2
HATCHBACKGROUNDCOLOR
 70
0
  0
APPID
  5
EE
330
3
100
AcDbSymbolTableRecord
100
AcDbRegAppTableRecord
  2
EZDXF
 70
0
  0
ENDTAB
  0
TABLE
  2
DIMSTYLE
  5
4
330
0
100
AcDbSymbolTable
 70
1
100
AcDbDimStyleTable
  0
DIMSTYLE
105
2B
330
4
100
AcDbSymbolTableRecord
100
AcDbDimStyleTableRecord
  2
Standard
 70
0
 40
1.0
 41
2.5
 42
0.625
 43
3.75
 44
1.25
 45
0.0
 46
0.0
 47
0.0
 48
0.0
 49
2.5
140
2.5
141
2.5
142
0.0
143
0.03937007874
144
1.0
145
0.0
146
1.0
147
0.625
148
0.0
 69
0
 70
0
 71
0
 72
0
 73
0
 74
0
 75
0
 76
0
 77
1
 78
8
 79
3
170
0
171
3
172
1
173
0
174
0
175
0
176
0
177
0
178
0
179
2
271
2
272
2
273
2
274
3
275
0
276
0
277
2
278
44
279
0
280
0
281
0
282
0
283
0
284
8
285
0
286
0
288
0
289
3
290
0
371
-2
372
-2
  0
ENDTAB
  0
TABLE
  2
BLOCK_RECORD
  5
9
330
0
100
AcDbSymbolTable
 70
2
  0
BLOCK_RECORD
  5
17
330
9
100
AcDbSymbolTableRecord
100
AcDbBlockTableRecord
  2
*Model_Space
340
1A
 70
0
280
1
281
0
  0
BLOCK_RECORD
  5
1B
330
9
100
AcDbSymbolTableRecord
100
AcDbBlockTableRecord
  2
*Paper_Space
340
1E
 70
0
280
1
281
0
  0
ENDTAB
  0
ENDSEC
  0
SECTION
  2
BLOCKS
  0
BLOCK
  5
18
330
17
100
AcDbEntity
  8
0
100
AcDbBlockBegin
  2
*Model_Space
 70
0
 10
0.0
 20
0.0
 30
0.0
  3
*Model_Space
  1

  0
ENDBLK
  5
19
330
17
100
AcDbEntity
  8
0
100
AcDbBlockEnd
  0
BLOCK
  5
1C
330
1B
100
AcDbEntity
  8
0
100
AcDbBlockBegin
  2
*Paper_Space
 70
0
 10
0.0
 20
0.0
 30
0.0
  3
*Paper_Space
  1

  0
ENDBLK
  5
1D
330
1B
100
AcDbEntity
  8
0
100
AcDbBlockEnd
  0
ENDSEC
  0
SECTION
  2
ENTITIES
  0
LINE
  5
38
330
17
100
AcDbEntity
  8
SARR_2.2x7
 62
7
370
25
100
AcDbLine
 10
8679.65801046914
 20
7766.074022921562
 30
0.0
 11
8493.658010469146
 21
7766.074022921576
 31
0.0
  0
LINE
  5
39
330
17
100
AcDbEntity
  8
SARR_2.2x7
 62
7
370
25
100
AcDbLine
 10
8493.658010469146
 20
7766.074022921576
 30
0.0
 11
8249.658010469146
 21
7766.074022921569
 31
0.0
  0
LINE
  5
3A
330
17
100
AcDbEntity
  8
SARR_2.2x7
 62
7
370
25
100
AcDbLine
 10
8249.658010469146
 20
7766.074022921569
 30
0.0
 11
8005.658010469145
 21
7766.074022921562
 31
0.0
  0
LINE
  5
3B
330
17
100
AcDbEntity
  8
SARR_2.2x7
 62
7
370
25
100
AcDbLine
 10
8005.658010469145
 20
7766.074022921556
 30
0.0
 11
7790.158010469143
 21
7766.074022921556
 31
0.0
  0
LINE
  5
3C
330
17
100
AcDbEntity
  8
SARR_3.5x7
 62
7
370
25
100
AcDbLine
 10
8490.158010469117
 20
7766.07402292162
 30
0.0
 11
8490.158010469086
 21
7704.274022921573
 31
0.0
  0
LINE
  5
3D
330
17
100
AcDbEntity
  8
SARR_3.5x7
 62
7
370
25
100
AcDbLine
 10
8497.158010469204
 20
7766.074022921678
 30
0.0
 11
8497.158010469231
 21
7704.274022921573
 31
0.0
  0
LINE
  5
3E
330
17
100
AcDbEntity
  8
SARR_3.5x7
 62
7
370
25
100
AcDbLine
 10
8679.658010469146
 20
7768.274022921573
 30
0.0
 11
8679.65801046914
 21
7704.274022921559
 31
0.0
  0
LINE
  5
3F
330
17
100
AcDbEntity
  8
SARR_3.5x7
 62
7
370
25
100
AcDbLine
 10
8676.158010469142
 20
7766.074022921576
 30
0.0
 11
8676.15801046914
 21
7704.274022921559
 31
0.0
  0
LINE
  5
40
330
17
100
AcDbEntity
  8
SARR_3.5x7
 62
7
370
25
100
AcDbLine
 10
8493.658010469146
 20
7766.074022921576
 30
0.0
 11
8493.658010469146
 21
7704.274022921588
 31
0.0
  0
LINE
  5
41
330
17
100
AcDbEntity
  8
SARR_3.5x7
 62
7
370
25
100
AcDbLine
 10
8497.158010469231
 20
7704.274022921573
 30
0.0
 11
8493.658010469146
 21
7704.274022921573
 31
0.0
  0
LINE
  5
42
330
17
100
AcDbEntity
  8
SARR_3.5x7
 62
7
370
25
100
AcDbLine
 10
8493.658010469146
 20
7704.274022921573
 30
0.0
 11
8490.158010469086
 21
7704.274022921573
 31
0.0
  0
LINE
  5
43
330
17
100
AcDbEntity
  8
SARR_3.5x7
 62
7
370
25
100
AcDbLine
 10
8679.65801046914
 20
7704.274022921559
 30
0.0
 11
8676.15801046914
 21
7704.274022921559
 31
0.0
  0
LINE
  5
44
330
17
100
AcDbEntity
  8
Painéis
 62
7
370
25
100
AcDbLine
 10
8737.65801046915
 20
7768.274022921558
 30
0.0
 11
7790.158010469143
 21
7768.274022921551
 31
0.0
  0
LINE
  5
45
330
17
100
AcDbEntity
  8
Painéis
 62
7
370
25
100
AcDbLine
 10
8737.658010469146
 20
7704.274022921559
 30
0.0
 11
7779.15801046914
 21
7704.274022921551
 31
0.0
  0
LINE
  5
46
330
17
100
AcDbEntity
  8
Painéis
 62
7
370
25
100
AcDbLine
 10
8493.658010469146
 20
7704.274022921573
 30
0.0
 11
8493.658010469147
 21
7768.274022921573
 31
0.0
  0
LINE
  5
47
330
17
100
AcDbEntity
  8
Painéis
 62
7
370
25
100
AcDbLine
 10
7779.15801046914
 20
7704.274022921551
 30
0.0
 11
7779.158010469143
 21
7752.274022921551
 31
0.0
  0
LINE
  5
48
330
17
100
AcDbEntity
  8
Painéis
 62
7
370
25
100
AcDbLine
 10
8737.658010469146
 20
7704.274022921559
 30
0.0
 11
8737.658010469147
 21
7768.274022921558
 31
0.0
  0
LINE
  5
49
330
17
100
AcDbEntity
  8
SARR_2.2x7
 62
7
370
25
100
AcDbLine
 10
7786.15801046914
 20
7704.274022921525
 30
0.0
 11
7786.158010469137
 21
7752.274022921551
 31
0.0
  0
LINE
  5
4A
330
17
100
AcDbEntity
  8
SARR_3.5x7
 62
7
370
25
100
AcDbLine
 10
7790.158010469143
 20
7768.274022921541
 30
0.0
 11
7790.158010469146
 21
7704.274022921525
 31
0.0
  0
LINE
  5
4B
330
17
100
AcDbEntity
  8
SARR_3.5x7
 62
7
370
25
100
AcDbLine
 10
7793.658010469144
 20
7766.074022921543
 30
0.0
 11
7793.658010469147
 21
7704.274022921525
 31
0.0
  0
LINE
  5
4C
330
17
100
AcDbEntity
  8
Painéis
 62
7
370
25
100
AcDbLine
 10
7779.158010469143
 20
7752.274022921551
 30
0.0
 11
7790.158010469143
 21
7752.274022921551
 31
0.0
  0
LINE
  5
4D
330
17
100
AcDbEntity
  8
Painéis
 62
7
370
25
100
AcDbLine
 10
7790.158010469143
 20
7752.274022921551
 30
0.0
 11
7790.158010469143
 21
7768.274022921551
 31
0.0
  0
LINE
  5
4E
330
17
100
AcDbEntity
  8
COTA
 62
7
370
25
100
AcDbLine
 10
7779.158010469143
 20
7752.274022921551
 30
0.0
 11
7779.158010469143
 21
7768.274022921551
 31
0.0
  0
LINE
  5
4F
330
17
100
AcDbEntity
  8
COTA
 62
7
370
25
100
AcDbLine
 10
7779.158010469143
 20
7768.274022921551
 30
0.0
 11
7790.158010469143
 21
7768.274022921551
 31
0.0
  0
LINE
  5
50
330
17
100
AcDbEntity
  8
SARR_3.5x7
 62
7
370
25
100
AcDbLine
 10
8246.158010469117
 20
7766.07402292162
 30
0.0
 11
8246.158010469086
 21
7704.274022921573
 31
0.0
  0
LINE
  5
51
330
17
100
AcDbEntity
  8
SARR_3.5x7
 62
7
370
25
100
AcDbLine
 10
8253.158010469206
 20
7766.074022921678
 30
0.0
 11
8253.158010469231
 21
7704.274022921573
 31
0.0
  0
LINE
  5
52
330
17
100
AcDbEntity
  8
SARR_3.5x7
 62
7
370
25
100
AcDbLine
 10
8249.658010469146
 20
7766.074022921576
 30
0.0
 11
8249.658010469146
 21
7704.274022921588
 31
0.0
  0
LINE
  5
53
330
17
100
AcDbEntity
  8
Painéis
 62
7
370
25
100
AcDbLine
 10
8249.658010469146
 20
7704.274022921573
 30
0.0
 11
8249.658010469147
 21
7768.274022921573
 31
0.0
  0
LINE
  5
54
330
17
100
AcDbEntity
  8
SARR_3.5x7
 62
7
370
25
100
AcDbLine
 10
8002.158010469116
 20
7766.07402292162
 30
0.0
 11
8002.158010469086
 21
7704.274022921573
 31
0.0
  0
LINE
  5
55
330
17
100
AcDbEntity
  8
SARR_3.5x7
 62
7
370
25
100
AcDbLine
 10
8009.158010469205
 20
7766.074022921678
 30
0.0
 11
8009.158010469231
 21
7704.274022921573
 31
0.0
  0
LINE
  5
56
330
17
100
AcDbEntity
  8
SARR_3.5x7
 62
7
370
25
100
AcDbLine
 10
8005.658010469145
 20
7766.074022921576
 30
0.0
 11
8005.658010469144
 21
7704.274022921588
 31
0.0
  0
LINE
  5
57
330
17
100
AcDbEntity
  8
Painéis
 62
7
370
25
100
AcDbLine
 10
8005.658010469144
 20
7704.274022921573
 30
0.0
 11
8005.658010469147
 21
7768.274022921573
 31
0.0
  0
LINE
  5
58
330
17
100
AcDbEntity
  8
SARR_2.2x7
 62
7
370
25
100
AcDbLine
 10
7796.218606437389
 20
7536.976935645464
 30
0.0
 11
7842.663747196574
 21
7536.976935645481
 31
0.0
  0
LINE
  5
59
330
17
100
AcDbEntity
  8
SARR_2.2x7
 62
7
370
25
100
AcDbLine
 10
7842.663747196574
 20
7536.976935645481
 30
0.0
 11
7942.108887955765
 21
7536.976935645235
 31
0.0
  0
LINE
  5
5A
330
17
100
AcDbEntity
  8
SARR_3.5x7
 62
7
370
25
100
AcDbLine
 10
7846.163747196604
 20
7536.976935645525
 30
0.0
 11
7846.163747196635
 21
7491.176935645478
 31
0.0
  0
LINE
  5
5B
330
17
100
AcDbEntity
  8
SARR_3.5x7
 62
7
370
25
100
AcDbLine
 10
7839.163747196517
 20
7536.976935645583
 30
0.0
 11
7839.16374719649
 21
7491.176935645478
 31
0.0
  0
LINE
  5
5C
330
17
100
AcDbEntity
  8
SARR_3.5x7
 62
7
370
25
100
AcDbLine
 10
7842.663747196574
 20
7536.976935645481
 30
0.0
 11
7842.663747196578
 21
7491.176935645492
 31
0.0
  0
LINE
  5
5D
330
17
100
AcDbEntity
  8
SARR_3.5x7
 62
7
370
25
100
AcDbLine
 10
7839.16374719649
 20
7491.176935645478
 30
0.0
 11
7842.663747196578
 21
7491.176935645478
 31
0.0
  0
LINE
  5
5E
330
17
100
AcDbEntity
  8
SARR_3.5x7
 62
7
370
25
100
AcDbLine
 10
7842.663747196578
 20
7491.176935645478
 30
0.0
 11
7846.163747196635
 21
7491.176935645478
 31
0.0
  0
LINE
  5
5F
330
17
100
AcDbEntity
  8
Painéis
 62
7
370
25
100
AcDbLine
 10
7781.663747196572
 20
7539.176935645463
 30
0.0
 11
7956.663747196573
 21
7539.176935645489
 31
0.0
  0
LINE
  5
60
330
17
100
AcDbEntity
  8
Painéis
 62
7
370
25
100
AcDbLine
 10
7781.663747196578
 20
7491.176935645464
 30
0.0
 11
7956.663747196578
 21
7491.176935645488
 31
0.0
  0
LINE
  5
61
330
17
100
AcDbEntity
  8
Painéis
 62
7
370
25
100
AcDbLine
 10
7842.663747196578
 20
7491.176935645478
 30
0.0
 11
7842.663747196573
 21
7539.176935645478
 31
0.0
  0
LINE
  5
62
330
17
100
AcDbEntity
  8
Painéis
 62
7
370
25
100
AcDbLine
 10
7956.663747196578
 20
7491.176935645488
 30
0.0
 11
7956.663747196573
 21
7539.176935645489
 31
0.0
  0
LINE
  5
63
330
17
100
AcDbEntity
  8
Painéis
 62
7
370
25
100
AcDbLine
 10
7781.663747196578
 20
7491.176935645464
 30
0.0
 11
7781.663747196573
 21
7539.176935645463
 31
0.0
  0
LINE
  5
64
330
17
100
AcDbEntity
  8
COTA
 62
7
370
25
100
AcDbLine
 10
7781.663747196572
 20
7539.176935645463
 30
0.0
 11
7781.663747196572
 21
7555.176935645464
 31
0.0
  0
LINE
  5
65
330
17
100
AcDbEntity
  8
COTA
 62
7
370
25
100
AcDbLine
 10
7781.663747196572
 20
7555.176935645464
 30
0.0
 11
7956.663747196571
 21
7555.176935645464
 31
0.0
  0
LINE
  5
66
330
17
100
AcDbEntity
  8
COTA
 62
7
370
25
100
AcDbLine
 10
7956.663747196571
 20
7555.176935645464
 30
0.0
 11
7956.663747196573
 21
7539.176935645489
 31
0.0
  0
LINE
  5
67
330
17
100
AcDbEntity
  8
SARR_2.2x7
 62
7
370
25
100
AcDbLine
 10
7788.218606437393
 20
7491.176935645461
 30
0.0
 11
7788.218606437389
 21
7539.176935645466
 31
0.0
  0
LINE
  5
68
330
17
100
AcDbEntity
  8
SARR_3.5x7
 62
7
370
25
100
AcDbLine
 10
7796.218606437389
 20
7539.17693564548
 30
0.0
 11
7796.218606437392
 21
7491.176935645461
 31
0.0
  0
LINE
  5
69
330
17
100
AcDbEntity
  8
SARR_3.5x7
 62
7
370
25
100
AcDbLine
 10
7799.718606437392
 20
7536.976935645482
 30
0.0
 11
7799.718606437394
 21
7491.176935645464
 31
0.0
  0
LINE
  5
6A
330
17
100
AcDbEntity
  8
SARR_2.2x7
 62
7
370
25
100
AcDbLine
 10
7950.108887955761
 20
7491.176935645487
 30
0.0
 11
7950.108887955764
 21
7539.176935645466
 31
0.0
  0
LINE
  5
6B
330
17
100
AcDbEntity
  8
SARR_3.5x7
 62
7
370
25
100
AcDbLine
 10
7942.108887955765
 20
7539.17693564548
 30
0.0
 11
7942.108887955761
 21
7491.176935645487
 31
0.0
  0
LINE
  5
6C
330
17
100
AcDbEntity
  8
SARR_3.5x7
 62
7
370
25
100
AcDbLine
 10
7938.608887955762
 20
7536.976935645482
 30
0.0
 11
7938.608887955762
 21
7491.176935645487
 31
0.0
  0
LINE
  5
6D
330
17
100
AcDbEntity
  8
0
 62
7
370
25
100
AcDbLine
 10
8078.994714857016
 20
7926.61498227233
 30
0.0
 11
8078.994714857016
 21
7914.61498227233
 31
0.0
  0
LINE
  5
6E
330
17
100
AcDbEntity
  8
0
 62
7
370
25
100
AcDbLine
 10
8214.994714857045
 20
7923.614982272344
 30
0.0
 11
8214.994714857045
 21
7917.614982272344
 31
0.0
  0
LINE
  5
6F
330
17
100
AcDbEntity
  8
0
 62
7
370
25
100
AcDbLine
 10
8212.994714857045
 20
7926.614982272345
 30
0.0
 11
8212.994714857045
 21
7914.614982272344
 31
0.0
  0
LINE
  5
70
330
17
100
AcDbEntity
  8
0
 62
7
370
25
100
AcDbLine
 10
8212.994714857045
 20
7917.614982272344
 30
0.0
 11
8214.994714857045
 21
7917.614982272344
 31
0.0
  0
LINE
  5
71
330
17
100
AcDbEntity
  8
0
 62
7
370
25
100
AcDbLine
 10
8078.994714857016
 20
7914.61498227233
 30
0.0
 11
8108.994714857017
 21
7914.61498227233
 31
0.0
  0
LINE
  5
72
330
17
100
AcDbEntity
  8
0
 62
7
370
25
100
AcDbLine
 10
8182.994714857043
 20
7919.614982272344
 30
0.0
 11
8212.994714857045
 21
7919.614982272344
 31
0.0
  0
LINE
  5
73
330
17
100
AcDbEntity
  8
0
 62
7
370
25
100
AcDbLine
 10
8182.994714857043
 20
7921.614982272345
 30
0.0
 11
8212.994714857045
 21
7921.614982272345
 31
0.0
  0
LINE
  5
74
330
17
100
AcDbEntity
  8
TENSOR
 62
7
370
25
100
AcDbLine
 10
8217.994714857045
 20
7920.61498227233
 30
0.0
 11
8073.691420678917
 21
7920.61498227233
 31
0.0
  0
LINE
  5
75
330
17
100
AcDbEntity
  8
0
 62
7
370
25
100
AcDbLine
 10
8212.994714857045
 20
7923.614982272344
 30
0.0
 11
8214.994714857045
 21
7923.614982272344
 31
0.0
  0
LINE
  5
76
330
17
100
AcDbEntity
  8
0
 62
7
370
25
100
AcDbLine
 10
8108.994714857017
 20
7919.61498227233
 30
0.0
 11
8078.994714857016
 21
7919.61498227233
 31
0.0
  0
LINE
  5
77
330
17
100
AcDbEntity
  8
0
 62
7
370
25
100
AcDbLine
 10
8108.994714857017
 20
7921.61498227233
 30
0.0
 11
8078.994714857016
 21
7921.61498227233
 31
0.0
  0
LINE
  5
78
330
17
100
AcDbEntity
  8
0
 62
7
370
25
100
AcDbLine
 10
8078.994714857016
 20
7926.61498227233
 30
0.0
 11
8108.994714857017
 21
7926.61498227233
 31
0.0
  0
LINE
  5
79
330
17
100
AcDbEntity
  8
0
 62
7
370
25
100
AcDbLine
 10
8212.994714857045
 20
7914.614982272344
 30
0.0
 11
8182.994714857043
 21
7914.614982272344
 31
0.0
  0
LINE
  5
7A
330
17
100
AcDbEntity
  8
0
 62
7
370
25
100
AcDbLine
 10
8212.994714857045
 20
7926.614982272345
 30
0.0
 11
8182.994714857043
 21
7926.614982272345
 31
0.0
  0
LINE
  5
7B
330
17
100
AcDbEntity
  8
0
 62
7
370
25
100
AcDbLine
 10
8076.994714857015
 20
7923.61498227233
 30
0.0
 11
8076.994714857015
 21
7917.61498227233
 31
0.0
  0
LINE
  5
7C
330
17
100
AcDbEntity
  8
0
 62
7
370
25
100
AcDbLine
 10
8078.994714857016
 20
7917.61498227233
 30
0.0
 11
8076.994714857015
 21
7917.61498227233
 31
0.0
  0
LINE
  5
7D
330
17
100
AcDbEntity
  8
0
 62
7
370
25
100
AcDbLine
 10
8076.994714857015
 20
7923.61498227233
 30
0.0
 11
8078.994714857016
 21
7923.61498227233
 31
0.0
  0
LINE
  5
7E
330
17
100
AcDbEntity
  8
0
 62
7
370
25
100
AcDbLine
 10
8459.885453474952
 20
7926.61498227233
 30
0.0
 11
8459.885453474952
 21
7914.61498227233
 31
0.0
  0
LINE
  5
7F
330
17
100
AcDbEntity
  8
0
 62
7
370
25
100
AcDbLine
 10
8323.885453474923
 20
7923.614982272344
 30
0.0
 11
8323.885453474923
 21
7917.614982272344
 31
0.0
  0
LINE
  5
80
330
17
100
AcDbEntity
  8
0
 62
7
370
25
100
AcDbLine
 10
8325.885453474923
 20
7926.614982272345
 30
0.0
 11
8325.885453474923
 21
7914.614982272344
 31
0.0
  0
LINE
  5
81
330
17
100
AcDbEntity
  8
0
 62
7
370
25
100
AcDbLine
 10
8325.885453474923
 20
7917.614982272344
 30
0.0
 11
8323.885453474923
 21
7917.614982272344
 31
0.0
  0
LINE
  5
82
330
17
100
AcDbEntity
  8
0
 62
7
370
25
100
AcDbLine
 10
8459.885453474952
 20
7914.61498227233
 30
0.0
 11
8429.885453474952
 21
7914.61498227233
 31
0.0
  0
LINE
  5
83
330
17
100
AcDbEntity
  8
0
 62
7
370
25
100
AcDbLine
 10
8355.885453474924
 20
7919.614982272344
 30
0.0
 11
8325.885453474923
 21
7919.614982272344
 31
0.0
  0
LINE
  5
84
330
17
100
AcDbEntity
  8
0
 62
7
370
25
100
AcDbLine
 10
8355.885453474924
 20
7921.614982272345
 30
0.0
 11
8325.885453474923
 21
7921.614982272345
 31
0.0
  0
LINE
  5
85
330
17
100
AcDbEntity
  8
TENSOR
 62
7
370
25
100
AcDbLine
 10
8320.885453474923
 20
7920.61498227233
 30
0.0
 11
8465.18874765305
 21
7920.61498227233
 31
0.0
  0
LINE
  5
86
330
17
100
AcDbEntity
  8
0
 62
7
370
25
100
AcDbLine
 10
8325.885453474923
 20
7923.614982272344
 30
0.0
 11
8323.885453474923
 21
7923.614982272344
 31
0.0
  0
LINE
  5
87
330
17
100
AcDbEntity
  8
0
 62
7
370
25
100
AcDbLine
 10
8429.885453474952
 20
7919.61498227233
 30
0.0
 11
8459.885453474952
 21
7919.61498227233
 31
0.0
  0
LINE
  5
88
330
17
100
AcDbEntity
  8
0
 62
7
370
25
100
AcDbLine
 10
8429.885453474952
 20
7921.61498227233
 30
0.0
 11
8459.885453474952
 21
7921.61498227233
 31
0.0
  0
LINE
  5
89
330
17
100
AcDbEntity
  8
0
 62
7
370
25
100
AcDbLine
 10
8459.885453474952
 20
7926.61498227233
 30
0.0
 11
8429.885453474952
 21
7926.61498227233
 31
0.0
  0
LINE
  5
8A
330
17
100
AcDbEntity
  8
0
 62
7
370
25
100
AcDbLine
 10
8325.885453474923
 20
7914.614982272344
 30
0.0
 11
8355.885453474924
 21
7914.614982272344
 31
0.0
  0
LINE
  5
8B
330
17
100
AcDbEntity
  8
0
 62
7
370
25
100
AcDbLine
 10
8325.885453474923
 20
7926.614982272345
 30
0.0
 11
8355.885453474924
 21
7926.614982272345
 31
0.0
  0
LINE
  5
8C
330
17
100
AcDbEntity
  8
0
 62
7
370
25
100
AcDbLine
 10
8461.885453474952
 20
7923.61498227233
 30
0.0
 11
8461.885453474952
 21
7917.61498227233
 31
0.0
  0
LINE
  5
8D
330
17
100
AcDbEntity
  8
0
 62
7
370
25
100
AcDbLine
 10
8459.885453474952
 20
7917.61498227233
 30
0.0
 11
8461.885453474952
 21
7917.61498227233
 31
0.0
  0
LINE
  5
8E
330
17
100
AcDbEntity
  8
0
 62
7
370
25
100
AcDbLine
 10
8461.885453474952
 20
7923.61498227233
 30
0.0
 11
8459.885453474952
 21
7923.61498227233
 31
0.0
  0
LINE
  5
8F
330
17
100
AcDbEntity
  8
SARR_3.5x7
 62
7
370
25
100
AcDbLine
 10
7821.164175265966
 20
7536.976935645473
 30
0.0
 11
7821.164175265963
 21
7491.176935645468
 31
0.0
  0
LINE
  5
90
330
17
100
AcDbEntity
  8
SARR_3.5x7
 62
7
370
25
100
AcDbLine
 10
7817.664175265964
 20
7536.976935645487
 30
0.0
 11
7817.664175265962
 21
7491.176935645468
 31
0.0
  0
LINE
  5
91
330
17
100
AcDbEntity
  8
SARR_2.2x7
 62
7
370
25
100
AcDbLine
 10
8144.247558695708
 20
7552.976935645493
 30
0.0
 11
8098.747558695704
 21
7552.976935645499
 31
0.0
  0
LINE
  5
92
330
17
100
AcDbEntity
  8
SARR_2.2x7
 62
7
370
25
100
AcDbLine
 10
8098.747558695704
 20
7552.976935645499
 30
0.0
 11
7991.747558695692
 21
7552.976935645506
 31
0.0
  0
LINE
  5
93
330
17
100
AcDbEntity
  8
SARR_2.2x7
 62
7
370
25
100
AcDbLine
 10
8152.247558695705
 20
7491.176935645491
 30
0.0
 11
8152.247558695711
 21
7555.176935645491
 31
0.0
  0
LINE
  5
94
330
17
100
AcDbEntity
  8
SARR_3.5x7
 62
7
370
25
100
AcDbLine
 10
8144.24755869571
 20
7555.176935645505
 30
0.0
 11
8144.247558695706
 21
7491.176935645491
 31
0.0
  0
LINE
  5
95
330
17
100
AcDbEntity
  8
SARR_3.5x7
 62
7
370
25
100
AcDbLine
 10
8140.747558695707
 20
7552.976935645507
 30
0.0
 11
8140.747558695705
 21
7491.176935645491
 31
0.0
  0
LINE
  5
96
330
17
100
AcDbEntity
  8
SARR_3.5x7
 62
7
370
25
100
AcDbLine
 10
8144.247558695706
 20
7491.176935645491
 30
0.0
 11
8140.747558695705
 21
7491.176935645491
 31
0.0
  0
LINE
  5
97
330
17
100
AcDbEntity
  8
Painéis
 62
7
370
25
100
AcDbLine
 10
8159.247558695712
 20
7555.176935645491
 30
0.0
 11
7976.74755869571
 21
7555.176935645491
 31
0.0
  0
LINE
  5
98
330
17
100
AcDbEntity
  8
Painéis
 62
7
370
25
100
AcDbLine
 10
8159.247558695707
 20
7491.176935645491
 30
0.0
 11
7976.747558695706
 21
7491.176935645491
 31
0.0
  0
LINE
  5
99
330
17
100
AcDbEntity
  8
Painéis
 62
7
370
25
100
AcDbLine
 10
7976.747558695706
 20
7491.176935645505
 30
0.0
 11
7976.74755869571
 21
7555.176935645505
 31
0.0
  0
LINE
  5
9A
330
17
100
AcDbEntity
  8
Painéis
 62
7
370
25
100
AcDbLine
 10
8159.247558695707
 20
7491.176935645491
 30
0.0
 11
8159.247558695708
 21
7555.176935645491
 31
0.0
  0
LINE
  5
9B
330
17
100
AcDbEntity
  8
SARR_2.2x7
 62
7
370
25
100
AcDbLine
 10
7983.747558695704
 20
7491.176935645476
 30
0.0
 11
7983.747558695691
 21
7555.176935645476
 31
0.0
  0
LINE
  5
9C
330
17
100
AcDbEntity
  8
SARR_3.5x7
 62
7
370
25
100
AcDbLine
 10
7991.747558695691
 20
7555.176935645492
 30
0.0
 11
7991.747558695704
 21
7491.176935645478
 31
0.0
  0
LINE
  5
9D
330
17
100
AcDbEntity
  8
SARR_3.5x7
 62
7
370
25
100
AcDbLine
 10
7995.247558695694
 20
7552.976935645495
 30
0.0
 11
7995.247558695703
 21
7491.176935645478
 31
0.0
  0
LINE
  5
9E
330
17
100
AcDbEntity
  8
SARR_3.5x7
 62
7
370
25
100
AcDbLine
 10
7991.747558695704
 20
7491.176935645478
 30
0.0
 11
7995.247558695703
 21
7491.176935645478
 31
0.0
  0
LINE
  5
9F
330
17
100
AcDbEntity
  8
SARR_3.5x7
 62
7
370
25
100
AcDbLine
 10
8102.247558695735
 20
7552.976935645538
 30
0.0
 11
8102.247558695763
 21
7491.176935645491
 31
0.0
  0
LINE
  5
A0
330
17
100
AcDbEntity
  8
SARR_3.5x7
 62
7
370
25
100
AcDbLine
 10
8095.247558695646
 20
7552.976935645595
 30
0.0
 11
8095.24755869562
 21
7491.176935645491
 31
0.0
  0
LINE
  5
A1
330
17
100
AcDbEntity
  8
SARR_3.5x7
 62
7
370
25
100
AcDbLine
 10
8098.747558695704
 20
7552.976935645493
 30
0.0
 11
8098.747558695706
 21
7491.176935645505
 31
0.0
  0
LINE
  5
A2
330
17
100
AcDbEntity
  8
Painéis
 62
7
370
25
100
AcDbLine
 10
8098.747558695706
 20
7491.176935645491
 30
0.0
 11
8098.747558695704
 21
7555.176935645491
 31
0.0
  0
LINE
  5
A3
330
17
100
AcDbEntity
  8
SARR_3.5x7
 62
7
370
25
100
AcDbLine
 10
8123.402034149238
 20
7555.176935645507
 30
0.0
 11
8123.402034149235
 21
7491.176935645492
 31
0.0
  0
LINE
  5
A4
330
17
100
AcDbEntity
  8
SARR_3.5x7
 62
7
370
25
100
AcDbLine
 10
8119.902034149236
 20
7552.97693564551
 30
0.0
 11
8119.902034149234
 21
7491.176935645492
 31
0.0
  0
LINE
  5
A5
330
17
100
AcDbEntity
  8
SARR_2.2x7
 62
7
370
25
100
AcDbLine
 10
8324.32862333366
 20
7552.976935645493
 30
0.0
 11
8278.328623333658
 21
7552.976935645499
 31
0.0
  0
LINE
  5
A6
330
17
100
AcDbEntity
  8
SARR_2.2x7
 62
7
370
25
100
AcDbLine
 10
8278.328623333658
 20
7552.976935645499
 30
0.0
 11
8196.328623333648
 21
7552.976935645506
 31
0.0
  0
LINE
  5
A7
330
17
100
AcDbEntity
  8
SARR_2.2x7
 62
7
370
25
100
AcDbLine
 10
8332.32862333366
 20
7491.176935645491
 30
0.0
 11
8332.328623333664
 21
7555.176935645491
 31
0.0
  0
LINE
  5
A8
330
17
100
AcDbEntity
  8
SARR_3.5x7
 62
7
370
25
100
AcDbLine
 10
8324.328623333666
 20
7555.176935645505
 30
0.0
 11
8324.32862333366
 21
7491.176935645491
 31
0.0
  0
LINE
  5
A9
330
17
100
AcDbEntity
  8
SARR_3.5x7
 62
7
370
25
100
AcDbLine
 10
8320.828623333662
 20
7552.976935645507
 30
0.0
 11
8320.82862333366
 21
7491.176935645491
 31
0.0
  0
LINE
  5
AA
330
17
100
AcDbEntity
  8
SARR_3.5x7
 62
7
370
25
100
AcDbLine
 10
8324.32862333366
 20
7491.176935645491
 30
0.0
 11
8320.82862333366
 21
7491.176935645491
 31
0.0
  0
LINE
  5
AB
330
17
100
AcDbEntity
  8
Painéis
 62
7
370
25
100
AcDbLine
 10
8339.328623333666
 20
7555.176935645491
 30
0.0
 11
8181.328623333664
 21
7555.176935645491
 31
0.0
  0
LINE
  5
AC
330
17
100
AcDbEntity
  8
Painéis
 62
7
370
25
100
AcDbLine
 10
8339.328623333662
 20
7491.176935645491
 30
0.0
 11
8181.32862333366
 21
7491.176935645491
 31
0.0
  0
LINE
  5
AD
330
17
100
AcDbEntity
  8
Painéis
 62
7
370
25
100
AcDbLine
 10
8181.32862333366
 20
7491.176935645505
 30
0.0
 11
8181.328623333664
 21
7555.176935645505
 31
0.0
  0
LINE
  5
AE
330
17
100
AcDbEntity
  8
Painéis
 62
7
370
25
100
AcDbLine
 10
8339.328623333662
 20
7491.176935645491
 30
0.0
 11
8339.328623333662
 21
7555.176935645491
 31
0.0
  0
LINE
  5
AF
330
17
100
AcDbEntity
  8
SARR_2.2x7
 62
7
370
25
100
AcDbLine
 10
8188.328623333658
 20
7491.176935645476
 30
0.0
 11
8188.328623333646
 21
7555.176935645476
 31
0.0
  0
LINE
  5
B0
330
17
100
AcDbEntity
  8
SARR_3.5x7
 62
7
370
25
100
AcDbLine
 10
8196.328623333648
 20
7555.176935645492
 30
0.0
 11
8196.328623333658
 21
7491.176935645478
 31
0.0
  0
LINE
  5
B1
330
17
100
AcDbEntity
  8
SARR_3.5x7
 62
7
370
25
100
AcDbLine
 10
8199.828623333648
 20
7552.976935645495
 30
0.0
 11
8199.828623333658
 21
7491.176935645478
 31
0.0
  0
LINE
  5
B2
330
17
100
AcDbEntity
  8
SARR_3.5x7
 62
7
370
25
100
AcDbLine
 10
8281.828623333688
 20
7552.976935645538
 30
0.0
 11
8281.828623333718
 21
7491.176935645491
 31
0.0
  0
LINE
  5
B3
330
17
100
AcDbEntity
  8
SARR_3.5x7
 62
7
370
25
100
AcDbLine
 10
8274.8286233336
 20
7552.976935645595
 30
0.0
 11
8274.828623333575
 21
7491.176935645491
 31
0.0
  0
LINE
  5
B4
330
17
100
AcDbEntity
  8
SARR_3.5x7
 62
7
370
25
100
AcDbLine
 10
8278.328623333658
 20
7552.976935645493
 30
0.0
 11
8278.328623333662
 21
7491.176935645505
 31
0.0
  0
LINE
  5
B5
330
17
100
AcDbEntity
  8
Painéis
 62
7
370
25
100
AcDbLine
 10
8278.328623333662
 20
7491.176935645491
 30
0.0
 11
8278.328623333657
 21
7555.176935645491
 31
0.0
  0
LINE
  5
B6
330
17
100
AcDbEntity
  8
SARR_3.5x7
 62
7
370
25
100
AcDbLine
 10
8303.483098787194
 20
7555.176935645507
 30
0.0
 11
8303.483098787188
 21
7491.176935645492
 31
0.0
  0
LINE
  5
B7
330
17
100
AcDbEntity
  8
SARR_3.5x7
 62
7
370
25
100
AcDbLine
 10
8299.98309878719
 20
7552.97693564551
 30
0.0
 11
8299.983098787188
 21
7491.176935645492
 31
0.0
  0
LINE
  5
B8
330
17
100
AcDbEntity
  8
SARR_2.2x7
 62
7
370
25
100
AcDbLine
 10
8377.484580651779
 20
7536.976935645464
 30
0.0
 11
8423.929721410963
 21
7536.976935645481
 31
0.0
  0
LINE
  5
B9
330
17
100
AcDbEntity
  8
SARR_2.2x7
 62
7
370
25
100
AcDbLine
 10
8423.929721410963
 20
7536.976935645481
 30
0.0
 11
8517.374862170152
 21
7536.976935645235
 31
0.0
  0
LINE
  5
BA
330
17
100
AcDbEntity
  8
SARR_3.5x7
 62
7
370
25
100
AcDbLine
 10
8427.429721410994
 20
7536.976935645525
 30
0.0
 11
8427.429721411023
 21
7491.176935645478
 31
0.0
  0
LINE
  5
BB
330
17
100
AcDbEntity
  8
SARR_3.5x7
 62
7
370
25
100
AcDbLine
 10
8420.429721410905
 20
7536.976935645583
 30
0.0
 11
8420.429721410877
 21
7491.176935645478
 31
0.0
  0
LINE
  5
BC
330
17
100
AcDbEntity
  8
SARR_3.5x7
 62
7
370
25
100
AcDbLine
 10
8423.929721410963
 20
7536.976935645481
 30
0.0
 11
8423.929721410965
 21
7491.176935645492
 31
0.0
  0
LINE
  5
BD
330
17
100
AcDbEntity
  8
SARR_3.5x7
 62
7
370
25
100
AcDbLine
 10
8420.429721410877
 20
7491.176935645478
 30
0.0
 11
8423.929721410965
 21
7491.176935645478
 31
0.0
  0
LINE
  5
BE
330
17
100
AcDbEntity
  8
SARR_3.5x7
 62
7
370
25
100
AcDbLine
 10
8423.929721410965
 20
7491.176935645478
 30
0.0
 11
8427.429721411023
 21
7491.176935645478
 31
0.0
  0
LINE
  5
BF
330
17
100
AcDbEntity
  8
Painéis
 62
7
370
25
100
AcDbLine
 10
8362.92972141096
 20
7539.176935645463
 30
0.0
 11
8531.929721410961
 21
7539.176935645489
 31
0.0
  0
LINE
  5
C0
330
17
100
AcDbEntity
  8
Painéis
 62
7
370
25
100
AcDbLine
 10
8362.929721410965
 20
7491.176935645464
 30
0.0
 11
8531.929721410967
 21
7491.176935645488
 31
0.0
  0
LINE
  5
C1
330
17
100
AcDbEntity
  8
Painéis
 62
7
370
25
100
AcDbLine
 10
8423.929721410965
 20
7491.176935645478
 30
0.0
 11
8423.929721410963
 21
7539.176935645478
 31
0.0
  0
LINE
  5
C2
330
17
100
AcDbEntity
  8
Painéis
 62
7
370
25
100
AcDbLine
 10
8531.929721410967
 20
7491.176935645488
 30
0.0
 11
8531.929721410961
 21
7539.176935645489
 31
0.0
  0
LINE
  5
C3
330
17
100
AcDbEntity
  8
Painéis
 62
7
370
25
100
AcDbLine
 10
8362.929721410965
 20
7491.176935645464
 30
0.0
 11
8362.929721410963
 21
7539.176935645463
 31
0.0
  0
LINE
  5
C4
330
17
100
AcDbEntity
  8
COTA
 62
7
370
25
100
AcDbLine
 10
8362.92972141096
 20
7539.176935645463
 30
0.0
 11
8362.92972141096
 21
7555.176935645464
 31
0.0
  0
LINE
  5
C5
330
17
100
AcDbEntity
  8
COTA
 62
7
370
25
100
AcDbLine
 10
8362.92972141096
 20
7555.176935645464
 30
0.0
 11
8531.92972141096
 21
7555.176935645464
 31
0.0
  0
LINE
  5
C6
330
17
100
AcDbEntity
  8
COTA
 62
7
370
25
100
AcDbLine
 10
8531.92972141096
 20
7555.176935645464
 30
0.0
 11
8531.929721410961
 21
7539.176935645489
 31
0.0
  0
LINE
  5
C7
330
17
100
AcDbEntity
  8
SARR_2.2x7
 62
7
370
25
100
AcDbLine
 10
8369.48458065178
 20
7491.176935645461
 30
0.0
 11
8369.484580651777
 21
7539.176935645466
 31
0.0
  0
LINE
  5
C8
330
17
100
AcDbEntity
  8
SARR_3.5x7
 62
7
370
25
100
AcDbLine
 10
8377.484580651779
 20
7539.17693564548
 30
0.0
 11
8377.484580651779
 21
7491.176935645461
 31
0.0
  0
LINE
  5
C9
330
17
100
AcDbEntity
  8
SARR_3.5x7
 62
7
370
25
100
AcDbLine
 10
8380.984580651782
 20
7536.976935645482
 30
0.0
 11
8380.984580651782
 21
7491.176935645464
 31
0.0
  0
LINE
  5
CA
330
17
100
AcDbEntity
  8
SARR_2.2x7
 62
7
370
25
100
AcDbLine
 10
8525.374862170149
 20
7491.176935645487
 30
0.0
 11
8525.374862170152
 21
7539.176935645466
 31
0.0
  0
LINE
  5
CB
330
17
100
AcDbEntity
  8
SARR_3.5x7
 62
7
370
25
100
AcDbLine
 10
8517.374862170152
 20
7539.17693564548
 30
0.0
 11
8517.374862170149
 21
7491.176935645487
 31
0.0
  0
LINE
  5
CC
330
17
100
AcDbEntity
  8
SARR_3.5x7
 62
7
370
25
100
AcDbLine
 10
8513.874862170149
 20
7536.976935645482
 30
0.0
 11
8513.874862170149
 21
7491.176935645487
 31
0.0
  0
LINE
  5
CD
330
17
100
AcDbEntity
  8
SARR_3.5x7
 62
7
370
25
100
AcDbLine
 10
8402.430149480355
 20
7536.976935645473
 30
0.0
 11
8402.43014948035
 21
7491.176935645468
 31
0.0
  0
LINE
  5
CE
330
17
100
AcDbEntity
  8
SARR_3.5x7
 62
7
370
25
100
AcDbLine
 10
8398.930149480351
 20
7536.976935645487
 30
0.0
 11
8398.930149480351
 21
7491.176935645468
 31
0.0
  0
LINE
  5
CF
330
17
100
AcDbEntity
  8
SARR_2.2x7
 62
7
370
25
100
AcDbLine
 10
8737.658010469138
 20
7761.274022921547
 30
0.0
 11
8679.658010469146
 21
7761.274022921559
 31
0.0
  0
LWPOLYLINE
  5
D0
330
17
100
AcDbEntity
  8
Painéis
 62
7
370
25
100
AcDbPolyline
 90
4
 70
0
 10
8122.994714857044
 20
7998.644924744039
 10
8126.994714857046
 20
7998.644924744039
 10
8126.994714857046
 20
7870.644924744039
 10
8122.994714857044
 20
7870.644924744039
  0
LWPOLYLINE
  5
D1
330
17
100
AcDbEntity
  8
Madeira
 62
7
370
25
100
AcDbPolyline
 90
4
 70
0
 10
8122.994714857044
 20
7994.244924744037
 10
8122.994714857044
 20
7998.644924744039
 10
8108.994714857045
 20
7998.644924744039
 10
8108.994714857045
 20
7994.244924744037
  0
LWPOLYLINE
  5
D2
330
17
100
AcDbEntity
  8
Madeira
 62
7
370
25
100
AcDbPolyline
 90
4
 70
0
 10
8088.994714857044
 20
7870.644924744039
 10
8088.994714857044
 20
7875.044924744033
 10
8108.994714857045
 20
7875.044924744033
 10
8108.994714857045
 20
7870.644924744039
  0
LWPOLYLINE
  5
D3
330
17
100
AcDbEntity
  8
Madeira
 62
7
370
25
100
AcDbPolyline
 90
4
 70
0
 10
8122.994714857044
 20
7998.644924744039
 10
8108.994714857045
 20
7998.644924744039
 10
8108.994714857045
 20
7870.644924744039
 10
8122.994714857044
 20
7870.644924744039
  0
LWPOLYLINE
  5
D4
330
17
100
AcDbEntity
  8
Madeira
 62
7
370
25
100
AcDbPolyline
 90
4
 70
0
 10
8164.994714857044
 20
7870.644924744039
 10
8164.994714857044
 20
7875.044924744033
 10
8150.994714857045
 20
7875.044924744033
 10
8150.994714857045
 20
7870.644924744039
  0
LWPOLYLINE
  5
D5
330
17
100
AcDbEntity
  8
Painéis
 62
7
370
25
100
AcDbPolyline
 90
4
 70
0
 10
8164.994714857044
 20
7875.044924744033
 10
8164.994714857044
 20
7878.644924744039
 10
8126.994714857046
 20
7878.644924744039
 10
8126.994714857046
 20
7875.044924744033
  0
LWPOLYLINE
  5
D6
330
17
100
AcDbEntity
  8
Madeira
 62
7
370
25
100
AcDbPolyline
 90
4
 70
0
 10
8126.994714857046
 20
7870.644924744039
 10
8126.994714857046
 20
7875.044924744033
 10
8140.994714857045
 20
7875.044924744033
 10
8140.994714857045
 20
7870.644924744039
  0
LWPOLYLINE
  5
D7
330
17
100
AcDbEntity
  8
Painéis
 62
7
370
25
100
AcDbPolyline
 90
4
 70
0
 10
8168.994714857054
 20
7998.644924744039
 10
8164.994714857057
 20
7998.644924744039
 10
8164.994714857044
 20
7870.644924744039
 10
8168.994714857046
 20
7870.644924744039
  0
LWPOLYLINE
  5
D8
330
17
100
AcDbEntity
  8
Madeira
 62
7
370
25
100
AcDbPolyline
 90
4
 70
0
 10
8168.994714857054
 20
7994.244924744037
 10
8168.994714857054
 20
7998.644924744039
 10
8182.994714857056
 20
7998.644924744039
 10
8182.994714857056
 20
7994.244924744037
  0
LWPOLYLINE
  5
D9
330
17
100
AcDbEntity
  8
Madeira
 62
7
370
25
100
AcDbPolyline
 90
4
 70
0
 10
8202.994714857045
 20
7870.644924744039
 10
8202.994714857045
 20
7875.044924744033
 10
8182.994714857043
 20
7875.044924744033
 10
8182.994714857043
 20
7870.644924744039
  0
LWPOLYLINE
  5
DA
330
17
100
AcDbEntity
  8
Madeira
 62
7
370
25
100
AcDbPolyline
 90
4
 70
0
 10
8168.994714857054
 20
7998.644924744039
 10
8182.994714857056
 20
7998.644924744039
 10
8182.994714857043
 20
7870.644924744039
 10
8168.994714857046
 20
7870.644924744039
  0
LWPOLYLINE
  5
DB
330
17
100
AcDbEntity
  8
CONCRETO
 62
7
370
25
100
AcDbPolyline
 90
8
 70
0
 10
8126.994714857046
 20
7998.644924744039
 10
8126.994714857046
 20
7998.644924744039
 10
8164.994714857053
 20
7998.644924744039
 10
8164.994714857053
 20
7970.644924744025
 10
8164.994714857044
 20
7970.644924744025
 10
8164.994714856986
 20
7878.644924744039
 10
8126.994714857046
 20
7878.644924744039
 10
8126.994714857046
 20
7998.644924744046
  0
LWPOLYLINE
  5
DC
330
17
100
AcDbEntity
  8
barrote
 62
7
370
25
100
AcDbPolyline
 90
4
 70
0
 10
8055.539517185151
 20
7850.644924744083
 10
8250.722457694845
 20
7850.644924744083
 10
8250.722457694845
 20
7870.644924744039
 10
8055.539517185151
 20
7870.644924744039
  0
LWPOLYLINE
  5
DD
330
17
100
AcDbEntity
  8
SCO-___-LAJ
 62
7
370
25
100
AcDbPolyline
 90
4
 70
0
 10
8064.541784600612
 20
7869.311511410713
 10
8231.847645113474
 20
7869.311511410704
 10
8231.847645113474
 20
7866.111831410728
 10
8064.541784600612
 20
7866.111831410737
  0
LWPOLYLINE
  5
DE
330
17
100
AcDbEntity
  8
Painéis
 62
7
370
25
100
AcDbPolyline
 90
4
 70
0
 10
8415.885453474923
 20
7966.644924744016
 10
8411.885453474923
 20
7966.644924744016
 10
8411.885453474923
 20
7870.644924744039
 10
8415.885453474923
 20
7870.644924744039
  0
LWPOLYLINE
  5
DF
330
17
100
AcDbEntity
  8
Madeira
 62
7
370
25
100
AcDbPolyline
 90
4
 70
0
 10
8415.885453474923
 20
7962.244924744016
 10
8415.885453474923
 20
7966.644924744016
 10
8429.885453474923
 20
7966.644924744016
 10
8429.885453474923
 20
7962.244924744016
  0
LWPOLYLINE
  5
E0
330
17
100
AcDbEntity
  8
Madeira
 62
7
370
25
100
AcDbPolyline
 90
4
 70
0
 10
8449.885453474923
 20
7870.644924744039
 10
8449.885453474923
 20
7875.044924744033
 10
8429.885453474923
 20
7875.044924744033
 10
8429.885453474923
 20
7870.644924744039
  0
LWPOLYLINE
  5
E1
330
17
100
AcDbEntity
  8
Madeira
 62
7
370
25
100
AcDbPolyline
 90
4
 70
0
 10
8415.885453474923
 20
7966.644924744016
 10
8429.885453474923
 20
7966.644924744016
 10
8429.885453474923
 20
7870.644924744039
 10
8415.885453474923
 20
7870.644924744039
  0
LWPOLYLINE
  5
E2
330
17
100
AcDbEntity
  8
Madeira
 62
7
370
25
100
AcDbPolyline
 90
4
 70
0
 10
8373.885453474923
 20
7870.644924744039
 10
8373.885453474923
 20
7875.044924744033
 10
8387.885453474923
 20
7875.044924744033
 10
8387.885453474923
 20
7870.644924744039
  0
LWPOLYLINE
  5
E3
330
17
100
AcDbEntity
  8
Painéis
 62
7
370
25
100
AcDbPolyline
 90
4
 70
0
 10
8373.885453474923
 20
7875.044924744033
 10
8373.885453474923
 20
7878.644924744039
 10
8411.885453474923
 20
7878.644924744039
 10
8411.885453474923
 20
7875.044924744033
  0
LWPOLYLINE
  5
E4
330
17
100
AcDbEntity
  8
Madeira
 62
7
370
25
100
AcDbPolyline
 90
4
 70
0
 10
8411.885453474923
 20
7870.644924744039
 10
8411.885453474923
 20
7875.044924744033
 10
8397.885453474923
 20
7875.044924744033
 10
8397.885453474923
 20
7870.644924744039
  0
LWPOLYLINE
  5
E5
330
17
100
AcDbEntity
  8
Painéis
 62
7
370
25
100
AcDbPolyline
 90
4
 70
0
 10
8369.885453474912
 20
7998.644924744039
 10
8373.885453474912
 20
7998.644924744039
 10
8373.885453474923
 20
7870.644924744039
 10
8369.885453474923
 20
7870.644924744039
  0
LWPOLYLINE
  5
E6
330
17
100
AcDbEntity
  8
Madeira
 62
7
370
25
100
AcDbPolyline
 90
4
 70
0
 10
8369.885453474912
 20
7994.244924744037
 10
8369.885453474912
 20
7998.644924744039
 10
8355.885453474912
 20
7998.644924744039
 10
8355.885453474912
 20
7994.244924744037
  0
LWPOLYLINE
  5
E7
330
17
100
AcDbEntity
  8
Madeira
 62
7
370
25
100
AcDbPolyline
 90
4
 70
0
 10
8335.885453474923
 20
7870.644924744039
 10
8335.885453474923
 20
7875.044924744033
 10
8355.885453474924
 20
7875.044924744033
 10
8355.885453474924
 20
7870.644924744039
  0
LWPOLYLINE
  5
E8
330
17
100
AcDbEntity
  8
Madeira
 62
7
370
25
100
AcDbPolyline
 90
4
 70
0
 10
8369.885453474912
 20
7998.644924744039
 10
8355.885453474912
 20
7998.644924744039
 10
8355.885453474924
 20
7870.644924744039
 10
8369.885453474923
 20
7870.644924744039
  0
LWPOLYLINE
  5
E9
330
17
100
AcDbEntity
  8
Painéis
 62
7
370
25
100
AcDbPolyline
 90
4
 70
0
 10
8411.885453474923
 20
7966.644924744016
 10
8411.885453474923
 20
7970.644924744018
 10
8467.485453474897
 20
7970.644924744009
 10
8467.485453474897
 20
7966.644924744009
  0
LWPOLYLINE
  5
EA
330
17
100
AcDbEntity
  8
CONCRETO
 62
7
370
25
100
AcDbPolyline
 90
8
 70
0
 10
8467.485453474897
 20
7970.644924744009
 10
8467.485453474897
 20
7998.644924744039
 10
8373.885453474913
 20
7998.644924744039
 10
8373.885453474913
 20
7970.644924744025
 10
8373.885453474923
 20
7970.644924744025
 10
8373.88545347498
 20
7878.644924744039
 10
8411.885453474923
 20
7878.644924744039
 10
8411.885453474923
 20
7970.644924744018
  0
LWPOLYLINE
  5
EB
330
17
100
AcDbEntity
  8
barrote
 62
7
370
25
100
AcDbPolyline
 90
4
 70
0
 10
8483.340651146817
 20
7850.644924744083
 10
8288.157710637122
 20
7850.644924744083
 10
8288.157710637122
 20
7870.644924744039
 10
8483.340651146817
 20
7870.644924744039
  0
LWPOLYLINE
  5
EC
330
17
100
AcDbEntity
  8
SCO-___-LAJ
 62
7
370
25
100
AcDbPolyline
 90
4
 70
0
 10
8474.338383731356
 20
7869.311511410713
 10
8307.032523218495
 20
7869.311511410704
 10
8307.032523218495
 20
7866.111831410728
 10
8474.338383731356
 20
7866.111831410737
  0
ENDSEC
  0
SECTION
  2
OBJECTS
  0
DICTIONARY
  5
A
330
0
100
AcDbDictionary
281
1
  3
ACAD_COLOR
350
B
  3
ACAD_GROUP
350
C
  3
ACAD_LAYOUT
350
D
  3
ACAD_MATERIAL
350
E
  3
ACAD_MLEADERSTYLE
350
F
  3
ACAD_MLINESTYLE
350
10
  3
ACAD_PLOTSETTINGS
350
11
  3
ACAD_PLOTSTYLENAME
350
12
  3
ACAD_SCALELIST
350
14
  3
ACAD_TABLESTYLE
350
15
  3
ACAD_VISUALSTYLE
350
16
  3
EZDXF_META
350
2D
  0
DICTIONARY
  5
B
330
A
100
AcDbDictionary
281
1
  0
DICTIONARY
  5
C
330
A
100
AcDbDictionary
281
1
  0
DICTIONARY
  5
D
330
A
100
AcDbDictionary
281
1
  3
Model
350
1A
  3
Layout1
350
1E
  0
DICTIONARY
  5
E
330
A
100
AcDbDictionary
281
1
  3
ByBlock
350
1F
  3
ByLayer
350
20
  3
Global
350
21
  0
DICTIONARY
  5
F
330
A
100
AcDbDictionary
281
1
  3
Standard
350
2C
  0
DICTIONARY
  5
10
330
A
100
AcDbDictionary
281
1
  3
Standard
350
22
  0
DICTIONARY
  5
11
330
A
100
AcDbDictionary
281
1
  0
ACDBDICTIONARYWDFLT
  5
12
330
A
100
AcDbDictionary
281
1
  3
Normal
350
13
100
AcDbDictionaryWithDefault
340
13
  0
ACDBPLACEHOLDER
  5
13
330
12
  0
DICTIONARY
  5
14
330
A
100
AcDbDictionary
281
1
  0
DICTIONARY
  5
15
330
A
100
AcDbDictionary
281
1
  0
DICTIONARY
  5
16
330
A
100
AcDbDictionary
281
1
  0
LAYOUT
  5
1A
330
D
100
AcDbPlotSettings
  1

  4
A3
  6

 40
7.5
 41
20.0
 42
7.5
 43
20.0
 44
420.0
 45
297.0
 46
0.0
 47
0.0
 48
0.0
 49
0.0
140
0.0
141
0.0
142
1.0
143
1.0
 70
1024
 72
1
 73
0
 74
5
  7

 75
16
 76
0
 77
2
 78
300
147
1.0
148
0.0
149
0.0
100
AcDbLayout
  1
Model
 70
1
 71
0
 10
0.0
 20
0.0
 11
420.0
 21
297.0
 12
0.0
 22
0.0
 32
0.0
 14
1e+20
 24
1e+20
 34
1e+20
 15
-1e+20
 25
-1e+20
 35
-1e+20
146
0.0
 13
0.0
 23
0.0
 33
0.0
 16
1.0
 26
0.0
 36
0.0
 17
0.0
 27
1.0
 37
0.0
 76
1
330
17
  0
LAYOUT
  5
1E
330
D
100
AcDbPlotSettings
  1

  4
A3
  6

 40
7.5
 41
20.0
 42
7.5
 43
20.0
 44
420.0
 45
297.0
 46
0.0
 47
0.0
 48
0.0
 49
0.0
140
0.0
141
0.0
142
1.0
143
1.0
 70
0
 72
1
 73
0
 74
5
  7

 75
16
 76
0
 77
2
 78
300
147
1.0
148
0.0
149
0.0
100
AcDbLayout
  1
Layout1
 70
1
 71
1
 10
0.0
 20
0.0
 11
420.0
 21
297.0
 12
0.0
 22
0.0
 32
0.0
 14
1e+20
 24
1e+20
 34
1e+20
 15
-1e+20
 25
-1e+20
 35
-1e+20
146
0.0
 13
0.0
 23
0.0
 33
0.0
 16
1.0
 26
0.0
 36
0.0
 17
0.0
 27
1.0
 37
0.0
 76
1
330
1B
  0
MATERIAL
  5
1F
102
{ACAD_REACTORS
330
E
102
}
330
E
100
AcDbMaterial
  1
ByBlock
  2

 70
0
 40
1.0
 71
1
 41
1.0
 91
-1023410177
 42
1.0
 72
1
  3

 73
1
 74
1
 75
1
 44
0.5
 73
0
 45
1.0
 46
1.0
 77
1
  4

 78
1
 79
1
170
1
 48
1.0
171
1
  6

172
1
173
1
174
1
140
1.0
141
1.0
175
1
  7

176
1
177
1
178
1
143
1.0
179
1
  8

270
1
271
1
272
1
145
1.0
146
1.0
273
1
  9

274
1
275
1
276
1
 42
1.0
 72
1
  3

 73
1
 74
1
 75
1
 94
63
  0
MATERIAL
  5
20
102
{ACAD_REACTORS
330
E
102
}
330
E
100
AcDbMaterial
  1
ByLayer
  2

 70
0
 40
1.0
 71
1
 41
1.0
 91
-1023410177
 42
1.0
 72
1
  3

 73
1
 74
1
 75
1
 44
0.5
 73
0
 45
1.0
 46
1.0
 77
1
  4

 78
1
 79
1
170
1
 48
1.0
171
1
  6

172
1
173
1
174
1
140
1.0
141
1.0
175
1
  7

176
1
177
1
178
1
143
1.0
179
1
  8

270
1
271
1
272
1
145
1.0
146
1.0
273
1
  9

274
1
275
1
276
1
 42
1.0
 72
1
  3

 73
1
 74
1
 75
1
 94
63
  0
MATERIAL
  5
21
102
{ACAD_REACTORS
330
E
102
}
330
E
100
AcDbMaterial
  1
Global
  2

 70
0
 40
1.0
 71
1
 41
1.0
 91
-1023410177
 42
1.0
 72
1
  3

 73
1
 74
1
 75
1
 44
0.5
 73
0
 45
1.0
 46
1.0
 77
1
  4

 78
1
 79
1
170
1
 48
1.0
171
1
  6

172
1
173
1
174
1
140
1.0
141
1.0
175
1
  7

176
1
177
1
178
1
143
1.0
179
1
  8

270
1
271
1
272
1
145
1.0
146
1.0
273
1
  9

274
1
275
1
276
1
 42
1.0
 72
1
  3

 73
1
 74
1
 75
1
 94
63
  0
MLINESTYLE
  5
22
102
{ACAD_REACTORS
330
10
102
}
330
10
100
AcDbMlineStyle
  2
Standard
 70
0
  3

 62
256
 51
90.0
 52
90.0
 71
2
 49
0.5
 62
256
  6
BYLAYER
 49
-0.5
 62
256
  6
BYLAYER
  0
MLEADERSTYLE
  5
2C
102
{ACAD_REACTORS
330
F
102
}
330
F
100
AcDbMLeaderStyle
179
2
170
2
171
1
172
0
 90
2
 40
0.0
 41
0.0
173
1
 91
-1056964608
 92
-2
290
1
 42
2.0
291
1
 43
8.0
  3
Standard
 44
4.0
300

342
29
174
1
175
1
176
0
178
1
 93
-1056964608
 45
4.0
292
0
297
0
 46
4.0
 94
-1056964608
 47
1.0
 49
1.0
140
1.0
294
1
141
0.0
177
0
142
1.0
295
0
296
0
143
3.75
271
0
272
9
273
9
  0
DICTIONARY
  5
2D
330
A
100
AcDbDictionary
280
1
281
1
  3
CREATED_BY_EZDXF
350
2E
  3
WRITTEN_BY_EZDXF
350
EF
  0
DICTIONARYVAR
  5
2E
330
2D
100
DictionaryVariables
280
0
  1
1.4.3 @ 2026-06-10T03:13:13.385389+00:00
  0
DICTIONARYVAR
  5
EF
330
2D
100
DictionaryVariables
280
0
  1
1.4.3 @ 2026-06-10T03:13:13.391983+00:00
  0
ENDSEC
  0
EOF
