  0
SECTION
  2
HEADER
  9
$ACADVER
  1
AC1024
  9
$ACADMAINTVER
 70
6
  9
$DWGCODEPAGE
  3
ANSI_1252
  9
$LASTSAVEDBY
  1
ezdxf
  9
$INSBASE
 10
0.0
 20
0.0
 30
0.0
  9
$EXTMIN
 10
1e+20
 20
1e+20
 30
1e+20
  9
$EXTMAX
 10
-1e+20
 20
-1e+20
 30
-1e+20
  9
$LIMMIN
 10
0.0
 20
0.0
  9
$LIMMAX
 10
420.0
 20
297.0
  9
$ORTHOMODE
 70
0
  9
$REGENMODE
 70
1
  9
$FILLMODE
 70
1
  9
$QTEXTMODE
 70
0
  9
$MIRRTEXT
 70
1
  9
$LTSCALE
 40
1.0
  9
$ATTMODE
 70
1
  9
$TEXTSIZE
 40
2.5
  9
$TRACEWID
 40
1.0
  9
$TEXTSTYLE
  7
Standard
  9
$CLAYER
  8
0
  9
$CELTYPE
  6
ByLayer
  9
$CECOLOR
 62
256
  9
$CELTSCALE
 40
1.0
  9
$DISPSILH
 70
0
  9
$DIMSCALE
 40
1.0
  9
$DIMASZ
 40
2.5
  9
$DIMEXO
 40
0.625
  9
$DIMDLI
 40
3.75
  9
$DIMRND
 40
0.0
  9
$DIMDLE
 40
0.0
  9
$DIMEXE
 40
1.25
  9
$DIMTP
 40
0.0
  9
$DIMTM
 40
0.0
  9
$DIMTXT
 40
2.5
  9
$DIMCEN
 40
2.5
  9
$DIMTSZ
 40
0.0
  9
$DIMTOL
 70
0
  9
$DIMLIM
 70
0
  9
$DIMTIH
 70
0
  9
$DIMTOH
 70
0
  9
$DIMSE1
 70
0
  9
$DIMSE2
 70
0
  9
$DIMTAD
 70
1
  9
$DIMZIN
 70
8
  9
$DIMBLK
  1

  9
$DIMASO
 70
1
  9
$DIMSHO
 70
1
  9
$DIMPOST
  1

  9
$DIMAPOST
  1

  9
$DIMALT
 70
0
  9
$DIMALTD
 70
3
  9
$DIMALTF
 40
0.03937007874
  9
$DIMLFAC
 40
1.0
  9
$DIMTOFL
 70
1
  9
$DIMTVP
 40
0.0
  9
$DIMTIX
 70
0
  9
$DIMSOXD
 70
0
  9
$DIMSAH
 70
0
  9
$DIMBLK1
  1

  9
$DIMBLK2
  1

  9
$DIMSTYLE
  2
ISO-25
  9
$DIMCLRD
 70
0
  9
$DIMCLRE
 70
0
  9
$DIMCLRT
 70
0
  9
$DIMTFAC
 40
1.0
  9
$DIMGAP
 40
0.625
  9
$DIMJUST
 70
0
  9
$DIMSD1
 70
0
  9
$DIMSD2
 70
0
  9
$DIMTOLJ
 70
0
  9
$DIMTZIN
 70
8
  9
$DIMALTZ
 70
0
  9
$DIMALTTZ
 70
0
  9
$DIMUPT
 70
0
  9
$DIMDEC
 70
2
  9
$DIMTDEC
 70
2
  9
$DIMALTU
 70
2
  9
$DIMALTTD
 70
3
  9
$DIMTXSTY
  7
Standard
  9
$DIMAUNIT
 70
0
  9
$DIMADEC
 70
0
  9
$DIMALTRND
 40
0.0
  9
$DIMAZIN
 70
0
  9
$DIMDSEP
 70
44
  9
$DIMATFIT
 70
3
  9
$DIMFRAC
 70
0
  9
$DIMLDRBLK
  1

  9
$DIMLUNIT
 70
2
  9
$DIMLWD
 70
-2
  9
$DIMLWE
 70
-2
  9
$DIMTMOVE
 70
0
  9
$DIMFXL
 40
1.0
  9
$DIMFXLON
 70
0
  9
$DIMJOGANG
 40
0.785398163397
  9
$DIMTFILL
 70
0
  9
$DIMTFILLCLR
 70
0
  9
$DIMARCSYM
 70
0
  9
$DIMLTYPE
  6

  9
$DIMLTEX1
  6

  9
$DIMLTEX2
  6

  9
$DIMTXTDIRECTION
 70
0
  9
$LUNITS
 70
2
  9
$LUPREC
 70
4
  9
$SKETCHINC
 40
1.0
  9
$FILLETRAD
 40
10.0
  9
$AUNITS
 70
0
  9
$AUPREC
 70
2
  9
$MENU
  1
.
  9
$ELEVATION
 40
0.0
  9
$PELEVATION
 40
0.0
  9
$THICKNESS
 40
0.0
  9
$LIMCHECK
 70
0
  9
$CHAMFERA
 40
0.0
  9
$CHAMFERB
 40
0.0
  9
$CHAMFERC
 40
0.0
  9
$CHAMFERD
 40
0.0
  9
$SKPOLY
 70
0
  9
$TDCREATE
 40
2461202.5790162035
  9
$TDUCREATE
 40
2458532.153996898
  9
$TDUPDATE
 40
2461202.5790162035
  9
$TDUUPDATE
 40
2458532.1544311
  9
$TDINDWG
 40
0.0
  9
$TDUSRTIMER
 40
0.0
  9
$USRTIMER
 70
1
  9
$ANGBASE
 50
0.0
  9
$ANGDIR
 70
0
  9
$PDMODE
 70
0
  9
$PDSIZE
 40
0.0
  9
$PLINEWID
 40
0.0
  9
$SPLFRAME
 70
0
  9
$SPLINETYPE
 70
6
  9
$SPLINESEGS
 70
8
  9
$HANDSEED
  5
170
  9
$SURFTAB1
 70
6
  9
$SURFTAB2
 70
6
  9
$SURFTYPE
 70
6
  9
$SURFU
 70
6
  9
$SURFV
 70
6
  9
$UCSBASE
  2

  9
$UCSNAME
  2

  9
$UCSORG
 10
0.0
 20
0.0
 30
0.0
  9
$UCSXDIR
 10
1.0
 20
0.0
 30
0.0
  9
$UCSYDIR
 10
0.0
 20
1.0
 30
0.0
  9
$UCSORTHOREF
  2

  9
$UCSORTHOVIEW
 70
0
  9
$UCSORGTOP
 10
0.0
 20
0.0
 30
0.0
  9
$UCSORGBOTTOM
 10
0.0
 20
0.0
 30
0.0
  9
$UCSORGLEFT
 10
0.0
 20
0.0
 30
0.0
  9
$UCSORGRIGHT
 10
0.0
 20
0.0
 30
0.0
  9
$UCSORGFRONT
 10
0.0
 20
0.0
 30
0.0
  9
$UCSORGBACK
 10
0.0
 20
0.0
 30
0.0
  9
$PUCSBASE
  2

  9
$PUCSNAME
  2

  9
$PUCSORG
 10
0.0
 20
0.0
 30
0.0
  9
$PUCSXDIR
 10
1.0
 20
0.0
 30
0.0
  9
$PUCSYDIR
 10
0.0
 20
1.0
 30
0.0
  9
$PUCSORTHOREF
  2

  9
$PUCSORTHOVIEW
 70
0
  9
$PUCSORGTOP
 10
0.0
 20
0.0
 30
0.0
  9
$PUCSORGBOTTOM
 10
0.0
 20
0.0
 30
0.0
  9
$PUCSORGLEFT
 10
0.0
 20
0.0
 30
0.0
  9
$PUCSORGRIGHT
 10
0.0
 20
0.0
 30
0.0
  9
$PUCSORGFRONT
 10
0.0
 20
0.0
 30
0.0
  9
$PUCSORGBACK
 10
0.0
 20
0.0
 30
0.0
  9
$USERI1
 70
0
  9
$USERI2
 70
0
  9
$USERI3
 70
0
  9
$USERI4
 70
0
  9
$USERI5
 70
0
  9
$USERR1
 40
0.0
  9
$USERR2
 40
0.0
  9
$USERR3
 40
0.0
  9
$USERR4
 40
0.0
  9
$USERR5
 40
0.0
  9
$WORLDVIEW
 70
1
  9
$SHADEDGE
 70
3
  9
$SHADEDIF
 70
70
  9
$TILEMODE
 70
1
  9
$MAXACTVP
 70
64
  9
$PINSBASE
 10
0.0
 20
0.0
 30
0.0
  9
$PLIMCHECK
 70
0
  9
$PEXTMIN
 10
1e+20
 20
1e+20
 30
1e+20
  9
$PEXTMAX
 10
-1e+20
 20
-1e+20
 30
-1e+20
  9
$PLIMMIN
 10
0.0
 20
0.0
  9
$PLIMMAX
 10
420.0
 20
297.0
  9
$UNITMODE
 70
0
  9
$VISRETAIN
 70
1
  9
$PLINEGEN
 70
0
  9
$PSLTSCALE
 70
1
  9
$TREEDEPTH
 70
3020
  9
$CMLSTYLE
  2
Standard
  9
$CMLJUST
 70
0
  9
$CMLSCALE
 40
20.0
  9
$PROXYGRAPHICS
 70
1
  9
$MEASUREMENT
 70
1
  9
$CELWEIGHT
370
-1
  9
$ENDCAPS
280
0
  9
$JOINSTYLE
280
0
  9
$LWDISPLAY
290
0
  9
$INSUNITS
 70
6
  9
$HYPERLINKBASE
  1

  9
$STYLESHEET
  1

  9
$XEDIT
290
1
  9
$CEPSNTYPE
380
0
  9
$PSTYLEMODE
290
1
  9
$FINGERPRINTGUID
  2
{C84AA465-4DC0-4A65-B389-AB1AF881449F}
  9
$VERSIONGUID
  2
{1FC4F0A4-A11A-4D5D-BD52-6DB9250AE98C}
  9
$EXTNAMES
290
1
  9
$PSVPSCALE
 40
0.0
  9
$OLESTARTUP
290
0
  9
$SORTENTS
280
127
  9
$INDEXCTL
280
0
  9
$HIDETEXT
280
1
  9
$XCLIPFRAME
280
1
  9
$HALOGAP
280
0
  9
$OBSCOLOR
 70
257
  9
$OBSLTYPE
280
0
  9
$INTERSECTIONDISPLAY
280
0
  9
$INTERSECTIONCOLOR
 70
257
  9
$DIMASSOC
280
2
  9
$PROJECTNAME
  1

  9
$CAMERADISPLAY
290
0
  9
$LENSLENGTH
 40
50.0
  9
$CAMERAHEIGHT
 40
0.0
  9
$STEPSPERSEC
 40
24.0
  9
$STEPSIZE
 40
100.0
  9
$3DDWFPREC
 40
2.0
  9
$PSOLWIDTH
 40
0.005
  9
$PSOLHEIGHT
 40
0.08
  9
$LOFTANG1
 40
1.570796326795
  9
$LOFTANG2
 40
1.570796326795
  9
$LOFTMAG1
 40
0.0
  9
$LOFTMAG2
 40
0.0
  9
$LOFTPARAM
 70
7
  9
$LOFTNORMALS
280
1
  9
$LATITUDE
 40
37.795
  9
$LONGITUDE
 40
-122.394
  9
$NORTHDIRECTION
 40
0.0
  9
$TIMEZONE
 70
-8000
  9
$LIGHTGLYPHDISPLAY
280
1
  9
$TILEMODELIGHTSYNCH
280
1
  9
$CMATERIAL
347
20
  9
$SOLIDHIST
280
0
  9
$SHOWHIST
280
1
  9
$DWFFRAME
280
2
  9
$DGNFRAME
280
2
  9
$REALWORLDSCALE
290
1
  9
$INTERFERECOLOR
 62
256
  9
$CSHADOW
280
0
  9
$SHADOWPLANELOCATION
 40
0.0
  0
ENDSEC
  0
SECTION
  2
CLASSES
  0
CLASS
  1
ACDBDICTIONARYWDFLT
  2
AcDbDictionaryWithDefault
  3
ObjectDBX Classes
 90
0
 91
0
280
0
281
0
  0
CLASS
  1
SUN
  2
AcDbSun
  3
SCENEOE
 90
1153
 91
0
280
0
281
0
  0
CLASS
  1
VISUALSTYLE
  2
AcDbVisualStyle
  3
ObjectDBX Classes
 90
4095
 91
0
280
0
281
0
  0
CLASS
  1
MATERIAL
  2
AcDbMaterial
  3
ObjectDBX Classes
 90
1153
 91
0
280
0
281
0
  0
CLASS
  1
SCALE
  2
AcDbScale
  3
ObjectDBX Classes
 90
1153
 91
0
280
0
281
0
  0
CLASS
  1
TABLESTYLE
  2
AcDbTableStyle
  3
ObjectDBX Classes
 90
4095
 91
0
280
0
281
0
  0
CLASS
  1
MLEADERSTYLE
  2
AcDbMLeaderStyle
  3
ACDB_MLEADERSTYLE_CLASS
 90
4095
 91
0
280
0
281
0
  0
CLASS
  1
DICTIONARYVAR
  2
AcDbDictionaryVar
  3
ObjectDBX Classes
 90
0
 91
0
280
0
281
0
  0
CLASS
  1
CELLSTYLEMAP
  2
AcDbCellStyleMap
  3
ObjectDBX Classes
 90
1152
 91
0
280
0
281
0
  0
CLASS
  1
MENTALRAYRENDERSETTINGS
  2
AcDbMentalRayRenderSettings
  3
SCENEOE
 90
1024
 91
0
280
0
281
0
  0
CLASS
  1
ACDBDETAILVIEWSTYLE
  2
AcDbDetailViewStyle
  3
ObjectDBX Classes
 90
1025
 91
0
280
0
281
0
  0
CLASS
  1
ACDBSECTIONVIEWSTYLE
  2
AcDbSectionViewStyle
  3
ObjectDBX Classes
 90
1025
 91
0
280
0
281
0
  0
CLASS
  1
RASTERVARIABLES
  2
AcDbRasterVariables
  3
ISM
 90
0
 91
0
280
0
281
0
  0
CLASS
  1
LAYOUT
  2
AcDbLayout
  3
ObjectDBX Classes
 90
0
 91
0
280
0
281
0
  0
CLASS
  1
ACDBPLACEHOLDER
  2
AcDbPlaceHolder
  3
ObjectDBX Classes
 90
0
 91
0
280
0
281
0
  0
ENDSEC
  0
SECTION
  2
TABLES
  0
TABLE
  2
VPORT
  5
8
330
0
100
AcDbSymbolTable
 70
1
  0
VPORT
  5
23
330
8
100
AcDbSymbolTableRecord
100
AcDbViewportTableRecord
  2
*Active
 70
0
 10
0.0
 20
0.0
 11
1.0
 21
1.0
 12
0.0
 22
0.0
 13
0.0
 23
0.0
 14
0.5
 24
0.5
 15
0.5
 25
0.5
 16
0.0
 26
0.0
 36
1.0
 17
0.0
 27
0.0
 37
0.0
 40
1000.0
 41
1.34
 42
50.0
 43
0.0
 44
0.0
 50
0.0
 51
0.0
 71
0
 72
1000
 73
1
 74
3
 75
0
 76
0
 77
0
 78
0
281
0
 65
0
146
0.0
  0
ENDTAB
  0
TABLE
  2
LTYPE
  5
2
330
0
100
AcDbSymbolTable
 70
3
  0
LTYPE
  5
24
330
2
100
AcDbSymbolTableRecord
100
AcDbLinetypeTableRecord
  2
ByBlock
 70
0
  3

 72
65
 73
0
 40
0.0
  0
LTYPE
  5
25
330
2
100
AcDbSymbolTableRecord
100
AcDbLinetypeTableRecord
  2
ByLayer
 70
0
  3

 72
65
 73
0
 40
0.0
  0
LTYPE
  5
26
330
2
100
AcDbSymbolTableRecord
100
AcDbLinetypeTableRecord
  2
Continuous
 70
0
  3

 72
65
 73
0
 40
0.0
  0
ENDTAB
  0
TABLE
  2
LAYER
  5
1
330
0
100
AcDbSymbolTable
 70
20
  0
LAYER
  5
27
330
1
100
AcDbSymbolTableRecord
100
AcDbLayerTableRecord
  2
0
 70
0
 62
7
  6
Continuous
370
-3
390
13
347
21
  0
LAYER
  5
28
330
1
100
AcDbSymbolTableRecord
100
AcDbLayerTableRecord
  2
Defpoints
 70
0
 62
7
  6
Continuous
290
0
370
-3
390
13
347
21
  0
LAYER
  5
2F
330
1
100
AcDbSymbolTableRecord
100
AcDbLayerTableRecord
  2
Cotas
 70
0
 62
7
  6
Continuous
370
-3
390
13
347
21
  0
LAYER
  5
30
330
1
100
AcDbSymbolTableRecord
100
AcDbLayerTableRecord
  2
Madeira
 70
0
 62
7
  6
Continuous
370
-3
390
13
347
21
  0
LAYER
  5
31
330
1
100
AcDbSymbolTableRecord
100
AcDbLayerTableRecord
  2
5
 70
0
 62
7
  6
Continuous
370
-3
390
13
347
21
  0
LAYER
  5
32
330
1
100
AcDbSymbolTableRecord
100
AcDbLayerTableRecord
  2
detalhes
 70
0
 62
7
  6
Continuous
370
-3
390
13
347
21
  0
LAYER
  5
33
330
1
100
AcDbSymbolTableRecord
100
AcDbLayerTableRecord
  2
texto
 70
0
 62
7
  6
Continuous
370
-3
390
13
347
21
  0
LAYER
  5
34
330
1
100
AcDbSymbolTableRecord
100
AcDbLayerTableRecord
  2
COTA
 70
0
 62
7
  6
Continuous
370
-3
390
13
347
21
  0
LAYER
  5
35
330
1
100
AcDbSymbolTableRecord
100
AcDbLayerTableRecord
  2
SCO-___-LAJ
 70
0
 62
7
  6
Continuous
370
-3
390
13
347
21
  0
LAYER
  5
36
330
1
100
AcDbSymbolTableRecord
100
AcDbLayerTableRecord
  2
Hachura
 70
0
 62
7
  6
Continuous
370
-3
390
13
347
21
  0
LAYER
  5
37
330
1
100
AcDbSymbolTableRecord
100
AcDbLayerTableRecord
  2
barrote
 70
0
 62
7
  6
Continuous
370
-3
390
13
347
21
  0
LAYER
  5
38
330
1
100
AcDbSymbolTableRecord
100
AcDbLayerTableRecord
  2
presilha
 70
0
 62
7
  6
Continuous
370
-3
390
13
347
21
  0
LAYER
  5
39
330
1
100
AcDbSymbolTableRecord
100
AcDbLayerTableRecord
  2
Painéis
 70
0
 62
7
  6
Continuous
370
-3
390
13
347
21
  0
LAYER
  5
3A
330
1
100
AcDbSymbolTableRecord
100
AcDbLayerTableRecord
  2
SARR_3.5x7
 70
0
 62
7
  6
Continuous
370
-3
390
13
347
21
  0
LAYER
  5
3B
330
1
100
AcDbSymbolTableRecord
100
AcDbLayerTableRecord
  2
NOMENCLATURA
 70
0
 62
7
  6
Continuous
370
-3
390
13
347
21
  0
LAYER
  5
3C
330
1
100
AcDbSymbolTableRecord
100
AcDbLayerTableRecord
  2
CONCRETO
 70
0
 62
7
  6
Continuous
370
-3
390
13
347
21
  0
LAYER
  5
3D
330
1
100
AcDbSymbolTableRecord
100
AcDbLayerTableRecord
  2
Texto Seção
 70
0
 62
7
  6
Continuous
370
-3
390
13
347
21
  0
LAYER
  5
3E
330
1
100
AcDbSymbolTableRecord
100
AcDbLayerTableRecord
  2
TEXTO PILAR
 70
0
 62
7
  6
Continuous
370
-3
390
13
347
21
  0
LAYER
  5
3F
330
1
100
AcDbSymbolTableRecord
100
AcDbLayerTableRecord
  2
SARR_2.2x7
 70
0
 62
7
  6
Continuous
370
-3
390
13
347
21
  0
LAYER
  5
40
330
1
100
AcDbSymbolTableRecord
100
AcDbLayerTableRecord
  2
TENSOR
 70
0
 62
7
  6
Continuous
370
-3
390
13
347
21
  0
ENDTAB
  0
TABLE
  2
STYLE
  5
5
330
0
100
AcDbSymbolTable
 70
1
  0
STYLE
  5
29
330
5
100
AcDbSymbolTableRecord
100
AcDbTextStyleTableRecord
  2
Standard
 70
0
 40
0.0
 41
1.0
 50
0.0
 71
0
 42
2.5
  3
txt
  4

  0
ENDTAB
  0
TABLE
  2
VIEW
  5
7
330
0
100
AcDbSymbolTable
 70
0
  0
ENDTAB
  0
TABLE
  2
UCS
  5
6
330
0
100
AcDbSymbolTable
 70
0
  0
ENDTAB
  0
TABLE
  2
APPID
  5
3
330
0
100
AcDbSymbolTable
 70
3
  0
APPID
  5
2A
330
3
100
AcDbSymbolTableRecord
100
AcDbRegAppTableRecord
  2
ACAD
 70
0
  0
APPID
  5
16D
330
3
100
AcDbSymbolTableRecord
100
AcDbRegAppTableRecord
  2
HATCHBACKGROUNDCOLOR
 70
0
  0
APPID
  5
16E
330
3
100
AcDbSymbolTableRecord
100
AcDbRegAppTableRecord
  2
EZDXF
 70
0
  0
ENDTAB
  0
TABLE
  2
DIMSTYLE
  5
4
330
0
100
AcDbSymbolTable
 70
1
100
AcDbDimStyleTable
  0
DIMSTYLE
105
2B
330
4
100
AcDbSymbolTableRecord
100
AcDbDimStyleTableRecord
  2
Standard
 70
0
 40
1.0
 41
2.5
 42
0.625
 43
3.75
 44
1.25
 45
0.0
 46
0.0
 47
0.0
 48
0.0
 49
2.5
140
2.5
141
2.5
142
0.0
143
0.03937007874
144
1.0
145
0.0
146
1.0
147
0.625
148
0.0
 69
0
 70
0
 71
0
 72
0
 73
0
 74
0
 75
0
 76
0
 77
1
 78
8
 79
3
170
0
171
3
172
1
173
0
174
0
175
0
176
0
177
0
178
0
179
2
271
2
272
2
273
2
274
3
275
0
276
0
277
2
278
44
279
0
280
0
281
0
282
0
283
0
284
8
285
0
286
0
288
0
289
3
290
0
371
-2
372
-2
  0
ENDTAB
  0
TABLE
  2
BLOCK_RECORD
  5
9
330
0
100
AcDbSymbolTable
 70
2
  0
BLOCK_RECORD
  5
17
330
9
100
AcDbSymbolTableRecord
100
AcDbBlockTableRecord
  2
*Model_Space
340
1A
 70
0
280
1
281
0
  0
BLOCK_RECORD
  5
1B
330
9
100
AcDbSymbolTableRecord
100
AcDbBlockTableRecord
  2
*Paper_Space
340
1E
 70
0
280
1
281
0
  0
ENDTAB
  0
ENDSEC
  0
SECTION
  2
BLOCKS
  0
BLOCK
  5
18
330
17
100
AcDbEntity
  8
0
100
AcDbBlockBegin
  2
*Model_Space
 70
0
 10
0.0
 20
0.0
 30
0.0
  3
*Model_Space
  1

  0
ENDBLK
  5
19
330
17
100
AcDbEntity
  8
0
100
AcDbBlockEnd
  0
BLOCK
  5
1C
330
1B
100
AcDbEntity
  8
0
100
AcDbBlockBegin
  2
*Paper_Space
 70
0
 10
0.0
 20
0.0
 30
0.0
  3
*Paper_Space
  1

  0
ENDBLK
  5
1D
330
1B
100
AcDbEntity
  8
0
100
AcDbBlockEnd
  0
ENDSEC
  0
SECTION
  2
ENTITIES
  0
LINE
  5
41
330
17
100
AcDbEntity
  8
SARR_2.2x7
 62
7
370
25
100
AcDbLine
 10
6096.709931850281
 20
7766.074022921562
 30
0.0
 11
6325.709931850281
 21
7766.074022921576
 31
0.0
  0
LINE
  5
42
330
17
100
AcDbEntity
  8
SARR_2.2x7
 62
7
370
25
100
AcDbLine
 10
6325.709931850281
 20
7766.074022921576
 30
0.0
 11
6569.70993185028
 21
7766.074022921569
 31
0.0
  0
LINE
  5
43
330
17
100
AcDbEntity
  8
SARR_2.2x7
 62
7
370
25
100
AcDbLine
 10
6569.70993185028
 20
7766.074022921569
 30
0.0
 11
6813.70993185028
 21
7766.074022921562
 31
0.0
  0
LINE
  5
44
330
17
100
AcDbEntity
  8
SARR_2.2x7
 62
7
370
25
100
AcDbLine
 10
6813.70993185028
 20
7766.074022921556
 30
0.0
 11
7057.709931850282
 21
7766.074022921543
 31
0.0
  0
LINE
  5
45
330
17
100
AcDbEntity
  8
SARR_2.2x7
 62
7
370
25
100
AcDbLine
 10
7057.709931850282
 20
7766.074022921549
 30
0.0
 11
7164.509931850279
 21
7766.074022921543
 31
0.0
  0
LINE
  5
46
330
17
100
AcDbEntity
  8
SARR_2.2x7
 62
7
370
25
100
AcDbLine
 10
6088.709931850282
 20
7704.274022921559
 30
0.0
 11
6088.709931850279
 21
7768.274022921558
 31
0.0
  0
LINE
  5
47
330
17
100
AcDbEntity
  8
SARR_3.5x7
 62
7
370
25
100
AcDbLine
 10
6329.20993185031
 20
7766.07402292162
 30
0.0
 11
6329.209931850341
 21
7704.274022921573
 31
0.0
  0
LINE
  5
48
330
17
100
AcDbEntity
  8
SARR_3.5x7
 62
7
370
25
100
AcDbLine
 10
6322.209931850222
 20
7766.074022921678
 30
0.0
 11
6322.209931850196
 21
7704.274022921573
 31
0.0
  0
LINE
  5
49
330
17
100
AcDbEntity
  8
SARR_3.5x7
 62
7
370
25
100
AcDbLine
 10
6096.709931850279
 20
7768.274022921573
 30
0.0
 11
6096.709931850282
 21
7704.274022921559
 31
0.0
  0
LINE
  5
4A
330
17
100
AcDbEntity
  8
SARR_3.5x7
 62
7
370
25
100
AcDbLine
 10
6100.20993185028
 20
7766.074022921576
 30
0.0
 11
6100.209931850282
 21
7704.274022921559
 31
0.0
  0
LINE
  5
4B
330
17
100
AcDbEntity
  8
SARR_3.5x7
 62
7
370
25
100
AcDbLine
 10
6325.709931850281
 20
7766.074022921576
 30
0.0
 11
6325.709931850282
 21
7704.274022921588
 31
0.0
  0
LINE
  5
4C
330
17
100
AcDbEntity
  8
SARR_3.5x7
 62
7
370
25
100
AcDbLine
 10
6322.209931850196
 20
7704.274022921573
 30
0.0
 11
6325.709931850282
 21
7704.274022921573
 31
0.0
  0
LINE
  5
4D
330
17
100
AcDbEntity
  8
SARR_3.5x7
 62
7
370
25
100
AcDbLine
 10
6325.709931850282
 20
7704.274022921573
 30
0.0
 11
6329.209931850341
 21
7704.274022921573
 31
0.0
  0
LINE
  5
4E
330
17
100
AcDbEntity
  8
SARR_3.5x7
 62
7
370
25
100
AcDbLine
 10
6096.709931850282
 20
7704.274022921559
 30
0.0
 11
6100.209931850282
 21
7704.274022921559
 31
0.0
  0
LINE
  5
4F
330
17
100
AcDbEntity
  8
Painéis
 62
7
370
25
100
AcDbLine
 10
6081.709931850276
 20
7768.274022921558
 30
0.0
 11
7164.509931850279
 21
7768.274022921558
 31
0.0
  0
LINE
  5
50
330
17
100
AcDbEntity
  8
Painéis
 62
7
370
25
100
AcDbLine
 10
6081.709931850283
 20
7704.274022921559
 30
0.0
 11
7175.509931850282
 21
7704.274022921559
 31
0.0
  0
LINE
  5
51
330
17
100
AcDbEntity
  8
Painéis
 62
7
370
25
100
AcDbLine
 10
6325.709931850282
 20
7704.274022921573
 30
0.0
 11
6325.709931850279
 21
7768.274022921573
 31
0.0
  0
LINE
  5
52
330
17
100
AcDbEntity
  8
Painéis
 62
7
370
25
100
AcDbLine
 10
7175.509931850282
 20
7704.274022921559
 30
0.0
 11
7175.509931850278
 21
7752.274022921558
 31
0.0
  0
LINE
  5
53
330
17
100
AcDbEntity
  8
Painéis
 62
7
370
25
100
AcDbLine
 10
6081.709931850283
 20
7704.274022921559
 30
0.0
 11
6081.709931850279
 21
7768.274022921558
 31
0.0
  0
LINE
  5
54
330
17
100
AcDbEntity
  8
SARR_2.2x7
 62
7
370
25
100
AcDbLine
 10
7168.509931850282
 20
7704.274022921534
 30
0.0
 11
7168.509931850285
 21
7752.274022921558
 31
0.0
  0
LINE
  5
55
330
17
100
AcDbEntity
  8
SARR_3.5x7
 62
7
370
25
100
AcDbLine
 10
7164.509931850279
 20
7768.274022921549
 30
0.0
 11
7164.509931850275
 21
7704.274022921534
 31
0.0
  0
LINE
  5
56
330
17
100
AcDbEntity
  8
SARR_3.5x7
 62
7
370
25
100
AcDbLine
 10
7161.009931850277
 20
7766.07402292155
 30
0.0
 11
7161.009931850275
 21
7704.274022921534
 31
0.0
  0
LINE
  5
57
330
17
100
AcDbEntity
  8
NOMENCLATURA
 62
7
370
25
100
AcDbLine
 10
6067.327546907698
 20
7737.821084056118
 30
0.0
 11
6110.092316792863
 21
7737.821084056118
 31
0.0
  0
LINE
  5
58
330
17
100
AcDbEntity
  8
NOMENCLATURA
 62
7
370
25
100
AcDbLine
 10
6105.092316792863
 20
7742.798705945017
 30
0.0
 11
6105.092316792863
 21
7732.843462167216
 31
0.0
  0
LINE
  5
59
330
17
100
AcDbEntity
  8
NOMENCLATURA
 62
7
370
25
100
AcDbLine
 10
6072.327546907698
 20
7742.798705945017
 30
0.0
 11
6072.327546907698
 21
7732.843462167216
 31
0.0
  0
LINE
  5
5A
330
17
100
AcDbEntity
  8
Painéis
 62
7
370
25
100
AcDbLine
 10
7178.471504751319
 20
7903.289013113236
 30
0.0
 11
7174.697887372563
 21
7906.889013113228
 31
0.0
  0
LINE
  5
5B
330
17
100
AcDbEntity
  8
Painéis
 62
7
370
25
100
AcDbLine
 10
7174.697887372563
 20
7906.889013113228
 30
0.0
 11
7244.552905488646
 21
7906.889013113228
 31
0.0
  0
LINE
  5
5C
330
17
100
AcDbEntity
  8
Painéis
 62
7
370
25
100
AcDbLine
 10
7178.471504751319
 20
7903.289013113236
 30
0.0
 11
7244.536743712034
 21
7903.289013113225
 31
0.0
  0
LINE
  5
5D
330
17
100
AcDbEntity
  8
Painéis
 62
7
370
25
100
AcDbLine
 10
7175.509931850278
 20
7752.274022921558
 30
0.0
 11
7164.509931850279
 21
7752.274022921558
 31
0.0
  0
LINE
  5
5E
330
17
100
AcDbEntity
  8
Painéis
 62
7
370
25
100
AcDbLine
 10
7164.509931850279
 20
7752.274022921558
 30
0.0
 11
7164.509931850279
 21
7768.274022921558
 31
0.0
  0
LINE
  5
5F
330
17
100
AcDbEntity
  8
COTA
 62
7
370
25
100
AcDbLine
 10
7175.509931850278
 20
7752.274022921558
 30
0.0
 11
7175.509931850278
 21
7768.274022921558
 31
0.0
  0
LINE
  5
60
330
17
100
AcDbEntity
  8
COTA
 62
7
370
25
100
AcDbLine
 10
7175.509931850278
 20
7768.274022921558
 30
0.0
 11
7164.509931850279
 21
7768.274022921558
 31
0.0
  0
LINE
  5
61
330
17
100
AcDbEntity
  8
SARR_3.5x7
 62
7
370
25
100
AcDbLine
 10
6573.20993185031
 20
7766.07402292162
 30
0.0
 11
6573.20993185034
 21
7704.274022921573
 31
0.0
  0
LINE
  5
62
330
17
100
AcDbEntity
  8
SARR_3.5x7
 62
7
370
25
100
AcDbLine
 10
6566.209931850223
 20
7766.074022921678
 30
0.0
 11
6566.209931850195
 21
7704.274022921573
 31
0.0
  0
LINE
  5
63
330
17
100
AcDbEntity
  8
SARR_3.5x7
 62
7
370
25
100
AcDbLine
 10
6569.70993185028
 20
7766.074022921576
 30
0.0
 11
6569.709931850282
 21
7704.274022921588
 31
0.0
  0
LINE
  5
64
330
17
100
AcDbEntity
  8
Painéis
 62
7
370
25
100
AcDbLine
 10
6569.709931850282
 20
7704.274022921573
 30
0.0
 11
6569.70993185028
 21
7768.274022921573
 31
0.0
  0
LINE
  5
65
330
17
100
AcDbEntity
  8
SARR_3.5x7
 62
7
370
25
100
AcDbLine
 10
6817.20993185031
 20
7766.07402292162
 30
0.0
 11
6817.209931850341
 21
7704.274022921573
 31
0.0
  0
LINE
  5
66
330
17
100
AcDbEntity
  8
SARR_3.5x7
 62
7
370
25
100
AcDbLine
 10
6810.209931850223
 20
7766.074022921678
 30
0.0
 11
6810.209931850195
 21
7704.274022921573
 31
0.0
  0
LINE
  5
67
330
17
100
AcDbEntity
  8
SARR_3.5x7
 62
7
370
25
100
AcDbLine
 10
6813.70993185028
 20
7766.074022921576
 30
0.0
 11
6813.709931850282
 21
7704.274022921588
 31
0.0
  0
LINE
  5
68
330
17
100
AcDbEntity
  8
Painéis
 62
7
370
25
100
AcDbLine
 10
6813.709931850282
 20
7704.274022921573
 30
0.0
 11
6813.709931850279
 21
7768.274022921573
 31
0.0
  0
LINE
  5
69
330
17
100
AcDbEntity
  8
SARR_3.5x7
 62
7
370
25
100
AcDbLine
 10
7061.20993185031
 20
7766.07402292162
 30
0.0
 11
7061.209931850341
 21
7704.274022921573
 31
0.0
  0
LINE
  5
6A
330
17
100
AcDbEntity
  8
SARR_3.5x7
 62
7
370
25
100
AcDbLine
 10
7054.209931850222
 20
7766.074022921678
 30
0.0
 11
7054.209931850195
 21
7704.274022921573
 31
0.0
  0
LINE
  5
6B
330
17
100
AcDbEntity
  8
SARR_3.5x7
 62
7
370
25
100
AcDbLine
 10
7057.70993185028
 20
7766.074022921576
 30
0.0
 11
7057.709931850283
 21
7704.274022921588
 31
0.0
  0
LINE
  5
6C
330
17
100
AcDbEntity
  8
Painéis
 62
7
370
25
100
AcDbLine
 10
7057.709931850283
 20
7704.274022921573
 30
0.0
 11
7057.709931850279
 21
7768.274022921573
 31
0.0
  0
LINE
  5
6D
330
17
100
AcDbEntity
  8
SARR_2.2x7
 62
7
370
25
100
AcDbLine
 10
6096.709931850266
 20
7536.976935645464
 30
0.0
 11
6326.155072609452
 21
7536.976935645481
 31
0.0
  0
LINE
  5
6E
330
17
100
AcDbEntity
  8
SARR_2.2x7
 62
7
370
25
100
AcDbLine
 10
6326.155072609452
 20
7536.976935645481
 30
0.0
 11
6453.600213368642
 21
7536.976935645235
 31
0.0
  0
LINE
  5
6F
330
17
100
AcDbEntity
  8
SARR_3.5x7
 62
7
370
25
100
AcDbLine
 10
6329.655072609481
 20
7536.976935645525
 30
0.0
 11
6329.655072609511
 21
7491.176935645478
 31
0.0
  0
LINE
  5
70
330
17
100
AcDbEntity
  8
SARR_3.5x7
 62
7
370
25
100
AcDbLine
 10
6322.655072609394
 20
7536.976935645583
 30
0.0
 11
6322.655072609366
 21
7491.176935645478
 31
0.0
  0
LINE
  5
71
330
17
100
AcDbEntity
  8
SARR_3.5x7
 62
7
370
25
100
AcDbLine
 10
6326.155072609452
 20
7536.976935645481
 30
0.0
 11
6326.155072609454
 21
7491.176935645492
 31
0.0
  0
LINE
  5
72
330
17
100
AcDbEntity
  8
SARR_3.5x7
 62
7
370
25
100
AcDbLine
 10
6322.655072609366
 20
7491.176935645478
 30
0.0
 11
6326.155072609454
 21
7491.176935645478
 31
0.0
  0
LINE
  5
73
330
17
100
AcDbEntity
  8
SARR_3.5x7
 62
7
370
25
100
AcDbLine
 10
6326.155072609454
 20
7491.176935645478
 30
0.0
 11
6329.655072609511
 21
7491.176935645478
 31
0.0
  0
LINE
  5
74
330
17
100
AcDbEntity
  8
Painéis
 62
7
370
25
100
AcDbLine
 10
6082.155072609449
 20
7539.176935645463
 30
0.0
 11
6468.15507260945
 21
7539.176935645489
 31
0.0
  0
LINE
  5
75
330
17
100
AcDbEntity
  8
Painéis
 62
7
370
25
100
AcDbLine
 10
6082.155072609453
 20
7491.176935645464
 30
0.0
 11
6468.155072609454
 21
7491.176935645488
 31
0.0
  0
LINE
  5
76
330
17
100
AcDbEntity
  8
Painéis
 62
7
370
25
100
AcDbLine
 10
6326.155072609454
 20
7491.176935645478
 30
0.0
 11
6326.15507260945
 21
7539.176935645478
 31
0.0
  0
LINE
  5
77
330
17
100
AcDbEntity
  8
Painéis
 62
7
370
25
100
AcDbLine
 10
6468.155072609454
 20
7491.176935645488
 30
0.0
 11
6468.15507260945
 21
7539.176935645489
 31
0.0
  0
LINE
  5
78
330
17
100
AcDbEntity
  8
Painéis
 62
7
370
25
100
AcDbLine
 10
6082.155072609453
 20
7491.176935645464
 30
0.0
 11
6082.15507260945
 21
7539.176935645463
 31
0.0
  0
LINE
  5
79
330
17
100
AcDbEntity
  8
COTA
 62
7
370
25
100
AcDbLine
 10
6082.155072609449
 20
7539.176935645463
 30
0.0
 11
6082.155072609449
 21
7555.176935645464
 31
0.0
  0
LINE
  5
7A
330
17
100
AcDbEntity
  8
COTA
 62
7
370
25
100
AcDbLine
 10
6082.155072609449
 20
7555.176935645464
 30
0.0
 11
6468.155072609448
 21
7555.176935645464
 31
0.0
  0
LINE
  5
7B
330
17
100
AcDbEntity
  8
COTA
 62
7
370
25
100
AcDbLine
 10
6468.155072609448
 20
7555.176935645464
 30
0.0
 11
6468.15507260945
 21
7539.176935645489
 31
0.0
  0
LINE
  5
7C
330
17
100
AcDbEntity
  8
SARR_2.2x7
 62
7
370
25
100
AcDbLine
 10
6088.70993185027
 20
7491.176935645461
 30
0.0
 11
6088.709931850267
 21
7539.176935645466
 31
0.0
  0
LINE
  5
7D
330
17
100
AcDbEntity
  8
SARR_3.5x7
 62
7
370
25
100
AcDbLine
 10
6096.709931850266
 20
7539.17693564548
 30
0.0
 11
6096.70993185027
 21
7491.176935645461
 31
0.0
  0
LINE
  5
7E
330
17
100
AcDbEntity
  8
SARR_3.5x7
 62
7
370
25
100
AcDbLine
 10
6100.209931850269
 20
7536.976935645482
 30
0.0
 11
6100.20993185027
 21
7491.176935645464
 31
0.0
  0
LINE
  5
7F
330
17
100
AcDbEntity
  8
SARR_2.2x7
 62
7
370
25
100
AcDbLine
 10
6461.600213368638
 20
7491.176935645487
 30
0.0
 11
6461.60021336864
 21
7539.176935645466
 31
0.0
  0
LINE
  5
80
330
17
100
AcDbEntity
  8
SARR_3.5x7
 62
7
370
25
100
AcDbLine
 10
6453.600213368641
 20
7539.17693564548
 30
0.0
 11
6453.600213368638
 21
7491.176935645487
 31
0.0
  0
LINE
  5
81
330
17
100
AcDbEntity
  8
SARR_3.5x7
 62
7
370
25
100
AcDbLine
 10
6450.100213368639
 20
7536.976935645482
 30
0.0
 11
6450.100213368639
 21
7491.176935645487
 31
0.0
  0
LINE
  5
82
330
17
100
AcDbEntity
  8
SARR_2.2x7
 62
7
370
25
100
AcDbLine
 10
6507.402013607083
 20
7552.976935645465
 30
0.0
 11
6736.84715436627
 21
7552.976935645481
 31
0.0
  0
LINE
  5
83
330
17
100
AcDbEntity
  8
SARR_2.2x7
 62
7
370
25
100
AcDbLine
 10
6736.84715436627
 20
7552.976935645481
 30
0.0
 11
6888.292295125459
 21
7552.976935645235
 31
0.0
  0
LINE
  5
84
330
17
100
AcDbEntity
  8
SARR_3.5x7
 62
7
370
25
100
AcDbLine
 10
6740.347154366299
 20
7552.976935645524
 30
0.0
 11
6740.347154366329
 21
7491.176935645478
 31
0.0
  0
LINE
  5
85
330
17
100
AcDbEntity
  8
SARR_3.5x7
 62
7
370
25
100
AcDbLine
 10
6733.347154366211
 20
7552.976935645583
 30
0.0
 11
6733.347154366183
 21
7491.176935645478
 31
0.0
  0
LINE
  5
86
330
17
100
AcDbEntity
  8
SARR_3.5x7
 62
7
370
25
100
AcDbLine
 10
6736.84715436627
 20
7552.976935645481
 30
0.0
 11
6736.84715436627
 21
7491.176935645492
 31
0.0
  0
LINE
  5
87
330
17
100
AcDbEntity
  8
SARR_3.5x7
 62
7
370
25
100
AcDbLine
 10
6733.347154366183
 20
7491.176935645478
 30
0.0
 11
6736.84715436627
 21
7491.176935645478
 31
0.0
  0
LINE
  5
88
330
17
100
AcDbEntity
  8
SARR_3.5x7
 62
7
370
25
100
AcDbLine
 10
6736.84715436627
 20
7491.176935645478
 30
0.0
 11
6740.347154366329
 21
7491.176935645478
 31
0.0
  0
LINE
  5
89
330
17
100
AcDbEntity
  8
Painéis
 62
7
370
25
100
AcDbLine
 10
6492.847154366265
 20
7555.176935645464
 30
0.0
 11
6902.847154366267
 21
7555.176935645488
 31
0.0
  0
LINE
  5
8A
330
17
100
AcDbEntity
  8
Painéis
 62
7
370
25
100
AcDbLine
 10
6492.847154366271
 20
7491.176935645464
 30
0.0
 11
6902.84715436627
 21
7491.176935645488
 31
0.0
  0
LINE
  5
8B
330
17
100
AcDbEntity
  8
Painéis
 62
7
370
25
100
AcDbLine
 10
6736.84715436627
 20
7491.176935645478
 30
0.0
 11
6736.847154366268
 21
7555.176935645478
 31
0.0
  0
LINE
  5
8C
330
17
100
AcDbEntity
  8
Painéis
 62
7
370
25
100
AcDbLine
 10
6902.84715436627
 20
7491.176935645488
 30
0.0
 11
6902.847154366267
 21
7555.176935645488
 31
0.0
  0
LINE
  5
8D
330
17
100
AcDbEntity
  8
Painéis
 62
7
370
25
100
AcDbLine
 10
6492.847154366271
 20
7491.176935645464
 30
0.0
 11
6492.847154366266
 21
7555.176935645464
 31
0.0
  0
LINE
  5
8E
330
17
100
AcDbEntity
  8
SARR_2.2x7
 62
7
370
25
100
AcDbLine
 10
6499.402013607087
 20
7491.176935645461
 30
0.0
 11
6499.402013607085
 21
7555.176935645466
 31
0.0
  0
LINE
  5
8F
330
17
100
AcDbEntity
  8
SARR_3.5x7
 62
7
370
25
100
AcDbLine
 10
6507.402013607084
 20
7555.17693564548
 30
0.0
 11
6507.402013607087
 21
7491.176935645461
 31
0.0
  0
LINE
  5
90
330
17
100
AcDbEntity
  8
SARR_3.5x7
 62
7
370
25
100
AcDbLine
 10
6510.902013607085
 20
7552.976935645482
 30
0.0
 11
6510.902013607086
 21
7491.176935645464
 31
0.0
  0
LINE
  5
91
330
17
100
AcDbEntity
  8
SARR_2.2x7
 62
7
370
25
100
AcDbLine
 10
6896.292295125455
 20
7491.176935645487
 30
0.0
 11
6896.292295125459
 21
7555.176935645466
 31
0.0
  0
LINE
  5
92
330
17
100
AcDbEntity
  8
SARR_3.5x7
 62
7
370
25
100
AcDbLine
 10
6888.292295125459
 20
7555.17693564548
 30
0.0
 11
6888.292295125456
 21
7491.176935645487
 31
0.0
  0
LINE
  5
93
330
17
100
AcDbEntity
  8
SARR_3.5x7
 62
7
370
25
100
AcDbLine
 10
6884.792295125456
 20
7552.976935645482
 30
0.0
 11
6884.792295125454
 21
7491.176935645487
 31
0.0
  0
LINE
  5
94
330
17
100
AcDbEntity
  8
SARR_2.2x7
 62
7
370
25
100
AcDbLine
 10
7061.298666247032
 20
7552.976935645493
 30
0.0
 11
7015.298666247026
 21
7552.976935645499
 31
0.0
  0
LINE
  5
95
330
17
100
AcDbEntity
  8
SARR_2.2x7
 62
7
370
25
100
AcDbLine
 10
7015.298666247026
 20
7552.976935645499
 30
0.0
 11
6940.098666247016
 21
7552.976935645506
 31
0.0
  0
LINE
  5
96
330
17
100
AcDbEntity
  8
SARR_2.2x7
 62
7
370
25
100
AcDbLine
 10
7069.298666247028
 20
7491.176935645491
 30
0.0
 11
7069.298666247033
 21
7555.176935645491
 31
0.0
  0
LINE
  5
97
330
17
100
AcDbEntity
  8
SARR_3.5x7
 62
7
370
25
100
AcDbLine
 10
7061.298666247033
 20
7555.176935645505
 30
0.0
 11
7061.298666247029
 21
7491.176935645491
 31
0.0
  0
LINE
  5
98
330
17
100
AcDbEntity
  8
SARR_3.5x7
 62
7
370
25
100
AcDbLine
 10
7057.79866624703
 20
7552.976935645507
 30
0.0
 11
7057.79866624703
 21
7491.176935645491
 31
0.0
  0
LINE
  5
99
330
17
100
AcDbEntity
  8
SARR_3.5x7
 62
7
370
25
100
AcDbLine
 10
7061.298666247029
 20
7491.176935645491
 30
0.0
 11
7057.79866624703
 21
7491.176935645491
 31
0.0
  0
LINE
  5
9A
330
17
100
AcDbEntity
  8
Painéis
 62
7
370
25
100
AcDbLine
 10
7076.298666247035
 20
7555.176935645491
 30
0.0
 11
6925.098666247034
 21
7555.176935645491
 31
0.0
  0
LINE
  5
9B
330
17
100
AcDbEntity
  8
Painéis
 62
7
370
25
100
AcDbLine
 10
7076.29866624703
 20
7491.176935645491
 30
0.0
 11
6925.09866624703
 21
7491.176935645491
 31
0.0
  0
LINE
  5
9C
330
17
100
AcDbEntity
  8
Painéis
 62
7
370
25
100
AcDbLine
 10
6925.09866624703
 20
7491.176935645505
 30
0.0
 11
6925.098666247034
 21
7555.176935645505
 31
0.0
  0
LINE
  5
9D
330
17
100
AcDbEntity
  8
Painéis
 62
7
370
25
100
AcDbLine
 10
7076.29866624703
 20
7491.176935645491
 30
0.0
 11
7076.298666247033
 21
7555.176935645491
 31
0.0
  0
LINE
  5
9E
330
17
100
AcDbEntity
  8
NOMENCLATURA
 62
7
370
25
100
AcDbLine
 10
7090.681051189614
 20
7524.72399678005
 30
0.0
 11
7047.916281304448
 21
7524.72399678005
 31
0.0
  0
LINE
  5
9F
330
17
100
AcDbEntity
  8
NOMENCLATURA
 62
7
370
25
100
AcDbLine
 10
7052.916281304449
 20
7529.70161866895
 30
0.0
 11
7052.916281304449
 21
7519.746374891147
 31
0.0
  0
LINE
  5
A0
330
17
100
AcDbEntity
  8
SARR_2.2x7
 62
7
370
25
100
AcDbLine
 10
6932.098666247028
 20
7491.176935645476
 30
0.0
 11
6932.098666247014
 21
7555.176935645476
 31
0.0
  0
LINE
  5
A1
330
17
100
AcDbEntity
  8
SARR_3.5x7
 62
7
370
25
100
AcDbLine
 10
6940.098666247014
 20
7555.176935645492
 30
0.0
 11
6940.098666247028
 21
7491.176935645478
 31
0.0
  0
LINE
  5
A2
330
17
100
AcDbEntity
  8
SARR_3.5x7
 62
7
370
25
100
AcDbLine
 10
6943.598666247017
 20
7552.976935645495
 30
0.0
 11
6943.598666247027
 21
7491.176935645478
 31
0.0
  0
LINE
  5
A3
330
17
100
AcDbEntity
  8
SARR_3.5x7
 62
7
370
25
100
AcDbLine
 10
6940.098666247028
 20
7491.176935645478
 30
0.0
 11
6943.598666247027
 21
7491.176935645478
 31
0.0
  0
LINE
  5
A4
330
17
100
AcDbEntity
  8
NOMENCLATURA
 62
7
370
25
100
AcDbLine
 10
7085.681051189614
 20
7529.70161866895
 30
0.0
 11
7085.681051189614
 21
7519.746374891147
 31
0.0
  0
LINE
  5
A5
330
17
100
AcDbEntity
  8
Painéis
 62
7
370
25
100
AcDbLine
 10
7221.374043372287
 20
8054.560591195841
 30
0.0
 11
7222.807660751048
 21
8058.160591195832
 31
0.0
  0
LINE
  5
A6
330
17
100
AcDbEntity
  8
Painéis
 62
7
370
25
100
AcDbLine
 10
7222.807660751048
 20
8058.160591195832
 30
0.0
 11
7152.952642634966
 21
8058.160591195832
 31
0.0
  0
LINE
  5
A7
330
17
100
AcDbEntity
  8
Painéis
 62
7
370
25
100
AcDbLine
 10
7221.374043372287
 20
8054.560591195841
 30
0.0
 11
7152.968804411578
 21
8054.560591195828
 31
0.0
  0
LINE
  5
A8
330
17
100
AcDbEntity
  8
SARR_3.5x7
 62
7
370
25
100
AcDbLine
 10
7018.798666247056
 20
7552.976935645538
 30
0.0
 11
7018.798666247088
 21
7491.176935645491
 31
0.0
  0
LINE
  5
A9
330
17
100
AcDbEntity
  8
SARR_3.5x7
 62
7
370
25
100
AcDbLine
 10
7011.798666246969
 20
7552.976935645595
 30
0.0
 11
7011.798666246942
 21
7491.176935645491
 31
0.0
  0
LINE
  5
AA
330
17
100
AcDbEntity
  8
SARR_3.5x7
 62
7
370
25
100
AcDbLine
 10
7015.298666247028
 20
7552.976935645493
 30
0.0
 11
7015.29866624703
 21
7491.176935645505
 31
0.0
  0
LINE
  5
AB
330
17
100
AcDbEntity
  8
Painéis
 62
7
370
25
100
AcDbLine
 10
7015.29866624703
 20
7491.176935645491
 30
0.0
 11
7015.298666247026
 21
7555.176935645491
 31
0.0
  0
LINE
  5
AC
330
17
100
AcDbEntity
  8
SARR_3.5x7
 62
7
370
25
100
AcDbLine
 10
7040.453141700561
 20
7552.976935645495
 30
0.0
 11
7040.453141700557
 21
7491.176935645492
 31
0.0
  0
LINE
  5
AD
330
17
100
AcDbEntity
  8
SARR_3.5x7
 62
7
370
25
100
AcDbLine
 10
7036.953141700559
 20
7552.97693564551
 30
0.0
 11
7036.953141700557
 21
7491.176935645492
 31
0.0
  0
LINE
  5
AE
330
17
100
AcDbEntity
  8
Defpoints
 62
7
370
25
100
AcDbLine
 10
6577.230338745017
 20
7998.644924744039
 30
0.0
 11
6577.230338745017
 21
8123.644924744039
 31
0.0
  0
LINE
  5
AF
330
17
100
AcDbEntity
  8
presilha
 62
7
370
25
100
AcDbLine
 10
6413.140050088709
 20
7870.011591410739
 30
0.0
 11
6413.140050088709
 21
7865.411751410753
 31
0.0
  0
LINE
  5
B0
330
17
100
AcDbEntity
  8
presilha
 62
7
370
25
100
AcDbLine
 10
6413.140050088709
 20
7865.411751410753
 30
0.0
 11
6393.139685584358
 21
7865.411751410746
 31
0.0
  0
LINE
  5
B1
330
17
100
AcDbEntity
  8
presilha
 62
7
370
25
100
AcDbLine
 10
6392.139685584358
 20
7873.011591410739
 30
0.0
 11
6393.139685584358
 21
7873.011591410739
 31
0.0
  0
LINE
  5
B2
330
17
100
AcDbEntity
  8
presilha
 62
7
370
25
100
AcDbLine
 10
6393.139685584358
 20
7873.011591410739
 30
0.0
 11
6393.139685584358
 21
7861.011591410739
 31
0.0
  0
LINE
  5
B3
330
17
100
AcDbEntity
  8
presilha
 62
7
370
25
100
AcDbLine
 10
6393.139685584358
 20
7861.011591410739
 30
0.0
 11
6392.139685584358
 21
7861.011591410739
 31
0.0
  0
LINE
  5
B4
330
17
100
AcDbEntity
  8
presilha
 62
7
370
25
100
AcDbLine
 10
6392.139685584358
 20
7861.011591410739
 30
0.0
 11
6392.139685584358
 21
7873.011591410739
 31
0.0
  0
LINE
  5
B5
330
17
100
AcDbEntity
  8
presilha
 62
7
370
25
100
AcDbLine
 10
6396.139685584356
 20
7876.678258077405
 30
0.0
 11
6396.139685584356
 21
7875.678258077405
 31
0.0
  0
LINE
  5
B6
330
17
100
AcDbEntity
  8
presilha
 62
7
370
25
100
AcDbLine
 10
6413.140050088709
 20
7870.011591410739
 30
0.0
 11
6394.5200500887095
 21
7870.011591410739
 31
0.0
  0
LINE
  5
B7
330
17
100
AcDbEntity
  8
presilha
 62
7
370
25
100
AcDbLine
 10
6393.140050088709
 20
7869.771591410738
 30
0.0
 11
6393.139685584356
 21
7875.918258077409
 31
0.0
  0
LINE
  5
B8
330
17
100
AcDbEntity
  8
presilha
 62
7
370
25
100
AcDbLine
 10
6394.140050088708
 20
7870.391591410738
 30
0.0
 11
6394.139685584356
 21
7875.298258077406
 31
0.0
  0
LINE
  5
B9
330
17
100
AcDbEntity
  8
presilha
 62
7
370
25
100
AcDbLine
 10
6396.139685584356
 20
7876.678258077405
 30
0.0
 11
6393.899685584336
 21
7876.678258077405
 31
0.0
  0
LINE
  5
BA
330
17
100
AcDbEntity
  8
presilha
 62
7
370
25
100
AcDbLine
 10
6396.139685584356
 20
7875.678258077405
 30
0.0
 11
6394.519685584356
 21
7875.678258077405
 31
0.0
  0
LINE
  5
BB
330
17
100
AcDbEntity
  8
presilha
 62
7
370
25
100
AcDbLine
 10
6388.139685584357
 20
7871.344924744075
 30
0.0
 11
6392.139685584357
 21
7871.344924744075
 31
0.0
  0
LINE
  5
BC
330
17
100
AcDbEntity
  8
presilha
 62
7
370
25
100
AcDbLine
 10
6392.139685584357
 20
7871.344924744075
 30
0.0
 11
6392.139685584357
 21
7862.678258077408
 31
0.0
  0
LINE
  5
BD
330
17
100
AcDbEntity
  8
presilha
 62
7
370
25
100
AcDbLine
 10
6392.139685584357
 20
7862.678258077408
 30
0.0
 11
6388.139685584357
 21
7862.678258077408
 31
0.0
  0
LINE
  5
BE
330
17
100
AcDbEntity
  8
presilha
 62
7
370
25
100
AcDbLine
 10
6388.139685584357
 20
7871.344924744075
 30
0.0
 11
6388.139685584357
 21
7862.678258077408
 31
0.0
  0
LINE
  5
BF
330
17
100
AcDbEntity
  8
presilha
 62
7
370
25
100
AcDbLine
 10
6494.874448357794
 20
7870.011591410739
 30
0.0
 11
6494.874448357794
 21
7865.411751410753
 31
0.0
  0
LINE
  5
C0
330
17
100
AcDbEntity
  8
presilha
 62
7
370
25
100
AcDbLine
 10
6494.874448357794
 20
7865.411751410753
 30
0.0
 11
6514.8748128621455
 21
7865.411751410746
 31
0.0
  0
LINE
  5
C1
330
17
100
AcDbEntity
  8
presilha
 62
7
370
25
100
AcDbLine
 10
6515.8748128621455
 20
7873.011591410739
 30
0.0
 11
6514.8748128621455
 21
7873.011591410739
 31
0.0
  0
LINE
  5
C2
330
17
100
AcDbEntity
  8
presilha
 62
7
370
25
100
AcDbLine
 10
6514.8748128621455
 20
7873.011591410739
 30
0.0
 11
6514.8748128621455
 21
7861.011591410739
 31
0.0
  0
LINE
  5
C3
330
17
100
AcDbEntity
  8
presilha
 62
7
370
25
100
AcDbLine
 10
6514.8748128621455
 20
7861.011591410739
 30
0.0
 11
6515.8748128621455
 21
7861.011591410739
 31
0.0
  0
LINE
  5
C4
330
17
100
AcDbEntity
  8
presilha
 62
7
370
25
100
AcDbLine
 10
6515.8748128621455
 20
7861.011591410739
 30
0.0
 11
6515.8748128621455
 21
7873.011591410739
 31
0.0
  0
LINE
  5
C5
330
17
100
AcDbEntity
  8
presilha
 62
7
370
25
100
AcDbLine
 10
6511.874812862147
 20
7876.678258077405
 30
0.0
 11
6511.874812862147
 21
7875.678258077405
 31
0.0
  0
LINE
  5
C6
330
17
100
AcDbEntity
  8
presilha
 62
7
370
25
100
AcDbLine
 10
6494.874448357794
 20
7870.011591410739
 30
0.0
 11
6513.494448357794
 21
7870.011591410739
 31
0.0
  0
LINE
  5
C7
330
17
100
AcDbEntity
  8
presilha
 62
7
370
25
100
AcDbLine
 10
6514.874448357794
 20
7869.771591410738
 30
0.0
 11
6514.874812862147
 21
7875.918258077409
 31
0.0
  0
LINE
  5
C8
330
17
100
AcDbEntity
  8
presilha
 62
7
370
25
100
AcDbLine
 10
6513.874448357795
 20
7870.391591410738
 30
0.0
 11
6513.874812862147
 21
7875.298258077406
 31
0.0
  0
LINE
  5
C9
330
17
100
AcDbEntity
  8
presilha
 62
7
370
25
100
AcDbLine
 10
6511.874812862147
 20
7876.678258077405
 30
0.0
 11
6514.114812862167
 21
7876.678258077405
 31
0.0
  0
LINE
  5
CA
330
17
100
AcDbEntity
  8
presilha
 62
7
370
25
100
AcDbLine
 10
6511.874812862147
 20
7875.678258077405
 30
0.0
 11
6513.494812862147
 21
7875.678258077405
 31
0.0
  0
LINE
  5
CB
330
17
100
AcDbEntity
  8
presilha
 62
7
370
25
100
AcDbLine
 10
6519.874812862146
 20
7871.344924744075
 30
0.0
 11
6515.874812862146
 21
7871.344924744075
 31
0.0
  0
LINE
  5
CC
330
17
100
AcDbEntity
  8
presilha
 62
7
370
25
100
AcDbLine
 10
6515.874812862146
 20
7871.344924744075
 30
0.0
 11
6515.874812862146
 21
7862.678258077408
 31
0.0
  0
LINE
  5
CD
330
17
100
AcDbEntity
  8
presilha
 62
7
370
25
100
AcDbLine
 10
6515.874812862146
 20
7862.678258077408
 30
0.0
 11
6519.874812862146
 21
7862.678258077408
 31
0.0
  0
LINE
  5
CE
330
17
100
AcDbEntity
  8
presilha
 62
7
370
25
100
AcDbLine
 10
6519.874812862146
 20
7871.344924744075
 30
0.0
 11
6519.874812862146
 21
7862.678258077408
 31
0.0
  0
LINE
  5
CF
330
17
100
AcDbEntity
  8
0
 62
7
370
25
100
AcDbLine
 10
6387.007249223223
 20
7926.61498227233
 30
0.0
 11
6387.007249223223
 21
7914.61498227233
 31
0.0
  0
LINE
  5
D0
330
17
100
AcDbEntity
  8
0
 62
7
370
25
100
AcDbLine
 10
6523.007249223252
 20
7923.614982272344
 30
0.0
 11
6523.007249223252
 21
7917.614982272344
 31
0.0
  0
LINE
  5
D1
330
17
100
AcDbEntity
  8
0
 62
7
370
25
100
AcDbLine
 10
6521.007249223252
 20
7926.614982272345
 30
0.0
 11
6521.007249223252
 21
7914.614982272344
 31
0.0
  0
LINE
  5
D2
330
17
100
AcDbEntity
  8
0
 62
7
370
25
100
AcDbLine
 10
6521.007249223252
 20
7917.614982272344
 30
0.0
 11
6523.007249223252
 21
7917.614982272344
 31
0.0
  0
LINE
  5
D3
330
17
100
AcDbEntity
  8
0
 62
7
370
25
100
AcDbLine
 10
6387.007249223223
 20
7914.61498227233
 30
0.0
 11
6417.007249223224
 21
7914.61498227233
 31
0.0
  0
LINE
  5
D4
330
17
100
AcDbEntity
  8
0
 62
7
370
25
100
AcDbLine
 10
6491.007249223251
 20
7919.614982272344
 30
0.0
 11
6521.007249223252
 21
7919.614982272344
 31
0.0
  0
LINE
  5
D5
330
17
100
AcDbEntity
  8
0
 62
7
370
25
100
AcDbLine
 10
6491.007249223251
 20
7921.614982272345
 30
0.0
 11
6521.007249223252
 21
7921.614982272345
 31
0.0
  0
LINE
  5
D6
330
17
100
AcDbEntity
  8
TENSOR
 62
7
370
25
100
AcDbLine
 10
6526.007249223252
 20
7920.61498227233
 30
0.0
 11
6381.703955045125
 21
7920.61498227233
 31
0.0
  0
LINE
  5
D7
330
17
100
AcDbEntity
  8
0
 62
7
370
25
100
AcDbLine
 10
6521.007249223252
 20
7923.614982272344
 30
0.0
 11
6523.007249223252
 21
7923.614982272344
 31
0.0
  0
LINE
  5
D8
330
17
100
AcDbEntity
  8
0
 62
7
370
25
100
AcDbLine
 10
6417.007249223224
 20
7919.61498227233
 30
0.0
 11
6387.007249223223
 21
7919.61498227233
 31
0.0
  0
LINE
  5
D9
330
17
100
AcDbEntity
  8
0
 62
7
370
25
100
AcDbLine
 10
6417.007249223224
 20
7921.61498227233
 30
0.0
 11
6387.007249223223
 21
7921.61498227233
 31
0.0
  0
LINE
  5
DA
330
17
100
AcDbEntity
  8
0
 62
7
370
25
100
AcDbLine
 10
6387.007249223223
 20
7926.61498227233
 30
0.0
 11
6417.007249223224
 21
7926.61498227233
 31
0.0
  0
LINE
  5
DB
330
17
100
AcDbEntity
  8
0
 62
7
370
25
100
AcDbLine
 10
6521.007249223252
 20
7914.614982272344
 30
0.0
 11
6491.007249223251
 21
7914.614982272344
 31
0.0
  0
LINE
  5
DC
330
17
100
AcDbEntity
  8
0
 62
7
370
25
100
AcDbLine
 10
6521.007249223252
 20
7926.614982272345
 30
0.0
 11
6491.007249223251
 21
7926.614982272345
 31
0.0
  0
LINE
  5
DD
330
17
100
AcDbEntity
  8
0
 62
7
370
25
100
AcDbLine
 10
6385.007249223223
 20
7923.61498227233
 30
0.0
 11
6385.007249223223
 21
7917.61498227233
 31
0.0
  0
LINE
  5
DE
330
17
100
AcDbEntity
  8
0
 62
7
370
25
100
AcDbLine
 10
6387.007249223223
 20
7917.61498227233
 30
0.0
 11
6385.007249223223
 21
7917.61498227233
 31
0.0
  0
LINE
  5
DF
330
17
100
AcDbEntity
  8
0
 62
7
370
25
100
AcDbLine
 10
6385.007249223223
 20
7923.61498227233
 30
0.0
 11
6387.007249223223
 21
7923.61498227233
 31
0.0
  0
LINE
  5
E0
330
17
100
AcDbEntity
  8
presilha
 62
7
370
25
100
AcDbLine
 10
6741.765186975672
 20
7870.011591410739
 30
0.0
 11
6741.765186975672
 21
7865.411751410753
 31
0.0
  0
LINE
  5
E1
330
17
100
AcDbEntity
  8
presilha
 62
7
370
25
100
AcDbLine
 10
6741.765186975672
 20
7865.411751410753
 30
0.0
 11
6761.7655514800235
 21
7865.411751410746
 31
0.0
  0
LINE
  5
E2
330
17
100
AcDbEntity
  8
presilha
 62
7
370
25
100
AcDbLine
 10
6762.7655514800235
 20
7873.011591410739
 30
0.0
 11
6761.7655514800235
 21
7873.011591410739
 31
0.0
  0
LINE
  5
E3
330
17
100
AcDbEntity
  8
presilha
 62
7
370
25
100
AcDbLine
 10
6761.7655514800235
 20
7873.011591410739
 30
0.0
 11
6761.7655514800235
 21
7861.011591410739
 31
0.0
  0
LINE
  5
E4
330
17
100
AcDbEntity
  8
presilha
 62
7
370
25
100
AcDbLine
 10
6761.7655514800235
 20
7861.011591410739
 30
0.0
 11
6762.7655514800235
 21
7861.011591410739
 31
0.0
  0
LINE
  5
E5
330
17
100
AcDbEntity
  8
presilha
 62
7
370
25
100
AcDbLine
 10
6762.7655514800235
 20
7861.011591410739
 30
0.0
 11
6762.7655514800235
 21
7873.011591410739
 31
0.0
  0
LINE
  5
E6
330
17
100
AcDbEntity
  8
presilha
 62
7
370
25
100
AcDbLine
 10
6758.765551480025
 20
7876.678258077405
 30
0.0
 11
6758.765551480025
 21
7875.678258077405
 31
0.0
  0
LINE
  5
E7
330
17
100
AcDbEntity
  8
presilha
 62
7
370
25
100
AcDbLine
 10
6741.765186975672
 20
7870.011591410739
 30
0.0
 11
6760.385186975672
 21
7870.011591410739
 31
0.0
  0
LINE
  5
E8
330
17
100
AcDbEntity
  8
presilha
 62
7
370
25
100
AcDbLine
 10
6761.765186975672
 20
7869.771591410738
 30
0.0
 11
6761.765551480025
 21
7875.918258077409
 31
0.0
  0
LINE
  5
E9
330
17
100
AcDbEntity
  8
presilha
 62
7
370
25
100
AcDbLine
 10
6760.765186975673
 20
7870.391591410738
 30
0.0
 11
6760.765551480025
 21
7875.298258077406
 31
0.0
  0
LINE
  5
EA
330
17
100
AcDbEntity
  8
presilha
 62
7
370
25
100
AcDbLine
 10
6758.765551480025
 20
7876.678258077405
 30
0.0
 11
6761.005551480045
 21
7876.678258077405
 31
0.0
  0
LINE
  5
EB
330
17
100
AcDbEntity
  8
presilha
 62
7
370
25
100
AcDbLine
 10
6758.765551480025
 20
7875.678258077405
 30
0.0
 11
6760.385551480025
 21
7875.678258077405
 31
0.0
  0
LINE
  5
EC
330
17
100
AcDbEntity
  8
presilha
 62
7
370
25
100
AcDbLine
 10
6766.765551480024
 20
7871.344924744075
 30
0.0
 11
6762.765551480024
 21
7871.344924744075
 31
0.0
  0
LINE
  5
ED
330
17
100
AcDbEntity
  8
presilha
 62
7
370
25
100
AcDbLine
 10
6762.765551480024
 20
7871.344924744075
 30
0.0
 11
6762.765551480024
 21
7862.678258077408
 31
0.0
  0
LINE
  5
EE
330
17
100
AcDbEntity
  8
presilha
 62
7
370
25
100
AcDbLine
 10
6762.765551480024
 20
7862.678258077408
 30
0.0
 11
6766.765551480024
 21
7862.678258077408
 31
0.0
  0
LINE
  5
EF
330
17
100
AcDbEntity
  8
presilha
 62
7
370
25
100
AcDbLine
 10
6766.765551480024
 20
7871.344924744075
 30
0.0
 11
6766.765551480024
 21
7862.678258077408
 31
0.0
  0
LINE
  5
F0
330
17
100
AcDbEntity
  8
presilha
 62
7
370
25
100
AcDbLine
 10
6660.030788706588
 20
7870.011591410739
 30
0.0
 11
6660.030788706588
 21
7865.411751410753
 31
0.0
  0
LINE
  5
F1
330
17
100
AcDbEntity
  8
presilha
 62
7
370
25
100
AcDbLine
 10
6660.030788706588
 20
7865.411751410753
 30
0.0
 11
6640.030424202237
 21
7865.411751410746
 31
0.0
  0
LINE
  5
F2
330
17
100
AcDbEntity
  8
presilha
 62
7
370
25
100
AcDbLine
 10
6639.030424202237
 20
7873.011591410739
 30
0.0
 11
6640.030424202237
 21
7873.011591410739
 31
0.0
  0
LINE
  5
F3
330
17
100
AcDbEntity
  8
presilha
 62
7
370
25
100
AcDbLine
 10
6640.030424202237
 20
7873.011591410739
 30
0.0
 11
6640.030424202237
 21
7861.011591410739
 31
0.0
  0
LINE
  5
F4
330
17
100
AcDbEntity
  8
presilha
 62
7
370
25
100
AcDbLine
 10
6640.030424202237
 20
7861.011591410739
 30
0.0
 11
6639.030424202237
 21
7861.011591410739
 31
0.0
  0
LINE
  5
F5
330
17
100
AcDbEntity
  8
presilha
 62
7
370
25
100
AcDbLine
 10
6639.030424202237
 20
7861.011591410739
 30
0.0
 11
6639.030424202237
 21
7873.011591410739
 31
0.0
  0
LINE
  5
F6
330
17
100
AcDbEntity
  8
presilha
 62
7
370
25
100
AcDbLine
 10
6643.030424202235
 20
7876.678258077405
 30
0.0
 11
6643.030424202235
 21
7875.678258077405
 31
0.0
  0
LINE
  5
F7
330
17
100
AcDbEntity
  8
presilha
 62
7
370
25
100
AcDbLine
 10
6660.030788706588
 20
7870.011591410739
 30
0.0
 11
6641.410788706588
 21
7870.011591410739
 31
0.0
  0
LINE
  5
F8
330
17
100
AcDbEntity
  8
presilha
 62
7
370
25
100
AcDbLine
 10
6640.030788706588
 20
7869.771591410738
 30
0.0
 11
6640.030424202235
 21
7875.918258077409
 31
0.0
  0
LINE
  5
F9
330
17
100
AcDbEntity
  8
presilha
 62
7
370
25
100
AcDbLine
 10
6641.030788706587
 20
7870.391591410738
 30
0.0
 11
6641.030424202235
 21
7875.298258077406
 31
0.0
  0
LINE
  5
FA
330
17
100
AcDbEntity
  8
presilha
 62
7
370
25
100
AcDbLine
 10
6643.030424202235
 20
7876.678258077405
 30
0.0
 11
6640.790424202215
 21
7876.678258077405
 31
0.0
  0
LINE
  5
FB
330
17
100
AcDbEntity
  8
presilha
 62
7
370
25
100
AcDbLine
 10
6643.030424202235
 20
7875.678258077405
 30
0.0
 11
6641.410424202235
 21
7875.678258077405
 31
0.0
  0
LINE
  5
FC
330
17
100
AcDbEntity
  8
presilha
 62
7
370
25
100
AcDbLine
 10
6635.030424202236
 20
7871.344924744075
 30
0.0
 11
6639.030424202236
 21
7871.344924744075
 31
0.0
  0
LINE
  5
FD
330
17
100
AcDbEntity
  8
presilha
 62
7
370
25
100
AcDbLine
 10
6639.030424202236
 20
7871.344924744075
 30
0.0
 11
6639.030424202236
 21
7862.678258077408
 31
0.0
  0
LINE
  5
FE
330
17
100
AcDbEntity
  8
presilha
 62
7
370
25
100
AcDbLine
 10
6639.030424202236
 20
7862.678258077408
 30
0.0
 11
6635.030424202236
 21
7862.678258077408
 31
0.0
  0
LINE
  5
FF
330
17
100
AcDbEntity
  8
presilha
 62
7
370
25
100
AcDbLine
 10
6635.030424202236
 20
7871.344924744075
 30
0.0
 11
6635.030424202236
 21
7862.678258077408
 31
0.0
  0
LINE
  5
100
330
17
100
AcDbEntity
  8
0
 62
7
370
25
100
AcDbLine
 10
6767.897987841159
 20
7926.61498227233
 30
0.0
 11
6767.897987841159
 21
7914.61498227233
 31
0.0
  0
LINE
  5
101
330
17
100
AcDbEntity
  8
0
 62
7
370
25
100
AcDbLine
 10
6631.89798784113
 20
7923.614982272344
 30
0.0
 11
6631.89798784113
 21
7917.614982272344
 31
0.0
  0
LINE
  5
102
330
17
100
AcDbEntity
  8
0
 62
7
370
25
100
AcDbLine
 10
6633.89798784113
 20
7926.614982272345
 30
0.0
 11
6633.89798784113
 21
7914.614982272344
 31
0.0
  0
LINE
  5
103
330
17
100
AcDbEntity
  8
0
 62
7
370
25
100
AcDbLine
 10
6633.89798784113
 20
7917.614982272344
 30
0.0
 11
6631.89798784113
 21
7917.614982272344
 31
0.0
  0
LINE
  5
104
330
17
100
AcDbEntity
  8
0
 62
7
370
25
100
AcDbLine
 10
6767.897987841159
 20
7914.61498227233
 30
0.0
 11
6737.89798784116
 21
7914.61498227233
 31
0.0
  0
LINE
  5
105
330
17
100
AcDbEntity
  8
0
 62
7
370
25
100
AcDbLine
 10
6663.897987841131
 20
7919.614982272344
 30
0.0
 11
6633.89798784113
 21
7919.614982272344
 31
0.0
  0
LINE
  5
106
330
17
100
AcDbEntity
  8
0
 62
7
370
25
100
AcDbLine
 10
6663.897987841131
 20
7921.614982272345
 30
0.0
 11
6633.89798784113
 21
7921.614982272345
 31
0.0
  0
LINE
  5
107
330
17
100
AcDbEntity
  8
TENSOR
 62
7
370
25
100
AcDbLine
 10
6628.89798784113
 20
7920.61498227233
 30
0.0
 11
6773.201282019257
 21
7920.61498227233
 31
0.0
  0
LINE
  5
108
330
17
100
AcDbEntity
  8
0
 62
7
370
25
100
AcDbLine
 10
6633.89798784113
 20
7923.614982272344
 30
0.0
 11
6631.89798784113
 21
7923.614982272344
 31
0.0
  0
LINE
  5
109
330
17
100
AcDbEntity
  8
0
 62
7
370
25
100
AcDbLine
 10
6737.89798784116
 20
7919.61498227233
 30
0.0
 11
6767.897987841159
 21
7919.61498227233
 31
0.0
  0
LINE
  5
10A
330
17
100
AcDbEntity
  8
0
 62
7
370
25
100
AcDbLine
 10
6737.89798784116
 20
7921.61498227233
 30
0.0
 11
6767.897987841159
 21
7921.61498227233
 31
0.0
  0
LINE
  5
10B
330
17
100
AcDbEntity
  8
0
 62
7
370
25
100
AcDbLine
 10
6767.897987841159
 20
7926.61498227233
 30
0.0
 11
6737.89798784116
 21
7926.61498227233
 31
0.0
  0
LINE
  5
10C
330
17
100
AcDbEntity
  8
0
 62
7
370
25
100
AcDbLine
 10
6633.89798784113
 20
7914.614982272344
 30
0.0
 11
6663.897987841131
 21
7914.614982272344
 31
0.0
  0
LINE
  5
10D
330
17
100
AcDbEntity
  8
0
 62
7
370
25
100
AcDbLine
 10
6633.89798784113
 20
7926.614982272345
 30
0.0
 11
6663.897987841131
 21
7926.614982272345
 31
0.0
  0
LINE
  5
10E
330
17
100
AcDbEntity
  8
0
 62
7
370
25
100
AcDbLine
 10
6769.897987841159
 20
7923.61498227233
 30
0.0
 11
6769.897987841159
 21
7917.61498227233
 31
0.0
  0
LINE
  5
10F
330
17
100
AcDbEntity
  8
0
 62
7
370
25
100
AcDbLine
 10
6767.897987841159
 20
7917.61498227233
 30
0.0
 11
6769.897987841159
 21
7917.61498227233
 31
0.0
  0
LINE
  5
110
330
17
100
AcDbEntity
  8
0
 62
7
370
25
100
AcDbLine
 10
6769.897987841159
 20
7923.61498227233
 30
0.0
 11
6767.897987841159
 21
7923.61498227233
 31
0.0
  0
LWPOLYLINE
  5
111
330
17
100
AcDbEntity
  8
Madeira
 62
7
370
25
100
AcDbPolyline
 90
4
 70
1
 10
7193.877250330146
 20
7903.289013113236
 10
7178.471504751319
 20
7903.289013113236
 10
7183.083703769819
 20
7898.889013113228
 10
7193.877250330148
 20
7898.88901311323
  0
LWPOLYLINE
  5
112
330
17
100
AcDbEntity
  8
Cotas
 62
7
370
25
100
AcDbPolyline
 90
4
 70
1
 10
7116.377558017418
 20
7964.63101599302
 10
7298.342359953203
 20
7964.63101599302
 10
7298.342359953203
 20
7863.194947884385
 10
7116.377558017418
 20
7863.194947884385
  0
LWPOLYLINE
  5
113
330
17
100
AcDbEntity
  8
Madeira
 62
7
370
25
100
AcDbPolyline
 90
4
 70
1
 10
7213.060674172147
 20
7889.289013113226
 10
7213.060674172147
 20
7903.289013113229
 10
7220.060674172145
 20
7903.289013113229
 10
7220.060674172145
 20
7889.289013113226
  0
LWPOLYLINE
  5
114
330
17
100
AcDbEntity
  8
Madeira
 62
7
370
25
100
AcDbPolyline
 90
3
 70
0
 10
7213.060674172147
 20
7903.289013113229
 10
7213.060674172147
 20
7889.289013113226
 10
7244.536743712034
 20
7889.289013113226
  0
LWPOLYLINE
  5
115
330
17
100
AcDbEntity
  8
Madeira
 62
7
370
25
100
AcDbPolyline
 90
4
 70
1
 10
7208.828297793465
 20
8054.560591195841
 10
7221.374043372287
 20
8054.560591195841
 10
7219.621844353794
 20
8050.160591195831
 10
7208.828297793465
 20
8050.160591195835
  0
LWPOLYLINE
  5
116
330
17
100
AcDbEntity
  8
Cotas
 62
7
370
25
100
AcDbPolyline
 90
4
 70
1
 10
7116.377558017418
 20
8096.919972058836
 10
7298.342359953203
 20
8096.919972058836
 10
7298.342359953203
 20
8021.723748101674
 10
7116.377558017418
 20
8021.723748101674
  0
LWPOLYLINE
  5
117
330
17
100
AcDbEntity
  8
Madeira
 62
7
370
25
100
AcDbPolyline
 90
4
 70
1
 10
7184.444873951466
 20
8040.560591195829
 10
7184.444873951466
 20
8054.560591195834
 10
7177.444873951467
 20
8054.560591195834
 10
7177.444873951467
 20
8040.560591195829
  0
LWPOLYLINE
  5
118
330
17
100
AcDbEntity
  8
Madeira
 62
7
370
25
100
AcDbPolyline
 90
3
 70
0
 10
7184.444873951466
 20
8054.560591195834
 10
7184.444873951466
 20
8040.560591195829
 10
7152.968804411578
 20
8040.560591195829
  0
LWPOLYLINE
  5
119
330
17
100
AcDbEntity
  8
Painéis
 62
7
370
25
100
AcDbPolyline
 90
4
 70
1
 10
6431.007249223252
 20
7998.644924744039
 10
6435.007249223253
 20
7998.644924744039
 10
6435.007249223253
 20
7870.644924744039
 10
6431.007249223252
 20
7870.644924744039
  0
LWPOLYLINE
  5
11A
330
17
100
AcDbEntity
  8
Madeira
 62
7
370
25
100
AcDbPolyline
 90
4
 70
1
 10
6431.007249223252
 20
7994.244924744037
 10
6431.007249223252
 20
7998.644924744039
 10
6417.007249223252
 20
7998.644924744039
 10
6417.007249223252
 20
7994.244924744037
  0
LWPOLYLINE
  5
11B
330
17
100
AcDbEntity
  8
Madeira
 62
7
370
25
100
AcDbPolyline
 90
4
 70
1
 10
6397.007249223253
 20
7870.644924744039
 10
6397.007249223253
 20
7875.044924744033
 10
6417.007249223252
 20
7875.044924744033
 10
6417.007249223252
 20
7870.644924744039
  0
LWPOLYLINE
  5
11C
330
17
100
AcDbEntity
  8
Madeira
 62
7
370
25
100
AcDbPolyline
 90
4
 70
1
 10
6431.007249223252
 20
7998.644924744039
 10
6417.007249223252
 20
7998.644924744039
 10
6417.007249223252
 20
7870.644924744039
 10
6431.007249223252
 20
7870.644924744039
  0
LWPOLYLINE
  5
11D
330
17
100
AcDbEntity
  8
Madeira
 62
7
370
25
100
AcDbPolyline
 90
4
 70
1
 10
6473.007249223252
 20
7870.644924744039
 10
6473.007249223252
 20
7875.044924744033
 10
6459.007249223252
 20
7875.044924744033
 10
6459.007249223252
 20
7870.644924744039
  0
LWPOLYLINE
  5
11E
330
17
100
AcDbEntity
  8
Painéis
 62
7
370
25
100
AcDbPolyline
 90
4
 70
1
 10
6473.007249223252
 20
7875.044924744033
 10
6473.007249223252
 20
7878.644924744039
 10
6435.007249223253
 20
7878.644924744039
 10
6435.007249223253
 20
7875.044924744033
  0
LWPOLYLINE
  5
11F
330
17
100
AcDbEntity
  8
Madeira
 62
7
370
25
100
AcDbPolyline
 90
4
 70
1
 10
6435.007249223253
 20
7870.644924744039
 10
6435.007249223253
 20
7875.044924744033
 10
6449.007249223253
 20
7875.044924744033
 10
6449.007249223253
 20
7870.644924744039
  0
LWPOLYLINE
  5
120
330
17
100
AcDbEntity
  8
Painéis
 62
7
370
25
100
AcDbPolyline
 90
4
 70
1
 10
6477.007249223262
 20
7998.644924744039
 10
6473.007249223264
 20
7998.644924744039
 10
6473.007249223252
 20
7870.644924744039
 10
6477.007249223252
 20
7870.644924744039
  0
LWPOLYLINE
  5
121
330
17
100
AcDbEntity
  8
Madeira
 62
7
370
25
100
AcDbPolyline
 90
4
 70
1
 10
6477.007249223262
 20
7994.244924744037
 10
6477.007249223262
 20
7998.644924744039
 10
6491.007249223263
 20
7998.644924744039
 10
6491.007249223263
 20
7994.244924744037
  0
LWPOLYLINE
  5
122
330
17
100
AcDbEntity
  8
Madeira
 62
7
370
25
100
AcDbPolyline
 90
4
 70
1
 10
6511.007249223252
 20
7870.644924744039
 10
6511.007249223252
 20
7875.044924744033
 10
6491.007249223251
 20
7875.044924744033
 10
6491.007249223251
 20
7870.644924744039
  0
LWPOLYLINE
  5
123
330
17
100
AcDbEntity
  8
Madeira
 62
7
370
25
100
AcDbPolyline
 90
4
 70
1
 10
6477.007249223262
 20
7998.644924744039
 10
6491.007249223263
 20
7998.644924744039
 10
6491.007249223251
 20
7870.644924744039
 10
6477.007249223252
 20
7870.644924744039
  0
LWPOLYLINE
  5
124
330
17
100
AcDbEntity
  8
CONCRETO
 62
7
370
25
100
AcDbPolyline
 90
8
 70
1
 10
6435.007249223253
 20
7998.644924744039
 10
6435.007249223253
 20
7998.644924744039
 10
6473.007249223261
 20
7998.644924744039
 10
6473.007249223261
 20
7970.644924744025
 10
6473.007249223252
 20
7970.644924744025
 10
6473.007249223194
 20
7878.644924744039
 10
6435.007249223253
 20
7878.644924744039
 10
6435.007249223253
 20
7998.644924744046
  0
LWPOLYLINE
  5
125
330
17
100
AcDbEntity
  8
barrote
 62
7
370
25
100
AcDbPolyline
 90
4
 70
1
 10
6363.552051551359
 20
7850.644924744083
 10
6558.734992061052
 20
7850.644924744083
 10
6558.734992061052
 20
7870.644924744039
 10
6363.552051551359
 20
7870.644924744039
  0
LWPOLYLINE
  5
126
330
17
100
AcDbEntity
  8
SCO-___-LAJ
 62
7
370
25
100
AcDbPolyline
 90
4
 70
1
 10
6372.554318966819
 20
7869.311511410713
 10
6539.86017947968
 20
7869.311511410704
 10
6539.86017947968
 20
7866.111831410728
 10
6372.554318966819
 20
7866.111831410737
  0
LWPOLYLINE
  5
127
330
17
100
AcDbEntity
  8
Painéis
 62
7
370
25
100
AcDbPolyline
 90
4
 70
1
 10
6723.89798784113
 20
7966.644924744016
 10
6719.897987841131
 20
7966.644924744016
 10
6719.897987841131
 20
7870.644924744039
 10
6723.89798784113
 20
7870.644924744039
  0
LWPOLYLINE
  5
128
330
17
100
AcDbEntity
  8
Madeira
 62
7
370
25
100
AcDbPolyline
 90
4
 70
1
 10
6723.89798784113
 20
7962.244924744016
 10
6723.89798784113
 20
7966.644924744016
 10
6737.89798784113
 20
7966.644924744016
 10
6737.89798784113
 20
7962.244924744016
  0
LWPOLYLINE
  5
129
330
17
100
AcDbEntity
  8
Madeira
 62
7
370
25
100
AcDbPolyline
 90
4
 70
1
 10
6757.89798784113
 20
7870.644924744039
 10
6757.89798784113
 20
7875.044924744033
 10
6737.89798784113
 20
7875.044924744033
 10
6737.89798784113
 20
7870.644924744039
  0
LWPOLYLINE
  5
12A
330
17
100
AcDbEntity
  8
Madeira
 62
7
370
25
100
AcDbPolyline
 90
4
 70
1
 10
6723.89798784113
 20
7966.644924744016
 10
6737.89798784113
 20
7966.644924744016
 10
6737.89798784113
 20
7870.644924744039
 10
6723.89798784113
 20
7870.644924744039
  0
LWPOLYLINE
  5
12B
330
17
100
AcDbEntity
  8
Madeira
 62
7
370
25
100
AcDbPolyline
 90
4
 70
1
 10
6681.897987841129
 20
7870.644924744039
 10
6681.897987841129
 20
7875.044924744033
 10
6695.89798784113
 20
7875.044924744033
 10
6695.89798784113
 20
7870.644924744039
  0
LWPOLYLINE
  5
12C
330
17
100
AcDbEntity
  8
Painéis
 62
7
370
25
100
AcDbPolyline
 90
4
 70
1
 10
6681.897987841129
 20
7875.044924744033
 10
6681.897987841129
 20
7878.644924744039
 10
6719.897987841131
 20
7878.644924744039
 10
6719.897987841131
 20
7875.044924744033
  0
LWPOLYLINE
  5
12D
330
17
100
AcDbEntity
  8
Madeira
 62
7
370
25
100
AcDbPolyline
 90
4
 70
1
 10
6719.897987841131
 20
7870.644924744039
 10
6719.897987841131
 20
7875.044924744033
 10
6705.89798784113
 20
7875.044924744033
 10
6705.89798784113
 20
7870.644924744039
  0
LWPOLYLINE
  5
12E
330
17
100
AcDbEntity
  8
Painéis
 62
7
370
25
100
AcDbPolyline
 90
4
 70
1
 10
6677.897987841119
 20
7998.644924744039
 10
6681.89798784112
 20
7998.644924744039
 10
6681.897987841129
 20
7870.644924744039
 10
6677.897987841131
 20
7870.644924744039
  0
LWPOLYLINE
  5
12F
330
17
100
AcDbEntity
  8
Madeira
 62
7
370
25
100
AcDbPolyline
 90
4
 70
1
 10
6677.897987841119
 20
7994.244924744037
 10
6677.897987841119
 20
7998.644924744039
 10
6663.897987841119
 20
7998.644924744039
 10
6663.897987841119
 20
7994.244924744037
  0
LWPOLYLINE
  5
130
330
17
100
AcDbEntity
  8
Madeira
 62
7
370
25
100
AcDbPolyline
 90
4
 70
1
 10
6643.89798784113
 20
7870.644924744039
 10
6643.89798784113
 20
7875.044924744033
 10
6663.897987841131
 20
7875.044924744033
 10
6663.897987841131
 20
7870.644924744039
  0
LWPOLYLINE
  5
131
330
17
100
AcDbEntity
  8
Madeira
 62
7
370
25
100
AcDbPolyline
 90
4
 70
1
 10
6677.897987841119
 20
7998.644924744039
 10
6663.897987841119
 20
7998.644924744039
 10
6663.897987841131
 20
7870.644924744039
 10
6677.897987841131
 20
7870.644924744039
  0
LWPOLYLINE
  5
132
330
17
100
AcDbEntity
  8
Painéis
 62
7
370
25
100
AcDbPolyline
 90
4
 70
1
 10
6719.897987841131
 20
7966.644924744016
 10
6719.897987841131
 20
7970.644924744018
 10
6775.497987841106
 20
7970.644924744009
 10
6775.497987841106
 20
7966.644924744009
  0
LWPOLYLINE
  5
133
330
17
100
AcDbEntity
  8
CONCRETO
 62
7
370
25
100
AcDbPolyline
 90
8
 70
1
 10
6775.497987841106
 20
7970.644924744009
 10
6775.497987841106
 20
7998.644924744039
 10
6681.897987841121
 20
7998.644924744039
 10
6681.897987841121
 20
7970.644924744025
 10
6681.897987841129
 20
7970.644924744025
 10
6681.897987841188
 20
7878.644924744039
 10
6719.897987841131
 20
7878.644924744039
 10
6719.897987841131
 20
7970.644924744018
  0
LWPOLYLINE
  5
134
330
17
100
AcDbEntity
  8
barrote
 62
7
370
25
100
AcDbPolyline
 90
4
 70
1
 10
6791.353185513024
 20
7850.644924744083
 10
6596.17024500333
 20
7850.644924744083
 10
6596.17024500333
 20
7870.644924744039
 10
6791.353185513024
 20
7870.644924744039
  0
LWPOLYLINE
  5
135
330
17
100
AcDbEntity
  8
SCO-___-LAJ
 62
7
370
25
100
AcDbPolyline
 90
4
 70
1
 10
6782.350918097563
 20
7869.311511410713
 10
6615.045057584703
 20
7869.311511410704
 10
6615.045057584703
 20
7866.111831410728
 10
6782.350918097563
 20
7866.111831410737
  0
TEXT
  5
136
330
17
100
AcDbEntity
  8
texto
 62
7
370
25
100
AcDbText
 10
6210.068757636118
 20
7731.09448675503
 30
0.0
 40
8.0
  1
{\Q19;\C256;8 1/2pont}
100
AcDbText
  0
TEXT
  5
137
330
17
100
AcDbEntity
  8
5
 62
7
370
25
100
AcDbText
 10
6080.904946099232
 20
7626.269524488761
 30
0.0
 40
12.0
  1
V214
100
AcDbText
  0
TEXT
  5
138
330
17
100
AcDbEntity
  8
Texto Seção
 62
7
370
25
100
AcDbText
 10
6084.942763761215
 20
7566.982481943613
 30
0.0
 40
13.0
  1
V216.B
100
AcDbText
  0
TEXT
  5
139
330
17
100
AcDbEntity
  8
detalhes
 62
7
370
25
100
AcDbText
 10
6068.322008461429
 20
7723.165082650194
 30
0.0
 40
9.600000000000001
  1
B
100
AcDbText
  0
TEXT
  5
13A
330
17
100
AcDbEntity
  8
detalhes
 62
7
370
25
100
AcDbText
 10
6101.097855239132
 20
7723.165082650194
 30
0.0
 40
9.600000000000001
  1
B
100
AcDbText
  0
TEXT
  5
13B
330
17
100
AcDbEntity
  8
TEXTO PILAR
 62
7
370
25
100
AcDbText
 10
7139.288912521822
 20
7945.887488934764
 30
0.0
 40
12.0
  1
CORTE B - B
100
AcDbText
  0
TEXT
  5
13C
330
17
100
AcDbEntity
  8
texto
 62
7
370
25
100
AcDbText
 10
6454.068757636118
 20
7731.09448675503
 30
0.0
 40
8.0
  1
{\Q19;\C256;8 1/2pont}
100
AcDbText
  0
TEXT
  5
13D
330
17
100
AcDbEntity
  8
texto
 62
7
370
25
100
AcDbText
 10
6698.068757636118
 20
7731.09448675503
 30
0.0
 40
8.0
  1
{\Q19;\C256;8 1/2pont}
100
AcDbText
  0
TEXT
  5
13E
330
17
100
AcDbEntity
  8
texto
 62
7
370
25
100
AcDbText
 10
6942.068757636118
 20
7731.09448675503
 30
0.0
 40
8.0
  1
{\Q19;\C256;8 1/2pont}
100
AcDbText
  0
TEXT
  5
13F
330
17
100
AcDbEntity
  8
texto
 62
7
370
25
100
AcDbText
 10
7109.201141076681
 20
7731.09448675503
 30
0.0
 40
8.0
  1
{\Q19;\C256;5 1/2pont}
100
AcDbText
  0
TEXT
  5
140
330
17
100
AcDbEntity
  8
texto
 62
7
370
25
100
AcDbText
 10
6208.513898395289
 20
7512.397432528548
 30
0.0
 40
8.0
  1
{\Q19;\C256;8 1/2pont}
100
AcDbText
  0
TEXT
  5
141
330
17
100
AcDbEntity
  8
texto
 62
7
370
25
100
AcDbText
 10
6399.542203616202
 20
7512.397432528563
 30
0.0
 40
8.0
  1
{\Q19;\C256;5 1/2pont}
100
AcDbText
  0
TEXT
  5
142
330
17
100
AcDbEntity
  8
5
 62
7
370
25
100
AcDbText
 10
6456.942445906183
 20
7409.132071469461
 30
0.0
 40
12.0
  1
P29
100
AcDbText
  0
TEXT
  5
143
330
17
100
AcDbEntity
  8
5
 62
7
370
25
100
AcDbText
 10
6074.984927995463
 20
7409.132071469461
 30
0.0
 40
12.0
  1
P30
100
AcDbText
  0
TEXT
  5
144
330
17
100
AcDbEntity
  8
Texto Seção
 62
7
370
25
100
AcDbText
 10
6086.640330212315
 20
7776.316038456529
 30
0.0
 40
13.0
  1
V216.A
100
AcDbText
  0
TEXT
  5
145
330
17
100
AcDbEntity
  8
texto
 62
7
370
25
100
AcDbText
 10
6619.205980152107
 20
7512.397432528548
 30
0.0
 40
8.0
  1
{\Q19;\C256;8 1/2pont}
100
AcDbText
  0
TEXT
  5
146
330
17
100
AcDbEntity
  8
texto
 62
7
370
25
100
AcDbText
 10
6810.234285373019
 20
7512.397432528563
 30
0.0
 40
8.0
  1
{\Q19;\C256;5 1/2pont}
100
AcDbText
  0
TEXT
  5
147
330
17
100
AcDbEntity
  8
5
 62
7
370
25
100
AcDbText
 10
6895.079052901767
 20
7409.132071469461
 30
0.0
 40
12.0
  1
P28
100
AcDbText
  0
TEXT
  5
148
330
17
100
AcDbEntity
  8
texto
 62
7
370
25
100
AcDbText
 10
6978.735889979834
 20
7517.997399478962
 30
0.0
 40
8.0
  1
{\Q19;\C256;4 1/2pont}
100
AcDbText
  0
TEXT
  5
149
330
17
100
AcDbEntity
  8
detalhes
 62
7
370
25
100
AcDbText
 10
7081.686589635882
 20
7510.067995374125
 30
0.0
 40
9.600000000000001
  1
a
100
AcDbText
  0
TEXT
  5
14A
330
17
100
AcDbEntity
  8
detalhes
 62
7
370
25
100
AcDbText
 10
7048.91074285818
 20
7510.067995374125
 30
0.0
 40
9.600000000000001
  1
a
100
AcDbText
  0
TEXT
  5
14B
330
17
100
AcDbEntity
  8
TEXTO PILAR
 62
7
370
25
100
AcDbText
 10
7140.431769664679
 20
8078.176445000577
 30
0.0
 40
12.0
  1
CORTE A - A
100
AcDbText
  0
TEXT
  5
14C
330
17
100
AcDbEntity
  8
5
 62
7
370
25
100
AcDbText
 10
7039.708341932635
 20
7409.132071469461
 30
0.0
 40
12.0
  1
V214
100
AcDbText
  0
TEXT
  5
14D
330
17
100
AcDbEntity
  8
detalhes
 62
7
370
25
100
AcDbText
 10
6481.72173239929
 20
7931.26702031993
 30
0.0
 40
9.600000000000001
  1
b
100
AcDbText
  0
TEXT
  5
14E
330
17
100
AcDbEntity
  8
detalhes
 62
7
370
25
100
AcDbText
 10
6419.178073753553
 20
7931.278077765504
 30
0.0
 40
9.600000000000001
  1
a
100
AcDbText
  0
TEXT
  5
14F
330
17
100
AcDbEntity
  8
detalhes
 62
7
370
25
100
AcDbText
 10
6445.607514838697
 20
7880.880678263878
 30
0.0
 40
9.600000000000001
  1
c
100
AcDbText
  0
TEXT
  5
150
330
17
100
AcDbEntity
  8
detalhes
 62
7
370
25
100
AcDbText
 10
6728.105252530593
 20
7926.665617685495
 30
0.0
 40
9.600000000000001
  1
b
100
AcDbText
  0
TEXT
  5
151
330
17
100
AcDbEntity
  8
detalhes
 62
7
370
25
100
AcDbText
 10
6667.355549989401
 20
7927.725635630714
 30
0.0
 40
9.600000000000001
  1
a
100
AcDbText
  0
TEXT
  5
152
330
17
100
AcDbEntity
  8
detalhes
 62
7
370
25
100
AcDbText
 10
6702.19596783972
 20
7880.880678263878
 30
0.0
 40
9.600000000000001
  1
c
100
AcDbText
  0
TEXT
  5
153
330
17
100
AcDbEntity
  8
5
 62
7
370
25
100
AcDbText
 10
7158.133879117821
 20
7626.269524488761
 30
0.0
 40
12.0
  1
P30
100
AcDbText
  0
HATCH
  5
154
330
17
100
AcDbEntity
  8
Hachura
 62
7
100
AcDbHatch
 10
0.0
 20
0.0
 30
0.0
210
0.0
220
0.0
230
1.0
  2
SOLID
 70
1
 71
0
 91
1
 92
3
 72
0
 73
1
 93
8
 10
7178.471504751319
 20
7903.289013113236
 10
7183.083703769819
 20
7898.889013113228
 10
7183.083703769819
 20
7898.889013113228
 10
7193.877250330148
 20
7898.88901311323
 10
7193.877250330148
 20
7898.88901311323
 10
7193.877250330146
 20
7903.289013113236
 10
7193.877250330146
 20
7903.289013113236
 10
7178.471504751319
 20
7903.289013113236
 97
0
 75
1
 76
1
 98
0
  0
HATCH
  5
155
330
17
100
AcDbEntity
  8
Hachura
 62
7
100
AcDbHatch
 10
0.0
 20
0.0
 30
0.0
210
0.0
220
0.0
230
1.0
  2
SOLID
 70
1
 71
0
 91
1
 92
3
 72
0
 73
1
 93
5
 10
7213.060674172147
 20
7903.289013113229
 10
7220.060674172145
 20
7903.289013113229
 10
7220.060674172145
 20
7889.289013113226
 10
7213.060674172147
 20
7889.289013113226
 10
7213.060674172147
 20
7903.289013113229
 97
0
 75
1
 76
1
 98
0
  0
HATCH
  5
156
330
17
100
AcDbEntity
  8
COTA
 62
7
100
AcDbHatch
 10
0.0
 20
0.0
 30
0.0
210
0.0
220
0.0
230
1.0
  2
SOLID
 70
1
 71
0
 91
1
 92
3
 72
0
 73
1
 93
5
 10
7175.509931850278
 20
7768.274022921558
 10
7164.509931850279
 20
7768.274022921558
 10
7164.509931850279
 20
7752.274022921558
 10
7175.509931850278
 20
7752.274022921558
 10
7175.509931850278
 20
7768.274022921558
 97
0
 75
1
 76
1
 98
0
  0
HATCH
  5
157
330
17
100
AcDbEntity
  8
COTA
 62
7
100
AcDbHatch
 10
0.0
 20
0.0
 30
0.0
210
0.0
220
0.0
230
1.0
  2
SOLID
 70
1
 71
0
 91
1
 92
3
 72
0
 73
1
 93
8
 10
6468.15507260945
 20
7539.176935645489
 10
6468.155072609448
 20
7555.176935645461
 10
6468.155072609448
 20
7555.176935645461
 10
6082.155072609449
 20
7555.176935645464
 10
6082.155072609449
 20
7555.176935645464
 10
6082.155072609449
 20
7539.176935645463
 10
6082.155072609449
 20
7539.176935645463
 10
6468.15507260945
 20
7539.176935645489
 97
0
 75
1
 76
1
 98
0
  0
HATCH
  5
158
330
17
100
AcDbEntity
  8
Hachura
 62
7
100
AcDbHatch
 10
0.0
 20
0.0
 30
0.0
210
0.0
220
0.0
230
1.0
  2
SOLID
 70
1
 71
0
 91
1
 92
3
 72
0
 73
1
 93
8
 10
7221.374043372287
 20
8054.560591195841
 10
7219.621844353797
 20
8050.160591195833
 10
7219.621844353797
 20
8050.160591195833
 10
7208.828297793465
 20
8050.160591195833
 10
7208.828297793465
 20
8050.160591195833
 10
7208.828297793465
 20
8054.560591195841
 10
7208.828297793465
 20
8054.560591195841
 10
7221.374043372287
 20
8054.560591195841
 97
0
 75
1
 76
1
 98
0
  0
HATCH
  5
159
330
17
100
AcDbEntity
  8
Hachura
 62
7
100
AcDbHatch
 10
0.0
 20
0.0
 30
0.0
210
0.0
220
0.0
230
1.0
  2
SOLID
 70
1
 71
0
 91
1
 92
3
 72
0
 73
1
 93
5
 10
7184.444873951466
 20
8054.560591195834
 10
7177.444873951467
 20
8054.560591195834
 10
7177.444873951467
 20
8040.560591195829
 10
7184.444873951466
 20
8040.560591195829
 10
7184.444873951466
 20
8054.560591195834
 97
0
 75
1
 76
1
 98
0
  0
HATCH
  5
15A
330
17
100
AcDbEntity
  8
Hachura
 62
7
100
AcDbHatch
 10
0.0
 20
0.0
 30
0.0
210
0.0
220
0.0
230
1.0
  2
SOLID
 70
1
 71
0
 91
1
 92
3
 72
0
 73
1
 93
8
 10
6431.007249223252
 20
7998.644924744039
 10
6435.007249223253
 20
7998.644924744039
 10
6435.007249223253
 20
7998.644924744039
 10
6435.007249223253
 20
7870.644924744039
 10
6435.007249223253
 20
7870.644924744039
 10
6431.007249223252
 20
7870.644924744039
 10
6431.007249223252
 20
7870.644924744039
 10
6431.007249223252
 20
7998.644924744039
 97
0
 75
1
 76
1
 98
0
  0
HATCH
  5
15B
330
17
100
AcDbEntity
  8
Hachura
 62
7
100
AcDbHatch
 10
0.0
 20
0.0
 30
0.0
210
0.0
220
0.0
230
1.0
  2
SOLID
 70
1
 71
0
 91
1
 92
3
 72
0
 73
1
 93
8
 10
6431.007249223252
 20
7994.244924744037
 10
6431.007249223252
 20
7998.644924744039
 10
6431.007249223252
 20
7998.644924744039
 10
6417.007249223252
 20
7998.644924744039
 10
6417.007249223252
 20
7998.644924744039
 10
6417.007249223252
 20
7994.244924744037
 10
6417.007249223252
 20
7994.244924744037
 10
6431.007249223252
 20
7994.244924744037
 97
0
 75
1
 76
1
 98
0
  0
HATCH
  5
15C
330
17
100
AcDbEntity
  8
Hachura
 62
7
100
AcDbHatch
 10
0.0
 20
0.0
 30
0.0
210
0.0
220
0.0
230
1.0
  2
SOLID
 70
1
 71
0
 91
1
 92
3
 72
0
 73
1
 93
8
 10
6397.007249223253
 20
7870.644924744039
 10
6397.007249223253
 20
7875.044924744033
 10
6397.007249223253
 20
7875.044924744033
 10
6417.007249223252
 20
7875.044924744033
 10
6417.007249223252
 20
7875.044924744033
 10
6417.007249223252
 20
7870.644924744039
 10
6417.007249223252
 20
7870.644924744039
 10
6397.007249223253
 20
7870.644924744039
 97
0
 75
1
 76
1
 98
0
  0
HATCH
  5
15D
330
17
100
AcDbEntity
  8
Hachura
 62
7
100
AcDbHatch
 10
0.0
 20
0.0
 30
0.0
210
0.0
220
0.0
230
1.0
  2
SOLID
 70
1
 71
0
 91
1
 92
3
 72
0
 73
1
 93
8
 10
6473.007249223252
 20
7870.644924744039
 10
6473.007249223252
 20
7875.044924744033
 10
6473.007249223252
 20
7875.044924744033
 10
6459.007249223252
 20
7875.044924744033
 10
6459.007249223252
 20
7875.044924744033
 10
6459.007249223252
 20
7870.644924744039
 10
6459.007249223252
 20
7870.644924744039
 10
6473.007249223252
 20
7870.644924744039
 97
0
 75
1
 76
1
 98
0
  0
HATCH
  5
15E
330
17
100
AcDbEntity
  8
Hachura
 62
7
100
AcDbHatch
 10
0.0
 20
0.0
 30
0.0
210
0.0
220
0.0
230
1.0
  2
SOLID
 70
1
 71
0
 91
1
 92
3
 72
0
 73
1
 93
8
 10
6473.007249223252
 20
7875.044924744033
 10
6473.007249223252
 20
7878.644924744039
 10
6473.007249223252
 20
7878.644924744039
 10
6435.007249223253
 20
7878.644924744039
 10
6435.007249223253
 20
7878.644924744039
 10
6435.007249223253
 20
7875.044924744033
 10
6435.007249223253
 20
7875.044924744033
 10
6473.007249223252
 20
7875.044924744033
 97
0
 75
1
 76
1
 98
0
  0
HATCH
  5
15F
330
17
100
AcDbEntity
  8
Hachura
 62
7
100
AcDbHatch
 10
0.0
 20
0.0
 30
0.0
210
0.0
220
0.0
230
1.0
  2
SOLID
 70
1
 71
0
 91
1
 92
3
 72
0
 73
1
 93
8
 10
6435.007249223253
 20
7870.644924744039
 10
6435.007249223253
 20
7875.044924744033
 10
6435.007249223253
 20
7875.044924744033
 10
6449.007249223253
 20
7875.044924744033
 10
6449.007249223253
 20
7875.044924744033
 10
6449.007249223253
 20
7870.644924744039
 10
6449.007249223253
 20
7870.644924744039
 10
6435.007249223253
 20
7870.644924744039
 97
0
 75
1
 76
1
 98
0
  0
HATCH
  5
160
330
17
100
AcDbEntity
  8
Hachura
 62
7
100
AcDbHatch
 10
0.0
 20
0.0
 30
0.0
210
0.0
220
0.0
230
1.0
  2
SOLID
 70
1
 71
0
 91
1
 92
3
 72
0
 73
1
 93
8
 10
6477.007249223252
 20
7998.644924744039
 10
6473.007249223252
 20
7998.644924744039
 10
6473.007249223252
 20
7998.644924744039
 10
6473.007249223252
 20
7870.644924744039
 10
6473.007249223252
 20
7870.644924744039
 10
6477.007249223252
 20
7870.644924744039
 10
6477.007249223252
 20
7870.644924744039
 10
6477.007249223252
 20
7998.644924744039
 97
0
 75
1
 76
1
 98
0
  0
HATCH
  5
161
330
17
100
AcDbEntity
  8
Hachura
 62
7
100
AcDbHatch
 10
0.0
 20
0.0
 30
0.0
210
0.0
220
0.0
230
1.0
  2
SOLID
 70
1
 71
0
 91
1
 92
3
 72
0
 73
1
 93
8
 10
6477.007249223262
 20
7994.244924744037
 10
6477.007249223262
 20
7998.644924744039
 10
6477.007249223262
 20
7998.644924744039
 10
6491.007249223263
 20
7998.644924744039
 10
6491.007249223263
 20
7998.644924744039
 10
6491.007249223263
 20
7994.244924744037
 10
6491.007249223263
 20
7994.244924744037
 10
6477.007249223262
 20
7994.244924744037
 97
0
 75
1
 76
1
 98
0
  0
HATCH
  5
162
330
17
100
AcDbEntity
  8
Hachura
 62
7
100
AcDbHatch
 10
0.0
 20
0.0
 30
0.0
210
0.0
220
0.0
230
1.0
  2
SOLID
 70
1
 71
0
 91
1
 92
3
 72
0
 73
1
 93
8
 10
6511.007249223252
 20
7870.644924744039
 10
6511.007249223252
 20
7875.044924744033
 10
6511.007249223252
 20
7875.044924744033
 10
6491.007249223251
 20
7875.044924744033
 10
6491.007249223251
 20
7875.044924744033
 10
6491.007249223251
 20
7870.644924744039
 10
6491.007249223251
 20
7870.644924744039
 10
6511.007249223252
 20
7870.644924744039
 97
0
 75
1
 76
1
 98
0
  0
HATCH
  5
163
330
17
100
AcDbEntity
  8
Hachura
 62
7
100
AcDbHatch
 10
0.0
 20
0.0
 30
0.0
210
0.0
220
0.0
230
1.0
  2
SOLID
 70
1
 71
0
 91
1
 92
3
 72
0
 73
1
 93
8
 10
6723.897987841131
 20
7970.644924744018
 10
6719.897987841132
 20
7970.644924744018
 10
6719.897987841132
 20
7970.644924744018
 10
6719.897987841131
 20
7870.644924744039
 10
6719.897987841131
 20
7870.644924744039
 10
6723.89798784113
 20
7870.644924744039
 10
6723.89798784113
 20
7870.644924744039
 10
6723.897987841131
 20
7970.644924744018
 97
0
 75
1
 76
1
 98
0
  0
HATCH
  5
164
330
17
100
AcDbEntity
  8
Hachura
 62
7
100
AcDbHatch
 10
0.0
 20
0.0
 30
0.0
210
0.0
220
0.0
230
1.0
  2
SOLID
 70
1
 71
0
 91
1
 92
3
 72
0
 73
1
 93
8
 10
6723.89798784113
 20
7962.244924744016
 10
6723.89798784113
 20
7966.644924744016
 10
6723.89798784113
 20
7966.644924744016
 10
6737.89798784113
 20
7966.644924744016
 10
6737.89798784113
 20
7966.644924744016
 10
6737.89798784113
 20
7962.244924744016
 10
6737.89798784113
 20
7962.244924744016
 10
6723.89798784113
 20
7962.244924744016
 97
0
 75
1
 76
1
 98
0
  0
HATCH
  5
165
330
17
100
AcDbEntity
  8
Hachura
 62
7
100
AcDbHatch
 10
0.0
 20
0.0
 30
0.0
210
0.0
220
0.0
230
1.0
  2
SOLID
 70
1
 71
0
 91
1
 92
3
 72
0
 73
1
 93
8
 10
6757.89798784113
 20
7870.644924744039
 10
6757.89798784113
 20
7875.044924744033
 10
6757.89798784113
 20
7875.044924744033
 10
6737.89798784113
 20
7875.044924744033
 10
6737.89798784113
 20
7875.044924744033
 10
6737.89798784113
 20
7870.644924744039
 10
6737.89798784113
 20
7870.644924744039
 10
6757.89798784113
 20
7870.644924744039
 97
0
 75
1
 76
1
 98
0
  0
HATCH
  5
166
330
17
100
AcDbEntity
  8
Hachura
 62
7
100
AcDbHatch
 10
0.0
 20
0.0
 30
0.0
210
0.0
220
0.0
230
1.0
  2
SOLID
 70
1
 71
0
 91
1
 92
3
 72
0
 73
1
 93
8
 10
6681.897987841129
 20
7870.644924744039
 10
6681.897987841129
 20
7875.044924744033
 10
6681.897987841129
 20
7875.044924744033
 10
6695.89798784113
 20
7875.044924744033
 10
6695.89798784113
 20
7875.044924744033
 10
6695.89798784113
 20
7870.644924744039
 10
6695.89798784113
 20
7870.644924744039
 10
6681.897987841129
 20
7870.644924744039
 97
0
 75
1
 76
1
 98
0
  0
HATCH
  5
167
330
17
100
AcDbEntity
  8
Hachura
 62
7
100
AcDbHatch
 10
0.0
 20
0.0
 30
0.0
210
0.0
220
0.0
230
1.0
  2
SOLID
 70
1
 71
0
 91
1
 92
3
 72
0
 73
1
 93
8
 10
6681.897987841129
 20
7875.044924744033
 10
6681.897987841129
 20
7878.644924744039
 10
6681.897987841129
 20
7878.644924744039
 10
6719.897987841131
 20
7878.644924744039
 10
6719.897987841131
 20
7878.644924744039
 10
6719.897987841131
 20
7875.044924744033
 10
6719.897987841131
 20
7875.044924744033
 10
6681.897987841129
 20
7875.044924744033
 97
0
 75
1
 76
1
 98
0
  0
HATCH
  5
168
330
17
100
AcDbEntity
  8
Hachura
 62
7
100
AcDbHatch
 10
0.0
 20
0.0
 30
0.0
210
0.0
220
0.0
230
1.0
  2
SOLID
 70
1
 71
0
 91
1
 92
3
 72
0
 73
1
 93
8
 10
6719.897987841131
 20
7870.644924744039
 10
6719.897987841131
 20
7875.044924744033
 10
6719.897987841131
 20
7875.044924744033
 10
6705.89798784113
 20
7875.044924744033
 10
6705.89798784113
 20
7875.044924744033
 10
6705.89798784113
 20
7870.644924744039
 10
6705.89798784113
 20
7870.644924744039
 10
6719.897987841131
 20
7870.644924744039
 97
0
 75
1
 76
1
 98
0
  0
HATCH
  5
169
330
17
100
AcDbEntity
  8
Hachura
 62
7
100
AcDbHatch
 10
0.0
 20
0.0
 30
0.0
210
0.0
220
0.0
230
1.0
  2
SOLID
 70
1
 71
0
 91
1
 92
3
 72
0
 73
1
 93
8
 10
6677.897987841131
 20
7998.644924744039
 10
6681.897987841129
 20
7998.644924744039
 10
6681.897987841129
 20
7998.644924744039
 10
6681.897987841129
 20
7870.644924744039
 10
6681.897987841129
 20
7870.644924744039
 10
6677.897987841131
 20
7870.644924744039
 10
6677.897987841131
 20
7870.644924744039
 10
6677.897987841131
 20
7998.644924744039
 97
0
 75
1
 76
1
 98
0
  0
HATCH
  5
16A
330
17
100
AcDbEntity
  8
Hachura
 62
7
100
AcDbHatch
 10
0.0
 20
0.0
 30
0.0
210
0.0
220
0.0
230
1.0
  2
SOLID
 70
1
 71
0
 91
1
 92
3
 72
0
 73
1
 93
8
 10
6677.897987841119
 20
7994.244924744037
 10
6677.897987841119
 20
7998.644924744039
 10
6677.897987841119
 20
7998.644924744039
 10
6663.897987841119
 20
7998.644924744039
 10
6663.897987841119
 20
7998.644924744039
 10
6663.897987841119
 20
7994.244924744037
 10
6663.897987841119
 20
7994.244924744037
 10
6677.897987841119
 20
7994.244924744037
 97
0
 75
1
 76
1
 98
0
  0
HATCH
  5
16B
330
17
100
AcDbEntity
  8
Hachura
 62
7
100
AcDbHatch
 10
0.0
 20
0.0
 30
0.0
210
0.0
220
0.0
230
1.0
  2
SOLID
 70
1
 71
0
 91
1
 92
3
 72
0
 73
1
 93
8
 10
6643.89798784113
 20
7870.644924744039
 10
6643.89798784113
 20
7875.044924744033
 10
6643.89798784113
 20
7875.044924744033
 10
6663.897987841131
 20
7875.044924744033
 10
6663.897987841131
 20
7875.044924744033
 10
6663.897987841131
 20
7870.644924744039
 10
6663.897987841131
 20
7870.644924744039
 10
6643.89798784113
 20
7870.644924744039
 97
0
 75
1
 76
1
 98
0
  0
HATCH
  5
16C
330
17
100
AcDbEntity
  8
Hachura
 62
7
100
AcDbHatch
 10
0.0
 20
0.0
 30
0.0
210
0.0
220
0.0
230
1.0
  2
SOLID
 70
1
 71
0
 91
1
 92
3
 72
0
 73
1
 93
8
 10
6719.897987841131
 20
7966.644924744016
 10
6719.897987841131
 20
7970.644924744018
 10
6719.897987841131
 20
7970.644924744018
 10
6775.497987841106
 20
7970.644924744009
 10
6775.497987841106
 20
7970.644924744009
 10
6775.497987841106
 20
7966.644924744009
 10
6775.497987841106
 20
7966.644924744009
 10
6719.897987841131
 20
7966.644924744016
 97
0
 75
1
 76
1
 98
0
  0
ENDSEC
  0
SECTION
  2
OBJECTS
  0
DICTIONARY
  5
A
330
0
100
AcDbDictionary
281
1
  3
ACAD_COLOR
350
B
  3
ACAD_GROUP
350
C
  3
ACAD_LAYOUT
350
D
  3
ACAD_MATERIAL
350
E
  3
ACAD_MLEADERSTYLE
350
F
  3
ACAD_MLINESTYLE
350
10
  3
ACAD_PLOTSETTINGS
350
11
  3
ACAD_PLOTSTYLENAME
350
12
  3
ACAD_SCALELIST
350
14
  3
ACAD_TABLESTYLE
350
15
  3
ACAD_VISUALSTYLE
350
16
  3
EZDXF_META
350
2D
  0
DICTIONARY
  5
B
330
A
100
AcDbDictionary
281
1
  0
DICTIONARY
  5
C
330
A
100
AcDbDictionary
281
1
  0
DICTIONARY
  5
D
330
A
100
AcDbDictionary
281
1
  3
Model
350
1A
  3
Layout1
350
1E
  0
DICTIONARY
  5
E
330
A
100
AcDbDictionary
281
1
  3
ByBlock
350
1F
  3
ByLayer
350
20
  3
Global
350
21
  0
DICTIONARY
  5
F
330
A
100
AcDbDictionary
281
1
  3
Standard
350
2C
  0
DICTIONARY
  5
10
330
A
100
AcDbDictionary
281
1
  3
Standard
350
22
  0
DICTIONARY
  5
11
330
A
100
AcDbDictionary
281
1
  0
ACDBDICTIONARYWDFLT
  5
12
330
A
100
AcDbDictionary
281
1
  3
Normal
350
13
100
AcDbDictionaryWithDefault
340
13
  0
ACDBPLACEHOLDER
  5
13
330
12
  0
DICTIONARY
  5
14
330
A
100
AcDbDictionary
281
1
  0
DICTIONARY
  5
15
330
A
100
AcDbDictionary
281
1
  0
DICTIONARY
  5
16
330
A
100
AcDbDictionary
281
1
  0
LAYOUT
  5
1A
330
D
100
AcDbPlotSettings
  1

  4
A3
  6

 40
7.5
 41
20.0
 42
7.5
 43
20.0
 44
420.0
 45
297.0
 46
0.0
 47
0.0
 48
0.0
 49
0.0
140
0.0
141
0.0
142
1.0
143
1.0
 70
1024
 72
1
 73
0
 74
5
  7

 75
16
 76
0
 77
2
 78
300
147
1.0
148
0.0
149
0.0
100
AcDbLayout
  1
Model
 70
1
 71
0
 10
0.0
 20
0.0
 11
420.0
 21
297.0
 12
0.0
 22
0.0
 32
0.0
 14
1e+20
 24
1e+20
 34
1e+20
 15
-1e+20
 25
-1e+20
 35
-1e+20
146
0.0
 13
0.0
 23
0.0
 33
0.0
 16
1.0
 26
0.0
 36
0.0
 17
0.0
 27
1.0
 37
0.0
 76
1
330
17
  0
LAYOUT
  5
1E
330
D
100
AcDbPlotSettings
  1

  4
A3
  6

 40
7.5
 41
20.0
 42
7.5
 43
20.0
 44
420.0
 45
297.0
 46
0.0
 47
0.0
 48
0.0
 49
0.0
140
0.0
141
0.0
142
1.0
143
1.0
 70
0
 72
1
 73
0
 74
5
  7

 75
16
 76
0
 77
2
 78
300
147
1.0
148
0.0
149
0.0
100
AcDbLayout
  1
Layout1
 70
1
 71
1
 10
0.0
 20
0.0
 11
420.0
 21
297.0
 12
0.0
 22
0.0
 32
0.0
 14
1e+20
 24
1e+20
 34
1e+20
 15
-1e+20
 25
-1e+20
 35
-1e+20
146
0.0
 13
0.0
 23
0.0
 33
0.0
 16
1.0
 26
0.0
 36
0.0
 17
0.0
 27
1.0
 37
0.0
 76
1
330
1B
  0
MATERIAL
  5
1F
102
{ACAD_REACTORS
330
E
102
}
330
E
100
AcDbMaterial
  1
ByBlock
  2

 70
0
 40
1.0
 71
1
 41
1.0
 91
-1023410177
 42
1.0
 72
1
  3

 73
1
 74
1
 75
1
 44
0.5
 73
0
 45
1.0
 46
1.0
 77
1
  4

 78
1
 79
1
170
1
 48
1.0
171
1
  6

172
1
173
1
174
1
140
1.0
141
1.0
175
1
  7

176
1
177
1
178
1
143
1.0
179
1
  8

270
1
271
1
272
1
145
1.0
146
1.0
273
1
  9

274
1
275
1
276
1
 42
1.0
 72
1
  3

 73
1
 74
1
 75
1
 94
63
  0
MATERIAL
  5
20
102
{ACAD_REACTORS
330
E
102
}
330
E
100
AcDbMaterial
  1
ByLayer
  2

 70
0
 40
1.0
 71
1
 41
1.0
 91
-1023410177
 42
1.0
 72
1
  3

 73
1
 74
1
 75
1
 44
0.5
 73
0
 45
1.0
 46
1.0
 77
1
  4

 78
1
 79
1
170
1
 48
1.0
171
1
  6

172
1
173
1
174
1
140
1.0
141
1.0
175
1
  7

176
1
177
1
178
1
143
1.0
179
1
  8

270
1
271
1
272
1
145
1.0
146
1.0
273
1
  9

274
1
275
1
276
1
 42
1.0
 72
1
  3

 73
1
 74
1
 75
1
 94
63
  0
MATERIAL
  5
21
102
{ACAD_REACTORS
330
E
102
}
330
E
100
AcDbMaterial
  1
Global
  2

 70
0
 40
1.0
 71
1
 41
1.0
 91
-1023410177
 42
1.0
 72
1
  3

 73
1
 74
1
 75
1
 44
0.5
 73
0
 45
1.0
 46
1.0
 77
1
  4

 78
1
 79
1
170
1
 48
1.0
171
1
  6

172
1
173
1
174
1
140
1.0
141
1.0
175
1
  7

176
1
177
1
178
1
143
1.0
179
1
  8

270
1
271
1
272
1
145
1.0
146
1.0
273
1
  9

274
1
275
1
276
1
 42
1.0
 72
1
  3

 73
1
 74
1
 75
1
 94
63
  0
MLINESTYLE
  5
22
102
{ACAD_REACTORS
330
10
102
}
330
10
100
AcDbMlineStyle
  2
Standard
 70
0
  3

 62
256
 51
90.0
 52
90.0
 71
2
 49
0.5
 62
256
  6
BYLAYER
 49
-0.5
 62
256
  6
BYLAYER
  0
MLEADERSTYLE
  5
2C
102
{ACAD_REACTORS
330
F
102
}
330
F
100
AcDbMLeaderStyle
179
2
170
2
171
1
172
0
 90
2
 40
0.0
 41
0.0
173
1
 91
-1056964608
 92
-2
290
1
 42
2.0
291
1
 43
8.0
  3
Standard
 44
4.0
300

342
29
174
1
175
1
176
0
178
1
 93
-1056964608
 45
4.0
292
0
297
0
 46
4.0
 94
-1056964608
 47
1.0
 49
1.0
140
1.0
294
1
141
0.0
177
0
142
1.0
295
0
296
0
143
3.75
271
0
272
9
273
9
  0
DICTIONARY
  5
2D
330
A
100
AcDbDictionary
280
1
281
1
  3
CREATED_BY_EZDXF
350
2E
  3
WRITTEN_BY_EZDXF
350
16F
  0
DICTIONARYVAR
  5
2E
330
2D
100
DictionaryVariables
280
0
  1
1.4.3 @ 2026-06-10T16:53:47.673258+00:00
  0
DICTIONARYVAR
  5
16F
330
2D
100
DictionaryVariables
280
0
  1
1.4.3 @ 2026-06-10T16:53:47.683827+00:00
  0
ENDSEC
  0
EOF
