  0
SECTION
  2
HEADER
  9
$ACADVER
  1
AC1024
  9
$ACADMAINTVER
 70
6
  9
$DWGCODEPAGE
  3
ANSI_1252
  9
$LASTSAVEDBY
  1
ezdxf
  9
$INSBASE
 10
0.0
 20
0.0
 30
0.0
  9
$EXTMIN
 10
1e+20
 20
1e+20
 30
1e+20
  9
$EXTMAX
 10
-1e+20
 20
-1e+20
 30
-1e+20
  9
$LIMMIN
 10
0.0
 20
0.0
  9
$LIMMAX
 10
420.0
 20
297.0
  9
$ORTHOMODE
 70
0
  9
$REGENMODE
 70
1
  9
$FILLMODE
 70
1
  9
$QTEXTMODE
 70
0
  9
$MIRRTEXT
 70
1
  9
$LTSCALE
 40
1.0
  9
$ATTMODE
 70
1
  9
$TEXTSIZE
 40
2.5
  9
$TRACEWID
 40
1.0
  9
$TEXTSTYLE
  7
Standard
  9
$CLAYER
  8
0
  9
$CELTYPE
  6
ByLayer
  9
$CECOLOR
 62
256
  9
$CELTSCALE
 40
1.0
  9
$DISPSILH
 70
0
  9
$DIMSCALE
 40
1.0
  9
$DIMASZ
 40
2.5
  9
$DIMEXO
 40
0.625
  9
$DIMDLI
 40
3.75
  9
$DIMRND
 40
0.0
  9
$DIMDLE
 40
0.0
  9
$DIMEXE
 40
1.25
  9
$DIMTP
 40
0.0
  9
$DIMTM
 40
0.0
  9
$DIMTXT
 40
2.5
  9
$DIMCEN
 40
2.5
  9
$DIMTSZ
 40
0.0
  9
$DIMTOL
 70
0
  9
$DIMLIM
 70
0
  9
$DIMTIH
 70
0
  9
$DIMTOH
 70
0
  9
$DIMSE1
 70
0
  9
$DIMSE2
 70
0
  9
$DIMTAD
 70
1
  9
$DIMZIN
 70
8
  9
$DIMBLK
  1

  9
$DIMASO
 70
1
  9
$DIMSHO
 70
1
  9
$DIMPOST
  1

  9
$DIMAPOST
  1

  9
$DIMALT
 70
0
  9
$DIMALTD
 70
3
  9
$DIMALTF
 40
0.03937007874
  9
$DIMLFAC
 40
1.0
  9
$DIMTOFL
 70
1
  9
$DIMTVP
 40
0.0
  9
$DIMTIX
 70
0
  9
$DIMSOXD
 70
0
  9
$DIMSAH
 70
0
  9
$DIMBLK1
  1

  9
$DIMBLK2
  1

  9
$DIMSTYLE
  2
ISO-25
  9
$DIMCLRD
 70
0
  9
$DIMCLRE
 70
0
  9
$DIMCLRT
 70
0
  9
$DIMTFAC
 40
1.0
  9
$DIMGAP
 40
0.625
  9
$DIMJUST
 70
0
  9
$DIMSD1
 70
0
  9
$DIMSD2
 70
0
  9
$DIMTOLJ
 70
0
  9
$DIMTZIN
 70
8
  9
$DIMALTZ
 70
0
  9
$DIMALTTZ
 70
0
  9
$DIMUPT
 70
0
  9
$DIMDEC
 70
2
  9
$DIMTDEC
 70
2
  9
$DIMALTU
 70
2
  9
$DIMALTTD
 70
3
  9
$DIMTXSTY
  7
Standard
  9
$DIMAUNIT
 70
0
  9
$DIMADEC
 70
0
  9
$DIMALTRND
 40
0.0
  9
$DIMAZIN
 70
0
  9
$DIMDSEP
 70
44
  9
$DIMATFIT
 70
3
  9
$DIMFRAC
 70
0
  9
$DIMLDRBLK
  1

  9
$DIMLUNIT
 70
2
  9
$DIMLWD
 70
-2
  9
$DIMLWE
 70
-2
  9
$DIMTMOVE
 70
0
  9
$DIMFXL
 40
1.0
  9
$DIMFXLON
 70
0
  9
$DIMJOGANG
 40
0.785398163397
  9
$DIMTFILL
 70
0
  9
$DIMTFILLCLR
 70
0
  9
$DIMARCSYM
 70
0
  9
$DIMLTYPE
  6

  9
$DIMLTEX1
  6

  9
$DIMLTEX2
  6

  9
$DIMTXTDIRECTION
 70
0
  9
$LUNITS
 70
2
  9
$LUPREC
 70
4
  9
$SKETCHINC
 40
1.0
  9
$FILLETRAD
 40
10.0
  9
$AUNITS
 70
0
  9
$AUPREC
 70
2
  9
$MENU
  1
.
  9
$ELEVATION
 40
0.0
  9
$PELEVATION
 40
0.0
  9
$THICKNESS
 40
0.0
  9
$LIMCHECK
 70
0
  9
$CHAMFERA
 40
0.0
  9
$CHAMFERB
 40
0.0
  9
$CHAMFERC
 40
0.0
  9
$CHAMFERD
 40
0.0
  9
$SKPOLY
 70
0
  9
$TDCREATE
 40
2461202.5790162035
  9
$TDUCREATE
 40
2458532.153996898
  9
$TDUPDATE
 40
2461202.5790162035
  9
$TDUUPDATE
 40
2458532.1544311
  9
$TDINDWG
 40
0.0
  9
$TDUSRTIMER
 40
0.0
  9
$USRTIMER
 70
1
  9
$ANGBASE
 50
0.0
  9
$ANGDIR
 70
0
  9
$PDMODE
 70
0
  9
$PDSIZE
 40
0.0
  9
$PLINEWID
 40
0.0
  9
$SPLFRAME
 70
0
  9
$SPLINETYPE
 70
6
  9
$SPLINESEGS
 70
8
  9
$HANDSEED
  5
140
  9
$SURFTAB1
 70
6
  9
$SURFTAB2
 70
6
  9
$SURFTYPE
 70
6
  9
$SURFU
 70
6
  9
$SURFV
 70
6
  9
$UCSBASE
  2

  9
$UCSNAME
  2

  9
$UCSORG
 10
0.0
 20
0.0
 30
0.0
  9
$UCSXDIR
 10
1.0
 20
0.0
 30
0.0
  9
$UCSYDIR
 10
0.0
 20
1.0
 30
0.0
  9
$UCSORTHOREF
  2

  9
$UCSORTHOVIEW
 70
0
  9
$UCSORGTOP
 10
0.0
 20
0.0
 30
0.0
  9
$UCSORGBOTTOM
 10
0.0
 20
0.0
 30
0.0
  9
$UCSORGLEFT
 10
0.0
 20
0.0
 30
0.0
  9
$UCSORGRIGHT
 10
0.0
 20
0.0
 30
0.0
  9
$UCSORGFRONT
 10
0.0
 20
0.0
 30
0.0
  9
$UCSORGBACK
 10
0.0
 20
0.0
 30
0.0
  9
$PUCSBASE
  2

  9
$PUCSNAME
  2

  9
$PUCSORG
 10
0.0
 20
0.0
 30
0.0
  9
$PUCSXDIR
 10
1.0
 20
0.0
 30
0.0
  9
$PUCSYDIR
 10
0.0
 20
1.0
 30
0.0
  9
$PUCSORTHOREF
  2

  9
$PUCSORTHOVIEW
 70
0
  9
$PUCSORGTOP
 10
0.0
 20
0.0
 30
0.0
  9
$PUCSORGBOTTOM
 10
0.0
 20
0.0
 30
0.0
  9
$PUCSORGLEFT
 10
0.0
 20
0.0
 30
0.0
  9
$PUCSORGRIGHT
 10
0.0
 20
0.0
 30
0.0
  9
$PUCSORGFRONT
 10
0.0
 20
0.0
 30
0.0
  9
$PUCSORGBACK
 10
0.0
 20
0.0
 30
0.0
  9
$USERI1
 70
0
  9
$USERI2
 70
0
  9
$USERI3
 70
0
  9
$USERI4
 70
0
  9
$USERI5
 70
0
  9
$USERR1
 40
0.0
  9
$USERR2
 40
0.0
  9
$USERR3
 40
0.0
  9
$USERR4
 40
0.0
  9
$USERR5
 40
0.0
  9
$WORLDVIEW
 70
1
  9
$SHADEDGE
 70
3
  9
$SHADEDIF
 70
70
  9
$TILEMODE
 70
1
  9
$MAXACTVP
 70
64
  9
$PINSBASE
 10
0.0
 20
0.0
 30
0.0
  9
$PLIMCHECK
 70
0
  9
$PEXTMIN
 10
1e+20
 20
1e+20
 30
1e+20
  9
$PEXTMAX
 10
-1e+20
 20
-1e+20
 30
-1e+20
  9
$PLIMMIN
 10
0.0
 20
0.0
  9
$PLIMMAX
 10
420.0
 20
297.0
  9
$UNITMODE
 70
0
  9
$VISRETAIN
 70
1
  9
$PLINEGEN
 70
0
  9
$PSLTSCALE
 70
1
  9
$TREEDEPTH
 70
3020
  9
$CMLSTYLE
  2
Standard
  9
$CMLJUST
 70
0
  9
$CMLSCALE
 40
20.0
  9
$PROXYGRAPHICS
 70
1
  9
$MEASUREMENT
 70
1
  9
$CELWEIGHT
370
-1
  9
$ENDCAPS
280
0
  9
$JOINSTYLE
280
0
  9
$LWDISPLAY
290
0
  9
$INSUNITS
 70
6
  9
$HYPERLINKBASE
  1

  9
$STYLESHEET
  1

  9
$XEDIT
290
1
  9
$CEPSNTYPE
380
0
  9
$PSTYLEMODE
290
1
  9
$FINGERPRINTGUID
  2
{AECAB0A7-4429-4796-B73F-5DB805E3DCD8}
  9
$VERSIONGUID
  2
{274B4BCA-D46A-417F-BD05-2E551088106F}
  9
$EXTNAMES
290
1
  9
$PSVPSCALE
 40
0.0
  9
$OLESTARTUP
290
0
  9
$SORTENTS
280
127
  9
$INDEXCTL
280
0
  9
$HIDETEXT
280
1
  9
$XCLIPFRAME
280
1
  9
$HALOGAP
280
0
  9
$OBSCOLOR
 70
257
  9
$OBSLTYPE
280
0
  9
$INTERSECTIONDISPLAY
280
0
  9
$INTERSECTIONCOLOR
 70
257
  9
$DIMASSOC
280
2
  9
$PROJECTNAME
  1

  9
$CAMERADISPLAY
290
0
  9
$LENSLENGTH
 40
50.0
  9
$CAMERAHEIGHT
 40
0.0
  9
$STEPSPERSEC
 40
24.0
  9
$STEPSIZE
 40
100.0
  9
$3DDWFPREC
 40
2.0
  9
$PSOLWIDTH
 40
0.005
  9
$PSOLHEIGHT
 40
0.08
  9
$LOFTANG1
 40
1.570796326795
  9
$LOFTANG2
 40
1.570796326795
  9
$LOFTMAG1
 40
0.0
  9
$LOFTMAG2
 40
0.0
  9
$LOFTPARAM
 70
7
  9
$LOFTNORMALS
280
1
  9
$LATITUDE
 40
37.795
  9
$LONGITUDE
 40
-122.394
  9
$NORTHDIRECTION
 40
0.0
  9
$TIMEZONE
 70
-8000
  9
$LIGHTGLYPHDISPLAY
280
1
  9
$TILEMODELIGHTSYNCH
280
1
  9
$CMATERIAL
347
20
  9
$SOLIDHIST
280
0
  9
$SHOWHIST
280
1
  9
$DWFFRAME
280
2
  9
$DGNFRAME
280
2
  9
$REALWORLDSCALE
290
1
  9
$INTERFERECOLOR
 62
256
  9
$CSHADOW
280
0
  9
$SHADOWPLANELOCATION
 40
0.0
  0
ENDSEC
  0
SECTION
  2
CLASSES
  0
CLASS
  1
ACDBDICTIONARYWDFLT
  2
AcDbDictionaryWithDefault
  3
ObjectDBX Classes
 90
0
 91
0
280
0
281
0
  0
CLASS
  1
SUN
  2
AcDbSun
  3
SCENEOE
 90
1153
 91
0
280
0
281
0
  0
CLASS
  1
VISUALSTYLE
  2
AcDbVisualStyle
  3
ObjectDBX Classes
 90
4095
 91
0
280
0
281
0
  0
CLASS
  1
MATERIAL
  2
AcDbMaterial
  3
ObjectDBX Classes
 90
1153
 91
0
280
0
281
0
  0
CLASS
  1
SCALE
  2
AcDbScale
  3
ObjectDBX Classes
 90
1153
 91
0
280
0
281
0
  0
CLASS
  1
TABLESTYLE
  2
AcDbTableStyle
  3
ObjectDBX Classes
 90
4095
 91
0
280
0
281
0
  0
CLASS
  1
MLEADERSTYLE
  2
AcDbMLeaderStyle
  3
ACDB_MLEADERSTYLE_CLASS
 90
4095
 91
0
280
0
281
0
  0
CLASS
  1
DICTIONARYVAR
  2
AcDbDictionaryVar
  3
ObjectDBX Classes
 90
0
 91
0
280
0
281
0
  0
CLASS
  1
CELLSTYLEMAP
  2
AcDbCellStyleMap
  3
ObjectDBX Classes
 90
1152
 91
0
280
0
281
0
  0
CLASS
  1
MENTALRAYRENDERSETTINGS
  2
AcDbMentalRayRenderSettings
  3
SCENEOE
 90
1024
 91
0
280
0
281
0
  0
CLASS
  1
ACDBDETAILVIEWSTYLE
  2
AcDbDetailViewStyle
  3
ObjectDBX Classes
 90
1025
 91
0
280
0
281
0
  0
CLASS
  1
ACDBSECTIONVIEWSTYLE
  2
AcDbSectionViewStyle
  3
ObjectDBX Classes
 90
1025
 91
0
280
0
281
0
  0
CLASS
  1
RASTERVARIABLES
  2
AcDbRasterVariables
  3
ISM
 90
0
 91
0
280
0
281
0
  0
CLASS
  1
LAYOUT
  2
AcDbLayout
  3
ObjectDBX Classes
 90
0
 91
0
280
0
281
0
  0
CLASS
  1
ACDBPLACEHOLDER
  2
AcDbPlaceHolder
  3
ObjectDBX Classes
 90
0
 91
0
280
0
281
0
  0
ENDSEC
  0
SECTION
  2
TABLES
  0
TABLE
  2
VPORT
  5
8
330
0
100
AcDbSymbolTable
 70
1
  0
VPORT
  5
23
330
8
100
AcDbSymbolTableRecord
100
AcDbViewportTableRecord
  2
*Active
 70
0
 10
0.0
 20
0.0
 11
1.0
 21
1.0
 12
0.0
 22
0.0
 13
0.0
 23
0.0
 14
0.5
 24
0.5
 15
0.5
 25
0.5
 16
0.0
 26
0.0
 36
1.0
 17
0.0
 27
0.0
 37
0.0
 40
1000.0
 41
1.34
 42
50.0
 43
0.0
 44
0.0
 50
0.0
 51
0.0
 71
0
 72
1000
 73
1
 74
3
 75
0
 76
0
 77
0
 78
0
281
0
 65
0
146
0.0
  0
ENDTAB
  0
TABLE
  2
LTYPE
  5
2
330
0
100
AcDbSymbolTable
 70
3
  0
LTYPE
  5
24
330
2
100
AcDbSymbolTableRecord
100
AcDbLinetypeTableRecord
  2
ByBlock
 70
0
  3

 72
65
 73
0
 40
0.0
  0
LTYPE
  5
25
330
2
100
AcDbSymbolTableRecord
100
AcDbLinetypeTableRecord
  2
ByLayer
 70
0
  3

 72
65
 73
0
 40
0.0
  0
LTYPE
  5
26
330
2
100
AcDbSymbolTableRecord
100
AcDbLinetypeTableRecord
  2
Continuous
 70
0
  3

 72
65
 73
0
 40
0.0
  0
ENDTAB
  0
TABLE
  2
LAYER
  5
1
330
0
100
AcDbSymbolTable
 70
18
  0
LAYER
  5
27
330
1
100
AcDbSymbolTableRecord
100
AcDbLayerTableRecord
  2
0
 70
0
 62
7
  6
Continuous
370
-3
390
13
347
21
  0
LAYER
  5
28
330
1
100
AcDbSymbolTableRecord
100
AcDbLayerTableRecord
  2
Defpoints
 70
0
 62
7
  6
Continuous
290
0
370
-3
390
13
347
21
  0
LAYER
  5
2F
330
1
100
AcDbSymbolTableRecord
100
AcDbLayerTableRecord
  2
texto
 70
0
 62
7
  6
Continuous
370
-3
390
13
347
21
  0
LAYER
  5
30
330
1
100
AcDbSymbolTableRecord
100
AcDbLayerTableRecord
  2
COTA
 70
0
 62
7
  6
Continuous
370
-3
390
13
347
21
  0
LAYER
  5
31
330
1
100
AcDbSymbolTableRecord
100
AcDbLayerTableRecord
  2
SARR_EDITAR
 70
0
 62
7
  6
Continuous
370
-3
390
13
347
21
  0
LAYER
  5
32
330
1
100
AcDbSymbolTableRecord
100
AcDbLayerTableRecord
  2
SCO-___-LAJ
 70
0
 62
7
  6
Continuous
370
-3
390
13
347
21
  0
LAYER
  5
33
330
1
100
AcDbSymbolTableRecord
100
AcDbLayerTableRecord
  2
presilha
 70
0
 62
7
  6
Continuous
370
-3
390
13
347
21
  0
LAYER
  5
34
330
1
100
AcDbSymbolTableRecord
100
AcDbLayerTableRecord
  2
Hachura
 70
0
 62
7
  6
Continuous
370
-3
390
13
347
21
  0
LAYER
  5
35
330
1
100
AcDbSymbolTableRecord
100
AcDbLayerTableRecord
  2
detalhes
 70
0
 62
7
  6
Continuous
370
-3
390
13
347
21
  0
LAYER
  5
36
330
1
100
AcDbSymbolTableRecord
100
AcDbLayerTableRecord
  2
Painéis
 70
0
 62
7
  6
Continuous
370
-3
390
13
347
21
  0
LAYER
  5
37
330
1
100
AcDbSymbolTableRecord
100
AcDbLayerTableRecord
  2
Madeira
 70
0
 62
7
  6
Continuous
370
-3
390
13
347
21
  0
LAYER
  5
38
330
1
100
AcDbSymbolTableRecord
100
AcDbLayerTableRecord
  2
SARR_3.5x7
 70
0
 62
7
  6
Continuous
370
-3
390
13
347
21
  0
LAYER
  5
39
330
1
100
AcDbSymbolTableRecord
100
AcDbLayerTableRecord
  2
SARR_2.2x7
 70
0
 62
7
  6
Continuous
370
-3
390
13
347
21
  0
LAYER
  5
3A
330
1
100
AcDbSymbolTableRecord
100
AcDbLayerTableRecord
  2
CONCRETO
 70
0
 62
7
  6
Continuous
370
-3
390
13
347
21
  0
LAYER
  5
3B
330
1
100
AcDbSymbolTableRecord
100
AcDbLayerTableRecord
  2
barrote
 70
0
 62
7
  6
Continuous
370
-3
390
13
347
21
  0
LAYER
  5
3C
330
1
100
AcDbSymbolTableRecord
100
AcDbLayerTableRecord
  2
5
 70
0
 62
7
  6
Continuous
370
-3
390
13
347
21
  0
LAYER
  5
3D
330
1
100
AcDbSymbolTableRecord
100
AcDbLayerTableRecord
  2
TENSOR
 70
0
 62
7
  6
Continuous
370
-3
390
13
347
21
  0
LAYER
  5
3E
330
1
100
AcDbSymbolTableRecord
100
AcDbLayerTableRecord
  2
Texto Seção
 70
0
 62
7
  6
Continuous
370
-3
390
13
347
21
  0
ENDTAB
  0
TABLE
  2
STYLE
  5
5
330
0
100
AcDbSymbolTable
 70
1
  0
STYLE
  5
29
330
5
100
AcDbSymbolTableRecord
100
AcDbTextStyleTableRecord
  2
Standard
 70
0
 40
0.0
 41
1.0
 50
0.0
 71
0
 42
2.5
  3
txt
  4

  0
ENDTAB
  0
TABLE
  2
VIEW
  5
7
330
0
100
AcDbSymbolTable
 70
0
  0
ENDTAB
  0
TABLE
  2
UCS
  5
6
330
0
100
AcDbSymbolTable
 70
0
  0
ENDTAB
  0
TABLE
  2
APPID
  5
3
330
0
100
AcDbSymbolTable
 70
3
  0
APPID
  5
2A
330
3
100
AcDbSymbolTableRecord
100
AcDbRegAppTableRecord
  2
ACAD
 70
0
  0
APPID
  5
13D
330
3
100
AcDbSymbolTableRecord
100
AcDbRegAppTableRecord
  2
HATCHBACKGROUNDCOLOR
 70
0
  0
APPID
  5
13E
330
3
100
AcDbSymbolTableRecord
100
AcDbRegAppTableRecord
  2
EZDXF
 70
0
  0
ENDTAB
  0
TABLE
  2
DIMSTYLE
  5
4
330
0
100
AcDbSymbolTable
 70
1
100
AcDbDimStyleTable
  0
DIMSTYLE
105
2B
330
4
100
AcDbSymbolTableRecord
100
AcDbDimStyleTableRecord
  2
Standard
 70
0
 40
1.0
 41
2.5
 42
0.625
 43
3.75
 44
1.25
 45
0.0
 46
0.0
 47
0.0
 48
0.0
 49
2.5
140
2.5
141
2.5
142
0.0
143
0.03937007874
144
1.0
145
0.0
146
1.0
147
0.625
148
0.0
 69
0
 70
0
 71
0
 72
0
 73
0
 74
0
 75
0
 76
0
 77
1
 78
8
 79
3
170
0
171
3
172
1
173
0
174
0
175
0
176
0
177
0
178
0
179
2
271
2
272
2
273
2
274
3
275
0
276
0
277
2
278
44
279
0
280
0
281
0
282
0
283
0
284
8
285
0
286
0
288
0
289
3
290
0
371
-2
372
-2
  0
ENDTAB
  0
TABLE
  2
BLOCK_RECORD
  5
9
330
0
100
AcDbSymbolTable
 70
2
  0
BLOCK_RECORD
  5
17
330
9
100
AcDbSymbolTableRecord
100
AcDbBlockTableRecord
  2
*Model_Space
340
1A
 70
0
280
1
281
0
  0
BLOCK_RECORD
  5
1B
330
9
100
AcDbSymbolTableRecord
100
AcDbBlockTableRecord
  2
*Paper_Space
340
1E
 70
0
280
1
281
0
  0
ENDTAB
  0
ENDSEC
  0
SECTION
  2
BLOCKS
  0
BLOCK
  5
18
330
17
100
AcDbEntity
  8
0
100
AcDbBlockBegin
  2
*Model_Space
 70
0
 10
0.0
 20
0.0
 30
0.0
  3
*Model_Space
  1

  0
ENDBLK
  5
19
330
17
100
AcDbEntity
  8
0
100
AcDbBlockEnd
  0
BLOCK
  5
1C
330
1B
100
AcDbEntity
  8
0
100
AcDbBlockBegin
  2
*Paper_Space
 70
0
 10
0.0
 20
0.0
 30
0.0
  3
*Paper_Space
  1

  0
ENDBLK
  5
1D
330
1B
100
AcDbEntity
  8
0
100
AcDbBlockEnd
  0
ENDSEC
  0
SECTION
  2
ENTITIES
  0
LINE
  5
3F
330
17
100
AcDbEntity
  8
Painéis
 62
7
370
25
100
AcDbLine
 10
3632.488392032603
 20
6392.601827958788
 30
0.0
 11
3753.488392032608
 21
6392.601827958808
 31
0.0
  0
LINE
  5
40
330
17
100
AcDbEntity
  8
SARR_2.2x7
 62
7
370
25
100
AcDbLine
 10
3679.474483536348
 20
6617.498915234879
 30
0.0
 11
3521.474483536346
 21
6617.498915234889
 31
0.0
  0
LINE
  5
41
330
17
100
AcDbEntity
  8
SARR_2.2x7
 62
7
370
25
100
AcDbLine
 10
3521.474483536346
 20
6617.498915234889
 30
0.0
 11
3418.474483536343
 21
6617.498915234887
 31
0.0
  0
LINE
  5
42
330
17
100
AcDbEntity
  8
SARR_2.2x7
 62
7
370
25
100
AcDbLine
 10
3328.474483536347
 20
6617.498915234884
 30
0.0
 11
3277.474483536346
 21
6617.498915234881
 31
0.0
  0
LINE
  5
43
330
17
100
AcDbEntity
  8
SARR_2.2x7
 62
7
370
25
100
AcDbLine
 10
3277.474483536347
 20
6617.498915234881
 30
0.0
 11
3105.474483536343
 21
6617.498915234875
 31
0.0
  0
LINE
  5
44
330
17
100
AcDbEntity
  8
SARR_3.5x7
 62
7
370
25
100
AcDbLine
 10
3517.974483536317
 20
6617.498915234932
 30
0.0
 11
3517.974483536285
 21
6555.698915234886
 31
0.0
  0
LINE
  5
45
330
17
100
AcDbEntity
  8
SARR_3.5x7
 62
7
370
25
100
AcDbLine
 10
3524.974483536404
 20
6617.498915234991
 30
0.0
 11
3524.974483536431
 21
6555.698915234886
 31
0.0
  0
LINE
  5
46
330
17
100
AcDbEntity
  8
SARR_3.5x7
 62
7
370
25
100
AcDbLine
 10
3521.474483536346
 20
6617.498915234889
 30
0.0
 11
3521.474483536343
 21
6555.6989152349
 31
0.0
  0
LINE
  5
47
330
17
100
AcDbEntity
  8
SARR_3.5x7
 62
7
370
25
100
AcDbLine
 10
3524.974483536431
 20
6555.698915234886
 30
0.0
 11
3521.474483536343
 21
6555.698915234886
 31
0.0
  0
LINE
  5
48
330
17
100
AcDbEntity
  8
SARR_3.5x7
 62
7
370
25
100
AcDbLine
 10
3521.474483536343
 20
6555.698915234886
 30
0.0
 11
3517.974483536285
 21
6555.698915234886
 31
0.0
  0
LINE
  5
49
330
17
100
AcDbEntity
  8
Painéis
 62
7
370
25
100
AcDbLine
 10
3765.474483536349
 20
6619.698915234872
 30
0.0
 11
3033.474483536347
 21
6619.698915234872
 31
0.0
  0
LINE
  5
4A
330
17
100
AcDbEntity
  8
Painéis
 62
7
370
25
100
AcDbLine
 10
3765.474483536344
 20
6555.698915234872
 30
0.0
 11
3033.474483536344
 21
6555.698915234872
 31
0.0
  0
LINE
  5
4B
330
17
100
AcDbEntity
  8
Painéis
 62
7
370
25
100
AcDbLine
 10
3521.474483536343
 20
6555.698915234886
 30
0.0
 11
3521.474483536348
 21
6619.698915234886
 31
0.0
  0
LINE
  5
4C
330
17
100
AcDbEntity
  8
Painéis
 62
7
370
25
100
AcDbLine
 10
3033.474483536344
 20
6555.698915234872
 30
0.0
 11
3033.474483536347
 21
6619.698915234872
 31
0.0
  0
LINE
  5
4D
330
17
100
AcDbEntity
  8
Painéis
 62
7
370
25
100
AcDbLine
 10
3765.474483536344
 20
6555.698915234872
 30
0.0
 11
3765.474483536348
 21
6619.698915234872
 31
0.0
  0
LINE
  5
4E
330
17
100
AcDbEntity
  8
SARR_2.2x7
 62
7
370
25
100
AcDbLine
 10
3105.474483536343
 20
6612.698915234862
 30
0.0
 11
3033.474483536347
 21
6612.698915234871
 31
0.0
  0
LINE
  5
4F
330
17
100
AcDbEntity
  8
SARR_3.5x7
 62
7
370
25
100
AcDbLine
 10
3105.474483536343
 20
6619.69891523486
 30
0.0
 11
3105.474483536347
 21
6555.698915234846
 31
0.0
  0
LINE
  5
50
330
17
100
AcDbEntity
  8
SARR_3.5x7
 62
7
370
25
100
AcDbLine
 10
3108.974483536345
 20
6617.498915234863
 30
0.0
 11
3108.974483536347
 21
6555.698915234846
 31
0.0
  0
LINE
  5
51
330
17
100
AcDbEntity
  8
SARR_3.5x7
 62
7
370
25
100
AcDbLine
 10
3280.974483536404
 20
6617.498915234991
 30
0.0
 11
3280.974483536431
 21
6555.698915234886
 31
0.0
  0
LINE
  5
52
330
17
100
AcDbEntity
  8
SARR_3.5x7
 62
7
370
25
100
AcDbLine
 10
3277.474483536346
 20
6617.498915234889
 30
0.0
 11
3277.474483536344
 21
6555.6989152349
 31
0.0
  0
LINE
  5
53
330
17
100
AcDbEntity
  8
Painéis
 62
7
370
25
100
AcDbLine
 10
3277.474483536344
 20
6555.698915234886
 30
0.0
 11
3277.474483536347
 21
6619.698915234886
 31
0.0
  0
LINE
  5
54
330
17
100
AcDbEntity
  8
Defpoints
 62
7
370
25
100
AcDbLine
 10
3413.506264146106
 20
6850.069817057359
 30
0.0
 11
3413.506264146106
 21
6975.069817057359
 31
0.0
  0
LINE
  5
55
330
17
100
AcDbEntity
  8
presilha
 62
7
370
25
100
AcDbLine
 10
3249.4159754897996
 20
6721.436483724059
 30
0.0
 11
3249.4159754897996
 21
6716.836643724073
 31
0.0
  0
LINE
  5
56
330
17
100
AcDbEntity
  8
presilha
 62
7
370
25
100
AcDbLine
 10
3249.4159754897996
 20
6716.836643724073
 30
0.0
 11
3229.4156109854475
 21
6716.836643724066
 31
0.0
  0
LINE
  5
57
330
17
100
AcDbEntity
  8
presilha
 62
7
370
25
100
AcDbLine
 10
3228.4156109854475
 20
6724.436483724059
 30
0.0
 11
3229.4156109854475
 21
6724.436483724059
 31
0.0
  0
LINE
  5
58
330
17
100
AcDbEntity
  8
presilha
 62
7
370
25
100
AcDbLine
 10
3229.4156109854475
 20
6724.436483724059
 30
0.0
 11
3229.4156109854475
 21
6712.436483724059
 31
0.0
  0
LINE
  5
59
330
17
100
AcDbEntity
  8
presilha
 62
7
370
25
100
AcDbLine
 10
3229.4156109854475
 20
6712.436483724059
 30
0.0
 11
3228.4156109854475
 21
6712.436483724059
 31
0.0
  0
LINE
  5
5A
330
17
100
AcDbEntity
  8
presilha
 62
7
370
25
100
AcDbLine
 10
3228.4156109854475
 20
6712.436483724059
 30
0.0
 11
3228.4156109854475
 21
6724.436483724059
 31
0.0
  0
LINE
  5
5B
330
17
100
AcDbEntity
  8
presilha
 62
7
370
25
100
AcDbLine
 10
3232.4156109854457
 20
6728.103150390725
 30
0.0
 11
3232.4156109854457
 21
6727.103150390725
 31
0.0
  0
LINE
  5
5C
330
17
100
AcDbEntity
  8
presilha
 62
7
370
25
100
AcDbLine
 10
3249.4159754897996
 20
6721.436483724059
 30
0.0
 11
3230.7959754898
 21
6721.436483724059
 31
0.0
  0
LINE
  5
5D
330
17
100
AcDbEntity
  8
presilha
 62
7
370
25
100
AcDbLine
 10
3229.4159754897996
 20
6721.196483724058
 30
0.0
 11
3229.4156109854457
 21
6727.343150390729
 31
0.0
  0
LINE
  5
5E
330
17
100
AcDbEntity
  8
presilha
 62
7
370
25
100
AcDbLine
 10
3230.415975489799
 20
6721.816483724058
 30
0.0
 11
3230.4156109854457
 21
6726.723150390726
 31
0.0
  0
LINE
  5
5F
330
17
100
AcDbEntity
  8
presilha
 62
7
370
25
100
AcDbLine
 10
3232.4156109854457
 20
6728.103150390725
 30
0.0
 11
3230.175610985426
 21
6728.103150390725
 31
0.0
  0
LINE
  5
60
330
17
100
AcDbEntity
  8
presilha
 62
7
370
25
100
AcDbLine
 10
3232.4156109854457
 20
6727.103150390725
 30
0.0
 11
3230.7956109854463
 21
6727.103150390725
 31
0.0
  0
LINE
  5
61
330
17
100
AcDbEntity
  8
presilha
 62
7
370
25
100
AcDbLine
 10
3224.415610985447
 20
6722.769817057395
 30
0.0
 11
3228.415610985447
 21
6722.769817057395
 31
0.0
  0
LINE
  5
62
330
17
100
AcDbEntity
  8
presilha
 62
7
370
25
100
AcDbLine
 10
3228.415610985447
 20
6722.769817057395
 30
0.0
 11
3228.415610985447
 21
6714.103150390728
 31
0.0
  0
LINE
  5
63
330
17
100
AcDbEntity
  8
presilha
 62
7
370
25
100
AcDbLine
 10
3228.415610985447
 20
6714.103150390728
 30
0.0
 11
3224.415610985447
 21
6714.103150390728
 31
0.0
  0
LINE
  5
64
330
17
100
AcDbEntity
  8
presilha
 62
7
370
25
100
AcDbLine
 10
3224.415610985447
 20
6722.769817057395
 30
0.0
 11
3224.415610985447
 21
6714.103150390728
 31
0.0
  0
LINE
  5
65
330
17
100
AcDbEntity
  8
presilha
 62
7
370
25
100
AcDbLine
 10
3331.1503737588832
 20
6721.436483724059
 30
0.0
 11
3331.1503737588832
 21
6716.836643724073
 31
0.0
  0
LINE
  5
66
330
17
100
AcDbEntity
  8
presilha
 62
7
370
25
100
AcDbLine
 10
3331.1503737588832
 20
6716.836643724073
 30
0.0
 11
3351.1507382632353
 21
6716.836643724066
 31
0.0
  0
LINE
  5
67
330
17
100
AcDbEntity
  8
presilha
 62
7
370
25
100
AcDbLine
 10
3352.1507382632353
 20
6724.436483724059
 30
0.0
 11
3351.1507382632353
 21
6724.436483724059
 31
0.0
  0
LINE
  5
68
330
17
100
AcDbEntity
  8
presilha
 62
7
370
25
100
AcDbLine
 10
3351.1507382632353
 20
6724.436483724059
 30
0.0
 11
3351.1507382632353
 21
6712.436483724059
 31
0.0
  0
LINE
  5
69
330
17
100
AcDbEntity
  8
presilha
 62
7
370
25
100
AcDbLine
 10
3351.1507382632353
 20
6712.436483724059
 30
0.0
 11
3352.1507382632353
 21
6712.436483724059
 31
0.0
  0
LINE
  5
6A
330
17
100
AcDbEntity
  8
presilha
 62
7
370
25
100
AcDbLine
 10
3352.1507382632353
 20
6712.436483724059
 30
0.0
 11
3352.1507382632353
 21
6724.436483724059
 31
0.0
  0
LINE
  5
6B
330
17
100
AcDbEntity
  8
presilha
 62
7
370
25
100
AcDbLine
 10
3348.150738263237
 20
6728.103150390725
 30
0.0
 11
3348.150738263237
 21
6727.103150390725
 31
0.0
  0
LINE
  5
6C
330
17
100
AcDbEntity
  8
presilha
 62
7
370
25
100
AcDbLine
 10
3331.1503737588832
 20
6721.436483724059
 30
0.0
 11
3349.7703737588827
 21
6721.436483724059
 31
0.0
  0
LINE
  5
6D
330
17
100
AcDbEntity
  8
presilha
 62
7
370
25
100
AcDbLine
 10
3351.1503737588832
 20
6721.196483724058
 30
0.0
 11
3351.150738263237
 21
6727.343150390729
 31
0.0
  0
LINE
  5
6E
330
17
100
AcDbEntity
  8
presilha
 62
7
370
25
100
AcDbLine
 10
3350.1503737588837
 20
6721.816483724058
 30
0.0
 11
3350.150738263237
 21
6726.723150390726
 31
0.0
  0
LINE
  5
6F
330
17
100
AcDbEntity
  8
presilha
 62
7
370
25
100
AcDbLine
 10
3348.150738263237
 20
6728.103150390725
 30
0.0
 11
3350.390738263257
 21
6728.103150390725
 31
0.0
  0
LINE
  5
70
330
17
100
AcDbEntity
  8
presilha
 62
7
370
25
100
AcDbLine
 10
3348.150738263237
 20
6727.103150390725
 30
0.0
 11
3349.7707382632366
 21
6727.103150390725
 31
0.0
  0
LINE
  5
71
330
17
100
AcDbEntity
  8
presilha
 62
7
370
25
100
AcDbLine
 10
3356.150738263236
 20
6722.769817057395
 30
0.0
 11
3352.150738263236
 21
6722.769817057395
 31
0.0
  0
LINE
  5
72
330
17
100
AcDbEntity
  8
presilha
 62
7
370
25
100
AcDbLine
 10
3352.150738263236
 20
6722.769817057395
 30
0.0
 11
3352.150738263236
 21
6714.103150390728
 31
0.0
  0
LINE
  5
73
330
17
100
AcDbEntity
  8
presilha
 62
7
370
25
100
AcDbLine
 10
3352.150738263236
 20
6714.103150390728
 30
0.0
 11
3356.150738263236
 21
6714.103150390728
 31
0.0
  0
LINE
  5
74
330
17
100
AcDbEntity
  8
presilha
 62
7
370
25
100
AcDbLine
 10
3356.150738263236
 20
6722.769817057395
 30
0.0
 11
3356.150738263236
 21
6714.103150390728
 31
0.0
  0
LINE
  5
75
330
17
100
AcDbEntity
  8
0
 62
7
370
25
100
AcDbLine
 10
3223.283174624312
 20
6778.03987458565
 30
0.0
 11
3223.283174624312
 21
6766.03987458565
 31
0.0
  0
LINE
  5
76
330
17
100
AcDbEntity
  8
0
 62
7
370
25
100
AcDbLine
 10
3359.283174624341
 20
6775.039874585664
 30
0.0
 11
3359.283174624341
 21
6769.039874585664
 31
0.0
  0
LINE
  5
77
330
17
100
AcDbEntity
  8
0
 62
7
370
25
100
AcDbLine
 10
3357.283174624341
 20
6778.039874585664
 30
0.0
 11
3357.283174624341
 21
6766.039874585665
 31
0.0
  0
LINE
  5
78
330
17
100
AcDbEntity
  8
0
 62
7
370
25
100
AcDbLine
 10
3357.283174624341
 20
6769.039874585664
 30
0.0
 11
3359.283174624341
 21
6769.039874585664
 31
0.0
  0
LINE
  5
79
330
17
100
AcDbEntity
  8
0
 62
7
370
25
100
AcDbLine
 10
3223.283174624312
 20
6766.03987458565
 30
0.0
 11
3253.283174624312
 21
6766.03987458565
 31
0.0
  0
LINE
  5
7A
330
17
100
AcDbEntity
  8
0
 62
7
370
25
100
AcDbLine
 10
3327.283174624341
 20
6771.039874585665
 30
0.0
 11
3357.283174624341
 21
6771.039874585665
 31
0.0
  0
LINE
  5
7B
330
17
100
AcDbEntity
  8
0
 62
7
370
25
100
AcDbLine
 10
3327.283174624341
 20
6773.039874585665
 30
0.0
 11
3357.283174624341
 21
6773.039874585665
 31
0.0
  0
LINE
  5
7C
330
17
100
AcDbEntity
  8
TENSOR
 62
7
370
25
100
AcDbLine
 10
3362.283174624341
 20
6772.03987458565
 30
0.0
 11
3217.979880446214
 21
6772.03987458565
 31
0.0
  0
LINE
  5
7D
330
17
100
AcDbEntity
  8
0
 62
7
370
25
100
AcDbLine
 10
3357.283174624341
 20
6775.039874585664
 30
0.0
 11
3359.283174624341
 21
6775.039874585664
 31
0.0
  0
LINE
  5
7E
330
17
100
AcDbEntity
  8
0
 62
7
370
25
100
AcDbLine
 10
3253.283174624312
 20
6771.039874585651
 30
0.0
 11
3223.283174624312
 21
6771.039874585651
 31
0.0
  0
LINE
  5
7F
330
17
100
AcDbEntity
  8
0
 62
7
370
25
100
AcDbLine
 10
3253.283174624312
 20
6773.03987458565
 30
0.0
 11
3223.283174624312
 21
6773.03987458565
 31
0.0
  0
LINE
  5
80
330
17
100
AcDbEntity
  8
0
 62
7
370
25
100
AcDbLine
 10
3223.283174624312
 20
6778.03987458565
 30
0.0
 11
3253.283174624312
 21
6778.03987458565
 31
0.0
  0
LINE
  5
81
330
17
100
AcDbEntity
  8
0
 62
7
370
25
100
AcDbLine
 10
3357.283174624341
 20
6766.039874585665
 30
0.0
 11
3327.283174624341
 21
6766.039874585665
 31
0.0
  0
LINE
  5
82
330
17
100
AcDbEntity
  8
0
 62
7
370
25
100
AcDbLine
 10
3357.283174624341
 20
6778.039874585664
 30
0.0
 11
3327.283174624341
 21
6778.039874585664
 31
0.0
  0
LINE
  5
83
330
17
100
AcDbEntity
  8
0
 62
7
370
25
100
AcDbLine
 10
3221.283174624312
 20
6775.03987458565
 30
0.0
 11
3221.283174624312
 21
6769.03987458565
 31
0.0
  0
LINE
  5
84
330
17
100
AcDbEntity
  8
0
 62
7
370
25
100
AcDbLine
 10
3223.283174624312
 20
6769.03987458565
 30
0.0
 11
3221.283174624312
 21
6769.03987458565
 31
0.0
  0
LINE
  5
85
330
17
100
AcDbEntity
  8
0
 62
7
370
25
100
AcDbLine
 10
3221.283174624312
 20
6775.03987458565
 30
0.0
 11
3223.283174624312
 21
6775.03987458565
 31
0.0
  0
LINE
  5
86
330
17
100
AcDbEntity
  8
presilha
 62
7
370
25
100
AcDbLine
 10
3578.0411123767603
 20
6721.436483724059
 30
0.0
 11
3578.0411123767603
 21
6716.836643724073
 31
0.0
  0
LINE
  5
87
330
17
100
AcDbEntity
  8
presilha
 62
7
370
25
100
AcDbLine
 10
3578.0411123767603
 20
6716.836643724073
 30
0.0
 11
3598.0414768811124
 21
6716.836643724066
 31
0.0
  0
LINE
  5
88
330
17
100
AcDbEntity
  8
presilha
 62
7
370
25
100
AcDbLine
 10
3599.0414768811124
 20
6724.436483724059
 30
0.0
 11
3598.0414768811124
 21
6724.436483724059
 31
0.0
  0
LINE
  5
89
330
17
100
AcDbEntity
  8
presilha
 62
7
370
25
100
AcDbLine
 10
3598.0414768811124
 20
6724.436483724059
 30
0.0
 11
3598.0414768811124
 21
6712.436483724059
 31
0.0
  0
LINE
  5
8A
330
17
100
AcDbEntity
  8
presilha
 62
7
370
25
100
AcDbLine
 10
3598.0414768811124
 20
6712.436483724059
 30
0.0
 11
3599.0414768811124
 21
6712.436483724059
 31
0.0
  0
LINE
  5
8B
330
17
100
AcDbEntity
  8
presilha
 62
7
370
25
100
AcDbLine
 10
3599.0414768811124
 20
6712.436483724059
 30
0.0
 11
3599.0414768811124
 21
6724.436483724059
 31
0.0
  0
LINE
  5
8C
330
17
100
AcDbEntity
  8
presilha
 62
7
370
25
100
AcDbLine
 10
3595.0414768811142
 20
6728.103150390725
 30
0.0
 11
3595.0414768811142
 21
6727.103150390725
 31
0.0
  0
LINE
  5
8D
330
17
100
AcDbEntity
  8
presilha
 62
7
370
25
100
AcDbLine
 10
3578.0411123767603
 20
6721.436483724059
 30
0.0
 11
3596.66111237676
 21
6721.436483724059
 31
0.0
  0
LINE
  5
8E
330
17
100
AcDbEntity
  8
presilha
 62
7
370
25
100
AcDbLine
 10
3598.0411123767603
 20
6721.196483724058
 30
0.0
 11
3598.0414768811142
 21
6727.343150390729
 31
0.0
  0
LINE
  5
8F
330
17
100
AcDbEntity
  8
presilha
 62
7
370
25
100
AcDbLine
 10
3597.041112376761
 20
6721.816483724058
 30
0.0
 11
3597.0414768811142
 21
6726.723150390726
 31
0.0
  0
LINE
  5
90
330
17
100
AcDbEntity
  8
presilha
 62
7
370
25
100
AcDbLine
 10
3595.0414768811142
 20
6728.103150390725
 30
0.0
 11
3597.281476881134
 21
6728.103150390725
 31
0.0
  0
LINE
  5
91
330
17
100
AcDbEntity
  8
presilha
 62
7
370
25
100
AcDbLine
 10
3595.0414768811142
 20
6727.103150390725
 30
0.0
 11
3596.6614768811137
 21
6727.103150390725
 31
0.0
  0
LINE
  5
92
330
17
100
AcDbEntity
  8
presilha
 62
7
370
25
100
AcDbLine
 10
3603.041476881113
 20
6722.769817057395
 30
0.0
 11
3599.041476881113
 21
6722.769817057395
 31
0.0
  0
LINE
  5
93
330
17
100
AcDbEntity
  8
presilha
 62
7
370
25
100
AcDbLine
 10
3599.041476881113
 20
6722.769817057395
 30
0.0
 11
3599.041476881113
 21
6714.103150390728
 31
0.0
  0
LINE
  5
94
330
17
100
AcDbEntity
  8
presilha
 62
7
370
25
100
AcDbLine
 10
3599.041476881113
 20
6714.103150390728
 30
0.0
 11
3603.041476881113
 21
6714.103150390728
 31
0.0
  0
LINE
  5
95
330
17
100
AcDbEntity
  8
presilha
 62
7
370
25
100
AcDbLine
 10
3603.041476881113
 20
6722.769817057395
 30
0.0
 11
3603.041476881113
 21
6714.103150390728
 31
0.0
  0
LINE
  5
96
330
17
100
AcDbEntity
  8
presilha
 62
7
370
25
100
AcDbLine
 10
3496.3067141076776
 20
6721.436483724059
 30
0.0
 11
3496.3067141076776
 21
6716.836643724073
 31
0.0
  0
LINE
  5
97
330
17
100
AcDbEntity
  8
presilha
 62
7
370
25
100
AcDbLine
 10
3496.3067141076776
 20
6716.836643724073
 30
0.0
 11
3476.3063496033255
 21
6716.836643724066
 31
0.0
  0
LINE
  5
98
330
17
100
AcDbEntity
  8
presilha
 62
7
370
25
100
AcDbLine
 10
3475.3063496033255
 20
6724.436483724059
 30
0.0
 11
3476.3063496033255
 21
6724.436483724059
 31
0.0
  0
LINE
  5
99
330
17
100
AcDbEntity
  8
presilha
 62
7
370
25
100
AcDbLine
 10
3476.3063496033255
 20
6724.436483724059
 30
0.0
 11
3476.3063496033255
 21
6712.436483724059
 31
0.0
  0
LINE
  5
9A
330
17
100
AcDbEntity
  8
presilha
 62
7
370
25
100
AcDbLine
 10
3476.3063496033255
 20
6712.436483724059
 30
0.0
 11
3475.3063496033255
 21
6712.436483724059
 31
0.0
  0
LINE
  5
9B
330
17
100
AcDbEntity
  8
presilha
 62
7
370
25
100
AcDbLine
 10
3475.3063496033255
 20
6712.436483724059
 30
0.0
 11
3475.3063496033255
 21
6724.436483724059
 31
0.0
  0
LINE
  5
9C
330
17
100
AcDbEntity
  8
presilha
 62
7
370
25
100
AcDbLine
 10
3479.3063496033237
 20
6728.103150390725
 30
0.0
 11
3479.3063496033237
 21
6727.103150390725
 31
0.0
  0
LINE
  5
9D
330
17
100
AcDbEntity
  8
presilha
 62
7
370
25
100
AcDbLine
 10
3496.3067141076776
 20
6721.436483724059
 30
0.0
 11
3477.686714107678
 21
6721.436483724059
 31
0.0
  0
LINE
  5
9E
330
17
100
AcDbEntity
  8
presilha
 62
7
370
25
100
AcDbLine
 10
3476.3067141076776
 20
6721.196483724058
 30
0.0
 11
3476.3063496033237
 21
6727.343150390729
 31
0.0
  0
LINE
  5
9F
330
17
100
AcDbEntity
  8
presilha
 62
7
370
25
100
AcDbLine
 10
3477.306714107677
 20
6721.816483724058
 30
0.0
 11
3477.3063496033237
 21
6726.723150390726
 31
0.0
  0
LINE
  5
A0
330
17
100
AcDbEntity
  8
presilha
 62
7
370
25
100
AcDbLine
 10
3479.3063496033237
 20
6728.103150390725
 30
0.0
 11
3477.066349603304
 21
6728.103150390725
 31
0.0
  0
LINE
  5
A1
330
17
100
AcDbEntity
  8
presilha
 62
7
370
25
100
AcDbLine
 10
3479.3063496033237
 20
6727.103150390725
 30
0.0
 11
3477.6863496033243
 21
6727.103150390725
 31
0.0
  0
LINE
  5
A2
330
17
100
AcDbEntity
  8
presilha
 62
7
370
25
100
AcDbLine
 10
3471.306349603325
 20
6722.769817057395
 30
0.0
 11
3475.306349603325
 21
6722.769817057395
 31
0.0
  0
LINE
  5
A3
330
17
100
AcDbEntity
  8
presilha
 62
7
370
25
100
AcDbLine
 10
3475.306349603325
 20
6722.769817057395
 30
0.0
 11
3475.306349603325
 21
6714.103150390728
 31
0.0
  0
LINE
  5
A4
330
17
100
AcDbEntity
  8
presilha
 62
7
370
25
100
AcDbLine
 10
3475.306349603325
 20
6714.103150390728
 30
0.0
 11
3471.306349603325
 21
6714.103150390728
 31
0.0
  0
LINE
  5
A5
330
17
100
AcDbEntity
  8
presilha
 62
7
370
25
100
AcDbLine
 10
3471.306349603325
 20
6722.769817057395
 30
0.0
 11
3471.306349603325
 21
6714.103150390728
 31
0.0
  0
LINE
  5
A6
330
17
100
AcDbEntity
  8
0
 62
7
370
25
100
AcDbLine
 10
3604.173913242249
 20
6778.03987458565
 30
0.0
 11
3604.173913242249
 21
6766.03987458565
 31
0.0
  0
LINE
  5
A7
330
17
100
AcDbEntity
  8
0
 62
7
370
25
100
AcDbLine
 10
3468.173913242219
 20
6775.039874585664
 30
0.0
 11
3468.173913242219
 21
6769.039874585664
 31
0.0
  0
LINE
  5
A8
330
17
100
AcDbEntity
  8
0
 62
7
370
25
100
AcDbLine
 10
3470.173913242219
 20
6778.039874585664
 30
0.0
 11
3470.173913242219
 21
6766.039874585665
 31
0.0
  0
LINE
  5
A9
330
17
100
AcDbEntity
  8
0
 62
7
370
25
100
AcDbLine
 10
3470.173913242219
 20
6769.039874585664
 30
0.0
 11
3468.173913242219
 21
6769.039874585664
 31
0.0
  0
LINE
  5
AA
330
17
100
AcDbEntity
  8
0
 62
7
370
25
100
AcDbLine
 10
3604.173913242249
 20
6766.03987458565
 30
0.0
 11
3574.173913242248
 21
6766.03987458565
 31
0.0
  0
LINE
  5
AB
330
17
100
AcDbEntity
  8
0
 62
7
370
25
100
AcDbLine
 10
3500.173913242219
 20
6771.039874585665
 30
0.0
 11
3470.173913242219
 21
6771.039874585665
 31
0.0
  0
LINE
  5
AC
330
17
100
AcDbEntity
  8
0
 62
7
370
25
100
AcDbLine
 10
3500.173913242219
 20
6773.039874585665
 30
0.0
 11
3470.173913242219
 21
6773.039874585665
 31
0.0
  0
LINE
  5
AD
330
17
100
AcDbEntity
  8
TENSOR
 62
7
370
25
100
AcDbLine
 10
3465.17391324222
 20
6772.03987458565
 30
0.0
 11
3609.477207420347
 21
6772.03987458565
 31
0.0
  0
LINE
  5
AE
330
17
100
AcDbEntity
  8
0
 62
7
370
25
100
AcDbLine
 10
3470.173913242219
 20
6775.039874585664
 30
0.0
 11
3468.173913242219
 21
6775.039874585664
 31
0.0
  0
LINE
  5
AF
330
17
100
AcDbEntity
  8
0
 62
7
370
25
100
AcDbLine
 10
3574.173913242248
 20
6771.039874585651
 30
0.0
 11
3604.173913242249
 21
6771.039874585651
 31
0.0
  0
LINE
  5
B0
330
17
100
AcDbEntity
  8
0
 62
7
370
25
100
AcDbLine
 10
3574.173913242248
 20
6773.03987458565
 30
0.0
 11
3604.173913242249
 21
6773.03987458565
 31
0.0
  0
LINE
  5
B1
330
17
100
AcDbEntity
  8
0
 62
7
370
25
100
AcDbLine
 10
3604.173913242249
 20
6778.03987458565
 30
0.0
 11
3574.173913242248
 21
6778.03987458565
 31
0.0
  0
LINE
  5
B2
330
17
100
AcDbEntity
  8
0
 62
7
370
25
100
AcDbLine
 10
3470.173913242219
 20
6766.039874585665
 30
0.0
 11
3500.173913242219
 21
6766.039874585665
 31
0.0
  0
LINE
  5
B3
330
17
100
AcDbEntity
  8
0
 62
7
370
25
100
AcDbLine
 10
3470.173913242219
 20
6778.039874585664
 30
0.0
 11
3500.173913242219
 21
6778.039874585664
 31
0.0
  0
LINE
  5
B4
330
17
100
AcDbEntity
  8
0
 62
7
370
25
100
AcDbLine
 10
3606.173913242248
 20
6775.03987458565
 30
0.0
 11
3606.173913242248
 21
6769.03987458565
 31
0.0
  0
LINE
  5
B5
330
17
100
AcDbEntity
  8
0
 62
7
370
25
100
AcDbLine
 10
3604.173913242249
 20
6769.03987458565
 30
0.0
 11
3606.173913242248
 21
6769.03987458565
 31
0.0
  0
LINE
  5
B6
330
17
100
AcDbEntity
  8
0
 62
7
370
25
100
AcDbLine
 10
3606.173913242248
 20
6775.03987458565
 30
0.0
 11
3604.173913242249
 21
6775.03987458565
 31
0.0
  0
LINE
  5
B7
330
17
100
AcDbEntity
  8
SARR_2.2x7
 62
7
370
25
100
AcDbLine
 10
3159.488392032616
 20
6404.4018279588
 30
0.0
 11
3087.488392032613
 21
6404.40182795882
 31
0.0
  0
LINE
  5
B8
330
17
100
AcDbEntity
  8
SARR_3.5x7
 62
7
370
25
100
AcDbLine
 10
3159.488392032617
 20
6406.601827958812
 30
0.0
 11
3159.488392032614
 21
6342.601827958797
 31
0.0
  0
LINE
  5
B9
330
17
100
AcDbEntity
  8
SARR_3.5x7
 62
7
370
25
100
AcDbLine
 10
3155.988392032616
 20
6404.401827958814
 30
0.0
 11
3155.988392032614
 21
6342.601827958797
 31
0.0
  0
LINE
  5
BA
330
17
100
AcDbEntity
  8
SARR_3.5x7
 62
7
370
25
100
AcDbLine
 10
3159.488392032614
 20
6342.601827958797
 30
0.0
 11
3155.988392032614
 21
6342.601827958797
 31
0.0
  0
LINE
  5
BB
330
17
100
AcDbEntity
  8
Painéis
 62
7
370
25
100
AcDbLine
 10
3159.488392032617
 20
6406.601827958812
 30
0.0
 11
3035.488392032616
 21
6406.601827958812
 31
0.0
  0
LINE
  5
BC
330
17
100
AcDbEntity
  8
Painéis
 62
7
370
25
100
AcDbLine
 10
3181.488392032612
 20
6342.601827958811
 30
0.0
 11
3035.488392032612
 21
6342.601827958811
 31
0.0
  0
LINE
  5
BD
330
17
100
AcDbEntity
  8
Painéis
 62
7
370
25
100
AcDbLine
 10
3035.488392032612
 20
6342.601827958826
 30
0.0
 11
3035.488392032616
 21
6406.601827958827
 31
0.0
  0
LINE
  5
BE
330
17
100
AcDbEntity
  8
Painéis
 62
7
370
25
100
AcDbLine
 10
3181.488392032612
 20
6342.601827958811
 30
0.0
 11
3181.488392032613
 21
6352.60182795881
 31
0.0
  0
LINE
  5
BF
330
17
100
AcDbEntity
  8
SARR_3.5x7
 62
7
370
25
100
AcDbLine
 10
3090.988392032643
 20
6404.401827958858
 30
0.0
 11
3090.988392032674
 21
6342.601827958811
 31
0.0
  0
LINE
  5
C0
330
17
100
AcDbEntity
  8
SARR_3.5x7
 62
7
370
25
100
AcDbLine
 10
3087.488392032614
 20
6404.401827958814
 30
0.0
 11
3087.488392032616
 21
6342.601827958826
 31
0.0
  0
LINE
  5
C1
330
17
100
AcDbEntity
  8
Painéis
 62
7
370
25
100
AcDbLine
 10
3087.488392032616
 20
6342.601827958811
 30
0.0
 11
3087.488392032612
 21
6406.601827958812
 31
0.0
  0
LINE
  5
C2
330
17
100
AcDbEntity
  8
SARR_2.2x7
 62
7
370
25
100
AcDbLine
 10
3632.488392032604
 20
6385.60182795878
 30
0.0
 11
3692.988392032609
 21
6385.601827958795
 31
0.0
  0
LINE
  5
C3
330
17
100
AcDbEntity
  8
SARR_2.2x7
 62
7
370
25
100
AcDbLine
 10
3692.988392032609
 20
6385.601827958795
 30
0.0
 11
3752.988392032608
 21
6385.601827958471
 31
0.0
  0
LINE
  5
C4
330
17
100
AcDbEntity
  8
SARR_3.5x7
 62
7
370
25
100
AcDbLine
 10
3693.48839203261
 20
6390.4018279588
 30
0.0
 11
3693.488392032612
 21
6342.601827958811
 31
0.0
  0
LINE
  5
C5
330
17
100
AcDbEntity
  8
SARR_3.5x7
 62
7
370
25
100
AcDbLine
 10
3689.988392032525
 20
6342.601827958797
 30
0.0
 11
3693.488392032612
 21
6342.601827958797
 31
0.0
  0
LINE
  5
C6
330
17
100
AcDbEntity
  8
SARR_3.5x7
 62
7
370
25
100
AcDbLine
 10
3693.488392032612
 20
6342.601827958797
 30
0.0
 11
3696.98839203267
 21
6342.601827958797
 31
0.0
  0
LINE
  5
C7
330
17
100
AcDbEntity
  8
Painéis
 62
7
370
25
100
AcDbLine
 10
3605.488392032612
 20
6342.601827958783
 30
0.0
 11
3753.488392032612
 21
6342.601827958808
 31
0.0
  0
LINE
  5
C8
330
17
100
AcDbEntity
  8
Painéis
 62
7
370
25
100
AcDbLine
 10
3693.488392032612
 20
6342.601827958797
 30
0.0
 11
3693.488392032609
 21
6392.601827958797
 31
0.0
  0
LINE
  5
C9
330
17
100
AcDbEntity
  8
Painéis
 62
7
370
25
100
AcDbLine
 10
3753.488392032612
 20
6342.601827958808
 30
0.0
 11
3753.488392032608
 21
6392.601827958808
 31
0.0
  0
LINE
  5
CA
330
17
100
AcDbEntity
  8
Painéis
 62
7
370
25
100
AcDbLine
 10
3605.488392032612
 20
6342.601827958783
 30
0.0
 11
3605.488392032608
 21
6352.601827958784
 31
0.0
  0
LINE
  5
CB
330
17
100
AcDbEntity
  8
COTA
 62
7
370
25
100
AcDbLine
 10
3605.488392032607
 20
6352.601827958784
 30
0.0
 11
3605.488392032607
 21
6406.601827958782
 31
0.0
  0
LINE
  5
CC
330
17
100
AcDbEntity
  8
COTA
 62
7
370
25
100
AcDbLine
 10
3605.488392032607
 20
6406.601827958782
 30
0.0
 11
3753.488392032607
 21
6406.601827958782
 31
0.0
  0
LINE
  5
CD
330
17
100
AcDbEntity
  8
COTA
 62
7
370
25
100
AcDbLine
 10
3753.488392032607
 20
6406.601827958782
 30
0.0
 11
3753.488392032608
 21
6392.601827958808
 31
0.0
  0
LINE
  5
CE
330
17
100
AcDbEntity
  8
SARR_2.2x7
 62
7
370
25
100
AcDbLine
 10
3639.488392032612
 20
6342.60182795878
 30
0.0
 11
3639.488392032612
 21
6385.601827958783
 31
0.0
  0
LINE
  5
CF
330
17
100
AcDbEntity
  8
SARR_3.5x7
 62
7
370
25
100
AcDbLine
 10
3273.974483536316
 20
6617.498915234932
 30
0.0
 11
3273.974483536286
 21
6555.698915234886
 31
0.0
  0
LINE
  5
D0
330
17
100
AcDbEntity
  8
SARR_2.2x7
 62
7
370
25
100
AcDbLine
 10
3418.474483536343
 20
6612.698915234853
 30
0.0
 11
3328.474483536347
 21
6612.698915234862
 31
0.0
  0
LINE
  5
D1
330
17
100
AcDbEntity
  8
SARR_3.5x7
 62
7
370
25
100
AcDbLine
 10
3418.474483536343
 20
6619.698915234853
 30
0.0
 11
3418.474483536346
 21
6555.698915234839
 31
0.0
  0
LINE
  5
D2
330
17
100
AcDbEntity
  8
SARR_3.5x7
 62
7
370
25
100
AcDbLine
 10
3421.974483536344
 20
6617.498915234856
 30
0.0
 11
3421.974483536347
 21
6555.698915234839
 31
0.0
  0
LINE
  5
D3
330
17
100
AcDbEntity
  8
SARR_3.5x7
 62
7
370
25
100
AcDbLine
 10
3328.474483536347
 20
6619.698915234853
 30
0.0
 11
3328.474483536343
 21
6555.698915234839
 31
0.0
  0
LINE
  5
D4
330
17
100
AcDbEntity
  8
SARR_3.5x7
 62
7
370
25
100
AcDbLine
 10
3324.974483536345
 20
6617.498915234856
 30
0.0
 11
3324.974483536344
 21
6555.698915234839
 31
0.0
  0
LINE
  5
D5
330
17
100
AcDbEntity
  8
SARR_3.5x7
 62
7
370
25
100
AcDbLine
 10
3304.801229573298
 20
6617.498915234881
 30
0.0
 11
3304.801229573295
 21
6555.698915234879
 31
0.0
  0
LINE
  5
D6
330
17
100
AcDbEntity
  8
SARR_3.5x7
 62
7
370
25
100
AcDbLine
 10
3301.301229573296
 20
6617.498915234896
 30
0.0
 11
3301.301229573294
 21
6555.698915234879
 31
0.0
  0
LINE
  5
D7
330
17
100
AcDbEntity
  8
SARR_2.2x7
 62
7
370
25
100
AcDbLine
 10
3765.474483536347
 20
6612.698915234857
 30
0.0
 11
3679.474483536348
 21
6612.698915234862
 31
0.0
  0
LINE
  5
D8
330
17
100
AcDbEntity
  8
SARR_3.5x7
 62
7
370
25
100
AcDbLine
 10
3679.474483536348
 20
6619.698915234855
 30
0.0
 11
3679.474483536344
 21
6555.698915234841
 31
0.0
  0
LINE
  5
D9
330
17
100
AcDbEntity
  8
SARR_3.5x7
 62
7
370
25
100
AcDbLine
 10
3675.974483536346
 20
6617.498915234858
 30
0.0
 11
3675.974483536343
 21
6555.698915234841
 31
0.0
  0
LINE
  5
DA
330
17
100
AcDbEntity
  8
SARR_2.2x7
 62
7
370
25
100
AcDbLine
 10
3758.474483536344
 20
6555.698348189554
 30
0.0
 11
3758.474483536344
 21
6619.698915234874
 31
0.0
  0
LINE
  5
DB
330
17
100
AcDbEntity
  8
SARR_2.2x7
 62
7
370
25
100
AcDbLine
 10
3035.488392032616
 20
6399.601827958826
 30
0.0
 11
3087.488392032612
 21
6399.601827958811
 31
0.0
  0
LINE
  5
DC
330
17
100
AcDbEntity
  8
SARR_2.2x7
 62
7
370
25
100
AcDbLine
 10
3181.488392032617
 20
6404.401827958813
 30
0.0
 11
3348.488392032613
 21
6404.401827958821
 31
0.0
  0
LINE
  5
DD
330
17
100
AcDbEntity
  8
SARR_2.2x7
 62
7
370
25
100
AcDbLine
 10
3438.488392032609
 20
6404.401827958574
 30
0.0
 11
3590.9335327918
 21
6404.401827958583
 31
0.0
  0
LINE
  5
DE
330
17
100
AcDbEntity
  8
SARR_3.5x7
 62
7
370
25
100
AcDbLine
 10
3425.48839203261
 20
6404.401827958828
 30
0.0
 11
3425.488392032612
 21
6342.60182795884
 31
0.0
  0
LINE
  5
DF
330
17
100
AcDbEntity
  8
SARR_3.5x7
 62
7
370
25
100
AcDbLine
 10
3421.988392032524
 20
6342.601827958826
 30
0.0
 11
3425.488392032612
 21
6342.601827958826
 31
0.0
  0
LINE
  5
E0
330
17
100
AcDbEntity
  8
SARR_3.5x7
 62
7
370
25
100
AcDbLine
 10
3425.488392032612
 20
6342.601827958826
 30
0.0
 11
3428.98839203267
 21
6342.601827958826
 31
0.0
  0
LINE
  5
E1
330
17
100
AcDbEntity
  8
Painéis
 62
7
370
25
100
AcDbLine
 10
3181.488392032607
 20
6406.601827958811
 30
0.0
 11
3605.488392032608
 21
6406.601827958836
 31
0.0
  0
LINE
  5
E2
330
17
100
AcDbEntity
  8
Painéis
 62
7
370
25
100
AcDbLine
 10
3181.488392032612
 20
6342.601827958811
 30
0.0
 11
3605.488392032612
 21
6342.601827958836
 31
0.0
  0
LINE
  5
E3
330
17
100
AcDbEntity
  8
Painéis
 62
7
370
25
100
AcDbLine
 10
3425.488392032612
 20
6342.601827958826
 30
0.0
 11
3425.488392032609
 21
6406.601827958825
 31
0.0
  0
LINE
  5
E4
330
17
100
AcDbEntity
  8
Painéis
 62
7
370
25
100
AcDbLine
 10
3605.488392032612
 20
6342.601827958836
 30
0.0
 11
3605.488392032608
 21
6406.601827958836
 31
0.0
  0
LINE
  5
E5
330
17
100
AcDbEntity
  8
Painéis
 62
7
370
25
100
AcDbLine
 10
3181.488392032612
 20
6342.601827958811
 30
0.0
 11
3181.488392032609
 21
6406.601827958811
 31
0.0
  0
LINE
  5
E6
330
17
100
AcDbEntity
  8
SARR_3.5x7
 62
7
370
25
100
AcDbLine
 10
3181.488392032618
 20
6406.601827958827
 30
0.0
 11
3181.48839203262
 21
6342.60182795881
 31
0.0
  0
LINE
  5
E7
330
17
100
AcDbEntity
  8
SARR_3.5x7
 62
7
370
25
100
AcDbLine
 10
3184.988392032619
 20
6404.401827958832
 30
0.0
 11
3184.98839203262
 21
6342.601827958811
 31
0.0
  0
LINE
  5
E8
330
17
100
AcDbEntity
  8
SARR_2.2x7
 62
7
370
25
100
AcDbLine
 10
3598.933532791797
 20
6342.601827958834
 30
0.0
 11
3598.933532791799
 21
6406.601827958812
 31
0.0
  0
LINE
  5
E9
330
17
100
AcDbEntity
  8
SARR_3.5x7
 62
7
370
25
100
AcDbLine
 10
3590.933532791799
 20
6406.601827958827
 30
0.0
 11
3590.933532791797
 21
6342.601827958834
 31
0.0
  0
LINE
  5
EA
330
17
100
AcDbEntity
  8
SARR_3.5x7
 62
7
370
25
100
AcDbLine
 10
3587.433532791797
 20
6404.40182795883
 30
0.0
 11
3587.433532791796
 21
6342.601827958834
 31
0.0
  0
LINE
  5
EB
330
17
100
AcDbEntity
  8
SARR_2.2x7
 62
7
370
25
100
AcDbLine
 10
3438.488392032609
 20
6399.601827958822
 30
0.0
 11
3348.488392032613
 21
6399.601827958829
 31
0.0
  0
LINE
  5
EC
330
17
100
AcDbEntity
  8
SARR_3.5x7
 62
7
370
25
100
AcDbLine
 10
3438.488392032609
 20
6406.601827958822
 30
0.0
 11
3438.488392032612
 21
6342.601827958807
 31
0.0
  0
LINE
  5
ED
330
17
100
AcDbEntity
  8
SARR_3.5x7
 62
7
370
25
100
AcDbLine
 10
3441.98839203261
 20
6404.401827958825
 30
0.0
 11
3441.988392032611
 21
6342.601827958807
 31
0.0
  0
LINE
  5
EE
330
17
100
AcDbEntity
  8
SARR_3.5x7
 62
7
370
25
100
AcDbLine
 10
3348.488392032613
 20
6406.601827958822
 30
0.0
 11
3348.488392032609
 21
6342.601827958807
 31
0.0
  0
LINE
  5
EF
330
17
100
AcDbEntity
  8
SARR_3.5x7
 62
7
370
25
100
AcDbLine
 10
3344.988392032611
 20
6404.401827958825
 30
0.0
 11
3344.98839203261
 21
6342.601827958807
 31
0.0
  0
LINE
  5
F0
330
17
100
AcDbEntity
  8
Painéis
 62
7
370
25
100
AcDbLine
 10
3159.488392032617
 20
6406.601827958812
 30
0.0
 11
3159.488392032617
 21
6352.601827958811
 31
0.0
  0
LINE
  5
F1
330
17
100
AcDbEntity
  8
Painéis
 62
7
370
25
100
AcDbLine
 10
3159.488392032617
 20
6352.601827958811
 30
0.0
 11
3181.488392032612
 21
6352.60182795881
 31
0.0
  0
LINE
  5
F2
330
17
100
AcDbEntity
  8
SARR_EDITAR
 62
7
370
25
100
AcDbLine
 10
3181.488392032613
 20
6347.601827958809
 30
0.0
 11
3159.488392032614
 21
6347.601827958811
 31
0.0
  0
LINE
  5
F3
330
17
100
AcDbEntity
  8
COTA
 62
7
370
25
100
AcDbLine
 10
3159.488392032617
 20
6406.601827958812
 30
0.0
 11
3181.488392032618
 21
6406.601827958812
 31
0.0
  0
LINE
  5
F4
330
17
100
AcDbEntity
  8
COTA
 62
7
370
25
100
AcDbLine
 10
3181.488392032618
 20
6406.601827958812
 30
0.0
 11
3181.488392032616
 21
6352.60182795881
 31
0.0
  0
LINE
  5
F5
330
17
100
AcDbEntity
  8
Painéis
 62
7
370
25
100
AcDbLine
 10
3605.488392032611
 20
6352.601827958782
 30
0.0
 11
3632.488392032612
 21
6352.601827958782
 31
0.0
  0
LINE
  5
F6
330
17
100
AcDbEntity
  8
Painéis
 62
7
370
25
100
AcDbLine
 10
3632.488392032612
 20
6352.601827958782
 30
0.0
 11
3632.488392032603
 21
6392.601827958788
 31
0.0
  0
LINE
  5
F7
330
17
100
AcDbEntity
  8
SARR_2.2x7
 62
7
370
25
100
AcDbLine
 10
3612.488392032612
 20
6342.601827958783
 30
0.0
 11
3612.488392032608
 21
6352.601827958784
 31
0.0
  0
LINE
  5
F8
330
17
100
AcDbEntity
  8
SARR_2.2x7
 62
7
370
25
100
AcDbLine
 10
3632.488392032612
 20
6342.60182795878
 30
0.0
 11
3632.488392032612
 21
6385.601827958783
 31
0.0
  0
LINE
  5
F9
330
17
100
AcDbEntity
  8
SARR_2.2x7
 62
7
370
25
100
AcDbLine
 10
3612.488392032611
 20
6347.601827958783
 30
0.0
 11
3632.488392032612
 21
6347.601827958783
 31
0.0
  0
LWPOLYLINE
  5
FA
330
17
100
AcDbEntity
  8
Painéis
 62
7
370
25
100
AcDbPolyline
 90
4
 70
1
 10
3267.283174624341
 20
6850.069817057359
 10
3271.283174624341
 20
6850.069817057359
 10
3271.283174624341
 20
6722.069817057358
 10
3267.283174624341
 20
6722.069817057358
  0
LWPOLYLINE
  5
FB
330
17
100
AcDbEntity
  8
Madeira
 62
7
370
25
100
AcDbPolyline
 90
4
 70
1
 10
3267.283174624341
 20
6845.669817057357
 10
3267.283174624341
 20
6850.069817057359
 10
3253.283174624341
 20
6850.069817057359
 10
3253.283174624341
 20
6845.669817057357
  0
LWPOLYLINE
  5
FC
330
17
100
AcDbEntity
  8
Madeira
 62
7
370
25
100
AcDbPolyline
 90
4
 70
1
 10
3233.283174624341
 20
6722.069817057358
 10
3233.283174624341
 20
6726.469817057353
 10
3253.283174624341
 20
6726.469817057353
 10
3253.283174624341
 20
6722.069817057358
  0
LWPOLYLINE
  5
FD
330
17
100
AcDbEntity
  8
Madeira
 62
7
370
25
100
AcDbPolyline
 90
4
 70
1
 10
3267.283174624341
 20
6850.069817057359
 10
3253.283174624341
 20
6850.069817057359
 10
3253.283174624341
 20
6722.069817057358
 10
3267.283174624341
 20
6722.069817057358
  0
LWPOLYLINE
  5
FE
330
17
100
AcDbEntity
  8
Madeira
 62
7
370
25
100
AcDbPolyline
 90
4
 70
1
 10
3309.283174624341
 20
6722.069817057358
 10
3309.283174624341
 20
6726.469817057353
 10
3295.283174624341
 20
6726.469817057353
 10
3295.283174624341
 20
6722.069817057358
  0
LWPOLYLINE
  5
FF
330
17
100
AcDbEntity
  8
Painéis
 62
7
370
25
100
AcDbPolyline
 90
4
 70
1
 10
3309.283174624341
 20
6726.469817057353
 10
3309.283174624341
 20
6730.069817057358
 10
3271.283174624341
 20
6730.069817057358
 10
3271.283174624341
 20
6726.469817057353
  0
LWPOLYLINE
  5
100
330
17
100
AcDbEntity
  8
Madeira
 62
7
370
25
100
AcDbPolyline
 90
4
 70
1
 10
3271.283174624341
 20
6722.069817057358
 10
3271.283174624341
 20
6726.469817057353
 10
3285.283174624341
 20
6726.469817057353
 10
3285.283174624341
 20
6722.069817057358
  0
LWPOLYLINE
  5
101
330
17
100
AcDbEntity
  8
Painéis
 62
7
370
25
100
AcDbPolyline
 90
4
 70
1
 10
3313.283174624352
 20
6850.069817057359
 10
3309.283174624352
 20
6850.069817057359
 10
3309.283174624341
 20
6722.069817057358
 10
3313.283174624341
 20
6722.069817057358
  0
LWPOLYLINE
  5
102
330
17
100
AcDbEntity
  8
Madeira
 62
7
370
25
100
AcDbPolyline
 90
4
 70
1
 10
3313.283174624352
 20
6845.669817057357
 10
3313.283174624352
 20
6850.069817057359
 10
3327.283174624352
 20
6850.069817057359
 10
3327.283174624352
 20
6845.669817057357
  0
LWPOLYLINE
  5
103
330
17
100
AcDbEntity
  8
Madeira
 62
7
370
25
100
AcDbPolyline
 90
4
 70
1
 10
3347.283174624341
 20
6722.069817057358
 10
3347.283174624341
 20
6726.469817057353
 10
3327.283174624341
 20
6726.469817057353
 10
3327.283174624341
 20
6722.069817057358
  0
LWPOLYLINE
  5
104
330
17
100
AcDbEntity
  8
Madeira
 62
7
370
25
100
AcDbPolyline
 90
4
 70
1
 10
3313.283174624352
 20
6850.069817057359
 10
3327.283174624352
 20
6850.069817057359
 10
3327.283174624341
 20
6722.069817057358
 10
3313.283174624341
 20
6722.069817057358
  0
LWPOLYLINE
  5
105
330
17
100
AcDbEntity
  8
CONCRETO
 62
7
370
25
100
AcDbPolyline
 90
8
 70
1
 10
3271.283174624341
 20
6850.069817057359
 10
3271.283174624341
 20
6850.069817057359
 10
3309.283174624351
 20
6850.069817057359
 10
3309.283174624351
 20
6822.069817057344
 10
3309.283174624341
 20
6822.069817057344
 10
3309.283174624283
 20
6730.069817057358
 10
3271.283174624341
 20
6730.069817057358
 10
3271.283174624341
 20
6850.069817057366
  0
LWPOLYLINE
  5
106
330
17
100
AcDbEntity
  8
barrote
 62
7
370
25
100
AcDbPolyline
 90
4
 70
1
 10
3199.827976952447
 20
6702.069817057402
 10
3395.010917462141
 20
6702.069817057402
 10
3395.010917462141
 20
6722.069817057358
 10
3199.827976952447
 20
6722.069817057358
  0
LWPOLYLINE
  5
107
330
17
100
AcDbEntity
  8
SCO-___-LAJ
 62
7
370
25
100
AcDbPolyline
 90
4
 70
1
 10
3208.830244367908
 20
6720.736403724032
 10
3376.136104880769
 20
6720.736403724025
 10
3376.136104880769
 20
6717.536723724049
 10
3208.830244367908
 20
6717.536723724056
  0
LWPOLYLINE
  5
108
330
17
100
AcDbEntity
  8
Painéis
 62
7
370
25
100
AcDbPolyline
 90
4
 70
1
 10
3560.173913242219
 20
6822.069817057337
 10
3556.173913242219
 20
6822.069817057337
 10
3556.173913242219
 20
6722.069817057358
 10
3560.173913242219
 20
6722.069817057358
  0
LWPOLYLINE
  5
109
330
17
100
AcDbEntity
  8
Madeira
 62
7
370
25
100
AcDbPolyline
 90
4
 70
1
 10
3560.173913242219
 20
6817.669817057335
 10
3560.173913242219
 20
6822.069817057337
 10
3574.173913242219
 20
6822.069817057337
 10
3574.173913242219
 20
6817.669817057335
  0
LWPOLYLINE
  5
10A
330
17
100
AcDbEntity
  8
Madeira
 62
7
370
25
100
AcDbPolyline
 90
4
 70
1
 10
3594.173913242219
 20
6722.069817057358
 10
3594.173913242219
 20
6726.469817057353
 10
3574.173913242219
 20
6726.469817057353
 10
3574.173913242219
 20
6722.069817057358
  0
LWPOLYLINE
  5
10B
330
17
100
AcDbEntity
  8
Madeira
 62
7
370
25
100
AcDbPolyline
 90
4
 70
1
 10
3560.173913242219
 20
6822.069817057337
 10
3574.173913242219
 20
6822.069817057337
 10
3574.173913242219
 20
6722.069817057358
 10
3560.173913242219
 20
6722.069817057358
  0
LWPOLYLINE
  5
10C
330
17
100
AcDbEntity
  8
Madeira
 62
7
370
25
100
AcDbPolyline
 90
4
 70
1
 10
3518.173913242219
 20
6722.069817057358
 10
3518.173913242219
 20
6726.469817057353
 10
3532.173913242219
 20
6726.469817057353
 10
3532.173913242219
 20
6722.069817057358
  0
LWPOLYLINE
  5
10D
330
17
100
AcDbEntity
  8
Painéis
 62
7
370
25
100
AcDbPolyline
 90
4
 70
1
 10
3518.173913242219
 20
6726.469817057353
 10
3518.173913242219
 20
6730.069817057358
 10
3556.173913242219
 20
6730.069817057358
 10
3556.173913242219
 20
6726.469817057353
  0
LWPOLYLINE
  5
10E
330
17
100
AcDbEntity
  8
Madeira
 62
7
370
25
100
AcDbPolyline
 90
4
 70
1
 10
3556.173913242219
 20
6722.069817057358
 10
3556.173913242219
 20
6726.469817057353
 10
3542.173913242219
 20
6726.469817057353
 10
3542.173913242219
 20
6722.069817057358
  0
LWPOLYLINE
  5
10F
330
17
100
AcDbEntity
  8
Painéis
 62
7
370
25
100
AcDbPolyline
 90
4
 70
1
 10
3514.173913242208
 20
6850.069817057359
 10
3518.173913242208
 20
6850.069817057359
 10
3518.173913242219
 20
6722.069817057358
 10
3514.173913242219
 20
6722.069817057358
  0
LWPOLYLINE
  5
110
330
17
100
AcDbEntity
  8
Madeira
 62
7
370
25
100
AcDbPolyline
 90
4
 70
1
 10
3514.173913242208
 20
6845.669817057357
 10
3514.173913242208
 20
6850.069817057359
 10
3500.173913242208
 20
6850.069817057359
 10
3500.173913242208
 20
6845.669817057357
  0
LWPOLYLINE
  5
111
330
17
100
AcDbEntity
  8
Madeira
 62
7
370
25
100
AcDbPolyline
 90
4
 70
1
 10
3480.173913242219
 20
6722.069817057358
 10
3480.173913242219
 20
6726.469817057353
 10
3500.173913242219
 20
6726.469817057353
 10
3500.173913242219
 20
6722.069817057358
  0
LWPOLYLINE
  5
112
330
17
100
AcDbEntity
  8
Madeira
 62
7
370
25
100
AcDbPolyline
 90
4
 70
1
 10
3514.173913242208
 20
6850.069817057359
 10
3500.173913242208
 20
6850.069817057359
 10
3500.173913242219
 20
6722.069817057358
 10
3514.173913242219
 20
6722.069817057358
  0
LWPOLYLINE
  5
113
330
17
100
AcDbEntity
  8
Painéis
 62
7
370
25
100
AcDbPolyline
 90
4
 70
1
 10
3556.173913242219
 20
6822.069817057337
 10
3556.173913242219
 20
6826.069817057336
 10
3611.773913242196
 20
6826.069817057329
 10
3611.773913242196
 20
6822.06981705733
  0
LWPOLYLINE
  5
114
330
17
100
AcDbEntity
  8
CONCRETO
 62
7
370
25
100
AcDbPolyline
 90
8
 70
1
 10
3611.773913242196
 20
6826.069817057329
 10
3611.773913242196
 20
6850.069817057359
 10
3518.17391324221
 20
6850.069817057359
 10
3518.17391324221
 20
6822.069817057344
 10
3518.173913242219
 20
6822.069817057344
 10
3518.173913242277
 20
6730.069817057358
 10
3556.173913242219
 20
6730.069817057358
 10
3556.173913242219
 20
6826.069817057336
  0
LWPOLYLINE
  5
115
330
17
100
AcDbEntity
  8
barrote
 62
7
370
25
100
AcDbPolyline
 90
4
 70
1
 10
3627.629110914114
 20
6702.069817057402
 10
3432.446170404419
 20
6702.069817057402
 10
3432.446170404419
 20
6722.069817057358
 10
3627.629110914114
 20
6722.069817057358
  0
LWPOLYLINE
  5
116
330
17
100
AcDbEntity
  8
SCO-___-LAJ
 62
7
370
25
100
AcDbPolyline
 90
4
 70
1
 10
3618.626843498653
 20
6720.736403724032
 10
3451.320982985791
 20
6720.736403724025
 10
3451.320982985791
 20
6717.536723724049
 10
3618.626843498653
 20
6717.536723724056
  0
TEXT
  5
117
330
17
100
AcDbEntity
  8
texto
 62
7
370
25
100
AcDbText
 10
3603.010822390008
 20
6582.519379068343
 30
0.0
 40
8.0
  1
{\Q19;\C256;6 1/2pont}
100
AcDbText
  0
TEXT
  5
118
330
17
100
AcDbEntity
  8
5
 62
7
370
25
100
AcDbText
 10
3727.864735317415
 20
6477.694392998957
 30
0.0
 40
12.0
  1
P35
100
AcDbText
  0
TEXT
  5
119
330
17
100
AcDbEntity
  8
Texto Seção
 62
7
370
25
100
AcDbText
 10
3029.072887996907
 20
6418.407374256934
 30
0.0
 40
13.0
  1
V218.B
100
AcDbText
  0
TEXT
  5
11A
330
17
100
AcDbEntity
  8
texto
 62
7
370
25
100
AcDbText
 10
3467.750816868333
 20
6582.519379068343
 30
0.0
 40
8.0
  1
{\Q19;\C256;4 1/2pont}
100
AcDbText
  0
TEXT
  5
11B
330
17
100
AcDbEntity
  8
texto
 62
7
370
25
100
AcDbText
 10
3207.115657750508
 20
6582.519379068351
 30
0.0
 40
8.0
  1
{\Q19;\C256;5 1/2pont}
100
AcDbText
  0
TEXT
  5
11C
330
17
100
AcDbEntity
  8
5
 62
7
370
25
100
AcDbText
 10
3048.482849987145
 20
6260.556963782783
 30
0.0
 40
12.0
  1
P35
100
AcDbText
  0
TEXT
  5
11D
330
17
100
AcDbEntity
  8
Texto Seção
 62
7
370
25
100
AcDbText
 10
3028.063258033097
 20
6627.74093076985
 30
0.0
 40
13.0
  1
V218.A
100
AcDbText
  0
TEXT
  5
11E
330
17
100
AcDbEntity
  8
detalhes
 62
7
370
25
100
AcDbText
 10
3317.997657800379
 20
6782.69191263325
 30
0.0
 40
9.600000000000001
  1
b
100
AcDbText
  0
TEXT
  5
11F
330
17
100
AcDbEntity
  8
detalhes
 62
7
370
25
100
AcDbText
 10
3255.453999154643
 20
6782.702970078826
 30
0.0
 40
9.600000000000001
  1
a
100
AcDbText
  0
TEXT
  5
120
330
17
100
AcDbEntity
  8
detalhes
 62
7
370
25
100
AcDbText
 10
3281.883440239786
 20
6732.305570577198
 30
0.0
 40
9.600000000000001
  1
c
100
AcDbText
  0
TEXT
  5
121
330
17
100
AcDbEntity
  8
detalhes
 62
7
370
25
100
AcDbText
 10
3564.381177931682
 20
6778.090509998815
 30
0.0
 40
9.600000000000001
  1
b
100
AcDbText
  0
TEXT
  5
122
330
17
100
AcDbEntity
  8
detalhes
 62
7
370
25
100
AcDbText
 10
3503.63147539049
 20
6779.150527944034
 30
0.0
 40
9.600000000000001
  1
a
100
AcDbText
  0
TEXT
  5
123
330
17
100
AcDbEntity
  8
detalhes
 62
7
370
25
100
AcDbText
 10
3538.471893240809
 20
6732.305570577198
 30
0.0
 40
9.600000000000001
  1
c
100
AcDbText
  0
TEXT
  5
124
330
17
100
AcDbEntity
  8
5
 62
7
370
25
100
AcDbText
 10
3032.755942998489
 20
6477.694398015211
 30
0.0
 40
12.0
  1
P33
100
AcDbText
  0
TEXT
  5
125
330
17
100
AcDbEntity
  8
5
 62
7
370
25
100
AcDbText
 10
3691.662805323202
 20
6260.556963782781
 30
0.0
 40
12.0
  1
V233
100
AcDbText
  0
TEXT
  5
126
330
17
100
AcDbEntity
  8
texto
 62
7
370
25
100
AcDbText
 10
3269.995506990631
 20
6363.822324841895
 30
0.0
 40
8.0
  1
{\Q19;\C256;5 1/2pont}
100
AcDbText
  0
TEXT
  5
127
330
17
100
AcDbEntity
  8
texto
 62
7
370
25
100
AcDbText
 10
3514.48124635978
 20
6363.82232484191
 30
0.0
 40
8.0
  1
{\Q19;\C256;6 1/2pont}
100
AcDbText
  0
HATCH
  5
128
330
17
100
AcDbEntity
  8
COTA
 62
7
100
AcDbHatch
 10
0.0
 20
0.0
 30
0.0
210
0.0
220
0.0
230
1.0
  2
SOLID
 70
1
 71
0
 91
1
 92
3
 72
0
 73
1
 93
12
 10
3632.488392032612
 20
6352.601827958777
 10
3632.488392032604
 20
6392.601827958785
 10
3632.488392032604
 20
6392.601827958785
 10
3753.488392032608
 20
6392.601827958799
 10
3753.488392032608
 20
6392.601827958799
 10
3753.488392032607
 20
6406.601827958787
 10
3753.488392032607
 20
6406.601827958787
 10
3605.488392032607
 20
6406.60182795878
 10
3605.488392032607
 20
6406.60182795878
 10
3605.488392032607
 20
6352.601827958785
 10
3605.488392032607
 20
6352.601827958785
 10
3632.488392032612
 20
6352.601827958777
 97
0
 75
1
 76
1
 98
0
  0
HATCH
  5
129
330
17
100
AcDbEntity
  8
Hachura
 62
7
100
AcDbHatch
 10
0.0
 20
0.0
 30
0.0
210
0.0
220
0.0
230
1.0
  2
SOLID
 70
1
 71
0
 91
1
 92
3
 72
0
 73
1
 93
8
 10
3267.283174624341
 20
6850.069817057359
 10
3271.283174624341
 20
6850.069817057359
 10
3271.283174624341
 20
6850.069817057359
 10
3271.283174624341
 20
6722.069817057358
 10
3271.283174624341
 20
6722.069817057358
 10
3267.283174624341
 20
6722.069817057358
 10
3267.283174624341
 20
6722.069817057358
 10
3267.283174624341
 20
6850.069817057359
 97
0
 75
1
 76
1
 98
0
  0
HATCH
  5
12A
330
17
100
AcDbEntity
  8
Hachura
 62
7
100
AcDbHatch
 10
0.0
 20
0.0
 30
0.0
210
0.0
220
0.0
230
1.0
  2
SOLID
 70
1
 71
0
 91
1
 92
3
 72
0
 73
1
 93
8
 10
3267.283174624341
 20
6845.669817057357
 10
3267.283174624341
 20
6850.069817057359
 10
3267.283174624341
 20
6850.069817057359
 10
3253.283174624341
 20
6850.069817057359
 10
3253.283174624341
 20
6850.069817057359
 10
3253.283174624341
 20
6845.669817057357
 10
3253.283174624341
 20
6845.669817057357
 10
3267.283174624341
 20
6845.669817057357
 97
0
 75
1
 76
1
 98
0
  0
HATCH
  5
12B
330
17
100
AcDbEntity
  8
Hachura
 62
7
100
AcDbHatch
 10
0.0
 20
0.0
 30
0.0
210
0.0
220
0.0
230
1.0
  2
SOLID
 70
1
 71
0
 91
1
 92
3
 72
0
 73
1
 93
8
 10
3233.283174624341
 20
6722.069817057358
 10
3233.283174624341
 20
6726.469817057353
 10
3233.283174624341
 20
6726.469817057353
 10
3253.283174624341
 20
6726.469817057353
 10
3253.283174624341
 20
6726.469817057353
 10
3253.283174624341
 20
6722.069817057358
 10
3253.283174624341
 20
6722.069817057358
 10
3233.283174624341
 20
6722.069817057358
 97
0
 75
1
 76
1
 98
0
  0
HATCH
  5
12C
330
17
100
AcDbEntity
  8
Hachura
 62
7
100
AcDbHatch
 10
0.0
 20
0.0
 30
0.0
210
0.0
220
0.0
230
1.0
  2
SOLID
 70
1
 71
0
 91
1
 92
3
 72
0
 73
1
 93
8
 10
3309.283174624341
 20
6722.069817057358
 10
3309.283174624341
 20
6726.469817057353
 10
3309.283174624341
 20
6726.469817057353
 10
3295.283174624341
 20
6726.469817057353
 10
3295.283174624341
 20
6726.469817057353
 10
3295.283174624341
 20
6722.069817057358
 10
3295.283174624341
 20
6722.069817057358
 10
3309.283174624341
 20
6722.069817057358
 97
0
 75
1
 76
1
 98
0
  0
HATCH
  5
12D
330
17
100
AcDbEntity
  8
Hachura
 62
7
100
AcDbHatch
 10
0.0
 20
0.0
 30
0.0
210
0.0
220
0.0
230
1.0
  2
SOLID
 70
1
 71
0
 91
1
 92
3
 72
0
 73
1
 93
8
 10
3309.283174624341
 20
6726.469817057353
 10
3309.283174624341
 20
6730.069817057358
 10
3309.283174624341
 20
6730.069817057358
 10
3271.283174624341
 20
6730.069817057358
 10
3271.283174624341
 20
6730.069817057358
 10
3271.283174624341
 20
6726.469817057353
 10
3271.283174624341
 20
6726.469817057353
 10
3309.283174624341
 20
6726.469817057353
 97
0
 75
1
 76
1
 98
0
  0
HATCH
  5
12E
330
17
100
AcDbEntity
  8
Hachura
 62
7
100
AcDbHatch
 10
0.0
 20
0.0
 30
0.0
210
0.0
220
0.0
230
1.0
  2
SOLID
 70
1
 71
0
 91
1
 92
3
 72
0
 73
1
 93
8
 10
3271.283174624341
 20
6722.069817057358
 10
3271.283174624341
 20
6726.469817057353
 10
3271.283174624341
 20
6726.469817057353
 10
3285.283174624341
 20
6726.469817057353
 10
3285.283174624341
 20
6726.469817057353
 10
3285.283174624341
 20
6722.069817057358
 10
3285.283174624341
 20
6722.069817057358
 10
3271.283174624341
 20
6722.069817057358
 97
0
 75
1
 76
1
 98
0
  0
HATCH
  5
12F
330
17
100
AcDbEntity
  8
Hachura
 62
7
100
AcDbHatch
 10
0.0
 20
0.0
 30
0.0
210
0.0
220
0.0
230
1.0
  2
SOLID
 70
1
 71
0
 91
1
 92
3
 72
0
 73
1
 93
8
 10
3313.283174624341
 20
6850.069817057359
 10
3309.283174624341
 20
6850.069817057359
 10
3309.283174624341
 20
6850.069817057359
 10
3309.283174624341
 20
6722.069817057358
 10
3309.283174624341
 20
6722.069817057358
 10
3313.283174624341
 20
6722.069817057358
 10
3313.283174624341
 20
6722.069817057358
 10
3313.283174624341
 20
6850.069817057359
 97
0
 75
1
 76
1
 98
0
  0
HATCH
  5
130
330
17
100
AcDbEntity
  8
Hachura
 62
7
100
AcDbHatch
 10
0.0
 20
0.0
 30
0.0
210
0.0
220
0.0
230
1.0
  2
SOLID
 70
1
 71
0
 91
1
 92
3
 72
0
 73
1
 93
8
 10
3313.283174624352
 20
6845.669817057357
 10
3313.283174624352
 20
6850.069817057359
 10
3313.283174624352
 20
6850.069817057359
 10
3327.283174624352
 20
6850.069817057359
 10
3327.283174624352
 20
6850.069817057359
 10
3327.283174624352
 20
6845.669817057357
 10
3327.283174624352
 20
6845.669817057357
 10
3313.283174624352
 20
6845.669817057357
 97
0
 75
1
 76
1
 98
0
  0
HATCH
  5
131
330
17
100
AcDbEntity
  8
Hachura
 62
7
100
AcDbHatch
 10
0.0
 20
0.0
 30
0.0
210
0.0
220
0.0
230
1.0
  2
SOLID
 70
1
 71
0
 91
1
 92
3
 72
0
 73
1
 93
8
 10
3347.283174624341
 20
6722.069817057358
 10
3347.283174624341
 20
6726.469817057353
 10
3347.283174624341
 20
6726.469817057353
 10
3327.283174624341
 20
6726.469817057353
 10
3327.283174624341
 20
6726.469817057353
 10
3327.283174624341
 20
6722.069817057358
 10
3327.283174624341
 20
6722.069817057358
 10
3347.283174624341
 20
6722.069817057358
 97
0
 75
1
 76
1
 98
0
  0
HATCH
  5
132
330
17
100
AcDbEntity
  8
Hachura
 62
7
100
AcDbHatch
 10
0.0
 20
0.0
 30
0.0
210
0.0
220
0.0
230
1.0
  2
SOLID
 70
1
 71
0
 91
1
 92
3
 72
0
 73
1
 93
8
 10
3560.173913242221
 20
6822.069817057337
 10
3556.173913242221
 20
6822.069817057337
 10
3556.173913242221
 20
6822.069817057337
 10
3556.173913242219
 20
6722.069817057358
 10
3556.173913242219
 20
6722.069817057358
 10
3560.173913242219
 20
6722.069817057358
 10
3560.173913242219
 20
6722.069817057358
 10
3560.173913242221
 20
6822.069817057337
 97
0
 75
1
 76
1
 98
0
  0
HATCH
  5
133
330
17
100
AcDbEntity
  8
Hachura
 62
7
100
AcDbHatch
 10
0.0
 20
0.0
 30
0.0
210
0.0
220
0.0
230
1.0
  2
SOLID
 70
1
 71
0
 91
1
 92
3
 72
0
 73
1
 93
8
 10
3560.173913242219
 20
6817.669817057335
 10
3560.173913242219
 20
6822.069817057337
 10
3560.173913242219
 20
6822.069817057337
 10
3574.173913242219
 20
6822.069817057337
 10
3574.173913242219
 20
6822.069817057337
 10
3574.173913242219
 20
6817.669817057335
 10
3574.173913242219
 20
6817.669817057335
 10
3560.173913242219
 20
6817.669817057335
 97
0
 75
1
 76
1
 98
0
  0
HATCH
  5
134
330
17
100
AcDbEntity
  8
Hachura
 62
7
100
AcDbHatch
 10
0.0
 20
0.0
 30
0.0
210
0.0
220
0.0
230
1.0
  2
SOLID
 70
1
 71
0
 91
1
 92
3
 72
0
 73
1
 93
8
 10
3594.173913242219
 20
6722.069817057358
 10
3594.173913242219
 20
6726.469817057353
 10
3594.173913242219
 20
6726.469817057353
 10
3574.173913242219
 20
6726.469817057353
 10
3574.173913242219
 20
6726.469817057353
 10
3574.173913242219
 20
6722.069817057358
 10
3574.173913242219
 20
6722.069817057358
 10
3594.173913242219
 20
6722.069817057358
 97
0
 75
1
 76
1
 98
0
  0
HATCH
  5
135
330
17
100
AcDbEntity
  8
Hachura
 62
7
100
AcDbHatch
 10
0.0
 20
0.0
 30
0.0
210
0.0
220
0.0
230
1.0
  2
SOLID
 70
1
 71
0
 91
1
 92
3
 72
0
 73
1
 93
8
 10
3518.173913242219
 20
6722.069817057358
 10
3518.173913242219
 20
6726.469817057353
 10
3518.173913242219
 20
6726.469817057353
 10
3532.173913242219
 20
6726.469817057353
 10
3532.173913242219
 20
6726.469817057353
 10
3532.173913242219
 20
6722.069817057358
 10
3532.173913242219
 20
6722.069817057358
 10
3518.173913242219
 20
6722.069817057358
 97
0
 75
1
 76
1
 98
0
  0
HATCH
  5
136
330
17
100
AcDbEntity
  8
Hachura
 62
7
100
AcDbHatch
 10
0.0
 20
0.0
 30
0.0
210
0.0
220
0.0
230
1.0
  2
SOLID
 70
1
 71
0
 91
1
 92
3
 72
0
 73
1
 93
8
 10
3518.173913242219
 20
6726.469817057353
 10
3518.173913242219
 20
6730.069817057358
 10
3518.173913242219
 20
6730.069817057358
 10
3556.173913242219
 20
6730.069817057358
 10
3556.173913242219
 20
6730.069817057358
 10
3556.173913242219
 20
6726.469817057353
 10
3556.173913242219
 20
6726.469817057353
 10
3518.173913242219
 20
6726.469817057353
 97
0
 75
1
 76
1
 98
0
  0
HATCH
  5
137
330
17
100
AcDbEntity
  8
Hachura
 62
7
100
AcDbHatch
 10
0.0
 20
0.0
 30
0.0
210
0.0
220
0.0
230
1.0
  2
SOLID
 70
1
 71
0
 91
1
 92
3
 72
0
 73
1
 93
8
 10
3556.173913242219
 20
6722.069817057358
 10
3556.173913242219
 20
6726.469817057353
 10
3556.173913242219
 20
6726.469817057353
 10
3542.173913242219
 20
6726.469817057353
 10
3542.173913242219
 20
6726.469817057353
 10
3542.173913242219
 20
6722.069817057358
 10
3542.173913242219
 20
6722.069817057358
 10
3556.173913242219
 20
6722.069817057358
 97
0
 75
1
 76
1
 98
0
  0
HATCH
  5
138
330
17
100
AcDbEntity
  8
Hachura
 62
7
100
AcDbHatch
 10
0.0
 20
0.0
 30
0.0
210
0.0
220
0.0
230
1.0
  2
SOLID
 70
1
 71
0
 91
1
 92
3
 72
0
 73
1
 93
8
 10
3514.173913242219
 20
6850.069817057359
 10
3518.173913242219
 20
6850.069817057359
 10
3518.173913242219
 20
6850.069817057359
 10
3518.173913242219
 20
6722.069817057358
 10
3518.173913242219
 20
6722.069817057358
 10
3514.173913242219
 20
6722.069817057358
 10
3514.173913242219
 20
6722.069817057358
 10
3514.173913242219
 20
6850.069817057359
 97
0
 75
1
 76
1
 98
0
  0
HATCH
  5
139
330
17
100
AcDbEntity
  8
Hachura
 62
7
100
AcDbHatch
 10
0.0
 20
0.0
 30
0.0
210
0.0
220
0.0
230
1.0
  2
SOLID
 70
1
 71
0
 91
1
 92
3
 72
0
 73
1
 93
8
 10
3514.173913242208
 20
6845.669817057357
 10
3514.173913242208
 20
6850.069817057359
 10
3514.173913242208
 20
6850.069817057359
 10
3500.173913242208
 20
6850.069817057359
 10
3500.173913242208
 20
6850.069817057359
 10
3500.173913242208
 20
6845.669817057357
 10
3500.173913242208
 20
6845.669817057357
 10
3514.173913242208
 20
6845.669817057357
 97
0
 75
1
 76
1
 98
0
  0
HATCH
  5
13A
330
17
100
AcDbEntity
  8
Hachura
 62
7
100
AcDbHatch
 10
0.0
 20
0.0
 30
0.0
210
0.0
220
0.0
230
1.0
  2
SOLID
 70
1
 71
0
 91
1
 92
3
 72
0
 73
1
 93
8
 10
3480.173913242219
 20
6722.069817057358
 10
3480.173913242219
 20
6726.469817057353
 10
3480.173913242219
 20
6726.469817057353
 10
3500.173913242219
 20
6726.469817057353
 10
3500.173913242219
 20
6726.469817057353
 10
3500.173913242219
 20
6722.069817057358
 10
3500.173913242219
 20
6722.069817057358
 10
3480.173913242219
 20
6722.069817057358
 97
0
 75
1
 76
1
 98
0
  0
HATCH
  5
13B
330
17
100
AcDbEntity
  8
Hachura
 62
7
100
AcDbHatch
 10
0.0
 20
0.0
 30
0.0
210
0.0
220
0.0
230
1.0
  2
SOLID
 70
1
 71
0
 91
1
 92
3
 72
0
 73
1
 93
8
 10
3556.173913242219
 20
6822.069817057337
 10
3556.173913242219
 20
6826.069817057336
 10
3556.173913242219
 20
6826.069817057336
 10
3611.773913242196
 20
6826.069817057329
 10
3611.773913242196
 20
6826.069817057329
 10
3611.773913242196
 20
6822.06981705733
 10
3611.773913242196
 20
6822.06981705733
 10
3556.173913242219
 20
6822.069817057337
 97
0
 75
1
 76
1
 98
0
  0
HATCH
  5
13C
330
17
100
AcDbEntity
  8
COTA
 62
7
100
AcDbHatch
 10
0.0
 20
0.0
 30
0.0
210
0.0
220
0.0
230
1.0
  2
SOLID
 70
1
 71
0
 91
1
 92
3
 72
0
 73
1
 93
8
 10
3181.488392032615
 20
6352.601827958813
 10
3181.488392032618
 20
6406.601827958812
 10
3181.488392032618
 20
6406.601827958812
 10
3159.488392032617
 20
6406.601827958812
 10
3159.488392032617
 20
6406.601827958812
 10
3159.488392032616
 20
6352.60182795881
 10
3159.488392032616
 20
6352.60182795881
 10
3181.488392032615
 20
6352.601827958813
 97
0
 75
1
 76
1
 98
0
  0
ENDSEC
  0
SECTION
  2
OBJECTS
  0
DICTIONARY
  5
A
330
0
100
AcDbDictionary
281
1
  3
ACAD_COLOR
350
B
  3
ACAD_GROUP
350
C
  3
ACAD_LAYOUT
350
D
  3
ACAD_MATERIAL
350
E
  3
ACAD_MLEADERSTYLE
350
F
  3
ACAD_MLINESTYLE
350
10
  3
ACAD_PLOTSETTINGS
350
11
  3
ACAD_PLOTSTYLENAME
350
12
  3
ACAD_SCALELIST
350
14
  3
ACAD_TABLESTYLE
350
15
  3
ACAD_VISUALSTYLE
350
16
  3
EZDXF_META
350
2D
  0
DICTIONARY
  5
B
330
A
100
AcDbDictionary
281
1
  0
DICTIONARY
  5
C
330
A
100
AcDbDictionary
281
1
  0
DICTIONARY
  5
D
330
A
100
AcDbDictionary
281
1
  3
Model
350
1A
  3
Layout1
350
1E
  0
DICTIONARY
  5
E
330
A
100
AcDbDictionary
281
1
  3
ByBlock
350
1F
  3
ByLayer
350
20
  3
Global
350
21
  0
DICTIONARY
  5
F
330
A
100
AcDbDictionary
281
1
  3
Standard
350
2C
  0
DICTIONARY
  5
10
330
A
100
AcDbDictionary
281
1
  3
Standard
350
22
  0
DICTIONARY
  5
11
330
A
100
AcDbDictionary
281
1
  0
ACDBDICTIONARYWDFLT
  5
12
330
A
100
AcDbDictionary
281
1
  3
Normal
350
13
100
AcDbDictionaryWithDefault
340
13
  0
ACDBPLACEHOLDER
  5
13
330
12
  0
DICTIONARY
  5
14
330
A
100
AcDbDictionary
281
1
  0
DICTIONARY
  5
15
330
A
100
AcDbDictionary
281
1
  0
DICTIONARY
  5
16
330
A
100
AcDbDictionary
281
1
  0
LAYOUT
  5
1A
330
D
100
AcDbPlotSettings
  1

  4
A3
  6

 40
7.5
 41
20.0
 42
7.5
 43
20.0
 44
420.0
 45
297.0
 46
0.0
 47
0.0
 48
0.0
 49
0.0
140
0.0
141
0.0
142
1.0
143
1.0
 70
1024
 72
1
 73
0
 74
5
  7

 75
16
 76
0
 77
2
 78
300
147
1.0
148
0.0
149
0.0
100
AcDbLayout
  1
Model
 70
1
 71
0
 10
0.0
 20
0.0
 11
420.0
 21
297.0
 12
0.0
 22
0.0
 32
0.0
 14
1e+20
 24
1e+20
 34
1e+20
 15
-1e+20
 25
-1e+20
 35
-1e+20
146
0.0
 13
0.0
 23
0.0
 33
0.0
 16
1.0
 26
0.0
 36
0.0
 17
0.0
 27
1.0
 37
0.0
 76
1
330
17
  0
LAYOUT
  5
1E
330
D
100
AcDbPlotSettings
  1

  4
A3
  6

 40
7.5
 41
20.0
 42
7.5
 43
20.0
 44
420.0
 45
297.0
 46
0.0
 47
0.0
 48
0.0
 49
0.0
140
0.0
141
0.0
142
1.0
143
1.0
 70
0
 72
1
 73
0
 74
5
  7

 75
16
 76
0
 77
2
 78
300
147
1.0
148
0.0
149
0.0
100
AcDbLayout
  1
Layout1
 70
1
 71
1
 10
0.0
 20
0.0
 11
420.0
 21
297.0
 12
0.0
 22
0.0
 32
0.0
 14
1e+20
 24
1e+20
 34
1e+20
 15
-1e+20
 25
-1e+20
 35
-1e+20
146
0.0
 13
0.0
 23
0.0
 33
0.0
 16
1.0
 26
0.0
 36
0.0
 17
0.0
 27
1.0
 37
0.0
 76
1
330
1B
  0
MATERIAL
  5
1F
102
{ACAD_REACTORS
330
E
102
}
330
E
100
AcDbMaterial
  1
ByBlock
  2

 70
0
 40
1.0
 71
1
 41
1.0
 91
-1023410177
 42
1.0
 72
1
  3

 73
1
 74
1
 75
1
 44
0.5
 73
0
 45
1.0
 46
1.0
 77
1
  4

 78
1
 79
1
170
1
 48
1.0
171
1
  6

172
1
173
1
174
1
140
1.0
141
1.0
175
1
  7

176
1
177
1
178
1
143
1.0
179
1
  8

270
1
271
1
272
1
145
1.0
146
1.0
273
1
  9

274
1
275
1
276
1
 42
1.0
 72
1
  3

 73
1
 74
1
 75
1
 94
63
  0
MATERIAL
  5
20
102
{ACAD_REACTORS
330
E
102
}
330
E
100
AcDbMaterial
  1
ByLayer
  2

 70
0
 40
1.0
 71
1
 41
1.0
 91
-1023410177
 42
1.0
 72
1
  3

 73
1
 74
1
 75
1
 44
0.5
 73
0
 45
1.0
 46
1.0
 77
1
  4

 78
1
 79
1
170
1
 48
1.0
171
1
  6

172
1
173
1
174
1
140
1.0
141
1.0
175
1
  7

176
1
177
1
178
1
143
1.0
179
1
  8

270
1
271
1
272
1
145
1.0
146
1.0
273
1
  9

274
1
275
1
276
1
 42
1.0
 72
1
  3

 73
1
 74
1
 75
1
 94
63
  0
MATERIAL
  5
21
102
{ACAD_REACTORS
330
E
102
}
330
E
100
AcDbMaterial
  1
Global
  2

 70
0
 40
1.0
 71
1
 41
1.0
 91
-1023410177
 42
1.0
 72
1
  3

 73
1
 74
1
 75
1
 44
0.5
 73
0
 45
1.0
 46
1.0
 77
1
  4

 78
1
 79
1
170
1
 48
1.0
171
1
  6

172
1
173
1
174
1
140
1.0
141
1.0
175
1
  7

176
1
177
1
178
1
143
1.0
179
1
  8

270
1
271
1
272
1
145
1.0
146
1.0
273
1
  9

274
1
275
1
276
1
 42
1.0
 72
1
  3

 73
1
 74
1
 75
1
 94
63
  0
MLINESTYLE
  5
22
102
{ACAD_REACTORS
330
10
102
}
330
10
100
AcDbMlineStyle
  2
Standard
 70
0
  3

 62
256
 51
90.0
 52
90.0
 71
2
 49
0.5
 62
256
  6
BYLAYER
 49
-0.5
 62
256
  6
BYLAYER
  0
MLEADERSTYLE
  5
2C
102
{ACAD_REACTORS
330
F
102
}
330
F
100
AcDbMLeaderStyle
179
2
170
2
171
1
172
0
 90
2
 40
0.0
 41
0.0
173
1
 91
-1056964608
 92
-2
290
1
 42
2.0
291
1
 43
8.0
  3
Standard
 44
4.0
300

342
29
174
1
175
1
176
0
178
1
 93
-1056964608
 45
4.0
292
0
297
0
 46
4.0
 94
-1056964608
 47
1.0
 49
1.0
140
1.0
294
1
141
0.0
177
0
142
1.0
295
0
296
0
143
3.75
271
0
272
9
273
9
  0
DICTIONARY
  5
2D
330
A
100
AcDbDictionary
280
1
281
1
  3
CREATED_BY_EZDXF
350
2E
  3
WRITTEN_BY_EZDXF
350
13F
  0
DICTIONARYVAR
  5
2E
330
2D
100
DictionaryVariables
280
0
  1
1.4.3 @ 2026-06-10T16:53:47.787131+00:00
  0
DICTIONARYVAR
  5
13F
330
2D
100
DictionaryVariables
280
0
  1
1.4.3 @ 2026-06-10T16:53:47.796276+00:00
  0
ENDSEC
  0
EOF
