  0
SECTION
  2
HEADER
  9
$ACADVER
  1
AC1024
  9
$ACADMAINTVER
 70
6
  9
$DWGCODEPAGE
  3
ANSI_1252
  9
$LASTSAVEDBY
  1
ezdxf
  9
$INSBASE
 10
0.0
 20
0.0
 30
0.0
  9
$EXTMIN
 10
1e+20
 20
1e+20
 30
1e+20
  9
$EXTMAX
 10
-1e+20
 20
-1e+20
 30
-1e+20
  9
$LIMMIN
 10
0.0
 20
0.0
  9
$LIMMAX
 10
420.0
 20
297.0
  9
$ORTHOMODE
 70
0
  9
$REGENMODE
 70
1
  9
$FILLMODE
 70
1
  9
$QTEXTMODE
 70
0
  9
$MIRRTEXT
 70
1
  9
$LTSCALE
 40
1.0
  9
$ATTMODE
 70
1
  9
$TEXTSIZE
 40
2.5
  9
$TRACEWID
 40
1.0
  9
$TEXTSTYLE
  7
Standard
  9
$CLAYER
  8
0
  9
$CELTYPE
  6
ByLayer
  9
$CECOLOR
 62
256
  9
$CELTSCALE
 40
1.0
  9
$DISPSILH
 70
0
  9
$DIMSCALE
 40
1.0
  9
$DIMASZ
 40
2.5
  9
$DIMEXO
 40
0.625
  9
$DIMDLI
 40
3.75
  9
$DIMRND
 40
0.0
  9
$DIMDLE
 40
0.0
  9
$DIMEXE
 40
1.25
  9
$DIMTP
 40
0.0
  9
$DIMTM
 40
0.0
  9
$DIMTXT
 40
2.5
  9
$DIMCEN
 40
2.5
  9
$DIMTSZ
 40
0.0
  9
$DIMTOL
 70
0
  9
$DIMLIM
 70
0
  9
$DIMTIH
 70
0
  9
$DIMTOH
 70
0
  9
$DIMSE1
 70
0
  9
$DIMSE2
 70
0
  9
$DIMTAD
 70
1
  9
$DIMZIN
 70
8
  9
$DIMBLK
  1

  9
$DIMASO
 70
1
  9
$DIMSHO
 70
1
  9
$DIMPOST
  1

  9
$DIMAPOST
  1

  9
$DIMALT
 70
0
  9
$DIMALTD
 70
3
  9
$DIMALTF
 40
0.03937007874
  9
$DIMLFAC
 40
1.0
  9
$DIMTOFL
 70
1
  9
$DIMTVP
 40
0.0
  9
$DIMTIX
 70
0
  9
$DIMSOXD
 70
0
  9
$DIMSAH
 70
0
  9
$DIMBLK1
  1

  9
$DIMBLK2
  1

  9
$DIMSTYLE
  2
ISO-25
  9
$DIMCLRD
 70
0
  9
$DIMCLRE
 70
0
  9
$DIMCLRT
 70
0
  9
$DIMTFAC
 40
1.0
  9
$DIMGAP
 40
0.625
  9
$DIMJUST
 70
0
  9
$DIMSD1
 70
0
  9
$DIMSD2
 70
0
  9
$DIMTOLJ
 70
0
  9
$DIMTZIN
 70
8
  9
$DIMALTZ
 70
0
  9
$DIMALTTZ
 70
0
  9
$DIMUPT
 70
0
  9
$DIMDEC
 70
2
  9
$DIMTDEC
 70
2
  9
$DIMALTU
 70
2
  9
$DIMALTTD
 70
3
  9
$DIMTXSTY
  7
Standard
  9
$DIMAUNIT
 70
0
  9
$DIMADEC
 70
0
  9
$DIMALTRND
 40
0.0
  9
$DIMAZIN
 70
0
  9
$DIMDSEP
 70
44
  9
$DIMATFIT
 70
3
  9
$DIMFRAC
 70
0
  9
$DIMLDRBLK
  1

  9
$DIMLUNIT
 70
2
  9
$DIMLWD
 70
-2
  9
$DIMLWE
 70
-2
  9
$DIMTMOVE
 70
0
  9
$DIMFXL
 40
1.0
  9
$DIMFXLON
 70
0
  9
$DIMJOGANG
 40
0.785398163397
  9
$DIMTFILL
 70
0
  9
$DIMTFILLCLR
 70
0
  9
$DIMARCSYM
 70
0
  9
$DIMLTYPE
  6

  9
$DIMLTEX1
  6

  9
$DIMLTEX2
  6

  9
$DIMTXTDIRECTION
 70
0
  9
$LUNITS
 70
2
  9
$LUPREC
 70
4
  9
$SKETCHINC
 40
1.0
  9
$FILLETRAD
 40
10.0
  9
$AUNITS
 70
0
  9
$AUPREC
 70
2
  9
$MENU
  1
.
  9
$ELEVATION
 40
0.0
  9
$PELEVATION
 40
0.0
  9
$THICKNESS
 40
0.0
  9
$LIMCHECK
 70
0
  9
$CHAMFERA
 40
0.0
  9
$CHAMFERB
 40
0.0
  9
$CHAMFERC
 40
0.0
  9
$CHAMFERD
 40
0.0
  9
$SKPOLY
 70
0
  9
$TDCREATE
 40
2461202.5790162035
  9
$TDUCREATE
 40
2458532.153996898
  9
$TDUPDATE
 40
2461202.5790162035
  9
$TDUUPDATE
 40
2458532.1544311
  9
$TDINDWG
 40
0.0
  9
$TDUSRTIMER
 40
0.0
  9
$USRTIMER
 70
1
  9
$ANGBASE
 50
0.0
  9
$ANGDIR
 70
0
  9
$PDMODE
 70
0
  9
$PDSIZE
 40
0.0
  9
$PLINEWID
 40
0.0
  9
$SPLFRAME
 70
0
  9
$SPLINETYPE
 70
6
  9
$SPLINESEGS
 70
8
  9
$HANDSEED
  5
188
  9
$SURFTAB1
 70
6
  9
$SURFTAB2
 70
6
  9
$SURFTYPE
 70
6
  9
$SURFU
 70
6
  9
$SURFV
 70
6
  9
$UCSBASE
  2

  9
$UCSNAME
  2

  9
$UCSORG
 10
0.0
 20
0.0
 30
0.0
  9
$UCSXDIR
 10
1.0
 20
0.0
 30
0.0
  9
$UCSYDIR
 10
0.0
 20
1.0
 30
0.0
  9
$UCSORTHOREF
  2

  9
$UCSORTHOVIEW
 70
0
  9
$UCSORGTOP
 10
0.0
 20
0.0
 30
0.0
  9
$UCSORGBOTTOM
 10
0.0
 20
0.0
 30
0.0
  9
$UCSORGLEFT
 10
0.0
 20
0.0
 30
0.0
  9
$UCSORGRIGHT
 10
0.0
 20
0.0
 30
0.0
  9
$UCSORGFRONT
 10
0.0
 20
0.0
 30
0.0
  9
$UCSORGBACK
 10
0.0
 20
0.0
 30
0.0
  9
$PUCSBASE
  2

  9
$PUCSNAME
  2

  9
$PUCSORG
 10
0.0
 20
0.0
 30
0.0
  9
$PUCSXDIR
 10
1.0
 20
0.0
 30
0.0
  9
$PUCSYDIR
 10
0.0
 20
1.0
 30
0.0
  9
$PUCSORTHOREF
  2

  9
$PUCSORTHOVIEW
 70
0
  9
$PUCSORGTOP
 10
0.0
 20
0.0
 30
0.0
  9
$PUCSORGBOTTOM
 10
0.0
 20
0.0
 30
0.0
  9
$PUCSORGLEFT
 10
0.0
 20
0.0
 30
0.0
  9
$PUCSORGRIGHT
 10
0.0
 20
0.0
 30
0.0
  9
$PUCSORGFRONT
 10
0.0
 20
0.0
 30
0.0
  9
$PUCSORGBACK
 10
0.0
 20
0.0
 30
0.0
  9
$USERI1
 70
0
  9
$USERI2
 70
0
  9
$USERI3
 70
0
  9
$USERI4
 70
0
  9
$USERI5
 70
0
  9
$USERR1
 40
0.0
  9
$USERR2
 40
0.0
  9
$USERR3
 40
0.0
  9
$USERR4
 40
0.0
  9
$USERR5
 40
0.0
  9
$WORLDVIEW
 70
1
  9
$SHADEDGE
 70
3
  9
$SHADEDIF
 70
70
  9
$TILEMODE
 70
1
  9
$MAXACTVP
 70
64
  9
$PINSBASE
 10
0.0
 20
0.0
 30
0.0
  9
$PLIMCHECK
 70
0
  9
$PEXTMIN
 10
1e+20
 20
1e+20
 30
1e+20
  9
$PEXTMAX
 10
-1e+20
 20
-1e+20
 30
-1e+20
  9
$PLIMMIN
 10
0.0
 20
0.0
  9
$PLIMMAX
 10
420.0
 20
297.0
  9
$UNITMODE
 70
0
  9
$VISRETAIN
 70
1
  9
$PLINEGEN
 70
0
  9
$PSLTSCALE
 70
1
  9
$TREEDEPTH
 70
3020
  9
$CMLSTYLE
  2
Standard
  9
$CMLJUST
 70
0
  9
$CMLSCALE
 40
20.0
  9
$PROXYGRAPHICS
 70
1
  9
$MEASUREMENT
 70
1
  9
$CELWEIGHT
370
-1
  9
$ENDCAPS
280
0
  9
$JOINSTYLE
280
0
  9
$LWDISPLAY
290
0
  9
$INSUNITS
 70
6
  9
$HYPERLINKBASE
  1

  9
$STYLESHEET
  1

  9
$XEDIT
290
1
  9
$CEPSNTYPE
380
0
  9
$PSTYLEMODE
290
1
  9
$FINGERPRINTGUID
  2
{792072B0-415E-4B2A-8EC7-A69CE00C1616}
  9
$VERSIONGUID
  2
{4452060C-4DED-4414-A883-02B86C7DC169}
  9
$EXTNAMES
290
1
  9
$PSVPSCALE
 40
0.0
  9
$OLESTARTUP
290
0
  9
$SORTENTS
280
127
  9
$INDEXCTL
280
0
  9
$HIDETEXT
280
1
  9
$XCLIPFRAME
280
1
  9
$HALOGAP
280
0
  9
$OBSCOLOR
 70
257
  9
$OBSLTYPE
280
0
  9
$INTERSECTIONDISPLAY
280
0
  9
$INTERSECTIONCOLOR
 70
257
  9
$DIMASSOC
280
2
  9
$PROJECTNAME
  1

  9
$CAMERADISPLAY
290
0
  9
$LENSLENGTH
 40
50.0
  9
$CAMERAHEIGHT
 40
0.0
  9
$STEPSPERSEC
 40
24.0
  9
$STEPSIZE
 40
100.0
  9
$3DDWFPREC
 40
2.0
  9
$PSOLWIDTH
 40
0.005
  9
$PSOLHEIGHT
 40
0.08
  9
$LOFTANG1
 40
1.570796326795
  9
$LOFTANG2
 40
1.570796326795
  9
$LOFTMAG1
 40
0.0
  9
$LOFTMAG2
 40
0.0
  9
$LOFTPARAM
 70
7
  9
$LOFTNORMALS
280
1
  9
$LATITUDE
 40
37.795
  9
$LONGITUDE
 40
-122.394
  9
$NORTHDIRECTION
 40
0.0
  9
$TIMEZONE
 70
-8000
  9
$LIGHTGLYPHDISPLAY
280
1
  9
$TILEMODELIGHTSYNCH
280
1
  9
$CMATERIAL
347
20
  9
$SOLIDHIST
280
0
  9
$SHOWHIST
280
1
  9
$DWFFRAME
280
2
  9
$DGNFRAME
280
2
  9
$REALWORLDSCALE
290
1
  9
$INTERFERECOLOR
 62
256
  9
$CSHADOW
280
0
  9
$SHADOWPLANELOCATION
 40
0.0
  0
ENDSEC
  0
SECTION
  2
CLASSES
  0
CLASS
  1
ACDBDICTIONARYWDFLT
  2
AcDbDictionaryWithDefault
  3
ObjectDBX Classes
 90
0
 91
0
280
0
281
0
  0
CLASS
  1
SUN
  2
AcDbSun
  3
SCENEOE
 90
1153
 91
0
280
0
281
0
  0
CLASS
  1
VISUALSTYLE
  2
AcDbVisualStyle
  3
ObjectDBX Classes
 90
4095
 91
0
280
0
281
0
  0
CLASS
  1
MATERIAL
  2
AcDbMaterial
  3
ObjectDBX Classes
 90
1153
 91
0
280
0
281
0
  0
CLASS
  1
SCALE
  2
AcDbScale
  3
ObjectDBX Classes
 90
1153
 91
0
280
0
281
0
  0
CLASS
  1
TABLESTYLE
  2
AcDbTableStyle
  3
ObjectDBX Classes
 90
4095
 91
0
280
0
281
0
  0
CLASS
  1
MLEADERSTYLE
  2
AcDbMLeaderStyle
  3
ACDB_MLEADERSTYLE_CLASS
 90
4095
 91
0
280
0
281
0
  0
CLASS
  1
DICTIONARYVAR
  2
AcDbDictionaryVar
  3
ObjectDBX Classes
 90
0
 91
0
280
0
281
0
  0
CLASS
  1
CELLSTYLEMAP
  2
AcDbCellStyleMap
  3
ObjectDBX Classes
 90
1152
 91
0
280
0
281
0
  0
CLASS
  1
MENTALRAYRENDERSETTINGS
  2
AcDbMentalRayRenderSettings
  3
SCENEOE
 90
1024
 91
0
280
0
281
0
  0
CLASS
  1
ACDBDETAILVIEWSTYLE
  2
AcDbDetailViewStyle
  3
ObjectDBX Classes
 90
1025
 91
0
280
0
281
0
  0
CLASS
  1
ACDBSECTIONVIEWSTYLE
  2
AcDbSectionViewStyle
  3
ObjectDBX Classes
 90
1025
 91
0
280
0
281
0
  0
CLASS
  1
RASTERVARIABLES
  2
AcDbRasterVariables
  3
ISM
 90
0
 91
0
280
0
281
0
  0
CLASS
  1
LAYOUT
  2
AcDbLayout
  3
ObjectDBX Classes
 90
0
 91
0
280
0
281
0
  0
CLASS
  1
ACDBPLACEHOLDER
  2
AcDbPlaceHolder
  3
ObjectDBX Classes
 90
0
 91
0
280
0
281
0
  0
ENDSEC
  0
SECTION
  2
TABLES
  0
TABLE
  2
VPORT
  5
8
330
0
100
AcDbSymbolTable
 70
1
  0
VPORT
  5
23
330
8
100
AcDbSymbolTableRecord
100
AcDbViewportTableRecord
  2
*Active
 70
0
 10
0.0
 20
0.0
 11
1.0
 21
1.0
 12
0.0
 22
0.0
 13
0.0
 23
0.0
 14
0.5
 24
0.5
 15
0.5
 25
0.5
 16
0.0
 26
0.0
 36
1.0
 17
0.0
 27
0.0
 37
0.0
 40
1000.0
 41
1.34
 42
50.0
 43
0.0
 44
0.0
 50
0.0
 51
0.0
 71
0
 72
1000
 73
1
 74
3
 75
0
 76
0
 77
0
 78
0
281
0
 65
0
146
0.0
  0
ENDTAB
  0
TABLE
  2
LTYPE
  5
2
330
0
100
AcDbSymbolTable
 70
3
  0
LTYPE
  5
24
330
2
100
AcDbSymbolTableRecord
100
AcDbLinetypeTableRecord
  2
ByBlock
 70
0
  3

 72
65
 73
0
 40
0.0
  0
LTYPE
  5
25
330
2
100
AcDbSymbolTableRecord
100
AcDbLinetypeTableRecord
  2
ByLayer
 70
0
  3

 72
65
 73
0
 40
0.0
  0
LTYPE
  5
26
330
2
100
AcDbSymbolTableRecord
100
AcDbLinetypeTableRecord
  2
Continuous
 70
0
  3

 72
65
 73
0
 40
0.0
  0
ENDTAB
  0
TABLE
  2
LAYER
  5
1
330
0
100
AcDbSymbolTable
 70
18
  0
LAYER
  5
27
330
1
100
AcDbSymbolTableRecord
100
AcDbLayerTableRecord
  2
0
 70
0
 62
7
  6
Continuous
370
-3
390
13
347
21
  0
LAYER
  5
28
330
1
100
AcDbSymbolTableRecord
100
AcDbLayerTableRecord
  2
Defpoints
 70
0
 62
7
  6
Continuous
290
0
370
-3
390
13
347
21
  0
LAYER
  5
2F
330
1
100
AcDbSymbolTableRecord
100
AcDbLayerTableRecord
  2
texto
 70
0
 62
7
  6
Continuous
370
-3
390
13
347
21
  0
LAYER
  5
30
330
1
100
AcDbSymbolTableRecord
100
AcDbLayerTableRecord
  2
COTA
 70
0
 62
7
  6
Continuous
370
-3
390
13
347
21
  0
LAYER
  5
31
330
1
100
AcDbSymbolTableRecord
100
AcDbLayerTableRecord
  2
SCO-___-LAJ
 70
0
 62
7
  6
Continuous
370
-3
390
13
347
21
  0
LAYER
  5
32
330
1
100
AcDbSymbolTableRecord
100
AcDbLayerTableRecord
  2
presilha
 70
0
 62
7
  6
Continuous
370
-3
390
13
347
21
  0
LAYER
  5
33
330
1
100
AcDbSymbolTableRecord
100
AcDbLayerTableRecord
  2
Texto Seção
 70
0
 62
7
  6
Continuous
370
-3
390
13
347
21
  0
LAYER
  5
34
330
1
100
AcDbSymbolTableRecord
100
AcDbLayerTableRecord
  2
Hachura
 70
0
 62
7
  6
Continuous
370
-3
390
13
347
21
  0
LAYER
  5
35
330
1
100
AcDbSymbolTableRecord
100
AcDbLayerTableRecord
  2
Painéis
 70
0
 62
7
  6
Continuous
370
-3
390
13
347
21
  0
LAYER
  5
36
330
1
100
AcDbSymbolTableRecord
100
AcDbLayerTableRecord
  2
Madeira
 70
0
 62
7
  6
Continuous
370
-3
390
13
347
21
  0
LAYER
  5
37
330
1
100
AcDbSymbolTableRecord
100
AcDbLayerTableRecord
  2
SARR_2.2x7
 70
0
 62
7
  6
Continuous
370
-3
390
13
347
21
  0
LAYER
  5
38
330
1
100
AcDbSymbolTableRecord
100
AcDbLayerTableRecord
  2
SARR_3.5x7
 70
0
 62
7
  6
Continuous
370
-3
390
13
347
21
  0
LAYER
  5
39
330
1
100
AcDbSymbolTableRecord
100
AcDbLayerTableRecord
  2
CONCRETO
 70
0
 62
7
  6
Continuous
370
-3
390
13
347
21
  0
LAYER
  5
3A
330
1
100
AcDbSymbolTableRecord
100
AcDbLayerTableRecord
  2
barrote
 70
0
 62
7
  6
Continuous
370
-3
390
13
347
21
  0
LAYER
  5
3B
330
1
100
AcDbSymbolTableRecord
100
AcDbLayerTableRecord
  2
5
 70
0
 62
7
  6
Continuous
370
-3
390
13
347
21
  0
LAYER
  5
3C
330
1
100
AcDbSymbolTableRecord
100
AcDbLayerTableRecord
  2
TENSOR
 70
0
 62
7
  6
Continuous
370
-3
390
13
347
21
  0
LAYER
  5
3D
330
1
100
AcDbSymbolTableRecord
100
AcDbLayerTableRecord
  2
REAPROVEITAMENTO
 70
0
 62
7
  6
Continuous
370
-3
390
13
347
21
  0
LAYER
  5
3E
330
1
100
AcDbSymbolTableRecord
100
AcDbLayerTableRecord
  2
detalhes
 70
0
 62
7
  6
Continuous
370
-3
390
13
347
21
  0
ENDTAB
  0
TABLE
  2
STYLE
  5
5
330
0
100
AcDbSymbolTable
 70
1
  0
STYLE
  5
29
330
5
100
AcDbSymbolTableRecord
100
AcDbTextStyleTableRecord
  2
Standard
 70
0
 40
0.0
 41
1.0
 50
0.0
 71
0
 42
2.5
  3
txt
  4

  0
ENDTAB
  0
TABLE
  2
VIEW
  5
7
330
0
100
AcDbSymbolTable
 70
0
  0
ENDTAB
  0
TABLE
  2
UCS
  5
6
330
0
100
AcDbSymbolTable
 70
0
  0
ENDTAB
  0
TABLE
  2
APPID
  5
3
330
0
100
AcDbSymbolTable
 70
3
  0
APPID
  5
2A
330
3
100
AcDbSymbolTableRecord
100
AcDbRegAppTableRecord
  2
ACAD
 70
0
  0
APPID
  5
185
330
3
100
AcDbSymbolTableRecord
100
AcDbRegAppTableRecord
  2
HATCHBACKGROUNDCOLOR
 70
0
  0
APPID
  5
186
330
3
100
AcDbSymbolTableRecord
100
AcDbRegAppTableRecord
  2
EZDXF
 70
0
  0
ENDTAB
  0
TABLE
  2
DIMSTYLE
  5
4
330
0
100
AcDbSymbolTable
 70
1
100
AcDbDimStyleTable
  0
DIMSTYLE
105
2B
330
4
100
AcDbSymbolTableRecord
100
AcDbDimStyleTableRecord
  2
Standard
 70
0
 40
1.0
 41
2.5
 42
0.625
 43
3.75
 44
1.25
 45
0.0
 46
0.0
 47
0.0
 48
0.0
 49
2.5
140
2.5
141
2.5
142
0.0
143
0.03937007874
144
1.0
145
0.0
146
1.0
147
0.625
148
0.0
 69
0
 70
0
 71
0
 72
0
 73
0
 74
0
 75
0
 76
0
 77
1
 78
8
 79
3
170
0
171
3
172
1
173
0
174
0
175
0
176
0
177
0
178
0
179
2
271
2
272
2
273
2
274
3
275
0
276
0
277
2
278
44
279
0
280
0
281
0
282
0
283
0
284
8
285
0
286
0
288
0
289
3
290
0
371
-2
372
-2
  0
ENDTAB
  0
TABLE
  2
BLOCK_RECORD
  5
9
330
0
100
AcDbSymbolTable
 70
2
  0
BLOCK_RECORD
  5
17
330
9
100
AcDbSymbolTableRecord
100
AcDbBlockTableRecord
  2
*Model_Space
340
1A
 70
0
280
1
281
0
  0
BLOCK_RECORD
  5
1B
330
9
100
AcDbSymbolTableRecord
100
AcDbBlockTableRecord
  2
*Paper_Space
340
1E
 70
0
280
1
281
0
  0
ENDTAB
  0
ENDSEC
  0
SECTION
  2
BLOCKS
  0
BLOCK
  5
18
330
17
100
AcDbEntity
  8
0
100
AcDbBlockBegin
  2
*Model_Space
 70
0
 10
0.0
 20
0.0
 30
0.0
  3
*Model_Space
  1

  0
ENDBLK
  5
19
330
17
100
AcDbEntity
  8
0
100
AcDbBlockEnd
  0
BLOCK
  5
1C
330
1B
100
AcDbEntity
  8
0
100
AcDbBlockBegin
  2
*Paper_Space
 70
0
 10
0.0
 20
0.0
 30
0.0
  3
*Paper_Space
  1

  0
ENDBLK
  5
1D
330
1B
100
AcDbEntity
  8
0
100
AcDbBlockEnd
  0
ENDSEC
  0
SECTION
  2
ENTITIES
  0
LINE
  5
3F
330
17
100
AcDbEntity
  8
Defpoints
 62
7
370
25
100
AcDbLine
 10
7760.984611023925
 20
9147.22003243072
 30
0.0
 11
7760.984611023925
 21
9272.22003243072
 31
0.0
  0
LINE
  5
40
330
17
100
AcDbEntity
  8
presilha
 62
7
370
25
100
AcDbLine
 10
7799.65181015847
 20
9058.58669909742
 30
0.0
 11
7799.65181015847
 21
9053.986859097435
 31
0.0
  0
LINE
  5
41
330
17
100
AcDbEntity
  8
presilha
 62
7
370
25
100
AcDbLine
 10
7799.65181015847
 20
9053.986859097435
 30
0.0
 11
7819.652174662821
 21
9053.986859097427
 31
0.0
  0
LINE
  5
42
330
17
100
AcDbEntity
  8
presilha
 62
7
370
25
100
AcDbLine
 10
7820.652174662821
 20
9061.586699097421
 30
0.0
 11
7819.652174662821
 21
9061.586699097421
 31
0.0
  0
LINE
  5
43
330
17
100
AcDbEntity
  8
presilha
 62
7
370
25
100
AcDbLine
 10
7819.652174662821
 20
9061.586699097421
 30
0.0
 11
7819.652174662821
 21
9049.586699097421
 31
0.0
  0
LINE
  5
44
330
17
100
AcDbEntity
  8
presilha
 62
7
370
25
100
AcDbLine
 10
7819.652174662821
 20
9049.586699097421
 30
0.0
 11
7820.652174662821
 21
9049.586699097421
 31
0.0
  0
LINE
  5
45
330
17
100
AcDbEntity
  8
presilha
 62
7
370
25
100
AcDbLine
 10
7820.652174662821
 20
9049.586699097421
 30
0.0
 11
7820.652174662821
 21
9061.586699097421
 31
0.0
  0
LINE
  5
46
330
17
100
AcDbEntity
  8
presilha
 62
7
370
25
100
AcDbLine
 10
7816.652174662823
 20
9065.253365764087
 30
0.0
 11
7816.652174662823
 21
9064.253365764087
 31
0.0
  0
LINE
  5
47
330
17
100
AcDbEntity
  8
presilha
 62
7
370
25
100
AcDbLine
 10
7799.65181015847
 20
9058.58669909742
 30
0.0
 11
7818.27181015847
 21
9058.58669909742
 31
0.0
  0
LINE
  5
48
330
17
100
AcDbEntity
  8
presilha
 62
7
370
25
100
AcDbLine
 10
7819.65181015847
 20
9058.34669909742
 30
0.0
 11
7819.652174662823
 21
9064.493365764089
 31
0.0
  0
LINE
  5
49
330
17
100
AcDbEntity
  8
presilha
 62
7
370
25
100
AcDbLine
 10
7818.651810158471
 20
9058.96669909742
 30
0.0
 11
7818.652174662823
 21
9063.873365764086
 31
0.0
  0
LINE
  5
4A
330
17
100
AcDbEntity
  8
presilha
 62
7
370
25
100
AcDbLine
 10
7816.652174662823
 20
9065.253365764087
 30
0.0
 11
7818.892174662843
 21
9065.253365764087
 31
0.0
  0
LINE
  5
4B
330
17
100
AcDbEntity
  8
presilha
 62
7
370
25
100
AcDbLine
 10
7816.652174662823
 20
9064.253365764087
 30
0.0
 11
7818.272174662823
 21
9064.253365764087
 31
0.0
  0
LINE
  5
4C
330
17
100
AcDbEntity
  8
presilha
 62
7
370
25
100
AcDbLine
 10
7824.652174662822
 20
9059.920032430755
 30
0.0
 11
7820.652174662822
 21
9059.920032430755
 31
0.0
  0
LINE
  5
4D
330
17
100
AcDbEntity
  8
presilha
 62
7
370
25
100
AcDbLine
 10
7820.652174662822
 20
9059.920032430755
 30
0.0
 11
7820.652174662822
 21
9051.253365764089
 31
0.0
  0
LINE
  5
4E
330
17
100
AcDbEntity
  8
presilha
 62
7
370
25
100
AcDbLine
 10
7820.652174662822
 20
9051.253365764089
 30
0.0
 11
7824.652174662822
 21
9051.253365764089
 31
0.0
  0
LINE
  5
4F
330
17
100
AcDbEntity
  8
presilha
 62
7
370
25
100
AcDbLine
 10
7824.652174662822
 20
9059.920032430755
 30
0.0
 11
7824.652174662822
 21
9051.253365764089
 31
0.0
  0
LINE
  5
50
330
17
100
AcDbEntity
  8
presilha
 62
7
370
25
100
AcDbLine
 10
7717.917411889386
 20
9058.58669909742
 30
0.0
 11
7717.917411889386
 21
9053.986859097435
 31
0.0
  0
LINE
  5
51
330
17
100
AcDbEntity
  8
presilha
 62
7
370
25
100
AcDbLine
 10
7717.917411889386
 20
9053.986859097435
 30
0.0
 11
7697.9170473850345
 21
9053.986859097427
 31
0.0
  0
LINE
  5
52
330
17
100
AcDbEntity
  8
presilha
 62
7
370
25
100
AcDbLine
 10
7696.9170473850345
 20
9061.586699097421
 30
0.0
 11
7697.9170473850345
 21
9061.586699097421
 31
0.0
  0
LINE
  5
53
330
17
100
AcDbEntity
  8
presilha
 62
7
370
25
100
AcDbLine
 10
7697.9170473850345
 20
9061.586699097421
 30
0.0
 11
7697.9170473850345
 21
9049.586699097421
 31
0.0
  0
LINE
  5
54
330
17
100
AcDbEntity
  8
presilha
 62
7
370
25
100
AcDbLine
 10
7697.9170473850345
 20
9049.586699097421
 30
0.0
 11
7696.9170473850345
 21
9049.586699097421
 31
0.0
  0
LINE
  5
55
330
17
100
AcDbEntity
  8
presilha
 62
7
370
25
100
AcDbLine
 10
7696.9170473850345
 20
9049.586699097421
 30
0.0
 11
7696.9170473850345
 21
9061.586699097421
 31
0.0
  0
LINE
  5
56
330
17
100
AcDbEntity
  8
presilha
 62
7
370
25
100
AcDbLine
 10
7700.917047385033
 20
9065.253365764087
 30
0.0
 11
7700.917047385033
 21
9064.253365764087
 31
0.0
  0
LINE
  5
57
330
17
100
AcDbEntity
  8
presilha
 62
7
370
25
100
AcDbLine
 10
7717.917411889386
 20
9058.58669909742
 30
0.0
 11
7699.297411889386
 21
9058.58669909742
 31
0.0
  0
LINE
  5
58
330
17
100
AcDbEntity
  8
presilha
 62
7
370
25
100
AcDbLine
 10
7697.917411889386
 20
9058.34669909742
 30
0.0
 11
7697.917047385033
 21
9064.493365764089
 31
0.0
  0
LINE
  5
59
330
17
100
AcDbEntity
  8
presilha
 62
7
370
25
100
AcDbLine
 10
7698.917411889385
 20
9058.96669909742
 30
0.0
 11
7698.917047385033
 21
9063.873365764086
 31
0.0
  0
LINE
  5
5A
330
17
100
AcDbEntity
  8
presilha
 62
7
370
25
100
AcDbLine
 10
7700.917047385033
 20
9065.253365764087
 30
0.0
 11
7698.677047385013
 21
9065.253365764087
 31
0.0
  0
LINE
  5
5B
330
17
100
AcDbEntity
  8
presilha
 62
7
370
25
100
AcDbLine
 10
7700.917047385033
 20
9064.253365764087
 30
0.0
 11
7699.297047385033
 21
9064.253365764087
 31
0.0
  0
LINE
  5
5C
330
17
100
AcDbEntity
  8
presilha
 62
7
370
25
100
AcDbLine
 10
7692.917047385034
 20
9059.920032430755
 30
0.0
 11
7696.917047385034
 21
9059.920032430755
 31
0.0
  0
LINE
  5
5D
330
17
100
AcDbEntity
  8
presilha
 62
7
370
25
100
AcDbLine
 10
7696.917047385034
 20
9059.920032430755
 30
0.0
 11
7696.917047385034
 21
9051.253365764089
 31
0.0
  0
LINE
  5
5E
330
17
100
AcDbEntity
  8
presilha
 62
7
370
25
100
AcDbLine
 10
7696.917047385034
 20
9051.253365764089
 30
0.0
 11
7692.917047385034
 21
9051.253365764089
 31
0.0
  0
LINE
  5
5F
330
17
100
AcDbEntity
  8
presilha
 62
7
370
25
100
AcDbLine
 10
7692.917047385034
 20
9059.920032430755
 30
0.0
 11
7692.917047385034
 21
9051.253365764089
 31
0.0
  0
LINE
  5
60
330
17
100
AcDbEntity
  8
0
 62
7
370
25
100
AcDbLine
 10
7825.784611023957
 20
9095.190089959011
 30
0.0
 11
7825.784611023957
 21
9083.190089959011
 31
0.0
  0
LINE
  5
61
330
17
100
AcDbEntity
  8
0
 62
7
370
25
100
AcDbLine
 10
7689.784611023928
 20
9092.190089959025
 30
0.0
 11
7689.784611023928
 21
9086.190089959025
 31
0.0
  0
LINE
  5
62
330
17
100
AcDbEntity
  8
0
 62
7
370
25
100
AcDbLine
 10
7691.784611023928
 20
9095.190089959025
 30
0.0
 11
7691.784611023928
 21
9083.190089959025
 31
0.0
  0
LINE
  5
63
330
17
100
AcDbEntity
  8
0
 62
7
370
25
100
AcDbLine
 10
7691.784611023928
 20
9086.190089959025
 30
0.0
 11
7689.784611023928
 21
9086.190089959025
 31
0.0
  0
LINE
  5
64
330
17
100
AcDbEntity
  8
0
 62
7
370
25
100
AcDbLine
 10
7825.784611023957
 20
9083.190089959011
 30
0.0
 11
7795.784611023957
 21
9083.190089959011
 31
0.0
  0
LINE
  5
65
330
17
100
AcDbEntity
  8
0
 62
7
370
25
100
AcDbLine
 10
7721.784611023927
 20
9088.190089959025
 30
0.0
 11
7691.784611023928
 21
9088.190089959025
 31
0.0
  0
LINE
  5
66
330
17
100
AcDbEntity
  8
0
 62
7
370
25
100
AcDbLine
 10
7721.784611023927
 20
9090.190089959025
 30
0.0
 11
7691.784611023928
 21
9090.190089959025
 31
0.0
  0
LINE
  5
67
330
17
100
AcDbEntity
  8
TENSOR
 62
7
370
25
100
AcDbLine
 10
7686.784611023928
 20
9089.190089959011
 30
0.0
 11
7831.087905202055
 21
9089.190089959011
 31
0.0
  0
LINE
  5
68
330
17
100
AcDbEntity
  8
0
 62
7
370
25
100
AcDbLine
 10
7691.784611023928
 20
9092.190089959025
 30
0.0
 11
7689.784611023928
 21
9092.190089959025
 31
0.0
  0
LINE
  5
69
330
17
100
AcDbEntity
  8
0
 62
7
370
25
100
AcDbLine
 10
7795.784611023957
 20
9088.190089959011
 30
0.0
 11
7825.784611023957
 21
9088.190089959011
 31
0.0
  0
LINE
  5
6A
330
17
100
AcDbEntity
  8
0
 62
7
370
25
100
AcDbLine
 10
7795.784611023957
 20
9090.190089959013
 30
0.0
 11
7825.784611023957
 21
9090.190089959013
 31
0.0
  0
LINE
  5
6B
330
17
100
AcDbEntity
  8
0
 62
7
370
25
100
AcDbLine
 10
7825.784611023957
 20
9095.190089959011
 30
0.0
 11
7795.784611023957
 21
9095.190089959011
 31
0.0
  0
LINE
  5
6C
330
17
100
AcDbEntity
  8
0
 62
7
370
25
100
AcDbLine
 10
7691.784611023928
 20
9083.190089959025
 30
0.0
 11
7721.784611023927
 21
9083.190089959025
 31
0.0
  0
LINE
  5
6D
330
17
100
AcDbEntity
  8
0
 62
7
370
25
100
AcDbLine
 10
7691.784611023928
 20
9095.190089959025
 30
0.0
 11
7721.784611023927
 21
9095.190089959025
 31
0.0
  0
LINE
  5
6E
330
17
100
AcDbEntity
  8
0
 62
7
370
25
100
AcDbLine
 10
7827.784611023957
 20
9092.190089959011
 30
0.0
 11
7827.784611023957
 21
9086.190089959011
 31
0.0
  0
LINE
  5
6F
330
17
100
AcDbEntity
  8
0
 62
7
370
25
100
AcDbLine
 10
7825.784611023957
 20
9086.190089959011
 30
0.0
 11
7827.784611023957
 21
9086.190089959011
 31
0.0
  0
LINE
  5
70
330
17
100
AcDbEntity
  8
0
 62
7
370
25
100
AcDbLine
 10
7827.784611023957
 20
9092.190089959011
 30
0.0
 11
7825.784611023957
 21
9092.190089959011
 31
0.0
  0
LINE
  5
71
330
17
100
AcDbEntity
  8
SARR_2.2x7
 62
7
370
25
100
AcDbLine
 10
7656.885893856667
 20
8690.831438407877
 30
0.0
 11
7732.885893856668
 21
8690.831438407877
 31
0.0
  0
LINE
  5
72
330
17
100
AcDbEntity
  8
SARR_2.2x7
 62
7
370
25
100
AcDbLine
 10
7732.885893856668
 20
8690.831438407877
 30
0.0
 11
7839.885893856669
 21
8690.831438407877
 31
0.0
  0
LINE
  5
73
330
17
100
AcDbEntity
  8
SARR_2.2x7
 62
7
370
25
100
AcDbLine
 10
7648.885893856668
 20
8663.031438407876
 30
0.0
 11
7648.885893856668
 21
8693.031438407874
 31
0.0
  0
LINE
  5
74
330
17
100
AcDbEntity
  8
SARR_2.2x7
 62
7
370
25
100
AcDbLine
 10
7847.885893856669
 20
8663.031438407876
 30
0.0
 11
7847.885893856669
 21
8693.031438407874
 31
0.0
  0
LINE
  5
75
330
17
100
AcDbEntity
  8
SARR_3.5x7
 62
7
370
25
100
AcDbLine
 10
7839.885893856669
 20
8693.03143840792
 30
0.0
 11
7839.885893856581
 21
8663.031438407876
 31
0.0
  0
LINE
  5
76
330
17
100
AcDbEntity
  8
SARR_3.5x7
 62
7
370
25
100
AcDbLine
 10
7836.385893856668
 20
8690.83143840792
 30
0.0
 11
7836.38589385664
 21
8663.031438407876
 31
0.0
  0
LINE
  5
77
330
17
100
AcDbEntity
  8
SARR_3.5x7
 62
7
370
25
100
AcDbLine
 10
7736.385893856698
 20
8690.83143840792
 30
0.0
 11
7736.385893856726
 21
8663.031438407876
 31
0.0
  0
LINE
  5
78
330
17
100
AcDbEntity
  8
SARR_3.5x7
 62
7
370
25
100
AcDbLine
 10
7729.38589385661
 20
8690.831438407979
 30
0.0
 11
7729.38589385658
 21
8663.031438407876
 31
0.0
  0
LINE
  5
79
330
17
100
AcDbEntity
  8
SARR_3.5x7
 62
7
370
25
100
AcDbLine
 10
7656.885893856667
 20
8693.031438407888
 30
0.0
 11
7656.885893856667
 21
8663.031438407876
 31
0.0
  0
LINE
  5
7A
330
17
100
AcDbEntity
  8
SARR_3.5x7
 62
7
370
25
100
AcDbLine
 10
7660.385893856669
 20
8690.831438407891
 30
0.0
 11
7660.385893856669
 21
8663.031438407876
 31
0.0
  0
LINE
  5
7B
330
17
100
AcDbEntity
  8
SARR_3.5x7
 62
7
370
25
100
AcDbLine
 10
7732.885893856668
 20
8690.831438407877
 30
0.0
 11
7732.885893856668
 21
8663.031438407888
 31
0.0
  0
LINE
  5
7C
330
17
100
AcDbEntity
  8
SARR_3.5x7
 62
7
370
25
100
AcDbLine
 10
7729.38589385658
 20
8663.031438407876
 30
0.0
 11
7732.885893856668
 21
8663.031438407876
 31
0.0
  0
LINE
  5
7D
330
17
100
AcDbEntity
  8
SARR_3.5x7
 62
7
370
25
100
AcDbLine
 10
7732.885893856668
 20
8663.031438407876
 30
0.0
 11
7736.385893856726
 21
8663.031438407876
 31
0.0
  0
LINE
  5
7E
330
17
100
AcDbEntity
  8
SARR_3.5x7
 62
7
370
25
100
AcDbLine
 10
7836.38589385664
 20
8663.031438407876
 30
0.0
 11
7839.885893856581
 21
8663.031438407876
 31
0.0
  0
LINE
  5
7F
330
17
100
AcDbEntity
  8
SARR_3.5x7
 62
7
370
25
100
AcDbLine
 10
7656.885893856667
 20
8663.031438407876
 30
0.0
 11
7660.385893856669
 21
8663.031438407876
 31
0.0
  0
LINE
  5
80
330
17
100
AcDbEntity
  8
Painéis
 62
7
370
25
100
AcDbLine
 10
7641.885893856668
 20
8693.031438407874
 30
0.0
 11
7854.885893856668
 21
8693.031438407874
 31
0.0
  0
LINE
  5
81
330
17
100
AcDbEntity
  8
Painéis
 62
7
370
25
100
AcDbLine
 10
7641.885893856668
 20
8663.031438407876
 30
0.0
 11
7854.885893856668
 21
8663.031438407876
 31
0.0
  0
LINE
  5
82
330
17
100
AcDbEntity
  8
Painéis
 62
7
370
25
100
AcDbLine
 10
7641.885893856668
 20
8663.031438407876
 30
0.0
 11
7641.885893856668
 21
8693.031438407874
 31
0.0
  0
LINE
  5
83
330
17
100
AcDbEntity
  8
Painéis
 62
7
370
25
100
AcDbLine
 10
7732.885893856668
 20
8663.031438407876
 30
0.0
 11
7732.885893856668
 21
8693.031438407874
 31
0.0
  0
LINE
  5
84
330
17
100
AcDbEntity
  8
Painéis
 62
7
370
25
100
AcDbLine
 10
7854.885893856668
 20
8663.031438407876
 30
0.0
 11
7854.885893856668
 21
8693.031438407874
 31
0.0
  0
LINE
  5
85
330
17
100
AcDbEntity
  8
SARR_2.2x7
 62
7
370
25
100
AcDbLine
 10
7657.540454065241
 20
8904.097261889976
 30
0.0
 11
7764.540454065242
 21
8904.097261889976
 31
0.0
  0
LINE
  5
86
330
17
100
AcDbEntity
  8
SARR_2.2x7
 62
7
370
25
100
AcDbLine
 10
7764.540454065242
 20
8904.097261889976
 30
0.0
 11
7810.540454065241
 21
8904.097261889976
 31
0.0
  0
LINE
  5
87
330
17
100
AcDbEntity
  8
SARR_2.2x7
 62
7
370
25
100
AcDbLine
 10
7649.540454065242
 20
8862.297261889975
 30
0.0
 11
7649.540454065242
 21
8906.297261889973
 31
0.0
  0
LINE
  5
88
330
17
100
AcDbEntity
  8
SARR_2.2x7
 62
7
370
25
100
AcDbLine
 10
7818.540454065241
 20
8862.297261889975
 30
0.0
 11
7818.540454065241
 21
8906.297261889973
 31
0.0
  0
LINE
  5
89
330
17
100
AcDbEntity
  8
SARR_3.5x7
 62
7
370
25
100
AcDbLine
 10
7810.540454065241
 20
8906.297261890015
 30
0.0
 11
7810.540454065154
 21
8862.297261889975
 31
0.0
  0
LINE
  5
8A
330
17
100
AcDbEntity
  8
SARR_3.5x7
 62
7
370
25
100
AcDbLine
 10
7807.040454065242
 20
8904.09726189002
 30
0.0
 11
7807.040454065212
 21
8862.297261889975
 31
0.0
  0
LINE
  5
8B
330
17
100
AcDbEntity
  8
SARR_3.5x7
 62
7
370
25
100
AcDbLine
 10
7768.04045406527
 20
8904.09726189002
 30
0.0
 11
7768.0404540653
 21
8862.297261889975
 31
0.0
  0
LINE
  5
8C
330
17
100
AcDbEntity
  8
SARR_3.5x7
 62
7
370
25
100
AcDbLine
 10
7761.040454065184
 20
8904.097261890078
 30
0.0
 11
7761.040454065154
 21
8862.297261889975
 31
0.0
  0
LINE
  5
8D
330
17
100
AcDbEntity
  8
SARR_3.5x7
 62
7
370
25
100
AcDbLine
 10
7657.540454065241
 20
8906.297261889988
 30
0.0
 11
7657.540454065241
 21
8862.297261889975
 31
0.0
  0
LINE
  5
8E
330
17
100
AcDbEntity
  8
SARR_3.5x7
 62
7
370
25
100
AcDbLine
 10
7661.040454065243
 20
8904.09726188999
 30
0.0
 11
7661.040454065243
 21
8862.297261889975
 31
0.0
  0
LINE
  5
8F
330
17
100
AcDbEntity
  8
SARR_3.5x7
 62
7
370
25
100
AcDbLine
 10
7764.540454065242
 20
8904.097261889976
 30
0.0
 11
7764.540454065242
 21
8862.297261889988
 31
0.0
  0
LINE
  5
90
330
17
100
AcDbEntity
  8
SARR_3.5x7
 62
7
370
25
100
AcDbLine
 10
7761.040454065154
 20
8862.297261889975
 30
0.0
 11
7764.540454065242
 21
8862.297261889975
 31
0.0
  0
LINE
  5
91
330
17
100
AcDbEntity
  8
SARR_3.5x7
 62
7
370
25
100
AcDbLine
 10
7764.540454065242
 20
8862.297261889975
 30
0.0
 11
7768.0404540653
 21
8862.297261889975
 31
0.0
  0
LINE
  5
92
330
17
100
AcDbEntity
  8
SARR_3.5x7
 62
7
370
25
100
AcDbLine
 10
7807.040454065212
 20
8862.297261889975
 30
0.0
 11
7810.540454065154
 21
8862.297261889975
 31
0.0
  0
LINE
  5
93
330
17
100
AcDbEntity
  8
SARR_3.5x7
 62
7
370
25
100
AcDbLine
 10
7657.540454065241
 20
8862.297261889975
 30
0.0
 11
7661.040454065243
 21
8862.297261889975
 31
0.0
  0
LINE
  5
94
330
17
100
AcDbEntity
  8
Painéis
 62
7
370
25
100
AcDbLine
 10
7642.540454065242
 20
8906.297261889973
 30
0.0
 11
7825.540454065242
 21
8906.297261889973
 31
0.0
  0
LINE
  5
95
330
17
100
AcDbEntity
  8
Painéis
 62
7
370
25
100
AcDbLine
 10
7642.540454065242
 20
8862.297261889975
 30
0.0
 11
7825.540454065242
 21
8862.297261889975
 31
0.0
  0
LINE
  5
96
330
17
100
AcDbEntity
  8
Painéis
 62
7
370
25
100
AcDbLine
 10
7642.540454065242
 20
8862.297261889975
 30
0.0
 11
7642.540454065242
 21
8906.297261889973
 31
0.0
  0
LINE
  5
97
330
17
100
AcDbEntity
  8
Painéis
 62
7
370
25
100
AcDbLine
 10
7764.540454065242
 20
8862.297261889975
 30
0.0
 11
7764.540454065242
 21
8906.297261889973
 31
0.0
  0
LINE
  5
98
330
17
100
AcDbEntity
  8
Painéis
 62
7
370
25
100
AcDbLine
 10
7825.540454065242
 20
8862.297261889975
 30
0.0
 11
7825.540454065242
 21
8906.297261889973
 31
0.0
  0
LINE
  5
99
330
17
100
AcDbEntity
  8
COTA
 62
7
370
25
100
AcDbLine
 10
7854.885893856668
 20
8693.031438407874
 30
0.0
 11
7854.885893856668
 21
8707.031438407874
 31
0.0
  0
LINE
  5
9A
330
17
100
AcDbEntity
  8
COTA
 62
7
370
25
100
AcDbLine
 10
7854.885893856668
 20
8707.031438407874
 30
0.0
 11
7641.885893856668
 21
8707.03143840787
 31
0.0
  0
LINE
  5
9B
330
17
100
AcDbEntity
  8
COTA
 62
7
370
25
100
AcDbLine
 10
7641.885893856668
 20
8707.03143840787
 30
0.0
 11
7641.885893856668
 21
8693.031438407874
 31
0.0
  0
LINE
  5
9C
330
17
100
AcDbEntity
  8
SARR_3.5x7
 62
7
370
25
100
AcDbLine
 10
7785.790454065213
 20
8904.097261889976
 30
0.0
 11
7785.790454065213
 21
8862.297261889975
 31
0.0
  0
LINE
  5
9D
330
17
100
AcDbEntity
  8
SARR_3.5x7
 62
7
370
25
100
AcDbLine
 10
7789.290454065213
 20
8904.097261889976
 30
0.0
 11
7789.290454065211
 21
8862.297261889975
 31
0.0
  0
LINE
  5
9E
330
17
100
AcDbEntity
  8
SARR_2.2x7
 62
7
370
25
100
AcDbLine
 10
8131.552779187517
 20
8875.213111982112
 30
0.0
 11
8177.552779187518
 21
8875.213111982112
 31
0.0
  0
LINE
  5
9F
330
17
100
AcDbEntity
  8
SARR_2.2x7
 62
7
370
25
100
AcDbLine
 10
8177.552779187518
 20
8875.213111982112
 30
0.0
 11
8230.552779187517
 21
8875.213111982112
 31
0.0
  0
LINE
  5
A0
330
17
100
AcDbEntity
  8
SARR_2.2x7
 62
7
370
25
100
AcDbLine
 10
8123.552779187518
 20
8827.413111982107
 30
0.0
 11
8123.552779187518
 21
8877.413111982107
 31
0.0
  0
LINE
  5
A1
330
17
100
AcDbEntity
  8
SARR_2.2x7
 62
7
370
25
100
AcDbLine
 10
8238.552779187517
 20
8827.413111982107
 30
0.0
 11
8238.552779187517
 21
8877.413111982107
 31
0.0
  0
LINE
  5
A2
330
17
100
AcDbEntity
  8
SARR_3.5x7
 62
7
370
25
100
AcDbLine
 10
8230.552779187517
 20
8877.41311198215
 30
0.0
 11
8230.55277918743
 21
8827.413111982107
 31
0.0
  0
LINE
  5
A3
330
17
100
AcDbEntity
  8
SARR_3.5x7
 62
7
370
25
100
AcDbLine
 10
8227.052779187517
 20
8875.213111982153
 30
0.0
 11
8227.052779187488
 21
8827.413111982107
 31
0.0
  0
LINE
  5
A4
330
17
100
AcDbEntity
  8
SARR_3.5x7
 62
7
370
25
100
AcDbLine
 10
8181.052779187547
 20
8875.213111982153
 30
0.0
 11
8181.052779187576
 21
8827.413111982107
 31
0.0
  0
LINE
  5
A5
330
17
100
AcDbEntity
  8
SARR_3.5x7
 62
7
370
25
100
AcDbLine
 10
8174.05277918746
 20
8875.213111982212
 30
0.0
 11
8174.05277918743
 21
8827.413111982107
 31
0.0
  0
LINE
  5
A6
330
17
100
AcDbEntity
  8
SARR_3.5x7
 62
7
370
25
100
AcDbLine
 10
8131.552779187517
 20
8877.413111982121
 30
0.0
 11
8131.552779187517
 21
8827.413111982107
 31
0.0
  0
LINE
  5
A7
330
17
100
AcDbEntity
  8
SARR_3.5x7
 62
7
370
25
100
AcDbLine
 10
8135.052779187518
 20
8875.213111982124
 30
0.0
 11
8135.052779187518
 21
8827.413111982107
 31
0.0
  0
LINE
  5
A8
330
17
100
AcDbEntity
  8
SARR_3.5x7
 62
7
370
25
100
AcDbLine
 10
8177.552779187518
 20
8875.213111982112
 30
0.0
 11
8177.552779187518
 21
8827.413111982123
 31
0.0
  0
LINE
  5
A9
330
17
100
AcDbEntity
  8
SARR_3.5x7
 62
7
370
25
100
AcDbLine
 10
8174.05277918743
 20
8827.413111982107
 30
0.0
 11
8177.552779187518
 21
8827.413111982107
 31
0.0
  0
LINE
  5
AA
330
17
100
AcDbEntity
  8
SARR_3.5x7
 62
7
370
25
100
AcDbLine
 10
8177.552779187518
 20
8827.413111982107
 30
0.0
 11
8181.052779187576
 21
8827.413111982107
 31
0.0
  0
LINE
  5
AB
330
17
100
AcDbEntity
  8
SARR_3.5x7
 62
7
370
25
100
AcDbLine
 10
8227.052779187488
 20
8827.413111982107
 30
0.0
 11
8230.55277918743
 21
8827.413111982107
 31
0.0
  0
LINE
  5
AC
330
17
100
AcDbEntity
  8
SARR_3.5x7
 62
7
370
25
100
AcDbLine
 10
8131.552779187517
 20
8827.413111982107
 30
0.0
 11
8135.052779187518
 21
8827.413111982107
 31
0.0
  0
LINE
  5
AD
330
17
100
AcDbEntity
  8
Painéis
 62
7
370
25
100
AcDbLine
 10
8116.552779187518
 20
8877.413111982107
 30
0.0
 11
8245.552779187517
 21
8877.413111982107
 31
0.0
  0
LINE
  5
AE
330
17
100
AcDbEntity
  8
Painéis
 62
7
370
25
100
AcDbLine
 10
8116.552779187518
 20
8827.413111982107
 30
0.0
 11
8245.552779187517
 21
8827.413111982107
 31
0.0
  0
LINE
  5
AF
330
17
100
AcDbEntity
  8
Painéis
 62
7
370
25
100
AcDbLine
 10
8116.552779187518
 20
8827.413111982107
 30
0.0
 11
8116.552779187518
 21
8877.413111982107
 31
0.0
  0
LINE
  5
B0
330
17
100
AcDbEntity
  8
Painéis
 62
7
370
25
100
AcDbLine
 10
8177.552779187518
 20
8827.413111982107
 30
0.0
 11
8177.552779187518
 21
8877.413111982107
 31
0.0
  0
LINE
  5
B1
330
17
100
AcDbEntity
  8
Painéis
 62
7
370
25
100
AcDbLine
 10
8245.552779187517
 20
8827.413111982107
 30
0.0
 11
8245.552779187517
 21
8877.413111982107
 31
0.0
  0
LINE
  5
B2
330
17
100
AcDbEntity
  8
SARR_3.5x7
 62
7
370
25
100
AcDbLine
 10
8152.802779187489
 20
8875.213111982112
 30
0.0
 11
8152.802779187489
 21
8827.413111982092
 31
0.0
  0
LINE
  5
B3
330
17
100
AcDbEntity
  8
SARR_3.5x7
 62
7
370
25
100
AcDbLine
 10
8156.302779187489
 20
8875.213111982112
 30
0.0
 11
8156.302779187489
 21
8827.413111982092
 31
0.0
  0
LINE
  5
B4
330
17
100
AcDbEntity
  8
COTA
 62
7
370
25
100
AcDbLine
 10
8245.552779187517
 20
8877.413111982107
 30
0.0
 11
8245.552779187517
 21
8891.413111982107
 31
0.0
  0
LINE
  5
B5
330
17
100
AcDbEntity
  8
COTA
 62
7
370
25
100
AcDbLine
 10
8245.552779187517
 20
8891.413111982107
 30
0.0
 11
8116.552779187518
 21
8891.413111982103
 31
0.0
  0
LINE
  5
B6
330
17
100
AcDbEntity
  8
COTA
 62
7
370
25
100
AcDbLine
 10
8116.552779187518
 20
8891.413111982103
 30
0.0
 11
8116.552779187518
 21
8877.413111982107
 31
0.0
  0
LINE
  5
B7
330
17
100
AcDbEntity
  8
SARR_3.5x7
 62
7
370
25
100
AcDbLine
 10
8207.302779187547
 20
8875.213111982112
 30
0.0
 11
8207.302779187547
 21
8827.413111982092
 31
0.0
  0
LINE
  5
B8
330
17
100
AcDbEntity
  8
SARR_3.5x7
 62
7
370
25
100
AcDbLine
 10
8203.802779187547
 20
8875.213111982112
 30
0.0
 11
8203.802779187547
 21
8827.413111982092
 31
0.0
  0
LINE
  5
B9
330
17
100
AcDbEntity
  8
Defpoints
 62
7
370
25
100
AcDbLine
 10
8508.219407494204
 20
9147.22003243072
 30
0.0
 11
8508.219407494204
 21
9272.22003243072
 31
0.0
  0
LINE
  5
BA
330
17
100
AcDbEntity
  8
presilha
 62
7
370
25
100
AcDbLine
 10
8546.88660662875
 20
9018.58669909742
 30
0.0
 11
8546.88660662875
 21
9013.986859097435
 31
0.0
  0
LINE
  5
BB
330
17
100
AcDbEntity
  8
presilha
 62
7
370
25
100
AcDbLine
 10
8546.88660662875
 20
9013.986859097435
 30
0.0
 11
8566.886971133103
 21
9013.986859097427
 31
0.0
  0
LINE
  5
BC
330
17
100
AcDbEntity
  8
presilha
 62
7
370
25
100
AcDbLine
 10
8567.886971133103
 20
9021.586699097421
 30
0.0
 11
8566.886971133103
 21
9021.586699097421
 31
0.0
  0
LINE
  5
BD
330
17
100
AcDbEntity
  8
presilha
 62
7
370
25
100
AcDbLine
 10
8566.886971133103
 20
9021.586699097421
 30
0.0
 11
8566.886971133103
 21
9009.586699097421
 31
0.0
  0
LINE
  5
BE
330
17
100
AcDbEntity
  8
presilha
 62
7
370
25
100
AcDbLine
 10
8566.886971133103
 20
9009.586699097421
 30
0.0
 11
8567.886971133103
 21
9009.586699097421
 31
0.0
  0
LINE
  5
BF
330
17
100
AcDbEntity
  8
presilha
 62
7
370
25
100
AcDbLine
 10
8567.886971133103
 20
9009.586699097421
 30
0.0
 11
8567.886971133103
 21
9021.586699097421
 31
0.0
  0
LINE
  5
C0
330
17
100
AcDbEntity
  8
presilha
 62
7
370
25
100
AcDbLine
 10
8563.886971133104
 20
9025.253365764087
 30
0.0
 11
8563.886971133104
 21
9024.253365764087
 31
0.0
  0
LINE
  5
C1
330
17
100
AcDbEntity
  8
presilha
 62
7
370
25
100
AcDbLine
 10
8546.88660662875
 20
9018.58669909742
 30
0.0
 11
8565.506606628749
 21
9018.58669909742
 31
0.0
  0
LINE
  5
C2
330
17
100
AcDbEntity
  8
presilha
 62
7
370
25
100
AcDbLine
 10
8566.88660662875
 20
9018.34669909742
 30
0.0
 11
8566.886971133104
 21
9024.493365764089
 31
0.0
  0
LINE
  5
C3
330
17
100
AcDbEntity
  8
presilha
 62
7
370
25
100
AcDbLine
 10
8565.88660662875
 20
9018.96669909742
 30
0.0
 11
8565.886971133104
 21
9023.873365764086
 31
0.0
  0
LINE
  5
C4
330
17
100
AcDbEntity
  8
presilha
 62
7
370
25
100
AcDbLine
 10
8563.886971133104
 20
9025.253365764087
 30
0.0
 11
8566.126971133124
 21
9025.253365764087
 31
0.0
  0
LINE
  5
C5
330
17
100
AcDbEntity
  8
presilha
 62
7
370
25
100
AcDbLine
 10
8563.886971133104
 20
9024.253365764087
 30
0.0
 11
8565.506971133103
 21
9024.253365764087
 31
0.0
  0
LINE
  5
C6
330
17
100
AcDbEntity
  8
presilha
 62
7
370
25
100
AcDbLine
 10
8571.886971133103
 20
9019.920032430755
 30
0.0
 11
8567.886971133103
 21
9019.920032430755
 31
0.0
  0
LINE
  5
C7
330
17
100
AcDbEntity
  8
presilha
 62
7
370
25
100
AcDbLine
 10
8567.886971133103
 20
9019.920032430755
 30
0.0
 11
8567.886971133103
 21
9011.253365764089
 31
0.0
  0
LINE
  5
C8
330
17
100
AcDbEntity
  8
presilha
 62
7
370
25
100
AcDbLine
 10
8567.886971133103
 20
9011.253365764089
 30
0.0
 11
8571.886971133103
 21
9011.253365764089
 31
0.0
  0
LINE
  5
C9
330
17
100
AcDbEntity
  8
presilha
 62
7
370
25
100
AcDbLine
 10
8571.886971133103
 20
9019.920032430755
 30
0.0
 11
8571.886971133103
 21
9011.253365764089
 31
0.0
  0
LINE
  5
CA
330
17
100
AcDbEntity
  8
presilha
 62
7
370
25
100
AcDbLine
 10
8465.152208359665
 20
9018.58669909742
 30
0.0
 11
8465.152208359665
 21
9013.986859097435
 31
0.0
  0
LINE
  5
CB
330
17
100
AcDbEntity
  8
presilha
 62
7
370
25
100
AcDbLine
 10
8465.152208359665
 20
9013.986859097435
 30
0.0
 11
8445.151843855312
 21
9013.986859097427
 31
0.0
  0
LINE
  5
CC
330
17
100
AcDbEntity
  8
presilha
 62
7
370
25
100
AcDbLine
 10
8444.151843855312
 20
9021.586699097421
 30
0.0
 11
8445.151843855312
 21
9021.586699097421
 31
0.0
  0
LINE
  5
CD
330
17
100
AcDbEntity
  8
presilha
 62
7
370
25
100
AcDbLine
 10
8445.151843855312
 20
9021.586699097421
 30
0.0
 11
8445.151843855312
 21
9009.586699097421
 31
0.0
  0
LINE
  5
CE
330
17
100
AcDbEntity
  8
presilha
 62
7
370
25
100
AcDbLine
 10
8445.151843855312
 20
9009.586699097421
 30
0.0
 11
8444.151843855312
 21
9009.586699097421
 31
0.0
  0
LINE
  5
CF
330
17
100
AcDbEntity
  8
presilha
 62
7
370
25
100
AcDbLine
 10
8444.151843855312
 20
9009.586699097421
 30
0.0
 11
8444.151843855312
 21
9021.586699097421
 31
0.0
  0
LINE
  5
D0
330
17
100
AcDbEntity
  8
presilha
 62
7
370
25
100
AcDbLine
 10
8448.15184385531
 20
9025.253365764087
 30
0.0
 11
8448.15184385531
 21
9024.253365764087
 31
0.0
  0
LINE
  5
D1
330
17
100
AcDbEntity
  8
presilha
 62
7
370
25
100
AcDbLine
 10
8465.152208359665
 20
9018.58669909742
 30
0.0
 11
8446.532208359666
 21
9018.58669909742
 31
0.0
  0
LINE
  5
D2
330
17
100
AcDbEntity
  8
presilha
 62
7
370
25
100
AcDbLine
 10
8445.152208359665
 20
9018.34669909742
 30
0.0
 11
8445.15184385531
 21
9024.493365764089
 31
0.0
  0
LINE
  5
D3
330
17
100
AcDbEntity
  8
presilha
 62
7
370
25
100
AcDbLine
 10
8446.152208359665
 20
9018.96669909742
 30
0.0
 11
8446.15184385531
 21
9023.873365764086
 31
0.0
  0
LINE
  5
D4
330
17
100
AcDbEntity
  8
presilha
 62
7
370
25
100
AcDbLine
 10
8448.15184385531
 20
9025.253365764087
 30
0.0
 11
8445.91184385529
 21
9025.253365764087
 31
0.0
  0
LINE
  5
D5
330
17
100
AcDbEntity
  8
presilha
 62
7
370
25
100
AcDbLine
 10
8448.15184385531
 20
9024.253365764087
 30
0.0
 11
8446.531843855311
 21
9024.253365764087
 31
0.0
  0
LINE
  5
D6
330
17
100
AcDbEntity
  8
presilha
 62
7
370
25
100
AcDbLine
 10
8440.151843855312
 20
9019.920032430755
 30
0.0
 11
8444.151843855312
 21
9019.920032430755
 31
0.0
  0
LINE
  5
D7
330
17
100
AcDbEntity
  8
presilha
 62
7
370
25
100
AcDbLine
 10
8444.151843855312
 20
9019.920032430755
 30
0.0
 11
8444.151843855312
 21
9011.253365764089
 31
0.0
  0
LINE
  5
D8
330
17
100
AcDbEntity
  8
presilha
 62
7
370
25
100
AcDbLine
 10
8444.151843855312
 20
9011.253365764089
 30
0.0
 11
8440.151843855312
 21
9011.253365764089
 31
0.0
  0
LINE
  5
D9
330
17
100
AcDbEntity
  8
presilha
 62
7
370
25
100
AcDbLine
 10
8440.151843855312
 20
9019.920032430755
 30
0.0
 11
8440.151843855312
 21
9011.253365764089
 31
0.0
  0
LINE
  5
DA
330
17
100
AcDbEntity
  8
0
 62
7
370
25
100
AcDbLine
 10
8573.019407494236
 20
9075.190089959011
 30
0.0
 11
8573.019407494236
 21
9063.190089959011
 31
0.0
  0
LINE
  5
DB
330
17
100
AcDbEntity
  8
0
 62
7
370
25
100
AcDbLine
 10
8437.019407494206
 20
9072.190089959025
 30
0.0
 11
8437.019407494206
 21
9066.190089959025
 31
0.0
  0
LINE
  5
DC
330
17
100
AcDbEntity
  8
0
 62
7
370
25
100
AcDbLine
 10
8439.019407494206
 20
9075.190089959025
 30
0.0
 11
8439.019407494206
 21
9063.190089959027
 31
0.0
  0
LINE
  5
DD
330
17
100
AcDbEntity
  8
0
 62
7
370
25
100
AcDbLine
 10
8439.019407494206
 20
9066.190089959025
 30
0.0
 11
8437.019407494206
 21
9066.190089959025
 31
0.0
  0
LINE
  5
DE
330
17
100
AcDbEntity
  8
0
 62
7
370
25
100
AcDbLine
 10
8573.019407494236
 20
9063.190089959011
 30
0.0
 11
8543.019407494236
 21
9063.190089959011
 31
0.0
  0
LINE
  5
DF
330
17
100
AcDbEntity
  8
0
 62
7
370
25
100
AcDbLine
 10
8469.019407494206
 20
9068.190089959025
 30
0.0
 11
8439.019407494206
 21
9068.190089959025
 31
0.0
  0
LINE
  5
E0
330
17
100
AcDbEntity
  8
0
 62
7
370
25
100
AcDbLine
 10
8469.019407494206
 20
9070.190089959025
 30
0.0
 11
8439.019407494206
 21
9070.190089959025
 31
0.0
  0
LINE
  5
E1
330
17
100
AcDbEntity
  8
TENSOR
 62
7
370
25
100
AcDbLine
 10
8434.019407494206
 20
9069.190089959011
 30
0.0
 11
8578.322701672334
 21
9069.190089959011
 31
0.0
  0
LINE
  5
E2
330
17
100
AcDbEntity
  8
0
 62
7
370
25
100
AcDbLine
 10
8439.019407494206
 20
9072.190089959025
 30
0.0
 11
8437.019407494206
 21
9072.190089959025
 31
0.0
  0
LINE
  5
E3
330
17
100
AcDbEntity
  8
0
 62
7
370
25
100
AcDbLine
 10
8543.019407494236
 20
9068.19008995901
 30
0.0
 11
8573.019407494236
 21
9068.19008995901
 31
0.0
  0
LINE
  5
E4
330
17
100
AcDbEntity
  8
0
 62
7
370
25
100
AcDbLine
 10
8543.019407494236
 20
9070.190089959011
 30
0.0
 11
8573.019407494236
 21
9070.190089959011
 31
0.0
  0
LINE
  5
E5
330
17
100
AcDbEntity
  8
0
 62
7
370
25
100
AcDbLine
 10
8573.019407494236
 20
9075.190089959011
 30
0.0
 11
8543.019407494236
 21
9075.190089959011
 31
0.0
  0
LINE
  5
E6
330
17
100
AcDbEntity
  8
0
 62
7
370
25
100
AcDbLine
 10
8439.019407494206
 20
9063.190089959027
 30
0.0
 11
8469.019407494206
 21
9063.190089959027
 31
0.0
  0
LINE
  5
E7
330
17
100
AcDbEntity
  8
0
 62
7
370
25
100
AcDbLine
 10
8439.019407494206
 20
9075.190089959025
 30
0.0
 11
8469.019407494206
 21
9075.190089959025
 31
0.0
  0
LINE
  5
E8
330
17
100
AcDbEntity
  8
0
 62
7
370
25
100
AcDbLine
 10
8575.019407494236
 20
9072.190089959011
 30
0.0
 11
8575.019407494236
 21
9066.190089959011
 31
0.0
  0
LINE
  5
E9
330
17
100
AcDbEntity
  8
0
 62
7
370
25
100
AcDbLine
 10
8573.019407494236
 20
9066.190089959011
 30
0.0
 11
8575.019407494236
 21
9066.190089959011
 31
0.0
  0
LINE
  5
EA
330
17
100
AcDbEntity
  8
0
 62
7
370
25
100
AcDbLine
 10
8575.019407494236
 20
9072.190089959011
 30
0.0
 11
8573.019407494236
 21
9072.190089959011
 31
0.0
  0
LINE
  5
EB
330
17
100
AcDbEntity
  8
SARR_3.5x7
 62
7
370
25
100
AcDbLine
 10
8152.802779187489
 20
8827.413111982092
 30
0.0
 11
8156.302779187489
 21
8827.413111982092
 31
0.0
  0
LINE
  5
EC
330
17
100
AcDbEntity
  8
SARR_2.2x7
 62
7
370
25
100
AcDbLine
 10
8289.916781124542
 20
8889.21311198211
 30
0.0
 11
8450.91678112454
 21
8889.21311198212
 31
0.0
  0
LINE
  5
ED
330
17
100
AcDbEntity
  8
SARR_2.2x7
 62
7
370
25
100
AcDbLine
 10
8281.916781124544
 20
8827.413111982107
 30
0.0
 11
8281.91678112454
 21
8891.413111982107
 31
0.0
  0
LINE
  5
EE
330
17
100
AcDbEntity
  8
SARR_3.5x7
 62
7
370
25
100
AcDbLine
 10
8481.416781124568
 20
8889.21311198217
 30
0.0
 11
8481.4167811246
 21
8827.413111982123
 31
0.0
  0
LINE
  5
EF
330
17
100
AcDbEntity
  8
SARR_3.5x7
 62
7
370
25
100
AcDbLine
 10
8289.91678112454
 20
8891.413111982123
 30
0.0
 11
8289.916781124544
 21
8827.413111982107
 31
0.0
  0
LINE
  5
F0
330
17
100
AcDbEntity
  8
SARR_3.5x7
 62
7
370
25
100
AcDbLine
 10
8293.416781124542
 20
8889.213111982124
 30
0.0
 11
8293.416781124544
 21
8827.413111982107
 31
0.0
  0
LINE
  5
F1
330
17
100
AcDbEntity
  8
SARR_3.5x7
 62
7
370
25
100
AcDbLine
 10
8477.916781124539
 20
8889.213111982124
 30
0.0
 11
8477.916781124542
 21
8827.413111982138
 31
0.0
  0
LINE
  5
F2
330
17
100
AcDbEntity
  8
SARR_3.5x7
 62
7
370
25
100
AcDbLine
 10
8474.416781124455
 20
8827.413111982123
 30
0.0
 11
8477.916781124542
 21
8827.413111982123
 31
0.0
  0
LINE
  5
F3
330
17
100
AcDbEntity
  8
SARR_3.5x7
 62
7
370
25
100
AcDbLine
 10
8477.916781124542
 20
8827.413111982123
 30
0.0
 11
8481.4167811246
 21
8827.413111982123
 31
0.0
  0
LINE
  5
F4
330
17
100
AcDbEntity
  8
SARR_3.5x7
 62
7
370
25
100
AcDbLine
 10
8289.916781124544
 20
8827.413111982107
 30
0.0
 11
8293.416781124544
 21
8827.413111982107
 31
0.0
  0
LINE
  5
F5
330
17
100
AcDbEntity
  8
Painéis
 62
7
370
25
100
AcDbLine
 10
8274.916781124539
 20
8891.413111982107
 30
0.0
 11
8450.91678112454
 21
8891.413111982114
 31
0.0
  0
LINE
  5
F6
330
17
100
AcDbEntity
  8
Painéis
 62
7
370
25
100
AcDbLine
 10
8274.916781124542
 20
8827.413111982107
 30
0.0
 11
8852.916781124544
 21
8827.41311198213
 31
0.0
  0
LINE
  5
F7
330
17
100
AcDbEntity
  8
Painéis
 62
7
370
25
100
AcDbLine
 10
8477.916781124542
 20
8827.413111982123
 30
0.0
 11
8477.916781124539
 21
8891.413111982123
 31
0.0
  0
LINE
  5
F8
330
17
100
AcDbEntity
  8
Painéis
 62
7
370
25
100
AcDbLine
 10
8274.916781124542
 20
8827.413111982107
 30
0.0
 11
8274.916781124542
 21
8891.413111982107
 31
0.0
  0
LINE
  5
F9
330
17
100
AcDbEntity
  8
Painéis
 62
7
370
25
100
AcDbLine
 10
8477.91678112454
 20
8837.413111982112
 30
0.0
 11
8450.91678112454
 21
8837.413111982112
 31
0.0
  0
LINE
  5
FA
330
17
100
AcDbEntity
  8
Painéis
 62
7
370
25
100
AcDbLine
 10
8450.91678112454
 20
8837.413111982112
 30
0.0
 11
8450.91678112454
 21
8891.413111982114
 31
0.0
  0
LINE
  5
FB
330
17
100
AcDbEntity
  8
SARR_3.5x7
 62
7
370
25
100
AcDbLine
 10
8447.416781124492
 20
8889.21311198212
 30
0.0
 11
8447.416781124453
 21
8827.413111982123
 31
0.0
  0
LINE
  5
FC
330
17
100
AcDbEntity
  8
SARR_2.2x7
 62
7
370
25
100
AcDbLine
 10
8450.916781124535
 20
8835.213111982128
 30
0.0
 11
8477.91678112454
 21
8835.213111982124
 31
0.0
  0
LINE
  5
FD
330
17
100
AcDbEntity
  8
SARR_3.5x7
 62
7
370
25
100
AcDbLine
 10
8474.416781124482
 20
8835.213111982224
 30
0.0
 11
8474.416781124475
 21
8827.413111982123
 31
0.0
  0
LINE
  5
FE
330
17
100
AcDbEntity
  8
SARR_3.5x7
 62
7
370
25
100
AcDbLine
 10
8450.916781124572
 20
8889.21311198212
 30
0.0
 11
8450.916781124532
 21
8827.413111982123
 31
0.0
  0
LINE
  5
FF
330
17
100
AcDbEntity
  8
COTA
 62
7
370
25
100
AcDbLine
 10
8450.91678112454
 20
8891.413111982114
 30
0.0
 11
8477.916781124539
 21
8891.413111982123
 31
0.0
  0
LINE
  5
100
330
17
100
AcDbEntity
  8
SARR_2.2x7
 62
7
370
25
100
AcDbLine
 10
8837.91678112454
 20
8889.21311198211
 30
0.0
 11
8676.916781124542
 21
8889.21311198212
 31
0.0
  0
LINE
  5
101
330
17
100
AcDbEntity
  8
SARR_2.2x7
 62
7
370
25
100
AcDbLine
 10
8845.91678112454
 20
8827.413111982107
 30
0.0
 11
8845.91678112454
 21
8891.413111982107
 31
0.0
  0
LINE
  5
102
330
17
100
AcDbEntity
  8
SARR_3.5x7
 62
7
370
25
100
AcDbLine
 10
8646.416781124512
 20
8889.21311198217
 30
0.0
 11
8646.416781124484
 21
8827.413111982123
 31
0.0
  0
LINE
  5
103
330
17
100
AcDbEntity
  8
SARR_3.5x7
 62
7
370
25
100
AcDbLine
 10
8837.916781124542
 20
8891.413111982123
 30
0.0
 11
8837.916781124539
 21
8827.413111982107
 31
0.0
  0
LINE
  5
104
330
17
100
AcDbEntity
  8
SARR_3.5x7
 62
7
370
25
100
AcDbLine
 10
8834.41678112454
 20
8889.213111982124
 30
0.0
 11
8834.416781124539
 21
8827.413111982107
 31
0.0
  0
LINE
  5
105
330
17
100
AcDbEntity
  8
SARR_3.5x7
 62
7
370
25
100
AcDbLine
 10
8649.916781124542
 20
8889.213111982124
 30
0.0
 11
8649.916781124542
 21
8827.413111982138
 31
0.0
  0
LINE
  5
106
330
17
100
AcDbEntity
  8
SARR_3.5x7
 62
7
370
25
100
AcDbLine
 10
8837.916781124539
 20
8827.413111982107
 30
0.0
 11
8834.416781124539
 21
8827.413111982107
 31
0.0
  0
LINE
  5
107
330
17
100
AcDbEntity
  8
Painéis
 62
7
370
25
100
AcDbLine
 10
8852.916781124544
 20
8891.413111982107
 30
0.0
 11
8676.916781124542
 21
8891.413111982114
 31
0.0
  0
LINE
  5
108
330
17
100
AcDbEntity
  8
Painéis
 62
7
370
25
100
AcDbLine
 10
8649.916781124542
 20
8827.413111982123
 30
0.0
 11
8649.916781124544
 21
8891.413111982123
 31
0.0
  0
LINE
  5
109
330
17
100
AcDbEntity
  8
Painéis
 62
7
370
25
100
AcDbLine
 10
8852.916781124539
 20
8827.413111982107
 30
0.0
 11
8852.916781124542
 21
8891.413111982107
 31
0.0
  0
LINE
  5
10A
330
17
100
AcDbEntity
  8
Painéis
 62
7
370
25
100
AcDbLine
 10
8649.916781124542
 20
8837.413111982112
 30
0.0
 11
8676.916781124542
 21
8837.413111982112
 31
0.0
  0
LINE
  5
10B
330
17
100
AcDbEntity
  8
Painéis
 62
7
370
25
100
AcDbLine
 10
8676.916781124542
 20
8837.413111982112
 30
0.0
 11
8676.916781124542
 21
8891.413111982114
 31
0.0
  0
LINE
  5
10C
330
17
100
AcDbEntity
  8
SARR_3.5x7
 62
7
370
25
100
AcDbLine
 10
8680.416781124592
 20
8889.21311198212
 30
0.0
 11
8680.41678112463
 21
8827.413111982123
 31
0.0
  0
LINE
  5
10D
330
17
100
AcDbEntity
  8
SARR_2.2x7
 62
7
370
25
100
AcDbLine
 10
8676.916781124548
 20
8835.213111982128
 30
0.0
 11
8649.916781124542
 21
8835.213111982124
 31
0.0
  0
LINE
  5
10E
330
17
100
AcDbEntity
  8
SARR_3.5x7
 62
7
370
25
100
AcDbLine
 10
8653.4167811246
 20
8835.213111982224
 30
0.0
 11
8653.416781124606
 21
8827.413111982123
 31
0.0
  0
LINE
  5
10F
330
17
100
AcDbEntity
  8
SARR_3.5x7
 62
7
370
25
100
AcDbLine
 10
8676.916781124512
 20
8889.21311198212
 30
0.0
 11
8676.916781124552
 21
8827.413111982123
 31
0.0
  0
LINE
  5
110
330
17
100
AcDbEntity
  8
COTA
 62
7
370
25
100
AcDbLine
 10
8676.916781124542
 20
8891.413111982114
 30
0.0
 11
8649.916781124544
 21
8891.413111982123
 31
0.0
  0
LINE
  5
111
330
17
100
AcDbEntity
  8
Painéis
 62
7
370
25
100
AcDbLine
 10
8477.91678112454
 20
8891.413111982114
 30
0.0
 11
8649.916781124544
 21
8891.413111982107
 31
0.0
  0
LINE
  5
112
330
17
100
AcDbEntity
  8
SARR_2.2x7
 62
7
370
25
100
AcDbLine
 10
8649.916781124542
 20
8889.21311198217
 30
0.0
 11
8477.916781124539
 21
8889.21311198208
 31
0.0
  0
LINE
  5
113
330
17
100
AcDbEntity
  8
COTA
 62
7
370
25
100
AcDbLine
 10
8115.11220101501
 20
8702.528240011958
 30
0.0
 11
8841.11220101501
 21
8702.528240011983
 31
0.0
  0
LINE
  5
114
330
17
100
AcDbEntity
  8
SARR_2.2x7
 62
7
370
25
100
AcDbLine
 10
8130.112201015011
 20
8686.32824001196
 30
0.0
 11
8359.11220101501
 21
8686.328240011975
 31
0.0
  0
LINE
  5
115
330
17
100
AcDbEntity
  8
SARR_2.2x7
 62
7
370
25
100
AcDbLine
 10
8359.11220101501
 20
8686.328240011975
 30
0.0
 11
8824.11220101501
 21
8686.328240011986
 31
0.0
  0
LINE
  5
116
330
17
100
AcDbEntity
  8
COTA
 62
7
370
25
100
AcDbLine
 10
8115.11220101501
 20
8688.528240011958
 30
0.0
 11
8115.11220101501
 21
8702.528240011958
 31
0.0
  0
LINE
  5
117
330
17
100
AcDbEntity
  8
SARR_2.2x7
 62
7
370
25
100
AcDbLine
 10
8122.112201015013
 20
8638.528240011958
 30
0.0
 11
8122.11220101501
 21
8688.528240011958
 31
0.0
  0
LINE
  5
118
330
17
100
AcDbEntity
  8
SARR_2.2x7
 62
7
370
25
100
AcDbLine
 10
8832.112201015014
 20
8638.528240011983
 30
0.0
 11
8832.11220101501
 21
8688.528240011983
 31
0.0
  0
LINE
  5
119
330
17
100
AcDbEntity
  8
COTA
 62
7
370
25
100
AcDbLine
 10
8841.11220101501
 20
8688.528240011983
 30
0.0
 11
8841.11220101501
 21
8702.528240011983
 31
0.0
  0
LINE
  5
11A
330
17
100
AcDbEntity
  8
SARR_3.5x7
 62
7
370
25
100
AcDbLine
 10
8824.11220101501
 20
8688.528240012027
 30
0.0
 11
8824.112201014927
 21
8638.528240011983
 31
0.0
  0
LINE
  5
11B
330
17
100
AcDbEntity
  8
SARR_3.5x7
 62
7
370
25
100
AcDbLine
 10
8820.61220101501
 20
8686.32824001203
 30
0.0
 11
8820.612201014987
 21
8638.528240011983
 31
0.0
  0
LINE
  5
11C
330
17
100
AcDbEntity
  8
SARR_3.5x7
 62
7
370
25
100
AcDbLine
 10
8362.61220101504
 20
8686.328240012019
 30
0.0
 11
8362.612201015074
 21
8638.528240011972
 31
0.0
  0
LINE
  5
11D
330
17
100
AcDbEntity
  8
SARR_3.5x7
 62
7
370
25
100
AcDbLine
 10
8355.612201014952
 20
8686.328240012077
 30
0.0
 11
8355.612201014927
 21
8638.528240011972
 31
0.0
  0
LINE
  5
11E
330
17
100
AcDbEntity
  8
SARR_3.5x7
 62
7
370
25
100
AcDbLine
 10
8130.112201015011
 20
8688.528240011972
 30
0.0
 11
8130.112201015014
 21
8638.528240011958
 31
0.0
  0
LINE
  5
11F
330
17
100
AcDbEntity
  8
SARR_3.5x7
 62
7
370
25
100
AcDbLine
 10
8133.61220101501
 20
8686.328240011975
 30
0.0
 11
8133.612201015013
 21
8638.528240011958
 31
0.0
  0
LINE
  5
120
330
17
100
AcDbEntity
  8
SARR_3.5x7
 62
7
370
25
100
AcDbLine
 10
8359.11220101501
 20
8686.328240011975
 30
0.0
 11
8359.112201015014
 21
8638.528240011987
 31
0.0
  0
LINE
  5
121
330
17
100
AcDbEntity
  8
SARR_3.5x7
 62
7
370
25
100
AcDbLine
 10
8355.612201014927
 20
8638.528240011972
 30
0.0
 11
8359.112201015014
 21
8638.528240011972
 31
0.0
  0
LINE
  5
122
330
17
100
AcDbEntity
  8
SARR_3.5x7
 62
7
370
25
100
AcDbLine
 10
8359.112201015014
 20
8638.528240011972
 30
0.0
 11
8362.612201015074
 21
8638.528240011972
 31
0.0
  0
LINE
  5
123
330
17
100
AcDbEntity
  8
SARR_3.5x7
 62
7
370
25
100
AcDbLine
 10
8820.612201014987
 20
8638.528240011983
 30
0.0
 11
8824.112201014927
 21
8638.528240011983
 31
0.0
  0
LINE
  5
124
330
17
100
AcDbEntity
  8
SARR_3.5x7
 62
7
370
25
100
AcDbLine
 10
8130.112201015014
 20
8638.528240011958
 30
0.0
 11
8133.612201015013
 21
8638.528240011958
 31
0.0
  0
LINE
  5
125
330
17
100
AcDbEntity
  8
Painéis
 62
7
370
25
100
AcDbLine
 10
8115.11220101501
 20
8688.528240011958
 30
0.0
 11
8841.11220101501
 21
8688.528240011983
 31
0.0
  0
LINE
  5
126
330
17
100
AcDbEntity
  8
Painéis
 62
7
370
25
100
AcDbLine
 10
8115.112201015014
 20
8638.528240011958
 30
0.0
 11
8841.112201015014
 21
8638.528240011983
 31
0.0
  0
LINE
  5
127
330
17
100
AcDbEntity
  8
Painéis
 62
7
370
25
100
AcDbLine
 10
8115.112201015014
 20
8638.528240011958
 30
0.0
 11
8115.11220101501
 21
8688.528240011958
 31
0.0
  0
LINE
  5
128
330
17
100
AcDbEntity
  8
Painéis
 62
7
370
25
100
AcDbLine
 10
8359.112201015014
 20
8638.528240011972
 30
0.0
 11
8359.11220101501
 21
8688.528240011972
 31
0.0
  0
LINE
  5
129
330
17
100
AcDbEntity
  8
Painéis
 62
7
370
25
100
AcDbLine
 10
8841.112201015014
 20
8638.528240011983
 30
0.0
 11
8841.11220101501
 21
8688.528240011983
 31
0.0
  0
LINE
  5
12A
330
17
100
AcDbEntity
  8
SARR_3.5x7
 62
7
370
25
100
AcDbLine
 10
8606.61220101504
 20
8686.328240012019
 30
0.0
 11
8606.612201015074
 21
8638.528240011972
 31
0.0
  0
LINE
  5
12B
330
17
100
AcDbEntity
  8
SARR_3.5x7
 62
7
370
25
100
AcDbLine
 10
8599.612201014952
 20
8686.328240012077
 30
0.0
 11
8599.612201014927
 21
8638.528240011972
 31
0.0
  0
LINE
  5
12C
330
17
100
AcDbEntity
  8
SARR_3.5x7
 62
7
370
25
100
AcDbLine
 10
8603.11220101501
 20
8686.328240011975
 30
0.0
 11
8603.112201015014
 21
8638.528240011987
 31
0.0
  0
LINE
  5
12D
330
17
100
AcDbEntity
  8
Painéis
 62
7
370
25
100
AcDbLine
 10
8603.112201015014
 20
8638.528240011972
 30
0.0
 11
8603.11220101501
 21
8688.528240011972
 31
0.0
  0
LINE
  5
12E
330
17
100
AcDbEntity
  8
COTA
 62
7
370
25
100
AcDbLine
 10
7981.710909812502
 20
9272.22003243072
 30
0.0
 11
7981.710909812502
 21
8501.463545841616
 31
0.0
  0
LWPOLYLINE
  5
12F
330
17
100
AcDbEntity
  8
Painéis
 62
7
370
25
100
AcDbPolyline
 90
4
 70
1
 10
7781.784611023929
 20
9119.220032430698
 10
7777.784611023928
 20
9119.220032430698
 10
7777.784611023928
 20
9059.220032430721
 10
7781.784611023929
 20
9059.220032430721
  0
LWPOLYLINE
  5
130
330
17
100
AcDbEntity
  8
Madeira
 62
7
370
25
100
AcDbPolyline
 90
4
 70
1
 10
7781.784611023929
 20
9114.820032430698
 10
7781.784611023929
 20
9119.220032430698
 10
7795.784611023929
 20
9119.220032430698
 10
7795.784611023929
 20
9114.820032430698
  0
LWPOLYLINE
  5
131
330
17
100
AcDbEntity
  8
Madeira
 62
7
370
25
100
AcDbPolyline
 90
4
 70
1
 10
7815.784611023928
 20
9059.220032430721
 10
7815.784611023928
 20
9063.620032430714
 10
7795.784611023929
 20
9063.620032430714
 10
7795.784611023929
 20
9059.220032430721
  0
LWPOLYLINE
  5
132
330
17
100
AcDbEntity
  8
Madeira
 62
7
370
25
100
AcDbPolyline
 90
4
 70
1
 10
7781.784611023929
 20
9119.220032430698
 10
7795.784611023929
 20
9119.220032430698
 10
7795.784611023929
 20
9059.220032430721
 10
7781.784611023929
 20
9059.220032430721
  0
LWPOLYLINE
  5
133
330
17
100
AcDbEntity
  8
Madeira
 62
7
370
25
100
AcDbPolyline
 90
4
 70
1
 10
7739.784611023928
 20
9059.220032430721
 10
7739.784611023928
 20
9063.620032430714
 10
7753.784611023928
 20
9063.620032430714
 10
7753.784611023928
 20
9059.220032430721
  0
LWPOLYLINE
  5
134
330
17
100
AcDbEntity
  8
Painéis
 62
7
370
25
100
AcDbPolyline
 90
4
 70
1
 10
7739.784611023928
 20
9063.620032430714
 10
7739.784611023928
 20
9067.22003243072
 10
7777.784611023928
 20
9067.22003243072
 10
7777.784611023928
 20
9063.620032430714
  0
LWPOLYLINE
  5
135
330
17
100
AcDbEntity
  8
Madeira
 62
7
370
25
100
AcDbPolyline
 90
4
 70
1
 10
7777.784611023928
 20
9059.220032430721
 10
7777.784611023928
 20
9063.620032430714
 10
7763.784611023928
 20
9063.620032430714
 10
7763.784611023928
 20
9059.220032430721
  0
LWPOLYLINE
  5
136
330
17
100
AcDbEntity
  8
Painéis
 62
7
370
25
100
AcDbPolyline
 90
4
 70
1
 10
7735.784611023916
 20
9147.22003243072
 10
7739.784611023917
 20
9147.22003243072
 10
7739.784611023928
 20
9059.220032430721
 10
7735.784611023928
 20
9059.220032430721
  0
LWPOLYLINE
  5
137
330
17
100
AcDbEntity
  8
Madeira
 62
7
370
25
100
AcDbPolyline
 90
4
 70
1
 10
7735.784611023916
 20
9142.820032430718
 10
7735.784611023916
 20
9147.22003243072
 10
7721.784611023917
 20
9147.22003243072
 10
7721.784611023917
 20
9142.820032430718
  0
LWPOLYLINE
  5
138
330
17
100
AcDbEntity
  8
Madeira
 62
7
370
25
100
AcDbPolyline
 90
4
 70
1
 10
7701.784611023928
 20
9059.220032430721
 10
7701.784611023928
 20
9063.620032430714
 10
7721.784611023927
 20
9063.620032430714
 10
7721.784611023927
 20
9059.220032430721
  0
LWPOLYLINE
  5
139
330
17
100
AcDbEntity
  8
Madeira
 62
7
370
25
100
AcDbPolyline
 90
4
 70
1
 10
7735.784611023916
 20
9147.22003243072
 10
7721.784611023917
 20
9147.22003243072
 10
7721.784611023927
 20
9059.220032430721
 10
7735.784611023928
 20
9059.220032430721
  0
LWPOLYLINE
  5
13A
330
17
100
AcDbEntity
  8
Painéis
 62
7
370
25
100
AcDbPolyline
 90
4
 70
1
 10
7777.784611023928
 20
9119.220032430698
 10
7777.784611023928
 20
9123.220032430698
 10
7833.384611023905
 20
9123.22003243069
 10
7833.384611023905
 20
9119.22003243069
  0
LWPOLYLINE
  5
13B
330
17
100
AcDbEntity
  8
CONCRETO
 62
7
370
25
100
AcDbPolyline
 90
8
 70
1
 10
7833.384611023905
 20
9123.22003243069
 10
7833.384611023905
 20
9147.22003243072
 10
7739.784611023918
 20
9147.22003243072
 10
7739.784611023918
 20
9119.220032430705
 10
7739.784611023928
 20
9119.220032430705
 10
7739.784611023987
 20
9067.22003243072
 10
7777.784611023928
 20
9067.22003243072
 10
7777.784611023928
 20
9123.220032430698
  0
LWPOLYLINE
  5
13C
330
17
100
AcDbEntity
  8
barrote
 62
7
370
25
100
AcDbPolyline
 90
4
 70
1
 10
7849.239808695822
 20
9039.220032430763
 10
7654.056868186128
 20
9039.220032430763
 10
7654.056868186128
 20
9059.220032430721
 10
7849.239808695822
 20
9059.220032430721
  0
LWPOLYLINE
  5
13D
330
17
100
AcDbEntity
  8
SCO-___-LAJ
 62
7
370
25
100
AcDbPolyline
 90
4
 70
1
 10
7840.237541280361
 20
9057.886619097393
 10
7672.931680767501
 20
9057.886619097386
 10
7672.931680767501
 20
9054.68693909741
 10
7840.237541280361
 20
9054.686939097415
  0
LWPOLYLINE
  5
13E
330
17
100
AcDbEntity
  8
Painéis
 62
7
370
25
100
AcDbPolyline
 90
4
 70
1
 10
8529.019407494206
 20
9115.220032430698
 10
8525.019407494206
 20
9115.220032430698
 10
8525.019407494206
 20
9019.22003243072
 10
8529.019407494206
 20
9019.22003243072
  0
LWPOLYLINE
  5
13F
330
17
100
AcDbEntity
  8
Madeira
 62
7
370
25
100
AcDbPolyline
 90
4
 70
1
 10
8529.019407494206
 20
9110.820032430696
 10
8529.019407494206
 20
9115.220032430698
 10
8543.019407494206
 20
9115.220032430698
 10
8543.019407494206
 20
9110.820032430696
  0
LWPOLYLINE
  5
140
330
17
100
AcDbEntity
  8
Madeira
 62
7
370
25
100
AcDbPolyline
 90
4
 70
1
 10
8563.019407494206
 20
9019.22003243072
 10
8563.019407494206
 20
9023.620032430714
 10
8543.019407494206
 20
9023.620032430714
 10
8543.019407494206
 20
9019.22003243072
  0
LWPOLYLINE
  5
141
330
17
100
AcDbEntity
  8
Madeira
 62
7
370
25
100
AcDbPolyline
 90
4
 70
1
 10
8529.019407494206
 20
9115.220032430698
 10
8543.019407494206
 20
9115.220032430698
 10
8543.019407494206
 20
9019.22003243072
 10
8529.019407494206
 20
9019.22003243072
  0
LWPOLYLINE
  5
142
330
17
100
AcDbEntity
  8
Madeira
 62
7
370
25
100
AcDbPolyline
 90
4
 70
1
 10
8487.019407494206
 20
9019.22003243072
 10
8487.019407494206
 20
9023.620032430714
 10
8501.019407494206
 20
9023.620032430714
 10
8501.019407494206
 20
9019.22003243072
  0
LWPOLYLINE
  5
143
330
17
100
AcDbEntity
  8
Painéis
 62
7
370
25
100
AcDbPolyline
 90
4
 70
1
 10
8487.019407494206
 20
9023.620032430714
 10
8487.019407494206
 20
9027.22003243072
 10
8525.019407494206
 20
9027.22003243072
 10
8525.019407494206
 20
9023.620032430714
  0
LWPOLYLINE
  5
144
330
17
100
AcDbEntity
  8
Madeira
 62
7
370
25
100
AcDbPolyline
 90
4
 70
1
 10
8525.019407494206
 20
9019.22003243072
 10
8525.019407494206
 20
9023.620032430714
 10
8511.019407494208
 20
9023.620032430714
 10
8511.019407494208
 20
9019.22003243072
  0
LWPOLYLINE
  5
145
330
17
100
AcDbEntity
  8
Painéis
 62
7
370
25
100
AcDbPolyline
 90
4
 70
1
 10
8483.019407494196
 20
9147.22003243072
 10
8487.019407494196
 20
9147.22003243072
 10
8487.019407494206
 20
9019.22003243072
 10
8483.019407494206
 20
9019.22003243072
  0
LWPOLYLINE
  5
146
330
17
100
AcDbEntity
  8
Madeira
 62
7
370
25
100
AcDbPolyline
 90
4
 70
1
 10
8483.019407494196
 20
9142.820032430718
 10
8483.019407494196
 20
9147.22003243072
 10
8469.019407494196
 20
9147.22003243072
 10
8469.019407494196
 20
9142.820032430718
  0
LWPOLYLINE
  5
147
330
17
100
AcDbEntity
  8
Madeira
 62
7
370
25
100
AcDbPolyline
 90
4
 70
1
 10
8449.019407494206
 20
9019.22003243072
 10
8449.019407494206
 20
9023.620032430714
 10
8469.019407494206
 20
9023.620032430714
 10
8469.019407494206
 20
9019.22003243072
  0
LWPOLYLINE
  5
148
330
17
100
AcDbEntity
  8
Madeira
 62
7
370
25
100
AcDbPolyline
 90
4
 70
1
 10
8483.019407494196
 20
9147.22003243072
 10
8469.019407494196
 20
9147.22003243072
 10
8469.019407494206
 20
9019.22003243072
 10
8483.019407494206
 20
9019.22003243072
  0
LWPOLYLINE
  5
149
330
17
100
AcDbEntity
  8
Painéis
 62
7
370
25
100
AcDbPolyline
 90
4
 70
1
 10
8525.019407494206
 20
9115.220032430698
 10
8525.019407494206
 20
9119.220032430698
 10
8580.619407494181
 20
9119.22003243069
 10
8580.619407494181
 20
9115.22003243069
  0
LWPOLYLINE
  5
14A
330
17
100
AcDbEntity
  8
CONCRETO
 62
7
370
25
100
AcDbPolyline
 90
8
 70
1
 10
8580.619407494181
 20
9119.22003243069
 10
8580.619407494181
 20
9147.22003243072
 10
8487.019407494197
 20
9147.22003243072
 10
8487.019407494197
 20
9119.220032430705
 10
8487.019407494206
 20
9119.220032430705
 10
8487.019407494265
 20
9027.22003243072
 10
8525.019407494206
 20
9027.22003243072
 10
8525.019407494206
 20
9119.220032430698
  0
LWPOLYLINE
  5
14B
330
17
100
AcDbEntity
  8
barrote
 62
7
370
25
100
AcDbPolyline
 90
4
 70
1
 10
8596.4746051661
 20
8999.220032430763
 10
8401.291664656406
 20
8999.220032430763
 10
8401.291664656406
 20
9019.22003243072
 10
8596.4746051661
 20
9019.22003243072
  0
LWPOLYLINE
  5
14C
330
17
100
AcDbEntity
  8
SCO-___-LAJ
 62
7
370
25
100
AcDbPolyline
 90
4
 70
1
 10
8587.47233775064
 20
9017.886619097393
 10
8420.16647723778
 20
9017.886619097388
 10
8420.16647723778
 20
9014.68693909741
 10
8587.47233775064
 20
9014.686939097417
  0
TEXT
  5
14D
330
17
100
AcDbEntity
  8
detalhes
 62
7
370
25
100
AcDbText
 10
7784.863954074211
 20
9094.925669871034
 30
0.0
 40
9.600000000000001
  1
b
100
AcDbText
  0
TEXT
  5
14E
330
17
100
AcDbEntity
  8
detalhes
 62
7
370
25
100
AcDbText
 10
7725.965693150178
 20
9094.967857859385
 30
0.0
 40
9.600000000000001
  1
a
100
AcDbText
  0
TEXT
  5
14F
330
17
100
AcDbEntity
  8
detalhes
 62
7
370
25
100
AcDbText
 10
7766.90043903724
 20
9069.455785950558
 30
0.0
 40
9.600000000000001
  1
c
100
AcDbText
  0
TEXT
  5
150
330
17
100
AcDbEntity
  8
5
 62
7
370
25
100
AcDbText
 10
7643.11300550286
 20
8778.362526845347
 30
0.0
 40
12.0
  1
V124
100
AcDbText
  0
TEXT
  5
151
330
17
100
AcDbEntity
  8
5
 62
7
370
25
100
AcDbText
 10
7786.911912122521
 20
8778.468337724313
 30
0.0
 40
12.0
  1
P24
100
AcDbText
  0
TEXT
  5
152
330
17
100
AcDbEntity
  8
texto
 62
7
370
25
100
AcDbText
 10
7708.114477997606
 20
8882.033578917357
 30
0.0
 40
8.0
  1
{\Q19;\C256;5 1/2pont}
100
AcDbText
  0
TEXT
  5
153
330
17
100
AcDbEntity
  8
5
 62
7
370
25
100
AcDbText
 10
7639.040301754026
 20
8585.04478929314
 30
0.0
 40
12.0
  1
P24
100
AcDbText
  0
TEXT
  5
154
330
17
100
AcDbEntity
  8
5
 62
7
370
25
100
AcDbText
 10
7818.954189066342
 20
8585.150600172106
 30
0.0
 40
12.0
  1
V124
100
AcDbText
  0
TEXT
  5
155
330
17
100
AcDbEntity
  8
Texto Seção
 62
7
370
25
100
AcDbText
 10
7639.926426170086
 20
8913.782555175545
 30
0.0
 40
13.0
  1
V209.A
100
AcDbText
  0
TEXT
  5
156
330
17
100
AcDbEntity
  8
Texto Seção
 62
7
370
25
100
AcDbText
 10
7640.540454065213
 20
8713.296872894403
 30
0.0
 40
13.0
  1
V209.B
100
AcDbText
  0
TEXT
  5
157
330
17
100
AcDbEntity
  8
texto
 62
7
370
25
100
AcDbText
 10
7789.584948984726
 20
8675.826221971409
 30
0.0
 40
8.0
  1
{\Q19;\C256;5 1/2pont}
100
AcDbText
  0
TEXT
  5
158
330
17
100
AcDbEntity
  8
texto
 62
7
370
25
100
AcDbText
 10
7695.954573329619
 20
8675.826221971409
 30
0.0
 40
8.0
  1
{\Q19;\C256;4 1/2pont}
100
AcDbText
  0
TEXT
  5
159
330
17
100
AcDbEntity
  8
Texto Seção
 62
7
370
25
100
AcDbText
 10
8114.110674067893
 20
8900.090258241475
 30
0.0
 40
13.0
  1
V210.A
100
AcDbText
  0
TEXT
  5
15A
330
17
100
AcDbEntity
  8
5
 62
7
370
25
100
AcDbText
 10
8117.779890833709
 20
8747.368279734628
 30
0.0
 40
12.0
  1
P24
100
AcDbText
  0
TEXT
  5
15B
330
17
100
AcDbEntity
  8
5
 62
7
370
25
100
AcDbText
 10
8244.036788139576
 20
8747.474090613598
 30
0.0
 40
12.0
  1
P26
100
AcDbText
  0
TEXT
  5
15C
330
17
100
AcDbEntity
  8
detalhes
 62
7
370
25
100
AcDbText
 10
8533.226672183671
 20
9075.240725372176
 30
0.0
 40
9.600000000000001
  1
b
100
AcDbText
  0
TEXT
  5
15D
330
17
100
AcDbEntity
  8
detalhes
 62
7
370
25
100
AcDbText
 10
8472.476969642476
 20
9076.300743317395
 30
0.0
 40
9.600000000000001
  1
a
100
AcDbText
  0
TEXT
  5
15E
330
17
100
AcDbEntity
  8
detalhes
 62
7
370
25
100
AcDbText
 10
8507.317387492794
 20
9029.455785950558
 30
0.0
 40
9.600000000000001
  1
c
100
AcDbText
  0
TEXT
  5
15F
330
17
100
AcDbEntity
  8
texto
 62
7
370
25
100
AcDbText
 10
8369.15179765162
 20
8848.63360886519
 30
0.0
 40
8.0
  1
{\Q19;\C256;7 1/2pont}
100
AcDbText
  0
TEXT
  5
160
330
17
100
AcDbEntity
  8
texto
 62
7
370
25
100
AcDbText
 10
8565.660154331636
 20
8848.633608865206
 30
0.0
 40
8.0
  1
{\Q19;\C256;6 1/2pont}
100
AcDbText
  0
TEXT
  5
161
330
17
100
AcDbEntity
  8
5
 62
7
370
25
100
AcDbText
 10
8832.140256197938
 20
8751.177278662097
 30
0.0
 40
12.0
  1
P27
100
AcDbText
  0
TEXT
  5
162
330
17
100
AcDbEntity
  8
texto
 62
7
370
25
100
AcDbText
 10
8760.235917005539
 20
8848.63360886519
 30
0.0
 40
8.0
  1
{\Q19;\C256;7 1/2pont}
100
AcDbText
  0
TEXT
  5
163
330
17
100
AcDbEntity
  8
texto
 62
7
370
25
100
AcDbText
 10
8235.129112639972
 20
8659.748736895042
 30
0.0
 40
8.0
  1
{\Q19;\C256;8 1/2pont}
100
AcDbText
  0
TEXT
  5
164
330
17
100
AcDbEntity
  8
5
 62
7
370
25
100
AcDbText
 10
8810.468175863993
 20
8556.483375835956
 30
0.0
 40
12.0
  1
P24
100
AcDbText
  0
TEXT
  5
165
330
17
100
AcDbEntity
  8
5
 62
7
370
25
100
AcDbText
 10
8116.307215263962
 20
8560.52374157916
 30
0.0
 40
12.0
  1
P27
100
AcDbText
  0
TEXT
  5
166
330
17
100
AcDbEntity
  8
Texto Seção
 62
7
370
25
100
AcDbText
 10
8120.345032925946
 20
8707.210639747467
 30
0.0
 40
13.0
  1
V210.B
100
AcDbText
  0
TEXT
  5
167
330
17
100
AcDbEntity
  8
texto
 62
7
370
25
100
AcDbText
 10
8479.129112639972
 20
8659.748736895042
 30
0.0
 40
8.0
  1
{\Q19;\C256;8 1/2pont}
100
AcDbText
  0
TEXT
  5
168
330
17
100
AcDbEntity
  8
texto
 62
7
370
25
100
AcDbText
 10
8723.129112639972
 20
8659.748736895042
 30
0.0
 40
8.0
  1
{\Q19;\C256;8 1/2pont}
100
AcDbText
  0
HATCH
  5
169
330
17
100
AcDbEntity
  8
Hachura
 62
7
100
AcDbHatch
 10
0.0
 20
0.0
 30
0.0
210
0.0
220
0.0
230
1.0
  2
SOLID
 70
1
 71
0
 91
1
 92
3
 72
0
 73
1
 93
8
 10
7781.78461102393
 20
9119.220032430698
 10
7777.784611023929
 20
9119.220032430698
 10
7777.784611023929
 20
9119.220032430698
 10
7777.784611023928
 20
9059.220032430721
 10
7777.784611023928
 20
9059.220032430721
 10
7781.784611023929
 20
9059.220032430721
 10
7781.784611023929
 20
9059.220032430721
 10
7781.78461102393
 20
9119.220032430698
 97
0
 75
1
 76
1
 98
0
  0
HATCH
  5
16A
330
17
100
AcDbEntity
  8
Hachura
 62
7
100
AcDbHatch
 10
0.0
 20
0.0
 30
0.0
210
0.0
220
0.0
230
1.0
  2
SOLID
 70
1
 71
0
 91
1
 92
3
 72
0
 73
1
 93
8
 10
7781.784611023929
 20
9114.820032430698
 10
7781.784611023929
 20
9119.220032430698
 10
7781.784611023929
 20
9119.220032430698
 10
7795.784611023929
 20
9119.220032430698
 10
7795.784611023929
 20
9119.220032430698
 10
7795.784611023929
 20
9114.820032430698
 10
7795.784611023929
 20
9114.820032430698
 10
7781.784611023929
 20
9114.820032430698
 97
0
 75
1
 76
1
 98
0
  0
HATCH
  5
16B
330
17
100
AcDbEntity
  8
Hachura
 62
7
100
AcDbHatch
 10
0.0
 20
0.0
 30
0.0
210
0.0
220
0.0
230
1.0
  2
SOLID
 70
1
 71
0
 91
1
 92
3
 72
0
 73
1
 93
8
 10
7815.784611023928
 20
9059.220032430721
 10
7815.784611023928
 20
9063.620032430714
 10
7815.784611023928
 20
9063.620032430714
 10
7795.784611023929
 20
9063.620032430714
 10
7795.784611023929
 20
9063.620032430714
 10
7795.784611023929
 20
9059.220032430721
 10
7795.784611023929
 20
9059.220032430721
 10
7815.784611023928
 20
9059.220032430721
 97
0
 75
1
 76
1
 98
0
  0
HATCH
  5
16C
330
17
100
AcDbEntity
  8
Hachura
 62
7
100
AcDbHatch
 10
0.0
 20
0.0
 30
0.0
210
0.0
220
0.0
230
1.0
  2
SOLID
 70
1
 71
0
 91
1
 92
3
 72
0
 73
1
 93
8
 10
7739.784611023928
 20
9059.220032430721
 10
7739.784611023928
 20
9063.620032430714
 10
7739.784611023928
 20
9063.620032430714
 10
7753.784611023928
 20
9063.620032430714
 10
7753.784611023928
 20
9063.620032430714
 10
7753.784611023928
 20
9059.220032430721
 10
7753.784611023928
 20
9059.220032430721
 10
7739.784611023928
 20
9059.220032430721
 97
0
 75
1
 76
1
 98
0
  0
HATCH
  5
16D
330
17
100
AcDbEntity
  8
Hachura
 62
7
100
AcDbHatch
 10
0.0
 20
0.0
 30
0.0
210
0.0
220
0.0
230
1.0
  2
SOLID
 70
1
 71
0
 91
1
 92
3
 72
0
 73
1
 93
8
 10
7739.784611023928
 20
9063.620032430714
 10
7739.784611023928
 20
9067.22003243072
 10
7739.784611023928
 20
9067.22003243072
 10
7777.784611023928
 20
9067.22003243072
 10
7777.784611023928
 20
9067.22003243072
 10
7777.784611023928
 20
9063.620032430714
 10
7777.784611023928
 20
9063.620032430714
 10
7739.784611023928
 20
9063.620032430714
 97
0
 75
1
 76
1
 98
0
  0
HATCH
  5
16E
330
17
100
AcDbEntity
  8
Hachura
 62
7
100
AcDbHatch
 10
0.0
 20
0.0
 30
0.0
210
0.0
220
0.0
230
1.0
  2
SOLID
 70
1
 71
0
 91
1
 92
3
 72
0
 73
1
 93
8
 10
7777.784611023928
 20
9059.220032430721
 10
7777.784611023928
 20
9063.620032430714
 10
7777.784611023928
 20
9063.620032430714
 10
7763.784611023928
 20
9063.620032430714
 10
7763.784611023928
 20
9063.620032430714
 10
7763.784611023928
 20
9059.220032430721
 10
7763.784611023928
 20
9059.220032430721
 10
7777.784611023928
 20
9059.220032430721
 97
0
 75
1
 76
1
 98
0
  0
HATCH
  5
16F
330
17
100
AcDbEntity
  8
Hachura
 62
7
100
AcDbHatch
 10
0.0
 20
0.0
 30
0.0
210
0.0
220
0.0
230
1.0
  2
SOLID
 70
1
 71
0
 91
1
 92
3
 72
0
 73
1
 93
8
 10
7735.784611023916
 20
9147.22003243072
 10
7739.784611023917
 20
9147.22003243072
 10
7739.784611023917
 20
9147.22003243072
 10
7739.784611023928
 20
9059.220032430721
 10
7739.784611023928
 20
9059.220032430721
 10
7735.784611023928
 20
9059.220032430721
 10
7735.784611023928
 20
9059.220032430721
 10
7735.784611023916
 20
9147.22003243072
 97
0
 75
1
 76
1
 98
0
  0
HATCH
  5
170
330
17
100
AcDbEntity
  8
Hachura
 62
7
100
AcDbHatch
 10
0.0
 20
0.0
 30
0.0
210
0.0
220
0.0
230
1.0
  2
SOLID
 70
1
 71
0
 91
1
 92
3
 72
0
 73
1
 93
8
 10
7735.784611023916
 20
9142.820032430718
 10
7735.784611023916
 20
9147.22003243072
 10
7735.784611023916
 20
9147.22003243072
 10
7721.784611023917
 20
9147.22003243072
 10
7721.784611023917
 20
9147.22003243072
 10
7721.784611023917
 20
9142.820032430718
 10
7721.784611023917
 20
9142.820032430718
 10
7735.784611023916
 20
9142.820032430718
 97
0
 75
1
 76
1
 98
0
  0
HATCH
  5
171
330
17
100
AcDbEntity
  8
Hachura
 62
7
100
AcDbHatch
 10
0.0
 20
0.0
 30
0.0
210
0.0
220
0.0
230
1.0
  2
SOLID
 70
1
 71
0
 91
1
 92
3
 72
0
 73
1
 93
8
 10
7701.784611023928
 20
9059.220032430721
 10
7701.784611023928
 20
9063.620032430714
 10
7701.784611023928
 20
9063.620032430714
 10
7721.784611023927
 20
9063.620032430714
 10
7721.784611023927
 20
9063.620032430714
 10
7721.784611023927
 20
9059.220032430721
 10
7721.784611023927
 20
9059.220032430721
 10
7701.784611023928
 20
9059.220032430721
 97
0
 75
1
 76
1
 98
0
  0
HATCH
  5
172
330
17
100
AcDbEntity
  8
Hachura
 62
7
100
AcDbHatch
 10
0.0
 20
0.0
 30
0.0
210
0.0
220
0.0
230
1.0
  2
SOLID
 70
1
 71
0
 91
1
 92
3
 72
0
 73
1
 93
8
 10
7777.784611023928
 20
9119.220032430698
 10
7777.784611023928
 20
9123.220032430698
 10
7777.784611023928
 20
9123.220032430698
 10
7833.384611023905
 20
9123.22003243069
 10
7833.384611023905
 20
9123.22003243069
 10
7833.384611023905
 20
9119.22003243069
 10
7833.384611023905
 20
9119.22003243069
 10
7777.784611023928
 20
9119.220032430698
 97
0
 75
1
 76
1
 98
0
  0
HATCH
  5
173
330
17
100
AcDbEntity
  8
COTA
 62
7
100
AcDbHatch
 10
0.0
 20
0.0
 30
0.0
210
0.0
220
0.0
230
1.0
  2
SOLID
 70
1
 71
0
 91
1
 92
3
 72
0
 73
1
 93
8
 10
7854.885893856668
 20
8707.031438407874
 10
7641.885893856668
 20
8707.031438407872
 10
7641.885893856668
 20
8707.03143840787
 10
7641.885893856668
 20
8693.031438407868
 10
7641.885893856668
 20
8693.031438407868
 10
7854.885893856668
 20
8693.031438407874
 10
7854.885893856668
 20
8693.031438407874
 10
7854.885893856668
 20
8707.031438407874
 97
0
 75
1
 76
1
 98
0
  0
HATCH
  5
174
330
17
100
AcDbEntity
  8
REAPROVEITAMENTO
 62
7
100
AcDbHatch
 10
0.0
 20
0.0
 30
0.0
210
0.0
220
0.0
230
1.0
  2
SOLID
 70
1
 71
0
 91
1
 92
3
 72
0
 73
1
 93
8
 10
7642.540454065242
 20
8906.297261889973
 10
7642.540454065245
 20
8862.297261889977
 10
7642.540454065245
 20
8862.297261889977
 10
7825.540454065244
 20
8862.29726188997
 10
7825.540454065244
 20
8862.29726188997
 10
7825.54045406524
 20
8906.297261889966
 10
7825.54045406524
 20
8906.297261889966
 10
7642.540454065242
 20
8906.297261889973
 97
0
 75
1
 76
1
 98
0
  0
HATCH
  5
175
330
17
100
AcDbEntity
  8
REAPROVEITAMENTO
 62
7
100
AcDbHatch
 10
0.0
 20
0.0
 30
0.0
210
0.0
220
0.0
230
1.0
  2
SOLID
 70
1
 71
0
 91
1
 92
3
 72
0
 73
1
 93
8
 10
7732.885893856668
 20
8693.031438407874
 10
7732.885893856671
 20
8663.031438407877
 10
7732.885893856671
 20
8663.031438407877
 10
7854.885893856669
 20
8663.03143840787
 10
7854.885893856669
 20
8663.03143840787
 10
7854.885893856667
 20
8693.031438407867
 10
7854.885893856667
 20
8693.031438407867
 10
7732.885893856668
 20
8693.031438407874
 97
0
 75
1
 76
1
 98
0
  0
HATCH
  5
176
330
17
100
AcDbEntity
  8
COTA
 62
7
100
AcDbHatch
 10
0.0
 20
0.0
 30
0.0
210
0.0
220
0.0
230
1.0
  2
SOLID
 70
1
 71
0
 91
1
 92
3
 72
0
 73
1
 93
8
 10
8245.552779187517
 20
8891.413111982107
 10
8116.552779187518
 20
8891.413111982105
 10
8116.552779187518
 20
8891.413111982103
 10
8116.552779187518
 20
8877.413111982103
 10
8116.552779187518
 20
8877.413111982103
 10
8245.552779187517
 20
8877.413111982107
 10
8245.552779187517
 20
8877.413111982107
 10
8245.552779187517
 20
8891.413111982107
 97
0
 75
1
 76
1
 98
0
  0
HATCH
  5
177
330
17
100
AcDbEntity
  8
Hachura
 62
7
100
AcDbHatch
 10
0.0
 20
0.0
 30
0.0
210
0.0
220
0.0
230
1.0
  2
SOLID
 70
1
 71
0
 91
1
 92
3
 72
0
 73
1
 93
8
 10
8529.019407494208
 20
9119.220032430698
 10
8525.019407494208
 20
9119.220032430698
 10
8525.019407494208
 20
9119.220032430698
 10
8525.019407494206
 20
9019.22003243072
 10
8525.019407494206
 20
9019.22003243072
 10
8529.019407494206
 20
9019.22003243072
 10
8529.019407494206
 20
9019.22003243072
 10
8529.019407494208
 20
9119.220032430698
 97
0
 75
1
 76
1
 98
0
  0
HATCH
  5
178
330
17
100
AcDbEntity
  8
Hachura
 62
7
100
AcDbHatch
 10
0.0
 20
0.0
 30
0.0
210
0.0
220
0.0
230
1.0
  2
SOLID
 70
1
 71
0
 91
1
 92
3
 72
0
 73
1
 93
8
 10
8529.019407494206
 20
9110.820032430696
 10
8529.019407494206
 20
9115.220032430698
 10
8529.019407494206
 20
9115.220032430698
 10
8543.019407494206
 20
9115.220032430698
 10
8543.019407494206
 20
9115.220032430698
 10
8543.019407494206
 20
9110.820032430696
 10
8543.019407494206
 20
9110.820032430696
 10
8529.019407494206
 20
9110.820032430696
 97
0
 75
1
 76
1
 98
0
  0
HATCH
  5
179
330
17
100
AcDbEntity
  8
Hachura
 62
7
100
AcDbHatch
 10
0.0
 20
0.0
 30
0.0
210
0.0
220
0.0
230
1.0
  2
SOLID
 70
1
 71
0
 91
1
 92
3
 72
0
 73
1
 93
8
 10
8563.019407494206
 20
9019.22003243072
 10
8563.019407494206
 20
9023.620032430714
 10
8563.019407494206
 20
9023.620032430714
 10
8543.019407494206
 20
9023.620032430714
 10
8543.019407494206
 20
9023.620032430714
 10
8543.019407494206
 20
9019.22003243072
 10
8543.019407494206
 20
9019.22003243072
 10
8563.019407494206
 20
9019.22003243072
 97
0
 75
1
 76
1
 98
0
  0
HATCH
  5
17A
330
17
100
AcDbEntity
  8
Hachura
 62
7
100
AcDbHatch
 10
0.0
 20
0.0
 30
0.0
210
0.0
220
0.0
230
1.0
  2
SOLID
 70
1
 71
0
 91
1
 92
3
 72
0
 73
1
 93
8
 10
8487.019407494206
 20
9019.22003243072
 10
8487.019407494206
 20
9023.620032430714
 10
8487.019407494206
 20
9023.620032430714
 10
8501.019407494206
 20
9023.620032430714
 10
8501.019407494206
 20
9023.620032430714
 10
8501.019407494206
 20
9019.22003243072
 10
8501.019407494206
 20
9019.22003243072
 10
8487.019407494206
 20
9019.22003243072
 97
0
 75
1
 76
1
 98
0
  0
HATCH
  5
17B
330
17
100
AcDbEntity
  8
Hachura
 62
7
100
AcDbHatch
 10
0.0
 20
0.0
 30
0.0
210
0.0
220
0.0
230
1.0
  2
SOLID
 70
1
 71
0
 91
1
 92
3
 72
0
 73
1
 93
8
 10
8487.019407494206
 20
9023.620032430714
 10
8487.019407494206
 20
9027.22003243072
 10
8487.019407494206
 20
9027.22003243072
 10
8525.019407494206
 20
9027.22003243072
 10
8525.019407494206
 20
9027.22003243072
 10
8525.019407494206
 20
9023.620032430714
 10
8525.019407494206
 20
9023.620032430714
 10
8487.019407494206
 20
9023.620032430714
 97
0
 75
1
 76
1
 98
0
  0
HATCH
  5
17C
330
17
100
AcDbEntity
  8
Hachura
 62
7
100
AcDbHatch
 10
0.0
 20
0.0
 30
0.0
210
0.0
220
0.0
230
1.0
  2
SOLID
 70
1
 71
0
 91
1
 92
3
 72
0
 73
1
 93
8
 10
8525.019407494206
 20
9019.22003243072
 10
8525.019407494206
 20
9023.620032430714
 10
8525.019407494206
 20
9023.620032430714
 10
8511.019407494208
 20
9023.620032430714
 10
8511.019407494208
 20
9023.620032430714
 10
8511.019407494208
 20
9019.22003243072
 10
8511.019407494208
 20
9019.22003243072
 10
8525.019407494206
 20
9019.22003243072
 97
0
 75
1
 76
1
 98
0
  0
HATCH
  5
17D
330
17
100
AcDbEntity
  8
Hachura
 62
7
100
AcDbHatch
 10
0.0
 20
0.0
 30
0.0
210
0.0
220
0.0
230
1.0
  2
SOLID
 70
1
 71
0
 91
1
 92
3
 72
0
 73
1
 93
8
 10
8483.019407494206
 20
9147.22003243072
 10
8487.019407494206
 20
9147.22003243072
 10
8487.019407494206
 20
9147.22003243072
 10
8487.019407494206
 20
9019.22003243072
 10
8487.019407494206
 20
9019.22003243072
 10
8483.019407494206
 20
9019.22003243072
 10
8483.019407494206
 20
9019.22003243072
 10
8483.019407494206
 20
9147.22003243072
 97
0
 75
1
 76
1
 98
0
  0
HATCH
  5
17E
330
17
100
AcDbEntity
  8
Hachura
 62
7
100
AcDbHatch
 10
0.0
 20
0.0
 30
0.0
210
0.0
220
0.0
230
1.0
  2
SOLID
 70
1
 71
0
 91
1
 92
3
 72
0
 73
1
 93
8
 10
8483.019407494196
 20
9142.820032430718
 10
8483.019407494196
 20
9147.22003243072
 10
8483.019407494196
 20
9147.22003243072
 10
8469.019407494196
 20
9147.22003243072
 10
8469.019407494196
 20
9147.22003243072
 10
8469.019407494196
 20
9142.820032430718
 10
8469.019407494196
 20
9142.820032430718
 10
8483.019407494196
 20
9142.820032430718
 97
0
 75
1
 76
1
 98
0
  0
HATCH
  5
17F
330
17
100
AcDbEntity
  8
Hachura
 62
7
100
AcDbHatch
 10
0.0
 20
0.0
 30
0.0
210
0.0
220
0.0
230
1.0
  2
SOLID
 70
1
 71
0
 91
1
 92
3
 72
0
 73
1
 93
8
 10
8449.019407494206
 20
9019.22003243072
 10
8449.019407494206
 20
9023.620032430714
 10
8449.019407494206
 20
9023.620032430714
 10
8469.019407494206
 20
9023.620032430714
 10
8469.019407494206
 20
9023.620032430714
 10
8469.019407494206
 20
9019.22003243072
 10
8469.019407494206
 20
9019.22003243072
 10
8449.019407494206
 20
9019.22003243072
 97
0
 75
1
 76
1
 98
0
  0
HATCH
  5
180
330
17
100
AcDbEntity
  8
Hachura
 62
7
100
AcDbHatch
 10
0.0
 20
0.0
 30
0.0
210
0.0
220
0.0
230
1.0
  2
SOLID
 70
1
 71
0
 91
1
 92
3
 72
0
 73
1
 93
8
 10
8525.019407494206
 20
9115.220032430698
 10
8525.019407494206
 20
9119.220032430698
 10
8525.019407494206
 20
9119.220032430698
 10
8580.619407494181
 20
9119.22003243069
 10
8580.619407494181
 20
9119.22003243069
 10
8580.619407494181
 20
9115.22003243069
 10
8580.619407494181
 20
9115.22003243069
 10
8525.019407494206
 20
9115.220032430698
 97
0
 75
1
 76
1
 98
0
  0
HATCH
  5
181
330
17
100
AcDbEntity
  8
COTA
 62
7
100
AcDbHatch
 10
0.0
 20
0.0
 30
0.0
210
0.0
220
0.0
230
1.0
  2
SOLID
 70
1
 71
0
 91
1
 92
3
 72
0
 73
1
 93
5
 10
8477.916781124539
 20
8891.413111982123
 10
8450.91678112454
 20
8891.413111982114
 10
8450.91678112454
 20
8837.413111982112
 10
8477.916781124542
 20
8837.413111982112
 10
8477.916781124539
 20
8891.413111982123
 97
0
 75
1
 76
1
 98
0
  0
HATCH
  5
182
330
17
100
AcDbEntity
  8
COTA
 62
7
100
AcDbHatch
 10
0.0
 20
0.0
 30
0.0
210
0.0
220
0.0
230
1.0
  2
SOLID
 70
1
 71
0
 91
1
 92
3
 72
0
 73
1
 93
6
 10
8676.916781124512
 20
8889.21311198212
 10
8676.916781124542
 20
8891.413111982114
 10
8649.916781124544
 20
8891.413111982123
 10
8649.916781124542
 20
8837.413111982112
 10
8676.916781124544
 20
8837.413111982112
 10
8676.916781124512
 20
8889.21311198212
 97
0
 75
1
 76
1
 98
0
  0
HATCH
  5
183
330
17
100
AcDbEntity
  8
COTA
 62
7
100
AcDbHatch
 10
0.0
 20
0.0
 30
0.0
210
0.0
220
0.0
230
1.0
  2
SOLID
 70
1
 71
0
 91
1
 92
3
 72
0
 73
1
 93
9
 10
8841.11220101501
 20
8702.528240011987
 10
8841.11220101501
 20
8688.528240011978
 10
8841.11220101501
 20
8688.52824001198
 10
8115.11220101501
 20
8688.528240011949
 10
8115.11220101501
 20
8688.528240011947
 10
8115.11220101501
 20
8702.528240011956
 10
8115.11220101501
 20
8702.528240011958
 10
8841.11220101501
 20
8702.528240011989
 10
8841.11220101501
 20
8702.528240011987
 97
0
 75
1
 76
1
 98
0
  0
LINE
  5
184
330
17
100
AcDbEntity
  8
0
 62
7
370
25
100
AcDbLine
 10
7902.244522932015
 20
8302.220032430723
 30
0.0
 11
7902.244522932015
 21
8501.463545841612
 31
0.0
  0
ENDSEC
  0
SECTION
  2
OBJECTS
  0
DICTIONARY
  5
A
330
0
100
AcDbDictionary
281
1
  3
ACAD_COLOR
350
B
  3
ACAD_GROUP
350
C
  3
ACAD_LAYOUT
350
D
  3
ACAD_MATERIAL
350
E
  3
ACAD_MLEADERSTYLE
350
F
  3
ACAD_MLINESTYLE
350
10
  3
ACAD_PLOTSETTINGS
350
11
  3
ACAD_PLOTSTYLENAME
350
12
  3
ACAD_SCALELIST
350
14
  3
ACAD_TABLESTYLE
350
15
  3
ACAD_VISUALSTYLE
350
16
  3
EZDXF_META
350
2D
  0
DICTIONARY
  5
B
330
A
100
AcDbDictionary
281
1
  0
DICTIONARY
  5
C
330
A
100
AcDbDictionary
281
1
  0
DICTIONARY
  5
D
330
A
100
AcDbDictionary
281
1
  3
Model
350
1A
  3
Layout1
350
1E
  0
DICTIONARY
  5
E
330
A
100
AcDbDictionary
281
1
  3
ByBlock
350
1F
  3
ByLayer
350
20
  3
Global
350
21
  0
DICTIONARY
  5
F
330
A
100
AcDbDictionary
281
1
  3
Standard
350
2C
  0
DICTIONARY
  5
10
330
A
100
AcDbDictionary
281
1
  3
Standard
350
22
  0
DICTIONARY
  5
11
330
A
100
AcDbDictionary
281
1
  0
ACDBDICTIONARYWDFLT
  5
12
330
A
100
AcDbDictionary
281
1
  3
Normal
350
13
100
AcDbDictionaryWithDefault
340
13
  0
ACDBPLACEHOLDER
  5
13
330
12
  0
DICTIONARY
  5
14
330
A
100
AcDbDictionary
281
1
  0
DICTIONARY
  5
15
330
A
100
AcDbDictionary
281
1
  0
DICTIONARY
  5
16
330
A
100
AcDbDictionary
281
1
  0
LAYOUT
  5
1A
330
D
100
AcDbPlotSettings
  1

  4
A3
  6

 40
7.5
 41
20.0
 42
7.5
 43
20.0
 44
420.0
 45
297.0
 46
0.0
 47
0.0
 48
0.0
 49
0.0
140
0.0
141
0.0
142
1.0
143
1.0
 70
1024
 72
1
 73
0
 74
5
  7

 75
16
 76
0
 77
2
 78
300
147
1.0
148
0.0
149
0.0
100
AcDbLayout
  1
Model
 70
1
 71
0
 10
0.0
 20
0.0
 11
420.0
 21
297.0
 12
0.0
 22
0.0
 32
0.0
 14
1e+20
 24
1e+20
 34
1e+20
 15
-1e+20
 25
-1e+20
 35
-1e+20
146
0.0
 13
0.0
 23
0.0
 33
0.0
 16
1.0
 26
0.0
 36
0.0
 17
0.0
 27
1.0
 37
0.0
 76
1
330
17
  0
LAYOUT
  5
1E
330
D
100
AcDbPlotSettings
  1

  4
A3
  6

 40
7.5
 41
20.0
 42
7.5
 43
20.0
 44
420.0
 45
297.0
 46
0.0
 47
0.0
 48
0.0
 49
0.0
140
0.0
141
0.0
142
1.0
143
1.0
 70
0
 72
1
 73
0
 74
5
  7

 75
16
 76
0
 77
2
 78
300
147
1.0
148
0.0
149
0.0
100
AcDbLayout
  1
Layout1
 70
1
 71
1
 10
0.0
 20
0.0
 11
420.0
 21
297.0
 12
0.0
 22
0.0
 32
0.0
 14
1e+20
 24
1e+20
 34
1e+20
 15
-1e+20
 25
-1e+20
 35
-1e+20
146
0.0
 13
0.0
 23
0.0
 33
0.0
 16
1.0
 26
0.0
 36
0.0
 17
0.0
 27
1.0
 37
0.0
 76
1
330
1B
  0
MATERIAL
  5
1F
102
{ACAD_REACTORS
330
E
102
}
330
E
100
AcDbMaterial
  1
ByBlock
  2

 70
0
 40
1.0
 71
1
 41
1.0
 91
-1023410177
 42
1.0
 72
1
  3

 73
1
 74
1
 75
1
 44
0.5
 73
0
 45
1.0
 46
1.0
 77
1
  4

 78
1
 79
1
170
1
 48
1.0
171
1
  6

172
1
173
1
174
1
140
1.0
141
1.0
175
1
  7

176
1
177
1
178
1
143
1.0
179
1
  8

270
1
271
1
272
1
145
1.0
146
1.0
273
1
  9

274
1
275
1
276
1
 42
1.0
 72
1
  3

 73
1
 74
1
 75
1
 94
63
  0
MATERIAL
  5
20
102
{ACAD_REACTORS
330
E
102
}
330
E
100
AcDbMaterial
  1
ByLayer
  2

 70
0
 40
1.0
 71
1
 41
1.0
 91
-1023410177
 42
1.0
 72
1
  3

 73
1
 74
1
 75
1
 44
0.5
 73
0
 45
1.0
 46
1.0
 77
1
  4

 78
1
 79
1
170
1
 48
1.0
171
1
  6

172
1
173
1
174
1
140
1.0
141
1.0
175
1
  7

176
1
177
1
178
1
143
1.0
179
1
  8

270
1
271
1
272
1
145
1.0
146
1.0
273
1
  9

274
1
275
1
276
1
 42
1.0
 72
1
  3

 73
1
 74
1
 75
1
 94
63
  0
MATERIAL
  5
21
102
{ACAD_REACTORS
330
E
102
}
330
E
100
AcDbMaterial
  1
Global
  2

 70
0
 40
1.0
 71
1
 41
1.0
 91
-1023410177
 42
1.0
 72
1
  3

 73
1
 74
1
 75
1
 44
0.5
 73
0
 45
1.0
 46
1.0
 77
1
  4

 78
1
 79
1
170
1
 48
1.0
171
1
  6

172
1
173
1
174
1
140
1.0
141
1.0
175
1
  7

176
1
177
1
178
1
143
1.0
179
1
  8

270
1
271
1
272
1
145
1.0
146
1.0
273
1
  9

274
1
275
1
276
1
 42
1.0
 72
1
  3

 73
1
 74
1
 75
1
 94
63
  0
MLINESTYLE
  5
22
102
{ACAD_REACTORS
330
10
102
}
330
10
100
AcDbMlineStyle
  2
Standard
 70
0
  3

 62
256
 51
90.0
 52
90.0
 71
2
 49
0.5
 62
256
  6
BYLAYER
 49
-0.5
 62
256
  6
BYLAYER
  0
MLEADERSTYLE
  5
2C
102
{ACAD_REACTORS
330
F
102
}
330
F
100
AcDbMLeaderStyle
179
2
170
2
171
1
172
0
 90
2
 40
0.0
 41
0.0
173
1
 91
-1056964608
 92
-2
290
1
 42
2.0
291
1
 43
8.0
  3
Standard
 44
4.0
300

342
29
174
1
175
1
176
0
178
1
 93
-1056964608
 45
4.0
292
0
297
0
 46
4.0
 94
-1056964608
 47
1.0
 49
1.0
140
1.0
294
1
141
0.0
177
0
142
1.0
295
0
296
0
143
3.75
271
0
272
9
273
9
  0
DICTIONARY
  5
2D
330
A
100
AcDbDictionary
280
1
281
1
  3
CREATED_BY_EZDXF
350
2E
  3
WRITTEN_BY_EZDXF
350
187
  0
DICTIONARYVAR
  5
2E
330
2D
100
DictionaryVariables
280
0
  1
1.4.3 @ 2026-06-10T16:53:47.283491+00:00
  0
DICTIONARYVAR
  5
187
330
2D
100
DictionaryVariables
280
0
  1
1.4.3 @ 2026-06-10T16:53:47.294793+00:00
  0
ENDSEC
  0
EOF
