  0
SECTION
  2
HEADER
  9
$ACADVER
  1
AC1024
  9
$ACADMAINTVER
 70
6
  9
$DWGCODEPAGE
  3
ANSI_1252
  9
$LASTSAVEDBY
  1
ezdxf
  9
$INSBASE
 10
0.0
 20
0.0
 30
0.0
  9
$EXTMIN
 10
1e+20
 20
1e+20
 30
1e+20
  9
$EXTMAX
 10
-1e+20
 20
-1e+20
 30
-1e+20
  9
$LIMMIN
 10
0.0
 20
0.0
  9
$LIMMAX
 10
420.0
 20
297.0
  9
$ORTHOMODE
 70
0
  9
$REGENMODE
 70
1
  9
$FILLMODE
 70
1
  9
$QTEXTMODE
 70
0
  9
$MIRRTEXT
 70
1
  9
$LTSCALE
 40
1.0
  9
$ATTMODE
 70
1
  9
$TEXTSIZE
 40
2.5
  9
$TRACEWID
 40
1.0
  9
$TEXTSTYLE
  7
Standard
  9
$CLAYER
  8
0
  9
$CELTYPE
  6
ByLayer
  9
$CECOLOR
 62
256
  9
$CELTSCALE
 40
1.0
  9
$DISPSILH
 70
0
  9
$DIMSCALE
 40
1.0
  9
$DIMASZ
 40
2.5
  9
$DIMEXO
 40
0.625
  9
$DIMDLI
 40
3.75
  9
$DIMRND
 40
0.0
  9
$DIMDLE
 40
0.0
  9
$DIMEXE
 40
1.25
  9
$DIMTP
 40
0.0
  9
$DIMTM
 40
0.0
  9
$DIMTXT
 40
2.5
  9
$DIMCEN
 40
2.5
  9
$DIMTSZ
 40
0.0
  9
$DIMTOL
 70
0
  9
$DIMLIM
 70
0
  9
$DIMTIH
 70
0
  9
$DIMTOH
 70
0
  9
$DIMSE1
 70
0
  9
$DIMSE2
 70
0
  9
$DIMTAD
 70
1
  9
$DIMZIN
 70
8
  9
$DIMBLK
  1

  9
$DIMASO
 70
1
  9
$DIMSHO
 70
1
  9
$DIMPOST
  1

  9
$DIMAPOST
  1

  9
$DIMALT
 70
0
  9
$DIMALTD
 70
3
  9
$DIMALTF
 40
0.03937007874
  9
$DIMLFAC
 40
1.0
  9
$DIMTOFL
 70
1
  9
$DIMTVP
 40
0.0
  9
$DIMTIX
 70
0
  9
$DIMSOXD
 70
0
  9
$DIMSAH
 70
0
  9
$DIMBLK1
  1

  9
$DIMBLK2
  1

  9
$DIMSTYLE
  2
ISO-25
  9
$DIMCLRD
 70
0
  9
$DIMCLRE
 70
0
  9
$DIMCLRT
 70
0
  9
$DIMTFAC
 40
1.0
  9
$DIMGAP
 40
0.625
  9
$DIMJUST
 70
0
  9
$DIMSD1
 70
0
  9
$DIMSD2
 70
0
  9
$DIMTOLJ
 70
0
  9
$DIMTZIN
 70
8
  9
$DIMALTZ
 70
0
  9
$DIMALTTZ
 70
0
  9
$DIMUPT
 70
0
  9
$DIMDEC
 70
2
  9
$DIMTDEC
 70
2
  9
$DIMALTU
 70
2
  9
$DIMALTTD
 70
3
  9
$DIMTXSTY
  7
Standard
  9
$DIMAUNIT
 70
0
  9
$DIMADEC
 70
0
  9
$DIMALTRND
 40
0.0
  9
$DIMAZIN
 70
0
  9
$DIMDSEP
 70
44
  9
$DIMATFIT
 70
3
  9
$DIMFRAC
 70
0
  9
$DIMLDRBLK
  1

  9
$DIMLUNIT
 70
2
  9
$DIMLWD
 70
-2
  9
$DIMLWE
 70
-2
  9
$DIMTMOVE
 70
0
  9
$DIMFXL
 40
1.0
  9
$DIMFXLON
 70
0
  9
$DIMJOGANG
 40
0.785398163397
  9
$DIMTFILL
 70
0
  9
$DIMTFILLCLR
 70
0
  9
$DIMARCSYM
 70
0
  9
$DIMLTYPE
  6

  9
$DIMLTEX1
  6

  9
$DIMLTEX2
  6

  9
$DIMTXTDIRECTION
 70
0
  9
$LUNITS
 70
2
  9
$LUPREC
 70
4
  9
$SKETCHINC
 40
1.0
  9
$FILLETRAD
 40
10.0
  9
$AUNITS
 70
0
  9
$AUPREC
 70
2
  9
$MENU
  1
.
  9
$ELEVATION
 40
0.0
  9
$PELEVATION
 40
0.0
  9
$THICKNESS
 40
0.0
  9
$LIMCHECK
 70
0
  9
$CHAMFERA
 40
0.0
  9
$CHAMFERB
 40
0.0
  9
$CHAMFERC
 40
0.0
  9
$CHAMFERD
 40
0.0
  9
$SKPOLY
 70
0
  9
$TDCREATE
 40
2461202.0576967592
  9
$TDUCREATE
 40
2458532.153996898
  9
$TDUPDATE
 40
2461202.0576967592
  9
$TDUUPDATE
 40
2458532.1544311
  9
$TDINDWG
 40
0.0
  9
$TDUSRTIMER
 40
0.0
  9
$USRTIMER
 70
1
  9
$ANGBASE
 50
0.0
  9
$ANGDIR
 70
0
  9
$PDMODE
 70
0
  9
$PDSIZE
 40
0.0
  9
$PLINEWID
 40
0.0
  9
$SPLFRAME
 70
0
  9
$SPLINETYPE
 70
6
  9
$SPLINESEGS
 70
8
  9
$HANDSEED
  5
19C
  9
$SURFTAB1
 70
6
  9
$SURFTAB2
 70
6
  9
$SURFTYPE
 70
6
  9
$SURFU
 70
6
  9
$SURFV
 70
6
  9
$UCSBASE
  2

  9
$UCSNAME
  2

  9
$UCSORG
 10
0.0
 20
0.0
 30
0.0
  9
$UCSXDIR
 10
1.0
 20
0.0
 30
0.0
  9
$UCSYDIR
 10
0.0
 20
1.0
 30
0.0
  9
$UCSORTHOREF
  2

  9
$UCSORTHOVIEW
 70
0
  9
$UCSORGTOP
 10
0.0
 20
0.0
 30
0.0
  9
$UCSORGBOTTOM
 10
0.0
 20
0.0
 30
0.0
  9
$UCSORGLEFT
 10
0.0
 20
0.0
 30
0.0
  9
$UCSORGRIGHT
 10
0.0
 20
0.0
 30
0.0
  9
$UCSORGFRONT
 10
0.0
 20
0.0
 30
0.0
  9
$UCSORGBACK
 10
0.0
 20
0.0
 30
0.0
  9
$PUCSBASE
  2

  9
$PUCSNAME
  2

  9
$PUCSORG
 10
0.0
 20
0.0
 30
0.0
  9
$PUCSXDIR
 10
1.0
 20
0.0
 30
0.0
  9
$PUCSYDIR
 10
0.0
 20
1.0
 30
0.0
  9
$PUCSORTHOREF
  2

  9
$PUCSORTHOVIEW
 70
0
  9
$PUCSORGTOP
 10
0.0
 20
0.0
 30
0.0
  9
$PUCSORGBOTTOM
 10
0.0
 20
0.0
 30
0.0
  9
$PUCSORGLEFT
 10
0.0
 20
0.0
 30
0.0
  9
$PUCSORGRIGHT
 10
0.0
 20
0.0
 30
0.0
  9
$PUCSORGFRONT
 10
0.0
 20
0.0
 30
0.0
  9
$PUCSORGBACK
 10
0.0
 20
0.0
 30
0.0
  9
$USERI1
 70
0
  9
$USERI2
 70
0
  9
$USERI3
 70
0
  9
$USERI4
 70
0
  9
$USERI5
 70
0
  9
$USERR1
 40
0.0
  9
$USERR2
 40
0.0
  9
$USERR3
 40
0.0
  9
$USERR4
 40
0.0
  9
$USERR5
 40
0.0
  9
$WORLDVIEW
 70
1
  9
$SHADEDGE
 70
3
  9
$SHADEDIF
 70
70
  9
$TILEMODE
 70
1
  9
$MAXACTVP
 70
64
  9
$PINSBASE
 10
0.0
 20
0.0
 30
0.0
  9
$PLIMCHECK
 70
0
  9
$PEXTMIN
 10
1e+20
 20
1e+20
 30
1e+20
  9
$PEXTMAX
 10
-1e+20
 20
-1e+20
 30
-1e+20
  9
$PLIMMIN
 10
0.0
 20
0.0
  9
$PLIMMAX
 10
420.0
 20
297.0
  9
$UNITMODE
 70
0
  9
$VISRETAIN
 70
1
  9
$PLINEGEN
 70
0
  9
$PSLTSCALE
 70
1
  9
$TREEDEPTH
 70
3020
  9
$CMLSTYLE
  2
Standard
  9
$CMLJUST
 70
0
  9
$CMLSCALE
 40
20.0
  9
$PROXYGRAPHICS
 70
1
  9
$MEASUREMENT
 70
1
  9
$CELWEIGHT
370
-1
  9
$ENDCAPS
280
0
  9
$JOINSTYLE
280
0
  9
$LWDISPLAY
290
0
  9
$INSUNITS
 70
6
  9
$HYPERLINKBASE
  1

  9
$STYLESHEET
  1

  9
$XEDIT
290
1
  9
$CEPSNTYPE
380
0
  9
$PSTYLEMODE
290
1
  9
$FINGERPRINTGUID
  2
{2D9DE853-F6D1-451E-A5A4-8BF66508F3D0}
  9
$VERSIONGUID
  2
{348BBC77-06A4-4818-B802-92D9202ABC84}
  9
$EXTNAMES
290
1
  9
$PSVPSCALE
 40
0.0
  9
$OLESTARTUP
290
0
  9
$SORTENTS
280
127
  9
$INDEXCTL
280
0
  9
$HIDETEXT
280
1
  9
$XCLIPFRAME
280
1
  9
$HALOGAP
280
0
  9
$OBSCOLOR
 70
257
  9
$OBSLTYPE
280
0
  9
$INTERSECTIONDISPLAY
280
0
  9
$INTERSECTIONCOLOR
 70
257
  9
$DIMASSOC
280
2
  9
$PROJECTNAME
  1

  9
$CAMERADISPLAY
290
0
  9
$LENSLENGTH
 40
50.0
  9
$CAMERAHEIGHT
 40
0.0
  9
$STEPSPERSEC
 40
24.0
  9
$STEPSIZE
 40
100.0
  9
$3DDWFPREC
 40
2.0
  9
$PSOLWIDTH
 40
0.005
  9
$PSOLHEIGHT
 40
0.08
  9
$LOFTANG1
 40
1.570796326795
  9
$LOFTANG2
 40
1.570796326795
  9
$LOFTMAG1
 40
0.0
  9
$LOFTMAG2
 40
0.0
  9
$LOFTPARAM
 70
7
  9
$LOFTNORMALS
280
1
  9
$LATITUDE
 40
37.795
  9
$LONGITUDE
 40
-122.394
  9
$NORTHDIRECTION
 40
0.0
  9
$TIMEZONE
 70
-8000
  9
$LIGHTGLYPHDISPLAY
280
1
  9
$TILEMODELIGHTSYNCH
280
1
  9
$CMATERIAL
347
20
  9
$SOLIDHIST
280
0
  9
$SHOWHIST
280
1
  9
$DWFFRAME
280
2
  9
$DGNFRAME
280
2
  9
$REALWORLDSCALE
290
1
  9
$INTERFERECOLOR
 62
256
  9
$CSHADOW
280
0
  9
$SHADOWPLANELOCATION
 40
0.0
  0
ENDSEC
  0
SECTION
  2
CLASSES
  0
CLASS
  1
ACDBDICTIONARYWDFLT
  2
AcDbDictionaryWithDefault
  3
ObjectDBX Classes
 90
0
 91
0
280
0
281
0
  0
CLASS
  1
SUN
  2
AcDbSun
  3
SCENEOE
 90
1153
 91
0
280
0
281
0
  0
CLASS
  1
VISUALSTYLE
  2
AcDbVisualStyle
  3
ObjectDBX Classes
 90
4095
 91
0
280
0
281
0
  0
CLASS
  1
MATERIAL
  2
AcDbMaterial
  3
ObjectDBX Classes
 90
1153
 91
0
280
0
281
0
  0
CLASS
  1
SCALE
  2
AcDbScale
  3
ObjectDBX Classes
 90
1153
 91
0
280
0
281
0
  0
CLASS
  1
TABLESTYLE
  2
AcDbTableStyle
  3
ObjectDBX Classes
 90
4095
 91
0
280
0
281
0
  0
CLASS
  1
MLEADERSTYLE
  2
AcDbMLeaderStyle
  3
ACDB_MLEADERSTYLE_CLASS
 90
4095
 91
0
280
0
281
0
  0
CLASS
  1
DICTIONARYVAR
  2
AcDbDictionaryVar
  3
ObjectDBX Classes
 90
0
 91
0
280
0
281
0
  0
CLASS
  1
CELLSTYLEMAP
  2
AcDbCellStyleMap
  3
ObjectDBX Classes
 90
1152
 91
0
280
0
281
0
  0
CLASS
  1
MENTALRAYRENDERSETTINGS
  2
AcDbMentalRayRenderSettings
  3
SCENEOE
 90
1024
 91
0
280
0
281
0
  0
CLASS
  1
ACDBDETAILVIEWSTYLE
  2
AcDbDetailViewStyle
  3
ObjectDBX Classes
 90
1025
 91
0
280
0
281
0
  0
CLASS
  1
ACDBSECTIONVIEWSTYLE
  2
AcDbSectionViewStyle
  3
ObjectDBX Classes
 90
1025
 91
0
280
0
281
0
  0
CLASS
  1
RASTERVARIABLES
  2
AcDbRasterVariables
  3
ISM
 90
0
 91
0
280
0
281
0
  0
CLASS
  1
ACDBPLACEHOLDER
  2
AcDbPlaceHolder
  3
ObjectDBX Classes
 90
0
 91
0
280
0
281
0
  0
CLASS
  1
LAYOUT
  2
AcDbLayout
  3
ObjectDBX Classes
 90
0
 91
0
280
0
281
0
  0
ENDSEC
  0
SECTION
  2
TABLES
  0
TABLE
  2
VPORT
  5
8
330
0
100
AcDbSymbolTable
 70
1
  0
VPORT
  5
23
330
8
100
AcDbSymbolTableRecord
100
AcDbViewportTableRecord
  2
*Active
 70
0
 10
0.0
 20
0.0
 11
1.0
 21
1.0
 12
0.0
 22
0.0
 13
0.0
 23
0.0
 14
0.5
 24
0.5
 15
0.5
 25
0.5
 16
0.0
 26
0.0
 36
1.0
 17
0.0
 27
0.0
 37
0.0
 40
1000.0
 41
1.34
 42
50.0
 43
0.0
 44
0.0
 50
0.0
 51
0.0
 71
0
 72
1000
 73
1
 74
3
 75
0
 76
0
 77
0
 78
0
281
0
 65
0
146
0.0
  0
ENDTAB
  0
TABLE
  2
LTYPE
  5
2
330
0
100
AcDbSymbolTable
 70
3
  0
LTYPE
  5
24
330
2
100
AcDbSymbolTableRecord
100
AcDbLinetypeTableRecord
  2
ByBlock
 70
0
  3

 72
65
 73
0
 40
0.0
  0
LTYPE
  5
25
330
2
100
AcDbSymbolTableRecord
100
AcDbLinetypeTableRecord
  2
ByLayer
 70
0
  3

 72
65
 73
0
 40
0.0
  0
LTYPE
  5
26
330
2
100
AcDbSymbolTableRecord
100
AcDbLinetypeTableRecord
  2
Continuous
 70
0
  3

 72
65
 73
0
 40
0.0
  0
ENDTAB
  0
TABLE
  2
LAYER
  5
1
330
0
100
AcDbSymbolTable
 70
20
  0
LAYER
  5
27
330
1
100
AcDbSymbolTableRecord
100
AcDbLayerTableRecord
  2
0
 70
0
 62
7
  6
Continuous
370
-3
390
13
347
21
  0
LAYER
  5
28
330
1
100
AcDbSymbolTableRecord
100
AcDbLayerTableRecord
  2
Defpoints
 70
0
 62
7
  6
Continuous
290
0
370
-3
390
13
347
21
  0
LAYER
  5
2F
330
1
100
AcDbSymbolTableRecord
100
AcDbLayerTableRecord
  2
00 - FELIPE
 70
0
 62
7
  6
Continuous
370
-3
390
13
347
21
  0
LAYER
  5
30
330
1
100
AcDbSymbolTableRecord
100
AcDbLayerTableRecord
  2
CONCRETO
 70
0
 62
7
  6
Continuous
370
-3
390
13
347
21
  0
LAYER
  5
31
330
1
100
AcDbSymbolTableRecord
100
AcDbLayerTableRecord
  2
Painéis
 70
0
 62
7
  6
Continuous
370
-3
390
13
347
21
  0
LAYER
  5
32
330
1
100
AcDbSymbolTableRecord
100
AcDbLayerTableRecord
  2
barrote
 70
0
 62
7
  6
Continuous
370
-3
390
13
347
21
  0
LAYER
  5
33
330
1
100
AcDbSymbolTableRecord
100
AcDbLayerTableRecord
  2
SARR_2.2x7
 70
0
 62
7
  6
Continuous
370
-3
390
13
347
21
  0
LAYER
  5
34
330
1
100
AcDbSymbolTableRecord
100
AcDbLayerTableRecord
  2
REAPROVEITAMENTO
 70
0
 62
7
  6
Continuous
370
-3
390
13
347
21
  0
LAYER
  5
35
330
1
100
AcDbSymbolTableRecord
100
AcDbLayerTableRecord
  2
Madeira
 70
0
 62
7
  6
Continuous
370
-3
390
13
347
21
  0
LAYER
  5
36
330
1
100
AcDbSymbolTableRecord
100
AcDbLayerTableRecord
  2
COTA
 70
0
 62
7
  6
Continuous
370
-3
390
13
347
21
  0
LAYER
  5
37
330
1
100
AcDbSymbolTableRecord
100
AcDbLayerTableRecord
  2
Cota Seção (2x)
 70
0
 62
7
  6
Continuous
370
-3
390
13
347
21
  0
LAYER
  5
38
330
1
100
AcDbSymbolTableRecord
100
AcDbLayerTableRecord
  2
detalhes
 70
0
 62
7
  6
Continuous
370
-3
390
13
347
21
  0
LAYER
  5
39
330
1
100
AcDbSymbolTableRecord
100
AcDbLayerTableRecord
  2
5
 70
0
 62
7
  6
Continuous
370
-3
390
13
347
21
  0
LAYER
  5
3A
330
1
100
AcDbSymbolTableRecord
100
AcDbLayerTableRecord
  2
TENSOR
 70
0
 62
7
  6
Continuous
370
-3
390
13
347
21
  0
LAYER
  5
3B
330
1
100
AcDbSymbolTableRecord
100
AcDbLayerTableRecord
  2
SCO-___-LAJ
 70
0
 62
7
  6
Continuous
370
-3
390
13
347
21
  0
LAYER
  5
3C
330
1
100
AcDbSymbolTableRecord
100
AcDbLayerTableRecord
  2
texto
 70
0
 62
7
  6
Continuous
370
-3
390
13
347
21
  0
LAYER
  5
3D
330
1
100
AcDbSymbolTableRecord
100
AcDbLayerTableRecord
  2
presilha
 70
0
 62
7
  6
Continuous
370
-3
390
13
347
21
  0
LAYER
  5
3E
330
1
100
AcDbSymbolTableRecord
100
AcDbLayerTableRecord
  2
Texto Seção
 70
0
 62
7
  6
Continuous
370
-3
390
13
347
21
  0
LAYER
  5
3F
330
1
100
AcDbSymbolTableRecord
100
AcDbLayerTableRecord
  2
SARR_3.5x7
 70
0
 62
7
  6
Continuous
370
-3
390
13
347
21
  0
LAYER
  5
40
330
1
100
AcDbSymbolTableRecord
100
AcDbLayerTableRecord
  2
Hachura
 70
0
 62
7
  6
Continuous
370
-3
390
13
347
21
  0
ENDTAB
  0
TABLE
  2
STYLE
  5
5
330
0
100
AcDbSymbolTable
 70
1
  0
STYLE
  5
29
330
5
100
AcDbSymbolTableRecord
100
AcDbTextStyleTableRecord
  2
Standard
 70
0
 40
0.0
 41
1.0
 50
0.0
 71
0
 42
2.5
  3
txt
  4

  0
ENDTAB
  0
TABLE
  2
VIEW
  5
7
330
0
100
AcDbSymbolTable
 70
0
  0
ENDTAB
  0
TABLE
  2
UCS
  5
6
330
0
100
AcDbSymbolTable
 70
0
  0
ENDTAB
  0
TABLE
  2
APPID
  5
3
330
0
100
AcDbSymbolTable
 70
3
  0
APPID
  5
2A
330
3
100
AcDbSymbolTableRecord
100
AcDbRegAppTableRecord
  2
ACAD
 70
0
  0
APPID
  5
199
330
3
100
AcDbSymbolTableRecord
100
AcDbRegAppTableRecord
  2
HATCHBACKGROUNDCOLOR
 70
0
  0
APPID
  5
19A
330
3
100
AcDbSymbolTableRecord
100
AcDbRegAppTableRecord
  2
EZDXF
 70
0
  0
ENDTAB
  0
TABLE
  2
DIMSTYLE
  5
4
330
0
100
AcDbSymbolTable
 70
1
100
AcDbDimStyleTable
  0
DIMSTYLE
105
2B
330
4
100
AcDbSymbolTableRecord
100
AcDbDimStyleTableRecord
  2
Standard
 70
0
 40
1.0
 41
2.5
 42
0.625
 43
3.75
 44
1.25
 45
0.0
 46
0.0
 47
0.0
 48
0.0
 49
2.5
140
2.5
141
2.5
142
0.0
143
0.03937007874
144
1.0
145
0.0
146
1.0
147
0.625
148
0.0
 69
0
 70
0
 71
0
 72
0
 73
0
 74
0
 75
0
 76
0
 77
1
 78
8
 79
3
170
0
171
3
172
1
173
0
174
0
175
0
176
0
177
0
178
0
179
2
271
2
272
2
273
2
274
3
275
0
276
0
277
2
278
44
279
0
280
0
281
0
282
0
283
0
284
8
285
0
286
0
288
0
289
3
290
0
371
-2
372
-2
  0
ENDTAB
  0
TABLE
  2
BLOCK_RECORD
  5
9
330
0
100
AcDbSymbolTable
 70
2
  0
BLOCK_RECORD
  5
17
330
9
100
AcDbSymbolTableRecord
100
AcDbBlockTableRecord
  2
*Model_Space
340
1A
 70
0
280
1
281
0
  0
BLOCK_RECORD
  5
1B
330
9
100
AcDbSymbolTableRecord
100
AcDbBlockTableRecord
  2
*Paper_Space
340
1E
 70
0
280
1
281
0
  0
ENDTAB
  0
ENDSEC
  0
SECTION
  2
BLOCKS
  0
BLOCK
  5
18
330
17
100
AcDbEntity
  8
0
100
AcDbBlockBegin
  2
*Model_Space
 70
0
 10
0.0
 20
0.0
 30
0.0
  3
*Model_Space
  1

  0
ENDBLK
  5
19
330
17
100
AcDbEntity
  8
0
100
AcDbBlockEnd
  0
BLOCK
  5
1C
330
1B
100
AcDbEntity
  8
0
100
AcDbBlockBegin
  2
*Paper_Space
 70
0
 10
0.0
 20
0.0
 30
0.0
  3
*Paper_Space
  1

  0
ENDBLK
  5
1D
330
1B
100
AcDbEntity
  8
0
100
AcDbBlockEnd
  0
ENDSEC
  0
SECTION
  2
ENTITIES
  0
LINE
  5
41
330
17
100
AcDbEntity
  8
0
 62
7
370
25
100
AcDbLine
 10
6215.329450260926
 20
10223.76519764569
 30
0.0
 11
6215.329450260926
 21
10211.76519764569
 31
0.0
  0
LINE
  5
42
330
17
100
AcDbEntity
  8
0
 62
7
370
25
100
AcDbLine
 10
6069.329450260897
 20
10220.7651976457
 30
0.0
 11
6069.329450260897
 21
10214.7651976457
 31
0.0
  0
LINE
  5
43
330
17
100
AcDbEntity
  8
0
 62
7
370
25
100
AcDbLine
 10
6071.329450260897
 20
10223.7651976457
 30
0.0
 11
6071.329450260897
 21
10211.7651976457
 31
0.0
  0
LINE
  5
44
330
17
100
AcDbEntity
  8
0
 62
7
370
25
100
AcDbLine
 10
6071.329450260897
 20
10214.7651976457
 30
0.0
 11
6069.329450260897
 21
10214.7651976457
 31
0.0
  0
LINE
  5
45
330
17
100
AcDbEntity
  8
0
 62
7
370
25
100
AcDbLine
 10
6215.329450260926
 20
10211.76519764569
 30
0.0
 11
6185.329450260926
 21
10211.76519764569
 31
0.0
  0
LINE
  5
46
330
17
100
AcDbEntity
  8
0
 62
7
370
25
100
AcDbLine
 10
6101.329450260897
 20
10216.7651976457
 30
0.0
 11
6071.329450260897
 21
10216.7651976457
 31
0.0
  0
LINE
  5
47
330
17
100
AcDbEntity
  8
0
 62
7
370
25
100
AcDbLine
 10
6101.329450260897
 20
10218.7651976457
 30
0.0
 11
6071.329450260897
 21
10218.7651976457
 31
0.0
  0
LINE
  5
48
330
17
100
AcDbEntity
  8
TENSOR
 62
3
370
25
100
AcDbLine
 10
6066.329450260897
 20
10217.76519764569
 30
0.0
 11
6220.632744439025
 21
10217.76519764569
 31
0.0
  0
LINE
  5
49
330
17
100
AcDbEntity
  8
0
 62
7
370
25
100
AcDbLine
 10
6071.329450260897
 20
10220.7651976457
 30
0.0
 11
6069.329450260897
 21
10220.7651976457
 31
0.0
  0
LINE
  5
4A
330
17
100
AcDbEntity
  8
0
 62
7
370
25
100
AcDbLine
 10
6185.329450260926
 20
10216.76519764569
 30
0.0
 11
6215.329450260926
 21
10216.76519764569
 31
0.0
  0
LINE
  5
4B
330
17
100
AcDbEntity
  8
0
 62
7
370
25
100
AcDbLine
 10
6185.329450260926
 20
10218.76519764569
 30
0.0
 11
6215.329450260926
 21
10218.76519764569
 31
0.0
  0
LINE
  5
4C
330
17
100
AcDbEntity
  8
0
 62
7
370
25
100
AcDbLine
 10
6215.329450260926
 20
10223.76519764569
 30
0.0
 11
6185.329450260926
 21
10223.76519764569
 31
0.0
  0
LINE
  5
4D
330
17
100
AcDbEntity
  8
0
 62
7
370
25
100
AcDbLine
 10
6071.329450260897
 20
10211.7651976457
 30
0.0
 11
6101.329450260897
 21
10211.7651976457
 31
0.0
  0
LINE
  5
4E
330
17
100
AcDbEntity
  8
0
 62
7
370
25
100
AcDbLine
 10
6071.329450260897
 20
10223.7651976457
 30
0.0
 11
6101.329450260897
 21
10223.7651976457
 31
0.0
  0
LINE
  5
4F
330
17
100
AcDbEntity
  8
0
 62
7
370
25
100
AcDbLine
 10
6217.329450260926
 20
10220.76519764569
 30
0.0
 11
6217.329450260926
 21
10214.76519764569
 31
0.0
  0
LINE
  5
50
330
17
100
AcDbEntity
  8
0
 62
7
370
25
100
AcDbLine
 10
6215.329450260926
 20
10214.76519764569
 30
0.0
 11
6217.329450260926
 21
10214.76519764569
 31
0.0
  0
LINE
  5
51
330
17
100
AcDbEntity
  8
0
 62
7
370
25
100
AcDbLine
 10
6217.329450260926
 20
10220.76519764569
 30
0.0
 11
6215.329450260926
 21
10220.76519764569
 31
0.0
  0
LINE
  5
52
330
17
100
AcDbEntity
  8
SARR_2.2x7
 62
40
370
25
100
AcDbLine
 10
6406.031141289694
 20
10340.67499423901
 30
0.0
 11
6635.031141289694
 21
10340.67499423902
 31
0.0
  0
LINE
  5
53
330
17
100
AcDbEntity
  8
SARR_2.2x7
 62
40
370
25
100
AcDbLine
 10
6635.031141289694
 20
10340.67499423902
 30
0.0
 11
6738.031141289695
 21
10340.67499423902
 31
0.0
  0
LINE
  5
54
330
17
100
AcDbEntity
  8
SARR_2.2x7
 62
40
370
25
100
AcDbLine
 10
6838.031141289696
 20
10340.67499423902
 30
0.0
 11
6879.031141289693
 21
10340.67499423901
 31
0.0
  0
LINE
  5
55
330
17
100
AcDbEntity
  8
SARR_2.2x7
 62
40
370
25
100
AcDbLine
 10
6879.031141289694
 20
10340.67499423901
 30
0.0
 11
6989.031141289699
 21
10340.67499423901
 31
0.0
  0
LINE
  5
56
330
17
100
AcDbEntity
  8
SARR_2.2x7
 62
40
370
25
100
AcDbLine
 10
6398.031141289695
 20
10278.874994239
 30
0.0
 11
6398.031141289692
 21
10342.874994239
 31
0.0
  0
LINE
  5
57
330
17
100
AcDbEntity
  8
SARR_3.5x7
 62
81
370
25
100
AcDbLine
 10
6638.531141289722
 20
10340.67499423906
 30
0.0
 11
6638.531141289753
 21
10278.87499423902
 31
0.0
  0
LINE
  5
58
330
17
100
AcDbEntity
  8
SARR_3.5x7
 62
81
370
25
100
AcDbLine
 10
6631.531141289634
 20
10340.67499423912
 30
0.0
 11
6631.531141289608
 21
10278.87499423902
 31
0.0
  0
LINE
  5
59
330
17
100
AcDbEntity
  8
SARR_3.5x7
 62
81
370
25
100
AcDbLine
 10
6406.031141289692
 20
10342.87499423902
 30
0.0
 11
6406.031141289695
 21
10278.874994239
 31
0.0
  0
LINE
  5
5A
330
17
100
AcDbEntity
  8
SARR_3.5x7
 62
81
370
25
100
AcDbLine
 10
6409.531141289694
 20
10340.67499423902
 30
0.0
 11
6409.531141289696
 21
10278.874994239
 31
0.0
  0
LINE
  5
5B
330
17
100
AcDbEntity
  8
SARR_3.5x7
 62
81
370
25
100
AcDbLine
 10
6635.031141289694
 20
10340.67499423902
 30
0.0
 11
6635.031141289696
 21
10278.87499423903
 31
0.0
  0
LINE
  5
5C
330
17
100
AcDbEntity
  8
SARR_3.5x7
 62
81
370
25
100
AcDbLine
 10
6631.531141289608
 20
10278.87499423902
 30
0.0
 11
6635.031141289696
 21
10278.87499423902
 31
0.0
  0
LINE
  5
5D
330
17
100
AcDbEntity
  8
SARR_3.5x7
 62
81
370
25
100
AcDbLine
 10
6635.031141289696
 20
10278.87499423902
 30
0.0
 11
6638.531141289753
 21
10278.87499423902
 31
0.0
  0
LINE
  5
5E
330
17
100
AcDbEntity
  8
SARR_3.5x7
 62
81
370
25
100
AcDbLine
 10
6406.031141289695
 20
10278.874994239
 30
0.0
 11
6409.531141289696
 21
10278.874994239
 31
0.0
  0
LINE
  5
5F
330
17
100
AcDbEntity
  8
Painéis
 62
200
370
25
100
AcDbLine
 10
6391.03114128969
 20
10342.874994239
 30
0.0
 11
7004.031141289691
 21
10342.87499423903
 31
0.0
  0
LINE
  5
60
330
17
100
AcDbEntity
  8
Painéis
 62
200
370
25
100
AcDbLine
 10
6391.031141289695
 20
10278.874994239
 30
0.0
 11
7004.031141289695
 21
10278.87499423903
 31
0.0
  0
LINE
  5
61
330
17
100
AcDbEntity
  8
Painéis
 62
200
370
25
100
AcDbLine
 10
6635.031141289696
 20
10278.87499423902
 30
0.0
 11
6635.031141289691
 21
10342.87499423902
 31
0.0
  0
LINE
  5
62
330
17
100
AcDbEntity
  8
Painéis
 62
200
370
25
100
AcDbLine
 10
7004.031141289695
 20
10278.87499423903
 30
0.0
 11
7004.031141289691
 21
10342.87499423903
 31
0.0
  0
LINE
  5
63
330
17
100
AcDbEntity
  8
Painéis
 62
200
370
25
100
AcDbLine
 10
6391.031141289695
 20
10278.874994239
 30
0.0
 11
6391.031141289691
 21
10342.874994239
 31
0.0
  0
LINE
  5
64
330
17
100
AcDbEntity
  8
SARR_2.2x7
 62
40
370
25
100
AcDbLine
 10
6997.031141289696
 20
10278.874994239
 30
0.0
 11
6997.031141289699
 21
10342.874994239
 31
0.0
  0
LINE
  5
65
330
17
100
AcDbEntity
  8
SARR_3.5x7
 62
81
370
25
100
AcDbLine
 10
6989.031141289699
 20
10342.87499423902
 30
0.0
 11
6989.031141289695
 21
10278.874994239
 31
0.0
  0
LINE
  5
66
330
17
100
AcDbEntity
  8
SARR_3.5x7
 62
81
370
25
100
AcDbLine
 10
6985.531141289697
 20
10340.67499423902
 30
0.0
 11
6985.531141289695
 21
10278.874994239
 31
0.0
  0
LINE
  5
67
330
17
100
AcDbEntity
  8
SARR_3.5x7
 62
81
370
25
100
AcDbLine
 10
6882.531141289722
 20
10340.67499423906
 30
0.0
 11
6882.531141289753
 21
10278.87499423902
 31
0.0
  0
LINE
  5
68
330
17
100
AcDbEntity
  8
SARR_3.5x7
 62
81
370
25
100
AcDbLine
 10
6875.531141289636
 20
10340.67499423912
 30
0.0
 11
6875.531141289608
 21
10278.87499423902
 31
0.0
  0
LINE
  5
69
330
17
100
AcDbEntity
  8
SARR_3.5x7
 62
81
370
25
100
AcDbLine
 10
6879.031141289694
 20
10340.67499423902
 30
0.0
 11
6879.031141289695
 21
10278.87499423903
 31
0.0
  0
LINE
  5
6A
330
17
100
AcDbEntity
  8
Painéis
 62
200
370
25
100
AcDbLine
 10
6879.031141289695
 20
10278.87499423902
 30
0.0
 11
6879.031141289691
 21
10342.87499423902
 31
0.0
  0
LINE
  5
6B
330
17
100
AcDbEntity
  8
SARR_3.5x7
 62
81
370
25
100
AcDbLine
 10
6838.031141289696
 20
10278.87394423776
 30
0.0
 11
6838.031141289696
 21
10342.87394423776
 31
0.0
  0
LINE
  5
6C
330
17
100
AcDbEntity
  8
SARR_2.2x7
 62
40
370
25
100
AcDbLine
 10
6738.031141289695
 20
10335.87394423777
 30
0.0
 11
6838.031141289696
 21
10335.87394423776
 31
0.0
  0
LINE
  5
6D
330
17
100
AcDbEntity
  8
SARR_3.5x7
 62
81
370
25
100
AcDbLine
 10
6733.531141289637
 20
10278.87504450504
 30
0.0
 11
6733.531141289637
 21
10340.6739442378
 31
0.0
  0
LINE
  5
6E
330
17
100
AcDbEntity
  8
SARR_3.5x7
 62
81
370
25
100
AcDbLine
 10
6738.031141289695
 20
10342.87394423777
 30
0.0
 11
6738.031141289695
 21
10278.87499423902
 31
0.0
  0
LINE
  5
6F
330
17
100
AcDbEntity
  8
SARR_3.5x7
 62
81
370
25
100
AcDbLine
 10
6841.531141289721
 20
10340.67394423783
 30
0.0
 11
6841.531141289753
 21
10278.87663067713
 31
0.0
  0
LINE
  5
70
330
17
100
AcDbEntity
  8
SARR_3.5x7
 62
81
370
25
100
AcDbLine
 10
6860.207386637201
 20
10340.67499423902
 30
0.0
 11
6860.207386637156
 21
10278.87499423902
 31
0.0
  0
LINE
  5
71
330
17
100
AcDbEntity
  8
SARR_3.5x7
 62
81
370
25
100
AcDbLine
 10
6856.707386637203
 20
10340.67499423906
 30
0.0
 11
6856.707386637189
 21
10278.87499423902
 31
0.0
  0
LINE
  5
72
330
17
100
AcDbEntity
  8
SARR_2.2x7
 62
40
370
25
100
AcDbLine
 10
6985.98431261463
 20
10106.29910473152
 30
0.0
 11
6783.484312614621
 21
10106.29910473153
 31
0.0
  0
LINE
  5
73
330
17
100
AcDbEntity
  8
SARR_2.2x7
 62
40
370
25
100
AcDbLine
 10
6783.484312614621
 20
10106.29910473153
 30
0.0
 11
6653.984312614626
 21
10106.29910473131
 31
0.0
  0
LINE
  5
74
330
17
100
AcDbEntity
  8
SARR_3.5x7
 62
81
370
25
100
AcDbLine
 10
6779.984312614593
 20
10106.29910473158
 30
0.0
 11
6779.984312614562
 21
10060.49910473153
 31
0.0
  0
LINE
  5
75
330
17
100
AcDbEntity
  8
SARR_3.5x7
 62
81
370
25
100
AcDbLine
 10
6786.984312614681
 20
10106.29910473164
 30
0.0
 11
6786.984312614707
 21
10060.49910473153
 31
0.0
  0
LINE
  5
76
330
17
100
AcDbEntity
  8
SARR_3.5x7
 62
81
370
25
100
AcDbLine
 10
6783.484312614621
 20
10106.29910473153
 30
0.0
 11
6783.48431261462
 21
10060.49910473155
 31
0.0
  0
LINE
  5
77
330
17
100
AcDbEntity
  8
SARR_3.5x7
 62
81
370
25
100
AcDbLine
 10
6786.984312614707
 20
10060.49910473153
 30
0.0
 11
6783.48431261462
 21
10060.49910473153
 31
0.0
  0
LINE
  5
78
330
17
100
AcDbEntity
  8
SARR_3.5x7
 62
81
370
25
100
AcDbLine
 10
6783.48431261462
 20
10060.49910473153
 30
0.0
 11
6779.984312614562
 21
10060.49910473153
 31
0.0
  0
LINE
  5
79
330
17
100
AcDbEntity
  8
Painéis
 62
200
370
25
100
AcDbLine
 10
7000.984312614625
 20
10108.49910473152
 30
0.0
 11
6617.484312614623
 21
10108.49910473154
 31
0.0
  0
LINE
  5
7A
330
17
100
AcDbEntity
  8
Painéis
 62
200
370
25
100
AcDbLine
 10
7000.984312614619
 20
10060.49910473152
 30
0.0
 11
6617.48431261462
 21
10060.49910473154
 31
0.0
  0
LINE
  5
7B
330
17
100
AcDbEntity
  8
Painéis
 62
200
370
25
100
AcDbLine
 10
6783.48431261462
 20
10060.49910473153
 30
0.0
 11
6783.484312614624
 21
10108.49910473153
 31
0.0
  0
LINE
  5
7C
330
17
100
AcDbEntity
  8
Painéis
 62
200
370
25
100
AcDbLine
 10
6617.48431261462
 20
10060.49910473154
 30
0.0
 11
6617.484312614623
 21
10108.49910473154
 31
0.0
  0
LINE
  5
7D
330
17
100
AcDbEntity
  8
Painéis
 62
200
370
25
100
AcDbLine
 10
7000.984312614619
 20
10060.49910473152
 30
0.0
 11
7000.984312614623
 21
10108.49910473152
 31
0.0
  0
LINE
  5
7E
330
17
100
AcDbEntity
  8
SARR_3.5x7
 62
81
370
25
100
AcDbLine
 10
6653.984312614624
 20
10108.4991047316
 30
0.0
 11
6653.98431261473
 21
10060.49910473154
 31
0.0
  0
LINE
  5
7F
330
17
100
AcDbEntity
  8
SARR_3.5x7
 62
81
370
25
100
AcDbLine
 10
6657.484312614622
 20
10106.2991047316
 30
0.0
 11
6657.484312614657
 21
10060.49910473154
 31
0.0
  0
LINE
  5
80
330
17
100
AcDbEntity
  8
SARR_2.2x7
 62
40
370
25
100
AcDbLine
 10
6653.984312614634
 20
10101.49910473155
 30
0.0
 11
6617.484312614623
 21
10101.49910473155
 31
0.0
  0
LINE
  5
81
330
17
100
AcDbEntity
  8
COTA
 62
241
370
25
100
AcDbLine
 10
7000.984312614625
 20
10108.49910473152
 30
0.0
 11
7000.984312614625
 21
10124.49910473152
 31
0.0
  0
LINE
  5
82
330
17
100
AcDbEntity
  8
COTA
 62
241
370
25
100
AcDbLine
 10
7000.984312614625
 20
10124.49910473152
 30
0.0
 11
6617.484312614625
 21
10124.49910473152
 31
0.0
  0
LINE
  5
83
330
17
100
AcDbEntity
  8
COTA
 62
241
370
25
100
AcDbLine
 10
6617.484312614625
 20
10124.49910473152
 30
0.0
 11
6617.484312614624
 21
10108.49910473154
 31
0.0
  0
LINE
  5
84
330
17
100
AcDbEntity
  8
SARR_2.2x7
 62
40
370
25
100
AcDbLine
 10
6559.357373369829
 20
10108.29910473152
 30
0.0
 11
6473.857373369838
 21
10108.29910473153
 31
0.0
  0
LINE
  5
85
330
17
100
AcDbEntity
  8
SARR_2.2x7
 62
40
370
25
100
AcDbLine
 10
6473.857373369838
 20
10108.29910473153
 30
0.0
 11
6408.357373369835
 21
10108.29910473129
 31
0.0
  0
LINE
  5
86
330
17
100
AcDbEntity
  8
SARR_3.5x7
 62
81
370
25
100
AcDbLine
 10
6470.357373369809
 20
10108.29910473158
 30
0.0
 11
6470.357373369778
 21
10060.49910473153
 31
0.0
  0
LINE
  5
87
330
17
100
AcDbEntity
  8
SARR_3.5x7
 62
81
370
25
100
AcDbLine
 10
6477.357373369897
 20
10108.29910473164
 30
0.0
 11
6477.357373369923
 21
10060.49910473153
 31
0.0
  0
LINE
  5
88
330
17
100
AcDbEntity
  8
SARR_3.5x7
 62
81
370
25
100
AcDbLine
 10
6473.857373369838
 20
10108.29910473153
 30
0.0
 11
6473.857373369837
 21
10060.49910473155
 31
0.0
  0
LINE
  5
89
330
17
100
AcDbEntity
  8
SARR_3.5x7
 62
81
370
25
100
AcDbLine
 10
6477.357373369923
 20
10060.49910473153
 30
0.0
 11
6473.857373369837
 21
10060.49910473153
 31
0.0
  0
LINE
  5
8A
330
17
100
AcDbEntity
  8
SARR_3.5x7
 62
81
370
25
100
AcDbLine
 10
6473.857373369837
 20
10060.49910473153
 30
0.0
 11
6470.357373369778
 21
10060.49910473153
 31
0.0
  0
LINE
  5
8B
330
17
100
AcDbEntity
  8
Painéis
 62
200
370
25
100
AcDbLine
 10
6595.857373369843
 20
10110.49910473152
 30
0.0
 11
6393.35737336984
 21
10110.49910473154
 31
0.0
  0
LINE
  5
8C
330
17
100
AcDbEntity
  8
Painéis
 62
200
370
25
100
AcDbLine
 10
6595.857373369837
 20
10060.49910473152
 30
0.0
 11
6393.357373369837
 21
10060.49910473154
 31
0.0
  0
LINE
  5
8D
330
17
100
AcDbEntity
  8
Painéis
 62
200
370
25
100
AcDbLine
 10
6473.857373369837
 20
10060.49910473153
 30
0.0
 11
6473.85737336984
 21
10110.49910473153
 31
0.0
  0
LINE
  5
8E
330
17
100
AcDbEntity
  8
Painéis
 62
200
370
25
100
AcDbLine
 10
6393.357373369837
 20
10060.49910473154
 30
0.0
 11
6393.35737336984
 21
10110.49910473154
 31
0.0
  0
LINE
  5
8F
330
17
100
AcDbEntity
  8
Painéis
 62
200
370
25
100
AcDbLine
 10
6595.857373369837
 20
10060.49910473152
 30
0.0
 11
6595.85737336984
 21
10110.49910473152
 31
0.0
  0
LINE
  5
90
330
17
100
AcDbEntity
  8
SARR_3.5x7
 62
81
370
25
100
AcDbLine
 10
6559.357373369834
 20
10110.4991047316
 30
0.0
 11
6559.357373369727
 21
10060.49910473154
 31
0.0
  0
LINE
  5
91
330
17
100
AcDbEntity
  8
SARR_3.5x7
 62
81
370
25
100
AcDbLine
 10
6555.857373369835
 20
10108.2991047316
 30
0.0
 11
6555.8573733698
 21
10060.49910473154
 31
0.0
  0
LINE
  5
92
330
17
100
AcDbEntity
  8
SARR_2.2x7
 62
40
370
25
100
AcDbLine
 10
6559.357373369822
 20
10103.49910473155
 30
0.0
 11
6595.857373369833
 21
10103.49910473155
 31
0.0
  0
LINE
  5
93
330
17
100
AcDbEntity
  8
COTA
 62
241
370
25
100
AcDbLine
 10
6595.857373369843
 20
10110.49910473152
 30
0.0
 11
6595.857373369843
 21
10124.49910473152
 31
0.0
  0
LINE
  5
94
330
17
100
AcDbEntity
  8
COTA
 62
241
370
25
100
AcDbLine
 10
6595.857373369843
 20
10124.49910473152
 30
0.0
 11
6393.357373369842
 21
10124.49910473152
 31
0.0
  0
LINE
  5
95
330
17
100
AcDbEntity
  8
COTA
 62
241
370
25
100
AcDbLine
 10
6393.357373369842
 20
10124.49910473152
 30
0.0
 11
6393.357373369841
 21
10110.49910473154
 31
0.0
  0
LINE
  5
96
330
17
100
AcDbEntity
  8
SARR_2.2x7
 62
40
370
25
100
AcDbLine
 10
6400.357373369836
 20
10060.49910473154
 30
0.0
 11
6400.357373369833
 21
10110.49910473152
 31
0.0
  0
LINE
  5
97
330
17
100
AcDbEntity
  8
SARR_3.5x7
 62
81
370
25
100
AcDbLine
 10
6408.357373369833
 20
10110.49910473153
 30
0.0
 11
6408.357373369836
 21
10060.49910473155
 31
0.0
  0
LINE
  5
98
330
17
100
AcDbEntity
  8
SARR_3.5x7
 62
81
370
25
100
AcDbLine
 10
6411.857373369835
 20
10108.29910473153
 30
0.0
 11
6411.857373369835
 21
10060.49910473154
 31
0.0
  0
LINE
  5
99
330
17
100
AcDbEntity
  8
SARR_3.5x7
 62
81
370
25
100
AcDbLine
 10
6436.35737336982
 20
10108.29910473144
 30
0.0
 11
6436.357373369824
 21
10060.49910473154
 31
0.0
  0
LINE
  5
9A
330
17
100
AcDbEntity
  8
SARR_3.5x7
 62
81
370
25
100
AcDbLine
 10
6439.857373369823
 20
10108.29910473144
 30
0.0
 11
6439.857373369824
 21
10060.49910473154
 31
0.0
  0
LINE
  5
9B
330
17
100
AcDbEntity
  8
SARR_2.2x7
 62
40
370
25
100
AcDbLine
 10
6993.984312614628
 20
10060.49910473152
 30
0.0
 11
6993.984312614632
 21
10108.49910473149
 31
0.0
  0
LINE
  5
9C
330
17
100
AcDbEntity
  8
SARR_3.5x7
 62
81
370
25
100
AcDbLine
 10
6985.98431261463
 20
10108.49910473151
 30
0.0
 11
6985.984312614629
 21
10060.49910473152
 31
0.0
  0
LINE
  5
9D
330
17
100
AcDbEntity
  8
SARR_3.5x7
 62
81
370
25
100
AcDbLine
 10
6982.484312614629
 20
10106.29910473151
 30
0.0
 11
6982.484312614627
 21
10060.49910473152
 31
0.0
  0
LINE
  5
9E
330
17
100
AcDbEntity
  8
COTA
 62
4
370
25
100
AcDbLine
 10
6203.929450260877
 20
10167.7951401174
 30
0.0
 11
6278.30617335013
 21
10167.7951401174
 31
0.0
  0
LINE
  5
9F
330
17
100
AcDbEntity
  8
COTA
 62
4
370
25
100
AcDbLine
 10
6225.929450260878
 20
10295.79514011739
 30
0.0
 11
6278.306173350129
 21
10295.79514011739
 31
0.0
  0
LINE
  5
A0
330
17
100
AcDbEntity
  8
COTA
 62
4
370
25
100
AcDbLine
 10
6275.30617335013
 20
10167.7951401174
 30
0.0
 11
6275.306173350129
 21
10295.79514011739
 31
0.0
  0
LINE
  5
A1
330
17
100
AcDbEntity
  8
COTA
 62
4
370
25
100
AcDbLine
 10
6082.729450260893
 20
10167.7951401174
 30
0.0
 11
6039.457717502621
 21
10167.7951401174
 31
0.0
  0
LINE
  5
A2
330
17
100
AcDbEntity
  8
COTA
 62
4
370
25
100
AcDbLine
 10
6098.329450260887
 20
10295.7951401174
 30
0.0
 11
6039.457717502621
 21
10295.7951401174
 31
0.0
  0
LINE
  5
A3
330
17
100
AcDbEntity
  8
COTA
 62
4
370
25
100
AcDbLine
 10
6042.457717502621
 20
10167.7951401174
 30
0.0
 11
6042.457717502621
 21
10295.7951401174
 31
0.0
  0
LINE
  5
A4
330
17
100
AcDbEntity
  8
Cota Seção (2x)
 62
180
370
25
100
AcDbLine
 10
6140.063437445039
 20
10246.29514011736
 30
0.0
 11
6140.063437445039
 21
10265.29514011736
 31
0.0
  0
LINE
  5
A5
330
17
100
AcDbEntity
  8
Cota Seção (2x)
 62
180
370
25
100
AcDbLine
 10
6140.063437445039
 20
10265.29514011736
 30
0.0
 11
6125.063437445039
 21
10265.29514011736
 31
0.0
  0
LINE
  5
A6
330
17
100
AcDbEntity
  8
Cota Seção (2x)
 62
180
370
25
100
AcDbLine
 10
6125.063437445039
 20
10265.29514011736
 30
0.0
 11
6125.063437445039
 21
10246.29514011736
 31
0.0
  0
LINE
  5
A7
330
17
100
AcDbEntity
  8
Cota Seção (2x)
 62
180
370
25
100
AcDbLine
 10
6125.063437445039
 20
10246.29514011736
 30
0.0
 11
6140.063437445039
 21
10246.29514011736
 31
0.0
  0
LINE
  5
A8
330
17
100
AcDbEntity
  8
COTA
 62
4
370
25
100
AcDbLine
 10
6225.929450260878
 20
10295.79514011739
 30
0.0
 11
6258.986744864667
 21
10295.79514011739
 31
0.0
  0
LINE
  5
A9
330
17
100
AcDbEntity
  8
COTA
 62
4
370
25
100
AcDbLine
 10
6225.929450260878
 20
10267.79514011737
 30
0.0
 11
6258.986744864667
 21
10267.79514011737
 31
0.0
  0
LINE
  5
AA
330
17
100
AcDbEntity
  8
COTA
 62
4
370
25
100
AcDbLine
 10
6255.986744864667
 20
10295.79514011739
 30
0.0
 11
6255.986744864667
 21
10267.79514011737
 31
0.0
  0
LINE
  5
AB
330
17
100
AcDbEntity
  8
COTA
 62
4
370
25
100
AcDbLine
 10
6225.929450260878
 20
10263.79514011737
 30
0.0
 11
6258.986744864337
 21
10263.79514011737
 31
0.0
  0
LINE
  5
AC
330
17
100
AcDbEntity
  8
COTA
 62
4
370
25
100
AcDbLine
 10
6203.929450260877
 20
10167.7951401174
 30
0.0
 11
6258.986744864338
 21
10167.7951401174
 31
0.0
  0
LINE
  5
AD
330
17
100
AcDbEntity
  8
COTA
 62
4
370
25
100
AcDbLine
 10
6255.986744864337
 20
10263.79514011737
 30
0.0
 11
6255.986744864338
 21
10167.7951401174
 31
0.0
  0
LINE
  5
AE
330
17
100
AcDbEntity
  8
COTA
 62
4
370
25
100
AcDbLine
 10
6167.329450260897
 20
10164.79514011739
 30
0.0
 11
6167.329450260897
 21
10120.06832631521
 31
0.0
  0
LINE
  5
AF
330
17
100
AcDbEntity
  8
COTA
 62
4
370
25
100
AcDbLine
 10
6119.329450260897
 20
10164.79514011739
 30
0.0
 11
6119.329450260897
 21
10120.06832631521
 31
0.0
  0
LINE
  5
B0
330
17
100
AcDbEntity
  8
COTA
 62
4
370
25
100
AcDbLine
 10
6167.329450260897
 20
10123.06832631521
 30
0.0
 11
6119.329450260897
 21
10123.06832631521
 31
0.0
  0
LINE
  5
B1
330
17
100
AcDbEntity
  8
COTA
 62
4
370
25
100
AcDbLine
 10
6223.632744439028
 20
10217.76519764569
 30
0.0
 11
6242.18735770837
 21
10217.76519764569
 31
0.0
  0
LINE
  5
B2
330
17
100
AcDbEntity
  8
COTA
 62
4
370
25
100
AcDbLine
 10
6223.632744439028
 20
10167.79514011743
 30
0.0
 11
6242.18735770837
 21
10167.79514011743
 31
0.0
  0
LINE
  5
B3
330
17
100
AcDbEntity
  8
COTA
 62
4
370
25
100
AcDbLine
 10
6239.18735770837
 20
10217.76519764569
 30
0.0
 11
6239.18735770837
 21
10167.79514011743
 31
0.0
  0
LINE
  5
B4
330
17
100
AcDbEntity
  8
Cota Seção (2x)
 62
180
370
25
100
AcDbLine
 10
6138.496116927593
 20
10187.7951401174
 30
0.0
 11
6158.162783594259
 21
10187.7951401174
 31
0.0
  0
LINE
  5
B5
330
17
100
AcDbEntity
  8
Cota Seção (2x)
 62
180
370
25
100
AcDbLine
 10
6158.162783594259
 20
10187.7951401174
 30
0.0
 11
6158.162783594259
 21
10202.7951401174
 31
0.0
  0
LINE
  5
B6
330
17
100
AcDbEntity
  8
Cota Seção (2x)
 62
180
370
25
100
AcDbLine
 10
6158.162783594259
 20
10202.7951401174
 30
0.0
 11
6138.496116927593
 21
10202.7951401174
 31
0.0
  0
LINE
  5
B7
330
17
100
AcDbEntity
  8
Cota Seção (2x)
 62
180
370
25
100
AcDbLine
 10
6138.496116927593
 20
10202.7951401174
 30
0.0
 11
6138.496116927593
 21
10187.7951401174
 31
0.0
  0
LINE
  5
B8
330
17
100
AcDbEntity
  8
COTA
 62
4
370
25
100
AcDbLine
 10
6391.031141289695
 20
10275.874994239
 30
0.0
 11
6391.031141289695
 21
10249.33506826085
 31
0.0
  0
LINE
  5
B9
330
17
100
AcDbEntity
  8
COTA
 62
4
370
25
100
AcDbLine
 10
6635.031141289696
 20
10275.87499423903
 30
0.0
 11
6635.031141289696
 21
10249.33506826085
 31
0.0
  0
LINE
  5
BA
330
17
100
AcDbEntity
  8
COTA
 62
4
370
25
100
AcDbLine
 10
6391.031141289695
 20
10252.33506826085
 30
0.0
 11
6635.031141289696
 21
10252.33506826085
 31
0.0
  0
LINE
  5
BB
330
17
100
AcDbEntity
  8
COTA
 62
0
370
25
100
AcDbLine
 10
6392.531141289695
 20
10253.83506826085
 30
0.0
 11
6389.531141289695
 21
10250.83506826085
 31
0.0
  0
LINE
  5
BC
330
17
100
AcDbEntity
  8
COTA
 62
0
370
25
100
AcDbLine
 10
6633.531141289696
 20
10250.83506826085
 30
0.0
 11
6636.531141289696
 21
10253.83506826085
 31
0.0
  0
LINE
  5
BD
330
17
100
AcDbEntity
  8
COTA
 62
4
370
25
100
AcDbLine
 10
6879.031141289695
 20
10275.8749942389
 30
0.0
 11
6879.031141289695
 21
10249.33506826086
 31
0.0
  0
LINE
  5
BE
330
17
100
AcDbEntity
  8
COTA
 62
4
370
25
100
AcDbLine
 10
7004.031141289695
 20
10275.87499423903
 30
0.0
 11
7004.031141289695
 21
10249.33506826086
 31
0.0
  0
LINE
  5
BF
330
17
100
AcDbEntity
  8
COTA
 62
4
370
25
100
AcDbLine
 10
6879.031141289695
 20
10252.33506826086
 30
0.0
 11
7004.031141289695
 21
10252.33506826086
 31
0.0
  0
LINE
  5
C0
330
17
100
AcDbEntity
  8
COTA
 62
0
370
25
100
AcDbLine
 10
6880.531141289695
 20
10253.83506826086
 30
0.0
 11
6877.531141289695
 21
10250.83506826086
 31
0.0
  0
LINE
  5
C1
330
17
100
AcDbEntity
  8
COTA
 62
0
370
25
100
AcDbLine
 10
7002.531141289695
 20
10250.83506826086
 30
0.0
 11
7005.531141289695
 21
10253.83506826086
 31
0.0
  0
LINE
  5
C2
330
17
100
AcDbEntity
  8
COTA
 62
4
370
25
100
AcDbLine
 10
6391.031141289695
 20
10275.874994239
 30
0.0
 11
6391.031141289695
 21
10215.79655757212
 31
0.0
  0
LINE
  5
C3
330
17
100
AcDbEntity
  8
COTA
 62
4
370
25
100
AcDbLine
 10
7004.031141289695
 20
10275.87499423903
 30
0.0
 11
7004.031141289695
 21
10215.79655757212
 31
0.0
  0
LINE
  5
C4
330
17
100
AcDbEntity
  8
COTA
 62
4
370
25
100
AcDbLine
 10
6391.031141289695
 20
10218.79655757213
 30
0.0
 11
7004.031141289695
 21
10218.79655757213
 31
0.0
  0
LINE
  5
C5
330
17
100
AcDbEntity
  8
COTA
 62
0
370
25
100
AcDbLine
 10
6392.531141289695
 20
10220.29655757213
 30
0.0
 11
6389.531141289695
 21
10217.29655757213
 31
0.0
  0
LINE
  5
C6
330
17
100
AcDbEntity
  8
COTA
 62
0
370
25
100
AcDbLine
 10
7002.531141289695
 20
10217.29655757213
 30
0.0
 11
7005.531141289695
 21
10220.29655757213
 31
0.0
  0
LINE
  5
C7
330
17
100
AcDbEntity
  8
COTA
 62
4
370
25
100
AcDbLine
 10
6635.031141289696
 20
10275.874994239
 30
0.0
 11
6635.031141289696
 21
10249.33506826085
 31
0.0
  0
LINE
  5
C8
330
17
100
AcDbEntity
  8
COTA
 62
4
370
25
100
AcDbLine
 10
6879.031141289695
 20
10275.87499423903
 30
0.0
 11
6879.031141289695
 21
10249.33506826085
 31
0.0
  0
LINE
  5
C9
330
17
100
AcDbEntity
  8
COTA
 62
4
370
25
100
AcDbLine
 10
6635.031141289696
 20
10252.33506826085
 30
0.0
 11
6879.031141289695
 21
10252.33506826085
 31
0.0
  0
LINE
  5
CA
330
17
100
AcDbEntity
  8
COTA
 62
0
370
25
100
AcDbLine
 10
6636.531141289696
 20
10253.83506826085
 30
0.0
 11
6633.531141289696
 21
10250.83506826085
 31
0.0
  0
LINE
  5
CB
330
17
100
AcDbEntity
  8
COTA
 62
0
370
25
100
AcDbLine
 10
6877.531141289695
 20
10250.83506826085
 30
0.0
 11
6880.531141289695
 21
10253.83506826085
 31
0.0
  0
LINE
  5
CC
330
17
100
AcDbEntity
  8
Painéis
 62
4
370
25
100
AcDbLine
 10
6738.031141289695
 20
10305.42859671365
 30
0.0
 11
6838.031141289696
 21
10305.42859671365
 31
0.0
  0
LINE
  5
CD
330
17
100
AcDbEntity
  8
Painéis
 62
0
370
25
100
AcDbLine
 10
6739.531141289695
 20
10306.92859671365
 30
0.0
 11
6736.531141289695
 21
10303.92859671365
 31
0.0
  0
LINE
  5
CE
330
17
100
AcDbEntity
  8
Painéis
 62
0
370
25
100
AcDbLine
 10
6836.531141289696
 20
10303.92859671365
 30
0.0
 11
6839.531141289696
 21
10306.92859671365
 31
0.0
  0
LINE
  5
CF
330
17
100
AcDbEntity
  8
Painéis
 62
4
370
25
100
AcDbLine
 10
6738.031141289695
 20
10305.42859671365
 30
0.0
 11
6635.031141289696
 21
10305.42859671365
 31
0.0
  0
LINE
  5
D0
330
17
100
AcDbEntity
  8
Painéis
 62
0
370
25
100
AcDbLine
 10
6736.531141289695
 20
10303.92859671365
 30
0.0
 11
6739.531141289695
 21
10306.92859671365
 31
0.0
  0
LINE
  5
D1
330
17
100
AcDbEntity
  8
Painéis
 62
0
370
25
100
AcDbLine
 10
6636.531141289696
 20
10306.92859671365
 30
0.0
 11
6633.531141289696
 21
10303.92859671365
 31
0.0
  0
LINE
  5
D2
330
17
100
AcDbEntity
  8
Painéis
 62
4
370
25
100
AcDbLine
 10
7007.0311412897
 20
10278.87499423903
 30
0.0
 11
7028.441728195456
 21
10278.87499423903
 31
0.0
  0
LINE
  5
D3
330
17
100
AcDbEntity
  8
Painéis
 62
4
370
25
100
AcDbLine
 10
7007.031141289695
 20
10342.87499423903
 30
0.0
 11
7028.441728195456
 21
10342.87499423903
 31
0.0
  0
LINE
  5
D4
330
17
100
AcDbEntity
  8
Painéis
 62
4
370
25
100
AcDbLine
 10
7025.441728195456
 20
10278.87499423903
 30
0.0
 11
7025.441728195456
 21
10342.87499423903
 31
0.0
  0
LINE
  5
D5
330
17
100
AcDbEntity
  8
Painéis
 62
0
370
25
100
AcDbLine
 10
7023.941728195456
 20
10280.37499423903
 30
0.0
 11
7026.941728195456
 21
10277.37499423903
 31
0.0
  0
LINE
  5
D6
330
17
100
AcDbEntity
  8
Painéis
 62
0
370
25
100
AcDbLine
 10
7026.941728195456
 20
10341.37499423903
 30
0.0
 11
7023.941728195456
 21
10344.37499423903
 31
0.0
  0
LINE
  5
D7
330
17
100
AcDbEntity
  8
COTA
 62
4
370
25
100
AcDbLine
 10
7000.984312614619
 20
10057.49910473152
 30
0.0
 11
7000.984312614619
 21
10030.95917875336
 31
0.0
  0
LINE
  5
D8
330
17
100
AcDbEntity
  8
COTA
 62
4
370
25
100
AcDbLine
 10
6783.48431261462
 20
10057.49910473155
 30
0.0
 11
6783.48431261462
 21
10030.95917875336
 31
0.0
  0
LINE
  5
D9
330
17
100
AcDbEntity
  8
COTA
 62
4
370
25
100
AcDbLine
 10
7000.984312614619
 20
10033.95917875336
 30
0.0
 11
6783.48431261462
 21
10033.95917875336
 31
0.0
  0
LINE
  5
DA
330
17
100
AcDbEntity
  8
COTA
 62
0
370
25
100
AcDbLine
 10
6999.484312614619
 20
10032.45917875336
 30
0.0
 11
7002.484312614619
 21
10035.45917875336
 31
0.0
  0
LINE
  5
DB
330
17
100
AcDbEntity
  8
COTA
 62
0
370
25
100
AcDbLine
 10
6784.98431261462
 20
10035.45917875336
 30
0.0
 11
6781.98431261462
 21
10032.45917875336
 31
0.0
  0
LINE
  5
DC
330
17
100
AcDbEntity
  8
COTA
 62
4
370
25
100
AcDbLine
 10
6783.48431261462
 20
10057.49910473155
 30
0.0
 11
6783.48431261462
 21
10030.95917875337
 31
0.0
  0
LINE
  5
DD
330
17
100
AcDbEntity
  8
COTA
 62
4
370
25
100
AcDbLine
 10
6617.48431261462
 20
10057.49910473154
 30
0.0
 11
6617.48431261462
 21
10030.95917875337
 31
0.0
  0
LINE
  5
DE
330
17
100
AcDbEntity
  8
COTA
 62
4
370
25
100
AcDbLine
 10
6783.48431261462
 20
10033.95917875337
 30
0.0
 11
6617.48431261462
 21
10033.95917875337
 31
0.0
  0
LINE
  5
DF
330
17
100
AcDbEntity
  8
COTA
 62
0
370
25
100
AcDbLine
 10
6781.98431261462
 20
10032.45917875337
 30
0.0
 11
6784.98431261462
 21
10035.45917875337
 31
0.0
  0
LINE
  5
E0
330
17
100
AcDbEntity
  8
COTA
 62
0
370
25
100
AcDbLine
 10
6618.98431261462
 20
10035.45917875337
 30
0.0
 11
6615.98431261462
 21
10032.45917875337
 31
0.0
  0
LINE
  5
E1
330
17
100
AcDbEntity
  8
COTA
 62
4
370
25
100
AcDbLine
 10
7000.984312614619
 20
10057.49910473152
 30
0.0
 11
7000.984312614619
 21
9997.42066806464
 31
0.0
  0
LINE
  5
E2
330
17
100
AcDbEntity
  8
COTA
 62
4
370
25
100
AcDbLine
 10
6617.48431261462
 20
10057.49910473154
 30
0.0
 11
6617.48431261462
 21
9997.42066806464
 31
0.0
  0
LINE
  5
E3
330
17
100
AcDbEntity
  8
COTA
 62
4
370
25
100
AcDbLine
 10
7000.984312614619
 20
10000.42066806464
 30
0.0
 11
6617.48431261462
 21
10000.42066806464
 31
0.0
  0
LINE
  5
E4
330
17
100
AcDbEntity
  8
COTA
 62
0
370
25
100
AcDbLine
 10
6999.484312614619
 20
9998.92066806464
 30
0.0
 11
7002.484312614619
 21
10001.92066806464
 31
0.0
  0
LINE
  5
E5
330
17
100
AcDbEntity
  8
COTA
 62
0
370
25
100
AcDbLine
 10
6618.98431261462
 20
10001.92066806464
 30
0.0
 11
6615.98431261462
 21
9998.92066806464
 31
0.0
  0
LINE
  5
E6
330
17
100
AcDbEntity
  8
00 - FELIPE
 62
4
370
25
100
AcDbLine
 10
6653.984312614707
 20
10077.49910473155
 30
0.0
 11
6653.984312614707
 21
10084.54861468611
 31
0.0
  0
LINE
  5
E7
330
17
100
AcDbEntity
  8
00 - FELIPE
 62
4
370
25
100
AcDbLine
 10
6617.48431261462
 20
10077.49910473155
 30
0.0
 11
6617.48431261462
 21
10084.54861468611
 31
0.0
  0
LINE
  5
E8
330
17
100
AcDbEntity
  8
00 - FELIPE
 62
4
370
25
100
AcDbLine
 10
6653.984312614707
 20
10081.54861468611
 30
0.0
 11
6617.48431261462
 21
10081.54861468611
 31
0.0
  0
LINE
  5
E9
330
17
100
AcDbEntity
  8
00 - FELIPE
 62
0
370
25
100
AcDbLine
 10
6652.484312614707
 20
10080.04861468611
 30
0.0
 11
6655.484312614707
 21
10083.04861468611
 31
0.0
  0
LINE
  5
EA
330
17
100
AcDbEntity
  8
00 - FELIPE
 62
0
370
25
100
AcDbLine
 10
6618.98431261462
 20
10083.04861468611
 30
0.0
 11
6615.98431261462
 21
10080.04861468611
 31
0.0
  0
LINE
  5
EB
330
17
100
AcDbEntity
  8
COTA
 62
4
370
25
100
AcDbLine
 10
6595.857373369837
 20
10057.49910473152
 30
0.0
 11
6595.857373369837
 21
10030.95917875336
 31
0.0
  0
LINE
  5
EC
330
17
100
AcDbEntity
  8
COTA
 62
4
370
25
100
AcDbLine
 10
6473.857373369837
 20
10057.49910473155
 30
0.0
 11
6473.857373369837
 21
10030.95917875336
 31
0.0
  0
LINE
  5
ED
330
17
100
AcDbEntity
  8
COTA
 62
4
370
25
100
AcDbLine
 10
6595.857373369837
 20
10033.95917875336
 30
0.0
 11
6473.857373369837
 21
10033.95917875336
 31
0.0
  0
LINE
  5
EE
330
17
100
AcDbEntity
  8
COTA
 62
0
370
25
100
AcDbLine
 10
6594.357373369837
 20
10032.45917875336
 30
0.0
 11
6597.357373369837
 21
10035.45917875336
 31
0.0
  0
LINE
  5
EF
330
17
100
AcDbEntity
  8
COTA
 62
0
370
25
100
AcDbLine
 10
6475.357373369837
 20
10035.45917875336
 30
0.0
 11
6472.357373369837
 21
10032.45917875336
 31
0.0
  0
LINE
  5
F0
330
17
100
AcDbEntity
  8
COTA
 62
4
370
25
100
AcDbLine
 10
6473.857373369837
 20
10057.49910473155
 30
0.0
 11
6473.857373369837
 21
10030.95917875337
 31
0.0
  0
LINE
  5
F1
330
17
100
AcDbEntity
  8
COTA
 62
4
370
25
100
AcDbLine
 10
6393.357373369837
 20
10057.49910473154
 30
0.0
 11
6393.357373369837
 21
10030.95917875337
 31
0.0
  0
LINE
  5
F2
330
17
100
AcDbEntity
  8
COTA
 62
4
370
25
100
AcDbLine
 10
6473.857373369837
 20
10033.95917875337
 30
0.0
 11
6393.357373369837
 21
10033.95917875337
 31
0.0
  0
LINE
  5
F3
330
17
100
AcDbEntity
  8
COTA
 62
0
370
25
100
AcDbLine
 10
6472.357373369837
 20
10032.45917875337
 30
0.0
 11
6475.357373369837
 21
10035.45917875337
 31
0.0
  0
LINE
  5
F4
330
17
100
AcDbEntity
  8
COTA
 62
0
370
25
100
AcDbLine
 10
6394.857373369837
 20
10035.45917875337
 30
0.0
 11
6391.857373369837
 21
10032.45917875337
 31
0.0
  0
LINE
  5
F5
330
17
100
AcDbEntity
  8
COTA
 62
4
370
25
100
AcDbLine
 10
6595.857373369837
 20
10057.49910473152
 30
0.0
 11
6595.857373369837
 21
9997.42066806464
 31
0.0
  0
LINE
  5
F6
330
17
100
AcDbEntity
  8
COTA
 62
4
370
25
100
AcDbLine
 10
6393.357373369837
 20
10057.49910473154
 30
0.0
 11
6393.357373369837
 21
9997.42066806464
 31
0.0
  0
LINE
  5
F7
330
17
100
AcDbEntity
  8
COTA
 62
4
370
25
100
AcDbLine
 10
6595.857373369837
 20
10000.42066806464
 30
0.0
 11
6393.357373369837
 21
10000.42066806464
 31
0.0
  0
LINE
  5
F8
330
17
100
AcDbEntity
  8
COTA
 62
0
370
25
100
AcDbLine
 10
6594.357373369837
 20
9998.92066806464
 30
0.0
 11
6597.357373369837
 21
10001.92066806464
 31
0.0
  0
LINE
  5
F9
330
17
100
AcDbEntity
  8
COTA
 62
0
370
25
100
AcDbLine
 10
6394.857373369837
 20
10001.92066806464
 30
0.0
 11
6391.857373369837
 21
9998.92066806464
 31
0.0
  0
LINE
  5
FA
330
17
100
AcDbEntity
  8
00 - FELIPE
 62
4
370
25
100
AcDbLine
 10
6559.357373369749
 20
10077.49910473155
 30
0.0
 11
6559.357373369749
 21
10084.54861468611
 31
0.0
  0
LINE
  5
FB
330
17
100
AcDbEntity
  8
00 - FELIPE
 62
4
370
25
100
AcDbLine
 10
6595.857373369837
 20
10077.49910473155
 30
0.0
 11
6595.857373369837
 21
10084.54861468611
 31
0.0
  0
LINE
  5
FC
330
17
100
AcDbEntity
  8
00 - FELIPE
 62
4
370
25
100
AcDbLine
 10
6559.357373369749
 20
10081.54861468611
 30
0.0
 11
6595.857373369837
 21
10081.54861468611
 31
0.0
  0
LINE
  5
FD
330
17
100
AcDbEntity
  8
00 - FELIPE
 62
0
370
25
100
AcDbLine
 10
6560.857373369749
 20
10083.04861468611
 30
0.0
 11
6557.857373369749
 21
10080.04861468611
 31
0.0
  0
LINE
  5
FE
330
17
100
AcDbEntity
  8
00 - FELIPE
 62
0
370
25
100
AcDbLine
 10
6594.357373369837
 20
10080.04861468611
 30
0.0
 11
6597.357373369837
 21
10083.04861468611
 31
0.0
  0
LINE
  5
FF
330
17
100
AcDbEntity
  8
COTA
 62
4
370
25
100
AcDbLine
 10
7003.984312614618
 20
10124.49910473153
 30
0.0
 11
7048.02876040878
 21
10124.49910473153
 31
0.0
  0
LINE
  5
100
330
17
100
AcDbEntity
  8
COTA
 62
4
370
25
100
AcDbLine
 10
7003.984312614619
 20
10060.49910473154
 30
0.0
 11
7048.02876040878
 21
10060.49910473154
 31
0.0
  0
LINE
  5
101
330
17
100
AcDbEntity
  8
COTA
 62
4
370
25
100
AcDbLine
 10
7045.02876040878
 20
10124.49910473153
 30
0.0
 11
7045.02876040878
 21
10060.49910473154
 31
0.0
  0
LINE
  5
102
330
17
100
AcDbEntity
  8
COTA
 62
0
370
25
100
AcDbLine
 10
7046.52876040878
 20
10122.99910473153
 30
0.0
 11
7043.52876040878
 21
10125.99910473153
 31
0.0
  0
LINE
  5
103
330
17
100
AcDbEntity
  8
COTA
 62
0
370
25
100
AcDbLine
 10
7043.52876040878
 20
10061.99910473154
 30
0.0
 11
7046.52876040878
 21
10058.99910473154
 31
0.0
  0
LINE
  5
104
330
17
100
AcDbEntity
  8
COTA
 62
4
370
25
100
AcDbLine
 10
7003.98431261463
 20
10108.49910473152
 30
0.0
 11
7026.413254735145
 21
10108.49910473152
 31
0.0
  0
LINE
  5
105
330
17
100
AcDbEntity
  8
COTA
 62
4
370
25
100
AcDbLine
 10
7003.984312614623
 20
10060.49910473155
 30
0.0
 11
7026.413254735145
 21
10060.49910473155
 31
0.0
  0
LINE
  5
106
330
17
100
AcDbEntity
  8
COTA
 62
4
370
25
100
AcDbLine
 10
7023.413254735145
 20
10108.49910473152
 30
0.0
 11
7023.413254735145
 21
10060.49910473155
 31
0.0
  0
LINE
  5
107
330
17
100
AcDbEntity
  8
COTA
 62
0
370
25
100
AcDbLine
 10
7024.913254735145
 20
10106.99910473152
 30
0.0
 11
7021.913254735145
 21
10109.99910473152
 31
0.0
  0
LINE
  5
108
330
17
100
AcDbEntity
  8
COTA
 62
0
370
25
100
AcDbLine
 10
7021.913254735145
 20
10061.99910473155
 30
0.0
 11
7024.913254735145
 21
10058.99910473155
 31
0.0
  0
LINE
  5
109
330
17
100
AcDbEntity
  8
Painéis
 62
4
370
25
100
AcDbLine
 10
7003.98431261463
 20
10108.49910473152
 30
0.0
 11
7026.413254735146
 21
10108.49910473152
 31
0.0
  0
LINE
  5
10A
330
17
100
AcDbEntity
  8
Painéis
 62
4
370
25
100
AcDbLine
 10
7003.98431261463
 20
10124.49910473152
 30
0.0
 11
7026.413254735146
 21
10124.49910473152
 31
0.0
  0
LINE
  5
10B
330
17
100
AcDbEntity
  8
Painéis
 62
4
370
25
100
AcDbLine
 10
7023.413254735146
 20
10108.49910473152
 30
0.0
 11
7023.413254735146
 21
10124.49910473152
 31
0.0
  0
LINE
  5
10C
330
17
100
AcDbEntity
  8
Painéis
 62
4
370
25
100
AcDbLine
 10
7023.413254735146
 20
10124.49910473152
 30
0.0
 11
7023.413254735146
 21
10143.51372461456
 31
0.0
  0
LINE
  5
10D
330
17
100
AcDbEntity
  8
Painéis
 62
0
370
25
100
AcDbLine
 10
7021.913254735146
 20
10109.99910473152
 30
0.0
 11
7024.913254735146
 21
10106.99910473152
 31
0.0
  0
LINE
  5
10E
330
17
100
AcDbEntity
  8
Painéis
 62
0
370
25
100
AcDbLine
 10
7024.913254735146
 20
10122.99910473152
 30
0.0
 11
7021.913254735146
 21
10125.99910473152
 31
0.0
  0
LINE
  5
10F
330
17
100
AcDbEntity
  8
Painéis
 62
4
370
25
100
AcDbLine
 10
6390.357373369845
 20
10110.49910473155
 30
0.0
 11
6379.205644995664
 21
10110.49910473155
 31
0.0
  0
LINE
  5
110
330
17
100
AcDbEntity
  8
Painéis
 62
4
370
25
100
AcDbLine
 10
6390.357373369841
 20
10060.49910473155
 30
0.0
 11
6379.205644995664
 21
10060.49910473155
 31
0.0
  0
LINE
  5
111
330
17
100
AcDbEntity
  8
Painéis
 62
4
370
25
100
AcDbLine
 10
6382.205644995663
 20
10110.49910473155
 30
0.0
 11
6382.205644995663
 21
10060.49910473155
 31
0.0
  0
LINE
  5
112
330
17
100
AcDbEntity
  8
Painéis
 62
0
370
25
100
AcDbLine
 10
6383.705644995663
 20
10108.99910473155
 30
0.0
 11
6380.705644995663
 21
10111.99910473155
 31
0.0
  0
LINE
  5
113
330
17
100
AcDbEntity
  8
Painéis
 62
0
370
25
100
AcDbLine
 10
6380.705644995663
 20
10061.99910473155
 30
0.0
 11
6383.705644995663
 21
10058.99910473155
 31
0.0
  0
LINE
  5
114
330
17
100
AcDbEntity
  8
Painéis
 62
4
370
25
100
AcDbLine
 10
6390.357373369845
 20
10110.49910473155
 30
0.0
 11
6379.205644995668
 21
10110.49910473155
 31
0.0
  0
LINE
  5
115
330
17
100
AcDbEntity
  8
Painéis
 62
4
370
25
100
AcDbLine
 10
6390.357373369845
 20
10124.49910473152
 30
0.0
 11
6379.205644995668
 21
10124.49910473152
 31
0.0
  0
LINE
  5
116
330
17
100
AcDbEntity
  8
Painéis
 62
4
370
25
100
AcDbLine
 10
6382.205644995668
 20
10110.49910473155
 30
0.0
 11
6382.205644995668
 21
10124.49910473152
 31
0.0
  0
LINE
  5
117
330
17
100
AcDbEntity
  8
Painéis
 62
4
370
25
100
AcDbLine
 10
6382.205644995668
 20
10124.49910473152
 30
0.0
 11
6382.205644995668
 21
10143.61606379585
 31
0.0
  0
LINE
  5
118
330
17
100
AcDbEntity
  8
Painéis
 62
0
370
25
100
AcDbLine
 10
6380.705644995668
 20
10111.99910473155
 30
0.0
 11
6383.705644995668
 21
10108.99910473155
 31
0.0
  0
LINE
  5
119
330
17
100
AcDbEntity
  8
Painéis
 62
0
370
25
100
AcDbLine
 10
6383.705644995668
 20
10122.99910473152
 30
0.0
 11
6380.705644995668
 21
10125.99910473152
 31
0.0
  0
LINE
  5
11A
330
17
100
AcDbEntity
  8
Painéis
 62
4
370
25
100
AcDbLine
 10
6390.357373369841
 20
10060.49910473155
 30
0.0
 11
6357.0942351935
 21
10060.49910473155
 31
0.0
  0
LINE
  5
11B
330
17
100
AcDbEntity
  8
Painéis
 62
4
370
25
100
AcDbLine
 10
6390.357373369841
 20
10124.49910473152
 30
0.0
 11
6357.0942351935
 21
10124.49910473152
 31
0.0
  0
LINE
  5
11C
330
17
100
AcDbEntity
  8
Painéis
 62
4
370
25
100
AcDbLine
 10
6360.094235193499
 20
10060.49910473155
 30
0.0
 11
6360.094235193499
 21
10124.49910473152
 31
0.0
  0
LINE
  5
11D
330
17
100
AcDbEntity
  8
Painéis
 62
0
370
25
100
AcDbLine
 10
6358.594235193499
 20
10061.99910473155
 30
0.0
 11
6361.594235193499
 21
10058.99910473155
 31
0.0
  0
LINE
  5
11E
330
17
100
AcDbEntity
  8
Painéis
 62
0
370
25
100
AcDbLine
 10
6361.594235193499
 20
10122.99910473152
 30
0.0
 11
6358.594235193499
 21
10125.99910473152
 31
0.0
  0
LINE
  5
11F
330
17
100
AcDbEntity
  8
Texto Seção
 62
252
370
15
100
AcDbLine
 10
6150.529450260894
 20
10295.7951401174
 30
0.0
 11
6150.529450260894
 21
10420.7951401174
 31
0.0
  0
LINE
  5
120
330
17
100
AcDbEntity
  8
presilha
 62
1
370
25
100
AcDbLine
 10
6189.196649395439
 20
10167.161806784101
 30
0.0
 11
6189.196649395439
 21
10162.561966784117
 31
0.0
  0
LINE
  5
121
330
17
100
AcDbEntity
  8
presilha
 62
1
370
25
100
AcDbLine
 10
6189.196649395439
 20
10162.561966784117
 30
0.0
 11
6209.19701389979
 21
10162.56196678411
 31
0.0
  0
LINE
  5
122
330
17
100
AcDbEntity
  8
presilha
 62
1
370
25
100
AcDbLine
 10
6210.19701389979
 20
10170.161806784103
 30
0.0
 11
6209.19701389979
 21
10170.161806784103
 31
0.0
  0
LINE
  5
123
330
17
100
AcDbEntity
  8
presilha
 62
1
370
25
100
AcDbLine
 10
6209.19701389979
 20
10170.161806784103
 30
0.0
 11
6209.19701389979
 21
10158.161806784103
 31
0.0
  0
LINE
  5
124
330
17
100
AcDbEntity
  8
presilha
 62
1
370
25
100
AcDbLine
 10
6209.19701389979
 20
10158.161806784103
 30
0.0
 11
6210.19701389979
 21
10158.161806784103
 31
0.0
  0
LINE
  5
125
330
17
100
AcDbEntity
  8
presilha
 62
1
370
25
100
AcDbLine
 10
6210.19701389979
 20
10158.161806784103
 30
0.0
 11
6210.19701389979
 21
10170.161806784103
 31
0.0
  0
LINE
  5
126
330
17
100
AcDbEntity
  8
presilha
 62
1
370
25
100
AcDbLine
 10
6206.197013899792
 20
10173.828473450769
 30
0.0
 11
6206.197013899792
 21
10172.828473450769
 31
0.0
  0
LINE
  5
127
330
17
100
AcDbEntity
  8
presilha
 62
1
370
25
100
AcDbLine
 10
6189.196649395439
 20
10167.161806784101
 30
0.0
 11
6207.816649395439
 21
10167.161806784101
 31
0.0
  0
LINE
  5
128
330
17
100
AcDbEntity
  8
presilha
 62
1
370
25
100
AcDbLine
 10
6209.196649395439
 20
10166.921806784101
 30
0.0
 11
6209.197013899792
 21
10173.06847345077
 31
0.0
  0
LINE
  5
129
330
17
100
AcDbEntity
  8
presilha
 62
1
370
25
100
AcDbLine
 10
6208.19664939544
 20
10167.541806784102
 30
0.0
 11
6208.197013899792
 21
10172.448473450768
 31
0.0
  0
LINE
  5
12A
330
17
100
AcDbEntity
  8
presilha
 62
1
370
25
100
AcDbLine
 10
6206.197013899792
 20
10173.828473450769
 30
0.0
 11
6208.437013899812
 21
10173.828473450769
 31
0.0
  0
LINE
  5
12B
330
17
100
AcDbEntity
  8
presilha
 62
1
370
25
100
AcDbLine
 10
6206.197013899792
 20
10172.828473450769
 30
0.0
 11
6207.817013899792
 21
10172.828473450769
 31
0.0
  0
LINE
  5
12C
330
17
100
AcDbEntity
  8
presilha
 62
1
370
25
100
AcDbLine
 10
6214.197013899791
 20
10168.495140117437
 30
0.0
 11
6210.197013899791
 21
10168.495140117437
 31
0.0
  0
LINE
  5
12D
330
17
100
AcDbEntity
  8
presilha
 62
1
370
25
100
AcDbLine
 10
6210.197013899791
 20
10168.495140117437
 30
0.0
 11
6210.197013899791
 21
10159.82847345077
 31
0.0
  0
LINE
  5
12E
330
17
100
AcDbEntity
  8
presilha
 62
1
370
25
100
AcDbLine
 10
6210.197013899791
 20
10159.82847345077
 30
0.0
 11
6214.197013899791
 21
10159.82847345077
 31
0.0
  0
LINE
  5
12F
330
17
100
AcDbEntity
  8
presilha
 62
1
370
25
100
AcDbLine
 10
6214.197013899791
 20
10168.495140117437
 30
0.0
 11
6214.197013899791
 21
10159.82847345077
 31
0.0
  0
LINE
  5
130
330
17
100
AcDbEntity
  8
presilha
 62
1
370
25
100
AcDbLine
 10
6097.462251126355
 20
10167.161806784101
 30
0.0
 11
6097.462251126355
 21
10162.561966784117
 31
0.0
  0
LINE
  5
131
330
17
100
AcDbEntity
  8
presilha
 62
1
370
25
100
AcDbLine
 10
6097.462251126355
 20
10162.561966784117
 30
0.0
 11
6077.4618866220035
 21
10162.56196678411
 31
0.0
  0
LINE
  5
132
330
17
100
AcDbEntity
  8
presilha
 62
1
370
25
100
AcDbLine
 10
6076.4618866220035
 20
10170.161806784103
 30
0.0
 11
6077.4618866220035
 21
10170.161806784103
 31
0.0
  0
LINE
  5
133
330
17
100
AcDbEntity
  8
presilha
 62
1
370
25
100
AcDbLine
 10
6077.4618866220035
 20
10170.161806784103
 30
0.0
 11
6077.4618866220035
 21
10158.161806784103
 31
0.0
  0
LINE
  5
134
330
17
100
AcDbEntity
  8
presilha
 62
1
370
25
100
AcDbLine
 10
6077.4618866220035
 20
10158.161806784103
 30
0.0
 11
6076.4618866220035
 21
10158.161806784103
 31
0.0
  0
LINE
  5
135
330
17
100
AcDbEntity
  8
presilha
 62
1
370
25
100
AcDbLine
 10
6076.4618866220035
 20
10158.161806784103
 30
0.0
 11
6076.4618866220035
 21
10170.161806784103
 31
0.0
  0
LINE
  5
136
330
17
100
AcDbEntity
  8
presilha
 62
1
370
25
100
AcDbLine
 10
6080.461886622002
 20
10173.828473450769
 30
0.0
 11
6080.461886622002
 21
10172.828473450769
 31
0.0
  0
LINE
  5
137
330
17
100
AcDbEntity
  8
presilha
 62
1
370
25
100
AcDbLine
 10
6097.462251126355
 20
10167.161806784101
 30
0.0
 11
6078.842251126355
 21
10167.161806784101
 31
0.0
  0
LINE
  5
138
330
17
100
AcDbEntity
  8
presilha
 62
1
370
25
100
AcDbLine
 10
6077.462251126355
 20
10166.921806784101
 30
0.0
 11
6077.461886622002
 21
10173.06847345077
 31
0.0
  0
LINE
  5
139
330
17
100
AcDbEntity
  8
presilha
 62
1
370
25
100
AcDbLine
 10
6078.462251126354
 20
10167.541806784102
 30
0.0
 11
6078.461886622002
 21
10172.448473450768
 31
0.0
  0
LINE
  5
13A
330
17
100
AcDbEntity
  8
presilha
 62
1
370
25
100
AcDbLine
 10
6080.461886622002
 20
10173.828473450769
 30
0.0
 11
6078.221886621982
 21
10173.828473450769
 31
0.0
  0
LINE
  5
13B
330
17
100
AcDbEntity
  8
presilha
 62
1
370
25
100
AcDbLine
 10
6080.461886622002
 20
10172.828473450769
 30
0.0
 11
6078.841886622002
 21
10172.828473450769
 31
0.0
  0
LINE
  5
13C
330
17
100
AcDbEntity
  8
presilha
 62
1
370
25
100
AcDbLine
 10
6072.461886622003
 20
10168.495140117437
 30
0.0
 11
6076.461886622003
 21
10168.495140117437
 31
0.0
  0
LINE
  5
13D
330
17
100
AcDbEntity
  8
presilha
 62
1
370
25
100
AcDbLine
 10
6076.461886622003
 20
10168.495140117437
 30
0.0
 11
6076.461886622003
 21
10159.82847345077
 31
0.0
  0
LINE
  5
13E
330
17
100
AcDbEntity
  8
presilha
 62
1
370
25
100
AcDbLine
 10
6076.461886622003
 20
10159.82847345077
 30
0.0
 11
6072.461886622003
 21
10159.82847345077
 31
0.0
  0
LINE
  5
13F
330
17
100
AcDbEntity
  8
presilha
 62
1
370
25
100
AcDbLine
 10
6072.461886622003
 20
10168.495140117437
 30
0.0
 11
6072.461886622003
 21
10159.82847345077
 31
0.0
  0
LWPOLYLINE
  5
140
330
17
100
AcDbEntity
  8
Painéis
 62
200
370
25
100
AcDbPolyline
 90
4
 70
1
 10
6171.329450260897
 20
10263.79514011737
 10
6167.329450260897
 20
10263.79514011737
 10
6167.329450260897
 20
10167.7951401174
 10
6171.329450260897
 20
10167.7951401174
  0
LWPOLYLINE
  5
141
330
17
100
AcDbEntity
  8
Madeira
 62
126
370
18
100
AcDbPolyline
 90
4
 70
1
 10
6171.329450260897
 20
10259.39514011737
 10
6171.329450260897
 20
10263.79514011737
 10
6185.329450260897
 20
10263.79514011737
 10
6185.329450260897
 20
10259.39514011737
  0
LWPOLYLINE
  5
142
330
17
100
AcDbEntity
  8
Madeira
 62
126
370
18
100
AcDbPolyline
 90
4
 70
1
 10
6205.329450260897
 20
10167.7951401174
 10
6205.329450260897
 20
10172.19514011739
 10
6185.329450260897
 20
10172.19514011739
 10
6185.329450260897
 20
10167.7951401174
  0
LWPOLYLINE
  5
143
330
17
100
AcDbEntity
  8
Madeira
 62
126
370
18
100
AcDbPolyline
 90
4
 70
1
 10
6171.329450260897
 20
10263.79514011737
 10
6185.329450260897
 20
10263.79514011737
 10
6185.329450260897
 20
10167.7951401174
 10
6171.329450260897
 20
10167.7951401174
  0
LWPOLYLINE
  5
144
330
17
100
AcDbEntity
  8
Madeira
 62
126
370
18
100
AcDbPolyline
 90
4
 70
1
 10
6119.329450260897
 20
10167.7951401174
 10
6119.329450260897
 20
10172.19514011739
 10
6133.329450260897
 20
10172.19514011739
 10
6133.329450260897
 20
10167.7951401174
  0
LWPOLYLINE
  5
145
330
17
100
AcDbEntity
  8
Painéis
 62
200
370
25
100
AcDbPolyline
 90
4
 70
1
 10
6119.329450260897
 20
10172.19514011739
 10
6119.329450260897
 20
10175.7951401174
 10
6167.329450260897
 20
10175.7951401174
 10
6167.329450260897
 20
10172.19514011739
  0
LWPOLYLINE
  5
146
330
17
100
AcDbEntity
  8
Madeira
 62
126
370
18
100
AcDbPolyline
 90
4
 70
1
 10
6167.329450260897
 20
10167.7951401174
 10
6167.329450260897
 20
10172.19514011739
 10
6153.329450260897
 20
10172.19514011739
 10
6153.329450260897
 20
10167.7951401174
  0
LWPOLYLINE
  5
147
330
17
100
AcDbEntity
  8
Painéis
 62
200
370
25
100
AcDbPolyline
 90
4
 70
1
 10
6115.329450260886
 20
10295.7951401174
 10
6119.329450260886
 20
10295.7951401174
 10
6119.329450260897
 20
10167.7951401174
 10
6115.329450260897
 20
10167.7951401174
  0
LWPOLYLINE
  5
148
330
17
100
AcDbEntity
  8
Madeira
 62
126
370
18
100
AcDbPolyline
 90
4
 70
1
 10
6115.329450260886
 20
10291.3951401174
 10
6115.329450260886
 20
10295.7951401174
 10
6101.329450260886
 20
10295.7951401174
 10
6101.329450260886
 20
10291.3951401174
  0
LWPOLYLINE
  5
149
330
17
100
AcDbEntity
  8
Madeira
 62
126
370
18
100
AcDbPolyline
 90
4
 70
1
 10
6081.329450260897
 20
10167.7951401174
 10
6081.329450260897
 20
10172.19514011739
 10
6101.329450260897
 20
10172.19514011739
 10
6101.329450260897
 20
10167.7951401174
  0
LWPOLYLINE
  5
14A
330
17
100
AcDbEntity
  8
Madeira
 62
126
370
18
100
AcDbPolyline
 90
4
 70
1
 10
6115.329450260886
 20
10295.7951401174
 10
6101.329450260886
 20
10295.7951401174
 10
6101.329450260897
 20
10167.7951401174
 10
6115.329450260897
 20
10167.7951401174
  0
LWPOLYLINE
  5
14B
330
17
100
AcDbEntity
  8
Painéis
 62
200
370
25
100
AcDbPolyline
 90
4
 70
1
 10
6167.329450260897
 20
10263.79514011737
 10
6167.329450260897
 20
10267.79514011737
 10
6222.929450260874
 20
10267.79514011737
 10
6222.929450260874
 20
10263.79514011737
  0
LWPOLYLINE
  5
14C
330
17
100
AcDbEntity
  8
CONCRETO
 62
251
370
25
100
AcDbPolyline
 90
8
 70
1
 10
6222.929450260874
 20
10267.79514011737
 10
6222.929450260874
 20
10295.7951401174
 10
6119.329450260888
 20
10295.7951401174
 10
6119.329450260888
 20
10267.79514011738
 10
6119.329450260897
 20
10267.79514011738
 10
6119.329450260956
 20
10175.7951401174
 10
6167.329450260897
 20
10175.7951401174
 10
6167.329450260897
 20
10267.79514011737
  0
LWPOLYLINE
  5
14D
330
17
100
AcDbEntity
  8
barrote
 62
251
370
25
100
AcDbPolyline
 90
4
 70
1
 10
6238.784647932791
 20
10147.79514011744
 10
6033.601707423096
 20
10147.79514011744
 10
6033.601707423096
 20
10167.7951401174
 10
6238.784647932791
 20
10167.7951401174
  0
LWPOLYLINE
  5
14E
330
17
100
AcDbEntity
  8
SCO-___-LAJ
 62
1
370
0
100
AcDbPolyline
 90
4
 70
1
 10
6229.78238051733
 20
10166.46172678407
 10
6052.47652000447
 20
10166.46172678406
 10
6052.47652000447
 20
10163.26204678409
 10
6229.78238051733
 20
10163.2620467841
  0
LWPOLYLINE
  5
14F
330
17
100
AcDbEntity
  8
COTA
 62
0
370
25
100
AcDbPolyline
 90
2
 70
0
 10
6272.80617335013
 20
10170.2951401174
 10
6277.80617335013
 20
10165.2951401174
  0
LWPOLYLINE
  5
150
330
17
100
AcDbEntity
  8
COTA
 62
0
370
25
100
AcDbPolyline
 90
2
 70
0
 10
6277.806173350129
 20
10293.29514011739
 10
6272.806173350129
 20
10298.29514011739
  0
LWPOLYLINE
  5
151
330
17
100
AcDbEntity
  8
COTA
 62
0
370
25
100
AcDbPolyline
 90
2
 70
0
 10
6039.957717502621
 20
10170.2951401174
 10
6044.957717502621
 20
10165.2951401174
  0
LWPOLYLINE
  5
152
330
17
100
AcDbEntity
  8
COTA
 62
0
370
25
100
AcDbPolyline
 90
2
 70
0
 10
6044.957717502621
 20
10293.2951401174
 10
6039.957717502621
 20
10298.2951401174
  0
LWPOLYLINE
  5
153
330
17
100
AcDbEntity
  8
COTA
 62
0
370
25
100
AcDbPolyline
 90
2
 70
0
 10
6258.486744864667
 20
10293.29514011739
 10
6253.486744864667
 20
10298.29514011739
  0
LWPOLYLINE
  5
154
330
17
100
AcDbEntity
  8
COTA
 62
0
370
25
100
AcDbPolyline
 90
2
 70
0
 10
6253.486744864667
 20
10270.29514011737
 10
6258.486744864667
 20
10265.29514011737
  0
LWPOLYLINE
  5
155
330
17
100
AcDbEntity
  8
COTA
 62
0
370
25
100
AcDbPolyline
 90
2
 70
0
 10
6258.486744864337
 20
10261.29514011737
 10
6253.486744864337
 20
10266.29514011737
  0
LWPOLYLINE
  5
156
330
17
100
AcDbEntity
  8
COTA
 62
0
370
25
100
AcDbPolyline
 90
2
 70
0
 10
6253.486744864338
 20
10170.2951401174
 10
6258.486744864338
 20
10165.2951401174
  0
LWPOLYLINE
  5
157
330
17
100
AcDbEntity
  8
COTA
 62
0
370
25
100
AcDbPolyline
 90
2
 70
0
 10
6164.829450260897
 20
10120.56832631521
 10
6169.829450260897
 20
10125.56832631521
  0
LWPOLYLINE
  5
158
330
17
100
AcDbEntity
  8
COTA
 62
0
370
25
100
AcDbPolyline
 90
2
 70
0
 10
6121.829450260897
 20
10125.56832631521
 10
6116.829450260897
 20
10120.56832631521
  0
LWPOLYLINE
  5
159
330
17
100
AcDbEntity
  8
COTA
 62
0
370
25
100
AcDbPolyline
 90
2
 70
0
 10
6241.68735770837
 20
10215.26519764569
 10
6236.68735770837
 20
10220.26519764569
  0
LWPOLYLINE
  5
15A
330
17
100
AcDbEntity
  8
COTA
 62
0
370
25
100
AcDbPolyline
 90
2
 70
0
 10
6236.68735770837
 20
10170.29514011743
 10
6241.68735770837
 20
10165.29514011743
  0
TEXT
  5
15B
330
17
100
AcDbEntity
  8
detalhes
 62
4
370
25
100
AcDbText
 10
6175.53671495036
 20
10223.81583305885
 30
0.0
 40
9.600000000000001
  1
b
100
AcDbText
  0
TEXT
  5
15C
330
17
100
AcDbEntity
  8
detalhes
 62
4
370
25
100
AcDbText
 10
6104.787012409168
 20
10224.87585100407
 30
0.0
 40
9.600000000000001
  1
a
100
AcDbText
  0
TEXT
  5
15D
330
17
100
AcDbEntity
  8
detalhes
 62
4
370
25
100
AcDbText
 10
6149.627430259487
 20
10178.03089363724
 30
0.0
 40
9.600000000000001
  1
c
100
AcDbText
  0
TEXT
  5
15E
330
17
100
AcDbEntity
  8
texto
 62
2
370
25
100
AcDbText
 10
6517.38996707553
 20
10309.26420708575
 30
0.0
 40
8.0
  1
8 1/2pont
100
AcDbText
  0
TEXT
  5
15F
330
17
100
AcDbEntity
  8
texto
 62
2
370
25
100
AcDbText
 10
6934.635309870832
 20
10309.26420708577
 30
0.0
 40
8.0
  1
5 1/2pont
100
AcDbText
  0
TEXT
  5
160
330
17
100
AcDbEntity
  8
5
 62
5
370
25
100
AcDbText
 10
6965.237239562788
 20
10196.830130063
 30
0.0
 40
12.0
  1
V225
 50
3.55024762388e-05
100
AcDbText
  0
TEXT
  5
161
330
17
100
AcDbEntity
  8
5
 62
5
370
25
100
AcDbText
 10
6390.226155538645
 20
10200.87049580621
 30
0.0
 40
12.0
  1
P12
 50
359.9999644975238
100
AcDbText
  0
TEXT
  5
162
330
17
100
AcDbEntity
  8
Texto Seção
 62
7
370
15
100
AcDbText
 10
6394.263973200629
 20
10347.55739397451
 30
0.0
 40
13.0
  1
V204.A
100
AcDbText
  0
TEXT
  5
163
330
17
100
AcDbEntity
  8
texto
 62
2
370
25
100
AcDbText
 10
6687.740084473346
 20
10292.00805466651
 30
0.0
 40
8.0
  1
4 1/2pont
100
AcDbText
  0
TEXT
  5
164
330
17
100
AcDbEntity
  8
texto
 62
2
370
25
100
AcDbText
 10
6874.625486828785
 20
10081.7196016146
 30
0.0
 40
8.0
  1
8 1/2pont
100
AcDbText
  0
TEXT
  5
165
330
17
100
AcDbEntity
  8
texto
 62
2
370
25
100
AcDbText
 10
6715.097181607872
 20
10081.71960161462
 30
0.0
 40
8.0
  1
5 1/2pont
100
AcDbText
  0
TEXT
  5
166
330
17
100
AcDbEntity
  8
5
 62
5
370
25
100
AcDbText
 10
6590.282205347913
 20
9978.454264358637
 30
0.0
 40
12.0
  1
V224
 50
359.9999644975238
100
AcDbText
  0
TEXT
  5
167
330
17
100
AcDbEntity
  8
5
 62
5
370
25
100
AcDbText
 10
6969.813393108563
 20
9978.454264312986
 30
0.0
 40
12.0
  1
P12
 50
359.9999644975238
100
AcDbText
  0
TEXT
  5
168
330
17
100
AcDbEntity
  8
texto
 62
2
370
25
100
AcDbText
 10
6512.092353822847
 20
10081.7196016146
 30
0.0
 40
8.0
  1
4 1/2pont
100
AcDbText
  0
TEXT
  5
169
330
17
100
AcDbEntity
  8
5
 62
5
370
25
100
AcDbText
 10
6391.876939246831
 20
9978.45426444486
 30
0.0
 40
12.0
  1
V225
 50
359.9999644975238
100
AcDbText
  0
TEXT
  5
16A
330
17
100
AcDbEntity
  8
Texto Seção
 62
7
370
15
100
AcDbText
 10
6398.039318464652
 20
10129.34345048237
 30
0.0
 40
13.0
  1
V204.B
100
AcDbText
  0
TEXT
  5
16B
330
17
100
AcDbEntity
  8
COTA
 62
1
370
25
100
AcDbText
 10
6283.806173350131
 20
10231.79514011739
 30
0.0
 40
7.0
  1
64
 50
90.0
100
AcDbText
  0
TEXT
  5
16C
330
17
100
AcDbEntity
  8
COTA
 62
1
370
25
100
AcDbText
 10
6050.957717502623
 20
10231.7951401174
 30
0.0
 40
7.0
  1
64
 50
90.0
100
AcDbText
  0
TEXT
  5
16D
330
17
100
AcDbEntity
  8
Cota Seção (2x)
 62
1
370
25
100
AcDbText
 10
6146.563437445043
 20
10255.79514011736
 30
0.0
 40
7.0
  1
60
 50
90.0
100
AcDbText
  0
TEXT
  5
16E
330
17
100
AcDbEntity
  8
COTA
 62
1
370
25
100
AcDbText
 10
6264.486744864669
 20
10281.79514011738
 30
0.0
 40
7.0
  1
14
 50
90.0
100
AcDbText
  0
TEXT
  5
16F
330
17
100
AcDbEntity
  8
COTA
 62
1
370
25
100
AcDbText
 10
6264.486744864339
 20
10215.79514011738
 30
0.0
 40
7.0
  1
48
 50
90.0
100
AcDbText
  0
TEXT
  5
170
330
17
100
AcDbEntity
  8
COTA
 62
1
370
25
100
AcDbText
 10
6143.329450260897
 20
10128.56832631521
 30
0.0
 40
7.0
  1
24
100
AcDbText
  0
TEXT
  5
171
330
17
100
AcDbEntity
  8
COTA
 62
1
370
25
100
AcDbText
 10
6247.687357708371
 20
10192.78016888156
 30
0.0
 40
7.0
  1
25
 50
90.0
100
AcDbText
  0
TEXT
  5
172
330
17
100
AcDbEntity
  8
Cota Seção (2x)
 62
1
370
25
100
AcDbText
 10
6148.329450260926
 20
10195.2951401174
 30
0.0
 40
7.0
  1
24
100
AcDbText
  0
TEXT
  5
173
330
17
100
AcDbEntity
  8
COTA
 62
240
370
25
100
AcDbText
 10
6513.031141289696
 20
10260.40816767605
 30
0.0
 40
10.0
  1
244
100
AcDbText
  0
TEXT
  5
174
330
17
100
AcDbEntity
  8
COTA
 62
240
370
25
100
AcDbText
 10
6941.531141289695
 20
10260.44471738367
 30
0.0
 40
10.0
  1
125
100
AcDbText
  0
TEXT
  5
175
330
17
100
AcDbEntity
  8
COTA
 62
240
370
25
100
AcDbText
 10
6697.531141289696
 20
10227.01585581774
 30
0.0
 40
10.0
  1
613
100
AcDbText
  0
TEXT
  5
176
330
17
100
AcDbEntity
  8
COTA
 62
240
370
25
100
AcDbText
 10
6757.031141289695
 20
10260.40816767605
 30
0.0
 40
10.0
  1
244
100
AcDbText
  0
TEXT
  5
177
330
17
100
AcDbEntity
  8
Painéis
 62
240
370
25
100
AcDbText
 10
6788.031141289696
 20
10313.53093589494
 30
0.0
 40
10.0
  1
100
100
AcDbText
  0
TEXT
  5
178
330
17
100
AcDbEntity
  8
Painéis
 62
240
370
25
100
AcDbText
 10
6686.531141289695
 20
10313.64789495927
 30
0.0
 40
10.0
  1
103
100
AcDbText
  0
TEXT
  5
179
330
17
100
AcDbEntity
  8
Painéis
 62
240
370
25
100
AcDbText
 10
7037.339389014171
 20
10310.87499423903
 30
0.0
 40
10.0
  1
64
 50
90.0
100
AcDbText
  0
TEXT
  5
17A
330
17
100
AcDbEntity
  8
COTA
 62
240
370
25
100
AcDbText
 10
6892.23431261462
 20
10042.06882787617
 30
0.0
 40
10.0
  1
217.5
100
AcDbText
  0
TEXT
  5
17B
330
17
100
AcDbEntity
  8
COTA
 62
240
370
25
100
AcDbText
 10
6700.484312614619
 20
10042.06151793466
 30
0.0
 40
10.0
  1
166
100
AcDbText
  0
TEXT
  5
17C
330
17
100
AcDbEntity
  8
COTA
 62
240
370
25
100
AcDbText
 10
6809.23431261462
 20
10008.66189613482
 30
0.0
 40
10.0
  1
383.5
100
AcDbText
  0
TEXT
  5
17D
330
17
100
AcDbEntity
  8
00 - FELIPE
 62
240
370
25
100
AcDbText
 10
6635.734312614663
 20
10089.76791293172
 30
0.0
 40
10.0
  1
36.5
100
AcDbText
  0
TEXT
  5
17E
330
17
100
AcDbEntity
  8
COTA
 62
240
370
25
100
AcDbText
 10
6534.857373369837
 20
10042.01765828552
 30
0.0
 40
10.0
  1
122
100
AcDbText
  0
TEXT
  5
17F
330
17
100
AcDbEntity
  8
COTA
 62
240
370
25
100
AcDbText
 10
6433.607373369837
 20
10042.09075770074
 30
0.0
 40
10.0
  1
80.5
100
AcDbText
  0
TEXT
  5
180
330
17
100
AcDbEntity
  8
COTA
 62
240
370
25
100
AcDbText
 10
6494.607373369837
 20
10008.53031718745
 30
0.0
 40
10.0
  1
202.5
100
AcDbText
  0
TEXT
  5
181
330
17
100
AcDbEntity
  8
00 - FELIPE
 62
240
370
25
100
AcDbText
 10
6577.607373369793
 20
10089.76791293172
 30
0.0
 40
10.0
  1
36.5
100
AcDbText
  0
TEXT
  5
182
330
17
100
AcDbEntity
  8
COTA
 62
240
370
25
100
AcDbText
 10
7056.926421227494
 20
10092.49910473153
 30
0.0
 40
10.0
  1
64
 50
90.0
100
AcDbText
  0
TEXT
  5
183
330
17
100
AcDbEntity
  8
COTA
 62
240
370
25
100
AcDbText
 10
7035.318225495379
 20
10084.49910473153
 30
0.0
 40
10.0
  1
48
 50
90.0
100
AcDbText
  0
TEXT
  5
184
330
17
100
AcDbEntity
  8
Painéis
 62
240
370
25
100
AcDbText
 10
7035.31091555386
 20
10135.50641467303
 30
0.0
 40
10.0
  1
16
 50
90.0
100
AcDbText
  0
TEXT
  5
185
330
17
100
AcDbEntity
  8
Painéis
 62
240
370
25
100
AcDbText
 10
6394.095995872857
 20
10085.49910473154
 30
0.0
 40
10.0
  1
50
 50
90.0
100
AcDbText
  0
TEXT
  5
186
330
17
100
AcDbEntity
  8
Painéis
 62
240
370
25
100
AcDbText
 10
6394.132545580463
 20
10135.55758426368
 30
0.0
 40
10.0
  1
14
 50
90.0
100
AcDbText
  0
TEXT
  5
187
330
17
100
AcDbEntity
  8
Painéis
 62
240
370
25
100
AcDbText
 10
6371.991896012213
 20
10092.49910473153
 30
0.0
 40
10.0
  1
64
 50
90.0
100
AcDbText
  0
TEXT
  5
188
330
17
100
AcDbEntity
  8
Texto Seção
 62
3
370
15
100
AcDbText
 10
6150.529450260894
 20
10367.243904490373
 30
0.0
 40
17.0
  1

100
AcDbText
  0
TEXT
  5
189
330
17
100
AcDbEntity
  8
Texto Seção
 62
3
370
15
100
AcDbText
 10
6150.529450260894
 20
10337.343319846052
 30
0.0
 40
12.0
  1

100
AcDbText
  0
TEXT
  5
18A
330
17
100
AcDbEntity
  8
Texto Seção
 62
7
370
15
100
AcDbText
 10
6150.529450260894
 20
10311.371890957565
 30
0.0
 40
10.0
  1

100
AcDbText
  0
HATCH
  5
18B
330
17
100
AcDbEntity
  8
Hachura
 62
7
100
AcDbHatch
 10
0.0
 20
0.0
 30
0.0
210
0.0
220
0.0
230
1.0
  2
SOLID
 70
1
 71
0
 91
1
 92
3
 72
0
 73
1
 93
5
 10
6171.329450260898
 20
10267.79514011737
 10
6167.329450260899
 20
10267.79514011737
 10
6167.329450260897
 20
10167.7951401174
 10
6171.329450260897
 20
10167.7951401174
 10
6171.329450260898
 20
10267.79514011737
 97
0
 75
1
 76
1
 98
0
  0
HATCH
  5
18C
330
17
100
AcDbEntity
  8
Hachura
 62
7
100
AcDbHatch
 10
0.0
 20
0.0
 30
0.0
210
0.0
220
0.0
230
1.0
  2
ANSI31
 70
0
 71
0
 91
1
 92
3
 72
0
 73
1
 93
5
 10
6171.329450260897
 20
10259.39514011737
 10
6171.329450260897
 20
10263.79514011737
 10
6185.329450260897
 20
10263.79514011737
 10
6185.329450260897
 20
10259.39514011737
 10
6171.329450260897
 20
10259.39514011737
 97
0
 75
1
 76
1
 52
0.0
 41
1.0
 77
0
 78
1
 53
45.0
 43
0.0
 44
0.0
 45
-2.2450640303
 46
2.2450640303
 79
0
 98
0
  0
HATCH
  5
18D
330
17
100
AcDbEntity
  8
Hachura
 62
7
100
AcDbHatch
 10
0.0
 20
0.0
 30
0.0
210
0.0
220
0.0
230
1.0
  2
ANSI31
 70
0
 71
0
 91
1
 92
3
 72
0
 73
1
 93
5
 10
6205.329450260897
 20
10167.7951401174
 10
6205.329450260897
 20
10172.19514011739
 10
6185.329450260897
 20
10172.19514011739
 10
6185.329450260897
 20
10167.7951401174
 10
6205.329450260897
 20
10167.7951401174
 97
0
 75
1
 76
1
 52
0.0
 41
1.0
 77
0
 78
1
 53
45.0
 43
0.0
 44
0.0
 45
-2.2450640303
 46
2.2450640303
 79
0
 98
0
  0
HATCH
  5
18E
330
17
100
AcDbEntity
  8
Hachura
 62
7
100
AcDbHatch
 10
0.0
 20
0.0
 30
0.0
210
0.0
220
0.0
230
1.0
  2
ANSI31
 70
0
 71
0
 91
1
 92
3
 72
0
 73
1
 93
5
 10
6119.329450260897
 20
10167.7951401174
 10
6119.329450260897
 20
10172.19514011739
 10
6133.329450260897
 20
10172.19514011739
 10
6133.329450260897
 20
10167.7951401174
 10
6119.329450260897
 20
10167.7951401174
 97
0
 75
1
 76
1
 52
0.0
 41
1.0
 77
0
 78
1
 53
45.0
 43
0.0
 44
0.0
 45
-2.2450640303
 46
2.2450640303
 79
0
 98
0
  0
HATCH
  5
18F
330
17
100
AcDbEntity
  8
Hachura
 62
7
100
AcDbHatch
 10
0.0
 20
0.0
 30
0.0
210
0.0
220
0.0
230
1.0
  2
SOLID
 70
1
 71
0
 91
1
 92
3
 72
0
 73
1
 93
5
 10
6119.329450260897
 20
10172.19514011739
 10
6119.329450260897
 20
10175.7951401174
 10
6167.329450260897
 20
10175.7951401174
 10
6167.329450260897
 20
10172.19514011739
 10
6119.329450260897
 20
10172.19514011739
 97
0
 75
1
 76
1
 98
0
  0
HATCH
  5
190
330
17
100
AcDbEntity
  8
Hachura
 62
7
100
AcDbHatch
 10
0.0
 20
0.0
 30
0.0
210
0.0
220
0.0
230
1.0
  2
ANSI31
 70
0
 71
0
 91
1
 92
3
 72
0
 73
1
 93
5
 10
6167.329450260897
 20
10167.7951401174
 10
6167.329450260897
 20
10172.19514011739
 10
6153.329450260897
 20
10172.19514011739
 10
6153.329450260897
 20
10167.7951401174
 10
6167.329450260897
 20
10167.7951401174
 97
0
 75
1
 76
1
 52
0.0
 41
1.0
 77
0
 78
1
 53
45.0
 43
0.0
 44
0.0
 45
-2.2450640303
 46
2.2450640303
 79
0
 98
0
  0
HATCH
  5
191
330
17
100
AcDbEntity
  8
Hachura
 62
7
100
AcDbHatch
 10
0.0
 20
0.0
 30
0.0
210
0.0
220
0.0
230
1.0
  2
SOLID
 70
1
 71
0
 91
1
 92
3
 72
0
 73
1
 93
5
 10
6115.329450260897
 20
10295.7951401174
 10
6119.329450260897
 20
10295.7951401174
 10
6119.329450260897
 20
10167.7951401174
 10
6115.329450260897
 20
10167.7951401174
 10
6115.329450260897
 20
10295.7951401174
 97
0
 75
1
 76
1
 98
0
  0
HATCH
  5
192
330
17
100
AcDbEntity
  8
Hachura
 62
7
100
AcDbHatch
 10
0.0
 20
0.0
 30
0.0
210
0.0
220
0.0
230
1.0
  2
ANSI31
 70
0
 71
0
 91
1
 92
3
 72
0
 73
1
 93
5
 10
6115.329450260886
 20
10291.3951401174
 10
6115.329450260886
 20
10295.7951401174
 10
6101.329450260886
 20
10295.7951401174
 10
6101.329450260886
 20
10291.3951401174
 10
6115.329450260886
 20
10291.3951401174
 97
0
 75
1
 76
1
 52
0.0
 41
1.0
 77
0
 78
1
 53
45.0
 43
0.0
 44
0.0
 45
-2.2450640303
 46
2.2450640303
 79
0
 98
0
  0
HATCH
  5
193
330
17
100
AcDbEntity
  8
Hachura
 62
7
100
AcDbHatch
 10
0.0
 20
0.0
 30
0.0
210
0.0
220
0.0
230
1.0
  2
ANSI31
 70
0
 71
0
 91
1
 92
3
 72
0
 73
1
 93
5
 10
6081.329450260897
 20
10167.7951401174
 10
6081.329450260897
 20
10172.19514011739
 10
6101.329450260897
 20
10172.19514011739
 10
6101.329450260897
 20
10167.7951401174
 10
6081.329450260897
 20
10167.7951401174
 97
0
 75
1
 76
1
 52
0.0
 41
1.0
 77
0
 78
1
 53
45.0
 43
0.0
 44
0.0
 45
-2.2450640303
 46
2.2450640303
 79
0
 98
0
  0
HATCH
  5
194
330
17
100
AcDbEntity
  8
Hachura
 62
7
100
AcDbHatch
 10
0.0
 20
0.0
 30
0.0
210
0.0
220
0.0
230
1.0
  2
SOLID
 70
1
 71
0
 91
1
 92
3
 72
0
 73
1
 93
5
 10
6167.329450260897
 20
10263.79514011737
 10
6167.329450260897
 20
10267.79514011737
 10
6222.929450260874
 20
10267.79514011737
 10
6222.929450260874
 20
10263.79514011737
 10
6167.329450260897
 20
10263.79514011737
 97
0
 75
1
 76
1
 98
0
  0
HATCH
  5
195
330
17
100
AcDbEntity
  8
COTA
 62
7
100
AcDbHatch
 10
0.0
 20
0.0
 30
0.0
210
0.0
220
0.0
230
1.0
  2
AR-CONC
 70
0
 71
0
 91
1
 92
3
 72
0
 73
1
 93
5
 10
6617.484312614625
 20
10124.49910473151
 10
7000.984312614626
 20
10124.49910473152
 10
7000.984312614625
 20
10108.49910473152
 10
6617.484312614624
 20
10108.49910473154
 10
6617.484312614625
 20
10124.49910473151
 97
0
 75
1
 76
1
 52
0.0
 41
1.0
 77
0
 78
13
 53
50.0
 43
0.0
 44
0.0
 45
182.184668996
 46
-15.9390855389
 79
2
 49
19.05
 49
-209.55
 53
355.0
 43
0.0
 44
0.0
 45
-35.243421425
 46
191.056845239
 79
2
 49
15.24
 49
-167.64058417
 53
100.4514447
 43
15.182007
 44
-1.3282535
 45
146.9412470904
 46
175.1177519122
 79
2
 49
16.1900088
 49
-178.0902446
 53
46.1842
 43
0.0
 44
50.8
 45
271.0790408921
 46
-42.0423279327
 79
2
 49
28.575
 49
-314.325
 53
96.63555761
 43
22.5899
 44
47.2965
 45
237.4041340515
 46
247.4261245977
 79
2
 49
24.28502314
 49
-267.13560816
 53
351.18415117
 43
0.0
 44
50.8
 45
237.404134065
 46
247.4261245855
 79
2
 49
22.85996707
 49
-251.45973192
 53
21.0
 43
25.4
 44
38.1
 45
151.6143912691
 46
-102.2651981871
 79
2
 49
19.05
 49
-209.55
 53
326.0
 43
25.4
 44
38.1
 45
61.8020283476
 46
184.1879661223
 79
2
 49
15.24
 49
-167.64
 53
71.451445
 43
38.0345326
 44
29.5779001
 45
213.4164192787
 46
81.9227688859
 79
2
 49
16.1900088
 49
-178.0899376
 53
37.5
 43
0.0
 44
0.0
 45
3.0886032506
 46
84.5550388732
 79
6
 49
0.0
 49
-165.608
 49
0.0
 49
-170.18
 49
0.0
 49
-168.275
 53
7.5
 43
0.0
 44
0.0
 45
66.8196625103
 46
100.1805748181
 79
6
 49
0.0
 49
-97.028
 49
0.0
 49
-161.798
 49
0.0
 49
-64.135
 53
-32.5
 43
-56.642
 44
0.0
 45
135.5905951669
 46
-5.7287439927
 79
6
 49
0.0
 49
-63.5
 49
0.0
 49
-198.12
 49
0.0
 49
-262.89
 53
-42.5
 43
-82.042
 44
0.0
 45
148.129181386
 46
25.4264910333
 79
6
 49
0.0
 49
-82.55
 49
0.0
 49
-131.572
 49
0.0
 49
-186.69
 98
0
  0
HATCH
  5
196
330
17
100
AcDbEntity
  8
COTA
 62
7
100
AcDbHatch
 10
0.0
 20
0.0
 30
0.0
210
0.0
220
0.0
230
1.0
  2
AR-CONC
 70
0
 71
0
 91
1
 92
3
 72
0
 73
1
 93
5
 10
6393.357373369841
 20
10110.49910473154
 10
6393.357373369843
 20
10124.49910473152
 10
6595.857373369843
 20
10124.49910473152
 10
6595.857373369843
 20
10110.49910473152
 10
6393.357373369841
 20
10110.49910473154
 97
0
 75
1
 76
1
 52
0.0
 41
1.0
 77
0
 78
13
 53
50.0
 43
0.0
 44
0.0
 45
182.184668996
 46
-15.9390855389
 79
2
 49
19.05
 49
-209.55
 53
355.0
 43
0.0
 44
0.0
 45
-35.243421425
 46
191.056845239
 79
2
 49
15.24
 49
-167.64058417
 53
100.4514447
 43
15.182007
 44
-1.3282535
 45
146.9412470904
 46
175.1177519122
 79
2
 49
16.1900088
 49
-178.0902446
 53
46.1842
 43
0.0
 44
50.8
 45
271.0790408921
 46
-42.0423279327
 79
2
 49
28.575
 49
-314.325
 53
96.63555761
 43
22.5899
 44
47.2965
 45
237.4041340515
 46
247.4261245977
 79
2
 49
24.28502314
 49
-267.13560816
 53
351.18415117
 43
0.0
 44
50.8
 45
237.404134065
 46
247.4261245855
 79
2
 49
22.85996707
 49
-251.45973192
 53
21.0
 43
25.4
 44
38.1
 45
151.6143912691
 46
-102.2651981871
 79
2
 49
19.05
 49
-209.55
 53
326.0
 43
25.4
 44
38.1
 45
61.8020283476
 46
184.1879661223
 79
2
 49
15.24
 49
-167.64
 53
71.451445
 43
38.0345326
 44
29.5779001
 45
213.4164192787
 46
81.9227688859
 79
2
 49
16.1900088
 49
-178.0899376
 53
37.5
 43
0.0
 44
0.0
 45
3.0886032506
 46
84.5550388732
 79
6
 49
0.0
 49
-165.608
 49
0.0
 49
-170.18
 49
0.0
 49
-168.275
 53
7.5
 43
0.0
 44
0.0
 45
66.8196625103
 46
100.1805748181
 79
6
 49
0.0
 49
-97.028
 49
0.0
 49
-161.798
 49
0.0
 49
-64.135
 53
-32.5
 43
-56.642
 44
0.0
 45
135.5905951669
 46
-5.7287439927
 79
6
 49
0.0
 49
-63.5
 49
0.0
 49
-198.12
 49
0.0
 49
-262.89
 53
-42.5
 43
-82.042
 44
0.0
 45
148.129181386
 46
25.4264910333
 79
6
 49
0.0
 49
-82.55
 49
0.0
 49
-131.572
 49
0.0
 49
-186.69
 98
0
  0
HATCH
  5
197
330
17
100
AcDbEntity
  8
REAPROVEITAMENTO
 62
7
100
AcDbHatch
 10
0.0
 20
0.0
 30
0.0
210
0.0
220
0.0
230
1.0
  2
ANSI37
 70
0
 71
0
 91
1
 92
3
 72
0
 73
1
 93
5
 10
6473.85737336984
 20
10110.49910473153
 10
6473.857373369845
 20
10060.49910473154
 10
6595.857373369838
 20
10060.49910473154
 10
6595.857373369835
 20
10110.49910473152
 10
6473.85737336984
 20
10110.49910473153
 97
0
 75
1
 76
1
 52
0.0
 41
1.0
 77
0
 78
2
 53
45.0
 43
0.0
 44
0.0
 45
-2.2450640303
 46
2.2450640303
 79
0
 53
135.0
 43
0.0
 44
0.0
 45
-2.2450640303
 46
-2.2450640303
 79
0
 98
0
  0
HATCH
  5
198
330
17
100
AcDbEntity
  8
REAPROVEITAMENTO
 62
7
100
AcDbHatch
 10
0.0
 20
0.0
 30
0.0
210
0.0
220
0.0
230
1.0
  2
ANSI31
 70
0
 71
0
 91
1
 92
3
 72
0
 73
1
 93
6
 10
6617.484312614623
 20
10108.49910473154
 10
6617.484312614625
 20
10060.49910473154
 10
6783.484312614622
 20
10060.49910473154
 10
6783.484312614621
 20
10108.49910473154
 10
6617.484312614624
 20
10108.49910473154
 10
6617.484312614623
 20
10108.49910473154
 97
0
 75
1
 76
1
 52
0.0
 41
1.0
 77
0
 78
1
 53
45.0
 43
0.0
 44
0.0
 45
-2.2450640303
 46
2.2450640303
 79
0
 98
0
  0
ENDSEC
  0
SECTION
  2
OBJECTS
  0
DICTIONARY
  5
A
330
0
100
AcDbDictionary
281
1
  3
ACAD_COLOR
350
B
  3
ACAD_GROUP
350
C
  3
ACAD_LAYOUT
350
D
  3
ACAD_MATERIAL
350
E
  3
ACAD_MLEADERSTYLE
350
F
  3
ACAD_MLINESTYLE
350
10
  3
ACAD_PLOTSETTINGS
350
11
  3
ACAD_PLOTSTYLENAME
350
12
  3
ACAD_SCALELIST
350
14
  3
ACAD_TABLESTYLE
350
15
  3
ACAD_VISUALSTYLE
350
16
  3
EZDXF_META
350
2D
  0
DICTIONARY
  5
B
330
A
100
AcDbDictionary
281
1
  0
DICTIONARY
  5
C
330
A
100
AcDbDictionary
281
1
  0
DICTIONARY
  5
D
330
A
100
AcDbDictionary
281
1
  3
Model
350
1A
  3
Layout1
350
1E
  0
DICTIONARY
  5
E
330
A
100
AcDbDictionary
281
1
  3
ByBlock
350
1F
  3
ByLayer
350
20
  3
Global
350
21
  0
DICTIONARY
  5
F
330
A
100
AcDbDictionary
281
1
  3
Standard
350
2C
  0
DICTIONARY
  5
10
330
A
100
AcDbDictionary
281
1
  3
Standard
350
22
  0
DICTIONARY
  5
11
330
A
100
AcDbDictionary
281
1
  0
ACDBDICTIONARYWDFLT
  5
12
330
A
100
AcDbDictionary
281
1
  3
Normal
350
13
100
AcDbDictionaryWithDefault
340
13
  0
ACDBPLACEHOLDER
  5
13
330
12
  0
DICTIONARY
  5
14
330
A
100
AcDbDictionary
281
1
  0
DICTIONARY
  5
15
330
A
100
AcDbDictionary
281
1
  0
DICTIONARY
  5
16
330
A
100
AcDbDictionary
281
1
  0
LAYOUT
  5
1A
330
D
100
AcDbPlotSettings
  1

  4
A3
  6

 40
7.5
 41
20.0
 42
7.5
 43
20.0
 44
420.0
 45
297.0
 46
0.0
 47
0.0
 48
0.0
 49
0.0
140
0.0
141
0.0
142
1.0
143
1.0
 70
1024
 72
1
 73
0
 74
5
  7

 75
16
 76
0
 77
2
 78
300
147
1.0
148
0.0
149
0.0
100
AcDbLayout
  1
Model
 70
1
 71
0
 10
0.0
 20
0.0
 11
420.0
 21
297.0
 12
0.0
 22
0.0
 32
0.0
 14
1e+20
 24
1e+20
 34
1e+20
 15
-1e+20
 25
-1e+20
 35
-1e+20
146
0.0
 13
0.0
 23
0.0
 33
0.0
 16
1.0
 26
0.0
 36
0.0
 17
0.0
 27
1.0
 37
0.0
 76
1
330
17
  0
LAYOUT
  5
1E
330
D
100
AcDbPlotSettings
  1

  4
A3
  6

 40
7.5
 41
20.0
 42
7.5
 43
20.0
 44
420.0
 45
297.0
 46
0.0
 47
0.0
 48
0.0
 49
0.0
140
0.0
141
0.0
142
1.0
143
1.0
 70
0
 72
1
 73
0
 74
5
  7

 75
16
 76
0
 77
2
 78
300
147
1.0
148
0.0
149
0.0
100
AcDbLayout
  1
Layout1
 70
1
 71
1
 10
0.0
 20
0.0
 11
420.0
 21
297.0
 12
0.0
 22
0.0
 32
0.0
 14
1e+20
 24
1e+20
 34
1e+20
 15
-1e+20
 25
-1e+20
 35
-1e+20
146
0.0
 13
0.0
 23
0.0
 33
0.0
 16
1.0
 26
0.0
 36
0.0
 17
0.0
 27
1.0
 37
0.0
 76
1
330
1B
  0
MATERIAL
  5
1F
102
{ACAD_REACTORS
330
E
102
}
330
E
100
AcDbMaterial
  1
ByBlock
  2

 70
0
 40
1.0
 71
1
 41
1.0
 91
-1023410177
 42
1.0
 72
1
  3

 73
1
 74
1
 75
1
 44
0.5
 73
0
 45
1.0
 46
1.0
 77
1
  4

 78
1
 79
1
170
1
 48
1.0
171
1
  6

172
1
173
1
174
1
140
1.0
141
1.0
175
1
  7

176
1
177
1
178
1
143
1.0
179
1
  8

270
1
271
1
272
1
145
1.0
146
1.0
273
1
  9

274
1
275
1
276
1
 42
1.0
 72
1
  3

 73
1
 74
1
 75
1
 94
63
  0
MATERIAL
  5
20
102
{ACAD_REACTORS
330
E
102
}
330
E
100
AcDbMaterial
  1
ByLayer
  2

 70
0
 40
1.0
 71
1
 41
1.0
 91
-1023410177
 42
1.0
 72
1
  3

 73
1
 74
1
 75
1
 44
0.5
 73
0
 45
1.0
 46
1.0
 77
1
  4

 78
1
 79
1
170
1
 48
1.0
171
1
  6

172
1
173
1
174
1
140
1.0
141
1.0
175
1
  7

176
1
177
1
178
1
143
1.0
179
1
  8

270
1
271
1
272
1
145
1.0
146
1.0
273
1
  9

274
1
275
1
276
1
 42
1.0
 72
1
  3

 73
1
 74
1
 75
1
 94
63
  0
MATERIAL
  5
21
102
{ACAD_REACTORS
330
E
102
}
330
E
100
AcDbMaterial
  1
Global
  2

 70
0
 40
1.0
 71
1
 41
1.0
 91
-1023410177
 42
1.0
 72
1
  3

 73
1
 74
1
 75
1
 44
0.5
 73
0
 45
1.0
 46
1.0
 77
1
  4

 78
1
 79
1
170
1
 48
1.0
171
1
  6

172
1
173
1
174
1
140
1.0
141
1.0
175
1
  7

176
1
177
1
178
1
143
1.0
179
1
  8

270
1
271
1
272
1
145
1.0
146
1.0
273
1
  9

274
1
275
1
276
1
 42
1.0
 72
1
  3

 73
1
 74
1
 75
1
 94
63
  0
MLINESTYLE
  5
22
102
{ACAD_REACTORS
330
10
102
}
330
10
100
AcDbMlineStyle
  2
Standard
 70
0
  3

 62
256
 51
90.0
 52
90.0
 71
2
 49
0.5
 62
256
  6
BYLAYER
 49
-0.5
 62
256
  6
BYLAYER
  0
MLEADERSTYLE
  5
2C
102
{ACAD_REACTORS
330
F
102
}
330
F
100
AcDbMLeaderStyle
179
2
170
2
171
1
172
0
 90
2
 40
0.0
 41
0.0
173
1
 91
-1056964608
 92
-2
290
1
 42
2.0
291
1
 43
8.0
  3
Standard
 44
4.0
300

342
29
174
1
175
1
176
0
178
1
 93
-1056964608
 45
4.0
292
0
297
0
 46
4.0
 94
-1056964608
 47
1.0
 49
1.0
140
1.0
294
1
141
0.0
177
0
142
1.0
295
0
296
0
143
3.75
271
0
272
9
273
9
  0
DICTIONARY
  5
2D
330
A
100
AcDbDictionary
280
1
281
1
  3
CREATED_BY_EZDXF
350
2E
  3
WRITTEN_BY_EZDXF
350
19B
  0
DICTIONARYVAR
  5
2E
330
2D
100
DictionaryVariables
280
0
  1
1.4.3 @ 2026-06-10T04:23:05.537356+00:00
  0
DICTIONARYVAR
  5
19B
330
2D
100
DictionaryVariables
280
0
  1
1.4.3 @ 2026-06-10T04:23:05.548732+00:00
  0
ENDSEC
  0
EOF
