  0
SECTION
  2
HEADER
  9
$ACADVER
  1
AC1024
  9
$ACADMAINTVER
 70
6
  9
$DWGCODEPAGE
  3
ANSI_1252
  9
$LASTSAVEDBY
  1
ezdxf
  9
$INSBASE
 10
0.0
 20
0.0
 30
0.0
  9
$EXTMIN
 10
1e+20
 20
1e+20
 30
1e+20
  9
$EXTMAX
 10
-1e+20
 20
-1e+20
 30
-1e+20
  9
$LIMMIN
 10
0.0
 20
0.0
  9
$LIMMAX
 10
420.0
 20
297.0
  9
$ORTHOMODE
 70
0
  9
$REGENMODE
 70
1
  9
$FILLMODE
 70
1
  9
$QTEXTMODE
 70
0
  9
$MIRRTEXT
 70
1
  9
$LTSCALE
 40
1.0
  9
$ATTMODE
 70
1
  9
$TEXTSIZE
 40
2.5
  9
$TRACEWID
 40
1.0
  9
$TEXTSTYLE
  7
Standard
  9
$CLAYER
  8
0
  9
$CELTYPE
  6
ByLayer
  9
$CECOLOR
 62
256
  9
$CELTSCALE
 40
1.0
  9
$DISPSILH
 70
0
  9
$DIMSCALE
 40
1.0
  9
$DIMASZ
 40
2.5
  9
$DIMEXO
 40
0.625
  9
$DIMDLI
 40
3.75
  9
$DIMRND
 40
0.0
  9
$DIMDLE
 40
0.0
  9
$DIMEXE
 40
1.25
  9
$DIMTP
 40
0.0
  9
$DIMTM
 40
0.0
  9
$DIMTXT
 40
2.5
  9
$DIMCEN
 40
2.5
  9
$DIMTSZ
 40
0.0
  9
$DIMTOL
 70
0
  9
$DIMLIM
 70
0
  9
$DIMTIH
 70
0
  9
$DIMTOH
 70
0
  9
$DIMSE1
 70
0
  9
$DIMSE2
 70
0
  9
$DIMTAD
 70
1
  9
$DIMZIN
 70
8
  9
$DIMBLK
  1

  9
$DIMASO
 70
1
  9
$DIMSHO
 70
1
  9
$DIMPOST
  1

  9
$DIMAPOST
  1

  9
$DIMALT
 70
0
  9
$DIMALTD
 70
3
  9
$DIMALTF
 40
0.03937007874
  9
$DIMLFAC
 40
1.0
  9
$DIMTOFL
 70
1
  9
$DIMTVP
 40
0.0
  9
$DIMTIX
 70
0
  9
$DIMSOXD
 70
0
  9
$DIMSAH
 70
0
  9
$DIMBLK1
  1

  9
$DIMBLK2
  1

  9
$DIMSTYLE
  2
ISO-25
  9
$DIMCLRD
 70
0
  9
$DIMCLRE
 70
0
  9
$DIMCLRT
 70
0
  9
$DIMTFAC
 40
1.0
  9
$DIMGAP
 40
0.625
  9
$DIMJUST
 70
0
  9
$DIMSD1
 70
0
  9
$DIMSD2
 70
0
  9
$DIMTOLJ
 70
0
  9
$DIMTZIN
 70
8
  9
$DIMALTZ
 70
0
  9
$DIMALTTZ
 70
0
  9
$DIMUPT
 70
0
  9
$DIMDEC
 70
2
  9
$DIMTDEC
 70
2
  9
$DIMALTU
 70
2
  9
$DIMALTTD
 70
3
  9
$DIMTXSTY
  7
Standard
  9
$DIMAUNIT
 70
0
  9
$DIMADEC
 70
0
  9
$DIMALTRND
 40
0.0
  9
$DIMAZIN
 70
0
  9
$DIMDSEP
 70
44
  9
$DIMATFIT
 70
3
  9
$DIMFRAC
 70
0
  9
$DIMLDRBLK
  1

  9
$DIMLUNIT
 70
2
  9
$DIMLWD
 70
-2
  9
$DIMLWE
 70
-2
  9
$DIMTMOVE
 70
0
  9
$DIMFXL
 40
1.0
  9
$DIMFXLON
 70
0
  9
$DIMJOGANG
 40
0.785398163397
  9
$DIMTFILL
 70
0
  9
$DIMTFILLCLR
 70
0
  9
$DIMARCSYM
 70
0
  9
$DIMLTYPE
  6

  9
$DIMLTEX1
  6

  9
$DIMLTEX2
  6

  9
$DIMTXTDIRECTION
 70
0
  9
$LUNITS
 70
2
  9
$LUPREC
 70
4
  9
$SKETCHINC
 40
1.0
  9
$FILLETRAD
 40
10.0
  9
$AUNITS
 70
0
  9
$AUPREC
 70
2
  9
$MENU
  1
.
  9
$ELEVATION
 40
0.0
  9
$PELEVATION
 40
0.0
  9
$THICKNESS
 40
0.0
  9
$LIMCHECK
 70
0
  9
$CHAMFERA
 40
0.0
  9
$CHAMFERB
 40
0.0
  9
$CHAMFERC
 40
0.0
  9
$CHAMFERD
 40
0.0
  9
$SKPOLY
 70
0
  9
$TDCREATE
 40
2461202.009178241
  9
$TDUCREATE
 40
2458532.153996898
  9
$TDUPDATE
 40
2461202.009178241
  9
$TDUUPDATE
 40
2458532.1544311
  9
$TDINDWG
 40
0.0
  9
$TDUSRTIMER
 40
0.0
  9
$USRTIMER
 70
1
  9
$ANGBASE
 50
0.0
  9
$ANGDIR
 70
0
  9
$PDMODE
 70
0
  9
$PDSIZE
 40
0.0
  9
$PLINEWID
 40
0.0
  9
$SPLFRAME
 70
0
  9
$SPLINETYPE
 70
6
  9
$SPLINESEGS
 70
8
  9
$HANDSEED
  5
13F
  9
$SURFTAB1
 70
6
  9
$SURFTAB2
 70
6
  9
$SURFTYPE
 70
6
  9
$SURFU
 70
6
  9
$SURFV
 70
6
  9
$UCSBASE
  2

  9
$UCSNAME
  2

  9
$UCSORG
 10
0.0
 20
0.0
 30
0.0
  9
$UCSXDIR
 10
1.0
 20
0.0
 30
0.0
  9
$UCSYDIR
 10
0.0
 20
1.0
 30
0.0
  9
$UCSORTHOREF
  2

  9
$UCSORTHOVIEW
 70
0
  9
$UCSORGTOP
 10
0.0
 20
0.0
 30
0.0
  9
$UCSORGBOTTOM
 10
0.0
 20
0.0
 30
0.0
  9
$UCSORGLEFT
 10
0.0
 20
0.0
 30
0.0
  9
$UCSORGRIGHT
 10
0.0
 20
0.0
 30
0.0
  9
$UCSORGFRONT
 10
0.0
 20
0.0
 30
0.0
  9
$UCSORGBACK
 10
0.0
 20
0.0
 30
0.0
  9
$PUCSBASE
  2

  9
$PUCSNAME
  2

  9
$PUCSORG
 10
0.0
 20
0.0
 30
0.0
  9
$PUCSXDIR
 10
1.0
 20
0.0
 30
0.0
  9
$PUCSYDIR
 10
0.0
 20
1.0
 30
0.0
  9
$PUCSORTHOREF
  2

  9
$PUCSORTHOVIEW
 70
0
  9
$PUCSORGTOP
 10
0.0
 20
0.0
 30
0.0
  9
$PUCSORGBOTTOM
 10
0.0
 20
0.0
 30
0.0
  9
$PUCSORGLEFT
 10
0.0
 20
0.0
 30
0.0
  9
$PUCSORGRIGHT
 10
0.0
 20
0.0
 30
0.0
  9
$PUCSORGFRONT
 10
0.0
 20
0.0
 30
0.0
  9
$PUCSORGBACK
 10
0.0
 20
0.0
 30
0.0
  9
$USERI1
 70
0
  9
$USERI2
 70
0
  9
$USERI3
 70
0
  9
$USERI4
 70
0
  9
$USERI5
 70
0
  9
$USERR1
 40
0.0
  9
$USERR2
 40
0.0
  9
$USERR3
 40
0.0
  9
$USERR4
 40
0.0
  9
$USERR5
 40
0.0
  9
$WORLDVIEW
 70
1
  9
$SHADEDGE
 70
3
  9
$SHADEDIF
 70
70
  9
$TILEMODE
 70
1
  9
$MAXACTVP
 70
64
  9
$PINSBASE
 10
0.0
 20
0.0
 30
0.0
  9
$PLIMCHECK
 70
0
  9
$PEXTMIN
 10
1e+20
 20
1e+20
 30
1e+20
  9
$PEXTMAX
 10
-1e+20
 20
-1e+20
 30
-1e+20
  9
$PLIMMIN
 10
0.0
 20
0.0
  9
$PLIMMAX
 10
420.0
 20
297.0
  9
$UNITMODE
 70
0
  9
$VISRETAIN
 70
1
  9
$PLINEGEN
 70
0
  9
$PSLTSCALE
 70
1
  9
$TREEDEPTH
 70
3020
  9
$CMLSTYLE
  2
Standard
  9
$CMLJUST
 70
0
  9
$CMLSCALE
 40
20.0
  9
$PROXYGRAPHICS
 70
1
  9
$MEASUREMENT
 70
1
  9
$CELWEIGHT
370
-1
  9
$ENDCAPS
280
0
  9
$JOINSTYLE
280
0
  9
$LWDISPLAY
290
0
  9
$INSUNITS
 70
6
  9
$HYPERLINKBASE
  1

  9
$STYLESHEET
  1

  9
$XEDIT
290
1
  9
$CEPSNTYPE
380
0
  9
$PSTYLEMODE
290
1
  9
$FINGERPRINTGUID
  2
{2C22E834-B737-46C0-8A52-0716B3568A7E}
  9
$VERSIONGUID
  2
{B8DCA8F6-4AD8-4892-8CD1-7EDCC076B4F9}
  9
$EXTNAMES
290
1
  9
$PSVPSCALE
 40
0.0
  9
$OLESTARTUP
290
0
  9
$SORTENTS
280
127
  9
$INDEXCTL
280
0
  9
$HIDETEXT
280
1
  9
$XCLIPFRAME
280
1
  9
$HALOGAP
280
0
  9
$OBSCOLOR
 70
257
  9
$OBSLTYPE
280
0
  9
$INTERSECTIONDISPLAY
280
0
  9
$INTERSECTIONCOLOR
 70
257
  9
$DIMASSOC
280
2
  9
$PROJECTNAME
  1

  9
$CAMERADISPLAY
290
0
  9
$LENSLENGTH
 40
50.0
  9
$CAMERAHEIGHT
 40
0.0
  9
$STEPSPERSEC
 40
24.0
  9
$STEPSIZE
 40
100.0
  9
$3DDWFPREC
 40
2.0
  9
$PSOLWIDTH
 40
0.005
  9
$PSOLHEIGHT
 40
0.08
  9
$LOFTANG1
 40
1.570796326795
  9
$LOFTANG2
 40
1.570796326795
  9
$LOFTMAG1
 40
0.0
  9
$LOFTMAG2
 40
0.0
  9
$LOFTPARAM
 70
7
  9
$LOFTNORMALS
280
1
  9
$LATITUDE
 40
37.795
  9
$LONGITUDE
 40
-122.394
  9
$NORTHDIRECTION
 40
0.0
  9
$TIMEZONE
 70
-8000
  9
$LIGHTGLYPHDISPLAY
280
1
  9
$TILEMODELIGHTSYNCH
280
1
  9
$CMATERIAL
347
20
  9
$SOLIDHIST
280
0
  9
$SHOWHIST
280
1
  9
$DWFFRAME
280
2
  9
$DGNFRAME
280
2
  9
$REALWORLDSCALE
290
1
  9
$INTERFERECOLOR
 62
256
  9
$CSHADOW
280
0
  9
$SHADOWPLANELOCATION
 40
0.0
  0
ENDSEC
  0
SECTION
  2
CLASSES
  0
CLASS
  1
ACDBDICTIONARYWDFLT
  2
AcDbDictionaryWithDefault
  3
ObjectDBX Classes
 90
0
 91
0
280
0
281
0
  0
CLASS
  1
SUN
  2
AcDbSun
  3
SCENEOE
 90
1153
 91
0
280
0
281
0
  0
CLASS
  1
VISUALSTYLE
  2
AcDbVisualStyle
  3
ObjectDBX Classes
 90
4095
 91
0
280
0
281
0
  0
CLASS
  1
MATERIAL
  2
AcDbMaterial
  3
ObjectDBX Classes
 90
1153
 91
0
280
0
281
0
  0
CLASS
  1
SCALE
  2
AcDbScale
  3
ObjectDBX Classes
 90
1153
 91
0
280
0
281
0
  0
CLASS
  1
TABLESTYLE
  2
AcDbTableStyle
  3
ObjectDBX Classes
 90
4095
 91
0
280
0
281
0
  0
CLASS
  1
MLEADERSTYLE
  2
AcDbMLeaderStyle
  3
ACDB_MLEADERSTYLE_CLASS
 90
4095
 91
0
280
0
281
0
  0
CLASS
  1
DICTIONARYVAR
  2
AcDbDictionaryVar
  3
ObjectDBX Classes
 90
0
 91
0
280
0
281
0
  0
CLASS
  1
CELLSTYLEMAP
  2
AcDbCellStyleMap
  3
ObjectDBX Classes
 90
1152
 91
0
280
0
281
0
  0
CLASS
  1
MENTALRAYRENDERSETTINGS
  2
AcDbMentalRayRenderSettings
  3
SCENEOE
 90
1024
 91
0
280
0
281
0
  0
CLASS
  1
ACDBDETAILVIEWSTYLE
  2
AcDbDetailViewStyle
  3
ObjectDBX Classes
 90
1025
 91
0
280
0
281
0
  0
CLASS
  1
ACDBSECTIONVIEWSTYLE
  2
AcDbSectionViewStyle
  3
ObjectDBX Classes
 90
1025
 91
0
280
0
281
0
  0
CLASS
  1
RASTERVARIABLES
  2
AcDbRasterVariables
  3
ISM
 90
0
 91
0
280
0
281
0
  0
CLASS
  1
ACDBPLACEHOLDER
  2
AcDbPlaceHolder
  3
ObjectDBX Classes
 90
0
 91
0
280
0
281
0
  0
CLASS
  1
LAYOUT
  2
AcDbLayout
  3
ObjectDBX Classes
 90
0
 91
0
280
0
281
0
  0
ENDSEC
  0
SECTION
  2
TABLES
  0
TABLE
  2
VPORT
  5
8
330
0
100
AcDbSymbolTable
 70
1
  0
VPORT
  5
23
330
8
100
AcDbSymbolTableRecord
100
AcDbViewportTableRecord
  2
*Active
 70
0
 10
0.0
 20
0.0
 11
1.0
 21
1.0
 12
0.0
 22
0.0
 13
0.0
 23
0.0
 14
0.5
 24
0.5
 15
0.5
 25
0.5
 16
0.0
 26
0.0
 36
1.0
 17
0.0
 27
0.0
 37
0.0
 40
1000.0
 41
1.34
 42
50.0
 43
0.0
 44
0.0
 50
0.0
 51
0.0
 71
0
 72
1000
 73
1
 74
3
 75
0
 76
0
 77
0
 78
0
281
0
 65
0
146
0.0
  0
ENDTAB
  0
TABLE
  2
LTYPE
  5
2
330
0
100
AcDbSymbolTable
 70
3
  0
LTYPE
  5
24
330
2
100
AcDbSymbolTableRecord
100
AcDbLinetypeTableRecord
  2
ByBlock
 70
0
  3

 72
65
 73
0
 40
0.0
  0
LTYPE
  5
25
330
2
100
AcDbSymbolTableRecord
100
AcDbLinetypeTableRecord
  2
ByLayer
 70
0
  3

 72
65
 73
0
 40
0.0
  0
LTYPE
  5
26
330
2
100
AcDbSymbolTableRecord
100
AcDbLinetypeTableRecord
  2
Continuous
 70
0
  3

 72
65
 73
0
 40
0.0
  0
ENDTAB
  0
TABLE
  2
LAYER
  5
1
330
0
100
AcDbSymbolTable
 70
13
  0
LAYER
  5
27
330
1
100
AcDbSymbolTableRecord
100
AcDbLayerTableRecord
  2
0
 70
0
 62
7
  6
Continuous
370
-3
390
13
347
21
  0
LAYER
  5
28
330
1
100
AcDbSymbolTableRecord
100
AcDbLayerTableRecord
  2
Defpoints
 70
0
 62
7
  6
Continuous
290
0
370
-3
390
13
347
21
  0
LAYER
  5
2F
330
1
100
AcDbSymbolTableRecord
100
AcDbLayerTableRecord
  2
TENSOR
 70
0
 62
7
  6
Continuous
370
-3
390
13
347
21
  0
LAYER
  5
30
330
1
100
AcDbSymbolTableRecord
100
AcDbLayerTableRecord
  2
SARR_3.5x7
 70
0
 62
7
  6
Continuous
370
-3
390
13
347
21
  0
LAYER
  5
31
330
1
100
AcDbSymbolTableRecord
100
AcDbLayerTableRecord
  2
NOMENCLATURA
 70
0
 62
7
  6
Continuous
370
-3
390
13
347
21
  0
LAYER
  5
32
330
1
100
AcDbSymbolTableRecord
100
AcDbLayerTableRecord
  2
SCO-___-LAJ
 70
0
 62
7
  6
Continuous
370
-3
390
13
347
21
  0
LAYER
  5
33
330
1
100
AcDbSymbolTableRecord
100
AcDbLayerTableRecord
  2
SARR_2.2x7
 70
0
 62
7
  6
Continuous
370
-3
390
13
347
21
  0
LAYER
  5
34
330
1
100
AcDbSymbolTableRecord
100
AcDbLayerTableRecord
  2
COTA
 70
0
 62
7
  6
Continuous
370
-3
390
13
347
21
  0
LAYER
  5
35
330
1
100
AcDbSymbolTableRecord
100
AcDbLayerTableRecord
  2
CONCRETO
 70
0
 62
7
  6
Continuous
370
-3
390
13
347
21
  0
LAYER
  5
36
330
1
100
AcDbSymbolTableRecord
100
AcDbLayerTableRecord
  2
SARR_EDITAR
 70
0
 62
7
  6
Continuous
370
-3
390
13
347
21
  0
LAYER
  5
37
330
1
100
AcDbSymbolTableRecord
100
AcDbLayerTableRecord
  2
barrote
 70
0
 62
7
  6
Continuous
370
-3
390
13
347
21
  0
LAYER
  5
38
330
1
100
AcDbSymbolTableRecord
100
AcDbLayerTableRecord
  2
Painéis
 70
0
 62
7
  6
Continuous
370
-3
390
13
347
21
  0
LAYER
  5
39
330
1
100
AcDbSymbolTableRecord
100
AcDbLayerTableRecord
  2
Madeira
 70
0
 62
7
  6
Continuous
370
-3
390
13
347
21
  0
ENDTAB
  0
TABLE
  2
STYLE
  5
5
330
0
100
AcDbSymbolTable
 70
1
  0
STYLE
  5
29
330
5
100
AcDbSymbolTableRecord
100
AcDbTextStyleTableRecord
  2
Standard
 70
0
 40
0.0
 41
1.0
 50
0.0
 71
0
 42
2.5
  3
txt
  4

  0
ENDTAB
  0
TABLE
  2
VIEW
  5
7
330
0
100
AcDbSymbolTable
 70
0
  0
ENDTAB
  0
TABLE
  2
UCS
  5
6
330
0
100
AcDbSymbolTable
 70
0
  0
ENDTAB
  0
TABLE
  2
APPID
  5
3
330
0
100
AcDbSymbolTable
 70
3
  0
APPID
  5
2A
330
3
100
AcDbSymbolTableRecord
100
AcDbRegAppTableRecord
  2
ACAD
 70
0
  0
APPID
  5
13C
330
3
100
AcDbSymbolTableRecord
100
AcDbRegAppTableRecord
  2
HATCHBACKGROUNDCOLOR
 70
0
  0
APPID
  5
13D
330
3
100
AcDbSymbolTableRecord
100
AcDbRegAppTableRecord
  2
EZDXF
 70
0
  0
ENDTAB
  0
TABLE
  2
DIMSTYLE
  5
4
330
0
100
AcDbSymbolTable
 70
1
100
AcDbDimStyleTable
  0
DIMSTYLE
105
2B
330
4
100
AcDbSymbolTableRecord
100
AcDbDimStyleTableRecord
  2
Standard
 70
0
 40
1.0
 41
2.5
 42
0.625
 43
3.75
 44
1.25
 45
0.0
 46
0.0
 47
0.0
 48
0.0
 49
2.5
140
2.5
141
2.5
142
0.0
143
0.03937007874
144
1.0
145
0.0
146
1.0
147
0.625
148
0.0
 69
0
 70
0
 71
0
 72
0
 73
0
 74
0
 75
0
 76
0
 77
1
 78
8
 79
3
170
0
171
3
172
1
173
0
174
0
175
0
176
0
177
0
178
0
179
2
271
2
272
2
273
2
274
3
275
0
276
0
277
2
278
44
279
0
280
0
281
0
282
0
283
0
284
8
285
0
286
0
288
0
289
3
290
0
371
-2
372
-2
  0
ENDTAB
  0
TABLE
  2
BLOCK_RECORD
  5
9
330
0
100
AcDbSymbolTable
 70
2
  0
BLOCK_RECORD
  5
17
330
9
100
AcDbSymbolTableRecord
100
AcDbBlockTableRecord
  2
*Model_Space
340
1A
 70
0
280
1
281
0
  0
BLOCK_RECORD
  5
1B
330
9
100
AcDbSymbolTableRecord
100
AcDbBlockTableRecord
  2
*Paper_Space
340
1E
 70
0
280
1
281
0
  0
ENDTAB
  0
ENDSEC
  0
SECTION
  2
BLOCKS
  0
BLOCK
  5
18
330
17
100
AcDbEntity
  8
0
100
AcDbBlockBegin
  2
*Model_Space
 70
0
 10
0.0
 20
0.0
 30
0.0
  3
*Model_Space
  1

  0
ENDBLK
  5
19
330
17
100
AcDbEntity
  8
0
100
AcDbBlockEnd
  0
BLOCK
  5
1C
330
1B
100
AcDbEntity
  8
0
100
AcDbBlockBegin
  2
*Paper_Space
 70
0
 10
0.0
 20
0.0
 30
0.0
  3
*Paper_Space
  1

  0
ENDBLK
  5
1D
330
1B
100
AcDbEntity
  8
0
100
AcDbBlockEnd
  0
ENDSEC
  0
SECTION
  2
ENTITIES
  0
LINE
  5
3A
330
17
100
AcDbEntity
  8
Painéis
 62
7
370
25
100
AcDbLine
 10
2885.164215340408
 20
7545.29470253254
 30
0.0
 11
3084.164215340408
 21
7545.294702532565
 31
0.0
  0
LINE
  5
3B
330
17
100
AcDbEntity
  8
SARR_2.2x7
 62
7
370
25
100
AcDbLine
 10
2902.164215340406
 20
7787.200370410094
 30
0.0
 11
3009.164215340407
 21
7787.200370410108
 31
0.0
  0
LINE
  5
3C
330
17
100
AcDbEntity
  8
SARR_2.2x7
 62
7
370
25
100
AcDbLine
 10
3009.164215340407
 20
7787.200370410108
 30
0.0
 11
3069.164215340411
 21
7787.20037041012
 31
0.0
  0
LINE
  5
3D
330
17
100
AcDbEntity
  8
SARR_2.2x7
 62
7
370
25
100
AcDbLine
 10
2894.164215340408
 20
7745.40037041009
 30
0.0
 11
2894.164215340405
 21
7789.400370410089
 31
0.0
  0
LINE
  5
3E
330
17
100
AcDbEntity
  8
SARR_3.5x7
 62
7
370
25
100
AcDbLine
 10
3012.664215340436
 20
7787.200370410151
 30
0.0
 11
3012.664215340466
 21
7745.400370410104
 31
0.0
  0
LINE
  5
3F
330
17
100
AcDbEntity
  8
SARR_3.5x7
 62
7
370
25
100
AcDbLine
 10
3005.664215340348
 20
7787.200370410208
 30
0.0
 11
3005.664215340321
 21
7745.400370410104
 31
0.0
  0
LINE
  5
40
330
17
100
AcDbEntity
  8
SARR_3.5x7
 62
7
370
25
100
AcDbLine
 10
2902.164215340405
 20
7789.400370410104
 30
0.0
 11
2902.164215340409
 21
7745.40037041009
 31
0.0
  0
LINE
  5
41
330
17
100
AcDbEntity
  8
SARR_3.5x7
 62
7
370
25
100
AcDbLine
 10
2905.664215340406
 20
7787.200370410108
 30
0.0
 11
2905.664215340408
 21
7745.40037041009
 31
0.0
  0
LINE
  5
42
330
17
100
AcDbEntity
  8
SARR_3.5x7
 62
7
370
25
100
AcDbLine
 10
3009.164215340407
 20
7787.200370410108
 30
0.0
 11
3009.164215340408
 21
7745.400370410118
 31
0.0
  0
LINE
  5
43
330
17
100
AcDbEntity
  8
SARR_3.5x7
 62
7
370
25
100
AcDbLine
 10
3005.664215340321
 20
7745.400370410104
 30
0.0
 11
3009.164215340408
 21
7745.400370410104
 31
0.0
  0
LINE
  5
44
330
17
100
AcDbEntity
  8
SARR_3.5x7
 62
7
370
25
100
AcDbLine
 10
3009.164215340408
 20
7745.400370410104
 30
0.0
 11
3012.664215340466
 21
7745.400370410104
 31
0.0
  0
LINE
  5
45
330
17
100
AcDbEntity
  8
SARR_3.5x7
 62
7
370
25
100
AcDbLine
 10
2902.164215340409
 20
7745.40037041009
 30
0.0
 11
2905.664215340408
 21
7745.40037041009
 31
0.0
  0
LINE
  5
46
330
17
100
AcDbEntity
  8
Painéis
 62
7
370
25
100
AcDbLine
 10
2885.164215340403
 20
7789.400370410089
 30
0.0
 11
3084.164215340404
 21
7789.400370410115
 31
0.0
  0
LINE
  5
47
330
17
100
AcDbEntity
  8
Painéis
 62
7
370
25
100
AcDbLine
 10
2885.164215340408
 20
7745.40037041009
 30
0.0
 11
3084.164215340408
 21
7745.400370410115
 31
0.0
  0
LINE
  5
48
330
17
100
AcDbEntity
  8
Painéis
 62
7
370
25
100
AcDbLine
 10
3009.164215340408
 20
7745.400370410104
 30
0.0
 11
3009.164215340405
 21
7789.400370410104
 31
0.0
  0
LINE
  5
49
330
17
100
AcDbEntity
  8
Painéis
 62
7
370
25
100
AcDbLine
 10
3084.164215340408
 20
7745.400370410115
 30
0.0
 11
3084.164215340404
 21
7789.400370410115
 31
0.0
  0
LINE
  5
4A
330
17
100
AcDbEntity
  8
Painéis
 62
7
370
25
100
AcDbLine
 10
2885.164215340408
 20
7745.40037041009
 30
0.0
 11
2885.164215340405
 21
7789.400370410089
 31
0.0
  0
LINE
  5
4B
330
17
100
AcDbEntity
  8
0
 62
7
370
25
100
AcDbLine
 10
3045.329450260926
 20
7956.614982272331
 30
0.0
 11
3045.329450260926
 21
7944.61498227233
 31
0.0
  0
LINE
  5
4C
330
17
100
AcDbEntity
  8
0
 62
7
370
25
100
AcDbLine
 10
2919.329450260897
 20
7953.614982272345
 30
0.0
 11
2919.329450260897
 21
7947.614982272344
 31
0.0
  0
LINE
  5
4D
330
17
100
AcDbEntity
  8
0
 62
7
370
25
100
AcDbLine
 10
2921.329450260897
 20
7956.614982272345
 30
0.0
 11
2921.329450260897
 21
7944.614982272344
 31
0.0
  0
LINE
  5
4E
330
17
100
AcDbEntity
  8
0
 62
7
370
25
100
AcDbLine
 10
2921.329450260897
 20
7947.614982272344
 30
0.0
 11
2919.329450260897
 21
7947.614982272344
 31
0.0
  0
LINE
  5
4F
330
17
100
AcDbEntity
  8
0
 62
7
370
25
100
AcDbLine
 10
3045.329450260926
 20
7944.61498227233
 30
0.0
 11
3015.329450260926
 21
7944.61498227233
 31
0.0
  0
LINE
  5
50
330
17
100
AcDbEntity
  8
0
 62
7
370
25
100
AcDbLine
 10
2951.329450260897
 20
7949.614982272345
 30
0.0
 11
2921.329450260897
 21
7949.614982272345
 31
0.0
  0
LINE
  5
51
330
17
100
AcDbEntity
  8
0
 62
7
370
25
100
AcDbLine
 10
2951.329450260897
 20
7951.614982272345
 30
0.0
 11
2921.329450260897
 21
7951.614982272345
 31
0.0
  0
LINE
  5
52
330
17
100
AcDbEntity
  8
TENSOR
 62
7
370
25
100
AcDbLine
 10
2916.329450260897
 20
7950.61498227233
 30
0.0
 11
3050.632744439024
 21
7950.61498227233
 31
0.0
  0
LINE
  5
53
330
17
100
AcDbEntity
  8
0
 62
7
370
25
100
AcDbLine
 10
2921.329450260897
 20
7953.614982272345
 30
0.0
 11
2919.329450260897
 21
7953.614982272345
 31
0.0
  0
LINE
  5
54
330
17
100
AcDbEntity
  8
0
 62
7
370
25
100
AcDbLine
 10
3015.329450260926
 20
7949.614982272329
 30
0.0
 11
3045.329450260926
 21
7949.614982272329
 31
0.0
  0
LINE
  5
55
330
17
100
AcDbEntity
  8
0
 62
7
370
25
100
AcDbLine
 10
3015.329450260926
 20
7951.614982272331
 30
0.0
 11
3045.329450260926
 21
7951.614982272331
 31
0.0
  0
LINE
  5
56
330
17
100
AcDbEntity
  8
0
 62
7
370
25
100
AcDbLine
 10
3045.329450260926
 20
7956.614982272331
 30
0.0
 11
3015.329450260926
 21
7956.614982272331
 31
0.0
  0
LINE
  5
57
330
17
100
AcDbEntity
  8
0
 62
7
370
25
100
AcDbLine
 10
2921.329450260897
 20
7944.614982272344
 30
0.0
 11
2951.329450260897
 21
7944.614982272344
 31
0.0
  0
LINE
  5
58
330
17
100
AcDbEntity
  8
0
 62
7
370
25
100
AcDbLine
 10
2921.329450260897
 20
7956.614982272345
 30
0.0
 11
2951.329450260897
 21
7956.614982272345
 31
0.0
  0
LINE
  5
59
330
17
100
AcDbEntity
  8
0
 62
7
370
25
100
AcDbLine
 10
3047.329450260926
 20
7953.61498227233
 30
0.0
 11
3047.329450260926
 21
7947.61498227233
 31
0.0
  0
LINE
  5
5A
330
17
100
AcDbEntity
  8
0
 62
7
370
25
100
AcDbLine
 10
3045.329450260926
 20
7947.61498227233
 30
0.0
 11
3047.329450260926
 21
7947.61498227233
 31
0.0
  0
LINE
  5
5B
330
17
100
AcDbEntity
  8
0
 62
7
370
25
100
AcDbLine
 10
3047.329450260926
 20
7953.61498227233
 30
0.0
 11
3045.329450260926
 21
7953.61498227233
 31
0.0
  0
LINE
  5
5C
330
17
100
AcDbEntity
  8
SARR_2.2x7
 62
7
370
25
100
AcDbLine
 10
3077.164215340408
 20
7745.40037041009
 30
0.0
 11
3077.164215340412
 21
7789.400370410089
 31
0.0
  0
LINE
  5
5D
330
17
100
AcDbEntity
  8
SARR_3.5x7
 62
7
370
25
100
AcDbLine
 10
3069.164215340412
 20
7789.400370410104
 30
0.0
 11
3069.164215340408
 21
7745.40037041009
 31
0.0
  0
LINE
  5
5E
330
17
100
AcDbEntity
  8
SARR_3.5x7
 62
7
370
25
100
AcDbLine
 10
3065.66421534041
 20
7787.200370410108
 30
0.0
 11
3065.664215340409
 21
7745.40037041009
 31
0.0
  0
LINE
  5
5F
330
17
100
AcDbEntity
  8
COTA
 62
7
370
25
100
AcDbLine
 10
2885.164215340403
 20
7589.29470253254
 30
0.0
 11
3084.164215340404
 21
7589.294702532566
 31
0.0
  0
LINE
  5
60
330
17
100
AcDbEntity
  8
SARR_2.2x7
 62
7
370
25
100
AcDbLine
 10
2902.164215340406
 20
7573.094702532543
 30
0.0
 11
3009.164215340407
 21
7573.094702532557
 31
0.0
  0
LINE
  5
61
330
17
100
AcDbEntity
  8
SARR_2.2x7
 62
7
370
25
100
AcDbLine
 10
3009.164215340407
 20
7573.094702532557
 30
0.0
 11
3069.164215340411
 21
7573.09470253257
 31
0.0
  0
LINE
  5
62
330
17
100
AcDbEntity
  8
COTA
 62
7
370
25
100
AcDbLine
 10
2885.164215340403
 20
7575.29470253254
 30
0.0
 11
2885.164215340403
 21
7589.29470253254
 31
0.0
  0
LINE
  5
63
330
17
100
AcDbEntity
  8
SARR_2.2x7
 62
7
370
25
100
AcDbLine
 10
2894.164215340408
 20
7545.29470253254
 30
0.0
 11
2894.164215340405
 21
7575.29470253254
 31
0.0
  0
LINE
  5
64
330
17
100
AcDbEntity
  8
COTA
 62
7
370
25
100
AcDbLine
 10
3084.164215340404
 20
7575.294702532565
 30
0.0
 11
3084.164215340404
 21
7589.294702532566
 31
0.0
  0
LINE
  5
65
330
17
100
AcDbEntity
  8
SARR_3.5x7
 62
7
370
25
100
AcDbLine
 10
3012.664215340436
 20
7573.094702532602
 30
0.0
 11
3012.664215340466
 21
7545.294702532554
 31
0.0
  0
LINE
  5
66
330
17
100
AcDbEntity
  8
SARR_3.5x7
 62
7
370
25
100
AcDbLine
 10
3005.664215340348
 20
7573.09470253266
 30
0.0
 11
3005.664215340321
 21
7545.294702532554
 31
0.0
  0
LINE
  5
67
330
17
100
AcDbEntity
  8
SARR_3.5x7
 62
7
370
25
100
AcDbLine
 10
2902.164215340405
 20
7575.294702532556
 30
0.0
 11
2902.164215340409
 21
7545.29470253254
 31
0.0
  0
LINE
  5
68
330
17
100
AcDbEntity
  8
SARR_3.5x7
 62
7
370
25
100
AcDbLine
 10
2905.664215340406
 20
7573.094702532557
 30
0.0
 11
2905.664215340408
 21
7545.29470253254
 31
0.0
  0
LINE
  5
69
330
17
100
AcDbEntity
  8
SARR_3.5x7
 62
7
370
25
100
AcDbLine
 10
3009.164215340407
 20
7573.094702532557
 30
0.0
 11
3009.164215340408
 21
7545.29470253257
 31
0.0
  0
LINE
  5
6A
330
17
100
AcDbEntity
  8
SARR_3.5x7
 62
7
370
25
100
AcDbLine
 10
3005.664215340321
 20
7545.294702532554
 30
0.0
 11
3009.164215340408
 21
7545.294702532554
 31
0.0
  0
LINE
  5
6B
330
17
100
AcDbEntity
  8
SARR_3.5x7
 62
7
370
25
100
AcDbLine
 10
3009.164215340408
 20
7545.294702532554
 30
0.0
 11
3012.664215340466
 21
7545.294702532554
 31
0.0
  0
LINE
  5
6C
330
17
100
AcDbEntity
  8
SARR_3.5x7
 62
7
370
25
100
AcDbLine
 10
2902.164215340409
 20
7545.29470253254
 30
0.0
 11
2905.664215340408
 21
7545.29470253254
 31
0.0
  0
LINE
  5
6D
330
17
100
AcDbEntity
  8
Painéis
 62
7
370
25
100
AcDbLine
 10
2885.164215340403
 20
7575.29470253254
 30
0.0
 11
3084.164215340404
 21
7575.294702532565
 31
0.0
  0
LINE
  5
6E
330
17
100
AcDbEntity
  8
Painéis
 62
7
370
25
100
AcDbLine
 10
3009.164215340408
 20
7545.294702532554
 30
0.0
 11
3009.164215340405
 21
7575.294702532556
 31
0.0
  0
LINE
  5
6F
330
17
100
AcDbEntity
  8
Painéis
 62
7
370
25
100
AcDbLine
 10
3084.164215340408
 20
7545.294702532565
 30
0.0
 11
3084.164215340404
 21
7575.294702532565
 31
0.0
  0
LINE
  5
70
330
17
100
AcDbEntity
  8
Painéis
 62
7
370
25
100
AcDbLine
 10
2885.164215340408
 20
7545.29470253254
 30
0.0
 11
2885.164215340405
 21
7575.29470253254
 31
0.0
  0
LINE
  5
71
330
17
100
AcDbEntity
  8
SARR_2.2x7
 62
7
370
25
100
AcDbLine
 10
3077.164215340408
 20
7545.29470253254
 30
0.0
 11
3077.164215340412
 21
7575.29470253254
 31
0.0
  0
LINE
  5
72
330
17
100
AcDbEntity
  8
SARR_3.5x7
 62
7
370
25
100
AcDbLine
 10
3069.164215340412
 20
7575.294702532556
 30
0.0
 11
3069.164215340408
 21
7545.29470253254
 31
0.0
  0
LINE
  5
73
330
17
100
AcDbEntity
  8
SARR_3.5x7
 62
7
370
25
100
AcDbLine
 10
3065.66421534041
 20
7573.094702532557
 30
0.0
 11
3065.664215340409
 21
7545.29470253254
 31
0.0
  0
LINE
  5
74
330
17
100
AcDbEntity
  8
Painéis
 62
7
370
25
100
AcDbLine
 10
2887.164215340408
 20
7745.40037041009
 30
0.0
 11
2887.164215340405
 21
7789.400370410089
 31
0.0
  0
LINE
  5
75
330
17
100
AcDbEntity
  8
NOMENCLATURA
 62
7
370
25
100
AcDbLine
 10
2816.75955004485
 20
7675.079465215349
 30
0.0
 11
2874.966213985155
 21
7675.079465215349
 31
0.0
  0
LINE
  5
76
330
17
100
AcDbEntity
  8
NOMENCLATURA
 62
7
370
25
100
AcDbLine
 10
2874.966213985155
 20
7675.079465215349
 30
0.0
 11
2874.966213985155
 21
7725.466201046689
 31
0.0
  0
LINE
  5
77
330
17
100
AcDbEntity
  8
SARR_3.5x7
 62
7
370
25
100
AcDbLine
 10
3042.91421534042
 20
7787.200370410118
 30
0.0
 11
3042.914215340386
 21
7745.400370410108
 31
0.0
  0
LINE
  5
78
330
17
100
AcDbEntity
  8
SARR_3.5x7
 62
7
370
25
100
AcDbLine
 10
3039.414215340423
 20
7787.20037041016
 30
0.0
 11
3039.414215340412
 21
7745.400370410109
 31
0.0
  0
LINE
  5
79
330
17
100
AcDbEntity
  8
SARR_3.5x7
 62
7
370
25
100
AcDbLine
 10
3041.91421534042
 20
7573.094702532569
 30
0.0
 11
3041.914215340398
 21
7545.29470253256
 31
0.0
  0
LINE
  5
7A
330
17
100
AcDbEntity
  8
SARR_3.5x7
 62
7
370
25
100
AcDbLine
 10
3038.414215340423
 20
7573.09470253261
 30
0.0
 11
3038.414215340416
 21
7545.29470253256
 31
0.0
  0
LINE
  5
7B
330
17
100
AcDbEntity
  8
0
 62
7
370
25
100
AcDbLine
 10
3266.372676496243
 20
7946.614982272322
 30
0.0
 11
3266.372676496243
 21
7934.614982272323
 31
0.0
  0
LINE
  5
7C
330
17
100
AcDbEntity
  8
0
 62
7
370
25
100
AcDbLine
 10
3402.372676496272
 20
7943.614982272338
 30
0.0
 11
3402.372676496272
 21
7937.614982272338
 31
0.0
  0
LINE
  5
7D
330
17
100
AcDbEntity
  8
0
 62
7
370
25
100
AcDbLine
 10
3400.372676496272
 20
7946.614982272338
 30
0.0
 11
3400.372676496272
 21
7934.614982272337
 31
0.0
  0
LINE
  5
7E
330
17
100
AcDbEntity
  8
0
 62
7
370
25
100
AcDbLine
 10
3400.372676496272
 20
7937.614982272338
 30
0.0
 11
3402.372676496272
 21
7937.614982272338
 31
0.0
  0
LINE
  5
7F
330
17
100
AcDbEntity
  8
0
 62
7
370
25
100
AcDbLine
 10
3266.372676496243
 20
7934.614982272323
 30
0.0
 11
3296.372676496243
 21
7934.614982272323
 31
0.0
  0
LINE
  5
80
330
17
100
AcDbEntity
  8
0
 62
7
370
25
100
AcDbLine
 10
3370.372676496272
 20
7939.614982272337
 30
0.0
 11
3400.372676496272
 21
7939.614982272337
 31
0.0
  0
LINE
  5
81
330
17
100
AcDbEntity
  8
0
 62
7
370
25
100
AcDbLine
 10
3370.372676496272
 20
7941.614982272337
 30
0.0
 11
3400.372676496272
 21
7941.614982272337
 31
0.0
  0
LINE
  5
82
330
17
100
AcDbEntity
  8
TENSOR
 62
7
370
25
100
AcDbLine
 10
3405.372676496272
 20
7940.614982272323
 30
0.0
 11
3261.069382318145
 21
7940.614982272323
 31
0.0
  0
LINE
  5
83
330
17
100
AcDbEntity
  8
0
 62
7
370
25
100
AcDbLine
 10
3400.372676496272
 20
7943.614982272338
 30
0.0
 11
3402.372676496272
 21
7943.614982272338
 31
0.0
  0
LINE
  5
84
330
17
100
AcDbEntity
  8
0
 62
7
370
25
100
AcDbLine
 10
3296.372676496243
 20
7939.614982272323
 30
0.0
 11
3266.372676496243
 21
7939.614982272323
 31
0.0
  0
LINE
  5
85
330
17
100
AcDbEntity
  8
0
 62
7
370
25
100
AcDbLine
 10
3296.372676496243
 20
7941.614982272323
 30
0.0
 11
3266.372676496243
 21
7941.614982272323
 31
0.0
  0
LINE
  5
86
330
17
100
AcDbEntity
  8
0
 62
7
370
25
100
AcDbLine
 10
3266.372676496243
 20
7946.614982272322
 30
0.0
 11
3296.372676496243
 21
7946.614982272322
 31
0.0
  0
LINE
  5
87
330
17
100
AcDbEntity
  8
0
 62
7
370
25
100
AcDbLine
 10
3400.372676496272
 20
7934.614982272337
 30
0.0
 11
3370.372676496272
 21
7934.614982272337
 31
0.0
  0
LINE
  5
88
330
17
100
AcDbEntity
  8
0
 62
7
370
25
100
AcDbLine
 10
3400.372676496272
 20
7946.614982272338
 30
0.0
 11
3370.372676496272
 21
7946.614982272338
 31
0.0
  0
LINE
  5
89
330
17
100
AcDbEntity
  8
0
 62
7
370
25
100
AcDbLine
 10
3264.372676496243
 20
7943.614982272322
 30
0.0
 11
3264.372676496243
 21
7937.614982272323
 31
0.0
  0
LINE
  5
8A
330
17
100
AcDbEntity
  8
0
 62
7
370
25
100
AcDbLine
 10
3266.372676496243
 20
7937.614982272323
 30
0.0
 11
3264.372676496243
 21
7937.614982272323
 31
0.0
  0
LINE
  5
8B
330
17
100
AcDbEntity
  8
0
 62
7
370
25
100
AcDbLine
 10
3264.372676496243
 20
7943.614982272322
 30
0.0
 11
3266.372676496243
 21
7943.614982272322
 31
0.0
  0
LINE
  5
8C
330
17
100
AcDbEntity
  8
SARR_2.2x7
 62
7
370
25
100
AcDbLine
 10
3231.473959329013
 20
7742.325047753364
 30
0.0
 11
3277.473959329012
 21
7742.325047753364
 31
0.0
  0
LINE
  5
8D
330
17
100
AcDbEntity
  8
SARR_2.2x7
 62
7
370
25
100
AcDbLine
 10
3277.473959329012
 20
7742.325047753364
 30
0.0
 11
3384.473959329012
 21
7742.325047753364
 31
0.0
  0
LINE
  5
8E
330
17
100
AcDbEntity
  8
SARR_2.2x7
 62
7
370
25
100
AcDbLine
 10
3223.473959329012
 20
7714.525047753362
 30
0.0
 11
3223.473959329012
 21
7744.525047753362
 31
0.0
  0
LINE
  5
8F
330
17
100
AcDbEntity
  8
SARR_2.2x7
 62
7
370
25
100
AcDbLine
 10
3392.473959329013
 20
7714.525047753362
 30
0.0
 11
3392.473959329013
 21
7744.525047753362
 31
0.0
  0
LINE
  5
90
330
17
100
AcDbEntity
  8
SARR_3.5x7
 62
7
370
25
100
AcDbLine
 10
3384.473959329012
 20
7744.525047753405
 30
0.0
 11
3384.473959328925
 21
7714.525047753362
 31
0.0
  0
LINE
  5
91
330
17
100
AcDbEntity
  8
SARR_3.5x7
 62
7
370
25
100
AcDbLine
 10
3380.973959329013
 20
7742.325047753408
 30
0.0
 11
3380.973959328983
 21
7714.525047753362
 31
0.0
  0
LINE
  5
92
330
17
100
AcDbEntity
  8
SARR_3.5x7
 62
7
370
25
100
AcDbLine
 10
3280.973959329042
 20
7742.325047753408
 30
0.0
 11
3280.973959329071
 21
7714.525047753362
 31
0.0
  0
LINE
  5
93
330
17
100
AcDbEntity
  8
SARR_3.5x7
 62
7
370
25
100
AcDbLine
 10
3273.973959328954
 20
7742.325047753467
 30
0.0
 11
3273.973959328925
 21
7714.525047753362
 31
0.0
  0
LINE
  5
94
330
17
100
AcDbEntity
  8
SARR_3.5x7
 62
7
370
25
100
AcDbLine
 10
3231.473959329013
 20
7744.525047753376
 30
0.0
 11
3231.473959329013
 21
7714.525047753362
 31
0.0
  0
LINE
  5
95
330
17
100
AcDbEntity
  8
SARR_3.5x7
 62
7
370
25
100
AcDbLine
 10
3234.973959329013
 20
7742.32504775338
 30
0.0
 11
3234.973959329013
 21
7714.525047753362
 31
0.0
  0
LINE
  5
96
330
17
100
AcDbEntity
  8
SARR_3.5x7
 62
7
370
25
100
AcDbLine
 10
3277.473959329012
 20
7742.325047753364
 30
0.0
 11
3277.473959329012
 21
7714.525047753376
 31
0.0
  0
LINE
  5
97
330
17
100
AcDbEntity
  8
SARR_3.5x7
 62
7
370
25
100
AcDbLine
 10
3273.973959328925
 20
7714.525047753362
 30
0.0
 11
3277.473959329012
 21
7714.525047753362
 31
0.0
  0
LINE
  5
98
330
17
100
AcDbEntity
  8
SARR_3.5x7
 62
7
370
25
100
AcDbLine
 10
3277.473959329012
 20
7714.525047753362
 30
0.0
 11
3280.973959329071
 21
7714.525047753362
 31
0.0
  0
LINE
  5
99
330
17
100
AcDbEntity
  8
SARR_3.5x7
 62
7
370
25
100
AcDbLine
 10
3380.973959328983
 20
7714.525047753362
 30
0.0
 11
3384.473959328925
 21
7714.525047753362
 31
0.0
  0
LINE
  5
9A
330
17
100
AcDbEntity
  8
SARR_3.5x7
 62
7
370
25
100
AcDbLine
 10
3231.473959329013
 20
7714.525047753362
 30
0.0
 11
3234.973959329013
 21
7714.525047753362
 31
0.0
  0
LINE
  5
9B
330
17
100
AcDbEntity
  8
Painéis
 62
7
370
25
100
AcDbLine
 10
3216.473959329012
 20
7744.525047753362
 30
0.0
 11
3399.473959329013
 21
7744.525047753362
 31
0.0
  0
LINE
  5
9C
330
17
100
AcDbEntity
  8
Painéis
 62
7
370
25
100
AcDbLine
 10
3216.473959329012
 20
7714.525047753362
 30
0.0
 11
3399.473959329013
 21
7714.525047753362
 31
0.0
  0
LINE
  5
9D
330
17
100
AcDbEntity
  8
Painéis
 62
7
370
25
100
AcDbLine
 10
3216.473959329012
 20
7714.525047753362
 30
0.0
 11
3216.473959329012
 21
7744.525047753362
 31
0.0
  0
LINE
  5
9E
330
17
100
AcDbEntity
  8
Painéis
 62
7
370
25
100
AcDbLine
 10
3277.473959329012
 20
7714.525047753362
 30
0.0
 11
3277.473959329012
 21
7744.525047753362
 31
0.0
  0
LINE
  5
9F
330
17
100
AcDbEntity
  8
Painéis
 62
7
370
25
100
AcDbLine
 10
3399.473959329013
 20
7714.525047753362
 30
0.0
 11
3399.473959329013
 21
7744.525047753362
 31
0.0
  0
LINE
  5
A0
330
17
100
AcDbEntity
  8
SARR_2.2x7
 62
7
370
25
100
AcDbLine
 10
3232.128519537586
 20
7553.335389786742
 30
0.0
 11
3339.128519537586
 21
7553.335389786742
 31
0.0
  0
LINE
  5
A1
330
17
100
AcDbEntity
  8
SARR_2.2x7
 62
7
370
25
100
AcDbLine
 10
3339.128519537586
 20
7553.335389786742
 30
0.0
 11
3385.128519537586
 21
7553.335389786742
 31
0.0
  0
LINE
  5
A2
330
17
100
AcDbEntity
  8
SARR_2.2x7
 62
7
370
25
100
AcDbLine
 10
3224.128519537586
 20
7511.535389786738
 30
0.0
 11
3224.128519537586
 21
7555.535389786737
 31
0.0
  0
LINE
  5
A3
330
17
100
AcDbEntity
  8
SARR_2.2x7
 62
7
370
25
100
AcDbLine
 10
3393.128519537586
 20
7511.535389786738
 30
0.0
 11
3393.128519537586
 21
7555.535389786737
 31
0.0
  0
LINE
  5
A4
330
17
100
AcDbEntity
  8
SARR_3.5x7
 62
7
370
25
100
AcDbLine
 10
3385.128519537586
 20
7555.535389786782
 30
0.0
 11
3385.128519537499
 21
7511.535389786738
 31
0.0
  0
LINE
  5
A5
330
17
100
AcDbEntity
  8
SARR_3.5x7
 62
7
370
25
100
AcDbLine
 10
3381.628519537586
 20
7553.335389786785
 30
0.0
 11
3381.628519537557
 21
7511.535389786738
 31
0.0
  0
LINE
  5
A6
330
17
100
AcDbEntity
  8
SARR_3.5x7
 62
7
370
25
100
AcDbLine
 10
3342.628519537615
 20
7553.335389786785
 30
0.0
 11
3342.628519537644
 21
7511.535389786738
 31
0.0
  0
LINE
  5
A7
330
17
100
AcDbEntity
  8
SARR_3.5x7
 62
7
370
25
100
AcDbLine
 10
3335.628519537528
 20
7553.335389786842
 30
0.0
 11
3335.628519537499
 21
7511.535389786738
 31
0.0
  0
LINE
  5
A8
330
17
100
AcDbEntity
  8
SARR_3.5x7
 62
7
370
25
100
AcDbLine
 10
3232.128519537586
 20
7555.535389786753
 30
0.0
 11
3232.128519537586
 21
7511.535389786738
 31
0.0
  0
LINE
  5
A9
330
17
100
AcDbEntity
  8
SARR_3.5x7
 62
7
370
25
100
AcDbLine
 10
3235.628519537586
 20
7553.335389786756
 30
0.0
 11
3235.628519537586
 21
7511.535389786738
 31
0.0
  0
LINE
  5
AA
330
17
100
AcDbEntity
  8
SARR_3.5x7
 62
7
370
25
100
AcDbLine
 10
3339.128519537586
 20
7553.335389786742
 30
0.0
 11
3339.128519537586
 21
7511.535389786752
 31
0.0
  0
LINE
  5
AB
330
17
100
AcDbEntity
  8
SARR_3.5x7
 62
7
370
25
100
AcDbLine
 10
3335.628519537499
 20
7511.535389786738
 30
0.0
 11
3339.128519537586
 21
7511.535389786738
 31
0.0
  0
LINE
  5
AC
330
17
100
AcDbEntity
  8
SARR_3.5x7
 62
7
370
25
100
AcDbLine
 10
3339.128519537586
 20
7511.535389786738
 30
0.0
 11
3342.628519537644
 21
7511.535389786738
 31
0.0
  0
LINE
  5
AD
330
17
100
AcDbEntity
  8
SARR_3.5x7
 62
7
370
25
100
AcDbLine
 10
3381.628519537557
 20
7511.535389786738
 30
0.0
 11
3385.128519537499
 21
7511.535389786738
 31
0.0
  0
LINE
  5
AE
330
17
100
AcDbEntity
  8
SARR_3.5x7
 62
7
370
25
100
AcDbLine
 10
3232.128519537586
 20
7511.535389786738
 30
0.0
 11
3235.628519537586
 21
7511.535389786738
 31
0.0
  0
LINE
  5
AF
330
17
100
AcDbEntity
  8
Painéis
 62
7
370
25
100
AcDbLine
 10
3217.128519537586
 20
7555.535389786737
 30
0.0
 11
3400.128519537586
 21
7555.535389786737
 31
0.0
  0
LINE
  5
B0
330
17
100
AcDbEntity
  8
Painéis
 62
7
370
25
100
AcDbLine
 10
3217.128519537586
 20
7511.535389786738
 30
0.0
 11
3400.128519537586
 21
7511.535389786738
 31
0.0
  0
LINE
  5
B1
330
17
100
AcDbEntity
  8
Painéis
 62
7
370
25
100
AcDbLine
 10
3217.128519537586
 20
7511.535389786738
 30
0.0
 11
3217.128519537586
 21
7555.535389786737
 31
0.0
  0
LINE
  5
B2
330
17
100
AcDbEntity
  8
Painéis
 62
7
370
25
100
AcDbLine
 10
3339.128519537586
 20
7511.535389786738
 30
0.0
 11
3339.128519537586
 21
7555.535389786737
 31
0.0
  0
LINE
  5
B3
330
17
100
AcDbEntity
  8
Painéis
 62
7
370
25
100
AcDbLine
 10
3400.128519537586
 20
7511.535389786738
 30
0.0
 11
3400.128519537586
 21
7555.535389786737
 31
0.0
  0
LINE
  5
B4
330
17
100
AcDbEntity
  8
SARR_3.5x7
 62
7
370
25
100
AcDbLine
 10
3252.723959328984
 20
7742.325047753364
 30
0.0
 11
3252.723959328984
 21
7714.525047753348
 31
0.0
  0
LINE
  5
B5
330
17
100
AcDbEntity
  8
SARR_3.5x7
 62
7
370
25
100
AcDbLine
 10
3256.223959328983
 20
7742.325047753364
 30
0.0
 11
3256.223959328983
 21
7714.525047753348
 31
0.0
  0
LINE
  5
B6
330
17
100
AcDbEntity
  8
COTA
 62
7
370
25
100
AcDbLine
 10
3399.473959329013
 20
7744.525047753362
 30
0.0
 11
3399.473959329013
 21
7758.525047753362
 31
0.0
  0
LINE
  5
B7
330
17
100
AcDbEntity
  8
COTA
 62
7
370
25
100
AcDbLine
 10
3399.473959329013
 20
7758.525047753362
 30
0.0
 11
3216.473959329012
 21
7758.525047753358
 31
0.0
  0
LINE
  5
B8
330
17
100
AcDbEntity
  8
COTA
 62
7
370
25
100
AcDbLine
 10
3216.473959329012
 20
7758.525047753358
 30
0.0
 11
3216.473959329012
 21
7744.525047753362
 31
0.0
  0
LINE
  5
B9
330
17
100
AcDbEntity
  8
SARR_3.5x7
 62
7
370
25
100
AcDbLine
 10
3360.378519537557
 20
7553.335389786742
 30
0.0
 11
3360.378519537557
 21
7511.535389786738
 31
0.0
  0
LINE
  5
BA
330
17
100
AcDbEntity
  8
SARR_3.5x7
 62
7
370
25
100
AcDbLine
 10
3363.878519537557
 20
7553.335389786742
 30
0.0
 11
3363.878519537555
 21
7511.535389786738
 31
0.0
  0
LINE
  5
BB
330
17
100
AcDbEntity
  8
COTA
 62
7
370
25
100
AcDbLine
 10
3159.763563618408
 20
8123.64492474404
 30
0.0
 11
3159.763563618408
 21
7352.888438154934
 31
0.0
  0
LINE
  5
BC
330
17
100
AcDbEntity
  8
COTA
 62
7
370
25
100
AcDbLine
 10
3485.220642684648
 20
8123.64492474404
 30
0.0
 11
3485.220642684648
 21
7352.888438154934
 31
0.0
  0
LINE
  5
BD
330
17
100
AcDbEntity
  8
SARR_2.2x7
 62
7
370
25
100
AcDbLine
 10
3573.45924056689
 20
7753.557275662252
 30
0.0
 11
3794.459240566892
 21
7753.557275662259
 31
0.0
  0
LINE
  5
BE
330
17
100
AcDbEntity
  8
SARR_2.2x7
 62
7
370
25
100
AcDbLine
 10
3794.459240566894
 20
7753.557275662259
 30
0.0
 11
3986.459240566903
 21
7753.557275662259
 31
0.0
  0
LINE
  5
BF
330
17
100
AcDbEntity
  8
SARR_2.2x7
 62
7
370
25
100
AcDbLine
 10
3557.459240566892
 20
7691.757275662253
 30
0.0
 11
3557.459240566892
 21
7701.757275662252
 31
0.0
  0
LINE
  5
C0
330
17
100
AcDbEntity
  8
SARR_3.5x7
 62
7
370
25
100
AcDbLine
 10
3797.959240566923
 20
7753.557275662304
 30
0.0
 11
3797.95924056695
 21
7691.757275662268
 31
0.0
  0
LINE
  5
C1
330
17
100
AcDbEntity
  8
SARR_3.5x7
 62
7
370
25
100
AcDbLine
 10
3790.959240566836
 20
7753.557275662362
 30
0.0
 11
3790.959240566805
 21
7691.757275662268
 31
0.0
  0
LINE
  5
C2
330
17
100
AcDbEntity
  8
SARR_3.5x7
 62
7
370
25
100
AcDbLine
 10
3573.45924056689
 20
7755.757275662256
 30
0.0
 11
3573.45924056689
 21
7691.757275662253
 31
0.0
  0
LINE
  5
C3
330
17
100
AcDbEntity
  8
SARR_3.5x7
 62
7
370
25
100
AcDbLine
 10
3576.95924056689
 20
7753.557275662259
 30
0.0
 11
3576.95924056689
 21
7691.757275662253
 31
0.0
  0
LINE
  5
C4
330
17
100
AcDbEntity
  8
SARR_3.5x7
 62
7
370
25
100
AcDbLine
 10
3794.459240566894
 20
7753.557275662259
 30
0.0
 11
3794.459240566892
 21
7691.757275662282
 31
0.0
  0
LINE
  5
C5
330
17
100
AcDbEntity
  8
SARR_3.5x7
 62
7
370
25
100
AcDbLine
 10
3790.959240566805
 20
7691.757275662268
 30
0.0
 11
3794.459240566892
 21
7691.757275662268
 31
0.0
  0
LINE
  5
C6
330
17
100
AcDbEntity
  8
SARR_3.5x7
 62
7
370
25
100
AcDbLine
 10
3794.459240566892
 20
7691.757275662268
 30
0.0
 11
3797.95924056695
 21
7691.757275662268
 31
0.0
  0
LINE
  5
C7
330
17
100
AcDbEntity
  8
Painéis
 62
7
370
25
100
AcDbLine
 10
3573.45924056689
 20
7755.757275662242
 30
0.0
 11
4001.459240566894
 21
7755.757275662273
 31
0.0
  0
LINE
  5
C8
330
17
100
AcDbEntity
  8
Painéis
 62
7
370
25
100
AcDbLine
 10
3550.459240566892
 20
7691.757275662253
 30
0.0
 11
4001.459240566892
 21
7691.757275662272
 31
0.0
  0
LINE
  5
C9
330
17
100
AcDbEntity
  8
Painéis
 62
7
370
25
100
AcDbLine
 10
3550.459240566892
 20
7691.757275662253
 30
0.0
 11
3550.45924056689
 21
7701.757275662252
 31
0.0
  0
LINE
  5
CA
330
17
100
AcDbEntity
  8
Painéis
 62
7
370
25
100
AcDbLine
 10
3794.459240566892
 20
7691.757275662268
 30
0.0
 11
3794.459240566892
 21
7755.757275662256
 31
0.0
  0
LINE
  5
CB
330
17
100
AcDbEntity
  8
COTA
 62
7
370
25
100
AcDbLine
 10
3550.459240566888
 20
7755.757275662253
 30
0.0
 11
3573.459240566887
 21
7755.757275662256
 31
0.0
  0
LINE
  5
CC
330
17
100
AcDbEntity
  8
COTA
 62
7
370
25
100
AcDbLine
 10
3550.45924056689
 20
7701.757275662252
 30
0.0
 11
3550.459240566888
 21
7755.757275662253
 31
0.0
  0
LINE
  5
CD
330
17
100
AcDbEntity
  8
Painéis
 62
7
370
25
100
AcDbLine
 10
3550.45924056689
 20
7701.757275662252
 30
0.0
 11
3573.45924056689
 21
7701.757275662252
 31
0.0
  0
LINE
  5
CE
330
17
100
AcDbEntity
  8
Painéis
 62
7
370
25
100
AcDbLine
 10
3573.45924056689
 20
7701.757275662252
 30
0.0
 11
3573.45924056689
 21
7755.757275662242
 31
0.0
  0
LINE
  5
CF
330
17
100
AcDbEntity
  8
SARR_EDITAR
 62
7
370
25
100
AcDbLine
 10
3557.459240566892
 20
7696.757275662253
 30
0.0
 11
3573.45924056689
 21
7696.757275662251
 31
0.0
  0
LINE
  5
D0
330
17
100
AcDbEntity
  8
Painéis
 62
7
370
25
100
AcDbLine
 10
4001.459240566892
 20
7691.757275662268
 30
0.0
 11
4001.459240566883
 21
7755.757275662272
 31
0.0
  0
LINE
  5
D1
330
17
100
AcDbEntity
  8
SARR_2.2x7
 62
7
370
25
100
AcDbLine
 10
3994.459240566893
 20
7691.757275662268
 30
0.0
 11
3994.459240566893
 21
7755.757275662272
 31
0.0
  0
LINE
  5
D2
330
17
100
AcDbEntity
  8
SARR_3.5x7
 62
7
370
25
100
AcDbLine
 10
3986.459240566905
 20
7755.757275662269
 30
0.0
 11
3986.459240566806
 21
7691.757275662268
 31
0.0
  0
LINE
  5
D3
330
17
100
AcDbEntity
  8
SARR_3.5x7
 62
7
370
25
100
AcDbLine
 10
3982.959240566899
 20
7753.557275662261
 30
0.0
 11
3982.959240566865
 21
7691.757275662268
 31
0.0
  0
LINE
  5
D4
330
17
100
AcDbEntity
  8
COTA
 62
7
370
25
100
AcDbLine
 10
3573.45924056689
 20
7755.757275662242
 30
0.0
 11
3573.459240566887
 21
7755.757275662237
 31
0.0
  0
LINE
  5
D5
330
17
100
AcDbEntity
  8
0
 62
7
370
25
100
AcDbLine
 10
3755.08623162464
 20
7926.61498227233
 30
0.0
 11
3755.08623162464
 21
7914.61498227233
 31
0.0
  0
LINE
  5
D6
330
17
100
AcDbEntity
  8
0
 62
7
370
25
100
AcDbLine
 10
3891.086231624669
 20
7923.614982272344
 30
0.0
 11
3891.086231624669
 21
7917.614982272344
 31
0.0
  0
LINE
  5
D7
330
17
100
AcDbEntity
  8
0
 62
7
370
25
100
AcDbLine
 10
3889.08623162467
 20
7926.614982272345
 30
0.0
 11
3889.08623162467
 21
7914.614982272344
 31
0.0
  0
LINE
  5
D8
330
17
100
AcDbEntity
  8
0
 62
7
370
25
100
AcDbLine
 10
3889.08623162467
 20
7917.614982272344
 30
0.0
 11
3891.086231624669
 21
7917.614982272344
 31
0.0
  0
LINE
  5
D9
330
17
100
AcDbEntity
  8
0
 62
7
370
25
100
AcDbLine
 10
3755.08623162464
 20
7914.61498227233
 30
0.0
 11
3785.086231624641
 21
7914.61498227233
 31
0.0
  0
LINE
  5
DA
330
17
100
AcDbEntity
  8
0
 62
7
370
25
100
AcDbLine
 10
3859.086231624669
 20
7919.614982272344
 30
0.0
 11
3889.08623162467
 21
7919.614982272344
 31
0.0
  0
LINE
  5
DB
330
17
100
AcDbEntity
  8
0
 62
7
370
25
100
AcDbLine
 10
3859.086231624669
 20
7921.614982272345
 30
0.0
 11
3889.08623162467
 21
7921.614982272345
 31
0.0
  0
LINE
  5
DC
330
17
100
AcDbEntity
  8
TENSOR
 62
7
370
25
100
AcDbLine
 10
3894.086231624669
 20
7920.61498227233
 30
0.0
 11
3749.782937446542
 21
7920.61498227233
 31
0.0
  0
LINE
  5
DD
330
17
100
AcDbEntity
  8
0
 62
7
370
25
100
AcDbLine
 10
3889.08623162467
 20
7923.614982272344
 30
0.0
 11
3891.086231624669
 21
7923.614982272344
 31
0.0
  0
LINE
  5
DE
330
17
100
AcDbEntity
  8
0
 62
7
370
25
100
AcDbLine
 10
3785.086231624641
 20
7919.61498227233
 30
0.0
 11
3755.08623162464
 21
7919.61498227233
 31
0.0
  0
LINE
  5
DF
330
17
100
AcDbEntity
  8
0
 62
7
370
25
100
AcDbLine
 10
3785.086231624641
 20
7921.61498227233
 30
0.0
 11
3755.08623162464
 21
7921.61498227233
 31
0.0
  0
LINE
  5
E0
330
17
100
AcDbEntity
  8
0
 62
7
370
25
100
AcDbLine
 10
3755.08623162464
 20
7926.61498227233
 30
0.0
 11
3785.086231624641
 21
7926.61498227233
 31
0.0
  0
LINE
  5
E1
330
17
100
AcDbEntity
  8
0
 62
7
370
25
100
AcDbLine
 10
3889.08623162467
 20
7914.614982272344
 30
0.0
 11
3859.086231624669
 21
7914.614982272344
 31
0.0
  0
LINE
  5
E2
330
17
100
AcDbEntity
  8
0
 62
7
370
25
100
AcDbLine
 10
3889.08623162467
 20
7926.614982272345
 30
0.0
 11
3859.086231624669
 21
7926.614982272345
 31
0.0
  0
LINE
  5
E3
330
17
100
AcDbEntity
  8
0
 62
7
370
25
100
AcDbLine
 10
3753.086231624641
 20
7923.61498227233
 30
0.0
 11
3753.086231624641
 21
7917.61498227233
 31
0.0
  0
LINE
  5
E4
330
17
100
AcDbEntity
  8
0
 62
7
370
25
100
AcDbLine
 10
3755.08623162464
 20
7917.61498227233
 30
0.0
 11
3753.086231624641
 21
7917.61498227233
 31
0.0
  0
LINE
  5
E5
330
17
100
AcDbEntity
  8
0
 62
7
370
25
100
AcDbLine
 10
3753.086231624641
 20
7923.61498227233
 30
0.0
 11
3755.08623162464
 21
7923.61498227233
 31
0.0
  0
LINE
  5
E6
330
17
100
AcDbEntity
  8
SARR_2.2x7
 62
7
370
25
100
AcDbLine
 10
3563.587429671752
 20
7557.371310148427
 30
0.0
 11
3720.587429671751
 21
7557.371310148439
 31
0.0
  0
LINE
  5
E7
330
17
100
AcDbEntity
  8
SARR_2.2x7
 62
7
370
25
100
AcDbLine
 10
3555.587429671754
 20
7495.571310148425
 30
0.0
 11
3555.587429671751
 21
7559.571310148425
 31
0.0
  0
LINE
  5
E8
330
17
100
AcDbEntity
  8
SARR_3.5x7
 62
7
370
25
100
AcDbLine
 10
3751.087429671779
 20
7557.371310148486
 30
0.0
 11
3751.087429671809
 21
7495.571310148439
 31
0.0
  0
LINE
  5
E9
330
17
100
AcDbEntity
  8
SARR_3.5x7
 62
7
370
25
100
AcDbLine
 10
3563.587429671751
 20
7559.571310148439
 30
0.0
 11
3563.587429671754
 21
7495.571310148425
 31
0.0
  0
LINE
  5
EA
330
17
100
AcDbEntity
  8
SARR_3.5x7
 62
7
370
25
100
AcDbLine
 10
3567.087429671752
 20
7557.371310148441
 30
0.0
 11
3567.087429671754
 21
7495.571310148425
 31
0.0
  0
LINE
  5
EB
330
17
100
AcDbEntity
  8
SARR_3.5x7
 62
7
370
25
100
AcDbLine
 10
3747.587429671749
 20
7557.371310148441
 30
0.0
 11
3747.587429671752
 21
7495.571310148453
 31
0.0
  0
LINE
  5
EC
330
17
100
AcDbEntity
  8
SARR_3.5x7
 62
7
370
25
100
AcDbLine
 10
3744.087429671664
 20
7495.571310148439
 30
0.0
 11
3747.587429671752
 21
7495.571310148439
 31
0.0
  0
LINE
  5
ED
330
17
100
AcDbEntity
  8
SARR_3.5x7
 62
7
370
25
100
AcDbLine
 10
3747.587429671752
 20
7495.571310148439
 30
0.0
 11
3751.087429671809
 21
7495.571310148439
 31
0.0
  0
LINE
  5
EE
330
17
100
AcDbEntity
  8
SARR_3.5x7
 62
7
370
25
100
AcDbLine
 10
3563.587429671754
 20
7495.571310148425
 30
0.0
 11
3567.087429671754
 21
7495.571310148425
 31
0.0
  0
LINE
  5
EF
330
17
100
AcDbEntity
  8
Painéis
 62
7
370
25
100
AcDbLine
 10
3548.587429671748
 20
7559.571310148425
 30
0.0
 11
3720.587429671751
 21
7559.571310148434
 31
0.0
  0
LINE
  5
F0
330
17
100
AcDbEntity
  8
Painéis
 62
7
370
25
100
AcDbLine
 10
3548.587429671754
 20
7495.571310148425
 30
0.0
 11
4118.587429671753
 21
7495.57131014845
 31
0.0
  0
LINE
  5
F1
330
17
100
AcDbEntity
  8
Painéis
 62
7
370
25
100
AcDbLine
 10
3747.587429671752
 20
7495.571310148439
 30
0.0
 11
3747.587429671748
 21
7559.571310148439
 31
0.0
  0
LINE
  5
F2
330
17
100
AcDbEntity
  8
Painéis
 62
7
370
25
100
AcDbLine
 10
3548.587429671754
 20
7495.571310148425
 30
0.0
 11
3548.587429671751
 21
7559.571310148425
 31
0.0
  0
LINE
  5
F3
330
17
100
AcDbEntity
  8
Painéis
 62
7
370
25
100
AcDbLine
 10
3747.58742967175
 20
7505.571310148432
 30
0.0
 11
3720.587429671751
 21
7505.571310148432
 31
0.0
  0
LINE
  5
F4
330
17
100
AcDbEntity
  8
Painéis
 62
7
370
25
100
AcDbLine
 10
3720.587429671751
 20
7505.571310148432
 30
0.0
 11
3720.587429671751
 21
7559.571310148434
 31
0.0
  0
LINE
  5
F5
330
17
100
AcDbEntity
  8
SARR_3.5x7
 62
7
370
25
100
AcDbLine
 10
3717.087429671702
 20
7557.371310148439
 30
0.0
 11
3717.087429671663
 21
7495.571310148441
 31
0.0
  0
LINE
  5
F6
330
17
100
AcDbEntity
  8
SARR_2.2x7
 62
7
370
25
100
AcDbLine
 10
3720.587429671746
 20
7503.371310148445
 30
0.0
 11
3747.58742967175
 21
7503.371310148444
 31
0.0
  0
LINE
  5
F7
330
17
100
AcDbEntity
  8
SARR_3.5x7
 62
7
370
25
100
AcDbLine
 10
3744.087429671692
 20
7503.371310148546
 30
0.0
 11
3744.087429671688
 21
7495.571310148441
 31
0.0
  0
LINE
  5
F8
330
17
100
AcDbEntity
  8
SARR_3.5x7
 62
7
370
25
100
AcDbLine
 10
3720.587429671781
 20
7557.371310148439
 30
0.0
 11
3720.587429671742
 21
7495.571310148441
 31
0.0
  0
LINE
  5
F9
330
17
100
AcDbEntity
  8
COTA
 62
7
370
25
100
AcDbLine
 10
3720.587429671751
 20
7559.571310148434
 30
0.0
 11
3747.587429671748
 21
7559.571310148439
 31
0.0
  0
LINE
  5
FA
330
17
100
AcDbEntity
  8
SARR_2.2x7
 62
7
370
25
100
AcDbLine
 10
4103.58742967175
 20
7557.371310148427
 30
0.0
 11
3946.587429671753
 21
7557.371310148439
 31
0.0
  0
LINE
  5
FB
330
17
100
AcDbEntity
  8
SARR_2.2x7
 62
7
370
25
100
AcDbLine
 10
4111.587429671748
 20
7495.571310148425
 30
0.0
 11
4111.587429671752
 21
7559.571310148425
 31
0.0
  0
LINE
  5
FC
330
17
100
AcDbEntity
  8
SARR_3.5x7
 62
7
370
25
100
AcDbLine
 10
3916.087429671724
 20
7557.371310148486
 30
0.0
 11
3916.087429671693
 21
7495.571310148439
 31
0.0
  0
LINE
  5
FD
330
17
100
AcDbEntity
  8
SARR_3.5x7
 62
7
370
25
100
AcDbLine
 10
4103.587429671752
 20
7559.571310148439
 30
0.0
 11
4103.587429671748
 21
7495.571310148425
 31
0.0
  0
LINE
  5
FE
330
17
100
AcDbEntity
  8
SARR_3.5x7
 62
7
370
25
100
AcDbLine
 10
4100.08742967175
 20
7557.371310148441
 30
0.0
 11
4100.087429671748
 21
7495.571310148425
 31
0.0
  0
LINE
  5
FF
330
17
100
AcDbEntity
  8
SARR_3.5x7
 62
7
370
25
100
AcDbLine
 10
3919.587429671753
 20
7557.371310148441
 30
0.0
 11
3919.587429671751
 21
7495.571310148453
 31
0.0
  0
LINE
  5
100
330
17
100
AcDbEntity
  8
SARR_3.5x7
 62
7
370
25
100
AcDbLine
 10
4103.587429671748
 20
7495.571310148425
 30
0.0
 11
4100.087429671748
 21
7495.571310148425
 31
0.0
  0
LINE
  5
101
330
17
100
AcDbEntity
  8
Painéis
 62
7
370
25
100
AcDbLine
 10
4118.587429671753
 20
7559.571310148425
 30
0.0
 11
3946.587429671753
 21
7559.571310148434
 31
0.0
  0
LINE
  5
102
330
17
100
AcDbEntity
  8
Painéis
 62
7
370
25
100
AcDbLine
 10
3919.587429671751
 20
7495.571310148439
 30
0.0
 11
3919.587429671755
 21
7559.571310148439
 31
0.0
  0
LINE
  5
103
330
17
100
AcDbEntity
  8
Painéis
 62
7
370
25
100
AcDbLine
 10
4118.587429671748
 20
7495.571310148425
 30
0.0
 11
4118.587429671752
 21
7559.571310148425
 31
0.0
  0
LINE
  5
104
330
17
100
AcDbEntity
  8
Painéis
 62
7
370
25
100
AcDbLine
 10
3919.587429671752
 20
7505.571310148432
 30
0.0
 11
3946.587429671753
 21
7505.571310148432
 31
0.0
  0
LINE
  5
105
330
17
100
AcDbEntity
  8
Painéis
 62
7
370
25
100
AcDbLine
 10
3946.587429671753
 20
7505.571310148432
 30
0.0
 11
3946.587429671753
 21
7559.571310148434
 31
0.0
  0
LINE
  5
106
330
17
100
AcDbEntity
  8
SARR_3.5x7
 62
7
370
25
100
AcDbLine
 10
3950.087429671801
 20
7557.371310148439
 30
0.0
 11
3950.087429671839
 21
7495.571310148441
 31
0.0
  0
LINE
  5
107
330
17
100
AcDbEntity
  8
SARR_2.2x7
 62
7
370
25
100
AcDbLine
 10
3946.587429671757
 20
7503.371310148445
 30
0.0
 11
3919.587429671752
 21
7503.371310148444
 31
0.0
  0
LINE
  5
108
330
17
100
AcDbEntity
  8
SARR_3.5x7
 62
7
370
25
100
AcDbLine
 10
3923.087429671811
 20
7503.371310148546
 30
0.0
 11
3923.087429671816
 21
7495.571310148441
 31
0.0
  0
LINE
  5
109
330
17
100
AcDbEntity
  8
SARR_3.5x7
 62
7
370
25
100
AcDbLine
 10
3946.587429671721
 20
7557.371310148439
 30
0.0
 11
3946.587429671762
 21
7495.571310148441
 31
0.0
  0
LINE
  5
10A
330
17
100
AcDbEntity
  8
COTA
 62
7
370
25
100
AcDbLine
 10
3946.587429671753
 20
7559.571310148434
 30
0.0
 11
3919.587429671755
 21
7559.571310148439
 31
0.0
  0
LINE
  5
10B
330
17
100
AcDbEntity
  8
Painéis
 62
7
370
25
100
AcDbLine
 10
3747.58742967175
 20
7559.571310148434
 30
0.0
 11
3919.587429671755
 21
7559.571310148425
 31
0.0
  0
LINE
  5
10C
330
17
100
AcDbEntity
  8
SARR_2.2x7
 62
7
370
25
100
AcDbLine
 10
3919.587429671753
 20
7557.371310148486
 30
0.0
 11
3747.587429671749
 21
7557.371310148401
 31
0.0
  0
LINE
  5
10D
330
17
100
AcDbEntity
  8
Painéis
 62
7
370
25
100
AcDbLine
 10
2887.164215340434
 20
7545.29470253254
 30
0.0
 11
2887.16421534043
 21
7589.29470253254
 31
0.0
  0
LINE
  5
10E
330
17
100
AcDbEntity
  8
NOMENCLATURA
 62
7
370
25
100
AcDbLine
 10
2816.759550044875
 20
7474.973797337797
 30
0.0
 11
2874.966213985181
 21
7474.973797337797
 31
0.0
  0
LINE
  5
10F
330
17
100
AcDbEntity
  8
NOMENCLATURA
 62
7
370
25
100
AcDbLine
 10
2874.966213985181
 20
7474.973797337797
 30
0.0
 11
2874.966213985181
 21
7525.360533169138
 31
0.0
  0
LWPOLYLINE
  5
110
330
17
100
AcDbEntity
  8
Painéis
 62
7
370
25
100
AcDbPolyline
 90
4
 70
0
 10
3001.329450260897
 20
7970.644924744018
 10
2997.329450260897
 20
7970.644924744018
 10
2997.329450260897
 20
7910.64492474404
 10
3001.329450260897
 20
7910.64492474404
  0
LWPOLYLINE
  5
111
330
17
100
AcDbEntity
  8
Madeira
 62
7
370
25
100
AcDbPolyline
 90
4
 70
0
 10
3001.329450260897
 20
7966.244924744015
 10
3001.329450260897
 20
7970.644924744018
 10
3015.329450260897
 20
7970.644924744018
 10
3015.329450260897
 20
7966.244924744015
  0
LWPOLYLINE
  5
112
330
17
100
AcDbEntity
  8
Madeira
 62
7
370
25
100
AcDbPolyline
 90
4
 70
0
 10
3035.329450260897
 20
7910.64492474404
 10
3035.329450260897
 20
7915.044924744034
 10
3015.329450260897
 20
7915.044924744034
 10
3015.329450260897
 20
7910.64492474404
  0
LWPOLYLINE
  5
113
330
17
100
AcDbEntity
  8
Madeira
 62
7
370
25
100
AcDbPolyline
 90
4
 70
0
 10
3001.329450260897
 20
7970.644924744018
 10
3015.329450260897
 20
7970.644924744018
 10
3015.329450260897
 20
7910.64492474404
 10
3001.329450260897
 20
7910.64492474404
  0
LWPOLYLINE
  5
114
330
17
100
AcDbEntity
  8
Madeira
 62
7
370
25
100
AcDbPolyline
 90
4
 70
0
 10
2969.329450260897
 20
7910.64492474404
 10
2969.329450260897
 20
7915.044924744034
 10
2979.329450260897
 20
7915.044924744034
 10
2979.329450260897
 20
7910.64492474404
  0
LWPOLYLINE
  5
115
330
17
100
AcDbEntity
  8
Painéis
 62
7
370
25
100
AcDbPolyline
 90
4
 70
0
 10
2969.329450260897
 20
7915.044924744034
 10
2969.329450260897
 20
7918.64492474404
 10
2997.329450260897
 20
7918.64492474404
 10
2997.329450260897
 20
7915.044924744034
  0
LWPOLYLINE
  5
116
330
17
100
AcDbEntity
  8
Madeira
 62
7
370
25
100
AcDbPolyline
 90
4
 70
0
 10
2997.329450260897
 20
7910.64492474404
 10
2997.329450260897
 20
7915.044924744034
 10
2987.329450260897
 20
7915.044924744034
 10
2987.329450260897
 20
7910.64492474404
  0
LWPOLYLINE
  5
117
330
17
100
AcDbEntity
  8
Painéis
 62
7
370
25
100
AcDbPolyline
 90
4
 70
0
 10
2965.329450260886
 20
7998.644924744039
 10
2969.329450260886
 20
7998.644924744039
 10
2969.329450260897
 20
7910.64492474404
 10
2965.329450260897
 20
7910.64492474404
  0
LWPOLYLINE
  5
118
330
17
100
AcDbEntity
  8
Madeira
 62
7
370
25
100
AcDbPolyline
 90
4
 70
0
 10
2965.329450260886
 20
7994.244924744037
 10
2965.329450260886
 20
7998.644924744039
 10
2951.329450260886
 20
7998.644924744039
 10
2951.329450260886
 20
7994.244924744037
  0
LWPOLYLINE
  5
119
330
17
100
AcDbEntity
  8
Madeira
 62
7
370
25
100
AcDbPolyline
 90
4
 70
0
 10
2931.329450260897
 20
7910.64492474404
 10
2931.329450260897
 20
7915.044924744034
 10
2951.329450260897
 20
7915.044924744034
 10
2951.329450260897
 20
7910.64492474404
  0
LWPOLYLINE
  5
11A
330
17
100
AcDbEntity
  8
Madeira
 62
7
370
25
100
AcDbPolyline
 90
4
 70
0
 10
2965.329450260886
 20
7998.644924744039
 10
2951.329450260886
 20
7998.644924744039
 10
2951.329450260897
 20
7910.64492474404
 10
2965.329450260897
 20
7910.64492474404
  0
LWPOLYLINE
  5
11B
330
17
100
AcDbEntity
  8
Painéis
 62
7
370
25
100
AcDbPolyline
 90
4
 70
0
 10
2997.329450260897
 20
7970.644924744018
 10
2997.329450260897
 20
7974.644924744016
 10
3052.929450260874
 20
7974.644924744009
 10
3052.929450260874
 20
7970.644924744009
  0
LWPOLYLINE
  5
11C
330
17
100
AcDbEntity
  8
CONCRETO
 62
7
370
25
100
AcDbPolyline
 90
8
 70
0
 10
3052.929450260874
 20
7974.644924744009
 10
3052.929450260874
 20
7998.644924744039
 10
2969.329450260888
 20
7998.644924744039
 10
2969.329450260888
 20
7970.644924744025
 10
2969.329450260897
 20
7970.644924744025
 10
2969.329450260955
 20
7918.64492474404
 10
2997.329450260897
 20
7918.64492474404
 10
2997.329450260897
 20
7974.644924744016
  0
LWPOLYLINE
  5
11D
330
17
100
AcDbEntity
  8
barrote
 62
7
370
25
100
AcDbPolyline
 90
4
 70
0
 10
3068.784647932791
 20
7890.644924744082
 10
2883.601707423096
 20
7890.644924744082
 10
2883.601707423096
 20
7910.64492474404
 10
3068.784647932791
 20
7910.64492474404
  0
LWPOLYLINE
  5
11E
330
17
100
AcDbEntity
  8
SCO-___-LAJ
 62
7
370
25
100
AcDbPolyline
 90
4
 70
0
 10
3059.78238051733
 20
7909.311511410712
 10
2902.47652000447
 20
7909.311511410705
 10
2902.47652000447
 20
7906.111831410729
 10
3059.78238051733
 20
7906.111831410736
  0
LWPOLYLINE
  5
11F
330
17
100
AcDbEntity
  8
Painéis
 62
7
370
25
100
AcDbPolyline
 90
4
 70
0
 10
3310.372676496272
 20
7970.644924744009
 10
3314.372676496272
 20
7970.644924744009
 10
3314.372676496272
 20
7910.644924744031
 10
3310.372676496272
 20
7910.644924744031
  0
LWPOLYLINE
  5
120
330
17
100
AcDbEntity
  8
Madeira
 62
7
370
25
100
AcDbPolyline
 90
4
 70
0
 10
3310.372676496272
 20
7966.244924744008
 10
3310.372676496272
 20
7970.644924744009
 10
3296.372676496272
 20
7970.644924744009
 10
3296.372676496272
 20
7966.244924744008
  0
LWPOLYLINE
  5
121
330
17
100
AcDbEntity
  8
Madeira
 62
7
370
25
100
AcDbPolyline
 90
4
 70
0
 10
3276.372676496272
 20
7910.644924744031
 10
3276.372676496272
 20
7915.044924744027
 10
3296.372676496272
 20
7915.044924744027
 10
3296.372676496272
 20
7910.644924744031
  0
LWPOLYLINE
  5
122
330
17
100
AcDbEntity
  8
Madeira
 62
7
370
25
100
AcDbPolyline
 90
4
 70
0
 10
3310.372676496272
 20
7970.644924744009
 10
3296.372676496272
 20
7970.644924744009
 10
3296.372676496272
 20
7910.644924744031
 10
3310.372676496272
 20
7910.644924744031
  0
LWPOLYLINE
  5
123
330
17
100
AcDbEntity
  8
Madeira
 62
7
370
25
100
AcDbPolyline
 90
4
 70
0
 10
3352.372676496273
 20
7910.644924744031
 10
3352.372676496273
 20
7915.044924744027
 10
3338.372676496272
 20
7915.044924744027
 10
3338.372676496272
 20
7910.644924744031
  0
LWPOLYLINE
  5
124
330
17
100
AcDbEntity
  8
Painéis
 62
7
370
25
100
AcDbPolyline
 90
4
 70
0
 10
3352.372676496273
 20
7915.044924744027
 10
3352.372676496273
 20
7918.644924744032
 10
3314.372676496272
 20
7918.644924744032
 10
3314.372676496272
 20
7915.044924744027
  0
LWPOLYLINE
  5
125
330
17
100
AcDbEntity
  8
Madeira
 62
7
370
25
100
AcDbPolyline
 90
4
 70
0
 10
3314.372676496272
 20
7910.644924744031
 10
3314.372676496272
 20
7915.044924744027
 10
3328.372676496272
 20
7915.044924744027
 10
3328.372676496272
 20
7910.644924744031
  0
LWPOLYLINE
  5
126
330
17
100
AcDbEntity
  8
Painéis
 62
7
370
25
100
AcDbPolyline
 90
4
 70
0
 10
3356.372676496283
 20
7998.644924744032
 10
3352.372676496283
 20
7998.644924744032
 10
3352.372676496273
 20
7910.644924744031
 10
3356.372676496273
 20
7910.644924744031
  0
LWPOLYLINE
  5
127
330
17
100
AcDbEntity
  8
Madeira
 62
7
370
25
100
AcDbPolyline
 90
4
 70
0
 10
3356.372676496283
 20
7994.24492474403
 10
3356.372676496283
 20
7998.644924744032
 10
3370.372676496283
 20
7998.644924744032
 10
3370.372676496283
 20
7994.24492474403
  0
LWPOLYLINE
  5
128
330
17
100
AcDbEntity
  8
Madeira
 62
7
370
25
100
AcDbPolyline
 90
4
 70
0
 10
3390.372676496272
 20
7910.644924744031
 10
3390.372676496272
 20
7915.044924744027
 10
3370.372676496272
 20
7915.044924744027
 10
3370.372676496272
 20
7910.644924744031
  0
LWPOLYLINE
  5
129
330
17
100
AcDbEntity
  8
Madeira
 62
7
370
25
100
AcDbPolyline
 90
4
 70
0
 10
3356.372676496283
 20
7998.644924744032
 10
3370.372676496283
 20
7998.644924744032
 10
3370.372676496272
 20
7910.644924744031
 10
3356.372676496273
 20
7910.644924744031
  0
LWPOLYLINE
  5
12A
330
17
100
AcDbEntity
  8
Painéis
 62
7
370
25
100
AcDbPolyline
 90
4
 70
0
 10
3314.372676496272
 20
7970.644924744009
 10
3314.372676496272
 20
7974.644924744009
 10
3258.772676496295
 20
7974.644924744002
 10
3258.772676496295
 20
7970.644924744002
  0
LWPOLYLINE
  5
12B
330
17
100
AcDbEntity
  8
CONCRETO
 62
7
370
25
100
AcDbPolyline
 90
8
 70
0
 10
3258.772676496295
 20
7974.644924744002
 10
3258.772676496295
 20
7998.644924744032
 10
3352.372676496281
 20
7998.644924744032
 10
3352.372676496281
 20
7970.644924744018
 10
3352.372676496273
 20
7970.644924744018
 10
3352.372676496214
 20
7918.644924744032
 10
3314.372676496272
 20
7918.644924744032
 10
3314.372676496272
 20
7974.644924744009
  0
LWPOLYLINE
  5
12C
330
17
100
AcDbEntity
  8
barrote
 62
7
370
25
100
AcDbPolyline
 90
4
 70
0
 10
3242.917478824379
 20
7890.644924744075
 10
3438.100419334072
 20
7890.644924744075
 10
3438.100419334072
 20
7910.644924744031
 10
3242.917478824379
 20
7910.644924744031
  0
LWPOLYLINE
  5
12D
330
17
100
AcDbEntity
  8
SCO-___-LAJ
 62
7
370
25
100
AcDbPolyline
 90
4
 70
0
 10
3251.919746239839
 20
7909.311511410705
 10
3419.2256067527
 20
7909.311511410698
 10
3419.2256067527
 20
7906.111831410722
 10
3251.919746239839
 20
7906.111831410729
  0
LWPOLYLINE
  5
12E
330
17
100
AcDbEntity
  8
Painéis
 62
7
370
25
100
AcDbPolyline
 90
4
 70
0
 10
3799.08623162467
 20
7998.644924744039
 10
3803.08623162467
 20
7998.644924744039
 10
3803.08623162467
 20
7870.644924744039
 10
3799.08623162467
 20
7870.644924744039
  0
LWPOLYLINE
  5
12F
330
17
100
AcDbEntity
  8
Madeira
 62
7
370
25
100
AcDbPolyline
 90
4
 70
0
 10
3799.08623162467
 20
7994.244924744037
 10
3799.08623162467
 20
7998.644924744039
 10
3785.08623162467
 20
7998.644924744039
 10
3785.08623162467
 20
7994.244924744037
  0
LWPOLYLINE
  5
130
330
17
100
AcDbEntity
  8
Madeira
 62
7
370
25
100
AcDbPolyline
 90
4
 70
0
 10
3765.08623162467
 20
7870.644924744039
 10
3765.08623162467
 20
7875.044924744033
 10
3785.08623162467
 20
7875.044924744033
 10
3785.08623162467
 20
7870.644924744039
  0
LWPOLYLINE
  5
131
330
17
100
AcDbEntity
  8
Madeira
 62
7
370
25
100
AcDbPolyline
 90
4
 70
0
 10
3799.08623162467
 20
7998.644924744039
 10
3785.08623162467
 20
7998.644924744039
 10
3785.08623162467
 20
7870.644924744039
 10
3799.08623162467
 20
7870.644924744039
  0
LWPOLYLINE
  5
132
330
17
100
AcDbEntity
  8
Madeira
 62
7
370
25
100
AcDbPolyline
 90
4
 70
0
 10
3841.086231624669
 20
7870.644924744039
 10
3841.086231624669
 20
7875.044924744033
 10
3827.086231624669
 20
7875.044924744033
 10
3827.086231624669
 20
7870.644924744039
  0
LWPOLYLINE
  5
133
330
17
100
AcDbEntity
  8
Painéis
 62
7
370
25
100
AcDbPolyline
 90
4
 70
0
 10
3841.086231624669
 20
7875.044924744033
 10
3841.086231624669
 20
7878.644924744039
 10
3803.08623162467
 20
7878.644924744039
 10
3803.08623162467
 20
7875.044924744033
  0
LWPOLYLINE
  5
134
330
17
100
AcDbEntity
  8
Madeira
 62
7
370
25
100
AcDbPolyline
 90
4
 70
0
 10
3803.08623162467
 20
7870.644924744039
 10
3803.08623162467
 20
7875.044924744033
 10
3817.08623162467
 20
7875.044924744033
 10
3817.08623162467
 20
7870.644924744039
  0
LWPOLYLINE
  5
135
330
17
100
AcDbEntity
  8
Painéis
 62
7
370
25
100
AcDbPolyline
 90
4
 70
0
 10
3845.08623162468
 20
7998.644924744039
 10
3841.086231624681
 20
7998.644924744039
 10
3841.086231624669
 20
7870.644924744039
 10
3845.086231624669
 20
7870.644924744039
  0
LWPOLYLINE
  5
136
330
17
100
AcDbEntity
  8
Madeira
 62
7
370
25
100
AcDbPolyline
 90
4
 70
0
 10
3845.08623162468
 20
7994.244924744037
 10
3845.08623162468
 20
7998.644924744039
 10
3859.086231624681
 20
7998.644924744039
 10
3859.086231624681
 20
7994.244924744037
  0
LWPOLYLINE
  5
137
330
17
100
AcDbEntity
  8
Madeira
 62
7
370
25
100
AcDbPolyline
 90
4
 70
0
 10
3879.08623162467
 20
7870.644924744039
 10
3879.08623162467
 20
7875.044924744033
 10
3859.086231624669
 20
7875.044924744033
 10
3859.086231624669
 20
7870.644924744039
  0
LWPOLYLINE
  5
138
330
17
100
AcDbEntity
  8
Madeira
 62
7
370
25
100
AcDbPolyline
 90
4
 70
0
 10
3845.08623162468
 20
7998.644924744039
 10
3859.086231624681
 20
7998.644924744039
 10
3859.086231624669
 20
7870.644924744039
 10
3845.086231624669
 20
7870.644924744039
  0
LWPOLYLINE
  5
139
330
17
100
AcDbEntity
  8
CONCRETO
 62
7
370
25
100
AcDbPolyline
 90
8
 70
0
 10
3803.08623162467
 20
7998.644924744039
 10
3803.08623162467
 20
7998.644924744039
 10
3841.086231624679
 20
7998.644924744039
 10
3841.086231624679
 20
7970.644924744025
 10
3841.086231624669
 20
7970.644924744025
 10
3841.086231624611
 20
7878.644924744039
 10
3803.08623162467
 20
7878.644924744039
 10
3803.08623162467
 20
7998.644924744046
  0
LWPOLYLINE
  5
13A
330
17
100
AcDbEntity
  8
barrote
 62
7
370
25
100
AcDbPolyline
 90
4
 70
0
 10
3731.631033952775
 20
7850.644924744083
 10
3926.81397446247
 20
7850.644924744083
 10
3926.81397446247
 20
7870.644924744039
 10
3731.631033952775
 20
7870.644924744039
  0
LWPOLYLINE
  5
13B
330
17
100
AcDbEntity
  8
SCO-___-LAJ
 62
7
370
25
100
AcDbPolyline
 90
4
 70
0
 10
3740.633301368236
 20
7869.311511410713
 10
3907.939161881097
 20
7869.311511410704
 10
3907.939161881097
 20
7866.111831410728
 10
3740.633301368236
 20
7866.111831410737
  0
ENDSEC
  0
SECTION
  2
OBJECTS
  0
DICTIONARY
  5
A
330
0
100
AcDbDictionary
281
1
  3
ACAD_COLOR
350
B
  3
ACAD_GROUP
350
C
  3
ACAD_LAYOUT
350
D
  3
ACAD_MATERIAL
350
E
  3
ACAD_MLEADERSTYLE
350
F
  3
ACAD_MLINESTYLE
350
10
  3
ACAD_PLOTSETTINGS
350
11
  3
ACAD_PLOTSTYLENAME
350
12
  3
ACAD_SCALELIST
350
14
  3
ACAD_TABLESTYLE
350
15
  3
ACAD_VISUALSTYLE
350
16
  3
EZDXF_META
350
2D
  0
DICTIONARY
  5
B
330
A
100
AcDbDictionary
281
1
  0
DICTIONARY
  5
C
330
A
100
AcDbDictionary
281
1
  0
DICTIONARY
  5
D
330
A
100
AcDbDictionary
281
1
  3
Model
350
1A
  3
Layout1
350
1E
  0
DICTIONARY
  5
E
330
A
100
AcDbDictionary
281
1
  3
ByBlock
350
1F
  3
ByLayer
350
20
  3
Global
350
21
  0
DICTIONARY
  5
F
330
A
100
AcDbDictionary
281
1
  3
Standard
350
2C
  0
DICTIONARY
  5
10
330
A
100
AcDbDictionary
281
1
  3
Standard
350
22
  0
DICTIONARY
  5
11
330
A
100
AcDbDictionary
281
1
  0
ACDBDICTIONARYWDFLT
  5
12
330
A
100
AcDbDictionary
281
1
  3
Normal
350
13
100
AcDbDictionaryWithDefault
340
13
  0
ACDBPLACEHOLDER
  5
13
330
12
  0
DICTIONARY
  5
14
330
A
100
AcDbDictionary
281
1
  0
DICTIONARY
  5
15
330
A
100
AcDbDictionary
281
1
  0
DICTIONARY
  5
16
330
A
100
AcDbDictionary
281
1
  0
LAYOUT
  5
1A
330
D
100
AcDbPlotSettings
  1

  4
A3
  6

 40
7.5
 41
20.0
 42
7.5
 43
20.0
 44
420.0
 45
297.0
 46
0.0
 47
0.0
 48
0.0
 49
0.0
140
0.0
141
0.0
142
1.0
143
1.0
 70
1024
 72
1
 73
0
 74
5
  7

 75
16
 76
0
 77
2
 78
300
147
1.0
148
0.0
149
0.0
100
AcDbLayout
  1
Model
 70
1
 71
0
 10
0.0
 20
0.0
 11
420.0
 21
297.0
 12
0.0
 22
0.0
 32
0.0
 14
1e+20
 24
1e+20
 34
1e+20
 15
-1e+20
 25
-1e+20
 35
-1e+20
146
0.0
 13
0.0
 23
0.0
 33
0.0
 16
1.0
 26
0.0
 36
0.0
 17
0.0
 27
1.0
 37
0.0
 76
1
330
17
  0
LAYOUT
  5
1E
330
D
100
AcDbPlotSettings
  1

  4
A3
  6

 40
7.5
 41
20.0
 42
7.5
 43
20.0
 44
420.0
 45
297.0
 46
0.0
 47
0.0
 48
0.0
 49
0.0
140
0.0
141
0.0
142
1.0
143
1.0
 70
0
 72
1
 73
0
 74
5
  7

 75
16
 76
0
 77
2
 78
300
147
1.0
148
0.0
149
0.0
100
AcDbLayout
  1
Layout1
 70
1
 71
1
 10
0.0
 20
0.0
 11
420.0
 21
297.0
 12
0.0
 22
0.0
 32
0.0
 14
1e+20
 24
1e+20
 34
1e+20
 15
-1e+20
 25
-1e+20
 35
-1e+20
146
0.0
 13
0.0
 23
0.0
 33
0.0
 16
1.0
 26
0.0
 36
0.0
 17
0.0
 27
1.0
 37
0.0
 76
1
330
1B
  0
MATERIAL
  5
1F
102
{ACAD_REACTORS
330
E
102
}
330
E
100
AcDbMaterial
  1
ByBlock
  2

 70
0
 40
1.0
 71
1
 41
1.0
 91
-1023410177
 42
1.0
 72
1
  3

 73
1
 74
1
 75
1
 44
0.5
 73
0
 45
1.0
 46
1.0
 77
1
  4

 78
1
 79
1
170
1
 48
1.0
171
1
  6

172
1
173
1
174
1
140
1.0
141
1.0
175
1
  7

176
1
177
1
178
1
143
1.0
179
1
  8

270
1
271
1
272
1
145
1.0
146
1.0
273
1
  9

274
1
275
1
276
1
 42
1.0
 72
1
  3

 73
1
 74
1
 75
1
 94
63
  0
MATERIAL
  5
20
102
{ACAD_REACTORS
330
E
102
}
330
E
100
AcDbMaterial
  1
ByLayer
  2

 70
0
 40
1.0
 71
1
 41
1.0
 91
-1023410177
 42
1.0
 72
1
  3

 73
1
 74
1
 75
1
 44
0.5
 73
0
 45
1.0
 46
1.0
 77
1
  4

 78
1
 79
1
170
1
 48
1.0
171
1
  6

172
1
173
1
174
1
140
1.0
141
1.0
175
1
  7

176
1
177
1
178
1
143
1.0
179
1
  8

270
1
271
1
272
1
145
1.0
146
1.0
273
1
  9

274
1
275
1
276
1
 42
1.0
 72
1
  3

 73
1
 74
1
 75
1
 94
63
  0
MATERIAL
  5
21
102
{ACAD_REACTORS
330
E
102
}
330
E
100
AcDbMaterial
  1
Global
  2

 70
0
 40
1.0
 71
1
 41
1.0
 91
-1023410177
 42
1.0
 72
1
  3

 73
1
 74
1
 75
1
 44
0.5
 73
0
 45
1.0
 46
1.0
 77
1
  4

 78
1
 79
1
170
1
 48
1.0
171
1
  6

172
1
173
1
174
1
140
1.0
141
1.0
175
1
  7

176
1
177
1
178
1
143
1.0
179
1
  8

270
1
271
1
272
1
145
1.0
146
1.0
273
1
  9

274
1
275
1
276
1
 42
1.0
 72
1
  3

 73
1
 74
1
 75
1
 94
63
  0
MLINESTYLE
  5
22
102
{ACAD_REACTORS
330
10
102
}
330
10
100
AcDbMlineStyle
  2
Standard
 70
0
  3

 62
256
 51
90.0
 52
90.0
 71
2
 49
0.5
 62
256
  6
BYLAYER
 49
-0.5
 62
256
  6
BYLAYER
  0
MLEADERSTYLE
  5
2C
102
{ACAD_REACTORS
330
F
102
}
330
F
100
AcDbMLeaderStyle
179
2
170
2
171
1
172
0
 90
2
 40
0.0
 41
0.0
173
1
 91
-1056964608
 92
-2
290
1
 42
2.0
291
1
 43
8.0
  3
Standard
 44
4.0
300

342
29
174
1
175
1
176
0
178
1
 93
-1056964608
 45
4.0
292
0
297
0
 46
4.0
 94
-1056964608
 47
1.0
 49
1.0
140
1.0
294
1
141
0.0
177
0
142
1.0
295
0
296
0
143
3.75
271
0
272
9
273
9
  0
DICTIONARY
  5
2D
330
A
100
AcDbDictionary
280
1
281
1
  3
CREATED_BY_EZDXF
350
2E
  3
WRITTEN_BY_EZDXF
350
13E
  0
DICTIONARYVAR
  5
2E
330
2D
100
DictionaryVariables
280
0
  1
1.4.3 @ 2026-06-10T03:13:13.233603+00:00
  0
DICTIONARYVAR
  5
13E
330
2D
100
DictionaryVariables
280
0
  1
1.4.3 @ 2026-06-10T03:13:13.242547+00:00
  0
ENDSEC
  0
EOF
