  0
SECTION
  2
HEADER
  9
$ACADVER
  1
AC1024
  9
$ACADMAINTVER
 70
6
  9
$DWGCODEPAGE
  3
ANSI_1252
  9
$LASTSAVEDBY
  1
ezdxf
  9
$INSBASE
 10
0.0
 20
0.0
 30
0.0
  9
$EXTMIN
 10
1e+20
 20
1e+20
 30
1e+20
  9
$EXTMAX
 10
-1e+20
 20
-1e+20
 30
-1e+20
  9
$LIMMIN
 10
0.0
 20
0.0
  9
$LIMMAX
 10
420.0
 20
297.0
  9
$ORTHOMODE
 70
0
  9
$REGENMODE
 70
1
  9
$FILLMODE
 70
1
  9
$QTEXTMODE
 70
0
  9
$MIRRTEXT
 70
1
  9
$LTSCALE
 40
1.0
  9
$ATTMODE
 70
1
  9
$TEXTSIZE
 40
2.5
  9
$TRACEWID
 40
1.0
  9
$TEXTSTYLE
  7
Standard
  9
$CLAYER
  8
0
  9
$CELTYPE
  6
ByLayer
  9
$CECOLOR
 62
256
  9
$CELTSCALE
 40
1.0
  9
$DISPSILH
 70
0
  9
$DIMSCALE
 40
1.0
  9
$DIMASZ
 40
2.5
  9
$DIMEXO
 40
0.625
  9
$DIMDLI
 40
3.75
  9
$DIMRND
 40
0.0
  9
$DIMDLE
 40
0.0
  9
$DIMEXE
 40
1.25
  9
$DIMTP
 40
0.0
  9
$DIMTM
 40
0.0
  9
$DIMTXT
 40
2.5
  9
$DIMCEN
 40
2.5
  9
$DIMTSZ
 40
0.0
  9
$DIMTOL
 70
0
  9
$DIMLIM
 70
0
  9
$DIMTIH
 70
0
  9
$DIMTOH
 70
0
  9
$DIMSE1
 70
0
  9
$DIMSE2
 70
0
  9
$DIMTAD
 70
1
  9
$DIMZIN
 70
8
  9
$DIMBLK
  1

  9
$DIMASO
 70
1
  9
$DIMSHO
 70
1
  9
$DIMPOST
  1

  9
$DIMAPOST
  1

  9
$DIMALT
 70
0
  9
$DIMALTD
 70
3
  9
$DIMALTF
 40
0.03937007874
  9
$DIMLFAC
 40
1.0
  9
$DIMTOFL
 70
1
  9
$DIMTVP
 40
0.0
  9
$DIMTIX
 70
0
  9
$DIMSOXD
 70
0
  9
$DIMSAH
 70
0
  9
$DIMBLK1
  1

  9
$DIMBLK2
  1

  9
$DIMSTYLE
  2
ISO-25
  9
$DIMCLRD
 70
0
  9
$DIMCLRE
 70
0
  9
$DIMCLRT
 70
0
  9
$DIMTFAC
 40
1.0
  9
$DIMGAP
 40
0.625
  9
$DIMJUST
 70
0
  9
$DIMSD1
 70
0
  9
$DIMSD2
 70
0
  9
$DIMTOLJ
 70
0
  9
$DIMTZIN
 70
8
  9
$DIMALTZ
 70
0
  9
$DIMALTTZ
 70
0
  9
$DIMUPT
 70
0
  9
$DIMDEC
 70
2
  9
$DIMTDEC
 70
2
  9
$DIMALTU
 70
2
  9
$DIMALTTD
 70
3
  9
$DIMTXSTY
  7
Standard
  9
$DIMAUNIT
 70
0
  9
$DIMADEC
 70
0
  9
$DIMALTRND
 40
0.0
  9
$DIMAZIN
 70
0
  9
$DIMDSEP
 70
44
  9
$DIMATFIT
 70
3
  9
$DIMFRAC
 70
0
  9
$DIMLDRBLK
  1

  9
$DIMLUNIT
 70
2
  9
$DIMLWD
 70
-2
  9
$DIMLWE
 70
-2
  9
$DIMTMOVE
 70
0
  9
$DIMFXL
 40
1.0
  9
$DIMFXLON
 70
0
  9
$DIMJOGANG
 40
0.785398163397
  9
$DIMTFILL
 70
0
  9
$DIMTFILLCLR
 70
0
  9
$DIMARCSYM
 70
0
  9
$DIMLTYPE
  6

  9
$DIMLTEX1
  6

  9
$DIMLTEX2
  6

  9
$DIMTXTDIRECTION
 70
0
  9
$LUNITS
 70
2
  9
$LUPREC
 70
4
  9
$SKETCHINC
 40
1.0
  9
$FILLETRAD
 40
10.0
  9
$AUNITS
 70
0
  9
$AUPREC
 70
2
  9
$MENU
  1
.
  9
$ELEVATION
 40
0.0
  9
$PELEVATION
 40
0.0
  9
$THICKNESS
 40
0.0
  9
$LIMCHECK
 70
0
  9
$CHAMFERA
 40
0.0
  9
$CHAMFERB
 40
0.0
  9
$CHAMFERC
 40
0.0
  9
$CHAMFERD
 40
0.0
  9
$SKPOLY
 70
0
  9
$TDCREATE
 40
2461202.009178241
  9
$TDUCREATE
 40
2458532.153996898
  9
$TDUPDATE
 40
2461202.009178241
  9
$TDUUPDATE
 40
2458532.1544311
  9
$TDINDWG
 40
0.0
  9
$TDUSRTIMER
 40
0.0
  9
$USRTIMER
 70
1
  9
$ANGBASE
 50
0.0
  9
$ANGDIR
 70
0
  9
$PDMODE
 70
0
  9
$PDSIZE
 40
0.0
  9
$PLINEWID
 40
0.0
  9
$SPLFRAME
 70
0
  9
$SPLINETYPE
 70
6
  9
$SPLINESEGS
 70
8
  9
$HANDSEED
  5
139
  9
$SURFTAB1
 70
6
  9
$SURFTAB2
 70
6
  9
$SURFTYPE
 70
6
  9
$SURFU
 70
6
  9
$SURFV
 70
6
  9
$UCSBASE
  2

  9
$UCSNAME
  2

  9
$UCSORG
 10
0.0
 20
0.0
 30
0.0
  9
$UCSXDIR
 10
1.0
 20
0.0
 30
0.0
  9
$UCSYDIR
 10
0.0
 20
1.0
 30
0.0
  9
$UCSORTHOREF
  2

  9
$UCSORTHOVIEW
 70
0
  9
$UCSORGTOP
 10
0.0
 20
0.0
 30
0.0
  9
$UCSORGBOTTOM
 10
0.0
 20
0.0
 30
0.0
  9
$UCSORGLEFT
 10
0.0
 20
0.0
 30
0.0
  9
$UCSORGRIGHT
 10
0.0
 20
0.0
 30
0.0
  9
$UCSORGFRONT
 10
0.0
 20
0.0
 30
0.0
  9
$UCSORGBACK
 10
0.0
 20
0.0
 30
0.0
  9
$PUCSBASE
  2

  9
$PUCSNAME
  2

  9
$PUCSORG
 10
0.0
 20
0.0
 30
0.0
  9
$PUCSXDIR
 10
1.0
 20
0.0
 30
0.0
  9
$PUCSYDIR
 10
0.0
 20
1.0
 30
0.0
  9
$PUCSORTHOREF
  2

  9
$PUCSORTHOVIEW
 70
0
  9
$PUCSORGTOP
 10
0.0
 20
0.0
 30
0.0
  9
$PUCSORGBOTTOM
 10
0.0
 20
0.0
 30
0.0
  9
$PUCSORGLEFT
 10
0.0
 20
0.0
 30
0.0
  9
$PUCSORGRIGHT
 10
0.0
 20
0.0
 30
0.0
  9
$PUCSORGFRONT
 10
0.0
 20
0.0
 30
0.0
  9
$PUCSORGBACK
 10
0.0
 20
0.0
 30
0.0
  9
$USERI1
 70
0
  9
$USERI2
 70
0
  9
$USERI3
 70
0
  9
$USERI4
 70
0
  9
$USERI5
 70
0
  9
$USERR1
 40
0.0
  9
$USERR2
 40
0.0
  9
$USERR3
 40
0.0
  9
$USERR4
 40
0.0
  9
$USERR5
 40
0.0
  9
$WORLDVIEW
 70
1
  9
$SHADEDGE
 70
3
  9
$SHADEDIF
 70
70
  9
$TILEMODE
 70
1
  9
$MAXACTVP
 70
64
  9
$PINSBASE
 10
0.0
 20
0.0
 30
0.0
  9
$PLIMCHECK
 70
0
  9
$PEXTMIN
 10
1e+20
 20
1e+20
 30
1e+20
  9
$PEXTMAX
 10
-1e+20
 20
-1e+20
 30
-1e+20
  9
$PLIMMIN
 10
0.0
 20
0.0
  9
$PLIMMAX
 10
420.0
 20
297.0
  9
$UNITMODE
 70
0
  9
$VISRETAIN
 70
1
  9
$PLINEGEN
 70
0
  9
$PSLTSCALE
 70
1
  9
$TREEDEPTH
 70
3020
  9
$CMLSTYLE
  2
Standard
  9
$CMLJUST
 70
0
  9
$CMLSCALE
 40
20.0
  9
$PROXYGRAPHICS
 70
1
  9
$MEASUREMENT
 70
1
  9
$CELWEIGHT
370
-1
  9
$ENDCAPS
280
0
  9
$JOINSTYLE
280
0
  9
$LWDISPLAY
290
0
  9
$INSUNITS
 70
6
  9
$HYPERLINKBASE
  1

  9
$STYLESHEET
  1

  9
$XEDIT
290
1
  9
$CEPSNTYPE
380
0
  9
$PSTYLEMODE
290
1
  9
$FINGERPRINTGUID
  2
{96C5711C-8D31-42CF-8416-F4231C3974BF}
  9
$VERSIONGUID
  2
{E4D44B9C-AE3F-46A2-ACF7-12FA783E74D1}
  9
$EXTNAMES
290
1
  9
$PSVPSCALE
 40
0.0
  9
$OLESTARTUP
290
0
  9
$SORTENTS
280
127
  9
$INDEXCTL
280
0
  9
$HIDETEXT
280
1
  9
$XCLIPFRAME
280
1
  9
$HALOGAP
280
0
  9
$OBSCOLOR
 70
257
  9
$OBSLTYPE
280
0
  9
$INTERSECTIONDISPLAY
280
0
  9
$INTERSECTIONCOLOR
 70
257
  9
$DIMASSOC
280
2
  9
$PROJECTNAME
  1

  9
$CAMERADISPLAY
290
0
  9
$LENSLENGTH
 40
50.0
  9
$CAMERAHEIGHT
 40
0.0
  9
$STEPSPERSEC
 40
24.0
  9
$STEPSIZE
 40
100.0
  9
$3DDWFPREC
 40
2.0
  9
$PSOLWIDTH
 40
0.005
  9
$PSOLHEIGHT
 40
0.08
  9
$LOFTANG1
 40
1.570796326795
  9
$LOFTANG2
 40
1.570796326795
  9
$LOFTMAG1
 40
0.0
  9
$LOFTMAG2
 40
0.0
  9
$LOFTPARAM
 70
7
  9
$LOFTNORMALS
280
1
  9
$LATITUDE
 40
37.795
  9
$LONGITUDE
 40
-122.394
  9
$NORTHDIRECTION
 40
0.0
  9
$TIMEZONE
 70
-8000
  9
$LIGHTGLYPHDISPLAY
280
1
  9
$TILEMODELIGHTSYNCH
280
1
  9
$CMATERIAL
347
20
  9
$SOLIDHIST
280
0
  9
$SHOWHIST
280
1
  9
$DWFFRAME
280
2
  9
$DGNFRAME
280
2
  9
$REALWORLDSCALE
290
1
  9
$INTERFERECOLOR
 62
256
  9
$CSHADOW
280
0
  9
$SHADOWPLANELOCATION
 40
0.0
  0
ENDSEC
  0
SECTION
  2
CLASSES
  0
CLASS
  1
ACDBDICTIONARYWDFLT
  2
AcDbDictionaryWithDefault
  3
ObjectDBX Classes
 90
0
 91
0
280
0
281
0
  0
CLASS
  1
SUN
  2
AcDbSun
  3
SCENEOE
 90
1153
 91
0
280
0
281
0
  0
CLASS
  1
VISUALSTYLE
  2
AcDbVisualStyle
  3
ObjectDBX Classes
 90
4095
 91
0
280
0
281
0
  0
CLASS
  1
MATERIAL
  2
AcDbMaterial
  3
ObjectDBX Classes
 90
1153
 91
0
280
0
281
0
  0
CLASS
  1
SCALE
  2
AcDbScale
  3
ObjectDBX Classes
 90
1153
 91
0
280
0
281
0
  0
CLASS
  1
TABLESTYLE
  2
AcDbTableStyle
  3
ObjectDBX Classes
 90
4095
 91
0
280
0
281
0
  0
CLASS
  1
MLEADERSTYLE
  2
AcDbMLeaderStyle
  3
ACDB_MLEADERSTYLE_CLASS
 90
4095
 91
0
280
0
281
0
  0
CLASS
  1
DICTIONARYVAR
  2
AcDbDictionaryVar
  3
ObjectDBX Classes
 90
0
 91
0
280
0
281
0
  0
CLASS
  1
CELLSTYLEMAP
  2
AcDbCellStyleMap
  3
ObjectDBX Classes
 90
1152
 91
0
280
0
281
0
  0
CLASS
  1
MENTALRAYRENDERSETTINGS
  2
AcDbMentalRayRenderSettings
  3
SCENEOE
 90
1024
 91
0
280
0
281
0
  0
CLASS
  1
ACDBDETAILVIEWSTYLE
  2
AcDbDetailViewStyle
  3
ObjectDBX Classes
 90
1025
 91
0
280
0
281
0
  0
CLASS
  1
ACDBSECTIONVIEWSTYLE
  2
AcDbSectionViewStyle
  3
ObjectDBX Classes
 90
1025
 91
0
280
0
281
0
  0
CLASS
  1
RASTERVARIABLES
  2
AcDbRasterVariables
  3
ISM
 90
0
 91
0
280
0
281
0
  0
CLASS
  1
ACDBPLACEHOLDER
  2
AcDbPlaceHolder
  3
ObjectDBX Classes
 90
0
 91
0
280
0
281
0
  0
CLASS
  1
LAYOUT
  2
AcDbLayout
  3
ObjectDBX Classes
 90
0
 91
0
280
0
281
0
  0
ENDSEC
  0
SECTION
  2
TABLES
  0
TABLE
  2
VPORT
  5
8
330
0
100
AcDbSymbolTable
 70
1
  0
VPORT
  5
23
330
8
100
AcDbSymbolTableRecord
100
AcDbViewportTableRecord
  2
*Active
 70
0
 10
0.0
 20
0.0
 11
1.0
 21
1.0
 12
0.0
 22
0.0
 13
0.0
 23
0.0
 14
0.5
 24
0.5
 15
0.5
 25
0.5
 16
0.0
 26
0.0
 36
1.0
 17
0.0
 27
0.0
 37
0.0
 40
1000.0
 41
1.34
 42
50.0
 43
0.0
 44
0.0
 50
0.0
 51
0.0
 71
0
 72
1000
 73
1
 74
3
 75
0
 76
0
 77
0
 78
0
281
0
 65
0
146
0.0
  0
ENDTAB
  0
TABLE
  2
LTYPE
  5
2
330
0
100
AcDbSymbolTable
 70
3
  0
LTYPE
  5
24
330
2
100
AcDbSymbolTableRecord
100
AcDbLinetypeTableRecord
  2
ByBlock
 70
0
  3

 72
65
 73
0
 40
0.0
  0
LTYPE
  5
25
330
2
100
AcDbSymbolTableRecord
100
AcDbLinetypeTableRecord
  2
ByLayer
 70
0
  3

 72
65
 73
0
 40
0.0
  0
LTYPE
  5
26
330
2
100
AcDbSymbolTableRecord
100
AcDbLinetypeTableRecord
  2
Continuous
 70
0
  3

 72
65
 73
0
 40
0.0
  0
ENDTAB
  0
TABLE
  2
LAYER
  5
1
330
0
100
AcDbSymbolTable
 70
11
  0
LAYER
  5
27
330
1
100
AcDbSymbolTableRecord
100
AcDbLayerTableRecord
  2
0
 70
0
 62
7
  6
Continuous
370
-3
390
13
347
21
  0
LAYER
  5
28
330
1
100
AcDbSymbolTableRecord
100
AcDbLayerTableRecord
  2
Defpoints
 70
0
 62
7
  6
Continuous
290
0
370
-3
390
13
347
21
  0
LAYER
  5
2F
330
1
100
AcDbSymbolTableRecord
100
AcDbLayerTableRecord
  2
TENSOR
 70
0
 62
7
  6
Continuous
370
-3
390
13
347
21
  0
LAYER
  5
30
330
1
100
AcDbSymbolTableRecord
100
AcDbLayerTableRecord
  2
SARR_3.5x7
 70
0
 62
7
  6
Continuous
370
-3
390
13
347
21
  0
LAYER
  5
31
330
1
100
AcDbSymbolTableRecord
100
AcDbLayerTableRecord
  2
SCO-___-LAJ
 70
0
 62
7
  6
Continuous
370
-3
390
13
347
21
  0
LAYER
  5
32
330
1
100
AcDbSymbolTableRecord
100
AcDbLayerTableRecord
  2
SARR_2.2x7
 70
0
 62
7
  6
Continuous
370
-3
390
13
347
21
  0
LAYER
  5
33
330
1
100
AcDbSymbolTableRecord
100
AcDbLayerTableRecord
  2
COTA
 70
0
 62
7
  6
Continuous
370
-3
390
13
347
21
  0
LAYER
  5
34
330
1
100
AcDbSymbolTableRecord
100
AcDbLayerTableRecord
  2
CONCRETO
 70
0
 62
7
  6
Continuous
370
-3
390
13
347
21
  0
LAYER
  5
35
330
1
100
AcDbSymbolTableRecord
100
AcDbLayerTableRecord
  2
barrote
 70
0
 62
7
  6
Continuous
370
-3
390
13
347
21
  0
LAYER
  5
36
330
1
100
AcDbSymbolTableRecord
100
AcDbLayerTableRecord
  2
Painéis
 70
0
 62
7
  6
Continuous
370
-3
390
13
347
21
  0
LAYER
  5
37
330
1
100
AcDbSymbolTableRecord
100
AcDbLayerTableRecord
  2
Madeira
 70
0
 62
7
  6
Continuous
370
-3
390
13
347
21
  0
ENDTAB
  0
TABLE
  2
STYLE
  5
5
330
0
100
AcDbSymbolTable
 70
1
  0
STYLE
  5
29
330
5
100
AcDbSymbolTableRecord
100
AcDbTextStyleTableRecord
  2
Standard
 70
0
 40
0.0
 41
1.0
 50
0.0
 71
0
 42
2.5
  3
txt
  4

  0
ENDTAB
  0
TABLE
  2
VIEW
  5
7
330
0
100
AcDbSymbolTable
 70
0
  0
ENDTAB
  0
TABLE
  2
UCS
  5
6
330
0
100
AcDbSymbolTable
 70
0
  0
ENDTAB
  0
TABLE
  2
APPID
  5
3
330
0
100
AcDbSymbolTable
 70
3
  0
APPID
  5
2A
330
3
100
AcDbSymbolTableRecord
100
AcDbRegAppTableRecord
  2
ACAD
 70
0
  0
APPID
  5
136
330
3
100
AcDbSymbolTableRecord
100
AcDbRegAppTableRecord
  2
HATCHBACKGROUNDCOLOR
 70
0
  0
APPID
  5
137
330
3
100
AcDbSymbolTableRecord
100
AcDbRegAppTableRecord
  2
EZDXF
 70
0
  0
ENDTAB
  0
TABLE
  2
DIMSTYLE
  5
4
330
0
100
AcDbSymbolTable
 70
1
100
AcDbDimStyleTable
  0
DIMSTYLE
105
2B
330
4
100
AcDbSymbolTableRecord
100
AcDbDimStyleTableRecord
  2
Standard
 70
0
 40
1.0
 41
2.5
 42
0.625
 43
3.75
 44
1.25
 45
0.0
 46
0.0
 47
0.0
 48
0.0
 49
2.5
140
2.5
141
2.5
142
0.0
143
0.03937007874
144
1.0
145
0.0
146
1.0
147
0.625
148
0.0
 69
0
 70
0
 71
0
 72
0
 73
0
 74
0
 75
0
 76
0
 77
1
 78
8
 79
3
170
0
171
3
172
1
173
0
174
0
175
0
176
0
177
0
178
0
179
2
271
2
272
2
273
2
274
3
275
0
276
0
277
2
278
44
279
0
280
0
281
0
282
0
283
0
284
8
285
0
286
0
288
0
289
3
290
0
371
-2
372
-2
  0
ENDTAB
  0
TABLE
  2
BLOCK_RECORD
  5
9
330
0
100
AcDbSymbolTable
 70
2
  0
BLOCK_RECORD
  5
17
330
9
100
AcDbSymbolTableRecord
100
AcDbBlockTableRecord
  2
*Model_Space
340
1A
 70
0
280
1
281
0
  0
BLOCK_RECORD
  5
1B
330
9
100
AcDbSymbolTableRecord
100
AcDbBlockTableRecord
  2
*Paper_Space
340
1E
 70
0
280
1
281
0
  0
ENDTAB
  0
ENDSEC
  0
SECTION
  2
BLOCKS
  0
BLOCK
  5
18
330
17
100
AcDbEntity
  8
0
100
AcDbBlockBegin
  2
*Model_Space
 70
0
 10
0.0
 20
0.0
 30
0.0
  3
*Model_Space
  1

  0
ENDBLK
  5
19
330
17
100
AcDbEntity
  8
0
100
AcDbBlockEnd
  0
BLOCK
  5
1C
330
1B
100
AcDbEntity
  8
0
100
AcDbBlockBegin
  2
*Paper_Space
 70
0
 10
0.0
 20
0.0
 30
0.0
  3
*Paper_Space
  1

  0
ENDBLK
  5
1D
330
1B
100
AcDbEntity
  8
0
100
AcDbBlockEnd
  0
ENDSEC
  0
SECTION
  2
ENTITIES
  0
LINE
  5
38
330
17
100
AcDbEntity
  8
Painéis
 62
7
370
25
100
AcDbLine
 10
6474.471497100005
 20
5578.83359473102
 30
0.0
 11
6474.471497100005
 21
5696.833594730969
 31
0.0
  0
LINE
  5
39
330
17
100
AcDbEntity
  8
SARR_3.5x7
 62
7
370
25
100
AcDbLine
 10
6459.471497100004
 20
5696.833594730967
 30
0.0
 11
6459.471497099933
 21
5578.833594731022
 31
0.0
  0
LINE
  5
3A
330
17
100
AcDbEntity
  8
SARR_3.5x7
 62
7
370
25
100
AcDbLine
 10
5093.232902432538
 20
5339.313738401542
 30
0.0
 11
5093.232902432614
 21
5207.513738401502
 31
0.0
  0
LINE
  5
3B
330
17
100
AcDbEntity
  8
SARR_3.5x7
 62
7
370
25
100
AcDbLine
 10
4971.232902432499
 20
5339.313738401544
 30
0.0
 11
4971.232902432576
 21
5207.513738401504
 31
0.0
  0
LINE
  5
3C
330
17
100
AcDbEntity
  8
0
 62
7
370
25
100
AcDbLine
 10
5037.460914822043
 20
5489.464766898962
 30
0.0
 11
5037.460914822043
 21
5477.464766898963
 31
0.0
  0
LINE
  5
3D
330
17
100
AcDbEntity
  8
0
 62
7
370
25
100
AcDbLine
 10
5255.460914822072
 20
5486.464766898977
 30
0.0
 11
5255.460914822072
 21
5480.464766898977
 31
0.0
  0
LINE
  5
3E
330
17
100
AcDbEntity
  8
0
 62
7
370
25
100
AcDbLine
 10
5253.460914822071
 20
5489.464766898977
 30
0.0
 11
5253.460914822071
 21
5477.464766898977
 31
0.0
  0
LINE
  5
3F
330
17
100
AcDbEntity
  8
0
 62
7
370
25
100
AcDbLine
 10
5253.460914822071
 20
5480.464766898977
 30
0.0
 11
5255.460914822072
 21
5480.464766898977
 31
0.0
  0
LINE
  5
40
330
17
100
AcDbEntity
  8
0
 62
7
370
25
100
AcDbLine
 10
5037.460914822043
 20
5477.464766898963
 30
0.0
 11
5067.460914822042
 21
5477.464766898963
 31
0.0
  0
LINE
  5
41
330
17
100
AcDbEntity
  8
0
 62
7
370
25
100
AcDbLine
 10
5223.460914822072
 20
5482.464766898978
 30
0.0
 11
5253.460914822071
 21
5482.464766898978
 31
0.0
  0
LINE
  5
42
330
17
100
AcDbEntity
  8
0
 62
7
370
25
100
AcDbLine
 10
5223.460914822072
 20
5484.464766898977
 30
0.0
 11
5253.460914822071
 21
5484.464766898977
 31
0.0
  0
LINE
  5
43
330
17
100
AcDbEntity
  8
TENSOR
 62
7
370
25
100
AcDbLine
 10
5258.460914822071
 20
5483.464766898963
 30
0.0
 11
5032.157620643944
 21
5483.464766898963
 31
0.0
  0
LINE
  5
44
330
17
100
AcDbEntity
  8
0
 62
7
370
25
100
AcDbLine
 10
5253.460914822071
 20
5486.464766898977
 30
0.0
 11
5255.460914822072
 21
5486.464766898977
 31
0.0
  0
LINE
  5
45
330
17
100
AcDbEntity
  8
0
 62
7
370
25
100
AcDbLine
 10
5067.460914822042
 20
5482.464766898963
 30
0.0
 11
5037.460914822043
 21
5482.464766898963
 31
0.0
  0
LINE
  5
46
330
17
100
AcDbEntity
  8
0
 62
7
370
25
100
AcDbLine
 10
5067.460914822042
 20
5484.464766898963
 30
0.0
 11
5037.460914822043
 21
5484.464766898963
 31
0.0
  0
LINE
  5
47
330
17
100
AcDbEntity
  8
0
 62
7
370
25
100
AcDbLine
 10
5037.460914822043
 20
5489.464766898962
 30
0.0
 11
5067.460914822042
 21
5489.464766898962
 31
0.0
  0
LINE
  5
48
330
17
100
AcDbEntity
  8
0
 62
7
370
25
100
AcDbLine
 10
5253.460914822071
 20
5477.464766898977
 30
0.0
 11
5223.460914822072
 21
5477.464766898977
 31
0.0
  0
LINE
  5
49
330
17
100
AcDbEntity
  8
0
 62
7
370
25
100
AcDbLine
 10
5253.460914822071
 20
5489.464766898977
 30
0.0
 11
5223.460914822072
 21
5489.464766898977
 31
0.0
  0
LINE
  5
4A
330
17
100
AcDbEntity
  8
0
 62
7
370
25
100
AcDbLine
 10
5035.460914822042
 20
5486.464766898962
 30
0.0
 11
5035.460914822042
 21
5480.464766898963
 31
0.0
  0
LINE
  5
4B
330
17
100
AcDbEntity
  8
0
 62
7
370
25
100
AcDbLine
 10
5037.460914822043
 20
5480.464766898963
 30
0.0
 11
5035.460914822042
 21
5480.464766898963
 31
0.0
  0
LINE
  5
4C
330
17
100
AcDbEntity
  8
0
 62
7
370
25
100
AcDbLine
 10
5035.460914822042
 20
5486.464766898962
 30
0.0
 11
5037.460914822043
 21
5486.464766898962
 31
0.0
  0
LINE
  5
4D
330
17
100
AcDbEntity
  8
COTA
 62
7
370
25
100
AcDbLine
 10
4971.232902432537
 20
5341.513738401344
 30
0.0
 11
4503.232902432528
 21
5341.513738401411
 31
0.0
  0
LINE
  5
4E
330
17
100
AcDbEntity
  8
COTA
 62
7
370
25
100
AcDbLine
 10
4782.232902432537
 20
5327.513738401371
 30
0.0
 11
4782.232902432537
 21
5341.513738401372
 31
0.0
  0
LINE
  5
4F
330
17
100
AcDbEntity
  8
COTA
 62
7
370
25
100
AcDbLine
 10
4503.232902432528
 20
5327.513738401411
 30
0.0
 11
4503.232902432528
 21
5341.513738401411
 31
0.0
  0
LINE
  5
50
330
17
100
AcDbEntity
  8
SARR_2.2x7
 62
7
370
25
100
AcDbLine
 10
4518.232902432532
 20
5325.313738401415
 30
0.0
 11
4625.232902432531
 21
5325.313738401429
 31
0.0
  0
LINE
  5
51
330
17
100
AcDbEntity
  8
SARR_2.2x7
 62
7
370
25
100
AcDbLine
 10
4625.232902432531
 20
5325.313738401429
 30
0.0
 11
4782.232902432536
 21
5325.313738401444
 31
0.0
  0
LINE
  5
52
330
17
100
AcDbEntity
  8
SARR_2.2x7
 62
7
370
25
100
AcDbLine
 10
4510.232902432529
 20
5277.51373840136
 30
0.0
 11
4510.232902432529
 21
5327.513738401411
 31
0.0
  0
LINE
  5
53
330
17
100
AcDbEntity
  8
SARR_3.5x7
 62
7
370
25
100
AcDbLine
 10
4628.73290243256
 20
5325.313738401472
 30
0.0
 11
4628.732902432588
 21
5277.513738401375
 31
0.0
  0
LINE
  5
54
330
17
100
AcDbEntity
  8
SARR_3.5x7
 62
7
370
25
100
AcDbLine
 10
4621.732902432473
 20
5325.313738401531
 30
0.0
 11
4621.732902432443
 21
5277.513738401375
 31
0.0
  0
LINE
  5
55
330
17
100
AcDbEntity
  8
SARR_3.5x7
 62
7
370
25
100
AcDbLine
 10
4518.232902432529
 20
5327.513738401426
 30
0.0
 11
4518.232902432529
 21
5277.51373840136
 31
0.0
  0
LINE
  5
56
330
17
100
AcDbEntity
  8
SARR_3.5x7
 62
7
370
25
100
AcDbLine
 10
4521.732902432531
 20
5325.313738401429
 30
0.0
 11
4521.73290243253
 21
5277.51373840136
 31
0.0
  0
LINE
  5
57
330
17
100
AcDbEntity
  8
SARR_3.5x7
 62
7
370
25
100
AcDbLine
 10
4625.232902432531
 20
5325.313738401429
 30
0.0
 11
4625.23290243253
 21
5277.513738401389
 31
0.0
  0
LINE
  5
58
330
17
100
AcDbEntity
  8
SARR_3.5x7
 62
7
370
25
100
AcDbLine
 10
4621.732902432443
 20
5277.513738401375
 30
0.0
 11
4625.23290243253
 21
5277.513738401375
 31
0.0
  0
LINE
  5
59
330
17
100
AcDbEntity
  8
SARR_3.5x7
 62
7
370
25
100
AcDbLine
 10
4625.23290243253
 20
5277.513738401375
 30
0.0
 11
4628.732902432588
 21
5277.513738401375
 31
0.0
  0
LINE
  5
5A
330
17
100
AcDbEntity
  8
SARR_3.5x7
 62
7
370
25
100
AcDbLine
 10
4518.232902432529
 20
5277.51373840136
 30
0.0
 11
4521.73290243253
 21
5277.51373840136
 31
0.0
  0
LINE
  5
5B
330
17
100
AcDbEntity
  8
Painéis
 62
7
370
25
100
AcDbLine
 10
4503.232902432528
 20
5327.513738401411
 30
0.0
 11
4782.23290243253
 21
5327.513738401437
 31
0.0
  0
LINE
  5
5C
330
17
100
AcDbEntity
  8
Painéis
 62
7
370
25
100
AcDbLine
 10
4503.23290243253
 20
5277.51373840136
 30
0.0
 11
4782.23290243253
 21
5277.513738401386
 31
0.0
  0
LINE
  5
5D
330
17
100
AcDbEntity
  8
Painéis
 62
7
370
25
100
AcDbLine
 10
4625.23290243253
 20
5277.513738401375
 30
0.0
 11
4625.23290243253
 21
5327.513738401426
 31
0.0
  0
LINE
  5
5E
330
17
100
AcDbEntity
  8
Painéis
 62
7
370
25
100
AcDbLine
 10
4782.23290243253
 20
5277.513738401386
 30
0.0
 11
4782.23290243253
 21
5327.513738401437
 31
0.0
  0
LINE
  5
5F
330
17
100
AcDbEntity
  8
Painéis
 62
7
370
25
100
AcDbLine
 10
4503.23290243253
 20
5277.51373840136
 30
0.0
 11
4503.23290243253
 21
5327.513738401411
 31
0.0
  0
LINE
  5
60
330
17
100
AcDbEntity
  8
SARR_3.5x7
 62
7
370
25
100
AcDbLine
 10
4782.232902432537
 20
5327.513738401428
 30
0.0
 11
4782.23290243253
 21
5277.513738401363
 31
0.0
  0
LINE
  5
61
330
17
100
AcDbEntity
  8
SARR_3.5x7
 62
7
370
25
100
AcDbLine
 10
4778.732902432535
 20
5325.313738401431
 30
0.0
 11
4778.73290243253
 21
5277.513738401363
 31
0.0
  0
LINE
  5
62
330
17
100
AcDbEntity
  8
Painéis
 62
7
370
25
100
AcDbLine
 10
4782.232902432537
 20
5327.513738401437
 30
0.0
 11
4939.232902432537
 21
5327.513738401457
 31
0.0
  0
LINE
  5
63
330
17
100
AcDbEntity
  8
Painéis
 62
7
370
25
100
AcDbLine
 10
4971.232902432537
 20
5341.51373840146
 30
0.0
 11
5183.232902432537
 21
5341.513738401484
 31
0.0
  0
LINE
  5
64
330
17
100
AcDbEntity
  8
Painéis
 62
7
370
25
100
AcDbLine
 10
5215.232902432537
 20
5327.513738401489
 30
0.0
 11
5372.232902432529
 21
5327.513738401504
 31
0.0
  0
LINE
  5
65
330
17
100
AcDbEntity
  8
Painéis
 62
7
370
25
100
AcDbLine
 10
5372.232902432529
 20
5327.513738401504
 30
0.0
 11
5372.232902432529
 21
5207.513738401504
 31
0.0
  0
LINE
  5
66
330
17
100
AcDbEntity
  8
Painéis
 62
7
370
25
100
AcDbLine
 10
5372.232902432529
 20
5207.513738401504
 30
0.0
 11
4782.23290243253
 21
5207.513738401504
 31
0.0
  0
LINE
  5
67
330
17
100
AcDbEntity
  8
Painéis
 62
7
370
25
100
AcDbLine
 10
4782.23290243253
 20
5207.513738401504
 30
0.0
 11
4782.23290243253
 21
5277.513738401386
 31
0.0
  0
LINE
  5
68
330
17
100
AcDbEntity
  8
SARR_2.2x7
 62
7
370
25
100
AcDbLine
 10
4782.23290243253
 20
5277.513738401363
 30
0.0
 11
4789.232902432529
 21
5277.513738401363
 31
0.0
  0
LINE
  5
69
330
17
100
AcDbEntity
  8
SARR_2.2x7
 62
7
370
25
100
AcDbLine
 10
4789.232902432529
 20
5277.513738401363
 30
0.0
 11
4789.232902432529
 21
5207.513738401504
 31
0.0
  0
LINE
  5
6A
330
17
100
AcDbEntity
  8
SARR_2.2x7
 62
7
370
25
100
AcDbLine
 10
5372.232902432529
 20
5277.513738401363
 30
0.0
 11
5365.23290243253
 21
5277.513738401363
 31
0.0
  0
LINE
  5
6B
330
17
100
AcDbEntity
  8
SARR_2.2x7
 62
7
370
25
100
AcDbLine
 10
5365.23290243253
 20
5277.513738401363
 30
0.0
 11
5365.23290243253
 21
5207.513738401504
 31
0.0
  0
LINE
  5
6C
330
17
100
AcDbEntity
  8
Painéis
 62
7
370
25
100
AcDbLine
 10
4971.232902432539
 20
5277.513738401347
 30
0.0
 11
4939.232902432539
 21
5277.513738401347
 31
0.0
  0
LINE
  5
6D
330
17
100
AcDbEntity
  8
Painéis
 62
7
370
25
100
AcDbLine
 10
4939.232902432539
 20
5277.513738401347
 30
0.0
 11
4939.232902432537
 21
5327.513738401456
 31
0.0
  0
LINE
  5
6E
330
17
100
AcDbEntity
  8
Painéis
 62
7
370
25
100
AcDbLine
 10
5183.232902432537
 20
5341.513738401453
 30
0.0
 11
5183.23290243255
 21
5277.513738401347
 31
0.0
  0
LINE
  5
6F
330
17
100
AcDbEntity
  8
Painéis
 62
7
370
25
100
AcDbLine
 10
5183.23290243255
 20
5277.513738401347
 30
0.0
 11
5215.23290243255
 21
5277.513738401347
 31
0.0
  0
LINE
  5
70
330
17
100
AcDbEntity
  8
Painéis
 62
7
370
25
100
AcDbLine
 10
5215.23290243255
 20
5277.513738401347
 30
0.0
 11
5215.232902432537
 21
5327.513738401456
 31
0.0
  0
LINE
  5
71
330
17
100
AcDbEntity
  8
COTA
 62
7
370
25
100
AcDbLine
 10
5372.232902432522
 20
5327.513738401371
 30
0.0
 11
5372.232902432522
 21
5341.513738401372
 31
0.0
  0
LINE
  5
72
330
17
100
AcDbEntity
  8
COTA
 62
7
370
25
100
AcDbLine
 10
5655.732902432532
 20
5327.513738401411
 30
0.0
 11
5655.732902432532
 21
5341.513738401411
 31
0.0
  0
LINE
  5
73
330
17
100
AcDbEntity
  8
SARR_2.2x7
 62
7
370
25
100
AcDbLine
 10
5640.732902432528
 20
5325.313738401415
 30
0.0
 11
5533.732902432529
 21
5325.313738401429
 31
0.0
  0
LINE
  5
74
330
17
100
AcDbEntity
  8
SARR_2.2x7
 62
7
370
25
100
AcDbLine
 10
5533.732902432529
 20
5325.313738401429
 30
0.0
 11
5372.232902432523
 21
5325.313738401444
 31
0.0
  0
LINE
  5
75
330
17
100
AcDbEntity
  8
SARR_2.2x7
 62
7
370
25
100
AcDbLine
 10
5648.73290243253
 20
5277.51373840136
 30
0.0
 11
5648.73290243253
 21
5327.513738401411
 31
0.0
  0
LINE
  5
76
330
17
100
AcDbEntity
  8
SARR_3.5x7
 62
7
370
25
100
AcDbLine
 10
5530.232902432499
 20
5325.313738401472
 30
0.0
 11
5530.232902432472
 21
5277.513738401375
 31
0.0
  0
LINE
  5
77
330
17
100
AcDbEntity
  8
SARR_3.5x7
 62
7
370
25
100
AcDbLine
 10
5537.232902432586
 20
5325.313738401531
 30
0.0
 11
5537.232902432617
 21
5277.513738401375
 31
0.0
  0
LINE
  5
78
330
17
100
AcDbEntity
  8
SARR_3.5x7
 62
7
370
25
100
AcDbLine
 10
5640.73290243253
 20
5327.513738401426
 30
0.0
 11
5640.73290243253
 21
5277.51373840136
 31
0.0
  0
LINE
  5
79
330
17
100
AcDbEntity
  8
SARR_3.5x7
 62
7
370
25
100
AcDbLine
 10
5637.232902432528
 20
5325.313738401429
 30
0.0
 11
5637.23290243253
 21
5277.51373840136
 31
0.0
  0
LINE
  5
7A
330
17
100
AcDbEntity
  8
SARR_3.5x7
 62
7
370
25
100
AcDbLine
 10
5533.732902432529
 20
5325.313738401429
 30
0.0
 11
5533.73290243253
 21
5277.513738401389
 31
0.0
  0
LINE
  5
7B
330
17
100
AcDbEntity
  8
SARR_3.5x7
 62
7
370
25
100
AcDbLine
 10
5537.232902432617
 20
5277.513738401375
 30
0.0
 11
5533.73290243253
 21
5277.513738401375
 31
0.0
  0
LINE
  5
7C
330
17
100
AcDbEntity
  8
SARR_3.5x7
 62
7
370
25
100
AcDbLine
 10
5533.73290243253
 20
5277.513738401375
 30
0.0
 11
5530.232902432472
 21
5277.513738401375
 31
0.0
  0
LINE
  5
7D
330
17
100
AcDbEntity
  8
SARR_3.5x7
 62
7
370
25
100
AcDbLine
 10
5640.73290243253
 20
5277.51373840136
 30
0.0
 11
5637.23290243253
 21
5277.51373840136
 31
0.0
  0
LINE
  5
7E
330
17
100
AcDbEntity
  8
Painéis
 62
7
370
25
100
AcDbLine
 10
5655.732902432532
 20
5327.513738401411
 30
0.0
 11
5372.232902432529
 21
5327.513738401437
 31
0.0
  0
LINE
  5
7F
330
17
100
AcDbEntity
  8
Painéis
 62
7
370
25
100
AcDbLine
 10
5655.73290243253
 20
5277.51373840136
 30
0.0
 11
5372.232902432529
 21
5277.513738401386
 31
0.0
  0
LINE
  5
80
330
17
100
AcDbEntity
  8
Painéis
 62
7
370
25
100
AcDbLine
 10
5533.73290243253
 20
5277.513738401375
 30
0.0
 11
5533.73290243253
 21
5327.513738401426
 31
0.0
  0
LINE
  5
81
330
17
100
AcDbEntity
  8
Painéis
 62
7
370
25
100
AcDbLine
 10
5372.232902432529
 20
5277.513738401386
 30
0.0
 11
5372.232902432529
 21
5327.513738401437
 31
0.0
  0
LINE
  5
82
330
17
100
AcDbEntity
  8
Painéis
 62
7
370
25
100
AcDbLine
 10
5655.73290243253
 20
5277.51373840136
 30
0.0
 11
5655.73290243253
 21
5327.513738401411
 31
0.0
  0
LINE
  5
83
330
17
100
AcDbEntity
  8
SARR_3.5x7
 62
7
370
25
100
AcDbLine
 10
5372.232902432522
 20
5327.513738401428
 30
0.0
 11
5372.232902432529
 21
5277.513738401363
 31
0.0
  0
LINE
  5
84
330
17
100
AcDbEntity
  8
SARR_3.5x7
 62
7
370
25
100
AcDbLine
 10
5375.732902432524
 20
5325.313738401431
 30
0.0
 11
5375.73290243253
 21
5277.513738401363
 31
0.0
  0
LINE
  5
85
330
17
100
AcDbEntity
  8
COTA
 62
7
370
25
100
AcDbLine
 10
5655.732902432532
 20
5341.513738401411
 30
0.0
 11
5183.232902432537
 21
5341.513738401411
 31
0.0
  0
LINE
  5
86
330
17
100
AcDbEntity
  8
Painéis
 62
7
370
25
100
AcDbLine
 10
4971.232902432523
 20
5341.51373840146
 30
0.0
 11
4971.232902432537
 21
5207.513738401504
 31
0.0
  0
LINE
  5
87
330
17
100
AcDbEntity
  8
Painéis
 62
7
370
25
100
AcDbLine
 10
5183.23290243255
 20
5277.513738401347
 30
0.0
 11
5183.232902432537
 21
5207.513738401504
 31
0.0
  0
LINE
  5
88
330
17
100
AcDbEntity
  8
SARR_2.2x7
 62
7
370
25
100
AcDbLine
 10
4782.23290243253
 20
5325.313738401444
 30
0.0
 11
4939.232902432536
 21
5325.313738401455
 31
0.0
  0
LINE
  5
89
330
17
100
AcDbEntity
  8
SARR_3.5x7
 62
7
370
25
100
AcDbLine
 10
4935.732902432488
 20
5325.313738401455
 30
0.0
 11
4935.732902432418
 21
5207.513738401506
 31
0.0
  0
LINE
  5
8A
330
17
100
AcDbEntity
  8
SARR_2.2x7
 62
7
370
25
100
AcDbLine
 10
4939.232902432535
 20
5275.31373840136
 30
0.0
 11
4971.232902432539
 21
5275.313738401358
 31
0.0
  0
LINE
  5
8B
330
17
100
AcDbEntity
  8
SARR_3.5x7
 62
7
370
25
100
AcDbLine
 10
4967.732902432481
 20
5275.31373840146
 30
0.0
 11
4967.73290243244
 21
5207.513738401506
 31
0.0
  0
LINE
  5
8C
330
17
100
AcDbEntity
  8
SARR_3.5x7
 62
7
370
25
100
AcDbLine
 10
4939.232902432568
 20
5325.313738401455
 30
0.0
 11
4939.232902432497
 21
5207.513738401506
 31
0.0
  0
LINE
  5
8D
330
17
100
AcDbEntity
  8
SARR_3.5x7
 62
7
370
25
100
AcDbLine
 10
4785.732902432578
 20
5325.313738401455
 30
0.0
 11
4785.732902432648
 21
5207.513738401506
 31
0.0
  0
LINE
  5
8E
330
17
100
AcDbEntity
  8
SARR_3.5x7
 62
7
370
25
100
AcDbLine
 10
4782.232902432499
 20
5325.313738401455
 30
0.0
 11
4782.232902432569
 21
5207.513738401506
 31
0.0
  0
LINE
  5
8F
330
17
100
AcDbEntity
  8
SARR_2.2x7
 62
7
370
25
100
AcDbLine
 10
5372.232902432529
 20
5325.313738401444
 30
0.0
 11
5215.232902432524
 21
5325.313738401455
 31
0.0
  0
LINE
  5
90
330
17
100
AcDbEntity
  8
SARR_3.5x7
 62
7
370
25
100
AcDbLine
 10
5218.732902432572
 20
5325.313738401455
 30
0.0
 11
5218.732902432641
 21
5207.513738401506
 31
0.0
  0
LINE
  5
91
330
17
100
AcDbEntity
  8
SARR_2.2x7
 62
7
370
25
100
AcDbLine
 10
5215.23290243254
 20
5275.31373840136
 30
0.0
 11
5183.232902432536
 21
5275.313738401358
 31
0.0
  0
LINE
  5
92
330
17
100
AcDbEntity
  8
SARR_3.5x7
 62
7
370
25
100
AcDbLine
 10
5186.732902432594
 20
5275.31373840146
 30
0.0
 11
5186.73290243262
 21
5207.513738401506
 31
0.0
  0
LINE
  5
93
330
17
100
AcDbEntity
  8
SARR_3.5x7
 62
7
370
25
100
AcDbLine
 10
5215.232902432493
 20
5325.313738401455
 30
0.0
 11
5215.232902432563
 21
5207.513738401506
 31
0.0
  0
LINE
  5
94
330
17
100
AcDbEntity
  8
SARR_3.5x7
 62
7
370
25
100
AcDbLine
 10
5368.732902432482
 20
5325.313738401455
 30
0.0
 11
5368.732902432412
 21
5207.513738401506
 31
0.0
  0
LINE
  5
95
330
17
100
AcDbEntity
  8
SARR_3.5x7
 62
7
370
25
100
AcDbLine
 10
5372.232902432561
 20
5325.313738401455
 30
0.0
 11
5372.23290243249
 21
5207.513738401506
 31
0.0
  0
LINE
  5
96
330
17
100
AcDbEntity
  8
SARR_2.2x7
 62
7
370
25
100
AcDbLine
 10
4971.23290243253
 20
5339.313738401532
 30
0.0
 11
5183.232902432506
 21
5339.313738401514
 31
0.0
  0
LINE
  5
97
330
17
100
AcDbEntity
  8
SARR_3.5x7
 62
7
370
25
100
AcDbLine
 10
5179.732902432458
 20
5339.313738401514
 30
0.0
 11
5179.73290243238
 21
5207.513738401504
 31
0.0
  0
LINE
  5
98
330
17
100
AcDbEntity
  8
SARR_3.5x7
 62
7
370
25
100
AcDbLine
 10
5183.232902432537
 20
5339.313738401514
 30
0.0
 11
5183.232902432459
 21
5207.513738401504
 31
0.0
  0
LINE
  5
99
330
17
100
AcDbEntity
  8
SARR_3.5x7
 62
7
370
25
100
AcDbLine
 10
4974.732902432577
 20
5339.313738401544
 30
0.0
 11
4974.732902432656
 21
5207.513738401504
 31
0.0
  0
LINE
  5
9A
330
17
100
AcDbEntity
  8
COTA
 62
7
370
25
100
AcDbLine
 10
6474.471497100008
 20
5712.83359473087
 30
0.0
 11
6067.971497099932
 21
5712.833594730927
 31
0.0
  0
LINE
  5
9B
330
17
100
AcDbEntity
  8
COTA
 62
7
370
25
100
AcDbLine
 10
6351.471497099941
 20
5696.833594730887
 30
0.0
 11
6346.971497099941
 21
5712.833594730887
 31
0.0
  0
LINE
  5
9C
330
17
100
AcDbEntity
  8
COTA
 62
7
370
25
100
AcDbLine
 10
6067.971497099932
 20
5696.833594730927
 30
0.0
 11
6067.971497099932
 21
5712.833594730927
 31
0.0
  0
LINE
  5
9D
330
17
100
AcDbEntity
  8
SARR_2.2x7
 62
7
370
25
100
AcDbLine
 10
6082.971497099936
 20
5694.63359473093
 30
0.0
 11
6189.971497099936
 21
5694.633594730944
 31
0.0
  0
LINE
  5
9E
330
17
100
AcDbEntity
  8
SARR_2.2x7
 62
7
370
25
100
AcDbLine
 10
6189.971497099936
 20
5694.633594730944
 30
0.0
 11
6351.47149709994
 21
5694.633594730959
 31
0.0
  0
LINE
  5
9F
330
17
100
AcDbEntity
  8
SARR_2.2x7
 62
7
370
25
100
AcDbLine
 10
6074.971497099934
 20
5648.833594730876
 30
0.0
 11
6074.971497099934
 21
5696.833594730927
 31
0.0
  0
LINE
  5
A0
330
17
100
AcDbEntity
  8
SARR_3.5x7
 62
7
370
25
100
AcDbLine
 10
6193.471497099965
 20
5694.633594730988
 30
0.0
 11
6193.471497099992
 21
5648.83359473089
 31
0.0
  0
LINE
  5
A1
330
17
100
AcDbEntity
  8
SARR_3.5x7
 62
7
370
25
100
AcDbLine
 10
6186.471497099877
 20
5694.633594731047
 30
0.0
 11
6186.471497099847
 21
5648.83359473089
 31
0.0
  0
LINE
  5
A2
330
17
100
AcDbEntity
  8
SARR_3.5x7
 62
7
370
25
100
AcDbLine
 10
6082.971497099934
 20
5696.833594730941
 30
0.0
 11
6082.971497099934
 21
5648.833594730876
 31
0.0
  0
LINE
  5
A3
330
17
100
AcDbEntity
  8
SARR_3.5x7
 62
7
370
25
100
AcDbLine
 10
6086.471497099935
 20
5694.633594730944
 30
0.0
 11
6086.471497099934
 21
5648.833594730876
 31
0.0
  0
LINE
  5
A4
330
17
100
AcDbEntity
  8
SARR_3.5x7
 62
7
370
25
100
AcDbLine
 10
6189.971497099936
 20
5694.633594730944
 30
0.0
 11
6189.971497099934
 21
5648.833594730906
 31
0.0
  0
LINE
  5
A5
330
17
100
AcDbEntity
  8
SARR_3.5x7
 62
7
370
25
100
AcDbLine
 10
6186.471497099847
 20
5648.83359473089
 30
0.0
 11
6189.971497099934
 21
5648.83359473089
 31
0.0
  0
LINE
  5
A6
330
17
100
AcDbEntity
  8
SARR_3.5x7
 62
7
370
25
100
AcDbLine
 10
6189.971497099934
 20
5648.83359473089
 30
0.0
 11
6193.471497099992
 21
5648.83359473089
 31
0.0
  0
LINE
  5
A7
330
17
100
AcDbEntity
  8
SARR_3.5x7
 62
7
370
25
100
AcDbLine
 10
6082.971497099934
 20
5648.833594730876
 30
0.0
 11
6086.471497099934
 21
5648.833594730876
 31
0.0
  0
LINE
  5
A8
330
17
100
AcDbEntity
  8
Painéis
 62
7
370
25
100
AcDbLine
 10
6067.971497099932
 20
5696.833594730927
 30
0.0
 11
6351.471497099934
 21
5696.833594730953
 31
0.0
  0
LINE
  5
A9
330
17
100
AcDbEntity
  8
Painéis
 62
7
370
25
100
AcDbLine
 10
6067.971497099934
 20
5648.833594730876
 30
0.0
 11
6351.471497099934
 21
5648.833594730902
 31
0.0
  0
LINE
  5
AA
330
17
100
AcDbEntity
  8
Painéis
 62
7
370
25
100
AcDbLine
 10
6189.971497099934
 20
5648.83359473089
 30
0.0
 11
6189.971497099934
 21
5696.833594730941
 31
0.0
  0
LINE
  5
AB
330
17
100
AcDbEntity
  8
Painéis
 62
7
370
25
100
AcDbLine
 10
6351.471497099934
 20
5648.833594730902
 30
0.0
 11
6351.471497099934
 21
5696.833594730953
 31
0.0
  0
LINE
  5
AC
330
17
100
AcDbEntity
  8
Painéis
 62
7
370
25
100
AcDbLine
 10
6067.971497099934
 20
5648.833594730876
 30
0.0
 11
6067.971497099934
 21
5696.833594730927
 31
0.0
  0
LINE
  5
AD
330
17
100
AcDbEntity
  8
SARR_3.5x7
 62
7
370
25
100
AcDbLine
 10
6351.471497099941
 20
5696.833594730943
 30
0.0
 11
6351.471497099934
 21
5648.833594730877
 31
0.0
  0
LINE
  5
AE
330
17
100
AcDbEntity
  8
SARR_3.5x7
 62
7
370
25
100
AcDbLine
 10
6347.97149709994
 20
5694.633594730946
 30
0.0
 11
6347.971497099933
 21
5648.833594730877
 31
0.0
  0
LINE
  5
AF
330
17
100
AcDbEntity
  8
Painéis
 62
7
370
25
100
AcDbLine
 10
6351.471497099941
 20
5696.833594730953
 30
0.0
 11
6474.471497100005
 21
5696.833594730967
 31
0.0
  0
LINE
  5
B0
330
17
100
AcDbEntity
  8
Painéis
 62
7
370
25
100
AcDbLine
 10
6474.471497100005
 20
5578.83359473102
 30
0.0
 11
6351.471497099934
 21
5578.83359473102
 31
0.0
  0
LINE
  5
B1
330
17
100
AcDbEntity
  8
Painéis
 62
7
370
25
100
AcDbLine
 10
6351.471497099934
 20
5578.83359473102
 30
0.0
 11
6351.471497099934
 21
5648.833594730902
 31
0.0
  0
LINE
  5
B2
330
17
100
AcDbEntity
  8
SARR_2.2x7
 62
7
370
25
100
AcDbLine
 10
6351.471497099934
 20
5648.833594730877
 30
0.0
 11
6358.471497099934
 21
5648.833594730877
 31
0.0
  0
LINE
  5
B3
330
17
100
AcDbEntity
  8
SARR_2.2x7
 62
7
370
25
100
AcDbLine
 10
6358.471497099934
 20
5648.833594730877
 30
0.0
 11
6358.471497099934
 21
5578.83359473102
 31
0.0
  0
LINE
  5
B4
330
17
100
AcDbEntity
  8
SARR_2.2x7
 62
7
370
25
100
AcDbLine
 10
6351.471497099934
 20
5694.633594730959
 30
0.0
 11
6459.471497100004
 21
5694.633594730968
 31
0.0
  0
LINE
  5
B5
330
17
100
AcDbEntity
  8
SARR_3.5x7
 62
7
370
25
100
AcDbLine
 10
6455.971497099925
 20
5694.633594730969
 30
0.0
 11
6455.971497099856
 21
5578.833594731022
 31
0.0
  0
LINE
  5
B6
330
17
100
AcDbEntity
  8
SARR_3.5x7
 62
7
370
25
100
AcDbLine
 10
6354.971497099982
 20
5694.633594730969
 30
0.0
 11
6354.971497100052
 21
5578.833594731022
 31
0.0
  0
LINE
  5
B7
330
17
100
AcDbEntity
  8
SARR_3.5x7
 62
7
370
25
100
AcDbLine
 10
6351.471497099903
 20
5694.633594730969
 30
0.0
 11
6351.471497099973
 21
5578.833594731022
 31
0.0
  0
LINE
  5
B8
330
17
100
AcDbEntity
  8
0
 62
7
370
25
100
AcDbLine
 10
5037.460914822043
 20
5569.464766898963
 30
0.0
 11
5037.460914822043
 21
5557.464766898963
 31
0.0
  0
LINE
  5
B9
330
17
100
AcDbEntity
  8
0
 62
7
370
25
100
AcDbLine
 10
5255.460914822072
 20
5566.464766898977
 30
0.0
 11
5255.460914822072
 21
5560.464766898977
 31
0.0
  0
LINE
  5
BA
330
17
100
AcDbEntity
  8
0
 62
7
370
25
100
AcDbLine
 10
5253.460914822071
 20
5569.464766898978
 30
0.0
 11
5253.460914822071
 21
5557.464766898977
 31
0.0
  0
LINE
  5
BB
330
17
100
AcDbEntity
  8
0
 62
7
370
25
100
AcDbLine
 10
5253.460914822071
 20
5560.464766898977
 30
0.0
 11
5255.460914822072
 21
5560.464766898977
 31
0.0
  0
LINE
  5
BC
330
17
100
AcDbEntity
  8
0
 62
7
370
25
100
AcDbLine
 10
5037.460914822043
 20
5557.464766898963
 30
0.0
 11
5067.460914822042
 21
5557.464766898963
 31
0.0
  0
LINE
  5
BD
330
17
100
AcDbEntity
  8
0
 62
7
370
25
100
AcDbLine
 10
5223.460914822072
 20
5562.464766898977
 30
0.0
 11
5253.460914822071
 21
5562.464766898977
 31
0.0
  0
LINE
  5
BE
330
17
100
AcDbEntity
  8
0
 62
7
370
25
100
AcDbLine
 10
5223.460914822072
 20
5564.464766898978
 30
0.0
 11
5253.460914822071
 21
5564.464766898978
 31
0.0
  0
LINE
  5
BF
330
17
100
AcDbEntity
  8
TENSOR
 62
7
370
25
100
AcDbLine
 10
5258.460914822071
 20
5563.464766898963
 30
0.0
 11
5032.157620643944
 21
5563.464766898963
 31
0.0
  0
LINE
  5
C0
330
17
100
AcDbEntity
  8
0
 62
7
370
25
100
AcDbLine
 10
5253.460914822071
 20
5566.464766898977
 30
0.0
 11
5255.460914822072
 21
5566.464766898977
 31
0.0
  0
LINE
  5
C1
330
17
100
AcDbEntity
  8
0
 62
7
370
25
100
AcDbLine
 10
5067.460914822042
 20
5562.464766898963
 30
0.0
 11
5037.460914822043
 21
5562.464766898963
 31
0.0
  0
LINE
  5
C2
330
17
100
AcDbEntity
  8
0
 62
7
370
25
100
AcDbLine
 10
5067.460914822042
 20
5564.464766898963
 30
0.0
 11
5037.460914822043
 21
5564.464766898963
 31
0.0
  0
LINE
  5
C3
330
17
100
AcDbEntity
  8
0
 62
7
370
25
100
AcDbLine
 10
5037.460914822043
 20
5569.464766898963
 30
0.0
 11
5067.460914822042
 21
5569.464766898963
 31
0.0
  0
LINE
  5
C4
330
17
100
AcDbEntity
  8
0
 62
7
370
25
100
AcDbLine
 10
5253.460914822071
 20
5557.464766898977
 30
0.0
 11
5223.460914822072
 21
5557.464766898977
 31
0.0
  0
LINE
  5
C5
330
17
100
AcDbEntity
  8
0
 62
7
370
25
100
AcDbLine
 10
5253.460914822071
 20
5569.464766898978
 30
0.0
 11
5223.460914822072
 21
5569.464766898978
 31
0.0
  0
LINE
  5
C6
330
17
100
AcDbEntity
  8
0
 62
7
370
25
100
AcDbLine
 10
5035.460914822042
 20
5566.464766898963
 30
0.0
 11
5035.460914822042
 21
5560.464766898963
 31
0.0
  0
LINE
  5
C7
330
17
100
AcDbEntity
  8
0
 62
7
370
25
100
AcDbLine
 10
5037.460914822043
 20
5560.464766898963
 30
0.0
 11
5035.460914822042
 21
5560.464766898963
 31
0.0
  0
LINE
  5
C8
330
17
100
AcDbEntity
  8
0
 62
7
370
25
100
AcDbLine
 10
5035.460914822042
 20
5566.464766898963
 30
0.0
 11
5037.460914822043
 21
5566.464766898963
 31
0.0
  0
LINE
  5
C9
330
17
100
AcDbEntity
  8
0
 62
7
370
25
100
AcDbLine
 10
5037.460914822043
 20
5649.464766898963
 30
0.0
 11
5037.460914822043
 21
5637.464766898963
 31
0.0
  0
LINE
  5
CA
330
17
100
AcDbEntity
  8
0
 62
7
370
25
100
AcDbLine
 10
5255.460914822072
 20
5646.464766898978
 30
0.0
 11
5255.460914822072
 21
5640.464766898977
 31
0.0
  0
LINE
  5
CB
330
17
100
AcDbEntity
  8
0
 62
7
370
25
100
AcDbLine
 10
5253.460914822071
 20
5649.464766898978
 30
0.0
 11
5253.460914822071
 21
5637.464766898977
 31
0.0
  0
LINE
  5
CC
330
17
100
AcDbEntity
  8
0
 62
7
370
25
100
AcDbLine
 10
5253.460914822071
 20
5640.464766898977
 30
0.0
 11
5255.460914822072
 21
5640.464766898977
 31
0.0
  0
LINE
  5
CD
330
17
100
AcDbEntity
  8
0
 62
7
370
25
100
AcDbLine
 10
5037.460914822043
 20
5637.464766898963
 30
0.0
 11
5067.460914822042
 21
5637.464766898963
 31
0.0
  0
LINE
  5
CE
330
17
100
AcDbEntity
  8
0
 62
7
370
25
100
AcDbLine
 10
5223.460914822072
 20
5642.464766898978
 30
0.0
 11
5253.460914822071
 21
5642.464766898978
 31
0.0
  0
LINE
  5
CF
330
17
100
AcDbEntity
  8
0
 62
7
370
25
100
AcDbLine
 10
5223.460914822072
 20
5644.464766898977
 30
0.0
 11
5253.460914822071
 21
5644.464766898977
 31
0.0
  0
LINE
  5
D0
330
17
100
AcDbEntity
  8
TENSOR
 62
7
370
25
100
AcDbLine
 10
5258.460914822071
 20
5643.464766898962
 30
0.0
 11
5032.157620643944
 21
5643.464766898962
 31
0.0
  0
LINE
  5
D1
330
17
100
AcDbEntity
  8
0
 62
7
370
25
100
AcDbLine
 10
5253.460914822071
 20
5646.464766898978
 30
0.0
 11
5255.460914822072
 21
5646.464766898978
 31
0.0
  0
LINE
  5
D2
330
17
100
AcDbEntity
  8
0
 62
7
370
25
100
AcDbLine
 10
5067.460914822042
 20
5642.464766898963
 30
0.0
 11
5037.460914822043
 21
5642.464766898963
 31
0.0
  0
LINE
  5
D3
330
17
100
AcDbEntity
  8
0
 62
7
370
25
100
AcDbLine
 10
5067.460914822042
 20
5644.464766898963
 30
0.0
 11
5037.460914822043
 21
5644.464766898963
 31
0.0
  0
LINE
  5
D4
330
17
100
AcDbEntity
  8
0
 62
7
370
25
100
AcDbLine
 10
5037.460914822043
 20
5649.464766898963
 30
0.0
 11
5067.460914822042
 21
5649.464766898963
 31
0.0
  0
LINE
  5
D5
330
17
100
AcDbEntity
  8
0
 62
7
370
25
100
AcDbLine
 10
5253.460914822071
 20
5637.464766898977
 30
0.0
 11
5223.460914822072
 21
5637.464766898977
 31
0.0
  0
LINE
  5
D6
330
17
100
AcDbEntity
  8
0
 62
7
370
25
100
AcDbLine
 10
5253.460914822071
 20
5649.464766898978
 30
0.0
 11
5223.460914822072
 21
5649.464766898978
 31
0.0
  0
LINE
  5
D7
330
17
100
AcDbEntity
  8
0
 62
7
370
25
100
AcDbLine
 10
5035.460914822042
 20
5646.464766898962
 30
0.0
 11
5035.460914822042
 21
5640.464766898963
 31
0.0
  0
LINE
  5
D8
330
17
100
AcDbEntity
  8
0
 62
7
370
25
100
AcDbLine
 10
5037.460914822043
 20
5640.464766898963
 30
0.0
 11
5035.460914822042
 21
5640.464766898963
 31
0.0
  0
LINE
  5
D9
330
17
100
AcDbEntity
  8
0
 62
7
370
25
100
AcDbLine
 10
5035.460914822042
 20
5646.464766898962
 30
0.0
 11
5037.460914822043
 21
5646.464766898962
 31
0.0
  0
LINE
  5
DA
330
17
100
AcDbEntity
  8
SARR_2.2x7
 62
7
370
25
100
AcDbLine
 10
5529.156639120353
 20
5453.74191601785
 30
0.0
 11
5529.156639120353
 21
5523.74191601785
 31
0.0
  0
LINE
  5
DB
330
17
100
AcDbEntity
  8
SARR_2.2x7
 62
7
370
25
100
AcDbLine
 10
5575.156639120355
 20
5453.74191601785
 30
0.0
 11
5575.156639120355
 21
5523.74191601785
 31
0.0
  0
LINE
  5
DC
330
17
100
AcDbEntity
  8
Painéis
 62
7
370
25
100
AcDbLine
 10
5522.156639120353
 20
5523.74191601785
 30
0.0
 11
5582.156639120356
 21
5523.74191601785
 31
0.0
  0
LINE
  5
DD
330
17
100
AcDbEntity
  8
Painéis
 62
7
370
25
100
AcDbLine
 10
5522.156639120353
 20
5453.74191601785
 30
0.0
 11
5582.156639120356
 21
5453.74191601785
 31
0.0
  0
LINE
  5
DE
330
17
100
AcDbEntity
  8
Painéis
 62
7
370
25
100
AcDbLine
 10
5522.156639120353
 20
5453.74191601785
 30
0.0
 11
5522.156639120353
 21
5523.74191601785
 31
0.0
  0
LINE
  5
DF
330
17
100
AcDbEntity
  8
Painéis
 62
7
370
25
100
AcDbLine
 10
5582.156639120356
 20
5453.74191601785
 30
0.0
 11
5582.156639120356
 21
5523.74191601785
 31
0.0
  0
LINE
  5
E0
330
17
100
AcDbEntity
  8
SARR_2.2x7
 62
7
370
25
100
AcDbLine
 10
5537.156639120355
 20
5521.541916017866
 30
0.0
 11
5567.156639120361
 21
5521.541916017866
 31
0.0
  0
LINE
  5
E1
330
17
100
AcDbEntity
  8
SARR_3.5x7
 62
7
370
25
100
AcDbLine
 10
5537.156639120355
 20
5523.741916017865
 30
0.0
 11
5537.156639120358
 21
5453.74191601785
 31
0.0
  0
LINE
  5
E2
330
17
100
AcDbEntity
  8
SARR_3.5x7
 62
7
370
25
100
AcDbLine
 10
5540.656639120356
 20
5521.541916017866
 30
0.0
 11
5540.656639120359
 21
5453.74191601785
 31
0.0
  0
LINE
  5
E3
330
17
100
AcDbEntity
  8
SARR_3.5x7
 62
7
370
25
100
AcDbLine
 10
5567.156639120361
 20
5523.741916017839
 30
0.0
 11
5567.156639120358
 21
5453.741916017825
 31
0.0
  0
LINE
  5
E4
330
17
100
AcDbEntity
  8
SARR_3.5x7
 62
7
370
25
100
AcDbLine
 10
5563.65663912036
 20
5521.541916017842
 30
0.0
 11
5563.656639120358
 21
5453.741916017825
 31
0.0
  0
LINE
  5
E5
330
17
100
AcDbEntity
  8
Painéis
 62
7
370
25
100
AcDbLine
 10
5093.232902432538
 20
5341.513738401453
 30
0.0
 11
5093.232902432539
 21
5207.513738401504
 31
0.0
  0
LINE
  5
E6
330
17
100
AcDbEntity
  8
SARR_3.5x7
 62
7
370
25
100
AcDbLine
 10
5089.732902432483
 20
5339.313738401521
 30
0.0
 11
5089.732902432404
 21
5207.513738401504
 31
0.0
  0
LINE
  5
E7
330
17
100
AcDbEntity
  8
SARR_3.5x7
 62
7
370
25
100
AcDbLine
 10
5096.732902432543
 20
5339.313738401542
 30
0.0
 11
5096.732902432619
 21
5207.513738401502
 31
0.0
  0
LINE
  5
E8
330
17
100
AcDbEntity
  8
SARR_2.2x7
 62
7
370
25
100
AcDbLine
 10
6467.471497100004
 20
5578.83359473102
 30
0.0
 11
6467.471497100004
 21
5696.833594730969
 31
0.0
  0
LINE
  5
E9
330
17
100
AcDbEntity
  8
COTA
 62
7
370
25
100
AcDbLine
 10
6474.471497100005
 20
5696.833594730969
 30
0.0
 11
6474.471497100008
 21
5712.833594730869
 31
0.0
  0
LINE
  5
EA
330
17
100
AcDbEntity
  8
Painéis
 62
7
370
25
100
AcDbLine
 10
6831.596197637113
 20
5578.83359473102
 30
0.0
 11
6831.596197637113
 21
5698.833594730968
 31
0.0
  0
LINE
  5
EB
330
17
100
AcDbEntity
  8
SARR_3.5x7
 62
7
370
25
100
AcDbLine
 10
6846.596197637113
 20
5698.833594730967
 30
0.0
 11
6846.596197637184
 21
5578.833594731022
 31
0.0
  0
LINE
  5
EC
330
17
100
AcDbEntity
  8
COTA
 62
7
370
25
100
AcDbLine
 10
6831.59619763711
 20
5712.83359473087
 30
0.0
 11
7233.596197637186
 21
5712.833594730927
 31
0.0
  0
LINE
  5
ED
330
17
100
AcDbEntity
  8
COTA
 62
7
370
25
100
AcDbLine
 10
6954.596197637177
 20
5698.833594730887
 30
0.0
 11
6954.596197637177
 21
5712.833594730887
 31
0.0
  0
LINE
  5
EE
330
17
100
AcDbEntity
  8
COTA
 62
7
370
25
100
AcDbLine
 10
7233.596197637186
 20
5698.833594730928
 30
0.0
 11
7233.596197637186
 21
5712.833594730927
 31
0.0
  0
LINE
  5
EF
330
17
100
AcDbEntity
  8
SARR_2.2x7
 62
7
370
25
100
AcDbLine
 10
7218.596197637181
 20
5696.633594730929
 30
0.0
 11
7111.596197637182
 21
5696.633594730944
 31
0.0
  0
LINE
  5
F0
330
17
100
AcDbEntity
  8
SARR_2.2x7
 62
7
370
25
100
AcDbLine
 10
7111.596197637182
 20
5696.633594730944
 30
0.0
 11
6954.596197637177
 21
5696.633594730958
 31
0.0
  0
LINE
  5
F1
330
17
100
AcDbEntity
  8
SARR_2.2x7
 62
7
370
25
100
AcDbLine
 10
7226.596197637184
 20
5648.833594730876
 30
0.0
 11
7226.596197637184
 21
5698.833594730928
 31
0.0
  0
LINE
  5
F2
330
17
100
AcDbEntity
  8
SARR_3.5x7
 62
7
370
25
100
AcDbLine
 10
7108.096197637152
 20
5696.633594730988
 30
0.0
 11
7108.096197637125
 21
5648.83359473089
 31
0.0
  0
LINE
  5
F3
330
17
100
AcDbEntity
  8
SARR_3.5x7
 62
7
370
25
100
AcDbLine
 10
7115.09619763724
 20
5696.633594731046
 30
0.0
 11
7115.096197637271
 21
5648.83359473089
 31
0.0
  0
LINE
  5
F4
330
17
100
AcDbEntity
  8
SARR_3.5x7
 62
7
370
25
100
AcDbLine
 10
7218.596197637184
 20
5698.833594730942
 30
0.0
 11
7218.596197637184
 21
5648.833594730876
 31
0.0
  0
LINE
  5
F5
330
17
100
AcDbEntity
  8
SARR_3.5x7
 62
7
370
25
100
AcDbLine
 10
7215.096197637182
 20
5696.633594730944
 30
0.0
 11
7215.096197637183
 21
5648.833594730876
 31
0.0
  0
LINE
  5
F6
330
17
100
AcDbEntity
  8
SARR_3.5x7
 62
7
370
25
100
AcDbLine
 10
7111.596197637182
 20
5696.633594730944
 30
0.0
 11
7111.596197637183
 21
5648.833594730906
 31
0.0
  0
LINE
  5
F7
330
17
100
AcDbEntity
  8
SARR_3.5x7
 62
7
370
25
100
AcDbLine
 10
7115.096197637271
 20
5648.83359473089
 30
0.0
 11
7111.596197637183
 21
5648.83359473089
 31
0.0
  0
LINE
  5
F8
330
17
100
AcDbEntity
  8
SARR_3.5x7
 62
7
370
25
100
AcDbLine
 10
7111.596197637183
 20
5648.83359473089
 30
0.0
 11
7108.096197637125
 21
5648.83359473089
 31
0.0
  0
LINE
  5
F9
330
17
100
AcDbEntity
  8
SARR_3.5x7
 62
7
370
25
100
AcDbLine
 10
7218.596197637184
 20
5648.833594730876
 30
0.0
 11
7215.096197637183
 21
5648.833594730876
 31
0.0
  0
LINE
  5
FA
330
17
100
AcDbEntity
  8
Painéis
 62
7
370
25
100
AcDbLine
 10
7233.596197637186
 20
5698.833594730928
 30
0.0
 11
6954.596197637184
 21
5698.833594730952
 31
0.0
  0
LINE
  5
FB
330
17
100
AcDbEntity
  8
Painéis
 62
7
370
25
100
AcDbLine
 10
7233.596197637183
 20
5648.833594730876
 30
0.0
 11
6954.596197637184
 21
5648.833594730902
 31
0.0
  0
LINE
  5
FC
330
17
100
AcDbEntity
  8
Painéis
 62
7
370
25
100
AcDbLine
 10
7111.596197637183
 20
5648.83359473089
 30
0.0
 11
7111.596197637183
 21
5698.833594730942
 31
0.0
  0
LINE
  5
FD
330
17
100
AcDbEntity
  8
Painéis
 62
7
370
25
100
AcDbLine
 10
6954.596197637184
 20
5648.833594730902
 30
0.0
 11
6954.596197637184
 21
5698.833594730952
 31
0.0
  0
LINE
  5
FE
330
17
100
AcDbEntity
  8
Painéis
 62
7
370
25
100
AcDbLine
 10
7233.596197637183
 20
5648.833594730876
 30
0.0
 11
7233.596197637183
 21
5698.833594730928
 31
0.0
  0
LINE
  5
FF
330
17
100
AcDbEntity
  8
SARR_3.5x7
 62
7
370
25
100
AcDbLine
 10
6954.596197637177
 20
5698.833594730944
 30
0.0
 11
6954.596197637184
 21
5648.833594730877
 31
0.0
  0
LINE
  5
100
330
17
100
AcDbEntity
  8
SARR_3.5x7
 62
7
370
25
100
AcDbLine
 10
6958.096197637178
 20
5696.633594730946
 30
0.0
 11
6958.096197637184
 21
5648.833594730877
 31
0.0
  0
LINE
  5
101
330
17
100
AcDbEntity
  8
Painéis
 62
7
370
25
100
AcDbLine
 10
6954.596197637177
 20
5698.833594730952
 30
0.0
 11
6831.596197637113
 21
5698.833594730967
 31
0.0
  0
LINE
  5
102
330
17
100
AcDbEntity
  8
Painéis
 62
7
370
25
100
AcDbLine
 10
6831.596197637113
 20
5578.83359473102
 30
0.0
 11
6954.596197637184
 21
5578.83359473102
 31
0.0
  0
LINE
  5
103
330
17
100
AcDbEntity
  8
Painéis
 62
7
370
25
100
AcDbLine
 10
6954.596197637184
 20
5578.83359473102
 30
0.0
 11
6954.596197637184
 21
5648.833594730902
 31
0.0
  0
LINE
  5
104
330
17
100
AcDbEntity
  8
SARR_2.2x7
 62
7
370
25
100
AcDbLine
 10
6954.596197637184
 20
5648.833594730877
 30
0.0
 11
6947.596197637183
 21
5648.833594730877
 31
0.0
  0
LINE
  5
105
330
17
100
AcDbEntity
  8
SARR_2.2x7
 62
7
370
25
100
AcDbLine
 10
6947.596197637183
 20
5648.833594730877
 30
0.0
 11
6947.596197637183
 21
5578.83359473102
 31
0.0
  0
LINE
  5
106
330
17
100
AcDbEntity
  8
SARR_2.2x7
 62
7
370
25
100
AcDbLine
 10
6954.596197637184
 20
5696.633594730958
 30
0.0
 11
6846.596197637113
 21
5696.633594730968
 31
0.0
  0
LINE
  5
107
330
17
100
AcDbEntity
  8
SARR_3.5x7
 62
7
370
25
100
AcDbLine
 10
6850.096197637192
 20
5696.63359473097
 30
0.0
 11
6850.096197637263
 21
5578.833594731022
 31
0.0
  0
LINE
  5
108
330
17
100
AcDbEntity
  8
SARR_3.5x7
 62
7
370
25
100
AcDbLine
 10
6951.096197637136
 20
5696.63359473097
 30
0.0
 11
6951.096197637065
 21
5578.833594731022
 31
0.0
  0
LINE
  5
109
330
17
100
AcDbEntity
  8
SARR_3.5x7
 62
7
370
25
100
AcDbLine
 10
6954.596197637214
 20
5696.63359473097
 30
0.0
 11
6954.596197637144
 21
5578.833594731022
 31
0.0
  0
LINE
  5
10A
330
17
100
AcDbEntity
  8
SARR_2.2x7
 62
7
370
25
100
AcDbLine
 10
6838.596197637113
 20
5578.83359473102
 30
0.0
 11
6838.596197637113
 21
5698.833594730968
 31
0.0
  0
LINE
  5
10B
330
17
100
AcDbEntity
  8
COTA
 62
7
370
25
100
AcDbLine
 10
6831.596197637113
 20
5698.833594730968
 30
0.0
 11
6831.59619763711
 21
5712.833594730869
 31
0.0
  0
LINE
  5
10C
330
17
100
AcDbEntity
  8
SARR_2.2x7
 62
7
370
25
100
AcDbLine
 10
6615.502311315061
 20
5696.633594730847
 30
0.0
 11
6661.947452074248
 21
5696.633594730863
 31
0.0
  0
LINE
  5
10D
330
17
100
AcDbEntity
  8
SARR_2.2x7
 62
7
370
25
100
AcDbLine
 10
6661.947452074248
 20
5696.633594730863
 30
0.0
 11
6730.392592833438
 21
5696.633594730617
 31
0.0
  0
LINE
  5
10E
330
17
100
AcDbEntity
  8
SARR_3.5x7
 62
7
370
25
100
AcDbLine
 10
6665.447452074277
 20
5696.633594730906
 30
0.0
 11
6665.447452074308
 21
5578.833594730859
 31
0.0
  0
LINE
  5
10F
330
17
100
AcDbEntity
  8
SARR_3.5x7
 62
7
370
25
100
AcDbLine
 10
6658.447452074189
 20
5696.633594730965
 30
0.0
 11
6658.447452074162
 21
5578.833594730859
 31
0.0
  0
LINE
  5
110
330
17
100
AcDbEntity
  8
SARR_3.5x7
 62
7
370
25
100
AcDbLine
 10
6661.947452074248
 20
5696.633594730863
 30
0.0
 11
6661.94745207425
 21
5578.833594730874
 31
0.0
  0
LINE
  5
111
330
17
100
AcDbEntity
  8
SARR_3.5x7
 62
7
370
25
100
AcDbLine
 10
6658.447452074162
 20
5578.833594730859
 30
0.0
 11
6661.94745207425
 21
5578.833594730859
 31
0.0
  0
LINE
  5
112
330
17
100
AcDbEntity
  8
SARR_3.5x7
 62
7
370
25
100
AcDbLine
 10
6661.94745207425
 20
5578.833594730859
 30
0.0
 11
6665.447452074308
 21
5578.833594730859
 31
0.0
  0
LINE
  5
113
330
17
100
AcDbEntity
  8
Painéis
 62
7
370
25
100
AcDbLine
 10
6600.947452074244
 20
5698.833594730845
 30
0.0
 11
6744.947452074246
 21
5698.833594730871
 31
0.0
  0
LINE
  5
114
330
17
100
AcDbEntity
  8
Painéis
 62
7
370
25
100
AcDbLine
 10
6600.94745207425
 20
5578.833594730845
 30
0.0
 11
6744.947452074249
 21
5578.833594730871
 31
0.0
  0
LINE
  5
115
330
17
100
AcDbEntity
  8
Painéis
 62
7
370
25
100
AcDbLine
 10
6661.94745207425
 20
5578.833594730859
 30
0.0
 11
6661.947452074246
 21
5698.83359473086
 31
0.0
  0
LINE
  5
116
330
17
100
AcDbEntity
  8
Painéis
 62
7
370
25
100
AcDbLine
 10
6744.947452074249
 20
5578.833594730871
 30
0.0
 11
6744.947452074246
 21
5698.833594730871
 31
0.0
  0
LINE
  5
117
330
17
100
AcDbEntity
  8
Painéis
 62
7
370
25
100
AcDbLine
 10
6600.94745207425
 20
5578.833594730845
 30
0.0
 11
6600.947452074246
 21
5698.833594730845
 31
0.0
  0
LINE
  5
118
330
17
100
AcDbEntity
  8
COTA
 62
7
370
25
100
AcDbLine
 10
6600.947452074244
 20
5698.833594730845
 30
0.0
 11
6600.947452074244
 21
5712.833594730845
 31
0.0
  0
LINE
  5
119
330
17
100
AcDbEntity
  8
COTA
 62
7
370
25
100
AcDbLine
 10
6600.947452074244
 20
5712.833594730845
 30
0.0
 11
6744.947452074244
 21
5712.833594730845
 31
0.0
  0
LINE
  5
11A
330
17
100
AcDbEntity
  8
COTA
 62
7
370
25
100
AcDbLine
 10
6744.947452074244
 20
5712.833594730845
 30
0.0
 11
6744.947452074246
 21
5698.833594730871
 31
0.0
  0
LINE
  5
11B
330
17
100
AcDbEntity
  8
SARR_2.2x7
 62
7
370
25
100
AcDbLine
 10
6607.502311315065
 20
5578.833594730843
 30
0.0
 11
6607.502311315063
 21
5698.833594730847
 31
0.0
  0
LINE
  5
11C
330
17
100
AcDbEntity
  8
SARR_3.5x7
 62
7
370
25
100
AcDbLine
 10
6615.502311315063
 20
5698.833594730861
 30
0.0
 11
6615.502311315066
 21
5578.833594730843
 31
0.0
  0
LINE
  5
11D
330
17
100
AcDbEntity
  8
SARR_3.5x7
 62
7
370
25
100
AcDbLine
 10
6619.002311315064
 20
5696.633594730864
 30
0.0
 11
6619.002311315066
 21
5578.833594730845
 31
0.0
  0
LINE
  5
11E
330
17
100
AcDbEntity
  8
SARR_2.2x7
 62
7
370
25
100
AcDbLine
 10
6738.392592833434
 20
5578.833594730869
 30
0.0
 11
6738.392592833436
 21
5698.833594730847
 31
0.0
  0
LINE
  5
11F
330
17
100
AcDbEntity
  8
SARR_3.5x7
 62
7
370
25
100
AcDbLine
 10
6730.392592833436
 20
5698.833594730861
 30
0.0
 11
6730.392592833434
 21
5578.833594730869
 31
0.0
  0
LINE
  5
120
330
17
100
AcDbEntity
  8
SARR_3.5x7
 62
7
370
25
100
AcDbLine
 10
6726.892592833435
 20
5696.633594730864
 30
0.0
 11
6726.892592833434
 21
5578.833594730869
 31
0.0
  0
LINE
  5
121
330
17
100
AcDbEntity
  8
SARR_3.5x7
 62
7
370
25
100
AcDbLine
 10
6640.447880143639
 20
5696.633594730854
 30
0.0
 11
6640.447880143636
 21
5578.83359473085
 31
0.0
  0
LINE
  5
122
330
17
100
AcDbEntity
  8
SARR_3.5x7
 62
7
370
25
100
AcDbLine
 10
6636.947880143636
 20
5696.633594730868
 30
0.0
 11
6636.947880143636
 21
5578.83359473085
 31
0.0
  0
LINE
  5
123
330
17
100
AcDbEntity
  8
SARR_3.5x7
 62
7
370
25
100
AcDbLine
 10
6697.893020902826
 20
5696.633594730741
 30
0.0
 11
6697.893020902824
 21
5578.833594730738
 31
0.0
  0
LINE
  5
124
330
17
100
AcDbEntity
  8
SARR_3.5x7
 62
7
370
25
100
AcDbLine
 10
6694.393020902824
 20
5696.633594730755
 30
0.0
 11
6694.393020902824
 21
5578.833594730738
 31
0.0
  0
LWPOLYLINE
  5
125
330
17
100
AcDbEntity
  8
Painéis
 62
7
370
25
100
AcDbPolyline
 90
4
 70
0
 10
5081.460914822072
 20
5669.494709370649
 10
5085.460914822071
 20
5669.494709370649
 10
5085.460914822071
 20
5433.494709370672
 10
5081.460914822072
 20
5433.494709370672
  0
LWPOLYLINE
  5
126
330
17
100
AcDbEntity
  8
Madeira
 62
7
370
25
100
AcDbPolyline
 90
4
 70
0
 10
5081.460914822072
 20
5665.094709370649
 10
5081.460914822072
 20
5669.494709370649
 10
5067.460914822071
 20
5669.494709370649
 10
5067.460914822071
 20
5665.094709370649
  0
LWPOLYLINE
  5
127
330
17
100
AcDbEntity
  8
Madeira
 62
7
370
25
100
AcDbPolyline
 90
4
 70
0
 10
5047.460914822071
 20
5433.494709370672
 10
5047.460914822071
 20
5437.894709370666
 10
5067.460914822071
 20
5437.894709370666
 10
5067.460914822071
 20
5433.494709370672
  0
LWPOLYLINE
  5
128
330
17
100
AcDbEntity
  8
Madeira
 62
7
370
25
100
AcDbPolyline
 90
4
 70
0
 10
5081.460914822072
 20
5669.494709370649
 10
5067.460914822071
 20
5669.494709370649
 10
5067.460914822071
 20
5433.494709370672
 10
5081.460914822072
 20
5433.494709370672
  0
LWPOLYLINE
  5
129
330
17
100
AcDbEntity
  8
Madeira
 62
7
370
25
100
AcDbPolyline
 90
4
 70
0
 10
5205.460914822072
 20
5433.494709370672
 10
5205.460914822072
 20
5437.894709370666
 10
5191.460914822072
 20
5437.894709370666
 10
5191.460914822072
 20
5433.494709370672
  0
LWPOLYLINE
  5
12A
330
17
100
AcDbEntity
  8
Painéis
 62
7
370
25
100
AcDbPolyline
 90
4
 70
0
 10
5205.460914822072
 20
5437.894709370666
 10
5205.460914822072
 20
5441.494709370672
 10
5085.460914822071
 20
5441.494709370672
 10
5085.460914822071
 20
5437.894709370666
  0
LWPOLYLINE
  5
12B
330
17
100
AcDbEntity
  8
Madeira
 62
7
370
25
100
AcDbPolyline
 90
4
 70
0
 10
5085.460914822071
 20
5433.494709370672
 10
5085.460914822071
 20
5437.894709370666
 10
5099.460914822071
 20
5437.894709370666
 10
5099.460914822071
 20
5433.494709370672
  0
LWPOLYLINE
  5
12C
330
17
100
AcDbEntity
  8
Painéis
 62
7
370
25
100
AcDbPolyline
 90
4
 70
0
 10
5209.460914822072
 20
5669.494709370649
 10
5205.460914822072
 20
5669.494709370649
 10
5205.460914822072
 20
5433.494709370672
 10
5209.460914822072
 20
5433.494709370672
  0
LWPOLYLINE
  5
12D
330
17
100
AcDbEntity
  8
Painéis
 62
7
370
25
100
AcDbPolyline
 90
4
 70
0
 10
5265.460914822043
 20
5669.494709370649
 10
5265.460914822043
 20
5673.49470937065
 10
5205.460914822072
 20
5673.49470937065
 10
5205.460914822072
 20
5669.494709370649
  0
LWPOLYLINE
  5
12E
330
17
100
AcDbEntity
  8
Madeira
 62
7
370
25
100
AcDbPolyline
 90
4
 70
0
 10
5209.460914822072
 20
5665.094709370649
 10
5209.460914822072
 20
5669.494709370649
 10
5223.460914822072
 20
5669.494709370649
 10
5223.460914822072
 20
5665.094709370649
  0
LWPOLYLINE
  5
12F
330
17
100
AcDbEntity
  8
Madeira
 62
7
370
25
100
AcDbPolyline
 90
4
 70
0
 10
5243.460914822072
 20
5433.494709370672
 10
5243.460914822072
 20
5437.894709370666
 10
5223.460914822072
 20
5437.894709370666
 10
5223.460914822072
 20
5433.494709370672
  0
LWPOLYLINE
  5
130
330
17
100
AcDbEntity
  8
Madeira
 62
7
370
25
100
AcDbPolyline
 90
4
 70
0
 10
5209.460914822072
 20
5669.494709370649
 10
5223.460914822072
 20
5669.494709370649
 10
5223.460914822072
 20
5433.494709370672
 10
5209.460914822072
 20
5433.494709370672
  0
LWPOLYLINE
  5
131
330
17
100
AcDbEntity
  8
Painéis
 62
7
370
25
100
AcDbPolyline
 90
4
 70
0
 10
5085.460914822071
 20
5669.494709370649
 10
5085.460914822071
 20
5673.49470937065
 10
5029.860914822094
 20
5673.494709370642
 10
5029.860914822094
 20
5669.494709370642
  0
LWPOLYLINE
  5
132
330
17
100
AcDbEntity
  8
CONCRETO
 62
7
370
25
100
AcDbPolyline
 90
8
 70
0
 10
5029.860914822094
 20
5673.494709370642
 10
5029.860914822094
 20
5701.494709370671
 10
5265.460914822043
 20
5701.494709370671
 10
5265.460914822043
 20
5673.494709370658
 10
5205.460914822072
 20
5673.494709370658
 10
5205.460914822014
 20
5441.494709370672
 10
5085.460914822071
 20
5441.494709370672
 10
5085.460914822071
 20
5673.49470937065
  0
LWPOLYLINE
  5
133
330
17
100
AcDbEntity
  8
barrote
 62
7
370
25
100
AcDbPolyline
 90
4
 70
0
 10
5014.005717150178
 20
5413.494709370715
 10
5291.188657659872
 20
5413.494709370715
 10
5291.188657659872
 20
5433.494709370672
 10
5014.005717150178
 20
5433.494709370672
  0
LWPOLYLINE
  5
134
330
17
100
AcDbEntity
  8
SCO-___-LAJ
 62
7
370
25
100
AcDbPolyline
 90
4
 70
0
 10
5023.007984565638
 20
5432.161296037345
 10
5272.3138450785
 20
5432.161296037338
 10
5272.3138450785
 20
5428.961616037362
 10
5023.007984565638
 20
5428.961616037369
  0
LWPOLYLINE
  5
135
330
17
100
AcDbEntity
  8
Madeira
 62
7
370
25
100
AcDbPolyline
 90
4
 70
0
 10
5138.460914822072
 20
5433.494709370672
 10
5138.460914822072
 20
5437.894709370666
 10
5152.460914822071
 20
5437.894709370666
 10
5152.460914822071
 20
5433.494709370672
  0
ENDSEC
  0
SECTION
  2
OBJECTS
  0
DICTIONARY
  5
A
330
0
100
AcDbDictionary
281
1
  3
ACAD_COLOR
350
B
  3
ACAD_GROUP
350
C
  3
ACAD_LAYOUT
350
D
  3
ACAD_MATERIAL
350
E
  3
ACAD_MLEADERSTYLE
350
F
  3
ACAD_MLINESTYLE
350
10
  3
ACAD_PLOTSETTINGS
350
11
  3
ACAD_PLOTSTYLENAME
350
12
  3
ACAD_SCALELIST
350
14
  3
ACAD_TABLESTYLE
350
15
  3
ACAD_VISUALSTYLE
350
16
  3
EZDXF_META
350
2D
  0
DICTIONARY
  5
B
330
A
100
AcDbDictionary
281
1
  0
DICTIONARY
  5
C
330
A
100
AcDbDictionary
281
1
  0
DICTIONARY
  5
D
330
A
100
AcDbDictionary
281
1
  3
Model
350
1A
  3
Layout1
350
1E
  0
DICTIONARY
  5
E
330
A
100
AcDbDictionary
281
1
  3
ByBlock
350
1F
  3
ByLayer
350
20
  3
Global
350
21
  0
DICTIONARY
  5
F
330
A
100
AcDbDictionary
281
1
  3
Standard
350
2C
  0
DICTIONARY
  5
10
330
A
100
AcDbDictionary
281
1
  3
Standard
350
22
  0
DICTIONARY
  5
11
330
A
100
AcDbDictionary
281
1
  0
ACDBDICTIONARYWDFLT
  5
12
330
A
100
AcDbDictionary
281
1
  3
Normal
350
13
100
AcDbDictionaryWithDefault
340
13
  0
ACDBPLACEHOLDER
  5
13
330
12
  0
DICTIONARY
  5
14
330
A
100
AcDbDictionary
281
1
  0
DICTIONARY
  5
15
330
A
100
AcDbDictionary
281
1
  0
DICTIONARY
  5
16
330
A
100
AcDbDictionary
281
1
  0
LAYOUT
  5
1A
330
D
100
AcDbPlotSettings
  1

  4
A3
  6

 40
7.5
 41
20.0
 42
7.5
 43
20.0
 44
420.0
 45
297.0
 46
0.0
 47
0.0
 48
0.0
 49
0.0
140
0.0
141
0.0
142
1.0
143
1.0
 70
1024
 72
1
 73
0
 74
5
  7

 75
16
 76
0
 77
2
 78
300
147
1.0
148
0.0
149
0.0
100
AcDbLayout
  1
Model
 70
1
 71
0
 10
0.0
 20
0.0
 11
420.0
 21
297.0
 12
0.0
 22
0.0
 32
0.0
 14
1e+20
 24
1e+20
 34
1e+20
 15
-1e+20
 25
-1e+20
 35
-1e+20
146
0.0
 13
0.0
 23
0.0
 33
0.0
 16
1.0
 26
0.0
 36
0.0
 17
0.0
 27
1.0
 37
0.0
 76
1
330
17
  0
LAYOUT
  5
1E
330
D
100
AcDbPlotSettings
  1

  4
A3
  6

 40
7.5
 41
20.0
 42
7.5
 43
20.0
 44
420.0
 45
297.0
 46
0.0
 47
0.0
 48
0.0
 49
0.0
140
0.0
141
0.0
142
1.0
143
1.0
 70
0
 72
1
 73
0
 74
5
  7

 75
16
 76
0
 77
2
 78
300
147
1.0
148
0.0
149
0.0
100
AcDbLayout
  1
Layout1
 70
1
 71
1
 10
0.0
 20
0.0
 11
420.0
 21
297.0
 12
0.0
 22
0.0
 32
0.0
 14
1e+20
 24
1e+20
 34
1e+20
 15
-1e+20
 25
-1e+20
 35
-1e+20
146
0.0
 13
0.0
 23
0.0
 33
0.0
 16
1.0
 26
0.0
 36
0.0
 17
0.0
 27
1.0
 37
0.0
 76
1
330
1B
  0
MATERIAL
  5
1F
102
{ACAD_REACTORS
330
E
102
}
330
E
100
AcDbMaterial
  1
ByBlock
  2

 70
0
 40
1.0
 71
1
 41
1.0
 91
-1023410177
 42
1.0
 72
1
  3

 73
1
 74
1
 75
1
 44
0.5
 73
0
 45
1.0
 46
1.0
 77
1
  4

 78
1
 79
1
170
1
 48
1.0
171
1
  6

172
1
173
1
174
1
140
1.0
141
1.0
175
1
  7

176
1
177
1
178
1
143
1.0
179
1
  8

270
1
271
1
272
1
145
1.0
146
1.0
273
1
  9

274
1
275
1
276
1
 42
1.0
 72
1
  3

 73
1
 74
1
 75
1
 94
63
  0
MATERIAL
  5
20
102
{ACAD_REACTORS
330
E
102
}
330
E
100
AcDbMaterial
  1
ByLayer
  2

 70
0
 40
1.0
 71
1
 41
1.0
 91
-1023410177
 42
1.0
 72
1
  3

 73
1
 74
1
 75
1
 44
0.5
 73
0
 45
1.0
 46
1.0
 77
1
  4

 78
1
 79
1
170
1
 48
1.0
171
1
  6

172
1
173
1
174
1
140
1.0
141
1.0
175
1
  7

176
1
177
1
178
1
143
1.0
179
1
  8

270
1
271
1
272
1
145
1.0
146
1.0
273
1
  9

274
1
275
1
276
1
 42
1.0
 72
1
  3

 73
1
 74
1
 75
1
 94
63
  0
MATERIAL
  5
21
102
{ACAD_REACTORS
330
E
102
}
330
E
100
AcDbMaterial
  1
Global
  2

 70
0
 40
1.0
 71
1
 41
1.0
 91
-1023410177
 42
1.0
 72
1
  3

 73
1
 74
1
 75
1
 44
0.5
 73
0
 45
1.0
 46
1.0
 77
1
  4

 78
1
 79
1
170
1
 48
1.0
171
1
  6

172
1
173
1
174
1
140
1.0
141
1.0
175
1
  7

176
1
177
1
178
1
143
1.0
179
1
  8

270
1
271
1
272
1
145
1.0
146
1.0
273
1
  9

274
1
275
1
276
1
 42
1.0
 72
1
  3

 73
1
 74
1
 75
1
 94
63
  0
MLINESTYLE
  5
22
102
{ACAD_REACTORS
330
10
102
}
330
10
100
AcDbMlineStyle
  2
Standard
 70
0
  3

 62
256
 51
90.0
 52
90.0
 71
2
 49
0.5
 62
256
  6
BYLAYER
 49
-0.5
 62
256
  6
BYLAYER
  0
MLEADERSTYLE
  5
2C
102
{ACAD_REACTORS
330
F
102
}
330
F
100
AcDbMLeaderStyle
179
2
170
2
171
1
172
0
 90
2
 40
0.0
 41
0.0
173
1
 91
-1056964608
 92
-2
290
1
 42
2.0
291
1
 43
8.0
  3
Standard
 44
4.0
300

342
29
174
1
175
1
176
0
178
1
 93
-1056964608
 45
4.0
292
0
297
0
 46
4.0
 94
-1056964608
 47
1.0
 49
1.0
140
1.0
294
1
141
0.0
177
0
142
1.0
295
0
296
0
143
3.75
271
0
272
9
273
9
  0
DICTIONARY
  5
2D
330
A
100
AcDbDictionary
280
1
281
1
  3
CREATED_BY_EZDXF
350
2E
  3
WRITTEN_BY_EZDXF
350
138
  0
DICTIONARYVAR
  5
2E
330
2D
100
DictionaryVariables
280
0
  1
1.4.3 @ 2026-06-10T03:13:13.668203+00:00
  0
DICTIONARYVAR
  5
138
330
2D
100
DictionaryVariables
280
0
  1
1.4.3 @ 2026-06-10T03:13:13.676244+00:00
  0
ENDSEC
  0
EOF
