  0
SECTION
  2
HEADER
  9
$ACADVER
  1
AC1032
  9
$ACADMAINTVER
 90
4
  9
$DWGCODEPAGE
  3
ANSI_1252
  9
$LASTSAVEDBY
  1
ezdxf
  9
$REQUIREDVERSIONS
160
0
  9
$INSBASE
 10
0.0
 20
0.0
 30
0.0
  9
$EXTMIN
 10
1e+20
 20
1e+20
 30
1e+20
  9
$EXTMAX
 10
-1e+20
 20
-1e+20
 30
-1e+20
  9
$LIMMIN
 10
0.0
 20
0.0
  9
$LIMMAX
 10
420.0
 20
297.0
  9
$ORTHOMODE
 70
0
  9
$REGENMODE
 70
1
  9
$FILLMODE
 70
1
  9
$QTEXTMODE
 70
0
  9
$MIRRTEXT
 70
1
  9
$LTSCALE
 40
1.0
  9
$ATTMODE
 70
1
  9
$TEXTSIZE
 40
2.5
  9
$TRACEWID
 40
1.0
  9
$TEXTSTYLE
  7
Standard
  9
$CLAYER
  8
0
  9
$CELTYPE
  6
ByLayer
  9
$CECOLOR
 62
256
  9
$CELTSCALE
 40
1.0
  9
$DISPSILH
 70
0
  9
$DIMSCALE
 40
1.0
  9
$DIMASZ
 40
2.5
  9
$DIMEXO
 40
0.625
  9
$DIMDLI
 40
3.75
  9
$DIMRND
 40
0.0
  9
$DIMDLE
 40
0.0
  9
$DIMEXE
 40
1.25
  9
$DIMTP
 40
0.0
  9
$DIMTM
 40
0.0
  9
$DIMTXT
 40
2.5
  9
$DIMCEN
 40
2.5
  9
$DIMTSZ
 40
0.0
  9
$DIMTOL
 70
0
  9
$DIMLIM
 70
0
  9
$DIMTIH
 70
0
  9
$DIMTOH
 70
0
  9
$DIMSE1
 70
0
  9
$DIMSE2
 70
0
  9
$DIMTAD
 70
1
  9
$DIMZIN
 70
8
  9
$DIMBLK
  1

  9
$DIMASO
 70
1
  9
$DIMSHO
 70
1
  9
$DIMPOST
  1

  9
$DIMAPOST
  1

  9
$DIMALT
 70
0
  9
$DIMALTD
 70
3
  9
$DIMALTF
 40
0.03937007874
  9
$DIMLFAC
 40
1.0
  9
$DIMTOFL
 70
1
  9
$DIMTVP
 40
0.0
  9
$DIMTIX
 70
0
  9
$DIMSOXD
 70
0
  9
$DIMSAH
 70
0
  9
$DIMBLK1
  1

  9
$DIMBLK2
  1

  9
$DIMSTYLE
  2
ISO-25
  9
$DIMCLRD
 70
0
  9
$DIMCLRE
 70
0
  9
$DIMCLRT
 70
0
  9
$DIMTFAC
 40
1.0
  9
$DIMGAP
 40
0.625
  9
$DIMJUST
 70
0
  9
$DIMSD1
 70
0
  9
$DIMSD2
 70
0
  9
$DIMTOLJ
 70
0
  9
$DIMTZIN
 70
8
  9
$DIMALTZ
 70
0
  9
$DIMALTTZ
 70
0
  9
$DIMUPT
 70
0
  9
$DIMDEC
 70
2
  9
$DIMTDEC
 70
2
  9
$DIMALTU
 70
2
  9
$DIMALTTD
 70
3
  9
$DIMTXSTY
  7
Standard
  9
$DIMAUNIT
 70
0
  9
$DIMADEC
 70
0
  9
$DIMALTRND
 40
0.0
  9
$DIMAZIN
 70
0
  9
$DIMDSEP
 70
44
  9
$DIMATFIT
 70
3
  9
$DIMFRAC
 70
0
  9
$DIMLDRBLK
  1

  9
$DIMLUNIT
 70
2
  9
$DIMLWD
 70
-2
  9
$DIMLWE
 70
-2
  9
$DIMTMOVE
 70
0
  9
$DIMFXL
 40
1.0
  9
$DIMFXLON
 70
0
  9
$DIMJOGANG
 40
0.785398163397
  9
$DIMTFILL
 70
0
  9
$DIMTFILLCLR
 70
0
  9
$DIMARCSYM
 70
0
  9
$DIMLTYPE
  6

  9
$DIMLTEX1
  6

  9
$DIMLTEX2
  6

  9
$DIMTXTDIRECTION
 70
0
  9
$LUNITS
 70
2
  9
$LUPREC
 70
4
  9
$SKETCHINC
 40
1.0
  9
$FILLETRAD
 40
10.0
  9
$AUNITS
 70
0
  9
$AUPREC
 70
2
  9
$MENU
  1
.
  9
$ELEVATION
 40
0.0
  9
$PELEVATION
 40
0.0
  9
$THICKNESS
 40
0.0
  9
$LIMCHECK
 70
0
  9
$CHAMFERA
 40
0.0
  9
$CHAMFERB
 40
0.0
  9
$CHAMFERC
 40
0.0
  9
$CHAMFERD
 40
0.0
  9
$SKPOLY
 70
0
  9
$TDCREATE
 40
2461246.6364699076
  9
$TDUCREATE
 40
2458532.153996898
  9
$TDUPDATE
 40
2461246.6364699076
  9
$TDUUPDATE
 40
2458532.1544311
  9
$TDINDWG
 40
0.0
  9
$TDUSRTIMER
 40
0.0
  9
$USRTIMER
 70
1
  9
$ANGBASE
 50
0.0
  9
$ANGDIR
 70
0
  9
$PDMODE
 70
0
  9
$PDSIZE
 40
0.0
  9
$PLINEWID
 40
0.0
  9
$SPLFRAME
 70
0
  9
$SPLINETYPE
 70
6
  9
$SPLINESEGS
 70
8
  9
$HANDSEED
  5
313
  9
$SURFTAB1
 70
6
  9
$SURFTAB2
 70
6
  9
$SURFTYPE
 70
6
  9
$SURFU
 70
6
  9
$SURFV
 70
6
  9
$UCSBASE
  2

  9
$UCSNAME
  2

  9
$UCSORG
 10
0.0
 20
0.0
 30
0.0
  9
$UCSXDIR
 10
1.0
 20
0.0
 30
0.0
  9
$UCSYDIR
 10
0.0
 20
1.0
 30
0.0
  9
$UCSORTHOREF
  2

  9
$UCSORTHOVIEW
 70
0
  9
$UCSORGTOP
 10
0.0
 20
0.0
 30
0.0
  9
$UCSORGBOTTOM
 10
0.0
 20
0.0
 30
0.0
  9
$UCSORGLEFT
 10
0.0
 20
0.0
 30
0.0
  9
$UCSORGRIGHT
 10
0.0
 20
0.0
 30
0.0
  9
$UCSORGFRONT
 10
0.0
 20
0.0
 30
0.0
  9
$UCSORGBACK
 10
0.0
 20
0.0
 30
0.0
  9
$PUCSBASE
  2

  9
$PUCSNAME
  2

  9
$PUCSORG
 10
0.0
 20
0.0
 30
0.0
  9
$PUCSXDIR
 10
1.0
 20
0.0
 30
0.0
  9
$PUCSYDIR
 10
0.0
 20
1.0
 30
0.0
  9
$PUCSORTHOREF
  2

  9
$PUCSORTHOVIEW
 70
0
  9
$PUCSORGTOP
 10
0.0
 20
0.0
 30
0.0
  9
$PUCSORGBOTTOM
 10
0.0
 20
0.0
 30
0.0
  9
$PUCSORGLEFT
 10
0.0
 20
0.0
 30
0.0
  9
$PUCSORGRIGHT
 10
0.0
 20
0.0
 30
0.0
  9
$PUCSORGFRONT
 10
0.0
 20
0.0
 30
0.0
  9
$PUCSORGBACK
 10
0.0
 20
0.0
 30
0.0
  9
$USERI1
 70
0
  9
$USERI2
 70
0
  9
$USERI3
 70
0
  9
$USERI4
 70
0
  9
$USERI5
 70
0
  9
$USERR1
 40
0.0
  9
$USERR2
 40
0.0
  9
$USERR3
 40
0.0
  9
$USERR4
 40
0.0
  9
$USERR5
 40
0.0
  9
$WORLDVIEW
 70
1
  9
$SHADEDGE
 70
3
  9
$SHADEDIF
 70
70
  9
$TILEMODE
 70
1
  9
$MAXACTVP
 70
64
  9
$PINSBASE
 10
0.0
 20
0.0
 30
0.0
  9
$PLIMCHECK
 70
0
  9
$PEXTMIN
 10
1e+20
 20
1e+20
 30
1e+20
  9
$PEXTMAX
 10
-1e+20
 20
-1e+20
 30
-1e+20
  9
$PLIMMIN
 10
0.0
 20
0.0
  9
$PLIMMAX
 10
420.0
 20
297.0
  9
$UNITMODE
 70
0
  9
$VISRETAIN
 70
1
  9
$PLINEGEN
 70
0
  9
$PSLTSCALE
 70
1
  9
$TREEDEPTH
 70
3020
  9
$CMLSTYLE
  2
Standard
  9
$CMLJUST
 70
0
  9
$CMLSCALE
 40
20.0
  9
$PROXYGRAPHICS
 70
1
  9
$MEASUREMENT
 70
1
  9
$CELWEIGHT
370
-1
  9
$ENDCAPS
280
0
  9
$JOINSTYLE
280
0
  9
$LWDISPLAY
290
0
  9
$INSUNITS
 70
5
  9
$HYPERLINKBASE
  1

  9
$STYLESHEET
  1

  9
$XEDIT
290
1
  9
$CEPSNTYPE
380
0
  9
$PSTYLEMODE
290
1
  9
$FINGERPRINTGUID
  2
{B6444486-9700-416A-85E7-85DB7F24C2AE}
  9
$VERSIONGUID
  2
{EF1752A5-010C-4B20-8F16-66EFBBDFBCAC}
  9
$EXTNAMES
290
1
  9
$PSVPSCALE
 40
0.0
  9
$OLESTARTUP
290
0
  9
$SORTENTS
280
127
  9
$INDEXCTL
280
0
  9
$HIDETEXT
280
1
  9
$XCLIPFRAME
280
1
  9
$HALOGAP
280
0
  9
$OBSCOLOR
 70
257
  9
$OBSLTYPE
280
0
  9
$INTERSECTIONDISPLAY
280
0
  9
$INTERSECTIONCOLOR
 70
257
  9
$DIMASSOC
280
2
  9
$PROJECTNAME
  1

  9
$CAMERADISPLAY
290
0
  9
$LENSLENGTH
 40
50.0
  9
$CAMERAHEIGHT
 40
0.0
  9
$STEPSPERSEC
 40
24.0
  9
$STEPSIZE
 40
100.0
  9
$3DDWFPREC
 40
2.0
  9
$PSOLWIDTH
 40
0.005
  9
$PSOLHEIGHT
 40
0.08
  9
$LOFTANG1
 40
1.570796326795
  9
$LOFTANG2
 40
1.570796326795
  9
$LOFTMAG1
 40
0.0
  9
$LOFTMAG2
 40
0.0
  9
$LOFTPARAM
 70
7
  9
$LOFTNORMALS
280
1
  9
$LATITUDE
 40
37.795
  9
$LONGITUDE
 40
-122.394
  9
$NORTHDIRECTION
 40
0.0
  9
$TIMEZONE
 70
-8000
  9
$LIGHTGLYPHDISPLAY
280
1
  9
$TILEMODELIGHTSYNCH
280
1
  9
$CMATERIAL
347
20
  9
$SOLIDHIST
280
0
  9
$SHOWHIST
280
1
  9
$DWFFRAME
280
2
  9
$DGNFRAME
280
2
  9
$REALWORLDSCALE
290
1
  9
$INTERFERECOLOR
 62
256
  9
$CSHADOW
280
0
  9
$SHADOWPLANELOCATION
 40
0.0
  0
ENDSEC
  0
SECTION
  2
CLASSES
  0
CLASS
  1
ACDBDICTIONARYWDFLT
  2
AcDbDictionaryWithDefault
  3
ObjectDBX Classes
 90
0
 91
0
280
0
281
0
  0
CLASS
  1
SUN
  2
AcDbSun
  3
SCENEOE
 90
1153
 91
0
280
0
281
0
  0
CLASS
  1
VISUALSTYLE
  2
AcDbVisualStyle
  3
ObjectDBX Classes
 90
4095
 91
0
280
0
281
0
  0
CLASS
  1
MATERIAL
  2
AcDbMaterial
  3
ObjectDBX Classes
 90
1153
 91
0
280
0
281
0
  0
CLASS
  1
SCALE
  2
AcDbScale
  3
ObjectDBX Classes
 90
1153
 91
0
280
0
281
0
  0
CLASS
  1
TABLESTYLE
  2
AcDbTableStyle
  3
ObjectDBX Classes
 90
4095
 91
0
280
0
281
0
  0
CLASS
  1
MLEADERSTYLE
  2
AcDbMLeaderStyle
  3
ACDB_MLEADERSTYLE_CLASS
 90
4095
 91
0
280
0
281
0
  0
CLASS
  1
DICTIONARYVAR
  2
AcDbDictionaryVar
  3
ObjectDBX Classes
 90
0
 91
0
280
0
281
0
  0
CLASS
  1
CELLSTYLEMAP
  2
AcDbCellStyleMap
  3
ObjectDBX Classes
 90
1152
 91
0
280
0
281
0
  0
CLASS
  1
MENTALRAYRENDERSETTINGS
  2
AcDbMentalRayRenderSettings
  3
SCENEOE
 90
1024
 91
0
280
0
281
0
  0
CLASS
  1
ACDBDETAILVIEWSTYLE
  2
AcDbDetailViewStyle
  3
ObjectDBX Classes
 90
1025
 91
0
280
0
281
0
  0
CLASS
  1
ACDBSECTIONVIEWSTYLE
  2
AcDbSectionViewStyle
  3
ObjectDBX Classes
 90
1025
 91
0
280
0
281
0
  0
CLASS
  1
RASTERVARIABLES
  2
AcDbRasterVariables
  3
ISM
 90
0
 91
0
280
0
281
0
  0
CLASS
  1
LAYOUT
  2
AcDbLayout
  3
ObjectDBX Classes
 90
0
 91
0
280
0
281
0
  0
CLASS
  1
ACDBPLACEHOLDER
  2
AcDbPlaceHolder
  3
ObjectDBX Classes
 90
0
 91
0
280
0
281
0
  0
ENDSEC
  0
SECTION
  2
TABLES
  0
TABLE
  2
VPORT
  5
8
330
0
100
AcDbSymbolTable
 70
1
  0
VPORT
  5
23
330
8
100
AcDbSymbolTableRecord
100
AcDbViewportTableRecord
  2
*Active
 70
0
 10
0.0
 20
0.0
 11
1.0
 21
1.0
 12
0.0
 22
0.0
 13
0.0
 23
0.0
 14
0.5
 24
0.5
 15
0.5
 25
0.5
 16
0.0
 26
0.0
 36
1.0
 17
0.0
 27
0.0
 37
0.0
 40
1000.0
 41
1.34
 42
50.0
 43
0.0
 44
0.0
 50
0.0
 51
0.0
 71
0
 72
1000
 73
1
 74
3
 75
0
 76
0
 77
0
 78
0
281
0
 65
0
146
0.0
  0
ENDTAB
  0
TABLE
  2
LTYPE
  5
2
330
0
100
AcDbSymbolTable
 70
5
  0
LTYPE
  5
24
330
2
100
AcDbSymbolTableRecord
100
AcDbLinetypeTableRecord
  2
ByBlock
 70
0
  3

 72
65
 73
0
 40
0.0
  0
LTYPE
  5
25
330
2
100
AcDbSymbolTableRecord
100
AcDbLinetypeTableRecord
  2
ByLayer
 70
0
  3

 72
65
 73
0
 40
0.0
  0
LTYPE
  5
26
330
2
100
AcDbSymbolTableRecord
100
AcDbLinetypeTableRecord
  2
Continuous
 70
0
  3

 72
65
 73
0
 40
0.0
  0
LTYPE
  5
48
330
2
100
AcDbSymbolTableRecord
100
AcDbLinetypeTableRecord
  2
DASHED
 70
0
  3
Dashed
 72
65
 73
1
 40
5.0
 49
-2.0
 74
0
  0
LTYPE
  5
49
330
2
100
AcDbSymbolTableRecord
100
AcDbLinetypeTableRecord
  2
HIDDEN
 70
0
  3
Hidden __ __ __
 72
65
 73
2
 40
9.525
 49
6.35
 74
0
 49
-3.175
 74
0
  0
ENDTAB
  0
TABLE
  2
LAYER
  5
1
330
0
100
AcDbSymbolTable
 70
28
  0
LAYER
  5
27
330
1
100
AcDbSymbolTableRecord
100
AcDbLayerTableRecord
  2
0
 70
0
 62
7
  6
Continuous
370
-3
390
13
347
21
  0
LAYER
  5
28
330
1
100
AcDbSymbolTableRecord
100
AcDbLayerTableRecord
  2
Defpoints
 70
0
 62
7
  6
Continuous
290
0
370
-3
390
13
347
21
  0
LAYER
  5
2F
330
1
100
AcDbSymbolTableRecord
100
AcDbLayerTableRecord
  2
Hachura
 70
0
 62
251
  6
Continuous
370
-3
390
13
347
21
  0
LAYER
  5
30
330
1
100
AcDbSymbolTableRecord
100
AcDbLayerTableRecord
  2
SARRAFO
 70
0
 62
251
  6
Continuous
370
-3
390
13
347
21
  0
LAYER
  5
31
330
1
100
AcDbSymbolTableRecord
100
AcDbLayerTableRecord
  2
GRAVATA
 70
0
 62
224
  6
Continuous
370
-3
390
13
347
21
  0
LAYER
  5
32
330
1
100
AcDbSymbolTableRecord
100
AcDbLayerTableRecord
  2
COTA
 70
0
 62
241
  6
Continuous
370
-3
390
13
347
21
  0
LAYER
  5
33
330
1
100
AcDbSymbolTableRecord
100
AcDbLayerTableRecord
  2
Painéis
 70
0
 62
200
  6
Continuous
370
-3
390
13
347
21
  0
LAYER
  5
34
330
1
100
AcDbSymbolTableRecord
100
AcDbLayerTableRecord
  2
Nível
 70
0
 62
160
  6
Continuous
370
-3
390
13
347
21
  0
LAYER
  5
35
330
1
100
AcDbSymbolTableRecord
100
AcDbLayerTableRecord
  2
NOMENCLATURA
 70
0
 62
7
  6
Continuous
370
-3
390
13
347
21
  0
LAYER
  5
36
330
1
100
AcDbSymbolTableRecord
100
AcDbLayerTableRecord
  2
SARR_2.2x7
 70
0
 62
40
  6
Continuous
370
-3
390
13
347
21
  0
LAYER
  5
37
330
1
100
AcDbSymbolTableRecord
100
AcDbLayerTableRecord
  2
SARR_2.2x10
 70
0
 62
60
  6
Continuous
370
-3
390
13
347
21
  0
LAYER
  5
38
330
1
100
AcDbSymbolTableRecord
100
AcDbLayerTableRecord
  2
SARR_3.5x7
 70
0
 62
81
  6
Continuous
370
-3
390
13
347
21
  0
LAYER
  5
39
330
1
100
AcDbSymbolTableRecord
100
AcDbLayerTableRecord
  2
SARR_7x7
 70
0
 62
100
  6
Continuous
370
-3
390
13
347
21
  0
LAYER
  5
3A
330
1
100
AcDbSymbolTableRecord
100
AcDbLayerTableRecord
  2
Sarr 2.2x7
 70
0
 62
40
  6
Continuous
370
-3
390
13
347
21
  0
LAYER
  5
3B
330
1
100
AcDbSymbolTableRecord
100
AcDbLayerTableRecord
  2
Madeira
 70
0
 62
30
  6
Continuous
370
-3
390
13
347
21
  0
LAYER
  5
3C
330
1
100
AcDbSymbolTableRecord
100
AcDbLayerTableRecord
  2
CHAPA
 70
0
 62
140
  6
Continuous
370
-3
390
13
347
21
  0
LAYER
  5
3D
330
1
100
AcDbSymbolTableRecord
100
AcDbLayerTableRecord
  2
Perfil Metálico
 70
0
 62
150
  6
Continuous
370
-3
390
13
347
21
  0
LAYER
  5
3E
330
1
100
AcDbSymbolTableRecord
100
AcDbLayerTableRecord
  2
SARRAFO DE PRESSAO
 70
0
 62
200
  6
Continuous
370
-3
390
13
347
21
  0
LAYER
  5
3F
330
1
100
AcDbSymbolTableRecord
100
AcDbLayerTableRecord
  2
MEIO_PONT
 70
0
 62
160
  6
Continuous
370
-3
390
13
347
21
  0
LAYER
  5
40
330
1
100
AcDbSymbolTableRecord
100
AcDbLayerTableRecord
  2
Texto Seção
 70
0
 62
7
  6
Continuous
370
-3
390
13
347
21
  0
LAYER
  5
41
330
1
100
AcDbSymbolTableRecord
100
AcDbLayerTableRecord
  2
TEXTO_GERAL
 70
0
 62
7
  6
Continuous
370
-3
390
13
347
21
  0
LAYER
  5
42
330
1
100
AcDbSymbolTableRecord
100
AcDbLayerTableRecord
  2
texto
 70
0
 62
7
  6
Continuous
370
-3
390
13
347
21
  0
LAYER
  5
43
330
1
100
AcDbSymbolTableRecord
100
AcDbLayerTableRecord
  2
Texto Nível
 70
0
 62
7
  6
Continuous
370
-3
390
13
347
21
  0
LAYER
  5
44
330
1
100
AcDbSymbolTableRecord
100
AcDbLayerTableRecord
  2
NIVEL 2° PAV.
 70
0
 62
160
  6
Continuous
370
-3
390
13
347
21
  0
LAYER
  5
45
330
1
100
AcDbSymbolTableRecord
100
AcDbLayerTableRecord
  2
CONCRETO
 70
0
 62
150
  6
Continuous
370
-3
390
13
347
21
  0
LAYER
  5
46
330
1
100
AcDbSymbolTableRecord
100
AcDbLayerTableRecord
  2
SARR_EDITAR
 70
0
 62
40
  6
Continuous
370
-3
390
13
347
21
  0
LAYER
  5
47
330
1
100
AcDbSymbolTableRecord
100
AcDbLayerTableRecord
  2
COTAS FURACAO
 70
0
 62
16
  6
Continuous
370
-3
390
13
347
21
  0
LAYER
  5
4D
330
1
100
AcDbSymbolTableRecord
100
AcDbLayerTableRecord
  2
Sarrafo de Pressão
 70
0
 62
42
  6
HIDDEN
370
-3
390
13
347
21
  0
ENDTAB
  0
TABLE
  2
STYLE
  5
5
330
0
100
AcDbSymbolTable
 70
1
  0
STYLE
  5
29
330
5
100
AcDbSymbolTableRecord
100
AcDbTextStyleTableRecord
  2
Standard
 70
0
 40
0.0
 41
1.0
 50
0.0
 71
0
 42
2.5
  3
txt
  4

  0
ENDTAB
  0
TABLE
  2
VIEW
  5
7
330
0
100
AcDbSymbolTable
 70
0
  0
ENDTAB
  0
TABLE
  2
UCS
  5
6
330
0
100
AcDbSymbolTable
 70
0
  0
ENDTAB
  0
TABLE
  2
APPID
  5
3
330
0
100
AcDbSymbolTable
 70
3
  0
APPID
  5
2A
330
3
100
AcDbSymbolTableRecord
100
AcDbRegAppTableRecord
  2
ACAD
 70
0
  0
APPID
  5
310
330
3
100
AcDbSymbolTableRecord
100
AcDbRegAppTableRecord
  2
HATCHBACKGROUNDCOLOR
 70
0
  0
APPID
  5
311
330
3
100
AcDbSymbolTableRecord
100
AcDbRegAppTableRecord
  2
EZDXF
 70
0
  0
ENDTAB
  0
TABLE
  2
DIMSTYLE
  5
4
330
0
100
AcDbSymbolTable
 70
4
100
AcDbDimStyleTable
  0
DIMSTYLE
105
2B
330
4
100
AcDbSymbolTableRecord
100
AcDbDimStyleTableRecord
  2
Standard
 70
0
 40
1.0
 41
2.5
 42
0.625
 43
3.75
 44
1.25
 45
0.0
 46
0.0
 47
0.0
 48
0.0
 49
2.5
140
2.5
141
2.5
142
0.0
143
0.03937007874
144
1.0
145
0.0
146
1.0
147
0.625
148
0.0
 69
0
 70
0
 71
0
 72
0
 73
0
 74
0
 75
0
 76
0
 77
1
 78
8
 79
3
170
0
171
3
172
1
173
0
174
0
175
0
176
0
177
0
178
0
179
2
271
2
272
2
273
2
274
3
275
0
276
0
277
2
278
44
279
0
280
0
281
0
282
0
283
0
284
8
285
0
286
0
288
0
289
3
290
0
371
-2
372
-2
  0
DIMSTYLE
105
4A
330
4
100
AcDbSymbolTableRecord
100
AcDbDimStyleTableRecord
  2
cotax2
 70
0
 40
1.0
 41
1.5
 42
0.5
 43
3.75
 44
0.5
 45
0.0
 46
0.0
 47
0.0
 48
0.0
 49
2.5
140
2.5
141
2.5
142
0.0
143
0.03937007874
144
1.0
145
0.0
146
1.0
147
0.5
148
0.0
 69
0
 70
0
 71
0
 72
0
 73
0
 74
0
 75
0
 76
0
 77
1
 78
8
 79
3
170
0
171
3
172
1
173
0
174
0
175
0
176
0
177
0
178
0
179
2
271
2
272
2
273
2
274
3
275
0
276
0
277
2
278
44
279
0
280
0
281
0
282
0
283
0
284
8
285
0
286
0
288
0
289
3
290
0
371
-2
372
-2
  0
DIMSTYLE
105
4B
330
4
100
AcDbSymbolTableRecord
100
AcDbDimStyleTableRecord
  2
PAINEL-NOVA
 70
0
 40
1.0
 41
3.0
 42
1.0
 43
3.75
 44
1.0
 45
0.0
 46
0.0
 47
0.0
 48
0.0
 49
2.5
140
5.0
141
2.5
142
0.0
143
0.03937007874
144
1.0
145
0.0
146
1.0
147
1.0
148
0.0
 69
0
 70
0
 71
0
 72
0
 73
0
 74
0
 75
0
 76
0
 77
1
 78
8
 79
3
170
0
171
3
172
1
173
0
174
0
175
0
176
0
177
0
178
0
179
2
271
2
272
2
273
2
274
3
275
0
276
0
277
2
278
44
279
0
280
0
281
0
282
0
283
0
284
8
285
0
286
0
288
0
289
3
290
0
371
-2
372
-2
  0
DIMSTYLE
105
4C
330
4
100
AcDbSymbolTableRecord
100
AcDbDimStyleTableRecord
  2
PAINEL
 70
0
 40
1.0
 41
3.0
 42
3.0
 43
3.75
 44
3.0
 45
0.0
 46
0.0
 47
0.0
 48
0.0
 49
2.5
140
10.0
141
2.5
142
0.0
143
0.03937007874
144
1.0
145
0.0
146
1.0
147
3.0
148
0.0
 69
0
 70
0
 71
0
 72
0
 73
0
 74
0
 75
0
 76
0
 77
1
 78
8
 79
3
170
0
171
3
172
1
173
0
174
0
175
0
176
4
177
4
178
240
179
2
271
2
272
2
273
2
274
3
275
0
276
0
277
2
278
44
279
0
280
0
281
0
282
0
283
0
284
8
285
0
286
0
288
0
289
3
290
0
371
-2
372
-2
  0
ENDTAB
  0
TABLE
  2
BLOCK_RECORD
  5
9
330
0
100
AcDbSymbolTable
 70
54
  0
BLOCK_RECORD
  5
17
330
9
100
AcDbSymbolTableRecord
100
AcDbBlockTableRecord
  2
*Model_Space
340
1A
 70
0
280
1
281
0
  0
BLOCK_RECORD
  5
1B
330
9
100
AcDbSymbolTableRecord
100
AcDbBlockTableRecord
  2
*Paper_Space
340
1E
 70
0
280
1
281
0
  0
BLOCK_RECORD
  5
4E
330
9
100
AcDbSymbolTableRecord
100
AcDbBlockTableRecord
  2
B1A.E
340
0
 70
0
280
1
281
0
  0
BLOCK_RECORD
  5
52
330
9
100
AcDbSymbolTableRecord
100
AcDbBlockTableRecord
  2
B1A.D
340
0
 70
0
280
1
281
0
  0
BLOCK_RECORD
  5
56
330
9
100
AcDbSymbolTableRecord
100
AcDbBlockTableRecord
  2
B1B.E
340
0
 70
0
280
1
281
0
  0
BLOCK_RECORD
  5
5A
330
9
100
AcDbSymbolTableRecord
100
AcDbBlockTableRecord
  2
B1B.D
340
0
 70
0
280
1
281
0
  0
BLOCK_RECORD
  5
5E
330
9
100
AcDbSymbolTableRecord
100
AcDbBlockTableRecord
  2
B2A.E
340
0
 70
0
280
1
281
0
  0
BLOCK_RECORD
  5
62
330
9
100
AcDbSymbolTableRecord
100
AcDbBlockTableRecord
  2
PAR.CIM
340
0
 70
0
280
1
281
0
  0
BLOCK_RECORD
  5
68
330
9
100
AcDbSymbolTableRecord
100
AcDbBlockTableRecord
  2
PAR.BAI
340
0
 70
0
280
1
281
0
  0
BLOCK_RECORD
  5
6E
330
9
100
AcDbSymbolTableRecord
100
AcDbBlockTableRecord
  2
PAR.ESQ
340
0
 70
0
280
1
281
0
  0
BLOCK_RECORD
  5
74
330
9
100
AcDbSymbolTableRecord
100
AcDbBlockTableRecord
  2
PAR.DIR
340
0
 70
0
280
1
281
0
  0
BLOCK_RECORD
  5
7A
330
9
100
AcDbSymbolTableRecord
100
AcDbBlockTableRecord
  2
PAR_CIMA
340
0
 70
0
280
1
281
0
  0
BLOCK_RECORD
  5
7E
330
9
100
AcDbSymbolTableRecord
100
AcDbBlockTableRecord
  2
PAR_BAIXO
340
0
 70
0
280
1
281
0
  0
BLOCK_RECORD
  5
82
330
9
100
AcDbSymbolTableRecord
100
AcDbBlockTableRecord
  2
MULDURA
340
0
 70
0
280
1
281
0
  0
BLOCK_RECORD
  5
88
330
9
100
AcDbSymbolTableRecord
100
AcDbBlockTableRecord
  2
SLIPTEE
340
0
 70
0
280
1
281
0
  0
BLOCK_RECORD
  5
8C
330
9
100
AcDbSymbolTableRecord
100
AcDbBlockTableRecord
  2
SLIPTDD
340
0
 70
0
280
1
281
0
  0
BLOCK_RECORD
  5
91
330
9
100
AcDbSymbolTableRecord
100
AcDbBlockTableRecord
  2
furacao
340
0
 70
0
280
1
281
0
  0
BLOCK_RECORD
  5
97
330
9
100
AcDbSymbolTableRecord
100
AcDbBlockTableRecord
  2
GRA-E
340
0
 70
0
280
1
281
0
  0
BLOCK_RECORD
  5
9B
330
9
100
AcDbSymbolTableRecord
100
AcDbBlockTableRecord
  2
GRA-D
340
0
 70
0
280
1
281
0
  0
BLOCK_RECORD
  5
A2
330
9
100
AcDbSymbolTableRecord
100
AcDbBlockTableRecord
  2
*D1
340
0
 70
0
280
1
281
0
  0
BLOCK_RECORD
  5
A7
330
9
100
AcDbSymbolTableRecord
100
AcDbBlockTableRecord
  2
_CLOSEDFILLED
340
0
 70
0
280
1
281
0
  0
BLOCK_RECORD
  5
C2
330
9
100
AcDbSymbolTableRecord
100
AcDbBlockTableRecord
  2
*D2
340
0
 70
0
280
1
281
0
  0
BLOCK_RECORD
  5
D3
330
9
100
AcDbSymbolTableRecord
100
AcDbBlockTableRecord
  2
*D3
340
0
 70
0
280
1
281
0
  0
BLOCK_RECORD
  5
E2
330
9
100
AcDbSymbolTableRecord
100
AcDbBlockTableRecord
  2
*D4
340
0
 70
0
280
1
281
0
  0
BLOCK_RECORD
  5
F1
330
9
100
AcDbSymbolTableRecord
100
AcDbBlockTableRecord
  2
*D5
340
0
 70
0
280
1
281
0
  0
BLOCK_RECORD
  5
100
330
9
100
AcDbSymbolTableRecord
100
AcDbBlockTableRecord
  2
*D6
340
0
 70
0
280
1
281
0
  0
BLOCK_RECORD
  5
10F
330
9
100
AcDbSymbolTableRecord
100
AcDbBlockTableRecord
  2
*D7
340
0
 70
0
280
1
281
0
  0
BLOCK_RECORD
  5
120
330
9
100
AcDbSymbolTableRecord
100
AcDbBlockTableRecord
  2
*D8
340
0
 70
0
280
1
281
0
  0
BLOCK_RECORD
  5
131
330
9
100
AcDbSymbolTableRecord
100
AcDbBlockTableRecord
  2
*D9
340
0
 70
0
280
1
281
0
  0
BLOCK_RECORD
  5
141
330
9
100
AcDbSymbolTableRecord
100
AcDbBlockTableRecord
  2
*D10
340
0
 70
0
280
1
281
0
  0
BLOCK_RECORD
  5
150
330
9
100
AcDbSymbolTableRecord
100
AcDbBlockTableRecord
  2
*D11
340
0
 70
0
280
1
281
0
  0
BLOCK_RECORD
  5
17B
330
9
100
AcDbSymbolTableRecord
100
AcDbBlockTableRecord
  2
*D12
340
0
 70
0
280
1
281
0
  0
BLOCK_RECORD
  5
18C
330
9
100
AcDbSymbolTableRecord
100
AcDbBlockTableRecord
  2
*D13
340
0
 70
0
280
1
281
0
  0
BLOCK_RECORD
  5
19B
330
9
100
AcDbSymbolTableRecord
100
AcDbBlockTableRecord
  2
*D14
340
0
 70
0
280
1
281
0
  0
BLOCK_RECORD
  5
1AA
330
9
100
AcDbSymbolTableRecord
100
AcDbBlockTableRecord
  2
*D15
340
0
 70
0
280
1
281
0
  0
BLOCK_RECORD
  5
1B9
330
9
100
AcDbSymbolTableRecord
100
AcDbBlockTableRecord
  2
*D16
340
0
 70
0
280
1
281
0
  0
BLOCK_RECORD
  5
1C8
330
9
100
AcDbSymbolTableRecord
100
AcDbBlockTableRecord
  2
*D17
340
0
 70
0
280
1
281
0
  0
BLOCK_RECORD
  5
1D9
330
9
100
AcDbSymbolTableRecord
100
AcDbBlockTableRecord
  2
*D18
340
0
 70
0
280
1
281
0
  0
BLOCK_RECORD
  5
1E8
330
9
100
AcDbSymbolTableRecord
100
AcDbBlockTableRecord
  2
*D19
340
0
 70
0
280
1
281
0
  0
BLOCK_RECORD
  5
1F7
330
9
100
AcDbSymbolTableRecord
100
AcDbBlockTableRecord
  2
*D20
340
0
 70
0
280
1
281
0
  0
BLOCK_RECORD
  5
206
330
9
100
AcDbSymbolTableRecord
100
AcDbBlockTableRecord
  2
*D21
340
0
 70
0
280
1
281
0
  0
BLOCK_RECORD
  5
217
330
9
100
AcDbSymbolTableRecord
100
AcDbBlockTableRecord
  2
*D22
340
0
 70
0
280
1
281
0
  0
BLOCK_RECORD
  5
228
330
9
100
AcDbSymbolTableRecord
100
AcDbBlockTableRecord
  2
*D23
340
0
 70
0
280
1
281
0
  0
BLOCK_RECORD
  5
238
330
9
100
AcDbSymbolTableRecord
100
AcDbBlockTableRecord
  2
*D24
340
0
 70
0
280
1
281
0
  0
BLOCK_RECORD
  5
247
330
9
100
AcDbSymbolTableRecord
100
AcDbBlockTableRecord
  2
*D25
340
0
 70
0
280
1
281
0
  0
BLOCK_RECORD
  5
256
330
9
100
AcDbSymbolTableRecord
100
AcDbBlockTableRecord
  2
*D26
340
0
 70
0
280
1
281
0
  0
BLOCK_RECORD
  5
284
330
9
100
AcDbSymbolTableRecord
100
AcDbBlockTableRecord
  2
*D27
340
0
 70
0
280
1
281
0
  0
BLOCK_RECORD
  5
295
330
9
100
AcDbSymbolTableRecord
100
AcDbBlockTableRecord
  2
*D28
340
0
 70
0
280
1
281
0
  0
BLOCK_RECORD
  5
2A4
330
9
100
AcDbSymbolTableRecord
100
AcDbBlockTableRecord
  2
*D29
340
0
 70
0
280
1
281
0
  0
BLOCK_RECORD
  5
2B3
330
9
100
AcDbSymbolTableRecord
100
AcDbBlockTableRecord
  2
*D30
340
0
 70
0
280
1
281
0
  0
BLOCK_RECORD
  5
2CE
330
9
100
AcDbSymbolTableRecord
100
AcDbBlockTableRecord
  2
*D31
340
0
 70
0
280
1
281
0
  0
BLOCK_RECORD
  5
2DF
330
9
100
AcDbSymbolTableRecord
100
AcDbBlockTableRecord
  2
*D32
340
0
 70
0
280
1
281
0
  0
BLOCK_RECORD
  5
2EE
330
9
100
AcDbSymbolTableRecord
100
AcDbBlockTableRecord
  2
*D33
340
0
 70
0
280
1
281
0
  0
BLOCK_RECORD
  5
2FD
330
9
100
AcDbSymbolTableRecord
100
AcDbBlockTableRecord
  2
*D34
340
0
 70
0
280
1
281
0
  0
ENDTAB
  0
ENDSEC
  0
SECTION
  2
BLOCKS
  0
BLOCK
  5
18
330
17
100
AcDbEntity
  8
0
100
AcDbBlockBegin
  2
*Model_Space
 70
0
 10
0.0
 20
0.0
 30
0.0
  3
*Model_Space
  1

  0
ENDBLK
  5
19
330
17
100
AcDbEntity
  8
0
100
AcDbBlockEnd
  0
BLOCK
  5
1C
330
1B
100
AcDbEntity
  8
0
100
AcDbBlockBegin
  2
*Paper_Space
 70
0
 10
0.0
 20
0.0
 30
0.0
  3
*Paper_Space
  1

  0
ENDBLK
  5
1D
330
1B
100
AcDbEntity
  8
0
100
AcDbBlockEnd
  0
BLOCK
  5
4F
330
4E
100
AcDbEntity
  8
0
100
AcDbBlockBegin
  2
B1A.E
 70
0
 10
0.0
 20
0.0
 30
0.0
  3
B1A.E
  1

  0
LWPOLYLINE
  5
51
330
4E
100
AcDbEntity
  8
SARR_2.2x7
100
AcDbPolyline
 90
4
 70
1
 10
0.0
 20
0.0
 10
2.2
 20
0.0
 10
2.2
 20
7.0
 10
0.0
 20
7.0
  0
ENDBLK
  5
50
330
4E
100
AcDbEntity
  8
0
100
AcDbBlockEnd
  0
BLOCK
  5
53
330
52
100
AcDbEntity
  8
0
100
AcDbBlockBegin
  2
B1A.D
 70
0
 10
0.0
 20
0.0
 30
0.0
  3
B1A.D
  1

  0
LWPOLYLINE
  5
55
330
52
100
AcDbEntity
  8
SARR_2.2x7
100
AcDbPolyline
 90
4
 70
1
 10
0.0
 20
0.0
 10
2.2
 20
0.0
 10
2.2
 20
7.0
 10
0.0
 20
7.0
  0
ENDBLK
  5
54
330
52
100
AcDbEntity
  8
0
100
AcDbBlockEnd
  0
BLOCK
  5
57
330
56
100
AcDbEntity
  8
0
100
AcDbBlockBegin
  2
B1B.E
 70
0
 10
0.0
 20
0.0
 30
0.0
  3
B1B.E
  1

  0
LWPOLYLINE
  5
59
330
56
100
AcDbEntity
  8
SARR_2.2x7
100
AcDbPolyline
 90
4
 70
1
 10
0.0
 20
0.0
 10
2.2
 20
0.0
 10
2.2
 20
7.0
 10
0.0
 20
7.0
  0
ENDBLK
  5
58
330
56
100
AcDbEntity
  8
0
100
AcDbBlockEnd
  0
BLOCK
  5
5B
330
5A
100
AcDbEntity
  8
0
100
AcDbBlockBegin
  2
B1B.D
 70
0
 10
0.0
 20
0.0
 30
0.0
  3
B1B.D
  1

  0
LWPOLYLINE
  5
5D
330
5A
100
AcDbEntity
  8
SARR_2.2x7
100
AcDbPolyline
 90
4
 70
1
 10
0.0
 20
0.0
 10
2.2
 20
0.0
 10
2.2
 20
7.0
 10
0.0
 20
7.0
  0
ENDBLK
  5
5C
330
5A
100
AcDbEntity
  8
0
100
AcDbBlockEnd
  0
BLOCK
  5
5F
330
5E
100
AcDbEntity
  8
0
100
AcDbBlockBegin
  2
B2A.E
 70
0
 10
0.0
 20
0.0
 30
0.0
  3
B2A.E
  1

  0
LWPOLYLINE
  5
61
330
5E
100
AcDbEntity
  8
SARR_2.2x7
100
AcDbPolyline
 90
4
 70
1
 10
0.0
 20
0.0
 10
2.2
 20
0.0
 10
2.2
 20
7.0
 10
0.0
 20
7.0
  0
ENDBLK
  5
60
330
5E
100
AcDbEntity
  8
0
100
AcDbBlockEnd
  0
BLOCK
  5
63
330
62
100
AcDbEntity
  8
0
100
AcDbBlockBegin
  2
PAR.CIM
 70
0
 10
0.0
 20
0.0
 30
0.0
  3
PAR.CIM
  1

  0
LINE
  5
65
330
62
100
AcDbEntity
  8
COTA
100
AcDbLine
 10
-1.0
 20
0.0
 30
0.0
 11
1.0
 21
0.0
 31
0.0
  0
LINE
  5
66
330
62
100
AcDbEntity
  8
COTA
100
AcDbLine
 10
0.0
 20
-1.0
 30
0.0
 11
0.0
 21
1.0
 31
0.0
  0
CIRCLE
  5
67
330
62
100
AcDbEntity
  8
COTA
100
AcDbCircle
 10
0.0
 20
0.0
 30
0.0
 40
1.2
  0
ENDBLK
  5
64
330
62
100
AcDbEntity
  8
0
100
AcDbBlockEnd
  0
BLOCK
  5
69
330
68
100
AcDbEntity
  8
0
100
AcDbBlockBegin
  2
PAR.BAI
 70
0
 10
0.0
 20
0.0
 30
0.0
  3
PAR.BAI
  1

  0
LINE
  5
6B
330
68
100
AcDbEntity
  8
COTA
100
AcDbLine
 10
-1.0
 20
0.0
 30
0.0
 11
1.0
 21
0.0
 31
0.0
  0
LINE
  5
6C
330
68
100
AcDbEntity
  8
COTA
100
AcDbLine
 10
0.0
 20
-1.0
 30
0.0
 11
0.0
 21
1.0
 31
0.0
  0
CIRCLE
  5
6D
330
68
100
AcDbEntity
  8
COTA
100
AcDbCircle
 10
0.0
 20
0.0
 30
0.0
 40
1.2
  0
ENDBLK
  5
6A
330
68
100
AcDbEntity
  8
0
100
AcDbBlockEnd
  0
BLOCK
  5
6F
330
6E
100
AcDbEntity
  8
0
100
AcDbBlockBegin
  2
PAR.ESQ
 70
0
 10
0.0
 20
0.0
 30
0.0
  3
PAR.ESQ
  1

  0
LINE
  5
71
330
6E
100
AcDbEntity
  8
COTA
100
AcDbLine
 10
-1.0
 20
0.0
 30
0.0
 11
1.0
 21
0.0
 31
0.0
  0
LINE
  5
72
330
6E
100
AcDbEntity
  8
COTA
100
AcDbLine
 10
0.0
 20
-1.0
 30
0.0
 11
0.0
 21
1.0
 31
0.0
  0
CIRCLE
  5
73
330
6E
100
AcDbEntity
  8
COTA
100
AcDbCircle
 10
0.0
 20
0.0
 30
0.0
 40
1.2
  0
ENDBLK
  5
70
330
6E
100
AcDbEntity
  8
0
100
AcDbBlockEnd
  0
BLOCK
  5
75
330
74
100
AcDbEntity
  8
0
100
AcDbBlockBegin
  2
PAR.DIR
 70
0
 10
0.0
 20
0.0
 30
0.0
  3
PAR.DIR
  1

  0
LINE
  5
77
330
74
100
AcDbEntity
  8
COTA
100
AcDbLine
 10
-1.0
 20
0.0
 30
0.0
 11
1.0
 21
0.0
 31
0.0
  0
LINE
  5
78
330
74
100
AcDbEntity
  8
COTA
100
AcDbLine
 10
0.0
 20
-1.0
 30
0.0
 11
0.0
 21
1.0
 31
0.0
  0
CIRCLE
  5
79
330
74
100
AcDbEntity
  8
COTA
100
AcDbCircle
 10
0.0
 20
0.0
 30
0.0
 40
1.2
  0
ENDBLK
  5
76
330
74
100
AcDbEntity
  8
0
100
AcDbBlockEnd
  0
BLOCK
  5
7B
330
7A
100
AcDbEntity
  8
0
100
AcDbBlockBegin
  2
PAR_CIMA
 70
0
 10
0.0
 20
0.0
 30
0.0
  3
PAR_CIMA
  1

  0
LWPOLYLINE
  5
7D
330
7A
100
AcDbEntity
  8
COTA
100
AcDbPolyline
 90
3
 70
1
 10
0.0
 20
0.0
 10
2.0
 20
1.0
 10
0.0
 20
2.0
  0
ENDBLK
  5
7C
330
7A
100
AcDbEntity
  8
0
100
AcDbBlockEnd
  0
BLOCK
  5
7F
330
7E
100
AcDbEntity
  8
0
100
AcDbBlockBegin
  2
PAR_BAIXO
 70
0
 10
0.0
 20
0.0
 30
0.0
  3
PAR_BAIXO
  1

  0
LWPOLYLINE
  5
81
330
7E
100
AcDbEntity
  8
COTA
100
AcDbPolyline
 90
3
 70
1
 10
0.0
 20
0.0
 10
2.0
 20
1.0
 10
0.0
 20
2.0
  0
ENDBLK
  5
80
330
7E
100
AcDbEntity
  8
0
100
AcDbBlockEnd
  0
BLOCK
  5
83
330
82
100
AcDbEntity
  8
0
100
AcDbBlockBegin
  2
MULDURA
 70
0
 10
0.0
 20
0.0
 30
0.0
  3
MULDURA
  1

  0
LWPOLYLINE
  5
85
330
82
100
AcDbEntity
  8
Paineis
100
AcDbPolyline
 90
4
 70
1
 10
0.0
 20
0.0
 10
4.0
 20
0.0
 10
4.0
 20
4.0
 10
0.0
 20
4.0
  0
LINE
  5
86
330
82
100
AcDbEntity
  8
Paineis
100
AcDbLine
 10
0.0
 20
0.0
 30
0.0
 11
4.0
 21
4.0
 31
0.0
  0
LINE
  5
87
330
82
100
AcDbEntity
  8
Paineis
100
AcDbLine
 10
4.0
 20
0.0
 30
0.0
 11
0.0
 21
4.0
 31
0.0
  0
ENDBLK
  5
84
330
82
100
AcDbEntity
  8
0
100
AcDbBlockEnd
  0
BLOCK
  5
89
330
88
100
AcDbEntity
  8
0
100
AcDbBlockBegin
  2
SLIPTEE
 70
0
 10
0.0
 20
0.0
 30
0.0
  3
SLIPTEE
  1

  0
LWPOLYLINE
  5
8B
330
88
100
AcDbEntity
  8
Paineis
100
AcDbPolyline
 90
8
 70
1
 10
0.0
 20
0.0
 10
3.0
 20
0.0
 10
3.0
 20
1.5
 10
2.0
 20
1.5
 10
2.0
 20
3.0
 10
1.0
 20
3.0
 10
1.0
 20
1.5
 10
0.0
 20
1.5
  0
ENDBLK
  5
8A
330
88
100
AcDbEntity
  8
0
100
AcDbBlockEnd
  0
BLOCK
  5
8D
330
8C
100
AcDbEntity
  8
0
100
AcDbBlockBegin
  2
SLIPTDD
 70
0
 10
0.0
 20
0.0
 30
0.0
  3
SLIPTDD
  1

  0
LWPOLYLINE
  5
8F
330
8C
100
AcDbEntity
  8
Paineis
100
AcDbPolyline
 90
8
 70
1
 10
0.0
 20
0.0
 10
3.0
 20
0.0
 10
3.0
 20
1.5
 10
2.0
 20
1.5
 10
2.0
 20
3.0
 10
1.0
 20
3.0
 10
1.0
 20
1.5
 10
0.0
 20
1.5
  0
LINE
  5
90
330
8C
100
AcDbEntity
  8
Paineis
100
AcDbLine
 10
0.0
 20
1.5
 30
0.0
 11
3.0
 21
1.5
 31
0.0
  0
ENDBLK
  5
8E
330
8C
100
AcDbEntity
  8
0
100
AcDbBlockEnd
  0
BLOCK
  5
92
330
91
100
AcDbEntity
  8
0
100
AcDbBlockBegin
  2
furacao
 70
0
 10
0.0
 20
0.0
 30
0.0
  3
furacao
  1

  0
CIRCLE
  5
94
330
91
100
AcDbEntity
  8
COTAS FURACAO
100
AcDbCircle
 10
0.0
 20
0.0
 30
0.0
 40
0.8
  0
LINE
  5
95
330
91
100
AcDbEntity
  8
COTAS FURACAO
100
AcDbLine
 10
-1.2
 20
0.0
 30
0.0
 11
1.2
 21
0.0
 31
0.0
  0
LINE
  5
96
330
91
100
AcDbEntity
  8
COTAS FURACAO
100
AcDbLine
 10
0.0
 20
-1.2
 30
0.0
 11
0.0
 21
1.2
 31
0.0
  0
ENDBLK
  5
93
330
91
100
AcDbEntity
  8
0
100
AcDbBlockEnd
  0
BLOCK
  5
98
330
97
100
AcDbEntity
  8
0
100
AcDbBlockBegin
  2
GRA-E
 70
0
 10
0.0
 20
0.0
 30
0.0
  3
GRA-E
  1

  0
LWPOLYLINE
  5
9A
330
97
100
AcDbEntity
  8
SARR_2.2x7
100
AcDbPolyline
 90
3
 70
1
 10
0.0
 20
0.0
 10
7.0
 20
0.0
 10
0.0
 20
10.0
  0
ENDBLK
  5
99
330
97
100
AcDbEntity
  8
0
100
AcDbBlockEnd
  0
BLOCK
  5
9C
330
9B
100
AcDbEntity
  8
0
100
AcDbBlockBegin
  2
GRA-D
 70
0
 10
0.0
 20
0.0
 30
0.0
  3
GRA-D
  1

  0
LWPOLYLINE
  5
9E
330
9B
100
AcDbEntity
  8
SARR_2.2x7
100
AcDbPolyline
 90
3
 70
1
 10
0.0
 20
0.0
 10
7.0
 20
0.0
 10
7.0
 20
10.0
  0
ENDBLK
  5
9D
330
9B
100
AcDbEntity
  8
0
100
AcDbBlockEnd
  0
BLOCK
  5
A3
330
A2
100
AcDbEntity
  8
0
100
AcDbBlockBegin
  2
*D1
 70
1
 10
0.0
 20
0.0
 30
0.0
  3
*D1
  1

  0
LINE
  5
A5
330
A2
100
AcDbEntity
  8
0
 62
4
100
AcDbLine
 10
47.0
 20
-421.0
 30
0.0
 11
27.0
 21
-421.0
 31
0.0
  0
LINE
  5
A6
330
A2
100
AcDbEntity
  8
0
 62
4
100
AcDbLine
 10
47.0
 20
-100.0
 30
0.0
 11
27.0
 21
-100.0
 31
0.0
  0
INSERT
  5
AB
330
A2
100
AcDbEntity
  8
COTA
 62
4
100
AcDbBlockReference
  2
_CLOSEDFILLED
 10
30.0
 20
-421.0
 30
0.0
 41
3.0
 42
3.0
 50
270.0
  0
INSERT
  5
AD
330
A2
100
AcDbEntity
  8
COTA
 62
4
100
AcDbBlockReference
  2
_CLOSEDFILLED
 10
30.0
 20
-100.0
 30
0.0
 41
3.0
 42
3.0
 50
90.0
  0
LINE
  5
AF
330
A2
100
AcDbEntity
  8
0
 62
4
100
AcDbLine
 10
30.0
 20
-418.0
 30
0.0
 11
30.0
 21
-103.0
 31
0.0
  0
MTEXT
  5
B0
330
A2
100
AcDbEntity
  8
COTA
 62
240
100
AcDbMText
 10
22.0
 20
-260.5
 30
0.0
 40
10.0
 71
5
  1
321
 50
90.0
  0
POINT
  5
B1
330
A2
100
AcDbEntity
  8
Defpoints
100
AcDbPoint
 10
30.0
 20
-421.0
 30
0.0
  0
POINT
  5
B2
330
A2
100
AcDbEntity
  8
Defpoints
100
AcDbPoint
 10
50.0
 20
-421.0
 30
0.0
  0
POINT
  5
B3
330
A2
100
AcDbEntity
  8
Defpoints
100
AcDbPoint
 10
50.0
 20
-100.0
 30
0.0
  0
ENDBLK
  5
A4
330
A2
100
AcDbEntity
  8
0
100
AcDbBlockEnd
  0
BLOCK
  5
A8
330
A7
100
AcDbEntity
  8
0
100
AcDbBlockBegin
  2
_CLOSEDFILLED
 70
0
 10
0.0
 20
0.0
 30
0.0
  3
_CLOSEDFILLED
  1

  0
SOLID
  5
AA
330
A7
100
AcDbEntity
  8
0
  6
BYBLOCK
 62
0
100
AcDbTrace
 10
-1.0
 20
0.16439898372402537
 30
0.0
 11
0.0
 21
0.0
 31
0.0
 12
-1.0
 22
-0.16439898372402537
 32
0.0
 13
-1.0
 23
-0.16439898372402537
 33
0.0
  0
ENDBLK
  5
A9
330
A7
100
AcDbEntity
  8
0
100
AcDbBlockEnd
  0
BLOCK
  5
C3
330
C2
100
AcDbEntity
  8
0
100
AcDbBlockBegin
  2
*D2
 70
1
 10
0.0
 20
0.0
 30
0.0
  3
*D2
  1

  0
LINE
  5
C5
330
C2
100
AcDbEntity
  8
0
 62
4
100
AcDbLine
 10
171.0
 20
-421.0
 30
0.0
 11
188.0
 21
-421.0
 31
0.0
  0
LINE
  5
C6
330
C2
100
AcDbEntity
  8
0
 62
4
100
AcDbLine
 10
171.0
 20
-419.0
 30
0.0
 11
188.0
 21
-419.0
 31
0.0
  0
INSERT
  5
C7
330
C2
100
AcDbEntity
  8
COTA
 62
4
100
AcDbBlockReference
  2
_CLOSEDFILLED
 10
185.0
 20
-421.0
 30
0.0
 41
3.0
 42
3.0
 50
90.0
  0
INSERT
  5
C9
330
C2
100
AcDbEntity
  8
COTA
 62
4
100
AcDbBlockReference
  2
_CLOSEDFILLED
 10
185.0
 20
-419.0
 30
0.0
 41
3.0
 42
3.0
 50
270.0
  0
LINE
  5
CB
330
C2
100
AcDbEntity
  8
0
 62
4
100
AcDbLine
 10
185.0
 20
-424.0
 30
0.0
 11
185.0
 21
-427.0
 31
0.0
  0
LINE
  5
CC
330
C2
100
AcDbEntity
  8
0
 62
4
100
AcDbLine
 10
185.0
 20
-416.0
 30
0.0
 11
185.0
 21
-413.0
 31
0.0
  0
LINE
  5
CD
330
C2
100
AcDbEntity
  8
0
 62
4
100
AcDbLine
 10
185.0
 20
-421.0
 30
0.0
 11
185.0
 21
-419.0
 31
0.0
  0
MTEXT
  5
CE
330
C2
100
AcDbEntity
  8
COTA
 62
240
100
AcDbMText
 10
174.0
 20
-420.0
 30
0.0
 40
10.0
 71
5
  1
2
 50
90.0
  0
POINT
  5
CF
330
C2
100
AcDbEntity
  8
Defpoints
100
AcDbPoint
 10
185.0
 20
-421.0
 30
0.0
  0
POINT
  5
D0
330
C2
100
AcDbEntity
  8
Defpoints
100
AcDbPoint
 10
168.0
 20
-421.0
 30
0.0
  0
POINT
  5
D1
330
C2
100
AcDbEntity
  8
Defpoints
100
AcDbPoint
 10
168.0
 20
-419.0
 30
0.0
  0
ENDBLK
  5
C4
330
C2
100
AcDbEntity
  8
0
100
AcDbBlockEnd
  0
BLOCK
  5
D4
330
D3
100
AcDbEntity
  8
0
100
AcDbBlockBegin
  2
*D3
 70
1
 10
0.0
 20
0.0
 30
0.0
  3
*D3
  1

  0
LINE
  5
D6
330
D3
100
AcDbEntity
  8
0
 62
4
100
AcDbLine
 10
171.0
 20
-419.0
 30
0.0
 11
211.0
 21
-419.0
 31
0.0
  0
LINE
  5
D7
330
D3
100
AcDbEntity
  8
0
 62
4
100
AcDbLine
 10
171.0
 20
-297.0
 30
0.0
 11
211.0
 21
-297.0
 31
0.0
  0
INSERT
  5
D8
330
D3
100
AcDbEntity
  8
COTA
 62
4
100
AcDbBlockReference
  2
_CLOSEDFILLED
 10
208.0
 20
-419.0
 30
0.0
 41
3.0
 42
3.0
 50
270.0
  0
INSERT
  5
DA
330
D3
100
AcDbEntity
  8
COTA
 62
4
100
AcDbBlockReference
  2
_CLOSEDFILLED
 10
208.0
 20
-297.0
 30
0.0
 41
3.0
 42
3.0
 50
90.0
  0
LINE
  5
DC
330
D3
100
AcDbEntity
  8
0
 62
4
100
AcDbLine
 10
208.0
 20
-416.0
 30
0.0
 11
208.0
 21
-300.0
 31
0.0
  0
MTEXT
  5
DD
330
D3
100
AcDbEntity
  8
COTA
 62
240
100
AcDbMText
 10
200.0
 20
-358.0
 30
0.0
 40
10.0
 71
5
  1
122
 50
90.0
  0
POINT
  5
DE
330
D3
100
AcDbEntity
  8
Defpoints
100
AcDbPoint
 10
208.0
 20
-419.0
 30
0.0
  0
POINT
  5
DF
330
D3
100
AcDbEntity
  8
Defpoints
100
AcDbPoint
 10
168.0
 20
-419.0
 30
0.0
  0
POINT
  5
E0
330
D3
100
AcDbEntity
  8
Defpoints
100
AcDbPoint
 10
168.0
 20
-297.0
 30
0.0
  0
ENDBLK
  5
D5
330
D3
100
AcDbEntity
  8
0
100
AcDbBlockEnd
  0
BLOCK
  5
E3
330
E2
100
AcDbEntity
  8
0
100
AcDbBlockBegin
  2
*D4
 70
1
 10
0.0
 20
0.0
 30
0.0
  3
*D4
  1

  0
LINE
  5
E5
330
E2
100
AcDbEntity
  8
0
 62
4
100
AcDbLine
 10
171.0
 20
-297.0
 30
0.0
 11
211.0
 21
-297.0
 31
0.0
  0
LINE
  5
E6
330
E2
100
AcDbEntity
  8
0
 62
4
100
AcDbLine
 10
171.0
 20
-175.0
 30
0.0
 11
211.0
 21
-175.0
 31
0.0
  0
INSERT
  5
E7
330
E2
100
AcDbEntity
  8
COTA
 62
4
100
AcDbBlockReference
  2
_CLOSEDFILLED
 10
208.0
 20
-297.0
 30
0.0
 41
3.0
 42
3.0
 50
270.0
  0
INSERT
  5
E9
330
E2
100
AcDbEntity
  8
COTA
 62
4
100
AcDbBlockReference
  2
_CLOSEDFILLED
 10
208.0
 20
-175.0
 30
0.0
 41
3.0
 42
3.0
 50
90.0
  0
LINE
  5
EB
330
E2
100
AcDbEntity
  8
0
 62
4
100
AcDbLine
 10
208.0
 20
-294.0
 30
0.0
 11
208.0
 21
-178.0
 31
0.0
  0
MTEXT
  5
EC
330
E2
100
AcDbEntity
  8
COTA
 62
240
100
AcDbMText
 10
200.0
 20
-236.0
 30
0.0
 40
10.0
 71
5
  1
122
 50
90.0
  0
POINT
  5
ED
330
E2
100
AcDbEntity
  8
Defpoints
100
AcDbPoint
 10
208.0
 20
-297.0
 30
0.0
  0
POINT
  5
EE
330
E2
100
AcDbEntity
  8
Defpoints
100
AcDbPoint
 10
168.0
 20
-297.0
 30
0.0
  0
POINT
  5
EF
330
E2
100
AcDbEntity
  8
Defpoints
100
AcDbPoint
 10
168.0
 20
-175.0
 30
0.0
  0
ENDBLK
  5
E4
330
E2
100
AcDbEntity
  8
0
100
AcDbBlockEnd
  0
BLOCK
  5
F2
330
F1
100
AcDbEntity
  8
0
100
AcDbBlockBegin
  2
*D5
 70
1
 10
0.0
 20
0.0
 30
0.0
  3
*D5
  1

  0
LINE
  5
F4
330
F1
100
AcDbEntity
  8
0
 62
4
100
AcDbLine
 10
171.0
 20
-175.0
 30
0.0
 11
211.0
 21
-175.0
 31
0.0
  0
LINE
  5
F5
330
F1
100
AcDbEntity
  8
0
 62
4
100
AcDbLine
 10
171.0
 20
-100.0
 30
0.0
 11
211.0
 21
-100.0
 31
0.0
  0
INSERT
  5
F6
330
F1
100
AcDbEntity
  8
COTA
 62
4
100
AcDbBlockReference
  2
_CLOSEDFILLED
 10
208.0
 20
-175.0
 30
0.0
 41
3.0
 42
3.0
 50
270.0
  0
INSERT
  5
F8
330
F1
100
AcDbEntity
  8
COTA
 62
4
100
AcDbBlockReference
  2
_CLOSEDFILLED
 10
208.0
 20
-100.0
 30
0.0
 41
3.0
 42
3.0
 50
90.0
  0
LINE
  5
FA
330
F1
100
AcDbEntity
  8
0
 62
4
100
AcDbLine
 10
208.0
 20
-172.0
 30
0.0
 11
208.0
 21
-103.0
 31
0.0
  0
MTEXT
  5
FB
330
F1
100
AcDbEntity
  8
COTA
 62
240
100
AcDbMText
 10
200.0
 20
-137.5
 30
0.0
 40
10.0
 71
5
  1
75
 50
90.0
  0
POINT
  5
FC
330
F1
100
AcDbEntity
  8
Defpoints
100
AcDbPoint
 10
208.0
 20
-175.0
 30
0.0
  0
POINT
  5
FD
330
F1
100
AcDbEntity
  8
Defpoints
100
AcDbPoint
 10
168.0
 20
-175.0
 30
0.0
  0
POINT
  5
FE
330
F1
100
AcDbEntity
  8
Defpoints
100
AcDbPoint
 10
168.0
 20
-100.0
 30
0.0
  0
ENDBLK
  5
F3
330
F1
100
AcDbEntity
  8
0
100
AcDbBlockEnd
  0
BLOCK
  5
101
330
100
100
AcDbEntity
  8
0
100
AcDbBlockBegin
  2
*D6
 70
1
 10
0.0
 20
0.0
 30
0.0
  3
*D6
  1

  0
LINE
  5
103
330
100
100
AcDbEntity
  8
0
 62
4
100
AcDbLine
 10
171.0
 20
-224.0
 30
0.0
 11
188.0
 21
-224.0
 31
0.0
  0
LINE
  5
104
330
100
100
AcDbEntity
  8
0
 62
4
100
AcDbLine
 10
171.0
 20
-175.0
 30
0.0
 11
188.0
 21
-175.0
 31
0.0
  0
INSERT
  5
105
330
100
100
AcDbEntity
  8
COTA
 62
4
100
AcDbBlockReference
  2
_CLOSEDFILLED
 10
185.0
 20
-224.0
 30
0.0
 41
3.0
 42
3.0
 50
270.0
  0
INSERT
  5
107
330
100
100
AcDbEntity
  8
COTA
 62
4
100
AcDbBlockReference
  2
_CLOSEDFILLED
 10
185.0
 20
-175.0
 30
0.0
 41
3.0
 42
3.0
 50
90.0
  0
LINE
  5
109
330
100
100
AcDbEntity
  8
0
 62
4
100
AcDbLine
 10
185.0
 20
-221.0
 30
0.0
 11
185.0
 21
-178.0
 31
0.0
  0
MTEXT
  5
10A
330
100
100
AcDbEntity
  8
COTA
 62
240
100
AcDbMText
 10
177.0
 20
-199.5
 30
0.0
 40
10.0
 71
5
  1
49
 50
90.0
  0
POINT
  5
10B
330
100
100
AcDbEntity
  8
Defpoints
100
AcDbPoint
 10
185.0
 20
-224.0
 30
0.0
  0
POINT
  5
10C
330
100
100
AcDbEntity
  8
Defpoints
100
AcDbPoint
 10
168.0
 20
-224.0
 30
0.0
  0
POINT
  5
10D
330
100
100
AcDbEntity
  8
Defpoints
100
AcDbPoint
 10
168.0
 20
-175.0
 30
0.0
  0
ENDBLK
  5
102
330
100
100
AcDbEntity
  8
0
100
AcDbBlockEnd
  0
BLOCK
  5
110
330
10F
100
AcDbEntity
  8
0
100
AcDbBlockBegin
  2
*D7
 70
1
 10
0.0
 20
0.0
 30
0.0
  3
*D7
  1

  0
LINE
  5
112
330
10F
100
AcDbEntity
  8
0
 62
4
100
AcDbLine
 10
80.0
 20
-424.0
 30
0.0
 11
80.0
 21
-443.0
 31
0.0
  0
LINE
  5
113
330
10F
100
AcDbEntity
  8
0
 62
4
100
AcDbLine
 10
87.0
 20
-424.0
 30
0.0
 11
87.0
 21
-443.0
 31
0.0
  0
INSERT
  5
114
330
10F
100
AcDbEntity
  8
COTA
 62
4
100
AcDbBlockReference
  2
_CLOSEDFILLED
 10
80.0
 20
-440.0
 30
0.0
 41
3.0
 42
3.0
  0
INSERT
  5
116
330
10F
100
AcDbEntity
  8
COTA
 62
4
100
AcDbBlockReference
  2
_CLOSEDFILLED
 10
87.0
 20
-440.0
 30
0.0
 41
3.0
 42
3.0
 50
180.0
  0
LINE
  5
118
330
10F
100
AcDbEntity
  8
0
 62
4
100
AcDbLine
 10
77.0
 20
-440.0
 30
0.0
 11
74.0
 21
-440.0
 31
0.0
  0
LINE
  5
119
330
10F
100
AcDbEntity
  8
0
 62
4
100
AcDbLine
 10
90.0
 20
-440.0
 30
0.0
 11
93.0
 21
-440.0
 31
0.0
  0
LINE
  5
11A
330
10F
100
AcDbEntity
  8
0
 62
4
100
AcDbLine
 10
80.0
 20
-440.0
 30
0.0
 11
87.0
 21
-440.0
 31
0.0
  0
MTEXT
  5
11B
330
10F
100
AcDbEntity
  8
COTA
 62
240
100
AcDbMText
 10
83.5
 20
-429.0
 30
0.0
 40
10.0
 71
5
  1
7
  0
POINT
  5
11C
330
10F
100
AcDbEntity
  8
Defpoints
100
AcDbPoint
 10
80.0
 20
-440.0
 30
0.0
  0
POINT
  5
11D
330
10F
100
AcDbEntity
  8
Defpoints
100
AcDbPoint
 10
80.0
 20
-421.0
 30
0.0
  0
POINT
  5
11E
330
10F
100
AcDbEntity
  8
Defpoints
100
AcDbPoint
 10
87.0
 20
-421.0
 30
0.0
  0
ENDBLK
  5
111
330
10F
100
AcDbEntity
  8
0
100
AcDbBlockEnd
  0
BLOCK
  5
121
330
120
100
AcDbEntity
  8
0
100
AcDbBlockBegin
  2
*D8
 70
1
 10
0.0
 20
0.0
 30
0.0
  3
*D8
  1

  0
LINE
  5
123
330
120
100
AcDbEntity
  8
0
 62
4
100
AcDbLine
 10
161.0
 20
-424.0
 30
0.0
 11
161.0
 21
-443.0
 31
0.0
  0
LINE
  5
124
330
120
100
AcDbEntity
  8
0
 62
4
100
AcDbLine
 10
168.0
 20
-424.0
 30
0.0
 11
168.0
 21
-443.0
 31
0.0
  0
INSERT
  5
125
330
120
100
AcDbEntity
  8
COTA
 62
4
100
AcDbBlockReference
  2
_CLOSEDFILLED
 10
161.0
 20
-440.0
 30
0.0
 41
3.0
 42
3.0
  0
INSERT
  5
127
330
120
100
AcDbEntity
  8
COTA
 62
4
100
AcDbBlockReference
  2
_CLOSEDFILLED
 10
168.0
 20
-440.0
 30
0.0
 41
3.0
 42
3.0
 50
180.0
  0
LINE
  5
129
330
120
100
AcDbEntity
  8
0
 62
4
100
AcDbLine
 10
158.0
 20
-440.0
 30
0.0
 11
155.0
 21
-440.0
 31
0.0
  0
LINE
  5
12A
330
120
100
AcDbEntity
  8
0
 62
4
100
AcDbLine
 10
171.0
 20
-440.0
 30
0.0
 11
174.0
 21
-440.0
 31
0.0
  0
LINE
  5
12B
330
120
100
AcDbEntity
  8
0
 62
4
100
AcDbLine
 10
161.0
 20
-440.0
 30
0.0
 11
168.0
 21
-440.0
 31
0.0
  0
MTEXT
  5
12C
330
120
100
AcDbEntity
  8
COTA
 62
240
100
AcDbMText
 10
164.5
 20
-429.0
 30
0.0
 40
10.0
 71
5
  1
7
  0
POINT
  5
12D
330
120
100
AcDbEntity
  8
Defpoints
100
AcDbPoint
 10
161.0
 20
-440.0
 30
0.0
  0
POINT
  5
12E
330
120
100
AcDbEntity
  8
Defpoints
100
AcDbPoint
 10
161.0
 20
-421.0
 30
0.0
  0
POINT
  5
12F
330
120
100
AcDbEntity
  8
Defpoints
100
AcDbPoint
 10
168.0
 20
-421.0
 30
0.0
  0
ENDBLK
  5
122
330
120
100
AcDbEntity
  8
0
100
AcDbBlockEnd
  0
BLOCK
  5
132
330
131
100
AcDbEntity
  8
0
100
AcDbBlockBegin
  2
*D9
 70
1
 10
0.0
 20
0.0
 30
0.0
  3
*D9
  1

  0
LINE
  5
134
330
131
100
AcDbEntity
  8
0
 62
4
100
AcDbLine
 10
80.0
 20
-424.0
 30
0.0
 11
80.0
 21
-467.0
 31
0.0
  0
LINE
  5
135
330
131
100
AcDbEntity
  8
0
 62
4
100
AcDbLine
 10
168.0
 20
-424.0
 30
0.0
 11
168.0
 21
-467.0
 31
0.0
  0
INSERT
  5
136
330
131
100
AcDbEntity
  8
COTA
 62
4
100
AcDbBlockReference
  2
_CLOSEDFILLED
 10
80.0
 20
-464.0
 30
0.0
 41
3.0
 42
3.0
 50
180.0
  0
INSERT
  5
138
330
131
100
AcDbEntity
  8
COTA
 62
4
100
AcDbBlockReference
  2
_CLOSEDFILLED
 10
168.0
 20
-464.0
 30
0.0
 41
3.0
 42
3.0
  0
LINE
  5
13A
330
131
100
AcDbEntity
  8
0
 62
4
100
AcDbLine
 10
83.0
 20
-464.0
 30
0.0
 11
165.0
 21
-464.0
 31
0.0
  0
MTEXT
  5
13B
330
131
100
AcDbEntity
  8
COTA
 62
240
100
AcDbMText
 10
124.0
 20
-456.0
 30
0.0
 40
10.0
 71
5
  1
88
  0
POINT
  5
13C
330
131
100
AcDbEntity
  8
Defpoints
100
AcDbPoint
 10
80.0
 20
-464.0
 30
0.0
  0
POINT
  5
13D
330
131
100
AcDbEntity
  8
Defpoints
100
AcDbPoint
 10
80.0
 20
-421.0
 30
0.0
  0
POINT
  5
13E
330
131
100
AcDbEntity
  8
Defpoints
100
AcDbPoint
 10
168.0
 20
-421.0
 30
0.0
  0
ENDBLK
  5
133
330
131
100
AcDbEntity
  8
0
100
AcDbBlockEnd
  0
BLOCK
  5
142
330
141
100
AcDbEntity
  8
0
100
AcDbBlockBegin
  2
*D10
 70
1
 10
0.0
 20
0.0
 30
0.0
  3
*D10
  1

  0
LINE
  5
144
330
141
100
AcDbEntity
  8
0
 62
4
100
AcDbLine
 10
80.0
 20
-97.0
 30
0.0
 11
80.0
 21
-78.0
 31
0.0
  0
LINE
  5
145
330
141
100
AcDbEntity
  8
0
 62
4
100
AcDbLine
 10
157.0
 20
-97.0
 30
0.0
 11
157.0
 21
-78.0
 31
0.0
  0
INSERT
  5
146
330
141
100
AcDbEntity
  8
COTA
 62
4
100
AcDbBlockReference
  2
_CLOSEDFILLED
 10
80.0
 20
-81.0
 30
0.0
 41
3.0
 42
3.0
 50
180.0
  0
INSERT
  5
148
330
141
100
AcDbEntity
  8
COTA
 62
4
100
AcDbBlockReference
  2
_CLOSEDFILLED
 10
157.0
 20
-81.0
 30
0.0
 41
3.0
 42
3.0
  0
LINE
  5
14A
330
141
100
AcDbEntity
  8
0
 62
4
100
AcDbLine
 10
83.0
 20
-81.0
 30
0.0
 11
154.0
 21
-81.0
 31
0.0
  0
MTEXT
  5
14B
330
141
100
AcDbEntity
  8
COTA
 62
240
100
AcDbMText
 10
118.5
 20
-73.0
 30
0.0
 40
10.0
 71
5
  1
77
  0
POINT
  5
14C
330
141
100
AcDbEntity
  8
Defpoints
100
AcDbPoint
 10
80.0
 20
-81.0
 30
0.0
  0
POINT
  5
14D
330
141
100
AcDbEntity
  8
Defpoints
100
AcDbPoint
 10
80.0
 20
-100.0
 30
0.0
  0
POINT
  5
14E
330
141
100
AcDbEntity
  8
Defpoints
100
AcDbPoint
 10
157.0
 20
-100.0
 30
0.0
  0
ENDBLK
  5
143
330
141
100
AcDbEntity
  8
0
100
AcDbBlockEnd
  0
BLOCK
  5
151
330
150
100
AcDbEntity
  8
0
100
AcDbBlockBegin
  2
*D11
 70
1
 10
0.0
 20
0.0
 30
0.0
  3
*D11
  1

  0
LINE
  5
153
330
150
100
AcDbEntity
  8
0
 62
4
100
AcDbLine
 10
157.0
 20
-97.0
 30
0.0
 11
157.0
 21
-78.0
 31
0.0
  0
LINE
  5
154
330
150
100
AcDbEntity
  8
0
 62
4
100
AcDbLine
 10
168.0
 20
-97.0
 30
0.0
 11
168.0
 21
-78.0
 31
0.0
  0
INSERT
  5
155
330
150
100
AcDbEntity
  8
COTA
 62
4
100
AcDbBlockReference
  2
_CLOSEDFILLED
 10
157.0
 20
-81.0
 30
0.0
 41
3.0
 42
3.0
 50
180.0
  0
INSERT
  5
157
330
150
100
AcDbEntity
  8
COTA
 62
4
100
AcDbBlockReference
  2
_CLOSEDFILLED
 10
168.0
 20
-81.0
 30
0.0
 41
3.0
 42
3.0
  0
LINE
  5
159
330
150
100
AcDbEntity
  8
0
 62
4
100
AcDbLine
 10
160.0
 20
-81.0
 30
0.0
 11
165.0
 21
-81.0
 31
0.0
  0
MTEXT
  5
15A
330
150
100
AcDbEntity
  8
COTA
 62
240
100
AcDbMText
 10
162.5
 20
-70.0
 30
0.0
 40
10.0
 71
5
  1
11
  0
POINT
  5
15B
330
150
100
AcDbEntity
  8
Defpoints
100
AcDbPoint
 10
157.0
 20
-81.0
 30
0.0
  0
POINT
  5
15C
330
150
100
AcDbEntity
  8
Defpoints
100
AcDbPoint
 10
157.0
 20
-100.0
 30
0.0
  0
POINT
  5
15D
330
150
100
AcDbEntity
  8
Defpoints
100
AcDbPoint
 10
168.0
 20
-100.0
 30
0.0
  0
ENDBLK
  5
152
330
150
100
AcDbEntity
  8
0
100
AcDbBlockEnd
  0
BLOCK
  5
17C
330
17B
100
AcDbEntity
  8
0
100
AcDbBlockBegin
  2
*D12
 70
1
 10
0.0
 20
0.0
 30
0.0
  3
*D12
  1

  0
LINE
  5
17E
330
17B
100
AcDbEntity
  8
0
 62
4
100
AcDbLine
 10
414.0
 20
-421.0
 30
0.0
 11
431.0
 21
-421.0
 31
0.0
  0
LINE
  5
17F
330
17B
100
AcDbEntity
  8
0
 62
4
100
AcDbLine
 10
414.0
 20
-419.0
 30
0.0
 11
431.0
 21
-419.0
 31
0.0
  0
INSERT
  5
180
330
17B
100
AcDbEntity
  8
COTA
 62
4
100
AcDbBlockReference
  2
_CLOSEDFILLED
 10
428.0
 20
-421.0
 30
0.0
 41
3.0
 42
3.0
 50
90.0
  0
INSERT
  5
182
330
17B
100
AcDbEntity
  8
COTA
 62
4
100
AcDbBlockReference
  2
_CLOSEDFILLED
 10
428.0
 20
-419.0
 30
0.0
 41
3.0
 42
3.0
 50
270.0
  0
LINE
  5
184
330
17B
100
AcDbEntity
  8
0
 62
4
100
AcDbLine
 10
428.0
 20
-424.0
 30
0.0
 11
428.0
 21
-427.0
 31
0.0
  0
LINE
  5
185
330
17B
100
AcDbEntity
  8
0
 62
4
100
AcDbLine
 10
428.0
 20
-416.0
 30
0.0
 11
428.0
 21
-413.0
 31
0.0
  0
LINE
  5
186
330
17B
100
AcDbEntity
  8
0
 62
4
100
AcDbLine
 10
428.0
 20
-421.0
 30
0.0
 11
428.0
 21
-419.0
 31
0.0
  0
MTEXT
  5
187
330
17B
100
AcDbEntity
  8
COTA
 62
240
100
AcDbMText
 10
417.0
 20
-420.0
 30
0.0
 40
10.0
 71
5
  1
2
 50
90.0
  0
POINT
  5
188
330
17B
100
AcDbEntity
  8
Defpoints
100
AcDbPoint
 10
428.0
 20
-421.0
 30
0.0
  0
POINT
  5
189
330
17B
100
AcDbEntity
  8
Defpoints
100
AcDbPoint
 10
411.0
 20
-421.0
 30
0.0
  0
POINT
  5
18A
330
17B
100
AcDbEntity
  8
Defpoints
100
AcDbPoint
 10
411.0
 20
-419.0
 30
0.0
  0
ENDBLK
  5
17D
330
17B
100
AcDbEntity
  8
0
100
AcDbBlockEnd
  0
BLOCK
  5
18D
330
18C
100
AcDbEntity
  8
0
100
AcDbBlockBegin
  2
*D13
 70
1
 10
0.0
 20
0.0
 30
0.0
  3
*D13
  1

  0
LINE
  5
18F
330
18C
100
AcDbEntity
  8
0
 62
4
100
AcDbLine
 10
414.0
 20
-419.0
 30
0.0
 11
454.0
 21
-419.0
 31
0.0
  0
LINE
  5
190
330
18C
100
AcDbEntity
  8
0
 62
4
100
AcDbLine
 10
414.0
 20
-297.0
 30
0.0
 11
454.0
 21
-297.0
 31
0.0
  0
INSERT
  5
191
330
18C
100
AcDbEntity
  8
COTA
 62
4
100
AcDbBlockReference
  2
_CLOSEDFILLED
 10
451.0
 20
-419.0
 30
0.0
 41
3.0
 42
3.0
 50
270.0
  0
INSERT
  5
193
330
18C
100
AcDbEntity
  8
COTA
 62
4
100
AcDbBlockReference
  2
_CLOSEDFILLED
 10
451.0
 20
-297.0
 30
0.0
 41
3.0
 42
3.0
 50
90.0
  0
LINE
  5
195
330
18C
100
AcDbEntity
  8
0
 62
4
100
AcDbLine
 10
451.0
 20
-416.0
 30
0.0
 11
451.0
 21
-300.0
 31
0.0
  0
MTEXT
  5
196
330
18C
100
AcDbEntity
  8
COTA
 62
240
100
AcDbMText
 10
443.0
 20
-358.0
 30
0.0
 40
10.0
 71
5
  1
122
 50
90.0
  0
POINT
  5
197
330
18C
100
AcDbEntity
  8
Defpoints
100
AcDbPoint
 10
451.0
 20
-419.0
 30
0.0
  0
POINT
  5
198
330
18C
100
AcDbEntity
  8
Defpoints
100
AcDbPoint
 10
411.0
 20
-419.0
 30
0.0
  0
POINT
  5
199
330
18C
100
AcDbEntity
  8
Defpoints
100
AcDbPoint
 10
411.0
 20
-297.0
 30
0.0
  0
ENDBLK
  5
18E
330
18C
100
AcDbEntity
  8
0
100
AcDbBlockEnd
  0
BLOCK
  5
19C
330
19B
100
AcDbEntity
  8
0
100
AcDbBlockBegin
  2
*D14
 70
1
 10
0.0
 20
0.0
 30
0.0
  3
*D14
  1

  0
LINE
  5
19E
330
19B
100
AcDbEntity
  8
0
 62
4
100
AcDbLine
 10
414.0
 20
-297.0
 30
0.0
 11
454.0
 21
-297.0
 31
0.0
  0
LINE
  5
19F
330
19B
100
AcDbEntity
  8
0
 62
4
100
AcDbLine
 10
414.0
 20
-175.0
 30
0.0
 11
454.0
 21
-175.0
 31
0.0
  0
INSERT
  5
1A0
330
19B
100
AcDbEntity
  8
COTA
 62
4
100
AcDbBlockReference
  2
_CLOSEDFILLED
 10
451.0
 20
-297.0
 30
0.0
 41
3.0
 42
3.0
 50
270.0
  0
INSERT
  5
1A2
330
19B
100
AcDbEntity
  8
COTA
 62
4
100
AcDbBlockReference
  2
_CLOSEDFILLED
 10
451.0
 20
-175.0
 30
0.0
 41
3.0
 42
3.0
 50
90.0
  0
LINE
  5
1A4
330
19B
100
AcDbEntity
  8
0
 62
4
100
AcDbLine
 10
451.0
 20
-294.0
 30
0.0
 11
451.0
 21
-178.0
 31
0.0
  0
MTEXT
  5
1A5
330
19B
100
AcDbEntity
  8
COTA
 62
240
100
AcDbMText
 10
443.0
 20
-236.0
 30
0.0
 40
10.0
 71
5
  1
122
 50
90.0
  0
POINT
  5
1A6
330
19B
100
AcDbEntity
  8
Defpoints
100
AcDbPoint
 10
451.0
 20
-297.0
 30
0.0
  0
POINT
  5
1A7
330
19B
100
AcDbEntity
  8
Defpoints
100
AcDbPoint
 10
411.0
 20
-297.0
 30
0.0
  0
POINT
  5
1A8
330
19B
100
AcDbEntity
  8
Defpoints
100
AcDbPoint
 10
411.0
 20
-175.0
 30
0.0
  0
ENDBLK
  5
19D
330
19B
100
AcDbEntity
  8
0
100
AcDbBlockEnd
  0
BLOCK
  5
1AB
330
1AA
100
AcDbEntity
  8
0
100
AcDbBlockBegin
  2
*D15
 70
1
 10
0.0
 20
0.0
 30
0.0
  3
*D15
  1

  0
LINE
  5
1AD
330
1AA
100
AcDbEntity
  8
0
 62
4
100
AcDbLine
 10
414.0
 20
-175.0
 30
0.0
 11
454.0
 21
-175.0
 31
0.0
  0
LINE
  5
1AE
330
1AA
100
AcDbEntity
  8
0
 62
4
100
AcDbLine
 10
414.0
 20
-121.0
 30
0.0
 11
454.0
 21
-121.0
 31
0.0
  0
INSERT
  5
1AF
330
1AA
100
AcDbEntity
  8
COTA
 62
4
100
AcDbBlockReference
  2
_CLOSEDFILLED
 10
451.0
 20
-175.0
 30
0.0
 41
3.0
 42
3.0
 50
270.0
  0
INSERT
  5
1B1
330
1AA
100
AcDbEntity
  8
COTA
 62
4
100
AcDbBlockReference
  2
_CLOSEDFILLED
 10
451.0
 20
-121.0
 30
0.0
 41
3.0
 42
3.0
 50
90.0
  0
LINE
  5
1B3
330
1AA
100
AcDbEntity
  8
0
 62
4
100
AcDbLine
 10
451.0
 20
-172.0
 30
0.0
 11
451.0
 21
-124.0
 31
0.0
  0
MTEXT
  5
1B4
330
1AA
100
AcDbEntity
  8
COTA
 62
240
100
AcDbMText
 10
443.0
 20
-148.0
 30
0.0
 40
10.0
 71
5
  1
54
 50
90.0
  0
POINT
  5
1B5
330
1AA
100
AcDbEntity
  8
Defpoints
100
AcDbPoint
 10
451.0
 20
-175.0
 30
0.0
  0
POINT
  5
1B6
330
1AA
100
AcDbEntity
  8
Defpoints
100
AcDbPoint
 10
411.0
 20
-175.0
 30
0.0
  0
POINT
  5
1B7
330
1AA
100
AcDbEntity
  8
Defpoints
100
AcDbPoint
 10
411.0
 20
-121.0
 30
0.0
  0
ENDBLK
  5
1AC
330
1AA
100
AcDbEntity
  8
0
100
AcDbBlockEnd
  0
BLOCK
  5
1BA
330
1B9
100
AcDbEntity
  8
0
100
AcDbBlockBegin
  2
*D16
 70
1
 10
0.0
 20
0.0
 30
0.0
  3
*D16
  1

  0
LINE
  5
1BC
330
1B9
100
AcDbEntity
  8
0
 62
4
100
AcDbLine
 10
414.0
 20
-121.0
 30
0.0
 11
454.0
 21
-121.0
 31
0.0
  0
LINE
  5
1BD
330
1B9
100
AcDbEntity
  8
0
 62
4
100
AcDbLine
 10
414.0
 20
-107.0
 30
0.0
 11
454.0
 21
-107.0
 31
0.0
  0
INSERT
  5
1BE
330
1B9
100
AcDbEntity
  8
COTA
 62
4
100
AcDbBlockReference
  2
_CLOSEDFILLED
 10
451.0
 20
-121.0
 30
0.0
 41
3.0
 42
3.0
 50
270.0
  0
INSERT
  5
1C0
330
1B9
100
AcDbEntity
  8
COTA
 62
4
100
AcDbBlockReference
  2
_CLOSEDFILLED
 10
451.0
 20
-107.0
 30
0.0
 41
3.0
 42
3.0
 50
90.0
  0
LINE
  5
1C2
330
1B9
100
AcDbEntity
  8
0
 62
4
100
AcDbLine
 10
451.0
 20
-118.0
 30
0.0
 11
451.0
 21
-110.0
 31
0.0
  0
MTEXT
  5
1C3
330
1B9
100
AcDbEntity
  8
COTA
 62
240
100
AcDbMText
 10
440.0
 20
-114.0
 30
0.0
 40
10.0
 71
5
  1
14
 50
90.0
  0
POINT
  5
1C4
330
1B9
100
AcDbEntity
  8
Defpoints
100
AcDbPoint
 10
451.0
 20
-121.0
 30
0.0
  0
POINT
  5
1C5
330
1B9
100
AcDbEntity
  8
Defpoints
100
AcDbPoint
 10
411.0
 20
-121.0
 30
0.0
  0
POINT
  5
1C6
330
1B9
100
AcDbEntity
  8
Defpoints
100
AcDbPoint
 10
411.0
 20
-107.0
 30
0.0
  0
ENDBLK
  5
1BB
330
1B9
100
AcDbEntity
  8
0
100
AcDbBlockEnd
  0
BLOCK
  5
1C9
330
1C8
100
AcDbEntity
  8
0
100
AcDbBlockBegin
  2
*D17
 70
1
 10
0.0
 20
0.0
 30
0.0
  3
*D17
  1

  0
LINE
  5
1CB
330
1C8
100
AcDbEntity
  8
0
 62
4
100
AcDbLine
 10
414.0
 20
-107.0
 30
0.0
 11
454.0
 21
-107.0
 31
0.0
  0
LINE
  5
1CC
330
1C8
100
AcDbEntity
  8
0
 62
4
100
AcDbLine
 10
414.0
 20
-100.0
 30
0.0
 11
454.0
 21
-100.0
 31
0.0
  0
INSERT
  5
1CD
330
1C8
100
AcDbEntity
  8
COTA
 62
4
100
AcDbBlockReference
  2
_CLOSEDFILLED
 10
451.0
 20
-107.0
 30
0.0
 41
3.0
 42
3.0
 50
90.0
  0
INSERT
  5
1CF
330
1C8
100
AcDbEntity
  8
COTA
 62
4
100
AcDbBlockReference
  2
_CLOSEDFILLED
 10
451.0
 20
-100.0
 30
0.0
 41
3.0
 42
3.0
 50
270.0
  0
LINE
  5
1D1
330
1C8
100
AcDbEntity
  8
0
 62
4
100
AcDbLine
 10
451.0
 20
-110.0
 30
0.0
 11
451.0
 21
-113.0
 31
0.0
  0
LINE
  5
1D2
330
1C8
100
AcDbEntity
  8
0
 62
4
100
AcDbLine
 10
451.0
 20
-97.0
 30
0.0
 11
451.0
 21
-94.0
 31
0.0
  0
LINE
  5
1D3
330
1C8
100
AcDbEntity
  8
0
 62
4
100
AcDbLine
 10
451.0
 20
-107.0
 30
0.0
 11
451.0
 21
-100.0
 31
0.0
  0
MTEXT
  5
1D4
330
1C8
100
AcDbEntity
  8
COTA
 62
240
100
AcDbMText
 10
440.0
 20
-103.5
 30
0.0
 40
10.0
 71
5
  1
7
 50
90.0
  0
POINT
  5
1D5
330
1C8
100
AcDbEntity
  8
Defpoints
100
AcDbPoint
 10
451.0
 20
-107.0
 30
0.0
  0
POINT
  5
1D6
330
1C8
100
AcDbEntity
  8
Defpoints
100
AcDbPoint
 10
411.0
 20
-107.0
 30
0.0
  0
POINT
  5
1D7
330
1C8
100
AcDbEntity
  8
Defpoints
100
AcDbPoint
 10
411.0
 20
-100.0
 30
0.0
  0
ENDBLK
  5
1CA
330
1C8
100
AcDbEntity
  8
0
100
AcDbBlockEnd
  0
BLOCK
  5
1DA
330
1D9
100
AcDbEntity
  8
0
100
AcDbBlockBegin
  2
*D18
 70
1
 10
0.0
 20
0.0
 30
0.0
  3
*D18
  1

  0
LINE
  5
1DC
330
1D9
100
AcDbEntity
  8
0
 62
4
100
AcDbLine
 10
320.0
 20
-224.0
 30
0.0
 11
303.0
 21
-224.0
 31
0.0
  0
LINE
  5
1DD
330
1D9
100
AcDbEntity
  8
0
 62
4
100
AcDbLine
 10
320.0
 20
-175.0
 30
0.0
 11
303.0
 21
-175.0
 31
0.0
  0
INSERT
  5
1DE
330
1D9
100
AcDbEntity
  8
COTA
 62
4
100
AcDbBlockReference
  2
_CLOSEDFILLED
 10
306.0
 20
-224.0
 30
0.0
 41
3.0
 42
3.0
 50
270.0
  0
INSERT
  5
1E0
330
1D9
100
AcDbEntity
  8
COTA
 62
4
100
AcDbBlockReference
  2
_CLOSEDFILLED
 10
306.0
 20
-175.0
 30
0.0
 41
3.0
 42
3.0
 50
90.0
  0
LINE
  5
1E2
330
1D9
100
AcDbEntity
  8
0
 62
4
100
AcDbLine
 10
306.0
 20
-221.0
 30
0.0
 11
306.0
 21
-178.0
 31
0.0
  0
MTEXT
  5
1E3
330
1D9
100
AcDbEntity
  8
COTA
 62
240
100
AcDbMText
 10
298.0
 20
-199.5
 30
0.0
 40
10.0
 71
5
  1
49
 50
90.0
  0
POINT
  5
1E4
330
1D9
100
AcDbEntity
  8
Defpoints
100
AcDbPoint
 10
306.0
 20
-224.0
 30
0.0
  0
POINT
  5
1E5
330
1D9
100
AcDbEntity
  8
Defpoints
100
AcDbPoint
 10
323.0
 20
-224.0
 30
0.0
  0
POINT
  5
1E6
330
1D9
100
AcDbEntity
  8
Defpoints
100
AcDbPoint
 10
323.0
 20
-175.0
 30
0.0
  0
ENDBLK
  5
1DB
330
1D9
100
AcDbEntity
  8
0
100
AcDbBlockEnd
  0
BLOCK
  5
1E9
330
1E8
100
AcDbEntity
  8
0
100
AcDbBlockBegin
  2
*D19
 70
1
 10
0.0
 20
0.0
 30
0.0
  3
*D19
  1

  0
LINE
  5
1EB
330
1E8
100
AcDbEntity
  8
0
 62
4
100
AcDbLine
 10
320.0
 20
-224.0
 30
0.0
 11
280.0
 21
-224.0
 31
0.0
  0
LINE
  5
1EC
330
1E8
100
AcDbEntity
  8
0
 62
4
100
AcDbLine
 10
320.0
 20
-100.0
 30
0.0
 11
280.0
 21
-100.0
 31
0.0
  0
INSERT
  5
1ED
330
1E8
100
AcDbEntity
  8
COTA
 62
4
100
AcDbBlockReference
  2
_CLOSEDFILLED
 10
283.0
 20
-224.0
 30
0.0
 41
3.0
 42
3.0
 50
270.0
  0
INSERT
  5
1EF
330
1E8
100
AcDbEntity
  8
COTA
 62
4
100
AcDbBlockReference
  2
_CLOSEDFILLED
 10
283.0
 20
-100.0
 30
0.0
 41
3.0
 42
3.0
 50
90.0
  0
LINE
  5
1F1
330
1E8
100
AcDbEntity
  8
0
 62
4
100
AcDbLine
 10
283.0
 20
-221.0
 30
0.0
 11
283.0
 21
-103.0
 31
0.0
  0
MTEXT
  5
1F2
330
1E8
100
AcDbEntity
  8
COTA
 62
240
100
AcDbMText
 10
275.0
 20
-162.0
 30
0.0
 40
10.0
 71
5
  1
124
 50
90.0
  0
POINT
  5
1F3
330
1E8
100
AcDbEntity
  8
Defpoints
100
AcDbPoint
 10
283.0
 20
-224.0
 30
0.0
  0
POINT
  5
1F4
330
1E8
100
AcDbEntity
  8
Defpoints
100
AcDbPoint
 10
323.0
 20
-224.0
 30
0.0
  0
POINT
  5
1F5
330
1E8
100
AcDbEntity
  8
Defpoints
100
AcDbPoint
 10
323.0
 20
-100.0
 30
0.0
  0
ENDBLK
  5
1EA
330
1E8
100
AcDbEntity
  8
0
100
AcDbBlockEnd
  0
BLOCK
  5
1F8
330
1F7
100
AcDbEntity
  8
0
100
AcDbBlockBegin
  2
*D20
 70
1
 10
0.0
 20
0.0
 30
0.0
  3
*D20
  1

  0
LINE
  5
1FA
330
1F7
100
AcDbEntity
  8
0
 62
4
100
AcDbLine
 10
414.0
 20
-170.0
 30
0.0
 11
431.0
 21
-170.0
 31
0.0
  0
LINE
  5
1FB
330
1F7
100
AcDbEntity
  8
0
 62
4
100
AcDbLine
 10
414.0
 20
-121.0
 30
0.0
 11
431.0
 21
-121.0
 31
0.0
  0
INSERT
  5
1FC
330
1F7
100
AcDbEntity
  8
COTA
 62
4
100
AcDbBlockReference
  2
_CLOSEDFILLED
 10
428.0
 20
-170.0
 30
0.0
 41
3.0
 42
3.0
 50
270.0
  0
INSERT
  5
1FE
330
1F7
100
AcDbEntity
  8
COTA
 62
4
100
AcDbBlockReference
  2
_CLOSEDFILLED
 10
428.0
 20
-121.0
 30
0.0
 41
3.0
 42
3.0
 50
90.0
  0
LINE
  5
200
330
1F7
100
AcDbEntity
  8
0
 62
4
100
AcDbLine
 10
428.0
 20
-167.0
 30
0.0
 11
428.0
 21
-124.0
 31
0.0
  0
MTEXT
  5
201
330
1F7
100
AcDbEntity
  8
COTA
 62
240
100
AcDbMText
 10
420.0
 20
-145.5
 30
0.0
 40
10.0
 71
5
  1
49
 50
90.0
  0
POINT
  5
202
330
1F7
100
AcDbEntity
  8
Defpoints
100
AcDbPoint
 10
428.0
 20
-170.0
 30
0.0
  0
POINT
  5
203
330
1F7
100
AcDbEntity
  8
Defpoints
100
AcDbPoint
 10
411.0
 20
-170.0
 30
0.0
  0
POINT
  5
204
330
1F7
100
AcDbEntity
  8
Defpoints
100
AcDbPoint
 10
411.0
 20
-121.0
 30
0.0
  0
ENDBLK
  5
1F9
330
1F7
100
AcDbEntity
  8
0
100
AcDbBlockEnd
  0
BLOCK
  5
207
330
206
100
AcDbEntity
  8
0
100
AcDbBlockBegin
  2
*D21
 70
1
 10
0.0
 20
0.0
 30
0.0
  3
*D21
  1

  0
LINE
  5
209
330
206
100
AcDbEntity
  8
0
 62
4
100
AcDbLine
 10
323.0
 20
-424.0
 30
0.0
 11
323.0
 21
-443.0
 31
0.0
  0
LINE
  5
20A
330
206
100
AcDbEntity
  8
0
 62
4
100
AcDbLine
 10
330.0
 20
-424.0
 30
0.0
 11
330.0
 21
-443.0
 31
0.0
  0
INSERT
  5
20B
330
206
100
AcDbEntity
  8
COTA
 62
4
100
AcDbBlockReference
  2
_CLOSEDFILLED
 10
323.0
 20
-440.0
 30
0.0
 41
3.0
 42
3.0
  0
INSERT
  5
20D
330
206
100
AcDbEntity
  8
COTA
 62
4
100
AcDbBlockReference
  2
_CLOSEDFILLED
 10
330.0
 20
-440.0
 30
0.0
 41
3.0
 42
3.0
 50
180.0
  0
LINE
  5
20F
330
206
100
AcDbEntity
  8
0
 62
4
100
AcDbLine
 10
320.0
 20
-440.0
 30
0.0
 11
317.0
 21
-440.0
 31
0.0
  0
LINE
  5
210
330
206
100
AcDbEntity
  8
0
 62
4
100
AcDbLine
 10
333.0
 20
-440.0
 30
0.0
 11
336.0
 21
-440.0
 31
0.0
  0
LINE
  5
211
330
206
100
AcDbEntity
  8
0
 62
4
100
AcDbLine
 10
323.0
 20
-440.0
 30
0.0
 11
330.0
 21
-440.0
 31
0.0
  0
MTEXT
  5
212
330
206
100
AcDbEntity
  8
COTA
 62
240
100
AcDbMText
 10
326.5
 20
-429.0
 30
0.0
 40
10.0
 71
5
  1
7
  0
POINT
  5
213
330
206
100
AcDbEntity
  8
Defpoints
100
AcDbPoint
 10
323.0
 20
-440.0
 30
0.0
  0
POINT
  5
214
330
206
100
AcDbEntity
  8
Defpoints
100
AcDbPoint
 10
323.0
 20
-421.0
 30
0.0
  0
POINT
  5
215
330
206
100
AcDbEntity
  8
Defpoints
100
AcDbPoint
 10
330.0
 20
-421.0
 30
0.0
  0
ENDBLK
  5
208
330
206
100
AcDbEntity
  8
0
100
AcDbBlockEnd
  0
BLOCK
  5
218
330
217
100
AcDbEntity
  8
0
100
AcDbBlockBegin
  2
*D22
 70
1
 10
0.0
 20
0.0
 30
0.0
  3
*D22
  1

  0
LINE
  5
21A
330
217
100
AcDbEntity
  8
0
 62
4
100
AcDbLine
 10
404.0
 20
-424.0
 30
0.0
 11
404.0
 21
-443.0
 31
0.0
  0
LINE
  5
21B
330
217
100
AcDbEntity
  8
0
 62
4
100
AcDbLine
 10
411.0
 20
-424.0
 30
0.0
 11
411.0
 21
-443.0
 31
0.0
  0
INSERT
  5
21C
330
217
100
AcDbEntity
  8
COTA
 62
4
100
AcDbBlockReference
  2
_CLOSEDFILLED
 10
404.0
 20
-440.0
 30
0.0
 41
3.0
 42
3.0
  0
INSERT
  5
21E
330
217
100
AcDbEntity
  8
COTA
 62
4
100
AcDbBlockReference
  2
_CLOSEDFILLED
 10
411.0
 20
-440.0
 30
0.0
 41
3.0
 42
3.0
 50
180.0
  0
LINE
  5
220
330
217
100
AcDbEntity
  8
0
 62
4
100
AcDbLine
 10
401.0
 20
-440.0
 30
0.0
 11
398.0
 21
-440.0
 31
0.0
  0
LINE
  5
221
330
217
100
AcDbEntity
  8
0
 62
4
100
AcDbLine
 10
414.0
 20
-440.0
 30
0.0
 11
417.0
 21
-440.0
 31
0.0
  0
LINE
  5
222
330
217
100
AcDbEntity
  8
0
 62
4
100
AcDbLine
 10
404.0
 20
-440.0
 30
0.0
 11
411.0
 21
-440.0
 31
0.0
  0
MTEXT
  5
223
330
217
100
AcDbEntity
  8
COTA
 62
240
100
AcDbMText
 10
407.5
 20
-429.0
 30
0.0
 40
10.0
 71
5
  1
7
  0
POINT
  5
224
330
217
100
AcDbEntity
  8
Defpoints
100
AcDbPoint
 10
404.0
 20
-440.0
 30
0.0
  0
POINT
  5
225
330
217
100
AcDbEntity
  8
Defpoints
100
AcDbPoint
 10
404.0
 20
-421.0
 30
0.0
  0
POINT
  5
226
330
217
100
AcDbEntity
  8
Defpoints
100
AcDbPoint
 10
411.0
 20
-421.0
 30
0.0
  0
ENDBLK
  5
219
330
217
100
AcDbEntity
  8
0
100
AcDbBlockEnd
  0
BLOCK
  5
229
330
228
100
AcDbEntity
  8
0
100
AcDbBlockBegin
  2
*D23
 70
1
 10
0.0
 20
0.0
 30
0.0
  3
*D23
  1

  0
LINE
  5
22B
330
228
100
AcDbEntity
  8
0
 62
4
100
AcDbLine
 10
323.0
 20
-424.0
 30
0.0
 11
323.0
 21
-467.0
 31
0.0
  0
LINE
  5
22C
330
228
100
AcDbEntity
  8
0
 62
4
100
AcDbLine
 10
411.0
 20
-424.0
 30
0.0
 11
411.0
 21
-467.0
 31
0.0
  0
INSERT
  5
22D
330
228
100
AcDbEntity
  8
COTA
 62
4
100
AcDbBlockReference
  2
_CLOSEDFILLED
 10
323.0
 20
-464.0
 30
0.0
 41
3.0
 42
3.0
 50
180.0
  0
INSERT
  5
22F
330
228
100
AcDbEntity
  8
COTA
 62
4
100
AcDbBlockReference
  2
_CLOSEDFILLED
 10
411.0
 20
-464.0
 30
0.0
 41
3.0
 42
3.0
  0
LINE
  5
231
330
228
100
AcDbEntity
  8
0
 62
4
100
AcDbLine
 10
326.0
 20
-464.0
 30
0.0
 11
408.0
 21
-464.0
 31
0.0
  0
MTEXT
  5
232
330
228
100
AcDbEntity
  8
COTA
 62
240
100
AcDbMText
 10
367.0
 20
-456.0
 30
0.0
 40
10.0
 71
5
  1
88
  0
POINT
  5
233
330
228
100
AcDbEntity
  8
Defpoints
100
AcDbPoint
 10
323.0
 20
-464.0
 30
0.0
  0
POINT
  5
234
330
228
100
AcDbEntity
  8
Defpoints
100
AcDbPoint
 10
323.0
 20
-421.0
 30
0.0
  0
POINT
  5
235
330
228
100
AcDbEntity
  8
Defpoints
100
AcDbPoint
 10
411.0
 20
-421.0
 30
0.0
  0
ENDBLK
  5
22A
330
228
100
AcDbEntity
  8
0
100
AcDbBlockEnd
  0
BLOCK
  5
239
330
238
100
AcDbEntity
  8
0
100
AcDbBlockBegin
  2
*D24
 70
1
 10
0.0
 20
0.0
 30
0.0
  3
*D24
  1

  0
LINE
  5
23B
330
238
100
AcDbEntity
  8
0
 62
4
100
AcDbLine
 10
323.0
 20
-97.0
 30
0.0
 11
323.0
 21
-78.0
 31
0.0
  0
LINE
  5
23C
330
238
100
AcDbEntity
  8
0
 62
4
100
AcDbLine
 10
334.0
 20
-97.0
 30
0.0
 11
334.0
 21
-78.0
 31
0.0
  0
INSERT
  5
23D
330
238
100
AcDbEntity
  8
COTA
 62
4
100
AcDbBlockReference
  2
_CLOSEDFILLED
 10
323.0
 20
-81.0
 30
0.0
 41
3.0
 42
3.0
 50
180.0
  0
INSERT
  5
23F
330
238
100
AcDbEntity
  8
COTA
 62
4
100
AcDbBlockReference
  2
_CLOSEDFILLED
 10
334.0
 20
-81.0
 30
0.0
 41
3.0
 42
3.0
  0
LINE
  5
241
330
238
100
AcDbEntity
  8
0
 62
4
100
AcDbLine
 10
326.0
 20
-81.0
 30
0.0
 11
331.0
 21
-81.0
 31
0.0
  0
MTEXT
  5
242
330
238
100
AcDbEntity
  8
COTA
 62
240
100
AcDbMText
 10
328.5
 20
-70.0
 30
0.0
 40
10.0
 71
5
  1
11
  0
POINT
  5
243
330
238
100
AcDbEntity
  8
Defpoints
100
AcDbPoint
 10
323.0
 20
-81.0
 30
0.0
  0
POINT
  5
244
330
238
100
AcDbEntity
  8
Defpoints
100
AcDbPoint
 10
323.0
 20
-100.0
 30
0.0
  0
POINT
  5
245
330
238
100
AcDbEntity
  8
Defpoints
100
AcDbPoint
 10
334.0
 20
-100.0
 30
0.0
  0
ENDBLK
  5
23A
330
238
100
AcDbEntity
  8
0
100
AcDbBlockEnd
  0
BLOCK
  5
248
330
247
100
AcDbEntity
  8
0
100
AcDbBlockBegin
  2
*D25
 70
1
 10
0.0
 20
0.0
 30
0.0
  3
*D25
  1

  0
LINE
  5
24A
330
247
100
AcDbEntity
  8
0
 62
4
100
AcDbLine
 10
334.0
 20
-97.0
 30
0.0
 11
334.0
 21
-78.0
 31
0.0
  0
LINE
  5
24B
330
247
100
AcDbEntity
  8
0
 62
4
100
AcDbLine
 10
377.0
 20
-97.0
 30
0.0
 11
377.0
 21
-78.0
 31
0.0
  0
INSERT
  5
24C
330
247
100
AcDbEntity
  8
COTA
 62
4
100
AcDbBlockReference
  2
_CLOSEDFILLED
 10
334.0
 20
-81.0
 30
0.0
 41
3.0
 42
3.0
 50
180.0
  0
INSERT
  5
24E
330
247
100
AcDbEntity
  8
COTA
 62
4
100
AcDbBlockReference
  2
_CLOSEDFILLED
 10
377.0
 20
-81.0
 30
0.0
 41
3.0
 42
3.0
  0
LINE
  5
250
330
247
100
AcDbEntity
  8
0
 62
4
100
AcDbLine
 10
337.0
 20
-81.0
 30
0.0
 11
374.0
 21
-81.0
 31
0.0
  0
MTEXT
  5
251
330
247
100
AcDbEntity
  8
COTA
 62
240
100
AcDbMText
 10
355.5
 20
-73.0
 30
0.0
 40
10.0
 71
5
  1
43
  0
POINT
  5
252
330
247
100
AcDbEntity
  8
Defpoints
100
AcDbPoint
 10
334.0
 20
-81.0
 30
0.0
  0
POINT
  5
253
330
247
100
AcDbEntity
  8
Defpoints
100
AcDbPoint
 10
334.0
 20
-100.0
 30
0.0
  0
POINT
  5
254
330
247
100
AcDbEntity
  8
Defpoints
100
AcDbPoint
 10
377.0
 20
-100.0
 30
0.0
  0
ENDBLK
  5
249
330
247
100
AcDbEntity
  8
0
100
AcDbBlockEnd
  0
BLOCK
  5
257
330
256
100
AcDbEntity
  8
0
100
AcDbBlockBegin
  2
*D26
 70
1
 10
0.0
 20
0.0
 30
0.0
  3
*D26
  1

  0
LINE
  5
259
330
256
100
AcDbEntity
  8
0
 62
4
100
AcDbLine
 10
377.0
 20
-97.0
 30
0.0
 11
377.0
 21
-78.0
 31
0.0
  0
LINE
  5
25A
330
256
100
AcDbEntity
  8
0
 62
4
100
AcDbLine
 10
411.0
 20
-97.0
 30
0.0
 11
411.0
 21
-78.0
 31
0.0
  0
INSERT
  5
25B
330
256
100
AcDbEntity
  8
COTA
 62
4
100
AcDbBlockReference
  2
_CLOSEDFILLED
 10
377.0
 20
-81.0
 30
0.0
 41
3.0
 42
3.0
 50
180.0
  0
INSERT
  5
25D
330
256
100
AcDbEntity
  8
COTA
 62
4
100
AcDbBlockReference
  2
_CLOSEDFILLED
 10
411.0
 20
-81.0
 30
0.0
 41
3.0
 42
3.0
  0
LINE
  5
25F
330
256
100
AcDbEntity
  8
0
 62
4
100
AcDbLine
 10
380.0
 20
-81.0
 30
0.0
 11
408.0
 21
-81.0
 31
0.0
  0
MTEXT
  5
260
330
256
100
AcDbEntity
  8
COTA
 62
240
100
AcDbMText
 10
394.0
 20
-73.0
 30
0.0
 40
10.0
 71
5
  1
34
  0
POINT
  5
261
330
256
100
AcDbEntity
  8
Defpoints
100
AcDbPoint
 10
377.0
 20
-81.0
 30
0.0
  0
POINT
  5
262
330
256
100
AcDbEntity
  8
Defpoints
100
AcDbPoint
 10
377.0
 20
-100.0
 30
0.0
  0
POINT
  5
263
330
256
100
AcDbEntity
  8
Defpoints
100
AcDbPoint
 10
411.0
 20
-100.0
 30
0.0
  0
ENDBLK
  5
258
330
256
100
AcDbEntity
  8
0
100
AcDbBlockEnd
  0
BLOCK
  5
285
330
284
100
AcDbEntity
  8
0
100
AcDbBlockBegin
  2
*D27
 70
1
 10
0.0
 20
0.0
 30
0.0
  3
*D27
  1

  0
LINE
  5
287
330
284
100
AcDbEntity
  8
0
 62
4
100
AcDbLine
 10
562.0
 20
-421.0
 30
0.0
 11
579.0
 21
-421.0
 31
0.0
  0
LINE
  5
288
330
284
100
AcDbEntity
  8
0
 62
4
100
AcDbLine
 10
562.0
 20
-419.0
 30
0.0
 11
579.0
 21
-419.0
 31
0.0
  0
INSERT
  5
289
330
284
100
AcDbEntity
  8
COTA
 62
4
100
AcDbBlockReference
  2
_CLOSEDFILLED
 10
576.0
 20
-421.0
 30
0.0
 41
3.0
 42
3.0
 50
90.0
  0
INSERT
  5
28B
330
284
100
AcDbEntity
  8
COTA
 62
4
100
AcDbBlockReference
  2
_CLOSEDFILLED
 10
576.0
 20
-419.0
 30
0.0
 41
3.0
 42
3.0
 50
270.0
  0
LINE
  5
28D
330
284
100
AcDbEntity
  8
0
 62
4
100
AcDbLine
 10
576.0
 20
-424.0
 30
0.0
 11
576.0
 21
-427.0
 31
0.0
  0
LINE
  5
28E
330
284
100
AcDbEntity
  8
0
 62
4
100
AcDbLine
 10
576.0
 20
-416.0
 30
0.0
 11
576.0
 21
-413.0
 31
0.0
  0
LINE
  5
28F
330
284
100
AcDbEntity
  8
0
 62
4
100
AcDbLine
 10
576.0
 20
-421.0
 30
0.0
 11
576.0
 21
-419.0
 31
0.0
  0
MTEXT
  5
290
330
284
100
AcDbEntity
  8
COTA
 62
240
100
AcDbMText
 10
565.0
 20
-420.0
 30
0.0
 40
10.0
 71
5
  1
2
 50
90.0
  0
POINT
  5
291
330
284
100
AcDbEntity
  8
Defpoints
100
AcDbPoint
 10
576.0
 20
-421.0
 30
0.0
  0
POINT
  5
292
330
284
100
AcDbEntity
  8
Defpoints
100
AcDbPoint
 10
559.0
 20
-421.0
 30
0.0
  0
POINT
  5
293
330
284
100
AcDbEntity
  8
Defpoints
100
AcDbPoint
 10
559.0
 20
-419.0
 30
0.0
  0
ENDBLK
  5
286
330
284
100
AcDbEntity
  8
0
100
AcDbBlockEnd
  0
BLOCK
  5
296
330
295
100
AcDbEntity
  8
0
100
AcDbBlockBegin
  2
*D28
 70
1
 10
0.0
 20
0.0
 30
0.0
  3
*D28
  1

  0
LINE
  5
298
330
295
100
AcDbEntity
  8
0
 62
4
100
AcDbLine
 10
562.0
 20
-419.0
 30
0.0
 11
602.0
 21
-419.0
 31
0.0
  0
LINE
  5
299
330
295
100
AcDbEntity
  8
0
 62
4
100
AcDbLine
 10
562.0
 20
-170.0
 30
0.0
 11
602.0
 21
-170.0
 31
0.0
  0
INSERT
  5
29A
330
295
100
AcDbEntity
  8
COTA
 62
4
100
AcDbBlockReference
  2
_CLOSEDFILLED
 10
599.0
 20
-419.0
 30
0.0
 41
3.0
 42
3.0
 50
270.0
  0
INSERT
  5
29C
330
295
100
AcDbEntity
  8
COTA
 62
4
100
AcDbBlockReference
  2
_CLOSEDFILLED
 10
599.0
 20
-170.0
 30
0.0
 41
3.0
 42
3.0
 50
90.0
  0
LINE
  5
29E
330
295
100
AcDbEntity
  8
0
 62
4
100
AcDbLine
 10
599.0
 20
-416.0
 30
0.0
 11
599.0
 21
-173.0
 31
0.0
  0
MTEXT
  5
29F
330
295
100
AcDbEntity
  8
COTA
 62
240
100
AcDbMText
 10
591.0
 20
-294.5
 30
0.0
 40
10.0
 71
5
  1
249
 50
90.0
  0
POINT
  5
2A0
330
295
100
AcDbEntity
  8
Defpoints
100
AcDbPoint
 10
599.0
 20
-419.0
 30
0.0
  0
POINT
  5
2A1
330
295
100
AcDbEntity
  8
Defpoints
100
AcDbPoint
 10
559.0
 20
-419.0
 30
0.0
  0
POINT
  5
2A2
330
295
100
AcDbEntity
  8
Defpoints
100
AcDbPoint
 10
559.0
 20
-170.0
 30
0.0
  0
ENDBLK
  5
297
330
295
100
AcDbEntity
  8
0
100
AcDbBlockEnd
  0
BLOCK
  5
2A5
330
2A4
100
AcDbEntity
  8
0
100
AcDbBlockBegin
  2
*D29
 70
1
 10
0.0
 20
0.0
 30
0.0
  3
*D29
  1

  0
LINE
  5
2A7
330
2A4
100
AcDbEntity
  8
0
 62
4
100
AcDbLine
 10
562.0
 20
-170.0
 30
0.0
 11
602.0
 21
-170.0
 31
0.0
  0
LINE
  5
2A8
330
2A4
100
AcDbEntity
  8
0
 62
4
100
AcDbLine
 10
562.0
 20
-100.0
 30
0.0
 11
602.0
 21
-100.0
 31
0.0
  0
INSERT
  5
2A9
330
2A4
100
AcDbEntity
  8
COTA
 62
4
100
AcDbBlockReference
  2
_CLOSEDFILLED
 10
599.0
 20
-170.0
 30
0.0
 41
3.0
 42
3.0
 50
270.0
  0
INSERT
  5
2AB
330
2A4
100
AcDbEntity
  8
COTA
 62
4
100
AcDbBlockReference
  2
_CLOSEDFILLED
 10
599.0
 20
-100.0
 30
0.0
 41
3.0
 42
3.0
 50
90.0
  0
LINE
  5
2AD
330
2A4
100
AcDbEntity
  8
0
 62
4
100
AcDbLine
 10
599.0
 20
-167.0
 30
0.0
 11
599.0
 21
-103.0
 31
0.0
  0
MTEXT
  5
2AE
330
2A4
100
AcDbEntity
  8
COTA
 62
240
100
AcDbMText
 10
591.0
 20
-135.0
 30
0.0
 40
10.0
 71
5
  1
70
 50
90.0
  0
POINT
  5
2AF
330
2A4
100
AcDbEntity
  8
Defpoints
100
AcDbPoint
 10
599.0
 20
-170.0
 30
0.0
  0
POINT
  5
2B0
330
2A4
100
AcDbEntity
  8
Defpoints
100
AcDbPoint
 10
559.0
 20
-170.0
 30
0.0
  0
POINT
  5
2B1
330
2A4
100
AcDbEntity
  8
Defpoints
100
AcDbPoint
 10
559.0
 20
-100.0
 30
0.0
  0
ENDBLK
  5
2A6
330
2A4
100
AcDbEntity
  8
0
100
AcDbBlockEnd
  0
BLOCK
  5
2B4
330
2B3
100
AcDbEntity
  8
0
100
AcDbBlockBegin
  2
*D30
 70
1
 10
0.0
 20
0.0
 30
0.0
  3
*D30
  1

  0
LINE
  5
2B6
330
2B3
100
AcDbEntity
  8
0
 62
4
100
AcDbLine
 10
540.0
 20
-424.0
 30
0.0
 11
540.0
 21
-467.0
 31
0.0
  0
LINE
  5
2B7
330
2B3
100
AcDbEntity
  8
0
 62
4
100
AcDbLine
 10
559.0
 20
-424.0
 30
0.0
 11
559.0
 21
-467.0
 31
0.0
  0
INSERT
  5
2B8
330
2B3
100
AcDbEntity
  8
COTA
 62
4
100
AcDbBlockReference
  2
_CLOSEDFILLED
 10
540.0
 20
-464.0
 30
0.0
 41
3.0
 42
3.0
 50
180.0
  0
INSERT
  5
2BA
330
2B3
100
AcDbEntity
  8
COTA
 62
4
100
AcDbBlockReference
  2
_CLOSEDFILLED
 10
559.0
 20
-464.0
 30
0.0
 41
3.0
 42
3.0
  0
LINE
  5
2BC
330
2B3
100
AcDbEntity
  8
0
 62
4
100
AcDbLine
 10
543.0
 20
-464.0
 30
0.0
 11
556.0
 21
-464.0
 31
0.0
  0
MTEXT
  5
2BD
330
2B3
100
AcDbEntity
  8
COTA
 62
240
100
AcDbMText
 10
549.5
 20
-453.0
 30
0.0
 40
10.0
 71
5
  1
19
  0
POINT
  5
2BE
330
2B3
100
AcDbEntity
  8
Defpoints
100
AcDbPoint
 10
540.0
 20
-464.0
 30
0.0
  0
POINT
  5
2BF
330
2B3
100
AcDbEntity
  8
Defpoints
100
AcDbPoint
 10
540.0
 20
-421.0
 30
0.0
  0
POINT
  5
2C0
330
2B3
100
AcDbEntity
  8
Defpoints
100
AcDbPoint
 10
559.0
 20
-421.0
 30
0.0
  0
ENDBLK
  5
2B5
330
2B3
100
AcDbEntity
  8
0
100
AcDbBlockEnd
  0
BLOCK
  5
2CF
330
2CE
100
AcDbEntity
  8
0
100
AcDbBlockBegin
  2
*D31
 70
1
 10
0.0
 20
0.0
 30
0.0
  3
*D31
  1

  0
LINE
  5
2D1
330
2CE
100
AcDbEntity
  8
0
 62
4
100
AcDbLine
 10
710.0
 20
-421.0
 30
0.0
 11
727.0
 21
-421.0
 31
0.0
  0
LINE
  5
2D2
330
2CE
100
AcDbEntity
  8
0
 62
4
100
AcDbLine
 10
710.0
 20
-419.0
 30
0.0
 11
727.0
 21
-419.0
 31
0.0
  0
INSERT
  5
2D3
330
2CE
100
AcDbEntity
  8
COTA
 62
4
100
AcDbBlockReference
  2
_CLOSEDFILLED
 10
724.0
 20
-421.0
 30
0.0
 41
3.0
 42
3.0
 50
90.0
  0
INSERT
  5
2D5
330
2CE
100
AcDbEntity
  8
COTA
 62
4
100
AcDbBlockReference
  2
_CLOSEDFILLED
 10
724.0
 20
-419.0
 30
0.0
 41
3.0
 42
3.0
 50
270.0
  0
LINE
  5
2D7
330
2CE
100
AcDbEntity
  8
0
 62
4
100
AcDbLine
 10
724.0
 20
-424.0
 30
0.0
 11
724.0
 21
-427.0
 31
0.0
  0
LINE
  5
2D8
330
2CE
100
AcDbEntity
  8
0
 62
4
100
AcDbLine
 10
724.0
 20
-416.0
 30
0.0
 11
724.0
 21
-413.0
 31
0.0
  0
LINE
  5
2D9
330
2CE
100
AcDbEntity
  8
0
 62
4
100
AcDbLine
 10
724.0
 20
-421.0
 30
0.0
 11
724.0
 21
-419.0
 31
0.0
  0
MTEXT
  5
2DA
330
2CE
100
AcDbEntity
  8
COTA
 62
240
100
AcDbMText
 10
713.0
 20
-420.0
 30
0.0
 40
10.0
 71
5
  1
2
 50
90.0
  0
POINT
  5
2DB
330
2CE
100
AcDbEntity
  8
Defpoints
100
AcDbPoint
 10
724.0
 20
-421.0
 30
0.0
  0
POINT
  5
2DC
330
2CE
100
AcDbEntity
  8
Defpoints
100
AcDbPoint
 10
707.0
 20
-421.0
 30
0.0
  0
POINT
  5
2DD
330
2CE
100
AcDbEntity
  8
Defpoints
100
AcDbPoint
 10
707.0
 20
-419.0
 30
0.0
  0
ENDBLK
  5
2D0
330
2CE
100
AcDbEntity
  8
0
100
AcDbBlockEnd
  0
BLOCK
  5
2E0
330
2DF
100
AcDbEntity
  8
0
100
AcDbBlockBegin
  2
*D32
 70
1
 10
0.0
 20
0.0
 30
0.0
  3
*D32
  1

  0
LINE
  5
2E2
330
2DF
100
AcDbEntity
  8
0
 62
4
100
AcDbLine
 10
710.0
 20
-419.0
 30
0.0
 11
750.0
 21
-419.0
 31
0.0
  0
LINE
  5
2E3
330
2DF
100
AcDbEntity
  8
0
 62
4
100
AcDbLine
 10
710.0
 20
-224.0
 30
0.0
 11
750.0
 21
-224.0
 31
0.0
  0
INSERT
  5
2E4
330
2DF
100
AcDbEntity
  8
COTA
 62
4
100
AcDbBlockReference
  2
_CLOSEDFILLED
 10
747.0
 20
-419.0
 30
0.0
 41
3.0
 42
3.0
 50
270.0
  0
INSERT
  5
2E6
330
2DF
100
AcDbEntity
  8
COTA
 62
4
100
AcDbBlockReference
  2
_CLOSEDFILLED
 10
747.0
 20
-224.0
 30
0.0
 41
3.0
 42
3.0
 50
90.0
  0
LINE
  5
2E8
330
2DF
100
AcDbEntity
  8
0
 62
4
100
AcDbLine
 10
747.0
 20
-416.0
 30
0.0
 11
747.0
 21
-227.0
 31
0.0
  0
MTEXT
  5
2E9
330
2DF
100
AcDbEntity
  8
COTA
 62
240
100
AcDbMText
 10
739.0
 20
-321.5
 30
0.0
 40
10.0
 71
5
  1
195
 50
90.0
  0
POINT
  5
2EA
330
2DF
100
AcDbEntity
  8
Defpoints
100
AcDbPoint
 10
747.0
 20
-419.0
 30
0.0
  0
POINT
  5
2EB
330
2DF
100
AcDbEntity
  8
Defpoints
100
AcDbPoint
 10
707.0
 20
-419.0
 30
0.0
  0
POINT
  5
2EC
330
2DF
100
AcDbEntity
  8
Defpoints
100
AcDbPoint
 10
707.0
 20
-224.0
 30
0.0
  0
ENDBLK
  5
2E1
330
2DF
100
AcDbEntity
  8
0
100
AcDbBlockEnd
  0
BLOCK
  5
2EF
330
2EE
100
AcDbEntity
  8
0
100
AcDbBlockBegin
  2
*D33
 70
1
 10
0.0
 20
0.0
 30
0.0
  3
*D33
  1

  0
LINE
  5
2F1
330
2EE
100
AcDbEntity
  8
0
 62
4
100
AcDbLine
 10
710.0
 20
-224.0
 30
0.0
 11
750.0
 21
-224.0
 31
0.0
  0
LINE
  5
2F2
330
2EE
100
AcDbEntity
  8
0
 62
4
100
AcDbLine
 10
710.0
 20
-100.0
 30
0.0
 11
750.0
 21
-100.0
 31
0.0
  0
INSERT
  5
2F3
330
2EE
100
AcDbEntity
  8
COTA
 62
4
100
AcDbBlockReference
  2
_CLOSEDFILLED
 10
747.0
 20
-224.0
 30
0.0
 41
3.0
 42
3.0
 50
270.0
  0
INSERT
  5
2F5
330
2EE
100
AcDbEntity
  8
COTA
 62
4
100
AcDbBlockReference
  2
_CLOSEDFILLED
 10
747.0
 20
-100.0
 30
0.0
 41
3.0
 42
3.0
 50
90.0
  0
LINE
  5
2F7
330
2EE
100
AcDbEntity
  8
0
 62
4
100
AcDbLine
 10
747.0
 20
-221.0
 30
0.0
 11
747.0
 21
-103.0
 31
0.0
  0
MTEXT
  5
2F8
330
2EE
100
AcDbEntity
  8
COTA
 62
240
100
AcDbMText
 10
739.0
 20
-162.0
 30
0.0
 40
10.0
 71
5
  1
124
 50
90.0
  0
POINT
  5
2F9
330
2EE
100
AcDbEntity
  8
Defpoints
100
AcDbPoint
 10
747.0
 20
-224.0
 30
0.0
  0
POINT
  5
2FA
330
2EE
100
AcDbEntity
  8
Defpoints
100
AcDbPoint
 10
707.0
 20
-224.0
 30
0.0
  0
POINT
  5
2FB
330
2EE
100
AcDbEntity
  8
Defpoints
100
AcDbPoint
 10
707.0
 20
-100.0
 30
0.0
  0
ENDBLK
  5
2F0
330
2EE
100
AcDbEntity
  8
0
100
AcDbBlockEnd
  0
BLOCK
  5
2FE
330
2FD
100
AcDbEntity
  8
0
100
AcDbBlockBegin
  2
*D34
 70
1
 10
0.0
 20
0.0
 30
0.0
  3
*D34
  1

  0
LINE
  5
300
330
2FD
100
AcDbEntity
  8
0
 62
4
100
AcDbLine
 10
688.0
 20
-424.0
 30
0.0
 11
688.0
 21
-467.0
 31
0.0
  0
LINE
  5
301
330
2FD
100
AcDbEntity
  8
0
 62
4
100
AcDbLine
 10
707.0
 20
-424.0
 30
0.0
 11
707.0
 21
-467.0
 31
0.0
  0
INSERT
  5
302
330
2FD
100
AcDbEntity
  8
COTA
 62
4
100
AcDbBlockReference
  2
_CLOSEDFILLED
 10
688.0
 20
-464.0
 30
0.0
 41
3.0
 42
3.0
 50
180.0
  0
INSERT
  5
304
330
2FD
100
AcDbEntity
  8
COTA
 62
4
100
AcDbBlockReference
  2
_CLOSEDFILLED
 10
707.0
 20
-464.0
 30
0.0
 41
3.0
 42
3.0
  0
LINE
  5
306
330
2FD
100
AcDbEntity
  8
0
 62
4
100
AcDbLine
 10
691.0
 20
-464.0
 30
0.0
 11
704.0
 21
-464.0
 31
0.0
  0
MTEXT
  5
307
330
2FD
100
AcDbEntity
  8
COTA
 62
240
100
AcDbMText
 10
697.5
 20
-453.0
 30
0.0
 40
10.0
 71
5
  1
19
  0
POINT
  5
308
330
2FD
100
AcDbEntity
  8
Defpoints
100
AcDbPoint
 10
688.0
 20
-464.0
 30
0.0
  0
POINT
  5
309
330
2FD
100
AcDbEntity
  8
Defpoints
100
AcDbPoint
 10
688.0
 20
-421.0
 30
0.0
  0
POINT
  5
30A
330
2FD
100
AcDbEntity
  8
Defpoints
100
AcDbPoint
 10
707.0
 20
-421.0
 30
0.0
  0
ENDBLK
  5
2FF
330
2FD
100
AcDbEntity
  8
0
100
AcDbBlockEnd
  0
ENDSEC
  0
SECTION
  2
ENTITIES
  0
LWPOLYLINE
  5
9F
330
17
100
AcDbEntity
  8
Nível
  6
DASHED
100
AcDbPolyline
 90
2
 70
0
 10
0.0
 20
-100.0
 10
1000.0
 20
-100.0
  0
LWPOLYLINE
  5
A0
330
17
100
AcDbEntity
  8
Nível
  6
DASHED
100
AcDbPolyline
 90
2
 70
0
 10
0.0
 20
-421.0
 10
1000.0
 20
-421.0
  0
DIMENSION
  5
A1
330
17
100
AcDbEntity
  8
COTA
100
AcDbDimension
280
0
  2
*D1
  3
PAINEL
 10
30.0
 20
-421.0
 30
0.0
 11
22.0
 21
-260.5
 31
0.0
 70
32
 71
5
  1
<>
100
AcDbAlignedDimension
 13
50.0
 23
-421.0
 33
0.0
 14
50.0
 24
-100.0
 34
0.0
 50
90.0
100
AcDbRotatedDimension
  0
INSERT
  5
B4
330
17
100
AcDbEntity
  8
COTA
100
AcDbBlockReference
  2
MULDURA
 10
0.0
 20
-383.0
 30
0.0
  0
TEXT
  5
B6
330
17
100
AcDbEntity
  8
NOMENCLATURA
100
AcDbText
 10
31.0
 20
280.0
 30
0.0
 40
15.0
  1
CENARIOS - PD: 3.21
100
AcDbText
  0
TEXT
  5
B7
330
17
100
AcDbEntity
  8
NOMENCLATURA
100
AcDbText
 10
31.0
 20
255.0
 30
0.0
 40
15.0
  1
NIVEL DE SAIDA: 302.00
100
AcDbText
  0
TEXT
  5
B8
330
17
100
AcDbEntity
  8
NOMENCLATURA
100
AcDbText
 10
31.0
 20
230.0
 30
0.0
 40
15.0
  1
NIVEL DE CHEGADA: 299.20
100
AcDbText
  0
LINE
  5
B9
330
17
100
AcDbEntity
  8
Painéis
100
AcDbLine
 10
80.0
 20
-419.0
 30
0.0
 11
168.0
 21
-419.0
 31
0.0
  0
LINE
  5
BA
330
17
100
AcDbEntity
  8
Painéis
100
AcDbLine
 10
80.0
 20
-297.0
 30
0.0
 11
168.0
 21
-297.0
 31
0.0
  0
LINE
  5
BB
330
17
100
AcDbEntity
  8
Painéis
100
AcDbLine
 10
80.0
 20
-175.0
 30
0.0
 11
157.0
 21
-175.0
 31
0.0
  0
LINE
  5
BC
330
17
100
AcDbEntity
  8
Painéis
100
AcDbLine
 10
80.0
 20
-100.0
 30
0.0
 11
157.0
 21
-100.0
 31
0.0
  0
LINE
  5
BD
330
17
100
AcDbEntity
  8
Painéis
100
AcDbLine
 10
157.0
 20
-224.0
 30
0.0
 11
157.0
 21
-100.0
 31
0.0
  0
LINE
  5
BE
330
17
100
AcDbEntity
  8
Painéis
100
AcDbLine
 10
80.0
 20
-421.0
 30
0.0
 11
80.0
 21
-100.0
 31
0.0
  0
LINE
  5
BF
330
17
100
AcDbEntity
  8
Painéis
100
AcDbLine
 10
168.0
 20
-421.0
 30
0.0
 11
168.0
 21
-224.0
 31
0.0
  0
LINE
  5
C0
330
17
100
AcDbEntity
  8
COTA
100
AcDbLine
 10
157.0
 20
-100.0
 30
0.0
 11
168.0
 21
-100.0
 31
0.0
  0
DIMENSION
  5
C1
330
17
100
AcDbEntity
  8
COTA
 62
4
100
AcDbDimension
280
0
  2
*D2
  3
PAINEL
 10
185.0
 20
-421.0
 30
0.0
 11
174.0
 21
-420.0
 31
0.0
 70
32
 71
5
  1
<>
100
AcDbAlignedDimension
 13
168.0
 23
-421.0
 33
0.0
 14
168.0
 24
-419.0
 34
0.0
 50
90.0
100
AcDbRotatedDimension
  0
DIMENSION
  5
D2
330
17
100
AcDbEntity
  8
COTA
 62
4
100
AcDbDimension
280
0
  2
*D3
  3
PAINEL
 10
208.0
 20
-419.0
 30
0.0
 11
200.0
 21
-358.0
 31
0.0
 70
32
 71
5
  1
<>
100
AcDbAlignedDimension
 13
168.0
 23
-419.0
 33
0.0
 14
168.0
 24
-297.0
 34
0.0
 50
90.0
100
AcDbRotatedDimension
  0
DIMENSION
  5
E1
330
17
100
AcDbEntity
  8
COTA
 62
4
100
AcDbDimension
280
0
  2
*D4
  3
PAINEL
 10
208.0
 20
-297.0
 30
0.0
 11
200.0
 21
-236.0
 31
0.0
 70
32
 71
5
  1
<>
100
AcDbAlignedDimension
 13
168.0
 23
-297.0
 33
0.0
 14
168.0
 24
-175.0
 34
0.0
 50
90.0
100
AcDbRotatedDimension
  0
DIMENSION
  5
F0
330
17
100
AcDbEntity
  8
COTA
 62
4
100
AcDbDimension
280
0
  2
*D5
  3
PAINEL
 10
208.0
 20
-175.0
 30
0.0
 11
200.0
 21
-137.5
 31
0.0
 70
32
 71
5
  1
<>
100
AcDbAlignedDimension
 13
168.0
 23
-175.0
 33
0.0
 14
168.0
 24
-100.0
 34
0.0
 50
90.0
100
AcDbRotatedDimension
  0
DIMENSION
  5
FF
330
17
100
AcDbEntity
  8
COTA
 62
4
100
AcDbDimension
280
0
  2
*D6
  3
PAINEL
 10
185.0
 20
-224.0
 30
0.0
 11
177.0
 21
-199.5
 31
0.0
 70
32
 71
5
  1
<>
100
AcDbAlignedDimension
 13
168.0
 23
-224.0
 33
0.0
 14
168.0
 24
-175.0
 34
0.0
 50
90.0
100
AcDbRotatedDimension
  0
DIMENSION
  5
10E
330
17
100
AcDbEntity
  8
COTA
 62
4
100
AcDbDimension
280
0
  2
*D7
  3
PAINEL
 10
80.0
 20
-440.0
 30
0.0
 11
83.5
 21
-429.0
 31
0.0
 70
32
 71
5
  1
<>
100
AcDbAlignedDimension
 13
80.0
 23
-421.0
 33
0.0
 14
87.0
 24
-421.0
 34
0.0
 50
0.0
100
AcDbRotatedDimension
  0
DIMENSION
  5
11F
330
17
100
AcDbEntity
  8
COTA
 62
4
100
AcDbDimension
280
0
  2
*D8
  3
PAINEL
 10
161.0
 20
-440.0
 30
0.0
 11
164.5
 21
-429.0
 31
0.0
 70
32
 71
5
  1
<>
100
AcDbAlignedDimension
 13
161.0
 23
-421.0
 33
0.0
 14
168.0
 24
-421.0
 34
0.0
 50
0.0
100
AcDbRotatedDimension
  0
DIMENSION
  5
130
330
17
100
AcDbEntity
  8
COTA
 62
4
100
AcDbDimension
280
0
  2
*D9
  3
PAINEL
 10
80.0
 20
-464.0
 30
0.0
 11
124.0
 21
-456.0
 31
0.0
 70
32
 71
5
  1
<>
100
AcDbAlignedDimension
 13
80.0
 23
-421.0
 33
0.0
 14
168.0
 24
-421.0
 34
0.0
 50
0.0
100
AcDbRotatedDimension
  0
TEXT
  5
13F
330
17
100
AcDbEntity
  8
NOMENCLATURA
100
AcDbText
 10
65.0
 20
-416.0
 30
0.0
 40
12.0
  1
P1.A
 50
90.0
100
AcDbText
  0
DIMENSION
  5
140
330
17
100
AcDbEntity
  8
COTA
 62
4
100
AcDbDimension
280
0
  2
*D10
  3
PAINEL
 10
80.0
 20
-81.0
 30
0.0
 11
118.5
 21
-73.0
 31
0.0
 70
32
 71
5
  1
<>
100
AcDbAlignedDimension
 13
80.0
 23
-100.0
 33
0.0
 14
157.0
 24
-100.0
 34
0.0
 50
0.0
100
AcDbRotatedDimension
  0
DIMENSION
  5
14F
330
17
100
AcDbEntity
  8
COTA
 62
4
100
AcDbDimension
280
0
  2
*D11
  3
PAINEL
 10
157.0
 20
-81.0
 30
0.0
 11
162.5
 21
-70.0
 31
0.0
 70
32
 71
5
  1
<>
100
AcDbAlignedDimension
 13
157.0
 23
-100.0
 33
0.0
 14
168.0
 24
-100.0
 34
0.0
 50
0.0
100
AcDbRotatedDimension
  0
LWPOLYLINE
  5
15E
330
17
100
AcDbEntity
  8
Sarrafo de Pressão
  6
HIDDEN
100
AcDbPolyline
 90
2
 70
0
 10
87.0
 20
-419.0
 10
87.0
 20
-297.0
  0
LWPOLYLINE
  5
15F
330
17
100
AcDbEntity
  8
Sarrafo de Pressão
  6
HIDDEN
100
AcDbPolyline
 90
2
 70
0
 10
87.0
 20
-297.0
 10
87.0
 20
-175.0
  0
LWPOLYLINE
  5
160
330
17
100
AcDbEntity
  8
Sarrafo de Pressão
  6
HIDDEN
100
AcDbPolyline
 90
2
 70
0
 10
87.0
 20
-175.0
 10
87.0
 20
-100.0
  0
LWPOLYLINE
  5
161
330
17
100
AcDbEntity
  8
Sarrafo de Pressão
  6
HIDDEN
100
AcDbPolyline
 90
2
 70
0
 10
161.0
 20
-419.0
 10
161.0
 20
-297.0
  0
LWPOLYLINE
  5
162
330
17
100
AcDbEntity
  8
Sarrafo de Pressão
  6
HIDDEN
100
AcDbPolyline
 90
2
 70
0
 10
161.0
 20
-297.0
 10
161.0
 20
-224.0
  0
LWPOLYLINE
  5
163
330
17
100
AcDbEntity
  8
SARR_2.2x7
100
AcDbPolyline
 90
4
 70
0
 10
157.0
 20
-224.0
 10
150.0
 20
-224.0
 10
150.0
 20
-231.0
 10
161.0
 20
-231.0
  0
LWPOLYLINE
  5
164
330
17
100
AcDbEntity
  8
SARR_2.2x7
100
AcDbPolyline
 90
2
 70
0
 10
150.0
 20
-224.0
 10
150.0
 20
-175.0
  0
LWPOLYLINE
  5
165
330
17
100
AcDbEntity
  8
SARR_2.2x7
100
AcDbPolyline
 90
2
 70
0
 10
150.0
 20
-175.0
 10
150.0
 20
-100.0
  0
LINE
  5
166
330
17
100
AcDbEntity
  8
COTA
100
AcDbLine
 10
168.0
 20
-224.0
 30
0.0
 11
168.0
 21
-100.0
 31
0.0
  0
LINE
  5
167
330
17
100
AcDbEntity
  8
COTA
100
AcDbLine
 10
157.0
 20
-224.0
 30
0.0
 11
168.0
 21
-224.0
 31
0.0
  0
LWPOLYLINE
  5
168
330
17
100
AcDbEntity
  8
COTA
 62
4
100
AcDbPolyline
 90
4
 70
0
 10
78.0
 20
-443.0
 10
62.0
 20
-455.0
 10
63.0
 20
-468.0
 10
58.0
 20
-478.0
  0
MTEXT
  5
169
330
17
100
AcDbEntity
  8
texto
 62
4
100
AcDbMText
 10
55.0
 20
-482.0
 30
0.0
 40
7.5
 71
1
  1
SP
  0
LWPOLYLINE
  5
16A
330
17
100
AcDbEntity
  8
COTA
 62
4
100
AcDbPolyline
 90
4
 70
0
 10
174.0
 20
-443.0
 10
190.0
 20
-455.0
 10
189.0
 20
-468.0
 10
194.0
 20
-478.0
  0
MTEXT
  5
16B
330
17
100
AcDbEntity
  8
texto
 62
4
100
AcDbMText
 10
200.0
 20
-482.0
 30
0.0
 40
7.5
 71
1
  1
SP
  0
HATCH
  5
16C
330
17
100
AcDbEntity
  8
COTA
100
AcDbHatch
 10
0.0
 20
0.0
 30
0.0
210
0.0
220
0.0
230
1.0
  2
AR-CONC
 70
0
 71
0
 91
1
 92
3
 72
0
 73
1
 93
4
 10
168.0
 20
-224.0
 10
168.0
 20
-100.0
 10
157.0
 20
-100.0
 10
157.0
 20
-224.0
 97
0
 75
1
 76
1
 52
0.0
 41
0.05
 77
0
 78
13
 53
50.0
 43
0.0
 44
0.0
 45
9.1092334498
 46
-0.7969542769
 79
2
 49
0.9525
 49
-10.4775
 53
355.0
 43
0.0
 44
0.0
 45
-1.7621710713
 46
9.552842262
 79
2
 49
0.762
 49
-8.3820292085
 53
100.4514447
 43
0.75910035
 44
-0.066412675
 45
7.3470623545
 46
8.7558875956
 79
2
 49
0.80950044
 49
-8.90451223
 53
46.1842
 43
0.0
 44
2.54
 45
13.5539520446
 46
-2.1021163966
 79
2
 49
1.42875
 49
-15.71625
 53
96.63555761
 43
1.129495
 44
2.364825
 45
11.8702067026
 46
12.3713062299
 79
2
 49
1.214251157
 49
-13.356780408
 53
351.18415117
 43
0.0
 44
2.54
 45
11.8702067033
 46
12.3713062293
 79
2
 49
1.1429983535
 49
-12.572986596
 53
21.0
 43
1.27
 44
1.905
 45
7.5807195635
 46
-5.1132599094
 79
2
 49
0.9525
 49
-10.4775
 53
326.0
 43
1.27
 44
1.905
 45
3.0901014174
 46
9.2093983061
 79
2
 49
0.762
 49
-8.382
 53
71.451445
 43
1.90172663
 44
1.478895005
 45
10.6708209639
 46
4.0961384443
 79
2
 49
0.80950044
 49
-8.90449688
 53
37.5
 43
0.0
 44
0.0
 45
0.1544301625
 46
4.2277519437
 79
6
 49
0.0
 49
-8.2804
 49
0.0
 49
-8.509
 49
0.0
 49
-8.41375
 53
7.5
 43
0.0
 44
0.0
 45
3.3409831255
 46
5.0090287409
 79
6
 49
0.0
 49
-4.8514
 49
0.0
 49
-8.0899
 49
0.0
 49
-3.20675
 53
-32.5
 43
-2.8321
 44
0.0
 45
6.7795297583
 46
-0.2864371996
 79
6
 49
0.0
 49
-3.175
 49
0.0
 49
-9.906
 49
0.0
 49
-13.1445
 53
-42.5
 43
-4.1021
 44
0.0
 45
7.4064590693
 46
1.2713245517
 79
6
 49
0.0
 49
-4.1275
 49
0.0
 49
-6.5786
 49
0.0
 49
-9.3345
 98
0
  0
LWPOLYLINE
  5
16D
330
17
100
AcDbEntity
  8
COTA
100
AcDbPolyline
 90
4
 70
1
 10
168.0
 20
-224.0
 10
168.0
 20
-100.0
 10
157.0
 20
-100.0
 10
157.0
 20
-224.0
  0
LINE
  5
16E
330
17
100
AcDbEntity
  8
Painéis
100
AcDbLine
 10
323.0
 20
-419.0
 30
0.0
 11
411.0
 21
-419.0
 31
0.0
  0
LINE
  5
16F
330
17
100
AcDbEntity
  8
Painéis
100
AcDbLine
 10
323.0
 20
-297.0
 30
0.0
 11
411.0
 21
-297.0
 31
0.0
  0
LINE
  5
170
330
17
100
AcDbEntity
  8
Painéis
100
AcDbLine
 10
334.0
 20
-175.0
 30
0.0
 11
411.0
 21
-175.0
 31
0.0
  0
LINE
  5
171
330
17
100
AcDbEntity
  8
Painéis
100
AcDbLine
 10
334.0
 20
-100.0
 30
0.0
 11
377.0
 21
-100.0
 31
0.0
  0
LINE
  5
172
330
17
100
AcDbEntity
  8
Painéis
100
AcDbLine
 10
323.0
 20
-224.0
 30
0.0
 11
334.0
 21
-224.0
 31
0.0
  0
LINE
  5
173
330
17
100
AcDbEntity
  8
Painéis
100
AcDbLine
 10
377.0
 20
-170.0
 30
0.0
 11
411.0
 21
-170.0
 31
0.0
  0
LINE
  5
174
330
17
100
AcDbEntity
  8
Painéis
100
AcDbLine
 10
334.0
 20
-224.0
 30
0.0
 11
334.0
 21
-121.0
 31
0.0
  0
LINE
  5
175
330
17
100
AcDbEntity
  8
Painéis
100
AcDbLine
 10
377.0
 20
-170.0
 30
0.0
 11
377.0
 21
-121.0
 31
0.0
  0
LINE
  5
176
330
17
100
AcDbEntity
  8
Painéis
100
AcDbLine
 10
323.0
 20
-421.0
 30
0.0
 11
323.0
 21
-224.0
 31
0.0
  0
LINE
  5
177
330
17
100
AcDbEntity
  8
Painéis
100
AcDbLine
 10
411.0
 20
-421.0
 30
0.0
 11
411.0
 21
-170.0
 31
0.0
  0
LINE
  5
178
330
17
100
AcDbEntity
  8
COTA
100
AcDbLine
 10
323.0
 20
-100.0
 30
0.0
 11
334.0
 21
-100.0
 31
0.0
  0
LINE
  5
179
330
17
100
AcDbEntity
  8
COTA
100
AcDbLine
 10
377.0
 20
-100.0
 30
0.0
 11
411.0
 21
-100.0
 31
0.0
  0
DIMENSION
  5
17A
330
17
100
AcDbEntity
  8
COTA
 62
4
100
AcDbDimension
280
0
  2
*D12
  3
PAINEL
 10
428.0
 20
-421.0
 30
0.0
 11
417.0
 21
-420.0
 31
0.0
 70
32
 71
5
  1
<>
100
AcDbAlignedDimension
 13
411.0
 23
-421.0
 33
0.0
 14
411.0
 24
-419.0
 34
0.0
 50
90.0
100
AcDbRotatedDimension
  0
DIMENSION
  5
18B
330
17
100
AcDbEntity
  8
COTA
 62
4
100
AcDbDimension
280
0
  2
*D13
  3
PAINEL
 10
451.0
 20
-419.0
 30
0.0
 11
443.0
 21
-358.0
 31
0.0
 70
32
 71
5
  1
<>
100
AcDbAlignedDimension
 13
411.0
 23
-419.0
 33
0.0
 14
411.0
 24
-297.0
 34
0.0
 50
90.0
100
AcDbRotatedDimension
  0
DIMENSION
  5
19A
330
17
100
AcDbEntity
  8
COTA
 62
4
100
AcDbDimension
280
0
  2
*D14
  3
PAINEL
 10
451.0
 20
-297.0
 30
0.0
 11
443.0
 21
-236.0
 31
0.0
 70
32
 71
5
  1
<>
100
AcDbAlignedDimension
 13
411.0
 23
-297.0
 33
0.0
 14
411.0
 24
-175.0
 34
0.0
 50
90.0
100
AcDbRotatedDimension
  0
DIMENSION
  5
1A9
330
17
100
AcDbEntity
  8
COTA
 62
4
100
AcDbDimension
280
0
  2
*D15
  3
PAINEL
 10
451.0
 20
-175.0
 30
0.0
 11
443.0
 21
-148.0
 31
0.0
 70
32
 71
5
  1
<>
100
AcDbAlignedDimension
 13
411.0
 23
-175.0
 33
0.0
 14
411.0
 24
-121.0
 34
0.0
 50
90.0
100
AcDbRotatedDimension
  0
DIMENSION
  5
1B8
330
17
100
AcDbEntity
  8
COTA
 62
4
100
AcDbDimension
280
0
  2
*D16
  3
PAINEL
 10
451.0
 20
-121.0
 30
0.0
 11
440.0
 21
-114.0
 31
0.0
 70
32
 71
5
  1
<>
100
AcDbAlignedDimension
 13
411.0
 23
-121.0
 33
0.0
 14
411.0
 24
-107.0
 34
0.0
 50
90.0
100
AcDbRotatedDimension
  0
DIMENSION
  5
1C7
330
17
100
AcDbEntity
  8
COTA
 62
4
100
AcDbDimension
280
0
  2
*D17
  3
PAINEL
 10
451.0
 20
-107.0
 30
0.0
 11
440.0
 21
-103.5
 31
0.0
 70
32
 71
5
  1
<>
100
AcDbAlignedDimension
 13
411.0
 23
-107.0
 33
0.0
 14
411.0
 24
-100.0
 34
0.0
 50
90.0
100
AcDbRotatedDimension
  0
DIMENSION
  5
1D8
330
17
100
AcDbEntity
  8
COTA
 62
4
100
AcDbDimension
280
0
  2
*D18
  3
PAINEL
 10
306.0
 20
-224.0
 30
0.0
 11
298.0
 21
-199.5
 31
0.0
 70
32
 71
5
  1
<>
100
AcDbAlignedDimension
 13
323.0
 23
-224.0
 33
0.0
 14
323.0
 24
-175.0
 34
0.0
 50
90.0
100
AcDbRotatedDimension
  0
DIMENSION
  5
1E7
330
17
100
AcDbEntity
  8
COTA
 62
4
100
AcDbDimension
280
0
  2
*D19
  3
PAINEL
 10
283.0
 20
-224.0
 30
0.0
 11
275.0
 21
-162.0
 31
0.0
 70
32
 71
5
  1
<>
100
AcDbAlignedDimension
 13
323.0
 23
-224.0
 33
0.0
 14
323.0
 24
-100.0
 34
0.0
 50
90.0
100
AcDbRotatedDimension
  0
DIMENSION
  5
1F6
330
17
100
AcDbEntity
  8
COTA
 62
4
100
AcDbDimension
280
0
  2
*D20
  3
PAINEL
 10
428.0
 20
-170.0
 30
0.0
 11
420.0
 21
-145.5
 31
0.0
 70
32
 71
5
  1
<>
100
AcDbAlignedDimension
 13
411.0
 23
-170.0
 33
0.0
 14
411.0
 24
-121.0
 34
0.0
 50
90.0
100
AcDbRotatedDimension
  0
DIMENSION
  5
205
330
17
100
AcDbEntity
  8
COTA
 62
4
100
AcDbDimension
280
0
  2
*D21
  3
PAINEL
 10
323.0
 20
-440.0
 30
0.0
 11
326.5
 21
-429.0
 31
0.0
 70
32
 71
5
  1
<>
100
AcDbAlignedDimension
 13
323.0
 23
-421.0
 33
0.0
 14
330.0
 24
-421.0
 34
0.0
 50
0.0
100
AcDbRotatedDimension
  0
DIMENSION
  5
216
330
17
100
AcDbEntity
  8
COTA
 62
4
100
AcDbDimension
280
0
  2
*D22
  3
PAINEL
 10
404.0
 20
-440.0
 30
0.0
 11
407.5
 21
-429.0
 31
0.0
 70
32
 71
5
  1
<>
100
AcDbAlignedDimension
 13
404.0
 23
-421.0
 33
0.0
 14
411.0
 24
-421.0
 34
0.0
 50
0.0
100
AcDbRotatedDimension
  0
DIMENSION
  5
227
330
17
100
AcDbEntity
  8
COTA
 62
4
100
AcDbDimension
280
0
  2
*D23
  3
PAINEL
 10
323.0
 20
-464.0
 30
0.0
 11
367.0
 21
-456.0
 31
0.0
 70
32
 71
5
  1
<>
100
AcDbAlignedDimension
 13
323.0
 23
-421.0
 33
0.0
 14
411.0
 24
-421.0
 34
0.0
 50
0.0
100
AcDbRotatedDimension
  0
TEXT
  5
236
330
17
100
AcDbEntity
  8
NOMENCLATURA
100
AcDbText
 10
308.0
 20
-416.0
 30
0.0
 40
12.0
  1
P1.B
 50
90.0
100
AcDbText
  0
DIMENSION
  5
237
330
17
100
AcDbEntity
  8
COTA
 62
4
100
AcDbDimension
280
0
  2
*D24
  3
PAINEL
 10
323.0
 20
-81.0
 30
0.0
 11
328.5
 21
-70.0
 31
0.0
 70
32
 71
5
  1
<>
100
AcDbAlignedDimension
 13
323.0
 23
-100.0
 33
0.0
 14
334.0
 24
-100.0
 34
0.0
 50
0.0
100
AcDbRotatedDimension
  0
DIMENSION
  5
246
330
17
100
AcDbEntity
  8
COTA
 62
4
100
AcDbDimension
280
0
  2
*D25
  3
PAINEL
 10
334.0
 20
-81.0
 30
0.0
 11
355.5
 21
-73.0
 31
0.0
 70
32
 71
5
  1
<>
100
AcDbAlignedDimension
 13
334.0
 23
-100.0
 33
0.0
 14
377.0
 24
-100.0
 34
0.0
 50
0.0
100
AcDbRotatedDimension
  0
DIMENSION
  5
255
330
17
100
AcDbEntity
  8
COTA
 62
4
100
AcDbDimension
280
0
  2
*D26
  3
PAINEL
 10
377.0
 20
-81.0
 30
0.0
 11
394.0
 21
-73.0
 31
0.0
 70
32
 71
5
  1
<>
100
AcDbAlignedDimension
 13
377.0
 23
-100.0
 33
0.0
 14
411.0
 24
-100.0
 34
0.0
 50
0.0
100
AcDbRotatedDimension
  0
LWPOLYLINE
  5
264
330
17
100
AcDbEntity
  8
Sarrafo de Pressão
  6
HIDDEN
100
AcDbPolyline
 90
2
 70
0
 10
330.0
 20
-419.0
 10
330.0
 20
-297.0
  0
LWPOLYLINE
  5
265
330
17
100
AcDbEntity
  8
Sarrafo de Pressão
  6
HIDDEN
100
AcDbPolyline
 90
2
 70
0
 10
330.0
 20
-297.0
 10
330.0
 20
-224.0
  0
LWPOLYLINE
  5
266
330
17
100
AcDbEntity
  8
Sarrafo de Pressão
  6
HIDDEN
100
AcDbPolyline
 90
2
 70
0
 10
404.0
 20
-419.0
 10
404.0
 20
-297.0
  0
LWPOLYLINE
  5
267
330
17
100
AcDbEntity
  8
Sarrafo de Pressão
  6
HIDDEN
100
AcDbPolyline
 90
2
 70
0
 10
404.0
 20
-297.0
 10
404.0
 20
-175.0
  0
LWPOLYLINE
  5
268
330
17
100
AcDbEntity
  8
Sarrafo de Pressão
  6
HIDDEN
100
AcDbPolyline
 90
2
 70
0
 10
404.0
 20
-175.0
 10
404.0
 20
-170.0
  0
LWPOLYLINE
  5
269
330
17
100
AcDbEntity
  8
SARR_2.2x7
100
AcDbPolyline
 90
2
 70
0
 10
341.0
 20
-224.0
 10
341.0
 20
-175.0
  0
LWPOLYLINE
  5
26A
330
17
100
AcDbEntity
  8
SARR_2.2x7
100
AcDbPolyline
 90
2
 70
0
 10
341.0
 20
-175.0
 10
341.0
 20
-121.0
  0
LWPOLYLINE
  5
26B
330
17
100
AcDbEntity
  8
SARR_2.2x7
100
AcDbPolyline
 90
2
 70
0
 10
370.0
 20
-170.0
 10
370.0
 20
-121.0
  0
LWPOLYLINE
  5
26C
330
17
100
AcDbEntity
  8
SARR_2.2x7
100
AcDbPolyline
 90
4
 70
0
 10
334.0
 20
-224.0
 10
341.0
 20
-224.0
 10
341.0
 20
-231.0
 10
330.0
 20
-231.0
  0
LWPOLYLINE
  5
26D
330
17
100
AcDbEntity
  8
SARR_2.2x7
100
AcDbPolyline
 90
4
 70
0
 10
377.0
 20
-170.0
 10
370.0
 20
-170.0
 10
370.0
 20
-177.0
 10
404.0
 20
-177.0
  0
LINE
  5
26E
330
17
100
AcDbEntity
  8
SARR_2.2x7
100
AcDbLine
 10
334.0
 20
-107.0
 30
0.0
 11
377.0
 21
-107.0
 31
0.0
  0
LINE
  5
26F
330
17
100
AcDbEntity
  8
Painéis
100
AcDbLine
 10
334.0
 20
-121.0
 30
0.0
 11
377.0
 21
-121.0
 31
0.0
  0
LWPOLYLINE
  5
270
330
17
100
AcDbEntity
  8
Painéis
100
AcDbPolyline
 90
4
 70
1
 10
334.0
 20
-107.0
 10
334.0
 20
-100.0
 10
377.0
 20
-100.0
 10
377.0
 20
-107.0
  0
LINE
  5
271
330
17
100
AcDbEntity
  8
COTA
100
AcDbLine
 10
334.0
 20
-107.0
 30
0.0
 11
334.0
 21
-100.0
 31
0.0
  0
LINE
  5
272
330
17
100
AcDbEntity
  8
COTA
100
AcDbLine
 10
377.0
 20
-107.0
 30
0.0
 11
377.0
 21
-100.0
 31
0.0
  0
LINE
  5
273
330
17
100
AcDbEntity
  8
SARR_2.2x7
100
AcDbLine
 10
334.0
 20
-107.0
 30
0.0
 11
377.0
 21
-107.0
 31
0.0
  0
LINE
  5
274
330
17
100
AcDbEntity
  8
COTA
100
AcDbLine
 10
323.0
 20
-224.0
 30
0.0
 11
323.0
 21
-100.0
 31
0.0
  0
LINE
  5
275
330
17
100
AcDbEntity
  8
COTA
100
AcDbLine
 10
411.0
 20
-170.0
 30
0.0
 11
411.0
 21
-100.0
 31
0.0
  0
LWPOLYLINE
  5
276
330
17
100
AcDbEntity
  8
COTA
 62
4
100
AcDbPolyline
 90
4
 70
0
 10
321.0
 20
-443.0
 10
305.0
 20
-455.0
 10
306.0
 20
-468.0
 10
301.0
 20
-478.0
  0
MTEXT
  5
277
330
17
100
AcDbEntity
  8
texto
 62
4
100
AcDbMText
 10
298.0
 20
-482.0
 30
0.0
 40
7.5
 71
1
  1
SP
  0
LWPOLYLINE
  5
278
330
17
100
AcDbEntity
  8
COTA
 62
4
100
AcDbPolyline
 90
4
 70
0
 10
417.0
 20
-443.0
 10
433.0
 20
-455.0
 10
432.0
 20
-468.0
 10
437.0
 20
-478.0
  0
MTEXT
  5
279
330
17
100
AcDbEntity
  8
texto
 62
4
100
AcDbMText
 10
443.0
 20
-482.0
 30
0.0
 40
7.5
 71
1
  1
SP
  0
HATCH
  5
27A
330
17
100
AcDbEntity
  8
COTA
100
AcDbHatch
 10
0.0
 20
0.0
 30
0.0
210
0.0
220
0.0
230
1.0
  2
AR-CONC
 70
0
 71
0
 91
1
 92
3
 72
0
 73
1
 93
16
 10
323.0
 20
-121.0
 10
323.0
 20
-107.0
 10
323.0
 20
-100.0
 10
334.0
 20
-100.0
 10
334.0
 20
-107.0
 10
377.0
 20
-107.0
 10
377.0
 20
-100.0
 10
411.0
 20
-100.0
 10
411.0
 20
-107.0
 10
411.0
 20
-121.0
 10
411.0
 20
-170.0
 10
377.0
 20
-170.0
 10
377.0
 20
-121.0
 10
334.0
 20
-121.0
 10
334.0
 20
-224.0
 10
323.0
 20
-224.0
 97
0
 75
1
 76
1
 52
0.0
 41
0.05
 77
0
 78
13
 53
50.0
 43
0.0
 44
0.0
 45
9.1092334498
 46
-0.7969542769
 79
2
 49
0.9525
 49
-10.4775
 53
355.0
 43
0.0
 44
0.0
 45
-1.7621710713
 46
9.552842262
 79
2
 49
0.762
 49
-8.3820292085
 53
100.4514447
 43
0.75910035
 44
-0.066412675
 45
7.3470623545
 46
8.7558875956
 79
2
 49
0.80950044
 49
-8.90451223
 53
46.1842
 43
0.0
 44
2.54
 45
13.5539520446
 46
-2.1021163966
 79
2
 49
1.42875
 49
-15.71625
 53
96.63555761
 43
1.129495
 44
2.364825
 45
11.8702067026
 46
12.3713062299
 79
2
 49
1.214251157
 49
-13.356780408
 53
351.18415117
 43
0.0
 44
2.54
 45
11.8702067033
 46
12.3713062293
 79
2
 49
1.1429983535
 49
-12.572986596
 53
21.0
 43
1.27
 44
1.905
 45
7.5807195635
 46
-5.1132599094
 79
2
 49
0.9525
 49
-10.4775
 53
326.0
 43
1.27
 44
1.905
 45
3.0901014174
 46
9.2093983061
 79
2
 49
0.762
 49
-8.382
 53
71.451445
 43
1.90172663
 44
1.478895005
 45
10.6708209639
 46
4.0961384443
 79
2
 49
0.80950044
 49
-8.90449688
 53
37.5
 43
0.0
 44
0.0
 45
0.1544301625
 46
4.2277519437
 79
6
 49
0.0
 49
-8.2804
 49
0.0
 49
-8.509
 49
0.0
 49
-8.41375
 53
7.5
 43
0.0
 44
0.0
 45
3.3409831255
 46
5.0090287409
 79
6
 49
0.0
 49
-4.8514
 49
0.0
 49
-8.0899
 49
0.0
 49
-3.20675
 53
-32.5
 43
-2.8321
 44
0.0
 45
6.7795297583
 46
-0.2864371996
 79
6
 49
0.0
 49
-3.175
 49
0.0
 49
-9.906
 49
0.0
 49
-13.1445
 53
-42.5
 43
-4.1021
 44
0.0
 45
7.4064590693
 46
1.2713245517
 79
6
 49
0.0
 49
-4.1275
 49
0.0
 49
-6.5786
 49
0.0
 49
-9.3345
 98
0
  0
LWPOLYLINE
  5
27B
330
17
100
AcDbEntity
  8
COTA
100
AcDbPolyline
 90
16
 70
1
 10
323.0
 20
-121.0
 10
323.0
 20
-107.0
 10
323.0
 20
-100.0
 10
334.0
 20
-100.0
 10
334.0
 20
-107.0
 10
377.0
 20
-107.0
 10
377.0
 20
-100.0
 10
411.0
 20
-100.0
 10
411.0
 20
-107.0
 10
411.0
 20
-121.0
 10
411.0
 20
-170.0
 10
377.0
 20
-170.0
 10
377.0
 20
-121.0
 10
334.0
 20
-121.0
 10
334.0
 20
-224.0
 10
323.0
 20
-224.0
  0
LINE
  5
27C
330
17
100
AcDbEntity
  8
Painéis
100
AcDbLine
 10
540.0
 20
-419.0
 30
0.0
 11
559.0
 21
-419.0
 31
0.0
  0
LINE
  5
27D
330
17
100
AcDbEntity
  8
Painéis
100
AcDbLine
 10
540.0
 20
-170.0
 30
0.0
 11
559.0
 21
-170.0
 31
0.0
  0
LINE
  5
27E
330
17
100
AcDbEntity
  8
Painéis
100
AcDbLine
 10
540.0
 20
-421.0
 30
0.0
 11
540.0
 21
-170.0
 31
0.0
  0
LINE
  5
27F
330
17
100
AcDbEntity
  8
Painéis
100
AcDbLine
 10
559.0
 20
-421.0
 30
0.0
 11
559.0
 21
-170.0
 31
0.0
  0
LINE
  5
280
330
17
100
AcDbEntity
  8
COTA
100
AcDbLine
 10
540.0
 20
-170.0
 30
0.0
 11
540.0
 21
-100.0
 31
0.0
  0
LINE
  5
281
330
17
100
AcDbEntity
  8
COTA
100
AcDbLine
 10
559.0
 20
-170.0
 30
0.0
 11
559.0
 21
-100.0
 31
0.0
  0
LINE
  5
282
330
17
100
AcDbEntity
  8
COTA
100
AcDbLine
 10
540.0
 20
-100.0
 30
0.0
 11
559.0
 21
-100.0
 31
0.0
  0
DIMENSION
  5
283
330
17
100
AcDbEntity
  8
COTA
 62
4
100
AcDbDimension
280
0
  2
*D27
  3
PAINEL
 10
576.0
 20
-421.0
 30
0.0
 11
565.0
 21
-420.0
 31
0.0
 70
32
 71
5
  1
<>
100
AcDbAlignedDimension
 13
559.0
 23
-421.0
 33
0.0
 14
559.0
 24
-419.0
 34
0.0
 50
90.0
100
AcDbRotatedDimension
  0
DIMENSION
  5
294
330
17
100
AcDbEntity
  8
COTA
 62
4
100
AcDbDimension
280
0
  2
*D28
  3
PAINEL
 10
599.0
 20
-419.0
 30
0.0
 11
591.0
 21
-294.5
 31
0.0
 70
32
 71
5
  1
<>
100
AcDbAlignedDimension
 13
559.0
 23
-419.0
 33
0.0
 14
559.0
 24
-170.0
 34
0.0
 50
90.0
100
AcDbRotatedDimension
  0
DIMENSION
  5
2A3
330
17
100
AcDbEntity
  8
COTA
 62
4
100
AcDbDimension
280
0
  2
*D29
  3
PAINEL
 10
599.0
 20
-170.0
 30
0.0
 11
591.0
 21
-135.0
 31
0.0
 70
32
 71
5
  1
<>
100
AcDbAlignedDimension
 13
559.0
 23
-170.0
 33
0.0
 14
559.0
 24
-100.0
 34
0.0
 50
90.0
100
AcDbRotatedDimension
  0
DIMENSION
  5
2B2
330
17
100
AcDbEntity
  8
COTA
 62
4
100
AcDbDimension
280
0
  2
*D30
  3
PAINEL
 10
540.0
 20
-464.0
 30
0.0
 11
549.5
 21
-453.0
 31
0.0
 70
32
 71
5
  1
<>
100
AcDbAlignedDimension
 13
540.0
 23
-421.0
 33
0.0
 14
559.0
 24
-421.0
 34
0.0
 50
0.0
100
AcDbRotatedDimension
  0
TEXT
  5
2C1
330
17
100
AcDbEntity
  8
NOMENCLATURA
100
AcDbText
 10
525.0
 20
-416.0
 30
0.0
 40
12.0
  1
P1.C
 50
90.0
100
AcDbText
  0
LWPOLYLINE
  5
2C2
330
17
100
AcDbEntity
  8
SARR_2.2x7
100
AcDbPolyline
 90
2
 70
0
 10
547.0
 20
-419.0
 10
547.0
 20
-170.0
  0
LWPOLYLINE
  5
2C3
330
17
100
AcDbEntity
  8
SARR_2.2x7
100
AcDbPolyline
 90
2
 70
0
 10
552.0
 20
-419.0
 10
552.0
 20
-170.0
  0
HATCH
  5
2C4
330
17
100
AcDbEntity
  8
COTA
100
AcDbHatch
 10
0.0
 20
0.0
 30
0.0
210
0.0
220
0.0
230
1.0
  2
AR-CONC
 70
0
 71
0
 91
1
 92
3
 72
0
 73
1
 93
4
 10
559.0
 20
-170.0
 10
559.0
 20
-100.0
 10
540.0
 20
-100.0
 10
540.0
 20
-170.0
 97
0
 75
1
 76
1
 52
0.0
 41
0.05
 77
0
 78
13
 53
50.0
 43
0.0
 44
0.0
 45
9.1092334498
 46
-0.7969542769
 79
2
 49
0.9525
 49
-10.4775
 53
355.0
 43
0.0
 44
0.0
 45
-1.7621710713
 46
9.552842262
 79
2
 49
0.762
 49
-8.3820292085
 53
100.4514447
 43
0.75910035
 44
-0.066412675
 45
7.3470623545
 46
8.7558875956
 79
2
 49
0.80950044
 49
-8.90451223
 53
46.1842
 43
0.0
 44
2.54
 45
13.5539520446
 46
-2.1021163966
 79
2
 49
1.42875
 49
-15.71625
 53
96.63555761
 43
1.129495
 44
2.364825
 45
11.8702067026
 46
12.3713062299
 79
2
 49
1.214251157
 49
-13.356780408
 53
351.18415117
 43
0.0
 44
2.54
 45
11.8702067033
 46
12.3713062293
 79
2
 49
1.1429983535
 49
-12.572986596
 53
21.0
 43
1.27
 44
1.905
 45
7.5807195635
 46
-5.1132599094
 79
2
 49
0.9525
 49
-10.4775
 53
326.0
 43
1.27
 44
1.905
 45
3.0901014174
 46
9.2093983061
 79
2
 49
0.762
 49
-8.382
 53
71.451445
 43
1.90172663
 44
1.478895005
 45
10.6708209639
 46
4.0961384443
 79
2
 49
0.80950044
 49
-8.90449688
 53
37.5
 43
0.0
 44
0.0
 45
0.1544301625
 46
4.2277519437
 79
6
 49
0.0
 49
-8.2804
 49
0.0
 49
-8.509
 49
0.0
 49
-8.41375
 53
7.5
 43
0.0
 44
0.0
 45
3.3409831255
 46
5.0090287409
 79
6
 49
0.0
 49
-4.8514
 49
0.0
 49
-8.0899
 49
0.0
 49
-3.20675
 53
-32.5
 43
-2.8321
 44
0.0
 45
6.7795297583
 46
-0.2864371996
 79
6
 49
0.0
 49
-3.175
 49
0.0
 49
-9.906
 49
0.0
 49
-13.1445
 53
-42.5
 43
-4.1021
 44
0.0
 45
7.4064590693
 46
1.2713245517
 79
6
 49
0.0
 49
-4.1275
 49
0.0
 49
-6.5786
 49
0.0
 49
-9.3345
 98
0
  0
LWPOLYLINE
  5
2C5
330
17
100
AcDbEntity
  8
COTA
100
AcDbPolyline
 90
4
 70
1
 10
559.0
 20
-170.0
 10
559.0
 20
-100.0
 10
540.0
 20
-100.0
 10
540.0
 20
-170.0
  0
LINE
  5
2C6
330
17
100
AcDbEntity
  8
Painéis
100
AcDbLine
 10
688.0
 20
-419.0
 30
0.0
 11
707.0
 21
-419.0
 31
0.0
  0
LINE
  5
2C7
330
17
100
AcDbEntity
  8
Painéis
100
AcDbLine
 10
688.0
 20
-224.0
 30
0.0
 11
707.0
 21
-224.0
 31
0.0
  0
LINE
  5
2C8
330
17
100
AcDbEntity
  8
Painéis
100
AcDbLine
 10
688.0
 20
-421.0
 30
0.0
 11
688.0
 21
-224.0
 31
0.0
  0
LINE
  5
2C9
330
17
100
AcDbEntity
  8
Painéis
100
AcDbLine
 10
707.0
 20
-421.0
 30
0.0
 11
707.0
 21
-224.0
 31
0.0
  0
LINE
  5
2CA
330
17
100
AcDbEntity
  8
COTA
100
AcDbLine
 10
688.0
 20
-224.0
 30
0.0
 11
688.0
 21
-100.0
 31
0.0
  0
LINE
  5
2CB
330
17
100
AcDbEntity
  8
COTA
100
AcDbLine
 10
707.0
 20
-224.0
 30
0.0
 11
707.0
 21
-100.0
 31
0.0
  0
LINE
  5
2CC
330
17
100
AcDbEntity
  8
COTA
100
AcDbLine
 10
688.0
 20
-100.0
 30
0.0
 11
707.0
 21
-100.0
 31
0.0
  0
DIMENSION
  5
2CD
330
17
100
AcDbEntity
  8
COTA
 62
4
100
AcDbDimension
280
0
  2
*D31
  3
PAINEL
 10
724.0
 20
-421.0
 30
0.0
 11
713.0
 21
-420.0
 31
0.0
 70
32
 71
5
  1
<>
100
AcDbAlignedDimension
 13
707.0
 23
-421.0
 33
0.0
 14
707.0
 24
-419.0
 34
0.0
 50
90.0
100
AcDbRotatedDimension
  0
DIMENSION
  5
2DE
330
17
100
AcDbEntity
  8
COTA
 62
4
100
AcDbDimension
280
0
  2
*D32
  3
PAINEL
 10
747.0
 20
-419.0
 30
0.0
 11
739.0
 21
-321.5
 31
0.0
 70
32
 71
5
  1
<>
100
AcDbAlignedDimension
 13
707.0
 23
-419.0
 33
0.0
 14
707.0
 24
-224.0
 34
0.0
 50
90.0
100
AcDbRotatedDimension
  0
DIMENSION
  5
2ED
330
17
100
AcDbEntity
  8
COTA
 62
4
100
AcDbDimension
280
0
  2
*D33
  3
PAINEL
 10
747.0
 20
-224.0
 30
0.0
 11
739.0
 21
-162.0
 31
0.0
 70
32
 71
5
  1
<>
100
AcDbAlignedDimension
 13
707.0
 23
-224.0
 33
0.0
 14
707.0
 24
-100.0
 34
0.0
 50
90.0
100
AcDbRotatedDimension
  0
DIMENSION
  5
2FC
330
17
100
AcDbEntity
  8
COTA
 62
4
100
AcDbDimension
280
0
  2
*D34
  3
PAINEL
 10
688.0
 20
-464.0
 30
0.0
 11
697.5
 21
-453.0
 31
0.0
 70
32
 71
5
  1
<>
100
AcDbAlignedDimension
 13
688.0
 23
-421.0
 33
0.0
 14
707.0
 24
-421.0
 34
0.0
 50
0.0
100
AcDbRotatedDimension
  0
TEXT
  5
30B
330
17
100
AcDbEntity
  8
NOMENCLATURA
100
AcDbText
 10
673.0
 20
-416.0
 30
0.0
 40
12.0
  1
P1.D
 50
90.0
100
AcDbText
  0
LWPOLYLINE
  5
30C
330
17
100
AcDbEntity
  8
SARR_2.2x7
100
AcDbPolyline
 90
2
 70
0
 10
695.0
 20
-419.0
 10
695.0
 20
-224.0
  0
LWPOLYLINE
  5
30D
330
17
100
AcDbEntity
  8
SARR_2.2x7
100
AcDbPolyline
 90
2
 70
0
 10
700.0
 20
-419.0
 10
700.0
 20
-224.0
  0
HATCH
  5
30E
330
17
100
AcDbEntity
  8
COTA
100
AcDbHatch
 10
0.0
 20
0.0
 30
0.0
210
0.0
220
0.0
230
1.0
  2
AR-CONC
 70
0
 71
0
 91
1
 92
3
 72
0
 73
1
 93
4
 10
707.0
 20
-224.0
 10
707.0
 20
-100.0
 10
688.0
 20
-100.0
 10
688.0
 20
-224.0
 97
0
 75
1
 76
1
 52
0.0
 41
0.05
 77
0
 78
13
 53
50.0
 43
0.0
 44
0.0
 45
9.1092334498
 46
-0.7969542769
 79
2
 49
0.9525
 49
-10.4775
 53
355.0
 43
0.0
 44
0.0
 45
-1.7621710713
 46
9.552842262
 79
2
 49
0.762
 49
-8.3820292085
 53
100.4514447
 43
0.75910035
 44
-0.066412675
 45
7.3470623545
 46
8.7558875956
 79
2
 49
0.80950044
 49
-8.90451223
 53
46.1842
 43
0.0
 44
2.54
 45
13.5539520446
 46
-2.1021163966
 79
2
 49
1.42875
 49
-15.71625
 53
96.63555761
 43
1.129495
 44
2.364825
 45
11.8702067026
 46
12.3713062299
 79
2
 49
1.214251157
 49
-13.356780408
 53
351.18415117
 43
0.0
 44
2.54
 45
11.8702067033
 46
12.3713062293
 79
2
 49
1.1429983535
 49
-12.572986596
 53
21.0
 43
1.27
 44
1.905
 45
7.5807195635
 46
-5.1132599094
 79
2
 49
0.9525
 49
-10.4775
 53
326.0
 43
1.27
 44
1.905
 45
3.0901014174
 46
9.2093983061
 79
2
 49
0.762
 49
-8.382
 53
71.451445
 43
1.90172663
 44
1.478895005
 45
10.6708209639
 46
4.0961384443
 79
2
 49
0.80950044
 49
-8.90449688
 53
37.5
 43
0.0
 44
0.0
 45
0.1544301625
 46
4.2277519437
 79
6
 49
0.0
 49
-8.2804
 49
0.0
 49
-8.509
 49
0.0
 49
-8.41375
 53
7.5
 43
0.0
 44
0.0
 45
3.3409831255
 46
5.0090287409
 79
6
 49
0.0
 49
-4.8514
 49
0.0
 49
-8.0899
 49
0.0
 49
-3.20675
 53
-32.5
 43
-2.8321
 44
0.0
 45
6.7795297583
 46
-0.2864371996
 79
6
 49
0.0
 49
-3.175
 49
0.0
 49
-9.906
 49
0.0
 49
-13.1445
 53
-42.5
 43
-4.1021
 44
0.0
 45
7.4064590693
 46
1.2713245517
 79
6
 49
0.0
 49
-4.1275
 49
0.0
 49
-6.5786
 49
0.0
 49
-9.3345
 98
0
  0
LWPOLYLINE
  5
30F
330
17
100
AcDbEntity
  8
COTA
100
AcDbPolyline
 90
4
 70
1
 10
707.0
 20
-224.0
 10
707.0
 20
-100.0
 10
688.0
 20
-100.0
 10
688.0
 20
-224.0
  0
ENDSEC
  0
SECTION
  2
OBJECTS
  0
DICTIONARY
  5
A
330
0
100
AcDbDictionary
281
1
  3
ACAD_COLOR
350
B
  3
ACAD_GROUP
350
C
  3
ACAD_LAYOUT
350
D
  3
ACAD_MATERIAL
350
E
  3
ACAD_MLEADERSTYLE
350
F
  3
ACAD_MLINESTYLE
350
10
  3
ACAD_PLOTSETTINGS
350
11
  3
ACAD_PLOTSTYLENAME
350
12
  3
ACAD_SCALELIST
350
14
  3
ACAD_TABLESTYLE
350
15
  3
ACAD_VISUALSTYLE
350
16
  3
EZDXF_META
350
2D
  0
DICTIONARY
  5
B
330
A
100
AcDbDictionary
281
1
  0
DICTIONARY
  5
C
330
A
100
AcDbDictionary
281
1
  0
DICTIONARY
  5
D
330
A
100
AcDbDictionary
281
1
  3
Model
350
1A
  3
Layout1
350
1E
  0
DICTIONARY
  5
E
330
A
100
AcDbDictionary
281
1
  3
ByBlock
350
1F
  3
ByLayer
350
20
  3
Global
350
21
  0
DICTIONARY
  5
F
330
A
100
AcDbDictionary
281
1
  3
Standard
350
2C
  0
DICTIONARY
  5
10
330
A
100
AcDbDictionary
281
1
  3
Standard
350
22
  0
DICTIONARY
  5
11
330
A
100
AcDbDictionary
281
1
  0
ACDBDICTIONARYWDFLT
  5
12
330
A
100
AcDbDictionary
281
1
  3
Normal
350
13
100
AcDbDictionaryWithDefault
340
13
  0
ACDBPLACEHOLDER
  5
13
330
12
  0
DICTIONARY
  5
14
330
A
100
AcDbDictionary
281
1
  0
DICTIONARY
  5
15
330
A
100
AcDbDictionary
281
1
  0
DICTIONARY
  5
16
330
A
100
AcDbDictionary
281
1
  0
LAYOUT
  5
1A
330
D
100
AcDbPlotSettings
  1

  4
A3
  6

 40
7.5
 41
20.0
 42
7.5
 43
20.0
 44
420.0
 45
297.0
 46
0.0
 47
0.0
 48
0.0
 49
0.0
140
0.0
141
0.0
142
1.0
143
1.0
 70
1024
 72
1
 73
0
 74
5
  7

 75
16
 76
0
 77
2
 78
300
147
1.0
148
0.0
149
0.0
100
AcDbLayout
  1
Model
 70
1
 71
0
 10
0.0
 20
0.0
 11
420.0
 21
297.0
 12
0.0
 22
0.0
 32
0.0
 14
1e+20
 24
1e+20
 34
1e+20
 15
-1e+20
 25
-1e+20
 35
-1e+20
146
0.0
 13
0.0
 23
0.0
 33
0.0
 16
1.0
 26
0.0
 36
0.0
 17
0.0
 27
1.0
 37
0.0
 76
1
330
17
  0
LAYOUT
  5
1E
330
D
100
AcDbPlotSettings
  1

  4
A3
  6

 40
7.5
 41
20.0
 42
7.5
 43
20.0
 44
420.0
 45
297.0
 46
0.0
 47
0.0
 48
0.0
 49
0.0
140
0.0
141
0.0
142
1.0
143
1.0
 70
0
 72
1
 73
0
 74
5
  7

 75
16
 76
0
 77
2
 78
300
147
1.0
148
0.0
149
0.0
100
AcDbLayout
  1
Layout1
 70
1
 71
1
 10
0.0
 20
0.0
 11
420.0
 21
297.0
 12
0.0
 22
0.0
 32
0.0
 14
1e+20
 24
1e+20
 34
1e+20
 15
-1e+20
 25
-1e+20
 35
-1e+20
146
0.0
 13
0.0
 23
0.0
 33
0.0
 16
1.0
 26
0.0
 36
0.0
 17
0.0
 27
1.0
 37
0.0
 76
1
330
1B
  0
MATERIAL
  5
1F
102
{ACAD_REACTORS
330
E
102
}
330
E
100
AcDbMaterial
  1
ByBlock
  2

 70
0
 40
1.0
 71
1
 41
1.0
 91
-1023410177
 42
1.0
 72
1
  3

 73
1
 74
1
 75
1
 44
0.5
 73
0
 45
1.0
 46
1.0
 77
1
  4

 78
1
 79
1
170
1
 48
1.0
171
1
  6

172
1
173
1
174
1
140
1.0
141
1.0
175
1
  7

176
1
177
1
178
1
143
1.0
179
1
  8

270
1
271
1
272
1
145
1.0
146
1.0
273
1
  9

274
1
275
1
276
1
 42
1.0
 72
1
  3

 73
1
 74
1
 75
1
 94
63
  0
MATERIAL
  5
20
102
{ACAD_REACTORS
330
E
102
}
330
E
100
AcDbMaterial
  1
ByLayer
  2

 70
0
 40
1.0
 71
1
 41
1.0
 91
-1023410177
 42
1.0
 72
1
  3

 73
1
 74
1
 75
1
 44
0.5
 73
0
 45
1.0
 46
1.0
 77
1
  4

 78
1
 79
1
170
1
 48
1.0
171
1
  6

172
1
173
1
174
1
140
1.0
141
1.0
175
1
  7

176
1
177
1
178
1
143
1.0
179
1
  8

270
1
271
1
272
1
145
1.0
146
1.0
273
1
  9

274
1
275
1
276
1
 42
1.0
 72
1
  3

 73
1
 74
1
 75
1
 94
63
  0
MATERIAL
  5
21
102
{ACAD_REACTORS
330
E
102
}
330
E
100
AcDbMaterial
  1
Global
  2

 70
0
 40
1.0
 71
1
 41
1.0
 91
-1023410177
 42
1.0
 72
1
  3

 73
1
 74
1
 75
1
 44
0.5
 73
0
 45
1.0
 46
1.0
 77
1
  4

 78
1
 79
1
170
1
 48
1.0
171
1
  6

172
1
173
1
174
1
140
1.0
141
1.0
175
1
  7

176
1
177
1
178
1
143
1.0
179
1
  8

270
1
271
1
272
1
145
1.0
146
1.0
273
1
  9

274
1
275
1
276
1
 42
1.0
 72
1
  3

 73
1
 74
1
 75
1
 94
63
  0
MLINESTYLE
  5
22
102
{ACAD_REACTORS
330
10
102
}
330
10
100
AcDbMlineStyle
  2
Standard
 70
0
  3

 62
256
 51
90.0
 52
90.0
 71
2
 49
0.5
 62
256
  6
BYLAYER
 49
-0.5
 62
256
  6
BYLAYER
  0
MLEADERSTYLE
  5
2C
102
{ACAD_REACTORS
330
F
102
}
330
F
100
AcDbMLeaderStyle
179
2
170
2
171
1
172
0
 90
2
 40
0.0
 41
0.0
173
1
 91
-1056964608
 92
-2
290
1
 42
2.0
291
1
 43
8.0
  3
Standard
 44
4.0
300

342
29
174
1
175
1
176
0
178
1
 93
-1056964608
 45
4.0
292
0
297
0
 46
4.0
 94
-1056964608
 47
1.0
 49
1.0
140
1.0
294
1
141
0.0
177
0
142
1.0
295
0
296
0
143
3.75
271
0
272
9
273
9
  0
DICTIONARY
  5
2D
330
A
100
AcDbDictionary
280
1
281
1
  3
CREATED_BY_EZDXF
350
2E
  3
WRITTEN_BY_EZDXF
350
312
  0
DICTIONARYVAR
  5
2E
330
2D
100
DictionaryVariables
280
0
  1
1.4.4 @ 2026-07-24T18:16:31.547215+00:00
  0
DICTIONARYVAR
  5
312
330
2D
100
DictionaryVariables
280
0
  1
1.4.4 @ 2026-07-24T18:16:31.599217+00:00
  0
ENDSEC
  0
EOF
