  0
SECTION
  2
HEADER
  9
$ACADVER
  1
AC1024
  9
$ACADMAINTVER
 70
6
  9
$DWGCODEPAGE
  3
ANSI_1252
  9
$LASTSAVEDBY
  1
ezdxf
  9
$INSBASE
 10
0.0
 20
0.0
 30
0.0
  9
$EXTMIN
 10
1e+20
 20
1e+20
 30
1e+20
  9
$EXTMAX
 10
-1e+20
 20
-1e+20
 30
-1e+20
  9
$LIMMIN
 10
0.0
 20
0.0
  9
$LIMMAX
 10
420.0
 20
297.0
  9
$ORTHOMODE
 70
0
  9
$REGENMODE
 70
1
  9
$FILLMODE
 70
1
  9
$QTEXTMODE
 70
0
  9
$MIRRTEXT
 70
1
  9
$LTSCALE
 40
1.0
  9
$ATTMODE
 70
1
  9
$TEXTSIZE
 40
2.5
  9
$TRACEWID
 40
1.0
  9
$TEXTSTYLE
  7
Standard
  9
$CLAYER
  8
0
  9
$CELTYPE
  6
ByLayer
  9
$CECOLOR
 62
256
  9
$CELTSCALE
 40
1.0
  9
$DISPSILH
 70
0
  9
$DIMSCALE
 40
1.0
  9
$DIMASZ
 40
2.5
  9
$DIMEXO
 40
0.625
  9
$DIMDLI
 40
3.75
  9
$DIMRND
 40
0.0
  9
$DIMDLE
 40
0.0
  9
$DIMEXE
 40
1.25
  9
$DIMTP
 40
0.0
  9
$DIMTM
 40
0.0
  9
$DIMTXT
 40
2.5
  9
$DIMCEN
 40
2.5
  9
$DIMTSZ
 40
0.0
  9
$DIMTOL
 70
0
  9
$DIMLIM
 70
0
  9
$DIMTIH
 70
0
  9
$DIMTOH
 70
0
  9
$DIMSE1
 70
0
  9
$DIMSE2
 70
0
  9
$DIMTAD
 70
1
  9
$DIMZIN
 70
8
  9
$DIMBLK
  1

  9
$DIMASO
 70
1
  9
$DIMSHO
 70
1
  9
$DIMPOST
  1

  9
$DIMAPOST
  1

  9
$DIMALT
 70
0
  9
$DIMALTD
 70
3
  9
$DIMALTF
 40
0.03937007874
  9
$DIMLFAC
 40
1.0
  9
$DIMTOFL
 70
1
  9
$DIMTVP
 40
0.0
  9
$DIMTIX
 70
0
  9
$DIMSOXD
 70
0
  9
$DIMSAH
 70
0
  9
$DIMBLK1
  1

  9
$DIMBLK2
  1

  9
$DIMSTYLE
  2
ISO-25
  9
$DIMCLRD
 70
0
  9
$DIMCLRE
 70
0
  9
$DIMCLRT
 70
0
  9
$DIMTFAC
 40
1.0
  9
$DIMGAP
 40
0.625
  9
$DIMJUST
 70
0
  9
$DIMSD1
 70
0
  9
$DIMSD2
 70
0
  9
$DIMTOLJ
 70
0
  9
$DIMTZIN
 70
8
  9
$DIMALTZ
 70
0
  9
$DIMALTTZ
 70
0
  9
$DIMUPT
 70
0
  9
$DIMDEC
 70
2
  9
$DIMTDEC
 70
2
  9
$DIMALTU
 70
2
  9
$DIMALTTD
 70
3
  9
$DIMTXSTY
  7
Standard
  9
$DIMAUNIT
 70
0
  9
$DIMADEC
 70
0
  9
$DIMALTRND
 40
0.0
  9
$DIMAZIN
 70
0
  9
$DIMDSEP
 70
44
  9
$DIMATFIT
 70
3
  9
$DIMFRAC
 70
0
  9
$DIMLDRBLK
  1

  9
$DIMLUNIT
 70
2
  9
$DIMLWD
 70
-2
  9
$DIMLWE
 70
-2
  9
$DIMTMOVE
 70
0
  9
$DIMFXL
 40
1.0
  9
$DIMFXLON
 70
0
  9
$DIMJOGANG
 40
0.785398163397
  9
$DIMTFILL
 70
0
  9
$DIMTFILLCLR
 70
0
  9
$DIMARCSYM
 70
0
  9
$DIMLTYPE
  6

  9
$DIMLTEX1
  6

  9
$DIMLTEX2
  6

  9
$DIMTXTDIRECTION
 70
0
  9
$LUNITS
 70
2
  9
$LUPREC
 70
4
  9
$SKETCHINC
 40
1.0
  9
$FILLETRAD
 40
10.0
  9
$AUNITS
 70
0
  9
$AUPREC
 70
2
  9
$MENU
  1
.
  9
$ELEVATION
 40
0.0
  9
$PELEVATION
 40
0.0
  9
$THICKNESS
 40
0.0
  9
$LIMCHECK
 70
0
  9
$CHAMFERA
 40
0.0
  9
$CHAMFERB
 40
0.0
  9
$CHAMFERC
 40
0.0
  9
$CHAMFERD
 40
0.0
  9
$SKPOLY
 70
0
  9
$TDCREATE
 40
2461201.965914352
  9
$TDUCREATE
 40
2458532.153996898
  9
$TDUPDATE
 40
2461201.965914352
  9
$TDUUPDATE
 40
2458532.1544311
  9
$TDINDWG
 40
0.0
  9
$TDUSRTIMER
 40
0.0
  9
$USRTIMER
 70
1
  9
$ANGBASE
 50
0.0
  9
$ANGDIR
 70
0
  9
$PDMODE
 70
0
  9
$PDSIZE
 40
0.0
  9
$PLINEWID
 40
0.0
  9
$SPLFRAME
 70
0
  9
$SPLINETYPE
 70
6
  9
$SPLINESEGS
 70
8
  9
$HANDSEED
  5
358
  9
$SURFTAB1
 70
6
  9
$SURFTAB2
 70
6
  9
$SURFTYPE
 70
6
  9
$SURFU
 70
6
  9
$SURFV
 70
6
  9
$UCSBASE
  2

  9
$UCSNAME
  2

  9
$UCSORG
 10
0.0
 20
0.0
 30
0.0
  9
$UCSXDIR
 10
1.0
 20
0.0
 30
0.0
  9
$UCSYDIR
 10
0.0
 20
1.0
 30
0.0
  9
$UCSORTHOREF
  2

  9
$UCSORTHOVIEW
 70
0
  9
$UCSORGTOP
 10
0.0
 20
0.0
 30
0.0
  9
$UCSORGBOTTOM
 10
0.0
 20
0.0
 30
0.0
  9
$UCSORGLEFT
 10
0.0
 20
0.0
 30
0.0
  9
$UCSORGRIGHT
 10
0.0
 20
0.0
 30
0.0
  9
$UCSORGFRONT
 10
0.0
 20
0.0
 30
0.0
  9
$UCSORGBACK
 10
0.0
 20
0.0
 30
0.0
  9
$PUCSBASE
  2

  9
$PUCSNAME
  2

  9
$PUCSORG
 10
0.0
 20
0.0
 30
0.0
  9
$PUCSXDIR
 10
1.0
 20
0.0
 30
0.0
  9
$PUCSYDIR
 10
0.0
 20
1.0
 30
0.0
  9
$PUCSORTHOREF
  2

  9
$PUCSORTHOVIEW
 70
0
  9
$PUCSORGTOP
 10
0.0
 20
0.0
 30
0.0
  9
$PUCSORGBOTTOM
 10
0.0
 20
0.0
 30
0.0
  9
$PUCSORGLEFT
 10
0.0
 20
0.0
 30
0.0
  9
$PUCSORGRIGHT
 10
0.0
 20
0.0
 30
0.0
  9
$PUCSORGFRONT
 10
0.0
 20
0.0
 30
0.0
  9
$PUCSORGBACK
 10
0.0
 20
0.0
 30
0.0
  9
$USERI1
 70
0
  9
$USERI2
 70
0
  9
$USERI3
 70
0
  9
$USERI4
 70
0
  9
$USERI5
 70
0
  9
$USERR1
 40
0.0
  9
$USERR2
 40
0.0
  9
$USERR3
 40
0.0
  9
$USERR4
 40
0.0
  9
$USERR5
 40
0.0
  9
$WORLDVIEW
 70
1
  9
$SHADEDGE
 70
3
  9
$SHADEDIF
 70
70
  9
$TILEMODE
 70
1
  9
$MAXACTVP
 70
64
  9
$PINSBASE
 10
0.0
 20
0.0
 30
0.0
  9
$PLIMCHECK
 70
0
  9
$PEXTMIN
 10
1e+20
 20
1e+20
 30
1e+20
  9
$PEXTMAX
 10
-1e+20
 20
-1e+20
 30
-1e+20
  9
$PLIMMIN
 10
0.0
 20
0.0
  9
$PLIMMAX
 10
420.0
 20
297.0
  9
$UNITMODE
 70
0
  9
$VISRETAIN
 70
1
  9
$PLINEGEN
 70
0
  9
$PSLTSCALE
 70
1
  9
$TREEDEPTH
 70
3020
  9
$CMLSTYLE
  2
Standard
  9
$CMLJUST
 70
0
  9
$CMLSCALE
 40
20.0
  9
$PROXYGRAPHICS
 70
1
  9
$MEASUREMENT
 70
1
  9
$CELWEIGHT
370
-1
  9
$ENDCAPS
280
0
  9
$JOINSTYLE
280
0
  9
$LWDISPLAY
290
0
  9
$INSUNITS
 70
6
  9
$HYPERLINKBASE
  1

  9
$STYLESHEET
  1

  9
$XEDIT
290
1
  9
$CEPSNTYPE
380
0
  9
$PSTYLEMODE
290
1
  9
$FINGERPRINTGUID
  2
{ACBE1D85-9999-43BC-8401-8E562B7A66AF}
  9
$VERSIONGUID
  2
{2F829663-5C48-4D99-85E5-5E2A77D3E685}
  9
$EXTNAMES
290
1
  9
$PSVPSCALE
 40
0.0
  9
$OLESTARTUP
290
0
  9
$SORTENTS
280
127
  9
$INDEXCTL
280
0
  9
$HIDETEXT
280
1
  9
$XCLIPFRAME
280
1
  9
$HALOGAP
280
0
  9
$OBSCOLOR
 70
257
  9
$OBSLTYPE
280
0
  9
$INTERSECTIONDISPLAY
280
0
  9
$INTERSECTIONCOLOR
 70
257
  9
$DIMASSOC
280
2
  9
$PROJECTNAME
  1

  9
$CAMERADISPLAY
290
0
  9
$LENSLENGTH
 40
50.0
  9
$CAMERAHEIGHT
 40
0.0
  9
$STEPSPERSEC
 40
24.0
  9
$STEPSIZE
 40
100.0
  9
$3DDWFPREC
 40
2.0
  9
$PSOLWIDTH
 40
0.005
  9
$PSOLHEIGHT
 40
0.08
  9
$LOFTANG1
 40
1.570796326795
  9
$LOFTANG2
 40
1.570796326795
  9
$LOFTMAG1
 40
0.0
  9
$LOFTMAG2
 40
0.0
  9
$LOFTPARAM
 70
7
  9
$LOFTNORMALS
280
1
  9
$LATITUDE
 40
37.795
  9
$LONGITUDE
 40
-122.394
  9
$NORTHDIRECTION
 40
0.0
  9
$TIMEZONE
 70
-8000
  9
$LIGHTGLYPHDISPLAY
280
1
  9
$TILEMODELIGHTSYNCH
280
1
  9
$CMATERIAL
347
20
  9
$SOLIDHIST
280
0
  9
$SHOWHIST
280
1
  9
$DWFFRAME
280
2
  9
$DGNFRAME
280
2
  9
$REALWORLDSCALE
290
1
  9
$INTERFERECOLOR
 62
256
  9
$CSHADOW
280
0
  9
$SHADOWPLANELOCATION
 40
0.0
  0
ENDSEC
  0
SECTION
  2
CLASSES
  0
CLASS
  1
ACDBDICTIONARYWDFLT
  2
AcDbDictionaryWithDefault
  3
ObjectDBX Classes
 90
0
 91
0
280
0
281
0
  0
CLASS
  1
SUN
  2
AcDbSun
  3
SCENEOE
 90
1153
 91
0
280
0
281
0
  0
CLASS
  1
VISUALSTYLE
  2
AcDbVisualStyle
  3
ObjectDBX Classes
 90
4095
 91
0
280
0
281
0
  0
CLASS
  1
MATERIAL
  2
AcDbMaterial
  3
ObjectDBX Classes
 90
1153
 91
0
280
0
281
0
  0
CLASS
  1
SCALE
  2
AcDbScale
  3
ObjectDBX Classes
 90
1153
 91
0
280
0
281
0
  0
CLASS
  1
TABLESTYLE
  2
AcDbTableStyle
  3
ObjectDBX Classes
 90
4095
 91
0
280
0
281
0
  0
CLASS
  1
MLEADERSTYLE
  2
AcDbMLeaderStyle
  3
ACDB_MLEADERSTYLE_CLASS
 90
4095
 91
0
280
0
281
0
  0
CLASS
  1
DICTIONARYVAR
  2
AcDbDictionaryVar
  3
ObjectDBX Classes
 90
0
 91
0
280
0
281
0
  0
CLASS
  1
CELLSTYLEMAP
  2
AcDbCellStyleMap
  3
ObjectDBX Classes
 90
1152
 91
0
280
0
281
0
  0
CLASS
  1
MENTALRAYRENDERSETTINGS
  2
AcDbMentalRayRenderSettings
  3
SCENEOE
 90
1024
 91
0
280
0
281
0
  0
CLASS
  1
ACDBDETAILVIEWSTYLE
  2
AcDbDetailViewStyle
  3
ObjectDBX Classes
 90
1025
 91
0
280
0
281
0
  0
CLASS
  1
ACDBSECTIONVIEWSTYLE
  2
AcDbSectionViewStyle
  3
ObjectDBX Classes
 90
1025
 91
0
280
0
281
0
  0
CLASS
  1
RASTERVARIABLES
  2
AcDbRasterVariables
  3
ISM
 90
0
 91
0
280
0
281
0
  0
CLASS
  1
LAYOUT
  2
AcDbLayout
  3
ObjectDBX Classes
 90
0
 91
0
280
0
281
0
  0
CLASS
  1
ACDBPLACEHOLDER
  2
AcDbPlaceHolder
  3
ObjectDBX Classes
 90
0
 91
0
280
0
281
0
  0
ENDSEC
  0
SECTION
  2
TABLES
  0
TABLE
  2
VPORT
  5
8
330
0
100
AcDbSymbolTable
 70
1
  0
VPORT
  5
23
330
8
100
AcDbSymbolTableRecord
100
AcDbViewportTableRecord
  2
*Active
 70
0
 10
0.0
 20
0.0
 11
1.0
 21
1.0
 12
0.0
 22
0.0
 13
0.0
 23
0.0
 14
0.5
 24
0.5
 15
0.5
 25
0.5
 16
0.0
 26
0.0
 36
1.0
 17
0.0
 27
0.0
 37
0.0
 40
1000.0
 41
1.34
 42
50.0
 43
0.0
 44
0.0
 50
0.0
 51
0.0
 71
0
 72
1000
 73
1
 74
3
 75
0
 76
0
 77
0
 78
0
281
0
 65
0
146
0.0
  0
ENDTAB
  0
TABLE
  2
LTYPE
  5
2
330
0
100
AcDbSymbolTable
 70
3
  0
LTYPE
  5
24
330
2
100
AcDbSymbolTableRecord
100
AcDbLinetypeTableRecord
  2
ByBlock
 70
0
  3

 72
65
 73
0
 40
0.0
  0
LTYPE
  5
25
330
2
100
AcDbSymbolTableRecord
100
AcDbLinetypeTableRecord
  2
ByLayer
 70
0
  3

 72
65
 73
0
 40
0.0
  0
LTYPE
  5
26
330
2
100
AcDbSymbolTableRecord
100
AcDbLinetypeTableRecord
  2
Continuous
 70
0
  3

 72
65
 73
0
 40
0.0
  0
ENDTAB
  0
TABLE
  2
LAYER
  5
1
330
0
100
AcDbSymbolTable
 70
18
  0
LAYER
  5
27
330
1
100
AcDbSymbolTableRecord
100
AcDbLayerTableRecord
  2
0
 70
0
 62
7
  6
Continuous
370
-3
390
13
347
21
  0
LAYER
  5
28
330
1
100
AcDbSymbolTableRecord
100
AcDbLayerTableRecord
  2
Defpoints
 70
0
 62
7
  6
Continuous
290
0
370
-3
390
13
347
21
  0
LAYER
  5
2F
330
1
100
AcDbSymbolTableRecord
100
AcDbLayerTableRecord
  2
SARR_2.2x7
 70
0
 62
7
  6
Continuous
370
-3
390
13
347
21
  0
LAYER
  5
30
330
1
100
AcDbSymbolTableRecord
100
AcDbLayerTableRecord
  2
Cotas
 70
0
 62
7
  6
Continuous
370
-3
390
13
347
21
  0
LAYER
  5
31
330
1
100
AcDbSymbolTableRecord
100
AcDbLayerTableRecord
  2
CONCRETO
 70
0
 62
7
  6
Continuous
370
-3
390
13
347
21
  0
LAYER
  5
32
330
1
100
AcDbSymbolTableRecord
100
AcDbLayerTableRecord
  2
SARR_3.5x7
 70
0
 62
7
  6
Continuous
370
-3
390
13
347
21
  0
LAYER
  5
33
330
1
100
AcDbSymbolTableRecord
100
AcDbLayerTableRecord
  2
Texto Seção
 70
0
 62
7
  6
Continuous
370
-3
390
13
347
21
  0
LAYER
  5
34
330
1
100
AcDbSymbolTableRecord
100
AcDbLayerTableRecord
  2
Madeira
 70
0
 62
7
  6
Continuous
370
-3
390
13
347
21
  0
LAYER
  5
35
330
1
100
AcDbSymbolTableRecord
100
AcDbLayerTableRecord
  2
Hachura
 70
0
 62
7
  6
Continuous
370
-3
390
13
347
21
  0
LAYER
  5
36
330
1
100
AcDbSymbolTableRecord
100
AcDbLayerTableRecord
  2
detalhes
 70
0
 62
7
  6
Continuous
370
-3
390
13
347
21
  0
LAYER
  5
37
330
1
100
AcDbSymbolTableRecord
100
AcDbLayerTableRecord
  2
5
 70
0
 62
7
  6
Continuous
370
-3
390
13
347
21
  0
LAYER
  5
38
330
1
100
AcDbSymbolTableRecord
100
AcDbLayerTableRecord
  2
TEXTO PILAR
 70
0
 62
7
  6
Continuous
370
-3
390
13
347
21
  0
LAYER
  5
39
330
1
100
AcDbSymbolTableRecord
100
AcDbLayerTableRecord
  2
REAPROVEITAMENTO
 70
0
 62
7
  6
Continuous
370
-3
390
13
347
21
  0
LAYER
  5
3A
330
1
100
AcDbSymbolTableRecord
100
AcDbLayerTableRecord
  2
SARR_EDITAR
 70
0
 62
7
  6
Continuous
370
-3
390
13
347
21
  0
LAYER
  5
3B
330
1
100
AcDbSymbolTableRecord
100
AcDbLayerTableRecord
  2
SARRAFO DE PRESSAO
 70
0
 62
7
  6
Continuous
370
-3
390
13
347
21
  0
LAYER
  5
3C
330
1
100
AcDbSymbolTableRecord
100
AcDbLayerTableRecord
  2
Painéis
 70
0
 62
7
  6
Continuous
370
-3
390
13
347
21
  0
LAYER
  5
3D
330
1
100
AcDbSymbolTableRecord
100
AcDbLayerTableRecord
  2
Cota Seção (2x)
 70
0
 62
7
  6
Continuous
370
-3
390
13
347
21
  0
LAYER
  5
3E
330
1
100
AcDbSymbolTableRecord
100
AcDbLayerTableRecord
  2
COTA
 70
0
 62
7
  6
Continuous
370
-3
390
13
347
21
  0
ENDTAB
  0
TABLE
  2
STYLE
  5
5
330
0
100
AcDbSymbolTable
 70
1
  0
STYLE
  5
29
330
5
100
AcDbSymbolTableRecord
100
AcDbTextStyleTableRecord
  2
Standard
 70
0
 40
0.0
 41
1.0
 50
0.0
 71
0
 42
2.5
  3
txt
  4

  0
ENDTAB
  0
TABLE
  2
VIEW
  5
7
330
0
100
AcDbSymbolTable
 70
0
  0
ENDTAB
  0
TABLE
  2
UCS
  5
6
330
0
100
AcDbSymbolTable
 70
0
  0
ENDTAB
  0
TABLE
  2
APPID
  5
3
330
0
100
AcDbSymbolTable
 70
3
  0
APPID
  5
2A
330
3
100
AcDbSymbolTableRecord
100
AcDbRegAppTableRecord
  2
ACAD
 70
0
  0
APPID
  5
355
330
3
100
AcDbSymbolTableRecord
100
AcDbRegAppTableRecord
  2
HATCHBACKGROUNDCOLOR
 70
0
  0
APPID
  5
356
330
3
100
AcDbSymbolTableRecord
100
AcDbRegAppTableRecord
  2
EZDXF
 70
0
  0
ENDTAB
  0
TABLE
  2
DIMSTYLE
  5
4
330
0
100
AcDbSymbolTable
 70
1
100
AcDbDimStyleTable
  0
DIMSTYLE
105
2B
330
4
100
AcDbSymbolTableRecord
100
AcDbDimStyleTableRecord
  2
Standard
 70
0
 40
1.0
 41
2.5
 42
0.625
 43
3.75
 44
1.25
 45
0.0
 46
0.0
 47
0.0
 48
0.0
 49
2.5
140
2.5
141
2.5
142
0.0
143
0.03937007874
144
1.0
145
0.0
146
1.0
147
0.625
148
0.0
 69
0
 70
0
 71
0
 72
0
 73
0
 74
0
 75
0
 76
0
 77
1
 78
8
 79
3
170
0
171
3
172
1
173
0
174
0
175
0
176
0
177
0
178
0
179
2
271
2
272
2
273
2
274
3
275
0
276
0
277
2
278
44
279
0
280
0
281
0
282
0
283
0
284
8
285
0
286
0
288
0
289
3
290
0
371
-2
372
-2
  0
ENDTAB
  0
TABLE
  2
BLOCK_RECORD
  5
9
330
0
100
AcDbSymbolTable
 70
2
  0
BLOCK_RECORD
  5
17
330
9
100
AcDbSymbolTableRecord
100
AcDbBlockTableRecord
  2
*Model_Space
340
1A
 70
0
280
1
281
0
  0
BLOCK_RECORD
  5
1B
330
9
100
AcDbSymbolTableRecord
100
AcDbBlockTableRecord
  2
*Paper_Space
340
1E
 70
0
280
1
281
0
  0
ENDTAB
  0
ENDSEC
  0
SECTION
  2
BLOCKS
  0
BLOCK
  5
18
330
17
100
AcDbEntity
  8
0
100
AcDbBlockBegin
  2
*Model_Space
 70
0
 10
0.0
 20
0.0
 30
0.0
  3
*Model_Space
  1

  0
ENDBLK
  5
19
330
17
100
AcDbEntity
  8
0
100
AcDbBlockEnd
  0
BLOCK
  5
1C
330
1B
100
AcDbEntity
  8
0
100
AcDbBlockBegin
  2
*Paper_Space
 70
0
 10
0.0
 20
0.0
 30
0.0
  3
*Paper_Space
  1

  0
ENDBLK
  5
1D
330
1B
100
AcDbEntity
  8
0
100
AcDbBlockEnd
  0
ENDSEC
  0
SECTION
  2
ENTITIES
  0
LINE
  5
3F
330
17
100
AcDbEntity
  8
SARR_2.2x7
 62
40
370
25
100
AcDbLine
 10
3577.279874776419
 20
3327.519056670745
 30
0.0
 11
3821.279874776419
 21
3327.519056670764
 31
0.0
  0
LINE
  5
40
330
17
100
AcDbEntity
  8
SARR_2.2x7
 62
40
370
25
100
AcDbLine
 10
3886.27987477642
 20
3327.519056670659
 30
0.0
 11
3985.32501553561
 21
3327.5190566705
 31
0.0
  0
LINE
  5
41
330
17
100
AcDbEntity
  8
Painéis
 62
200
370
25
100
AcDbLine
 10
3577.279874776416
 20
3334.519056670653
 30
0.0
 11
3992.279874776416
 21
3334.519056670678
 31
0.0
  0
LINE
  5
42
330
17
100
AcDbEntity
  8
Painéis
 62
200
370
25
100
AcDbLine
 10
3577.279874776423
 20
3290.519056670652
 30
0.0
 11
3992.279874776423
 21
3290.519056670678
 31
0.0
  0
LINE
  5
43
330
17
100
AcDbEntity
  8
Painéis
 62
200
370
25
100
AcDbLine
 10
3992.279874776423
 20
3290.519056670678
 30
0.0
 11
3992.279874776416
 21
3334.519056670678
 31
0.0
  0
LINE
  5
44
330
17
100
AcDbEntity
  8
Painéis
 62
200
370
25
100
AcDbLine
 10
3577.279874776423
 20
3290.519056670652
 30
0.0
 11
3577.279874776416
 21
3334.519056670653
 31
0.0
  0
LINE
  5
45
330
17
100
AcDbEntity
  8
SARR_2.2x7
 62
40
370
25
100
AcDbLine
 10
3985.325015535606
 20
3290.519056670675
 30
0.0
 11
3985.32501553561
 21
3334.519056670653
 31
0.0
  0
LINE
  5
46
330
17
100
AcDbEntity
  8
Painéis
 62
200
370
25
100
AcDbLine
 10
3821.279874776422
 20
3290.519056670667
 30
0.0
 11
3821.279874776415
 21
3334.519056670667
 31
0.0
  0
LINE
  5
47
330
17
100
AcDbEntity
  8
COTA
 62
241
370
25
100
AcDbLine
 10
3577.279874776416
 20
3334.519056670653
 30
0.0
 11
3577.279874776416
 21
3346.519056670653
 31
0.0
  0
LINE
  5
48
330
17
100
AcDbEntity
  8
COTA
 62
241
370
25
100
AcDbLine
 10
3992.279874776416
 20
3349.519056670653
 30
0.0
 11
3992.279874776416
 21
3334.519056670678
 31
0.0
  0
LINE
  5
49
330
17
100
AcDbEntity
  8
SARR_2.2x7
 62
40
370
25
100
AcDbLine
 10
3659.279874776419
 20
3297.519056670576
 30
0.0
 11
3821.279874776419
 21
3297.519056670564
 31
0.0
  0
LINE
  5
4A
330
17
100
AcDbEntity
  8
SARR_2.2x7
 62
40
370
25
100
AcDbLine
 10
3886.27987477642
 20
3297.519056670669
 30
0.0
 11
3985.32501553561
 21
3297.519056670827
 31
0.0
  0
LINE
  5
4B
330
17
100
AcDbEntity
  8
COTA
 62
241
370
25
100
AcDbLine
 10
3992.279874776416
 20
3349.519056670653
 30
0.0
 11
3777.279874776416
 21
3349.519056670653
 31
0.0
  0
LINE
  5
4C
330
17
100
AcDbEntity
  8
SARR_EDITAR
 62
141
370
25
100
AcDbLine
 10
3777.279874776416
 20
3348.019056670653
 30
0.0
 11
3577.279874776416
 21
3348.019056670653
 31
0.0
  0
LINE
  5
4D
330
17
100
AcDbEntity
  8
SARR_2.2x7
 62
40
370
25
100
AcDbLine
 10
3659.279874776419
 20
3308.519056670622
 30
0.0
 11
3821.279874776419
 21
3308.519056670496
 31
0.0
  0
LINE
  5
4E
330
17
100
AcDbEntity
  8
SARR_2.2x7
 62
40
370
25
100
AcDbLine
 10
3659.279874776419
 20
3315.519056670318
 30
0.0
 11
3821.279874776419
 21
3315.51905667019
 31
0.0
  0
LINE
  5
4F
330
17
100
AcDbEntity
  8
SARR_2.2x7
 62
40
370
25
100
AcDbLine
 10
3886.27987477642
 20
3308.519056670665
 30
0.0
 11
3985.32501553561
 21
3308.519056670617
 31
0.0
  0
LINE
  5
50
330
17
100
AcDbEntity
  8
SARR_2.2x7
 62
40
370
25
100
AcDbLine
 10
3886.27987477642
 20
3315.519056670363
 30
0.0
 11
3985.325015535606
 21
3315.519056670314
 31
0.0
  0
LINE
  5
51
330
17
100
AcDbEntity
  8
Painéis
 62
200
370
25
100
AcDbLine
 10
3886.279874776423
 20
3290.519056670667
 30
0.0
 11
3886.279874776415
 21
3334.519056670667
 31
0.0
  0
LINE
  5
52
330
17
100
AcDbEntity
  8
SARR_2.2x7
 62
40
370
25
100
AcDbLine
 10
3821.279874776419
 20
3327.519056670659
 30
0.0
 11
3886.279874776415
 21
3327.519056670553
 31
0.0
  0
LINE
  5
53
330
17
100
AcDbEntity
  8
SARR_2.2x7
 62
40
370
25
100
AcDbLine
 10
3821.279874776419
 20
3297.519056670669
 30
0.0
 11
3886.27987477642
 21
3297.519056670773
 31
0.0
  0
LINE
  5
54
330
17
100
AcDbEntity
  8
SARR_2.2x7
 62
40
370
25
100
AcDbLine
 10
3821.279874776419
 20
3308.519056670665
 30
0.0
 11
3886.27987477642
 21
3308.519056670633
 31
0.0
  0
LINE
  5
55
330
17
100
AcDbEntity
  8
SARR_2.2x7
 62
40
370
25
100
AcDbLine
 10
3821.279874776419
 20
3315.519056670363
 30
0.0
 11
3886.27987477642
 21
3315.519056670331
 31
0.0
  0
LINE
  5
56
330
17
100
AcDbEntity
  8
SARR_2.2x7
 62
40
370
25
100
AcDbLine
 10
3659.279874776423
 20
3290.519056670649
 30
0.0
 11
3659.279874776419
 21
3297.519056670576
 31
0.0
  0
LINE
  5
57
330
17
100
AcDbEntity
  8
SARR_2.2x7
 62
40
370
25
100
AcDbLine
 10
3659.279874776419
 20
3308.519056670622
 30
0.0
 11
3659.279874776419
 21
3315.51905667032
 31
0.0
  0
LINE
  5
58
330
17
100
AcDbEntity
  8
SARR_2.2x7
 62
40
370
25
100
AcDbLine
 10
3992.279874776423
 20
3114.605168155357
 30
0.0
 11
3884.279874776423
 21
3114.605168155375
 31
0.0
  0
LINE
  5
59
330
17
100
AcDbEntity
  8
SARR_2.2x7
 62
40
370
25
100
AcDbLine
 10
3821.279874776422
 20
3114.605168155271
 30
0.0
 11
3584.234734017233
 21
3114.605168155112
 31
0.0
  0
LINE
  5
5A
330
17
100
AcDbEntity
  8
Painéis
 62
200
370
25
100
AcDbLine
 10
3992.279874776426
 20
3121.605168155265
 30
0.0
 11
3577.279874776423
 21
3121.60516815529
 31
0.0
  0
LINE
  5
5B
330
17
100
AcDbEntity
  8
Painéis
 62
200
370
25
100
AcDbLine
 10
3992.279874776423
 20
3077.605168155264
 30
0.0
 11
3577.279874776423
 21
3077.60516815529
 31
0.0
  0
LINE
  5
5C
330
17
100
AcDbEntity
  8
Painéis
 62
200
370
25
100
AcDbLine
 10
3577.279874776423
 20
3077.60516815529
 30
0.0
 11
3577.279874776423
 21
3121.60516815529
 31
0.0
  0
LINE
  5
5D
330
17
100
AcDbEntity
  8
Painéis
 62
200
370
25
100
AcDbLine
 10
3992.279874776423
 20
3077.605168155264
 30
0.0
 11
3992.279874776423
 21
3121.605168155265
 31
0.0
  0
LINE
  5
5E
330
17
100
AcDbEntity
  8
SARR_2.2x7
 62
40
370
25
100
AcDbLine
 10
3584.234734017237
 20
3077.605168155287
 30
0.0
 11
3584.234734017233
 21
3121.605168155265
 31
0.0
  0
LINE
  5
5F
330
17
100
AcDbEntity
  8
Painéis
 62
200
370
25
100
AcDbLine
 10
3884.279874776423
 20
3077.605168155279
 30
0.0
 11
3884.279874776423
 21
3121.605168155279
 31
0.0
  0
LINE
  5
60
330
17
100
AcDbEntity
  8
COTA
 62
241
370
25
100
AcDbLine
 10
3992.279874776426
 20
3121.605168155265
 30
0.0
 11
3992.279874776426
 21
3133.605168155265
 31
0.0
  0
LINE
  5
61
330
17
100
AcDbEntity
  8
COTA
 62
241
370
25
100
AcDbLine
 10
3577.279874776426
 20
3136.605168155265
 30
0.0
 11
3577.279874776426
 21
3121.60516815529
 31
0.0
  0
LINE
  5
62
330
17
100
AcDbEntity
  8
SARR_2.2x7
 62
40
370
25
100
AcDbLine
 10
3910.279874776423
 20
3084.605168155188
 30
0.0
 11
3884.279874776423
 21
3084.605168155175
 31
0.0
  0
LINE
  5
63
330
17
100
AcDbEntity
  8
SARR_2.2x7
 62
40
370
25
100
AcDbLine
 10
3821.279874776422
 20
3084.605168155281
 30
0.0
 11
3584.234734017233
 21
3084.60516815544
 31
0.0
  0
LINE
  5
64
330
17
100
AcDbEntity
  8
COTA
 62
241
370
25
100
AcDbLine
 10
3577.279874776426
 20
3136.605168155265
 30
0.0
 11
3792.279874776426
 21
3136.605168155265
 31
0.0
  0
LINE
  5
65
330
17
100
AcDbEntity
  8
SARR_EDITAR
 62
141
370
25
100
AcDbLine
 10
3792.279874776426
 20
3135.105168155265
 30
0.0
 11
3992.279874776426
 21
3135.105168155265
 31
0.0
  0
LINE
  5
66
330
17
100
AcDbEntity
  8
SARR_2.2x7
 62
40
370
25
100
AcDbLine
 10
3910.279874776423
 20
3095.605168155235
 30
0.0
 11
3884.279874776423
 21
3095.605168155108
 31
0.0
  0
LINE
  5
67
330
17
100
AcDbEntity
  8
SARR_2.2x7
 62
40
370
25
100
AcDbLine
 10
3910.279874776423
 20
3102.605168154931
 30
0.0
 11
3884.279874776423
 21
3102.605168154803
 31
0.0
  0
LINE
  5
68
330
17
100
AcDbEntity
  8
SARR_2.2x7
 62
40
370
25
100
AcDbLine
 10
3821.279874776422
 20
3095.605168155277
 30
0.0
 11
3584.234734017233
 21
3095.605168155229
 31
0.0
  0
LINE
  5
69
330
17
100
AcDbEntity
  8
SARR_2.2x7
 62
40
370
25
100
AcDbLine
 10
3821.279874776422
 20
3102.605168154975
 30
0.0
 11
3584.234734017233
 21
3102.605168154926
 31
0.0
  0
LINE
  5
6A
330
17
100
AcDbEntity
  8
Painéis
 62
200
370
25
100
AcDbLine
 10
3821.279874776422
 20
3077.605168155279
 30
0.0
 11
3821.279874776422
 21
3121.605168155279
 31
0.0
  0
LINE
  5
6B
330
17
100
AcDbEntity
  8
SARR_2.2x7
 62
40
370
25
100
AcDbLine
 10
3884.279874776423
 20
3114.605168155271
 30
0.0
 11
3821.279874776422
 21
3114.605168155164
 31
0.0
  0
LINE
  5
6C
330
17
100
AcDbEntity
  8
SARR_2.2x7
 62
40
370
25
100
AcDbLine
 10
3884.279874776423
 20
3084.605168155281
 30
0.0
 11
3821.279874776422
 21
3084.605168155386
 31
0.0
  0
LINE
  5
6D
330
17
100
AcDbEntity
  8
SARR_2.2x7
 62
40
370
25
100
AcDbLine
 10
3884.279874776423
 20
3095.605168155277
 30
0.0
 11
3821.279874776422
 21
3095.605168155245
 31
0.0
  0
LINE
  5
6E
330
17
100
AcDbEntity
  8
SARR_2.2x7
 62
40
370
25
100
AcDbLine
 10
3884.279874776423
 20
3102.605168154975
 30
0.0
 11
3821.279874776422
 21
3102.605168154943
 31
0.0
  0
LINE
  5
6F
330
17
100
AcDbEntity
  8
SARR_2.2x7
 62
40
370
25
100
AcDbLine
 10
3910.279874776423
 20
3077.605168155261
 30
0.0
 11
3910.279874776423
 21
3084.605168155188
 31
0.0
  0
LINE
  5
70
330
17
100
AcDbEntity
  8
SARR_2.2x7
 62
40
370
25
100
AcDbLine
 10
3910.279874776423
 20
3095.605168155235
 30
0.0
 11
3910.279874776423
 21
3102.605168154932
 31
0.0
  0
LINE
  5
71
330
17
100
AcDbEntity
  8
COTA
 62
241
370
25
100
AcDbLine
 10
4050.261517819015
 20
3728.520692852862
 30
0.0
 11
4050.261517819015
 21
2957.764206263758
 31
0.0
  0
LINE
  5
72
330
17
100
AcDbEntity
  8
SARR_2.2x7
 62
40
370
25
100
AcDbLine
 10
4550.658577809432
 20
3540.255638643196
 30
0.0
 11
4636.703718568618
 21
3540.255638643215
 31
0.0
  0
LINE
  5
73
330
17
100
AcDbEntity
  8
SARR_2.2x7
 62
40
370
25
100
AcDbLine
 10
4636.703718568618
 20
3540.255638643215
 30
0.0
 11
4839.703718568613
 21
3540.255638642995
 31
0.0
  0
LINE
  5
74
330
17
100
AcDbEntity
  8
Painéis
 62
200
370
25
100
AcDbLine
 10
4543.703718568615
 20
3547.255638643104
 30
0.0
 11
4846.703718568613
 21
3547.255638643127
 31
0.0
  0
LINE
  5
75
330
17
100
AcDbEntity
  8
Painéis
 62
200
370
25
100
AcDbLine
 10
4543.703718568622
 20
3438.255638643104
 30
0.0
 11
4880.703718568622
 21
3438.255638643129
 31
0.0
  0
LINE
  5
76
330
17
100
AcDbEntity
  8
Painéis
 62
200
370
25
100
AcDbLine
 10
4880.703718568622
 20
3438.255638643129
 30
0.0
 11
4880.703718568618
 21
3503.255638643106
 31
0.0
  0
LINE
  5
77
330
17
100
AcDbEntity
  8
Painéis
 62
200
370
25
100
AcDbLine
 10
4543.703718568618
 20
3503.221252804026
 30
0.0
 11
4543.703718568615
 21
3547.255638643104
 31
0.0
  0
LINE
  5
78
330
17
100
AcDbEntity
  8
SARR_2.2x7
 62
40
370
25
100
AcDbLine
 10
4550.658577809434
 20
3496.221252804025
 30
0.0
 11
4550.658577809432
 21
3547.255638643104
 31
0.0
  0
LINE
  5
79
330
17
100
AcDbEntity
  8
Painéis
 62
200
370
25
100
AcDbLine
 10
4636.703718568622
 20
3438.255638643119
 30
0.0
 11
4636.703718568615
 21
3547.255638643118
 31
0.0
  0
LINE
  5
7A
330
17
100
AcDbEntity
  8
COTA
 62
241
370
25
100
AcDbLine
 10
4880.703718568614
 20
3562.255638643104
 30
0.0
 11
4880.703718568614
 21
3503.255638643106
 31
0.0
  0
LINE
  5
7B
330
17
100
AcDbEntity
  8
SARR_2.2x7
 62
40
370
25
100
AcDbLine
 10
4516.703718568612
 20
3445.25563864304
 30
0.0
 11
4636.703718568618
 21
3445.255638643015
 31
0.0
  0
LINE
  5
7C
330
17
100
AcDbEntity
  8
SARR_2.2x7
 62
40
370
25
100
AcDbLine
 10
4636.703718568618
 20
3445.255638643015
 30
0.0
 11
4756.703718568632
 21
3445.255638643129
 31
0.0
  0
LINE
  5
7D
330
17
100
AcDbEntity
  8
COTA
 62
241
370
25
100
AcDbLine
 10
4880.703718568614
 20
3562.255638643104
 30
0.0
 11
4543.703718568615
 21
3562.255638643104
 31
0.0
  0
LINE
  5
7E
330
17
100
AcDbEntity
  8
SARR_2.2x7
 62
40
370
25
100
AcDbLine
 10
4550.658577809432
 20
3505.685835480485
 30
0.0
 11
4636.703718568618
 21
3505.685835480303
 31
0.0
  0
LINE
  5
7F
330
17
100
AcDbEntity
  8
SARR_2.2x7
 62
40
370
25
100
AcDbLine
 10
4550.658577809432
 20
3512.685835480183
 30
0.0
 11
4636.703718568618
 21
3512.685835479997
 31
0.0
  0
LINE
  5
80
330
17
100
AcDbEntity
  8
SARR_2.2x7
 62
40
370
25
100
AcDbLine
 10
4636.703718568618
 20
3505.685835480502
 30
0.0
 11
4756.703718568707
 21
3505.685835480447
 31
0.0
  0
LINE
  5
81
330
17
100
AcDbEntity
  8
SARR_2.2x7
 62
40
370
25
100
AcDbLine
 10
4636.703718568618
 20
3512.6858354802
 30
0.0
 11
4756.703718568717
 21
3512.685835480143
 31
0.0
  0
LINE
  5
82
330
17
100
AcDbEntity
  8
Painéis
 62
200
370
25
100
AcDbLine
 10
4516.703718568614
 20
3541.255638643104
 30
0.0
 11
4341.748859327796
 21
3541.255638643106
 31
0.0
  0
LINE
  5
83
330
17
100
AcDbEntity
  8
Painéis
 62
200
370
25
100
AcDbLine
 10
4543.703718568611
 20
3438.255638643098
 30
0.0
 11
4312.748859327797
 21
3438.255638643106
 31
0.0
  0
LINE
  5
84
330
17
100
AcDbEntity
  8
Painéis
 62
200
370
25
100
AcDbLine
 10
4312.748859327797
 20
3438.255638643106
 30
0.0
 11
4312.7488593278
 21
3503.255638643084
 31
0.0
  0
LINE
  5
85
330
17
100
AcDbEntity
  8
COTA
 62
241
370
25
100
AcDbLine
 10
4312.7488593278
 20
3562.255638643082
 30
0.0
 11
4312.7488593278
 21
3503.255638643084
 31
0.0
  0
LINE
  5
86
330
17
100
AcDbEntity
  8
SARR_2.2x7
 62
40
370
25
100
AcDbLine
 10
4516.703718568614
 20
3558.755638643074
 30
0.0
 11
4341.748859327801
 21
3558.755638643081
 31
0.0
  0
LINE
  5
87
330
17
100
AcDbEntity
  8
SARR_2.2x7
 62
40
370
25
100
AcDbLine
 10
4516.703718568612
 20
3445.255638643049
 30
0.0
 11
4404.748859327797
 21
3445.255638643167
 31
0.0
  0
LINE
  5
88
330
17
100
AcDbEntity
  8
SARR_2.2x7
 62
40
370
25
100
AcDbLine
 10
4404.748859327796
 20
3505.685835480524
 30
0.0
 11
4509.703718568611
 21
3505.685835480505
 31
0.0
  0
LINE
  5
89
330
17
100
AcDbEntity
  8
SARR_2.2x7
 62
40
370
25
100
AcDbLine
 10
4404.748859327796
 20
3512.685835480221
 30
0.0
 11
4509.703718568611
 21
3512.685835480201
 31
0.0
  0
LINE
  5
8A
330
17
100
AcDbEntity
  8
SARR_2.2x7
 62
40
370
25
100
AcDbLine
 10
4509.703718568608
 20
3534.255638643148
 30
0.0
 11
4348.748859327801
 21
3534.255638642986
 31
0.0
  0
LINE
  5
8B
330
17
100
AcDbEntity
  8
COTA
 62
241
370
25
100
AcDbLine
 10
4341.748859327801
 20
3562.255638643081
 30
0.0
 11
4312.748859327801
 21
3562.255638643082
 31
0.0
  0
LINE
  5
8C
330
17
100
AcDbEntity
  8
SARR_2.2x7
 62
40
370
25
100
AcDbLine
 10
4404.748859327796
 20
3472.39876381117
 30
0.0
 11
4516.703718568614
 21
3472.398763811149
 31
0.0
  0
LINE
  5
8D
330
17
100
AcDbEntity
  8
SARR_2.2x7
 62
40
370
25
100
AcDbLine
 10
4404.748859327796
 20
3479.398763810868
 30
0.0
 11
4516.703718568613
 21
3479.398763810845
 31
0.0
  0
LINE
  5
8E
330
17
100
AcDbEntity
  8
SARR_2.2x7
 62
40
370
25
100
AcDbLine
 10
4404.748859327799
 20
3438.255638643085
 30
0.0
 11
4404.748859327796
 21
3445.255638643167
 31
0.0
  0
LINE
  5
8F
330
17
100
AcDbEntity
  8
SARR_2.2x7
 62
40
370
25
100
AcDbLine
 10
4404.748859327796
 20
3472.39876381117
 30
0.0
 11
4404.748859327796
 21
3479.398763810867
 31
0.0
  0
LINE
  5
90
330
17
100
AcDbEntity
  8
SARR_2.2x7
 62
40
370
25
100
AcDbLine
 10
4404.748859327796
 20
3505.685835480524
 30
0.0
 11
4404.748859327796
 21
3512.685835480221
 31
0.0
  0
LINE
  5
91
330
17
100
AcDbEntity
  8
SARR_2.2x7
 62
40
370
25
100
AcDbLine
 10
4319.748859327794
 20
3438.255638643101
 30
0.0
 11
4319.748859327794
 21
3503.255638643084
 31
0.0
  0
LINE
  5
92
330
17
100
AcDbEntity
  8
Painéis
 62
200
370
25
100
AcDbLine
 10
4312.748859327801
 20
3503.255638643084
 30
0.0
 11
4341.748859327801
 21
3503.255638643084
 31
0.0
  0
LINE
  5
93
330
17
100
AcDbEntity
  8
SARR_2.2x7
 62
40
370
25
100
AcDbLine
 10
4312.748859327801
 20
3496.255638643084
 30
0.0
 11
4341.748859327799
 21
3496.255638643084
 31
0.0
  0
LINE
  5
94
330
17
100
AcDbEntity
  8
Painéis
 62
200
370
25
100
AcDbLine
 10
4341.748859327801
 20
3503.255638643084
 30
0.0
 11
4341.748859327803
 21
3541.255638643106
 31
0.0
  0
LINE
  5
95
330
17
100
AcDbEntity
  8
SARR_2.2x7
 62
40
370
25
100
AcDbLine
 10
4348.748859327801
 20
3496.255638643084
 30
0.0
 11
4348.748859327803
 21
3541.255638643106
 31
0.0
  0
LINE
  5
96
330
17
100
AcDbEntity
  8
SARR_2.2x7
 62
40
370
25
100
AcDbLine
 10
4341.748859327801
 20
3503.255638643088
 30
0.0
 11
4341.748859327799
 21
3496.255638643084
 31
0.0
  0
LINE
  5
97
330
17
100
AcDbEntity
  8
SARR_2.2x7
 62
40
370
25
100
AcDbLine
 10
4341.748859327799
 20
3496.255638643084
 30
0.0
 11
4348.748859327801
 21
3496.255638643084
 31
0.0
  0
LINE
  5
98
330
17
100
AcDbEntity
  8
SARR_2.2x7
 62
40
370
25
100
AcDbLine
 10
4516.703718568614
 20
3472.398763811204
 30
0.0
 11
4636.703718568618
 21
3472.398763810949
 31
0.0
  0
LINE
  5
99
330
17
100
AcDbEntity
  8
SARR_2.2x7
 62
40
370
25
100
AcDbLine
 10
4516.703718568614
 20
3479.398763810904
 30
0.0
 11
4636.703718568618
 21
3479.398763810642
 31
0.0
  0
LINE
  5
9A
330
17
100
AcDbEntity
  8
SARR_2.2x7
 62
40
370
25
100
AcDbLine
 10
4636.703718568618
 20
3472.398763811148
 30
0.0
 11
4756.703718568664
 21
3472.398763811092
 31
0.0
  0
LINE
  5
9B
330
17
100
AcDbEntity
  8
SARR_2.2x7
 62
40
370
25
100
AcDbLine
 10
4636.703718568618
 20
3479.398763810845
 30
0.0
 11
4756.703718568675
 21
3479.398763810789
 31
0.0
  0
LINE
  5
9C
330
17
100
AcDbEntity
  8
Painéis
 62
200
370
25
100
AcDbLine
 10
4880.703718568614
 20
3503.255638643106
 30
0.0
 11
4846.703718568615
 21
3503.255638643106
 31
0.0
  0
LINE
  5
9D
330
17
100
AcDbEntity
  8
SARR_2.2x7
 62
40
370
25
100
AcDbLine
 10
4880.703718568614
 20
3496.255638643106
 30
0.0
 11
4846.703718568616
 21
3496.255638643106
 31
0.0
  0
LINE
  5
9E
330
17
100
AcDbEntity
  8
Painéis
 62
200
370
25
100
AcDbLine
 10
4846.703718568615
 20
3503.255638643106
 30
0.0
 11
4846.703718568613
 21
3547.255638643127
 31
0.0
  0
LINE
  5
9F
330
17
100
AcDbEntity
  8
SARR_2.2x7
 62
40
370
25
100
AcDbLine
 10
4839.703718568615
 20
3496.255638643106
 30
0.0
 11
4839.703718568613
 21
3547.255638643127
 31
0.0
  0
LINE
  5
A0
330
17
100
AcDbEntity
  8
SARR_2.2x7
 62
40
370
25
100
AcDbLine
 10
4846.703718568615
 20
3503.25563864311
 30
0.0
 11
4846.703718568616
 21
3496.255638643106
 31
0.0
  0
LINE
  5
A1
330
17
100
AcDbEntity
  8
SARR_2.2x7
 62
40
370
25
100
AcDbLine
 10
4846.703718568616
 20
3496.255638643106
 30
0.0
 11
4839.703718568615
 21
3496.255638643106
 31
0.0
  0
LINE
  5
A2
330
17
100
AcDbEntity
  8
SARR_2.2x7
 62
40
370
25
100
AcDbLine
 10
4756.703718568622
 20
3438.255638643129
 30
0.0
 11
4756.703718568632
 21
3445.255638643129
 31
0.0
  0
LINE
  5
A3
330
17
100
AcDbEntity
  8
SARR_2.2x7
 62
40
370
25
100
AcDbLine
 10
4756.703718568665
 20
3472.398763811092
 30
0.0
 11
4756.703718568675
 21
3479.39876381079
 31
0.0
  0
LINE
  5
A4
330
17
100
AcDbEntity
  8
SARR_2.2x7
 62
40
370
25
100
AcDbLine
 10
4756.703718568707
 20
3505.685835480446
 30
0.0
 11
4756.703718568717
 21
3512.685835480143
 31
0.0
  0
LINE
  5
A5
330
17
100
AcDbEntity
  8
SARR_2.2x7
 62
40
370
25
100
AcDbLine
 10
4873.703718568626
 20
3438.255638643124
 30
0.0
 11
4873.703718568626
 21
3503.255638643107
 31
0.0
  0
LINE
  5
A6
330
17
100
AcDbEntity
  8
Painéis
 62
200
370
25
100
AcDbLine
 10
4516.703718568611
 20
3438.255638643108
 30
0.0
 11
4516.703718568614
 21
3503.221252804029
 31
0.0
  0
LINE
  5
A7
330
17
100
AcDbEntity
  8
Painéis
 62
200
370
25
100
AcDbLine
 10
4543.703718568611
 20
3503.221252804026
 30
0.0
 11
4516.703718568611
 21
3503.221252804026
 31
0.0
  0
LINE
  5
A8
330
17
100
AcDbEntity
  8
SARR_2.2x7
 62
40
370
25
100
AcDbLine
 10
4543.703718568611
 20
3496.221252804025
 30
0.0
 11
4516.703718568613
 21
3496.221252804025
 31
0.0
  0
LINE
  5
A9
330
17
100
AcDbEntity
  8
Painéis
 62
200
370
25
100
AcDbLine
 10
4516.703718568611
 20
3503.221252804026
 30
0.0
 11
4516.703718568609
 21
3541.255638643104
 31
0.0
  0
LINE
  5
AA
330
17
100
AcDbEntity
  8
SARR_2.2x7
 62
40
370
25
100
AcDbLine
 10
4509.703718568611
 20
3496.221252804025
 30
0.0
 11
4509.703718568608
 21
3541.255638643104
 31
0.0
  0
LINE
  5
AB
330
17
100
AcDbEntity
  8
SARR_2.2x7
 62
40
370
25
100
AcDbLine
 10
4516.703718568611
 20
3503.22125280403
 30
0.0
 11
4516.703718568613
 21
3496.221252804025
 31
0.0
  0
LINE
  5
AC
330
17
100
AcDbEntity
  8
SARR_2.2x7
 62
40
370
25
100
AcDbLine
 10
4516.703718568613
 20
3496.221252804025
 30
0.0
 11
4509.703718568611
 21
3496.221252804025
 31
0.0
  0
LINE
  5
AD
330
17
100
AcDbEntity
  8
COTA
 62
241
370
25
100
AcDbLine
 10
4516.703718568614
 20
3562.255638643104
 30
0.0
 11
4543.703718568615
 21
3562.255638643104
 31
0.0
  0
LINE
  5
AE
330
17
100
AcDbEntity
  8
SARR_2.2x7
 62
40
370
25
100
AcDbLine
 10
4642.794000086987
 20
3230.790591917445
 30
0.0
 11
4556.748859327801
 21
3230.790591917463
 31
0.0
  0
LINE
  5
AF
330
17
100
AcDbEntity
  8
SARR_2.2x7
 62
40
370
25
100
AcDbLine
 10
4556.748859327801
 20
3230.790591917463
 30
0.0
 11
4353.748859327807
 21
3230.790591917243
 31
0.0
  0
LINE
  5
B0
330
17
100
AcDbEntity
  8
Painéis
 62
200
370
25
100
AcDbLine
 10
4649.748859327805
 20
3237.790591917352
 30
0.0
 11
4346.748859327806
 21
3237.790591917375
 31
0.0
  0
LINE
  5
B1
330
17
100
AcDbEntity
  8
Painéis
 62
200
370
25
100
AcDbLine
 10
4676.748859327815
 20
3128.79059191735
 30
0.0
 11
4312.748859327797
 21
3128.790591917378
 31
0.0
  0
LINE
  5
B2
330
17
100
AcDbEntity
  8
Painéis
 62
200
370
25
100
AcDbLine
 10
4312.748859327797
 20
3128.790591917378
 30
0.0
 11
4312.748859327801
 21
3193.790591917354
 31
0.0
  0
LINE
  5
B3
330
17
100
AcDbEntity
  8
Painéis
 62
200
370
25
100
AcDbLine
 10
4649.748859327802
 20
3193.756206078274
 30
0.0
 11
4649.748859327805
 21
3237.790591917352
 31
0.0
  0
LINE
  5
B4
330
17
100
AcDbEntity
  8
SARR_2.2x7
 62
40
370
25
100
AcDbLine
 10
4642.794000086984
 20
3186.756206078273
 30
0.0
 11
4642.794000086987
 21
3237.790591917352
 31
0.0
  0
LINE
  5
B5
330
17
100
AcDbEntity
  8
Painéis
 62
200
370
25
100
AcDbLine
 10
4556.748859327798
 20
3128.790591917367
 30
0.0
 11
4556.748859327805
 21
3237.790591917367
 31
0.0
  0
LINE
  5
B6
330
17
100
AcDbEntity
  8
COTA
 62
241
370
25
100
AcDbLine
 10
4312.748859327805
 20
3252.790591917352
 30
0.0
 11
4312.748859327805
 21
3193.790591917354
 31
0.0
  0
LINE
  5
B7
330
17
100
AcDbEntity
  8
SARR_2.2x7
 62
40
370
25
100
AcDbLine
 10
4676.748859327815
 20
3135.790591917289
 30
0.0
 11
4556.748859327801
 21
3135.790591917263
 31
0.0
  0
LINE
  5
B8
330
17
100
AcDbEntity
  8
SARR_2.2x7
 62
40
370
25
100
AcDbLine
 10
4556.748859327801
 20
3135.790591917263
 30
0.0
 11
4436.748859327788
 21
3135.790591917377
 31
0.0
  0
LINE
  5
B9
330
17
100
AcDbEntity
  8
COTA
 62
241
370
25
100
AcDbLine
 10
4312.748859327805
 20
3252.790591917352
 30
0.0
 11
4649.748859327805
 21
3252.790591917352
 31
0.0
  0
LINE
  5
BA
330
17
100
AcDbEntity
  8
SARR_2.2x7
 62
40
370
25
100
AcDbLine
 10
4642.794000086987
 20
3196.220788754734
 30
0.0
 11
4556.748859327801
 21
3196.220788754551
 31
0.0
  0
LINE
  5
BB
330
17
100
AcDbEntity
  8
SARR_2.2x7
 62
40
370
25
100
AcDbLine
 10
4642.794000086987
 20
3203.220788754432
 30
0.0
 11
4556.748859327801
 21
3203.220788754245
 31
0.0
  0
LINE
  5
BC
330
17
100
AcDbEntity
  8
SARR_2.2x7
 62
40
370
25
100
AcDbLine
 10
4556.748859327801
 20
3196.220788754751
 30
0.0
 11
4436.748859327712
 21
3196.220788754696
 31
0.0
  0
LINE
  5
BD
330
17
100
AcDbEntity
  8
SARR_2.2x7
 62
40
370
25
100
AcDbLine
 10
4556.748859327801
 20
3203.220788754448
 30
0.0
 11
4436.748859327702
 21
3203.220788754391
 31
0.0
  0
LINE
  5
BE
330
17
100
AcDbEntity
  8
Painéis
 62
200
370
25
100
AcDbLine
 10
4676.748859327805
 20
3231.790591917352
 30
0.0
 11
4851.703718568624
 21
3231.790591917355
 31
0.0
  0
LINE
  5
BF
330
17
100
AcDbEntity
  8
Painéis
 62
200
370
25
100
AcDbLine
 10
4676.748859327815
 20
3128.790591917343
 30
0.0
 11
4880.703718568622
 21
3128.790591917355
 31
0.0
  0
LINE
  5
C0
330
17
100
AcDbEntity
  8
Painéis
 62
200
370
25
100
AcDbLine
 10
4880.703718568622
 20
3128.790591917355
 30
0.0
 11
4880.703718568621
 21
3193.790591917333
 31
0.0
  0
LINE
  5
C1
330
17
100
AcDbEntity
  8
COTA
 62
241
370
25
100
AcDbLine
 10
4880.703718568621
 20
3252.790591917331
 30
0.0
 11
4880.703718568621
 21
3193.790591917333
 31
0.0
  0
LINE
  5
C2
330
17
100
AcDbEntity
  8
SARR_2.2x7
 62
40
370
25
100
AcDbLine
 10
4676.748859327805
 20
3249.290591917322
 30
0.0
 11
4851.703718568618
 21
3249.290591917329
 31
0.0
  0
LINE
  5
C3
330
17
100
AcDbEntity
  8
SARR_2.2x7
 62
40
370
25
100
AcDbLine
 10
4676.748859327815
 20
3135.790591917298
 30
0.0
 11
4788.703718568622
 21
3135.790591917415
 31
0.0
  0
LINE
  5
C4
330
17
100
AcDbEntity
  8
SARR_2.2x7
 62
40
370
25
100
AcDbLine
 10
4788.703718568624
 20
3196.220788754772
 30
0.0
 11
4683.748859327809
 21
3196.220788754754
 31
0.0
  0
LINE
  5
C5
330
17
100
AcDbEntity
  8
SARR_2.2x7
 62
40
370
25
100
AcDbLine
 10
4788.703718568624
 20
3203.22078875447
 30
0.0
 11
4683.748859327809
 21
3203.22078875445
 31
0.0
  0
LINE
  5
C6
330
17
100
AcDbEntity
  8
SARR_2.2x7
 62
40
370
25
100
AcDbLine
 10
4683.748859327812
 20
3224.790591917396
 30
0.0
 11
4844.703718568618
 21
3224.790591917235
 31
0.0
  0
LINE
  5
C7
330
17
100
AcDbEntity
  8
COTA
 62
241
370
25
100
AcDbLine
 10
4851.703718568618
 20
3252.790591917329
 30
0.0
 11
4880.703718568618
 21
3252.790591917331
 31
0.0
  0
LINE
  5
C8
330
17
100
AcDbEntity
  8
SARR_2.2x7
 62
40
370
25
100
AcDbLine
 10
4788.703718568624
 20
3162.933717085418
 30
0.0
 11
4676.748859327813
 21
3162.933717085398
 31
0.0
  0
LINE
  5
C9
330
17
100
AcDbEntity
  8
SARR_2.2x7
 62
40
370
25
100
AcDbLine
 10
4788.703718568624
 20
3169.933717085116
 30
0.0
 11
4676.748859327813
 21
3169.933717085094
 31
0.0
  0
LINE
  5
CA
330
17
100
AcDbEntity
  8
SARR_2.2x7
 62
40
370
25
100
AcDbLine
 10
4788.70371856862
 20
3128.790591917333
 30
0.0
 11
4788.703718568624
 21
3135.790591917415
 31
0.0
  0
LINE
  5
CB
330
17
100
AcDbEntity
  8
SARR_2.2x7
 62
40
370
25
100
AcDbLine
 10
4788.703718568624
 20
3162.933717085418
 30
0.0
 11
4788.703718568624
 21
3169.933717085116
 31
0.0
  0
LINE
  5
CC
330
17
100
AcDbEntity
  8
SARR_2.2x7
 62
40
370
25
100
AcDbLine
 10
4788.703718568624
 20
3196.220788754772
 30
0.0
 11
4788.703718568624
 21
3203.22078875447
 31
0.0
  0
LINE
  5
CD
330
17
100
AcDbEntity
  8
SARR_2.2x7
 62
40
370
25
100
AcDbLine
 10
4873.703718568626
 20
3128.79059191735
 30
0.0
 11
4873.703718568626
 21
3193.790591917332
 31
0.0
  0
LINE
  5
CE
330
17
100
AcDbEntity
  8
Painéis
 62
200
370
25
100
AcDbLine
 10
4880.703718568618
 20
3193.790591917333
 30
0.0
 11
4851.703718568618
 21
3193.790591917333
 31
0.0
  0
LINE
  5
CF
330
17
100
AcDbEntity
  8
SARR_2.2x7
 62
40
370
25
100
AcDbLine
 10
4880.703718568618
 20
3186.790591917333
 30
0.0
 11
4851.703718568621
 21
3186.790591917333
 31
0.0
  0
LINE
  5
D0
330
17
100
AcDbEntity
  8
Painéis
 62
200
370
25
100
AcDbLine
 10
4851.703718568618
 20
3193.790591917333
 30
0.0
 11
4851.703718568617
 21
3231.790591917355
 31
0.0
  0
LINE
  5
D1
330
17
100
AcDbEntity
  8
SARR_2.2x7
 62
40
370
25
100
AcDbLine
 10
4844.703718568618
 20
3186.790591917333
 30
0.0
 11
4844.703718568617
 21
3231.790591917355
 31
0.0
  0
LINE
  5
D2
330
17
100
AcDbEntity
  8
SARR_2.2x7
 62
40
370
25
100
AcDbLine
 10
4851.703718568618
 20
3193.790591917337
 30
0.0
 11
4851.703718568621
 21
3186.790591917333
 31
0.0
  0
LINE
  5
D3
330
17
100
AcDbEntity
  8
SARR_2.2x7
 62
40
370
25
100
AcDbLine
 10
4851.703718568621
 20
3186.790591917333
 30
0.0
 11
4844.703718568618
 21
3186.790591917333
 31
0.0
  0
LINE
  5
D4
330
17
100
AcDbEntity
  8
SARR_2.2x7
 62
40
370
25
100
AcDbLine
 10
4676.748859327814
 20
3162.933717085453
 30
0.0
 11
4556.748859327801
 21
3162.933717085197
 31
0.0
  0
LINE
  5
D5
330
17
100
AcDbEntity
  8
SARR_2.2x7
 62
40
370
25
100
AcDbLine
 10
4676.748859327814
 20
3169.933717085152
 30
0.0
 11
4556.748859327801
 21
3169.93371708489
 31
0.0
  0
LINE
  5
D6
330
17
100
AcDbEntity
  8
SARR_2.2x7
 62
40
370
25
100
AcDbLine
 10
4556.748859327801
 20
3162.933717085396
 30
0.0
 11
4436.748859327756
 21
3162.93371708534
 31
0.0
  0
LINE
  5
D7
330
17
100
AcDbEntity
  8
SARR_2.2x7
 62
40
370
25
100
AcDbLine
 10
4556.748859327801
 20
3169.933717085094
 30
0.0
 11
4436.748859327745
 21
3169.933717085038
 31
0.0
  0
LINE
  5
D8
330
17
100
AcDbEntity
  8
Painéis
 62
200
370
25
100
AcDbLine
 10
4312.748859327805
 20
3193.790591917354
 30
0.0
 11
4346.748859327805
 21
3193.790591917354
 31
0.0
  0
LINE
  5
D9
330
17
100
AcDbEntity
  8
SARR_2.2x7
 62
40
370
25
100
AcDbLine
 10
4312.748859327805
 20
3186.790591917354
 30
0.0
 11
4346.748859327803
 21
3186.790591917354
 31
0.0
  0
LINE
  5
DA
330
17
100
AcDbEntity
  8
Painéis
 62
200
370
25
100
AcDbLine
 10
4346.748859327805
 20
3193.790591917354
 30
0.0
 11
4346.748859327806
 21
3237.790591917376
 31
0.0
  0
LINE
  5
DB
330
17
100
AcDbEntity
  8
SARR_2.2x7
 62
40
370
25
100
AcDbLine
 10
4353.748859327804
 20
3186.790591917354
 30
0.0
 11
4353.748859327807
 21
3237.790591917375
 31
0.0
  0
LINE
  5
DC
330
17
100
AcDbEntity
  8
SARR_2.2x7
 62
40
370
25
100
AcDbLine
 10
4346.748859327805
 20
3193.790591917358
 30
0.0
 11
4346.748859327803
 21
3186.790591917354
 31
0.0
  0
LINE
  5
DD
330
17
100
AcDbEntity
  8
SARR_2.2x7
 62
40
370
25
100
AcDbLine
 10
4346.748859327803
 20
3186.790591917354
 30
0.0
 11
4353.748859327804
 21
3186.790591917354
 31
0.0
  0
LINE
  5
DE
330
17
100
AcDbEntity
  8
SARR_2.2x7
 62
40
370
25
100
AcDbLine
 10
4436.748859327797
 20
3128.790591917378
 30
0.0
 11
4436.748859327788
 21
3135.790591917378
 31
0.0
  0
LINE
  5
DF
330
17
100
AcDbEntity
  8
SARR_2.2x7
 62
40
370
25
100
AcDbLine
 10
4436.748859327754
 20
3162.933717085341
 30
0.0
 11
4436.748859327745
 21
3169.933717085038
 31
0.0
  0
LINE
  5
E0
330
17
100
AcDbEntity
  8
SARR_2.2x7
 62
40
370
25
100
AcDbLine
 10
4436.748859327712
 20
3196.220788754695
 30
0.0
 11
4436.748859327702
 21
3203.220788754391
 31
0.0
  0
LINE
  5
E1
330
17
100
AcDbEntity
  8
SARR_2.2x7
 62
40
370
25
100
AcDbLine
 10
4319.748859327794
 20
3128.790591917372
 30
0.0
 11
4319.748859327794
 21
3193.790591917355
 31
0.0
  0
LINE
  5
E2
330
17
100
AcDbEntity
  8
Painéis
 62
200
370
25
100
AcDbLine
 10
4676.748859327815
 20
3128.790591917345
 30
0.0
 11
4676.748859327811
 21
3193.756206078266
 31
0.0
  0
LINE
  5
E3
330
17
100
AcDbEntity
  8
Painéis
 62
200
370
25
100
AcDbLine
 10
4649.748859327808
 20
3193.756206078274
 30
0.0
 11
4676.748859327808
 21
3193.756206078274
 31
0.0
  0
LINE
  5
E4
330
17
100
AcDbEntity
  8
SARR_2.2x7
 62
40
370
25
100
AcDbLine
 10
4649.748859327808
 20
3186.756206078274
 30
0.0
 11
4676.748859327807
 21
3186.756206078274
 31
0.0
  0
LINE
  5
E5
330
17
100
AcDbEntity
  8
Painéis
 62
200
370
25
100
AcDbLine
 10
4676.748859327808
 20
3193.756206078274
 30
0.0
 11
4676.74885932781
 21
3231.790591917352
 31
0.0
  0
LINE
  5
E6
330
17
100
AcDbEntity
  8
SARR_2.2x7
 62
40
370
25
100
AcDbLine
 10
4683.748859327809
 20
3186.756206078274
 30
0.0
 11
4683.748859327812
 21
3231.790591917352
 31
0.0
  0
LINE
  5
E7
330
17
100
AcDbEntity
  8
SARR_2.2x7
 62
40
370
25
100
AcDbLine
 10
4676.748859327808
 20
3193.756206078278
 30
0.0
 11
4676.748859327807
 21
3186.756206078274
 31
0.0
  0
LINE
  5
E8
330
17
100
AcDbEntity
  8
SARR_2.2x7
 62
40
370
25
100
AcDbLine
 10
4676.748859327807
 20
3186.756206078274
 30
0.0
 11
4683.748859327809
 21
3186.756206078274
 31
0.0
  0
LINE
  5
E9
330
17
100
AcDbEntity
  8
COTA
 62
241
370
25
100
AcDbLine
 10
4676.748859327805
 20
3252.790591917352
 30
0.0
 11
4649.748859327805
 21
3252.790591917352
 31
0.0
  0
LINE
  5
EA
330
17
100
AcDbEntity
  8
SARR_EDITAR
 62
141
370
25
100
AcDbLine
 10
4725.703718568626
 20
3560.755638643104
 30
0.0
 11
4846.703718568626
 21
3560.755638643104
 31
0.0
  0
LINE
  5
EB
330
17
100
AcDbEntity
  8
SARR_EDITAR
 62
141
370
25
100
AcDbLine
 10
4346.748859327794
 20
3251.290591917352
 30
0.0
 11
4467.748859327794
 21
3251.290591917352
 31
0.0
  0
LINE
  5
EC
330
17
100
AcDbEntity
  8
SARR_2.2x7
 62
40
370
25
100
AcDbLine
 10
4543.703718568613
 20
3503.22125280403
 30
0.0
 11
4543.703718568611
 21
3496.221252804025
 31
0.0
  0
LINE
  5
ED
330
17
100
AcDbEntity
  8
SARR_2.2x7
 62
40
370
25
100
AcDbLine
 10
4543.703718568611
 20
3496.221252804025
 30
0.0
 11
4550.703718568612
 21
3496.221252804025
 31
0.0
  0
LINE
  5
EE
330
17
100
AcDbEntity
  8
SARR_2.2x7
 62
40
370
25
100
AcDbLine
 10
4649.748859327806
 20
3193.756206078278
 30
0.0
 11
4649.748859327808
 21
3186.756206078274
 31
0.0
  0
LINE
  5
EF
330
17
100
AcDbEntity
  8
SARR_2.2x7
 62
40
370
25
100
AcDbLine
 10
4649.748859327808
 20
3186.756206078274
 30
0.0
 11
4642.748859327807
 21
3186.756206078274
 31
0.0
  0
LINE
  5
F0
330
17
100
AcDbEntity
  8
Painéis
 62
200
370
25
100
AcDbLine
 10
4182.540543482837
 20
3191.196170128368
 30
0.0
 11
4144.585525366754
 21
3191.196170128368
 31
0.0
  0
LINE
  5
F1
330
17
100
AcDbEntity
  8
Painéis
 62
200
370
25
100
AcDbLine
 10
4182.540543482837
 20
3061.196170128377
 30
0.0
 11
4144.601687143367
 21
3061.196170128366
 31
0.0
  0
LINE
  5
F2
330
17
100
AcDbEntity
  8
Painéis
 62
200
370
25
100
AcDbLine
 10
4144.601687143367
 20
3061.196170128366
 30
0.0
 11
4144.585525366754
 21
3191.196170128368
 31
0.0
  0
LINE
  5
F3
330
17
100
AcDbEntity
  8
Painéis
 62
200
370
25
100
AcDbLine
 10
4182.540543482837
 20
3191.196170128368
 30
0.0
 11
4182.540543482837
 21
3061.196170128377
 31
0.0
  0
LINE
  5
F4
330
17
100
AcDbEntity
  8
COTA
 62
4
370
25
100
AcDbLine
 10
3813.803861368171
 20
3603.520692852856
 30
0.0
 11
3830.675594126211
 21
3603.520692852856
 31
0.0
  0
LINE
  5
F5
330
17
100
AcDbEntity
  8
COTA
 62
4
370
25
100
AcDbLine
 10
3813.803861368171
 20
3577.520692852842
 30
0.0
 11
3830.675594126211
 21
3577.520692852842
 31
0.0
  0
LINE
  5
F6
330
17
100
AcDbEntity
  8
COTA
 62
4
370
25
100
AcDbLine
 10
3827.67559412621
 20
3603.520692852856
 30
0.0
 11
3827.67559412621
 21
3577.520692852842
 31
0.0
  0
LINE
  5
F7
330
17
100
AcDbEntity
  8
COTA
 62
4
370
25
100
AcDbLine
 10
3676.203861368224
 20
3485.520692852863
 30
0.0
 11
3601.827138279122
 21
3485.520692852863
 31
0.0
  0
LINE
  5
F8
330
17
100
AcDbEntity
  8
COTA
 62
4
370
25
100
AcDbLine
 10
3654.203861368224
 20
3603.520692852856
 30
0.0
 11
3601.827138279122
 21
3603.520692852856
 31
0.0
  0
LINE
  5
F9
330
17
100
AcDbEntity
  8
COTA
 62
4
370
25
100
AcDbLine
 10
3604.827138279122
 20
3485.520692852863
 30
0.0
 11
3604.827138279122
 21
3603.520692852856
 31
0.0
  0
LINE
  5
FA
330
17
100
AcDbEntity
  8
COTA
 62
4
370
25
100
AcDbLine
 10
3787.403861368206
 20
3485.520692852863
 30
0.0
 11
3830.675594126628
 21
3485.520692852863
 31
0.0
  0
LINE
  5
FB
330
17
100
AcDbEntity
  8
COTA
 62
4
370
25
100
AcDbLine
 10
3813.803861368171
 20
3573.520692852842
 30
0.0
 11
3830.675594126628
 21
3573.520692852842
 31
0.0
  0
LINE
  5
FC
330
17
100
AcDbEntity
  8
COTA
 62
4
370
25
100
AcDbLine
 10
3827.675594126628
 20
3485.520692852863
 30
0.0
 11
3827.675594126628
 21
3573.520692852842
 31
0.0
  0
LINE
  5
FD
330
17
100
AcDbEntity
  8
Cota Seção (2x)
 62
180
370
25
100
AcDbLine
 10
3746.303861369857
 20
3551.854026186161
 30
0.0
 11
3746.303861369857
 21
3571.187359519494
 31
0.0
  0
LINE
  5
FE
330
17
100
AcDbEntity
  8
Cota Seção (2x)
 62
180
370
25
100
AcDbLine
 10
3746.303861369857
 20
3571.187359519494
 30
0.0
 11
3731.303861369858
 21
3571.187359519494
 31
0.0
  0
LINE
  5
FF
330
17
100
AcDbEntity
  8
Cota Seção (2x)
 62
180
370
25
100
AcDbLine
 10
3731.303861369858
 20
3571.187359519494
 30
0.0
 11
3731.303861369858
 21
3551.854026186161
 31
0.0
  0
LINE
  5
100
330
17
100
AcDbEntity
  8
Cota Seção (2x)
 62
180
370
25
100
AcDbLine
 10
3731.303861369858
 20
3551.854026186161
 30
0.0
 11
3746.303861369857
 21
3551.854026186161
 31
0.0
  0
LINE
  5
101
330
17
100
AcDbEntity
  8
COTA
 62
4
370
25
100
AcDbLine
 10
3654.203861368224
 20
3603.520692852856
 30
0.0
 11
3621.146566764588
 21
3603.520692852856
 31
0.0
  0
LINE
  5
102
330
17
100
AcDbEntity
  8
COTA
 62
4
370
25
100
AcDbLine
 10
3654.203861368224
 20
3577.520692852834
 30
0.0
 11
3621.146566764588
 21
3577.520692852834
 31
0.0
  0
LINE
  5
103
330
17
100
AcDbEntity
  8
COTA
 62
4
370
25
100
AcDbLine
 10
3624.146566764587
 20
3603.520692852856
 30
0.0
 11
3624.146566764587
 21
3577.520692852834
 31
0.0
  0
LINE
  5
104
330
17
100
AcDbEntity
  8
COTA
 62
4
370
25
100
AcDbLine
 10
3654.203861368224
 20
3573.520692852834
 30
0.0
 11
3621.146566764918
 21
3573.520692852834
 31
0.0
  0
LINE
  5
105
330
17
100
AcDbEntity
  8
COTA
 62
4
370
25
100
AcDbLine
 10
3676.203861368224
 20
3485.520692852863
 30
0.0
 11
3621.146566764918
 21
3485.520692852863
 31
0.0
  0
LINE
  5
106
330
17
100
AcDbEntity
  8
COTA
 62
4
370
25
100
AcDbLine
 10
3624.146566764918
 20
3573.520692852834
 30
0.0
 11
3624.146566764918
 21
3485.520692852863
 31
0.0
  0
LINE
  5
107
330
17
100
AcDbEntity
  8
COTA
 62
4
370
25
100
AcDbLine
 10
3712.803861368199
 20
3482.520692852855
 30
0.0
 11
3712.803861368199
 21
3437.793879050672
 31
0.0
  0
LINE
  5
108
330
17
100
AcDbEntity
  8
COTA
 62
4
370
25
100
AcDbLine
 10
3750.803861368198
 20
3482.520692852855
 30
0.0
 11
3750.803861368198
 21
3437.793879050672
 31
0.0
  0
LINE
  5
109
330
17
100
AcDbEntity
  8
COTA
 62
4
370
25
100
AcDbLine
 10
3712.803861368199
 20
3440.793879050672
 30
0.0
 11
3750.803861368198
 21
3440.793879050672
 31
0.0
  0
LINE
  5
10A
330
17
100
AcDbEntity
  8
Cota Seção (2x)
 62
180
370
25
100
AcDbLine
 10
3722.803861368169
 20
3505.520692852861
 30
0.0
 11
3740.803861368169
 21
3505.520692852861
 31
0.0
  0
LINE
  5
10B
330
17
100
AcDbEntity
  8
Cota Seção (2x)
 62
180
370
25
100
AcDbLine
 10
3740.803861368169
 20
3505.520692852861
 30
0.0
 11
3740.803861368169
 21
3520.520692852862
 31
0.0
  0
LINE
  5
10C
330
17
100
AcDbEntity
  8
Cota Seção (2x)
 62
180
370
25
100
AcDbLine
 10
3740.803861368169
 20
3520.520692852862
 30
0.0
 11
3722.803861368169
 21
3520.520692852862
 31
0.0
  0
LINE
  5
10D
330
17
100
AcDbEntity
  8
Cota Seção (2x)
 62
180
370
25
100
AcDbLine
 10
3722.803861368169
 20
3520.520692852862
 30
0.0
 11
3722.803861368169
 21
3505.520692852861
 31
0.0
  0
LINE
  5
10E
330
17
100
AcDbEntity
  8
COTA
 62
4
370
25
100
AcDbLine
 10
3577.279874776423
 20
3287.519056670652
 30
0.0
 11
3577.279874776423
 21
3260.979130692498
 31
0.0
  0
LINE
  5
10F
330
17
100
AcDbEntity
  8
COTA
 62
4
370
25
100
AcDbLine
 10
3821.279874776422
 20
3287.519056670682
 30
0.0
 11
3821.279874776422
 21
3260.979130692498
 31
0.0
  0
LINE
  5
110
330
17
100
AcDbEntity
  8
COTA
 62
4
370
25
100
AcDbLine
 10
3577.279874776423
 20
3263.979130692497
 30
0.0
 11
3821.279874776422
 21
3263.979130692497
 31
0.0
  0
LINE
  5
111
330
17
100
AcDbEntity
  8
COTA
 62
0
370
25
100
AcDbLine
 10
3578.779874776423
 20
3265.479130692497
 30
0.0
 11
3575.779874776423
 21
3262.479130692497
 31
0.0
  0
LINE
  5
112
330
17
100
AcDbEntity
  8
COTA
 62
0
370
25
100
AcDbLine
 10
3819.779874776422
 20
3262.479130692497
 30
0.0
 11
3822.779874776422
 21
3265.479130692497
 31
0.0
  0
LINE
  5
113
330
17
100
AcDbEntity
  8
COTA
 62
4
370
25
100
AcDbLine
 10
3886.279874776423
 20
3287.519056670688
 30
0.0
 11
3886.279874776423
 21
3260.979130692508
 31
0.0
  0
LINE
  5
114
330
17
100
AcDbEntity
  8
COTA
 62
4
370
25
100
AcDbLine
 10
3992.279874776423
 20
3287.519056670678
 30
0.0
 11
3992.279874776423
 21
3260.979130692508
 31
0.0
  0
LINE
  5
115
330
17
100
AcDbEntity
  8
COTA
 62
4
370
25
100
AcDbLine
 10
3886.279874776423
 20
3263.979130692508
 30
0.0
 11
3992.279874776423
 21
3263.979130692508
 31
0.0
  0
LINE
  5
116
330
17
100
AcDbEntity
  8
COTA
 62
0
370
25
100
AcDbLine
 10
3887.779874776423
 20
3265.479130692508
 30
0.0
 11
3884.779874776423
 21
3262.479130692508
 31
0.0
  0
LINE
  5
117
330
17
100
AcDbEntity
  8
COTA
 62
0
370
25
100
AcDbLine
 10
3990.779874776423
 20
3262.479130692508
 30
0.0
 11
3993.779874776423
 21
3265.479130692508
 31
0.0
  0
LINE
  5
118
330
17
100
AcDbEntity
  8
COTA
 62
4
370
25
100
AcDbLine
 10
3577.279874776423
 20
3287.519056670652
 30
0.0
 11
3577.279874776423
 21
3232.440620003775
 31
0.0
  0
LINE
  5
119
330
17
100
AcDbEntity
  8
COTA
 62
4
370
25
100
AcDbLine
 10
3992.279874776423
 20
3287.519056670678
 30
0.0
 11
3992.279874776423
 21
3232.440620003775
 31
0.0
  0
LINE
  5
11A
330
17
100
AcDbEntity
  8
COTA
 62
4
370
25
100
AcDbLine
 10
3577.279874776423
 20
3235.440620003775
 30
0.0
 11
3992.279874776423
 21
3235.440620003775
 31
0.0
  0
LINE
  5
11B
330
17
100
AcDbEntity
  8
COTA
 62
0
370
25
100
AcDbLine
 10
3578.779874776423
 20
3236.940620003775
 30
0.0
 11
3575.779874776423
 21
3233.940620003775
 31
0.0
  0
LINE
  5
11C
330
17
100
AcDbEntity
  8
COTA
 62
0
370
25
100
AcDbLine
 10
3990.779874776423
 20
3233.940620003775
 30
0.0
 11
3993.779874776423
 21
3236.940620003775
 31
0.0
  0
LINE
  5
11D
330
17
100
AcDbEntity
  8
COTA
 62
4
370
25
100
AcDbLine
 10
3995.279874776429
 20
3334.519056670654
 30
0.0
 11
4018.657306939208
 21
3334.519056670654
 31
0.0
  0
LINE
  5
11E
330
17
100
AcDbEntity
  8
COTA
 62
4
370
25
100
AcDbLine
 10
3995.279874776429
 20
3349.519056670654
 30
0.0
 11
4018.657306939208
 21
3349.519056670654
 31
0.0
  0
LINE
  5
11F
330
17
100
AcDbEntity
  8
COTA
 62
4
370
25
100
AcDbLine
 10
4015.657306939208
 20
3334.519056670654
 30
0.0
 11
4015.657306939208
 21
3349.519056670654
 31
0.0
  0
LINE
  5
120
330
17
100
AcDbEntity
  8
COTA
 62
4
370
25
100
AcDbLine
 10
4015.657306939208
 20
3349.519056670654
 30
0.0
 11
4015.657306939208
 21
3367.890401699894
 31
0.0
  0
LINE
  5
121
330
17
100
AcDbEntity
  8
COTA
 62
0
370
25
100
AcDbLine
 10
4014.157306939208
 20
3336.019056670654
 30
0.0
 11
4017.157306939208
 21
3333.019056670654
 31
0.0
  0
LINE
  5
122
330
17
100
AcDbEntity
  8
COTA
 62
0
370
25
100
AcDbLine
 10
4017.157306939208
 20
3348.019056670654
 30
0.0
 11
4014.157306939208
 21
3351.019056670654
 31
0.0
  0
LINE
  5
123
330
17
100
AcDbEntity
  8
COTA
 62
4
370
25
100
AcDbLine
 10
3995.279874776425
 20
3334.519056670654
 30
0.0
 11
4018.6573069392
 21
3334.519056670654
 31
0.0
  0
LINE
  5
124
330
17
100
AcDbEntity
  8
COTA
 62
4
370
25
100
AcDbLine
 10
3995.279874776425
 20
3290.519056670655
 30
0.0
 11
4018.6573069392
 21
3290.519056670655
 31
0.0
  0
LINE
  5
125
330
17
100
AcDbEntity
  8
COTA
 62
4
370
25
100
AcDbLine
 10
4015.657306939201
 20
3334.519056670654
 30
0.0
 11
4015.657306939201
 21
3290.519056670655
 31
0.0
  0
LINE
  5
126
330
17
100
AcDbEntity
  8
COTA
 62
0
370
25
100
AcDbLine
 10
4017.157306939201
 20
3333.019056670654
 30
0.0
 11
4014.157306939201
 21
3336.019056670654
 31
0.0
  0
LINE
  5
127
330
17
100
AcDbEntity
  8
COTA
 62
0
370
25
100
AcDbLine
 10
4014.157306939201
 20
3292.019056670655
 30
0.0
 11
4017.157306939201
 21
3289.019056670655
 31
0.0
  0
LINE
  5
128
330
17
100
AcDbEntity
  8
COTA
 62
4
370
25
100
AcDbLine
 10
3995.279874776429
 20
3349.519056670654
 30
0.0
 11
4041.78878175643
 21
3349.519056670654
 31
0.0
  0
LINE
  5
129
330
17
100
AcDbEntity
  8
COTA
 62
4
370
25
100
AcDbLine
 10
3995.279874776425
 20
3290.519056670655
 30
0.0
 11
4041.78878175643
 21
3290.519056670655
 31
0.0
  0
LINE
  5
12A
330
17
100
AcDbEntity
  8
COTA
 62
4
370
25
100
AcDbLine
 10
4038.78878175643
 20
3349.519056670654
 30
0.0
 11
4038.78878175643
 21
3290.519056670655
 31
0.0
  0
LINE
  5
12B
330
17
100
AcDbEntity
  8
COTA
 62
0
370
25
100
AcDbLine
 10
4040.28878175643
 20
3348.019056670654
 30
0.0
 11
4037.28878175643
 21
3351.019056670654
 31
0.0
  0
LINE
  5
12C
330
17
100
AcDbEntity
  8
COTA
 62
0
370
25
100
AcDbLine
 10
4037.28878175643
 20
3292.019056670655
 30
0.0
 11
4040.28878175643
 21
3289.019056670655
 31
0.0
  0
LINE
  5
12D
330
17
100
AcDbEntity
  8
COTA
 62
4
370
25
100
AcDbLine
 10
3777.279874776416
 20
3352.519056670653
 30
0.0
 11
3777.279874776416
 21
3359.172028555067
 31
0.0
  0
LINE
  5
12E
330
17
100
AcDbEntity
  8
COTA
 62
4
370
25
100
AcDbLine
 10
3577.279874776416
 20
3352.519056670653
 30
0.0
 11
3577.279874776416
 21
3359.172028555067
 31
0.0
  0
LINE
  5
12F
330
17
100
AcDbEntity
  8
COTA
 62
4
370
25
100
AcDbLine
 10
3777.279874776416
 20
3356.172028555067
 30
0.0
 11
3577.279874776416
 21
3356.172028555067
 31
0.0
  0
LINE
  5
130
330
17
100
AcDbEntity
  8
COTA
 62
0
370
25
100
AcDbLine
 10
3775.779874776416
 20
3354.672028555067
 30
0.0
 11
3778.779874776416
 21
3357.672028555067
 31
0.0
  0
LINE
  5
131
330
17
100
AcDbEntity
  8
COTA
 62
0
370
25
100
AcDbLine
 10
3578.779874776416
 20
3357.672028555067
 30
0.0
 11
3575.779874776416
 21
3354.672028555067
 31
0.0
  0
LINE
  5
132
330
17
100
AcDbEntity
  8
COTA
 62
4
370
25
100
AcDbLine
 10
3574.279874776418
 20
3346.519056670654
 30
0.0
 11
3564.478342835939
 21
3346.519056670654
 31
0.0
  0
LINE
  5
133
330
17
100
AcDbEntity
  8
COTA
 62
4
370
25
100
AcDbLine
 10
3574.279874776418
 20
3349.519056670654
 30
0.0
 11
3564.478342835939
 21
3349.519056670654
 31
0.0
  0
LINE
  5
134
330
17
100
AcDbEntity
  8
COTA
 62
4
370
25
100
AcDbLine
 10
3567.478342835939
 20
3346.519056670654
 30
0.0
 11
3567.478342835939
 21
3343.519056670654
 31
0.0
  0
LINE
  5
135
330
17
100
AcDbEntity
  8
COTA
 62
4
370
25
100
AcDbLine
 10
3567.478342835939
 20
3349.519056670654
 30
0.0
 11
3567.478342835939
 21
3367.84946602738
 31
0.0
  0
LINE
  5
136
330
17
100
AcDbEntity
  8
COTA
 62
4
370
25
100
AcDbLine
 10
3567.478342835939
 20
3346.519056670654
 30
0.0
 11
3567.478342835939
 21
3349.519056670654
 31
0.0
  0
LINE
  5
137
330
17
100
AcDbEntity
  8
COTA
 62
0
370
25
100
AcDbLine
 10
3568.978342835939
 20
3345.019056670654
 30
0.0
 11
3565.978342835939
 21
3348.019056670654
 31
0.0
  0
LINE
  5
138
330
17
100
AcDbEntity
  8
COTA
 62
0
370
25
100
AcDbLine
 10
3565.978342835939
 20
3351.019056670654
 30
0.0
 11
3568.978342835939
 21
3348.019056670654
 31
0.0
  0
LINE
  5
139
330
17
100
AcDbEntity
  8
COTA
 62
4
370
25
100
AcDbLine
 10
3821.279874776422
 20
3287.519056670667
 30
0.0
 11
3821.279874776422
 21
3260.979130692508
 31
0.0
  0
LINE
  5
13A
330
17
100
AcDbEntity
  8
COTA
 62
4
370
25
100
AcDbLine
 10
3886.279874776423
 20
3287.519056670667
 30
0.0
 11
3886.279874776423
 21
3260.979130692508
 31
0.0
  0
LINE
  5
13B
330
17
100
AcDbEntity
  8
COTA
 62
4
370
25
100
AcDbLine
 10
3821.279874776422
 20
3263.979130692508
 30
0.0
 11
3886.279874776423
 21
3263.979130692508
 31
0.0
  0
LINE
  5
13C
330
17
100
AcDbEntity
  8
COTA
 62
0
370
25
100
AcDbLine
 10
3822.779874776422
 20
3265.479130692508
 30
0.0
 11
3819.779874776422
 21
3262.479130692508
 31
0.0
  0
LINE
  5
13D
330
17
100
AcDbEntity
  8
COTA
 62
0
370
25
100
AcDbLine
 10
3884.779874776423
 20
3262.479130692508
 30
0.0
 11
3887.779874776423
 21
3265.479130692508
 31
0.0
  0
LINE
  5
13E
330
17
100
AcDbEntity
  8
COTA
 62
4
370
25
100
AcDbLine
 10
3577.279874776419
 20
3309.519056670653
 30
0.0
 11
3577.279874776419
 21
3308.843936610074
 31
0.0
  0
LINE
  5
13F
330
17
100
AcDbEntity
  8
COTA
 62
4
370
25
100
AcDbLine
 10
3659.279874776419
 20
3309.519056670653
 30
0.0
 11
3659.279874776419
 21
3308.843936610074
 31
0.0
  0
LINE
  5
140
330
17
100
AcDbEntity
  8
COTA
 62
4
370
25
100
AcDbLine
 10
3577.279874776419
 20
3311.843936610074
 30
0.0
 11
3659.279874776419
 21
3311.843936610074
 31
0.0
  0
LINE
  5
141
330
17
100
AcDbEntity
  8
COTA
 62
0
370
25
100
AcDbLine
 10
3578.779874776419
 20
3313.343936610074
 30
0.0
 11
3575.779874776419
 21
3310.343936610074
 31
0.0
  0
LINE
  5
142
330
17
100
AcDbEntity
  8
COTA
 62
0
370
25
100
AcDbLine
 10
3657.779874776419
 20
3310.343936610074
 30
0.0
 11
3660.779874776419
 21
3313.343936610074
 31
0.0
  0
LINE
  5
143
330
17
100
AcDbEntity
  8
COTA
 62
4
370
25
100
AcDbLine
 10
3992.279874776423
 20
3074.605168155265
 30
0.0
 11
3992.279874776423
 21
3048.06524217711
 31
0.0
  0
LINE
  5
144
330
17
100
AcDbEntity
  8
COTA
 62
4
370
25
100
AcDbLine
 10
3884.279874776423
 20
3074.605168155294
 30
0.0
 11
3884.279874776423
 21
3048.06524217711
 31
0.0
  0
LINE
  5
145
330
17
100
AcDbEntity
  8
COTA
 62
4
370
25
100
AcDbLine
 10
3992.279874776423
 20
3051.065242177109
 30
0.0
 11
3884.279874776423
 21
3051.065242177109
 31
0.0
  0
LINE
  5
146
330
17
100
AcDbEntity
  8
COTA
 62
0
370
25
100
AcDbLine
 10
3990.779874776423
 20
3049.565242177109
 30
0.0
 11
3993.779874776423
 21
3052.565242177109
 31
0.0
  0
LINE
  5
147
330
17
100
AcDbEntity
  8
COTA
 62
0
370
25
100
AcDbLine
 10
3885.779874776423
 20
3052.565242177109
 30
0.0
 11
3882.779874776423
 21
3049.565242177109
 31
0.0
  0
LINE
  5
148
330
17
100
AcDbEntity
  8
COTA
 62
4
370
25
100
AcDbLine
 10
3821.279874776419
 20
3074.6051681553
 30
0.0
 11
3821.279874776419
 21
3048.06524217712
 31
0.0
  0
LINE
  5
149
330
17
100
AcDbEntity
  8
COTA
 62
4
370
25
100
AcDbLine
 10
3577.279874776423
 20
3074.60516815529
 30
0.0
 11
3577.279874776423
 21
3048.06524217712
 31
0.0
  0
LINE
  5
14A
330
17
100
AcDbEntity
  8
COTA
 62
4
370
25
100
AcDbLine
 10
3821.279874776419
 20
3051.06524217712
 30
0.0
 11
3577.279874776423
 21
3051.06524217712
 31
0.0
  0
LINE
  5
14B
330
17
100
AcDbEntity
  8
COTA
 62
0
370
25
100
AcDbLine
 10
3819.779874776419
 20
3049.56524217712
 30
0.0
 11
3822.779874776419
 21
3052.56524217712
 31
0.0
  0
LINE
  5
14C
330
17
100
AcDbEntity
  8
COTA
 62
0
370
25
100
AcDbLine
 10
3578.779874776423
 20
3052.56524217712
 30
0.0
 11
3575.779874776423
 21
3049.56524217712
 31
0.0
  0
LINE
  5
14D
330
17
100
AcDbEntity
  8
COTA
 62
4
370
25
100
AcDbLine
 10
3992.279874776423
 20
3074.605168155265
 30
0.0
 11
3992.279874776423
 21
3019.526731488387
 31
0.0
  0
LINE
  5
14E
330
17
100
AcDbEntity
  8
COTA
 62
4
370
25
100
AcDbLine
 10
3577.279874776423
 20
3074.60516815529
 30
0.0
 11
3577.279874776423
 21
3019.526731488387
 31
0.0
  0
LINE
  5
14F
330
17
100
AcDbEntity
  8
COTA
 62
4
370
25
100
AcDbLine
 10
3992.279874776423
 20
3022.526731488387
 30
0.0
 11
3577.279874776423
 21
3022.526731488387
 31
0.0
  0
LINE
  5
150
330
17
100
AcDbEntity
  8
COTA
 62
0
370
25
100
AcDbLine
 10
3990.779874776423
 20
3021.026731488387
 30
0.0
 11
3993.779874776423
 21
3024.026731488387
 31
0.0
  0
LINE
  5
151
330
17
100
AcDbEntity
  8
COTA
 62
0
370
25
100
AcDbLine
 10
3578.779874776423
 20
3024.026731488387
 30
0.0
 11
3575.779874776423
 21
3021.026731488387
 31
0.0
  0
LINE
  5
152
330
17
100
AcDbEntity
  8
COTA
 62
4
370
25
100
AcDbLine
 10
3792.279874776426
 20
3139.605168155265
 30
0.0
 11
3792.279874776426
 21
3146.258140039679
 31
0.0
  0
LINE
  5
153
330
17
100
AcDbEntity
  8
COTA
 62
4
370
25
100
AcDbLine
 10
3992.279874776426
 20
3139.605168155265
 30
0.0
 11
3992.279874776426
 21
3146.258140039679
 31
0.0
  0
LINE
  5
154
330
17
100
AcDbEntity
  8
COTA
 62
4
370
25
100
AcDbLine
 10
3792.279874776426
 20
3143.258140039679
 30
0.0
 11
3992.279874776426
 21
3143.258140039679
 31
0.0
  0
LINE
  5
155
330
17
100
AcDbEntity
  8
COTA
 62
0
370
25
100
AcDbLine
 10
3793.779874776426
 20
3144.758140039679
 30
0.0
 11
3790.779874776426
 21
3141.758140039679
 31
0.0
  0
LINE
  5
156
330
17
100
AcDbEntity
  8
COTA
 62
0
370
25
100
AcDbLine
 10
3990.779874776426
 20
3141.758140039679
 30
0.0
 11
3993.779874776426
 21
3144.758140039679
 31
0.0
  0
LINE
  5
157
330
17
100
AcDbEntity
  8
COTA
 62
4
370
25
100
AcDbLine
 10
3995.279874776429
 20
3133.605168155267
 30
0.0
 11
4018.657306939225
 21
3133.605168155267
 31
0.0
  0
LINE
  5
158
330
17
100
AcDbEntity
  8
COTA
 62
4
370
25
100
AcDbLine
 10
3995.279874776429
 20
3136.605168155266
 30
0.0
 11
4018.657306939225
 21
3136.605168155266
 31
0.0
  0
LINE
  5
159
330
17
100
AcDbEntity
  8
COTA
 62
4
370
25
100
AcDbLine
 10
4015.657306939225
 20
3133.605168155267
 30
0.0
 11
4015.657306939225
 21
3130.605168155267
 31
0.0
  0
LINE
  5
15A
330
17
100
AcDbEntity
  8
COTA
 62
4
370
25
100
AcDbLine
 10
4015.657306939225
 20
3136.605168155266
 30
0.0
 11
4015.657306939225
 21
3154.935577511992
 31
0.0
  0
LINE
  5
15B
330
17
100
AcDbEntity
  8
COTA
 62
4
370
25
100
AcDbLine
 10
4015.657306939225
 20
3133.605168155267
 30
0.0
 11
4015.657306939225
 21
3136.605168155266
 31
0.0
  0
LINE
  5
15C
330
17
100
AcDbEntity
  8
COTA
 62
0
370
25
100
AcDbLine
 10
4017.157306939225
 20
3132.105168155267
 30
0.0
 11
4014.157306939225
 21
3135.105168155267
 31
0.0
  0
LINE
  5
15D
330
17
100
AcDbEntity
  8
COTA
 62
0
370
25
100
AcDbLine
 10
4014.157306939225
 20
3138.105168155266
 30
0.0
 11
4017.157306939225
 21
3135.105168155266
 31
0.0
  0
LINE
  5
15E
330
17
100
AcDbEntity
  8
COTA
 62
4
370
25
100
AcDbLine
 10
3884.279874776423
 20
3074.605168155279
 30
0.0
 11
3884.279874776423
 21
3048.06524217712
 31
0.0
  0
LINE
  5
15F
330
17
100
AcDbEntity
  8
COTA
 62
4
370
25
100
AcDbLine
 10
3821.279874776422
 20
3074.605168155279
 30
0.0
 11
3821.279874776422
 21
3048.06524217712
 31
0.0
  0
LINE
  5
160
330
17
100
AcDbEntity
  8
COTA
 62
4
370
25
100
AcDbLine
 10
3884.279874776423
 20
3051.06524217712
 30
0.0
 11
3821.279874776422
 21
3051.06524217712
 31
0.0
  0
LINE
  5
161
330
17
100
AcDbEntity
  8
COTA
 62
0
370
25
100
AcDbLine
 10
3882.779874776423
 20
3049.56524217712
 30
0.0
 11
3885.779874776423
 21
3052.56524217712
 31
0.0
  0
LINE
  5
162
330
17
100
AcDbEntity
  8
COTA
 62
0
370
25
100
AcDbLine
 10
3822.779874776422
 20
3052.56524217712
 30
0.0
 11
3819.779874776422
 21
3049.56524217712
 31
0.0
  0
LINE
  5
163
330
17
100
AcDbEntity
  8
COTA
 62
4
370
25
100
AcDbLine
 10
3992.279874776423
 20
3096.605168155265
 30
0.0
 11
3992.279874776423
 21
3095.930048094686
 31
0.0
  0
LINE
  5
164
330
17
100
AcDbEntity
  8
COTA
 62
4
370
25
100
AcDbLine
 10
3910.279874776423
 20
3096.605168155265
 30
0.0
 11
3910.279874776423
 21
3095.930048094686
 31
0.0
  0
LINE
  5
165
330
17
100
AcDbEntity
  8
COTA
 62
4
370
25
100
AcDbLine
 10
3992.279874776423
 20
3098.930048094686
 30
0.0
 11
3910.279874776423
 21
3098.930048094686
 31
0.0
  0
LINE
  5
166
330
17
100
AcDbEntity
  8
COTA
 62
0
370
25
100
AcDbLine
 10
3990.779874776423
 20
3097.430048094686
 30
0.0
 11
3993.779874776423
 21
3100.430048094686
 31
0.0
  0
LINE
  5
167
330
17
100
AcDbEntity
  8
COTA
 62
0
370
25
100
AcDbLine
 10
3911.779874776423
 20
3100.430048094686
 30
0.0
 11
3908.779874776423
 21
3097.430048094686
 31
0.0
  0
LINE
  5
168
330
17
100
AcDbEntity
  8
COTA
 62
4
370
25
100
AcDbLine
 10
3995.279874776439
 20
3121.605168155266
 30
0.0
 11
4018.657306939219
 21
3121.605168155266
 31
0.0
  0
LINE
  5
169
330
17
100
AcDbEntity
  8
COTA
 62
4
370
25
100
AcDbLine
 10
3995.279874776429
 20
3133.605168155267
 30
0.0
 11
4018.657306939219
 21
3133.605168155267
 31
0.0
  0
LINE
  5
16A
330
17
100
AcDbEntity
  8
COTA
 62
4
370
25
100
AcDbLine
 10
4015.65730693922
 20
3121.605168155266
 30
0.0
 11
4015.65730693922
 21
3133.605168155267
 31
0.0
  0
LINE
  5
16B
330
17
100
AcDbEntity
  8
COTA
 62
0
370
25
100
AcDbLine
 10
4014.15730693922
 20
3123.105168155266
 30
0.0
 11
4017.15730693922
 21
3120.105168155266
 31
0.0
  0
LINE
  5
16C
330
17
100
AcDbEntity
  8
COTA
 62
0
370
25
100
AcDbLine
 10
4017.15730693922
 20
3132.105168155267
 30
0.0
 11
4014.15730693922
 21
3135.105168155267
 31
0.0
  0
LINE
  5
16D
330
17
100
AcDbEntity
  8
COTA
 62
4
370
25
100
AcDbLine
 10
3995.279874776436
 20
3121.605168155266
 30
0.0
 11
4018.657306939215
 21
3121.605168155266
 31
0.0
  0
LINE
  5
16E
330
17
100
AcDbEntity
  8
COTA
 62
4
370
25
100
AcDbLine
 10
3995.279874776436
 20
3077.605168155266
 30
0.0
 11
4018.657306939215
 21
3077.605168155266
 31
0.0
  0
LINE
  5
16F
330
17
100
AcDbEntity
  8
COTA
 62
4
370
25
100
AcDbLine
 10
4015.657306939215
 20
3121.605168155266
 30
0.0
 11
4015.657306939215
 21
3077.605168155266
 31
0.0
  0
LINE
  5
170
330
17
100
AcDbEntity
  8
COTA
 62
0
370
25
100
AcDbLine
 10
4017.157306939215
 20
3120.105168155266
 30
0.0
 11
4014.157306939215
 21
3123.105168155266
 31
0.0
  0
LINE
  5
171
330
17
100
AcDbEntity
  8
COTA
 62
0
370
25
100
AcDbLine
 10
4014.157306939215
 20
3079.105168155266
 30
0.0
 11
4017.157306939215
 21
3076.105168155266
 31
0.0
  0
LINE
  5
172
330
17
100
AcDbEntity
  8
COTA
 62
4
370
25
100
AcDbLine
 10
3995.279874776439
 20
3136.605168155266
 30
0.0
 11
4041.788781756445
 21
3136.605168155266
 31
0.0
  0
LINE
  5
173
330
17
100
AcDbEntity
  8
COTA
 62
4
370
25
100
AcDbLine
 10
3995.279874776436
 20
3077.605168155266
 30
0.0
 11
4041.788781756445
 21
3077.605168155266
 31
0.0
  0
LINE
  5
174
330
17
100
AcDbEntity
  8
COTA
 62
4
370
25
100
AcDbLine
 10
4038.788781756445
 20
3136.605168155266
 30
0.0
 11
4038.788781756445
 21
3077.605168155266
 31
0.0
  0
LINE
  5
175
330
17
100
AcDbEntity
  8
COTA
 62
0
370
25
100
AcDbLine
 10
4040.288781756445
 20
3135.105168155266
 30
0.0
 11
4037.288781756445
 21
3138.105168155266
 31
0.0
  0
LINE
  5
176
330
17
100
AcDbEntity
  8
COTA
 62
0
370
25
100
AcDbLine
 10
4037.288781756445
 20
3079.105168155266
 30
0.0
 11
4040.288781756445
 21
3076.105168155266
 31
0.0
  0
LINE
  5
177
330
17
100
AcDbEntity
  8
COTA
 62
4
370
25
100
AcDbLine
 10
4249.460350166756
 20
3603.520692852856
 30
0.0
 11
4266.332082924785
 21
3603.520692852856
 31
0.0
  0
LINE
  5
178
330
17
100
AcDbEntity
  8
COTA
 62
4
370
25
100
AcDbLine
 10
4249.460350166756
 20
3577.520692852841
 30
0.0
 11
4266.332082924785
 21
3577.520692852841
 31
0.0
  0
LINE
  5
179
330
17
100
AcDbEntity
  8
COTA
 62
4
370
25
100
AcDbLine
 10
4263.332082924785
 20
3603.520692852856
 30
0.0
 11
4263.332082924785
 21
3577.520692852841
 31
0.0
  0
LINE
  5
17A
330
17
100
AcDbEntity
  8
COTA
 62
4
370
25
100
AcDbLine
 10
4127.916835442198
 20
3355.520692852863
 30
0.0
 11
4070.50347516674
 21
3355.520692852863
 31
0.0
  0
LINE
  5
17B
330
17
100
AcDbEntity
  8
COTA
 62
4
370
25
100
AcDbLine
 10
4122.880198255848
 20
3603.520692852856
 30
0.0
 11
4070.50347516674
 21
3603.520692852856
 31
0.0
  0
LINE
  5
17C
330
17
100
AcDbEntity
  8
COTA
 62
4
370
25
100
AcDbLine
 10
4073.50347516674
 20
3355.520692852863
 30
0.0
 11
4073.50347516674
 21
3603.520692852856
 31
0.0
  0
LINE
  5
17D
330
17
100
AcDbEntity
  8
COTA
 62
4
370
25
100
AcDbLine
 10
4239.116835442181
 20
3355.520692852863
 30
0.0
 11
4266.332082925207
 21
3355.520692852863
 31
0.0
  0
LINE
  5
17E
330
17
100
AcDbEntity
  8
COTA
 62
4
370
25
100
AcDbLine
 10
4249.460350166756
 20
3573.520692852841
 30
0.0
 11
4266.332082925207
 21
3573.520692852841
 31
0.0
  0
LINE
  5
17F
330
17
100
AcDbEntity
  8
COTA
 62
4
370
25
100
AcDbLine
 10
4263.332082925207
 20
3355.520692852863
 30
0.0
 11
4263.332082925207
 21
3573.520692852841
 31
0.0
  0
LINE
  5
180
330
17
100
AcDbEntity
  8
Cota Seção (2x)
 62
180
370
25
100
AcDbLine
 10
4198.516835442144
 20
3458.020692852855
 30
0.0
 11
4198.516835442144
 21
3483.020692852856
 31
0.0
  0
LINE
  5
181
330
17
100
AcDbEntity
  8
Cota Seção (2x)
 62
180
370
25
100
AcDbLine
 10
4198.516835442144
 20
3483.020692852856
 30
0.0
 11
4183.516835442143
 21
3483.020692852856
 31
0.0
  0
LINE
  5
182
330
17
100
AcDbEntity
  8
Cota Seção (2x)
 62
180
370
25
100
AcDbLine
 10
4183.516835442143
 20
3483.020692852856
 30
0.0
 11
4183.516835442143
 21
3458.020692852855
 31
0.0
  0
LINE
  5
183
330
17
100
AcDbEntity
  8
Cota Seção (2x)
 62
180
370
25
100
AcDbLine
 10
4183.516835442143
 20
3458.020692852855
 30
0.0
 11
4198.516835442144
 21
3458.020692852855
 31
0.0
  0
LINE
  5
184
330
17
100
AcDbEntity
  8
COTA
 62
4
370
25
100
AcDbLine
 10
4122.880198255848
 20
3603.520692852856
 30
0.0
 11
4089.822903652201
 21
3603.520692852856
 31
0.0
  0
LINE
  5
185
330
17
100
AcDbEntity
  8
COTA
 62
4
370
25
100
AcDbLine
 10
4122.880198255848
 20
3577.520692852834
 30
0.0
 11
4089.822903652201
 21
3577.520692852834
 31
0.0
  0
LINE
  5
186
330
17
100
AcDbEntity
  8
COTA
 62
4
370
25
100
AcDbLine
 10
4092.822903652201
 20
3603.520692852856
 30
0.0
 11
4092.822903652201
 21
3577.520692852834
 31
0.0
  0
LINE
  5
187
330
17
100
AcDbEntity
  8
COTA
 62
4
370
25
100
AcDbLine
 10
4122.880198255848
 20
3573.520692852834
 30
0.0
 11
4089.822903652536
 21
3573.520692852834
 31
0.0
  0
LINE
  5
188
330
17
100
AcDbEntity
  8
COTA
 62
4
370
25
100
AcDbLine
 10
4127.916835442198
 20
3355.520692852863
 30
0.0
 11
4089.822903652536
 21
3355.520692852863
 31
0.0
  0
LINE
  5
189
330
17
100
AcDbEntity
  8
COTA
 62
4
370
25
100
AcDbLine
 10
4092.822903652536
 20
3573.520692852834
 30
0.0
 11
4092.822903652536
 21
3355.520692852863
 31
0.0
  0
LINE
  5
18A
330
17
100
AcDbEntity
  8
COTA
 62
4
370
25
100
AcDbLine
 10
4164.516835442173
 20
3352.520692852853
 30
0.0
 11
4164.516835442173
 21
3307.793879050671
 31
0.0
  0
LINE
  5
18B
330
17
100
AcDbEntity
  8
COTA
 62
4
370
25
100
AcDbLine
 10
4202.516835442173
 20
3352.520692852853
 30
0.0
 11
4202.516835442173
 21
3307.793879050671
 31
0.0
  0
LINE
  5
18C
330
17
100
AcDbEntity
  8
COTA
 62
4
370
25
100
AcDbLine
 10
4164.516835442173
 20
3310.793879050671
 30
0.0
 11
4202.516835442173
 21
3310.793879050671
 31
0.0
  0
LINE
  5
18D
330
17
100
AcDbEntity
  8
Cota Seção (2x)
 62
180
370
25
100
AcDbLine
 10
4174.516835442143
 20
3375.520692852861
 30
0.0
 11
4192.516835442144
 21
3375.520692852861
 31
0.0
  0
LINE
  5
18E
330
17
100
AcDbEntity
  8
Cota Seção (2x)
 62
180
370
25
100
AcDbLine
 10
4192.516835442144
 20
3375.520692852861
 30
0.0
 11
4192.516835442144
 21
3390.520692852861
 31
0.0
  0
LINE
  5
18F
330
17
100
AcDbEntity
  8
Cota Seção (2x)
 62
180
370
25
100
AcDbLine
 10
4192.516835442144
 20
3390.520692852861
 30
0.0
 11
4174.516835442143
 21
3390.520692852861
 31
0.0
  0
LINE
  5
190
330
17
100
AcDbEntity
  8
Cota Seção (2x)
 62
180
370
25
100
AcDbLine
 10
4174.516835442143
 20
3390.520692852861
 30
0.0
 11
4174.516835442143
 21
3375.520692852861
 31
0.0
  0
LINE
  5
191
330
17
100
AcDbEntity
  8
COTA
 62
4
370
25
100
AcDbLine
 10
4516.703718568622
 20
3435.255638643108
 30
0.0
 11
4516.703718568622
 21
3395.878398430013
 31
0.0
  0
LINE
  5
192
330
17
100
AcDbEntity
  8
COTA
 62
4
370
25
100
AcDbLine
 10
4636.703718568622
 20
3435.255638643133
 30
0.0
 11
4636.703718568622
 21
3395.878398430013
 31
0.0
  0
LINE
  5
193
330
17
100
AcDbEntity
  8
COTA
 62
4
370
25
100
AcDbLine
 10
4516.703718568622
 20
3398.878398430013
 30
0.0
 11
4636.703718568622
 21
3398.878398430013
 31
0.0
  0
LINE
  5
194
330
17
100
AcDbEntity
  8
COTA
 62
0
370
25
100
AcDbLine
 10
4518.203718568622
 20
3400.378398430013
 30
0.0
 11
4515.203718568622
 21
3397.378398430013
 31
0.0
  0
LINE
  5
195
330
17
100
AcDbEntity
  8
COTA
 62
0
370
25
100
AcDbLine
 10
4635.203718568622
 20
3397.378398430013
 30
0.0
 11
4638.203718568622
 21
3400.378398430013
 31
0.0
  0
LINE
  5
196
330
17
100
AcDbEntity
  8
COTA
 62
4
370
25
100
AcDbLine
 10
4636.703718568622
 20
3435.255638643133
 30
0.0
 11
4636.703718568622
 21
3395.878398430023
 31
0.0
  0
LINE
  5
197
330
17
100
AcDbEntity
  8
COTA
 62
4
370
25
100
AcDbLine
 10
4880.703718568622
 20
3435.255638643129
 30
0.0
 11
4880.703718568622
 21
3395.878398430023
 31
0.0
  0
LINE
  5
198
330
17
100
AcDbEntity
  8
COTA
 62
4
370
25
100
AcDbLine
 10
4636.703718568622
 20
3398.878398430023
 30
0.0
 11
4880.703718568622
 21
3398.878398430023
 31
0.0
  0
LINE
  5
199
330
17
100
AcDbEntity
  8
COTA
 62
0
370
25
100
AcDbLine
 10
4638.203718568622
 20
3400.378398430023
 30
0.0
 11
4635.203718568622
 21
3397.378398430023
 31
0.0
  0
LINE
  5
19A
330
17
100
AcDbEntity
  8
COTA
 62
0
370
25
100
AcDbLine
 10
4879.203718568622
 20
3397.378398430023
 30
0.0
 11
4882.203718568622
 21
3400.378398430023
 31
0.0
  0
LINE
  5
19B
330
17
100
AcDbEntity
  8
COTA
 62
4
370
25
100
AcDbLine
 10
4883.703718568628
 20
3547.255638643105
 30
0.0
 11
4907.802709735821
 21
3547.255638643105
 31
0.0
  0
LINE
  5
19C
330
17
100
AcDbEntity
  8
COTA
 62
4
370
25
100
AcDbLine
 10
4849.703718568628
 20
3559.255638643105
 30
0.0
 11
4907.802709735821
 21
3559.255638643105
 31
0.0
  0
LINE
  5
19D
330
17
100
AcDbEntity
  8
COTA
 62
4
370
25
100
AcDbLine
 10
4904.802709735821
 20
3547.255638643105
 30
0.0
 11
4904.802709735821
 21
3559.255638643105
 31
0.0
  0
LINE
  5
19E
330
17
100
AcDbEntity
  8
COTA
 62
0
370
25
100
AcDbLine
 10
4903.302709735821
 20
3548.755638643105
 30
0.0
 11
4906.302709735821
 21
3545.755638643105
 31
0.0
  0
LINE
  5
19F
330
17
100
AcDbEntity
  8
COTA
 62
0
370
25
100
AcDbLine
 10
4906.302709735821
 20
3557.755638643105
 30
0.0
 11
4903.302709735821
 21
3560.755638643105
 31
0.0
  0
LINE
  5
1A0
330
17
100
AcDbEntity
  8
COTA
 62
4
370
25
100
AcDbLine
 10
4883.703718568624
 20
3547.255638643105
 30
0.0
 11
4907.802709735823
 21
3547.255638643105
 31
0.0
  0
LINE
  5
1A1
330
17
100
AcDbEntity
  8
COTA
 62
4
370
25
100
AcDbLine
 10
4883.703718568624
 20
3438.255638643106
 30
0.0
 11
4907.802709735823
 21
3438.255638643106
 31
0.0
  0
LINE
  5
1A2
330
17
100
AcDbEntity
  8
COTA
 62
4
370
25
100
AcDbLine
 10
4904.802709735823
 20
3547.255638643105
 30
0.0
 11
4904.802709735823
 21
3438.255638643106
 31
0.0
  0
LINE
  5
1A3
330
17
100
AcDbEntity
  8
COTA
 62
0
370
25
100
AcDbLine
 10
4906.302709735823
 20
3545.755638643105
 30
0.0
 11
4903.302709735823
 21
3548.755638643105
 31
0.0
  0
LINE
  5
1A4
330
17
100
AcDbEntity
  8
COTA
 62
0
370
25
100
AcDbLine
 10
4903.302709735823
 20
3439.755638643106
 30
0.0
 11
4906.302709735823
 21
3436.755638643106
 31
0.0
  0
LINE
  5
1A5
330
17
100
AcDbEntity
  8
COTA
 62
4
370
25
100
AcDbLine
 10
4338.748859327798
 20
3541.255638643108
 30
0.0
 11
4301.108170853189
 21
3541.255638643108
 31
0.0
  0
LINE
  5
1A6
330
17
100
AcDbEntity
  8
COTA
 62
4
370
25
100
AcDbLine
 10
4309.748859327799
 20
3438.255638643108
 30
0.0
 11
4301.108170853189
 21
3438.255638643108
 31
0.0
  0
LINE
  5
1A7
330
17
100
AcDbEntity
  8
COTA
 62
4
370
25
100
AcDbLine
 10
4304.108170853189
 20
3541.255638643108
 30
0.0
 11
4304.108170853189
 21
3438.255638643108
 31
0.0
  0
LINE
  5
1A8
330
17
100
AcDbEntity
  8
COTA
 62
0
370
25
100
AcDbLine
 10
4305.608170853189
 20
3539.755638643108
 30
0.0
 11
4302.608170853189
 21
3542.755638643108
 31
0.0
  0
LINE
  5
1A9
330
17
100
AcDbEntity
  8
COTA
 62
0
370
25
100
AcDbLine
 10
4302.608170853189
 20
3439.755638643108
 30
0.0
 11
4305.608170853189
 21
3436.755638643108
 31
0.0
  0
LINE
  5
1AA
330
17
100
AcDbEntity
  8
COTA
 62
4
370
25
100
AcDbLine
 10
4338.748859327805
 20
3541.255638643108
 30
0.0
 11
4301.10817085312
 21
3541.255638643108
 31
0.0
  0
LINE
  5
1AB
330
17
100
AcDbEntity
  8
COTA
 62
4
370
25
100
AcDbLine
 10
4309.748859327803
 20
3555.255638643084
 30
0.0
 11
4301.10817085312
 21
3555.255638643084
 31
0.0
  0
LINE
  5
1AC
330
17
100
AcDbEntity
  8
COTA
 62
4
370
25
100
AcDbLine
 10
4304.10817085312
 20
3541.255638643108
 30
0.0
 11
4304.10817085312
 21
3555.255638643084
 31
0.0
  0
LINE
  5
1AD
330
17
100
AcDbEntity
  8
COTA
 62
0
370
25
100
AcDbLine
 10
4302.60817085312
 20
3542.755638643108
 30
0.0
 11
4305.60817085312
 21
3539.755638643108
 31
0.0
  0
LINE
  5
1AE
330
17
100
AcDbEntity
  8
COTA
 62
0
370
25
100
AcDbLine
 10
4305.60817085312
 20
3553.755638643084
 30
0.0
 11
4302.60817085312
 21
3556.755638643084
 31
0.0
  0
LINE
  5
1AF
330
17
100
AcDbEntity
  8
COTA
 62
4
370
25
100
AcDbLine
 10
4309.748859327803
 20
3555.255638643082
 30
0.0
 11
4301.10817085319
 21
3555.255638643082
 31
0.0
  0
LINE
  5
1B0
330
17
100
AcDbEntity
  8
COTA
 62
4
370
25
100
AcDbLine
 10
4309.748859327803
 20
3562.255638643085
 30
0.0
 11
4301.10817085319
 21
3562.255638643085
 31
0.0
  0
LINE
  5
1B1
330
17
100
AcDbEntity
  8
COTA
 62
4
370
25
100
AcDbLine
 10
4304.10817085319
 20
3555.255638643082
 30
0.0
 11
4304.10817085319
 21
3562.255638643085
 31
0.0
  0
LINE
  5
1B2
330
17
100
AcDbEntity
  8
COTA
 62
4
370
25
100
AcDbLine
 10
4304.10817085319
 20
3562.255638643085
 30
0.0
 11
4304.10817085319
 21
3576.986632795132
 31
0.0
  0
LINE
  5
1B3
330
17
100
AcDbEntity
  8
COTA
 62
0
370
25
100
AcDbLine
 10
4302.60817085319
 20
3556.755638643082
 30
0.0
 11
4305.60817085319
 21
3553.755638643082
 31
0.0
  0
LINE
  5
1B4
330
17
100
AcDbEntity
  8
COTA
 62
0
370
25
100
AcDbLine
 10
4305.60817085319
 20
3560.755638643085
 30
0.0
 11
4302.60817085319
 21
3563.755638643085
 31
0.0
  0
LINE
  5
1B5
330
17
100
AcDbEntity
  8
Painéis
 62
4
370
25
100
AcDbLine
 10
4516.703718568613
 20
3482.398763810846
 30
0.0
 11
4516.703718568613
 21
3486.587092270962
 31
0.0
  0
LINE
  5
1B6
330
17
100
AcDbEntity
  8
Painéis
 62
4
370
25
100
AcDbLine
 10
4404.748859327796
 20
3482.398763810867
 30
0.0
 11
4404.748859327796
 21
3486.587092270962
 31
0.0
  0
LINE
  5
1B7
330
17
100
AcDbEntity
  8
Painéis
 62
4
370
25
100
AcDbLine
 10
4516.703718568613
 20
3483.587092270962
 30
0.0
 11
4404.748859327796
 21
3483.587092270962
 31
0.0
  0
LINE
  5
1B8
330
17
100
AcDbEntity
  8
Painéis
 62
0
370
25
100
AcDbLine
 10
4515.203718568613
 20
3482.087092270962
 30
0.0
 11
4518.203718568613
 21
3485.087092270962
 31
0.0
  0
LINE
  5
1B9
330
17
100
AcDbEntity
  8
Painéis
 62
0
370
25
100
AcDbLine
 10
4406.248859327796
 20
3485.087092270962
 30
0.0
 11
4403.248859327796
 21
3482.087092270962
 31
0.0
  0
LINE
  5
1BA
330
17
100
AcDbEntity
  8
Painéis
 62
4
370
25
100
AcDbLine
 10
4309.748859327799
 20
3438.255638643108
 30
0.0
 11
4279.76180791689
 21
3438.255638643108
 31
0.0
  0
LINE
  5
1BB
330
17
100
AcDbEntity
  8
Painéis
 62
4
370
25
100
AcDbLine
 10
4309.748859327801
 20
3562.255638643084
 30
0.0
 11
4279.76180791689
 21
3562.255638643084
 31
0.0
  0
LINE
  5
1BC
330
17
100
AcDbEntity
  8
Painéis
 62
4
370
25
100
AcDbLine
 10
4282.76180791689
 20
3438.255638643108
 30
0.0
 11
4282.76180791689
 21
3562.255638643084
 31
0.0
  0
LINE
  5
1BD
330
17
100
AcDbEntity
  8
Painéis
 62
0
370
25
100
AcDbLine
 10
4281.26180791689
 20
3439.755638643108
 30
0.0
 11
4284.26180791689
 21
3436.755638643108
 31
0.0
  0
LINE
  5
1BE
330
17
100
AcDbEntity
  8
Painéis
 62
0
370
25
100
AcDbLine
 10
4284.26180791689
 20
3560.755638643084
 30
0.0
 11
4281.26180791689
 21
3563.755638643084
 31
0.0
  0
LINE
  5
1BF
330
17
100
AcDbEntity
  8
COTA
 62
4
370
25
100
AcDbLine
 10
4319.748859327796
 20
3435.255638643101
 30
0.0
 11
4319.748859327796
 21
3412.076013889743
 31
0.0
  0
LINE
  5
1C0
330
17
100
AcDbEntity
  8
COTA
 62
4
370
25
100
AcDbLine
 10
4312.748859327796
 20
3435.255638643101
 30
0.0
 11
4312.748859327796
 21
3412.076013889743
 31
0.0
  0
LINE
  5
1C1
330
17
100
AcDbEntity
  8
COTA
 62
4
370
25
100
AcDbLine
 10
4312.748859327796
 20
3415.076013889743
 30
0.0
 11
4319.748859327796
 21
3415.076013889743
 31
0.0
  0
LINE
  5
1C2
330
17
100
AcDbEntity
  8
COTA
 62
4
370
25
100
AcDbLine
 10
4319.748859327796
 20
3415.076013889743
 30
0.0
 11
4339.357164192088
 21
3415.076013889743
 31
0.0
  0
LINE
  5
1C3
330
17
100
AcDbEntity
  8
COTA
 62
0
370
25
100
AcDbLine
 10
4314.248859327796
 20
3416.576013889743
 30
0.0
 11
4311.248859327796
 21
3413.576013889743
 31
0.0
  0
LINE
  5
1C4
330
17
100
AcDbEntity
  8
COTA
 62
0
370
25
100
AcDbLine
 10
4318.248859327796
 20
3413.576013889743
 30
0.0
 11
4321.248859327796
 21
3416.576013889743
 31
0.0
  0
LINE
  5
1C5
330
17
100
AcDbEntity
  8
Painéis
 62
4
370
25
100
AcDbLine
 10
4344.748859327797
 20
3541.255638643108
 30
0.0
 11
4373.555016798644
 21
3541.255638643108
 31
0.0
  0
LINE
  5
1C6
330
17
100
AcDbEntity
  8
Painéis
 62
4
370
25
100
AcDbLine
 10
4344.748859327803
 20
3503.255638643091
 30
0.0
 11
4373.555016798644
 21
3503.255638643091
 31
0.0
  0
LINE
  5
1C7
330
17
100
AcDbEntity
  8
Painéis
 62
4
370
25
100
AcDbLine
 10
4370.555016798645
 20
3541.255638643108
 30
0.0
 11
4370.555016798645
 21
3503.255638643091
 31
0.0
  0
LINE
  5
1C8
330
17
100
AcDbEntity
  8
Painéis
 62
0
370
25
100
AcDbLine
 10
4372.055016798645
 20
3539.755638643108
 30
0.0
 11
4369.055016798645
 21
3542.755638643108
 31
0.0
  0
LINE
  5
1C9
330
17
100
AcDbEntity
  8
Painéis
 62
0
370
25
100
AcDbLine
 10
4369.055016798645
 20
3504.755638643091
 30
0.0
 11
4372.055016798645
 21
3501.755638643091
 31
0.0
  0
LINE
  5
1CA
330
17
100
AcDbEntity
  8
Painéis
 62
4
370
25
100
AcDbLine
 10
4312.748859327801
 20
3500.255638643085
 30
0.0
 11
4312.748859327801
 21
3471.448929084548
 31
0.0
  0
LINE
  5
1CB
330
17
100
AcDbEntity
  8
Painéis
 62
4
370
25
100
AcDbLine
 10
4341.748859327801
 20
3500.255638643088
 30
0.0
 11
4341.748859327801
 21
3471.448929084548
 31
0.0
  0
LINE
  5
1CC
330
17
100
AcDbEntity
  8
Painéis
 62
4
370
25
100
AcDbLine
 10
4312.748859327801
 20
3474.448929084549
 30
0.0
 11
4341.748859327801
 21
3474.448929084549
 31
0.0
  0
LINE
  5
1CD
330
17
100
AcDbEntity
  8
Painéis
 62
0
370
25
100
AcDbLine
 10
4314.248859327801
 20
3475.948929084549
 30
0.0
 11
4311.248859327801
 21
3472.948929084549
 31
0.0
  0
LINE
  5
1CE
330
17
100
AcDbEntity
  8
Painéis
 62
0
370
25
100
AcDbLine
 10
4340.248859327801
 20
3472.948929084549
 30
0.0
 11
4343.248859327801
 21
3475.948929084549
 31
0.0
  0
LINE
  5
1CF
330
17
100
AcDbEntity
  8
Painéis
 62
4
370
25
100
AcDbLine
 10
4312.748859327796
 20
3435.255638643101
 30
0.0
 11
4312.748859327796
 21
3395.878398430032
 31
0.0
  0
LINE
  5
1D0
330
17
100
AcDbEntity
  8
Painéis
 62
4
370
25
100
AcDbLine
 10
4516.703718568611
 20
3435.255638643095
 30
0.0
 11
4516.703718568611
 21
3395.878398430032
 31
0.0
  0
LINE
  5
1D1
330
17
100
AcDbEntity
  8
Painéis
 62
4
370
25
100
AcDbLine
 10
4312.748859327796
 20
3398.878398430032
 30
0.0
 11
4516.703718568611
 21
3398.878398430032
 31
0.0
  0
LINE
  5
1D2
330
17
100
AcDbEntity
  8
Painéis
 62
0
370
25
100
AcDbLine
 10
4314.248859327796
 20
3400.378398430032
 30
0.0
 11
4311.248859327796
 21
3397.378398430032
 31
0.0
  0
LINE
  5
1D3
330
17
100
AcDbEntity
  8
Painéis
 62
0
370
25
100
AcDbLine
 10
4515.203718568611
 20
3397.378398430032
 30
0.0
 11
4518.203718568611
 21
3400.378398430032
 31
0.0
  0
LINE
  5
1D4
330
17
100
AcDbEntity
  8
Painéis
 62
4
370
25
100
AcDbLine
 10
4843.703718568622
 20
3547.255638643129
 30
0.0
 11
4819.897561097864
 21
3547.255638643129
 31
0.0
  0
LINE
  5
1D5
330
17
100
AcDbEntity
  8
Painéis
 62
4
370
25
100
AcDbLine
 10
4843.703718568616
 20
3503.255638643111
 30
0.0
 11
4819.897561097864
 21
3503.255638643111
 31
0.0
  0
LINE
  5
1D6
330
17
100
AcDbEntity
  8
Painéis
 62
4
370
25
100
AcDbLine
 10
4822.897561097864
 20
3547.255638643129
 30
0.0
 11
4822.897561097864
 21
3503.255638643111
 31
0.0
  0
LINE
  5
1D7
330
17
100
AcDbEntity
  8
Painéis
 62
0
370
25
100
AcDbLine
 10
4824.397561097864
 20
3545.755638643129
 30
0.0
 11
4821.397561097864
 21
3548.755638643129
 31
0.0
  0
LINE
  5
1D8
330
17
100
AcDbEntity
  8
Painéis
 62
0
370
25
100
AcDbLine
 10
4821.397561097864
 20
3504.755638643111
 30
0.0
 11
4824.397561097864
 21
3501.755638643111
 31
0.0
  0
LINE
  5
1D9
330
17
100
AcDbEntity
  8
Painéis
 62
4
370
25
100
AcDbLine
 10
4880.703718568614
 20
3500.255638643106
 30
0.0
 11
4880.703718568614
 21
3476.398763810733
 31
0.0
  0
LINE
  5
1DA
330
17
100
AcDbEntity
  8
Painéis
 62
4
370
25
100
AcDbLine
 10
4846.703718568615
 20
3500.255638643109
 30
0.0
 11
4846.703718568615
 21
3476.398763810733
 31
0.0
  0
LINE
  5
1DB
330
17
100
AcDbEntity
  8
Painéis
 62
4
370
25
100
AcDbLine
 10
4880.703718568614
 20
3479.398763810733
 30
0.0
 11
4846.703718568615
 21
3479.398763810733
 31
0.0
  0
LINE
  5
1DC
330
17
100
AcDbEntity
  8
Painéis
 62
0
370
25
100
AcDbLine
 10
4879.203718568614
 20
3477.898763810733
 30
0.0
 11
4882.203718568614
 21
3480.898763810733
 31
0.0
  0
LINE
  5
1DD
330
17
100
AcDbEntity
  8
Painéis
 62
0
370
25
100
AcDbLine
 10
4848.203718568615
 20
3480.898763810733
 30
0.0
 11
4845.203718568615
 21
3477.898763810733
 31
0.0
  0
LINE
  5
1DE
330
17
100
AcDbEntity
  8
Painéis
 62
4
370
25
100
AcDbLine
 10
4880.703718568621
 20
3461.052718569928
 30
0.0
 11
4880.703718568621
 21
3462.517275218193
 31
0.0
  0
LINE
  5
1DF
330
17
100
AcDbEntity
  8
Painéis
 62
4
370
25
100
AcDbLine
 10
4756.70371856862
 20
3461.052718569928
 30
0.0
 11
4756.70371856862
 21
3462.517275218193
 31
0.0
  0
LINE
  5
1E0
330
17
100
AcDbEntity
  8
Painéis
 62
4
370
25
100
AcDbLine
 10
4880.703718568621
 20
3459.517275218193
 30
0.0
 11
4756.70371856862
 21
3459.517275218193
 31
0.0
  0
LINE
  5
1E1
330
17
100
AcDbEntity
  8
Painéis
 62
0
370
25
100
AcDbLine
 10
4879.203718568621
 20
3458.017275218193
 30
0.0
 11
4882.203718568621
 21
3461.017275218193
 31
0.0
  0
LINE
  5
1E2
330
17
100
AcDbEntity
  8
Painéis
 62
0
370
25
100
AcDbLine
 10
4758.20371856862
 20
3461.017275218193
 30
0.0
 11
4755.20371856862
 21
3458.017275218193
 31
0.0
  0
LINE
  5
1E3
330
17
100
AcDbEntity
  8
COTA
 62
4
370
25
100
AcDbLine
 10
4873.703718568624
 20
3435.255638643124
 30
0.0
 11
4873.703718568624
 21
3412.076013889765
 31
0.0
  0
LINE
  5
1E4
330
17
100
AcDbEntity
  8
COTA
 62
4
370
25
100
AcDbLine
 10
4880.703718568624
 20
3435.255638643124
 30
0.0
 11
4880.703718568624
 21
3412.076013889765
 31
0.0
  0
LINE
  5
1E5
330
17
100
AcDbEntity
  8
COTA
 62
4
370
25
100
AcDbLine
 10
4880.703718568624
 20
3415.076013889765
 30
0.0
 11
4873.703718568624
 21
3415.076013889765
 31
0.0
  0
LINE
  5
1E6
330
17
100
AcDbEntity
  8
COTA
 62
4
370
25
100
AcDbLine
 10
4873.703718568624
 20
3415.076013889765
 30
0.0
 11
4854.095413704332
 21
3415.076013889765
 31
0.0
  0
LINE
  5
1E7
330
17
100
AcDbEntity
  8
COTA
 62
0
370
25
100
AcDbLine
 10
4879.203718568624
 20
3413.576013889765
 30
0.0
 11
4882.203718568624
 21
3416.576013889765
 31
0.0
  0
LINE
  5
1E8
330
17
100
AcDbEntity
  8
COTA
 62
0
370
25
100
AcDbLine
 10
4875.203718568624
 20
3416.576013889765
 30
0.0
 11
4872.203718568624
 21
3413.576013889765
 31
0.0
  0
LINE
  5
1E9
330
17
100
AcDbEntity
  8
Painéis
 62
4
370
25
100
AcDbLine
 10
4513.703718568619
 20
3541.255638643105
 30
0.0
 11
4489.897561097872
 21
3541.255638643105
 31
0.0
  0
LINE
  5
1EA
330
17
100
AcDbEntity
  8
Painéis
 62
4
370
25
100
AcDbLine
 10
4513.703718568613
 20
3503.221252804031
 30
0.0
 11
4489.897561097872
 21
3503.221252804031
 31
0.0
  0
LINE
  5
1EB
330
17
100
AcDbEntity
  8
Painéis
 62
4
370
25
100
AcDbLine
 10
4492.897561097872
 20
3541.255638643105
 30
0.0
 11
4492.897561097872
 21
3503.221252804031
 31
0.0
  0
LINE
  5
1EC
330
17
100
AcDbEntity
  8
Painéis
 62
0
370
25
100
AcDbLine
 10
4494.397561097872
 20
3539.755638643105
 30
0.0
 11
4491.397561097872
 21
3542.755638643105
 31
0.0
  0
LINE
  5
1ED
330
17
100
AcDbEntity
  8
Painéis
 62
0
370
25
100
AcDbLine
 10
4491.397561097872
 20
3504.721252804031
 30
0.0
 11
4494.397561097872
 21
3501.721252804031
 31
0.0
  0
LINE
  5
1EE
330
17
100
AcDbEntity
  8
Painéis
 62
4
370
25
100
AcDbLine
 10
4543.703718568611
 20
3506.221252804026
 30
0.0
 11
4543.703718568611
 21
3514.127154431295
 31
0.0
  0
LINE
  5
1EF
330
17
100
AcDbEntity
  8
Painéis
 62
4
370
25
100
AcDbLine
 10
4516.703718568611
 20
3506.221252804029
 30
0.0
 11
4516.703718568611
 21
3514.127154431295
 31
0.0
  0
LINE
  5
1F0
330
17
100
AcDbEntity
  8
Painéis
 62
4
370
25
100
AcDbLine
 10
4543.703718568611
 20
3511.127154431295
 30
0.0
 11
4516.703718568611
 21
3511.127154431295
 31
0.0
  0
LINE
  5
1F1
330
17
100
AcDbEntity
  8
Painéis
 62
0
370
25
100
AcDbLine
 10
4542.203718568611
 20
3509.627154431295
 30
0.0
 11
4545.203718568611
 21
3512.627154431295
 31
0.0
  0
LINE
  5
1F2
330
17
100
AcDbEntity
  8
Painéis
 62
0
370
25
100
AcDbLine
 10
4518.203718568611
 20
3512.627154431295
 30
0.0
 11
4515.203718568611
 21
3509.627154431295
 31
0.0
  0
LINE
  5
1F3
330
17
100
AcDbEntity
  8
Painéis
 62
4
370
25
100
AcDbLine
 10
4312.748859327796
 20
3435.255638643101
 30
0.0
 11
4312.748859327796
 21
3368.445793917737
 31
0.0
  0
LINE
  5
1F4
330
17
100
AcDbEntity
  8
Painéis
 62
4
370
25
100
AcDbLine
 10
4880.703718568624
 20
3435.255638643101
 30
0.0
 11
4880.703718568624
 21
3368.445793917737
 31
0.0
  0
LINE
  5
1F5
330
17
100
AcDbEntity
  8
Painéis
 62
4
370
25
100
AcDbLine
 10
4312.748859327796
 20
3371.445793917737
 30
0.0
 11
4880.703718568624
 21
3371.445793917737
 31
0.0
  0
LINE
  5
1F6
330
17
100
AcDbEntity
  8
Painéis
 62
0
370
25
100
AcDbLine
 10
4314.248859327796
 20
3372.945793917737
 30
0.0
 11
4311.248859327796
 21
3369.945793917737
 31
0.0
  0
LINE
  5
1F7
330
17
100
AcDbEntity
  8
Painéis
 62
0
370
25
100
AcDbLine
 10
4879.203718568624
 20
3369.945793917737
 30
0.0
 11
4882.203718568624
 21
3372.945793917737
 31
0.0
  0
LINE
  5
1F8
330
17
100
AcDbEntity
  8
COTA
 62
4
370
25
100
AcDbLine
 10
4676.748859327804
 20
3125.790591917353
 30
0.0
 11
4676.748859327804
 21
3086.413351704261
 31
0.0
  0
LINE
  5
1F9
330
17
100
AcDbEntity
  8
COTA
 62
4
370
25
100
AcDbLine
 10
4556.748859327798
 20
3125.790591917381
 30
0.0
 11
4556.748859327798
 21
3086.413351704261
 31
0.0
  0
LINE
  5
1FA
330
17
100
AcDbEntity
  8
COTA
 62
4
370
25
100
AcDbLine
 10
4676.748859327804
 20
3089.413351704261
 30
0.0
 11
4556.748859327798
 21
3089.413351704261
 31
0.0
  0
LINE
  5
1FB
330
17
100
AcDbEntity
  8
COTA
 62
0
370
25
100
AcDbLine
 10
4675.248859327804
 20
3087.913351704261
 30
0.0
 11
4678.248859327804
 21
3090.913351704261
 31
0.0
  0
LINE
  5
1FC
330
17
100
AcDbEntity
  8
COTA
 62
0
370
25
100
AcDbLine
 10
4558.248859327798
 20
3090.913351704261
 30
0.0
 11
4555.248859327798
 21
3087.913351704261
 31
0.0
  0
LINE
  5
1FD
330
17
100
AcDbEntity
  8
COTA
 62
4
370
25
100
AcDbLine
 10
4556.748859327798
 20
3125.790591917381
 30
0.0
 11
4556.748859327798
 21
3086.413351704272
 31
0.0
  0
LINE
  5
1FE
330
17
100
AcDbEntity
  8
COTA
 62
4
370
25
100
AcDbLine
 10
4312.748859327797
 20
3125.790591917378
 30
0.0
 11
4312.748859327797
 21
3086.413351704272
 31
0.0
  0
LINE
  5
1FF
330
17
100
AcDbEntity
  8
COTA
 62
4
370
25
100
AcDbLine
 10
4556.748859327798
 20
3089.413351704272
 30
0.0
 11
4312.748859327797
 21
3089.413351704272
 31
0.0
  0
LINE
  5
200
330
17
100
AcDbEntity
  8
COTA
 62
0
370
25
100
AcDbLine
 10
4555.248859327798
 20
3087.913351704272
 30
0.0
 11
4558.248859327798
 21
3090.913351704272
 31
0.0
  0
LINE
  5
201
330
17
100
AcDbEntity
  8
COTA
 62
0
370
25
100
AcDbLine
 10
4314.248859327797
 20
3090.913351704272
 30
0.0
 11
4311.248859327797
 21
3087.913351704272
 31
0.0
  0
LINE
  5
202
330
17
100
AcDbEntity
  8
COTA
 62
4
370
25
100
AcDbLine
 10
4309.748859327796
 20
3237.790591917354
 30
0.0
 11
4294.024258814732
 21
3237.790591917354
 31
0.0
  0
LINE
  5
203
330
17
100
AcDbEntity
  8
COTA
 62
4
370
25
100
AcDbLine
 10
4309.748859327796
 20
3252.790591917353
 30
0.0
 11
4294.024258814732
 21
3252.790591917353
 31
0.0
  0
LINE
  5
204
330
17
100
AcDbEntity
  8
COTA
 62
4
370
25
100
AcDbLine
 10
4297.024258814732
 20
3237.790591917354
 30
0.0
 11
4297.024258814732
 21
3252.790591917353
 31
0.0
  0
LINE
  5
205
330
17
100
AcDbEntity
  8
COTA
 62
4
370
25
100
AcDbLine
 10
4297.024258814732
 20
3252.790591917353
 30
0.0
 11
4297.024258814732
 21
3271.161936946594
 31
0.0
  0
LINE
  5
206
330
17
100
AcDbEntity
  8
COTA
 62
0
370
25
100
AcDbLine
 10
4295.524258814732
 20
3239.290591917354
 30
0.0
 11
4298.524258814732
 21
3236.290591917354
 31
0.0
  0
LINE
  5
207
330
17
100
AcDbEntity
  8
COTA
 62
0
370
25
100
AcDbLine
 10
4298.524258814732
 20
3251.290591917353
 30
0.0
 11
4295.524258814732
 21
3254.290591917353
 31
0.0
  0
LINE
  5
208
330
17
100
AcDbEntity
  8
COTA
 62
4
370
25
100
AcDbLine
 10
4309.748859327799
 20
3237.790591917354
 30
0.0
 11
4294.024258814737
 21
3237.790591917354
 31
0.0
  0
LINE
  5
209
330
17
100
AcDbEntity
  8
COTA
 62
4
370
25
100
AcDbLine
 10
4309.748859327799
 20
3128.790591917354
 30
0.0
 11
4294.024258814737
 21
3128.790591917354
 31
0.0
  0
LINE
  5
20A
330
17
100
AcDbEntity
  8
COTA
 62
4
370
25
100
AcDbLine
 10
4297.024258814736
 20
3237.790591917354
 30
0.0
 11
4297.024258814736
 21
3128.790591917354
 31
0.0
  0
LINE
  5
20B
330
17
100
AcDbEntity
  8
COTA
 62
0
370
25
100
AcDbLine
 10
4298.524258814736
 20
3236.290591917354
 30
0.0
 11
4295.524258814736
 21
3239.290591917354
 31
0.0
  0
LINE
  5
20C
330
17
100
AcDbEntity
  8
COTA
 62
0
370
25
100
AcDbLine
 10
4295.524258814736
 20
3130.290591917354
 30
0.0
 11
4298.524258814736
 21
3127.290591917354
 31
0.0
  0
LINE
  5
20D
330
17
100
AcDbEntity
  8
COTA
 62
4
370
25
100
AcDbLine
 10
4854.703718568625
 20
3231.790591917356
 30
0.0
 11
4903.758154161582
 21
3231.790591917356
 31
0.0
  0
LINE
  5
20E
330
17
100
AcDbEntity
  8
COTA
 62
4
370
25
100
AcDbLine
 10
4883.703718568624
 20
3128.790591917356
 30
0.0
 11
4903.758154161582
 21
3128.790591917356
 31
0.0
  0
LINE
  5
20F
330
17
100
AcDbEntity
  8
COTA
 62
4
370
25
100
AcDbLine
 10
4900.758154161582
 20
3231.790591917356
 30
0.0
 11
4900.758154161582
 21
3128.790591917356
 31
0.0
  0
LINE
  5
210
330
17
100
AcDbEntity
  8
COTA
 62
0
370
25
100
AcDbLine
 10
4902.258154161582
 20
3230.290591917356
 30
0.0
 11
4899.258154161582
 21
3233.290591917356
 31
0.0
  0
LINE
  5
211
330
17
100
AcDbEntity
  8
COTA
 62
0
370
25
100
AcDbLine
 10
4899.258154161582
 20
3130.290591917356
 30
0.0
 11
4902.258154161582
 21
3127.290591917356
 31
0.0
  0
LINE
  5
212
330
17
100
AcDbEntity
  8
COTA
 62
4
370
25
100
AcDbLine
 10
4854.703718568618
 20
3231.790591917356
 30
0.0
 11
4903.75815416164
 21
3231.790591917356
 31
0.0
  0
LINE
  5
213
330
17
100
AcDbEntity
  8
COTA
 62
4
370
25
100
AcDbLine
 10
4883.703718568621
 20
3245.790591917333
 30
0.0
 11
4903.75815416164
 21
3245.790591917333
 31
0.0
  0
LINE
  5
214
330
17
100
AcDbEntity
  8
COTA
 62
4
370
25
100
AcDbLine
 10
4900.75815416164
 20
3231.790591917356
 30
0.0
 11
4900.75815416164
 21
3245.790591917333
 31
0.0
  0
LINE
  5
215
330
17
100
AcDbEntity
  8
COTA
 62
0
370
25
100
AcDbLine
 10
4899.25815416164
 20
3233.290591917356
 30
0.0
 11
4902.25815416164
 21
3230.290591917356
 31
0.0
  0
LINE
  5
216
330
17
100
AcDbEntity
  8
COTA
 62
0
370
25
100
AcDbLine
 10
4902.25815416164
 20
3244.290591917333
 30
0.0
 11
4899.25815416164
 21
3247.290591917333
 31
0.0
  0
LINE
  5
217
330
17
100
AcDbEntity
  8
COTA
 62
4
370
25
100
AcDbLine
 10
4883.703718568621
 20
3245.790591917331
 30
0.0
 11
4903.758154161587
 21
3245.790591917331
 31
0.0
  0
LINE
  5
218
330
17
100
AcDbEntity
  8
COTA
 62
4
370
25
100
AcDbLine
 10
4883.703718568621
 20
3252.790591917333
 30
0.0
 11
4903.758154161587
 21
3252.790591917333
 31
0.0
  0
LINE
  5
219
330
17
100
AcDbEntity
  8
COTA
 62
4
370
25
100
AcDbLine
 10
4900.758154161588
 20
3245.790591917331
 30
0.0
 11
4900.758154161588
 21
3252.790591917333
 31
0.0
  0
LINE
  5
21A
330
17
100
AcDbEntity
  8
COTA
 62
4
370
25
100
AcDbLine
 10
4900.758154161588
 20
3252.790591917333
 30
0.0
 11
4900.758154161588
 21
3267.52158606938
 31
0.0
  0
LINE
  5
21B
330
17
100
AcDbEntity
  8
COTA
 62
0
370
25
100
AcDbLine
 10
4899.258154161588
 20
3247.290591917331
 30
0.0
 11
4902.258154161588
 21
3244.290591917331
 31
0.0
  0
LINE
  5
21C
330
17
100
AcDbEntity
  8
COTA
 62
0
370
25
100
AcDbLine
 10
4902.258154161588
 20
3251.290591917333
 30
0.0
 11
4899.258154161588
 21
3254.290591917333
 31
0.0
  0
LINE
  5
21D
330
17
100
AcDbEntity
  8
Painéis
 62
4
370
25
100
AcDbLine
 10
4676.748859327813
 20
3172.933717085094
 30
0.0
 11
4676.748859327813
 21
3175.870084962829
 31
0.0
  0
LINE
  5
21E
330
17
100
AcDbEntity
  8
Painéis
 62
4
370
25
100
AcDbLine
 10
4788.703718568624
 20
3172.933717085116
 30
0.0
 11
4788.703718568624
 21
3175.870084962829
 31
0.0
  0
LINE
  5
21F
330
17
100
AcDbEntity
  8
Painéis
 62
4
370
25
100
AcDbLine
 10
4676.748859327813
 20
3172.87008496283
 30
0.0
 11
4788.703718568624
 21
3172.87008496283
 31
0.0
  0
LINE
  5
220
330
17
100
AcDbEntity
  8
Painéis
 62
0
370
25
100
AcDbLine
 10
4678.248859327813
 20
3174.37008496283
 30
0.0
 11
4675.248859327813
 21
3171.37008496283
 31
0.0
  0
LINE
  5
221
330
17
100
AcDbEntity
  8
Painéis
 62
0
370
25
100
AcDbLine
 10
4787.203718568624
 20
3171.37008496283
 30
0.0
 11
4790.203718568624
 21
3174.37008496283
 31
0.0
  0
LINE
  5
222
330
17
100
AcDbEntity
  8
Painéis
 62
4
370
25
100
AcDbLine
 10
4883.703718568624
 20
3128.790591917356
 30
0.0
 11
4921.580833819742
 21
3128.790591917356
 31
0.0
  0
LINE
  5
223
330
17
100
AcDbEntity
  8
Painéis
 62
4
370
25
100
AcDbLine
 10
4883.703718568622
 20
3252.790591917332
 30
0.0
 11
4921.580833819742
 21
3252.790591917332
 31
0.0
  0
LINE
  5
224
330
17
100
AcDbEntity
  8
Painéis
 62
4
370
25
100
AcDbLine
 10
4918.580833819742
 20
3128.790591917356
 30
0.0
 11
4918.580833819742
 21
3252.790591917332
 31
0.0
  0
LINE
  5
225
330
17
100
AcDbEntity
  8
Painéis
 62
0
370
25
100
AcDbLine
 10
4917.080833819742
 20
3130.290591917356
 30
0.0
 11
4920.080833819742
 21
3127.290591917356
 31
0.0
  0
LINE
  5
226
330
17
100
AcDbEntity
  8
Painéis
 62
0
370
25
100
AcDbLine
 10
4920.080833819742
 20
3251.290591917332
 30
0.0
 11
4917.080833819742
 21
3254.290591917332
 31
0.0
  0
LINE
  5
227
330
17
100
AcDbEntity
  8
COTA
 62
4
370
25
100
AcDbLine
 10
4873.703718568624
 20
3125.79059191735
 30
0.0
 11
4873.703718568624
 21
3102.610967163991
 31
0.0
  0
LINE
  5
228
330
17
100
AcDbEntity
  8
COTA
 62
4
370
25
100
AcDbLine
 10
4880.703718568624
 20
3125.79059191735
 30
0.0
 11
4880.703718568624
 21
3102.610967163991
 31
0.0
  0
LINE
  5
229
330
17
100
AcDbEntity
  8
COTA
 62
4
370
25
100
AcDbLine
 10
4880.703718568624
 20
3105.610967163991
 30
0.0
 11
4873.703718568624
 21
3105.610967163991
 31
0.0
  0
LINE
  5
22A
330
17
100
AcDbEntity
  8
COTA
 62
4
370
25
100
AcDbLine
 10
4873.703718568624
 20
3105.610967163991
 30
0.0
 11
4854.095413704332
 21
3105.610967163991
 31
0.0
  0
LINE
  5
22B
330
17
100
AcDbEntity
  8
COTA
 62
0
370
25
100
AcDbLine
 10
4879.203718568624
 20
3104.110967163991
 30
0.0
 11
4882.203718568624
 21
3107.110967163991
 31
0.0
  0
LINE
  5
22C
330
17
100
AcDbEntity
  8
COTA
 62
0
370
25
100
AcDbLine
 10
4875.203718568624
 20
3107.110967163991
 30
0.0
 11
4872.203718568624
 21
3104.110967163991
 31
0.0
  0
LINE
  5
22D
330
17
100
AcDbEntity
  8
Painéis
 62
4
370
25
100
AcDbLine
 10
4848.703718568626
 20
3231.790591917356
 30
0.0
 11
4819.897561097789
 21
3231.790591917356
 31
0.0
  0
LINE
  5
22E
330
17
100
AcDbEntity
  8
Painéis
 62
4
370
25
100
AcDbLine
 10
4848.703718568621
 20
3193.790591917339
 30
0.0
 11
4819.897561097789
 21
3193.790591917339
 31
0.0
  0
LINE
  5
22F
330
17
100
AcDbEntity
  8
Painéis
 62
4
370
25
100
AcDbLine
 10
4822.897561097789
 20
3231.790591917356
 30
0.0
 11
4822.897561097789
 21
3193.790591917339
 31
0.0
  0
LINE
  5
230
330
17
100
AcDbEntity
  8
Painéis
 62
0
370
25
100
AcDbLine
 10
4824.397561097789
 20
3230.290591917356
 30
0.0
 11
4821.397561097789
 21
3233.290591917356
 31
0.0
  0
LINE
  5
231
330
17
100
AcDbEntity
  8
Painéis
 62
0
370
25
100
AcDbLine
 10
4821.397561097789
 20
3195.290591917339
 30
0.0
 11
4824.397561097789
 21
3192.290591917339
 31
0.0
  0
LINE
  5
232
330
17
100
AcDbEntity
  8
Painéis
 62
4
370
25
100
AcDbLine
 10
4880.703718568618
 20
3190.790591917333
 30
0.0
 11
4880.703718568618
 21
3161.983882358797
 31
0.0
  0
LINE
  5
233
330
17
100
AcDbEntity
  8
Painéis
 62
4
370
25
100
AcDbLine
 10
4851.703718568618
 20
3190.790591917336
 30
0.0
 11
4851.703718568618
 21
3161.983882358797
 31
0.0
  0
LINE
  5
234
330
17
100
AcDbEntity
  8
Painéis
 62
4
370
25
100
AcDbLine
 10
4880.703718568618
 20
3164.983882358797
 30
0.0
 11
4851.703718568618
 21
3164.983882358797
 31
0.0
  0
LINE
  5
235
330
17
100
AcDbEntity
  8
Painéis
 62
0
370
25
100
AcDbLine
 10
4879.203718568618
 20
3163.483882358797
 30
0.0
 11
4882.203718568618
 21
3166.483882358797
 31
0.0
  0
LINE
  5
236
330
17
100
AcDbEntity
  8
Painéis
 62
0
370
25
100
AcDbLine
 10
4853.203718568618
 20
3166.483882358797
 30
0.0
 11
4850.203718568618
 21
3163.483882358797
 31
0.0
  0
LINE
  5
237
330
17
100
AcDbEntity
  8
Painéis
 62
4
370
25
100
AcDbLine
 10
4880.703718568624
 20
3125.79059191735
 30
0.0
 11
4880.703718568624
 21
3086.41335170428
 31
0.0
  0
LINE
  5
238
330
17
100
AcDbEntity
  8
Painéis
 62
4
370
25
100
AcDbLine
 10
4676.748859327815
 20
3125.790591917343
 30
0.0
 11
4676.748859327815
 21
3086.41335170428
 31
0.0
  0
LINE
  5
239
330
17
100
AcDbEntity
  8
Painéis
 62
4
370
25
100
AcDbLine
 10
4880.703718568624
 20
3089.41335170428
 30
0.0
 11
4676.748859327815
 21
3089.41335170428
 31
0.0
  0
LINE
  5
23A
330
17
100
AcDbEntity
  8
Painéis
 62
0
370
25
100
AcDbLine
 10
4879.203718568624
 20
3087.91335170428
 30
0.0
 11
4882.203718568624
 21
3090.91335170428
 31
0.0
  0
LINE
  5
23B
330
17
100
AcDbEntity
  8
Painéis
 62
0
370
25
100
AcDbLine
 10
4678.248859327815
 20
3090.91335170428
 30
0.0
 11
4675.248859327815
 21
3087.91335170428
 31
0.0
  0
LINE
  5
23C
330
17
100
AcDbEntity
  8
Painéis
 62
4
370
25
100
AcDbLine
 10
4349.748859327801
 20
3237.790591917377
 30
0.0
 11
4373.555016798574
 21
3237.790591917377
 31
0.0
  0
LINE
  5
23D
330
17
100
AcDbEntity
  8
Painéis
 62
4
370
25
100
AcDbLine
 10
4349.748859327807
 20
3193.790591917359
 30
0.0
 11
4373.555016798574
 21
3193.790591917359
 31
0.0
  0
LINE
  5
23E
330
17
100
AcDbEntity
  8
Painéis
 62
4
370
25
100
AcDbLine
 10
4370.555016798574
 20
3237.790591917377
 30
0.0
 11
4370.555016798574
 21
3193.790591917359
 31
0.0
  0
LINE
  5
23F
330
17
100
AcDbEntity
  8
Painéis
 62
0
370
25
100
AcDbLine
 10
4372.055016798574
 20
3236.290591917377
 30
0.0
 11
4369.055016798574
 21
3239.290591917377
 31
0.0
  0
LINE
  5
240
330
17
100
AcDbEntity
  8
Painéis
 62
0
370
25
100
AcDbLine
 10
4369.055016798574
 20
3195.290591917359
 30
0.0
 11
4372.055016798574
 21
3192.290591917359
 31
0.0
  0
LINE
  5
241
330
17
100
AcDbEntity
  8
Painéis
 62
4
370
25
100
AcDbLine
 10
4312.748859327805
 20
3190.790591917354
 30
0.0
 11
4312.748859327805
 21
3166.933717084982
 31
0.0
  0
LINE
  5
242
330
17
100
AcDbEntity
  8
Painéis
 62
4
370
25
100
AcDbLine
 10
4346.748859327805
 20
3190.790591917358
 30
0.0
 11
4346.748859327805
 21
3166.933717084982
 31
0.0
  0
LINE
  5
243
330
17
100
AcDbEntity
  8
Painéis
 62
4
370
25
100
AcDbLine
 10
4312.748859327805
 20
3169.933717084982
 30
0.0
 11
4346.748859327805
 21
3169.933717084982
 31
0.0
  0
LINE
  5
244
330
17
100
AcDbEntity
  8
Painéis
 62
0
370
25
100
AcDbLine
 10
4314.248859327805
 20
3171.433717084982
 30
0.0
 11
4311.248859327805
 21
3168.433717084982
 31
0.0
  0
LINE
  5
245
330
17
100
AcDbEntity
  8
Painéis
 62
0
370
25
100
AcDbLine
 10
4345.248859327805
 20
3168.433717084982
 30
0.0
 11
4348.248859327805
 21
3171.433717084982
 31
0.0
  0
LINE
  5
246
330
17
100
AcDbEntity
  8
Painéis
 62
4
370
25
100
AcDbLine
 10
4312.7488593278
 20
3151.587671844176
 30
0.0
 11
4312.7488593278
 21
3153.052228492441
 31
0.0
  0
LINE
  5
247
330
17
100
AcDbEntity
  8
Painéis
 62
4
370
25
100
AcDbLine
 10
4436.748859327799
 20
3151.587671844176
 30
0.0
 11
4436.748859327799
 21
3153.052228492441
 31
0.0
  0
LINE
  5
248
330
17
100
AcDbEntity
  8
Painéis
 62
4
370
25
100
AcDbLine
 10
4312.7488593278
 20
3150.052228492441
 30
0.0
 11
4436.748859327799
 21
3150.052228492441
 31
0.0
  0
LINE
  5
249
330
17
100
AcDbEntity
  8
Painéis
 62
0
370
25
100
AcDbLine
 10
4314.2488593278
 20
3151.552228492441
 30
0.0
 11
4311.2488593278
 21
3148.552228492441
 31
0.0
  0
LINE
  5
24A
330
17
100
AcDbEntity
  8
Painéis
 62
0
370
25
100
AcDbLine
 10
4435.248859327799
 20
3148.552228492441
 30
0.0
 11
4438.248859327799
 21
3151.552228492441
 31
0.0
  0
LINE
  5
24B
330
17
100
AcDbEntity
  8
COTA
 62
4
370
25
100
AcDbLine
 10
4319.748859327796
 20
3125.790591917372
 30
0.0
 11
4319.748859327796
 21
3102.610967164014
 31
0.0
  0
LINE
  5
24C
330
17
100
AcDbEntity
  8
COTA
 62
4
370
25
100
AcDbLine
 10
4312.748859327796
 20
3125.790591917372
 30
0.0
 11
4312.748859327796
 21
3102.610967164014
 31
0.0
  0
LINE
  5
24D
330
17
100
AcDbEntity
  8
COTA
 62
4
370
25
100
AcDbLine
 10
4312.748859327796
 20
3105.610967164013
 30
0.0
 11
4319.748859327796
 21
3105.610967164013
 31
0.0
  0
LINE
  5
24E
330
17
100
AcDbEntity
  8
COTA
 62
4
370
25
100
AcDbLine
 10
4319.748859327796
 20
3105.610967164013
 30
0.0
 11
4339.357164192088
 21
3105.610967164013
 31
0.0
  0
LINE
  5
24F
330
17
100
AcDbEntity
  8
COTA
 62
0
370
25
100
AcDbLine
 10
4314.248859327796
 20
3107.110967164013
 30
0.0
 11
4311.248859327796
 21
3104.110967164013
 31
0.0
  0
LINE
  5
250
330
17
100
AcDbEntity
  8
COTA
 62
0
370
25
100
AcDbLine
 10
4318.248859327796
 20
3104.110967164013
 30
0.0
 11
4321.248859327796
 21
3107.110967164013
 31
0.0
  0
LINE
  5
251
330
17
100
AcDbEntity
  8
Painéis
 62
4
370
25
100
AcDbLine
 10
4679.748859327804
 20
3231.790591917353
 30
0.0
 11
4703.555016798568
 21
3231.790591917353
 31
0.0
  0
LINE
  5
252
330
17
100
AcDbEntity
  8
Painéis
 62
4
370
25
100
AcDbLine
 10
4679.74885932781
 20
3193.75620607828
 30
0.0
 11
4703.555016798568
 21
3193.75620607828
 31
0.0
  0
LINE
  5
253
330
17
100
AcDbEntity
  8
Painéis
 62
4
370
25
100
AcDbLine
 10
4700.555016798568
 20
3231.790591917353
 30
0.0
 11
4700.555016798568
 21
3193.75620607828
 31
0.0
  0
LINE
  5
254
330
17
100
AcDbEntity
  8
Painéis
 62
0
370
25
100
AcDbLine
 10
4702.055016798568
 20
3230.290591917353
 30
0.0
 11
4699.055016798568
 21
3233.290591917353
 31
0.0
  0
LINE
  5
255
330
17
100
AcDbEntity
  8
Painéis
 62
0
370
25
100
AcDbLine
 10
4699.055016798568
 20
3195.25620607828
 30
0.0
 11
4702.055016798568
 21
3192.25620607828
 31
0.0
  0
LINE
  5
256
330
17
100
AcDbEntity
  8
Painéis
 62
4
370
25
100
AcDbLine
 10
4649.748859327808
 20
3196.756206078274
 30
0.0
 11
4649.748859327808
 21
3208.564211886406
 31
0.0
  0
LINE
  5
257
330
17
100
AcDbEntity
  8
Painéis
 62
4
370
25
100
AcDbLine
 10
4676.748859327808
 20
3196.756206078278
 30
0.0
 11
4676.748859327808
 21
3208.564211886406
 31
0.0
  0
LINE
  5
258
330
17
100
AcDbEntity
  8
Painéis
 62
4
370
25
100
AcDbLine
 10
4649.748859327808
 20
3205.564211886406
 30
0.0
 11
4676.748859327808
 21
3205.564211886406
 31
0.0
  0
LINE
  5
259
330
17
100
AcDbEntity
  8
Painéis
 62
0
370
25
100
AcDbLine
 10
4651.248859327808
 20
3207.064211886406
 30
0.0
 11
4648.248859327808
 21
3204.064211886406
 31
0.0
  0
LINE
  5
25A
330
17
100
AcDbEntity
  8
Painéis
 62
0
370
25
100
AcDbLine
 10
4675.248859327808
 20
3204.064211886406
 30
0.0
 11
4678.248859327808
 21
3207.064211886406
 31
0.0
  0
LINE
  5
25B
330
17
100
AcDbEntity
  8
Painéis
 62
4
370
25
100
AcDbLine
 10
4880.703718568624
 20
3125.79059191735
 30
0.0
 11
4880.703718568624
 21
3058.980747191986
 31
0.0
  0
LINE
  5
25C
330
17
100
AcDbEntity
  8
Painéis
 62
4
370
25
100
AcDbLine
 10
4312.748859327796
 20
3125.79059191735
 30
0.0
 11
4312.748859327796
 21
3058.980747191986
 31
0.0
  0
LINE
  5
25D
330
17
100
AcDbEntity
  8
Painéis
 62
4
370
25
100
AcDbLine
 10
4880.703718568624
 20
3061.980747191986
 30
0.0
 11
4312.748859327796
 21
3061.980747191986
 31
0.0
  0
LINE
  5
25E
330
17
100
AcDbEntity
  8
Painéis
 62
0
370
25
100
AcDbLine
 10
4879.203718568624
 20
3060.480747191986
 30
0.0
 11
4882.203718568624
 21
3063.480747191986
 31
0.0
  0
LINE
  5
25F
330
17
100
AcDbEntity
  8
Painéis
 62
0
370
25
100
AcDbLine
 10
4314.248859327796
 20
3063.480747191986
 30
0.0
 11
4311.248859327796
 21
3060.480747191986
 31
0.0
  0
LINE
  5
260
330
17
100
AcDbEntity
  8
COTA
 62
4
370
25
100
AcDbLine
 10
4725.703718568626
 20
3565.255638643104
 30
0.0
 11
4725.703718568626
 21
3571.908610527517
 31
0.0
  0
LINE
  5
261
330
17
100
AcDbEntity
  8
COTA
 62
4
370
25
100
AcDbLine
 10
4846.703718568626
 20
3565.255638643104
 30
0.0
 11
4846.703718568626
 21
3571.908610527517
 31
0.0
  0
LINE
  5
262
330
17
100
AcDbEntity
  8
COTA
 62
4
370
25
100
AcDbLine
 10
4725.703718568626
 20
3568.908610527517
 30
0.0
 11
4846.703718568626
 21
3568.908610527517
 31
0.0
  0
LINE
  5
263
330
17
100
AcDbEntity
  8
COTA
 62
0
370
25
100
AcDbLine
 10
4727.203718568626
 20
3570.408610527517
 30
0.0
 11
4724.203718568626
 21
3567.408610527517
 31
0.0
  0
LINE
  5
264
330
17
100
AcDbEntity
  8
COTA
 62
0
370
25
100
AcDbLine
 10
4845.203718568626
 20
3567.408610527517
 30
0.0
 11
4848.203718568626
 21
3570.408610527517
 31
0.0
  0
LINE
  5
265
330
17
100
AcDbEntity
  8
COTA
 62
4
370
25
100
AcDbLine
 10
4849.703718568628
 20
3559.255638643105
 30
0.0
 11
4907.802709735826
 21
3559.255638643105
 31
0.0
  0
LINE
  5
266
330
17
100
AcDbEntity
  8
COTA
 62
4
370
25
100
AcDbLine
 10
4849.703718568628
 20
3562.255638643105
 30
0.0
 11
4907.802709735826
 21
3562.255638643105
 31
0.0
  0
LINE
  5
267
330
17
100
AcDbEntity
  8
COTA
 62
4
370
25
100
AcDbLine
 10
4904.802709735826
 20
3559.255638643105
 30
0.0
 11
4904.802709735826
 21
3556.255638643106
 31
0.0
  0
LINE
  5
268
330
17
100
AcDbEntity
  8
COTA
 62
4
370
25
100
AcDbLine
 10
4904.802709735826
 20
3562.255638643105
 30
0.0
 11
4904.802709735826
 21
3580.586047999831
 31
0.0
  0
LINE
  5
269
330
17
100
AcDbEntity
  8
COTA
 62
4
370
25
100
AcDbLine
 10
4904.802709735826
 20
3559.255638643105
 30
0.0
 11
4904.802709735826
 21
3562.255638643105
 31
0.0
  0
LINE
  5
26A
330
17
100
AcDbEntity
  8
COTA
 62
0
370
25
100
AcDbLine
 10
4906.302709735826
 20
3557.755638643105
 30
0.0
 11
4903.302709735826
 21
3560.755638643105
 31
0.0
  0
LINE
  5
26B
330
17
100
AcDbEntity
  8
COTA
 62
0
370
25
100
AcDbLine
 10
4903.302709735826
 20
3563.755638643105
 30
0.0
 11
4906.302709735826
 21
3560.755638643105
 31
0.0
  0
LINE
  5
26C
330
17
100
AcDbEntity
  8
COTA
 62
4
370
25
100
AcDbLine
 10
4346.748859327794
 20
3255.790591917352
 30
0.0
 11
4346.748859327794
 21
3262.443563801766
 31
0.0
  0
LINE
  5
26D
330
17
100
AcDbEntity
  8
COTA
 62
4
370
25
100
AcDbLine
 10
4467.748859327794
 20
3255.790591917352
 30
0.0
 11
4467.748859327794
 21
3262.443563801766
 31
0.0
  0
LINE
  5
26E
330
17
100
AcDbEntity
  8
COTA
 62
4
370
25
100
AcDbLine
 10
4346.748859327794
 20
3259.443563801766
 30
0.0
 11
4467.748859327794
 21
3259.443563801766
 31
0.0
  0
LINE
  5
26F
330
17
100
AcDbEntity
  8
COTA
 62
0
370
25
100
AcDbLine
 10
4348.248859327794
 20
3260.943563801766
 30
0.0
 11
4345.248859327794
 21
3257.943563801766
 31
0.0
  0
LINE
  5
270
330
17
100
AcDbEntity
  8
COTA
 62
0
370
25
100
AcDbLine
 10
4466.248859327794
 20
3257.943563801766
 30
0.0
 11
4469.248859327794
 21
3260.943563801766
 31
0.0
  0
LINE
  5
271
330
17
100
AcDbEntity
  8
COTA
 62
4
370
25
100
AcDbLine
 10
4144.601687143367
 20
3056.196170128366
 30
0.0
 11
4144.601687143367
 21
3020.999836749544
 31
0.0
  0
LINE
  5
272
330
17
100
AcDbEntity
  8
COTA
 62
4
370
25
100
AcDbLine
 10
4182.540543482837
 20
3056.196170128377
 30
0.0
 11
4182.540543482837
 21
3020.999836749544
 31
0.0
  0
LINE
  5
273
330
17
100
AcDbEntity
  8
COTA
 62
4
370
25
100
AcDbLine
 10
4139.601687143367
 20
3025.999836749544
 30
0.0
 11
4187.540543482837
 21
3025.999836749544
 31
0.0
  0
LINE
  5
274
330
17
100
AcDbEntity
  8
COTA
 62
4
370
25
100
AcDbLine
 10
4187.540543482838
 20
3061.196170128378
 30
0.0
 11
4205.538618717794
 21
3061.196170128378
 31
0.0
  0
LINE
  5
275
330
17
100
AcDbEntity
  8
COTA
 62
4
370
25
100
AcDbLine
 10
4187.540543482838
 20
3191.19617012837
 30
0.0
 11
4205.538618717794
 21
3191.19617012837
 31
0.0
  0
LINE
  5
276
330
17
100
AcDbEntity
  8
COTA
 62
4
370
25
100
AcDbLine
 10
4200.538618717794
 20
3056.196170128378
 30
0.0
 11
4200.538618717794
 21
3196.19617012837
 31
0.0
  0
LINE
  5
277
330
17
100
AcDbEntity
  8
Texto Seção
 62
252
370
15
100
AcDbLine
 10
3734.003861368196
 20
3603.520692852862
 30
0.0
 11
3734.003861368196
 21
3728.520692852862
 31
0.0
  0
LINE
  5
278
330
17
100
AcDbEntity
  8
Texto Seção
 62
252
370
15
100
AcDbLine
 10
4185.71683544217
 20
3603.520692852861
 30
0.0
 11
4185.71683544217
 21
3728.520692852861
 31
0.0
  0
LWPOLYLINE
  5
279
330
17
100
AcDbEntity
  8
Painéis
 62
200
370
25
100
AcDbPolyline
 90
4
 70
0
 10
3708.803861368198
 20
3573.52069285284
 10
3712.803861368199
 20
3573.52069285284
 10
3712.803861368199
 20
3485.520692852862
 10
3708.803861368198
 20
3485.520692852862
  0
LWPOLYLINE
  5
27A
330
17
100
AcDbEntity
  8
Madeira
 62
126
370
18
100
AcDbPolyline
 90
4
 70
0
 10
3750.803861368198
 20
3485.520692852862
 10
3750.803861368198
 20
3489.920692852856
 10
3736.803861368198
 20
3489.920692852856
 10
3736.803861368198
 20
3485.520692852862
  0
LWPOLYLINE
  5
27B
330
17
100
AcDbEntity
  8
Painéis
 62
200
370
25
100
AcDbPolyline
 90
4
 70
0
 10
3750.803861368198
 20
3489.920692852856
 10
3750.803861368198
 20
3493.520692852861
 10
3712.803861368199
 20
3493.520692852861
 10
3712.803861368199
 20
3489.920692852856
  0
LWPOLYLINE
  5
27C
330
17
100
AcDbEntity
  8
Madeira
 62
126
370
18
100
AcDbPolyline
 90
4
 70
0
 10
3712.803861368199
 20
3485.520692852862
 10
3712.803861368199
 20
3489.920692852856
 10
3726.803861368199
 20
3489.920692852856
 10
3726.803861368199
 20
3485.520692852862
  0
LWPOLYLINE
  5
27D
330
17
100
AcDbEntity
  8
Painéis
 62
200
370
25
100
AcDbPolyline
 90
4
 70
0
 10
3754.803861368198
 20
3573.52069285284
 10
3750.803861368198
 20
3573.52069285284
 10
3750.803861368198
 20
3485.520692852862
 10
3754.803861368198
 20
3485.520692852862
  0
LWPOLYLINE
  5
27E
330
17
100
AcDbEntity
  8
Painéis
 62
200
370
25
100
AcDbPolyline
 90
4
 70
0
 10
3810.803861368169
 20
3573.52069285284
 10
3810.803861368169
 20
3577.52069285284
 10
3750.803861368198
 20
3577.52069285284
 10
3750.803861368198
 20
3573.52069285284
  0
LWPOLYLINE
  5
27F
330
17
100
AcDbEntity
  8
Painéis
 62
200
370
25
100
AcDbPolyline
 90
4
 70
0
 10
3712.803861368199
 20
3573.52069285284
 10
3712.803861368199
 20
3577.52069285284
 10
3657.203861368222
 20
3577.520692852833
 10
3657.203861368222
 20
3573.520692852832
  0
LWPOLYLINE
  5
280
330
17
100
AcDbEntity
  8
CONCRETO
 62
251
370
25
100
AcDbPolyline
 90
8
 70
0
 10
3657.203861368222
 20
3577.520692852833
 10
3657.203861368222
 20
3603.520692852862
 10
3810.803861368169
 20
3603.520692852862
 10
3810.803861368169
 20
3577.520692852847
 10
3750.803861368198
 20
3577.520692852847
 10
3750.80386136814
 20
3493.520692852861
 10
3712.803861368199
 20
3493.520692852861
 10
3712.803861368199
 20
3577.52069285284
  0
LWPOLYLINE
  5
281
330
17
100
AcDbEntity
  8
Madeira
 62
126
370
18
100
AcDbPolyline
 90
4
 70
0
 10
3704.403861368204
 20
3559.52069285284
 10
3708.803861368198
 20
3559.52069285284
 10
3708.803861368198
 20
3573.52069285284
 10
3704.403861368204
 20
3573.52069285284
  0
LWPOLYLINE
  5
282
330
17
100
AcDbEntity
  8
Madeira
 62
126
370
18
100
AcDbPolyline
 90
4
 70
0
 10
3704.403861368204
 20
3485.520692852862
 10
3708.803861368198
 20
3485.520692852862
 10
3708.803861368198
 20
3499.520692852862
 10
3704.403861368204
 20
3499.520692852862
  0
LWPOLYLINE
  5
283
330
17
100
AcDbEntity
  8
Madeira
 62
126
370
18
100
AcDbPolyline
 90
4
 70
0
 10
3759.203861368193
 20
3559.52069285284
 10
3754.803861368198
 20
3559.52069285284
 10
3754.803861368198
 20
3573.52069285284
 10
3759.203861368193
 20
3573.52069285284
  0
LWPOLYLINE
  5
284
330
17
100
AcDbEntity
  8
Madeira
 62
126
370
18
100
AcDbPolyline
 90
4
 70
0
 10
3759.203861368193
 20
3485.520692852862
 10
3754.803861368198
 20
3485.520692852862
 10
3754.803861368198
 20
3499.520692852862
 10
3759.203861368193
 20
3499.520692852862
  0
LWPOLYLINE
  5
285
330
17
100
AcDbEntity
  8
Madeira
 62
126
370
18
100
AcDbPolyline
 90
4
 70
0
 10
3704.403861368204
 20
3522.520692852851
 10
3708.803861368198
 20
3522.520692852851
 10
3708.803861368198
 20
3536.520692852851
 10
3704.403861368204
 20
3536.520692852851
  0
LWPOLYLINE
  5
286
330
17
100
AcDbEntity
  8
Madeira
 62
126
370
18
100
AcDbPolyline
 90
4
 70
0
 10
3759.203861368193
 20
3522.520692852851
 10
3754.803861368198
 20
3522.520692852851
 10
3754.803861368198
 20
3536.520692852851
 10
3759.203861368193
 20
3536.520692852851
  0
LWPOLYLINE
  5
287
330
17
100
AcDbEntity
  8
SARR_3.5x7
 62
81
370
25
100
AcDbPolyline
 90
4
 70
0
 10
3690.403861368139
 20
3567.52069285284
 10
3704.403861368139
 20
3567.52069285284
 10
3704.403861368266
 20
3409.042479447056
 10
3690.403861368266
 20
3409.042479447056
  0
LWPOLYLINE
  5
288
330
17
100
AcDbEntity
  8
SARR_3.5x7
 62
81
370
25
100
AcDbPolyline
 90
4
 70
0
 10
3773.203861368426
 20
3567.520692852842
 10
3759.203861368425
 20
3567.520692852842
 10
3759.20386136828
 20
3409.042479447056
 10
3773.20386136828
 20
3409.042479447056
  0
LWPOLYLINE
  5
289
330
17
100
AcDbEntity
  8
SARR_3.5x7
 62
81
370
25
100
AcDbPolyline
 90
4
 70
0
 10
3690.403861368125
 20
3485.520692852862
 10
3773.203861368327
 20
3485.52069285286
 10
3773.203861368327
 20
3455.462631248861
 10
3690.403861368125
 20
3455.462631248863
  0
LWPOLYLINE
  5
28A
330
17
100
AcDbEntity
  8
Painéis
 62
200
370
25
100
AcDbPolyline
 90
4
 70
0
 10
3577.279874776416
 20
3349.519056670653
 10
3777.279874776416
 20
3349.519056670653
 10
3777.279874776416
 20
3346.519056670653
 10
3577.279874776416
 20
3346.519056670653
  0
LWPOLYLINE
  5
28B
330
17
100
AcDbEntity
  8
Painéis
 62
200
370
25
100
AcDbPolyline
 90
4
 70
0
 10
3992.279874776426
 20
3136.605168155265
 10
3792.279874776426
 20
3136.605168155265
 10
3792.279874776426
 20
3133.605168155265
 10
3992.279874776426
 20
3133.605168155265
  0
LWPOLYLINE
  5
28C
330
17
100
AcDbEntity
  8
Painéis
 62
200
370
25
100
AcDbPolyline
 90
4
 70
0
 10
4160.516835442172
 20
3573.520692852838
 10
4164.516835442173
 20
3573.520692852838
 10
4164.516835442173
 20
3355.520692852861
 10
4160.516835442172
 20
3355.520692852861
  0
LWPOLYLINE
  5
28D
330
17
100
AcDbEntity
  8
Madeira
 62
126
370
18
100
AcDbPolyline
 90
4
 70
0
 10
4202.516835442173
 20
3355.520692852861
 10
4202.516835442173
 20
3359.920692852855
 10
4188.516835442173
 20
3359.920692852855
 10
4188.516835442173
 20
3355.520692852861
  0
LWPOLYLINE
  5
28E
330
17
100
AcDbEntity
  8
Painéis
 62
200
370
25
100
AcDbPolyline
 90
4
 70
0
 10
4202.516835442173
 20
3359.920692852855
 10
4202.516835442173
 20
3363.520692852861
 10
4164.516835442173
 20
3363.520692852861
 10
4164.516835442173
 20
3359.920692852855
  0
LWPOLYLINE
  5
28F
330
17
100
AcDbEntity
  8
Madeira
 62
126
370
18
100
AcDbPolyline
 90
4
 70
0
 10
4164.516835442173
 20
3355.520692852861
 10
4164.516835442173
 20
3359.920692852855
 10
4178.516835442173
 20
3359.920692852855
 10
4178.516835442173
 20
3355.520692852861
  0
LWPOLYLINE
  5
290
330
17
100
AcDbEntity
  8
Painéis
 62
200
370
25
100
AcDbPolyline
 90
4
 70
0
 10
4206.516835442172
 20
3573.520692852838
 10
4202.516835442173
 20
3573.520692852838
 10
4202.516835442173
 20
3355.520692852861
 10
4206.516835442172
 20
3355.520692852861
  0
LWPOLYLINE
  5
291
330
17
100
AcDbEntity
  8
Painéis
 62
200
370
25
100
AcDbPolyline
 90
4
 70
0
 10
4246.460350166755
 20
3573.520692852838
 10
4246.460350166755
 20
3577.520692852839
 10
4202.516835442173
 20
3577.520692852839
 10
4202.516835442173
 20
3573.520692852838
  0
LWPOLYLINE
  5
292
330
17
100
AcDbEntity
  8
Painéis
 62
200
370
25
100
AcDbPolyline
 90
4
 70
0
 10
4164.516835442173
 20
3573.520692852838
 10
4164.516835442173
 20
3577.520692852839
 10
4125.880198255847
 20
3577.520692852831
 10
4125.880198255847
 20
3573.520692852831
  0
LWPOLYLINE
  5
293
330
17
100
AcDbEntity
  8
CONCRETO
 62
251
370
25
100
AcDbPolyline
 90
8
 70
0
 10
4125.880198255847
 20
3577.520692852831
 10
4125.880198255847
 20
3603.520692852861
 10
4246.460350166755
 20
3603.520692852861
 10
4246.460350166755
 20
3577.520692852846
 10
4202.516835442173
 20
3577.520692852846
 10
4202.516835442114
 20
3363.520692852861
 10
4164.516835442173
 20
3363.520692852861
 10
4164.516835442173
 20
3577.520692852839
  0
LWPOLYLINE
  5
294
330
17
100
AcDbEntity
  8
Madeira
 62
126
370
18
100
AcDbPolyline
 90
4
 70
0
 10
4156.116835442179
 20
3559.520692852839
 10
4160.516835442172
 20
3559.520692852839
 10
4160.516835442172
 20
3573.520692852838
 10
4156.116835442179
 20
3573.520692852838
  0
LWPOLYLINE
  5
295
330
17
100
AcDbEntity
  8
Madeira
 62
126
370
18
100
AcDbPolyline
 90
4
 70
0
 10
4156.116835442179
 20
3355.520692852861
 10
4160.516835442172
 20
3355.520692852861
 10
4160.516835442172
 20
3369.520692852861
 10
4156.116835442179
 20
3369.520692852861
  0
LWPOLYLINE
  5
296
330
17
100
AcDbEntity
  8
Madeira
 62
126
370
18
100
AcDbPolyline
 90
4
 70
0
 10
4210.916835442167
 20
3559.520692852839
 10
4206.516835442172
 20
3559.520692852839
 10
4206.516835442172
 20
3573.520692852838
 10
4210.916835442167
 20
3573.520692852838
  0
LWPOLYLINE
  5
297
330
17
100
AcDbEntity
  8
Madeira
 62
126
370
18
100
AcDbPolyline
 90
4
 70
0
 10
4210.916835442167
 20
3355.520692852861
 10
4206.516835442172
 20
3355.520692852861
 10
4206.516835442172
 20
3369.520692852861
 10
4210.916835442167
 20
3369.520692852861
  0
LWPOLYLINE
  5
298
330
17
100
AcDbEntity
  8
Madeira
 62
126
370
18
100
AcDbPolyline
 90
4
 70
0
 10
4156.116835442179
 20
3423.765023705055
 10
4160.516835442172
 20
3423.765023705055
 10
4160.516835442172
 20
3437.765023705054
 10
4156.116835442179
 20
3437.765023705054
  0
LWPOLYLINE
  5
299
330
17
100
AcDbEntity
  8
Madeira
 62
126
370
18
100
AcDbPolyline
 90
4
 70
0
 10
4210.916835442167
 20
3423.765023705055
 10
4206.516835442172
 20
3423.765023705055
 10
4206.516835442172
 20
3437.765023705054
 10
4210.916835442167
 20
3437.765023705054
  0
LWPOLYLINE
  5
29A
330
17
100
AcDbEntity
  8
SARR_3.5x7
 62
81
370
25
100
AcDbPolyline
 90
4
 70
0
 10
4142.116835442113
 20
3567.520692852839
 10
4156.116835442113
 20
3567.520692852839
 10
4156.11683544224
 20
3279.042479447055
 10
4142.11683544224
 20
3279.042479447055
  0
LWPOLYLINE
  5
29B
330
17
100
AcDbEntity
  8
SARR_3.5x7
 62
81
370
25
100
AcDbPolyline
 90
4
 70
0
 10
4224.9168354424
 20
3567.52069285284
 10
4210.916835442399
 20
3567.52069285284
 10
4210.916835442254
 20
3279.042479447055
 10
4224.916835442254
 20
3279.042479447055
  0
LWPOLYLINE
  5
29C
330
17
100
AcDbEntity
  8
SARR_3.5x7
 62
81
370
25
100
AcDbPolyline
 90
4
 70
0
 10
4142.116835442099
 20
3355.520692852861
 10
4224.916835442302
 20
3355.520692852859
 10
4224.916835442302
 20
3325.46263124886
 10
4142.116835442099
 20
3325.462631248862
  0
LWPOLYLINE
  5
29D
330
17
100
AcDbEntity
  8
Painéis
 62
200
370
25
100
AcDbPolyline
 90
4
 70
0
 10
4516.703718568614
 20
3555.255638643104
 10
4341.748859327801
 20
3555.255638643081
 10
4341.748859327801
 20
3562.255638643081
 10
4516.703718568614
 20
3562.255638643104
  0
LWPOLYLINE
  5
29E
330
17
100
AcDbEntity
  8
Madeira
 62
126
370
18
100
AcDbPolyline
 90
4
 70
0
 10
4156.116835442179
 20
3501.481280938737
 10
4160.516835442172
 20
3501.481280938737
 10
4160.516835442172
 20
3515.481280938737
 10
4156.116835442179
 20
3515.481280938737
  0
LWPOLYLINE
  5
29F
330
17
100
AcDbEntity
  8
Madeira
 62
126
370
18
100
AcDbPolyline
 90
4
 70
0
 10
4210.916835442167
 20
3501.481280938737
 10
4206.516835442172
 20
3501.481280938737
 10
4206.516835442172
 20
3515.481280938737
 10
4210.916835442167
 20
3515.481280938737
  0
LWPOLYLINE
  5
2A0
330
17
100
AcDbEntity
  8
Painéis
 62
200
370
25
100
AcDbPolyline
 90
4
 70
0
 10
4676.748859327805
 20
3245.790591917352
 10
4851.703718568618
 20
3245.790591917329
 10
4851.703718568618
 20
3252.790591917329
 10
4676.748859327805
 20
3252.790591917352
  0
LWPOLYLINE
  5
2A1
330
17
100
AcDbEntity
  8
Painéis
 62
200
370
25
100
AcDbPolyline
 90
4
 70
0
 10
4846.703718568626
 20
3562.255638643104
 10
4725.703718568626
 20
3562.255638643104
 10
4725.703718568626
 20
3559.255638643104
 10
4846.703718568626
 20
3559.255638643104
  0
LWPOLYLINE
  5
2A2
330
17
100
AcDbEntity
  8
Painéis
 62
200
370
25
100
AcDbPolyline
 90
4
 70
0
 10
4467.748859327794
 20
3252.790591917352
 10
4346.748859327794
 20
3252.790591917352
 10
4346.748859327794
 20
3249.790591917352
 10
4467.748859327794
 20
3249.790591917352
  0
LWPOLYLINE
  5
2A3
330
17
100
AcDbEntity
  8
SARR_2.2x7
 62
40
370
25
100
AcDbPolyline
 90
4
 70
0
 10
4168.56118052525
 20
3191.196170128368
 10
4182.540543482837
 20
3191.196170128368
 10
4182.540543482837
 20
3061.196170128377
 10
4168.56118052525
 20
3061.196170128377
  0
LWPOLYLINE
  5
2A4
330
17
100
AcDbEntity
  8
SARR_2.2x7
 62
40
370
25
100
AcDbPolyline
 90
4
 70
0
 10
4158.581050100955
 20
3191.196170128368
 10
4144.601687143367
 20
3191.196170128368
 10
4144.601687143367
 20
3061.196170128377
 10
4158.581050100955
 20
3061.196170128377
  0
LWPOLYLINE
  5
2A5
330
17
100
AcDbEntity
  8
Cotas
 62
1
370
25
100
AcDbPolyline
 90
4
 70
0
 10
4077.69911458817
 20
3224.595395142834
 10
4259.663916523954
 20
3224.595395142834
 10
4259.663916523954
 20
3001.027541645762
 10
4077.69911458817
 20
3001.027541645762
  0
LWPOLYLINE
  5
2A6
330
17
100
AcDbEntity
  8
COTA
 62
0
370
25
100
AcDbPolyline
 90
2
 70
0
 10
3830.17559412621
 20
3601.020692852856
 10
3825.17559412621
 20
3606.020692852856
  0
LWPOLYLINE
  5
2A7
330
17
100
AcDbEntity
  8
COTA
 62
0
370
25
100
AcDbPolyline
 90
2
 70
0
 10
3825.17559412621
 20
3580.020692852842
 10
3830.17559412621
 20
3575.020692852842
  0
LWPOLYLINE
  5
2A8
330
17
100
AcDbEntity
  8
COTA
 62
0
370
25
100
AcDbPolyline
 90
2
 70
0
 10
3602.327138279122
 20
3488.020692852863
 10
3607.327138279122
 20
3483.020692852863
  0
LWPOLYLINE
  5
2A9
330
17
100
AcDbEntity
  8
COTA
 62
0
370
25
100
AcDbPolyline
 90
2
 70
0
 10
3607.327138279122
 20
3601.020692852856
 10
3602.327138279122
 20
3606.020692852856
  0
LWPOLYLINE
  5
2AA
330
17
100
AcDbEntity
  8
COTA
 62
0
370
25
100
AcDbPolyline
 90
2
 70
0
 10
3825.175594126628
 20
3488.020692852863
 10
3830.175594126628
 20
3483.020692852863
  0
LWPOLYLINE
  5
2AB
330
17
100
AcDbEntity
  8
COTA
 62
0
370
25
100
AcDbPolyline
 90
2
 70
0
 10
3830.175594126628
 20
3571.020692852842
 10
3825.175594126628
 20
3576.020692852842
  0
LWPOLYLINE
  5
2AC
330
17
100
AcDbEntity
  8
COTA
 62
0
370
25
100
AcDbPolyline
 90
2
 70
0
 10
3626.646566764587
 20
3601.020692852856
 10
3621.646566764587
 20
3606.020692852856
  0
LWPOLYLINE
  5
2AD
330
17
100
AcDbEntity
  8
COTA
 62
0
370
25
100
AcDbPolyline
 90
2
 70
0
 10
3621.646566764587
 20
3580.020692852834
 10
3626.646566764587
 20
3575.020692852834
  0
LWPOLYLINE
  5
2AE
330
17
100
AcDbEntity
  8
COTA
 62
0
370
25
100
AcDbPolyline
 90
2
 70
0
 10
3626.646566764918
 20
3571.020692852834
 10
3621.646566764918
 20
3576.020692852834
  0
LWPOLYLINE
  5
2AF
330
17
100
AcDbEntity
  8
COTA
 62
0
370
25
100
AcDbPolyline
 90
2
 70
0
 10
3621.646566764918
 20
3488.020692852863
 10
3626.646566764918
 20
3483.020692852863
  0
LWPOLYLINE
  5
2B0
330
17
100
AcDbEntity
  8
COTA
 62
0
370
25
100
AcDbPolyline
 90
2
 70
0
 10
3715.303861368199
 20
3443.293879050672
 10
3710.303861368199
 20
3438.293879050672
  0
LWPOLYLINE
  5
2B1
330
17
100
AcDbEntity
  8
COTA
 62
0
370
25
100
AcDbPolyline
 90
2
 70
0
 10
3748.303861368198
 20
3438.293879050672
 10
3753.303861368198
 20
3443.293879050672
  0
LWPOLYLINE
  5
2B2
330
17
100
AcDbEntity
  8
COTA
 62
0
370
25
100
AcDbPolyline
 90
2
 70
0
 10
4265.832082924785
 20
3601.020692852856
 10
4260.832082924785
 20
3606.020692852856
  0
LWPOLYLINE
  5
2B3
330
17
100
AcDbEntity
  8
COTA
 62
0
370
25
100
AcDbPolyline
 90
2
 70
0
 10
4260.832082924785
 20
3580.020692852841
 10
4265.832082924785
 20
3575.020692852841
  0
LWPOLYLINE
  5
2B4
330
17
100
AcDbEntity
  8
COTA
 62
0
370
25
100
AcDbPolyline
 90
2
 70
0
 10
4071.00347516674
 20
3358.020692852863
 10
4076.00347516674
 20
3353.020692852863
  0
LWPOLYLINE
  5
2B5
330
17
100
AcDbEntity
  8
COTA
 62
0
370
25
100
AcDbPolyline
 90
2
 70
0
 10
4076.00347516674
 20
3601.020692852856
 10
4071.00347516674
 20
3606.020692852856
  0
LWPOLYLINE
  5
2B6
330
17
100
AcDbEntity
  8
COTA
 62
0
370
25
100
AcDbPolyline
 90
2
 70
0
 10
4260.832082925207
 20
3358.020692852863
 10
4265.832082925207
 20
3353.020692852863
  0
LWPOLYLINE
  5
2B7
330
17
100
AcDbEntity
  8
COTA
 62
0
370
25
100
AcDbPolyline
 90
2
 70
0
 10
4265.832082925207
 20
3571.020692852841
 10
4260.832082925207
 20
3576.020692852841
  0
LWPOLYLINE
  5
2B8
330
17
100
AcDbEntity
  8
COTA
 62
0
370
25
100
AcDbPolyline
 90
2
 70
0
 10
4095.322903652201
 20
3601.020692852856
 10
4090.322903652201
 20
3606.020692852856
  0
LWPOLYLINE
  5
2B9
330
17
100
AcDbEntity
  8
COTA
 62
0
370
25
100
AcDbPolyline
 90
2
 70
0
 10
4090.322903652201
 20
3580.020692852834
 10
4095.322903652201
 20
3575.020692852834
  0
LWPOLYLINE
  5
2BA
330
17
100
AcDbEntity
  8
COTA
 62
0
370
25
100
AcDbPolyline
 90
2
 70
0
 10
4095.322903652536
 20
3571.020692852834
 10
4090.322903652536
 20
3576.020692852834
  0
LWPOLYLINE
  5
2BB
330
17
100
AcDbEntity
  8
COTA
 62
0
370
25
100
AcDbPolyline
 90
2
 70
0
 10
4090.322903652536
 20
3358.020692852863
 10
4095.322903652536
 20
3353.020692852863
  0
LWPOLYLINE
  5
2BC
330
17
100
AcDbEntity
  8
COTA
 62
0
370
25
100
AcDbPolyline
 90
2
 70
0
 10
4167.016835442173
 20
3313.293879050671
 10
4162.016835442173
 20
3308.293879050671
  0
LWPOLYLINE
  5
2BD
330
17
100
AcDbEntity
  8
COTA
 62
0
370
25
100
AcDbPolyline
 90
2
 70
0
 10
4200.016835442173
 20
3308.293879050671
 10
4205.016835442173
 20
3313.293879050671
  0
LWPOLYLINE
  5
2BE
330
17
100
AcDbEntity
  8
COTA
 62
0
370
25
100
AcDbPolyline
 90
2
 70
0
 10
4146.601687143367
 20
3027.999836749544
 10
4142.601687143367
 20
3023.999836749544
  0
LWPOLYLINE
  5
2BF
330
17
100
AcDbEntity
  8
COTA
 62
0
370
25
100
AcDbPolyline
 90
2
 70
0
 10
4180.540543482837
 20
3023.999836749544
 10
4184.540543482837
 20
3027.999836749544
  0
LWPOLYLINE
  5
2C0
330
17
100
AcDbEntity
  8
COTA
 62
0
370
25
100
AcDbPolyline
 90
2
 70
0
 10
4198.538618717794
 20
3063.196170128378
 10
4202.538618717794
 20
3059.196170128378
  0
LWPOLYLINE
  5
2C1
330
17
100
AcDbEntity
  8
COTA
 62
0
370
25
100
AcDbPolyline
 90
2
 70
0
 10
4202.538618717794
 20
3189.19617012837
 10
4198.538618717794
 20
3193.19617012837
  0
TEXT
  5
2C2
330
17
100
AcDbEntity
  8
detalhes
 62
4
370
25
100
AcDbText
 10
3759.518344544237
 20
3503.710364382144
 30
0.0
 40
9.600000000000001
  1
b
100
AcDbText
  0
TEXT
  5
2C3
330
17
100
AcDbEntity
  8
detalhes
 62
4
370
25
100
AcDbText
 10
3696.9746858985
 20
3503.721421827719
 30
0.0
 40
9.600000000000001
  1
a
100
AcDbText
  0
TEXT
  5
2C4
330
17
100
AcDbEntity
  8
detalhes
 62
4
370
25
100
AcDbText
 10
3723.404126983643
 20
3495.756446372701
 30
0.0
 40
9.600000000000001
  1
c
100
AcDbText
  0
TEXT
  5
2C5
330
17
100
AcDbEntity
  8
5
 62
5
370
25
100
AcDbText
 10
3577.175788452404
 20
3213.474192494651
 30
0.0
 40
12.0
  1
P22
 50
3.55024762388e-05
100
AcDbText
  0
TEXT
  5
2C6
330
17
100
AcDbEntity
  8
5
 62
5
370
25
100
AcDbText
 10
3965.136745908856
 20
3207.567670744754
 30
0.0
 40
12.0
  1
V306
 50
3.55024762388e-05
100
AcDbText
  0
TEXT
  5
2C7
330
17
100
AcDbEntity
  8
Texto Seção
 62
7
370
15
100
AcDbText
 10
3580.309300085303
 20
3376.498688617773
 30
0.0
 40
13.0
  1
V317.A
100
AcDbText
  0
TEXT
  5
2C8
330
17
100
AcDbEntity
  8
Texto Seção
 62
7
370
15
100
AcDbText
 10
3580.309300085303
 20
3148.335458177994
 30
0.0
 40
13.0
  1
V317.B
100
AcDbText
  0
TEXT
  5
2C9
330
17
100
AcDbEntity
  8
detalhes
 62
4
370
25
100
AcDbText
 10
4211.231318618211
 20
3503.710364382143
 30
0.0
 40
9.600000000000001
  1
b
100
AcDbText
  0
TEXT
  5
2CA
330
17
100
AcDbEntity
  8
detalhes
 62
4
370
25
100
AcDbText
 10
4148.687659972474
 20
3503.721421827719
 30
0.0
 40
9.600000000000001
  1
a
100
AcDbText
  0
TEXT
  5
2CB
330
17
100
AcDbEntity
  8
detalhes
 62
4
370
25
100
AcDbText
 10
4175.117101057618
 20
3365.756446372699
 30
0.0
 40
9.600000000000001
  1
c
100
AcDbText
  0
TEXT
  5
2CC
330
17
100
AcDbEntity
  8
5
 62
5
370
25
100
AcDbText
 10
4848.661629961128
 20
3349.623120270404
 30
0.0
 40
12.0
  1
P14
 50
3.55024762388e-05
100
AcDbText
  0
TEXT
  5
2CD
330
17
100
AcDbEntity
  8
Texto Seção
 62
7
370
15
100
AcDbText
 10
4315.16645484949
 20
3570.058550147901
 30
0.0
 40
13.0
  1
V318.A
100
AcDbText
  0
TEXT
  5
2CE
330
17
100
AcDbEntity
  8
5
 62
5
370
25
100
AcDbText
 10
4309.824729930913
 20
3348.011400560114
 30
0.0
 40
12.0
  1
VF301
 50
359.9999644975238
100
AcDbText
  0
TEXT
  5
2CF
330
17
100
AcDbEntity
  8
5
 62
5
370
25
100
AcDbText
 10
4313.673118163075
 20
3040.158092280796
 30
0.0
 40
12.0
  1
P14
 50
359.9999644975238
100
AcDbText
  0
TEXT
  5
2D0
330
17
100
AcDbEntity
  8
Texto Seção
 62
7
370
15
100
AcDbText
 10
4309.254678961074
 20
3268.775004503781
 30
0.0
 40
13.0
  1
V318.B
100
AcDbText
  0
TEXT
  5
2D1
330
17
100
AcDbEntity
  8
5
 62
5
370
25
100
AcDbText
 10
4837.240399125134
 20
3038.546325091071
 30
0.0
 40
12.0
  1
VF301
 50
3.55024762388e-05
100
AcDbText
  0
TEXT
  5
2D2
330
17
100
AcDbEntity
  8
TEXTO PILAR
 62
3
370
15
100
AcDbText
 10
4166.32475480686
 20
3211.851868084577
 30
0.0
 40
12.0
  1
FECHAMENTO-2X
100
AcDbText
  0
TEXT
  5
2D3
330
17
100
AcDbEntity
  8
COTA
 62
1
370
25
100
AcDbText
 10
3836.17559412621
 20
3590.520692852847
 30
0.0
 40
7.0
  1
13
 50
90.0
100
AcDbText
  0
TEXT
  5
2D4
330
17
100
AcDbEntity
  8
COTA
 62
1
370
25
100
AcDbText
 10
3613.327138279122
 20
3544.520692852858
 30
0.0
 40
7.0
  1
59
 50
90.0
100
AcDbText
  0
TEXT
  5
2D5
330
17
100
AcDbEntity
  8
COTA
 62
1
370
25
100
AcDbText
 10
3836.175594126628
 20
3529.52069285285
 30
0.0
 40
7.0
  1
44
 50
90.0
100
AcDbText
  0
TEXT
  5
2D6
330
17
100
AcDbEntity
  8
Cota Seção (2x)
 62
1
370
25
100
AcDbText
 10
3752.803861369858
 20
3561.520692852826
 30
0.0
 40
7.0
  1
55
 50
90.0
100
AcDbText
  0
TEXT
  5
2D7
330
17
100
AcDbEntity
  8
COTA
 62
1
370
25
100
AcDbText
 10
3632.646566764587
 20
3590.520692852844
 30
0.0
 40
7.0
  1
13
 50
90.0
100
AcDbText
  0
TEXT
  5
2D8
330
17
100
AcDbEntity
  8
COTA
 62
1
370
25
100
AcDbText
 10
3632.646566764918
 20
3529.520692852847
 30
0.0
 40
7.0
  1
44
 50
90.0
100
AcDbText
  0
TEXT
  5
2D9
330
17
100
AcDbEntity
  8
COTA
 62
1
370
25
100
AcDbText
 10
3731.803861368199
 20
3446.293879050671
 30
0.0
 40
7.0
  1
19
100
AcDbText
  0
TEXT
  5
2DA
330
17
100
AcDbEntity
  8
Cota Seção (2x)
 62
1
370
25
100
AcDbText
 10
3731.803861368169
 20
3513.020692852862
 30
0.0
 40
7.0
  1
19
100
AcDbText
  0
TEXT
  5
2DB
330
17
100
AcDbEntity
  8
COTA
 62
240
370
25
100
AcDbText
 10
3699.279874776423
 20
3272.052230107702
 30
0.0
 40
10.0
  1
244
100
AcDbText
  0
TEXT
  5
2DC
330
17
100
AcDbEntity
  8
COTA
 62
240
370
25
100
AcDbText
 10
3939.279874776423
 20
3272.081469873795
 30
0.0
 40
10.0
  1
106
100
AcDbText
  0
TEXT
  5
2DD
330
17
100
AcDbEntity
  8
COTA
 62
240
370
25
100
AcDbText
 10
3784.779874776423
 20
3243.550269126582
 30
0.0
 40
10.0
  1
415
100
AcDbText
  0
TEXT
  5
2DE
330
17
100
AcDbEntity
  8
COTA
 62
240
370
25
100
AcDbText
 10
4027.547657816401
 20
3360.204729185272
 30
0.0
 40
10.0
  1
15
 50
90.0
100
AcDbText
  0
TEXT
  5
2DF
330
17
100
AcDbEntity
  8
COTA
 62
240
370
25
100
AcDbText
 10
4027.584207523996
 20
3312.519056670652
 30
0.0
 40
10.0
  1
44
 50
90.0
100
AcDbText
  0
TEXT
  5
2E0
330
17
100
AcDbEntity
  8
COTA
 62
240
370
25
100
AcDbText
 10
4050.649892867542
 20
3320.019056670652
 30
0.0
 40
10.0
  1
59
 50
90.0
100
AcDbText
  0
TEXT
  5
2E1
330
17
100
AcDbEntity
  8
COTA
 62
240
370
25
100
AcDbText
 10
3677.279874776416
 20
3364.274367736353
 30
0.0
 40
10.0
  1
200
100
AcDbText
  0
TEXT
  5
2E2
330
17
100
AcDbEntity
  8
COTA
 62
240
370
25
100
AcDbText
 10
3579.259044590325
 20
3361.684261349015
 30
0.0
 40
10.0
  1
3
 50
90.0
100
AcDbText
  0
TEXT
  5
2E3
330
17
100
AcDbEntity
  8
COTA
 62
240
370
25
100
AcDbText
 10
3853.779874776423
 20
3272.088779815316
 30
0.0
 40
10.0
  1
65
100
AcDbText
  0
TEXT
  5
2E4
330
17
100
AcDbEntity
  8
COTA
 62
240
370
25
100
AcDbText
 10
3618.279874776419
 20
3319.93896584984
 30
0.0
 40
10.0
  1
82
100
AcDbText
  0
TEXT
  5
2E5
330
17
100
AcDbEntity
  8
COTA
 62
240
370
25
100
AcDbText
 10
3938.279874776423
 20
3059.189511182957
 30
0.0
 40
10.0
  1
108
100
AcDbText
  0
TEXT
  5
2E6
330
17
100
AcDbEntity
  8
COTA
 62
240
370
25
100
AcDbText
 10
3699.279874776421
 20
3059.138341592325
 30
0.0
 40
10.0
  1
244
100
AcDbText
  0
TEXT
  5
2E7
330
17
100
AcDbEntity
  8
COTA
 62
240
370
25
100
AcDbText
 10
3784.779874776423
 20
3030.636380611194
 30
0.0
 40
10.0
  1
415
100
AcDbText
  0
TEXT
  5
2E8
330
17
100
AcDbEntity
  8
COTA
 62
240
370
25
100
AcDbText
 10
3892.279874776426
 20
3151.360479220965
 30
0.0
 40
10.0
  1
200
100
AcDbText
  0
TEXT
  5
2E9
330
17
100
AcDbEntity
  8
COTA
 62
240
370
25
100
AcDbText
 10
4027.43800869361
 20
3148.770372833626
 30
0.0
 40
10.0
  1
3
 50
90.0
100
AcDbText
  0
TEXT
  5
2EA
330
17
100
AcDbEntity
  8
COTA
 62
240
370
25
100
AcDbText
 10
3852.779874776423
 20
3059.284540422734
 30
0.0
 40
10.0
  1
63
100
AcDbText
  0
TEXT
  5
2EB
330
17
100
AcDbEntity
  8
COTA
 62
240
370
25
100
AcDbText
 10
3951.279874776423
 20
3107.025077334452
 30
0.0
 40
10.0
  1
82
100
AcDbText
  0
TEXT
  5
2EC
330
17
100
AcDbEntity
  8
COTA
 62
240
370
25
100
AcDbText
 10
4027.598827407056
 20
3127.605168155264
 30
0.0
 40
10.0
  1
12
 50
90.0
100
AcDbText
  0
TEXT
  5
2ED
330
17
100
AcDbEntity
  8
COTA
 62
240
370
25
100
AcDbText
 10
4027.58420752401
 20
3099.605168155264
 30
0.0
 40
10.0
  1
44
 50
90.0
100
AcDbText
  0
TEXT
  5
2EE
330
17
100
AcDbEntity
  8
COTA
 62
240
370
25
100
AcDbText
 10
4050.649892867557
 20
3107.105168155264
 30
0.0
 40
10.0
  1
59
 50
90.0
100
AcDbText
  0
TEXT
  5
2EF
330
17
100
AcDbEntity
  8
COTA
 62
1
370
25
100
AcDbText
 10
4271.832082924784
 20
3590.520692852846
 30
0.0
 40
7.0
  1
13
 50
90.0
100
AcDbText
  0
TEXT
  5
2F0
330
17
100
AcDbEntity
  8
COTA
 62
1
370
25
100
AcDbText
 10
4082.003475166739
 20
3479.520692852857
 30
0.0
 40
7.0
  1
124
 50
90.0
100
AcDbText
  0
TEXT
  5
2F1
330
17
100
AcDbEntity
  8
COTA
 62
1
370
25
100
AcDbText
 10
4271.832082925207
 20
3464.52069285285
 30
0.0
 40
7.0
  1
109
 50
90.0
100
AcDbText
  0
TEXT
  5
2F2
330
17
100
AcDbEntity
  8
Cota Seção (2x)
 62
1
370
25
100
AcDbText
 10
4205.016835442144
 20
3470.520692852853
 30
0.0
 40
7.0
  1
120
 50
90.0
100
AcDbText
  0
TEXT
  5
2F3
330
17
100
AcDbEntity
  8
COTA
 62
1
370
25
100
AcDbText
 10
4101.3229036522025
 20
3590.520692852842
 30
0.0
 40
7.0
  1
13
 50
90.0
100
AcDbText
  0
TEXT
  5
2F4
330
17
100
AcDbEntity
  8
COTA
 62
1
370
25
100
AcDbText
 10
4101.322903652537
 20
3464.520692852846
 30
0.0
 40
7.0
  1
109
 50
90.0
100
AcDbText
  0
TEXT
  5
2F5
330
17
100
AcDbEntity
  8
COTA
 62
1
370
25
100
AcDbText
 10
4183.516835442173
 20
3316.293879050671
 30
0.0
 40
7.0
  1
19
100
AcDbText
  0
TEXT
  5
2F6
330
17
100
AcDbEntity
  8
Cota Seção (2x)
 62
1
370
25
100
AcDbText
 10
4183.516835442143
 20
3383.02069285286
 30
0.0
 40
7.0
  1
19
100
AcDbText
  0
TEXT
  5
2F7
330
17
100
AcDbEntity
  8
COTA
 62
240
370
25
100
AcDbText
 10
4576.703718568622
 20
3406.980737611299
 30
0.0
 40
10.0
  1
120
100
AcDbText
  0
TEXT
  5
2F8
330
17
100
AcDbEntity
  8
COTA
 62
240
370
25
100
AcDbText
 10
4758.703718568622
 20
3406.951497845228
 30
0.0
 40
10.0
  1
244
100
AcDbText
  0
TEXT
  5
2F9
330
17
100
AcDbEntity
  8
COTA
 62
240
370
25
100
AcDbText
 10
4916.744230203657
 20
3553.255638643103
 30
0.0
 40
10.0
  1
12
 50
90.0
100
AcDbText
  0
TEXT
  5
2FA
330
17
100
AcDbEntity
  8
COTA
 62
240
370
25
100
AcDbText
 10
4916.671130788455
 20
3492.755638643103
 30
0.0
 40
10.0
  1
109
 50
90.0
100
AcDbText
  0
TEXT
  5
2FB
330
17
100
AcDbEntity
  8
COTA
 62
240
370
25
100
AcDbText
 10
4315.888872607575
 20
3489.755638643106
 30
0.0
 40
10.0
  1
103
 50
90.0
100
AcDbText
  0
TEXT
  5
2FC
330
17
100
AcDbEntity
  8
COTA
 62
240
370
25
100
AcDbText
 10
4316.035071437915
 20
3548.255638643094
 30
0.0
 40
10.0
  1
14
 50
90.0
100
AcDbText
  0
TEXT
  5
2FD
330
17
100
AcDbEntity
  8
COTA
 62
240
370
25
100
AcDbText
 10
4316.035071437986
 20
3571.121135719105
 30
0.0
 40
10.0
  1
7
 50
90.0
100
AcDbText
  0
TEXT
  5
2FE
330
17
100
AcDbEntity
  8
Painéis
 62
240
370
25
100
AcDbText
 10
4460.554518973601
 20
3491.645571803126
 30
0.0
 40
10.0
  1
112
100
AcDbText
  0
TEXT
  5
2FF
330
17
100
AcDbEntity
  8
Painéis
 62
240
370
25
100
AcDbText
 10
4294.688708501685
 20
3500.255638643094
 30
0.0
 40
10.0
  1
124
 50
90.0
100
AcDbText
  0
TEXT
  5
300
330
17
100
AcDbEntity
  8
COTA
 62
240
370
25
100
AcDbText
 10
4333.491667116065
 20
3423.149113304947
 30
0.0
 40
10.0
  1
7
100
AcDbText
  0
TEXT
  5
301
330
17
100
AcDbEntity
  8
Painéis
 62
240
370
25
100
AcDbText
 10
4382.313788728469
 20
3522.255638643097
 30
0.0
 40
10.0
  1
38
 50
90.0
100
AcDbText
  0
TEXT
  5
302
330
17
100
AcDbEntity
  8
Painéis
 62
240
370
25
100
AcDbText
 10
4327.248859327801
 20
3482.536648382794
 30
0.0
 40
10.0
  1
29
100
AcDbText
  0
TEXT
  5
303
330
17
100
AcDbEntity
  8
Painéis
 62
240
370
25
100
AcDbText
 10
4414.726288948203
 20
3406.980737611319
 30
0.0
 40
10.0
  1
204
100
AcDbText
  0
TEXT
  5
304
330
17
100
AcDbEntity
  8
Painéis
 62
240
370
25
100
AcDbText
 10
4834.824461682658
 20
3525.255638643117
 30
0.0
 40
10.0
  1
44
 50
90.0
100
AcDbText
  0
TEXT
  5
305
330
17
100
AcDbEntity
  8
Painéis
 62
240
370
25
100
AcDbText
 10
4863.703718568615
 20
3487.618062056347
 30
0.0
 40
10.0
  1
34
100
AcDbText
  0
TEXT
  5
306
330
17
100
AcDbEntity
  8
Painéis
 62
240
370
25
100
AcDbText
 10
4818.70371856862
 20
3467.590374633398
 30
0.0
 40
10.0
  1
124
100
AcDbText
  0
TEXT
  5
307
330
17
100
AcDbEntity
  8
COTA
 62
240
370
25
100
AcDbText
 10
4859.960910780355
 20
3423.149113304969
 30
0.0
 40
10.0
  1
7
100
AcDbText
  0
TEXT
  5
308
330
17
100
AcDbEntity
  8
Painéis
 62
240
370
25
100
AcDbText
 10
4504.656333027696
 20
3522.238445723566
 30
0.0
 40
10.0
  1
38
 50
90.0
100
AcDbText
  0
TEXT
  5
309
330
17
100
AcDbEntity
  8
Painéis
 62
240
370
25
100
AcDbText
 10
4530.203718568611
 20
3519.2002538465
 30
0.0
 40
10.0
  1
27
100
AcDbText
  0
TEXT
  5
30A
330
17
100
AcDbEntity
  8
Painéis
 62
240
370
25
100
AcDbText
 10
4596.72628894821
 20
3379.577372865106
 30
0.0
 40
10.0
  1
568
100
AcDbText
  0
TEXT
  5
30B
330
17
100
AcDbEntity
  8
COTA
 62
240
370
25
100
AcDbText
 10
4616.748859327802
 20
3097.515690885547
 30
0.0
 40
10.0
  1
120
100
AcDbText
  0
TEXT
  5
30C
330
17
100
AcDbEntity
  8
COTA
 62
240
370
25
100
AcDbText
 10
4434.748859327798
 20
3097.486451119477
 30
0.0
 40
10.0
  1
244
100
AcDbText
  0
TEXT
  5
30D
330
17
100
AcDbEntity
  8
COTA
 62
240
370
25
100
AcDbText
 10
4308.914609691925
 20
3263.476264431972
 30
0.0
 40
10.0
  1
15
 50
90.0
100
AcDbText
  0
TEXT
  5
30E
330
17
100
AcDbEntity
  8
COTA
 62
240
370
25
100
AcDbText
 10
4308.892679867369
 20
3183.290591917351
 30
0.0
 40
10.0
  1
109
 50
90.0
100
AcDbText
  0
TEXT
  5
30F
330
17
100
AcDbEntity
  8
COTA
 62
240
370
25
100
AcDbText
 10
4912.538855915967
 20
3180.290591917354
 30
0.0
 40
10.0
  1
103
 50
90.0
100
AcDbText
  0
TEXT
  5
310
330
17
100
AcDbEntity
  8
COTA
 62
240
370
25
100
AcDbText
 10
4912.685054746436
 20
3238.790591917342
 30
0.0
 40
10.0
  1
14
 50
90.0
100
AcDbText
  0
TEXT
  5
311
330
17
100
AcDbEntity
  8
COTA
 62
240
370
25
100
AcDbText
 10
4912.685054746383
 20
3261.656088993354
 30
0.0
 40
10.0
  1
7
 50
90.0
100
AcDbText
  0
TEXT
  5
312
330
17
100
AcDbEntity
  8
Painéis
 62
240
370
25
100
AcDbText
 10
4733.192310308949
 20
3180.928564494994
 30
0.0
 40
10.0
  1
112
100
AcDbText
  0
TEXT
  5
313
330
17
100
AcDbEntity
  8
COTA
 62
240
370
25
100
AcDbText
 10
4859.960910780355
 20
3113.684066579195
 30
0.0
 40
10.0
  1
7
100
AcDbText
  0
TEXT
  5
314
330
17
100
AcDbEntity
  8
Painéis
 62
240
370
25
100
AcDbText
 10
4834.656333027613
 20
3212.790591917345
 30
0.0
 40
10.0
  1
38
 50
90.0
100
AcDbText
  0
TEXT
  5
315
330
17
100
AcDbEntity
  8
Painéis
 62
240
370
25
100
AcDbText
 10
4866.203718568619
 20
3173.071601657043
 30
0.0
 40
10.0
  1
29
100
AcDbText
  0
TEXT
  5
316
330
17
100
AcDbEntity
  8
Painéis
 62
240
370
25
100
AcDbText
 10
4778.726288948219
 20
3097.515690885567
 30
0.0
 40
10.0
  1
204
100
AcDbText
  0
TEXT
  5
317
330
17
100
AcDbEntity
  8
Painéis
 62
240
370
25
100
AcDbText
 10
4382.481917383369
 20
3215.790591917366
 30
0.0
 40
10.0
  1
44
 50
90.0
100
AcDbText
  0
TEXT
  5
318
330
17
100
AcDbEntity
  8
Painéis
 62
240
370
25
100
AcDbText
 10
4329.748859327804
 20
3178.153015330596
 30
0.0
 40
10.0
  1
34
100
AcDbText
  0
TEXT
  5
319
330
17
100
AcDbEntity
  8
Painéis
 62
240
370
25
100
AcDbText
 10
4374.748859327799
 20
3158.125327907646
 30
0.0
 40
10.0
  1
124
100
AcDbText
  0
TEXT
  5
31A
330
17
100
AcDbEntity
  8
COTA
 62
240
370
25
100
AcDbText
 10
4333.491667116065
 20
3113.684066579218
 30
0.0
 40
10.0
  1
7
100
AcDbText
  0
TEXT
  5
31B
330
17
100
AcDbEntity
  8
Painéis
 62
240
370
25
100
AcDbText
 10
4712.313788728393
 20
3212.773398997815
 30
0.0
 40
10.0
  1
38
 50
90.0
100
AcDbText
  0
TEXT
  5
31C
330
17
100
AcDbEntity
  8
Painéis
 62
240
370
25
100
AcDbText
 10
4663.248859327808
 20
3213.637311301611
 30
0.0
 40
10.0
  1
27
100
AcDbText
  0
TEXT
  5
31D
330
17
100
AcDbEntity
  8
Painéis
 62
240
370
25
100
AcDbText
 10
4596.72628894821
 20
3070.112326139354
 30
0.0
 40
10.0
  1
568
100
AcDbText
  0
TEXT
  5
31E
330
17
100
AcDbEntity
  8
COTA
 62
240
370
25
100
AcDbText
 10
4786.203718568626
 20
3576.967090059682
 30
0.0
 40
10.0
  1
121
100
AcDbText
  0
TEXT
  5
31F
330
17
100
AcDbEntity
  8
COTA
 62
240
370
25
100
AcDbText
 10
4916.583411490212
 20
3574.420843321465
 30
0.0
 40
10.0
  1
3
 50
90.0
100
AcDbText
  0
TEXT
  5
320
330
17
100
AcDbEntity
  8
COTA
 62
240
370
25
100
AcDbText
 10
4407.248859327793
 20
3267.50204333393
 30
0.0
 40
10.0
  1
121
100
AcDbText
  0
TEXT
  5
321
330
17
100
AcDbEntity
  8
COTA
 62
240
370
25
100
AcDbText
 10
4163.571115313103
 20
3033.499836749544
 30
0.0
 40
9.0
  1
19
100
AcDbText
  0
TEXT
  5
322
330
17
100
AcDbEntity
  8
COTA
 62
240
370
25
100
AcDbText
 10
4211.038618717793
 20
3126.196170128372
 30
0.0
 40
9.0
  1
65
 50
90.0
100
AcDbText
  0
TEXT
  5
323
330
17
100
AcDbEntity
  8
Texto Seção
 62
3
370
15
100
AcDbText
 10
3734.003861368196
 20
3674.9694572258354
 30
0.0
 40
17.0
  1

100
AcDbText
  0
TEXT
  5
324
330
17
100
AcDbEntity
  8
Texto Seção
 62
3
370
15
100
AcDbText
 10
3734.003861368196
 20
3645.068872581514
 30
0.0
 40
12.0
  1

100
AcDbText
  0
TEXT
  5
325
330
17
100
AcDbEntity
  8
Texto Seção
 62
7
370
15
100
AcDbText
 10
3734.003861368196
 20
3619.097443693028
 30
0.0
 40
10.0
  1

100
AcDbText
  0
TEXT
  5
326
330
17
100
AcDbEntity
  8
Texto Seção
 62
3
370
15
100
AcDbText
 10
4185.71683544217
 20
3674.9694572258345
 30
0.0
 40
17.0
  1

100
AcDbText
  0
TEXT
  5
327
330
17
100
AcDbEntity
  8
Texto Seção
 62
3
370
15
100
AcDbText
 10
4185.71683544217
 20
3645.068872581513
 30
0.0
 40
12.0
  1

100
AcDbText
  0
TEXT
  5
328
330
17
100
AcDbEntity
  8
Texto Seção
 62
7
370
15
100
AcDbText
 10
4185.71683544217
 20
3619.097443693027
 30
0.0
 40
10.0
  1

100
AcDbText
  0
HATCH
  5
329
330
17
100
AcDbEntity
  8
Hachura
 62
7
100
AcDbHatch
 10
0.0
 20
0.0
 30
0.0
210
0.0
220
0.0
230
1.0
  2
SOLID
 70
1
 71
0
 91
1
 92
3
 72
0
 73
1
 93
5
 10
3708.803861368198
 20
3573.52069285284
 10
3712.803861368199
 20
3573.52069285284
 10
3712.803861368199
 20
3485.520692852862
 10
3708.803861368198
 20
3485.520692852862
 10
3708.803861368198
 20
3573.52069285284
 97
0
 75
1
 76
1
 98
0
  0
HATCH
  5
32A
330
17
100
AcDbEntity
  8
Hachura
 62
7
100
AcDbHatch
 10
0.0
 20
0.0
 30
0.0
210
0.0
220
0.0
230
1.0
  2
ANSI31
 70
0
 71
0
 91
1
 92
3
 72
0
 73
1
 93
5
 10
3750.803861368198
 20
3485.520692852862
 10
3750.803861368198
 20
3489.920692852856
 10
3736.803861368198
 20
3489.920692852856
 10
3736.803861368198
 20
3485.520692852862
 10
3750.803861368198
 20
3485.520692852862
 97
0
 75
1
 76
1
 52
0.0
 41
1.0
 77
0
 78
1
 53
45.0
 43
0.0
 44
0.0
 45
-2.2450640303
 46
2.2450640303
 79
0
 98
0
  0
HATCH
  5
32B
330
17
100
AcDbEntity
  8
Hachura
 62
7
100
AcDbHatch
 10
0.0
 20
0.0
 30
0.0
210
0.0
220
0.0
230
1.0
  2
SOLID
 70
1
 71
0
 91
1
 92
3
 72
0
 73
1
 93
5
 10
3750.803861368198
 20
3489.920692852856
 10
3750.803861368198
 20
3493.520692852861
 10
3712.803861368199
 20
3493.520692852861
 10
3712.803861368199
 20
3489.920692852856
 10
3750.803861368198
 20
3489.920692852856
 97
0
 75
1
 76
1
 98
0
  0
HATCH
  5
32C
330
17
100
AcDbEntity
  8
Hachura
 62
7
100
AcDbHatch
 10
0.0
 20
0.0
 30
0.0
210
0.0
220
0.0
230
1.0
  2
ANSI31
 70
0
 71
0
 91
1
 92
3
 72
0
 73
1
 93
5
 10
3712.803861368199
 20
3485.520692852862
 10
3712.803861368199
 20
3489.920692852856
 10
3726.803861368199
 20
3489.920692852856
 10
3726.803861368199
 20
3485.520692852862
 10
3712.803861368199
 20
3485.520692852862
 97
0
 75
1
 76
1
 52
0.0
 41
1.0
 77
0
 78
1
 53
45.0
 43
0.0
 44
0.0
 45
-2.2450640303
 46
2.2450640303
 79
0
 98
0
  0
HATCH
  5
32D
330
17
100
AcDbEntity
  8
Hachura
 62
7
100
AcDbHatch
 10
0.0
 20
0.0
 30
0.0
210
0.0
220
0.0
230
1.0
  2
SOLID
 70
1
 71
0
 91
1
 92
3
 72
0
 73
1
 93
5
 10
3754.803861368198
 20
3575.52069285284
 10
3750.803861368198
 20
3575.52069285284
 10
3750.803861368198
 20
3485.520692852862
 10
3754.803861368198
 20
3485.520692852862
 10
3754.803861368198
 20
3575.52069285284
 97
0
 75
1
 76
1
 98
0
  0
HATCH
  5
32E
330
17
100
AcDbEntity
  8
Hachura
 62
7
100
AcDbHatch
 10
0.0
 20
0.0
 30
0.0
210
0.0
220
0.0
230
1.0
  2
SOLID
 70
1
 71
0
 91
1
 92
3
 72
0
 73
1
 93
5
 10
3810.803861368169
 20
3573.52069285284
 10
3810.803861368169
 20
3577.52069285284
 10
3750.803861368198
 20
3577.52069285284
 10
3750.803861368198
 20
3573.52069285284
 10
3810.803861368169
 20
3573.52069285284
 97
0
 75
1
 76
1
 98
0
  0
HATCH
  5
32F
330
17
100
AcDbEntity
  8
Hachura
 62
7
100
AcDbHatch
 10
0.0
 20
0.0
 30
0.0
210
0.0
220
0.0
230
1.0
  2
SOLID
 70
1
 71
0
 91
1
 92
3
 72
0
 73
1
 93
5
 10
3712.803861368199
 20
3573.52069285284
 10
3712.803861368199
 20
3577.52069285284
 10
3657.203861368222
 20
3577.520692852833
 10
3657.203861368222
 20
3573.520692852832
 10
3712.803861368199
 20
3573.52069285284
 97
0
 75
1
 76
1
 98
0
  0
HATCH
  5
330
330
17
100
AcDbEntity
  8
Hachura
 62
7
100
AcDbHatch
 10
0.0
 20
0.0
 30
0.0
210
0.0
220
0.0
230
1.0
  2
ANSI31
 70
0
 71
0
 91
1
 92
3
 72
0
 73
1
 93
5
 10
3704.403861368204
 20
3559.52069285284
 10
3708.803861368198
 20
3559.52069285284
 10
3708.803861368198
 20
3573.52069285284
 10
3704.403861368204
 20
3573.52069285284
 10
3704.403861368204
 20
3559.52069285284
 97
0
 75
1
 76
1
 52
0.0
 41
1.0
 77
0
 78
1
 53
45.0
 43
0.0
 44
0.0
 45
-2.2450640303
 46
2.2450640303
 79
0
 98
0
  0
HATCH
  5
331
330
17
100
AcDbEntity
  8
Hachura
 62
7
100
AcDbHatch
 10
0.0
 20
0.0
 30
0.0
210
0.0
220
0.0
230
1.0
  2
ANSI31
 70
0
 71
0
 91
1
 92
3
 72
0
 73
1
 93
5
 10
3704.403861368204
 20
3485.520692852862
 10
3708.803861368198
 20
3485.520692852862
 10
3708.803861368198
 20
3499.520692852862
 10
3704.403861368204
 20
3499.520692852862
 10
3704.403861368204
 20
3485.520692852862
 97
0
 75
1
 76
1
 52
0.0
 41
1.0
 77
0
 78
1
 53
45.0
 43
0.0
 44
0.0
 45
-2.2450640303
 46
2.2450640303
 79
0
 98
0
  0
HATCH
  5
332
330
17
100
AcDbEntity
  8
Hachura
 62
7
100
AcDbHatch
 10
0.0
 20
0.0
 30
0.0
210
0.0
220
0.0
230
1.0
  2
ANSI31
 70
0
 71
0
 91
1
 92
3
 72
0
 73
1
 93
5
 10
3759.203861368193
 20
3559.52069285284
 10
3754.803861368198
 20
3559.52069285284
 10
3754.803861368198
 20
3573.52069285284
 10
3759.203861368193
 20
3573.52069285284
 10
3759.203861368193
 20
3559.52069285284
 97
0
 75
1
 76
1
 52
0.0
 41
1.0
 77
0
 78
1
 53
45.0
 43
0.0
 44
0.0
 45
-2.2450640303
 46
2.2450640303
 79
0
 98
0
  0
HATCH
  5
333
330
17
100
AcDbEntity
  8
Hachura
 62
7
100
AcDbHatch
 10
0.0
 20
0.0
 30
0.0
210
0.0
220
0.0
230
1.0
  2
ANSI31
 70
0
 71
0
 91
1
 92
3
 72
0
 73
1
 93
5
 10
3759.203861368193
 20
3485.520692852862
 10
3754.803861368198
 20
3485.520692852862
 10
3754.803861368198
 20
3499.520692852862
 10
3759.203861368193
 20
3499.520692852862
 10
3759.203861368193
 20
3485.520692852862
 97
0
 75
1
 76
1
 52
0.0
 41
1.0
 77
0
 78
1
 53
45.0
 43
0.0
 44
0.0
 45
-2.2450640303
 46
2.2450640303
 79
0
 98
0
  0
HATCH
  5
334
330
17
100
AcDbEntity
  8
Hachura
 62
7
100
AcDbHatch
 10
0.0
 20
0.0
 30
0.0
210
0.0
220
0.0
230
1.0
  2
ANSI31
 70
0
 71
0
 91
1
 92
3
 72
0
 73
1
 93
5
 10
3704.403861368204
 20
3522.520692852851
 10
3708.803861368198
 20
3522.520692852851
 10
3708.803861368198
 20
3536.520692852851
 10
3704.403861368204
 20
3536.520692852851
 10
3704.403861368204
 20
3522.520692852851
 97
0
 75
1
 76
1
 52
0.0
 41
1.0
 77
0
 78
1
 53
45.0
 43
0.0
 44
0.0
 45
-2.2450640303
 46
2.2450640303
 79
0
 98
0
  0
HATCH
  5
335
330
17
100
AcDbEntity
  8
Hachura
 62
7
100
AcDbHatch
 10
0.0
 20
0.0
 30
0.0
210
0.0
220
0.0
230
1.0
  2
ANSI31
 70
0
 71
0
 91
1
 92
3
 72
0
 73
1
 93
5
 10
3759.203861368193
 20
3522.520692852851
 10
3754.803861368198
 20
3522.520692852851
 10
3754.803861368198
 20
3536.520692852851
 10
3759.203861368193
 20
3536.520692852851
 10
3759.203861368193
 20
3522.520692852851
 97
0
 75
1
 76
1
 52
0.0
 41
1.0
 77
0
 78
1
 53
45.0
 43
0.0
 44
0.0
 45
-2.2450640303
 46
2.2450640303
 79
0
 98
0
  0
HATCH
  5
336
330
17
100
AcDbEntity
  8
COTA
 62
7
100
AcDbHatch
 10
0.0
 20
0.0
 30
0.0
210
0.0
220
0.0
230
1.0
  2
AR-CONC
 70
0
 71
0
 91
1
 92
3
 72
0
 73
1
 93
7
 10
3777.279874776416
 20
3346.519056670653
 10
3577.279874776416
 20
3346.519056670653
 10
3577.279874776416
 20
3334.519056670654
 10
3992.279874776416
 20
3334.519056670677
 10
3992.279874776416
 20
3349.519056670653
 10
3777.279874776416
 20
3349.519056670653
 10
3777.279874776416
 20
3346.519056670653
 97
0
 75
1
 76
1
 52
0.0
 41
1.0
 77
0
 78
13
 53
50.0
 43
0.0
 44
0.0
 45
182.184668996
 46
-15.9390855389
 79
2
 49
19.05
 49
-209.55
 53
355.0
 43
0.0
 44
0.0
 45
-35.243421425
 46
191.056845239
 79
2
 49
15.24
 49
-167.64058417
 53
100.4514447
 43
15.182007
 44
-1.3282535
 45
146.9412470904
 46
175.1177519122
 79
2
 49
16.1900088
 49
-178.0902446
 53
46.1842
 43
0.0
 44
50.8
 45
271.0790408921
 46
-42.0423279327
 79
2
 49
28.575
 49
-314.325
 53
96.63555761
 43
22.5899
 44
47.2965
 45
237.4041340515
 46
247.4261245977
 79
2
 49
24.28502314
 49
-267.13560816
 53
351.18415117
 43
0.0
 44
50.8
 45
237.404134065
 46
247.4261245855
 79
2
 49
22.85996707
 49
-251.45973192
 53
21.0
 43
25.4
 44
38.1
 45
151.6143912691
 46
-102.2651981871
 79
2
 49
19.05
 49
-209.55
 53
326.0
 43
25.4
 44
38.1
 45
61.8020283476
 46
184.1879661223
 79
2
 49
15.24
 49
-167.64
 53
71.451445
 43
38.0345326
 44
29.5779001
 45
213.4164192787
 46
81.9227688859
 79
2
 49
16.1900088
 49
-178.0899376
 53
37.5
 43
0.0
 44
0.0
 45
3.0886032506
 46
84.5550388732
 79
6
 49
0.0
 49
-165.608
 49
0.0
 49
-170.18
 49
0.0
 49
-168.275
 53
7.5
 43
0.0
 44
0.0
 45
66.8196625103
 46
100.1805748181
 79
6
 49
0.0
 49
-97.028
 49
0.0
 49
-161.798
 49
0.0
 49
-64.135
 53
-32.5
 43
-56.642
 44
0.0
 45
135.5905951669
 46
-5.7287439927
 79
6
 49
0.0
 49
-63.5
 49
0.0
 49
-198.12
 49
0.0
 49
-262.89
 53
-42.5
 43
-82.042
 44
0.0
 45
148.129181386
 46
25.4264910333
 79
6
 49
0.0
 49
-82.55
 49
0.0
 49
-131.572
 49
0.0
 49
-186.69
 98
0
  0
HATCH
  5
337
330
17
100
AcDbEntity
  8
REAPROVEITAMENTO
 62
7
100
AcDbHatch
 10
0.0
 20
0.0
 30
0.0
210
0.0
220
0.0
230
1.0
  2
ANSI31
 70
0
 71
0
 91
1
 92
3
 72
0
 73
1
 93
5
 10
3992.279874776416
 20
3290.769056670676
 10
3992.279874776423
 20
3334.769056670677
 10
3577.279874776419
 20
3334.269056670629
 10
3577.279874776419
 20
3290.26905667063
 10
3992.279874776416
 20
3290.769056670676
 97
0
 75
1
 76
1
 52
0.0
 41
1.0
 77
0
 78
1
 53
45.0
 43
0.0
 44
0.0
 45
-2.2450640303
 46
2.2450640303
 79
0
 98
0
  0
HATCH
  5
338
330
17
100
AcDbEntity
  8
COTA
 62
7
100
AcDbHatch
 10
0.0
 20
0.0
 30
0.0
210
0.0
220
0.0
230
1.0
  2
AR-CONC
 70
0
 71
0
 91
1
 92
3
 72
0
 73
1
 93
7
 10
3792.279874776426
 20
3133.605168155265
 10
3992.279874776426
 20
3133.605168155265
 10
3992.279874776426
 20
3121.605168155265
 10
3577.279874776426
 20
3121.605168155289
 10
3577.279874776426
 20
3136.605168155266
 10
3792.279874776426
 20
3136.605168155265
 10
3792.279874776426
 20
3133.605168155265
 97
0
 75
1
 76
1
 52
0.0
 41
1.0
 77
0
 78
13
 53
50.0
 43
0.0
 44
0.0
 45
182.184668996
 46
-15.9390855389
 79
2
 49
19.05
 49
-209.55
 53
355.0
 43
0.0
 44
0.0
 45
-35.243421425
 46
191.056845239
 79
2
 49
15.24
 49
-167.64058417
 53
100.4514447
 43
15.182007
 44
-1.3282535
 45
146.9412470904
 46
175.1177519122
 79
2
 49
16.1900088
 49
-178.0902446
 53
46.1842
 43
0.0
 44
50.8
 45
271.0790408921
 46
-42.0423279327
 79
2
 49
28.575
 49
-314.325
 53
96.63555761
 43
22.5899
 44
47.2965
 45
237.4041340515
 46
247.4261245977
 79
2
 49
24.28502314
 49
-267.13560816
 53
351.18415117
 43
0.0
 44
50.8
 45
237.404134065
 46
247.4261245855
 79
2
 49
22.85996707
 49
-251.45973192
 53
21.0
 43
25.4
 44
38.1
 45
151.6143912691
 46
-102.2651981871
 79
2
 49
19.05
 49
-209.55
 53
326.0
 43
25.4
 44
38.1
 45
61.8020283476
 46
184.1879661223
 79
2
 49
15.24
 49
-167.64
 53
71.451445
 43
38.0345326
 44
29.5779001
 45
213.4164192787
 46
81.9227688859
 79
2
 49
16.1900088
 49
-178.0899376
 53
37.5
 43
0.0
 44
0.0
 45
3.0886032506
 46
84.5550388732
 79
6
 49
0.0
 49
-165.608
 49
0.0
 49
-170.18
 49
0.0
 49
-168.275
 53
7.5
 43
0.0
 44
0.0
 45
66.8196625103
 46
100.1805748181
 79
6
 49
0.0
 49
-97.028
 49
0.0
 49
-161.798
 49
0.0
 49
-64.135
 53
-32.5
 43
-56.642
 44
0.0
 45
135.5905951669
 46
-5.7287439927
 79
6
 49
0.0
 49
-63.5
 49
0.0
 49
-198.12
 49
0.0
 49
-262.89
 53
-42.5
 43
-82.042
 44
0.0
 45
148.129181386
 46
25.4264910333
 79
6
 49
0.0
 49
-82.55
 49
0.0
 49
-131.572
 49
0.0
 49
-186.69
 98
0
  0
HATCH
  5
339
330
17
100
AcDbEntity
  8
REAPROVEITAMENTO
 62
7
100
AcDbHatch
 10
0.0
 20
0.0
 30
0.0
210
0.0
220
0.0
230
1.0
  2
ANSI31
 70
0
 71
0
 91
1
 92
3
 72
0
 73
1
 93
5
 10
3577.279874776426
 20
3077.855168155288
 10
3577.279874776423
 20
3121.855168155289
 10
3992.279874776423
 20
3121.605168155265
 10
3992.279874776423
 20
3077.605168155265
 10
3577.279874776426
 20
3077.855168155288
 97
0
 75
1
 76
1
 52
0.0
 41
1.0
 77
0
 78
1
 53
45.0
 43
0.0
 44
0.0
 45
-2.2450640303
 46
2.2450640303
 79
0
 98
0
  0
HATCH
  5
33A
330
17
100
AcDbEntity
  8
Hachura
 62
7
100
AcDbHatch
 10
0.0
 20
0.0
 30
0.0
210
0.0
220
0.0
230
1.0
  2
SOLID
 70
1
 71
0
 91
1
 92
3
 72
0
 73
1
 93
5
 10
4160.516835442172
 20
3573.520692852838
 10
4164.516835442173
 20
3573.520692852838
 10
4164.516835442173
 20
3355.520692852861
 10
4160.516835442172
 20
3355.520692852861
 10
4160.516835442172
 20
3573.520692852838
 97
0
 75
1
 76
1
 98
0
  0
HATCH
  5
33B
330
17
100
AcDbEntity
  8
Hachura
 62
7
100
AcDbHatch
 10
0.0
 20
0.0
 30
0.0
210
0.0
220
0.0
230
1.0
  2
ANSI31
 70
0
 71
0
 91
1
 92
3
 72
0
 73
1
 93
5
 10
4202.516835442173
 20
3355.520692852861
 10
4202.516835442173
 20
3359.920692852855
 10
4188.516835442173
 20
3359.920692852855
 10
4188.516835442173
 20
3355.520692852861
 10
4202.516835442173
 20
3355.520692852861
 97
0
 75
1
 76
1
 52
0.0
 41
1.0
 77
0
 78
1
 53
45.0
 43
0.0
 44
0.0
 45
-2.2450640303
 46
2.2450640303
 79
0
 98
0
  0
HATCH
  5
33C
330
17
100
AcDbEntity
  8
Hachura
 62
7
100
AcDbHatch
 10
0.0
 20
0.0
 30
0.0
210
0.0
220
0.0
230
1.0
  2
SOLID
 70
1
 71
0
 91
1
 92
3
 72
0
 73
1
 93
5
 10
4202.516835442173
 20
3359.920692852855
 10
4202.516835442173
 20
3363.520692852861
 10
4164.516835442173
 20
3363.520692852861
 10
4164.516835442173
 20
3359.920692852855
 10
4202.516835442173
 20
3359.920692852855
 97
0
 75
1
 76
1
 98
0
  0
HATCH
  5
33D
330
17
100
AcDbEntity
  8
Hachura
 62
7
100
AcDbHatch
 10
0.0
 20
0.0
 30
0.0
210
0.0
220
0.0
230
1.0
  2
ANSI31
 70
0
 71
0
 91
1
 92
3
 72
0
 73
1
 93
5
 10
4164.516835442173
 20
3355.520692852861
 10
4164.516835442173
 20
3359.920692852855
 10
4178.516835442173
 20
3359.920692852855
 10
4178.516835442173
 20
3355.520692852861
 10
4164.516835442173
 20
3355.520692852861
 97
0
 75
1
 76
1
 52
0.0
 41
1.0
 77
0
 78
1
 53
45.0
 43
0.0
 44
0.0
 45
-2.2450640303
 46
2.2450640303
 79
0
 98
0
  0
HATCH
  5
33E
330
17
100
AcDbEntity
  8
Hachura
 62
7
100
AcDbHatch
 10
0.0
 20
0.0
 30
0.0
210
0.0
220
0.0
230
1.0
  2
SOLID
 70
1
 71
0
 91
1
 92
3
 72
0
 73
1
 93
5
 10
4206.516835442172
 20
3575.520692852839
 10
4202.516835442173
 20
3575.520692852839
 10
4202.516835442173
 20
3355.520692852861
 10
4206.516835442172
 20
3355.520692852861
 10
4206.516835442172
 20
3575.520692852839
 97
0
 75
1
 76
1
 98
0
  0
HATCH
  5
33F
330
17
100
AcDbEntity
  8
Hachura
 62
7
100
AcDbHatch
 10
0.0
 20
0.0
 30
0.0
210
0.0
220
0.0
230
1.0
  2
SOLID
 70
1
 71
0
 91
1
 92
3
 72
0
 73
1
 93
5
 10
4246.460350166755
 20
3573.520692852838
 10
4246.460350166755
 20
3577.520692852838
 10
4202.516835442173
 20
3577.520692852839
 10
4202.516835442173
 20
3573.520692852838
 10
4246.460350166755
 20
3573.520692852838
 97
0
 75
1
 76
1
 98
0
  0
HATCH
  5
340
330
17
100
AcDbEntity
  8
Hachura
 62
7
100
AcDbHatch
 10
0.0
 20
0.0
 30
0.0
210
0.0
220
0.0
230
1.0
  2
SOLID
 70
1
 71
0
 91
1
 92
3
 72
0
 73
1
 93
5
 10
4164.516835442173
 20
3573.520692852838
 10
4164.516835442173
 20
3577.520692852839
 10
4125.880198255847
 20
3577.520692852831
 10
4125.880198255847
 20
3573.520692852831
 10
4164.516835442173
 20
3573.520692852838
 97
0
 75
1
 76
1
 98
0
  0
HATCH
  5
341
330
17
100
AcDbEntity
  8
Hachura
 62
7
100
AcDbHatch
 10
0.0
 20
0.0
 30
0.0
210
0.0
220
0.0
230
1.0
  2
ANSI31
 70
0
 71
0
 91
1
 92
3
 72
0
 73
1
 93
5
 10
4156.116835442179
 20
3559.520692852839
 10
4160.516835442172
 20
3559.520692852839
 10
4160.516835442172
 20
3573.520692852838
 10
4156.116835442179
 20
3573.520692852838
 10
4156.116835442179
 20
3559.520692852839
 97
0
 75
1
 76
1
 52
0.0
 41
1.0
 77
0
 78
1
 53
45.0
 43
0.0
 44
0.0
 45
-2.2450640303
 46
2.2450640303
 79
0
 98
0
  0
HATCH
  5
342
330
17
100
AcDbEntity
  8
Hachura
 62
7
100
AcDbHatch
 10
0.0
 20
0.0
 30
0.0
210
0.0
220
0.0
230
1.0
  2
ANSI31
 70
0
 71
0
 91
1
 92
3
 72
0
 73
1
 93
5
 10
4156.116835442179
 20
3355.520692852861
 10
4160.516835442172
 20
3355.520692852861
 10
4160.516835442172
 20
3369.520692852861
 10
4156.116835442179
 20
3369.520692852861
 10
4156.116835442179
 20
3355.520692852861
 97
0
 75
1
 76
1
 52
0.0
 41
1.0
 77
0
 78
1
 53
45.0
 43
0.0
 44
0.0
 45
-2.2450640303
 46
2.2450640303
 79
0
 98
0
  0
HATCH
  5
343
330
17
100
AcDbEntity
  8
Hachura
 62
7
100
AcDbHatch
 10
0.0
 20
0.0
 30
0.0
210
0.0
220
0.0
230
1.0
  2
ANSI31
 70
0
 71
0
 91
1
 92
3
 72
0
 73
1
 93
5
 10
4210.916835442167
 20
3559.520692852839
 10
4206.516835442172
 20
3559.520692852839
 10
4206.516835442172
 20
3573.520692852838
 10
4210.916835442167
 20
3573.520692852838
 10
4210.916835442167
 20
3559.520692852839
 97
0
 75
1
 76
1
 52
0.0
 41
1.0
 77
0
 78
1
 53
45.0
 43
0.0
 44
0.0
 45
-2.2450640303
 46
2.2450640303
 79
0
 98
0
  0
HATCH
  5
344
330
17
100
AcDbEntity
  8
Hachura
 62
7
100
AcDbHatch
 10
0.0
 20
0.0
 30
0.0
210
0.0
220
0.0
230
1.0
  2
ANSI31
 70
0
 71
0
 91
1
 92
3
 72
0
 73
1
 93
5
 10
4210.916835442167
 20
3355.520692852861
 10
4206.516835442172
 20
3355.520692852861
 10
4206.516835442172
 20
3369.520692852861
 10
4210.916835442167
 20
3369.520692852861
 10
4210.916835442167
 20
3355.520692852861
 97
0
 75
1
 76
1
 52
0.0
 41
1.0
 77
0
 78
1
 53
45.0
 43
0.0
 44
0.0
 45
-2.2450640303
 46
2.2450640303
 79
0
 98
0
  0
HATCH
  5
345
330
17
100
AcDbEntity
  8
Hachura
 62
7
100
AcDbHatch
 10
0.0
 20
0.0
 30
0.0
210
0.0
220
0.0
230
1.0
  2
ANSI31
 70
0
 71
0
 91
1
 92
3
 72
0
 73
1
 93
5
 10
4156.116835442179
 20
3423.765023705055
 10
4160.516835442172
 20
3423.765023705055
 10
4160.516835442172
 20
3437.765023705054
 10
4156.116835442179
 20
3437.765023705054
 10
4156.116835442179
 20
3423.765023705055
 97
0
 75
1
 76
1
 52
0.0
 41
1.0
 77
0
 78
1
 53
45.0
 43
0.0
 44
0.0
 45
-2.2450640303
 46
2.2450640303
 79
0
 98
0
  0
HATCH
  5
346
330
17
100
AcDbEntity
  8
Hachura
 62
7
100
AcDbHatch
 10
0.0
 20
0.0
 30
0.0
210
0.0
220
0.0
230
1.0
  2
ANSI31
 70
0
 71
0
 91
1
 92
3
 72
0
 73
1
 93
5
 10
4210.916835442167
 20
3423.765023705055
 10
4206.516835442172
 20
3423.765023705055
 10
4206.516835442172
 20
3437.765023705054
 10
4210.916835442167
 20
3437.765023705054
 10
4210.916835442167
 20
3423.765023705055
 97
0
 75
1
 76
1
 52
0.0
 41
1.0
 77
0
 78
1
 53
45.0
 43
0.0
 44
0.0
 45
-2.2450640303
 46
2.2450640303
 79
0
 98
0
  0
HATCH
  5
347
330
17
100
AcDbEntity
  8
COTA
 62
7
100
AcDbHatch
 10
0.0
 20
0.0
 30
0.0
210
0.0
220
0.0
230
1.0
  2
AR-CONC
 70
0
 71
0
 91
1
 92
3
 72
0
 73
1
 93
11
 10
4725.703718568627
 20
3559.255638643104
 10
4725.703718568626
 20
3562.255638643104
 10
4543.703718568615
 20
3562.255638643104
 10
4543.703718568615
 20
3547.255638643107
 10
4846.703718568615
 20
3547.255638643122
 10
4846.703718568615
 20
3504.255638643105
 10
4880.703718568614
 20
3504.255638643105
 10
4880.578718568615
 20
3562.255638643104
 10
4846.703718568625
 20
3562.255638643104
 10
4846.703718568626
 20
3559.255638643103
 10
4725.703718568627
 20
3559.255638643104
 97
0
 75
1
 76
1
 52
0.0
 41
1.0
 77
0
 78
13
 53
50.0
 43
0.0
 44
0.0
 45
182.184668996
 46
-15.9390855389
 79
2
 49
19.05
 49
-209.55
 53
355.0
 43
0.0
 44
0.0
 45
-35.243421425
 46
191.056845239
 79
2
 49
15.24
 49
-167.64058417
 53
100.4514447
 43
15.182007
 44
-1.3282535
 45
146.9412470904
 46
175.1177519122
 79
2
 49
16.1900088
 49
-178.0902446
 53
46.1842
 43
0.0
 44
50.8
 45
271.0790408921
 46
-42.0423279327
 79
2
 49
28.575
 49
-314.325
 53
96.63555761
 43
22.5899
 44
47.2965
 45
237.4041340515
 46
247.4261245977
 79
2
 49
24.28502314
 49
-267.13560816
 53
351.18415117
 43
0.0
 44
50.8
 45
237.404134065
 46
247.4261245855
 79
2
 49
22.85996707
 49
-251.45973192
 53
21.0
 43
25.4
 44
38.1
 45
151.6143912691
 46
-102.2651981871
 79
2
 49
19.05
 49
-209.55
 53
326.0
 43
25.4
 44
38.1
 45
61.8020283476
 46
184.1879661223
 79
2
 49
15.24
 49
-167.64
 53
71.451445
 43
38.0345326
 44
29.5779001
 45
213.4164192787
 46
81.9227688859
 79
2
 49
16.1900088
 49
-178.0899376
 53
37.5
 43
0.0
 44
0.0
 45
3.0886032506
 46
84.5550388732
 79
6
 49
0.0
 49
-165.608
 49
0.0
 49
-170.18
 49
0.0
 49
-168.275
 53
7.5
 43
0.0
 44
0.0
 45
66.8196625103
 46
100.1805748181
 79
6
 49
0.0
 49
-97.028
 49
0.0
 49
-161.798
 49
0.0
 49
-64.135
 53
-32.5
 43
-56.642
 44
0.0
 45
135.5905951669
 46
-5.7287439927
 79
6
 49
0.0
 49
-63.5
 49
0.0
 49
-198.12
 49
0.0
 49
-262.89
 53
-42.5
 43
-82.042
 44
0.0
 45
148.129181386
 46
25.4264910333
 79
6
 49
0.0
 49
-82.55
 49
0.0
 49
-131.572
 49
0.0
 49
-186.69
 98
0
  0
HATCH
  5
348
330
17
100
AcDbEntity
  8
COTA
 62
7
100
AcDbHatch
 10
0.0
 20
0.0
 30
0.0
210
0.0
220
0.0
230
1.0
  2
AR-CONC
 70
0
 71
0
 91
1
 92
3
 72
0
 73
1
 93
13
 10
4341.748859327796
 20
3541.255638643106
 10
4516.703718568609
 20
3541.255638643104
 10
4516.703718568609
 20
3503.221252804026
 10
4543.703718568613
 20
3503.221252804026
 10
4543.703718568615
 20
3562.255638643104
 10
4516.703718568614
 20
3561.31978594458
 10
4516.703718568614
 20
3555.255638643104
 10
4341.748859327799
 20
3555.255638643081
 10
4341.748859327803
 20
3562.255638643081
 10
4312.748859327801
 20
3562.255638643082
 10
4312.748859327803
 20
3503.255638643083
 10
4341.748859327801
 20
3503.255638643086
 10
4341.748859327796
 20
3541.255638643106
 97
0
 75
1
 76
1
 52
0.0
 41
1.0
 77
0
 78
13
 53
50.0
 43
0.0
 44
0.0
 45
182.184668996
 46
-15.9390855389
 79
2
 49
19.05
 49
-209.55
 53
355.0
 43
0.0
 44
0.0
 45
-35.243421425
 46
191.056845239
 79
2
 49
15.24
 49
-167.64058417
 53
100.4514447
 43
15.182007
 44
-1.3282535
 45
146.9412470904
 46
175.1177519122
 79
2
 49
16.1900088
 49
-178.0902446
 53
46.1842
 43
0.0
 44
50.8
 45
271.0790408921
 46
-42.0423279327
 79
2
 49
28.575
 49
-314.325
 53
96.63555761
 43
22.5899
 44
47.2965
 45
237.4041340515
 46
247.4261245977
 79
2
 49
24.28502314
 49
-267.13560816
 53
351.18415117
 43
0.0
 44
50.8
 45
237.404134065
 46
247.4261245855
 79
2
 49
22.85996707
 49
-251.45973192
 53
21.0
 43
25.4
 44
38.1
 45
151.6143912691
 46
-102.2651981871
 79
2
 49
19.05
 49
-209.55
 53
326.0
 43
25.4
 44
38.1
 45
61.8020283476
 46
184.1879661223
 79
2
 49
15.24
 49
-167.64
 53
71.451445
 43
38.0345326
 44
29.5779001
 45
213.4164192787
 46
81.9227688859
 79
2
 49
16.1900088
 49
-178.0899376
 53
37.5
 43
0.0
 44
0.0
 45
3.0886032506
 46
84.5550388732
 79
6
 49
0.0
 49
-165.608
 49
0.0
 49
-170.18
 49
0.0
 49
-168.275
 53
7.5
 43
0.0
 44
0.0
 45
66.8196625103
 46
100.1805748181
 79
6
 49
0.0
 49
-97.028
 49
0.0
 49
-161.798
 49
0.0
 49
-64.135
 53
-32.5
 43
-56.642
 44
0.0
 45
135.5905951669
 46
-5.7287439927
 79
6
 49
0.0
 49
-63.5
 49
0.0
 49
-198.12
 49
0.0
 49
-262.89
 53
-42.5
 43
-82.042
 44
0.0
 45
148.129181386
 46
25.4264910333
 79
6
 49
0.0
 49
-82.55
 49
0.0
 49
-131.572
 49
0.0
 49
-186.69
 98
0
  0
HATCH
  5
349
330
17
100
AcDbEntity
  8
Hachura
 62
7
100
AcDbHatch
 10
0.0
 20
0.0
 30
0.0
210
0.0
220
0.0
230
1.0
  2
ANSI31
 70
0
 71
0
 91
1
 92
3
 72
0
 73
1
 93
5
 10
4156.116835442179
 20
3501.481280938737
 10
4160.516835442172
 20
3501.481280938737
 10
4160.516835442172
 20
3515.481280938737
 10
4156.116835442179
 20
3515.481280938737
 10
4156.116835442179
 20
3501.481280938737
 97
0
 75
1
 76
1
 52
0.0
 41
1.0
 77
0
 78
1
 53
45.0
 43
0.0
 44
0.0
 45
-2.2450640303
 46
2.2450640303
 79
0
 98
0
  0
HATCH
  5
34A
330
17
100
AcDbEntity
  8
Hachura
 62
7
100
AcDbHatch
 10
0.0
 20
0.0
 30
0.0
210
0.0
220
0.0
230
1.0
  2
ANSI31
 70
0
 71
0
 91
1
 92
3
 72
0
 73
1
 93
5
 10
4210.916835442167
 20
3501.481280938737
 10
4206.516835442172
 20
3501.481280938737
 10
4206.516835442172
 20
3515.481280938737
 10
4210.916835442167
 20
3515.481280938737
 10
4210.916835442167
 20
3501.481280938737
 97
0
 75
1
 76
1
 52
0.0
 41
1.0
 77
0
 78
1
 53
45.0
 43
0.0
 44
0.0
 45
-2.2450640303
 46
2.2450640303
 79
0
 98
0
  0
HATCH
  5
34B
330
17
100
AcDbEntity
  8
COTA
 62
7
100
AcDbHatch
 10
0.0
 20
0.0
 30
0.0
210
0.0
220
0.0
230
1.0
  2
AR-CONC
 70
0
 71
0
 91
1
 92
3
 72
0
 73
1
 93
11
 10
4346.748859327794
 20
3249.790591917352
 10
4346.748859327794
 20
3252.790591917352
 10
4312.873859327805
 20
3252.790591917352
 10
4312.748859327805
 20
3194.790591917354
 10
4346.748859327805
 20
3194.790591917354
 10
4346.748859327805
 20
3237.790591917371
 10
4649.748859327805
 20
3237.790591917356
 10
4649.748859327805
 20
3252.790591917352
 10
4467.748859327794
 20
3252.790591917352
 10
4467.748859327794
 20
3249.790591917352
 10
4346.748859327794
 20
3249.790591917352
 97
0
 75
1
 76
1
 52
0.0
 41
1.0
 77
0
 78
13
 53
50.0
 43
0.0
 44
0.0
 45
182.184668996
 46
-15.9390855389
 79
2
 49
19.05
 49
-209.55
 53
355.0
 43
0.0
 44
0.0
 45
-35.243421425
 46
191.056845239
 79
2
 49
15.24
 49
-167.64058417
 53
100.4514447
 43
15.182007
 44
-1.3282535
 45
146.9412470904
 46
175.1177519122
 79
2
 49
16.1900088
 49
-178.0902446
 53
46.1842
 43
0.0
 44
50.8
 45
271.0790408921
 46
-42.0423279327
 79
2
 49
28.575
 49
-314.325
 53
96.63555761
 43
22.5899
 44
47.2965
 45
237.4041340515
 46
247.4261245977
 79
2
 49
24.28502314
 49
-267.13560816
 53
351.18415117
 43
0.0
 44
50.8
 45
237.404134065
 46
247.4261245855
 79
2
 49
22.85996707
 49
-251.45973192
 53
21.0
 43
25.4
 44
38.1
 45
151.6143912691
 46
-102.2651981871
 79
2
 49
19.05
 49
-209.55
 53
326.0
 43
25.4
 44
38.1
 45
61.8020283476
 46
184.1879661223
 79
2
 49
15.24
 49
-167.64
 53
71.451445
 43
38.0345326
 44
29.5779001
 45
213.4164192787
 46
81.9227688859
 79
2
 49
16.1900088
 49
-178.0899376
 53
37.5
 43
0.0
 44
0.0
 45
3.0886032506
 46
84.5550388732
 79
6
 49
0.0
 49
-165.608
 49
0.0
 49
-170.18
 49
0.0
 49
-168.275
 53
7.5
 43
0.0
 44
0.0
 45
66.8196625103
 46
100.1805748181
 79
6
 49
0.0
 49
-97.028
 49
0.0
 49
-161.798
 49
0.0
 49
-64.135
 53
-32.5
 43
-56.642
 44
0.0
 45
135.5905951669
 46
-5.7287439927
 79
6
 49
0.0
 49
-63.5
 49
0.0
 49
-198.12
 49
0.0
 49
-262.89
 53
-42.5
 43
-82.042
 44
0.0
 45
148.129181386
 46
25.4264910333
 79
6
 49
0.0
 49
-82.55
 49
0.0
 49
-131.572
 49
0.0
 49
-186.69
 98
0
  0
HATCH
  5
34C
330
17
100
AcDbEntity
  8
COTA
 62
7
100
AcDbHatch
 10
0.0
 20
0.0
 30
0.0
210
0.0
220
0.0
230
1.0
  2
AR-CONC
 70
0
 71
0
 91
1
 92
3
 72
0
 73
1
 93
13
 10
4851.703718568624
 20
3231.790591917355
 10
4676.74885932781
 20
3231.790591917352
 10
4676.74885932781
 20
3193.756206078274
 10
4649.748859327806
 20
3193.756206078274
 10
4649.748859327805
 20
3252.790591917352
 10
4676.748859327805
 20
3251.854739218828
 10
4676.748859327805
 20
3245.790591917352
 10
4851.703718568621
 20
3245.790591917329
 10
4851.703718568617
 20
3252.790591917329
 10
4880.703718568618
 20
3252.790591917331
 10
4880.703718568617
 20
3193.790591917331
 10
4851.703718568618
 20
3193.790591917335
 10
4851.703718568624
 20
3231.790591917355
 97
0
 75
1
 76
1
 52
0.0
 41
1.0
 77
0
 78
13
 53
50.0
 43
0.0
 44
0.0
 45
182.184668996
 46
-15.9390855389
 79
2
 49
19.05
 49
-209.55
 53
355.0
 43
0.0
 44
0.0
 45
-35.243421425
 46
191.056845239
 79
2
 49
15.24
 49
-167.64058417
 53
100.4514447
 43
15.182007
 44
-1.3282535
 45
146.9412470904
 46
175.1177519122
 79
2
 49
16.1900088
 49
-178.0902446
 53
46.1842
 43
0.0
 44
50.8
 45
271.0790408921
 46
-42.0423279327
 79
2
 49
28.575
 49
-314.325
 53
96.63555761
 43
22.5899
 44
47.2965
 45
237.4041340515
 46
247.4261245977
 79
2
 49
24.28502314
 49
-267.13560816
 53
351.18415117
 43
0.0
 44
50.8
 45
237.404134065
 46
247.4261245855
 79
2
 49
22.85996707
 49
-251.45973192
 53
21.0
 43
25.4
 44
38.1
 45
151.6143912691
 46
-102.2651981871
 79
2
 49
19.05
 49
-209.55
 53
326.0
 43
25.4
 44
38.1
 45
61.8020283476
 46
184.1879661223
 79
2
 49
15.24
 49
-167.64
 53
71.451445
 43
38.0345326
 44
29.5779001
 45
213.4164192787
 46
81.9227688859
 79
2
 49
16.1900088
 49
-178.0899376
 53
37.5
 43
0.0
 44
0.0
 45
3.0886032506
 46
84.5550388732
 79
6
 49
0.0
 49
-165.608
 49
0.0
 49
-170.18
 49
0.0
 49
-168.275
 53
7.5
 43
0.0
 44
0.0
 45
66.8196625103
 46
100.1805748181
 79
6
 49
0.0
 49
-97.028
 49
0.0
 49
-161.798
 49
0.0
 49
-64.135
 53
-32.5
 43
-56.642
 44
0.0
 45
135.5905951669
 46
-5.7287439927
 79
6
 49
0.0
 49
-63.5
 49
0.0
 49
-198.12
 49
0.0
 49
-262.89
 53
-42.5
 43
-82.042
 44
0.0
 45
148.129181386
 46
25.4264910333
 79
6
 49
0.0
 49
-82.55
 49
0.0
 49
-131.572
 49
0.0
 49
-186.69
 98
0
  0
LINE
  5
34D
330
17
100
AcDbEntity
  8
SARRAFO DE PRESSAO
 62
30
370
9
100
AcDbLine
 10
3899.1644419296645
 20
2758.520692852864
 30
0.0
 11
3899.1644419296645
 21
2957.7642062637533
 31
0.0
  0
LWPOLYLINE
  5
34E
330
17
100
AcDbEntity
  8
Texto Seção
 62
7
370
15
100
AcDbPolyline
 90
4
 70
0
 10
4765.583757447187
 20
2998.991723802101
 10
4907.033075599444
 20
2998.991723802101
 10
4907.033075599444
 20
2975.790846734352
 10
4765.583757447187
 20
2975.790846734352
  0
LWPOLYLINE
  5
34F
330
17
100
AcDbEntity
  8
Texto Seção
 62
7
370
15
100
AcDbPolyline
 90
4
 70
0
 10
3639.786014081787
 20
2998.991723802101
 10
3781.235332234042
 20
2998.991723802101
 10
3781.235332234042
 20
2975.790846734352
 10
3639.786014081787
 20
2975.790846734352
  0
LWPOLYLINE
  5
350
330
17
100
AcDbEntity
  8
SARRAFO DE PRESSAO
 62
30
370
9
100
AcDbPolyline
 90
8
 70
0
 10
4918.5808338197385
 20
2758.520692852864
 10
4918.5808338197385
 20
2942.7642062637533
 10
4903.5808338197385
 20
2957.7642062637533
 10
3563.5808338197385
 20
2957.7642062637533
 10
3548.5808338197385
 20
2942.7642062637533
 10
3548.5808338197385
 20
2773.520692852864
 10
3563.5808338197385
 20
2758.520692852864
 10
4918.5808338197385
 20
2758.520692852864
  0
TEXT
  5
351
330
17
100
AcDbEntity
  8
5
 62
5
370
25
100
AcDbText
 10
3577.175788452404
 20
3002.608194266483
 30
0.0
 40
12.0
  1
V306
 50
3.55024762388e-05
100
AcDbText
  0
TEXT
  5
352
330
17
100
AcDbEntity
  8
5
 62
5
370
25
100
AcDbText
 10
3960.606858706944
 20
3001.884603161697
 30
0.0
 40
12.0
  1
P22
 50
3.55024762388e-05
100
AcDbText
  0
TEXT
  5
353
330
17
100
AcDbEntity
  8
Texto Seção
 62
7
370
15
100
AcDbText
 10
4835.444710204356
 20
2987.042441821572
 30
0.0
 40
13.0
  1
VEM DA V18
100
AcDbText
  0
TEXT
  5
354
330
17
100
AcDbEntity
  8
Texto Seção
 62
7
370
15
100
AcDbText
 10
3709.646966838955
 20
2987.042441821572
 30
0.0
 40
13.0
  1
VEM DA V17
100
AcDbText
  0
ENDSEC
  0
SECTION
  2
OBJECTS
  0
DICTIONARY
  5
A
330
0
100
AcDbDictionary
281
1
  3
ACAD_COLOR
350
B
  3
ACAD_GROUP
350
C
  3
ACAD_LAYOUT
350
D
  3
ACAD_MATERIAL
350
E
  3
ACAD_MLEADERSTYLE
350
F
  3
ACAD_MLINESTYLE
350
10
  3
ACAD_PLOTSETTINGS
350
11
  3
ACAD_PLOTSTYLENAME
350
12
  3
ACAD_SCALELIST
350
14
  3
ACAD_TABLESTYLE
350
15
  3
ACAD_VISUALSTYLE
350
16
  3
EZDXF_META
350
2D
  0
DICTIONARY
  5
B
330
A
100
AcDbDictionary
281
1
  0
DICTIONARY
  5
C
330
A
100
AcDbDictionary
281
1
  0
DICTIONARY
  5
D
330
A
100
AcDbDictionary
281
1
  3
Model
350
1A
  3
Layout1
350
1E
  0
DICTIONARY
  5
E
330
A
100
AcDbDictionary
281
1
  3
ByBlock
350
1F
  3
ByLayer
350
20
  3
Global
350
21
  0
DICTIONARY
  5
F
330
A
100
AcDbDictionary
281
1
  3
Standard
350
2C
  0
DICTIONARY
  5
10
330
A
100
AcDbDictionary
281
1
  3
Standard
350
22
  0
DICTIONARY
  5
11
330
A
100
AcDbDictionary
281
1
  0
ACDBDICTIONARYWDFLT
  5
12
330
A
100
AcDbDictionary
281
1
  3
Normal
350
13
100
AcDbDictionaryWithDefault
340
13
  0
ACDBPLACEHOLDER
  5
13
330
12
  0
DICTIONARY
  5
14
330
A
100
AcDbDictionary
281
1
  0
DICTIONARY
  5
15
330
A
100
AcDbDictionary
281
1
  0
DICTIONARY
  5
16
330
A
100
AcDbDictionary
281
1
  0
LAYOUT
  5
1A
330
D
100
AcDbPlotSettings
  1

  4
A3
  6

 40
7.5
 41
20.0
 42
7.5
 43
20.0
 44
420.0
 45
297.0
 46
0.0
 47
0.0
 48
0.0
 49
0.0
140
0.0
141
0.0
142
1.0
143
1.0
 70
1024
 72
1
 73
0
 74
5
  7

 75
16
 76
0
 77
2
 78
300
147
1.0
148
0.0
149
0.0
100
AcDbLayout
  1
Model
 70
1
 71
0
 10
0.0
 20
0.0
 11
420.0
 21
297.0
 12
0.0
 22
0.0
 32
0.0
 14
1e+20
 24
1e+20
 34
1e+20
 15
-1e+20
 25
-1e+20
 35
-1e+20
146
0.0
 13
0.0
 23
0.0
 33
0.0
 16
1.0
 26
0.0
 36
0.0
 17
0.0
 27
1.0
 37
0.0
 76
1
330
17
  0
LAYOUT
  5
1E
330
D
100
AcDbPlotSettings
  1

  4
A3
  6

 40
7.5
 41
20.0
 42
7.5
 43
20.0
 44
420.0
 45
297.0
 46
0.0
 47
0.0
 48
0.0
 49
0.0
140
0.0
141
0.0
142
1.0
143
1.0
 70
0
 72
1
 73
0
 74
5
  7

 75
16
 76
0
 77
2
 78
300
147
1.0
148
0.0
149
0.0
100
AcDbLayout
  1
Layout1
 70
1
 71
1
 10
0.0
 20
0.0
 11
420.0
 21
297.0
 12
0.0
 22
0.0
 32
0.0
 14
1e+20
 24
1e+20
 34
1e+20
 15
-1e+20
 25
-1e+20
 35
-1e+20
146
0.0
 13
0.0
 23
0.0
 33
0.0
 16
1.0
 26
0.0
 36
0.0
 17
0.0
 27
1.0
 37
0.0
 76
1
330
1B
  0
MATERIAL
  5
1F
102
{ACAD_REACTORS
330
E
102
}
330
E
100
AcDbMaterial
  1
ByBlock
  2

 70
0
 40
1.0
 71
1
 41
1.0
 91
-1023410177
 42
1.0
 72
1
  3

 73
1
 74
1
 75
1
 44
0.5
 73
0
 45
1.0
 46
1.0
 77
1
  4

 78
1
 79
1
170
1
 48
1.0
171
1
  6

172
1
173
1
174
1
140
1.0
141
1.0
175
1
  7

176
1
177
1
178
1
143
1.0
179
1
  8

270
1
271
1
272
1
145
1.0
146
1.0
273
1
  9

274
1
275
1
276
1
 42
1.0
 72
1
  3

 73
1
 74
1
 75
1
 94
63
  0
MATERIAL
  5
20
102
{ACAD_REACTORS
330
E
102
}
330
E
100
AcDbMaterial
  1
ByLayer
  2

 70
0
 40
1.0
 71
1
 41
1.0
 91
-1023410177
 42
1.0
 72
1
  3

 73
1
 74
1
 75
1
 44
0.5
 73
0
 45
1.0
 46
1.0
 77
1
  4

 78
1
 79
1
170
1
 48
1.0
171
1
  6

172
1
173
1
174
1
140
1.0
141
1.0
175
1
  7

176
1
177
1
178
1
143
1.0
179
1
  8

270
1
271
1
272
1
145
1.0
146
1.0
273
1
  9

274
1
275
1
276
1
 42
1.0
 72
1
  3

 73
1
 74
1
 75
1
 94
63
  0
MATERIAL
  5
21
102
{ACAD_REACTORS
330
E
102
}
330
E
100
AcDbMaterial
  1
Global
  2

 70
0
 40
1.0
 71
1
 41
1.0
 91
-1023410177
 42
1.0
 72
1
  3

 73
1
 74
1
 75
1
 44
0.5
 73
0
 45
1.0
 46
1.0
 77
1
  4

 78
1
 79
1
170
1
 48
1.0
171
1
  6

172
1
173
1
174
1
140
1.0
141
1.0
175
1
  7

176
1
177
1
178
1
143
1.0
179
1
  8

270
1
271
1
272
1
145
1.0
146
1.0
273
1
  9

274
1
275
1
276
1
 42
1.0
 72
1
  3

 73
1
 74
1
 75
1
 94
63
  0
MLINESTYLE
  5
22
102
{ACAD_REACTORS
330
10
102
}
330
10
100
AcDbMlineStyle
  2
Standard
 70
0
  3

 62
256
 51
90.0
 52
90.0
 71
2
 49
0.5
 62
256
  6
BYLAYER
 49
-0.5
 62
256
  6
BYLAYER
  0
MLEADERSTYLE
  5
2C
102
{ACAD_REACTORS
330
F
102
}
330
F
100
AcDbMLeaderStyle
179
2
170
2
171
1
172
0
 90
2
 40
0.0
 41
0.0
173
1
 91
-1056964608
 92
-2
290
1
 42
2.0
291
1
 43
8.0
  3
Standard
 44
4.0
300

342
29
174
1
175
1
176
0
178
1
 93
-1056964608
 45
4.0
292
0
297
0
 46
4.0
 94
-1056964608
 47
1.0
 49
1.0
140
1.0
294
1
141
0.0
177
0
142
1.0
295
0
296
0
143
3.75
271
0
272
9
273
9
  0
DICTIONARY
  5
2D
330
A
100
AcDbDictionary
280
1
281
1
  3
CREATED_BY_EZDXF
350
2E
  3
WRITTEN_BY_EZDXF
350
357
  0
DICTIONARYVAR
  5
2E
330
2D
100
DictionaryVariables
280
0
  1
1.4.3 @ 2026-06-10T02:10:55.480942+00:00
  0
DICTIONARYVAR
  5
357
330
2D
100
DictionaryVariables
280
0
  1
1.4.3 @ 2026-06-10T02:10:55.505664+00:00
  0
ENDSEC
  0
EOF
