  0
SECTION
  2
HEADER
  9
$ACADVER
  1
AC1024
  9
$ACADMAINTVER
 70
6
  9
$DWGCODEPAGE
  3
ANSI_1252
  9
$LASTSAVEDBY
  1
ezdxf
  9
$INSBASE
 10
0.0
 20
0.0
 30
0.0
  9
$EXTMIN
 10
1e+20
 20
1e+20
 30
1e+20
  9
$EXTMAX
 10
-1e+20
 20
-1e+20
 30
-1e+20
  9
$LIMMIN
 10
0.0
 20
0.0
  9
$LIMMAX
 10
420.0
 20
297.0
  9
$ORTHOMODE
 70
0
  9
$REGENMODE
 70
1
  9
$FILLMODE
 70
1
  9
$QTEXTMODE
 70
0
  9
$MIRRTEXT
 70
1
  9
$LTSCALE
 40
1.0
  9
$ATTMODE
 70
1
  9
$TEXTSIZE
 40
2.5
  9
$TRACEWID
 40
1.0
  9
$TEXTSTYLE
  7
Standard
  9
$CLAYER
  8
0
  9
$CELTYPE
  6
ByLayer
  9
$CECOLOR
 62
256
  9
$CELTSCALE
 40
1.0
  9
$DISPSILH
 70
0
  9
$DIMSCALE
 40
1.0
  9
$DIMASZ
 40
2.5
  9
$DIMEXO
 40
0.625
  9
$DIMDLI
 40
3.75
  9
$DIMRND
 40
0.0
  9
$DIMDLE
 40
0.0
  9
$DIMEXE
 40
1.25
  9
$DIMTP
 40
0.0
  9
$DIMTM
 40
0.0
  9
$DIMTXT
 40
2.5
  9
$DIMCEN
 40
2.5
  9
$DIMTSZ
 40
0.0
  9
$DIMTOL
 70
0
  9
$DIMLIM
 70
0
  9
$DIMTIH
 70
0
  9
$DIMTOH
 70
0
  9
$DIMSE1
 70
0
  9
$DIMSE2
 70
0
  9
$DIMTAD
 70
1
  9
$DIMZIN
 70
8
  9
$DIMBLK
  1

  9
$DIMASO
 70
1
  9
$DIMSHO
 70
1
  9
$DIMPOST
  1

  9
$DIMAPOST
  1

  9
$DIMALT
 70
0
  9
$DIMALTD
 70
3
  9
$DIMALTF
 40
0.03937007874
  9
$DIMLFAC
 40
1.0
  9
$DIMTOFL
 70
1
  9
$DIMTVP
 40
0.0
  9
$DIMTIX
 70
0
  9
$DIMSOXD
 70
0
  9
$DIMSAH
 70
0
  9
$DIMBLK1
  1

  9
$DIMBLK2
  1

  9
$DIMSTYLE
  2
ISO-25
  9
$DIMCLRD
 70
0
  9
$DIMCLRE
 70
0
  9
$DIMCLRT
 70
0
  9
$DIMTFAC
 40
1.0
  9
$DIMGAP
 40
0.625
  9
$DIMJUST
 70
0
  9
$DIMSD1
 70
0
  9
$DIMSD2
 70
0
  9
$DIMTOLJ
 70
0
  9
$DIMTZIN
 70
8
  9
$DIMALTZ
 70
0
  9
$DIMALTTZ
 70
0
  9
$DIMUPT
 70
0
  9
$DIMDEC
 70
2
  9
$DIMTDEC
 70
2
  9
$DIMALTU
 70
2
  9
$DIMALTTD
 70
3
  9
$DIMTXSTY
  7
Standard
  9
$DIMAUNIT
 70
0
  9
$DIMADEC
 70
0
  9
$DIMALTRND
 40
0.0
  9
$DIMAZIN
 70
0
  9
$DIMDSEP
 70
44
  9
$DIMATFIT
 70
3
  9
$DIMFRAC
 70
0
  9
$DIMLDRBLK
  1

  9
$DIMLUNIT
 70
2
  9
$DIMLWD
 70
-2
  9
$DIMLWE
 70
-2
  9
$DIMTMOVE
 70
0
  9
$DIMFXL
 40
1.0
  9
$DIMFXLON
 70
0
  9
$DIMJOGANG
 40
0.785398163397
  9
$DIMTFILL
 70
0
  9
$DIMTFILLCLR
 70
0
  9
$DIMARCSYM
 70
0
  9
$DIMLTYPE
  6

  9
$DIMLTEX1
  6

  9
$DIMLTEX2
  6

  9
$DIMTXTDIRECTION
 70
0
  9
$LUNITS
 70
2
  9
$LUPREC
 70
4
  9
$SKETCHINC
 40
1.0
  9
$FILLETRAD
 40
10.0
  9
$AUNITS
 70
0
  9
$AUPREC
 70
2
  9
$MENU
  1
.
  9
$ELEVATION
 40
0.0
  9
$PELEVATION
 40
0.0
  9
$THICKNESS
 40
0.0
  9
$LIMCHECK
 70
0
  9
$CHAMFERA
 40
0.0
  9
$CHAMFERB
 40
0.0
  9
$CHAMFERC
 40
0.0
  9
$CHAMFERD
 40
0.0
  9
$SKPOLY
 70
0
  9
$TDCREATE
 40
2461202.5789467595
  9
$TDUCREATE
 40
2458532.153996898
  9
$TDUPDATE
 40
2461202.5789467595
  9
$TDUUPDATE
 40
2458532.1544311
  9
$TDINDWG
 40
0.0
  9
$TDUSRTIMER
 40
0.0
  9
$USRTIMER
 70
1
  9
$ANGBASE
 50
0.0
  9
$ANGDIR
 70
0
  9
$PDMODE
 70
0
  9
$PDSIZE
 40
0.0
  9
$PLINEWID
 40
0.0
  9
$SPLFRAME
 70
0
  9
$SPLINETYPE
 70
6
  9
$SPLINESEGS
 70
8
  9
$HANDSEED
  5
B1
  9
$SURFTAB1
 70
6
  9
$SURFTAB2
 70
6
  9
$SURFTYPE
 70
6
  9
$SURFU
 70
6
  9
$SURFV
 70
6
  9
$UCSBASE
  2

  9
$UCSNAME
  2

  9
$UCSORG
 10
0.0
 20
0.0
 30
0.0
  9
$UCSXDIR
 10
1.0
 20
0.0
 30
0.0
  9
$UCSYDIR
 10
0.0
 20
1.0
 30
0.0
  9
$UCSORTHOREF
  2

  9
$UCSORTHOVIEW
 70
0
  9
$UCSORGTOP
 10
0.0
 20
0.0
 30
0.0
  9
$UCSORGBOTTOM
 10
0.0
 20
0.0
 30
0.0
  9
$UCSORGLEFT
 10
0.0
 20
0.0
 30
0.0
  9
$UCSORGRIGHT
 10
0.0
 20
0.0
 30
0.0
  9
$UCSORGFRONT
 10
0.0
 20
0.0
 30
0.0
  9
$UCSORGBACK
 10
0.0
 20
0.0
 30
0.0
  9
$PUCSBASE
  2

  9
$PUCSNAME
  2

  9
$PUCSORG
 10
0.0
 20
0.0
 30
0.0
  9
$PUCSXDIR
 10
1.0
 20
0.0
 30
0.0
  9
$PUCSYDIR
 10
0.0
 20
1.0
 30
0.0
  9
$PUCSORTHOREF
  2

  9
$PUCSORTHOVIEW
 70
0
  9
$PUCSORGTOP
 10
0.0
 20
0.0
 30
0.0
  9
$PUCSORGBOTTOM
 10
0.0
 20
0.0
 30
0.0
  9
$PUCSORGLEFT
 10
0.0
 20
0.0
 30
0.0
  9
$PUCSORGRIGHT
 10
0.0
 20
0.0
 30
0.0
  9
$PUCSORGFRONT
 10
0.0
 20
0.0
 30
0.0
  9
$PUCSORGBACK
 10
0.0
 20
0.0
 30
0.0
  9
$USERI1
 70
0
  9
$USERI2
 70
0
  9
$USERI3
 70
0
  9
$USERI4
 70
0
  9
$USERI5
 70
0
  9
$USERR1
 40
0.0
  9
$USERR2
 40
0.0
  9
$USERR3
 40
0.0
  9
$USERR4
 40
0.0
  9
$USERR5
 40
0.0
  9
$WORLDVIEW
 70
1
  9
$SHADEDGE
 70
3
  9
$SHADEDIF
 70
70
  9
$TILEMODE
 70
1
  9
$MAXACTVP
 70
64
  9
$PINSBASE
 10
0.0
 20
0.0
 30
0.0
  9
$PLIMCHECK
 70
0
  9
$PEXTMIN
 10
1e+20
 20
1e+20
 30
1e+20
  9
$PEXTMAX
 10
-1e+20
 20
-1e+20
 30
-1e+20
  9
$PLIMMIN
 10
0.0
 20
0.0
  9
$PLIMMAX
 10
420.0
 20
297.0
  9
$UNITMODE
 70
0
  9
$VISRETAIN
 70
1
  9
$PLINEGEN
 70
0
  9
$PSLTSCALE
 70
1
  9
$TREEDEPTH
 70
3020
  9
$CMLSTYLE
  2
Standard
  9
$CMLJUST
 70
0
  9
$CMLSCALE
 40
20.0
  9
$PROXYGRAPHICS
 70
1
  9
$MEASUREMENT
 70
1
  9
$CELWEIGHT
370
-1
  9
$ENDCAPS
280
0
  9
$JOINSTYLE
280
0
  9
$LWDISPLAY
290
0
  9
$INSUNITS
 70
6
  9
$HYPERLINKBASE
  1

  9
$STYLESHEET
  1

  9
$XEDIT
290
1
  9
$CEPSNTYPE
380
0
  9
$PSTYLEMODE
290
1
  9
$FINGERPRINTGUID
  2
{E0F96BE2-76D2-447A-9E28-3E6461A22516}
  9
$VERSIONGUID
  2
{F0FD08BC-8C56-4F95-8F62-1BA90A70210A}
  9
$EXTNAMES
290
1
  9
$PSVPSCALE
 40
0.0
  9
$OLESTARTUP
290
0
  9
$SORTENTS
280
127
  9
$INDEXCTL
280
0
  9
$HIDETEXT
280
1
  9
$XCLIPFRAME
280
1
  9
$HALOGAP
280
0
  9
$OBSCOLOR
 70
257
  9
$OBSLTYPE
280
0
  9
$INTERSECTIONDISPLAY
280
0
  9
$INTERSECTIONCOLOR
 70
257
  9
$DIMASSOC
280
2
  9
$PROJECTNAME
  1

  9
$CAMERADISPLAY
290
0
  9
$LENSLENGTH
 40
50.0
  9
$CAMERAHEIGHT
 40
0.0
  9
$STEPSPERSEC
 40
24.0
  9
$STEPSIZE
 40
100.0
  9
$3DDWFPREC
 40
2.0
  9
$PSOLWIDTH
 40
0.005
  9
$PSOLHEIGHT
 40
0.08
  9
$LOFTANG1
 40
1.570796326795
  9
$LOFTANG2
 40
1.570796326795
  9
$LOFTMAG1
 40
0.0
  9
$LOFTMAG2
 40
0.0
  9
$LOFTPARAM
 70
7
  9
$LOFTNORMALS
280
1
  9
$LATITUDE
 40
37.795
  9
$LONGITUDE
 40
-122.394
  9
$NORTHDIRECTION
 40
0.0
  9
$TIMEZONE
 70
-8000
  9
$LIGHTGLYPHDISPLAY
280
1
  9
$TILEMODELIGHTSYNCH
280
1
  9
$CMATERIAL
347
20
  9
$SOLIDHIST
280
0
  9
$SHOWHIST
280
1
  9
$DWFFRAME
280
2
  9
$DGNFRAME
280
2
  9
$REALWORLDSCALE
290
1
  9
$INTERFERECOLOR
 62
256
  9
$CSHADOW
280
0
  9
$SHADOWPLANELOCATION
 40
0.0
  0
ENDSEC
  0
SECTION
  2
CLASSES
  0
CLASS
  1
ACDBDICTIONARYWDFLT
  2
AcDbDictionaryWithDefault
  3
ObjectDBX Classes
 90
0
 91
0
280
0
281
0
  0
CLASS
  1
SUN
  2
AcDbSun
  3
SCENEOE
 90
1153
 91
0
280
0
281
0
  0
CLASS
  1
VISUALSTYLE
  2
AcDbVisualStyle
  3
ObjectDBX Classes
 90
4095
 91
0
280
0
281
0
  0
CLASS
  1
MATERIAL
  2
AcDbMaterial
  3
ObjectDBX Classes
 90
1153
 91
0
280
0
281
0
  0
CLASS
  1
SCALE
  2
AcDbScale
  3
ObjectDBX Classes
 90
1153
 91
0
280
0
281
0
  0
CLASS
  1
TABLESTYLE
  2
AcDbTableStyle
  3
ObjectDBX Classes
 90
4095
 91
0
280
0
281
0
  0
CLASS
  1
MLEADERSTYLE
  2
AcDbMLeaderStyle
  3
ACDB_MLEADERSTYLE_CLASS
 90
4095
 91
0
280
0
281
0
  0
CLASS
  1
DICTIONARYVAR
  2
AcDbDictionaryVar
  3
ObjectDBX Classes
 90
0
 91
0
280
0
281
0
  0
CLASS
  1
CELLSTYLEMAP
  2
AcDbCellStyleMap
  3
ObjectDBX Classes
 90
1152
 91
0
280
0
281
0
  0
CLASS
  1
MENTALRAYRENDERSETTINGS
  2
AcDbMentalRayRenderSettings
  3
SCENEOE
 90
1024
 91
0
280
0
281
0
  0
CLASS
  1
ACDBDETAILVIEWSTYLE
  2
AcDbDetailViewStyle
  3
ObjectDBX Classes
 90
1025
 91
0
280
0
281
0
  0
CLASS
  1
ACDBSECTIONVIEWSTYLE
  2
AcDbSectionViewStyle
  3
ObjectDBX Classes
 90
1025
 91
0
280
0
281
0
  0
CLASS
  1
RASTERVARIABLES
  2
AcDbRasterVariables
  3
ISM
 90
0
 91
0
280
0
281
0
  0
CLASS
  1
LAYOUT
  2
AcDbLayout
  3
ObjectDBX Classes
 90
0
 91
0
280
0
281
0
  0
CLASS
  1
ACDBPLACEHOLDER
  2
AcDbPlaceHolder
  3
ObjectDBX Classes
 90
0
 91
0
280
0
281
0
  0
ENDSEC
  0
SECTION
  2
TABLES
  0
TABLE
  2
VPORT
  5
8
330
0
100
AcDbSymbolTable
 70
1
  0
VPORT
  5
23
330
8
100
AcDbSymbolTableRecord
100
AcDbViewportTableRecord
  2
*Active
 70
0
 10
0.0
 20
0.0
 11
1.0
 21
1.0
 12
0.0
 22
0.0
 13
0.0
 23
0.0
 14
0.5
 24
0.5
 15
0.5
 25
0.5
 16
0.0
 26
0.0
 36
1.0
 17
0.0
 27
0.0
 37
0.0
 40
1000.0
 41
1.34
 42
50.0
 43
0.0
 44
0.0
 50
0.0
 51
0.0
 71
0
 72
1000
 73
1
 74
3
 75
0
 76
0
 77
0
 78
0
281
0
 65
0
146
0.0
  0
ENDTAB
  0
TABLE
  2
LTYPE
  5
2
330
0
100
AcDbSymbolTable
 70
3
  0
LTYPE
  5
24
330
2
100
AcDbSymbolTableRecord
100
AcDbLinetypeTableRecord
  2
ByBlock
 70
0
  3

 72
65
 73
0
 40
0.0
  0
LTYPE
  5
25
330
2
100
AcDbSymbolTableRecord
100
AcDbLinetypeTableRecord
  2
ByLayer
 70
0
  3

 72
65
 73
0
 40
0.0
  0
LTYPE
  5
26
330
2
100
AcDbSymbolTableRecord
100
AcDbLinetypeTableRecord
  2
Continuous
 70
0
  3

 72
65
 73
0
 40
0.0
  0
ENDTAB
  0
TABLE
  2
LAYER
  5
1
330
0
100
AcDbSymbolTable
 70
10
  0
LAYER
  5
27
330
1
100
AcDbSymbolTableRecord
100
AcDbLayerTableRecord
  2
0
 70
0
 62
7
  6
Continuous
370
-3
390
13
347
21
  0
LAYER
  5
28
330
1
100
AcDbSymbolTableRecord
100
AcDbLayerTableRecord
  2
Defpoints
 70
0
 62
7
  6
Continuous
290
0
370
-3
390
13
347
21
  0
LAYER
  5
2F
330
1
100
AcDbSymbolTableRecord
100
AcDbLayerTableRecord
  2
SARR_EDITAR
 70
0
 62
7
  6
Continuous
370
-3
390
13
347
21
  0
LAYER
  5
30
330
1
100
AcDbSymbolTableRecord
100
AcDbLayerTableRecord
  2
COTA
 70
0
 62
7
  6
Continuous
370
-3
390
13
347
21
  0
LAYER
  5
31
330
1
100
AcDbSymbolTableRecord
100
AcDbLayerTableRecord
  2
Hachura
 70
0
 62
7
  6
Continuous
370
-3
390
13
347
21
  0
LAYER
  5
32
330
1
100
AcDbSymbolTableRecord
100
AcDbLayerTableRecord
  2
Painéis
 70
0
 62
7
  6
Continuous
370
-3
390
13
347
21
  0
LAYER
  5
33
330
1
100
AcDbSymbolTableRecord
100
AcDbLayerTableRecord
  2
SARR_2.2x7
 70
0
 62
7
  6
Continuous
370
-3
390
13
347
21
  0
LAYER
  5
34
330
1
100
AcDbSymbolTableRecord
100
AcDbLayerTableRecord
  2
NOMENCLATURA
 70
0
 62
7
  6
Continuous
370
-3
390
13
347
21
  0
LAYER
  5
35
330
1
100
AcDbSymbolTableRecord
100
AcDbLayerTableRecord
  2
Nível
 70
0
 62
7
  6
Continuous
370
-3
390
13
347
21
  0
LAYER
  5
36
330
1
100
AcDbSymbolTableRecord
100
AcDbLayerTableRecord
  2
Texto Seção
 70
0
 62
7
  6
Continuous
370
-3
390
13
347
21
  0
ENDTAB
  0
TABLE
  2
STYLE
  5
5
330
0
100
AcDbSymbolTable
 70
1
  0
STYLE
  5
29
330
5
100
AcDbSymbolTableRecord
100
AcDbTextStyleTableRecord
  2
Standard
 70
0
 40
0.0
 41
1.0
 50
0.0
 71
0
 42
2.5
  3
txt
  4

  0
ENDTAB
  0
TABLE
  2
VIEW
  5
7
330
0
100
AcDbSymbolTable
 70
0
  0
ENDTAB
  0
TABLE
  2
UCS
  5
6
330
0
100
AcDbSymbolTable
 70
0
  0
ENDTAB
  0
TABLE
  2
APPID
  5
3
330
0
100
AcDbSymbolTable
 70
3
  0
APPID
  5
2A
330
3
100
AcDbSymbolTableRecord
100
AcDbRegAppTableRecord
  2
ACAD
 70
0
  0
APPID
  5
AE
330
3
100
AcDbSymbolTableRecord
100
AcDbRegAppTableRecord
  2
HATCHBACKGROUNDCOLOR
 70
0
  0
APPID
  5
AF
330
3
100
AcDbSymbolTableRecord
100
AcDbRegAppTableRecord
  2
EZDXF
 70
0
  0
ENDTAB
  0
TABLE
  2
DIMSTYLE
  5
4
330
0
100
AcDbSymbolTable
 70
1
100
AcDbDimStyleTable
  0
DIMSTYLE
105
2B
330
4
100
AcDbSymbolTableRecord
100
AcDbDimStyleTableRecord
  2
Standard
 70
0
 40
1.0
 41
2.5
 42
0.625
 43
3.75
 44
1.25
 45
0.0
 46
0.0
 47
0.0
 48
0.0
 49
2.5
140
2.5
141
2.5
142
0.0
143
0.03937007874
144
1.0
145
0.0
146
1.0
147
0.625
148
0.0
 69
0
 70
0
 71
0
 72
0
 73
0
 74
0
 75
0
 76
0
 77
1
 78
8
 79
3
170
0
171
3
172
1
173
0
174
0
175
0
176
0
177
0
178
0
179
2
271
2
272
2
273
2
274
3
275
0
276
0
277
2
278
44
279
0
280
0
281
0
282
0
283
0
284
8
285
0
286
0
288
0
289
3
290
0
371
-2
372
-2
  0
ENDTAB
  0
TABLE
  2
BLOCK_RECORD
  5
9
330
0
100
AcDbSymbolTable
 70
2
  0
BLOCK_RECORD
  5
17
330
9
100
AcDbSymbolTableRecord
100
AcDbBlockTableRecord
  2
*Model_Space
340
1A
 70
0
280
1
281
0
  0
BLOCK_RECORD
  5
1B
330
9
100
AcDbSymbolTableRecord
100
AcDbBlockTableRecord
  2
*Paper_Space
340
1E
 70
0
280
1
281
0
  0
ENDTAB
  0
ENDSEC
  0
SECTION
  2
BLOCKS
  0
BLOCK
  5
18
330
17
100
AcDbEntity
  8
0
100
AcDbBlockBegin
  2
*Model_Space
 70
0
 10
0.0
 20
0.0
 30
0.0
  3
*Model_Space
  1

  0
ENDBLK
  5
19
330
17
100
AcDbEntity
  8
0
100
AcDbBlockEnd
  0
BLOCK
  5
1C
330
1B
100
AcDbEntity
  8
0
100
AcDbBlockBegin
  2
*Paper_Space
 70
0
 10
0.0
 20
0.0
 30
0.0
  3
*Paper_Space
  1

  0
ENDBLK
  5
1D
330
1B
100
AcDbEntity
  8
0
100
AcDbBlockEnd
  0
ENDSEC
  0
SECTION
  2
ENTITIES
  0
LINE
  5
37
330
17
100
AcDbEntity
  8
Nível
 62
7
370
25
100
AcDbLine
 10
7628.452006538246
 20
3990.426618540593
 30
0.0
 11
8629.154504495637
 21
3990.426618540593
 31
0.0
  0
LINE
  5
38
330
17
100
AcDbEntity
  8
SARR_2.2x7
 62
7
370
25
100
AcDbLine
 10
7724.082224771926
 20
3992.426618540593
 30
0.0
 11
7724.082224771926
 21
3992.426618540621
 31
0.0
  0
LINE
  5
39
330
17
100
AcDbEntity
  8
SARR_2.2x7
 62
7
370
25
100
AcDbLine
 10
7886.082224771868
 20
3992.426618540608
 30
0.0
 11
7886.082224771868
 21
3992.426618540593
 31
0.0
  0
LINE
  5
3A
330
17
100
AcDbEntity
  8
COTA
 62
7
370
25
100
AcDbLine
 10
7893.082224774456
 20
4232.426618540606
 30
0.0
 11
7893.082224773642
 21
4296.426618540603
 31
0.0
  0
LINE
  5
3B
330
17
100
AcDbEntity
  8
COTA
 62
7
370
25
100
AcDbLine
 10
7893.082224773642
 20
4296.426618540603
 30
0.0
 11
7859.082224773644
 21
4296.426618540603
 31
0.0
  0
LINE
  5
3C
330
17
100
AcDbEntity
  8
COTA
 62
7
370
25
100
AcDbLine
 10
7746.082224774571
 20
4296.426618540603
 30
0.0
 11
7717.082224773644
 21
4296.426618540603
 31
0.0
  0
LINE
  5
3D
330
17
100
AcDbEntity
  8
COTA
 62
7
370
25
100
AcDbLine
 10
7717.082224772432
 20
4237.426618540604
 30
0.0
 11
7717.082224773644
 21
4296.426618540603
 31
0.0
  0
LINE
  5
3E
330
17
100
AcDbEntity
  8
Painéis
 62
7
370
25
100
AcDbLine
 10
7893.082224771927
 20
3990.426618540084
 30
0.0
 11
7893.082224771927
 21
4114.426618540593
 31
0.0
  0
LINE
  5
3F
330
17
100
AcDbEntity
  8
Painéis
 62
7
370
25
100
AcDbLine
 10
7893.082224772625
 20
4114.426618540632
 30
0.0
 11
7893.082224772625
 21
4211.426618540673
 31
0.0
  0
LINE
  5
40
330
17
100
AcDbEntity
  8
Painéis
 62
7
370
25
100
AcDbLine
 10
7717.082224771785
 20
4211.426618540635
 30
0.0
 11
7717.082224772628
 21
4114.426618540632
 31
0.0
  0
LINE
  5
41
330
17
100
AcDbEntity
  8
Painéis
 62
7
370
25
100
AcDbLine
 10
7717.082224771925
 20
4114.426618540596
 30
0.0
 11
7717.082224771923
 21
3990.426618540113
 31
0.0
  0
LINE
  5
42
330
17
100
AcDbEntity
  8
Painéis
 62
7
370
25
100
AcDbLine
 10
7717.082224771923
 20
3992.426618540593
 30
0.0
 11
7893.082224771927
 21
3992.426618540593
 31
0.0
  0
LINE
  5
43
330
17
100
AcDbEntity
  8
Painéis
 62
7
370
25
100
AcDbLine
 10
7893.082224772403
 20
4211.426618540673
 30
0.0
 11
7717.082224771785
 21
4211.426618540634
 31
0.0
  0
LINE
  5
44
330
17
100
AcDbEntity
  8
Painéis
 62
7
370
25
100
AcDbLine
 10
7717.082224772624
 20
4114.426618540632
 30
0.0
 11
7893.082224772567
 21
4114.426618540632
 31
0.0
  0
LINE
  5
45
330
17
100
AcDbEntity
  8
Painéis
 62
7
370
25
100
AcDbLine
 10
7893.082224771868
 20
4114.426618540593
 30
0.0
 11
7717.082224771925
 21
4114.426618540596
 31
0.0
  0
LINE
  5
46
330
17
100
AcDbEntity
  8
SARR_2.2x7
 62
7
370
25
100
AcDbLine
 10
8170.472402009538
 20
3992.426618540593
 30
0.0
 11
8170.472402009492
 21
4114.426618540596
 31
0.0
  0
LINE
  5
47
330
17
100
AcDbEntity
  8
SARR_2.2x7
 62
7
370
25
100
AcDbLine
 10
8031.472402009377
 20
3992.426618540593
 30
0.0
 11
8031.472402009377
 21
3992.426618540621
 31
0.0
  0
LINE
  5
48
330
17
100
AcDbEntity
  8
SARR_2.2x7
 62
7
370
25
100
AcDbLine
 10
8170.47240200932
 20
3992.426618540608
 30
0.0
 11
8170.47240200932
 21
3992.426618540593
 31
0.0
  0
LINE
  5
49
330
17
100
AcDbEntity
  8
COTA
 62
7
370
25
100
AcDbLine
 10
8177.472402010796
 20
4237.42661854068
 30
0.0
 11
8177.472402010046
 21
4296.426618540603
 31
0.0
  0
LINE
  5
4A
330
17
100
AcDbEntity
  8
COTA
 62
7
370
25
100
AcDbLine
 10
8177.472402010046
 20
4296.426618540603
 30
0.0
 11
8024.472402010045
 21
4296.426618540603
 31
0.0
  0
LINE
  5
4B
330
17
100
AcDbEntity
  8
COTA
 62
7
370
25
100
AcDbLine
 10
8024.472402010795
 20
4237.426618540642
 30
0.0
 11
8024.472402010045
 21
4296.426618540603
 31
0.0
  0
LINE
  5
4C
330
17
100
AcDbEntity
  8
Painéis
 62
7
370
25
100
AcDbLine
 10
8177.472402009378
 20
3990.426618540084
 30
0.0
 11
8177.472402009378
 21
4114.426618540593
 31
0.0
  0
LINE
  5
4D
330
17
100
AcDbEntity
  8
Painéis
 62
7
370
25
100
AcDbLine
 10
8177.472402010076
 20
4114.426618540632
 30
0.0
 11
8177.472402010076
 21
4211.426618540673
 31
0.0
  0
LINE
  5
4E
330
17
100
AcDbEntity
  8
Painéis
 62
7
370
25
100
AcDbLine
 10
8024.472402010081
 20
4211.426618540635
 30
0.0
 11
8024.472402010081
 21
4114.426618540632
 31
0.0
  0
LINE
  5
4F
330
17
100
AcDbEntity
  8
Painéis
 62
7
370
25
100
AcDbLine
 10
8024.472402009378
 20
4114.426618540596
 30
0.0
 11
8024.472402009374
 21
3990.426618540113
 31
0.0
  0
LINE
  5
50
330
17
100
AcDbEntity
  8
Painéis
 62
7
370
25
100
AcDbLine
 10
8024.472402009374
 20
3992.426618540593
 30
0.0
 11
8177.472402009378
 21
3992.426618540593
 31
0.0
  0
LINE
  5
51
330
17
100
AcDbEntity
  8
Painéis
 62
7
370
25
100
AcDbLine
 10
8177.472402009854
 20
4211.426618540673
 30
0.0
 11
8024.472402010076
 21
4211.426618540634
 31
0.0
  0
LINE
  5
52
330
17
100
AcDbEntity
  8
SARR_2.2x7
 62
7
370
25
100
AcDbLine
 10
8170.472402008753
 20
4114.426618540635
 30
0.0
 11
8170.472402008732
 21
4211.426618540632
 31
0.0
  0
LINE
  5
53
330
17
100
AcDbEntity
  8
Painéis
 62
7
370
25
100
AcDbLine
 10
8024.472402010076
 20
4114.426618540632
 30
0.0
 11
8177.472402010018
 21
4114.426618540632
 31
0.0
  0
LINE
  5
54
330
17
100
AcDbEntity
  8
Painéis
 62
7
370
25
100
AcDbLine
 10
8177.472402009319
 20
4114.426618540593
 30
0.0
 11
8024.472402009378
 21
4114.426618540596
 31
0.0
  0
LINE
  5
55
330
17
100
AcDbEntity
  8
SARR_2.2x7
 62
7
370
25
100
AcDbLine
 10
8352.254116843025
 20
4130.426618540592
 30
0.0
 11
8352.254116843096
 21
3992.426618540593
 31
0.0
  0
LINE
  5
56
330
17
100
AcDbEntity
  8
SARR_2.2x7
 62
7
370
25
100
AcDbLine
 10
8347.254116843122
 20
4130.426618540592
 30
0.0
 11
8347.25411684304
 21
3992.426618540593
 31
0.0
  0
LINE
  5
57
330
17
100
AcDbEntity
  8
Painéis
 62
7
370
25
100
AcDbLine
 10
8340.254116843067
 20
3992.426618540593
 30
0.0
 11
8359.254116843067
 21
3992.426618540593
 31
0.0
  0
LINE
  5
58
330
17
100
AcDbEntity
  8
Painéis
 62
7
370
25
100
AcDbLine
 10
8359.254116843067
 20
3992.426618540593
 30
0.0
 11
8359.254116843067
 21
4130.426618540592
 31
0.0
  0
LINE
  5
59
330
17
100
AcDbEntity
  8
Painéis
 62
7
370
25
100
AcDbLine
 10
8340.254116843067
 20
4130.426618540592
 30
0.0
 11
8340.254116843067
 21
3992.426618540593
 31
0.0
  0
LINE
  5
5A
330
17
100
AcDbEntity
  8
SARR_2.2x7
 62
7
370
25
100
AcDbLine
 10
8503.04722622662
 20
4130.426618540592
 30
0.0
 11
8503.047226226692
 21
3992.426618540593
 31
0.0
  0
LINE
  5
5B
330
17
100
AcDbEntity
  8
SARR_2.2x7
 62
7
370
25
100
AcDbLine
 10
8498.047226226716
 20
4130.426618540592
 30
0.0
 11
8498.047226226636
 21
3992.426618540593
 31
0.0
  0
LINE
  5
5C
330
17
100
AcDbEntity
  8
Painéis
 62
7
370
25
100
AcDbLine
 10
8491.047226226665
 20
3992.426618540593
 30
0.0
 11
8510.047226226665
 21
3992.426618540593
 31
0.0
  0
LINE
  5
5D
330
17
100
AcDbEntity
  8
Painéis
 62
7
370
25
100
AcDbLine
 10
8510.047226226665
 20
3992.426618540593
 30
0.0
 11
8510.047226226665
 21
4130.426618540592
 31
0.0
  0
LINE
  5
5E
330
17
100
AcDbEntity
  8
Painéis
 62
7
370
25
100
AcDbLine
 10
8491.047226226665
 20
4130.426618540592
 30
0.0
 11
8491.047226226665
 21
3992.426618540593
 31
0.0
  0
LINE
  5
5F
330
17
100
AcDbEntity
  8
Painéis
 62
7
370
25
100
AcDbLine
 10
7728.082224774855
 20
4242.426618542315
 30
0.0
 11
7746.082224774567
 21
4242.426618542315
 31
0.0
  0
LINE
  5
60
330
17
100
AcDbEntity
  8
Painéis
 62
7
370
25
100
AcDbLine
 10
7746.082224774567
 20
4242.426618540603
 30
0.0
 11
7746.082224774567
 21
4296.426618540603
 31
0.0
  0
LINE
  5
61
330
17
100
AcDbEntity
  8
Painéis
 62
7
370
25
100
AcDbLine
 10
7859.082224773644
 20
4296.426618540603
 30
0.0
 11
7859.082224773577
 21
4232.426618540602
 31
0.0
  0
LINE
  5
62
330
17
100
AcDbEntity
  8
SARR_2.2x7
 62
7
370
25
100
AcDbLine
 10
7893.082224772403
 20
4204.426618540672
 30
0.0
 11
7717.082224771842
 21
4204.426618540634
 31
0.0
  0
LINE
  5
63
330
17
100
AcDbEntity
  8
SARR_2.2x7
 62
7
370
25
100
AcDbLine
 10
7893.082224771868
 20
4107.426618540593
 30
0.0
 11
7717.082224771925
 21
4107.426618540595
 31
0.0
  0
LINE
  5
64
330
17
100
AcDbEntity
  8
SARR_2.2x7
 62
7
370
25
100
AcDbLine
 10
7753.082224774567
 20
4289.426618540596
 30
0.0
 11
7852.082224773636
 21
4289.426618540492
 31
0.0
  0
LINE
  5
65
330
17
100
AcDbEntity
  8
SARR_EDITAR
 62
7
370
25
100
AcDbLine
 10
7728.082224774249
 20
4239.926618540603
 30
0.0
 11
7753.082224773962
 21
4239.926618540603
 31
0.0
  0
LINE
  5
66
330
17
100
AcDbEntity
  8
SARR_2.2x7
 62
7
370
25
100
AcDbLine
 10
7753.082224774567
 20
4242.426618540603
 30
0.0
 11
7753.082224774567
 21
4296.426618540603
 31
0.0
  0
LINE
  5
67
330
17
100
AcDbEntity
  8
SARR_2.2x7
 62
7
370
25
100
AcDbLine
 10
7852.082224773643
 20
4296.426618540603
 30
0.0
 11
7852.082224773578
 21
4237.426618540603
 31
0.0
  0
LINE
  5
68
330
17
100
AcDbEntity
  8
SARR_2.2x7
 62
7
370
25
100
AcDbLine
 10
7746.082224774567
 20
4242.426618540603
 30
0.0
 11
7753.082224774567
 21
4242.426618540603
 31
0.0
  0
LINE
  5
69
330
17
100
AcDbEntity
  8
SARR_EDITAR
 62
7
370
25
100
AcDbLine
 10
7753.082224774567
 20
4242.426618540603
 30
0.0
 11
7753.082224773355
 21
4237.426618572802
 31
0.0
  0
LINE
  5
6A
330
17
100
AcDbEntity
  8
SARR_2.2x7
 62
7
370
25
100
AcDbLine
 10
8177.472402009854
 20
4204.426618540672
 30
0.0
 11
8024.472402010076
 21
4204.426618540634
 31
0.0
  0
LINE
  5
6B
330
17
100
AcDbEntity
  8
SARR_2.2x7
 62
7
370
25
100
AcDbLine
 10
8177.472402009319
 20
4107.426618540593
 30
0.0
 11
8024.472402009378
 21
4107.426618540595
 31
0.0
  0
LINE
  5
6C
330
17
100
AcDbEntity
  8
Painéis
 62
7
370
25
100
AcDbLine
 10
7728.082224773643
 20
4237.426618542314
 30
0.0
 11
7728.082224774855
 21
4242.426618542315
 31
0.0
  0
LINE
  5
6D
330
17
100
AcDbEntity
  8
SARR_2.2x7
 62
7
370
25
100
AcDbLine
 10
7724.082224771926
 20
4114.426618540596
 30
0.0
 11
7724.082224771922
 21
3990.426618540113
 31
0.0
  0
LINE
  5
6E
330
17
100
AcDbEntity
  8
Painéis
 62
7
370
25
100
AcDbLine
 10
7859.082224773644
 20
4296.426618540485
 30
0.0
 11
7746.082224774571
 21
4296.426618540603
 31
0.0
  0
LINE
  5
6F
330
17
100
AcDbEntity
  8
SARR_2.2x7
 62
7
370
25
100
AcDbLine
 10
7724.082224771926
 20
4114.426618540596
 30
0.0
 11
7724.082224771926
 21
4211.426618540635
 31
0.0
  0
LINE
  5
70
330
17
100
AcDbEntity
  8
Painéis
 62
7
370
25
100
AcDbLine
 10
8510.047226226665
 20
4130.426618540589
 30
0.0
 11
8491.047226226665
 21
4130.426618540589
 31
0.0
  0
LINE
  5
71
330
17
100
AcDbEntity
  8
Painéis
 62
7
370
25
100
AcDbLine
 10
8359.254116843067
 20
4130.426618540592
 30
0.0
 11
8340.254116843067
 21
4130.426618540592
 31
0.0
  0
LINE
  5
72
330
17
100
AcDbEntity
  8
Painéis
 62
7
370
25
100
AcDbLine
 10
8340.254116843067
 20
4130.426618540592
 30
0.0
 11
8340.254116843067
 21
4211.426618540586
 31
0.0
  0
LINE
  5
73
330
17
100
AcDbEntity
  8
SARR_2.2x7
 62
7
370
25
100
AcDbLine
 10
8347.254116843122
 20
4130.426618540592
 30
0.0
 11
8347.254116843122
 21
4211.426618540673
 31
0.0
  0
LINE
  5
74
330
17
100
AcDbEntity
  8
SARR_2.2x7
 62
7
370
25
100
AcDbLine
 10
8352.254116843025
 20
4130.426618540599
 30
0.0
 11
8352.254116843025
 21
4211.426618540673
 31
0.0
  0
LINE
  5
75
330
17
100
AcDbEntity
  8
Painéis
 62
7
370
25
100
AcDbLine
 10
8359.254116843067
 20
4130.426618540592
 30
0.0
 11
8359.254116843067
 21
4211.426618540586
 31
0.0
  0
LINE
  5
76
330
17
100
AcDbEntity
  8
Painéis
 62
7
370
25
100
AcDbLine
 10
8340.254116843073
 20
4211.426618540673
 30
0.0
 11
8359.254116843067
 21
4211.426618540673
 31
0.0
  0
LINE
  5
77
330
17
100
AcDbEntity
  8
Painéis
 62
7
370
25
100
AcDbLine
 10
8491.047226226665
 20
4130.426618540592
 30
0.0
 11
8491.047226226665
 21
4211.426618540586
 31
0.0
  0
LINE
  5
78
330
17
100
AcDbEntity
  8
SARR_2.2x7
 62
7
370
25
100
AcDbLine
 10
8498.047226226716
 20
4130.426618540592
 30
0.0
 11
8498.047226226716
 21
4211.426618540673
 31
0.0
  0
LINE
  5
79
330
17
100
AcDbEntity
  8
SARR_2.2x7
 62
7
370
25
100
AcDbLine
 10
8503.04722622662
 20
4130.426618540599
 30
0.0
 11
8503.04722622662
 21
4211.426618540673
 31
0.0
  0
LINE
  5
7A
330
17
100
AcDbEntity
  8
Painéis
 62
7
370
25
100
AcDbLine
 10
8510.047226226665
 20
4130.426618540592
 30
0.0
 11
8510.047226226665
 21
4211.426618540586
 31
0.0
  0
LINE
  5
7B
330
17
100
AcDbEntity
  8
Painéis
 62
7
370
25
100
AcDbLine
 10
8491.047226226667
 20
4211.426618540673
 30
0.0
 11
8510.047226226665
 21
4211.426618540673
 31
0.0
  0
LINE
  5
7C
330
17
100
AcDbEntity
  8
Nível
 62
7
370
25
100
AcDbLine
 10
7636.320379576462
 20
4296.426618540603
 30
0.0
 11
8629.154504495637
 21
4296.426618540601
 31
0.0
  0
LINE
  5
7D
330
17
100
AcDbEntity
  8
Painéis
 62
7
370
25
100
AcDbLine
 10
7859.082224773583
 20
4237.426618540664
 30
0.0
 11
7717.082224771785
 21
4237.426618540633
 31
0.0
  0
LINE
  5
7E
330
17
100
AcDbEntity
  8
Painéis
 62
7
370
25
100
AcDbLine
 10
7893.082224772642
 20
4211.426618540914
 30
0.0
 11
7893.082224772641
 21
4232.426618540605
 31
0.0
  0
LINE
  5
7F
330
17
100
AcDbEntity
  8
SARR_2.2x7
 62
7
370
25
100
AcDbLine
 10
7893.08222477283
 20
4230.426618540694
 30
0.0
 11
7717.082224771544
 21
4230.42661854065
 31
0.0
  0
LINE
  5
80
330
17
100
AcDbEntity
  8
SARR_2.2x7
 62
7
370
25
100
AcDbLine
 10
8170.472402010064
 20
4211.42661854116
 30
0.0
 11
8170.472402010064
 21
4237.426618541159
 31
0.0
  0
LINE
  5
81
330
17
100
AcDbEntity
  8
Painéis
 62
7
370
25
100
AcDbLine
 10
8177.472402010316
 20
4211.426618540914
 30
0.0
 11
8177.472402010314
 21
4237.426618540899
 31
0.0
  0
LINE
  5
82
330
17
100
AcDbEntity
  8
Painéis
 62
7
370
25
100
AcDbLine
 10
8177.472402010515
 20
4237.426618540695
 30
0.0
 11
8024.472402010736
 21
4237.426618540657
 31
0.0
  0
LINE
  5
83
330
17
100
AcDbEntity
  8
SARR_2.2x7
 62
7
370
25
100
AcDbLine
 10
8177.472402010504
 20
4230.426618540695
 30
0.0
 11
8024.472402010726
 21
4230.426618540657
 31
0.0
  0
LINE
  5
84
330
17
100
AcDbEntity
  8
SARR_2.2x7
 62
7
370
25
100
AcDbLine
 10
7724.082224771797
 20
4211.426618541159
 30
0.0
 11
7724.082224771797
 21
4237.426618541157
 31
0.0
  0
LINE
  5
85
330
17
100
AcDbEntity
  8
Painéis
 62
7
370
25
100
AcDbLine
 10
7717.082224771544
 20
4211.426618540914
 30
0.0
 11
7717.082224771546
 21
4237.426618540897
 31
0.0
  0
LINE
  5
86
330
17
100
AcDbEntity
  8
Painéis
 62
7
370
25
100
AcDbLine
 10
8024.472402009614
 20
4211.426618540914
 30
0.0
 11
8024.472402009617
 21
4237.426618540899
 31
0.0
  0
LINE
  5
87
330
17
100
AcDbEntity
  8
Painéis
 62
7
370
25
100
AcDbLine
 10
8340.25411684307
 20
4237.426618540666
 30
0.0
 11
8359.254116843065
 21
4237.426618540656
 31
0.0
  0
LINE
  5
88
330
17
100
AcDbEntity
  8
SARR_2.2x7
 62
7
370
25
100
AcDbLine
 10
8347.2541168431
 20
4211.426618540665
 30
0.0
 11
8347.254116843123
 21
4237.426618540663
 31
0.0
  0
LINE
  5
89
330
17
100
AcDbEntity
  8
SARR_2.2x7
 62
7
370
25
100
AcDbLine
 10
8352.16629592272
 20
4211.426618540661
 30
0.0
 11
8352.166295922745
 21
4237.426618540659
 31
0.0
  0
LINE
  5
8A
330
17
100
AcDbEntity
  8
Painéis
 62
7
370
25
100
AcDbLine
 10
8359.254116843067
 20
4211.426618540673
 30
0.0
 11
8359.254116843065
 21
4237.426618540656
 31
0.0
  0
LINE
  5
8B
330
17
100
AcDbEntity
  8
Painéis
 62
7
370
25
100
AcDbLine
 10
8340.254116843073
 20
4211.426618540673
 30
0.0
 11
8340.25411684307
 21
4237.426618540656
 31
0.0
  0
LINE
  5
8C
330
17
100
AcDbEntity
  8
Painéis
 62
7
370
25
100
AcDbLine
 10
8491.047226226665
 20
4237.426618540666
 30
0.0
 11
8510.047226226661
 21
4237.426618540656
 31
0.0
  0
LINE
  5
8D
330
17
100
AcDbEntity
  8
SARR_2.2x7
 62
7
370
25
100
AcDbLine
 10
8498.047226226692
 20
4211.426618540665
 30
0.0
 11
8498.04722622672
 21
4237.426618540663
 31
0.0
  0
LINE
  5
8E
330
17
100
AcDbEntity
  8
SARR_2.2x7
 62
7
370
25
100
AcDbLine
 10
8502.959405306314
 20
4211.426618540661
 30
0.0
 11
8502.95940530634
 21
4237.426618540659
 31
0.0
  0
LINE
  5
8F
330
17
100
AcDbEntity
  8
Painéis
 62
7
370
25
100
AcDbLine
 10
8510.047226226665
 20
4211.426618540673
 30
0.0
 11
8510.047226226661
 21
4237.426618540656
 31
0.0
  0
LINE
  5
90
330
17
100
AcDbEntity
  8
Painéis
 62
7
370
25
100
AcDbLine
 10
8491.047226226667
 20
4211.426618540673
 30
0.0
 11
8491.047226226665
 21
4237.426618540656
 31
0.0
  0
LINE
  5
91
330
17
100
AcDbEntity
  8
Painéis
 62
7
370
25
100
AcDbLine
 10
7859.082224773577
 20
4232.426618540602
 30
0.0
 11
7893.082224772641
 21
4232.426618540606
 31
0.0
  0
LWPOLYLINE
  5
92
330
17
100
AcDbEntity
  8
Painéis
 62
7
370
25
100
AcDbPolyline
 90
4
 70
1
 10
7893.082224771927
 20
3992.426618540593
 10
7717.082224771925
 20
3992.426618540623
 10
7717.082224771925
 20
3990.426618540622
 10
7893.082224771927
 20
3990.426618540593
  0
LWPOLYLINE
  5
93
330
17
100
AcDbEntity
  8
Painéis
 62
7
370
25
100
AcDbPolyline
 90
4
 70
1
 10
8177.472402009378
 20
3992.426618540593
 10
8024.472402009378
 20
3992.426618540623
 10
8024.472402009378
 20
3990.426618540622
 10
8177.472402009378
 20
3990.426618540593
  0
LWPOLYLINE
  5
94
330
17
100
AcDbEntity
  8
COTA
 62
7
370
25
100
AcDbPolyline
 90
4
 70
0
 10
8359.254116843067
 20
4237.426618540641
 10
8359.254116843067
 20
4296.426618540643
 10
8340.254116843067
 20
4296.426618540643
 10
8340.254116843067
 20
4237.426618540641
  0
LWPOLYLINE
  5
95
330
17
100
AcDbEntity
  8
Painéis
 62
7
370
25
100
AcDbPolyline
 90
4
 70
1
 10
8340.254116843067
 20
3992.426618540593
 10
8359.254116843067
 20
3992.426618540593
 10
8359.254116843067
 20
3990.426618540593
 10
8340.254116843067
 20
3990.426618540593
  0
LWPOLYLINE
  5
96
330
17
100
AcDbEntity
  8
COTA
 62
7
370
25
100
AcDbPolyline
 90
4
 70
0
 10
8510.047226226665
 20
4237.426618540641
 10
8510.047226226665
 20
4296.426618540643
 10
8491.047226226665
 20
4296.426618540643
 10
8491.047226226665
 20
4237.426618540641
  0
LWPOLYLINE
  5
97
330
17
100
AcDbEntity
  8
Painéis
 62
7
370
25
100
AcDbPolyline
 90
4
 70
1
 10
8491.047226226665
 20
3992.426618540593
 10
8510.047226226665
 20
3992.426618540593
 10
8510.047226226665
 20
3990.426618540593
 10
8491.047226226665
 20
3990.426618540593
  0
TEXT
  5
98
330
17
100
AcDbEntity
  8
Texto Seção
 62
7
370
25
100
AcDbText
 10
7708.138033160846
 20
4007.255214166768
 30
0.0
 40
13.0
  1
P27.A
100
AcDbText
  0
TEXT
  5
99
330
17
100
AcDbEntity
  8
Texto Seção
 62
7
370
25
100
AcDbText
 10
8014.995443570509
 20
4007.255214166768
 30
0.0
 40
13.0
  1
P27.B
100
AcDbText
  0
TEXT
  5
9A
330
17
100
AcDbEntity
  8
Texto Seção
 62
7
370
25
100
AcDbText
 10
8332.103015472843
 20
4007.327797071337
 30
0.0
 40
13.0
  1
P27.C
100
AcDbText
  0
TEXT
  5
9B
330
17
100
AcDbEntity
  8
Texto Seção
 62
7
370
25
100
AcDbText
 10
8484.022951743267
 20
4001.716192118808
 30
0.0
 40
13.0
  1
P27.D
100
AcDbText
  0
TEXT
  5
9C
330
17
100
AcDbEntity
  8
NOMENCLATURA
 62
7
370
25
100
AcDbText
 10
7953.606761047828
 20
4031.877759795643
 30
0.0
 40
16.0
  1
5 sar
100
AcDbText
  0
TEXT
  5
9D
330
17
100
AcDbEntity
  8
NOMENCLATURA
 62
7
370
25
100
AcDbText
 10
7954.79325736357
 20
4140.26593663307
 30
0.0
 40
16.0
  1
4 sar
100
AcDbText
  0
TEXT
  5
9E
330
17
100
AcDbEntity
  8
NOMENCLATURA
 62
7
370
25
100
AcDbText
 10
8243.793922151053
 20
4031.877759795643
 30
0.0
 40
16.0
  1
5 sar
100
AcDbText
  0
TEXT
  5
9F
330
17
100
AcDbEntity
  8
NOMENCLATURA
 62
7
370
25
100
AcDbText
 10
7954.79325736357
 20
4252.30192126613
 30
0.0
 40
16.0
  1
3 sar
100
AcDbText
  0
TEXT
  5
A0
330
17
100
AcDbEntity
  8
NOMENCLATURA
 62
7
370
25
100
AcDbText
 10
8243.793922151053
 20
4146.475827424271
 30
0.0
 40
16.0
  1
5 sar
100
AcDbText
  0
TEXT
  5
A1
330
17
100
AcDbEntity
  8
NOMENCLATURA
 62
7
370
25
100
AcDbText
 10
7954.34396887892
 20
4196.018536545055
 30
0.0
 40
16.0
  1
2 sar
100
AcDbText
  0
TEXT
  5
A2
330
17
100
AcDbEntity
  8
NOMENCLATURA
 62
7
370
25
100
AcDbText
 10
8244.186101764488
 20
4212.008528008712
 30
0.0
 40
16.0
  1
2 sar
100
AcDbText
  0
TEXT
  5
A3
330
17
100
AcDbEntity
  8
NOMENCLATURA
 62
7
370
25
100
AcDbText
 10
8437.650061513275
 20
4630.937305323099
 30
0.0
 40
16.0
  1
14° PAVIMENTO - PD: 3.06\PNIVEL DE SAÍDA: 852.19\PNIVEL DE CHEGADA: 855.25
100
AcDbText
  0
HATCH
  5
A4
330
17
100
AcDbEntity
  8
COTA
 62
7
100
AcDbHatch
 10
0.0
 20
0.0
 30
0.0
210
0.0
220
0.0
230
1.0
  2
SOLID
 70
1
 71
0
 91
1
 92
3
 72
0
 73
1
 93
12
 10
7717.082224773901
 20
4237.426618541003
 10
7728.082224774249
 20
4237.426618540095
 10
7728.082224774249
 20
4237.426618540095
 10
7728.082224774249
 20
4242.426618539695
 10
7728.082224774249
 20
4242.426618539695
 10
7746.082224774567
 20
4242.426618540603
 10
7746.082224774567
 20
4242.426618540603
 10
7746.082224774567
 20
4296.426618540603
 10
7746.082224774567
 20
4296.426618540603
 10
7717.082224773618
 20
4296.426618540603
 10
7717.082224773618
 20
4296.426618540603
 10
7717.082224773901
 20
4237.426618541003
 97
0
 75
1
 76
1
 98
0
  0
HATCH
  5
A5
330
17
100
AcDbEntity
  8
COTA
 62
7
100
AcDbHatch
 10
0.0
 20
0.0
 30
0.0
210
0.0
220
0.0
230
1.0
  2
SOLID
 70
1
 71
0
 91
1
 92
3
 72
0
 73
1
 93
8
 10
7893.08222477396
 20
4232.426618540609
 10
7893.08222477396
 20
4296.426618540603
 10
7893.08222477396
 20
4296.426618540603
 10
7859.082224773619
 20
4296.426618540603
 10
7859.082224773619
 20
4296.426618540603
 10
7859.082224774454
 20
4232.426618540602
 10
7859.082224774454
 20
4232.426618540602
 10
7893.08222477396
 20
4232.426618540609
 97
0
 75
1
 76
1
 98
0
  0
HATCH
  5
A6
330
17
100
AcDbEntity
  8
COTA
 62
7
100
AcDbHatch
 10
0.0
 20
0.0
 30
0.0
210
0.0
220
0.0
230
1.0
  2
SOLID
 70
1
 71
0
 91
1
 92
3
 72
0
 73
1
 93
8
 10
8177.472402010796
 20
4237.426618540679
 10
8177.472402010046
 20
4296.426618540601
 10
8177.472402010046
 20
4296.426618540601
 10
8024.472402010021
 20
4296.426618540601
 10
8024.472402010021
 20
4296.426618540601
 10
8024.472402010857
 20
4237.426618540646
 10
8024.472402010857
 20
4237.426618540646
 10
8177.472402010796
 20
4237.426618540679
 97
0
 75
1
 76
1
 98
0
  0
HATCH
  5
A7
330
17
100
AcDbEntity
  8
COTA
 62
7
100
AcDbHatch
 10
0.0
 20
0.0
 30
0.0
210
0.0
220
0.0
230
1.0
  2
SOLID
 70
1
 71
0
 91
1
 92
3
 72
0
 73
1
 93
8
 10
8359.254116843067
 20
4296.426618540643
 10
8340.254116843067
 20
4296.426618540643
 10
8340.254116843067
 20
4296.426618540643
 10
8340.25411684307
 20
4237.426618540661
 10
8340.25411684307
 20
4237.426618540661
 10
8359.254116843073
 20
4237.426618540661
 10
8359.254116843073
 20
4237.426618540661
 10
8359.254116843067
 20
4296.426618540643
 97
0
 75
1
 76
1
 98
0
  0
HATCH
  5
A8
330
17
100
AcDbEntity
  8
COTA
 62
7
100
AcDbHatch
 10
0.0
 20
0.0
 30
0.0
210
0.0
220
0.0
230
1.0
  2
SOLID
 70
1
 71
0
 91
1
 92
3
 72
0
 73
1
 93
8
 10
8510.047226226665
 20
4296.426618540643
 10
8491.047226226667
 20
4296.426618540643
 10
8491.047226226665
 20
4296.426618540643
 10
8491.047226226667
 20
4237.426618540641
 10
8491.047226226667
 20
4237.426618540641
 10
8510.047226226665
 20
4237.426618540641
 10
8510.047226226665
 20
4237.426618540641
 10
8510.047226226665
 20
4296.426618540643
 97
0
 75
1
 76
1
 98
0
  0
HATCH
  5
A9
330
17
100
AcDbEntity
  8
Hachura
 62
7
100
AcDbHatch
 10
0.0
 20
0.0
 30
0.0
210
0.0
220
0.0
230
1.0
  2
SOLID
 70
1
 71
0
 91
1
 92
3
 72
0
 73
1
 93
8
 10
7893.082224772057
 20
4237.426618540585
 10
7717.082224771364
 20
4237.426618540585
 10
7717.082224771364
 20
4237.426618540585
 10
7717.082224771242
 20
3990.426618540649
 10
7717.082224771242
 20
3990.426618540649
 10
7893.082224771927
 20
3990.426618540426
 10
7893.082224771927
 20
3990.426618540426
 10
7893.082224772057
 20
4237.426618540585
 97
0
 75
1
 76
1
 98
0
  0
HATCH
  5
AA
330
17
100
AcDbEntity
  8
Hachura
 62
7
100
AcDbHatch
 10
0.0
 20
0.0
 30
0.0
210
0.0
220
0.0
230
1.0
  2
SOLID
 70
1
 71
0
 91
1
 92
3
 72
0
 73
1
 93
8
 10
8177.472402009374
 20
4237.426618540585
 10
8024.472402008683
 20
4237.426618540585
 10
8024.472402008683
 20
4237.426618540585
 10
8024.472402008695
 20
3990.426618540649
 10
8024.472402008695
 20
3990.426618540649
 10
8177.472402009385
 20
3990.426618540346
 10
8177.472402009385
 20
3990.426618540346
 10
8177.472402009374
 20
4237.426618540585
 97
0
 75
1
 76
1
 98
0
  0
HATCH
  5
AB
330
17
100
AcDbEntity
  8
Hachura
 62
7
100
AcDbHatch
 10
0.0
 20
0.0
 30
0.0
210
0.0
220
0.0
230
1.0
  2
SOLID
 70
1
 71
0
 91
1
 92
3
 72
0
 73
1
 93
12
 10
7746.082224774567
 20
4296.426617897996
 10
7746.082224774567
 20
4242.426618540603
 10
7746.082224774567
 20
4242.426618540603
 10
7728.082224773753
 20
4242.426618540603
 10
7728.082224773753
 20
4242.426618540603
 10
7728.082224773813
 20
4237.426617897996
 10
7728.082224773814
 20
4237.426617897996
 10
7859.082224773967
 20
4237.426617898053
 10
7859.082224773967
 20
4237.426617898053
 10
7859.082224773257
 20
4296.426617898053
 10
7859.082224773256
 20
4296.426617898053
 10
7746.082224774567
 20
4296.426617897996
 97
0
 75
1
 76
1
 98
0
  0
HATCH
  5
AC
330
17
100
AcDbEntity
  8
Hachura
 62
7
100
AcDbHatch
 10
0.0
 20
0.0
 30
0.0
210
0.0
220
0.0
230
1.0
  2
SOLID
 70
1
 71
0
 91
1
 92
3
 72
0
 73
1
 93
8
 10
8359.254116843224
 20
4237.426618540585
 10
8340.25411684282
 20
4237.426618540585
 10
8340.25411684282
 20
4237.426618540585
 10
8340.254116842865
 20
3992.426618540573
 10
8340.254116842865
 20
3992.426618540573
 10
8359.254116843273
 20
3992.426618540613
 10
8359.254116843273
 20
3992.426618540613
 10
8359.254116843224
 20
4237.426618540585
 97
0
 75
1
 76
1
 98
0
  0
HATCH
  5
AD
330
17
100
AcDbEntity
  8
Hachura
 62
7
100
AcDbHatch
 10
0.0
 20
0.0
 30
0.0
210
0.0
220
0.0
230
1.0
  2
SOLID
 70
1
 71
0
 91
1
 92
3
 72
0
 73
1
 93
8
 10
8510.04722622682
 20
4237.426618540585
 10
8491.04722622641
 20
4237.426618540585
 10
8491.04722622641
 20
4237.426618540585
 10
8491.04722622646
 20
3992.426618540573
 10
8491.04722622646
 20
3992.426618540573
 10
8510.047226226867
 20
3992.426618540613
 10
8510.047226226867
 20
3992.426618540613
 10
8510.04722622682
 20
4237.426618540585
 97
0
 75
1
 76
1
 98
0
  0
ENDSEC
  0
SECTION
  2
OBJECTS
  0
DICTIONARY
  5
A
330
0
100
AcDbDictionary
281
1
  3
ACAD_COLOR
350
B
  3
ACAD_GROUP
350
C
  3
ACAD_LAYOUT
350
D
  3
ACAD_MATERIAL
350
E
  3
ACAD_MLEADERSTYLE
350
F
  3
ACAD_MLINESTYLE
350
10
  3
ACAD_PLOTSETTINGS
350
11
  3
ACAD_PLOTSTYLENAME
350
12
  3
ACAD_SCALELIST
350
14
  3
ACAD_TABLESTYLE
350
15
  3
ACAD_VISUALSTYLE
350
16
  3
EZDXF_META
350
2D
  0
DICTIONARY
  5
B
330
A
100
AcDbDictionary
281
1
  0
DICTIONARY
  5
C
330
A
100
AcDbDictionary
281
1
  0
DICTIONARY
  5
D
330
A
100
AcDbDictionary
281
1
  3
Model
350
1A
  3
Layout1
350
1E
  0
DICTIONARY
  5
E
330
A
100
AcDbDictionary
281
1
  3
ByBlock
350
1F
  3
ByLayer
350
20
  3
Global
350
21
  0
DICTIONARY
  5
F
330
A
100
AcDbDictionary
281
1
  3
Standard
350
2C
  0
DICTIONARY
  5
10
330
A
100
AcDbDictionary
281
1
  3
Standard
350
22
  0
DICTIONARY
  5
11
330
A
100
AcDbDictionary
281
1
  0
ACDBDICTIONARYWDFLT
  5
12
330
A
100
AcDbDictionary
281
1
  3
Normal
350
13
100
AcDbDictionaryWithDefault
340
13
  0
ACDBPLACEHOLDER
  5
13
330
12
  0
DICTIONARY
  5
14
330
A
100
AcDbDictionary
281
1
  0
DICTIONARY
  5
15
330
A
100
AcDbDictionary
281
1
  0
DICTIONARY
  5
16
330
A
100
AcDbDictionary
281
1
  0
LAYOUT
  5
1A
330
D
100
AcDbPlotSettings
  1

  4
A3
  6

 40
7.5
 41
20.0
 42
7.5
 43
20.0
 44
420.0
 45
297.0
 46
0.0
 47
0.0
 48
0.0
 49
0.0
140
0.0
141
0.0
142
1.0
143
1.0
 70
1024
 72
1
 73
0
 74
5
  7

 75
16
 76
0
 77
2
 78
300
147
1.0
148
0.0
149
0.0
100
AcDbLayout
  1
Model
 70
1
 71
0
 10
0.0
 20
0.0
 11
420.0
 21
297.0
 12
0.0
 22
0.0
 32
0.0
 14
1e+20
 24
1e+20
 34
1e+20
 15
-1e+20
 25
-1e+20
 35
-1e+20
146
0.0
 13
0.0
 23
0.0
 33
0.0
 16
1.0
 26
0.0
 36
0.0
 17
0.0
 27
1.0
 37
0.0
 76
1
330
17
  0
LAYOUT
  5
1E
330
D
100
AcDbPlotSettings
  1

  4
A3
  6

 40
7.5
 41
20.0
 42
7.5
 43
20.0
 44
420.0
 45
297.0
 46
0.0
 47
0.0
 48
0.0
 49
0.0
140
0.0
141
0.0
142
1.0
143
1.0
 70
0
 72
1
 73
0
 74
5
  7

 75
16
 76
0
 77
2
 78
300
147
1.0
148
0.0
149
0.0
100
AcDbLayout
  1
Layout1
 70
1
 71
1
 10
0.0
 20
0.0
 11
420.0
 21
297.0
 12
0.0
 22
0.0
 32
0.0
 14
1e+20
 24
1e+20
 34
1e+20
 15
-1e+20
 25
-1e+20
 35
-1e+20
146
0.0
 13
0.0
 23
0.0
 33
0.0
 16
1.0
 26
0.0
 36
0.0
 17
0.0
 27
1.0
 37
0.0
 76
1
330
1B
  0
MATERIAL
  5
1F
102
{ACAD_REACTORS
330
E
102
}
330
E
100
AcDbMaterial
  1
ByBlock
  2

 70
0
 40
1.0
 71
1
 41
1.0
 91
-1023410177
 42
1.0
 72
1
  3

 73
1
 74
1
 75
1
 44
0.5
 73
0
 45
1.0
 46
1.0
 77
1
  4

 78
1
 79
1
170
1
 48
1.0
171
1
  6

172
1
173
1
174
1
140
1.0
141
1.0
175
1
  7

176
1
177
1
178
1
143
1.0
179
1
  8

270
1
271
1
272
1
145
1.0
146
1.0
273
1
  9

274
1
275
1
276
1
 42
1.0
 72
1
  3

 73
1
 74
1
 75
1
 94
63
  0
MATERIAL
  5
20
102
{ACAD_REACTORS
330
E
102
}
330
E
100
AcDbMaterial
  1
ByLayer
  2

 70
0
 40
1.0
 71
1
 41
1.0
 91
-1023410177
 42
1.0
 72
1
  3

 73
1
 74
1
 75
1
 44
0.5
 73
0
 45
1.0
 46
1.0
 77
1
  4

 78
1
 79
1
170
1
 48
1.0
171
1
  6

172
1
173
1
174
1
140
1.0
141
1.0
175
1
  7

176
1
177
1
178
1
143
1.0
179
1
  8

270
1
271
1
272
1
145
1.0
146
1.0
273
1
  9

274
1
275
1
276
1
 42
1.0
 72
1
  3

 73
1
 74
1
 75
1
 94
63
  0
MATERIAL
  5
21
102
{ACAD_REACTORS
330
E
102
}
330
E
100
AcDbMaterial
  1
Global
  2

 70
0
 40
1.0
 71
1
 41
1.0
 91
-1023410177
 42
1.0
 72
1
  3

 73
1
 74
1
 75
1
 44
0.5
 73
0
 45
1.0
 46
1.0
 77
1
  4

 78
1
 79
1
170
1
 48
1.0
171
1
  6

172
1
173
1
174
1
140
1.0
141
1.0
175
1
  7

176
1
177
1
178
1
143
1.0
179
1
  8

270
1
271
1
272
1
145
1.0
146
1.0
273
1
  9

274
1
275
1
276
1
 42
1.0
 72
1
  3

 73
1
 74
1
 75
1
 94
63
  0
MLINESTYLE
  5
22
102
{ACAD_REACTORS
330
10
102
}
330
10
100
AcDbMlineStyle
  2
Standard
 70
0
  3

 62
256
 51
90.0
 52
90.0
 71
2
 49
0.5
 62
256
  6
BYLAYER
 49
-0.5
 62
256
  6
BYLAYER
  0
MLEADERSTYLE
  5
2C
102
{ACAD_REACTORS
330
F
102
}
330
F
100
AcDbMLeaderStyle
179
2
170
2
171
1
172
0
 90
2
 40
0.0
 41
0.0
173
1
 91
-1056964608
 92
-2
290
1
 42
2.0
291
1
 43
8.0
  3
Standard
 44
4.0
300

342
29
174
1
175
1
176
0
178
1
 93
-1056964608
 45
4.0
292
0
297
0
 46
4.0
 94
-1056964608
 47
1.0
 49
1.0
140
1.0
294
1
141
0.0
177
0
142
1.0
295
0
296
0
143
3.75
271
0
272
9
273
9
  0
DICTIONARY
  5
2D
330
A
100
AcDbDictionary
280
1
281
1
  3
CREATED_BY_EZDXF
350
2E
  3
WRITTEN_BY_EZDXF
350
B0
  0
DICTIONARYVAR
  5
2E
330
2D
100
DictionaryVariables
280
0
  1
1.4.3 @ 2026-06-10T16:53:41.915430+00:00
  0
DICTIONARYVAR
  5
B0
330
2D
100
DictionaryVariables
280
0
  1
1.4.3 @ 2026-06-10T16:53:41.920108+00:00
  0
ENDSEC
  0
EOF
