  0
SECTION
  2
HEADER
  9
$ACADVER
  1
AC1024
  9
$ACADMAINTVER
 70
6
  9
$DWGCODEPAGE
  3
ANSI_1252
  9
$LASTSAVEDBY
  1
ezdxf
  9
$INSBASE
 10
0.0
 20
0.0
 30
0.0
  9
$EXTMIN
 10
1e+20
 20
1e+20
 30
1e+20
  9
$EXTMAX
 10
-1e+20
 20
-1e+20
 30
-1e+20
  9
$LIMMIN
 10
0.0
 20
0.0
  9
$LIMMAX
 10
420.0
 20
297.0
  9
$ORTHOMODE
 70
0
  9
$REGENMODE
 70
1
  9
$FILLMODE
 70
1
  9
$QTEXTMODE
 70
0
  9
$MIRRTEXT
 70
1
  9
$LTSCALE
 40
1.0
  9
$ATTMODE
 70
1
  9
$TEXTSIZE
 40
2.5
  9
$TRACEWID
 40
1.0
  9
$TEXTSTYLE
  7
Standard
  9
$CLAYER
  8
0
  9
$CELTYPE
  6
ByLayer
  9
$CECOLOR
 62
256
  9
$CELTSCALE
 40
1.0
  9
$DISPSILH
 70
0
  9
$DIMSCALE
 40
1.0
  9
$DIMASZ
 40
2.5
  9
$DIMEXO
 40
0.625
  9
$DIMDLI
 40
3.75
  9
$DIMRND
 40
0.0
  9
$DIMDLE
 40
0.0
  9
$DIMEXE
 40
1.25
  9
$DIMTP
 40
0.0
  9
$DIMTM
 40
0.0
  9
$DIMTXT
 40
2.5
  9
$DIMCEN
 40
2.5
  9
$DIMTSZ
 40
0.0
  9
$DIMTOL
 70
0
  9
$DIMLIM
 70
0
  9
$DIMTIH
 70
0
  9
$DIMTOH
 70
0
  9
$DIMSE1
 70
0
  9
$DIMSE2
 70
0
  9
$DIMTAD
 70
1
  9
$DIMZIN
 70
8
  9
$DIMBLK
  1

  9
$DIMASO
 70
1
  9
$DIMSHO
 70
1
  9
$DIMPOST
  1

  9
$DIMAPOST
  1

  9
$DIMALT
 70
0
  9
$DIMALTD
 70
3
  9
$DIMALTF
 40
0.03937007874
  9
$DIMLFAC
 40
1.0
  9
$DIMTOFL
 70
1
  9
$DIMTVP
 40
0.0
  9
$DIMTIX
 70
0
  9
$DIMSOXD
 70
0
  9
$DIMSAH
 70
0
  9
$DIMBLK1
  1

  9
$DIMBLK2
  1

  9
$DIMSTYLE
  2
ISO-25
  9
$DIMCLRD
 70
0
  9
$DIMCLRE
 70
0
  9
$DIMCLRT
 70
0
  9
$DIMTFAC
 40
1.0
  9
$DIMGAP
 40
0.625
  9
$DIMJUST
 70
0
  9
$DIMSD1
 70
0
  9
$DIMSD2
 70
0
  9
$DIMTOLJ
 70
0
  9
$DIMTZIN
 70
8
  9
$DIMALTZ
 70
0
  9
$DIMALTTZ
 70
0
  9
$DIMUPT
 70
0
  9
$DIMDEC
 70
2
  9
$DIMTDEC
 70
2
  9
$DIMALTU
 70
2
  9
$DIMALTTD
 70
3
  9
$DIMTXSTY
  7
Standard
  9
$DIMAUNIT
 70
0
  9
$DIMADEC
 70
0
  9
$DIMALTRND
 40
0.0
  9
$DIMAZIN
 70
0
  9
$DIMDSEP
 70
44
  9
$DIMATFIT
 70
3
  9
$DIMFRAC
 70
0
  9
$DIMLDRBLK
  1

  9
$DIMLUNIT
 70
2
  9
$DIMLWD
 70
-2
  9
$DIMLWE
 70
-2
  9
$DIMTMOVE
 70
0
  9
$DIMFXL
 40
1.0
  9
$DIMFXLON
 70
0
  9
$DIMJOGANG
 40
0.785398163397
  9
$DIMTFILL
 70
0
  9
$DIMTFILLCLR
 70
0
  9
$DIMARCSYM
 70
0
  9
$DIMLTYPE
  6

  9
$DIMLTEX1
  6

  9
$DIMLTEX2
  6

  9
$DIMTXTDIRECTION
 70
0
  9
$LUNITS
 70
2
  9
$LUPREC
 70
4
  9
$SKETCHINC
 40
1.0
  9
$FILLETRAD
 40
10.0
  9
$AUNITS
 70
0
  9
$AUPREC
 70
2
  9
$MENU
  1
.
  9
$ELEVATION
 40
0.0
  9
$PELEVATION
 40
0.0
  9
$THICKNESS
 40
0.0
  9
$LIMCHECK
 70
0
  9
$CHAMFERA
 40
0.0
  9
$CHAMFERB
 40
0.0
  9
$CHAMFERC
 40
0.0
  9
$CHAMFERD
 40
0.0
  9
$SKPOLY
 70
0
  9
$TDCREATE
 40
2461202.5789583335
  9
$TDUCREATE
 40
2458532.153996898
  9
$TDUPDATE
 40
2461202.5789583335
  9
$TDUUPDATE
 40
2458532.1544311
  9
$TDINDWG
 40
0.0
  9
$TDUSRTIMER
 40
0.0
  9
$USRTIMER
 70
1
  9
$ANGBASE
 50
0.0
  9
$ANGDIR
 70
0
  9
$PDMODE
 70
0
  9
$PDSIZE
 40
0.0
  9
$PLINEWID
 40
0.0
  9
$SPLFRAME
 70
0
  9
$SPLINETYPE
 70
6
  9
$SPLINESEGS
 70
8
  9
$HANDSEED
  5
2E9
  9
$SURFTAB1
 70
6
  9
$SURFTAB2
 70
6
  9
$SURFTYPE
 70
6
  9
$SURFU
 70
6
  9
$SURFV
 70
6
  9
$UCSBASE
  2

  9
$UCSNAME
  2

  9
$UCSORG
 10
0.0
 20
0.0
 30
0.0
  9
$UCSXDIR
 10
1.0
 20
0.0
 30
0.0
  9
$UCSYDIR
 10
0.0
 20
1.0
 30
0.0
  9
$UCSORTHOREF
  2

  9
$UCSORTHOVIEW
 70
0
  9
$UCSORGTOP
 10
0.0
 20
0.0
 30
0.0
  9
$UCSORGBOTTOM
 10
0.0
 20
0.0
 30
0.0
  9
$UCSORGLEFT
 10
0.0
 20
0.0
 30
0.0
  9
$UCSORGRIGHT
 10
0.0
 20
0.0
 30
0.0
  9
$UCSORGFRONT
 10
0.0
 20
0.0
 30
0.0
  9
$UCSORGBACK
 10
0.0
 20
0.0
 30
0.0
  9
$PUCSBASE
  2

  9
$PUCSNAME
  2

  9
$PUCSORG
 10
0.0
 20
0.0
 30
0.0
  9
$PUCSXDIR
 10
1.0
 20
0.0
 30
0.0
  9
$PUCSYDIR
 10
0.0
 20
1.0
 30
0.0
  9
$PUCSORTHOREF
  2

  9
$PUCSORTHOVIEW
 70
0
  9
$PUCSORGTOP
 10
0.0
 20
0.0
 30
0.0
  9
$PUCSORGBOTTOM
 10
0.0
 20
0.0
 30
0.0
  9
$PUCSORGLEFT
 10
0.0
 20
0.0
 30
0.0
  9
$PUCSORGRIGHT
 10
0.0
 20
0.0
 30
0.0
  9
$PUCSORGFRONT
 10
0.0
 20
0.0
 30
0.0
  9
$PUCSORGBACK
 10
0.0
 20
0.0
 30
0.0
  9
$USERI1
 70
0
  9
$USERI2
 70
0
  9
$USERI3
 70
0
  9
$USERI4
 70
0
  9
$USERI5
 70
0
  9
$USERR1
 40
0.0
  9
$USERR2
 40
0.0
  9
$USERR3
 40
0.0
  9
$USERR4
 40
0.0
  9
$USERR5
 40
0.0
  9
$WORLDVIEW
 70
1
  9
$SHADEDGE
 70
3
  9
$SHADEDIF
 70
70
  9
$TILEMODE
 70
1
  9
$MAXACTVP
 70
64
  9
$PINSBASE
 10
0.0
 20
0.0
 30
0.0
  9
$PLIMCHECK
 70
0
  9
$PEXTMIN
 10
1e+20
 20
1e+20
 30
1e+20
  9
$PEXTMAX
 10
-1e+20
 20
-1e+20
 30
-1e+20
  9
$PLIMMIN
 10
0.0
 20
0.0
  9
$PLIMMAX
 10
420.0
 20
297.0
  9
$UNITMODE
 70
0
  9
$VISRETAIN
 70
1
  9
$PLINEGEN
 70
0
  9
$PSLTSCALE
 70
1
  9
$TREEDEPTH
 70
3020
  9
$CMLSTYLE
  2
Standard
  9
$CMLJUST
 70
0
  9
$CMLSCALE
 40
20.0
  9
$PROXYGRAPHICS
 70
1
  9
$MEASUREMENT
 70
1
  9
$CELWEIGHT
370
-1
  9
$ENDCAPS
280
0
  9
$JOINSTYLE
280
0
  9
$LWDISPLAY
290
0
  9
$INSUNITS
 70
6
  9
$HYPERLINKBASE
  1

  9
$STYLESHEET
  1

  9
$XEDIT
290
1
  9
$CEPSNTYPE
380
0
  9
$PSTYLEMODE
290
1
  9
$FINGERPRINTGUID
  2
{EFB5E5B2-5E11-4018-8883-71C1F141353A}
  9
$VERSIONGUID
  2
{9D099CBD-76C9-4C5E-A17A-C57FAEFDD8BD}
  9
$EXTNAMES
290
1
  9
$PSVPSCALE
 40
0.0
  9
$OLESTARTUP
290
0
  9
$SORTENTS
280
127
  9
$INDEXCTL
280
0
  9
$HIDETEXT
280
1
  9
$XCLIPFRAME
280
1
  9
$HALOGAP
280
0
  9
$OBSCOLOR
 70
257
  9
$OBSLTYPE
280
0
  9
$INTERSECTIONDISPLAY
280
0
  9
$INTERSECTIONCOLOR
 70
257
  9
$DIMASSOC
280
2
  9
$PROJECTNAME
  1

  9
$CAMERADISPLAY
290
0
  9
$LENSLENGTH
 40
50.0
  9
$CAMERAHEIGHT
 40
0.0
  9
$STEPSPERSEC
 40
24.0
  9
$STEPSIZE
 40
100.0
  9
$3DDWFPREC
 40
2.0
  9
$PSOLWIDTH
 40
0.005
  9
$PSOLHEIGHT
 40
0.08
  9
$LOFTANG1
 40
1.570796326795
  9
$LOFTANG2
 40
1.570796326795
  9
$LOFTMAG1
 40
0.0
  9
$LOFTMAG2
 40
0.0
  9
$LOFTPARAM
 70
7
  9
$LOFTNORMALS
280
1
  9
$LATITUDE
 40
37.795
  9
$LONGITUDE
 40
-122.394
  9
$NORTHDIRECTION
 40
0.0
  9
$TIMEZONE
 70
-8000
  9
$LIGHTGLYPHDISPLAY
280
1
  9
$TILEMODELIGHTSYNCH
280
1
  9
$CMATERIAL
347
20
  9
$SOLIDHIST
280
0
  9
$SHOWHIST
280
1
  9
$DWFFRAME
280
2
  9
$DGNFRAME
280
2
  9
$REALWORLDSCALE
290
1
  9
$INTERFERECOLOR
 62
256
  9
$CSHADOW
280
0
  9
$SHADOWPLANELOCATION
 40
0.0
  0
ENDSEC
  0
SECTION
  2
CLASSES
  0
CLASS
  1
ACDBDICTIONARYWDFLT
  2
AcDbDictionaryWithDefault
  3
ObjectDBX Classes
 90
0
 91
0
280
0
281
0
  0
CLASS
  1
SUN
  2
AcDbSun
  3
SCENEOE
 90
1153
 91
0
280
0
281
0
  0
CLASS
  1
VISUALSTYLE
  2
AcDbVisualStyle
  3
ObjectDBX Classes
 90
4095
 91
0
280
0
281
0
  0
CLASS
  1
MATERIAL
  2
AcDbMaterial
  3
ObjectDBX Classes
 90
1153
 91
0
280
0
281
0
  0
CLASS
  1
SCALE
  2
AcDbScale
  3
ObjectDBX Classes
 90
1153
 91
0
280
0
281
0
  0
CLASS
  1
TABLESTYLE
  2
AcDbTableStyle
  3
ObjectDBX Classes
 90
4095
 91
0
280
0
281
0
  0
CLASS
  1
MLEADERSTYLE
  2
AcDbMLeaderStyle
  3
ACDB_MLEADERSTYLE_CLASS
 90
4095
 91
0
280
0
281
0
  0
CLASS
  1
DICTIONARYVAR
  2
AcDbDictionaryVar
  3
ObjectDBX Classes
 90
0
 91
0
280
0
281
0
  0
CLASS
  1
CELLSTYLEMAP
  2
AcDbCellStyleMap
  3
ObjectDBX Classes
 90
1152
 91
0
280
0
281
0
  0
CLASS
  1
MENTALRAYRENDERSETTINGS
  2
AcDbMentalRayRenderSettings
  3
SCENEOE
 90
1024
 91
0
280
0
281
0
  0
CLASS
  1
ACDBDETAILVIEWSTYLE
  2
AcDbDetailViewStyle
  3
ObjectDBX Classes
 90
1025
 91
0
280
0
281
0
  0
CLASS
  1
ACDBSECTIONVIEWSTYLE
  2
AcDbSectionViewStyle
  3
ObjectDBX Classes
 90
1025
 91
0
280
0
281
0
  0
CLASS
  1
RASTERVARIABLES
  2
AcDbRasterVariables
  3
ISM
 90
0
 91
0
280
0
281
0
  0
CLASS
  1
LAYOUT
  2
AcDbLayout
  3
ObjectDBX Classes
 90
0
 91
0
280
0
281
0
  0
CLASS
  1
ACDBPLACEHOLDER
  2
AcDbPlaceHolder
  3
ObjectDBX Classes
 90
0
 91
0
280
0
281
0
  0
ENDSEC
  0
SECTION
  2
TABLES
  0
TABLE
  2
VPORT
  5
8
330
0
100
AcDbSymbolTable
 70
1
  0
VPORT
  5
23
330
8
100
AcDbSymbolTableRecord
100
AcDbViewportTableRecord
  2
*Active
 70
0
 10
0.0
 20
0.0
 11
1.0
 21
1.0
 12
0.0
 22
0.0
 13
0.0
 23
0.0
 14
0.5
 24
0.5
 15
0.5
 25
0.5
 16
0.0
 26
0.0
 36
1.0
 17
0.0
 27
0.0
 37
0.0
 40
1000.0
 41
1.34
 42
50.0
 43
0.0
 44
0.0
 50
0.0
 51
0.0
 71
0
 72
1000
 73
1
 74
3
 75
0
 76
0
 77
0
 78
0
281
0
 65
0
146
0.0
  0
ENDTAB
  0
TABLE
  2
LTYPE
  5
2
330
0
100
AcDbSymbolTable
 70
3
  0
LTYPE
  5
24
330
2
100
AcDbSymbolTableRecord
100
AcDbLinetypeTableRecord
  2
ByBlock
 70
0
  3

 72
65
 73
0
 40
0.0
  0
LTYPE
  5
25
330
2
100
AcDbSymbolTableRecord
100
AcDbLinetypeTableRecord
  2
ByLayer
 70
0
  3

 72
65
 73
0
 40
0.0
  0
LTYPE
  5
26
330
2
100
AcDbSymbolTableRecord
100
AcDbLinetypeTableRecord
  2
Continuous
 70
0
  3

 72
65
 73
0
 40
0.0
  0
ENDTAB
  0
TABLE
  2
LAYER
  5
1
330
0
100
AcDbSymbolTable
 70
14
  0
LAYER
  5
27
330
1
100
AcDbSymbolTableRecord
100
AcDbLayerTableRecord
  2
0
 70
0
 62
7
  6
Continuous
370
-3
390
13
347
21
  0
LAYER
  5
28
330
1
100
AcDbSymbolTableRecord
100
AcDbLayerTableRecord
  2
Defpoints
 70
0
 62
7
  6
Continuous
290
0
370
-3
390
13
347
21
  0
LAYER
  5
2F
330
1
100
AcDbSymbolTableRecord
100
AcDbLayerTableRecord
  2
COTA
 70
0
 62
7
  6
Continuous
370
-3
390
13
347
21
  0
LAYER
  5
30
330
1
100
AcDbSymbolTableRecord
100
AcDbLayerTableRecord
  2
Perfil Metálico
 70
0
 62
7
  6
Continuous
370
-3
390
13
347
21
  0
LAYER
  5
31
330
1
100
AcDbSymbolTableRecord
100
AcDbLayerTableRecord
  2
TEXTO_GERAL
 70
0
 62
7
  6
Continuous
370
-3
390
13
347
21
  0
LAYER
  5
32
330
1
100
AcDbSymbolTableRecord
100
AcDbLayerTableRecord
  2
Hachura
 70
0
 62
7
  6
Continuous
370
-3
390
13
347
21
  0
LAYER
  5
33
330
1
100
AcDbSymbolTableRecord
100
AcDbLayerTableRecord
  2
Painéis
 70
0
 62
7
  6
Continuous
370
-3
390
13
347
21
  0
LAYER
  5
34
330
1
100
AcDbSymbolTableRecord
100
AcDbLayerTableRecord
  2
Madeira
 70
0
 62
7
  6
Continuous
370
-3
390
13
347
21
  0
LAYER
  5
35
330
1
100
AcDbSymbolTableRecord
100
AcDbLayerTableRecord
  2
CHAPA
 70
0
 62
7
  6
Continuous
370
-3
390
13
347
21
  0
LAYER
  5
36
330
1
100
AcDbSymbolTableRecord
100
AcDbLayerTableRecord
  2
SARR_2.2x7
 70
0
 62
7
  6
Continuous
370
-3
390
13
347
21
  0
LAYER
  5
37
330
1
100
AcDbSymbolTableRecord
100
AcDbLayerTableRecord
  2
SARRAFO
 70
0
 62
7
  6
Continuous
370
-3
390
13
347
21
  0
LAYER
  5
38
330
1
100
AcDbSymbolTableRecord
100
AcDbLayerTableRecord
  2
NOMENCLATURA
 70
0
 62
7
  6
Continuous
370
-3
390
13
347
21
  0
LAYER
  5
39
330
1
100
AcDbSymbolTableRecord
100
AcDbLayerTableRecord
  2
Nível
 70
0
 62
7
  6
Continuous
370
-3
390
13
347
21
  0
LAYER
  5
3A
330
1
100
AcDbSymbolTableRecord
100
AcDbLayerTableRecord
  2
Texto Seção
 70
0
 62
7
  6
Continuous
370
-3
390
13
347
21
  0
ENDTAB
  0
TABLE
  2
STYLE
  5
5
330
0
100
AcDbSymbolTable
 70
1
  0
STYLE
  5
29
330
5
100
AcDbSymbolTableRecord
100
AcDbTextStyleTableRecord
  2
Standard
 70
0
 40
0.0
 41
1.0
 50
0.0
 71
0
 42
2.5
  3
txt
  4

  0
ENDTAB
  0
TABLE
  2
VIEW
  5
7
330
0
100
AcDbSymbolTable
 70
0
  0
ENDTAB
  0
TABLE
  2
UCS
  5
6
330
0
100
AcDbSymbolTable
 70
0
  0
ENDTAB
  0
TABLE
  2
APPID
  5
3
330
0
100
AcDbSymbolTable
 70
3
  0
APPID
  5
2A
330
3
100
AcDbSymbolTableRecord
100
AcDbRegAppTableRecord
  2
ACAD
 70
0
  0
APPID
  5
2E6
330
3
100
AcDbSymbolTableRecord
100
AcDbRegAppTableRecord
  2
HATCHBACKGROUNDCOLOR
 70
0
  0
APPID
  5
2E7
330
3
100
AcDbSymbolTableRecord
100
AcDbRegAppTableRecord
  2
EZDXF
 70
0
  0
ENDTAB
  0
TABLE
  2
DIMSTYLE
  5
4
330
0
100
AcDbSymbolTable
 70
1
100
AcDbDimStyleTable
  0
DIMSTYLE
105
2B
330
4
100
AcDbSymbolTableRecord
100
AcDbDimStyleTableRecord
  2
Standard
 70
0
 40
1.0
 41
2.5
 42
0.625
 43
3.75
 44
1.25
 45
0.0
 46
0.0
 47
0.0
 48
0.0
 49
2.5
140
2.5
141
2.5
142
0.0
143
0.03937007874
144
1.0
145
0.0
146
1.0
147
0.625
148
0.0
 69
0
 70
0
 71
0
 72
0
 73
0
 74
0
 75
0
 76
0
 77
1
 78
8
 79
3
170
0
171
3
172
1
173
0
174
0
175
0
176
0
177
0
178
0
179
2
271
2
272
2
273
2
274
3
275
0
276
0
277
2
278
44
279
0
280
0
281
0
282
0
283
0
284
8
285
0
286
0
288
0
289
3
290
0
371
-2
372
-2
  0
ENDTAB
  0
TABLE
  2
BLOCK_RECORD
  5
9
330
0
100
AcDbSymbolTable
 70
2
  0
BLOCK_RECORD
  5
17
330
9
100
AcDbSymbolTableRecord
100
AcDbBlockTableRecord
  2
*Model_Space
340
1A
 70
0
280
1
281
0
  0
BLOCK_RECORD
  5
1B
330
9
100
AcDbSymbolTableRecord
100
AcDbBlockTableRecord
  2
*Paper_Space
340
1E
 70
0
280
1
281
0
  0
ENDTAB
  0
ENDSEC
  0
SECTION
  2
BLOCKS
  0
BLOCK
  5
18
330
17
100
AcDbEntity
  8
0
100
AcDbBlockBegin
  2
*Model_Space
 70
0
 10
0.0
 20
0.0
 30
0.0
  3
*Model_Space
  1

  0
ENDBLK
  5
19
330
17
100
AcDbEntity
  8
0
100
AcDbBlockEnd
  0
BLOCK
  5
1C
330
1B
100
AcDbEntity
  8
0
100
AcDbBlockBegin
  2
*Paper_Space
 70
0
 10
0.0
 20
0.0
 30
0.0
  3
*Paper_Space
  1

  0
ENDBLK
  5
1D
330
1B
100
AcDbEntity
  8
0
100
AcDbBlockEnd
  0
ENDSEC
  0
SECTION
  2
ENTITIES
  0
LINE
  5
3B
330
17
100
AcDbEntity
  8
Nível
 62
7
370
25
100
AcDbLine
 10
3020.819700731801
 20
1693.276403167233
 30
0.0
 11
3860.654504495636
 21
1693.276403167233
 31
0.0
  0
LINE
  5
3C
330
17
100
AcDbEntity
  8
SARR_2.2x7
 62
7
370
25
100
AcDbLine
 10
3738.528132255357
 20
1914.276403167223
 30
0.0
 11
3738.528132255415
 21
1695.276403167233
 31
0.0
  0
LINE
  5
3D
330
17
100
AcDbEntity
  8
SARR_2.2x7
 62
7
370
25
100
AcDbLine
 10
3728.528132255411
 20
1914.276403167223
 30
0.0
 11
3728.528132255357
 21
1695.276403167233
 31
0.0
  0
LINE
  5
3E
330
17
100
AcDbEntity
  8
Painéis
 62
7
370
25
100
AcDbLine
 10
3721.528132255386
 20
1695.276403167233
 30
0.0
 11
3745.528132255386
 21
1695.276403167233
 31
0.0
  0
LINE
  5
3F
330
17
100
AcDbEntity
  8
Painéis
 62
7
370
25
100
AcDbLine
 10
3745.528132255386
 20
1695.276403167233
 30
0.0
 11
3745.528132255384
 21
1914.276403167222
 31
0.0
  0
LINE
  5
40
330
17
100
AcDbEntity
  8
Painéis
 62
7
370
25
100
AcDbLine
 10
3721.528132255386
 20
1914.276403167222
 30
0.0
 11
3721.528132255386
 21
1695.276403167233
 31
0.0
  0
LINE
  5
41
330
17
100
AcDbEntity
  8
Painéis
 62
7
370
25
100
AcDbLine
 10
3745.528132255382
 20
1914.276403167222
 30
0.0
 11
3721.528132255386
 21
1914.276403167222
 31
0.0
  0
LINE
  5
42
330
17
100
AcDbEntity
  8
SARR_2.2x7
 62
7
370
25
100
AcDbLine
 10
3125.144873190606
 20
1695.276403167233
 30
0.0
 11
3125.144873190606
 21
1817.276403167233
 31
0.0
  0
LINE
  5
43
330
17
100
AcDbEntity
  8
SARR_2.2x7
 62
7
370
25
100
AcDbLine
 10
3125.144873190489
 20
1843.276403167248
 30
0.0
 11
3125.144873190533
 21
1940.276403167233
 31
0.0
  0
LINE
  5
44
330
17
100
AcDbEntity
  8
SARR_2.2x7
 62
7
370
25
100
AcDbLine
 10
3199.144873190548
 20
1695.276403167247
 30
0.0
 11
3199.144873190548
 21
1817.276403167233
 31
0.0
  0
LINE
  5
45
330
17
100
AcDbEntity
  8
SARR_2.2x7
 62
7
370
25
100
AcDbLine
 10
3199.144873190431
 20
1843.276403167248
 30
0.0
 11
3199.144873190515
 21
1940.276403167233
 31
0.0
  0
LINE
  5
46
330
17
100
AcDbEntity
  8
SARR_2.2x7
 62
7
370
25
100
AcDbLine
 10
3125.144873190606
 20
1695.276403167233
 30
0.0
 11
3125.144873190606
 21
1695.27640316726
 31
0.0
  0
LINE
  5
47
330
17
100
AcDbEntity
  8
SARR_2.2x7
 62
7
370
25
100
AcDbLine
 10
3199.144873190548
 20
1695.276403167247
 30
0.0
 11
3199.144873190548
 21
1695.276403167233
 31
0.0
  0
LINE
  5
48
330
17
100
AcDbEntity
  8
Painéis
 62
7
370
25
100
AcDbLine
 10
3206.144873190606
 20
1695.276403167233
 30
0.0
 11
3206.144873190606
 21
1817.276403167232
 31
0.0
  0
LINE
  5
49
330
17
100
AcDbEntity
  8
Painéis
 62
7
370
25
100
AcDbLine
 10
3206.144873190606
 20
1843.276403167233
 30
0.0
 11
3206.144873190608
 21
1940.276403167233
 31
0.0
  0
LINE
  5
4A
330
17
100
AcDbEntity
  8
Painéis
 62
7
370
25
100
AcDbLine
 10
3206.144873190611
 20
1940.276403167231
 30
0.0
 11
3206.144873190613
 21
1940.276403167234
 31
0.0
  0
LINE
  5
4B
330
17
100
AcDbEntity
  8
Painéis
 62
7
370
25
100
AcDbLine
 10
3118.144873190606
 20
1817.276403167233
 30
0.0
 11
3206.144873190548
 21
1817.276403167233
 31
0.0
  0
LINE
  5
4C
330
17
100
AcDbEntity
  8
Painéis
 62
7
370
25
100
AcDbLine
 10
3118.144873190621
 20
1980.276403167232
 30
0.0
 11
3118.144873190617
 21
1940.276403167234
 31
0.0
  0
LINE
  5
4D
330
17
100
AcDbEntity
  8
Painéis
 62
7
370
25
100
AcDbLine
 10
3118.14487319061
 20
1940.276403167237
 30
0.0
 11
3118.144873190606
 21
1843.276403167232
 31
0.0
  0
LINE
  5
4E
330
17
100
AcDbEntity
  8
Painéis
 62
7
370
25
100
AcDbLine
 10
3118.144873190604
 20
1817.276403167233
 30
0.0
 11
3118.1448731906
 21
1695.276403167233
 31
0.0
  0
LINE
  5
4F
330
17
100
AcDbEntity
  8
Painéis
 62
7
370
25
100
AcDbLine
 10
3118.144873190602
 20
1695.276403167233
 30
0.0
 11
3206.144873190606
 21
1695.276403167233
 31
0.0
  0
LINE
  5
50
330
17
100
AcDbEntity
  8
Painéis
 62
7
370
25
100
AcDbLine
 10
3177.14487319061
 20
1980.276403167221
 30
0.0
 11
3118.14487319061
 21
1980.276403167232
 31
0.0
  0
LINE
  5
51
330
17
100
AcDbEntity
  8
SARR_2.2x7
 62
7
370
25
100
AcDbLine
 10
3125.144873190537
 20
1940.276403167234
 30
0.0
 11
3125.144873190537
 21
1940.276403167233
 31
0.0
  0
LINE
  5
52
330
17
100
AcDbEntity
  8
SARR_2.2x7
 62
7
370
25
100
AcDbLine
 10
3199.144873190515
 20
1940.276403167231
 30
0.0
 11
3199.144873190511
 21
1940.276403167234
 31
0.0
  0
LINE
  5
53
330
17
100
AcDbEntity
  8
Painéis
 62
7
370
25
100
AcDbLine
 10
3206.144873190599
 20
1940.276403167234
 30
0.0
 11
3177.144873190599
 21
1940.276403167233
 31
0.0
  0
LINE
  5
54
330
17
100
AcDbEntity
  8
SARR_2.2x7
 62
7
370
25
100
AcDbLine
 10
3199.144873190508
 20
1933.276403167234
 30
0.0
 11
3170.144873190599
 21
1933.276403167233
 31
0.0
  0
LINE
  5
55
330
17
100
AcDbEntity
  8
Painéis
 62
7
370
25
100
AcDbLine
 10
3177.144873190599
 20
1940.276403167233
 30
0.0
 11
3177.14487319061
 21
1980.27640316723
 31
0.0
  0
LINE
  5
56
330
17
100
AcDbEntity
  8
SARR_2.2x7
 62
7
370
25
100
AcDbLine
 10
3170.144873190599
 20
1940.276403167234
 30
0.0
 11
3170.14487319061
 21
1973.276403167182
 31
0.0
  0
LINE
  5
57
330
17
100
AcDbEntity
  8
SARR_2.2x7
 62
7
370
25
100
AcDbLine
 10
3177.144873190599
 20
1940.276403167233
 30
0.0
 11
3170.144873190599
 21
1940.276403167234
 31
0.0
  0
LINE
  5
58
330
17
100
AcDbEntity
  8
SARR_2.2x7
 62
7
370
25
100
AcDbLine
 10
3170.144873190599
 20
1940.276403167234
 30
0.0
 11
3170.144873190599
 21
1933.276403167233
 31
0.0
  0
LINE
  5
59
330
17
100
AcDbEntity
  8
SARR_2.2x7
 62
7
370
25
100
AcDbLine
 10
3125.144873190537
 20
1940.276403167233
 30
0.0
 11
3118.144873190617
 21
1940.276403167233
 31
0.0
  0
LINE
  5
5A
330
17
100
AcDbEntity
  8
SARR_2.2x7
 62
7
370
25
100
AcDbLine
 10
3431.378965344077
 20
1695.276403167233
 30
0.0
 11
3431.378965344077
 21
1817.276403167233
 31
0.0
  0
LINE
  5
5B
330
17
100
AcDbEntity
  8
SARR_2.2x7
 62
7
370
25
100
AcDbLine
 10
3431.378965344193
 20
1843.276403167248
 30
0.0
 11
3431.378965344149
 21
1940.276403167233
 31
0.0
  0
LINE
  5
5C
330
17
100
AcDbEntity
  8
SARR_2.2x7
 62
7
370
25
100
AcDbLine
 10
3357.378965344135
 20
1695.276403167247
 30
0.0
 11
3357.378965344135
 21
1817.276403167233
 31
0.0
  0
LINE
  5
5D
330
17
100
AcDbEntity
  8
SARR_2.2x7
 62
7
370
25
100
AcDbLine
 10
3357.378965344251
 20
1843.276403167248
 30
0.0
 11
3357.378965344167
 21
1940.276403167233
 31
0.0
  0
LINE
  5
5E
330
17
100
AcDbEntity
  8
SARR_2.2x7
 62
7
370
25
100
AcDbLine
 10
3431.378965344077
 20
1695.276403167233
 30
0.0
 11
3431.378965344077
 21
1695.27640316726
 31
0.0
  0
LINE
  5
5F
330
17
100
AcDbEntity
  8
SARR_2.2x7
 62
7
370
25
100
AcDbLine
 10
3357.378965344135
 20
1695.276403167247
 30
0.0
 11
3357.378965344135
 21
1695.276403167233
 31
0.0
  0
LINE
  5
60
330
17
100
AcDbEntity
  8
Painéis
 62
7
370
25
100
AcDbLine
 10
3350.378965344076
 20
1695.276403167233
 30
0.0
 11
3350.378965344075
 21
1817.276403167232
 31
0.0
  0
LINE
  5
61
330
17
100
AcDbEntity
  8
Painéis
 62
7
370
25
100
AcDbLine
 10
3350.378965344075
 20
1843.276403167233
 30
0.0
 11
3350.378965344073
 21
1940.276403167235
 31
0.0
  0
LINE
  5
62
330
17
100
AcDbEntity
  8
Painéis
 62
7
370
25
100
AcDbLine
 10
3350.378965344076
 20
1940.276403167235
 30
0.0
 11
3350.378965344076
 21
1940.276403167234
 31
0.0
  0
LINE
  5
63
330
17
100
AcDbEntity
  8
Painéis
 62
7
370
25
100
AcDbLine
 10
3438.378965344077
 20
1817.276403167233
 30
0.0
 11
3350.378965344134
 21
1817.276403167233
 31
0.0
  0
LINE
  5
64
330
17
100
AcDbEntity
  8
Painéis
 62
7
370
25
100
AcDbLine
 10
3438.37896534407
 20
1980.276403167232
 30
0.0
 11
3438.378965344073
 21
1940.276403167237
 31
0.0
  0
LINE
  5
65
330
17
100
AcDbEntity
  8
Painéis
 62
7
370
25
100
AcDbLine
 10
3438.378965344073
 20
1940.276403167237
 30
0.0
 11
3438.378965344077
 21
1843.276403167232
 31
0.0
  0
LINE
  5
66
330
17
100
AcDbEntity
  8
Painéis
 62
7
370
25
100
AcDbLine
 10
3438.378965344078
 20
1817.276403167233
 30
0.0
 11
3438.378965344082
 21
1695.276403167233
 31
0.0
  0
LINE
  5
67
330
17
100
AcDbEntity
  8
Painéis
 62
7
370
25
100
AcDbLine
 10
3438.37896534408
 20
1695.276403167233
 30
0.0
 11
3350.378965344076
 21
1695.276403167233
 31
0.0
  0
LINE
  5
68
330
17
100
AcDbEntity
  8
Painéis
 62
7
370
25
100
AcDbLine
 10
3379.37896534408
 20
1980.276403167221
 30
0.0
 11
3438.37896534408
 21
1980.276403167232
 31
0.0
  0
LINE
  5
69
330
17
100
AcDbEntity
  8
SARR_2.2x7
 62
7
370
25
100
AcDbLine
 10
3357.378965344182
 20
1940.276403167234
 30
0.0
 11
3357.378965344178
 21
1940.276403167233
 31
0.0
  0
LINE
  5
6A
330
17
100
AcDbEntity
  8
Painéis
 62
7
370
25
100
AcDbLine
 10
3350.378965344091
 20
1940.276403167234
 30
0.0
 11
3379.378965344091
 21
1940.276403167233
 31
0.0
  0
LINE
  5
6B
330
17
100
AcDbEntity
  8
SARR_2.2x7
 62
7
370
25
100
AcDbLine
 10
3357.378965344175
 20
1933.276403167234
 30
0.0
 11
3386.378965344091
 21
1933.276403167233
 31
0.0
  0
LINE
  5
6C
330
17
100
AcDbEntity
  8
Painéis
 62
7
370
25
100
AcDbLine
 10
3379.378965344091
 20
1940.276403167233
 30
0.0
 11
3379.37896534408
 21
1980.27640316723
 31
0.0
  0
LINE
  5
6D
330
17
100
AcDbEntity
  8
SARR_2.2x7
 62
7
370
25
100
AcDbLine
 10
3386.378965344091
 20
1940.276403167234
 30
0.0
 11
3386.37896534408
 21
1973.276403167218
 31
0.0
  0
LINE
  5
6E
330
17
100
AcDbEntity
  8
SARR_2.2x7
 62
7
370
25
100
AcDbLine
 10
3379.378965344091
 20
1940.276403167233
 30
0.0
 11
3386.378965344091
 21
1940.276403167234
 31
0.0
  0
LINE
  5
6F
330
17
100
AcDbEntity
  8
SARR_2.2x7
 62
7
370
25
100
AcDbLine
 10
3386.378965344091
 20
1940.276403167234
 30
0.0
 11
3386.378965344091
 21
1933.276403167233
 31
0.0
  0
LINE
  5
70
330
17
100
AcDbEntity
  8
SARR_2.2x7
 62
7
370
25
100
AcDbLine
 10
3438.378965344067
 20
1940.276403167233
 30
0.0
 11
3431.378965344148
 21
1940.276403167233
 31
0.0
  0
LINE
  5
71
330
17
100
AcDbEntity
  8
SARR_2.2x7
 62
7
370
25
100
AcDbLine
 10
3589.692665263654
 20
1914.276403167223
 30
0.0
 11
3589.692665263712
 21
1695.276403167233
 31
0.0
  0
LINE
  5
72
330
17
100
AcDbEntity
  8
SARR_2.2x7
 62
7
370
25
100
AcDbLine
 10
3579.692665263709
 20
1914.276403167223
 30
0.0
 11
3579.692665263654
 21
1695.276403167233
 31
0.0
  0
LINE
  5
73
330
17
100
AcDbEntity
  8
Painéis
 62
7
370
25
100
AcDbLine
 10
3572.692665263684
 20
1695.276403167233
 30
0.0
 11
3596.692665263683
 21
1695.276403167233
 31
0.0
  0
LINE
  5
74
330
17
100
AcDbEntity
  8
Painéis
 62
7
370
25
100
AcDbLine
 10
3596.692665263683
 20
1695.276403167233
 30
0.0
 11
3596.692665263681
 21
1914.276403167222
 31
0.0
  0
LINE
  5
75
330
17
100
AcDbEntity
  8
Painéis
 62
7
370
25
100
AcDbLine
 10
3572.692665263684
 20
1914.276403167222
 30
0.0
 11
3572.692665263684
 21
1695.276403167233
 31
0.0
  0
LINE
  5
76
330
17
100
AcDbEntity
  8
Painéis
 62
7
370
25
100
AcDbLine
 10
3596.69266526368
 20
1914.276403167222
 30
0.0
 11
3572.692665263684
 21
1914.276403167222
 31
0.0
  0
LINE
  5
77
330
17
100
AcDbEntity
  8
SARR_2.2x7
 62
7
370
25
100
AcDbLine
 10
3177.14487319061
 20
1973.276403167184
 30
0.0
 11
3118.144873190621
 21
1973.276403167169
 31
0.0
  0
LINE
  5
78
330
17
100
AcDbEntity
  8
SARR_2.2x7
 62
7
370
25
100
AcDbLine
 10
3438.378965344065
 20
1973.276403167228
 30
0.0
 11
3379.37896534408
 21
1973.276403167217
 31
0.0
  0
LINE
  5
79
330
17
100
AcDbEntity
  8
COTA
 62
7
370
25
100
AcDbLine
 10
3206.144873190613
 20
1940.276403167234
 30
0.0
 11
3206.144873190613
 21
1999.276403167232
 31
0.0
  0
LINE
  5
7A
330
17
100
AcDbEntity
  8
COTA
 62
7
370
25
100
AcDbLine
 10
3118.14487319061
 20
1980.276403167232
 30
0.0
 11
3118.14487319061
 21
1992.276403167227
 31
0.0
  0
LINE
  5
7B
330
17
100
AcDbEntity
  8
COTA
 62
7
370
25
100
AcDbLine
 10
3350.378965344073
 20
1940.276403167234
 30
0.0
 11
3350.378965344073
 21
1999.276403167232
 31
0.0
  0
LINE
  5
7C
330
17
100
AcDbEntity
  8
COTA
 62
7
370
25
100
AcDbLine
 10
3438.378965344077
 20
1980.276403167232
 30
0.0
 11
3438.378965344077
 21
1992.276403167227
 31
0.0
  0
LINE
  5
7D
330
17
100
AcDbEntity
  8
COTA
 62
7
370
25
100
AcDbLine
 10
3177.14487319061
 20
1999.276403167232
 30
0.0
 11
3206.144873190613
 21
1999.276403167232
 31
0.0
  0
LINE
  5
7E
330
17
100
AcDbEntity
  8
SARR_2.2x7
 62
7
370
25
100
AcDbLine
 10
3177.1448731906
 20
1995.776403167246
 30
0.0
 11
3118.144873190611
 21
1995.776403167231
 31
0.0
  0
LINE
  5
7F
330
17
100
AcDbEntity
  8
SARR_2.2x7
 62
7
370
25
100
AcDbLine
 10
3438.378965344067
 20
1995.776403167287
 30
0.0
 11
3379.378965344078
 21
1995.776403167272
 31
0.0
  0
LINE
  5
80
330
17
100
AcDbEntity
  8
COTA
 62
7
370
25
100
AcDbLine
 10
3350.378965344073
 20
1999.276403167232
 30
0.0
 11
3379.378965344078
 21
1999.276403167272
 31
0.0
  0
LINE
  5
81
330
17
100
AcDbEntity
  8
Nível
 62
7
370
25
100
AcDbLine
 10
3012.013802018555
 20
1999.276403167232
 30
0.0
 11
3860.654504495644
 21
1999.276403167232
 31
0.0
  0
LINE
  5
82
330
17
100
AcDbEntity
  8
Painéis
 62
7
370
25
100
AcDbLine
 10
3118.144873190606
 20
1843.276403167233
 30
0.0
 11
3206.144873190548
 21
1843.276403167233
 31
0.0
  0
LINE
  5
83
330
17
100
AcDbEntity
  8
Painéis
 62
7
370
25
100
AcDbLine
 10
3438.378965344077
 20
1843.276403167233
 30
0.0
 11
3350.378965344134
 21
1843.276403167233
 31
0.0
  0
LINE
  5
84
330
17
100
AcDbEntity
  8
Painéis
 62
7
370
25
100
AcDbLine
 10
3118.144873190205
 20
1817.276403167256
 30
0.0
 11
3206.144873191244
 21
1817.276403167256
 31
0.0
  0
LINE
  5
85
330
17
100
AcDbEntity
  8
SARR_2.2x7
 62
7
370
25
100
AcDbLine
 10
3199.144873190593
 20
1817.276403167721
 30
0.0
 11
3199.144873190593
 21
1843.276403167453
 31
0.0
  0
LINE
  5
86
330
17
100
AcDbEntity
  8
Painéis
 62
7
370
25
100
AcDbLine
 10
3206.144873190846
 20
1817.276403167475
 30
0.0
 11
3206.144873190846
 21
1843.276403167453
 31
0.0
  0
LINE
  5
87
330
17
100
AcDbEntity
  8
Painéis
 62
7
370
25
100
AcDbLine
 10
3118.144873190606
 20
1843.276403167452
 30
0.0
 11
3206.144873190651
 21
1843.276403167453
 31
0.0
  0
LINE
  5
88
330
17
100
AcDbEntity
  8
SARR_2.2x7
 62
7
370
25
100
AcDbLine
 10
3125.144873190857
 20
1817.276403167721
 30
0.0
 11
3125.144873190857
 21
1843.276403167452
 31
0.0
  0
LINE
  5
89
330
17
100
AcDbEntity
  8
Painéis
 62
7
370
25
100
AcDbLine
 10
3118.144873190604
 20
1817.276403167475
 30
0.0
 11
3118.144873190605
 21
1843.276403167452
 31
0.0
  0
LINE
  5
8A
330
17
100
AcDbEntity
  8
Painéis
 62
7
370
25
100
AcDbLine
 10
3350.378965344106
 20
1817.276403166746
 30
0.0
 11
3438.378965344047
 21
1817.276403166746
 31
0.0
  0
LINE
  5
8B
330
17
100
AcDbEntity
  8
Painéis
 62
7
370
25
100
AcDbLine
 10
3350.378965343705
 20
1817.276403166768
 30
0.0
 11
3438.378965344744
 21
1817.276403166768
 31
0.0
  0
LINE
  5
8C
330
17
100
AcDbEntity
  8
SARR_2.2x7
 62
7
370
25
100
AcDbLine
 10
3431.378965344093
 20
1817.276403167233
 30
0.0
 11
3431.378965344093
 21
1843.276403166965
 31
0.0
  0
LINE
  5
8D
330
17
100
AcDbEntity
  8
Painéis
 62
7
370
25
100
AcDbLine
 10
3438.378965344346
 20
1817.276403166988
 30
0.0
 11
3438.378965344345
 21
1843.276403166966
 31
0.0
  0
LINE
  5
8E
330
17
100
AcDbEntity
  8
Painéis
 62
7
370
25
100
AcDbLine
 10
3350.378965344106
 20
1843.276403166965
 30
0.0
 11
3438.378965344151
 21
1843.276403166966
 31
0.0
  0
LINE
  5
8F
330
17
100
AcDbEntity
  8
SARR_2.2x7
 62
7
370
25
100
AcDbLine
 10
3357.378965344356
 20
1817.276403167233
 30
0.0
 11
3357.378965344356
 21
1843.276403166964
 31
0.0
  0
LINE
  5
90
330
17
100
AcDbEntity
  8
Painéis
 62
7
370
25
100
AcDbLine
 10
3350.378965344104
 20
1817.276403166988
 30
0.0
 11
3350.378965344105
 21
1843.276403166964
 31
0.0
  0
LINE
  5
91
330
17
100
AcDbEntity
  8
SARR_2.2x7
 62
7
370
25
100
AcDbLine
 10
3579.69266526371
 20
1914.276403167725
 30
0.0
 11
3579.692665263726
 21
1940.276403167452
 31
0.0
  0
LINE
  5
92
330
17
100
AcDbEntity
  8
SARR_2.2x7
 62
7
370
25
100
AcDbLine
 10
3589.604844343334
 20
1914.276403167733
 30
0.0
 11
3589.60484434335
 21
1940.276403167456
 31
0.0
  0
LINE
  5
93
330
17
100
AcDbEntity
  8
Painéis
 62
7
370
25
100
AcDbLine
 10
3596.692665263683
 20
1914.276403167743
 30
0.0
 11
3596.692665263683
 21
1940.27640316746
 31
0.0
  0
LINE
  5
94
330
17
100
AcDbEntity
  8
Painéis
 62
7
370
25
100
AcDbLine
 10
3572.692665263684
 20
1914.276403167733
 30
0.0
 11
3572.692665263682
 21
1940.276403167448
 31
0.0
  0
LINE
  5
95
330
17
100
AcDbEntity
  8
Painéis
 62
7
370
25
100
AcDbLine
 10
3572.692665263678
 20
1940.276403167448
 30
0.0
 11
3596.692665263725
 21
1940.27640316746
 31
0.0
  0
LINE
  5
96
330
17
100
AcDbEntity
  8
SARR_2.2x7
 62
7
370
25
100
AcDbLine
 10
3728.528132255413
 20
1914.276403167725
 30
0.0
 11
3728.528132255429
 21
1940.276403167452
 31
0.0
  0
LINE
  5
97
330
17
100
AcDbEntity
  8
SARR_2.2x7
 62
7
370
25
100
AcDbLine
 10
3738.440311335037
 20
1914.276403167733
 30
0.0
 11
3738.440311335053
 21
1940.276403167456
 31
0.0
  0
LINE
  5
98
330
17
100
AcDbEntity
  8
Painéis
 62
7
370
25
100
AcDbLine
 10
3745.528132255386
 20
1914.276403167743
 30
0.0
 11
3745.528132255385
 21
1940.27640316746
 31
0.0
  0
LINE
  5
99
330
17
100
AcDbEntity
  8
Painéis
 62
7
370
25
100
AcDbLine
 10
3721.528132255386
 20
1914.276403167733
 30
0.0
 11
3721.528132255385
 21
1940.276403167448
 31
0.0
  0
LINE
  5
9A
330
17
100
AcDbEntity
  8
Painéis
 62
7
370
25
100
AcDbLine
 10
3721.52813225538
 20
1940.276403167448
 30
0.0
 11
3745.528132255428
 21
1940.27640316746
 31
0.0
  0
LINE
  5
9B
330
17
100
AcDbEntity
  8
Defpoints
 62
7
370
25
100
AcDbLine
 10
2686.887026483652
 20
2238.993268487383
 30
0.0
 11
2686.887026483652
 21
2363.993268487383
 31
0.0
  0
LINE
  5
9C
330
17
100
AcDbEntity
  8
Hachura
 62
7
370
25
100
AcDbLine
 10
2762.983140891934
 20
2057.9544786698802
 30
0.0
 11
2763.628063346768
 21
2057.9544786698802
 31
0.0
  0
LINE
  5
9D
330
17
100
AcDbEntity
  8
Hachura
 62
7
370
25
100
AcDbLine
 10
2764.1440013063484
 20
2057.9544786698802
 30
0.0
 11
2763.1766176240953
 21
2059.8892460343827
 31
0.0
  0
LINE
  5
9E
330
17
100
AcDbEntity
  8
Hachura
 62
7
370
25
100
AcDbLine
 10
2764.051358465796
 20
2057.881795339034
 30
0.0
 11
2762.9685521298957
 21
2060.047408096592
 31
0.0
  0
LINE
  5
9F
330
17
100
AcDbEntity
  8
Hachura
 62
7
370
25
100
AcDbLine
 10
2762.7398020524383
 20
2059.9889702061696
 30
0.0
 11
2763.81009090821
 21
2057.8483925375044
 31
0.0
  0
LINE
  5
A0
330
17
100
AcDbEntity
  8
Hachura
 62
7
370
25
100
AcDbLine
 10
2762.660679664519
 20
2059.8892460343827
 30
0.0
 11
2763.628063346768
 21
2057.9544786698802
 31
0.0
  0
LINE
  5
A1
330
17
100
AcDbEntity
  8
Hachura
 62
7
370
25
100
AcDbLine
 10
2762.015757209685
 20
2059.8892460343827
 30
0.0
 11
2762.660679664519
 21
2059.8892460343827
 31
0.0
  0
LINE
  5
A2
330
17
100
AcDbEntity
  8
Hachura
 62
7
370
25
100
AcDbLine
 10
2760.338958824973
 20
2059.8892460343827
 30
0.0
 11
2759.6940363701387
 21
2059.8892460343827
 31
0.0
  0
LINE
  5
A3
330
17
100
AcDbEntity
  8
Hachura
 62
7
370
25
100
AcDbLine
 10
2761.2879645902676
 20
2059.8892460343827
 30
0.0
 11
2761.4998192393828
 21
2059.8892460343827
 31
0.0
  0
LINE
  5
A4
330
17
100
AcDbEntity
  8
Hachura
 62
7
370
25
100
AcDbLine
 10
2761.2879645902676
 20
2059.8892460343827
 30
0.0
 11
2760.854896784553
 21
2059.8892460343827
 31
0.0
  0
LINE
  5
A5
330
17
100
AcDbEntity
  8
Hachura
 62
7
370
25
100
AcDbLine
 10
2761.822280466802
 20
2057.9544786698802
 30
0.0
 11
2762.4672029216363
 21
2057.9544786698802
 31
0.0
  0
LINE
  5
A6
330
17
100
AcDbEntity
  8
Hachura
 62
7
370
25
100
AcDbLine
 10
2760.6614200523877
 20
2057.9544786698802
 30
0.0
 11
2761.306342507222
 21
2057.9544786698802
 31
0.0
  0
LINE
  5
A7
330
17
100
AcDbEntity
  8
Hachura
 62
7
370
25
100
AcDbLine
 10
2762.983140891934
 20
2057.9544786698802
 30
0.0
 11
2762.015757209685
 21
2059.8892460343827
 31
0.0
  0
LINE
  5
A8
330
17
100
AcDbEntity
  8
Hachura
 62
7
370
25
100
AcDbLine
 10
2762.890498040664
 20
2057.881795339034
 30
0.0
 11
2761.807691704764
 21
2060.047408096592
 31
0.0
  0
LINE
  5
A9
330
17
100
AcDbEntity
  8
Hachura
 62
7
370
25
100
AcDbLine
 10
2761.578941638028
 20
2059.9889702061696
 30
0.0
 11
2762.649230483078
 21
2057.8483925375044
 31
0.0
  0
LINE
  5
AA
330
17
100
AcDbEntity
  8
Hachura
 62
7
370
25
100
AcDbLine
 10
2761.4998192393828
 20
2059.8892460343827
 30
0.0
 11
2762.4672029216363
 21
2057.9544786698802
 31
0.0
  0
LINE
  5
AB
330
17
100
AcDbEntity
  8
Hachura
 62
7
370
25
100
AcDbLine
 10
2760.6614200523877
 20
2057.9544786698802
 30
0.0
 11
2759.6940363701387
 21
2059.8892460343827
 31
0.0
  0
LINE
  5
AC
330
17
100
AcDbEntity
  8
Hachura
 62
7
370
25
100
AcDbLine
 10
2761.822280466802
 20
2057.9544786698802
 30
0.0
 11
2760.854896784553
 21
2059.8892460343827
 31
0.0
  0
LINE
  5
AD
330
17
100
AcDbEntity
  8
Hachura
 62
7
370
25
100
AcDbLine
 10
2761.7296376262498
 20
2057.881795339034
 30
0.0
 11
2760.6468312903494
 21
2060.047408096592
 31
0.0
  0
LINE
  5
AE
330
17
100
AcDbEntity
  8
Hachura
 62
7
370
25
100
AcDbLine
 10
2760.4180812236136
 20
2059.9889702061696
 30
0.0
 11
2761.4883700686632
 21
2057.8483925375044
 31
0.0
  0
LINE
  5
AF
330
17
100
AcDbEntity
  8
Hachura
 62
7
370
25
100
AcDbLine
 10
2760.338958824973
 20
2059.8892460343827
 30
0.0
 11
2761.306342507222
 21
2057.9544786698802
 31
0.0
  0
LINE
  5
B0
330
17
100
AcDbEntity
  8
Hachura
 62
7
370
25
100
AcDbLine
 10
2764.466358895167
 20
2059.631484363948
 30
0.0
 11
2764.3374780385097
 21
2059.8892460343827
 31
0.0
  0
LINE
  5
B1
330
17
100
AcDbEntity
  8
Hachura
 62
7
370
25
100
AcDbLine
 10
2764.466358895167
 20
2059.3735153734383
 30
0.0
 11
2764.1294125335885
 21
2060.047408096592
 31
0.0
  0
LINE
  5
B2
330
17
100
AcDbEntity
  8
Hachura
 62
7
370
25
100
AcDbLine
 10
2764.3374780385097
 20
2059.8892460343827
 30
0.0
 11
2764.466358895167
 21
2059.8892460343827
 31
0.0
  0
LINE
  5
B3
330
17
100
AcDbEntity
  8
Hachura
 62
7
370
25
100
AcDbLine
 10
2764.464748798584
 20
2059.8874542486624
 30
0.0
 11
2764.7872100474424
 21
2059.5649930212453
 31
0.0
  0
LINE
  5
B4
330
17
100
AcDbEntity
  8
Hachura
 62
7
370
25
100
AcDbLine
 10
2763.8215400789295
 20
2059.8892460343827
 30
0.0
 11
2763.1766176240953
 21
2059.8892460343827
 31
0.0
  0
LINE
  5
B5
330
17
100
AcDbEntity
  8
Hachura
 62
7
370
25
100
AcDbLine
 10
2764.1440013063484
 20
2057.9544786698802
 30
0.0
 11
2764.466358895167
 21
2057.9544786698802
 31
0.0
  0
LINE
  5
B6
330
17
100
AcDbEntity
  8
Hachura
 62
7
370
25
100
AcDbLine
 10
2764.4647488200235
 20
2057.952601383389
 30
0.0
 11
2764.46467140195
 21
2057.952601383389
 31
0.0
  0
LINE
  5
B7
330
17
100
AcDbEntity
  8
Hachura
 62
7
370
25
100
AcDbLine
 10
2764.4647488200235
 20
2057.952601383389
 30
0.0
 11
2764.7872100474424
 21
2058.275148111577
 31
0.0
  0
LINE
  5
B8
330
17
100
AcDbEntity
  8
Hachura
 62
7
370
25
100
AcDbLine
 10
2762.255348261799
 20
2057.9544786698802
 30
0.0
 11
2762.4672029109142
 21
2057.9544786698802
 31
0.0
  0
LINE
  5
B9
330
17
100
AcDbEntity
  8
Hachura
 62
7
370
25
100
AcDbLine
 10
2763.9006624668527
 20
2059.9889702061696
 30
0.0
 11
2764.466358895167
 21
2058.857577392421
 31
0.0
  0
LINE
  5
BA
330
17
100
AcDbEntity
  8
Hachura
 62
7
370
25
100
AcDbLine
 10
2763.8215400789295
 20
2059.8892460343827
 30
0.0
 11
2764.466358895167
 21
2058.59960844479
 31
0.0
  0
LINE
  5
BB
330
17
100
AcDbEntity
  8
Hachura
 62
7
370
25
100
AcDbLine
 10
2764.7872100474424
 20
2058.275148111577
 30
0.0
 11
2764.7872100474424
 21
2059.5649930212453
 31
0.0
  0
LINE
  5
BC
330
17
100
AcDbEntity
  8
Hachura
 62
7
370
25
100
AcDbLine
 10
2764.1440013063484
 20
2057.9544786698802
 30
0.0
 11
2763.1766176240953
 21
2059.8892460343827
 31
0.0
  0
LINE
  5
BD
330
17
100
AcDbEntity
  8
Hachura
 62
7
370
25
100
AcDbLine
 10
2764.464748798584
 20
2059.8874542486624
 30
0.0
 11
2764.464748798584
 21
2057.95268688416
 31
0.0
  0
LINE
  5
BE
330
17
100
AcDbEntity
  8
Hachura
 62
7
370
25
100
AcDbLine
 10
2752.986842842009
 20
2064.482809526507
 30
0.0
 11
2752.986842842009
 21
2056.668147781876
 31
0.0
  0
LINE
  5
BF
330
17
100
AcDbEntity
  8
Hachura
 62
7
370
25
100
AcDbLine
 10
2759.6940363701387
 20
2060.66315300591
 30
0.0
 11
2759.6940363701387
 21
2057.309556215046
 31
0.0
  0
LINE
  5
C0
330
17
100
AcDbEntity
  8
Hachura
 62
7
370
25
100
AcDbLine
 10
2759.62631951281
 20
2060.66315300591
 30
0.0
 11
2759.62631951281
 21
2057.309556215046
 31
0.0
  0
LINE
  5
C1
330
17
100
AcDbEntity
  8
Hachura
 62
7
370
25
100
AcDbLine
 10
2756.469424095969
 20
2057.0515872674146
 30
0.0
 11
2756.469424095969
 21
2060.9211219964195
 31
0.0
  0
LINE
  5
C2
330
17
100
AcDbEntity
  8
Hachura
 62
7
370
25
100
AcDbLine
 10
2753.889734276633
 20
2052.537130083578
 30
0.0
 11
2753.889734276633
 21
2065.435579180257
 31
0.0
  0
LINE
  5
C3
330
17
100
AcDbEntity
  8
Hachura
 62
7
370
25
100
AcDbLine
 10
2752.986842842009
 20
2065.435579180257
 30
0.0
 11
2752.986842842009
 21
2052.540671847971
 31
0.0
  0
LINE
  5
C4
330
17
100
AcDbEntity
  8
Hachura
 62
7
370
25
100
AcDbLine
 10
2759.6940363701387
 20
2058.341432177083
 30
0.0
 11
2756.469424095969
 21
2058.341432177083
 31
0.0
  0
LINE
  5
C5
330
17
100
AcDbEntity
  8
Hachura
 62
7
370
25
100
AcDbLine
 10
2759.6940363701387
 20
2057.309556215046
 30
0.0
 11
2756.469424095969
 21
2057.309556215046
 31
0.0
  0
LINE
  5
C6
330
17
100
AcDbEntity
  8
Hachura
 62
7
370
25
100
AcDbLine
 10
2753.889734276633
 20
2058.986354631917
 30
0.0
 11
2753.889734276633
 21
2057.0515872674146
 31
0.0
  0
LINE
  5
C7
330
17
100
AcDbEntity
  8
Hachura
 62
7
370
25
100
AcDbLine
 10
2753.889734276633
 20
2057.6965097222487
 30
0.0
 11
2753.889734276633
 21
2058.341432177083
 31
0.0
  0
LINE
  5
C8
330
17
100
AcDbEntity
  8
Hachura
 62
7
370
25
100
AcDbLine
 10
2753.889734276633
 20
2058.980714269556
 30
0.0
 11
2752.986842842009
 21
2058.980714269556
 31
0.0
  0
LINE
  5
C9
330
17
100
AcDbEntity
  8
Hachura
 62
7
370
25
100
AcDbLine
 10
2753.889734276633
 20
2058.674172578207
 30
0.0
 11
2755.888893466091
 21
2058.674172578207
 31
0.0
  0
LINE
  5
CA
330
17
100
AcDbEntity
  8
Hachura
 62
7
370
25
100
AcDbLine
 10
2755.888893466091
 20
2059.1901105592265
 30
0.0
 11
2753.889734276633
 21
2059.1901105592265
 31
0.0
  0
LINE
  5
CB
330
17
100
AcDbEntity
  8
Hachura
 62
7
370
25
100
AcDbLine
 10
2753.908008833701
 20
2055.946478008185
 30
0.0
 11
2752.980786158619
 21
2055.946478008185
 31
0.0
  0
LINE
  5
CC
330
17
100
AcDbEntity
  8
Hachura
 62
7
370
25
100
AcDbLine
 10
2753.1368887199314
 20
2058.026738999169
 30
0.0
 11
2753.5699565256514
 21
2058.026738999169
 31
0.0
  0
LINE
  5
CD
330
17
100
AcDbEntity
  8
Hachura
 62
7
370
25
100
AcDbLine
 10
2753.889734276633
 20
2057.0515872674146
 30
0.0
 11
2756.469424095969
 21
2057.0515872674146
 31
0.0
  0
LINE
  5
CE
330
17
100
AcDbEntity
  8
Hachura
 62
7
370
25
100
AcDbLine
 10
2753.5699565256514
 20
2058.026738999169
 30
0.0
 11
2753.7818111747656
 21
2058.026738999169
 31
0.0
  0
LINE
  5
CF
330
17
100
AcDbEntity
  8
Hachura
 62
7
370
25
100
AcDbLine
 10
2752.986842842009
 20
2052.540671847971
 30
0.0
 11
2758.123511424095
 21
2052.540671847971
 31
0.0
  0
LINE
  5
D0
330
17
100
AcDbEntity
  8
Hachura
 62
7
370
25
100
AcDbLine
 10
2758.146222480681
 20
2054.213928457571
 30
0.0
 11
2755.935914162828
 21
2054.7955885316255
 31
0.0
  0
LINE
  5
D1
330
17
100
AcDbEntity
  8
Hachura
 62
7
370
25
100
AcDbLine
 10
2758.146222480681
 20
2052.537130083578
 30
0.0
 11
2758.146222480681
 21
2054.213928457571
 31
0.0
  0
LINE
  5
D2
330
17
100
AcDbEntity
  8
Hachura
 62
7
370
25
100
AcDbLine
 10
2755.6955171565996
 20
2055.1074325699988
 30
0.0
 11
2755.6955171565996
 21
2057.0515872674146
 31
0.0
  0
LINE
  5
D3
330
17
100
AcDbEntity
  8
Hachura
 62
7
370
25
100
AcDbLine
 10
2753.889734276633
 20
2052.537130083578
 30
0.0
 11
2753.889734276633
 21
2057.6965097222487
 31
0.0
  0
LINE
  5
D4
330
17
100
AcDbEntity
  8
Hachura
 62
7
370
25
100
AcDbLine
 10
2758.146222480681
 20
2063.758780763386
 30
0.0
 11
2755.935914162828
 21
2063.1771206893313
 31
0.0
  0
LINE
  5
D5
330
17
100
AcDbEntity
  8
Hachura
 62
7
370
25
100
AcDbLine
 10
2756.469424095969
 20
2060.66315300591
 30
0.0
 11
2759.6940363701387
 21
2060.66315300591
 31
0.0
  0
LINE
  5
D6
330
17
100
AcDbEntity
  8
Hachura
 62
7
370
25
100
AcDbLine
 10
2759.6940363701387
 20
2059.8892460343827
 30
0.0
 11
2756.469424095969
 21
2059.8892460343827
 31
0.0
  0
LINE
  5
D7
330
17
100
AcDbEntity
  8
Hachura
 62
7
370
25
100
AcDbLine
 10
2753.908008833701
 20
2062.012492602395
 30
0.0
 11
2752.986842842009
 21
2062.012492602395
 31
0.0
  0
LINE
  5
D8
330
17
100
AcDbEntity
  8
Hachura
 62
7
370
25
100
AcDbLine
 10
2753.7634332578136
 20
2059.9615063636716
 30
0.0
 11
2753.3303654628144
 21
2059.9615063636716
 31
0.0
  0
LINE
  5
D9
330
17
100
AcDbEntity
  8
Hachura
 62
7
370
25
100
AcDbLine
 10
2753.908008833701
 20
2063.44474620726
 30
0.0
 11
2752.980786158619
 21
2063.44474620726
 31
0.0
  0
LINE
  5
DA
330
17
100
AcDbEntity
  8
Hachura
 62
7
370
25
100
AcDbLine
 10
2756.469424095969
 20
2060.9211219964195
 30
0.0
 11
2753.889734276633
 21
2060.9211219964195
 31
0.0
  0
LINE
  5
DB
330
17
100
AcDbEntity
  8
Hachura
 62
7
370
25
100
AcDbLine
 10
2756.469424095969
 20
2060.9211219964195
 30
0.0
 11
2756.469424095969
 21
2060.66315300591
 31
0.0
  0
LINE
  5
DC
330
17
100
AcDbEntity
  8
Hachura
 62
7
370
25
100
AcDbLine
 10
2756.469424095969
 20
2060.9211219964195
 30
0.0
 11
2756.469424095969
 21
2060.66315300591
 31
0.0
  0
LINE
  5
DD
330
17
100
AcDbEntity
  8
Hachura
 62
7
370
25
100
AcDbLine
 10
2755.6955171565996
 20
2062.8652766509554
 30
0.0
 11
2755.6955171565996
 21
2060.9172400727407
 31
0.0
  0
LINE
  5
DE
330
17
100
AcDbEntity
  8
Hachura
 62
7
370
25
100
AcDbLine
 10
2753.889734276633
 20
2065.435579180257
 30
0.0
 11
2758.146222480681
 21
2065.435579180257
 31
0.0
  0
LINE
  5
DF
330
17
100
AcDbEntity
  8
Hachura
 62
7
370
25
100
AcDbLine
 10
2753.889734276633
 20
2065.435579180257
 30
0.0
 11
2752.986842842009
 21
2065.435579180257
 31
0.0
  0
LINE
  5
E0
330
17
100
AcDbEntity
  8
Hachura
 62
7
370
25
100
AcDbLine
 10
2753.908008833701
 20
2064.287248123462
 30
0.0
 11
2752.980786158619
 21
2064.287248123462
 31
0.0
  0
LINE
  5
E1
330
17
100
AcDbEntity
  8
Hachura
 62
7
370
25
100
AcDbLine
 10
2753.908008833701
 20
2064.750624355321
 30
0.0
 11
2752.980786158619
 21
2064.750624355321
 31
0.0
  0
LINE
  5
E2
330
17
100
AcDbEntity
  8
Hachura
 62
7
370
25
100
AcDbLine
 10
2753.908008833701
 20
2065.0876250874985
 30
0.0
 11
2752.980786158619
 21
2065.0876250874985
 31
0.0
  0
LINE
  5
E3
330
17
100
AcDbEntity
  8
Hachura
 62
7
370
25
100
AcDbLine
 10
2753.908008833701
 20
2065.2982508345435
 30
0.0
 11
2752.980786158619
 21
2065.2982508345435
 31
0.0
  0
LINE
  5
E4
330
17
100
AcDbEntity
  8
Hachura
 62
7
370
25
100
AcDbLine
 10
2758.146222480681
 20
2065.435579180257
 30
0.0
 11
2758.146222480681
 21
2063.758780763386
 31
0.0
  0
LINE
  5
E5
330
17
100
AcDbEntity
  8
Hachura
 62
7
370
25
100
AcDbLine
 10
2759.6940363701387
 20
2059.1153390868717
 30
0.0
 11
2760.327509652965
 21
2057.8483925339065
 31
0.0
  0
LINE
  5
E6
330
17
100
AcDbEntity
  8
Hachura
 62
7
370
25
100
AcDbLine
 10
2759.6940363701387
 20
2058.857370109053
 30
0.0
 11
2760.1454820915233
 21
2057.9544786662823
 31
0.0
  0
LINE
  5
E7
330
17
100
AcDbEntity
  8
Hachura
 62
7
370
25
100
AcDbLine
 10
2759.6940363701387
 20
2057.9544786662814
 30
0.0
 11
2760.1454820915237
 21
2057.9544786662814
 31
0.0
  0
LINE
  5
E8
330
17
100
AcDbEntity
  8
Hachura
 62
7
370
25
100
AcDbLine
 10
2753.908008833701
 20
2054.531504820968
 30
0.0
 11
2752.980786158619
 21
2054.531504820968
 31
0.0
  0
LINE
  5
E9
330
17
100
AcDbEntity
  8
Hachura
 62
7
370
25
100
AcDbLine
 10
2753.908008833701
 20
2053.689002904766
 30
0.0
 11
2752.980786158619
 21
2053.689002904766
 31
0.0
  0
LINE
  5
EA
330
17
100
AcDbEntity
  8
Hachura
 62
7
370
25
100
AcDbLine
 10
2753.908008833701
 20
2053.225626672907
 30
0.0
 11
2752.980786158619
 21
2053.225626672907
 31
0.0
  0
LINE
  5
EB
330
17
100
AcDbEntity
  8
Hachura
 62
7
370
25
100
AcDbLine
 10
2753.908008833701
 20
2052.8886259407295
 30
0.0
 11
2752.980786158619
 21
2052.8886259407295
 31
0.0
  0
LINE
  5
EC
330
17
100
AcDbEntity
  8
Hachura
 62
7
370
25
100
AcDbLine
 10
2753.908008833701
 20
2052.6780001936845
 30
0.0
 11
2752.980786158619
 21
2052.6780001936845
 31
0.0
  0
LINE
  5
ED
330
17
100
AcDbEntity
  8
Hachura
 62
7
370
25
100
AcDbLine
 10
2618.990544869966
 20
2057.9551009340194
 30
0.0
 11
2618.345622415132
 21
2057.9551009340194
 31
0.0
  0
LINE
  5
EE
330
17
100
AcDbEntity
  8
Hachura
 62
7
370
25
100
AcDbLine
 10
2617.8296844555516
 20
2057.9551009340194
 30
0.0
 11
2618.7970681378047
 21
2059.889868298522
 31
0.0
  0
LINE
  5
EF
330
17
100
AcDbEntity
  8
Hachura
 62
7
370
25
100
AcDbLine
 10
2617.922327296104
 20
2057.882417603173
 30
0.0
 11
2619.0051336320043
 21
2060.048030360731
 31
0.0
  0
LINE
  5
F0
330
17
100
AcDbEntity
  8
Hachura
 62
7
370
25
100
AcDbLine
 10
2619.2338837094617
 20
2059.9895924703087
 30
0.0
 11
2618.16359485369
 21
2057.8490148016435
 31
0.0
  0
LINE
  5
F1
330
17
100
AcDbEntity
  8
Hachura
 62
7
370
25
100
AcDbLine
 10
2619.313006097381
 20
2059.889868298522
 30
0.0
 11
2618.345622415132
 21
2057.9551009340194
 31
0.0
  0
LINE
  5
F2
330
17
100
AcDbEntity
  8
Hachura
 62
7
370
25
100
AcDbLine
 10
2619.957928552215
 20
2059.889868298522
 30
0.0
 11
2619.313006097381
 21
2059.889868298522
 31
0.0
  0
LINE
  5
F3
330
17
100
AcDbEntity
  8
Hachura
 62
7
370
25
100
AcDbLine
 10
2621.634726936927
 20
2059.889868298522
 30
0.0
 11
2622.2796493917613
 21
2059.889868298522
 31
0.0
  0
LINE
  5
F4
330
17
100
AcDbEntity
  8
Hachura
 62
7
370
25
100
AcDbLine
 10
2620.6857211716324
 20
2059.889868298522
 30
0.0
 11
2620.4738665225173
 21
2059.889868298522
 31
0.0
  0
LINE
  5
F5
330
17
100
AcDbEntity
  8
Hachura
 62
7
370
25
100
AcDbLine
 10
2620.6857211716324
 20
2059.889868298522
 30
0.0
 11
2621.118788977347
 21
2059.889868298522
 31
0.0
  0
LINE
  5
F6
330
17
100
AcDbEntity
  8
Hachura
 62
7
370
25
100
AcDbLine
 10
2620.151405295098
 20
2057.9551009340194
 30
0.0
 11
2619.5064828402637
 21
2057.9551009340194
 31
0.0
  0
LINE
  5
F7
330
17
100
AcDbEntity
  8
Hachura
 62
7
370
25
100
AcDbLine
 10
2621.3122657095123
 20
2057.9551009340194
 30
0.0
 11
2620.667343254678
 21
2057.9551009340194
 31
0.0
  0
LINE
  5
F8
330
17
100
AcDbEntity
  8
Hachura
 62
7
370
25
100
AcDbLine
 10
2618.990544869966
 20
2057.9551009340194
 30
0.0
 11
2619.957928552215
 21
2059.889868298522
 31
0.0
  0
LINE
  5
F9
330
17
100
AcDbEntity
  8
Hachura
 62
7
370
25
100
AcDbLine
 10
2619.083187721236
 20
2057.882417603173
 30
0.0
 11
2620.1659940571362
 21
2060.048030360731
 31
0.0
  0
LINE
  5
FA
330
17
100
AcDbEntity
  8
Hachura
 62
7
370
25
100
AcDbLine
 10
2620.394744123872
 20
2059.9895924703087
 30
0.0
 11
2619.324455278822
 21
2057.8490148016435
 31
0.0
  0
LINE
  5
FB
330
17
100
AcDbEntity
  8
Hachura
 62
7
370
25
100
AcDbLine
 10
2620.4738665225173
 20
2059.889868298522
 30
0.0
 11
2619.5064828402637
 21
2057.9551009340194
 31
0.0
  0
LINE
  5
FC
330
17
100
AcDbEntity
  8
Hachura
 62
7
370
25
100
AcDbLine
 10
2621.3122657095123
 20
2057.9551009340194
 30
0.0
 11
2622.2796493917613
 21
2059.889868298522
 31
0.0
  0
LINE
  5
FD
330
17
100
AcDbEntity
  8
Hachura
 62
7
370
25
100
AcDbLine
 10
2620.151405295098
 20
2057.9551009340194
 30
0.0
 11
2621.118788977347
 21
2059.889868298522
 31
0.0
  0
LINE
  5
FE
330
17
100
AcDbEntity
  8
Hachura
 62
7
370
25
100
AcDbLine
 10
2620.2440481356502
 20
2057.882417603173
 30
0.0
 11
2621.3268544715506
 21
2060.048030360731
 31
0.0
  0
LINE
  5
FF
330
17
100
AcDbEntity
  8
Hachura
 62
7
370
25
100
AcDbLine
 10
2621.5556045382864
 20
2059.9895924703087
 30
0.0
 11
2620.4853156932368
 21
2057.8490148016435
 31
0.0
  0
LINE
  5
100
330
17
100
AcDbEntity
  8
Hachura
 62
7
370
25
100
AcDbLine
 10
2621.634726936927
 20
2059.889868298522
 30
0.0
 11
2620.667343254678
 21
2057.9551009340194
 31
0.0
  0
LINE
  5
101
330
17
100
AcDbEntity
  8
Hachura
 62
7
370
25
100
AcDbLine
 10
2617.507326866733
 20
2059.632106628087
 30
0.0
 11
2617.6362077233903
 21
2059.889868298522
 31
0.0
  0
LINE
  5
102
330
17
100
AcDbEntity
  8
Hachura
 62
7
370
25
100
AcDbLine
 10
2617.507326866733
 20
2059.3741376375774
 30
0.0
 11
2617.8442732283115
 21
2060.048030360731
 31
0.0
  0
LINE
  5
103
330
17
100
AcDbEntity
  8
Hachura
 62
7
370
25
100
AcDbLine
 10
2617.6362077233903
 20
2059.889868298522
 30
0.0
 11
2617.507326866733
 21
2059.889868298522
 31
0.0
  0
LINE
  5
104
330
17
100
AcDbEntity
  8
Hachura
 62
7
370
25
100
AcDbLine
 10
2617.508936963316
 20
2059.8880765128015
 30
0.0
 11
2617.1864757144576
 21
2059.5656152853844
 31
0.0
  0
LINE
  5
105
330
17
100
AcDbEntity
  8
Hachura
 62
7
370
25
100
AcDbLine
 10
2618.1521456829705
 20
2059.889868298522
 30
0.0
 11
2618.7970681378047
 21
2059.889868298522
 31
0.0
  0
LINE
  5
106
330
17
100
AcDbEntity
  8
Hachura
 62
7
370
25
100
AcDbLine
 10
2617.8296844555516
 20
2057.9551009340194
 30
0.0
 11
2617.507326866733
 21
2057.9551009340194
 31
0.0
  0
LINE
  5
107
330
17
100
AcDbEntity
  8
Hachura
 62
7
370
25
100
AcDbLine
 10
2617.5089369418765
 20
2057.953223647528
 30
0.0
 11
2617.50901435995
 21
2057.953223647528
 31
0.0
  0
LINE
  5
108
330
17
100
AcDbEntity
  8
Hachura
 62
7
370
25
100
AcDbLine
 10
2617.5089369418765
 20
2057.953223647528
 30
0.0
 11
2617.1864757144576
 21
2058.275770375716
 31
0.0
  0
LINE
  5
109
330
17
100
AcDbEntity
  8
Hachura
 62
7
370
25
100
AcDbLine
 10
2619.718337500101
 20
2057.9551009340194
 30
0.0
 11
2619.506482850986
 21
2057.9551009340194
 31
0.0
  0
LINE
  5
10A
330
17
100
AcDbEntity
  8
Hachura
 62
7
370
25
100
AcDbLine
 10
2618.0730232950473
 20
2059.9895924703087
 30
0.0
 11
2617.507326866733
 21
2058.85819965656
 31
0.0
  0
LINE
  5
10B
330
17
100
AcDbEntity
  8
Hachura
 62
7
370
25
100
AcDbLine
 10
2618.1521456829705
 20
2059.889868298522
 30
0.0
 11
2617.507326866733
 21
2058.6002307089293
 31
0.0
  0
LINE
  5
10C
330
17
100
AcDbEntity
  8
Hachura
 62
7
370
25
100
AcDbLine
 10
2617.1864757144576
 20
2058.275770375716
 30
0.0
 11
2617.1864757144576
 21
2059.5656152853844
 31
0.0
  0
LINE
  5
10D
330
17
100
AcDbEntity
  8
Hachura
 62
7
370
25
100
AcDbLine
 10
2617.8296844555516
 20
2057.9551009340194
 30
0.0
 11
2618.7970681378047
 21
2059.889868298522
 31
0.0
  0
LINE
  5
10E
330
17
100
AcDbEntity
  8
Hachura
 62
7
370
25
100
AcDbLine
 10
2617.508936963316
 20
2059.8880765128015
 30
0.0
 11
2617.508936963316
 21
2057.953309148299
 31
0.0
  0
LINE
  5
10F
330
17
100
AcDbEntity
  8
Hachura
 62
7
370
25
100
AcDbLine
 10
2628.986842919891
 20
2064.483431790646
 30
0.0
 11
2628.986842919891
 21
2056.668770046015
 31
0.0
  0
LINE
  5
110
330
17
100
AcDbEntity
  8
Hachura
 62
7
370
25
100
AcDbLine
 10
2622.2796493917613
 20
2060.663775270049
 30
0.0
 11
2622.2796493917613
 21
2057.310178479185
 31
0.0
  0
LINE
  5
111
330
17
100
AcDbEntity
  8
Hachura
 62
7
370
25
100
AcDbLine
 10
2622.34736624909
 20
2060.663775270049
 30
0.0
 11
2622.34736624909
 21
2057.310178479185
 31
0.0
  0
LINE
  5
112
330
17
100
AcDbEntity
  8
Hachura
 62
7
370
25
100
AcDbLine
 10
2625.504261665931
 20
2057.0522095315537
 30
0.0
 11
2625.504261665931
 21
2060.9217442605586
 31
0.0
  0
LINE
  5
113
330
17
100
AcDbEntity
  8
Hachura
 62
7
370
25
100
AcDbLine
 10
2628.083951485267
 20
2052.5377523477173
 30
0.0
 11
2628.083951485267
 21
2065.436201444396
 31
0.0
  0
LINE
  5
114
330
17
100
AcDbEntity
  8
Hachura
 62
7
370
25
100
AcDbLine
 10
2628.986842919891
 20
2065.436201444396
 30
0.0
 11
2628.986842919891
 21
2052.5412941121103
 31
0.0
  0
LINE
  5
115
330
17
100
AcDbEntity
  8
Hachura
 62
7
370
25
100
AcDbLine
 10
2622.2796493917613
 20
2058.342054441222
 30
0.0
 11
2625.504261665931
 21
2058.342054441222
 31
0.0
  0
LINE
  5
116
330
17
100
AcDbEntity
  8
Hachura
 62
7
370
25
100
AcDbLine
 10
2622.2796493917613
 20
2057.310178479185
 30
0.0
 11
2625.504261665931
 21
2057.310178479185
 31
0.0
  0
LINE
  5
117
330
17
100
AcDbEntity
  8
Hachura
 62
7
370
25
100
AcDbLine
 10
2628.083951485267
 20
2058.986976896056
 30
0.0
 11
2628.083951485267
 21
2057.0522095315537
 31
0.0
  0
LINE
  5
118
330
17
100
AcDbEntity
  8
Hachura
 62
7
370
25
100
AcDbLine
 10
2628.083951485267
 20
2057.697131986388
 30
0.0
 11
2628.083951485267
 21
2058.342054441222
 31
0.0
  0
LINE
  5
119
330
17
100
AcDbEntity
  8
Hachura
 62
7
370
25
100
AcDbLine
 10
2628.083951485267
 20
2058.981336533695
 30
0.0
 11
2628.986842919891
 21
2058.981336533695
 31
0.0
  0
LINE
  5
11A
330
17
100
AcDbEntity
  8
Hachura
 62
7
370
25
100
AcDbLine
 10
2628.083951485267
 20
2058.6747948423463
 30
0.0
 11
2626.084792295809
 21
2058.6747948423463
 31
0.0
  0
LINE
  5
11B
330
17
100
AcDbEntity
  8
Hachura
 62
7
370
25
100
AcDbLine
 10
2626.084792295809
 20
2059.1907328233656
 30
0.0
 11
2628.083951485267
 21
2059.1907328233656
 31
0.0
  0
LINE
  5
11C
330
17
100
AcDbEntity
  8
Hachura
 62
7
370
25
100
AcDbLine
 10
2628.065676928199
 20
2055.947100272324
 30
0.0
 11
2628.992899603281
 21
2055.947100272324
 31
0.0
  0
LINE
  5
11D
330
17
100
AcDbEntity
  8
Hachura
 62
7
370
25
100
AcDbLine
 10
2628.8367970419686
 20
2058.027361263308
 30
0.0
 11
2628.4037292362486
 21
2058.027361263308
 31
0.0
  0
LINE
  5
11E
330
17
100
AcDbEntity
  8
Hachura
 62
7
370
25
100
AcDbLine
 10
2628.083951485267
 20
2057.0522095315537
 30
0.0
 11
2625.504261665931
 21
2057.0522095315537
 31
0.0
  0
LINE
  5
11F
330
17
100
AcDbEntity
  8
Hachura
 62
7
370
25
100
AcDbLine
 10
2628.4037292362486
 20
2058.027361263308
 30
0.0
 11
2628.1918745871344
 21
2058.027361263308
 31
0.0
  0
LINE
  5
120
330
17
100
AcDbEntity
  8
Hachura
 62
7
370
25
100
AcDbLine
 10
2628.986842919891
 20
2052.5412941121103
 30
0.0
 11
2623.850174337805
 21
2052.5412941121103
 31
0.0
  0
LINE
  5
121
330
17
100
AcDbEntity
  8
Hachura
 62
7
370
25
100
AcDbLine
 10
2623.827463281219
 20
2054.21455072171
 30
0.0
 11
2626.037771599072
 21
2054.7962107957646
 31
0.0
  0
LINE
  5
122
330
17
100
AcDbEntity
  8
Hachura
 62
7
370
25
100
AcDbLine
 10
2623.827463281219
 20
2052.5377523477173
 30
0.0
 11
2623.827463281219
 21
2054.21455072171
 31
0.0
  0
LINE
  5
123
330
17
100
AcDbEntity
  8
Hachura
 62
7
370
25
100
AcDbLine
 10
2626.2781686053004
 20
2055.108054834138
 30
0.0
 11
2626.2781686053004
 21
2057.0522095315537
 31
0.0
  0
LINE
  5
124
330
17
100
AcDbEntity
  8
Hachura
 62
7
370
25
100
AcDbLine
 10
2628.083951485267
 20
2052.5377523477173
 30
0.0
 11
2628.083951485267
 21
2057.697131986388
 31
0.0
  0
LINE
  5
125
330
17
100
AcDbEntity
  8
Hachura
 62
7
370
25
100
AcDbLine
 10
2623.827463281219
 20
2063.759403027525
 30
0.0
 11
2626.037771599072
 21
2063.1777429534704
 31
0.0
  0
LINE
  5
126
330
17
100
AcDbEntity
  8
Hachura
 62
7
370
25
100
AcDbLine
 10
2625.504261665931
 20
2060.663775270049
 30
0.0
 11
2622.2796493917613
 21
2060.663775270049
 31
0.0
  0
LINE
  5
127
330
17
100
AcDbEntity
  8
Hachura
 62
7
370
25
100
AcDbLine
 10
2622.2796493917613
 20
2059.889868298522
 30
0.0
 11
2625.504261665931
 21
2059.889868298522
 31
0.0
  0
LINE
  5
128
330
17
100
AcDbEntity
  8
Hachura
 62
7
370
25
100
AcDbLine
 10
2628.065676928199
 20
2062.013114866534
 30
0.0
 11
2628.986842919891
 21
2062.013114866534
 31
0.0
  0
LINE
  5
129
330
17
100
AcDbEntity
  8
Hachura
 62
7
370
25
100
AcDbLine
 10
2628.2102525040864
 20
2059.9621286278107
 30
0.0
 11
2628.6433202990856
 21
2059.9621286278107
 31
0.0
  0
LINE
  5
12A
330
17
100
AcDbEntity
  8
Hachura
 62
7
370
25
100
AcDbLine
 10
2628.065676928199
 20
2063.445368471399
 30
0.0
 11
2628.992899603281
 21
2063.445368471399
 31
0.0
  0
LINE
  5
12B
330
17
100
AcDbEntity
  8
Hachura
 62
7
370
25
100
AcDbLine
 10
2625.504261665931
 20
2060.9217442605586
 30
0.0
 11
2628.083951485267
 21
2060.9217442605586
 31
0.0
  0
LINE
  5
12C
330
17
100
AcDbEntity
  8
Hachura
 62
7
370
25
100
AcDbLine
 10
2625.504261665931
 20
2060.9217442605586
 30
0.0
 11
2625.504261665931
 21
2060.663775270049
 31
0.0
  0
LINE
  5
12D
330
17
100
AcDbEntity
  8
Hachura
 62
7
370
25
100
AcDbLine
 10
2625.504261665931
 20
2060.9217442605586
 30
0.0
 11
2625.504261665931
 21
2060.663775270049
 31
0.0
  0
LINE
  5
12E
330
17
100
AcDbEntity
  8
Hachura
 62
7
370
25
100
AcDbLine
 10
2626.2781686053004
 20
2062.8658989150945
 30
0.0
 11
2626.2781686053004
 21
2060.91786233688
 31
0.0
  0
LINE
  5
12F
330
17
100
AcDbEntity
  8
Hachura
 62
7
370
25
100
AcDbLine
 10
2628.083951485267
 20
2065.436201444396
 30
0.0
 11
2623.827463281219
 21
2065.436201444396
 31
0.0
  0
LINE
  5
130
330
17
100
AcDbEntity
  8
Hachura
 62
7
370
25
100
AcDbLine
 10
2628.083951485267
 20
2065.436201444396
 30
0.0
 11
2628.986842919891
 21
2065.436201444396
 31
0.0
  0
LINE
  5
131
330
17
100
AcDbEntity
  8
Hachura
 62
7
370
25
100
AcDbLine
 10
2628.065676928199
 20
2064.2878703876013
 30
0.0
 11
2628.992899603281
 21
2064.2878703876013
 31
0.0
  0
LINE
  5
132
330
17
100
AcDbEntity
  8
Hachura
 62
7
370
25
100
AcDbLine
 10
2628.065676928199
 20
2064.7512466194603
 30
0.0
 11
2628.992899603281
 21
2064.7512466194603
 31
0.0
  0
LINE
  5
133
330
17
100
AcDbEntity
  8
Hachura
 62
7
370
25
100
AcDbLine
 10
2628.065676928199
 20
2065.0882473516376
 30
0.0
 11
2628.992899603281
 21
2065.0882473516376
 31
0.0
  0
LINE
  5
134
330
17
100
AcDbEntity
  8
Hachura
 62
7
370
25
100
AcDbLine
 10
2628.065676928199
 20
2065.2988730986826
 30
0.0
 11
2628.992899603281
 21
2065.2988730986826
 31
0.0
  0
LINE
  5
135
330
17
100
AcDbEntity
  8
Hachura
 62
7
370
25
100
AcDbLine
 10
2623.827463281219
 20
2065.436201444396
 30
0.0
 11
2623.827463281219
 21
2063.759403027525
 31
0.0
  0
LINE
  5
136
330
17
100
AcDbEntity
  8
Hachura
 62
7
370
25
100
AcDbLine
 10
2622.2796493917613
 20
2059.115961351011
 30
0.0
 11
2621.646176108935
 21
2057.8490147980456
 31
0.0
  0
LINE
  5
137
330
17
100
AcDbEntity
  8
Hachura
 62
7
370
25
100
AcDbLine
 10
2622.2796493917613
 20
2058.8579923731922
 30
0.0
 11
2621.8282036703768
 21
2057.9551009304214
 31
0.0
  0
LINE
  5
138
330
17
100
AcDbEntity
  8
Hachura
 62
7
370
25
100
AcDbLine
 10
2622.2796493917613
 20
2057.9551009304205
 30
0.0
 11
2621.8282036703763
 21
2057.9551009304205
 31
0.0
  0
LINE
  5
139
330
17
100
AcDbEntity
  8
Hachura
 62
7
370
25
100
AcDbLine
 10
2628.065676928199
 20
2054.5321270851073
 30
0.0
 11
2628.992899603281
 21
2054.5321270851073
 31
0.0
  0
LINE
  5
13A
330
17
100
AcDbEntity
  8
Hachura
 62
7
370
25
100
AcDbLine
 10
2628.065676928199
 20
2053.689625168905
 30
0.0
 11
2628.992899603281
 21
2053.689625168905
 31
0.0
  0
LINE
  5
13B
330
17
100
AcDbEntity
  8
Hachura
 62
7
370
25
100
AcDbLine
 10
2628.065676928199
 20
2053.226248937046
 30
0.0
 11
2628.992899603281
 21
2053.226248937046
 31
0.0
  0
LINE
  5
13C
330
17
100
AcDbEntity
  8
Hachura
 62
7
370
25
100
AcDbLine
 10
2628.065676928199
 20
2052.8892482048686
 30
0.0
 11
2628.992899603281
 21
2052.8892482048686
 31
0.0
  0
LINE
  5
13D
330
17
100
AcDbEntity
  8
Hachura
 62
7
370
25
100
AcDbLine
 10
2628.065676928199
 20
2052.6786224578236
 30
0.0
 11
2628.992899603281
 21
2052.6786224578236
 31
0.0
  0
LINE
  5
13E
330
17
100
AcDbEntity
  8
Hachura
 62
7
370
25
100
AcDbLine
 10
2763.787210047413
 20
2058.987865097405
 30
0.0
 11
2621.98684291989
 21
2058.97932388653
 31
0.0
  0
LINE
  5
13F
330
17
100
AcDbEntity
  8
Hachura
 62
7
370
25
100
AcDbLine
 10
2762.983140891934
 20
2240.0223843094846
 30
0.0
 11
2763.628063346768
 21
2240.0223843094846
 31
0.0
  0
LINE
  5
140
330
17
100
AcDbEntity
  8
Hachura
 62
7
370
25
100
AcDbLine
 10
2764.1440013063484
 20
2240.0223843094846
 30
0.0
 11
2763.1766176240953
 21
2238.087616944982
 31
0.0
  0
LINE
  5
141
330
17
100
AcDbEntity
  8
Hachura
 62
7
370
25
100
AcDbLine
 10
2764.051358465796
 20
2240.095067640331
 30
0.0
 11
2762.9685521298957
 21
2237.929454882773
 31
0.0
  0
LINE
  5
142
330
17
100
AcDbEntity
  8
Hachura
 62
7
370
25
100
AcDbLine
 10
2762.7398020524383
 20
2237.987892773195
 30
0.0
 11
2763.81009090821
 21
2240.1284704418604
 31
0.0
  0
LINE
  5
143
330
17
100
AcDbEntity
  8
Hachura
 62
7
370
25
100
AcDbLine
 10
2762.660679664519
 20
2238.087616944982
 30
0.0
 11
2763.628063346768
 21
2240.0223843094846
 31
0.0
  0
LINE
  5
144
330
17
100
AcDbEntity
  8
Hachura
 62
7
370
25
100
AcDbLine
 10
2762.015757209685
 20
2238.087616944982
 30
0.0
 11
2762.660679664519
 21
2238.087616944982
 31
0.0
  0
LINE
  5
145
330
17
100
AcDbEntity
  8
Hachura
 62
7
370
25
100
AcDbLine
 10
2760.338958824973
 20
2238.087616944982
 30
0.0
 11
2759.6940363701387
 21
2238.087616944982
 31
0.0
  0
LINE
  5
146
330
17
100
AcDbEntity
  8
Hachura
 62
7
370
25
100
AcDbLine
 10
2761.2879645902676
 20
2238.087616944982
 30
0.0
 11
2761.4998192393828
 21
2238.087616944982
 31
0.0
  0
LINE
  5
147
330
17
100
AcDbEntity
  8
Hachura
 62
7
370
25
100
AcDbLine
 10
2761.2879645902676
 20
2238.087616944982
 30
0.0
 11
2760.854896784553
 21
2238.087616944982
 31
0.0
  0
LINE
  5
148
330
17
100
AcDbEntity
  8
Hachura
 62
7
370
25
100
AcDbLine
 10
2761.822280466802
 20
2240.0223843094846
 30
0.0
 11
2762.4672029216363
 21
2240.0223843094846
 31
0.0
  0
LINE
  5
149
330
17
100
AcDbEntity
  8
Hachura
 62
7
370
25
100
AcDbLine
 10
2760.6614200523877
 20
2240.0223843094846
 30
0.0
 11
2761.306342507222
 21
2240.0223843094846
 31
0.0
  0
LINE
  5
14A
330
17
100
AcDbEntity
  8
Hachura
 62
7
370
25
100
AcDbLine
 10
2762.983140891934
 20
2240.0223843094846
 30
0.0
 11
2762.015757209685
 21
2238.087616944982
 31
0.0
  0
LINE
  5
14B
330
17
100
AcDbEntity
  8
Hachura
 62
7
370
25
100
AcDbLine
 10
2762.890498040664
 20
2240.095067640331
 30
0.0
 11
2761.807691704764
 21
2237.929454882773
 31
0.0
  0
LINE
  5
14C
330
17
100
AcDbEntity
  8
Hachura
 62
7
370
25
100
AcDbLine
 10
2761.578941638028
 20
2237.987892773195
 30
0.0
 11
2762.649230483078
 21
2240.1284704418604
 31
0.0
  0
LINE
  5
14D
330
17
100
AcDbEntity
  8
Hachura
 62
7
370
25
100
AcDbLine
 10
2761.4998192393828
 20
2238.087616944982
 30
0.0
 11
2762.4672029216363
 21
2240.0223843094846
 31
0.0
  0
LINE
  5
14E
330
17
100
AcDbEntity
  8
Hachura
 62
7
370
25
100
AcDbLine
 10
2760.6614200523877
 20
2240.0223843094846
 30
0.0
 11
2759.6940363701387
 21
2238.087616944982
 31
0.0
  0
LINE
  5
14F
330
17
100
AcDbEntity
  8
Hachura
 62
7
370
25
100
AcDbLine
 10
2761.822280466802
 20
2240.0223843094846
 30
0.0
 11
2760.854896784553
 21
2238.087616944982
 31
0.0
  0
LINE
  5
150
330
17
100
AcDbEntity
  8
Hachura
 62
7
370
25
100
AcDbLine
 10
2761.7296376262498
 20
2240.095067640331
 30
0.0
 11
2760.6468312903494
 21
2237.929454882773
 31
0.0
  0
LINE
  5
151
330
17
100
AcDbEntity
  8
Hachura
 62
7
370
25
100
AcDbLine
 10
2760.4180812236136
 20
2237.987892773195
 30
0.0
 11
2761.4883700686632
 21
2240.1284704418604
 31
0.0
  0
LINE
  5
152
330
17
100
AcDbEntity
  8
Hachura
 62
7
370
25
100
AcDbLine
 10
2760.338958824973
 20
2238.087616944982
 30
0.0
 11
2761.306342507222
 21
2240.0223843094846
 31
0.0
  0
LINE
  5
153
330
17
100
AcDbEntity
  8
Hachura
 62
7
370
25
100
AcDbLine
 10
2764.466358895167
 20
2238.345378615417
 30
0.0
 11
2764.3374780385097
 21
2238.087616944982
 31
0.0
  0
LINE
  5
154
330
17
100
AcDbEntity
  8
Hachura
 62
7
370
25
100
AcDbLine
 10
2764.466358895167
 20
2238.6033476059265
 30
0.0
 11
2764.1294125335885
 21
2237.929454882773
 31
0.0
  0
LINE
  5
155
330
17
100
AcDbEntity
  8
Hachura
 62
7
370
25
100
AcDbLine
 10
2764.3374780385097
 20
2238.087616944982
 30
0.0
 11
2764.466358895167
 21
2238.087616944982
 31
0.0
  0
LINE
  5
156
330
17
100
AcDbEntity
  8
Hachura
 62
7
370
25
100
AcDbLine
 10
2764.464748798584
 20
2238.0894087307024
 30
0.0
 11
2764.7872100474424
 21
2238.4118699581195
 31
0.0
  0
LINE
  5
157
330
17
100
AcDbEntity
  8
Hachura
 62
7
370
25
100
AcDbLine
 10
2763.8215400789295
 20
2238.087616944982
 30
0.0
 11
2763.1766176240953
 21
2238.087616944982
 31
0.0
  0
LINE
  5
158
330
17
100
AcDbEntity
  8
Hachura
 62
7
370
25
100
AcDbLine
 10
2764.1440013063484
 20
2240.0223843094846
 30
0.0
 11
2764.466358895167
 21
2240.0223843094846
 31
0.0
  0
LINE
  5
159
330
17
100
AcDbEntity
  8
Hachura
 62
7
370
25
100
AcDbLine
 10
2764.4647488200235
 20
2240.024261595976
 30
0.0
 11
2764.46467140195
 21
2240.024261595976
 31
0.0
  0
LINE
  5
15A
330
17
100
AcDbEntity
  8
Hachura
 62
7
370
25
100
AcDbLine
 10
2764.4647488200235
 20
2240.024261595976
 30
0.0
 11
2764.7872100474424
 21
2239.701714867788
 31
0.0
  0
LINE
  5
15B
330
17
100
AcDbEntity
  8
Hachura
 62
7
370
25
100
AcDbLine
 10
2762.255348261799
 20
2240.0223843094846
 30
0.0
 11
2762.4672029109142
 21
2240.0223843094846
 31
0.0
  0
LINE
  5
15C
330
17
100
AcDbEntity
  8
Hachura
 62
7
370
25
100
AcDbLine
 10
2763.9006624668527
 20
2237.987892773195
 30
0.0
 11
2764.466358895167
 21
2239.119285586944
 31
0.0
  0
LINE
  5
15D
330
17
100
AcDbEntity
  8
Hachura
 62
7
370
25
100
AcDbLine
 10
2763.8215400789295
 20
2238.087616944982
 30
0.0
 11
2764.466358895167
 21
2239.3772545345746
 31
0.0
  0
LINE
  5
15E
330
17
100
AcDbEntity
  8
Hachura
 62
7
370
25
100
AcDbLine
 10
2764.7872100474424
 20
2239.701714867788
 30
0.0
 11
2764.7872100474424
 21
2238.4118699581195
 31
0.0
  0
LINE
  5
15F
330
17
100
AcDbEntity
  8
Hachura
 62
7
370
25
100
AcDbLine
 10
2764.1440013063484
 20
2240.0223843094846
 30
0.0
 11
2763.1766176240953
 21
2238.087616944982
 31
0.0
  0
LINE
  5
160
330
17
100
AcDbEntity
  8
Hachura
 62
7
370
25
100
AcDbLine
 10
2764.464748798584
 20
2238.0894087307024
 30
0.0
 11
2764.464748798584
 21
2240.024176095205
 31
0.0
  0
LINE
  5
161
330
17
100
AcDbEntity
  8
Hachura
 62
7
370
25
100
AcDbLine
 10
2752.986842842009
 20
2233.4940534528578
 30
0.0
 11
2752.986842842009
 21
2241.3087151974887
 31
0.0
  0
LINE
  5
162
330
17
100
AcDbEntity
  8
Hachura
 62
7
370
25
100
AcDbLine
 10
2759.6940363701387
 20
2237.313709973455
 30
0.0
 11
2759.6940363701387
 21
2240.6673067643187
 31
0.0
  0
LINE
  5
163
330
17
100
AcDbEntity
  8
Hachura
 62
7
370
25
100
AcDbLine
 10
2759.62631951281
 20
2237.313709973455
 30
0.0
 11
2759.62631951281
 21
2240.6673067643187
 31
0.0
  0
LINE
  5
164
330
17
100
AcDbEntity
  8
Hachura
 62
7
370
25
100
AcDbLine
 10
2756.469424095969
 20
2240.9252757119502
 30
0.0
 11
2756.469424095969
 21
2237.0557409829453
 31
0.0
  0
LINE
  5
165
330
17
100
AcDbEntity
  8
Hachura
 62
7
370
25
100
AcDbLine
 10
2753.8897342766336
 20
2245.4397328957866
 30
0.0
 11
2753.889734276633
 21
2232.541283799108
 31
0.0
  0
LINE
  5
166
330
17
100
AcDbEntity
  8
Hachura
 62
7
370
25
100
AcDbLine
 10
2752.986842842009
 20
2232.541283799108
 30
0.0
 11
2752.986842842009
 21
2245.4361911313936
 31
0.0
  0
LINE
  5
167
330
17
100
AcDbEntity
  8
Hachura
 62
7
370
25
100
AcDbLine
 10
2759.6940363701387
 20
2239.635430802282
 30
0.0
 11
2756.469424095969
 21
2239.635430802282
 31
0.0
  0
LINE
  5
168
330
17
100
AcDbEntity
  8
Hachura
 62
7
370
25
100
AcDbLine
 10
2759.6940363701387
 20
2240.6673067643187
 30
0.0
 11
2756.469424095969
 21
2240.6673067643187
 31
0.0
  0
LINE
  5
169
330
17
100
AcDbEntity
  8
Hachura
 62
7
370
25
100
AcDbLine
 10
2753.889734276633
 20
2238.9905083474478
 30
0.0
 11
2753.8897342766336
 21
2240.9252757119502
 31
0.0
  0
LINE
  5
16A
330
17
100
AcDbEntity
  8
Hachura
 62
7
370
25
100
AcDbLine
 10
2753.8897342766336
 20
2240.280353257116
 30
0.0
 11
2753.8897342766336
 21
2239.635430802282
 31
0.0
  0
LINE
  5
16B
330
17
100
AcDbEntity
  8
Hachura
 62
7
370
25
100
AcDbLine
 10
2753.889734276633
 20
2238.996148709809
 30
0.0
 11
2752.986842842009
 21
2238.996148709809
 31
0.0
  0
LINE
  5
16C
330
17
100
AcDbEntity
  8
Hachura
 62
7
370
25
100
AcDbLine
 10
2753.889734276633
 20
2239.3026904011576
 30
0.0
 11
2755.888893466091
 21
2239.3026904011576
 31
0.0
  0
LINE
  5
16D
330
17
100
AcDbEntity
  8
Hachura
 62
7
370
25
100
AcDbLine
 10
2755.888893466091
 20
2238.7867524201383
 30
0.0
 11
2753.889734276633
 21
2238.7867524201383
 31
0.0
  0
LINE
  5
16E
330
17
100
AcDbEntity
  8
Hachura
 62
7
370
25
100
AcDbLine
 10
2753.908008833701
 20
2242.03038497118
 30
0.0
 11
2752.980786158619
 21
2242.03038497118
 31
0.0
  0
LINE
  5
16F
330
17
100
AcDbEntity
  8
Hachura
 62
7
370
25
100
AcDbLine
 10
2753.1368887199314
 20
2239.9501239801957
 30
0.0
 11
2753.5699565256514
 21
2239.9501239801957
 31
0.0
  0
LINE
  5
170
330
17
100
AcDbEntity
  8
Hachura
 62
7
370
25
100
AcDbLine
 10
2753.8897342766336
 20
2240.9252757119502
 30
0.0
 11
2756.469424095969
 21
2240.9252757119502
 31
0.0
  0
LINE
  5
171
330
17
100
AcDbEntity
  8
Hachura
 62
7
370
25
100
AcDbLine
 10
2753.5699565256514
 20
2239.9501239801957
 30
0.0
 11
2753.7818111747656
 21
2239.9501239801957
 31
0.0
  0
LINE
  5
172
330
17
100
AcDbEntity
  8
Hachura
 62
7
370
25
100
AcDbLine
 10
2752.986842842009
 20
2245.4361911313936
 30
0.0
 11
2758.123511424095
 21
2245.4361911313936
 31
0.0
  0
LINE
  5
173
330
17
100
AcDbEntity
  8
Hachura
 62
7
370
25
100
AcDbLine
 10
2758.146222480681
 20
2243.762934521794
 30
0.0
 11
2755.935914162828
 21
2243.1812744477393
 31
0.0
  0
LINE
  5
174
330
17
100
AcDbEntity
  8
Hachura
 62
7
370
25
100
AcDbLine
 10
2758.146222480681
 20
2245.4397328957866
 30
0.0
 11
2758.146222480681
 21
2243.762934521794
 31
0.0
  0
LINE
  5
175
330
17
100
AcDbEntity
  8
Hachura
 62
7
370
25
100
AcDbLine
 10
2755.6955171565996
 20
2242.869430409366
 30
0.0
 11
2755.6955171565996
 21
2240.9252757119502
 31
0.0
  0
LINE
  5
176
330
17
100
AcDbEntity
  8
Hachura
 62
7
370
25
100
AcDbLine
 10
2753.8897342766336
 20
2245.4397328957866
 30
0.0
 11
2753.8897342766336
 21
2240.280353257116
 31
0.0
  0
LINE
  5
177
330
17
100
AcDbEntity
  8
Hachura
 62
7
370
25
100
AcDbLine
 10
2758.146222480681
 20
2234.218082215979
 30
0.0
 11
2755.935914162828
 21
2234.7997422900335
 31
0.0
  0
LINE
  5
178
330
17
100
AcDbEntity
  8
Hachura
 62
7
370
25
100
AcDbLine
 10
2756.469424095969
 20
2237.313709973455
 30
0.0
 11
2759.6940363701387
 21
2237.313709973455
 31
0.0
  0
LINE
  5
179
330
17
100
AcDbEntity
  8
Hachura
 62
7
370
25
100
AcDbLine
 10
2759.6940363701387
 20
2238.087616944982
 30
0.0
 11
2756.469424095969
 21
2238.087616944982
 31
0.0
  0
LINE
  5
17A
330
17
100
AcDbEntity
  8
Hachura
 62
7
370
25
100
AcDbLine
 10
2753.9080088337005
 20
2235.96437037697
 30
0.0
 11
2752.986842842009
 21
2235.96437037697
 31
0.0
  0
LINE
  5
17B
330
17
100
AcDbEntity
  8
Hachura
 62
7
370
25
100
AcDbLine
 10
2753.7634332578136
 20
2238.0153566156932
 30
0.0
 11
2753.3303654628144
 21
2238.0153566156932
 31
0.0
  0
LINE
  5
17C
330
17
100
AcDbEntity
  8
Hachura
 62
7
370
25
100
AcDbLine
 10
2753.9080088337005
 20
2234.532116772105
 30
0.0
 11
2752.980786158619
 21
2234.532116772105
 31
0.0
  0
LINE
  5
17D
330
17
100
AcDbEntity
  8
Hachura
 62
7
370
25
100
AcDbLine
 10
2756.469424095969
 20
2237.0557409829453
 30
0.0
 11
2753.889734276633
 21
2237.0557409829453
 31
0.0
  0
LINE
  5
17E
330
17
100
AcDbEntity
  8
Hachura
 62
7
370
25
100
AcDbLine
 10
2756.469424095969
 20
2237.0557409829453
 30
0.0
 11
2756.469424095969
 21
2237.313709973455
 31
0.0
  0
LINE
  5
17F
330
17
100
AcDbEntity
  8
Hachura
 62
7
370
25
100
AcDbLine
 10
2756.469424095969
 20
2237.0557409829453
 30
0.0
 11
2756.469424095969
 21
2237.313709973455
 31
0.0
  0
LINE
  5
180
330
17
100
AcDbEntity
  8
Hachura
 62
7
370
25
100
AcDbLine
 10
2755.6955171565996
 20
2235.1115863284094
 30
0.0
 11
2755.6955171565996
 21
2237.059622906624
 31
0.0
  0
LINE
  5
181
330
17
100
AcDbEntity
  8
Hachura
 62
7
370
25
100
AcDbLine
 10
2753.889734276633
 20
2232.541283799108
 30
0.0
 11
2758.146222480681
 21
2232.541283799108
 31
0.0
  0
LINE
  5
182
330
17
100
AcDbEntity
  8
Hachura
 62
7
370
25
100
AcDbLine
 10
2753.889734276633
 20
2232.541283799108
 30
0.0
 11
2752.986842842009
 21
2232.541283799108
 31
0.0
  0
LINE
  5
183
330
17
100
AcDbEntity
  8
Hachura
 62
7
370
25
100
AcDbLine
 10
2753.9080088337005
 20
2233.6896148559026
 30
0.0
 11
2752.980786158619
 21
2233.6896148559026
 31
0.0
  0
LINE
  5
184
330
17
100
AcDbEntity
  8
Hachura
 62
7
370
25
100
AcDbLine
 10
2753.9080088337005
 20
2233.2262386240436
 30
0.0
 11
2752.980786158619
 21
2233.2262386240436
 31
0.0
  0
LINE
  5
185
330
17
100
AcDbEntity
  8
Hachura
 62
7
370
25
100
AcDbLine
 10
2753.9080088337005
 20
2232.8892378918663
 30
0.0
 11
2752.980786158619
 21
2232.8892378918663
 31
0.0
  0
LINE
  5
186
330
17
100
AcDbEntity
  8
Hachura
 62
7
370
25
100
AcDbLine
 10
2753.9080088337005
 20
2232.6786121448213
 30
0.0
 11
2752.980786158619
 21
2232.6786121448213
 31
0.0
  0
LINE
  5
187
330
17
100
AcDbEntity
  8
Hachura
 62
7
370
25
100
AcDbLine
 10
2758.146222480681
 20
2232.541283799108
 30
0.0
 11
2758.146222480681
 21
2234.218082215979
 31
0.0
  0
LINE
  5
188
330
17
100
AcDbEntity
  8
Hachura
 62
7
370
25
100
AcDbLine
 10
2759.6940363701387
 20
2238.861523892493
 30
0.0
 11
2760.327509652965
 21
2240.1284704454583
 31
0.0
  0
LINE
  5
189
330
17
100
AcDbEntity
  8
Hachura
 62
7
370
25
100
AcDbLine
 10
2759.6940363701387
 20
2239.1194928703117
 30
0.0
 11
2760.1454820915233
 21
2240.0223843130825
 31
0.0
  0
LINE
  5
18A
330
17
100
AcDbEntity
  8
Hachura
 62
7
370
25
100
AcDbLine
 10
2759.6940363701387
 20
2240.0223843130834
 30
0.0
 11
2760.1454820915237
 21
2240.0223843130834
 31
0.0
  0
LINE
  5
18B
330
17
100
AcDbEntity
  8
Hachura
 62
7
370
25
100
AcDbLine
 10
2753.908008833701
 20
2243.4453581583966
 30
0.0
 11
2752.980786158619
 21
2243.4453581583966
 31
0.0
  0
LINE
  5
18C
330
17
100
AcDbEntity
  8
Hachura
 62
7
370
25
100
AcDbLine
 10
2753.908008833701
 20
2244.287860074599
 30
0.0
 11
2752.980786158619
 21
2244.287860074599
 31
0.0
  0
LINE
  5
18D
330
17
100
AcDbEntity
  8
Hachura
 62
7
370
25
100
AcDbLine
 10
2753.908008833701
 20
2244.751236306458
 30
0.0
 11
2752.980786158619
 21
2244.751236306458
 31
0.0
  0
LINE
  5
18E
330
17
100
AcDbEntity
  8
Hachura
 62
7
370
25
100
AcDbLine
 10
2753.908008833701
 20
2245.0882370386353
 30
0.0
 11
2752.980786158619
 21
2245.0882370386353
 31
0.0
  0
LINE
  5
18F
330
17
100
AcDbEntity
  8
Hachura
 62
7
370
25
100
AcDbLine
 10
2753.908008833701
 20
2245.2988627856803
 30
0.0
 11
2752.980786158619
 21
2245.2988627856803
 31
0.0
  0
LINE
  5
190
330
17
100
AcDbEntity
  8
Hachura
 62
7
370
25
100
AcDbLine
 10
2618.990544869966
 20
2240.021762045317
 30
0.0
 11
2618.345622415132
 21
2240.021762045317
 31
0.0
  0
LINE
  5
191
330
17
100
AcDbEntity
  8
Hachura
 62
7
370
25
100
AcDbLine
 10
2617.8296844555516
 20
2240.021762045317
 30
0.0
 11
2618.7970681378047
 21
2238.0869946808143
 31
0.0
  0
LINE
  5
192
330
17
100
AcDbEntity
  8
Hachura
 62
7
370
25
100
AcDbLine
 10
2617.922327296104
 20
2240.094445376163
 30
0.0
 11
2619.0051336320043
 21
2237.928832618605
 31
0.0
  0
LINE
  5
193
330
17
100
AcDbEntity
  8
Hachura
 62
7
370
25
100
AcDbLine
 10
2619.2338837094617
 20
2237.9872705090274
 30
0.0
 11
2618.16359485369
 21
2240.1278481776926
 31
0.0
  0
LINE
  5
194
330
17
100
AcDbEntity
  8
Hachura
 62
7
370
25
100
AcDbLine
 10
2619.313006097381
 20
2238.0869946808143
 30
0.0
 11
2618.345622415132
 21
2240.021762045317
 31
0.0
  0
LINE
  5
195
330
17
100
AcDbEntity
  8
Hachura
 62
7
370
25
100
AcDbLine
 10
2619.957928552215
 20
2238.0869946808143
 30
0.0
 11
2619.313006097381
 21
2238.0869946808143
 31
0.0
  0
LINE
  5
196
330
17
100
AcDbEntity
  8
Hachura
 62
7
370
25
100
AcDbLine
 10
2621.634726936927
 20
2238.0869946808143
 30
0.0
 11
2622.2796493917613
 21
2238.0869946808143
 31
0.0
  0
LINE
  5
197
330
17
100
AcDbEntity
  8
Hachura
 62
7
370
25
100
AcDbLine
 10
2620.6857211716324
 20
2238.0869946808143
 30
0.0
 11
2620.4738665225173
 21
2238.0869946808143
 31
0.0
  0
LINE
  5
198
330
17
100
AcDbEntity
  8
Hachura
 62
7
370
25
100
AcDbLine
 10
2620.6857211716324
 20
2238.0869946808143
 30
0.0
 11
2621.118788977347
 21
2238.0869946808143
 31
0.0
  0
LINE
  5
199
330
17
100
AcDbEntity
  8
Hachura
 62
7
370
25
100
AcDbLine
 10
2620.151405295098
 20
2240.021762045317
 30
0.0
 11
2619.5064828402637
 21
2240.021762045317
 31
0.0
  0
LINE
  5
19A
330
17
100
AcDbEntity
  8
Hachura
 62
7
370
25
100
AcDbLine
 10
2621.3122657095123
 20
2240.021762045317
 30
0.0
 11
2620.667343254678
 21
2240.021762045317
 31
0.0
  0
LINE
  5
19B
330
17
100
AcDbEntity
  8
Hachura
 62
7
370
25
100
AcDbLine
 10
2618.990544869966
 20
2240.021762045317
 30
0.0
 11
2619.957928552215
 21
2238.0869946808143
 31
0.0
  0
LINE
  5
19C
330
17
100
AcDbEntity
  8
Hachura
 62
7
370
25
100
AcDbLine
 10
2619.083187721236
 20
2240.094445376163
 30
0.0
 11
2620.1659940571362
 21
2237.928832618605
 31
0.0
  0
LINE
  5
19D
330
17
100
AcDbEntity
  8
Hachura
 62
7
370
25
100
AcDbLine
 10
2620.394744123872
 20
2237.9872705090274
 30
0.0
 11
2619.324455278822
 21
2240.1278481776926
 31
0.0
  0
LINE
  5
19E
330
17
100
AcDbEntity
  8
Hachura
 62
7
370
25
100
AcDbLine
 10
2620.4738665225173
 20
2238.0869946808143
 30
0.0
 11
2619.5064828402637
 21
2240.021762045317
 31
0.0
  0
LINE
  5
19F
330
17
100
AcDbEntity
  8
Hachura
 62
7
370
25
100
AcDbLine
 10
2621.3122657095123
 20
2240.021762045317
 30
0.0
 11
2622.2796493917613
 21
2238.0869946808143
 31
0.0
  0
LINE
  5
1A0
330
17
100
AcDbEntity
  8
Hachura
 62
7
370
25
100
AcDbLine
 10
2620.151405295098
 20
2240.021762045317
 30
0.0
 11
2621.118788977347
 21
2238.0869946808143
 31
0.0
  0
LINE
  5
1A1
330
17
100
AcDbEntity
  8
Hachura
 62
7
370
25
100
AcDbLine
 10
2620.2440481356502
 20
2240.094445376163
 30
0.0
 11
2621.3268544715506
 21
2237.928832618605
 31
0.0
  0
LINE
  5
1A2
330
17
100
AcDbEntity
  8
Hachura
 62
7
370
25
100
AcDbLine
 10
2621.5556045382864
 20
2237.9872705090274
 30
0.0
 11
2620.4853156932368
 21
2240.1278481776926
 31
0.0
  0
LINE
  5
1A3
330
17
100
AcDbEntity
  8
Hachura
 62
7
370
25
100
AcDbLine
 10
2621.634726936927
 20
2238.0869946808143
 30
0.0
 11
2620.667343254678
 21
2240.021762045317
 31
0.0
  0
LINE
  5
1A4
330
17
100
AcDbEntity
  8
Hachura
 62
7
370
25
100
AcDbLine
 10
2617.507326866733
 20
2238.344756351249
 30
0.0
 11
2617.6362077233903
 21
2238.0869946808143
 31
0.0
  0
LINE
  5
1A5
330
17
100
AcDbEntity
  8
Hachura
 62
7
370
25
100
AcDbLine
 10
2617.507326866733
 20
2238.6027253417587
 30
0.0
 11
2617.8442732283115
 21
2237.928832618605
 31
0.0
  0
LINE
  5
1A6
330
17
100
AcDbEntity
  8
Hachura
 62
7
370
25
100
AcDbLine
 10
2617.6362077233903
 20
2238.0869946808143
 30
0.0
 11
2617.507326866733
 21
2238.0869946808143
 31
0.0
  0
LINE
  5
1A7
330
17
100
AcDbEntity
  8
Hachura
 62
7
370
25
100
AcDbLine
 10
2617.508936963316
 20
2238.0887864665347
 30
0.0
 11
2617.1864757144576
 21
2238.4112476939517
 31
0.0
  0
LINE
  5
1A8
330
17
100
AcDbEntity
  8
Hachura
 62
7
370
25
100
AcDbLine
 10
2618.1521456829705
 20
2238.0869946808143
 30
0.0
 11
2618.7970681378047
 21
2238.0869946808143
 31
0.0
  0
LINE
  5
1A9
330
17
100
AcDbEntity
  8
Hachura
 62
7
370
25
100
AcDbLine
 10
2617.8296844555516
 20
2240.021762045317
 30
0.0
 11
2617.507326866733
 21
2240.021762045317
 31
0.0
  0
LINE
  5
1AA
330
17
100
AcDbEntity
  8
Hachura
 62
7
370
25
100
AcDbLine
 10
2617.5089369418765
 20
2240.023639331808
 30
0.0
 11
2617.50901435995
 21
2240.023639331808
 31
0.0
  0
LINE
  5
1AB
330
17
100
AcDbEntity
  8
Hachura
 62
7
370
25
100
AcDbLine
 10
2617.5089369418765
 20
2240.023639331808
 30
0.0
 11
2617.1864757144576
 21
2239.70109260362
 31
0.0
  0
LINE
  5
1AC
330
17
100
AcDbEntity
  8
Hachura
 62
7
370
25
100
AcDbLine
 10
2619.718337500101
 20
2240.021762045317
 30
0.0
 11
2619.506482850986
 21
2240.021762045317
 31
0.0
  0
LINE
  5
1AD
330
17
100
AcDbEntity
  8
Hachura
 62
7
370
25
100
AcDbLine
 10
2618.0730232950473
 20
2237.9872705090274
 30
0.0
 11
2617.507326866733
 21
2239.1186633227762
 31
0.0
  0
LINE
  5
1AE
330
17
100
AcDbEntity
  8
Hachura
 62
7
370
25
100
AcDbLine
 10
2618.1521456829705
 20
2238.0869946808143
 30
0.0
 11
2617.507326866733
 21
2239.376632270407
 31
0.0
  0
LINE
  5
1AF
330
17
100
AcDbEntity
  8
Hachura
 62
7
370
25
100
AcDbLine
 10
2617.1864757144576
 20
2239.70109260362
 30
0.0
 11
2617.1864757144576
 21
2238.4112476939517
 31
0.0
  0
LINE
  5
1B0
330
17
100
AcDbEntity
  8
Hachura
 62
7
370
25
100
AcDbLine
 10
2617.8296844555516
 20
2240.021762045317
 30
0.0
 11
2618.7970681378047
 21
2238.0869946808143
 31
0.0
  0
LINE
  5
1B1
330
17
100
AcDbEntity
  8
Hachura
 62
7
370
25
100
AcDbLine
 10
2617.508936963316
 20
2238.0887864665347
 30
0.0
 11
2617.508936963316
 21
2240.023553831037
 31
0.0
  0
LINE
  5
1B2
330
17
100
AcDbEntity
  8
Hachura
 62
7
370
25
100
AcDbLine
 10
2628.986842919891
 20
2233.49343118869
 30
0.0
 11
2628.986842919891
 21
2241.308092933321
 31
0.0
  0
LINE
  5
1B3
330
17
100
AcDbEntity
  8
Hachura
 62
7
370
25
100
AcDbLine
 10
2622.2796493917613
 20
2237.313087709287
 30
0.0
 11
2622.2796493917613
 21
2240.666684500151
 31
0.0
  0
LINE
  5
1B4
330
17
100
AcDbEntity
  8
Hachura
 62
7
370
25
100
AcDbLine
 10
2622.34736624909
 20
2237.313087709287
 30
0.0
 11
2622.34736624909
 21
2240.666684500151
 31
0.0
  0
LINE
  5
1B5
330
17
100
AcDbEntity
  8
Hachura
 62
7
370
25
100
AcDbLine
 10
2625.504261665931
 20
2240.9246534477825
 30
0.0
 11
2625.504261665931
 21
2237.0551187187775
 31
0.0
  0
LINE
  5
1B6
330
17
100
AcDbEntity
  8
Hachura
 62
7
370
25
100
AcDbLine
 10
2628.083951485267
 20
2245.439110631619
 30
0.0
 11
2628.0839514852664
 21
2232.54066153494
 31
0.0
  0
LINE
  5
1B7
330
17
100
AcDbEntity
  8
Hachura
 62
7
370
25
100
AcDbLine
 10
2628.986842919891
 20
2232.54066153494
 30
0.0
 11
2628.986842919891
 21
2245.435568867226
 31
0.0
  0
LINE
  5
1B8
330
17
100
AcDbEntity
  8
Hachura
 62
7
370
25
100
AcDbLine
 10
2622.2796493917613
 20
2239.634808538114
 30
0.0
 11
2625.504261665931
 21
2239.634808538114
 31
0.0
  0
LINE
  5
1B9
330
17
100
AcDbEntity
  8
Hachura
 62
7
370
25
100
AcDbLine
 10
2622.2796493917613
 20
2240.666684500151
 30
0.0
 11
2625.504261665931
 21
2240.666684500151
 31
0.0
  0
LINE
  5
1BA
330
17
100
AcDbEntity
  8
Hachura
 62
7
370
25
100
AcDbLine
 10
2628.083951485267
 20
2238.98988608328
 30
0.0
 11
2628.083951485267
 21
2240.9246534477825
 31
0.0
  0
LINE
  5
1BB
330
17
100
AcDbEntity
  8
Hachura
 62
7
370
25
100
AcDbLine
 10
2628.083951485267
 20
2240.2797309929483
 30
0.0
 11
2628.083951485267
 21
2239.634808538114
 31
0.0
  0
LINE
  5
1BC
330
17
100
AcDbEntity
  8
Hachura
 62
7
370
25
100
AcDbLine
 10
2628.083951485267
 20
2238.995526445641
 30
0.0
 11
2628.986842919891
 21
2238.995526445641
 31
0.0
  0
LINE
  5
1BD
330
17
100
AcDbEntity
  8
Hachura
 62
7
370
25
100
AcDbLine
 10
2628.083951485267
 20
2239.30206813699
 30
0.0
 11
2626.084792295809
 21
2239.30206813699
 31
0.0
  0
LINE
  5
1BE
330
17
100
AcDbEntity
  8
Hachura
 62
7
370
25
100
AcDbLine
 10
2626.0847922958087
 20
2238.7861301559706
 30
0.0
 11
2628.0839514852664
 21
2238.7861301559706
 31
0.0
  0
LINE
  5
1BF
330
17
100
AcDbEntity
  8
Hachura
 62
7
370
25
100
AcDbLine
 10
2628.0656769281995
 20
2242.029762707012
 30
0.0
 11
2628.992899603281
 21
2242.029762707012
 31
0.0
  0
LINE
  5
1C0
330
17
100
AcDbEntity
  8
Hachura
 62
7
370
25
100
AcDbLine
 10
2628.8367970419686
 20
2239.949501716028
 30
0.0
 11
2628.4037292362486
 21
2239.949501716028
 31
0.0
  0
LINE
  5
1C1
330
17
100
AcDbEntity
  8
Hachura
 62
7
370
25
100
AcDbLine
 10
2628.083951485267
 20
2240.9246534477825
 30
0.0
 11
2625.504261665931
 21
2240.9246534477825
 31
0.0
  0
LINE
  5
1C2
330
17
100
AcDbEntity
  8
Hachura
 62
7
370
25
100
AcDbLine
 10
2628.4037292362486
 20
2239.949501716028
 30
0.0
 11
2628.1918745871344
 21
2239.949501716028
 31
0.0
  0
LINE
  5
1C3
330
17
100
AcDbEntity
  8
Hachura
 62
7
370
25
100
AcDbLine
 10
2628.986842919891
 20
2245.435568867226
 30
0.0
 11
2623.850174337805
 21
2245.435568867226
 31
0.0
  0
LINE
  5
1C4
330
17
100
AcDbEntity
  8
Hachura
 62
7
370
25
100
AcDbLine
 10
2623.827463281219
 20
2243.762312257626
 30
0.0
 11
2626.037771599072
 21
2243.1806521835715
 31
0.0
  0
LINE
  5
1C5
330
17
100
AcDbEntity
  8
Hachura
 62
7
370
25
100
AcDbLine
 10
2623.827463281219
 20
2245.439110631619
 30
0.0
 11
2623.827463281219
 21
2243.762312257626
 31
0.0
  0
LINE
  5
1C6
330
17
100
AcDbEntity
  8
Hachura
 62
7
370
25
100
AcDbLine
 10
2626.2781686053004
 20
2242.8688081451983
 30
0.0
 11
2626.2781686053004
 21
2240.9246534477825
 31
0.0
  0
LINE
  5
1C7
330
17
100
AcDbEntity
  8
Hachura
 62
7
370
25
100
AcDbLine
 10
2628.083951485267
 20
2245.439110631619
 30
0.0
 11
2628.083951485267
 21
2240.2797309929483
 31
0.0
  0
LINE
  5
1C8
330
17
100
AcDbEntity
  8
Hachura
 62
7
370
25
100
AcDbLine
 10
2623.8274632812186
 20
2234.217459951811
 30
0.0
 11
2626.037771599072
 21
2234.7991200258657
 31
0.0
  0
LINE
  5
1C9
330
17
100
AcDbEntity
  8
Hachura
 62
7
370
25
100
AcDbLine
 10
2625.504261665931
 20
2237.313087709287
 30
0.0
 11
2622.2796493917613
 21
2237.313087709287
 31
0.0
  0
LINE
  5
1CA
330
17
100
AcDbEntity
  8
Hachura
 62
7
370
25
100
AcDbLine
 10
2622.2796493917613
 20
2238.0869946808143
 30
0.0
 11
2625.504261665931
 21
2238.0869946808143
 31
0.0
  0
LINE
  5
1CB
330
17
100
AcDbEntity
  8
Hachura
 62
7
370
25
100
AcDbLine
 10
2628.065676928199
 20
2235.963748112802
 30
0.0
 11
2628.986842919891
 21
2235.963748112802
 31
0.0
  0
LINE
  5
1CC
330
17
100
AcDbEntity
  8
Hachura
 62
7
370
25
100
AcDbLine
 10
2628.2102525040864
 20
2238.0147343515255
 30
0.0
 11
2628.6433202990856
 21
2238.0147343515255
 31
0.0
  0
LINE
  5
1CD
330
17
100
AcDbEntity
  8
Hachura
 62
7
370
25
100
AcDbLine
 10
2628.065676928199
 20
2234.531494507937
 30
0.0
 11
2628.992899603281
 21
2234.531494507937
 31
0.0
  0
LINE
  5
1CE
330
17
100
AcDbEntity
  8
Hachura
 62
7
370
25
100
AcDbLine
 10
2625.504261665931
 20
2237.0551187187775
 30
0.0
 11
2628.0839514852664
 21
2237.0551187187775
 31
0.0
  0
LINE
  5
1CF
330
17
100
AcDbEntity
  8
Hachura
 62
7
370
25
100
AcDbLine
 10
2625.504261665931
 20
2237.0551187187775
 30
0.0
 11
2625.504261665931
 21
2237.313087709287
 31
0.0
  0
LINE
  5
1D0
330
17
100
AcDbEntity
  8
Hachura
 62
7
370
25
100
AcDbLine
 10
2625.504261665931
 20
2237.0551187187775
 30
0.0
 11
2625.504261665931
 21
2237.313087709287
 31
0.0
  0
LINE
  5
1D1
330
17
100
AcDbEntity
  8
Hachura
 62
7
370
25
100
AcDbLine
 10
2626.2781686053004
 20
2235.1109640642417
 30
0.0
 11
2626.2781686053004
 21
2237.0590006424563
 31
0.0
  0
LINE
  5
1D2
330
17
100
AcDbEntity
  8
Hachura
 62
7
370
25
100
AcDbLine
 10
2628.0839514852664
 20
2232.54066153494
 30
0.0
 11
2623.8274632812186
 21
2232.54066153494
 31
0.0
  0
LINE
  5
1D3
330
17
100
AcDbEntity
  8
Hachura
 62
7
370
25
100
AcDbLine
 10
2628.0839514852664
 20
2232.54066153494
 30
0.0
 11
2628.986842919891
 21
2232.54066153494
 31
0.0
  0
LINE
  5
1D4
330
17
100
AcDbEntity
  8
Hachura
 62
7
370
25
100
AcDbLine
 10
2628.065676928199
 20
2233.688992591735
 30
0.0
 11
2628.992899603281
 21
2233.688992591735
 31
0.0
  0
LINE
  5
1D5
330
17
100
AcDbEntity
  8
Hachura
 62
7
370
25
100
AcDbLine
 10
2628.065676928199
 20
2233.225616359876
 30
0.0
 11
2628.992899603281
 21
2233.225616359876
 31
0.0
  0
LINE
  5
1D6
330
17
100
AcDbEntity
  8
Hachura
 62
7
370
25
100
AcDbLine
 10
2628.065676928199
 20
2232.8886156276985
 30
0.0
 11
2628.992899603281
 21
2232.8886156276985
 31
0.0
  0
LINE
  5
1D7
330
17
100
AcDbEntity
  8
Hachura
 62
7
370
25
100
AcDbLine
 10
2628.065676928199
 20
2232.6779898806535
 30
0.0
 11
2628.992899603281
 21
2232.6779898806535
 31
0.0
  0
LINE
  5
1D8
330
17
100
AcDbEntity
  8
Hachura
 62
7
370
25
100
AcDbLine
 10
2623.8274632812186
 20
2232.54066153494
 30
0.0
 11
2623.8274632812186
 21
2234.217459951811
 31
0.0
  0
LINE
  5
1D9
330
17
100
AcDbEntity
  8
Hachura
 62
7
370
25
100
AcDbLine
 10
2622.2796493917613
 20
2238.8609016283253
 30
0.0
 11
2621.646176108935
 21
2240.1278481812906
 31
0.0
  0
LINE
  5
1DA
330
17
100
AcDbEntity
  8
Hachura
 62
7
370
25
100
AcDbLine
 10
2622.2796493917613
 20
2239.118870606144
 30
0.0
 11
2621.8282036703768
 21
2240.0217620489148
 31
0.0
  0
LINE
  5
1DB
330
17
100
AcDbEntity
  8
Hachura
 62
7
370
25
100
AcDbLine
 10
2622.2796493917613
 20
2240.0217620489157
 30
0.0
 11
2621.8282036703763
 21
2240.0217620489157
 31
0.0
  0
LINE
  5
1DC
330
17
100
AcDbEntity
  8
Hachura
 62
7
370
25
100
AcDbLine
 10
2628.0656769281995
 20
2243.444735894229
 30
0.0
 11
2628.992899603281
 21
2243.444735894229
 31
0.0
  0
LINE
  5
1DD
330
17
100
AcDbEntity
  8
Hachura
 62
7
370
25
100
AcDbLine
 10
2628.0656769281995
 20
2244.287237810431
 30
0.0
 11
2628.992899603281
 21
2244.287237810431
 31
0.0
  0
LINE
  5
1DE
330
17
100
AcDbEntity
  8
Hachura
 62
7
370
25
100
AcDbLine
 10
2628.0656769281995
 20
2244.75061404229
 30
0.0
 11
2628.992899603281
 21
2244.75061404229
 31
0.0
  0
LINE
  5
1DF
330
17
100
AcDbEntity
  8
Hachura
 62
7
370
25
100
AcDbLine
 10
2628.0656769281995
 20
2245.0876147744675
 30
0.0
 11
2628.992899603281
 21
2245.0876147744675
 31
0.0
  0
LINE
  5
1E0
330
17
100
AcDbEntity
  8
Hachura
 62
7
370
25
100
AcDbLine
 10
2628.0656769281995
 20
2245.2982405215125
 30
0.0
 11
2628.992899603281
 21
2245.2982405215125
 31
0.0
  0
LINE
  5
1E1
330
17
100
AcDbEntity
  8
Hachura
 62
7
370
25
100
AcDbLine
 10
2763.787210047413
 20
2238.988997881961
 30
0.0
 11
2621.98684291989
 21
2238.997539092806
 31
0.0
  0
LINE
  5
1E2
330
17
100
AcDbEntity
  8
Hachura
 62
7
370
25
100
AcDbLine
 10
2762.983140891934
 20
2144.022078336026
 30
0.0
 11
2763.628063346768
 21
2144.022078336026
 31
0.0
  0
LINE
  5
1E3
330
17
100
AcDbEntity
  8
Hachura
 62
7
370
25
100
AcDbLine
 10
2764.1440013063484
 20
2144.022078336026
 30
0.0
 11
2763.1766176240953
 21
2142.0873109715235
 31
0.0
  0
LINE
  5
1E4
330
17
100
AcDbEntity
  8
Hachura
 62
7
370
25
100
AcDbLine
 10
2764.051358465796
 20
2144.0947616668723
 30
0.0
 11
2762.9685521298957
 21
2141.9291489093143
 31
0.0
  0
LINE
  5
1E5
330
17
100
AcDbEntity
  8
Hachura
 62
7
370
25
100
AcDbLine
 10
2762.7398020524383
 20
2141.9875867997366
 30
0.0
 11
2763.81009090821
 21
2144.128164468402
 31
0.0
  0
LINE
  5
1E6
330
17
100
AcDbEntity
  8
Hachura
 62
7
370
25
100
AcDbLine
 10
2762.660679664519
 20
2142.0873109715235
 30
0.0
 11
2763.628063346768
 21
2144.022078336026
 31
0.0
  0
LINE
  5
1E7
330
17
100
AcDbEntity
  8
Hachura
 62
7
370
25
100
AcDbLine
 10
2762.015757209685
 20
2142.0873109715235
 30
0.0
 11
2762.660679664519
 21
2142.0873109715235
 31
0.0
  0
LINE
  5
1E8
330
17
100
AcDbEntity
  8
Hachura
 62
7
370
25
100
AcDbLine
 10
2760.338958824973
 20
2142.0873109715235
 30
0.0
 11
2759.6940363701387
 21
2142.0873109715235
 31
0.0
  0
LINE
  5
1E9
330
17
100
AcDbEntity
  8
Hachura
 62
7
370
25
100
AcDbLine
 10
2761.2879645902676
 20
2142.0873109715235
 30
0.0
 11
2761.4998192393828
 21
2142.0873109715235
 31
0.0
  0
LINE
  5
1EA
330
17
100
AcDbEntity
  8
Hachura
 62
7
370
25
100
AcDbLine
 10
2761.2879645902676
 20
2142.0873109715235
 30
0.0
 11
2760.854896784553
 21
2142.0873109715235
 31
0.0
  0
LINE
  5
1EB
330
17
100
AcDbEntity
  8
Hachura
 62
7
370
25
100
AcDbLine
 10
2761.822280466802
 20
2144.022078336026
 30
0.0
 11
2762.4672029216363
 21
2144.022078336026
 31
0.0
  0
LINE
  5
1EC
330
17
100
AcDbEntity
  8
Hachura
 62
7
370
25
100
AcDbLine
 10
2760.6614200523877
 20
2144.022078336026
 30
0.0
 11
2761.306342507222
 21
2144.022078336026
 31
0.0
  0
LINE
  5
1ED
330
17
100
AcDbEntity
  8
Hachura
 62
7
370
25
100
AcDbLine
 10
2762.983140891934
 20
2144.022078336026
 30
0.0
 11
2762.015757209685
 21
2142.0873109715235
 31
0.0
  0
LINE
  5
1EE
330
17
100
AcDbEntity
  8
Hachura
 62
7
370
25
100
AcDbLine
 10
2762.890498040664
 20
2144.0947616668723
 30
0.0
 11
2761.807691704764
 21
2141.9291489093143
 31
0.0
  0
LINE
  5
1EF
330
17
100
AcDbEntity
  8
Hachura
 62
7
370
25
100
AcDbLine
 10
2761.578941638028
 20
2141.9875867997366
 30
0.0
 11
2762.649230483078
 21
2144.128164468402
 31
0.0
  0
LINE
  5
1F0
330
17
100
AcDbEntity
  8
Hachura
 62
7
370
25
100
AcDbLine
 10
2761.4998192393828
 20
2142.0873109715235
 30
0.0
 11
2762.4672029216363
 21
2144.022078336026
 31
0.0
  0
LINE
  5
1F1
330
17
100
AcDbEntity
  8
Hachura
 62
7
370
25
100
AcDbLine
 10
2760.6614200523877
 20
2144.022078336026
 30
0.0
 11
2759.6940363701387
 21
2142.0873109715235
 31
0.0
  0
LINE
  5
1F2
330
17
100
AcDbEntity
  8
Hachura
 62
7
370
25
100
AcDbLine
 10
2761.822280466802
 20
2144.022078336026
 30
0.0
 11
2760.854896784553
 21
2142.0873109715235
 31
0.0
  0
LINE
  5
1F3
330
17
100
AcDbEntity
  8
Hachura
 62
7
370
25
100
AcDbLine
 10
2761.7296376262498
 20
2144.0947616668723
 30
0.0
 11
2760.6468312903494
 21
2141.9291489093143
 31
0.0
  0
LINE
  5
1F4
330
17
100
AcDbEntity
  8
Hachura
 62
7
370
25
100
AcDbLine
 10
2760.4180812236136
 20
2141.9875867997366
 30
0.0
 11
2761.4883700686632
 21
2144.128164468402
 31
0.0
  0
LINE
  5
1F5
330
17
100
AcDbEntity
  8
Hachura
 62
7
370
25
100
AcDbLine
 10
2760.338958824973
 20
2142.0873109715235
 30
0.0
 11
2761.306342507222
 21
2144.022078336026
 31
0.0
  0
LINE
  5
1F6
330
17
100
AcDbEntity
  8
Hachura
 62
7
370
25
100
AcDbLine
 10
2764.466358895167
 20
2142.3450726419583
 30
0.0
 11
2764.3374780385097
 21
2142.0873109715235
 31
0.0
  0
LINE
  5
1F7
330
17
100
AcDbEntity
  8
Hachura
 62
7
370
25
100
AcDbLine
 10
2764.466358895167
 20
2142.603041632468
 30
0.0
 11
2764.1294125335885
 21
2141.9291489093143
 31
0.0
  0
LINE
  5
1F8
330
17
100
AcDbEntity
  8
Hachura
 62
7
370
25
100
AcDbLine
 10
2764.3374780385097
 20
2142.0873109715235
 30
0.0
 11
2764.466358895167
 21
2142.0873109715235
 31
0.0
  0
LINE
  5
1F9
330
17
100
AcDbEntity
  8
Hachura
 62
7
370
25
100
AcDbLine
 10
2764.464748798584
 20
2142.089102757244
 30
0.0
 11
2764.7872100474424
 21
2142.411563984661
 31
0.0
  0
LINE
  5
1FA
330
17
100
AcDbEntity
  8
Hachura
 62
7
370
25
100
AcDbLine
 10
2763.8215400789295
 20
2142.0873109715235
 30
0.0
 11
2763.1766176240953
 21
2142.0873109715235
 31
0.0
  0
LINE
  5
1FB
330
17
100
AcDbEntity
  8
Hachura
 62
7
370
25
100
AcDbLine
 10
2764.1440013063484
 20
2144.022078336026
 30
0.0
 11
2764.466358895167
 21
2144.022078336026
 31
0.0
  0
LINE
  5
1FC
330
17
100
AcDbEntity
  8
Hachura
 62
7
370
25
100
AcDbLine
 10
2764.4647488200235
 20
2144.0239556225174
 30
0.0
 11
2764.46467140195
 21
2144.0239556225174
 31
0.0
  0
LINE
  5
1FD
330
17
100
AcDbEntity
  8
Hachura
 62
7
370
25
100
AcDbLine
 10
2764.4647488200235
 20
2144.0239556225174
 30
0.0
 11
2764.7872100474424
 21
2143.7014088943292
 31
0.0
  0
LINE
  5
1FE
330
17
100
AcDbEntity
  8
Hachura
 62
7
370
25
100
AcDbLine
 10
2762.255348261799
 20
2144.022078336026
 30
0.0
 11
2762.4672029109142
 21
2144.022078336026
 31
0.0
  0
LINE
  5
1FF
330
17
100
AcDbEntity
  8
Hachura
 62
7
370
25
100
AcDbLine
 10
2763.9006624668527
 20
2141.9875867997366
 30
0.0
 11
2764.466358895167
 21
2143.1189796134854
 31
0.0
  0
LINE
  5
200
330
17
100
AcDbEntity
  8
Hachura
 62
7
370
25
100
AcDbLine
 10
2763.8215400789295
 20
2142.0873109715235
 30
0.0
 11
2764.466358895167
 21
2143.376948561116
 31
0.0
  0
LINE
  5
201
330
17
100
AcDbEntity
  8
Hachura
 62
7
370
25
100
AcDbLine
 10
2764.7872100474424
 20
2143.7014088943292
 30
0.0
 11
2764.7872100474424
 21
2142.411563984661
 31
0.0
  0
LINE
  5
202
330
17
100
AcDbEntity
  8
Hachura
 62
7
370
25
100
AcDbLine
 10
2764.1440013063484
 20
2144.022078336026
 30
0.0
 11
2763.1766176240953
 21
2142.0873109715235
 31
0.0
  0
LINE
  5
203
330
17
100
AcDbEntity
  8
Hachura
 62
7
370
25
100
AcDbLine
 10
2764.464748798584
 20
2142.089102757244
 30
0.0
 11
2764.464748798584
 21
2144.0238701217463
 31
0.0
  0
LINE
  5
204
330
17
100
AcDbEntity
  8
Hachura
 62
7
370
25
100
AcDbLine
 10
2752.986842842009
 20
2137.493747479399
 30
0.0
 11
2752.986842842009
 21
2145.30840922403
 31
0.0
  0
LINE
  5
205
330
17
100
AcDbEntity
  8
Hachura
 62
7
370
25
100
AcDbLine
 10
2759.6940363701387
 20
2141.3134039999964
 30
0.0
 11
2759.6940363701387
 21
2144.66700079086
 31
0.0
  0
LINE
  5
206
330
17
100
AcDbEntity
  8
Hachura
 62
7
370
25
100
AcDbLine
 10
2759.62631951281
 20
2141.3134039999964
 30
0.0
 11
2759.62631951281
 21
2144.66700079086
 31
0.0
  0
LINE
  5
207
330
17
100
AcDbEntity
  8
Hachura
 62
7
370
25
100
AcDbLine
 10
2756.469424095969
 20
2144.9249697384917
 30
0.0
 11
2756.469424095969
 21
2141.0554350094867
 31
0.0
  0
LINE
  5
208
330
17
100
AcDbEntity
  8
Hachura
 62
7
370
25
100
AcDbLine
 10
2753.8897342766336
 20
2149.439426922328
 30
0.0
 11
2753.889734276633
 21
2136.5409778256494
 31
0.0
  0
LINE
  5
209
330
17
100
AcDbEntity
  8
Hachura
 62
7
370
25
100
AcDbLine
 10
2752.986842842009
 20
2136.5409778256494
 30
0.0
 11
2752.986842842009
 21
2149.435885157935
 31
0.0
  0
LINE
  5
20A
330
17
100
AcDbEntity
  8
Hachura
 62
7
370
25
100
AcDbLine
 10
2759.6940363701387
 20
2143.6351248288233
 30
0.0
 11
2756.469424095969
 21
2143.6351248288233
 31
0.0
  0
LINE
  5
20B
330
17
100
AcDbEntity
  8
Hachura
 62
7
370
25
100
AcDbLine
 10
2759.6940363701387
 20
2144.66700079086
 30
0.0
 11
2756.469424095969
 21
2144.66700079086
 31
0.0
  0
LINE
  5
20C
330
17
100
AcDbEntity
  8
Hachura
 62
7
370
25
100
AcDbLine
 10
2753.889734276633
 20
2142.990202373989
 30
0.0
 11
2753.8897342766336
 21
2144.9249697384917
 31
0.0
  0
LINE
  5
20D
330
17
100
AcDbEntity
  8
Hachura
 62
7
370
25
100
AcDbLine
 10
2753.8897342766336
 20
2144.2800472836575
 30
0.0
 11
2753.8897342766336
 21
2143.6351248288233
 31
0.0
  0
LINE
  5
20E
330
17
100
AcDbEntity
  8
Hachura
 62
7
370
25
100
AcDbLine
 10
2753.889734276633
 20
2142.9958427363504
 30
0.0
 11
2752.986842842009
 21
2142.9958427363504
 31
0.0
  0
LINE
  5
20F
330
17
100
AcDbEntity
  8
Hachura
 62
7
370
25
100
AcDbLine
 10
2753.889734276633
 20
2143.302384427699
 30
0.0
 11
2755.888893466091
 21
2143.302384427699
 31
0.0
  0
LINE
  5
210
330
17
100
AcDbEntity
  8
Hachura
 62
7
370
25
100
AcDbLine
 10
2755.888893466091
 20
2142.7864464466797
 30
0.0
 11
2753.889734276633
 21
2142.7864464466797
 31
0.0
  0
LINE
  5
211
330
17
100
AcDbEntity
  8
Hachura
 62
7
370
25
100
AcDbLine
 10
2753.908008833701
 20
2146.0300789977214
 30
0.0
 11
2752.980786158619
 21
2146.0300789977214
 31
0.0
  0
LINE
  5
212
330
17
100
AcDbEntity
  8
Hachura
 62
7
370
25
100
AcDbLine
 10
2753.1368887199314
 20
2143.949818006737
 30
0.0
 11
2753.5699565256514
 21
2143.949818006737
 31
0.0
  0
LINE
  5
213
330
17
100
AcDbEntity
  8
Hachura
 62
7
370
25
100
AcDbLine
 10
2753.8897342766336
 20
2144.9249697384917
 30
0.0
 11
2756.469424095969
 21
2144.9249697384917
 31
0.0
  0
LINE
  5
214
330
17
100
AcDbEntity
  8
Hachura
 62
7
370
25
100
AcDbLine
 10
2753.5699565256514
 20
2143.949818006737
 30
0.0
 11
2753.7818111747656
 21
2143.949818006737
 31
0.0
  0
LINE
  5
215
330
17
100
AcDbEntity
  8
Hachura
 62
7
370
25
100
AcDbLine
 10
2752.986842842009
 20
2149.435885157935
 30
0.0
 11
2758.123511424095
 21
2149.435885157935
 31
0.0
  0
LINE
  5
216
330
17
100
AcDbEntity
  8
Hachura
 62
7
370
25
100
AcDbLine
 10
2758.146222480681
 20
2147.762628548335
 30
0.0
 11
2755.935914162828
 21
2147.1809684742807
 31
0.0
  0
LINE
  5
217
330
17
100
AcDbEntity
  8
Hachura
 62
7
370
25
100
AcDbLine
 10
2758.146222480681
 20
2149.439426922328
 30
0.0
 11
2758.146222480681
 21
2147.762628548335
 31
0.0
  0
LINE
  5
218
330
17
100
AcDbEntity
  8
Hachura
 62
7
370
25
100
AcDbLine
 10
2755.6955171565996
 20
2146.8691244359075
 30
0.0
 11
2755.6955171565996
 21
2144.9249697384917
 31
0.0
  0
LINE
  5
219
330
17
100
AcDbEntity
  8
Hachura
 62
7
370
25
100
AcDbLine
 10
2753.8897342766336
 20
2149.439426922328
 30
0.0
 11
2753.8897342766336
 21
2144.2800472836575
 31
0.0
  0
LINE
  5
21A
330
17
100
AcDbEntity
  8
Hachura
 62
7
370
25
100
AcDbLine
 10
2758.146222480681
 20
2138.2177762425204
 30
0.0
 11
2755.935914162828
 21
2138.799436316575
 31
0.0
  0
LINE
  5
21B
330
17
100
AcDbEntity
  8
Hachura
 62
7
370
25
100
AcDbLine
 10
2756.469424095969
 20
2141.3134039999964
 30
0.0
 11
2759.6940363701387
 21
2141.3134039999964
 31
0.0
  0
LINE
  5
21C
330
17
100
AcDbEntity
  8
Hachura
 62
7
370
25
100
AcDbLine
 10
2759.6940363701387
 20
2142.0873109715235
 30
0.0
 11
2756.469424095969
 21
2142.0873109715235
 31
0.0
  0
LINE
  5
21D
330
17
100
AcDbEntity
  8
Hachura
 62
7
370
25
100
AcDbLine
 10
2753.9080088337005
 20
2139.964064403511
 30
0.0
 11
2752.986842842009
 21
2139.964064403511
 31
0.0
  0
LINE
  5
21E
330
17
100
AcDbEntity
  8
Hachura
 62
7
370
25
100
AcDbLine
 10
2753.7634332578136
 20
2142.0150506422347
 30
0.0
 11
2753.3303654628144
 21
2142.0150506422347
 31
0.0
  0
LINE
  5
21F
330
17
100
AcDbEntity
  8
Hachura
 62
7
370
25
100
AcDbLine
 10
2753.9080088337005
 20
2138.5318107986463
 30
0.0
 11
2752.980786158619
 21
2138.5318107986463
 31
0.0
  0
LINE
  5
220
330
17
100
AcDbEntity
  8
Hachura
 62
7
370
25
100
AcDbLine
 10
2756.469424095969
 20
2141.0554350094867
 30
0.0
 11
2753.889734276633
 21
2141.0554350094867
 31
0.0
  0
LINE
  5
221
330
17
100
AcDbEntity
  8
Hachura
 62
7
370
25
100
AcDbLine
 10
2756.469424095969
 20
2141.0554350094867
 30
0.0
 11
2756.469424095969
 21
2141.3134039999964
 31
0.0
  0
LINE
  5
222
330
17
100
AcDbEntity
  8
Hachura
 62
7
370
25
100
AcDbLine
 10
2756.469424095969
 20
2141.0554350094867
 30
0.0
 11
2756.469424095969
 21
2141.3134039999964
 31
0.0
  0
LINE
  5
223
330
17
100
AcDbEntity
  8
Hachura
 62
7
370
25
100
AcDbLine
 10
2755.6955171565996
 20
2139.111280354951
 30
0.0
 11
2755.6955171565996
 21
2141.0593169331655
 31
0.0
  0
LINE
  5
224
330
17
100
AcDbEntity
  8
Hachura
 62
7
370
25
100
AcDbLine
 10
2753.889734276633
 20
2136.5409778256494
 30
0.0
 11
2758.146222480681
 21
2136.5409778256494
 31
0.0
  0
LINE
  5
225
330
17
100
AcDbEntity
  8
Hachura
 62
7
370
25
100
AcDbLine
 10
2753.889734276633
 20
2136.5409778256494
 30
0.0
 11
2752.986842842009
 21
2136.5409778256494
 31
0.0
  0
LINE
  5
226
330
17
100
AcDbEntity
  8
Hachura
 62
7
370
25
100
AcDbLine
 10
2753.9080088337005
 20
2137.689308882444
 30
0.0
 11
2752.980786158619
 21
2137.689308882444
 31
0.0
  0
LINE
  5
227
330
17
100
AcDbEntity
  8
Hachura
 62
7
370
25
100
AcDbLine
 10
2753.9080088337005
 20
2137.225932650585
 30
0.0
 11
2752.980786158619
 21
2137.225932650585
 31
0.0
  0
LINE
  5
228
330
17
100
AcDbEntity
  8
Hachura
 62
7
370
25
100
AcDbLine
 10
2753.9080088337005
 20
2136.8889319184077
 30
0.0
 11
2752.980786158619
 21
2136.8889319184077
 31
0.0
  0
LINE
  5
229
330
17
100
AcDbEntity
  8
Hachura
 62
7
370
25
100
AcDbLine
 10
2753.9080088337005
 20
2136.6783061713627
 30
0.0
 11
2752.980786158619
 21
2136.6783061713627
 31
0.0
  0
LINE
  5
22A
330
17
100
AcDbEntity
  8
Hachura
 62
7
370
25
100
AcDbLine
 10
2758.146222480681
 20
2136.5409778256494
 30
0.0
 11
2758.146222480681
 21
2138.2177762425204
 31
0.0
  0
LINE
  5
22B
330
17
100
AcDbEntity
  8
Hachura
 62
7
370
25
100
AcDbLine
 10
2759.6940363701387
 20
2142.8612179190345
 30
0.0
 11
2760.327509652965
 21
2144.1281644719998
 31
0.0
  0
LINE
  5
22C
330
17
100
AcDbEntity
  8
Hachura
 62
7
370
25
100
AcDbLine
 10
2759.6940363701387
 20
2143.119186896853
 30
0.0
 11
2760.1454820915233
 21
2144.022078339624
 31
0.0
  0
LINE
  5
22D
330
17
100
AcDbEntity
  8
Hachura
 62
7
370
25
100
AcDbLine
 10
2759.6940363701387
 20
2144.022078339625
 30
0.0
 11
2760.1454820915237
 21
2144.022078339625
 31
0.0
  0
LINE
  5
22E
330
17
100
AcDbEntity
  8
Hachura
 62
7
370
25
100
AcDbLine
 10
2753.908008833701
 20
2147.445052184938
 30
0.0
 11
2752.980786158619
 21
2147.445052184938
 31
0.0
  0
LINE
  5
22F
330
17
100
AcDbEntity
  8
Hachura
 62
7
370
25
100
AcDbLine
 10
2753.908008833701
 20
2148.2875541011404
 30
0.0
 11
2752.980786158619
 21
2148.2875541011404
 31
0.0
  0
LINE
  5
230
330
17
100
AcDbEntity
  8
Hachura
 62
7
370
25
100
AcDbLine
 10
2753.908008833701
 20
2148.7509303329994
 30
0.0
 11
2752.980786158619
 21
2148.7509303329994
 31
0.0
  0
LINE
  5
231
330
17
100
AcDbEntity
  8
Hachura
 62
7
370
25
100
AcDbLine
 10
2753.908008833701
 20
2149.0879310651767
 30
0.0
 11
2752.980786158619
 21
2149.0879310651767
 31
0.0
  0
LINE
  5
232
330
17
100
AcDbEntity
  8
Hachura
 62
7
370
25
100
AcDbLine
 10
2753.908008833701
 20
2149.2985568122217
 30
0.0
 11
2752.980786158619
 21
2149.2985568122217
 31
0.0
  0
LINE
  5
233
330
17
100
AcDbEntity
  8
Hachura
 62
7
370
25
100
AcDbLine
 10
2618.990544869966
 20
2144.021456071887
 30
0.0
 11
2618.345622415132
 21
2144.021456071887
 31
0.0
  0
LINE
  5
234
330
17
100
AcDbEntity
  8
Hachura
 62
7
370
25
100
AcDbLine
 10
2617.8296844555516
 20
2144.021456071887
 30
0.0
 11
2618.7970681378047
 21
2142.0866887073844
 31
0.0
  0
LINE
  5
235
330
17
100
AcDbEntity
  8
Hachura
 62
7
370
25
100
AcDbLine
 10
2617.922327296104
 20
2144.094139402733
 30
0.0
 11
2619.0051336320043
 21
2141.928526645175
 31
0.0
  0
LINE
  5
236
330
17
100
AcDbEntity
  8
Hachura
 62
7
370
25
100
AcDbLine
 10
2619.2338837094617
 20
2141.9869645355975
 30
0.0
 11
2618.16359485369
 21
2144.1275422042627
 31
0.0
  0
LINE
  5
237
330
17
100
AcDbEntity
  8
Hachura
 62
7
370
25
100
AcDbLine
 10
2619.313006097381
 20
2142.0866887073844
 30
0.0
 11
2618.345622415132
 21
2144.021456071887
 31
0.0
  0
LINE
  5
238
330
17
100
AcDbEntity
  8
Hachura
 62
7
370
25
100
AcDbLine
 10
2619.957928552215
 20
2142.0866887073844
 30
0.0
 11
2619.313006097381
 21
2142.0866887073844
 31
0.0
  0
LINE
  5
239
330
17
100
AcDbEntity
  8
Hachura
 62
7
370
25
100
AcDbLine
 10
2621.634726936927
 20
2142.0866887073844
 30
0.0
 11
2622.2796493917613
 21
2142.0866887073844
 31
0.0
  0
LINE
  5
23A
330
17
100
AcDbEntity
  8
Hachura
 62
7
370
25
100
AcDbLine
 10
2620.6857211716324
 20
2142.0866887073844
 30
0.0
 11
2620.4738665225173
 21
2142.0866887073844
 31
0.0
  0
LINE
  5
23B
330
17
100
AcDbEntity
  8
Hachura
 62
7
370
25
100
AcDbLine
 10
2620.6857211716324
 20
2142.0866887073844
 30
0.0
 11
2621.118788977347
 21
2142.0866887073844
 31
0.0
  0
LINE
  5
23C
330
17
100
AcDbEntity
  8
Hachura
 62
7
370
25
100
AcDbLine
 10
2620.151405295098
 20
2144.021456071887
 30
0.0
 11
2619.5064828402637
 21
2144.021456071887
 31
0.0
  0
LINE
  5
23D
330
17
100
AcDbEntity
  8
Hachura
 62
7
370
25
100
AcDbLine
 10
2621.3122657095123
 20
2144.021456071887
 30
0.0
 11
2620.667343254678
 21
2144.021456071887
 31
0.0
  0
LINE
  5
23E
330
17
100
AcDbEntity
  8
Hachura
 62
7
370
25
100
AcDbLine
 10
2618.990544869966
 20
2144.021456071887
 30
0.0
 11
2619.957928552215
 21
2142.0866887073844
 31
0.0
  0
LINE
  5
23F
330
17
100
AcDbEntity
  8
Hachura
 62
7
370
25
100
AcDbLine
 10
2619.083187721236
 20
2144.094139402733
 30
0.0
 11
2620.1659940571362
 21
2141.928526645175
 31
0.0
  0
LINE
  5
240
330
17
100
AcDbEntity
  8
Hachura
 62
7
370
25
100
AcDbLine
 10
2620.394744123872
 20
2141.9869645355975
 30
0.0
 11
2619.324455278822
 21
2144.1275422042627
 31
0.0
  0
LINE
  5
241
330
17
100
AcDbEntity
  8
Hachura
 62
7
370
25
100
AcDbLine
 10
2620.4738665225173
 20
2142.0866887073844
 30
0.0
 11
2619.5064828402637
 21
2144.021456071887
 31
0.0
  0
LINE
  5
242
330
17
100
AcDbEntity
  8
Hachura
 62
7
370
25
100
AcDbLine
 10
2621.3122657095123
 20
2144.021456071887
 30
0.0
 11
2622.2796493917613
 21
2142.0866887073844
 31
0.0
  0
LINE
  5
243
330
17
100
AcDbEntity
  8
Hachura
 62
7
370
25
100
AcDbLine
 10
2620.151405295098
 20
2144.021456071887
 30
0.0
 11
2621.118788977347
 21
2142.0866887073844
 31
0.0
  0
LINE
  5
244
330
17
100
AcDbEntity
  8
Hachura
 62
7
370
25
100
AcDbLine
 10
2620.2440481356502
 20
2144.094139402733
 30
0.0
 11
2621.3268544715506
 21
2141.928526645175
 31
0.0
  0
LINE
  5
245
330
17
100
AcDbEntity
  8
Hachura
 62
7
370
25
100
AcDbLine
 10
2621.5556045382864
 20
2141.9869645355975
 30
0.0
 11
2620.4853156932368
 21
2144.1275422042627
 31
0.0
  0
LINE
  5
246
330
17
100
AcDbEntity
  8
Hachura
 62
7
370
25
100
AcDbLine
 10
2621.634726936927
 20
2142.0866887073844
 30
0.0
 11
2620.667343254678
 21
2144.021456071887
 31
0.0
  0
LINE
  5
247
330
17
100
AcDbEntity
  8
Hachura
 62
7
370
25
100
AcDbLine
 10
2617.507326866733
 20
2142.344450377819
 30
0.0
 11
2617.6362077233903
 21
2142.0866887073844
 31
0.0
  0
LINE
  5
248
330
17
100
AcDbEntity
  8
Hachura
 62
7
370
25
100
AcDbLine
 10
2617.507326866733
 20
2142.602419368329
 30
0.0
 11
2617.8442732283115
 21
2141.928526645175
 31
0.0
  0
LINE
  5
249
330
17
100
AcDbEntity
  8
Hachura
 62
7
370
25
100
AcDbLine
 10
2617.6362077233903
 20
2142.0866887073844
 30
0.0
 11
2617.507326866733
 21
2142.0866887073844
 31
0.0
  0
LINE
  5
24A
330
17
100
AcDbEntity
  8
Hachura
 62
7
370
25
100
AcDbLine
 10
2617.508936963316
 20
2142.0884804931047
 30
0.0
 11
2617.1864757144576
 21
2142.410941720522
 31
0.0
  0
LINE
  5
24B
330
17
100
AcDbEntity
  8
Hachura
 62
7
370
25
100
AcDbLine
 10
2618.1521456829705
 20
2142.0866887073844
 30
0.0
 11
2618.7970681378047
 21
2142.0866887073844
 31
0.0
  0
LINE
  5
24C
330
17
100
AcDbEntity
  8
Hachura
 62
7
370
25
100
AcDbLine
 10
2617.8296844555516
 20
2144.021456071887
 30
0.0
 11
2617.507326866733
 21
2144.021456071887
 31
0.0
  0
LINE
  5
24D
330
17
100
AcDbEntity
  8
Hachura
 62
7
370
25
100
AcDbLine
 10
2617.5089369418765
 20
2144.0233333583783
 30
0.0
 11
2617.50901435995
 21
2144.0233333583783
 31
0.0
  0
LINE
  5
24E
330
17
100
AcDbEntity
  8
Hachura
 62
7
370
25
100
AcDbLine
 10
2617.5089369418765
 20
2144.0233333583783
 30
0.0
 11
2617.1864757144576
 21
2143.70078663019
 31
0.0
  0
LINE
  5
24F
330
17
100
AcDbEntity
  8
Hachura
 62
7
370
25
100
AcDbLine
 10
2619.718337500101
 20
2144.021456071887
 30
0.0
 11
2619.506482850986
 21
2144.021456071887
 31
0.0
  0
LINE
  5
250
330
17
100
AcDbEntity
  8
Hachura
 62
7
370
25
100
AcDbLine
 10
2618.0730232950473
 20
2141.9869645355975
 30
0.0
 11
2617.507326866733
 21
2143.1183573493463
 31
0.0
  0
LINE
  5
251
330
17
100
AcDbEntity
  8
Hachura
 62
7
370
25
100
AcDbLine
 10
2618.1521456829705
 20
2142.0866887073844
 30
0.0
 11
2617.507326866733
 21
2143.376326296977
 31
0.0
  0
LINE
  5
252
330
17
100
AcDbEntity
  8
Hachura
 62
7
370
25
100
AcDbLine
 10
2617.1864757144576
 20
2143.70078663019
 30
0.0
 11
2617.1864757144576
 21
2142.410941720522
 31
0.0
  0
LINE
  5
253
330
17
100
AcDbEntity
  8
Hachura
 62
7
370
25
100
AcDbLine
 10
2617.8296844555516
 20
2144.021456071887
 30
0.0
 11
2618.7970681378047
 21
2142.0866887073844
 31
0.0
  0
LINE
  5
254
330
17
100
AcDbEntity
  8
Hachura
 62
7
370
25
100
AcDbLine
 10
2617.508936963316
 20
2142.0884804931047
 30
0.0
 11
2617.508936963316
 21
2144.023247857607
 31
0.0
  0
LINE
  5
255
330
17
100
AcDbEntity
  8
Hachura
 62
7
370
25
100
AcDbLine
 10
2628.986842919891
 20
2137.49312521526
 30
0.0
 11
2628.986842919891
 21
2145.307786959891
 31
0.0
  0
LINE
  5
256
330
17
100
AcDbEntity
  8
Hachura
 62
7
370
25
100
AcDbLine
 10
2622.2796493917613
 20
2141.3127817358572
 30
0.0
 11
2622.2796493917613
 21
2144.666378526721
 31
0.0
  0
LINE
  5
257
330
17
100
AcDbEntity
  8
Hachura
 62
7
370
25
100
AcDbLine
 10
2622.34736624909
 20
2141.3127817358572
 30
0.0
 11
2622.34736624909
 21
2144.666378526721
 31
0.0
  0
LINE
  5
258
330
17
100
AcDbEntity
  8
Hachura
 62
7
370
25
100
AcDbLine
 10
2625.504261665931
 20
2144.9243474743525
 30
0.0
 11
2625.504261665931
 21
2141.0548127453476
 31
0.0
  0
LINE
  5
259
330
17
100
AcDbEntity
  8
Hachura
 62
7
370
25
100
AcDbLine
 10
2628.083951485267
 20
2149.438804658189
 30
0.0
 11
2628.0839514852664
 21
2136.5403555615103
 31
0.0
  0
LINE
  5
25A
330
17
100
AcDbEntity
  8
Hachura
 62
7
370
25
100
AcDbLine
 10
2628.986842919891
 20
2136.5403555615103
 30
0.0
 11
2628.986842919891
 21
2149.435262893796
 31
0.0
  0
LINE
  5
25B
330
17
100
AcDbEntity
  8
Hachura
 62
7
370
25
100
AcDbLine
 10
2622.2796493917613
 20
2143.634502564684
 30
0.0
 11
2625.504261665931
 21
2143.634502564684
 31
0.0
  0
LINE
  5
25C
330
17
100
AcDbEntity
  8
Hachura
 62
7
370
25
100
AcDbLine
 10
2622.2796493917613
 20
2144.666378526721
 30
0.0
 11
2625.504261665931
 21
2144.666378526721
 31
0.0
  0
LINE
  5
25D
330
17
100
AcDbEntity
  8
Hachura
 62
7
370
25
100
AcDbLine
 10
2628.083951485267
 20
2142.98958010985
 30
0.0
 11
2628.083951485267
 21
2144.9243474743525
 31
0.0
  0
LINE
  5
25E
330
17
100
AcDbEntity
  8
Hachura
 62
7
370
25
100
AcDbLine
 10
2628.083951485267
 20
2144.2794250195184
 30
0.0
 11
2628.083951485267
 21
2143.634502564684
 31
0.0
  0
LINE
  5
25F
330
17
100
AcDbEntity
  8
Hachura
 62
7
370
25
100
AcDbLine
 10
2628.083951485267
 20
2142.9952204722113
 30
0.0
 11
2628.986842919891
 21
2142.9952204722113
 31
0.0
  0
LINE
  5
260
330
17
100
AcDbEntity
  8
Hachura
 62
7
370
25
100
AcDbLine
 10
2628.083951485267
 20
2143.30176216356
 30
0.0
 11
2626.084792295809
 21
2143.30176216356
 31
0.0
  0
LINE
  5
261
330
17
100
AcDbEntity
  8
Hachura
 62
7
370
25
100
AcDbLine
 10
2626.0847922958087
 20
2142.7858241825406
 30
0.0
 11
2628.0839514852664
 21
2142.7858241825406
 31
0.0
  0
LINE
  5
262
330
17
100
AcDbEntity
  8
Hachura
 62
7
370
25
100
AcDbLine
 10
2628.0656769281995
 20
2146.0294567335823
 30
0.0
 11
2628.992899603281
 21
2146.0294567335823
 31
0.0
  0
LINE
  5
263
330
17
100
AcDbEntity
  8
Hachura
 62
7
370
25
100
AcDbLine
 10
2628.8367970419686
 20
2143.949195742598
 30
0.0
 11
2628.4037292362486
 21
2143.949195742598
 31
0.0
  0
LINE
  5
264
330
17
100
AcDbEntity
  8
Hachura
 62
7
370
25
100
AcDbLine
 10
2628.083951485267
 20
2144.9243474743525
 30
0.0
 11
2625.504261665931
 21
2144.9243474743525
 31
0.0
  0
LINE
  5
265
330
17
100
AcDbEntity
  8
Hachura
 62
7
370
25
100
AcDbLine
 10
2628.4037292362486
 20
2143.949195742598
 30
0.0
 11
2628.1918745871344
 21
2143.949195742598
 31
0.0
  0
LINE
  5
266
330
17
100
AcDbEntity
  8
Hachura
 62
7
370
25
100
AcDbLine
 10
2628.986842919891
 20
2149.435262893796
 30
0.0
 11
2623.850174337805
 21
2149.435262893796
 31
0.0
  0
LINE
  5
267
330
17
100
AcDbEntity
  8
Hachura
 62
7
370
25
100
AcDbLine
 10
2623.827463281219
 20
2147.762006284196
 30
0.0
 11
2626.037771599072
 21
2147.1803462101416
 31
0.0
  0
LINE
  5
268
330
17
100
AcDbEntity
  8
Hachura
 62
7
370
25
100
AcDbLine
 10
2623.827463281219
 20
2149.438804658189
 30
0.0
 11
2623.827463281219
 21
2147.762006284196
 31
0.0
  0
LINE
  5
269
330
17
100
AcDbEntity
  8
Hachura
 62
7
370
25
100
AcDbLine
 10
2626.2781686053004
 20
2146.8685021717683
 30
0.0
 11
2626.2781686053004
 21
2144.9243474743525
 31
0.0
  0
LINE
  5
26A
330
17
100
AcDbEntity
  8
Hachura
 62
7
370
25
100
AcDbLine
 10
2628.083951485267
 20
2149.438804658189
 30
0.0
 11
2628.083951485267
 21
2144.2794250195184
 31
0.0
  0
LINE
  5
26B
330
17
100
AcDbEntity
  8
Hachura
 62
7
370
25
100
AcDbLine
 10
2623.8274632812186
 20
2138.2171539783812
 30
0.0
 11
2626.037771599072
 21
2138.798814052436
 31
0.0
  0
LINE
  5
26C
330
17
100
AcDbEntity
  8
Hachura
 62
7
370
25
100
AcDbLine
 10
2625.504261665931
 20
2141.3127817358572
 30
0.0
 11
2622.2796493917613
 21
2141.3127817358572
 31
0.0
  0
LINE
  5
26D
330
17
100
AcDbEntity
  8
Hachura
 62
7
370
25
100
AcDbLine
 10
2622.2796493917613
 20
2142.0866887073844
 30
0.0
 11
2625.504261665931
 21
2142.0866887073844
 31
0.0
  0
LINE
  5
26E
330
17
100
AcDbEntity
  8
Hachura
 62
7
370
25
100
AcDbLine
 10
2628.065676928199
 20
2139.963442139372
 30
0.0
 11
2628.986842919891
 21
2139.963442139372
 31
0.0
  0
LINE
  5
26F
330
17
100
AcDbEntity
  8
Hachura
 62
7
370
25
100
AcDbLine
 10
2628.2102525040864
 20
2142.0144283780955
 30
0.0
 11
2628.6433202990856
 21
2142.0144283780955
 31
0.0
  0
LINE
  5
270
330
17
100
AcDbEntity
  8
Hachura
 62
7
370
25
100
AcDbLine
 10
2628.065676928199
 20
2138.5311885345072
 30
0.0
 11
2628.992899603281
 21
2138.5311885345072
 31
0.0
  0
LINE
  5
271
330
17
100
AcDbEntity
  8
Hachura
 62
7
370
25
100
AcDbLine
 10
2625.504261665931
 20
2141.0548127453476
 30
0.0
 11
2628.0839514852664
 21
2141.0548127453476
 31
0.0
  0
LINE
  5
272
330
17
100
AcDbEntity
  8
Hachura
 62
7
370
25
100
AcDbLine
 10
2625.504261665931
 20
2141.0548127453476
 30
0.0
 11
2625.504261665931
 21
2141.3127817358572
 31
0.0
  0
LINE
  5
273
330
17
100
AcDbEntity
  8
Hachura
 62
7
370
25
100
AcDbLine
 10
2625.504261665931
 20
2141.0548127453476
 30
0.0
 11
2625.504261665931
 21
2141.3127817358572
 31
0.0
  0
LINE
  5
274
330
17
100
AcDbEntity
  8
Hachura
 62
7
370
25
100
AcDbLine
 10
2626.2781686053004
 20
2139.1106580908117
 30
0.0
 11
2626.2781686053004
 21
2141.0586946690264
 31
0.0
  0
LINE
  5
275
330
17
100
AcDbEntity
  8
Hachura
 62
7
370
25
100
AcDbLine
 10
2628.0839514852664
 20
2136.5403555615103
 30
0.0
 11
2623.8274632812186
 21
2136.5403555615103
 31
0.0
  0
LINE
  5
276
330
17
100
AcDbEntity
  8
Hachura
 62
7
370
25
100
AcDbLine
 10
2628.0839514852664
 20
2136.5403555615103
 30
0.0
 11
2628.986842919891
 21
2136.5403555615103
 31
0.0
  0
LINE
  5
277
330
17
100
AcDbEntity
  8
Hachura
 62
7
370
25
100
AcDbLine
 10
2628.065676928199
 20
2137.688686618305
 30
0.0
 11
2628.992899603281
 21
2137.688686618305
 31
0.0
  0
LINE
  5
278
330
17
100
AcDbEntity
  8
Hachura
 62
7
370
25
100
AcDbLine
 10
2628.065676928199
 20
2137.225310386446
 30
0.0
 11
2628.992899603281
 21
2137.225310386446
 31
0.0
  0
LINE
  5
279
330
17
100
AcDbEntity
  8
Hachura
 62
7
370
25
100
AcDbLine
 10
2628.065676928199
 20
2136.8883096542686
 30
0.0
 11
2628.992899603281
 21
2136.8883096542686
 31
0.0
  0
LINE
  5
27A
330
17
100
AcDbEntity
  8
Hachura
 62
7
370
25
100
AcDbLine
 10
2628.065676928199
 20
2136.6776839072236
 30
0.0
 11
2628.992899603281
 21
2136.6776839072236
 31
0.0
  0
LINE
  5
27B
330
17
100
AcDbEntity
  8
Hachura
 62
7
370
25
100
AcDbLine
 10
2623.8274632812186
 20
2136.5403555615103
 30
0.0
 11
2623.8274632812186
 21
2138.2171539783812
 31
0.0
  0
LINE
  5
27C
330
17
100
AcDbEntity
  8
Hachura
 62
7
370
25
100
AcDbLine
 10
2622.2796493917613
 20
2142.8605956548954
 30
0.0
 11
2621.646176108935
 21
2144.1275422078606
 31
0.0
  0
LINE
  5
27D
330
17
100
AcDbEntity
  8
Hachura
 62
7
370
25
100
AcDbLine
 10
2622.2796493917613
 20
2143.118564632714
 30
0.0
 11
2621.8282036703768
 21
2144.021456075485
 31
0.0
  0
LINE
  5
27E
330
17
100
AcDbEntity
  8
Hachura
 62
7
370
25
100
AcDbLine
 10
2622.2796493917613
 20
2144.0214560754857
 30
0.0
 11
2621.8282036703763
 21
2144.0214560754857
 31
0.0
  0
LINE
  5
27F
330
17
100
AcDbEntity
  8
Hachura
 62
7
370
25
100
AcDbLine
 10
2628.0656769281995
 20
2147.444429920799
 30
0.0
 11
2628.992899603281
 21
2147.444429920799
 31
0.0
  0
LINE
  5
280
330
17
100
AcDbEntity
  8
Hachura
 62
7
370
25
100
AcDbLine
 10
2628.0656769281995
 20
2148.2869318370012
 30
0.0
 11
2628.992899603281
 21
2148.2869318370012
 31
0.0
  0
LINE
  5
281
330
17
100
AcDbEntity
  8
Hachura
 62
7
370
25
100
AcDbLine
 10
2628.0656769281995
 20
2148.7503080688602
 30
0.0
 11
2628.992899603281
 21
2148.7503080688602
 31
0.0
  0
LINE
  5
282
330
17
100
AcDbEntity
  8
Hachura
 62
7
370
25
100
AcDbLine
 10
2628.0656769281995
 20
2149.0873088010376
 30
0.0
 11
2628.992899603281
 21
2149.0873088010376
 31
0.0
  0
LINE
  5
283
330
17
100
AcDbEntity
  8
Hachura
 62
7
370
25
100
AcDbLine
 10
2628.0656769281995
 20
2149.2979345480826
 30
0.0
 11
2628.992899603281
 21
2149.2979345480826
 31
0.0
  0
LINE
  5
284
330
17
100
AcDbEntity
  8
Hachura
 62
7
370
25
100
AcDbLine
 10
2763.787210047413
 20
2142.988691908501
 30
0.0
 11
2621.98684291989
 21
2142.997233119376
 31
0.0
  0
LINE
  5
285
330
17
100
AcDbEntity
  8
Madeira
 62
7
370
25
100
AcDbLine
 10
2648.97147939272
 20
2074.973051094849
 30
0.0
 11
2662.984115315111
 21
2063.472603049132
 31
0.0
  0
LINE
  5
286
330
17
100
AcDbEntity
  8
Madeira
 62
7
370
25
100
AcDbLine
 10
2648.97147939272
 20
2074.973051094849
 30
0.0
 11
2662.9752962345297
 21
2071.504558159586
 31
0.0
  0
LINE
  5
287
330
17
100
AcDbEntity
  8
Madeira
 62
7
370
25
100
AcDbLine
 10
2648.97147939272
 20
2074.973051094849
 30
0.0
 11
2654.4141213722946
 21
2060.979018672375
 31
0.0
  0
LINE
  5
288
330
17
100
AcDbEntity
  8
Madeira
 62
7
370
25
100
AcDbLine
 10
2648.990602582715
 20
2222.966079088878
 30
0.0
 11
2662.977949781907
 21
2234.4972710946936
 31
0.0
  0
LINE
  5
289
330
17
100
AcDbEntity
  8
Madeira
 62
7
370
25
100
AcDbLine
 10
2648.990602582715
 20
2222.966079088878
 30
0.0
 11
2662.986768862488
 21
2226.4653159842396
 31
0.0
  0
LINE
  5
28A
330
17
100
AcDbEntity
  8
Madeira
 62
7
370
25
100
AcDbLine
 10
2648.990602582715
 20
2222.966079088878
 30
0.0
 11
2654.4025006021907
 21
2236.9720297879867
 31
0.0
  0
LINE
  5
28B
330
17
100
AcDbEntity
  8
Madeira
 62
7
370
25
100
AcDbLine
 10
2648.979073636983
 20
2189.472961582525
 30
0.0
 11
2654.7292976539848
 21
2196.4792795365834
 31
0.0
  0
LINE
  5
28C
330
17
100
AcDbEntity
  8
Madeira
 62
7
370
25
100
AcDbLine
 10
2648.979073636983
 20
2189.472961582525
 30
0.0
 11
2650.7133201028487
 21
2196.4748699962975
 31
0.0
  0
LINE
  5
28D
330
17
100
AcDbEntity
  8
Madeira
 62
7
370
25
100
AcDbLine
 10
2648.979073636983
 20
2189.472961582525
 30
0.0
 11
2662.973106045202
 21
2194.915603556555
 31
0.0
  0
LINE
  5
28E
330
17
100
AcDbEntity
  8
Madeira
 62
7
370
25
100
AcDbLine
 10
2648.979073636983
 20
2145.472994743196
 30
0.0
 11
2654.7292976539848
 21
2152.4793126972545
 31
0.0
  0
LINE
  5
28F
330
17
100
AcDbEntity
  8
Madeira
 62
7
370
25
100
AcDbLine
 10
2648.979073636983
 20
2145.472994743196
 30
0.0
 11
2650.7133201028487
 21
2152.4749031569686
 31
0.0
  0
LINE
  5
290
330
17
100
AcDbEntity
  8
Madeira
 62
7
370
25
100
AcDbLine
 10
2648.979073636983
 20
2145.472994743196
 30
0.0
 11
2662.973106045202
 21
2150.9156367172263
 31
0.0
  0
LINE
  5
291
330
17
100
AcDbEntity
  8
Madeira
 62
7
370
25
100
AcDbLine
 10
2648.979073636983
 20
2101.472994743196
 30
0.0
 11
2654.7292976539848
 21
2108.4793126972545
 31
0.0
  0
LINE
  5
292
330
17
100
AcDbEntity
  8
Madeira
 62
7
370
25
100
AcDbLine
 10
2648.979073636983
 20
2101.472994743196
 30
0.0
 11
2650.7133201028487
 21
2108.4749031569686
 31
0.0
  0
LINE
  5
293
330
17
100
AcDbEntity
  8
Madeira
 62
7
370
25
100
AcDbLine
 10
2648.979073636983
 20
2101.472994743196
 30
0.0
 11
2662.973106045202
 21
2106.9156367172263
 31
0.0
  0
LINE
  5
294
330
17
100
AcDbEntity
  8
Madeira
 62
7
370
25
100
AcDbLine
 10
2733.002206313824
 20
2074.973051094849
 30
0.0
 11
2718.989570391433
 21
2063.472603049132
 31
0.0
  0
LINE
  5
295
330
17
100
AcDbEntity
  8
Madeira
 62
7
370
25
100
AcDbLine
 10
2733.002206313824
 20
2074.973051094849
 30
0.0
 11
2718.9983894720144
 21
2071.504558159586
 31
0.0
  0
LINE
  5
296
330
17
100
AcDbEntity
  8
Madeira
 62
7
370
25
100
AcDbLine
 10
2733.002206313824
 20
2074.973051094849
 30
0.0
 11
2727.5595643342494
 21
2060.979018672375
 31
0.0
  0
LINE
  5
297
330
17
100
AcDbEntity
  8
Madeira
 62
7
370
25
100
AcDbLine
 10
2732.983083123829
 20
2222.966079088878
 30
0.0
 11
2718.9957359246373
 21
2234.4972710946936
 31
0.0
  0
LINE
  5
298
330
17
100
AcDbEntity
  8
Madeira
 62
7
370
25
100
AcDbLine
 10
2732.983083123829
 20
2222.966079088878
 30
0.0
 11
2718.986916844056
 21
2226.4653159842396
 31
0.0
  0
LINE
  5
299
330
17
100
AcDbEntity
  8
Madeira
 62
7
370
25
100
AcDbLine
 10
2732.983083123829
 20
2222.966079088878
 30
0.0
 11
2727.5711851043534
 21
2236.9720297879867
 31
0.0
  0
LINE
  5
29A
330
17
100
AcDbEntity
  8
Madeira
 62
7
370
25
100
AcDbLine
 10
2732.994612069561
 20
2189.472961582525
 30
0.0
 11
2727.244388052559
 21
2196.4792795365834
 31
0.0
  0
LINE
  5
29B
330
17
100
AcDbEntity
  8
Madeira
 62
7
370
25
100
AcDbLine
 10
2732.994612069561
 20
2189.472961582525
 30
0.0
 11
2731.260365603695
 21
2196.4748699962975
 31
0.0
  0
LINE
  5
29C
330
17
100
AcDbEntity
  8
Madeira
 62
7
370
25
100
AcDbLine
 10
2732.994612069561
 20
2189.472961582525
 30
0.0
 11
2719.000579661342
 21
2194.915603556555
 31
0.0
  0
LINE
  5
29D
330
17
100
AcDbEntity
  8
Madeira
 62
7
370
25
100
AcDbLine
 10
2732.994612069561
 20
2145.472994743196
 30
0.0
 11
2727.244388052559
 21
2152.4793126972545
 31
0.0
  0
LINE
  5
29E
330
17
100
AcDbEntity
  8
Madeira
 62
7
370
25
100
AcDbLine
 10
2732.994612069561
 20
2145.472994743196
 30
0.0
 11
2731.260365603695
 21
2152.4749031569686
 31
0.0
  0
LINE
  5
29F
330
17
100
AcDbEntity
  8
Madeira
 62
7
370
25
100
AcDbLine
 10
2732.994612069561
 20
2145.472994743196
 30
0.0
 11
2719.000579661342
 21
2150.9156367172263
 31
0.0
  0
LINE
  5
2A0
330
17
100
AcDbEntity
  8
Madeira
 62
7
370
25
100
AcDbLine
 10
2732.994612069561
 20
2101.472994743196
 30
0.0
 11
2727.244388052559
 21
2108.4793126972545
 31
0.0
  0
LINE
  5
2A1
330
17
100
AcDbEntity
  8
Madeira
 62
7
370
25
100
AcDbLine
 10
2732.994612069561
 20
2101.472994743196
 30
0.0
 11
2731.260365603695
 21
2108.4749031569686
 31
0.0
  0
LINE
  5
2A2
330
17
100
AcDbEntity
  8
Madeira
 62
7
370
25
100
AcDbLine
 10
2732.994612069561
 20
2101.472994743196
 30
0.0
 11
2719.000579661342
 21
2106.9156367172263
 31
0.0
  0
LWPOLYLINE
  5
2A3
330
17
100
AcDbEntity
  8
COTA
 62
7
370
25
100
AcDbPolyline
 90
4
 70
0
 10
3745.528132255386
 20
1940.276403167231
 10
3745.528132255386
 20
1999.276403167229
 10
3721.528132255386
 20
1999.276403167229
 10
3721.528132255386
 20
1940.276403167231
  0
LWPOLYLINE
  5
2A4
330
17
100
AcDbEntity
  8
Painéis
 62
7
370
25
100
AcDbPolyline
 90
4
 70
1
 10
3721.528132255386
 20
1695.276403167233
 10
3745.528132255386
 20
1695.276403167233
 10
3745.528132255386
 20
1693.276403167233
 10
3721.528132255386
 20
1693.276403167233
  0
LWPOLYLINE
  5
2A5
330
17
100
AcDbEntity
  8
Painéis
 62
7
370
25
100
AcDbPolyline
 90
4
 70
1
 10
3206.144873190606
 20
1695.276403167233
 10
3118.144873190606
 20
1695.276403167262
 10
3118.144873190606
 20
1693.276403167262
 10
3206.144873190606
 20
1693.276403167233
  0
LWPOLYLINE
  5
2A6
330
17
100
AcDbEntity
  8
Painéis
 62
7
370
25
100
AcDbPolyline
 90
4
 70
1
 10
3350.378965344076
 20
1695.276403167233
 10
3438.378965344077
 20
1695.276403167262
 10
3438.378965344077
 20
1693.276403167262
 10
3350.378965344076
 20
1693.276403167233
  0
LWPOLYLINE
  5
2A7
330
17
100
AcDbEntity
  8
COTA
 62
7
370
25
100
AcDbPolyline
 90
4
 70
0
 10
3596.692665263683
 20
1940.276403167231
 10
3596.692665263683
 20
1999.276403167229
 10
3572.692665263684
 20
1999.276403167229
 10
3572.692665263684
 20
1940.276403167231
  0
LWPOLYLINE
  5
2A8
330
17
100
AcDbEntity
  8
Painéis
 62
7
370
25
100
AcDbPolyline
 90
4
 70
1
 10
3572.692665263684
 20
1695.276403167233
 10
3596.692665263683
 20
1695.276403167233
 10
3596.692665263683
 20
1693.276403167233
 10
3572.692665263684
 20
1693.276403167233
  0
LWPOLYLINE
  5
2A9
330
17
100
AcDbEntity
  8
Painéis
 62
7
370
25
100
AcDbPolyline
 90
4
 70
1
 10
3177.14487319061
 20
1992.27640316723
 10
3118.144873190611
 20
1992.27640316723
 10
3118.144873190611
 20
1999.276403167232
 10
3177.14487319061
 20
1999.276403167232
  0
LWPOLYLINE
  5
2AA
330
17
100
AcDbEntity
  8
Painéis
 62
7
370
25
100
AcDbPolyline
 90
4
 70
1
 10
3438.378965344077
 20
1992.27640316727
 10
3379.378965344078
 20
1992.27640316727
 10
3379.378965344078
 20
1999.276403167272
 10
3438.378965344077
 20
1999.276403167272
  0
LWPOLYLINE
  5
2AB
330
17
100
AcDbEntity
  8
SARRAFO
 62
7
370
25
100
AcDbPolyline
 90
4
 70
1
 10
2710.586842833894
 20
2236.988431469935
 10
2710.586842834011
 20
2222.988431484079
 10
2714.98684282833
 20
2222.988431484079
 10
2714.98684282833
 20
2236.988431469935
  0
LWPOLYLINE
  5
2AC
330
17
100
AcDbEntity
  8
SARRAFO
 62
7
370
25
100
AcDbPolyline
 90
4
 70
1
 10
2671.386842872591
 20
2060.988431514116
 10
2671.386842872533
 20
2074.988431499972
 10
2666.986842878214
 20
2074.988431499972
 10
2666.986842878214
 20
2060.988431514116
  0
LWPOLYLINE
  5
2AD
330
17
100
AcDbEntity
  8
SARRAFO
 62
7
370
25
100
AcDbPolyline
 90
4
 70
1
 10
2710.586842833894
 20
2060.988431514116
 10
2710.586842834011
 20
2074.988431499972
 10
2714.98684282833
 20
2074.988431499972
 10
2714.98684282833
 20
2060.988431514116
  0
LWPOLYLINE
  5
2AE
330
17
100
AcDbEntity
  8
SARRAFO
 62
7
370
25
100
AcDbPolyline
 90
4
 70
1
 10
2671.386842872591
 20
2236.988431469935
 10
2671.386842872533
 20
2222.988431484079
 10
2666.986842878214
 20
2222.988431484079
 10
2666.986842878214
 20
2236.988431469935
  0
LWPOLYLINE
  5
2AF
330
17
100
AcDbEntity
  8
Perfil Metálico
 62
7
370
25
100
AcDbPolyline
 90
4
 70
1
 10
2736.986842859355
 20
2024.988431545927
 10
2748.986842846316
 20
2024.988431545927
 10
2748.986842846316
 20
2272.988431437688
 10
2736.986842859355
 20
2272.988431437688
  0
LWPOLYLINE
  5
2B0
330
17
100
AcDbEntity
  8
Perfil Metálico
 62
7
370
25
100
AcDbPolyline
 90
4
 70
1
 10
2752.986842842009
 20
2272.988431437688
 10
2732.986842863604
 20
2272.988431437688
 10
2732.986842863604
 20
2024.988431545927
 10
2752.986842842009
 20
2024.988431545927
  0
LWPOLYLINE
  5
2B1
330
17
100
AcDbEntity
  8
Perfil Metálico
 62
7
370
25
100
AcDbPolyline
 90
4
 70
1
 10
2644.986842902545
 20
2024.988431545927
 10
2632.986842915583
 20
2024.988431545927
 10
2632.986842915583
 20
2272.988431437688
 10
2644.986842902545
 20
2272.988431437688
  0
LWPOLYLINE
  5
2B2
330
17
100
AcDbEntity
  8
Perfil Metálico
 62
7
370
25
100
AcDbPolyline
 90
4
 70
1
 10
2628.986842919891
 20
2272.988431437688
 10
2648.986842898296
 20
2272.988431437688
 10
2648.986842898296
 20
2024.988431545927
 10
2628.986842919891
 20
2024.988431545927
  0
LWPOLYLINE
  5
2B3
330
17
100
AcDbEntity
  8
Madeira
 62
7
370
25
100
AcDbPolyline
 90
4
 70
1
 10
2648.990602582715
 20
2222.966079088878
 10
2662.9905941435063
 20
2222.981451068927
 10
2662.975222163457
 20
2236.9814426297185
 10
2648.9752306026658
 20
2236.9660706496693
  0
LWPOLYLINE
  5
2B4
330
17
100
AcDbEntity
  8
Madeira
 62
7
370
25
100
AcDbPolyline
 90
4
 70
1
 10
2648.975230577657
 20
2060.973059533505
 10
2662.975222188507
 20
2060.988431513592
 10
2662.975222188478
 20
2236.981442629728
 10
2648.975230577628
 20
2236.966070649641
  0
LWPOLYLINE
  5
2B5
330
17
100
AcDbEntity
  8
Madeira
 62
7
370
25
100
AcDbPolyline
 90
4
 70
1
 10
2732.998455128888
 20
2060.973059533505
 10
2718.998463518037
 20
2060.988431513592
 10
2718.998463518067
 20
2236.981442629728
 10
2732.998455128916
 20
2236.966070649641
  0
LWPOLYLINE
  5
2B6
330
17
100
AcDbEntity
  8
CHAPA
 62
7
370
25
100
AcDbPolyline
 90
4
 70
1
 10
2666.98684293357
 20
2236.988431469469
 10
2662.98684293357
 20
2236.988431469469
 10
2662.98684293357
 20
2060.988431514116
 10
2666.98684293357
 20
2060.988431514116
  0
LWPOLYLINE
  5
2B7
330
17
100
AcDbEntity
  8
CHAPA
 62
7
370
25
100
AcDbPolyline
 90
4
 70
1
 10
2714.986842772975
 20
2236.988431469469
 10
2718.986842772975
 20
2236.988431469469
 10
2718.986842772975
 20
2060.988431514116
 10
2714.986842772975
 20
2060.988431514116
  0
LWPOLYLINE
  5
2B8
330
17
100
AcDbEntity
  8
CHAPA
 62
7
370
25
100
AcDbPolyline
 90
4
 70
1
 10
2714.986842772975
 20
2079.388431489661
 10
2714.986842772975
 20
2082.988431489667
 10
2666.98684293357
 20
2082.988431489667
 10
2666.98684293357
 20
2079.388431489661
  0
LWPOLYLINE
  5
2B9
330
17
100
AcDbEntity
  8
CHAPA
 62
7
370
25
100
AcDbPolyline
 90
4
 70
1
 10
2714.986842773033
 20
2214.988431489667
 10
2714.986842773033
 20
2218.588431489673
 10
2666.986842933628
 20
2218.588431489673
 10
2666.986842933628
 20
2214.988431489667
  0
LWPOLYLINE
  5
2BA
330
17
100
AcDbEntity
  8
CHAPA
 62
7
370
25
100
AcDbPolyline
 90
4
 70
1
 10
2666.98684293357
 20
2236.988431469469
 10
2662.98684293357
 20
2236.988431469469
 10
2662.98684293357
 20
2060.988431514116
 10
2666.98684293357
 20
2060.988431514116
  0
LWPOLYLINE
  5
2BB
330
17
100
AcDbEntity
  8
CHAPA
 62
7
370
25
100
AcDbPolyline
 90
4
 70
1
 10
2714.986842772975
 20
2236.988431469469
 10
2718.986842772975
 20
2236.988431469469
 10
2718.986842772975
 20
2060.988431514116
 10
2714.986842772975
 20
2060.988431514116
  0
LWPOLYLINE
  5
2BC
330
17
100
AcDbEntity
  8
CHAPA
 62
7
370
25
100
AcDbPolyline
 90
4
 70
1
 10
2714.986842772975
 20
2079.388431489661
 10
2714.986842772975
 20
2082.988431489667
 10
2666.98684293357
 20
2082.988431489667
 10
2666.98684293357
 20
2079.388431489661
  0
LWPOLYLINE
  5
2BD
330
17
100
AcDbEntity
  8
CHAPA
 62
7
370
25
100
AcDbPolyline
 90
4
 70
1
 10
2714.986842773033
 20
2214.988431489667
 10
2714.986842773033
 20
2218.588431489673
 10
2666.986842933628
 20
2218.588431489673
 10
2666.986842933628
 20
2214.988431489667
  0
LWPOLYLINE
  5
2BE
330
17
100
AcDbEntity
  8
SARRAFO
 62
7
370
25
100
AcDbPolyline
 90
4
 70
1
 10
2680.986843030107
 20
2079.388431494376
 10
2666.986843044251
 20
2079.388431494289
 10
2666.986843044251
 20
2074.988431499972
 10
2680.986843030107
 20
2074.988431499972
  0
LWPOLYLINE
  5
2BF
330
17
100
AcDbEntity
  8
SARRAFO
 62
7
370
25
100
AcDbPolyline
 90
4
 70
1
 10
2680.986843030165
 20
2222.988431484079
 10
2666.986843044309
 20
2222.988431483992
 10
2666.986843044309
 20
2218.588431489673
 10
2680.986843030165
 20
2218.588431489673
  0
LWPOLYLINE
  5
2C0
330
17
100
AcDbEntity
  8
SARRAFO
 62
7
370
25
100
AcDbPolyline
 90
4
 70
1
 10
2700.986842676437
 20
2079.388431494376
 10
2714.986842662293
 20
2079.388431494289
 10
2714.986842662293
 20
2074.988431499972
 10
2700.986842676437
 20
2074.988431499972
  0
LWPOLYLINE
  5
2C1
330
17
100
AcDbEntity
  8
SARRAFO
 62
7
370
25
100
AcDbPolyline
 90
4
 70
1
 10
2700.986842676379
 20
2222.988431484079
 10
2714.986842662235
 20
2222.988431483992
 10
2714.986842662235
 20
2218.588431489673
 10
2700.986842676379
 20
2218.588431489673
  0
LWPOLYLINE
  5
2C2
330
17
100
AcDbEntity
  8
Painéis
 62
7
370
25
100
AcDbPolyline
 90
4
 70
1
 10
2666.98684293357
 20
2082.988431489667
 10
2714.986842772975
 20
2082.988431489667
 10
2714.986842772975
 20
2214.988431489667
 10
2666.98684293357
 20
2214.988431489667
  0
LWPOLYLINE
  5
2C3
330
17
100
AcDbEntity
  8
Madeira
 62
7
370
25
100
AcDbPolyline
 90
4
 70
1
 10
2733.002206313824
 20
2074.973051094849
 10
2719.0022147530326
 20
2074.988423074898
 10
2718.9868427729834
 20
2060.9884315141067
 10
2732.986834333775
 20
2060.9730595340575
  0
LWPOLYLINE
  5
2C4
330
17
100
AcDbEntity
  8
Madeira
 62
7
370
25
100
AcDbPolyline
 90
4
 70
1
 10
2732.994612069561
 20
2189.472961582525
 10
2733.0022980595777
 20
2196.47295735579
 10
2719.002306513047
 20
2196.488329335824
 10
2718.9946205230303
 20
2189.4883335625586
  0
LWPOLYLINE
  5
2C5
330
17
100
AcDbEntity
  8
Madeira
 62
7
370
25
100
AcDbPolyline
 90
4
 70
1
 10
2732.994612069561
 20
2145.472994743196
 10
2733.0022980595777
 20
2152.4729905164613
 10
2719.002306513047
 20
2152.488362496495
 10
2718.9946205230303
 20
2145.48836672323
  0
LWPOLYLINE
  5
2C6
330
17
100
AcDbEntity
  8
Madeira
 62
7
370
25
100
AcDbPolyline
 90
4
 70
1
 10
2732.994612069561
 20
2101.472994743196
 10
2733.0022980595777
 20
2108.4729905164613
 10
2719.002306513047
 20
2108.488362496495
 10
2718.9946205230303
 20
2101.48836672323
  0
TEXT
  5
2C7
330
17
100
AcDbEntity
  8
Texto Seção
 62
7
370
25
100
AcDbText
 10
3563.257844894565
 20
1710.177581697978
 30
0.0
 40
13.0
  1
P31.C
100
AcDbText
  0
TEXT
  5
2C8
330
17
100
AcDbEntity
  8
Texto Seção
 62
7
370
25
100
AcDbText
 10
3713.377030885161
 20
1704.565976745448
 30
0.0
 40
13.0
  1
P31.D
100
AcDbText
  0
TEXT
  5
2C9
330
17
100
AcDbEntity
  8
Texto Seção
 62
7
370
25
100
AcDbText
 10
3109.200681579525
 20
1710.104998793408
 30
0.0
 40
13.0
  1
P31.A
100
AcDbText
  0
TEXT
  5
2CA
330
17
100
AcDbEntity
  8
Texto Seção
 62
7
370
25
100
AcDbText
 10
3341.434773732995
 20
1710.104998793408
 30
0.0
 40
13.0
  1
P31.B
100
AcDbText
  0
TEXT
  5
2CB
330
17
100
AcDbEntity
  8
TEXTO_GERAL
 62
7
370
25
100
AcDbText
 10
2671.895427423245
 20
2126.525642091996
 30
0.0
 40
10.99999999889889
  1
A
100
AcDbText
  0
TEXT
  5
2CC
330
17
100
AcDbEntity
  8
TEXTO_GERAL
 62
7
370
25
100
AcDbText
 10
2692.437870605721
 20
2086.556594252683
 30
0.0
 40
10.99999999889889
  1
D
100
AcDbText
  0
TEXT
  5
2CD
330
17
100
AcDbEntity
  8
TEXTO_GERAL
 62
7
370
25
100
AcDbText
 10
2687.500618143083
 20
2200.741479690531
 30
0.0
 40
10.99999999889889
  1
C
100
AcDbText
  0
TEXT
  5
2CE
330
17
100
AcDbEntity
  8
TEXTO_GERAL
 62
7
370
25
100
AcDbText
 10
2705.55825091985
 20
2127.328294761587
 30
0.0
 40
10.99999999889889
  1
B
100
AcDbText
  0
TEXT
  5
2CF
330
17
100
AcDbEntity
  8
NOMENCLATURA
 62
7
370
25
100
AcDbText
 10
3669.150061513275
 20
2333.787089949741
 30
0.0
 40
16.0
  1
14° PAVIMENTO - PD: 3.06\PNIVEL DE SAÍDA: 852.19\PNIVEL DE CHEGADA: 855.25
100
AcDbText
  0
HATCH
  5
2D0
330
17
100
AcDbEntity
  8
COTA
 62
7
100
AcDbHatch
 10
0.0
 20
0.0
 30
0.0
210
0.0
220
0.0
230
1.0
  2
SOLID
 70
1
 71
0
 91
1
 92
3
 72
0
 73
1
 93
8
 10
3721.528132255386
 20
1940.276403167228
 10
3745.528132255386
 20
1940.276403167228
 10
3745.528132255386
 20
1940.276403167228
 10
3745.528132255386
 20
1999.276403167229
 10
3745.528132255386
 20
1999.276403167229
 10
3721.528132255386
 20
1999.276403167229
 10
3721.528132255386
 20
1999.276403167229
 10
3721.528132255386
 20
1940.276403167228
 97
0
 75
1
 76
1
 98
0
  0
HATCH
  5
2D1
330
17
100
AcDbEntity
  8
COTA
 62
7
100
AcDbHatch
 10
0.0
 20
0.0
 30
0.0
210
0.0
220
0.0
230
1.0
  2
SOLID
 70
1
 71
0
 91
1
 92
3
 72
0
 73
1
 93
9
 10
3206.144873190613
 20
1999.276403167232
 10
3177.14487319061
 20
1999.276403167232
 10
3177.14487319061
 20
1992.27640316723
 10
3118.14487319061
 20
1992.27640316723
 10
3118.14487319061
 20
1980.276403167232
 10
3177.14487319061
 20
1980.276403167221
 10
3177.144873190599
 20
1940.276403167233
 10
3206.144873190613
 20
1940.276403167234
 10
3206.144873190613
 20
1999.276403167232
 97
0
 75
1
 76
1
 98
0
  0
HATCH
  5
2D2
330
17
100
AcDbEntity
  8
COTA
 62
7
100
AcDbHatch
 10
0.0
 20
0.0
 30
0.0
210
0.0
220
0.0
230
1.0
  2
SOLID
 70
1
 71
0
 91
1
 92
3
 72
0
 73
1
 93
9
 10
3379.37896534408
 20
1980.276403167221
 10
3438.378965344077
 20
1980.276403167232
 10
3438.378965344077
 20
1992.27640316727
 10
3379.378965344078
 20
1992.27640316727
 10
3379.378965344078
 20
1999.276403167272
 10
3350.378965344073
 20
1999.276403167232
 10
3350.378965344073
 20
1940.276403167234
 10
3379.378965344091
 20
1940.276403167233
 10
3379.37896534408
 20
1980.276403167221
 97
0
 75
1
 76
1
 98
0
  0
HATCH
  5
2D3
330
17
100
AcDbEntity
  8
COTA
 62
7
100
AcDbHatch
 10
0.0
 20
0.0
 30
0.0
210
0.0
220
0.0
230
1.0
  2
SOLID
 70
1
 71
0
 91
1
 92
3
 72
0
 73
1
 93
8
 10
3572.692665263684
 20
1940.276403167228
 10
3596.692665263683
 20
1940.276403167228
 10
3596.692665263683
 20
1940.276403167228
 10
3596.692665263683
 20
1999.276403167229
 10
3596.692665263683
 20
1999.276403167229
 10
3572.692665263684
 20
1999.276403167229
 10
3572.692665263684
 20
1999.276403167229
 10
3572.692665263684
 20
1940.276403167228
 97
0
 75
1
 76
1
 98
0
  0
HATCH
  5
2D4
330
17
100
AcDbEntity
  8
Hachura
 62
7
100
AcDbHatch
 10
0.0
 20
0.0
 30
0.0
210
0.0
220
0.0
230
1.0
  2
SOLID
 70
1
 71
0
 91
1
 92
3
 72
0
 73
1
 93
8
 10
3596.69266526377
 20
1940.276403167454
 10
3572.692665263363
 20
1940.276403167454
 10
3572.692665263363
 20
1940.276403167454
 10
3572.692665263126
 20
1695.276403167213
 10
3572.692665263126
 20
1695.276403167213
 10
3596.692665263534
 20
1695.276403167253
 10
3596.692665263534
 20
1695.276403167253
 10
3596.69266526377
 20
1940.276403167454
 97
0
 75
1
 76
1
 98
0
  0
HATCH
  5
2D5
330
17
100
AcDbEntity
  8
Hachura
 62
7
100
AcDbHatch
 10
0.0
 20
0.0
 30
0.0
210
0.0
220
0.0
230
1.0
  2
SOLID
 70
1
 71
0
 91
1
 92
3
 72
0
 73
1
 93
8
 10
3745.52813225553
 20
1940.276403167454
 10
3721.528132255127
 20
1940.276403167454
 10
3721.528132255127
 20
1940.276403167454
 10
3721.528132255182
 20
1695.276403167213
 10
3721.528132255182
 20
1695.276403167213
 10
3745.528132255589
 20
1695.276403167253
 10
3745.528132255589
 20
1695.276403167253
 10
3745.52813225553
 20
1940.276403167454
 97
0
 75
1
 76
1
 98
0
  0
HATCH
  5
2D6
330
17
100
AcDbEntity
  8
Hachura
 62
7
100
AcDbHatch
 10
0.0
 20
0.0
 30
0.0
210
0.0
220
0.0
230
1.0
  2
SOLID
 70
1
 71
0
 91
3
 92
3
 72
0
 73
1
 93
8
 10
3206.144873190599
 20
1843.276403167233
 10
3118.144873189853
 20
1843.276403167233
 10
3118.144873189853
 20
1843.276403167233
 10
3118.144873189866
 20
1680.276403167623
 10
3118.144873189866
 20
1680.276403167623
 10
3206.144873190613
 20
1680.276403167356
 10
3206.144873190613
 20
1680.276403167356
 10
3206.144873190599
 20
1843.276403167233
 97
0
 92
3
 72
0
 73
1
 93
8
 10
3177.14487319061
 20
1992.276403167261
 10
3177.14487319061
 20
1999.276403167201
 10
3177.14487319061
 20
1999.276403167201
 10
3118.144873190611
 20
1999.276403167282
 10
3118.144873190611
 20
1999.276403167282
 10
3118.144873190611
 20
1992.27640316718
 10
3118.144873190611
 20
1992.27640316718
 10
3177.14487319061
 20
1992.276403167261
 97
0
 92
3
 72
0
 73
1
 93
16
 10
3206.144873190615
 20
1940.276403167479
 10
3177.144873190599
 20
1940.276403167237
 10
3177.144873190599
 20
1940.276403167237
 10
3177.14487319061
 20
1980.276403167227
 10
3177.14487319061
 20
1980.276403167227
 10
3118.144873190622
 20
1980.276403167232
 10
3118.144873190622
 20
1980.276403167232
 10
3118.144873190615
 20
1940.276403167234
 10
3118.144873190615
 20
1940.276403167234
 10
3118.144873189862
 20
1940.276403167482
 10
3118.144873189862
 20
1940.276403167482
 10
3118.144873189848
 20
1843.276403167476
 10
3118.144873189848
 20
1843.276403167476
 10
3206.144873190601
 20
1843.276403167474
 10
3206.144873190601
 20
1843.276403167474
 10
3206.144873190615
 20
1940.276403167479
 97
0
 75
1
 76
1
 98
0
  0
HATCH
  5
2D7
330
17
100
AcDbEntity
  8
Hachura
 62
7
100
AcDbHatch
 10
0.0
 20
0.0
 30
0.0
210
0.0
220
0.0
230
1.0
  2
SOLID
 70
1
 71
0
 91
3
 92
3
 72
0
 73
1
 93
8
 10
3350.378965343733
 20
1843.276403167233
 10
3438.378965344479
 20
1843.276403167233
 10
3438.378965344479
 20
1843.276403167233
 10
3438.378965344817
 20
1680.276403167623
 10
3438.378965344817
 20
1680.276403167623
 10
3350.378965344069
 20
1680.276403167356
 10
3350.378965344069
 20
1680.276403167356
 10
3350.378965343733
 20
1843.276403167233
 97
0
 92
3
 72
0
 73
1
 93
8
 10
3379.378965344073
 20
1992.276403167261
 10
3379.378965344073
 20
1999.276403167201
 10
3379.378965344073
 20
1999.276403167201
 10
3438.378965344071
 20
1999.276403167282
 10
3438.378965344071
 20
1999.276403167282
 10
3438.378965344071
 20
1992.27640316718
 10
3438.378965344071
 20
1992.27640316718
 10
3379.378965344073
 20
1992.276403167261
 97
0
 92
3
 72
0
 73
1
 93
16
 10
3350.378965344067
 20
1940.276403167479
 10
3379.378965344084
 20
1940.276403167237
 10
3379.378965344084
 20
1940.276403167237
 10
3379.378965344073
 20
1980.276403167227
 10
3379.378965344073
 20
1980.276403167227
 10
3438.37896534406
 20
1980.276403167232
 10
3438.37896534406
 20
1980.276403167232
 10
3438.378965344067
 20
1940.276403167234
 10
3438.378965344067
 20
1940.276403167234
 10
3438.378965344821
 20
1940.276403167482
 10
3438.378965344821
 20
1940.276403167482
 10
3438.378965344835
 20
1843.276403167476
 10
3438.378965344835
 20
1843.276403167476
 10
3350.378965344082
 20
1843.276403167474
 10
3350.378965344082
 20
1843.276403167474
 10
3350.378965344067
 20
1940.276403167479
 97
0
 75
1
 76
1
 98
0
  0
HATCH
  5
2D8
330
17
100
AcDbEntity
  8
Hachura
 62
7
100
AcDbHatch
 10
0.0
 20
0.0
 30
0.0
210
0.0
220
0.0
230
1.0
  2
SOLID
 70
1
 71
0
 91
1
 92
3
 72
0
 73
1
 93
8
 10
2666.986842878214
 20
2222.988431484079
 10
2671.386842872533
 20
2222.988431484079
 10
2671.386842872533
 20
2222.988431484079
 10
2671.38684287262
 20
2236.988431469935
 10
2671.386842872591
 20
2236.988431469935
 10
2666.986842878185
 20
2236.988431469935
 10
2666.986842878214
 20
2236.988431469935
 10
2666.986842878214
 20
2222.988431484079
 97
0
 75
1
 76
1
 98
0
  0
HATCH
  5
2D9
330
17
100
AcDbEntity
  8
Hachura
 62
7
100
AcDbHatch
 10
0.0
 20
0.0
 30
0.0
210
0.0
220
0.0
230
1.0
  2
SOLID
 70
1
 71
0
 91
1
 92
3
 72
0
 73
1
 93
8
 10
2714.98684282833
 20
2222.988431484079
 10
2710.586842834011
 20
2222.988431484079
 10
2710.586842834011
 20
2222.988431484079
 10
2710.586842833924
 20
2236.988431469935
 10
2710.586842833894
 20
2236.988431469935
 10
2714.986842828301
 20
2236.988431469935
 10
2714.98684282833
 20
2236.988431469935
 10
2714.98684282833
 20
2222.988431484079
 97
0
 75
1
 76
1
 98
0
  0
HATCH
  5
2DA
330
17
100
AcDbEntity
  8
Hachura
 62
7
100
AcDbHatch
 10
0.0
 20
0.0
 30
0.0
210
0.0
220
0.0
230
1.0
  2
SOLID
 70
1
 71
0
 91
1
 92
3
 72
0
 73
1
 93
8
 10
2666.986842878214
 20
2074.988431499972
 10
2671.386842872533
 20
2074.988431499972
 10
2671.386842872533
 20
2074.988431499972
 10
2671.38684287262
 20
2060.988431514116
 10
2671.386842872591
 20
2060.988431514116
 10
2666.986842878185
 20
2060.988431514116
 10
2666.986842878214
 20
2060.988431514116
 10
2666.986842878214
 20
2074.988431499972
 97
0
 75
1
 76
1
 98
0
  0
HATCH
  5
2DB
330
17
100
AcDbEntity
  8
Hachura
 62
7
100
AcDbHatch
 10
0.0
 20
0.0
 30
0.0
210
0.0
220
0.0
230
1.0
  2
SOLID
 70
1
 71
0
 91
1
 92
3
 72
0
 73
1
 93
8
 10
2714.986842772975
 20
2236.988431469469
 10
2718.986842772975
 20
2236.988431469469
 10
2718.986842772975
 20
2236.988431469469
 10
2718.986842772975
 20
2060.988431514116
 10
2718.986842772975
 20
2060.988431514116
 10
2714.986842772975
 20
2060.988431514116
 10
2714.986842772975
 20
2060.988431514116
 10
2714.986842772975
 20
2236.988431469469
 97
0
 75
1
 76
1
 98
0
  0
HATCH
  5
2DC
330
17
100
AcDbEntity
  8
Hachura
 62
7
100
AcDbHatch
 10
0.0
 20
0.0
 30
0.0
210
0.0
220
0.0
230
1.0
  2
SOLID
 70
1
 71
0
 91
1
 92
3
 72
0
 73
1
 93
8
 10
2714.986842772975
 20
2079.388431489661
 10
2714.986842772975
 20
2082.988431489667
 10
2714.986842772975
 20
2082.988431489667
 10
2666.98684293357
 20
2082.988431489667
 10
2666.98684293357
 20
2082.988431489667
 10
2666.98684293357
 20
2079.388431489661
 10
2666.98684293357
 20
2079.388431489661
 10
2714.986842772975
 20
2079.388431489661
 97
0
 75
1
 76
1
 98
0
  0
HATCH
  5
2DD
330
17
100
AcDbEntity
  8
Hachura
 62
7
100
AcDbHatch
 10
0.0
 20
0.0
 30
0.0
210
0.0
220
0.0
230
1.0
  2
SOLID
 70
1
 71
0
 91
1
 92
3
 72
0
 73
1
 93
8
 10
2714.986842773033
 20
2214.988431489667
 10
2714.986842773033
 20
2218.588431489673
 10
2714.986842773033
 20
2218.588431489673
 10
2666.986842933628
 20
2218.588431489673
 10
2666.986842933628
 20
2218.588431489673
 10
2666.986842933628
 20
2214.988431489667
 10
2666.986842933628
 20
2214.988431489667
 10
2714.986842773033
 20
2214.988431489667
 97
0
 75
1
 76
1
 98
0
  0
HATCH
  5
2DE
330
17
100
AcDbEntity
  8
Hachura
 62
7
100
AcDbHatch
 10
0.0
 20
0.0
 30
0.0
210
0.0
220
0.0
230
1.0
  2
SOLID
 70
1
 71
0
 91
1
 92
3
 72
0
 73
1
 93
8
 10
2714.98684282833
 20
2074.988431499972
 10
2710.586842834011
 20
2074.988431499972
 10
2710.586842834011
 20
2074.988431499972
 10
2710.586842833924
 20
2060.988431514116
 10
2710.586842833894
 20
2060.988431514116
 10
2714.986842828301
 20
2060.988431514116
 10
2714.98684282833
 20
2060.988431514116
 10
2714.98684282833
 20
2074.988431499972
 97
0
 75
1
 76
1
 98
0
  0
HATCH
  5
2DF
330
17
100
AcDbEntity
  8
Hachura
 62
7
100
AcDbHatch
 10
0.0
 20
0.0
 30
0.0
210
0.0
220
0.0
230
1.0
  2
SOLID
 70
1
 71
0
 91
1
 92
3
 72
0
 73
1
 93
8
 10
2666.98684293357
 20
2236.988431469469
 10
2662.98684293357
 20
2236.988431469469
 10
2662.98684293357
 20
2236.988431469469
 10
2662.98684293357
 20
2060.988431514116
 10
2662.98684293357
 20
2060.988431514116
 10
2666.98684293357
 20
2060.988431514116
 10
2666.98684293357
 20
2060.988431514116
 10
2666.98684293357
 20
2236.988431469469
 97
0
 75
1
 76
1
 98
0
  0
HATCH
  5
2E0
330
17
100
AcDbEntity
  8
Hachura
 62
7
100
AcDbHatch
 10
0.0
 20
0.0
 30
0.0
210
0.0
220
0.0
230
1.0
  2
SOLID
 70
1
 71
0
 91
1
 92
3
 72
0
 73
1
 93
8
 10
2714.986842772975
 20
2079.388431489661
 10
2714.986842772975
 20
2082.988431489667
 10
2714.986842772975
 20
2082.988431489667
 10
2666.98684293357
 20
2082.988431489667
 10
2666.98684293357
 20
2082.988431489667
 10
2666.98684293357
 20
2079.388431489661
 10
2666.98684293357
 20
2079.388431489661
 10
2714.986842772975
 20
2079.388431489661
 97
0
 75
1
 76
1
 98
0
  0
HATCH
  5
2E1
330
17
100
AcDbEntity
  8
Hachura
 62
7
100
AcDbHatch
 10
0.0
 20
0.0
 30
0.0
210
0.0
220
0.0
230
1.0
  2
SOLID
 70
1
 71
0
 91
1
 92
3
 72
0
 73
1
 93
8
 10
2714.986842773033
 20
2214.988431489667
 10
2714.986842773033
 20
2218.588431489673
 10
2714.986842773033
 20
2218.588431489673
 10
2666.986842933628
 20
2218.588431489673
 10
2666.986842933628
 20
2218.588431489673
 10
2666.986842933628
 20
2214.988431489667
 10
2666.986842933628
 20
2214.988431489667
 10
2714.986842773033
 20
2214.988431489667
 97
0
 75
1
 76
1
 98
0
  0
HATCH
  5
2E2
330
17
100
AcDbEntity
  8
Hachura
 62
7
100
AcDbHatch
 10
0.0
 20
0.0
 30
0.0
210
0.0
220
0.0
230
1.0
  2
SOLID
 70
1
 71
0
 91
1
 92
3
 72
0
 73
1
 93
8
 10
2666.986843044251
 20
2074.988431499972
 10
2666.986843044251
 20
2079.388431494291
 10
2666.986843044251
 20
2079.388431494289
 10
2680.986843030107
 20
2079.388431494376
 10
2680.986843030107
 20
2079.388431494376
 10
2680.986843030107
 20
2074.98843149997
 10
2680.986843030107
 20
2074.988431499972
 10
2666.986843044251
 20
2074.988431499972
 97
0
 75
1
 76
1
 98
0
  0
HATCH
  5
2E3
330
17
100
AcDbEntity
  8
Hachura
 62
7
100
AcDbHatch
 10
0.0
 20
0.0
 30
0.0
210
0.0
220
0.0
230
1.0
  2
SOLID
 70
1
 71
0
 91
1
 92
3
 72
0
 73
1
 93
8
 10
2666.986843044309
 20
2218.588431489673
 10
2666.986843044309
 20
2222.988431483992
 10
2666.986843044309
 20
2222.988431483992
 10
2680.986843030165
 20
2222.988431484079
 10
2680.986843030165
 20
2222.988431484079
 10
2680.986843030165
 20
2218.588431489673
 10
2680.986843030165
 20
2218.588431489673
 10
2666.986843044309
 20
2218.588431489673
 97
0
 75
1
 76
1
 98
0
  0
HATCH
  5
2E4
330
17
100
AcDbEntity
  8
Hachura
 62
7
100
AcDbHatch
 10
0.0
 20
0.0
 30
0.0
210
0.0
220
0.0
230
1.0
  2
SOLID
 70
1
 71
0
 91
1
 92
3
 72
0
 73
1
 93
8
 10
2714.986842662293
 20
2074.988431499972
 10
2714.986842662293
 20
2079.388431494291
 10
2714.986842662293
 20
2079.388431494289
 10
2700.986842676437
 20
2079.388431494376
 10
2700.986842676437
 20
2079.388431494376
 10
2700.986842676437
 20
2074.98843149997
 10
2700.986842676437
 20
2074.988431499972
 10
2714.986842662293
 20
2074.988431499972
 97
0
 75
1
 76
1
 98
0
  0
HATCH
  5
2E5
330
17
100
AcDbEntity
  8
Hachura
 62
7
100
AcDbHatch
 10
0.0
 20
0.0
 30
0.0
210
0.0
220
0.0
230
1.0
  2
SOLID
 70
1
 71
0
 91
1
 92
3
 72
0
 73
1
 93
8
 10
2714.986842662235
 20
2218.588431489673
 10
2714.986842662235
 20
2222.988431483992
 10
2714.986842662235
 20
2222.988431483992
 10
2700.986842676379
 20
2222.988431484079
 10
2700.986842676379
 20
2222.988431484079
 10
2700.986842676379
 20
2218.588431489673
 10
2700.986842676379
 20
2218.588431489673
 10
2714.986842662235
 20
2218.588431489673
 97
0
 75
1
 76
1
 98
0
  0
ENDSEC
  0
SECTION
  2
OBJECTS
  0
DICTIONARY
  5
A
330
0
100
AcDbDictionary
281
1
  3
ACAD_COLOR
350
B
  3
ACAD_GROUP
350
C
  3
ACAD_LAYOUT
350
D
  3
ACAD_MATERIAL
350
E
  3
ACAD_MLEADERSTYLE
350
F
  3
ACAD_MLINESTYLE
350
10
  3
ACAD_PLOTSETTINGS
350
11
  3
ACAD_PLOTSTYLENAME
350
12
  3
ACAD_SCALELIST
350
14
  3
ACAD_TABLESTYLE
350
15
  3
ACAD_VISUALSTYLE
350
16
  3
EZDXF_META
350
2D
  0
DICTIONARY
  5
B
330
A
100
AcDbDictionary
281
1
  0
DICTIONARY
  5
C
330
A
100
AcDbDictionary
281
1
  0
DICTIONARY
  5
D
330
A
100
AcDbDictionary
281
1
  3
Model
350
1A
  3
Layout1
350
1E
  0
DICTIONARY
  5
E
330
A
100
AcDbDictionary
281
1
  3
ByBlock
350
1F
  3
ByLayer
350
20
  3
Global
350
21
  0
DICTIONARY
  5
F
330
A
100
AcDbDictionary
281
1
  3
Standard
350
2C
  0
DICTIONARY
  5
10
330
A
100
AcDbDictionary
281
1
  3
Standard
350
22
  0
DICTIONARY
  5
11
330
A
100
AcDbDictionary
281
1
  0
ACDBDICTIONARYWDFLT
  5
12
330
A
100
AcDbDictionary
281
1
  3
Normal
350
13
100
AcDbDictionaryWithDefault
340
13
  0
ACDBPLACEHOLDER
  5
13
330
12
  0
DICTIONARY
  5
14
330
A
100
AcDbDictionary
281
1
  0
DICTIONARY
  5
15
330
A
100
AcDbDictionary
281
1
  0
DICTIONARY
  5
16
330
A
100
AcDbDictionary
281
1
  0
LAYOUT
  5
1A
330
D
100
AcDbPlotSettings
  1

  4
A3
  6

 40
7.5
 41
20.0
 42
7.5
 43
20.0
 44
420.0
 45
297.0
 46
0.0
 47
0.0
 48
0.0
 49
0.0
140
0.0
141
0.0
142
1.0
143
1.0
 70
1024
 72
1
 73
0
 74
5
  7

 75
16
 76
0
 77
2
 78
300
147
1.0
148
0.0
149
0.0
100
AcDbLayout
  1
Model
 70
1
 71
0
 10
0.0
 20
0.0
 11
420.0
 21
297.0
 12
0.0
 22
0.0
 32
0.0
 14
1e+20
 24
1e+20
 34
1e+20
 15
-1e+20
 25
-1e+20
 35
-1e+20
146
0.0
 13
0.0
 23
0.0
 33
0.0
 16
1.0
 26
0.0
 36
0.0
 17
0.0
 27
1.0
 37
0.0
 76
1
330
17
  0
LAYOUT
  5
1E
330
D
100
AcDbPlotSettings
  1

  4
A3
  6

 40
7.5
 41
20.0
 42
7.5
 43
20.0
 44
420.0
 45
297.0
 46
0.0
 47
0.0
 48
0.0
 49
0.0
140
0.0
141
0.0
142
1.0
143
1.0
 70
0
 72
1
 73
0
 74
5
  7

 75
16
 76
0
 77
2
 78
300
147
1.0
148
0.0
149
0.0
100
AcDbLayout
  1
Layout1
 70
1
 71
1
 10
0.0
 20
0.0
 11
420.0
 21
297.0
 12
0.0
 22
0.0
 32
0.0
 14
1e+20
 24
1e+20
 34
1e+20
 15
-1e+20
 25
-1e+20
 35
-1e+20
146
0.0
 13
0.0
 23
0.0
 33
0.0
 16
1.0
 26
0.0
 36
0.0
 17
0.0
 27
1.0
 37
0.0
 76
1
330
1B
  0
MATERIAL
  5
1F
102
{ACAD_REACTORS
330
E
102
}
330
E
100
AcDbMaterial
  1
ByBlock
  2

 70
0
 40
1.0
 71
1
 41
1.0
 91
-1023410177
 42
1.0
 72
1
  3

 73
1
 74
1
 75
1
 44
0.5
 73
0
 45
1.0
 46
1.0
 77
1
  4

 78
1
 79
1
170
1
 48
1.0
171
1
  6

172
1
173
1
174
1
140
1.0
141
1.0
175
1
  7

176
1
177
1
178
1
143
1.0
179
1
  8

270
1
271
1
272
1
145
1.0
146
1.0
273
1
  9

274
1
275
1
276
1
 42
1.0
 72
1
  3

 73
1
 74
1
 75
1
 94
63
  0
MATERIAL
  5
20
102
{ACAD_REACTORS
330
E
102
}
330
E
100
AcDbMaterial
  1
ByLayer
  2

 70
0
 40
1.0
 71
1
 41
1.0
 91
-1023410177
 42
1.0
 72
1
  3

 73
1
 74
1
 75
1
 44
0.5
 73
0
 45
1.0
 46
1.0
 77
1
  4

 78
1
 79
1
170
1
 48
1.0
171
1
  6

172
1
173
1
174
1
140
1.0
141
1.0
175
1
  7

176
1
177
1
178
1
143
1.0
179
1
  8

270
1
271
1
272
1
145
1.0
146
1.0
273
1
  9

274
1
275
1
276
1
 42
1.0
 72
1
  3

 73
1
 74
1
 75
1
 94
63
  0
MATERIAL
  5
21
102
{ACAD_REACTORS
330
E
102
}
330
E
100
AcDbMaterial
  1
Global
  2

 70
0
 40
1.0
 71
1
 41
1.0
 91
-1023410177
 42
1.0
 72
1
  3

 73
1
 74
1
 75
1
 44
0.5
 73
0
 45
1.0
 46
1.0
 77
1
  4

 78
1
 79
1
170
1
 48
1.0
171
1
  6

172
1
173
1
174
1
140
1.0
141
1.0
175
1
  7

176
1
177
1
178
1
143
1.0
179
1
  8

270
1
271
1
272
1
145
1.0
146
1.0
273
1
  9

274
1
275
1
276
1
 42
1.0
 72
1
  3

 73
1
 74
1
 75
1
 94
63
  0
MLINESTYLE
  5
22
102
{ACAD_REACTORS
330
10
102
}
330
10
100
AcDbMlineStyle
  2
Standard
 70
0
  3

 62
256
 51
90.0
 52
90.0
 71
2
 49
0.5
 62
256
  6
BYLAYER
 49
-0.5
 62
256
  6
BYLAYER
  0
MLEADERSTYLE
  5
2C
102
{ACAD_REACTORS
330
F
102
}
330
F
100
AcDbMLeaderStyle
179
2
170
2
171
1
172
0
 90
2
 40
0.0
 41
0.0
173
1
 91
-1056964608
 92
-2
290
1
 42
2.0
291
1
 43
8.0
  3
Standard
 44
4.0
300

342
29
174
1
175
1
176
0
178
1
 93
-1056964608
 45
4.0
292
0
297
0
 46
4.0
 94
-1056964608
 47
1.0
 49
1.0
140
1.0
294
1
141
0.0
177
0
142
1.0
295
0
296
0
143
3.75
271
0
272
9
273
9
  0
DICTIONARY
  5
2D
330
A
100
AcDbDictionary
280
1
281
1
  3
CREATED_BY_EZDXF
350
2E
  3
WRITTEN_BY_EZDXF
350
2E8
  0
DICTIONARYVAR
  5
2E
330
2D
100
DictionaryVariables
280
0
  1
1.4.3 @ 2026-06-10T16:53:42.344715+00:00
  0
DICTIONARYVAR
  5
2E8
330
2D
100
DictionaryVariables
280
0
  1
1.4.3 @ 2026-06-10T16:53:42.364623+00:00
  0
ENDSEC
  0
EOF
