  0
SECTION
  2
HEADER
  9
$ACADVER
  1
AC1024
  9
$ACADMAINTVER
 70
6
  9
$DWGCODEPAGE
  3
ANSI_1252
  9
$LASTSAVEDBY
  1
ezdxf
  9
$INSBASE
 10
0.0
 20
0.0
 30
0.0
  9
$EXTMIN
 10
1e+20
 20
1e+20
 30
1e+20
  9
$EXTMAX
 10
-1e+20
 20
-1e+20
 30
-1e+20
  9
$LIMMIN
 10
0.0
 20
0.0
  9
$LIMMAX
 10
420.0
 20
297.0
  9
$ORTHOMODE
 70
0
  9
$REGENMODE
 70
1
  9
$FILLMODE
 70
1
  9
$QTEXTMODE
 70
0
  9
$MIRRTEXT
 70
1
  9
$LTSCALE
 40
1.0
  9
$ATTMODE
 70
1
  9
$TEXTSIZE
 40
2.5
  9
$TRACEWID
 40
1.0
  9
$TEXTSTYLE
  7
Standard
  9
$CLAYER
  8
0
  9
$CELTYPE
  6
ByLayer
  9
$CECOLOR
 62
256
  9
$CELTSCALE
 40
1.0
  9
$DISPSILH
 70
0
  9
$DIMSCALE
 40
1.0
  9
$DIMASZ
 40
2.5
  9
$DIMEXO
 40
0.625
  9
$DIMDLI
 40
3.75
  9
$DIMRND
 40
0.0
  9
$DIMDLE
 40
0.0
  9
$DIMEXE
 40
1.25
  9
$DIMTP
 40
0.0
  9
$DIMTM
 40
0.0
  9
$DIMTXT
 40
2.5
  9
$DIMCEN
 40
2.5
  9
$DIMTSZ
 40
0.0
  9
$DIMTOL
 70
0
  9
$DIMLIM
 70
0
  9
$DIMTIH
 70
0
  9
$DIMTOH
 70
0
  9
$DIMSE1
 70
0
  9
$DIMSE2
 70
0
  9
$DIMTAD
 70
1
  9
$DIMZIN
 70
8
  9
$DIMBLK
  1

  9
$DIMASO
 70
1
  9
$DIMSHO
 70
1
  9
$DIMPOST
  1

  9
$DIMAPOST
  1

  9
$DIMALT
 70
0
  9
$DIMALTD
 70
3
  9
$DIMALTF
 40
0.03937007874
  9
$DIMLFAC
 40
1.0
  9
$DIMTOFL
 70
1
  9
$DIMTVP
 40
0.0
  9
$DIMTIX
 70
0
  9
$DIMSOXD
 70
0
  9
$DIMSAH
 70
0
  9
$DIMBLK1
  1

  9
$DIMBLK2
  1

  9
$DIMSTYLE
  2
ISO-25
  9
$DIMCLRD
 70
0
  9
$DIMCLRE
 70
0
  9
$DIMCLRT
 70
0
  9
$DIMTFAC
 40
1.0
  9
$DIMGAP
 40
0.625
  9
$DIMJUST
 70
0
  9
$DIMSD1
 70
0
  9
$DIMSD2
 70
0
  9
$DIMTOLJ
 70
0
  9
$DIMTZIN
 70
8
  9
$DIMALTZ
 70
0
  9
$DIMALTTZ
 70
0
  9
$DIMUPT
 70
0
  9
$DIMDEC
 70
2
  9
$DIMTDEC
 70
2
  9
$DIMALTU
 70
2
  9
$DIMALTTD
 70
3
  9
$DIMTXSTY
  7
Standard
  9
$DIMAUNIT
 70
0
  9
$DIMADEC
 70
0
  9
$DIMALTRND
 40
0.0
  9
$DIMAZIN
 70
0
  9
$DIMDSEP
 70
44
  9
$DIMATFIT
 70
3
  9
$DIMFRAC
 70
0
  9
$DIMLDRBLK
  1

  9
$DIMLUNIT
 70
2
  9
$DIMLWD
 70
-2
  9
$DIMLWE
 70
-2
  9
$DIMTMOVE
 70
0
  9
$DIMFXL
 40
1.0
  9
$DIMFXLON
 70
0
  9
$DIMJOGANG
 40
0.785398163397
  9
$DIMTFILL
 70
0
  9
$DIMTFILLCLR
 70
0
  9
$DIMARCSYM
 70
0
  9
$DIMLTYPE
  6

  9
$DIMLTEX1
  6

  9
$DIMLTEX2
  6

  9
$DIMTXTDIRECTION
 70
0
  9
$LUNITS
 70
2
  9
$LUPREC
 70
4
  9
$SKETCHINC
 40
1.0
  9
$FILLETRAD
 40
10.0
  9
$AUNITS
 70
0
  9
$AUPREC
 70
2
  9
$MENU
  1
.
  9
$ELEVATION
 40
0.0
  9
$PELEVATION
 40
0.0
  9
$THICKNESS
 40
0.0
  9
$LIMCHECK
 70
0
  9
$CHAMFERA
 40
0.0
  9
$CHAMFERB
 40
0.0
  9
$CHAMFERC
 40
0.0
  9
$CHAMFERD
 40
0.0
  9
$SKPOLY
 70
0
  9
$TDCREATE
 40
2461092.8303009258
  9
$TDUCREATE
 40
2458532.153996898
  9
$TDUPDATE
 40
2461092.8303125
  9
$TDUUPDATE
 40
2458532.1544311
  9
$TDINDWG
 40
0.0
  9
$TDUSRTIMER
 40
0.0
  9
$USRTIMER
 70
1
  9
$ANGBASE
 50
0.0
  9
$ANGDIR
 70
0
  9
$PDMODE
 70
0
  9
$PDSIZE
 40
0.0
  9
$PLINEWID
 40
0.0
  9
$SPLFRAME
 70
0
  9
$SPLINETYPE
 70
6
  9
$SPLINESEGS
 70
8
  9
$HANDSEED
  5
31E
  9
$SURFTAB1
 70
6
  9
$SURFTAB2
 70
6
  9
$SURFTYPE
 70
6
  9
$SURFU
 70
6
  9
$SURFV
 70
6
  9
$UCSBASE
  2

  9
$UCSNAME
  2

  9
$UCSORG
 10
0.0
 20
0.0
 30
0.0
  9
$UCSXDIR
 10
1.0
 20
0.0
 30
0.0
  9
$UCSYDIR
 10
0.0
 20
1.0
 30
0.0
  9
$UCSORTHOREF
  2

  9
$UCSORTHOVIEW
 70
0
  9
$UCSORGTOP
 10
0.0
 20
0.0
 30
0.0
  9
$UCSORGBOTTOM
 10
0.0
 20
0.0
 30
0.0
  9
$UCSORGLEFT
 10
0.0
 20
0.0
 30
0.0
  9
$UCSORGRIGHT
 10
0.0
 20
0.0
 30
0.0
  9
$UCSORGFRONT
 10
0.0
 20
0.0
 30
0.0
  9
$UCSORGBACK
 10
0.0
 20
0.0
 30
0.0
  9
$PUCSBASE
  2

  9
$PUCSNAME
  2

  9
$PUCSORG
 10
0.0
 20
0.0
 30
0.0
  9
$PUCSXDIR
 10
1.0
 20
0.0
 30
0.0
  9
$PUCSYDIR
 10
0.0
 20
1.0
 30
0.0
  9
$PUCSORTHOREF
  2

  9
$PUCSORTHOVIEW
 70
0
  9
$PUCSORGTOP
 10
0.0
 20
0.0
 30
0.0
  9
$PUCSORGBOTTOM
 10
0.0
 20
0.0
 30
0.0
  9
$PUCSORGLEFT
 10
0.0
 20
0.0
 30
0.0
  9
$PUCSORGRIGHT
 10
0.0
 20
0.0
 30
0.0
  9
$PUCSORGFRONT
 10
0.0
 20
0.0
 30
0.0
  9
$PUCSORGBACK
 10
0.0
 20
0.0
 30
0.0
  9
$USERI1
 70
0
  9
$USERI2
 70
0
  9
$USERI3
 70
0
  9
$USERI4
 70
0
  9
$USERI5
 70
0
  9
$USERR1
 40
0.0
  9
$USERR2
 40
0.0
  9
$USERR3
 40
0.0
  9
$USERR4
 40
0.0
  9
$USERR5
 40
0.0
  9
$WORLDVIEW
 70
1
  9
$SHADEDGE
 70
3
  9
$SHADEDIF
 70
70
  9
$TILEMODE
 70
1
  9
$MAXACTVP
 70
64
  9
$PINSBASE
 10
0.0
 20
0.0
 30
0.0
  9
$PLIMCHECK
 70
0
  9
$PEXTMIN
 10
1e+20
 20
1e+20
 30
1e+20
  9
$PEXTMAX
 10
-1e+20
 20
-1e+20
 30
-1e+20
  9
$PLIMMIN
 10
0.0
 20
0.0
  9
$PLIMMAX
 10
420.0
 20
297.0
  9
$UNITMODE
 70
0
  9
$VISRETAIN
 70
1
  9
$PLINEGEN
 70
0
  9
$PSLTSCALE
 70
1
  9
$TREEDEPTH
 70
3020
  9
$CMLSTYLE
  2
Standard
  9
$CMLJUST
 70
0
  9
$CMLSCALE
 40
20.0
  9
$PROXYGRAPHICS
 70
1
  9
$MEASUREMENT
 70
1
  9
$CELWEIGHT
370
-1
  9
$ENDCAPS
280
0
  9
$JOINSTYLE
280
0
  9
$LWDISPLAY
290
0
  9
$INSUNITS
 70
6
  9
$HYPERLINKBASE
  1

  9
$STYLESHEET
  1

  9
$XEDIT
290
1
  9
$CEPSNTYPE
380
0
  9
$PSTYLEMODE
290
1
  9
$FINGERPRINTGUID
  2
{B5224AD0-D507-404C-8C29-CBFCF74A5493}
  9
$VERSIONGUID
  2
{A46E83FD-86BE-46F4-BF9A-096733C4E9AA}
  9
$EXTNAMES
290
1
  9
$PSVPSCALE
 40
0.0
  9
$OLESTARTUP
290
0
  9
$SORTENTS
280
127
  9
$INDEXCTL
280
0
  9
$HIDETEXT
280
1
  9
$XCLIPFRAME
280
1
  9
$HALOGAP
280
0
  9
$OBSCOLOR
 70
257
  9
$OBSLTYPE
280
0
  9
$INTERSECTIONDISPLAY
280
0
  9
$INTERSECTIONCOLOR
 70
257
  9
$DIMASSOC
280
2
  9
$PROJECTNAME
  1

  9
$CAMERADISPLAY
290
0
  9
$LENSLENGTH
 40
50.0
  9
$CAMERAHEIGHT
 40
0.0
  9
$STEPSPERSEC
 40
24.0
  9
$STEPSIZE
 40
100.0
  9
$3DDWFPREC
 40
2.0
  9
$PSOLWIDTH
 40
0.005
  9
$PSOLHEIGHT
 40
0.08
  9
$LOFTANG1
 40
1.570796326795
  9
$LOFTANG2
 40
1.570796326795
  9
$LOFTMAG1
 40
0.0
  9
$LOFTMAG2
 40
0.0
  9
$LOFTPARAM
 70
7
  9
$LOFTNORMALS
280
1
  9
$LATITUDE
 40
37.795
  9
$LONGITUDE
 40
-122.394
  9
$NORTHDIRECTION
 40
0.0
  9
$TIMEZONE
 70
-8000
  9
$LIGHTGLYPHDISPLAY
280
1
  9
$TILEMODELIGHTSYNCH
280
1
  9
$CMATERIAL
347
20
  9
$SOLIDHIST
280
0
  9
$SHOWHIST
280
1
  9
$DWFFRAME
280
2
  9
$DGNFRAME
280
2
  9
$REALWORLDSCALE
290
1
  9
$INTERFERECOLOR
 62
256
  9
$CSHADOW
280
0
  9
$SHADOWPLANELOCATION
 40
0.0
  0
ENDSEC
  0
SECTION
  2
CLASSES
  0
CLASS
  1
ACDBDICTIONARYWDFLT
  2
AcDbDictionaryWithDefault
  3
ObjectDBX Classes
 90
0
 91
0
280
0
281
0
  0
CLASS
  1
SUN
  2
AcDbSun
  3
SCENEOE
 90
1153
 91
0
280
0
281
0
  0
CLASS
  1
VISUALSTYLE
  2
AcDbVisualStyle
  3
ObjectDBX Classes
 90
4095
 91
0
280
0
281
0
  0
CLASS
  1
MATERIAL
  2
AcDbMaterial
  3
ObjectDBX Classes
 90
1153
 91
0
280
0
281
0
  0
CLASS
  1
SCALE
  2
AcDbScale
  3
ObjectDBX Classes
 90
1153
 91
0
280
0
281
0
  0
CLASS
  1
TABLESTYLE
  2
AcDbTableStyle
  3
ObjectDBX Classes
 90
4095
 91
0
280
0
281
0
  0
CLASS
  1
MLEADERSTYLE
  2
AcDbMLeaderStyle
  3
ACDB_MLEADERSTYLE_CLASS
 90
4095
 91
0
280
0
281
0
  0
CLASS
  1
DICTIONARYVAR
  2
AcDbDictionaryVar
  3
ObjectDBX Classes
 90
0
 91
0
280
0
281
0
  0
CLASS
  1
CELLSTYLEMAP
  2
AcDbCellStyleMap
  3
ObjectDBX Classes
 90
1152
 91
0
280
0
281
0
  0
CLASS
  1
MENTALRAYRENDERSETTINGS
  2
AcDbMentalRayRenderSettings
  3
SCENEOE
 90
1024
 91
0
280
0
281
0
  0
CLASS
  1
ACDBDETAILVIEWSTYLE
  2
AcDbDetailViewStyle
  3
ObjectDBX Classes
 90
1025
 91
0
280
0
281
0
  0
CLASS
  1
ACDBSECTIONVIEWSTYLE
  2
AcDbSectionViewStyle
  3
ObjectDBX Classes
 90
1025
 91
0
280
0
281
0
  0
CLASS
  1
RASTERVARIABLES
  2
AcDbRasterVariables
  3
ISM
 90
0
 91
0
280
0
281
0
  0
CLASS
  1
LAYOUT
  2
AcDbLayout
  3
ObjectDBX Classes
 90
0
 91
0
280
0
281
0
  0
CLASS
  1
ACDBPLACEHOLDER
  2
AcDbPlaceHolder
  3
ObjectDBX Classes
 90
0
 91
0
280
0
281
0
  0
ENDSEC
  0
SECTION
  2
TABLES
  0
TABLE
  2
VPORT
  5
8
330
0
100
AcDbSymbolTable
 70
1
  0
VPORT
  5
23
330
8
100
AcDbSymbolTableRecord
100
AcDbViewportTableRecord
  2
*Active
 70
0
 10
0.0
 20
0.0
 11
1.0
 21
1.0
 12
0.0
 22
0.0
 13
0.0
 23
0.0
 14
0.5
 24
0.5
 15
0.5
 25
0.5
 16
0.0
 26
0.0
 36
1.0
 17
0.0
 27
0.0
 37
0.0
 40
1000.0
 41
1.34
 42
50.0
 43
0.0
 44
0.0
 50
0.0
 51
0.0
 71
0
 72
1000
 73
1
 74
3
 75
0
 76
0
 77
0
 78
0
281
0
 65
0
146
0.0
  0
ENDTAB
  0
TABLE
  2
LTYPE
  5
2
330
0
100
AcDbSymbolTable
 70
4
  0
LTYPE
  5
24
330
2
100
AcDbSymbolTableRecord
100
AcDbLinetypeTableRecord
  2
ByBlock
 70
0
  3

 72
65
 73
0
 40
0.0
  0
LTYPE
  5
25
330
2
100
AcDbSymbolTableRecord
100
AcDbLinetypeTableRecord
  2
ByLayer
 70
0
  3

 72
65
 73
0
 40
0.0
  0
LTYPE
  5
26
330
2
100
AcDbSymbolTableRecord
100
AcDbLinetypeTableRecord
  2
Continuous
 70
0
  3

 72
65
 73
0
 40
0.0
  0
LTYPE
  5
36
330
2
100
AcDbSymbolTableRecord
100
AcDbLinetypeTableRecord
  2
DASHED
 70
0
  3

 72
65
 73
0
 40
0.0
  0
ENDTAB
  0
TABLE
  2
LAYER
  5
1
330
0
100
AcDbSymbolTable
 70
20
  0
LAYER
  5
27
330
1
100
AcDbSymbolTableRecord
100
AcDbLayerTableRecord
  2
0
 70
0
 62
7
  6
Continuous
370
-3
390
13
347
21
  0
LAYER
  5
28
330
1
100
AcDbSymbolTableRecord
100
AcDbLayerTableRecord
  2
Defpoints
 70
0
 62
7
  6
Continuous
290
0
370
-3
390
13
347
21
  0
LAYER
  5
2F
330
1
100
AcDbSymbolTableRecord
100
AcDbLayerTableRecord
  2
GARFOS OK
 70
0
 62
3
  6
Continuous
370
-3
390
13
347
21
  0
LAYER
  5
30
330
1
100
AcDbSymbolTableRecord
100
AcDbLayerTableRecord
  2
TIRAS REESCORAMENTO
 70
0
 62
252
  6
Continuous
370
-3
390
13
347
21
  0
LAYER
  5
31
330
1
100
AcDbSymbolTableRecord
100
AcDbLayerTableRecord
  2
BARRA_ANCORAGEM
 70
0
 62
1
  6
Continuous
370
-3
390
13
347
21
  0
LAYER
  5
32
330
1
100
AcDbSymbolTableRecord
100
AcDbLayerTableRecord
  2
SARR_3.5x7
 70
0
 62
81
  6
Continuous
370
-3
390
13
347
21
  0
LAYER
  5
33
330
1
100
AcDbSymbolTableRecord
100
AcDbLayerTableRecord
  2
SARR_7x7
 70
0
 62
40
  6
Continuous
370
-3
390
13
347
21
  0
LAYER
  5
34
330
1
100
AcDbSymbolTableRecord
100
AcDbLayerTableRecord
  2
Resinado
 70
0
 62
41
  6
Continuous
370
-3
390
13
347
21
  0
LAYER
  5
35
330
1
100
AcDbSymbolTableRecord
100
AcDbLayerTableRecord
  2
VIGAS
 70
0
 62
3
  6
Continuous
370
-3
390
13
347
21
  0
LAYER
  5
37
330
1
100
AcDbSymbolTableRecord
100
AcDbLayerTableRecord
  2
NOME DA VIGA
 70
0
 62
6
  6
Continuous
370
-3
390
13
347
21
  0
LAYER
  5
38
330
1
100
AcDbSymbolTableRecord
100
AcDbLayerTableRecord
  2
COTA
 70
0
 62
241
  6
Continuous
370
-3
390
13
347
21
  0
LAYER
  5
39
330
1
100
AcDbSymbolTableRecord
100
AcDbLayerTableRecord
  2
Painéis
 70
0
 62
200
  6
Continuous
370
-3
390
13
347
21
  0
LAYER
  5
3A
330
1
100
AcDbSymbolTableRecord
100
AcDbLayerTableRecord
  2
SARRAFO DE PRESSAO
 70
0
 62
251
  6
Continuous
370
-3
390
13
347
21
  0
LAYER
  5
3B
330
1
100
AcDbSymbolTableRecord
100
AcDbLayerTableRecord
  2
1
 70
0
 62
1
  6
Continuous
370
-3
390
13
347
21
  0
LAYER
  5
3C
330
1
100
AcDbSymbolTableRecord
100
AcDbLayerTableRecord
  2
3
 70
0
 62
3
  6
Continuous
370
-3
390
13
347
21
  0
LAYER
  5
3D
330
1
100
AcDbSymbolTableRecord
100
AcDbLayerTableRecord
  2
4
 70
0
 62
4
  6
Continuous
370
-3
390
13
347
21
  0
LAYER
  5
3E
330
1
100
AcDbSymbolTableRecord
100
AcDbLayerTableRecord
  2
7
 70
0
 62
7
  6
Continuous
370
-3
390
13
347
21
  0
LAYER
  5
3F
330
1
100
AcDbSymbolTableRecord
100
AcDbLayerTableRecord
  2
9
 70
0
 62
9
  6
Continuous
370
-3
390
13
347
21
  0
LAYER
  5
40
330
1
100
AcDbSymbolTableRecord
100
AcDbLayerTableRecord
  2
CARIMBO
 70
0
 62
255
  6
Continuous
370
-3
390
13
347
21
  0
LAYER
  5
41
330
1
100
AcDbSymbolTableRecord
100
AcDbLayerTableRecord
  2
Folhas
 70
0
 62
255
  6
Continuous
370
-3
390
13
347
21
  0
ENDTAB
  0
TABLE
  2
STYLE
  5
5
330
0
100
AcDbSymbolTable
 70
1
  0
STYLE
  5
29
330
5
100
AcDbSymbolTableRecord
100
AcDbTextStyleTableRecord
  2
Standard
 70
0
 40
0.0
 41
1.0
 50
0.0
 71
0
 42
2.5
  3
txt
  4

  0
ENDTAB
  0
TABLE
  2
VIEW
  5
7
330
0
100
AcDbSymbolTable
 70
0
  0
ENDTAB
  0
TABLE
  2
UCS
  5
6
330
0
100
AcDbSymbolTable
 70
0
  0
ENDTAB
  0
TABLE
  2
APPID
  5
3
330
0
100
AcDbSymbolTable
 70
3
  0
APPID
  5
2A
330
3
100
AcDbSymbolTableRecord
100
AcDbRegAppTableRecord
  2
ACAD
 70
0
  0
APPID
  5
31B
330
3
100
AcDbSymbolTableRecord
100
AcDbRegAppTableRecord
  2
HATCHBACKGROUNDCOLOR
 70
0
  0
APPID
  5
31C
330
3
100
AcDbSymbolTableRecord
100
AcDbRegAppTableRecord
  2
EZDXF
 70
0
  0
ENDTAB
  0
TABLE
  2
DIMSTYLE
  5
4
330
0
100
AcDbSymbolTable
 70
2
100
AcDbDimStyleTable
  0
DIMSTYLE
105
2B
330
4
100
AcDbSymbolTableRecord
100
AcDbDimStyleTableRecord
  2
Standard
 70
0
 40
1.0
 41
2.5
 42
0.625
 43
3.75
 44
1.25
 45
0.0
 46
0.0
 47
0.0
 48
0.0
 49
2.5
140
2.5
141
2.5
142
0.0
143
0.03937007874
144
1.0
145
0.0
146
1.0
147
0.625
148
0.0
 69
0
 70
0
 71
0
 72
0
 73
0
 74
0
 75
0
 76
0
 77
1
 78
8
 79
3
170
0
171
3
172
1
173
0
174
0
175
0
176
0
177
0
178
0
179
2
271
2
272
2
273
2
274
3
275
0
276
0
277
2
278
44
279
0
280
0
281
0
282
0
283
0
284
8
285
0
286
0
288
0
289
3
290
0
371
-2
372
-2
  0
DIMSTYLE
105
42
330
4
100
AcDbSymbolTableRecord
100
AcDbDimStyleTableRecord
  2
EZ DXF
 70
0
 40
1.0
 41
3.5
 42
1.5
 43
3.75
 44
3.0
 45
0.0
 46
0.0
 47
0.0
 48
0.0
 49
2.5
140
10.0
141
2.5
142
0.0
143
0.03937007874
144
1.0
145
0.0
146
1.0
147
1.0
148
0.0
 69
0
 70
0
 71
0
 72
0
 73
0
 74
0
 75
0
 76
0
 77
1
 78
8
 79
3
170
0
171
3
172
1
173
0
174
0
175
0
176
0
177
0
178
0
179
2
271
1
272
2
273
2
274
3
275
0
276
0
277
2
278
46
279
0
280
0
281
0
282
0
283
0
284
8
285
0
286
0
288
0
289
3
290
0
371
-2
372
-2
  0
ENDTAB
  0
TABLE
  2
BLOCK_RECORD
  5
9
330
0
100
AcDbSymbolTable
 70
33
  0
BLOCK_RECORD
  5
17
330
9
100
AcDbSymbolTableRecord
100
AcDbBlockTableRecord
  2
*Model_Space
340
1A
 70
0
280
1
281
0
  0
BLOCK_RECORD
  5
1B
330
9
100
AcDbSymbolTableRecord
100
AcDbBlockTableRecord
  2
*Paper_Space
340
1E
 70
0
280
1
281
0
  0
BLOCK_RECORD
  5
154
330
9
100
AcDbSymbolTableRecord
100
AcDbBlockTableRecord
  2
*D1
340
0
 70
0
280
1
281
0
  0
BLOCK_RECORD
  5
159
330
9
100
AcDbSymbolTableRecord
100
AcDbBlockTableRecord
  2
_CLOSEDFILLED
340
0
 70
0
280
1
281
0
  0
BLOCK_RECORD
  5
167
330
9
100
AcDbSymbolTableRecord
100
AcDbBlockTableRecord
  2
*D2
340
0
 70
0
280
1
281
0
  0
BLOCK_RECORD
  5
176
330
9
100
AcDbSymbolTableRecord
100
AcDbBlockTableRecord
  2
*D3
340
0
 70
0
280
1
281
0
  0
BLOCK_RECORD
  5
185
330
9
100
AcDbSymbolTableRecord
100
AcDbBlockTableRecord
  2
*D4
340
0
 70
0
280
1
281
0
  0
BLOCK_RECORD
  5
194
330
9
100
AcDbSymbolTableRecord
100
AcDbBlockTableRecord
  2
*D5
340
0
 70
0
280
1
281
0
  0
BLOCK_RECORD
  5
1A3
330
9
100
AcDbSymbolTableRecord
100
AcDbBlockTableRecord
  2
*D6
340
0
 70
0
280
1
281
0
  0
BLOCK_RECORD
  5
1B2
330
9
100
AcDbSymbolTableRecord
100
AcDbBlockTableRecord
  2
*D7
340
0
 70
0
280
1
281
0
  0
BLOCK_RECORD
  5
1C1
330
9
100
AcDbSymbolTableRecord
100
AcDbBlockTableRecord
  2
*D8
340
0
 70
0
280
1
281
0
  0
BLOCK_RECORD
  5
1D0
330
9
100
AcDbSymbolTableRecord
100
AcDbBlockTableRecord
  2
*D9
340
0
 70
0
280
1
281
0
  0
BLOCK_RECORD
  5
1DF
330
9
100
AcDbSymbolTableRecord
100
AcDbBlockTableRecord
  2
*D10
340
0
 70
0
280
1
281
0
  0
BLOCK_RECORD
  5
1EE
330
9
100
AcDbSymbolTableRecord
100
AcDbBlockTableRecord
  2
*D11
340
0
 70
0
280
1
281
0
  0
BLOCK_RECORD
  5
1FD
330
9
100
AcDbSymbolTableRecord
100
AcDbBlockTableRecord
  2
*D12
340
0
 70
0
280
1
281
0
  0
BLOCK_RECORD
  5
20C
330
9
100
AcDbSymbolTableRecord
100
AcDbBlockTableRecord
  2
*D13
340
0
 70
0
280
1
281
0
  0
BLOCK_RECORD
  5
21B
330
9
100
AcDbSymbolTableRecord
100
AcDbBlockTableRecord
  2
*D14
340
0
 70
0
280
1
281
0
  0
BLOCK_RECORD
  5
22A
330
9
100
AcDbSymbolTableRecord
100
AcDbBlockTableRecord
  2
*D15
340
0
 70
0
280
1
281
0
  0
BLOCK_RECORD
  5
239
330
9
100
AcDbSymbolTableRecord
100
AcDbBlockTableRecord
  2
*D16
340
0
 70
0
280
1
281
0
  0
BLOCK_RECORD
  5
248
330
9
100
AcDbSymbolTableRecord
100
AcDbBlockTableRecord
  2
*D17
340
0
 70
0
280
1
281
0
  0
BLOCK_RECORD
  5
257
330
9
100
AcDbSymbolTableRecord
100
AcDbBlockTableRecord
  2
*D18
340
0
 70
0
280
1
281
0
  0
BLOCK_RECORD
  5
266
330
9
100
AcDbSymbolTableRecord
100
AcDbBlockTableRecord
  2
*D19
340
0
 70
0
280
1
281
0
  0
BLOCK_RECORD
  5
275
330
9
100
AcDbSymbolTableRecord
100
AcDbBlockTableRecord
  2
*D20
340
0
 70
0
280
1
281
0
  0
BLOCK_RECORD
  5
284
330
9
100
AcDbSymbolTableRecord
100
AcDbBlockTableRecord
  2
*D21
340
0
 70
0
280
1
281
0
  0
BLOCK_RECORD
  5
293
330
9
100
AcDbSymbolTableRecord
100
AcDbBlockTableRecord
  2
*D22
340
0
 70
0
280
1
281
0
  0
BLOCK_RECORD
  5
2A2
330
9
100
AcDbSymbolTableRecord
100
AcDbBlockTableRecord
  2
*D23
340
0
 70
0
280
1
281
0
  0
BLOCK_RECORD
  5
2B1
330
9
100
AcDbSymbolTableRecord
100
AcDbBlockTableRecord
  2
*D24
340
0
 70
0
280
1
281
0
  0
BLOCK_RECORD
  5
2C0
330
9
100
AcDbSymbolTableRecord
100
AcDbBlockTableRecord
  2
*D25
340
0
 70
0
280
1
281
0
  0
BLOCK_RECORD
  5
2CF
330
9
100
AcDbSymbolTableRecord
100
AcDbBlockTableRecord
  2
*D26
340
0
 70
0
280
1
281
0
  0
BLOCK_RECORD
  5
2DE
330
9
100
AcDbSymbolTableRecord
100
AcDbBlockTableRecord
  2
*D27
340
0
 70
0
280
1
281
0
  0
BLOCK_RECORD
  5
2ED
330
9
100
AcDbSymbolTableRecord
100
AcDbBlockTableRecord
  2
*D28
340
0
 70
0
280
1
281
0
  0
BLOCK_RECORD
  5
2FC
330
9
100
AcDbSymbolTableRecord
100
AcDbBlockTableRecord
  2
*D29
340
0
 70
0
280
1
281
0
  0
BLOCK_RECORD
  5
30B
330
9
100
AcDbSymbolTableRecord
100
AcDbBlockTableRecord
  2
*D30
340
0
 70
0
280
1
281
0
  0
ENDTAB
  0
ENDSEC
  0
SECTION
  2
BLOCKS
  0
BLOCK
  5
18
330
17
100
AcDbEntity
  8
0
100
AcDbBlockBegin
  2
*Model_Space
 70
0
 10
0.0
 20
0.0
 30
0.0
  3
*Model_Space
  1

  0
ENDBLK
  5
19
330
17
100
AcDbEntity
  8
0
100
AcDbBlockEnd
  0
BLOCK
  5
1C
330
1B
100
AcDbEntity
  8
0
100
AcDbBlockBegin
  2
*Paper_Space
 70
0
 10
0.0
 20
0.0
 30
0.0
  3
*Paper_Space
  1

  0
ENDBLK
  5
1D
330
1B
100
AcDbEntity
  8
0
100
AcDbBlockEnd
  0
BLOCK
  5
155
330
154
100
AcDbEntity
  8
0
100
AcDbBlockBegin
  2
*D1
 70
1
 10
0.0
 20
0.0
 30
0.0
  3
*D1
  1

  0
LINE
  5
157
330
154
100
AcDbEntity
  8
0
100
AcDbLine
 10
28.5
 20
0.0
 30
0.0
 11
12.0
 21
0.0
 31
0.0
  0
LINE
  5
158
330
154
100
AcDbEntity
  8
0
100
AcDbLine
 10
28.5
 20
179.0
 30
0.0
 11
12.0
 21
179.0
 31
0.0
  0
INSERT
  5
15D
330
154
100
AcDbEntity
  8
COTA
100
AcDbBlockReference
  2
_CLOSEDFILLED
 10
15.0
 20
0.0
 30
0.0
 41
3.5
 42
3.5
 50
270.0
  0
INSERT
  5
15F
330
154
100
AcDbEntity
  8
COTA
100
AcDbBlockReference
  2
_CLOSEDFILLED
 10
15.0
 20
179.0
 30
0.0
 41
3.5
 42
3.5
 50
90.0
  0
LINE
  5
161
330
154
100
AcDbEntity
  8
0
100
AcDbLine
 10
15.0
 20
3.5
 30
0.0
 11
15.0
 21
175.5
 31
0.0
  0
MTEXT
  5
162
330
154
100
AcDbEntity
  8
COTA
100
AcDbMText
 10
9.0
 20
89.5
 30
0.0
 40
10.0
 71
5
  1
179
 50
90.0
  0
POINT
  5
163
330
154
100
AcDbEntity
  8
Defpoints
100
AcDbPoint
 10
15.0
 20
0.0
 30
0.0
  0
POINT
  5
164
330
154
100
AcDbEntity
  8
Defpoints
100
AcDbPoint
 10
30.0
 20
0.0
 30
0.0
  0
POINT
  5
165
330
154
100
AcDbEntity
  8
Defpoints
100
AcDbPoint
 10
30.0
 20
179.0
 30
0.0
  0
ENDBLK
  5
156
330
154
100
AcDbEntity
  8
0
100
AcDbBlockEnd
  0
BLOCK
  5
15A
330
159
100
AcDbEntity
  8
0
100
AcDbBlockBegin
  2
_CLOSEDFILLED
 70
0
 10
0.0
 20
0.0
 30
0.0
  3
_CLOSEDFILLED
  1

  0
SOLID
  5
15C
330
159
100
AcDbEntity
  8
0
  6
BYBLOCK
 62
0
100
AcDbTrace
 10
-1.0
 20
0.16439898372402537
 30
0.0
 11
0.0
 21
0.0
 31
0.0
 12
-1.0
 22
-0.16439898372402537
 32
0.0
 13
-1.0
 23
-0.16439898372402537
 33
0.0
  0
ENDBLK
  5
15B
330
159
100
AcDbEntity
  8
0
100
AcDbBlockEnd
  0
BLOCK
  5
168
330
167
100
AcDbEntity
  8
0
100
AcDbBlockBegin
  2
*D2
 70
1
 10
0.0
 20
0.0
 30
0.0
  3
*D2
  1

  0
LINE
  5
16A
330
167
100
AcDbEntity
  8
0
100
AcDbLine
 10
30.0
 20
-8.5
 30
0.0
 11
30.0
 21
-25.0
 31
0.0
  0
LINE
  5
16B
330
167
100
AcDbEntity
  8
0
100
AcDbLine
 10
184.5565210689655
 20
-8.5
 30
0.0
 11
184.5565210689655
 21
-25.0
 31
0.0
  0
INSERT
  5
16C
330
167
100
AcDbEntity
  8
COTA
100
AcDbBlockReference
  2
_CLOSEDFILLED
 10
30.0
 20
-22.0
 30
0.0
 41
3.5
 42
3.5
 50
180.0
  0
INSERT
  5
16E
330
167
100
AcDbEntity
  8
COTA
100
AcDbBlockReference
  2
_CLOSEDFILLED
 10
184.5565210689655
 20
-22.0
 30
0.0
 41
3.5
 42
3.5
  0
LINE
  5
170
330
167
100
AcDbEntity
  8
0
100
AcDbLine
 10
33.5
 20
-22.0
 30
0.0
 11
181.0565210689655
 21
-22.0
 31
0.0
  0
MTEXT
  5
171
330
167
100
AcDbEntity
  8
COTA
100
AcDbMText
 10
107.27826053448275
 20
-16.0
 30
0.0
 40
10.0
 71
5
  1
154.6
  0
POINT
  5
172
330
167
100
AcDbEntity
  8
Defpoints
100
AcDbPoint
 10
30.0
 20
-22.0
 30
0.0
  0
POINT
  5
173
330
167
100
AcDbEntity
  8
Defpoints
100
AcDbPoint
 10
30.0
 20
-7.0
 30
0.0
  0
POINT
  5
174
330
167
100
AcDbEntity
  8
Defpoints
100
AcDbPoint
 10
184.5565210689655
 20
-7.0
 30
0.0
  0
ENDBLK
  5
169
330
167
100
AcDbEntity
  8
0
100
AcDbBlockEnd
  0
BLOCK
  5
177
330
176
100
AcDbEntity
  8
0
100
AcDbBlockBegin
  2
*D3
 70
1
 10
0.0
 20
0.0
 30
0.0
  3
*D3
  1

  0
LINE
  5
179
330
176
100
AcDbEntity
  8
0
100
AcDbLine
 10
184.5565210689655
 20
-8.5
 30
0.0
 11
184.5565210689655
 21
-25.0
 31
0.0
  0
LINE
  5
17A
330
176
100
AcDbEntity
  8
0
100
AcDbLine
 10
339.113042137931
 20
-8.5
 30
0.0
 11
339.113042137931
 21
-25.0
 31
0.0
  0
INSERT
  5
17B
330
176
100
AcDbEntity
  8
COTA
100
AcDbBlockReference
  2
_CLOSEDFILLED
 10
184.5565210689655
 20
-22.0
 30
0.0
 41
3.5
 42
3.5
 50
180.0
  0
INSERT
  5
17D
330
176
100
AcDbEntity
  8
COTA
100
AcDbBlockReference
  2
_CLOSEDFILLED
 10
339.113042137931
 20
-22.0
 30
0.0
 41
3.5
 42
3.5
  0
LINE
  5
17F
330
176
100
AcDbEntity
  8
0
100
AcDbLine
 10
188.0565210689655
 20
-22.0
 30
0.0
 11
335.613042137931
 21
-22.0
 31
0.0
  0
MTEXT
  5
180
330
176
100
AcDbEntity
  8
COTA
100
AcDbMText
 10
261.8347816034483
 20
-16.0
 30
0.0
 40
10.0
 71
5
  1
154.6
  0
POINT
  5
181
330
176
100
AcDbEntity
  8
Defpoints
100
AcDbPoint
 10
184.5565210689655
 20
-22.0
 30
0.0
  0
POINT
  5
182
330
176
100
AcDbEntity
  8
Defpoints
100
AcDbPoint
 10
184.5565210689655
 20
-7.0
 30
0.0
  0
POINT
  5
183
330
176
100
AcDbEntity
  8
Defpoints
100
AcDbPoint
 10
339.113042137931
 20
-7.0
 30
0.0
  0
ENDBLK
  5
178
330
176
100
AcDbEntity
  8
0
100
AcDbBlockEnd
  0
BLOCK
  5
186
330
185
100
AcDbEntity
  8
0
100
AcDbBlockBegin
  2
*D4
 70
1
 10
0.0
 20
0.0
 30
0.0
  3
*D4
  1

  0
LINE
  5
188
330
185
100
AcDbEntity
  8
0
100
AcDbLine
 10
339.113042137931
 20
-8.5
 30
0.0
 11
339.113042137931
 21
-25.0
 31
0.0
  0
LINE
  5
189
330
185
100
AcDbEntity
  8
0
100
AcDbLine
 10
493.66956320689656
 20
-8.5
 30
0.0
 11
493.66956320689656
 21
-25.0
 31
0.0
  0
INSERT
  5
18A
330
185
100
AcDbEntity
  8
COTA
100
AcDbBlockReference
  2
_CLOSEDFILLED
 10
339.113042137931
 20
-22.0
 30
0.0
 41
3.5
 42
3.5
 50
180.0
  0
INSERT
  5
18C
330
185
100
AcDbEntity
  8
COTA
100
AcDbBlockReference
  2
_CLOSEDFILLED
 10
493.66956320689656
 20
-22.0
 30
0.0
 41
3.5
 42
3.5
  0
LINE
  5
18E
330
185
100
AcDbEntity
  8
0
100
AcDbLine
 10
342.613042137931
 20
-22.0
 30
0.0
 11
490.16956320689656
 21
-22.0
 31
0.0
  0
MTEXT
  5
18F
330
185
100
AcDbEntity
  8
COTA
100
AcDbMText
 10
416.39130267241376
 20
-16.0
 30
0.0
 40
10.0
 71
5
  1
154.6
  0
POINT
  5
190
330
185
100
AcDbEntity
  8
Defpoints
100
AcDbPoint
 10
339.113042137931
 20
-22.0
 30
0.0
  0
POINT
  5
191
330
185
100
AcDbEntity
  8
Defpoints
100
AcDbPoint
 10
339.113042137931
 20
-7.0
 30
0.0
  0
POINT
  5
192
330
185
100
AcDbEntity
  8
Defpoints
100
AcDbPoint
 10
493.66956320689656
 20
-7.0
 30
0.0
  0
ENDBLK
  5
187
330
185
100
AcDbEntity
  8
0
100
AcDbBlockEnd
  0
BLOCK
  5
195
330
194
100
AcDbEntity
  8
0
100
AcDbBlockBegin
  2
*D5
 70
1
 10
0.0
 20
0.0
 30
0.0
  3
*D5
  1

  0
LINE
  5
197
330
194
100
AcDbEntity
  8
0
100
AcDbLine
 10
493.66956320689656
 20
-8.5
 30
0.0
 11
493.66956320689656
 21
-25.0
 31
0.0
  0
LINE
  5
198
330
194
100
AcDbEntity
  8
0
100
AcDbLine
 10
648.226084275862
 20
-8.5
 30
0.0
 11
648.226084275862
 21
-25.0
 31
0.0
  0
INSERT
  5
199
330
194
100
AcDbEntity
  8
COTA
100
AcDbBlockReference
  2
_CLOSEDFILLED
 10
493.66956320689656
 20
-22.0
 30
0.0
 41
3.5
 42
3.5
 50
180.0
  0
INSERT
  5
19B
330
194
100
AcDbEntity
  8
COTA
100
AcDbBlockReference
  2
_CLOSEDFILLED
 10
648.226084275862
 20
-22.0
 30
0.0
 41
3.5
 42
3.5
  0
LINE
  5
19D
330
194
100
AcDbEntity
  8
0
100
AcDbLine
 10
497.16956320689656
 20
-22.0
 30
0.0
 11
644.726084275862
 21
-22.0
 31
0.0
  0
MTEXT
  5
19E
330
194
100
AcDbEntity
  8
COTA
100
AcDbMText
 10
570.9478237413794
 20
-16.0
 30
0.0
 40
10.0
 71
5
  1
154.6
  0
POINT
  5
19F
330
194
100
AcDbEntity
  8
Defpoints
100
AcDbPoint
 10
493.66956320689656
 20
-22.0
 30
0.0
  0
POINT
  5
1A0
330
194
100
AcDbEntity
  8
Defpoints
100
AcDbPoint
 10
493.66956320689656
 20
-7.0
 30
0.0
  0
POINT
  5
1A1
330
194
100
AcDbEntity
  8
Defpoints
100
AcDbPoint
 10
648.226084275862
 20
-7.0
 30
0.0
  0
ENDBLK
  5
196
330
194
100
AcDbEntity
  8
0
100
AcDbBlockEnd
  0
BLOCK
  5
1A4
330
1A3
100
AcDbEntity
  8
0
100
AcDbBlockBegin
  2
*D6
 70
1
 10
0.0
 20
0.0
 30
0.0
  3
*D6
  1

  0
LINE
  5
1A6
330
1A3
100
AcDbEntity
  8
0
100
AcDbLine
 10
648.226084275862
 20
-8.5
 30
0.0
 11
648.226084275862
 21
-25.0
 31
0.0
  0
LINE
  5
1A7
330
1A3
100
AcDbEntity
  8
0
100
AcDbLine
 10
802.7826053448275
 20
-8.5
 30
0.0
 11
802.7826053448275
 21
-25.0
 31
0.0
  0
INSERT
  5
1A8
330
1A3
100
AcDbEntity
  8
COTA
100
AcDbBlockReference
  2
_CLOSEDFILLED
 10
648.226084275862
 20
-22.0
 30
0.0
 41
3.5
 42
3.5
 50
180.0
  0
INSERT
  5
1AA
330
1A3
100
AcDbEntity
  8
COTA
100
AcDbBlockReference
  2
_CLOSEDFILLED
 10
802.7826053448275
 20
-22.0
 30
0.0
 41
3.5
 42
3.5
  0
LINE
  5
1AC
330
1A3
100
AcDbEntity
  8
0
100
AcDbLine
 10
651.726084275862
 20
-22.0
 30
0.0
 11
799.2826053448275
 21
-22.0
 31
0.0
  0
MTEXT
  5
1AD
330
1A3
100
AcDbEntity
  8
COTA
100
AcDbMText
 10
725.5043448103447
 20
-16.0
 30
0.0
 40
10.0
 71
5
  1
154.6
  0
POINT
  5
1AE
330
1A3
100
AcDbEntity
  8
Defpoints
100
AcDbPoint
 10
648.226084275862
 20
-22.0
 30
0.0
  0
POINT
  5
1AF
330
1A3
100
AcDbEntity
  8
Defpoints
100
AcDbPoint
 10
648.226084275862
 20
-7.0
 30
0.0
  0
POINT
  5
1B0
330
1A3
100
AcDbEntity
  8
Defpoints
100
AcDbPoint
 10
802.7826053448275
 20
-7.0
 30
0.0
  0
ENDBLK
  5
1A5
330
1A3
100
AcDbEntity
  8
0
100
AcDbBlockEnd
  0
BLOCK
  5
1B3
330
1B2
100
AcDbEntity
  8
0
100
AcDbBlockBegin
  2
*D7
 70
1
 10
0.0
 20
0.0
 30
0.0
  3
*D7
  1

  0
LINE
  5
1B5
330
1B2
100
AcDbEntity
  8
0
100
AcDbLine
 10
802.7826053448275
 20
-8.5
 30
0.0
 11
802.7826053448275
 21
-25.0
 31
0.0
  0
LINE
  5
1B6
330
1B2
100
AcDbEntity
  8
0
100
AcDbLine
 10
957.3391264137931
 20
-8.5
 30
0.0
 11
957.3391264137931
 21
-25.0
 31
0.0
  0
INSERT
  5
1B7
330
1B2
100
AcDbEntity
  8
COTA
100
AcDbBlockReference
  2
_CLOSEDFILLED
 10
802.7826053448275
 20
-22.0
 30
0.0
 41
3.5
 42
3.5
 50
180.0
  0
INSERT
  5
1B9
330
1B2
100
AcDbEntity
  8
COTA
100
AcDbBlockReference
  2
_CLOSEDFILLED
 10
957.3391264137931
 20
-22.0
 30
0.0
 41
3.5
 42
3.5
  0
LINE
  5
1BB
330
1B2
100
AcDbEntity
  8
0
100
AcDbLine
 10
806.2826053448275
 20
-22.0
 30
0.0
 11
953.8391264137931
 21
-22.0
 31
0.0
  0
MTEXT
  5
1BC
330
1B2
100
AcDbEntity
  8
COTA
100
AcDbMText
 10
880.0608658793103
 20
-16.0
 30
0.0
 40
10.0
 71
5
  1
154.6
  0
POINT
  5
1BD
330
1B2
100
AcDbEntity
  8
Defpoints
100
AcDbPoint
 10
802.7826053448275
 20
-22.0
 30
0.0
  0
POINT
  5
1BE
330
1B2
100
AcDbEntity
  8
Defpoints
100
AcDbPoint
 10
802.7826053448275
 20
-7.0
 30
0.0
  0
POINT
  5
1BF
330
1B2
100
AcDbEntity
  8
Defpoints
100
AcDbPoint
 10
957.3391264137931
 20
-7.0
 30
0.0
  0
ENDBLK
  5
1B4
330
1B2
100
AcDbEntity
  8
0
100
AcDbBlockEnd
  0
BLOCK
  5
1C2
330
1C1
100
AcDbEntity
  8
0
100
AcDbBlockBegin
  2
*D8
 70
1
 10
0.0
 20
0.0
 30
0.0
  3
*D8
  1

  0
LINE
  5
1C4
330
1C1
100
AcDbEntity
  8
0
100
AcDbLine
 10
957.3391264137931
 20
-8.5
 30
0.0
 11
957.3391264137931
 21
-25.0
 31
0.0
  0
LINE
  5
1C5
330
1C1
100
AcDbEntity
  8
0
100
AcDbLine
 10
1111.8956474827585
 20
-8.5
 30
0.0
 11
1111.8956474827585
 21
-25.0
 31
0.0
  0
INSERT
  5
1C6
330
1C1
100
AcDbEntity
  8
COTA
100
AcDbBlockReference
  2
_CLOSEDFILLED
 10
957.3391264137931
 20
-22.0
 30
0.0
 41
3.5
 42
3.5
 50
180.0
  0
INSERT
  5
1C8
330
1C1
100
AcDbEntity
  8
COTA
100
AcDbBlockReference
  2
_CLOSEDFILLED
 10
1111.8956474827585
 20
-22.0
 30
0.0
 41
3.5
 42
3.5
  0
LINE
  5
1CA
330
1C1
100
AcDbEntity
  8
0
100
AcDbLine
 10
960.8391264137931
 20
-22.0
 30
0.0
 11
1108.3956474827585
 21
-22.0
 31
0.0
  0
MTEXT
  5
1CB
330
1C1
100
AcDbEntity
  8
COTA
100
AcDbMText
 10
1034.617386948276
 20
-16.0
 30
0.0
 40
10.0
 71
5
  1
154.6
  0
POINT
  5
1CC
330
1C1
100
AcDbEntity
  8
Defpoints
100
AcDbPoint
 10
957.3391264137931
 20
-22.0
 30
0.0
  0
POINT
  5
1CD
330
1C1
100
AcDbEntity
  8
Defpoints
100
AcDbPoint
 10
957.3391264137931
 20
-7.0
 30
0.0
  0
POINT
  5
1CE
330
1C1
100
AcDbEntity
  8
Defpoints
100
AcDbPoint
 10
1111.8956474827585
 20
-7.0
 30
0.0
  0
ENDBLK
  5
1C3
330
1C1
100
AcDbEntity
  8
0
100
AcDbBlockEnd
  0
BLOCK
  5
1D1
330
1D0
100
AcDbEntity
  8
0
100
AcDbBlockBegin
  2
*D9
 70
1
 10
0.0
 20
0.0
 30
0.0
  3
*D9
  1

  0
LINE
  5
1D3
330
1D0
100
AcDbEntity
  8
0
100
AcDbLine
 10
1111.8956474827585
 20
-8.5
 30
0.0
 11
1111.8956474827585
 21
-25.0
 31
0.0
  0
LINE
  5
1D4
330
1D0
100
AcDbEntity
  8
0
100
AcDbLine
 10
1266.452168551724
 20
-8.5
 30
0.0
 11
1266.452168551724
 21
-25.0
 31
0.0
  0
INSERT
  5
1D5
330
1D0
100
AcDbEntity
  8
COTA
100
AcDbBlockReference
  2
_CLOSEDFILLED
 10
1111.8956474827585
 20
-22.0
 30
0.0
 41
3.5
 42
3.5
 50
180.0
  0
INSERT
  5
1D7
330
1D0
100
AcDbEntity
  8
COTA
100
AcDbBlockReference
  2
_CLOSEDFILLED
 10
1266.452168551724
 20
-22.0
 30
0.0
 41
3.5
 42
3.5
  0
LINE
  5
1D9
330
1D0
100
AcDbEntity
  8
0
100
AcDbLine
 10
1115.3956474827585
 20
-22.0
 30
0.0
 11
1262.952168551724
 21
-22.0
 31
0.0
  0
MTEXT
  5
1DA
330
1D0
100
AcDbEntity
  8
COTA
100
AcDbMText
 10
1189.1739080172413
 20
-16.0
 30
0.0
 40
10.0
 71
5
  1
154.6
  0
POINT
  5
1DB
330
1D0
100
AcDbEntity
  8
Defpoints
100
AcDbPoint
 10
1111.8956474827585
 20
-22.0
 30
0.0
  0
POINT
  5
1DC
330
1D0
100
AcDbEntity
  8
Defpoints
100
AcDbPoint
 10
1111.8956474827585
 20
-7.0
 30
0.0
  0
POINT
  5
1DD
330
1D0
100
AcDbEntity
  8
Defpoints
100
AcDbPoint
 10
1266.452168551724
 20
-7.0
 30
0.0
  0
ENDBLK
  5
1D2
330
1D0
100
AcDbEntity
  8
0
100
AcDbBlockEnd
  0
BLOCK
  5
1E0
330
1DF
100
AcDbEntity
  8
0
100
AcDbBlockBegin
  2
*D10
 70
1
 10
0.0
 20
0.0
 30
0.0
  3
*D10
  1

  0
LINE
  5
1E2
330
1DF
100
AcDbEntity
  8
0
100
AcDbLine
 10
1266.452168551724
 20
-8.5
 30
0.0
 11
1266.452168551724
 21
-25.0
 31
0.0
  0
LINE
  5
1E3
330
1DF
100
AcDbEntity
  8
0
100
AcDbLine
 10
1421.0086896206897
 20
-8.5
 30
0.0
 11
1421.0086896206897
 21
-25.0
 31
0.0
  0
INSERT
  5
1E4
330
1DF
100
AcDbEntity
  8
COTA
100
AcDbBlockReference
  2
_CLOSEDFILLED
 10
1266.452168551724
 20
-22.0
 30
0.0
 41
3.5
 42
3.5
 50
180.0
  0
INSERT
  5
1E6
330
1DF
100
AcDbEntity
  8
COTA
100
AcDbBlockReference
  2
_CLOSEDFILLED
 10
1421.0086896206897
 20
-22.0
 30
0.0
 41
3.5
 42
3.5
  0
LINE
  5
1E8
330
1DF
100
AcDbEntity
  8
0
100
AcDbLine
 10
1269.952168551724
 20
-22.0
 30
0.0
 11
1417.5086896206897
 21
-22.0
 31
0.0
  0
MTEXT
  5
1E9
330
1DF
100
AcDbEntity
  8
COTA
100
AcDbMText
 10
1343.7304290862069
 20
-16.0
 30
0.0
 40
10.0
 71
5
  1
154.6
  0
POINT
  5
1EA
330
1DF
100
AcDbEntity
  8
Defpoints
100
AcDbPoint
 10
1266.452168551724
 20
-22.0
 30
0.0
  0
POINT
  5
1EB
330
1DF
100
AcDbEntity
  8
Defpoints
100
AcDbPoint
 10
1266.452168551724
 20
-7.0
 30
0.0
  0
POINT
  5
1EC
330
1DF
100
AcDbEntity
  8
Defpoints
100
AcDbPoint
 10
1421.0086896206897
 20
-7.0
 30
0.0
  0
ENDBLK
  5
1E1
330
1DF
100
AcDbEntity
  8
0
100
AcDbBlockEnd
  0
BLOCK
  5
1EF
330
1EE
100
AcDbEntity
  8
0
100
AcDbBlockBegin
  2
*D11
 70
1
 10
0.0
 20
0.0
 30
0.0
  3
*D11
  1

  0
LINE
  5
1F1
330
1EE
100
AcDbEntity
  8
0
100
AcDbLine
 10
1421.0086896206897
 20
-8.5
 30
0.0
 11
1421.0086896206897
 21
-25.0
 31
0.0
  0
LINE
  5
1F2
330
1EE
100
AcDbEntity
  8
0
100
AcDbLine
 10
1575.565210689655
 20
-8.5
 30
0.0
 11
1575.565210689655
 21
-25.0
 31
0.0
  0
INSERT
  5
1F3
330
1EE
100
AcDbEntity
  8
COTA
100
AcDbBlockReference
  2
_CLOSEDFILLED
 10
1421.0086896206897
 20
-22.0
 30
0.0
 41
3.5
 42
3.5
 50
180.0
  0
INSERT
  5
1F5
330
1EE
100
AcDbEntity
  8
COTA
100
AcDbBlockReference
  2
_CLOSEDFILLED
 10
1575.565210689655
 20
-22.0
 30
0.0
 41
3.5
 42
3.5
  0
LINE
  5
1F7
330
1EE
100
AcDbEntity
  8
0
100
AcDbLine
 10
1424.5086896206897
 20
-22.0
 30
0.0
 11
1572.065210689655
 21
-22.0
 31
0.0
  0
MTEXT
  5
1F8
330
1EE
100
AcDbEntity
  8
COTA
100
AcDbMText
 10
1498.2869501551722
 20
-16.0
 30
0.0
 40
10.0
 71
5
  1
154.6
  0
POINT
  5
1F9
330
1EE
100
AcDbEntity
  8
Defpoints
100
AcDbPoint
 10
1421.0086896206897
 20
-22.0
 30
0.0
  0
POINT
  5
1FA
330
1EE
100
AcDbEntity
  8
Defpoints
100
AcDbPoint
 10
1421.0086896206897
 20
-7.0
 30
0.0
  0
POINT
  5
1FB
330
1EE
100
AcDbEntity
  8
Defpoints
100
AcDbPoint
 10
1575.565210689655
 20
-7.0
 30
0.0
  0
ENDBLK
  5
1F0
330
1EE
100
AcDbEntity
  8
0
100
AcDbBlockEnd
  0
BLOCK
  5
1FE
330
1FD
100
AcDbEntity
  8
0
100
AcDbBlockBegin
  2
*D12
 70
1
 10
0.0
 20
0.0
 30
0.0
  3
*D12
  1

  0
LINE
  5
200
330
1FD
100
AcDbEntity
  8
0
100
AcDbLine
 10
1575.565210689655
 20
-8.5
 30
0.0
 11
1575.565210689655
 21
-25.0
 31
0.0
  0
LINE
  5
201
330
1FD
100
AcDbEntity
  8
0
100
AcDbLine
 10
1730.1217317586206
 20
-8.5
 30
0.0
 11
1730.1217317586206
 21
-25.0
 31
0.0
  0
INSERT
  5
202
330
1FD
100
AcDbEntity
  8
COTA
100
AcDbBlockReference
  2
_CLOSEDFILLED
 10
1575.565210689655
 20
-22.0
 30
0.0
 41
3.5
 42
3.5
 50
180.0
  0
INSERT
  5
204
330
1FD
100
AcDbEntity
  8
COTA
100
AcDbBlockReference
  2
_CLOSEDFILLED
 10
1730.1217317586206
 20
-22.0
 30
0.0
 41
3.5
 42
3.5
  0
LINE
  5
206
330
1FD
100
AcDbEntity
  8
0
100
AcDbLine
 10
1579.065210689655
 20
-22.0
 30
0.0
 11
1726.6217317586206
 21
-22.0
 31
0.0
  0
MTEXT
  5
207
330
1FD
100
AcDbEntity
  8
COTA
100
AcDbMText
 10
1652.8434712241378
 20
-16.0
 30
0.0
 40
10.0
 71
5
  1
154.6
  0
POINT
  5
208
330
1FD
100
AcDbEntity
  8
Defpoints
100
AcDbPoint
 10
1575.565210689655
 20
-22.0
 30
0.0
  0
POINT
  5
209
330
1FD
100
AcDbEntity
  8
Defpoints
100
AcDbPoint
 10
1575.565210689655
 20
-7.0
 30
0.0
  0
POINT
  5
20A
330
1FD
100
AcDbEntity
  8
Defpoints
100
AcDbPoint
 10
1730.1217317586206
 20
-7.0
 30
0.0
  0
ENDBLK
  5
1FF
330
1FD
100
AcDbEntity
  8
0
100
AcDbBlockEnd
  0
BLOCK
  5
20D
330
20C
100
AcDbEntity
  8
0
100
AcDbBlockBegin
  2
*D13
 70
1
 10
0.0
 20
0.0
 30
0.0
  3
*D13
  1

  0
LINE
  5
20F
330
20C
100
AcDbEntity
  8
0
100
AcDbLine
 10
1730.1217317586206
 20
-8.5
 30
0.0
 11
1730.1217317586206
 21
-25.0
 31
0.0
  0
LINE
  5
210
330
20C
100
AcDbEntity
  8
0
100
AcDbLine
 10
1884.6782528275862
 20
-8.5
 30
0.0
 11
1884.6782528275862
 21
-25.0
 31
0.0
  0
INSERT
  5
211
330
20C
100
AcDbEntity
  8
COTA
100
AcDbBlockReference
  2
_CLOSEDFILLED
 10
1730.1217317586206
 20
-22.0
 30
0.0
 41
3.5
 42
3.5
 50
180.0
  0
INSERT
  5
213
330
20C
100
AcDbEntity
  8
COTA
100
AcDbBlockReference
  2
_CLOSEDFILLED
 10
1884.6782528275862
 20
-22.0
 30
0.0
 41
3.5
 42
3.5
  0
LINE
  5
215
330
20C
100
AcDbEntity
  8
0
100
AcDbLine
 10
1733.6217317586206
 20
-22.0
 30
0.0
 11
1881.1782528275862
 21
-22.0
 31
0.0
  0
MTEXT
  5
216
330
20C
100
AcDbEntity
  8
COTA
100
AcDbMText
 10
1807.3999922931034
 20
-16.0
 30
0.0
 40
10.0
 71
5
  1
154.6
  0
POINT
  5
217
330
20C
100
AcDbEntity
  8
Defpoints
100
AcDbPoint
 10
1730.1217317586206
 20
-22.0
 30
0.0
  0
POINT
  5
218
330
20C
100
AcDbEntity
  8
Defpoints
100
AcDbPoint
 10
1730.1217317586206
 20
-7.0
 30
0.0
  0
POINT
  5
219
330
20C
100
AcDbEntity
  8
Defpoints
100
AcDbPoint
 10
1884.6782528275862
 20
-7.0
 30
0.0
  0
ENDBLK
  5
20E
330
20C
100
AcDbEntity
  8
0
100
AcDbBlockEnd
  0
BLOCK
  5
21C
330
21B
100
AcDbEntity
  8
0
100
AcDbBlockBegin
  2
*D14
 70
1
 10
0.0
 20
0.0
 30
0.0
  3
*D14
  1

  0
LINE
  5
21E
330
21B
100
AcDbEntity
  8
0
100
AcDbLine
 10
1884.6782528275862
 20
-8.5
 30
0.0
 11
1884.6782528275862
 21
-25.0
 31
0.0
  0
LINE
  5
21F
330
21B
100
AcDbEntity
  8
0
100
AcDbLine
 10
2039.2347738965516
 20
-8.5
 30
0.0
 11
2039.2347738965516
 21
-25.0
 31
0.0
  0
INSERT
  5
220
330
21B
100
AcDbEntity
  8
COTA
100
AcDbBlockReference
  2
_CLOSEDFILLED
 10
1884.6782528275862
 20
-22.0
 30
0.0
 41
3.5
 42
3.5
 50
180.0
  0
INSERT
  5
222
330
21B
100
AcDbEntity
  8
COTA
100
AcDbBlockReference
  2
_CLOSEDFILLED
 10
2039.2347738965516
 20
-22.0
 30
0.0
 41
3.5
 42
3.5
  0
LINE
  5
224
330
21B
100
AcDbEntity
  8
0
100
AcDbLine
 10
1888.1782528275862
 20
-22.0
 30
0.0
 11
2035.7347738965516
 21
-22.0
 31
0.0
  0
MTEXT
  5
225
330
21B
100
AcDbEntity
  8
COTA
100
AcDbMText
 10
1961.956513362069
 20
-16.0
 30
0.0
 40
10.0
 71
5
  1
154.6
  0
POINT
  5
226
330
21B
100
AcDbEntity
  8
Defpoints
100
AcDbPoint
 10
1884.6782528275862
 20
-22.0
 30
0.0
  0
POINT
  5
227
330
21B
100
AcDbEntity
  8
Defpoints
100
AcDbPoint
 10
1884.6782528275862
 20
-7.0
 30
0.0
  0
POINT
  5
228
330
21B
100
AcDbEntity
  8
Defpoints
100
AcDbPoint
 10
2039.2347738965516
 20
-7.0
 30
0.0
  0
ENDBLK
  5
21D
330
21B
100
AcDbEntity
  8
0
100
AcDbBlockEnd
  0
BLOCK
  5
22B
330
22A
100
AcDbEntity
  8
0
100
AcDbBlockBegin
  2
*D15
 70
1
 10
0.0
 20
0.0
 30
0.0
  3
*D15
  1

  0
LINE
  5
22D
330
22A
100
AcDbEntity
  8
0
100
AcDbLine
 10
2039.2347738965516
 20
-8.5
 30
0.0
 11
2039.2347738965516
 21
-25.0
 31
0.0
  0
LINE
  5
22E
330
22A
100
AcDbEntity
  8
0
100
AcDbLine
 10
2193.791294965517
 20
-8.5
 30
0.0
 11
2193.791294965517
 21
-25.0
 31
0.0
  0
INSERT
  5
22F
330
22A
100
AcDbEntity
  8
COTA
100
AcDbBlockReference
  2
_CLOSEDFILLED
 10
2039.2347738965516
 20
-22.0
 30
0.0
 41
3.5
 42
3.5
 50
180.0
  0
INSERT
  5
231
330
22A
100
AcDbEntity
  8
COTA
100
AcDbBlockReference
  2
_CLOSEDFILLED
 10
2193.791294965517
 20
-22.0
 30
0.0
 41
3.5
 42
3.5
  0
LINE
  5
233
330
22A
100
AcDbEntity
  8
0
100
AcDbLine
 10
2042.7347738965516
 20
-22.0
 30
0.0
 11
2190.291294965517
 21
-22.0
 31
0.0
  0
MTEXT
  5
234
330
22A
100
AcDbEntity
  8
COTA
100
AcDbMText
 10
2116.513034431034
 20
-16.0
 30
0.0
 40
10.0
 71
5
  1
154.6
  0
POINT
  5
235
330
22A
100
AcDbEntity
  8
Defpoints
100
AcDbPoint
 10
2039.2347738965516
 20
-22.0
 30
0.0
  0
POINT
  5
236
330
22A
100
AcDbEntity
  8
Defpoints
100
AcDbPoint
 10
2039.2347738965516
 20
-7.0
 30
0.0
  0
POINT
  5
237
330
22A
100
AcDbEntity
  8
Defpoints
100
AcDbPoint
 10
2193.791294965517
 20
-7.0
 30
0.0
  0
ENDBLK
  5
22C
330
22A
100
AcDbEntity
  8
0
100
AcDbBlockEnd
  0
BLOCK
  5
23A
330
239
100
AcDbEntity
  8
0
100
AcDbBlockBegin
  2
*D16
 70
1
 10
0.0
 20
0.0
 30
0.0
  3
*D16
  1

  0
LINE
  5
23C
330
239
100
AcDbEntity
  8
0
100
AcDbLine
 10
2193.791294965517
 20
-8.5
 30
0.0
 11
2193.791294965517
 21
-25.0
 31
0.0
  0
LINE
  5
23D
330
239
100
AcDbEntity
  8
0
100
AcDbLine
 10
2348.3478160344825
 20
-8.5
 30
0.0
 11
2348.3478160344825
 21
-25.0
 31
0.0
  0
INSERT
  5
23E
330
239
100
AcDbEntity
  8
COTA
100
AcDbBlockReference
  2
_CLOSEDFILLED
 10
2193.791294965517
 20
-22.0
 30
0.0
 41
3.5
 42
3.5
 50
180.0
  0
INSERT
  5
240
330
239
100
AcDbEntity
  8
COTA
100
AcDbBlockReference
  2
_CLOSEDFILLED
 10
2348.3478160344825
 20
-22.0
 30
0.0
 41
3.5
 42
3.5
  0
LINE
  5
242
330
239
100
AcDbEntity
  8
0
100
AcDbLine
 10
2197.291294965517
 20
-22.0
 30
0.0
 11
2344.8478160344825
 21
-22.0
 31
0.0
  0
MTEXT
  5
243
330
239
100
AcDbEntity
  8
COTA
100
AcDbMText
 10
2271.0695554999998
 20
-16.0
 30
0.0
 40
10.0
 71
5
  1
154.6
  0
POINT
  5
244
330
239
100
AcDbEntity
  8
Defpoints
100
AcDbPoint
 10
2193.791294965517
 20
-22.0
 30
0.0
  0
POINT
  5
245
330
239
100
AcDbEntity
  8
Defpoints
100
AcDbPoint
 10
2193.791294965517
 20
-7.0
 30
0.0
  0
POINT
  5
246
330
239
100
AcDbEntity
  8
Defpoints
100
AcDbPoint
 10
2348.3478160344825
 20
-7.0
 30
0.0
  0
ENDBLK
  5
23B
330
239
100
AcDbEntity
  8
0
100
AcDbBlockEnd
  0
BLOCK
  5
249
330
248
100
AcDbEntity
  8
0
100
AcDbBlockBegin
  2
*D17
 70
1
 10
0.0
 20
0.0
 30
0.0
  3
*D17
  1

  0
LINE
  5
24B
330
248
100
AcDbEntity
  8
0
100
AcDbLine
 10
2348.3478160344825
 20
-8.5
 30
0.0
 11
2348.3478160344825
 21
-25.0
 31
0.0
  0
LINE
  5
24C
330
248
100
AcDbEntity
  8
0
100
AcDbLine
 10
2502.904337103448
 20
-8.5
 30
0.0
 11
2502.904337103448
 21
-25.0
 31
0.0
  0
INSERT
  5
24D
330
248
100
AcDbEntity
  8
COTA
100
AcDbBlockReference
  2
_CLOSEDFILLED
 10
2348.3478160344825
 20
-22.0
 30
0.0
 41
3.5
 42
3.5
 50
180.0
  0
INSERT
  5
24F
330
248
100
AcDbEntity
  8
COTA
100
AcDbBlockReference
  2
_CLOSEDFILLED
 10
2502.904337103448
 20
-22.0
 30
0.0
 41
3.5
 42
3.5
  0
LINE
  5
251
330
248
100
AcDbEntity
  8
0
100
AcDbLine
 10
2351.8478160344825
 20
-22.0
 30
0.0
 11
2499.404337103448
 21
-22.0
 31
0.0
  0
MTEXT
  5
252
330
248
100
AcDbEntity
  8
COTA
100
AcDbMText
 10
2425.6260765689653
 20
-16.0
 30
0.0
 40
10.0
 71
5
  1
154.6
  0
POINT
  5
253
330
248
100
AcDbEntity
  8
Defpoints
100
AcDbPoint
 10
2348.3478160344825
 20
-22.0
 30
0.0
  0
POINT
  5
254
330
248
100
AcDbEntity
  8
Defpoints
100
AcDbPoint
 10
2348.3478160344825
 20
-7.0
 30
0.0
  0
POINT
  5
255
330
248
100
AcDbEntity
  8
Defpoints
100
AcDbPoint
 10
2502.904337103448
 20
-7.0
 30
0.0
  0
ENDBLK
  5
24A
330
248
100
AcDbEntity
  8
0
100
AcDbBlockEnd
  0
BLOCK
  5
258
330
257
100
AcDbEntity
  8
0
100
AcDbBlockBegin
  2
*D18
 70
1
 10
0.0
 20
0.0
 30
0.0
  3
*D18
  1

  0
LINE
  5
25A
330
257
100
AcDbEntity
  8
0
100
AcDbLine
 10
2502.904337103448
 20
-8.5
 30
0.0
 11
2502.904337103448
 21
-25.0
 31
0.0
  0
LINE
  5
25B
330
257
100
AcDbEntity
  8
0
100
AcDbLine
 10
2657.4608581724137
 20
-8.5
 30
0.0
 11
2657.4608581724137
 21
-25.0
 31
0.0
  0
INSERT
  5
25C
330
257
100
AcDbEntity
  8
COTA
100
AcDbBlockReference
  2
_CLOSEDFILLED
 10
2502.904337103448
 20
-22.0
 30
0.0
 41
3.5
 42
3.5
 50
180.0
  0
INSERT
  5
25E
330
257
100
AcDbEntity
  8
COTA
100
AcDbBlockReference
  2
_CLOSEDFILLED
 10
2657.4608581724137
 20
-22.0
 30
0.0
 41
3.5
 42
3.5
  0
LINE
  5
260
330
257
100
AcDbEntity
  8
0
100
AcDbLine
 10
2506.404337103448
 20
-22.0
 30
0.0
 11
2653.9608581724137
 21
-22.0
 31
0.0
  0
MTEXT
  5
261
330
257
100
AcDbEntity
  8
COTA
100
AcDbMText
 10
2580.182597637931
 20
-16.0
 30
0.0
 40
10.0
 71
5
  1
154.6
  0
POINT
  5
262
330
257
100
AcDbEntity
  8
Defpoints
100
AcDbPoint
 10
2502.904337103448
 20
-22.0
 30
0.0
  0
POINT
  5
263
330
257
100
AcDbEntity
  8
Defpoints
100
AcDbPoint
 10
2502.904337103448
 20
-7.0
 30
0.0
  0
POINT
  5
264
330
257
100
AcDbEntity
  8
Defpoints
100
AcDbPoint
 10
2657.4608581724137
 20
-7.0
 30
0.0
  0
ENDBLK
  5
259
330
257
100
AcDbEntity
  8
0
100
AcDbBlockEnd
  0
BLOCK
  5
267
330
266
100
AcDbEntity
  8
0
100
AcDbBlockBegin
  2
*D19
 70
1
 10
0.0
 20
0.0
 30
0.0
  3
*D19
  1

  0
LINE
  5
269
330
266
100
AcDbEntity
  8
0
100
AcDbLine
 10
2657.4608581724137
 20
-8.5
 30
0.0
 11
2657.4608581724137
 21
-25.0
 31
0.0
  0
LINE
  5
26A
330
266
100
AcDbEntity
  8
0
100
AcDbLine
 10
2812.0173792413793
 20
-8.5
 30
0.0
 11
2812.0173792413793
 21
-25.0
 31
0.0
  0
INSERT
  5
26B
330
266
100
AcDbEntity
  8
COTA
100
AcDbBlockReference
  2
_CLOSEDFILLED
 10
2657.4608581724137
 20
-22.0
 30
0.0
 41
3.5
 42
3.5
 50
180.0
  0
INSERT
  5
26D
330
266
100
AcDbEntity
  8
COTA
100
AcDbBlockReference
  2
_CLOSEDFILLED
 10
2812.0173792413793
 20
-22.0
 30
0.0
 41
3.5
 42
3.5
  0
LINE
  5
26F
330
266
100
AcDbEntity
  8
0
100
AcDbLine
 10
2660.9608581724137
 20
-22.0
 30
0.0
 11
2808.5173792413793
 21
-22.0
 31
0.0
  0
MTEXT
  5
270
330
266
100
AcDbEntity
  8
COTA
100
AcDbMText
 10
2734.7391187068965
 20
-16.0
 30
0.0
 40
10.0
 71
5
  1
154.6
  0
POINT
  5
271
330
266
100
AcDbEntity
  8
Defpoints
100
AcDbPoint
 10
2657.4608581724137
 20
-22.0
 30
0.0
  0
POINT
  5
272
330
266
100
AcDbEntity
  8
Defpoints
100
AcDbPoint
 10
2657.4608581724137
 20
-7.0
 30
0.0
  0
POINT
  5
273
330
266
100
AcDbEntity
  8
Defpoints
100
AcDbPoint
 10
2812.0173792413793
 20
-7.0
 30
0.0
  0
ENDBLK
  5
268
330
266
100
AcDbEntity
  8
0
100
AcDbBlockEnd
  0
BLOCK
  5
276
330
275
100
AcDbEntity
  8
0
100
AcDbBlockBegin
  2
*D20
 70
1
 10
0.0
 20
0.0
 30
0.0
  3
*D20
  1

  0
LINE
  5
278
330
275
100
AcDbEntity
  8
0
100
AcDbLine
 10
2812.0173792413793
 20
-8.5
 30
0.0
 11
2812.0173792413793
 21
-25.0
 31
0.0
  0
LINE
  5
279
330
275
100
AcDbEntity
  8
0
100
AcDbLine
 10
2966.5739003103445
 20
-8.5
 30
0.0
 11
2966.5739003103445
 21
-25.0
 31
0.0
  0
INSERT
  5
27A
330
275
100
AcDbEntity
  8
COTA
100
AcDbBlockReference
  2
_CLOSEDFILLED
 10
2812.0173792413793
 20
-22.0
 30
0.0
 41
3.5
 42
3.5
 50
180.0
  0
INSERT
  5
27C
330
275
100
AcDbEntity
  8
COTA
100
AcDbBlockReference
  2
_CLOSEDFILLED
 10
2966.5739003103445
 20
-22.0
 30
0.0
 41
3.5
 42
3.5
  0
LINE
  5
27E
330
275
100
AcDbEntity
  8
0
100
AcDbLine
 10
2815.5173792413793
 20
-22.0
 30
0.0
 11
2963.0739003103445
 21
-22.0
 31
0.0
  0
MTEXT
  5
27F
330
275
100
AcDbEntity
  8
COTA
100
AcDbMText
 10
2889.2956397758617
 20
-16.0
 30
0.0
 40
10.0
 71
5
  1
154.6
  0
POINT
  5
280
330
275
100
AcDbEntity
  8
Defpoints
100
AcDbPoint
 10
2812.0173792413793
 20
-22.0
 30
0.0
  0
POINT
  5
281
330
275
100
AcDbEntity
  8
Defpoints
100
AcDbPoint
 10
2812.0173792413793
 20
-7.0
 30
0.0
  0
POINT
  5
282
330
275
100
AcDbEntity
  8
Defpoints
100
AcDbPoint
 10
2966.5739003103445
 20
-7.0
 30
0.0
  0
ENDBLK
  5
277
330
275
100
AcDbEntity
  8
0
100
AcDbBlockEnd
  0
BLOCK
  5
285
330
284
100
AcDbEntity
  8
0
100
AcDbBlockBegin
  2
*D21
 70
1
 10
0.0
 20
0.0
 30
0.0
  3
*D21
  1

  0
LINE
  5
287
330
284
100
AcDbEntity
  8
0
100
AcDbLine
 10
2966.5739003103445
 20
-8.5
 30
0.0
 11
2966.5739003103445
 21
-25.0
 31
0.0
  0
LINE
  5
288
330
284
100
AcDbEntity
  8
0
100
AcDbLine
 10
3121.13042137931
 20
-8.5
 30
0.0
 11
3121.13042137931
 21
-25.0
 31
0.0
  0
INSERT
  5
289
330
284
100
AcDbEntity
  8
COTA
100
AcDbBlockReference
  2
_CLOSEDFILLED
 10
2966.5739003103445
 20
-22.0
 30
0.0
 41
3.5
 42
3.5
 50
180.0
  0
INSERT
  5
28B
330
284
100
AcDbEntity
  8
COTA
100
AcDbBlockReference
  2
_CLOSEDFILLED
 10
3121.13042137931
 20
-22.0
 30
0.0
 41
3.5
 42
3.5
  0
LINE
  5
28D
330
284
100
AcDbEntity
  8
0
100
AcDbLine
 10
2970.0739003103445
 20
-22.0
 30
0.0
 11
3117.63042137931
 21
-22.0
 31
0.0
  0
MTEXT
  5
28E
330
284
100
AcDbEntity
  8
COTA
100
AcDbMText
 10
3043.8521608448273
 20
-16.0
 30
0.0
 40
10.0
 71
5
  1
154.6
  0
POINT
  5
28F
330
284
100
AcDbEntity
  8
Defpoints
100
AcDbPoint
 10
2966.5739003103445
 20
-22.0
 30
0.0
  0
POINT
  5
290
330
284
100
AcDbEntity
  8
Defpoints
100
AcDbPoint
 10
2966.5739003103445
 20
-7.0
 30
0.0
  0
POINT
  5
291
330
284
100
AcDbEntity
  8
Defpoints
100
AcDbPoint
 10
3121.13042137931
 20
-7.0
 30
0.0
  0
ENDBLK
  5
286
330
284
100
AcDbEntity
  8
0
100
AcDbBlockEnd
  0
BLOCK
  5
294
330
293
100
AcDbEntity
  8
0
100
AcDbBlockBegin
  2
*D22
 70
1
 10
0.0
 20
0.0
 30
0.0
  3
*D22
  1

  0
LINE
  5
296
330
293
100
AcDbEntity
  8
0
100
AcDbLine
 10
3121.13042137931
 20
-8.5
 30
0.0
 11
3121.13042137931
 21
-25.0
 31
0.0
  0
LINE
  5
297
330
293
100
AcDbEntity
  8
0
100
AcDbLine
 10
3275.6869424482757
 20
-8.5
 30
0.0
 11
3275.6869424482757
 21
-25.0
 31
0.0
  0
INSERT
  5
298
330
293
100
AcDbEntity
  8
COTA
100
AcDbBlockReference
  2
_CLOSEDFILLED
 10
3121.13042137931
 20
-22.0
 30
0.0
 41
3.5
 42
3.5
 50
180.0
  0
INSERT
  5
29A
330
293
100
AcDbEntity
  8
COTA
100
AcDbBlockReference
  2
_CLOSEDFILLED
 10
3275.6869424482757
 20
-22.0
 30
0.0
 41
3.5
 42
3.5
  0
LINE
  5
29C
330
293
100
AcDbEntity
  8
0
100
AcDbLine
 10
3124.63042137931
 20
-22.0
 30
0.0
 11
3272.1869424482757
 21
-22.0
 31
0.0
  0
MTEXT
  5
29D
330
293
100
AcDbEntity
  8
COTA
100
AcDbMText
 10
3198.408681913793
 20
-16.0
 30
0.0
 40
10.0
 71
5
  1
154.6
  0
POINT
  5
29E
330
293
100
AcDbEntity
  8
Defpoints
100
AcDbPoint
 10
3121.13042137931
 20
-22.0
 30
0.0
  0
POINT
  5
29F
330
293
100
AcDbEntity
  8
Defpoints
100
AcDbPoint
 10
3121.13042137931
 20
-7.0
 30
0.0
  0
POINT
  5
2A0
330
293
100
AcDbEntity
  8
Defpoints
100
AcDbPoint
 10
3275.6869424482757
 20
-7.0
 30
0.0
  0
ENDBLK
  5
295
330
293
100
AcDbEntity
  8
0
100
AcDbBlockEnd
  0
BLOCK
  5
2A3
330
2A2
100
AcDbEntity
  8
0
100
AcDbBlockBegin
  2
*D23
 70
1
 10
0.0
 20
0.0
 30
0.0
  3
*D23
  1

  0
LINE
  5
2A5
330
2A2
100
AcDbEntity
  8
0
100
AcDbLine
 10
3275.6869424482757
 20
-8.5
 30
0.0
 11
3275.6869424482757
 21
-25.0
 31
0.0
  0
LINE
  5
2A6
330
2A2
100
AcDbEntity
  8
0
100
AcDbLine
 10
3430.2434635172413
 20
-8.5
 30
0.0
 11
3430.2434635172413
 21
-25.0
 31
0.0
  0
INSERT
  5
2A7
330
2A2
100
AcDbEntity
  8
COTA
100
AcDbBlockReference
  2
_CLOSEDFILLED
 10
3275.6869424482757
 20
-22.0
 30
0.0
 41
3.5
 42
3.5
 50
180.0
  0
INSERT
  5
2A9
330
2A2
100
AcDbEntity
  8
COTA
100
AcDbBlockReference
  2
_CLOSEDFILLED
 10
3430.2434635172413
 20
-22.0
 30
0.0
 41
3.5
 42
3.5
  0
LINE
  5
2AB
330
2A2
100
AcDbEntity
  8
0
100
AcDbLine
 10
3279.1869424482757
 20
-22.0
 30
0.0
 11
3426.7434635172413
 21
-22.0
 31
0.0
  0
MTEXT
  5
2AC
330
2A2
100
AcDbEntity
  8
COTA
100
AcDbMText
 10
3352.9652029827585
 20
-16.0
 30
0.0
 40
10.0
 71
5
  1
154.6
  0
POINT
  5
2AD
330
2A2
100
AcDbEntity
  8
Defpoints
100
AcDbPoint
 10
3275.6869424482757
 20
-22.0
 30
0.0
  0
POINT
  5
2AE
330
2A2
100
AcDbEntity
  8
Defpoints
100
AcDbPoint
 10
3275.6869424482757
 20
-7.0
 30
0.0
  0
POINT
  5
2AF
330
2A2
100
AcDbEntity
  8
Defpoints
100
AcDbPoint
 10
3430.2434635172413
 20
-7.0
 30
0.0
  0
ENDBLK
  5
2A4
330
2A2
100
AcDbEntity
  8
0
100
AcDbBlockEnd
  0
BLOCK
  5
2B2
330
2B1
100
AcDbEntity
  8
0
100
AcDbBlockBegin
  2
*D24
 70
1
 10
0.0
 20
0.0
 30
0.0
  3
*D24
  1

  0
LINE
  5
2B4
330
2B1
100
AcDbEntity
  8
0
100
AcDbLine
 10
3430.2434635172413
 20
-8.5
 30
0.0
 11
3430.2434635172413
 21
-25.0
 31
0.0
  0
LINE
  5
2B5
330
2B1
100
AcDbEntity
  8
0
100
AcDbLine
 10
3584.799984586207
 20
-8.5
 30
0.0
 11
3584.799984586207
 21
-25.0
 31
0.0
  0
INSERT
  5
2B6
330
2B1
100
AcDbEntity
  8
COTA
100
AcDbBlockReference
  2
_CLOSEDFILLED
 10
3430.2434635172413
 20
-22.0
 30
0.0
 41
3.5
 42
3.5
 50
180.0
  0
INSERT
  5
2B8
330
2B1
100
AcDbEntity
  8
COTA
100
AcDbBlockReference
  2
_CLOSEDFILLED
 10
3584.799984586207
 20
-22.0
 30
0.0
 41
3.5
 42
3.5
  0
LINE
  5
2BA
330
2B1
100
AcDbEntity
  8
0
100
AcDbLine
 10
3433.7434635172413
 20
-22.0
 30
0.0
 11
3581.299984586207
 21
-22.0
 31
0.0
  0
MTEXT
  5
2BB
330
2B1
100
AcDbEntity
  8
COTA
100
AcDbMText
 10
3507.521724051724
 20
-16.0
 30
0.0
 40
10.0
 71
5
  1
154.6
  0
POINT
  5
2BC
330
2B1
100
AcDbEntity
  8
Defpoints
100
AcDbPoint
 10
3430.2434635172413
 20
-22.0
 30
0.0
  0
POINT
  5
2BD
330
2B1
100
AcDbEntity
  8
Defpoints
100
AcDbPoint
 10
3430.2434635172413
 20
-7.0
 30
0.0
  0
POINT
  5
2BE
330
2B1
100
AcDbEntity
  8
Defpoints
100
AcDbPoint
 10
3584.799984586207
 20
-7.0
 30
0.0
  0
ENDBLK
  5
2B3
330
2B1
100
AcDbEntity
  8
0
100
AcDbBlockEnd
  0
BLOCK
  5
2C1
330
2C0
100
AcDbEntity
  8
0
100
AcDbBlockBegin
  2
*D25
 70
1
 10
0.0
 20
0.0
 30
0.0
  3
*D25
  1

  0
LINE
  5
2C3
330
2C0
100
AcDbEntity
  8
0
100
AcDbLine
 10
3584.799984586207
 20
-8.5
 30
0.0
 11
3584.799984586207
 21
-25.0
 31
0.0
  0
LINE
  5
2C4
330
2C0
100
AcDbEntity
  8
0
100
AcDbLine
 10
3739.3565056551724
 20
-8.5
 30
0.0
 11
3739.3565056551724
 21
-25.0
 31
0.0
  0
INSERT
  5
2C5
330
2C0
100
AcDbEntity
  8
COTA
100
AcDbBlockReference
  2
_CLOSEDFILLED
 10
3584.799984586207
 20
-22.0
 30
0.0
 41
3.5
 42
3.5
 50
180.0
  0
INSERT
  5
2C7
330
2C0
100
AcDbEntity
  8
COTA
100
AcDbBlockReference
  2
_CLOSEDFILLED
 10
3739.3565056551724
 20
-22.0
 30
0.0
 41
3.5
 42
3.5
  0
LINE
  5
2C9
330
2C0
100
AcDbEntity
  8
0
100
AcDbLine
 10
3588.299984586207
 20
-22.0
 30
0.0
 11
3735.8565056551724
 21
-22.0
 31
0.0
  0
MTEXT
  5
2CA
330
2C0
100
AcDbEntity
  8
COTA
100
AcDbMText
 10
3662.0782451206896
 20
-16.0
 30
0.0
 40
10.0
 71
5
  1
154.6
  0
POINT
  5
2CB
330
2C0
100
AcDbEntity
  8
Defpoints
100
AcDbPoint
 10
3584.799984586207
 20
-22.0
 30
0.0
  0
POINT
  5
2CC
330
2C0
100
AcDbEntity
  8
Defpoints
100
AcDbPoint
 10
3584.799984586207
 20
-7.0
 30
0.0
  0
POINT
  5
2CD
330
2C0
100
AcDbEntity
  8
Defpoints
100
AcDbPoint
 10
3739.3565056551724
 20
-7.0
 30
0.0
  0
ENDBLK
  5
2C2
330
2C0
100
AcDbEntity
  8
0
100
AcDbBlockEnd
  0
BLOCK
  5
2D0
330
2CF
100
AcDbEntity
  8
0
100
AcDbBlockBegin
  2
*D26
 70
1
 10
0.0
 20
0.0
 30
0.0
  3
*D26
  1

  0
LINE
  5
2D2
330
2CF
100
AcDbEntity
  8
0
100
AcDbLine
 10
3739.3565056551724
 20
-8.5
 30
0.0
 11
3739.3565056551724
 21
-25.0
 31
0.0
  0
LINE
  5
2D3
330
2CF
100
AcDbEntity
  8
0
100
AcDbLine
 10
3893.9130267241376
 20
-8.5
 30
0.0
 11
3893.9130267241376
 21
-25.0
 31
0.0
  0
INSERT
  5
2D4
330
2CF
100
AcDbEntity
  8
COTA
100
AcDbBlockReference
  2
_CLOSEDFILLED
 10
3739.3565056551724
 20
-22.0
 30
0.0
 41
3.5
 42
3.5
 50
180.0
  0
INSERT
  5
2D6
330
2CF
100
AcDbEntity
  8
COTA
100
AcDbBlockReference
  2
_CLOSEDFILLED
 10
3893.9130267241376
 20
-22.0
 30
0.0
 41
3.5
 42
3.5
  0
LINE
  5
2D8
330
2CF
100
AcDbEntity
  8
0
100
AcDbLine
 10
3742.8565056551724
 20
-22.0
 30
0.0
 11
3890.4130267241376
 21
-22.0
 31
0.0
  0
MTEXT
  5
2D9
330
2CF
100
AcDbEntity
  8
COTA
100
AcDbMText
 10
3816.6347661896552
 20
-16.0
 30
0.0
 40
10.0
 71
5
  1
154.6
  0
POINT
  5
2DA
330
2CF
100
AcDbEntity
  8
Defpoints
100
AcDbPoint
 10
3739.3565056551724
 20
-22.0
 30
0.0
  0
POINT
  5
2DB
330
2CF
100
AcDbEntity
  8
Defpoints
100
AcDbPoint
 10
3739.3565056551724
 20
-7.0
 30
0.0
  0
POINT
  5
2DC
330
2CF
100
AcDbEntity
  8
Defpoints
100
AcDbPoint
 10
3893.9130267241376
 20
-7.0
 30
0.0
  0
ENDBLK
  5
2D1
330
2CF
100
AcDbEntity
  8
0
100
AcDbBlockEnd
  0
BLOCK
  5
2DF
330
2DE
100
AcDbEntity
  8
0
100
AcDbBlockBegin
  2
*D27
 70
1
 10
0.0
 20
0.0
 30
0.0
  3
*D27
  1

  0
LINE
  5
2E1
330
2DE
100
AcDbEntity
  8
0
100
AcDbLine
 10
3893.9130267241376
 20
-8.5
 30
0.0
 11
3893.9130267241376
 21
-25.0
 31
0.0
  0
LINE
  5
2E2
330
2DE
100
AcDbEntity
  8
0
100
AcDbLine
 10
4048.469547793103
 20
-8.5
 30
0.0
 11
4048.469547793103
 21
-25.0
 31
0.0
  0
INSERT
  5
2E3
330
2DE
100
AcDbEntity
  8
COTA
100
AcDbBlockReference
  2
_CLOSEDFILLED
 10
3893.9130267241376
 20
-22.0
 30
0.0
 41
3.5
 42
3.5
 50
180.0
  0
INSERT
  5
2E5
330
2DE
100
AcDbEntity
  8
COTA
100
AcDbBlockReference
  2
_CLOSEDFILLED
 10
4048.469547793103
 20
-22.0
 30
0.0
 41
3.5
 42
3.5
  0
LINE
  5
2E7
330
2DE
100
AcDbEntity
  8
0
100
AcDbLine
 10
3897.4130267241376
 20
-22.0
 30
0.0
 11
4044.969547793103
 21
-22.0
 31
0.0
  0
MTEXT
  5
2E8
330
2DE
100
AcDbEntity
  8
COTA
100
AcDbMText
 10
3971.1912872586204
 20
-16.0
 30
0.0
 40
10.0
 71
5
  1
154.6
  0
POINT
  5
2E9
330
2DE
100
AcDbEntity
  8
Defpoints
100
AcDbPoint
 10
3893.9130267241376
 20
-22.0
 30
0.0
  0
POINT
  5
2EA
330
2DE
100
AcDbEntity
  8
Defpoints
100
AcDbPoint
 10
3893.9130267241376
 20
-7.0
 30
0.0
  0
POINT
  5
2EB
330
2DE
100
AcDbEntity
  8
Defpoints
100
AcDbPoint
 10
4048.469547793103
 20
-7.0
 30
0.0
  0
ENDBLK
  5
2E0
330
2DE
100
AcDbEntity
  8
0
100
AcDbBlockEnd
  0
BLOCK
  5
2EE
330
2ED
100
AcDbEntity
  8
0
100
AcDbBlockBegin
  2
*D28
 70
1
 10
0.0
 20
0.0
 30
0.0
  3
*D28
  1

  0
LINE
  5
2F0
330
2ED
100
AcDbEntity
  8
0
100
AcDbLine
 10
4048.469547793103
 20
-8.5
 30
0.0
 11
4048.469547793103
 21
-25.0
 31
0.0
  0
LINE
  5
2F1
330
2ED
100
AcDbEntity
  8
0
100
AcDbLine
 10
4203.026068862068
 20
-8.5
 30
0.0
 11
4203.026068862068
 21
-25.0
 31
0.0
  0
INSERT
  5
2F2
330
2ED
100
AcDbEntity
  8
COTA
100
AcDbBlockReference
  2
_CLOSEDFILLED
 10
4048.469547793103
 20
-22.0
 30
0.0
 41
3.5
 42
3.5
 50
180.0
  0
INSERT
  5
2F4
330
2ED
100
AcDbEntity
  8
COTA
100
AcDbBlockReference
  2
_CLOSEDFILLED
 10
4203.026068862068
 20
-22.0
 30
0.0
 41
3.5
 42
3.5
  0
LINE
  5
2F6
330
2ED
100
AcDbEntity
  8
0
100
AcDbLine
 10
4051.969547793103
 20
-22.0
 30
0.0
 11
4199.526068862068
 21
-22.0
 31
0.0
  0
MTEXT
  5
2F7
330
2ED
100
AcDbEntity
  8
COTA
100
AcDbMText
 10
4125.7478083275855
 20
-16.0
 30
0.0
 40
10.0
 71
5
  1
154.6
  0
POINT
  5
2F8
330
2ED
100
AcDbEntity
  8
Defpoints
100
AcDbPoint
 10
4048.469547793103
 20
-22.0
 30
0.0
  0
POINT
  5
2F9
330
2ED
100
AcDbEntity
  8
Defpoints
100
AcDbPoint
 10
4048.469547793103
 20
-7.0
 30
0.0
  0
POINT
  5
2FA
330
2ED
100
AcDbEntity
  8
Defpoints
100
AcDbPoint
 10
4203.026068862068
 20
-7.0
 30
0.0
  0
ENDBLK
  5
2EF
330
2ED
100
AcDbEntity
  8
0
100
AcDbBlockEnd
  0
BLOCK
  5
2FD
330
2FC
100
AcDbEntity
  8
0
100
AcDbBlockBegin
  2
*D29
 70
1
 10
0.0
 20
0.0
 30
0.0
  3
*D29
  1

  0
LINE
  5
2FF
330
2FC
100
AcDbEntity
  8
0
100
AcDbLine
 10
4203.026068862068
 20
-8.5
 30
0.0
 11
4203.026068862068
 21
-25.0
 31
0.0
  0
LINE
  5
300
330
2FC
100
AcDbEntity
  8
0
100
AcDbLine
 10
4357.582589931034
 20
-8.5
 30
0.0
 11
4357.582589931034
 21
-25.0
 31
0.0
  0
INSERT
  5
301
330
2FC
100
AcDbEntity
  8
COTA
100
AcDbBlockReference
  2
_CLOSEDFILLED
 10
4203.026068862068
 20
-22.0
 30
0.0
 41
3.5
 42
3.5
 50
180.0
  0
INSERT
  5
303
330
2FC
100
AcDbEntity
  8
COTA
100
AcDbBlockReference
  2
_CLOSEDFILLED
 10
4357.582589931034
 20
-22.0
 30
0.0
 41
3.5
 42
3.5
  0
LINE
  5
305
330
2FC
100
AcDbEntity
  8
0
100
AcDbLine
 10
4206.526068862068
 20
-22.0
 30
0.0
 11
4354.082589931034
 21
-22.0
 31
0.0
  0
MTEXT
  5
306
330
2FC
100
AcDbEntity
  8
COTA
100
AcDbMText
 10
4280.304329396551
 20
-16.0
 30
0.0
 40
10.0
 71
5
  1
154.6
  0
POINT
  5
307
330
2FC
100
AcDbEntity
  8
Defpoints
100
AcDbPoint
 10
4203.026068862068
 20
-22.0
 30
0.0
  0
POINT
  5
308
330
2FC
100
AcDbEntity
  8
Defpoints
100
AcDbPoint
 10
4203.026068862068
 20
-7.0
 30
0.0
  0
POINT
  5
309
330
2FC
100
AcDbEntity
  8
Defpoints
100
AcDbPoint
 10
4357.582589931034
 20
-7.0
 30
0.0
  0
ENDBLK
  5
2FE
330
2FC
100
AcDbEntity
  8
0
100
AcDbBlockEnd
  0
BLOCK
  5
30C
330
30B
100
AcDbEntity
  8
0
100
AcDbBlockBegin
  2
*D30
 70
1
 10
0.0
 20
0.0
 30
0.0
  3
*D30
  1

  0
LINE
  5
30E
330
30B
100
AcDbEntity
  8
0
100
AcDbLine
 10
4357.582589931034
 20
-8.5
 30
0.0
 11
4357.582589931034
 21
-25.0
 31
0.0
  0
LINE
  5
30F
330
30B
100
AcDbEntity
  8
0
100
AcDbLine
 10
4512.1391109999995
 20
-8.5
 30
0.0
 11
4512.1391109999995
 21
-25.0
 31
0.0
  0
INSERT
  5
310
330
30B
100
AcDbEntity
  8
COTA
100
AcDbBlockReference
  2
_CLOSEDFILLED
 10
4357.582589931034
 20
-22.0
 30
0.0
 41
3.5
 42
3.5
 50
180.0
  0
INSERT
  5
312
330
30B
100
AcDbEntity
  8
COTA
100
AcDbBlockReference
  2
_CLOSEDFILLED
 10
4512.1391109999995
 20
-22.0
 30
0.0
 41
3.5
 42
3.5
  0
LINE
  5
314
330
30B
100
AcDbEntity
  8
0
100
AcDbLine
 10
4361.082589931034
 20
-22.0
 30
0.0
 11
4508.6391109999995
 21
-22.0
 31
0.0
  0
MTEXT
  5
315
330
30B
100
AcDbEntity
  8
COTA
100
AcDbMText
 10
4434.860850465517
 20
-16.0
 30
0.0
 40
10.0
 71
5
  1
154.6
  0
POINT
  5
316
330
30B
100
AcDbEntity
  8
Defpoints
100
AcDbPoint
 10
4357.582589931034
 20
-22.0
 30
0.0
  0
POINT
  5
317
330
30B
100
AcDbEntity
  8
Defpoints
100
AcDbPoint
 10
4357.582589931034
 20
-7.0
 30
0.0
  0
POINT
  5
318
330
30B
100
AcDbEntity
  8
Defpoints
100
AcDbPoint
 10
4512.1391109999995
 20
-7.0
 30
0.0
  0
ENDBLK
  5
30D
330
30B
100
AcDbEntity
  8
0
100
AcDbBlockEnd
  0
ENDSEC
  0
SECTION
  2
ENTITIES
  0
LWPOLYLINE
  5
43
330
17
100
AcDbEntity
  8
VIGAS
100
AcDbPolyline
 90
5
 70
0
 10
0.0
 20
179.0
 10
4542.1391109999995
 20
179.0
 10
4542.1391109999995
 20
268.0
 10
0.0
 20
268.0
 10
0.0
 20
179.0
  0
TEXT
  5
44
330
17
100
AcDbEntity
  8
NOME DA VIGA
100
AcDbText
 10
2271.0695554999998
 20
223.5
 30
0.0
 40
5.0
  1
V363 (19/89)
 72
1
100
AcDbText
  0
LWPOLYLINE
  5
45
330
17
100
AcDbEntity
  8
GARFOS OK
100
AcDbPolyline
 90
5
 70
0
 10
26.5
 20
0.0
 10
33.5
 20
0.0
 10
33.5
 20
179.0
 10
26.5
 20
179.0
 10
26.5
 20
0.0
  0
HATCH
  5
46
330
17
100
AcDbEntity
  8
COTA
 62
7
100
AcDbHatch
 10
0.0
 20
0.0
 30
0.0
210
0.0
220
0.0
230
1.0
  2
ANSI31
 70
0
 71
0
 91
1
 92
3
 72
0
 73
1
 93
4
 10
26.5
 20
0.0
 10
33.5
 20
0.0
 10
33.5
 20
179.0
 10
26.5
 20
179.0
 97
0
 75
1
 76
1
 52
0.0
 41
0.5
 77
0
 78
1
 53
45.0
 43
0.0
 44
0.0
 45
-1.1225320152
 46
1.1225320152
 79
0
 98
0
  0
LINE
  5
47
330
17
100
AcDbEntity
  8
GARFOS OK
100
AcDbLine
 10
30.0
 20
172.0
 30
0.0
 11
20.5
 21
179.0
 31
0.0
  0
LINE
  5
48
330
17
100
AcDbEntity
  8
GARFOS OK
100
AcDbLine
 10
30.0
 20
172.0
 30
0.0
 11
39.5
 21
179.0
 31
0.0
  0
LINE
  5
49
330
17
100
AcDbEntity
  8
GARFOS OK
100
AcDbLine
 10
20.5
 20
179.0
 30
0.0
 11
39.5
 21
179.0
 31
0.0
  0
LWPOLYLINE
  5
4A
330
17
100
AcDbEntity
  8
SARR_7x7
100
AcDbPolyline
 90
5
 70
0
 10
26.5
 20
-7.0
 10
33.5
 20
-7.0
 10
33.5
 20
0.0
 10
26.5
 20
0.0
 10
26.5
 20
-7.0
  0
LINE
  5
4B
330
17
100
AcDbEntity
  8
BARRA_ANCORAGEM
100
AcDbLine
 10
30.0
 20
71.60000000000001
 30
0.0
 11
56.849999999999994
 21
125.30000000000001
 31
0.0
  0
TEXT
  5
4C
330
17
100
AcDbEntity
  8
NOME DA VIGA
100
AcDbText
 10
30.0
 20
-12.0
 30
0.0
 40
3.0
  1
GF1
100
AcDbText
  0
LWPOLYLINE
  5
4D
330
17
100
AcDbEntity
  8
GARFOS OK
100
AcDbPolyline
 90
5
 70
0
 10
181.0565210689655
 20
0.0
 10
188.0565210689655
 20
0.0
 10
188.0565210689655
 20
179.0
 10
181.0565210689655
 20
179.0
 10
181.0565210689655
 20
0.0
  0
HATCH
  5
4E
330
17
100
AcDbEntity
  8
COTA
 62
7
100
AcDbHatch
 10
0.0
 20
0.0
 30
0.0
210
0.0
220
0.0
230
1.0
  2
ANSI31
 70
0
 71
0
 91
1
 92
3
 72
0
 73
1
 93
4
 10
181.0565210689655
 20
0.0
 10
188.0565210689655
 20
0.0
 10
188.0565210689655
 20
179.0
 10
181.0565210689655
 20
179.0
 97
0
 75
1
 76
1
 52
0.0
 41
0.5
 77
0
 78
1
 53
45.0
 43
0.0
 44
0.0
 45
-1.1225320152
 46
1.1225320152
 79
0
 98
0
  0
LINE
  5
4F
330
17
100
AcDbEntity
  8
GARFOS OK
100
AcDbLine
 10
184.5565210689655
 20
172.0
 30
0.0
 11
175.0565210689655
 21
179.0
 31
0.0
  0
LINE
  5
50
330
17
100
AcDbEntity
  8
GARFOS OK
100
AcDbLine
 10
184.5565210689655
 20
172.0
 30
0.0
 11
194.0565210689655
 21
179.0
 31
0.0
  0
LINE
  5
51
330
17
100
AcDbEntity
  8
GARFOS OK
100
AcDbLine
 10
175.0565210689655
 20
179.0
 30
0.0
 11
194.0565210689655
 21
179.0
 31
0.0
  0
LWPOLYLINE
  5
52
330
17
100
AcDbEntity
  8
SARR_7x7
100
AcDbPolyline
 90
5
 70
0
 10
181.0565210689655
 20
-7.0
 10
188.0565210689655
 20
-7.0
 10
188.0565210689655
 20
0.0
 10
181.0565210689655
 20
0.0
 10
181.0565210689655
 20
-7.0
  0
LINE
  5
53
330
17
100
AcDbEntity
  8
BARRA_ANCORAGEM
100
AcDbLine
 10
184.5565210689655
 20
71.60000000000001
 30
0.0
 11
211.4065210689655
 21
125.30000000000001
 31
0.0
  0
TEXT
  5
54
330
17
100
AcDbEntity
  8
NOME DA VIGA
100
AcDbText
 10
184.5565210689655
 20
-12.0
 30
0.0
 40
3.0
  1
GF2
100
AcDbText
  0
LWPOLYLINE
  5
55
330
17
100
AcDbEntity
  8
GARFOS OK
100
AcDbPolyline
 90
5
 70
0
 10
335.613042137931
 20
0.0
 10
342.613042137931
 20
0.0
 10
342.613042137931
 20
179.0
 10
335.613042137931
 20
179.0
 10
335.613042137931
 20
0.0
  0
HATCH
  5
56
330
17
100
AcDbEntity
  8
COTA
 62
7
100
AcDbHatch
 10
0.0
 20
0.0
 30
0.0
210
0.0
220
0.0
230
1.0
  2
ANSI31
 70
0
 71
0
 91
1
 92
3
 72
0
 73
1
 93
4
 10
335.613042137931
 20
0.0
 10
342.613042137931
 20
0.0
 10
342.613042137931
 20
179.0
 10
335.613042137931
 20
179.0
 97
0
 75
1
 76
1
 52
0.0
 41
0.5
 77
0
 78
1
 53
45.0
 43
0.0
 44
0.0
 45
-1.1225320152
 46
1.1225320152
 79
0
 98
0
  0
LINE
  5
57
330
17
100
AcDbEntity
  8
GARFOS OK
100
AcDbLine
 10
339.113042137931
 20
172.0
 30
0.0
 11
329.613042137931
 21
179.0
 31
0.0
  0
LINE
  5
58
330
17
100
AcDbEntity
  8
GARFOS OK
100
AcDbLine
 10
339.113042137931
 20
172.0
 30
0.0
 11
348.613042137931
 21
179.0
 31
0.0
  0
LINE
  5
59
330
17
100
AcDbEntity
  8
GARFOS OK
100
AcDbLine
 10
329.613042137931
 20
179.0
 30
0.0
 11
348.613042137931
 21
179.0
 31
0.0
  0
LWPOLYLINE
  5
5A
330
17
100
AcDbEntity
  8
SARR_7x7
100
AcDbPolyline
 90
5
 70
0
 10
335.613042137931
 20
-7.0
 10
342.613042137931
 20
-7.0
 10
342.613042137931
 20
0.0
 10
335.613042137931
 20
0.0
 10
335.613042137931
 20
-7.0
  0
LINE
  5
5B
330
17
100
AcDbEntity
  8
BARRA_ANCORAGEM
100
AcDbLine
 10
339.113042137931
 20
71.60000000000001
 30
0.0
 11
365.96304213793104
 21
125.30000000000001
 31
0.0
  0
TEXT
  5
5C
330
17
100
AcDbEntity
  8
NOME DA VIGA
100
AcDbText
 10
339.113042137931
 20
-12.0
 30
0.0
 40
3.0
  1
GF3
100
AcDbText
  0
LWPOLYLINE
  5
5D
330
17
100
AcDbEntity
  8
GARFOS OK
100
AcDbPolyline
 90
5
 70
0
 10
490.16956320689656
 20
0.0
 10
497.16956320689656
 20
0.0
 10
497.16956320689656
 20
179.0
 10
490.16956320689656
 20
179.0
 10
490.16956320689656
 20
0.0
  0
HATCH
  5
5E
330
17
100
AcDbEntity
  8
COTA
 62
7
100
AcDbHatch
 10
0.0
 20
0.0
 30
0.0
210
0.0
220
0.0
230
1.0
  2
ANSI31
 70
0
 71
0
 91
1
 92
3
 72
0
 73
1
 93
4
 10
490.16956320689656
 20
0.0
 10
497.16956320689656
 20
0.0
 10
497.16956320689656
 20
179.0
 10
490.16956320689656
 20
179.0
 97
0
 75
1
 76
1
 52
0.0
 41
0.5
 77
0
 78
1
 53
45.0
 43
0.0
 44
0.0
 45
-1.1225320152
 46
1.1225320152
 79
0
 98
0
  0
LINE
  5
5F
330
17
100
AcDbEntity
  8
GARFOS OK
100
AcDbLine
 10
493.66956320689656
 20
172.0
 30
0.0
 11
484.16956320689656
 21
179.0
 31
0.0
  0
LINE
  5
60
330
17
100
AcDbEntity
  8
GARFOS OK
100
AcDbLine
 10
493.66956320689656
 20
172.0
 30
0.0
 11
503.16956320689656
 21
179.0
 31
0.0
  0
LINE
  5
61
330
17
100
AcDbEntity
  8
GARFOS OK
100
AcDbLine
 10
484.16956320689656
 20
179.0
 30
0.0
 11
503.16956320689656
 21
179.0
 31
0.0
  0
LWPOLYLINE
  5
62
330
17
100
AcDbEntity
  8
SARR_7x7
100
AcDbPolyline
 90
5
 70
0
 10
490.16956320689656
 20
-7.0
 10
497.16956320689656
 20
-7.0
 10
497.16956320689656
 20
0.0
 10
490.16956320689656
 20
0.0
 10
490.16956320689656
 20
-7.0
  0
LINE
  5
63
330
17
100
AcDbEntity
  8
BARRA_ANCORAGEM
100
AcDbLine
 10
493.66956320689656
 20
71.60000000000001
 30
0.0
 11
520.5195632068966
 21
125.30000000000001
 31
0.0
  0
TEXT
  5
64
330
17
100
AcDbEntity
  8
NOME DA VIGA
100
AcDbText
 10
493.66956320689656
 20
-12.0
 30
0.0
 40
3.0
  1
GF4
100
AcDbText
  0
LWPOLYLINE
  5
65
330
17
100
AcDbEntity
  8
GARFOS OK
100
AcDbPolyline
 90
5
 70
0
 10
644.726084275862
 20
0.0
 10
651.726084275862
 20
0.0
 10
651.726084275862
 20
179.0
 10
644.726084275862
 20
179.0
 10
644.726084275862
 20
0.0
  0
HATCH
  5
66
330
17
100
AcDbEntity
  8
COTA
 62
7
100
AcDbHatch
 10
0.0
 20
0.0
 30
0.0
210
0.0
220
0.0
230
1.0
  2
ANSI31
 70
0
 71
0
 91
1
 92
3
 72
0
 73
1
 93
4
 10
644.726084275862
 20
0.0
 10
651.726084275862
 20
0.0
 10
651.726084275862
 20
179.0
 10
644.726084275862
 20
179.0
 97
0
 75
1
 76
1
 52
0.0
 41
0.5
 77
0
 78
1
 53
45.0
 43
0.0
 44
0.0
 45
-1.1225320152
 46
1.1225320152
 79
0
 98
0
  0
LINE
  5
67
330
17
100
AcDbEntity
  8
GARFOS OK
100
AcDbLine
 10
648.226084275862
 20
172.0
 30
0.0
 11
638.726084275862
 21
179.0
 31
0.0
  0
LINE
  5
68
330
17
100
AcDbEntity
  8
GARFOS OK
100
AcDbLine
 10
648.226084275862
 20
172.0
 30
0.0
 11
657.726084275862
 21
179.0
 31
0.0
  0
LINE
  5
69
330
17
100
AcDbEntity
  8
GARFOS OK
100
AcDbLine
 10
638.726084275862
 20
179.0
 30
0.0
 11
657.726084275862
 21
179.0
 31
0.0
  0
LWPOLYLINE
  5
6A
330
17
100
AcDbEntity
  8
SARR_7x7
100
AcDbPolyline
 90
5
 70
0
 10
644.726084275862
 20
-7.0
 10
651.726084275862
 20
-7.0
 10
651.726084275862
 20
0.0
 10
644.726084275862
 20
0.0
 10
644.726084275862
 20
-7.0
  0
LINE
  5
6B
330
17
100
AcDbEntity
  8
BARRA_ANCORAGEM
100
AcDbLine
 10
648.226084275862
 20
71.60000000000001
 30
0.0
 11
675.0760842758621
 21
125.30000000000001
 31
0.0
  0
TEXT
  5
6C
330
17
100
AcDbEntity
  8
NOME DA VIGA
100
AcDbText
 10
648.226084275862
 20
-12.0
 30
0.0
 40
3.0
  1
GF5
100
AcDbText
  0
LWPOLYLINE
  5
6D
330
17
100
AcDbEntity
  8
GARFOS OK
100
AcDbPolyline
 90
5
 70
0
 10
799.2826053448275
 20
0.0
 10
806.2826053448275
 20
0.0
 10
806.2826053448275
 20
179.0
 10
799.2826053448275
 20
179.0
 10
799.2826053448275
 20
0.0
  0
HATCH
  5
6E
330
17
100
AcDbEntity
  8
COTA
 62
7
100
AcDbHatch
 10
0.0
 20
0.0
 30
0.0
210
0.0
220
0.0
230
1.0
  2
ANSI31
 70
0
 71
0
 91
1
 92
3
 72
0
 73
1
 93
4
 10
799.2826053448275
 20
0.0
 10
806.2826053448275
 20
0.0
 10
806.2826053448275
 20
179.0
 10
799.2826053448275
 20
179.0
 97
0
 75
1
 76
1
 52
0.0
 41
0.5
 77
0
 78
1
 53
45.0
 43
0.0
 44
0.0
 45
-1.1225320152
 46
1.1225320152
 79
0
 98
0
  0
LINE
  5
6F
330
17
100
AcDbEntity
  8
GARFOS OK
100
AcDbLine
 10
802.7826053448275
 20
172.0
 30
0.0
 11
793.2826053448275
 21
179.0
 31
0.0
  0
LINE
  5
70
330
17
100
AcDbEntity
  8
GARFOS OK
100
AcDbLine
 10
802.7826053448275
 20
172.0
 30
0.0
 11
812.2826053448275
 21
179.0
 31
0.0
  0
LINE
  5
71
330
17
100
AcDbEntity
  8
GARFOS OK
100
AcDbLine
 10
793.2826053448275
 20
179.0
 30
0.0
 11
812.2826053448275
 21
179.0
 31
0.0
  0
LWPOLYLINE
  5
72
330
17
100
AcDbEntity
  8
SARR_7x7
100
AcDbPolyline
 90
5
 70
0
 10
799.2826053448275
 20
-7.0
 10
806.2826053448275
 20
-7.0
 10
806.2826053448275
 20
0.0
 10
799.2826053448275
 20
0.0
 10
799.2826053448275
 20
-7.0
  0
LINE
  5
73
330
17
100
AcDbEntity
  8
BARRA_ANCORAGEM
100
AcDbLine
 10
802.7826053448275
 20
71.60000000000001
 30
0.0
 11
829.6326053448275
 21
125.30000000000001
 31
0.0
  0
TEXT
  5
74
330
17
100
AcDbEntity
  8
NOME DA VIGA
100
AcDbText
 10
802.7826053448275
 20
-12.0
 30
0.0
 40
3.0
  1
GF6
100
AcDbText
  0
LWPOLYLINE
  5
75
330
17
100
AcDbEntity
  8
GARFOS OK
100
AcDbPolyline
 90
5
 70
0
 10
953.8391264137931
 20
0.0
 10
960.8391264137931
 20
0.0
 10
960.8391264137931
 20
179.0
 10
953.8391264137931
 20
179.0
 10
953.8391264137931
 20
0.0
  0
HATCH
  5
76
330
17
100
AcDbEntity
  8
COTA
 62
7
100
AcDbHatch
 10
0.0
 20
0.0
 30
0.0
210
0.0
220
0.0
230
1.0
  2
ANSI31
 70
0
 71
0
 91
1
 92
3
 72
0
 73
1
 93
4
 10
953.8391264137931
 20
0.0
 10
960.8391264137931
 20
0.0
 10
960.8391264137931
 20
179.0
 10
953.8391264137931
 20
179.0
 97
0
 75
1
 76
1
 52
0.0
 41
0.5
 77
0
 78
1
 53
45.0
 43
0.0
 44
0.0
 45
-1.1225320152
 46
1.1225320152
 79
0
 98
0
  0
LINE
  5
77
330
17
100
AcDbEntity
  8
GARFOS OK
100
AcDbLine
 10
957.3391264137931
 20
172.0
 30
0.0
 11
947.8391264137931
 21
179.0
 31
0.0
  0
LINE
  5
78
330
17
100
AcDbEntity
  8
GARFOS OK
100
AcDbLine
 10
957.3391264137931
 20
172.0
 30
0.0
 11
966.8391264137931
 21
179.0
 31
0.0
  0
LINE
  5
79
330
17
100
AcDbEntity
  8
GARFOS OK
100
AcDbLine
 10
947.8391264137931
 20
179.0
 30
0.0
 11
966.8391264137931
 21
179.0
 31
0.0
  0
LWPOLYLINE
  5
7A
330
17
100
AcDbEntity
  8
SARR_7x7
100
AcDbPolyline
 90
5
 70
0
 10
953.8391264137931
 20
-7.0
 10
960.8391264137931
 20
-7.0
 10
960.8391264137931
 20
0.0
 10
953.8391264137931
 20
0.0
 10
953.8391264137931
 20
-7.0
  0
LINE
  5
7B
330
17
100
AcDbEntity
  8
BARRA_ANCORAGEM
100
AcDbLine
 10
957.3391264137931
 20
71.60000000000001
 30
0.0
 11
984.1891264137931
 21
125.30000000000001
 31
0.0
  0
TEXT
  5
7C
330
17
100
AcDbEntity
  8
NOME DA VIGA
100
AcDbText
 10
957.3391264137931
 20
-12.0
 30
0.0
 40
3.0
  1
GF7
100
AcDbText
  0
LWPOLYLINE
  5
7D
330
17
100
AcDbEntity
  8
GARFOS OK
100
AcDbPolyline
 90
5
 70
0
 10
1108.3956474827585
 20
0.0
 10
1115.3956474827585
 20
0.0
 10
1115.3956474827585
 20
179.0
 10
1108.3956474827585
 20
179.0
 10
1108.3956474827585
 20
0.0
  0
HATCH
  5
7E
330
17
100
AcDbEntity
  8
COTA
 62
7
100
AcDbHatch
 10
0.0
 20
0.0
 30
0.0
210
0.0
220
0.0
230
1.0
  2
ANSI31
 70
0
 71
0
 91
1
 92
3
 72
0
 73
1
 93
4
 10
1108.3956474827585
 20
0.0
 10
1115.3956474827585
 20
0.0
 10
1115.3956474827585
 20
179.0
 10
1108.3956474827585
 20
179.0
 97
0
 75
1
 76
1
 52
0.0
 41
0.5
 77
0
 78
1
 53
45.0
 43
0.0
 44
0.0
 45
-1.1225320152
 46
1.1225320152
 79
0
 98
0
  0
LINE
  5
7F
330
17
100
AcDbEntity
  8
GARFOS OK
100
AcDbLine
 10
1111.8956474827585
 20
172.0
 30
0.0
 11
1102.3956474827585
 21
179.0
 31
0.0
  0
LINE
  5
80
330
17
100
AcDbEntity
  8
GARFOS OK
100
AcDbLine
 10
1111.8956474827585
 20
172.0
 30
0.0
 11
1121.3956474827585
 21
179.0
 31
0.0
  0
LINE
  5
81
330
17
100
AcDbEntity
  8
GARFOS OK
100
AcDbLine
 10
1102.3956474827585
 20
179.0
 30
0.0
 11
1121.3956474827585
 21
179.0
 31
0.0
  0
LWPOLYLINE
  5
82
330
17
100
AcDbEntity
  8
SARR_7x7
100
AcDbPolyline
 90
5
 70
0
 10
1108.3956474827585
 20
-7.0
 10
1115.3956474827585
 20
-7.0
 10
1115.3956474827585
 20
0.0
 10
1108.3956474827585
 20
0.0
 10
1108.3956474827585
 20
-7.0
  0
LINE
  5
83
330
17
100
AcDbEntity
  8
BARRA_ANCORAGEM
100
AcDbLine
 10
1111.8956474827585
 20
71.60000000000001
 30
0.0
 11
1138.7456474827584
 21
125.30000000000001
 31
0.0
  0
TEXT
  5
84
330
17
100
AcDbEntity
  8
NOME DA VIGA
100
AcDbText
 10
1111.8956474827585
 20
-12.0
 30
0.0
 40
3.0
  1
GF8
100
AcDbText
  0
LWPOLYLINE
  5
85
330
17
100
AcDbEntity
  8
GARFOS OK
100
AcDbPolyline
 90
5
 70
0
 10
1262.952168551724
 20
0.0
 10
1269.952168551724
 20
0.0
 10
1269.952168551724
 20
179.0
 10
1262.952168551724
 20
179.0
 10
1262.952168551724
 20
0.0
  0
HATCH
  5
86
330
17
100
AcDbEntity
  8
COTA
 62
7
100
AcDbHatch
 10
0.0
 20
0.0
 30
0.0
210
0.0
220
0.0
230
1.0
  2
ANSI31
 70
0
 71
0
 91
1
 92
3
 72
0
 73
1
 93
4
 10
1262.952168551724
 20
0.0
 10
1269.952168551724
 20
0.0
 10
1269.952168551724
 20
179.0
 10
1262.952168551724
 20
179.0
 97
0
 75
1
 76
1
 52
0.0
 41
0.5
 77
0
 78
1
 53
45.0
 43
0.0
 44
0.0
 45
-1.1225320152
 46
1.1225320152
 79
0
 98
0
  0
LINE
  5
87
330
17
100
AcDbEntity
  8
GARFOS OK
100
AcDbLine
 10
1266.452168551724
 20
172.0
 30
0.0
 11
1256.952168551724
 21
179.0
 31
0.0
  0
LINE
  5
88
330
17
100
AcDbEntity
  8
GARFOS OK
100
AcDbLine
 10
1266.452168551724
 20
172.0
 30
0.0
 11
1275.952168551724
 21
179.0
 31
0.0
  0
LINE
  5
89
330
17
100
AcDbEntity
  8
GARFOS OK
100
AcDbLine
 10
1256.952168551724
 20
179.0
 30
0.0
 11
1275.952168551724
 21
179.0
 31
0.0
  0
LWPOLYLINE
  5
8A
330
17
100
AcDbEntity
  8
SARR_7x7
100
AcDbPolyline
 90
5
 70
0
 10
1262.952168551724
 20
-7.0
 10
1269.952168551724
 20
-7.0
 10
1269.952168551724
 20
0.0
 10
1262.952168551724
 20
0.0
 10
1262.952168551724
 20
-7.0
  0
LINE
  5
8B
330
17
100
AcDbEntity
  8
BARRA_ANCORAGEM
100
AcDbLine
 10
1266.452168551724
 20
71.60000000000001
 30
0.0
 11
1293.302168551724
 21
125.30000000000001
 31
0.0
  0
TEXT
  5
8C
330
17
100
AcDbEntity
  8
NOME DA VIGA
100
AcDbText
 10
1266.452168551724
 20
-12.0
 30
0.0
 40
3.0
  1
GF9
100
AcDbText
  0
LWPOLYLINE
  5
8D
330
17
100
AcDbEntity
  8
GARFOS OK
100
AcDbPolyline
 90
5
 70
0
 10
1417.5086896206897
 20
0.0
 10
1424.5086896206897
 20
0.0
 10
1424.5086896206897
 20
179.0
 10
1417.5086896206897
 20
179.0
 10
1417.5086896206897
 20
0.0
  0
HATCH
  5
8E
330
17
100
AcDbEntity
  8
COTA
 62
7
100
AcDbHatch
 10
0.0
 20
0.0
 30
0.0
210
0.0
220
0.0
230
1.0
  2
ANSI31
 70
0
 71
0
 91
1
 92
3
 72
0
 73
1
 93
4
 10
1417.5086896206897
 20
0.0
 10
1424.5086896206897
 20
0.0
 10
1424.5086896206897
 20
179.0
 10
1417.5086896206897
 20
179.0
 97
0
 75
1
 76
1
 52
0.0
 41
0.5
 77
0
 78
1
 53
45.0
 43
0.0
 44
0.0
 45
-1.1225320152
 46
1.1225320152
 79
0
 98
0
  0
LINE
  5
8F
330
17
100
AcDbEntity
  8
GARFOS OK
100
AcDbLine
 10
1421.0086896206897
 20
172.0
 30
0.0
 11
1411.5086896206897
 21
179.0
 31
0.0
  0
LINE
  5
90
330
17
100
AcDbEntity
  8
GARFOS OK
100
AcDbLine
 10
1421.0086896206897
 20
172.0
 30
0.0
 11
1430.5086896206897
 21
179.0
 31
0.0
  0
LINE
  5
91
330
17
100
AcDbEntity
  8
GARFOS OK
100
AcDbLine
 10
1411.5086896206897
 20
179.0
 30
0.0
 11
1430.5086896206897
 21
179.0
 31
0.0
  0
LWPOLYLINE
  5
92
330
17
100
AcDbEntity
  8
SARR_7x7
100
AcDbPolyline
 90
5
 70
0
 10
1417.5086896206897
 20
-7.0
 10
1424.5086896206897
 20
-7.0
 10
1424.5086896206897
 20
0.0
 10
1417.5086896206897
 20
0.0
 10
1417.5086896206897
 20
-7.0
  0
LINE
  5
93
330
17
100
AcDbEntity
  8
BARRA_ANCORAGEM
100
AcDbLine
 10
1421.0086896206897
 20
71.60000000000001
 30
0.0
 11
1447.8586896206896
 21
125.30000000000001
 31
0.0
  0
TEXT
  5
94
330
17
100
AcDbEntity
  8
NOME DA VIGA
100
AcDbText
 10
1421.0086896206897
 20
-12.0
 30
0.0
 40
3.0
  1
GF10
100
AcDbText
  0
LWPOLYLINE
  5
95
330
17
100
AcDbEntity
  8
GARFOS OK
100
AcDbPolyline
 90
5
 70
0
 10
1572.065210689655
 20
0.0
 10
1579.065210689655
 20
0.0
 10
1579.065210689655
 20
179.0
 10
1572.065210689655
 20
179.0
 10
1572.065210689655
 20
0.0
  0
HATCH
  5
96
330
17
100
AcDbEntity
  8
COTA
 62
7
100
AcDbHatch
 10
0.0
 20
0.0
 30
0.0
210
0.0
220
0.0
230
1.0
  2
ANSI31
 70
0
 71
0
 91
1
 92
3
 72
0
 73
1
 93
4
 10
1572.065210689655
 20
0.0
 10
1579.065210689655
 20
0.0
 10
1579.065210689655
 20
179.0
 10
1572.065210689655
 20
179.0
 97
0
 75
1
 76
1
 52
0.0
 41
0.5
 77
0
 78
1
 53
45.0
 43
0.0
 44
0.0
 45
-1.1225320152
 46
1.1225320152
 79
0
 98
0
  0
LINE
  5
97
330
17
100
AcDbEntity
  8
GARFOS OK
100
AcDbLine
 10
1575.565210689655
 20
172.0
 30
0.0
 11
1566.065210689655
 21
179.0
 31
0.0
  0
LINE
  5
98
330
17
100
AcDbEntity
  8
GARFOS OK
100
AcDbLine
 10
1575.565210689655
 20
172.0
 30
0.0
 11
1585.065210689655
 21
179.0
 31
0.0
  0
LINE
  5
99
330
17
100
AcDbEntity
  8
GARFOS OK
100
AcDbLine
 10
1566.065210689655
 20
179.0
 30
0.0
 11
1585.065210689655
 21
179.0
 31
0.0
  0
LWPOLYLINE
  5
9A
330
17
100
AcDbEntity
  8
SARR_7x7
100
AcDbPolyline
 90
5
 70
0
 10
1572.065210689655
 20
-7.0
 10
1579.065210689655
 20
-7.0
 10
1579.065210689655
 20
0.0
 10
1572.065210689655
 20
0.0
 10
1572.065210689655
 20
-7.0
  0
LINE
  5
9B
330
17
100
AcDbEntity
  8
BARRA_ANCORAGEM
100
AcDbLine
 10
1575.565210689655
 20
71.60000000000001
 30
0.0
 11
1602.415210689655
 21
125.30000000000001
 31
0.0
  0
TEXT
  5
9C
330
17
100
AcDbEntity
  8
NOME DA VIGA
100
AcDbText
 10
1575.565210689655
 20
-12.0
 30
0.0
 40
3.0
  1
GF11
100
AcDbText
  0
LWPOLYLINE
  5
9D
330
17
100
AcDbEntity
  8
GARFOS OK
100
AcDbPolyline
 90
5
 70
0
 10
1726.6217317586206
 20
0.0
 10
1733.6217317586206
 20
0.0
 10
1733.6217317586206
 20
179.0
 10
1726.6217317586206
 20
179.0
 10
1726.6217317586206
 20
0.0
  0
HATCH
  5
9E
330
17
100
AcDbEntity
  8
COTA
 62
7
100
AcDbHatch
 10
0.0
 20
0.0
 30
0.0
210
0.0
220
0.0
230
1.0
  2
ANSI31
 70
0
 71
0
 91
1
 92
3
 72
0
 73
1
 93
4
 10
1726.6217317586206
 20
0.0
 10
1733.6217317586206
 20
0.0
 10
1733.6217317586206
 20
179.0
 10
1726.6217317586206
 20
179.0
 97
0
 75
1
 76
1
 52
0.0
 41
0.5
 77
0
 78
1
 53
45.0
 43
0.0
 44
0.0
 45
-1.1225320152
 46
1.1225320152
 79
0
 98
0
  0
LINE
  5
9F
330
17
100
AcDbEntity
  8
GARFOS OK
100
AcDbLine
 10
1730.1217317586206
 20
172.0
 30
0.0
 11
1720.6217317586206
 21
179.0
 31
0.0
  0
LINE
  5
A0
330
17
100
AcDbEntity
  8
GARFOS OK
100
AcDbLine
 10
1730.1217317586206
 20
172.0
 30
0.0
 11
1739.6217317586206
 21
179.0
 31
0.0
  0
LINE
  5
A1
330
17
100
AcDbEntity
  8
GARFOS OK
100
AcDbLine
 10
1720.6217317586206
 20
179.0
 30
0.0
 11
1739.6217317586206
 21
179.0
 31
0.0
  0
LWPOLYLINE
  5
A2
330
17
100
AcDbEntity
  8
SARR_7x7
100
AcDbPolyline
 90
5
 70
0
 10
1726.6217317586206
 20
-7.0
 10
1733.6217317586206
 20
-7.0
 10
1733.6217317586206
 20
0.0
 10
1726.6217317586206
 20
0.0
 10
1726.6217317586206
 20
-7.0
  0
LINE
  5
A3
330
17
100
AcDbEntity
  8
BARRA_ANCORAGEM
100
AcDbLine
 10
1730.1217317586206
 20
71.60000000000001
 30
0.0
 11
1756.9717317586205
 21
125.30000000000001
 31
0.0
  0
TEXT
  5
A4
330
17
100
AcDbEntity
  8
NOME DA VIGA
100
AcDbText
 10
1730.1217317586206
 20
-12.0
 30
0.0
 40
3.0
  1
GF12
100
AcDbText
  0
LWPOLYLINE
  5
A5
330
17
100
AcDbEntity
  8
GARFOS OK
100
AcDbPolyline
 90
5
 70
0
 10
1881.1782528275862
 20
0.0
 10
1888.1782528275862
 20
0.0
 10
1888.1782528275862
 20
179.0
 10
1881.1782528275862
 20
179.0
 10
1881.1782528275862
 20
0.0
  0
HATCH
  5
A6
330
17
100
AcDbEntity
  8
COTA
 62
7
100
AcDbHatch
 10
0.0
 20
0.0
 30
0.0
210
0.0
220
0.0
230
1.0
  2
ANSI31
 70
0
 71
0
 91
1
 92
3
 72
0
 73
1
 93
4
 10
1881.1782528275862
 20
0.0
 10
1888.1782528275862
 20
0.0
 10
1888.1782528275862
 20
179.0
 10
1881.1782528275862
 20
179.0
 97
0
 75
1
 76
1
 52
0.0
 41
0.5
 77
0
 78
1
 53
45.0
 43
0.0
 44
0.0
 45
-1.1225320152
 46
1.1225320152
 79
0
 98
0
  0
LINE
  5
A7
330
17
100
AcDbEntity
  8
GARFOS OK
100
AcDbLine
 10
1884.6782528275862
 20
172.0
 30
0.0
 11
1875.1782528275862
 21
179.0
 31
0.0
  0
LINE
  5
A8
330
17
100
AcDbEntity
  8
GARFOS OK
100
AcDbLine
 10
1884.6782528275862
 20
172.0
 30
0.0
 11
1894.1782528275862
 21
179.0
 31
0.0
  0
LINE
  5
A9
330
17
100
AcDbEntity
  8
GARFOS OK
100
AcDbLine
 10
1875.1782528275862
 20
179.0
 30
0.0
 11
1894.1782528275862
 21
179.0
 31
0.0
  0
LWPOLYLINE
  5
AA
330
17
100
AcDbEntity
  8
SARR_7x7
100
AcDbPolyline
 90
5
 70
0
 10
1881.1782528275862
 20
-7.0
 10
1888.1782528275862
 20
-7.0
 10
1888.1782528275862
 20
0.0
 10
1881.1782528275862
 20
0.0
 10
1881.1782528275862
 20
-7.0
  0
LINE
  5
AB
330
17
100
AcDbEntity
  8
BARRA_ANCORAGEM
100
AcDbLine
 10
1884.6782528275862
 20
71.60000000000001
 30
0.0
 11
1911.5282528275861
 21
125.30000000000001
 31
0.0
  0
TEXT
  5
AC
330
17
100
AcDbEntity
  8
NOME DA VIGA
100
AcDbText
 10
1884.6782528275862
 20
-12.0
 30
0.0
 40
3.0
  1
GF13
100
AcDbText
  0
LWPOLYLINE
  5
AD
330
17
100
AcDbEntity
  8
GARFOS OK
100
AcDbPolyline
 90
5
 70
0
 10
2035.7347738965516
 20
0.0
 10
2042.7347738965516
 20
0.0
 10
2042.7347738965516
 20
179.0
 10
2035.7347738965516
 20
179.0
 10
2035.7347738965516
 20
0.0
  0
HATCH
  5
AE
330
17
100
AcDbEntity
  8
COTA
 62
7
100
AcDbHatch
 10
0.0
 20
0.0
 30
0.0
210
0.0
220
0.0
230
1.0
  2
ANSI31
 70
0
 71
0
 91
1
 92
3
 72
0
 73
1
 93
4
 10
2035.7347738965516
 20
0.0
 10
2042.7347738965516
 20
0.0
 10
2042.7347738965516
 20
179.0
 10
2035.7347738965516
 20
179.0
 97
0
 75
1
 76
1
 52
0.0
 41
0.5
 77
0
 78
1
 53
45.0
 43
0.0
 44
0.0
 45
-1.1225320152
 46
1.1225320152
 79
0
 98
0
  0
LINE
  5
AF
330
17
100
AcDbEntity
  8
GARFOS OK
100
AcDbLine
 10
2039.2347738965516
 20
172.0
 30
0.0
 11
2029.7347738965516
 21
179.0
 31
0.0
  0
LINE
  5
B0
330
17
100
AcDbEntity
  8
GARFOS OK
100
AcDbLine
 10
2039.2347738965516
 20
172.0
 30
0.0
 11
2048.734773896552
 21
179.0
 31
0.0
  0
LINE
  5
B1
330
17
100
AcDbEntity
  8
GARFOS OK
100
AcDbLine
 10
2029.7347738965516
 20
179.0
 30
0.0
 11
2048.734773896552
 21
179.0
 31
0.0
  0
LWPOLYLINE
  5
B2
330
17
100
AcDbEntity
  8
SARR_7x7
100
AcDbPolyline
 90
5
 70
0
 10
2035.7347738965516
 20
-7.0
 10
2042.7347738965516
 20
-7.0
 10
2042.7347738965516
 20
0.0
 10
2035.7347738965516
 20
0.0
 10
2035.7347738965516
 20
-7.0
  0
LINE
  5
B3
330
17
100
AcDbEntity
  8
BARRA_ANCORAGEM
100
AcDbLine
 10
2039.2347738965516
 20
71.60000000000001
 30
0.0
 11
2066.0847738965517
 21
125.30000000000001
 31
0.0
  0
TEXT
  5
B4
330
17
100
AcDbEntity
  8
NOME DA VIGA
100
AcDbText
 10
2039.2347738965516
 20
-12.0
 30
0.0
 40
3.0
  1
GF14
100
AcDbText
  0
LWPOLYLINE
  5
B5
330
17
100
AcDbEntity
  8
GARFOS OK
100
AcDbPolyline
 90
5
 70
0
 10
2190.291294965517
 20
0.0
 10
2197.291294965517
 20
0.0
 10
2197.291294965517
 20
179.0
 10
2190.291294965517
 20
179.0
 10
2190.291294965517
 20
0.0
  0
HATCH
  5
B6
330
17
100
AcDbEntity
  8
COTA
 62
7
100
AcDbHatch
 10
0.0
 20
0.0
 30
0.0
210
0.0
220
0.0
230
1.0
  2
ANSI31
 70
0
 71
0
 91
1
 92
3
 72
0
 73
1
 93
4
 10
2190.291294965517
 20
0.0
 10
2197.291294965517
 20
0.0
 10
2197.291294965517
 20
179.0
 10
2190.291294965517
 20
179.0
 97
0
 75
1
 76
1
 52
0.0
 41
0.5
 77
0
 78
1
 53
45.0
 43
0.0
 44
0.0
 45
-1.1225320152
 46
1.1225320152
 79
0
 98
0
  0
LINE
  5
B7
330
17
100
AcDbEntity
  8
GARFOS OK
100
AcDbLine
 10
2193.791294965517
 20
172.0
 30
0.0
 11
2184.291294965517
 21
179.0
 31
0.0
  0
LINE
  5
B8
330
17
100
AcDbEntity
  8
GARFOS OK
100
AcDbLine
 10
2193.791294965517
 20
172.0
 30
0.0
 11
2203.291294965517
 21
179.0
 31
0.0
  0
LINE
  5
B9
330
17
100
AcDbEntity
  8
GARFOS OK
100
AcDbLine
 10
2184.291294965517
 20
179.0
 30
0.0
 11
2203.291294965517
 21
179.0
 31
0.0
  0
LWPOLYLINE
  5
BA
330
17
100
AcDbEntity
  8
SARR_7x7
100
AcDbPolyline
 90
5
 70
0
 10
2190.291294965517
 20
-7.0
 10
2197.291294965517
 20
-7.0
 10
2197.291294965517
 20
0.0
 10
2190.291294965517
 20
0.0
 10
2190.291294965517
 20
-7.0
  0
LINE
  5
BB
330
17
100
AcDbEntity
  8
BARRA_ANCORAGEM
100
AcDbLine
 10
2193.791294965517
 20
71.60000000000001
 30
0.0
 11
2220.641294965517
 21
125.30000000000001
 31
0.0
  0
TEXT
  5
BC
330
17
100
AcDbEntity
  8
NOME DA VIGA
100
AcDbText
 10
2193.791294965517
 20
-12.0
 30
0.0
 40
3.0
  1
GF15
100
AcDbText
  0
LWPOLYLINE
  5
BD
330
17
100
AcDbEntity
  8
GARFOS OK
100
AcDbPolyline
 90
5
 70
0
 10
2344.8478160344825
 20
0.0
 10
2351.8478160344825
 20
0.0
 10
2351.8478160344825
 20
179.0
 10
2344.8478160344825
 20
179.0
 10
2344.8478160344825
 20
0.0
  0
HATCH
  5
BE
330
17
100
AcDbEntity
  8
COTA
 62
7
100
AcDbHatch
 10
0.0
 20
0.0
 30
0.0
210
0.0
220
0.0
230
1.0
  2
ANSI31
 70
0
 71
0
 91
1
 92
3
 72
0
 73
1
 93
4
 10
2344.8478160344825
 20
0.0
 10
2351.8478160344825
 20
0.0
 10
2351.8478160344825
 20
179.0
 10
2344.8478160344825
 20
179.0
 97
0
 75
1
 76
1
 52
0.0
 41
0.5
 77
0
 78
1
 53
45.0
 43
0.0
 44
0.0
 45
-1.1225320152
 46
1.1225320152
 79
0
 98
0
  0
LINE
  5
BF
330
17
100
AcDbEntity
  8
GARFOS OK
100
AcDbLine
 10
2348.3478160344825
 20
172.0
 30
0.0
 11
2338.8478160344825
 21
179.0
 31
0.0
  0
LINE
  5
C0
330
17
100
AcDbEntity
  8
GARFOS OK
100
AcDbLine
 10
2348.3478160344825
 20
172.0
 30
0.0
 11
2357.8478160344825
 21
179.0
 31
0.0
  0
LINE
  5
C1
330
17
100
AcDbEntity
  8
GARFOS OK
100
AcDbLine
 10
2338.8478160344825
 20
179.0
 30
0.0
 11
2357.8478160344825
 21
179.0
 31
0.0
  0
LWPOLYLINE
  5
C2
330
17
100
AcDbEntity
  8
SARR_7x7
100
AcDbPolyline
 90
5
 70
0
 10
2344.8478160344825
 20
-7.0
 10
2351.8478160344825
 20
-7.0
 10
2351.8478160344825
 20
0.0
 10
2344.8478160344825
 20
0.0
 10
2344.8478160344825
 20
-7.0
  0
LINE
  5
C3
330
17
100
AcDbEntity
  8
BARRA_ANCORAGEM
100
AcDbLine
 10
2348.3478160344825
 20
71.60000000000001
 30
0.0
 11
2375.1978160344825
 21
125.30000000000001
 31
0.0
  0
TEXT
  5
C4
330
17
100
AcDbEntity
  8
NOME DA VIGA
100
AcDbText
 10
2348.3478160344825
 20
-12.0
 30
0.0
 40
3.0
  1
GF16
100
AcDbText
  0
LWPOLYLINE
  5
C5
330
17
100
AcDbEntity
  8
GARFOS OK
100
AcDbPolyline
 90
5
 70
0
 10
2499.404337103448
 20
0.0
 10
2506.404337103448
 20
0.0
 10
2506.404337103448
 20
179.0
 10
2499.404337103448
 20
179.0
 10
2499.404337103448
 20
0.0
  0
HATCH
  5
C6
330
17
100
AcDbEntity
  8
COTA
 62
7
100
AcDbHatch
 10
0.0
 20
0.0
 30
0.0
210
0.0
220
0.0
230
1.0
  2
ANSI31
 70
0
 71
0
 91
1
 92
3
 72
0
 73
1
 93
4
 10
2499.404337103448
 20
0.0
 10
2506.404337103448
 20
0.0
 10
2506.404337103448
 20
179.0
 10
2499.404337103448
 20
179.0
 97
0
 75
1
 76
1
 52
0.0
 41
0.5
 77
0
 78
1
 53
45.0
 43
0.0
 44
0.0
 45
-1.1225320152
 46
1.1225320152
 79
0
 98
0
  0
LINE
  5
C7
330
17
100
AcDbEntity
  8
GARFOS OK
100
AcDbLine
 10
2502.904337103448
 20
172.0
 30
0.0
 11
2493.404337103448
 21
179.0
 31
0.0
  0
LINE
  5
C8
330
17
100
AcDbEntity
  8
GARFOS OK
100
AcDbLine
 10
2502.904337103448
 20
172.0
 30
0.0
 11
2512.404337103448
 21
179.0
 31
0.0
  0
LINE
  5
C9
330
17
100
AcDbEntity
  8
GARFOS OK
100
AcDbLine
 10
2493.404337103448
 20
179.0
 30
0.0
 11
2512.404337103448
 21
179.0
 31
0.0
  0
LWPOLYLINE
  5
CA
330
17
100
AcDbEntity
  8
SARR_7x7
100
AcDbPolyline
 90
5
 70
0
 10
2499.404337103448
 20
-7.0
 10
2506.404337103448
 20
-7.0
 10
2506.404337103448
 20
0.0
 10
2499.404337103448
 20
0.0
 10
2499.404337103448
 20
-7.0
  0
LINE
  5
CB
330
17
100
AcDbEntity
  8
BARRA_ANCORAGEM
100
AcDbLine
 10
2502.904337103448
 20
71.60000000000001
 30
0.0
 11
2529.754337103448
 21
125.30000000000001
 31
0.0
  0
TEXT
  5
CC
330
17
100
AcDbEntity
  8
NOME DA VIGA
100
AcDbText
 10
2502.904337103448
 20
-12.0
 30
0.0
 40
3.0
  1
GF17
100
AcDbText
  0
LWPOLYLINE
  5
CD
330
17
100
AcDbEntity
  8
GARFOS OK
100
AcDbPolyline
 90
5
 70
0
 10
2653.9608581724137
 20
0.0
 10
2660.9608581724137
 20
0.0
 10
2660.9608581724137
 20
179.0
 10
2653.9608581724137
 20
179.0
 10
2653.9608581724137
 20
0.0
  0
HATCH
  5
CE
330
17
100
AcDbEntity
  8
COTA
 62
7
100
AcDbHatch
 10
0.0
 20
0.0
 30
0.0
210
0.0
220
0.0
230
1.0
  2
ANSI31
 70
0
 71
0
 91
1
 92
3
 72
0
 73
1
 93
4
 10
2653.9608581724137
 20
0.0
 10
2660.9608581724137
 20
0.0
 10
2660.9608581724137
 20
179.0
 10
2653.9608581724137
 20
179.0
 97
0
 75
1
 76
1
 52
0.0
 41
0.5
 77
0
 78
1
 53
45.0
 43
0.0
 44
0.0
 45
-1.1225320152
 46
1.1225320152
 79
0
 98
0
  0
LINE
  5
CF
330
17
100
AcDbEntity
  8
GARFOS OK
100
AcDbLine
 10
2657.4608581724137
 20
172.0
 30
0.0
 11
2647.9608581724137
 21
179.0
 31
0.0
  0
LINE
  5
D0
330
17
100
AcDbEntity
  8
GARFOS OK
100
AcDbLine
 10
2657.4608581724137
 20
172.0
 30
0.0
 11
2666.9608581724137
 21
179.0
 31
0.0
  0
LINE
  5
D1
330
17
100
AcDbEntity
  8
GARFOS OK
100
AcDbLine
 10
2647.9608581724137
 20
179.0
 30
0.0
 11
2666.9608581724137
 21
179.0
 31
0.0
  0
LWPOLYLINE
  5
D2
330
17
100
AcDbEntity
  8
SARR_7x7
100
AcDbPolyline
 90
5
 70
0
 10
2653.9608581724137
 20
-7.0
 10
2660.9608581724137
 20
-7.0
 10
2660.9608581724137
 20
0.0
 10
2653.9608581724137
 20
0.0
 10
2653.9608581724137
 20
-7.0
  0
LINE
  5
D3
330
17
100
AcDbEntity
  8
BARRA_ANCORAGEM
100
AcDbLine
 10
2657.4608581724137
 20
71.60000000000001
 30
0.0
 11
2684.3108581724136
 21
125.30000000000001
 31
0.0
  0
TEXT
  5
D4
330
17
100
AcDbEntity
  8
NOME DA VIGA
100
AcDbText
 10
2657.4608581724137
 20
-12.0
 30
0.0
 40
3.0
  1
GF18
100
AcDbText
  0
LWPOLYLINE
  5
D5
330
17
100
AcDbEntity
  8
GARFOS OK
100
AcDbPolyline
 90
5
 70
0
 10
2808.5173792413793
 20
0.0
 10
2815.5173792413793
 20
0.0
 10
2815.5173792413793
 20
179.0
 10
2808.5173792413793
 20
179.0
 10
2808.5173792413793
 20
0.0
  0
HATCH
  5
D6
330
17
100
AcDbEntity
  8
COTA
 62
7
100
AcDbHatch
 10
0.0
 20
0.0
 30
0.0
210
0.0
220
0.0
230
1.0
  2
ANSI31
 70
0
 71
0
 91
1
 92
3
 72
0
 73
1
 93
4
 10
2808.5173792413793
 20
0.0
 10
2815.5173792413793
 20
0.0
 10
2815.5173792413793
 20
179.0
 10
2808.5173792413793
 20
179.0
 97
0
 75
1
 76
1
 52
0.0
 41
0.5
 77
0
 78
1
 53
45.0
 43
0.0
 44
0.0
 45
-1.1225320152
 46
1.1225320152
 79
0
 98
0
  0
LINE
  5
D7
330
17
100
AcDbEntity
  8
GARFOS OK
100
AcDbLine
 10
2812.0173792413793
 20
172.0
 30
0.0
 11
2802.5173792413793
 21
179.0
 31
0.0
  0
LINE
  5
D8
330
17
100
AcDbEntity
  8
GARFOS OK
100
AcDbLine
 10
2812.0173792413793
 20
172.0
 30
0.0
 11
2821.5173792413793
 21
179.0
 31
0.0
  0
LINE
  5
D9
330
17
100
AcDbEntity
  8
GARFOS OK
100
AcDbLine
 10
2802.5173792413793
 20
179.0
 30
0.0
 11
2821.5173792413793
 21
179.0
 31
0.0
  0
LWPOLYLINE
  5
DA
330
17
100
AcDbEntity
  8
SARR_7x7
100
AcDbPolyline
 90
5
 70
0
 10
2808.5173792413793
 20
-7.0
 10
2815.5173792413793
 20
-7.0
 10
2815.5173792413793
 20
0.0
 10
2808.5173792413793
 20
0.0
 10
2808.5173792413793
 20
-7.0
  0
LINE
  5
DB
330
17
100
AcDbEntity
  8
BARRA_ANCORAGEM
100
AcDbLine
 10
2812.0173792413793
 20
71.60000000000001
 30
0.0
 11
2838.8673792413792
 21
125.30000000000001
 31
0.0
  0
TEXT
  5
DC
330
17
100
AcDbEntity
  8
NOME DA VIGA
100
AcDbText
 10
2812.0173792413793
 20
-12.0
 30
0.0
 40
3.0
  1
GF19
100
AcDbText
  0
LWPOLYLINE
  5
DD
330
17
100
AcDbEntity
  8
GARFOS OK
100
AcDbPolyline
 90
5
 70
0
 10
2963.0739003103445
 20
0.0
 10
2970.0739003103445
 20
0.0
 10
2970.0739003103445
 20
179.0
 10
2963.0739003103445
 20
179.0
 10
2963.0739003103445
 20
0.0
  0
HATCH
  5
DE
330
17
100
AcDbEntity
  8
COTA
 62
7
100
AcDbHatch
 10
0.0
 20
0.0
 30
0.0
210
0.0
220
0.0
230
1.0
  2
ANSI31
 70
0
 71
0
 91
1
 92
3
 72
0
 73
1
 93
4
 10
2963.0739003103445
 20
0.0
 10
2970.0739003103445
 20
0.0
 10
2970.0739003103445
 20
179.0
 10
2963.0739003103445
 20
179.0
 97
0
 75
1
 76
1
 52
0.0
 41
0.5
 77
0
 78
1
 53
45.0
 43
0.0
 44
0.0
 45
-1.1225320152
 46
1.1225320152
 79
0
 98
0
  0
LINE
  5
DF
330
17
100
AcDbEntity
  8
GARFOS OK
100
AcDbLine
 10
2966.5739003103445
 20
172.0
 30
0.0
 11
2957.0739003103445
 21
179.0
 31
0.0
  0
LINE
  5
E0
330
17
100
AcDbEntity
  8
GARFOS OK
100
AcDbLine
 10
2966.5739003103445
 20
172.0
 30
0.0
 11
2976.0739003103445
 21
179.0
 31
0.0
  0
LINE
  5
E1
330
17
100
AcDbEntity
  8
GARFOS OK
100
AcDbLine
 10
2957.0739003103445
 20
179.0
 30
0.0
 11
2976.0739003103445
 21
179.0
 31
0.0
  0
LWPOLYLINE
  5
E2
330
17
100
AcDbEntity
  8
SARR_7x7
100
AcDbPolyline
 90
5
 70
0
 10
2963.0739003103445
 20
-7.0
 10
2970.0739003103445
 20
-7.0
 10
2970.0739003103445
 20
0.0
 10
2963.0739003103445
 20
0.0
 10
2963.0739003103445
 20
-7.0
  0
LINE
  5
E3
330
17
100
AcDbEntity
  8
BARRA_ANCORAGEM
100
AcDbLine
 10
2966.5739003103445
 20
71.60000000000001
 30
0.0
 11
2993.4239003103444
 21
125.30000000000001
 31
0.0
  0
TEXT
  5
E4
330
17
100
AcDbEntity
  8
NOME DA VIGA
100
AcDbText
 10
2966.5739003103445
 20
-12.0
 30
0.0
 40
3.0
  1
GF20
100
AcDbText
  0
LWPOLYLINE
  5
E5
330
17
100
AcDbEntity
  8
GARFOS OK
100
AcDbPolyline
 90
5
 70
0
 10
3117.63042137931
 20
0.0
 10
3124.63042137931
 20
0.0
 10
3124.63042137931
 20
179.0
 10
3117.63042137931
 20
179.0
 10
3117.63042137931
 20
0.0
  0
HATCH
  5
E6
330
17
100
AcDbEntity
  8
COTA
 62
7
100
AcDbHatch
 10
0.0
 20
0.0
 30
0.0
210
0.0
220
0.0
230
1.0
  2
ANSI31
 70
0
 71
0
 91
1
 92
3
 72
0
 73
1
 93
4
 10
3117.63042137931
 20
0.0
 10
3124.63042137931
 20
0.0
 10
3124.63042137931
 20
179.0
 10
3117.63042137931
 20
179.0
 97
0
 75
1
 76
1
 52
0.0
 41
0.5
 77
0
 78
1
 53
45.0
 43
0.0
 44
0.0
 45
-1.1225320152
 46
1.1225320152
 79
0
 98
0
  0
LINE
  5
E7
330
17
100
AcDbEntity
  8
GARFOS OK
100
AcDbLine
 10
3121.13042137931
 20
172.0
 30
0.0
 11
3111.63042137931
 21
179.0
 31
0.0
  0
LINE
  5
E8
330
17
100
AcDbEntity
  8
GARFOS OK
100
AcDbLine
 10
3121.13042137931
 20
172.0
 30
0.0
 11
3130.63042137931
 21
179.0
 31
0.0
  0
LINE
  5
E9
330
17
100
AcDbEntity
  8
GARFOS OK
100
AcDbLine
 10
3111.63042137931
 20
179.0
 30
0.0
 11
3130.63042137931
 21
179.0
 31
0.0
  0
LWPOLYLINE
  5
EA
330
17
100
AcDbEntity
  8
SARR_7x7
100
AcDbPolyline
 90
5
 70
0
 10
3117.63042137931
 20
-7.0
 10
3124.63042137931
 20
-7.0
 10
3124.63042137931
 20
0.0
 10
3117.63042137931
 20
0.0
 10
3117.63042137931
 20
-7.0
  0
LINE
  5
EB
330
17
100
AcDbEntity
  8
BARRA_ANCORAGEM
100
AcDbLine
 10
3121.13042137931
 20
71.60000000000001
 30
0.0
 11
3147.98042137931
 21
125.30000000000001
 31
0.0
  0
TEXT
  5
EC
330
17
100
AcDbEntity
  8
NOME DA VIGA
100
AcDbText
 10
3121.13042137931
 20
-12.0
 30
0.0
 40
3.0
  1
GF21
100
AcDbText
  0
LWPOLYLINE
  5
ED
330
17
100
AcDbEntity
  8
GARFOS OK
100
AcDbPolyline
 90
5
 70
0
 10
3272.1869424482757
 20
0.0
 10
3279.1869424482757
 20
0.0
 10
3279.1869424482757
 20
179.0
 10
3272.1869424482757
 20
179.0
 10
3272.1869424482757
 20
0.0
  0
HATCH
  5
EE
330
17
100
AcDbEntity
  8
COTA
 62
7
100
AcDbHatch
 10
0.0
 20
0.0
 30
0.0
210
0.0
220
0.0
230
1.0
  2
ANSI31
 70
0
 71
0
 91
1
 92
3
 72
0
 73
1
 93
4
 10
3272.1869424482757
 20
0.0
 10
3279.1869424482757
 20
0.0
 10
3279.1869424482757
 20
179.0
 10
3272.1869424482757
 20
179.0
 97
0
 75
1
 76
1
 52
0.0
 41
0.5
 77
0
 78
1
 53
45.0
 43
0.0
 44
0.0
 45
-1.1225320152
 46
1.1225320152
 79
0
 98
0
  0
LINE
  5
EF
330
17
100
AcDbEntity
  8
GARFOS OK
100
AcDbLine
 10
3275.6869424482757
 20
172.0
 30
0.0
 11
3266.1869424482757
 21
179.0
 31
0.0
  0
LINE
  5
F0
330
17
100
AcDbEntity
  8
GARFOS OK
100
AcDbLine
 10
3275.6869424482757
 20
172.0
 30
0.0
 11
3285.1869424482757
 21
179.0
 31
0.0
  0
LINE
  5
F1
330
17
100
AcDbEntity
  8
GARFOS OK
100
AcDbLine
 10
3266.1869424482757
 20
179.0
 30
0.0
 11
3285.1869424482757
 21
179.0
 31
0.0
  0
LWPOLYLINE
  5
F2
330
17
100
AcDbEntity
  8
SARR_7x7
100
AcDbPolyline
 90
5
 70
0
 10
3272.1869424482757
 20
-7.0
 10
3279.1869424482757
 20
-7.0
 10
3279.1869424482757
 20
0.0
 10
3272.1869424482757
 20
0.0
 10
3272.1869424482757
 20
-7.0
  0
LINE
  5
F3
330
17
100
AcDbEntity
  8
BARRA_ANCORAGEM
100
AcDbLine
 10
3275.6869424482757
 20
71.60000000000001
 30
0.0
 11
3302.5369424482756
 21
125.30000000000001
 31
0.0
  0
TEXT
  5
F4
330
17
100
AcDbEntity
  8
NOME DA VIGA
100
AcDbText
 10
3275.6869424482757
 20
-12.0
 30
0.0
 40
3.0
  1
GF22
100
AcDbText
  0
LWPOLYLINE
  5
F5
330
17
100
AcDbEntity
  8
GARFOS OK
100
AcDbPolyline
 90
5
 70
0
 10
3426.7434635172413
 20
0.0
 10
3433.7434635172413
 20
0.0
 10
3433.7434635172413
 20
179.0
 10
3426.7434635172413
 20
179.0
 10
3426.7434635172413
 20
0.0
  0
HATCH
  5
F6
330
17
100
AcDbEntity
  8
COTA
 62
7
100
AcDbHatch
 10
0.0
 20
0.0
 30
0.0
210
0.0
220
0.0
230
1.0
  2
ANSI31
 70
0
 71
0
 91
1
 92
3
 72
0
 73
1
 93
4
 10
3426.7434635172413
 20
0.0
 10
3433.7434635172413
 20
0.0
 10
3433.7434635172413
 20
179.0
 10
3426.7434635172413
 20
179.0
 97
0
 75
1
 76
1
 52
0.0
 41
0.5
 77
0
 78
1
 53
45.0
 43
0.0
 44
0.0
 45
-1.1225320152
 46
1.1225320152
 79
0
 98
0
  0
LINE
  5
F7
330
17
100
AcDbEntity
  8
GARFOS OK
100
AcDbLine
 10
3430.2434635172413
 20
172.0
 30
0.0
 11
3420.7434635172413
 21
179.0
 31
0.0
  0
LINE
  5
F8
330
17
100
AcDbEntity
  8
GARFOS OK
100
AcDbLine
 10
3430.2434635172413
 20
172.0
 30
0.0
 11
3439.7434635172413
 21
179.0
 31
0.0
  0
LINE
  5
F9
330
17
100
AcDbEntity
  8
GARFOS OK
100
AcDbLine
 10
3420.7434635172413
 20
179.0
 30
0.0
 11
3439.7434635172413
 21
179.0
 31
0.0
  0
LWPOLYLINE
  5
FA
330
17
100
AcDbEntity
  8
SARR_7x7
100
AcDbPolyline
 90
5
 70
0
 10
3426.7434635172413
 20
-7.0
 10
3433.7434635172413
 20
-7.0
 10
3433.7434635172413
 20
0.0
 10
3426.7434635172413
 20
0.0
 10
3426.7434635172413
 20
-7.0
  0
LINE
  5
FB
330
17
100
AcDbEntity
  8
BARRA_ANCORAGEM
100
AcDbLine
 10
3430.2434635172413
 20
71.60000000000001
 30
0.0
 11
3457.093463517241
 21
125.30000000000001
 31
0.0
  0
TEXT
  5
FC
330
17
100
AcDbEntity
  8
NOME DA VIGA
100
AcDbText
 10
3430.2434635172413
 20
-12.0
 30
0.0
 40
3.0
  1
GF23
100
AcDbText
  0
LWPOLYLINE
  5
FD
330
17
100
AcDbEntity
  8
GARFOS OK
100
AcDbPolyline
 90
5
 70
0
 10
3581.299984586207
 20
0.0
 10
3588.299984586207
 20
0.0
 10
3588.299984586207
 20
179.0
 10
3581.299984586207
 20
179.0
 10
3581.299984586207
 20
0.0
  0
HATCH
  5
FE
330
17
100
AcDbEntity
  8
COTA
 62
7
100
AcDbHatch
 10
0.0
 20
0.0
 30
0.0
210
0.0
220
0.0
230
1.0
  2
ANSI31
 70
0
 71
0
 91
1
 92
3
 72
0
 73
1
 93
4
 10
3581.299984586207
 20
0.0
 10
3588.299984586207
 20
0.0
 10
3588.299984586207
 20
179.0
 10
3581.299984586207
 20
179.0
 97
0
 75
1
 76
1
 52
0.0
 41
0.5
 77
0
 78
1
 53
45.0
 43
0.0
 44
0.0
 45
-1.1225320152
 46
1.1225320152
 79
0
 98
0
  0
LINE
  5
FF
330
17
100
AcDbEntity
  8
GARFOS OK
100
AcDbLine
 10
3584.799984586207
 20
172.0
 30
0.0
 11
3575.299984586207
 21
179.0
 31
0.0
  0
LINE
  5
100
330
17
100
AcDbEntity
  8
GARFOS OK
100
AcDbLine
 10
3584.799984586207
 20
172.0
 30
0.0
 11
3594.299984586207
 21
179.0
 31
0.0
  0
LINE
  5
101
330
17
100
AcDbEntity
  8
GARFOS OK
100
AcDbLine
 10
3575.299984586207
 20
179.0
 30
0.0
 11
3594.299984586207
 21
179.0
 31
0.0
  0
LWPOLYLINE
  5
102
330
17
100
AcDbEntity
  8
SARR_7x7
100
AcDbPolyline
 90
5
 70
0
 10
3581.299984586207
 20
-7.0
 10
3588.299984586207
 20
-7.0
 10
3588.299984586207
 20
0.0
 10
3581.299984586207
 20
0.0
 10
3581.299984586207
 20
-7.0
  0
LINE
  5
103
330
17
100
AcDbEntity
  8
BARRA_ANCORAGEM
100
AcDbLine
 10
3584.799984586207
 20
71.60000000000001
 30
0.0
 11
3611.6499845862068
 21
125.30000000000001
 31
0.0
  0
TEXT
  5
104
330
17
100
AcDbEntity
  8
NOME DA VIGA
100
AcDbText
 10
3584.799984586207
 20
-12.0
 30
0.0
 40
3.0
  1
GF24
100
AcDbText
  0
LWPOLYLINE
  5
105
330
17
100
AcDbEntity
  8
GARFOS OK
100
AcDbPolyline
 90
5
 70
0
 10
3735.8565056551724
 20
0.0
 10
3742.8565056551724
 20
0.0
 10
3742.8565056551724
 20
179.0
 10
3735.8565056551724
 20
179.0
 10
3735.8565056551724
 20
0.0
  0
HATCH
  5
106
330
17
100
AcDbEntity
  8
COTA
 62
7
100
AcDbHatch
 10
0.0
 20
0.0
 30
0.0
210
0.0
220
0.0
230
1.0
  2
ANSI31
 70
0
 71
0
 91
1
 92
3
 72
0
 73
1
 93
4
 10
3735.8565056551724
 20
0.0
 10
3742.8565056551724
 20
0.0
 10
3742.8565056551724
 20
179.0
 10
3735.8565056551724
 20
179.0
 97
0
 75
1
 76
1
 52
0.0
 41
0.5
 77
0
 78
1
 53
45.0
 43
0.0
 44
0.0
 45
-1.1225320152
 46
1.1225320152
 79
0
 98
0
  0
LINE
  5
107
330
17
100
AcDbEntity
  8
GARFOS OK
100
AcDbLine
 10
3739.3565056551724
 20
172.0
 30
0.0
 11
3729.8565056551724
 21
179.0
 31
0.0
  0
LINE
  5
108
330
17
100
AcDbEntity
  8
GARFOS OK
100
AcDbLine
 10
3739.3565056551724
 20
172.0
 30
0.0
 11
3748.8565056551724
 21
179.0
 31
0.0
  0
LINE
  5
109
330
17
100
AcDbEntity
  8
GARFOS OK
100
AcDbLine
 10
3729.8565056551724
 20
179.0
 30
0.0
 11
3748.8565056551724
 21
179.0
 31
0.0
  0
LWPOLYLINE
  5
10A
330
17
100
AcDbEntity
  8
SARR_7x7
100
AcDbPolyline
 90
5
 70
0
 10
3735.8565056551724
 20
-7.0
 10
3742.8565056551724
 20
-7.0
 10
3742.8565056551724
 20
0.0
 10
3735.8565056551724
 20
0.0
 10
3735.8565056551724
 20
-7.0
  0
LINE
  5
10B
330
17
100
AcDbEntity
  8
BARRA_ANCORAGEM
100
AcDbLine
 10
3739.3565056551724
 20
71.60000000000001
 30
0.0
 11
3766.2065056551724
 21
125.30000000000001
 31
0.0
  0
TEXT
  5
10C
330
17
100
AcDbEntity
  8
NOME DA VIGA
100
AcDbText
 10
3739.3565056551724
 20
-12.0
 30
0.0
 40
3.0
  1
GF25
100
AcDbText
  0
LWPOLYLINE
  5
10D
330
17
100
AcDbEntity
  8
GARFOS OK
100
AcDbPolyline
 90
5
 70
0
 10
3890.4130267241376
 20
0.0
 10
3897.4130267241376
 20
0.0
 10
3897.4130267241376
 20
179.0
 10
3890.4130267241376
 20
179.0
 10
3890.4130267241376
 20
0.0
  0
HATCH
  5
10E
330
17
100
AcDbEntity
  8
COTA
 62
7
100
AcDbHatch
 10
0.0
 20
0.0
 30
0.0
210
0.0
220
0.0
230
1.0
  2
ANSI31
 70
0
 71
0
 91
1
 92
3
 72
0
 73
1
 93
4
 10
3890.4130267241376
 20
0.0
 10
3897.4130267241376
 20
0.0
 10
3897.4130267241376
 20
179.0
 10
3890.4130267241376
 20
179.0
 97
0
 75
1
 76
1
 52
0.0
 41
0.5
 77
0
 78
1
 53
45.0
 43
0.0
 44
0.0
 45
-1.1225320152
 46
1.1225320152
 79
0
 98
0
  0
LINE
  5
10F
330
17
100
AcDbEntity
  8
GARFOS OK
100
AcDbLine
 10
3893.9130267241376
 20
172.0
 30
0.0
 11
3884.4130267241376
 21
179.0
 31
0.0
  0
LINE
  5
110
330
17
100
AcDbEntity
  8
GARFOS OK
100
AcDbLine
 10
3893.9130267241376
 20
172.0
 30
0.0
 11
3903.4130267241376
 21
179.0
 31
0.0
  0
LINE
  5
111
330
17
100
AcDbEntity
  8
GARFOS OK
100
AcDbLine
 10
3884.4130267241376
 20
179.0
 30
0.0
 11
3903.4130267241376
 21
179.0
 31
0.0
  0
LWPOLYLINE
  5
112
330
17
100
AcDbEntity
  8
SARR_7x7
100
AcDbPolyline
 90
5
 70
0
 10
3890.4130267241376
 20
-7.0
 10
3897.4130267241376
 20
-7.0
 10
3897.4130267241376
 20
0.0
 10
3890.4130267241376
 20
0.0
 10
3890.4130267241376
 20
-7.0
  0
LINE
  5
113
330
17
100
AcDbEntity
  8
BARRA_ANCORAGEM
100
AcDbLine
 10
3893.9130267241376
 20
71.60000000000001
 30
0.0
 11
3920.7630267241375
 21
125.30000000000001
 31
0.0
  0
TEXT
  5
114
330
17
100
AcDbEntity
  8
NOME DA VIGA
100
AcDbText
 10
3893.9130267241376
 20
-12.0
 30
0.0
 40
3.0
  1
GF26
100
AcDbText
  0
LWPOLYLINE
  5
115
330
17
100
AcDbEntity
  8
GARFOS OK
100
AcDbPolyline
 90
5
 70
0
 10
4044.969547793103
 20
0.0
 10
4051.969547793103
 20
0.0
 10
4051.969547793103
 20
179.0
 10
4044.969547793103
 20
179.0
 10
4044.969547793103
 20
0.0
  0
HATCH
  5
116
330
17
100
AcDbEntity
  8
COTA
 62
7
100
AcDbHatch
 10
0.0
 20
0.0
 30
0.0
210
0.0
220
0.0
230
1.0
  2
ANSI31
 70
0
 71
0
 91
1
 92
3
 72
0
 73
1
 93
4
 10
4044.969547793103
 20
0.0
 10
4051.969547793103
 20
0.0
 10
4051.969547793103
 20
179.0
 10
4044.969547793103
 20
179.0
 97
0
 75
1
 76
1
 52
0.0
 41
0.5
 77
0
 78
1
 53
45.0
 43
0.0
 44
0.0
 45
-1.1225320152
 46
1.1225320152
 79
0
 98
0
  0
LINE
  5
117
330
17
100
AcDbEntity
  8
GARFOS OK
100
AcDbLine
 10
4048.469547793103
 20
172.0
 30
0.0
 11
4038.969547793103
 21
179.0
 31
0.0
  0
LINE
  5
118
330
17
100
AcDbEntity
  8
GARFOS OK
100
AcDbLine
 10
4048.469547793103
 20
172.0
 30
0.0
 11
4057.969547793103
 21
179.0
 31
0.0
  0
LINE
  5
119
330
17
100
AcDbEntity
  8
GARFOS OK
100
AcDbLine
 10
4038.969547793103
 20
179.0
 30
0.0
 11
4057.969547793103
 21
179.0
 31
0.0
  0
LWPOLYLINE
  5
11A
330
17
100
AcDbEntity
  8
SARR_7x7
100
AcDbPolyline
 90
5
 70
0
 10
4044.969547793103
 20
-7.0
 10
4051.969547793103
 20
-7.0
 10
4051.969547793103
 20
0.0
 10
4044.969547793103
 20
0.0
 10
4044.969547793103
 20
-7.0
  0
LINE
  5
11B
330
17
100
AcDbEntity
  8
BARRA_ANCORAGEM
100
AcDbLine
 10
4048.469547793103
 20
71.60000000000001
 30
0.0
 11
4075.319547793103
 21
125.30000000000001
 31
0.0
  0
TEXT
  5
11C
330
17
100
AcDbEntity
  8
NOME DA VIGA
100
AcDbText
 10
4048.469547793103
 20
-12.0
 30
0.0
 40
3.0
  1
GF27
100
AcDbText
  0
LWPOLYLINE
  5
11D
330
17
100
AcDbEntity
  8
GARFOS OK
100
AcDbPolyline
 90
5
 70
0
 10
4199.526068862068
 20
0.0
 10
4206.526068862068
 20
0.0
 10
4206.526068862068
 20
179.0
 10
4199.526068862068
 20
179.0
 10
4199.526068862068
 20
0.0
  0
HATCH
  5
11E
330
17
100
AcDbEntity
  8
COTA
 62
7
100
AcDbHatch
 10
0.0
 20
0.0
 30
0.0
210
0.0
220
0.0
230
1.0
  2
ANSI31
 70
0
 71
0
 91
1
 92
3
 72
0
 73
1
 93
4
 10
4199.526068862068
 20
0.0
 10
4206.526068862068
 20
0.0
 10
4206.526068862068
 20
179.0
 10
4199.526068862068
 20
179.0
 97
0
 75
1
 76
1
 52
0.0
 41
0.5
 77
0
 78
1
 53
45.0
 43
0.0
 44
0.0
 45
-1.1225320152
 46
1.1225320152
 79
0
 98
0
  0
LINE
  5
11F
330
17
100
AcDbEntity
  8
GARFOS OK
100
AcDbLine
 10
4203.026068862068
 20
172.0
 30
0.0
 11
4193.526068862068
 21
179.0
 31
0.0
  0
LINE
  5
120
330
17
100
AcDbEntity
  8
GARFOS OK
100
AcDbLine
 10
4203.026068862068
 20
172.0
 30
0.0
 11
4212.526068862068
 21
179.0
 31
0.0
  0
LINE
  5
121
330
17
100
AcDbEntity
  8
GARFOS OK
100
AcDbLine
 10
4193.526068862068
 20
179.0
 30
0.0
 11
4212.526068862068
 21
179.0
 31
0.0
  0
LWPOLYLINE
  5
122
330
17
100
AcDbEntity
  8
SARR_7x7
100
AcDbPolyline
 90
5
 70
0
 10
4199.526068862068
 20
-7.0
 10
4206.526068862068
 20
-7.0
 10
4206.526068862068
 20
0.0
 10
4199.526068862068
 20
0.0
 10
4199.526068862068
 20
-7.0
  0
LINE
  5
123
330
17
100
AcDbEntity
  8
BARRA_ANCORAGEM
100
AcDbLine
 10
4203.026068862068
 20
71.60000000000001
 30
0.0
 11
4229.876068862069
 21
125.30000000000001
 31
0.0
  0
TEXT
  5
124
330
17
100
AcDbEntity
  8
NOME DA VIGA
100
AcDbText
 10
4203.026068862068
 20
-12.0
 30
0.0
 40
3.0
  1
GF28
100
AcDbText
  0
LWPOLYLINE
  5
125
330
17
100
AcDbEntity
  8
GARFOS OK
100
AcDbPolyline
 90
5
 70
0
 10
4354.082589931034
 20
0.0
 10
4361.082589931034
 20
0.0
 10
4361.082589931034
 20
179.0
 10
4354.082589931034
 20
179.0
 10
4354.082589931034
 20
0.0
  0
HATCH
  5
126
330
17
100
AcDbEntity
  8
COTA
 62
7
100
AcDbHatch
 10
0.0
 20
0.0
 30
0.0
210
0.0
220
0.0
230
1.0
  2
ANSI31
 70
0
 71
0
 91
1
 92
3
 72
0
 73
1
 93
4
 10
4354.082589931034
 20
0.0
 10
4361.082589931034
 20
0.0
 10
4361.082589931034
 20
179.0
 10
4354.082589931034
 20
179.0
 97
0
 75
1
 76
1
 52
0.0
 41
0.5
 77
0
 78
1
 53
45.0
 43
0.0
 44
0.0
 45
-1.1225320152
 46
1.1225320152
 79
0
 98
0
  0
LINE
  5
127
330
17
100
AcDbEntity
  8
GARFOS OK
100
AcDbLine
 10
4357.582589931034
 20
172.0
 30
0.0
 11
4348.082589931034
 21
179.0
 31
0.0
  0
LINE
  5
128
330
17
100
AcDbEntity
  8
GARFOS OK
100
AcDbLine
 10
4357.582589931034
 20
172.0
 30
0.0
 11
4367.082589931034
 21
179.0
 31
0.0
  0
LINE
  5
129
330
17
100
AcDbEntity
  8
GARFOS OK
100
AcDbLine
 10
4348.082589931034
 20
179.0
 30
0.0
 11
4367.082589931034
 21
179.0
 31
0.0
  0
LWPOLYLINE
  5
12A
330
17
100
AcDbEntity
  8
SARR_7x7
100
AcDbPolyline
 90
5
 70
0
 10
4354.082589931034
 20
-7.0
 10
4361.082589931034
 20
-7.0
 10
4361.082589931034
 20
0.0
 10
4354.082589931034
 20
0.0
 10
4354.082589931034
 20
-7.0
  0
LINE
  5
12B
330
17
100
AcDbEntity
  8
BARRA_ANCORAGEM
100
AcDbLine
 10
4357.582589931034
 20
71.60000000000001
 30
0.0
 11
4384.432589931034
 21
125.30000000000001
 31
0.0
  0
TEXT
  5
12C
330
17
100
AcDbEntity
  8
NOME DA VIGA
100
AcDbText
 10
4357.582589931034
 20
-12.0
 30
0.0
 40
3.0
  1
GF29
100
AcDbText
  0
LWPOLYLINE
  5
12D
330
17
100
AcDbEntity
  8
GARFOS OK
100
AcDbPolyline
 90
5
 70
0
 10
4508.6391109999995
 20
0.0
 10
4515.6391109999995
 20
0.0
 10
4515.6391109999995
 20
179.0
 10
4508.6391109999995
 20
179.0
 10
4508.6391109999995
 20
0.0
  0
HATCH
  5
12E
330
17
100
AcDbEntity
  8
COTA
 62
7
100
AcDbHatch
 10
0.0
 20
0.0
 30
0.0
210
0.0
220
0.0
230
1.0
  2
ANSI31
 70
0
 71
0
 91
1
 92
3
 72
0
 73
1
 93
4
 10
4508.6391109999995
 20
0.0
 10
4515.6391109999995
 20
0.0
 10
4515.6391109999995
 20
179.0
 10
4508.6391109999995
 20
179.0
 97
0
 75
1
 76
1
 52
0.0
 41
0.5
 77
0
 78
1
 53
45.0
 43
0.0
 44
0.0
 45
-1.1225320152
 46
1.1225320152
 79
0
 98
0
  0
LINE
  5
12F
330
17
100
AcDbEntity
  8
GARFOS OK
100
AcDbLine
 10
4512.1391109999995
 20
172.0
 30
0.0
 11
4502.6391109999995
 21
179.0
 31
0.0
  0
LINE
  5
130
330
17
100
AcDbEntity
  8
GARFOS OK
100
AcDbLine
 10
4512.1391109999995
 20
172.0
 30
0.0
 11
4521.6391109999995
 21
179.0
 31
0.0
  0
LINE
  5
131
330
17
100
AcDbEntity
  8
GARFOS OK
100
AcDbLine
 10
4502.6391109999995
 20
179.0
 30
0.0
 11
4521.6391109999995
 21
179.0
 31
0.0
  0
LWPOLYLINE
  5
132
330
17
100
AcDbEntity
  8
SARR_7x7
100
AcDbPolyline
 90
5
 70
0
 10
4508.6391109999995
 20
-7.0
 10
4515.6391109999995
 20
-7.0
 10
4515.6391109999995
 20
0.0
 10
4508.6391109999995
 20
0.0
 10
4508.6391109999995
 20
-7.0
  0
LINE
  5
133
330
17
100
AcDbEntity
  8
BARRA_ANCORAGEM
100
AcDbLine
 10
4512.1391109999995
 20
71.60000000000001
 30
0.0
 11
4538.989111
 21
125.30000000000001
 31
0.0
  0
TEXT
  5
134
330
17
100
AcDbEntity
  8
NOME DA VIGA
100
AcDbText
 10
4512.1391109999995
 20
-12.0
 30
0.0
 40
3.0
  1
GF30
100
AcDbText
  0
LWPOLYLINE
  5
135
330
17
100
AcDbEntity
  8
TIRAS REESCORAMENTO
100
AcDbPolyline
 90
5
 70
0
 10
30.0
 20
100.0
 10
184.5565210689655
 20
100.0
 10
184.5565210689655
 20
102.5
 10
30.0
 20
102.5
 10
30.0
 20
100.0
  0
LWPOLYLINE
  5
136
330
17
100
AcDbEntity
  8
TIRAS REESCORAMENTO
100
AcDbPolyline
 90
5
 70
0
 10
184.5565210689655
 20
100.0
 10
339.113042137931
 20
100.0
 10
339.113042137931
 20
102.5
 10
184.5565210689655
 20
102.5
 10
184.5565210689655
 20
100.0
  0
LWPOLYLINE
  5
137
330
17
100
AcDbEntity
  8
TIRAS REESCORAMENTO
100
AcDbPolyline
 90
5
 70
0
 10
339.113042137931
 20
100.0
 10
493.66956320689656
 20
100.0
 10
493.66956320689656
 20
102.5
 10
339.113042137931
 20
102.5
 10
339.113042137931
 20
100.0
  0
LWPOLYLINE
  5
138
330
17
100
AcDbEntity
  8
TIRAS REESCORAMENTO
100
AcDbPolyline
 90
5
 70
0
 10
493.66956320689656
 20
100.0
 10
648.226084275862
 20
100.0
 10
648.226084275862
 20
102.5
 10
493.66956320689656
 20
102.5
 10
493.66956320689656
 20
100.0
  0
LWPOLYLINE
  5
139
330
17
100
AcDbEntity
  8
TIRAS REESCORAMENTO
100
AcDbPolyline
 90
5
 70
0
 10
648.226084275862
 20
100.0
 10
802.7826053448275
 20
100.0
 10
802.7826053448275
 20
102.5
 10
648.226084275862
 20
102.5
 10
648.226084275862
 20
100.0
  0
LWPOLYLINE
  5
13A
330
17
100
AcDbEntity
  8
TIRAS REESCORAMENTO
100
AcDbPolyline
 90
5
 70
0
 10
802.7826053448275
 20
100.0
 10
957.3391264137931
 20
100.0
 10
957.3391264137931
 20
102.5
 10
802.7826053448275
 20
102.5
 10
802.7826053448275
 20
100.0
  0
LWPOLYLINE
  5
13B
330
17
100
AcDbEntity
  8
TIRAS REESCORAMENTO
100
AcDbPolyline
 90
5
 70
0
 10
957.3391264137931
 20
100.0
 10
1111.8956474827585
 20
100.0
 10
1111.8956474827585
 20
102.5
 10
957.3391264137931
 20
102.5
 10
957.3391264137931
 20
100.0
  0
LWPOLYLINE
  5
13C
330
17
100
AcDbEntity
  8
TIRAS REESCORAMENTO
100
AcDbPolyline
 90
5
 70
0
 10
1111.8956474827585
 20
100.0
 10
1266.452168551724
 20
100.0
 10
1266.452168551724
 20
102.5
 10
1111.8956474827585
 20
102.5
 10
1111.8956474827585
 20
100.0
  0
LWPOLYLINE
  5
13D
330
17
100
AcDbEntity
  8
TIRAS REESCORAMENTO
100
AcDbPolyline
 90
5
 70
0
 10
1266.452168551724
 20
100.0
 10
1421.0086896206897
 20
100.0
 10
1421.0086896206897
 20
102.5
 10
1266.452168551724
 20
102.5
 10
1266.452168551724
 20
100.0
  0
LWPOLYLINE
  5
13E
330
17
100
AcDbEntity
  8
TIRAS REESCORAMENTO
100
AcDbPolyline
 90
5
 70
0
 10
1421.0086896206897
 20
100.0
 10
1575.565210689655
 20
100.0
 10
1575.565210689655
 20
102.5
 10
1421.0086896206897
 20
102.5
 10
1421.0086896206897
 20
100.0
  0
LWPOLYLINE
  5
13F
330
17
100
AcDbEntity
  8
TIRAS REESCORAMENTO
100
AcDbPolyline
 90
5
 70
0
 10
1575.565210689655
 20
100.0
 10
1730.1217317586206
 20
100.0
 10
1730.1217317586206
 20
102.5
 10
1575.565210689655
 20
102.5
 10
1575.565210689655
 20
100.0
  0
LWPOLYLINE
  5
140
330
17
100
AcDbEntity
  8
TIRAS REESCORAMENTO
100
AcDbPolyline
 90
5
 70
0
 10
1730.1217317586206
 20
100.0
 10
1884.6782528275862
 20
100.0
 10
1884.6782528275862
 20
102.5
 10
1730.1217317586206
 20
102.5
 10
1730.1217317586206
 20
100.0
  0
LWPOLYLINE
  5
141
330
17
100
AcDbEntity
  8
TIRAS REESCORAMENTO
100
AcDbPolyline
 90
5
 70
0
 10
1884.6782528275862
 20
100.0
 10
2039.2347738965516
 20
100.0
 10
2039.2347738965516
 20
102.5
 10
1884.6782528275862
 20
102.5
 10
1884.6782528275862
 20
100.0
  0
LWPOLYLINE
  5
142
330
17
100
AcDbEntity
  8
TIRAS REESCORAMENTO
100
AcDbPolyline
 90
5
 70
0
 10
2039.2347738965516
 20
100.0
 10
2193.791294965517
 20
100.0
 10
2193.791294965517
 20
102.5
 10
2039.2347738965516
 20
102.5
 10
2039.2347738965516
 20
100.0
  0
LWPOLYLINE
  5
143
330
17
100
AcDbEntity
  8
TIRAS REESCORAMENTO
100
AcDbPolyline
 90
5
 70
0
 10
2193.791294965517
 20
100.0
 10
2348.3478160344825
 20
100.0
 10
2348.3478160344825
 20
102.5
 10
2193.791294965517
 20
102.5
 10
2193.791294965517
 20
100.0
  0
LWPOLYLINE
  5
144
330
17
100
AcDbEntity
  8
TIRAS REESCORAMENTO
100
AcDbPolyline
 90
5
 70
0
 10
2348.3478160344825
 20
100.0
 10
2502.904337103448
 20
100.0
 10
2502.904337103448
 20
102.5
 10
2348.3478160344825
 20
102.5
 10
2348.3478160344825
 20
100.0
  0
LWPOLYLINE
  5
145
330
17
100
AcDbEntity
  8
TIRAS REESCORAMENTO
100
AcDbPolyline
 90
5
 70
0
 10
2502.904337103448
 20
100.0
 10
2657.4608581724137
 20
100.0
 10
2657.4608581724137
 20
102.5
 10
2502.904337103448
 20
102.5
 10
2502.904337103448
 20
100.0
  0
LWPOLYLINE
  5
146
330
17
100
AcDbEntity
  8
TIRAS REESCORAMENTO
100
AcDbPolyline
 90
5
 70
0
 10
2657.4608581724137
 20
100.0
 10
2812.0173792413793
 20
100.0
 10
2812.0173792413793
 20
102.5
 10
2657.4608581724137
 20
102.5
 10
2657.4608581724137
 20
100.0
  0
LWPOLYLINE
  5
147
330
17
100
AcDbEntity
  8
TIRAS REESCORAMENTO
100
AcDbPolyline
 90
5
 70
0
 10
2812.0173792413793
 20
100.0
 10
2966.5739003103445
 20
100.0
 10
2966.5739003103445
 20
102.5
 10
2812.0173792413793
 20
102.5
 10
2812.0173792413793
 20
100.0
  0
LWPOLYLINE
  5
148
330
17
100
AcDbEntity
  8
TIRAS REESCORAMENTO
100
AcDbPolyline
 90
5
 70
0
 10
2966.5739003103445
 20
100.0
 10
3121.13042137931
 20
100.0
 10
3121.13042137931
 20
102.5
 10
2966.5739003103445
 20
102.5
 10
2966.5739003103445
 20
100.0
  0
LWPOLYLINE
  5
149
330
17
100
AcDbEntity
  8
TIRAS REESCORAMENTO
100
AcDbPolyline
 90
5
 70
0
 10
3121.13042137931
 20
100.0
 10
3275.6869424482757
 20
100.0
 10
3275.6869424482757
 20
102.5
 10
3121.13042137931
 20
102.5
 10
3121.13042137931
 20
100.0
  0
LWPOLYLINE
  5
14A
330
17
100
AcDbEntity
  8
TIRAS REESCORAMENTO
100
AcDbPolyline
 90
5
 70
0
 10
3275.6869424482757
 20
100.0
 10
3430.2434635172413
 20
100.0
 10
3430.2434635172413
 20
102.5
 10
3275.6869424482757
 20
102.5
 10
3275.6869424482757
 20
100.0
  0
LWPOLYLINE
  5
14B
330
17
100
AcDbEntity
  8
TIRAS REESCORAMENTO
100
AcDbPolyline
 90
5
 70
0
 10
3430.2434635172413
 20
100.0
 10
3584.799984586207
 20
100.0
 10
3584.799984586207
 20
102.5
 10
3430.2434635172413
 20
102.5
 10
3430.2434635172413
 20
100.0
  0
LWPOLYLINE
  5
14C
330
17
100
AcDbEntity
  8
TIRAS REESCORAMENTO
100
AcDbPolyline
 90
5
 70
0
 10
3584.799984586207
 20
100.0
 10
3739.3565056551724
 20
100.0
 10
3739.3565056551724
 20
102.5
 10
3584.799984586207
 20
102.5
 10
3584.799984586207
 20
100.0
  0
LWPOLYLINE
  5
14D
330
17
100
AcDbEntity
  8
TIRAS REESCORAMENTO
100
AcDbPolyline
 90
5
 70
0
 10
3739.3565056551724
 20
100.0
 10
3893.9130267241376
 20
100.0
 10
3893.9130267241376
 20
102.5
 10
3739.3565056551724
 20
102.5
 10
3739.3565056551724
 20
100.0
  0
LWPOLYLINE
  5
14E
330
17
100
AcDbEntity
  8
TIRAS REESCORAMENTO
100
AcDbPolyline
 90
5
 70
0
 10
3893.9130267241376
 20
100.0
 10
4048.469547793103
 20
100.0
 10
4048.469547793103
 20
102.5
 10
3893.9130267241376
 20
102.5
 10
3893.9130267241376
 20
100.0
  0
LWPOLYLINE
  5
14F
330
17
100
AcDbEntity
  8
TIRAS REESCORAMENTO
100
AcDbPolyline
 90
5
 70
0
 10
4048.469547793103
 20
100.0
 10
4203.026068862068
 20
100.0
 10
4203.026068862068
 20
102.5
 10
4048.469547793103
 20
102.5
 10
4048.469547793103
 20
100.0
  0
LWPOLYLINE
  5
150
330
17
100
AcDbEntity
  8
TIRAS REESCORAMENTO
100
AcDbPolyline
 90
5
 70
0
 10
4203.026068862068
 20
100.0
 10
4357.582589931034
 20
100.0
 10
4357.582589931034
 20
102.5
 10
4203.026068862068
 20
102.5
 10
4203.026068862068
 20
100.0
  0
LWPOLYLINE
  5
151
330
17
100
AcDbEntity
  8
TIRAS REESCORAMENTO
100
AcDbPolyline
 90
5
 70
0
 10
4357.582589931034
 20
100.0
 10
4512.1391109999995
 20
100.0
 10
4512.1391109999995
 20
102.5
 10
4357.582589931034
 20
102.5
 10
4357.582589931034
 20
100.0
  0
LINE
  5
152
330
17
100
AcDbEntity
  8
GARFOS OK
  6
CONTINUOUS
100
AcDbLine
 10
-30.0
 20
-7.0
 30
0.0
 11
4572.1391109999995
 21
-7.0
 31
0.0
  0
DIMENSION
  5
153
330
17
100
AcDbEntity
  8
COTA
100
AcDbDimension
280
0
  2
*D1
  3
EZ DXF
 10
15.0
 20
0.0
 30
0.0
 11
9.0
 21
89.5
 31
0.0
 70
32
 71
5
  1
<>
100
AcDbAlignedDimension
 13
30.0
 23
0.0
 33
0.0
 14
30.0
 24
179.0
 34
0.0
 50
90.0
100
AcDbRotatedDimension
  0
DIMENSION
  5
166
330
17
100
AcDbEntity
  8
COTA
100
AcDbDimension
280
0
  2
*D2
  3
EZ DXF
 10
30.0
 20
-22.0
 30
0.0
 11
107.27826053448275
 21
-16.0
 31
0.0
 70
32
 71
5
  1
<>
100
AcDbAlignedDimension
 13
30.0
 23
-7.0
 33
0.0
 14
184.5565210689655
 24
-7.0
 34
0.0
 50
0.0
100
AcDbRotatedDimension
  0
DIMENSION
  5
175
330
17
100
AcDbEntity
  8
COTA
100
AcDbDimension
280
0
  2
*D3
  3
EZ DXF
 10
184.5565210689655
 20
-22.0
 30
0.0
 11
261.8347816034483
 21
-16.0
 31
0.0
 70
32
 71
5
  1
<>
100
AcDbAlignedDimension
 13
184.5565210689655
 23
-7.0
 33
0.0
 14
339.113042137931
 24
-7.0
 34
0.0
 50
0.0
100
AcDbRotatedDimension
  0
DIMENSION
  5
184
330
17
100
AcDbEntity
  8
COTA
100
AcDbDimension
280
0
  2
*D4
  3
EZ DXF
 10
339.113042137931
 20
-22.0
 30
0.0
 11
416.39130267241376
 21
-16.0
 31
0.0
 70
32
 71
5
  1
<>
100
AcDbAlignedDimension
 13
339.113042137931
 23
-7.0
 33
0.0
 14
493.66956320689656
 24
-7.0
 34
0.0
 50
0.0
100
AcDbRotatedDimension
  0
DIMENSION
  5
193
330
17
100
AcDbEntity
  8
COTA
100
AcDbDimension
280
0
  2
*D5
  3
EZ DXF
 10
493.66956320689656
 20
-22.0
 30
0.0
 11
570.9478237413794
 21
-16.0
 31
0.0
 70
32
 71
5
  1
<>
100
AcDbAlignedDimension
 13
493.66956320689656
 23
-7.0
 33
0.0
 14
648.226084275862
 24
-7.0
 34
0.0
 50
0.0
100
AcDbRotatedDimension
  0
DIMENSION
  5
1A2
330
17
100
AcDbEntity
  8
COTA
100
AcDbDimension
280
0
  2
*D6
  3
EZ DXF
 10
648.226084275862
 20
-22.0
 30
0.0
 11
725.5043448103447
 21
-16.0
 31
0.0
 70
32
 71
5
  1
<>
100
AcDbAlignedDimension
 13
648.226084275862
 23
-7.0
 33
0.0
 14
802.7826053448275
 24
-7.0
 34
0.0
 50
0.0
100
AcDbRotatedDimension
  0
DIMENSION
  5
1B1
330
17
100
AcDbEntity
  8
COTA
100
AcDbDimension
280
0
  2
*D7
  3
EZ DXF
 10
802.7826053448275
 20
-22.0
 30
0.0
 11
880.0608658793103
 21
-16.0
 31
0.0
 70
32
 71
5
  1
<>
100
AcDbAlignedDimension
 13
802.7826053448275
 23
-7.0
 33
0.0
 14
957.3391264137931
 24
-7.0
 34
0.0
 50
0.0
100
AcDbRotatedDimension
  0
DIMENSION
  5
1C0
330
17
100
AcDbEntity
  8
COTA
100
AcDbDimension
280
0
  2
*D8
  3
EZ DXF
 10
957.3391264137931
 20
-22.0
 30
0.0
 11
1034.617386948276
 21
-16.0
 31
0.0
 70
32
 71
5
  1
<>
100
AcDbAlignedDimension
 13
957.3391264137931
 23
-7.0
 33
0.0
 14
1111.8956474827585
 24
-7.0
 34
0.0
 50
0.0
100
AcDbRotatedDimension
  0
DIMENSION
  5
1CF
330
17
100
AcDbEntity
  8
COTA
100
AcDbDimension
280
0
  2
*D9
  3
EZ DXF
 10
1111.8956474827585
 20
-22.0
 30
0.0
 11
1189.1739080172413
 21
-16.0
 31
0.0
 70
32
 71
5
  1
<>
100
AcDbAlignedDimension
 13
1111.8956474827585
 23
-7.0
 33
0.0
 14
1266.452168551724
 24
-7.0
 34
0.0
 50
0.0
100
AcDbRotatedDimension
  0
DIMENSION
  5
1DE
330
17
100
AcDbEntity
  8
COTA
100
AcDbDimension
280
0
  2
*D10
  3
EZ DXF
 10
1266.452168551724
 20
-22.0
 30
0.0
 11
1343.7304290862069
 21
-16.0
 31
0.0
 70
32
 71
5
  1
<>
100
AcDbAlignedDimension
 13
1266.452168551724
 23
-7.0
 33
0.0
 14
1421.0086896206897
 24
-7.0
 34
0.0
 50
0.0
100
AcDbRotatedDimension
  0
DIMENSION
  5
1ED
330
17
100
AcDbEntity
  8
COTA
100
AcDbDimension
280
0
  2
*D11
  3
EZ DXF
 10
1421.0086896206897
 20
-22.0
 30
0.0
 11
1498.2869501551722
 21
-16.0
 31
0.0
 70
32
 71
5
  1
<>
100
AcDbAlignedDimension
 13
1421.0086896206897
 23
-7.0
 33
0.0
 14
1575.565210689655
 24
-7.0
 34
0.0
 50
0.0
100
AcDbRotatedDimension
  0
DIMENSION
  5
1FC
330
17
100
AcDbEntity
  8
COTA
100
AcDbDimension
280
0
  2
*D12
  3
EZ DXF
 10
1575.565210689655
 20
-22.0
 30
0.0
 11
1652.8434712241378
 21
-16.0
 31
0.0
 70
32
 71
5
  1
<>
100
AcDbAlignedDimension
 13
1575.565210689655
 23
-7.0
 33
0.0
 14
1730.1217317586206
 24
-7.0
 34
0.0
 50
0.0
100
AcDbRotatedDimension
  0
DIMENSION
  5
20B
330
17
100
AcDbEntity
  8
COTA
100
AcDbDimension
280
0
  2
*D13
  3
EZ DXF
 10
1730.1217317586206
 20
-22.0
 30
0.0
 11
1807.3999922931034
 21
-16.0
 31
0.0
 70
32
 71
5
  1
<>
100
AcDbAlignedDimension
 13
1730.1217317586206
 23
-7.0
 33
0.0
 14
1884.6782528275862
 24
-7.0
 34
0.0
 50
0.0
100
AcDbRotatedDimension
  0
DIMENSION
  5
21A
330
17
100
AcDbEntity
  8
COTA
100
AcDbDimension
280
0
  2
*D14
  3
EZ DXF
 10
1884.6782528275862
 20
-22.0
 30
0.0
 11
1961.956513362069
 21
-16.0
 31
0.0
 70
32
 71
5
  1
<>
100
AcDbAlignedDimension
 13
1884.6782528275862
 23
-7.0
 33
0.0
 14
2039.2347738965516
 24
-7.0
 34
0.0
 50
0.0
100
AcDbRotatedDimension
  0
DIMENSION
  5
229
330
17
100
AcDbEntity
  8
COTA
100
AcDbDimension
280
0
  2
*D15
  3
EZ DXF
 10
2039.2347738965516
 20
-22.0
 30
0.0
 11
2116.513034431034
 21
-16.0
 31
0.0
 70
32
 71
5
  1
<>
100
AcDbAlignedDimension
 13
2039.2347738965516
 23
-7.0
 33
0.0
 14
2193.791294965517
 24
-7.0
 34
0.0
 50
0.0
100
AcDbRotatedDimension
  0
DIMENSION
  5
238
330
17
100
AcDbEntity
  8
COTA
100
AcDbDimension
280
0
  2
*D16
  3
EZ DXF
 10
2193.791294965517
 20
-22.0
 30
0.0
 11
2271.0695554999998
 21
-16.0
 31
0.0
 70
32
 71
5
  1
<>
100
AcDbAlignedDimension
 13
2193.791294965517
 23
-7.0
 33
0.0
 14
2348.3478160344825
 24
-7.0
 34
0.0
 50
0.0
100
AcDbRotatedDimension
  0
DIMENSION
  5
247
330
17
100
AcDbEntity
  8
COTA
100
AcDbDimension
280
0
  2
*D17
  3
EZ DXF
 10
2348.3478160344825
 20
-22.0
 30
0.0
 11
2425.6260765689653
 21
-16.0
 31
0.0
 70
32
 71
5
  1
<>
100
AcDbAlignedDimension
 13
2348.3478160344825
 23
-7.0
 33
0.0
 14
2502.904337103448
 24
-7.0
 34
0.0
 50
0.0
100
AcDbRotatedDimension
  0
DIMENSION
  5
256
330
17
100
AcDbEntity
  8
COTA
100
AcDbDimension
280
0
  2
*D18
  3
EZ DXF
 10
2502.904337103448
 20
-22.0
 30
0.0
 11
2580.182597637931
 21
-16.0
 31
0.0
 70
32
 71
5
  1
<>
100
AcDbAlignedDimension
 13
2502.904337103448
 23
-7.0
 33
0.0
 14
2657.4608581724137
 24
-7.0
 34
0.0
 50
0.0
100
AcDbRotatedDimension
  0
DIMENSION
  5
265
330
17
100
AcDbEntity
  8
COTA
100
AcDbDimension
280
0
  2
*D19
  3
EZ DXF
 10
2657.4608581724137
 20
-22.0
 30
0.0
 11
2734.7391187068965
 21
-16.0
 31
0.0
 70
32
 71
5
  1
<>
100
AcDbAlignedDimension
 13
2657.4608581724137
 23
-7.0
 33
0.0
 14
2812.0173792413793
 24
-7.0
 34
0.0
 50
0.0
100
AcDbRotatedDimension
  0
DIMENSION
  5
274
330
17
100
AcDbEntity
  8
COTA
100
AcDbDimension
280
0
  2
*D20
  3
EZ DXF
 10
2812.0173792413793
 20
-22.0
 30
0.0
 11
2889.2956397758617
 21
-16.0
 31
0.0
 70
32
 71
5
  1
<>
100
AcDbAlignedDimension
 13
2812.0173792413793
 23
-7.0
 33
0.0
 14
2966.5739003103445
 24
-7.0
 34
0.0
 50
0.0
100
AcDbRotatedDimension
  0
DIMENSION
  5
283
330
17
100
AcDbEntity
  8
COTA
100
AcDbDimension
280
0
  2
*D21
  3
EZ DXF
 10
2966.5739003103445
 20
-22.0
 30
0.0
 11
3043.8521608448273
 21
-16.0
 31
0.0
 70
32
 71
5
  1
<>
100
AcDbAlignedDimension
 13
2966.5739003103445
 23
-7.0
 33
0.0
 14
3121.13042137931
 24
-7.0
 34
0.0
 50
0.0
100
AcDbRotatedDimension
  0
DIMENSION
  5
292
330
17
100
AcDbEntity
  8
COTA
100
AcDbDimension
280
0
  2
*D22
  3
EZ DXF
 10
3121.13042137931
 20
-22.0
 30
0.0
 11
3198.408681913793
 21
-16.0
 31
0.0
 70
32
 71
5
  1
<>
100
AcDbAlignedDimension
 13
3121.13042137931
 23
-7.0
 33
0.0
 14
3275.6869424482757
 24
-7.0
 34
0.0
 50
0.0
100
AcDbRotatedDimension
  0
DIMENSION
  5
2A1
330
17
100
AcDbEntity
  8
COTA
100
AcDbDimension
280
0
  2
*D23
  3
EZ DXF
 10
3275.6869424482757
 20
-22.0
 30
0.0
 11
3352.9652029827585
 21
-16.0
 31
0.0
 70
32
 71
5
  1
<>
100
AcDbAlignedDimension
 13
3275.6869424482757
 23
-7.0
 33
0.0
 14
3430.2434635172413
 24
-7.0
 34
0.0
 50
0.0
100
AcDbRotatedDimension
  0
DIMENSION
  5
2B0
330
17
100
AcDbEntity
  8
COTA
100
AcDbDimension
280
0
  2
*D24
  3
EZ DXF
 10
3430.2434635172413
 20
-22.0
 30
0.0
 11
3507.521724051724
 21
-16.0
 31
0.0
 70
32
 71
5
  1
<>
100
AcDbAlignedDimension
 13
3430.2434635172413
 23
-7.0
 33
0.0
 14
3584.799984586207
 24
-7.0
 34
0.0
 50
0.0
100
AcDbRotatedDimension
  0
DIMENSION
  5
2BF
330
17
100
AcDbEntity
  8
COTA
100
AcDbDimension
280
0
  2
*D25
  3
EZ DXF
 10
3584.799984586207
 20
-22.0
 30
0.0
 11
3662.0782451206896
 21
-16.0
 31
0.0
 70
32
 71
5
  1
<>
100
AcDbAlignedDimension
 13
3584.799984586207
 23
-7.0
 33
0.0
 14
3739.3565056551724
 24
-7.0
 34
0.0
 50
0.0
100
AcDbRotatedDimension
  0
DIMENSION
  5
2CE
330
17
100
AcDbEntity
  8
COTA
100
AcDbDimension
280
0
  2
*D26
  3
EZ DXF
 10
3739.3565056551724
 20
-22.0
 30
0.0
 11
3816.6347661896552
 21
-16.0
 31
0.0
 70
32
 71
5
  1
<>
100
AcDbAlignedDimension
 13
3739.3565056551724
 23
-7.0
 33
0.0
 14
3893.9130267241376
 24
-7.0
 34
0.0
 50
0.0
100
AcDbRotatedDimension
  0
DIMENSION
  5
2DD
330
17
100
AcDbEntity
  8
COTA
100
AcDbDimension
280
0
  2
*D27
  3
EZ DXF
 10
3893.9130267241376
 20
-22.0
 30
0.0
 11
3971.1912872586204
 21
-16.0
 31
0.0
 70
32
 71
5
  1
<>
100
AcDbAlignedDimension
 13
3893.9130267241376
 23
-7.0
 33
0.0
 14
4048.469547793103
 24
-7.0
 34
0.0
 50
0.0
100
AcDbRotatedDimension
  0
DIMENSION
  5
2EC
330
17
100
AcDbEntity
  8
COTA
100
AcDbDimension
280
0
  2
*D28
  3
EZ DXF
 10
4048.469547793103
 20
-22.0
 30
0.0
 11
4125.7478083275855
 21
-16.0
 31
0.0
 70
32
 71
5
  1
<>
100
AcDbAlignedDimension
 13
4048.469547793103
 23
-7.0
 33
0.0
 14
4203.026068862068
 24
-7.0
 34
0.0
 50
0.0
100
AcDbRotatedDimension
  0
DIMENSION
  5
2FB
330
17
100
AcDbEntity
  8
COTA
100
AcDbDimension
280
0
  2
*D29
  3
EZ DXF
 10
4203.026068862068
 20
-22.0
 30
0.0
 11
4280.304329396551
 21
-16.0
 31
0.0
 70
32
 71
5
  1
<>
100
AcDbAlignedDimension
 13
4203.026068862068
 23
-7.0
 33
0.0
 14
4357.582589931034
 24
-7.0
 34
0.0
 50
0.0
100
AcDbRotatedDimension
  0
DIMENSION
  5
30A
330
17
100
AcDbEntity
  8
COTA
100
AcDbDimension
280
0
  2
*D30
  3
EZ DXF
 10
4357.582589931034
 20
-22.0
 30
0.0
 11
4434.860850465517
 21
-16.0
 31
0.0
 70
32
 71
5
  1
<>
100
AcDbAlignedDimension
 13
4357.582589931034
 23
-7.0
 33
0.0
 14
4512.1391109999995
 24
-7.0
 34
0.0
 50
0.0
100
AcDbRotatedDimension
  0
TEXT
  5
319
330
17
100
AcDbEntity
  8
NOME DA VIGA
100
AcDbText
 10
2271.0695554999998
 20
283.0
 30
0.0
 40
4.0
  1
30 PECAS
100
AcDbText
  0
MTEXT
  5
31A
330
17
100
AcDbEntity
  8
NOME DA VIGA
100
AcDbMText
 10
0.0
 20
293.0
 30
0.0
 40
5.0
 71
7
  1
GARFOS - V363 - 01_PAV\PSarrafo: 7x7 | Esp: 150cm | Forq: dupla
  0
ENDSEC
  0
SECTION
  2
OBJECTS
  0
DICTIONARY
  5
A
330
0
100
AcDbDictionary
281
1
  3
ACAD_COLOR
350
B
  3
ACAD_GROUP
350
C
  3
ACAD_LAYOUT
350
D
  3
ACAD_MATERIAL
350
E
  3
ACAD_MLEADERSTYLE
350
F
  3
ACAD_MLINESTYLE
350
10
  3
ACAD_PLOTSETTINGS
350
11
  3
ACAD_PLOTSTYLENAME
350
12
  3
ACAD_SCALELIST
350
14
  3
ACAD_TABLESTYLE
350
15
  3
ACAD_VISUALSTYLE
350
16
  3
EZDXF_META
350
2D
  0
DICTIONARY
  5
B
330
A
100
AcDbDictionary
281
1
  0
DICTIONARY
  5
C
330
A
100
AcDbDictionary
281
1
  0
DICTIONARY
  5
D
330
A
100
AcDbDictionary
281
1
  3
Model
350
1A
  3
Layout1
350
1E
  0
DICTIONARY
  5
E
330
A
100
AcDbDictionary
281
1
  3
ByBlock
350
1F
  3
ByLayer
350
20
  3
Global
350
21
  0
DICTIONARY
  5
F
330
A
100
AcDbDictionary
281
1
  3
Standard
350
2C
  0
DICTIONARY
  5
10
330
A
100
AcDbDictionary
281
1
  3
Standard
350
22
  0
DICTIONARY
  5
11
330
A
100
AcDbDictionary
281
1
  0
ACDBDICTIONARYWDFLT
  5
12
330
A
100
AcDbDictionary
281
1
  3
Normal
350
13
100
AcDbDictionaryWithDefault
340
13
  0
ACDBPLACEHOLDER
  5
13
330
12
  0
DICTIONARY
  5
14
330
A
100
AcDbDictionary
281
1
  0
DICTIONARY
  5
15
330
A
100
AcDbDictionary
281
1
  0
DICTIONARY
  5
16
330
A
100
AcDbDictionary
281
1
  0
LAYOUT
  5
1A
330
D
100
AcDbPlotSettings
  1

  4
A3
  6

 40
7.5
 41
20.0
 42
7.5
 43
20.0
 44
420.0
 45
297.0
 46
0.0
 47
0.0
 48
0.0
 49
0.0
140
0.0
141
0.0
142
1.0
143
1.0
 70
1024
 72
1
 73
0
 74
5
  7

 75
16
 76
0
 77
2
 78
300
147
1.0
148
0.0
149
0.0
100
AcDbLayout
  1
Model
 70
1
 71
0
 10
0.0
 20
0.0
 11
420.0
 21
297.0
 12
0.0
 22
0.0
 32
0.0
 14
1e+20
 24
1e+20
 34
1e+20
 15
-1e+20
 25
-1e+20
 35
-1e+20
146
0.0
 13
0.0
 23
0.0
 33
0.0
 16
1.0
 26
0.0
 36
0.0
 17
0.0
 27
1.0
 37
0.0
 76
1
330
17
  0
LAYOUT
  5
1E
330
D
100
AcDbPlotSettings
  1

  4
A3
  6

 40
7.5
 41
20.0
 42
7.5
 43
20.0
 44
420.0
 45
297.0
 46
0.0
 47
0.0
 48
0.0
 49
0.0
140
0.0
141
0.0
142
1.0
143
1.0
 70
0
 72
1
 73
0
 74
5
  7

 75
16
 76
0
 77
2
 78
300
147
1.0
148
0.0
149
0.0
100
AcDbLayout
  1
Layout1
 70
1
 71
1
 10
0.0
 20
0.0
 11
420.0
 21
297.0
 12
0.0
 22
0.0
 32
0.0
 14
1e+20
 24
1e+20
 34
1e+20
 15
-1e+20
 25
-1e+20
 35
-1e+20
146
0.0
 13
0.0
 23
0.0
 33
0.0
 16
1.0
 26
0.0
 36
0.0
 17
0.0
 27
1.0
 37
0.0
 76
1
330
1B
  0
MATERIAL
  5
1F
102
{ACAD_REACTORS
330
E
102
}
330
E
100
AcDbMaterial
  1
ByBlock
  2

 70
0
 40
1.0
 71
1
 41
1.0
 91
-1023410177
 42
1.0
 72
1
  3

 73
1
 74
1
 75
1
 44
0.5
 73
0
 45
1.0
 46
1.0
 77
1
  4

 78
1
 79
1
170
1
 48
1.0
171
1
  6

172
1
173
1
174
1
140
1.0
141
1.0
175
1
  7

176
1
177
1
178
1
143
1.0
179
1
  8

270
1
271
1
272
1
145
1.0
146
1.0
273
1
  9

274
1
275
1
276
1
 42
1.0
 72
1
  3

 73
1
 74
1
 75
1
 94
63
  0
MATERIAL
  5
20
102
{ACAD_REACTORS
330
E
102
}
330
E
100
AcDbMaterial
  1
ByLayer
  2

 70
0
 40
1.0
 71
1
 41
1.0
 91
-1023410177
 42
1.0
 72
1
  3

 73
1
 74
1
 75
1
 44
0.5
 73
0
 45
1.0
 46
1.0
 77
1
  4

 78
1
 79
1
170
1
 48
1.0
171
1
  6

172
1
173
1
174
1
140
1.0
141
1.0
175
1
  7

176
1
177
1
178
1
143
1.0
179
1
  8

270
1
271
1
272
1
145
1.0
146
1.0
273
1
  9

274
1
275
1
276
1
 42
1.0
 72
1
  3

 73
1
 74
1
 75
1
 94
63
  0
MATERIAL
  5
21
102
{ACAD_REACTORS
330
E
102
}
330
E
100
AcDbMaterial
  1
Global
  2

 70
0
 40
1.0
 71
1
 41
1.0
 91
-1023410177
 42
1.0
 72
1
  3

 73
1
 74
1
 75
1
 44
0.5
 73
0
 45
1.0
 46
1.0
 77
1
  4

 78
1
 79
1
170
1
 48
1.0
171
1
  6

172
1
173
1
174
1
140
1.0
141
1.0
175
1
  7

176
1
177
1
178
1
143
1.0
179
1
  8

270
1
271
1
272
1
145
1.0
146
1.0
273
1
  9

274
1
275
1
276
1
 42
1.0
 72
1
  3

 73
1
 74
1
 75
1
 94
63
  0
MLINESTYLE
  5
22
102
{ACAD_REACTORS
330
10
102
}
330
10
100
AcDbMlineStyle
  2
Standard
 70
0
  3

 62
256
 51
90.0
 52
90.0
 71
2
 49
0.5
 62
256
  6
BYLAYER
 49
-0.5
 62
256
  6
BYLAYER
  0
MLEADERSTYLE
  5
2C
102
{ACAD_REACTORS
330
F
102
}
330
F
100
AcDbMLeaderStyle
179
2
170
2
171
1
172
0
 90
2
 40
0.0
 41
0.0
173
1
 91
-1056964608
 92
-2
290
1
 42
2.0
291
1
 43
8.0
  3
Standard
 44
4.0
300

342
29
174
1
175
1
176
0
178
1
 93
-1056964608
 45
4.0
292
0
297
0
 46
4.0
 94
-1056964608
 47
1.0
 49
1.0
140
1.0
294
1
141
0.0
177
0
142
1.0
295
0
296
0
143
3.75
271
0
272
9
273
9
  0
DICTIONARY
  5
2D
330
A
100
AcDbDictionary
280
1
281
1
  3
CREATED_BY_EZDXF
350
2E
  3
WRITTEN_BY_EZDXF
350
31D
  0
DICTIONARYVAR
  5
2E
330
2D
100
DictionaryVariables
280
0
  1
1.4.2 @ 2026-02-20T22:55:38.991147+00:00
  0
DICTIONARYVAR
  5
31D
330
2D
100
DictionaryVariables
280
0
  1
1.4.2 @ 2026-02-20T22:55:39.028173+00:00
  0
ENDSEC
  0
EOF
