  0
SECTION
  2
HEADER
  9
$ACADVER
  1
AC1024
  9
$ACADMAINTVER
 70
6
  9
$DWGCODEPAGE
  3
ANSI_1252
  9
$LASTSAVEDBY
  1
ezdxf
  9
$INSBASE
 10
0.0
 20
0.0
 30
0.0
  9
$EXTMIN
 10
1e+20
 20
1e+20
 30
1e+20
  9
$EXTMAX
 10
-1e+20
 20
-1e+20
 30
-1e+20
  9
$LIMMIN
 10
0.0
 20
0.0
  9
$LIMMAX
 10
420.0
 20
297.0
  9
$ORTHOMODE
 70
0
  9
$REGENMODE
 70
1
  9
$FILLMODE
 70
1
  9
$QTEXTMODE
 70
0
  9
$MIRRTEXT
 70
1
  9
$LTSCALE
 40
1.0
  9
$ATTMODE
 70
1
  9
$TEXTSIZE
 40
2.5
  9
$TRACEWID
 40
1.0
  9
$TEXTSTYLE
  7
Standard
  9
$CLAYER
  8
0
  9
$CELTYPE
  6
ByLayer
  9
$CECOLOR
 62
256
  9
$CELTSCALE
 40
1.0
  9
$DISPSILH
 70
0
  9
$DIMSCALE
 40
1.0
  9
$DIMASZ
 40
2.5
  9
$DIMEXO
 40
0.625
  9
$DIMDLI
 40
3.75
  9
$DIMRND
 40
0.0
  9
$DIMDLE
 40
0.0
  9
$DIMEXE
 40
1.25
  9
$DIMTP
 40
0.0
  9
$DIMTM
 40
0.0
  9
$DIMTXT
 40
2.5
  9
$DIMCEN
 40
2.5
  9
$DIMTSZ
 40
0.0
  9
$DIMTOL
 70
0
  9
$DIMLIM
 70
0
  9
$DIMTIH
 70
0
  9
$DIMTOH
 70
0
  9
$DIMSE1
 70
0
  9
$DIMSE2
 70
0
  9
$DIMTAD
 70
1
  9
$DIMZIN
 70
8
  9
$DIMBLK
  1

  9
$DIMASO
 70
1
  9
$DIMSHO
 70
1
  9
$DIMPOST
  1

  9
$DIMAPOST
  1

  9
$DIMALT
 70
0
  9
$DIMALTD
 70
3
  9
$DIMALTF
 40
0.03937007874
  9
$DIMLFAC
 40
1.0
  9
$DIMTOFL
 70
1
  9
$DIMTVP
 40
0.0
  9
$DIMTIX
 70
0
  9
$DIMSOXD
 70
0
  9
$DIMSAH
 70
0
  9
$DIMBLK1
  1

  9
$DIMBLK2
  1

  9
$DIMSTYLE
  2
ISO-25
  9
$DIMCLRD
 70
0
  9
$DIMCLRE
 70
0
  9
$DIMCLRT
 70
0
  9
$DIMTFAC
 40
1.0
  9
$DIMGAP
 40
0.625
  9
$DIMJUST
 70
0
  9
$DIMSD1
 70
0
  9
$DIMSD2
 70
0
  9
$DIMTOLJ
 70
0
  9
$DIMTZIN
 70
8
  9
$DIMALTZ
 70
0
  9
$DIMALTTZ
 70
0
  9
$DIMUPT
 70
0
  9
$DIMDEC
 70
2
  9
$DIMTDEC
 70
2
  9
$DIMALTU
 70
2
  9
$DIMALTTD
 70
3
  9
$DIMTXSTY
  7
Standard
  9
$DIMAUNIT
 70
0
  9
$DIMADEC
 70
0
  9
$DIMALTRND
 40
0.0
  9
$DIMAZIN
 70
0
  9
$DIMDSEP
 70
44
  9
$DIMATFIT
 70
3
  9
$DIMFRAC
 70
0
  9
$DIMLDRBLK
  1

  9
$DIMLUNIT
 70
2
  9
$DIMLWD
 70
-2
  9
$DIMLWE
 70
-2
  9
$DIMTMOVE
 70
0
  9
$DIMFXL
 40
1.0
  9
$DIMFXLON
 70
0
  9
$DIMJOGANG
 40
0.785398163397
  9
$DIMTFILL
 70
0
  9
$DIMTFILLCLR
 70
0
  9
$DIMARCSYM
 70
0
  9
$DIMLTYPE
  6

  9
$DIMLTEX1
  6

  9
$DIMLTEX2
  6

  9
$DIMTXTDIRECTION
 70
0
  9
$LUNITS
 70
2
  9
$LUPREC
 70
4
  9
$SKETCHINC
 40
1.0
  9
$FILLETRAD
 40
10.0
  9
$AUNITS
 70
0
  9
$AUPREC
 70
2
  9
$MENU
  1
.
  9
$ELEVATION
 40
0.0
  9
$PELEVATION
 40
0.0
  9
$THICKNESS
 40
0.0
  9
$LIMCHECK
 70
0
  9
$CHAMFERA
 40
0.0
  9
$CHAMFERB
 40
0.0
  9
$CHAMFERC
 40
0.0
  9
$CHAMFERD
 40
0.0
  9
$SKPOLY
 70
0
  9
$TDCREATE
 40
2461210.5421296298
  9
$TDUCREATE
 40
2458532.153996898
  9
$TDUPDATE
 40
2461210.5421296298
  9
$TDUUPDATE
 40
2458532.1544311
  9
$TDINDWG
 40
0.0
  9
$TDUSRTIMER
 40
0.0
  9
$USRTIMER
 70
1
  9
$ANGBASE
 50
0.0
  9
$ANGDIR
 70
0
  9
$PDMODE
 70
0
  9
$PDSIZE
 40
0.0
  9
$PLINEWID
 40
0.0
  9
$SPLFRAME
 70
0
  9
$SPLINETYPE
 70
6
  9
$SPLINESEGS
 70
8
  9
$HANDSEED
  5
1F6
  9
$SURFTAB1
 70
6
  9
$SURFTAB2
 70
6
  9
$SURFTYPE
 70
6
  9
$SURFU
 70
6
  9
$SURFV
 70
6
  9
$UCSBASE
  2

  9
$UCSNAME
  2

  9
$UCSORG
 10
0.0
 20
0.0
 30
0.0
  9
$UCSXDIR
 10
1.0
 20
0.0
 30
0.0
  9
$UCSYDIR
 10
0.0
 20
1.0
 30
0.0
  9
$UCSORTHOREF
  2

  9
$UCSORTHOVIEW
 70
0
  9
$UCSORGTOP
 10
0.0
 20
0.0
 30
0.0
  9
$UCSORGBOTTOM
 10
0.0
 20
0.0
 30
0.0
  9
$UCSORGLEFT
 10
0.0
 20
0.0
 30
0.0
  9
$UCSORGRIGHT
 10
0.0
 20
0.0
 30
0.0
  9
$UCSORGFRONT
 10
0.0
 20
0.0
 30
0.0
  9
$UCSORGBACK
 10
0.0
 20
0.0
 30
0.0
  9
$PUCSBASE
  2

  9
$PUCSNAME
  2

  9
$PUCSORG
 10
0.0
 20
0.0
 30
0.0
  9
$PUCSXDIR
 10
1.0
 20
0.0
 30
0.0
  9
$PUCSYDIR
 10
0.0
 20
1.0
 30
0.0
  9
$PUCSORTHOREF
  2

  9
$PUCSORTHOVIEW
 70
0
  9
$PUCSORGTOP
 10
0.0
 20
0.0
 30
0.0
  9
$PUCSORGBOTTOM
 10
0.0
 20
0.0
 30
0.0
  9
$PUCSORGLEFT
 10
0.0
 20
0.0
 30
0.0
  9
$PUCSORGRIGHT
 10
0.0
 20
0.0
 30
0.0
  9
$PUCSORGFRONT
 10
0.0
 20
0.0
 30
0.0
  9
$PUCSORGBACK
 10
0.0
 20
0.0
 30
0.0
  9
$USERI1
 70
0
  9
$USERI2
 70
0
  9
$USERI3
 70
0
  9
$USERI4
 70
0
  9
$USERI5
 70
0
  9
$USERR1
 40
0.0
  9
$USERR2
 40
0.0
  9
$USERR3
 40
0.0
  9
$USERR4
 40
0.0
  9
$USERR5
 40
0.0
  9
$WORLDVIEW
 70
1
  9
$SHADEDGE
 70
3
  9
$SHADEDIF
 70
70
  9
$TILEMODE
 70
1
  9
$MAXACTVP
 70
64
  9
$PINSBASE
 10
0.0
 20
0.0
 30
0.0
  9
$PLIMCHECK
 70
0
  9
$PEXTMIN
 10
1e+20
 20
1e+20
 30
1e+20
  9
$PEXTMAX
 10
-1e+20
 20
-1e+20
 30
-1e+20
  9
$PLIMMIN
 10
0.0
 20
0.0
  9
$PLIMMAX
 10
420.0
 20
297.0
  9
$UNITMODE
 70
0
  9
$VISRETAIN
 70
1
  9
$PLINEGEN
 70
0
  9
$PSLTSCALE
 70
1
  9
$TREEDEPTH
 70
3020
  9
$CMLSTYLE
  2
Standard
  9
$CMLJUST
 70
0
  9
$CMLSCALE
 40
20.0
  9
$PROXYGRAPHICS
 70
1
  9
$MEASUREMENT
 70
1
  9
$CELWEIGHT
370
-1
  9
$ENDCAPS
280
0
  9
$JOINSTYLE
280
0
  9
$LWDISPLAY
290
0
  9
$INSUNITS
 70
6
  9
$HYPERLINKBASE
  1

  9
$STYLESHEET
  1

  9
$XEDIT
290
1
  9
$CEPSNTYPE
380
0
  9
$PSTYLEMODE
290
1
  9
$FINGERPRINTGUID
  2
{D8E0F643-4BF1-470E-BF5E-F45E9614FC45}
  9
$VERSIONGUID
  2
{78CF9B3B-AC72-4E98-A03B-93CDD7C2E1AA}
  9
$EXTNAMES
290
1
  9
$PSVPSCALE
 40
0.0
  9
$OLESTARTUP
290
0
  9
$SORTENTS
280
127
  9
$INDEXCTL
280
0
  9
$HIDETEXT
280
1
  9
$XCLIPFRAME
280
1
  9
$HALOGAP
280
0
  9
$OBSCOLOR
 70
257
  9
$OBSLTYPE
280
0
  9
$INTERSECTIONDISPLAY
280
0
  9
$INTERSECTIONCOLOR
 70
257
  9
$DIMASSOC
280
2
  9
$PROJECTNAME
  1

  9
$CAMERADISPLAY
290
0
  9
$LENSLENGTH
 40
50.0
  9
$CAMERAHEIGHT
 40
0.0
  9
$STEPSPERSEC
 40
24.0
  9
$STEPSIZE
 40
100.0
  9
$3DDWFPREC
 40
2.0
  9
$PSOLWIDTH
 40
0.005
  9
$PSOLHEIGHT
 40
0.08
  9
$LOFTANG1
 40
1.570796326795
  9
$LOFTANG2
 40
1.570796326795
  9
$LOFTMAG1
 40
0.0
  9
$LOFTMAG2
 40
0.0
  9
$LOFTPARAM
 70
7
  9
$LOFTNORMALS
280
1
  9
$LATITUDE
 40
37.795
  9
$LONGITUDE
 40
-122.394
  9
$NORTHDIRECTION
 40
0.0
  9
$TIMEZONE
 70
-8000
  9
$LIGHTGLYPHDISPLAY
280
1
  9
$TILEMODELIGHTSYNCH
280
1
  9
$CMATERIAL
347
20
  9
$SOLIDHIST
280
0
  9
$SHOWHIST
280
1
  9
$DWFFRAME
280
2
  9
$DGNFRAME
280
2
  9
$REALWORLDSCALE
290
1
  9
$INTERFERECOLOR
 62
256
  9
$CSHADOW
280
0
  9
$SHADOWPLANELOCATION
 40
0.0
  0
ENDSEC
  0
SECTION
  2
CLASSES
  0
CLASS
  1
ACDBDICTIONARYWDFLT
  2
AcDbDictionaryWithDefault
  3
ObjectDBX Classes
 90
0
 91
0
280
0
281
0
  0
CLASS
  1
SUN
  2
AcDbSun
  3
SCENEOE
 90
1153
 91
0
280
0
281
0
  0
CLASS
  1
VISUALSTYLE
  2
AcDbVisualStyle
  3
ObjectDBX Classes
 90
4095
 91
0
280
0
281
0
  0
CLASS
  1
MATERIAL
  2
AcDbMaterial
  3
ObjectDBX Classes
 90
1153
 91
0
280
0
281
0
  0
CLASS
  1
SCALE
  2
AcDbScale
  3
ObjectDBX Classes
 90
1153
 91
0
280
0
281
0
  0
CLASS
  1
TABLESTYLE
  2
AcDbTableStyle
  3
ObjectDBX Classes
 90
4095
 91
0
280
0
281
0
  0
CLASS
  1
MLEADERSTYLE
  2
AcDbMLeaderStyle
  3
ACDB_MLEADERSTYLE_CLASS
 90
4095
 91
0
280
0
281
0
  0
CLASS
  1
DICTIONARYVAR
  2
AcDbDictionaryVar
  3
ObjectDBX Classes
 90
0
 91
0
280
0
281
0
  0
CLASS
  1
CELLSTYLEMAP
  2
AcDbCellStyleMap
  3
ObjectDBX Classes
 90
1152
 91
0
280
0
281
0
  0
CLASS
  1
MENTALRAYRENDERSETTINGS
  2
AcDbMentalRayRenderSettings
  3
SCENEOE
 90
1024
 91
0
280
0
281
0
  0
CLASS
  1
ACDBDETAILVIEWSTYLE
  2
AcDbDetailViewStyle
  3
ObjectDBX Classes
 90
1025
 91
0
280
0
281
0
  0
CLASS
  1
ACDBSECTIONVIEWSTYLE
  2
AcDbSectionViewStyle
  3
ObjectDBX Classes
 90
1025
 91
0
280
0
281
0
  0
CLASS
  1
RASTERVARIABLES
  2
AcDbRasterVariables
  3
ISM
 90
0
 91
0
280
0
281
0
  0
CLASS
  1
ACDBPLACEHOLDER
  2
AcDbPlaceHolder
  3
ObjectDBX Classes
 90
0
 91
0
280
0
281
0
  0
CLASS
  1
LAYOUT
  2
AcDbLayout
  3
ObjectDBX Classes
 90
0
 91
0
280
0
281
0
  0
ENDSEC
  0
SECTION
  2
TABLES
  0
TABLE
  2
VPORT
  5
8
330
0
100
AcDbSymbolTable
 70
1
  0
VPORT
  5
23
330
8
100
AcDbSymbolTableRecord
100
AcDbViewportTableRecord
  2
*Active
 70
0
 10
0.0
 20
0.0
 11
1.0
 21
1.0
 12
0.0
 22
0.0
 13
0.0
 23
0.0
 14
0.5
 24
0.5
 15
0.5
 25
0.5
 16
0.0
 26
0.0
 36
1.0
 17
0.0
 27
0.0
 37
0.0
 40
1000.0
 41
1.34
 42
50.0
 43
0.0
 44
0.0
 50
0.0
 51
0.0
 71
0
 72
1000
 73
1
 74
3
 75
0
 76
0
 77
0
 78
0
281
0
 65
0
146
0.0
  0
ENDTAB
  0
TABLE
  2
LTYPE
  5
2
330
0
100
AcDbSymbolTable
 70
3
  0
LTYPE
  5
24
330
2
100
AcDbSymbolTableRecord
100
AcDbLinetypeTableRecord
  2
ByBlock
 70
0
  3

 72
65
 73
0
 40
0.0
  0
LTYPE
  5
25
330
2
100
AcDbSymbolTableRecord
100
AcDbLinetypeTableRecord
  2
ByLayer
 70
0
  3

 72
65
 73
0
 40
0.0
  0
LTYPE
  5
26
330
2
100
AcDbSymbolTableRecord
100
AcDbLinetypeTableRecord
  2
Continuous
 70
0
  3

 72
65
 73
0
 40
0.0
  0
ENDTAB
  0
TABLE
  2
LAYER
  5
1
330
0
100
AcDbSymbolTable
 70
8
  0
LAYER
  5
27
330
1
100
AcDbSymbolTableRecord
100
AcDbLayerTableRecord
  2
0
 70
0
 62
7
  6
Continuous
370
-3
390
13
347
21
  0
LAYER
  5
28
330
1
100
AcDbSymbolTableRecord
100
AcDbLayerTableRecord
  2
Defpoints
 70
0
 62
7
  6
Continuous
290
0
370
-3
390
13
347
21
  0
LAYER
  5
2F
330
1
100
AcDbSymbolTableRecord
100
AcDbLayerTableRecord
  2
AUX00
 70
0
 62
7
  6
Continuous
370
-3
390
13
347
21
  0
LAYER
  5
30
330
1
100
AcDbSymbolTableRecord
100
AcDbLayerTableRecord
  2
Painéis
 70
0
 62
7
  6
Continuous
370
-3
390
13
347
21
  0
LAYER
  5
31
330
1
100
AcDbSymbolTableRecord
100
AcDbLayerTableRecord
  2
4
 70
0
 62
7
  6
Continuous
370
-3
390
13
347
21
  0
LAYER
  5
32
330
1
100
AcDbSymbolTableRecord
100
AcDbLayerTableRecord
  2
7
 70
0
 62
7
  6
Continuous
370
-3
390
13
347
21
  0
LAYER
  5
33
330
1
100
AcDbSymbolTableRecord
100
AcDbLayerTableRecord
  2
Hachura
 70
0
 62
7
  6
Continuous
370
-3
390
13
347
21
  0
LAYER
  5
34
330
1
100
AcDbSymbolTableRecord
100
AcDbLayerTableRecord
  2
3
 70
0
 62
7
  6
Continuous
370
-3
390
13
347
21
  0
ENDTAB
  0
TABLE
  2
STYLE
  5
5
330
0
100
AcDbSymbolTable
 70
1
  0
STYLE
  5
29
330
5
100
AcDbSymbolTableRecord
100
AcDbTextStyleTableRecord
  2
Standard
 70
0
 40
0.0
 41
1.0
 50
0.0
 71
0
 42
2.5
  3
txt
  4

  0
ENDTAB
  0
TABLE
  2
VIEW
  5
7
330
0
100
AcDbSymbolTable
 70
0
  0
ENDTAB
  0
TABLE
  2
UCS
  5
6
330
0
100
AcDbSymbolTable
 70
0
  0
ENDTAB
  0
TABLE
  2
APPID
  5
3
330
0
100
AcDbSymbolTable
 70
3
  0
APPID
  5
2A
330
3
100
AcDbSymbolTableRecord
100
AcDbRegAppTableRecord
  2
ACAD
 70
0
  0
APPID
  5
1F3
330
3
100
AcDbSymbolTableRecord
100
AcDbRegAppTableRecord
  2
HATCHBACKGROUNDCOLOR
 70
0
  0
APPID
  5
1F4
330
3
100
AcDbSymbolTableRecord
100
AcDbRegAppTableRecord
  2
EZDXF
 70
0
  0
ENDTAB
  0
TABLE
  2
DIMSTYLE
  5
4
330
0
100
AcDbSymbolTable
 70
1
100
AcDbDimStyleTable
  0
DIMSTYLE
105
2B
330
4
100
AcDbSymbolTableRecord
100
AcDbDimStyleTableRecord
  2
Standard
 70
0
 40
1.0
 41
2.5
 42
0.625
 43
3.75
 44
1.25
 45
0.0
 46
0.0
 47
0.0
 48
0.0
 49
2.5
140
2.5
141
2.5
142
0.0
143
0.03937007874
144
1.0
145
0.0
146
1.0
147
0.625
148
0.0
 69
0
 70
0
 71
0
 72
0
 73
0
 74
0
 75
0
 76
0
 77
1
 78
8
 79
3
170
0
171
3
172
1
173
0
174
0
175
0
176
0
177
0
178
0
179
2
271
2
272
2
273
2
274
3
275
0
276
0
277
2
278
44
279
0
280
0
281
0
282
0
283
0
284
8
285
0
286
0
288
0
289
3
290
0
371
-2
372
-2
  0
ENDTAB
  0
TABLE
  2
BLOCK_RECORD
  5
9
330
0
100
AcDbSymbolTable
 70
2
  0
BLOCK_RECORD
  5
17
330
9
100
AcDbSymbolTableRecord
100
AcDbBlockTableRecord
  2
*Model_Space
340
1A
 70
0
280
1
281
0
  0
BLOCK_RECORD
  5
1B
330
9
100
AcDbSymbolTableRecord
100
AcDbBlockTableRecord
  2
*Paper_Space
340
1E
 70
0
280
1
281
0
  0
ENDTAB
  0
ENDSEC
  0
SECTION
  2
BLOCKS
  0
BLOCK
  5
18
330
17
100
AcDbEntity
  8
0
100
AcDbBlockBegin
  2
*Model_Space
 70
0
 10
0.0
 20
0.0
 30
0.0
  3
*Model_Space
  1

  0
ENDBLK
  5
19
330
17
100
AcDbEntity
  8
0
100
AcDbBlockEnd
  0
BLOCK
  5
1C
330
1B
100
AcDbEntity
  8
0
100
AcDbBlockBegin
  2
*Paper_Space
 70
0
 10
0.0
 20
0.0
 30
0.0
  3
*Paper_Space
  1

  0
ENDBLK
  5
1D
330
1B
100
AcDbEntity
  8
0
100
AcDbBlockEnd
  0
ENDSEC
  0
SECTION
  2
ENTITIES
  0
LINE
  5
35
330
17
100
AcDbEntity
  8
Painéis
 62
200
370
25
100
AcDbLine
 10
6216.155537096016
 20
2678.165214700883
 30
0.0
 11
6216.155537096016
 21
2525.238457700883
 31
0.0
  0
LINE
  5
36
330
17
100
AcDbEntity
  8
3
 62
3
370
25
100
AcDbLine
 10
6933.666064096016
 20
2678.165214700883
 30
0.0
 11
6936.655537096015
 21
2681.154687700882
 31
0.0
  0
LINE
  5
37
330
17
100
AcDbEntity
  8
3
 62
3
370
25
100
AcDbLine
 10
6921.645249096016
 20
2678.165214700883
 30
0.0
 11
6936.655537096015
 21
2693.175502700882
 31
0.0
  0
LINE
  5
38
330
17
100
AcDbEntity
  8
3
 62
3
370
25
100
AcDbLine
 10
6909.624433096016
 20
2678.165214700883
 30
0.0
 11
6928.624433096016
 21
2697.165214700883
 31
0.0
  0
LINE
  5
39
330
17
100
AcDbEntity
  8
3
 62
3
370
25
100
AcDbLine
 10
6897.603618096017
 20
2678.165214700883
 30
0.0
 11
6916.603618096016
 21
2697.165214700883
 31
0.0
  0
LINE
  5
3A
330
17
100
AcDbEntity
  8
3
 62
3
370
25
100
AcDbLine
 10
6885.582803096017
 20
2678.165214700883
 30
0.0
 11
6904.582803096016
 21
2697.165214700883
 31
0.0
  0
LINE
  5
3B
330
17
100
AcDbEntity
  8
3
 62
3
370
25
100
AcDbLine
 10
6873.561988096017
 20
2678.165214700883
 30
0.0
 11
6892.561988096017
 21
2697.165214700883
 31
0.0
  0
LINE
  5
3C
330
17
100
AcDbEntity
  8
3
 62
3
370
25
100
AcDbLine
 10
6861.541172096017
 20
2678.165214700883
 30
0.0
 11
6880.541172096016
 21
2697.165214700883
 31
0.0
  0
LINE
  5
3D
330
17
100
AcDbEntity
  8
3
 62
3
370
25
100
AcDbLine
 10
6849.520357096017
 20
2678.165214700883
 30
0.0
 11
6868.520357096016
 21
2697.165214700883
 31
0.0
  0
LINE
  5
3E
330
17
100
AcDbEntity
  8
3
 62
3
370
25
100
AcDbLine
 10
6837.499542096015
 20
2678.165214700883
 30
0.0
 11
6856.499542096014
 21
2697.165214700883
 31
0.0
  0
LINE
  5
3F
330
17
100
AcDbEntity
  8
3
 62
3
370
25
100
AcDbLine
 10
6825.478726096017
 20
2678.165214700883
 30
0.0
 11
6844.478726096017
 21
2697.165214700883
 31
0.0
  0
LINE
  5
40
330
17
100
AcDbEntity
  8
3
 62
3
370
25
100
AcDbLine
 10
6816.655537096015
 20
2681.362840700882
 30
0.0
 11
6832.457911096017
 21
2697.165214700883
 31
0.0
  0
LINE
  5
41
330
17
100
AcDbEntity
  8
3
 62
3
370
25
100
AcDbLine
 10
6816.655537096015
 20
2693.383655700882
 30
0.0
 11
6820.437096096014
 21
2697.165214700883
 31
0.0
  0
LINE
  5
42
330
17
100
AcDbEntity
  8
3
 62
3
370
25
100
AcDbLine
 10
6444.187313096017
 20
2465.165214700883
 30
0.0
 11
6449.155537096015
 21
2470.133438700882
 31
0.0
  0
LINE
  5
43
330
17
100
AcDbEntity
  8
3
 62
3
370
25
100
AcDbLine
 10
6432.166497096016
 20
2465.165214700883
 30
0.0
 11
6444.166497096016
 21
2477.165214700883
 31
0.0
  0
LINE
  5
44
330
17
100
AcDbEntity
  8
3
 62
3
370
25
100
AcDbLine
 10
6430.155537096016
 20
2475.175069700882
 30
0.0
 11
6432.145682096015
 21
2477.165214700883
 31
0.0
  0
LINE
  5
45
330
17
100
AcDbEntity
  8
3
 62
3
370
25
100
AcDbLine
 10
6588.437096096017
 20
2465.165214700883
 30
0.0
 11
6597.155537096016
 21
2473.883655700882
 31
0.0
  0
LINE
  5
46
330
17
100
AcDbEntity
  8
3
 62
3
370
25
100
AcDbLine
 10
6578.155537096016
 20
2466.904470700882
 30
0.0
 11
6588.416281096015
 21
2477.165214700883
 31
0.0
  0
LINE
  5
47
330
17
100
AcDbEntity
  8
3
 62
3
370
25
100
AcDbLine
 10
6438.604485096014
 20
2796.165214700883
 30
0.0
 11
6449.155537096015
 21
2806.716266700881
 31
0.0
  0
LINE
  5
48
330
17
100
AcDbEntity
  8
3
 62
3
370
25
100
AcDbLine
 10
6430.155537096016
 20
2799.737082700882
 30
0.0
 11
6449.155537096015
 21
2818.737082700882
 31
0.0
  0
LINE
  5
49
330
17
100
AcDbEntity
  8
3
 62
3
370
25
100
AcDbLine
 10
6430.155537096016
 20
2811.757897700882
 30
0.0
 11
6449.155537096015
 21
2830.757897700882
 31
0.0
  0
LINE
  5
4A
330
17
100
AcDbEntity
  8
3
 62
3
370
25
100
AcDbLine
 10
6430.155537096016
 20
2823.778712700882
 30
0.0
 11
6449.155537096015
 21
2842.778712700882
 31
0.0
  0
LINE
  5
4B
330
17
100
AcDbEntity
  8
3
 62
3
370
25
100
AcDbLine
 10
6430.155537096016
 20
2835.799527700882
 30
0.0
 11
6449.155537096015
 21
2854.799527700882
 31
0.0
  0
LINE
  5
4C
330
17
100
AcDbEntity
  8
3
 62
3
370
25
100
AcDbLine
 10
6430.155537096016
 20
2847.820343700881
 30
0.0
 11
6449.155537096015
 21
2866.820343700882
 31
0.0
  0
LINE
  5
4D
330
17
100
AcDbEntity
  8
3
 62
3
370
25
100
AcDbLine
 10
6430.155537096016
 20
2859.841158700882
 30
0.0
 11
6449.155537096015
 21
2878.841158700881
 31
0.0
  0
LINE
  5
4E
330
17
100
AcDbEntity
  8
3
 62
3
370
25
100
AcDbLine
 10
6430.155537096016
 20
2871.861973700882
 30
0.0
 11
6449.155537096015
 21
2890.861973700882
 31
0.0
  0
LINE
  5
4F
330
17
100
AcDbEntity
  8
3
 62
3
370
25
100
AcDbLine
 10
6430.155537096016
 20
2883.882789700882
 30
0.0
 11
6442.437962096015
 21
2896.165214700883
 31
0.0
  0
LINE
  5
50
330
17
100
AcDbEntity
  8
3
 62
3
370
25
100
AcDbLine
 10
6430.155537096016
 20
2895.903604700882
 30
0.0
 11
6430.417147096015
 21
2896.165214700883
 31
0.0
  0
LINE
  5
51
330
17
100
AcDbEntity
  8
3
 62
3
370
25
100
AcDbLine
 10
6628.818032672481
 20
2866.82727021339
 30
0.0
 11
6628.818032672481
 21
2841.82727021339
 31
0.0
  0
LINE
  5
52
330
17
100
AcDbEntity
  8
3
 62
3
370
25
100
AcDbLine
 10
6616.318032672481
 20
2854.32727021339
 30
0.0
 11
6641.318032672481
 21
2854.32727021339
 31
0.0
  0
LINE
  5
53
330
17
100
AcDbEntity
  8
3
 62
3
370
25
100
AcDbLine
 10
6628.818032672481
 20
2866.21992321339
 30
0.0
 11
6632.66715767248
 21
2866.21992321339
 31
0.0
  0
LINE
  5
54
330
17
100
AcDbEntity
  8
3
 62
3
370
25
100
AcDbLine
 10
6628.818032672481
 20
2865.427074213391
 30
0.0
 11
6634.566495672482
 21
2865.427074213391
 31
0.0
  0
LINE
  5
55
330
17
100
AcDbEntity
  8
3
 62
3
370
25
100
AcDbLine
 10
6628.818032672481
 20
2864.63422521339
 30
0.0
 11
6635.890290672482
 21
2864.63422521339
 31
0.0
  0
LINE
  5
56
330
17
100
AcDbEntity
  8
3
 62
3
370
25
100
AcDbLine
 10
6628.818032672481
 20
2863.84136421339
 30
0.0
 11
6636.92555167248
 21
2863.84136421339
 31
0.0
  0
LINE
  5
57
330
17
100
AcDbEntity
  8
3
 62
3
370
25
100
AcDbLine
 10
6628.818032672481
 20
2863.04857421339
 30
0.0
 11
6637.77289167248
 21
2863.04857421339
 31
0.0
  0
LINE
  5
58
330
17
100
AcDbEntity
  8
3
 62
3
370
25
100
AcDbLine
 10
6628.818032672481
 20
2862.25572521339
 30
0.0
 11
6638.481900672481
 21
2862.25572521339
 31
0.0
  0
LINE
  5
59
330
17
100
AcDbEntity
  8
3
 62
3
370
25
100
AcDbLine
 10
6628.818032672481
 20
2861.462864213391
 30
0.0
 11
6639.081237672481
 21
2861.462864213391
 31
0.0
  0
LINE
  5
5A
330
17
100
AcDbEntity
  8
3
 62
3
370
25
100
AcDbLine
 10
6628.818032672481
 20
2860.670015213391
 30
0.0
 11
6639.58925967248
 21
2860.670015213391
 31
0.0
  0
LINE
  5
5B
330
17
100
AcDbEntity
  8
3
 62
3
370
25
100
AcDbLine
 10
6628.818032672481
 20
2859.87716621339
 30
0.0
 11
6640.018413672482
 21
2859.87716621339
 31
0.0
  0
LINE
  5
5C
330
17
100
AcDbEntity
  8
3
 62
3
370
25
100
AcDbLine
 10
6628.818032672481
 20
2859.08431721339
 30
0.0
 11
6640.377471672483
 21
2859.08431721339
 31
0.0
  0
LINE
  5
5D
330
17
100
AcDbEntity
  8
3
 62
3
370
25
100
AcDbLine
 10
6628.818032672481
 20
2858.291468213391
 30
0.0
 11
6640.672776672481
 21
2858.291468213391
 31
0.0
  0
LINE
  5
5E
330
17
100
AcDbEntity
  8
3
 62
3
370
25
100
AcDbLine
 10
6628.818032672481
 20
2857.49866721339
 30
0.0
 11
6640.90904967248
 21
2857.49866721339
 31
0.0
  0
LINE
  5
5F
330
17
100
AcDbEntity
  8
3
 62
3
370
25
100
AcDbLine
 10
6628.818032672481
 20
2856.70581821339
 30
0.0
 11
6641.089627672482
 21
2856.70581821339
 31
0.0
  0
LINE
  5
60
330
17
100
AcDbEntity
  8
3
 62
3
370
25
100
AcDbLine
 10
6628.818032672481
 20
2855.91296921339
 30
0.0
 11
6641.217038672481
 21
2855.91296921339
 31
0.0
  0
LINE
  5
61
330
17
100
AcDbEntity
  8
3
 62
3
370
25
100
AcDbLine
 10
6628.818032672481
 20
2855.120120213391
 30
0.0
 11
6641.318032672481
 21
2855.120120213391
 31
0.0
  0
LINE
  5
62
330
17
100
AcDbEntity
  8
3
 62
3
370
25
100
AcDbLine
 10
6628.817985672482
 20
2842.434666213391
 30
0.0
 11
6624.968907672481
 21
2842.434666213391
 31
0.0
  0
LINE
  5
63
330
17
100
AcDbEntity
  8
3
 62
3
370
25
100
AcDbLine
 10
6628.817985672482
 20
2843.22751521339
 30
0.0
 11
6623.069522672482
 21
2843.22751521339
 31
0.0
  0
LINE
  5
64
330
17
100
AcDbEntity
  8
3
 62
3
370
25
100
AcDbLine
 10
6628.817985672482
 20
2844.02036421339
 30
0.0
 11
6621.745727672482
 21
2844.02036421339
 31
0.0
  0
LINE
  5
65
330
17
100
AcDbEntity
  8
3
 62
3
370
25
100
AcDbLine
 10
6628.817985672482
 20
2844.813165213391
 30
0.0
 11
6620.71046667248
 21
2844.813165213391
 31
0.0
  0
LINE
  5
66
330
17
100
AcDbEntity
  8
3
 62
3
370
25
100
AcDbLine
 10
6628.817985672482
 20
2845.606074213391
 30
0.0
 11
6619.863126672481
 21
2845.606074213391
 31
0.0
  0
LINE
  5
67
330
17
100
AcDbEntity
  8
3
 62
3
370
25
100
AcDbLine
 10
6628.817985672482
 20
2846.39887521339
 30
0.0
 11
6619.154164672481
 21
2846.39887521339
 31
0.0
  0
LINE
  5
68
330
17
100
AcDbEntity
  8
3
 62
3
370
25
100
AcDbLine
 10
6628.817985672482
 20
2847.19172421339
 30
0.0
 11
6618.554780672481
 21
2847.19172421339
 31
0.0
  0
LINE
  5
69
330
17
100
AcDbEntity
  8
3
 62
3
370
25
100
AcDbLine
 10
6628.817985672482
 20
2847.98457321339
 30
0.0
 11
6618.04675867248
 21
2847.98457321339
 31
0.0
  0
LINE
  5
6A
330
17
100
AcDbEntity
  8
3
 62
3
370
25
100
AcDbLine
 10
6628.817985672482
 20
2848.777422213391
 30
0.0
 11
6617.617604672481
 21
2848.777422213391
 31
0.0
  0
LINE
  5
6B
330
17
100
AcDbEntity
  8
3
 62
3
370
25
100
AcDbLine
 10
6628.817985672482
 20
2849.57022421339
 30
0.0
 11
6617.258546672481
 21
2849.57022421339
 31
0.0
  0
LINE
  5
6C
330
17
100
AcDbEntity
  8
3
 62
3
370
25
100
AcDbLine
 10
6628.817985672482
 20
2850.36312121339
 30
0.0
 11
6616.963241672483
 21
2850.36312121339
 31
0.0
  0
LINE
  5
6D
330
17
100
AcDbEntity
  8
3
 62
3
370
25
100
AcDbLine
 10
6628.817985672482
 20
2851.15592221339
 30
0.0
 11
6616.72696867248
 21
2851.15592221339
 31
0.0
  0
LINE
  5
6E
330
17
100
AcDbEntity
  8
3
 62
3
370
25
100
AcDbLine
 10
6628.817985672482
 20
2851.948771213391
 30
0.0
 11
6616.546342672481
 21
2851.948771213391
 31
0.0
  0
LINE
  5
6F
330
17
100
AcDbEntity
  8
3
 62
3
370
25
100
AcDbLine
 10
6628.817985672482
 20
2852.74162021339
 30
0.0
 11
6616.41897967248
 21
2852.74162021339
 31
0.0
  0
LINE
  5
70
330
17
100
AcDbEntity
  8
3
 62
3
370
25
100
AcDbLine
 10
6628.817985672482
 20
2853.534469213391
 30
0.0
 11
6616.317985672482
 21
2853.534469213391
 31
0.0
  0
LINE
  5
71
330
17
100
AcDbEntity
  8
3
 62
3
370
25
100
AcDbLine
 10
6641.318032672481
 20
2854.32727021339
 30
0.0
 11
6706.62415667248
 21
2854.32727021339
 31
0.0
  0
LINE
  5
72
330
17
100
AcDbEntity
  8
3
 62
3
370
25
100
AcDbLine
 10
6616.318032672481
 20
2854.32727021339
 30
0.0
 11
6607.60515767248
 21
2854.32727021339
 31
0.0
  0
LINE
  5
73
330
17
100
AcDbEntity
  8
3
 62
3
370
25
100
AcDbLine
 10
6628.818032672481
 20
2866.82727021339
 30
0.0
 11
6628.818032672481
 21
2875.40802421339
 31
0.0
  0
LINE
  5
74
330
17
100
AcDbEntity
  8
3
 62
3
370
25
100
AcDbLine
 10
6628.818032672481
 20
2841.82727021339
 30
0.0
 11
6628.818032672481
 21
2833.60720621339
 31
0.0
  0
LINE
  5
75
330
17
100
AcDbEntity
  8
3
 62
3
370
25
100
AcDbLine
 10
6772.791853096016
 20
2546.264190700882
 30
0.0
 11
6772.791853096016
 21
2521.264190700882
 31
0.0
  0
LINE
  5
76
330
17
100
AcDbEntity
  8
3
 62
3
370
25
100
AcDbLine
 10
6760.291853096017
 20
2533.764190700882
 30
0.0
 11
6785.291853096016
 21
2533.764190700882
 31
0.0
  0
LINE
  5
77
330
17
100
AcDbEntity
  8
3
 62
3
370
25
100
AcDbLine
 10
6772.791853096016
 20
2545.656842700882
 30
0.0
 11
6776.640978096017
 21
2545.656842700882
 31
0.0
  0
LINE
  5
78
330
17
100
AcDbEntity
  8
3
 62
3
370
25
100
AcDbLine
 10
6772.791853096016
 20
2544.863993700882
 30
0.0
 11
6778.540316096016
 21
2544.863993700882
 31
0.0
  0
LINE
  5
79
330
17
100
AcDbEntity
  8
3
 62
3
370
25
100
AcDbLine
 10
6772.791853096016
 20
2544.071144700882
 30
0.0
 11
6779.864111096016
 21
2544.071144700882
 31
0.0
  0
LINE
  5
7A
330
17
100
AcDbEntity
  8
3
 62
3
370
25
100
AcDbLine
 10
6772.791853096016
 20
2543.278283700882
 30
0.0
 11
6780.899372096016
 21
2543.278283700882
 31
0.0
  0
LINE
  5
7B
330
17
100
AcDbEntity
  8
3
 62
3
370
25
100
AcDbLine
 10
6772.791853096016
 20
2542.485494700883
 30
0.0
 11
6781.746712096015
 21
2542.485494700883
 31
0.0
  0
LINE
  5
7C
330
17
100
AcDbEntity
  8
3
 62
3
370
25
100
AcDbLine
 10
6772.791853096016
 20
2541.692644700882
 30
0.0
 11
6782.455721096015
 21
2541.692644700882
 31
0.0
  0
LINE
  5
7D
330
17
100
AcDbEntity
  8
3
 62
3
370
25
100
AcDbLine
 10
6772.791853096016
 20
2540.899784700882
 30
0.0
 11
6783.055058096015
 21
2540.899784700882
 31
0.0
  0
LINE
  5
7E
330
17
100
AcDbEntity
  8
3
 62
3
370
25
100
AcDbLine
 10
6772.791853096016
 20
2540.106934700882
 30
0.0
 11
6783.563080096016
 21
2540.106934700882
 31
0.0
  0
LINE
  5
7F
330
17
100
AcDbEntity
  8
3
 62
3
370
25
100
AcDbLine
 10
6772.791853096016
 20
2539.314085700882
 30
0.0
 11
6783.992233096016
 21
2539.314085700882
 31
0.0
  0
LINE
  5
80
330
17
100
AcDbEntity
  8
3
 62
3
370
25
100
AcDbLine
 10
6772.791853096016
 20
2538.521236700883
 30
0.0
 11
6784.351292096016
 21
2538.521236700883
 31
0.0
  0
LINE
  5
81
330
17
100
AcDbEntity
  8
3
 62
3
370
25
100
AcDbLine
 10
6772.791853096016
 20
2537.728387700882
 30
0.0
 11
6784.646597096017
 21
2537.728387700882
 31
0.0
  0
LINE
  5
82
330
17
100
AcDbEntity
  8
3
 62
3
370
25
100
AcDbLine
 10
6772.791853096016
 20
2536.935586700882
 30
0.0
 11
6784.882870096017
 21
2536.935586700882
 31
0.0
  0
LINE
  5
83
330
17
100
AcDbEntity
  8
3
 62
3
370
25
100
AcDbLine
 10
6772.791853096016
 20
2536.142737700882
 30
0.0
 11
6785.063448096017
 21
2536.142737700882
 31
0.0
  0
LINE
  5
84
330
17
100
AcDbEntity
  8
3
 62
3
370
25
100
AcDbLine
 10
6772.791853096016
 20
2535.349888700882
 30
0.0
 11
6785.190859096016
 21
2535.349888700882
 31
0.0
  0
LINE
  5
85
330
17
100
AcDbEntity
  8
3
 62
3
370
25
100
AcDbLine
 10
6772.791853096016
 20
2534.557039700882
 30
0.0
 11
6785.291853096016
 21
2534.557039700882
 31
0.0
  0
LINE
  5
86
330
17
100
AcDbEntity
  8
3
 62
3
370
25
100
AcDbLine
 10
6772.791805096016
 20
2521.871585700882
 30
0.0
 11
6768.942728096016
 21
2521.871585700882
 31
0.0
  0
LINE
  5
87
330
17
100
AcDbEntity
  8
3
 62
3
370
25
100
AcDbLine
 10
6772.791805096016
 20
2522.664434700883
 30
0.0
 11
6767.043343096017
 21
2522.664434700883
 31
0.0
  0
LINE
  5
88
330
17
100
AcDbEntity
  8
3
 62
3
370
25
100
AcDbLine
 10
6772.791805096016
 20
2523.457283700882
 30
0.0
 11
6765.719547096016
 21
2523.457283700882
 31
0.0
  0
LINE
  5
89
330
17
100
AcDbEntity
  8
3
 62
3
370
25
100
AcDbLine
 10
6772.791805096016
 20
2524.250084700881
 30
0.0
 11
6764.684286096015
 21
2524.250084700881
 31
0.0
  0
LINE
  5
8A
330
17
100
AcDbEntity
  8
3
 62
3
370
25
100
AcDbLine
 10
6772.791805096016
 20
2525.042993700882
 30
0.0
 11
6763.836947096016
 21
2525.042993700882
 31
0.0
  0
LINE
  5
8B
330
17
100
AcDbEntity
  8
3
 62
3
370
25
100
AcDbLine
 10
6772.791805096016
 20
2525.835794700883
 30
0.0
 11
6763.127985096017
 21
2525.835794700883
 31
0.0
  0
LINE
  5
8C
330
17
100
AcDbEntity
  8
3
 62
3
370
25
100
AcDbLine
 10
6772.791805096016
 20
2526.628643700882
 30
0.0
 11
6762.528601096015
 21
2526.628643700882
 31
0.0
  0
LINE
  5
8D
330
17
100
AcDbEntity
  8
3
 62
3
370
25
100
AcDbLine
 10
6772.791805096016
 20
2527.421492700882
 30
0.0
 11
6762.020579096016
 21
2527.421492700882
 31
0.0
  0
LINE
  5
8E
330
17
100
AcDbEntity
  8
3
 62
3
370
25
100
AcDbLine
 10
6772.791805096016
 20
2528.214342700882
 30
0.0
 11
6761.591425096016
 21
2528.214342700882
 31
0.0
  0
LINE
  5
8F
330
17
100
AcDbEntity
  8
3
 62
3
370
25
100
AcDbLine
 10
6772.791805096016
 20
2529.007143700882
 30
0.0
 11
6761.232367096017
 21
2529.007143700882
 31
0.0
  0
LINE
  5
90
330
17
100
AcDbEntity
  8
3
 62
3
370
25
100
AcDbLine
 10
6772.791805096016
 20
2529.800040700882
 30
0.0
 11
6760.937061096015
 21
2529.800040700882
 31
0.0
  0
LINE
  5
91
330
17
100
AcDbEntity
  8
3
 62
3
370
25
100
AcDbLine
 10
6772.791805096016
 20
2530.592841700882
 30
0.0
 11
6760.700789096016
 21
2530.592841700882
 31
0.0
  0
LINE
  5
92
330
17
100
AcDbEntity
  8
3
 62
3
370
25
100
AcDbLine
 10
6772.791805096016
 20
2531.385690700882
 30
0.0
 11
6760.520163096017
 21
2531.385690700882
 31
0.0
  0
LINE
  5
93
330
17
100
AcDbEntity
  8
3
 62
3
370
25
100
AcDbLine
 10
6772.791805096016
 20
2532.178539700883
 30
0.0
 11
6760.392800096015
 21
2532.178539700883
 31
0.0
  0
LINE
  5
94
330
17
100
AcDbEntity
  8
3
 62
3
370
25
100
AcDbLine
 10
6772.791805096016
 20
2532.971388700882
 30
0.0
 11
6760.291805096016
 21
2532.971388700882
 31
0.0
  0
LINE
  5
95
330
17
100
AcDbEntity
  8
3
 62
3
370
25
100
AcDbLine
 10
6785.291853096016
 20
2533.764190700882
 30
0.0
 11
6850.597977096017
 21
2533.764190700882
 31
0.0
  0
LINE
  5
96
330
17
100
AcDbEntity
  8
3
 62
3
370
25
100
AcDbLine
 10
6760.291853096017
 20
2533.764190700882
 30
0.0
 11
6751.578977096016
 21
2533.764190700882
 31
0.0
  0
LINE
  5
97
330
17
100
AcDbEntity
  8
3
 62
3
370
25
100
AcDbLine
 10
6772.791853096016
 20
2546.264190700882
 30
0.0
 11
6772.791853096016
 21
2554.844943700882
 31
0.0
  0
LINE
  5
98
330
17
100
AcDbEntity
  8
3
 62
3
370
25
100
AcDbLine
 10
6772.791853096016
 20
2521.264190700882
 30
0.0
 11
6772.791853096016
 21
2513.044125700883
 31
0.0
  0
LINE
  5
99
330
17
100
AcDbEntity
  8
Painéis
 62
200
370
25
100
AcDbLine
 10
6449.155537096015
 20
2678.165214700883
 30
0.0
 11
6449.155537096015
 21
2525.238457700883
 31
0.0
  0
LINE
  5
9A
330
17
100
AcDbEntity
  8
Painéis
 62
200
370
25
100
AcDbLine
 10
6867.155537096016
 20
2876.165214700883
 30
0.0
 11
6449.155537096015
 21
2876.165214700883
 31
0.0
  0
LINE
  5
9B
330
17
100
AcDbEntity
  8
Painéis
 62
200
370
25
100
AcDbLine
 10
6745.155537096017
 20
3120.165214700883
 30
0.0
 11
6745.155537096017
 21
2697.165214700883
 31
0.0
  0
LINE
  5
9C
330
17
100
AcDbEntity
  8
Painéis
 62
200
370
25
100
AcDbLine
 10
6719.155537096016
 20
3120.165214700883
 30
0.0
 11
6719.155537096016
 21
2697.165214700883
 31
0.0
  0
LINE
  5
9D
330
17
100
AcDbEntity
  8
Painéis
 62
200
370
25
100
AcDbLine
 10
6597.155537096016
 20
3120.165214700883
 30
0.0
 11
6597.155537096016
 21
2697.165214700883
 31
0.0
  0
LINE
  5
9E
330
17
100
AcDbEntity
  8
Painéis
 62
200
370
25
100
AcDbLine
 10
6571.155537096015
 20
3120.165214700883
 30
0.0
 11
6571.155537096015
 21
2697.165214700883
 31
0.0
  0
LINE
  5
9F
330
17
100
AcDbEntity
  8
Painéis
 62
200
370
25
100
AcDbLine
 10
6449.155537096015
 20
2566.665214700883
 30
0.0
 11
7068.637039096016
 21
2566.665214700883
 31
0.0
  0
LINE
  5
A0
330
17
100
AcDbEntity
  8
Painéis
 62
200
370
25
100
AcDbLine
 10
6430.155537096016
 20
2465.165214700883
 30
0.0
 11
6430.155537096016
 21
2507.165214700883
 31
0.0
  0
LINE
  5
A1
330
17
100
AcDbEntity
  8
Painéis
 62
200
370
25
100
AcDbLine
 10
6308.155537096016
 20
2465.165214700883
 30
0.0
 11
6308.155537096016
 21
2507.165214700883
 31
0.0
  0
LINE
  5
A2
330
17
100
AcDbEntity
  8
Painéis
 62
200
370
25
100
AcDbLine
 10
6282.155537096016
 20
2465.165214700883
 30
0.0
 11
6282.155537096016
 21
2507.165214700883
 31
0.0
  0
LINE
  5
A3
330
17
100
AcDbEntity
  8
Painéis
 62
200
370
25
100
AcDbLine
 10
6693.155537096015
 20
2678.165214700883
 30
0.0
 11
6693.155537096015
 21
2477.165214700883
 31
0.0
  0
LINE
  5
A4
330
17
100
AcDbEntity
  8
Painéis
 62
200
370
25
100
AcDbLine
 10
6851.155537096016
 20
2678.165214700883
 30
0.0
 11
6851.155537096016
 21
2477.165214700883
 31
0.0
  0
LINE
  5
A5
330
17
100
AcDbEntity
  8
Painéis
 62
200
370
25
100
AcDbLine
 10
7009.155537096017
 20
2678.165214700883
 30
0.0
 11
7009.155537096017
 21
2477.165214700883
 31
0.0
  0
LINE
  5
A6
330
17
100
AcDbEntity
  8
Painéis
 62
200
370
25
100
AcDbLine
 10
7068.637039096016
 20
2876.165214700883
 30
0.0
 11
6886.155537096016
 21
2876.165214700883
 31
0.0
  0
LINE
  5
A7
330
17
100
AcDbEntity
  8
Painéis
 62
200
370
25
100
AcDbLine
 10
7027.655537096016
 20
3120.165214700883
 30
0.0
 11
7027.655537096016
 21
2697.165214700883
 31
0.0
  0
LINE
  5
A8
330
17
100
AcDbEntity
  8
Painéis
 62
200
370
25
100
AcDbLine
 10
7008.155537096016
 20
3120.165214700883
 30
0.0
 11
7008.155537096016
 21
2697.165214700883
 31
0.0
  0
LINE
  5
A9
330
17
100
AcDbEntity
  8
Painéis
 62
200
370
25
100
AcDbLine
 10
6308.155537096016
 20
3120.165214700883
 30
0.0
 11
6308.155537096016
 21
2697.165214700883
 31
0.0
  0
LINE
  5
AA
330
17
100
AcDbEntity
  8
Painéis
 62
200
370
25
100
AcDbLine
 10
6430.155537096016
 20
2876.165214700883
 30
0.0
 11
6216.139154952876
 21
2876.165214700883
 31
0.0
  0
LINE
  5
AB
330
17
100
AcDbEntity
  8
Painéis
 62
200
370
25
100
AcDbLine
 10
6282.155537096016
 20
3120.165214700883
 30
0.0
 11
6282.155537096016
 21
2697.165214700883
 31
0.0
  0
LINE
  5
AC
330
17
100
AcDbEntity
  8
Painéis
 62
4
370
25
100
AcDbLine
 10
6262.485528394955
 20
2586.665214700885
 30
0.0
 11
6262.485528394955
 21
2678.165214700884
 31
0.0
  0
LINE
  5
AD
330
17
100
AcDbEntity
  8
Painéis
 62
0
370
25
100
AcDbLine
 10
6260.985528394955
 20
2588.165214700885
 30
0.0
 11
6263.985528394955
 21
2585.165214700885
 31
0.0
  0
LINE
  5
AE
330
17
100
AcDbEntity
  8
Painéis
 62
0
370
25
100
AcDbLine
 10
6263.985528394955
 20
2676.665214700884
 30
0.0
 11
6260.985528394955
 21
2679.665214700884
 31
0.0
  0
LINE
  5
AF
330
17
100
AcDbEntity
  8
Painéis
 62
4
370
25
100
AcDbLine
 10
6216.155537096016
 20
2601.54424871419
 30
0.0
 11
6216.139154952876
 21
2601.54424871419
 31
0.0
  0
LINE
  5
B0
330
17
100
AcDbEntity
  8
Painéis
 62
0
370
25
100
AcDbLine
 10
6216.139154952876
 20
2601.5278665710503
 30
0.0
 11
6217.655537096016
 21
2603.04424871419
 31
0.0
  0
LINE
  5
B1
330
17
100
AcDbEntity
  8
Painéis
 62
4
370
25
100
AcDbLine
 10
6216.155537096016
 20
2601.54424871419
 30
0.0
 11
6449.155537096015
 21
2601.54424871419
 31
0.0
  0
LINE
  5
B2
330
17
100
AcDbEntity
  8
Painéis
 62
0
370
25
100
AcDbLine
 10
6217.655537096016
 20
2603.04424871419
 30
0.0
 11
6216.139154952876
 21
2601.5278665710503
 31
0.0
  0
LINE
  5
B3
330
17
100
AcDbEntity
  8
Painéis
 62
0
370
25
100
AcDbLine
 10
6447.655537096015
 20
2600.04424871419
 30
0.0
 11
6450.655537096015
 21
2603.04424871419
 31
0.0
  0
LINE
  5
B4
330
17
100
AcDbEntity
  8
Painéis
 62
4
370
25
100
AcDbLine
 10
6262.485528394923
 20
2586.665214700885
 30
0.0
 11
6262.485528394923
 21
2526.165214700883
 31
0.0
  0
LINE
  5
B5
330
17
100
AcDbEntity
  8
Painéis
 62
0
370
25
100
AcDbLine
 10
6263.985528394923
 20
2585.165214700885
 30
0.0
 11
6260.985528394923
 21
2588.165214700885
 31
0.0
  0
LINE
  5
B6
330
17
100
AcDbEntity
  8
Painéis
 62
0
370
25
100
AcDbLine
 10
6260.985528394923
 20
2527.665214700883
 30
0.0
 11
6263.985528394923
 21
2524.665214700883
 31
0.0
  0
LINE
  5
B7
330
17
100
AcDbEntity
  8
Painéis
 62
4
370
25
100
AcDbLine
 10
6886.155537096016
 20
3137.366671734715
 30
0.0
 11
6886.155537096016
 21
3122.366671734715
 31
0.0
  0
LINE
  5
B8
330
17
100
AcDbEntity
  8
Painéis
 62
4
370
25
100
AcDbLine
 10
6909.655537096016
 20
3137.366671734715
 30
0.0
 11
6909.655537096016
 21
3122.366671734715
 31
0.0
  0
LINE
  5
B9
330
17
100
AcDbEntity
  8
Painéis
 62
4
370
25
100
AcDbLine
 10
6886.155537096016
 20
3125.366671734715
 30
0.0
 11
6909.655537096016
 21
3125.366671734715
 31
0.0
  0
LINE
  5
BA
330
17
100
AcDbEntity
  8
Painéis
 62
0
370
25
100
AcDbLine
 10
6887.655537096016
 20
3126.866671734715
 30
0.0
 11
6884.655537096016
 21
3123.866671734715
 31
0.0
  0
LINE
  5
BB
330
17
100
AcDbEntity
  8
Painéis
 62
0
370
25
100
AcDbLine
 10
6908.155537096016
 20
3123.866671734715
 30
0.0
 11
6911.155537096016
 21
3126.866671734715
 31
0.0
  0
LINE
  5
BC
330
17
100
AcDbEntity
  8
Painéis
 62
4
370
25
100
AcDbLine
 10
6617.140852405452
 20
2876.165214700884
 30
0.0
 11
6617.140852405452
 21
3120.165214700885
 31
0.0
  0
LINE
  5
BD
330
17
100
AcDbEntity
  8
Painéis
 62
0
370
25
100
AcDbLine
 10
6615.640852405452
 20
2877.665214700884
 30
0.0
 11
6618.640852405452
 21
2874.665214700884
 31
0.0
  0
LINE
  5
BE
330
17
100
AcDbEntity
  8
Painéis
 62
0
370
25
100
AcDbLine
 10
6618.640852405452
 20
3118.665214700885
 30
0.0
 11
6615.640852405452
 21
3121.665214700885
 31
0.0
  0
LINE
  5
BF
330
17
100
AcDbEntity
  8
Painéis
 62
4
370
25
100
AcDbLine
 10
6597.155537096016
 20
2941.723078545841
 30
0.0
 11
6719.155537096016
 21
2941.723078545841
 31
0.0
  0
LINE
  5
C0
330
17
100
AcDbEntity
  8
Painéis
 62
0
370
25
100
AcDbLine
 10
6598.655537096016
 20
2943.223078545841
 30
0.0
 11
6595.655537096016
 21
2940.223078545841
 31
0.0
  0
LINE
  5
C1
330
17
100
AcDbEntity
  8
Painéis
 62
0
370
25
100
AcDbLine
 10
6717.655537096016
 20
2940.223078545841
 30
0.0
 11
6720.655537096016
 21
2943.223078545841
 31
0.0
  0
LINE
  5
C2
330
17
100
AcDbEntity
  8
Painéis
 62
4
370
25
100
AcDbLine
 10
6719.155537096016
 20
2941.723078545841
 30
0.0
 11
6745.155537096017
 21
2941.723078545841
 31
0.0
  0
LINE
  5
C3
330
17
100
AcDbEntity
  8
Painéis
 62
0
370
25
100
AcDbLine
 10
6720.655537096016
 20
2943.223078545841
 30
0.0
 11
6717.655537096016
 21
2940.223078545841
 31
0.0
  0
LINE
  5
C4
330
17
100
AcDbEntity
  8
Painéis
 62
0
370
25
100
AcDbLine
 10
6743.655537096017
 20
2940.223078545841
 30
0.0
 11
6746.655537096017
 21
2943.223078545841
 31
0.0
  0
LINE
  5
C5
330
17
100
AcDbEntity
  8
Painéis
 62
4
370
25
100
AcDbLine
 10
6745.155537096017
 20
2941.723078545841
 30
0.0
 11
6867.155537096016
 21
2941.723078545841
 31
0.0
  0
LINE
  5
C6
330
17
100
AcDbEntity
  8
Painéis
 62
0
370
25
100
AcDbLine
 10
6746.655537096017
 20
2943.223078545841
 30
0.0
 11
6743.655537096017
 21
2940.223078545841
 31
0.0
  0
LINE
  5
C7
330
17
100
AcDbEntity
  8
Painéis
 62
0
370
25
100
AcDbLine
 10
6865.655537096016
 20
2940.223078545841
 30
0.0
 11
6868.655537096016
 21
2943.223078545841
 31
0.0
  0
LINE
  5
C8
330
17
100
AcDbEntity
  8
Painéis
 62
4
370
25
100
AcDbLine
 10
6571.155537096015
 20
2941.723078545841
 30
0.0
 11
6597.155537096016
 21
2941.723078545841
 31
0.0
  0
LINE
  5
C9
330
17
100
AcDbEntity
  8
Painéis
 62
0
370
25
100
AcDbLine
 10
6572.655537096015
 20
2943.223078545841
 30
0.0
 11
6569.655537096015
 21
2940.223078545841
 31
0.0
  0
LINE
  5
CA
330
17
100
AcDbEntity
  8
Painéis
 62
0
370
25
100
AcDbLine
 10
6595.655537096016
 20
2940.223078545841
 30
0.0
 11
6598.655537096016
 21
2943.223078545841
 31
0.0
  0
LINE
  5
CB
330
17
100
AcDbEntity
  8
Painéis
 62
4
370
25
100
AcDbLine
 10
6617.140852405454
 20
2876.165214700884
 30
0.0
 11
6617.140852405454
 21
2697.165214700884
 31
0.0
  0
LINE
  5
CC
330
17
100
AcDbEntity
  8
Painéis
 62
0
370
25
100
AcDbLine
 10
6618.640852405454
 20
2874.665214700884
 30
0.0
 11
6615.640852405454
 21
2877.665214700884
 31
0.0
  0
LINE
  5
CD
330
17
100
AcDbEntity
  8
Painéis
 62
0
370
25
100
AcDbLine
 10
6615.640852405454
 20
2698.665214700884
 30
0.0
 11
6618.640852405454
 21
2695.665214700884
 31
0.0
  0
LINE
  5
CE
330
17
100
AcDbEntity
  8
Painéis
 62
4
370
25
100
AcDbLine
 10
6813.655537096019
 20
2697.165214700884
 30
0.0
 11
6802.081830189983
 21
2697.165214700884
 31
0.0
  0
LINE
  5
CF
330
17
100
AcDbEntity
  8
Painéis
 62
4
370
25
100
AcDbLine
 10
6813.655537096019
 20
2702.665214700884
 30
0.0
 11
6802.081830189983
 21
2702.665214700884
 31
0.0
  0
LINE
  5
D0
330
17
100
AcDbEntity
  8
Painéis
 62
4
370
25
100
AcDbLine
 10
6805.081830189983
 20
2697.165214700884
 30
0.0
 11
6805.081830189983
 21
2694.165214700884
 31
0.0
  0
LINE
  5
D1
330
17
100
AcDbEntity
  8
Painéis
 62
4
370
25
100
AcDbLine
 10
6805.081830189983
 20
2702.665214700884
 30
0.0
 11
6805.081830189983
 21
2732.231004174568
 31
0.0
  0
LINE
  5
D2
330
17
100
AcDbEntity
  8
Painéis
 62
4
370
25
100
AcDbLine
 10
6805.081830189983
 20
2697.165214700884
 30
0.0
 11
6805.081830189983
 21
2702.665214700884
 31
0.0
  0
LINE
  5
D3
330
17
100
AcDbEntity
  8
Painéis
 62
0
370
25
100
AcDbLine
 10
6806.581830189983
 20
2695.665214700884
 30
0.0
 11
6803.581830189983
 21
2698.665214700884
 31
0.0
  0
LINE
  5
D4
330
17
100
AcDbEntity
  8
Painéis
 62
0
370
25
100
AcDbLine
 10
6803.581830189983
 20
2704.165214700884
 30
0.0
 11
6806.581830189983
 21
2701.165214700884
 31
0.0
  0
LINE
  5
D5
330
17
100
AcDbEntity
  8
Painéis
 62
4
370
25
100
AcDbLine
 10
6816.655537096015
 20
2705.665214700883
 30
0.0
 11
6816.655537096015
 21
2719.694955139072
 31
0.0
  0
LINE
  5
D6
330
17
100
AcDbEntity
  8
Painéis
 62
4
370
25
100
AcDbLine
 10
6867.155537096016
 20
2705.665214700883
 30
0.0
 11
6867.155537096016
 21
2719.694955139072
 31
0.0
  0
LINE
  5
D7
330
17
100
AcDbEntity
  8
Painéis
 62
4
370
25
100
AcDbLine
 10
6816.655537096015
 20
2716.694955139072
 30
0.0
 11
6867.155537096016
 21
2716.694955139072
 31
0.0
  0
LINE
  5
D8
330
17
100
AcDbEntity
  8
Painéis
 62
0
370
25
100
AcDbLine
 10
6818.155537096015
 20
2718.194955139072
 30
0.0
 11
6815.155537096015
 21
2715.194955139072
 31
0.0
  0
LINE
  5
D9
330
17
100
AcDbEntity
  8
Painéis
 62
0
370
25
100
AcDbLine
 10
6865.655537096016
 20
2715.194955139072
 30
0.0
 11
6868.655537096016
 21
2718.194955139072
 31
0.0
  0
LINE
  5
DA
330
17
100
AcDbEntity
  8
Painéis
 62
4
370
25
100
AcDbLine
 10
6571.155537096015
 20
2941.723078545841
 30
0.0
 11
6449.155537096015
 21
2941.723078545841
 31
0.0
  0
LINE
  5
DB
330
17
100
AcDbEntity
  8
Painéis
 62
0
370
25
100
AcDbLine
 10
6569.655537096015
 20
2940.223078545841
 30
0.0
 11
6572.655537096015
 21
2943.223078545841
 31
0.0
  0
LINE
  5
DC
330
17
100
AcDbEntity
  8
Painéis
 62
0
370
25
100
AcDbLine
 10
6450.655537096015
 20
2943.223078545841
 30
0.0
 11
6447.655537096015
 21
2940.223078545841
 31
0.0
  0
LINE
  5
DD
330
17
100
AcDbEntity
  8
Painéis
 62
4
370
25
100
AcDbLine
 10
6449.155537096015
 20
2899.165214700883
 30
0.0
 11
6449.155537096015
 21
2912.493555396177
 31
0.0
  0
LINE
  5
DE
330
17
100
AcDbEntity
  8
Painéis
 62
4
370
25
100
AcDbLine
 10
6451.655537096016
 20
2899.165214700883
 30
0.0
 11
6451.655537096016
 21
2912.493555396177
 31
0.0
  0
LINE
  5
DF
330
17
100
AcDbEntity
  8
Painéis
 62
4
370
25
100
AcDbLine
 10
6449.155537096015
 20
2909.493555396177
 30
0.0
 11
6446.155537096015
 21
2909.493555396177
 31
0.0
  0
LINE
  5
E0
330
17
100
AcDbEntity
  8
Painéis
 62
4
370
25
100
AcDbLine
 10
6451.655537096016
 20
2909.493555396177
 30
0.0
 11
6481.010800253911
 21
2909.493555396177
 31
0.0
  0
LINE
  5
E1
330
17
100
AcDbEntity
  8
Painéis
 62
4
370
25
100
AcDbLine
 10
6449.155537096015
 20
2909.493555396177
 30
0.0
 11
6451.655537096016
 21
2909.493555396177
 31
0.0
  0
LINE
  5
E2
330
17
100
AcDbEntity
  8
Painéis
 62
0
370
25
100
AcDbLine
 10
6447.655537096015
 20
2907.993555396177
 30
0.0
 11
6450.655537096015
 21
2910.993555396177
 31
0.0
  0
LINE
  5
E3
330
17
100
AcDbEntity
  8
Painéis
 62
0
370
25
100
AcDbLine
 10
6453.155537096016
 20
2910.993555396177
 30
0.0
 11
6450.155537096016
 21
2907.993555396177
 31
0.0
  0
LINE
  5
E4
330
17
100
AcDbEntity
  8
Painéis
 62
4
370
25
100
AcDbLine
 10
6454.655537096019
 20
2896.165214700884
 30
0.0
 11
6472.28288052453
 21
2896.165214700884
 31
0.0
  0
LINE
  5
E5
330
17
100
AcDbEntity
  8
Painéis
 62
4
370
25
100
AcDbLine
 10
6454.655537096019
 20
2876.165214700884
 30
0.0
 11
6472.28288052453
 21
2876.165214700884
 31
0.0
  0
LINE
  5
E6
330
17
100
AcDbEntity
  8
Painéis
 62
4
370
25
100
AcDbLine
 10
6469.28288052453
 20
2896.165214700884
 30
0.0
 11
6469.28288052453
 21
2876.165214700884
 31
0.0
  0
LINE
  5
E7
330
17
100
AcDbEntity
  8
Painéis
 62
0
370
25
100
AcDbLine
 10
6470.78288052453
 20
2894.665214700884
 30
0.0
 11
6467.78288052453
 21
2897.665214700884
 31
0.0
  0
LINE
  5
E8
330
17
100
AcDbEntity
  8
Painéis
 62
0
370
25
100
AcDbLine
 10
6467.78288052453
 20
2877.665214700884
 30
0.0
 11
6470.78288052453
 21
2874.665214700884
 31
0.0
  0
LINE
  5
E9
330
17
100
AcDbEntity
  8
Painéis
 62
4
370
25
100
AcDbLine
 10
6454.655537096019
 20
2876.165214700884
 30
0.0
 11
6472.282880524534
 21
2876.165214700884
 31
0.0
  0
LINE
  5
EA
330
17
100
AcDbEntity
  8
Painéis
 62
4
370
25
100
AcDbLine
 10
6454.655537096019
 20
2796.165214700883
 30
0.0
 11
6472.282880524534
 21
2796.165214700883
 31
0.0
  0
LINE
  5
EB
330
17
100
AcDbEntity
  8
Painéis
 62
4
370
25
100
AcDbLine
 10
6469.282880524534
 20
2876.165214700884
 30
0.0
 11
6469.282880524534
 21
2796.165214700883
 31
0.0
  0
LINE
  5
EC
330
17
100
AcDbEntity
  8
Painéis
 62
0
370
25
100
AcDbLine
 10
6470.782880524534
 20
2874.665214700884
 30
0.0
 11
6467.782880524534
 21
2877.665214700884
 31
0.0
  0
LINE
  5
ED
330
17
100
AcDbEntity
  8
Painéis
 62
0
370
25
100
AcDbLine
 10
6467.782880524534
 20
2797.665214700883
 30
0.0
 11
6470.782880524534
 21
2794.665214700883
 31
0.0
  0
LINE
  5
EE
330
17
100
AcDbEntity
  8
Painéis
 62
4
370
25
100
AcDbLine
 10
6449.155537096015
 20
2793.165214700883
 30
0.0
 11
6449.155537096015
 21
2774.216847930861
 31
0.0
  0
LINE
  5
EF
330
17
100
AcDbEntity
  8
Painéis
 62
4
370
25
100
AcDbLine
 10
6451.655537096016
 20
2793.165214700883
 30
0.0
 11
6451.655537096016
 21
2774.216847930861
 31
0.0
  0
LINE
  5
F0
330
17
100
AcDbEntity
  8
Painéis
 62
4
370
25
100
AcDbLine
 10
6449.155537096015
 20
2777.216847930861
 30
0.0
 11
6446.155537096015
 21
2777.216847930861
 31
0.0
  0
LINE
  5
F1
330
17
100
AcDbEntity
  8
Painéis
 62
4
370
25
100
AcDbLine
 10
6451.655537096016
 20
2777.216847930861
 30
0.0
 11
6481.010800253911
 21
2777.216847930861
 31
0.0
  0
LINE
  5
F2
330
17
100
AcDbEntity
  8
Painéis
 62
4
370
25
100
AcDbLine
 10
6449.155537096015
 20
2777.216847930861
 30
0.0
 11
6451.655537096016
 21
2777.216847930861
 31
0.0
  0
LINE
  5
F3
330
17
100
AcDbEntity
  8
Painéis
 62
0
370
25
100
AcDbLine
 10
6447.655537096015
 20
2775.716847930861
 30
0.0
 11
6450.655537096015
 21
2778.716847930861
 31
0.0
  0
LINE
  5
F4
330
17
100
AcDbEntity
  8
Painéis
 62
0
370
25
100
AcDbLine
 10
6453.155537096016
 20
2778.716847930861
 30
0.0
 11
6450.155537096016
 21
2775.716847930861
 31
0.0
  0
LINE
  5
F5
330
17
100
AcDbEntity
  8
Painéis
 62
4
370
25
100
AcDbLine
 10
6513.71852584372
 20
2477.165214700884
 30
0.0
 11
6513.71852584372
 21
2566.665214700884
 31
0.0
  0
LINE
  5
F6
330
17
100
AcDbEntity
  8
Painéis
 62
0
370
25
100
AcDbLine
 10
6512.21852584372
 20
2478.665214700884
 30
0.0
 11
6515.21852584372
 21
2475.665214700884
 31
0.0
  0
LINE
  5
F7
330
17
100
AcDbEntity
  8
Painéis
 62
0
370
25
100
AcDbLine
 10
6515.21852584372
 20
2565.165214700884
 30
0.0
 11
6512.21852584372
 21
2568.165214700884
 31
0.0
  0
LINE
  5
F8
330
17
100
AcDbEntity
  8
Painéis
 62
4
370
25
100
AcDbLine
 10
6513.718525843724
 20
2566.665214700885
 30
0.0
 11
6513.718525843724
 21
2586.665214700884
 31
0.0
  0
LINE
  5
F9
330
17
100
AcDbEntity
  8
Painéis
 62
0
370
25
100
AcDbLine
 10
6512.218525843724
 20
2568.165214700885
 30
0.0
 11
6515.218525843724
 21
2565.165214700885
 31
0.0
  0
LINE
  5
FA
330
17
100
AcDbEntity
  8
Painéis
 62
0
370
25
100
AcDbLine
 10
6515.218525843724
 20
2585.165214700884
 30
0.0
 11
6512.218525843724
 21
2588.165214700884
 31
0.0
  0
LINE
  5
FB
330
17
100
AcDbEntity
  8
Painéis
 62
4
370
25
100
AcDbLine
 10
6513.71852584373
 20
2586.665214700886
 30
0.0
 11
6513.71852584373
 21
2678.165214700884
 31
0.0
  0
LINE
  5
FC
330
17
100
AcDbEntity
  8
Painéis
 62
0
370
25
100
AcDbLine
 10
6512.21852584373
 20
2588.165214700886
 30
0.0
 11
6515.21852584373
 21
2585.165214700886
 31
0.0
  0
LINE
  5
FD
330
17
100
AcDbEntity
  8
Painéis
 62
0
370
25
100
AcDbLine
 10
6515.21852584373
 20
2676.665214700884
 30
0.0
 11
6512.21852584373
 21
2679.665214700884
 31
0.0
  0
LINE
  5
FE
330
17
100
AcDbEntity
  8
Painéis
 62
4
370
25
100
AcDbLine
 10
6259.913868510788
 20
2465.165214700883
 30
0.0
 11
6259.913868510788
 21
2507.165214700884
 31
0.0
  0
LINE
  5
FF
330
17
100
AcDbEntity
  8
Painéis
 62
0
370
25
100
AcDbLine
 10
6261.413868510788
 20
2505.665214700884
 30
0.0
 11
6258.413868510788
 21
2508.665214700884
 31
0.0
  0
LINE
  5
100
330
17
100
AcDbEntity
  8
Painéis
 62
4
370
25
100
AcDbLine
 10
6851.155537096016
 20
2669.665214700883
 30
0.0
 11
6851.155537096016
 21
2650.610013427769
 31
0.0
  0
LINE
  5
101
330
17
100
AcDbEntity
  8
Painéis
 62
4
370
25
100
AcDbLine
 10
6816.655537096015
 20
2669.665214700883
 30
0.0
 11
6816.655537096015
 21
2650.610013427769
 31
0.0
  0
LINE
  5
102
330
17
100
AcDbEntity
  8
Painéis
 62
4
370
25
100
AcDbLine
 10
6851.155537096016
 20
2653.61001342777
 30
0.0
 11
6816.655537096015
 21
2653.61001342777
 31
0.0
  0
LINE
  5
103
330
17
100
AcDbEntity
  8
Painéis
 62
0
370
25
100
AcDbLine
 10
6849.655537096016
 20
2652.11001342777
 30
0.0
 11
6852.655537096016
 21
2655.11001342777
 31
0.0
  0
LINE
  5
104
330
17
100
AcDbEntity
  8
Painéis
 62
0
370
25
100
AcDbLine
 10
6818.155537096015
 20
2655.11001342777
 30
0.0
 11
6815.155537096015
 21
2652.11001342777
 31
0.0
  0
LINE
  5
105
330
17
100
AcDbEntity
  8
Painéis
 62
4
370
25
100
AcDbLine
 10
6813.655537096019
 20
2678.165214700884
 30
0.0
 11
6802.081830189982
 21
2678.165214700884
 31
0.0
  0
LINE
  5
106
330
17
100
AcDbEntity
  8
Painéis
 62
4
370
25
100
AcDbLine
 10
6813.655537096019
 20
2672.665214700884
 30
0.0
 11
6802.081830189982
 21
2672.665214700884
 31
0.0
  0
LINE
  5
107
330
17
100
AcDbEntity
  8
Painéis
 62
4
370
25
100
AcDbLine
 10
6805.081830189982
 20
2678.165214700884
 30
0.0
 11
6805.081830189982
 21
2681.165214700884
 31
0.0
  0
LINE
  5
108
330
17
100
AcDbEntity
  8
Painéis
 62
4
370
25
100
AcDbLine
 10
6805.081830189982
 20
2672.665214700884
 30
0.0
 11
6805.081830189982
 21
2643.099425227199
 31
0.0
  0
LINE
  5
109
330
17
100
AcDbEntity
  8
Painéis
 62
4
370
25
100
AcDbLine
 10
6805.081830189982
 20
2678.165214700884
 30
0.0
 11
6805.081830189982
 21
2672.665214700884
 31
0.0
  0
LINE
  5
10A
330
17
100
AcDbEntity
  8
Painéis
 62
0
370
25
100
AcDbLine
 10
6803.581830189982
 20
2679.665214700884
 30
0.0
 11
6806.581830189982
 21
2676.665214700884
 31
0.0
  0
LINE
  5
10B
330
17
100
AcDbEntity
  8
Painéis
 62
0
370
25
100
AcDbLine
 10
6806.581830189982
 20
2671.165214700884
 30
0.0
 11
6803.581830189982
 21
2674.165214700884
 31
0.0
  0
LINE
  5
10C
330
17
100
AcDbEntity
  8
Painéis
 62
4
370
25
100
AcDbLine
 10
6936.655537096015
 20
2669.665214700883
 30
0.0
 11
6936.655537096015
 21
2650.610013427769
 31
0.0
  0
LINE
  5
10D
330
17
100
AcDbEntity
  8
Painéis
 62
4
370
25
100
AcDbLine
 10
6851.155537096016
 20
2669.665214700883
 30
0.0
 11
6851.155537096016
 21
2650.610013427769
 31
0.0
  0
LINE
  5
10E
330
17
100
AcDbEntity
  8
Painéis
 62
4
370
25
100
AcDbLine
 10
6936.655537096015
 20
2653.61001342777
 30
0.0
 11
6851.155537096016
 21
2653.61001342777
 31
0.0
  0
LINE
  5
10F
330
17
100
AcDbEntity
  8
Painéis
 62
0
370
25
100
AcDbLine
 10
6935.155537096015
 20
2652.11001342777
 30
0.0
 11
6938.155537096015
 21
2655.11001342777
 31
0.0
  0
LINE
  5
110
330
17
100
AcDbEntity
  8
Painéis
 62
0
370
25
100
AcDbLine
 10
6852.655537096016
 20
2655.11001342777
 30
0.0
 11
6849.655537096016
 21
2652.11001342777
 31
0.0
  0
LINE
  5
111
330
17
100
AcDbEntity
  8
Painéis
 62
4
370
25
100
AcDbLine
 10
6939.65553709602
 20
2678.165214700884
 30
0.0
 11
6958.597156730987
 21
2678.165214700884
 31
0.0
  0
LINE
  5
112
330
17
100
AcDbEntity
  8
Painéis
 62
4
370
25
100
AcDbLine
 10
6939.65553709602
 20
2672.665214700884
 30
0.0
 11
6958.597156730987
 21
2672.665214700884
 31
0.0
  0
LINE
  5
113
330
17
100
AcDbEntity
  8
Painéis
 62
4
370
25
100
AcDbLine
 10
6955.597156730987
 20
2678.165214700884
 30
0.0
 11
6955.597156730987
 21
2681.165214700884
 31
0.0
  0
LINE
  5
114
330
17
100
AcDbEntity
  8
Painéis
 62
4
370
25
100
AcDbLine
 10
6955.597156730987
 20
2672.665214700884
 30
0.0
 11
6955.597156730987
 21
2643.099425227199
 31
0.0
  0
LINE
  5
115
330
17
100
AcDbEntity
  8
Painéis
 62
4
370
25
100
AcDbLine
 10
6955.597156730987
 20
2678.165214700884
 30
0.0
 11
6955.597156730987
 21
2672.665214700884
 31
0.0
  0
LINE
  5
116
330
17
100
AcDbEntity
  8
Painéis
 62
0
370
25
100
AcDbLine
 10
6954.097156730987
 20
2679.665214700884
 30
0.0
 11
6957.097156730987
 21
2676.665214700884
 31
0.0
  0
LINE
  5
117
330
17
100
AcDbEntity
  8
Painéis
 62
0
370
25
100
AcDbLine
 10
6957.097156730987
 20
2671.165214700884
 30
0.0
 11
6954.097156730987
 21
2674.165214700884
 31
0.0
  0
LINE
  5
118
330
17
100
AcDbEntity
  8
Painéis
 62
4
370
25
100
AcDbLine
 10
6449.155537096015
 20
2601.54424871419
 30
0.0
 11
6693.155537096015
 21
2601.54424871419
 31
0.0
  0
LINE
  5
119
330
17
100
AcDbEntity
  8
Painéis
 62
0
370
25
100
AcDbLine
 10
6450.655537096015
 20
2603.04424871419
 30
0.0
 11
6447.655537096015
 21
2600.04424871419
 31
0.0
  0
LINE
  5
11A
330
17
100
AcDbEntity
  8
Painéis
 62
0
370
25
100
AcDbLine
 10
6691.655537096015
 20
2600.04424871419
 30
0.0
 11
6694.655537096015
 21
2603.04424871419
 31
0.0
  0
LINE
  5
11B
330
17
100
AcDbEntity
  8
Painéis
 62
4
370
25
100
AcDbLine
 10
6693.155537096015
 20
2601.54424871419
 30
0.0
 11
6851.155537096016
 21
2601.54424871419
 31
0.0
  0
LINE
  5
11C
330
17
100
AcDbEntity
  8
Painéis
 62
0
370
25
100
AcDbLine
 10
6694.655537096015
 20
2603.04424871419
 30
0.0
 11
6691.655537096015
 21
2600.04424871419
 31
0.0
  0
LINE
  5
11D
330
17
100
AcDbEntity
  8
Painéis
 62
0
370
25
100
AcDbLine
 10
6849.655537096016
 20
2600.04424871419
 30
0.0
 11
6852.655537096016
 21
2603.04424871419
 31
0.0
  0
LINE
  5
11E
330
17
100
AcDbEntity
  8
Painéis
 62
4
370
25
100
AcDbLine
 10
6851.155537096016
 20
2601.54424871419
 30
0.0
 11
7009.155537096017
 21
2601.54424871419
 31
0.0
  0
LINE
  5
11F
330
17
100
AcDbEntity
  8
Painéis
 62
0
370
25
100
AcDbLine
 10
6852.655537096016
 20
2603.04424871419
 30
0.0
 11
6849.655537096016
 21
2600.04424871419
 31
0.0
  0
LINE
  5
120
330
17
100
AcDbEntity
  8
Painéis
 62
0
370
25
100
AcDbLine
 10
7007.655537096017
 20
2600.04424871419
 30
0.0
 11
7010.655537096017
 21
2603.04424871419
 31
0.0
  0
LINE
  5
121
330
17
100
AcDbEntity
  8
Painéis
 62
4
370
25
100
AcDbLine
 10
7009.155537096017
 20
2601.54424871419
 30
0.0
 11
7068.637039096016
 21
2601.54424871419
 31
0.0
  0
LINE
  5
122
330
17
100
AcDbEntity
  8
Painéis
 62
0
370
25
100
AcDbLine
 10
7010.655537096017
 20
2603.04424871419
 30
0.0
 11
7007.655537096017
 21
2600.04424871419
 31
0.0
  0
LINE
  5
123
330
17
100
AcDbEntity
  8
Painéis
 62
4
370
25
100
AcDbLine
 10
6449.155537096015
 20
3137.366671734715
 30
0.0
 11
6449.155537096015
 21
3122.259162810435
 31
0.0
  0
LINE
  5
124
330
17
100
AcDbEntity
  8
Painéis
 62
4
370
25
100
AcDbLine
 10
6472.655537096016
 20
3137.366671734715
 30
0.0
 11
6472.655537096016
 21
3122.259162810435
 31
0.0
  0
LINE
  5
125
330
17
100
AcDbEntity
  8
Painéis
 62
4
370
25
100
AcDbLine
 10
6449.155537096015
 20
3125.259162810435
 30
0.0
 11
6472.655537096016
 21
3125.259162810435
 31
0.0
  0
LINE
  5
126
330
17
100
AcDbEntity
  8
Painéis
 62
0
370
25
100
AcDbLine
 10
6450.655537096015
 20
3126.759162810435
 30
0.0
 11
6447.655537096015
 21
3123.759162810435
 31
0.0
  0
LINE
  5
127
330
17
100
AcDbEntity
  8
Painéis
 62
0
370
25
100
AcDbLine
 10
6471.155537096016
 20
3123.759162810435
 30
0.0
 11
6474.155537096016
 21
3126.759162810435
 31
0.0
  0
LINE
  5
128
330
17
100
AcDbEntity
  8
Painéis
 62
4
370
25
100
AcDbLine
 10
6867.155537096016
 20
3137.366671734715
 30
0.0
 11
6867.155537096016
 21
3122.305690424993
 31
0.0
  0
LINE
  5
129
330
17
100
AcDbEntity
  8
Painéis
 62
4
370
25
100
AcDbLine
 10
6843.655537096016
 20
3137.366671734715
 30
0.0
 11
6843.655537096016
 21
3122.305690424993
 31
0.0
  0
LINE
  5
12A
330
17
100
AcDbEntity
  8
Painéis
 62
4
370
25
100
AcDbLine
 10
6867.155537096016
 20
3125.305690424994
 30
0.0
 11
6843.655537096016
 21
3125.305690424994
 31
0.0
  0
LINE
  5
12B
330
17
100
AcDbEntity
  8
Painéis
 62
0
370
25
100
AcDbLine
 10
6865.655537096016
 20
3123.805690424994
 30
0.0
 11
6868.655537096016
 21
3126.805690424994
 31
0.0
  0
LINE
  5
12C
330
17
100
AcDbEntity
  8
Painéis
 62
0
370
25
100
AcDbLine
 10
6845.155537096016
 20
3126.805690424994
 30
0.0
 11
6842.155537096016
 21
3123.805690424994
 31
0.0
  0
LINE
  5
12D
330
17
100
AcDbEntity
  8
Painéis
 62
4
370
25
100
AcDbLine
 10
6430.155537096016
 20
3137.366671734715
 30
0.0
 11
6430.155537096016
 21
3122.305690424993
 31
0.0
  0
LINE
  5
12E
330
17
100
AcDbEntity
  8
Painéis
 62
4
370
25
100
AcDbLine
 10
6406.655537096016
 20
3137.366671734715
 30
0.0
 11
6406.655537096016
 21
3122.305690424993
 31
0.0
  0
LINE
  5
12F
330
17
100
AcDbEntity
  8
Painéis
 62
4
370
25
100
AcDbLine
 10
6430.155537096016
 20
3125.305690424994
 30
0.0
 11
6406.655537096016
 21
3125.305690424994
 31
0.0
  0
LINE
  5
130
330
17
100
AcDbEntity
  8
Painéis
 62
0
370
25
100
AcDbLine
 10
6428.655537096016
 20
3123.805690424994
 30
0.0
 11
6431.655537096016
 21
3126.805690424994
 31
0.0
  0
LINE
  5
131
330
17
100
AcDbEntity
  8
Painéis
 62
0
370
25
100
AcDbLine
 10
6408.155537096016
 20
3126.805690424994
 30
0.0
 11
6405.155537096016
 21
3123.805690424994
 31
0.0
  0
LINE
  5
132
330
17
100
AcDbEntity
  8
Painéis
 62
4
370
25
100
AcDbLine
 10
7027.655537096015
 20
2941.94524128356
 30
0.0
 11
7068.637039096016
 21
2941.94524128356
 31
0.0
  0
LINE
  5
133
330
17
100
AcDbEntity
  8
Painéis
 62
0
370
25
100
AcDbLine
 10
7029.155537096015
 20
2943.44524128356
 30
0.0
 11
7026.155537096015
 21
2940.44524128356
 31
0.0
  0
LINE
  5
134
330
17
100
AcDbEntity
  8
Painéis
 62
4
370
25
100
AcDbLine
 10
7008.155537096015
 20
2941.94524128356
 30
0.0
 11
7027.655537096015
 21
2941.94524128356
 31
0.0
  0
LINE
  5
135
330
17
100
AcDbEntity
  8
Painéis
 62
0
370
25
100
AcDbLine
 10
7009.655537096015
 20
2943.44524128356
 30
0.0
 11
7006.655537096015
 21
2940.44524128356
 31
0.0
  0
LINE
  5
136
330
17
100
AcDbEntity
  8
Painéis
 62
0
370
25
100
AcDbLine
 10
7026.155537096015
 20
2940.44524128356
 30
0.0
 11
7029.155537096015
 21
2943.44524128356
 31
0.0
  0
LINE
  5
137
330
17
100
AcDbEntity
  8
Painéis
 62
4
370
25
100
AcDbLine
 10
7008.155537096015
 20
2941.94524128356
 30
0.0
 11
6886.155537096016
 21
2941.94524128356
 31
0.0
  0
LINE
  5
138
330
17
100
AcDbEntity
  8
Painéis
 62
0
370
25
100
AcDbLine
 10
7006.655537096015
 20
2940.44524128356
 30
0.0
 11
7009.655537096015
 21
2943.44524128356
 31
0.0
  0
LINE
  5
139
330
17
100
AcDbEntity
  8
Painéis
 62
0
370
25
100
AcDbLine
 10
6887.655537096016
 20
2943.44524128356
 30
0.0
 11
6884.655537096016
 21
2940.44524128356
 31
0.0
  0
LINE
  5
13A
330
17
100
AcDbEntity
  8
Painéis
 62
4
370
25
100
AcDbLine
 10
7052.532326697357
 20
2697.165214700884
 30
0.0
 11
7055.469269342599
 21
2697.165214700884
 31
0.0
  0
LINE
  5
13B
330
17
100
AcDbEntity
  8
Painéis
 62
4
370
25
100
AcDbLine
 10
7052.532326697357
 20
2876.165214700884
 30
0.0
 11
7055.469269342599
 21
2876.165214700884
 31
0.0
  0
LINE
  5
13C
330
17
100
AcDbEntity
  8
Painéis
 62
4
370
25
100
AcDbLine
 10
7052.469269342599
 20
2697.165214700884
 30
0.0
 11
7052.469269342599
 21
2876.165214700884
 31
0.0
  0
LINE
  5
13D
330
17
100
AcDbEntity
  8
Painéis
 62
0
370
25
100
AcDbLine
 10
7050.969269342599
 20
2698.665214700884
 30
0.0
 11
7053.969269342599
 21
2695.665214700884
 31
0.0
  0
LINE
  5
13E
330
17
100
AcDbEntity
  8
Painéis
 62
0
370
25
100
AcDbLine
 10
7053.969269342599
 20
2874.665214700884
 30
0.0
 11
7050.969269342599
 21
2877.665214700884
 31
0.0
  0
LINE
  5
13F
330
17
100
AcDbEntity
  8
Painéis
 62
4
370
25
100
AcDbLine
 10
7052.469269342601
 20
2876.165214700885
 30
0.0
 11
7052.469269342601
 21
3120.165214700885
 31
0.0
  0
LINE
  5
140
330
17
100
AcDbEntity
  8
Painéis
 62
0
370
25
100
AcDbLine
 10
7050.969269342601
 20
2877.665214700885
 30
0.0
 11
7053.969269342601
 21
2874.665214700885
 31
0.0
  0
LINE
  5
141
330
17
100
AcDbEntity
  8
Painéis
 62
0
370
25
100
AcDbLine
 10
7053.969269342601
 20
3118.665214700885
 30
0.0
 11
7050.969269342601
 21
3121.665214700885
 31
0.0
  0
LINE
  5
142
330
17
100
AcDbEntity
  8
Painéis
 62
4
370
25
100
AcDbLine
 10
6939.65553709602
 20
2697.165214700884
 30
0.0
 11
6958.942674102742
 21
2697.165214700884
 31
0.0
  0
LINE
  5
143
330
17
100
AcDbEntity
  8
Painéis
 62
4
370
25
100
AcDbLine
 10
6939.65553709602
 20
2702.665214700884
 30
0.0
 11
6958.942674102742
 21
2702.665214700884
 31
0.0
  0
LINE
  5
144
330
17
100
AcDbEntity
  8
Painéis
 62
4
370
25
100
AcDbLine
 10
6955.942674102742
 20
2697.165214700884
 30
0.0
 11
6955.942674102742
 21
2694.165214700884
 31
0.0
  0
LINE
  5
145
330
17
100
AcDbEntity
  8
Painéis
 62
4
370
25
100
AcDbLine
 10
6955.942674102742
 20
2702.665214700884
 30
0.0
 11
6955.942674102742
 21
2732.231004174568
 31
0.0
  0
LINE
  5
146
330
17
100
AcDbEntity
  8
Painéis
 62
4
370
25
100
AcDbLine
 10
6955.942674102742
 20
2697.165214700884
 30
0.0
 11
6955.942674102742
 21
2702.665214700884
 31
0.0
  0
LINE
  5
147
330
17
100
AcDbEntity
  8
Painéis
 62
0
370
25
100
AcDbLine
 10
6957.442674102742
 20
2695.665214700884
 30
0.0
 11
6954.442674102742
 21
2698.665214700884
 31
0.0
  0
LINE
  5
148
330
17
100
AcDbEntity
  8
Painéis
 62
0
370
25
100
AcDbLine
 10
6954.442674102742
 20
2704.165214700884
 30
0.0
 11
6957.442674102742
 21
2701.165214700884
 31
0.0
  0
LINE
  5
149
330
17
100
AcDbEntity
  8
Painéis
 62
4
370
25
100
AcDbLine
 10
6936.655537096015
 20
2705.665214700883
 30
0.0
 11
6936.655537096015
 21
2719.694955139072
 31
0.0
  0
LINE
  5
14A
330
17
100
AcDbEntity
  8
Painéis
 62
4
370
25
100
AcDbLine
 10
6886.155537096016
 20
2705.665214700883
 30
0.0
 11
6886.155537096016
 21
2719.694955139072
 31
0.0
  0
LINE
  5
14B
330
17
100
AcDbEntity
  8
Painéis
 62
4
370
25
100
AcDbLine
 10
6936.655537096015
 20
2716.694955139072
 30
0.0
 11
6886.155537096016
 21
2716.694955139072
 31
0.0
  0
LINE
  5
14C
330
17
100
AcDbEntity
  8
Painéis
 62
0
370
25
100
AcDbLine
 10
6935.155537096015
 20
2715.194955139072
 30
0.0
 11
6938.155537096015
 21
2718.194955139072
 31
0.0
  0
LINE
  5
14D
330
17
100
AcDbEntity
  8
Painéis
 62
0
370
25
100
AcDbLine
 10
6887.655537096016
 20
2718.194955139072
 30
0.0
 11
6884.655537096016
 21
2715.194955139072
 31
0.0
  0
LINE
  5
14E
330
17
100
AcDbEntity
  8
Painéis
 62
4
370
25
100
AcDbLine
 10
6216.139154952876
 20
2941.94524128356
 30
0.0
 11
6282.155537096015
 21
2941.94524128356
 31
0.0
  0
LINE
  5
14F
330
17
100
AcDbEntity
  8
Painéis
 62
0
370
25
100
AcDbLine
 10
6280.655537096015
 20
2940.44524128356
 30
0.0
 11
6283.655537096015
 21
2943.44524128356
 31
0.0
  0
LINE
  5
150
330
17
100
AcDbEntity
  8
Painéis
 62
4
370
25
100
AcDbLine
 10
6282.155537096015
 20
2941.94524128356
 30
0.0
 11
6308.155537096016
 21
2941.94524128356
 31
0.0
  0
LINE
  5
151
330
17
100
AcDbEntity
  8
Painéis
 62
0
370
25
100
AcDbLine
 10
6283.655537096015
 20
2943.44524128356
 30
0.0
 11
6280.655537096015
 21
2940.44524128356
 31
0.0
  0
LINE
  5
152
330
17
100
AcDbEntity
  8
Painéis
 62
0
370
25
100
AcDbLine
 10
6306.655537096016
 20
2940.44524128356
 30
0.0
 11
6309.655537096016
 21
2943.44524128356
 31
0.0
  0
LINE
  5
153
330
17
100
AcDbEntity
  8
Painéis
 62
4
370
25
100
AcDbLine
 10
6308.155537096016
 20
2941.94524128356
 30
0.0
 11
6430.155537096016
 21
2941.94524128356
 31
0.0
  0
LINE
  5
154
330
17
100
AcDbEntity
  8
Painéis
 62
0
370
25
100
AcDbLine
 10
6309.655537096016
 20
2943.44524128356
 30
0.0
 11
6306.655537096016
 21
2940.44524128356
 31
0.0
  0
LINE
  5
155
330
17
100
AcDbEntity
  8
Painéis
 62
0
370
25
100
AcDbLine
 10
6428.655537096016
 20
2940.44524128356
 30
0.0
 11
6431.655537096016
 21
2943.44524128356
 31
0.0
  0
LINE
  5
156
330
17
100
AcDbEntity
  8
Painéis
 62
4
370
25
100
AcDbLine
 10
6430.155537096016
 20
2899.165214700883
 30
0.0
 11
6430.155537096016
 21
2912.493555396177
 31
0.0
  0
LINE
  5
157
330
17
100
AcDbEntity
  8
Painéis
 62
4
370
25
100
AcDbLine
 10
6427.655537096015
 20
2899.165214700883
 30
0.0
 11
6427.655537096015
 21
2912.493555396177
 31
0.0
  0
LINE
  5
158
330
17
100
AcDbEntity
  8
Painéis
 62
4
370
25
100
AcDbLine
 10
6430.155537096016
 20
2909.493555396177
 30
0.0
 11
6433.155537096016
 21
2909.493555396177
 31
0.0
  0
LINE
  5
159
330
17
100
AcDbEntity
  8
Painéis
 62
4
370
25
100
AcDbLine
 10
6427.655537096015
 20
2909.493555396177
 30
0.0
 11
6398.300273938121
 21
2909.493555396177
 31
0.0
  0
LINE
  5
15A
330
17
100
AcDbEntity
  8
Painéis
 62
4
370
25
100
AcDbLine
 10
6430.155537096016
 20
2909.493555396177
 30
0.0
 11
6427.655537096015
 21
2909.493555396177
 31
0.0
  0
LINE
  5
15B
330
17
100
AcDbEntity
  8
Painéis
 62
0
370
25
100
AcDbLine
 10
6431.655537096016
 20
2910.993555396177
 30
0.0
 11
6428.655537096016
 21
2907.993555396177
 31
0.0
  0
LINE
  5
15C
330
17
100
AcDbEntity
  8
Painéis
 62
0
370
25
100
AcDbLine
 10
6426.155537096015
 20
2907.993555396177
 30
0.0
 11
6429.155537096015
 21
2910.993555396177
 31
0.0
  0
LINE
  5
15D
330
17
100
AcDbEntity
  8
Painéis
 62
4
370
25
100
AcDbLine
 10
6424.655537096019
 20
2896.165214700884
 30
0.0
 11
6415.51728857712
 21
2896.165214700884
 31
0.0
  0
LINE
  5
15E
330
17
100
AcDbEntity
  8
Painéis
 62
4
370
25
100
AcDbLine
 10
6424.655537096019
 20
2876.165214700884
 30
0.0
 11
6415.51728857712
 21
2876.165214700884
 31
0.0
  0
LINE
  5
15F
330
17
100
AcDbEntity
  8
Painéis
 62
4
370
25
100
AcDbLine
 10
6418.51728857712
 20
2896.165214700884
 30
0.0
 11
6418.51728857712
 21
2876.165214700884
 31
0.0
  0
LINE
  5
160
330
17
100
AcDbEntity
  8
Painéis
 62
0
370
25
100
AcDbLine
 10
6420.01728857712
 20
2894.665214700884
 30
0.0
 11
6417.01728857712
 21
2897.665214700884
 31
0.0
  0
LINE
  5
161
330
17
100
AcDbEntity
  8
Painéis
 62
0
370
25
100
AcDbLine
 10
6417.01728857712
 20
2877.665214700884
 30
0.0
 11
6420.01728857712
 21
2874.665214700884
 31
0.0
  0
LINE
  5
162
330
17
100
AcDbEntity
  8
Painéis
 62
4
370
25
100
AcDbLine
 10
6424.655537096019
 20
2876.165214700884
 30
0.0
 11
6415.517288577125
 21
2876.165214700884
 31
0.0
  0
LINE
  5
163
330
17
100
AcDbEntity
  8
Painéis
 62
4
370
25
100
AcDbLine
 10
6424.655537096019
 20
2796.165214700883
 30
0.0
 11
6415.517288577125
 21
2796.165214700883
 31
0.0
  0
LINE
  5
164
330
17
100
AcDbEntity
  8
Painéis
 62
4
370
25
100
AcDbLine
 10
6418.517288577125
 20
2876.165214700884
 30
0.0
 11
6418.517288577125
 21
2796.165214700883
 31
0.0
  0
LINE
  5
165
330
17
100
AcDbEntity
  8
Painéis
 62
0
370
25
100
AcDbLine
 10
6420.017288577125
 20
2874.665214700884
 30
0.0
 11
6417.017288577125
 21
2877.665214700884
 31
0.0
  0
LINE
  5
166
330
17
100
AcDbEntity
  8
Painéis
 62
0
370
25
100
AcDbLine
 10
6417.017288577125
 20
2797.665214700883
 30
0.0
 11
6420.017288577125
 21
2794.665214700883
 31
0.0
  0
LINE
  5
167
330
17
100
AcDbEntity
  8
Painéis
 62
4
370
25
100
AcDbLine
 10
6430.155537096016
 20
2793.165214700883
 30
0.0
 11
6430.155537096016
 21
2774.216847930861
 31
0.0
  0
LINE
  5
168
330
17
100
AcDbEntity
  8
Painéis
 62
4
370
25
100
AcDbLine
 10
6427.655537096015
 20
2793.165214700883
 30
0.0
 11
6427.655537096015
 21
2774.216847930861
 31
0.0
  0
LINE
  5
169
330
17
100
AcDbEntity
  8
Painéis
 62
4
370
25
100
AcDbLine
 10
6430.155537096016
 20
2777.216847930861
 30
0.0
 11
6433.155537096016
 21
2777.216847930861
 31
0.0
  0
LINE
  5
16A
330
17
100
AcDbEntity
  8
Painéis
 62
4
370
25
100
AcDbLine
 10
6427.655537096015
 20
2777.216847930861
 30
0.0
 11
6398.300273938121
 21
2777.216847930861
 31
0.0
  0
LINE
  5
16B
330
17
100
AcDbEntity
  8
Painéis
 62
4
370
25
100
AcDbLine
 10
6430.155537096016
 20
2777.216847930861
 30
0.0
 11
6427.655537096015
 21
2777.216847930861
 31
0.0
  0
LINE
  5
16C
330
17
100
AcDbEntity
  8
Painéis
 62
0
370
25
100
AcDbLine
 10
6431.655537096016
 20
2778.716847930861
 30
0.0
 11
6428.655537096016
 21
2775.716847930861
 31
0.0
  0
LINE
  5
16D
330
17
100
AcDbEntity
  8
Painéis
 62
0
370
25
100
AcDbLine
 10
6426.155537096015
 20
2775.716847930861
 30
0.0
 11
6429.155537096015
 21
2778.716847930861
 31
0.0
  0
LWPOLYLINE
  5
16E
330
17
100
AcDbEntity
  8
7
 62
7
370
25
100
AcDbPolyline
 90
2
 70
0
 10
6816.655537096015
 20
2678.165214700883
 10
6936.655537096015
 20
2678.165214700883
  0
LWPOLYLINE
  5
16F
330
17
100
AcDbEntity
  8
7
 62
7
370
25
100
AcDbPolyline
 90
2
 70
0
 10
6936.655537096015
 20
2678.165214700883
 10
6936.655537096015
 20
2697.165214700883
  0
LWPOLYLINE
  5
170
330
17
100
AcDbEntity
  8
7
 62
7
370
25
100
AcDbPolyline
 90
2
 70
0
 10
6936.655537096015
 20
2697.165214700883
 10
6816.655537096015
 20
2697.165214700883
  0
LWPOLYLINE
  5
171
330
17
100
AcDbEntity
  8
7
 62
7
370
25
100
AcDbPolyline
 90
2
 70
0
 10
6816.655537096015
 20
2697.165214700883
 10
6816.655537096015
 20
2678.165214700883
  0
LWPOLYLINE
  5
172
330
17
100
AcDbEntity
  8
3
 62
3
370
25
100
AcDbPolyline
 90
2
 70
0
 10
6216.139154952876
 20
3120.165214700883
 10
6430.155537096016
 20
3120.165214700883
  0
LWPOLYLINE
  5
173
330
17
100
AcDbEntity
  8
3
 62
3
370
25
100
AcDbPolyline
 90
2
 70
0
 10
6449.155537096015
 20
3120.165214700883
 10
6867.155537096016
 20
3120.165214700883
  0
LWPOLYLINE
  5
174
330
17
100
AcDbEntity
  8
3
 62
3
370
25
100
AcDbPolyline
 90
2
 70
0
 10
6886.155537096016
 20
3120.165214700883
 10
7068.637039096016
 20
3120.165214700883
  0
LWPOLYLINE
  5
175
330
17
100
AcDbEntity
  8
3
 62
3
370
25
100
AcDbPolyline
 90
2
 70
0
 10
6430.155537096016
 20
2697.165214700883
 10
6216.139154952876
 20
2697.165214700883
  0
LWPOLYLINE
  5
176
330
17
100
AcDbEntity
  8
3
 62
3
370
25
100
AcDbPolyline
 90
2
 70
0
 10
6216.139154952876
 20
2678.165214700883
 10
6439.655537096015
 20
2678.165214700883
  0
LWPOLYLINE
  5
177
330
17
100
AcDbEntity
  8
3
 62
3
370
25
100
AcDbPolyline
 90
2
 70
0
 10
6816.655537096015
 20
2697.165214700883
 10
6449.155537096015
 20
2697.165214700883
  0
LWPOLYLINE
  5
178
330
17
100
AcDbEntity
  8
3
 62
3
370
25
100
AcDbPolyline
 90
2
 70
0
 10
6439.655537096015
 20
2678.165214700883
 10
6816.655537096015
 20
2678.165214700883
  0
LWPOLYLINE
  5
179
330
17
100
AcDbEntity
  8
3
 62
3
370
25
100
AcDbPolyline
 90
2
 70
0
 10
7068.637039096016
 20
2697.165214700883
 10
6936.655537096015
 20
2697.165214700883
  0
LWPOLYLINE
  5
17A
330
17
100
AcDbEntity
  8
3
 62
3
370
25
100
AcDbPolyline
 90
2
 70
0
 10
6936.655537096015
 20
2678.165214700883
 10
7068.637039096016
 20
2678.165214700883
  0
LWPOLYLINE
  5
17B
330
17
100
AcDbEntity
  8
3
 62
3
370
25
100
AcDbPolyline
 90
2
 70
0
 10
6449.155537096015
 20
2526.165214700883
 10
6216.139154952876
 20
2526.165214700883
  0
LWPOLYLINE
  5
17C
330
17
100
AcDbEntity
  8
3
 62
3
370
25
100
AcDbPolyline
 90
2
 70
0
 10
6216.139154952876
 20
2507.165214700883
 10
6430.155537096016
 20
2507.165214700883
  0
LWPOLYLINE
  5
17D
330
17
100
AcDbEntity
  8
3
 62
3
370
25
100
AcDbPolyline
 90
2
 70
0
 10
6578.155537096016
 20
2477.165214700883
 10
6449.155537096015
 20
2477.165214700883
  0
LWPOLYLINE
  5
17E
330
17
100
AcDbEntity
  8
3
 62
3
370
25
100
AcDbPolyline
 90
2
 70
0
 10
6786.655537096016
 20
2477.165214700883
 10
6597.155537096016
 20
2477.165214700883
  0
LWPOLYLINE
  5
17F
330
17
100
AcDbEntity
  8
3
 62
3
370
25
100
AcDbPolyline
 90
2
 70
0
 10
6985.655537096016
 20
2477.165214700883
 10
6786.655537096016
 20
2477.165214700883
  0
LWPOLYLINE
  5
180
330
17
100
AcDbEntity
  8
3
 62
3
370
25
100
AcDbPolyline
 90
2
 70
0
 10
7068.637039096016
 20
2477.165214700883
 10
6985.655537096016
 20
2477.165214700883
  0
LWPOLYLINE
  5
181
330
17
100
AcDbEntity
  8
3
 62
3
370
25
100
AcDbPolyline
 90
2
 70
0
 10
6430.155537096016
 20
2507.165214700883
 10
6430.155537096016
 20
2477.165214700883
  0
LWPOLYLINE
  5
182
330
17
100
AcDbEntity
  8
3
 62
3
370
25
100
AcDbPolyline
 90
2
 70
0
 10
6449.155537096015
 20
2477.165214700883
 10
6449.155537096015
 20
2526.165214700883
  0
LWPOLYLINE
  5
183
330
17
100
AcDbEntity
  8
3
 62
3
370
25
100
AcDbPolyline
 90
2
 70
0
 10
6430.155537096016
 20
2796.165214700883
 10
6430.155537096016
 20
2697.165214700883
  0
LWPOLYLINE
  5
184
330
17
100
AcDbEntity
  8
3
 62
3
370
25
100
AcDbPolyline
 90
2
 70
0
 10
6449.155537096015
 20
2697.165214700883
 10
6449.155537096015
 20
2796.165214700883
  0
LWPOLYLINE
  5
185
330
17
100
AcDbEntity
  8
3
 62
3
370
25
100
AcDbPolyline
 90
2
 70
0
 10
6430.155537096016
 20
3120.165214700883
 10
6430.155537096016
 20
2896.165214700883
  0
LWPOLYLINE
  5
186
330
17
100
AcDbEntity
  8
3
 62
3
370
25
100
AcDbPolyline
 90
2
 70
0
 10
6449.155537096015
 20
2896.165214700883
 10
6449.155537096015
 20
3120.165214700883
  0
LWPOLYLINE
  5
187
330
17
100
AcDbEntity
  8
3
 62
3
370
25
100
AcDbPolyline
 90
2
 70
0
 10
6867.155537096016
 20
3120.165214700883
 10
6867.155537096016
 20
2702.665214700883
  0
LWPOLYLINE
  5
188
330
17
100
AcDbEntity
  8
3
 62
3
370
25
100
AcDbPolyline
 90
2
 70
0
 10
6886.155537096016
 20
2702.665214700883
 10
6886.155537096016
 20
3120.165214700883
  0
LWPOLYLINE
  5
189
330
17
100
AcDbEntity
  8
7
 62
7
370
25
100
AcDbPolyline
 90
2
 70
0
 10
6449.155537096015
 20
2465.165214700883
 10
6449.155537096015
 20
2477.165214700883
  0
LWPOLYLINE
  5
18A
330
17
100
AcDbEntity
  8
7
 62
7
370
25
100
AcDbPolyline
 90
2
 70
0
 10
6449.155537096015
 20
2477.165214700883
 10
6430.155537096016
 20
2477.165214700883
  0
LWPOLYLINE
  5
18B
330
17
100
AcDbEntity
  8
7
 62
7
370
25
100
AcDbPolyline
 90
2
 70
0
 10
6430.155537096016
 20
2477.165214700883
 10
6430.155537096016
 20
2465.165214700883
  0
LWPOLYLINE
  5
18C
330
17
100
AcDbEntity
  8
7
 62
7
370
25
100
AcDbPolyline
 90
2
 70
0
 10
6597.155537096016
 20
2465.165214700883
 10
6597.155537096016
 20
2477.165214700883
  0
LWPOLYLINE
  5
18D
330
17
100
AcDbEntity
  8
7
 62
7
370
25
100
AcDbPolyline
 90
2
 70
0
 10
6597.155537096016
 20
2477.165214700883
 10
6578.155537096016
 20
2477.165214700883
  0
LWPOLYLINE
  5
18E
330
17
100
AcDbEntity
  8
7
 62
7
370
25
100
AcDbPolyline
 90
2
 70
0
 10
6578.155537096016
 20
2477.165214700883
 10
6578.155537096016
 20
2465.165214700883
  0
LWPOLYLINE
  5
18F
330
17
100
AcDbEntity
  8
7
 62
7
370
25
100
AcDbPolyline
 90
2
 70
0
 10
6430.155537096016
 20
2796.165214700883
 10
6449.155537096015
 20
2796.165214700883
  0
LWPOLYLINE
  5
190
330
17
100
AcDbEntity
  8
7
 62
7
370
25
100
AcDbPolyline
 90
2
 70
0
 10
6449.155537096015
 20
2796.165214700883
 10
6449.155537096015
 20
2896.165214700883
  0
LWPOLYLINE
  5
191
330
17
100
AcDbEntity
  8
7
 62
7
370
25
100
AcDbPolyline
 90
2
 70
0
 10
6449.155537096015
 20
2896.165214700883
 10
6430.155537096016
 20
2896.165214700883
  0
LWPOLYLINE
  5
192
330
17
100
AcDbEntity
  8
7
 62
7
370
25
100
AcDbPolyline
 90
2
 70
0
 10
6430.155537096016
 20
2896.165214700883
 10
6430.155537096016
 20
2796.165214700883
  0
LWPOLYLINE
  5
193
330
17
100
AcDbEntity
  8
7
 62
7
370
25
100
AcDbPolyline
 90
2
 70
0
 10
6816.655537096015
 20
2672.665214700883
 10
6936.655537096015
 20
2672.665214700883
  0
LWPOLYLINE
  5
194
330
17
100
AcDbEntity
  8
7
 62
7
370
25
100
AcDbPolyline
 90
2
 70
0
 10
6936.655537096015
 20
2672.665214700883
 10
6936.655537096015
 20
2702.665214700883
  0
LWPOLYLINE
  5
195
330
17
100
AcDbEntity
  8
7
 62
7
370
25
100
AcDbPolyline
 90
2
 70
0
 10
6936.655537096015
 20
2702.665214700883
 10
6816.655537096015
 20
2702.665214700883
  0
LWPOLYLINE
  5
196
330
17
100
AcDbEntity
  8
7
 62
7
370
25
100
AcDbPolyline
 90
2
 70
0
 10
6816.655537096015
 20
2702.665214700883
 10
6816.655537096015
 20
2672.665214700883
  0
LWPOLYLINE
  5
197
330
17
100
AcDbEntity
  8
7
 62
7
370
25
100
AcDbPolyline
 90
2
 70
0
 10
6427.655537096015
 20
2796.165214700883
 10
6451.655537096016
 20
2796.165214700883
  0
LWPOLYLINE
  5
198
330
17
100
AcDbEntity
  8
7
 62
7
370
25
100
AcDbPolyline
 90
2
 70
0
 10
6451.655537096016
 20
2796.165214700883
 10
6451.655537096016
 20
2896.165214700883
  0
LWPOLYLINE
  5
199
330
17
100
AcDbEntity
  8
7
 62
7
370
25
100
AcDbPolyline
 90
2
 70
0
 10
6451.655537096016
 20
2896.165214700883
 10
6427.655537096015
 20
2896.165214700883
  0
LWPOLYLINE
  5
19A
330
17
100
AcDbEntity
  8
7
 62
7
370
25
100
AcDbPolyline
 90
2
 70
0
 10
6427.655537096015
 20
2896.165214700883
 10
6427.655537096015
 20
2796.165214700883
  0
LWPOLYLINE
  5
19B
330
17
100
AcDbEntity
  8
3
 62
3
370
25
100
AcDbPolyline
 90
2
 70
0
 10
6430.155537096016
 20
2507.165214700883
 10
6430.155537096016
 20
2477.165214700883
  0
LWPOLYLINE
  5
19C
330
17
100
AcDbEntity
  8
3
 62
3
370
25
100
AcDbPolyline
 90
2
 70
0
 10
6430.155537096016
 20
2796.165214700883
 10
6430.155537096016
 20
2697.165214700883
  0
LWPOLYLINE
  5
19D
330
17
100
AcDbEntity
  8
3
 62
3
370
25
100
AcDbPolyline
 90
2
 70
0
 10
6449.155537096015
 20
2697.165214700883
 10
6449.155537096015
 20
2796.165214700883
  0
TEXT
  5
19E
330
17
100
AcDbEntity
  8
4
 62
4
370
25
100
AcDbText
 10
6964.200198096015
 20
2656.584493700882
 30
0.0
 40
15.0
  1
P17
100
AcDbText
  0
TEXT
  5
19F
330
17
100
AcDbEntity
  8
4
 62
4
370
25
100
AcDbText
 10
6356.203278231398
 20
2854.519862693827
 30
0.0
 40
15.0
  1
P16
100
AcDbText
  0
TEXT
  5
1A0
330
17
100
AcDbEntity
  8
3
 62
3
370
25
100
AcDbText
 10
6346.547114231396
 20
2840.220019693827
 30
0.0
 40
10.0
  1
19/100
100
AcDbText
  0
TEXT
  5
1A1
330
17
100
AcDbEntity
  8
4
 62
4
370
25
100
AcDbText
 10
6454.164907096016
 20
2480.859625700882
 30
0.0
 40
15.0
  1
V54
100
AcDbText
  0
TEXT
  5
1A2
330
17
100
AcDbEntity
  8
4
 62
4
370
25
100
AcDbText
 10
6426.254584096016
 20
2701.268850700883
 30
0.0
 40
15.0
  1
V72
 50
90.0
100
AcDbText
  0
TEXT
  5
1A3
330
17
100
AcDbEntity
  8
4
 62
4
370
25
100
AcDbText
 10
6863.238704096016
 20
2752.349801720831
 30
0.0
 40
15.0
  1
V75
 50
90.0
100
AcDbText
  0
TEXT
  5
1A4
330
17
100
AcDbEntity
  8
4
 62
4
370
25
100
AcDbText
 10
6649.597776085307
 20
2898.587180700883
 30
0.0
 40
15.0
  1
L65
100
AcDbText
  0
TEXT
  5
1A5
330
17
100
AcDbEntity
  8
3
 62
3
370
25
100
AcDbText
 10
6645.22257067248
 20
2859.65089521339
 30
0.0
 40
10.0
  1
820.98
100
AcDbText
  0
TEXT
  5
1A6
330
17
100
AcDbEntity
  8
3
 62
3
370
25
100
AcDbText
 10
6789.196391096017
 20
2539.087814700883
 30
0.0
 40
10.0
  1
820.98
100
AcDbText
  0
TEXT
  5
1A7
330
17
100
AcDbEntity
  8
3
 62
3
370
25
100
AcDbText
 10
6954.509561096016
 20
2611.839423700882
 30
0.0
 40
10.0
  1
120/19
100
AcDbText
  0
TEXT
  5
1A8
330
17
100
AcDbEntity
  8
3
 62
3
370
25
100
AcDbText
 10
6960.632573096017
 20
2626.963303700883
 30
0.0
 40
10.0
  1
SEGUE
100
AcDbText
  0
TEXT
  5
1A9
330
17
100
AcDbEntity
  8
3
 62
3
370
25
100
AcDbText
 10
6351.314259231398
 20
2825.399683693827
 30
0.0
 40
10.0
  1
SEGUE
100
AcDbText
  0
TEXT
  5
1AA
330
17
100
AcDbEntity
  8
3
 62
3
370
25
100
AcDbText
 10
6347.401372231398
 20
2810.074209693827
 30
0.0
 40
10.0
  1
24/100
100
AcDbText
  0
TEXT
  5
1AB
330
17
100
AcDbEntity
  8
3
 62
3
370
25
100
AcDbText
 10
6425.874560096016
 20
3065.393357700882
 30
0.0
 40
10.0
  1
19/55
 50
90.0
100
AcDbText
  0
TEXT
  5
1AC
330
17
100
AcDbEntity
  8
3
 62
3
370
25
100
AcDbText
 10
6649.597776085307
 20
2881.587180700883
 30
0.0
 40
10.0
  1
h=13
100
AcDbText
  0
TEXT
  5
1AD
330
17
100
AcDbEntity
  8
3
 62
3
370
25
100
AcDbText
 10
6752.211065096017
 20
2700.992742700883
 30
0.0
 40
10.0
  1
19/55
100
AcDbText
  0
TEXT
  5
1AE
330
17
100
AcDbEntity
  8
3
 62
3
370
25
100
AcDbText
 10
6357.580365096016
 20
2700.462355700882
 30
0.0
 40
10.0
  1
19/55
100
AcDbText
  0
TEXT
  5
1AF
330
17
100
AcDbEntity
  8
3
 62
3
370
25
100
AcDbText
 10
6862.203744096015
 20
3067.334806700882
 30
0.0
 40
10.0
  1
19/55
 50
90.0
100
AcDbText
  0
TEXT
  5
1B0
330
17
100
AcDbEntity
  8
3
 62
3
370
25
100
AcDbText
 10
7055.614996096015
 20
2479.776922700882
 30
0.0
 40
10.0
  1
19/55
100
AcDbText
  0
TEXT
  5
1B1
330
17
100
AcDbEntity
  8
3
 62
3
370
25
100
AcDbText
 10
6525.464172096015
 20
2479.596006700882
 30
0.0
 40
10.0
  1
19/55
100
AcDbText
  0
TEXT
  5
1B2
330
17
100
AcDbEntity
  8
3
 62
3
370
25
100
AcDbText
 10
6364.347634096016
 20
2529.915214700883
 30
0.0
 40
10.0
  1
19/55
100
AcDbText
  0
TEXT
  5
1B3
330
17
100
AcDbEntity
  8
3
 62
3
370
25
100
AcDbText
 10
6956.213379096016
 20
2641.270932700882
 30
0.0
 40
10.0
  1
120/30
100
AcDbText
  0
TEXT
  5
1B4
330
17
100
AcDbEntity
  8
AUX00
 62
7
370
25
100
AcDbText
 10
6272.336016182249
 20
2668.354760963874
 30
0.0
 40
8.0
  1
L210^J244X122^J1° PAV.
100
AcDbText
  0
TEXT
  5
1B5
330
17
100
AcDbEntity
  8
AUX00
 62
7
370
25
100
AcDbText
 10
6272.336016182249
 20
2577.533784717478
 30
0.0
 40
8.0
  1
L210^J244X122^J1° PAV.
100
AcDbText
  0
TEXT
  5
1B6
330
17
100
AcDbEntity
  8
AUX00
 62
7
370
25
100
AcDbText
 10
6604.9016871622
 20
3033.297538982091
 30
0.0
 40
8.0
  1
L213 ^J244X122^J1° PAV.
100
AcDbText
  0
TEXT
  5
1B7
330
17
100
AcDbEntity
  8
AUX00
 62
7
370
25
100
AcDbText
 10
6733.539121055797
 20
3033.297538982091
 30
0.0
 40
8.0
  1
L213 ^J244X122^J1° PAV.
100
AcDbText
  0
TEXT
  5
1B8
330
17
100
AcDbEntity
  8
AUX00
 62
7
370
25
100
AcDbText
 10
6733.539121055797
 20
2822.738120021115
 30
0.0
 40
8.0
  1
L213 ^J190X122^J1° PAV.
100
AcDbText
  0
TEXT
  5
1B9
330
17
100
AcDbEntity
  8
AUX00
 62
7
370
25
100
AcDbText
 10
6436.223513042678
 20
3033.297538982091
 30
0.0
 40
8.0
  1
L205 ^J244X122^J1° PAV.
100
AcDbText
  0
TEXT
  5
1BA
330
17
100
AcDbEntity
  8
AUX00
 62
7
370
25
100
AcDbText
 10
6449.369691723146
 20
2822.738120021115
 30
0.0
 40
8.0
  1
L118 ^J229X122^JTÉRREO^Jc/rec.
100
AcDbText
  0
TEXT
  5
1BB
330
17
100
AcDbEntity
  8
AUX00
 62
7
370
25
100
AcDbText
 10
6601.220962786509
 20
2822.738120021115
 30
0.0
 40
8.0
  1
L118 ^J229X122^JTÉRREO
100
AcDbText
  0
TEXT
  5
1BC
330
17
100
AcDbEntity
  8
AUX00
 62
7
370
25
100
AcDbText
 10
6554.49892483751
 20
2544.777821839158
 30
0.0
 40
8.0
  1
L203^J244X91^J1° PAV.
100
AcDbText
  0
TEXT
  5
1BD
330
17
100
AcDbEntity
  8
AUX00
 62
7
370
25
100
AcDbText
 10
6659.919330963133
 20
2544.777821839158
 30
0.0
 40
8.0
  1
L204^J158X122^J1° PAV.
100
AcDbText
  0
TEXT
  5
1BE
330
17
100
AcDbEntity
  8
AUX00
 62
7
370
25
100
AcDbText
 10
6554.49892483751
 20
2656.153032647723
 30
0.0
 40
8.0
  1
L204^J244X122^J1° PAV.^Jc/rec.
100
AcDbText
  0
TEXT
  5
1BF
330
17
100
AcDbEntity
  8
AUX00
 62
7
370
25
100
AcDbText
 10
6667.715019803582
 20
2641.366548211496
 30
0.0
 40
8.0
  1
L204^J158X122^J1° PAV.
100
AcDbText
  0
TEXT
  5
1C0
330
17
100
AcDbEntity
  8
AUX00
 62
7
370
25
100
AcDbText
 10
6865.008258155504
 20
2544.777821839158
 30
0.0
 40
8.0
  1
L204^J158X122^J1° PAV.
100
AcDbText
  0
TEXT
  5
1C1
330
17
100
AcDbEntity
  8
AUX00
 62
7
370
25
100
AcDbText
 10
6832.950957868994
 20
2641.366548211496
 30
0.0
 40
8.0
  1
L204^J165X122^J1° PAV.
100
AcDbText
  0
TEXT
  5
1C2
330
17
100
AcDbEntity
  8
AUX00
 62
7
370
25
100
AcDbText
 10
7023.671358767784
 20
2544.777821839158
 30
0.0
 40
8.0
  1
L209^J244X104.5^J1° PAV.^Jc/rec.
100
AcDbText
  0
TEXT
  5
1C3
330
17
100
AcDbEntity
  8
AUX00
 62
7
370
25
100
AcDbText
 10
7023.671358767784
 20
2662.954764312279
 30
0.0
 40
8.0
  1
L205^J178X122^J1° PAV.
100
AcDbText
  0
TEXT
  5
1C4
330
17
100
AcDbEntity
  8
Painéis
 62
240
370
25
100
AcDbText
 10
6272.860528394954
 20
2632.415214700882
 30
0.0
 40
9.0
  1
91.5
 50
90.0
100
AcDbText
  0
TEXT
  5
1C5
330
17
100
AcDbEntity
  8
Painéis
 62
240
370
25
100
AcDbText
 10
6332.655537096016
 20
2609.241617135243
 30
0.0
 40
9.0
  1
233
100
AcDbText
  0
TEXT
  5
1C6
330
17
100
AcDbEntity
  8
Painéis
 62
240
370
25
100
AcDbText
 10
6272.886844184395
 20
2549.210334978852
 30
0.0
 40
9.0
  1
60.5
 50
90.0
100
AcDbText
  0
TEXT
  5
1C7
330
17
100
AcDbEntity
  8
Painéis
 62
240
370
25
100
AcDbText
 10
6897.905537096015
 20
3133.064040155768
 30
0.0
 40
9.0
  1
23.5
100
AcDbText
  0
TEXT
  5
1C8
330
17
100
AcDbEntity
  8
Painéis
 62
240
370
25
100
AcDbText
 10
6627.575062931766
 20
2998.165214700881
 30
0.0
 40
9.0
  1
244
 50
90.0
100
AcDbText
  0
TEXT
  5
1C9
330
17
100
AcDbEntity
  8
Painéis
 62
240
370
25
100
AcDbText
 10
6658.155537096016
 20
2949.275710124789
 30
0.0
 40
9.0
  1
122
100
AcDbText
  0
TEXT
  5
1CA
330
17
100
AcDbEntity
  8
Painéis
 62
240
370
25
100
AcDbText
 10
6732.155537096016
 20
2949.315183809
 30
0.0
 40
9.0
  1
26
100
AcDbText
  0
TEXT
  5
1CB
330
17
100
AcDbEntity
  8
Painéis
 62
240
370
25
100
AcDbText
 10
6806.155537096016
 20
2949.275710124789
 30
0.0
 40
9.0
  1
122
100
AcDbText
  0
TEXT
  5
1CC
330
17
100
AcDbEntity
  8
Painéis
 62
240
370
25
100
AcDbText
 10
6584.155537096016
 20
2949.315183809
 30
0.0
 40
9.0
  1
26
100
AcDbText
  0
TEXT
  5
1CD
330
17
100
AcDbEntity
  8
Painéis
 62
240
370
25
100
AcDbText
 10
6627.548747142295
 20
2786.665214700882
 30
0.0
 40
9.0
  1
179
 50
90.0
100
AcDbText
  0
TEXT
  5
1CE
330
17
100
AcDbEntity
  8
Painéis
 62
240
370
25
100
AcDbText
 10
6815.483145979455
 20
2720.448109437723
 30
0.0
 40
9.0
  1
5.5
 50
90.0
100
AcDbText
  0
TEXT
  5
1CF
330
17
100
AcDbEntity
  8
Painéis
 62
240
370
25
100
AcDbText
 10
6841.905537096017
 20
2724.293639349598
 30
0.0
 40
9.0
  1
50.5
100
AcDbText
  0
TEXT
  5
1D0
330
17
100
AcDbEntity
  8
Painéis
 62
240
370
25
100
AcDbText
 10
6510.155537096015
 20
2949.275710124789
 30
0.0
 40
9.0
  1
122
100
AcDbText
  0
TEXT
  5
1D1
330
17
100
AcDbEntity
  8
Painéis
 62
240
370
25
100
AcDbText
 10
6469.333168674963
 20
2917.092239606703
 30
0.0
 40
9.0
  1
2.5
100
AcDbText
  0
TEXT
  5
1D2
330
17
100
AcDbEntity
  8
Painéis
 62
240
370
25
100
AcDbText
 10
6479.690775261371
 20
2886.165214700881
 30
0.0
 40
9.0
  1
20
 50
90.0
100
AcDbText
  0
TEXT
  5
1D3
330
17
100
AcDbEntity
  8
Painéis
 62
240
370
25
100
AcDbText
 10
6479.67103841927
 20
2836.165214700881
 30
0.0
 40
9.0
  1
80
 50
90.0
100
AcDbText
  0
TEXT
  5
1D4
330
17
100
AcDbEntity
  8
Painéis
 62
240
370
25
100
AcDbText
 10
6469.333168674963
 20
2784.815532141387
 30
0.0
 40
9.0
  1
2.5
100
AcDbText
  0
TEXT
  5
1D5
330
17
100
AcDbEntity
  8
Painéis
 62
240
370
25
100
AcDbText
 10
6524.09352584372
 20
2521.915214700881
 30
0.0
 40
9.0
  1
89.5
 50
90.0
100
AcDbText
  0
TEXT
  5
1D6
330
17
100
AcDbEntity
  8
Painéis
 62
240
370
25
100
AcDbText
 10
6524.126420580566
 20
2576.665214700882
 30
0.0
 40
9.0
  1
20
 50
90.0
100
AcDbText
  0
TEXT
  5
1D7
330
17
100
AcDbEntity
  8
Painéis
 62
240
370
25
100
AcDbText
 10
6524.093525843728
 20
2632.415214700882
 30
0.0
 40
9.0
  1
91.5
 50
90.0
100
AcDbText
  0
TEXT
  5
1D8
330
17
100
AcDbEntity
  8
Painéis
 62
240
370
25
100
AcDbText
 10
6833.905537096017
 20
2661.307381848822
 30
0.0
 40
9.0
  1
34.5
100
AcDbText
  0
TEXT
  5
1D9
330
17
100
AcDbEntity
  8
Painéis
 62
240
370
25
100
AcDbText
 10
6815.483145979454
 20
2654.882319964039
 30
0.0
 40
9.0
  1
5.5
 50
90.0
100
AcDbText
  0
TEXT
  5
1DA
330
17
100
AcDbEntity
  8
Painéis
 62
240
370
25
100
AcDbText
 10
6893.905537096016
 20
2661.228434480401
 30
0.0
 40
9.0
  1
85.5
100
AcDbText
  0
TEXT
  5
1DB
330
17
100
AcDbEntity
  8
Painéis
 62
240
370
25
100
AcDbText
 10
6965.998472520459
 20
2654.882319964039
 30
0.0
 40
9.0
  1
5.5
 50
90.0
100
AcDbText
  0
TEXT
  5
1DC
330
17
100
AcDbEntity
  8
Painéis
 62
240
370
25
100
AcDbText
 10
6571.155537096015
 20
2609.110038187874
 30
0.0
 40
9.0
  1
244
100
AcDbText
  0
TEXT
  5
1DD
330
17
100
AcDbEntity
  8
Painéis
 62
240
370
25
100
AcDbText
 10
6772.155537096016
 20
2609.162669766822
 30
0.0
 40
9.0
  1
158
100
AcDbText
  0
TEXT
  5
1DE
330
17
100
AcDbEntity
  8
Painéis
 62
240
370
25
100
AcDbText
 10
6930.155537096016
 20
2609.162669766822
 30
0.0
 40
9.0
  1
158
100
AcDbText
  0
TEXT
  5
1DF
330
17
100
AcDbEntity
  8
Painéis
 62
240
370
25
100
AcDbText
 10
6460.905537096016
 20
3132.956531231487
 30
0.0
 40
9.0
  1
23.5
100
AcDbText
  0
TEXT
  5
1E0
330
17
100
AcDbEntity
  8
Painéis
 62
240
370
25
100
AcDbText
 10
6855.405537096015
 20
3133.003058846046
 30
0.0
 40
9.0
  1
23.5
100
AcDbText
  0
TEXT
  5
1E1
330
17
100
AcDbEntity
  8
Painéis
 62
240
370
25
100
AcDbText
 10
6418.405537096017
 20
3133.003058846046
 30
0.0
 40
9.0
  1
23.5
100
AcDbText
  0
TEXT
  5
1E2
330
17
100
AcDbEntity
  8
Painéis
 62
240
370
25
100
AcDbText
 10
7017.905537096016
 20
2949.57024128356
 30
0.0
 40
9.0
  1
19.5
100
AcDbText
  0
TEXT
  5
1E3
330
17
100
AcDbEntity
  8
Painéis
 62
240
370
25
100
AcDbText
 10
6947.155537096016
 20
2949.497872862508
 30
0.0
 40
9.0
  1
122
100
AcDbText
  0
TEXT
  5
1E4
330
17
100
AcDbEntity
  8
Painéis
 62
240
370
25
100
AcDbText
 10
7062.877164079441
 20
2786.665214700882
 30
0.0
 40
9.0
  1
179
 50
90.0
100
AcDbText
  0
TEXT
  5
1E5
330
17
100
AcDbEntity
  8
Painéis
 62
240
370
25
100
AcDbText
 10
7062.903479868917
 20
2998.165214700883
 30
0.0
 40
9.0
  1
244
 50
90.0
100
AcDbText
  0
TEXT
  5
1E6
330
17
100
AcDbEntity
  8
Painéis
 62
240
370
25
100
AcDbText
 10
6966.343989892214
 20
2720.448109437723
 30
0.0
 40
9.0
  1
5.5
 50
90.0
100
AcDbText
  0
TEXT
  5
1E7
330
17
100
AcDbEntity
  8
Painéis
 62
240
370
25
100
AcDbText
 10
6911.405537096015
 20
2724.293639349598
 30
0.0
 40
9.0
  1
50.5
100
AcDbText
  0
TEXT
  5
1E8
330
17
100
AcDbEntity
  8
Painéis
 62
240
370
25
100
AcDbText
 10
6221.155537096015
 20
2949.497872862508
 30
0.0
 40
9.0
  1
122
100
AcDbText
  0
TEXT
  5
1E9
330
17
100
AcDbEntity
  8
Painéis
 62
240
370
25
100
AcDbText
 10
6295.155537096015
 20
2949.537346546718
 30
0.0
 40
9.0
  1
26
100
AcDbText
  0
TEXT
  5
1EA
330
17
100
AcDbEntity
  8
Painéis
 62
240
370
25
100
AcDbText
 10
6369.155537096016
 20
2949.497872862508
 30
0.0
 40
9.0
  1
122
100
AcDbText
  0
TEXT
  5
1EB
330
17
100
AcDbEntity
  8
Painéis
 62
240
370
25
100
AcDbText
 10
6409.977905517068
 20
2917.092239606703
 30
0.0
 40
9.0
  1
2.5
100
AcDbText
  0
TEXT
  5
1EC
330
17
100
AcDbEntity
  8
Painéis
 62
240
370
25
100
AcDbText
 10
6428.925183313962
 20
2886.165214700881
 30
0.0
 40
9.0
  1
20
 50
90.0
100
AcDbText
  0
TEXT
  5
1ED
330
17
100
AcDbEntity
  8
Painéis
 62
240
370
25
100
AcDbText
 10
6428.90544647186
 20
2836.165214700881
 30
0.0
 40
9.0
  1
80
 50
90.0
100
AcDbText
  0
TEXT
  5
1EE
330
17
100
AcDbEntity
  8
Painéis
 62
240
370
25
100
AcDbText
 10
6409.977905517068
 20
2784.815532141387
 30
0.0
 40
9.0
  1
2.5
100
AcDbText
  0
HATCH
  5
1EF
330
17
100
AcDbEntity
  8
Hachura
 62
7
100
AcDbHatch
 10
0.0
 20
0.0
 30
0.0
210
0.0
220
0.0
230
1.0
  2
SOLID
 70
1
 71
0
 91
1
 92
3
 72
0
 73
1
 93
5
 10
7008.155537096016
 20
2697.165214700883
 10
7027.655537096016
 20
2697.165214700883
 10
7027.655537096016
 20
3120.165214700883
 10
7008.155537096016
 20
3120.165214700883
 10
7008.155537096016
 20
2697.165214700883
 97
0
 75
1
 76
1
 98
0
  0
HATCH
  5
1F0
330
17
100
AcDbEntity
  8
Hachura
 62
7
100
AcDbHatch
 10
0.0
 20
0.0
 30
0.0
210
0.0
220
0.0
230
1.0
  2
SOLID
 70
1
 71
0
 91
1
 92
3
 72
0
 73
1
 93
5
 10
6719.155537096016
 20
2697.165214700883
 10
6745.155537096017
 20
2697.165214700883
 10
6745.155537096017
 20
3120.165214700883
 10
6719.155537096016
 20
3120.165214700883
 10
6719.155537096016
 20
2697.165214700883
 97
0
 75
1
 76
1
 98
0
  0
HATCH
  5
1F1
330
17
100
AcDbEntity
  8
Hachura
 62
7
100
AcDbHatch
 10
0.0
 20
0.0
 30
0.0
210
0.0
220
0.0
230
1.0
  2
SOLID
 70
1
 71
0
 91
1
 92
3
 72
0
 73
1
 93
5
 10
6571.155537096015
 20
2697.165214700883
 10
6597.155537096016
 20
2697.165214700883
 10
6597.155537096016
 20
3120.165214700883
 10
6571.155537096015
 20
3120.165214700883
 10
6571.155537096015
 20
2697.165214700883
 97
0
 75
1
 76
1
 98
0
  0
HATCH
  5
1F2
330
17
100
AcDbEntity
  8
Hachura
 62
7
100
AcDbHatch
 10
0.0
 20
0.0
 30
0.0
210
0.0
220
0.0
230
1.0
  2
SOLID
 70
1
 71
0
 91
1
 92
3
 72
0
 73
1
 93
5
 10
6282.155537096016
 20
2697.165214700883
 10
6308.155537096015
 20
2697.165214700883
 10
6308.155537096015
 20
3120.165214700883
 10
6282.155537096016
 20
3120.165214700883
 10
6282.155537096016
 20
2697.165214700883
 97
0
 75
1
 76
1
 98
0
  0
ENDSEC
  0
SECTION
  2
OBJECTS
  0
DICTIONARY
  5
A
330
0
100
AcDbDictionary
281
1
  3
ACAD_COLOR
350
B
  3
ACAD_GROUP
350
C
  3
ACAD_LAYOUT
350
D
  3
ACAD_MATERIAL
350
E
  3
ACAD_MLEADERSTYLE
350
F
  3
ACAD_MLINESTYLE
350
10
  3
ACAD_PLOTSETTINGS
350
11
  3
ACAD_PLOTSTYLENAME
350
12
  3
ACAD_SCALELIST
350
14
  3
ACAD_TABLESTYLE
350
15
  3
ACAD_VISUALSTYLE
350
16
  3
EZDXF_META
350
2D
  0
DICTIONARY
  5
B
330
A
100
AcDbDictionary
281
1
  0
DICTIONARY
  5
C
330
A
100
AcDbDictionary
281
1
  0
DICTIONARY
  5
D
330
A
100
AcDbDictionary
281
1
  3
Model
350
1A
  3
Layout1
350
1E
  0
DICTIONARY
  5
E
330
A
100
AcDbDictionary
281
1
  3
ByBlock
350
1F
  3
ByLayer
350
20
  3
Global
350
21
  0
DICTIONARY
  5
F
330
A
100
AcDbDictionary
281
1
  3
Standard
350
2C
  0
DICTIONARY
  5
10
330
A
100
AcDbDictionary
281
1
  3
Standard
350
22
  0
DICTIONARY
  5
11
330
A
100
AcDbDictionary
281
1
  0
ACDBDICTIONARYWDFLT
  5
12
330
A
100
AcDbDictionary
281
1
  3
Normal
350
13
100
AcDbDictionaryWithDefault
340
13
  0
ACDBPLACEHOLDER
  5
13
330
12
  0
DICTIONARY
  5
14
330
A
100
AcDbDictionary
281
1
  0
DICTIONARY
  5
15
330
A
100
AcDbDictionary
281
1
  0
DICTIONARY
  5
16
330
A
100
AcDbDictionary
281
1
  0
LAYOUT
  5
1A
330
D
100
AcDbPlotSettings
  1

  4
A3
  6

 40
7.5
 41
20.0
 42
7.5
 43
20.0
 44
420.0
 45
297.0
 46
0.0
 47
0.0
 48
0.0
 49
0.0
140
0.0
141
0.0
142
1.0
143
1.0
 70
1024
 72
1
 73
0
 74
5
  7

 75
16
 76
0
 77
2
 78
300
147
1.0
148
0.0
149
0.0
100
AcDbLayout
  1
Model
 70
1
 71
0
 10
0.0
 20
0.0
 11
420.0
 21
297.0
 12
0.0
 22
0.0
 32
0.0
 14
1e+20
 24
1e+20
 34
1e+20
 15
-1e+20
 25
-1e+20
 35
-1e+20
146
0.0
 13
0.0
 23
0.0
 33
0.0
 16
1.0
 26
0.0
 36
0.0
 17
0.0
 27
1.0
 37
0.0
 76
1
330
17
  0
LAYOUT
  5
1E
330
D
100
AcDbPlotSettings
  1

  4
A3
  6

 40
7.5
 41
20.0
 42
7.5
 43
20.0
 44
420.0
 45
297.0
 46
0.0
 47
0.0
 48
0.0
 49
0.0
140
0.0
141
0.0
142
1.0
143
1.0
 70
0
 72
1
 73
0
 74
5
  7

 75
16
 76
0
 77
2
 78
300
147
1.0
148
0.0
149
0.0
100
AcDbLayout
  1
Layout1
 70
1
 71
1
 10
0.0
 20
0.0
 11
420.0
 21
297.0
 12
0.0
 22
0.0
 32
0.0
 14
1e+20
 24
1e+20
 34
1e+20
 15
-1e+20
 25
-1e+20
 35
-1e+20
146
0.0
 13
0.0
 23
0.0
 33
0.0
 16
1.0
 26
0.0
 36
0.0
 17
0.0
 27
1.0
 37
0.0
 76
1
330
1B
  0
MATERIAL
  5
1F
102
{ACAD_REACTORS
330
E
102
}
330
E
100
AcDbMaterial
  1
ByBlock
  2

 70
0
 40
1.0
 71
1
 41
1.0
 91
-1023410177
 42
1.0
 72
1
  3

 73
1
 74
1
 75
1
 44
0.5
 73
0
 45
1.0
 46
1.0
 77
1
  4

 78
1
 79
1
170
1
 48
1.0
171
1
  6

172
1
173
1
174
1
140
1.0
141
1.0
175
1
  7

176
1
177
1
178
1
143
1.0
179
1
  8

270
1
271
1
272
1
145
1.0
146
1.0
273
1
  9

274
1
275
1
276
1
 42
1.0
 72
1
  3

 73
1
 74
1
 75
1
 94
63
  0
MATERIAL
  5
20
102
{ACAD_REACTORS
330
E
102
}
330
E
100
AcDbMaterial
  1
ByLayer
  2

 70
0
 40
1.0
 71
1
 41
1.0
 91
-1023410177
 42
1.0
 72
1
  3

 73
1
 74
1
 75
1
 44
0.5
 73
0
 45
1.0
 46
1.0
 77
1
  4

 78
1
 79
1
170
1
 48
1.0
171
1
  6

172
1
173
1
174
1
140
1.0
141
1.0
175
1
  7

176
1
177
1
178
1
143
1.0
179
1
  8

270
1
271
1
272
1
145
1.0
146
1.0
273
1
  9

274
1
275
1
276
1
 42
1.0
 72
1
  3

 73
1
 74
1
 75
1
 94
63
  0
MATERIAL
  5
21
102
{ACAD_REACTORS
330
E
102
}
330
E
100
AcDbMaterial
  1
Global
  2

 70
0
 40
1.0
 71
1
 41
1.0
 91
-1023410177
 42
1.0
 72
1
  3

 73
1
 74
1
 75
1
 44
0.5
 73
0
 45
1.0
 46
1.0
 77
1
  4

 78
1
 79
1
170
1
 48
1.0
171
1
  6

172
1
173
1
174
1
140
1.0
141
1.0
175
1
  7

176
1
177
1
178
1
143
1.0
179
1
  8

270
1
271
1
272
1
145
1.0
146
1.0
273
1
  9

274
1
275
1
276
1
 42
1.0
 72
1
  3

 73
1
 74
1
 75
1
 94
63
  0
MLINESTYLE
  5
22
102
{ACAD_REACTORS
330
10
102
}
330
10
100
AcDbMlineStyle
  2
Standard
 70
0
  3

 62
256
 51
90.0
 52
90.0
 71
2
 49
0.5
 62
256
  6
BYLAYER
 49
-0.5
 62
256
  6
BYLAYER
  0
MLEADERSTYLE
  5
2C
102
{ACAD_REACTORS
330
F
102
}
330
F
100
AcDbMLeaderStyle
179
2
170
2
171
1
172
0
 90
2
 40
0.0
 41
0.0
173
1
 91
-1056964608
 92
-2
290
1
 42
2.0
291
1
 43
8.0
  3
Standard
 44
4.0
300

342
29
174
1
175
1
176
0
178
1
 93
-1056964608
 45
4.0
292
0
297
0
 46
4.0
 94
-1056964608
 47
1.0
 49
1.0
140
1.0
294
1
141
0.0
177
0
142
1.0
295
0
296
0
143
3.75
271
0
272
9
273
9
  0
DICTIONARY
  5
2D
330
A
100
AcDbDictionary
280
1
281
1
  3
CREATED_BY_EZDXF
350
2E
  3
WRITTEN_BY_EZDXF
350
1F5
  0
DICTIONARYVAR
  5
2E
330
2D
100
DictionaryVariables
280
0
  1
1.4.3 @ 2026-06-18T16:00:40.532206+00:00
  0
DICTIONARYVAR
  5
1F5
330
2D
100
DictionaryVariables
280
0
  1
1.4.3 @ 2026-06-18T16:00:40.546845+00:00
  0
ENDSEC
  0
EOF
