  0
SECTION
  2
HEADER
  9
$ACADVER
  1
AC1024
  9
$ACADMAINTVER
 70
6
  9
$DWGCODEPAGE
  3
ANSI_1252
  9
$LASTSAVEDBY
  1
ezdxf
  9
$INSBASE
 10
0.0
 20
0.0
 30
0.0
  9
$EXTMIN
 10
1e+20
 20
1e+20
 30
1e+20
  9
$EXTMAX
 10
-1e+20
 20
-1e+20
 30
-1e+20
  9
$LIMMIN
 10
0.0
 20
0.0
  9
$LIMMAX
 10
420.0
 20
297.0
  9
$ORTHOMODE
 70
0
  9
$REGENMODE
 70
1
  9
$FILLMODE
 70
1
  9
$QTEXTMODE
 70
0
  9
$MIRRTEXT
 70
1
  9
$LTSCALE
 40
1.0
  9
$ATTMODE
 70
1
  9
$TEXTSIZE
 40
2.5
  9
$TRACEWID
 40
1.0
  9
$TEXTSTYLE
  7
Standard
  9
$CLAYER
  8
0
  9
$CELTYPE
  6
ByLayer
  9
$CECOLOR
 62
256
  9
$CELTSCALE
 40
1.0
  9
$DISPSILH
 70
0
  9
$DIMSCALE
 40
1.0
  9
$DIMASZ
 40
2.5
  9
$DIMEXO
 40
0.625
  9
$DIMDLI
 40
3.75
  9
$DIMRND
 40
0.0
  9
$DIMDLE
 40
0.0
  9
$DIMEXE
 40
1.25
  9
$DIMTP
 40
0.0
  9
$DIMTM
 40
0.0
  9
$DIMTXT
 40
2.5
  9
$DIMCEN
 40
2.5
  9
$DIMTSZ
 40
0.0
  9
$DIMTOL
 70
0
  9
$DIMLIM
 70
0
  9
$DIMTIH
 70
0
  9
$DIMTOH
 70
0
  9
$DIMSE1
 70
0
  9
$DIMSE2
 70
0
  9
$DIMTAD
 70
1
  9
$DIMZIN
 70
8
  9
$DIMBLK
  1

  9
$DIMASO
 70
1
  9
$DIMSHO
 70
1
  9
$DIMPOST
  1

  9
$DIMAPOST
  1

  9
$DIMALT
 70
0
  9
$DIMALTD
 70
3
  9
$DIMALTF
 40
0.03937007874
  9
$DIMLFAC
 40
1.0
  9
$DIMTOFL
 70
1
  9
$DIMTVP
 40
0.0
  9
$DIMTIX
 70
0
  9
$DIMSOXD
 70
0
  9
$DIMSAH
 70
0
  9
$DIMBLK1
  1

  9
$DIMBLK2
  1

  9
$DIMSTYLE
  2
ISO-25
  9
$DIMCLRD
 70
0
  9
$DIMCLRE
 70
0
  9
$DIMCLRT
 70
0
  9
$DIMTFAC
 40
1.0
  9
$DIMGAP
 40
0.625
  9
$DIMJUST
 70
0
  9
$DIMSD1
 70
0
  9
$DIMSD2
 70
0
  9
$DIMTOLJ
 70
0
  9
$DIMTZIN
 70
8
  9
$DIMALTZ
 70
0
  9
$DIMALTTZ
 70
0
  9
$DIMUPT
 70
0
  9
$DIMDEC
 70
2
  9
$DIMTDEC
 70
2
  9
$DIMALTU
 70
2
  9
$DIMALTTD
 70
3
  9
$DIMTXSTY
  7
Standard
  9
$DIMAUNIT
 70
0
  9
$DIMADEC
 70
0
  9
$DIMALTRND
 40
0.0
  9
$DIMAZIN
 70
0
  9
$DIMDSEP
 70
44
  9
$DIMATFIT
 70
3
  9
$DIMFRAC
 70
0
  9
$DIMLDRBLK
  1

  9
$DIMLUNIT
 70
2
  9
$DIMLWD
 70
-2
  9
$DIMLWE
 70
-2
  9
$DIMTMOVE
 70
0
  9
$DIMFXL
 40
1.0
  9
$DIMFXLON
 70
0
  9
$DIMJOGANG
 40
0.785398163397
  9
$DIMTFILL
 70
0
  9
$DIMTFILLCLR
 70
0
  9
$DIMARCSYM
 70
0
  9
$DIMLTYPE
  6

  9
$DIMLTEX1
  6

  9
$DIMLTEX2
  6

  9
$DIMTXTDIRECTION
 70
0
  9
$LUNITS
 70
2
  9
$LUPREC
 70
4
  9
$SKETCHINC
 40
1.0
  9
$FILLETRAD
 40
10.0
  9
$AUNITS
 70
0
  9
$AUPREC
 70
2
  9
$MENU
  1
.
  9
$ELEVATION
 40
0.0
  9
$PELEVATION
 40
0.0
  9
$THICKNESS
 40
0.0
  9
$LIMCHECK
 70
0
  9
$CHAMFERA
 40
0.0
  9
$CHAMFERB
 40
0.0
  9
$CHAMFERC
 40
0.0
  9
$CHAMFERD
 40
0.0
  9
$SKPOLY
 70
0
  9
$TDCREATE
 40
2461210.542141204
  9
$TDUCREATE
 40
2458532.153996898
  9
$TDUPDATE
 40
2461210.542141204
  9
$TDUUPDATE
 40
2458532.1544311
  9
$TDINDWG
 40
0.0
  9
$TDUSRTIMER
 40
0.0
  9
$USRTIMER
 70
1
  9
$ANGBASE
 50
0.0
  9
$ANGDIR
 70
0
  9
$PDMODE
 70
0
  9
$PDSIZE
 40
0.0
  9
$PLINEWID
 40
0.0
  9
$SPLFRAME
 70
0
  9
$SPLINETYPE
 70
6
  9
$SPLINESEGS
 70
8
  9
$HANDSEED
  5
10B
  9
$SURFTAB1
 70
6
  9
$SURFTAB2
 70
6
  9
$SURFTYPE
 70
6
  9
$SURFU
 70
6
  9
$SURFV
 70
6
  9
$UCSBASE
  2

  9
$UCSNAME
  2

  9
$UCSORG
 10
0.0
 20
0.0
 30
0.0
  9
$UCSXDIR
 10
1.0
 20
0.0
 30
0.0
  9
$UCSYDIR
 10
0.0
 20
1.0
 30
0.0
  9
$UCSORTHOREF
  2

  9
$UCSORTHOVIEW
 70
0
  9
$UCSORGTOP
 10
0.0
 20
0.0
 30
0.0
  9
$UCSORGBOTTOM
 10
0.0
 20
0.0
 30
0.0
  9
$UCSORGLEFT
 10
0.0
 20
0.0
 30
0.0
  9
$UCSORGRIGHT
 10
0.0
 20
0.0
 30
0.0
  9
$UCSORGFRONT
 10
0.0
 20
0.0
 30
0.0
  9
$UCSORGBACK
 10
0.0
 20
0.0
 30
0.0
  9
$PUCSBASE
  2

  9
$PUCSNAME
  2

  9
$PUCSORG
 10
0.0
 20
0.0
 30
0.0
  9
$PUCSXDIR
 10
1.0
 20
0.0
 30
0.0
  9
$PUCSYDIR
 10
0.0
 20
1.0
 30
0.0
  9
$PUCSORTHOREF
  2

  9
$PUCSORTHOVIEW
 70
0
  9
$PUCSORGTOP
 10
0.0
 20
0.0
 30
0.0
  9
$PUCSORGBOTTOM
 10
0.0
 20
0.0
 30
0.0
  9
$PUCSORGLEFT
 10
0.0
 20
0.0
 30
0.0
  9
$PUCSORGRIGHT
 10
0.0
 20
0.0
 30
0.0
  9
$PUCSORGFRONT
 10
0.0
 20
0.0
 30
0.0
  9
$PUCSORGBACK
 10
0.0
 20
0.0
 30
0.0
  9
$USERI1
 70
0
  9
$USERI2
 70
0
  9
$USERI3
 70
0
  9
$USERI4
 70
0
  9
$USERI5
 70
0
  9
$USERR1
 40
0.0
  9
$USERR2
 40
0.0
  9
$USERR3
 40
0.0
  9
$USERR4
 40
0.0
  9
$USERR5
 40
0.0
  9
$WORLDVIEW
 70
1
  9
$SHADEDGE
 70
3
  9
$SHADEDIF
 70
70
  9
$TILEMODE
 70
1
  9
$MAXACTVP
 70
64
  9
$PINSBASE
 10
0.0
 20
0.0
 30
0.0
  9
$PLIMCHECK
 70
0
  9
$PEXTMIN
 10
1e+20
 20
1e+20
 30
1e+20
  9
$PEXTMAX
 10
-1e+20
 20
-1e+20
 30
-1e+20
  9
$PLIMMIN
 10
0.0
 20
0.0
  9
$PLIMMAX
 10
420.0
 20
297.0
  9
$UNITMODE
 70
0
  9
$VISRETAIN
 70
1
  9
$PLINEGEN
 70
0
  9
$PSLTSCALE
 70
1
  9
$TREEDEPTH
 70
3020
  9
$CMLSTYLE
  2
Standard
  9
$CMLJUST
 70
0
  9
$CMLSCALE
 40
20.0
  9
$PROXYGRAPHICS
 70
1
  9
$MEASUREMENT
 70
1
  9
$CELWEIGHT
370
-1
  9
$ENDCAPS
280
0
  9
$JOINSTYLE
280
0
  9
$LWDISPLAY
290
0
  9
$INSUNITS
 70
6
  9
$HYPERLINKBASE
  1

  9
$STYLESHEET
  1

  9
$XEDIT
290
1
  9
$CEPSNTYPE
380
0
  9
$PSTYLEMODE
290
1
  9
$FINGERPRINTGUID
  2
{2C2A53F7-4107-48B6-A574-5ADC46B44183}
  9
$VERSIONGUID
  2
{9B5517A3-5DBB-46AD-A762-BC0F1E3A46CD}
  9
$EXTNAMES
290
1
  9
$PSVPSCALE
 40
0.0
  9
$OLESTARTUP
290
0
  9
$SORTENTS
280
127
  9
$INDEXCTL
280
0
  9
$HIDETEXT
280
1
  9
$XCLIPFRAME
280
1
  9
$HALOGAP
280
0
  9
$OBSCOLOR
 70
257
  9
$OBSLTYPE
280
0
  9
$INTERSECTIONDISPLAY
280
0
  9
$INTERSECTIONCOLOR
 70
257
  9
$DIMASSOC
280
2
  9
$PROJECTNAME
  1

  9
$CAMERADISPLAY
290
0
  9
$LENSLENGTH
 40
50.0
  9
$CAMERAHEIGHT
 40
0.0
  9
$STEPSPERSEC
 40
24.0
  9
$STEPSIZE
 40
100.0
  9
$3DDWFPREC
 40
2.0
  9
$PSOLWIDTH
 40
0.005
  9
$PSOLHEIGHT
 40
0.08
  9
$LOFTANG1
 40
1.570796326795
  9
$LOFTANG2
 40
1.570796326795
  9
$LOFTMAG1
 40
0.0
  9
$LOFTMAG2
 40
0.0
  9
$LOFTPARAM
 70
7
  9
$LOFTNORMALS
280
1
  9
$LATITUDE
 40
37.795
  9
$LONGITUDE
 40
-122.394
  9
$NORTHDIRECTION
 40
0.0
  9
$TIMEZONE
 70
-8000
  9
$LIGHTGLYPHDISPLAY
280
1
  9
$TILEMODELIGHTSYNCH
280
1
  9
$CMATERIAL
347
20
  9
$SOLIDHIST
280
0
  9
$SHOWHIST
280
1
  9
$DWFFRAME
280
2
  9
$DGNFRAME
280
2
  9
$REALWORLDSCALE
290
1
  9
$INTERFERECOLOR
 62
256
  9
$CSHADOW
280
0
  9
$SHADOWPLANELOCATION
 40
0.0
  0
ENDSEC
  0
SECTION
  2
CLASSES
  0
CLASS
  1
ACDBDICTIONARYWDFLT
  2
AcDbDictionaryWithDefault
  3
ObjectDBX Classes
 90
0
 91
0
280
0
281
0
  0
CLASS
  1
SUN
  2
AcDbSun
  3
SCENEOE
 90
1153
 91
0
280
0
281
0
  0
CLASS
  1
VISUALSTYLE
  2
AcDbVisualStyle
  3
ObjectDBX Classes
 90
4095
 91
0
280
0
281
0
  0
CLASS
  1
MATERIAL
  2
AcDbMaterial
  3
ObjectDBX Classes
 90
1153
 91
0
280
0
281
0
  0
CLASS
  1
SCALE
  2
AcDbScale
  3
ObjectDBX Classes
 90
1153
 91
0
280
0
281
0
  0
CLASS
  1
TABLESTYLE
  2
AcDbTableStyle
  3
ObjectDBX Classes
 90
4095
 91
0
280
0
281
0
  0
CLASS
  1
MLEADERSTYLE
  2
AcDbMLeaderStyle
  3
ACDB_MLEADERSTYLE_CLASS
 90
4095
 91
0
280
0
281
0
  0
CLASS
  1
DICTIONARYVAR
  2
AcDbDictionaryVar
  3
ObjectDBX Classes
 90
0
 91
0
280
0
281
0
  0
CLASS
  1
CELLSTYLEMAP
  2
AcDbCellStyleMap
  3
ObjectDBX Classes
 90
1152
 91
0
280
0
281
0
  0
CLASS
  1
MENTALRAYRENDERSETTINGS
  2
AcDbMentalRayRenderSettings
  3
SCENEOE
 90
1024
 91
0
280
0
281
0
  0
CLASS
  1
ACDBDETAILVIEWSTYLE
  2
AcDbDetailViewStyle
  3
ObjectDBX Classes
 90
1025
 91
0
280
0
281
0
  0
CLASS
  1
ACDBSECTIONVIEWSTYLE
  2
AcDbSectionViewStyle
  3
ObjectDBX Classes
 90
1025
 91
0
280
0
281
0
  0
CLASS
  1
RASTERVARIABLES
  2
AcDbRasterVariables
  3
ISM
 90
0
 91
0
280
0
281
0
  0
CLASS
  1
ACDBPLACEHOLDER
  2
AcDbPlaceHolder
  3
ObjectDBX Classes
 90
0
 91
0
280
0
281
0
  0
CLASS
  1
LAYOUT
  2
AcDbLayout
  3
ObjectDBX Classes
 90
0
 91
0
280
0
281
0
  0
ENDSEC
  0
SECTION
  2
TABLES
  0
TABLE
  2
VPORT
  5
8
330
0
100
AcDbSymbolTable
 70
1
  0
VPORT
  5
23
330
8
100
AcDbSymbolTableRecord
100
AcDbViewportTableRecord
  2
*Active
 70
0
 10
0.0
 20
0.0
 11
1.0
 21
1.0
 12
0.0
 22
0.0
 13
0.0
 23
0.0
 14
0.5
 24
0.5
 15
0.5
 25
0.5
 16
0.0
 26
0.0
 36
1.0
 17
0.0
 27
0.0
 37
0.0
 40
1000.0
 41
1.34
 42
50.0
 43
0.0
 44
0.0
 50
0.0
 51
0.0
 71
0
 72
1000
 73
1
 74
3
 75
0
 76
0
 77
0
 78
0
281
0
 65
0
146
0.0
  0
ENDTAB
  0
TABLE
  2
LTYPE
  5
2
330
0
100
AcDbSymbolTable
 70
3
  0
LTYPE
  5
24
330
2
100
AcDbSymbolTableRecord
100
AcDbLinetypeTableRecord
  2
ByBlock
 70
0
  3

 72
65
 73
0
 40
0.0
  0
LTYPE
  5
25
330
2
100
AcDbSymbolTableRecord
100
AcDbLinetypeTableRecord
  2
ByLayer
 70
0
  3

 72
65
 73
0
 40
0.0
  0
LTYPE
  5
26
330
2
100
AcDbSymbolTableRecord
100
AcDbLinetypeTableRecord
  2
Continuous
 70
0
  3

 72
65
 73
0
 40
0.0
  0
ENDTAB
  0
TABLE
  2
LAYER
  5
1
330
0
100
AcDbSymbolTable
 70
7
  0
LAYER
  5
27
330
1
100
AcDbSymbolTableRecord
100
AcDbLayerTableRecord
  2
0
 70
0
 62
7
  6
Continuous
370
-3
390
13
347
21
  0
LAYER
  5
28
330
1
100
AcDbSymbolTableRecord
100
AcDbLayerTableRecord
  2
Defpoints
 70
0
 62
7
  6
Continuous
290
0
370
-3
390
13
347
21
  0
LAYER
  5
2F
330
1
100
AcDbSymbolTableRecord
100
AcDbLayerTableRecord
  2
Painéis
 70
0
 62
7
  6
Continuous
370
-3
390
13
347
21
  0
LAYER
  5
30
330
1
100
AcDbSymbolTableRecord
100
AcDbLayerTableRecord
  2
4
 70
0
 62
7
  6
Continuous
370
-3
390
13
347
21
  0
LAYER
  5
31
330
1
100
AcDbSymbolTableRecord
100
AcDbLayerTableRecord
  2
7
 70
0
 62
7
  6
Continuous
370
-3
390
13
347
21
  0
LAYER
  5
32
330
1
100
AcDbSymbolTableRecord
100
AcDbLayerTableRecord
  2
Hachura
 70
0
 62
7
  6
Continuous
370
-3
390
13
347
21
  0
LAYER
  5
33
330
1
100
AcDbSymbolTableRecord
100
AcDbLayerTableRecord
  2
3
 70
0
 62
7
  6
Continuous
370
-3
390
13
347
21
  0
ENDTAB
  0
TABLE
  2
STYLE
  5
5
330
0
100
AcDbSymbolTable
 70
1
  0
STYLE
  5
29
330
5
100
AcDbSymbolTableRecord
100
AcDbTextStyleTableRecord
  2
Standard
 70
0
 40
0.0
 41
1.0
 50
0.0
 71
0
 42
2.5
  3
txt
  4

  0
ENDTAB
  0
TABLE
  2
VIEW
  5
7
330
0
100
AcDbSymbolTable
 70
0
  0
ENDTAB
  0
TABLE
  2
UCS
  5
6
330
0
100
AcDbSymbolTable
 70
0
  0
ENDTAB
  0
TABLE
  2
APPID
  5
3
330
0
100
AcDbSymbolTable
 70
3
  0
APPID
  5
2A
330
3
100
AcDbSymbolTableRecord
100
AcDbRegAppTableRecord
  2
ACAD
 70
0
  0
APPID
  5
108
330
3
100
AcDbSymbolTableRecord
100
AcDbRegAppTableRecord
  2
HATCHBACKGROUNDCOLOR
 70
0
  0
APPID
  5
109
330
3
100
AcDbSymbolTableRecord
100
AcDbRegAppTableRecord
  2
EZDXF
 70
0
  0
ENDTAB
  0
TABLE
  2
DIMSTYLE
  5
4
330
0
100
AcDbSymbolTable
 70
1
100
AcDbDimStyleTable
  0
DIMSTYLE
105
2B
330
4
100
AcDbSymbolTableRecord
100
AcDbDimStyleTableRecord
  2
Standard
 70
0
 40
1.0
 41
2.5
 42
0.625
 43
3.75
 44
1.25
 45
0.0
 46
0.0
 47
0.0
 48
0.0
 49
2.5
140
2.5
141
2.5
142
0.0
143
0.03937007874
144
1.0
145
0.0
146
1.0
147
0.625
148
0.0
 69
0
 70
0
 71
0
 72
0
 73
0
 74
0
 75
0
 76
0
 77
1
 78
8
 79
3
170
0
171
3
172
1
173
0
174
0
175
0
176
0
177
0
178
0
179
2
271
2
272
2
273
2
274
3
275
0
276
0
277
2
278
44
279
0
280
0
281
0
282
0
283
0
284
8
285
0
286
0
288
0
289
3
290
0
371
-2
372
-2
  0
ENDTAB
  0
TABLE
  2
BLOCK_RECORD
  5
9
330
0
100
AcDbSymbolTable
 70
2
  0
BLOCK_RECORD
  5
17
330
9
100
AcDbSymbolTableRecord
100
AcDbBlockTableRecord
  2
*Model_Space
340
1A
 70
0
280
1
281
0
  0
BLOCK_RECORD
  5
1B
330
9
100
AcDbSymbolTableRecord
100
AcDbBlockTableRecord
  2
*Paper_Space
340
1E
 70
0
280
1
281
0
  0
ENDTAB
  0
ENDSEC
  0
SECTION
  2
BLOCKS
  0
BLOCK
  5
18
330
17
100
AcDbEntity
  8
0
100
AcDbBlockBegin
  2
*Model_Space
 70
0
 10
0.0
 20
0.0
 30
0.0
  3
*Model_Space
  1

  0
ENDBLK
  5
19
330
17
100
AcDbEntity
  8
0
100
AcDbBlockEnd
  0
BLOCK
  5
1C
330
1B
100
AcDbEntity
  8
0
100
AcDbBlockBegin
  2
*Paper_Space
 70
0
 10
0.0
 20
0.0
 30
0.0
  3
*Paper_Space
  1

  0
ENDBLK
  5
1D
330
1B
100
AcDbEntity
  8
0
100
AcDbBlockEnd
  0
ENDSEC
  0
SECTION
  2
ENTITIES
  0
LINE
  5
34
330
17
100
AcDbEntity
  8
3
 62
3
370
25
100
AcDbLine
 10
4697.001708096015
 20
1980.165214700883
 30
0.0
 11
4703.655537096016
 21
1986.819043700881
 31
0.0
  0
LINE
  5
35
330
17
100
AcDbEntity
  8
3
 62
3
370
25
100
AcDbLine
 10
4684.980893096015
 20
1980.165214700883
 30
0.0
 11
4703.655537096016
 21
1998.839858700881
 31
0.0
  0
LINE
  5
36
330
17
100
AcDbEntity
  8
3
 62
3
370
25
100
AcDbLine
 10
4679.655537096016
 20
1986.860673700882
 30
0.0
 11
4703.655537096016
 21
2010.860673700882
 31
0.0
  0
LINE
  5
37
330
17
100
AcDbEntity
  8
3
 62
3
370
25
100
AcDbLine
 10
4679.655537096016
 20
1998.881489700881
 30
0.0
 11
4703.655537096016
 21
2022.881489700881
 31
0.0
  0
LINE
  5
38
330
17
100
AcDbEntity
  8
3
 62
3
370
25
100
AcDbLine
 10
4679.655537096016
 20
2010.902304700882
 30
0.0
 11
4703.655537096016
 21
2034.902304700882
 31
0.0
  0
LINE
  5
39
330
17
100
AcDbEntity
  8
3
 62
3
370
25
100
AcDbLine
 10
4679.655537096016
 20
2022.923119700882
 30
0.0
 11
4702.897632096015
 21
2046.165214700883
 31
0.0
  0
LINE
  5
3A
330
17
100
AcDbEntity
  8
3
 62
3
370
25
100
AcDbLine
 10
4679.655537096016
 20
2034.943935700882
 30
0.0
 11
4690.876816096015
 21
2046.165214700883
 31
0.0
  0
LINE
  5
3B
330
17
100
AcDbEntity
  8
3
 62
3
370
25
100
AcDbLine
 10
4264.252358096015
 20
1980.165214700883
 30
0.0
 11
4266.655537096016
 21
1982.568393700881
 31
0.0
  0
LINE
  5
3C
330
17
100
AcDbEntity
  8
3
 62
3
370
25
100
AcDbLine
 10
4252.231543096015
 20
1980.165214700883
 30
0.0
 11
4266.655537096016
 21
1994.589208700881
 31
0.0
  0
LINE
  5
3D
330
17
100
AcDbEntity
  8
3
 62
3
370
25
100
AcDbLine
 10
4242.655537096015
 20
1982.610024700882
 30
0.0
 11
4266.655537096016
 21
2006.610024700882
 31
0.0
  0
LINE
  5
3E
330
17
100
AcDbEntity
  8
3
 62
3
370
25
100
AcDbLine
 10
4242.655537096015
 20
1994.630839700882
 30
0.0
 11
4266.655537096016
 21
2018.630839700882
 31
0.0
  0
LINE
  5
3F
330
17
100
AcDbEntity
  8
3
 62
3
370
25
100
AcDbLine
 10
4242.655537096015
 20
2006.651654700881
 30
0.0
 11
4266.655537096016
 21
2030.651654700882
 31
0.0
  0
LINE
  5
40
330
17
100
AcDbEntity
  8
3
 62
3
370
25
100
AcDbLine
 10
4242.655537096015
 20
2018.672469700883
 30
0.0
 11
4266.655537096016
 21
2042.672469700882
 31
0.0
  0
LINE
  5
41
330
17
100
AcDbEntity
  8
3
 62
3
370
25
100
AcDbLine
 10
4242.655537096015
 20
2030.693285700881
 30
0.0
 11
4266.655537096016
 21
2054.693285700881
 31
0.0
  0
LINE
  5
42
330
17
100
AcDbEntity
  8
3
 62
3
370
25
100
AcDbLine
 10
4242.655537096015
 20
2042.714100700882
 30
0.0
 11
4260.106651096015
 21
2060.165214700883
 31
0.0
  0
LINE
  5
43
330
17
100
AcDbEntity
  8
3
 62
3
370
25
100
AcDbLine
 10
4242.655537096015
 20
2054.734915700882
 30
0.0
 11
4248.085836096016
 21
2060.165214700883
 31
0.0
  0
LINE
  5
44
330
17
100
AcDbEntity
  8
3
 62
3
370
25
100
AcDbLine
 10
4269.655537096016
 20
1980.165214700883
 30
0.0
 11
4679.655537096016
 21
1980.165214700883
 31
0.0
  0
LINE
  5
45
330
17
100
AcDbEntity
  8
3
 62
3
370
25
100
AcDbLine
 10
4703.655537096016
 20
1980.165214700883
 30
0.0
 11
4745.010800253911
 21
1980.165214700883
 31
0.0
  0
LINE
  5
46
330
17
100
AcDbEntity
  8
3
 62
3
370
25
100
AcDbLine
 10
4239.655537096015
 20
1980.165214700883
 30
0.0
 11
4138.6120658643
 21
1980.165214700883
 31
0.0
  0
LINE
  5
47
330
17
100
AcDbEntity
  8
3
 62
3
370
25
100
AcDbLine
 10
4239.655537096015
 20
1994.165214700883
 30
0.0
 11
4138.6120658643
 21
1994.165214700883
 31
0.0
  0
LINE
  5
48
330
17
100
AcDbEntity
  8
3
 62
3
370
25
100
AcDbLine
 10
4269.655537096016
 20
1994.165214700883
 30
0.0
 11
4679.655537096016
 21
1994.165214700883
 31
0.0
  0
LINE
  5
49
330
17
100
AcDbEntity
  8
3
 62
3
370
25
100
AcDbLine
 10
4703.655537096016
 20
1994.165214700883
 30
0.0
 11
4745.010800253911
 21
1994.165214700883
 31
0.0
  0
LINE
  5
4A
330
17
100
AcDbEntity
  8
3
 62
3
370
25
100
AcDbLine
 10
4566.107882605385
 20
2055.353689105507
 30
0.0
 11
4566.107882605385
 21
2030.353689105508
 31
0.0
  0
LINE
  5
4B
330
17
100
AcDbEntity
  8
3
 62
3
370
25
100
AcDbLine
 10
4553.607882605385
 20
2042.853689105507
 30
0.0
 11
4578.607882605385
 21
2042.853689105507
 31
0.0
  0
LINE
  5
4C
330
17
100
AcDbEntity
  8
3
 62
3
370
25
100
AcDbLine
 10
4566.107882605385
 20
2054.746341105507
 30
0.0
 11
4569.957006605386
 21
2054.746341105507
 31
0.0
  0
LINE
  5
4D
330
17
100
AcDbEntity
  8
3
 62
3
370
25
100
AcDbLine
 10
4566.107882605385
 20
2053.953492105506
 30
0.0
 11
4571.856344605385
 21
2053.953492105506
 31
0.0
  0
LINE
  5
4E
330
17
100
AcDbEntity
  8
3
 62
3
370
25
100
AcDbLine
 10
4566.107882605385
 20
2053.160643105507
 30
0.0
 11
4573.180140605385
 21
2053.160643105507
 31
0.0
  0
LINE
  5
4F
330
17
100
AcDbEntity
  8
3
 62
3
370
25
100
AcDbLine
 10
4566.107882605385
 20
2052.367782105507
 30
0.0
 11
4574.215401605386
 21
2052.367782105507
 31
0.0
  0
LINE
  5
50
330
17
100
AcDbEntity
  8
3
 62
3
370
25
100
AcDbLine
 10
4566.107882605385
 20
2051.574993105507
 30
0.0
 11
4575.062740605386
 21
2051.574993105507
 31
0.0
  0
LINE
  5
51
330
17
100
AcDbEntity
  8
3
 62
3
370
25
100
AcDbLine
 10
4566.107882605385
 20
2050.782144105507
 30
0.0
 11
4575.771750605386
 21
2050.782144105507
 31
0.0
  0
LINE
  5
52
330
17
100
AcDbEntity
  8
3
 62
3
370
25
100
AcDbLine
 10
4566.107882605385
 20
2049.989283105507
 30
0.0
 11
4576.371086605386
 21
2049.989283105507
 31
0.0
  0
LINE
  5
53
330
17
100
AcDbEntity
  8
3
 62
3
370
25
100
AcDbLine
 10
4566.107882605385
 20
2049.196434105507
 30
0.0
 11
4576.879108605385
 21
2049.196434105507
 31
0.0
  0
LINE
  5
54
330
17
100
AcDbEntity
  8
3
 62
3
370
25
100
AcDbLine
 10
4566.107882605385
 20
2048.403585105507
 30
0.0
 11
4577.308262605385
 21
2048.403585105507
 31
0.0
  0
LINE
  5
55
330
17
100
AcDbEntity
  8
3
 62
3
370
25
100
AcDbLine
 10
4566.107882605385
 20
2047.610735105507
 30
0.0
 11
4577.667320605385
 21
2047.610735105507
 31
0.0
  0
LINE
  5
56
330
17
100
AcDbEntity
  8
3
 62
3
370
25
100
AcDbLine
 10
4566.107882605385
 20
2046.817886105507
 30
0.0
 11
4577.962626605386
 21
2046.817886105507
 31
0.0
  0
LINE
  5
57
330
17
100
AcDbEntity
  8
3
 62
3
370
25
100
AcDbLine
 10
4566.107882605385
 20
2046.025085105507
 30
0.0
 11
4578.198898605386
 21
2046.025085105507
 31
0.0
  0
LINE
  5
58
330
17
100
AcDbEntity
  8
3
 62
3
370
25
100
AcDbLine
 10
4566.107882605385
 20
2045.232236105507
 30
0.0
 11
4578.379477605386
 21
2045.232236105507
 31
0.0
  0
LINE
  5
59
330
17
100
AcDbEntity
  8
3
 62
3
370
25
100
AcDbLine
 10
4566.107882605385
 20
2044.439387105506
 30
0.0
 11
4578.506887605385
 21
2044.439387105506
 31
0.0
  0
LINE
  5
5A
330
17
100
AcDbEntity
  8
3
 62
3
370
25
100
AcDbLine
 10
4566.107882605385
 20
2043.646538105507
 30
0.0
 11
4578.607882605385
 21
2043.646538105507
 31
0.0
  0
LINE
  5
5B
330
17
100
AcDbEntity
  8
3
 62
3
370
25
100
AcDbLine
 10
4566.107834605385
 20
2030.961084105507
 30
0.0
 11
4562.258757605386
 21
2030.961084105507
 31
0.0
  0
LINE
  5
5C
330
17
100
AcDbEntity
  8
3
 62
3
370
25
100
AcDbLine
 10
4566.107834605385
 20
2031.753933105507
 30
0.0
 11
4560.359371605385
 21
2031.753933105507
 31
0.0
  0
LINE
  5
5D
330
17
100
AcDbEntity
  8
3
 62
3
370
25
100
AcDbLine
 10
4566.107834605385
 20
2032.546782105507
 30
0.0
 11
4559.035576605385
 21
2032.546782105507
 31
0.0
  0
LINE
  5
5E
330
17
100
AcDbEntity
  8
3
 62
3
370
25
100
AcDbLine
 10
4566.107834605385
 20
2033.339583105507
 30
0.0
 11
4558.000315605386
 21
2033.339583105507
 31
0.0
  0
LINE
  5
5F
330
17
100
AcDbEntity
  8
3
 62
3
370
25
100
AcDbLine
 10
4566.107834605385
 20
2034.132492105507
 30
0.0
 11
4557.152975605386
 21
2034.132492105507
 31
0.0
  0
LINE
  5
60
330
17
100
AcDbEntity
  8
3
 62
3
370
25
100
AcDbLine
 10
4566.107834605385
 20
2034.925293105507
 30
0.0
 11
4556.444014605386
 21
2034.925293105507
 31
0.0
  0
LINE
  5
61
330
17
100
AcDbEntity
  8
3
 62
3
370
25
100
AcDbLine
 10
4566.107834605385
 20
2035.718143105507
 30
0.0
 11
4555.844629605386
 21
2035.718143105507
 31
0.0
  0
LINE
  5
62
330
17
100
AcDbEntity
  8
3
 62
3
370
25
100
AcDbLine
 10
4566.107834605385
 20
2036.510992105507
 30
0.0
 11
4555.336607605386
 21
2036.510992105507
 31
0.0
  0
LINE
  5
63
330
17
100
AcDbEntity
  8
3
 62
3
370
25
100
AcDbLine
 10
4566.107834605385
 20
2037.303841105507
 30
0.0
 11
4554.907454605385
 21
2037.303841105507
 31
0.0
  0
LINE
  5
64
330
17
100
AcDbEntity
  8
3
 62
3
370
25
100
AcDbLine
 10
4566.107834605385
 20
2038.096642105506
 30
0.0
 11
4554.548395605386
 21
2038.096642105506
 31
0.0
  0
LINE
  5
65
330
17
100
AcDbEntity
  8
3
 62
3
370
25
100
AcDbLine
 10
4566.107834605385
 20
2038.889539105507
 30
0.0
 11
4554.253090605385
 21
2038.889539105507
 31
0.0
  0
LINE
  5
66
330
17
100
AcDbEntity
  8
3
 62
3
370
25
100
AcDbLine
 10
4566.107834605385
 20
2039.682340105507
 30
0.0
 11
4554.016817605385
 21
2039.682340105507
 31
0.0
  0
LINE
  5
67
330
17
100
AcDbEntity
  8
3
 62
3
370
25
100
AcDbLine
 10
4566.107834605385
 20
2040.475189105507
 30
0.0
 11
4553.836191605386
 21
2040.475189105507
 31
0.0
  0
LINE
  5
68
330
17
100
AcDbEntity
  8
3
 62
3
370
25
100
AcDbLine
 10
4566.107834605385
 20
2041.268038105507
 30
0.0
 11
4553.708828605386
 21
2041.268038105507
 31
0.0
  0
LINE
  5
69
330
17
100
AcDbEntity
  8
3
 62
3
370
25
100
AcDbLine
 10
4566.107834605385
 20
2042.060887105507
 30
0.0
 11
4553.607834605386
 21
2042.060887105507
 31
0.0
  0
LINE
  5
6A
330
17
100
AcDbEntity
  8
3
 62
3
370
25
100
AcDbLine
 10
4578.607882605385
 20
2042.853689105507
 30
0.0
 11
4643.914005605386
 21
2042.853689105507
 31
0.0
  0
LINE
  5
6B
330
17
100
AcDbEntity
  8
3
 62
3
370
25
100
AcDbLine
 10
4553.607882605385
 20
2042.853689105507
 30
0.0
 11
4544.895006605385
 21
2042.853689105507
 31
0.0
  0
LINE
  5
6C
330
17
100
AcDbEntity
  8
3
 62
3
370
25
100
AcDbLine
 10
4566.107882605385
 20
2055.353689105507
 30
0.0
 11
4566.107882605385
 21
2063.934442105507
 31
0.0
  0
LINE
  5
6D
330
17
100
AcDbEntity
  8
3
 62
3
370
25
100
AcDbLine
 10
4566.107882605385
 20
2030.353689105508
 30
0.0
 11
4566.107882605385
 21
2022.133624105507
 31
0.0
  0
LINE
  5
6E
330
17
100
AcDbEntity
  8
Painéis
 62
200
370
25
100
AcDbLine
 10
4703.655537096016
 20
2029.665214700883
 30
0.0
 11
4745.010800253911
 21
2029.665214700883
 31
0.0
  0
LINE
  5
6F
330
17
100
AcDbEntity
  8
Painéis
 62
200
370
25
100
AcDbLine
 10
4508.155537096016
 20
1994.165214700883
 30
0.0
 11
4508.155537096016
 21
2065.165214700883
 31
0.0
  0
LINE
  5
70
330
17
100
AcDbEntity
  8
Painéis
 62
200
370
25
100
AcDbLine
 10
4679.655537096016
 20
2029.665214700883
 30
0.0
 11
4269.655537096016
 21
2029.665214700883
 31
0.0
  0
LINE
  5
71
330
17
100
AcDbEntity
  8
Painéis
 62
200
370
25
100
AcDbLine
 10
4242.655537096015
 20
2029.665214700883
 30
0.0
 11
4138.6120658643
 21
2029.665214700883
 31
0.0
  0
LINE
  5
72
330
17
100
AcDbEntity
  8
Painéis
 62
200
370
25
100
AcDbLine
 10
4560.164079096015
 20
2263.553977700882
 30
0.0
 11
4560.164079096015
 21
2084.165214700883
 31
0.0
  0
LINE
  5
73
330
17
100
AcDbEntity
  8
Painéis
 62
200
370
25
100
AcDbLine
 10
4534.164079096015
 20
2263.553977700882
 30
0.0
 11
4534.164079096015
 21
2084.165214700883
 31
0.0
  0
LINE
  5
74
330
17
100
AcDbEntity
  8
Painéis
 62
200
370
25
100
AcDbLine
 10
4412.164079096015
 20
2263.553977700882
 30
0.0
 11
4412.164079096015
 21
2084.165214700883
 31
0.0
  0
LINE
  5
75
330
17
100
AcDbEntity
  8
Painéis
 62
200
370
25
100
AcDbLine
 10
4386.164079096015
 20
2263.553977700882
 30
0.0
 11
4386.164079096015
 21
2084.165214700883
 31
0.0
  0
LINE
  5
76
330
17
100
AcDbEntity
  8
Painéis
 62
200
370
25
100
AcDbLine
 10
4138.6120658643
 20
2263.165214700883
 30
0.0
 11
4245.155537096016
 21
2263.165214700883
 31
0.0
  0
LINE
  5
77
330
17
100
AcDbEntity
  8
Painéis
 62
4
370
25
100
AcDbLine
 10
4701.155537096016
 20
2049.165214700883
 30
0.0
 11
4701.155537096016
 21
2071.145384337476
 31
0.0
  0
LINE
  5
78
330
17
100
AcDbEntity
  8
Painéis
 62
4
370
25
100
AcDbLine
 10
4703.655537096016
 20
2049.165214700883
 30
0.0
 11
4703.655537096016
 21
2071.145384337476
 31
0.0
  0
LINE
  5
79
330
17
100
AcDbEntity
  8
Painéis
 62
4
370
25
100
AcDbLine
 10
4701.155537096016
 20
2068.145384337476
 30
0.0
 11
4698.155537096016
 21
2068.145384337476
 31
0.0
  0
LINE
  5
7A
330
17
100
AcDbEntity
  8
Painéis
 62
4
370
25
100
AcDbLine
 10
4703.655537096016
 20
2068.145384337476
 30
0.0
 11
4733.010800253911
 21
2068.145384337476
 31
0.0
  0
LINE
  5
7B
330
17
100
AcDbEntity
  8
Painéis
 62
4
370
25
100
AcDbLine
 10
4701.155537096016
 20
2068.145384337476
 30
0.0
 11
4703.655537096016
 21
2068.145384337476
 31
0.0
  0
LINE
  5
7C
330
17
100
AcDbEntity
  8
Painéis
 62
0
370
25
100
AcDbLine
 10
4699.655537096016
 20
2066.645384337476
 30
0.0
 11
4702.655537096016
 21
2069.645384337476
 31
0.0
  0
LINE
  5
7D
330
17
100
AcDbEntity
  8
Painéis
 62
0
370
25
100
AcDbLine
 10
4705.155537096016
 20
2069.645384337476
 30
0.0
 11
4702.155537096016
 21
2066.645384337476
 31
0.0
  0
LINE
  5
7E
330
17
100
AcDbEntity
  8
Painéis
 62
4
370
25
100
AcDbLine
 10
4701.155537096016
 20
2050.233628266266
 30
0.0
 11
4745.010800253911
 21
2050.233628266266
 31
0.0
  0
LINE
  5
7F
330
17
100
AcDbEntity
  8
Painéis
 62
0
370
25
100
AcDbLine
 10
4702.655537096016
 20
2051.733628266266
 30
0.0
 11
4699.655537096016
 21
2048.733628266266
 31
0.0
  0
LINE
  5
80
330
17
100
AcDbEntity
  8
Painéis
 62
4
370
25
100
AcDbLine
 10
4745.010800253911
 20
2009.321504918484
 30
0.0
 11
4703.655537096016
 21
2009.321504918484
 31
0.0
  0
LINE
  5
81
330
17
100
AcDbEntity
  8
Painéis
 62
0
370
25
100
AcDbLine
 10
4705.155537096016
 20
2010.821504918484
 30
0.0
 11
4702.155537096016
 21
2007.821504918484
 31
0.0
  0
LINE
  5
82
330
17
100
AcDbEntity
  8
Painéis
 62
4
370
25
100
AcDbLine
 10
4706.655537096017
 20
2046.163507700882
 30
0.0
 11
4728.176893780402
 21
2046.163507700882
 31
0.0
  0
LINE
  5
83
330
17
100
AcDbEntity
  8
Painéis
 62
4
370
25
100
AcDbLine
 10
4706.655537096017
 20
2029.665214700884
 30
0.0
 11
4728.176893780402
 21
2029.665214700884
 31
0.0
  0
LINE
  5
84
330
17
100
AcDbEntity
  8
Painéis
 62
4
370
25
100
AcDbLine
 10
4725.176893780402
 20
2046.163507700882
 30
0.0
 11
4725.176893780402
 21
2029.665214700884
 31
0.0
  0
LINE
  5
85
330
17
100
AcDbEntity
  8
Painéis
 62
4
370
25
100
AcDbLine
 10
4725.176893780402
 20
2029.665214700884
 30
0.0
 11
4725.176893780402
 21
1999.691530490357
 31
0.0
  0
LINE
  5
86
330
17
100
AcDbEntity
  8
Painéis
 62
0
370
25
100
AcDbLine
 10
4726.676893780402
 20
2044.663507700882
 30
0.0
 11
4723.676893780402
 21
2047.663507700882
 31
0.0
  0
LINE
  5
87
330
17
100
AcDbEntity
  8
Painéis
 62
0
370
25
100
AcDbLine
 10
4723.676893780402
 20
2031.165214700884
 30
0.0
 11
4726.676893780402
 21
2028.165214700884
 31
0.0
  0
LINE
  5
88
330
17
100
AcDbEntity
  8
Painéis
 62
4
370
25
100
AcDbLine
 10
4682.155537096016
 20
2049.165214700883
 30
0.0
 11
4682.155537096016
 21
2054.666463252506
 31
0.0
  0
LINE
  5
89
330
17
100
AcDbEntity
  8
Painéis
 62
4
370
25
100
AcDbLine
 10
4679.655537096016
 20
2049.165214700883
 30
0.0
 11
4679.655537096016
 21
2054.666463252506
 31
0.0
  0
LINE
  5
8A
330
17
100
AcDbEntity
  8
Painéis
 62
4
370
25
100
AcDbLine
 10
4682.155537096016
 20
2051.666463252507
 30
0.0
 11
4685.155537096016
 21
2051.666463252507
 31
0.0
  0
LINE
  5
8B
330
17
100
AcDbEntity
  8
Painéis
 62
4
370
25
100
AcDbLine
 10
4679.655537096016
 20
2051.666463252507
 30
0.0
 11
4650.30027393812
 21
2051.666463252507
 31
0.0
  0
LINE
  5
8C
330
17
100
AcDbEntity
  8
Painéis
 62
4
370
25
100
AcDbLine
 10
4682.155537096016
 20
2051.666463252507
 30
0.0
 11
4679.655537096016
 21
2051.666463252507
 31
0.0
  0
LINE
  5
8D
330
17
100
AcDbEntity
  8
Painéis
 62
0
370
25
100
AcDbLine
 10
4683.655537096016
 20
2053.166463252507
 30
0.0
 11
4680.655537096016
 21
2050.166463252507
 31
0.0
  0
LINE
  5
8E
330
17
100
AcDbEntity
  8
Painéis
 62
0
370
25
100
AcDbLine
 10
4678.155537096016
 20
2050.166463252507
 30
0.0
 11
4681.155537096016
 21
2053.166463252507
 31
0.0
  0
LINE
  5
8F
330
17
100
AcDbEntity
  8
Painéis
 62
4
370
25
100
AcDbLine
 10
4272.655537096017
 20
2060.165214700884
 30
0.0
 11
4303.495172533563
 21
2060.165214700884
 31
0.0
  0
LINE
  5
90
330
17
100
AcDbEntity
  8
Painéis
 62
4
370
25
100
AcDbLine
 10
4272.655537096017
 20
2029.665214700884
 30
0.0
 11
4303.495172533564
 21
2029.665214700884
 31
0.0
  0
LINE
  5
91
330
17
100
AcDbEntity
  8
Painéis
 62
4
370
25
100
AcDbLine
 10
4300.495172533563
 20
2060.165214700884
 30
0.0
 11
4300.495172533564
 21
2029.665214700884
 31
0.0
  0
LINE
  5
92
330
17
100
AcDbEntity
  8
Painéis
 62
4
370
25
100
AcDbLine
 10
4300.495172533564
 20
2029.665214700884
 30
0.0
 11
4300.495172533564
 21
1995.836267332462
 31
0.0
  0
LINE
  5
93
330
17
100
AcDbEntity
  8
Painéis
 62
0
370
25
100
AcDbLine
 10
4301.995172533563
 20
2058.665214700884
 30
0.0
 11
4298.995172533563
 21
2061.665214700884
 31
0.0
  0
LINE
  5
94
330
17
100
AcDbEntity
  8
Painéis
 62
0
370
25
100
AcDbLine
 10
4298.995172533564
 20
2031.165214700884
 30
0.0
 11
4301.995172533564
 21
2028.165214700884
 31
0.0
  0
LINE
  5
95
330
17
100
AcDbEntity
  8
Painéis
 62
4
370
25
100
AcDbLine
 10
4264.155537096016
 20
2057.165214700883
 30
0.0
 11
4264.155537096016
 21
2042.02523266714
 31
0.0
  0
LINE
  5
96
330
17
100
AcDbEntity
  8
Painéis
 62
4
370
25
100
AcDbLine
 10
4269.655537096016
 20
2057.165214700883
 30
0.0
 11
4269.655537096016
 21
2042.02523266714
 31
0.0
  0
LINE
  5
97
330
17
100
AcDbEntity
  8
Painéis
 62
4
370
25
100
AcDbLine
 10
4264.155537096016
 20
2045.02523266714
 30
0.0
 11
4261.155537096016
 21
2045.02523266714
 31
0.0
  0
LINE
  5
98
330
17
100
AcDbEntity
  8
Painéis
 62
4
370
25
100
AcDbLine
 10
4269.655537096016
 20
2045.02523266714
 30
0.0
 11
4299.2213265697
 21
2045.02523266714
 31
0.0
  0
LINE
  5
99
330
17
100
AcDbEntity
  8
Painéis
 62
4
370
25
100
AcDbLine
 10
4264.155537096016
 20
2045.02523266714
 30
0.0
 11
4269.655537096016
 21
2045.02523266714
 31
0.0
  0
LINE
  5
9A
330
17
100
AcDbEntity
  8
Painéis
 62
0
370
25
100
AcDbLine
 10
4262.655537096016
 20
2043.52523266714
 30
0.0
 11
4265.655537096016
 21
2046.52523266714
 31
0.0
  0
LINE
  5
9B
330
17
100
AcDbEntity
  8
Painéis
 62
0
370
25
100
AcDbLine
 10
4271.155537096016
 20
2046.52523266714
 30
0.0
 11
4268.155537096016
 21
2043.52523266714
 31
0.0
  0
LINE
  5
9C
330
17
100
AcDbEntity
  8
Painéis
 62
4
370
25
100
AcDbLine
 10
4682.155537096016
 20
2053.233628266266
 30
0.0
 11
4682.155537096016
 21
2072.944182004285
 31
0.0
  0
LINE
  5
9D
330
17
100
AcDbEntity
  8
Painéis
 62
4
370
25
100
AcDbLine
 10
4682.155537096016
 20
2069.944182004285
 30
0.0
 11
4508.155537096016
 21
2069.944182004285
 31
0.0
  0
LINE
  5
9E
330
17
100
AcDbEntity
  8
Painéis
 62
0
370
25
100
AcDbLine
 10
4680.655537096016
 20
2068.444182004285
 30
0.0
 11
4683.655537096016
 21
2071.444182004285
 31
0.0
  0
LINE
  5
9F
330
17
100
AcDbEntity
  8
Painéis
 62
0
370
25
100
AcDbLine
 10
4509.655537096016
 20
2071.444182004285
 30
0.0
 11
4506.655537096016
 21
2068.444182004285
 31
0.0
  0
LINE
  5
A0
330
17
100
AcDbEntity
  8
Painéis
 62
4
370
25
100
AcDbLine
 10
4508.155537096016
 20
2053.233628266266
 30
0.0
 11
4508.155537096016
 21
2072.944182004285
 31
0.0
  0
LINE
  5
A1
330
17
100
AcDbEntity
  8
Painéis
 62
4
370
25
100
AcDbLine
 10
4264.155537096016
 20
2063.675547337702
 30
0.0
 11
4264.155537096016
 21
2072.944182004285
 31
0.0
  0
LINE
  5
A2
330
17
100
AcDbEntity
  8
Painéis
 62
4
370
25
100
AcDbLine
 10
4508.155537096016
 20
2069.944182004285
 30
0.0
 11
4264.155537096016
 21
2069.944182004285
 31
0.0
  0
LINE
  5
A3
330
17
100
AcDbEntity
  8
Painéis
 62
0
370
25
100
AcDbLine
 10
4506.655537096016
 20
2068.444182004285
 30
0.0
 11
4509.655537096016
 21
2071.444182004285
 31
0.0
  0
LINE
  5
A4
330
17
100
AcDbEntity
  8
Painéis
 62
0
370
25
100
AcDbLine
 10
4265.655537096016
 20
2071.444182004285
 30
0.0
 11
4262.655537096016
 21
2068.444182004285
 31
0.0
  0
LINE
  5
A5
330
17
100
AcDbEntity
  8
Painéis
 62
4
370
25
100
AcDbLine
 10
4269.655537096016
 20
2009.321504918484
 30
0.0
 11
4508.155537096016
 21
2009.321504918484
 31
0.0
  0
LINE
  5
A6
330
17
100
AcDbEntity
  8
Painéis
 62
0
370
25
100
AcDbLine
 10
4271.155537096016
 20
2010.821504918484
 30
0.0
 11
4268.155537096016
 21
2007.821504918484
 31
0.0
  0
LINE
  5
A7
330
17
100
AcDbEntity
  8
Painéis
 62
0
370
25
100
AcDbLine
 10
4506.655537096016
 20
2007.821504918484
 30
0.0
 11
4509.655537096016
 21
2010.821504918484
 31
0.0
  0
LINE
  5
A8
330
17
100
AcDbEntity
  8
Painéis
 62
4
370
25
100
AcDbLine
 10
4508.155537096016
 20
2009.321504918484
 30
0.0
 11
4679.655537096016
 21
2009.321504918484
 31
0.0
  0
LINE
  5
A9
330
17
100
AcDbEntity
  8
Painéis
 62
0
370
25
100
AcDbLine
 10
4509.655537096016
 20
2010.821504918484
 30
0.0
 11
4506.655537096016
 21
2007.821504918484
 31
0.0
  0
LINE
  5
AA
330
17
100
AcDbEntity
  8
Painéis
 62
0
370
25
100
AcDbLine
 10
4678.155537096016
 20
2007.821504918484
 30
0.0
 11
4681.155537096016
 21
2010.821504918484
 31
0.0
  0
LINE
  5
AB
330
17
100
AcDbEntity
  8
Painéis
 62
4
370
25
100
AcDbLine
 10
4526.684909407662
 20
2065.165214700884
 30
0.0
 11
4527.439523426219
 21
2065.165214700884
 31
0.0
  0
LINE
  5
AC
330
17
100
AcDbEntity
  8
Painéis
 62
4
370
25
100
AcDbLine
 10
4526.684909407662
 20
2029.665214700884
 30
0.0
 11
4527.439523426219
 21
2029.665214700884
 31
0.0
  0
LINE
  5
AD
330
17
100
AcDbEntity
  8
Painéis
 62
4
370
25
100
AcDbLine
 10
4524.439523426219
 20
2065.165214700884
 30
0.0
 11
4524.439523426219
 21
2029.665214700884
 31
0.0
  0
LINE
  5
AE
330
17
100
AcDbEntity
  8
Painéis
 62
0
370
25
100
AcDbLine
 10
4525.939523426219
 20
2063.665214700884
 30
0.0
 11
4522.939523426219
 21
2066.665214700884
 31
0.0
  0
LINE
  5
AF
330
17
100
AcDbEntity
  8
Painéis
 62
0
370
25
100
AcDbLine
 10
4522.939523426219
 20
2031.165214700884
 30
0.0
 11
4525.939523426219
 21
2028.165214700884
 31
0.0
  0
LINE
  5
B0
330
17
100
AcDbEntity
  8
Painéis
 62
4
370
25
100
AcDbLine
 10
4545.927356949849
 20
2029.665214700884
 30
0.0
 11
4547.813862006053
 21
2029.665214700884
 31
0.0
  0
LINE
  5
B1
330
17
100
AcDbEntity
  8
Painéis
 62
4
370
25
100
AcDbLine
 10
4545.927356949849
 20
1994.165214700883
 30
0.0
 11
4547.813862006053
 21
1994.165214700883
 31
0.0
  0
LINE
  5
B2
330
17
100
AcDbEntity
  8
Painéis
 62
4
370
25
100
AcDbLine
 10
4544.813862006054
 20
2029.665214700884
 30
0.0
 11
4544.813862006054
 21
1994.165214700883
 31
0.0
  0
LINE
  5
B3
330
17
100
AcDbEntity
  8
Painéis
 62
0
370
25
100
AcDbLine
 10
4546.313862006054
 20
2028.165214700884
 30
0.0
 11
4543.313862006054
 21
2031.165214700884
 31
0.0
  0
LINE
  5
B4
330
17
100
AcDbEntity
  8
Painéis
 62
0
370
25
100
AcDbLine
 10
4543.313862006054
 20
1995.665214700883
 30
0.0
 11
4546.313862006054
 21
1992.665214700883
 31
0.0
  0
LINE
  5
B5
330
17
100
AcDbEntity
  8
Painéis
 62
4
370
25
100
AcDbLine
 10
4676.655537096017
 20
2046.163507700882
 30
0.0
 11
4655.134180411635
 21
2046.163507700882
 31
0.0
  0
LINE
  5
B6
330
17
100
AcDbEntity
  8
Painéis
 62
4
370
25
100
AcDbLine
 10
4676.655537096017
 20
2029.665214700884
 30
0.0
 11
4655.134180411635
 21
2029.665214700884
 31
0.0
  0
LINE
  5
B7
330
17
100
AcDbEntity
  8
Painéis
 62
4
370
25
100
AcDbLine
 10
4658.134180411635
 20
2046.163507700882
 30
0.0
 11
4658.134180411635
 21
2029.665214700884
 31
0.0
  0
LINE
  5
B8
330
17
100
AcDbEntity
  8
Painéis
 62
4
370
25
100
AcDbLine
 10
4658.134180411635
 20
2029.665214700884
 30
0.0
 11
4658.134180411635
 21
1999.691530490357
 31
0.0
  0
LINE
  5
B9
330
17
100
AcDbEntity
  8
Painéis
 62
0
370
25
100
AcDbLine
 10
4659.634180411635
 20
2044.663507700882
 30
0.0
 11
4656.634180411635
 21
2047.663507700882
 31
0.0
  0
LINE
  5
BA
330
17
100
AcDbEntity
  8
Painéis
 62
0
370
25
100
AcDbLine
 10
4656.634180411635
 20
2031.165214700884
 30
0.0
 11
4659.634180411635
 21
2028.165214700884
 31
0.0
  0
LINE
  5
BB
330
17
100
AcDbEntity
  8
Painéis
 62
4
370
25
100
AcDbLine
 10
4245.155537096016
 20
2057.165214700883
 30
0.0
 11
4245.155537096016
 21
2039.372049821526
 31
0.0
  0
LINE
  5
BC
330
17
100
AcDbEntity
  8
Painéis
 62
4
370
25
100
AcDbLine
 10
4239.655537096015
 20
2057.165214700883
 30
0.0
 11
4239.655537096015
 21
2039.372049821526
 31
0.0
  0
LINE
  5
BD
330
17
100
AcDbEntity
  8
Painéis
 62
4
370
25
100
AcDbLine
 10
4245.155537096016
 20
2042.372049821526
 30
0.0
 11
4248.155537096016
 21
2042.372049821526
 31
0.0
  0
LINE
  5
BE
330
17
100
AcDbEntity
  8
Painéis
 62
4
370
25
100
AcDbLine
 10
4239.655537096015
 20
2042.372049821526
 30
0.0
 11
4210.089747622332
 21
2042.372049821526
 31
0.0
  0
LINE
  5
BF
330
17
100
AcDbEntity
  8
Painéis
 62
4
370
25
100
AcDbLine
 10
4245.155537096016
 20
2042.372049821526
 30
0.0
 11
4239.655537096015
 21
2042.372049821526
 31
0.0
  0
LINE
  5
C0
330
17
100
AcDbEntity
  8
Painéis
 62
0
370
25
100
AcDbLine
 10
4246.655537096016
 20
2043.872049821526
 30
0.0
 11
4243.655537096016
 21
2040.872049821526
 31
0.0
  0
LINE
  5
C1
330
17
100
AcDbEntity
  8
Painéis
 62
0
370
25
100
AcDbLine
 10
4238.155537096015
 20
2040.872049821526
 30
0.0
 11
4241.155537096015
 21
2043.872049821526
 31
0.0
  0
LINE
  5
C2
330
17
100
AcDbEntity
  8
Painéis
 62
4
370
25
100
AcDbLine
 10
4245.155537096016
 20
2065.165214700883
 30
0.0
 11
4138.6120658643
 21
2065.165214700883
 31
0.0
  0
LINE
  5
C3
330
17
100
AcDbEntity
  8
Painéis
 62
0
370
25
100
AcDbLine
 10
4243.655537096016
 20
2063.665214700883
 30
0.0
 11
4246.655537096016
 21
2066.665214700883
 31
0.0
  0
LINE
  5
C4
330
17
100
AcDbEntity
  8
Painéis
 62
4
370
25
100
AcDbLine
 10
4239.655537096015
 20
2002.112523617761
 30
0.0
 11
4138.6120658643
 21
2002.112523617761
 31
0.0
  0
LINE
  5
C5
330
17
100
AcDbEntity
  8
Painéis
 62
0
370
25
100
AcDbLine
 10
4238.155537096015
 20
2000.612523617761
 30
0.0
 11
4241.155537096015
 21
2003.612523617761
 31
0.0
  0
LINE
  5
C6
330
17
100
AcDbEntity
  8
Painéis
 62
4
370
25
100
AcDbLine
 10
4517.415348734549
 20
2263.553977700882
 30
0.0
 11
4517.415348734549
 21
2084.165214700884
 31
0.0
  0
LINE
  5
C7
330
17
100
AcDbEntity
  8
Painéis
 62
0
370
25
100
AcDbLine
 10
4515.915348734549
 20
2085.665214700884
 30
0.0
 11
4518.915348734549
 21
2082.665214700884
 31
0.0
  0
LWPOLYLINE
  5
C8
330
17
100
AcDbEntity
  8
7
 62
7
370
25
100
AcDbPolyline
 90
2
 70
0
 10
4679.655537096016
 20
1980.165214700883
 10
4703.655537096016
 20
1980.165214700883
  0
LWPOLYLINE
  5
C9
330
17
100
AcDbEntity
  8
7
 62
7
370
25
100
AcDbPolyline
 90
2
 70
0
 10
4703.655537096016
 20
1980.165214700883
 10
4703.655537096016
 20
2046.165214700883
  0
LWPOLYLINE
  5
CA
330
17
100
AcDbEntity
  8
7
 62
7
370
25
100
AcDbPolyline
 90
2
 70
0
 10
4703.655537096016
 20
2046.165214700883
 10
4679.655537096016
 20
2046.165214700883
  0
LWPOLYLINE
  5
CB
330
17
100
AcDbEntity
  8
7
 62
7
370
25
100
AcDbPolyline
 90
2
 70
0
 10
4679.655537096016
 20
2046.165214700883
 10
4679.655537096016
 20
1980.165214700883
  0
LWPOLYLINE
  5
CC
330
17
100
AcDbEntity
  8
7
 62
7
370
25
100
AcDbPolyline
 90
2
 70
0
 10
4269.655537096016
 20
2060.165214700883
 10
4266.655537096016
 20
2060.165214700883
  0
LWPOLYLINE
  5
CD
330
17
100
AcDbEntity
  8
7
 62
7
370
25
100
AcDbPolyline
 90
2
 70
0
 10
4266.655537096016
 20
2060.165214700883
 10
4266.655537096016
 20
1980.165214700883
  0
LWPOLYLINE
  5
CE
330
17
100
AcDbEntity
  8
7
 62
7
370
25
100
AcDbPolyline
 90
2
 70
0
 10
4266.655537096016
 20
1980.165214700883
 10
4269.655537096016
 20
1980.165214700883
  0
LWPOLYLINE
  5
CF
330
17
100
AcDbEntity
  8
7
 62
7
370
25
100
AcDbPolyline
 90
2
 70
0
 10
4269.655537096016
 20
1980.165214700883
 10
4269.655537096016
 20
2060.165214700883
  0
LWPOLYLINE
  5
D0
330
17
100
AcDbEntity
  8
7
 62
7
370
25
100
AcDbPolyline
 90
2
 70
0
 10
4242.655537096015
 20
2060.165214700883
 10
4239.655537096015
 20
2060.165214700883
  0
LWPOLYLINE
  5
D1
330
17
100
AcDbEntity
  8
7
 62
7
370
25
100
AcDbPolyline
 90
2
 70
0
 10
4239.655537096015
 20
2060.165214700883
 10
4239.655537096015
 20
1980.165214700883
  0
LWPOLYLINE
  5
D2
330
17
100
AcDbEntity
  8
7
 62
7
370
25
100
AcDbPolyline
 90
2
 70
0
 10
4239.655537096015
 20
1980.165214700883
 10
4242.655537096015
 20
1980.165214700883
  0
LWPOLYLINE
  5
D3
330
17
100
AcDbEntity
  8
7
 62
7
370
25
100
AcDbPolyline
 90
2
 70
0
 10
4242.655537096015
 20
1980.165214700883
 10
4242.655537096015
 20
2060.165214700883
  0
LWPOLYLINE
  5
D4
330
17
100
AcDbEntity
  8
3
 62
3
370
25
100
AcDbPolyline
 90
2
 70
0
 10
4245.155537096016
 20
2084.165214700883
 10
4138.6120658643
 20
2084.165214700883
  0
LWPOLYLINE
  5
D5
330
17
100
AcDbEntity
  8
3
 62
3
370
25
100
AcDbPolyline
 90
2
 70
0
 10
4138.6120658643
 20
2065.165214700883
 10
4245.155537096016
 20
2065.165214700883
  0
LWPOLYLINE
  5
D6
330
17
100
AcDbEntity
  8
3
 62
3
370
25
100
AcDbPolyline
 90
2
 70
0
 10
4682.155537096016
 20
2084.165214700883
 10
4264.155537096016
 20
2084.165214700883
  0
LWPOLYLINE
  5
D7
330
17
100
AcDbEntity
  8
3
 62
3
370
25
100
AcDbPolyline
 90
2
 70
0
 10
4264.155537096016
 20
2065.165214700883
 10
4682.155537096016
 20
2065.165214700883
  0
LWPOLYLINE
  5
D8
330
17
100
AcDbEntity
  8
3
 62
3
370
25
100
AcDbPolyline
 90
2
 70
0
 10
4745.010800253911
 20
2084.165214700883
 10
4701.155537096016
 20
2084.165214700883
  0
LWPOLYLINE
  5
D9
330
17
100
AcDbEntity
  8
3
 62
3
370
25
100
AcDbPolyline
 90
2
 70
0
 10
4701.155537096016
 20
2065.165214700883
 10
4745.010800253911
 20
2065.165214700883
  0
LWPOLYLINE
  5
DA
330
17
100
AcDbEntity
  8
3
 62
3
370
25
100
AcDbPolyline
 90
2
 70
0
 10
4245.155537096016
 20
2065.165214700883
 10
4245.155537096016
 20
2060.165214700883
  0
LWPOLYLINE
  5
DB
330
17
100
AcDbEntity
  8
3
 62
3
370
25
100
AcDbPolyline
 90
2
 70
0
 10
4264.155537096016
 20
2060.165214700883
 10
4264.155537096016
 20
2065.165214700883
  0
LWPOLYLINE
  5
DC
330
17
100
AcDbEntity
  8
3
 62
3
370
25
100
AcDbPolyline
 90
2
 70
0
 10
4245.155537096016
 20
2263.553977700882
 10
4245.155537096016
 20
2084.165214700883
  0
LWPOLYLINE
  5
DD
330
17
100
AcDbEntity
  8
3
 62
3
370
25
100
AcDbPolyline
 90
2
 70
0
 10
4264.155537096016
 20
2084.165214700883
 10
4264.155537096016
 20
2263.553977700882
  0
LWPOLYLINE
  5
DE
330
17
100
AcDbEntity
  8
3
 62
3
370
25
100
AcDbPolyline
 90
2
 70
0
 10
4682.155537096016
 20
2065.165214700883
 10
4682.155537096016
 20
2046.165214700883
  0
LWPOLYLINE
  5
DF
330
17
100
AcDbEntity
  8
3
 62
3
370
25
100
AcDbPolyline
 90
2
 70
0
 10
4701.155537096016
 20
2046.165214700883
 10
4701.155537096016
 20
2065.165214700883
  0
LWPOLYLINE
  5
E0
330
17
100
AcDbEntity
  8
3
 62
3
370
25
100
AcDbPolyline
 90
2
 70
0
 10
4682.155537096016
 20
2263.553977700882
 10
4682.155537096016
 20
2084.165214700883
  0
LWPOLYLINE
  5
E1
330
17
100
AcDbEntity
  8
3
 62
3
370
25
100
AcDbPolyline
 90
2
 70
0
 10
4701.155537096016
 20
2084.165214700883
 10
4701.155537096016
 20
2263.553977700882
  0
LWPOLYLINE
  5
E2
330
17
100
AcDbEntity
  8
7
 62
7
370
25
100
AcDbPolyline
 90
2
 70
0
 10
4242.655537096015
 20
1980.165214700883
 10
4266.655537096016
 20
1980.165214700883
  0
LWPOLYLINE
  5
E3
330
17
100
AcDbEntity
  8
7
 62
7
370
25
100
AcDbPolyline
 90
2
 70
0
 10
4266.655537096016
 20
1980.165214700883
 10
4266.655537096016
 20
2060.165214700883
  0
LWPOLYLINE
  5
E4
330
17
100
AcDbEntity
  8
7
 62
7
370
25
100
AcDbPolyline
 90
2
 70
0
 10
4266.655537096016
 20
2060.165214700883
 10
4242.655537096015
 20
2060.165214700883
  0
LWPOLYLINE
  5
E5
330
17
100
AcDbEntity
  8
7
 62
7
370
25
100
AcDbPolyline
 90
2
 70
0
 10
4242.655537096015
 20
2060.165214700883
 10
4242.655537096015
 20
1980.165214700883
  0
TEXT
  5
E6
330
17
100
AcDbEntity
  8
3
 62
3
370
25
100
AcDbText
 10
4428.574377387661
 20
2032.959099147154
 30
0.0
 40
10.0
  1
h=10
100
AcDbText
  0
TEXT
  5
E7
330
17
100
AcDbEntity
  8
4
 62
4
370
25
100
AcDbText
 10
4239.457471704485
 20
1956.153962700882
 30
0.0
 40
15.0
  1
P28
100
AcDbText
  0
TEXT
  5
E8
330
17
100
AcDbEntity
  8
4
 62
4
370
25
100
AcDbText
 10
4679.352006360473
 20
1956.479472700882
 30
0.0
 40
15.0
  1
P29
100
AcDbText
  0
TEXT
  5
E9
330
17
100
AcDbEntity
  8
3
 62
3
370
25
100
AcDbText
 10
4238.510953704484
 20
1925.664137700882
 30
0.0
 40
10.0
  1
SEGUE
100
AcDbText
  0
TEXT
  5
EA
330
17
100
AcDbEntity
  8
3
 62
3
370
25
100
AcDbText
 10
4677.558223360473
 20
1942.799620700881
 30
0.0
 40
10.0
  1
24/66
100
AcDbText
  0
TEXT
  5
EB
330
17
100
AcDbEntity
  8
3
 62
3
370
25
100
AcDbText
 10
4238.510953704484
 20
1911.629995700882
 30
0.0
 40
10.0
  1
24/80
100
AcDbText
  0
TEXT
  5
EC
330
17
100
AcDbEntity
  8
3
 62
3
370
25
100
AcDbText
 10
4239.457471704485
 20
1941.153962700882
 30
0.0
 40
10.0
  1
30/80
100
AcDbText
  0
TEXT
  5
ED
330
17
100
AcDbEntity
  8
4
 62
4
370
25
100
AcDbText
 10
4241.405537096016
 20
2099.165214700883
 30
0.0
 40
15.0
  1
V61
 50
90.0
100
AcDbText
  0
TEXT
  5
EE
330
17
100
AcDbEntity
  8
4
 62
4
370
25
100
AcDbText
 10
4678.405537096016
 20
2099.165214700883
 30
0.0
 40
15.0
  1
V63
 50
90.0
100
AcDbText
  0
TEXT
  5
EF
330
17
100
AcDbEntity
  8
4
 62
4
370
25
100
AcDbText
 10
4426.416746387661
 20
2047.262059147154
 30
0.0
 40
15.0
  1
L76
100
AcDbText
  0
TEXT
  5
F0
330
17
100
AcDbEntity
  8
3
 62
3
370
25
100
AcDbText
 10
4581.951891605386
 20
2045.935197105507
 30
0.0
 40
10.0
  1
820.91
100
AcDbText
  0
TEXT
  5
F1
330
17
100
AcDbEntity
  8
3
 62
3
370
25
100
AcDbText
 10
4171.435941344232
 20
2087.612148700882
 30
0.0
 40
10.0
  1
19/55
100
AcDbText
  0
TEXT
  5
F2
330
17
100
AcDbEntity
  8
3
 62
3
370
25
100
AcDbText
 10
4588.732945096015
 20
2088.653052700882
 30
0.0
 40
10.0
  1
19/55
100
AcDbText
  0
TEXT
  5
F3
330
17
100
AcDbEntity
  8
3
 62
3
370
25
100
AcDbText
 10
4610.673036096016
 20
1965.707982700882
 30
0.0
 40
10.0
  1
14/55
100
AcDbText
  0
TEXT
  5
F4
330
17
100
AcDbEntity
  8
3
 62
3
370
25
100
AcDbText
 10
4172.173036096015
 20
1965.707982700882
 30
0.0
 40
10.0
  1
14/55
100
AcDbText
  0
TEXT
  5
F5
330
17
100
AcDbEntity
  8
3
 62
3
370
25
100
AcDbText
 10
4428.043309096016
 20
2251.553977700882
 30
0.0
 40
10.0
  1
h=13
100
AcDbText
  0
TEXT
  5
F6
330
17
100
AcDbEntity
  8
Painéis
 62
240
370
25
100
AcDbText
 10
4721.333168674963
 20
2075.744068548003
 30
0.0
 40
9.0
  1
2.5
100
AcDbText
  0
TEXT
  5
F7
330
17
100
AcDbEntity
  8
Painéis
 62
240
370
25
100
AcDbText
 10
4735.578209569874
 20
2013.178372595619
 30
0.0
 40
9.0
  1
16.5
 50
90.0
100
AcDbText
  0
TEXT
  5
F8
330
17
100
AcDbEntity
  8
Painéis
 62
240
370
25
100
AcDbText
 10
4661.977905517068
 20
2059.265147463033
 30
0.0
 40
9.0
  1
2.5
100
AcDbText
  0
TEXT
  5
F9
330
17
100
AcDbEntity
  8
Painéis
 62
240
370
25
100
AcDbText
 10
4310.79780411251
 20
2011.250741016672
 30
0.0
 40
9.0
  1
30.5
 50
90.0
100
AcDbText
  0
TEXT
  5
FA
330
17
100
AcDbEntity
  8
Painéis
 62
240
370
25
100
AcDbText
 10
4287.438431832859
 20
2052.623916877666
 30
0.0
 40
9.0
  1
5.5
100
AcDbText
  0
TEXT
  5
FB
330
17
100
AcDbEntity
  8
Painéis
 62
240
370
25
100
AcDbText
 10
4595.155537096015
 20
2077.509971477969
 30
0.0
 40
9.0
  1
174
100
AcDbText
  0
TEXT
  5
FC
330
17
100
AcDbEntity
  8
Painéis
 62
240
370
25
100
AcDbText
 10
4386.155537096016
 20
2077.509971477969
 30
0.0
 40
9.0
  1
244
100
AcDbText
  0
TEXT
  5
FD
330
17
100
AcDbEntity
  8
Painéis
 62
240
370
25
100
AcDbText
 10
4388.905537096015
 20
2017.038610181641
 30
0.0
 40
9.0
  1
238.5
100
AcDbText
  0
TEXT
  5
FE
330
17
100
AcDbEntity
  8
Painéis
 62
240
370
25
100
AcDbText
 10
4593.905537096016
 20
2016.92018912901
 30
0.0
 40
9.0
  1
171.5
100
AcDbText
  0
TEXT
  5
FF
330
17
100
AcDbEntity
  8
Painéis
 62
240
370
25
100
AcDbText
 10
4534.742155005167
 20
2047.415214700882
 30
0.0
 40
9.0
  1
35.5
 50
90.0
100
AcDbText
  0
TEXT
  5
100
330
17
100
AcDbEntity
  8
Painéis
 62
240
370
25
100
AcDbText
 10
4555.116493585
 20
2011.915214700882
 30
0.0
 40
9.0
  1
35.5
 50
90.0
100
AcDbText
  0
TEXT
  5
101
330
17
100
AcDbEntity
  8
Painéis
 62
240
370
25
100
AcDbText
 10
4668.535496201107
 20
2013.178372595619
 30
0.0
 40
9.0
  1
16.5
 50
90.0
100
AcDbText
  0
TEXT
  5
102
330
17
100
AcDbEntity
  8
Painéis
 62
240
370
25
100
AcDbText
 10
4221.872642359173
 20
2049.970734032052
 30
0.0
 40
9.0
  1
5.5
100
AcDbText
  0
TEXT
  5
103
330
17
100
AcDbEntity
  8
Painéis
 62
240
370
25
100
AcDbText
 10
4186.721061096015
 20
2072.783635753514
 30
0.0
 40
9.0
  1
116.9
100
AcDbText
  0
TEXT
  5
104
330
17
100
AcDbEntity
  8
Painéis
 62
240
370
25
100
AcDbText
 10
4183.971061096015
 20
2009.678313091446
 30
0.0
 40
9.0
  1
111.4
100
AcDbText
  0
TEXT
  5
105
330
17
100
AcDbEntity
  8
Painéis
 62
240
370
25
100
AcDbText
 10
4527.849559260865
 20
2206.165214700882
 30
0.0
 40
9.0
  1
244
 50
90.0
100
AcDbText
  0
HATCH
  5
106
330
17
100
AcDbEntity
  8
Hachura
 62
7
100
AcDbHatch
 10
0.0
 20
0.0
 30
0.0
210
0.0
220
0.0
230
1.0
  2
SOLID
 70
1
 71
0
 91
1
 92
3
 72
0
 73
1
 93
5
 10
4534.164079096015
 20
2084.165214700883
 10
4560.164079096018
 20
2084.165214700882
 10
4560.164079096015
 20
2507.165214700883
 10
4534.164079096015
 20
2507.165214700883
 10
4534.164079096015
 20
2084.165214700883
 97
0
 75
1
 76
1
 98
0
  0
HATCH
  5
107
330
17
100
AcDbEntity
  8
Hachura
 62
7
100
AcDbHatch
 10
0.0
 20
0.0
 30
0.0
210
0.0
220
0.0
230
1.0
  2
SOLID
 70
1
 71
0
 91
1
 92
3
 72
0
 73
1
 93
5
 10
4386.164079096015
 20
2084.165214700883
 10
4412.164079096018
 20
2084.165214700883
 10
4412.164079096015
 20
2507.165214700883
 10
4386.164079096015
 20
2507.165214700883
 10
4386.164079096015
 20
2084.165214700883
 97
0
 75
1
 76
1
 98
0
  0
ENDSEC
  0
SECTION
  2
OBJECTS
  0
DICTIONARY
  5
A
330
0
100
AcDbDictionary
281
1
  3
ACAD_COLOR
350
B
  3
ACAD_GROUP
350
C
  3
ACAD_LAYOUT
350
D
  3
ACAD_MATERIAL
350
E
  3
ACAD_MLEADERSTYLE
350
F
  3
ACAD_MLINESTYLE
350
10
  3
ACAD_PLOTSETTINGS
350
11
  3
ACAD_PLOTSTYLENAME
350
12
  3
ACAD_SCALELIST
350
14
  3
ACAD_TABLESTYLE
350
15
  3
ACAD_VISUALSTYLE
350
16
  3
EZDXF_META
350
2D
  0
DICTIONARY
  5
B
330
A
100
AcDbDictionary
281
1
  0
DICTIONARY
  5
C
330
A
100
AcDbDictionary
281
1
  0
DICTIONARY
  5
D
330
A
100
AcDbDictionary
281
1
  3
Model
350
1A
  3
Layout1
350
1E
  0
DICTIONARY
  5
E
330
A
100
AcDbDictionary
281
1
  3
ByBlock
350
1F
  3
ByLayer
350
20
  3
Global
350
21
  0
DICTIONARY
  5
F
330
A
100
AcDbDictionary
281
1
  3
Standard
350
2C
  0
DICTIONARY
  5
10
330
A
100
AcDbDictionary
281
1
  3
Standard
350
22
  0
DICTIONARY
  5
11
330
A
100
AcDbDictionary
281
1
  0
ACDBDICTIONARYWDFLT
  5
12
330
A
100
AcDbDictionary
281
1
  3
Normal
350
13
100
AcDbDictionaryWithDefault
340
13
  0
ACDBPLACEHOLDER
  5
13
330
12
  0
DICTIONARY
  5
14
330
A
100
AcDbDictionary
281
1
  0
DICTIONARY
  5
15
330
A
100
AcDbDictionary
281
1
  0
DICTIONARY
  5
16
330
A
100
AcDbDictionary
281
1
  0
LAYOUT
  5
1A
330
D
100
AcDbPlotSettings
  1

  4
A3
  6

 40
7.5
 41
20.0
 42
7.5
 43
20.0
 44
420.0
 45
297.0
 46
0.0
 47
0.0
 48
0.0
 49
0.0
140
0.0
141
0.0
142
1.0
143
1.0
 70
1024
 72
1
 73
0
 74
5
  7

 75
16
 76
0
 77
2
 78
300
147
1.0
148
0.0
149
0.0
100
AcDbLayout
  1
Model
 70
1
 71
0
 10
0.0
 20
0.0
 11
420.0
 21
297.0
 12
0.0
 22
0.0
 32
0.0
 14
1e+20
 24
1e+20
 34
1e+20
 15
-1e+20
 25
-1e+20
 35
-1e+20
146
0.0
 13
0.0
 23
0.0
 33
0.0
 16
1.0
 26
0.0
 36
0.0
 17
0.0
 27
1.0
 37
0.0
 76
1
330
17
  0
LAYOUT
  5
1E
330
D
100
AcDbPlotSettings
  1

  4
A3
  6

 40
7.5
 41
20.0
 42
7.5
 43
20.0
 44
420.0
 45
297.0
 46
0.0
 47
0.0
 48
0.0
 49
0.0
140
0.0
141
0.0
142
1.0
143
1.0
 70
0
 72
1
 73
0
 74
5
  7

 75
16
 76
0
 77
2
 78
300
147
1.0
148
0.0
149
0.0
100
AcDbLayout
  1
Layout1
 70
1
 71
1
 10
0.0
 20
0.0
 11
420.0
 21
297.0
 12
0.0
 22
0.0
 32
0.0
 14
1e+20
 24
1e+20
 34
1e+20
 15
-1e+20
 25
-1e+20
 35
-1e+20
146
0.0
 13
0.0
 23
0.0
 33
0.0
 16
1.0
 26
0.0
 36
0.0
 17
0.0
 27
1.0
 37
0.0
 76
1
330
1B
  0
MATERIAL
  5
1F
102
{ACAD_REACTORS
330
E
102
}
330
E
100
AcDbMaterial
  1
ByBlock
  2

 70
0
 40
1.0
 71
1
 41
1.0
 91
-1023410177
 42
1.0
 72
1
  3

 73
1
 74
1
 75
1
 44
0.5
 73
0
 45
1.0
 46
1.0
 77
1
  4

 78
1
 79
1
170
1
 48
1.0
171
1
  6

172
1
173
1
174
1
140
1.0
141
1.0
175
1
  7

176
1
177
1
178
1
143
1.0
179
1
  8

270
1
271
1
272
1
145
1.0
146
1.0
273
1
  9

274
1
275
1
276
1
 42
1.0
 72
1
  3

 73
1
 74
1
 75
1
 94
63
  0
MATERIAL
  5
20
102
{ACAD_REACTORS
330
E
102
}
330
E
100
AcDbMaterial
  1
ByLayer
  2

 70
0
 40
1.0
 71
1
 41
1.0
 91
-1023410177
 42
1.0
 72
1
  3

 73
1
 74
1
 75
1
 44
0.5
 73
0
 45
1.0
 46
1.0
 77
1
  4

 78
1
 79
1
170
1
 48
1.0
171
1
  6

172
1
173
1
174
1
140
1.0
141
1.0
175
1
  7

176
1
177
1
178
1
143
1.0
179
1
  8

270
1
271
1
272
1
145
1.0
146
1.0
273
1
  9

274
1
275
1
276
1
 42
1.0
 72
1
  3

 73
1
 74
1
 75
1
 94
63
  0
MATERIAL
  5
21
102
{ACAD_REACTORS
330
E
102
}
330
E
100
AcDbMaterial
  1
Global
  2

 70
0
 40
1.0
 71
1
 41
1.0
 91
-1023410177
 42
1.0
 72
1
  3

 73
1
 74
1
 75
1
 44
0.5
 73
0
 45
1.0
 46
1.0
 77
1
  4

 78
1
 79
1
170
1
 48
1.0
171
1
  6

172
1
173
1
174
1
140
1.0
141
1.0
175
1
  7

176
1
177
1
178
1
143
1.0
179
1
  8

270
1
271
1
272
1
145
1.0
146
1.0
273
1
  9

274
1
275
1
276
1
 42
1.0
 72
1
  3

 73
1
 74
1
 75
1
 94
63
  0
MLINESTYLE
  5
22
102
{ACAD_REACTORS
330
10
102
}
330
10
100
AcDbMlineStyle
  2
Standard
 70
0
  3

 62
256
 51
90.0
 52
90.0
 71
2
 49
0.5
 62
256
  6
BYLAYER
 49
-0.5
 62
256
  6
BYLAYER
  0
MLEADERSTYLE
  5
2C
102
{ACAD_REACTORS
330
F
102
}
330
F
100
AcDbMLeaderStyle
179
2
170
2
171
1
172
0
 90
2
 40
0.0
 41
0.0
173
1
 91
-1056964608
 92
-2
290
1
 42
2.0
291
1
 43
8.0
  3
Standard
 44
4.0
300

342
29
174
1
175
1
176
0
178
1
 93
-1056964608
 45
4.0
292
0
297
0
 46
4.0
 94
-1056964608
 47
1.0
 49
1.0
140
1.0
294
1
141
0.0
177
0
142
1.0
295
0
296
0
143
3.75
271
0
272
9
273
9
  0
DICTIONARY
  5
2D
330
A
100
AcDbDictionary
280
1
281
1
  3
CREATED_BY_EZDXF
350
2E
  3
WRITTEN_BY_EZDXF
350
10A
  0
DICTIONARYVAR
  5
2E
330
2D
100
DictionaryVariables
280
0
  1
1.4.3 @ 2026-06-18T16:00:41.368639+00:00
  0
DICTIONARYVAR
  5
10A
330
2D
100
DictionaryVariables
280
0
  1
1.4.3 @ 2026-06-18T16:00:41.376708+00:00
  0
ENDSEC
  0
EOF
