  0
SECTION
  2
HEADER
  9
$ACADVER
  1
AC1024
  9
$ACADMAINTVER
 70
6
  9
$DWGCODEPAGE
  3
ANSI_1252
  9
$LASTSAVEDBY
  1
ezdxf
  9
$INSBASE
 10
0.0
 20
0.0
 30
0.0
  9
$EXTMIN
 10
1e+20
 20
1e+20
 30
1e+20
  9
$EXTMAX
 10
-1e+20
 20
-1e+20
 30
-1e+20
  9
$LIMMIN
 10
0.0
 20
0.0
  9
$LIMMAX
 10
420.0
 20
297.0
  9
$ORTHOMODE
 70
0
  9
$REGENMODE
 70
1
  9
$FILLMODE
 70
1
  9
$QTEXTMODE
 70
0
  9
$MIRRTEXT
 70
1
  9
$LTSCALE
 40
1.0
  9
$ATTMODE
 70
1
  9
$TEXTSIZE
 40
2.5
  9
$TRACEWID
 40
1.0
  9
$TEXTSTYLE
  7
Standard
  9
$CLAYER
  8
0
  9
$CELTYPE
  6
ByLayer
  9
$CECOLOR
 62
256
  9
$CELTSCALE
 40
1.0
  9
$DISPSILH
 70
0
  9
$DIMSCALE
 40
1.0
  9
$DIMASZ
 40
2.5
  9
$DIMEXO
 40
0.625
  9
$DIMDLI
 40
3.75
  9
$DIMRND
 40
0.0
  9
$DIMDLE
 40
0.0
  9
$DIMEXE
 40
1.25
  9
$DIMTP
 40
0.0
  9
$DIMTM
 40
0.0
  9
$DIMTXT
 40
2.5
  9
$DIMCEN
 40
2.5
  9
$DIMTSZ
 40
0.0
  9
$DIMTOL
 70
0
  9
$DIMLIM
 70
0
  9
$DIMTIH
 70
0
  9
$DIMTOH
 70
0
  9
$DIMSE1
 70
0
  9
$DIMSE2
 70
0
  9
$DIMTAD
 70
1
  9
$DIMZIN
 70
8
  9
$DIMBLK
  1

  9
$DIMASO
 70
1
  9
$DIMSHO
 70
1
  9
$DIMPOST
  1

  9
$DIMAPOST
  1

  9
$DIMALT
 70
0
  9
$DIMALTD
 70
3
  9
$DIMALTF
 40
0.03937007874
  9
$DIMLFAC
 40
1.0
  9
$DIMTOFL
 70
1
  9
$DIMTVP
 40
0.0
  9
$DIMTIX
 70
0
  9
$DIMSOXD
 70
0
  9
$DIMSAH
 70
0
  9
$DIMBLK1
  1

  9
$DIMBLK2
  1

  9
$DIMSTYLE
  2
ISO-25
  9
$DIMCLRD
 70
0
  9
$DIMCLRE
 70
0
  9
$DIMCLRT
 70
0
  9
$DIMTFAC
 40
1.0
  9
$DIMGAP
 40
0.625
  9
$DIMJUST
 70
0
  9
$DIMSD1
 70
0
  9
$DIMSD2
 70
0
  9
$DIMTOLJ
 70
0
  9
$DIMTZIN
 70
8
  9
$DIMALTZ
 70
0
  9
$DIMALTTZ
 70
0
  9
$DIMUPT
 70
0
  9
$DIMDEC
 70
2
  9
$DIMTDEC
 70
2
  9
$DIMALTU
 70
2
  9
$DIMALTTD
 70
3
  9
$DIMTXSTY
  7
Standard
  9
$DIMAUNIT
 70
0
  9
$DIMADEC
 70
0
  9
$DIMALTRND
 40
0.0
  9
$DIMAZIN
 70
0
  9
$DIMDSEP
 70
44
  9
$DIMATFIT
 70
3
  9
$DIMFRAC
 70
0
  9
$DIMLDRBLK
  1

  9
$DIMLUNIT
 70
2
  9
$DIMLWD
 70
-2
  9
$DIMLWE
 70
-2
  9
$DIMTMOVE
 70
0
  9
$DIMFXL
 40
1.0
  9
$DIMFXLON
 70
0
  9
$DIMJOGANG
 40
0.785398163397
  9
$DIMTFILL
 70
0
  9
$DIMTFILLCLR
 70
0
  9
$DIMARCSYM
 70
0
  9
$DIMLTYPE
  6

  9
$DIMLTEX1
  6

  9
$DIMLTEX2
  6

  9
$DIMTXTDIRECTION
 70
0
  9
$LUNITS
 70
2
  9
$LUPREC
 70
4
  9
$SKETCHINC
 40
1.0
  9
$FILLETRAD
 40
10.0
  9
$AUNITS
 70
0
  9
$AUPREC
 70
2
  9
$MENU
  1
.
  9
$ELEVATION
 40
0.0
  9
$PELEVATION
 40
0.0
  9
$THICKNESS
 40
0.0
  9
$LIMCHECK
 70
0
  9
$CHAMFERA
 40
0.0
  9
$CHAMFERB
 40
0.0
  9
$CHAMFERC
 40
0.0
  9
$CHAMFERD
 40
0.0
  9
$SKPOLY
 70
0
  9
$TDCREATE
 40
2461201.8507291665
  9
$TDUCREATE
 40
2458532.153996898
  9
$TDUPDATE
 40
2461201.8507291665
  9
$TDUUPDATE
 40
2458532.1544311
  9
$TDINDWG
 40
0.0
  9
$TDUSRTIMER
 40
0.0
  9
$USRTIMER
 70
1
  9
$ANGBASE
 50
0.0
  9
$ANGDIR
 70
0
  9
$PDMODE
 70
0
  9
$PDSIZE
 40
0.0
  9
$PLINEWID
 40
0.0
  9
$SPLFRAME
 70
0
  9
$SPLINETYPE
 70
6
  9
$SPLINESEGS
 70
8
  9
$HANDSEED
  5
251
  9
$SURFTAB1
 70
6
  9
$SURFTAB2
 70
6
  9
$SURFTYPE
 70
6
  9
$SURFU
 70
6
  9
$SURFV
 70
6
  9
$UCSBASE
  2

  9
$UCSNAME
  2

  9
$UCSORG
 10
0.0
 20
0.0
 30
0.0
  9
$UCSXDIR
 10
1.0
 20
0.0
 30
0.0
  9
$UCSYDIR
 10
0.0
 20
1.0
 30
0.0
  9
$UCSORTHOREF
  2

  9
$UCSORTHOVIEW
 70
0
  9
$UCSORGTOP
 10
0.0
 20
0.0
 30
0.0
  9
$UCSORGBOTTOM
 10
0.0
 20
0.0
 30
0.0
  9
$UCSORGLEFT
 10
0.0
 20
0.0
 30
0.0
  9
$UCSORGRIGHT
 10
0.0
 20
0.0
 30
0.0
  9
$UCSORGFRONT
 10
0.0
 20
0.0
 30
0.0
  9
$UCSORGBACK
 10
0.0
 20
0.0
 30
0.0
  9
$PUCSBASE
  2

  9
$PUCSNAME
  2

  9
$PUCSORG
 10
0.0
 20
0.0
 30
0.0
  9
$PUCSXDIR
 10
1.0
 20
0.0
 30
0.0
  9
$PUCSYDIR
 10
0.0
 20
1.0
 30
0.0
  9
$PUCSORTHOREF
  2

  9
$PUCSORTHOVIEW
 70
0
  9
$PUCSORGTOP
 10
0.0
 20
0.0
 30
0.0
  9
$PUCSORGBOTTOM
 10
0.0
 20
0.0
 30
0.0
  9
$PUCSORGLEFT
 10
0.0
 20
0.0
 30
0.0
  9
$PUCSORGRIGHT
 10
0.0
 20
0.0
 30
0.0
  9
$PUCSORGFRONT
 10
0.0
 20
0.0
 30
0.0
  9
$PUCSORGBACK
 10
0.0
 20
0.0
 30
0.0
  9
$USERI1
 70
0
  9
$USERI2
 70
0
  9
$USERI3
 70
0
  9
$USERI4
 70
0
  9
$USERI5
 70
0
  9
$USERR1
 40
0.0
  9
$USERR2
 40
0.0
  9
$USERR3
 40
0.0
  9
$USERR4
 40
0.0
  9
$USERR5
 40
0.0
  9
$WORLDVIEW
 70
1
  9
$SHADEDGE
 70
3
  9
$SHADEDIF
 70
70
  9
$TILEMODE
 70
1
  9
$MAXACTVP
 70
64
  9
$PINSBASE
 10
0.0
 20
0.0
 30
0.0
  9
$PLIMCHECK
 70
0
  9
$PEXTMIN
 10
1e+20
 20
1e+20
 30
1e+20
  9
$PEXTMAX
 10
-1e+20
 20
-1e+20
 30
-1e+20
  9
$PLIMMIN
 10
0.0
 20
0.0
  9
$PLIMMAX
 10
420.0
 20
297.0
  9
$UNITMODE
 70
0
  9
$VISRETAIN
 70
1
  9
$PLINEGEN
 70
0
  9
$PSLTSCALE
 70
1
  9
$TREEDEPTH
 70
3020
  9
$CMLSTYLE
  2
Standard
  9
$CMLJUST
 70
0
  9
$CMLSCALE
 40
20.0
  9
$PROXYGRAPHICS
 70
1
  9
$MEASUREMENT
 70
1
  9
$CELWEIGHT
370
-1
  9
$ENDCAPS
280
0
  9
$JOINSTYLE
280
0
  9
$LWDISPLAY
290
0
  9
$INSUNITS
 70
6
  9
$HYPERLINKBASE
  1

  9
$STYLESHEET
  1

  9
$XEDIT
290
1
  9
$CEPSNTYPE
380
0
  9
$PSTYLEMODE
290
1
  9
$FINGERPRINTGUID
  2
{6327AE43-66FF-44BB-8778-EB308A289AB4}
  9
$VERSIONGUID
  2
{96AE5824-6CFB-4FEF-BF19-F156731DCC08}
  9
$EXTNAMES
290
1
  9
$PSVPSCALE
 40
0.0
  9
$OLESTARTUP
290
0
  9
$SORTENTS
280
127
  9
$INDEXCTL
280
0
  9
$HIDETEXT
280
1
  9
$XCLIPFRAME
280
1
  9
$HALOGAP
280
0
  9
$OBSCOLOR
 70
257
  9
$OBSLTYPE
280
0
  9
$INTERSECTIONDISPLAY
280
0
  9
$INTERSECTIONCOLOR
 70
257
  9
$DIMASSOC
280
2
  9
$PROJECTNAME
  1

  9
$CAMERADISPLAY
290
0
  9
$LENSLENGTH
 40
50.0
  9
$CAMERAHEIGHT
 40
0.0
  9
$STEPSPERSEC
 40
24.0
  9
$STEPSIZE
 40
100.0
  9
$3DDWFPREC
 40
2.0
  9
$PSOLWIDTH
 40
0.005
  9
$PSOLHEIGHT
 40
0.08
  9
$LOFTANG1
 40
1.570796326795
  9
$LOFTANG2
 40
1.570796326795
  9
$LOFTMAG1
 40
0.0
  9
$LOFTMAG2
 40
0.0
  9
$LOFTPARAM
 70
7
  9
$LOFTNORMALS
280
1
  9
$LATITUDE
 40
37.795
  9
$LONGITUDE
 40
-122.394
  9
$NORTHDIRECTION
 40
0.0
  9
$TIMEZONE
 70
-8000
  9
$LIGHTGLYPHDISPLAY
280
1
  9
$TILEMODELIGHTSYNCH
280
1
  9
$CMATERIAL
347
20
  9
$SOLIDHIST
280
0
  9
$SHOWHIST
280
1
  9
$DWFFRAME
280
2
  9
$DGNFRAME
280
2
  9
$REALWORLDSCALE
290
1
  9
$INTERFERECOLOR
 62
256
  9
$CSHADOW
280
0
  9
$SHADOWPLANELOCATION
 40
0.0
  0
ENDSEC
  0
SECTION
  2
CLASSES
  0
CLASS
  1
ACDBDICTIONARYWDFLT
  2
AcDbDictionaryWithDefault
  3
ObjectDBX Classes
 90
0
 91
0
280
0
281
0
  0
CLASS
  1
SUN
  2
AcDbSun
  3
SCENEOE
 90
1153
 91
0
280
0
281
0
  0
CLASS
  1
VISUALSTYLE
  2
AcDbVisualStyle
  3
ObjectDBX Classes
 90
4095
 91
0
280
0
281
0
  0
CLASS
  1
MATERIAL
  2
AcDbMaterial
  3
ObjectDBX Classes
 90
1153
 91
0
280
0
281
0
  0
CLASS
  1
SCALE
  2
AcDbScale
  3
ObjectDBX Classes
 90
1153
 91
0
280
0
281
0
  0
CLASS
  1
TABLESTYLE
  2
AcDbTableStyle
  3
ObjectDBX Classes
 90
4095
 91
0
280
0
281
0
  0
CLASS
  1
MLEADERSTYLE
  2
AcDbMLeaderStyle
  3
ACDB_MLEADERSTYLE_CLASS
 90
4095
 91
0
280
0
281
0
  0
CLASS
  1
DICTIONARYVAR
  2
AcDbDictionaryVar
  3
ObjectDBX Classes
 90
0
 91
0
280
0
281
0
  0
CLASS
  1
CELLSTYLEMAP
  2
AcDbCellStyleMap
  3
ObjectDBX Classes
 90
1152
 91
0
280
0
281
0
  0
CLASS
  1
MENTALRAYRENDERSETTINGS
  2
AcDbMentalRayRenderSettings
  3
SCENEOE
 90
1024
 91
0
280
0
281
0
  0
CLASS
  1
ACDBDETAILVIEWSTYLE
  2
AcDbDetailViewStyle
  3
ObjectDBX Classes
 90
1025
 91
0
280
0
281
0
  0
CLASS
  1
ACDBSECTIONVIEWSTYLE
  2
AcDbSectionViewStyle
  3
ObjectDBX Classes
 90
1025
 91
0
280
0
281
0
  0
CLASS
  1
RASTERVARIABLES
  2
AcDbRasterVariables
  3
ISM
 90
0
 91
0
280
0
281
0
  0
CLASS
  1
LAYOUT
  2
AcDbLayout
  3
ObjectDBX Classes
 90
0
 91
0
280
0
281
0
  0
CLASS
  1
ACDBPLACEHOLDER
  2
AcDbPlaceHolder
  3
ObjectDBX Classes
 90
0
 91
0
280
0
281
0
  0
ENDSEC
  0
SECTION
  2
TABLES
  0
TABLE
  2
VPORT
  5
8
330
0
100
AcDbSymbolTable
 70
1
  0
VPORT
  5
23
330
8
100
AcDbSymbolTableRecord
100
AcDbViewportTableRecord
  2
*Active
 70
0
 10
0.0
 20
0.0
 11
1.0
 21
1.0
 12
0.0
 22
0.0
 13
0.0
 23
0.0
 14
0.5
 24
0.5
 15
0.5
 25
0.5
 16
0.0
 26
0.0
 36
1.0
 17
0.0
 27
0.0
 37
0.0
 40
1000.0
 41
1.34
 42
50.0
 43
0.0
 44
0.0
 50
0.0
 51
0.0
 71
0
 72
1000
 73
1
 74
3
 75
0
 76
0
 77
0
 78
0
281
0
 65
0
146
0.0
  0
ENDTAB
  0
TABLE
  2
LTYPE
  5
2
330
0
100
AcDbSymbolTable
 70
3
  0
LTYPE
  5
24
330
2
100
AcDbSymbolTableRecord
100
AcDbLinetypeTableRecord
  2
ByBlock
 70
0
  3

 72
65
 73
0
 40
0.0
  0
LTYPE
  5
25
330
2
100
AcDbSymbolTableRecord
100
AcDbLinetypeTableRecord
  2
ByLayer
 70
0
  3

 72
65
 73
0
 40
0.0
  0
LTYPE
  5
26
330
2
100
AcDbSymbolTableRecord
100
AcDbLinetypeTableRecord
  2
Continuous
 70
0
  3

 72
65
 73
0
 40
0.0
  0
ENDTAB
  0
TABLE
  2
LAYER
  5
1
330
0
100
AcDbSymbolTable
 70
9
  0
LAYER
  5
27
330
1
100
AcDbSymbolTableRecord
100
AcDbLayerTableRecord
  2
0
 70
0
 62
7
  6
Continuous
370
-3
390
13
347
21
  0
LAYER
  5
28
330
1
100
AcDbSymbolTableRecord
100
AcDbLayerTableRecord
  2
Defpoints
 70
0
 62
7
  6
Continuous
290
0
370
-3
390
13
347
21
  0
LAYER
  5
2F
330
1
100
AcDbSymbolTableRecord
100
AcDbLayerTableRecord
  2
SARRAFO DE PRESSAO
 70
0
 62
7
  6
Continuous
370
-3
390
13
347
21
  0
LAYER
  5
30
330
1
100
AcDbSymbolTableRecord
100
AcDbLayerTableRecord
  2
COTA
 70
0
 62
7
  6
Continuous
370
-3
390
13
347
21
  0
LAYER
  5
31
330
1
100
AcDbSymbolTableRecord
100
AcDbLayerTableRecord
  2
Nível
 70
0
 62
7
  6
Continuous
370
-3
390
13
347
21
  0
LAYER
  5
32
330
1
100
AcDbSymbolTableRecord
100
AcDbLayerTableRecord
  2
SARR_EDITAR
 70
0
 62
7
  6
Continuous
370
-3
390
13
347
21
  0
LAYER
  5
33
330
1
100
AcDbSymbolTableRecord
100
AcDbLayerTableRecord
  2
NIVEL 2° PAV.
 70
0
 62
7
  6
Continuous
370
-3
390
13
347
21
  0
LAYER
  5
34
330
1
100
AcDbSymbolTableRecord
100
AcDbLayerTableRecord
  2
Painéis
 70
0
 62
7
  6
Continuous
370
-3
390
13
347
21
  0
LAYER
  5
35
330
1
100
AcDbSymbolTableRecord
100
AcDbLayerTableRecord
  2
SARR_2.2x7
 70
0
 62
7
  6
Continuous
370
-3
390
13
347
21
  0
ENDTAB
  0
TABLE
  2
STYLE
  5
5
330
0
100
AcDbSymbolTable
 70
1
  0
STYLE
  5
29
330
5
100
AcDbSymbolTableRecord
100
AcDbTextStyleTableRecord
  2
Standard
 70
0
 40
0.0
 41
1.0
 50
0.0
 71
0
 42
2.5
  3
txt
  4

  0
ENDTAB
  0
TABLE
  2
VIEW
  5
7
330
0
100
AcDbSymbolTable
 70
0
  0
ENDTAB
  0
TABLE
  2
UCS
  5
6
330
0
100
AcDbSymbolTable
 70
0
  0
ENDTAB
  0
TABLE
  2
APPID
  5
3
330
0
100
AcDbSymbolTable
 70
3
  0
APPID
  5
2A
330
3
100
AcDbSymbolTableRecord
100
AcDbRegAppTableRecord
  2
ACAD
 70
0
  0
APPID
  5
24E
330
3
100
AcDbSymbolTableRecord
100
AcDbRegAppTableRecord
  2
HATCHBACKGROUNDCOLOR
 70
0
  0
APPID
  5
24F
330
3
100
AcDbSymbolTableRecord
100
AcDbRegAppTableRecord
  2
EZDXF
 70
0
  0
ENDTAB
  0
TABLE
  2
DIMSTYLE
  5
4
330
0
100
AcDbSymbolTable
 70
1
100
AcDbDimStyleTable
  0
DIMSTYLE
105
2B
330
4
100
AcDbSymbolTableRecord
100
AcDbDimStyleTableRecord
  2
Standard
 70
0
 40
1.0
 41
2.5
 42
0.625
 43
3.75
 44
1.25
 45
0.0
 46
0.0
 47
0.0
 48
0.0
 49
2.5
140
2.5
141
2.5
142
0.0
143
0.03937007874
144
1.0
145
0.0
146
1.0
147
0.625
148
0.0
 69
0
 70
0
 71
0
 72
0
 73
0
 74
0
 75
0
 76
0
 77
1
 78
8
 79
3
170
0
171
3
172
1
173
0
174
0
175
0
176
0
177
0
178
0
179
2
271
2
272
2
273
2
274
3
275
0
276
0
277
2
278
44
279
0
280
0
281
0
282
0
283
0
284
8
285
0
286
0
288
0
289
3
290
0
371
-2
372
-2
  0
ENDTAB
  0
TABLE
  2
BLOCK_RECORD
  5
9
330
0
100
AcDbSymbolTable
 70
2
  0
BLOCK_RECORD
  5
17
330
9
100
AcDbSymbolTableRecord
100
AcDbBlockTableRecord
  2
*Model_Space
340
1A
 70
0
280
1
281
0
  0
BLOCK_RECORD
  5
1B
330
9
100
AcDbSymbolTableRecord
100
AcDbBlockTableRecord
  2
*Paper_Space
340
1E
 70
0
280
1
281
0
  0
ENDTAB
  0
ENDSEC
  0
SECTION
  2
BLOCKS
  0
BLOCK
  5
18
330
17
100
AcDbEntity
  8
0
100
AcDbBlockBegin
  2
*Model_Space
 70
0
 10
0.0
 20
0.0
 30
0.0
  3
*Model_Space
  1

  0
ENDBLK
  5
19
330
17
100
AcDbEntity
  8
0
100
AcDbBlockEnd
  0
BLOCK
  5
1C
330
1B
100
AcDbEntity
  8
0
100
AcDbBlockBegin
  2
*Paper_Space
 70
0
 10
0.0
 20
0.0
 30
0.0
  3
*Paper_Space
  1

  0
ENDBLK
  5
1D
330
1B
100
AcDbEntity
  8
0
100
AcDbBlockEnd
  0
ENDSEC
  0
SECTION
  2
ENTITIES
  0
LINE
  5
36
330
17
100
AcDbEntity
  8
Nível
 62
4
370
25
100
AcDbLine
 10
6357.034080977705
 20
4147.797701193215
 30
0.0
 11
7357.736578935095
 21
4147.797701193215
 31
0.0
  0
LINE
  5
37
330
17
100
AcDbEntity
  8
COTA
 62
241
370
25
100
AcDbLine
 10
6621.664299213851
 20
4409.797701193225
 30
0.0
 11
6621.664299213101
 21
4468.797701193225
 31
0.0
  0
LINE
  5
38
330
17
100
AcDbEntity
  8
COTA
 62
241
370
25
100
AcDbLine
 10
6621.664299213101
 20
4468.797701193225
 30
0.0
 11
6587.664299213102
 21
4468.797701193225
 31
0.0
  0
LINE
  5
39
330
17
100
AcDbEntity
  8
COTA
 62
241
370
25
100
AcDbLine
 10
6474.66429921403
 20
4468.797701193225
 30
0.0
 11
6445.664299213103
 21
4468.797701193225
 31
0.0
  0
LINE
  5
3A
330
17
100
AcDbEntity
  8
COTA
 62
241
370
25
100
AcDbLine
 10
6445.66429921189
 20
4409.797701193226
 30
0.0
 11
6445.664299213103
 21
4468.797701193225
 31
0.0
  0
LINE
  5
3B
330
17
100
AcDbEntity
  8
Painéis
 62
200
370
25
100
AcDbLine
 10
6621.664299211385
 20
4147.797701192706
 30
0.0
 11
6621.664299211385
 21
4271.797701193215
 31
0.0
  0
LINE
  5
3C
330
17
100
AcDbEntity
  8
Painéis
 62
200
370
25
100
AcDbLine
 10
6621.664299212084
 20
4271.797701193254
 30
0.0
 11
6621.664299212084
 21
4368.797701193295
 31
0.0
  0
LINE
  5
3D
330
17
100
AcDbEntity
  8
Painéis
 62
200
370
25
100
AcDbLine
 10
6445.664299211244
 20
4368.797701193257
 30
0.0
 11
6445.664299212087
 21
4271.797701193254
 31
0.0
  0
LINE
  5
3E
330
17
100
AcDbEntity
  8
Painéis
 62
200
370
25
100
AcDbLine
 10
6445.664299211384
 20
4271.797701193218
 30
0.0
 11
6445.664299211381
 21
4147.797701192735
 31
0.0
  0
LINE
  5
3F
330
17
100
AcDbEntity
  8
Painéis
 62
200
370
25
100
AcDbLine
 10
6445.664299211381
 20
4149.797701193215
 30
0.0
 11
6621.664299211385
 21
4149.797701193215
 31
0.0
  0
LINE
  5
40
330
17
100
AcDbEntity
  8
Painéis
 62
200
370
25
100
AcDbLine
 10
6621.664299211861
 20
4368.797701193294
 30
0.0
 11
6445.664299211244
 21
4368.797701193256
 31
0.0
  0
LINE
  5
41
330
17
100
AcDbEntity
  8
Painéis
 62
200
370
25
100
AcDbLine
 10
6445.664299212083
 20
4271.797701193254
 30
0.0
 11
6621.664299212025
 21
4271.797701193254
 31
0.0
  0
LINE
  5
42
330
17
100
AcDbEntity
  8
Painéis
 62
200
370
25
100
AcDbLine
 10
6621.664299211326
 20
4271.797701193215
 30
0.0
 11
6445.664299211384
 21
4271.797701193218
 31
0.0
  0
LINE
  5
43
330
17
100
AcDbEntity
  8
SARR_2.2x7
 62
40
370
25
100
AcDbLine
 10
6899.054476448997
 20
4149.797701193215
 30
0.0
 11
6899.05447644895
 21
4271.797701193218
 31
0.0
  0
LINE
  5
44
330
17
100
AcDbEntity
  8
COTA
 62
241
370
25
100
AcDbLine
 10
6906.054476450254
 20
4409.797701193302
 30
0.0
 11
6906.054476449504
 21
4468.797701193224
 31
0.0
  0
LINE
  5
45
330
17
100
AcDbEntity
  8
COTA
 62
241
370
25
100
AcDbLine
 10
6906.054476449504
 20
4468.797701193224
 30
0.0
 11
6753.054476449505
 21
4468.797701193224
 31
0.0
  0
LINE
  5
46
330
17
100
AcDbEntity
  8
COTA
 62
241
370
25
100
AcDbLine
 10
6753.054476450254
 20
4409.797701193264
 30
0.0
 11
6753.054476449505
 21
4468.797701193224
 31
0.0
  0
LINE
  5
47
330
17
100
AcDbEntity
  8
Painéis
 62
200
370
25
100
AcDbLine
 10
6906.054476448836
 20
4147.797701192706
 30
0.0
 11
6906.054476448836
 21
4271.797701193215
 31
0.0
  0
LINE
  5
48
330
17
100
AcDbEntity
  8
Painéis
 62
200
370
25
100
AcDbLine
 10
6906.054476449536
 20
4271.797701193254
 30
0.0
 11
6906.054476449536
 21
4368.797701193295
 31
0.0
  0
LINE
  5
49
330
17
100
AcDbEntity
  8
Painéis
 62
200
370
25
100
AcDbLine
 10
6753.054476449539
 20
4368.797701193257
 30
0.0
 11
6753.054476449539
 21
4271.797701193254
 31
0.0
  0
LINE
  5
4A
330
17
100
AcDbEntity
  8
Painéis
 62
200
370
25
100
AcDbLine
 10
6753.054476448837
 20
4271.797701193218
 30
0.0
 11
6753.054476448832
 21
4147.797701192735
 31
0.0
  0
LINE
  5
4B
330
17
100
AcDbEntity
  8
Painéis
 62
200
370
25
100
AcDbLine
 10
6753.054476448832
 20
4149.797701193215
 30
0.0
 11
6906.054476448836
 21
4149.797701193215
 31
0.0
  0
LINE
  5
4C
330
17
100
AcDbEntity
  8
Painéis
 62
200
370
25
100
AcDbLine
 10
6906.054476449313
 20
4368.797701193294
 30
0.0
 11
6753.054476449536
 21
4368.797701193256
 31
0.0
  0
LINE
  5
4D
330
17
100
AcDbEntity
  8
SARR_2.2x7
 62
40
370
25
100
AcDbLine
 10
6899.054476448211
 20
4271.797701193257
 30
0.0
 11
6899.054476448189
 21
4368.797701193254
 31
0.0
  0
LINE
  5
4E
330
17
100
AcDbEntity
  8
Painéis
 62
200
370
25
100
AcDbLine
 10
6753.054476449536
 20
4271.797701193254
 30
0.0
 11
6906.054476449478
 21
4271.797701193254
 31
0.0
  0
LINE
  5
4F
330
17
100
AcDbEntity
  8
Painéis
 62
200
370
25
100
AcDbLine
 10
6906.054476448779
 20
4271.797701193215
 30
0.0
 11
6753.054476448837
 21
4271.797701193218
 31
0.0
  0
LINE
  5
50
330
17
100
AcDbEntity
  8
SARR_2.2x7
 62
40
370
25
100
AcDbLine
 10
7080.836191282483
 20
4287.797701193214
 30
0.0
 11
7080.836191282557
 21
4149.797701193215
 31
0.0
  0
LINE
  5
51
330
17
100
AcDbEntity
  8
SARR_2.2x7
 62
40
370
25
100
AcDbLine
 10
7075.836191282579
 20
4287.797701193214
 30
0.0
 11
7075.836191282498
 21
4149.797701193215
 31
0.0
  0
LINE
  5
52
330
17
100
AcDbEntity
  8
Painéis
 62
200
370
25
100
AcDbLine
 10
7068.836191282527
 20
4149.797701193215
 30
0.0
 11
7087.836191282528
 21
4149.797701193215
 31
0.0
  0
LINE
  5
53
330
17
100
AcDbEntity
  8
Painéis
 62
200
370
25
100
AcDbLine
 10
7087.836191282528
 20
4149.797701193215
 30
0.0
 11
7087.836191282528
 21
4287.797701193214
 31
0.0
  0
LINE
  5
54
330
17
100
AcDbEntity
  8
Painéis
 62
200
370
25
100
AcDbLine
 10
7068.836191282527
 20
4287.797701193215
 30
0.0
 11
7068.836191282527
 21
4149.797701193215
 31
0.0
  0
LINE
  5
55
330
17
100
AcDbEntity
  8
SARR_2.2x7
 62
40
370
25
100
AcDbLine
 10
7231.629300666078
 20
4287.797701193214
 30
0.0
 11
7231.629300666151
 21
4149.797701193215
 31
0.0
  0
LINE
  5
56
330
17
100
AcDbEntity
  8
SARR_2.2x7
 62
40
370
25
100
AcDbLine
 10
7226.629300666172
 20
4287.797701193214
 30
0.0
 11
7226.629300666093
 21
4149.797701193215
 31
0.0
  0
LINE
  5
57
330
17
100
AcDbEntity
  8
Painéis
 62
200
370
25
100
AcDbLine
 10
7219.629300666122
 20
4149.797701193215
 30
0.0
 11
7238.629300666122
 21
4149.797701193215
 31
0.0
  0
LINE
  5
58
330
17
100
AcDbEntity
  8
Painéis
 62
200
370
25
100
AcDbLine
 10
7238.629300666122
 20
4149.797701193215
 30
0.0
 11
7238.629300666122
 21
4287.797701193214
 31
0.0
  0
LINE
  5
59
330
17
100
AcDbEntity
  8
Painéis
 62
200
370
25
100
AcDbLine
 10
7219.629300666122
 20
4287.797701193215
 30
0.0
 11
7219.629300666122
 21
4149.797701193215
 31
0.0
  0
LINE
  5
5A
330
17
100
AcDbEntity
  8
Painéis
 62
200
370
25
100
AcDbLine
 10
6456.664299214313
 20
4414.797701194937
 30
0.0
 11
6474.664299214026
 21
4414.797701194937
 31
0.0
  0
LINE
  5
5B
330
17
100
AcDbEntity
  8
Painéis
 62
200
370
25
100
AcDbLine
 10
6474.664299214026
 20
4414.797701193225
 30
0.0
 11
6474.664299214026
 21
4468.797701193225
 31
0.0
  0
LINE
  5
5C
330
17
100
AcDbEntity
  8
Painéis
 62
200
370
25
100
AcDbLine
 10
6587.664299213102
 20
4468.797701193225
 30
0.0
 11
6587.664299213037
 21
4409.797701193225
 31
0.0
  0
LINE
  5
5D
330
17
100
AcDbEntity
  8
SARR_2.2x7
 62
40
370
25
100
AcDbLine
 10
6621.664299211861
 20
4361.797701193294
 30
0.0
 11
6445.664299211301
 21
4361.797701193256
 31
0.0
  0
LINE
  5
5E
330
17
100
AcDbEntity
  8
SARR_2.2x7
 62
40
370
25
100
AcDbLine
 10
6621.664299211326
 20
4264.797701193216
 30
0.0
 11
6445.664299211384
 21
4264.797701193218
 31
0.0
  0
LINE
  5
5F
330
17
100
AcDbEntity
  8
SARR_2.2x7
 62
40
370
25
100
AcDbLine
 10
6481.664299214026
 20
4461.797701193218
 30
0.0
 11
6580.664299213094
 21
4461.797701193114
 31
0.0
  0
LINE
  5
60
330
17
100
AcDbEntity
  8
SARR_EDITAR
 62
141
370
25
100
AcDbLine
 10
6456.664299213707
 20
4412.297701193225
 30
0.0
 11
6481.66429921342
 21
4412.297701193225
 31
0.0
  0
LINE
  5
61
330
17
100
AcDbEntity
  8
SARR_2.2x7
 62
40
370
25
100
AcDbLine
 10
6481.664299214026
 20
4414.797701193225
 30
0.0
 11
6481.664299214026
 21
4468.797701193225
 31
0.0
  0
LINE
  5
62
330
17
100
AcDbEntity
  8
SARR_2.2x7
 62
40
370
25
100
AcDbLine
 10
6580.664299213101
 20
4468.797701193225
 30
0.0
 11
6580.664299213037
 21
4409.797701193225
 31
0.0
  0
LINE
  5
63
330
17
100
AcDbEntity
  8
SARR_2.2x7
 62
40
370
25
100
AcDbLine
 10
6474.664299214026
 20
4414.797701193225
 30
0.0
 11
6481.664299214026
 21
4414.797701193225
 31
0.0
  0
LINE
  5
64
330
17
100
AcDbEntity
  8
SARR_EDITAR
 62
141
370
25
100
AcDbLine
 10
6481.664299214026
 20
4414.797701193225
 30
0.0
 11
6481.664299212815
 21
4409.797701225424
 31
0.0
  0
LINE
  5
65
330
17
100
AcDbEntity
  8
SARR_2.2x7
 62
40
370
25
100
AcDbLine
 10
6906.054476449313
 20
4361.797701193294
 30
0.0
 11
6753.054476449536
 21
4361.797701193256
 31
0.0
  0
LINE
  5
66
330
17
100
AcDbEntity
  8
SARR_2.2x7
 62
40
370
25
100
AcDbLine
 10
6906.054476448779
 20
4264.797701193216
 30
0.0
 11
6753.054476448837
 21
4264.797701193218
 31
0.0
  0
LINE
  5
67
330
17
100
AcDbEntity
  8
Painéis
 62
200
370
25
100
AcDbLine
 10
6456.664299213102
 20
4409.797701194936
 30
0.0
 11
6456.664299214313
 21
4414.797701194937
 31
0.0
  0
LINE
  5
68
330
17
100
AcDbEntity
  8
SARR_2.2x7
 62
40
370
25
100
AcDbLine
 10
6452.664299211384
 20
4271.797701193218
 30
0.0
 11
6452.664299211381
 21
4147.797701192735
 31
0.0
  0
LINE
  5
69
330
17
100
AcDbEntity
  8
Nível
 62
4
370
25
100
AcDbLine
 10
8054.157892234915
 20
4147.797701193218
 30
0.0
 11
8942.736578935095
 21
4147.797701193215
 31
0.0
  0
LINE
  5
6A
330
17
100
AcDbEntity
  8
SARR_2.2x7
 62
40
370
25
100
AcDbLine
 10
8809.06622420859
 20
4149.797701193215
 30
0.0
 11
8809.066224208676
 21
4271.797701193215
 31
0.0
  0
LINE
  5
6B
330
17
100
AcDbEntity
  8
COTA
 62
241
370
25
100
AcDbLine
 10
8816.066224208837
 20
4404.797701193263
 30
0.0
 11
8816.06622420863
 21
4468.797701193225
 31
0.0
  0
LINE
  5
6C
330
17
100
AcDbEntity
  8
COTA
 62
241
370
25
100
AcDbLine
 10
8816.06622420863
 20
4468.797701193225
 30
0.0
 11
8576.06622420863
 21
4468.797701193225
 31
0.0
  0
LINE
  5
6D
330
17
100
AcDbEntity
  8
COTA
 62
241
370
25
100
AcDbLine
 10
8576.066224209379
 20
4409.797701193223
 30
0.0
 11
8576.06622420863
 21
4468.797701193225
 31
0.0
  0
LINE
  5
6E
330
17
100
AcDbEntity
  8
Painéis
 62
200
370
25
100
AcDbLine
 10
8816.066224208851
 20
4147.797701192706
 30
0.0
 11
8816.066224208851
 21
4271.797701193215
 31
0.0
  0
LINE
  5
6F
330
17
100
AcDbEntity
  8
Painéis
 62
200
370
25
100
AcDbLine
 10
8816.066224208847
 20
4271.797701193254
 30
0.0
 11
8816.066224208851
 21
4368.797701193204
 31
0.0
  0
LINE
  5
70
330
17
100
AcDbEntity
  8
Painéis
 62
200
370
25
100
AcDbLine
 10
8576.066224208851
 20
4368.797701193204
 30
0.0
 11
8576.066224208851
 21
4271.797701193254
 31
0.0
  0
LINE
  5
71
330
17
100
AcDbEntity
  8
Painéis
 62
200
370
25
100
AcDbLine
 10
8576.066224208851
 20
4271.797701193218
 30
0.0
 11
8576.066224208847
 21
4147.797701192735
 31
0.0
  0
LINE
  5
72
330
17
100
AcDbEntity
  8
Painéis
 62
200
370
25
100
AcDbLine
 10
8576.066224208847
 20
4149.797701193215
 30
0.0
 11
8816.066224208851
 21
4149.797701193215
 31
0.0
  0
LINE
  5
73
330
17
100
AcDbEntity
  8
SARR_2.2x7
 62
40
370
25
100
AcDbLine
 10
8809.066224208756
 20
4271.797701193253
 30
0.0
 11
8809.06622420879
 21
4368.797701193204
 31
0.0
  0
LINE
  5
74
330
17
100
AcDbEntity
  8
Painéis
 62
200
370
25
100
AcDbLine
 10
8576.06622420955
 20
4271.797701193254
 30
0.0
 11
8816.066224209491
 21
4271.797701193254
 31
0.0
  0
LINE
  5
75
330
17
100
AcDbEntity
  8
Painéis
 62
200
370
25
100
AcDbLine
 10
8816.066224208793
 20
4271.797701193215
 30
0.0
 11
8576.066224208851
 21
4271.797701193218
 31
0.0
  0
LINE
  5
76
330
17
100
AcDbEntity
  8
SARR_2.2x7
 62
40
370
25
100
AcDbLine
 10
8583.066224208851
 20
4368.797701193204
 30
0.0
 11
8583.066224208851
 21
4271.797701193254
 31
0.0
  0
LINE
  5
77
330
17
100
AcDbEntity
  8
SARR_2.2x7
 62
40
370
25
100
AcDbLine
 10
8583.066224208851
 20
4271.797701193218
 30
0.0
 11
8583.066224208847
 21
4147.797701192735
 31
0.0
  0
LINE
  5
78
330
17
100
AcDbEntity
  8
SARR_2.2x7
 62
40
370
25
100
AcDbLine
 10
8816.066224208793
 20
4264.797701193216
 30
0.0
 11
8576.066224208851
 21
4264.797701193218
 31
0.0
  0
LINE
  5
79
330
17
100
AcDbEntity
  8
Painéis
 62
200
370
25
100
AcDbLine
 10
6587.664299213102
 20
4468.797701193107
 30
0.0
 11
6474.66429921403
 21
4468.797701193225
 31
0.0
  0
LINE
  5
7A
330
17
100
AcDbEntity
  8
SARR_2.2x7
 62
40
370
25
100
AcDbLine
 10
6452.664299211384
 20
4271.797701193218
 30
0.0
 11
6452.664299211384
 21
4368.797701193257
 31
0.0
  0
LINE
  5
7B
330
17
100
AcDbEntity
  8
Painéis
 62
200
370
25
100
AcDbLine
 10
7238.629300666122
 20
4287.797701193212
 30
0.0
 11
7219.629300666122
 21
4287.797701193212
 31
0.0
  0
LINE
  5
7C
330
17
100
AcDbEntity
  8
Painéis
 62
200
370
25
100
AcDbLine
 10
7087.836191282528
 20
4287.797701193214
 30
0.0
 11
7068.836191282527
 21
4287.797701193215
 31
0.0
  0
LINE
  5
7D
330
17
100
AcDbEntity
  8
Painéis
 62
200
370
25
100
AcDbLine
 10
7068.836191282527
 20
4287.797701193215
 30
0.0
 11
7068.836191282527
 21
4368.797701193208
 31
0.0
  0
LINE
  5
7E
330
17
100
AcDbEntity
  8
SARR_2.2x7
 62
40
370
25
100
AcDbLine
 10
7075.836191282579
 20
4287.797701193215
 30
0.0
 11
7075.836191282579
 21
4368.797701193294
 31
0.0
  0
LINE
  5
7F
330
17
100
AcDbEntity
  8
SARR_2.2x7
 62
40
370
25
100
AcDbLine
 10
7080.836191282483
 20
4287.797701193222
 30
0.0
 11
7080.836191282483
 21
4368.797701193294
 31
0.0
  0
LINE
  5
80
330
17
100
AcDbEntity
  8
Painéis
 62
200
370
25
100
AcDbLine
 10
7087.836191282528
 20
4287.797701193215
 30
0.0
 11
7087.836191282528
 21
4368.797701193208
 31
0.0
  0
LINE
  5
81
330
17
100
AcDbEntity
  8
Painéis
 62
200
370
25
100
AcDbLine
 10
7068.836191282532
 20
4368.797701193294
 30
0.0
 11
7087.836191282528
 21
4368.797701193294
 31
0.0
  0
LINE
  5
82
330
17
100
AcDbEntity
  8
Painéis
 62
200
370
25
100
AcDbLine
 10
7219.629300666122
 20
4287.797701193215
 30
0.0
 11
7219.629300666122
 21
4368.797701193208
 31
0.0
  0
LINE
  5
83
330
17
100
AcDbEntity
  8
SARR_2.2x7
 62
40
370
25
100
AcDbLine
 10
7226.629300666172
 20
4287.797701193215
 30
0.0
 11
7226.629300666172
 21
4368.797701193294
 31
0.0
  0
LINE
  5
84
330
17
100
AcDbEntity
  8
SARR_2.2x7
 62
40
370
25
100
AcDbLine
 10
7231.629300666078
 20
4287.797701193222
 30
0.0
 11
7231.629300666078
 21
4368.797701193294
 31
0.0
  0
LINE
  5
85
330
17
100
AcDbEntity
  8
Painéis
 62
200
370
25
100
AcDbLine
 10
7238.629300666122
 20
4287.797701193215
 30
0.0
 11
7238.629300666122
 21
4368.797701193208
 31
0.0
  0
LINE
  5
86
330
17
100
AcDbEntity
  8
Painéis
 62
200
370
25
100
AcDbLine
 10
7219.629300666125
 20
4368.797701193294
 30
0.0
 11
7238.629300666122
 21
4368.797701193294
 31
0.0
  0
LINE
  5
87
330
17
100
AcDbEntity
  8
SARR_2.2x7
 62
40
370
25
100
AcDbLine
 10
8126.158418065003
 20
4399.797701235388
 30
0.0
 11
8160.158418056772
 21
4399.797701200134
 31
0.0
  0
LINE
  5
88
330
17
100
AcDbEntity
  8
COTA
 62
241
370
25
100
AcDbLine
 10
8126.158418057615
 20
4404.797701193224
 30
0.0
 11
8126.158418068301
 21
4468.797701193224
 31
0.0
  0
LINE
  5
89
330
17
100
AcDbEntity
  8
Painéis
 62
200
370
25
100
AcDbLine
 10
8160.158418057674
 20
4468.797701193224
 30
0.0
 11
8336.158418058167
 21
4468.797701193224
 31
0.0
  0
LINE
  5
8A
330
17
100
AcDbEntity
  8
Painéis
 62
200
370
25
100
AcDbLine
 10
8126.158418057924
 20
4147.797701192706
 30
0.0
 11
8126.158418057924
 21
4271.797701193215
 31
0.0
  0
LINE
  5
8B
330
17
100
AcDbEntity
  8
Painéis
 62
200
370
25
100
AcDbLine
 10
8336.158418057923
 20
4271.797701193218
 30
0.0
 11
8336.158418057927
 21
4147.797701192735
 31
0.0
  0
LINE
  5
8C
330
17
100
AcDbEntity
  8
Painéis
 62
200
370
25
100
AcDbLine
 10
8336.158418057927
 20
4149.797701193215
 30
0.0
 11
8126.158418057924
 21
4149.797701193215
 31
0.0
  0
LINE
  5
8D
330
17
100
AcDbEntity
  8
Painéis
 62
200
370
25
100
AcDbLine
 10
8336.158418056857
 20
4368.797701193255
 30
0.0
 11
8126.158418056915
 21
4368.797701193255
 31
0.0
  0
LINE
  5
8E
330
17
100
AcDbEntity
  8
Painéis
 62
200
370
25
100
AcDbLine
 10
8126.158418057613
 20
4368.797701193216
 30
0.0
 11
8336.158418057556
 21
4368.797701193218
 31
0.0
  0
LINE
  5
8F
330
17
100
AcDbEntity
  8
SARR_2.2x7
 62
40
370
25
100
AcDbLine
 10
8133.158418057822
 20
4149.797701193215
 30
0.0
 11
8133.158418057869
 21
4271.797701193218
 31
0.0
  0
LINE
  5
90
330
17
100
AcDbEntity
  8
COTA
 62
241
370
25
100
AcDbLine
 10
8160.158418057674
 20
4468.797701193224
 30
0.0
 11
8126.158418065871
 21
4468.797701193224
 31
0.0
  0
LINE
  5
91
330
17
100
AcDbEntity
  8
SARR_2.2x7
 62
40
370
25
100
AcDbLine
 10
8167.158418057464
 20
4409.797701193226
 30
0.0
 11
8167.158418057464
 21
4461.797701193223
 31
0.0
  0
LINE
  5
92
330
17
100
AcDbEntity
  8
SARR_2.2x7
 62
40
370
25
100
AcDbLine
 10
8329.158418058025
 20
4149.797701193215
 30
0.0
 11
8329.158418057978
 21
4271.797701193218
 31
0.0
  0
LINE
  5
93
330
17
100
AcDbEntity
  8
SARR_2.2x7
 62
40
370
25
100
AcDbLine
 10
8126.158418057981
 20
4264.797701193216
 30
0.0
 11
8329.158418057981
 21
4264.797701193218
 31
0.0
  0
LINE
  5
94
330
17
100
AcDbEntity
  8
Painéis
 62
200
370
25
100
AcDbLine
 10
8336.158418057166
 20
4368.797701193254
 30
0.0
 11
8336.158418057865
 21
4271.797701193254
 31
0.0
  0
LINE
  5
95
330
17
100
AcDbEntity
  8
Painéis
 62
200
370
25
100
AcDbLine
 10
8126.158418057924
 20
4271.797701193215
 30
0.0
 11
8126.158418057924
 21
4368.797701193254
 31
0.0
  0
LINE
  5
96
330
17
100
AcDbEntity
  8
SARR_2.2x7
 62
40
370
25
100
AcDbLine
 10
8133.15841805781
 20
4271.797701193254
 30
0.0
 11
8133.158418057847
 21
4368.797701193254
 31
0.0
  0
LINE
  5
97
330
17
100
AcDbEntity
  8
SARR_2.2x7
 62
40
370
25
100
AcDbLine
 10
8329.15841805792
 20
4271.797701193254
 30
0.0
 11
8329.158418057885
 21
4368.797701193254
 31
0.0
  0
LINE
  5
98
330
17
100
AcDbEntity
  8
Painéis
 62
200
370
25
100
AcDbLine
 10
8336.158418056915
 20
4409.797701193224
 30
0.0
 11
8336.158418056493
 21
4468.797701193224
 31
0.0
  0
LINE
  5
99
330
17
100
AcDbEntity
  8
Painéis
 62
200
370
25
100
AcDbLine
 10
8160.158418057674
 20
4468.797701193224
 30
0.0
 11
8160.158418057674
 21
4409.797701193225
 31
0.0
  0
LINE
  5
9A
330
17
100
AcDbEntity
  8
Painéis
 62
200
370
25
100
AcDbLine
 10
8336.158418056857
 20
4368.797701193215
 30
0.0
 11
8126.158418057613
 21
4368.797701193216
 31
0.0
  0
LINE
  5
9B
330
17
100
AcDbEntity
  8
SARR_2.2x7
 62
40
370
25
100
AcDbLine
 10
8329.158418057941
 20
4409.797701193262
 30
0.0
 11
8329.158418056983
 21
4468.797701193224
 31
0.0
  0
LINE
  5
9C
330
17
100
AcDbEntity
  8
SARR_2.2x7
 62
40
370
25
100
AcDbLine
 10
8329.15841805705
 20
4461.797701193225
 30
0.0
 11
8160.158418057672
 21
4461.797701193225
 31
0.0
  0
LINE
  5
9D
330
17
100
AcDbEntity
  8
SARR_2.2x7
 62
40
370
25
100
AcDbLine
 10
8167.15841805677
 20
4409.797701192974
 30
0.0
 11
8167.15841805677
 21
4399.797701192876
 31
0.0
  0
LINE
  5
9E
330
17
100
AcDbEntity
  8
Nível
 62
4
370
25
100
AcDbLine
 10
6364.902454015921
 20
4468.797701193225
 30
0.0
 11
7357.736578935095
 21
4468.797701193223
 31
0.0
  0
LINE
  5
9F
330
17
100
AcDbEntity
  8
Painéis
 62
200
370
25
100
AcDbLine
 10
6621.664299211861
 20
4409.797701193294
 30
0.0
 11
6445.664299211244
 21
4409.797701193256
 31
0.0
  0
LINE
  5
A0
330
17
100
AcDbEntity
  8
Painéis
 62
200
370
25
100
AcDbLine
 10
6621.664299212101
 20
4368.797701193536
 30
0.0
 11
6621.664299212099
 21
4409.79770119352
 31
0.0
  0
LINE
  5
A1
330
17
100
AcDbEntity
  8
Painéis
 62
200
370
25
100
AcDbLine
 10
6445.664299211003
 20
4394.797701193514
 30
0.0
 11
6621.664299211906
 21
4394.797701193514
 31
0.0
  0
LINE
  5
A2
330
17
100
AcDbEntity
  8
SARR_2.2x7
 62
40
370
25
100
AcDbLine
 10
6621.664299212288
 20
4402.797701193316
 30
0.0
 11
6445.664299211003
 21
4402.797701193272
 31
0.0
  0
LINE
  5
A3
330
17
100
AcDbEntity
  8
SARR_2.2x7
 62
40
370
25
100
AcDbLine
 10
6899.054476449522
 20
4368.797701193783
 30
0.0
 11
6899.054476449522
 21
4409.79770119378
 31
0.0
  0
LINE
  5
A4
330
17
100
AcDbEntity
  8
Painéis
 62
200
370
25
100
AcDbLine
 10
6906.054476449774
 20
4368.797701193537
 30
0.0
 11
6906.054476449773
 21
4409.797701193521
 31
0.0
  0
LINE
  5
A5
330
17
100
AcDbEntity
  8
Painéis
 62
200
370
25
100
AcDbLine
 10
6753.054476450394
 20
4394.797701193516
 30
0.0
 11
6906.054476449582
 21
4394.797701193516
 31
0.0
  0
LINE
  5
A6
330
17
100
AcDbEntity
  8
Painéis
 62
200
370
25
100
AcDbLine
 10
6906.054476449973
 20
4409.797701193317
 30
0.0
 11
6753.054476450195
 21
4409.797701193279
 31
0.0
  0
LINE
  5
A7
330
17
100
AcDbEntity
  8
SARR_2.2x7
 62
40
370
25
100
AcDbLine
 10
6906.054476449963
 20
4402.797701193317
 30
0.0
 11
6753.054476450185
 21
4402.797701193279
 31
0.0
  0
LINE
  5
A8
330
17
100
AcDbEntity
  8
SARR_2.2x7
 62
40
370
25
100
AcDbLine
 10
6452.664299211256
 20
4368.797701193781
 30
0.0
 11
6452.664299211256
 21
4409.79770119378
 31
0.0
  0
LINE
  5
A9
330
17
100
AcDbEntity
  8
Painéis
 62
200
370
25
100
AcDbLine
 10
6445.664299211003
 20
4368.797701193536
 30
0.0
 11
6445.664299211005
 21
4409.79770119352
 31
0.0
  0
LINE
  5
AA
330
17
100
AcDbEntity
  8
SARR_2.2x7
 62
40
370
25
100
AcDbLine
 10
6760.054476449326
 20
4368.797701193783
 30
0.0
 11
6760.054476449326
 21
4409.79770119378
 31
0.0
  0
LINE
  5
AB
330
17
100
AcDbEntity
  8
Painéis
 62
200
370
25
100
AcDbLine
 10
6753.054476449072
 20
4368.797701193537
 30
0.0
 11
6753.054476449076
 21
4409.797701193521
 31
0.0
  0
LINE
  5
AC
330
17
100
AcDbEntity
  8
Painéis
 62
200
370
25
100
AcDbLine
 10
7068.83619128253
 20
4404.797701193289
 30
0.0
 11
7087.836191282526
 21
4404.797701193277
 31
0.0
  0
LINE
  5
AD
330
17
100
AcDbEntity
  8
SARR_2.2x7
 62
40
370
25
100
AcDbLine
 10
7075.836191282559
 20
4368.797701193287
 30
0.0
 11
7075.836191282585
 21
4404.797701193285
 31
0.0
  0
LINE
  5
AE
330
17
100
AcDbEntity
  8
SARR_2.2x7
 62
40
370
25
100
AcDbLine
 10
7080.748370362178
 20
4368.797701193283
 30
0.0
 11
7080.748370362204
 21
4404.797701193281
 31
0.0
  0
LINE
  5
AF
330
17
100
AcDbEntity
  8
Painéis
 62
200
370
25
100
AcDbLine
 10
7087.836191282528
 20
4368.797701193294
 30
0.0
 11
7087.836191282526
 21
4404.797701193277
 31
0.0
  0
LINE
  5
B0
330
17
100
AcDbEntity
  8
Painéis
 62
200
370
25
100
AcDbLine
 10
7068.836191282532
 20
4368.797701193294
 30
0.0
 11
7068.83619128253
 21
4404.797701193277
 31
0.0
  0
LINE
  5
B1
330
17
100
AcDbEntity
  8
Painéis
 62
200
370
25
100
AcDbLine
 10
7068.836191282525
 20
4394.79770119301
 30
0.0
 11
7087.836191282569
 21
4394.79770119301
 31
0.0
  0
LINE
  5
B2
330
17
100
AcDbEntity
  8
Painéis
 62
200
370
25
100
AcDbLine
 10
7219.629300666124
 20
4409.797701193289
 30
0.0
 11
7238.62930066612
 21
4409.797701193278
 31
0.0
  0
LINE
  5
B3
330
17
100
AcDbEntity
  8
SARR_2.2x7
 62
40
370
25
100
AcDbLine
 10
7226.629300666153
 20
4368.797701193287
 30
0.0
 11
7226.629300666179
 21
4409.797701193285
 31
0.0
  0
LINE
  5
B4
330
17
100
AcDbEntity
  8
SARR_2.2x7
 62
40
370
25
100
AcDbLine
 10
7231.541479745771
 20
4368.797701193283
 30
0.0
 11
7231.541479745797
 21
4409.797701193282
 31
0.0
  0
LINE
  5
B5
330
17
100
AcDbEntity
  8
Painéis
 62
200
370
25
100
AcDbLine
 10
7238.629300666122
 20
4368.797701193294
 30
0.0
 11
7238.62930066612
 21
4409.797701193278
 31
0.0
  0
LINE
  5
B6
330
17
100
AcDbEntity
  8
Painéis
 62
200
370
25
100
AcDbLine
 10
7219.629300666125
 20
4368.797701193294
 30
0.0
 11
7219.629300666124
 21
4409.797701193278
 31
0.0
  0
LINE
  5
B7
330
17
100
AcDbEntity
  8
Painéis
 62
200
370
25
100
AcDbLine
 10
7219.62930066612
 20
4394.79770119301
 30
0.0
 11
7238.629300666163
 21
4394.79770119301
 31
0.0
  0
LINE
  5
B8
330
17
100
AcDbEntity
  8
Nível
 62
4
370
25
100
AcDbLine
 10
7949.902454015921
 20
4468.797701193225
 30
0.0
 11
8942.736578935095
 21
4468.797701193223
 31
0.0
  0
LINE
  5
B9
330
17
100
AcDbEntity
  8
SARR_2.2x7
 62
40
370
25
100
AcDbLine
 10
8329.158418057303
 20
4368.797701193501
 30
0.0
 11
8329.158418057303
 21
4409.797701193499
 31
0.0
  0
LINE
  5
BA
330
17
100
AcDbEntity
  8
Painéis
 62
200
370
25
100
AcDbLine
 10
8336.158418057556
 20
4368.797701193255
 30
0.0
 11
8336.158418057554
 21
4409.797701193239
 31
0.0
  0
LINE
  5
BB
330
17
100
AcDbEntity
  8
Painéis
 62
200
370
25
100
AcDbLine
 10
8126.158418058935
 20
4394.797701193194
 30
0.0
 11
8336.158418057363
 21
4394.797701193233
 31
0.0
  0
LINE
  5
BC
330
17
100
AcDbEntity
  8
Painéis
 62
200
370
25
100
AcDbLine
 10
8336.158418057754
 20
4409.797701193035
 30
0.0
 11
8160.158418056772
 21
4409.79770119297
 31
0.0
  0
LINE
  5
BD
330
17
100
AcDbEntity
  8
SARR_2.2x7
 62
40
370
25
100
AcDbLine
 10
8336.158418057743
 20
4402.797701193035
 30
0.0
 11
8167.15841805677
 21
4402.797701193035
 31
0.0
  0
LINE
  5
BE
330
17
100
AcDbEntity
  8
SARR_2.2x7
 62
40
370
25
100
AcDbLine
 10
8133.158418057867
 20
4368.797701193462
 30
0.0
 11
8133.158418057867
 21
4404.797701193224
 31
0.0
  0
LINE
  5
BF
330
17
100
AcDbEntity
  8
Painéis
 62
200
370
25
100
AcDbLine
 10
8126.158418057613
 20
4368.797701193216
 30
0.0
 11
8126.158418057615
 21
4404.797701193224
 31
0.0
  0
LINE
  5
C0
330
17
100
AcDbEntity
  8
SARR_2.2x7
 62
40
370
25
100
AcDbLine
 10
8809.066224208596
 20
4368.797701193712
 30
0.0
 11
8809.066224208596
 21
4404.797701193263
 31
0.0
  0
LINE
  5
C1
330
17
100
AcDbEntity
  8
Painéis
 62
200
370
25
100
AcDbLine
 10
8816.06622420885
 20
4368.797701193466
 30
0.0
 11
8816.066224208304
 21
4404.79770119345
 31
0.0
  0
LINE
  5
C2
330
17
100
AcDbEntity
  8
Painéis
 62
200
370
25
100
AcDbLine
 10
8576.066224210173
 20
4394.797701193445
 30
0.0
 11
8816.066224208655
 21
4394.797701193445
 31
0.0
  0
LINE
  5
C3
330
17
100
AcDbEntity
  8
Painéis
 62
200
370
25
100
AcDbLine
 10
8782.066224208837
 20
4409.797701193241
 30
0.0
 11
8576.066224209973
 21
4409.797701193208
 31
0.0
  0
LINE
  5
C4
330
17
100
AcDbEntity
  8
SARR_2.2x7
 62
40
370
25
100
AcDbLine
 10
8775.066224208837
 20
4402.797701193239
 30
0.0
 11
8576.066224209962
 21
4402.797701193208
 31
0.0
  0
LINE
  5
C5
330
17
100
AcDbEntity
  8
SARR_2.2x7
 62
40
370
25
100
AcDbLine
 10
8583.066224209104
 20
4368.797701193712
 30
0.0
 11
8583.066224209104
 21
4409.79770119371
 31
0.0
  0
LINE
  5
C6
330
17
100
AcDbEntity
  8
Painéis
 62
200
370
25
100
AcDbLine
 10
8576.066224208851
 20
4368.797701193466
 30
0.0
 11
8576.066224208853
 21
4409.79770119345
 31
0.0
  0
LINE
  5
C7
330
17
100
AcDbEntity
  8
Painéis
 62
200
370
25
100
AcDbLine
 10
8816.066224209048
 20
4368.797701193246
 30
0.0
 11
8576.066224209973
 21
4368.797701193208
 31
0.0
  0
LINE
  5
C8
330
17
100
AcDbEntity
  8
Painéis
 62
200
370
25
100
AcDbLine
 10
8126.158418056771
 20
4404.797701193224
 30
0.0
 11
8160.158418056772
 21
4404.797701193224
 31
0.0
  0
LINE
  5
C9
330
17
100
AcDbEntity
  8
Painéis
 62
200
370
25
100
AcDbLine
 10
8160.158418056772
 20
4404.797701193224
 30
0.0
 11
8160.15841805677
 21
4409.79770119297
 31
0.0
  0
LINE
  5
CA
330
17
100
AcDbEntity
  8
SARR_2.2x7
 62
40
370
25
100
AcDbLine
 10
8160.158418056772
 20
4404.797701193224
 30
0.0
 11
8160.158418056772
 21
4399.797701200133
 31
0.0
  0
LINE
  5
CB
330
17
100
AcDbEntity
  8
SARR_2.2x7
 62
40
370
25
100
AcDbLine
 10
8160.158418056772
 20
4399.797701200134
 30
0.0
 11
8167.15841805677
 21
4399.797701200135
 31
0.0
  0
LINE
  5
CC
330
17
100
AcDbEntity
  8
Painéis
 62
200
370
25
100
AcDbLine
 10
8816.066224208837
 20
4404.797701193263
 30
0.0
 11
8782.066224208837
 21
4404.797701193263
 31
0.0
  0
LINE
  5
CD
330
17
100
AcDbEntity
  8
Painéis
 62
200
370
25
100
AcDbLine
 10
8782.066224208837
 20
4404.797701193263
 30
0.0
 11
8782.066224208837
 21
4409.79770119324
 31
0.0
  0
LINE
  5
CE
330
17
100
AcDbEntity
  8
SARR_2.2x7
 62
40
370
25
100
AcDbLine
 10
8816.066224200604
 20
4399.797701235427
 30
0.0
 11
8782.066224208835
 21
4399.797701200173
 31
0.0
  0
LINE
  5
CF
330
17
100
AcDbEntity
  8
SARR_2.2x7
 62
40
370
25
100
AcDbLine
 10
8775.066224208837
 20
4409.797701193013
 30
0.0
 11
8775.066224208837
 21
4399.797701192915
 31
0.0
  0
LINE
  5
D0
330
17
100
AcDbEntity
  8
Painéis
 62
200
370
25
100
AcDbLine
 10
7952.91137141413
 20
4404.797701193224
 30
0.0
 11
7918.91137141413
 21
4404.797701193224
 31
0.0
  0
LINE
  5
D1
330
17
100
AcDbEntity
  8
SARR_2.2x7
 62
40
370
25
100
AcDbLine
 10
8782.066224208837
 20
4404.797701193263
 30
0.0
 11
8782.066224208837
 21
4399.797701200173
 31
0.0
  0
LINE
  5
D2
330
17
100
AcDbEntity
  8
SARR_2.2x7
 62
40
370
25
100
AcDbLine
 10
8782.066224208835
 20
4399.797701200173
 30
0.0
 11
8775.066224208837
 21
4399.797701200174
 31
0.0
  0
LINE
  5
D3
330
17
100
AcDbEntity
  8
COTA
 62
4
370
25
100
AcDbLine
 10
6621.664299211385
 20
4146.797701193215
 30
0.0
 11
6621.664299211385
 21
4102.185716013226
 31
0.0
  0
LINE
  5
D4
330
17
100
AcDbEntity
  8
COTA
 62
4
370
25
100
AcDbLine
 10
6445.664299211384
 20
4146.797701193245
 30
0.0
 11
6445.664299211384
 21
4102.185716013226
 31
0.0
  0
LINE
  5
D5
330
17
100
AcDbEntity
  8
COTA
 62
4
370
25
100
AcDbLine
 10
6621.664299211385
 20
4105.185716013227
 30
0.0
 11
6445.664299211384
 21
4105.185716013227
 31
0.0
  0
LINE
  5
D6
330
17
100
AcDbEntity
  8
COTA
 62
0
370
25
100
AcDbLine
 10
6620.164299211385
 20
4103.685716013227
 30
0.0
 11
6623.164299211385
 21
4106.685716013227
 31
0.0
  0
LINE
  5
D7
330
17
100
AcDbEntity
  8
COTA
 62
0
370
25
100
AcDbLine
 10
6447.164299211384
 20
4106.685716013227
 30
0.0
 11
6444.164299211384
 21
4103.685716013227
 31
0.0
  0
LINE
  5
D8
330
17
100
AcDbEntity
  8
COTA
 62
4
370
25
100
AcDbLine
 10
6624.664299211381
 20
4149.797701193231
 30
0.0
 11
6643.922497422289
 21
4149.797701193231
 31
0.0
  0
LINE
  5
D9
330
17
100
AcDbEntity
  8
COTA
 62
4
370
25
100
AcDbLine
 10
6624.664299211381
 20
4147.797701193217
 30
0.0
 11
6643.922497422289
 21
4147.797701193217
 31
0.0
  0
LINE
  5
DA
330
17
100
AcDbEntity
  8
COTA
 62
4
370
25
100
AcDbLine
 10
6640.922497422289
 20
4147.797701193217
 30
0.0
 11
6640.922497422289
 21
4144.797701193217
 31
0.0
  0
LINE
  5
DB
330
17
100
AcDbEntity
  8
COTA
 62
4
370
25
100
AcDbLine
 10
6640.922497422289
 20
4149.797701193231
 30
0.0
 11
6640.922497422289
 21
4168.600152641712
 31
0.0
  0
LINE
  5
DC
330
17
100
AcDbEntity
  8
COTA
 62
4
370
25
100
AcDbLine
 10
6640.922497422289
 20
4147.797701193217
 30
0.0
 11
6640.922497422289
 21
4149.797701193231
 31
0.0
  0
LINE
  5
DD
330
17
100
AcDbEntity
  8
COTA
 62
0
370
25
100
AcDbLine
 10
6642.422497422289
 20
4146.297701193217
 30
0.0
 11
6639.422497422289
 21
4149.297701193217
 31
0.0
  0
LINE
  5
DE
330
17
100
AcDbEntity
  8
COTA
 62
0
370
25
100
AcDbLine
 10
6639.422497422289
 20
4151.297701193231
 30
0.0
 11
6642.422497422289
 21
4148.297701193231
 31
0.0
  0
LINE
  5
DF
330
17
100
AcDbEntity
  8
COTA
 62
4
370
25
100
AcDbLine
 10
6624.664299211331
 20
4147.797701193217
 30
0.0
 11
6662.505242393533
 21
4147.797701193217
 31
0.0
  0
LINE
  5
E0
330
17
100
AcDbEntity
  8
COTA
 62
4
370
25
100
AcDbLine
 10
6624.664299211331
 20
4271.797701193217
 30
0.0
 11
6662.505242393533
 21
4271.797701193217
 31
0.0
  0
LINE
  5
E1
330
17
100
AcDbEntity
  8
COTA
 62
4
370
25
100
AcDbLine
 10
6659.505242393533
 20
4147.797701193217
 30
0.0
 11
6659.505242393533
 21
4271.797701193217
 31
0.0
  0
LINE
  5
E2
330
17
100
AcDbEntity
  8
COTA
 62
0
370
25
100
AcDbLine
 10
6658.005242393533
 20
4149.297701193217
 30
0.0
 11
6661.005242393533
 21
4146.297701193217
 31
0.0
  0
LINE
  5
E3
330
17
100
AcDbEntity
  8
COTA
 62
0
370
25
100
AcDbLine
 10
6661.005242393533
 20
4270.297701193217
 30
0.0
 11
6658.005242393533
 21
4273.297701193217
 31
0.0
  0
LINE
  5
E4
330
17
100
AcDbEntity
  8
COTA
 62
4
370
25
100
AcDbLine
 10
6624.664299211865
 20
4368.797701193297
 30
0.0
 11
6662.505242394189
 21
4368.797701193297
 31
0.0
  0
LINE
  5
E5
330
17
100
AcDbEntity
  8
COTA
 62
4
370
25
100
AcDbLine
 10
6624.664299212028
 20
4271.797701193256
 30
0.0
 11
6662.505242394189
 21
4271.797701193256
 31
0.0
  0
LINE
  5
E6
330
17
100
AcDbEntity
  8
COTA
 62
4
370
25
100
AcDbLine
 10
6659.505242394189
 20
4368.797701193297
 30
0.0
 11
6659.505242394189
 21
4271.797701193256
 31
0.0
  0
LINE
  5
E7
330
17
100
AcDbEntity
  8
COTA
 62
0
370
25
100
AcDbLine
 10
6661.005242394189
 20
4367.297701193297
 30
0.0
 11
6658.005242394189
 21
4370.297701193297
 31
0.0
  0
LINE
  5
E8
330
17
100
AcDbEntity
  8
COTA
 62
0
370
25
100
AcDbLine
 10
6658.005242394189
 20
4273.297701193256
 30
0.0
 11
6661.005242394189
 21
4270.297701193256
 31
0.0
  0
LINE
  5
E9
330
17
100
AcDbEntity
  8
COTA
 62
4
370
25
100
AcDbLine
 10
6906.054476448836
 20
4146.797701193215
 30
0.0
 11
6906.054476448836
 21
4102.185716013226
 31
0.0
  0
LINE
  5
EA
330
17
100
AcDbEntity
  8
COTA
 62
4
370
25
100
AcDbLine
 10
6753.054476448837
 20
4146.797701193245
 30
0.0
 11
6753.054476448837
 21
4102.185716013226
 31
0.0
  0
LINE
  5
EB
330
17
100
AcDbEntity
  8
COTA
 62
4
370
25
100
AcDbLine
 10
6906.054476448836
 20
4105.185716013227
 30
0.0
 11
6753.054476448837
 21
4105.185716013227
 31
0.0
  0
LINE
  5
EC
330
17
100
AcDbEntity
  8
COTA
 62
0
370
25
100
AcDbLine
 10
6904.554476448836
 20
4103.685716013227
 30
0.0
 11
6907.554476448836
 21
4106.685716013227
 31
0.0
  0
LINE
  5
ED
330
17
100
AcDbEntity
  8
COTA
 62
0
370
25
100
AcDbLine
 10
6754.554476448837
 20
4106.685716013227
 30
0.0
 11
6751.554476448837
 21
4103.685716013227
 31
0.0
  0
LINE
  5
EE
330
17
100
AcDbEntity
  8
COTA
 62
4
370
25
100
AcDbLine
 10
6899.054476448895
 20
4146.797701193259
 30
0.0
 11
6899.054476448895
 21
4126.287605229349
 31
0.0
  0
LINE
  5
EF
330
17
100
AcDbEntity
  8
COTA
 62
4
370
25
100
AcDbLine
 10
6906.054476448836
 20
4144.797701192735
 30
0.0
 11
6906.054476448836
 21
4126.287605229349
 31
0.0
  0
LINE
  5
F0
330
17
100
AcDbEntity
  8
COTA
 62
4
370
25
100
AcDbLine
 10
6899.054476448895
 20
4129.287605229349
 30
0.0
 11
6906.054476448836
 21
4129.287605229349
 31
0.0
  0
LINE
  5
F1
330
17
100
AcDbEntity
  8
COTA
 62
4
370
25
100
AcDbLine
 10
6906.054476448836
 20
4129.287605229349
 30
0.0
 11
6920.785470600884
 21
4129.287605229349
 31
0.0
  0
LINE
  5
F2
330
17
100
AcDbEntity
  8
COTA
 62
0
370
25
100
AcDbLine
 10
6900.554476448895
 20
4130.787605229349
 30
0.0
 11
6897.554476448895
 21
4127.787605229349
 31
0.0
  0
LINE
  5
F3
330
17
100
AcDbEntity
  8
COTA
 62
0
370
25
100
AcDbLine
 10
6904.554476448836
 20
4127.787605229349
 30
0.0
 11
6907.554476448836
 21
4130.787605229349
 31
0.0
  0
LINE
  5
F4
330
17
100
AcDbEntity
  8
COTA
 62
4
370
25
100
AcDbLine
 10
6909.054476448833
 20
4149.797701193231
 30
0.0
 11
6928.312674659742
 21
4149.797701193231
 31
0.0
  0
LINE
  5
F5
330
17
100
AcDbEntity
  8
COTA
 62
4
370
25
100
AcDbLine
 10
6909.054476448833
 20
4147.797701193217
 30
0.0
 11
6928.312674659742
 21
4147.797701193217
 31
0.0
  0
LINE
  5
F6
330
17
100
AcDbEntity
  8
COTA
 62
4
370
25
100
AcDbLine
 10
6925.312674659742
 20
4147.797701193217
 30
0.0
 11
6925.312674659742
 21
4144.797701193217
 31
0.0
  0
LINE
  5
F7
330
17
100
AcDbEntity
  8
COTA
 62
4
370
25
100
AcDbLine
 10
6925.312674659742
 20
4149.797701193231
 30
0.0
 11
6925.312674659742
 21
4168.600152641712
 31
0.0
  0
LINE
  5
F8
330
17
100
AcDbEntity
  8
COTA
 62
4
370
25
100
AcDbLine
 10
6925.312674659742
 20
4147.797701193217
 30
0.0
 11
6925.312674659742
 21
4149.797701193231
 31
0.0
  0
LINE
  5
F9
330
17
100
AcDbEntity
  8
COTA
 62
0
370
25
100
AcDbLine
 10
6926.812674659742
 20
4146.297701193217
 30
0.0
 11
6923.812674659742
 21
4149.297701193217
 31
0.0
  0
LINE
  5
FA
330
17
100
AcDbEntity
  8
COTA
 62
0
370
25
100
AcDbLine
 10
6923.812674659742
 20
4151.297701193231
 30
0.0
 11
6926.812674659742
 21
4148.297701193231
 31
0.0
  0
LINE
  5
FB
330
17
100
AcDbEntity
  8
COTA
 62
4
370
25
100
AcDbLine
 10
6909.054476450207
 20
4409.797701193305
 30
0.0
 11
6946.895419632982
 21
4409.797701193305
 31
0.0
  0
LINE
  5
FC
330
17
100
AcDbEntity
  8
COTA
 62
4
370
25
100
AcDbLine
 10
6909.054476449508
 20
4468.797701193226
 30
0.0
 11
6946.895419632982
 21
4468.797701193226
 31
0.0
  0
LINE
  5
FD
330
17
100
AcDbEntity
  8
COTA
 62
4
370
25
100
AcDbLine
 10
6943.895419632982
 20
4409.797701193305
 30
0.0
 11
6943.895419632982
 21
4468.797701193226
 31
0.0
  0
LINE
  5
FE
330
17
100
AcDbEntity
  8
COTA
 62
0
370
25
100
AcDbLine
 10
6942.395419632982
 20
4411.297701193305
 30
0.0
 11
6945.395419632982
 21
4408.297701193305
 31
0.0
  0
LINE
  5
FF
330
17
100
AcDbEntity
  8
COTA
 62
0
370
25
100
AcDbLine
 10
6945.395419632982
 20
4467.297701193226
 30
0.0
 11
6942.395419632982
 21
4470.297701193226
 31
0.0
  0
LINE
  5
100
330
17
100
AcDbEntity
  8
COTA
 62
4
370
25
100
AcDbLine
 10
6909.054476448783
 20
4147.797701193217
 30
0.0
 11
6946.895419631006
 21
4147.797701193217
 31
0.0
  0
LINE
  5
101
330
17
100
AcDbEntity
  8
COTA
 62
4
370
25
100
AcDbLine
 10
6909.054476448783
 20
4271.797701193217
 30
0.0
 11
6946.895419631006
 21
4271.797701193217
 31
0.0
  0
LINE
  5
102
330
17
100
AcDbEntity
  8
COTA
 62
4
370
25
100
AcDbLine
 10
6943.895419631006
 20
4147.797701193217
 30
0.0
 11
6943.895419631006
 21
4271.797701193217
 31
0.0
  0
LINE
  5
103
330
17
100
AcDbEntity
  8
COTA
 62
0
370
25
100
AcDbLine
 10
6942.395419631006
 20
4149.297701193217
 30
0.0
 11
6945.395419631006
 21
4146.297701193217
 31
0.0
  0
LINE
  5
104
330
17
100
AcDbEntity
  8
COTA
 62
0
370
25
100
AcDbLine
 10
6945.395419631006
 20
4270.297701193217
 30
0.0
 11
6942.395419631006
 21
4273.297701193217
 31
0.0
  0
LINE
  5
105
330
17
100
AcDbEntity
  8
COTA
 62
4
370
25
100
AcDbLine
 10
6909.054476449317
 20
4368.797701193297
 30
0.0
 11
6946.895419631667
 21
4368.797701193297
 31
0.0
  0
LINE
  5
106
330
17
100
AcDbEntity
  8
COTA
 62
4
370
25
100
AcDbLine
 10
6909.054476449481
 20
4271.797701193256
 30
0.0
 11
6946.895419631667
 21
4271.797701193256
 31
0.0
  0
LINE
  5
107
330
17
100
AcDbEntity
  8
COTA
 62
4
370
25
100
AcDbLine
 10
6943.895419631667
 20
4368.797701193297
 30
0.0
 11
6943.895419631667
 21
4271.797701193256
 31
0.0
  0
LINE
  5
108
330
17
100
AcDbEntity
  8
COTA
 62
0
370
25
100
AcDbLine
 10
6945.395419631667
 20
4367.297701193297
 30
0.0
 11
6942.395419631667
 21
4370.297701193297
 31
0.0
  0
LINE
  5
109
330
17
100
AcDbEntity
  8
COTA
 62
0
370
25
100
AcDbLine
 10
6942.395419631667
 20
4273.297701193256
 30
0.0
 11
6945.395419631667
 21
4270.297701193256
 31
0.0
  0
LINE
  5
10A
330
17
100
AcDbEntity
  8
COTA
 62
4
370
25
100
AcDbLine
 10
7068.836191282527
 20
4146.797701193215
 30
0.0
 11
7068.836191282527
 21
4114.903489547045
 31
0.0
  0
LINE
  5
10B
330
17
100
AcDbEntity
  8
COTA
 62
4
370
25
100
AcDbLine
 10
7087.836191282528
 20
4146.797701193215
 30
0.0
 11
7087.836191282528
 21
4114.903489547045
 31
0.0
  0
LINE
  5
10C
330
17
100
AcDbEntity
  8
COTA
 62
4
370
25
100
AcDbLine
 10
7068.836191282527
 20
4117.903489547045
 30
0.0
 11
7087.836191282528
 21
4117.903489547045
 31
0.0
  0
LINE
  5
10D
330
17
100
AcDbEntity
  8
COTA
 62
0
370
25
100
AcDbLine
 10
7070.336191282527
 20
4119.403489547045
 30
0.0
 11
7067.336191282527
 21
4116.403489547045
 31
0.0
  0
LINE
  5
10E
330
17
100
AcDbEntity
  8
COTA
 62
0
370
25
100
AcDbLine
 10
7086.336191282528
 20
4116.403489547045
 30
0.0
 11
7089.336191282528
 21
4119.403489547045
 31
0.0
  0
LINE
  5
10F
330
17
100
AcDbEntity
  8
COTA
 62
4
370
25
100
AcDbLine
 10
7090.83619128259
 20
4147.797701193188
 30
0.0
 11
7109.743608950791
 21
4147.797701193188
 31
0.0
  0
LINE
  5
110
330
17
100
AcDbEntity
  8
COTA
 62
4
370
25
100
AcDbLine
 10
7090.836191282531
 20
4149.797701193188
 30
0.0
 11
7109.743608950791
 21
4149.797701193188
 31
0.0
  0
LINE
  5
111
330
17
100
AcDbEntity
  8
COTA
 62
4
370
25
100
AcDbLine
 10
7106.74360895079
 20
4147.797701193188
 30
0.0
 11
7106.74360895079
 21
4144.797701193188
 31
0.0
  0
LINE
  5
112
330
17
100
AcDbEntity
  8
COTA
 62
4
370
25
100
AcDbLine
 10
7106.74360895079
 20
4149.797701193188
 30
0.0
 11
7106.74360895079
 21
4152.797701193188
 31
0.0
  0
LINE
  5
113
330
17
100
AcDbEntity
  8
COTA
 62
4
370
25
100
AcDbLine
 10
7106.74360895079
 20
4147.797701193188
 30
0.0
 11
7106.74360895079
 21
4149.797701193188
 31
0.0
  0
LINE
  5
114
330
17
100
AcDbEntity
  8
COTA
 62
0
370
25
100
AcDbLine
 10
7108.24360895079
 20
4146.297701193188
 30
0.0
 11
7105.24360895079
 21
4149.297701193188
 31
0.0
  0
LINE
  5
115
330
17
100
AcDbEntity
  8
COTA
 62
0
370
25
100
AcDbLine
 10
7105.24360895079
 20
4151.297701193188
 30
0.0
 11
7108.24360895079
 21
4148.297701193188
 31
0.0
  0
LINE
  5
116
330
17
100
AcDbEntity
  8
COTA
 62
4
370
25
100
AcDbLine
 10
7090.836191282531
 20
4404.797701193258
 30
0.0
 11
7135.526814877654
 21
4404.797701193258
 31
0.0
  0
LINE
  5
117
330
17
100
AcDbEntity
  8
COTA
 62
4
370
25
100
AcDbLine
 10
7090.836191282531
 20
4468.797701193267
 30
0.0
 11
7135.526814877654
 21
4468.797701193267
 31
0.0
  0
LINE
  5
118
330
17
100
AcDbEntity
  8
COTA
 62
4
370
25
100
AcDbLine
 10
7132.526814877654
 20
4404.797701193258
 30
0.0
 11
7132.526814877654
 21
4468.797701193267
 31
0.0
  0
LINE
  5
119
330
17
100
AcDbEntity
  8
COTA
 62
0
370
25
100
AcDbLine
 10
7131.026814877654
 20
4406.297701193258
 30
0.0
 11
7134.026814877654
 21
4403.297701193258
 31
0.0
  0
LINE
  5
11A
330
17
100
AcDbEntity
  8
COTA
 62
0
370
25
100
AcDbLine
 10
7134.026814877654
 20
4467.297701193267
 30
0.0
 11
7131.026814877654
 21
4470.297701193267
 31
0.0
  0
LINE
  5
11B
330
17
100
AcDbEntity
  8
COTA
 62
4
370
25
100
AcDbLine
 10
7090.836191282531
 20
4147.797701193217
 30
0.0
 11
7135.526814877652
 21
4147.797701193217
 31
0.0
  0
LINE
  5
11C
330
17
100
AcDbEntity
  8
COTA
 62
4
370
25
100
AcDbLine
 10
7090.836191282531
 20
4287.797701193214
 30
0.0
 11
7135.526814877652
 21
4287.797701193214
 31
0.0
  0
LINE
  5
11D
330
17
100
AcDbEntity
  8
COTA
 62
4
370
25
100
AcDbLine
 10
7132.526814877653
 20
4147.797701193217
 30
0.0
 11
7132.526814877653
 21
4287.797701193214
 31
0.0
  0
LINE
  5
11E
330
17
100
AcDbEntity
  8
COTA
 62
0
370
25
100
AcDbLine
 10
7131.026814877653
 20
4149.297701193217
 30
0.0
 11
7134.026814877653
 21
4146.297701193217
 31
0.0
  0
LINE
  5
11F
330
17
100
AcDbEntity
  8
COTA
 62
0
370
25
100
AcDbLine
 10
7134.026814877653
 20
4286.297701193214
 30
0.0
 11
7131.026814877653
 21
4289.297701193214
 31
0.0
  0
LINE
  5
120
330
17
100
AcDbEntity
  8
COTA
 62
4
370
25
100
AcDbLine
 10
7219.629300666122
 20
4146.797701193215
 30
0.0
 11
7219.629300666122
 21
4114.903489547045
 31
0.0
  0
LINE
  5
121
330
17
100
AcDbEntity
  8
COTA
 62
4
370
25
100
AcDbLine
 10
7238.629300666122
 20
4146.797701193215
 30
0.0
 11
7238.629300666122
 21
4114.903489547045
 31
0.0
  0
LINE
  5
122
330
17
100
AcDbEntity
  8
COTA
 62
4
370
25
100
AcDbLine
 10
7219.629300666122
 20
4117.903489547045
 30
0.0
 11
7238.629300666122
 21
4117.903489547045
 31
0.0
  0
LINE
  5
123
330
17
100
AcDbEntity
  8
COTA
 62
0
370
25
100
AcDbLine
 10
7221.129300666122
 20
4119.403489547045
 30
0.0
 11
7218.129300666122
 21
4116.403489547045
 31
0.0
  0
LINE
  5
124
330
17
100
AcDbEntity
  8
COTA
 62
0
370
25
100
AcDbLine
 10
7237.129300666122
 20
4116.403489547045
 30
0.0
 11
7240.129300666122
 21
4119.403489547045
 31
0.0
  0
LINE
  5
125
330
17
100
AcDbEntity
  8
COTA
 62
4
370
25
100
AcDbLine
 10
7241.629300666183
 20
4147.797701193188
 30
0.0
 11
7260.536718334385
 21
4147.797701193188
 31
0.0
  0
LINE
  5
126
330
17
100
AcDbEntity
  8
COTA
 62
4
370
25
100
AcDbLine
 10
7241.629300666125
 20
4149.797701193188
 30
0.0
 11
7260.536718334385
 21
4149.797701193188
 31
0.0
  0
LINE
  5
127
330
17
100
AcDbEntity
  8
COTA
 62
4
370
25
100
AcDbLine
 10
7257.536718334385
 20
4147.797701193188
 30
0.0
 11
7257.536718334385
 21
4144.797701193188
 31
0.0
  0
LINE
  5
128
330
17
100
AcDbEntity
  8
COTA
 62
4
370
25
100
AcDbLine
 10
7257.536718334385
 20
4149.797701193188
 30
0.0
 11
7257.536718334385
 21
4152.797701193188
 31
0.0
  0
LINE
  5
129
330
17
100
AcDbEntity
  8
COTA
 62
4
370
25
100
AcDbLine
 10
7257.536718334385
 20
4147.797701193188
 30
0.0
 11
7257.536718334385
 21
4149.797701193188
 31
0.0
  0
LINE
  5
12A
330
17
100
AcDbEntity
  8
COTA
 62
0
370
25
100
AcDbLine
 10
7259.036718334385
 20
4146.297701193188
 30
0.0
 11
7256.036718334385
 21
4149.297701193188
 31
0.0
  0
LINE
  5
12B
330
17
100
AcDbEntity
  8
COTA
 62
0
370
25
100
AcDbLine
 10
7256.036718334385
 20
4151.297701193188
 30
0.0
 11
7259.036718334385
 21
4148.297701193188
 31
0.0
  0
LINE
  5
12C
330
17
100
AcDbEntity
  8
COTA
 62
4
370
25
100
AcDbLine
 10
7241.629300666125
 20
4409.797701193258
 30
0.0
 11
7286.319924261245
 21
4409.797701193258
 31
0.0
  0
LINE
  5
12D
330
17
100
AcDbEntity
  8
COTA
 62
4
370
25
100
AcDbLine
 10
7241.629300666125
 20
4468.797701193267
 30
0.0
 11
7286.319924261245
 21
4468.797701193267
 31
0.0
  0
LINE
  5
12E
330
17
100
AcDbEntity
  8
COTA
 62
4
370
25
100
AcDbLine
 10
7283.319924261245
 20
4409.797701193258
 30
0.0
 11
7283.319924261245
 21
4468.797701193267
 31
0.0
  0
LINE
  5
12F
330
17
100
AcDbEntity
  8
COTA
 62
0
370
25
100
AcDbLine
 10
7281.819924261245
 20
4411.297701193258
 30
0.0
 11
7284.819924261245
 21
4408.297701193258
 31
0.0
  0
LINE
  5
130
330
17
100
AcDbEntity
  8
COTA
 62
0
370
25
100
AcDbLine
 10
7284.819924261245
 20
4467.297701193267
 30
0.0
 11
7281.819924261245
 21
4470.297701193267
 31
0.0
  0
LINE
  5
131
330
17
100
AcDbEntity
  8
COTA
 62
4
370
25
100
AcDbLine
 10
7241.629300666125
 20
4147.797701193217
 30
0.0
 11
7286.319924261258
 21
4147.797701193217
 31
0.0
  0
LINE
  5
132
330
17
100
AcDbEntity
  8
COTA
 62
4
370
25
100
AcDbLine
 10
7241.629300666125
 20
4287.797701193214
 30
0.0
 11
7286.319924261258
 21
4287.797701193214
 31
0.0
  0
LINE
  5
133
330
17
100
AcDbEntity
  8
COTA
 62
4
370
25
100
AcDbLine
 10
7283.319924261258
 20
4147.797701193217
 30
0.0
 11
7283.319924261258
 21
4287.797701193214
 31
0.0
  0
LINE
  5
134
330
17
100
AcDbEntity
  8
COTA
 62
0
370
25
100
AcDbLine
 10
7281.819924261258
 20
4149.297701193217
 30
0.0
 11
7284.819924261258
 21
4146.297701193217
 31
0.0
  0
LINE
  5
135
330
17
100
AcDbEntity
  8
COTA
 62
0
370
25
100
AcDbLine
 10
7284.819924261258
 20
4286.297701193214
 30
0.0
 11
7281.819924261258
 21
4289.297701193214
 31
0.0
  0
LINE
  5
136
330
17
100
AcDbEntity
  8
COTA
 62
4
370
25
100
AcDbLine
 10
6456.664299214313
 20
4417.797701193225
 30
0.0
 11
6456.664299214313
 21
4484.542622967325
 31
0.0
  0
LINE
  5
137
330
17
100
AcDbEntity
  8
COTA
 62
4
370
25
100
AcDbLine
 10
6474.664299214026
 20
4471.797701193225
 30
0.0
 11
6474.664299214026
 21
4484.542622967325
 31
0.0
  0
LINE
  5
138
330
17
100
AcDbEntity
  8
COTA
 62
4
370
25
100
AcDbLine
 10
6456.664299214313
 20
4481.542622967324
 30
0.0
 11
6474.664299214026
 21
4481.542622967324
 31
0.0
  0
LINE
  5
139
330
17
100
AcDbEntity
  8
COTA
 62
0
370
25
100
AcDbLine
 10
6458.164299214313
 20
4483.042622967324
 30
0.0
 11
6455.164299214313
 21
4480.042622967324
 31
0.0
  0
LINE
  5
13A
330
17
100
AcDbEntity
  8
COTA
 62
0
370
25
100
AcDbLine
 10
6473.164299214026
 20
4480.042622967324
 30
0.0
 11
6476.164299214026
 21
4483.042622967324
 31
0.0
  0
LINE
  5
13B
330
17
100
AcDbEntity
  8
COTA
 62
4
370
25
100
AcDbLine
 10
6474.664299214026
 20
4471.797701193225
 30
0.0
 11
6474.664299214026
 21
4484.542622967325
 31
0.0
  0
LINE
  5
13C
330
17
100
AcDbEntity
  8
COTA
 62
4
370
25
100
AcDbLine
 10
6587.664299213102
 20
4471.797701193106
 30
0.0
 11
6587.664299213102
 21
4484.542622967325
 31
0.0
  0
LINE
  5
13D
330
17
100
AcDbEntity
  8
COTA
 62
4
370
25
100
AcDbLine
 10
6474.664299214026
 20
4481.542622967324
 30
0.0
 11
6587.664299213102
 21
4481.542622967324
 31
0.0
  0
LINE
  5
13E
330
17
100
AcDbEntity
  8
COTA
 62
0
370
25
100
AcDbLine
 10
6476.164299214026
 20
4483.042622967324
 30
0.0
 11
6473.164299214026
 21
4480.042622967324
 31
0.0
  0
LINE
  5
13F
330
17
100
AcDbEntity
  8
COTA
 62
0
370
25
100
AcDbLine
 10
6586.164299213102
 20
4480.042622967324
 30
0.0
 11
6589.164299213102
 21
4483.042622967324
 31
0.0
  0
LINE
  5
140
330
17
100
AcDbEntity
  8
COTA
 62
4
370
25
100
AcDbLine
 10
6587.664299213102
 20
4471.797701193225
 30
0.0
 11
6587.664299213102
 21
4484.542622967325
 31
0.0
  0
LINE
  5
141
330
17
100
AcDbEntity
  8
COTA
 62
4
370
25
100
AcDbLine
 10
6621.664299213101
 20
4471.797701193225
 30
0.0
 11
6621.664299213101
 21
4484.542622967325
 31
0.0
  0
LINE
  5
142
330
17
100
AcDbEntity
  8
COTA
 62
4
370
25
100
AcDbLine
 10
6587.664299213102
 20
4481.542622967324
 30
0.0
 11
6621.664299213101
 21
4481.542622967324
 31
0.0
  0
LINE
  5
143
330
17
100
AcDbEntity
  8
COTA
 62
0
370
25
100
AcDbLine
 10
6589.164299213102
 20
4483.042622967324
 30
0.0
 11
6586.164299213102
 21
4480.042622967324
 31
0.0
  0
LINE
  5
144
330
17
100
AcDbEntity
  8
COTA
 62
0
370
25
100
AcDbLine
 10
6620.164299213101
 20
4480.042622967324
 30
0.0
 11
6623.164299213101
 21
4483.042622967324
 31
0.0
  0
LINE
  5
145
330
17
100
AcDbEntity
  8
COTA
 62
4
370
25
100
AcDbLine
 10
6587.664299213102
 20
4471.797701193261
 30
0.0
 11
6587.664299213102
 21
4503.470886485076
 31
0.0
  0
LINE
  5
146
330
17
100
AcDbEntity
  8
COTA
 62
4
370
25
100
AcDbLine
 10
6456.664299214313
 20
4471.797701191504
 30
0.0
 11
6456.664299214313
 21
4503.470886485076
 31
0.0
  0
LINE
  5
147
330
17
100
AcDbEntity
  8
COTA
 62
4
370
25
100
AcDbLine
 10
6587.664299213102
 20
4500.470886485076
 30
0.0
 11
6456.664299214313
 21
4500.470886485076
 31
0.0
  0
LINE
  5
148
330
17
100
AcDbEntity
  8
COTA
 62
0
370
25
100
AcDbLine
 10
6586.164299213102
 20
4498.970886485076
 30
0.0
 11
6589.164299213102
 21
4501.970886485076
 31
0.0
  0
LINE
  5
149
330
17
100
AcDbEntity
  8
COTA
 62
0
370
25
100
AcDbLine
 10
6458.164299214313
 20
4501.970886485076
 30
0.0
 11
6455.164299214313
 21
4498.970886485076
 31
0.0
  0
LINE
  5
14A
330
17
100
AcDbEntity
  8
COTA
 62
4
370
25
100
AcDbLine
 10
6452.664299211322
 20
4146.797701192778
 30
0.0
 11
6452.664299211322
 21
4126.28760522887
 31
0.0
  0
LINE
  5
14B
330
17
100
AcDbEntity
  8
COTA
 62
4
370
25
100
AcDbLine
 10
6445.664299211381
 20
4144.797701192254
 30
0.0
 11
6445.664299211381
 21
4126.28760522887
 31
0.0
  0
LINE
  5
14C
330
17
100
AcDbEntity
  8
COTA
 62
4
370
25
100
AcDbLine
 10
6452.664299211322
 20
4129.28760522887
 30
0.0
 11
6445.664299211381
 21
4129.28760522887
 31
0.0
  0
LINE
  5
14D
330
17
100
AcDbEntity
  8
COTA
 62
4
370
25
100
AcDbLine
 10
6445.664299211381
 20
4129.28760522887
 30
0.0
 11
6430.933305059333
 21
4129.28760522887
 31
0.0
  0
LINE
  5
14E
330
17
100
AcDbEntity
  8
COTA
 62
0
370
25
100
AcDbLine
 10
6451.164299211322
 20
4127.78760522887
 30
0.0
 11
6454.164299211322
 21
4130.78760522887
 31
0.0
  0
LINE
  5
14F
330
17
100
AcDbEntity
  8
COTA
 62
0
370
25
100
AcDbLine
 10
6447.164299211381
 20
4130.78760522887
 30
0.0
 11
6444.164299211381
 21
4127.78760522887
 31
0.0
  0
LINE
  5
150
330
17
100
AcDbEntity
  8
COTA
 62
4
370
25
100
AcDbLine
 10
8816.066224208851
 20
4146.797701193215
 30
0.0
 11
8816.066224208851
 21
4102.185716013226
 31
0.0
  0
LINE
  5
151
330
17
100
AcDbEntity
  8
COTA
 62
4
370
25
100
AcDbLine
 10
8576.066224208851
 20
4146.797701193245
 30
0.0
 11
8576.066224208851
 21
4102.185716013226
 31
0.0
  0
LINE
  5
152
330
17
100
AcDbEntity
  8
COTA
 62
4
370
25
100
AcDbLine
 10
8816.066224208851
 20
4105.185716013227
 30
0.0
 11
8576.066224208851
 21
4105.185716013227
 31
0.0
  0
LINE
  5
153
330
17
100
AcDbEntity
  8
COTA
 62
0
370
25
100
AcDbLine
 10
8814.566224208851
 20
4103.685716013227
 30
0.0
 11
8817.566224208851
 21
4106.685716013227
 31
0.0
  0
LINE
  5
154
330
17
100
AcDbEntity
  8
COTA
 62
0
370
25
100
AcDbLine
 10
8577.566224208851
 20
4106.685716013227
 30
0.0
 11
8574.566224208851
 21
4103.685716013227
 31
0.0
  0
LINE
  5
155
330
17
100
AcDbEntity
  8
COTA
 62
4
370
25
100
AcDbLine
 10
8809.066224208851
 20
4146.797701193229
 30
0.0
 11
8809.066224208851
 21
4126.287605229321
 31
0.0
  0
LINE
  5
156
330
17
100
AcDbEntity
  8
COTA
 62
4
370
25
100
AcDbLine
 10
8816.066224208851
 20
4144.797701192706
 30
0.0
 11
8816.066224208851
 21
4126.287605229321
 31
0.0
  0
LINE
  5
157
330
17
100
AcDbEntity
  8
COTA
 62
4
370
25
100
AcDbLine
 10
8809.066224208851
 20
4129.28760522932
 30
0.0
 11
8816.066224208851
 21
4129.28760522932
 31
0.0
  0
LINE
  5
158
330
17
100
AcDbEntity
  8
COTA
 62
4
370
25
100
AcDbLine
 10
8816.066224208851
 20
4129.28760522932
 30
0.0
 11
8830.797218360896
 21
4129.28760522932
 31
0.0
  0
LINE
  5
159
330
17
100
AcDbEntity
  8
COTA
 62
0
370
25
100
AcDbLine
 10
8810.566224208851
 20
4130.78760522932
 30
0.0
 11
8807.566224208851
 21
4127.78760522932
 31
0.0
  0
LINE
  5
15A
330
17
100
AcDbEntity
  8
COTA
 62
0
370
25
100
AcDbLine
 10
8814.566224208851
 20
4127.78760522932
 30
0.0
 11
8817.566224208851
 21
4130.78760522932
 31
0.0
  0
LINE
  5
15B
330
17
100
AcDbEntity
  8
COTA
 62
4
370
25
100
AcDbLine
 10
8583.066224208793
 20
4146.797701193259
 30
0.0
 11
8583.066224208793
 21
4126.287605229349
 31
0.0
  0
LINE
  5
15C
330
17
100
AcDbEntity
  8
COTA
 62
4
370
25
100
AcDbLine
 10
8576.066224208851
 20
4144.797701192735
 30
0.0
 11
8576.066224208851
 21
4126.287605229349
 31
0.0
  0
LINE
  5
15D
330
17
100
AcDbEntity
  8
COTA
 62
4
370
25
100
AcDbLine
 10
8583.066224208793
 20
4129.287605229349
 30
0.0
 11
8576.066224208851
 21
4129.287605229349
 31
0.0
  0
LINE
  5
15E
330
17
100
AcDbEntity
  8
COTA
 62
4
370
25
100
AcDbLine
 10
8576.066224208851
 20
4129.287605229349
 30
0.0
 11
8561.335230056802
 21
4129.287605229349
 31
0.0
  0
LINE
  5
15F
330
17
100
AcDbEntity
  8
COTA
 62
0
370
25
100
AcDbLine
 10
8581.566224208793
 20
4127.787605229349
 30
0.0
 11
8584.566224208793
 21
4130.787605229349
 31
0.0
  0
LINE
  5
160
330
17
100
AcDbEntity
  8
COTA
 62
0
370
25
100
AcDbLine
 10
8577.566224208851
 20
4130.787605229349
 30
0.0
 11
8574.566224208851
 21
4127.787605229349
 31
0.0
  0
LINE
  5
161
330
17
100
AcDbEntity
  8
COTA
 62
4
370
25
100
AcDbLine
 10
8819.066224208847
 20
4149.797701193231
 30
0.0
 11
8838.324422419755
 21
4149.797701193231
 31
0.0
  0
LINE
  5
162
330
17
100
AcDbEntity
  8
COTA
 62
4
370
25
100
AcDbLine
 10
8819.066224208847
 20
4147.797701193217
 30
0.0
 11
8838.324422419755
 21
4147.797701193217
 31
0.0
  0
LINE
  5
163
330
17
100
AcDbEntity
  8
COTA
 62
4
370
25
100
AcDbLine
 10
8835.324422419755
 20
4147.797701193217
 30
0.0
 11
8835.324422419755
 21
4144.797701193217
 31
0.0
  0
LINE
  5
164
330
17
100
AcDbEntity
  8
COTA
 62
4
370
25
100
AcDbLine
 10
8835.324422419755
 20
4149.797701193231
 30
0.0
 11
8835.324422419755
 21
4168.600152641713
 31
0.0
  0
LINE
  5
165
330
17
100
AcDbEntity
  8
COTA
 62
4
370
25
100
AcDbLine
 10
8835.324422419755
 20
4147.797701193217
 30
0.0
 11
8835.324422419755
 21
4149.797701193231
 31
0.0
  0
LINE
  5
166
330
17
100
AcDbEntity
  8
COTA
 62
0
370
25
100
AcDbLine
 10
8836.824422419755
 20
4146.297701193217
 30
0.0
 11
8833.824422419755
 21
4149.297701193217
 31
0.0
  0
LINE
  5
167
330
17
100
AcDbEntity
  8
COTA
 62
0
370
25
100
AcDbLine
 10
8833.824422419755
 20
4151.297701193231
 30
0.0
 11
8836.824422419755
 21
4148.297701193231
 31
0.0
  0
LINE
  5
168
330
17
100
AcDbEntity
  8
COTA
 62
4
370
25
100
AcDbLine
 10
8819.06622420879
 20
4404.797701193266
 30
0.0
 11
8856.90716739213
 21
4404.797701193266
 31
0.0
  0
LINE
  5
169
330
17
100
AcDbEntity
  8
COTA
 62
4
370
25
100
AcDbLine
 10
8819.066224208633
 20
4468.797701193227
 30
0.0
 11
8856.90716739213
 21
4468.797701193227
 31
0.0
  0
LINE
  5
16A
330
17
100
AcDbEntity
  8
COTA
 62
4
370
25
100
AcDbLine
 10
8853.90716739213
 20
4404.797701193266
 30
0.0
 11
8853.90716739213
 21
4468.797701193227
 31
0.0
  0
LINE
  5
16B
330
17
100
AcDbEntity
  8
COTA
 62
0
370
25
100
AcDbLine
 10
8852.40716739213
 20
4406.297701193266
 30
0.0
 11
8855.40716739213
 21
4403.297701193266
 31
0.0
  0
LINE
  5
16C
330
17
100
AcDbEntity
  8
COTA
 62
0
370
25
100
AcDbLine
 10
8855.40716739213
 20
4467.297701193227
 30
0.0
 11
8852.40716739213
 21
4470.297701193227
 31
0.0
  0
LINE
  5
16D
330
17
100
AcDbEntity
  8
COTA
 62
4
370
25
100
AcDbLine
 10
8819.066224208796
 20
4147.797701193217
 30
0.0
 11
8856.907167391038
 21
4147.797701193217
 31
0.0
  0
LINE
  5
16E
330
17
100
AcDbEntity
  8
COTA
 62
4
370
25
100
AcDbLine
 10
8819.066224208796
 20
4271.797701193217
 30
0.0
 11
8856.907167391038
 21
4271.797701193217
 31
0.0
  0
LINE
  5
16F
330
17
100
AcDbEntity
  8
COTA
 62
4
370
25
100
AcDbLine
 10
8853.907167391038
 20
4147.797701193217
 30
0.0
 11
8853.907167391038
 21
4271.797701193217
 31
0.0
  0
LINE
  5
170
330
17
100
AcDbEntity
  8
COTA
 62
0
370
25
100
AcDbLine
 10
8852.407167391038
 20
4149.297701193217
 30
0.0
 11
8855.407167391038
 21
4146.297701193217
 31
0.0
  0
LINE
  5
171
330
17
100
AcDbEntity
  8
COTA
 62
0
370
25
100
AcDbLine
 10
8855.407167391038
 20
4270.297701193217
 30
0.0
 11
8852.407167391038
 21
4273.297701193217
 31
0.0
  0
LINE
  5
172
330
17
100
AcDbEntity
  8
COTA
 62
4
370
25
100
AcDbLine
 10
8819.066224209553
 20
4368.797701193206
 30
0.0
 11
8856.907167391835
 21
4368.797701193206
 31
0.0
  0
LINE
  5
173
330
17
100
AcDbEntity
  8
COTA
 62
4
370
25
100
AcDbLine
 10
8819.066224209493
 20
4271.797701193256
 30
0.0
 11
8856.907167391835
 21
4271.797701193256
 31
0.0
  0
LINE
  5
174
330
17
100
AcDbEntity
  8
COTA
 62
4
370
25
100
AcDbLine
 10
8853.907167391835
 20
4368.797701193206
 30
0.0
 11
8853.907167391835
 21
4271.797701193256
 31
0.0
  0
LINE
  5
175
330
17
100
AcDbEntity
  8
COTA
 62
0
370
25
100
AcDbLine
 10
8855.407167391835
 20
4367.297701193206
 30
0.0
 11
8852.407167391835
 21
4370.297701193206
 31
0.0
  0
LINE
  5
176
330
17
100
AcDbEntity
  8
COTA
 62
0
370
25
100
AcDbLine
 10
8852.407167391835
 20
4273.297701193256
 30
0.0
 11
8855.407167391835
 21
4270.297701193256
 31
0.0
  0
LINE
  5
177
330
17
100
AcDbEntity
  8
COTA
 62
4
370
25
100
AcDbLine
 10
6477.66429921403
 20
4414.797701193227
 30
0.0
 11
6502.325690160957
 21
4414.797701193227
 31
0.0
  0
LINE
  5
178
330
17
100
AcDbEntity
  8
COTA
 62
4
370
25
100
AcDbLine
 10
6477.66429921403
 20
4468.797701193227
 30
0.0
 11
6502.325690160957
 21
4468.797701193227
 31
0.0
  0
LINE
  5
179
330
17
100
AcDbEntity
  8
COTA
 62
4
370
25
100
AcDbLine
 10
6499.325690160957
 20
4414.797701193227
 30
0.0
 11
6499.325690160957
 21
4468.797701193227
 31
0.0
  0
LINE
  5
17A
330
17
100
AcDbEntity
  8
COTA
 62
0
370
25
100
AcDbLine
 10
6497.825690160957
 20
4416.297701193227
 30
0.0
 11
6500.825690160957
 21
4413.297701193227
 31
0.0
  0
LINE
  5
17B
330
17
100
AcDbEntity
  8
COTA
 62
0
370
25
100
AcDbLine
 10
6500.825690160957
 20
4467.297701193227
 30
0.0
 11
6497.825690160957
 21
4470.297701193227
 31
0.0
  0
LINE
  5
17C
330
17
100
AcDbEntity
  8
COTA
 62
4
370
25
100
AcDbLine
 10
6624.664299213854
 20
4409.797701193227
 30
0.0
 11
6662.50524239659
 21
4409.797701193227
 31
0.0
  0
LINE
  5
17D
330
17
100
AcDbEntity
  8
COTA
 62
4
370
25
100
AcDbLine
 10
6624.664299212216
 20
4468.797701191504
 30
0.0
 11
6662.50524239659
 21
4468.797701191504
 31
0.0
  0
LINE
  5
17E
330
17
100
AcDbEntity
  8
COTA
 62
4
370
25
100
AcDbLine
 10
6659.50524239659
 20
4409.797701193227
 30
0.0
 11
6659.50524239659
 21
4468.797701191504
 31
0.0
  0
LINE
  5
17F
330
17
100
AcDbEntity
  8
COTA
 62
0
370
25
100
AcDbLine
 10
6658.00524239659
 20
4411.297701193227
 30
0.0
 11
6661.00524239659
 21
4408.297701193227
 31
0.0
  0
LINE
  5
180
330
17
100
AcDbEntity
  8
COTA
 62
0
370
25
100
AcDbLine
 10
6661.00524239659
 20
4467.297701191504
 30
0.0
 11
6658.00524239659
 21
4470.297701191504
 31
0.0
  0
LINE
  5
181
330
17
100
AcDbEntity
  8
COTA
 62
4
370
25
100
AcDbLine
 10
7090.836191282531
 20
4287.797701193214
 30
0.0
 11
7135.526814877649
 21
4287.797701193214
 31
0.0
  0
LINE
  5
182
330
17
100
AcDbEntity
  8
COTA
 62
4
370
25
100
AcDbLine
 10
7090.836191282531
 20
4368.797701193297
 30
0.0
 11
7135.526814877649
 21
4368.797701193297
 31
0.0
  0
LINE
  5
183
330
17
100
AcDbEntity
  8
COTA
 62
4
370
25
100
AcDbLine
 10
7132.526814877649
 20
4287.797701193214
 30
0.0
 11
7132.526814877649
 21
4368.797701193297
 31
0.0
  0
LINE
  5
184
330
17
100
AcDbEntity
  8
COTA
 62
0
370
25
100
AcDbLine
 10
7131.026814877649
 20
4289.297701193214
 30
0.0
 11
7134.026814877649
 21
4286.297701193214
 31
0.0
  0
LINE
  5
185
330
17
100
AcDbEntity
  8
COTA
 62
0
370
25
100
AcDbLine
 10
7134.026814877649
 20
4367.297701193297
 30
0.0
 11
7131.026814877649
 21
4370.297701193297
 31
0.0
  0
LINE
  5
186
330
17
100
AcDbEntity
  8
COTA
 62
4
370
25
100
AcDbLine
 10
7241.629300666125
 20
4287.797701193214
 30
0.0
 11
7286.319924261242
 21
4287.797701193214
 31
0.0
  0
LINE
  5
187
330
17
100
AcDbEntity
  8
COTA
 62
4
370
25
100
AcDbLine
 10
7241.629300666125
 20
4368.797701193297
 30
0.0
 11
7286.319924261242
 21
4368.797701193297
 31
0.0
  0
LINE
  5
188
330
17
100
AcDbEntity
  8
COTA
 62
4
370
25
100
AcDbLine
 10
7283.319924261242
 20
4287.797701193214
 30
0.0
 11
7283.319924261242
 21
4368.797701193297
 31
0.0
  0
LINE
  5
189
330
17
100
AcDbEntity
  8
COTA
 62
0
370
25
100
AcDbLine
 10
7281.819924261242
 20
4289.297701193214
 30
0.0
 11
7284.819924261242
 21
4286.297701193214
 31
0.0
  0
LINE
  5
18A
330
17
100
AcDbEntity
  8
COTA
 62
0
370
25
100
AcDbLine
 10
7284.819924261242
 20
4367.297701193297
 30
0.0
 11
7281.819924261242
 21
4370.297701193297
 31
0.0
  0
LINE
  5
18B
330
17
100
AcDbEntity
  8
COTA
 62
4
370
25
100
AcDbLine
 10
8336.158418057923
 20
4146.797701193215
 30
0.0
 11
8336.158418057923
 21
4102.185716013226
 31
0.0
  0
LINE
  5
18C
330
17
100
AcDbEntity
  8
COTA
 62
4
370
25
100
AcDbLine
 10
8126.158418057924
 20
4146.797701193245
 30
0.0
 11
8126.158418057924
 21
4102.185716013226
 31
0.0
  0
LINE
  5
18D
330
17
100
AcDbEntity
  8
COTA
 62
4
370
25
100
AcDbLine
 10
8336.158418057923
 20
4105.185716013227
 30
0.0
 11
8126.158418057924
 21
4105.185716013227
 31
0.0
  0
LINE
  5
18E
330
17
100
AcDbEntity
  8
COTA
 62
0
370
25
100
AcDbLine
 10
8334.658418057923
 20
4103.685716013227
 30
0.0
 11
8337.658418057923
 21
4106.685716013227
 31
0.0
  0
LINE
  5
18F
330
17
100
AcDbEntity
  8
COTA
 62
0
370
25
100
AcDbLine
 10
8127.658418057924
 20
4106.685716013227
 30
0.0
 11
8124.658418057924
 21
4103.685716013227
 31
0.0
  0
LINE
  5
190
330
17
100
AcDbEntity
  8
COTA
 62
4
370
25
100
AcDbLine
 10
8133.158418057922
 20
4146.797701193229
 30
0.0
 11
8133.158418057922
 21
4126.287605229321
 31
0.0
  0
LINE
  5
191
330
17
100
AcDbEntity
  8
COTA
 62
4
370
25
100
AcDbLine
 10
8126.158418057924
 20
4144.797701192706
 30
0.0
 11
8126.158418057924
 21
4126.287605229321
 31
0.0
  0
LINE
  5
192
330
17
100
AcDbEntity
  8
COTA
 62
4
370
25
100
AcDbLine
 10
8133.158418057922
 20
4129.28760522932
 30
0.0
 11
8126.158418057924
 21
4129.28760522932
 31
0.0
  0
LINE
  5
193
330
17
100
AcDbEntity
  8
COTA
 62
4
370
25
100
AcDbLine
 10
8126.158418057924
 20
4129.28760522932
 30
0.0
 11
8111.427423905876
 21
4129.28760522932
 31
0.0
  0
LINE
  5
194
330
17
100
AcDbEntity
  8
COTA
 62
0
370
25
100
AcDbLine
 10
8131.658418057922
 20
4127.78760522932
 30
0.0
 11
8134.658418057922
 21
4130.78760522932
 31
0.0
  0
LINE
  5
195
330
17
100
AcDbEntity
  8
COTA
 62
0
370
25
100
AcDbLine
 10
8127.658418057924
 20
4130.78760522932
 30
0.0
 11
8124.658418057924
 21
4127.78760522932
 31
0.0
  0
LINE
  5
196
330
17
100
AcDbEntity
  8
COTA
 62
4
370
25
100
AcDbLine
 10
8339.15841805792
 20
4149.797701193231
 30
0.0
 11
8358.416616268829
 21
4149.797701193231
 31
0.0
  0
LINE
  5
197
330
17
100
AcDbEntity
  8
COTA
 62
4
370
25
100
AcDbLine
 10
8339.15841805792
 20
4147.797701193217
 30
0.0
 11
8358.416616268829
 21
4147.797701193217
 31
0.0
  0
LINE
  5
198
330
17
100
AcDbEntity
  8
COTA
 62
4
370
25
100
AcDbLine
 10
8355.416616268827
 20
4147.797701193217
 30
0.0
 11
8355.416616268827
 21
4144.797701193217
 31
0.0
  0
LINE
  5
199
330
17
100
AcDbEntity
  8
COTA
 62
4
370
25
100
AcDbLine
 10
8355.416616268827
 20
4149.797701193231
 30
0.0
 11
8355.416616268827
 21
4168.600152641713
 31
0.0
  0
LINE
  5
19A
330
17
100
AcDbEntity
  8
COTA
 62
4
370
25
100
AcDbLine
 10
8355.416616268827
 20
4147.797701193217
 30
0.0
 11
8355.416616268827
 21
4149.797701193231
 31
0.0
  0
LINE
  5
19B
330
17
100
AcDbEntity
  8
COTA
 62
0
370
25
100
AcDbLine
 10
8356.916616268827
 20
4146.297701193217
 30
0.0
 11
8353.916616268827
 21
4149.297701193217
 31
0.0
  0
LINE
  5
19C
330
17
100
AcDbEntity
  8
COTA
 62
0
370
25
100
AcDbLine
 10
8353.916616268827
 20
4151.297701193231
 30
0.0
 11
8356.916616268827
 21
4148.297701193231
 31
0.0
  0
LINE
  5
19D
330
17
100
AcDbEntity
  8
COTA
 62
4
370
25
100
AcDbLine
 10
8339.158418057868
 20
4147.797701193217
 30
0.0
 11
8391.962942126216
 21
4147.797701193217
 31
0.0
  0
LINE
  5
19E
330
17
100
AcDbEntity
  8
COTA
 62
4
370
25
100
AcDbLine
 10
8339.158418057868
 20
4271.797701193217
 30
0.0
 11
8391.962942126216
 21
4271.797701193217
 31
0.0
  0
LINE
  5
19F
330
17
100
AcDbEntity
  8
COTA
 62
4
370
25
100
AcDbLine
 10
8388.962942126216
 20
4147.797701193217
 30
0.0
 11
8388.962942126216
 21
4271.797701193217
 31
0.0
  0
LINE
  5
1A0
330
17
100
AcDbEntity
  8
COTA
 62
0
370
25
100
AcDbLine
 10
8387.462942126216
 20
4149.297701193217
 30
0.0
 11
8390.462942126216
 21
4146.297701193217
 31
0.0
  0
LINE
  5
1A1
330
17
100
AcDbEntity
  8
COTA
 62
0
370
25
100
AcDbLine
 10
8390.462942126216
 20
4270.297701193217
 30
0.0
 11
8387.462942126216
 21
4273.297701193217
 31
0.0
  0
LINE
  5
1A2
330
17
100
AcDbEntity
  8
COTA
 62
4
370
25
100
AcDbLine
 10
8336.158418057676
 20
4471.797701193184
 30
0.0
 11
8336.158418057676
 21
4484.93600566505
 31
0.0
  0
LINE
  5
1A3
330
17
100
AcDbEntity
  8
COTA
 62
4
370
25
100
AcDbLine
 10
8160.158418057898
 20
4471.797701193223
 30
0.0
 11
8160.158418057898
 21
4484.93600566505
 31
0.0
  0
LINE
  5
1A4
330
17
100
AcDbEntity
  8
COTA
 62
4
370
25
100
AcDbLine
 10
8336.158418057676
 20
4481.93600566505
 30
0.0
 11
8160.158418057898
 21
4481.93600566505
 31
0.0
  0
LINE
  5
1A5
330
17
100
AcDbEntity
  8
COTA
 62
0
370
25
100
AcDbLine
 10
8334.658418057676
 20
4480.43600566505
 30
0.0
 11
8337.658418057676
 21
4483.43600566505
 31
0.0
  0
LINE
  5
1A6
330
17
100
AcDbEntity
  8
COTA
 62
0
370
25
100
AcDbLine
 10
8161.658418057898
 20
4483.43600566505
 30
0.0
 11
8158.658418057898
 21
4480.43600566505
 31
0.0
  0
LINE
  5
1A7
330
17
100
AcDbEntity
  8
COTA
 62
4
370
25
100
AcDbLine
 10
8339.158418057868
 20
4271.797701194769
 30
0.0
 11
8391.962942125636
 21
4271.797701194769
 31
0.0
  0
LINE
  5
1A8
330
17
100
AcDbEntity
  8
COTA
 62
4
370
25
100
AcDbLine
 10
8339.158418057868
 20
4368.797701193256
 30
0.0
 11
8391.962942125636
 21
4368.797701193256
 31
0.0
  0
LINE
  5
1A9
330
17
100
AcDbEntity
  8
COTA
 62
4
370
25
100
AcDbLine
 10
8388.962942125636
 20
4271.797701194769
 30
0.0
 11
8388.962942125636
 21
4368.797701193256
 31
0.0
  0
LINE
  5
1AA
330
17
100
AcDbEntity
  8
COTA
 62
0
370
25
100
AcDbLine
 10
8387.462942125636
 20
4273.297701194769
 30
0.0
 11
8390.462942125636
 21
4270.297701194769
 31
0.0
  0
LINE
  5
1AB
330
17
100
AcDbEntity
  8
COTA
 62
0
370
25
100
AcDbLine
 10
8390.462942125636
 20
4367.297701193256
 30
0.0
 11
8387.462942125636
 21
4370.297701193256
 31
0.0
  0
LINE
  5
1AC
330
17
100
AcDbEntity
  8
COTA
 62
4
370
25
100
AcDbLine
 10
8339.158418058178
 20
4409.797701193226
 30
0.0
 11
8391.962942125712
 21
4409.797701193226
 31
0.0
  0
LINE
  5
1AD
330
17
100
AcDbEntity
  8
COTA
 62
4
370
25
100
AcDbLine
 10
8339.15841805817
 20
4468.797701193226
 30
0.0
 11
8391.962942125712
 21
4468.797701193226
 31
0.0
  0
LINE
  5
1AE
330
17
100
AcDbEntity
  8
COTA
 62
4
370
25
100
AcDbLine
 10
8388.962942125712
 20
4409.797701193226
 30
0.0
 11
8388.962942125712
 21
4468.797701193226
 31
0.0
  0
LINE
  5
1AF
330
17
100
AcDbEntity
  8
COTA
 62
0
370
25
100
AcDbLine
 10
8387.462942125712
 20
4411.297701193226
 30
0.0
 11
8390.462942125712
 21
4408.297701193226
 31
0.0
  0
LINE
  5
1B0
330
17
100
AcDbEntity
  8
COTA
 62
0
370
25
100
AcDbLine
 10
8390.462942125712
 20
4467.297701193226
 30
0.0
 11
8387.462942125712
 21
4470.297701193226
 31
0.0
  0
LINE
  5
1B1
330
17
100
AcDbEntity
  8
COTA
 62
4
370
25
100
AcDbLine
 10
6442.664299211894
 20
4409.797701193228
 30
0.0
 11
6432.617612890038
 21
4409.797701193228
 31
0.0
  0
LINE
  5
1B2
330
17
100
AcDbEntity
  8
COTA
 62
4
370
25
100
AcDbLine
 10
6453.664299214317
 20
4414.797701194938
 30
0.0
 11
6432.617612890038
 21
4414.797701194938
 31
0.0
  0
LINE
  5
1B3
330
17
100
AcDbEntity
  8
COTA
 62
4
370
25
100
AcDbLine
 10
6435.617612890038
 20
4409.797701193228
 30
0.0
 11
6435.617612890038
 21
4406.797701193228
 31
0.0
  0
LINE
  5
1B4
330
17
100
AcDbEntity
  8
COTA
 62
4
370
25
100
AcDbLine
 10
6435.617612890038
 20
4414.797701194938
 30
0.0
 11
6435.617612890038
 21
4432.894192423009
 31
0.0
  0
LINE
  5
1B5
330
17
100
AcDbEntity
  8
COTA
 62
4
370
25
100
AcDbLine
 10
6435.617612890038
 20
4409.797701193228
 30
0.0
 11
6435.617612890038
 21
4414.797701194938
 31
0.0
  0
LINE
  5
1B6
330
17
100
AcDbEntity
  8
COTA
 62
0
370
25
100
AcDbLine
 10
6437.117612890038
 20
4408.297701193228
 30
0.0
 11
6434.117612890038
 21
4411.297701193228
 31
0.0
  0
LINE
  5
1B7
330
17
100
AcDbEntity
  8
COTA
 62
0
370
25
100
AcDbLine
 10
6434.117612890038
 20
4416.297701194938
 30
0.0
 11
6437.117612890038
 21
4413.297701194938
 31
0.0
  0
LINE
  5
1B8
330
17
100
AcDbEntity
  8
COTA
 62
4
370
25
100
AcDbLine
 10
8126.158418065871
 20
4471.797701193223
 30
0.0
 11
8126.158418065871
 21
4484.93600566505
 31
0.0
  0
LINE
  5
1B9
330
17
100
AcDbEntity
  8
COTA
 62
4
370
25
100
AcDbLine
 10
8160.158418057674
 20
4471.797701193223
 30
0.0
 11
8160.158418057674
 21
4484.93600566505
 31
0.0
  0
LINE
  5
1BA
330
17
100
AcDbEntity
  8
COTA
 62
4
370
25
100
AcDbLine
 10
8126.158418065871
 20
4481.93600566505
 30
0.0
 11
8160.158418057674
 21
4481.93600566505
 31
0.0
  0
LINE
  5
1BB
330
17
100
AcDbEntity
  8
COTA
 62
0
370
25
100
AcDbLine
 10
8127.658418065871
 20
4483.43600566505
 30
0.0
 11
8124.658418065871
 21
4480.43600566505
 31
0.0
  0
LINE
  5
1BC
330
17
100
AcDbEntity
  8
COTA
 62
0
370
25
100
AcDbLine
 10
8158.658418057674
 20
4480.43600566505
 30
0.0
 11
8161.658418057674
 21
4483.43600566505
 31
0.0
  0
LINE
  5
1BD
330
17
100
AcDbEntity
  8
NIVEL 2° PAV.
 62
4
370
25
100
AcDbLine
 10
6466.442361705635
 20
4147.797701193225
 30
0.0
 11
6358.902454015932
 21
4147.797701193225
 31
0.0
  0
LINE
  5
1BE
330
17
100
AcDbEntity
  8
NIVEL 2° PAV.
 62
4
370
25
100
AcDbLine
 10
6358.744046162141
 20
4468.797701193225
 30
0.0
 11
6364.902454015932
 21
4468.797701193225
 31
0.0
  0
LINE
  5
1BF
330
17
100
AcDbEntity
  8
NIVEL 2° PAV.
 62
4
370
25
100
AcDbLine
 10
6361.902454015932
 20
4147.797701193225
 30
0.0
 11
6361.902454015932
 21
4468.797701193225
 31
0.0
  0
LINE
  5
1C0
330
17
100
AcDbEntity
  8
NIVEL 2° PAV.
 62
0
370
25
100
AcDbLine
 10
6360.402454015932
 20
4149.297701193225
 30
0.0
 11
6363.402454015932
 21
4146.297701193225
 31
0.0
  0
LINE
  5
1C1
330
17
100
AcDbEntity
  8
NIVEL 2° PAV.
 62
0
370
25
100
AcDbLine
 10
6363.402454015932
 20
4467.297701193225
 30
0.0
 11
6360.402454015932
 21
4470.297701193225
 31
0.0
  0
LINE
  5
1C2
330
17
100
AcDbEntity
  8
Painéis
 62
4
370
25
100
AcDbLine
 10
6624.664299211838
 20
4368.797701193783
 30
0.0
 11
6662.505242394586
 21
4368.797701193783
 31
0.0
  0
LINE
  5
1C3
330
17
100
AcDbEntity
  8
Painéis
 62
4
370
25
100
AcDbLine
 10
6624.664299211866
 20
4409.797701193784
 30
0.0
 11
6662.505242394586
 21
4409.797701193784
 31
0.0
  0
LINE
  5
1C4
330
17
100
AcDbEntity
  8
Painéis
 62
4
370
25
100
AcDbLine
 10
6659.505242394586
 20
4368.797701193783
 30
0.0
 11
6659.505242394586
 21
4409.797701193784
 31
0.0
  0
LINE
  5
1C5
330
17
100
AcDbEntity
  8
Painéis
 62
0
370
25
100
AcDbLine
 10
6658.005242394586
 20
4370.297701193783
 30
0.0
 11
6661.005242394586
 21
4367.297701193783
 31
0.0
  0
LINE
  5
1C6
330
17
100
AcDbEntity
  8
Painéis
 62
0
370
25
100
AcDbLine
 10
6661.005242394586
 20
4408.297701193784
 30
0.0
 11
6658.005242394586
 21
4411.297701193784
 31
0.0
  0
LINE
  5
1C7
330
17
100
AcDbEntity
  8
Painéis
 62
4
370
25
100
AcDbLine
 10
6624.664299211864
 20
4394.797701193517
 30
0.0
 11
6643.259243402704
 21
4394.797701193517
 31
0.0
  0
LINE
  5
1C8
330
17
100
AcDbEntity
  8
Painéis
 62
4
370
25
100
AcDbLine
 10
6624.664299211865
 20
4368.797701193297
 30
0.0
 11
6643.259243402704
 21
4368.797701193297
 31
0.0
  0
LINE
  5
1C9
330
17
100
AcDbEntity
  8
Painéis
 62
4
370
25
100
AcDbLine
 10
6640.259243402704
 20
4394.797701193517
 30
0.0
 11
6640.259243402704
 21
4368.797701193297
 31
0.0
  0
LINE
  5
1CA
330
17
100
AcDbEntity
  8
Painéis
 62
0
370
25
100
AcDbLine
 10
6641.759243402704
 20
4393.297701193517
 30
0.0
 11
6638.759243402704
 21
4396.297701193517
 31
0.0
  0
LINE
  5
1CB
330
17
100
AcDbEntity
  8
Painéis
 62
0
370
25
100
AcDbLine
 10
6638.759243402704
 20
4370.297701193297
 30
0.0
 11
6641.759243402704
 21
4367.297701193297
 31
0.0
  0
LINE
  5
1CC
330
17
100
AcDbEntity
  8
Painéis
 62
4
370
25
100
AcDbLine
 10
6624.664299211911
 20
4394.797701193517
 30
0.0
 11
6643.259243402652
 21
4394.797701193517
 31
0.0
  0
LINE
  5
1CD
330
17
100
AcDbEntity
  8
Painéis
 62
4
370
25
100
AcDbLine
 10
6624.664299211864
 20
4409.797701193279
 30
0.0
 11
6643.259243402652
 21
4409.797701193279
 31
0.0
  0
LINE
  5
1CE
330
17
100
AcDbEntity
  8
Painéis
 62
4
370
25
100
AcDbLine
 10
6640.259243402652
 20
4394.797701193517
 30
0.0
 11
6640.259243402652
 21
4409.797701193279
 31
0.0
  0
LINE
  5
1CF
330
17
100
AcDbEntity
  8
Painéis
 62
0
370
25
100
AcDbLine
 10
6638.759243402652
 20
4396.297701193517
 30
0.0
 11
6641.759243402652
 21
4393.297701193517
 31
0.0
  0
LINE
  5
1D0
330
17
100
AcDbEntity
  8
Painéis
 62
0
370
25
100
AcDbLine
 10
6641.759243402652
 20
4408.297701193279
 30
0.0
 11
6638.759243402652
 21
4411.297701193279
 31
0.0
  0
LINE
  5
1D1
330
17
100
AcDbEntity
  8
Painéis
 62
4
370
25
100
AcDbLine
 10
6909.054476449512
 20
4368.797701193784
 30
0.0
 11
6946.89541963226
 21
4368.797701193784
 31
0.0
  0
LINE
  5
1D2
330
17
100
AcDbEntity
  8
Painéis
 62
4
370
25
100
AcDbLine
 10
6909.05447644954
 20
4409.797701193785
 30
0.0
 11
6946.89541963226
 21
4409.797701193785
 31
0.0
  0
LINE
  5
1D3
330
17
100
AcDbEntity
  8
Painéis
 62
4
370
25
100
AcDbLine
 10
6943.895419632259
 20
4368.797701193784
 30
0.0
 11
6943.895419632259
 21
4409.797701193785
 31
0.0
  0
LINE
  5
1D4
330
17
100
AcDbEntity
  8
Painéis
 62
0
370
25
100
AcDbLine
 10
6942.395419632259
 20
4370.297701193784
 30
0.0
 11
6945.395419632259
 21
4367.297701193784
 31
0.0
  0
LINE
  5
1D5
330
17
100
AcDbEntity
  8
Painéis
 62
0
370
25
100
AcDbLine
 10
6945.395419632259
 20
4408.297701193785
 30
0.0
 11
6942.395419632259
 21
4411.297701193785
 31
0.0
  0
LINE
  5
1D6
330
17
100
AcDbEntity
  8
Painéis
 62
4
370
25
100
AcDbLine
 10
6909.054476449537
 20
4394.797701193517
 30
0.0
 11
6927.649420640378
 21
4394.797701193517
 31
0.0
  0
LINE
  5
1D7
330
17
100
AcDbEntity
  8
Painéis
 62
4
370
25
100
AcDbLine
 10
6909.054476449539
 20
4368.797701193297
 30
0.0
 11
6927.649420640378
 21
4368.797701193297
 31
0.0
  0
LINE
  5
1D8
330
17
100
AcDbEntity
  8
Painéis
 62
4
370
25
100
AcDbLine
 10
6924.649420640378
 20
4394.797701193517
 30
0.0
 11
6924.649420640378
 21
4368.797701193297
 31
0.0
  0
LINE
  5
1D9
330
17
100
AcDbEntity
  8
Painéis
 62
0
370
25
100
AcDbLine
 10
6926.149420640378
 20
4393.297701193517
 30
0.0
 11
6923.149420640378
 21
4396.297701193517
 31
0.0
  0
LINE
  5
1DA
330
17
100
AcDbEntity
  8
Painéis
 62
0
370
25
100
AcDbLine
 10
6923.149420640378
 20
4370.297701193297
 30
0.0
 11
6926.149420640378
 21
4367.297701193297
 31
0.0
  0
LINE
  5
1DB
330
17
100
AcDbEntity
  8
Painéis
 62
4
370
25
100
AcDbLine
 10
6909.054476449584
 20
4394.797701193517
 30
0.0
 11
6927.649420640325
 21
4394.797701193517
 31
0.0
  0
LINE
  5
1DC
330
17
100
AcDbEntity
  8
Painéis
 62
4
370
25
100
AcDbLine
 10
6909.054476449537
 20
4409.79770119328
 30
0.0
 11
6927.649420640325
 21
4409.79770119328
 31
0.0
  0
LINE
  5
1DD
330
17
100
AcDbEntity
  8
Painéis
 62
4
370
25
100
AcDbLine
 10
6924.649420640325
 20
4394.797701193517
 30
0.0
 11
6924.649420640325
 21
4409.79770119328
 31
0.0
  0
LINE
  5
1DE
330
17
100
AcDbEntity
  8
Painéis
 62
0
370
25
100
AcDbLine
 10
6923.149420640325
 20
4396.297701193517
 30
0.0
 11
6926.149420640325
 21
4393.297701193517
 31
0.0
  0
LINE
  5
1DF
330
17
100
AcDbEntity
  8
Painéis
 62
0
370
25
100
AcDbLine
 10
6926.149420640325
 20
4408.29770119328
 30
0.0
 11
6923.149420640325
 21
4411.29770119328
 31
0.0
  0
LINE
  5
1E0
330
17
100
AcDbEntity
  8
Painéis
 62
4
370
25
100
AcDbLine
 10
7090.83619128253
 20
4368.79770119328
 30
0.0
 11
7135.52681487765
 21
4368.79770119328
 31
0.0
  0
LINE
  5
1E1
330
17
100
AcDbEntity
  8
Painéis
 62
4
370
25
100
AcDbLine
 10
7090.836191282559
 20
4404.79770119328
 30
0.0
 11
7135.52681487765
 21
4404.79770119328
 31
0.0
  0
LINE
  5
1E2
330
17
100
AcDbEntity
  8
Painéis
 62
4
370
25
100
AcDbLine
 10
7132.52681487765
 20
4368.79770119328
 30
0.0
 11
7132.52681487765
 21
4404.79770119328
 31
0.0
  0
LINE
  5
1E3
330
17
100
AcDbEntity
  8
Painéis
 62
0
370
25
100
AcDbLine
 10
7131.02681487765
 20
4370.29770119328
 30
0.0
 11
7134.02681487765
 21
4367.29770119328
 31
0.0
  0
LINE
  5
1E4
330
17
100
AcDbEntity
  8
Painéis
 62
0
370
25
100
AcDbLine
 10
7134.02681487765
 20
4403.29770119328
 30
0.0
 11
7131.02681487765
 21
4406.29770119328
 31
0.0
  0
LINE
  5
1E5
330
17
100
AcDbEntity
  8
Painéis
 62
4
370
25
100
AcDbLine
 10
7090.836191282526
 20
4394.797701193012
 30
0.0
 11
7114.182593174792
 21
4394.797701193012
 31
0.0
  0
LINE
  5
1E6
330
17
100
AcDbEntity
  8
Painéis
 62
4
370
25
100
AcDbLine
 10
7090.836191282527
 20
4368.797701192792
 30
0.0
 11
7114.182593174792
 21
4368.797701192792
 31
0.0
  0
LINE
  5
1E7
330
17
100
AcDbEntity
  8
Painéis
 62
4
370
25
100
AcDbLine
 10
7111.182593174792
 20
4394.797701193012
 30
0.0
 11
7111.182593174792
 21
4368.797701192792
 31
0.0
  0
LINE
  5
1E8
330
17
100
AcDbEntity
  8
Painéis
 62
0
370
25
100
AcDbLine
 10
7112.682593174792
 20
4393.297701193012
 30
0.0
 11
7109.682593174792
 21
4396.297701193012
 31
0.0
  0
LINE
  5
1E9
330
17
100
AcDbEntity
  8
Painéis
 62
0
370
25
100
AcDbLine
 10
7109.682593174792
 20
4370.297701192792
 30
0.0
 11
7112.682593174792
 21
4367.297701192792
 31
0.0
  0
LINE
  5
1EA
330
17
100
AcDbEntity
  8
Painéis
 62
4
370
25
100
AcDbLine
 10
7090.836191282573
 20
4394.797701193012
 30
0.0
 11
7114.18259317475
 21
4394.797701193012
 31
0.0
  0
LINE
  5
1EB
330
17
100
AcDbEntity
  8
Painéis
 62
4
370
25
100
AcDbLine
 10
7090.836191282526
 20
4404.797701192776
 30
0.0
 11
7114.18259317475
 21
4404.797701192776
 31
0.0
  0
LINE
  5
1EC
330
17
100
AcDbEntity
  8
Painéis
 62
4
370
25
100
AcDbLine
 10
7111.18259317475
 20
4394.797701193012
 30
0.0
 11
7111.18259317475
 21
4404.797701192776
 31
0.0
  0
LINE
  5
1ED
330
17
100
AcDbEntity
  8
Painéis
 62
0
370
25
100
AcDbLine
 10
7109.68259317475
 20
4396.297701193012
 30
0.0
 11
7112.68259317475
 21
4393.297701193012
 31
0.0
  0
LINE
  5
1EE
330
17
100
AcDbEntity
  8
Painéis
 62
0
370
25
100
AcDbLine
 10
7112.68259317475
 20
4403.297701192776
 30
0.0
 11
7109.68259317475
 21
4406.297701192776
 31
0.0
  0
LINE
  5
1EF
330
17
100
AcDbEntity
  8
Painéis
 62
4
370
25
100
AcDbLine
 10
7241.629300666123
 20
4368.79770119328
 30
0.0
 11
7286.319924261241
 21
4368.79770119328
 31
0.0
  0
LINE
  5
1F0
330
17
100
AcDbEntity
  8
Painéis
 62
4
370
25
100
AcDbLine
 10
7241.629300666153
 20
4409.797701193279
 30
0.0
 11
7286.319924261241
 21
4409.797701193279
 31
0.0
  0
LINE
  5
1F1
330
17
100
AcDbEntity
  8
Painéis
 62
4
370
25
100
AcDbLine
 10
7283.319924261241
 20
4368.79770119328
 30
0.0
 11
7283.319924261241
 21
4409.797701193279
 31
0.0
  0
LINE
  5
1F2
330
17
100
AcDbEntity
  8
Painéis
 62
0
370
25
100
AcDbLine
 10
7281.819924261241
 20
4370.29770119328
 30
0.0
 11
7284.819924261241
 21
4367.29770119328
 31
0.0
  0
LINE
  5
1F3
330
17
100
AcDbEntity
  8
Painéis
 62
0
370
25
100
AcDbLine
 10
7284.819924261241
 20
4408.297701193279
 30
0.0
 11
7281.819924261241
 21
4411.297701193279
 31
0.0
  0
LINE
  5
1F4
330
17
100
AcDbEntity
  8
Painéis
 62
4
370
25
100
AcDbLine
 10
7241.62930066612
 20
4394.797701193012
 30
0.0
 11
7264.975702558387
 21
4394.797701193012
 31
0.0
  0
LINE
  5
1F5
330
17
100
AcDbEntity
  8
Painéis
 62
4
370
25
100
AcDbLine
 10
7241.629300666122
 20
4368.797701192792
 30
0.0
 11
7264.975702558387
 21
4368.797701192792
 31
0.0
  0
LINE
  5
1F6
330
17
100
AcDbEntity
  8
Painéis
 62
4
370
25
100
AcDbLine
 10
7261.975702558387
 20
4394.797701193012
 30
0.0
 11
7261.975702558387
 21
4368.797701192792
 31
0.0
  0
LINE
  5
1F7
330
17
100
AcDbEntity
  8
Painéis
 62
0
370
25
100
AcDbLine
 10
7263.475702558387
 20
4393.297701193012
 30
0.0
 11
7260.475702558387
 21
4396.297701193012
 31
0.0
  0
LINE
  5
1F8
330
17
100
AcDbEntity
  8
Painéis
 62
0
370
25
100
AcDbLine
 10
7260.475702558387
 20
4370.297701192792
 30
0.0
 11
7263.475702558387
 21
4367.297701192792
 31
0.0
  0
LINE
  5
1F9
330
17
100
AcDbEntity
  8
Painéis
 62
4
370
25
100
AcDbLine
 10
7241.629300666168
 20
4394.797701193012
 30
0.0
 11
7264.975702558345
 21
4394.797701193012
 31
0.0
  0
LINE
  5
1FA
330
17
100
AcDbEntity
  8
Painéis
 62
4
370
25
100
AcDbLine
 10
7241.62930066612
 20
4409.797701192776
 30
0.0
 11
7264.975702558345
 21
4409.797701192776
 31
0.0
  0
LINE
  5
1FB
330
17
100
AcDbEntity
  8
Painéis
 62
4
370
25
100
AcDbLine
 10
7261.975702558345
 20
4394.797701193012
 30
0.0
 11
7261.975702558345
 21
4409.797701192776
 31
0.0
  0
LINE
  5
1FC
330
17
100
AcDbEntity
  8
Painéis
 62
0
370
25
100
AcDbLine
 10
7260.475702558345
 20
4396.297701193012
 30
0.0
 11
7263.475702558345
 21
4393.297701193012
 31
0.0
  0
LINE
  5
1FD
330
17
100
AcDbEntity
  8
Painéis
 62
0
370
25
100
AcDbLine
 10
7263.475702558345
 20
4408.297701192776
 30
0.0
 11
7260.475702558345
 21
4411.297701192776
 31
0.0
  0
LINE
  5
1FE
330
17
100
AcDbEntity
  8
NIVEL 2° PAV.
 62
4
370
25
100
AcDbLine
 10
8051.442361705635
 20
4147.797701193225
 30
0.0
 11
7943.902454015937
 21
4147.797701193225
 31
0.0
  0
LINE
  5
1FF
330
17
100
AcDbEntity
  8
NIVEL 2° PAV.
 62
4
370
25
100
AcDbLine
 10
7943.744046162141
 20
4468.797701193225
 30
0.0
 11
7949.902454015937
 21
4468.797701193225
 31
0.0
  0
LINE
  5
200
330
17
100
AcDbEntity
  8
NIVEL 2° PAV.
 62
4
370
25
100
AcDbLine
 10
7946.902454015937
 20
4147.797701193225
 30
0.0
 11
7946.902454015937
 21
4468.797701193225
 31
0.0
  0
LINE
  5
201
330
17
100
AcDbEntity
  8
NIVEL 2° PAV.
 62
0
370
25
100
AcDbLine
 10
7945.402454015937
 20
4149.297701193225
 30
0.0
 11
7948.402454015937
 21
4146.297701193225
 31
0.0
  0
LINE
  5
202
330
17
100
AcDbEntity
  8
NIVEL 2° PAV.
 62
0
370
25
100
AcDbLine
 10
7948.402454015937
 20
4467.297701193225
 30
0.0
 11
7945.402454015937
 21
4470.297701193225
 31
0.0
  0
LINE
  5
203
330
17
100
AcDbEntity
  8
Painéis
 62
4
370
25
100
AcDbLine
 10
8339.158418057294
 20
4368.797701193503
 30
0.0
 11
8391.96294212586
 21
4368.797701193503
 31
0.0
  0
LINE
  5
204
330
17
100
AcDbEntity
  8
Painéis
 62
4
370
25
100
AcDbLine
 10
8339.15841805732
 20
4409.797701193503
 30
0.0
 11
8391.96294212586
 21
4409.797701193503
 31
0.0
  0
LINE
  5
205
330
17
100
AcDbEntity
  8
Painéis
 62
4
370
25
100
AcDbLine
 10
8388.962942125861
 20
4368.797701193503
 30
0.0
 11
8388.962942125861
 21
4409.797701193503
 31
0.0
  0
LINE
  5
206
330
17
100
AcDbEntity
  8
Painéis
 62
0
370
25
100
AcDbLine
 10
8387.462942125861
 20
4370.297701193503
 30
0.0
 11
8390.462942125861
 21
4367.297701193503
 31
0.0
  0
LINE
  5
207
330
17
100
AcDbEntity
  8
Painéis
 62
0
370
25
100
AcDbLine
 10
8390.462942125861
 20
4408.297701193503
 30
0.0
 11
8387.462942125861
 21
4411.297701193503
 31
0.0
  0
LINE
  5
208
330
17
100
AcDbEntity
  8
Painéis
 62
4
370
25
100
AcDbLine
 10
8339.158418057317
 20
4394.797701193235
 30
0.0
 11
8364.51885220193
 21
4394.797701193235
 31
0.0
  0
LINE
  5
209
330
17
100
AcDbEntity
  8
Painéis
 62
4
370
25
100
AcDbLine
 10
8339.158418057319
 20
4368.797701193015
 30
0.0
 11
8364.51885220193
 21
4368.797701193015
 31
0.0
  0
LINE
  5
20A
330
17
100
AcDbEntity
  8
Painéis
 62
4
370
25
100
AcDbLine
 10
8361.51885220193
 20
4394.797701193235
 30
0.0
 11
8361.51885220193
 21
4368.797701193015
 31
0.0
  0
LINE
  5
20B
330
17
100
AcDbEntity
  8
Painéis
 62
0
370
25
100
AcDbLine
 10
8363.01885220193
 20
4393.297701193235
 30
0.0
 11
8360.01885220193
 21
4396.297701193235
 31
0.0
  0
LINE
  5
20C
330
17
100
AcDbEntity
  8
Painéis
 62
0
370
25
100
AcDbLine
 10
8360.01885220193
 20
4370.297701193015
 30
0.0
 11
8363.01885220193
 21
4367.297701193015
 31
0.0
  0
LINE
  5
20D
330
17
100
AcDbEntity
  8
Painéis
 62
4
370
25
100
AcDbLine
 10
8339.158418057365
 20
4394.797701193235
 30
0.0
 11
8364.51885220186
 21
4394.797701193235
 31
0.0
  0
LINE
  5
20E
330
17
100
AcDbEntity
  8
Painéis
 62
4
370
25
100
AcDbLine
 10
8339.158418057317
 20
4409.797701192998
 30
0.0
 11
8364.51885220186
 21
4409.797701192998
 31
0.0
  0
LINE
  5
20F
330
17
100
AcDbEntity
  8
Painéis
 62
4
370
25
100
AcDbLine
 10
8361.51885220186
 20
4394.797701193235
 30
0.0
 11
8361.51885220186
 21
4409.797701192998
 31
0.0
  0
LINE
  5
210
330
17
100
AcDbEntity
  8
Painéis
 62
0
370
25
100
AcDbLine
 10
8360.01885220186
 20
4396.297701193235
 30
0.0
 11
8363.01885220186
 21
4393.297701193235
 31
0.0
  0
LINE
  5
211
330
17
100
AcDbEntity
  8
Painéis
 62
0
370
25
100
AcDbLine
 10
8363.01885220186
 20
4408.297701192998
 30
0.0
 11
8360.01885220186
 21
4411.297701192998
 31
0.0
  0
LINE
  5
212
330
17
100
AcDbEntity
  8
Painéis
 62
4
370
25
100
AcDbLine
 10
8819.066224208585
 20
4368.797701193713
 30
0.0
 11
8856.907167391344
 21
4368.797701193713
 31
0.0
  0
LINE
  5
213
330
17
100
AcDbEntity
  8
Painéis
 62
4
370
25
100
AcDbLine
 10
8819.066224208073
 20
4404.797701193714
 30
0.0
 11
8856.907167391344
 21
4404.797701193714
 31
0.0
  0
LINE
  5
214
330
17
100
AcDbEntity
  8
Painéis
 62
4
370
25
100
AcDbLine
 10
8853.907167391344
 20
4368.797701193713
 30
0.0
 11
8853.907167391344
 21
4404.797701193714
 31
0.0
  0
LINE
  5
215
330
17
100
AcDbEntity
  8
Painéis
 62
0
370
25
100
AcDbLine
 10
8852.407167391344
 20
4370.297701193713
 30
0.0
 11
8855.407167391344
 21
4367.297701193713
 31
0.0
  0
LINE
  5
216
330
17
100
AcDbEntity
  8
Painéis
 62
0
370
25
100
AcDbLine
 10
8855.407167391344
 20
4403.297701193714
 30
0.0
 11
8852.407167391344
 21
4406.297701193714
 31
0.0
  0
LINE
  5
217
330
17
100
AcDbEntity
  8
Painéis
 62
4
370
25
100
AcDbLine
 10
8819.06622420861
 20
4394.797701193446
 30
0.0
 11
8837.66116839946
 21
4394.797701193446
 31
0.0
  0
LINE
  5
218
330
17
100
AcDbEntity
  8
Painéis
 62
4
370
25
100
AcDbLine
 10
8819.066224208613
 20
4368.797701193225
 30
0.0
 11
8837.66116839946
 21
4368.797701193225
 31
0.0
  0
LINE
  5
219
330
17
100
AcDbEntity
  8
Painéis
 62
4
370
25
100
AcDbLine
 10
8834.66116839946
 20
4394.797701193446
 30
0.0
 11
8834.66116839946
 21
4368.797701193225
 31
0.0
  0
LINE
  5
21A
330
17
100
AcDbEntity
  8
Painéis
 62
0
370
25
100
AcDbLine
 10
8836.16116839946
 20
4393.297701193446
 30
0.0
 11
8833.16116839946
 21
4396.297701193446
 31
0.0
  0
LINE
  5
21B
330
17
100
AcDbEntity
  8
Painéis
 62
0
370
25
100
AcDbLine
 10
8833.16116839946
 20
4370.297701193225
 30
0.0
 11
8836.16116839946
 21
4367.297701193225
 31
0.0
  0
LINE
  5
21C
330
17
100
AcDbEntity
  8
Painéis
 62
4
370
25
100
AcDbLine
 10
8819.066224208658
 20
4394.797701193446
 30
0.0
 11
8837.661168399398
 21
4394.797701193446
 31
0.0
  0
LINE
  5
21D
330
17
100
AcDbEntity
  8
Painéis
 62
4
370
25
100
AcDbLine
 10
8819.06622420807
 20
4404.797701193209
 30
0.0
 11
8837.661168399398
 21
4404.797701193209
 31
0.0
  0
LINE
  5
21E
330
17
100
AcDbEntity
  8
Painéis
 62
4
370
25
100
AcDbLine
 10
8834.661168399398
 20
4394.797701193446
 30
0.0
 11
8834.661168399398
 21
4404.797701193209
 31
0.0
  0
LINE
  5
21F
330
17
100
AcDbEntity
  8
Painéis
 62
0
370
25
100
AcDbLine
 10
8833.161168399398
 20
4396.297701193446
 30
0.0
 11
8836.161168399398
 21
4393.297701193446
 31
0.0
  0
LINE
  5
220
330
17
100
AcDbEntity
  8
Painéis
 62
0
370
25
100
AcDbLine
 10
8836.161168399398
 20
4403.297701193209
 30
0.0
 11
8833.161168399398
 21
4406.297701193209
 31
0.0
  0
LINE
  5
221
330
17
100
AcDbEntity
  8
Painéis
 62
4
370
25
100
AcDbLine
 10
8157.158418057679
 20
4409.797701193227
 30
0.0
 11
8117.889574972272
 21
4409.797701193227
 31
0.0
  0
LINE
  5
222
330
17
100
AcDbEntity
  8
Painéis
 62
4
370
25
100
AcDbLine
 10
8123.158418056775
 20
4404.797701193226
 30
0.0
 11
8117.889574972272
 21
4404.797701193226
 31
0.0
  0
LINE
  5
223
330
17
100
AcDbEntity
  8
Painéis
 62
4
370
25
100
AcDbLine
 10
8120.889574972272
 20
4409.797701193227
 30
0.0
 11
8120.889574972272
 21
4412.797701193227
 31
0.0
  0
LINE
  5
224
330
17
100
AcDbEntity
  8
Painéis
 62
4
370
25
100
AcDbLine
 10
8120.889574972272
 20
4404.797701193226
 30
0.0
 11
8120.889574972272
 21
4386.701209965155
 31
0.0
  0
LINE
  5
225
330
17
100
AcDbEntity
  8
Painéis
 62
4
370
25
100
AcDbLine
 10
8120.889574972272
 20
4409.797701193227
 30
0.0
 11
8120.889574972272
 21
4404.797701193226
 31
0.0
  0
LINE
  5
226
330
17
100
AcDbEntity
  8
Painéis
 62
0
370
25
100
AcDbLine
 10
8119.389574972272
 20
4411.297701193227
 30
0.0
 11
8122.389574972272
 21
4408.297701193227
 31
0.0
  0
LINE
  5
227
330
17
100
AcDbEntity
  8
Painéis
 62
0
370
25
100
AcDbLine
 10
8122.389574972272
 20
4403.297701193226
 30
0.0
 11
8119.389574972272
 21
4406.297701193226
 31
0.0
  0
LINE
  5
228
330
17
100
AcDbEntity
  8
Painéis
 62
4
370
25
100
AcDbLine
 10
8782.066224208837
 20
4412.797701193709
 30
0.0
 11
8782.066224208837
 21
4482.756694857991
 31
0.0
  0
LINE
  5
229
330
17
100
AcDbEntity
  8
Painéis
 62
4
370
25
100
AcDbLine
 10
8816.06622420863
 20
4471.797701193225
 30
0.0
 11
8816.06622420863
 21
4482.756694857991
 31
0.0
  0
LINE
  5
22A
330
17
100
AcDbEntity
  8
Painéis
 62
4
370
25
100
AcDbLine
 10
8782.066224208837
 20
4479.756694857991
 30
0.0
 11
8816.06622420863
 21
4479.756694857991
 31
0.0
  0
LINE
  5
22B
330
17
100
AcDbEntity
  8
Painéis
 62
0
370
25
100
AcDbLine
 10
8783.566224208837
 20
4481.256694857991
 30
0.0
 11
8780.566224208837
 21
4478.256694857991
 31
0.0
  0
LINE
  5
22C
330
17
100
AcDbEntity
  8
Painéis
 62
0
370
25
100
AcDbLine
 10
8814.56622420863
 20
4478.256694857991
 30
0.0
 11
8817.56622420863
 21
4481.256694857991
 31
0.0
  0
LINE
  5
22D
330
17
100
AcDbEntity
  8
Painéis
 62
4
370
25
100
AcDbLine
 10
8779.06622420884
 20
4404.797701193265
 30
0.0
 11
8766.308109184352
 21
4404.797701193265
 31
0.0
  0
LINE
  5
22E
330
17
100
AcDbEntity
  8
Painéis
 62
4
370
25
100
AcDbLine
 10
8779.06622420884
 20
4409.797701193243
 30
0.0
 11
8766.308109184352
 21
4409.797701193243
 31
0.0
  0
LINE
  5
22F
330
17
100
AcDbEntity
  8
Painéis
 62
4
370
25
100
AcDbLine
 10
8769.308109184352
 20
4404.797701193265
 30
0.0
 11
8769.308109184352
 21
4401.797701193265
 31
0.0
  0
LINE
  5
230
330
17
100
AcDbEntity
  8
Painéis
 62
4
370
25
100
AcDbLine
 10
8769.308109184352
 20
4409.797701193243
 30
0.0
 11
8769.308109184352
 21
4412.797701193243
 31
0.0
  0
LINE
  5
231
330
17
100
AcDbEntity
  8
Painéis
 62
4
370
25
100
AcDbLine
 10
8769.308109184352
 20
4404.797701193265
 30
0.0
 11
8769.308109184352
 21
4409.797701193243
 31
0.0
  0
LINE
  5
232
330
17
100
AcDbEntity
  8
Painéis
 62
0
370
25
100
AcDbLine
 10
8770.808109184352
 20
4403.297701193265
 30
0.0
 11
8767.808109184352
 21
4406.297701193265
 31
0.0
  0
LINE
  5
233
330
17
100
AcDbEntity
  8
Painéis
 62
0
370
25
100
AcDbLine
 10
8767.808109184352
 20
4411.297701193243
 30
0.0
 11
8770.808109184352
 21
4408.297701193243
 31
0.0
  0
LINE
  5
234
330
17
100
AcDbEntity
  8
SARRAFO DE PRESSAO
 62
30
370
9
100
AcDbLine
 10
6338.320187045028
 20
3848.514566513364
 30
0.0
 11
6338.320187045028
 21
4047.7580799242533
 31
0.0
  0
LINE
  5
235
330
17
100
AcDbEntity
  8
SARRAFO DE PRESSAO
 62
30
370
9
100
AcDbLine
 10
6338.320187045028
 20
3948.1363232187978
 30
0.0
 11
7261.736578935117
 21
3948.1363232187978
 31
0.0
  0
LINE
  5
236
330
17
100
AcDbEntity
  8
SARRAFO DE PRESSAO
 62
30
370
9
100
AcDbLine
 10
6338.320187045028
 20
3997.947201571533
 30
0.0
 11
7357.736578935102
 21
3997.947201571533
 31
0.0
  0
LINE
  5
237
330
17
100
AcDbEntity
  8
SARRAFO DE PRESSAO
 62
30
370
9
100
AcDbLine
 10
6338.320187045043
 20
3898.325444866092
 30
0.0
 11
7261.736578935117
 21
3898.325444866092
 31
0.0
  0
LINE
  5
238
330
17
100
AcDbEntity
  8
SARRAFO DE PRESSAO
 62
30
370
9
100
AcDbLine
 10
7357.736578935102
 20
3948.1363232187978
 30
0.0
 11
7261.736578935117
 21
3948.1363232187978
 31
0.0
  0
LINE
  5
239
330
17
100
AcDbEntity
  8
SARRAFO DE PRESSAO
 62
30
370
9
100
AcDbLine
 10
7261.736578935117
 20
3948.1363232187978
 30
0.0
 11
7261.736578935117
 21
3848.514566513364
 31
0.0
  0
LINE
  5
23A
330
17
100
AcDbEntity
  8
SARRAFO DE PRESSAO
 62
30
370
9
100
AcDbLine
 10
7923.320187045028
 20
3848.514566513364
 30
0.0
 11
7923.320187045028
 21
4047.7580799242533
 31
0.0
  0
LINE
  5
23B
330
17
100
AcDbEntity
  8
SARRAFO DE PRESSAO
 62
30
370
9
100
AcDbLine
 10
7923.320187045028
 20
3948.1363232187978
 30
0.0
 11
8846.736578935117
 21
3948.1363232187978
 31
0.0
  0
LINE
  5
23C
330
17
100
AcDbEntity
  8
SARRAFO DE PRESSAO
 62
30
370
9
100
AcDbLine
 10
7923.320187045028
 20
3997.947201571533
 30
0.0
 11
8942.736578935102
 21
3997.947201571533
 31
0.0
  0
LINE
  5
23D
330
17
100
AcDbEntity
  8
SARRAFO DE PRESSAO
 62
30
370
9
100
AcDbLine
 10
7923.320187045043
 20
3898.325444866092
 30
0.0
 11
8846.736578935117
 21
3898.325444866092
 31
0.0
  0
LINE
  5
23E
330
17
100
AcDbEntity
  8
SARRAFO DE PRESSAO
 62
30
370
9
100
AcDbLine
 10
8942.736578935102
 20
3948.1363232187978
 30
0.0
 11
8846.736578935117
 21
3948.1363232187978
 31
0.0
  0
LINE
  5
23F
330
17
100
AcDbEntity
  8
SARRAFO DE PRESSAO
 62
30
370
9
100
AcDbLine
 10
8846.736578935117
 20
3948.1363232187978
 30
0.0
 11
8846.736578935117
 21
3848.514566513364
 31
0.0
  0
LWPOLYLINE
  5
240
330
17
100
AcDbEntity
  8
Painéis
 62
200
370
25
100
AcDbPolyline
 90
4
 70
0
 10
6621.664299211385
 20
4149.797701193215
 10
6445.664299211384
 20
4149.797701193244
 10
6445.664299211384
 20
4147.797701193244
 10
6621.664299211385
 20
4147.797701193215
  0
LWPOLYLINE
  5
241
330
17
100
AcDbEntity
  8
Painéis
 62
200
370
25
100
AcDbPolyline
 90
4
 70
0
 10
6906.054476448836
 20
4149.797701193215
 10
6753.054476448837
 20
4149.797701193244
 10
6753.054476448837
 20
4147.797701193244
 10
6906.054476448836
 20
4147.797701193215
  0
LWPOLYLINE
  5
242
330
17
100
AcDbEntity
  8
COTA
 62
241
370
25
100
AcDbPolyline
 90
4
 70
0
 10
7087.836191282528
 20
4404.797701193263
 10
7087.836191282528
 20
4468.797701193265
 10
7068.836191282527
 20
4468.797701193265
 10
7068.836191282527
 20
4404.797701193263
  0
LWPOLYLINE
  5
243
330
17
100
AcDbEntity
  8
Painéis
 62
200
370
25
100
AcDbPolyline
 90
4
 70
0
 10
7068.836191282527
 20
4149.797701193215
 10
7087.836191282528
 20
4149.797701193215
 10
7087.836191282528
 20
4147.797701193215
 10
7068.836191282527
 20
4147.797701193215
  0
LWPOLYLINE
  5
244
330
17
100
AcDbEntity
  8
COTA
 62
241
370
25
100
AcDbPolyline
 90
4
 70
0
 10
7238.629300666122
 20
4409.797701193263
 10
7238.629300666122
 20
4468.797701193265
 10
7219.629300666122
 20
4468.797701193265
 10
7219.629300666122
 20
4409.797701193263
  0
LWPOLYLINE
  5
245
330
17
100
AcDbEntity
  8
Painéis
 62
200
370
25
100
AcDbPolyline
 90
4
 70
0
 10
7219.629300666122
 20
4149.797701193215
 10
7238.629300666122
 20
4149.797701193215
 10
7238.629300666122
 20
4147.797701193215
 10
7219.629300666122
 20
4147.797701193215
  0
LWPOLYLINE
  5
246
330
17
100
AcDbEntity
  8
Painéis
 62
200
370
25
100
AcDbPolyline
 90
4
 70
0
 10
8816.066224208851
 20
4149.797701193215
 10
8576.066224208851
 20
4149.797701193244
 10
8576.066224208851
 20
4147.797701193244
 10
8816.066224208851
 20
4147.797701193215
  0
LWPOLYLINE
  5
247
330
17
100
AcDbEntity
  8
Painéis
 62
200
370
25
100
AcDbPolyline
 90
4
 70
0
 10
8126.158418057924
 20
4149.797701193215
 10
8336.158418057923
 20
4149.797701193244
 10
8336.158418057923
 20
4147.797701193244
 10
8126.158418057924
 20
4147.797701193215
  0
LWPOLYLINE
  5
248
330
17
100
AcDbEntity
  8
SARRAFO DE PRESSAO
 62
30
370
9
100
AcDbPolyline
 90
8
 70
0
 10
7357.736578935102
 20
3848.514566513364
 10
7357.736578935102
 20
4032.7580799242533
 10
7342.736578935102
 20
4047.7580799242533
 10
6002.736578935102
 20
4047.7580799242533
 10
5987.736578935102
 20
4032.7580799242533
 10
5987.736578935102
 20
3863.514566513364
 10
6002.736578935102
 20
3848.514566513364
 10
7357.736578935102
 20
3848.514566513364
  0
LWPOLYLINE
  5
249
330
17
100
AcDbEntity
  8
SARRAFO DE PRESSAO
 62
251
370
9
100
AcDbPolyline
 90
4
 70
0
 10
5912.736578935117
 20
3808.514566513364
 10
7397.736578935102
 20
3808.514566513364
 10
7397.736578935102
 20
4858.514566513364
 10
5912.736578935117
 20
4858.514566513364
  0
LWPOLYLINE
  5
24A
330
17
100
AcDbEntity
  8
SARRAFO DE PRESSAO
 62
30
370
9
100
AcDbPolyline
 90
4
 70
0
 10
5987.736578935102
 20
3848.514566513364
 10
7357.736578935102
 20
3848.514566513364
 10
7357.736578935102
 20
4818.514566513364
 10
5987.736578935102
 20
4818.514566513364
  0
LWPOLYLINE
  5
24B
330
17
100
AcDbEntity
  8
SARRAFO DE PRESSAO
 62
30
370
9
100
AcDbPolyline
 90
8
 70
0
 10
8942.736578935102
 20
3848.514566513364
 10
8942.736578935102
 20
4032.7580799242533
 10
8927.736578935102
 20
4047.7580799242533
 10
7587.736578935102
 20
4047.7580799242533
 10
7572.736578935102
 20
4032.7580799242533
 10
7572.736578935102
 20
3863.514566513364
 10
7587.736578935102
 20
3848.514566513364
 10
8942.736578935102
 20
3848.514566513364
  0
LWPOLYLINE
  5
24C
330
17
100
AcDbEntity
  8
SARRAFO DE PRESSAO
 62
251
370
9
100
AcDbPolyline
 90
4
 70
0
 10
7497.736578935117
 20
3808.514566513364
 10
8982.736578935102
 20
3808.514566513364
 10
8982.736578935102
 20
4858.514566513364
 10
7497.736578935117
 20
4858.514566513364
  0
LWPOLYLINE
  5
24D
330
17
100
AcDbEntity
  8
SARRAFO DE PRESSAO
 62
30
370
9
100
AcDbPolyline
 90
4
 70
0
 10
7572.736578935102
 20
3848.514566513364
 10
8942.736578935102
 20
3848.514566513364
 10
8942.736578935102
 20
4818.514566513364
 10
7572.736578935102
 20
4818.514566513364
  0
ENDSEC
  0
SECTION
  2
OBJECTS
  0
DICTIONARY
  5
A
330
0
100
AcDbDictionary
281
1
  3
ACAD_COLOR
350
B
  3
ACAD_GROUP
350
C
  3
ACAD_LAYOUT
350
D
  3
ACAD_MATERIAL
350
E
  3
ACAD_MLEADERSTYLE
350
F
  3
ACAD_MLINESTYLE
350
10
  3
ACAD_PLOTSETTINGS
350
11
  3
ACAD_PLOTSTYLENAME
350
12
  3
ACAD_SCALELIST
350
14
  3
ACAD_TABLESTYLE
350
15
  3
ACAD_VISUALSTYLE
350
16
  3
EZDXF_META
350
2D
  0
DICTIONARY
  5
B
330
A
100
AcDbDictionary
281
1
  0
DICTIONARY
  5
C
330
A
100
AcDbDictionary
281
1
  0
DICTIONARY
  5
D
330
A
100
AcDbDictionary
281
1
  3
Model
350
1A
  3
Layout1
350
1E
  0
DICTIONARY
  5
E
330
A
100
AcDbDictionary
281
1
  3
ByBlock
350
1F
  3
ByLayer
350
20
  3
Global
350
21
  0
DICTIONARY
  5
F
330
A
100
AcDbDictionary
281
1
  3
Standard
350
2C
  0
DICTIONARY
  5
10
330
A
100
AcDbDictionary
281
1
  3
Standard
350
22
  0
DICTIONARY
  5
11
330
A
100
AcDbDictionary
281
1
  0
ACDBDICTIONARYWDFLT
  5
12
330
A
100
AcDbDictionary
281
1
  3
Normal
350
13
100
AcDbDictionaryWithDefault
340
13
  0
ACDBPLACEHOLDER
  5
13
330
12
  0
DICTIONARY
  5
14
330
A
100
AcDbDictionary
281
1
  0
DICTIONARY
  5
15
330
A
100
AcDbDictionary
281
1
  0
DICTIONARY
  5
16
330
A
100
AcDbDictionary
281
1
  0
LAYOUT
  5
1A
330
D
100
AcDbPlotSettings
  1

  4
A3
  6

 40
7.5
 41
20.0
 42
7.5
 43
20.0
 44
420.0
 45
297.0
 46
0.0
 47
0.0
 48
0.0
 49
0.0
140
0.0
141
0.0
142
1.0
143
1.0
 70
1024
 72
1
 73
0
 74
5
  7

 75
16
 76
0
 77
2
 78
300
147
1.0
148
0.0
149
0.0
100
AcDbLayout
  1
Model
 70
1
 71
0
 10
0.0
 20
0.0
 11
420.0
 21
297.0
 12
0.0
 22
0.0
 32
0.0
 14
1e+20
 24
1e+20
 34
1e+20
 15
-1e+20
 25
-1e+20
 35
-1e+20
146
0.0
 13
0.0
 23
0.0
 33
0.0
 16
1.0
 26
0.0
 36
0.0
 17
0.0
 27
1.0
 37
0.0
 76
1
330
17
  0
LAYOUT
  5
1E
330
D
100
AcDbPlotSettings
  1

  4
A3
  6

 40
7.5
 41
20.0
 42
7.5
 43
20.0
 44
420.0
 45
297.0
 46
0.0
 47
0.0
 48
0.0
 49
0.0
140
0.0
141
0.0
142
1.0
143
1.0
 70
0
 72
1
 73
0
 74
5
  7

 75
16
 76
0
 77
2
 78
300
147
1.0
148
0.0
149
0.0
100
AcDbLayout
  1
Layout1
 70
1
 71
1
 10
0.0
 20
0.0
 11
420.0
 21
297.0
 12
0.0
 22
0.0
 32
0.0
 14
1e+20
 24
1e+20
 34
1e+20
 15
-1e+20
 25
-1e+20
 35
-1e+20
146
0.0
 13
0.0
 23
0.0
 33
0.0
 16
1.0
 26
0.0
 36
0.0
 17
0.0
 27
1.0
 37
0.0
 76
1
330
1B
  0
MATERIAL
  5
1F
102
{ACAD_REACTORS
330
E
102
}
330
E
100
AcDbMaterial
  1
ByBlock
  2

 70
0
 40
1.0
 71
1
 41
1.0
 91
-1023410177
 42
1.0
 72
1
  3

 73
1
 74
1
 75
1
 44
0.5
 73
0
 45
1.0
 46
1.0
 77
1
  4

 78
1
 79
1
170
1
 48
1.0
171
1
  6

172
1
173
1
174
1
140
1.0
141
1.0
175
1
  7

176
1
177
1
178
1
143
1.0
179
1
  8

270
1
271
1
272
1
145
1.0
146
1.0
273
1
  9

274
1
275
1
276
1
 42
1.0
 72
1
  3

 73
1
 74
1
 75
1
 94
63
  0
MATERIAL
  5
20
102
{ACAD_REACTORS
330
E
102
}
330
E
100
AcDbMaterial
  1
ByLayer
  2

 70
0
 40
1.0
 71
1
 41
1.0
 91
-1023410177
 42
1.0
 72
1
  3

 73
1
 74
1
 75
1
 44
0.5
 73
0
 45
1.0
 46
1.0
 77
1
  4

 78
1
 79
1
170
1
 48
1.0
171
1
  6

172
1
173
1
174
1
140
1.0
141
1.0
175
1
  7

176
1
177
1
178
1
143
1.0
179
1
  8

270
1
271
1
272
1
145
1.0
146
1.0
273
1
  9

274
1
275
1
276
1
 42
1.0
 72
1
  3

 73
1
 74
1
 75
1
 94
63
  0
MATERIAL
  5
21
102
{ACAD_REACTORS
330
E
102
}
330
E
100
AcDbMaterial
  1
Global
  2

 70
0
 40
1.0
 71
1
 41
1.0
 91
-1023410177
 42
1.0
 72
1
  3

 73
1
 74
1
 75
1
 44
0.5
 73
0
 45
1.0
 46
1.0
 77
1
  4

 78
1
 79
1
170
1
 48
1.0
171
1
  6

172
1
173
1
174
1
140
1.0
141
1.0
175
1
  7

176
1
177
1
178
1
143
1.0
179
1
  8

270
1
271
1
272
1
145
1.0
146
1.0
273
1
  9

274
1
275
1
276
1
 42
1.0
 72
1
  3

 73
1
 74
1
 75
1
 94
63
  0
MLINESTYLE
  5
22
102
{ACAD_REACTORS
330
10
102
}
330
10
100
AcDbMlineStyle
  2
Standard
 70
0
  3

 62
256
 51
90.0
 52
90.0
 71
2
 49
0.5
 62
256
  6
BYLAYER
 49
-0.5
 62
256
  6
BYLAYER
  0
MLEADERSTYLE
  5
2C
102
{ACAD_REACTORS
330
F
102
}
330
F
100
AcDbMLeaderStyle
179
2
170
2
171
1
172
0
 90
2
 40
0.0
 41
0.0
173
1
 91
-1056964608
 92
-2
290
1
 42
2.0
291
1
 43
8.0
  3
Standard
 44
4.0
300

342
29
174
1
175
1
176
0
178
1
 93
-1056964608
 45
4.0
292
0
297
0
 46
4.0
 94
-1056964608
 47
1.0
 49
1.0
140
1.0
294
1
141
0.0
177
0
142
1.0
295
0
296
0
143
3.75
271
0
272
9
273
9
  0
DICTIONARY
  5
2D
330
A
100
AcDbDictionary
280
1
281
1
  3
CREATED_BY_EZDXF
350
2E
  3
WRITTEN_BY_EZDXF
350
250
  0
DICTIONARYVAR
  5
2E
330
2D
100
DictionaryVariables
280
0
  1
1.4.3 @ 2026-06-09T23:25:03.022196+00:00
  0
DICTIONARYVAR
  5
250
330
2D
100
DictionaryVariables
280
0
  1
1.4.3 @ 2026-06-09T23:25:03.037167+00:00
  0
ENDSEC
  0
EOF
