  0
SECTION
  2
HEADER
  9
$ACADVER
  1
AC1024
  9
$ACADMAINTVER
 70
6
  9
$DWGCODEPAGE
  3
ANSI_1252
  9
$LASTSAVEDBY
  1
ezdxf
  9
$INSBASE
 10
0.0
 20
0.0
 30
0.0
  9
$EXTMIN
 10
1e+20
 20
1e+20
 30
1e+20
  9
$EXTMAX
 10
-1e+20
 20
-1e+20
 30
-1e+20
  9
$LIMMIN
 10
0.0
 20
0.0
  9
$LIMMAX
 10
420.0
 20
297.0
  9
$ORTHOMODE
 70
0
  9
$REGENMODE
 70
1
  9
$FILLMODE
 70
1
  9
$QTEXTMODE
 70
0
  9
$MIRRTEXT
 70
1
  9
$LTSCALE
 40
1.0
  9
$ATTMODE
 70
1
  9
$TEXTSIZE
 40
2.5
  9
$TRACEWID
 40
1.0
  9
$TEXTSTYLE
  7
Standard
  9
$CLAYER
  8
0
  9
$CELTYPE
  6
ByLayer
  9
$CECOLOR
 62
256
  9
$CELTSCALE
 40
1.0
  9
$DISPSILH
 70
0
  9
$DIMSCALE
 40
1.0
  9
$DIMASZ
 40
2.5
  9
$DIMEXO
 40
0.625
  9
$DIMDLI
 40
3.75
  9
$DIMRND
 40
0.0
  9
$DIMDLE
 40
0.0
  9
$DIMEXE
 40
1.25
  9
$DIMTP
 40
0.0
  9
$DIMTM
 40
0.0
  9
$DIMTXT
 40
2.5
  9
$DIMCEN
 40
2.5
  9
$DIMTSZ
 40
0.0
  9
$DIMTOL
 70
0
  9
$DIMLIM
 70
0
  9
$DIMTIH
 70
0
  9
$DIMTOH
 70
0
  9
$DIMSE1
 70
0
  9
$DIMSE2
 70
0
  9
$DIMTAD
 70
1
  9
$DIMZIN
 70
8
  9
$DIMBLK
  1

  9
$DIMASO
 70
1
  9
$DIMSHO
 70
1
  9
$DIMPOST
  1

  9
$DIMAPOST
  1

  9
$DIMALT
 70
0
  9
$DIMALTD
 70
3
  9
$DIMALTF
 40
0.03937007874
  9
$DIMLFAC
 40
1.0
  9
$DIMTOFL
 70
1
  9
$DIMTVP
 40
0.0
  9
$DIMTIX
 70
0
  9
$DIMSOXD
 70
0
  9
$DIMSAH
 70
0
  9
$DIMBLK1
  1

  9
$DIMBLK2
  1

  9
$DIMSTYLE
  2
ISO-25
  9
$DIMCLRD
 70
0
  9
$DIMCLRE
 70
0
  9
$DIMCLRT
 70
0
  9
$DIMTFAC
 40
1.0
  9
$DIMGAP
 40
0.625
  9
$DIMJUST
 70
0
  9
$DIMSD1
 70
0
  9
$DIMSD2
 70
0
  9
$DIMTOLJ
 70
0
  9
$DIMTZIN
 70
8
  9
$DIMALTZ
 70
0
  9
$DIMALTTZ
 70
0
  9
$DIMUPT
 70
0
  9
$DIMDEC
 70
2
  9
$DIMTDEC
 70
2
  9
$DIMALTU
 70
2
  9
$DIMALTTD
 70
3
  9
$DIMTXSTY
  7
Standard
  9
$DIMAUNIT
 70
0
  9
$DIMADEC
 70
0
  9
$DIMALTRND
 40
0.0
  9
$DIMAZIN
 70
0
  9
$DIMDSEP
 70
44
  9
$DIMATFIT
 70
3
  9
$DIMFRAC
 70
0
  9
$DIMLDRBLK
  1

  9
$DIMLUNIT
 70
2
  9
$DIMLWD
 70
-2
  9
$DIMLWE
 70
-2
  9
$DIMTMOVE
 70
0
  9
$DIMFXL
 40
1.0
  9
$DIMFXLON
 70
0
  9
$DIMJOGANG
 40
0.785398163397
  9
$DIMTFILL
 70
0
  9
$DIMTFILLCLR
 70
0
  9
$DIMARCSYM
 70
0
  9
$DIMLTYPE
  6

  9
$DIMLTEX1
  6

  9
$DIMLTEX2
  6

  9
$DIMTXTDIRECTION
 70
0
  9
$LUNITS
 70
2
  9
$LUPREC
 70
4
  9
$SKETCHINC
 40
1.0
  9
$FILLETRAD
 40
10.0
  9
$AUNITS
 70
0
  9
$AUPREC
 70
2
  9
$MENU
  1
.
  9
$ELEVATION
 40
0.0
  9
$PELEVATION
 40
0.0
  9
$THICKNESS
 40
0.0
  9
$LIMCHECK
 70
0
  9
$CHAMFERA
 40
0.0
  9
$CHAMFERB
 40
0.0
  9
$CHAMFERC
 40
0.0
  9
$CHAMFERD
 40
0.0
  9
$SKPOLY
 70
0
  9
$TDCREATE
 40
2461202.5793287037
  9
$TDUCREATE
 40
2458532.153996898
  9
$TDUPDATE
 40
2461202.5793287037
  9
$TDUUPDATE
 40
2458532.1544311
  9
$TDINDWG
 40
0.0
  9
$TDUSRTIMER
 40
0.0
  9
$USRTIMER
 70
1
  9
$ANGBASE
 50
0.0
  9
$ANGDIR
 70
0
  9
$PDMODE
 70
0
  9
$PDSIZE
 40
0.0
  9
$PLINEWID
 40
0.0
  9
$SPLFRAME
 70
0
  9
$SPLINETYPE
 70
6
  9
$SPLINESEGS
 70
8
  9
$HANDSEED
  5
185
  9
$SURFTAB1
 70
6
  9
$SURFTAB2
 70
6
  9
$SURFTYPE
 70
6
  9
$SURFU
 70
6
  9
$SURFV
 70
6
  9
$UCSBASE
  2

  9
$UCSNAME
  2

  9
$UCSORG
 10
0.0
 20
0.0
 30
0.0
  9
$UCSXDIR
 10
1.0
 20
0.0
 30
0.0
  9
$UCSYDIR
 10
0.0
 20
1.0
 30
0.0
  9
$UCSORTHOREF
  2

  9
$UCSORTHOVIEW
 70
0
  9
$UCSORGTOP
 10
0.0
 20
0.0
 30
0.0
  9
$UCSORGBOTTOM
 10
0.0
 20
0.0
 30
0.0
  9
$UCSORGLEFT
 10
0.0
 20
0.0
 30
0.0
  9
$UCSORGRIGHT
 10
0.0
 20
0.0
 30
0.0
  9
$UCSORGFRONT
 10
0.0
 20
0.0
 30
0.0
  9
$UCSORGBACK
 10
0.0
 20
0.0
 30
0.0
  9
$PUCSBASE
  2

  9
$PUCSNAME
  2

  9
$PUCSORG
 10
0.0
 20
0.0
 30
0.0
  9
$PUCSXDIR
 10
1.0
 20
0.0
 30
0.0
  9
$PUCSYDIR
 10
0.0
 20
1.0
 30
0.0
  9
$PUCSORTHOREF
  2

  9
$PUCSORTHOVIEW
 70
0
  9
$PUCSORGTOP
 10
0.0
 20
0.0
 30
0.0
  9
$PUCSORGBOTTOM
 10
0.0
 20
0.0
 30
0.0
  9
$PUCSORGLEFT
 10
0.0
 20
0.0
 30
0.0
  9
$PUCSORGRIGHT
 10
0.0
 20
0.0
 30
0.0
  9
$PUCSORGFRONT
 10
0.0
 20
0.0
 30
0.0
  9
$PUCSORGBACK
 10
0.0
 20
0.0
 30
0.0
  9
$USERI1
 70
0
  9
$USERI2
 70
0
  9
$USERI3
 70
0
  9
$USERI4
 70
0
  9
$USERI5
 70
0
  9
$USERR1
 40
0.0
  9
$USERR2
 40
0.0
  9
$USERR3
 40
0.0
  9
$USERR4
 40
0.0
  9
$USERR5
 40
0.0
  9
$WORLDVIEW
 70
1
  9
$SHADEDGE
 70
3
  9
$SHADEDIF
 70
70
  9
$TILEMODE
 70
1
  9
$MAXACTVP
 70
64
  9
$PINSBASE
 10
0.0
 20
0.0
 30
0.0
  9
$PLIMCHECK
 70
0
  9
$PEXTMIN
 10
1e+20
 20
1e+20
 30
1e+20
  9
$PEXTMAX
 10
-1e+20
 20
-1e+20
 30
-1e+20
  9
$PLIMMIN
 10
0.0
 20
0.0
  9
$PLIMMAX
 10
420.0
 20
297.0
  9
$UNITMODE
 70
0
  9
$VISRETAIN
 70
1
  9
$PLINEGEN
 70
0
  9
$PSLTSCALE
 70
1
  9
$TREEDEPTH
 70
3020
  9
$CMLSTYLE
  2
Standard
  9
$CMLJUST
 70
0
  9
$CMLSCALE
 40
20.0
  9
$PROXYGRAPHICS
 70
1
  9
$MEASUREMENT
 70
1
  9
$CELWEIGHT
370
-1
  9
$ENDCAPS
280
0
  9
$JOINSTYLE
280
0
  9
$LWDISPLAY
290
0
  9
$INSUNITS
 70
6
  9
$HYPERLINKBASE
  1

  9
$STYLESHEET
  1

  9
$XEDIT
290
1
  9
$CEPSNTYPE
380
0
  9
$PSTYLEMODE
290
1
  9
$FINGERPRINTGUID
  2
{FCAC480A-924A-40AA-83F7-DB157F0672C7}
  9
$VERSIONGUID
  2
{994A81CA-47F7-4FC7-9F7B-1BA22CB960E5}
  9
$EXTNAMES
290
1
  9
$PSVPSCALE
 40
0.0
  9
$OLESTARTUP
290
0
  9
$SORTENTS
280
127
  9
$INDEXCTL
280
0
  9
$HIDETEXT
280
1
  9
$XCLIPFRAME
280
1
  9
$HALOGAP
280
0
  9
$OBSCOLOR
 70
257
  9
$OBSLTYPE
280
0
  9
$INTERSECTIONDISPLAY
280
0
  9
$INTERSECTIONCOLOR
 70
257
  9
$DIMASSOC
280
2
  9
$PROJECTNAME
  1

  9
$CAMERADISPLAY
290
0
  9
$LENSLENGTH
 40
50.0
  9
$CAMERAHEIGHT
 40
0.0
  9
$STEPSPERSEC
 40
24.0
  9
$STEPSIZE
 40
100.0
  9
$3DDWFPREC
 40
2.0
  9
$PSOLWIDTH
 40
0.005
  9
$PSOLHEIGHT
 40
0.08
  9
$LOFTANG1
 40
1.570796326795
  9
$LOFTANG2
 40
1.570796326795
  9
$LOFTMAG1
 40
0.0
  9
$LOFTMAG2
 40
0.0
  9
$LOFTPARAM
 70
7
  9
$LOFTNORMALS
280
1
  9
$LATITUDE
 40
37.795
  9
$LONGITUDE
 40
-122.394
  9
$NORTHDIRECTION
 40
0.0
  9
$TIMEZONE
 70
-8000
  9
$LIGHTGLYPHDISPLAY
280
1
  9
$TILEMODELIGHTSYNCH
280
1
  9
$CMATERIAL
347
20
  9
$SOLIDHIST
280
0
  9
$SHOWHIST
280
1
  9
$DWFFRAME
280
2
  9
$DGNFRAME
280
2
  9
$REALWORLDSCALE
290
1
  9
$INTERFERECOLOR
 62
256
  9
$CSHADOW
280
0
  9
$SHADOWPLANELOCATION
 40
0.0
  0
ENDSEC
  0
SECTION
  2
CLASSES
  0
CLASS
  1
ACDBDICTIONARYWDFLT
  2
AcDbDictionaryWithDefault
  3
ObjectDBX Classes
 90
0
 91
0
280
0
281
0
  0
CLASS
  1
SUN
  2
AcDbSun
  3
SCENEOE
 90
1153
 91
0
280
0
281
0
  0
CLASS
  1
VISUALSTYLE
  2
AcDbVisualStyle
  3
ObjectDBX Classes
 90
4095
 91
0
280
0
281
0
  0
CLASS
  1
MATERIAL
  2
AcDbMaterial
  3
ObjectDBX Classes
 90
1153
 91
0
280
0
281
0
  0
CLASS
  1
SCALE
  2
AcDbScale
  3
ObjectDBX Classes
 90
1153
 91
0
280
0
281
0
  0
CLASS
  1
TABLESTYLE
  2
AcDbTableStyle
  3
ObjectDBX Classes
 90
4095
 91
0
280
0
281
0
  0
CLASS
  1
MLEADERSTYLE
  2
AcDbMLeaderStyle
  3
ACDB_MLEADERSTYLE_CLASS
 90
4095
 91
0
280
0
281
0
  0
CLASS
  1
DICTIONARYVAR
  2
AcDbDictionaryVar
  3
ObjectDBX Classes
 90
0
 91
0
280
0
281
0
  0
CLASS
  1
CELLSTYLEMAP
  2
AcDbCellStyleMap
  3
ObjectDBX Classes
 90
1152
 91
0
280
0
281
0
  0
CLASS
  1
MENTALRAYRENDERSETTINGS
  2
AcDbMentalRayRenderSettings
  3
SCENEOE
 90
1024
 91
0
280
0
281
0
  0
CLASS
  1
ACDBDETAILVIEWSTYLE
  2
AcDbDetailViewStyle
  3
ObjectDBX Classes
 90
1025
 91
0
280
0
281
0
  0
CLASS
  1
ACDBSECTIONVIEWSTYLE
  2
AcDbSectionViewStyle
  3
ObjectDBX Classes
 90
1025
 91
0
280
0
281
0
  0
CLASS
  1
RASTERVARIABLES
  2
AcDbRasterVariables
  3
ISM
 90
0
 91
0
280
0
281
0
  0
CLASS
  1
LAYOUT
  2
AcDbLayout
  3
ObjectDBX Classes
 90
0
 91
0
280
0
281
0
  0
CLASS
  1
ACDBPLACEHOLDER
  2
AcDbPlaceHolder
  3
ObjectDBX Classes
 90
0
 91
0
280
0
281
0
  0
ENDSEC
  0
SECTION
  2
TABLES
  0
TABLE
  2
VPORT
  5
8
330
0
100
AcDbSymbolTable
 70
1
  0
VPORT
  5
23
330
8
100
AcDbSymbolTableRecord
100
AcDbViewportTableRecord
  2
*Active
 70
0
 10
0.0
 20
0.0
 11
1.0
 21
1.0
 12
0.0
 22
0.0
 13
0.0
 23
0.0
 14
0.5
 24
0.5
 15
0.5
 25
0.5
 16
0.0
 26
0.0
 36
1.0
 17
0.0
 27
0.0
 37
0.0
 40
1000.0
 41
1.34
 42
50.0
 43
0.0
 44
0.0
 50
0.0
 51
0.0
 71
0
 72
1000
 73
1
 74
3
 75
0
 76
0
 77
0
 78
0
281
0
 65
0
146
0.0
  0
ENDTAB
  0
TABLE
  2
LTYPE
  5
2
330
0
100
AcDbSymbolTable
 70
3
  0
LTYPE
  5
24
330
2
100
AcDbSymbolTableRecord
100
AcDbLinetypeTableRecord
  2
ByBlock
 70
0
  3

 72
65
 73
0
 40
0.0
  0
LTYPE
  5
25
330
2
100
AcDbSymbolTableRecord
100
AcDbLinetypeTableRecord
  2
ByLayer
 70
0
  3

 72
65
 73
0
 40
0.0
  0
LTYPE
  5
26
330
2
100
AcDbSymbolTableRecord
100
AcDbLinetypeTableRecord
  2
Continuous
 70
0
  3

 72
65
 73
0
 40
0.0
  0
ENDTAB
  0
TABLE
  2
LAYER
  5
1
330
0
100
AcDbSymbolTable
 70
16
  0
LAYER
  5
27
330
1
100
AcDbSymbolTableRecord
100
AcDbLayerTableRecord
  2
0
 70
0
 62
7
  6
Continuous
370
-3
390
13
347
21
  0
LAYER
  5
28
330
1
100
AcDbSymbolTableRecord
100
AcDbLayerTableRecord
  2
Defpoints
 70
0
 62
7
  6
Continuous
290
0
370
-3
390
13
347
21
  0
LAYER
  5
2F
330
1
100
AcDbSymbolTableRecord
100
AcDbLayerTableRecord
  2
COTA
 70
0
 62
7
  6
Continuous
370
-3
390
13
347
21
  0
LAYER
  5
30
330
1
100
AcDbSymbolTableRecord
100
AcDbLayerTableRecord
  2
Cotas
 70
0
 62
7
  6
Continuous
370
-3
390
13
347
21
  0
LAYER
  5
31
330
1
100
AcDbSymbolTableRecord
100
AcDbLayerTableRecord
  2
Texto Seção
 70
0
 62
7
  6
Continuous
370
-3
390
13
347
21
  0
LAYER
  5
32
330
1
100
AcDbSymbolTableRecord
100
AcDbLayerTableRecord
  2
Hachura
 70
0
 62
7
  6
Continuous
370
-3
390
13
347
21
  0
LAYER
  5
33
330
1
100
AcDbSymbolTableRecord
100
AcDbLayerTableRecord
  2
Painéis
 70
0
 62
7
  6
Continuous
370
-3
390
13
347
21
  0
LAYER
  5
34
330
1
100
AcDbSymbolTableRecord
100
AcDbLayerTableRecord
  2
Madeira
 70
0
 62
7
  6
Continuous
370
-3
390
13
347
21
  0
LAYER
  5
35
330
1
100
AcDbSymbolTableRecord
100
AcDbLayerTableRecord
  2
TEXTO PILAR
 70
0
 62
7
  6
Continuous
370
-3
390
13
347
21
  0
LAYER
  5
36
330
1
100
AcDbSymbolTableRecord
100
AcDbLayerTableRecord
  2
SARR_2.2x7
 70
0
 62
7
  6
Continuous
370
-3
390
13
347
21
  0
LAYER
  5
37
330
1
100
AcDbSymbolTableRecord
100
AcDbLayerTableRecord
  2
SARR_3.5x7
 70
0
 62
7
  6
Continuous
370
-3
390
13
347
21
  0
LAYER
  5
38
330
1
100
AcDbSymbolTableRecord
100
AcDbLayerTableRecord
  2
NOMENCLATURA
 70
0
 62
7
  6
Continuous
370
-3
390
13
347
21
  0
LAYER
  5
39
330
1
100
AcDbSymbolTableRecord
100
AcDbLayerTableRecord
  2
CONCRETO
 70
0
 62
7
  6
Continuous
370
-3
390
13
347
21
  0
LAYER
  5
3A
330
1
100
AcDbSymbolTableRecord
100
AcDbLayerTableRecord
  2
5
 70
0
 62
7
  6
Continuous
370
-3
390
13
347
21
  0
LAYER
  5
3B
330
1
100
AcDbSymbolTableRecord
100
AcDbLayerTableRecord
  2
REAPROVEITAMENTO
 70
0
 62
7
  6
Continuous
370
-3
390
13
347
21
  0
LAYER
  5
3C
330
1
100
AcDbSymbolTableRecord
100
AcDbLayerTableRecord
  2
detalhes
 70
0
 62
7
  6
Continuous
370
-3
390
13
347
21
  0
ENDTAB
  0
TABLE
  2
STYLE
  5
5
330
0
100
AcDbSymbolTable
 70
1
  0
STYLE
  5
29
330
5
100
AcDbSymbolTableRecord
100
AcDbTextStyleTableRecord
  2
Standard
 70
0
 40
0.0
 41
1.0
 50
0.0
 71
0
 42
2.5
  3
txt
  4

  0
ENDTAB
  0
TABLE
  2
VIEW
  5
7
330
0
100
AcDbSymbolTable
 70
0
  0
ENDTAB
  0
TABLE
  2
UCS
  5
6
330
0
100
AcDbSymbolTable
 70
0
  0
ENDTAB
  0
TABLE
  2
APPID
  5
3
330
0
100
AcDbSymbolTable
 70
3
  0
APPID
  5
2A
330
3
100
AcDbSymbolTableRecord
100
AcDbRegAppTableRecord
  2
ACAD
 70
0
  0
APPID
  5
182
330
3
100
AcDbSymbolTableRecord
100
AcDbRegAppTableRecord
  2
HATCHBACKGROUNDCOLOR
 70
0
  0
APPID
  5
183
330
3
100
AcDbSymbolTableRecord
100
AcDbRegAppTableRecord
  2
EZDXF
 70
0
  0
ENDTAB
  0
TABLE
  2
DIMSTYLE
  5
4
330
0
100
AcDbSymbolTable
 70
1
100
AcDbDimStyleTable
  0
DIMSTYLE
105
2B
330
4
100
AcDbSymbolTableRecord
100
AcDbDimStyleTableRecord
  2
Standard
 70
0
 40
1.0
 41
2.5
 42
0.625
 43
3.75
 44
1.25
 45
0.0
 46
0.0
 47
0.0
 48
0.0
 49
2.5
140
2.5
141
2.5
142
0.0
143
0.03937007874
144
1.0
145
0.0
146
1.0
147
0.625
148
0.0
 69
0
 70
0
 71
0
 72
0
 73
0
 74
0
 75
0
 76
0
 77
1
 78
8
 79
3
170
0
171
3
172
1
173
0
174
0
175
0
176
0
177
0
178
0
179
2
271
2
272
2
273
2
274
3
275
0
276
0
277
2
278
44
279
0
280
0
281
0
282
0
283
0
284
8
285
0
286
0
288
0
289
3
290
0
371
-2
372
-2
  0
ENDTAB
  0
TABLE
  2
BLOCK_RECORD
  5
9
330
0
100
AcDbSymbolTable
 70
2
  0
BLOCK_RECORD
  5
17
330
9
100
AcDbSymbolTableRecord
100
AcDbBlockTableRecord
  2
*Model_Space
340
1A
 70
0
280
1
281
0
  0
BLOCK_RECORD
  5
1B
330
9
100
AcDbSymbolTableRecord
100
AcDbBlockTableRecord
  2
*Paper_Space
340
1E
 70
0
280
1
281
0
  0
ENDTAB
  0
ENDSEC
  0
SECTION
  2
BLOCKS
  0
BLOCK
  5
18
330
17
100
AcDbEntity
  8
0
100
AcDbBlockBegin
  2
*Model_Space
 70
0
 10
0.0
 20
0.0
 30
0.0
  3
*Model_Space
  1

  0
ENDBLK
  5
19
330
17
100
AcDbEntity
  8
0
100
AcDbBlockEnd
  0
BLOCK
  5
1C
330
1B
100
AcDbEntity
  8
0
100
AcDbBlockBegin
  2
*Paper_Space
 70
0
 10
0.0
 20
0.0
 30
0.0
  3
*Paper_Space
  1

  0
ENDBLK
  5
1D
330
1B
100
AcDbEntity
  8
0
100
AcDbBlockEnd
  0
ENDSEC
  0
SECTION
  2
ENTITIES
  0
LINE
  5
3D
330
17
100
AcDbEntity
  8
Defpoints
 62
7
370
25
100
AcDbLine
 10
3136.267144554004
 20
4658.365869424248
 30
0.0
 11
3136.267144554004
 21
4783.365869424248
 31
0.0
  0
LINE
  5
3E
330
17
100
AcDbEntity
  8
SARR_2.2x7
 62
7
370
25
100
AcDbLine
 10
3328.952373290033
 20
4692.486881059901
 30
0.0
 11
3328.952373290029
 21
4732.486881059901
 31
0.0
  0
LINE
  5
3F
330
17
100
AcDbEntity
  8
Painéis
 62
7
370
25
100
AcDbLine
 10
3321.952373290027
 20
4732.486881059901
 30
0.0
 11
3549.952373290029
 21
4732.486881059926
 31
0.0
  0
LINE
  5
40
330
17
100
AcDbEntity
  8
Painéis
 62
7
370
25
100
AcDbLine
 10
3321.952373290033
 20
4692.486881059901
 30
0.0
 11
3549.952373290033
 21
4692.486881059926
 31
0.0
  0
LINE
  5
41
330
17
100
AcDbEntity
  8
Painéis
 62
7
370
25
100
AcDbLine
 10
3443.952373290033
 20
4692.486881059916
 30
0.0
 11
3443.952373290029
 21
4732.486881059915
 31
0.0
  0
LINE
  5
42
330
17
100
AcDbEntity
  8
Painéis
 62
7
370
25
100
AcDbLine
 10
3549.952373290033
 20
4692.486881059926
 30
0.0
 11
3549.952373290029
 21
4732.486881059926
 31
0.0
  0
LINE
  5
43
330
17
100
AcDbEntity
  8
Painéis
 62
7
370
25
100
AcDbLine
 10
3321.952373290033
 20
4692.486881059901
 30
0.0
 11
3321.95237329003
 21
4732.486881059901
 31
0.0
  0
LINE
  5
44
330
17
100
AcDbEntity
  8
SARR_2.2x7
 62
7
370
25
100
AcDbLine
 10
3540.952373290032
 20
4692.486881059901
 30
0.0
 11
3540.952373290036
 21
4732.486881059901
 31
0.0
  0
LINE
  5
45
330
17
100
AcDbEntity
  8
NOMENCLATURA
 62
7
370
25
100
AcDbLine
 10
3307.569988347449
 20
4717.452809736388
 30
0.0
 11
3350.334758232614
 21
4717.452809736388
 31
0.0
  0
LINE
  5
46
330
17
100
AcDbEntity
  8
NOMENCLATURA
 62
7
370
25
100
AcDbLine
 10
3345.334758232613
 20
4722.430431625286
 30
0.0
 11
3345.334758232613
 21
4712.475187847486
 31
0.0
  0
LINE
  5
47
330
17
100
AcDbEntity
  8
NOMENCLATURA
 62
7
370
25
100
AcDbLine
 10
3312.569988347448
 20
4722.430431625286
 30
0.0
 11
3312.569988347448
 21
4712.475187847486
 31
0.0
  0
LINE
  5
48
330
17
100
AcDbEntity
  8
SARR_2.2x7
 62
7
370
25
100
AcDbLine
 10
3540.952373290032
 20
4725.486881059899
 30
0.0
 11
3443.952373290029
 21
4725.486881059901
 31
0.0
  0
LINE
  5
49
330
17
100
AcDbEntity
  8
SARR_2.2x7
 62
7
370
25
100
AcDbLine
 10
3540.952373290036
 20
4699.486881059904
 30
0.0
 11
3443.952373290033
 21
4699.486881059903
 31
0.0
  0
LINE
  5
4A
330
17
100
AcDbEntity
  8
SARR_2.2x7
 62
7
370
25
100
AcDbLine
 10
3443.952373290029
 20
4725.486881059913
 30
0.0
 11
3328.952373290029
 21
4725.486881059919
 31
0.0
  0
LINE
  5
4B
330
17
100
AcDbEntity
  8
SARR_2.2x7
 62
7
370
25
100
AcDbLine
 10
3443.952373290033
 20
4699.486881059919
 30
0.0
 11
3328.952373290033
 21
4699.486881059914
 31
0.0
  0
LINE
  5
4C
330
17
100
AcDbEntity
  8
COTA
 62
7
370
25
100
AcDbLine
 10
3321.952373290027
 20
4732.486881059901
 30
0.0
 11
3321.952373290027
 21
4744.486881059901
 31
0.0
  0
LINE
  5
4D
330
17
100
AcDbEntity
  8
COTA
 62
7
370
25
100
AcDbLine
 10
3549.952373290027
 20
4744.486881059901
 30
0.0
 11
3549.952373290029
 21
4732.486881059926
 31
0.0
  0
LINE
  5
4E
330
17
100
AcDbEntity
  8
Painéis
 62
7
370
25
100
AcDbLine
 10
3547.952373290033
 20
4692.486881059926
 30
0.0
 11
3547.952373290029
 21
4732.486881059926
 31
0.0
  0
LINE
  5
4F
330
17
100
AcDbEntity
  8
NOMENCLATURA
 62
7
370
25
100
AcDbLine
 10
3620.95983261656
 20
4622.165975865185
 30
0.0
 11
3560.150374645286
 21
4622.165975865185
 31
0.0
  0
LINE
  5
50
330
17
100
AcDbEntity
  8
NOMENCLATURA
 62
7
370
25
100
AcDbLine
 10
3560.150374645286
 20
4622.165975865185
 30
0.0
 11
3560.150374645286
 21
4672.552711696525
 31
0.0
  0
LINE
  5
51
330
17
100
AcDbEntity
  8
SARR_2.2x7
 62
7
370
25
100
AcDbLine
 10
4040.157833971813
 20
4692.486881059901
 30
0.0
 11
4040.157833971816
 21
4732.486881059901
 31
0.0
  0
LINE
  5
52
330
17
100
AcDbEntity
  8
Painéis
 62
7
370
25
100
AcDbLine
 10
4049.157833971817
 20
4732.486881059901
 30
0.0
 11
3631.157833971816
 21
4732.486881059926
 31
0.0
  0
LINE
  5
53
330
17
100
AcDbEntity
  8
Painéis
 62
7
370
25
100
AcDbLine
 10
4049.157833971812
 20
4692.486881059901
 30
0.0
 11
3631.157833971812
 21
4692.486881059926
 31
0.0
  0
LINE
  5
54
330
17
100
AcDbEntity
  8
Painéis
 62
7
370
25
100
AcDbLine
 10
3803.157833971813
 20
4692.486881059916
 30
0.0
 11
3803.157833971816
 21
4732.486881059915
 31
0.0
  0
LINE
  5
55
330
17
100
AcDbEntity
  8
Painéis
 62
7
370
25
100
AcDbLine
 10
3631.157833971812
 20
4692.486881059926
 30
0.0
 11
3631.157833971816
 21
4732.486881059926
 31
0.0
  0
LINE
  5
56
330
17
100
AcDbEntity
  8
Painéis
 62
7
370
25
100
AcDbLine
 10
4049.157833971812
 20
4692.486881059901
 30
0.0
 11
4049.157833971816
 21
4732.486881059901
 31
0.0
  0
LINE
  5
57
330
17
100
AcDbEntity
  8
SARR_2.2x7
 62
7
370
25
100
AcDbLine
 10
3640.157833971813
 20
4692.486881059901
 30
0.0
 11
3640.157833971809
 21
4732.486881059901
 31
0.0
  0
LINE
  5
58
330
17
100
AcDbEntity
  8
SARR_2.2x7
 62
7
370
25
100
AcDbLine
 10
3640.157833971813
 20
4725.486881059899
 30
0.0
 11
3803.157833971816
 21
4725.486881059901
 31
0.0
  0
LINE
  5
59
330
17
100
AcDbEntity
  8
SARR_2.2x7
 62
7
370
25
100
AcDbLine
 10
3640.157833971809
 20
4699.486881059904
 30
0.0
 11
3803.157833971813
 21
4699.486881059903
 31
0.0
  0
LINE
  5
5A
330
17
100
AcDbEntity
  8
SARR_2.2x7
 62
7
370
25
100
AcDbLine
 10
3803.157833971816
 20
4725.486881059913
 30
0.0
 11
4040.157833971816
 21
4725.486881059919
 31
0.0
  0
LINE
  5
5B
330
17
100
AcDbEntity
  8
SARR_2.2x7
 62
7
370
25
100
AcDbLine
 10
3803.157833971813
 20
4699.486881059919
 30
0.0
 11
4040.157833971813
 21
4699.486881059914
 31
0.0
  0
LINE
  5
5C
330
17
100
AcDbEntity
  8
COTA
 62
7
370
25
100
AcDbLine
 10
4049.157833971817
 20
4732.486881059901
 30
0.0
 11
4049.157833971817
 21
4744.486881059901
 31
0.0
  0
LINE
  5
5D
330
17
100
AcDbEntity
  8
COTA
 62
7
370
25
100
AcDbLine
 10
3631.157833971818
 20
4744.486881059901
 30
0.0
 11
3631.157833971816
 21
4732.486881059926
 31
0.0
  0
LINE
  5
5E
330
17
100
AcDbEntity
  8
Painéis
 62
7
370
25
100
AcDbLine
 10
3633.157833971813
 20
4692.486881059926
 30
0.0
 11
3633.157833971817
 21
4732.486881059926
 31
0.0
  0
LINE
  5
5F
330
17
100
AcDbEntity
  8
NOMENCLATURA
 62
7
370
25
100
AcDbLine
 10
3620.95983261656
 20
4622.165975865185
 30
0.0
 11
3620.95983261656
 21
4672.552711696525
 31
0.0
  0
LINE
  5
60
330
17
100
AcDbEntity
  8
Painéis
 62
7
370
25
100
AcDbLine
 10
4047.157833971812
 20
4692.486881059901
 30
0.0
 11
4047.157833971816
 21
4732.486881059901
 31
0.0
  0
LINE
  5
61
330
17
100
AcDbEntity
  8
NOMENCLATURA
 62
7
370
25
100
AcDbLine
 10
4119.213745192467
 20
4622.16597586507
 30
0.0
 11
4059.35583532707
 21
4622.16597586507
 31
0.0
  0
LINE
  5
62
330
17
100
AcDbEntity
  8
NOMENCLATURA
 62
7
370
25
100
AcDbLine
 10
4059.35583532707
 20
4622.16597586507
 30
0.0
 11
4059.35583532707
 21
4672.55271169641
 31
0.0
  0
LINE
  5
63
330
17
100
AcDbEntity
  8
Painéis
 62
7
370
25
100
AcDbLine
 10
3112.551205950278
 20
4425.388373623344
 30
0.0
 11
3042.696187834196
 21
4425.388373623344
 31
0.0
  0
LINE
  5
64
330
17
100
AcDbEntity
  8
Painéis
 62
7
370
25
100
AcDbLine
 10
3112.551205950278
 20
4421.788373623353
 30
0.0
 11
3042.712349610809
 21
4421.788373623342
 31
0.0
  0
LINE
  5
65
330
17
100
AcDbEntity
  8
SARR_2.2x7
 62
7
370
25
100
AcDbLine
 10
3631.157833971818
 20
4747.986881059887
 30
0.0
 11
3805.128726492821
 21
4747.986881059903
 31
0.0
  0
LINE
  5
66
330
17
100
AcDbEntity
  8
SARR_2.2x7
 62
7
370
25
100
AcDbLine
 10
3805.128726492821
 20
4747.986881059903
 30
0.0
 11
4049.157833971817
 21
4747.9868810599
 31
0.0
  0
LINE
  5
67
330
17
100
AcDbEntity
  8
Painéis
 62
7
370
25
100
AcDbLine
 10
3805.128726492821
 20
4744.486881059908
 30
0.0
 11
3805.128726492821
 21
4751.486881059908
 31
0.0
  0
LINE
  5
68
330
17
100
AcDbEntity
  8
SARR_2.2x7
 62
7
370
25
100
AcDbLine
 10
3321.952373290027
 20
4747.986881059888
 30
0.0
 11
3443.952373290029
 21
4747.986881059896
 31
0.0
  0
LINE
  5
69
330
17
100
AcDbEntity
  8
SARR_2.2x7
 62
7
370
25
100
AcDbLine
 10
3443.952373290029
 20
4747.986881059896
 30
0.0
 11
3549.952373290027
 21
4747.986881059905
 31
0.0
  0
LINE
  5
6A
330
17
100
AcDbEntity
  8
Painéis
 62
7
370
25
100
AcDbLine
 10
3443.952373290029
 20
4744.486881059901
 30
0.0
 11
3443.952373290029
 21
4751.486881059901
 31
0.0
  0
LINE
  5
6B
330
17
100
AcDbEntity
  8
NOMENCLATURA
 62
7
370
25
100
AcDbLine
 10
3309.09716863416
 20
4436.177908612238
 30
0.0
 11
3248.211579234745
 21
4436.177908612238
 31
0.0
  0
LINE
  5
6C
330
17
100
AcDbEntity
  8
SARR_2.2x7
 62
7
370
25
100
AcDbLine
 10
3728.295169989413
 20
4506.498813806953
 30
0.0
 11
3728.295169989416
 21
4546.498813806953
 31
0.0
  0
LINE
  5
6D
330
17
100
AcDbEntity
  8
Painéis
 62
7
370
25
100
AcDbLine
 10
3737.295169989419
 20
4546.498813806953
 30
0.0
 11
3319.295169989417
 21
4546.498813806979
 31
0.0
  0
LINE
  5
6E
330
17
100
AcDbEntity
  8
Painéis
 62
7
370
25
100
AcDbLine
 10
3737.295169989413
 20
4506.498813806953
 30
0.0
 11
3319.295169989413
 21
4506.498813806979
 31
0.0
  0
LINE
  5
6F
330
17
100
AcDbEntity
  8
Painéis
 62
7
370
25
100
AcDbLine
 10
3491.295169989413
 20
4506.498813806969
 30
0.0
 11
3491.295169989417
 21
4546.498813806969
 31
0.0
  0
LINE
  5
70
330
17
100
AcDbEntity
  8
Painéis
 62
7
370
25
100
AcDbLine
 10
3319.295169989413
 20
4506.498813806979
 30
0.0
 11
3319.295169989417
 21
4546.498813806979
 31
0.0
  0
LINE
  5
71
330
17
100
AcDbEntity
  8
Painéis
 62
7
370
25
100
AcDbLine
 10
3737.295169989413
 20
4506.498813806953
 30
0.0
 11
3737.295169989417
 21
4546.498813806953
 31
0.0
  0
LINE
  5
72
330
17
100
AcDbEntity
  8
SARR_2.2x7
 62
7
370
25
100
AcDbLine
 10
3328.295169989413
 20
4506.498813806953
 30
0.0
 11
3328.295169989409
 21
4546.498813806953
 31
0.0
  0
LINE
  5
73
330
17
100
AcDbEntity
  8
SARR_2.2x7
 62
7
370
25
100
AcDbLine
 10
3328.295169989413
 20
4539.498813806952
 30
0.0
 11
3491.295169989417
 21
4539.498813806954
 31
0.0
  0
LINE
  5
74
330
17
100
AcDbEntity
  8
SARR_2.2x7
 62
7
370
25
100
AcDbLine
 10
3328.295169989409
 20
4513.498813806957
 30
0.0
 11
3491.295169989413
 21
4513.498813806956
 31
0.0
  0
LINE
  5
75
330
17
100
AcDbEntity
  8
SARR_2.2x7
 62
7
370
25
100
AcDbLine
 10
3491.295169989417
 20
4539.498813806966
 30
0.0
 11
3728.295169989416
 21
4539.498813806972
 31
0.0
  0
LINE
  5
76
330
17
100
AcDbEntity
  8
SARR_2.2x7
 62
7
370
25
100
AcDbLine
 10
3491.295169989413
 20
4513.498813806972
 30
0.0
 11
3728.295169989413
 21
4513.498813806966
 31
0.0
  0
LINE
  5
77
330
17
100
AcDbEntity
  8
COTA
 62
7
370
25
100
AcDbLine
 10
3737.295169989419
 20
4546.498813806953
 30
0.0
 11
3737.295169989419
 21
4558.498813806954
 31
0.0
  0
LINE
  5
78
330
17
100
AcDbEntity
  8
COTA
 62
7
370
25
100
AcDbLine
 10
3319.295169989418
 20
4558.498813806954
 30
0.0
 11
3319.295169989417
 21
4546.498813806979
 31
0.0
  0
LINE
  5
79
330
17
100
AcDbEntity
  8
Painéis
 62
7
370
25
100
AcDbLine
 10
3321.295169989413
 20
4506.498813806979
 30
0.0
 11
3321.295169989416
 21
4546.498813806979
 31
0.0
  0
LINE
  5
7A
330
17
100
AcDbEntity
  8
NOMENCLATURA
 62
7
370
25
100
AcDbLine
 10
3309.09716863416
 20
4436.177908612238
 30
0.0
 11
3309.09716863416
 21
4486.564644443578
 31
0.0
  0
LINE
  5
7B
330
17
100
AcDbEntity
  8
Painéis
 62
7
370
25
100
AcDbLine
 10
3735.295169989413
 20
4506.498813806953
 30
0.0
 11
3735.295169989417
 21
4546.498813806953
 31
0.0
  0
LINE
  5
7C
330
17
100
AcDbEntity
  8
NOMENCLATURA
 62
7
370
25
100
AcDbLine
 10
3818.349286270768
 20
4436.177908612123
 30
0.0
 11
3747.493171344672
 21
4436.177908612123
 31
0.0
  0
LINE
  5
7D
330
17
100
AcDbEntity
  8
NOMENCLATURA
 62
7
370
25
100
AcDbLine
 10
3747.493171344672
 20
4436.177908612123
 30
0.0
 11
3747.493171344672
 21
4486.564644443463
 31
0.0
  0
LINE
  5
7E
330
17
100
AcDbEntity
  8
SARR_2.2x7
 62
7
370
25
100
AcDbLine
 10
3319.295169989418
 20
4561.99881380694
 30
0.0
 11
3493.266062510422
 21
4561.998813806956
 31
0.0
  0
LINE
  5
7F
330
17
100
AcDbEntity
  8
SARR_2.2x7
 62
7
370
25
100
AcDbLine
 10
3493.266062510422
 20
4561.998813806956
 30
0.0
 11
3737.295169989419
 21
4561.998813806954
 31
0.0
  0
LINE
  5
80
330
17
100
AcDbEntity
  8
Painéis
 62
7
370
25
100
AcDbLine
 10
3493.266062510422
 20
4558.498813806961
 30
0.0
 11
3493.266062510422
 21
4565.498813806961
 31
0.0
  0
LINE
  5
81
330
17
100
AcDbEntity
  8
NOMENCLATURA
 62
7
370
25
100
AcDbLine
 10
4256.745288981279
 20
4436.177908612238
 30
0.0
 11
4324.982802703554
 21
4436.177908612238
 31
0.0
  0
LINE
  5
82
330
17
100
AcDbEntity
  8
SARR_2.2x7
 62
7
370
25
100
AcDbLine
 10
3837.547287626027
 20
4506.498813806953
 30
0.0
 11
3837.547287626023
 21
4546.498813806953
 31
0.0
  0
LINE
  5
83
330
17
100
AcDbEntity
  8
Painéis
 62
7
370
25
100
AcDbLine
 10
3828.547287626021
 20
4546.498813806953
 30
0.0
 11
4246.547287626023
 21
4546.498813806979
 31
0.0
  0
LINE
  5
84
330
17
100
AcDbEntity
  8
Painéis
 62
7
370
25
100
AcDbLine
 10
3828.547287626026
 20
4506.498813806953
 30
0.0
 11
4246.547287626026
 21
4506.498813806979
 31
0.0
  0
LINE
  5
85
330
17
100
AcDbEntity
  8
Painéis
 62
7
370
25
100
AcDbLine
 10
4074.547287626026
 20
4506.498813806969
 30
0.0
 11
4074.547287626023
 21
4546.498813806969
 31
0.0
  0
LINE
  5
86
330
17
100
AcDbEntity
  8
Painéis
 62
7
370
25
100
AcDbLine
 10
4246.547287626026
 20
4506.498813806979
 30
0.0
 11
4246.547287626023
 21
4546.498813806979
 31
0.0
  0
LINE
  5
87
330
17
100
AcDbEntity
  8
Painéis
 62
7
370
25
100
AcDbLine
 10
3828.547287626026
 20
4506.498813806953
 30
0.0
 11
3828.547287626023
 21
4546.498813806953
 31
0.0
  0
LINE
  5
88
330
17
100
AcDbEntity
  8
SARR_2.2x7
 62
7
370
25
100
AcDbLine
 10
4237.547287626027
 20
4506.498813806953
 30
0.0
 11
4237.54728762603
 21
4546.498813806953
 31
0.0
  0
LINE
  5
89
330
17
100
AcDbEntity
  8
SARR_2.2x7
 62
7
370
25
100
AcDbLine
 10
4237.547287626027
 20
4539.498813806952
 30
0.0
 11
4074.547287626023
 21
4539.498813806954
 31
0.0
  0
LINE
  5
8A
330
17
100
AcDbEntity
  8
SARR_2.2x7
 62
7
370
25
100
AcDbLine
 10
4237.54728762603
 20
4513.498813806957
 30
0.0
 11
4074.547287626026
 21
4513.498813806956
 31
0.0
  0
LINE
  5
8B
330
17
100
AcDbEntity
  8
SARR_2.2x7
 62
7
370
25
100
AcDbLine
 10
4074.547287626023
 20
4539.498813806966
 30
0.0
 11
3837.547287626023
 21
4539.498813806972
 31
0.0
  0
LINE
  5
8C
330
17
100
AcDbEntity
  8
SARR_2.2x7
 62
7
370
25
100
AcDbLine
 10
4074.547287626026
 20
4513.498813806972
 30
0.0
 11
3837.547287626027
 21
4513.498813806966
 31
0.0
  0
LINE
  5
8D
330
17
100
AcDbEntity
  8
COTA
 62
7
370
25
100
AcDbLine
 10
3828.547287626021
 20
4546.498813806953
 30
0.0
 11
3828.547287626021
 21
4558.498813806954
 31
0.0
  0
LINE
  5
8E
330
17
100
AcDbEntity
  8
COTA
 62
7
370
25
100
AcDbLine
 10
4246.547287626021
 20
4558.498813806954
 30
0.0
 11
4246.547287626023
 21
4546.498813806979
 31
0.0
  0
LINE
  5
8F
330
17
100
AcDbEntity
  8
Painéis
 62
7
370
25
100
AcDbLine
 10
4244.547287626026
 20
4506.498813806979
 30
0.0
 11
4244.547287626022
 21
4546.498813806979
 31
0.0
  0
LINE
  5
90
330
17
100
AcDbEntity
  8
NOMENCLATURA
 62
7
370
25
100
AcDbLine
 10
4324.982802703554
 20
4436.177908612238
 30
0.0
 11
4256.745288981279
 21
4436.177908612238
 31
0.0
  0
LINE
  5
91
330
17
100
AcDbEntity
  8
NOMENCLATURA
 62
7
370
25
100
AcDbLine
 10
4256.745288981279
 20
4436.177908612238
 30
0.0
 11
4256.745288981279
 21
4486.564644443578
 31
0.0
  0
LINE
  5
92
330
17
100
AcDbEntity
  8
Painéis
 62
7
370
25
100
AcDbLine
 10
3830.547287626027
 20
4506.498813806953
 30
0.0
 11
3830.547287626023
 21
4546.498813806953
 31
0.0
  0
LINE
  5
93
330
17
100
AcDbEntity
  8
NOMENCLATURA
 62
7
370
25
100
AcDbLine
 10
3818.349286270768
 20
4436.177908612123
 30
0.0
 11
3818.349286270768
 21
4486.564644443463
 31
0.0
  0
LINE
  5
94
330
17
100
AcDbEntity
  8
SARR_2.2x7
 62
7
370
25
100
AcDbLine
 10
4246.547287626021
 20
4561.99881380694
 30
0.0
 11
4072.576395105017
 21
4561.998813806956
 31
0.0
  0
LINE
  5
95
330
17
100
AcDbEntity
  8
SARR_2.2x7
 62
7
370
25
100
AcDbLine
 10
4072.576395105017
 20
4561.998813806956
 30
0.0
 11
3828.547287626021
 21
4561.998813806954
 31
0.0
  0
LINE
  5
96
330
17
100
AcDbEntity
  8
Painéis
 62
7
370
25
100
AcDbLine
 10
4072.576395105017
 20
4558.498813806961
 30
0.0
 11
4072.576395105017
 21
4565.498813806961
 31
0.0
  0
LINE
  5
97
330
17
100
AcDbEntity
  8
NOMENCLATURA
 62
7
370
25
100
AcDbLine
 10
3819.218885821542
 20
4234.810992398309
 30
0.0
 11
3748.993046043695
 21
4234.810992398309
 31
0.0
  0
LINE
  5
98
330
17
100
AcDbEntity
  8
SARR_2.2x7
 62
7
370
25
100
AcDbLine
 10
3838.4168871768
 20
4305.13189759314
 30
0.0
 11
3838.416887176796
 21
4345.13189759314
 31
0.0
  0
LINE
  5
99
330
17
100
AcDbEntity
  8
Painéis
 62
7
370
25
100
AcDbLine
 10
3829.416887176794
 20
4345.13189759314
 30
0.0
 11
4243.416887176795
 21
4345.131897593165
 31
0.0
  0
LINE
  5
9A
330
17
100
AcDbEntity
  8
Painéis
 62
7
370
25
100
AcDbLine
 10
3829.4168871768
 20
4305.13189759314
 30
0.0
 11
4243.4168871768
 21
4305.131897593166
 31
0.0
  0
LINE
  5
9B
330
17
100
AcDbEntity
  8
Painéis
 62
7
370
25
100
AcDbLine
 10
4075.416887176799
 20
4305.131897593154
 30
0.0
 11
4075.416887176795
 21
4345.131897593154
 31
0.0
  0
LINE
  5
9C
330
17
100
AcDbEntity
  8
Painéis
 62
7
370
25
100
AcDbLine
 10
4243.4168871768
 20
4305.131897593166
 30
0.0
 11
4243.416887176795
 21
4345.131897593165
 31
0.0
  0
LINE
  5
9D
330
17
100
AcDbEntity
  8
Painéis
 62
7
370
25
100
AcDbLine
 10
3829.4168871768
 20
4305.13189759314
 30
0.0
 11
3829.416887176796
 21
4345.13189759314
 31
0.0
  0
LINE
  5
9E
330
17
100
AcDbEntity
  8
SARR_2.2x7
 62
7
370
25
100
AcDbLine
 10
4236.4168871768
 20
4305.13189759314
 30
0.0
 11
4236.416887176804
 21
4345.13189759314
 31
0.0
  0
LINE
  5
9F
330
17
100
AcDbEntity
  8
SARR_2.2x7
 62
7
370
25
100
AcDbLine
 10
4236.4168871768
 20
4338.131897593138
 30
0.0
 11
4075.416887176795
 21
4338.131897593139
 31
0.0
  0
LINE
  5
A0
330
17
100
AcDbEntity
  8
SARR_2.2x7
 62
7
370
25
100
AcDbLine
 10
4236.416887176804
 20
4312.131897593143
 30
0.0
 11
4075.416887176799
 21
4312.131897593141
 31
0.0
  0
LINE
  5
A1
330
17
100
AcDbEntity
  8
SARR_2.2x7
 62
7
370
25
100
AcDbLine
 10
4075.416887176795
 20
4338.131897593153
 30
0.0
 11
3838.416887176796
 21
4338.131897593158
 31
0.0
  0
LINE
  5
A2
330
17
100
AcDbEntity
  8
SARR_2.2x7
 62
7
370
25
100
AcDbLine
 10
4075.416887176799
 20
4312.131897593157
 30
0.0
 11
3838.4168871768
 21
4312.131897593153
 31
0.0
  0
LINE
  5
A3
330
17
100
AcDbEntity
  8
COTA
 62
7
370
25
100
AcDbLine
 10
3829.416887176794
 20
4345.13189759314
 30
0.0
 11
3829.416887176794
 21
4357.13189759314
 31
0.0
  0
LINE
  5
A4
330
17
100
AcDbEntity
  8
COTA
 62
7
370
25
100
AcDbLine
 10
4243.416887176794
 20
4357.13189759314
 30
0.0
 11
4243.416887176795
 21
4345.131897593165
 31
0.0
  0
LINE
  5
A5
330
17
100
AcDbEntity
  8
Painéis
 62
7
370
25
100
AcDbLine
 10
3831.4168871768
 20
4305.13189759314
 30
0.0
 11
3831.416887176796
 21
4345.13189759314
 31
0.0
  0
LINE
  5
A6
330
17
100
AcDbEntity
  8
NOMENCLATURA
 62
7
370
25
100
AcDbLine
 10
3819.218885821542
 20
4234.810992398309
 30
0.0
 11
3819.218885821542
 21
4285.19772822965
 31
0.0
  0
LINE
  5
A7
330
17
100
AcDbEntity
  8
SARR_2.2x7
 62
7
370
25
100
AcDbLine
 10
4243.416887176794
 20
4360.631897593126
 30
0.0
 11
4073.445994655791
 21
4360.631897593141
 31
0.0
  0
LINE
  5
A8
330
17
100
AcDbEntity
  8
SARR_2.2x7
 62
7
370
25
100
AcDbLine
 10
4073.445994655791
 20
4360.631897593141
 30
0.0
 11
3829.416887176794
 21
4360.631897593139
 31
0.0
  0
LINE
  5
A9
330
17
100
AcDbEntity
  8
Painéis
 62
7
370
25
100
AcDbLine
 10
4073.445994655791
 20
4357.131897593148
 30
0.0
 11
4073.445994655791
 21
4364.131897593147
 31
0.0
  0
LINE
  5
AA
330
17
100
AcDbEntity
  8
SARR_2.2x7
 62
7
370
25
100
AcDbLine
 10
3522.90826111782
 20
4155.063841445434
 30
0.0
 11
3759.953401877007
 21
4155.063841445453
 31
0.0
  0
LINE
  5
AB
330
17
100
AcDbEntity
  8
SARR_2.2x7
 62
7
370
25
100
AcDbLine
 10
3759.953401877007
 20
4155.063841445453
 30
0.0
 11
3926.998542636196
 21
4155.063841445189
 31
0.0
  0
LINE
  5
AC
330
17
100
AcDbEntity
  8
Painéis
 62
7
370
25
100
AcDbLine
 10
3515.953401877003
 20
4162.063841445341
 30
0.0
 11
3933.953401877005
 21
4162.063841445367
 31
0.0
  0
LINE
  5
AD
330
17
100
AcDbEntity
  8
Painéis
 62
7
370
25
100
AcDbLine
 10
3515.953401877008
 20
4118.063841445342
 30
0.0
 11
3933.953401877008
 21
4118.063841445366
 31
0.0
  0
LINE
  5
AE
330
17
100
AcDbEntity
  8
Painéis
 62
7
370
25
100
AcDbLine
 10
3933.953401877008
 20
4118.063841445366
 30
0.0
 11
3933.953401877005
 21
4162.063841445367
 31
0.0
  0
LINE
  5
AF
330
17
100
AcDbEntity
  8
Painéis
 62
7
370
25
100
AcDbLine
 10
3515.953401877008
 20
4118.063841445342
 30
0.0
 11
3515.953401877005
 21
4162.063841445341
 31
0.0
  0
LINE
  5
B0
330
17
100
AcDbEntity
  8
SARR_2.2x7
 62
7
370
25
100
AcDbLine
 10
3522.908261117823
 20
4118.063841445337
 30
0.0
 11
3522.90826111782
 21
4162.063841445341
 31
0.0
  0
LINE
  5
B1
330
17
100
AcDbEntity
  8
SARR_2.2x7
 62
7
370
25
100
AcDbLine
 10
3926.998542636193
 20
4118.063841445363
 30
0.0
 11
3926.998542636196
 21
4162.063841445341
 31
0.0
  0
LINE
  5
B2
330
17
100
AcDbEntity
  8
Painéis
 62
7
370
25
100
AcDbLine
 10
3759.953401877009
 20
4118.063841445356
 30
0.0
 11
3759.953401877004
 21
4162.063841445355
 31
0.0
  0
LINE
  5
B3
330
17
100
AcDbEntity
  8
COTA
 62
7
370
25
100
AcDbLine
 10
3515.953401877003
 20
4162.063841445341
 30
0.0
 11
3515.953401877003
 21
4177.063841445341
 31
0.0
  0
LINE
  5
B4
330
17
100
AcDbEntity
  8
COTA
 62
7
370
25
100
AcDbLine
 10
3933.953401877003
 20
4177.063841445341
 30
0.0
 11
3933.953401877003
 21
4162.063841445367
 31
0.0
  0
LINE
  5
B5
330
17
100
AcDbEntity
  8
SARR_2.2x7
 62
7
370
25
100
AcDbLine
 10
3522.90826111782
 20
4125.06384144527
 30
0.0
 11
3759.953401877007
 21
4125.063841445252
 31
0.0
  0
LINE
  5
B6
330
17
100
AcDbEntity
  8
SARR_2.2x7
 62
7
370
25
100
AcDbLine
 10
3759.953401877007
 20
4125.063841445252
 30
0.0
 11
3926.998542636196
 21
4125.063841445515
 31
0.0
  0
LINE
  5
B7
330
17
100
AcDbEntity
  8
SARR_2.2x7
 62
7
370
25
100
AcDbLine
 10
3067.690493013532
 20
4150.063841445434
 30
0.0
 11
3304.735633772718
 21
4150.063841445453
 31
0.0
  0
LINE
  5
B8
330
17
100
AcDbEntity
  8
SARR_2.2x7
 62
7
370
25
100
AcDbLine
 10
3304.735633772718
 20
4150.063841445453
 30
0.0
 11
3471.780774531908
 21
4150.063841445188
 31
0.0
  0
LINE
  5
B9
330
17
100
AcDbEntity
  8
Painéis
 62
7
370
25
100
AcDbLine
 10
3060.735633772714
 20
4157.063841445341
 30
0.0
 11
3478.735633772716
 21
4157.063841445366
 31
0.0
  0
LINE
  5
BA
330
17
100
AcDbEntity
  8
Painéis
 62
7
370
25
100
AcDbLine
 10
3060.73563377272
 20
4113.063841445341
 30
0.0
 11
3478.73563377272
 21
4113.063841445367
 31
0.0
  0
LINE
  5
BB
330
17
100
AcDbEntity
  8
Painéis
 62
7
370
25
100
AcDbLine
 10
3478.73563377272
 20
4113.063841445367
 30
0.0
 11
3478.735633772716
 21
4157.063841445366
 31
0.0
  0
LINE
  5
BC
330
17
100
AcDbEntity
  8
Painéis
 62
7
370
25
100
AcDbLine
 10
3060.73563377272
 20
4113.063841445341
 30
0.0
 11
3060.735633772716
 21
4157.063841445341
 31
0.0
  0
LINE
  5
BD
330
17
100
AcDbEntity
  8
SARR_2.2x7
 62
7
370
25
100
AcDbLine
 10
3067.690493013535
 20
4113.063841445337
 30
0.0
 11
3067.690493013532
 21
4157.063841445341
 31
0.0
  0
LINE
  5
BE
330
17
100
AcDbEntity
  8
SARR_2.2x7
 62
7
370
25
100
AcDbLine
 10
3471.780774531904
 20
4113.063841445363
 30
0.0
 11
3471.780774531908
 21
4157.063841445341
 31
0.0
  0
LINE
  5
BF
330
17
100
AcDbEntity
  8
Painéis
 62
7
370
25
100
AcDbLine
 10
3304.73563377272
 20
4113.063841445356
 30
0.0
 11
3304.735633772716
 21
4157.063841445356
 31
0.0
  0
LINE
  5
C0
330
17
100
AcDbEntity
  8
COTA
 62
7
370
25
100
AcDbLine
 10
3060.735633772714
 20
4157.063841445341
 30
0.0
 11
3060.735633772714
 21
4172.063841445342
 31
0.0
  0
LINE
  5
C1
330
17
100
AcDbEntity
  8
COTA
 62
7
370
25
100
AcDbLine
 10
3478.735633772714
 20
4172.063841445342
 30
0.0
 11
3478.735633772714
 21
4157.063841445366
 31
0.0
  0
LINE
  5
C2
330
17
100
AcDbEntity
  8
SARR_2.2x7
 62
7
370
25
100
AcDbLine
 10
3067.690493013532
 20
4120.06384144527
 30
0.0
 11
3304.735633772718
 21
4120.063841445253
 31
0.0
  0
LINE
  5
C3
330
17
100
AcDbEntity
  8
SARR_2.2x7
 62
7
370
25
100
AcDbLine
 10
3304.735633772718
 20
4120.063841445253
 30
0.0
 11
3471.780774531908
 21
4120.063841445516
 31
0.0
  0
LINE
  5
C4
330
17
100
AcDbEntity
  8
COTA
 62
7
370
25
100
AcDbLine
 10
3478.735633772714
 20
4172.063841445342
 30
0.0
 11
3060.735633772714
 21
4172.063841445342
 31
0.0
  0
LINE
  5
C5
330
17
100
AcDbEntity
  8
COTA
 62
7
370
25
100
AcDbLine
 10
3933.953401877003
 20
4177.063841445341
 30
0.0
 11
3515.953401877003
 21
4177.063841445341
 31
0.0
  0
LINE
  5
C6
330
17
100
AcDbEntity
  8
SARR_2.2x7
 62
7
370
25
100
AcDbLine
 10
4237.138869953409
 20
4118.063841445314
 30
0.0
 11
4237.138869953413
 21
4161.063841445314
 31
0.0
  0
LINE
  5
C7
330
17
100
AcDbEntity
  8
Painéis
 62
7
370
25
100
AcDbLine
 10
4244.138869953414
 20
4161.063841445314
 30
0.0
 11
3997.638869953413
 21
4161.063841445339
 31
0.0
  0
LINE
  5
C8
330
17
100
AcDbEntity
  8
Painéis
 62
7
370
25
100
AcDbLine
 10
4244.138869953409
 20
4118.063841445314
 30
0.0
 11
3997.638869953409
 21
4118.06384144534
 31
0.0
  0
LINE
  5
C9
330
17
100
AcDbEntity
  8
Painéis
 62
7
370
25
100
AcDbLine
 10
4122.138869953409
 20
4118.063841445329
 30
0.0
 11
4122.138869953412
 21
4161.063841445328
 31
0.0
  0
LINE
  5
CA
330
17
100
AcDbEntity
  8
Painéis
 62
7
370
25
100
AcDbLine
 10
3997.638869953409
 20
4118.06384144534
 30
0.0
 11
3997.638869953413
 21
4161.063841445339
 31
0.0
  0
LINE
  5
CB
330
17
100
AcDbEntity
  8
Painéis
 62
7
370
25
100
AcDbLine
 10
4244.138869953409
 20
4118.063841445314
 30
0.0
 11
4244.138869953412
 21
4161.063841445314
 31
0.0
  0
LINE
  5
CC
330
17
100
AcDbEntity
  8
SARR_2.2x7
 62
7
370
25
100
AcDbLine
 10
4004.638869953409
 20
4118.063841445314
 30
0.0
 11
4004.638869953406
 21
4161.063841445314
 31
0.0
  0
LINE
  5
CD
330
17
100
AcDbEntity
  8
NOMENCLATURA
 62
7
370
25
100
AcDbLine
 10
4254.001110012792
 20
4140.141837231229
 30
0.0
 11
4211.236340127626
 21
4140.141837231229
 31
0.0
  0
LINE
  5
CE
330
17
100
AcDbEntity
  8
NOMENCLATURA
 62
7
370
25
100
AcDbLine
 10
4216.236340127627
 20
4145.119459120128
 30
0.0
 11
4216.236340127627
 21
4135.164215342328
 31
0.0
  0
LINE
  5
CF
330
17
100
AcDbEntity
  8
NOMENCLATURA
 62
7
370
25
100
AcDbLine
 10
4249.001110012792
 20
4145.119459120128
 30
0.0
 11
4249.001110012792
 21
4135.164215342328
 31
0.0
  0
LINE
  5
D0
330
17
100
AcDbEntity
  8
SARR_2.2x7
 62
7
370
25
100
AcDbLine
 10
4004.638869953409
 20
4154.063841445313
 30
0.0
 11
4122.138869953412
 21
4154.063841445314
 31
0.0
  0
LINE
  5
D1
330
17
100
AcDbEntity
  8
SARR_2.2x7
 62
7
370
25
100
AcDbLine
 10
4004.638869953406
 20
4125.063841445317
 30
0.0
 11
4122.138869953409
 21
4125.063841445316
 31
0.0
  0
LINE
  5
D2
330
17
100
AcDbEntity
  8
SARR_2.2x7
 62
7
370
25
100
AcDbLine
 10
4122.138869953412
 20
4154.063841445327
 30
0.0
 11
4237.138869953413
 21
4154.063841445332
 31
0.0
  0
LINE
  5
D3
330
17
100
AcDbEntity
  8
SARR_2.2x7
 62
7
370
25
100
AcDbLine
 10
4122.138869953409
 20
4125.063841445332
 30
0.0
 11
4237.138869953409
 21
4125.063841445327
 31
0.0
  0
LINE
  5
D4
330
17
100
AcDbEntity
  8
COTA
 62
7
370
25
100
AcDbLine
 10
4244.138869953414
 20
4161.063841445314
 30
0.0
 11
4244.138869953414
 21
4177.063841445314
 31
0.0
  0
LINE
  5
D5
330
17
100
AcDbEntity
  8
COTA
 62
7
370
25
100
AcDbLine
 10
3997.638869953415
 20
4177.063841445314
 30
0.0
 11
3997.638869953413
 21
4161.063841445339
 31
0.0
  0
LINE
  5
D6
330
17
100
AcDbEntity
  8
COTA
 62
7
370
25
100
AcDbLine
 10
4244.138869953405
 20
4177.063841445339
 30
0.0
 11
3997.638869953415
 21
4177.063841445367
 31
0.0
  0
LINE
  5
D7
330
17
100
AcDbEntity
  8
SARR_2.2x7
 62
7
370
25
100
AcDbLine
 10
3328.952373290033
 20
4708.986881059916
 30
0.0
 11
3443.952373290031
 21
4708.986881059814
 31
0.0
  0
LINE
  5
D8
330
17
100
AcDbEntity
  8
SARR_2.2x7
 62
7
370
25
100
AcDbLine
 10
3328.952373290033
 20
4715.986881059613
 30
0.0
 11
3443.952373290031
 21
4715.986881059513
 31
0.0
  0
LINE
  5
D9
330
17
100
AcDbEntity
  8
SARR_2.2x7
 62
7
370
25
100
AcDbLine
 10
3443.952373290033
 20
4708.98688105993
 30
0.0
 11
3540.952373290035
 21
4708.986881059844
 31
0.0
  0
LINE
  5
DA
330
17
100
AcDbEntity
  8
SARR_2.2x7
 62
7
370
25
100
AcDbLine
 10
3443.952373290033
 20
4715.986881059627
 30
0.0
 11
3540.952373290035
 21
4715.986881059541
 31
0.0
  0
LINE
  5
DB
330
17
100
AcDbEntity
  8
SARR_2.2x7
 62
7
370
25
100
AcDbLine
 10
3640.157833971813
 20
4708.986881059916
 30
0.0
 11
3803.157833971815
 21
4708.986881059773
 31
0.0
  0
LINE
  5
DC
330
17
100
AcDbEntity
  8
SARR_2.2x7
 62
7
370
25
100
AcDbLine
 10
3640.157833971813
 20
4715.986881059613
 30
0.0
 11
3803.157833971815
 21
4715.98688105947
 31
0.0
  0
LINE
  5
DD
330
17
100
AcDbEntity
  8
SARR_2.2x7
 62
7
370
25
100
AcDbLine
 10
3803.157833971816
 20
4708.98688105993
 30
0.0
 11
4040.157833971814
 21
4708.986881059721
 31
0.0
  0
LINE
  5
DE
330
17
100
AcDbEntity
  8
SARR_2.2x7
 62
7
370
25
100
AcDbLine
 10
3803.157833971816
 20
4715.986881059627
 30
0.0
 11
4040.157833971814
 21
4715.986881059419
 31
0.0
  0
LINE
  5
DF
330
17
100
AcDbEntity
  8
SARR_2.2x7
 62
7
370
25
100
AcDbLine
 10
3328.295169989413
 20
4522.998813806968
 30
0.0
 11
3491.295169989415
 21
4522.998813806824
 31
0.0
  0
LINE
  5
E0
330
17
100
AcDbEntity
  8
SARR_2.2x7
 62
7
370
25
100
AcDbLine
 10
3328.295169989413
 20
4529.998813806666
 30
0.0
 11
3491.295169989415
 21
4529.998813806521
 31
0.0
  0
LINE
  5
E1
330
17
100
AcDbEntity
  8
SARR_2.2x7
 62
7
370
25
100
AcDbLine
 10
3491.295169989417
 20
4522.998813806982
 30
0.0
 11
3728.295169989415
 21
4522.998813806773
 31
0.0
  0
LINE
  5
E2
330
17
100
AcDbEntity
  8
SARR_2.2x7
 62
7
370
25
100
AcDbLine
 10
3491.295169989417
 20
4529.99881380668
 30
0.0
 11
3728.295169989415
 21
4529.998813806471
 31
0.0
  0
LINE
  5
E3
330
17
100
AcDbEntity
  8
SARR_2.2x7
 62
7
370
25
100
AcDbLine
 10
3837.547287626027
 20
4522.998813806968
 30
0.0
 11
4074.547287626024
 21
4522.998813806759
 31
0.0
  0
LINE
  5
E4
330
17
100
AcDbEntity
  8
SARR_2.2x7
 62
7
370
25
100
AcDbLine
 10
3837.547287626027
 20
4529.998813806666
 30
0.0
 11
4074.547287626024
 21
4529.998813806456
 31
0.0
  0
LINE
  5
E5
330
17
100
AcDbEntity
  8
SARR_2.2x7
 62
7
370
25
100
AcDbLine
 10
4074.547287626026
 20
4522.998813806982
 30
0.0
 11
4237.547287626028
 21
4522.998813806839
 31
0.0
  0
LINE
  5
E6
330
17
100
AcDbEntity
  8
SARR_2.2x7
 62
7
370
25
100
AcDbLine
 10
4074.547287626026
 20
4529.99881380668
 30
0.0
 11
4237.547287626028
 21
4529.998813806537
 31
0.0
  0
LINE
  5
E7
330
17
100
AcDbEntity
  8
SARR_2.2x7
 62
7
370
25
100
AcDbLine
 10
3838.4168871768
 20
4321.631897593154
 30
0.0
 11
4075.416887176798
 21
4321.631897592946
 31
0.0
  0
LINE
  5
E8
330
17
100
AcDbEntity
  8
SARR_2.2x7
 62
7
370
25
100
AcDbLine
 10
3838.4168871768
 20
4328.631897592852
 30
0.0
 11
4075.416887176798
 21
4328.631897592643
 31
0.0
  0
LINE
  5
E9
330
17
100
AcDbEntity
  8
SARR_2.2x7
 62
7
370
25
100
AcDbLine
 10
4075.416887176799
 20
4321.631897593169
 30
0.0
 11
4236.416887176801
 21
4321.631897593028
 31
0.0
  0
LINE
  5
EA
330
17
100
AcDbEntity
  8
SARR_2.2x7
 62
7
370
25
100
AcDbLine
 10
4075.416887176799
 20
4328.631897592867
 30
0.0
 11
4236.416887176801
 21
4328.631897592725
 31
0.0
  0
LINE
  5
EB
330
17
100
AcDbEntity
  8
SARR_2.2x7
 62
7
370
25
100
AcDbLine
 10
3067.690493013535
 20
4132.063841445353
 30
0.0
 11
3304.735633772718
 21
4132.063841445146
 31
0.0
  0
LINE
  5
EC
330
17
100
AcDbEntity
  8
SARR_2.2x7
 62
7
370
25
100
AcDbLine
 10
3067.690493013535
 20
4139.063841445052
 30
0.0
 11
3304.735633772718
 21
4139.063841444843
 31
0.0
  0
LINE
  5
ED
330
17
100
AcDbEntity
  8
SARR_2.2x7
 62
7
370
25
100
AcDbLine
 10
3304.73563377272
 20
4132.06384144537
 30
0.0
 11
3471.780774531904
 21
4132.063841445224
 31
0.0
  0
LINE
  5
EE
330
17
100
AcDbEntity
  8
SARR_2.2x7
 62
7
370
25
100
AcDbLine
 10
3304.73563377272
 20
4139.063841445068
 30
0.0
 11
3471.780774531906
 21
4139.063841444921
 31
0.0
  0
LINE
  5
EF
330
17
100
AcDbEntity
  8
SARR_2.2x7
 62
7
370
25
100
AcDbLine
 10
3522.908261117823
 20
4136.563841445354
 30
0.0
 11
3759.953401877007
 21
4136.563841445146
 31
0.0
  0
LINE
  5
F0
330
17
100
AcDbEntity
  8
SARR_2.2x7
 62
7
370
25
100
AcDbLine
 10
3522.908261117823
 20
4143.563841445052
 30
0.0
 11
3759.953401877007
 21
4143.563841444843
 31
0.0
  0
LINE
  5
F1
330
17
100
AcDbEntity
  8
SARR_2.2x7
 62
7
370
25
100
AcDbLine
 10
3759.953401877009
 20
4136.56384144537
 30
0.0
 11
3926.998542636195
 21
4136.563841445223
 31
0.0
  0
LINE
  5
F2
330
17
100
AcDbEntity
  8
SARR_2.2x7
 62
7
370
25
100
AcDbLine
 10
3759.953401877009
 20
4143.563841445068
 30
0.0
 11
3926.998542636195
 21
4143.563841444922
 31
0.0
  0
LINE
  5
F3
330
17
100
AcDbEntity
  8
SARR_2.2x7
 62
7
370
25
100
AcDbLine
 10
4004.638869953409
 20
4136.063841445329
 30
0.0
 11
4122.138869953411
 21
4136.063841445226
 31
0.0
  0
LINE
  5
F4
330
17
100
AcDbEntity
  8
SARR_2.2x7
 62
7
370
25
100
AcDbLine
 10
4004.638869953409
 20
4143.063841445027
 30
0.0
 11
4122.138869953411
 21
4143.063841444924
 31
0.0
  0
LINE
  5
F5
330
17
100
AcDbEntity
  8
SARR_2.2x7
 62
7
370
25
100
AcDbLine
 10
4122.138869953412
 20
4136.063841445343
 30
0.0
 11
4237.138869953411
 21
4136.063841445242
 31
0.0
  0
LINE
  5
F6
330
17
100
AcDbEntity
  8
SARR_2.2x7
 62
7
370
25
100
AcDbLine
 10
4122.138869953412
 20
4143.063841445041
 30
0.0
 11
4237.138869953411
 21
4143.06384144494
 31
0.0
  0
LINE
  5
F7
330
17
100
AcDbEntity
  8
Painéis
 62
7
370
25
100
AcDbLine
 10
3112.551205950278
 20
4311.354399886634
 30
0.0
 11
3042.696187834196
 21
4311.354399886634
 31
0.0
  0
LINE
  5
F8
330
17
100
AcDbEntity
  8
Painéis
 62
7
370
25
100
AcDbLine
 10
3112.551205950278
 20
4307.754399886642
 30
0.0
 11
3042.712349610809
 21
4307.754399886632
 31
0.0
  0
LINE
  5
F9
330
17
100
AcDbEntity
  8
NOMENCLATURA
 62
7
370
25
100
AcDbLine
 10
3310.597043333182
 20
4234.810992398194
 30
0.0
 11
3239.740928407086
 21
4234.810992398194
 31
0.0
  0
LINE
  5
FA
330
17
100
AcDbEntity
  8
SARR_2.2x7
 62
7
370
25
100
AcDbLine
 10
3329.795044688443
 20
4305.131897593025
 30
0.0
 11
3329.795044688439
 21
4345.131897593025
 31
0.0
  0
LINE
  5
FB
330
17
100
AcDbEntity
  8
Painéis
 62
7
370
25
100
AcDbLine
 10
3320.795044688436
 20
4345.131897593025
 30
0.0
 11
3738.795044688439
 21
4345.131897593051
 31
0.0
  0
LINE
  5
FC
330
17
100
AcDbEntity
  8
Painéis
 62
7
370
25
100
AcDbLine
 10
3320.795044688443
 20
4305.131897593025
 30
0.0
 11
3738.795044688443
 21
4305.13189759305
 31
0.0
  0
LINE
  5
FD
330
17
100
AcDbEntity
  8
Painéis
 62
7
370
25
100
AcDbLine
 10
3566.795044688443
 20
4305.13189759304
 30
0.0
 11
3566.795044688439
 21
4345.13189759304
 31
0.0
  0
LINE
  5
FE
330
17
100
AcDbEntity
  8
Painéis
 62
7
370
25
100
AcDbLine
 10
3738.795044688443
 20
4305.13189759305
 30
0.0
 11
3738.795044688439
 21
4345.131897593051
 31
0.0
  0
LINE
  5
FF
330
17
100
AcDbEntity
  8
Painéis
 62
7
370
25
100
AcDbLine
 10
3320.795044688443
 20
4305.131897593025
 30
0.0
 11
3320.795044688439
 21
4345.131897593025
 31
0.0
  0
LINE
  5
100
330
17
100
AcDbEntity
  8
SARR_2.2x7
 62
7
370
25
100
AcDbLine
 10
3729.795044688443
 20
4305.131897593025
 30
0.0
 11
3729.795044688446
 21
4345.131897593025
 31
0.0
  0
LINE
  5
101
330
17
100
AcDbEntity
  8
SARR_2.2x7
 62
7
370
25
100
AcDbLine
 10
3729.795044688443
 20
4338.131897593023
 30
0.0
 11
3566.795044688439
 21
4338.131897593025
 31
0.0
  0
LINE
  5
102
330
17
100
AcDbEntity
  8
SARR_2.2x7
 62
7
370
25
100
AcDbLine
 10
3729.795044688446
 20
4312.131897593029
 30
0.0
 11
3566.795044688443
 21
4312.131897593027
 31
0.0
  0
LINE
  5
103
330
17
100
AcDbEntity
  8
SARR_2.2x7
 62
7
370
25
100
AcDbLine
 10
3566.795044688439
 20
4338.131897593038
 30
0.0
 11
3329.795044688439
 21
4338.131897593043
 31
0.0
  0
LINE
  5
104
330
17
100
AcDbEntity
  8
SARR_2.2x7
 62
7
370
25
100
AcDbLine
 10
3566.795044688443
 20
4312.131897593043
 30
0.0
 11
3329.795044688443
 21
4312.131897593038
 31
0.0
  0
LINE
  5
105
330
17
100
AcDbEntity
  8
COTA
 62
7
370
25
100
AcDbLine
 10
3320.795044688436
 20
4345.131897593025
 30
0.0
 11
3320.795044688436
 21
4357.131897593025
 31
0.0
  0
LINE
  5
106
330
17
100
AcDbEntity
  8
COTA
 62
7
370
25
100
AcDbLine
 10
3738.795044688436
 20
4357.131897593025
 30
0.0
 11
3738.795044688439
 21
4345.131897593051
 31
0.0
  0
LINE
  5
107
330
17
100
AcDbEntity
  8
Painéis
 62
7
370
25
100
AcDbLine
 10
3736.795044688443
 20
4305.13189759305
 30
0.0
 11
3736.795044688439
 21
4345.131897593051
 31
0.0
  0
LINE
  5
108
330
17
100
AcDbEntity
  8
NOMENCLATURA
 62
7
370
25
100
AcDbLine
 10
3748.993046043695
 20
4234.810992398309
 30
0.0
 11
3748.993046043695
 21
4285.19772822965
 31
0.0
  0
LINE
  5
109
330
17
100
AcDbEntity
  8
Painéis
 62
7
370
25
100
AcDbLine
 10
3322.795044688443
 20
4305.131897593025
 30
0.0
 11
3322.795044688439
 21
4345.131897593025
 31
0.0
  0
LINE
  5
10A
330
17
100
AcDbEntity
  8
NOMENCLATURA
 62
7
370
25
100
AcDbLine
 10
3310.597043333182
 20
4234.810992398194
 30
0.0
 11
3310.597043333182
 21
4285.197728229535
 31
0.0
  0
LINE
  5
10B
330
17
100
AcDbEntity
  8
SARR_2.2x7
 62
7
370
25
100
AcDbLine
 10
3738.795044688436
 20
4360.631897593012
 30
0.0
 11
3564.824152167434
 21
4360.631897593027
 31
0.0
  0
LINE
  5
10C
330
17
100
AcDbEntity
  8
SARR_2.2x7
 62
7
370
25
100
AcDbLine
 10
3564.824152167434
 20
4360.631897593027
 30
0.0
 11
3320.795044688436
 21
4360.631897593026
 31
0.0
  0
LINE
  5
10D
330
17
100
AcDbEntity
  8
Painéis
 62
7
370
25
100
AcDbLine
 10
3564.824152167434
 20
4357.131897593032
 30
0.0
 11
3564.824152167434
 21
4364.131897593032
 31
0.0
  0
LINE
  5
10E
330
17
100
AcDbEntity
  8
SARR_2.2x7
 62
7
370
25
100
AcDbLine
 10
3329.795044688443
 20
4321.631897593039
 30
0.0
 11
3566.795044688439
 21
4321.631897592831
 31
0.0
  0
LINE
  5
10F
330
17
100
AcDbEntity
  8
SARR_2.2x7
 62
7
370
25
100
AcDbLine
 10
3329.795044688443
 20
4328.631897592738
 30
0.0
 11
3566.795044688439
 21
4328.631897592527
 31
0.0
  0
LINE
  5
110
330
17
100
AcDbEntity
  8
SARR_2.2x7
 62
7
370
25
100
AcDbLine
 10
3566.795044688443
 20
4321.631897593054
 30
0.0
 11
3729.795044688443
 21
4321.63189759291
 31
0.0
  0
LINE
  5
111
330
17
100
AcDbEntity
  8
SARR_2.2x7
 62
7
370
25
100
AcDbLine
 10
3566.795044688443
 20
4328.631897592752
 30
0.0
 11
3729.795044688443
 21
4328.631897592608
 31
0.0
  0
LWPOLYLINE
  5
112
330
17
100
AcDbEntity
  8
Painéis
 62
7
370
25
100
AcDbPolyline
 90
4
 70
1
 10
3113.267144554033
 20
4620.365869424227
 10
3117.267144554033
 20
4620.365869424227
 10
3117.267144554033
 20
4540.365869424248
 10
3113.267144554033
 20
4540.365869424248
  0
LWPOLYLINE
  5
113
330
17
100
AcDbEntity
  8
Madeira
 62
7
370
25
100
AcDbPolyline
 90
4
 70
1
 10
3155.267144554033
 20
4540.365869424248
 10
3155.267144554033
 20
4544.765869424242
 10
3141.267144554033
 20
4544.765869424242
 10
3141.267144554033
 20
4540.365869424248
  0
LWPOLYLINE
  5
114
330
17
100
AcDbEntity
  8
Painéis
 62
7
370
25
100
AcDbPolyline
 90
4
 70
1
 10
3155.267144554033
 20
4544.765869424242
 10
3155.267144554033
 20
4548.365869424248
 10
3117.267144554033
 20
4548.365869424248
 10
3117.267144554033
 20
4544.765869424242
  0
LWPOLYLINE
  5
115
330
17
100
AcDbEntity
  8
Madeira
 62
7
370
25
100
AcDbPolyline
 90
4
 70
1
 10
3117.267144554033
 20
4540.365869424248
 10
3117.267144554033
 20
4544.765869424242
 10
3131.267144554033
 20
4544.765869424242
 10
3131.267144554033
 20
4540.365869424248
  0
LWPOLYLINE
  5
116
330
17
100
AcDbEntity
  8
Painéis
 62
7
370
25
100
AcDbPolyline
 90
4
 70
1
 10
3159.267144554044
 20
4628.365869424248
 10
3155.267144554044
 20
4628.365869424248
 10
3155.267144554033
 20
4540.365869424248
 10
3159.267144554033
 20
4540.365869424248
  0
LWPOLYLINE
  5
117
330
17
100
AcDbEntity
  8
Painéis
 62
7
370
25
100
AcDbPolyline
 90
4
 70
1
 10
3117.267144554033
 20
4620.365869424227
 10
3117.267144554033
 20
4624.365869424226
 10
3061.667144554056
 20
4624.365869424219
 10
3061.667144554056
 20
4620.365869424219
  0
LWPOLYLINE
  5
118
330
17
100
AcDbEntity
  8
CONCRETO
 62
7
370
25
100
AcDbPolyline
 90
9
 70
0
 10
3155.267144553975
 20
4628.365869424248
 10
3155.267144553975
 20
4548.365869424248
 10
3117.267144554033
 20
4548.365869424248
 10
3117.267144554033
 20
4624.365869424226
 10
3061.667144554056
 20
4624.365869424219
 10
3061.667144554056
 20
4644.365869424248
 10
3117.267144554033
 20
4644.365869424248
 10
3117.267144554033
 20
4658.365869424248
 10
3155.267144553975
 20
4658.365869424248
  0
LWPOLYLINE
  5
119
330
17
100
AcDbEntity
  8
Painéis
 62
7
370
25
100
AcDbPolyline
 90
4
 70
1
 10
3113.667144554027
 20
4658.365869424248
 10
3117.267144554033
 20
4658.365869424248
 10
3117.267144554033
 20
4644.365869424248
 10
3113.667144554027
 20
4644.365869424248
  0
LWPOLYLINE
  5
11A
330
17
100
AcDbEntity
  8
Madeira
 62
7
370
25
100
AcDbPolyline
 90
4
 70
1
 10
3109.267144554033
 20
4644.365869424248
 10
3113.667144554027
 20
4644.365869424248
 10
3113.667144554027
 20
4658.365869424248
 10
3109.267144554033
 20
4658.365869424248
  0
LWPOLYLINE
  5
11B
330
17
100
AcDbEntity
  8
CONCRETO
 62
7
370
25
100
AcDbPolyline
 90
8
 70
1
 10
3210.867144554021
 20
4632.365869424256
 10
3210.867144553951
 20
4658.36586942425
 10
3155.267144553975
 20
4658.36586942425
 10
3155.267144553975
 20
4658.365869424248
 10
3117.267144554033
 20
4658.365869424248
 10
3117.267144554033
 20
4548.365869424248
 10
3155.267144553975
 20
4548.365869424248
 10
3155.267144554044
 20
4632.365869424263
  0
LWPOLYLINE
  5
11C
330
17
100
AcDbEntity
  8
Painéis
 62
7
370
25
100
AcDbPolyline
 90
4
 70
1
 10
3210.867144554021
 20
4628.365869424263
 10
3210.867144554021
 20
4632.365869424263
 10
3155.267144554044
 20
4632.365869424256
 10
3155.267144554044
 20
4628.365869424256
  0
LWPOLYLINE
  5
11D
330
17
100
AcDbEntity
  8
Madeira
 62
7
370
25
100
AcDbPolyline
 90
4
 70
1
 10
3163.667144554038
 20
4614.365869424256
 10
3159.267144554044
 20
4614.365869424256
 10
3159.267144554044
 20
4628.365869424256
 10
3163.667144554038
 20
4628.365869424256
  0
LWPOLYLINE
  5
11E
330
17
100
AcDbEntity
  8
Madeira
 62
7
370
25
100
AcDbPolyline
 90
4
 70
1
 10
3163.667144554027
 20
4540.365869424248
 10
3159.267144554033
 20
4540.365869424248
 10
3159.267144554033
 20
4554.365869424248
 10
3163.667144554027
 20
4554.365869424248
  0
LWPOLYLINE
  5
11F
330
17
100
AcDbEntity
  8
Madeira
 62
7
370
25
100
AcDbPolyline
 90
4
 70
1
 10
3108.867144554039
 20
4606.365869424227
 10
3113.267144554033
 20
4606.365869424227
 10
3113.267144554033
 20
4620.365869424227
 10
3108.867144554039
 20
4620.365869424227
  0
LWPOLYLINE
  5
120
330
17
100
AcDbEntity
  8
Madeira
 62
7
370
25
100
AcDbPolyline
 90
4
 70
1
 10
3108.867144554039
 20
4540.365869424248
 10
3113.267144554033
 20
4540.365869424248
 10
3113.267144554033
 20
4554.365869424248
 10
3108.867144554039
 20
4554.365869424248
  0
LWPOLYLINE
  5
121
330
17
100
AcDbEntity
  8
Cotas
 62
7
370
25
100
AcDbPolyline
 90
4
 70
1
 10
3013.205484200867
 20
4458.78759863781
 10
3195.170286136652
 20
4458.78759863781
 10
3195.170286136652
 20
4365.686452986681
 10
3013.205484200867
 20
4365.686452986681
  0
LWPOLYLINE
  5
122
330
17
100
AcDbEntity
  8
Madeira
 62
7
370
25
100
AcDbPolyline
 90
4
 70
1
 10
3074.188419150696
 20
4407.788373623342
 10
3074.188419150696
 20
4421.788373623345
 10
3067.188419150696
 20
4421.788373623345
 10
3067.188419150696
 20
4407.788373623342
  0
LWPOLYLINE
  5
123
330
17
100
AcDbEntity
  8
Madeira
 62
7
370
25
100
AcDbPolyline
 90
3
 70
0
 10
3074.188419150696
 20
4421.788373623345
 10
3074.188419150696
 20
4407.788373623342
 10
3042.712349610809
 20
4407.788373623342
  0
LWPOLYLINE
  5
124
330
17
100
AcDbEntity
  8
Madeira
 62
7
370
25
100
AcDbPolyline
 90
4
 70
1
 10
3098.571842992695
 20
4421.788373623353
 10
3112.551205950278
 20
4421.788373623353
 10
3112.551205950278
 20
4417.388373623352
 10
3098.571842992695
 20
4417.388373623352
  0
LWPOLYLINE
  5
125
330
17
100
AcDbEntity
  8
Painéis
 62
7
370
25
100
AcDbPolyline
 90
4
 70
1
 10
3112.551205950278
 20
4425.388373623344
 10
3116.15120595028
 20
4425.388373623344
 10
3116.15120595028
 20
4415.388373623351
 10
3112.551205950278
 20
4415.388373623351
  0
LWPOLYLINE
  5
126
330
17
100
AcDbEntity
  8
Painéis
 62
7
370
25
100
AcDbPolyline
 90
4
 70
1
 10
3631.157833971818
 20
4744.486881059901
 10
4049.157833971817
 20
4744.486881059901
 10
4049.157833971817
 20
4751.486881059901
 10
3631.157833971818
 20
4751.486881059901
  0
LWPOLYLINE
  5
127
330
17
100
AcDbEntity
  8
Painéis
 62
7
370
25
100
AcDbPolyline
 90
4
 70
1
 10
3321.952373290027
 20
4744.486881059901
 10
3549.952373290027
 20
4744.486881059905
 10
3549.952373290027
 20
4751.486881059904
 10
3321.952373290027
 20
4751.486881059901
  0
LWPOLYLINE
  5
128
330
17
100
AcDbEntity
  8
Painéis
 62
7
370
25
100
AcDbPolyline
 90
4
 70
1
 10
3319.295169989418
 20
4558.498813806954
 10
3737.295169989419
 20
4558.498813806954
 10
3737.295169989419
 20
4565.498813806954
 10
3319.295169989418
 20
4565.498813806954
  0
LWPOLYLINE
  5
129
330
17
100
AcDbEntity
  8
Painéis
 62
7
370
25
100
AcDbPolyline
 90
4
 70
1
 10
4246.547287626021
 20
4558.498813806954
 10
3828.547287626021
 20
4558.498813806954
 10
3828.547287626021
 20
4565.498813806954
 10
4246.547287626021
 20
4565.498813806954
  0
LWPOLYLINE
  5
12A
330
17
100
AcDbEntity
  8
Painéis
 62
7
370
25
100
AcDbPolyline
 90
4
 70
1
 10
4243.416887176794
 20
4357.13189759314
 10
3829.416887176794
 20
4357.13189759314
 10
3829.416887176794
 20
4364.131897593139
 10
4243.416887176794
 20
4364.131897593139
  0
LWPOLYLINE
  5
12B
330
17
100
AcDbEntity
  8
Cotas
 62
7
370
25
100
AcDbPolyline
 90
4
 70
1
 10
3013.205484200867
 20
4344.7536249011
 10
3195.170286136652
 20
4344.7536249011
 10
3195.170286136652
 20
4253.709161735828
 10
3013.205484200867
 20
4253.709161735828
  0
LWPOLYLINE
  5
12C
330
17
100
AcDbEntity
  8
Madeira
 62
7
370
25
100
AcDbPolyline
 90
4
 70
1
 10
3074.188419150696
 20
4293.754399886632
 10
3074.188419150696
 20
4307.754399886635
 10
3067.188419150696
 20
4307.754399886635
 10
3067.188419150696
 20
4293.754399886632
  0
LWPOLYLINE
  5
12D
330
17
100
AcDbEntity
  8
Madeira
 62
7
370
25
100
AcDbPolyline
 90
3
 70
0
 10
3074.188419150696
 20
4307.754399886635
 10
3074.188419150696
 20
4293.754399886632
 10
3042.712349610809
 20
4293.754399886632
  0
LWPOLYLINE
  5
12E
330
17
100
AcDbEntity
  8
Madeira
 62
7
370
25
100
AcDbPolyline
 90
4
 70
1
 10
3098.571842992695
 20
4307.754399886642
 10
3112.551205950278
 20
4307.754399886642
 10
3112.551205950278
 20
4303.354399886642
 10
3098.571842992695
 20
4303.354399886642
  0
LWPOLYLINE
  5
12F
330
17
100
AcDbEntity
  8
Painéis
 62
7
370
25
100
AcDbPolyline
 90
4
 70
1
 10
3112.551205950278
 20
4311.354399886634
 10
3116.15120595028
 20
4311.354399886634
 10
3116.15120595028
 20
4276.954399886634
 10
3112.551205950278
 20
4276.954399886634
  0
LWPOLYLINE
  5
130
330
17
100
AcDbEntity
  8
Painéis
 62
7
370
25
100
AcDbPolyline
 90
4
 70
1
 10
3116.15120595028
 20
4276.954399886634
 10
3116.15120595028
 20
4273.354399886632
 10
3111.15120595028
 20
4273.354399886632
 10
3111.15120595028
 20
4276.954399886634
  0
LWPOLYLINE
  5
131
330
17
100
AcDbEntity
  8
Painéis
 62
7
370
25
100
AcDbPolyline
 90
4
 70
1
 10
3738.795044688436
 20
4357.131897593025
 10
3320.795044688436
 20
4357.131897593025
 10
3320.795044688436
 20
4364.131897593025
 10
3738.795044688436
 20
4364.131897593025
  0
LWPOLYLINE
  5
132
330
17
100
AcDbEntity
  8
Madeira
 62
7
370
25
100
AcDbPolyline
 90
4
 70
1
 10
3163.667144554038
 20
4579.582421469925
 10
3159.267144554044
 20
4579.582421469925
 10
3159.267144554044
 20
4593.582421469925
 10
3163.667144554038
 20
4593.582421469925
  0
LWPOLYLINE
  5
133
330
17
100
AcDbEntity
  8
Madeira
 62
7
370
25
100
AcDbPolyline
 90
4
 70
1
 10
3108.867144554039
 20
4571.582421469896
 10
3113.267144554033
 20
4571.582421469896
 10
3113.267144554033
 20
4585.582421469896
 10
3108.867144554039
 20
4585.582421469896
  0
LWPOLYLINE
  5
134
330
17
100
AcDbEntity
  8
SARR_3.5x7
 62
7
370
25
100
AcDbPolyline
 90
4
 70
1
 10
3094.867144553975
 20
4614.365869424225
 10
3108.867144553975
 20
4614.365869424225
 10
3108.867144554104
 20
4463.887656018442
 10
3094.867144554104
 20
4463.887656018442
  0
LWPOLYLINE
  5
135
330
17
100
AcDbEntity
  8
SARR_3.5x7
 62
7
370
25
100
AcDbPolyline
 90
4
 70
1
 10
3177.667144554261
 20
4622.365869424253
 10
3163.667144554262
 20
4622.365869424253
 10
3163.667144554115
 20
4463.887656018442
 10
3177.667144554114
 20
4463.887656018442
  0
LWPOLYLINE
  5
136
330
17
100
AcDbEntity
  8
SARR_3.5x7
 62
7
370
25
100
AcDbPolyline
 90
4
 70
1
 10
3094.867144553962
 20
4540.365869424248
 10
3177.667144554162
 20
4540.365869424246
 10
3177.667144554162
 20
4510.307807820248
 10
3094.867144553962
 20
4510.307807820249
  0
TEXT
  5
137
330
17
100
AcDbEntity
  8
detalhes
 62
7
370
25
100
AcDbText
 10
3161.360374364678
 20
4571.380985259835
 30
0.0
 40
9.600000000000001
  1
b
100
AcDbText
  0
TEXT
  5
138
330
17
100
AcDbEntity
  8
detalhes
 62
7
370
25
100
AcDbText
 10
3101.635866875337
 20
4563.411262330749
 30
0.0
 40
9.600000000000001
  1
a
100
AcDbText
  0
TEXT
  5
139
330
17
100
AcDbEntity
  8
detalhes
 62
7
370
25
100
AcDbText
 10
3127.867410169478
 20
4550.601622944087
 30
0.0
 40
9.600000000000001
  1
c
100
AcDbText
  0
TEXT
  5
13A
330
17
100
AcDbEntity
  8
5
 62
7
370
25
100
AcDbText
 10
3323.047764026549
 20
4614.482382627103
 30
0.0
 40
12.0
  1
VF2
100
AcDbText
  0
TEXT
  5
13B
330
17
100
AcDbEntity
  8
detalhes
 62
7
370
25
100
AcDbText
 10
3308.56444990118
 20
4702.796808330464
 30
0.0
 40
9.600000000000001
  1
B
100
AcDbText
  0
TEXT
  5
13C
330
17
100
AcDbEntity
  8
detalhes
 62
7
370
25
100
AcDbText
 10
3341.340296678882
 20
4702.796808330464
 30
0.0
 40
9.600000000000001
  1
B
100
AcDbText
  0
TEXT
  5
13D
330
17
100
AcDbEntity
  8
NOMENCLATURA
 62
7
370
25
100
AcDbText
 10
3573.24179147364
 20
4626.363025867093
 30
0.0
 40
16.49999175001634
  1
M5
100
AcDbText
  0
TEXT
  5
13E
330
17
100
AcDbEntity
  8
5
 62
7
370
25
100
AcDbText
 10
4008.681815677323
 20
4614.482358225483
 30
0.0
 40
12.0
  1
P29
100
AcDbText
  0
TEXT
  5
13F
330
17
100
AcDbEntity
  8
NOMENCLATURA
 62
7
370
25
100
AcDbText
 10
3573.67070577445
 20
4626.363025867093
 30
0.0
 40
16.49999175001634
  1
M5
100
AcDbText
  0
TEXT
  5
140
330
17
100
AcDbEntity
  8
NOMENCLATURA
 62
7
370
25
100
AcDbText
 10
4064.01582806937
 20
4626.363025866979
 30
0.0
 40
16.49999175001634
  1
M2.5
100
AcDbText
  0
TEXT
  5
141
330
17
100
AcDbEntity
  8
TEXTO PILAR
 62
7
370
25
100
AcDbText
 10
3028.973981562413
 20
4440.044071579553
 30
0.0
 40
12.0
  1
MOSCA DE 5cm
100
AcDbText
  0
TEXT
  5
142
330
17
100
AcDbEntity
  8
NOMENCLATURA
 62
7
370
25
100
AcDbText
 10
3252.885918697939
 20
4440.374958614146
 30
0.0
 40
16.49999175001634
  1
M2.5
100
AcDbText
  0
TEXT
  5
143
330
17
100
AcDbEntity
  8
NOMENCLATURA
 62
7
370
25
100
AcDbText
 10
3752.153164086971
 20
4440.374958614031
 30
0.0
 40
16.49999175001634
  1
M2.5
100
AcDbText
  0
TEXT
  5
144
330
17
100
AcDbEntity
  8
5
 62
7
370
25
100
AcDbText
 10
3755.524570569388
 20
4415.065134441888
 30
0.0
 40
12.0
  1
P30
100
AcDbText
  0
TEXT
  5
145
330
17
100
AcDbEntity
  8
NOMENCLATURA
 62
7
370
25
100
AcDbText
 10
4260.924163842243
 20
4440.374958614146
 30
0.0
 40
16.49999175001634
  1
M2.5
100
AcDbText
  0
TEXT
  5
146
330
17
100
AcDbEntity
  8
Texto Seção
 62
7
370
25
100
AcDbText
 10
3824.606021162959
 20
4589.003860946585
 30
0.0
 40
13.0
  1
(2X ESTE MÓDULO)
100
AcDbText
  0
TEXT
  5
147
330
17
100
AcDbEntity
  8
NOMENCLATURA
 62
7
370
25
100
AcDbText
 10
3759.058670175995
 20
4239.008042400217
 30
0.0
 40
16.49999175001634
  1
M2.5
100
AcDbText
  0
TEXT
  5
148
330
17
100
AcDbEntity
  8
5
 62
7
370
25
100
AcDbText
 10
3773.830591839295
 20
4213.698218228074
 30
0.0
 40
12.0
  1
P32
100
AcDbText
  0
TEXT
  5
149
330
17
100
AcDbEntity
  8
Texto Seção
 62
7
370
25
100
AcDbText
 10
3318.537525834547
 20
4754.951889696957
 30
0.0
 40
13.0
  1
V7.A
100
AcDbText
  0
TEXT
  5
14A
330
17
100
AcDbEntity
  8
Texto Seção
 62
7
370
25
100
AcDbText
 10
3315.880322533939
 20
4568.96382244401
 30
0.0
 40
13.0
  1
CONT. V7.A
100
AcDbText
  0
TEXT
  5
14B
330
17
100
AcDbEntity
  8
Texto Seção
 62
7
370
25
100
AcDbText
 10
3315.880322533939
 20
4388.667255011399
 30
0.0
 40
13.0
  1
CONT. V7.A
100
AcDbText
  0
TEXT
  5
14C
330
17
100
AcDbEntity
  8
Texto Seção
 62
7
370
25
100
AcDbText
 10
3063.765059081601
 20
4181.746241180851
 30
0.0
 40
13.0
  1
V7.B
100
AcDbText
  0
TEXT
  5
14D
330
17
100
AcDbEntity
  8
Texto Seção
 62
7
370
25
100
AcDbText
 10
3514.790129905796
 20
4181.746241180851
 30
0.0
 40
13.0
  1
(4X ESTE MÓDULO)
100
AcDbText
  0
TEXT
  5
14E
330
17
100
AcDbEntity
  8
detalhes
 62
7
370
25
100
AcDbText
 10
4245.231209862569
 20
4125.485835825305
 30
0.0
 40
9.600000000000001
  1
A
100
AcDbText
  0
TEXT
  5
14F
330
17
100
AcDbEntity
  8
detalhes
 62
7
370
25
100
AcDbText
 10
4212.455363084868
 20
4125.485835825305
 30
0.0
 40
9.600000000000001
  1
A
100
AcDbText
  0
TEXT
  5
150
330
17
100
AcDbEntity
  8
5
 62
7
370
25
100
AcDbText
 10
3568.233394823626
 20
4603.367156948983
 30
0.0
 40
12.0
  1
P28
100
AcDbText
  0
TEXT
  5
151
330
17
100
AcDbEntity
  8
5
 62
7
370
25
100
AcDbText
 10
3319.802379124063
 20
4426.202978708112
 30
0.0
 40
12.0
  1
P29
100
AcDbText
  0
TEXT
  5
152
330
17
100
AcDbEntity
  8
5
 62
7
370
25
100
AcDbText
 10
4222.353493537673
 20
4425.663807471389
 30
0.0
 40
12.0
  1
P31
100
AcDbText
  0
TEXT
  5
153
330
17
100
AcDbEntity
  8
5
 62
7
370
25
100
AcDbText
 10
4221.811095716999
 20
4224.247181451615
 30
0.0
 40
12.0
  1
V21
100
AcDbText
  0
TEXT
  5
154
330
17
100
AcDbEntity
  8
TEXTO PILAR
 62
7
370
25
100
AcDbText
 10
3020.402552990984
 20
4326.010097842842
 30
0.0
 40
12.0
  1
MOSCA DE 2.5cm
100
AcDbText
  0
TEXT
  5
155
330
17
100
AcDbEntity
  8
NOMENCLATURA
 62
7
370
25
100
AcDbText
 10
3244.400921149387
 20
4239.008042400103
 30
0.0
 40
16.49999175001634
  1
M2.5
100
AcDbText
  0
TEXT
  5
156
330
17
100
AcDbEntity
  8
5
 62
7
370
25
100
AcDbText
 10
3320.864079466934
 20
4226.291561108538
 30
0.0
 40
12.0
  1
P31
100
AcDbText
  0
HATCH
  5
157
330
17
100
AcDbEntity
  8
Hachura
 62
7
100
AcDbHatch
 10
0.0
 20
0.0
 30
0.0
210
0.0
220
0.0
230
1.0
  2
SOLID
 70
1
 71
0
 91
1
 92
3
 72
0
 73
1
 93
8
 10
3117.267144554033
 20
4620.365869424227
 10
3113.267144554033
 20
4620.365869424227
 10
3113.267144554033
 20
4620.365869424227
 10
3113.267144554033
 20
4540.365869424248
 10
3113.267144554033
 20
4540.365869424248
 10
3117.267144554033
 20
4540.365869424248
 10
3117.267144554033
 20
4540.365869424248
 10
3117.267144554033
 20
4620.365869424227
 97
0
 75
1
 76
1
 98
0
  0
HATCH
  5
158
330
17
100
AcDbEntity
  8
Hachura
 62
7
100
AcDbHatch
 10
0.0
 20
0.0
 30
0.0
210
0.0
220
0.0
230
1.0
  2
SOLID
 70
1
 71
0
 91
1
 92
3
 72
0
 73
1
 93
8
 10
3155.267144554033
 20
4540.365869424248
 10
3155.267144554033
 20
4544.765869424242
 10
3155.267144554033
 20
4544.765869424242
 10
3141.267144554033
 20
4544.765869424242
 10
3141.267144554033
 20
4544.765869424242
 10
3141.267144554033
 20
4540.365869424248
 10
3141.267144554033
 20
4540.365869424248
 10
3155.267144554033
 20
4540.365869424248
 97
0
 75
1
 76
1
 98
0
  0
HATCH
  5
159
330
17
100
AcDbEntity
  8
Hachura
 62
7
100
AcDbHatch
 10
0.0
 20
0.0
 30
0.0
210
0.0
220
0.0
230
1.0
  2
SOLID
 70
1
 71
0
 91
1
 92
3
 72
0
 73
1
 93
8
 10
3155.267144554033
 20
4544.765869424242
 10
3155.267144554033
 20
4548.365869424248
 10
3155.267144554033
 20
4548.365869424248
 10
3117.267144554033
 20
4548.365869424248
 10
3117.267144554033
 20
4548.365869424248
 10
3117.267144554033
 20
4544.765869424242
 10
3117.267144554033
 20
4544.765869424242
 10
3155.267144554033
 20
4544.765869424242
 97
0
 75
1
 76
1
 98
0
  0
HATCH
  5
15A
330
17
100
AcDbEntity
  8
Hachura
 62
7
100
AcDbHatch
 10
0.0
 20
0.0
 30
0.0
210
0.0
220
0.0
230
1.0
  2
SOLID
 70
1
 71
0
 91
1
 92
3
 72
0
 73
1
 93
8
 10
3117.267144554033
 20
4540.365869424248
 10
3117.267144554033
 20
4544.765869424242
 10
3117.267144554033
 20
4544.765869424242
 10
3131.267144554033
 20
4544.765869424242
 10
3131.267144554033
 20
4544.765869424242
 10
3131.267144554033
 20
4540.365869424248
 10
3131.267144554033
 20
4540.365869424248
 10
3117.267144554033
 20
4540.365869424248
 97
0
 75
1
 76
1
 98
0
  0
HATCH
  5
15B
330
17
100
AcDbEntity
  8
Hachura
 62
7
100
AcDbHatch
 10
0.0
 20
0.0
 30
0.0
210
0.0
220
0.0
230
1.0
  2
SOLID
 70
1
 71
0
 91
1
 92
3
 72
0
 73
1
 93
8
 10
3159.267144554044
 20
4628.365869424248
 10
3155.267144554044
 20
4628.365869424248
 10
3155.267144554044
 20
4628.365869424248
 10
3155.267144554033
 20
4540.365869424248
 10
3155.267144554033
 20
4540.365869424248
 10
3159.267144554033
 20
4540.365869424248
 10
3159.267144554033
 20
4540.365869424248
 10
3159.267144554044
 20
4628.365869424248
 97
0
 75
1
 76
1
 98
0
  0
HATCH
  5
15C
330
17
100
AcDbEntity
  8
Hachura
 62
7
100
AcDbHatch
 10
0.0
 20
0.0
 30
0.0
210
0.0
220
0.0
230
1.0
  2
SOLID
 70
1
 71
0
 91
1
 92
3
 72
0
 73
1
 93
8
 10
3117.267144554033
 20
4620.365869424227
 10
3117.267144554033
 20
4624.365869424226
 10
3117.267144554033
 20
4624.365869424226
 10
3061.667144554056
 20
4624.365869424219
 10
3061.667144554056
 20
4624.365869424219
 10
3061.667144554056
 20
4620.365869424219
 10
3061.667144554056
 20
4620.365869424219
 10
3117.267144554033
 20
4620.365869424227
 97
0
 75
1
 76
1
 98
0
  0
HATCH
  5
15D
330
17
100
AcDbEntity
  8
Hachura
 62
7
100
AcDbHatch
 10
0.0
 20
0.0
 30
0.0
210
0.0
220
0.0
230
1.0
  2
SOLID
 70
1
 71
0
 91
1
 92
3
 72
0
 73
1
 93
8
 10
3113.667144554027
 20
4658.365869424248
 10
3117.267144554033
 20
4658.365869424248
 10
3117.267144554033
 20
4658.365869424248
 10
3117.267144554033
 20
4644.365869424248
 10
3117.267144554033
 20
4644.365869424248
 10
3113.667144554027
 20
4644.365869424248
 10
3113.667144554027
 20
4644.365869424248
 10
3113.667144554027
 20
4658.365869424248
 97
0
 75
1
 76
1
 98
0
  0
HATCH
  5
15E
330
17
100
AcDbEntity
  8
Hachura
 62
7
100
AcDbHatch
 10
0.0
 20
0.0
 30
0.0
210
0.0
220
0.0
230
1.0
  2
SOLID
 70
1
 71
0
 91
1
 92
3
 72
0
 73
1
 93
8
 10
3109.267144554033
 20
4644.365869424248
 10
3113.667144554027
 20
4644.365869424248
 10
3113.667144554027
 20
4644.365869424248
 10
3113.667144554027
 20
4658.365869424248
 10
3113.667144554027
 20
4658.365869424248
 10
3109.267144554033
 20
4658.365869424248
 10
3109.267144554033
 20
4658.365869424248
 10
3109.267144554033
 20
4644.365869424248
 97
0
 75
1
 76
1
 98
0
  0
HATCH
  5
15F
330
17
100
AcDbEntity
  8
Hachura
 62
7
100
AcDbHatch
 10
0.0
 20
0.0
 30
0.0
210
0.0
220
0.0
230
1.0
  2
SOLID
 70
1
 71
0
 91
1
 92
3
 72
0
 73
1
 93
8
 10
3210.867144554021
 20
4628.365869424263
 10
3210.867144554021
 20
4632.365869424263
 10
3210.867144554021
 20
4632.365869424263
 10
3155.267144554044
 20
4632.365869424256
 10
3155.267144554044
 20
4632.365869424256
 10
3155.267144554044
 20
4628.365869424256
 10
3155.267144554044
 20
4628.365869424256
 10
3210.867144554021
 20
4628.365869424263
 97
0
 75
1
 76
1
 98
0
  0
HATCH
  5
160
330
17
100
AcDbEntity
  8
Hachura
 62
7
100
AcDbHatch
 10
0.0
 20
0.0
 30
0.0
210
0.0
220
0.0
230
1.0
  2
SOLID
 70
1
 71
0
 91
1
 92
3
 72
0
 73
1
 93
8
 10
3163.667144554038
 20
4614.365869424256
 10
3159.267144554044
 20
4614.365869424256
 10
3159.267144554044
 20
4614.365869424256
 10
3159.267144554044
 20
4628.365869424256
 10
3159.267144554044
 20
4628.365869424256
 10
3163.667144554038
 20
4628.365869424256
 10
3163.667144554038
 20
4628.365869424256
 10
3163.667144554038
 20
4614.365869424256
 97
0
 75
1
 76
1
 98
0
  0
HATCH
  5
161
330
17
100
AcDbEntity
  8
Hachura
 62
7
100
AcDbHatch
 10
0.0
 20
0.0
 30
0.0
210
0.0
220
0.0
230
1.0
  2
SOLID
 70
1
 71
0
 91
1
 92
3
 72
0
 73
1
 93
8
 10
3163.667144554027
 20
4540.365869424248
 10
3159.267144554033
 20
4540.365869424248
 10
3159.267144554033
 20
4540.365869424248
 10
3159.267144554033
 20
4554.365869424248
 10
3159.267144554033
 20
4554.365869424248
 10
3163.667144554027
 20
4554.365869424248
 10
3163.667144554027
 20
4554.365869424248
 10
3163.667144554027
 20
4540.365869424248
 97
0
 75
1
 76
1
 98
0
  0
HATCH
  5
162
330
17
100
AcDbEntity
  8
Hachura
 62
7
100
AcDbHatch
 10
0.0
 20
0.0
 30
0.0
210
0.0
220
0.0
230
1.0
  2
SOLID
 70
1
 71
0
 91
1
 92
3
 72
0
 73
1
 93
8
 10
3108.867144554039
 20
4606.365869424227
 10
3113.267144554033
 20
4606.365869424227
 10
3113.267144554033
 20
4606.365869424227
 10
3113.267144554033
 20
4620.365869424227
 10
3113.267144554033
 20
4620.365869424227
 10
3108.867144554039
 20
4620.365869424227
 10
3108.867144554039
 20
4620.365869424227
 10
3108.867144554039
 20
4606.365869424227
 97
0
 75
1
 76
1
 98
0
  0
HATCH
  5
163
330
17
100
AcDbEntity
  8
Hachura
 62
7
100
AcDbHatch
 10
0.0
 20
0.0
 30
0.0
210
0.0
220
0.0
230
1.0
  2
SOLID
 70
1
 71
0
 91
1
 92
3
 72
0
 73
1
 93
8
 10
3108.867144554039
 20
4540.365869424248
 10
3113.267144554033
 20
4540.365869424248
 10
3113.267144554033
 20
4540.365869424248
 10
3113.267144554033
 20
4554.365869424248
 10
3113.267144554033
 20
4554.365869424248
 10
3108.867144554039
 20
4554.365869424248
 10
3108.867144554039
 20
4554.365869424248
 10
3108.867144554039
 20
4540.365869424248
 97
0
 75
1
 76
1
 98
0
  0
HATCH
  5
164
330
17
100
AcDbEntity
  8
COTA
 62
7
100
AcDbHatch
 10
0.0
 20
0.0
 30
0.0
210
0.0
220
0.0
230
1.0
  2
SOLID
 70
1
 71
0
 91
1
 92
3
 72
0
 73
1
 93
8
 10
3549.952373290027
 20
4744.486881059901
 10
3321.952373290027
 20
4744.486881059901
 10
3321.952373290027
 20
4744.486881059901
 10
3321.952373290027
 20
4732.486881059901
 10
3321.952373290027
 20
4732.486881059901
 10
3549.952373290029
 20
4732.486881059926
 10
3549.952373290029
 20
4732.486881059926
 10
3549.952373290027
 20
4744.486881059901
 97
0
 75
1
 76
1
 98
0
  0
HATCH
  5
165
330
17
100
AcDbEntity
  8
COTA
 62
7
100
AcDbHatch
 10
0.0
 20
0.0
 30
0.0
210
0.0
220
0.0
230
1.0
  2
SOLID
 70
1
 71
0
 91
1
 92
3
 72
0
 73
1
 93
8
 10
3631.157833971818
 20
4744.486881059901
 10
4049.157833971817
 20
4744.486881059901
 10
4049.157833971817
 20
4744.486881059901
 10
4049.157833971817
 20
4732.486881059901
 10
4049.157833971817
 20
4732.486881059901
 10
3631.157833971816
 20
4732.486881059926
 10
3631.157833971816
 20
4732.486881059926
 10
3631.157833971818
 20
4744.486881059901
 97
0
 75
1
 76
1
 98
0
  0
HATCH
  5
166
330
17
100
AcDbEntity
  8
Hachura
 62
7
100
AcDbHatch
 10
0.0
 20
0.0
 30
0.0
210
0.0
220
0.0
230
1.0
  2
SOLID
 70
1
 71
0
 91
1
 92
3
 72
0
 73
1
 93
5
 10
3074.188419150696
 20
4421.788373623345
 10
3067.188419150696
 20
4421.788373623345
 10
3067.188419150696
 20
4407.788373623342
 10
3074.188419150696
 20
4407.788373623342
 10
3074.188419150696
 20
4421.788373623345
 97
0
 75
1
 76
1
 98
0
  0
HATCH
  5
167
330
17
100
AcDbEntity
  8
Hachura
 62
7
100
AcDbHatch
 10
0.0
 20
0.0
 30
0.0
210
0.0
220
0.0
230
1.0
  2
SOLID
 70
1
 71
0
 91
1
 92
3
 72
0
 73
1
 93
9
 10
3098.571842992695
 20
4421.788373623353
 10
3098.571842992695
 20
4417.388373623354
 10
3098.571842992695
 20
4417.388373623352
 10
3112.551205950278
 20
4417.388373623352
 10
3112.551205950278
 20
4417.388373623352
 10
3112.551205950278
 20
4421.788373623352
 10
3112.551205950278
 20
4421.788373623353
 10
3098.571842992691
 20
4421.788373623353
 10
3098.571842992695
 20
4421.788373623353
 97
0
 75
1
 76
1
 98
0
  0
HATCH
  5
168
330
17
100
AcDbEntity
  8
COTA
 62
7
100
AcDbHatch
 10
0.0
 20
0.0
 30
0.0
210
0.0
220
0.0
230
1.0
  2
SOLID
 70
1
 71
0
 91
1
 92
3
 72
0
 73
1
 93
8
 10
3319.295169989418
 20
4558.498813806954
 10
3737.295169989419
 20
4558.498813806954
 10
3737.295169989419
 20
4558.498813806954
 10
3737.295169989419
 20
4546.498813806953
 10
3737.295169989419
 20
4546.498813806953
 10
3319.295169989417
 20
4546.498813806979
 10
3319.295169989417
 20
4546.498813806979
 10
3319.295169989418
 20
4558.498813806954
 97
0
 75
1
 76
1
 98
0
  0
HATCH
  5
169
330
17
100
AcDbEntity
  8
COTA
 62
7
100
AcDbHatch
 10
0.0
 20
0.0
 30
0.0
210
0.0
220
0.0
230
1.0
  2
SOLID
 70
1
 71
0
 91
1
 92
3
 72
0
 73
1
 93
8
 10
4246.547287626021
 20
4558.498813806954
 10
3828.547287626021
 20
4558.498813806954
 10
3828.547287626021
 20
4558.498813806954
 10
3828.547287626021
 20
4546.498813806953
 10
3828.547287626021
 20
4546.498813806953
 10
4246.547287626023
 20
4546.498813806979
 10
4246.547287626023
 20
4546.498813806979
 10
4246.547287626021
 20
4558.498813806954
 97
0
 75
1
 76
1
 98
0
  0
HATCH
  5
16A
330
17
100
AcDbEntity
  8
COTA
 62
7
100
AcDbHatch
 10
0.0
 20
0.0
 30
0.0
210
0.0
220
0.0
230
1.0
  2
SOLID
 70
1
 71
0
 91
1
 92
3
 72
0
 73
1
 93
8
 10
4243.416887176794
 20
4357.13189759314
 10
3829.416887176794
 20
4357.13189759314
 10
3829.416887176794
 20
4357.13189759314
 10
3829.416887176794
 20
4345.13189759314
 10
3829.416887176794
 20
4345.13189759314
 10
4243.416887176795
 20
4345.131897593165
 10
4243.416887176795
 20
4345.131897593165
 10
4243.416887176794
 20
4357.13189759314
 97
0
 75
1
 76
1
 98
0
  0
HATCH
  5
16B
330
17
100
AcDbEntity
  8
COTA
 62
7
100
AcDbHatch
 10
0.0
 20
0.0
 30
0.0
210
0.0
220
0.0
230
1.0
  2
SOLID
 70
1
 71
0
 91
1
 92
3
 72
0
 73
1
 93
8
 10
3933.953401877003
 20
4177.063841445341
 10
3515.953401877003
 20
4177.063841445341
 10
3515.953401877003
 20
4177.063841445341
 10
3515.953401877003
 20
4162.063841445341
 10
3515.953401877003
 20
4162.063841445341
 10
3933.953401877003
 20
4162.063841445367
 10
3933.953401877003
 20
4162.063841445367
 10
3933.953401877003
 20
4177.063841445341
 97
0
 75
1
 76
1
 98
0
  0
HATCH
  5
16C
330
17
100
AcDbEntity
  8
COTA
 62
7
100
AcDbHatch
 10
0.0
 20
0.0
 30
0.0
210
0.0
220
0.0
230
1.0
  2
SOLID
 70
1
 71
0
 91
1
 92
3
 72
0
 73
1
 93
8
 10
3478.735633772714
 20
4172.063841445342
 10
3060.735633772714
 20
4172.063841445342
 10
3060.735633772714
 20
4172.063841445342
 10
3060.735633772714
 20
4157.063841445341
 10
3060.735633772714
 20
4157.063841445341
 10
3478.735633772714
 20
4157.063841445366
 10
3478.735633772714
 20
4157.063841445366
 10
3478.735633772714
 20
4172.063841445342
 97
0
 75
1
 76
1
 98
0
  0
HATCH
  5
16D
330
17
100
AcDbEntity
  8
COTA
 62
7
100
AcDbHatch
 10
0.0
 20
0.0
 30
0.0
210
0.0
220
0.0
230
1.0
  2
SOLID
 70
1
 71
0
 91
1
 92
3
 72
0
 73
1
 93
8
 10
3997.638869953415
 20
4177.063841445356
 10
4244.138869953414
 20
4177.063841445354
 10
4244.138869953414
 20
4177.063841445354
 10
4244.138869953414
 20
4161.063841445314
 10
4244.138869953414
 20
4161.063841445314
 10
3997.638869953413
 20
4161.063841445342
 10
3997.638869953413
 20
4161.063841445342
 10
3997.638869953415
 20
4177.063841445356
 97
0
 75
1
 76
1
 98
0
  0
HATCH
  5
16E
330
17
100
AcDbEntity
  8
Hachura
 62
7
100
AcDbHatch
 10
0.0
 20
0.0
 30
0.0
210
0.0
220
0.0
230
1.0
  2
SOLID
 70
1
 71
0
 91
1
 92
3
 72
0
 73
1
 93
5
 10
3074.188419150696
 20
4307.754399886635
 10
3067.188419150696
 20
4307.754399886635
 10
3067.188419150696
 20
4293.754399886632
 10
3074.188419150696
 20
4293.754399886632
 10
3074.188419150696
 20
4307.754399886635
 97
0
 75
1
 76
1
 98
0
  0
HATCH
  5
16F
330
17
100
AcDbEntity
  8
Hachura
 62
7
100
AcDbHatch
 10
0.0
 20
0.0
 30
0.0
210
0.0
220
0.0
230
1.0
  2
SOLID
 70
1
 71
0
 91
1
 92
3
 72
0
 73
1
 93
9
 10
3098.571842992695
 20
4307.754399886642
 10
3098.571842992695
 20
4303.354399886643
 10
3098.571842992695
 20
4303.354399886642
 10
3112.551205950278
 20
4303.354399886642
 10
3112.551205950278
 20
4303.354399886642
 10
3112.551205950278
 20
4307.754399886641
 10
3112.551205950278
 20
4307.754399886642
 10
3098.571842992691
 20
4307.754399886642
 10
3098.571842992695
 20
4307.754399886642
 97
0
 75
1
 76
1
 98
0
  0
HATCH
  5
170
330
17
100
AcDbEntity
  8
COTA
 62
7
100
AcDbHatch
 10
0.0
 20
0.0
 30
0.0
210
0.0
220
0.0
230
1.0
  2
SOLID
 70
1
 71
0
 91
1
 92
3
 72
0
 73
1
 93
9
 10
3738.795044688436
 20
4357.131897593025
 10
3320.795044688436
 20
4357.131897593025
 10
3320.795044688436
 20
4357.131897593025
 10
3320.795044688436
 20
4345.131897593025
 10
3320.795044688436
 20
4345.131897593025
 10
3738.795044688437
 20
4345.131897593051
 10
3738.795044688439
 20
4345.131897593051
 10
3738.795044688437
 20
4357.131897593025
 10
3738.795044688436
 20
4357.131897593025
 97
0
 75
1
 76
1
 98
0
  0
HATCH
  5
171
330
17
100
AcDbEntity
  8
Hachura
 62
7
100
AcDbHatch
 10
0.0
 20
0.0
 30
0.0
210
0.0
220
0.0
230
1.0
  2
SOLID
 70
1
 71
0
 91
1
 92
3
 72
0
 73
1
 93
8
 10
3163.667144554038
 20
4579.582421469925
 10
3159.267144554044
 20
4579.582421469925
 10
3159.267144554044
 20
4579.582421469925
 10
3159.267144554044
 20
4593.582421469925
 10
3159.267144554044
 20
4593.582421469925
 10
3163.667144554038
 20
4593.582421469925
 10
3163.667144554038
 20
4593.582421469925
 10
3163.667144554038
 20
4579.582421469925
 97
0
 75
1
 76
1
 98
0
  0
HATCH
  5
172
330
17
100
AcDbEntity
  8
Hachura
 62
7
100
AcDbHatch
 10
0.0
 20
0.0
 30
0.0
210
0.0
220
0.0
230
1.0
  2
SOLID
 70
1
 71
0
 91
1
 92
3
 72
0
 73
1
 93
8
 10
3108.867144554039
 20
4571.582421469896
 10
3113.267144554033
 20
4571.582421469896
 10
3113.267144554033
 20
4571.582421469896
 10
3113.267144554033
 20
4585.582421469896
 10
3113.267144554033
 20
4585.582421469896
 10
3108.867144554039
 20
4585.582421469896
 10
3108.867144554039
 20
4585.582421469896
 10
3108.867144554039
 20
4571.582421469896
 97
0
 75
1
 76
1
 98
0
  0
HATCH
  5
173
330
17
100
AcDbEntity
  8
REAPROVEITAMENTO
 62
7
100
AcDbHatch
 10
0.0
 20
0.0
 30
0.0
210
0.0
220
0.0
230
1.0
  2
SOLID
 70
1
 71
0
 91
1
 92
3
 72
0
 73
1
 93
8
 10
3478.73563377272
 20
4113.063841445353
 10
3478.735633772716
 20
4157.063841445364
 10
3478.735633772716
 20
4157.063841445364
 10
3060.735633772718
 20
4157.063841445363
 10
3060.735633772718
 20
4157.063841445363
 10
3060.73563377272
 20
4113.063841445356
 10
3060.73563377272
 20
4113.063841445356
 10
3478.73563377272
 20
4113.063841445353
 97
0
 75
1
 76
1
 98
0
  0
HATCH
  5
174
330
17
100
AcDbEntity
  8
REAPROVEITAMENTO
 62
7
100
AcDbHatch
 10
0.0
 20
0.0
 30
0.0
210
0.0
220
0.0
230
1.0
  2
SOLID
 70
1
 71
0
 91
1
 92
3
 72
0
 73
1
 93
8
 10
3547.952373290032
 20
4692.48688105993
 10
3547.95237329003
 20
4732.486881059922
 10
3547.95237329003
 20
4732.486881059922
 10
3321.952373290024
 20
4732.486881059901
 10
3321.952373290024
 20
4732.486881059901
 10
3321.952373290025
 20
4692.486881059912
 10
3321.952373290025
 20
4692.486881059912
 10
3547.952373290032
 20
4692.48688105993
 97
0
 75
1
 76
1
 98
0
  0
HATCH
  5
175
330
17
100
AcDbEntity
  8
REAPROVEITAMENTO
 62
7
100
AcDbHatch
 10
0.0
 20
0.0
 30
0.0
210
0.0
220
0.0
230
1.0
  2
SOLID
 70
1
 71
0
 91
1
 92
3
 72
0
 73
1
 93
8
 10
4047.157833971815
 20
4692.486881059899
 10
4047.157833971814
 20
4732.486881059902
 10
4047.157833971814
 20
4732.486881059902
 10
3633.157833971814
 20
4732.486881059926
 10
3633.157833971814
 20
4732.486881059926
 10
3633.157833971814
 20
4692.486881059926
 10
3633.157833971814
 20
4692.486881059926
 10
4047.157833971815
 20
4692.486881059899
 97
0
 75
1
 76
1
 98
0
  0
HATCH
  5
176
330
17
100
AcDbEntity
  8
REAPROVEITAMENTO
 62
7
100
AcDbHatch
 10
0.0
 20
0.0
 30
0.0
210
0.0
220
0.0
230
1.0
  2
SOLID
 70
1
 71
0
 91
1
 92
3
 72
0
 73
1
 93
8
 10
3735.295169989416
 20
4506.498813806945
 10
3735.295169989415
 20
4546.498813806948
 10
3735.295169989415
 20
4546.498813806948
 10
3319.295169989414
 20
4546.498813806979
 10
3319.295169989414
 20
4546.498813806979
 10
3319.295169989415
 20
4506.498813806979
 10
3319.295169989415
 20
4506.498813806979
 10
3735.295169989416
 20
4506.498813806945
 97
0
 75
1
 76
1
 98
0
  0
HATCH
  5
177
330
17
100
AcDbEntity
  8
REAPROVEITAMENTO
 62
7
100
AcDbHatch
 10
0.0
 20
0.0
 30
0.0
210
0.0
220
0.0
230
1.0
  2
SOLID
 70
1
 71
0
 91
1
 92
3
 72
0
 73
1
 93
8
 10
4244.547287626025
 20
4506.498813806981
 10
4244.547287626025
 20
4546.498813806976
 10
4244.547287626025
 20
4546.498813806976
 10
3828.54728762602
 20
4546.498813806953
 10
3828.54728762602
 20
4546.498813806953
 10
3828.547287626021
 20
4506.498813806961
 10
3828.547287626021
 20
4506.498813806961
 10
4244.547287626025
 20
4506.498813806981
 97
0
 75
1
 76
1
 98
0
  0
HATCH
  5
178
330
17
100
AcDbEntity
  8
REAPROVEITAMENTO
 62
7
100
AcDbHatch
 10
0.0
 20
0.0
 30
0.0
210
0.0
220
0.0
230
1.0
  2
SOLID
 70
1
 71
0
 91
1
 92
3
 72
0
 73
1
 93
8
 10
3736.795044688442
 20
4305.131897593052
 10
3736.795044688441
 20
4345.131897593048
 10
3736.795044688441
 20
4345.131897593048
 10
3322.795044688437
 20
4345.131897593025
 10
3322.795044688437
 20
4345.131897593025
 10
3322.795044688437
 20
4305.131897593033
 10
3322.795044688437
 20
4305.131897593033
 10
3736.795044688442
 20
4305.131897593052
 97
0
 75
1
 76
1
 98
0
  0
HATCH
  5
179
330
17
100
AcDbEntity
  8
REAPROVEITAMENTO
 62
7
100
AcDbHatch
 10
0.0
 20
0.0
 30
0.0
210
0.0
220
0.0
230
1.0
  2
SOLID
 70
1
 71
0
 91
1
 92
3
 72
0
 73
1
 93
8
 10
4243.416887176798
 20
4305.131897593167
 10
4243.416887176798
 20
4345.131897593162
 10
4243.416887176798
 20
4345.131897593162
 10
3831.416887176793
 20
4345.13189759314
 10
3831.416887176793
 20
4345.13189759314
 10
3831.416887176794
 20
4305.131897593147
 10
3831.416887176794
 20
4305.131897593147
 10
4243.416887176798
 20
4305.131897593167
 97
0
 75
1
 76
1
 98
0
  0
HATCH
  5
17A
330
17
100
AcDbEntity
  8
REAPROVEITAMENTO
 62
7
100
AcDbHatch
 10
0.0
 20
0.0
 30
0.0
210
0.0
220
0.0
230
1.0
  2
SOLID
 70
1
 71
0
 91
1
 92
3
 72
0
 73
1
 93
8
 10
3549.952373290027
 20
4751.486881059892
 10
3321.95237329002
 20
4751.486881059901
 10
3321.95237329002
 20
4751.486881059901
 10
3321.95237329002
 20
4744.486881059912
 10
3321.95237329002
 20
4744.486881059912
 10
3549.952373290027
 20
4744.486881059917
 10
3549.952373290027
 20
4744.486881059917
 10
3549.952373290027
 20
4751.486881059892
 97
0
 75
1
 76
1
 98
0
  0
HATCH
  5
17B
330
17
100
AcDbEntity
  8
REAPROVEITAMENTO
 62
7
100
AcDbHatch
 10
0.0
 20
0.0
 30
0.0
210
0.0
220
0.0
230
1.0
  2
SOLID
 70
1
 71
0
 91
1
 92
3
 72
0
 73
1
 93
8
 10
4049.157833971817
 20
4751.486881059892
 10
3631.157833971811
 20
4751.486881059901
 10
3631.157833971811
 20
4751.486881059901
 10
3631.157833971811
 20
4744.486881059912
 10
3631.157833971811
 20
4744.486881059912
 10
4049.157833971817
 20
4744.486881059917
 10
4049.157833971817
 20
4744.486881059917
 10
4049.157833971817
 20
4751.486881059892
 97
0
 75
1
 76
1
 98
0
  0
HATCH
  5
17C
330
17
100
AcDbEntity
  8
REAPROVEITAMENTO
 62
7
100
AcDbHatch
 10
0.0
 20
0.0
 30
0.0
210
0.0
220
0.0
230
1.0
  2
SOLID
 70
1
 71
0
 91
1
 92
3
 72
0
 73
1
 93
8
 10
3737.295169989419
 20
4565.498813806945
 10
3319.295169989411
 20
4565.498813806954
 10
3319.295169989411
 20
4565.498813806954
 10
3319.295169989411
 20
4558.498813806965
 10
3319.295169989411
 20
4558.498813806965
 10
3737.295169989419
 20
4558.49881380697
 10
3737.295169989419
 20
4558.49881380697
 10
3737.295169989419
 20
4565.498813806945
 97
0
 75
1
 76
1
 98
0
  0
HATCH
  5
17D
330
17
100
AcDbEntity
  8
REAPROVEITAMENTO
 62
7
100
AcDbHatch
 10
0.0
 20
0.0
 30
0.0
210
0.0
220
0.0
230
1.0
  2
SOLID
 70
1
 71
0
 91
1
 92
3
 72
0
 73
1
 93
8
 10
4246.547287626021
 20
4565.498813806945
 10
3828.547287626014
 20
4565.498813806954
 10
3828.547287626014
 20
4565.498813806954
 10
3828.547287626014
 20
4558.498813806965
 10
3828.547287626014
 20
4558.498813806965
 10
4246.547287626021
 20
4558.49881380697
 10
4246.547287626021
 20
4558.49881380697
 10
4246.547287626021
 20
4565.498813806945
 97
0
 75
1
 76
1
 98
0
  0
HATCH
  5
17E
330
17
100
AcDbEntity
  8
REAPROVEITAMENTO
 62
7
100
AcDbHatch
 10
0.0
 20
0.0
 30
0.0
210
0.0
220
0.0
230
1.0
  2
SOLID
 70
1
 71
0
 91
1
 92
3
 72
0
 73
1
 93
8
 10
3738.795044688436
 20
4364.131897593016
 10
3320.795044688428
 20
4364.131897593025
 10
3320.795044688428
 20
4364.131897593025
 10
3320.795044688428
 20
4357.131897593036
 10
3320.795044688428
 20
4357.131897593036
 10
3738.795044688436
 20
4357.131897593041
 10
3738.795044688436
 20
4357.131897593041
 10
3738.795044688436
 20
4364.131897593016
 97
0
 75
1
 76
1
 98
0
  0
HATCH
  5
17F
330
17
100
AcDbEntity
  8
REAPROVEITAMENTO
 62
7
100
AcDbHatch
 10
0.0
 20
0.0
 30
0.0
210
0.0
220
0.0
230
1.0
  2
SOLID
 70
1
 71
0
 91
1
 92
3
 72
0
 73
1
 93
8
 10
4247.416887176794
 20
4364.13189759313
 10
3829.416887176787
 20
4364.131897593139
 10
3829.416887176787
 20
4364.131897593139
 10
3829.416887176787
 20
4357.131897593151
 10
3829.416887176787
 20
4357.131897593151
 10
4247.416887176794
 20
4357.131897593156
 10
4247.416887176794
 20
4357.131897593156
 10
4247.416887176794
 20
4364.13189759313
 97
0
 75
1
 76
1
 98
0
  0
HATCH
  5
180
330
17
100
AcDbEntity
  8
REAPROVEITAMENTO
 62
7
100
AcDbHatch
 10
0.0
 20
0.0
 30
0.0
210
0.0
220
0.0
230
1.0
  2
SOLID
 70
1
 71
0
 91
1
 92
3
 72
0
 73
1
 93
8
 10
3933.95340187701
 20
4118.063841445365
 10
3933.953401877005
 20
4162.063841445364
 10
3933.953401877005
 20
4162.063841445364
 10
3515.953401877002
 20
4162.063841445341
 10
3515.953401877002
 20
4162.063841445341
 10
3515.953401877007
 20
4118.063841445343
 10
3515.953401877007
 20
4118.063841445343
 10
3933.95340187701
 20
4118.063841445365
 97
0
 75
1
 76
1
 98
0
  0
HATCH
  5
181
330
17
100
AcDbEntity
  8
REAPROVEITAMENTO
 62
7
100
AcDbHatch
 10
0.0
 20
0.0
 30
0.0
210
0.0
220
0.0
230
1.0
  2
SOLID
 70
1
 71
0
 91
1
 92
3
 72
0
 73
1
 93
8
 10
4244.138869953409
 20
4118.063841445319
 10
4244.138869953411
 20
4161.063841445353
 10
4244.138869953411
 20
4161.063841445353
 10
3997.63886995341
 20
4161.063841445339
 10
3997.63886995341
 20
4161.063841445339
 10
3997.638869953411
 20
4118.063841445308
 10
3997.638869953411
 20
4118.063841445308
 10
4244.138869953409
 20
4118.063841445319
 97
0
 75
1
 76
1
 98
0
  0
ENDSEC
  0
SECTION
  2
OBJECTS
  0
DICTIONARY
  5
A
330
0
100
AcDbDictionary
281
1
  3
ACAD_COLOR
350
B
  3
ACAD_GROUP
350
C
  3
ACAD_LAYOUT
350
D
  3
ACAD_MATERIAL
350
E
  3
ACAD_MLEADERSTYLE
350
F
  3
ACAD_MLINESTYLE
350
10
  3
ACAD_PLOTSETTINGS
350
11
  3
ACAD_PLOTSTYLENAME
350
12
  3
ACAD_SCALELIST
350
14
  3
ACAD_TABLESTYLE
350
15
  3
ACAD_VISUALSTYLE
350
16
  3
EZDXF_META
350
2D
  0
DICTIONARY
  5
B
330
A
100
AcDbDictionary
281
1
  0
DICTIONARY
  5
C
330
A
100
AcDbDictionary
281
1
  0
DICTIONARY
  5
D
330
A
100
AcDbDictionary
281
1
  3
Model
350
1A
  3
Layout1
350
1E
  0
DICTIONARY
  5
E
330
A
100
AcDbDictionary
281
1
  3
ByBlock
350
1F
  3
ByLayer
350
20
  3
Global
350
21
  0
DICTIONARY
  5
F
330
A
100
AcDbDictionary
281
1
  3
Standard
350
2C
  0
DICTIONARY
  5
10
330
A
100
AcDbDictionary
281
1
  3
Standard
350
22
  0
DICTIONARY
  5
11
330
A
100
AcDbDictionary
281
1
  0
ACDBDICTIONARYWDFLT
  5
12
330
A
100
AcDbDictionary
281
1
  3
Normal
350
13
100
AcDbDictionaryWithDefault
340
13
  0
ACDBPLACEHOLDER
  5
13
330
12
  0
DICTIONARY
  5
14
330
A
100
AcDbDictionary
281
1
  0
DICTIONARY
  5
15
330
A
100
AcDbDictionary
281
1
  0
DICTIONARY
  5
16
330
A
100
AcDbDictionary
281
1
  0
LAYOUT
  5
1A
330
D
100
AcDbPlotSettings
  1

  4
A3
  6

 40
7.5
 41
20.0
 42
7.5
 43
20.0
 44
420.0
 45
297.0
 46
0.0
 47
0.0
 48
0.0
 49
0.0
140
0.0
141
0.0
142
1.0
143
1.0
 70
1024
 72
1
 73
0
 74
5
  7

 75
16
 76
0
 77
2
 78
300
147
1.0
148
0.0
149
0.0
100
AcDbLayout
  1
Model
 70
1
 71
0
 10
0.0
 20
0.0
 11
420.0
 21
297.0
 12
0.0
 22
0.0
 32
0.0
 14
1e+20
 24
1e+20
 34
1e+20
 15
-1e+20
 25
-1e+20
 35
-1e+20
146
0.0
 13
0.0
 23
0.0
 33
0.0
 16
1.0
 26
0.0
 36
0.0
 17
0.0
 27
1.0
 37
0.0
 76
1
330
17
  0
LAYOUT
  5
1E
330
D
100
AcDbPlotSettings
  1

  4
A3
  6

 40
7.5
 41
20.0
 42
7.5
 43
20.0
 44
420.0
 45
297.0
 46
0.0
 47
0.0
 48
0.0
 49
0.0
140
0.0
141
0.0
142
1.0
143
1.0
 70
0
 72
1
 73
0
 74
5
  7

 75
16
 76
0
 77
2
 78
300
147
1.0
148
0.0
149
0.0
100
AcDbLayout
  1
Layout1
 70
1
 71
1
 10
0.0
 20
0.0
 11
420.0
 21
297.0
 12
0.0
 22
0.0
 32
0.0
 14
1e+20
 24
1e+20
 34
1e+20
 15
-1e+20
 25
-1e+20
 35
-1e+20
146
0.0
 13
0.0
 23
0.0
 33
0.0
 16
1.0
 26
0.0
 36
0.0
 17
0.0
 27
1.0
 37
0.0
 76
1
330
1B
  0
MATERIAL
  5
1F
102
{ACAD_REACTORS
330
E
102
}
330
E
100
AcDbMaterial
  1
ByBlock
  2

 70
0
 40
1.0
 71
1
 41
1.0
 91
-1023410177
 42
1.0
 72
1
  3

 73
1
 74
1
 75
1
 44
0.5
 73
0
 45
1.0
 46
1.0
 77
1
  4

 78
1
 79
1
170
1
 48
1.0
171
1
  6

172
1
173
1
174
1
140
1.0
141
1.0
175
1
  7

176
1
177
1
178
1
143
1.0
179
1
  8

270
1
271
1
272
1
145
1.0
146
1.0
273
1
  9

274
1
275
1
276
1
 42
1.0
 72
1
  3

 73
1
 74
1
 75
1
 94
63
  0
MATERIAL
  5
20
102
{ACAD_REACTORS
330
E
102
}
330
E
100
AcDbMaterial
  1
ByLayer
  2

 70
0
 40
1.0
 71
1
 41
1.0
 91
-1023410177
 42
1.0
 72
1
  3

 73
1
 74
1
 75
1
 44
0.5
 73
0
 45
1.0
 46
1.0
 77
1
  4

 78
1
 79
1
170
1
 48
1.0
171
1
  6

172
1
173
1
174
1
140
1.0
141
1.0
175
1
  7

176
1
177
1
178
1
143
1.0
179
1
  8

270
1
271
1
272
1
145
1.0
146
1.0
273
1
  9

274
1
275
1
276
1
 42
1.0
 72
1
  3

 73
1
 74
1
 75
1
 94
63
  0
MATERIAL
  5
21
102
{ACAD_REACTORS
330
E
102
}
330
E
100
AcDbMaterial
  1
Global
  2

 70
0
 40
1.0
 71
1
 41
1.0
 91
-1023410177
 42
1.0
 72
1
  3

 73
1
 74
1
 75
1
 44
0.5
 73
0
 45
1.0
 46
1.0
 77
1
  4

 78
1
 79
1
170
1
 48
1.0
171
1
  6

172
1
173
1
174
1
140
1.0
141
1.0
175
1
  7

176
1
177
1
178
1
143
1.0
179
1
  8

270
1
271
1
272
1
145
1.0
146
1.0
273
1
  9

274
1
275
1
276
1
 42
1.0
 72
1
  3

 73
1
 74
1
 75
1
 94
63
  0
MLINESTYLE
  5
22
102
{ACAD_REACTORS
330
10
102
}
330
10
100
AcDbMlineStyle
  2
Standard
 70
0
  3

 62
256
 51
90.0
 52
90.0
 71
2
 49
0.5
 62
256
  6
BYLAYER
 49
-0.5
 62
256
  6
BYLAYER
  0
MLEADERSTYLE
  5
2C
102
{ACAD_REACTORS
330
F
102
}
330
F
100
AcDbMLeaderStyle
179
2
170
2
171
1
172
0
 90
2
 40
0.0
 41
0.0
173
1
 91
-1056964608
 92
-2
290
1
 42
2.0
291
1
 43
8.0
  3
Standard
 44
4.0
300

342
29
174
1
175
1
176
0
178
1
 93
-1056964608
 45
4.0
292
0
297
0
 46
4.0
 94
-1056964608
 47
1.0
 49
1.0
140
1.0
294
1
141
0.0
177
0
142
1.0
295
0
296
0
143
3.75
271
0
272
9
273
9
  0
DICTIONARY
  5
2D
330
A
100
AcDbDictionary
280
1
281
1
  3
CREATED_BY_EZDXF
350
2E
  3
WRITTEN_BY_EZDXF
350
184
  0
DICTIONARYVAR
  5
2E
330
2D
100
DictionaryVariables
280
0
  1
1.4.3 @ 2026-06-10T16:54:14.464063+00:00
  0
DICTIONARYVAR
  5
184
330
2D
100
DictionaryVariables
280
0
  1
1.4.3 @ 2026-06-10T16:54:14.476644+00:00
  0
ENDSEC
  0
EOF
