  0
SECTION
  2
HEADER
  9
$ACADVER
  1
AC1024
  9
$ACADMAINTVER
 70
6
  9
$DWGCODEPAGE
  3
ANSI_1252
  9
$LASTSAVEDBY
  1
ezdxf
  9
$INSBASE
 10
0.0
 20
0.0
 30
0.0
  9
$EXTMIN
 10
1e+20
 20
1e+20
 30
1e+20
  9
$EXTMAX
 10
-1e+20
 20
-1e+20
 30
-1e+20
  9
$LIMMIN
 10
0.0
 20
0.0
  9
$LIMMAX
 10
420.0
 20
297.0
  9
$ORTHOMODE
 70
0
  9
$REGENMODE
 70
1
  9
$FILLMODE
 70
1
  9
$QTEXTMODE
 70
0
  9
$MIRRTEXT
 70
1
  9
$LTSCALE
 40
1.0
  9
$ATTMODE
 70
1
  9
$TEXTSIZE
 40
2.5
  9
$TRACEWID
 40
1.0
  9
$TEXTSTYLE
  7
Standard
  9
$CLAYER
  8
0
  9
$CELTYPE
  6
ByLayer
  9
$CECOLOR
 62
256
  9
$CELTSCALE
 40
1.0
  9
$DISPSILH
 70
0
  9
$DIMSCALE
 40
1.0
  9
$DIMASZ
 40
2.5
  9
$DIMEXO
 40
0.625
  9
$DIMDLI
 40
3.75
  9
$DIMRND
 40
0.0
  9
$DIMDLE
 40
0.0
  9
$DIMEXE
 40
1.25
  9
$DIMTP
 40
0.0
  9
$DIMTM
 40
0.0
  9
$DIMTXT
 40
2.5
  9
$DIMCEN
 40
2.5
  9
$DIMTSZ
 40
0.0
  9
$DIMTOL
 70
0
  9
$DIMLIM
 70
0
  9
$DIMTIH
 70
0
  9
$DIMTOH
 70
0
  9
$DIMSE1
 70
0
  9
$DIMSE2
 70
0
  9
$DIMTAD
 70
1
  9
$DIMZIN
 70
8
  9
$DIMBLK
  1

  9
$DIMASO
 70
1
  9
$DIMSHO
 70
1
  9
$DIMPOST
  1

  9
$DIMAPOST
  1

  9
$DIMALT
 70
0
  9
$DIMALTD
 70
3
  9
$DIMALTF
 40
0.03937007874
  9
$DIMLFAC
 40
1.0
  9
$DIMTOFL
 70
1
  9
$DIMTVP
 40
0.0
  9
$DIMTIX
 70
0
  9
$DIMSOXD
 70
0
  9
$DIMSAH
 70
0
  9
$DIMBLK1
  1

  9
$DIMBLK2
  1

  9
$DIMSTYLE
  2
ISO-25
  9
$DIMCLRD
 70
0
  9
$DIMCLRE
 70
0
  9
$DIMCLRT
 70
0
  9
$DIMTFAC
 40
1.0
  9
$DIMGAP
 40
0.625
  9
$DIMJUST
 70
0
  9
$DIMSD1
 70
0
  9
$DIMSD2
 70
0
  9
$DIMTOLJ
 70
0
  9
$DIMTZIN
 70
8
  9
$DIMALTZ
 70
0
  9
$DIMALTTZ
 70
0
  9
$DIMUPT
 70
0
  9
$DIMDEC
 70
2
  9
$DIMTDEC
 70
2
  9
$DIMALTU
 70
2
  9
$DIMALTTD
 70
3
  9
$DIMTXSTY
  7
Standard
  9
$DIMAUNIT
 70
0
  9
$DIMADEC
 70
0
  9
$DIMALTRND
 40
0.0
  9
$DIMAZIN
 70
0
  9
$DIMDSEP
 70
44
  9
$DIMATFIT
 70
3
  9
$DIMFRAC
 70
0
  9
$DIMLDRBLK
  1

  9
$DIMLUNIT
 70
2
  9
$DIMLWD
 70
-2
  9
$DIMLWE
 70
-2
  9
$DIMTMOVE
 70
0
  9
$DIMFXL
 40
1.0
  9
$DIMFXLON
 70
0
  9
$DIMJOGANG
 40
0.785398163397
  9
$DIMTFILL
 70
0
  9
$DIMTFILLCLR
 70
0
  9
$DIMARCSYM
 70
0
  9
$DIMLTYPE
  6

  9
$DIMLTEX1
  6

  9
$DIMLTEX2
  6

  9
$DIMTXTDIRECTION
 70
0
  9
$LUNITS
 70
2
  9
$LUPREC
 70
4
  9
$SKETCHINC
 40
1.0
  9
$FILLETRAD
 40
10.0
  9
$AUNITS
 70
0
  9
$AUPREC
 70
2
  9
$MENU
  1
.
  9
$ELEVATION
 40
0.0
  9
$PELEVATION
 40
0.0
  9
$THICKNESS
 40
0.0
  9
$LIMCHECK
 70
0
  9
$CHAMFERA
 40
0.0
  9
$CHAMFERB
 40
0.0
  9
$CHAMFERC
 40
0.0
  9
$CHAMFERD
 40
0.0
  9
$SKPOLY
 70
0
  9
$TDCREATE
 40
2461202.5793287037
  9
$TDUCREATE
 40
2458532.153996898
  9
$TDUPDATE
 40
2461202.5793287037
  9
$TDUUPDATE
 40
2458532.1544311
  9
$TDINDWG
 40
0.0
  9
$TDUSRTIMER
 40
0.0
  9
$USRTIMER
 70
1
  9
$ANGBASE
 50
0.0
  9
$ANGDIR
 70
0
  9
$PDMODE
 70
0
  9
$PDSIZE
 40
0.0
  9
$PLINEWID
 40
0.0
  9
$SPLFRAME
 70
0
  9
$SPLINETYPE
 70
6
  9
$SPLINESEGS
 70
8
  9
$HANDSEED
  5
148
  9
$SURFTAB1
 70
6
  9
$SURFTAB2
 70
6
  9
$SURFTYPE
 70
6
  9
$SURFU
 70
6
  9
$SURFV
 70
6
  9
$UCSBASE
  2

  9
$UCSNAME
  2

  9
$UCSORG
 10
0.0
 20
0.0
 30
0.0
  9
$UCSXDIR
 10
1.0
 20
0.0
 30
0.0
  9
$UCSYDIR
 10
0.0
 20
1.0
 30
0.0
  9
$UCSORTHOREF
  2

  9
$UCSORTHOVIEW
 70
0
  9
$UCSORGTOP
 10
0.0
 20
0.0
 30
0.0
  9
$UCSORGBOTTOM
 10
0.0
 20
0.0
 30
0.0
  9
$UCSORGLEFT
 10
0.0
 20
0.0
 30
0.0
  9
$UCSORGRIGHT
 10
0.0
 20
0.0
 30
0.0
  9
$UCSORGFRONT
 10
0.0
 20
0.0
 30
0.0
  9
$UCSORGBACK
 10
0.0
 20
0.0
 30
0.0
  9
$PUCSBASE
  2

  9
$PUCSNAME
  2

  9
$PUCSORG
 10
0.0
 20
0.0
 30
0.0
  9
$PUCSXDIR
 10
1.0
 20
0.0
 30
0.0
  9
$PUCSYDIR
 10
0.0
 20
1.0
 30
0.0
  9
$PUCSORTHOREF
  2

  9
$PUCSORTHOVIEW
 70
0
  9
$PUCSORGTOP
 10
0.0
 20
0.0
 30
0.0
  9
$PUCSORGBOTTOM
 10
0.0
 20
0.0
 30
0.0
  9
$PUCSORGLEFT
 10
0.0
 20
0.0
 30
0.0
  9
$PUCSORGRIGHT
 10
0.0
 20
0.0
 30
0.0
  9
$PUCSORGFRONT
 10
0.0
 20
0.0
 30
0.0
  9
$PUCSORGBACK
 10
0.0
 20
0.0
 30
0.0
  9
$USERI1
 70
0
  9
$USERI2
 70
0
  9
$USERI3
 70
0
  9
$USERI4
 70
0
  9
$USERI5
 70
0
  9
$USERR1
 40
0.0
  9
$USERR2
 40
0.0
  9
$USERR3
 40
0.0
  9
$USERR4
 40
0.0
  9
$USERR5
 40
0.0
  9
$WORLDVIEW
 70
1
  9
$SHADEDGE
 70
3
  9
$SHADEDIF
 70
70
  9
$TILEMODE
 70
1
  9
$MAXACTVP
 70
64
  9
$PINSBASE
 10
0.0
 20
0.0
 30
0.0
  9
$PLIMCHECK
 70
0
  9
$PEXTMIN
 10
1e+20
 20
1e+20
 30
1e+20
  9
$PEXTMAX
 10
-1e+20
 20
-1e+20
 30
-1e+20
  9
$PLIMMIN
 10
0.0
 20
0.0
  9
$PLIMMAX
 10
420.0
 20
297.0
  9
$UNITMODE
 70
0
  9
$VISRETAIN
 70
1
  9
$PLINEGEN
 70
0
  9
$PSLTSCALE
 70
1
  9
$TREEDEPTH
 70
3020
  9
$CMLSTYLE
  2
Standard
  9
$CMLJUST
 70
0
  9
$CMLSCALE
 40
20.0
  9
$PROXYGRAPHICS
 70
1
  9
$MEASUREMENT
 70
1
  9
$CELWEIGHT
370
-1
  9
$ENDCAPS
280
0
  9
$JOINSTYLE
280
0
  9
$LWDISPLAY
290
0
  9
$INSUNITS
 70
6
  9
$HYPERLINKBASE
  1

  9
$STYLESHEET
  1

  9
$XEDIT
290
1
  9
$CEPSNTYPE
380
0
  9
$PSTYLEMODE
290
1
  9
$FINGERPRINTGUID
  2
{AAD37304-C67A-4656-8568-4ED5D2AC8763}
  9
$VERSIONGUID
  2
{282A06EA-29AB-4D82-8DAE-6327B9A84237}
  9
$EXTNAMES
290
1
  9
$PSVPSCALE
 40
0.0
  9
$OLESTARTUP
290
0
  9
$SORTENTS
280
127
  9
$INDEXCTL
280
0
  9
$HIDETEXT
280
1
  9
$XCLIPFRAME
280
1
  9
$HALOGAP
280
0
  9
$OBSCOLOR
 70
257
  9
$OBSLTYPE
280
0
  9
$INTERSECTIONDISPLAY
280
0
  9
$INTERSECTIONCOLOR
 70
257
  9
$DIMASSOC
280
2
  9
$PROJECTNAME
  1

  9
$CAMERADISPLAY
290
0
  9
$LENSLENGTH
 40
50.0
  9
$CAMERAHEIGHT
 40
0.0
  9
$STEPSPERSEC
 40
24.0
  9
$STEPSIZE
 40
100.0
  9
$3DDWFPREC
 40
2.0
  9
$PSOLWIDTH
 40
0.005
  9
$PSOLHEIGHT
 40
0.08
  9
$LOFTANG1
 40
1.570796326795
  9
$LOFTANG2
 40
1.570796326795
  9
$LOFTMAG1
 40
0.0
  9
$LOFTMAG2
 40
0.0
  9
$LOFTPARAM
 70
7
  9
$LOFTNORMALS
280
1
  9
$LATITUDE
 40
37.795
  9
$LONGITUDE
 40
-122.394
  9
$NORTHDIRECTION
 40
0.0
  9
$TIMEZONE
 70
-8000
  9
$LIGHTGLYPHDISPLAY
280
1
  9
$TILEMODELIGHTSYNCH
280
1
  9
$CMATERIAL
347
20
  9
$SOLIDHIST
280
0
  9
$SHOWHIST
280
1
  9
$DWFFRAME
280
2
  9
$DGNFRAME
280
2
  9
$REALWORLDSCALE
290
1
  9
$INTERFERECOLOR
 62
256
  9
$CSHADOW
280
0
  9
$SHADOWPLANELOCATION
 40
0.0
  0
ENDSEC
  0
SECTION
  2
CLASSES
  0
CLASS
  1
ACDBDICTIONARYWDFLT
  2
AcDbDictionaryWithDefault
  3
ObjectDBX Classes
 90
0
 91
0
280
0
281
0
  0
CLASS
  1
SUN
  2
AcDbSun
  3
SCENEOE
 90
1153
 91
0
280
0
281
0
  0
CLASS
  1
VISUALSTYLE
  2
AcDbVisualStyle
  3
ObjectDBX Classes
 90
4095
 91
0
280
0
281
0
  0
CLASS
  1
MATERIAL
  2
AcDbMaterial
  3
ObjectDBX Classes
 90
1153
 91
0
280
0
281
0
  0
CLASS
  1
SCALE
  2
AcDbScale
  3
ObjectDBX Classes
 90
1153
 91
0
280
0
281
0
  0
CLASS
  1
TABLESTYLE
  2
AcDbTableStyle
  3
ObjectDBX Classes
 90
4095
 91
0
280
0
281
0
  0
CLASS
  1
MLEADERSTYLE
  2
AcDbMLeaderStyle
  3
ACDB_MLEADERSTYLE_CLASS
 90
4095
 91
0
280
0
281
0
  0
CLASS
  1
DICTIONARYVAR
  2
AcDbDictionaryVar
  3
ObjectDBX Classes
 90
0
 91
0
280
0
281
0
  0
CLASS
  1
CELLSTYLEMAP
  2
AcDbCellStyleMap
  3
ObjectDBX Classes
 90
1152
 91
0
280
0
281
0
  0
CLASS
  1
MENTALRAYRENDERSETTINGS
  2
AcDbMentalRayRenderSettings
  3
SCENEOE
 90
1024
 91
0
280
0
281
0
  0
CLASS
  1
ACDBDETAILVIEWSTYLE
  2
AcDbDetailViewStyle
  3
ObjectDBX Classes
 90
1025
 91
0
280
0
281
0
  0
CLASS
  1
ACDBSECTIONVIEWSTYLE
  2
AcDbSectionViewStyle
  3
ObjectDBX Classes
 90
1025
 91
0
280
0
281
0
  0
CLASS
  1
RASTERVARIABLES
  2
AcDbRasterVariables
  3
ISM
 90
0
 91
0
280
0
281
0
  0
CLASS
  1
LAYOUT
  2
AcDbLayout
  3
ObjectDBX Classes
 90
0
 91
0
280
0
281
0
  0
CLASS
  1
ACDBPLACEHOLDER
  2
AcDbPlaceHolder
  3
ObjectDBX Classes
 90
0
 91
0
280
0
281
0
  0
ENDSEC
  0
SECTION
  2
TABLES
  0
TABLE
  2
VPORT
  5
8
330
0
100
AcDbSymbolTable
 70
1
  0
VPORT
  5
23
330
8
100
AcDbSymbolTableRecord
100
AcDbViewportTableRecord
  2
*Active
 70
0
 10
0.0
 20
0.0
 11
1.0
 21
1.0
 12
0.0
 22
0.0
 13
0.0
 23
0.0
 14
0.5
 24
0.5
 15
0.5
 25
0.5
 16
0.0
 26
0.0
 36
1.0
 17
0.0
 27
0.0
 37
0.0
 40
1000.0
 41
1.34
 42
50.0
 43
0.0
 44
0.0
 50
0.0
 51
0.0
 71
0
 72
1000
 73
1
 74
3
 75
0
 76
0
 77
0
 78
0
281
0
 65
0
146
0.0
  0
ENDTAB
  0
TABLE
  2
LTYPE
  5
2
330
0
100
AcDbSymbolTable
 70
3
  0
LTYPE
  5
24
330
2
100
AcDbSymbolTableRecord
100
AcDbLinetypeTableRecord
  2
ByBlock
 70
0
  3

 72
65
 73
0
 40
0.0
  0
LTYPE
  5
25
330
2
100
AcDbSymbolTableRecord
100
AcDbLinetypeTableRecord
  2
ByLayer
 70
0
  3

 72
65
 73
0
 40
0.0
  0
LTYPE
  5
26
330
2
100
AcDbSymbolTableRecord
100
AcDbLinetypeTableRecord
  2
Continuous
 70
0
  3

 72
65
 73
0
 40
0.0
  0
ENDTAB
  0
TABLE
  2
LAYER
  5
1
330
0
100
AcDbSymbolTable
 70
17
  0
LAYER
  5
27
330
1
100
AcDbSymbolTableRecord
100
AcDbLayerTableRecord
  2
0
 70
0
 62
7
  6
Continuous
370
-3
390
13
347
21
  0
LAYER
  5
28
330
1
100
AcDbSymbolTableRecord
100
AcDbLayerTableRecord
  2
Defpoints
 70
0
 62
7
  6
Continuous
290
0
370
-3
390
13
347
21
  0
LAYER
  5
2F
330
1
100
AcDbSymbolTableRecord
100
AcDbLayerTableRecord
  2
COTA
 70
0
 62
7
  6
Continuous
370
-3
390
13
347
21
  0
LAYER
  5
30
330
1
100
AcDbSymbolTableRecord
100
AcDbLayerTableRecord
  2
SARR_EDITAR
 70
0
 62
7
  6
Continuous
370
-3
390
13
347
21
  0
LAYER
  5
31
330
1
100
AcDbSymbolTableRecord
100
AcDbLayerTableRecord
  2
Cotas
 70
0
 62
7
  6
Continuous
370
-3
390
13
347
21
  0
LAYER
  5
32
330
1
100
AcDbSymbolTableRecord
100
AcDbLayerTableRecord
  2
Hachura
 70
0
 62
7
  6
Continuous
370
-3
390
13
347
21
  0
LAYER
  5
33
330
1
100
AcDbSymbolTableRecord
100
AcDbLayerTableRecord
  2
detalhes
 70
0
 62
7
  6
Continuous
370
-3
390
13
347
21
  0
LAYER
  5
34
330
1
100
AcDbSymbolTableRecord
100
AcDbLayerTableRecord
  2
Painéis
 70
0
 62
7
  6
Continuous
370
-3
390
13
347
21
  0
LAYER
  5
35
330
1
100
AcDbSymbolTableRecord
100
AcDbLayerTableRecord
  2
Madeira
 70
0
 62
7
  6
Continuous
370
-3
390
13
347
21
  0
LAYER
  5
36
330
1
100
AcDbSymbolTableRecord
100
AcDbLayerTableRecord
  2
TEXTO PILAR
 70
0
 62
7
  6
Continuous
370
-3
390
13
347
21
  0
LAYER
  5
37
330
1
100
AcDbSymbolTableRecord
100
AcDbLayerTableRecord
  2
SARR_2.2x7
 70
0
 62
7
  6
Continuous
370
-3
390
13
347
21
  0
LAYER
  5
38
330
1
100
AcDbSymbolTableRecord
100
AcDbLayerTableRecord
  2
SARR_3.5x7
 70
0
 62
7
  6
Continuous
370
-3
390
13
347
21
  0
LAYER
  5
39
330
1
100
AcDbSymbolTableRecord
100
AcDbLayerTableRecord
  2
NOMENCLATURA
 70
0
 62
7
  6
Continuous
370
-3
390
13
347
21
  0
LAYER
  5
3A
330
1
100
AcDbSymbolTableRecord
100
AcDbLayerTableRecord
  2
CONCRETO
 70
0
 62
7
  6
Continuous
370
-3
390
13
347
21
  0
LAYER
  5
3B
330
1
100
AcDbSymbolTableRecord
100
AcDbLayerTableRecord
  2
5
 70
0
 62
7
  6
Continuous
370
-3
390
13
347
21
  0
LAYER
  5
3C
330
1
100
AcDbSymbolTableRecord
100
AcDbLayerTableRecord
  2
REAPROVEITAMENTO
 70
0
 62
7
  6
Continuous
370
-3
390
13
347
21
  0
LAYER
  5
3D
330
1
100
AcDbSymbolTableRecord
100
AcDbLayerTableRecord
  2
Texto Seção
 70
0
 62
7
  6
Continuous
370
-3
390
13
347
21
  0
ENDTAB
  0
TABLE
  2
STYLE
  5
5
330
0
100
AcDbSymbolTable
 70
1
  0
STYLE
  5
29
330
5
100
AcDbSymbolTableRecord
100
AcDbTextStyleTableRecord
  2
Standard
 70
0
 40
0.0
 41
1.0
 50
0.0
 71
0
 42
2.5
  3
txt
  4

  0
ENDTAB
  0
TABLE
  2
VIEW
  5
7
330
0
100
AcDbSymbolTable
 70
0
  0
ENDTAB
  0
TABLE
  2
UCS
  5
6
330
0
100
AcDbSymbolTable
 70
0
  0
ENDTAB
  0
TABLE
  2
APPID
  5
3
330
0
100
AcDbSymbolTable
 70
3
  0
APPID
  5
2A
330
3
100
AcDbSymbolTableRecord
100
AcDbRegAppTableRecord
  2
ACAD
 70
0
  0
APPID
  5
145
330
3
100
AcDbSymbolTableRecord
100
AcDbRegAppTableRecord
  2
HATCHBACKGROUNDCOLOR
 70
0
  0
APPID
  5
146
330
3
100
AcDbSymbolTableRecord
100
AcDbRegAppTableRecord
  2
EZDXF
 70
0
  0
ENDTAB
  0
TABLE
  2
DIMSTYLE
  5
4
330
0
100
AcDbSymbolTable
 70
1
100
AcDbDimStyleTable
  0
DIMSTYLE
105
2B
330
4
100
AcDbSymbolTableRecord
100
AcDbDimStyleTableRecord
  2
Standard
 70
0
 40
1.0
 41
2.5
 42
0.625
 43
3.75
 44
1.25
 45
0.0
 46
0.0
 47
0.0
 48
0.0
 49
2.5
140
2.5
141
2.5
142
0.0
143
0.03937007874
144
1.0
145
0.0
146
1.0
147
0.625
148
0.0
 69
0
 70
0
 71
0
 72
0
 73
0
 74
0
 75
0
 76
0
 77
1
 78
8
 79
3
170
0
171
3
172
1
173
0
174
0
175
0
176
0
177
0
178
0
179
2
271
2
272
2
273
2
274
3
275
0
276
0
277
2
278
44
279
0
280
0
281
0
282
0
283
0
284
8
285
0
286
0
288
0
289
3
290
0
371
-2
372
-2
  0
ENDTAB
  0
TABLE
  2
BLOCK_RECORD
  5
9
330
0
100
AcDbSymbolTable
 70
2
  0
BLOCK_RECORD
  5
17
330
9
100
AcDbSymbolTableRecord
100
AcDbBlockTableRecord
  2
*Model_Space
340
1A
 70
0
280
1
281
0
  0
BLOCK_RECORD
  5
1B
330
9
100
AcDbSymbolTableRecord
100
AcDbBlockTableRecord
  2
*Paper_Space
340
1E
 70
0
280
1
281
0
  0
ENDTAB
  0
ENDSEC
  0
SECTION
  2
BLOCKS
  0
BLOCK
  5
18
330
17
100
AcDbEntity
  8
0
100
AcDbBlockBegin
  2
*Model_Space
 70
0
 10
0.0
 20
0.0
 30
0.0
  3
*Model_Space
  1

  0
ENDBLK
  5
19
330
17
100
AcDbEntity
  8
0
100
AcDbBlockEnd
  0
BLOCK
  5
1C
330
1B
100
AcDbEntity
  8
0
100
AcDbBlockBegin
  2
*Paper_Space
 70
0
 10
0.0
 20
0.0
 30
0.0
  3
*Paper_Space
  1

  0
ENDBLK
  5
1D
330
1B
100
AcDbEntity
  8
0
100
AcDbBlockEnd
  0
ENDSEC
  0
SECTION
  2
ENTITIES
  0
LINE
  5
3E
330
17
100
AcDbEntity
  8
Painéis
 62
7
370
25
100
AcDbLine
 10
7799.543172130066
 20
5564.053328029132
 30
0.0
 11
8204.543172130092
 21
5564.053328029161
 31
0.0
  0
LINE
  5
3F
330
17
100
AcDbEntity
  8
Painéis
 62
7
370
25
100
AcDbLine
 10
7776.543172130089
 20
5505.053328029143
 30
0.0
 11
8204.54317213009
 21
5505.053328029161
 31
0.0
  0
LINE
  5
40
330
17
100
AcDbEntity
  8
Painéis
 62
7
370
25
100
AcDbLine
 10
7776.543172130089
 20
5505.053328029143
 30
0.0
 11
7776.543172130089
 21
5510.05332802913
 31
0.0
  0
LINE
  5
41
330
17
100
AcDbEntity
  8
Painéis
 62
7
370
25
100
AcDbLine
 10
8020.543172130089
 20
5505.053328029157
 30
0.0
 11
8020.543172130089
 21
5564.053328029146
 31
0.0
  0
LINE
  5
42
330
17
100
AcDbEntity
  8
Painéis
 62
7
370
25
100
AcDbLine
 10
8204.54317213009
 20
5505.053328029157
 30
0.0
 11
8204.543172130081
 21
5564.053328029161
 31
0.0
  0
LINE
  5
43
330
17
100
AcDbEntity
  8
SARR_2.2x7
 62
7
370
25
100
AcDbLine
 10
8197.543172130092
 20
5505.053328029157
 30
0.0
 11
8197.543172130092
 21
5564.053328029161
 31
0.0
  0
LINE
  5
44
330
17
100
AcDbEntity
  8
Defpoints
 62
7
370
25
100
AcDbLine
 10
8050.370163187865
 20
5806.940977110929
 30
0.0
 11
8050.370163187865
 21
5931.940977110929
 31
0.0
  0
LINE
  5
45
330
17
100
AcDbEntity
  8
SARR_2.2x7
 62
7
370
25
100
AcDbLine
 10
7781.671361234952
 20
5308.867362515314
 30
0.0
 11
7781.671361234948
 21
5367.867362515315
 31
0.0
  0
LINE
  5
46
330
17
100
AcDbEntity
  8
Painéis
 62
7
370
25
100
AcDbLine
 10
7774.671361234947
 20
5367.867362515315
 30
0.0
 11
7946.671361234949
 21
5367.867362515322
 31
0.0
  0
LINE
  5
47
330
17
100
AcDbEntity
  8
Painéis
 62
7
370
25
100
AcDbLine
 10
7774.671361234952
 20
5308.867362515314
 30
0.0
 11
8344.671361234952
 21
5308.867362515339
 31
0.0
  0
LINE
  5
48
330
17
100
AcDbEntity
  8
Painéis
 62
7
370
25
100
AcDbLine
 10
7973.67136123495
 20
5308.867362515329
 30
0.0
 11
7973.671361234948
 21
5367.867362515329
 31
0.0
  0
LINE
  5
49
330
17
100
AcDbEntity
  8
Painéis
 62
7
370
25
100
AcDbLine
 10
7774.671361234952
 20
5308.867362515314
 30
0.0
 11
7774.671361234948
 21
5367.867362515315
 31
0.0
  0
LINE
  5
4A
330
17
100
AcDbEntity
  8
Painéis
 62
7
370
25
100
AcDbLine
 10
7973.671361234949
 20
5313.867362515321
 30
0.0
 11
7946.671361234949
 21
5313.867362515321
 31
0.0
  0
LINE
  5
4B
330
17
100
AcDbEntity
  8
Painéis
 62
7
370
25
100
AcDbLine
 10
7946.671361234949
 20
5313.867362515321
 30
0.0
 11
7946.671361234949
 21
5367.867362515322
 31
0.0
  0
LINE
  5
4C
330
17
100
AcDbEntity
  8
COTA
 62
7
370
25
100
AcDbLine
 10
7946.671361234949
 20
5367.867362515322
 30
0.0
 11
7973.671361234948
 21
5367.867362515329
 31
0.0
  0
LINE
  5
4D
330
17
100
AcDbEntity
  8
SARR_2.2x7
 62
7
370
25
100
AcDbLine
 10
8337.671361234947
 20
5308.867362515314
 30
0.0
 11
8337.67136123495
 21
5367.867362515315
 31
0.0
  0
LINE
  5
4E
330
17
100
AcDbEntity
  8
Painéis
 62
7
370
25
100
AcDbLine
 10
8344.671361234952
 20
5367.867362515315
 30
0.0
 11
8172.67136123495
 21
5367.867362515322
 31
0.0
  0
LINE
  5
4F
330
17
100
AcDbEntity
  8
Painéis
 62
7
370
25
100
AcDbLine
 10
8145.671361234951
 20
5308.867362515329
 30
0.0
 11
8145.671361234954
 21
5367.867362515329
 31
0.0
  0
LINE
  5
50
330
17
100
AcDbEntity
  8
Painéis
 62
7
370
25
100
AcDbLine
 10
8344.671361234947
 20
5308.867362515314
 30
0.0
 11
8344.67136123495
 21
5367.867362515315
 31
0.0
  0
LINE
  5
51
330
17
100
AcDbEntity
  8
Painéis
 62
7
370
25
100
AcDbLine
 10
8145.671361234951
 20
5313.867362515321
 30
0.0
 11
8172.67136123495
 21
5313.867362515321
 31
0.0
  0
LINE
  5
52
330
17
100
AcDbEntity
  8
Painéis
 62
7
370
25
100
AcDbLine
 10
8172.67136123495
 20
5313.867362515321
 30
0.0
 11
8172.67136123495
 21
5367.867362515322
 31
0.0
  0
LINE
  5
53
330
17
100
AcDbEntity
  8
COTA
 62
7
370
25
100
AcDbLine
 10
8172.67136123495
 20
5367.867362515322
 30
0.0
 11
8145.671361234954
 21
5367.867362515329
 31
0.0
  0
LINE
  5
54
330
17
100
AcDbEntity
  8
Painéis
 62
7
370
25
100
AcDbLine
 10
7973.671361234949
 20
5367.867362515322
 30
0.0
 11
8145.671361234954
 21
5367.867362515315
 31
0.0
  0
LINE
  5
55
330
17
100
AcDbEntity
  8
SARR_2.2x7
 62
7
370
25
100
AcDbLine
 10
8337.67136123495
 20
5360.867362515312
 30
0.0
 11
8179.67136123495
 21
5360.867362515325
 31
0.0
  0
LINE
  5
56
330
17
100
AcDbEntity
  8
SARR_2.2x7
 62
7
370
25
100
AcDbLine
 10
8337.67136123495
 20
5315.867362515316
 30
0.0
 11
8172.67136123495
 21
5315.867362515303
 31
0.0
  0
LINE
  5
57
330
17
100
AcDbEntity
  8
SARR_2.2x7
 62
7
370
25
100
AcDbLine
 10
8179.671361234952
 20
5334.867362515335
 30
0.0
 11
8337.671361234927
 21
5334.867362515205
 31
0.0
  0
LINE
  5
58
330
17
100
AcDbEntity
  8
SARR_2.2x7
 62
7
370
25
100
AcDbLine
 10
8179.671361234952
 20
5341.867362515034
 30
0.0
 11
8337.67136123495
 21
5341.867362514904
 31
0.0
  0
LINE
  5
59
330
17
100
AcDbEntity
  8
SARR_2.2x7
 62
7
370
25
100
AcDbLine
 10
8138.671361234953
 20
5360.867362515327
 30
0.0
 11
7980.671361234948
 21
5360.86736251534
 31
0.0
  0
LINE
  5
5A
330
17
100
AcDbEntity
  8
SARR_2.2x7
 62
7
370
25
100
AcDbLine
 10
8138.671361234948
 20
5315.86736251533
 30
0.0
 11
7980.671361234953
 21
5315.867362515318
 31
0.0
  0
LINE
  5
5B
330
17
100
AcDbEntity
  8
SARR_2.2x7
 62
7
370
25
100
AcDbLine
 10
7980.671361234951
 20
5334.867362515354
 30
0.0
 11
8138.671361234951
 21
5334.867362515225
 31
0.0
  0
LINE
  5
5C
330
17
100
AcDbEntity
  8
SARR_2.2x7
 62
7
370
25
100
AcDbLine
 10
7980.671361234951
 20
5341.867362515053
 30
0.0
 11
8138.671361234951
 21
5341.867362514925
 31
0.0
  0
LINE
  5
5D
330
17
100
AcDbEntity
  8
SARR_2.2x7
 62
7
370
25
100
AcDbLine
 10
7939.671361234947
 20
5363.36736251532
 30
0.0
 11
7781.671361234948
 21
5363.367362515333
 31
0.0
  0
LINE
  5
5E
330
17
100
AcDbEntity
  8
SARR_2.2x7
 62
7
370
25
100
AcDbLine
 10
7946.671361234951
 20
5318.367362515323
 30
0.0
 11
7781.671361234952
 21
5318.36736251531
 31
0.0
  0
LINE
  5
5F
330
17
100
AcDbEntity
  8
SARR_2.2x7
 62
7
370
25
100
AcDbLine
 10
7781.67136123495
 20
5337.367362515348
 30
0.0
 11
7939.671361234944
 21
5337.367362515218
 31
0.0
  0
LINE
  5
60
330
17
100
AcDbEntity
  8
SARR_2.2x7
 62
7
370
25
100
AcDbLine
 10
7781.67136123495
 20
5344.367362515045
 30
0.0
 11
7939.671361234944
 21
5344.367362514915
 31
0.0
  0
LINE
  5
61
330
17
100
AcDbEntity
  8
SARR_2.2x7
 62
7
370
25
100
AcDbLine
 10
7939.671361234944
 20
5318.367362515322
 30
0.0
 11
7939.671361234947
 21
5367.867362515315
 31
0.0
  0
LINE
  5
62
330
17
100
AcDbEntity
  8
SARR_2.2x7
 62
7
370
25
100
AcDbLine
 10
8138.671361234948
 20
5308.867362515304
 30
0.0
 11
8138.671361234953
 21
5367.867362515303
 31
0.0
  0
LINE
  5
63
330
17
100
AcDbEntity
  8
SARR_2.2x7
 62
7
370
25
100
AcDbLine
 10
7980.671361234953
 20
5308.867362515325
 30
0.0
 11
7980.671361234948
 21
5367.867362515325
 31
0.0
  0
LINE
  5
64
330
17
100
AcDbEntity
  8
SARR_2.2x7
 62
7
370
25
100
AcDbLine
 10
8179.671361234953
 20
5315.867362515305
 30
0.0
 11
8179.67136123495
 21
5367.867362515315
 31
0.0
  0
LINE
  5
65
330
17
100
AcDbEntity
  8
SARR_2.2x7
 62
7
370
25
100
AcDbLine
 10
8197.543172130094
 20
5557.053328029158
 30
0.0
 11
8020.543172130093
 21
5557.053328029172
 31
0.0
  0
LINE
  5
66
330
17
100
AcDbEntity
  8
SARR_2.2x7
 62
7
370
25
100
AcDbLine
 10
8197.543172130094
 20
5512.053328029161
 30
0.0
 11
8020.543172130089
 21
5512.053328029146
 31
0.0
  0
LINE
  5
67
330
17
100
AcDbEntity
  8
SARR_2.2x7
 62
7
370
25
100
AcDbLine
 10
8020.543172130089
 20
5531.053328029216
 30
0.0
 11
8197.54317213007
 21
5531.05332802905
 31
0.0
  0
LINE
  5
68
330
17
100
AcDbEntity
  8
SARR_2.2x7
 62
7
370
25
100
AcDbLine
 10
8020.543172130093
 20
5538.053328028913
 30
0.0
 11
8197.543172130094
 21
5538.053328028748
 31
0.0
  0
LINE
  5
69
330
17
100
AcDbEntity
  8
SARR_2.2x7
 62
7
370
25
100
AcDbLine
 10
8020.543172130093
 20
5557.05332802915
 30
0.0
 11
7806.543172130055
 21
5557.053328029166
 31
0.0
  0
LINE
  5
6A
330
17
100
AcDbEntity
  8
SARR_2.2x7
 62
7
370
25
100
AcDbLine
 10
8020.543172130093
 20
5512.053328029153
 30
0.0
 11
7806.543172130059
 21
5512.053328029137
 31
0.0
  0
LINE
  5
6B
330
17
100
AcDbEntity
  8
SARR_2.2x7
 62
7
370
25
100
AcDbLine
 10
7806.543172130057
 20
5531.053328029202
 30
0.0
 11
8020.543172130068
 21
5531.053328029043
 31
0.0
  0
LINE
  5
6C
330
17
100
AcDbEntity
  8
SARR_2.2x7
 62
7
370
25
100
AcDbLine
 10
7806.543172130055
 20
5538.0533280289
 30
0.0
 11
8020.543172130093
 21
5538.053328028741
 31
0.0
  0
LINE
  5
6D
330
17
100
AcDbEntity
  8
SARR_2.2x7
 62
7
370
25
100
AcDbLine
 10
7806.543172130059
 20
5505.053328029144
 30
0.0
 11
7806.543172130055
 21
5564.053328029133
 31
0.0
  0
LINE
  5
6E
330
17
100
AcDbEntity
  8
Defpoints
 62
7
370
25
100
AcDbLine
 10
8798.079290943873
 20
5806.940977110929
 30
0.0
 11
8798.079290943873
 21
5931.940977110929
 31
0.0
  0
LINE
  5
6F
330
17
100
AcDbEntity
  8
Painéis
 62
7
370
25
100
AcDbLine
 10
8634.612768566178
 20
5556.28590180256
 30
0.0
 11
9015.11276856618
 21
5556.285901802585
 31
0.0
  0
LINE
  5
70
330
17
100
AcDbEntity
  8
Painéis
 62
7
370
25
100
AcDbLine
 10
8634.612768566183
 20
5497.28590180256
 30
0.0
 11
9015.112768566183
 21
5497.285901802586
 31
0.0
  0
LINE
  5
71
330
17
100
AcDbEntity
  8
Painéis
 62
7
370
25
100
AcDbLine
 10
8878.612768566183
 20
5497.285901802575
 30
0.0
 11
8878.61276856618
 21
5556.285901802574
 31
0.0
  0
LINE
  5
72
330
17
100
AcDbEntity
  8
Painéis
 62
7
370
25
100
AcDbLine
 10
9015.112768566183
 20
5497.285901802586
 30
0.0
 11
9015.11276856618
 21
5556.285901802585
 31
0.0
  0
LINE
  5
73
330
17
100
AcDbEntity
  8
Painéis
 62
7
370
25
100
AcDbLine
 10
8634.612768566183
 20
5497.28590180256
 30
0.0
 11
8634.61276856618
 21
5556.28590180256
 31
0.0
  0
LINE
  5
74
330
17
100
AcDbEntity
  8
Painéis
 62
7
370
25
100
AcDbLine
 10
8511.436560985918
 20
5229.472744387688
 30
0.0
 11
8514.04017836468
 21
5233.07274438768
 31
0.0
  0
LINE
  5
75
330
17
100
AcDbEntity
  8
Painéis
 62
7
370
25
100
AcDbLine
 10
8514.04017836468
 20
5233.07274438768
 30
0.0
 11
8444.185160248595
 21
5233.07274438768
 31
0.0
  0
LINE
  5
76
330
17
100
AcDbEntity
  8
Painéis
 62
7
370
25
100
AcDbLine
 10
8511.436560985918
 20
5229.472744387688
 30
0.0
 11
8444.201322025207
 21
5229.472744387678
 31
0.0
  0
LINE
  5
77
330
17
100
AcDbEntity
  8
SARR_2.2x7
 62
7
370
25
100
AcDbLine
 10
8815.432605029277
 20
5311.596134574994
 30
0.0
 11
8815.432605029275
 21
5354.596134574993
 31
0.0
  0
LINE
  5
78
330
17
100
AcDbEntity
  8
Painéis
 62
7
370
25
100
AcDbLine
 10
8808.432605029271
 20
5354.596134574993
 30
0.0
 11
9027.432605029273
 21
5354.596134575019
 31
0.0
  0
LINE
  5
79
330
17
100
AcDbEntity
  8
Painéis
 62
7
370
25
100
AcDbLine
 10
8808.432605029278
 20
5311.596134574994
 30
0.0
 11
9027.432605029278
 21
5311.596134575019
 31
0.0
  0
LINE
  5
7A
330
17
100
AcDbEntity
  8
Painéis
 62
7
370
25
100
AcDbLine
 10
8930.432605029278
 20
5311.596134575008
 30
0.0
 11
8930.432605029275
 21
5354.596134575008
 31
0.0
  0
LINE
  5
7B
330
17
100
AcDbEntity
  8
Painéis
 62
7
370
25
100
AcDbLine
 10
9027.432605029278
 20
5311.596134575019
 30
0.0
 11
9027.432605029273
 21
5354.596134575019
 31
0.0
  0
LINE
  5
7C
330
17
100
AcDbEntity
  8
Painéis
 62
7
370
25
100
AcDbLine
 10
8808.432605029278
 20
5311.596134574994
 30
0.0
 11
8808.432605029275
 21
5354.596134574993
 31
0.0
  0
LINE
  5
7D
330
17
100
AcDbEntity
  8
SARR_2.2x7
 62
7
370
25
100
AcDbLine
 10
9020.432605029278
 20
5311.596134574994
 30
0.0
 11
9020.432605029284
 21
5354.596134574993
 31
0.0
  0
LINE
  5
7E
330
17
100
AcDbEntity
  8
NOMENCLATURA
 62
7
370
25
100
AcDbLine
 10
8997.039523574696
 20
5337.005251539461
 30
0.0
 11
9039.804293459862
 21
5337.005251539461
 31
0.0
  0
LINE
  5
7F
330
17
100
AcDbEntity
  8
NOMENCLATURA
 62
7
370
25
100
AcDbLine
 10
9034.804293459862
 20
5341.982873428359
 30
0.0
 11
9034.804293459862
 21
5332.027629650559
 31
0.0
  0
LINE
  5
80
330
17
100
AcDbEntity
  8
NOMENCLATURA
 62
7
370
25
100
AcDbLine
 10
9002.039523574696
 20
5341.982873428359
 30
0.0
 11
9002.039523574696
 21
5332.027629650559
 31
0.0
  0
LINE
  5
81
330
17
100
AcDbEntity
  8
NOMENCLATURA
 62
7
370
25
100
AcDbLine
 10
8794.050220086694
 20
5336.185671994264
 30
0.0
 11
8836.81498997186
 21
5336.185671994264
 31
0.0
  0
LINE
  5
82
330
17
100
AcDbEntity
  8
NOMENCLATURA
 62
7
370
25
100
AcDbLine
 10
8831.814989971857
 20
5341.163293883162
 30
0.0
 11
8831.814989971857
 21
5331.208050105361
 31
0.0
  0
LINE
  5
83
330
17
100
AcDbEntity
  8
NOMENCLATURA
 62
7
370
25
100
AcDbLine
 10
8799.050220086694
 20
5341.163293883162
 30
0.0
 11
8799.050220086694
 21
5331.208050105361
 31
0.0
  0
LINE
  5
84
330
17
100
AcDbEntity
  8
SARR_2.2x7
 62
7
370
25
100
AcDbLine
 10
9008.112768566183
 20
5497.285334757268
 30
0.0
 11
9008.112768566183
 21
5556.285901802585
 31
0.0
  0
LINE
  5
85
330
17
100
AcDbEntity
  8
SARR_2.2x7
 62
7
370
25
100
AcDbLine
 10
8641.612768566183
 20
5497.285334757268
 30
0.0
 11
8641.612768566183
 21
5556.285901802585
 31
0.0
  0
LINE
  5
86
330
17
100
AcDbEntity
  8
COTA
 62
7
370
25
100
AcDbLine
 10
8385.977715913928
 20
5931.940977110929
 30
0.0
 11
8385.977715913928
 21
5161.184490521825
 31
0.0
  0
LINE
  5
87
330
17
100
AcDbEntity
  8
SARR_2.2x7
 62
7
370
25
100
AcDbLine
 10
9015.11276856618
 20
5549.285901802583
 30
0.0
 11
8878.612768566183
 21
5549.285901802593
 31
0.0
  0
LINE
  5
88
330
17
100
AcDbEntity
  8
SARR_2.2x7
 62
7
370
25
100
AcDbLine
 10
9015.112768566183
 20
5504.285901802589
 30
0.0
 11
8878.612768566183
 21
5504.285901802576
 31
0.0
  0
LINE
  5
89
330
17
100
AcDbEntity
  8
SARR_2.2x7
 62
7
370
25
100
AcDbLine
 10
8878.612768566183
 20
5523.285901802589
 30
0.0
 11
9015.112768566181
 21
5523.285901802469
 31
0.0
  0
LINE
  5
8A
330
17
100
AcDbEntity
  8
SARR_2.2x7
 62
7
370
25
100
AcDbLine
 10
8878.612768566183
 20
5530.285901802287
 30
0.0
 11
9015.112768566181
 21
5530.285901802167
 31
0.0
  0
LINE
  5
8B
330
17
100
AcDbEntity
  8
SARR_2.2x7
 62
7
370
25
100
AcDbLine
 10
8878.612768566181
 20
5549.285901802575
 30
0.0
 11
8634.61276856618
 21
5549.28590180259
 31
0.0
  0
LINE
  5
8C
330
17
100
AcDbEntity
  8
SARR_2.2x7
 62
7
370
25
100
AcDbLine
 10
8878.612768566183
 20
5504.285901802578
 30
0.0
 11
8634.612768566183
 21
5504.285901802558
 31
0.0
  0
LINE
  5
8D
330
17
100
AcDbEntity
  8
SARR_2.2x7
 62
7
370
25
100
AcDbLine
 10
8634.612768566181
 20
5523.285901802662
 30
0.0
 11
8878.612768566181
 21
5523.285901802462
 31
0.0
  0
LINE
  5
8E
330
17
100
AcDbEntity
  8
SARR_2.2x7
 62
7
370
25
100
AcDbLine
 10
8634.612768566181
 20
5530.28590180236
 30
0.0
 11
8878.612768566183
 21
5530.28590180216
 31
0.0
  0
LINE
  5
8F
330
17
100
AcDbEntity
  8
SARR_2.2x7
 62
7
370
25
100
AcDbLine
 10
8639.712392078616
 20
5311.596134574994
 30
0.0
 11
8639.712392078613
 21
5358.596134574994
 31
0.0
  0
LINE
  5
90
330
17
100
AcDbEntity
  8
Painéis
 62
7
370
25
100
AcDbLine
 10
8632.71239207861
 20
5358.596134574994
 30
0.0
 11
8736.212392078613
 21
5358.596134575019
 31
0.0
  0
LINE
  5
91
330
17
100
AcDbEntity
  8
Painéis
 62
7
370
25
100
AcDbLine
 10
8632.712392078616
 20
5311.596134574994
 30
0.0
 11
8736.212392078616
 21
5311.596134575019
 31
0.0
  0
LINE
  5
92
330
17
100
AcDbEntity
  8
Painéis
 62
7
370
25
100
AcDbLine
 10
8693.712392078616
 20
5311.596134575008
 30
0.0
 11
8693.712392078613
 21
5358.596134575009
 31
0.0
  0
LINE
  5
93
330
17
100
AcDbEntity
  8
Painéis
 62
7
370
25
100
AcDbLine
 10
8736.212392078616
 20
5311.596134575019
 30
0.0
 11
8736.212392078613
 21
5358.596134575019
 31
0.0
  0
LINE
  5
94
330
17
100
AcDbEntity
  8
Painéis
 62
7
370
25
100
AcDbLine
 10
8632.712392078616
 20
5311.596134574994
 30
0.0
 11
8632.712392078613
 21
5358.596134574994
 31
0.0
  0
LINE
  5
95
330
17
100
AcDbEntity
  8
SARR_2.2x7
 62
7
370
25
100
AcDbLine
 10
8729.212392078616
 20
5311.596134574994
 30
0.0
 11
8729.21239207862
 21
5358.596134574994
 31
0.0
  0
LINE
  5
96
330
17
100
AcDbEntity
  8
NOMENCLATURA
 62
7
370
25
100
AcDbLine
 10
8705.819310624034
 20
5337.005251539461
 30
0.0
 11
8748.5840805092
 21
5337.005251539461
 31
0.0
  0
LINE
  5
97
330
17
100
AcDbEntity
  8
NOMENCLATURA
 62
7
370
25
100
AcDbLine
 10
8743.5840805092
 20
5341.982873428359
 30
0.0
 11
8743.5840805092
 21
5332.027629650559
 31
0.0
  0
LINE
  5
98
330
17
100
AcDbEntity
  8
NOMENCLATURA
 62
7
370
25
100
AcDbLine
 10
8710.819310624034
 20
5341.982873428359
 30
0.0
 11
8710.819310624034
 21
5332.027629650559
 31
0.0
  0
LINE
  5
99
330
17
100
AcDbEntity
  8
NOMENCLATURA
 62
7
370
25
100
AcDbLine
 10
8618.330007136032
 20
5336.562063251481
 30
0.0
 11
8661.094777021195
 21
5336.562063251481
 31
0.0
  0
LINE
  5
9A
330
17
100
AcDbEntity
  8
NOMENCLATURA
 62
7
370
25
100
AcDbLine
 10
8656.094777021197
 20
5341.539685140379
 30
0.0
 11
8656.094777021197
 21
5331.584441362579
 31
0.0
  0
LINE
  5
9B
330
17
100
AcDbEntity
  8
NOMENCLATURA
 62
7
370
25
100
AcDbLine
 10
8623.330007136032
 20
5341.539685140379
 30
0.0
 11
8623.330007136032
 21
5331.584441362579
 31
0.0
  0
LINE
  5
9C
330
17
100
AcDbEntity
  8
Painéis
 62
7
370
25
100
AcDbLine
 10
8512.606560985918
 20
5357.019339169722
 30
0.0
 11
8514.04017836468
 21
5360.619339169713
 31
0.0
  0
LINE
  5
9D
330
17
100
AcDbEntity
  8
Painéis
 62
7
370
25
100
AcDbLine
 10
8514.04017836468
 20
5360.619339169713
 30
0.0
 11
8444.185160248595
 21
5360.619339169713
 31
0.0
  0
LINE
  5
9E
330
17
100
AcDbEntity
  8
Painéis
 62
7
370
25
100
AcDbLine
 10
8512.606560985918
 20
5357.019339169722
 30
0.0
 11
8444.201322025207
 21
5357.019339169711
 31
0.0
  0
LINE
  5
9F
330
17
100
AcDbEntity
  8
SARR_2.2x7
 62
7
370
25
100
AcDbLine
 10
8729.212392078616
 20
5351.596134574992
 30
0.0
 11
8693.712392078613
 21
5351.596134574993
 31
0.0
  0
LINE
  5
A0
330
17
100
AcDbEntity
  8
SARR_2.2x7
 62
7
370
25
100
AcDbLine
 10
8729.21239207862
 20
5318.596134574997
 30
0.0
 11
8693.712392078616
 21
5318.596134574995
 31
0.0
  0
LINE
  5
A1
330
17
100
AcDbEntity
  8
SARR_2.2x7
 62
7
370
25
100
AcDbLine
 10
8693.712392078613
 20
5351.596134575006
 30
0.0
 11
8639.712392078613
 21
5351.596134575012
 31
0.0
  0
LINE
  5
A2
330
17
100
AcDbEntity
  8
SARR_2.2x7
 62
7
370
25
100
AcDbLine
 10
8693.712392078616
 20
5318.596134575012
 30
0.0
 11
8639.712392078616
 21
5318.596134575006
 31
0.0
  0
LINE
  5
A3
330
17
100
AcDbEntity
  8
SARR_2.2x7
 62
7
370
25
100
AcDbLine
 10
9020.432605029284
 20
5347.596134575018
 30
0.0
 11
8930.432605029275
 21
5347.596134575023
 31
0.0
  0
LINE
  5
A4
330
17
100
AcDbEntity
  8
SARR_2.2x7
 62
7
370
25
100
AcDbLine
 10
9020.43260502928
 20
5318.596134575021
 30
0.0
 11
8930.432605029277
 21
5318.59613457501
 31
0.0
  0
LINE
  5
A5
330
17
100
AcDbEntity
  8
SARR_2.2x7
 62
7
370
25
100
AcDbLine
 10
8930.432605029275
 20
5347.596134575006
 30
0.0
 11
8815.432605029275
 21
5347.596134575013
 31
0.0
  0
LINE
  5
A6
330
17
100
AcDbEntity
  8
SARR_2.2x7
 62
7
370
25
100
AcDbLine
 10
8930.432605029278
 20
5318.596134575012
 30
0.0
 11
8815.432605029277
 21
5318.596134574999
 31
0.0
  0
LINE
  5
A7
330
17
100
AcDbEntity
  8
COTA
 62
7
370
25
100
AcDbLine
 10
8808.432605029275
 20
5354.596134574993
 30
0.0
 11
8808.432605029275
 21
5370.596134574994
 31
0.0
  0
LINE
  5
A8
330
17
100
AcDbEntity
  8
COTA
 62
7
370
25
100
AcDbLine
 10
8808.432605029275
 20
5370.596134574994
 30
0.0
 11
9027.432605029273
 21
5370.596134574994
 31
0.0
  0
LINE
  5
A9
330
17
100
AcDbEntity
  8
COTA
 62
7
370
25
100
AcDbLine
 10
9027.432605029273
 20
5370.596134574994
 30
0.0
 11
9027.432605029277
 21
5354.596134575019
 31
0.0
  0
LINE
  5
AA
330
17
100
AcDbEntity
  8
COTA
 62
7
370
25
100
AcDbLine
 10
8632.71239207861
 20
5358.596134574994
 30
0.0
 11
8632.71239207861
 21
5370.596134574994
 31
0.0
  0
LINE
  5
AB
330
17
100
AcDbEntity
  8
COTA
 62
7
370
25
100
AcDbLine
 10
8632.71239207861
 20
5370.596134574994
 30
0.0
 11
8736.21239207861
 21
5370.596134574994
 31
0.0
  0
LINE
  5
AC
330
17
100
AcDbEntity
  8
COTA
 62
7
370
25
100
AcDbLine
 10
8736.21239207861
 20
5370.596134574994
 30
0.0
 11
8736.212392078613
 21
5358.596134575019
 31
0.0
  0
LINE
  5
AD
330
17
100
AcDbEntity
  8
SARR_2.2x7
 62
7
370
25
100
AcDbLine
 10
8639.712392078614
 20
5331.596134575023
 30
0.0
 11
8693.712392078614
 21
5331.596134574981
 31
0.0
  0
LINE
  5
AE
330
17
100
AcDbEntity
  8
SARR_2.2x7
 62
7
370
25
100
AcDbLine
 10
8693.712392078614
 20
5331.596134574981
 30
0.0
 11
8729.212392078618
 21
5331.596134574952
 31
0.0
  0
LINE
  5
AF
330
17
100
AcDbEntity
  8
SARR_2.2x7
 62
7
370
25
100
AcDbLine
 10
8639.712392078614
 20
5338.596134574721
 30
0.0
 11
8693.712392078614
 21
5338.596134574679
 31
0.0
  0
LINE
  5
B0
330
17
100
AcDbEntity
  8
SARR_2.2x7
 62
7
370
25
100
AcDbLine
 10
8693.712392078614
 20
5338.596134574679
 30
0.0
 11
8729.212392078618
 21
5338.59613457465
 31
0.0
  0
LINE
  5
B1
330
17
100
AcDbEntity
  8
SARR_2.2x7
 62
7
370
25
100
AcDbLine
 10
8815.432605029277
 20
5329.596134575023
 30
0.0
 11
8930.432605029277
 21
5329.596134574931
 31
0.0
  0
LINE
  5
B2
330
17
100
AcDbEntity
  8
SARR_2.2x7
 62
7
370
25
100
AcDbLine
 10
8930.432605029277
 20
5329.596134574931
 30
0.0
 11
9020.43260502928
 21
5329.596134574856
 31
0.0
  0
LINE
  5
B3
330
17
100
AcDbEntity
  8
SARR_2.2x7
 62
7
370
25
100
AcDbLine
 10
8815.432605029277
 20
5336.596134574721
 30
0.0
 11
8930.432605029277
 21
5336.596134574627
 31
0.0
  0
LINE
  5
B4
330
17
100
AcDbEntity
  8
SARR_2.2x7
 62
7
370
25
100
AcDbLine
 10
8930.432605029277
 20
5336.596134574628
 30
0.0
 11
9020.43260502928
 21
5336.596134574556
 31
0.0
  0
LINE
  5
B5
330
17
100
AcDbEntity
  8
Painéis
 62
7
370
25
100
AcDbLine
 10
7799.543172130069
 20
5564.053328029132
 30
0.0
 11
7799.543172130069
 21
5510.053328029132
 31
0.0
  0
LINE
  5
B6
330
17
100
AcDbEntity
  8
Painéis
 62
7
370
25
100
AcDbLine
 10
7799.543172130069
 20
5510.053328029132
 30
0.0
 11
7776.543172130089
 21
5510.05332802913
 31
0.0
  0
LINE
  5
B7
330
17
100
AcDbEntity
  8
SARR_EDITAR
 62
7
370
25
100
AcDbLine
 10
7799.543172130069
 20
5510.053328029132
 30
0.0
 11
7799.543172130068
 21
5505.053328029145
 31
0.0
  0
LINE
  5
B8
330
17
100
AcDbEntity
  8
SARR_EDITAR
 62
7
370
25
100
AcDbLine
 10
7799.543172130069
 20
5507.553328029138
 30
0.0
 11
7776.543172130089
 21
5507.553328029138
 31
0.0
  0
LINE
  5
B9
330
17
100
AcDbEntity
  8
COTA
 62
7
370
25
100
AcDbLine
 10
7776.543172130089
 20
5510.05332802913
 30
0.0
 11
7776.543172130068
 21
5564.05332802913
 31
0.0
  0
LINE
  5
BA
330
17
100
AcDbEntity
  8
COTA
 62
7
370
25
100
AcDbLine
 10
7776.543172130068
 20
5564.05332802913
 30
0.0
 11
7799.543172130066
 21
5564.053328029132
 31
0.0
  0
LWPOLYLINE
  5
BB
330
17
100
AcDbEntity
  8
Painéis
 62
7
370
25
100
AcDbPolyline
 90
4
 70
1
 10
8025.170163187867
 20
5806.940977110929
 10
8029.170163187869
 20
5806.940977110929
 10
8029.170163187869
 20
5688.940977110928
 10
8025.170163187867
 20
5688.940977110928
  0
LWPOLYLINE
  5
BC
330
17
100
AcDbEntity
  8
Madeira
 62
7
370
25
100
AcDbPolyline
 90
4
 70
1
 10
8067.170163187867
 20
5688.940977110928
 10
8067.170163187867
 20
5693.340977110922
 10
8053.170163187868
 20
5693.340977110922
 10
8053.170163187868
 20
5688.940977110928
  0
LWPOLYLINE
  5
BD
330
17
100
AcDbEntity
  8
Painéis
 62
7
370
25
100
AcDbPolyline
 90
4
 70
1
 10
8067.170163187867
 20
5693.340977110922
 10
8067.170163187867
 20
5696.940977110928
 10
8029.170163187869
 20
5696.940977110928
 10
8029.170163187869
 20
5693.340977110922
  0
LWPOLYLINE
  5
BE
330
17
100
AcDbEntity
  8
Madeira
 62
7
370
25
100
AcDbPolyline
 90
4
 70
1
 10
8029.170163187869
 20
5688.940977110928
 10
8029.170163187869
 20
5693.340977110922
 10
8043.170163187868
 20
5693.340977110922
 10
8043.170163187868
 20
5688.940977110928
  0
LWPOLYLINE
  5
BF
330
17
100
AcDbEntity
  8
Painéis
 62
7
370
25
100
AcDbPolyline
 90
4
 70
1
 10
8071.170163187877
 20
5806.940977110929
 10
8067.17016318788
 20
5806.940977110929
 10
8067.170163187867
 20
5688.940977110928
 10
8071.170163187868
 20
5688.940977110928
  0
LWPOLYLINE
  5
C0
330
17
100
AcDbEntity
  8
CONCRETO
 62
7
370
25
100
AcDbPolyline
 90
8
 70
1
 10
8029.170163187869
 20
5806.940977110929
 10
8029.170163187869
 20
5806.940977110929
 10
8067.170163187878
 20
5806.940977110929
 10
8067.170163187878
 20
5778.940977110915
 10
8067.170163187867
 20
5778.940977110915
 10
8067.170163187808
 20
5696.940977110928
 10
8029.170163187869
 20
5696.940977110928
 10
8029.170163187869
 20
5806.940977110937
  0
LWPOLYLINE
  5
C1
330
17
100
AcDbEntity
  8
Madeira
 62
7
370
25
100
AcDbPolyline
 90
4
 70
1
 10
8020.770163187874
 20
5792.94097711093
 10
8025.170163187867
 20
5792.94097711093
 10
8025.170163187867
 20
5806.940977110929
 10
8020.770163187874
 20
5806.940977110929
  0
LWPOLYLINE
  5
C2
330
17
100
AcDbEntity
  8
Madeira
 62
7
370
25
100
AcDbPolyline
 90
4
 70
1
 10
8020.770163187867
 20
5738.082799913367
 10
8025.170163187862
 20
5738.082799913367
 10
8025.170163187862
 20
5752.082799913367
 10
8020.770163187867
 20
5752.082799913367
  0
LWPOLYLINE
  5
C3
330
17
100
AcDbEntity
  8
Madeira
 62
7
370
25
100
AcDbPolyline
 90
4
 70
1
 10
8020.770163187863
 20
5688.940977110928
 10
8025.170163187857
 20
5688.940977110928
 10
8025.170163187857
 20
5702.940977110928
 10
8020.770163187863
 20
5702.940977110928
  0
LWPOLYLINE
  5
C4
330
17
100
AcDbEntity
  8
Madeira
 62
7
370
25
100
AcDbPolyline
 90
4
 70
1
 10
8075.570163187862
 20
5792.94097711093
 10
8071.170163187868
 20
5792.94097711093
 10
8071.170163187868
 20
5806.940977110929
 10
8075.570163187862
 20
5806.940977110929
  0
LWPOLYLINE
  5
C5
330
17
100
AcDbEntity
  8
Madeira
 62
7
370
25
100
AcDbPolyline
 90
4
 70
1
 10
8075.570163187867
 20
5738.082799913367
 10
8071.170163187874
 20
5738.082799913367
 10
8071.170163187874
 20
5752.082799913367
 10
8075.570163187867
 20
5752.082799913367
  0
LWPOLYLINE
  5
C6
330
17
100
AcDbEntity
  8
Madeira
 62
7
370
25
100
AcDbPolyline
 90
4
 70
1
 10
8075.570163187874
 20
5688.940977110928
 10
8071.170163187877
 20
5688.940977110928
 10
8071.170163187877
 20
5702.940977110928
 10
8075.570163187874
 20
5702.940977110928
  0
LWPOLYLINE
  5
C7
330
17
100
AcDbEntity
  8
Madeira
 62
7
370
25
100
AcDbPolyline
 90
4
 70
1
 10
8500.060815407094
 20
5229.472744387688
 10
8511.436560985918
 20
5229.472744387688
 10
8508.254361967423
 20
5225.07274438768
 10
8500.060815407094
 20
5225.072744387683
  0
LWPOLYLINE
  5
C8
330
17
100
AcDbEntity
  8
Cotas
 62
7
370
25
100
AcDbPolyline
 90
4
 70
1
 10
8414.694456615267
 20
5274.960856921415
 10
8596.659258551052
 20
5274.960856921415
 10
8596.659258551052
 20
5173.524788812779
 10
8414.694456615267
 20
5173.524788812779
  0
LWPOLYLINE
  5
C9
330
17
100
AcDbEntity
  8
Madeira
 62
7
370
25
100
AcDbPolyline
 90
4
 70
1
 10
8475.677391565096
 20
5215.472744387677
 10
8475.677391565096
 20
5229.472744387681
 10
8468.677391565096
 20
5229.472744387681
 10
8468.677391565096
 20
5215.472744387677
  0
LWPOLYLINE
  5
CA
330
17
100
AcDbEntity
  8
Madeira
 62
7
370
25
100
AcDbPolyline
 90
3
 70
0
 10
8475.677391565096
 20
5229.472744387681
 10
8475.677391565096
 20
5215.472744387677
 10
8444.201322025207
 20
5215.472744387677
  0
LWPOLYLINE
  5
CB
330
17
100
AcDbEntity
  8
Painéis
 62
7
370
25
100
AcDbPolyline
 90
4
 70
1
 10
8675.193946893109
 20
5750.174568656884
 10
8671.19394689311
 20
5750.174568656884
 10
8671.19394689311
 20
5664.174568656906
 10
8675.193946893109
 20
5664.174568656906
  0
LWPOLYLINE
  5
CC
330
17
100
AcDbEntity
  8
Madeira
 62
7
370
25
100
AcDbPolyline
 90
4
 70
1
 10
8633.193946893109
 20
5664.174568656906
 10
8633.193946893109
 20
5668.5745686569
 10
8647.193946893109
 20
5668.5745686569
 10
8647.193946893109
 20
5664.174568656906
  0
LWPOLYLINE
  5
CD
330
17
100
AcDbEntity
  8
Painéis
 62
7
370
25
100
AcDbPolyline
 90
4
 70
1
 10
8633.193946893109
 20
5668.5745686569
 10
8633.193946893109
 20
5672.174568656906
 10
8671.19394689311
 20
5672.174568656906
 10
8671.19394689311
 20
5668.5745686569
  0
LWPOLYLINE
  5
CE
330
17
100
AcDbEntity
  8
Madeira
 62
7
370
25
100
AcDbPolyline
 90
4
 70
1
 10
8671.19394689311
 20
5664.174568656906
 10
8671.19394689311
 20
5668.5745686569
 10
8657.193946893109
 20
5668.5745686569
 10
8657.193946893109
 20
5664.174568656906
  0
LWPOLYLINE
  5
CF
330
17
100
AcDbEntity
  8
Painéis
 62
7
370
25
100
AcDbPolyline
 90
4
 70
1
 10
8629.193946893101
 20
5782.174568656906
 10
8633.193946893101
 20
5782.174568656906
 10
8633.193946893109
 20
5664.174568656906
 10
8629.193946893109
 20
5664.174568656906
  0
LWPOLYLINE
  5
D0
330
17
100
AcDbEntity
  8
Painéis
 62
7
370
25
100
AcDbPolyline
 90
4
 70
1
 10
8671.19394689311
 20
5750.174568656884
 10
8671.19394689311
 20
5754.174568656885
 10
8726.793946893087
 20
5754.174568656877
 10
8726.793946893087
 20
5750.174568656877
  0
LWPOLYLINE
  5
D1
330
17
100
AcDbEntity
  8
CONCRETO
 62
7
370
25
100
AcDbPolyline
 90
8
 70
1
 10
8726.793946893087
 20
5754.174568656877
 10
8726.793946893087
 20
5782.174568656906
 10
8633.193946893101
 20
5782.174568656906
 10
8633.193946893101
 20
5754.174568656893
 10
8633.193946893109
 20
5754.174568656893
 10
8633.193946893167
 20
5672.174568656906
 10
8671.19394689311
 20
5672.174568656906
 10
8671.19394689311
 20
5754.174568656885
  0
LWPOLYLINE
  5
D2
330
17
100
AcDbEntity
  8
Madeira
 62
7
370
25
100
AcDbPolyline
 90
4
 70
1
 10
8624.793946893107
 20
5768.174568656906
 10
8629.193946893101
 20
5768.174568656906
 10
8629.193946893101
 20
5782.174568656906
 10
8624.793946893107
 20
5782.174568656906
  0
LWPOLYLINE
  5
D3
330
17
100
AcDbEntity
  8
Madeira
 62
7
370
25
100
AcDbPolyline
 90
4
 70
1
 10
8624.793946893102
 20
5722.27813408211
 10
8629.193946893096
 20
5722.27813408211
 10
8629.193946893096
 20
5736.278134082112
 10
8624.793946893102
 20
5736.278134082112
  0
LWPOLYLINE
  5
D4
330
17
100
AcDbEntity
  8
Madeira
 62
7
370
25
100
AcDbPolyline
 90
4
 70
1
 10
8624.793946893096
 20
5664.174568656906
 10
8629.19394689309
 20
5664.174568656906
 10
8629.19394689309
 20
5678.174568656906
 10
8624.793946893096
 20
5678.174568656906
  0
LWPOLYLINE
  5
D5
330
17
100
AcDbEntity
  8
Madeira
 62
7
370
25
100
AcDbPolyline
 90
4
 70
1
 10
8679.593946893103
 20
5736.174568656885
 10
8675.193946893109
 20
5736.174568656885
 10
8675.193946893109
 20
5750.174568656884
 10
8679.593946893103
 20
5750.174568656884
  0
LWPOLYLINE
  5
D6
330
17
100
AcDbEntity
  8
Madeira
 62
7
370
25
100
AcDbPolyline
 90
4
 70
1
 10
8679.59394689318
 20
5664.174568656906
 10
8675.193946893187
 20
5664.174568656906
 10
8675.193946893187
 20
5678.174568656906
 10
8679.59394689318
 20
5678.174568656906
  0
LWPOLYLINE
  5
D7
330
17
100
AcDbEntity
  8
Painéis
 62
7
370
25
100
AcDbPolyline
 90
4
 70
1
 10
8939.162104291057
 20
5759.475646645964
 10
8935.162104291057
 20
5759.475646645964
 10
8935.162104291057
 20
5665.475646645985
 10
8939.162104291057
 20
5665.475646645985
  0
LWPOLYLINE
  5
D8
330
17
100
AcDbEntity
  8
Madeira
 62
7
370
25
100
AcDbPolyline
 90
4
 70
1
 10
8907.162104291057
 20
5665.475646645985
 10
8907.162104291057
 20
5669.875646645979
 10
8919.162104291057
 20
5669.875646645979
 10
8919.162104291057
 20
5665.475646645985
  0
LWPOLYLINE
  5
D9
330
17
100
AcDbEntity
  8
Painéis
 62
7
370
25
100
AcDbPolyline
 90
4
 70
1
 10
8907.162104291057
 20
5669.875646645979
 10
8907.162104291057
 20
5673.475646645985
 10
8935.162104291057
 20
5673.475646645985
 10
8935.162104291057
 20
5669.875646645979
  0
LWPOLYLINE
  5
DA
330
17
100
AcDbEntity
  8
Madeira
 62
7
370
25
100
AcDbPolyline
 90
4
 70
1
 10
8935.162104291057
 20
5665.475646645985
 10
8935.162104291057
 20
5669.875646645979
 10
8923.162104291057
 20
5669.875646645979
 10
8923.162104291057
 20
5665.475646645985
  0
LWPOLYLINE
  5
DB
330
17
100
AcDbEntity
  8
Painéis
 62
7
370
25
100
AcDbPolyline
 90
4
 70
1
 10
8903.16210429105
 20
5783.475646645985
 10
8907.16210429105
 20
5783.475646645985
 10
8907.162104291057
 20
5665.475646645985
 10
8903.162104291057
 20
5665.475646645985
  0
LWPOLYLINE
  5
DC
330
17
100
AcDbEntity
  8
Painéis
 62
7
370
25
100
AcDbPolyline
 90
4
 70
1
 10
8935.162104291057
 20
5759.475646645964
 10
8935.162104291057
 20
5763.475646645964
 10
8990.762104291034
 20
5763.475646645957
 10
8990.762104291034
 20
5759.475646645956
  0
LWPOLYLINE
  5
DD
330
17
100
AcDbEntity
  8
CONCRETO
 62
7
370
25
100
AcDbPolyline
 90
8
 70
1
 10
8990.762104291034
 20
5763.475646645957
 10
8990.762104291034
 20
5783.475646645985
 10
8907.16210429105
 20
5783.475646645985
 10
8907.16210429105
 20
5755.475646645971
 10
8907.162104291057
 20
5755.475646645971
 10
8907.162104291116
 20
5673.475646645985
 10
8935.162104291057
 20
5673.475646645985
 10
8935.162104291057
 20
5763.475646645964
  0
LWPOLYLINE
  5
DE
330
17
100
AcDbEntity
  8
Madeira
 62
7
370
25
100
AcDbPolyline
 90
4
 70
1
 10
8898.762104291058
 20
5769.475646645986
 10
8903.16210429105
 20
5769.475646645986
 10
8903.16210429105
 20
5783.475646645985
 10
8898.762104291058
 20
5783.475646645985
  0
LWPOLYLINE
  5
DF
330
17
100
AcDbEntity
  8
Madeira
 62
7
370
25
100
AcDbPolyline
 90
4
 70
1
 10
8898.76210429105
 20
5723.579212071189
 10
8903.162104291045
 20
5723.579212071189
 10
8903.162104291045
 20
5737.579212071191
 10
8898.76210429105
 20
5737.579212071191
  0
LWPOLYLINE
  5
E0
330
17
100
AcDbEntity
  8
Madeira
 62
7
370
25
100
AcDbPolyline
 90
4
 70
1
 10
8898.762104291043
 20
5665.475646645985
 10
8903.16210429104
 20
5665.475646645985
 10
8903.16210429104
 20
5679.475646645985
 10
8898.762104291043
 20
5679.475646645985
  0
LWPOLYLINE
  5
E1
330
17
100
AcDbEntity
  8
Madeira
 62
7
370
25
100
AcDbPolyline
 90
4
 70
1
 10
8943.562104291052
 20
5745.475646645964
 10
8939.162104291057
 20
5745.475646645964
 10
8939.162104291057
 20
5759.475646645964
 10
8943.562104291052
 20
5759.475646645964
  0
LWPOLYLINE
  5
E2
330
17
100
AcDbEntity
  8
Madeira
 62
7
370
25
100
AcDbPolyline
 90
4
 70
1
 10
8943.562104291128
 20
5665.475646645985
 10
8939.162104291134
 20
5665.475646645985
 10
8939.162104291134
 20
5679.475646645985
 10
8943.562104291128
 20
5679.475646645985
  0
LWPOLYLINE
  5
E3
330
17
100
AcDbEntity
  8
Madeira
 62
7
370
25
100
AcDbPolyline
 90
4
 70
1
 10
8500.060815407094
 20
5357.019339169722
 10
8512.606560985918
 20
5357.019339169722
 10
8510.854361967424
 20
5352.619339169713
 10
8500.060815407094
 20
5352.619339169716
  0
LWPOLYLINE
  5
E4
330
17
100
AcDbEntity
  8
Cotas
 62
7
370
25
100
AcDbPolyline
 90
4
 70
1
 10
8414.694456615267
 20
5402.507451703449
 10
8596.659258551052
 20
5402.507451703449
 10
8596.659258551052
 20
5301.071383594813
 10
8414.694456615267
 20
5301.071383594813
  0
LWPOLYLINE
  5
E5
330
17
100
AcDbEntity
  8
Madeira
 62
7
370
25
100
AcDbPolyline
 90
4
 70
1
 10
8475.677391565096
 20
5343.019339169711
 10
8475.677391565096
 20
5357.019339169715
 10
8468.677391565096
 20
5357.019339169715
 10
8468.677391565096
 20
5343.019339169711
  0
LWPOLYLINE
  5
E6
330
17
100
AcDbEntity
  8
Madeira
 62
7
370
25
100
AcDbPolyline
 90
3
 70
0
 10
8475.677391565096
 20
5357.019339169715
 10
8475.677391565096
 20
5343.019339169711
 10
8444.201322025207
 20
5343.019339169711
  0
LWPOLYLINE
  5
E7
330
17
100
AcDbEntity
  8
SARR_3.5x7
 62
7
370
25
100
AcDbPolyline
 90
4
 70
1
 10
8610.793946893033
 20
5776.174568656906
 10
8624.793946893033
 20
5776.174568656906
 10
8624.793946893162
 20
5587.6963552511
 10
8610.793946893162
 20
5587.6963552511
  0
LWPOLYLINE
  5
E8
330
17
100
AcDbEntity
  8
SARR_3.5x7
 62
7
370
25
100
AcDbPolyline
 90
4
 70
1
 10
8693.593946893314
 20
5744.174568656877
 10
8679.593946893314
 20
5744.174568656877
 10
8679.593946893172
 20
5587.6963552511
 10
8693.59394689317
 20
5587.6963552511
  0
LWPOLYLINE
  5
E9
330
17
100
AcDbEntity
  8
SARR_3.5x7
 62
7
370
25
100
AcDbPolyline
 90
4
 70
1
 10
8610.79394689302
 20
5664.174568656906
 10
8693.59394689322
 20
5664.174568656903
 10
8693.59394689322
 20
5634.116507052905
 10
8610.79394689302
 20
5634.116507052907
  0
LWPOLYLINE
  5
EA
330
17
100
AcDbEntity
  8
Madeira
 62
7
370
25
100
AcDbPolyline
 90
4
 70
1
 10
8679.593946893103
 20
5700.174568656894
 10
8675.193946893109
 20
5700.174568656894
 10
8675.193946893109
 20
5714.174568656894
 10
8679.593946893103
 20
5714.174568656894
  0
LWPOLYLINE
  5
EB
330
17
100
AcDbEntity
  8
SARR_3.5x7
 62
7
370
25
100
AcDbPolyline
 90
4
 70
1
 10
8884.762104290983
 20
5777.475646645985
 10
8898.762104290981
 20
5777.475646645985
 10
8898.762104291109
 20
5588.997433240179
 10
8884.762104291109
 20
5588.997433240179
  0
LWPOLYLINE
  5
EC
330
17
100
AcDbEntity
  8
SARR_3.5x7
 62
7
370
25
100
AcDbPolyline
 90
4
 70
1
 10
8957.5621042912
 20
5753.475646645957
 10
8943.5621042912
 20
5753.475646645957
 10
8943.562104291059
 20
5588.997433240179
 10
8957.562104291059
 20
5588.997433240179
  0
LWPOLYLINE
  5
ED
330
17
100
AcDbEntity
  8
SARR_3.5x7
 62
7
370
25
100
AcDbPolyline
 90
4
 70
1
 10
8884.762104290969
 20
5665.475646645985
 10
8957.562104291106
 20
5665.475646645983
 10
8957.562104291106
 20
5635.417585041984
 10
8884.762104290969
 20
5635.417585041986
  0
LWPOLYLINE
  5
EE
330
17
100
AcDbEntity
  8
SARR_3.5x7
 62
7
370
25
100
AcDbPolyline
 90
4
 70
1
 10
8006.7701631878
 20
5800.940977110929
 10
8020.770163187799
 20
5800.940977110929
 10
8020.770163187929
 20
5612.462763705122
 10
8006.770163187928
 20
5612.462763705122
  0
LWPOLYLINE
  5
EF
330
17
100
AcDbEntity
  8
SARR_3.5x7
 62
7
370
25
100
AcDbPolyline
 90
4
 70
1
 10
8089.570163188085
 20
5800.940977110933
 10
8075.570163188086
 20
5800.940977110933
 10
8075.570163187938
 20
5612.462763705122
 10
8089.570163187939
 20
5612.462763705122
  0
LWPOLYLINE
  5
F0
330
17
100
AcDbEntity
  8
SARR_3.5x7
 62
7
370
25
100
AcDbPolyline
 90
4
 70
1
 10
8006.770163187786
 20
5688.940977110928
 10
8089.570163187985
 20
5688.940977110927
 10
8089.570163187985
 20
5658.882915506928
 10
8006.770163187786
 20
5658.88291550693
  0
TEXT
  5
F1
330
17
100
AcDbEntity
  8
Texto Seção
 62
7
370
25
100
AcDbText
 10
7810.704037596451
 20
5571.404918589571
 30
0.0
 40
13.0
  1
V5.A
100
AcDbText
  0
TEXT
  5
F2
330
17
100
AcDbEntity
  8
5
 62
7
370
25
100
AcDbText
 10
7778.615926222331
 20
5421.628927817926
 30
0.0
 40
12.0
  1
P26
100
AcDbText
  0
TEXT
  5
F3
330
17
100
AcDbEntity
  8
5
 62
7
370
25
100
AcDbText
 10
8169.056736005797
 20
5426.347223649909
 30
0.0
 40
12.0
  1
P27
100
AcDbText
  0
TEXT
  5
F4
330
17
100
AcDbEntity
  8
detalhes
 62
7
370
25
100
AcDbText
 10
8075.884646363906
 20
5740.601330064054
 30
0.0
 40
9.600000000000001
  1
b
100
AcDbText
  0
TEXT
  5
F5
330
17
100
AcDbEntity
  8
detalhes
 62
7
370
25
100
AcDbText
 10
8013.340987718169
 20
5740.612387509629
 30
0.0
 40
9.600000000000001
  1
a
100
AcDbText
  0
TEXT
  5
F6
330
17
100
AcDbEntity
  8
detalhes
 62
7
370
25
100
AcDbText
 10
8039.770428803313
 20
5699.176730630767
 30
0.0
 40
9.600000000000001
  1
c
100
AcDbText
  0
TEXT
  5
F7
330
17
100
AcDbEntity
  8
5
 62
7
370
25
100
AcDbText
 10
8311.483105840109
 20
5228.928341146803
 30
0.0
 40
12.0
  1
P26
100
AcDbText
  0
TEXT
  5
F8
330
17
100
AcDbEntity
  8
5
 62
7
370
25
100
AcDbText
 10
7773.315952949835
 20
5226.880786282254
 30
0.0
 40
12.0
  1
P27
100
AcDbText
  0
TEXT
  5
F9
330
17
100
AcDbEntity
  8
Texto Seção
 62
7
370
25
100
AcDbText
 10
7770.298199159707
 20
5371.099233757254
 30
0.0
 40
13.0
  1
V5.B
100
AcDbText
  0
TEXT
  5
FA
330
17
100
AcDbEntity
  8
5
 62
7
370
25
100
AcDbText
 10
8633.807782815133
 20
5419.281403369762
 30
0.0
 40
12.0
  1
V9
100
AcDbText
  0
TEXT
  5
FB
330
17
100
AcDbEntity
  8
Texto Seção
 62
7
370
25
100
AcDbText
 10
8637.845600477118
 20
5560.968301538069
 30
0.0
 40
13.0
  1
V6+VF2.A
100
AcDbText
  0
TEXT
  5
FC
330
17
100
AcDbEntity
  8
TEXTO PILAR
 62
7
370
25
100
AcDbText
 10
8437.605811119667
 20
5256.217329863158
 30
0.0
 40
12.0
  1
CORTE B - B
100
AcDbText
  0
TEXT
  5
FD
330
17
100
AcDbEntity
  8
5
 62
7
370
25
100
AcDbText
 10
8633.807782815133
 20
5233.591636142196
 30
0.0
 40
12.0
  1
VF3
100
AcDbText
  0
TEXT
  5
FE
330
17
100
AcDbEntity
  8
Texto Seção
 62
7
370
25
100
AcDbText
 10
8625.72026988958
 20
5384.434915652459
 30
0.0
 40
13.0
  1
V6+VF2.B
100
AcDbText
  0
TEXT
  5
FF
330
17
100
AcDbEntity
  8
detalhes
 62
7
370
25
100
AcDbText
 10
8998.033985128428
 20
5322.349250133536
 30
0.0
 40
9.600000000000001
  1
a
100
AcDbText
  0
TEXT
  5
100
330
17
100
AcDbEntity
  8
detalhes
 62
7
370
25
100
AcDbText
 10
9030.809831906132
 20
5322.349250133536
 30
0.0
 40
9.600000000000001
  1
a
100
AcDbText
  0
TEXT
  5
101
330
17
100
AcDbEntity
  8
detalhes
 62
7
370
25
100
AcDbText
 10
8795.044681640424
 20
5321.529670588338
 30
0.0
 40
9.600000000000001
  1
a
100
AcDbText
  0
TEXT
  5
102
330
17
100
AcDbEntity
  8
detalhes
 62
7
370
25
100
AcDbText
 10
8827.820528418128
 20
5321.529670588338
 30
0.0
 40
9.600000000000001
  1
a
100
AcDbText
  0
TEXT
  5
103
330
17
100
AcDbEntity
  8
detalhes
 62
7
370
25
100
AcDbText
 10
8679.401211582575
 20
5725.180916162369
 30
0.0
 40
9.600000000000001
  1
b
100
AcDbText
  0
TEXT
  5
104
330
17
100
AcDbEntity
  8
detalhes
 62
7
370
25
100
AcDbText
 10
8613.301217284463
 20
5726.240934107588
 30
0.0
 40
9.600000000000001
  1
a
100
AcDbText
  0
TEXT
  5
105
330
17
100
AcDbEntity
  8
detalhes
 62
7
370
25
100
AcDbText
 10
8653.4919268917
 20
5674.410322176744
 30
0.0
 40
9.600000000000001
  1
c
100
AcDbText
  0
TEXT
  5
106
330
17
100
AcDbEntity
  8
detalhes
 62
7
370
25
100
AcDbText
 10
8943.369368980524
 20
5726.481994151448
 30
0.0
 40
9.600000000000001
  1
b
100
AcDbText
  0
TEXT
  5
107
330
17
100
AcDbEntity
  8
detalhes
 62
7
370
25
100
AcDbText
 10
8887.26937468241
 20
5727.542012096667
 30
0.0
 40
9.600000000000001
  1
a
100
AcDbText
  0
TEXT
  5
108
330
17
100
AcDbEntity
  8
detalhes
 62
7
370
25
100
AcDbText
 10
8918.715513001449
 20
5675.711400165823
 30
0.0
 40
9.600000000000001
  1
c
100
AcDbText
  0
TEXT
  5
109
330
17
100
AcDbEntity
  8
detalhes
 62
7
370
25
100
AcDbText
 10
8706.813772177766
 20
5322.349250133536
 30
0.0
 40
9.600000000000001
  1
a
100
AcDbText
  0
TEXT
  5
10A
330
17
100
AcDbEntity
  8
detalhes
 62
7
370
25
100
AcDbText
 10
8739.589618955468
 20
5322.349250133536
 30
0.0
 40
9.600000000000001
  1
a
100
AcDbText
  0
TEXT
  5
10B
330
17
100
AcDbEntity
  8
detalhes
 62
7
370
25
100
AcDbText
 10
8619.324468689763
 20
5321.906061845556
 30
0.0
 40
9.600000000000001
  1
B
100
AcDbText
  0
TEXT
  5
10C
330
17
100
AcDbEntity
  8
detalhes
 62
7
370
25
100
AcDbText
 10
8652.100315467465
 20
5321.906061845556
 30
0.0
 40
9.600000000000001
  1
B
100
AcDbText
  0
TEXT
  5
10D
330
17
100
AcDbEntity
  8
TEXTO PILAR
 62
7
370
25
100
AcDbText
 10
8438.748668262526
 20
5383.763924645192
 30
0.0
 40
12.0
  1
CORTE A - A
100
AcDbText
  0
TEXT
  5
10E
330
17
100
AcDbEntity
  8
5
 62
7
370
25
100
AcDbText
 10
8981.33981836199
 20
5415.114626557803
 30
0.0
 40
12.0
  1
VF3
100
AcDbText
  0
TEXT
  5
10F
330
17
100
AcDbEntity
  8
5
 62
7
370
25
100
AcDbText
 10
8998.924772073344
 20
5232.481599284755
 30
0.0
 40
12.0
  1
V9
100
AcDbText
  0
TEXT
  5
110
330
17
100
AcDbEntity
  8
5
 62
7
370
25
100
AcDbText
 10
8763.487400678512
 20
5233.01113906661
 30
0.0
 40
12.0
  1
V7
100
AcDbText
  0
HATCH
  5
111
330
17
100
AcDbEntity
  8
COTA
 62
7
100
AcDbHatch
 10
0.0
 20
0.0
 30
0.0
210
0.0
220
0.0
230
1.0
  2
SOLID
 70
1
 71
0
 91
1
 92
3
 72
0
 73
1
 93
8
 10
7799.543172130064
 20
5564.053328029139
 10
7776.543172130077
 20
5564.053328029132
 10
7776.543172130077
 20
5564.053328029132
 10
7776.543172130077
 20
5510.053328029132
 10
7776.543172130077
 20
5510.053328029132
 10
7799.543172130069
 20
5510.053328029131
 10
7799.543172130069
 20
5510.053328029131
 10
7799.543172130064
 20
5564.053328029139
 97
0
 75
1
 76
1
 98
0
  0
HATCH
  5
112
330
17
100
AcDbEntity
  8
Hachura
 62
7
100
AcDbHatch
 10
0.0
 20
0.0
 30
0.0
210
0.0
220
0.0
230
1.0
  2
SOLID
 70
1
 71
0
 91
1
 92
3
 72
0
 73
1
 93
8
 10
8029.170163187869
 20
5806.940977110929
 10
8025.170163187867
 20
5806.940977110929
 10
8025.170163187867
 20
5806.940977110929
 10
8025.170163187867
 20
5688.940977110929
 10
8025.170163187867
 20
5688.940977110928
 10
8029.170163187869
 20
5688.940977110928
 10
8029.170163187869
 20
5688.940977110928
 10
8029.170163187869
 20
5806.940977110929
 97
0
 75
1
 76
1
 98
0
  0
HATCH
  5
113
330
17
100
AcDbEntity
  8
Hachura
 62
7
100
AcDbHatch
 10
0.0
 20
0.0
 30
0.0
210
0.0
220
0.0
230
1.0
  2
SOLID
 70
1
 71
0
 91
1
 92
3
 72
0
 73
1
 93
8
 10
8067.170163187867
 20
5688.940977110928
 10
8067.170163187867
 20
5693.340977110922
 10
8067.170163187867
 20
5693.340977110922
 10
8053.170163187868
 20
5693.340977110922
 10
8053.170163187868
 20
5693.340977110922
 10
8053.170163187868
 20
5688.940977110928
 10
8053.170163187868
 20
5688.940977110928
 10
8067.170163187867
 20
5688.940977110928
 97
0
 75
1
 76
1
 98
0
  0
HATCH
  5
114
330
17
100
AcDbEntity
  8
Hachura
 62
7
100
AcDbHatch
 10
0.0
 20
0.0
 30
0.0
210
0.0
220
0.0
230
1.0
  2
SOLID
 70
1
 71
0
 91
1
 92
3
 72
0
 73
1
 93
8
 10
8067.170163187867
 20
5693.340977110922
 10
8067.170163187867
 20
5696.940977110928
 10
8067.170163187867
 20
5696.940977110928
 10
8029.170163187869
 20
5696.940977110928
 10
8029.170163187869
 20
5696.940977110928
 10
8029.170163187869
 20
5693.340977110922
 10
8029.170163187869
 20
5693.340977110922
 10
8067.170163187867
 20
5693.340977110922
 97
0
 75
1
 76
1
 98
0
  0
HATCH
  5
115
330
17
100
AcDbEntity
  8
Hachura
 62
7
100
AcDbHatch
 10
0.0
 20
0.0
 30
0.0
210
0.0
220
0.0
230
1.0
  2
SOLID
 70
1
 71
0
 91
1
 92
3
 72
0
 73
1
 93
8
 10
8029.170163187869
 20
5688.940977110928
 10
8029.170163187869
 20
5693.340977110922
 10
8029.170163187869
 20
5693.340977110922
 10
8043.170163187868
 20
5693.340977110922
 10
8043.170163187868
 20
5693.340977110922
 10
8043.170163187868
 20
5688.940977110928
 10
8043.170163187868
 20
5688.940977110928
 10
8029.170163187869
 20
5688.940977110928
 97
0
 75
1
 76
1
 98
0
  0
HATCH
  5
116
330
17
100
AcDbEntity
  8
Hachura
 62
7
100
AcDbHatch
 10
0.0
 20
0.0
 30
0.0
210
0.0
220
0.0
230
1.0
  2
SOLID
 70
1
 71
0
 91
1
 92
3
 72
0
 73
1
 93
8
 10
8071.170163187868
 20
5806.940977110929
 10
8067.170163187867
 20
5806.940977110929
 10
8067.170163187867
 20
5806.940977110929
 10
8067.170163187867
 20
5688.940977110929
 10
8067.170163187867
 20
5688.940977110928
 10
8071.170163187868
 20
5688.940977110928
 10
8071.170163187868
 20
5688.940977110928
 10
8071.170163187868
 20
5806.940977110929
 97
0
 75
1
 76
1
 98
0
  0
HATCH
  5
117
330
17
100
AcDbEntity
  8
COTA
 62
7
100
AcDbHatch
 10
0.0
 20
0.0
 30
0.0
210
0.0
220
0.0
230
1.0
  2
SOLID
 70
1
 71
0
 91
1
 92
3
 72
0
 73
1
 93
5
 10
7973.671361234948
 20
5367.867362515329
 10
7946.671361234949
 20
5367.867362515322
 10
7946.671361234949
 20
5313.867362515321
 10
7973.67136123495
 20
5313.867362515321
 10
7973.671361234948
 20
5367.867362515329
 97
0
 75
1
 76
1
 98
0
  0
HATCH
  5
118
330
17
100
AcDbEntity
  8
COTA
 62
7
100
AcDbHatch
 10
0.0
 20
0.0
 30
0.0
210
0.0
220
0.0
230
1.0
  2
SOLID
 70
1
 71
0
 91
1
 92
3
 72
0
 73
1
 93
6
 10
8172.67136123492
 20
5365.667362515328
 10
8172.67136123495
 20
5367.867362515322
 10
8145.671361234954
 20
5367.867362515329
 10
8145.671361234951
 20
5313.867362515321
 10
8172.671361234952
 20
5313.867362515321
 10
8172.67136123492
 20
5365.667362515328
 97
0
 75
1
 76
1
 98
0
  0
HATCH
  5
119
330
17
100
AcDbEntity
  8
Hachura
 62
7
100
AcDbHatch
 10
0.0
 20
0.0
 30
0.0
210
0.0
220
0.0
230
1.0
  2
SOLID
 70
1
 71
0
 91
1
 92
3
 72
0
 73
1
 93
8
 10
8020.770163187874
 20
5792.94097711093
 10
8025.170163187867
 20
5792.94097711093
 10
8025.170163187867
 20
5792.94097711093
 10
8025.170163187867
 20
5806.940977110929
 10
8025.170163187867
 20
5806.940977110929
 10
8020.770163187874
 20
5806.940977110929
 10
8020.770163187874
 20
5806.940977110929
 10
8020.770163187874
 20
5792.94097711093
 97
0
 75
1
 76
1
 98
0
  0
HATCH
  5
11A
330
17
100
AcDbEntity
  8
Hachura
 62
7
100
AcDbHatch
 10
0.0
 20
0.0
 30
0.0
210
0.0
220
0.0
230
1.0
  2
SOLID
 70
1
 71
0
 91
1
 92
3
 72
0
 73
1
 93
8
 10
8020.770163187867
 20
5738.082799913367
 10
8025.170163187862
 20
5738.082799913367
 10
8025.170163187862
 20
5738.082799913367
 10
8025.170163187862
 20
5752.082799913367
 10
8025.170163187862
 20
5752.082799913367
 10
8020.770163187867
 20
5752.082799913367
 10
8020.770163187867
 20
5752.082799913367
 10
8020.770163187867
 20
5738.082799913367
 97
0
 75
1
 76
1
 98
0
  0
HATCH
  5
11B
330
17
100
AcDbEntity
  8
Hachura
 62
7
100
AcDbHatch
 10
0.0
 20
0.0
 30
0.0
210
0.0
220
0.0
230
1.0
  2
SOLID
 70
1
 71
0
 91
1
 92
3
 72
0
 73
1
 93
8
 10
8020.770163187863
 20
5688.940977110928
 10
8025.170163187857
 20
5688.940977110928
 10
8025.170163187857
 20
5688.940977110928
 10
8025.170163187857
 20
5702.940977110928
 10
8025.170163187857
 20
5702.940977110928
 10
8020.770163187863
 20
5702.940977110928
 10
8020.770163187863
 20
5702.940977110928
 10
8020.770163187863
 20
5688.940977110928
 97
0
 75
1
 76
1
 98
0
  0
HATCH
  5
11C
330
17
100
AcDbEntity
  8
Hachura
 62
7
100
AcDbHatch
 10
0.0
 20
0.0
 30
0.0
210
0.0
220
0.0
230
1.0
  2
SOLID
 70
1
 71
0
 91
1
 92
3
 72
0
 73
1
 93
8
 10
8075.570163187862
 20
5792.94097711093
 10
8071.170163187868
 20
5792.94097711093
 10
8071.170163187868
 20
5792.94097711093
 10
8071.170163187868
 20
5806.940977110929
 10
8071.170163187868
 20
5806.940977110929
 10
8075.570163187862
 20
5806.940977110929
 10
8075.570163187862
 20
5806.940977110929
 10
8075.570163187862
 20
5792.94097711093
 97
0
 75
1
 76
1
 98
0
  0
HATCH
  5
11D
330
17
100
AcDbEntity
  8
Hachura
 62
7
100
AcDbHatch
 10
0.0
 20
0.0
 30
0.0
210
0.0
220
0.0
230
1.0
  2
SOLID
 70
1
 71
0
 91
1
 92
3
 72
0
 73
1
 93
8
 10
8075.570163187867
 20
5738.082799913367
 10
8071.170163187874
 20
5738.082799913367
 10
8071.170163187874
 20
5738.082799913367
 10
8071.170163187874
 20
5752.082799913367
 10
8071.170163187874
 20
5752.082799913367
 10
8075.570163187867
 20
5752.082799913367
 10
8075.570163187867
 20
5752.082799913367
 10
8075.570163187867
 20
5738.082799913367
 97
0
 75
1
 76
1
 98
0
  0
HATCH
  5
11E
330
17
100
AcDbEntity
  8
Hachura
 62
7
100
AcDbHatch
 10
0.0
 20
0.0
 30
0.0
210
0.0
220
0.0
230
1.0
  2
SOLID
 70
1
 71
0
 91
1
 92
3
 72
0
 73
1
 93
8
 10
8075.570163187874
 20
5688.940977110928
 10
8071.170163187877
 20
5688.940977110928
 10
8071.170163187877
 20
5688.940977110928
 10
8071.170163187877
 20
5702.940977110928
 10
8071.170163187877
 20
5702.940977110928
 10
8075.570163187874
 20
5702.940977110928
 10
8075.570163187874
 20
5702.940977110928
 10
8075.570163187874
 20
5688.940977110928
 97
0
 75
1
 76
1
 98
0
  0
HATCH
  5
11F
330
17
100
AcDbEntity
  8
Hachura
 62
7
100
AcDbHatch
 10
0.0
 20
0.0
 30
0.0
210
0.0
220
0.0
230
1.0
  2
SOLID
 70
1
 71
0
 91
1
 92
3
 72
0
 73
1
 93
8
 10
8511.436560985918
 20
5229.472744387688
 10
8508.254361967423
 20
5225.07274438768
 10
8508.254361967423
 20
5225.07274438768
 10
8500.060815407094
 20
5225.07274438768
 10
8500.060815407094
 20
5225.07274438768
 10
8500.060815407094
 20
5229.472744387688
 10
8500.060815407094
 20
5229.472744387688
 10
8511.436560985918
 20
5229.472744387688
 97
0
 75
1
 76
1
 98
0
  0
HATCH
  5
120
330
17
100
AcDbEntity
  8
Hachura
 62
7
100
AcDbHatch
 10
0.0
 20
0.0
 30
0.0
210
0.0
220
0.0
230
1.0
  2
SOLID
 70
1
 71
0
 91
1
 92
3
 72
0
 73
1
 93
5
 10
8475.677391565096
 20
5229.472744387681
 10
8468.677391565096
 20
5229.472744387681
 10
8468.677391565096
 20
5215.472744387677
 10
8475.677391565096
 20
5215.472744387677
 10
8475.677391565096
 20
5229.472744387681
 97
0
 75
1
 76
1
 98
0
  0
HATCH
  5
121
330
17
100
AcDbEntity
  8
COTA
 62
7
100
AcDbHatch
 10
0.0
 20
0.0
 30
0.0
210
0.0
220
0.0
230
1.0
  2
SOLID
 70
1
 71
0
 91
1
 92
3
 72
0
 73
1
 93
5
 10
9027.432605029273
 20
5370.596134574994
 10
8808.432605029275
 20
5370.596134574994
 10
8808.432605029275
 20
5354.596134574993
 10
9027.432605029277
 20
5354.596134575019
 10
9027.432605029273
 20
5370.596134574994
 97
0
 75
1
 76
1
 98
0
  0
HATCH
  5
122
330
17
100
AcDbEntity
  8
Hachura
 62
7
100
AcDbHatch
 10
0.0
 20
0.0
 30
0.0
210
0.0
220
0.0
230
1.0
  2
SOLID
 70
1
 71
0
 91
1
 92
3
 72
0
 73
1
 93
8
 10
8675.193946893109
 20
5750.174568656884
 10
8671.19394689311
 20
5750.174568656884
 10
8671.19394689311
 20
5750.174568656884
 10
8671.19394689311
 20
5664.174568656907
 10
8671.19394689311
 20
5664.174568656906
 10
8675.193946893109
 20
5664.174568656906
 10
8675.193946893109
 20
5664.174568656906
 10
8675.193946893109
 20
5750.174568656884
 97
0
 75
1
 76
1
 98
0
  0
HATCH
  5
123
330
17
100
AcDbEntity
  8
Hachura
 62
7
100
AcDbHatch
 10
0.0
 20
0.0
 30
0.0
210
0.0
220
0.0
230
1.0
  2
SOLID
 70
1
 71
0
 91
1
 92
3
 72
0
 73
1
 93
8
 10
8633.193946893109
 20
5664.174568656906
 10
8633.193946893109
 20
5668.5745686569
 10
8633.193946893109
 20
5668.5745686569
 10
8647.193946893109
 20
5668.5745686569
 10
8647.193946893109
 20
5668.5745686569
 10
8647.193946893109
 20
5664.174568656906
 10
8647.193946893109
 20
5664.174568656906
 10
8633.193946893109
 20
5664.174568656906
 97
0
 75
1
 76
1
 98
0
  0
HATCH
  5
124
330
17
100
AcDbEntity
  8
Hachura
 62
7
100
AcDbHatch
 10
0.0
 20
0.0
 30
0.0
210
0.0
220
0.0
230
1.0
  2
SOLID
 70
1
 71
0
 91
1
 92
3
 72
0
 73
1
 93
8
 10
8633.193946893109
 20
5668.5745686569
 10
8633.193946893109
 20
5672.174568656906
 10
8633.193946893109
 20
5672.174568656906
 10
8671.19394689311
 20
5672.174568656906
 10
8671.19394689311
 20
5672.174568656906
 10
8671.19394689311
 20
5668.5745686569
 10
8671.19394689311
 20
5668.5745686569
 10
8633.193946893109
 20
5668.5745686569
 97
0
 75
1
 76
1
 98
0
  0
HATCH
  5
125
330
17
100
AcDbEntity
  8
Hachura
 62
7
100
AcDbHatch
 10
0.0
 20
0.0
 30
0.0
210
0.0
220
0.0
230
1.0
  2
SOLID
 70
1
 71
0
 91
1
 92
3
 72
0
 73
1
 93
8
 10
8671.19394689311
 20
5664.174568656906
 10
8671.19394689311
 20
5668.5745686569
 10
8671.19394689311
 20
5668.5745686569
 10
8657.193946893109
 20
5668.5745686569
 10
8657.193946893109
 20
5668.5745686569
 10
8657.193946893109
 20
5664.174568656906
 10
8657.193946893109
 20
5664.174568656906
 10
8671.19394689311
 20
5664.174568656906
 97
0
 75
1
 76
1
 98
0
  0
HATCH
  5
126
330
17
100
AcDbEntity
  8
Hachura
 62
7
100
AcDbHatch
 10
0.0
 20
0.0
 30
0.0
210
0.0
220
0.0
230
1.0
  2
SOLID
 70
1
 71
0
 91
1
 92
3
 72
0
 73
1
 93
8
 10
8629.193946893109
 20
5782.174568656906
 10
8633.193946893109
 20
5782.174568656906
 10
8633.193946893109
 20
5782.174568656906
 10
8633.193946893109
 20
5664.174568656907
 10
8633.193946893109
 20
5664.174568656906
 10
8629.193946893109
 20
5664.174568656906
 10
8629.193946893109
 20
5664.174568656906
 10
8629.193946893109
 20
5782.174568656906
 97
0
 75
1
 76
1
 98
0
  0
HATCH
  5
127
330
17
100
AcDbEntity
  8
Hachura
 62
7
100
AcDbHatch
 10
0.0
 20
0.0
 30
0.0
210
0.0
220
0.0
230
1.0
  2
SOLID
 70
1
 71
0
 91
1
 92
3
 72
0
 73
1
 93
8
 10
8671.19394689311
 20
5750.174568656884
 10
8671.19394689311
 20
5754.174568656885
 10
8671.19394689311
 20
5754.174568656885
 10
8726.793946893087
 20
5754.174568656877
 10
8726.793946893087
 20
5754.174568656877
 10
8726.793946893087
 20
5750.174568656877
 10
8726.793946893087
 20
5750.174568656877
 10
8671.19394689311
 20
5750.174568656884
 97
0
 75
1
 76
1
 98
0
  0
HATCH
  5
128
330
17
100
AcDbEntity
  8
Hachura
 62
7
100
AcDbHatch
 10
0.0
 20
0.0
 30
0.0
210
0.0
220
0.0
230
1.0
  2
SOLID
 70
1
 71
0
 91
1
 92
3
 72
0
 73
1
 93
8
 10
8624.793946893107
 20
5768.174568656906
 10
8629.193946893101
 20
5768.174568656906
 10
8629.193946893101
 20
5768.174568656906
 10
8629.193946893101
 20
5782.174568656906
 10
8629.193946893101
 20
5782.174568656906
 10
8624.793946893107
 20
5782.174568656906
 10
8624.793946893107
 20
5782.174568656906
 10
8624.793946893107
 20
5768.174568656906
 97
0
 75
1
 76
1
 98
0
  0
HATCH
  5
129
330
17
100
AcDbEntity
  8
Hachura
 62
7
100
AcDbHatch
 10
0.0
 20
0.0
 30
0.0
210
0.0
220
0.0
230
1.0
  2
SOLID
 70
1
 71
0
 91
1
 92
3
 72
0
 73
1
 93
8
 10
8624.793946893102
 20
5722.27813408211
 10
8629.193946893096
 20
5722.27813408211
 10
8629.193946893096
 20
5722.27813408211
 10
8629.193946893096
 20
5736.278134082112
 10
8629.193946893096
 20
5736.278134082112
 10
8624.793946893102
 20
5736.278134082112
 10
8624.793946893102
 20
5736.278134082112
 10
8624.793946893102
 20
5722.27813408211
 97
0
 75
1
 76
1
 98
0
  0
HATCH
  5
12A
330
17
100
AcDbEntity
  8
Hachura
 62
7
100
AcDbHatch
 10
0.0
 20
0.0
 30
0.0
210
0.0
220
0.0
230
1.0
  2
SOLID
 70
1
 71
0
 91
1
 92
3
 72
0
 73
1
 93
8
 10
8624.793946893096
 20
5664.174568656906
 10
8629.19394689309
 20
5664.174568656906
 10
8629.19394689309
 20
5664.174568656906
 10
8629.19394689309
 20
5678.174568656906
 10
8629.19394689309
 20
5678.174568656906
 10
8624.793946893096
 20
5678.174568656906
 10
8624.793946893096
 20
5678.174568656906
 10
8624.793946893096
 20
5664.174568656906
 97
0
 75
1
 76
1
 98
0
  0
HATCH
  5
12B
330
17
100
AcDbEntity
  8
Hachura
 62
7
100
AcDbHatch
 10
0.0
 20
0.0
 30
0.0
210
0.0
220
0.0
230
1.0
  2
SOLID
 70
1
 71
0
 91
1
 92
3
 72
0
 73
1
 93
8
 10
8679.593946893103
 20
5736.174568656885
 10
8675.193946893109
 20
5736.174568656885
 10
8675.193946893109
 20
5736.174568656885
 10
8675.193946893109
 20
5750.174568656884
 10
8675.193946893109
 20
5750.174568656884
 10
8679.593946893103
 20
5750.174568656884
 10
8679.593946893103
 20
5750.174568656884
 10
8679.593946893103
 20
5736.174568656885
 97
0
 75
1
 76
1
 98
0
  0
HATCH
  5
12C
330
17
100
AcDbEntity
  8
Hachura
 62
7
100
AcDbHatch
 10
0.0
 20
0.0
 30
0.0
210
0.0
220
0.0
230
1.0
  2
SOLID
 70
1
 71
0
 91
1
 92
3
 72
0
 73
1
 93
8
 10
8679.59394689318
 20
5664.174568656906
 10
8675.193946893187
 20
5664.174568656906
 10
8675.193946893187
 20
5664.174568656906
 10
8675.193946893187
 20
5678.174568656906
 10
8675.193946893187
 20
5678.174568656906
 10
8679.59394689318
 20
5678.174568656906
 10
8679.59394689318
 20
5678.174568656906
 10
8679.59394689318
 20
5664.174568656906
 97
0
 75
1
 76
1
 98
0
  0
HATCH
  5
12D
330
17
100
AcDbEntity
  8
Hachura
 62
7
100
AcDbHatch
 10
0.0
 20
0.0
 30
0.0
210
0.0
220
0.0
230
1.0
  2
SOLID
 70
1
 71
0
 91
1
 92
3
 72
0
 73
1
 93
8
 10
8939.162104291057
 20
5759.475646645964
 10
8935.162104291057
 20
5759.475646645964
 10
8935.162104291057
 20
5759.475646645964
 10
8935.162104291057
 20
5665.475646645986
 10
8935.162104291057
 20
5665.475646645985
 10
8939.162104291057
 20
5665.475646645985
 10
8939.162104291057
 20
5665.475646645985
 10
8939.162104291057
 20
5759.475646645964
 97
0
 75
1
 76
1
 98
0
  0
HATCH
  5
12E
330
17
100
AcDbEntity
  8
Hachura
 62
7
100
AcDbHatch
 10
0.0
 20
0.0
 30
0.0
210
0.0
220
0.0
230
1.0
  2
SOLID
 70
1
 71
0
 91
1
 92
3
 72
0
 73
1
 93
8
 10
8907.162104291057
 20
5665.475646645985
 10
8907.162104291057
 20
5669.875646645979
 10
8907.162104291057
 20
5669.875646645979
 10
8919.162104291057
 20
5669.875646645979
 10
8919.162104291057
 20
5669.875646645979
 10
8919.162104291057
 20
5665.475646645985
 10
8919.162104291057
 20
5665.475646645985
 10
8907.162104291057
 20
5665.475646645985
 97
0
 75
1
 76
1
 98
0
  0
HATCH
  5
12F
330
17
100
AcDbEntity
  8
Hachura
 62
7
100
AcDbHatch
 10
0.0
 20
0.0
 30
0.0
210
0.0
220
0.0
230
1.0
  2
SOLID
 70
1
 71
0
 91
1
 92
3
 72
0
 73
1
 93
8
 10
8907.162104291057
 20
5669.875646645979
 10
8907.162104291057
 20
5673.475646645985
 10
8907.162104291057
 20
5673.475646645985
 10
8935.162104291057
 20
5673.475646645985
 10
8935.162104291057
 20
5673.475646645985
 10
8935.162104291057
 20
5669.875646645979
 10
8935.162104291057
 20
5669.875646645979
 10
8907.162104291057
 20
5669.875646645979
 97
0
 75
1
 76
1
 98
0
  0
HATCH
  5
130
330
17
100
AcDbEntity
  8
Hachura
 62
7
100
AcDbHatch
 10
0.0
 20
0.0
 30
0.0
210
0.0
220
0.0
230
1.0
  2
SOLID
 70
1
 71
0
 91
1
 92
3
 72
0
 73
1
 93
8
 10
8935.162104291057
 20
5665.475646645985
 10
8935.162104291057
 20
5669.875646645979
 10
8935.162104291057
 20
5669.875646645979
 10
8923.162104291057
 20
5669.875646645979
 10
8923.162104291057
 20
5669.875646645979
 10
8923.162104291057
 20
5665.475646645985
 10
8923.162104291057
 20
5665.475646645985
 10
8935.162104291057
 20
5665.475646645985
 97
0
 75
1
 76
1
 98
0
  0
HATCH
  5
131
330
17
100
AcDbEntity
  8
Hachura
 62
7
100
AcDbHatch
 10
0.0
 20
0.0
 30
0.0
210
0.0
220
0.0
230
1.0
  2
SOLID
 70
1
 71
0
 91
1
 92
3
 72
0
 73
1
 93
8
 10
8903.162104291057
 20
5783.475646645985
 10
8907.162104291057
 20
5783.475646645985
 10
8907.162104291057
 20
5783.475646645985
 10
8907.162104291057
 20
5665.475646645986
 10
8907.162104291057
 20
5665.475646645985
 10
8903.162104291057
 20
5665.475646645985
 10
8903.162104291057
 20
5665.475646645985
 10
8903.162104291057
 20
5783.475646645985
 97
0
 75
1
 76
1
 98
0
  0
HATCH
  5
132
330
17
100
AcDbEntity
  8
Hachura
 62
7
100
AcDbHatch
 10
0.0
 20
0.0
 30
0.0
210
0.0
220
0.0
230
1.0
  2
SOLID
 70
1
 71
0
 91
1
 92
3
 72
0
 73
1
 93
8
 10
8935.162104291057
 20
5759.475646645964
 10
8935.162104291057
 20
5763.475646645964
 10
8935.162104291057
 20
5763.475646645964
 10
8990.762104291034
 20
5763.475646645957
 10
8990.762104291034
 20
5763.475646645957
 10
8990.762104291034
 20
5759.475646645956
 10
8990.762104291034
 20
5759.475646645956
 10
8935.162104291057
 20
5759.475646645964
 97
0
 75
1
 76
1
 98
0
  0
HATCH
  5
133
330
17
100
AcDbEntity
  8
Hachura
 62
7
100
AcDbHatch
 10
0.0
 20
0.0
 30
0.0
210
0.0
220
0.0
230
1.0
  2
SOLID
 70
1
 71
0
 91
1
 92
3
 72
0
 73
1
 93
8
 10
8898.762104291058
 20
5769.475646645986
 10
8903.16210429105
 20
5769.475646645986
 10
8903.16210429105
 20
5769.475646645986
 10
8903.16210429105
 20
5783.475646645985
 10
8903.16210429105
 20
5783.475646645985
 10
8898.762104291058
 20
5783.475646645985
 10
8898.762104291058
 20
5783.475646645985
 10
8898.762104291058
 20
5769.475646645986
 97
0
 75
1
 76
1
 98
0
  0
HATCH
  5
134
330
17
100
AcDbEntity
  8
Hachura
 62
7
100
AcDbHatch
 10
0.0
 20
0.0
 30
0.0
210
0.0
220
0.0
230
1.0
  2
SOLID
 70
1
 71
0
 91
1
 92
3
 72
0
 73
1
 93
8
 10
8898.76210429105
 20
5723.579212071189
 10
8903.162104291045
 20
5723.579212071189
 10
8903.162104291045
 20
5723.579212071189
 10
8903.162104291045
 20
5737.579212071191
 10
8903.162104291045
 20
5737.579212071191
 10
8898.76210429105
 20
5737.579212071191
 10
8898.76210429105
 20
5737.579212071191
 10
8898.76210429105
 20
5723.579212071189
 97
0
 75
1
 76
1
 98
0
  0
HATCH
  5
135
330
17
100
AcDbEntity
  8
Hachura
 62
7
100
AcDbHatch
 10
0.0
 20
0.0
 30
0.0
210
0.0
220
0.0
230
1.0
  2
SOLID
 70
1
 71
0
 91
1
 92
3
 72
0
 73
1
 93
8
 10
8898.762104291043
 20
5665.475646645985
 10
8903.16210429104
 20
5665.475646645985
 10
8903.16210429104
 20
5665.475646645985
 10
8903.16210429104
 20
5679.475646645985
 10
8903.16210429104
 20
5679.475646645985
 10
8898.762104291043
 20
5679.475646645985
 10
8898.762104291043
 20
5679.475646645985
 10
8898.762104291043
 20
5665.475646645985
 97
0
 75
1
 76
1
 98
0
  0
HATCH
  5
136
330
17
100
AcDbEntity
  8
Hachura
 62
7
100
AcDbHatch
 10
0.0
 20
0.0
 30
0.0
210
0.0
220
0.0
230
1.0
  2
SOLID
 70
1
 71
0
 91
1
 92
3
 72
0
 73
1
 93
8
 10
8943.562104291052
 20
5745.475646645964
 10
8939.162104291057
 20
5745.475646645964
 10
8939.162104291057
 20
5745.475646645964
 10
8939.162104291057
 20
5759.475646645964
 10
8939.162104291057
 20
5759.475646645964
 10
8943.562104291052
 20
5759.475646645964
 10
8943.562104291052
 20
5759.475646645964
 10
8943.562104291052
 20
5745.475646645964
 97
0
 75
1
 76
1
 98
0
  0
HATCH
  5
137
330
17
100
AcDbEntity
  8
Hachura
 62
7
100
AcDbHatch
 10
0.0
 20
0.0
 30
0.0
210
0.0
220
0.0
230
1.0
  2
SOLID
 70
1
 71
0
 91
1
 92
3
 72
0
 73
1
 93
8
 10
8943.562104291128
 20
5665.475646645985
 10
8939.162104291134
 20
5665.475646645985
 10
8939.162104291134
 20
5665.475646645985
 10
8939.162104291134
 20
5679.475646645985
 10
8939.162104291134
 20
5679.475646645985
 10
8943.562104291128
 20
5679.475646645985
 10
8943.562104291128
 20
5679.475646645985
 10
8943.562104291128
 20
5665.475646645985
 97
0
 75
1
 76
1
 98
0
  0
HATCH
  5
138
330
17
100
AcDbEntity
  8
COTA
 62
7
100
AcDbHatch
 10
0.0
 20
0.0
 30
0.0
210
0.0
220
0.0
230
1.0
  2
SOLID
 70
1
 71
0
 91
1
 92
3
 72
0
 73
1
 93
5
 10
8736.21239207861
 20
5370.596134574994
 10
8632.71239207861
 20
5370.596134574994
 10
8632.71239207861
 20
5358.596134574994
 10
8736.212392078613
 20
5358.596134575019
 10
8736.21239207861
 20
5370.596134574994
 97
0
 75
1
 76
1
 98
0
  0
HATCH
  5
139
330
17
100
AcDbEntity
  8
Hachura
 62
7
100
AcDbHatch
 10
0.0
 20
0.0
 30
0.0
210
0.0
220
0.0
230
1.0
  2
SOLID
 70
1
 71
0
 91
1
 92
3
 72
0
 73
1
 93
8
 10
8512.606560985918
 20
5357.019339169722
 10
8510.854361967427
 20
5352.619339169716
 10
8510.854361967426
 20
5352.619339169713
 10
8500.060815407094
 20
5352.619339169713
 10
8500.060815407094
 20
5352.619339169713
 10
8500.060815407094
 20
5357.01933916972
 10
8500.060815407094
 20
5357.019339169722
 10
8512.606560985918
 20
5357.019339169722
 97
0
 75
1
 76
1
 98
0
  0
HATCH
  5
13A
330
17
100
AcDbEntity
  8
Hachura
 62
7
100
AcDbHatch
 10
0.0
 20
0.0
 30
0.0
210
0.0
220
0.0
230
1.0
  2
SOLID
 70
1
 71
0
 91
1
 92
3
 72
0
 73
1
 93
5
 10
8475.677391565096
 20
5357.019339169715
 10
8468.677391565096
 20
5357.019339169715
 10
8468.677391565096
 20
5343.019339169711
 10
8475.677391565096
 20
5343.019339169711
 10
8475.677391565096
 20
5357.019339169715
 97
0
 75
1
 76
1
 98
0
  0
HATCH
  5
13B
330
17
100
AcDbEntity
  8
Hachura
 62
7
100
AcDbHatch
 10
0.0
 20
0.0
 30
0.0
210
0.0
220
0.0
230
1.0
  2
SOLID
 70
1
 71
0
 91
1
 92
3
 72
0
 73
1
 93
8
 10
8679.593946893103
 20
5700.174568656894
 10
8675.193946893109
 20
5700.174568656894
 10
8675.193946893109
 20
5700.174568656894
 10
8675.193946893109
 20
5714.174568656894
 10
8675.193946893109
 20
5714.174568656894
 10
8679.593946893103
 20
5714.174568656894
 10
8679.593946893103
 20
5714.174568656894
 10
8679.593946893103
 20
5700.174568656894
 97
0
 75
1
 76
1
 98
0
  0
HATCH
  5
13C
330
17
100
AcDbEntity
  8
REAPROVEITAMENTO
 62
7
100
AcDbHatch
 10
0.0
 20
0.0
 30
0.0
210
0.0
220
0.0
230
1.0
  2
SOLID
 70
1
 71
0
 91
1
 92
3
 72
0
 73
1
 93
8
 10
8204.543172130085
 20
5505.053328029128
 10
8204.543172130085
 20
5564.053328029127
 10
8204.543172130085
 20
5564.053328029127
 10
8020.543172130089
 20
5564.05332802913
 10
8020.543172130089
 20
5564.05332802913
 10
8020.543172130091
 20
5505.053328029132
 10
8020.543172130091
 20
5505.053328029132
 10
8204.543172130085
 20
5505.053328029128
 97
0
 75
1
 76
1
 98
0
  0
HATCH
  5
13D
330
17
100
AcDbEntity
  8
REAPROVEITAMENTO
 62
7
100
AcDbHatch
 10
0.0
 20
0.0
 30
0.0
210
0.0
220
0.0
230
1.0
  2
SOLID
 70
1
 71
0
 91
1
 92
3
 72
0
 73
1
 93
12
 10
7946.671361234949
 20
5313.867362515321
 10
7946.671361234949
 20
5367.867362515319
 10
7946.671361234949
 20
5367.867362515319
 10
7774.671361234943
 20
5367.867362515315
 10
7774.671361234943
 20
5367.867362515315
 10
7774.671361234945
 20
5308.867362515316
 10
7774.671361234945
 20
5308.867362515316
 10
7973.671361234949
 20
5308.867362515321
 10
7973.671361234949
 20
5308.867362515321
 10
7973.671361234949
 20
5313.867362515321
 10
7973.671361234949
 20
5313.867362515321
 10
7946.671361234949
 20
5313.867362515321
 97
0
 75
1
 76
1
 98
0
  0
HATCH
  5
13E
330
17
100
AcDbEntity
  8
REAPROVEITAMENTO
 62
7
100
AcDbHatch
 10
0.0
 20
0.0
 30
0.0
210
0.0
220
0.0
230
1.0
  2
SOLID
 70
1
 71
0
 91
1
 92
3
 72
0
 73
1
 93
8
 10
8145.671361234951
 20
5308.867362515313
 10
8145.671361234951
 20
5367.867362515312
 10
8145.671361234951
 20
5367.867362515312
 10
7973.671361234943
 20
5367.867362515322
 10
7973.671361234943
 20
5367.867362515322
 10
7973.671361234945
 20
5308.867362515323
 10
7973.671361234945
 20
5308.867362515323
 10
8145.671361234951
 20
5308.867362515313
 97
0
 75
1
 76
1
 98
0
  0
HATCH
  5
13F
330
17
100
AcDbEntity
  8
REAPROVEITAMENTO
 62
7
100
AcDbHatch
 10
0.0
 20
0.0
 30
0.0
210
0.0
220
0.0
230
1.0
  2
SOLID
 70
1
 71
0
 91
1
 92
3
 72
0
 73
1
 93
12
 10
8172.67136123495
 20
5313.867362515321
 10
8145.671361234951
 20
5313.867362515321
 10
8145.671361234951
 20
5313.867362515321
 10
8145.671361234951
 20
5308.867362515316
 10
8145.671361234951
 20
5308.867362515316
 10
8344.671361234949
 20
5308.867362515304
 10
8344.671361234949
 20
5308.867362515304
 10
8344.671361234949
 20
5367.867362515302
 10
8344.671361234949
 20
5367.867362515302
 10
8172.67136123495
 20
5367.867362515313
 10
8172.67136123495
 20
5367.867362515313
 10
8172.67136123495
 20
5313.867362515321
 97
0
 75
1
 76
1
 98
0
  0
HATCH
  5
140
330
17
100
AcDbEntity
  8
REAPROVEITAMENTO
 62
7
100
AcDbHatch
 10
0.0
 20
0.0
 30
0.0
210
0.0
220
0.0
230
1.0
  2
SOLID
 70
1
 71
0
 91
1
 92
3
 72
0
 73
1
 93
8
 10
9015.112768566181
 20
5497.285901802559
 10
9015.112768566178
 20
5556.285901802558
 10
9015.11276856618
 20
5556.285901802558
 10
8634.612768566174
 20
5556.28590180256
 10
8634.612768566174
 20
5556.28590180256
 10
8634.612768566176
 20
5497.285901802563
 10
8634.612768566176
 20
5497.285901802563
 10
9015.112768566181
 20
5497.285901802559
 97
0
 75
1
 76
1
 98
0
  0
HATCH
  5
141
330
17
100
AcDbEntity
  8
REAPROVEITAMENTO
 62
7
100
AcDbHatch
 10
0.0
 20
0.0
 30
0.0
210
0.0
220
0.0
230
1.0
  2
SOLID
 70
1
 71
0
 91
1
 92
3
 72
0
 73
1
 93
8
 10
8736.212392078616
 20
5311.596134575019
 10
8736.212392078614
 20
5358.596134574995
 10
8736.212392078613
 20
5358.596134574995
 10
8632.712392078609
 20
5358.596134574994
 10
8632.712392078609
 20
5358.596134574994
 10
8632.71239207861
 20
5311.596134574994
 10
8632.71239207861
 20
5311.596134574994
 10
8736.212392078616
 20
5311.596134575019
 97
0
 75
1
 76
1
 98
0
  0
HATCH
  5
142
330
17
100
AcDbEntity
  8
REAPROVEITAMENTO
 62
7
100
AcDbHatch
 10
0.0
 20
0.0
 30
0.0
210
0.0
220
0.0
230
1.0
  2
SOLID
 70
1
 71
0
 91
1
 92
3
 72
0
 73
1
 93
8
 10
9027.432605029278
 20
5311.596134575019
 10
9027.432605029273
 20
5354.596134574993
 10
9027.432605029273
 20
5354.596134574993
 10
8808.43260502927
 20
5354.596134574993
 10
8808.43260502927
 20
5354.596134574993
 10
8808.432605029271
 20
5311.596134574995
 10
8808.432605029271
 20
5311.596134574995
 10
9027.432605029278
 20
5311.596134575019
 97
0
 75
1
 76
1
 98
0
  0
HATCH
  5
143
330
17
100
AcDbEntity
  8
REAPROVEITAMENTO
 62
7
100
AcDbHatch
 10
0.0
 20
0.0
 30
0.0
210
0.0
220
0.0
230
1.0
  2
SOLID
 70
1
 71
0
 91
1
 92
3
 72
0
 73
1
 93
12
 10
7799.543172130069
 20
5510.053328029131
 10
7776.543172130081
 20
5510.05332802913
 10
7776.543172130081
 20
5510.05332802913
 10
7776.543172130082
 20
5505.053328029095
 10
7776.543172130082
 20
5505.053328029095
 10
8020.543172130087
 20
5505.053328029153
 10
8020.543172130087
 20
5505.053328029153
 10
8020.543172130087
 20
5564.053328029169
 10
8020.543172130087
 20
5564.053328029169
 10
7799.543172130069
 20
5564.053328029118
 10
7799.543172130069
 20
5564.053328029118
 10
7799.543172130069
 20
5510.053328029131
 97
0
 75
1
 76
1
 98
0
  0
LINE
  5
144
330
17
100
AcDbEntity
  8
0
 62
7
370
25
100
AcDbLine
 10
8072.380615814327
 20
4961.940977110935
 30
0.0
 11
8072.380615814327
 21
5161.184490521824
 31
0.0
  0
ENDSEC
  0
SECTION
  2
OBJECTS
  0
DICTIONARY
  5
A
330
0
100
AcDbDictionary
281
1
  3
ACAD_COLOR
350
B
  3
ACAD_GROUP
350
C
  3
ACAD_LAYOUT
350
D
  3
ACAD_MATERIAL
350
E
  3
ACAD_MLEADERSTYLE
350
F
  3
ACAD_MLINESTYLE
350
10
  3
ACAD_PLOTSETTINGS
350
11
  3
ACAD_PLOTSTYLENAME
350
12
  3
ACAD_SCALELIST
350
14
  3
ACAD_TABLESTYLE
350
15
  3
ACAD_VISUALSTYLE
350
16
  3
EZDXF_META
350
2D
  0
DICTIONARY
  5
B
330
A
100
AcDbDictionary
281
1
  0
DICTIONARY
  5
C
330
A
100
AcDbDictionary
281
1
  0
DICTIONARY
  5
D
330
A
100
AcDbDictionary
281
1
  3
Model
350
1A
  3
Layout1
350
1E
  0
DICTIONARY
  5
E
330
A
100
AcDbDictionary
281
1
  3
ByBlock
350
1F
  3
ByLayer
350
20
  3
Global
350
21
  0
DICTIONARY
  5
F
330
A
100
AcDbDictionary
281
1
  3
Standard
350
2C
  0
DICTIONARY
  5
10
330
A
100
AcDbDictionary
281
1
  3
Standard
350
22
  0
DICTIONARY
  5
11
330
A
100
AcDbDictionary
281
1
  0
ACDBDICTIONARYWDFLT
  5
12
330
A
100
AcDbDictionary
281
1
  3
Normal
350
13
100
AcDbDictionaryWithDefault
340
13
  0
ACDBPLACEHOLDER
  5
13
330
12
  0
DICTIONARY
  5
14
330
A
100
AcDbDictionary
281
1
  0
DICTIONARY
  5
15
330
A
100
AcDbDictionary
281
1
  0
DICTIONARY
  5
16
330
A
100
AcDbDictionary
281
1
  0
LAYOUT
  5
1A
330
D
100
AcDbPlotSettings
  1

  4
A3
  6

 40
7.5
 41
20.0
 42
7.5
 43
20.0
 44
420.0
 45
297.0
 46
0.0
 47
0.0
 48
0.0
 49
0.0
140
0.0
141
0.0
142
1.0
143
1.0
 70
1024
 72
1
 73
0
 74
5
  7

 75
16
 76
0
 77
2
 78
300
147
1.0
148
0.0
149
0.0
100
AcDbLayout
  1
Model
 70
1
 71
0
 10
0.0
 20
0.0
 11
420.0
 21
297.0
 12
0.0
 22
0.0
 32
0.0
 14
1e+20
 24
1e+20
 34
1e+20
 15
-1e+20
 25
-1e+20
 35
-1e+20
146
0.0
 13
0.0
 23
0.0
 33
0.0
 16
1.0
 26
0.0
 36
0.0
 17
0.0
 27
1.0
 37
0.0
 76
1
330
17
  0
LAYOUT
  5
1E
330
D
100
AcDbPlotSettings
  1

  4
A3
  6

 40
7.5
 41
20.0
 42
7.5
 43
20.0
 44
420.0
 45
297.0
 46
0.0
 47
0.0
 48
0.0
 49
0.0
140
0.0
141
0.0
142
1.0
143
1.0
 70
0
 72
1
 73
0
 74
5
  7

 75
16
 76
0
 77
2
 78
300
147
1.0
148
0.0
149
0.0
100
AcDbLayout
  1
Layout1
 70
1
 71
1
 10
0.0
 20
0.0
 11
420.0
 21
297.0
 12
0.0
 22
0.0
 32
0.0
 14
1e+20
 24
1e+20
 34
1e+20
 15
-1e+20
 25
-1e+20
 35
-1e+20
146
0.0
 13
0.0
 23
0.0
 33
0.0
 16
1.0
 26
0.0
 36
0.0
 17
0.0
 27
1.0
 37
0.0
 76
1
330
1B
  0
MATERIAL
  5
1F
102
{ACAD_REACTORS
330
E
102
}
330
E
100
AcDbMaterial
  1
ByBlock
  2

 70
0
 40
1.0
 71
1
 41
1.0
 91
-1023410177
 42
1.0
 72
1
  3

 73
1
 74
1
 75
1
 44
0.5
 73
0
 45
1.0
 46
1.0
 77
1
  4

 78
1
 79
1
170
1
 48
1.0
171
1
  6

172
1
173
1
174
1
140
1.0
141
1.0
175
1
  7

176
1
177
1
178
1
143
1.0
179
1
  8

270
1
271
1
272
1
145
1.0
146
1.0
273
1
  9

274
1
275
1
276
1
 42
1.0
 72
1
  3

 73
1
 74
1
 75
1
 94
63
  0
MATERIAL
  5
20
102
{ACAD_REACTORS
330
E
102
}
330
E
100
AcDbMaterial
  1
ByLayer
  2

 70
0
 40
1.0
 71
1
 41
1.0
 91
-1023410177
 42
1.0
 72
1
  3

 73
1
 74
1
 75
1
 44
0.5
 73
0
 45
1.0
 46
1.0
 77
1
  4

 78
1
 79
1
170
1
 48
1.0
171
1
  6

172
1
173
1
174
1
140
1.0
141
1.0
175
1
  7

176
1
177
1
178
1
143
1.0
179
1
  8

270
1
271
1
272
1
145
1.0
146
1.0
273
1
  9

274
1
275
1
276
1
 42
1.0
 72
1
  3

 73
1
 74
1
 75
1
 94
63
  0
MATERIAL
  5
21
102
{ACAD_REACTORS
330
E
102
}
330
E
100
AcDbMaterial
  1
Global
  2

 70
0
 40
1.0
 71
1
 41
1.0
 91
-1023410177
 42
1.0
 72
1
  3

 73
1
 74
1
 75
1
 44
0.5
 73
0
 45
1.0
 46
1.0
 77
1
  4

 78
1
 79
1
170
1
 48
1.0
171
1
  6

172
1
173
1
174
1
140
1.0
141
1.0
175
1
  7

176
1
177
1
178
1
143
1.0
179
1
  8

270
1
271
1
272
1
145
1.0
146
1.0
273
1
  9

274
1
275
1
276
1
 42
1.0
 72
1
  3

 73
1
 74
1
 75
1
 94
63
  0
MLINESTYLE
  5
22
102
{ACAD_REACTORS
330
10
102
}
330
10
100
AcDbMlineStyle
  2
Standard
 70
0
  3

 62
256
 51
90.0
 52
90.0
 71
2
 49
0.5
 62
256
  6
BYLAYER
 49
-0.5
 62
256
  6
BYLAYER
  0
MLEADERSTYLE
  5
2C
102
{ACAD_REACTORS
330
F
102
}
330
F
100
AcDbMLeaderStyle
179
2
170
2
171
1
172
0
 90
2
 40
0.0
 41
0.0
173
1
 91
-1056964608
 92
-2
290
1
 42
2.0
291
1
 43
8.0
  3
Standard
 44
4.0
300

342
29
174
1
175
1
176
0
178
1
 93
-1056964608
 45
4.0
292
0
297
0
 46
4.0
 94
-1056964608
 47
1.0
 49
1.0
140
1.0
294
1
141
0.0
177
0
142
1.0
295
0
296
0
143
3.75
271
0
272
9
273
9
  0
DICTIONARY
  5
2D
330
A
100
AcDbDictionary
280
1
281
1
  3
CREATED_BY_EZDXF
350
2E
  3
WRITTEN_BY_EZDXF
350
147
  0
DICTIONARYVAR
  5
2E
330
2D
100
DictionaryVariables
280
0
  1
1.4.3 @ 2026-06-10T16:54:14.413466+00:00
  0
DICTIONARYVAR
  5
147
330
2D
100
DictionaryVariables
280
0
  1
1.4.3 @ 2026-06-10T16:54:14.424806+00:00
  0
ENDSEC
  0
EOF
