  0
SECTION
  2
HEADER
  9
$ACADVER
  1
AC1024
  9
$ACADMAINTVER
 70
6
  9
$DWGCODEPAGE
  3
ANSI_1252
  9
$LASTSAVEDBY
  1
ezdxf
  9
$INSBASE
 10
0.0
 20
0.0
 30
0.0
  9
$EXTMIN
 10
1e+20
 20
1e+20
 30
1e+20
  9
$EXTMAX
 10
-1e+20
 20
-1e+20
 30
-1e+20
  9
$LIMMIN
 10
0.0
 20
0.0
  9
$LIMMAX
 10
420.0
 20
297.0
  9
$ORTHOMODE
 70
0
  9
$REGENMODE
 70
1
  9
$FILLMODE
 70
1
  9
$QTEXTMODE
 70
0
  9
$MIRRTEXT
 70
1
  9
$LTSCALE
 40
1.0
  9
$ATTMODE
 70
1
  9
$TEXTSIZE
 40
2.5
  9
$TRACEWID
 40
1.0
  9
$TEXTSTYLE
  7
Standard
  9
$CLAYER
  8
0
  9
$CELTYPE
  6
ByLayer
  9
$CECOLOR
 62
256
  9
$CELTSCALE
 40
1.0
  9
$DISPSILH
 70
0
  9
$DIMSCALE
 40
1.0
  9
$DIMASZ
 40
2.5
  9
$DIMEXO
 40
0.625
  9
$DIMDLI
 40
3.75
  9
$DIMRND
 40
0.0
  9
$DIMDLE
 40
0.0
  9
$DIMEXE
 40
1.25
  9
$DIMTP
 40
0.0
  9
$DIMTM
 40
0.0
  9
$DIMTXT
 40
2.5
  9
$DIMCEN
 40
2.5
  9
$DIMTSZ
 40
0.0
  9
$DIMTOL
 70
0
  9
$DIMLIM
 70
0
  9
$DIMTIH
 70
0
  9
$DIMTOH
 70
0
  9
$DIMSE1
 70
0
  9
$DIMSE2
 70
0
  9
$DIMTAD
 70
1
  9
$DIMZIN
 70
8
  9
$DIMBLK
  1

  9
$DIMASO
 70
1
  9
$DIMSHO
 70
1
  9
$DIMPOST
  1

  9
$DIMAPOST
  1

  9
$DIMALT
 70
0
  9
$DIMALTD
 70
3
  9
$DIMALTF
 40
0.03937007874
  9
$DIMLFAC
 40
1.0
  9
$DIMTOFL
 70
1
  9
$DIMTVP
 40
0.0
  9
$DIMTIX
 70
0
  9
$DIMSOXD
 70
0
  9
$DIMSAH
 70
0
  9
$DIMBLK1
  1

  9
$DIMBLK2
  1

  9
$DIMSTYLE
  2
ISO-25
  9
$DIMCLRD
 70
0
  9
$DIMCLRE
 70
0
  9
$DIMCLRT
 70
0
  9
$DIMTFAC
 40
1.0
  9
$DIMGAP
 40
0.625
  9
$DIMJUST
 70
0
  9
$DIMSD1
 70
0
  9
$DIMSD2
 70
0
  9
$DIMTOLJ
 70
0
  9
$DIMTZIN
 70
8
  9
$DIMALTZ
 70
0
  9
$DIMALTTZ
 70
0
  9
$DIMUPT
 70
0
  9
$DIMDEC
 70
2
  9
$DIMTDEC
 70
2
  9
$DIMALTU
 70
2
  9
$DIMALTTD
 70
3
  9
$DIMTXSTY
  7
Standard
  9
$DIMAUNIT
 70
0
  9
$DIMADEC
 70
0
  9
$DIMALTRND
 40
0.0
  9
$DIMAZIN
 70
0
  9
$DIMDSEP
 70
44
  9
$DIMATFIT
 70
3
  9
$DIMFRAC
 70
0
  9
$DIMLDRBLK
  1

  9
$DIMLUNIT
 70
2
  9
$DIMLWD
 70
-2
  9
$DIMLWE
 70
-2
  9
$DIMTMOVE
 70
0
  9
$DIMFXL
 40
1.0
  9
$DIMFXLON
 70
0
  9
$DIMJOGANG
 40
0.785398163397
  9
$DIMTFILL
 70
0
  9
$DIMTFILLCLR
 70
0
  9
$DIMARCSYM
 70
0
  9
$DIMLTYPE
  6

  9
$DIMLTEX1
  6

  9
$DIMLTEX2
  6

  9
$DIMTXTDIRECTION
 70
0
  9
$LUNITS
 70
2
  9
$LUPREC
 70
4
  9
$SKETCHINC
 40
1.0
  9
$FILLETRAD
 40
10.0
  9
$AUNITS
 70
0
  9
$AUPREC
 70
2
  9
$MENU
  1
.
  9
$ELEVATION
 40
0.0
  9
$PELEVATION
 40
0.0
  9
$THICKNESS
 40
0.0
  9
$LIMCHECK
 70
0
  9
$CHAMFERA
 40
0.0
  9
$CHAMFERB
 40
0.0
  9
$CHAMFERC
 40
0.0
  9
$CHAMFERD
 40
0.0
  9
$SKPOLY
 70
0
  9
$TDCREATE
 40
2461202.0141435186
  9
$TDUCREATE
 40
2458532.153996898
  9
$TDUPDATE
 40
2461202.0141435186
  9
$TDUUPDATE
 40
2458532.1544311
  9
$TDINDWG
 40
0.0
  9
$TDUSRTIMER
 40
0.0
  9
$USRTIMER
 70
1
  9
$ANGBASE
 50
0.0
  9
$ANGDIR
 70
0
  9
$PDMODE
 70
0
  9
$PDSIZE
 40
0.0
  9
$PLINEWID
 40
0.0
  9
$SPLFRAME
 70
0
  9
$SPLINETYPE
 70
6
  9
$SPLINESEGS
 70
8
  9
$HANDSEED
  5
2AB
  9
$SURFTAB1
 70
6
  9
$SURFTAB2
 70
6
  9
$SURFTYPE
 70
6
  9
$SURFU
 70
6
  9
$SURFV
 70
6
  9
$UCSBASE
  2

  9
$UCSNAME
  2

  9
$UCSORG
 10
0.0
 20
0.0
 30
0.0
  9
$UCSXDIR
 10
1.0
 20
0.0
 30
0.0
  9
$UCSYDIR
 10
0.0
 20
1.0
 30
0.0
  9
$UCSORTHOREF
  2

  9
$UCSORTHOVIEW
 70
0
  9
$UCSORGTOP
 10
0.0
 20
0.0
 30
0.0
  9
$UCSORGBOTTOM
 10
0.0
 20
0.0
 30
0.0
  9
$UCSORGLEFT
 10
0.0
 20
0.0
 30
0.0
  9
$UCSORGRIGHT
 10
0.0
 20
0.0
 30
0.0
  9
$UCSORGFRONT
 10
0.0
 20
0.0
 30
0.0
  9
$UCSORGBACK
 10
0.0
 20
0.0
 30
0.0
  9
$PUCSBASE
  2

  9
$PUCSNAME
  2

  9
$PUCSORG
 10
0.0
 20
0.0
 30
0.0
  9
$PUCSXDIR
 10
1.0
 20
0.0
 30
0.0
  9
$PUCSYDIR
 10
0.0
 20
1.0
 30
0.0
  9
$PUCSORTHOREF
  2

  9
$PUCSORTHOVIEW
 70
0
  9
$PUCSORGTOP
 10
0.0
 20
0.0
 30
0.0
  9
$PUCSORGBOTTOM
 10
0.0
 20
0.0
 30
0.0
  9
$PUCSORGLEFT
 10
0.0
 20
0.0
 30
0.0
  9
$PUCSORGRIGHT
 10
0.0
 20
0.0
 30
0.0
  9
$PUCSORGFRONT
 10
0.0
 20
0.0
 30
0.0
  9
$PUCSORGBACK
 10
0.0
 20
0.0
 30
0.0
  9
$USERI1
 70
0
  9
$USERI2
 70
0
  9
$USERI3
 70
0
  9
$USERI4
 70
0
  9
$USERI5
 70
0
  9
$USERR1
 40
0.0
  9
$USERR2
 40
0.0
  9
$USERR3
 40
0.0
  9
$USERR4
 40
0.0
  9
$USERR5
 40
0.0
  9
$WORLDVIEW
 70
1
  9
$SHADEDGE
 70
3
  9
$SHADEDIF
 70
70
  9
$TILEMODE
 70
1
  9
$MAXACTVP
 70
64
  9
$PINSBASE
 10
0.0
 20
0.0
 30
0.0
  9
$PLIMCHECK
 70
0
  9
$PEXTMIN
 10
1e+20
 20
1e+20
 30
1e+20
  9
$PEXTMAX
 10
-1e+20
 20
-1e+20
 30
-1e+20
  9
$PLIMMIN
 10
0.0
 20
0.0
  9
$PLIMMAX
 10
420.0
 20
297.0
  9
$UNITMODE
 70
0
  9
$VISRETAIN
 70
1
  9
$PLINEGEN
 70
0
  9
$PSLTSCALE
 70
1
  9
$TREEDEPTH
 70
3020
  9
$CMLSTYLE
  2
Standard
  9
$CMLJUST
 70
0
  9
$CMLSCALE
 40
20.0
  9
$PROXYGRAPHICS
 70
1
  9
$MEASUREMENT
 70
1
  9
$CELWEIGHT
370
-1
  9
$ENDCAPS
280
0
  9
$JOINSTYLE
280
0
  9
$LWDISPLAY
290
0
  9
$INSUNITS
 70
6
  9
$HYPERLINKBASE
  1

  9
$STYLESHEET
  1

  9
$XEDIT
290
1
  9
$CEPSNTYPE
380
0
  9
$PSTYLEMODE
290
1
  9
$FINGERPRINTGUID
  2
{9C2CBA3F-65A8-4F0C-BA6E-982323FE8C0F}
  9
$VERSIONGUID
  2
{171CE7D4-4D07-40C9-9631-D231EE1A2108}
  9
$EXTNAMES
290
1
  9
$PSVPSCALE
 40
0.0
  9
$OLESTARTUP
290
0
  9
$SORTENTS
280
127
  9
$INDEXCTL
280
0
  9
$HIDETEXT
280
1
  9
$XCLIPFRAME
280
1
  9
$HALOGAP
280
0
  9
$OBSCOLOR
 70
257
  9
$OBSLTYPE
280
0
  9
$INTERSECTIONDISPLAY
280
0
  9
$INTERSECTIONCOLOR
 70
257
  9
$DIMASSOC
280
2
  9
$PROJECTNAME
  1

  9
$CAMERADISPLAY
290
0
  9
$LENSLENGTH
 40
50.0
  9
$CAMERAHEIGHT
 40
0.0
  9
$STEPSPERSEC
 40
24.0
  9
$STEPSIZE
 40
100.0
  9
$3DDWFPREC
 40
2.0
  9
$PSOLWIDTH
 40
0.005
  9
$PSOLHEIGHT
 40
0.08
  9
$LOFTANG1
 40
1.570796326795
  9
$LOFTANG2
 40
1.570796326795
  9
$LOFTMAG1
 40
0.0
  9
$LOFTMAG2
 40
0.0
  9
$LOFTPARAM
 70
7
  9
$LOFTNORMALS
280
1
  9
$LATITUDE
 40
37.795
  9
$LONGITUDE
 40
-122.394
  9
$NORTHDIRECTION
 40
0.0
  9
$TIMEZONE
 70
-8000
  9
$LIGHTGLYPHDISPLAY
280
1
  9
$TILEMODELIGHTSYNCH
280
1
  9
$CMATERIAL
347
20
  9
$SOLIDHIST
280
0
  9
$SHOWHIST
280
1
  9
$DWFFRAME
280
2
  9
$DGNFRAME
280
2
  9
$REALWORLDSCALE
290
1
  9
$INTERFERECOLOR
 62
256
  9
$CSHADOW
280
0
  9
$SHADOWPLANELOCATION
 40
0.0
  0
ENDSEC
  0
SECTION
  2
CLASSES
  0
CLASS
  1
ACDBDICTIONARYWDFLT
  2
AcDbDictionaryWithDefault
  3
ObjectDBX Classes
 90
0
 91
0
280
0
281
0
  0
CLASS
  1
SUN
  2
AcDbSun
  3
SCENEOE
 90
1153
 91
0
280
0
281
0
  0
CLASS
  1
VISUALSTYLE
  2
AcDbVisualStyle
  3
ObjectDBX Classes
 90
4095
 91
0
280
0
281
0
  0
CLASS
  1
MATERIAL
  2
AcDbMaterial
  3
ObjectDBX Classes
 90
1153
 91
0
280
0
281
0
  0
CLASS
  1
SCALE
  2
AcDbScale
  3
ObjectDBX Classes
 90
1153
 91
0
280
0
281
0
  0
CLASS
  1
TABLESTYLE
  2
AcDbTableStyle
  3
ObjectDBX Classes
 90
4095
 91
0
280
0
281
0
  0
CLASS
  1
MLEADERSTYLE
  2
AcDbMLeaderStyle
  3
ACDB_MLEADERSTYLE_CLASS
 90
4095
 91
0
280
0
281
0
  0
CLASS
  1
DICTIONARYVAR
  2
AcDbDictionaryVar
  3
ObjectDBX Classes
 90
0
 91
0
280
0
281
0
  0
CLASS
  1
CELLSTYLEMAP
  2
AcDbCellStyleMap
  3
ObjectDBX Classes
 90
1152
 91
0
280
0
281
0
  0
CLASS
  1
MENTALRAYRENDERSETTINGS
  2
AcDbMentalRayRenderSettings
  3
SCENEOE
 90
1024
 91
0
280
0
281
0
  0
CLASS
  1
ACDBDETAILVIEWSTYLE
  2
AcDbDetailViewStyle
  3
ObjectDBX Classes
 90
1025
 91
0
280
0
281
0
  0
CLASS
  1
ACDBSECTIONVIEWSTYLE
  2
AcDbSectionViewStyle
  3
ObjectDBX Classes
 90
1025
 91
0
280
0
281
0
  0
CLASS
  1
RASTERVARIABLES
  2
AcDbRasterVariables
  3
ISM
 90
0
 91
0
280
0
281
0
  0
CLASS
  1
ACDBPLACEHOLDER
  2
AcDbPlaceHolder
  3
ObjectDBX Classes
 90
0
 91
0
280
0
281
0
  0
CLASS
  1
LAYOUT
  2
AcDbLayout
  3
ObjectDBX Classes
 90
0
 91
0
280
0
281
0
  0
ENDSEC
  0
SECTION
  2
TABLES
  0
TABLE
  2
VPORT
  5
8
330
0
100
AcDbSymbolTable
 70
1
  0
VPORT
  5
23
330
8
100
AcDbSymbolTableRecord
100
AcDbViewportTableRecord
  2
*Active
 70
0
 10
0.0
 20
0.0
 11
1.0
 21
1.0
 12
0.0
 22
0.0
 13
0.0
 23
0.0
 14
0.5
 24
0.5
 15
0.5
 25
0.5
 16
0.0
 26
0.0
 36
1.0
 17
0.0
 27
0.0
 37
0.0
 40
1000.0
 41
1.34
 42
50.0
 43
0.0
 44
0.0
 50
0.0
 51
0.0
 71
0
 72
1000
 73
1
 74
3
 75
0
 76
0
 77
0
 78
0
281
0
 65
0
146
0.0
  0
ENDTAB
  0
TABLE
  2
LTYPE
  5
2
330
0
100
AcDbSymbolTable
 70
3
  0
LTYPE
  5
24
330
2
100
AcDbSymbolTableRecord
100
AcDbLinetypeTableRecord
  2
ByBlock
 70
0
  3

 72
65
 73
0
 40
0.0
  0
LTYPE
  5
25
330
2
100
AcDbSymbolTableRecord
100
AcDbLinetypeTableRecord
  2
ByLayer
 70
0
  3

 72
65
 73
0
 40
0.0
  0
LTYPE
  5
26
330
2
100
AcDbSymbolTableRecord
100
AcDbLinetypeTableRecord
  2
Continuous
 70
0
  3

 72
65
 73
0
 40
0.0
  0
ENDTAB
  0
TABLE
  2
LAYER
  5
1
330
0
100
AcDbSymbolTable
 70
16
  0
LAYER
  5
27
330
1
100
AcDbSymbolTableRecord
100
AcDbLayerTableRecord
  2
0
 70
0
 62
7
  6
Continuous
370
-3
390
13
347
21
  0
LAYER
  5
28
330
1
100
AcDbSymbolTableRecord
100
AcDbLayerTableRecord
  2
Defpoints
 70
0
 62
7
  6
Continuous
290
0
370
-3
390
13
347
21
  0
LAYER
  5
2F
330
1
100
AcDbSymbolTableRecord
100
AcDbLayerTableRecord
  2
SARR_3.5x7
 70
0
 62
7
  6
Continuous
370
-3
390
13
347
21
  0
LAYER
  5
30
330
1
100
AcDbSymbolTableRecord
100
AcDbLayerTableRecord
  2
detalhes
 70
0
 62
7
  6
Continuous
370
-3
390
13
347
21
  0
LAYER
  5
31
330
1
100
AcDbSymbolTableRecord
100
AcDbLayerTableRecord
  2
REAPROVEITAMENTO
 70
0
 62
7
  6
Continuous
370
-3
390
13
347
21
  0
LAYER
  5
32
330
1
100
AcDbSymbolTableRecord
100
AcDbLayerTableRecord
  2
SARR_2.2x7
 70
0
 62
7
  6
Continuous
370
-3
390
13
347
21
  0
LAYER
  5
33
330
1
100
AcDbSymbolTableRecord
100
AcDbLayerTableRecord
  2
Texto Seção
 70
0
 62
7
  6
Continuous
370
-3
390
13
347
21
  0
LAYER
  5
34
330
1
100
AcDbSymbolTableRecord
100
AcDbLayerTableRecord
  2
5
 70
0
 62
7
  6
Continuous
370
-3
390
13
347
21
  0
LAYER
  5
35
330
1
100
AcDbSymbolTableRecord
100
AcDbLayerTableRecord
  2
COTA
 70
0
 62
7
  6
Continuous
370
-3
390
13
347
21
  0
LAYER
  5
36
330
1
100
AcDbSymbolTableRecord
100
AcDbLayerTableRecord
  2
CONCRETO
 70
0
 62
7
  6
Continuous
370
-3
390
13
347
21
  0
LAYER
  5
37
330
1
100
AcDbSymbolTableRecord
100
AcDbLayerTableRecord
  2
SARR_EDITAR
 70
0
 62
7
  6
Continuous
370
-3
390
13
347
21
  0
LAYER
  5
38
330
1
100
AcDbSymbolTableRecord
100
AcDbLayerTableRecord
  2
Hachura
 70
0
 62
7
  6
Continuous
370
-3
390
13
347
21
  0
LAYER
  5
39
330
1
100
AcDbSymbolTableRecord
100
AcDbLayerTableRecord
  2
SARRAFO DE PRESSAO
 70
0
 62
7
  6
Continuous
370
-3
390
13
347
21
  0
LAYER
  5
3A
330
1
100
AcDbSymbolTableRecord
100
AcDbLayerTableRecord
  2
Painéis
 70
0
 62
7
  6
Continuous
370
-3
390
13
347
21
  0
LAYER
  5
3B
330
1
100
AcDbSymbolTableRecord
100
AcDbLayerTableRecord
  2
Madeira
 70
0
 62
7
  6
Continuous
370
-3
390
13
347
21
  0
LAYER
  5
3C
330
1
100
AcDbSymbolTableRecord
100
AcDbLayerTableRecord
  2
Cota Seção (2x)
 70
0
 62
7
  6
Continuous
370
-3
390
13
347
21
  0
ENDTAB
  0
TABLE
  2
STYLE
  5
5
330
0
100
AcDbSymbolTable
 70
1
  0
STYLE
  5
29
330
5
100
AcDbSymbolTableRecord
100
AcDbTextStyleTableRecord
  2
Standard
 70
0
 40
0.0
 41
1.0
 50
0.0
 71
0
 42
2.5
  3
txt
  4

  0
ENDTAB
  0
TABLE
  2
VIEW
  5
7
330
0
100
AcDbSymbolTable
 70
0
  0
ENDTAB
  0
TABLE
  2
UCS
  5
6
330
0
100
AcDbSymbolTable
 70
0
  0
ENDTAB
  0
TABLE
  2
APPID
  5
3
330
0
100
AcDbSymbolTable
 70
3
  0
APPID
  5
2A
330
3
100
AcDbSymbolTableRecord
100
AcDbRegAppTableRecord
  2
ACAD
 70
0
  0
APPID
  5
2A8
330
3
100
AcDbSymbolTableRecord
100
AcDbRegAppTableRecord
  2
HATCHBACKGROUNDCOLOR
 70
0
  0
APPID
  5
2A9
330
3
100
AcDbSymbolTableRecord
100
AcDbRegAppTableRecord
  2
EZDXF
 70
0
  0
ENDTAB
  0
TABLE
  2
DIMSTYLE
  5
4
330
0
100
AcDbSymbolTable
 70
1
100
AcDbDimStyleTable
  0
DIMSTYLE
105
2B
330
4
100
AcDbSymbolTableRecord
100
AcDbDimStyleTableRecord
  2
Standard
 70
0
 40
1.0
 41
2.5
 42
0.625
 43
3.75
 44
1.25
 45
0.0
 46
0.0
 47
0.0
 48
0.0
 49
2.5
140
2.5
141
2.5
142
0.0
143
0.03937007874
144
1.0
145
0.0
146
1.0
147
0.625
148
0.0
 69
0
 70
0
 71
0
 72
0
 73
0
 74
0
 75
0
 76
0
 77
1
 78
8
 79
3
170
0
171
3
172
1
173
0
174
0
175
0
176
0
177
0
178
0
179
2
271
2
272
2
273
2
274
3
275
0
276
0
277
2
278
44
279
0
280
0
281
0
282
0
283
0
284
8
285
0
286
0
288
0
289
3
290
0
371
-2
372
-2
  0
ENDTAB
  0
TABLE
  2
BLOCK_RECORD
  5
9
330
0
100
AcDbSymbolTable
 70
2
  0
BLOCK_RECORD
  5
17
330
9
100
AcDbSymbolTableRecord
100
AcDbBlockTableRecord
  2
*Model_Space
340
1A
 70
0
280
1
281
0
  0
BLOCK_RECORD
  5
1B
330
9
100
AcDbSymbolTableRecord
100
AcDbBlockTableRecord
  2
*Paper_Space
340
1E
 70
0
280
1
281
0
  0
ENDTAB
  0
ENDSEC
  0
SECTION
  2
BLOCKS
  0
BLOCK
  5
18
330
17
100
AcDbEntity
  8
0
100
AcDbBlockBegin
  2
*Model_Space
 70
0
 10
0.0
 20
0.0
 30
0.0
  3
*Model_Space
  1

  0
ENDBLK
  5
19
330
17
100
AcDbEntity
  8
0
100
AcDbBlockEnd
  0
BLOCK
  5
1C
330
1B
100
AcDbEntity
  8
0
100
AcDbBlockBegin
  2
*Paper_Space
 70
0
 10
0.0
 20
0.0
 30
0.0
  3
*Paper_Space
  1

  0
ENDBLK
  5
1D
330
1B
100
AcDbEntity
  8
0
100
AcDbBlockEnd
  0
ENDSEC
  0
SECTION
  2
ENTITIES
  0
LINE
  5
3D
330
17
100
AcDbEntity
  8
SARR_2.2x7
 62
40
370
25
100
AcDbLine
 10
4643.841444931399
 20
3263.343658627054
 30
0.0
 11
4887.8414449314
 21
3263.343658627072
 31
0.0
  0
LINE
  5
3E
330
17
100
AcDbEntity
  8
SARR_2.2x7
 62
40
370
25
100
AcDbLine
 10
4950.841444931399
 20
3263.343658626967
 30
0.0
 11
5051.88658569059
 21
3263.343658626808
 31
0.0
  0
LINE
  5
3F
330
17
100
AcDbEntity
  8
Painéis
 62
200
370
25
100
AcDbLine
 10
4643.841444931396
 20
3270.343658626961
 30
0.0
 11
5058.841444931399
 21
3270.343658626987
 31
0.0
  0
LINE
  5
40
330
17
100
AcDbEntity
  8
Painéis
 62
200
370
25
100
AcDbLine
 10
4643.841444931402
 20
3226.343658626961
 30
0.0
 11
5058.841444931402
 21
3226.343658626986
 31
0.0
  0
LINE
  5
41
330
17
100
AcDbEntity
  8
Painéis
 62
200
370
25
100
AcDbLine
 10
5058.841444931402
 20
3226.343658626986
 30
0.0
 11
5058.841444931399
 21
3270.343658626987
 31
0.0
  0
LINE
  5
42
330
17
100
AcDbEntity
  8
Painéis
 62
200
370
25
100
AcDbLine
 10
4643.841444931402
 20
3226.343658626961
 30
0.0
 11
4643.841444931399
 21
3270.343658626961
 31
0.0
  0
LINE
  5
43
330
17
100
AcDbEntity
  8
SARR_2.2x7
 62
40
370
25
100
AcDbLine
 10
5051.886585690587
 20
3226.343658626983
 30
0.0
 11
5051.88658569059
 21
3270.343658626961
 31
0.0
  0
LINE
  5
44
330
17
100
AcDbEntity
  8
Painéis
 62
200
370
25
100
AcDbLine
 10
4887.841444931402
 20
3226.343658626976
 30
0.0
 11
4887.841444931399
 21
3270.343658626976
 31
0.0
  0
LINE
  5
45
330
17
100
AcDbEntity
  8
COTA
 62
241
370
25
100
AcDbLine
 10
4643.841444931396
 20
3270.343658626961
 30
0.0
 11
4643.841444931396
 21
3282.343658626961
 31
0.0
  0
LINE
  5
46
330
17
100
AcDbEntity
  8
COTA
 62
241
370
25
100
AcDbLine
 10
5058.841444931397
 20
3285.343658626961
 30
0.0
 11
5058.841444931397
 21
3270.343658626987
 31
0.0
  0
LINE
  5
47
330
17
100
AcDbEntity
  8
SARR_2.2x7
 62
40
370
25
100
AcDbLine
 10
4721.841444931402
 20
3233.343658626885
 30
0.0
 11
4887.8414449314
 21
3233.343658626872
 31
0.0
  0
LINE
  5
48
330
17
100
AcDbEntity
  8
SARR_2.2x7
 62
40
370
25
100
AcDbLine
 10
4950.841444931402
 20
3233.343658626977
 30
0.0
 11
5051.88658569059
 21
3233.343658627136
 31
0.0
  0
LINE
  5
49
330
17
100
AcDbEntity
  8
COTA
 62
241
370
25
100
AcDbLine
 10
5058.841444931397
 20
3285.343658626961
 30
0.0
 11
4843.841444931396
 21
3285.343658626961
 31
0.0
  0
LINE
  5
4A
330
17
100
AcDbEntity
  8
COTA
 62
241
370
25
100
AcDbLine
 10
5236.797007704415
 20
3634.790761737569
 30
0.0
 11
5236.797007704415
 21
2864.034275148465
 31
0.0
  0
LINE
  5
4B
330
17
100
AcDbEntity
  8
SARR_EDITAR
 62
141
370
25
100
AcDbLine
 10
4843.841444931396
 20
3283.843658626961
 30
0.0
 11
4643.841444931396
 21
3283.843658626961
 31
0.0
  0
LINE
  5
4C
330
17
100
AcDbEntity
  8
SARR_2.2x7
 62
40
370
25
100
AcDbLine
 10
4721.841444931402
 20
3244.343658626931
 30
0.0
 11
4887.8414449314
 21
3244.343658626804
 31
0.0
  0
LINE
  5
4D
330
17
100
AcDbEntity
  8
SARR_2.2x7
 62
40
370
25
100
AcDbLine
 10
4721.8414449314
 20
3251.343658626627
 30
0.0
 11
4887.8414449314
 21
3251.343658626499
 31
0.0
  0
LINE
  5
4E
330
17
100
AcDbEntity
  8
SARR_2.2x7
 62
40
370
25
100
AcDbLine
 10
4950.8414449314
 20
3244.343658626973
 30
0.0
 11
5051.88658569059
 21
3244.343658626926
 31
0.0
  0
LINE
  5
4F
330
17
100
AcDbEntity
  8
SARR_2.2x7
 62
40
370
25
100
AcDbLine
 10
4950.8414449314
 20
3251.343658626672
 30
0.0
 11
5051.886585690589
 21
3251.343658626622
 31
0.0
  0
LINE
  5
50
330
17
100
AcDbEntity
  8
Painéis
 62
200
370
25
100
AcDbLine
 10
4950.841444931402
 20
3226.343658626976
 30
0.0
 11
4950.841444931398
 21
3270.343658626976
 31
0.0
  0
LINE
  5
51
330
17
100
AcDbEntity
  8
SARR_2.2x7
 62
40
370
25
100
AcDbLine
 10
4887.8414449314
 20
3263.343658626967
 30
0.0
 11
4950.841444931398
 21
3263.343658626861
 31
0.0
  0
LINE
  5
52
330
17
100
AcDbEntity
  8
SARR_2.2x7
 62
40
370
25
100
AcDbLine
 10
4887.841444931401
 20
3233.343658626977
 30
0.0
 11
4950.841444931402
 21
3233.343658627082
 31
0.0
  0
LINE
  5
53
330
17
100
AcDbEntity
  8
SARR_2.2x7
 62
40
370
25
100
AcDbLine
 10
4887.8414449314
 20
3244.343658626973
 30
0.0
 11
4950.8414449314
 21
3244.343658626941
 31
0.0
  0
LINE
  5
54
330
17
100
AcDbEntity
  8
SARR_2.2x7
 62
40
370
25
100
AcDbLine
 10
4887.8414449314
 20
3251.343658626672
 30
0.0
 11
4950.841444931399
 21
3251.343658626639
 31
0.0
  0
LINE
  5
55
330
17
100
AcDbEntity
  8
SARR_2.2x7
 62
40
370
25
100
AcDbLine
 10
4721.841444931402
 20
3226.343658626957
 30
0.0
 11
4721.841444931402
 21
3233.343658626885
 31
0.0
  0
LINE
  5
56
330
17
100
AcDbEntity
  8
SARR_2.2x7
 62
40
370
25
100
AcDbLine
 10
4721.8414449314
 20
3244.343658626931
 30
0.0
 11
4721.841444931399
 21
3251.343658626628
 31
0.0
  0
LINE
  5
57
330
17
100
AcDbEntity
  8
SARR_2.2x7
 62
40
370
25
100
AcDbLine
 10
5058.841444931405
 20
3050.429770111666
 30
0.0
 11
4950.841444931405
 21
3050.429770111684
 31
0.0
  0
LINE
  5
58
330
17
100
AcDbEntity
  8
SARR_2.2x7
 62
40
370
25
100
AcDbLine
 10
4887.841444931405
 20
3050.429770111579
 30
0.0
 11
4650.796304172214
 21
3050.42977011142
 31
0.0
  0
LINE
  5
59
330
17
100
AcDbEntity
  8
Painéis
 62
200
370
25
100
AcDbLine
 10
5058.841444931408
 20
3057.429770111573
 30
0.0
 11
4643.841444931406
 21
3057.429770111598
 31
0.0
  0
LINE
  5
5A
330
17
100
AcDbEntity
  8
Painéis
 62
200
370
25
100
AcDbLine
 10
5058.841444931402
 20
3013.429770111573
 30
0.0
 11
4643.841444931402
 21
3013.429770111598
 31
0.0
  0
LINE
  5
5B
330
17
100
AcDbEntity
  8
Painéis
 62
200
370
25
100
AcDbLine
 10
4643.841444931402
 20
3013.429770111598
 30
0.0
 11
4643.841444931406
 21
3057.429770111598
 31
0.0
  0
LINE
  5
5C
330
17
100
AcDbEntity
  8
Painéis
 62
200
370
25
100
AcDbLine
 10
5058.841444931402
 20
3013.429770111573
 30
0.0
 11
5058.841444931406
 21
3057.429770111573
 31
0.0
  0
LINE
  5
5D
330
17
100
AcDbEntity
  8
SARR_2.2x7
 62
40
370
25
100
AcDbLine
 10
4650.796304172217
 20
3013.429770111595
 30
0.0
 11
4650.796304172214
 21
3057.429770111573
 31
0.0
  0
LINE
  5
5E
330
17
100
AcDbEntity
  8
Painéis
 62
200
370
25
100
AcDbLine
 10
4950.841444931402
 20
3013.429770111588
 30
0.0
 11
4950.841444931405
 21
3057.429770111588
 31
0.0
  0
LINE
  5
5F
330
17
100
AcDbEntity
  8
COTA
 62
241
370
25
100
AcDbLine
 10
5058.841444931408
 20
3057.429770111573
 30
0.0
 11
5058.841444931408
 21
3069.429770111573
 31
0.0
  0
LINE
  5
60
330
17
100
AcDbEntity
  8
COTA
 62
241
370
25
100
AcDbLine
 10
4643.841444931408
 20
3072.429770111573
 30
0.0
 11
4643.841444931408
 21
3057.429770111598
 31
0.0
  0
LINE
  5
61
330
17
100
AcDbEntity
  8
SARR_2.2x7
 62
40
370
25
100
AcDbLine
 10
4980.841444931403
 20
3020.429770111497
 30
0.0
 11
4950.841444931405
 21
3020.429770111484
 31
0.0
  0
LINE
  5
62
330
17
100
AcDbEntity
  8
SARR_2.2x7
 62
40
370
25
100
AcDbLine
 10
4887.841444931403
 20
3020.42977011159
 30
0.0
 11
4650.796304172214
 21
3020.429770111748
 31
0.0
  0
LINE
  5
63
330
17
100
AcDbEntity
  8
COTA
 62
241
370
25
100
AcDbLine
 10
4643.841444931408
 20
3072.429770111573
 30
0.0
 11
4862.841444931408
 21
3072.429770111573
 31
0.0
  0
LINE
  5
64
330
17
100
AcDbEntity
  8
SARR_EDITAR
 62
141
370
25
100
AcDbLine
 10
4862.841444931408
 20
3070.929770111573
 30
0.0
 11
5058.841444931408
 21
3070.929770111573
 31
0.0
  0
LINE
  5
65
330
17
100
AcDbEntity
  8
SARR_2.2x7
 62
40
370
25
100
AcDbLine
 10
4980.841444931403
 20
3031.429770111543
 30
0.0
 11
4950.841444931405
 21
3031.429770111417
 31
0.0
  0
LINE
  5
66
330
17
100
AcDbEntity
  8
SARR_2.2x7
 62
40
370
25
100
AcDbLine
 10
4980.841444931404
 20
3038.429770111239
 30
0.0
 11
4950.841444931405
 21
3038.429770111111
 31
0.0
  0
LINE
  5
67
330
17
100
AcDbEntity
  8
SARR_2.2x7
 62
40
370
25
100
AcDbLine
 10
4887.841444931404
 20
3031.429770111585
 30
0.0
 11
4650.796304172214
 21
3031.429770111538
 31
0.0
  0
LINE
  5
68
330
17
100
AcDbEntity
  8
SARR_2.2x7
 62
40
370
25
100
AcDbLine
 10
4887.841444931404
 20
3038.429770111284
 30
0.0
 11
4650.796304172216
 21
3038.429770111235
 31
0.0
  0
LINE
  5
69
330
17
100
AcDbEntity
  8
Painéis
 62
200
370
25
100
AcDbLine
 10
4887.841444931402
 20
3013.429770111588
 30
0.0
 11
4887.841444931406
 21
3057.429770111588
 31
0.0
  0
LINE
  5
6A
330
17
100
AcDbEntity
  8
SARR_2.2x7
 62
40
370
25
100
AcDbLine
 10
4950.841444931405
 20
3050.429770111579
 30
0.0
 11
4887.841444931406
 21
3050.429770111473
 31
0.0
  0
LINE
  5
6B
330
17
100
AcDbEntity
  8
SARR_2.2x7
 62
40
370
25
100
AcDbLine
 10
4950.841444931403
 20
3020.42977011159
 30
0.0
 11
4887.841444931403
 21
3020.429770111694
 31
0.0
  0
LINE
  5
6C
330
17
100
AcDbEntity
  8
SARR_2.2x7
 62
40
370
25
100
AcDbLine
 10
4950.841444931405
 20
3031.429770111585
 30
0.0
 11
4887.841444931404
 21
3031.429770111553
 31
0.0
  0
LINE
  5
6D
330
17
100
AcDbEntity
  8
SARR_2.2x7
 62
40
370
25
100
AcDbLine
 10
4950.841444931405
 20
3038.429770111284
 30
0.0
 11
4887.841444931405
 21
3038.429770111251
 31
0.0
  0
LINE
  5
6E
330
17
100
AcDbEntity
  8
SARR_2.2x7
 62
40
370
25
100
AcDbLine
 10
4980.841444931402
 20
3013.429770111569
 30
0.0
 11
4980.841444931403
 21
3020.429770111497
 31
0.0
  0
LINE
  5
6F
330
17
100
AcDbEntity
  8
SARR_2.2x7
 62
40
370
25
100
AcDbLine
 10
4980.841444931404
 20
3031.429770111543
 30
0.0
 11
4980.841444931405
 21
3038.42977011124
 31
0.0
  0
LINE
  5
70
330
17
100
AcDbEntity
  8
SARR_2.2x7
 62
40
370
25
100
AcDbLine
 10
5822.63354676688
 20
3261.581707104987
 30
0.0
 11
5726.63354676688
 21
3261.581707105006
 31
0.0
  0
LINE
  5
71
330
17
100
AcDbEntity
  8
SARR_2.2x7
 62
40
370
25
100
AcDbLine
 10
5651.633546766881
 20
3261.581707104902
 30
0.0
 11
5414.588406007689
 21
3261.581707104742
 31
0.0
  0
LINE
  5
72
330
17
100
AcDbEntity
  8
Painéis
 62
200
370
25
100
AcDbLine
 10
5822.633546766883
 20
3268.581707104895
 30
0.0
 11
5407.633546766881
 21
3268.581707104921
 31
0.0
  0
LINE
  5
73
330
17
100
AcDbEntity
  8
Painéis
 62
200
370
25
100
AcDbLine
 10
5822.633546766877
 20
3224.581707104896
 30
0.0
 11
5407.633546766877
 21
3224.58170710492
 31
0.0
  0
LINE
  5
74
330
17
100
AcDbEntity
  8
Painéis
 62
200
370
25
100
AcDbLine
 10
5407.633546766877
 20
3224.58170710492
 30
0.0
 11
5407.633546766881
 21
3268.581707104921
 31
0.0
  0
LINE
  5
75
330
17
100
AcDbEntity
  8
Painéis
 62
200
370
25
100
AcDbLine
 10
5822.633546766877
 20
3224.581707104896
 30
0.0
 11
5822.633546766882
 21
3268.581707104895
 31
0.0
  0
LINE
  5
76
330
17
100
AcDbEntity
  8
SARR_2.2x7
 62
40
370
25
100
AcDbLine
 10
5414.588406007693
 20
3224.581707104917
 30
0.0
 11
5414.588406007689
 21
3268.581707104895
 31
0.0
  0
LINE
  5
77
330
17
100
AcDbEntity
  8
Painéis
 62
200
370
25
100
AcDbLine
 10
5726.633546766878
 20
3224.58170710491
 30
0.0
 11
5726.633546766882
 21
3268.581707104909
 31
0.0
  0
LINE
  5
78
330
17
100
AcDbEntity
  8
COTA
 62
241
370
25
100
AcDbLine
 10
5822.633546766883
 20
3268.581707104895
 30
0.0
 11
5822.633546766883
 21
3280.581707104895
 31
0.0
  0
LINE
  5
79
330
17
100
AcDbEntity
  8
COTA
 62
241
370
25
100
AcDbLine
 10
5407.633546766883
 20
3283.581707104895
 30
0.0
 11
5407.633546766883
 21
3268.581707104921
 31
0.0
  0
LINE
  5
7A
330
17
100
AcDbEntity
  8
SARR_2.2x7
 62
40
370
25
100
AcDbLine
 10
5651.633546766879
 20
3231.581707104912
 30
0.0
 11
5414.588406007689
 21
3231.58170710507
 31
0.0
  0
LINE
  5
7B
330
17
100
AcDbEntity
  8
COTA
 62
241
370
25
100
AcDbLine
 10
5407.633546766883
 20
3283.581707104895
 30
0.0
 11
5622.633546766883
 21
3283.581707104895
 31
0.0
  0
LINE
  5
7C
330
17
100
AcDbEntity
  8
SARR_EDITAR
 62
141
370
25
100
AcDbLine
 10
5622.633546766883
 20
3282.081707104895
 30
0.0
 11
5822.633546766883
 21
3282.081707104895
 31
0.0
  0
LINE
  5
7D
330
17
100
AcDbEntity
  8
SARR_2.2x7
 62
40
370
25
100
AcDbLine
 10
5651.63354676688
 20
3242.581707104907
 30
0.0
 11
5414.588406007689
 21
3242.58170710486
 31
0.0
  0
LINE
  5
7E
330
17
100
AcDbEntity
  8
SARR_2.2x7
 62
40
370
25
100
AcDbLine
 10
5651.63354676688
 20
3249.581707104606
 30
0.0
 11
5414.588406007691
 21
3249.581707104557
 31
0.0
  0
LINE
  5
7F
330
17
100
AcDbEntity
  8
Painéis
 62
200
370
25
100
AcDbLine
 10
5651.633546766878
 20
3224.58170710491
 30
0.0
 11
5651.633546766881
 21
3268.581707104909
 31
0.0
  0
LINE
  5
80
330
17
100
AcDbEntity
  8
SARR_2.2x7
 62
40
370
25
100
AcDbLine
 10
5726.63354676688
 20
3261.581707104902
 30
0.0
 11
5651.633546766881
 21
3261.581707104795
 31
0.0
  0
LINE
  5
81
330
17
100
AcDbEntity
  8
SARR_2.2x7
 62
40
370
25
100
AcDbLine
 10
5726.633546766879
 20
3231.581707104912
 30
0.0
 11
5651.633546766879
 21
3231.581707105017
 31
0.0
  0
LINE
  5
82
330
17
100
AcDbEntity
  8
SARR_2.2x7
 62
40
370
25
100
AcDbLine
 10
5726.63354676688
 20
3242.581707104907
 30
0.0
 11
5651.63354676688
 21
3242.581707104875
 31
0.0
  0
LINE
  5
83
330
17
100
AcDbEntity
  8
SARR_2.2x7
 62
40
370
25
100
AcDbLine
 10
5726.63354676688
 20
3249.581707104606
 30
0.0
 11
5651.633546766881
 21
3249.581707104573
 31
0.0
  0
LINE
  5
84
330
17
100
AcDbEntity
  8
SARR_2.2x7
 62
40
370
25
100
AcDbLine
 10
5291.229508272044
 20
3055.71114422645
 30
0.0
 11
5387.229508272045
 21
3055.711144226469
 31
0.0
  0
LINE
  5
85
330
17
100
AcDbEntity
  8
SARR_2.2x7
 62
40
370
25
100
AcDbLine
 10
5462.229508272044
 20
3055.711144226364
 30
0.0
 11
5699.274649031234
 21
3055.711144226205
 31
0.0
  0
LINE
  5
86
330
17
100
AcDbEntity
  8
Painéis
 62
200
370
25
100
AcDbLine
 10
5291.229508272041
 20
3062.711144226358
 30
0.0
 11
5706.229508272043
 21
3062.711144226383
 31
0.0
  0
LINE
  5
87
330
17
100
AcDbEntity
  8
Painéis
 62
200
370
25
100
AcDbLine
 10
5291.229508272047
 20
3018.711144226358
 30
0.0
 11
5706.229508272047
 21
3018.711144226383
 31
0.0
  0
LINE
  5
88
330
17
100
AcDbEntity
  8
Painéis
 62
200
370
25
100
AcDbLine
 10
5706.229508272047
 20
3018.711144226383
 30
0.0
 11
5706.229508272043
 21
3062.711144226383
 31
0.0
  0
LINE
  5
89
330
17
100
AcDbEntity
  8
Painéis
 62
200
370
25
100
AcDbLine
 10
5291.229508272047
 20
3018.711144226358
 30
0.0
 11
5291.229508272043
 21
3062.711144226358
 31
0.0
  0
LINE
  5
8A
330
17
100
AcDbEntity
  8
SARR_2.2x7
 62
40
370
25
100
AcDbLine
 10
5699.274649031231
 20
3018.71114422638
 30
0.0
 11
5699.274649031234
 21
3062.711144226358
 31
0.0
  0
LINE
  5
8B
330
17
100
AcDbEntity
  8
Painéis
 62
200
370
25
100
AcDbLine
 10
5387.229508272047
 20
3018.711144226373
 30
0.0
 11
5387.229508272042
 21
3062.711144226372
 31
0.0
  0
LINE
  5
8C
330
17
100
AcDbEntity
  8
COTA
 62
241
370
25
100
AcDbLine
 10
5291.229508272041
 20
3062.711144226358
 30
0.0
 11
5291.229508272041
 21
3074.711144226358
 31
0.0
  0
LINE
  5
8D
330
17
100
AcDbEntity
  8
COTA
 62
241
370
25
100
AcDbLine
 10
5706.22950827205
 20
3077.711144226332
 30
0.0
 11
5706.22950827205
 21
3062.711144226358
 31
0.0
  0
LINE
  5
8E
330
17
100
AcDbEntity
  8
SARR_2.2x7
 62
40
370
25
100
AcDbLine
 10
5373.229508272046
 20
3025.711144226281
 30
0.0
 11
5387.229508272045
 21
3025.711144226269
 31
0.0
  0
LINE
  5
8F
330
17
100
AcDbEntity
  8
SARR_2.2x7
 62
40
370
25
100
AcDbLine
 10
5462.229508272045
 20
3025.711144226374
 30
0.0
 11
5699.274649031234
 21
3025.711144226532
 31
0.0
  0
LINE
  5
90
330
17
100
AcDbEntity
  8
COTA
 62
241
370
25
100
AcDbLine
 10
5706.22950827204
 20
3077.711144226358
 30
0.0
 11
5491.229508272041
 21
3077.711144226358
 31
0.0
  0
LINE
  5
91
330
17
100
AcDbEntity
  8
SARR_EDITAR
 62
141
370
25
100
AcDbLine
 10
5491.229508272041
 20
3076.211144226358
 30
0.0
 11
5291.229508272041
 21
3076.211144226358
 31
0.0
  0
LINE
  5
92
330
17
100
AcDbEntity
  8
SARR_2.2x7
 62
40
370
25
100
AcDbLine
 10
5373.229508272046
 20
3036.711144226328
 30
0.0
 11
5387.229508272045
 21
3036.711144226201
 31
0.0
  0
LINE
  5
93
330
17
100
AcDbEntity
  8
SARR_2.2x7
 62
40
370
25
100
AcDbLine
 10
5373.229508272045
 20
3043.711144226024
 30
0.0
 11
5387.229508272045
 21
3043.711144225896
 31
0.0
  0
LINE
  5
94
330
17
100
AcDbEntity
  8
SARR_2.2x7
 62
40
370
25
100
AcDbLine
 10
5462.229508272045
 20
3036.71114422637
 30
0.0
 11
5699.274649031234
 21
3036.711144226322
 31
0.0
  0
LINE
  5
95
330
17
100
AcDbEntity
  8
SARR_2.2x7
 62
40
370
25
100
AcDbLine
 10
5462.229508272045
 20
3043.711144226069
 30
0.0
 11
5699.274649031233
 21
3043.71114422602
 31
0.0
  0
LINE
  5
96
330
17
100
AcDbEntity
  8
Painéis
 62
200
370
25
100
AcDbLine
 10
5462.229508272047
 20
3018.711144226373
 30
0.0
 11
5462.229508272042
 21
3062.711144226372
 31
0.0
  0
LINE
  5
97
330
17
100
AcDbEntity
  8
SARR_2.2x7
 62
40
370
25
100
AcDbLine
 10
5387.229508272044
 20
3055.711144226364
 30
0.0
 11
5462.229508272042
 21
3055.711144226258
 31
0.0
  0
LINE
  5
98
330
17
100
AcDbEntity
  8
SARR_2.2x7
 62
40
370
25
100
AcDbLine
 10
5387.229508272046
 20
3025.711144226374
 30
0.0
 11
5462.229508272045
 21
3025.711144226479
 31
0.0
  0
LINE
  5
99
330
17
100
AcDbEntity
  8
SARR_2.2x7
 62
40
370
25
100
AcDbLine
 10
5387.229508272045
 20
3036.71114422637
 30
0.0
 11
5462.229508272045
 21
3036.711144226338
 31
0.0
  0
LINE
  5
9A
330
17
100
AcDbEntity
  8
SARR_2.2x7
 62
40
370
25
100
AcDbLine
 10
5387.229508272045
 20
3043.711144226069
 30
0.0
 11
5462.229508272044
 21
3043.711144226036
 31
0.0
  0
LINE
  5
9B
330
17
100
AcDbEntity
  8
SARR_2.2x7
 62
40
370
25
100
AcDbLine
 10
5373.229508272046
 20
3018.711144226354
 30
0.0
 11
5373.229508272046
 21
3025.711144226281
 31
0.0
  0
LINE
  5
9C
330
17
100
AcDbEntity
  8
SARR_2.2x7
 62
40
370
25
100
AcDbLine
 10
5373.229508272045
 20
3036.711144226328
 30
0.0
 11
5373.229508272044
 21
3043.711144226025
 31
0.0
  0
LINE
  5
9D
330
17
100
AcDbEntity
  8
Painéis
 62
200
370
25
100
AcDbLine
 10
5357.26099843019
 20
3264.581707104889
 30
0.0
 11
5294.306139189374
 21
3264.581707104892
 31
0.0
  0
LINE
  5
9E
330
17
100
AcDbEntity
  8
Painéis
 62
200
370
25
100
AcDbLine
 10
5357.260998430184
 20
3224.581707104889
 30
0.0
 11
5294.30613918937
 21
3224.581707104891
 31
0.0
  0
LINE
  5
9F
330
17
100
AcDbEntity
  8
Painéis
 62
200
370
25
100
AcDbLine
 10
5294.30613918937
 20
3224.581707104891
 30
0.0
 11
5294.306139189374
 21
3264.581707104892
 31
0.0
  0
LINE
  5
A0
330
17
100
AcDbEntity
  8
Painéis
 62
200
370
25
100
AcDbLine
 10
5357.260998430184
 20
3224.581707104889
 30
0.0
 11
5357.260998430188
 21
3264.581707104889
 31
0.0
  0
LINE
  5
A1
330
17
100
AcDbEntity
  8
SARR_2.2x7
 62
40
370
25
100
AcDbLine
 10
5350.306139189369
 20
3224.581707104885
 30
0.0
 11
5350.306139189372
 21
3264.581707104889
 31
0.0
  0
LINE
  5
A2
330
17
100
AcDbEntity
  8
SARR_2.2x7
 62
40
370
25
100
AcDbLine
 10
5301.260998430186
 20
3224.581707104888
 30
0.0
 11
5301.260998430183
 21
3264.581707104866
 31
0.0
  0
LINE
  5
A3
330
17
100
AcDbEntity
  8
COTA
 62
241
370
25
100
AcDbLine
 10
5357.26099843019
 20
3264.581707104889
 30
0.0
 11
5357.26099843019
 21
3276.581707104889
 31
0.0
  0
LINE
  5
A4
330
17
100
AcDbEntity
  8
COTA
 62
241
370
25
100
AcDbLine
 10
5294.306139189377
 20
3276.581707104866
 30
0.0
 11
5294.306139189377
 21
3264.581707104892
 31
0.0
  0
LINE
  5
A5
330
17
100
AcDbEntity
  8
SARR_2.2x7
 62
40
370
25
100
AcDbLine
 10
5357.26099843019
 20
3280.081707104859
 30
0.0
 11
5294.306139189377
 21
3280.081707104866
 31
0.0
  0
LINE
  5
A6
330
17
100
AcDbEntity
  8
SARR_2.2x7
 62
40
370
25
100
AcDbLine
 10
5350.30613918937
 20
3231.581707104842
 30
0.0
 11
5301.260998430186
 21
3231.581707105042
 31
0.0
  0
LINE
  5
A7
330
17
100
AcDbEntity
  8
SARR_2.2x7
 62
40
370
25
100
AcDbLine
 10
5301.260998430184
 20
3241.081707105041
 30
0.0
 11
5350.30613918937
 21
3241.081707105003
 31
0.0
  0
LINE
  5
A8
330
17
100
AcDbEntity
  8
SARR_2.2x7
 62
40
370
25
100
AcDbLine
 10
5301.260998430183
 20
3248.081707104738
 30
0.0
 11
5350.30613918937
 21
3248.081707104699
 31
0.0
  0
LINE
  5
A9
330
17
100
AcDbEntity
  8
SARR_2.2x7
 62
40
370
25
100
AcDbLine
 10
5350.306139189372
 20
3257.58170710494
 30
0.0
 11
5301.260998430186
 21
3257.581707104741
 31
0.0
  0
LINE
  5
AA
330
17
100
AcDbEntity
  8
Painéis
 62
200
370
25
100
AcDbLine
 10
5847.411874429941
 20
3058.711144226337
 30
0.0
 11
5784.457015189126
 21
3058.71114422634
 31
0.0
  0
LINE
  5
AB
330
17
100
AcDbEntity
  8
Painéis
 62
200
370
25
100
AcDbLine
 10
5847.411874429936
 20
3018.711144226337
 30
0.0
 11
5784.457015189122
 21
3018.711144226339
 31
0.0
  0
LINE
  5
AC
330
17
100
AcDbEntity
  8
Painéis
 62
200
370
25
100
AcDbLine
 10
5784.457015189122
 20
3018.711144226339
 30
0.0
 11
5784.457015189126
 21
3058.71114422634
 31
0.0
  0
LINE
  5
AD
330
17
100
AcDbEntity
  8
Painéis
 62
200
370
25
100
AcDbLine
 10
5847.411874429936
 20
3018.711144226337
 30
0.0
 11
5847.41187442994
 21
3058.711144226337
 31
0.0
  0
LINE
  5
AE
330
17
100
AcDbEntity
  8
SARR_2.2x7
 62
40
370
25
100
AcDbLine
 10
5840.45701518912
 20
3018.711144226333
 30
0.0
 11
5840.457015189124
 21
3058.711144226337
 31
0.0
  0
LINE
  5
AF
330
17
100
AcDbEntity
  8
SARR_2.2x7
 62
40
370
25
100
AcDbLine
 10
5791.411874429938
 20
3018.711144226336
 30
0.0
 11
5791.411874429934
 21
3058.711144226314
 31
0.0
  0
LINE
  5
B0
330
17
100
AcDbEntity
  8
COTA
 62
241
370
25
100
AcDbLine
 10
5847.411874429941
 20
3058.711144226337
 30
0.0
 11
5847.411874429941
 21
3070.711144226337
 31
0.0
  0
LINE
  5
B1
330
17
100
AcDbEntity
  8
COTA
 62
241
370
25
100
AcDbLine
 10
5784.457015189127
 20
3070.711144226314
 30
0.0
 11
5784.457015189127
 21
3058.71114422634
 31
0.0
  0
LINE
  5
B2
330
17
100
AcDbEntity
  8
SARR_2.2x7
 62
40
370
25
100
AcDbLine
 10
5847.411874429941
 20
3074.211144226307
 30
0.0
 11
5784.457015189127
 21
3074.211144226314
 31
0.0
  0
LINE
  5
B3
330
17
100
AcDbEntity
  8
SARR_2.2x7
 62
40
370
25
100
AcDbLine
 10
5840.457015189122
 20
3025.711144226291
 30
0.0
 11
5791.411874429938
 21
3025.71114422649
 31
0.0
  0
LINE
  5
B4
330
17
100
AcDbEntity
  8
SARR_2.2x7
 62
40
370
25
100
AcDbLine
 10
5791.411874429936
 20
3035.211144226489
 30
0.0
 11
5840.457015189122
 21
3035.211144226451
 31
0.0
  0
LINE
  5
B5
330
17
100
AcDbEntity
  8
SARR_2.2x7
 62
40
370
25
100
AcDbLine
 10
5791.411874429934
 20
3042.211144226186
 30
0.0
 11
5840.457015189122
 21
3042.211144226147
 31
0.0
  0
LINE
  5
B6
330
17
100
AcDbEntity
  8
SARR_2.2x7
 62
40
370
25
100
AcDbLine
 10
5840.457015189124
 20
3051.711144226388
 30
0.0
 11
5791.411874429938
 21
3051.711144226189
 31
0.0
  0
LINE
  5
B7
330
17
100
AcDbEntity
  8
COTA
 62
4
370
25
100
AcDbLine
 10
4643.841444931402
 20
3223.343658626961
 30
0.0
 11
4643.841444931402
 21
3196.803732648806
 31
0.0
  0
LINE
  5
B8
330
17
100
AcDbEntity
  8
COTA
 62
4
370
25
100
AcDbLine
 10
4887.841444931402
 20
3223.343658626991
 30
0.0
 11
4887.841444931402
 21
3196.803732648806
 31
0.0
  0
LINE
  5
B9
330
17
100
AcDbEntity
  8
COTA
 62
4
370
25
100
AcDbLine
 10
4643.841444931402
 20
3199.803732648806
 30
0.0
 11
4887.841444931402
 21
3199.803732648806
 31
0.0
  0
LINE
  5
BA
330
17
100
AcDbEntity
  8
COTA
 62
0
370
25
100
AcDbLine
 10
4645.341444931402
 20
3201.303732648806
 30
0.0
 11
4642.341444931402
 21
3198.303732648806
 31
0.0
  0
LINE
  5
BB
330
17
100
AcDbEntity
  8
COTA
 62
0
370
25
100
AcDbLine
 10
4886.341444931402
 20
3198.303732648806
 30
0.0
 11
4889.341444931402
 21
3201.303732648806
 31
0.0
  0
LINE
  5
BC
330
17
100
AcDbEntity
  8
COTA
 62
4
370
25
100
AcDbLine
 10
4950.841444931403
 20
3223.343658626997
 30
0.0
 11
4950.841444931403
 21
3196.803732648817
 31
0.0
  0
LINE
  5
BD
330
17
100
AcDbEntity
  8
COTA
 62
4
370
25
100
AcDbLine
 10
5058.841444931402
 20
3223.343658626986
 30
0.0
 11
5058.841444931402
 21
3196.803732648817
 31
0.0
  0
LINE
  5
BE
330
17
100
AcDbEntity
  8
COTA
 62
4
370
25
100
AcDbLine
 10
4950.841444931403
 20
3199.803732648817
 30
0.0
 11
5058.841444931402
 21
3199.803732648817
 31
0.0
  0
LINE
  5
BF
330
17
100
AcDbEntity
  8
COTA
 62
0
370
25
100
AcDbLine
 10
4952.341444931403
 20
3201.303732648817
 30
0.0
 11
4949.341444931403
 21
3198.303732648817
 31
0.0
  0
LINE
  5
C0
330
17
100
AcDbEntity
  8
COTA
 62
0
370
25
100
AcDbLine
 10
5057.341444931402
 20
3198.303732648817
 30
0.0
 11
5060.341444931402
 21
3201.303732648817
 31
0.0
  0
LINE
  5
C1
330
17
100
AcDbEntity
  8
COTA
 62
4
370
25
100
AcDbLine
 10
4643.841444931402
 20
3223.343658626961
 30
0.0
 11
4643.841444931402
 21
3168.265221960083
 31
0.0
  0
LINE
  5
C2
330
17
100
AcDbEntity
  8
COTA
 62
4
370
25
100
AcDbLine
 10
5058.841444931402
 20
3223.343658626986
 30
0.0
 11
5058.841444931402
 21
3168.265221960083
 31
0.0
  0
LINE
  5
C3
330
17
100
AcDbEntity
  8
COTA
 62
4
370
25
100
AcDbLine
 10
4643.841444931402
 20
3171.265221960084
 30
0.0
 11
5058.841444931402
 21
3171.265221960084
 31
0.0
  0
LINE
  5
C4
330
17
100
AcDbEntity
  8
COTA
 62
0
370
25
100
AcDbLine
 10
4645.341444931402
 20
3172.765221960084
 30
0.0
 11
4642.341444931402
 21
3169.765221960084
 31
0.0
  0
LINE
  5
C5
330
17
100
AcDbEntity
  8
COTA
 62
0
370
25
100
AcDbLine
 10
5057.341444931402
 20
3169.765221960084
 30
0.0
 11
5060.341444931402
 21
3172.765221960084
 31
0.0
  0
LINE
  5
C6
330
17
100
AcDbEntity
  8
COTA
 62
4
370
25
100
AcDbLine
 10
5061.84144493141
 20
3270.343658626963
 30
0.0
 11
5085.218877094118
 21
3270.343658626963
 31
0.0
  0
LINE
  5
C7
330
17
100
AcDbEntity
  8
COTA
 62
4
370
25
100
AcDbLine
 10
5061.84144493141
 20
3285.343658626963
 30
0.0
 11
5085.218877094118
 21
3285.343658626963
 31
0.0
  0
LINE
  5
C8
330
17
100
AcDbEntity
  8
COTA
 62
4
370
25
100
AcDbLine
 10
5082.218877094118
 20
3270.343658626963
 30
0.0
 11
5082.218877094118
 21
3285.343658626963
 31
0.0
  0
LINE
  5
C9
330
17
100
AcDbEntity
  8
COTA
 62
4
370
25
100
AcDbLine
 10
5082.218877094118
 20
3285.343658626963
 30
0.0
 11
5082.218877094118
 21
3303.715003656203
 31
0.0
  0
LINE
  5
CA
330
17
100
AcDbEntity
  8
COTA
 62
0
370
25
100
AcDbLine
 10
5080.718877094118
 20
3271.843658626963
 30
0.0
 11
5083.718877094118
 21
3268.843658626963
 31
0.0
  0
LINE
  5
CB
330
17
100
AcDbEntity
  8
COTA
 62
0
370
25
100
AcDbLine
 10
5083.718877094118
 20
3283.843658626963
 30
0.0
 11
5080.718877094118
 21
3286.843658626963
 31
0.0
  0
LINE
  5
CC
330
17
100
AcDbEntity
  8
COTA
 62
4
370
25
100
AcDbLine
 10
5061.841444931408
 20
3270.343658626963
 30
0.0
 11
5085.218877094114
 21
3270.343658626963
 31
0.0
  0
LINE
  5
CD
330
17
100
AcDbEntity
  8
COTA
 62
4
370
25
100
AcDbLine
 10
5061.841444931404
 20
3226.343658626963
 30
0.0
 11
5085.218877094114
 21
3226.343658626963
 31
0.0
  0
LINE
  5
CE
330
17
100
AcDbEntity
  8
COTA
 62
4
370
25
100
AcDbLine
 10
5082.218877094113
 20
3270.343658626963
 30
0.0
 11
5082.218877094113
 21
3226.343658626963
 31
0.0
  0
LINE
  5
CF
330
17
100
AcDbEntity
  8
COTA
 62
0
370
25
100
AcDbLine
 10
5083.718877094113
 20
3268.843658626963
 30
0.0
 11
5080.718877094113
 21
3271.843658626963
 31
0.0
  0
LINE
  5
D0
330
17
100
AcDbEntity
  8
COTA
 62
0
370
25
100
AcDbLine
 10
5080.718877094113
 20
3227.843658626963
 30
0.0
 11
5083.718877094113
 21
3224.843658626963
 31
0.0
  0
LINE
  5
D1
330
17
100
AcDbEntity
  8
COTA
 62
4
370
25
100
AcDbLine
 10
5061.84144493141
 20
3285.343658626963
 30
0.0
 11
5108.350351911341
 21
3285.343658626963
 31
0.0
  0
LINE
  5
D2
330
17
100
AcDbEntity
  8
COTA
 62
4
370
25
100
AcDbLine
 10
5061.841444931404
 20
3226.343658626963
 30
0.0
 11
5108.350351911341
 21
3226.343658626963
 31
0.0
  0
LINE
  5
D3
330
17
100
AcDbEntity
  8
COTA
 62
4
370
25
100
AcDbLine
 10
5105.350351911341
 20
3285.343658626963
 30
0.0
 11
5105.350351911341
 21
3226.343658626963
 31
0.0
  0
LINE
  5
D4
330
17
100
AcDbEntity
  8
COTA
 62
0
370
25
100
AcDbLine
 10
5106.850351911341
 20
3283.843658626963
 30
0.0
 11
5103.850351911341
 21
3286.843658626963
 31
0.0
  0
LINE
  5
D5
330
17
100
AcDbEntity
  8
COTA
 62
0
370
25
100
AcDbLine
 10
5103.850351911341
 20
3227.843658626963
 30
0.0
 11
5106.850351911341
 21
3224.843658626963
 31
0.0
  0
LINE
  5
D6
330
17
100
AcDbEntity
  8
COTA
 62
4
370
25
100
AcDbLine
 10
4843.841444931396
 20
3288.343658626961
 30
0.0
 11
4843.841444931396
 21
3294.996630511375
 31
0.0
  0
LINE
  5
D7
330
17
100
AcDbEntity
  8
COTA
 62
4
370
25
100
AcDbLine
 10
4643.841444931396
 20
3288.343658626961
 30
0.0
 11
4643.841444931396
 21
3294.996630511375
 31
0.0
  0
LINE
  5
D8
330
17
100
AcDbEntity
  8
COTA
 62
4
370
25
100
AcDbLine
 10
4843.841444931396
 20
3291.996630511375
 30
0.0
 11
4643.841444931396
 21
3291.996630511375
 31
0.0
  0
LINE
  5
D9
330
17
100
AcDbEntity
  8
COTA
 62
0
370
25
100
AcDbLine
 10
4842.341444931396
 20
3290.496630511375
 30
0.0
 11
4845.341444931396
 21
3293.496630511375
 31
0.0
  0
LINE
  5
DA
330
17
100
AcDbEntity
  8
COTA
 62
0
370
25
100
AcDbLine
 10
4645.341444931396
 20
3293.496630511375
 30
0.0
 11
4642.341444931396
 21
3290.496630511375
 31
0.0
  0
LINE
  5
DB
330
17
100
AcDbEntity
  8
COTA
 62
4
370
25
100
AcDbLine
 10
4640.841444931399
 20
3282.343658626963
 30
0.0
 11
4631.039912990867
 21
3282.343658626963
 31
0.0
  0
LINE
  5
DC
330
17
100
AcDbEntity
  8
COTA
 62
4
370
25
100
AcDbLine
 10
4640.841444931399
 20
3285.343658626963
 30
0.0
 11
4631.039912990867
 21
3285.343658626963
 31
0.0
  0
LINE
  5
DD
330
17
100
AcDbEntity
  8
COTA
 62
4
370
25
100
AcDbLine
 10
4634.039912990867
 20
3282.343658626963
 30
0.0
 11
4634.039912990867
 21
3279.343658626963
 31
0.0
  0
LINE
  5
DE
330
17
100
AcDbEntity
  8
COTA
 62
4
370
25
100
AcDbLine
 10
4634.039912990867
 20
3285.343658626963
 30
0.0
 11
4634.039912990867
 21
3303.674067983688
 31
0.0
  0
LINE
  5
DF
330
17
100
AcDbEntity
  8
COTA
 62
4
370
25
100
AcDbLine
 10
4634.039912990867
 20
3282.343658626963
 30
0.0
 11
4634.039912990867
 21
3285.343658626963
 31
0.0
  0
LINE
  5
E0
330
17
100
AcDbEntity
  8
COTA
 62
0
370
25
100
AcDbLine
 10
4635.539912990867
 20
3280.843658626963
 30
0.0
 11
4632.539912990867
 21
3283.843658626963
 31
0.0
  0
LINE
  5
E1
330
17
100
AcDbEntity
  8
COTA
 62
0
370
25
100
AcDbLine
 10
4632.539912990867
 20
3286.843658626963
 30
0.0
 11
4635.539912990867
 21
3283.843658626963
 31
0.0
  0
LINE
  5
E2
330
17
100
AcDbEntity
  8
COTA
 62
4
370
25
100
AcDbLine
 10
4915.387667125115
 20
3509.790761737563
 30
0.0
 11
4932.259399883093
 21
3509.790761737563
 31
0.0
  0
LINE
  5
E3
330
17
100
AcDbEntity
  8
COTA
 62
4
370
25
100
AcDbLine
 10
4915.387667125115
 20
3483.790761737548
 30
0.0
 11
4932.259399883093
 21
3483.790761737548
 31
0.0
  0
LINE
  5
E4
330
17
100
AcDbEntity
  8
COTA
 62
4
370
25
100
AcDbLine
 10
4929.259399883093
 20
3509.790761737563
 30
0.0
 11
4929.259399883093
 21
3483.790761737548
 31
0.0
  0
LINE
  5
E5
330
17
100
AcDbEntity
  8
COTA
 62
4
370
25
100
AcDbLine
 10
4777.787667125166
 20
3391.790761737571
 30
0.0
 11
4703.410944036002
 21
3391.790761737571
 31
0.0
  0
LINE
  5
E6
330
17
100
AcDbEntity
  8
COTA
 62
4
370
25
100
AcDbLine
 10
4755.787667125167
 20
3509.790761737563
 30
0.0
 11
4703.410944036002
 21
3509.790761737563
 31
0.0
  0
LINE
  5
E7
330
17
100
AcDbEntity
  8
COTA
 62
4
370
25
100
AcDbLine
 10
4706.410944036002
 20
3391.790761737571
 30
0.0
 11
4706.410944036002
 21
3509.790761737563
 31
0.0
  0
LINE
  5
E8
330
17
100
AcDbEntity
  8
COTA
 62
4
370
25
100
AcDbLine
 10
4888.987667125149
 20
3391.790761737571
 30
0.0
 11
4932.259399883512
 21
3391.790761737571
 31
0.0
  0
LINE
  5
E9
330
17
100
AcDbEntity
  8
COTA
 62
4
370
25
100
AcDbLine
 10
4915.387667125115
 20
3479.790761737549
 30
0.0
 11
4932.259399883512
 21
3479.790761737549
 31
0.0
  0
LINE
  5
EA
330
17
100
AcDbEntity
  8
COTA
 62
4
370
25
100
AcDbLine
 10
4929.259399883512
 20
3391.790761737571
 30
0.0
 11
4929.259399883512
 21
3479.790761737549
 31
0.0
  0
LINE
  5
EB
330
17
100
AcDbEntity
  8
Cota Seção (2x)
 62
180
370
25
100
AcDbLine
 10
4847.887667126801
 20
3458.124095070868
 30
0.0
 11
4847.887667126801
 21
3477.457428404201
 31
0.0
  0
LINE
  5
EC
330
17
100
AcDbEntity
  8
Cota Seção (2x)
 62
180
370
25
100
AcDbLine
 10
4847.887667126801
 20
3477.457428404201
 30
0.0
 11
4832.887667126801
 21
3477.457428404201
 31
0.0
  0
LINE
  5
ED
330
17
100
AcDbEntity
  8
Cota Seção (2x)
 62
180
370
25
100
AcDbLine
 10
4832.887667126801
 20
3477.457428404201
 30
0.0
 11
4832.887667126801
 21
3458.124095070868
 31
0.0
  0
LINE
  5
EE
330
17
100
AcDbEntity
  8
Cota Seção (2x)
 62
180
370
25
100
AcDbLine
 10
4832.887667126801
 20
3458.124095070868
 30
0.0
 11
4847.887667126801
 21
3458.124095070868
 31
0.0
  0
LINE
  5
EF
330
17
100
AcDbEntity
  8
COTA
 62
4
370
25
100
AcDbLine
 10
4755.787667125167
 20
3509.790761737563
 30
0.0
 11
4722.730372521467
 21
3509.790761737563
 31
0.0
  0
LINE
  5
F0
330
17
100
AcDbEntity
  8
COTA
 62
4
370
25
100
AcDbLine
 10
4755.787667125167
 20
3483.790761737541
 30
0.0
 11
4722.730372521467
 21
3483.790761737541
 31
0.0
  0
LINE
  5
F1
330
17
100
AcDbEntity
  8
COTA
 62
4
370
25
100
AcDbLine
 10
4725.730372521467
 20
3509.790761737563
 30
0.0
 11
4725.730372521467
 21
3483.790761737541
 31
0.0
  0
LINE
  5
F2
330
17
100
AcDbEntity
  8
COTA
 62
4
370
25
100
AcDbLine
 10
4755.787667125167
 20
3479.790761737542
 30
0.0
 11
4722.730372521797
 21
3479.790761737542
 31
0.0
  0
LINE
  5
F3
330
17
100
AcDbEntity
  8
COTA
 62
4
370
25
100
AcDbLine
 10
4777.787667125166
 20
3391.790761737571
 30
0.0
 11
4722.730372521797
 21
3391.790761737571
 31
0.0
  0
LINE
  5
F4
330
17
100
AcDbEntity
  8
COTA
 62
4
370
25
100
AcDbLine
 10
4725.730372521797
 20
3479.790761737542
 30
0.0
 11
4725.730372521797
 21
3391.790761737571
 31
0.0
  0
LINE
  5
F5
330
17
100
AcDbEntity
  8
COTA
 62
4
370
25
100
AcDbLine
 10
4814.387667125142
 20
3388.790761737561
 30
0.0
 11
4814.387667125142
 21
3344.063947935378
 31
0.0
  0
LINE
  5
F6
330
17
100
AcDbEntity
  8
COTA
 62
4
370
25
100
AcDbLine
 10
4852.387667125142
 20
3388.790761737561
 30
0.0
 11
4852.387667125142
 21
3344.063947935378
 31
0.0
  0
LINE
  5
F7
330
17
100
AcDbEntity
  8
COTA
 62
4
370
25
100
AcDbLine
 10
4814.387667125142
 20
3347.063947935378
 30
0.0
 11
4852.387667125142
 21
3347.063947935378
 31
0.0
  0
LINE
  5
F8
330
17
100
AcDbEntity
  8
Cota Seção (2x)
 62
180
370
25
100
AcDbLine
 10
4824.387667125113
 20
3411.790761737569
 30
0.0
 11
4842.387667125112
 21
3411.790761737569
 31
0.0
  0
LINE
  5
F9
330
17
100
AcDbEntity
  8
Cota Seção (2x)
 62
180
370
25
100
AcDbLine
 10
4842.387667125112
 20
3411.790761737569
 30
0.0
 11
4842.387667125112
 21
3426.790761737569
 31
0.0
  0
LINE
  5
FA
330
17
100
AcDbEntity
  8
Cota Seção (2x)
 62
180
370
25
100
AcDbLine
 10
4842.387667125112
 20
3426.790761737569
 30
0.0
 11
4824.387667125113
 21
3426.790761737569
 31
0.0
  0
LINE
  5
FB
330
17
100
AcDbEntity
  8
Cota Seção (2x)
 62
180
370
25
100
AcDbLine
 10
4824.387667125113
 20
3426.790761737569
 30
0.0
 11
4824.387667125113
 21
3411.790761737569
 31
0.0
  0
LINE
  5
FC
330
17
100
AcDbEntity
  8
COTA
 62
4
370
25
100
AcDbLine
 10
5647.088714804851
 20
3509.790761737563
 30
0.0
 11
5663.960447562831
 21
3509.790761737563
 31
0.0
  0
LINE
  5
FD
330
17
100
AcDbEntity
  8
COTA
 62
4
370
25
100
AcDbLine
 10
5647.088714804851
 20
3483.790761737548
 30
0.0
 11
5663.960447562831
 21
3483.790761737548
 31
0.0
  0
LINE
  5
FE
330
17
100
AcDbEntity
  8
COTA
 62
4
370
25
100
AcDbLine
 10
5660.960447562832
 20
3509.790761737563
 30
0.0
 11
5660.960447562832
 21
3483.790761737548
 31
0.0
  0
LINE
  5
FF
330
17
100
AcDbEntity
  8
COTA
 62
4
370
25
100
AcDbLine
 10
5509.488714804904
 20
3391.790761737571
 30
0.0
 11
5435.111991715743
 21
3391.790761737571
 31
0.0
  0
LINE
  5
100
330
17
100
AcDbEntity
  8
COTA
 62
4
370
25
100
AcDbLine
 10
5487.488714804904
 20
3509.790761737563
 30
0.0
 11
5435.111991715743
 21
3509.790761737563
 31
0.0
  0
LINE
  5
101
330
17
100
AcDbEntity
  8
COTA
 62
4
370
25
100
AcDbLine
 10
5438.111991715743
 20
3391.790761737571
 30
0.0
 11
5438.111991715743
 21
3509.790761737563
 31
0.0
  0
LINE
  5
102
330
17
100
AcDbEntity
  8
COTA
 62
4
370
25
100
AcDbLine
 10
5620.688714804886
 20
3391.790761737571
 30
0.0
 11
5663.960447563249
 21
3391.790761737571
 31
0.0
  0
LINE
  5
103
330
17
100
AcDbEntity
  8
COTA
 62
4
370
25
100
AcDbLine
 10
5647.088714804851
 20
3479.790761737549
 30
0.0
 11
5663.960447563249
 21
3479.790761737549
 31
0.0
  0
LINE
  5
104
330
17
100
AcDbEntity
  8
COTA
 62
4
370
25
100
AcDbLine
 10
5660.960447563249
 20
3391.790761737571
 30
0.0
 11
5660.960447563249
 21
3479.790761737549
 31
0.0
  0
LINE
  5
105
330
17
100
AcDbEntity
  8
Cota Seção (2x)
 62
180
370
25
100
AcDbLine
 10
5579.588714806537
 20
3458.124095070868
 30
0.0
 11
5579.588714806537
 21
3477.457428404202
 31
0.0
  0
LINE
  5
106
330
17
100
AcDbEntity
  8
Cota Seção (2x)
 62
180
370
25
100
AcDbLine
 10
5579.588714806537
 20
3477.457428404202
 30
0.0
 11
5564.588714806538
 21
3477.457428404202
 31
0.0
  0
LINE
  5
107
330
17
100
AcDbEntity
  8
Cota Seção (2x)
 62
180
370
25
100
AcDbLine
 10
5564.588714806538
 20
3477.457428404202
 30
0.0
 11
5564.588714806538
 21
3458.124095070868
 31
0.0
  0
LINE
  5
108
330
17
100
AcDbEntity
  8
Cota Seção (2x)
 62
180
370
25
100
AcDbLine
 10
5564.588714806538
 20
3458.124095070868
 30
0.0
 11
5579.588714806537
 21
3458.124095070868
 31
0.0
  0
LINE
  5
109
330
17
100
AcDbEntity
  8
COTA
 62
4
370
25
100
AcDbLine
 10
5487.488714804904
 20
3509.790761737563
 30
0.0
 11
5454.431420201208
 21
3509.790761737563
 31
0.0
  0
LINE
  5
10A
330
17
100
AcDbEntity
  8
COTA
 62
4
370
25
100
AcDbLine
 10
5487.488714804904
 20
3483.790761737541
 30
0.0
 11
5454.431420201208
 21
3483.790761737541
 31
0.0
  0
LINE
  5
10B
330
17
100
AcDbEntity
  8
COTA
 62
4
370
25
100
AcDbLine
 10
5457.431420201208
 20
3509.790761737563
 30
0.0
 11
5457.431420201208
 21
3483.790761737541
 31
0.0
  0
LINE
  5
10C
330
17
100
AcDbEntity
  8
COTA
 62
4
370
25
100
AcDbLine
 10
5487.488714804904
 20
3479.790761737542
 30
0.0
 11
5454.431420201539
 21
3479.790761737542
 31
0.0
  0
LINE
  5
10D
330
17
100
AcDbEntity
  8
COTA
 62
4
370
25
100
AcDbLine
 10
5509.488714804904
 20
3391.790761737571
 30
0.0
 11
5454.431420201539
 21
3391.790761737571
 31
0.0
  0
LINE
  5
10E
330
17
100
AcDbEntity
  8
COTA
 62
4
370
25
100
AcDbLine
 10
5457.431420201539
 20
3479.790761737542
 30
0.0
 11
5457.431420201539
 21
3391.790761737571
 31
0.0
  0
LINE
  5
10F
330
17
100
AcDbEntity
  8
COTA
 62
4
370
25
100
AcDbLine
 10
5546.088714804879
 20
3388.790761737561
 30
0.0
 11
5546.088714804879
 21
3344.063947935378
 31
0.0
  0
LINE
  5
110
330
17
100
AcDbEntity
  8
COTA
 62
4
370
25
100
AcDbLine
 10
5584.088714804878
 20
3388.790761737561
 30
0.0
 11
5584.088714804878
 21
3344.063947935378
 31
0.0
  0
LINE
  5
111
330
17
100
AcDbEntity
  8
COTA
 62
4
370
25
100
AcDbLine
 10
5546.088714804879
 20
3347.063947935378
 30
0.0
 11
5584.088714804878
 21
3347.063947935378
 31
0.0
  0
LINE
  5
112
330
17
100
AcDbEntity
  8
Cota Seção (2x)
 62
180
370
25
100
AcDbLine
 10
5556.088714804849
 20
3411.790761737569
 30
0.0
 11
5574.08871480485
 21
3411.790761737569
 31
0.0
  0
LINE
  5
113
330
17
100
AcDbEntity
  8
Cota Seção (2x)
 62
180
370
25
100
AcDbLine
 10
5574.08871480485
 20
3411.790761737569
 30
0.0
 11
5574.08871480485
 21
3426.790761737569
 31
0.0
  0
LINE
  5
114
330
17
100
AcDbEntity
  8
Cota Seção (2x)
 62
180
370
25
100
AcDbLine
 10
5574.08871480485
 20
3426.790761737569
 30
0.0
 11
5556.088714804849
 21
3426.790761737569
 31
0.0
  0
LINE
  5
115
330
17
100
AcDbEntity
  8
Cota Seção (2x)
 62
180
370
25
100
AcDbLine
 10
5556.088714804849
 20
3426.790761737569
 30
0.0
 11
5556.088714804849
 21
3411.790761737569
 31
0.0
  0
LINE
  5
116
330
17
100
AcDbEntity
  8
COTA
 62
4
370
25
100
AcDbLine
 10
4887.841444931402
 20
3223.343658626975
 30
0.0
 11
4887.841444931402
 21
3196.803732648817
 31
0.0
  0
LINE
  5
117
330
17
100
AcDbEntity
  8
COTA
 62
4
370
25
100
AcDbLine
 10
4950.841444931402
 20
3223.343658626975
 30
0.0
 11
4950.841444931402
 21
3196.803732648817
 31
0.0
  0
LINE
  5
118
330
17
100
AcDbEntity
  8
COTA
 62
4
370
25
100
AcDbLine
 10
4887.841444931402
 20
3199.803732648817
 30
0.0
 11
4950.841444931402
 21
3199.803732648817
 31
0.0
  0
LINE
  5
119
330
17
100
AcDbEntity
  8
COTA
 62
0
370
25
100
AcDbLine
 10
4889.341444931402
 20
3201.303732648817
 30
0.0
 11
4886.341444931402
 21
3198.303732648817
 31
0.0
  0
LINE
  5
11A
330
17
100
AcDbEntity
  8
COTA
 62
0
370
25
100
AcDbLine
 10
4949.341444931402
 20
3198.303732648817
 30
0.0
 11
4952.341444931402
 21
3201.303732648817
 31
0.0
  0
LINE
  5
11B
330
17
100
AcDbEntity
  8
COTA
 62
4
370
25
100
AcDbLine
 10
4643.8414449314
 20
3245.343658626961
 30
0.0
 11
4643.8414449314
 21
3244.668538566383
 31
0.0
  0
LINE
  5
11C
330
17
100
AcDbEntity
  8
COTA
 62
4
370
25
100
AcDbLine
 10
4721.8414449314
 20
3245.343658626961
 30
0.0
 11
4721.8414449314
 21
3244.668538566383
 31
0.0
  0
LINE
  5
11D
330
17
100
AcDbEntity
  8
COTA
 62
4
370
25
100
AcDbLine
 10
4643.8414449314
 20
3247.668538566382
 30
0.0
 11
4721.8414449314
 21
3247.668538566382
 31
0.0
  0
LINE
  5
11E
330
17
100
AcDbEntity
  8
COTA
 62
0
370
25
100
AcDbLine
 10
4645.3414449314
 20
3249.168538566382
 30
0.0
 11
4642.3414449314
 21
3246.168538566382
 31
0.0
  0
LINE
  5
11F
330
17
100
AcDbEntity
  8
COTA
 62
0
370
25
100
AcDbLine
 10
4720.3414449314
 20
3246.168538566382
 30
0.0
 11
4723.3414449314
 21
3249.168538566382
 31
0.0
  0
LINE
  5
120
330
17
100
AcDbEntity
  8
COTA
 62
4
370
25
100
AcDbLine
 10
5058.841444931402
 20
3010.429770111573
 30
0.0
 11
5058.841444931402
 21
2983.889844133418
 31
0.0
  0
LINE
  5
121
330
17
100
AcDbEntity
  8
COTA
 62
4
370
25
100
AcDbLine
 10
4950.841444931402
 20
3010.429770111602
 30
0.0
 11
4950.841444931402
 21
2983.889844133418
 31
0.0
  0
LINE
  5
122
330
17
100
AcDbEntity
  8
COTA
 62
4
370
25
100
AcDbLine
 10
5058.841444931402
 20
2986.889844133418
 30
0.0
 11
4950.841444931402
 21
2986.889844133418
 31
0.0
  0
LINE
  5
123
330
17
100
AcDbEntity
  8
COTA
 62
0
370
25
100
AcDbLine
 10
5057.341444931402
 20
2985.389844133418
 30
0.0
 11
5060.341444931402
 21
2988.389844133418
 31
0.0
  0
LINE
  5
124
330
17
100
AcDbEntity
  8
COTA
 62
0
370
25
100
AcDbLine
 10
4952.341444931402
 20
2988.389844133418
 30
0.0
 11
4949.341444931402
 21
2985.389844133418
 31
0.0
  0
LINE
  5
125
330
17
100
AcDbEntity
  8
COTA
 62
4
370
25
100
AcDbLine
 10
4887.841444931401
 20
3010.429770111608
 30
0.0
 11
4887.841444931401
 21
2983.889844133429
 31
0.0
  0
LINE
  5
126
330
17
100
AcDbEntity
  8
COTA
 62
4
370
25
100
AcDbLine
 10
4643.841444931402
 20
3010.429770111599
 30
0.0
 11
4643.841444931402
 21
2983.889844133429
 31
0.0
  0
LINE
  5
127
330
17
100
AcDbEntity
  8
COTA
 62
4
370
25
100
AcDbLine
 10
4887.841444931401
 20
2986.889844133429
 30
0.0
 11
4643.841444931402
 21
2986.889844133429
 31
0.0
  0
LINE
  5
128
330
17
100
AcDbEntity
  8
COTA
 62
0
370
25
100
AcDbLine
 10
4886.341444931401
 20
2985.389844133429
 30
0.0
 11
4889.341444931401
 21
2988.389844133429
 31
0.0
  0
LINE
  5
129
330
17
100
AcDbEntity
  8
COTA
 62
0
370
25
100
AcDbLine
 10
4645.341444931402
 20
2988.389844133429
 30
0.0
 11
4642.341444931402
 21
2985.389844133429
 31
0.0
  0
LINE
  5
12A
330
17
100
AcDbEntity
  8
COTA
 62
4
370
25
100
AcDbLine
 10
5058.841444931402
 20
3010.429770111573
 30
0.0
 11
5058.841444931402
 21
2955.351333444696
 31
0.0
  0
LINE
  5
12B
330
17
100
AcDbEntity
  8
COTA
 62
4
370
25
100
AcDbLine
 10
4643.841444931402
 20
3010.429770111599
 30
0.0
 11
4643.841444931402
 21
2955.351333444696
 31
0.0
  0
LINE
  5
12C
330
17
100
AcDbEntity
  8
COTA
 62
4
370
25
100
AcDbLine
 10
5058.841444931402
 20
2958.351333444695
 30
0.0
 11
4643.841444931402
 21
2958.351333444695
 31
0.0
  0
LINE
  5
12D
330
17
100
AcDbEntity
  8
COTA
 62
0
370
25
100
AcDbLine
 10
5057.341444931402
 20
2956.851333444695
 30
0.0
 11
5060.341444931402
 21
2959.851333444695
 31
0.0
  0
LINE
  5
12E
330
17
100
AcDbEntity
  8
COTA
 62
0
370
25
100
AcDbLine
 10
4645.341444931402
 20
2959.851333444695
 30
0.0
 11
4642.341444931402
 21
2956.851333444695
 31
0.0
  0
LINE
  5
12F
330
17
100
AcDbEntity
  8
COTA
 62
4
370
25
100
AcDbLine
 10
4640.841444931399
 20
3057.429770111574
 30
0.0
 11
4624.240420149569
 21
3057.429770111574
 31
0.0
  0
LINE
  5
130
330
17
100
AcDbEntity
  8
COTA
 62
4
370
25
100
AcDbLine
 10
4640.841444931399
 20
3072.429770111575
 30
0.0
 11
4624.240420149569
 21
3072.429770111575
 31
0.0
  0
LINE
  5
131
330
17
100
AcDbEntity
  8
COTA
 62
4
370
25
100
AcDbLine
 10
4627.240420149569
 20
3057.429770111574
 30
0.0
 11
4627.240420149569
 21
3072.429770111575
 31
0.0
  0
LINE
  5
132
330
17
100
AcDbEntity
  8
COTA
 62
4
370
25
100
AcDbLine
 10
4627.240420149569
 20
3072.429770111575
 30
0.0
 11
4627.240420149569
 21
3090.801115140815
 31
0.0
  0
LINE
  5
133
330
17
100
AcDbEntity
  8
COTA
 62
0
370
25
100
AcDbLine
 10
4625.740420149569
 20
3058.929770111574
 30
0.0
 11
4628.740420149569
 21
3055.929770111574
 31
0.0
  0
LINE
  5
134
330
17
100
AcDbEntity
  8
COTA
 62
0
370
25
100
AcDbLine
 10
4628.740420149569
 20
3070.929770111575
 30
0.0
 11
4625.740420149569
 21
3073.929770111575
 31
0.0
  0
LINE
  5
135
330
17
100
AcDbEntity
  8
COTA
 62
4
370
25
100
AcDbLine
 10
4640.841444931401
 20
3057.429770111574
 30
0.0
 11
4624.240420149575
 21
3057.429770111574
 31
0.0
  0
LINE
  5
136
330
17
100
AcDbEntity
  8
COTA
 62
4
370
25
100
AcDbLine
 10
4640.841444931404
 20
3013.429770111574
 30
0.0
 11
4624.240420149575
 21
3013.429770111574
 31
0.0
  0
LINE
  5
137
330
17
100
AcDbEntity
  8
COTA
 62
4
370
25
100
AcDbLine
 10
4627.240420149575
 20
3057.429770111574
 30
0.0
 11
4627.240420149575
 21
3013.429770111574
 31
0.0
  0
LINE
  5
138
330
17
100
AcDbEntity
  8
COTA
 62
0
370
25
100
AcDbLine
 10
4628.740420149575
 20
3055.929770111574
 30
0.0
 11
4625.740420149575
 21
3058.929770111574
 31
0.0
  0
LINE
  5
139
330
17
100
AcDbEntity
  8
COTA
 62
0
370
25
100
AcDbLine
 10
4625.740420149575
 20
3014.929770111574
 30
0.0
 11
4628.740420149575
 21
3011.929770111574
 31
0.0
  0
LINE
  5
13A
330
17
100
AcDbEntity
  8
COTA
 62
4
370
25
100
AcDbLine
 10
4640.841444931399
 20
3072.429770111575
 30
0.0
 11
4601.108945332346
 21
3072.429770111575
 31
0.0
  0
LINE
  5
13B
330
17
100
AcDbEntity
  8
COTA
 62
4
370
25
100
AcDbLine
 10
4640.841444931404
 20
3013.429770111574
 30
0.0
 11
4601.108945332346
 21
3013.429770111574
 31
0.0
  0
LINE
  5
13C
330
17
100
AcDbEntity
  8
COTA
 62
4
370
25
100
AcDbLine
 10
4604.108945332346
 20
3072.429770111575
 30
0.0
 11
4604.108945332346
 21
3013.429770111574
 31
0.0
  0
LINE
  5
13D
330
17
100
AcDbEntity
  8
COTA
 62
0
370
25
100
AcDbLine
 10
4605.608945332346
 20
3070.929770111575
 30
0.0
 11
4602.608945332346
 21
3073.929770111575
 31
0.0
  0
LINE
  5
13E
330
17
100
AcDbEntity
  8
COTA
 62
0
370
25
100
AcDbLine
 10
4602.608945332346
 20
3014.929770111574
 30
0.0
 11
4605.608945332346
 21
3011.929770111574
 31
0.0
  0
LINE
  5
13F
330
17
100
AcDbEntity
  8
COTA
 62
4
370
25
100
AcDbLine
 10
4862.841444931408
 20
3075.429770111573
 30
0.0
 11
4862.841444931408
 21
3082.082741995987
 31
0.0
  0
LINE
  5
140
330
17
100
AcDbEntity
  8
COTA
 62
4
370
25
100
AcDbLine
 10
5058.841444931408
 20
3075.429770111573
 30
0.0
 11
5058.841444931408
 21
3082.082741995987
 31
0.0
  0
LINE
  5
141
330
17
100
AcDbEntity
  8
COTA
 62
4
370
25
100
AcDbLine
 10
4862.841444931408
 20
3079.082741995987
 30
0.0
 11
5058.841444931408
 21
3079.082741995987
 31
0.0
  0
LINE
  5
142
330
17
100
AcDbEntity
  8
COTA
 62
0
370
25
100
AcDbLine
 10
4864.341444931408
 20
3080.582741995987
 30
0.0
 11
4861.341444931408
 21
3077.582741995987
 31
0.0
  0
LINE
  5
143
330
17
100
AcDbEntity
  8
COTA
 62
0
370
25
100
AcDbLine
 10
5057.341444931408
 20
3077.582741995987
 30
0.0
 11
5060.341444931408
 21
3080.582741995987
 31
0.0
  0
LINE
  5
144
330
17
100
AcDbEntity
  8
COTA
 62
4
370
25
100
AcDbLine
 10
5061.84144493141
 20
3069.429770111574
 30
0.0
 11
5071.642976871953
 21
3069.429770111574
 31
0.0
  0
LINE
  5
145
330
17
100
AcDbEntity
  8
COTA
 62
4
370
25
100
AcDbLine
 10
5061.84144493141
 20
3072.429770111575
 30
0.0
 11
5071.642976871953
 21
3072.429770111575
 31
0.0
  0
LINE
  5
146
330
17
100
AcDbEntity
  8
COTA
 62
4
370
25
100
AcDbLine
 10
5068.642976871953
 20
3069.429770111574
 30
0.0
 11
5068.642976871953
 21
3066.429770111574
 31
0.0
  0
LINE
  5
147
330
17
100
AcDbEntity
  8
COTA
 62
4
370
25
100
AcDbLine
 10
5068.642976871953
 20
3072.429770111575
 30
0.0
 11
5068.642976871953
 21
3090.7601794683
 31
0.0
  0
LINE
  5
148
330
17
100
AcDbEntity
  8
COTA
 62
4
370
25
100
AcDbLine
 10
5068.642976871953
 20
3069.429770111574
 30
0.0
 11
5068.642976871953
 21
3072.429770111575
 31
0.0
  0
LINE
  5
149
330
17
100
AcDbEntity
  8
COTA
 62
0
370
25
100
AcDbLine
 10
5070.142976871953
 20
3067.929770111574
 30
0.0
 11
5067.142976871953
 21
3070.929770111574
 31
0.0
  0
LINE
  5
14A
330
17
100
AcDbEntity
  8
COTA
 62
0
370
25
100
AcDbLine
 10
5067.142976871953
 20
3073.929770111575
 30
0.0
 11
5070.142976871953
 21
3070.929770111575
 31
0.0
  0
LINE
  5
14B
330
17
100
AcDbEntity
  8
COTA
 62
4
370
25
100
AcDbLine
 10
4950.841444931402
 20
3010.429770111588
 30
0.0
 11
4950.841444931402
 21
2983.889844133429
 31
0.0
  0
LINE
  5
14C
330
17
100
AcDbEntity
  8
COTA
 62
4
370
25
100
AcDbLine
 10
4887.841444931402
 20
3010.429770111588
 30
0.0
 11
4887.841444931402
 21
2983.889844133429
 31
0.0
  0
LINE
  5
14D
330
17
100
AcDbEntity
  8
COTA
 62
4
370
25
100
AcDbLine
 10
4950.841444931402
 20
2986.889844133429
 30
0.0
 11
4887.841444931402
 21
2986.889844133429
 31
0.0
  0
LINE
  5
14E
330
17
100
AcDbEntity
  8
COTA
 62
0
370
25
100
AcDbLine
 10
4949.341444931402
 20
2985.389844133429
 30
0.0
 11
4952.341444931402
 21
2988.389844133429
 31
0.0
  0
LINE
  5
14F
330
17
100
AcDbEntity
  8
COTA
 62
0
370
25
100
AcDbLine
 10
4889.341444931402
 20
2988.389844133429
 30
0.0
 11
4886.341444931402
 21
2985.389844133429
 31
0.0
  0
LINE
  5
150
330
17
100
AcDbEntity
  8
COTA
 62
4
370
25
100
AcDbLine
 10
5058.841444931404
 20
3032.429770111573
 30
0.0
 11
5058.841444931404
 21
3031.754650050995
 31
0.0
  0
LINE
  5
151
330
17
100
AcDbEntity
  8
COTA
 62
4
370
25
100
AcDbLine
 10
4980.841444931404
 20
3032.429770111573
 30
0.0
 11
4980.841444931404
 21
3031.754650050995
 31
0.0
  0
LINE
  5
152
330
17
100
AcDbEntity
  8
COTA
 62
4
370
25
100
AcDbLine
 10
5058.841444931404
 20
3034.754650050994
 30
0.0
 11
4980.841444931404
 21
3034.754650050994
 31
0.0
  0
LINE
  5
153
330
17
100
AcDbEntity
  8
COTA
 62
0
370
25
100
AcDbLine
 10
5057.341444931404
 20
3033.254650050994
 30
0.0
 11
5060.341444931404
 21
3036.254650050994
 31
0.0
  0
LINE
  5
154
330
17
100
AcDbEntity
  8
COTA
 62
0
370
25
100
AcDbLine
 10
4982.341444931404
 20
3036.254650050994
 30
0.0
 11
4979.341444931404
 21
3033.254650050994
 31
0.0
  0
LINE
  5
155
330
17
100
AcDbEntity
  8
COTA
 62
4
370
25
100
AcDbLine
 10
5822.633546766877
 20
3221.581707104895
 30
0.0
 11
5822.633546766877
 21
3195.04178112674
 31
0.0
  0
LINE
  5
156
330
17
100
AcDbEntity
  8
COTA
 62
4
370
25
100
AcDbLine
 10
5726.633546766878
 20
3221.581707104924
 30
0.0
 11
5726.633546766878
 21
3195.04178112674
 31
0.0
  0
LINE
  5
157
330
17
100
AcDbEntity
  8
COTA
 62
4
370
25
100
AcDbLine
 10
5822.633546766877
 20
3198.04178112674
 30
0.0
 11
5726.633546766878
 21
3198.04178112674
 31
0.0
  0
LINE
  5
158
330
17
100
AcDbEntity
  8
COTA
 62
0
370
25
100
AcDbLine
 10
5821.133546766877
 20
3196.54178112674
 30
0.0
 11
5824.133546766877
 21
3199.54178112674
 31
0.0
  0
LINE
  5
159
330
17
100
AcDbEntity
  8
COTA
 62
0
370
25
100
AcDbLine
 10
5728.133546766878
 20
3199.54178112674
 30
0.0
 11
5725.133546766878
 21
3196.54178112674
 31
0.0
  0
LINE
  5
15A
330
17
100
AcDbEntity
  8
COTA
 62
4
370
25
100
AcDbLine
 10
5651.633546766877
 20
3221.581707104931
 30
0.0
 11
5651.633546766877
 21
3195.041781126751
 31
0.0
  0
LINE
  5
15B
330
17
100
AcDbEntity
  8
COTA
 62
4
370
25
100
AcDbLine
 10
5407.633546766877
 20
3221.581707104921
 30
0.0
 11
5407.633546766877
 21
3195.041781126751
 31
0.0
  0
LINE
  5
15C
330
17
100
AcDbEntity
  8
COTA
 62
4
370
25
100
AcDbLine
 10
5651.633546766877
 20
3198.041781126751
 30
0.0
 11
5407.633546766877
 21
3198.041781126751
 31
0.0
  0
LINE
  5
15D
330
17
100
AcDbEntity
  8
COTA
 62
0
370
25
100
AcDbLine
 10
5650.133546766877
 20
3196.541781126751
 30
0.0
 11
5653.133546766877
 21
3199.541781126751
 31
0.0
  0
LINE
  5
15E
330
17
100
AcDbEntity
  8
COTA
 62
0
370
25
100
AcDbLine
 10
5409.133546766877
 20
3199.541781126751
 30
0.0
 11
5406.133546766877
 21
3196.541781126751
 31
0.0
  0
LINE
  5
15F
330
17
100
AcDbEntity
  8
COTA
 62
4
370
25
100
AcDbLine
 10
5822.633546766877
 20
3221.581707104895
 30
0.0
 11
5822.633546766877
 21
3166.503270438017
 31
0.0
  0
LINE
  5
160
330
17
100
AcDbEntity
  8
COTA
 62
4
370
25
100
AcDbLine
 10
5407.633546766877
 20
3221.581707104921
 30
0.0
 11
5407.633546766877
 21
3166.503270438017
 31
0.0
  0
LINE
  5
161
330
17
100
AcDbEntity
  8
COTA
 62
4
370
25
100
AcDbLine
 10
5822.633546766877
 20
3169.503270438017
 30
0.0
 11
5407.633546766877
 21
3169.503270438017
 31
0.0
  0
LINE
  5
162
330
17
100
AcDbEntity
  8
COTA
 62
0
370
25
100
AcDbLine
 10
5821.133546766877
 20
3168.003270438017
 30
0.0
 11
5824.133546766877
 21
3171.003270438017
 31
0.0
  0
LINE
  5
163
330
17
100
AcDbEntity
  8
COTA
 62
0
370
25
100
AcDbLine
 10
5409.133546766877
 20
3171.003270438017
 30
0.0
 11
5406.133546766877
 21
3168.003270438017
 31
0.0
  0
LINE
  5
164
330
17
100
AcDbEntity
  8
COTA
 62
4
370
25
100
AcDbLine
 10
5404.633546766874
 20
3268.581707104897
 30
0.0
 11
5393.589793247773
 21
3268.581707104897
 31
0.0
  0
LINE
  5
165
330
17
100
AcDbEntity
  8
COTA
 62
4
370
25
100
AcDbLine
 10
5404.633546766874
 20
3283.581707104897
 30
0.0
 11
5393.589793247773
 21
3283.581707104897
 31
0.0
  0
LINE
  5
166
330
17
100
AcDbEntity
  8
COTA
 62
4
370
25
100
AcDbLine
 10
5396.589793247773
 20
3268.581707104897
 30
0.0
 11
5396.589793247773
 21
3283.581707104897
 31
0.0
  0
LINE
  5
167
330
17
100
AcDbEntity
  8
COTA
 62
4
370
25
100
AcDbLine
 10
5396.589793247773
 20
3283.581707104897
 30
0.0
 11
5396.589793247773
 21
3301.953052134137
 31
0.0
  0
LINE
  5
168
330
17
100
AcDbEntity
  8
COTA
 62
0
370
25
100
AcDbLine
 10
5395.089793247773
 20
3270.081707104897
 30
0.0
 11
5398.089793247773
 21
3267.081707104897
 31
0.0
  0
LINE
  5
169
330
17
100
AcDbEntity
  8
COTA
 62
0
370
25
100
AcDbLine
 10
5398.089793247773
 20
3282.081707104897
 30
0.0
 11
5395.089793247773
 21
3285.081707104897
 31
0.0
  0
LINE
  5
16A
330
17
100
AcDbEntity
  8
COTA
 62
4
370
25
100
AcDbLine
 10
5404.633546766876
 20
3268.581707104897
 30
0.0
 11
5393.589793247778
 21
3268.581707104897
 31
0.0
  0
LINE
  5
16B
330
17
100
AcDbEntity
  8
COTA
 62
4
370
25
100
AcDbLine
 10
5404.63354676688
 20
3224.581707104897
 30
0.0
 11
5393.589793247778
 21
3224.581707104897
 31
0.0
  0
LINE
  5
16C
330
17
100
AcDbEntity
  8
COTA
 62
4
370
25
100
AcDbLine
 10
5396.589793247779
 20
3268.581707104897
 30
0.0
 11
5396.589793247779
 21
3224.581707104897
 31
0.0
  0
LINE
  5
16D
330
17
100
AcDbEntity
  8
COTA
 62
0
370
25
100
AcDbLine
 10
5398.089793247779
 20
3267.081707104897
 30
0.0
 11
5395.089793247779
 21
3270.081707104897
 31
0.0
  0
LINE
  5
16E
330
17
100
AcDbEntity
  8
COTA
 62
0
370
25
100
AcDbLine
 10
5395.089793247779
 20
3226.081707104897
 30
0.0
 11
5398.089793247779
 21
3223.081707104897
 31
0.0
  0
LINE
  5
16F
330
17
100
AcDbEntity
  8
COTA
 62
4
370
25
100
AcDbLine
 10
5404.633546766874
 20
3283.581707104897
 30
0.0
 11
5376.571321671821
 21
3283.581707104897
 31
0.0
  0
LINE
  5
170
330
17
100
AcDbEntity
  8
COTA
 62
4
370
25
100
AcDbLine
 10
5404.63354676688
 20
3224.581707104897
 30
0.0
 11
5376.571321671821
 21
3224.581707104897
 31
0.0
  0
LINE
  5
171
330
17
100
AcDbEntity
  8
COTA
 62
4
370
25
100
AcDbLine
 10
5379.571321671821
 20
3283.581707104897
 30
0.0
 11
5379.571321671821
 21
3224.581707104897
 31
0.0
  0
LINE
  5
172
330
17
100
AcDbEntity
  8
COTA
 62
0
370
25
100
AcDbLine
 10
5381.071321671821
 20
3282.081707104897
 30
0.0
 11
5378.071321671821
 21
3285.081707104897
 31
0.0
  0
LINE
  5
173
330
17
100
AcDbEntity
  8
COTA
 62
0
370
25
100
AcDbLine
 10
5378.071321671821
 20
3226.081707104897
 30
0.0
 11
5381.071321671821
 21
3223.081707104897
 31
0.0
  0
LINE
  5
174
330
17
100
AcDbEntity
  8
COTA
 62
4
370
25
100
AcDbLine
 10
5622.633546766883
 20
3286.581707104895
 30
0.0
 11
5622.633546766883
 21
3293.234678989309
 31
0.0
  0
LINE
  5
175
330
17
100
AcDbEntity
  8
COTA
 62
4
370
25
100
AcDbLine
 10
5822.633546766883
 20
3286.581707104895
 30
0.0
 11
5822.633546766883
 21
3293.234678989309
 31
0.0
  0
LINE
  5
176
330
17
100
AcDbEntity
  8
COTA
 62
4
370
25
100
AcDbLine
 10
5622.633546766883
 20
3290.234678989309
 30
0.0
 11
5822.633546766883
 21
3290.234678989309
 31
0.0
  0
LINE
  5
177
330
17
100
AcDbEntity
  8
COTA
 62
0
370
25
100
AcDbLine
 10
5624.133546766883
 20
3291.734678989309
 30
0.0
 11
5621.133546766883
 21
3288.734678989309
 31
0.0
  0
LINE
  5
178
330
17
100
AcDbEntity
  8
COTA
 62
0
370
25
100
AcDbLine
 10
5821.133546766883
 20
3288.734678989309
 30
0.0
 11
5824.133546766883
 21
3291.734678989309
 31
0.0
  0
LINE
  5
179
330
17
100
AcDbEntity
  8
COTA
 62
4
370
25
100
AcDbLine
 10
5825.633546766885
 20
3280.581707104897
 30
0.0
 11
5835.435078707434
 21
3280.581707104897
 31
0.0
  0
LINE
  5
17A
330
17
100
AcDbEntity
  8
COTA
 62
4
370
25
100
AcDbLine
 10
5825.633546766885
 20
3283.581707104897
 30
0.0
 11
5835.435078707434
 21
3283.581707104897
 31
0.0
  0
LINE
  5
17B
330
17
100
AcDbEntity
  8
COTA
 62
4
370
25
100
AcDbLine
 10
5832.435078707434
 20
3280.581707104897
 30
0.0
 11
5832.435078707434
 21
3277.581707104897
 31
0.0
  0
LINE
  5
17C
330
17
100
AcDbEntity
  8
COTA
 62
4
370
25
100
AcDbLine
 10
5832.435078707434
 20
3283.581707104897
 30
0.0
 11
5832.435078707434
 21
3301.912116461622
 31
0.0
  0
LINE
  5
17D
330
17
100
AcDbEntity
  8
COTA
 62
4
370
25
100
AcDbLine
 10
5832.435078707434
 20
3280.581707104897
 30
0.0
 11
5832.435078707434
 21
3283.581707104897
 31
0.0
  0
LINE
  5
17E
330
17
100
AcDbEntity
  8
COTA
 62
0
370
25
100
AcDbLine
 10
5833.935078707434
 20
3279.081707104897
 30
0.0
 11
5830.935078707434
 21
3282.081707104897
 31
0.0
  0
LINE
  5
17F
330
17
100
AcDbEntity
  8
COTA
 62
0
370
25
100
AcDbLine
 10
5830.935078707434
 20
3285.081707104897
 30
0.0
 11
5833.935078707434
 21
3282.081707104897
 31
0.0
  0
LINE
  5
180
330
17
100
AcDbEntity
  8
COTA
 62
4
370
25
100
AcDbLine
 10
5726.633546766878
 20
3221.58170710491
 30
0.0
 11
5726.633546766878
 21
3195.041781126751
 31
0.0
  0
LINE
  5
181
330
17
100
AcDbEntity
  8
COTA
 62
4
370
25
100
AcDbLine
 10
5651.633546766878
 20
3221.58170710491
 30
0.0
 11
5651.633546766878
 21
3195.041781126751
 31
0.0
  0
LINE
  5
182
330
17
100
AcDbEntity
  8
COTA
 62
4
370
25
100
AcDbLine
 10
5726.633546766878
 20
3198.041781126751
 30
0.0
 11
5651.633546766878
 21
3198.041781126751
 31
0.0
  0
LINE
  5
183
330
17
100
AcDbEntity
  8
COTA
 62
0
370
25
100
AcDbLine
 10
5725.133546766878
 20
3196.541781126751
 30
0.0
 11
5728.133546766878
 21
3199.541781126751
 31
0.0
  0
LINE
  5
184
330
17
100
AcDbEntity
  8
COTA
 62
0
370
25
100
AcDbLine
 10
5653.133546766878
 20
3199.541781126751
 30
0.0
 11
5650.133546766878
 21
3196.541781126751
 31
0.0
  0
LINE
  5
185
330
17
100
AcDbEntity
  8
COTA
 62
4
370
25
100
AcDbLine
 10
5291.229508272047
 20
3015.711144226358
 30
0.0
 11
5291.229508272047
 21
2989.171218248202
 31
0.0
  0
LINE
  5
186
330
17
100
AcDbEntity
  8
COTA
 62
4
370
25
100
AcDbLine
 10
5387.229508272047
 20
3015.711144226387
 30
0.0
 11
5387.229508272047
 21
2989.171218248202
 31
0.0
  0
LINE
  5
187
330
17
100
AcDbEntity
  8
COTA
 62
4
370
25
100
AcDbLine
 10
5291.229508272047
 20
2992.171218248202
 30
0.0
 11
5387.229508272047
 21
2992.171218248202
 31
0.0
  0
LINE
  5
188
330
17
100
AcDbEntity
  8
COTA
 62
0
370
25
100
AcDbLine
 10
5292.729508272047
 20
2993.671218248202
 30
0.0
 11
5289.729508272047
 21
2990.671218248202
 31
0.0
  0
LINE
  5
189
330
17
100
AcDbEntity
  8
COTA
 62
0
370
25
100
AcDbLine
 10
5385.729508272047
 20
2990.671218248202
 30
0.0
 11
5388.729508272047
 21
2993.671218248202
 31
0.0
  0
LINE
  5
18A
330
17
100
AcDbEntity
  8
COTA
 62
4
370
25
100
AcDbLine
 10
5462.229508272048
 20
3015.711144226393
 30
0.0
 11
5462.229508272048
 21
2989.171218248213
 31
0.0
  0
LINE
  5
18B
330
17
100
AcDbEntity
  8
COTA
 62
4
370
25
100
AcDbLine
 10
5706.229508272047
 20
3015.711144226383
 30
0.0
 11
5706.229508272047
 21
2989.171218248213
 31
0.0
  0
LINE
  5
18C
330
17
100
AcDbEntity
  8
COTA
 62
4
370
25
100
AcDbLine
 10
5462.229508272048
 20
2992.171218248214
 30
0.0
 11
5706.229508272047
 21
2992.171218248214
 31
0.0
  0
LINE
  5
18D
330
17
100
AcDbEntity
  8
COTA
 62
0
370
25
100
AcDbLine
 10
5463.729508272048
 20
2993.671218248214
 30
0.0
 11
5460.729508272048
 21
2990.671218248214
 31
0.0
  0
LINE
  5
18E
330
17
100
AcDbEntity
  8
COTA
 62
0
370
25
100
AcDbLine
 10
5704.729508272047
 20
2990.671218248214
 30
0.0
 11
5707.729508272047
 21
2993.671218248214
 31
0.0
  0
LINE
  5
18F
330
17
100
AcDbEntity
  8
COTA
 62
4
370
25
100
AcDbLine
 10
5291.229508272047
 20
3015.711144226358
 30
0.0
 11
5291.229508272047
 21
2960.63270755948
 31
0.0
  0
LINE
  5
190
330
17
100
AcDbEntity
  8
COTA
 62
4
370
25
100
AcDbLine
 10
5706.229508272047
 20
3015.711144226383
 30
0.0
 11
5706.229508272047
 21
2960.63270755948
 31
0.0
  0
LINE
  5
191
330
17
100
AcDbEntity
  8
COTA
 62
4
370
25
100
AcDbLine
 10
5291.229508272047
 20
2963.63270755948
 30
0.0
 11
5706.229508272047
 21
2963.63270755948
 31
0.0
  0
LINE
  5
192
330
17
100
AcDbEntity
  8
COTA
 62
0
370
25
100
AcDbLine
 10
5292.729508272047
 20
2965.13270755948
 30
0.0
 11
5289.729508272047
 21
2962.13270755948
 31
0.0
  0
LINE
  5
193
330
17
100
AcDbEntity
  8
COTA
 62
0
370
25
100
AcDbLine
 10
5704.729508272047
 20
2962.13270755948
 30
0.0
 11
5707.729508272047
 21
2965.13270755948
 31
0.0
  0
LINE
  5
194
330
17
100
AcDbEntity
  8
COTA
 62
4
370
25
100
AcDbLine
 10
5709.229508272052
 20
3062.711144226359
 30
0.0
 11
5732.606940434766
 21
3062.711144226359
 31
0.0
  0
LINE
  5
195
330
17
100
AcDbEntity
  8
COTA
 62
4
370
25
100
AcDbLine
 10
5709.229508272052
 20
3077.71114422636
 30
0.0
 11
5732.606940434766
 21
3077.71114422636
 31
0.0
  0
LINE
  5
196
330
17
100
AcDbEntity
  8
COTA
 62
4
370
25
100
AcDbLine
 10
5729.606940434766
 20
3062.711144226359
 30
0.0
 11
5729.606940434766
 21
3077.71114422636
 31
0.0
  0
LINE
  5
197
330
17
100
AcDbEntity
  8
COTA
 62
4
370
25
100
AcDbLine
 10
5729.606940434766
 20
3077.71114422636
 30
0.0
 11
5729.606940434766
 21
3096.0824892556
 31
0.0
  0
LINE
  5
198
330
17
100
AcDbEntity
  8
COTA
 62
0
370
25
100
AcDbLine
 10
5728.106940434766
 20
3064.211144226359
 30
0.0
 11
5731.106940434766
 21
3061.211144226359
 31
0.0
  0
LINE
  5
199
330
17
100
AcDbEntity
  8
COTA
 62
0
370
25
100
AcDbLine
 10
5731.106940434766
 20
3076.21114422636
 30
0.0
 11
5728.106940434766
 21
3079.21114422636
 31
0.0
  0
LINE
  5
19A
330
17
100
AcDbEntity
  8
COTA
 62
4
370
25
100
AcDbLine
 10
5709.229508272052
 20
3062.711144226359
 30
0.0
 11
5732.606940434763
 21
3062.711144226359
 31
0.0
  0
LINE
  5
19B
330
17
100
AcDbEntity
  8
COTA
 62
4
370
25
100
AcDbLine
 10
5709.229508272049
 20
3018.711144226358
 30
0.0
 11
5732.606940434763
 21
3018.711144226358
 31
0.0
  0
LINE
  5
19C
330
17
100
AcDbEntity
  8
COTA
 62
4
370
25
100
AcDbLine
 10
5729.606940434763
 20
3062.711144226359
 30
0.0
 11
5729.606940434763
 21
3018.711144226358
 31
0.0
  0
LINE
  5
19D
330
17
100
AcDbEntity
  8
COTA
 62
0
370
25
100
AcDbLine
 10
5731.106940434763
 20
3061.211144226359
 30
0.0
 11
5728.106940434763
 21
3064.211144226359
 31
0.0
  0
LINE
  5
19E
330
17
100
AcDbEntity
  8
COTA
 62
0
370
25
100
AcDbLine
 10
5728.106940434763
 20
3020.211144226358
 30
0.0
 11
5731.106940434763
 21
3017.211144226358
 31
0.0
  0
LINE
  5
19F
330
17
100
AcDbEntity
  8
COTA
 62
4
370
25
100
AcDbLine
 10
5709.229508272052
 20
3077.71114422636
 30
0.0
 11
5759.738415251991
 21
3077.71114422636
 31
0.0
  0
LINE
  5
1A0
330
17
100
AcDbEntity
  8
COTA
 62
4
370
25
100
AcDbLine
 10
5713.229508272048
 20
3018.711144226358
 30
0.0
 11
5759.738415251991
 21
3018.711144226358
 31
0.0
  0
LINE
  5
1A1
330
17
100
AcDbEntity
  8
COTA
 62
4
370
25
100
AcDbLine
 10
5756.738415251992
 20
3077.71114422636
 30
0.0
 11
5756.738415251992
 21
3018.711144226358
 31
0.0
  0
LINE
  5
1A2
330
17
100
AcDbEntity
  8
COTA
 62
0
370
25
100
AcDbLine
 10
5758.238415251992
 20
3076.21114422636
 30
0.0
 11
5755.238415251992
 21
3079.21114422636
 31
0.0
  0
LINE
  5
1A3
330
17
100
AcDbEntity
  8
COTA
 62
0
370
25
100
AcDbLine
 10
5755.238415251992
 20
3020.211144226358
 30
0.0
 11
5758.238415251992
 21
3017.211144226358
 31
0.0
  0
LINE
  5
1A4
330
17
100
AcDbEntity
  8
COTA
 62
4
370
25
100
AcDbLine
 10
5491.229508272041
 20
3080.711144226358
 30
0.0
 11
5491.229508272041
 21
3087.364116110772
 31
0.0
  0
LINE
  5
1A5
330
17
100
AcDbEntity
  8
COTA
 62
4
370
25
100
AcDbLine
 10
5291.229508272041
 20
3080.711144226358
 30
0.0
 11
5291.229508272041
 21
3087.364116110772
 31
0.0
  0
LINE
  5
1A6
330
17
100
AcDbEntity
  8
COTA
 62
4
370
25
100
AcDbLine
 10
5491.229508272041
 20
3084.364116110771
 30
0.0
 11
5291.229508272041
 21
3084.364116110771
 31
0.0
  0
LINE
  5
1A7
330
17
100
AcDbEntity
  8
COTA
 62
0
370
25
100
AcDbLine
 10
5489.729508272041
 20
3082.864116110771
 30
0.0
 11
5492.729508272041
 21
3085.864116110771
 31
0.0
  0
LINE
  5
1A8
330
17
100
AcDbEntity
  8
COTA
 62
0
370
25
100
AcDbLine
 10
5292.729508272041
 20
3085.864116110771
 30
0.0
 11
5289.729508272041
 21
3082.864116110771
 31
0.0
  0
LINE
  5
1A9
330
17
100
AcDbEntity
  8
COTA
 62
4
370
25
100
AcDbLine
 10
5288.229508272043
 20
3074.711144226359
 30
0.0
 11
5278.427976331515
 21
3074.711144226359
 31
0.0
  0
LINE
  5
1AA
330
17
100
AcDbEntity
  8
COTA
 62
4
370
25
100
AcDbLine
 10
5288.229508272043
 20
3077.71114422636
 30
0.0
 11
5278.427976331515
 21
3077.71114422636
 31
0.0
  0
LINE
  5
1AB
330
17
100
AcDbEntity
  8
COTA
 62
4
370
25
100
AcDbLine
 10
5281.427976331515
 20
3074.711144226359
 30
0.0
 11
5281.427976331515
 21
3071.711144226359
 31
0.0
  0
LINE
  5
1AC
330
17
100
AcDbEntity
  8
COTA
 62
4
370
25
100
AcDbLine
 10
5281.427976331515
 20
3077.71114422636
 30
0.0
 11
5281.427976331515
 21
3096.041553583085
 31
0.0
  0
LINE
  5
1AD
330
17
100
AcDbEntity
  8
COTA
 62
4
370
25
100
AcDbLine
 10
5281.427976331515
 20
3074.711144226359
 30
0.0
 11
5281.427976331515
 21
3077.71114422636
 31
0.0
  0
LINE
  5
1AE
330
17
100
AcDbEntity
  8
COTA
 62
0
370
25
100
AcDbLine
 10
5282.927976331515
 20
3073.211144226359
 30
0.0
 11
5279.927976331515
 21
3076.211144226359
 31
0.0
  0
LINE
  5
1AF
330
17
100
AcDbEntity
  8
COTA
 62
0
370
25
100
AcDbLine
 10
5279.927976331515
 20
3079.21114422636
 30
0.0
 11
5282.927976331515
 21
3076.21114422636
 31
0.0
  0
LINE
  5
1B0
330
17
100
AcDbEntity
  8
COTA
 62
4
370
25
100
AcDbLine
 10
5387.229508272047
 20
3015.711144226373
 30
0.0
 11
5387.229508272047
 21
2989.171218248213
 31
0.0
  0
LINE
  5
1B1
330
17
100
AcDbEntity
  8
COTA
 62
4
370
25
100
AcDbLine
 10
5462.229508272047
 20
3015.711144226373
 30
0.0
 11
5462.229508272047
 21
2989.171218248213
 31
0.0
  0
LINE
  5
1B2
330
17
100
AcDbEntity
  8
COTA
 62
4
370
25
100
AcDbLine
 10
5387.229508272047
 20
2992.171218248214
 30
0.0
 11
5462.229508272047
 21
2992.171218248214
 31
0.0
  0
LINE
  5
1B3
330
17
100
AcDbEntity
  8
COTA
 62
0
370
25
100
AcDbLine
 10
5388.729508272047
 20
2993.671218248214
 30
0.0
 11
5385.729508272047
 21
2990.671218248214
 31
0.0
  0
LINE
  5
1B4
330
17
100
AcDbEntity
  8
COTA
 62
0
370
25
100
AcDbLine
 10
5460.729508272047
 20
2990.671218248214
 30
0.0
 11
5463.729508272047
 21
2993.671218248214
 31
0.0
  0
LINE
  5
1B5
330
17
100
AcDbEntity
  8
COTA
 62
4
370
25
100
AcDbLine
 10
5291.229508272045
 20
3037.711144226358
 30
0.0
 11
5291.229508272045
 21
3037.036024165779
 31
0.0
  0
LINE
  5
1B6
330
17
100
AcDbEntity
  8
COTA
 62
4
370
25
100
AcDbLine
 10
5373.229508272045
 20
3037.711144226358
 30
0.0
 11
5373.229508272045
 21
3037.036024165779
 31
0.0
  0
LINE
  5
1B7
330
17
100
AcDbEntity
  8
COTA
 62
4
370
25
100
AcDbLine
 10
5291.229508272045
 20
3040.036024165779
 30
0.0
 11
5373.229508272045
 21
3040.036024165779
 31
0.0
  0
LINE
  5
1B8
330
17
100
AcDbEntity
  8
COTA
 62
0
370
25
100
AcDbLine
 10
5292.729508272045
 20
3041.536024165779
 30
0.0
 11
5289.729508272045
 21
3038.536024165779
 31
0.0
  0
LINE
  5
1B9
330
17
100
AcDbEntity
  8
COTA
 62
0
370
25
100
AcDbLine
 10
5371.729508272045
 20
3038.536024165779
 30
0.0
 11
5374.729508272045
 21
3041.536024165779
 31
0.0
  0
LINE
  5
1BA
330
17
100
AcDbEntity
  8
COTA
 62
4
370
25
100
AcDbLine
 10
5850.411874429944
 20
3058.711144226363
 30
0.0
 11
5880.42207775568
 21
3058.711144226363
 31
0.0
  0
LINE
  5
1BB
330
17
100
AcDbEntity
  8
COTA
 62
4
370
25
100
AcDbLine
 10
5850.411874429949
 20
3018.711144226363
 30
0.0
 11
5880.42207775568
 21
3018.711144226363
 31
0.0
  0
LINE
  5
1BC
330
17
100
AcDbEntity
  8
COTA
 62
4
370
25
100
AcDbLine
 10
5877.422077755681
 20
3058.711144226363
 30
0.0
 11
5877.422077755681
 21
3018.711144226363
 31
0.0
  0
LINE
  5
1BD
330
17
100
AcDbEntity
  8
COTA
 62
0
370
25
100
AcDbLine
 10
5878.922077755681
 20
3057.211144226363
 30
0.0
 11
5875.922077755681
 21
3060.211144226363
 31
0.0
  0
LINE
  5
1BE
330
17
100
AcDbEntity
  8
COTA
 62
0
370
25
100
AcDbLine
 10
5875.922077755681
 20
3020.211144226363
 30
0.0
 11
5878.922077755681
 21
3017.211144226363
 31
0.0
  0
LINE
  5
1BF
330
17
100
AcDbEntity
  8
COTA
 62
4
370
25
100
AcDbLine
 10
5850.411874429943
 20
3058.711144226363
 30
0.0
 11
5880.42207775566
 21
3058.711144226363
 31
0.0
  0
LINE
  5
1C0
330
17
100
AcDbEntity
  8
COTA
 62
4
370
25
100
AcDbLine
 10
5850.411874429943
 20
3070.711144226338
 30
0.0
 11
5880.42207775566
 21
3070.711144226338
 31
0.0
  0
LINE
  5
1C1
330
17
100
AcDbEntity
  8
COTA
 62
4
370
25
100
AcDbLine
 10
5877.42207775566
 20
3058.711144226363
 30
0.0
 11
5877.42207775566
 21
3070.711144226338
 31
0.0
  0
LINE
  5
1C2
330
17
100
AcDbEntity
  8
COTA
 62
0
370
25
100
AcDbLine
 10
5875.92207775566
 20
3060.211144226363
 30
0.0
 11
5878.92207775566
 21
3057.211144226363
 31
0.0
  0
LINE
  5
1C3
330
17
100
AcDbEntity
  8
COTA
 62
0
370
25
100
AcDbLine
 10
5878.92207775566
 20
3069.211144226338
 30
0.0
 11
5875.92207775566
 21
3072.211144226338
 31
0.0
  0
LINE
  5
1C4
330
17
100
AcDbEntity
  8
COTA
 62
4
370
25
100
AcDbLine
 10
5850.411874429943
 20
3070.711144226338
 30
0.0
 11
5880.422077755695
 21
3070.711144226338
 31
0.0
  0
LINE
  5
1C5
330
17
100
AcDbEntity
  8
COTA
 62
4
370
25
100
AcDbLine
 10
5850.411874429943
 20
3077.711144226339
 30
0.0
 11
5880.422077755695
 21
3077.711144226339
 31
0.0
  0
LINE
  5
1C6
330
17
100
AcDbEntity
  8
COTA
 62
4
370
25
100
AcDbLine
 10
5877.422077755695
 20
3070.711144226338
 30
0.0
 11
5877.422077755695
 21
3077.711144226339
 31
0.0
  0
LINE
  5
1C7
330
17
100
AcDbEntity
  8
COTA
 62
4
370
25
100
AcDbLine
 10
5877.422077755695
 20
3077.711144226339
 30
0.0
 11
5877.422077755695
 21
3092.442138378385
 31
0.0
  0
LINE
  5
1C8
330
17
100
AcDbEntity
  8
COTA
 62
0
370
25
100
AcDbLine
 10
5875.922077755695
 20
3072.211144226338
 30
0.0
 11
5878.922077755695
 21
3069.211144226338
 31
0.0
  0
LINE
  5
1C9
330
17
100
AcDbEntity
  8
COTA
 62
0
370
25
100
AcDbLine
 10
5878.922077755695
 20
3076.211144226339
 30
0.0
 11
5875.922077755695
 21
3079.211144226339
 31
0.0
  0
LINE
  5
1CA
330
17
100
AcDbEntity
  8
COTA
 62
4
370
25
100
AcDbLine
 10
5357.260998430184
 20
3221.581707104889
 30
0.0
 11
5357.260998430184
 21
3166.503270438019
 31
0.0
  0
LINE
  5
1CB
330
17
100
AcDbEntity
  8
COTA
 62
4
370
25
100
AcDbLine
 10
5294.30613918937
 20
3221.581707104892
 30
0.0
 11
5294.30613918937
 21
3166.503270438019
 31
0.0
  0
LINE
  5
1CC
330
17
100
AcDbEntity
  8
COTA
 62
4
370
25
100
AcDbLine
 10
5357.260998430184
 20
3169.503270438019
 30
0.0
 11
5294.30613918937
 21
3169.503270438019
 31
0.0
  0
LINE
  5
1CD
330
17
100
AcDbEntity
  8
COTA
 62
0
370
25
100
AcDbLine
 10
5355.760998430184
 20
3168.003270438019
 30
0.0
 11
5358.760998430184
 21
3171.003270438019
 31
0.0
  0
LINE
  5
1CE
330
17
100
AcDbEntity
  8
COTA
 62
0
370
25
100
AcDbLine
 10
5295.80613918937
 20
3171.003270438019
 30
0.0
 11
5292.80613918937
 21
3168.003270438019
 31
0.0
  0
LINE
  5
1CF
330
17
100
AcDbEntity
  8
COTA
 62
4
370
25
100
AcDbLine
 10
5291.306139189376
 20
3264.581707104893
 30
0.0
 11
5274.840259130047
 21
3264.581707104893
 31
0.0
  0
LINE
  5
1D0
330
17
100
AcDbEntity
  8
COTA
 62
4
370
25
100
AcDbLine
 10
5291.306139189373
 20
3224.581707104893
 30
0.0
 11
5274.840259130047
 21
3224.581707104893
 31
0.0
  0
LINE
  5
1D1
330
17
100
AcDbEntity
  8
COTA
 62
4
370
25
100
AcDbLine
 10
5277.840259130046
 20
3264.581707104893
 30
0.0
 11
5277.840259130046
 21
3224.581707104893
 31
0.0
  0
LINE
  5
1D2
330
17
100
AcDbEntity
  8
COTA
 62
0
370
25
100
AcDbLine
 10
5279.340259130046
 20
3263.081707104893
 30
0.0
 11
5276.340259130046
 21
3266.081707104893
 31
0.0
  0
LINE
  5
1D3
330
17
100
AcDbEntity
  8
COTA
 62
0
370
25
100
AcDbLine
 10
5276.340259130046
 20
3226.081707104893
 30
0.0
 11
5279.340259130046
 21
3223.081707104893
 31
0.0
  0
LINE
  5
1D4
330
17
100
AcDbEntity
  8
COTA
 62
4
370
25
100
AcDbLine
 10
5291.306139189378
 20
3264.581707104893
 30
0.0
 11
5274.840259130039
 21
3264.581707104893
 31
0.0
  0
LINE
  5
1D5
330
17
100
AcDbEntity
  8
COTA
 62
4
370
25
100
AcDbLine
 10
5291.306139189378
 20
3276.581707104868
 30
0.0
 11
5274.840259130039
 21
3276.581707104868
 31
0.0
  0
LINE
  5
1D6
330
17
100
AcDbEntity
  8
COTA
 62
4
370
25
100
AcDbLine
 10
5277.840259130039
 20
3264.581707104893
 30
0.0
 11
5277.840259130039
 21
3276.581707104868
 31
0.0
  0
LINE
  5
1D7
330
17
100
AcDbEntity
  8
COTA
 62
0
370
25
100
AcDbLine
 10
5276.340259130039
 20
3266.081707104893
 30
0.0
 11
5279.340259130039
 21
3263.081707104893
 31
0.0
  0
LINE
  5
1D8
330
17
100
AcDbEntity
  8
COTA
 62
0
370
25
100
AcDbLine
 10
5279.340259130039
 20
3275.081707104868
 30
0.0
 11
5276.340259130039
 21
3278.081707104868
 31
0.0
  0
LINE
  5
1D9
330
17
100
AcDbEntity
  8
COTA
 62
4
370
25
100
AcDbLine
 10
5291.306139189378
 20
3276.581707104868
 30
0.0
 11
5274.840259130032
 21
3276.581707104868
 31
0.0
  0
LINE
  5
1DA
330
17
100
AcDbEntity
  8
COTA
 62
4
370
25
100
AcDbLine
 10
5291.306139189378
 20
3283.581707104868
 30
0.0
 11
5274.840259130032
 21
3283.581707104868
 31
0.0
  0
LINE
  5
1DB
330
17
100
AcDbEntity
  8
COTA
 62
4
370
25
100
AcDbLine
 10
5277.840259130032
 20
3276.581707104868
 30
0.0
 11
5277.840259130032
 21
3283.581707104868
 31
0.0
  0
LINE
  5
1DC
330
17
100
AcDbEntity
  8
COTA
 62
4
370
25
100
AcDbLine
 10
5277.840259130032
 20
3283.581707104868
 30
0.0
 11
5277.840259130032
 21
3298.312701256914
 31
0.0
  0
LINE
  5
1DD
330
17
100
AcDbEntity
  8
COTA
 62
0
370
25
100
AcDbLine
 10
5276.340259130032
 20
3278.081707104868
 30
0.0
 11
5279.340259130032
 21
3275.081707104868
 31
0.0
  0
LINE
  5
1DE
330
17
100
AcDbEntity
  8
COTA
 62
0
370
25
100
AcDbLine
 10
5279.340259130032
 20
3282.081707104868
 30
0.0
 11
5276.340259130032
 21
3285.081707104868
 31
0.0
  0
LINE
  5
1DF
330
17
100
AcDbEntity
  8
COTA
 62
4
370
25
100
AcDbLine
 10
5847.411874429936
 20
3015.711144226337
 30
0.0
 11
5847.411874429936
 21
2960.632707559467
 31
0.0
  0
LINE
  5
1E0
330
17
100
AcDbEntity
  8
COTA
 62
4
370
25
100
AcDbLine
 10
5784.457015189122
 20
3015.71114422634
 30
0.0
 11
5784.457015189122
 21
2960.632707559467
 31
0.0
  0
LINE
  5
1E1
330
17
100
AcDbEntity
  8
COTA
 62
4
370
25
100
AcDbLine
 10
5847.411874429936
 20
2963.632707559467
 30
0.0
 11
5784.457015189122
 21
2963.632707559467
 31
0.0
  0
LINE
  5
1E2
330
17
100
AcDbEntity
  8
COTA
 62
0
370
25
100
AcDbLine
 10
5845.911874429936
 20
2962.132707559467
 30
0.0
 11
5848.911874429936
 21
2965.132707559467
 31
0.0
  0
LINE
  5
1E3
330
17
100
AcDbEntity
  8
COTA
 62
0
370
25
100
AcDbLine
 10
5785.957015189122
 20
2965.132707559467
 30
0.0
 11
5782.957015189122
 21
2962.132707559467
 31
0.0
  0
LINE
  5
1E4
330
17
100
AcDbEntity
  8
Texto Seção
 62
252
370
15
100
AcDbLine
 10
4835.587667125139
 20
3509.790761737569
 30
0.0
 11
4835.587667125139
 21
3634.790761737569
 31
0.0
  0
LINE
  5
1E5
330
17
100
AcDbEntity
  8
Texto Seção
 62
252
370
15
100
AcDbLine
 10
5567.288714804876
 20
3509.790761737569
 30
0.0
 11
5567.288714804876
 21
3634.790761737569
 31
0.0
  0
LWPOLYLINE
  5
1E6
330
17
100
AcDbEntity
  8
Painéis
 62
200
370
25
100
AcDbPolyline
 90
4
 70
1
 10
4643.841444931396
 20
3285.343658626961
 10
4843.841444931396
 20
3285.343658626961
 10
4843.841444931396
 20
3282.343658626961
 10
4643.841444931396
 20
3282.343658626961
  0
LWPOLYLINE
  5
1E7
330
17
100
AcDbEntity
  8
Painéis
 62
200
370
25
100
AcDbPolyline
 90
4
 70
1
 10
4810.387667125142
 20
3479.790761737547
 10
4814.387667125142
 20
3479.790761737547
 10
4814.387667125142
 20
3391.790761737569
 10
4810.387667125142
 20
3391.790761737569
  0
LWPOLYLINE
  5
1E8
330
17
100
AcDbEntity
  8
Madeira
 62
126
370
18
100
AcDbPolyline
 90
4
 70
1
 10
4852.387667125142
 20
3391.790761737569
 10
4852.387667125142
 20
3396.190761737563
 10
4838.387667125142
 20
3396.190761737563
 10
4838.387667125142
 20
3391.790761737569
  0
LWPOLYLINE
  5
1E9
330
17
100
AcDbEntity
  8
Painéis
 62
200
370
25
100
AcDbPolyline
 90
4
 70
1
 10
4852.387667125142
 20
3396.190761737563
 10
4852.387667125142
 20
3399.790761737569
 10
4814.387667125142
 20
3399.790761737569
 10
4814.387667125142
 20
3396.190761737563
  0
LWPOLYLINE
  5
1EA
330
17
100
AcDbEntity
  8
Madeira
 62
126
370
18
100
AcDbPolyline
 90
4
 70
1
 10
4814.387667125142
 20
3391.790761737569
 10
4814.387667125142
 20
3396.190761737563
 10
4828.387667125142
 20
3396.190761737563
 10
4828.387667125142
 20
3391.790761737569
  0
LWPOLYLINE
  5
1EB
330
17
100
AcDbEntity
  8
Painéis
 62
200
370
25
100
AcDbPolyline
 90
4
 70
1
 10
4856.387667125142
 20
3479.790761737547
 10
4852.387667125142
 20
3479.790761737547
 10
4852.387667125142
 20
3391.790761737569
 10
4856.387667125142
 20
3391.790761737569
  0
LWPOLYLINE
  5
1EC
330
17
100
AcDbEntity
  8
Painéis
 62
200
370
25
100
AcDbPolyline
 90
4
 70
1
 10
4912.387667125113
 20
3479.790761737547
 10
4912.387667125113
 20
3483.790761737547
 10
4852.387667125142
 20
3483.790761737547
 10
4852.387667125142
 20
3479.790761737547
  0
LWPOLYLINE
  5
1ED
330
17
100
AcDbEntity
  8
Painéis
 62
200
370
25
100
AcDbPolyline
 90
4
 70
1
 10
4814.387667125142
 20
3479.790761737547
 10
4814.387667125142
 20
3483.790761737547
 10
4758.787667125164
 20
3483.79076173754
 10
4758.787667125164
 20
3479.79076173754
  0
LWPOLYLINE
  5
1EE
330
17
100
AcDbEntity
  8
CONCRETO
 62
251
370
25
100
AcDbPolyline
 90
8
 70
1
 10
4758.787667125164
 20
3483.79076173754
 10
4758.787667125164
 20
3509.790761737569
 10
4912.387667125113
 20
3509.790761737569
 10
4912.387667125113
 20
3483.790761737554
 10
4852.387667125142
 20
3483.790761737554
 10
4852.387667125084
 20
3399.790761737569
 10
4814.387667125142
 20
3399.790761737569
 10
4814.387667125142
 20
3483.790761737547
  0
LWPOLYLINE
  5
1EF
330
17
100
AcDbEntity
  8
Madeira
 62
126
370
18
100
AcDbPolyline
 90
4
 70
1
 10
4805.987667125148
 20
3465.790761737547
 10
4810.387667125142
 20
3465.790761737547
 10
4810.387667125142
 20
3479.790761737547
 10
4805.987667125148
 20
3479.790761737547
  0
LWPOLYLINE
  5
1F0
330
17
100
AcDbEntity
  8
Madeira
 62
126
370
18
100
AcDbPolyline
 90
4
 70
1
 10
4805.987667125148
 20
3391.790761737569
 10
4810.387667125142
 20
3391.790761737569
 10
4810.387667125142
 20
3405.790761737569
 10
4805.987667125148
 20
3405.790761737569
  0
LWPOLYLINE
  5
1F1
330
17
100
AcDbEntity
  8
Madeira
 62
126
370
18
100
AcDbPolyline
 90
4
 70
1
 10
4860.787667125136
 20
3465.790761737547
 10
4856.387667125142
 20
3465.790761737547
 10
4856.387667125142
 20
3479.790761737547
 10
4860.787667125136
 20
3479.790761737547
  0
LWPOLYLINE
  5
1F2
330
17
100
AcDbEntity
  8
Madeira
 62
126
370
18
100
AcDbPolyline
 90
4
 70
1
 10
4860.787667125136
 20
3391.790761737569
 10
4856.387667125142
 20
3391.790761737569
 10
4856.387667125142
 20
3405.790761737569
 10
4860.787667125136
 20
3405.790761737569
  0
LWPOLYLINE
  5
1F3
330
17
100
AcDbEntity
  8
Madeira
 62
126
370
18
100
AcDbPolyline
 90
4
 70
1
 10
4805.987667125148
 20
3428.790761737558
 10
4810.387667125142
 20
3428.790761737558
 10
4810.387667125142
 20
3442.790761737557
 10
4805.987667125148
 20
3442.790761737557
  0
LWPOLYLINE
  5
1F4
330
17
100
AcDbEntity
  8
Madeira
 62
126
370
18
100
AcDbPolyline
 90
4
 70
1
 10
4860.787667125136
 20
3428.790761737558
 10
4856.387667125142
 20
3428.790761737558
 10
4856.387667125142
 20
3442.790761737557
 10
4860.787667125136
 20
3442.790761737557
  0
LWPOLYLINE
  5
1F5
330
17
100
AcDbEntity
  8
SARR_3.5x7
 62
81
370
25
100
AcDbPolyline
 90
4
 70
1
 10
4791.987667125082
 20
3473.790761737547
 10
4805.987667125083
 20
3473.790761737547
 10
4805.98766712521
 20
3315.312548331763
 10
4791.987667125209
 20
3315.312548331763
  0
LWPOLYLINE
  5
1F6
330
17
100
AcDbEntity
  8
SARR_3.5x7
 62
81
370
25
100
AcDbPolyline
 90
4
 70
1
 10
4874.787667125369
 20
3473.790761737549
 10
4860.787667125369
 20
3473.790761737549
 10
4860.787667125223
 20
3315.312548331763
 10
4874.787667125223
 20
3315.312548331763
  0
LWPOLYLINE
  5
1F7
330
17
100
AcDbEntity
  8
SARR_3.5x7
 62
81
370
25
100
AcDbPolyline
 90
4
 70
1
 10
4791.987667125067
 20
3391.790761737569
 10
4874.787667125271
 20
3391.790761737567
 10
4874.787667125271
 20
3361.732700133568
 10
4791.987667125067
 20
3361.73270013357
  0
LWPOLYLINE
  5
1F8
330
17
100
AcDbEntity
  8
Painéis
 62
200
370
25
100
AcDbPolyline
 90
4
 70
1
 10
5542.088714804879
 20
3479.790761737547
 10
5546.088714804879
 20
3479.790761737547
 10
5546.088714804879
 20
3391.790761737569
 10
5542.088714804879
 20
3391.790761737569
  0
LWPOLYLINE
  5
1F9
330
17
100
AcDbEntity
  8
Madeira
 62
126
370
18
100
AcDbPolyline
 90
4
 70
1
 10
5584.088714804878
 20
3391.790761737569
 10
5584.088714804878
 20
3396.190761737563
 10
5570.088714804878
 20
3396.190761737563
 10
5570.088714804878
 20
3391.790761737569
  0
LWPOLYLINE
  5
1FA
330
17
100
AcDbEntity
  8
Painéis
 62
200
370
25
100
AcDbPolyline
 90
4
 70
1
 10
5584.088714804878
 20
3396.190761737563
 10
5584.088714804878
 20
3399.790761737569
 10
5546.088714804879
 20
3399.790761737569
 10
5546.088714804879
 20
3396.190761737563
  0
LWPOLYLINE
  5
1FB
330
17
100
AcDbEntity
  8
Madeira
 62
126
370
18
100
AcDbPolyline
 90
4
 70
1
 10
5546.088714804879
 20
3391.790761737569
 10
5546.088714804879
 20
3396.190761737563
 10
5560.088714804879
 20
3396.190761737563
 10
5560.088714804879
 20
3391.790761737569
  0
LWPOLYLINE
  5
1FC
330
17
100
AcDbEntity
  8
Painéis
 62
200
370
25
100
AcDbPolyline
 90
4
 70
1
 10
5588.088714804879
 20
3479.790761737547
 10
5584.088714804878
 20
3479.790761737547
 10
5584.088714804878
 20
3391.790761737569
 10
5588.088714804879
 20
3391.790761737569
  0
LWPOLYLINE
  5
1FD
330
17
100
AcDbEntity
  8
Painéis
 62
200
370
25
100
AcDbPolyline
 90
4
 70
1
 10
5644.088714804849
 20
3479.790761737547
 10
5644.088714804849
 20
3483.790761737547
 10
5584.088714804878
 20
3483.790761737547
 10
5584.088714804878
 20
3479.790761737547
  0
LWPOLYLINE
  5
1FE
330
17
100
AcDbEntity
  8
Painéis
 62
200
370
25
100
AcDbPolyline
 90
4
 70
1
 10
5546.088714804879
 20
3479.790761737547
 10
5546.088714804879
 20
3483.790761737547
 10
5490.488714804902
 20
3483.79076173754
 10
5490.488714804902
 20
3479.79076173754
  0
LWPOLYLINE
  5
1FF
330
17
100
AcDbEntity
  8
CONCRETO
 62
251
370
25
100
AcDbPolyline
 90
8
 70
1
 10
5490.488714804902
 20
3483.79076173754
 10
5490.488714804902
 20
3509.790761737569
 10
5644.088714804849
 20
3509.790761737569
 10
5644.088714804849
 20
3483.790761737554
 10
5584.088714804878
 20
3483.790761737554
 10
5584.088714804821
 20
3399.790761737569
 10
5546.088714804879
 20
3399.790761737569
 10
5546.088714804879
 20
3483.790761737547
  0
LWPOLYLINE
  5
200
330
17
100
AcDbEntity
  8
Madeira
 62
126
370
18
100
AcDbPolyline
 90
4
 70
1
 10
5537.688714804884
 20
3465.790761737547
 10
5542.088714804879
 20
3465.790761737547
 10
5542.088714804879
 20
3479.790761737547
 10
5537.688714804884
 20
3479.790761737547
  0
LWPOLYLINE
  5
201
330
17
100
AcDbEntity
  8
Madeira
 62
126
370
18
100
AcDbPolyline
 90
4
 70
1
 10
5537.688714804884
 20
3391.790761737569
 10
5542.088714804879
 20
3391.790761737569
 10
5542.088714804879
 20
3405.790761737569
 10
5537.688714804884
 20
3405.790761737569
  0
LWPOLYLINE
  5
202
330
17
100
AcDbEntity
  8
Madeira
 62
126
370
18
100
AcDbPolyline
 90
4
 70
1
 10
5592.488714804873
 20
3465.790761737547
 10
5588.088714804879
 20
3465.790761737547
 10
5588.088714804879
 20
3479.790761737547
 10
5592.488714804873
 20
3479.790761737547
  0
LWPOLYLINE
  5
203
330
17
100
AcDbEntity
  8
Madeira
 62
126
370
18
100
AcDbPolyline
 90
4
 70
1
 10
5592.488714804873
 20
3391.790761737569
 10
5588.088714804879
 20
3391.790761737569
 10
5588.088714804879
 20
3405.790761737569
 10
5592.488714804873
 20
3405.790761737569
  0
LWPOLYLINE
  5
204
330
17
100
AcDbEntity
  8
Madeira
 62
126
370
18
100
AcDbPolyline
 90
4
 70
1
 10
5537.688714804884
 20
3428.790761737558
 10
5542.088714804879
 20
3428.790761737558
 10
5542.088714804879
 20
3442.790761737557
 10
5537.688714804884
 20
3442.790761737557
  0
LWPOLYLINE
  5
205
330
17
100
AcDbEntity
  8
Madeira
 62
126
370
18
100
AcDbPolyline
 90
4
 70
1
 10
5592.488714804873
 20
3428.790761737558
 10
5588.088714804879
 20
3428.790761737558
 10
5588.088714804879
 20
3442.790761737557
 10
5592.488714804873
 20
3442.790761737557
  0
LWPOLYLINE
  5
206
330
17
100
AcDbEntity
  8
SARR_3.5x7
 62
81
370
25
100
AcDbPolyline
 90
4
 70
1
 10
5523.688714804819
 20
3473.790761737547
 10
5537.688714804819
 20
3473.790761737547
 10
5537.688714804946
 20
3315.312548331763
 10
5523.688714804946
 20
3315.312548331763
  0
LWPOLYLINE
  5
207
330
17
100
AcDbEntity
  8
SARR_3.5x7
 62
81
370
25
100
AcDbPolyline
 90
4
 70
1
 10
5606.488714805106
 20
3473.790761737549
 10
5592.488714805106
 20
3473.790761737549
 10
5592.488714804961
 20
3315.312548331763
 10
5606.48871480496
 20
3315.312548331763
  0
LWPOLYLINE
  5
208
330
17
100
AcDbEntity
  8
SARR_3.5x7
 62
81
370
25
100
AcDbPolyline
 90
4
 70
1
 10
5523.688714804805
 20
3391.790761737569
 10
5606.488714805007
 20
3391.790761737567
 10
5606.488714805007
 20
3361.732700133568
 10
5523.688714804805
 20
3361.73270013357
  0
LWPOLYLINE
  5
209
330
17
100
AcDbEntity
  8
Painéis
 62
200
370
25
100
AcDbPolyline
 90
4
 70
1
 10
5058.841444931408
 20
3072.429770111573
 10
4862.841444931408
 20
3072.429770111573
 10
4862.841444931408
 20
3069.429770111573
 10
5058.841444931408
 20
3069.429770111573
  0
LWPOLYLINE
  5
20A
330
17
100
AcDbEntity
  8
Painéis
 62
200
370
25
100
AcDbPolyline
 90
4
 70
1
 10
5822.633546766883
 20
3283.581707104895
 10
5622.633546766883
 20
3283.581707104895
 10
5622.633546766883
 20
3280.581707104895
 10
5822.633546766883
 20
3280.581707104895
  0
LWPOLYLINE
  5
20B
330
17
100
AcDbEntity
  8
Painéis
 62
200
370
25
100
AcDbPolyline
 90
4
 70
1
 10
5291.229508272041
 20
3077.711144226358
 10
5491.229508272041
 20
3077.711144226358
 10
5491.229508272041
 20
3074.711144226358
 10
5291.229508272041
 20
3074.711144226358
  0
LWPOLYLINE
  5
20C
330
17
100
AcDbEntity
  8
Painéis
 62
200
370
25
100
AcDbPolyline
 90
4
 70
1
 10
5357.26099843019
 20
3276.581707104889
 10
5294.306139189377
 20
3276.581707104866
 10
5294.306139189377
 20
3283.581707104866
 10
5357.26099843019
 20
3283.581707104889
  0
LWPOLYLINE
  5
20D
330
17
100
AcDbEntity
  8
Painéis
 62
200
370
25
100
AcDbPolyline
 90
4
 70
1
 10
5847.411874429941
 20
3070.711144226337
 10
5784.457015189127
 20
3070.711144226314
 10
5784.457015189127
 20
3077.711144226314
 10
5847.411874429941
 20
3077.711144226337
  0
LWPOLYLINE
  5
20E
330
17
100
AcDbEntity
  8
COTA
 62
0
370
25
100
AcDbPolyline
 90
2
 70
0
 10
4931.759399883093
 20
3507.290761737563
 10
4926.759399883093
 20
3512.290761737563
  0
LWPOLYLINE
  5
20F
330
17
100
AcDbEntity
  8
COTA
 62
0
370
25
100
AcDbPolyline
 90
2
 70
0
 10
4926.759399883093
 20
3486.290761737548
 10
4931.759399883093
 20
3481.290761737548
  0
LWPOLYLINE
  5
210
330
17
100
AcDbEntity
  8
COTA
 62
0
370
25
100
AcDbPolyline
 90
2
 70
0
 10
4703.910944036002
 20
3394.290761737571
 10
4708.910944036002
 20
3389.290761737571
  0
LWPOLYLINE
  5
211
330
17
100
AcDbEntity
  8
COTA
 62
0
370
25
100
AcDbPolyline
 90
2
 70
0
 10
4708.910944036002
 20
3507.290761737563
 10
4703.910944036002
 20
3512.290761737563
  0
LWPOLYLINE
  5
212
330
17
100
AcDbEntity
  8
COTA
 62
0
370
25
100
AcDbPolyline
 90
2
 70
0
 10
4926.759399883512
 20
3394.290761737571
 10
4931.759399883512
 20
3389.290761737571
  0
LWPOLYLINE
  5
213
330
17
100
AcDbEntity
  8
COTA
 62
0
370
25
100
AcDbPolyline
 90
2
 70
0
 10
4931.759399883512
 20
3477.290761737549
 10
4926.759399883512
 20
3482.290761737549
  0
LWPOLYLINE
  5
214
330
17
100
AcDbEntity
  8
COTA
 62
0
370
25
100
AcDbPolyline
 90
2
 70
0
 10
4728.230372521467
 20
3507.290761737563
 10
4723.230372521467
 20
3512.290761737563
  0
LWPOLYLINE
  5
215
330
17
100
AcDbEntity
  8
COTA
 62
0
370
25
100
AcDbPolyline
 90
2
 70
0
 10
4723.230372521467
 20
3486.290761737541
 10
4728.230372521467
 20
3481.290761737541
  0
LWPOLYLINE
  5
216
330
17
100
AcDbEntity
  8
COTA
 62
0
370
25
100
AcDbPolyline
 90
2
 70
0
 10
4728.230372521797
 20
3477.290761737542
 10
4723.230372521797
 20
3482.290761737542
  0
LWPOLYLINE
  5
217
330
17
100
AcDbEntity
  8
COTA
 62
0
370
25
100
AcDbPolyline
 90
2
 70
0
 10
4723.230372521797
 20
3394.290761737571
 10
4728.230372521797
 20
3389.290761737571
  0
LWPOLYLINE
  5
218
330
17
100
AcDbEntity
  8
COTA
 62
0
370
25
100
AcDbPolyline
 90
2
 70
0
 10
4816.887667125142
 20
3349.563947935378
 10
4811.887667125142
 20
3344.563947935378
  0
LWPOLYLINE
  5
219
330
17
100
AcDbEntity
  8
COTA
 62
0
370
25
100
AcDbPolyline
 90
2
 70
0
 10
4849.887667125142
 20
3344.563947935378
 10
4854.887667125142
 20
3349.563947935378
  0
LWPOLYLINE
  5
21A
330
17
100
AcDbEntity
  8
COTA
 62
0
370
25
100
AcDbPolyline
 90
2
 70
0
 10
5663.460447562832
 20
3507.290761737563
 10
5658.460447562832
 20
3512.290761737563
  0
LWPOLYLINE
  5
21B
330
17
100
AcDbEntity
  8
COTA
 62
0
370
25
100
AcDbPolyline
 90
2
 70
0
 10
5658.460447562832
 20
3486.290761737548
 10
5663.460447562832
 20
3481.290761737548
  0
LWPOLYLINE
  5
21C
330
17
100
AcDbEntity
  8
COTA
 62
0
370
25
100
AcDbPolyline
 90
2
 70
0
 10
5435.611991715743
 20
3394.290761737571
 10
5440.611991715743
 20
3389.290761737571
  0
LWPOLYLINE
  5
21D
330
17
100
AcDbEntity
  8
COTA
 62
0
370
25
100
AcDbPolyline
 90
2
 70
0
 10
5440.611991715743
 20
3507.290761737563
 10
5435.611991715743
 20
3512.290761737563
  0
LWPOLYLINE
  5
21E
330
17
100
AcDbEntity
  8
COTA
 62
0
370
25
100
AcDbPolyline
 90
2
 70
0
 10
5658.460447563249
 20
3394.290761737571
 10
5663.460447563249
 20
3389.290761737571
  0
LWPOLYLINE
  5
21F
330
17
100
AcDbEntity
  8
COTA
 62
0
370
25
100
AcDbPolyline
 90
2
 70
0
 10
5663.460447563249
 20
3477.290761737549
 10
5658.460447563249
 20
3482.290761737549
  0
LWPOLYLINE
  5
220
330
17
100
AcDbEntity
  8
COTA
 62
0
370
25
100
AcDbPolyline
 90
2
 70
0
 10
5459.931420201208
 20
3507.290761737563
 10
5454.931420201208
 20
3512.290761737563
  0
LWPOLYLINE
  5
221
330
17
100
AcDbEntity
  8
COTA
 62
0
370
25
100
AcDbPolyline
 90
2
 70
0
 10
5454.931420201208
 20
3486.290761737541
 10
5459.931420201208
 20
3481.290761737541
  0
LWPOLYLINE
  5
222
330
17
100
AcDbEntity
  8
COTA
 62
0
370
25
100
AcDbPolyline
 90
2
 70
0
 10
5459.931420201539
 20
3477.290761737542
 10
5454.931420201539
 20
3482.290761737542
  0
LWPOLYLINE
  5
223
330
17
100
AcDbEntity
  8
COTA
 62
0
370
25
100
AcDbPolyline
 90
2
 70
0
 10
5454.931420201539
 20
3394.290761737571
 10
5459.931420201539
 20
3389.290761737571
  0
LWPOLYLINE
  5
224
330
17
100
AcDbEntity
  8
COTA
 62
0
370
25
100
AcDbPolyline
 90
2
 70
0
 10
5548.588714804879
 20
3349.563947935378
 10
5543.588714804879
 20
3344.563947935378
  0
LWPOLYLINE
  5
225
330
17
100
AcDbEntity
  8
COTA
 62
0
370
25
100
AcDbPolyline
 90
2
 70
0
 10
5581.588714804878
 20
3344.563947935378
 10
5586.588714804878
 20
3349.563947935378
  0
TEXT
  5
226
330
17
100
AcDbEntity
  8
5
 62
5
370
25
100
AcDbText
 10
4643.737358607384
 20
3149.29879445096
 30
0.0
 40
12.0
  1
P20
 50
3.55024762388e-05
100
AcDbText
  0
TEXT
  5
227
330
17
100
AcDbEntity
  8
5
 62
5
370
25
100
AcDbText
 10
5031.698316063837
 20
3143.392272701062
 30
0.0
 40
12.0
  1
V7
 50
3.55024762388e-05
100
AcDbText
  0
TEXT
  5
228
330
17
100
AcDbEntity
  8
Texto Seção
 62
7
370
15
100
AcDbText
 10
4646.870870240284
 20
3312.323290574081
 30
0.0
 40
13.0
  1
V13.A
100
AcDbText
  0
TEXT
  5
229
330
17
100
AcDbEntity
  8
5
 62
5
370
25
100
AcDbText
 10
4643.737358607384
 20
2938.432796222792
 30
0.0
 40
12.0
  1
V7
 50
3.55024762388e-05
100
AcDbText
  0
TEXT
  5
22A
330
17
100
AcDbEntity
  8
5
 62
5
370
25
100
AcDbText
 10
5027.168428861926
 20
2937.709205118006
 30
0.0
 40
12.0
  1
P20
 50
3.55024762388e-05
100
AcDbText
  0
TEXT
  5
22B
330
17
100
AcDbEntity
  8
Texto Seção
 62
7
370
15
100
AcDbText
 10
4646.870870240284
 20
3084.160060134303
 30
0.0
 40
13.0
  1
V13.B
100
AcDbText
  0
TEXT
  5
22C
330
17
100
AcDbEntity
  8
5
 62
5
370
25
100
AcDbText
 10
5792.804919776952
 20
3153.758325498419
 30
0.0
 40
12.0
  1
P12
 50
359.9999644975238
100
AcDbText
  0
TEXT
  5
22D
330
17
100
AcDbEntity
  8
5
 62
5
370
25
100
AcDbText
 10
5372.368873953906
 20
3153.707216702806
 30
0.0
 40
12.0
  1
V1
 50
359.9999644975238
100
AcDbText
  0
TEXT
  5
22E
330
17
100
AcDbEntity
  8
Texto Seção
 62
7
370
15
100
AcDbText
 10
5289.338590893025
 20
3289.025198140212
 30
0.0
 40
13.0
  1
V14.A
100
AcDbText
  0
TEXT
  5
22F
330
17
100
AcDbEntity
  8
5
 62
5
370
25
100
AcDbText
 10
5735.084122900655
 20
2967.337081625549
 30
0.0
 40
12.0
  1
V1
 50
359.9999644975238
100
AcDbText
  0
TEXT
  5
230
330
17
100
AcDbEntity
  8
5
 62
5
370
25
100
AcDbText
 10
5291.370317302835
 20
2941.227638733918
 30
0.0
 40
12.0
  1
P12
 50
359.9999644975238
100
AcDbText
  0
TEXT
  5
231
330
17
100
AcDbEntity
  8
Texto Seção
 62
7
370
15
100
AcDbText
 10
5299.174896492678
 20
3094.791060263852
 30
0.0
 40
13.0
  1
V14.B
100
AcDbText
  0
TEXT
  5
232
330
17
100
AcDbEntity
  8
detalhes
 62
4
370
25
100
AcDbText
 10
4861.10215030118
 20
3409.980433266851
 30
0.0
 40
9.600000000000001
  1
b
100
AcDbText
  0
TEXT
  5
233
330
17
100
AcDbEntity
  8
detalhes
 62
4
370
25
100
AcDbText
 10
4798.558491655444
 20
3409.991490712427
 30
0.0
 40
9.600000000000001
  1
a
100
AcDbText
  0
TEXT
  5
234
330
17
100
AcDbEntity
  8
detalhes
 62
4
370
25
100
AcDbText
 10
4824.987932740587
 20
3402.026515257408
 30
0.0
 40
9.600000000000001
  1
c
100
AcDbText
  0
TEXT
  5
235
330
17
100
AcDbEntity
  8
detalhes
 62
4
370
25
100
AcDbText
 10
5592.803197980916
 20
3409.980433266851
 30
0.0
 40
9.600000000000001
  1
b
100
AcDbText
  0
TEXT
  5
236
330
17
100
AcDbEntity
  8
detalhes
 62
4
370
25
100
AcDbText
 10
5530.25953933518
 20
3409.991490712427
 30
0.0
 40
9.600000000000001
  1
a
100
AcDbText
  0
TEXT
  5
237
330
17
100
AcDbEntity
  8
detalhes
 62
4
370
25
100
AcDbText
 10
5556.688980420324
 20
3402.026515257408
 30
0.0
 40
9.600000000000001
  1
c
100
AcDbText
  0
TEXT
  5
238
330
17
100
AcDbEntity
  8
5
 62
5
370
25
100
AcDbText
 10
5859.891461390031
 20
2965.044598626589
 30
0.0
 40
12.0
  1
VF1
 50
3.55024762388e-05
100
AcDbText
  0
TEXT
  5
239
330
17
100
AcDbEntity
  8
5
 62
5
370
25
100
AcDbText
 10
5291.487163357324
 20
3147.311916880147
 30
0.0
 40
12.0
  1
VF1
 50
3.55024762388e-05
100
AcDbText
  0
TEXT
  5
23A
330
17
100
AcDbEntity
  8
COTA
 62
240
370
25
100
AcDbText
 10
4765.841444931402
 20
3207.87683206401
 30
0.0
 40
10.0
  1
244
100
AcDbText
  0
TEXT
  5
23B
330
17
100
AcDbEntity
  8
COTA
 62
240
370
25
100
AcDbText
 10
5004.841444931402
 20
3207.928001654665
 30
0.0
 40
10.0
  1
108
100
AcDbText
  0
TEXT
  5
23C
330
17
100
AcDbEntity
  8
COTA
 62
240
370
25
100
AcDbText
 10
4851.341444931403
 20
3179.37487108289
 30
0.0
 40
10.0
  1
415
100
AcDbText
  0
TEXT
  5
23D
330
17
100
AcDbEntity
  8
COTA
 62
240
370
25
100
AcDbText
 10
5094.109227971312
 20
3296.029331141581
 30
0.0
 40
10.0
  1
15
 50
90.0
100
AcDbText
  0
TEXT
  5
23E
330
17
100
AcDbEntity
  8
COTA
 62
240
370
25
100
AcDbText
 10
5094.145777678908
 20
3248.343658626961
 30
0.0
 40
10.0
  1
44
 50
90.0
100
AcDbText
  0
TEXT
  5
23F
330
17
100
AcDbEntity
  8
COTA
 62
240
370
25
100
AcDbText
 10
5117.211463022452
 20
3255.843658626961
 30
0.0
 40
10.0
  1
59
 50
90.0
100
AcDbText
  0
TEXT
  5
240
330
17
100
AcDbEntity
  8
COTA
 62
240
370
25
100
AcDbText
 10
4743.841444931397
 20
3300.098969692662
 30
0.0
 40
10.0
  1
200
100
AcDbText
  0
TEXT
  5
241
330
17
100
AcDbEntity
  8
COTA
 62
240
370
25
100
AcDbText
 10
4645.820614745253
 20
3297.508863305323
 30
0.0
 40
10.0
  1
3
 50
90.0
100
AcDbText
  0
TEXT
  5
242
330
17
100
AcDbEntity
  8
COTA
 62
1
370
25
100
AcDbText
 10
4937.759399883094
 20
3496.790761737554
 30
0.0
 40
7.0
  1
13
 50
90.0
100
AcDbText
  0
TEXT
  5
243
330
17
100
AcDbEntity
  8
COTA
 62
1
370
25
100
AcDbText
 10
4714.910944036001
 20
3450.790761737565
 30
0.0
 40
7.0
  1
59
 50
90.0
100
AcDbText
  0
TEXT
  5
244
330
17
100
AcDbEntity
  8
COTA
 62
1
370
25
100
AcDbText
 10
4937.759399883511
 20
3435.790761737557
 30
0.0
 40
7.0
  1
44
 50
90.0
100
AcDbText
  0
TEXT
  5
245
330
17
100
AcDbEntity
  8
Cota Seção (2x)
 62
1
370
25
100
AcDbText
 10
4854.387667126801
 20
3467.790761737532
 30
0.0
 40
7.0
  1
55
 50
90.0
100
AcDbText
  0
TEXT
  5
246
330
17
100
AcDbEntity
  8
COTA
 62
1
370
25
100
AcDbText
 10
4734.230372521466
 20
3496.79076173755
 30
0.0
 40
7.0
  1
13
 50
90.0
100
AcDbText
  0
TEXT
  5
247
330
17
100
AcDbEntity
  8
COTA
 62
1
370
25
100
AcDbText
 10
4734.230372521798
 20
3435.790761737554
 30
0.0
 40
7.0
  1
44
 50
90.0
100
AcDbText
  0
TEXT
  5
248
330
17
100
AcDbEntity
  8
COTA
 62
1
370
25
100
AcDbText
 10
4833.387667125141
 20
3352.563947935379
 30
0.0
 40
7.0
  1
19
100
AcDbText
  0
TEXT
  5
249
330
17
100
AcDbEntity
  8
Cota Seção (2x)
 62
1
370
25
100
AcDbText
 10
4833.387667125112
 20
3419.290761737569
 30
0.0
 40
7.0
  1
19
100
AcDbText
  0
TEXT
  5
24A
330
17
100
AcDbEntity
  8
COTA
 62
1
370
25
100
AcDbText
 10
5669.46044756283
 20
3496.790761737553
 30
0.0
 40
7.0
  1
13
 50
90.0
100
AcDbText
  0
TEXT
  5
24B
330
17
100
AcDbEntity
  8
COTA
 62
1
370
25
100
AcDbText
 10
5446.611991715742
 20
3450.790761737565
 30
0.0
 40
7.0
  1
59
 50
90.0
100
AcDbText
  0
TEXT
  5
24C
330
17
100
AcDbEntity
  8
COTA
 62
1
370
25
100
AcDbText
 10
5669.46044756325
 20
3435.790761737557
 30
0.0
 40
7.0
  1
44
 50
90.0
100
AcDbText
  0
TEXT
  5
24D
330
17
100
AcDbEntity
  8
Cota Seção (2x)
 62
1
370
25
100
AcDbText
 10
5586.088714806538
 20
3467.790761737532
 30
0.0
 40
7.0
  1
55
 50
90.0
100
AcDbText
  0
TEXT
  5
24E
330
17
100
AcDbEntity
  8
COTA
 62
1
370
25
100
AcDbText
 10
5465.931420201209
 20
3496.79076173755
 30
0.0
 40
7.0
  1
13
 50
90.0
100
AcDbText
  0
TEXT
  5
24F
330
17
100
AcDbEntity
  8
COTA
 62
1
370
25
100
AcDbText
 10
5465.931420201539
 20
3435.790761737553
 30
0.0
 40
7.0
  1
44
 50
90.0
100
AcDbText
  0
TEXT
  5
250
330
17
100
AcDbEntity
  8
COTA
 62
1
370
25
100
AcDbText
 10
5565.088714804879
 20
3352.563947935379
 30
0.0
 40
7.0
  1
19
100
AcDbText
  0
TEXT
  5
251
330
17
100
AcDbEntity
  8
Cota Seção (2x)
 62
1
370
25
100
AcDbText
 10
5565.08871480485
 20
3419.290761737569
 30
0.0
 40
7.0
  1
19
100
AcDbText
  0
TEXT
  5
252
330
17
100
AcDbEntity
  8
COTA
 62
240
370
25
100
AcDbText
 10
4919.341444931403
 20
3208.023030894431
 30
0.0
 40
10.0
  1
63
100
AcDbText
  0
TEXT
  5
253
330
17
100
AcDbEntity
  8
COTA
 62
240
370
25
100
AcDbText
 10
4682.8414449314
 20
3255.763567806149
 30
0.0
 40
10.0
  1
78
100
AcDbText
  0
TEXT
  5
254
330
17
100
AcDbEntity
  8
COTA
 62
240
370
25
100
AcDbText
 10
5004.841444931402
 20
2995.014113139266
 30
0.0
 40
10.0
  1
108
100
AcDbText
  0
TEXT
  5
255
330
17
100
AcDbEntity
  8
COTA
 62
240
370
25
100
AcDbText
 10
4765.841444931402
 20
2994.962943548634
 30
0.0
 40
10.0
  1
244
100
AcDbText
  0
TEXT
  5
256
330
17
100
AcDbEntity
  8
COTA
 62
240
370
25
100
AcDbText
 10
4851.341444931403
 20
2966.460982567502
 30
0.0
 40
10.0
  1
415
100
AcDbText
  0
TEXT
  5
257
330
17
100
AcDbEntity
  8
COTA
 62
240
370
25
100
AcDbText
 10
4639.130771026762
 20
3083.115442626193
 30
0.0
 40
10.0
  1
15
 50
90.0
100
AcDbText
  0
TEXT
  5
258
330
17
100
AcDbEntity
  8
COTA
 62
240
370
25
100
AcDbText
 10
4639.16732073437
 20
3035.429770111572
 30
0.0
 40
10.0
  1
44
 50
90.0
100
AcDbText
  0
TEXT
  5
259
330
17
100
AcDbEntity
  8
COTA
 62
240
370
25
100
AcDbText
 10
4615.970056443458
 20
3042.929770111573
 30
0.0
 40
10.0
  1
59
 50
90.0
100
AcDbText
  0
TEXT
  5
25A
330
17
100
AcDbEntity
  8
COTA
 62
240
370
25
100
AcDbText
 10
4960.841444931407
 20
3087.214320943355
 30
0.0
 40
10.0
  1
196
100
AcDbText
  0
TEXT
  5
25B
330
17
100
AcDbEntity
  8
COTA
 62
240
370
25
100
AcDbText
 10
5080.423678626339
 20
3084.594974789935
 30
0.0
 40
10.0
  1
3
 50
90.0
100
AcDbText
  0
TEXT
  5
25C
330
17
100
AcDbEntity
  8
COTA
 62
240
370
25
100
AcDbText
 10
4919.341444931403
 20
2995.109142379043
 30
0.0
 40
10.0
  1
63
100
AcDbText
  0
TEXT
  5
25D
330
17
100
AcDbEntity
  8
COTA
 62
240
370
25
100
AcDbText
 10
5019.841444931405
 20
3042.849679290761
 30
0.0
 40
10.0
  1
78
100
AcDbText
  0
TEXT
  5
25E
330
17
100
AcDbEntity
  8
COTA
 62
240
370
25
100
AcDbText
 10
5774.633546766878
 20
3206.173360074108
 30
0.0
 40
10.0
  1
96
100
AcDbText
  0
TEXT
  5
25F
330
17
100
AcDbEntity
  8
COTA
 62
240
370
25
100
AcDbText
 10
5529.633546766877
 20
3206.114880541956
 30
0.0
 40
10.0
  1
244
100
AcDbText
  0
TEXT
  5
260
330
17
100
AcDbEntity
  8
COTA
 62
240
370
25
100
AcDbText
 10
5615.133546766878
 20
3177.612919560825
 30
0.0
 40
10.0
  1
415
100
AcDbText
  0
TEXT
  5
261
330
17
100
AcDbEntity
  8
COTA
 62
240
370
25
100
AcDbText
 10
5408.480144124965
 20
3294.267379619514
 30
0.0
 40
10.0
  1
15
 50
90.0
100
AcDbText
  0
TEXT
  5
262
330
17
100
AcDbEntity
  8
COTA
 62
240
370
25
100
AcDbText
 10
5408.516693832574
 20
3246.581707104894
 30
0.0
 40
10.0
  1
44
 50
90.0
100
AcDbText
  0
TEXT
  5
263
330
17
100
AcDbEntity
  8
COTA
 62
240
370
25
100
AcDbText
 10
5391.432432782933
 20
3254.081707104894
 30
0.0
 40
10.0
  1
59
 50
90.0
100
AcDbText
  0
TEXT
  5
264
330
17
100
AcDbEntity
  8
COTA
 62
240
370
25
100
AcDbText
 10
5722.633546766883
 20
3298.337018170596
 30
0.0
 40
10.0
  1
200
100
AcDbText
  0
TEXT
  5
265
330
17
100
AcDbEntity
  8
COTA
 62
240
370
25
100
AcDbText
 10
5844.21578046182
 20
3295.746911783257
 30
0.0
 40
10.0
  1
3
 50
90.0
100
AcDbText
  0
TEXT
  5
266
330
17
100
AcDbEntity
  8
COTA
 62
240
370
25
100
AcDbText
 10
5689.133546766878
 20
3206.151430249558
 30
0.0
 40
10.0
  1
75
100
AcDbText
  0
TEXT
  5
267
330
17
100
AcDbEntity
  8
COTA
 62
240
370
25
100
AcDbText
 10
5339.229508272047
 20
3000.302797195571
 30
0.0
 40
10.0
  1
96
100
AcDbText
  0
TEXT
  5
268
330
17
100
AcDbEntity
  8
COTA
 62
240
370
25
100
AcDbText
 10
5584.229508272047
 20
3000.244317663418
 30
0.0
 40
10.0
  1
244
100
AcDbText
  0
TEXT
  5
269
330
17
100
AcDbEntity
  8
COTA
 62
240
370
25
100
AcDbText
 10
5498.729508272046
 20
2971.742356682288
 30
0.0
 40
10.0
  1
415
100
AcDbText
  0
TEXT
  5
26A
330
17
100
AcDbEntity
  8
COTA
 62
240
370
25
100
AcDbText
 10
5741.497291311958
 20
3088.396816740976
 30
0.0
 40
10.0
  1
15
 50
90.0
100
AcDbText
  0
TEXT
  5
26B
330
17
100
AcDbEntity
  8
COTA
 62
240
370
25
100
AcDbText
 10
5741.533841019559
 20
3040.711144226357
 30
0.0
 40
10.0
  1
44
 50
90.0
100
AcDbText
  0
TEXT
  5
26C
330
17
100
AcDbEntity
  8
COTA
 62
240
370
25
100
AcDbText
 10
5768.599526363103
 20
3048.211144226356
 30
0.0
 40
10.0
  1
59
 50
90.0
100
AcDbText
  0
TEXT
  5
26D
330
17
100
AcDbEntity
  8
COTA
 62
240
370
25
100
AcDbText
 10
5391.229508272041
 20
3092.466455292058
 30
0.0
 40
10.0
  1
200
100
AcDbText
  0
TEXT
  5
26E
330
17
100
AcDbEntity
  8
COTA
 62
240
370
25
100
AcDbText
 10
5293.2086780859
 20
3089.876348904719
 30
0.0
 40
10.0
  1
3
 50
90.0
100
AcDbText
  0
TEXT
  5
26F
330
17
100
AcDbEntity
  8
COTA
 62
240
370
25
100
AcDbText
 10
5424.729508272047
 20
3000.280867371021
 30
0.0
 40
10.0
  1
75
100
AcDbText
  0
TEXT
  5
270
330
17
100
AcDbEntity
  8
COTA
 62
240
370
25
100
AcDbText
 10
5332.229508272045
 20
3048.131053405545
 30
0.0
 40
10.0
  1
82
100
AcDbText
  0
TEXT
  5
271
330
17
100
AcDbEntity
  8
COTA
 62
240
370
25
100
AcDbText
 10
5889.319738574393
 20
3038.711144226361
 30
0.0
 40
10.0
  1
40
 50
90.0
100
AcDbText
  0
TEXT
  5
272
330
17
100
AcDbEntity
  8
COTA
 62
240
370
25
100
AcDbText
 10
5889.363598223497
 20
3064.711144226348
 30
0.0
 40
10.0
  1
12
 50
90.0
100
AcDbText
  0
TEXT
  5
273
330
17
100
AcDbEntity
  8
COTA
 62
240
370
25
100
AcDbText
 10
5889.34897834049
 20
3086.57664130236
 30
0.0
 40
10.0
  1
7
 50
90.0
100
AcDbText
  0
TEXT
  5
274
330
17
100
AcDbEntity
  8
COTA
 62
240
370
25
100
AcDbText
 10
5325.783568809778
 20
3177.722568683633
 30
0.0
 40
10.0
  1
63
100
AcDbText
  0
TEXT
  5
275
330
17
100
AcDbEntity
  8
COTA
 62
240
370
25
100
AcDbText
 10
5289.737919948759
 20
3244.581707104891
 30
0.0
 40
10.0
  1
40
 50
90.0
100
AcDbText
  0
TEXT
  5
276
330
17
100
AcDbEntity
  8
COTA
 62
240
370
25
100
AcDbText
 10
5289.781779597876
 20
3270.581707104878
 30
0.0
 40
10.0
  1
12
 50
90.0
100
AcDbText
  0
TEXT
  5
277
330
17
100
AcDbEntity
  8
COTA
 62
240
370
25
100
AcDbText
 10
5289.767159714827
 20
3292.447204180888
 30
0.0
 40
10.0
  1
7
 50
90.0
100
AcDbText
  0
TEXT
  5
278
330
17
100
AcDbEntity
  8
COTA
 62
240
370
25
100
AcDbText
 10
5815.934444809529
 20
2971.852005805081
 30
0.0
 40
10.0
  1
63
100
AcDbText
  0
TEXT
  5
279
330
17
100
AcDbEntity
  8
Texto Seção
 62
3
370
15
100
AcDbText
 10
4835.587667125139
 20
3581.2395261105426
 30
0.0
 40
17.0
  1

100
AcDbText
  0
TEXT
  5
27A
330
17
100
AcDbEntity
  8
Texto Seção
 62
3
370
15
100
AcDbText
 10
4835.587667125139
 20
3551.338941466221
 30
0.0
 40
12.0
  1

100
AcDbText
  0
TEXT
  5
27B
330
17
100
AcDbEntity
  8
Texto Seção
 62
7
370
15
100
AcDbText
 10
4835.587667125139
 20
3525.367512577735
 30
0.0
 40
10.0
  1

100
AcDbText
  0
TEXT
  5
27C
330
17
100
AcDbEntity
  8
Texto Seção
 62
3
370
15
100
AcDbText
 10
5567.288714804876
 20
3581.2395261105426
 30
0.0
 40
17.0
  1

100
AcDbText
  0
TEXT
  5
27D
330
17
100
AcDbEntity
  8
Texto Seção
 62
3
370
15
100
AcDbText
 10
5567.288714804876
 20
3551.338941466221
 30
0.0
 40
12.0
  1

100
AcDbText
  0
TEXT
  5
27E
330
17
100
AcDbEntity
  8
Texto Seção
 62
7
370
15
100
AcDbText
 10
5567.288714804876
 20
3525.367512577735
 30
0.0
 40
10.0
  1

100
AcDbText
  0
HATCH
  5
27F
330
17
100
AcDbEntity
  8
COTA
 62
7
100
AcDbHatch
 10
0.0
 20
0.0
 30
0.0
210
0.0
220
0.0
230
1.0
  2
AR-CONC
 70
0
 71
0
 91
1
 92
3
 72
0
 73
1
 93
7
 10
4843.841444931396
 20
3282.343658626961
 10
4643.841444931396
 20
3282.343658626961
 10
4643.841444931396
 20
3270.343658626962
 10
5058.841444931397
 20
3270.343658626985
 10
5058.841444931397
 20
3285.343658626962
 10
4843.841444931396
 20
3285.343658626961
 10
4843.841444931396
 20
3282.343658626961
 97
0
 75
1
 76
1
 52
0.0
 41
1.0
 77
0
 78
13
 53
50.0
 43
0.0
 44
0.0
 45
182.184668996
 46
-15.9390855389
 79
2
 49
19.05
 49
-209.55
 53
355.0
 43
0.0
 44
0.0
 45
-35.243421425
 46
191.056845239
 79
2
 49
15.24
 49
-167.64058417
 53
100.4514447
 43
15.182007
 44
-1.3282535
 45
146.9412470904
 46
175.1177519122
 79
2
 49
16.1900088
 49
-178.0902446
 53
46.1842
 43
0.0
 44
50.8
 45
271.0790408921
 46
-42.0423279327
 79
2
 49
28.575
 49
-314.325
 53
96.63555761
 43
22.5899
 44
47.2965
 45
237.4041340515
 46
247.4261245977
 79
2
 49
24.28502314
 49
-267.13560816
 53
351.18415117
 43
0.0
 44
50.8
 45
237.404134065
 46
247.4261245855
 79
2
 49
22.85996707
 49
-251.45973192
 53
21.0
 43
25.4
 44
38.1
 45
151.6143912691
 46
-102.2651981871
 79
2
 49
19.05
 49
-209.55
 53
326.0
 43
25.4
 44
38.1
 45
61.8020283476
 46
184.1879661223
 79
2
 49
15.24
 49
-167.64
 53
71.451445
 43
38.0345326
 44
29.5779001
 45
213.4164192787
 46
81.9227688859
 79
2
 49
16.1900088
 49
-178.0899376
 53
37.5
 43
0.0
 44
0.0
 45
3.0886032506
 46
84.5550388732
 79
6
 49
0.0
 49
-165.608
 49
0.0
 49
-170.18
 49
0.0
 49
-168.275
 53
7.5
 43
0.0
 44
0.0
 45
66.8196625103
 46
100.1805748181
 79
6
 49
0.0
 49
-97.028
 49
0.0
 49
-161.798
 49
0.0
 49
-64.135
 53
-32.5
 43
-56.642
 44
0.0
 45
135.5905951669
 46
-5.7287439927
 79
6
 49
0.0
 49
-63.5
 49
0.0
 49
-198.12
 49
0.0
 49
-262.89
 53
-42.5
 43
-82.042
 44
0.0
 45
148.129181386
 46
25.4264910333
 79
6
 49
0.0
 49
-82.55
 49
0.0
 49
-131.572
 49
0.0
 49
-186.69
 98
0
  0
HATCH
  5
280
330
17
100
AcDbEntity
  8
Hachura
 62
7
100
AcDbHatch
 10
0.0
 20
0.0
 30
0.0
210
0.0
220
0.0
230
1.0
  2
SOLID
 70
1
 71
0
 91
1
 92
3
 72
0
 73
1
 93
5
 10
4810.387667125142
 20
3479.790761737547
 10
4814.387667125142
 20
3479.790761737547
 10
4814.387667125142
 20
3391.790761737569
 10
4810.387667125142
 20
3391.790761737569
 10
4810.387667125142
 20
3479.790761737547
 97
0
 75
1
 76
1
 98
0
  0
HATCH
  5
281
330
17
100
AcDbEntity
  8
Hachura
 62
7
100
AcDbHatch
 10
0.0
 20
0.0
 30
0.0
210
0.0
220
0.0
230
1.0
  2
ANSI31
 70
0
 71
0
 91
1
 92
3
 72
0
 73
1
 93
5
 10
4852.387667125142
 20
3391.790761737569
 10
4852.387667125142
 20
3396.190761737563
 10
4838.387667125142
 20
3396.190761737563
 10
4838.387667125142
 20
3391.790761737569
 10
4852.387667125142
 20
3391.790761737569
 97
0
 75
1
 76
1
 52
0.0
 41
1.0
 77
0
 78
1
 53
45.0
 43
0.0
 44
0.0
 45
-2.2450640303
 46
2.2450640303
 79
0
 98
0
  0
HATCH
  5
282
330
17
100
AcDbEntity
  8
Hachura
 62
7
100
AcDbHatch
 10
0.0
 20
0.0
 30
0.0
210
0.0
220
0.0
230
1.0
  2
SOLID
 70
1
 71
0
 91
1
 92
3
 72
0
 73
1
 93
5
 10
4852.387667125142
 20
3396.190761737563
 10
4852.387667125142
 20
3399.790761737569
 10
4814.387667125142
 20
3399.790761737569
 10
4814.387667125142
 20
3396.190761737563
 10
4852.387667125142
 20
3396.190761737563
 97
0
 75
1
 76
1
 98
0
  0
HATCH
  5
283
330
17
100
AcDbEntity
  8
Hachura
 62
7
100
AcDbHatch
 10
0.0
 20
0.0
 30
0.0
210
0.0
220
0.0
230
1.0
  2
ANSI31
 70
0
 71
0
 91
1
 92
3
 72
0
 73
1
 93
5
 10
4814.387667125142
 20
3391.790761737569
 10
4814.387667125142
 20
3396.190761737563
 10
4828.387667125142
 20
3396.190761737563
 10
4828.387667125142
 20
3391.790761737569
 10
4814.387667125142
 20
3391.790761737569
 97
0
 75
1
 76
1
 52
0.0
 41
1.0
 77
0
 78
1
 53
45.0
 43
0.0
 44
0.0
 45
-2.2450640303
 46
2.2450640303
 79
0
 98
0
  0
HATCH
  5
284
330
17
100
AcDbEntity
  8
Hachura
 62
7
100
AcDbHatch
 10
0.0
 20
0.0
 30
0.0
210
0.0
220
0.0
230
1.0
  2
SOLID
 70
1
 71
0
 91
1
 92
3
 72
0
 73
1
 93
5
 10
4856.387667125142
 20
3481.790761737547
 10
4852.387667125142
 20
3481.790761737547
 10
4852.387667125142
 20
3391.790761737569
 10
4856.387667125142
 20
3391.790761737569
 10
4856.387667125142
 20
3481.790761737547
 97
0
 75
1
 76
1
 98
0
  0
HATCH
  5
285
330
17
100
AcDbEntity
  8
Hachura
 62
7
100
AcDbHatch
 10
0.0
 20
0.0
 30
0.0
210
0.0
220
0.0
230
1.0
  2
SOLID
 70
1
 71
0
 91
1
 92
3
 72
0
 73
1
 93
5
 10
4912.387667125113
 20
3479.790761737547
 10
4912.387667125113
 20
3483.790761737547
 10
4852.387667125142
 20
3483.790761737547
 10
4852.387667125142
 20
3479.790761737547
 10
4912.387667125113
 20
3479.790761737547
 97
0
 75
1
 76
1
 98
0
  0
HATCH
  5
286
330
17
100
AcDbEntity
  8
Hachura
 62
7
100
AcDbHatch
 10
0.0
 20
0.0
 30
0.0
210
0.0
220
0.0
230
1.0
  2
SOLID
 70
1
 71
0
 91
1
 92
3
 72
0
 73
1
 93
5
 10
4814.387667125142
 20
3479.790761737547
 10
4814.387667125142
 20
3483.790761737547
 10
4758.787667125164
 20
3483.79076173754
 10
4758.787667125164
 20
3479.79076173754
 10
4814.387667125142
 20
3479.790761737547
 97
0
 75
1
 76
1
 98
0
  0
HATCH
  5
287
330
17
100
AcDbEntity
  8
Hachura
 62
7
100
AcDbHatch
 10
0.0
 20
0.0
 30
0.0
210
0.0
220
0.0
230
1.0
  2
ANSI31
 70
0
 71
0
 91
1
 92
3
 72
0
 73
1
 93
5
 10
4805.987667125148
 20
3465.790761737547
 10
4810.387667125142
 20
3465.790761737547
 10
4810.387667125142
 20
3479.790761737547
 10
4805.987667125148
 20
3479.790761737547
 10
4805.987667125148
 20
3465.790761737547
 97
0
 75
1
 76
1
 52
0.0
 41
1.0
 77
0
 78
1
 53
45.0
 43
0.0
 44
0.0
 45
-2.2450640303
 46
2.2450640303
 79
0
 98
0
  0
HATCH
  5
288
330
17
100
AcDbEntity
  8
Hachura
 62
7
100
AcDbHatch
 10
0.0
 20
0.0
 30
0.0
210
0.0
220
0.0
230
1.0
  2
ANSI31
 70
0
 71
0
 91
1
 92
3
 72
0
 73
1
 93
5
 10
4805.987667125148
 20
3391.790761737569
 10
4810.387667125142
 20
3391.790761737569
 10
4810.387667125142
 20
3405.790761737569
 10
4805.987667125148
 20
3405.790761737569
 10
4805.987667125148
 20
3391.790761737569
 97
0
 75
1
 76
1
 52
0.0
 41
1.0
 77
0
 78
1
 53
45.0
 43
0.0
 44
0.0
 45
-2.2450640303
 46
2.2450640303
 79
0
 98
0
  0
HATCH
  5
289
330
17
100
AcDbEntity
  8
Hachura
 62
7
100
AcDbHatch
 10
0.0
 20
0.0
 30
0.0
210
0.0
220
0.0
230
1.0
  2
ANSI31
 70
0
 71
0
 91
1
 92
3
 72
0
 73
1
 93
5
 10
4860.787667125136
 20
3465.790761737547
 10
4856.387667125142
 20
3465.790761737547
 10
4856.387667125142
 20
3479.790761737547
 10
4860.787667125136
 20
3479.790761737547
 10
4860.787667125136
 20
3465.790761737547
 97
0
 75
1
 76
1
 52
0.0
 41
1.0
 77
0
 78
1
 53
45.0
 43
0.0
 44
0.0
 45
-2.2450640303
 46
2.2450640303
 79
0
 98
0
  0
HATCH
  5
28A
330
17
100
AcDbEntity
  8
Hachura
 62
7
100
AcDbHatch
 10
0.0
 20
0.0
 30
0.0
210
0.0
220
0.0
230
1.0
  2
ANSI31
 70
0
 71
0
 91
1
 92
3
 72
0
 73
1
 93
5
 10
4860.787667125136
 20
3391.790761737569
 10
4856.387667125142
 20
3391.790761737569
 10
4856.387667125142
 20
3405.790761737569
 10
4860.787667125136
 20
3405.790761737569
 10
4860.787667125136
 20
3391.790761737569
 97
0
 75
1
 76
1
 52
0.0
 41
1.0
 77
0
 78
1
 53
45.0
 43
0.0
 44
0.0
 45
-2.2450640303
 46
2.2450640303
 79
0
 98
0
  0
HATCH
  5
28B
330
17
100
AcDbEntity
  8
Hachura
 62
7
100
AcDbHatch
 10
0.0
 20
0.0
 30
0.0
210
0.0
220
0.0
230
1.0
  2
ANSI31
 70
0
 71
0
 91
1
 92
3
 72
0
 73
1
 93
5
 10
4805.987667125148
 20
3428.790761737558
 10
4810.387667125142
 20
3428.790761737558
 10
4810.387667125142
 20
3442.790761737557
 10
4805.987667125148
 20
3442.790761737557
 10
4805.987667125148
 20
3428.790761737558
 97
0
 75
1
 76
1
 52
0.0
 41
1.0
 77
0
 78
1
 53
45.0
 43
0.0
 44
0.0
 45
-2.2450640303
 46
2.2450640303
 79
0
 98
0
  0
HATCH
  5
28C
330
17
100
AcDbEntity
  8
Hachura
 62
7
100
AcDbHatch
 10
0.0
 20
0.0
 30
0.0
210
0.0
220
0.0
230
1.0
  2
ANSI31
 70
0
 71
0
 91
1
 92
3
 72
0
 73
1
 93
5
 10
4860.787667125136
 20
3428.790761737558
 10
4856.387667125142
 20
3428.790761737558
 10
4856.387667125142
 20
3442.790761737557
 10
4860.787667125136
 20
3442.790761737557
 10
4860.787667125136
 20
3428.790761737558
 97
0
 75
1
 76
1
 52
0.0
 41
1.0
 77
0
 78
1
 53
45.0
 43
0.0
 44
0.0
 45
-2.2450640303
 46
2.2450640303
 79
0
 98
0
  0
HATCH
  5
28D
330
17
100
AcDbEntity
  8
Hachura
 62
7
100
AcDbHatch
 10
0.0
 20
0.0
 30
0.0
210
0.0
220
0.0
230
1.0
  2
SOLID
 70
1
 71
0
 91
1
 92
3
 72
0
 73
1
 93
5
 10
5542.088714804879
 20
3479.790761737547
 10
5546.088714804879
 20
3479.790761737547
 10
5546.088714804879
 20
3391.790761737569
 10
5542.088714804879
 20
3391.790761737569
 10
5542.088714804879
 20
3479.790761737547
 97
0
 75
1
 76
1
 98
0
  0
HATCH
  5
28E
330
17
100
AcDbEntity
  8
Hachura
 62
7
100
AcDbHatch
 10
0.0
 20
0.0
 30
0.0
210
0.0
220
0.0
230
1.0
  2
ANSI31
 70
0
 71
0
 91
1
 92
3
 72
0
 73
1
 93
5
 10
5584.088714804878
 20
3391.790761737569
 10
5584.088714804878
 20
3396.190761737563
 10
5570.088714804878
 20
3396.190761737563
 10
5570.088714804878
 20
3391.790761737569
 10
5584.088714804878
 20
3391.790761737569
 97
0
 75
1
 76
1
 52
0.0
 41
1.0
 77
0
 78
1
 53
45.0
 43
0.0
 44
0.0
 45
-2.2450640303
 46
2.2450640303
 79
0
 98
0
  0
HATCH
  5
28F
330
17
100
AcDbEntity
  8
Hachura
 62
7
100
AcDbHatch
 10
0.0
 20
0.0
 30
0.0
210
0.0
220
0.0
230
1.0
  2
SOLID
 70
1
 71
0
 91
1
 92
3
 72
0
 73
1
 93
5
 10
5584.088714804878
 20
3396.190761737563
 10
5584.088714804878
 20
3399.790761737569
 10
5546.088714804879
 20
3399.790761737569
 10
5546.088714804879
 20
3396.190761737563
 10
5584.088714804878
 20
3396.190761737563
 97
0
 75
1
 76
1
 98
0
  0
HATCH
  5
290
330
17
100
AcDbEntity
  8
Hachura
 62
7
100
AcDbHatch
 10
0.0
 20
0.0
 30
0.0
210
0.0
220
0.0
230
1.0
  2
ANSI31
 70
0
 71
0
 91
1
 92
3
 72
0
 73
1
 93
5
 10
5546.088714804879
 20
3391.790761737569
 10
5546.088714804879
 20
3396.190761737563
 10
5560.088714804879
 20
3396.190761737563
 10
5560.088714804879
 20
3391.790761737569
 10
5546.088714804879
 20
3391.790761737569
 97
0
 75
1
 76
1
 52
0.0
 41
1.0
 77
0
 78
1
 53
45.0
 43
0.0
 44
0.0
 45
-2.2450640303
 46
2.2450640303
 79
0
 98
0
  0
HATCH
  5
291
330
17
100
AcDbEntity
  8
Hachura
 62
7
100
AcDbHatch
 10
0.0
 20
0.0
 30
0.0
210
0.0
220
0.0
230
1.0
  2
SOLID
 70
1
 71
0
 91
1
 92
3
 72
0
 73
1
 93
5
 10
5588.088714804879
 20
3481.790761737547
 10
5584.088714804878
 20
3481.790761737547
 10
5584.088714804878
 20
3391.790761737569
 10
5588.088714804879
 20
3391.790761737569
 10
5588.088714804879
 20
3481.790761737547
 97
0
 75
1
 76
1
 98
0
  0
HATCH
  5
292
330
17
100
AcDbEntity
  8
Hachura
 62
7
100
AcDbHatch
 10
0.0
 20
0.0
 30
0.0
210
0.0
220
0.0
230
1.0
  2
SOLID
 70
1
 71
0
 91
1
 92
3
 72
0
 73
1
 93
5
 10
5644.088714804849
 20
3479.790761737547
 10
5644.088714804849
 20
3483.790761737547
 10
5584.088714804878
 20
3483.790761737547
 10
5584.088714804878
 20
3479.790761737547
 10
5644.088714804849
 20
3479.790761737547
 97
0
 75
1
 76
1
 98
0
  0
HATCH
  5
293
330
17
100
AcDbEntity
  8
Hachura
 62
7
100
AcDbHatch
 10
0.0
 20
0.0
 30
0.0
210
0.0
220
0.0
230
1.0
  2
SOLID
 70
1
 71
0
 91
1
 92
3
 72
0
 73
1
 93
5
 10
5546.088714804879
 20
3479.790761737547
 10
5546.088714804879
 20
3483.790761737547
 10
5490.488714804902
 20
3483.79076173754
 10
5490.488714804902
 20
3479.79076173754
 10
5546.088714804879
 20
3479.790761737547
 97
0
 75
1
 76
1
 98
0
  0
HATCH
  5
294
330
17
100
AcDbEntity
  8
Hachura
 62
7
100
AcDbHatch
 10
0.0
 20
0.0
 30
0.0
210
0.0
220
0.0
230
1.0
  2
ANSI31
 70
0
 71
0
 91
1
 92
3
 72
0
 73
1
 93
5
 10
5537.688714804884
 20
3465.790761737547
 10
5542.088714804879
 20
3465.790761737547
 10
5542.088714804879
 20
3479.790761737547
 10
5537.688714804884
 20
3479.790761737547
 10
5537.688714804884
 20
3465.790761737547
 97
0
 75
1
 76
1
 52
0.0
 41
1.0
 77
0
 78
1
 53
45.0
 43
0.0
 44
0.0
 45
-2.2450640303
 46
2.2450640303
 79
0
 98
0
  0
HATCH
  5
295
330
17
100
AcDbEntity
  8
Hachura
 62
7
100
AcDbHatch
 10
0.0
 20
0.0
 30
0.0
210
0.0
220
0.0
230
1.0
  2
ANSI31
 70
0
 71
0
 91
1
 92
3
 72
0
 73
1
 93
5
 10
5537.688714804884
 20
3391.790761737569
 10
5542.088714804879
 20
3391.790761737569
 10
5542.088714804879
 20
3405.790761737569
 10
5537.688714804884
 20
3405.790761737569
 10
5537.688714804884
 20
3391.790761737569
 97
0
 75
1
 76
1
 52
0.0
 41
1.0
 77
0
 78
1
 53
45.0
 43
0.0
 44
0.0
 45
-2.2450640303
 46
2.2450640303
 79
0
 98
0
  0
HATCH
  5
296
330
17
100
AcDbEntity
  8
Hachura
 62
7
100
AcDbHatch
 10
0.0
 20
0.0
 30
0.0
210
0.0
220
0.0
230
1.0
  2
ANSI31
 70
0
 71
0
 91
1
 92
3
 72
0
 73
1
 93
5
 10
5592.488714804873
 20
3465.790761737547
 10
5588.088714804879
 20
3465.790761737547
 10
5588.088714804879
 20
3479.790761737547
 10
5592.488714804873
 20
3479.790761737547
 10
5592.488714804873
 20
3465.790761737547
 97
0
 75
1
 76
1
 52
0.0
 41
1.0
 77
0
 78
1
 53
45.0
 43
0.0
 44
0.0
 45
-2.2450640303
 46
2.2450640303
 79
0
 98
0
  0
HATCH
  5
297
330
17
100
AcDbEntity
  8
Hachura
 62
7
100
AcDbHatch
 10
0.0
 20
0.0
 30
0.0
210
0.0
220
0.0
230
1.0
  2
ANSI31
 70
0
 71
0
 91
1
 92
3
 72
0
 73
1
 93
5
 10
5592.488714804873
 20
3391.790761737569
 10
5588.088714804879
 20
3391.790761737569
 10
5588.088714804879
 20
3405.790761737569
 10
5592.488714804873
 20
3405.790761737569
 10
5592.488714804873
 20
3391.790761737569
 97
0
 75
1
 76
1
 52
0.0
 41
1.0
 77
0
 78
1
 53
45.0
 43
0.0
 44
0.0
 45
-2.2450640303
 46
2.2450640303
 79
0
 98
0
  0
HATCH
  5
298
330
17
100
AcDbEntity
  8
Hachura
 62
7
100
AcDbHatch
 10
0.0
 20
0.0
 30
0.0
210
0.0
220
0.0
230
1.0
  2
ANSI31
 70
0
 71
0
 91
1
 92
3
 72
0
 73
1
 93
5
 10
5537.688714804884
 20
3428.790761737558
 10
5542.088714804879
 20
3428.790761737558
 10
5542.088714804879
 20
3442.790761737557
 10
5537.688714804884
 20
3442.790761737557
 10
5537.688714804884
 20
3428.790761737558
 97
0
 75
1
 76
1
 52
0.0
 41
1.0
 77
0
 78
1
 53
45.0
 43
0.0
 44
0.0
 45
-2.2450640303
 46
2.2450640303
 79
0
 98
0
  0
HATCH
  5
299
330
17
100
AcDbEntity
  8
Hachura
 62
7
100
AcDbHatch
 10
0.0
 20
0.0
 30
0.0
210
0.0
220
0.0
230
1.0
  2
ANSI31
 70
0
 71
0
 91
1
 92
3
 72
0
 73
1
 93
5
 10
5592.488714804873
 20
3428.790761737558
 10
5588.088714804879
 20
3428.790761737558
 10
5588.088714804879
 20
3442.790761737557
 10
5592.488714804873
 20
3442.790761737557
 10
5592.488714804873
 20
3428.790761737558
 97
0
 75
1
 76
1
 52
0.0
 41
1.0
 77
0
 78
1
 53
45.0
 43
0.0
 44
0.0
 45
-2.2450640303
 46
2.2450640303
 79
0
 98
0
  0
HATCH
  5
29A
330
17
100
AcDbEntity
  8
REAPROVEITAMENTO
 62
7
100
AcDbHatch
 10
0.0
 20
0.0
 30
0.0
210
0.0
220
0.0
230
1.0
  2
ANSI31
 70
0
 71
0
 91
1
 92
3
 72
0
 73
1
 93
5
 10
5058.841444931398
 20
3226.593658626985
 10
5058.841444931402
 20
3270.593658626986
 10
4950.8414449314
 20
3270.093658626989
 10
4950.8414449314
 20
3226.093658626989
 10
5058.841444931398
 20
3226.593658626985
 97
0
 75
1
 76
1
 52
0.0
 41
1.0
 77
0
 78
1
 53
45.0
 43
0.0
 44
0.0
 45
-2.2450640303
 46
2.2450640303
 79
0
 98
0
  0
HATCH
  5
29B
330
17
100
AcDbEntity
  8
REAPROVEITAMENTO
 62
7
100
AcDbHatch
 10
0.0
 20
0.0
 30
0.0
210
0.0
220
0.0
230
1.0
  2
ANSI37
 70
0
 71
0
 91
1
 92
3
 72
0
 73
1
 93
5
 10
4887.841444931398
 20
3226.343658626968
 10
4887.841444931403
 20
3270.343658626984
 10
4643.8414449314
 20
3270.343658626983
 10
4643.841444931402
 20
3226.343658626968
 10
4887.841444931398
 20
3226.343658626968
 97
0
 75
1
 76
1
 52
0.0
 41
1.0
 77
0
 78
2
 53
45.0
 43
0.0
 44
0.0
 45
-2.2450640303
 46
2.2450640303
 79
0
 53
135.0
 43
0.0
 44
0.0
 45
-2.2450640303
 46
-2.2450640303
 79
0
 98
0
  0
HATCH
  5
29C
330
17
100
AcDbEntity
  8
COTA
 62
7
100
AcDbHatch
 10
0.0
 20
0.0
 30
0.0
210
0.0
220
0.0
230
1.0
  2
AR-CONC
 70
0
 71
0
 91
1
 92
3
 72
0
 73
1
 93
7
 10
4862.841444931408
 20
3069.429770111573
 10
5058.841444931408
 20
3069.429770111572
 10
5058.841444931408
 20
3057.429770111573
 10
4643.841444931408
 20
3057.429770111598
 10
4643.841444931408
 20
3072.429770111575
 10
4862.841444931408
 20
3072.429770111573
 10
4862.841444931408
 20
3069.429770111573
 97
0
 75
1
 76
1
 52
0.0
 41
1.0
 77
0
 78
13
 53
50.0
 43
0.0
 44
0.0
 45
182.184668996
 46
-15.9390855389
 79
2
 49
19.05
 49
-209.55
 53
355.0
 43
0.0
 44
0.0
 45
-35.243421425
 46
191.056845239
 79
2
 49
15.24
 49
-167.64058417
 53
100.4514447
 43
15.182007
 44
-1.3282535
 45
146.9412470904
 46
175.1177519122
 79
2
 49
16.1900088
 49
-178.0902446
 53
46.1842
 43
0.0
 44
50.8
 45
271.0790408921
 46
-42.0423279327
 79
2
 49
28.575
 49
-314.325
 53
96.63555761
 43
22.5899
 44
47.2965
 45
237.4041340515
 46
247.4261245977
 79
2
 49
24.28502314
 49
-267.13560816
 53
351.18415117
 43
0.0
 44
50.8
 45
237.404134065
 46
247.4261245855
 79
2
 49
22.85996707
 49
-251.45973192
 53
21.0
 43
25.4
 44
38.1
 45
151.6143912691
 46
-102.2651981871
 79
2
 49
19.05
 49
-209.55
 53
326.0
 43
25.4
 44
38.1
 45
61.8020283476
 46
184.1879661223
 79
2
 49
15.24
 49
-167.64
 53
71.451445
 43
38.0345326
 44
29.5779001
 45
213.4164192787
 46
81.9227688859
 79
2
 49
16.1900088
 49
-178.0899376
 53
37.5
 43
0.0
 44
0.0
 45
3.0886032506
 46
84.5550388732
 79
6
 49
0.0
 49
-165.608
 49
0.0
 49
-170.18
 49
0.0
 49
-168.275
 53
7.5
 43
0.0
 44
0.0
 45
66.8196625103
 46
100.1805748181
 79
6
 49
0.0
 49
-97.028
 49
0.0
 49
-161.798
 49
0.0
 49
-64.135
 53
-32.5
 43
-56.642
 44
0.0
 45
135.5905951669
 46
-5.7287439927
 79
6
 49
0.0
 49
-63.5
 49
0.0
 49
-198.12
 49
0.0
 49
-262.89
 53
-42.5
 43
-82.042
 44
0.0
 45
148.129181386
 46
25.4264910333
 79
6
 49
0.0
 49
-82.55
 49
0.0
 49
-131.572
 49
0.0
 49
-186.69
 98
0
  0
HATCH
  5
29D
330
17
100
AcDbEntity
  8
REAPROVEITAMENTO
 62
7
100
AcDbHatch
 10
0.0
 20
0.0
 30
0.0
210
0.0
220
0.0
230
1.0
  2
ANSI31
 70
0
 71
0
 91
1
 92
3
 72
0
 73
1
 93
5
 10
4643.841444931406
 20
3013.679770111597
 10
4643.841444931402
 20
3057.679770111598
 10
4887.841444931405
 20
3057.179770111588
 10
4887.841444931405
 20
3013.17977011159
 10
4643.841444931406
 20
3013.679770111597
 97
0
 75
1
 76
1
 52
0.0
 41
1.0
 77
0
 78
1
 53
45.0
 43
0.0
 44
0.0
 45
-2.2450640303
 46
2.2450640303
 79
0
 98
0
  0
HATCH
  5
29E
330
17
100
AcDbEntity
  8
REAPROVEITAMENTO
 62
7
100
AcDbHatch
 10
0.0
 20
0.0
 30
0.0
210
0.0
220
0.0
230
1.0
  2
ANSI37
 70
0
 71
0
 91
1
 92
3
 72
0
 73
1
 93
5
 10
4950.841444931406
 20
3013.42977011158
 10
4950.841444931402
 20
3057.429770111596
 10
5058.841444931406
 20
3057.429770111595
 10
5058.841444931404
 20
3013.42977011158
 10
4950.841444931406
 20
3013.42977011158
 97
0
 75
1
 76
1
 52
0.0
 41
1.0
 77
0
 78
2
 53
45.0
 43
0.0
 44
0.0
 45
-2.2450640303
 46
2.2450640303
 79
0
 53
135.0
 43
0.0
 44
0.0
 45
-2.2450640303
 46
-2.2450640303
 79
0
 98
0
  0
HATCH
  5
29F
330
17
100
AcDbEntity
  8
COTA
 62
7
100
AcDbHatch
 10
0.0
 20
0.0
 30
0.0
210
0.0
220
0.0
230
1.0
  2
AR-CONC
 70
0
 71
0
 91
1
 92
3
 72
0
 73
1
 93
7
 10
5622.633546766883
 20
3280.581707104895
 10
5822.633546766883
 20
3280.581707104895
 10
5822.633546766883
 20
3268.581707104896
 10
5407.633546766883
 20
3268.581707104921
 10
5407.633546766883
 20
3283.581707104897
 10
5622.633546766883
 20
3283.581707104895
 10
5622.633546766883
 20
3280.581707104895
 97
0
 75
1
 76
1
 52
0.0
 41
1.0
 77
0
 78
13
 53
50.0
 43
0.0
 44
0.0
 45
182.184668996
 46
-15.9390855389
 79
2
 49
19.05
 49
-209.55
 53
355.0
 43
0.0
 44
0.0
 45
-35.243421425
 46
191.056845239
 79
2
 49
15.24
 49
-167.64058417
 53
100.4514447
 43
15.182007
 44
-1.3282535
 45
146.9412470904
 46
175.1177519122
 79
2
 49
16.1900088
 49
-178.0902446
 53
46.1842
 43
0.0
 44
50.8
 45
271.0790408921
 46
-42.0423279327
 79
2
 49
28.575
 49
-314.325
 53
96.63555761
 43
22.5899
 44
47.2965
 45
237.4041340515
 46
247.4261245977
 79
2
 49
24.28502314
 49
-267.13560816
 53
351.18415117
 43
0.0
 44
50.8
 45
237.404134065
 46
247.4261245855
 79
2
 49
22.85996707
 49
-251.45973192
 53
21.0
 43
25.4
 44
38.1
 45
151.6143912691
 46
-102.2651981871
 79
2
 49
19.05
 49
-209.55
 53
326.0
 43
25.4
 44
38.1
 45
61.8020283476
 46
184.1879661223
 79
2
 49
15.24
 49
-167.64
 53
71.451445
 43
38.0345326
 44
29.5779001
 45
213.4164192787
 46
81.9227688859
 79
2
 49
16.1900088
 49
-178.0899376
 53
37.5
 43
0.0
 44
0.0
 45
3.0886032506
 46
84.5550388732
 79
6
 49
0.0
 49
-165.608
 49
0.0
 49
-170.18
 49
0.0
 49
-168.275
 53
7.5
 43
0.0
 44
0.0
 45
66.8196625103
 46
100.1805748181
 79
6
 49
0.0
 49
-97.028
 49
0.0
 49
-161.798
 49
0.0
 49
-64.135
 53
-32.5
 43
-56.642
 44
0.0
 45
135.5905951669
 46
-5.7287439927
 79
6
 49
0.0
 49
-63.5
 49
0.0
 49
-198.12
 49
0.0
 49
-262.89
 53
-42.5
 43
-82.042
 44
0.0
 45
148.129181386
 46
25.4264910333
 79
6
 49
0.0
 49
-82.55
 49
0.0
 49
-131.572
 49
0.0
 49
-186.69
 98
0
  0
HATCH
  5
2A0
330
17
100
AcDbEntity
  8
REAPROVEITAMENTO
 62
7
100
AcDbHatch
 10
0.0
 20
0.0
 30
0.0
210
0.0
220
0.0
230
1.0
  2
ANSI31
 70
0
 71
0
 91
1
 92
3
 72
0
 73
1
 93
5
 10
5407.633546766883
 20
3224.831707104919
 10
5407.633546766877
 20
3268.83170710492
 10
5651.633546766881
 20
3268.33170710491
 10
5651.633546766881
 20
3224.331707104911
 10
5407.633546766883
 20
3224.831707104919
 97
0
 75
1
 76
1
 52
0.0
 41
1.0
 77
0
 78
1
 53
45.0
 43
0.0
 44
0.0
 45
-2.2450640303
 46
2.2450640303
 79
0
 98
0
  0
HATCH
  5
2A1
330
17
100
AcDbEntity
  8
REAPROVEITAMENTO
 62
7
100
AcDbHatch
 10
0.0
 20
0.0
 30
0.0
210
0.0
220
0.0
230
1.0
  2
ANSI37
 70
0
 71
0
 91
1
 92
3
 72
0
 73
1
 93
5
 10
5726.633546766882
 20
3224.5817071049
 10
5726.633546766876
 20
3268.581707104916
 10
5822.633546766882
 20
3268.581707104917
 10
5822.63354676688
 20
3224.581707104903
 10
5726.633546766882
 20
3224.5817071049
 97
0
 75
1
 76
1
 52
0.0
 41
1.0
 77
0
 78
2
 53
45.0
 43
0.0
 44
0.0
 45
-2.2450640303
 46
2.2450640303
 79
0
 53
135.0
 43
0.0
 44
0.0
 45
-2.2450640303
 46
-2.2450640303
 79
0
 98
0
  0
HATCH
  5
2A2
330
17
100
AcDbEntity
  8
COTA
 62
7
100
AcDbHatch
 10
0.0
 20
0.0
 30
0.0
210
0.0
220
0.0
230
1.0
  2
AR-CONC
 70
0
 71
0
 91
1
 92
3
 72
0
 73
1
 93
7
 10
5491.229508272041
 20
3074.711144226358
 10
5291.229508272041
 20
3074.711144226358
 10
5291.229508272041
 20
3062.711144226359
 10
5706.22950827205
 20
3062.711144226357
 10
5706.22950827205
 20
3077.711144226333
 10
5491.229508272041
 20
3077.711144226358
 10
5491.229508272041
 20
3074.711144226358
 97
0
 75
1
 76
1
 52
0.0
 41
1.0
 77
0
 78
13
 53
50.0
 43
0.0
 44
0.0
 45
182.184668996
 46
-15.9390855389
 79
2
 49
19.05
 49
-209.55
 53
355.0
 43
0.0
 44
0.0
 45
-35.243421425
 46
191.056845239
 79
2
 49
15.24
 49
-167.64058417
 53
100.4514447
 43
15.182007
 44
-1.3282535
 45
146.9412470904
 46
175.1177519122
 79
2
 49
16.1900088
 49
-178.0902446
 53
46.1842
 43
0.0
 44
50.8
 45
271.0790408921
 46
-42.0423279327
 79
2
 49
28.575
 49
-314.325
 53
96.63555761
 43
22.5899
 44
47.2965
 45
237.4041340515
 46
247.4261245977
 79
2
 49
24.28502314
 49
-267.13560816
 53
351.18415117
 43
0.0
 44
50.8
 45
237.404134065
 46
247.4261245855
 79
2
 49
22.85996707
 49
-251.45973192
 53
21.0
 43
25.4
 44
38.1
 45
151.6143912691
 46
-102.2651981871
 79
2
 49
19.05
 49
-209.55
 53
326.0
 43
25.4
 44
38.1
 45
61.8020283476
 46
184.1879661223
 79
2
 49
15.24
 49
-167.64
 53
71.451445
 43
38.0345326
 44
29.5779001
 45
213.4164192787
 46
81.9227688859
 79
2
 49
16.1900088
 49
-178.0899376
 53
37.5
 43
0.0
 44
0.0
 45
3.0886032506
 46
84.5550388732
 79
6
 49
0.0
 49
-165.608
 49
0.0
 49
-170.18
 49
0.0
 49
-168.275
 53
7.5
 43
0.0
 44
0.0
 45
66.8196625103
 46
100.1805748181
 79
6
 49
0.0
 49
-97.028
 49
0.0
 49
-161.798
 49
0.0
 49
-64.135
 53
-32.5
 43
-56.642
 44
0.0
 45
135.5905951669
 46
-5.7287439927
 79
6
 49
0.0
 49
-63.5
 49
0.0
 49
-198.12
 49
0.0
 49
-262.89
 53
-42.5
 43
-82.042
 44
0.0
 45
148.129181386
 46
25.4264910333
 79
6
 49
0.0
 49
-82.55
 49
0.0
 49
-131.572
 49
0.0
 49
-186.69
 98
0
  0
HATCH
  5
2A3
330
17
100
AcDbEntity
  8
REAPROVEITAMENTO
 62
7
100
AcDbHatch
 10
0.0
 20
0.0
 30
0.0
210
0.0
220
0.0
230
1.0
  2
ANSI31
 70
0
 71
0
 91
1
 92
3
 72
0
 73
1
 93
5
 10
5706.229508272042
 20
3018.961144226381
 10
5706.229508272047
 20
3062.961144226382
 10
5462.229508272045
 20
3062.461144226374
 10
5462.229508272045
 20
3018.461144226375
 10
5706.229508272042
 20
3018.961144226381
 97
0
 75
1
 76
1
 52
0.0
 41
1.0
 77
0
 78
1
 53
45.0
 43
0.0
 44
0.0
 45
-2.2450640303
 46
2.2450640303
 79
0
 98
0
  0
HATCH
  5
2A4
330
17
100
AcDbEntity
  8
REAPROVEITAMENTO
 62
7
100
AcDbHatch
 10
0.0
 20
0.0
 30
0.0
210
0.0
220
0.0
230
1.0
  2
ANSI37
 70
0
 71
0
 91
1
 92
3
 72
0
 73
1
 93
5
 10
5387.229508272042
 20
3018.711144226352
 10
5387.229508272048
 20
3062.711144226369
 10
5291.229508272045
 20
3062.71114422638
 10
5291.229508272047
 20
3018.711144226365
 10
5387.229508272042
 20
3018.711144226352
 97
0
 75
1
 76
1
 52
0.0
 41
1.0
 77
0
 78
2
 53
45.0
 43
0.0
 44
0.0
 45
-2.2450640303
 46
2.2450640303
 79
0
 53
135.0
 43
0.0
 44
0.0
 45
-2.2450640303
 46
-2.2450640303
 79
0
 98
0
  0
HATCH
  5
2A5
330
17
100
AcDbEntity
  8
COTA
 62
7
100
AcDbHatch
 10
0.0
 20
0.0
 30
0.0
210
0.0
220
0.0
230
1.0
  2
AR-CONC
 70
0
 71
0
 91
1
 92
3
 72
0
 73
1
 93
5
 10
5294.306139189377
 20
3264.58170710489
 10
5294.306139189377
 20
3276.581707104889
 10
5357.26099843019
 20
3276.581707104889
 10
5357.26099843019
 20
3264.581707104889
 10
5294.306139189377
 20
3264.58170710489
 97
0
 75
1
 76
1
 52
0.0
 41
1.0
 77
0
 78
13
 53
50.0
 43
0.0
 44
0.0
 45
182.184668996
 46
-15.9390855389
 79
2
 49
19.05
 49
-209.55
 53
355.0
 43
0.0
 44
0.0
 45
-35.243421425
 46
191.056845239
 79
2
 49
15.24
 49
-167.64058417
 53
100.4514447
 43
15.182007
 44
-1.3282535
 45
146.9412470904
 46
175.1177519122
 79
2
 49
16.1900088
 49
-178.0902446
 53
46.1842
 43
0.0
 44
50.8
 45
271.0790408921
 46
-42.0423279327
 79
2
 49
28.575
 49
-314.325
 53
96.63555761
 43
22.5899
 44
47.2965
 45
237.4041340515
 46
247.4261245977
 79
2
 49
24.28502314
 49
-267.13560816
 53
351.18415117
 43
0.0
 44
50.8
 45
237.404134065
 46
247.4261245855
 79
2
 49
22.85996707
 49
-251.45973192
 53
21.0
 43
25.4
 44
38.1
 45
151.6143912691
 46
-102.2651981871
 79
2
 49
19.05
 49
-209.55
 53
326.0
 43
25.4
 44
38.1
 45
61.8020283476
 46
184.1879661223
 79
2
 49
15.24
 49
-167.64
 53
71.451445
 43
38.0345326
 44
29.5779001
 45
213.4164192787
 46
81.9227688859
 79
2
 49
16.1900088
 49
-178.0899376
 53
37.5
 43
0.0
 44
0.0
 45
3.0886032506
 46
84.5550388732
 79
6
 49
0.0
 49
-165.608
 49
0.0
 49
-170.18
 49
0.0
 49
-168.275
 53
7.5
 43
0.0
 44
0.0
 45
66.8196625103
 46
100.1805748181
 79
6
 49
0.0
 49
-97.028
 49
0.0
 49
-161.798
 49
0.0
 49
-64.135
 53
-32.5
 43
-56.642
 44
0.0
 45
135.5905951669
 46
-5.7287439927
 79
6
 49
0.0
 49
-63.5
 49
0.0
 49
-198.12
 49
0.0
 49
-262.89
 53
-42.5
 43
-82.042
 44
0.0
 45
148.129181386
 46
25.4264910333
 79
6
 49
0.0
 49
-82.55
 49
0.0
 49
-131.572
 49
0.0
 49
-186.69
 98
0
  0
HATCH
  5
2A6
330
17
100
AcDbEntity
  8
COTA
 62
7
100
AcDbHatch
 10
0.0
 20
0.0
 30
0.0
210
0.0
220
0.0
230
1.0
  2
AR-CONC
 70
0
 71
0
 91
1
 92
3
 72
0
 73
1
 93
5
 10
5784.457015189127
 20
3058.711144226339
 10
5784.457015189127
 20
3070.711144226337
 10
5847.411874429941
 20
3070.711144226337
 10
5847.411874429941
 20
3058.711144226337
 10
5784.457015189127
 20
3058.711144226339
 97
0
 75
1
 76
1
 52
0.0
 41
1.0
 77
0
 78
13
 53
50.0
 43
0.0
 44
0.0
 45
182.184668996
 46
-15.9390855389
 79
2
 49
19.05
 49
-209.55
 53
355.0
 43
0.0
 44
0.0
 45
-35.243421425
 46
191.056845239
 79
2
 49
15.24
 49
-167.64058417
 53
100.4514447
 43
15.182007
 44
-1.3282535
 45
146.9412470904
 46
175.1177519122
 79
2
 49
16.1900088
 49
-178.0902446
 53
46.1842
 43
0.0
 44
50.8
 45
271.0790408921
 46
-42.0423279327
 79
2
 49
28.575
 49
-314.325
 53
96.63555761
 43
22.5899
 44
47.2965
 45
237.4041340515
 46
247.4261245977
 79
2
 49
24.28502314
 49
-267.13560816
 53
351.18415117
 43
0.0
 44
50.8
 45
237.404134065
 46
247.4261245855
 79
2
 49
22.85996707
 49
-251.45973192
 53
21.0
 43
25.4
 44
38.1
 45
151.6143912691
 46
-102.2651981871
 79
2
 49
19.05
 49
-209.55
 53
326.0
 43
25.4
 44
38.1
 45
61.8020283476
 46
184.1879661223
 79
2
 49
15.24
 49
-167.64
 53
71.451445
 43
38.0345326
 44
29.5779001
 45
213.4164192787
 46
81.9227688859
 79
2
 49
16.1900088
 49
-178.0899376
 53
37.5
 43
0.0
 44
0.0
 45
3.0886032506
 46
84.5550388732
 79
6
 49
0.0
 49
-165.608
 49
0.0
 49
-170.18
 49
0.0
 49
-168.275
 53
7.5
 43
0.0
 44
0.0
 45
66.8196625103
 46
100.1805748181
 79
6
 49
0.0
 49
-97.028
 49
0.0
 49
-161.798
 49
0.0
 49
-64.135
 53
-32.5
 43
-56.642
 44
0.0
 45
135.5905951669
 46
-5.7287439927
 79
6
 49
0.0
 49
-63.5
 49
0.0
 49
-198.12
 49
0.0
 49
-262.89
 53
-42.5
 43
-82.042
 44
0.0
 45
148.129181386
 46
25.4264910333
 79
6
 49
0.0
 49
-82.55
 49
0.0
 49
-131.572
 49
0.0
 49
-186.69
 98
0
  0
LINE
  5
2A7
330
17
100
AcDbEntity
  8
SARRAFO DE PRESSAO
 62
30
370
9
100
AcDbLine
 10
4902.380615814327
 20
2664.790761737575
 30
0.0
 11
4902.380615814327
 21
2864.034275148464
 31
0.0
  0
ENDSEC
  0
SECTION
  2
OBJECTS
  0
DICTIONARY
  5
A
330
0
100
AcDbDictionary
281
1
  3
ACAD_COLOR
350
B
  3
ACAD_GROUP
350
C
  3
ACAD_LAYOUT
350
D
  3
ACAD_MATERIAL
350
E
  3
ACAD_MLEADERSTYLE
350
F
  3
ACAD_MLINESTYLE
350
10
  3
ACAD_PLOTSETTINGS
350
11
  3
ACAD_PLOTSTYLENAME
350
12
  3
ACAD_SCALELIST
350
14
  3
ACAD_TABLESTYLE
350
15
  3
ACAD_VISUALSTYLE
350
16
  3
EZDXF_META
350
2D
  0
DICTIONARY
  5
B
330
A
100
AcDbDictionary
281
1
  0
DICTIONARY
  5
C
330
A
100
AcDbDictionary
281
1
  0
DICTIONARY
  5
D
330
A
100
AcDbDictionary
281
1
  3
Model
350
1A
  3
Layout1
350
1E
  0
DICTIONARY
  5
E
330
A
100
AcDbDictionary
281
1
  3
ByBlock
350
1F
  3
ByLayer
350
20
  3
Global
350
21
  0
DICTIONARY
  5
F
330
A
100
AcDbDictionary
281
1
  3
Standard
350
2C
  0
DICTIONARY
  5
10
330
A
100
AcDbDictionary
281
1
  3
Standard
350
22
  0
DICTIONARY
  5
11
330
A
100
AcDbDictionary
281
1
  0
ACDBDICTIONARYWDFLT
  5
12
330
A
100
AcDbDictionary
281
1
  3
Normal
350
13
100
AcDbDictionaryWithDefault
340
13
  0
ACDBPLACEHOLDER
  5
13
330
12
  0
DICTIONARY
  5
14
330
A
100
AcDbDictionary
281
1
  0
DICTIONARY
  5
15
330
A
100
AcDbDictionary
281
1
  0
DICTIONARY
  5
16
330
A
100
AcDbDictionary
281
1
  0
LAYOUT
  5
1A
330
D
100
AcDbPlotSettings
  1

  4
A3
  6

 40
7.5
 41
20.0
 42
7.5
 43
20.0
 44
420.0
 45
297.0
 46
0.0
 47
0.0
 48
0.0
 49
0.0
140
0.0
141
0.0
142
1.0
143
1.0
 70
1024
 72
1
 73
0
 74
5
  7

 75
16
 76
0
 77
2
 78
300
147
1.0
148
0.0
149
0.0
100
AcDbLayout
  1
Model
 70
1
 71
0
 10
0.0
 20
0.0
 11
420.0
 21
297.0
 12
0.0
 22
0.0
 32
0.0
 14
1e+20
 24
1e+20
 34
1e+20
 15
-1e+20
 25
-1e+20
 35
-1e+20
146
0.0
 13
0.0
 23
0.0
 33
0.0
 16
1.0
 26
0.0
 36
0.0
 17
0.0
 27
1.0
 37
0.0
 76
1
330
17
  0
LAYOUT
  5
1E
330
D
100
AcDbPlotSettings
  1

  4
A3
  6

 40
7.5
 41
20.0
 42
7.5
 43
20.0
 44
420.0
 45
297.0
 46
0.0
 47
0.0
 48
0.0
 49
0.0
140
0.0
141
0.0
142
1.0
143
1.0
 70
0
 72
1
 73
0
 74
5
  7

 75
16
 76
0
 77
2
 78
300
147
1.0
148
0.0
149
0.0
100
AcDbLayout
  1
Layout1
 70
1
 71
1
 10
0.0
 20
0.0
 11
420.0
 21
297.0
 12
0.0
 22
0.0
 32
0.0
 14
1e+20
 24
1e+20
 34
1e+20
 15
-1e+20
 25
-1e+20
 35
-1e+20
146
0.0
 13
0.0
 23
0.0
 33
0.0
 16
1.0
 26
0.0
 36
0.0
 17
0.0
 27
1.0
 37
0.0
 76
1
330
1B
  0
MATERIAL
  5
1F
102
{ACAD_REACTORS
330
E
102
}
330
E
100
AcDbMaterial
  1
ByBlock
  2

 70
0
 40
1.0
 71
1
 41
1.0
 91
-1023410177
 42
1.0
 72
1
  3

 73
1
 74
1
 75
1
 44
0.5
 73
0
 45
1.0
 46
1.0
 77
1
  4

 78
1
 79
1
170
1
 48
1.0
171
1
  6

172
1
173
1
174
1
140
1.0
141
1.0
175
1
  7

176
1
177
1
178
1
143
1.0
179
1
  8

270
1
271
1
272
1
145
1.0
146
1.0
273
1
  9

274
1
275
1
276
1
 42
1.0
 72
1
  3

 73
1
 74
1
 75
1
 94
63
  0
MATERIAL
  5
20
102
{ACAD_REACTORS
330
E
102
}
330
E
100
AcDbMaterial
  1
ByLayer
  2

 70
0
 40
1.0
 71
1
 41
1.0
 91
-1023410177
 42
1.0
 72
1
  3

 73
1
 74
1
 75
1
 44
0.5
 73
0
 45
1.0
 46
1.0
 77
1
  4

 78
1
 79
1
170
1
 48
1.0
171
1
  6

172
1
173
1
174
1
140
1.0
141
1.0
175
1
  7

176
1
177
1
178
1
143
1.0
179
1
  8

270
1
271
1
272
1
145
1.0
146
1.0
273
1
  9

274
1
275
1
276
1
 42
1.0
 72
1
  3

 73
1
 74
1
 75
1
 94
63
  0
MATERIAL
  5
21
102
{ACAD_REACTORS
330
E
102
}
330
E
100
AcDbMaterial
  1
Global
  2

 70
0
 40
1.0
 71
1
 41
1.0
 91
-1023410177
 42
1.0
 72
1
  3

 73
1
 74
1
 75
1
 44
0.5
 73
0
 45
1.0
 46
1.0
 77
1
  4

 78
1
 79
1
170
1
 48
1.0
171
1
  6

172
1
173
1
174
1
140
1.0
141
1.0
175
1
  7

176
1
177
1
178
1
143
1.0
179
1
  8

270
1
271
1
272
1
145
1.0
146
1.0
273
1
  9

274
1
275
1
276
1
 42
1.0
 72
1
  3

 73
1
 74
1
 75
1
 94
63
  0
MLINESTYLE
  5
22
102
{ACAD_REACTORS
330
10
102
}
330
10
100
AcDbMlineStyle
  2
Standard
 70
0
  3

 62
256
 51
90.0
 52
90.0
 71
2
 49
0.5
 62
256
  6
BYLAYER
 49
-0.5
 62
256
  6
BYLAYER
  0
MLEADERSTYLE
  5
2C
102
{ACAD_REACTORS
330
F
102
}
330
F
100
AcDbMLeaderStyle
179
2
170
2
171
1
172
0
 90
2
 40
0.0
 41
0.0
173
1
 91
-1056964608
 92
-2
290
1
 42
2.0
291
1
 43
8.0
  3
Standard
 44
4.0
300

342
29
174
1
175
1
176
0
178
1
 93
-1056964608
 45
4.0
292
0
297
0
 46
4.0
 94
-1056964608
 47
1.0
 49
1.0
140
1.0
294
1
141
0.0
177
0
142
1.0
295
0
296
0
143
3.75
271
0
272
9
273
9
  0
DICTIONARY
  5
2D
330
A
100
AcDbDictionary
280
1
281
1
  3
CREATED_BY_EZDXF
350
2E
  3
WRITTEN_BY_EZDXF
350
2AA
  0
DICTIONARYVAR
  5
2E
330
2D
100
DictionaryVariables
280
0
  1
1.4.3 @ 2026-06-10T03:20:22.753055+00:00
  0
DICTIONARYVAR
  5
2AA
330
2D
100
DictionaryVariables
280
0
  1
1.4.3 @ 2026-06-10T03:20:22.774276+00:00
  0
ENDSEC
  0
EOF
