  0
SECTION
  2
HEADER
  9
$ACADVER
  1
AC1024
  9
$ACADMAINTVER
 70
6
  9
$DWGCODEPAGE
  3
ANSI_1252
  9
$LASTSAVEDBY
  1
ezdxf
  9
$INSBASE
 10
0.0
 20
0.0
 30
0.0
  9
$EXTMIN
 10
1e+20
 20
1e+20
 30
1e+20
  9
$EXTMAX
 10
-1e+20
 20
-1e+20
 30
-1e+20
  9
$LIMMIN
 10
0.0
 20
0.0
  9
$LIMMAX
 10
420.0
 20
297.0
  9
$ORTHOMODE
 70
0
  9
$REGENMODE
 70
1
  9
$FILLMODE
 70
1
  9
$QTEXTMODE
 70
0
  9
$MIRRTEXT
 70
1
  9
$LTSCALE
 40
1.0
  9
$ATTMODE
 70
1
  9
$TEXTSIZE
 40
2.5
  9
$TRACEWID
 40
1.0
  9
$TEXTSTYLE
  7
Standard
  9
$CLAYER
  8
0
  9
$CELTYPE
  6
ByLayer
  9
$CECOLOR
 62
256
  9
$CELTSCALE
 40
1.0
  9
$DISPSILH
 70
0
  9
$DIMSCALE
 40
1.0
  9
$DIMASZ
 40
2.5
  9
$DIMEXO
 40
0.625
  9
$DIMDLI
 40
3.75
  9
$DIMRND
 40
0.0
  9
$DIMDLE
 40
0.0
  9
$DIMEXE
 40
1.25
  9
$DIMTP
 40
0.0
  9
$DIMTM
 40
0.0
  9
$DIMTXT
 40
2.5
  9
$DIMCEN
 40
2.5
  9
$DIMTSZ
 40
0.0
  9
$DIMTOL
 70
0
  9
$DIMLIM
 70
0
  9
$DIMTIH
 70
0
  9
$DIMTOH
 70
0
  9
$DIMSE1
 70
0
  9
$DIMSE2
 70
0
  9
$DIMTAD
 70
1
  9
$DIMZIN
 70
8
  9
$DIMBLK
  1

  9
$DIMASO
 70
1
  9
$DIMSHO
 70
1
  9
$DIMPOST
  1

  9
$DIMAPOST
  1

  9
$DIMALT
 70
0
  9
$DIMALTD
 70
3
  9
$DIMALTF
 40
0.03937007874
  9
$DIMLFAC
 40
1.0
  9
$DIMTOFL
 70
1
  9
$DIMTVP
 40
0.0
  9
$DIMTIX
 70
0
  9
$DIMSOXD
 70
0
  9
$DIMSAH
 70
0
  9
$DIMBLK1
  1

  9
$DIMBLK2
  1

  9
$DIMSTYLE
  2
ISO-25
  9
$DIMCLRD
 70
0
  9
$DIMCLRE
 70
0
  9
$DIMCLRT
 70
0
  9
$DIMTFAC
 40
1.0
  9
$DIMGAP
 40
0.625
  9
$DIMJUST
 70
0
  9
$DIMSD1
 70
0
  9
$DIMSD2
 70
0
  9
$DIMTOLJ
 70
0
  9
$DIMTZIN
 70
8
  9
$DIMALTZ
 70
0
  9
$DIMALTTZ
 70
0
  9
$DIMUPT
 70
0
  9
$DIMDEC
 70
2
  9
$DIMTDEC
 70
2
  9
$DIMALTU
 70
2
  9
$DIMALTTD
 70
3
  9
$DIMTXSTY
  7
Standard
  9
$DIMAUNIT
 70
0
  9
$DIMADEC
 70
0
  9
$DIMALTRND
 40
0.0
  9
$DIMAZIN
 70
0
  9
$DIMDSEP
 70
44
  9
$DIMATFIT
 70
3
  9
$DIMFRAC
 70
0
  9
$DIMLDRBLK
  1

  9
$DIMLUNIT
 70
2
  9
$DIMLWD
 70
-2
  9
$DIMLWE
 70
-2
  9
$DIMTMOVE
 70
0
  9
$DIMFXL
 40
1.0
  9
$DIMFXLON
 70
0
  9
$DIMJOGANG
 40
0.785398163397
  9
$DIMTFILL
 70
0
  9
$DIMTFILLCLR
 70
0
  9
$DIMARCSYM
 70
0
  9
$DIMLTYPE
  6

  9
$DIMLTEX1
  6

  9
$DIMLTEX2
  6

  9
$DIMTXTDIRECTION
 70
0
  9
$LUNITS
 70
2
  9
$LUPREC
 70
4
  9
$SKETCHINC
 40
1.0
  9
$FILLETRAD
 40
10.0
  9
$AUNITS
 70
0
  9
$AUPREC
 70
2
  9
$MENU
  1
.
  9
$ELEVATION
 40
0.0
  9
$PELEVATION
 40
0.0
  9
$THICKNESS
 40
0.0
  9
$LIMCHECK
 70
0
  9
$CHAMFERA
 40
0.0
  9
$CHAMFERB
 40
0.0
  9
$CHAMFERC
 40
0.0
  9
$CHAMFERD
 40
0.0
  9
$SKPOLY
 70
0
  9
$TDCREATE
 40
2461202.5793402777
  9
$TDUCREATE
 40
2458532.153996898
  9
$TDUPDATE
 40
2461202.5793402777
  9
$TDUUPDATE
 40
2458532.1544311
  9
$TDINDWG
 40
0.0
  9
$TDUSRTIMER
 40
0.0
  9
$USRTIMER
 70
1
  9
$ANGBASE
 50
0.0
  9
$ANGDIR
 70
0
  9
$PDMODE
 70
0
  9
$PDSIZE
 40
0.0
  9
$PLINEWID
 40
0.0
  9
$SPLFRAME
 70
0
  9
$SPLINETYPE
 70
6
  9
$SPLINESEGS
 70
8
  9
$HANDSEED
  5
CE
  9
$SURFTAB1
 70
6
  9
$SURFTAB2
 70
6
  9
$SURFTYPE
 70
6
  9
$SURFU
 70
6
  9
$SURFV
 70
6
  9
$UCSBASE
  2

  9
$UCSNAME
  2

  9
$UCSORG
 10
0.0
 20
0.0
 30
0.0
  9
$UCSXDIR
 10
1.0
 20
0.0
 30
0.0
  9
$UCSYDIR
 10
0.0
 20
1.0
 30
0.0
  9
$UCSORTHOREF
  2

  9
$UCSORTHOVIEW
 70
0
  9
$UCSORGTOP
 10
0.0
 20
0.0
 30
0.0
  9
$UCSORGBOTTOM
 10
0.0
 20
0.0
 30
0.0
  9
$UCSORGLEFT
 10
0.0
 20
0.0
 30
0.0
  9
$UCSORGRIGHT
 10
0.0
 20
0.0
 30
0.0
  9
$UCSORGFRONT
 10
0.0
 20
0.0
 30
0.0
  9
$UCSORGBACK
 10
0.0
 20
0.0
 30
0.0
  9
$PUCSBASE
  2

  9
$PUCSNAME
  2

  9
$PUCSORG
 10
0.0
 20
0.0
 30
0.0
  9
$PUCSXDIR
 10
1.0
 20
0.0
 30
0.0
  9
$PUCSYDIR
 10
0.0
 20
1.0
 30
0.0
  9
$PUCSORTHOREF
  2

  9
$PUCSORTHOVIEW
 70
0
  9
$PUCSORGTOP
 10
0.0
 20
0.0
 30
0.0
  9
$PUCSORGBOTTOM
 10
0.0
 20
0.0
 30
0.0
  9
$PUCSORGLEFT
 10
0.0
 20
0.0
 30
0.0
  9
$PUCSORGRIGHT
 10
0.0
 20
0.0
 30
0.0
  9
$PUCSORGFRONT
 10
0.0
 20
0.0
 30
0.0
  9
$PUCSORGBACK
 10
0.0
 20
0.0
 30
0.0
  9
$USERI1
 70
0
  9
$USERI2
 70
0
  9
$USERI3
 70
0
  9
$USERI4
 70
0
  9
$USERI5
 70
0
  9
$USERR1
 40
0.0
  9
$USERR2
 40
0.0
  9
$USERR3
 40
0.0
  9
$USERR4
 40
0.0
  9
$USERR5
 40
0.0
  9
$WORLDVIEW
 70
1
  9
$SHADEDGE
 70
3
  9
$SHADEDIF
 70
70
  9
$TILEMODE
 70
1
  9
$MAXACTVP
 70
64
  9
$PINSBASE
 10
0.0
 20
0.0
 30
0.0
  9
$PLIMCHECK
 70
0
  9
$PEXTMIN
 10
1e+20
 20
1e+20
 30
1e+20
  9
$PEXTMAX
 10
-1e+20
 20
-1e+20
 30
-1e+20
  9
$PLIMMIN
 10
0.0
 20
0.0
  9
$PLIMMAX
 10
420.0
 20
297.0
  9
$UNITMODE
 70
0
  9
$VISRETAIN
 70
1
  9
$PLINEGEN
 70
0
  9
$PSLTSCALE
 70
1
  9
$TREEDEPTH
 70
3020
  9
$CMLSTYLE
  2
Standard
  9
$CMLJUST
 70
0
  9
$CMLSCALE
 40
20.0
  9
$PROXYGRAPHICS
 70
1
  9
$MEASUREMENT
 70
1
  9
$CELWEIGHT
370
-1
  9
$ENDCAPS
280
0
  9
$JOINSTYLE
280
0
  9
$LWDISPLAY
290
0
  9
$INSUNITS
 70
6
  9
$HYPERLINKBASE
  1

  9
$STYLESHEET
  1

  9
$XEDIT
290
1
  9
$CEPSNTYPE
380
0
  9
$PSTYLEMODE
290
1
  9
$FINGERPRINTGUID
  2
{D660FFFA-8FD0-4CE3-B8C5-DF9E4D313C71}
  9
$VERSIONGUID
  2
{1CE7F02F-1AD6-423C-9B2C-97808461ABA4}
  9
$EXTNAMES
290
1
  9
$PSVPSCALE
 40
0.0
  9
$OLESTARTUP
290
0
  9
$SORTENTS
280
127
  9
$INDEXCTL
280
0
  9
$HIDETEXT
280
1
  9
$XCLIPFRAME
280
1
  9
$HALOGAP
280
0
  9
$OBSCOLOR
 70
257
  9
$OBSLTYPE
280
0
  9
$INTERSECTIONDISPLAY
280
0
  9
$INTERSECTIONCOLOR
 70
257
  9
$DIMASSOC
280
2
  9
$PROJECTNAME
  1

  9
$CAMERADISPLAY
290
0
  9
$LENSLENGTH
 40
50.0
  9
$CAMERAHEIGHT
 40
0.0
  9
$STEPSPERSEC
 40
24.0
  9
$STEPSIZE
 40
100.0
  9
$3DDWFPREC
 40
2.0
  9
$PSOLWIDTH
 40
0.005
  9
$PSOLHEIGHT
 40
0.08
  9
$LOFTANG1
 40
1.570796326795
  9
$LOFTANG2
 40
1.570796326795
  9
$LOFTMAG1
 40
0.0
  9
$LOFTMAG2
 40
0.0
  9
$LOFTPARAM
 70
7
  9
$LOFTNORMALS
280
1
  9
$LATITUDE
 40
37.795
  9
$LONGITUDE
 40
-122.394
  9
$NORTHDIRECTION
 40
0.0
  9
$TIMEZONE
 70
-8000
  9
$LIGHTGLYPHDISPLAY
280
1
  9
$TILEMODELIGHTSYNCH
280
1
  9
$CMATERIAL
347
20
  9
$SOLIDHIST
280
0
  9
$SHOWHIST
280
1
  9
$DWFFRAME
280
2
  9
$DGNFRAME
280
2
  9
$REALWORLDSCALE
290
1
  9
$INTERFERECOLOR
 62
256
  9
$CSHADOW
280
0
  9
$SHADOWPLANELOCATION
 40
0.0
  0
ENDSEC
  0
SECTION
  2
CLASSES
  0
CLASS
  1
ACDBDICTIONARYWDFLT
  2
AcDbDictionaryWithDefault
  3
ObjectDBX Classes
 90
0
 91
0
280
0
281
0
  0
CLASS
  1
SUN
  2
AcDbSun
  3
SCENEOE
 90
1153
 91
0
280
0
281
0
  0
CLASS
  1
VISUALSTYLE
  2
AcDbVisualStyle
  3
ObjectDBX Classes
 90
4095
 91
0
280
0
281
0
  0
CLASS
  1
MATERIAL
  2
AcDbMaterial
  3
ObjectDBX Classes
 90
1153
 91
0
280
0
281
0
  0
CLASS
  1
SCALE
  2
AcDbScale
  3
ObjectDBX Classes
 90
1153
 91
0
280
0
281
0
  0
CLASS
  1
TABLESTYLE
  2
AcDbTableStyle
  3
ObjectDBX Classes
 90
4095
 91
0
280
0
281
0
  0
CLASS
  1
MLEADERSTYLE
  2
AcDbMLeaderStyle
  3
ACDB_MLEADERSTYLE_CLASS
 90
4095
 91
0
280
0
281
0
  0
CLASS
  1
DICTIONARYVAR
  2
AcDbDictionaryVar
  3
ObjectDBX Classes
 90
0
 91
0
280
0
281
0
  0
CLASS
  1
CELLSTYLEMAP
  2
AcDbCellStyleMap
  3
ObjectDBX Classes
 90
1152
 91
0
280
0
281
0
  0
CLASS
  1
MENTALRAYRENDERSETTINGS
  2
AcDbMentalRayRenderSettings
  3
SCENEOE
 90
1024
 91
0
280
0
281
0
  0
CLASS
  1
ACDBDETAILVIEWSTYLE
  2
AcDbDetailViewStyle
  3
ObjectDBX Classes
 90
1025
 91
0
280
0
281
0
  0
CLASS
  1
ACDBSECTIONVIEWSTYLE
  2
AcDbSectionViewStyle
  3
ObjectDBX Classes
 90
1025
 91
0
280
0
281
0
  0
CLASS
  1
RASTERVARIABLES
  2
AcDbRasterVariables
  3
ISM
 90
0
 91
0
280
0
281
0
  0
CLASS
  1
LAYOUT
  2
AcDbLayout
  3
ObjectDBX Classes
 90
0
 91
0
280
0
281
0
  0
CLASS
  1
ACDBPLACEHOLDER
  2
AcDbPlaceHolder
  3
ObjectDBX Classes
 90
0
 91
0
280
0
281
0
  0
ENDSEC
  0
SECTION
  2
TABLES
  0
TABLE
  2
VPORT
  5
8
330
0
100
AcDbSymbolTable
 70
1
  0
VPORT
  5
23
330
8
100
AcDbSymbolTableRecord
100
AcDbViewportTableRecord
  2
*Active
 70
0
 10
0.0
 20
0.0
 11
1.0
 21
1.0
 12
0.0
 22
0.0
 13
0.0
 23
0.0
 14
0.5
 24
0.5
 15
0.5
 25
0.5
 16
0.0
 26
0.0
 36
1.0
 17
0.0
 27
0.0
 37
0.0
 40
1000.0
 41
1.34
 42
50.0
 43
0.0
 44
0.0
 50
0.0
 51
0.0
 71
0
 72
1000
 73
1
 74
3
 75
0
 76
0
 77
0
 78
0
281
0
 65
0
146
0.0
  0
ENDTAB
  0
TABLE
  2
LTYPE
  5
2
330
0
100
AcDbSymbolTable
 70
3
  0
LTYPE
  5
24
330
2
100
AcDbSymbolTableRecord
100
AcDbLinetypeTableRecord
  2
ByBlock
 70
0
  3

 72
65
 73
0
 40
0.0
  0
LTYPE
  5
25
330
2
100
AcDbSymbolTableRecord
100
AcDbLinetypeTableRecord
  2
ByLayer
 70
0
  3

 72
65
 73
0
 40
0.0
  0
LTYPE
  5
26
330
2
100
AcDbSymbolTableRecord
100
AcDbLinetypeTableRecord
  2
Continuous
 70
0
  3

 72
65
 73
0
 40
0.0
  0
ENDTAB
  0
TABLE
  2
LAYER
  5
1
330
0
100
AcDbSymbolTable
 70
13
  0
LAYER
  5
27
330
1
100
AcDbSymbolTableRecord
100
AcDbLayerTableRecord
  2
0
 70
0
 62
7
  6
Continuous
370
-3
390
13
347
21
  0
LAYER
  5
28
330
1
100
AcDbSymbolTableRecord
100
AcDbLayerTableRecord
  2
Defpoints
 70
0
 62
7
  6
Continuous
290
0
370
-3
390
13
347
21
  0
LAYER
  5
2F
330
1
100
AcDbSymbolTableRecord
100
AcDbLayerTableRecord
  2
COTA
 70
0
 62
7
  6
Continuous
370
-3
390
13
347
21
  0
LAYER
  5
30
330
1
100
AcDbSymbolTableRecord
100
AcDbLayerTableRecord
  2
Texto Seção
 70
0
 62
7
  6
Continuous
370
-3
390
13
347
21
  0
LAYER
  5
31
330
1
100
AcDbSymbolTableRecord
100
AcDbLayerTableRecord
  2
Hachura
 70
0
 62
7
  6
Continuous
370
-3
390
13
347
21
  0
LAYER
  5
32
330
1
100
AcDbSymbolTableRecord
100
AcDbLayerTableRecord
  2
Painéis
 70
0
 62
7
  6
Continuous
370
-3
390
13
347
21
  0
LAYER
  5
33
330
1
100
AcDbSymbolTableRecord
100
AcDbLayerTableRecord
  2
Madeira
 70
0
 62
7
  6
Continuous
370
-3
390
13
347
21
  0
LAYER
  5
34
330
1
100
AcDbSymbolTableRecord
100
AcDbLayerTableRecord
  2
SARR_2.2x7
 70
0
 62
7
  6
Continuous
370
-3
390
13
347
21
  0
LAYER
  5
35
330
1
100
AcDbSymbolTableRecord
100
AcDbLayerTableRecord
  2
SARR_3.5x7
 70
0
 62
7
  6
Continuous
370
-3
390
13
347
21
  0
LAYER
  5
36
330
1
100
AcDbSymbolTableRecord
100
AcDbLayerTableRecord
  2
CONCRETO
 70
0
 62
7
  6
Continuous
370
-3
390
13
347
21
  0
LAYER
  5
37
330
1
100
AcDbSymbolTableRecord
100
AcDbLayerTableRecord
  2
5
 70
0
 62
7
  6
Continuous
370
-3
390
13
347
21
  0
LAYER
  5
38
330
1
100
AcDbSymbolTableRecord
100
AcDbLayerTableRecord
  2
REAPROVEITAMENTO
 70
0
 62
7
  6
Continuous
370
-3
390
13
347
21
  0
LAYER
  5
39
330
1
100
AcDbSymbolTableRecord
100
AcDbLayerTableRecord
  2
detalhes
 70
0
 62
7
  6
Continuous
370
-3
390
13
347
21
  0
ENDTAB
  0
TABLE
  2
STYLE
  5
5
330
0
100
AcDbSymbolTable
 70
1
  0
STYLE
  5
29
330
5
100
AcDbSymbolTableRecord
100
AcDbTextStyleTableRecord
  2
Standard
 70
0
 40
0.0
 41
1.0
 50
0.0
 71
0
 42
2.5
  3
txt
  4

  0
ENDTAB
  0
TABLE
  2
VIEW
  5
7
330
0
100
AcDbSymbolTable
 70
0
  0
ENDTAB
  0
TABLE
  2
UCS
  5
6
330
0
100
AcDbSymbolTable
 70
0
  0
ENDTAB
  0
TABLE
  2
APPID
  5
3
330
0
100
AcDbSymbolTable
 70
3
  0
APPID
  5
2A
330
3
100
AcDbSymbolTableRecord
100
AcDbRegAppTableRecord
  2
ACAD
 70
0
  0
APPID
  5
CB
330
3
100
AcDbSymbolTableRecord
100
AcDbRegAppTableRecord
  2
HATCHBACKGROUNDCOLOR
 70
0
  0
APPID
  5
CC
330
3
100
AcDbSymbolTableRecord
100
AcDbRegAppTableRecord
  2
EZDXF
 70
0
  0
ENDTAB
  0
TABLE
  2
DIMSTYLE
  5
4
330
0
100
AcDbSymbolTable
 70
1
100
AcDbDimStyleTable
  0
DIMSTYLE
105
2B
330
4
100
AcDbSymbolTableRecord
100
AcDbDimStyleTableRecord
  2
Standard
 70
0
 40
1.0
 41
2.5
 42
0.625
 43
3.75
 44
1.25
 45
0.0
 46
0.0
 47
0.0
 48
0.0
 49
2.5
140
2.5
141
2.5
142
0.0
143
0.03937007874
144
1.0
145
0.0
146
1.0
147
0.625
148
0.0
 69
0
 70
0
 71
0
 72
0
 73
0
 74
0
 75
0
 76
0
 77
1
 78
8
 79
3
170
0
171
3
172
1
173
0
174
0
175
0
176
0
177
0
178
0
179
2
271
2
272
2
273
2
274
3
275
0
276
0
277
2
278
44
279
0
280
0
281
0
282
0
283
0
284
8
285
0
286
0
288
0
289
3
290
0
371
-2
372
-2
  0
ENDTAB
  0
TABLE
  2
BLOCK_RECORD
  5
9
330
0
100
AcDbSymbolTable
 70
2
  0
BLOCK_RECORD
  5
17
330
9
100
AcDbSymbolTableRecord
100
AcDbBlockTableRecord
  2
*Model_Space
340
1A
 70
0
280
1
281
0
  0
BLOCK_RECORD
  5
1B
330
9
100
AcDbSymbolTableRecord
100
AcDbBlockTableRecord
  2
*Paper_Space
340
1E
 70
0
280
1
281
0
  0
ENDTAB
  0
ENDSEC
  0
SECTION
  2
BLOCKS
  0
BLOCK
  5
18
330
17
100
AcDbEntity
  8
0
100
AcDbBlockBegin
  2
*Model_Space
 70
0
 10
0.0
 20
0.0
 30
0.0
  3
*Model_Space
  1

  0
ENDBLK
  5
19
330
17
100
AcDbEntity
  8
0
100
AcDbBlockEnd
  0
BLOCK
  5
1C
330
1B
100
AcDbEntity
  8
0
100
AcDbBlockBegin
  2
*Paper_Space
 70
0
 10
0.0
 20
0.0
 30
0.0
  3
*Paper_Space
  1

  0
ENDBLK
  5
1D
330
1B
100
AcDbEntity
  8
0
100
AcDbBlockEnd
  0
ENDSEC
  0
SECTION
  2
ENTITIES
  0
LINE
  5
3A
330
17
100
AcDbEntity
  8
Defpoints
 62
7
370
25
100
AcDbLine
 10
3194.744409918
 20
1212.640546364208
 30
0.0
 11
3194.744409918
 21
1337.640546364208
 31
0.0
  0
LINE
  5
3B
330
17
100
AcDbEntity
  8
Painéis
 62
7
370
25
100
AcDbLine
 10
3050.464077492204
 20
995.9648304751199
 30
0.0
 11
3310.464077492206
 21
995.9648304751199
 31
0.0
  0
LINE
  5
3C
330
17
100
AcDbEntity
  8
Painéis
 62
7
370
25
100
AcDbLine
 10
3050.464077492204
 20
936.96483047512
 30
0.0
 11
3310.464077492206
 21
936.96483047512
 31
0.0
  0
LINE
  5
3D
330
17
100
AcDbEntity
  8
Painéis
 62
7
370
25
100
AcDbLine
 10
3050.464077492204
 20
936.96483047512
 30
0.0
 11
3050.464077492204
 21
995.9648304751199
 31
0.0
  0
LINE
  5
3E
330
17
100
AcDbEntity
  8
Painéis
 62
7
370
25
100
AcDbLine
 10
3172.464077492207
 20
936.96483047512
 30
0.0
 11
3172.464077492207
 21
995.9648304751199
 31
0.0
  0
LINE
  5
3F
330
17
100
AcDbEntity
  8
Painéis
 62
7
370
25
100
AcDbLine
 10
3310.464077492206
 20
936.96483047512
 30
0.0
 11
3310.464077492206
 21
995.9648304751199
 31
0.0
  0
LINE
  5
40
330
17
100
AcDbEntity
  8
SARR_2.2x7
 62
7
370
25
100
AcDbLine
 10
3057.464077492201
 20
936.96483047512
 30
0.0
 11
3057.464077492205
 21
995.9648304751199
 31
0.0
  0
LINE
  5
41
330
17
100
AcDbEntity
  8
SARR_2.2x7
 62
7
370
25
100
AcDbLine
 10
3303.464077492207
 20
936.964830475118
 30
0.0
 11
3303.464077492207
 21
995.9648304751199
 31
0.0
  0
LINE
  5
42
330
17
100
AcDbEntity
  8
SARR_2.2x7
 62
7
370
25
100
AcDbLine
 10
3057.464077492205
 20
988.9648304752126
 30
0.0
 11
3172.464077492208
 21
988.9648304752226
 31
0.0
  0
LINE
  5
43
330
17
100
AcDbEntity
  8
SARR_2.2x7
 62
7
370
25
100
AcDbLine
 10
3057.464077492183
 20
963.2619230513956
 30
0.0
 11
3172.464077492208
 21
963.2619230514064
 31
0.0
  0
LINE
  5
44
330
17
100
AcDbEntity
  8
SARR_2.2x7
 62
7
370
25
100
AcDbLine
 10
3057.464077492208
 20
970.2619230510936
 30
0.0
 11
3172.464077492208
 21
970.2619230511091
 31
0.0
  0
LINE
  5
45
330
17
100
AcDbEntity
  8
SARR_2.2x7
 62
7
370
25
100
AcDbLine
 10
3057.464077492205
 20
943.9648304750272
 30
0.0
 11
3172.464077492208
 21
943.9648304750162
 31
0.0
  0
LINE
  5
46
330
17
100
AcDbEntity
  8
SARR_2.2x7
 62
7
370
25
100
AcDbLine
 10
3172.464077492208
 20
988.9648304752071
 30
0.0
 11
3303.464077492207
 21
988.9648304752174
 31
0.0
  0
LINE
  5
47
330
17
100
AcDbEntity
  8
SARR_2.2x7
 62
7
370
25
100
AcDbLine
 10
3172.464077492208
 20
963.2619230513901
 30
0.0
 11
3303.464077492208
 21
963.2619230514
 31
0.0
  0
LINE
  5
48
330
17
100
AcDbEntity
  8
SARR_2.2x7
 62
7
370
25
100
AcDbLine
 10
3172.464077492208
 20
970.2619230510865
 30
0.0
 11
3303.464077492208
 21
970.2619230511
 31
0.0
  0
LINE
  5
49
330
17
100
AcDbEntity
  8
SARR_2.2x7
 62
7
370
25
100
AcDbLine
 10
3172.464077492208
 20
943.9648304750344
 30
0.0
 11
3303.464077492207
 21
943.9648304750244
 31
0.0
  0
LINE
  5
4A
330
17
100
AcDbEntity
  8
Painéis
 62
7
370
25
100
AcDbLine
 10
3050.464077492204
 20
784.783292145369
 30
0.0
 11
3524.464077492206
 21
784.783292145369
 31
0.0
  0
LINE
  5
4B
330
17
100
AcDbEntity
  8
Painéis
 62
7
370
25
100
AcDbLine
 10
3050.464077492204
 20
725.783292145369
 30
0.0
 11
3524.464077492206
 21
725.783292145369
 31
0.0
  0
LINE
  5
4C
330
17
100
AcDbEntity
  8
Painéis
 62
7
370
25
100
AcDbLine
 10
3050.464077492204
 20
725.783292145369
 30
0.0
 11
3050.464077492204
 21
784.783292145369
 31
0.0
  0
LINE
  5
4D
330
17
100
AcDbEntity
  8
Painéis
 62
7
370
25
100
AcDbLine
 10
3294.464077492206
 20
725.783292145369
 30
0.0
 11
3294.464077492206
 21
784.783292145369
 31
0.0
  0
LINE
  5
4E
330
17
100
AcDbEntity
  8
Painéis
 62
7
370
25
100
AcDbLine
 10
3524.464077492206
 20
725.783292145369
 30
0.0
 11
3524.464077492206
 21
784.783292145369
 31
0.0
  0
LINE
  5
4F
330
17
100
AcDbEntity
  8
SARR_2.2x7
 62
7
370
25
100
AcDbLine
 10
3057.464077492201
 20
725.783292145369
 30
0.0
 11
3057.464077492205
 21
784.783292145369
 31
0.0
  0
LINE
  5
50
330
17
100
AcDbEntity
  8
SARR_2.2x7
 62
7
370
25
100
AcDbLine
 10
3517.464077492206
 20
725.7832921453673
 30
0.0
 11
3517.464077492206
 21
784.783292145369
 31
0.0
  0
LINE
  5
51
330
17
100
AcDbEntity
  8
SARR_2.2x7
 62
7
370
25
100
AcDbLine
 10
3057.464077492205
 20
777.7832921454619
 30
0.0
 11
3294.464077492209
 21
777.7832921454719
 31
0.0
  0
LINE
  5
52
330
17
100
AcDbEntity
  8
SARR_2.2x7
 62
7
370
25
100
AcDbLine
 10
3057.464077492183
 20
752.0803847216448
 30
0.0
 11
3294.464077492209
 21
752.0803847216557
 31
0.0
  0
LINE
  5
53
330
17
100
AcDbEntity
  8
SARR_2.2x7
 62
7
370
25
100
AcDbLine
 10
3057.464077492208
 20
759.0803847213429
 30
0.0
 11
3294.464077492209
 21
759.0803847213583
 31
0.0
  0
LINE
  5
54
330
17
100
AcDbEntity
  8
SARR_2.2x7
 62
7
370
25
100
AcDbLine
 10
3057.464077492205
 20
732.7832921452763
 30
0.0
 11
3294.464077492209
 21
732.7832921452654
 31
0.0
  0
LINE
  5
55
330
17
100
AcDbEntity
  8
SARR_2.2x7
 62
7
370
25
100
AcDbLine
 10
3294.464077492209
 20
777.7832921454565
 30
0.0
 11
3517.464077492206
 21
777.7832921454664
 31
0.0
  0
LINE
  5
56
330
17
100
AcDbEntity
  8
SARR_2.2x7
 62
7
370
25
100
AcDbLine
 10
3294.464077492209
 20
752.0803847216393
 30
0.0
 11
3517.464077492209
 21
752.0803847216494
 31
0.0
  0
LINE
  5
57
330
17
100
AcDbEntity
  8
SARR_2.2x7
 62
7
370
25
100
AcDbLine
 10
3294.464077492209
 20
759.0803847213355
 30
0.0
 11
3517.464077492209
 21
759.0803847213492
 31
0.0
  0
LINE
  5
58
330
17
100
AcDbEntity
  8
SARR_2.2x7
 62
7
370
25
100
AcDbLine
 10
3294.464077492209
 20
732.7832921452836
 30
0.0
 11
3517.464077492206
 21
732.7832921452737
 31
0.0
  0
LINE
  5
59
330
17
100
AcDbEntity
  8
Defpoints
 62
7
370
25
100
AcDbLine
 10
4013.207645358256
 20
1212.640546364208
 30
0.0
 11
4013.207645358256
 21
1337.640546364208
 31
0.0
  0
LINE
  5
5A
330
17
100
AcDbEntity
  8
COTA
 62
7
370
25
100
AcDbLine
 10
3651.797007704415
 20
1337.640546364208
 30
0.0
 11
3651.797007704415
 21
566.8840597751049
 31
0.0
  0
LINE
  5
5B
330
17
100
AcDbEntity
  8
SARR_2.2x7
 62
7
370
25
100
AcDbLine
 10
3870.6894937506
 20
951.2553575125403
 30
0.0
 11
3989.689493750601
 21
951.2553575125593
 31
0.0
  0
LINE
  5
5C
330
17
100
AcDbEntity
  8
SARR_2.2x7
 62
7
370
25
100
AcDbLine
 10
3989.689493750601
 20
951.2553575125593
 30
0.0
 11
4056.73463450979
 21
951.2553575122955
 31
0.0
  0
LINE
  5
5D
330
17
100
AcDbEntity
  8
Painéis
 62
7
370
25
100
AcDbLine
 10
3870.689493750597
 20
958.2553575124483
 30
0.0
 11
4063.689493750598
 21
958.2553575124739
 31
0.0
  0
LINE
  5
5E
330
17
100
AcDbEntity
  8
Painéis
 62
7
370
25
100
AcDbLine
 10
3870.689493750602
 20
913.2553575124484
 30
0.0
 11
4063.689493750602
 21
913.2553575124738
 31
0.0
  0
LINE
  5
5F
330
17
100
AcDbEntity
  8
Painéis
 62
7
370
25
100
AcDbLine
 10
4063.689493750602
 20
913.2553575124738
 30
0.0
 11
4063.689493750598
 21
958.2553575124739
 31
0.0
  0
LINE
  5
60
330
17
100
AcDbEntity
  8
Painéis
 62
7
370
25
100
AcDbLine
 10
3870.689493750602
 20
913.2553575124484
 30
0.0
 11
3870.689493750599
 21
958.2553575124483
 31
0.0
  0
LINE
  5
61
330
17
100
AcDbEntity
  8
SARR_2.2x7
 62
7
370
25
100
AcDbLine
 10
3941.689493750607
 20
913.2553575124475
 30
0.0
 11
3941.689493750606
 21
920.2553575123674
 31
0.0
  0
LINE
  5
62
330
17
100
AcDbEntity
  8
SARR_2.2x7
 62
7
370
25
100
AcDbLine
 10
3941.689493750606
 20
932.2553575126002
 30
0.0
 11
3941.689493750605
 21
939.2553575122982
 31
0.0
  0
LINE
  5
63
330
17
100
AcDbEntity
  8
SARR_2.2x7
 62
7
370
25
100
AcDbLine
 10
4056.734634509786
 20
913.2553575124703
 30
0.0
 11
4056.73463450979
 21
958.2553575124483
 31
0.0
  0
LINE
  5
64
330
17
100
AcDbEntity
  8
Painéis
 62
7
370
25
100
AcDbLine
 10
3989.689493750603
 20
913.255357512463
 30
0.0
 11
3989.689493750598
 21
958.2553575124629
 31
0.0
  0
LINE
  5
65
330
17
100
AcDbEntity
  8
COTA
 62
7
370
25
100
AcDbLine
 10
3870.689493750597
 20
958.2553575124483
 30
0.0
 11
3870.689493750597
 21
972.2553575124484
 31
0.0
  0
LINE
  5
66
330
17
100
AcDbEntity
  8
COTA
 62
7
370
25
100
AcDbLine
 10
4063.689493750596
 20
972.2553575124484
 30
0.0
 11
4063.689493750596
 21
958.2553575124739
 31
0.0
  0
LINE
  5
67
330
17
100
AcDbEntity
  8
SARR_2.2x7
 62
7
370
25
100
AcDbLine
 10
3941.689493750607
 20
920.2553575123674
 30
0.0
 11
3989.689493750601
 21
920.2553575123593
 31
0.0
  0
LINE
  5
68
330
17
100
AcDbEntity
  8
SARR_2.2x7
 62
7
370
25
100
AcDbLine
 10
3989.689493750601
 20
920.2553575123593
 30
0.0
 11
4056.73463450979
 21
920.255357512623
 31
0.0
  0
LINE
  5
69
330
17
100
AcDbEntity
  8
COTA
 62
7
370
25
100
AcDbLine
 10
4063.689493750596
 20
972.2553575124484
 30
0.0
 11
3870.689493750597
 21
972.2553575124484
 31
0.0
  0
LINE
  5
6A
330
17
100
AcDbEntity
  8
SARR_2.2x7
 62
7
370
25
100
AcDbLine
 10
3879.151100253543
 20
763.2602449323595
 30
0.0
 11
3994.196241012729
 21
763.2602449323776
 31
0.0
  0
LINE
  5
6B
330
17
100
AcDbEntity
  8
SARR_2.2x7
 62
7
370
25
100
AcDbLine
 10
3994.196241012729
 20
763.2602449323776
 30
0.0
 11
4058.241381771919
 21
763.2602449321138
 31
0.0
  0
LINE
  5
6C
330
17
100
AcDbEntity
  8
Painéis
 62
7
370
25
100
AcDbLine
 10
3872.196241012725
 20
770.2602449322666
 30
0.0
 11
4065.196241012727
 21
770.2602449322922
 31
0.0
  0
LINE
  5
6D
330
17
100
AcDbEntity
  8
Painéis
 62
7
370
25
100
AcDbLine
 10
3872.196241012731
 20
711.2602449322666
 30
0.0
 11
4065.19624101273
 21
711.2602449322922
 31
0.0
  0
LINE
  5
6E
330
17
100
AcDbEntity
  8
Painéis
 62
7
370
25
100
AcDbLine
 10
4065.19624101273
 20
711.2602449322922
 30
0.0
 11
4065.196241012727
 21
770.2602449322922
 31
0.0
  0
LINE
  5
6F
330
17
100
AcDbEntity
  8
Painéis
 62
7
370
25
100
AcDbLine
 10
3872.196241012731
 20
711.2602449322666
 30
0.0
 11
3872.196241012727
 21
770.2602449322666
 31
0.0
  0
LINE
  5
70
330
17
100
AcDbEntity
  8
SARR_2.2x7
 62
7
370
25
100
AcDbLine
 10
3879.151100253547
 20
711.260244932263
 30
0.0
 11
3879.151100253543
 21
770.2602449322666
 31
0.0
  0
LINE
  5
71
330
17
100
AcDbEntity
  8
SARR_2.2x7
 62
7
370
25
100
AcDbLine
 10
4058.241381771915
 20
711.2602449322885
 30
0.0
 11
4058.241381771919
 21
770.2602449322666
 31
0.0
  0
LINE
  5
72
330
17
100
AcDbEntity
  8
Painéis
 62
7
370
25
100
AcDbLine
 10
3994.196241012731
 20
711.2602449322812
 30
0.0
 11
3994.196241012728
 21
770.2602449322812
 31
0.0
  0
LINE
  5
73
330
17
100
AcDbEntity
  8
SARR_2.2x7
 62
7
370
25
100
AcDbLine
 10
3879.151100253543
 20
718.2602449321957
 30
0.0
 11
3994.196241012729
 21
718.2602449321776
 31
0.0
  0
LINE
  5
74
330
17
100
AcDbEntity
  8
SARR_2.2x7
 62
7
370
25
100
AcDbLine
 10
3994.196241012729
 20
718.2602449321776
 30
0.0
 11
4058.241381771919
 21
718.2602449324413
 31
0.0
  0
LINE
  5
75
330
17
100
AcDbEntity
  8
SARR_2.2x7
 62
7
370
25
100
AcDbLine
 10
3994.196241012729
 20
736.1505457744988
 30
0.0
 11
4058.241381771919
 21
736.1505457745034
 31
0.0
  0
LINE
  5
76
330
17
100
AcDbEntity
  8
SARR_2.2x7
 62
7
370
25
100
AcDbLine
 10
3994.196241012728
 20
743.1505457741958
 30
0.0
 11
4058.241381771919
 21
743.1505457742032
 31
0.0
  0
LINE
  5
77
330
17
100
AcDbEntity
  8
SARR_2.2x7
 62
7
370
25
100
AcDbLine
 10
3879.151100253544
 20
736.1505457744869
 30
0.0
 11
3994.196241012731
 21
736.150545774497
 31
0.0
  0
LINE
  5
78
330
17
100
AcDbEntity
  8
SARR_2.2x7
 62
7
370
25
100
AcDbLine
 10
3879.151100253544
 20
743.1505457741841
 30
0.0
 11
3994.196241012731
 21
743.1505457741969
 31
0.0
  0
LINE
  5
79
330
17
100
AcDbEntity
  8
SARR_2.2x7
 62
7
370
25
100
AcDbLine
 10
3941.689493750606
 20
932.2553575126002
 30
0.0
 11
3989.689493750601
 21
932.255357512602
 31
0.0
  0
LINE
  5
7A
330
17
100
AcDbEntity
  8
SARR_2.2x7
 62
7
370
25
100
AcDbLine
 10
3941.689493750605
 20
939.2553575122982
 30
0.0
 11
3989.689493750601
 21
939.2553575123001
 31
0.0
  0
LINE
  5
7B
330
17
100
AcDbEntity
  8
SARR_2.2x7
 62
7
370
25
100
AcDbLine
 10
3989.689493750601
 20
932.255357512614
 30
0.0
 11
4056.734634509786
 21
932.2553575126185
 31
0.0
  0
LINE
  5
7C
330
17
100
AcDbEntity
  8
SARR_2.2x7
 62
7
370
25
100
AcDbLine
 10
3989.689493750598
 20
939.2553575123111
 30
0.0
 11
4056.734634509789
 21
939.2553575123184
 31
0.0
  0
LWPOLYLINE
  5
7D
330
17
100
AcDbEntity
  8
Painéis
 62
7
370
25
100
AcDbPolyline
 90
4
 70
1
 10
3171.744409917996
 20
1212.640546364208
 10
3175.744409917996
 20
1212.640546364208
 10
3175.744409917996
 20
1094.640546364209
 10
3171.744409917996
 20
1094.640546364209
  0
LWPOLYLINE
  5
7E
330
17
100
AcDbEntity
  8
Madeira
 62
7
370
25
100
AcDbPolyline
 90
4
 70
1
 10
3213.744409917996
 20
1094.640546364209
 10
3213.744409917996
 20
1099.040546364203
 10
3199.744409917996
 20
1099.040546364203
 10
3199.744409917996
 20
1094.640546364209
  0
LWPOLYLINE
  5
7F
330
17
100
AcDbEntity
  8
Painéis
 62
7
370
25
100
AcDbPolyline
 90
4
 70
1
 10
3213.744409917996
 20
1099.040546364203
 10
3213.744409917996
 20
1102.640546364209
 10
3175.744409917996
 20
1102.640546364209
 10
3175.744409917996
 20
1099.040546364203
  0
LWPOLYLINE
  5
80
330
17
100
AcDbEntity
  8
Madeira
 62
7
370
25
100
AcDbPolyline
 90
4
 70
1
 10
3175.744409917996
 20
1094.640546364209
 10
3175.744409917996
 20
1099.040546364203
 10
3189.744409917996
 20
1099.040546364203
 10
3189.744409917996
 20
1094.640546364209
  0
LWPOLYLINE
  5
81
330
17
100
AcDbEntity
  8
Painéis
 62
7
370
25
100
AcDbPolyline
 90
4
 70
1
 10
3217.744409918007
 20
1212.640546364208
 10
3213.744409918007
 20
1212.640546364208
 10
3213.744409917996
 20
1094.640546364209
 10
3217.744409917996
 20
1094.640546364209
  0
LWPOLYLINE
  5
82
330
17
100
AcDbEntity
  8
CONCRETO
 62
7
370
25
100
AcDbPolyline
 90
8
 70
1
 10
3175.744409917996
 20
1212.640546364208
 10
3175.744409917996
 20
1212.640546364208
 10
3213.744409918003
 20
1212.640546364208
 10
3213.744409918003
 20
1184.640546364194
 10
3213.744409917996
 20
1184.640546364194
 10
3213.744409917938
 20
1102.640546364209
 10
3175.744409917996
 20
1102.640546364209
 10
3175.744409917996
 20
1212.640546364216
  0
LWPOLYLINE
  5
83
330
17
100
AcDbEntity
  8
Madeira
 62
7
370
25
100
AcDbPolyline
 90
4
 70
1
 10
3171.744409917996
 20
1198.640546364208
 10
3167.344409918002
 20
1198.640546364208
 10
3167.344409918002
 20
1212.640546364208
 10
3171.744409917996
 20
1212.640546364208
  0
LWPOLYLINE
  5
84
330
17
100
AcDbEntity
  8
Madeira
 62
7
370
25
100
AcDbPolyline
 90
4
 70
1
 10
3171.744409917999
 20
1150.610603892514
 10
3167.344409918005
 20
1150.610603892514
 10
3167.344409918005
 20
1164.610603892514
 10
3171.744409917999
 20
1164.610603892514
  0
LWPOLYLINE
  5
85
330
17
100
AcDbEntity
  8
Madeira
 62
7
370
25
100
AcDbPolyline
 90
4
 70
1
 10
3171.744409918007
 20
1094.640546364209
 10
3167.344409918012
 20
1094.640546364209
 10
3167.344409918012
 20
1108.640546364208
 10
3171.744409918007
 20
1108.640546364208
  0
LWPOLYLINE
  5
86
330
17
100
AcDbEntity
  8
Madeira
 62
7
370
25
100
AcDbPolyline
 90
4
 70
1
 10
3217.744409918003
 20
1198.640546364208
 10
3222.144409917997
 20
1198.640546364208
 10
3222.144409917997
 20
1212.640546364208
 10
3217.744409918003
 20
1212.640546364208
  0
LWPOLYLINE
  5
87
330
17
100
AcDbEntity
  8
Madeira
 62
7
370
25
100
AcDbPolyline
 90
4
 70
1
 10
3217.744409918
 20
1150.610603892514
 10
3222.144409917993
 20
1150.610603892514
 10
3222.144409917993
 20
1164.610603892514
 10
3217.744409918
 20
1164.610603892514
  0
LWPOLYLINE
  5
88
330
17
100
AcDbEntity
  8
Madeira
 62
7
370
25
100
AcDbPolyline
 90
4
 70
1
 10
3217.744409917993
 20
1094.640546364209
 10
3222.144409917986
 20
1094.640546364209
 10
3222.144409917986
 20
1108.640546364208
 10
3217.744409917993
 20
1108.640546364208
  0
LWPOLYLINE
  5
89
330
17
100
AcDbEntity
  8
Painéis
 62
7
370
25
100
AcDbPolyline
 90
4
 70
1
 10
3998.007645358259
 20
1184.640546364187
 10
4002.007645358259
 20
1184.640546364187
 10
4002.007645358259
 20
1094.640546364209
 10
3998.007645358259
 20
1094.640546364209
  0
LWPOLYLINE
  5
8A
330
17
100
AcDbEntity
  8
Madeira
 62
7
370
25
100
AcDbPolyline
 90
4
 70
1
 10
4040.007645358258
 20
1094.640546364209
 10
4040.007645358258
 20
1099.040546364203
 10
4030.007645358259
 20
1099.040546364203
 10
4030.007645358259
 20
1094.640546364209
  0
LWPOLYLINE
  5
8B
330
17
100
AcDbEntity
  8
Painéis
 62
7
370
25
100
AcDbPolyline
 90
4
 70
1
 10
4040.007645358258
 20
1099.040546364203
 10
4040.007645358258
 20
1102.640546364209
 10
4002.007645358259
 20
1102.640546364209
 10
4002.007645358259
 20
1099.040546364203
  0
LWPOLYLINE
  5
8C
330
17
100
AcDbEntity
  8
Madeira
 62
7
370
25
100
AcDbPolyline
 90
4
 70
1
 10
4002.007645358259
 20
1094.640546364209
 10
4002.007645358259
 20
1099.040546364203
 10
4012.007645358258
 20
1099.040546364203
 10
4012.007645358258
 20
1094.640546364209
  0
LWPOLYLINE
  5
8D
330
17
100
AcDbEntity
  8
Painéis
 62
7
370
25
100
AcDbPolyline
 90
4
 70
1
 10
4044.007645358269
 20
1212.640546364208
 10
4040.00764535827
 20
1212.640546364208
 10
4040.007645358258
 20
1094.640546364209
 10
4044.007645358258
 20
1094.640546364209
  0
LWPOLYLINE
  5
8E
330
17
100
AcDbEntity
  8
Painéis
 62
7
370
25
100
AcDbPolyline
 90
4
 70
1
 10
4002.007645358259
 20
1184.640546364187
 10
4002.007645358259
 20
1188.640546364187
 10
3946.407645358282
 20
1188.640546364179
 10
3946.407645358282
 20
1184.640546364179
  0
LWPOLYLINE
  5
8F
330
17
100
AcDbEntity
  8
CONCRETO
 62
7
370
25
100
AcDbPolyline
 90
8
 70
1
 10
3946.407645358282
 20
1188.640546364179
 10
3946.407645358282
 20
1212.640546364208
 10
4002.007645358259
 20
1212.640546364208
 10
4002.007645358259
 20
1212.640546364208
 10
4040.0076453582
 20
1212.640546364208
 10
4040.0076453582
 20
1102.640546364209
 10
4002.007645358259
 20
1102.640546364209
 10
4002.007645358259
 20
1188.640546364187
  0
LWPOLYLINE
  5
90
330
17
100
AcDbEntity
  8
Madeira
 62
7
370
25
100
AcDbPolyline
 90
4
 70
1
 10
3993.607645358265
 20
1170.640546364187
 10
3998.007645358259
 20
1170.640546364187
 10
3998.007645358259
 20
1184.640546364187
 10
3993.607645358265
 20
1184.640546364187
  0
LWPOLYLINE
  5
91
330
17
100
AcDbEntity
  8
Madeira
 62
7
370
25
100
AcDbPolyline
 90
4
 70
1
 10
4044.007645358269
 20
1198.640546364208
 10
4048.407645358263
 20
1198.640546364208
 10
4048.407645358263
 20
1212.640546364208
 10
4044.007645358269
 20
1212.640546364208
  0
LWPOLYLINE
  5
92
330
17
100
AcDbEntity
  8
Madeira
 62
7
370
25
100
AcDbPolyline
 90
4
 70
1
 10
4044.007645358264
 20
1150.610603892514
 10
4048.407645358258
 20
1150.610603892514
 10
4048.407645358258
 20
1164.610603892514
 10
4044.007645358264
 20
1164.610603892514
  0
LWPOLYLINE
  5
93
330
17
100
AcDbEntity
  8
Madeira
 62
7
370
25
100
AcDbPolyline
 90
4
 70
1
 10
4044.007645358258
 20
1094.640546364209
 10
4048.407645358253
 20
1094.640546364209
 10
4048.407645358253
 20
1108.640546364208
 10
4044.007645358258
 20
1108.640546364208
  0
LWPOLYLINE
  5
94
330
17
100
AcDbEntity
  8
Madeira
 62
7
370
25
100
AcDbPolyline
 90
4
 70
1
 10
3993.607645358265
 20
1094.640546364209
 10
3998.007645358259
 20
1094.640546364209
 10
3998.007645358259
 20
1108.640546364208
 10
3993.607645358265
 20
1108.640546364208
  0
LWPOLYLINE
  5
95
330
17
100
AcDbEntity
  8
SARR_3.5x7
 62
7
370
25
100
AcDbPolyline
 90
4
 70
1
 10
3153.344409917949
 20
1206.640546364208
 10
3167.344409917949
 20
1206.640546364208
 10
3167.344409918078
 20
1018.162332958402
 10
3153.344409918078
 20
1018.162332958402
  0
LWPOLYLINE
  5
96
330
17
100
AcDbEntity
  8
SARR_3.5x7
 62
7
370
25
100
AcDbPolyline
 90
4
 70
1
 10
3236.144409918236
 20
1206.640546364208
 10
3222.144409918236
 20
1206.640546364208
 10
3222.144409918088
 20
1018.162332958402
 10
3236.144409918088
 20
1018.162332958402
  0
LWPOLYLINE
  5
97
330
17
100
AcDbEntity
  8
SARR_3.5x7
 62
7
370
25
100
AcDbPolyline
 90
4
 70
1
 10
3153.344409917936
 20
1094.640546364209
 10
3236.144409918136
 20
1094.640546364207
 10
3236.144409918136
 20
1064.582484760208
 10
3153.344409917936
 20
1064.58248476021
  0
LWPOLYLINE
  5
98
330
17
100
AcDbEntity
  8
SARR_3.5x7
 62
7
370
25
100
AcDbPolyline
 90
4
 70
1
 10
3979.607645358201
 20
1178.640546364182
 10
3993.607645358201
 20
1178.640546364182
 10
3993.607645358331
 20
1018.162332958402
 10
3979.60764535833
 20
1018.162332958402
  0
LWPOLYLINE
  5
99
330
17
100
AcDbEntity
  8
SARR_3.5x7
 62
7
370
25
100
AcDbPolyline
 90
4
 70
1
 10
4062.407645358487
 20
1206.64054636421
 10
4048.407645358487
 20
1206.64054636421
 10
4048.407645358341
 20
1018.162332958402
 10
4062.40764535834
 20
1018.162332958402
  0
LWPOLYLINE
  5
9A
330
17
100
AcDbEntity
  8
SARR_3.5x7
 62
7
370
25
100
AcDbPolyline
 90
4
 70
1
 10
3979.607645358188
 20
1094.640546364209
 10
4062.407645358387
 20
1094.640546364207
 10
4062.407645358387
 20
1064.582484760208
 10
3979.607645358188
 20
1064.58248476021
  0
LWPOLYLINE
  5
9B
330
17
100
AcDbEntity
  8
Madeira
 62
7
370
25
100
AcDbPolyline
 90
4
 70
1
 10
3993.607645358265
 20
1132.640546364197
 10
3998.007645358259
 20
1132.640546364197
 10
3998.007645358259
 20
1146.640546364197
 10
3993.607645358265
 20
1146.640546364197
  0
TEXT
  5
9C
330
17
100
AcDbEntity
  8
detalhes
 62
7
370
25
100
AcDbText
 10
3222.458893094034
 20
1155.262641940099
 30
0.0
 40
9.600000000000001
  1
b
100
AcDbText
  0
TEXT
  5
9D
330
17
100
AcDbEntity
  8
detalhes
 62
7
370
25
100
AcDbText
 10
3159.915234448297
 20
1155.273699385675
 30
0.0
 40
9.600000000000001
  1
a
100
AcDbText
  0
TEXT
  5
9E
330
17
100
AcDbEntity
  8
detalhes
 62
7
370
25
100
AcDbText
 10
3186.344675533441
 20
1104.876299884047
 30
0.0
 40
9.600000000000001
  1
c
100
AcDbText
  0
TEXT
  5
9F
330
17
100
AcDbEntity
  8
5
 62
7
370
25
100
AcDbText
 10
3051.50594194746
 20
851.5803322343808
 30
0.0
 40
12.0
  1
P27
100
AcDbText
  0
TEXT
  5
A0
330
17
100
AcDbEntity
  8
5
 62
7
370
25
100
AcDbText
 10
3286.818583547201
 20
851.5803322343808
 30
0.0
 40
12.0
  1
V8
100
AcDbText
  0
TEXT
  5
A1
330
17
100
AcDbEntity
  8
Texto Seção
 62
7
370
25
100
AcDbText
 10
3053.464077492176
 20
1005.151205896097
 30
0.0
 40
13.0
  1
V28.A
100
AcDbText
  0
TEXT
  5
A2
330
17
100
AcDbEntity
  8
5
 62
7
370
25
100
AcDbText
 10
3493.265555817652
 20
642.6896969362306
 30
0.0
 40
12.0
  1
P54
100
AcDbText
  0
TEXT
  5
A3
330
17
100
AcDbEntity
  8
5
 62
7
370
25
100
AcDbText
 10
3047.88387927439
 20
642.6896969362306
 30
0.0
 40
12.0
  1
V8
100
AcDbText
  0
TEXT
  5
A4
330
17
100
AcDbEntity
  8
Texto Seção
 62
7
370
25
100
AcDbText
 10
3053.464077492176
 20
793.9696675663463
 30
0.0
 40
13.0
  1
V28.B
100
AcDbText
  0
TEXT
  5
A5
330
17
100
AcDbEntity
  8
detalhes
 62
7
370
25
100
AcDbText
 10
4053.703264902375
 20
1152.863529339586
 30
0.0
 40
9.600000000000001
  1
b
100
AcDbText
  0
TEXT
  5
A6
330
17
100
AcDbEntity
  8
detalhes
 62
7
370
25
100
AcDbText
 10
3987.752551372172
 20
1124.324563088962
 30
0.0
 40
9.600000000000001
  1
a
100
AcDbText
  0
TEXT
  5
A7
330
17
100
AcDbEntity
  8
detalhes
 62
7
370
25
100
AcDbText
 10
4022.607910973703
 20
1104.876299884047
 30
0.0
 40
9.600000000000001
  1
c
100
AcDbText
  0
TEXT
  5
A8
330
17
100
AcDbEntity
  8
5
 62
7
370
25
100
AcDbText
 10
3870.585407426585
 20
840.9297848832947
 30
0.0
 40
12.0
  1
P18
100
AcDbText
  0
TEXT
  5
A9
330
17
100
AcDbEntity
  8
5
 62
7
370
25
100
AcDbText
 10
4035.584415546233
 20
838.7812772496372
 30
0.0
 40
12.0
  1
P27
100
AcDbText
  0
TEXT
  5
AA
330
17
100
AcDbEntity
  8
Texto Seção
 62
7
370
25
100
AcDbText
 10
3873.718919059484
 20
981.9377572479578
 30
0.0
 40
13.0
  1
V29.A
100
AcDbText
  0
TEXT
  5
AB
330
17
100
AcDbEntity
  8
5
 62
7
370
25
100
AcDbText
 10
3872.092154688714
 20
634.2153807562653
 30
0.0
 40
12.0
  1
P27
100
AcDbText
  0
TEXT
  5
AC
330
17
100
AcDbEntity
  8
5
 62
7
370
25
100
AcDbText
 10
4036.40639735403
 20
637.4647703212077
 30
0.0
 40
12.0
  1
P18
100
AcDbText
  0
TEXT
  5
AD
330
17
100
AcDbEntity
  8
Texto Seção
 62
7
370
25
100
AcDbText
 10
3875.225666321613
 20
779.9426446677762
 30
0.0
 40
13.0
  1
V29.B
100
AcDbText
  0
HATCH
  5
AE
330
17
100
AcDbEntity
  8
Hachura
 62
7
100
AcDbHatch
 10
0.0
 20
0.0
 30
0.0
210
0.0
220
0.0
230
1.0
  2
SOLID
 70
1
 71
0
 91
1
 92
3
 72
0
 73
1
 93
8
 10
3175.744409917996
 20
1212.640546364208
 10
3171.744409917996
 20
1212.640546364208
 10
3171.744409917996
 20
1212.640546364208
 10
3171.744409917996
 20
1094.640546364209
 10
3171.744409917996
 20
1094.640546364209
 10
3175.744409917996
 20
1094.640546364209
 10
3175.744409917996
 20
1094.640546364209
 10
3175.744409917996
 20
1212.640546364208
 97
0
 75
1
 76
1
 98
0
  0
HATCH
  5
AF
330
17
100
AcDbEntity
  8
Hachura
 62
7
100
AcDbHatch
 10
0.0
 20
0.0
 30
0.0
210
0.0
220
0.0
230
1.0
  2
SOLID
 70
1
 71
0
 91
1
 92
3
 72
0
 73
1
 93
8
 10
3213.744409917996
 20
1094.640546364209
 10
3213.744409917996
 20
1099.040546364203
 10
3213.744409917996
 20
1099.040546364203
 10
3199.744409917996
 20
1099.040546364203
 10
3199.744409917996
 20
1099.040546364203
 10
3199.744409917996
 20
1094.640546364209
 10
3199.744409917996
 20
1094.640546364209
 10
3213.744409917996
 20
1094.640546364209
 97
0
 75
1
 76
1
 98
0
  0
HATCH
  5
B0
330
17
100
AcDbEntity
  8
Hachura
 62
7
100
AcDbHatch
 10
0.0
 20
0.0
 30
0.0
210
0.0
220
0.0
230
1.0
  2
SOLID
 70
1
 71
0
 91
1
 92
3
 72
0
 73
1
 93
8
 10
3213.744409917996
 20
1099.040546364203
 10
3213.744409917996
 20
1102.640546364209
 10
3213.744409917996
 20
1102.640546364209
 10
3175.744409917996
 20
1102.640546364209
 10
3175.744409917996
 20
1102.640546364209
 10
3175.744409917996
 20
1099.040546364203
 10
3175.744409917996
 20
1099.040546364203
 10
3213.744409917996
 20
1099.040546364203
 97
0
 75
1
 76
1
 98
0
  0
HATCH
  5
B1
330
17
100
AcDbEntity
  8
Hachura
 62
7
100
AcDbHatch
 10
0.0
 20
0.0
 30
0.0
210
0.0
220
0.0
230
1.0
  2
SOLID
 70
1
 71
0
 91
1
 92
3
 72
0
 73
1
 93
8
 10
3175.744409917996
 20
1094.640546364209
 10
3175.744409917996
 20
1099.040546364203
 10
3175.744409917996
 20
1099.040546364203
 10
3189.744409917996
 20
1099.040546364203
 10
3189.744409917996
 20
1099.040546364203
 10
3189.744409917996
 20
1094.640546364209
 10
3189.744409917996
 20
1094.640546364209
 10
3175.744409917996
 20
1094.640546364209
 97
0
 75
1
 76
1
 98
0
  0
HATCH
  5
B2
330
17
100
AcDbEntity
  8
Hachura
 62
7
100
AcDbHatch
 10
0.0
 20
0.0
 30
0.0
210
0.0
220
0.0
230
1.0
  2
SOLID
 70
1
 71
0
 91
1
 92
3
 72
0
 73
1
 93
8
 10
3217.744409917996
 20
1212.640546364208
 10
3213.744409917996
 20
1212.640546364208
 10
3213.744409917996
 20
1212.640546364208
 10
3213.744409917996
 20
1094.640546364209
 10
3213.744409917996
 20
1094.640546364209
 10
3217.744409917996
 20
1094.640546364209
 10
3217.744409917996
 20
1094.640546364209
 10
3217.744409917996
 20
1212.640546364208
 97
0
 75
1
 76
1
 98
0
  0
HATCH
  5
B3
330
17
100
AcDbEntity
  8
Hachura
 62
7
100
AcDbHatch
 10
0.0
 20
0.0
 30
0.0
210
0.0
220
0.0
230
1.0
  2
SOLID
 70
1
 71
0
 91
1
 92
3
 72
0
 73
1
 93
8
 10
3171.744409917996
 20
1198.640546364208
 10
3167.344409918002
 20
1198.640546364208
 10
3167.344409918002
 20
1198.640546364208
 10
3167.344409918002
 20
1212.640546364208
 10
3167.344409918002
 20
1212.640546364208
 10
3171.744409917996
 20
1212.640546364208
 10
3171.744409917996
 20
1212.640546364208
 10
3171.744409917996
 20
1198.640546364208
 97
0
 75
1
 76
1
 98
0
  0
HATCH
  5
B4
330
17
100
AcDbEntity
  8
Hachura
 62
7
100
AcDbHatch
 10
0.0
 20
0.0
 30
0.0
210
0.0
220
0.0
230
1.0
  2
SOLID
 70
1
 71
0
 91
1
 92
3
 72
0
 73
1
 93
8
 10
3171.744409917999
 20
1150.610603892514
 10
3167.344409918005
 20
1150.610603892514
 10
3167.344409918005
 20
1150.610603892514
 10
3167.344409918005
 20
1164.610603892514
 10
3167.344409918005
 20
1164.610603892514
 10
3171.744409917999
 20
1164.610603892514
 10
3171.744409917999
 20
1164.610603892514
 10
3171.744409917999
 20
1150.610603892514
 97
0
 75
1
 76
1
 98
0
  0
HATCH
  5
B5
330
17
100
AcDbEntity
  8
Hachura
 62
7
100
AcDbHatch
 10
0.0
 20
0.0
 30
0.0
210
0.0
220
0.0
230
1.0
  2
SOLID
 70
1
 71
0
 91
1
 92
3
 72
0
 73
1
 93
8
 10
3171.744409918007
 20
1094.640546364209
 10
3167.344409918012
 20
1094.640546364209
 10
3167.344409918012
 20
1094.640546364209
 10
3167.344409918012
 20
1108.640546364208
 10
3167.344409918012
 20
1108.640546364208
 10
3171.744409918007
 20
1108.640546364208
 10
3171.744409918007
 20
1108.640546364208
 10
3171.744409918007
 20
1094.640546364209
 97
0
 75
1
 76
1
 98
0
  0
HATCH
  5
B6
330
17
100
AcDbEntity
  8
Hachura
 62
7
100
AcDbHatch
 10
0.0
 20
0.0
 30
0.0
210
0.0
220
0.0
230
1.0
  2
SOLID
 70
1
 71
0
 91
1
 92
3
 72
0
 73
1
 93
8
 10
3217.744409918003
 20
1198.640546364208
 10
3222.144409917997
 20
1198.640546364208
 10
3222.144409917997
 20
1198.640546364208
 10
3222.144409917997
 20
1212.640546364208
 10
3222.144409917997
 20
1212.640546364208
 10
3217.744409918003
 20
1212.640546364208
 10
3217.744409918003
 20
1212.640546364208
 10
3217.744409918003
 20
1198.640546364208
 97
0
 75
1
 76
1
 98
0
  0
HATCH
  5
B7
330
17
100
AcDbEntity
  8
Hachura
 62
7
100
AcDbHatch
 10
0.0
 20
0.0
 30
0.0
210
0.0
220
0.0
230
1.0
  2
SOLID
 70
1
 71
0
 91
1
 92
3
 72
0
 73
1
 93
8
 10
3217.744409918
 20
1150.610603892514
 10
3222.144409917993
 20
1150.610603892514
 10
3222.144409917993
 20
1150.610603892514
 10
3222.144409917993
 20
1164.610603892514
 10
3222.144409917993
 20
1164.610603892514
 10
3217.744409918
 20
1164.610603892514
 10
3217.744409918
 20
1164.610603892514
 10
3217.744409918
 20
1150.610603892514
 97
0
 75
1
 76
1
 98
0
  0
HATCH
  5
B8
330
17
100
AcDbEntity
  8
Hachura
 62
7
100
AcDbHatch
 10
0.0
 20
0.0
 30
0.0
210
0.0
220
0.0
230
1.0
  2
SOLID
 70
1
 71
0
 91
1
 92
3
 72
0
 73
1
 93
8
 10
3217.744409917993
 20
1094.640546364209
 10
3222.144409917986
 20
1094.640546364209
 10
3222.144409917986
 20
1094.640546364209
 10
3222.144409917986
 20
1108.640546364208
 10
3222.144409917986
 20
1108.640546364208
 10
3217.744409917993
 20
1108.640546364208
 10
3217.744409917993
 20
1108.640546364208
 10
3217.744409917993
 20
1094.640546364209
 97
0
 75
1
 76
1
 98
0
  0
HATCH
  5
B9
330
17
100
AcDbEntity
  8
Hachura
 62
7
100
AcDbHatch
 10
0.0
 20
0.0
 30
0.0
210
0.0
220
0.0
230
1.0
  2
SOLID
 70
1
 71
0
 91
1
 92
3
 72
0
 73
1
 93
8
 10
4002.007645358259
 20
1184.640546364187
 10
3998.007645358259
 20
1184.640546364187
 10
3998.007645358259
 20
1184.640546364187
 10
3998.007645358259
 20
1094.640546364209
 10
3998.007645358259
 20
1094.640546364209
 10
4002.007645358259
 20
1094.640546364209
 10
4002.007645358259
 20
1094.640546364209
 10
4002.007645358259
 20
1184.640546364187
 97
0
 75
1
 76
1
 98
0
  0
HATCH
  5
BA
330
17
100
AcDbEntity
  8
Hachura
 62
7
100
AcDbHatch
 10
0.0
 20
0.0
 30
0.0
210
0.0
220
0.0
230
1.0
  2
SOLID
 70
1
 71
0
 91
1
 92
3
 72
0
 73
1
 93
8
 10
4040.007645358258
 20
1094.640546364209
 10
4040.007645358258
 20
1099.040546364203
 10
4040.007645358258
 20
1099.040546364203
 10
4030.007645358259
 20
1099.040546364203
 10
4030.007645358259
 20
1099.040546364203
 10
4030.007645358259
 20
1094.640546364209
 10
4030.007645358259
 20
1094.640546364209
 10
4040.007645358258
 20
1094.640546364209
 97
0
 75
1
 76
1
 98
0
  0
HATCH
  5
BB
330
17
100
AcDbEntity
  8
Hachura
 62
7
100
AcDbHatch
 10
0.0
 20
0.0
 30
0.0
210
0.0
220
0.0
230
1.0
  2
SOLID
 70
1
 71
0
 91
1
 92
3
 72
0
 73
1
 93
8
 10
4040.007645358258
 20
1099.040546364203
 10
4040.007645358258
 20
1102.640546364209
 10
4040.007645358258
 20
1102.640546364209
 10
4002.007645358259
 20
1102.640546364209
 10
4002.007645358259
 20
1102.640546364209
 10
4002.007645358259
 20
1099.040546364203
 10
4002.007645358259
 20
1099.040546364203
 10
4040.007645358258
 20
1099.040546364203
 97
0
 75
1
 76
1
 98
0
  0
HATCH
  5
BC
330
17
100
AcDbEntity
  8
Hachura
 62
7
100
AcDbHatch
 10
0.0
 20
0.0
 30
0.0
210
0.0
220
0.0
230
1.0
  2
SOLID
 70
1
 71
0
 91
1
 92
3
 72
0
 73
1
 93
8
 10
4002.007645358259
 20
1094.640546364209
 10
4002.007645358259
 20
1099.040546364203
 10
4002.007645358259
 20
1099.040546364203
 10
4012.007645358258
 20
1099.040546364203
 10
4012.007645358258
 20
1099.040546364203
 10
4012.007645358258
 20
1094.640546364209
 10
4012.007645358258
 20
1094.640546364209
 10
4002.007645358259
 20
1094.640546364209
 97
0
 75
1
 76
1
 98
0
  0
HATCH
  5
BD
330
17
100
AcDbEntity
  8
Hachura
 62
7
100
AcDbHatch
 10
0.0
 20
0.0
 30
0.0
210
0.0
220
0.0
230
1.0
  2
SOLID
 70
1
 71
0
 91
1
 92
3
 72
0
 73
1
 93
8
 10
4044.007645358258
 20
1212.640546364208
 10
4040.007645358258
 20
1212.640546364208
 10
4040.007645358258
 20
1212.640546364208
 10
4040.007645358258
 20
1094.640546364209
 10
4040.007645358258
 20
1094.640546364209
 10
4044.007645358258
 20
1094.640546364209
 10
4044.007645358258
 20
1094.640546364209
 10
4044.007645358258
 20
1212.640546364208
 97
0
 75
1
 76
1
 98
0
  0
HATCH
  5
BE
330
17
100
AcDbEntity
  8
Hachura
 62
7
100
AcDbHatch
 10
0.0
 20
0.0
 30
0.0
210
0.0
220
0.0
230
1.0
  2
SOLID
 70
1
 71
0
 91
1
 92
3
 72
0
 73
1
 93
8
 10
4002.007645358259
 20
1184.640546364187
 10
4002.007645358259
 20
1188.640546364187
 10
4002.007645358259
 20
1188.640546364187
 10
3946.407645358282
 20
1188.640546364179
 10
3946.407645358282
 20
1188.640546364179
 10
3946.407645358282
 20
1184.640546364179
 10
3946.407645358282
 20
1184.640546364179
 10
4002.007645358259
 20
1184.640546364187
 97
0
 75
1
 76
1
 98
0
  0
HATCH
  5
BF
330
17
100
AcDbEntity
  8
Hachura
 62
7
100
AcDbHatch
 10
0.0
 20
0.0
 30
0.0
210
0.0
220
0.0
230
1.0
  2
SOLID
 70
1
 71
0
 91
1
 92
3
 72
0
 73
1
 93
8
 10
3993.607645358265
 20
1170.640546364187
 10
3998.007645358259
 20
1170.640546364187
 10
3998.007645358259
 20
1170.640546364187
 10
3998.007645358259
 20
1184.640546364187
 10
3998.007645358259
 20
1184.640546364187
 10
3993.607645358265
 20
1184.640546364187
 10
3993.607645358265
 20
1184.640546364187
 10
3993.607645358265
 20
1170.640546364187
 97
0
 75
1
 76
1
 98
0
  0
HATCH
  5
C0
330
17
100
AcDbEntity
  8
Hachura
 62
7
100
AcDbHatch
 10
0.0
 20
0.0
 30
0.0
210
0.0
220
0.0
230
1.0
  2
SOLID
 70
1
 71
0
 91
1
 92
3
 72
0
 73
1
 93
8
 10
4044.007645358269
 20
1198.640546364208
 10
4048.407645358263
 20
1198.640546364208
 10
4048.407645358263
 20
1198.640546364208
 10
4048.407645358263
 20
1212.640546364208
 10
4048.407645358263
 20
1212.640546364208
 10
4044.007645358269
 20
1212.640546364208
 10
4044.007645358269
 20
1212.640546364208
 10
4044.007645358269
 20
1198.640546364208
 97
0
 75
1
 76
1
 98
0
  0
HATCH
  5
C1
330
17
100
AcDbEntity
  8
Hachura
 62
7
100
AcDbHatch
 10
0.0
 20
0.0
 30
0.0
210
0.0
220
0.0
230
1.0
  2
SOLID
 70
1
 71
0
 91
1
 92
3
 72
0
 73
1
 93
8
 10
4044.007645358264
 20
1150.610603892514
 10
4048.407645358258
 20
1150.610603892514
 10
4048.407645358258
 20
1150.610603892514
 10
4048.407645358258
 20
1164.610603892514
 10
4048.407645358258
 20
1164.610603892514
 10
4044.007645358264
 20
1164.610603892514
 10
4044.007645358264
 20
1164.610603892514
 10
4044.007645358264
 20
1150.610603892514
 97
0
 75
1
 76
1
 98
0
  0
HATCH
  5
C2
330
17
100
AcDbEntity
  8
Hachura
 62
7
100
AcDbHatch
 10
0.0
 20
0.0
 30
0.0
210
0.0
220
0.0
230
1.0
  2
SOLID
 70
1
 71
0
 91
1
 92
3
 72
0
 73
1
 93
8
 10
4044.007645358258
 20
1094.640546364209
 10
4048.407645358253
 20
1094.640546364209
 10
4048.407645358253
 20
1094.640546364209
 10
4048.407645358253
 20
1108.640546364208
 10
4048.407645358253
 20
1108.640546364208
 10
4044.007645358258
 20
1108.640546364208
 10
4044.007645358258
 20
1108.640546364208
 10
4044.007645358258
 20
1094.640546364209
 97
0
 75
1
 76
1
 98
0
  0
HATCH
  5
C3
330
17
100
AcDbEntity
  8
Hachura
 62
7
100
AcDbHatch
 10
0.0
 20
0.0
 30
0.0
210
0.0
220
0.0
230
1.0
  2
SOLID
 70
1
 71
0
 91
1
 92
3
 72
0
 73
1
 93
8
 10
3993.607645358265
 20
1094.640546364209
 10
3998.007645358259
 20
1094.640546364209
 10
3998.007645358259
 20
1094.640546364209
 10
3998.007645358259
 20
1108.640546364208
 10
3998.007645358259
 20
1108.640546364208
 10
3993.607645358265
 20
1108.640546364208
 10
3993.607645358265
 20
1108.640546364208
 10
3993.607645358265
 20
1094.640546364209
 97
0
 75
1
 76
1
 98
0
  0
HATCH
  5
C4
330
17
100
AcDbEntity
  8
COTA
 62
7
100
AcDbHatch
 10
0.0
 20
0.0
 30
0.0
210
0.0
220
0.0
230
1.0
  2
SOLID
 70
1
 71
0
 91
1
 92
3
 72
0
 73
1
 93
8
 10
4063.689493750596
 20
958.2553575124657
 10
4063.689493750596
 20
972.2553575124502
 10
4063.689493750596
 20
972.2553575124502
 10
3870.564493750597
 20
972.2553575124457
 10
3870.564493750597
 20
972.2553575124457
 10
3870.814493750597
 20
958.2553575124512
 10
3870.814493750597
 20
958.2553575124512
 10
4063.689493750596
 20
958.2553575124657
 97
0
 75
1
 76
1
 98
0
  0
HATCH
  5
C5
330
17
100
AcDbEntity
  8
Hachura
 62
7
100
AcDbHatch
 10
0.0
 20
0.0
 30
0.0
210
0.0
220
0.0
230
1.0
  2
SOLID
 70
1
 71
0
 91
1
 92
3
 72
0
 73
1
 93
8
 10
3993.607645358265
 20
1132.640546364197
 10
3998.007645358259
 20
1132.640546364197
 10
3998.007645358259
 20
1132.640546364197
 10
3998.007645358259
 20
1146.640546364197
 10
3998.007645358259
 20
1146.640546364197
 10
3993.607645358265
 20
1146.640546364197
 10
3993.607645358265
 20
1146.640546364197
 10
3993.607645358265
 20
1132.640546364197
 97
0
 75
1
 76
1
 98
0
  0
HATCH
  5
C6
330
17
100
AcDbEntity
  8
REAPROVEITAMENTO
 62
7
100
AcDbHatch
 10
0.0
 20
0.0
 30
0.0
210
0.0
220
0.0
230
1.0
  2
SOLID
 70
1
 71
0
 91
1
 92
3
 72
0
 73
1
 93
9
 10
3310.464077492206
 20
936.9648304751244
 10
3310.464077492206
 20
995.9648304751281
 10
3310.464077492206
 20
995.9648304751281
 10
3050.464077492216
 20
995.9648304751199
 10
3050.464077492216
 20
995.9648304751199
 10
3050.464077492217
 20
936.9648304751153
 10
3050.464077492217
 20
936.9648304751153
 10
3310.464077492206
 20
936.9648304751234
 10
3310.464077492206
 20
936.9648304751244
 97
0
 75
1
 76
1
 98
0
  0
HATCH
  5
C7
330
17
100
AcDbEntity
  8
REAPROVEITAMENTO
 62
7
100
AcDbHatch
 10
0.0
 20
0.0
 30
0.0
210
0.0
220
0.0
230
1.0
  2
SOLID
 70
1
 71
0
 91
1
 92
3
 72
0
 73
1
 93
9
 10
3524.464077492206
 20
725.7832921453736
 10
3524.464077492206
 20
784.7832921453773
 10
3524.464077492206
 20
784.7832921453773
 10
3050.464077492216
 20
784.783292145369
 10
3050.464077492216
 20
784.783292145369
 10
3050.464077492217
 20
725.7832921453646
 10
3050.464077492217
 20
725.7832921453646
 10
3524.464077492206
 20
725.7832921453728
 10
3524.464077492206
 20
725.7832921453736
 97
0
 75
1
 76
1
 98
0
  0
HATCH
  5
C8
330
17
100
AcDbEntity
  8
REAPROVEITAMENTO
 62
7
100
AcDbHatch
 10
0.0
 20
0.0
 30
0.0
210
0.0
220
0.0
230
1.0
  2
SOLID
 70
1
 71
0
 91
1
 92
3
 72
0
 73
1
 93
8
 10
4063.689493750602
 20
913.2553575124738
 10
4063.689493750598
 20
958.2553575124657
 10
4063.689493750598
 20
958.2553575124657
 10
3989.68949375061
 20
958.2553575124638
 10
3989.68949375061
 20
958.2553575124629
 10
3989.689493750611
 20
913.2553575124639
 10
3989.689493750611
 20
913.2553575124639
 10
4063.689493750602
 20
913.2553575124738
 97
0
 75
1
 76
1
 98
0
  0
HATCH
  5
C9
330
17
100
AcDbEntity
  8
REAPROVEITAMENTO
 62
7
100
AcDbHatch
 10
0.0
 20
0.0
 30
0.0
210
0.0
220
0.0
230
1.0
  2
SOLID
 70
1
 71
0
 91
1
 92
3
 72
0
 73
1
 93
9
 10
4065.19624101273
 20
711.2602449322685
 10
4065.196241012727
 20
770.260244932273
 10
4065.196241012727
 20
770.260244932273
 10
3872.196241012738
 20
770.2602449322657
 10
3872.196241012738
 20
770.2602449322666
 10
3872.19624101274
 20
711.2602449322621
 10
3872.19624101274
 20
711.2602449322621
 10
4065.19624101273
 20
711.2602449322675
 10
4065.19624101273
 20
711.2602449322685
 97
0
 75
1
 76
1
 98
0
  0
LINE
  5
CA
330
17
100
AcDbEntity
  8
0
 62
7
370
25
100
AcDbLine
 10
3317.380615814327
 20
367.64054636421497
 30
0.0
 11
3317.380615814327
 21
566.8840597751041
 31
0.0
  0
ENDSEC
  0
SECTION
  2
OBJECTS
  0
DICTIONARY
  5
A
330
0
100
AcDbDictionary
281
1
  3
ACAD_COLOR
350
B
  3
ACAD_GROUP
350
C
  3
ACAD_LAYOUT
350
D
  3
ACAD_MATERIAL
350
E
  3
ACAD_MLEADERSTYLE
350
F
  3
ACAD_MLINESTYLE
350
10
  3
ACAD_PLOTSETTINGS
350
11
  3
ACAD_PLOTSTYLENAME
350
12
  3
ACAD_SCALELIST
350
14
  3
ACAD_TABLESTYLE
350
15
  3
ACAD_VISUALSTYLE
350
16
  3
EZDXF_META
350
2D
  0
DICTIONARY
  5
B
330
A
100
AcDbDictionary
281
1
  0
DICTIONARY
  5
C
330
A
100
AcDbDictionary
281
1
  0
DICTIONARY
  5
D
330
A
100
AcDbDictionary
281
1
  3
Model
350
1A
  3
Layout1
350
1E
  0
DICTIONARY
  5
E
330
A
100
AcDbDictionary
281
1
  3
ByBlock
350
1F
  3
ByLayer
350
20
  3
Global
350
21
  0
DICTIONARY
  5
F
330
A
100
AcDbDictionary
281
1
  3
Standard
350
2C
  0
DICTIONARY
  5
10
330
A
100
AcDbDictionary
281
1
  3
Standard
350
22
  0
DICTIONARY
  5
11
330
A
100
AcDbDictionary
281
1
  0
ACDBDICTIONARYWDFLT
  5
12
330
A
100
AcDbDictionary
281
1
  3
Normal
350
13
100
AcDbDictionaryWithDefault
340
13
  0
ACDBPLACEHOLDER
  5
13
330
12
  0
DICTIONARY
  5
14
330
A
100
AcDbDictionary
281
1
  0
DICTIONARY
  5
15
330
A
100
AcDbDictionary
281
1
  0
DICTIONARY
  5
16
330
A
100
AcDbDictionary
281
1
  0
LAYOUT
  5
1A
330
D
100
AcDbPlotSettings
  1

  4
A3
  6

 40
7.5
 41
20.0
 42
7.5
 43
20.0
 44
420.0
 45
297.0
 46
0.0
 47
0.0
 48
0.0
 49
0.0
140
0.0
141
0.0
142
1.0
143
1.0
 70
1024
 72
1
 73
0
 74
5
  7

 75
16
 76
0
 77
2
 78
300
147
1.0
148
0.0
149
0.0
100
AcDbLayout
  1
Model
 70
1
 71
0
 10
0.0
 20
0.0
 11
420.0
 21
297.0
 12
0.0
 22
0.0
 32
0.0
 14
1e+20
 24
1e+20
 34
1e+20
 15
-1e+20
 25
-1e+20
 35
-1e+20
146
0.0
 13
0.0
 23
0.0
 33
0.0
 16
1.0
 26
0.0
 36
0.0
 17
0.0
 27
1.0
 37
0.0
 76
1
330
17
  0
LAYOUT
  5
1E
330
D
100
AcDbPlotSettings
  1

  4
A3
  6

 40
7.5
 41
20.0
 42
7.5
 43
20.0
 44
420.0
 45
297.0
 46
0.0
 47
0.0
 48
0.0
 49
0.0
140
0.0
141
0.0
142
1.0
143
1.0
 70
0
 72
1
 73
0
 74
5
  7

 75
16
 76
0
 77
2
 78
300
147
1.0
148
0.0
149
0.0
100
AcDbLayout
  1
Layout1
 70
1
 71
1
 10
0.0
 20
0.0
 11
420.0
 21
297.0
 12
0.0
 22
0.0
 32
0.0
 14
1e+20
 24
1e+20
 34
1e+20
 15
-1e+20
 25
-1e+20
 35
-1e+20
146
0.0
 13
0.0
 23
0.0
 33
0.0
 16
1.0
 26
0.0
 36
0.0
 17
0.0
 27
1.0
 37
0.0
 76
1
330
1B
  0
MATERIAL
  5
1F
102
{ACAD_REACTORS
330
E
102
}
330
E
100
AcDbMaterial
  1
ByBlock
  2

 70
0
 40
1.0
 71
1
 41
1.0
 91
-1023410177
 42
1.0
 72
1
  3

 73
1
 74
1
 75
1
 44
0.5
 73
0
 45
1.0
 46
1.0
 77
1
  4

 78
1
 79
1
170
1
 48
1.0
171
1
  6

172
1
173
1
174
1
140
1.0
141
1.0
175
1
  7

176
1
177
1
178
1
143
1.0
179
1
  8

270
1
271
1
272
1
145
1.0
146
1.0
273
1
  9

274
1
275
1
276
1
 42
1.0
 72
1
  3

 73
1
 74
1
 75
1
 94
63
  0
MATERIAL
  5
20
102
{ACAD_REACTORS
330
E
102
}
330
E
100
AcDbMaterial
  1
ByLayer
  2

 70
0
 40
1.0
 71
1
 41
1.0
 91
-1023410177
 42
1.0
 72
1
  3

 73
1
 74
1
 75
1
 44
0.5
 73
0
 45
1.0
 46
1.0
 77
1
  4

 78
1
 79
1
170
1
 48
1.0
171
1
  6

172
1
173
1
174
1
140
1.0
141
1.0
175
1
  7

176
1
177
1
178
1
143
1.0
179
1
  8

270
1
271
1
272
1
145
1.0
146
1.0
273
1
  9

274
1
275
1
276
1
 42
1.0
 72
1
  3

 73
1
 74
1
 75
1
 94
63
  0
MATERIAL
  5
21
102
{ACAD_REACTORS
330
E
102
}
330
E
100
AcDbMaterial
  1
Global
  2

 70
0
 40
1.0
 71
1
 41
1.0
 91
-1023410177
 42
1.0
 72
1
  3

 73
1
 74
1
 75
1
 44
0.5
 73
0
 45
1.0
 46
1.0
 77
1
  4

 78
1
 79
1
170
1
 48
1.0
171
1
  6

172
1
173
1
174
1
140
1.0
141
1.0
175
1
  7

176
1
177
1
178
1
143
1.0
179
1
  8

270
1
271
1
272
1
145
1.0
146
1.0
273
1
  9

274
1
275
1
276
1
 42
1.0
 72
1
  3

 73
1
 74
1
 75
1
 94
63
  0
MLINESTYLE
  5
22
102
{ACAD_REACTORS
330
10
102
}
330
10
100
AcDbMlineStyle
  2
Standard
 70
0
  3

 62
256
 51
90.0
 52
90.0
 71
2
 49
0.5
 62
256
  6
BYLAYER
 49
-0.5
 62
256
  6
BYLAYER
  0
MLEADERSTYLE
  5
2C
102
{ACAD_REACTORS
330
F
102
}
330
F
100
AcDbMLeaderStyle
179
2
170
2
171
1
172
0
 90
2
 40
0.0
 41
0.0
173
1
 91
-1056964608
 92
-2
290
1
 42
2.0
291
1
 43
8.0
  3
Standard
 44
4.0
300

342
29
174
1
175
1
176
0
178
1
 93
-1056964608
 45
4.0
292
0
297
0
 46
4.0
 94
-1056964608
 47
1.0
 49
1.0
140
1.0
294
1
141
0.0
177
0
142
1.0
295
0
296
0
143
3.75
271
0
272
9
273
9
  0
DICTIONARY
  5
2D
330
A
100
AcDbDictionary
280
1
281
1
  3
CREATED_BY_EZDXF
350
2E
  3
WRITTEN_BY_EZDXF
350
CD
  0
DICTIONARYVAR
  5
2E
330
2D
100
DictionaryVariables
280
0
  1
1.4.3 @ 2026-06-10T16:54:15.405210+00:00
  0
DICTIONARYVAR
  5
CD
330
2D
100
DictionaryVariables
280
0
  1
1.4.3 @ 2026-06-10T16:54:15.411560+00:00
  0
ENDSEC
  0
EOF
