  0
SECTION
  2
HEADER
  9
$ACADVER
  1
AC1024
  9
$ACADMAINTVER
 70
6
  9
$DWGCODEPAGE
  3
ANSI_1252
  9
$LASTSAVEDBY
  1
ezdxf
  9
$INSBASE
 10
0.0
 20
0.0
 30
0.0
  9
$EXTMIN
 10
1e+20
 20
1e+20
 30
1e+20
  9
$EXTMAX
 10
-1e+20
 20
-1e+20
 30
-1e+20
  9
$LIMMIN
 10
0.0
 20
0.0
  9
$LIMMAX
 10
420.0
 20
297.0
  9
$ORTHOMODE
 70
0
  9
$REGENMODE
 70
1
  9
$FILLMODE
 70
1
  9
$QTEXTMODE
 70
0
  9
$MIRRTEXT
 70
1
  9
$LTSCALE
 40
1.0
  9
$ATTMODE
 70
1
  9
$TEXTSIZE
 40
2.5
  9
$TRACEWID
 40
1.0
  9
$TEXTSTYLE
  7
Standard
  9
$CLAYER
  8
0
  9
$CELTYPE
  6
ByLayer
  9
$CECOLOR
 62
256
  9
$CELTSCALE
 40
1.0
  9
$DISPSILH
 70
0
  9
$DIMSCALE
 40
1.0
  9
$DIMASZ
 40
2.5
  9
$DIMEXO
 40
0.625
  9
$DIMDLI
 40
3.75
  9
$DIMRND
 40
0.0
  9
$DIMDLE
 40
0.0
  9
$DIMEXE
 40
1.25
  9
$DIMTP
 40
0.0
  9
$DIMTM
 40
0.0
  9
$DIMTXT
 40
2.5
  9
$DIMCEN
 40
2.5
  9
$DIMTSZ
 40
0.0
  9
$DIMTOL
 70
0
  9
$DIMLIM
 70
0
  9
$DIMTIH
 70
0
  9
$DIMTOH
 70
0
  9
$DIMSE1
 70
0
  9
$DIMSE2
 70
0
  9
$DIMTAD
 70
1
  9
$DIMZIN
 70
8
  9
$DIMBLK
  1

  9
$DIMASO
 70
1
  9
$DIMSHO
 70
1
  9
$DIMPOST
  1

  9
$DIMAPOST
  1

  9
$DIMALT
 70
0
  9
$DIMALTD
 70
3
  9
$DIMALTF
 40
0.03937007874
  9
$DIMLFAC
 40
1.0
  9
$DIMTOFL
 70
1
  9
$DIMTVP
 40
0.0
  9
$DIMTIX
 70
0
  9
$DIMSOXD
 70
0
  9
$DIMSAH
 70
0
  9
$DIMBLK1
  1

  9
$DIMBLK2
  1

  9
$DIMSTYLE
  2
ISO-25
  9
$DIMCLRD
 70
0
  9
$DIMCLRE
 70
0
  9
$DIMCLRT
 70
0
  9
$DIMTFAC
 40
1.0
  9
$DIMGAP
 40
0.625
  9
$DIMJUST
 70
0
  9
$DIMSD1
 70
0
  9
$DIMSD2
 70
0
  9
$DIMTOLJ
 70
0
  9
$DIMTZIN
 70
8
  9
$DIMALTZ
 70
0
  9
$DIMALTTZ
 70
0
  9
$DIMUPT
 70
0
  9
$DIMDEC
 70
2
  9
$DIMTDEC
 70
2
  9
$DIMALTU
 70
2
  9
$DIMALTTD
 70
3
  9
$DIMTXSTY
  7
Standard
  9
$DIMAUNIT
 70
0
  9
$DIMADEC
 70
0
  9
$DIMALTRND
 40
0.0
  9
$DIMAZIN
 70
0
  9
$DIMDSEP
 70
44
  9
$DIMATFIT
 70
3
  9
$DIMFRAC
 70
0
  9
$DIMLDRBLK
  1

  9
$DIMLUNIT
 70
2
  9
$DIMLWD
 70
-2
  9
$DIMLWE
 70
-2
  9
$DIMTMOVE
 70
0
  9
$DIMFXL
 40
1.0
  9
$DIMFXLON
 70
0
  9
$DIMJOGANG
 40
0.785398163397
  9
$DIMTFILL
 70
0
  9
$DIMTFILLCLR
 70
0
  9
$DIMARCSYM
 70
0
  9
$DIMLTYPE
  6

  9
$DIMLTEX1
  6

  9
$DIMLTEX2
  6

  9
$DIMTXTDIRECTION
 70
0
  9
$LUNITS
 70
2
  9
$LUPREC
 70
4
  9
$SKETCHINC
 40
1.0
  9
$FILLETRAD
 40
10.0
  9
$AUNITS
 70
0
  9
$AUPREC
 70
2
  9
$MENU
  1
.
  9
$ELEVATION
 40
0.0
  9
$PELEVATION
 40
0.0
  9
$THICKNESS
 40
0.0
  9
$LIMCHECK
 70
0
  9
$CHAMFERA
 40
0.0
  9
$CHAMFERB
 40
0.0
  9
$CHAMFERC
 40
0.0
  9
$CHAMFERD
 40
0.0
  9
$SKPOLY
 70
0
  9
$TDCREATE
 40
2461202.057939815
  9
$TDUCREATE
 40
2458532.153996898
  9
$TDUPDATE
 40
2461202.057939815
  9
$TDUUPDATE
 40
2458532.1544311
  9
$TDINDWG
 40
0.0
  9
$TDUSRTIMER
 40
0.0
  9
$USRTIMER
 70
1
  9
$ANGBASE
 50
0.0
  9
$ANGDIR
 70
0
  9
$PDMODE
 70
0
  9
$PDSIZE
 40
0.0
  9
$PLINEWID
 40
0.0
  9
$SPLFRAME
 70
0
  9
$SPLINETYPE
 70
6
  9
$SPLINESEGS
 70
8
  9
$HANDSEED
  5
1F8
  9
$SURFTAB1
 70
6
  9
$SURFTAB2
 70
6
  9
$SURFTYPE
 70
6
  9
$SURFU
 70
6
  9
$SURFV
 70
6
  9
$UCSBASE
  2

  9
$UCSNAME
  2

  9
$UCSORG
 10
0.0
 20
0.0
 30
0.0
  9
$UCSXDIR
 10
1.0
 20
0.0
 30
0.0
  9
$UCSYDIR
 10
0.0
 20
1.0
 30
0.0
  9
$UCSORTHOREF
  2

  9
$UCSORTHOVIEW
 70
0
  9
$UCSORGTOP
 10
0.0
 20
0.0
 30
0.0
  9
$UCSORGBOTTOM
 10
0.0
 20
0.0
 30
0.0
  9
$UCSORGLEFT
 10
0.0
 20
0.0
 30
0.0
  9
$UCSORGRIGHT
 10
0.0
 20
0.0
 30
0.0
  9
$UCSORGFRONT
 10
0.0
 20
0.0
 30
0.0
  9
$UCSORGBACK
 10
0.0
 20
0.0
 30
0.0
  9
$PUCSBASE
  2

  9
$PUCSNAME
  2

  9
$PUCSORG
 10
0.0
 20
0.0
 30
0.0
  9
$PUCSXDIR
 10
1.0
 20
0.0
 30
0.0
  9
$PUCSYDIR
 10
0.0
 20
1.0
 30
0.0
  9
$PUCSORTHOREF
  2

  9
$PUCSORTHOVIEW
 70
0
  9
$PUCSORGTOP
 10
0.0
 20
0.0
 30
0.0
  9
$PUCSORGBOTTOM
 10
0.0
 20
0.0
 30
0.0
  9
$PUCSORGLEFT
 10
0.0
 20
0.0
 30
0.0
  9
$PUCSORGRIGHT
 10
0.0
 20
0.0
 30
0.0
  9
$PUCSORGFRONT
 10
0.0
 20
0.0
 30
0.0
  9
$PUCSORGBACK
 10
0.0
 20
0.0
 30
0.0
  9
$USERI1
 70
0
  9
$USERI2
 70
0
  9
$USERI3
 70
0
  9
$USERI4
 70
0
  9
$USERI5
 70
0
  9
$USERR1
 40
0.0
  9
$USERR2
 40
0.0
  9
$USERR3
 40
0.0
  9
$USERR4
 40
0.0
  9
$USERR5
 40
0.0
  9
$WORLDVIEW
 70
1
  9
$SHADEDGE
 70
3
  9
$SHADEDIF
 70
70
  9
$TILEMODE
 70
1
  9
$MAXACTVP
 70
64
  9
$PINSBASE
 10
0.0
 20
0.0
 30
0.0
  9
$PLIMCHECK
 70
0
  9
$PEXTMIN
 10
1e+20
 20
1e+20
 30
1e+20
  9
$PEXTMAX
 10
-1e+20
 20
-1e+20
 30
-1e+20
  9
$PLIMMIN
 10
0.0
 20
0.0
  9
$PLIMMAX
 10
420.0
 20
297.0
  9
$UNITMODE
 70
0
  9
$VISRETAIN
 70
1
  9
$PLINEGEN
 70
0
  9
$PSLTSCALE
 70
1
  9
$TREEDEPTH
 70
3020
  9
$CMLSTYLE
  2
Standard
  9
$CMLJUST
 70
0
  9
$CMLSCALE
 40
20.0
  9
$PROXYGRAPHICS
 70
1
  9
$MEASUREMENT
 70
1
  9
$CELWEIGHT
370
-1
  9
$ENDCAPS
280
0
  9
$JOINSTYLE
280
0
  9
$LWDISPLAY
290
0
  9
$INSUNITS
 70
6
  9
$HYPERLINKBASE
  1

  9
$STYLESHEET
  1

  9
$XEDIT
290
1
  9
$CEPSNTYPE
380
0
  9
$PSTYLEMODE
290
1
  9
$FINGERPRINTGUID
  2
{1AADBC00-F45C-49DC-B5B0-877298E80269}
  9
$VERSIONGUID
  2
{F58AC0A6-90E3-4FC5-9A6D-B6DC4B147285}
  9
$EXTNAMES
290
1
  9
$PSVPSCALE
 40
0.0
  9
$OLESTARTUP
290
0
  9
$SORTENTS
280
127
  9
$INDEXCTL
280
0
  9
$HIDETEXT
280
1
  9
$XCLIPFRAME
280
1
  9
$HALOGAP
280
0
  9
$OBSCOLOR
 70
257
  9
$OBSLTYPE
280
0
  9
$INTERSECTIONDISPLAY
280
0
  9
$INTERSECTIONCOLOR
 70
257
  9
$DIMASSOC
280
2
  9
$PROJECTNAME
  1

  9
$CAMERADISPLAY
290
0
  9
$LENSLENGTH
 40
50.0
  9
$CAMERAHEIGHT
 40
0.0
  9
$STEPSPERSEC
 40
24.0
  9
$STEPSIZE
 40
100.0
  9
$3DDWFPREC
 40
2.0
  9
$PSOLWIDTH
 40
0.005
  9
$PSOLHEIGHT
 40
0.08
  9
$LOFTANG1
 40
1.570796326795
  9
$LOFTANG2
 40
1.570796326795
  9
$LOFTMAG1
 40
0.0
  9
$LOFTMAG2
 40
0.0
  9
$LOFTPARAM
 70
7
  9
$LOFTNORMALS
280
1
  9
$LATITUDE
 40
37.795
  9
$LONGITUDE
 40
-122.394
  9
$NORTHDIRECTION
 40
0.0
  9
$TIMEZONE
 70
-8000
  9
$LIGHTGLYPHDISPLAY
280
1
  9
$TILEMODELIGHTSYNCH
280
1
  9
$CMATERIAL
347
20
  9
$SOLIDHIST
280
0
  9
$SHOWHIST
280
1
  9
$DWFFRAME
280
2
  9
$DGNFRAME
280
2
  9
$REALWORLDSCALE
290
1
  9
$INTERFERECOLOR
 62
256
  9
$CSHADOW
280
0
  9
$SHADOWPLANELOCATION
 40
0.0
  0
ENDSEC
  0
SECTION
  2
CLASSES
  0
CLASS
  1
ACDBDICTIONARYWDFLT
  2
AcDbDictionaryWithDefault
  3
ObjectDBX Classes
 90
0
 91
0
280
0
281
0
  0
CLASS
  1
SUN
  2
AcDbSun
  3
SCENEOE
 90
1153
 91
0
280
0
281
0
  0
CLASS
  1
VISUALSTYLE
  2
AcDbVisualStyle
  3
ObjectDBX Classes
 90
4095
 91
0
280
0
281
0
  0
CLASS
  1
MATERIAL
  2
AcDbMaterial
  3
ObjectDBX Classes
 90
1153
 91
0
280
0
281
0
  0
CLASS
  1
SCALE
  2
AcDbScale
  3
ObjectDBX Classes
 90
1153
 91
0
280
0
281
0
  0
CLASS
  1
TABLESTYLE
  2
AcDbTableStyle
  3
ObjectDBX Classes
 90
4095
 91
0
280
0
281
0
  0
CLASS
  1
MLEADERSTYLE
  2
AcDbMLeaderStyle
  3
ACDB_MLEADERSTYLE_CLASS
 90
4095
 91
0
280
0
281
0
  0
CLASS
  1
DICTIONARYVAR
  2
AcDbDictionaryVar
  3
ObjectDBX Classes
 90
0
 91
0
280
0
281
0
  0
CLASS
  1
CELLSTYLEMAP
  2
AcDbCellStyleMap
  3
ObjectDBX Classes
 90
1152
 91
0
280
0
281
0
  0
CLASS
  1
MENTALRAYRENDERSETTINGS
  2
AcDbMentalRayRenderSettings
  3
SCENEOE
 90
1024
 91
0
280
0
281
0
  0
CLASS
  1
ACDBDETAILVIEWSTYLE
  2
AcDbDetailViewStyle
  3
ObjectDBX Classes
 90
1025
 91
0
280
0
281
0
  0
CLASS
  1
ACDBSECTIONVIEWSTYLE
  2
AcDbSectionViewStyle
  3
ObjectDBX Classes
 90
1025
 91
0
280
0
281
0
  0
CLASS
  1
RASTERVARIABLES
  2
AcDbRasterVariables
  3
ISM
 90
0
 91
0
280
0
281
0
  0
CLASS
  1
ACDBPLACEHOLDER
  2
AcDbPlaceHolder
  3
ObjectDBX Classes
 90
0
 91
0
280
0
281
0
  0
CLASS
  1
LAYOUT
  2
AcDbLayout
  3
ObjectDBX Classes
 90
0
 91
0
280
0
281
0
  0
ENDSEC
  0
SECTION
  2
TABLES
  0
TABLE
  2
VPORT
  5
8
330
0
100
AcDbSymbolTable
 70
1
  0
VPORT
  5
23
330
8
100
AcDbSymbolTableRecord
100
AcDbViewportTableRecord
  2
*Active
 70
0
 10
0.0
 20
0.0
 11
1.0
 21
1.0
 12
0.0
 22
0.0
 13
0.0
 23
0.0
 14
0.5
 24
0.5
 15
0.5
 25
0.5
 16
0.0
 26
0.0
 36
1.0
 17
0.0
 27
0.0
 37
0.0
 40
1000.0
 41
1.34
 42
50.0
 43
0.0
 44
0.0
 50
0.0
 51
0.0
 71
0
 72
1000
 73
1
 74
3
 75
0
 76
0
 77
0
 78
0
281
0
 65
0
146
0.0
  0
ENDTAB
  0
TABLE
  2
LTYPE
  5
2
330
0
100
AcDbSymbolTable
 70
3
  0
LTYPE
  5
24
330
2
100
AcDbSymbolTableRecord
100
AcDbLinetypeTableRecord
  2
ByBlock
 70
0
  3

 72
65
 73
0
 40
0.0
  0
LTYPE
  5
25
330
2
100
AcDbSymbolTableRecord
100
AcDbLinetypeTableRecord
  2
ByLayer
 70
0
  3

 72
65
 73
0
 40
0.0
  0
LTYPE
  5
26
330
2
100
AcDbSymbolTableRecord
100
AcDbLinetypeTableRecord
  2
Continuous
 70
0
  3

 72
65
 73
0
 40
0.0
  0
ENDTAB
  0
TABLE
  2
LAYER
  5
1
330
0
100
AcDbSymbolTable
 70
14
  0
LAYER
  5
27
330
1
100
AcDbSymbolTableRecord
100
AcDbLayerTableRecord
  2
0
 70
0
 62
7
  6
Continuous
370
-3
390
13
347
21
  0
LAYER
  5
28
330
1
100
AcDbSymbolTableRecord
100
AcDbLayerTableRecord
  2
Defpoints
 70
0
 62
7
  6
Continuous
290
0
370
-3
390
13
347
21
  0
LAYER
  5
2F
330
1
100
AcDbSymbolTableRecord
100
AcDbLayerTableRecord
  2
5
 70
0
 62
7
  6
Continuous
370
-3
390
13
347
21
  0
LAYER
  5
30
330
1
100
AcDbSymbolTableRecord
100
AcDbLayerTableRecord
  2
SARR_2.2x7
 70
0
 62
7
  6
Continuous
370
-3
390
13
347
21
  0
LAYER
  5
31
330
1
100
AcDbSymbolTableRecord
100
AcDbLayerTableRecord
  2
CONCRETO
 70
0
 62
7
  6
Continuous
370
-3
390
13
347
21
  0
LAYER
  5
32
330
1
100
AcDbSymbolTableRecord
100
AcDbLayerTableRecord
  2
REAPROVEITAMENTO
 70
0
 62
7
  6
Continuous
370
-3
390
13
347
21
  0
LAYER
  5
33
330
1
100
AcDbSymbolTableRecord
100
AcDbLayerTableRecord
  2
detalhes
 70
0
 62
7
  6
Continuous
370
-3
390
13
347
21
  0
LAYER
  5
34
330
1
100
AcDbSymbolTableRecord
100
AcDbLayerTableRecord
  2
Madeira
 70
0
 62
7
  6
Continuous
370
-3
390
13
347
21
  0
LAYER
  5
35
330
1
100
AcDbSymbolTableRecord
100
AcDbLayerTableRecord
  2
COTA
 70
0
 62
7
  6
Continuous
370
-3
390
13
347
21
  0
LAYER
  5
36
330
1
100
AcDbSymbolTableRecord
100
AcDbLayerTableRecord
  2
Painéis
 70
0
 62
7
  6
Continuous
370
-3
390
13
347
21
  0
LAYER
  5
37
330
1
100
AcDbSymbolTableRecord
100
AcDbLayerTableRecord
  2
Texto Seção
 70
0
 62
7
  6
Continuous
370
-3
390
13
347
21
  0
LAYER
  5
38
330
1
100
AcDbSymbolTableRecord
100
AcDbLayerTableRecord
  2
SARR_3.5x7
 70
0
 62
7
  6
Continuous
370
-3
390
13
347
21
  0
LAYER
  5
39
330
1
100
AcDbSymbolTableRecord
100
AcDbLayerTableRecord
  2
Cota Seção (2x)
 70
0
 62
7
  6
Continuous
370
-3
390
13
347
21
  0
LAYER
  5
3A
330
1
100
AcDbSymbolTableRecord
100
AcDbLayerTableRecord
  2
Hachura
 70
0
 62
7
  6
Continuous
370
-3
390
13
347
21
  0
ENDTAB
  0
TABLE
  2
STYLE
  5
5
330
0
100
AcDbSymbolTable
 70
1
  0
STYLE
  5
29
330
5
100
AcDbSymbolTableRecord
100
AcDbTextStyleTableRecord
  2
Standard
 70
0
 40
0.0
 41
1.0
 50
0.0
 71
0
 42
2.5
  3
txt
  4

  0
ENDTAB
  0
TABLE
  2
VIEW
  5
7
330
0
100
AcDbSymbolTable
 70
0
  0
ENDTAB
  0
TABLE
  2
UCS
  5
6
330
0
100
AcDbSymbolTable
 70
0
  0
ENDTAB
  0
TABLE
  2
APPID
  5
3
330
0
100
AcDbSymbolTable
 70
3
  0
APPID
  5
2A
330
3
100
AcDbSymbolTableRecord
100
AcDbRegAppTableRecord
  2
ACAD
 70
0
  0
APPID
  5
1F5
330
3
100
AcDbSymbolTableRecord
100
AcDbRegAppTableRecord
  2
HATCHBACKGROUNDCOLOR
 70
0
  0
APPID
  5
1F6
330
3
100
AcDbSymbolTableRecord
100
AcDbRegAppTableRecord
  2
EZDXF
 70
0
  0
ENDTAB
  0
TABLE
  2
DIMSTYLE
  5
4
330
0
100
AcDbSymbolTable
 70
1
100
AcDbDimStyleTable
  0
DIMSTYLE
105
2B
330
4
100
AcDbSymbolTableRecord
100
AcDbDimStyleTableRecord
  2
Standard
 70
0
 40
1.0
 41
2.5
 42
0.625
 43
3.75
 44
1.25
 45
0.0
 46
0.0
 47
0.0
 48
0.0
 49
2.5
140
2.5
141
2.5
142
0.0
143
0.03937007874
144
1.0
145
0.0
146
1.0
147
0.625
148
0.0
 69
0
 70
0
 71
0
 72
0
 73
0
 74
0
 75
0
 76
0
 77
1
 78
8
 79
3
170
0
171
3
172
1
173
0
174
0
175
0
176
0
177
0
178
0
179
2
271
2
272
2
273
2
274
3
275
0
276
0
277
2
278
44
279
0
280
0
281
0
282
0
283
0
284
8
285
0
286
0
288
0
289
3
290
0
371
-2
372
-2
  0
ENDTAB
  0
TABLE
  2
BLOCK_RECORD
  5
9
330
0
100
AcDbSymbolTable
 70
2
  0
BLOCK_RECORD
  5
17
330
9
100
AcDbSymbolTableRecord
100
AcDbBlockTableRecord
  2
*Model_Space
340
1A
 70
0
280
1
281
0
  0
BLOCK_RECORD
  5
1B
330
9
100
AcDbSymbolTableRecord
100
AcDbBlockTableRecord
  2
*Paper_Space
340
1E
 70
0
280
1
281
0
  0
ENDTAB
  0
ENDSEC
  0
SECTION
  2
BLOCKS
  0
BLOCK
  5
18
330
17
100
AcDbEntity
  8
0
100
AcDbBlockBegin
  2
*Model_Space
 70
0
 10
0.0
 20
0.0
 30
0.0
  3
*Model_Space
  1

  0
ENDBLK
  5
19
330
17
100
AcDbEntity
  8
0
100
AcDbBlockEnd
  0
BLOCK
  5
1C
330
1B
100
AcDbEntity
  8
0
100
AcDbBlockBegin
  2
*Paper_Space
 70
0
 10
0.0
 20
0.0
 30
0.0
  3
*Paper_Space
  1

  0
ENDBLK
  5
1D
330
1B
100
AcDbEntity
  8
0
100
AcDbBlockEnd
  0
ENDSEC
  0
SECTION
  2
ENTITIES
  0
LINE
  5
3B
330
17
100
AcDbEntity
  8
SARR_2.2x7
 62
40
370
25
100
AcDbLine
 10
4916.104736109799
 20
4716.134823007297
 30
0.0
 11
5153.149876868986
 21
4716.134823007315
 31
0.0
  0
LINE
  5
3C
330
17
100
AcDbEntity
  8
SARR_2.2x7
 62
40
370
25
100
AcDbLine
 10
5153.149876868986
 20
4716.134823007315
 30
0.0
 11
5397.149876868986
 21
4716.134823007109
 31
0.0
  0
LINE
  5
3D
330
17
100
AcDbEntity
  8
SARR_2.2x7
 62
40
370
25
100
AcDbLine
 10
5397.149876868983
 20
4716.134823007108
 30
0.0
 11
5641.149876868984
 21
4716.134823007009
 31
0.0
  0
LINE
  5
3E
330
17
100
AcDbEntity
  8
Painéis
 62
200
370
25
100
AcDbLine
 10
4909.149876868982
 20
4723.134823007204
 30
0.0
 11
5641.149876868984
 21
4723.13482300723
 31
0.0
  0
LINE
  5
3F
330
17
100
AcDbEntity
  8
Painéis
 62
200
370
25
100
AcDbLine
 10
4909.149876868987
 20
4664.134823007205
 30
0.0
 11
5641.149876868987
 21
4664.13482300723
 31
0.0
  0
LINE
  5
40
330
17
100
AcDbEntity
  8
Painéis
 62
200
370
25
100
AcDbLine
 10
5641.149876868987
 20
4664.13482300723
 30
0.0
 11
5641.149876868984
 21
4723.13482300723
 31
0.0
  0
LINE
  5
41
330
17
100
AcDbEntity
  8
Painéis
 62
200
370
25
100
AcDbLine
 10
4909.149876868987
 20
4664.134823007205
 30
0.0
 11
4909.149876868983
 21
4723.134823007204
 31
0.0
  0
LINE
  5
42
330
17
100
AcDbEntity
  8
SARR_2.2x7
 62
40
370
25
100
AcDbLine
 10
4916.104736109803
 20
4664.134823007201
 30
0.0
 11
4916.104736109799
 21
4723.134823007204
 31
0.0
  0
LINE
  5
43
330
17
100
AcDbEntity
  8
SARR_2.2x7
 62
40
370
25
100
AcDbLine
 10
5535.649876868983
 20
4664.134823007226
 30
0.0
 11
5535.649876868983
 21
4671.134823007379
 31
0.0
  0
LINE
  5
44
330
17
100
AcDbEntity
  8
SARR_2.2x7
 62
40
370
25
100
AcDbLine
 10
5535.649876868985
 20
4690.134823007106
 30
0.0
 11
5535.649876868985
 21
4697.134823006805
 31
0.0
  0
LINE
  5
45
330
17
100
AcDbEntity
  8
Painéis
 62
200
370
25
100
AcDbLine
 10
5153.149876868987
 20
4664.134823007219
 30
0.0
 11
5153.149876868983
 21
4723.134823007219
 31
0.0
  0
LINE
  5
46
330
17
100
AcDbEntity
  8
SARR_2.2x7
 62
40
370
25
100
AcDbLine
 10
4916.104736109799
 20
4671.134823007133
 30
0.0
 11
5153.149876868986
 21
4671.134823007115
 31
0.0
  0
LINE
  5
47
330
17
100
AcDbEntity
  8
SARR_2.2x7
 62
40
370
25
100
AcDbLine
 10
5153.149876868986
 20
4671.134823007115
 30
0.0
 11
5397.149876868986
 21
4671.13482300725
 31
0.0
  0
LINE
  5
48
330
17
100
AcDbEntity
  8
SARR_2.2x7
 62
40
370
25
100
AcDbLine
 10
5397.149876868986
 20
4671.13482300725
 30
0.0
 11
5535.649876868985
 21
4671.134823007379
 31
0.0
  0
LINE
  5
49
330
17
100
AcDbEntity
  8
Painéis
 62
200
370
25
100
AcDbLine
 10
5397.149876868986
 20
4664.134823007219
 30
0.0
 11
5397.149876868983
 21
4723.134823007219
 31
0.0
  0
LINE
  5
4A
330
17
100
AcDbEntity
  8
Painéis
 62
200
370
25
100
AcDbLine
 10
5397.149876868986
 20
4664.134823007219
 30
0.0
 11
5397.149876868983
 21
4723.134823007219
 31
0.0
  0
LINE
  5
4B
330
17
100
AcDbEntity
  8
SARR_2.2x7
 62
40
370
25
100
AcDbLine
 10
5153.149876868987
 20
4690.13482300737
 30
0.0
 11
5397.149876868986
 21
4690.134823007165
 31
0.0
  0
LINE
  5
4C
330
17
100
AcDbEntity
  8
SARR_2.2x7
 62
40
370
25
100
AcDbLine
 10
5153.149876868987
 20
4697.134823007067
 30
0.0
 11
5397.149876868986
 21
4697.134823007274
 31
0.0
  0
LINE
  5
4D
330
17
100
AcDbEntity
  8
SARR_2.2x7
 62
40
370
25
100
AcDbLine
 10
4916.104736109777
 20
4690.134823007351
 30
0.0
 11
5153.149876868964
 21
4690.13482300737
 31
0.0
  0
LINE
  5
4E
330
17
100
AcDbEntity
  8
SARR_2.2x7
 62
40
370
25
100
AcDbLine
 10
5397.14987686896
 20
4690.134823007162
 30
0.0
 11
5535.649876868963
 21
4690.134823007106
 31
0.0
  0
LINE
  5
4F
330
17
100
AcDbEntity
  8
SARR_2.2x7
 62
40
370
25
100
AcDbLine
 10
4916.104736109803
 20
4697.13482300705
 30
0.0
 11
5153.149876868987
 21
4697.134823007067
 31
0.0
  0
LINE
  5
50
330
17
100
AcDbEntity
  8
SARR_2.2x7
 62
40
370
25
100
AcDbLine
 10
5397.149876868986
 20
4697.134823006861
 30
0.0
 11
5535.649876868989
 21
4697.134823006805
 31
0.0
  0
LINE
  5
51
330
17
100
AcDbEntity
  8
SARR_2.2x7
 62
40
370
25
100
AcDbLine
 10
4910.768691845096
 20
4512.510142344242
 30
0.0
 11
5147.813832604282
 21
4512.51014234426
 31
0.0
  0
LINE
  5
52
330
17
100
AcDbEntity
  8
SARR_2.2x7
 62
40
370
25
100
AcDbLine
 10
5147.813832604282
 20
4512.51014234426
 30
0.0
 11
5308.358973363472
 21
4512.510142343996
 31
0.0
  0
LINE
  5
53
330
17
100
AcDbEntity
  8
Painéis
 62
200
370
25
100
AcDbLine
 10
4903.813832604279
 20
4519.510142344149
 30
0.0
 11
5315.313832604281
 21
4519.510142344175
 31
0.0
  0
LINE
  5
54
330
17
100
AcDbEntity
  8
Painéis
 62
200
370
25
100
AcDbLine
 10
4903.813832604285
 20
4479.510142344149
 30
0.0
 11
5315.313832604284
 21
4479.510142344174
 31
0.0
  0
LINE
  5
55
330
17
100
AcDbEntity
  8
Painéis
 62
200
370
25
100
AcDbLine
 10
5315.313832604284
 20
4479.510142344174
 30
0.0
 11
5315.313832604281
 21
4519.510142344175
 31
0.0
  0
LINE
  5
56
330
17
100
AcDbEntity
  8
Painéis
 62
200
370
25
100
AcDbLine
 10
4903.813832604285
 20
4479.510142344149
 30
0.0
 11
4903.813832604281
 21
4519.510142344149
 31
0.0
  0
LINE
  5
57
330
17
100
AcDbEntity
  8
SARR_2.2x7
 62
40
370
25
100
AcDbLine
 10
4910.7686918451
 20
4479.510142344145
 30
0.0
 11
4910.768691845096
 21
4519.510142344149
 31
0.0
  0
LINE
  5
58
330
17
100
AcDbEntity
  8
SARR_2.2x7
 62
40
370
25
100
AcDbLine
 10
5308.358973363469
 20
4479.510142344171
 30
0.0
 11
5308.358973363472
 21
4519.510142344149
 31
0.0
  0
LINE
  5
59
330
17
100
AcDbEntity
  8
Painéis
 62
200
370
25
100
AcDbLine
 10
5147.813832604285
 20
4479.510142344163
 30
0.0
 11
5147.813832604281
 21
4519.510142344164
 31
0.0
  0
LINE
  5
5A
330
17
100
AcDbEntity
  8
COTA
 62
241
370
25
100
AcDbLine
 10
4903.813832604279
 20
4519.510142344149
 30
0.0
 11
4903.813832604279
 21
4531.510142344148
 31
0.0
  0
LINE
  5
5B
330
17
100
AcDbEntity
  8
COTA
 62
241
370
25
100
AcDbLine
 10
5315.313832604279
 20
4531.510142344148
 30
0.0
 11
5315.313832604279
 21
4519.510142344175
 31
0.0
  0
LINE
  5
5C
330
17
100
AcDbEntity
  8
SARR_2.2x7
 62
40
370
25
100
AcDbLine
 10
4903.813832604279
 20
4535.010142344137
 30
0.0
 11
5147.813832604281
 21
4535.010142344144
 31
0.0
  0
LINE
  5
5D
330
17
100
AcDbEntity
  8
SARR_2.2x7
 62
40
370
25
100
AcDbLine
 10
5147.813832604281
 20
4535.010142344144
 30
0.0
 11
5315.313832604279
 21
4535.010142344149
 31
0.0
  0
LINE
  5
5E
330
17
100
AcDbEntity
  8
Painéis
 62
200
370
25
100
AcDbLine
 10
5147.813832604281
 20
4531.510142344148
 30
0.0
 11
5147.813832604281
 21
4538.510142344149
 31
0.0
  0
LINE
  5
5F
330
17
100
AcDbEntity
  8
SARR_2.2x7
 62
40
370
25
100
AcDbLine
 10
4910.768691845096
 20
4486.510142344078
 30
0.0
 11
5147.813832604282
 21
4486.51014234406
 31
0.0
  0
LINE
  5
60
330
17
100
AcDbEntity
  8
SARR_2.2x7
 62
40
370
25
100
AcDbLine
 10
5147.813832604282
 20
4486.51014234406
 30
0.0
 11
5308.358973363472
 21
4486.510142344324
 31
0.0
  0
LINE
  5
61
330
17
100
AcDbEntity
  8
SARR_2.2x7
 62
40
370
25
100
AcDbLine
 10
5348.685745758939
 20
4512.510142344242
 30
0.0
 11
5585.730886518126
 21
4512.51014234426
 31
0.0
  0
LINE
  5
62
330
17
100
AcDbEntity
  8
SARR_2.2x7
 62
40
370
25
100
AcDbLine
 10
5585.730886518126
 20
4512.51014234426
 30
0.0
 11
5747.776027277316
 21
4512.510142343996
 31
0.0
  0
LINE
  5
63
330
17
100
AcDbEntity
  8
Painéis
 62
200
370
25
100
AcDbLine
 10
5341.730886518122
 20
4519.510142344149
 30
0.0
 11
5754.730886518125
 21
4519.510142344175
 31
0.0
  0
LINE
  5
64
330
17
100
AcDbEntity
  8
Painéis
 62
200
370
25
100
AcDbLine
 10
5341.730886518128
 20
4479.510142344149
 30
0.0
 11
5754.730886518128
 21
4479.510142344174
 31
0.0
  0
LINE
  5
65
330
17
100
AcDbEntity
  8
Painéis
 62
200
370
25
100
AcDbLine
 10
5754.730886518128
 20
4479.510142344174
 30
0.0
 11
5754.730886518125
 21
4519.510142344175
 31
0.0
  0
LINE
  5
66
330
17
100
AcDbEntity
  8
Painéis
 62
200
370
25
100
AcDbLine
 10
5341.730886518128
 20
4479.510142344149
 30
0.0
 11
5341.730886518124
 21
4519.510142344149
 31
0.0
  0
LINE
  5
67
330
17
100
AcDbEntity
  8
SARR_2.2x7
 62
40
370
25
100
AcDbLine
 10
5348.685745758943
 20
4479.510142344145
 30
0.0
 11
5348.685745758939
 21
4519.510142344149
 31
0.0
  0
LINE
  5
68
330
17
100
AcDbEntity
  8
SARR_2.2x7
 62
40
370
25
100
AcDbLine
 10
5747.776027277312
 20
4479.510142344171
 30
0.0
 11
5747.776027277316
 21
4519.510142344149
 31
0.0
  0
LINE
  5
69
330
17
100
AcDbEntity
  8
Painéis
 62
200
370
25
100
AcDbLine
 10
5585.730886518128
 20
4479.510142344163
 30
0.0
 11
5585.730886518124
 21
4519.510142344164
 31
0.0
  0
LINE
  5
6A
330
17
100
AcDbEntity
  8
COTA
 62
241
370
25
100
AcDbLine
 10
5341.730886518122
 20
4519.510142344149
 30
0.0
 11
5341.730886518122
 21
4531.510142344148
 31
0.0
  0
LINE
  5
6B
330
17
100
AcDbEntity
  8
COTA
 62
241
370
25
100
AcDbLine
 10
5754.730886518122
 20
4531.510142344148
 30
0.0
 11
5754.730886518122
 21
4519.510142344175
 31
0.0
  0
LINE
  5
6C
330
17
100
AcDbEntity
  8
SARR_2.2x7
 62
40
370
25
100
AcDbLine
 10
5341.730886518122
 20
4535.010142344138
 30
0.0
 11
5585.730886518124
 21
4535.010142344144
 31
0.0
  0
LINE
  5
6D
330
17
100
AcDbEntity
  8
SARR_2.2x7
 62
40
370
25
100
AcDbLine
 10
5585.730886518124
 20
4535.010142344144
 30
0.0
 11
5754.730886518122
 21
4535.010142344149
 31
0.0
  0
LINE
  5
6E
330
17
100
AcDbEntity
  8
Painéis
 62
200
370
25
100
AcDbLine
 10
5585.730886518124
 20
4531.510142344148
 30
0.0
 11
5585.730886518124
 21
4538.510142344149
 31
0.0
  0
LINE
  5
6F
330
17
100
AcDbEntity
  8
SARR_2.2x7
 62
40
370
25
100
AcDbLine
 10
5348.685745758939
 20
4486.510142344078
 30
0.0
 11
5585.730886518126
 21
4486.51014234406
 31
0.0
  0
LINE
  5
70
330
17
100
AcDbEntity
  8
SARR_2.2x7
 62
40
370
25
100
AcDbLine
 10
5585.730886518126
 20
4486.51014234406
 30
0.0
 11
5747.776027277316
 21
4486.510142344324
 31
0.0
  0
LINE
  5
71
330
17
100
AcDbEntity
  8
SARR_2.2x7
 62
40
370
25
100
AcDbLine
 10
4910.768691845096
 20
4323.753288568524
 30
0.0
 11
5147.813832604282
 21
4323.753288568542
 31
0.0
  0
LINE
  5
72
330
17
100
AcDbEntity
  8
SARR_2.2x7
 62
40
370
25
100
AcDbLine
 10
5147.813832604282
 20
4323.753288568542
 30
0.0
 11
5309.858973363472
 21
4323.753288568279
 31
0.0
  0
LINE
  5
73
330
17
100
AcDbEntity
  8
Painéis
 62
200
370
25
100
AcDbLine
 10
4903.813832604279
 20
4330.753288568431
 30
0.0
 11
5316.813832604281
 21
4330.753288568456
 31
0.0
  0
LINE
  5
74
330
17
100
AcDbEntity
  8
Painéis
 62
200
370
25
100
AcDbLine
 10
4903.813832604285
 20
4290.75328856843
 30
0.0
 11
5316.813832604284
 21
4290.753288568456
 31
0.0
  0
LINE
  5
75
330
17
100
AcDbEntity
  8
Painéis
 62
200
370
25
100
AcDbLine
 10
5316.813832604284
 20
4290.753288568456
 30
0.0
 11
5316.813832604281
 21
4330.753288568456
 31
0.0
  0
LINE
  5
76
330
17
100
AcDbEntity
  8
Painéis
 62
200
370
25
100
AcDbLine
 10
4903.813832604285
 20
4290.75328856843
 30
0.0
 11
4903.813832604281
 21
4330.753288568431
 31
0.0
  0
LINE
  5
77
330
17
100
AcDbEntity
  8
SARR_2.2x7
 62
40
370
25
100
AcDbLine
 10
4910.7686918451
 20
4290.753288568427
 30
0.0
 11
4910.768691845096
 21
4330.753288568431
 31
0.0
  0
LINE
  5
78
330
17
100
AcDbEntity
  8
SARR_2.2x7
 62
40
370
25
100
AcDbLine
 10
5309.858973363469
 20
4290.753288568453
 30
0.0
 11
5309.858973363472
 21
4330.753288568431
 31
0.0
  0
LINE
  5
79
330
17
100
AcDbEntity
  8
Painéis
 62
200
370
25
100
AcDbLine
 10
5147.813832604285
 20
4290.753288568446
 30
0.0
 11
5147.813832604281
 21
4330.753288568446
 31
0.0
  0
LINE
  5
7A
330
17
100
AcDbEntity
  8
COTA
 62
241
370
25
100
AcDbLine
 10
4903.813832604279
 20
4330.753288568431
 30
0.0
 11
4903.813832604279
 21
4342.753288568431
 31
0.0
  0
LINE
  5
7B
330
17
100
AcDbEntity
  8
COTA
 62
241
370
25
100
AcDbLine
 10
5316.813832604279
 20
4342.753288568431
 30
0.0
 11
5316.813832604279
 21
4330.753288568456
 31
0.0
  0
LINE
  5
7C
330
17
100
AcDbEntity
  8
SARR_2.2x7
 62
40
370
25
100
AcDbLine
 10
4903.813832604279
 20
4346.253288568418
 30
0.0
 11
5147.813832604281
 21
4346.253288568425
 31
0.0
  0
LINE
  5
7D
330
17
100
AcDbEntity
  8
SARR_2.2x7
 62
40
370
25
100
AcDbLine
 10
5147.813832604281
 20
4346.253288568425
 30
0.0
 11
5316.813832604279
 21
4346.253288568431
 31
0.0
  0
LINE
  5
7E
330
17
100
AcDbEntity
  8
Painéis
 62
200
370
25
100
AcDbLine
 10
5147.813832604281
 20
4342.753288568431
 30
0.0
 11
5147.813832604281
 21
4349.753288568432
 31
0.0
  0
LINE
  5
7F
330
17
100
AcDbEntity
  8
SARR_2.2x7
 62
40
370
25
100
AcDbLine
 10
4910.768691845096
 20
4297.753288568361
 30
0.0
 11
5147.813832604282
 21
4297.753288568342
 31
0.0
  0
LINE
  5
80
330
17
100
AcDbEntity
  8
SARR_2.2x7
 62
40
370
25
100
AcDbLine
 10
5147.813832604282
 20
4297.753288568342
 30
0.0
 11
5309.858973363472
 21
4297.753288568606
 31
0.0
  0
LINE
  5
81
330
17
100
AcDbEntity
  8
SARR_2.2x7
 62
40
370
25
100
AcDbLine
 10
5342.990373218828
 20
4323.753288568524
 30
0.0
 11
5580.035513978015
 21
4323.753288568542
 31
0.0
  0
LINE
  5
82
330
17
100
AcDbEntity
  8
SARR_2.2x7
 62
40
370
25
100
AcDbLine
 10
5580.035513978015
 20
4323.753288568542
 30
0.0
 11
5742.080654737205
 21
4323.753288568279
 31
0.0
  0
LINE
  5
83
330
17
100
AcDbEntity
  8
Painéis
 62
200
370
25
100
AcDbLine
 10
5336.035513978011
 20
4330.753288568431
 30
0.0
 11
5749.035513978014
 21
4330.753288568456
 31
0.0
  0
LINE
  5
84
330
17
100
AcDbEntity
  8
Painéis
 62
200
370
25
100
AcDbLine
 10
5336.035513978017
 20
4290.75328856843
 30
0.0
 11
5749.035513978017
 21
4290.753288568456
 31
0.0
  0
LINE
  5
85
330
17
100
AcDbEntity
  8
Painéis
 62
200
370
25
100
AcDbLine
 10
5749.035513978017
 20
4290.753288568456
 30
0.0
 11
5749.035513978014
 21
4330.753288568456
 31
0.0
  0
LINE
  5
86
330
17
100
AcDbEntity
  8
Painéis
 62
200
370
25
100
AcDbLine
 10
5336.035513978017
 20
4290.75328856843
 30
0.0
 11
5336.035513978013
 21
4330.753288568431
 31
0.0
  0
LINE
  5
87
330
17
100
AcDbEntity
  8
SARR_2.2x7
 62
40
370
25
100
AcDbLine
 10
5342.990373218832
 20
4290.753288568427
 30
0.0
 11
5342.990373218828
 21
4330.753288568431
 31
0.0
  0
LINE
  5
88
330
17
100
AcDbEntity
  8
SARR_2.2x7
 62
40
370
25
100
AcDbLine
 10
5742.080654737201
 20
4290.753288568453
 30
0.0
 11
5742.080654737205
 21
4330.753288568431
 31
0.0
  0
LINE
  5
89
330
17
100
AcDbEntity
  8
Painéis
 62
200
370
25
100
AcDbLine
 10
5580.035513978017
 20
4290.753288568446
 30
0.0
 11
5580.035513978013
 21
4330.753288568446
 31
0.0
  0
LINE
  5
8A
330
17
100
AcDbEntity
  8
COTA
 62
241
370
25
100
AcDbLine
 10
5336.035513978011
 20
4330.753288568431
 30
0.0
 11
5336.035513978011
 21
4342.753288568431
 31
0.0
  0
LINE
  5
8B
330
17
100
AcDbEntity
  8
COTA
 62
241
370
25
100
AcDbLine
 10
5749.035513978011
 20
4342.753288568431
 30
0.0
 11
5749.035513978011
 21
4330.753288568456
 31
0.0
  0
LINE
  5
8C
330
17
100
AcDbEntity
  8
SARR_2.2x7
 62
40
370
25
100
AcDbLine
 10
5336.035513978011
 20
4346.253288568418
 30
0.0
 11
5580.035513978013
 21
4346.253288568425
 31
0.0
  0
LINE
  5
8D
330
17
100
AcDbEntity
  8
SARR_2.2x7
 62
40
370
25
100
AcDbLine
 10
5580.035513978013
 20
4346.253288568425
 30
0.0
 11
5749.035513978011
 21
4346.253288568431
 31
0.0
  0
LINE
  5
8E
330
17
100
AcDbEntity
  8
Painéis
 62
200
370
25
100
AcDbLine
 10
5580.035513978013
 20
4342.753288568431
 30
0.0
 11
5580.035513978013
 21
4349.753288568432
 31
0.0
  0
LINE
  5
8F
330
17
100
AcDbEntity
  8
SARR_2.2x7
 62
40
370
25
100
AcDbLine
 10
5342.990373218828
 20
4297.753288568361
 30
0.0
 11
5580.035513978015
 21
4297.753288568342
 31
0.0
  0
LINE
  5
90
330
17
100
AcDbEntity
  8
SARR_2.2x7
 62
40
370
25
100
AcDbLine
 10
5580.035513978015
 20
4297.753288568342
 30
0.0
 11
5742.080654737205
 21
4297.753288568606
 31
0.0
  0
LINE
  5
91
330
17
100
AcDbEntity
  8
SARR_2.2x7
 62
40
370
25
100
AcDbLine
 10
4910.300334919874
 20
4143.04424049683
 30
0.0
 11
4967.34547567906
 21
4143.044240496847
 31
0.0
  0
LINE
  5
92
330
17
100
AcDbEntity
  8
SARR_2.2x7
 62
40
370
25
100
AcDbLine
 10
4967.34547567906
 20
4143.044240496847
 30
0.0
 11
5052.390616438249
 21
4143.044240496585
 31
0.0
  0
LINE
  5
93
330
17
100
AcDbEntity
  8
Painéis
 62
200
370
25
100
AcDbLine
 10
4903.345475679056
 20
4150.044240496737
 30
0.0
 11
5059.345475679058
 21
4150.044240496763
 31
0.0
  0
LINE
  5
94
330
17
100
AcDbEntity
  8
Painéis
 62
200
370
25
100
AcDbLine
 10
4903.345475679062
 20
4110.044240496737
 30
0.0
 11
5059.345475679061
 21
4110.044240496762
 31
0.0
  0
LINE
  5
95
330
17
100
AcDbEntity
  8
Painéis
 62
200
370
25
100
AcDbLine
 10
5059.345475679061
 20
4110.044240496762
 30
0.0
 11
5059.345475679058
 21
4150.044240496763
 31
0.0
  0
LINE
  5
96
330
17
100
AcDbEntity
  8
Painéis
 62
200
370
25
100
AcDbLine
 10
4903.345475679062
 20
4110.044240496737
 30
0.0
 11
4903.345475679058
 21
4150.044240496737
 31
0.0
  0
LINE
  5
97
330
17
100
AcDbEntity
  8
SARR_2.2x7
 62
40
370
25
100
AcDbLine
 10
4910.300334919877
 20
4110.044240496733
 30
0.0
 11
4910.300334919874
 21
4150.044240496737
 31
0.0
  0
LINE
  5
98
330
17
100
AcDbEntity
  8
SARR_2.2x7
 62
40
370
25
100
AcDbLine
 10
5052.390616438246
 20
4110.044240496758
 30
0.0
 11
5052.390616438249
 21
4150.044240496737
 31
0.0
  0
LINE
  5
99
330
17
100
AcDbEntity
  8
Painéis
 62
200
370
25
100
AcDbLine
 10
4967.345475679062
 20
4110.044240496751
 30
0.0
 11
4967.345475679058
 21
4150.044240496751
 31
0.0
  0
LINE
  5
9A
330
17
100
AcDbEntity
  8
COTA
 62
241
370
25
100
AcDbLine
 10
4903.345475679056
 20
4150.044240496737
 30
0.0
 11
4903.345475679056
 21
4162.044240496737
 31
0.0
  0
LINE
  5
9B
330
17
100
AcDbEntity
  8
COTA
 62
241
370
25
100
AcDbLine
 10
5059.345475679056
 20
4162.044240496737
 30
0.0
 11
5059.345475679056
 21
4150.044240496763
 31
0.0
  0
LINE
  5
9C
330
17
100
AcDbEntity
  8
SARR_2.2x7
 62
40
370
25
100
AcDbLine
 10
4903.345475679056
 20
4165.544240496723
 30
0.0
 11
4967.345475679058
 21
4165.544240496731
 31
0.0
  0
LINE
  5
9D
330
17
100
AcDbEntity
  8
SARR_2.2x7
 62
40
370
25
100
AcDbLine
 10
4967.345475679058
 20
4165.544240496731
 30
0.0
 11
5059.345475679056
 21
4165.544240496737
 31
0.0
  0
LINE
  5
9E
330
17
100
AcDbEntity
  8
Painéis
 62
200
370
25
100
AcDbLine
 10
4967.345475679058
 20
4162.044240496737
 30
0.0
 11
4967.345475679058
 21
4169.044240496737
 31
0.0
  0
LINE
  5
9F
330
17
100
AcDbEntity
  8
SARR_2.2x7
 62
40
370
25
100
AcDbLine
 10
4910.300334919874
 20
4117.044240496666
 30
0.0
 11
4967.34547567906
 21
4117.044240496648
 31
0.0
  0
LINE
  5
A0
330
17
100
AcDbEntity
  8
SARR_2.2x7
 62
40
370
25
100
AcDbLine
 10
4967.34547567906
 20
4117.044240496648
 30
0.0
 11
5052.390616438249
 21
4117.044240496912
 31
0.0
  0
LINE
  5
A1
330
17
100
AcDbEntity
  8
SARR_2.2x7
 62
40
370
25
100
AcDbLine
 10
4910.7686918451
 20
4496.010142344162
 30
0.0
 11
5147.813832604282
 21
4496.010142343955
 31
0.0
  0
LINE
  5
A2
330
17
100
AcDbEntity
  8
SARR_2.2x7
 62
40
370
25
100
AcDbLine
 10
4910.7686918451
 20
4503.010142343859
 30
0.0
 11
5147.813832604282
 21
4503.010142343653
 31
0.0
  0
LINE
  5
A3
330
17
100
AcDbEntity
  8
SARR_2.2x7
 62
40
370
25
100
AcDbLine
 10
5147.813832604285
 20
4496.010142344178
 30
0.0
 11
5308.358973363469
 21
4496.010142344061
 31
0.0
  0
LINE
  5
A4
330
17
100
AcDbEntity
  8
SARR_2.2x7
 62
40
370
25
100
AcDbLine
 10
5147.813832604285
 20
4503.010142343876
 30
0.0
 11
5308.358973363471
 21
4503.010142343759
 31
0.0
  0
LINE
  5
A5
330
17
100
AcDbEntity
  8
SARR_2.2x7
 62
40
370
25
100
AcDbLine
 10
5348.685745758943
 20
4496.010142344162
 30
0.0
 11
5585.730886518126
 21
4496.010142343955
 31
0.0
  0
LINE
  5
A6
330
17
100
AcDbEntity
  8
SARR_2.2x7
 62
40
370
25
100
AcDbLine
 10
5348.685745758943
 20
4503.010142343859
 30
0.0
 11
5585.730886518126
 21
4503.010142343653
 31
0.0
  0
LINE
  5
A7
330
17
100
AcDbEntity
  8
SARR_2.2x7
 62
40
370
25
100
AcDbLine
 10
5585.730886518128
 20
4496.010142344178
 30
0.0
 11
5747.776027277314
 21
4496.010142344087
 31
0.0
  0
LINE
  5
A8
330
17
100
AcDbEntity
  8
SARR_2.2x7
 62
40
370
25
100
AcDbLine
 10
5585.730886518128
 20
4503.010142343876
 30
0.0
 11
5747.776027277316
 21
4503.010142343785
 31
0.0
  0
LINE
  5
A9
330
17
100
AcDbEntity
  8
SARR_2.2x7
 62
40
370
25
100
AcDbLine
 10
4910.7686918451
 20
4307.253288568444
 30
0.0
 11
5147.813832604282
 21
4307.253288568237
 31
0.0
  0
LINE
  5
AA
330
17
100
AcDbEntity
  8
SARR_2.2x7
 62
40
370
25
100
AcDbLine
 10
4910.7686918451
 20
4314.253288568141
 30
0.0
 11
5147.813832604282
 21
4314.253288567935
 31
0.0
  0
LINE
  5
AB
330
17
100
AcDbEntity
  8
SARR_2.2x7
 62
40
370
25
100
AcDbLine
 10
5147.813832604285
 20
4307.25328856846
 30
0.0
 11
5309.858973363471
 21
4307.253288568341
 31
0.0
  0
LINE
  5
AC
330
17
100
AcDbEntity
  8
SARR_2.2x7
 62
40
370
25
100
AcDbLine
 10
5147.813832604285
 20
4314.253288568158
 30
0.0
 11
5309.858973363471
 21
4314.25328856804
 31
0.0
  0
LINE
  5
AD
330
17
100
AcDbEntity
  8
SARR_2.2x7
 62
40
370
25
100
AcDbLine
 10
5342.990373218832
 20
4307.253288568444
 30
0.0
 11
5580.035513978015
 21
4307.253288568237
 31
0.0
  0
LINE
  5
AE
330
17
100
AcDbEntity
  8
SARR_2.2x7
 62
40
370
25
100
AcDbLine
 10
5342.990373218832
 20
4314.253288568141
 30
0.0
 11
5580.035513978015
 21
4314.253288567935
 31
0.0
  0
LINE
  5
AF
330
17
100
AcDbEntity
  8
SARR_2.2x7
 62
40
370
25
100
AcDbLine
 10
5580.035513978017
 20
4307.25328856846
 30
0.0
 11
5742.080654737203
 21
4307.25328856832
 31
0.0
  0
LINE
  5
B0
330
17
100
AcDbEntity
  8
SARR_2.2x7
 62
40
370
25
100
AcDbLine
 10
5580.035513978017
 20
4314.253288568158
 30
0.0
 11
5742.080654737203
 21
4314.25328856802
 31
0.0
  0
LINE
  5
B1
330
17
100
AcDbEntity
  8
SARR_2.2x7
 62
40
370
25
100
AcDbLine
 10
4910.300334919877
 20
4126.54424049675
 30
0.0
 11
4967.34547567906
 21
4126.544240496703
 31
0.0
  0
LINE
  5
B2
330
17
100
AcDbEntity
  8
SARR_2.2x7
 62
40
370
25
100
AcDbLine
 10
4910.300334919877
 20
4133.544240496448
 30
0.0
 11
4967.345475679058
 21
4133.544240496401
 31
0.0
  0
LINE
  5
B3
330
17
100
AcDbEntity
  8
SARR_2.2x7
 62
40
370
25
100
AcDbLine
 10
4967.345475679062
 20
4126.544240496766
 30
0.0
 11
5052.390616438249
 21
4126.544240496691
 31
0.0
  0
LINE
  5
B4
330
17
100
AcDbEntity
  8
SARR_2.2x7
 62
40
370
25
100
AcDbLine
 10
4967.345475679062
 20
4133.544240496465
 30
0.0
 11
5052.390616438249
 21
4133.54424049639
 31
0.0
  0
LINE
  5
B5
330
17
100
AcDbEntity
  8
COTA
 62
4
370
25
100
AcDbLine
 10
4755.783624302845
 20
4540.36586942425
 30
0.0
 11
4840.160347392325
 21
4540.36586942425
 31
0.0
  0
LINE
  5
B6
330
17
100
AcDbEntity
  8
COTA
 62
4
370
25
100
AcDbLine
 10
4740.583624303088
 20
4658.36586942425
 30
0.0
 11
4840.160347392325
 21
4658.36586942425
 31
0.0
  0
LINE
  5
B7
330
17
100
AcDbEntity
  8
COTA
 62
4
370
25
100
AcDbLine
 10
4837.160347392325
 20
4540.36586942425
 30
0.0
 11
4837.160347392325
 21
4658.36586942425
 31
0.0
  0
LINE
  5
B8
330
17
100
AcDbEntity
  8
COTA
 62
4
370
25
100
AcDbLine
 10
4664.583624303037
 20
4540.36586942425
 30
0.0
 11
4621.311891544822
 21
4540.36586942425
 31
0.0
  0
LINE
  5
B9
330
17
100
AcDbEntity
  8
COTA
 62
4
370
25
100
AcDbLine
 10
4689.783624303037
 20
4658.36586942425
 30
0.0
 11
4621.311891544822
 21
4658.36586942425
 31
0.0
  0
LINE
  5
BA
330
17
100
AcDbEntity
  8
COTA
 62
4
370
25
100
AcDbLine
 10
4624.311891544822
 20
4540.36586942425
 30
0.0
 11
4624.311891544822
 21
4658.36586942425
 31
0.0
  0
LINE
  5
BB
330
17
100
AcDbEntity
  8
Cota Seção (2x)
 62
180
370
25
100
AcDbLine
 10
4725.583624303086
 20
4608.699202757533
 30
0.0
 11
4725.583624303086
 21
4628.032536090868
 31
0.0
  0
LINE
  5
BC
330
17
100
AcDbEntity
  8
Cota Seção (2x)
 62
180
370
25
100
AcDbLine
 10
4725.583624303086
 20
4628.032536090868
 30
0.0
 11
4710.583624303086
 21
4628.032536090868
 31
0.0
  0
LINE
  5
BD
330
17
100
AcDbEntity
  8
Cota Seção (2x)
 62
180
370
25
100
AcDbLine
 10
4710.583624303086
 20
4628.032536090868
 30
0.0
 11
4710.583624303086
 21
4608.699202757533
 31
0.0
  0
LINE
  5
BE
330
17
100
AcDbEntity
  8
Cota Seção (2x)
 62
180
370
25
100
AcDbLine
 10
4710.583624303086
 20
4608.699202757533
 30
0.0
 11
4725.583624303086
 21
4608.699202757533
 31
0.0
  0
LINE
  5
BF
330
17
100
AcDbEntity
  8
COTA
 62
4
370
25
100
AcDbLine
 10
4787.78362430302
 20
4644.365869424251
 30
0.0
 11
4820.84091890686
 21
4644.365869424251
 31
0.0
  0
LINE
  5
C0
330
17
100
AcDbEntity
  8
COTA
 62
4
370
25
100
AcDbLine
 10
4787.78362430302
 20
4624.365869424221
 30
0.0
 11
4820.84091890686
 21
4624.365869424221
 31
0.0
  0
LINE
  5
C1
330
17
100
AcDbEntity
  8
COTA
 62
4
370
25
100
AcDbLine
 10
4817.84091890686
 20
4644.365869424251
 30
0.0
 11
4817.84091890686
 21
4624.365869424221
 31
0.0
  0
LINE
  5
C2
330
17
100
AcDbEntity
  8
COTA
 62
4
370
25
100
AcDbLine
 10
4787.78362430302
 20
4620.365869424222
 30
0.0
 11
4820.840918906534
 21
4620.365869424222
 31
0.0
  0
LINE
  5
C3
330
17
100
AcDbEntity
  8
COTA
 62
4
370
25
100
AcDbLine
 10
4755.783624302845
 20
4540.36586942425
 30
0.0
 11
4820.840918906534
 21
4540.36586942425
 31
0.0
  0
LINE
  5
C4
330
17
100
AcDbEntity
  8
COTA
 62
4
370
25
100
AcDbLine
 10
4817.840918906534
 20
4620.365869424222
 30
0.0
 11
4817.840918906534
 21
4540.36586942425
 31
0.0
  0
LINE
  5
C5
330
17
100
AcDbEntity
  8
COTA
 62
4
370
25
100
AcDbLine
 10
4729.183624303041
 20
4537.365869424241
 30
0.0
 11
4729.183624303041
 21
4492.639055622059
 31
0.0
  0
LINE
  5
C6
330
17
100
AcDbEntity
  8
COTA
 62
4
370
25
100
AcDbLine
 10
4701.18362430304
 20
4537.365869424241
 30
0.0
 11
4701.18362430304
 21
4492.639055622059
 31
0.0
  0
LINE
  5
C7
330
17
100
AcDbEntity
  8
COTA
 62
4
370
25
100
AcDbLine
 10
4729.183624303041
 20
4495.639055622058
 30
0.0
 11
4701.18362430304
 21
4495.639055622058
 31
0.0
  0
LINE
  5
C8
330
17
100
AcDbEntity
  8
Cota Seção (2x)
 62
180
370
25
100
AcDbLine
 10
4710.850290969736
 20
4560.365869424248
 30
0.0
 11
4729.516957636403
 21
4560.365869424248
 31
0.0
  0
LINE
  5
C9
330
17
100
AcDbEntity
  8
Cota Seção (2x)
 62
180
370
25
100
AcDbLine
 10
4729.516957636403
 20
4560.365869424248
 30
0.0
 11
4729.516957636403
 21
4575.365869424248
 31
0.0
  0
LINE
  5
CA
330
17
100
AcDbEntity
  8
Cota Seção (2x)
 62
180
370
25
100
AcDbLine
 10
4729.516957636403
 20
4575.365869424248
 30
0.0
 11
4710.850290969736
 21
4575.365869424248
 31
0.0
  0
LINE
  5
CB
330
17
100
AcDbEntity
  8
Cota Seção (2x)
 62
180
370
25
100
AcDbLine
 10
4710.850290969736
 20
4575.365869424248
 30
0.0
 11
4710.850290969736
 21
4560.365869424248
 31
0.0
  0
LINE
  5
CC
330
17
100
AcDbEntity
  8
COTA
 62
4
370
25
100
AcDbLine
 10
4787.78362430302
 20
4644.365869424251
 30
0.0
 11
4820.840918906846
 21
4644.365869424251
 31
0.0
  0
LINE
  5
CD
330
17
100
AcDbEntity
  8
COTA
 62
4
370
25
100
AcDbLine
 10
4740.583624303088
 20
4658.36586942425
 30
0.0
 11
4820.840918906846
 21
4658.36586942425
 31
0.0
  0
LINE
  5
CE
330
17
100
AcDbEntity
  8
COTA
 62
4
370
25
100
AcDbLine
 10
4817.840918906846
 20
4644.365869424251
 30
0.0
 11
4817.840918906846
 21
4658.36586942425
 31
0.0
  0
LINE
  5
CF
330
17
100
AcDbEntity
  8
COTA
 62
4
370
25
100
AcDbLine
 10
4909.149876868987
 20
4661.134823007205
 30
0.0
 11
4909.149876868987
 21
4634.594897029059
 31
0.0
  0
LINE
  5
D0
330
17
100
AcDbEntity
  8
COTA
 62
4
370
25
100
AcDbLine
 10
5153.149876868987
 20
4661.134823007233
 30
0.0
 11
5153.149876868987
 21
4634.594897029059
 31
0.0
  0
LINE
  5
D1
330
17
100
AcDbEntity
  8
COTA
 62
4
370
25
100
AcDbLine
 10
4909.149876868987
 20
4637.594897029059
 30
0.0
 11
5153.149876868987
 21
4637.594897029059
 31
0.0
  0
LINE
  5
D2
330
17
100
AcDbEntity
  8
COTA
 62
0
370
25
100
AcDbLine
 10
4910.649876868987
 20
4639.094897029059
 30
0.0
 11
4907.649876868987
 21
4636.094897029059
 31
0.0
  0
LINE
  5
D3
330
17
100
AcDbEntity
  8
COTA
 62
0
370
25
100
AcDbLine
 10
5151.649876868987
 20
4636.094897029059
 30
0.0
 11
5154.649876868987
 21
4639.094897029059
 31
0.0
  0
LINE
  5
D4
330
17
100
AcDbEntity
  8
COTA
 62
4
370
25
100
AcDbLine
 10
5153.149876868987
 20
4661.134823007233
 30
0.0
 11
5153.149876868987
 21
4634.594897029059
 31
0.0
  0
LINE
  5
D5
330
17
100
AcDbEntity
  8
COTA
 62
4
370
25
100
AcDbLine
 10
5397.149876868986
 20
4661.134823007212
 30
0.0
 11
5397.149876868986
 21
4634.594897029059
 31
0.0
  0
LINE
  5
D6
330
17
100
AcDbEntity
  8
COTA
 62
4
370
25
100
AcDbLine
 10
5153.149876868987
 20
4637.594897029059
 30
0.0
 11
5397.149876868986
 21
4637.594897029059
 31
0.0
  0
LINE
  5
D7
330
17
100
AcDbEntity
  8
COTA
 62
0
370
25
100
AcDbLine
 10
5154.649876868987
 20
4639.094897029059
 30
0.0
 11
5151.649876868987
 21
4636.094897029059
 31
0.0
  0
LINE
  5
D8
330
17
100
AcDbEntity
  8
COTA
 62
0
370
25
100
AcDbLine
 10
5395.649876868986
 20
4636.094897029059
 30
0.0
 11
5398.649876868986
 21
4639.094897029059
 31
0.0
  0
LINE
  5
D9
330
17
100
AcDbEntity
  8
COTA
 62
4
370
25
100
AcDbLine
 10
5153.149876868987
 20
4661.134823007233
 30
0.0
 11
5153.149876868987
 21
4600.557965258632
 31
0.0
  0
LINE
  5
DA
330
17
100
AcDbEntity
  8
COTA
 62
4
370
25
100
AcDbLine
 10
5397.149876868986
 20
4661.134823007212
 30
0.0
 11
5397.149876868986
 21
4600.557965258632
 31
0.0
  0
LINE
  5
DB
330
17
100
AcDbEntity
  8
COTA
 62
4
370
25
100
AcDbLine
 10
5153.149876868987
 20
4603.557965258632
 30
0.0
 11
5397.149876868986
 21
4603.557965258632
 31
0.0
  0
LINE
  5
DC
330
17
100
AcDbEntity
  8
COTA
 62
0
370
25
100
AcDbLine
 10
5154.649876868987
 20
4605.057965258632
 30
0.0
 11
5151.649876868987
 21
4602.057965258632
 31
0.0
  0
LINE
  5
DD
330
17
100
AcDbEntity
  8
COTA
 62
0
370
25
100
AcDbLine
 10
5395.649876868986
 20
4602.057965258632
 30
0.0
 11
5398.649876868986
 21
4605.057965258632
 31
0.0
  0
LINE
  5
DE
330
17
100
AcDbEntity
  8
COTA
 62
4
370
25
100
AcDbLine
 10
5644.149876868989
 20
4664.134823007231
 30
0.0
 11
5666.902274411363
 21
4664.134823007231
 31
0.0
  0
LINE
  5
DF
330
17
100
AcDbEntity
  8
COTA
 62
4
370
25
100
AcDbLine
 10
5644.149876868985
 20
4723.134823007232
 30
0.0
 11
5666.902274411363
 21
4723.134823007232
 31
0.0
  0
LINE
  5
E0
330
17
100
AcDbEntity
  8
COTA
 62
4
370
25
100
AcDbLine
 10
5663.902274411363
 20
4664.134823007231
 30
0.0
 11
5663.902274411363
 21
4723.134823007232
 31
0.0
  0
LINE
  5
E1
330
17
100
AcDbEntity
  8
COTA
 62
0
370
25
100
AcDbLine
 10
5662.402274411363
 20
4665.634823007231
 30
0.0
 11
5665.402274411363
 21
4662.634823007231
 31
0.0
  0
LINE
  5
E2
330
17
100
AcDbEntity
  8
COTA
 62
0
370
25
100
AcDbLine
 10
5665.402274411363
 20
4721.634823007232
 30
0.0
 11
5662.402274411363
 21
4724.634823007232
 31
0.0
  0
LINE
  5
E3
330
17
100
AcDbEntity
  8
COTA
 62
4
370
25
100
AcDbLine
 10
5641.149876868987
 20
4661.13482300723
 30
0.0
 11
5641.149876868987
 21
4634.594897029059
 31
0.0
  0
LINE
  5
E4
330
17
100
AcDbEntity
  8
COTA
 62
4
370
25
100
AcDbLine
 10
5397.149876868986
 20
4661.13482300723
 30
0.0
 11
5397.149876868986
 21
4634.594897029059
 31
0.0
  0
LINE
  5
E5
330
17
100
AcDbEntity
  8
COTA
 62
4
370
25
100
AcDbLine
 10
5641.149876868987
 20
4637.594897029059
 30
0.0
 11
5397.149876868986
 21
4637.594897029059
 31
0.0
  0
LINE
  5
E6
330
17
100
AcDbEntity
  8
COTA
 62
0
370
25
100
AcDbLine
 10
5639.649876868987
 20
4636.094897029059
 30
0.0
 11
5642.649876868987
 21
4639.094897029059
 31
0.0
  0
LINE
  5
E7
330
17
100
AcDbEntity
  8
COTA
 62
0
370
25
100
AcDbLine
 10
5398.649876868986
 20
4639.094897029059
 30
0.0
 11
5395.649876868986
 21
4636.094897029059
 31
0.0
  0
LINE
  5
E8
330
17
100
AcDbEntity
  8
COTA
 62
4
370
25
100
AcDbLine
 10
4903.813832604285
 20
4476.510142344149
 30
0.0
 11
4903.813832604285
 21
4449.970216365993
 31
0.0
  0
LINE
  5
E9
330
17
100
AcDbEntity
  8
COTA
 62
4
370
25
100
AcDbLine
 10
5147.813832604285
 20
4476.510142344178
 30
0.0
 11
5147.813832604285
 21
4449.970216365993
 31
0.0
  0
LINE
  5
EA
330
17
100
AcDbEntity
  8
COTA
 62
4
370
25
100
AcDbLine
 10
4903.813832604285
 20
4452.970216365994
 30
0.0
 11
5147.813832604285
 21
4452.970216365994
 31
0.0
  0
LINE
  5
EB
330
17
100
AcDbEntity
  8
COTA
 62
0
370
25
100
AcDbLine
 10
4905.313832604285
 20
4454.470216365994
 30
0.0
 11
4902.313832604285
 21
4451.470216365994
 31
0.0
  0
LINE
  5
EC
330
17
100
AcDbEntity
  8
COTA
 62
0
370
25
100
AcDbLine
 10
5146.313832604285
 20
4451.470216365994
 30
0.0
 11
5149.313832604285
 21
4454.470216365994
 31
0.0
  0
LINE
  5
ED
330
17
100
AcDbEntity
  8
COTA
 62
4
370
25
100
AcDbLine
 10
5147.813832604285
 20
4476.510142344178
 30
0.0
 11
5147.813832604285
 21
4449.970216366005
 31
0.0
  0
LINE
  5
EE
330
17
100
AcDbEntity
  8
COTA
 62
4
370
25
100
AcDbLine
 10
5315.313832604284
 20
4476.510142344174
 30
0.0
 11
5315.313832604284
 21
4449.970216366005
 31
0.0
  0
LINE
  5
EF
330
17
100
AcDbEntity
  8
COTA
 62
4
370
25
100
AcDbLine
 10
5147.813832604285
 20
4452.970216366004
 30
0.0
 11
5315.313832604284
 21
4452.970216366004
 31
0.0
  0
LINE
  5
F0
330
17
100
AcDbEntity
  8
COTA
 62
0
370
25
100
AcDbLine
 10
5149.313832604285
 20
4454.470216366004
 30
0.0
 11
5146.313832604285
 21
4451.470216366004
 31
0.0
  0
LINE
  5
F1
330
17
100
AcDbEntity
  8
COTA
 62
0
370
25
100
AcDbLine
 10
5313.813832604284
 20
4451.470216366004
 30
0.0
 11
5316.813832604284
 21
4454.470216366004
 31
0.0
  0
LINE
  5
F2
330
17
100
AcDbEntity
  8
COTA
 62
4
370
25
100
AcDbLine
 10
4903.813832604285
 20
4476.510142344149
 30
0.0
 11
4903.813832604285
 21
4416.431705677271
 31
0.0
  0
LINE
  5
F3
330
17
100
AcDbEntity
  8
COTA
 62
4
370
25
100
AcDbLine
 10
5315.313832604284
 20
4476.510142344174
 30
0.0
 11
5315.313832604284
 21
4416.431705677271
 31
0.0
  0
LINE
  5
F4
330
17
100
AcDbEntity
  8
COTA
 62
4
370
25
100
AcDbLine
 10
4903.813832604285
 20
4419.431705677271
 30
0.0
 11
5315.313832604284
 21
4419.431705677271
 31
0.0
  0
LINE
  5
F5
330
17
100
AcDbEntity
  8
COTA
 62
0
370
25
100
AcDbLine
 10
4905.313832604285
 20
4420.931705677271
 30
0.0
 11
4902.313832604285
 21
4417.931705677271
 31
0.0
  0
LINE
  5
F6
330
17
100
AcDbEntity
  8
COTA
 62
0
370
25
100
AcDbLine
 10
5313.813832604284
 20
4417.931705677271
 30
0.0
 11
5316.813832604284
 21
4420.931705677271
 31
0.0
  0
LINE
  5
F7
330
17
100
AcDbEntity
  8
COTA
 62
4
370
25
100
AcDbLine
 10
5757.730886518122
 20
4519.510142344155
 30
0.0
 11
5779.089155538011
 21
4519.510142344155
 31
0.0
  0
LINE
  5
F8
330
17
100
AcDbEntity
  8
COTA
 62
4
370
25
100
AcDbLine
 10
5757.730886518118
 20
4479.510142344155
 30
0.0
 11
5779.089155538011
 21
4479.510142344155
 31
0.0
  0
LINE
  5
F9
330
17
100
AcDbEntity
  8
COTA
 62
4
370
25
100
AcDbLine
 10
5776.089155538011
 20
4519.510142344155
 30
0.0
 11
5776.089155538011
 21
4479.510142344155
 31
0.0
  0
LINE
  5
FA
330
17
100
AcDbEntity
  8
COTA
 62
0
370
25
100
AcDbLine
 10
5777.589155538011
 20
4518.010142344155
 30
0.0
 11
5774.589155538011
 21
4521.010142344155
 31
0.0
  0
LINE
  5
FB
330
17
100
AcDbEntity
  8
COTA
 62
0
370
25
100
AcDbLine
 10
5774.589155538011
 20
4481.010142344155
 30
0.0
 11
5777.589155538011
 21
4478.010142344155
 31
0.0
  0
LINE
  5
FC
330
17
100
AcDbEntity
  8
COTA
 62
4
370
25
100
AcDbLine
 10
5757.730886518124
 20
4519.510142344155
 30
0.0
 11
5779.089155537949
 21
4519.510142344155
 31
0.0
  0
LINE
  5
FD
330
17
100
AcDbEntity
  8
COTA
 62
4
370
25
100
AcDbLine
 10
5757.730886518124
 20
4531.510142344155
 30
0.0
 11
5779.089155537949
 21
4531.510142344155
 31
0.0
  0
LINE
  5
FE
330
17
100
AcDbEntity
  8
COTA
 62
4
370
25
100
AcDbLine
 10
5776.089155537949
 20
4519.510142344155
 30
0.0
 11
5776.089155537949
 21
4531.510142344155
 31
0.0
  0
LINE
  5
FF
330
17
100
AcDbEntity
  8
COTA
 62
0
370
25
100
AcDbLine
 10
5774.589155537949
 20
4521.010142344155
 30
0.0
 11
5777.589155537949
 21
4518.010142344155
 31
0.0
  0
LINE
  5
100
330
17
100
AcDbEntity
  8
COTA
 62
0
370
25
100
AcDbLine
 10
5777.589155537949
 20
4530.010142344155
 30
0.0
 11
5774.589155537949
 21
4533.010142344155
 31
0.0
  0
LINE
  5
101
330
17
100
AcDbEntity
  8
COTA
 62
4
370
25
100
AcDbLine
 10
5757.730886518124
 20
4531.510142344155
 30
0.0
 11
5779.089155538004
 21
4531.510142344155
 31
0.0
  0
LINE
  5
102
330
17
100
AcDbEntity
  8
COTA
 62
4
370
25
100
AcDbLine
 10
5757.730886518124
 20
4538.510142344154
 30
0.0
 11
5779.089155538004
 21
4538.510142344154
 31
0.0
  0
LINE
  5
103
330
17
100
AcDbEntity
  8
COTA
 62
4
370
25
100
AcDbLine
 10
5776.089155538004
 20
4531.510142344155
 30
0.0
 11
5776.089155538004
 21
4538.510142344154
 31
0.0
  0
LINE
  5
104
330
17
100
AcDbEntity
  8
COTA
 62
4
370
25
100
AcDbLine
 10
5776.089155538004
 20
4538.510142344154
 30
0.0
 11
5776.089155538004
 21
4553.241136496201
 31
0.0
  0
LINE
  5
105
330
17
100
AcDbEntity
  8
COTA
 62
0
370
25
100
AcDbLine
 10
5774.589155538004
 20
4533.010142344155
 30
0.0
 11
5777.589155538004
 21
4530.010142344155
 31
0.0
  0
LINE
  5
106
330
17
100
AcDbEntity
  8
COTA
 62
0
370
25
100
AcDbLine
 10
5777.589155538004
 20
4537.010142344154
 30
0.0
 11
5774.589155538004
 21
4540.010142344154
 31
0.0
  0
LINE
  5
107
330
17
100
AcDbEntity
  8
COTA
 62
4
370
25
100
AcDbLine
 10
5757.730886518124
 20
4538.510142344154
 30
0.0
 11
5805.08319398895
 21
4538.510142344154
 31
0.0
  0
LINE
  5
108
330
17
100
AcDbEntity
  8
COTA
 62
4
370
25
100
AcDbLine
 10
5757.73088651812
 20
4479.510142344155
 30
0.0
 11
5805.08319398895
 21
4479.510142344155
 31
0.0
  0
LINE
  5
109
330
17
100
AcDbEntity
  8
COTA
 62
4
370
25
100
AcDbLine
 10
5802.08319398895
 20
4538.510142344154
 30
0.0
 11
5802.08319398895
 21
4479.510142344155
 31
0.0
  0
LINE
  5
10A
330
17
100
AcDbEntity
  8
COTA
 62
0
370
25
100
AcDbLine
 10
5803.58319398895
 20
4537.010142344154
 30
0.0
 11
5800.58319398895
 21
4540.010142344154
 31
0.0
  0
LINE
  5
10B
330
17
100
AcDbEntity
  8
COTA
 62
0
370
25
100
AcDbLine
 10
5800.58319398895
 20
4481.010142344155
 30
0.0
 11
5803.58319398895
 21
4478.010142344155
 31
0.0
  0
LINE
  5
10C
330
17
100
AcDbEntity
  8
COTA
 62
4
370
25
100
AcDbLine
 10
5341.730886518128
 20
4476.510142344149
 30
0.0
 11
5341.730886518128
 21
4449.970216365993
 31
0.0
  0
LINE
  5
10D
330
17
100
AcDbEntity
  8
COTA
 62
4
370
25
100
AcDbLine
 10
5585.730886518128
 20
4476.510142344178
 30
0.0
 11
5585.730886518128
 21
4449.970216365993
 31
0.0
  0
LINE
  5
10E
330
17
100
AcDbEntity
  8
COTA
 62
4
370
25
100
AcDbLine
 10
5341.730886518128
 20
4452.970216365994
 30
0.0
 11
5585.730886518128
 21
4452.970216365994
 31
0.0
  0
LINE
  5
10F
330
17
100
AcDbEntity
  8
COTA
 62
0
370
25
100
AcDbLine
 10
5343.230886518128
 20
4454.470216365994
 30
0.0
 11
5340.230886518128
 21
4451.470216365994
 31
0.0
  0
LINE
  5
110
330
17
100
AcDbEntity
  8
COTA
 62
0
370
25
100
AcDbLine
 10
5584.230886518128
 20
4451.470216365994
 30
0.0
 11
5587.230886518128
 21
4454.470216365994
 31
0.0
  0
LINE
  5
111
330
17
100
AcDbEntity
  8
COTA
 62
4
370
25
100
AcDbLine
 10
5585.730886518128
 20
4476.510142344178
 30
0.0
 11
5585.730886518128
 21
4449.970216366005
 31
0.0
  0
LINE
  5
112
330
17
100
AcDbEntity
  8
COTA
 62
4
370
25
100
AcDbLine
 10
5754.730886518128
 20
4476.510142344174
 30
0.0
 11
5754.730886518128
 21
4449.970216366005
 31
0.0
  0
LINE
  5
113
330
17
100
AcDbEntity
  8
COTA
 62
4
370
25
100
AcDbLine
 10
5585.730886518128
 20
4452.970216366004
 30
0.0
 11
5754.730886518128
 21
4452.970216366004
 31
0.0
  0
LINE
  5
114
330
17
100
AcDbEntity
  8
COTA
 62
0
370
25
100
AcDbLine
 10
5587.230886518128
 20
4454.470216366004
 30
0.0
 11
5584.230886518128
 21
4451.470216366004
 31
0.0
  0
LINE
  5
115
330
17
100
AcDbEntity
  8
COTA
 62
0
370
25
100
AcDbLine
 10
5753.230886518128
 20
4451.470216366004
 30
0.0
 11
5756.230886518128
 21
4454.470216366004
 31
0.0
  0
LINE
  5
116
330
17
100
AcDbEntity
  8
COTA
 62
4
370
25
100
AcDbLine
 10
5341.730886518128
 20
4476.510142344149
 30
0.0
 11
5341.730886518128
 21
4416.431705677271
 31
0.0
  0
LINE
  5
117
330
17
100
AcDbEntity
  8
COTA
 62
4
370
25
100
AcDbLine
 10
5754.730886518128
 20
4476.510142344174
 30
0.0
 11
5754.730886518128
 21
4416.431705677271
 31
0.0
  0
LINE
  5
118
330
17
100
AcDbEntity
  8
COTA
 62
4
370
25
100
AcDbLine
 10
5341.730886518128
 20
4419.431705677271
 30
0.0
 11
5754.730886518128
 21
4419.431705677271
 31
0.0
  0
LINE
  5
119
330
17
100
AcDbEntity
  8
COTA
 62
0
370
25
100
AcDbLine
 10
5343.230886518128
 20
4420.931705677271
 30
0.0
 11
5340.230886518128
 21
4417.931705677271
 31
0.0
  0
LINE
  5
11A
330
17
100
AcDbEntity
  8
COTA
 62
0
370
25
100
AcDbLine
 10
5753.230886518128
 20
4417.931705677271
 30
0.0
 11
5756.230886518128
 21
4420.931705677271
 31
0.0
  0
LINE
  5
11B
330
17
100
AcDbEntity
  8
COTA
 62
4
370
25
100
AcDbLine
 10
4903.813832604285
 20
4287.753288568431
 30
0.0
 11
4903.813832604285
 21
4261.213362590276
 31
0.0
  0
LINE
  5
11C
330
17
100
AcDbEntity
  8
COTA
 62
4
370
25
100
AcDbLine
 10
5147.813832604285
 20
4287.753288568461
 30
0.0
 11
5147.813832604285
 21
4261.213362590276
 31
0.0
  0
LINE
  5
11D
330
17
100
AcDbEntity
  8
COTA
 62
4
370
25
100
AcDbLine
 10
4903.813832604285
 20
4264.213362590276
 30
0.0
 11
5147.813832604285
 21
4264.213362590276
 31
0.0
  0
LINE
  5
11E
330
17
100
AcDbEntity
  8
COTA
 62
0
370
25
100
AcDbLine
 10
4905.313832604285
 20
4265.713362590276
 30
0.0
 11
4902.313832604285
 21
4262.713362590276
 31
0.0
  0
LINE
  5
11F
330
17
100
AcDbEntity
  8
COTA
 62
0
370
25
100
AcDbLine
 10
5146.313832604285
 20
4262.713362590276
 30
0.0
 11
5149.313832604285
 21
4265.713362590276
 31
0.0
  0
LINE
  5
120
330
17
100
AcDbEntity
  8
COTA
 62
4
370
25
100
AcDbLine
 10
5147.813832604285
 20
4287.753288568461
 30
0.0
 11
5147.813832604285
 21
4261.213362590287
 31
0.0
  0
LINE
  5
121
330
17
100
AcDbEntity
  8
COTA
 62
4
370
25
100
AcDbLine
 10
5316.813832604284
 20
4287.753288568456
 30
0.0
 11
5316.813832604284
 21
4261.213362590287
 31
0.0
  0
LINE
  5
122
330
17
100
AcDbEntity
  8
COTA
 62
4
370
25
100
AcDbLine
 10
5147.813832604285
 20
4264.213362590287
 30
0.0
 11
5316.813832604284
 21
4264.213362590287
 31
0.0
  0
LINE
  5
123
330
17
100
AcDbEntity
  8
COTA
 62
0
370
25
100
AcDbLine
 10
5149.313832604285
 20
4265.713362590287
 30
0.0
 11
5146.313832604285
 21
4262.713362590287
 31
0.0
  0
LINE
  5
124
330
17
100
AcDbEntity
  8
COTA
 62
0
370
25
100
AcDbLine
 10
5315.313832604284
 20
4262.713362590287
 30
0.0
 11
5318.313832604284
 21
4265.713362590287
 31
0.0
  0
LINE
  5
125
330
17
100
AcDbEntity
  8
COTA
 62
4
370
25
100
AcDbLine
 10
4903.813832604285
 20
4287.753288568431
 30
0.0
 11
4903.813832604285
 21
4237.037007117572
 31
0.0
  0
LINE
  5
126
330
17
100
AcDbEntity
  8
COTA
 62
4
370
25
100
AcDbLine
 10
5316.813832604284
 20
4287.753288568456
 30
0.0
 11
5316.813832604284
 21
4237.037007117572
 31
0.0
  0
LINE
  5
127
330
17
100
AcDbEntity
  8
COTA
 62
4
370
25
100
AcDbLine
 10
4903.813832604285
 20
4240.037007117572
 30
0.0
 11
5316.813832604284
 21
4240.037007117572
 31
0.0
  0
LINE
  5
128
330
17
100
AcDbEntity
  8
COTA
 62
0
370
25
100
AcDbLine
 10
4905.313832604285
 20
4241.537007117572
 30
0.0
 11
4902.313832604285
 21
4238.537007117572
 31
0.0
  0
LINE
  5
129
330
17
100
AcDbEntity
  8
COTA
 62
0
370
25
100
AcDbLine
 10
5315.313832604284
 20
4238.537007117572
 30
0.0
 11
5318.313832604284
 21
4241.537007117572
 31
0.0
  0
LINE
  5
12A
330
17
100
AcDbEntity
  8
COTA
 62
4
370
25
100
AcDbLine
 10
5336.035513978017
 20
4287.753288568431
 30
0.0
 11
5336.035513978017
 21
4261.213362590276
 31
0.0
  0
LINE
  5
12B
330
17
100
AcDbEntity
  8
COTA
 62
4
370
25
100
AcDbLine
 10
5580.035513978017
 20
4287.753288568461
 30
0.0
 11
5580.035513978017
 21
4261.213362590276
 31
0.0
  0
LINE
  5
12C
330
17
100
AcDbEntity
  8
COTA
 62
4
370
25
100
AcDbLine
 10
5336.035513978017
 20
4264.213362590276
 30
0.0
 11
5580.035513978017
 21
4264.213362590276
 31
0.0
  0
LINE
  5
12D
330
17
100
AcDbEntity
  8
COTA
 62
0
370
25
100
AcDbLine
 10
5337.535513978017
 20
4265.713362590276
 30
0.0
 11
5334.535513978017
 21
4262.713362590276
 31
0.0
  0
LINE
  5
12E
330
17
100
AcDbEntity
  8
COTA
 62
0
370
25
100
AcDbLine
 10
5578.535513978017
 20
4262.713362590276
 30
0.0
 11
5581.535513978017
 21
4265.713362590276
 31
0.0
  0
LINE
  5
12F
330
17
100
AcDbEntity
  8
COTA
 62
4
370
25
100
AcDbLine
 10
5580.035513978017
 20
4287.753288568461
 30
0.0
 11
5580.035513978017
 21
4261.213362590287
 31
0.0
  0
LINE
  5
130
330
17
100
AcDbEntity
  8
COTA
 62
4
370
25
100
AcDbLine
 10
5749.035513978017
 20
4287.753288568456
 30
0.0
 11
5749.035513978017
 21
4261.213362590287
 31
0.0
  0
LINE
  5
131
330
17
100
AcDbEntity
  8
COTA
 62
4
370
25
100
AcDbLine
 10
5580.035513978017
 20
4264.213362590287
 30
0.0
 11
5749.035513978017
 21
4264.213362590287
 31
0.0
  0
LINE
  5
132
330
17
100
AcDbEntity
  8
COTA
 62
0
370
25
100
AcDbLine
 10
5581.535513978017
 20
4265.713362590287
 30
0.0
 11
5578.535513978017
 21
4262.713362590287
 31
0.0
  0
LINE
  5
133
330
17
100
AcDbEntity
  8
COTA
 62
0
370
25
100
AcDbLine
 10
5747.535513978017
 20
4262.713362590287
 30
0.0
 11
5750.535513978017
 21
4265.713362590287
 31
0.0
  0
LINE
  5
134
330
17
100
AcDbEntity
  8
COTA
 62
4
370
25
100
AcDbLine
 10
5336.035513978017
 20
4287.753288568431
 30
0.0
 11
5336.035513978017
 21
4237.037007117572
 31
0.0
  0
LINE
  5
135
330
17
100
AcDbEntity
  8
COTA
 62
4
370
25
100
AcDbLine
 10
5749.035513978017
 20
4287.753288568456
 30
0.0
 11
5749.035513978017
 21
4237.037007117572
 31
0.0
  0
LINE
  5
136
330
17
100
AcDbEntity
  8
COTA
 62
4
370
25
100
AcDbLine
 10
5336.035513978017
 20
4240.037007117572
 30
0.0
 11
5749.035513978017
 21
4240.037007117572
 31
0.0
  0
LINE
  5
137
330
17
100
AcDbEntity
  8
COTA
 62
0
370
25
100
AcDbLine
 10
5337.535513978017
 20
4241.537007117572
 30
0.0
 11
5334.535513978017
 21
4238.537007117572
 31
0.0
  0
LINE
  5
138
330
17
100
AcDbEntity
  8
COTA
 62
0
370
25
100
AcDbLine
 10
5747.535513978017
 20
4238.537007117572
 30
0.0
 11
5750.535513978017
 21
4241.537007117572
 31
0.0
  0
LINE
  5
139
330
17
100
AcDbEntity
  8
COTA
 62
4
370
25
100
AcDbLine
 10
5752.035513978011
 20
4330.753288568437
 30
0.0
 11
5773.393782997919
 21
4330.753288568437
 31
0.0
  0
LINE
  5
13A
330
17
100
AcDbEntity
  8
COTA
 62
4
370
25
100
AcDbLine
 10
5752.035513978007
 20
4290.753288568437
 30
0.0
 11
5773.393782997919
 21
4290.753288568437
 31
0.0
  0
LINE
  5
13B
330
17
100
AcDbEntity
  8
COTA
 62
4
370
25
100
AcDbLine
 10
5770.393782997919
 20
4330.753288568437
 30
0.0
 11
5770.393782997919
 21
4290.753288568437
 31
0.0
  0
LINE
  5
13C
330
17
100
AcDbEntity
  8
COTA
 62
0
370
25
100
AcDbLine
 10
5771.893782997919
 20
4329.253288568437
 30
0.0
 11
5768.893782997919
 21
4332.253288568437
 31
0.0
  0
LINE
  5
13D
330
17
100
AcDbEntity
  8
COTA
 62
0
370
25
100
AcDbLine
 10
5768.893782997919
 20
4292.253288568437
 30
0.0
 11
5771.893782997919
 21
4289.253288568437
 31
0.0
  0
LINE
  5
13E
330
17
100
AcDbEntity
  8
COTA
 62
4
370
25
100
AcDbLine
 10
5752.035513978013
 20
4330.753288568437
 30
0.0
 11
5773.393782997839
 21
4330.753288568437
 31
0.0
  0
LINE
  5
13F
330
17
100
AcDbEntity
  8
COTA
 62
4
370
25
100
AcDbLine
 10
5752.035513978013
 20
4342.753288568437
 30
0.0
 11
5773.393782997839
 21
4342.753288568437
 31
0.0
  0
LINE
  5
140
330
17
100
AcDbEntity
  8
COTA
 62
4
370
25
100
AcDbLine
 10
5770.393782997839
 20
4330.753288568437
 30
0.0
 11
5770.393782997839
 21
4342.753288568437
 31
0.0
  0
LINE
  5
141
330
17
100
AcDbEntity
  8
COTA
 62
0
370
25
100
AcDbLine
 10
5768.893782997839
 20
4332.253288568437
 30
0.0
 11
5771.893782997839
 21
4329.253288568437
 31
0.0
  0
LINE
  5
142
330
17
100
AcDbEntity
  8
COTA
 62
0
370
25
100
AcDbLine
 10
5771.893782997839
 20
4341.253288568437
 30
0.0
 11
5768.893782997839
 21
4344.253288568437
 31
0.0
  0
LINE
  5
143
330
17
100
AcDbEntity
  8
COTA
 62
4
370
25
100
AcDbLine
 10
5752.035513978013
 20
4342.753288568437
 30
0.0
 11
5773.393782997911
 21
4342.753288568437
 31
0.0
  0
LINE
  5
144
330
17
100
AcDbEntity
  8
COTA
 62
4
370
25
100
AcDbLine
 10
5752.035513978013
 20
4349.753288568437
 30
0.0
 11
5773.393782997911
 21
4349.753288568437
 31
0.0
  0
LINE
  5
145
330
17
100
AcDbEntity
  8
COTA
 62
4
370
25
100
AcDbLine
 10
5770.393782997911
 20
4342.753288568437
 30
0.0
 11
5770.393782997911
 21
4349.753288568437
 31
0.0
  0
LINE
  5
146
330
17
100
AcDbEntity
  8
COTA
 62
4
370
25
100
AcDbLine
 10
5770.393782997911
 20
4349.753288568437
 30
0.0
 11
5770.393782997911
 21
4364.484282720484
 31
0.0
  0
LINE
  5
147
330
17
100
AcDbEntity
  8
COTA
 62
0
370
25
100
AcDbLine
 10
5768.893782997911
 20
4344.253288568437
 30
0.0
 11
5771.893782997911
 21
4341.253288568437
 31
0.0
  0
LINE
  5
148
330
17
100
AcDbEntity
  8
COTA
 62
0
370
25
100
AcDbLine
 10
5771.893782997911
 20
4348.253288568437
 30
0.0
 11
5768.893782997911
 21
4351.253288568437
 31
0.0
  0
LINE
  5
149
330
17
100
AcDbEntity
  8
COTA
 62
4
370
25
100
AcDbLine
 10
5752.035513978013
 20
4349.753288568437
 30
0.0
 11
5799.387821448857
 21
4349.753288568437
 31
0.0
  0
LINE
  5
14A
330
17
100
AcDbEntity
  8
COTA
 62
4
370
25
100
AcDbLine
 10
5752.035513978009
 20
4290.753288568437
 30
0.0
 11
5799.387821448857
 21
4290.753288568437
 31
0.0
  0
LINE
  5
14B
330
17
100
AcDbEntity
  8
COTA
 62
4
370
25
100
AcDbLine
 10
5796.387821448858
 20
4349.753288568437
 30
0.0
 11
5796.387821448858
 21
4290.753288568437
 31
0.0
  0
LINE
  5
14C
330
17
100
AcDbEntity
  8
COTA
 62
0
370
25
100
AcDbLine
 10
5797.887821448858
 20
4348.253288568437
 30
0.0
 11
5794.887821448858
 21
4351.253288568437
 31
0.0
  0
LINE
  5
14D
330
17
100
AcDbEntity
  8
COTA
 62
0
370
25
100
AcDbLine
 10
5794.887821448858
 20
4292.253288568437
 30
0.0
 11
5797.887821448858
 21
4289.253288568437
 31
0.0
  0
LINE
  5
14E
330
17
100
AcDbEntity
  8
COTA
 62
4
370
25
100
AcDbLine
 10
4903.345475679062
 20
4107.044240496737
 30
0.0
 11
4903.345475679062
 21
4080.504314518582
 31
0.0
  0
LINE
  5
14F
330
17
100
AcDbEntity
  8
COTA
 62
4
370
25
100
AcDbLine
 10
4967.345475679062
 20
4107.044240496766
 30
0.0
 11
4967.345475679062
 21
4080.504314518582
 31
0.0
  0
LINE
  5
150
330
17
100
AcDbEntity
  8
COTA
 62
4
370
25
100
AcDbLine
 10
4903.345475679062
 20
4083.504314518582
 30
0.0
 11
4967.345475679062
 21
4083.504314518582
 31
0.0
  0
LINE
  5
151
330
17
100
AcDbEntity
  8
COTA
 62
0
370
25
100
AcDbLine
 10
4904.845475679062
 20
4085.004314518582
 30
0.0
 11
4901.845475679062
 21
4082.004314518582
 31
0.0
  0
LINE
  5
152
330
17
100
AcDbEntity
  8
COTA
 62
0
370
25
100
AcDbLine
 10
4965.845475679062
 20
4082.004314518582
 30
0.0
 11
4968.845475679062
 21
4085.004314518582
 31
0.0
  0
LINE
  5
153
330
17
100
AcDbEntity
  8
COTA
 62
4
370
25
100
AcDbLine
 10
4967.345475679062
 20
4107.044240496766
 30
0.0
 11
4967.345475679062
 21
4080.504314518592
 31
0.0
  0
LINE
  5
154
330
17
100
AcDbEntity
  8
COTA
 62
4
370
25
100
AcDbLine
 10
5059.345475679061
 20
4107.044240496763
 30
0.0
 11
5059.345475679061
 21
4080.504314518592
 31
0.0
  0
LINE
  5
155
330
17
100
AcDbEntity
  8
COTA
 62
4
370
25
100
AcDbLine
 10
4967.345475679062
 20
4083.504314518592
 30
0.0
 11
5059.345475679061
 21
4083.504314518592
 31
0.0
  0
LINE
  5
156
330
17
100
AcDbEntity
  8
COTA
 62
0
370
25
100
AcDbLine
 10
4968.845475679062
 20
4085.004314518592
 30
0.0
 11
4965.845475679062
 21
4082.004314518592
 31
0.0
  0
LINE
  5
157
330
17
100
AcDbEntity
  8
COTA
 62
0
370
25
100
AcDbLine
 10
5057.845475679061
 20
4082.004314518592
 30
0.0
 11
5060.845475679061
 21
4085.004314518592
 31
0.0
  0
LINE
  5
158
330
17
100
AcDbEntity
  8
COTA
 62
4
370
25
100
AcDbLine
 10
4903.345475679062
 20
4107.044240496737
 30
0.0
 11
4903.345475679062
 21
4056.327959045877
 31
0.0
  0
LINE
  5
159
330
17
100
AcDbEntity
  8
COTA
 62
4
370
25
100
AcDbLine
 10
5059.345475679061
 20
4107.044240496763
 30
0.0
 11
5059.345475679061
 21
4056.327959045877
 31
0.0
  0
LINE
  5
15A
330
17
100
AcDbEntity
  8
COTA
 62
4
370
25
100
AcDbLine
 10
5062.345475679056
 20
4150.044240496742
 30
0.0
 11
5083.703744698983
 21
4150.044240496742
 31
0.0
  0
LINE
  5
15B
330
17
100
AcDbEntity
  8
COTA
 62
4
370
25
100
AcDbLine
 10
5062.345475679052
 20
4110.044240496742
 30
0.0
 11
5083.703744698983
 21
4110.044240496742
 31
0.0
  0
LINE
  5
15C
330
17
100
AcDbEntity
  8
COTA
 62
4
370
25
100
AcDbLine
 10
5080.703744698983
 20
4150.044240496742
 30
0.0
 11
5080.703744698983
 21
4110.044240496742
 31
0.0
  0
LINE
  5
15D
330
17
100
AcDbEntity
  8
COTA
 62
0
370
25
100
AcDbLine
 10
5082.203744698983
 20
4148.544240496742
 30
0.0
 11
5079.203744698983
 21
4151.544240496742
 31
0.0
  0
LINE
  5
15E
330
17
100
AcDbEntity
  8
COTA
 62
0
370
25
100
AcDbLine
 10
5079.203744698983
 20
4111.544240496742
 30
0.0
 11
5082.203744698983
 21
4108.544240496742
 31
0.0
  0
LINE
  5
15F
330
17
100
AcDbEntity
  8
COTA
 62
4
370
25
100
AcDbLine
 10
5062.345475679058
 20
4150.044240496742
 30
0.0
 11
5083.703744698883
 21
4150.044240496742
 31
0.0
  0
LINE
  5
160
330
17
100
AcDbEntity
  8
COTA
 62
4
370
25
100
AcDbLine
 10
5062.345475679058
 20
4162.044240496743
 30
0.0
 11
5083.703744698883
 21
4162.044240496743
 31
0.0
  0
LINE
  5
161
330
17
100
AcDbEntity
  8
COTA
 62
4
370
25
100
AcDbLine
 10
5080.703744698883
 20
4150.044240496742
 30
0.0
 11
5080.703744698883
 21
4162.044240496743
 31
0.0
  0
LINE
  5
162
330
17
100
AcDbEntity
  8
COTA
 62
0
370
25
100
AcDbLine
 10
5079.203744698883
 20
4151.544240496742
 30
0.0
 11
5082.203744698883
 21
4148.544240496742
 31
0.0
  0
LINE
  5
163
330
17
100
AcDbEntity
  8
COTA
 62
0
370
25
100
AcDbLine
 10
5082.203744698883
 20
4160.544240496743
 30
0.0
 11
5079.203744698883
 21
4163.544240496743
 31
0.0
  0
LINE
  5
164
330
17
100
AcDbEntity
  8
COTA
 62
4
370
25
100
AcDbLine
 10
5062.345475679058
 20
4162.044240496743
 30
0.0
 11
5083.703744698976
 21
4162.044240496743
 31
0.0
  0
LINE
  5
165
330
17
100
AcDbEntity
  8
COTA
 62
4
370
25
100
AcDbLine
 10
5062.345475679058
 20
4169.044240496742
 30
0.0
 11
5083.703744698976
 21
4169.044240496742
 31
0.0
  0
LINE
  5
166
330
17
100
AcDbEntity
  8
COTA
 62
4
370
25
100
AcDbLine
 10
5080.703744698976
 20
4162.044240496743
 30
0.0
 11
5080.703744698976
 21
4169.044240496742
 31
0.0
  0
LINE
  5
167
330
17
100
AcDbEntity
  8
COTA
 62
4
370
25
100
AcDbLine
 10
5080.703744698976
 20
4169.044240496742
 30
0.0
 11
5080.703744698976
 21
4183.775234648789
 31
0.0
  0
LINE
  5
168
330
17
100
AcDbEntity
  8
COTA
 62
0
370
25
100
AcDbLine
 10
5079.203744698976
 20
4163.544240496743
 30
0.0
 11
5082.203744698976
 21
4160.544240496743
 31
0.0
  0
LINE
  5
169
330
17
100
AcDbEntity
  8
COTA
 62
0
370
25
100
AcDbLine
 10
5082.203744698976
 20
4167.544240496742
 30
0.0
 11
5079.203744698976
 21
4170.544240496742
 31
0.0
  0
LINE
  5
16A
330
17
100
AcDbEntity
  8
COTA
 62
4
370
25
100
AcDbLine
 10
5062.345475679058
 20
4169.044240496742
 30
0.0
 11
5109.697783149922
 21
4169.044240496742
 31
0.0
  0
LINE
  5
16B
330
17
100
AcDbEntity
  8
COTA
 62
4
370
25
100
AcDbLine
 10
5062.345475679054
 20
4110.044240496742
 30
0.0
 11
5109.697783149922
 21
4110.044240496742
 31
0.0
  0
LINE
  5
16C
330
17
100
AcDbEntity
  8
COTA
 62
4
370
25
100
AcDbLine
 10
5106.697783149922
 20
4169.044240496742
 30
0.0
 11
5106.697783149922
 21
4110.044240496742
 31
0.0
  0
LINE
  5
16D
330
17
100
AcDbEntity
  8
COTA
 62
0
370
25
100
AcDbLine
 10
5108.197783149922
 20
4167.544240496742
 30
0.0
 11
5105.197783149922
 21
4170.544240496742
 31
0.0
  0
LINE
  5
16E
330
17
100
AcDbEntity
  8
COTA
 62
0
370
25
100
AcDbLine
 10
5105.197783149922
 20
4111.544240496742
 30
0.0
 11
5108.197783149922
 21
4108.544240496742
 31
0.0
  0
LINE
  5
16F
330
17
100
AcDbEntity
  8
COTA
 62
4
370
25
100
AcDbLine
 10
5641.149876868985
 20
4696.634823007229
 30
0.0
 11
5641.149876868985
 21
4696.900822173446
 31
0.0
  0
LINE
  5
170
330
17
100
AcDbEntity
  8
COTA
 62
4
370
25
100
AcDbLine
 10
5535.649876868985
 20
4696.634823007229
 30
0.0
 11
5535.649876868985
 21
4696.900822173446
 31
0.0
  0
LINE
  5
171
330
17
100
AcDbEntity
  8
COTA
 62
4
370
25
100
AcDbLine
 10
5641.149876868985
 20
4693.900822173445
 30
0.0
 11
5535.649876868985
 21
4693.900822173445
 31
0.0
  0
LINE
  5
172
330
17
100
AcDbEntity
  8
COTA
 62
0
370
25
100
AcDbLine
 10
5639.649876868985
 20
4692.400822173445
 30
0.0
 11
5642.649876868985
 21
4695.400822173445
 31
0.0
  0
LINE
  5
173
330
17
100
AcDbEntity
  8
COTA
 62
0
370
25
100
AcDbLine
 10
5537.149876868985
 20
4695.400822173445
 30
0.0
 11
5534.149876868985
 21
4692.400822173445
 31
0.0
  0
LINE
  5
174
330
17
100
AcDbEntity
  8
Texto Seção
 62
252
370
15
100
AcDbLine
 10
4712.383624303038
 20
4658.365869424248
 30
0.0
 11
4712.383624303038
 21
4783.365869424248
 31
0.0
  0
LWPOLYLINE
  5
175
330
17
100
AcDbEntity
  8
Painéis
 62
200
370
25
100
AcDbPolyline
 90
4
 70
1
 10
4733.18362430304
 20
4620.365869424227
 10
4729.183624303041
 20
4620.365869424227
 10
4729.183624303041
 20
4540.365869424248
 10
4733.18362430304
 20
4540.365869424248
  0
LWPOLYLINE
  5
176
330
17
100
AcDbEntity
  8
Madeira
 62
126
370
18
100
AcDbPolyline
 90
4
 70
1
 10
4701.18362430304
 20
4540.365869424248
 10
4701.18362430304
 20
4544.765869424242
 10
4711.183624303041
 20
4544.765869424242
 10
4711.183624303041
 20
4540.365869424248
  0
LWPOLYLINE
  5
177
330
17
100
AcDbEntity
  8
Painéis
 62
200
370
25
100
AcDbPolyline
 90
4
 70
1
 10
4701.18362430304
 20
4544.765869424242
 10
4701.18362430304
 20
4548.365869424248
 10
4729.183624303041
 20
4548.365869424248
 10
4729.183624303041
 20
4544.765869424242
  0
LWPOLYLINE
  5
178
330
17
100
AcDbEntity
  8
Madeira
 62
126
370
18
100
AcDbPolyline
 90
4
 70
1
 10
4729.183624303041
 20
4540.365869424248
 10
4729.183624303041
 20
4544.765869424242
 10
4719.183624303041
 20
4544.765869424242
 10
4719.183624303041
 20
4540.365869424248
  0
LWPOLYLINE
  5
179
330
17
100
AcDbEntity
  8
Painéis
 62
200
370
25
100
AcDbPolyline
 90
4
 70
1
 10
4697.18362430303
 20
4658.365869424248
 10
4701.18362430303
 20
4658.365869424248
 10
4701.18362430304
 20
4540.365869424248
 10
4697.183624303041
 20
4540.365869424248
  0
LWPOLYLINE
  5
17A
330
17
100
AcDbEntity
  8
Painéis
 62
200
370
25
100
AcDbPolyline
 90
4
 70
1
 10
4729.183624303041
 20
4620.365869424227
 10
4729.183624303041
 20
4624.365869424226
 10
4784.783624303018
 20
4624.365869424219
 10
4784.783624303018
 20
4620.365869424219
  0
LWPOLYLINE
  5
17B
330
17
100
AcDbEntity
  8
CONCRETO
 62
251
370
25
100
AcDbPolyline
 90
8
 70
1
 10
4784.783624303018
 20
4624.365869424219
 10
4784.783624303018
 20
4644.365869424248
 10
4729.583624303086
 20
4644.365869424248
 10
4729.583624303086
 20
4658.365869424248
 10
4701.183624303099
 20
4658.365869424248
 10
4701.183624303099
 20
4548.365869424248
 10
4729.183624303041
 20
4548.365869424248
 10
4729.183624303041
 20
4624.365869424226
  0
LWPOLYLINE
  5
17C
330
17
100
AcDbEntity
  8
Painéis
 62
200
370
25
100
AcDbPolyline
 90
4
 70
1
 10
4733.183624303092
 20
4658.365869424248
 10
4729.583624303086
 20
4658.365869424248
 10
4729.583624303086
 20
4644.365869424248
 10
4733.183624303092
 20
4644.365869424248
  0
LWPOLYLINE
  5
17D
330
17
100
AcDbEntity
  8
Madeira
 62
126
370
18
100
AcDbPolyline
 90
4
 70
1
 10
4737.583624303086
 20
4644.365869424248
 10
4733.183624303092
 20
4644.365869424248
 10
4733.183624303092
 20
4658.365869424248
 10
4737.583624303086
 20
4658.365869424248
  0
LWPOLYLINE
  5
17E
330
17
100
AcDbEntity
  8
Madeira
 62
126
370
18
100
AcDbPolyline
 90
4
 70
1
 10
4737.583624303035
 20
4606.365869424227
 10
4733.18362430304
 20
4606.365869424227
 10
4733.18362430304
 20
4620.365869424227
 10
4737.583624303035
 20
4620.365869424227
  0
LWPOLYLINE
  5
17F
330
17
100
AcDbEntity
  8
Madeira
 62
126
370
18
100
AcDbPolyline
 90
4
 70
1
 10
4697.18362430303
 20
4644.365869424248
 10
4692.783624303036
 20
4644.365869424248
 10
4692.783624303036
 20
4658.365869424248
 10
4697.18362430303
 20
4658.365869424248
  0
LWPOLYLINE
  5
180
330
17
100
AcDbEntity
  8
Madeira
 62
126
370
18
100
AcDbPolyline
 90
4
 70
1
 10
4697.183624303035
 20
4596.335926952554
 10
4692.783624303041
 20
4596.335926952554
 10
4692.783624303041
 20
4610.335926952554
 10
4697.183624303035
 20
4610.335926952554
  0
LWPOLYLINE
  5
181
330
17
100
AcDbEntity
  8
Madeira
 62
126
370
18
100
AcDbPolyline
 90
4
 70
1
 10
4697.183624303041
 20
4540.365869424248
 10
4692.783624303046
 20
4540.365869424248
 10
4692.783624303046
 20
4554.365869424248
 10
4697.183624303041
 20
4554.365869424248
  0
LWPOLYLINE
  5
182
330
17
100
AcDbEntity
  8
Madeira
 62
126
370
18
100
AcDbPolyline
 90
4
 70
1
 10
4737.583624303035
 20
4540.365869424248
 10
4733.18362430304
 20
4540.365869424248
 10
4733.18362430304
 20
4554.365869424248
 10
4737.583624303035
 20
4554.365869424248
  0
LWPOLYLINE
  5
183
330
17
100
AcDbEntity
  8
Painéis
 62
200
370
25
100
AcDbPolyline
 90
4
 70
1
 10
4903.813832604279
 20
4531.510142344148
 10
5315.313832604279
 20
4531.510142344148
 10
5315.313832604279
 20
4538.510142344149
 10
4903.813832604279
 20
4538.510142344149
  0
LWPOLYLINE
  5
184
330
17
100
AcDbEntity
  8
Painéis
 62
200
370
25
100
AcDbPolyline
 90
4
 70
1
 10
5341.730886518122
 20
4531.510142344148
 10
5754.730886518122
 20
4531.510142344148
 10
5754.730886518122
 20
4538.510142344149
 10
5341.730886518122
 20
4538.510142344149
  0
LWPOLYLINE
  5
185
330
17
100
AcDbEntity
  8
Painéis
 62
200
370
25
100
AcDbPolyline
 90
4
 70
1
 10
4903.813832604279
 20
4342.753288568431
 10
5316.813832604279
 20
4342.753288568431
 10
5316.813832604279
 20
4349.753288568432
 10
4903.813832604279
 20
4349.753288568432
  0
LWPOLYLINE
  5
186
330
17
100
AcDbEntity
  8
Painéis
 62
200
370
25
100
AcDbPolyline
 90
4
 70
1
 10
5336.035513978011
 20
4342.753288568431
 10
5749.035513978011
 20
4342.753288568431
 10
5749.035513978011
 20
4349.753288568432
 10
5336.035513978011
 20
4349.753288568432
  0
LWPOLYLINE
  5
187
330
17
100
AcDbEntity
  8
Painéis
 62
200
370
25
100
AcDbPolyline
 90
4
 70
1
 10
4903.345475679056
 20
4162.044240496737
 10
5059.345475679056
 20
4162.044240496737
 10
5059.345475679056
 20
4169.044240496737
 10
4903.345475679056
 20
4169.044240496737
  0
LWPOLYLINE
  5
188
330
17
100
AcDbEntity
  8
SARR_3.5x7
 62
81
370
25
100
AcDbPolyline
 90
4
 70
1
 10
4678.783624302983
 20
4652.365869424248
 10
4692.783624302983
 20
4652.365869424248
 10
4692.783624303112
 20
4463.887656018442
 10
4678.783624303112
 20
4463.887656018442
  0
LWPOLYLINE
  5
189
330
17
100
AcDbEntity
  8
SARR_3.5x7
 62
81
370
25
100
AcDbPolyline
 90
4
 70
1
 10
4751.583624303093
 20
4614.365869424224
 10
4737.583624303094
 20
4614.365869424224
 10
4737.583624302948
 20
4463.887656018442
 10
4751.583624302948
 20
4463.887656018442
  0
LWPOLYLINE
  5
18A
330
17
100
AcDbEntity
  8
SARR_3.5x7
 62
81
370
25
100
AcDbPolyline
 90
4
 70
1
 10
4678.783624302971
 20
4540.365869424248
 10
4751.583624302995
 20
4540.365869424246
 10
4751.583624302995
 20
4510.307807820248
 10
4678.783624302971
 20
4510.307807820249
  0
LWPOLYLINE
  5
18B
330
17
100
AcDbEntity
  8
Madeira
 62
126
370
18
100
AcDbPolyline
 90
4
 70
1
 10
4737.583624303035
 20
4573.882287188935
 10
4733.18362430304
 20
4573.882287188935
 10
4733.18362430304
 20
4587.882287188936
 10
4737.583624303035
 20
4587.882287188936
  0
LWPOLYLINE
  5
18C
330
17
100
AcDbEntity
  8
COTA
 62
0
370
25
100
AcDbPolyline
 90
2
 70
0
 10
4834.660347392325
 20
4542.86586942425
 10
4839.660347392325
 20
4537.86586942425
  0
LWPOLYLINE
  5
18D
330
17
100
AcDbEntity
  8
COTA
 62
0
370
25
100
AcDbPolyline
 90
2
 70
0
 10
4839.660347392325
 20
4655.86586942425
 10
4834.660347392325
 20
4660.86586942425
  0
LWPOLYLINE
  5
18E
330
17
100
AcDbEntity
  8
COTA
 62
0
370
25
100
AcDbPolyline
 90
2
 70
0
 10
4621.811891544822
 20
4542.86586942425
 10
4626.811891544822
 20
4537.86586942425
  0
LWPOLYLINE
  5
18F
330
17
100
AcDbEntity
  8
COTA
 62
0
370
25
100
AcDbPolyline
 90
2
 70
0
 10
4626.811891544822
 20
4655.86586942425
 10
4621.811891544822
 20
4660.86586942425
  0
LWPOLYLINE
  5
190
330
17
100
AcDbEntity
  8
COTA
 62
0
370
25
100
AcDbPolyline
 90
2
 70
0
 10
4820.34091890686
 20
4641.865869424251
 10
4815.34091890686
 20
4646.865869424251
  0
LWPOLYLINE
  5
191
330
17
100
AcDbEntity
  8
COTA
 62
0
370
25
100
AcDbPolyline
 90
2
 70
0
 10
4815.34091890686
 20
4626.865869424221
 10
4820.34091890686
 20
4621.865869424221
  0
LWPOLYLINE
  5
192
330
17
100
AcDbEntity
  8
COTA
 62
0
370
25
100
AcDbPolyline
 90
2
 70
0
 10
4820.340918906534
 20
4617.865869424222
 10
4815.340918906534
 20
4622.865869424222
  0
LWPOLYLINE
  5
193
330
17
100
AcDbEntity
  8
COTA
 62
0
370
25
100
AcDbPolyline
 90
2
 70
0
 10
4815.340918906534
 20
4542.86586942425
 10
4820.340918906534
 20
4537.86586942425
  0
LWPOLYLINE
  5
194
330
17
100
AcDbEntity
  8
COTA
 62
0
370
25
100
AcDbPolyline
 90
2
 70
0
 10
4726.683624303041
 20
4493.139055622058
 10
4731.683624303041
 20
4498.139055622058
  0
LWPOLYLINE
  5
195
330
17
100
AcDbEntity
  8
COTA
 62
0
370
25
100
AcDbPolyline
 90
2
 70
0
 10
4703.68362430304
 20
4498.139055622058
 10
4698.68362430304
 20
4493.139055622058
  0
LWPOLYLINE
  5
196
330
17
100
AcDbEntity
  8
COTA
 62
0
370
25
100
AcDbPolyline
 90
2
 70
0
 10
4815.340918906846
 20
4646.865869424251
 10
4820.340918906846
 20
4641.865869424251
  0
LWPOLYLINE
  5
197
330
17
100
AcDbEntity
  8
COTA
 62
0
370
25
100
AcDbPolyline
 90
2
 70
0
 10
4820.340918906846
 20
4655.86586942425
 10
4815.340918906846
 20
4660.86586942425
  0
TEXT
  5
198
330
17
100
AcDbEntity
  8
detalhes
 62
4
370
25
100
AcDbText
 10
4736.755804466945
 20
4567.833965730367
 30
0.0
 40
9.600000000000001
  1
b
100
AcDbText
  0
TEXT
  5
199
330
17
100
AcDbEntity
  8
detalhes
 62
4
370
25
100
AcDbText
 10
4686.215893583676
 20
4570.049886149003
 30
0.0
 40
9.600000000000001
  1
a
100
AcDbText
  0
TEXT
  5
19A
330
17
100
AcDbEntity
  8
detalhes
 62
4
370
25
100
AcDbText
 10
4711.48160430163
 20
4550.601622944087
 30
0.0
 40
9.600000000000001
  1
c
100
AcDbText
  0
TEXT
  5
19B
330
17
100
AcDbEntity
  8
5
 62
5
370
25
100
AcDbText
 10
4904.20956543236
 20
4613.274425118492
 30
0.0
 40
12.0
  1
VF2
 50
3.55024762388e-05
100
AcDbText
  0
TEXT
  5
19C
330
17
100
AcDbEntity
  8
5
 62
5
370
25
100
AcDbText
 10
5633.381775404483
 20
4613.274425118492
 30
0.0
 40
12.0
  1
P33
 50
3.55024762388e-05
100
AcDbText
  0
TEXT
  5
19D
330
17
100
AcDbEntity
  8
Texto Seção
 62
7
370
15
100
AcDbText
 10
4914.382708779918
 20
4727.817222742713
 30
0.0
 40
13.0
  1
VF3.A
100
AcDbText
  0
TEXT
  5
19E
330
17
100
AcDbEntity
  8
5
 62
5
370
25
100
AcDbText
 10
4898.873521167658
 20
4397.465278168147
 30
0.0
 40
12.0
  1
P33
 50
3.55024762388e-05
100
AcDbText
  0
TEXT
  5
19F
330
17
100
AcDbEntity
  8
5
 62
5
370
25
100
AcDbText
 10
5315.900396152557
 20
4397.465278168147
 30
0.0
 40
12.0
  1
P32
 50
3.55024762388e-05
100
AcDbText
  0
TEXT
  5
1A0
330
17
100
AcDbEntity
  8
5
 62
5
370
25
100
AcDbText
 10
5740.237764038906
 20
4397.465278168147
 30
0.0
 40
12.0
  1
P30
 50
3.55024762388e-05
100
AcDbText
  0
TEXT
  5
1A1
330
17
100
AcDbEntity
  8
5
 62
5
370
25
100
AcDbText
 10
4904.443207652792
 20
4219.594257145309
 30
0.0
 40
12.0
  1
P30
 50
3.55024762388e-05
100
AcDbText
  0
TEXT
  5
1A2
330
17
100
AcDbEntity
  8
5
 62
5
370
25
100
AcDbText
 10
5317.478268476222
 20
4221.12967796152
 30
0.0
 40
12.0
  1
P29
 50
3.55024762388e-05
100
AcDbText
  0
TEXT
  5
1A3
330
17
100
AcDbEntity
  8
Texto Seção
 62
7
370
15
100
AcDbText
 10
4909.446664515215
 20
4543.192542079658
 30
0.0
 40
13.0
  1
VF3.B
100
AcDbText
  0
TEXT
  5
1A4
330
17
100
AcDbEntity
  8
Texto Seção
 62
7
370
15
100
AcDbText
 10
4900.715484991237
 20
4354.435688303941
 30
0.0
 40
13.0
  1
CONT. VF3.B
100
AcDbText
  0
TEXT
  5
1A5
330
17
100
AcDbEntity
  8
Texto Seção
 62
7
370
15
100
AcDbText
 10
5346.963718429059
 20
4543.192542079658
 30
0.0
 40
13.0
  1
(2X ESTE MÓDULO)
100
AcDbText
  0
TEXT
  5
1A6
330
17
100
AcDbEntity
  8
5
 62
5
370
25
100
AcDbText
 10
5728.436956082511
 20
4221.12967796152
 30
0.0
 40
12.0
  1
P28
 50
3.55024762388e-05
100
AcDbText
  0
TEXT
  5
1A7
330
17
100
AcDbEntity
  8
Texto Seção
 62
7
370
15
100
AcDbText
 10
4900.247128066014
 20
4173.726640232247
 30
0.0
 40
13.0
  1
CONT. VF3.B
100
AcDbText
  0
TEXT
  5
1A8
330
17
100
AcDbEntity
  8
COTA
 62
1
370
25
100
AcDbText
 10
4845.660347392325
 20
4599.365869424248
 30
0.0
 40
7.0
  1
59
 50
90.0
100
AcDbText
  0
TEXT
  5
1A9
330
17
100
AcDbEntity
  8
COTA
 62
1
370
25
100
AcDbText
 10
4632.811891544821
 20
4599.365869424248
 30
0.0
 40
7.0
  1
59
 50
90.0
100
AcDbText
  0
TEXT
  5
1AA
330
17
100
AcDbEntity
  8
Cota Seção (2x)
 62
1
370
25
100
AcDbText
 10
4732.083624303086
 20
4618.3658694242
 30
0.0
 40
7.0
  1
55
 50
90.0
100
AcDbText
  0
TEXT
  5
1AB
330
17
100
AcDbEntity
  8
COTA
 62
1
370
25
100
AcDbText
 10
4826.340918906859
 20
4634.365869424234
 30
0.0
 40
7.0
  1
10
 50
90.0
100
AcDbText
  0
TEXT
  5
1AC
330
17
100
AcDbEntity
  8
COTA
 62
1
370
25
100
AcDbText
 10
4826.340918906534
 20
4580.365869424234
 30
0.0
 40
7.0
  1
40
 50
90.0
100
AcDbText
  0
TEXT
  5
1AD
330
17
100
AcDbEntity
  8
COTA
 62
1
370
25
100
AcDbText
 10
4715.18362430304
 20
4501.139055622058
 30
0.0
 40
7.0
  1
14
100
AcDbText
  0
TEXT
  5
1AE
330
17
100
AcDbEntity
  8
Cota Seção (2x)
 62
1
370
25
100
AcDbText
 10
4720.183624303071
 20
4567.865869424248
 30
0.0
 40
7.0
  1
14
100
AcDbText
  0
TEXT
  5
1AF
330
17
100
AcDbEntity
  8
COTA
 62
1
370
25
100
AcDbText
 10
4826.340918906846
 20
4651.365869424249
 30
0.0
 40
7.0
  1
7
 50
90.0
100
AcDbText
  0
TEXT
  5
1B0
330
17
100
AcDbEntity
  8
COTA
 62
240
370
25
100
AcDbText
 10
5031.149876868987
 20
4645.667996444265
 30
0.0
 40
10.0
  1
244
100
AcDbText
  0
TEXT
  5
1B1
330
17
100
AcDbEntity
  8
COTA
 62
240
370
25
100
AcDbText
 10
5275.149876868987
 20
4645.667996444265
 30
0.0
 40
10.0
  1
244
100
AcDbText
  0
TEXT
  5
1B2
330
17
100
AcDbEntity
  8
COTA
 62
240
370
25
100
AcDbText
 10
5275.149876868987
 20
4611.652994498398
 30
0.0
 40
10.0
  1
8X
100
AcDbText
  0
TEXT
  5
1B3
330
17
100
AcDbEntity
  8
COTA
 62
240
370
25
100
AcDbText
 10
5675.763385522474
 20
4693.634823007229
 30
0.0
 40
10.0
  1
59
 50
90.0
100
AcDbText
  0
TEXT
  5
1B4
330
17
100
AcDbEntity
  8
COTA
 62
240
370
25
100
AcDbText
 10
5519.149876868987
 20
4645.667996444265
 30
0.0
 40
10.0
  1
244
100
AcDbText
  0
TEXT
  5
1B5
330
17
100
AcDbEntity
  8
COTA
 62
240
370
25
100
AcDbText
 10
5025.813832604285
 20
4461.043315781199
 30
0.0
 40
10.0
  1
244
100
AcDbText
  0
TEXT
  5
1B6
330
17
100
AcDbEntity
  8
COTA
 62
240
370
25
100
AcDbText
 10
5231.563832604284
 20
4461.079865488811
 30
0.0
 40
10.0
  1
167.5
100
AcDbText
  0
TEXT
  5
1B7
330
17
100
AcDbEntity
  8
COTA
 62
240
370
25
100
AcDbText
 10
5109.563832604284
 20
4427.541354800079
 30
0.0
 40
10.0
  1
411.5
100
AcDbText
  0
TEXT
  5
1B8
330
17
100
AcDbEntity
  8
COTA
 62
240
370
25
100
AcDbText
 10
5787.986816356724
 20
4499.510142344153
 30
0.0
 40
10.0
  1
40
 50
90.0
100
AcDbText
  0
TEXT
  5
1B9
330
17
100
AcDbEntity
  8
COTA
 62
240
370
25
100
AcDbText
 10
5788.030676005786
 20
4525.510142344153
 30
0.0
 40
10.0
  1
12
 50
90.0
100
AcDbText
  0
TEXT
  5
1BA
330
17
100
AcDbEntity
  8
COTA
 62
240
370
25
100
AcDbText
 10
5788.016056122799
 20
4547.375639420176
 30
0.0
 40
10.0
  1
7
 50
90.0
100
AcDbText
  0
TEXT
  5
1BB
330
17
100
AcDbEntity
  8
COTA
 62
240
370
25
100
AcDbText
 10
5813.944305100062
 20
4509.010142344153
 30
0.0
 40
10.0
  1
59
 50
90.0
100
AcDbText
  0
TEXT
  5
1BC
330
17
100
AcDbEntity
  8
COTA
 62
240
370
25
100
AcDbText
 10
5463.730886518128
 20
4461.043315781199
 30
0.0
 40
10.0
  1
244
100
AcDbText
  0
TEXT
  5
1BD
330
17
100
AcDbEntity
  8
COTA
 62
240
370
25
100
AcDbText
 10
5670.230886518128
 20
4461.101795313373
 30
0.0
 40
10.0
  1
169
100
AcDbText
  0
TEXT
  5
1BE
330
17
100
AcDbEntity
  8
COTA
 62
240
370
25
100
AcDbText
 10
5548.230886518127
 20
4427.651003922886
 30
0.0
 40
10.0
  1
413
100
AcDbText
  0
TEXT
  5
1BF
330
17
100
AcDbEntity
  8
COTA
 62
240
370
25
100
AcDbText
 10
5025.813832604285
 20
4272.286462005481
 30
0.0
 40
10.0
  1
244
100
AcDbText
  0
TEXT
  5
1C0
330
17
100
AcDbEntity
  8
COTA
 62
240
370
25
100
AcDbText
 10
5232.313832604284
 20
4272.344941537656
 30
0.0
 40
10.0
  1
169
100
AcDbText
  0
TEXT
  5
1C1
330
17
100
AcDbEntity
  8
COTA
 62
240
370
25
100
AcDbText
 10
5110.313832604284
 20
4248.256305363186
 30
0.0
 40
10.0
  1
413
100
AcDbText
  0
TEXT
  5
1C2
330
17
100
AcDbEntity
  8
COTA
 62
240
370
25
100
AcDbText
 10
5458.035513978017
 20
4272.286462005481
 30
0.0
 40
10.0
  1
244
100
AcDbText
  0
TEXT
  5
1C3
330
17
100
AcDbEntity
  8
COTA
 62
240
370
25
100
AcDbText
 10
5664.535513978017
 20
4272.344941537656
 30
0.0
 40
10.0
  1
169
100
AcDbText
  0
TEXT
  5
1C4
330
17
100
AcDbEntity
  8
COTA
 62
240
370
25
100
AcDbText
 10
5542.535513978016
 20
4248.256305363186
 30
0.0
 40
10.0
  1
413
100
AcDbText
  0
TEXT
  5
1C5
330
17
100
AcDbEntity
  8
COTA
 62
240
370
25
100
AcDbText
 10
5782.291443816632
 20
4310.753288568434
 30
0.0
 40
10.0
  1
40
 50
90.0
100
AcDbText
  0
TEXT
  5
1C6
330
17
100
AcDbEntity
  8
COTA
 62
240
370
25
100
AcDbText
 10
5782.335303465675
 20
4336.753288568434
 30
0.0
 40
10.0
  1
12
 50
90.0
100
AcDbText
  0
TEXT
  5
1C7
330
17
100
AcDbEntity
  8
COTA
 62
240
370
25
100
AcDbText
 10
5782.320683582707
 20
4358.618785644458
 30
0.0
 40
10.0
  1
7
 50
90.0
100
AcDbText
  0
TEXT
  5
1C8
330
17
100
AcDbEntity
  8
COTA
 62
240
370
25
100
AcDbText
 10
5808.248932559969
 20
4320.253288568435
 30
0.0
 40
10.0
  1
59
 50
90.0
100
AcDbText
  0
TEXT
  5
1C9
330
17
100
AcDbEntity
  8
COTA
 62
240
370
25
100
AcDbText
 10
4935.345475679062
 20
4091.606653699868
 30
0.0
 40
10.0
  1
64
100
AcDbText
  0
TEXT
  5
1CA
330
17
100
AcDbEntity
  8
COTA
 62
240
370
25
100
AcDbText
 10
5013.345475679062
 20
4091.592033816838
 30
0.0
 40
10.0
  1
92
100
AcDbText
  0
TEXT
  5
1CB
330
17
100
AcDbEntity
  8
COTA
 62
240
370
25
100
AcDbText
 10
4981.345475679062
 20
4067.437608168685
 30
0.0
 40
10.0
  1
156
100
AcDbText
  0
TEXT
  5
1CC
330
17
100
AcDbEntity
  8
COTA
 62
240
370
25
100
AcDbText
 10
5092.601405517696
 20
4130.04424049674
 30
0.0
 40
10.0
  1
40
 50
90.0
100
AcDbText
  0
TEXT
  5
1CD
330
17
100
AcDbEntity
  8
COTA
 62
240
370
25
100
AcDbText
 10
5092.64526516672
 20
4156.044240496741
 30
0.0
 40
10.0
  1
12
 50
90.0
100
AcDbText
  0
TEXT
  5
1CE
330
17
100
AcDbEntity
  8
COTA
 62
240
370
25
100
AcDbText
 10
5092.630645283771
 20
4177.909737572764
 30
0.0
 40
10.0
  1
7
 50
90.0
100
AcDbText
  0
TEXT
  5
1CF
330
17
100
AcDbEntity
  8
COTA
 62
240
370
25
100
AcDbText
 10
5118.558894261032
 20
4139.54424049674
 30
0.0
 40
10.0
  1
59
 50
90.0
100
AcDbText
  0
TEXT
  5
1D0
330
17
100
AcDbEntity
  8
COTA
 62
240
370
25
100
AcDbText
 10
5588.399876868986
 20
4702.010471296253
 30
0.0
 40
10.0
  1
105.5
100
AcDbText
  0
TEXT
  5
1D1
330
17
100
AcDbEntity
  8
Texto Seção
 62
3
370
15
100
AcDbText
 10
4712.383624303038
 20
4729.814633797221
 30
0.0
 40
17.0
  1

100
AcDbText
  0
TEXT
  5
1D2
330
17
100
AcDbEntity
  8
Texto Seção
 62
3
370
15
100
AcDbText
 10
4712.383624303038
 20
4699.9140491529
 30
0.0
 40
12.0
  1

100
AcDbText
  0
TEXT
  5
1D3
330
17
100
AcDbEntity
  8
Texto Seção
 62
7
370
15
100
AcDbText
 10
4712.383624303038
 20
4673.942620264414
 30
0.0
 40
10.0
  1

100
AcDbText
  0
HATCH
  5
1D4
330
17
100
AcDbEntity
  8
Hachura
 62
7
100
AcDbHatch
 10
0.0
 20
0.0
 30
0.0
210
0.0
220
0.0
230
1.0
  2
SOLID
 70
1
 71
0
 91
1
 92
3
 72
0
 73
1
 93
5
 10
4729.183624303041
 20
4620.365869424227
 10
4733.18362430304
 20
4620.365869424227
 10
4733.18362430304
 20
4540.365869424248
 10
4729.183624303041
 20
4540.365869424248
 10
4729.183624303041
 20
4620.365869424227
 97
0
 75
1
 76
1
 98
0
  0
HATCH
  5
1D5
330
17
100
AcDbEntity
  8
Hachura
 62
7
100
AcDbHatch
 10
0.0
 20
0.0
 30
0.0
210
0.0
220
0.0
230
1.0
  2
ANSI31
 70
0
 71
0
 91
1
 92
3
 72
0
 73
1
 93
5
 10
4701.18362430304
 20
4540.365869424248
 10
4701.18362430304
 20
4544.765869424242
 10
4711.183624303041
 20
4544.765869424242
 10
4711.183624303041
 20
4540.365869424248
 10
4701.18362430304
 20
4540.365869424248
 97
0
 75
1
 76
1
 52
0.0
 41
1.0
 77
0
 78
1
 53
45.0
 43
0.0
 44
0.0
 45
-2.2450640303
 46
2.2450640303
 79
0
 98
0
  0
HATCH
  5
1D6
330
17
100
AcDbEntity
  8
Hachura
 62
7
100
AcDbHatch
 10
0.0
 20
0.0
 30
0.0
210
0.0
220
0.0
230
1.0
  2
SOLID
 70
1
 71
0
 91
1
 92
3
 72
0
 73
1
 93
5
 10
4701.18362430304
 20
4544.765869424242
 10
4701.18362430304
 20
4548.365869424248
 10
4729.183624303041
 20
4548.365869424248
 10
4729.183624303041
 20
4544.765869424242
 10
4701.18362430304
 20
4544.765869424242
 97
0
 75
1
 76
1
 98
0
  0
HATCH
  5
1D7
330
17
100
AcDbEntity
  8
Hachura
 62
7
100
AcDbHatch
 10
0.0
 20
0.0
 30
0.0
210
0.0
220
0.0
230
1.0
  2
ANSI31
 70
0
 71
0
 91
1
 92
3
 72
0
 73
1
 93
5
 10
4729.183624303041
 20
4540.365869424248
 10
4729.183624303041
 20
4544.765869424242
 10
4719.183624303041
 20
4544.765869424242
 10
4719.183624303041
 20
4540.365869424248
 10
4729.183624303041
 20
4540.365869424248
 97
0
 75
1
 76
1
 52
0.0
 41
1.0
 77
0
 78
1
 53
45.0
 43
0.0
 44
0.0
 45
-2.2450640303
 46
2.2450640303
 79
0
 98
0
  0
HATCH
  5
1D8
330
17
100
AcDbEntity
  8
Hachura
 62
7
100
AcDbHatch
 10
0.0
 20
0.0
 30
0.0
210
0.0
220
0.0
230
1.0
  2
SOLID
 70
1
 71
0
 91
1
 92
3
 72
0
 73
1
 93
5
 10
4697.183624303041
 20
4658.365869424248
 10
4701.18362430304
 20
4658.365869424248
 10
4701.18362430304
 20
4540.365869424248
 10
4697.183624303041
 20
4540.365869424248
 10
4697.183624303041
 20
4658.365869424248
 97
0
 75
1
 76
1
 98
0
  0
HATCH
  5
1D9
330
17
100
AcDbEntity
  8
Hachura
 62
7
100
AcDbHatch
 10
0.0
 20
0.0
 30
0.0
210
0.0
220
0.0
230
1.0
  2
SOLID
 70
1
 71
0
 91
1
 92
3
 72
0
 73
1
 93
5
 10
4729.183624303041
 20
4620.365869424227
 10
4729.183624303041
 20
4624.365869424226
 10
4784.783624303018
 20
4624.365869424219
 10
4784.783624303018
 20
4620.365869424219
 10
4729.183624303041
 20
4620.365869424227
 97
0
 75
1
 76
1
 98
0
  0
HATCH
  5
1DA
330
17
100
AcDbEntity
  8
Hachura
 62
7
100
AcDbHatch
 10
0.0
 20
0.0
 30
0.0
210
0.0
220
0.0
230
1.0
  2
SOLID
 70
1
 71
0
 91
1
 92
3
 72
0
 73
1
 93
5
 10
4733.183624303092
 20
4658.365869424248
 10
4729.583624303086
 20
4658.365869424248
 10
4729.583624303086
 20
4644.365869424248
 10
4733.183624303092
 20
4644.365869424248
 10
4733.183624303092
 20
4658.365869424248
 97
0
 75
1
 76
1
 98
0
  0
HATCH
  5
1DB
330
17
100
AcDbEntity
  8
Hachura
 62
7
100
AcDbHatch
 10
0.0
 20
0.0
 30
0.0
210
0.0
220
0.0
230
1.0
  2
ANSI31
 70
0
 71
0
 91
1
 92
3
 72
0
 73
1
 93
5
 10
4737.583624303086
 20
4644.365869424248
 10
4733.183624303092
 20
4644.365869424248
 10
4733.183624303092
 20
4658.365869424248
 10
4737.583624303086
 20
4658.365869424248
 10
4737.583624303086
 20
4644.365869424248
 97
0
 75
1
 76
1
 52
0.0
 41
1.0
 77
0
 78
1
 53
45.0
 43
0.0
 44
0.0
 45
-2.2450640303
 46
2.2450640303
 79
0
 98
0
  0
HATCH
  5
1DC
330
17
100
AcDbEntity
  8
Hachura
 62
7
100
AcDbHatch
 10
0.0
 20
0.0
 30
0.0
210
0.0
220
0.0
230
1.0
  2
ANSI31
 70
0
 71
0
 91
1
 92
3
 72
0
 73
1
 93
5
 10
4737.583624303035
 20
4606.365869424227
 10
4733.18362430304
 20
4606.365869424227
 10
4733.18362430304
 20
4620.365869424227
 10
4737.583624303035
 20
4620.365869424227
 10
4737.583624303035
 20
4606.365869424227
 97
0
 75
1
 76
1
 52
0.0
 41
1.0
 77
0
 78
1
 53
45.0
 43
0.0
 44
0.0
 45
-2.2450640303
 46
2.2450640303
 79
0
 98
0
  0
HATCH
  5
1DD
330
17
100
AcDbEntity
  8
Hachura
 62
7
100
AcDbHatch
 10
0.0
 20
0.0
 30
0.0
210
0.0
220
0.0
230
1.0
  2
ANSI31
 70
0
 71
0
 91
1
 92
3
 72
0
 73
1
 93
5
 10
4697.18362430303
 20
4644.365869424248
 10
4692.783624303036
 20
4644.365869424248
 10
4692.783624303036
 20
4658.365869424248
 10
4697.18362430303
 20
4658.365869424248
 10
4697.18362430303
 20
4644.365869424248
 97
0
 75
1
 76
1
 52
0.0
 41
1.0
 77
0
 78
1
 53
45.0
 43
0.0
 44
0.0
 45
-2.2450640303
 46
2.2450640303
 79
0
 98
0
  0
HATCH
  5
1DE
330
17
100
AcDbEntity
  8
Hachura
 62
7
100
AcDbHatch
 10
0.0
 20
0.0
 30
0.0
210
0.0
220
0.0
230
1.0
  2
ANSI31
 70
0
 71
0
 91
1
 92
3
 72
0
 73
1
 93
5
 10
4697.183624303035
 20
4596.335926952554
 10
4692.783624303041
 20
4596.335926952554
 10
4692.783624303041
 20
4610.335926952554
 10
4697.183624303035
 20
4610.335926952554
 10
4697.183624303035
 20
4596.335926952554
 97
0
 75
1
 76
1
 52
0.0
 41
1.0
 77
0
 78
1
 53
45.0
 43
0.0
 44
0.0
 45
-2.2450640303
 46
2.2450640303
 79
0
 98
0
  0
HATCH
  5
1DF
330
17
100
AcDbEntity
  8
Hachura
 62
7
100
AcDbHatch
 10
0.0
 20
0.0
 30
0.0
210
0.0
220
0.0
230
1.0
  2
ANSI31
 70
0
 71
0
 91
1
 92
3
 72
0
 73
1
 93
5
 10
4697.183624303041
 20
4540.365869424248
 10
4692.783624303046
 20
4540.365869424248
 10
4692.783624303046
 20
4554.365869424248
 10
4697.183624303041
 20
4554.365869424248
 10
4697.183624303041
 20
4540.365869424248
 97
0
 75
1
 76
1
 52
0.0
 41
1.0
 77
0
 78
1
 53
45.0
 43
0.0
 44
0.0
 45
-2.2450640303
 46
2.2450640303
 79
0
 98
0
  0
HATCH
  5
1E0
330
17
100
AcDbEntity
  8
Hachura
 62
7
100
AcDbHatch
 10
0.0
 20
0.0
 30
0.0
210
0.0
220
0.0
230
1.0
  2
ANSI31
 70
0
 71
0
 91
1
 92
3
 72
0
 73
1
 93
5
 10
4737.583624303035
 20
4540.365869424248
 10
4733.18362430304
 20
4540.365869424248
 10
4733.18362430304
 20
4554.365869424248
 10
4737.583624303035
 20
4554.365869424248
 10
4737.583624303035
 20
4540.365869424248
 97
0
 75
1
 76
1
 52
0.0
 41
1.0
 77
0
 78
1
 53
45.0
 43
0.0
 44
0.0
 45
-2.2450640303
 46
2.2450640303
 79
0
 98
0
  0
HATCH
  5
1E1
330
17
100
AcDbEntity
  8
COTA
 62
7
100
AcDbHatch
 10
0.0
 20
0.0
 30
0.0
210
0.0
220
0.0
230
1.0
  2
AR-CONC
 70
0
 71
0
 91
1
 92
3
 72
0
 73
1
 93
5
 10
5315.313832604279
 20
4531.510142344148
 10
4903.813832604279
 20
4531.510142344148
 10
4903.813832604279
 20
4519.510142344149
 10
5315.313832604279
 20
4519.510142344175
 10
5315.313832604279
 20
4531.510142344148
 97
0
 75
1
 76
1
 52
0.0
 41
1.0
 77
0
 78
13
 53
50.0
 43
0.0
 44
0.0
 45
182.184668996
 46
-15.9390855389
 79
2
 49
19.05
 49
-209.55
 53
355.0
 43
0.0
 44
0.0
 45
-35.243421425
 46
191.056845239
 79
2
 49
15.24
 49
-167.64058417
 53
100.4514447
 43
15.182007
 44
-1.3282535
 45
146.9412470904
 46
175.1177519122
 79
2
 49
16.1900088
 49
-178.0902446
 53
46.1842
 43
0.0
 44
50.8
 45
271.0790408921
 46
-42.0423279327
 79
2
 49
28.575
 49
-314.325
 53
96.63555761
 43
22.5899
 44
47.2965
 45
237.4041340515
 46
247.4261245977
 79
2
 49
24.28502314
 49
-267.13560816
 53
351.18415117
 43
0.0
 44
50.8
 45
237.404134065
 46
247.4261245855
 79
2
 49
22.85996707
 49
-251.45973192
 53
21.0
 43
25.4
 44
38.1
 45
151.6143912691
 46
-102.2651981871
 79
2
 49
19.05
 49
-209.55
 53
326.0
 43
25.4
 44
38.1
 45
61.8020283476
 46
184.1879661223
 79
2
 49
15.24
 49
-167.64
 53
71.451445
 43
38.0345326
 44
29.5779001
 45
213.4164192787
 46
81.9227688859
 79
2
 49
16.1900088
 49
-178.0899376
 53
37.5
 43
0.0
 44
0.0
 45
3.0886032506
 46
84.5550388732
 79
6
 49
0.0
 49
-165.608
 49
0.0
 49
-170.18
 49
0.0
 49
-168.275
 53
7.5
 43
0.0
 44
0.0
 45
66.8196625103
 46
100.1805748181
 79
6
 49
0.0
 49
-97.028
 49
0.0
 49
-161.798
 49
0.0
 49
-64.135
 53
-32.5
 43
-56.642
 44
0.0
 45
135.5905951669
 46
-5.7287439927
 79
6
 49
0.0
 49
-63.5
 49
0.0
 49
-198.12
 49
0.0
 49
-262.89
 53
-42.5
 43
-82.042
 44
0.0
 45
148.129181386
 46
25.4264910333
 79
6
 49
0.0
 49
-82.55
 49
0.0
 49
-131.572
 49
0.0
 49
-186.69
 98
0
  0
HATCH
  5
1E2
330
17
100
AcDbEntity
  8
COTA
 62
7
100
AcDbHatch
 10
0.0
 20
0.0
 30
0.0
210
0.0
220
0.0
230
1.0
  2
AR-CONC
 70
0
 71
0
 91
1
 92
3
 72
0
 73
1
 93
5
 10
5754.730886518122
 20
4531.510142344148
 10
5341.730886518122
 20
4531.510142344148
 10
5341.730886518122
 20
4519.510142344149
 10
5754.730886518122
 20
4519.510142344175
 10
5754.730886518122
 20
4531.510142344148
 97
0
 75
1
 76
1
 52
0.0
 41
1.0
 77
0
 78
13
 53
50.0
 43
0.0
 44
0.0
 45
182.184668996
 46
-15.9390855389
 79
2
 49
19.05
 49
-209.55
 53
355.0
 43
0.0
 44
0.0
 45
-35.243421425
 46
191.056845239
 79
2
 49
15.24
 49
-167.64058417
 53
100.4514447
 43
15.182007
 44
-1.3282535
 45
146.9412470904
 46
175.1177519122
 79
2
 49
16.1900088
 49
-178.0902446
 53
46.1842
 43
0.0
 44
50.8
 45
271.0790408921
 46
-42.0423279327
 79
2
 49
28.575
 49
-314.325
 53
96.63555761
 43
22.5899
 44
47.2965
 45
237.4041340515
 46
247.4261245977
 79
2
 49
24.28502314
 49
-267.13560816
 53
351.18415117
 43
0.0
 44
50.8
 45
237.404134065
 46
247.4261245855
 79
2
 49
22.85996707
 49
-251.45973192
 53
21.0
 43
25.4
 44
38.1
 45
151.6143912691
 46
-102.2651981871
 79
2
 49
19.05
 49
-209.55
 53
326.0
 43
25.4
 44
38.1
 45
61.8020283476
 46
184.1879661223
 79
2
 49
15.24
 49
-167.64
 53
71.451445
 43
38.0345326
 44
29.5779001
 45
213.4164192787
 46
81.9227688859
 79
2
 49
16.1900088
 49
-178.0899376
 53
37.5
 43
0.0
 44
0.0
 45
3.0886032506
 46
84.5550388732
 79
6
 49
0.0
 49
-165.608
 49
0.0
 49
-170.18
 49
0.0
 49
-168.275
 53
7.5
 43
0.0
 44
0.0
 45
66.8196625103
 46
100.1805748181
 79
6
 49
0.0
 49
-97.028
 49
0.0
 49
-161.798
 49
0.0
 49
-64.135
 53
-32.5
 43
-56.642
 44
0.0
 45
135.5905951669
 46
-5.7287439927
 79
6
 49
0.0
 49
-63.5
 49
0.0
 49
-198.12
 49
0.0
 49
-262.89
 53
-42.5
 43
-82.042
 44
0.0
 45
148.129181386
 46
25.4264910333
 79
6
 49
0.0
 49
-82.55
 49
0.0
 49
-131.572
 49
0.0
 49
-186.69
 98
0
  0
HATCH
  5
1E3
330
17
100
AcDbEntity
  8
COTA
 62
7
100
AcDbHatch
 10
0.0
 20
0.0
 30
0.0
210
0.0
220
0.0
230
1.0
  2
AR-CONC
 70
0
 71
0
 91
1
 92
3
 72
0
 73
1
 93
5
 10
5316.813832604279
 20
4330.753288568455
 10
5316.813832604279
 20
4342.753288568432
 10
4903.813832604279
 20
4342.753288568431
 10
4903.813832604279
 20
4330.753288568431
 10
5316.813832604279
 20
4330.753288568455
 97
0
 75
1
 76
1
 52
0.0
 41
1.0
 77
0
 78
13
 53
50.0
 43
0.0
 44
0.0
 45
182.184668996
 46
-15.9390855389
 79
2
 49
19.05
 49
-209.55
 53
355.0
 43
0.0
 44
0.0
 45
-35.243421425
 46
191.056845239
 79
2
 49
15.24
 49
-167.64058417
 53
100.4514447
 43
15.182007
 44
-1.3282535
 45
146.9412470904
 46
175.1177519122
 79
2
 49
16.1900088
 49
-178.0902446
 53
46.1842
 43
0.0
 44
50.8
 45
271.0790408921
 46
-42.0423279327
 79
2
 49
28.575
 49
-314.325
 53
96.63555761
 43
22.5899
 44
47.2965
 45
237.4041340515
 46
247.4261245977
 79
2
 49
24.28502314
 49
-267.13560816
 53
351.18415117
 43
0.0
 44
50.8
 45
237.404134065
 46
247.4261245855
 79
2
 49
22.85996707
 49
-251.45973192
 53
21.0
 43
25.4
 44
38.1
 45
151.6143912691
 46
-102.2651981871
 79
2
 49
19.05
 49
-209.55
 53
326.0
 43
25.4
 44
38.1
 45
61.8020283476
 46
184.1879661223
 79
2
 49
15.24
 49
-167.64
 53
71.451445
 43
38.0345326
 44
29.5779001
 45
213.4164192787
 46
81.9227688859
 79
2
 49
16.1900088
 49
-178.0899376
 53
37.5
 43
0.0
 44
0.0
 45
3.0886032506
 46
84.5550388732
 79
6
 49
0.0
 49
-165.608
 49
0.0
 49
-170.18
 49
0.0
 49
-168.275
 53
7.5
 43
0.0
 44
0.0
 45
66.8196625103
 46
100.1805748181
 79
6
 49
0.0
 49
-97.028
 49
0.0
 49
-161.798
 49
0.0
 49
-64.135
 53
-32.5
 43
-56.642
 44
0.0
 45
135.5905951669
 46
-5.7287439927
 79
6
 49
0.0
 49
-63.5
 49
0.0
 49
-198.12
 49
0.0
 49
-262.89
 53
-42.5
 43
-82.042
 44
0.0
 45
148.129181386
 46
25.4264910333
 79
6
 49
0.0
 49
-82.55
 49
0.0
 49
-131.572
 49
0.0
 49
-186.69
 98
0
  0
HATCH
  5
1E4
330
17
100
AcDbEntity
  8
COTA
 62
7
100
AcDbHatch
 10
0.0
 20
0.0
 30
0.0
210
0.0
220
0.0
230
1.0
  2
AR-CONC
 70
0
 71
0
 91
1
 92
3
 72
0
 73
1
 93
5
 10
5749.035513978011
 20
4330.753288568454
 10
5749.035513978011
 20
4342.753288568431
 10
5336.035513978011
 20
4342.753288568431
 10
5336.035513978011
 20
4330.753288568431
 10
5749.035513978011
 20
4330.753288568454
 97
0
 75
1
 76
1
 52
0.0
 41
1.0
 77
0
 78
13
 53
50.0
 43
0.0
 44
0.0
 45
182.184668996
 46
-15.9390855389
 79
2
 49
19.05
 49
-209.55
 53
355.0
 43
0.0
 44
0.0
 45
-35.243421425
 46
191.056845239
 79
2
 49
15.24
 49
-167.64058417
 53
100.4514447
 43
15.182007
 44
-1.3282535
 45
146.9412470904
 46
175.1177519122
 79
2
 49
16.1900088
 49
-178.0902446
 53
46.1842
 43
0.0
 44
50.8
 45
271.0790408921
 46
-42.0423279327
 79
2
 49
28.575
 49
-314.325
 53
96.63555761
 43
22.5899
 44
47.2965
 45
237.4041340515
 46
247.4261245977
 79
2
 49
24.28502314
 49
-267.13560816
 53
351.18415117
 43
0.0
 44
50.8
 45
237.404134065
 46
247.4261245855
 79
2
 49
22.85996707
 49
-251.45973192
 53
21.0
 43
25.4
 44
38.1
 45
151.6143912691
 46
-102.2651981871
 79
2
 49
19.05
 49
-209.55
 53
326.0
 43
25.4
 44
38.1
 45
61.8020283476
 46
184.1879661223
 79
2
 49
15.24
 49
-167.64
 53
71.451445
 43
38.0345326
 44
29.5779001
 45
213.4164192787
 46
81.9227688859
 79
2
 49
16.1900088
 49
-178.0899376
 53
37.5
 43
0.0
 44
0.0
 45
3.0886032506
 46
84.5550388732
 79
6
 49
0.0
 49
-165.608
 49
0.0
 49
-170.18
 49
0.0
 49
-168.275
 53
7.5
 43
0.0
 44
0.0
 45
66.8196625103
 46
100.1805748181
 79
6
 49
0.0
 49
-97.028
 49
0.0
 49
-161.798
 49
0.0
 49
-64.135
 53
-32.5
 43
-56.642
 44
0.0
 45
135.5905951669
 46
-5.7287439927
 79
6
 49
0.0
 49
-63.5
 49
0.0
 49
-198.12
 49
0.0
 49
-262.89
 53
-42.5
 43
-82.042
 44
0.0
 45
148.129181386
 46
25.4264910333
 79
6
 49
0.0
 49
-82.55
 49
0.0
 49
-131.572
 49
0.0
 49
-186.69
 98
0
  0
HATCH
  5
1E5
330
17
100
AcDbEntity
  8
COTA
 62
7
100
AcDbHatch
 10
0.0
 20
0.0
 30
0.0
210
0.0
220
0.0
230
1.0
  2
AR-CONC
 70
0
 71
0
 91
1
 92
3
 72
0
 73
1
 93
5
 10
5059.345475679056
 20
4150.044240496757
 10
5059.345475679056
 20
4162.044240496736
 10
4903.345475679056
 20
4162.044240496739
 10
4903.345475679056
 20
4150.044240496748
 10
5059.345475679056
 20
4150.044240496757
 97
0
 75
1
 76
1
 52
0.0
 41
1.0
 77
0
 78
13
 53
50.0
 43
0.0
 44
0.0
 45
182.184668996
 46
-15.9390855389
 79
2
 49
19.05
 49
-209.55
 53
355.0
 43
0.0
 44
0.0
 45
-35.243421425
 46
191.056845239
 79
2
 49
15.24
 49
-167.64058417
 53
100.4514447
 43
15.182007
 44
-1.3282535
 45
146.9412470904
 46
175.1177519122
 79
2
 49
16.1900088
 49
-178.0902446
 53
46.1842
 43
0.0
 44
50.8
 45
271.0790408921
 46
-42.0423279327
 79
2
 49
28.575
 49
-314.325
 53
96.63555761
 43
22.5899
 44
47.2965
 45
237.4041340515
 46
247.4261245977
 79
2
 49
24.28502314
 49
-267.13560816
 53
351.18415117
 43
0.0
 44
50.8
 45
237.404134065
 46
247.4261245855
 79
2
 49
22.85996707
 49
-251.45973192
 53
21.0
 43
25.4
 44
38.1
 45
151.6143912691
 46
-102.2651981871
 79
2
 49
19.05
 49
-209.55
 53
326.0
 43
25.4
 44
38.1
 45
61.8020283476
 46
184.1879661223
 79
2
 49
15.24
 49
-167.64
 53
71.451445
 43
38.0345326
 44
29.5779001
 45
213.4164192787
 46
81.9227688859
 79
2
 49
16.1900088
 49
-178.0899376
 53
37.5
 43
0.0
 44
0.0
 45
3.0886032506
 46
84.5550388732
 79
6
 49
0.0
 49
-165.608
 49
0.0
 49
-170.18
 49
0.0
 49
-168.275
 53
7.5
 43
0.0
 44
0.0
 45
66.8196625103
 46
100.1805748181
 79
6
 49
0.0
 49
-97.028
 49
0.0
 49
-161.798
 49
0.0
 49
-64.135
 53
-32.5
 43
-56.642
 44
0.0
 45
135.5905951669
 46
-5.7287439927
 79
6
 49
0.0
 49
-63.5
 49
0.0
 49
-198.12
 49
0.0
 49
-262.89
 53
-42.5
 43
-82.042
 44
0.0
 45
148.129181386
 46
25.4264910333
 79
6
 49
0.0
 49
-82.55
 49
0.0
 49
-131.572
 49
0.0
 49
-186.69
 98
0
  0
HATCH
  5
1E6
330
17
100
AcDbEntity
  8
Hachura
 62
7
100
AcDbHatch
 10
0.0
 20
0.0
 30
0.0
210
0.0
220
0.0
230
1.0
  2
ANSI31
 70
0
 71
0
 91
1
 92
3
 72
0
 73
1
 93
5
 10
4737.583624303035
 20
4573.882287188935
 10
4733.18362430304
 20
4573.882287188935
 10
4733.18362430304
 20
4587.882287188936
 10
4737.583624303035
 20
4587.882287188936
 10
4737.583624303035
 20
4573.882287188935
 97
0
 75
1
 76
1
 52
0.0
 41
1.0
 77
0
 78
1
 53
45.0
 43
0.0
 44
0.0
 45
-2.2450640303
 46
2.2450640303
 79
0
 98
0
  0
HATCH
  5
1E7
330
17
100
AcDbEntity
  8
REAPROVEITAMENTO
 62
7
100
AcDbHatch
 10
0.0
 20
0.0
 30
0.0
210
0.0
220
0.0
230
1.0
  2
ANSI31
 70
0
 71
0
 91
1
 92
3
 72
0
 73
1
 93
5
 10
5641.149876868984
 20
4664.134823007215
 10
5641.149876868986
 20
4723.134823007217
 10
4909.149876868981
 20
4723.134823007204
 10
4909.149876868982
 20
4664.134823007203
 10
5641.149876868984
 20
4664.134823007215
 97
0
 75
1
 76
1
 52
0.0
 41
1.0
 77
0
 78
1
 53
45.0
 43
0.0
 44
0.0
 45
-2.2450640303
 46
2.2450640303
 79
0
 98
0
  0
HATCH
  5
1E8
330
17
100
AcDbEntity
  8
REAPROVEITAMENTO
 62
7
100
AcDbHatch
 10
0.0
 20
0.0
 30
0.0
210
0.0
220
0.0
230
1.0
  2
ANSI31
 70
0
 71
0
 91
1
 92
3
 72
0
 73
1
 93
5
 10
5147.813832604281
 20
4479.510142344162
 10
5147.813832604284
 20
4519.510142344162
 10
4903.813832604276
 20
4519.510142344149
 10
4903.813832604277
 20
4479.51014234415
 10
5147.813832604281
 20
4479.510142344162
 97
0
 75
1
 76
1
 52
0.0
 41
1.0
 77
0
 78
1
 53
45.0
 43
0.0
 44
0.0
 45
-2.2450640303
 46
2.2450640303
 79
0
 98
0
  0
HATCH
  5
1E9
330
17
100
AcDbEntity
  8
REAPROVEITAMENTO
 62
7
100
AcDbHatch
 10
0.0
 20
0.0
 30
0.0
210
0.0
220
0.0
230
1.0
  2
ANSI31
 70
0
 71
0
 91
1
 92
3
 72
0
 73
1
 93
5
 10
5585.730886518126
 20
4479.510142344162
 10
5585.730886518128
 20
4519.510142344162
 10
5341.730886518121
 20
4519.510142344149
 10
5341.730886518122
 20
4479.51014234415
 10
5585.730886518126
 20
4479.510142344162
 97
0
 75
1
 76
1
 52
0.0
 41
1.0
 77
0
 78
1
 53
45.0
 43
0.0
 44
0.0
 45
-2.2450640303
 46
2.2450640303
 79
0
 98
0
  0
HATCH
  5
1EA
330
17
100
AcDbEntity
  8
REAPROVEITAMENTO
 62
7
100
AcDbHatch
 10
0.0
 20
0.0
 30
0.0
210
0.0
220
0.0
230
1.0
  2
ANSI31
 70
0
 71
0
 91
1
 92
3
 72
0
 73
1
 93
5
 10
5147.813832604293
 20
4290.753288568443
 10
5147.813832604295
 20
4330.753288568444
 10
4903.813832604289
 20
4330.75328856843
 10
4903.813832604289
 20
4290.75328856843
 10
5147.813832604293
 20
4290.753288568443
 97
0
 75
1
 76
1
 52
0.0
 41
1.0
 77
0
 78
1
 53
45.0
 43
0.0
 44
0.0
 45
-2.2450640303
 46
2.2450640303
 79
0
 98
0
  0
HATCH
  5
1EB
330
17
100
AcDbEntity
  8
REAPROVEITAMENTO
 62
7
100
AcDbHatch
 10
0.0
 20
0.0
 30
0.0
210
0.0
220
0.0
230
1.0
  2
ANSI31
 70
0
 71
0
 91
1
 92
3
 72
0
 73
1
 93
5
 10
5580.035513978013
 20
4290.753288568444
 10
5580.035513978016
 20
4330.753288568445
 10
5336.035513978009
 20
4330.753288568431
 10
5336.03551397801
 20
4290.753288568432
 10
5580.035513978013
 20
4290.753288568444
 97
0
 75
1
 76
1
 52
0.0
 41
1.0
 77
0
 78
1
 53
45.0
 43
0.0
 44
0.0
 45
-2.2450640303
 46
2.2450640303
 79
0
 98
0
  0
HATCH
  5
1EC
330
17
100
AcDbEntity
  8
REAPROVEITAMENTO
 62
7
100
AcDbHatch
 10
0.0
 20
0.0
 30
0.0
210
0.0
220
0.0
230
1.0
  2
ANSI31
 70
0
 71
0
 91
1
 92
3
 72
0
 73
1
 93
5
 10
5059.345475679061
 20
4110.044240496751
 10
5059.345475679057
 20
4150.044240496751
 10
4967.345475679056
 20
4150.044240496747
 10
4967.345475679056
 20
4110.044240496748
 10
5059.345475679061
 20
4110.044240496751
 97
0
 75
1
 76
1
 52
0.0
 41
1.0
 77
0
 78
1
 53
45.0
 43
0.0
 44
0.0
 45
-2.2450640303
 46
2.2450640303
 79
0
 98
0
  0
HATCH
  5
1ED
330
17
100
AcDbEntity
  8
REAPROVEITAMENTO
 62
7
100
AcDbHatch
 10
0.0
 20
0.0
 30
0.0
210
0.0
220
0.0
230
1.0
  2
ANSI31
 70
0
 71
0
 91
1
 92
3
 72
0
 73
1
 93
5
 10
5147.813832604281
 20
4531.510142344162
 10
5147.813832604281
 20
4538.510142344145
 10
4903.813832604272
 20
4538.510142344149
 10
4903.813832604272
 20
4531.51014234416
 10
5147.813832604281
 20
4531.510142344162
 97
0
 75
1
 76
1
 52
0.0
 41
1.0
 77
0
 78
1
 53
45.0
 43
0.0
 44
0.0
 45
-2.2450640303
 46
2.2450640303
 79
0
 98
0
  0
HATCH
  5
1EE
330
17
100
AcDbEntity
  8
REAPROVEITAMENTO
 62
7
100
AcDbHatch
 10
0.0
 20
0.0
 30
0.0
210
0.0
220
0.0
230
1.0
  2
ANSI31
 70
0
 71
0
 91
1
 92
3
 72
0
 73
1
 93
5
 10
5585.730886518125
 20
4531.510142344162
 10
5585.730886518124
 20
4538.510142344145
 10
5341.730886518115
 20
4538.510142344149
 10
5341.730886518115
 20
4531.51014234416
 10
5585.730886518125
 20
4531.510142344162
 97
0
 75
1
 76
1
 52
0.0
 41
1.0
 77
0
 78
1
 53
45.0
 43
0.0
 44
0.0
 45
-2.2450640303
 46
2.2450640303
 79
0
 98
0
  0
HATCH
  5
1EF
330
17
100
AcDbEntity
  8
REAPROVEITAMENTO
 62
7
100
AcDbHatch
 10
0.0
 20
0.0
 30
0.0
210
0.0
220
0.0
230
1.0
  2
ANSI31
 70
0
 71
0
 91
1
 92
3
 72
0
 73
1
 93
5
 10
5147.813832604281
 20
4342.753288568444
 10
5147.813832604281
 20
4349.753288568428
 10
4903.813832604272
 20
4349.753288568432
 10
4903.813832604272
 20
4342.753288568442
 10
5147.813832604281
 20
4342.753288568444
 97
0
 75
1
 76
1
 52
0.0
 41
1.0
 77
0
 78
1
 53
45.0
 43
0.0
 44
0.0
 45
-2.2450640303
 46
2.2450640303
 79
0
 98
0
  0
HATCH
  5
1F0
330
17
100
AcDbEntity
  8
REAPROVEITAMENTO
 62
7
100
AcDbHatch
 10
0.0
 20
0.0
 30
0.0
210
0.0
220
0.0
230
1.0
  2
ANSI31
 70
0
 71
0
 91
1
 92
3
 72
0
 73
1
 93
5
 10
5580.035513978014
 20
4342.753288568444
 10
5580.035513978013
 20
4349.753288568428
 10
5336.035513978004
 20
4349.753288568432
 10
5336.035513978004
 20
4342.753288568442
 10
5580.035513978014
 20
4342.753288568444
 97
0
 75
1
 76
1
 52
0.0
 41
1.0
 77
0
 78
1
 53
45.0
 43
0.0
 44
0.0
 45
-2.2450640303
 46
2.2450640303
 79
0
 98
0
  0
HATCH
  5
1F1
330
17
100
AcDbEntity
  8
REAPROVEITAMENTO
 62
7
100
AcDbHatch
 10
0.0
 20
0.0
 30
0.0
210
0.0
220
0.0
230
1.0
  2
ANSI31
 70
0
 71
0
 91
1
 92
3
 72
0
 73
1
 93
5
 10
5059.345475679057
 20
4162.044240496749
 10
5059.345475679055
 20
4169.044240496734
 10
4967.34547567905
 20
4169.044240496737
 10
4967.34547567905
 20
4162.044240496748
 10
5059.345475679057
 20
4162.044240496749
 97
0
 75
1
 76
1
 52
0.0
 41
1.0
 77
0
 78
1
 53
45.0
 43
0.0
 44
0.0
 45
-2.2450640303
 46
2.2450640303
 79
0
 98
0
  0
LINE
  5
1F2
330
17
100
AcDbEntity
  8
COTA
 62
4
370
25
100
AcDbLine
 10
4903.345475679062
 20
4059.327959045877
 30
0.0
 11
5059.345475679061
 21
4059.327959045877
 31
0.0
  0
LINE
  5
1F3
330
17
100
AcDbEntity
  8
COTA
 62
0
370
25
100
AcDbLine
 10
4904.845475679062
 20
4060.827959045877
 30
0.0
 11
4901.845475679062
 21
4057.827959045877
 31
0.0
  0
LINE
  5
1F4
330
17
100
AcDbEntity
  8
COTA
 62
0
370
25
100
AcDbLine
 10
5057.845475679061
 20
4057.827959045877
 30
0.0
 11
5060.845475679061
 21
4060.827959045877
 31
0.0
  0
ENDSEC
  0
SECTION
  2
OBJECTS
  0
DICTIONARY
  5
A
330
0
100
AcDbDictionary
281
1
  3
ACAD_COLOR
350
B
  3
ACAD_GROUP
350
C
  3
ACAD_LAYOUT
350
D
  3
ACAD_MATERIAL
350
E
  3
ACAD_MLEADERSTYLE
350
F
  3
ACAD_MLINESTYLE
350
10
  3
ACAD_PLOTSETTINGS
350
11
  3
ACAD_PLOTSTYLENAME
350
12
  3
ACAD_SCALELIST
350
14
  3
ACAD_TABLESTYLE
350
15
  3
ACAD_VISUALSTYLE
350
16
  3
EZDXF_META
350
2D
  0
DICTIONARY
  5
B
330
A
100
AcDbDictionary
281
1
  0
DICTIONARY
  5
C
330
A
100
AcDbDictionary
281
1
  0
DICTIONARY
  5
D
330
A
100
AcDbDictionary
281
1
  3
Model
350
1A
  3
Layout1
350
1E
  0
DICTIONARY
  5
E
330
A
100
AcDbDictionary
281
1
  3
ByBlock
350
1F
  3
ByLayer
350
20
  3
Global
350
21
  0
DICTIONARY
  5
F
330
A
100
AcDbDictionary
281
1
  3
Standard
350
2C
  0
DICTIONARY
  5
10
330
A
100
AcDbDictionary
281
1
  3
Standard
350
22
  0
DICTIONARY
  5
11
330
A
100
AcDbDictionary
281
1
  0
ACDBDICTIONARYWDFLT
  5
12
330
A
100
AcDbDictionary
281
1
  3
Normal
350
13
100
AcDbDictionaryWithDefault
340
13
  0
ACDBPLACEHOLDER
  5
13
330
12
  0
DICTIONARY
  5
14
330
A
100
AcDbDictionary
281
1
  0
DICTIONARY
  5
15
330
A
100
AcDbDictionary
281
1
  0
DICTIONARY
  5
16
330
A
100
AcDbDictionary
281
1
  0
LAYOUT
  5
1A
330
D
100
AcDbPlotSettings
  1

  4
A3
  6

 40
7.5
 41
20.0
 42
7.5
 43
20.0
 44
420.0
 45
297.0
 46
0.0
 47
0.0
 48
0.0
 49
0.0
140
0.0
141
0.0
142
1.0
143
1.0
 70
1024
 72
1
 73
0
 74
5
  7

 75
16
 76
0
 77
2
 78
300
147
1.0
148
0.0
149
0.0
100
AcDbLayout
  1
Model
 70
1
 71
0
 10
0.0
 20
0.0
 11
420.0
 21
297.0
 12
0.0
 22
0.0
 32
0.0
 14
1e+20
 24
1e+20
 34
1e+20
 15
-1e+20
 25
-1e+20
 35
-1e+20
146
0.0
 13
0.0
 23
0.0
 33
0.0
 16
1.0
 26
0.0
 36
0.0
 17
0.0
 27
1.0
 37
0.0
 76
1
330
17
  0
LAYOUT
  5
1E
330
D
100
AcDbPlotSettings
  1

  4
A3
  6

 40
7.5
 41
20.0
 42
7.5
 43
20.0
 44
420.0
 45
297.0
 46
0.0
 47
0.0
 48
0.0
 49
0.0
140
0.0
141
0.0
142
1.0
143
1.0
 70
0
 72
1
 73
0
 74
5
  7

 75
16
 76
0
 77
2
 78
300
147
1.0
148
0.0
149
0.0
100
AcDbLayout
  1
Layout1
 70
1
 71
1
 10
0.0
 20
0.0
 11
420.0
 21
297.0
 12
0.0
 22
0.0
 32
0.0
 14
1e+20
 24
1e+20
 34
1e+20
 15
-1e+20
 25
-1e+20
 35
-1e+20
146
0.0
 13
0.0
 23
0.0
 33
0.0
 16
1.0
 26
0.0
 36
0.0
 17
0.0
 27
1.0
 37
0.0
 76
1
330
1B
  0
MATERIAL
  5
1F
102
{ACAD_REACTORS
330
E
102
}
330
E
100
AcDbMaterial
  1
ByBlock
  2

 70
0
 40
1.0
 71
1
 41
1.0
 91
-1023410177
 42
1.0
 72
1
  3

 73
1
 74
1
 75
1
 44
0.5
 73
0
 45
1.0
 46
1.0
 77
1
  4

 78
1
 79
1
170
1
 48
1.0
171
1
  6

172
1
173
1
174
1
140
1.0
141
1.0
175
1
  7

176
1
177
1
178
1
143
1.0
179
1
  8

270
1
271
1
272
1
145
1.0
146
1.0
273
1
  9

274
1
275
1
276
1
 42
1.0
 72
1
  3

 73
1
 74
1
 75
1
 94
63
  0
MATERIAL
  5
20
102
{ACAD_REACTORS
330
E
102
}
330
E
100
AcDbMaterial
  1
ByLayer
  2

 70
0
 40
1.0
 71
1
 41
1.0
 91
-1023410177
 42
1.0
 72
1
  3

 73
1
 74
1
 75
1
 44
0.5
 73
0
 45
1.0
 46
1.0
 77
1
  4

 78
1
 79
1
170
1
 48
1.0
171
1
  6

172
1
173
1
174
1
140
1.0
141
1.0
175
1
  7

176
1
177
1
178
1
143
1.0
179
1
  8

270
1
271
1
272
1
145
1.0
146
1.0
273
1
  9

274
1
275
1
276
1
 42
1.0
 72
1
  3

 73
1
 74
1
 75
1
 94
63
  0
MATERIAL
  5
21
102
{ACAD_REACTORS
330
E
102
}
330
E
100
AcDbMaterial
  1
Global
  2

 70
0
 40
1.0
 71
1
 41
1.0
 91
-1023410177
 42
1.0
 72
1
  3

 73
1
 74
1
 75
1
 44
0.5
 73
0
 45
1.0
 46
1.0
 77
1
  4

 78
1
 79
1
170
1
 48
1.0
171
1
  6

172
1
173
1
174
1
140
1.0
141
1.0
175
1
  7

176
1
177
1
178
1
143
1.0
179
1
  8

270
1
271
1
272
1
145
1.0
146
1.0
273
1
  9

274
1
275
1
276
1
 42
1.0
 72
1
  3

 73
1
 74
1
 75
1
 94
63
  0
MLINESTYLE
  5
22
102
{ACAD_REACTORS
330
10
102
}
330
10
100
AcDbMlineStyle
  2
Standard
 70
0
  3

 62
256
 51
90.0
 52
90.0
 71
2
 49
0.5
 62
256
  6
BYLAYER
 49
-0.5
 62
256
  6
BYLAYER
  0
MLEADERSTYLE
  5
2C
102
{ACAD_REACTORS
330
F
102
}
330
F
100
AcDbMLeaderStyle
179
2
170
2
171
1
172
0
 90
2
 40
0.0
 41
0.0
173
1
 91
-1056964608
 92
-2
290
1
 42
2.0
291
1
 43
8.0
  3
Standard
 44
4.0
300

342
29
174
1
175
1
176
0
178
1
 93
-1056964608
 45
4.0
292
0
297
0
 46
4.0
 94
-1056964608
 47
1.0
 49
1.0
140
1.0
294
1
141
0.0
177
0
142
1.0
295
0
296
0
143
3.75
271
0
272
9
273
9
  0
DICTIONARY
  5
2D
330
A
100
AcDbDictionary
280
1
281
1
  3
CREATED_BY_EZDXF
350
2E
  3
WRITTEN_BY_EZDXF
350
1F7
  0
DICTIONARYVAR
  5
2E
330
2D
100
DictionaryVariables
280
0
  1
1.4.3 @ 2026-06-10T04:23:26.783888+00:00
  0
DICTIONARYVAR
  5
1F7
330
2D
100
DictionaryVariables
280
0
  1
1.4.3 @ 2026-06-10T04:23:26.798307+00:00
  0
ENDSEC
  0
EOF
