  0
SECTION
  2
HEADER
  9
$ACADVER
  1
AC1024
  9
$ACADMAINTVER
 70
6
  9
$DWGCODEPAGE
  3
ANSI_1252
  9
$LASTSAVEDBY
  1
ezdxf
  9
$INSBASE
 10
0.0
 20
0.0
 30
0.0
  9
$EXTMIN
 10
1e+20
 20
1e+20
 30
1e+20
  9
$EXTMAX
 10
-1e+20
 20
-1e+20
 30
-1e+20
  9
$LIMMIN
 10
0.0
 20
0.0
  9
$LIMMAX
 10
420.0
 20
297.0
  9
$ORTHOMODE
 70
0
  9
$REGENMODE
 70
1
  9
$FILLMODE
 70
1
  9
$QTEXTMODE
 70
0
  9
$MIRRTEXT
 70
1
  9
$LTSCALE
 40
1.0
  9
$ATTMODE
 70
1
  9
$TEXTSIZE
 40
2.5
  9
$TRACEWID
 40
1.0
  9
$TEXTSTYLE
  7
Standard
  9
$CLAYER
  8
0
  9
$CELTYPE
  6
ByLayer
  9
$CECOLOR
 62
256
  9
$CELTSCALE
 40
1.0
  9
$DISPSILH
 70
0
  9
$DIMSCALE
 40
1.0
  9
$DIMASZ
 40
2.5
  9
$DIMEXO
 40
0.625
  9
$DIMDLI
 40
3.75
  9
$DIMRND
 40
0.0
  9
$DIMDLE
 40
0.0
  9
$DIMEXE
 40
1.25
  9
$DIMTP
 40
0.0
  9
$DIMTM
 40
0.0
  9
$DIMTXT
 40
2.5
  9
$DIMCEN
 40
2.5
  9
$DIMTSZ
 40
0.0
  9
$DIMTOL
 70
0
  9
$DIMLIM
 70
0
  9
$DIMTIH
 70
0
  9
$DIMTOH
 70
0
  9
$DIMSE1
 70
0
  9
$DIMSE2
 70
0
  9
$DIMTAD
 70
1
  9
$DIMZIN
 70
8
  9
$DIMBLK
  1

  9
$DIMASO
 70
1
  9
$DIMSHO
 70
1
  9
$DIMPOST
  1

  9
$DIMAPOST
  1

  9
$DIMALT
 70
0
  9
$DIMALTD
 70
3
  9
$DIMALTF
 40
0.03937007874
  9
$DIMLFAC
 40
1.0
  9
$DIMTOFL
 70
1
  9
$DIMTVP
 40
0.0
  9
$DIMTIX
 70
0
  9
$DIMSOXD
 70
0
  9
$DIMSAH
 70
0
  9
$DIMBLK1
  1

  9
$DIMBLK2
  1

  9
$DIMSTYLE
  2
ISO-25
  9
$DIMCLRD
 70
0
  9
$DIMCLRE
 70
0
  9
$DIMCLRT
 70
0
  9
$DIMTFAC
 40
1.0
  9
$DIMGAP
 40
0.625
  9
$DIMJUST
 70
0
  9
$DIMSD1
 70
0
  9
$DIMSD2
 70
0
  9
$DIMTOLJ
 70
0
  9
$DIMTZIN
 70
8
  9
$DIMALTZ
 70
0
  9
$DIMALTTZ
 70
0
  9
$DIMUPT
 70
0
  9
$DIMDEC
 70
2
  9
$DIMTDEC
 70
2
  9
$DIMALTU
 70
2
  9
$DIMALTTD
 70
3
  9
$DIMTXSTY
  7
Standard
  9
$DIMAUNIT
 70
0
  9
$DIMADEC
 70
0
  9
$DIMALTRND
 40
0.0
  9
$DIMAZIN
 70
0
  9
$DIMDSEP
 70
44
  9
$DIMATFIT
 70
3
  9
$DIMFRAC
 70
0
  9
$DIMLDRBLK
  1

  9
$DIMLUNIT
 70
2
  9
$DIMLWD
 70
-2
  9
$DIMLWE
 70
-2
  9
$DIMTMOVE
 70
0
  9
$DIMFXL
 40
1.0
  9
$DIMFXLON
 70
0
  9
$DIMJOGANG
 40
0.785398163397
  9
$DIMTFILL
 70
0
  9
$DIMTFILLCLR
 70
0
  9
$DIMARCSYM
 70
0
  9
$DIMLTYPE
  6

  9
$DIMLTEX1
  6

  9
$DIMLTEX2
  6

  9
$DIMTXTDIRECTION
 70
0
  9
$LUNITS
 70
2
  9
$LUPREC
 70
4
  9
$SKETCHINC
 40
1.0
  9
$FILLETRAD
 40
10.0
  9
$AUNITS
 70
0
  9
$AUPREC
 70
2
  9
$MENU
  1
.
  9
$ELEVATION
 40
0.0
  9
$PELEVATION
 40
0.0
  9
$THICKNESS
 40
0.0
  9
$LIMCHECK
 70
0
  9
$CHAMFERA
 40
0.0
  9
$CHAMFERB
 40
0.0
  9
$CHAMFERC
 40
0.0
  9
$CHAMFERD
 40
0.0
  9
$SKPOLY
 70
0
  9
$TDCREATE
 40
2461202.614733796
  9
$TDUCREATE
 40
2458532.153996898
  9
$TDUPDATE
 40
2461202.614733796
  9
$TDUUPDATE
 40
2458532.1544311
  9
$TDINDWG
 40
0.0
  9
$TDUSRTIMER
 40
0.0
  9
$USRTIMER
 70
1
  9
$ANGBASE
 50
0.0
  9
$ANGDIR
 70
0
  9
$PDMODE
 70
0
  9
$PDSIZE
 40
0.0
  9
$PLINEWID
 40
0.0
  9
$SPLFRAME
 70
0
  9
$SPLINETYPE
 70
6
  9
$SPLINESEGS
 70
8
  9
$HANDSEED
  5
1AC
  9
$SURFTAB1
 70
6
  9
$SURFTAB2
 70
6
  9
$SURFTYPE
 70
6
  9
$SURFU
 70
6
  9
$SURFV
 70
6
  9
$UCSBASE
  2

  9
$UCSNAME
  2

  9
$UCSORG
 10
0.0
 20
0.0
 30
0.0
  9
$UCSXDIR
 10
1.0
 20
0.0
 30
0.0
  9
$UCSYDIR
 10
0.0
 20
1.0
 30
0.0
  9
$UCSORTHOREF
  2

  9
$UCSORTHOVIEW
 70
0
  9
$UCSORGTOP
 10
0.0
 20
0.0
 30
0.0
  9
$UCSORGBOTTOM
 10
0.0
 20
0.0
 30
0.0
  9
$UCSORGLEFT
 10
0.0
 20
0.0
 30
0.0
  9
$UCSORGRIGHT
 10
0.0
 20
0.0
 30
0.0
  9
$UCSORGFRONT
 10
0.0
 20
0.0
 30
0.0
  9
$UCSORGBACK
 10
0.0
 20
0.0
 30
0.0
  9
$PUCSBASE
  2

  9
$PUCSNAME
  2

  9
$PUCSORG
 10
0.0
 20
0.0
 30
0.0
  9
$PUCSXDIR
 10
1.0
 20
0.0
 30
0.0
  9
$PUCSYDIR
 10
0.0
 20
1.0
 30
0.0
  9
$PUCSORTHOREF
  2

  9
$PUCSORTHOVIEW
 70
0
  9
$PUCSORGTOP
 10
0.0
 20
0.0
 30
0.0
  9
$PUCSORGBOTTOM
 10
0.0
 20
0.0
 30
0.0
  9
$PUCSORGLEFT
 10
0.0
 20
0.0
 30
0.0
  9
$PUCSORGRIGHT
 10
0.0
 20
0.0
 30
0.0
  9
$PUCSORGFRONT
 10
0.0
 20
0.0
 30
0.0
  9
$PUCSORGBACK
 10
0.0
 20
0.0
 30
0.0
  9
$USERI1
 70
0
  9
$USERI2
 70
0
  9
$USERI3
 70
0
  9
$USERI4
 70
0
  9
$USERI5
 70
0
  9
$USERR1
 40
0.0
  9
$USERR2
 40
0.0
  9
$USERR3
 40
0.0
  9
$USERR4
 40
0.0
  9
$USERR5
 40
0.0
  9
$WORLDVIEW
 70
1
  9
$SHADEDGE
 70
3
  9
$SHADEDIF
 70
70
  9
$TILEMODE
 70
1
  9
$MAXACTVP
 70
64
  9
$PINSBASE
 10
0.0
 20
0.0
 30
0.0
  9
$PLIMCHECK
 70
0
  9
$PEXTMIN
 10
1e+20
 20
1e+20
 30
1e+20
  9
$PEXTMAX
 10
-1e+20
 20
-1e+20
 30
-1e+20
  9
$PLIMMIN
 10
0.0
 20
0.0
  9
$PLIMMAX
 10
420.0
 20
297.0
  9
$UNITMODE
 70
0
  9
$VISRETAIN
 70
1
  9
$PLINEGEN
 70
0
  9
$PSLTSCALE
 70
1
  9
$TREEDEPTH
 70
3020
  9
$CMLSTYLE
  2
Standard
  9
$CMLJUST
 70
0
  9
$CMLSCALE
 40
20.0
  9
$PROXYGRAPHICS
 70
1
  9
$MEASUREMENT
 70
1
  9
$CELWEIGHT
370
-1
  9
$ENDCAPS
280
0
  9
$JOINSTYLE
280
0
  9
$LWDISPLAY
290
0
  9
$INSUNITS
 70
6
  9
$HYPERLINKBASE
  1

  9
$STYLESHEET
  1

  9
$XEDIT
290
1
  9
$CEPSNTYPE
380
0
  9
$PSTYLEMODE
290
1
  9
$FINGERPRINTGUID
  2
{ED2055B8-0FB4-4069-89B0-B098047D6D80}
  9
$VERSIONGUID
  2
{6DC8BFBA-B2F2-4976-B6A3-E1F3128A318A}
  9
$EXTNAMES
290
1
  9
$PSVPSCALE
 40
0.0
  9
$OLESTARTUP
290
0
  9
$SORTENTS
280
127
  9
$INDEXCTL
280
0
  9
$HIDETEXT
280
1
  9
$XCLIPFRAME
280
1
  9
$HALOGAP
280
0
  9
$OBSCOLOR
 70
257
  9
$OBSLTYPE
280
0
  9
$INTERSECTIONDISPLAY
280
0
  9
$INTERSECTIONCOLOR
 70
257
  9
$DIMASSOC
280
2
  9
$PROJECTNAME
  1

  9
$CAMERADISPLAY
290
0
  9
$LENSLENGTH
 40
50.0
  9
$CAMERAHEIGHT
 40
0.0
  9
$STEPSPERSEC
 40
24.0
  9
$STEPSIZE
 40
100.0
  9
$3DDWFPREC
 40
2.0
  9
$PSOLWIDTH
 40
0.005
  9
$PSOLHEIGHT
 40
0.08
  9
$LOFTANG1
 40
1.570796326795
  9
$LOFTANG2
 40
1.570796326795
  9
$LOFTMAG1
 40
0.0
  9
$LOFTMAG2
 40
0.0
  9
$LOFTPARAM
 70
7
  9
$LOFTNORMALS
280
1
  9
$LATITUDE
 40
37.795
  9
$LONGITUDE
 40
-122.394
  9
$NORTHDIRECTION
 40
0.0
  9
$TIMEZONE
 70
-8000
  9
$LIGHTGLYPHDISPLAY
280
1
  9
$TILEMODELIGHTSYNCH
280
1
  9
$CMATERIAL
347
20
  9
$SOLIDHIST
280
0
  9
$SHOWHIST
280
1
  9
$DWFFRAME
280
2
  9
$DGNFRAME
280
2
  9
$REALWORLDSCALE
290
1
  9
$INTERFERECOLOR
 62
256
  9
$CSHADOW
280
0
  9
$SHADOWPLANELOCATION
 40
0.0
  0
ENDSEC
  0
SECTION
  2
CLASSES
  0
CLASS
  1
ACDBDICTIONARYWDFLT
  2
AcDbDictionaryWithDefault
  3
ObjectDBX Classes
 90
0
 91
0
280
0
281
0
  0
CLASS
  1
SUN
  2
AcDbSun
  3
SCENEOE
 90
1153
 91
0
280
0
281
0
  0
CLASS
  1
VISUALSTYLE
  2
AcDbVisualStyle
  3
ObjectDBX Classes
 90
4095
 91
0
280
0
281
0
  0
CLASS
  1
MATERIAL
  2
AcDbMaterial
  3
ObjectDBX Classes
 90
1153
 91
0
280
0
281
0
  0
CLASS
  1
SCALE
  2
AcDbScale
  3
ObjectDBX Classes
 90
1153
 91
0
280
0
281
0
  0
CLASS
  1
TABLESTYLE
  2
AcDbTableStyle
  3
ObjectDBX Classes
 90
4095
 91
0
280
0
281
0
  0
CLASS
  1
MLEADERSTYLE
  2
AcDbMLeaderStyle
  3
ACDB_MLEADERSTYLE_CLASS
 90
4095
 91
0
280
0
281
0
  0
CLASS
  1
DICTIONARYVAR
  2
AcDbDictionaryVar
  3
ObjectDBX Classes
 90
0
 91
0
280
0
281
0
  0
CLASS
  1
CELLSTYLEMAP
  2
AcDbCellStyleMap
  3
ObjectDBX Classes
 90
1152
 91
0
280
0
281
0
  0
CLASS
  1
MENTALRAYRENDERSETTINGS
  2
AcDbMentalRayRenderSettings
  3
SCENEOE
 90
1024
 91
0
280
0
281
0
  0
CLASS
  1
ACDBDETAILVIEWSTYLE
  2
AcDbDetailViewStyle
  3
ObjectDBX Classes
 90
1025
 91
0
280
0
281
0
  0
CLASS
  1
ACDBSECTIONVIEWSTYLE
  2
AcDbSectionViewStyle
  3
ObjectDBX Classes
 90
1025
 91
0
280
0
281
0
  0
CLASS
  1
RASTERVARIABLES
  2
AcDbRasterVariables
  3
ISM
 90
0
 91
0
280
0
281
0
  0
CLASS
  1
ACDBPLACEHOLDER
  2
AcDbPlaceHolder
  3
ObjectDBX Classes
 90
0
 91
0
280
0
281
0
  0
CLASS
  1
LAYOUT
  2
AcDbLayout
  3
ObjectDBX Classes
 90
0
 91
0
280
0
281
0
  0
ENDSEC
  0
SECTION
  2
TABLES
  0
TABLE
  2
VPORT
  5
8
330
0
100
AcDbSymbolTable
 70
1
  0
VPORT
  5
23
330
8
100
AcDbSymbolTableRecord
100
AcDbViewportTableRecord
  2
*Active
 70
0
 10
0.0
 20
0.0
 11
1.0
 21
1.0
 12
0.0
 22
0.0
 13
0.0
 23
0.0
 14
0.5
 24
0.5
 15
0.5
 25
0.5
 16
0.0
 26
0.0
 36
1.0
 17
0.0
 27
0.0
 37
0.0
 40
1000.0
 41
1.34
 42
50.0
 43
0.0
 44
0.0
 50
0.0
 51
0.0
 71
0
 72
1000
 73
1
 74
3
 75
0
 76
0
 77
0
 78
0
281
0
 65
0
146
0.0
  0
ENDTAB
  0
TABLE
  2
LTYPE
  5
2
330
0
100
AcDbSymbolTable
 70
3
  0
LTYPE
  5
24
330
2
100
AcDbSymbolTableRecord
100
AcDbLinetypeTableRecord
  2
ByBlock
 70
0
  3

 72
65
 73
0
 40
0.0
  0
LTYPE
  5
25
330
2
100
AcDbSymbolTableRecord
100
AcDbLinetypeTableRecord
  2
ByLayer
 70
0
  3

 72
65
 73
0
 40
0.0
  0
LTYPE
  5
26
330
2
100
AcDbSymbolTableRecord
100
AcDbLinetypeTableRecord
  2
Continuous
 70
0
  3

 72
65
 73
0
 40
0.0
  0
ENDTAB
  0
TABLE
  2
LAYER
  5
1
330
0
100
AcDbSymbolTable
 70
14
  0
LAYER
  5
27
330
1
100
AcDbSymbolTableRecord
100
AcDbLayerTableRecord
  2
0
 70
0
 62
7
  6
Continuous
370
-3
390
13
347
21
  0
LAYER
  5
28
330
1
100
AcDbSymbolTableRecord
100
AcDbLayerTableRecord
  2
Defpoints
 70
0
 62
7
  6
Continuous
290
0
370
-3
390
13
347
21
  0
LAYER
  5
2F
330
1
100
AcDbSymbolTableRecord
100
AcDbLayerTableRecord
  2
detalhes
 70
0
 62
7
  6
Continuous
370
-3
390
13
347
21
  0
LAYER
  5
30
330
1
100
AcDbSymbolTableRecord
100
AcDbLayerTableRecord
  2
Hachura
 70
0
 62
7
  6
Continuous
370
-3
390
13
347
21
  0
LAYER
  5
31
330
1
100
AcDbSymbolTableRecord
100
AcDbLayerTableRecord
  2
COTA
 70
0
 62
7
  6
Continuous
370
-3
390
13
347
21
  0
LAYER
  5
32
330
1
100
AcDbSymbolTableRecord
100
AcDbLayerTableRecord
  2
SARR_3.5x7
 70
0
 62
7
  6
Continuous
370
-3
390
13
347
21
  0
LAYER
  5
33
330
1
100
AcDbSymbolTableRecord
100
AcDbLayerTableRecord
  2
CONCRETO
 70
0
 62
7
  6
Continuous
370
-3
390
13
347
21
  0
LAYER
  5
34
330
1
100
AcDbSymbolTableRecord
100
AcDbLayerTableRecord
  2
Madeira
 70
0
 62
7
  6
Continuous
370
-3
390
13
347
21
  0
LAYER
  5
35
330
1
100
AcDbSymbolTableRecord
100
AcDbLayerTableRecord
  2
Cota Seção (2x)
 70
0
 62
7
  6
Continuous
370
-3
390
13
347
21
  0
LAYER
  5
36
330
1
100
AcDbSymbolTableRecord
100
AcDbLayerTableRecord
  2
Painéis
 70
0
 62
7
  6
Continuous
370
-3
390
13
347
21
  0
LAYER
  5
37
330
1
100
AcDbSymbolTableRecord
100
AcDbLayerTableRecord
  2
REAPROVEITAMENTO
 70
0
 62
7
  6
Continuous
370
-3
390
13
347
21
  0
LAYER
  5
38
330
1
100
AcDbSymbolTableRecord
100
AcDbLayerTableRecord
  2
Texto Seção
 70
0
 62
7
  6
Continuous
370
-3
390
13
347
21
  0
LAYER
  5
39
330
1
100
AcDbSymbolTableRecord
100
AcDbLayerTableRecord
  2
SARR_2.2x7
 70
0
 62
7
  6
Continuous
370
-3
390
13
347
21
  0
LAYER
  5
3A
330
1
100
AcDbSymbolTableRecord
100
AcDbLayerTableRecord
  2
5
 70
0
 62
7
  6
Continuous
370
-3
390
13
347
21
  0
ENDTAB
  0
TABLE
  2
STYLE
  5
5
330
0
100
AcDbSymbolTable
 70
1
  0
STYLE
  5
29
330
5
100
AcDbSymbolTableRecord
100
AcDbTextStyleTableRecord
  2
Standard
 70
0
 40
0.0
 41
1.0
 50
0.0
 71
0
 42
2.5
  3
txt
  4

  0
ENDTAB
  0
TABLE
  2
VIEW
  5
7
330
0
100
AcDbSymbolTable
 70
0
  0
ENDTAB
  0
TABLE
  2
UCS
  5
6
330
0
100
AcDbSymbolTable
 70
0
  0
ENDTAB
  0
TABLE
  2
APPID
  5
3
330
0
100
AcDbSymbolTable
 70
3
  0
APPID
  5
2A
330
3
100
AcDbSymbolTableRecord
100
AcDbRegAppTableRecord
  2
ACAD
 70
0
  0
APPID
  5
1A9
330
3
100
AcDbSymbolTableRecord
100
AcDbRegAppTableRecord
  2
HATCHBACKGROUNDCOLOR
 70
0
  0
APPID
  5
1AA
330
3
100
AcDbSymbolTableRecord
100
AcDbRegAppTableRecord
  2
EZDXF
 70
0
  0
ENDTAB
  0
TABLE
  2
DIMSTYLE
  5
4
330
0
100
AcDbSymbolTable
 70
1
100
AcDbDimStyleTable
  0
DIMSTYLE
105
2B
330
4
100
AcDbSymbolTableRecord
100
AcDbDimStyleTableRecord
  2
Standard
 70
0
 40
1.0
 41
2.5
 42
0.625
 43
3.75
 44
1.25
 45
0.0
 46
0.0
 47
0.0
 48
0.0
 49
2.5
140
2.5
141
2.5
142
0.0
143
0.03937007874
144
1.0
145
0.0
146
1.0
147
0.625
148
0.0
 69
0
 70
0
 71
0
 72
0
 73
0
 74
0
 75
0
 76
0
 77
1
 78
8
 79
3
170
0
171
3
172
1
173
0
174
0
175
0
176
0
177
0
178
0
179
2
271
2
272
2
273
2
274
3
275
0
276
0
277
2
278
44
279
0
280
0
281
0
282
0
283
0
284
8
285
0
286
0
288
0
289
3
290
0
371
-2
372
-2
  0
ENDTAB
  0
TABLE
  2
BLOCK_RECORD
  5
9
330
0
100
AcDbSymbolTable
 70
2
  0
BLOCK_RECORD
  5
17
330
9
100
AcDbSymbolTableRecord
100
AcDbBlockTableRecord
  2
*Model_Space
340
1A
 70
0
280
1
281
0
  0
BLOCK_RECORD
  5
1B
330
9
100
AcDbSymbolTableRecord
100
AcDbBlockTableRecord
  2
*Paper_Space
340
1E
 70
0
280
1
281
0
  0
ENDTAB
  0
ENDSEC
  0
SECTION
  2
BLOCKS
  0
BLOCK
  5
18
330
17
100
AcDbEntity
  8
0
100
AcDbBlockBegin
  2
*Model_Space
 70
0
 10
0.0
 20
0.0
 30
0.0
  3
*Model_Space
  1

  0
ENDBLK
  5
19
330
17
100
AcDbEntity
  8
0
100
AcDbBlockEnd
  0
BLOCK
  5
1C
330
1B
100
AcDbEntity
  8
0
100
AcDbBlockBegin
  2
*Paper_Space
 70
0
 10
0.0
 20
0.0
 30
0.0
  3
*Paper_Space
  1

  0
ENDBLK
  5
1D
330
1B
100
AcDbEntity
  8
0
100
AcDbBlockEnd
  0
ENDSEC
  0
SECTION
  2
ENTITIES
  0
LINE
  5
3B
330
17
100
AcDbEntity
  8
Painéis
 62
200
370
25
100
AcDbLine
 10
6972.624484914944
 20
4200.897880325678
 30
0.0
 11
7093.624484914951
 21
4200.897880325697
 31
0.0
  0
LINE
  5
3C
330
17
100
AcDbEntity
  8
Painéis
 62
200
370
25
100
AcDbLine
 10
7058.11057641869
 20
4427.994967601762
 30
0.0
 11
6373.610576418688
 21
4427.994967601762
 31
0.0
  0
LINE
  5
3D
330
17
100
AcDbEntity
  8
Painéis
 62
200
370
25
100
AcDbLine
 10
7058.110576418686
 20
4368.994967601762
 30
0.0
 11
6373.610576418685
 21
4368.994967601762
 31
0.0
  0
LINE
  5
3E
330
17
100
AcDbEntity
  8
Painéis
 62
200
370
25
100
AcDbLine
 10
6861.610576418685
 20
4368.994967601777
 30
0.0
 11
6861.610576418688
 21
4427.994967601777
 31
0.0
  0
LINE
  5
3F
330
17
100
AcDbEntity
  8
Painéis
 62
200
370
25
100
AcDbLine
 10
6373.610576418685
 20
4368.994967601762
 30
0.0
 11
6373.610576418688
 21
4427.994967601762
 31
0.0
  0
LINE
  5
40
330
17
100
AcDbEntity
  8
Painéis
 62
200
370
25
100
AcDbLine
 10
7058.110576418686
 20
4368.994967601762
 30
0.0
 11
7058.110576418688
 21
4427.994967601762
 31
0.0
  0
LINE
  5
41
330
17
100
AcDbEntity
  8
Painéis
 62
200
370
25
100
AcDbLine
 10
6617.610576418686
 20
4368.994967601777
 30
0.0
 11
6617.610576418688
 21
4427.994967601777
 31
0.0
  0
LINE
  5
42
330
17
100
AcDbEntity
  8
Painéis
 62
200
370
25
100
AcDbLine
 10
6499.624484914959
 20
4214.897880325701
 30
0.0
 11
6375.624484914958
 21
4214.897880325701
 31
0.0
  0
LINE
  5
43
330
17
100
AcDbEntity
  8
Painéis
 62
200
370
25
100
AcDbLine
 10
6521.624484914953
 20
4155.897880325701
 30
0.0
 11
6375.624484914954
 21
4155.897880325701
 31
0.0
  0
LINE
  5
44
330
17
100
AcDbEntity
  8
Painéis
 62
200
370
25
100
AcDbLine
 10
6375.624484914954
 20
4155.897880325716
 30
0.0
 11
6375.624484914958
 21
4214.897880325715
 31
0.0
  0
LINE
  5
45
330
17
100
AcDbEntity
  8
Painéis
 62
200
370
25
100
AcDbLine
 10
6945.624484914954
 20
4155.897880325672
 30
0.0
 11
7093.624484914953
 21
4155.897880325698
 31
0.0
  0
LINE
  5
46
330
17
100
AcDbEntity
  8
Painéis
 62
200
370
25
100
AcDbLine
 10
7093.624484914953
 20
4155.897880325698
 30
0.0
 11
7093.624484914951
 21
4200.897880325697
 31
0.0
  0
LINE
  5
47
330
17
100
AcDbEntity
  8
Painéis
 62
200
370
25
100
AcDbLine
 10
6945.624484914954
 20
4155.897880325672
 30
0.0
 11
6945.62448491495
 21
4160.897880325673
 31
0.0
  0
LINE
  5
48
330
17
100
AcDbEntity
  8
COTA
 62
241
370
25
100
AcDbLine
 10
6945.624484914948
 20
4214.897880325672
 30
0.0
 11
7093.624484914947
 21
4214.897880325672
 31
0.0
  0
LINE
  5
49
330
17
100
AcDbEntity
  8
COTA
 62
241
370
25
100
AcDbLine
 10
7093.624484914947
 20
4214.897880325672
 30
0.0
 11
7093.624484914951
 21
4200.897880325697
 31
0.0
  0
LINE
  5
4A
330
17
100
AcDbEntity
  8
SARR_2.2x7
 62
40
370
25
100
AcDbLine
 10
7051.110576418685
 20
4368.994400556444
 30
0.0
 11
7051.110576418685
 21
4427.994967601762
 31
0.0
  0
LINE
  5
4B
330
17
100
AcDbEntity
  8
Painéis
 62
200
370
25
100
AcDbLine
 10
6521.624484914948
 20
4214.8978803257
 30
0.0
 11
6945.62448491495
 21
4214.897880325724
 31
0.0
  0
LINE
  5
4C
330
17
100
AcDbEntity
  8
Painéis
 62
200
370
25
100
AcDbLine
 10
6521.624484914953
 20
4155.897880325699
 30
0.0
 11
6945.624484914954
 21
4155.897880325725
 31
0.0
  0
LINE
  5
4D
330
17
100
AcDbEntity
  8
Painéis
 62
200
370
25
100
AcDbLine
 10
6765.624484914953
 20
4155.897880325714
 30
0.0
 11
6765.62448491495
 21
4214.897880325714
 31
0.0
  0
LINE
  5
4E
330
17
100
AcDbEntity
  8
Painéis
 62
200
370
25
100
AcDbLine
 10
6945.624484914954
 20
4155.897880325725
 30
0.0
 11
6945.62448491495
 21
4214.897880325724
 31
0.0
  0
LINE
  5
4F
330
17
100
AcDbEntity
  8
Painéis
 62
200
370
25
100
AcDbLine
 10
6521.624484914953
 20
4155.897880325699
 30
0.0
 11
6521.62448491495
 21
4214.8978803257
 31
0.0
  0
LINE
  5
50
330
17
100
AcDbEntity
  8
Painéis
 62
200
370
25
100
AcDbLine
 10
6499.624484914959
 20
4214.897880325701
 30
0.0
 11
6499.624484914959
 21
4160.897880325701
 31
0.0
  0
LINE
  5
51
330
17
100
AcDbEntity
  8
Painéis
 62
200
370
25
100
AcDbLine
 10
6499.624484914959
 20
4160.897880325701
 30
0.0
 11
6521.624484914953
 21
4160.897880325699
 31
0.0
  0
LINE
  5
52
330
17
100
AcDbEntity
  8
COTA
 62
241
370
25
100
AcDbLine
 10
6499.624484914959
 20
4214.897880325701
 30
0.0
 11
6521.624484914958
 21
4214.897880325701
 31
0.0
  0
LINE
  5
53
330
17
100
AcDbEntity
  8
Painéis
 62
200
370
25
100
AcDbLine
 10
6945.624484914954
 20
4160.897880325673
 30
0.0
 11
6972.624484914954
 21
4160.897880325673
 31
0.0
  0
LINE
  5
54
330
17
100
AcDbEntity
  8
Painéis
 62
200
370
25
100
AcDbLine
 10
6972.624484914954
 20
4160.897880325673
 30
0.0
 11
6972.624484914944
 21
4200.897880325678
 31
0.0
  0
LINE
  5
55
330
17
100
AcDbEntity
  8
SARR_2.2x7
 62
40
370
25
100
AcDbLine
 10
6373.610576418688
 20
4420.994967601854
 30
0.0
 11
6617.61057641869
 21
4420.994967601873
 31
0.0
  0
LINE
  5
56
330
17
100
AcDbEntity
  8
SARR_2.2x7
 62
40
370
25
100
AcDbLine
 10
6617.61057641869
 20
4420.994967601872
 30
0.0
 11
6861.610576418691
 21
4420.994967601667
 31
0.0
  0
LINE
  5
57
330
17
100
AcDbEntity
  8
SARR_2.2x7
 62
40
370
25
100
AcDbLine
 10
6398.110576418687
 20
4375.99496760169
 30
0.0
 11
6617.61057641869
 21
4375.994967601672
 31
0.0
  0
LINE
  5
58
330
17
100
AcDbEntity
  8
SARR_2.2x7
 62
40
370
25
100
AcDbLine
 10
6711.110576418687
 20
4375.994967601667
 30
0.0
 11
6861.610576418685
 21
4375.994967601658
 31
0.0
  0
LINE
  5
59
330
17
100
AcDbEntity
  8
SARR_2.2x7
 62
40
370
25
100
AcDbLine
 10
6711.110576418687
 20
4394.994967601849
 30
0.0
 11
6861.610576418691
 21
4394.994967601722
 31
0.0
  0
LINE
  5
5A
330
17
100
AcDbEntity
  8
SARR_2.2x7
 62
40
370
25
100
AcDbLine
 10
6711.110576418687
 20
4401.994967601704
 30
0.0
 11
6861.610576418691
 21
4401.994967601831
 31
0.0
  0
LINE
  5
5B
330
17
100
AcDbEntity
  8
SARR_2.2x7
 62
40
370
25
100
AcDbLine
 10
6398.110576418687
 20
4394.994967601911
 30
0.0
 11
6617.610576418669
 21
4394.994967601927
 31
0.0
  0
LINE
  5
5C
330
17
100
AcDbEntity
  8
SARR_2.2x7
 62
40
370
25
100
AcDbLine
 10
6398.110576418687
 20
4401.994967601607
 30
0.0
 11
6617.610576418693
 21
4401.994967601626
 31
0.0
  0
LINE
  5
5D
330
17
100
AcDbEntity
  8
SARR_2.2x7
 62
40
370
25
100
AcDbLine
 10
6861.610576418691
 20
4420.994967601873
 30
0.0
 11
7058.110576418688
 21
4420.994967601707
 31
0.0
  0
LINE
  5
5E
330
17
100
AcDbEntity
  8
SARR_2.2x7
 62
40
370
25
100
AcDbLine
 10
6861.610576418691
 20
4375.994967601672
 30
0.0
 11
6972.110576418687
 21
4375.994967601666
 31
0.0
  0
LINE
  5
5F
330
17
100
AcDbEntity
  8
SARR_2.2x7
 62
40
370
25
100
AcDbLine
 10
6861.610576418692
 20
4394.994967601927
 30
0.0
 11
6972.110576418685
 21
4394.994967601834
 31
0.0
  0
LINE
  5
60
330
17
100
AcDbEntity
  8
SARR_2.2x7
 62
40
370
25
100
AcDbLine
 10
6861.610576418692
 20
4401.994967601626
 30
0.0
 11
6972.110576418685
 21
4401.994967601719
 31
0.0
  0
LINE
  5
61
330
17
100
AcDbEntity
  8
SARR_2.2x7
 62
40
370
25
100
AcDbLine
 10
6427.624484914952
 20
4155.897880325706
 30
0.0
 11
6427.624484914952
 21
4162.89788032564
 31
0.0
  0
LINE
  5
62
330
17
100
AcDbEntity
  8
SARR_2.2x7
 62
40
370
25
100
AcDbLine
 10
6427.624484914952
 20
4181.897880325869
 30
0.0
 11
6427.624484914949
 21
4188.897880325568
 31
0.0
  0
LINE
  5
63
330
17
100
AcDbEntity
  8
SARR_2.2x7
 62
40
370
25
100
AcDbLine
 10
6528.579344155765
 20
4207.897880325792
 30
0.0
 11
6765.62448491495
 21
4207.89788032581
 31
0.0
  0
LINE
  5
64
330
17
100
AcDbEntity
  8
SARR_2.2x7
 62
40
370
25
100
AcDbLine
 10
6528.579344155767
 20
4155.897880325696
 30
0.0
 11
6528.579344155763
 21
4214.8978803257
 31
0.0
  0
LINE
  5
65
330
17
100
AcDbEntity
  8
SARR_2.2x7
 62
40
370
25
100
AcDbLine
 10
6528.579344155765
 20
4162.897880325629
 30
0.0
 11
6687.624484914952
 21
4162.897880325616
 31
0.0
  0
LINE
  5
66
330
17
100
AcDbEntity
  8
SARR_2.2x7
 62
40
370
25
100
AcDbLine
 10
6528.579344155741
 20
4181.897880325847
 30
0.0
 11
6687.624484914952
 21
4181.897880325858
 31
0.0
  0
LINE
  5
67
330
17
100
AcDbEntity
  8
SARR_2.2x7
 62
40
370
25
100
AcDbLine
 10
6528.579344155765
 20
4188.897880325544
 30
0.0
 11
6687.624484914952
 21
4188.897880325557
 31
0.0
  0
LINE
  5
68
330
17
100
AcDbEntity
  8
SARR_2.2x7
 62
40
370
25
100
AcDbLine
 10
6979.579344155762
 20
4193.89788032577
 30
0.0
 11
7093.624484914951
 21
4193.897880325781
 31
0.0
  0
LINE
  5
69
330
17
100
AcDbEntity
  8
SARR_2.2x7
 62
40
370
25
100
AcDbLine
 10
6979.579344155762
 20
4162.89788032561
 30
0.0
 11
6979.57934415576
 21
4200.897880325678
 31
0.0
  0
LINE
  5
6A
330
17
100
AcDbEntity
  8
SARR_2.2x7
 62
40
370
25
100
AcDbLine
 10
6972.624484914954
 20
4162.897880325612
 30
0.0
 11
6997.62448491495
 21
4162.897880325609
 31
0.0
  0
LINE
  5
6B
330
17
100
AcDbEntity
  8
SARR_2.2x7
 62
40
370
25
100
AcDbLine
 10
6492.669625674142
 20
4207.897880325808
 30
0.0
 11
6375.624484914955
 21
4207.897880325815
 31
0.0
  0
LINE
  5
6C
330
17
100
AcDbEntity
  8
SARR_2.2x7
 62
40
370
25
100
AcDbLine
 10
6492.669625674142
 20
4162.897880325645
 30
0.0
 11
6492.669625674143
 21
4214.897880325715
 31
0.0
  0
LINE
  5
6D
330
17
100
AcDbEntity
  8
SARR_2.2x7
 62
40
370
25
100
AcDbLine
 10
6499.624484914959
 20
4162.897880325645
 30
0.0
 11
6427.624484914952
 21
4162.89788032564
 31
0.0
  0
LINE
  5
6E
330
17
100
AcDbEntity
  8
SARR_2.2x7
 62
40
370
25
100
AcDbLine
 10
6492.669625674165
 20
4181.897880325863
 30
0.0
 11
6427.624484914952
 21
4181.897880325869
 31
0.0
  0
LINE
  5
6F
330
17
100
AcDbEntity
  8
SARR_2.2x7
 62
40
370
25
100
AcDbLine
 10
6492.669625674142
 20
4188.897880325561
 30
0.0
 11
6427.624484914952
 21
4188.897880325568
 31
0.0
  0
LINE
  5
70
330
17
100
AcDbEntity
  8
SARR_2.2x7
 62
40
370
25
100
AcDbLine
 10
6938.66962567413
 20
4207.89788032578
 30
0.0
 11
6765.624484914951
 21
4207.89788032579
 31
0.0
  0
LINE
  5
71
330
17
100
AcDbEntity
  8
SARR_2.2x7
 62
40
370
25
100
AcDbLine
 10
6938.66962567413
 20
4155.897880325725
 30
0.0
 11
6938.669625674133
 21
4214.897880325686
 31
0.0
  0
LINE
  5
72
330
17
100
AcDbEntity
  8
SARR_2.2x7
 62
40
370
25
100
AcDbLine
 10
6938.669625674129
 20
4162.897880325614
 30
0.0
 11
6777.624484914953
 21
4162.897880325602
 31
0.0
  0
LINE
  5
73
330
17
100
AcDbEntity
  8
SARR_2.2x7
 62
40
370
25
100
AcDbLine
 10
6938.669625674155
 20
4181.897880325833
 30
0.0
 11
6777.624484914952
 21
4181.897880325847
 31
0.0
  0
LINE
  5
74
330
17
100
AcDbEntity
  8
SARR_2.2x7
 62
40
370
25
100
AcDbLine
 10
6938.66962567413
 20
4188.897880325532
 30
0.0
 11
6777.624484914955
 21
4188.897880325552
 31
0.0
  0
LINE
  5
75
330
17
100
AcDbEntity
  8
SARR_2.2x7
 62
40
370
25
100
AcDbLine
 10
6997.62448491495
 20
4155.8978803257
 30
0.0
 11
6997.62448491495
 21
4162.897880325609
 31
0.0
  0
LINE
  5
76
330
17
100
AcDbEntity
  8
SARR_2.2x7
 62
40
370
25
100
AcDbLine
 10
6997.62448491495
 20
4174.897880325846
 30
0.0
 11
6997.62448491495
 21
4181.897880325545
 31
0.0
  0
LINE
  5
77
330
17
100
AcDbEntity
  8
SARR_2.2x7
 62
40
370
25
100
AcDbLine
 10
6398.110576418688
 20
4368.994967601758
 30
0.0
 11
6398.110576418688
 21
4375.99496760169
 31
0.0
  0
LINE
  5
78
330
17
100
AcDbEntity
  8
SARR_2.2x7
 62
40
370
25
100
AcDbLine
 10
6398.110576418687
 20
4394.994967601911
 30
0.0
 11
6398.110576418687
 21
4401.994967601607
 31
0.0
  0
LINE
  5
79
330
17
100
AcDbEntity
  8
SARR_2.2x7
 62
40
370
25
100
AcDbLine
 10
6711.110576418689
 20
4368.994967601758
 30
0.0
 11
6711.110576418687
 21
4375.994967601666
 31
0.0
  0
LINE
  5
7A
330
17
100
AcDbEntity
  8
SARR_2.2x7
 62
40
370
25
100
AcDbLine
 10
6711.110576418687
 20
4394.99496760185
 30
0.0
 11
6711.110576418687
 21
4401.994967601703
 31
0.0
  0
LINE
  5
7B
330
17
100
AcDbEntity
  8
SARR_2.2x7
 62
40
370
25
100
AcDbLine
 10
6972.110576418689
 20
4368.994967601761
 30
0.0
 11
6972.110576418687
 21
4375.994967601667
 31
0.0
  0
LINE
  5
7C
330
17
100
AcDbEntity
  8
SARR_2.2x7
 62
40
370
25
100
AcDbLine
 10
6972.110576418685
 20
4394.994967601834
 30
0.0
 11
6972.110576418687
 21
4401.994967601718
 31
0.0
  0
LINE
  5
7D
330
17
100
AcDbEntity
  8
SARR_2.2x7
 62
40
370
25
100
AcDbLine
 10
6972.110576418685
 20
4427.994967601763
 30
0.0
 11
6972.110576418685
 21
4428.333016910206
 31
0.0
  0
LINE
  5
7E
330
17
100
AcDbEntity
  8
SARR_2.2x7
 62
40
370
25
100
AcDbLine
 10
6687.624484914952
 20
4188.897880325558
 30
0.0
 11
6687.624484914952
 21
4155.89788032571
 31
0.0
  0
LINE
  5
7F
330
17
100
AcDbEntity
  8
SARR_2.2x7
 62
40
370
25
100
AcDbLine
 10
6777.624484914953
 20
4188.89788032555
 30
0.0
 11
6777.624484914953
 21
4181.897880325847
 31
0.0
  0
LINE
  5
80
330
17
100
AcDbEntity
  8
SARR_2.2x7
 62
40
370
25
100
AcDbLine
 10
6777.624484914952
 20
4162.897880325602
 30
0.0
 11
6777.624484914952
 21
4155.897880325716
 31
0.0
  0
LINE
  5
81
330
17
100
AcDbEntity
  8
SARR_2.2x7
 62
40
370
25
100
AcDbLine
 10
6997.62448491495
 20
4174.897880325846
 30
0.0
 11
6979.57934415576
 21
4174.897880325846
 31
0.0
  0
LINE
  5
82
330
17
100
AcDbEntity
  8
SARR_2.2x7
 62
40
370
25
100
AcDbLine
 10
6997.62448491495
 20
4181.897880325546
 30
0.0
 11
6979.57934415576
 21
4181.897880325549
 31
0.0
  0
LINE
  5
83
330
17
100
AcDbEntity
  8
COTA
 62
4
370
25
100
AcDbLine
 10
7058.110576418686
 20
4365.994967601762
 30
0.0
 11
7058.110576418686
 21
4339.455041623607
 31
0.0
  0
LINE
  5
84
330
17
100
AcDbEntity
  8
COTA
 62
4
370
25
100
AcDbLine
 10
6861.610576418685
 20
4365.994967601792
 30
0.0
 11
6861.610576418685
 21
4339.455041623607
 31
0.0
  0
LINE
  5
85
330
17
100
AcDbEntity
  8
COTA
 62
4
370
25
100
AcDbLine
 10
7058.110576418686
 20
4342.455041623607
 30
0.0
 11
6861.610576418685
 21
4342.455041623607
 31
0.0
  0
LINE
  5
86
330
17
100
AcDbEntity
  8
COTA
 62
0
370
25
100
AcDbLine
 10
7056.610576418686
 20
4340.955041623607
 30
0.0
 11
7059.610576418686
 21
4343.955041623607
 31
0.0
  0
LINE
  5
87
330
17
100
AcDbEntity
  8
COTA
 62
0
370
25
100
AcDbLine
 10
6863.110576418685
 20
4343.955041623607
 30
0.0
 11
6860.110576418685
 21
4340.955041623607
 31
0.0
  0
LINE
  5
88
330
17
100
AcDbEntity
  8
COTA
 62
4
370
25
100
AcDbLine
 10
7058.110576418686
 20
4365.994967601762
 30
0.0
 11
7058.110576418686
 21
4305.916530934852
 31
0.0
  0
LINE
  5
89
330
17
100
AcDbEntity
  8
COTA
 62
4
370
25
100
AcDbLine
 10
6373.610576418685
 20
4365.994967601762
 30
0.0
 11
6373.610576418685
 21
4305.916530934852
 31
0.0
  0
LINE
  5
8A
330
17
100
AcDbEntity
  8
COTA
 62
4
370
25
100
AcDbLine
 10
7058.110576418686
 20
4308.916530934851
 30
0.0
 11
6373.610576418685
 21
4308.916530934851
 31
0.0
  0
LINE
  5
8B
330
17
100
AcDbEntity
  8
COTA
 62
0
370
25
100
AcDbLine
 10
7056.610576418686
 20
4307.416530934851
 30
0.0
 11
7059.610576418686
 21
4310.416530934851
 31
0.0
  0
LINE
  5
8C
330
17
100
AcDbEntity
  8
COTA
 62
0
370
25
100
AcDbLine
 10
6375.110576418685
 20
4310.416530934851
 30
0.0
 11
6372.110576418685
 21
4307.416530934851
 31
0.0
  0
LINE
  5
8D
330
17
100
AcDbEntity
  8
COTA
 62
4
370
25
100
AcDbLine
 10
6861.610576418685
 20
4365.994967601762
 30
0.0
 11
6861.610576418685
 21
4339.455041623607
 31
0.0
  0
LINE
  5
8E
330
17
100
AcDbEntity
  8
COTA
 62
4
370
25
100
AcDbLine
 10
6617.610576418686
 20
4365.994967601792
 30
0.0
 11
6617.610576418686
 21
4339.455041623607
 31
0.0
  0
LINE
  5
8F
330
17
100
AcDbEntity
  8
COTA
 62
4
370
25
100
AcDbLine
 10
6861.610576418685
 20
4342.455041623607
 30
0.0
 11
6617.610576418686
 21
4342.455041623607
 31
0.0
  0
LINE
  5
90
330
17
100
AcDbEntity
  8
COTA
 62
0
370
25
100
AcDbLine
 10
6860.110576418685
 20
4340.955041623607
 30
0.0
 11
6863.110576418685
 21
4343.955041623607
 31
0.0
  0
LINE
  5
91
330
17
100
AcDbEntity
  8
COTA
 62
0
370
25
100
AcDbLine
 10
6619.110576418686
 20
4343.955041623607
 30
0.0
 11
6616.110576418686
 21
4340.955041623607
 31
0.0
  0
LINE
  5
92
330
17
100
AcDbEntity
  8
COTA
 62
4
370
25
100
AcDbLine
 10
6617.610576418686
 20
4365.994967601792
 30
0.0
 11
6617.610576418686
 21
4339.455041623614
 31
0.0
  0
LINE
  5
93
330
17
100
AcDbEntity
  8
COTA
 62
4
370
25
100
AcDbLine
 10
6373.610576418685
 20
4365.994967601762
 30
0.0
 11
6373.610576418685
 21
4339.455041623614
 31
0.0
  0
LINE
  5
94
330
17
100
AcDbEntity
  8
COTA
 62
4
370
25
100
AcDbLine
 10
6617.610576418686
 20
4342.455041623614
 30
0.0
 11
6373.610576418685
 21
4342.455041623614
 31
0.0
  0
LINE
  5
95
330
17
100
AcDbEntity
  8
COTA
 62
0
370
25
100
AcDbLine
 10
6616.110576418686
 20
4340.955041623614
 30
0.0
 11
6619.110576418686
 21
4343.955041623614
 31
0.0
  0
LINE
  5
96
330
17
100
AcDbEntity
  8
COTA
 62
0
370
25
100
AcDbLine
 10
6375.110576418685
 20
4343.955041623614
 30
0.0
 11
6372.110576418685
 21
4340.955041623614
 31
0.0
  0
LINE
  5
97
330
17
100
AcDbEntity
  8
COTA
 62
4
370
25
100
AcDbLine
 10
6686.019267506693
 20
4540.365869424252
 30
0.0
 11
6729.291000265044
 21
4540.365869424252
 31
0.0
  0
LINE
  5
98
330
17
100
AcDbEntity
  8
COTA
 62
4
370
25
100
AcDbLine
 10
6670.419267506698
 20
4658.365869424251
 30
0.0
 11
6729.291000265044
 21
4658.365869424251
 31
0.0
  0
LINE
  5
99
330
17
100
AcDbEntity
  8
COTA
 62
4
370
25
100
AcDbLine
 10
6726.291000265044
 20
4540.365869424252
 30
0.0
 11
6726.291000265044
 21
4658.365869424251
 31
0.0
  0
LINE
  5
9A
330
17
100
AcDbEntity
  8
Cota Seção (2x)
 62
180
370
25
100
AcDbLine
 10
6644.919267508342
 20
4608.699202757549
 30
0.0
 11
6644.919267508342
 21
4628.032536090882
 31
0.0
  0
LINE
  5
9B
330
17
100
AcDbEntity
  8
Cota Seção (2x)
 62
180
370
25
100
AcDbLine
 10
6644.919267508342
 20
4628.032536090882
 30
0.0
 11
6629.919267508341
 21
4628.032536090882
 31
0.0
  0
LINE
  5
9C
330
17
100
AcDbEntity
  8
Cota Seção (2x)
 62
180
370
25
100
AcDbLine
 10
6629.919267508341
 20
4628.032536090882
 30
0.0
 11
6629.919267508341
 21
4608.699202757549
 31
0.0
  0
LINE
  5
9D
330
17
100
AcDbEntity
  8
Cota Seção (2x)
 62
180
370
25
100
AcDbLine
 10
6629.919267508341
 20
4608.699202757549
 30
0.0
 11
6644.919267508342
 21
4608.699202757549
 31
0.0
  0
LINE
  5
9E
330
17
100
AcDbEntity
  8
COTA
 62
4
370
25
100
AcDbLine
 10
6600.019267506692
 20
4658.365869424251
 30
0.0
 11
6519.761972903331
 21
4658.365869424251
 31
0.0
  0
LINE
  5
9F
330
17
100
AcDbEntity
  8
COTA
 62
4
370
25
100
AcDbLine
 10
6574.819267506708
 20
4540.365869424252
 30
0.0
 11
6519.761972903331
 21
4540.365869424252
 31
0.0
  0
LINE
  5
A0
330
17
100
AcDbEntity
  8
COTA
 62
4
370
25
100
AcDbLine
 10
6522.761972903331
 20
4658.365869424251
 30
0.0
 11
6522.761972903331
 21
4540.365869424252
 31
0.0
  0
LINE
  5
A1
330
17
100
AcDbEntity
  8
COTA
 62
4
370
25
100
AcDbLine
 10
6611.419267506683
 20
4537.365869424242
 30
0.0
 11
6611.419267506683
 21
4492.639055622059
 31
0.0
  0
LINE
  5
A2
330
17
100
AcDbEntity
  8
COTA
 62
4
370
25
100
AcDbLine
 10
6649.419267506683
 20
4537.365869424242
 30
0.0
 11
6649.419267506683
 21
4492.639055622059
 31
0.0
  0
LINE
  5
A3
330
17
100
AcDbEntity
  8
COTA
 62
4
370
25
100
AcDbLine
 10
6611.419267506683
 20
4495.639055622059
 30
0.0
 11
6649.419267506683
 21
4495.639055622059
 31
0.0
  0
LINE
  5
A4
330
17
100
AcDbEntity
  8
Cota Seção (2x)
 62
180
370
25
100
AcDbLine
 10
6621.419267506652
 20
4560.365869424249
 30
0.0
 11
6639.419267506653
 21
4560.365869424249
 31
0.0
  0
LINE
  5
A5
330
17
100
AcDbEntity
  8
Cota Seção (2x)
 62
180
370
25
100
AcDbLine
 10
6639.419267506653
 20
4560.365869424249
 30
0.0
 11
6639.419267506653
 21
4575.365869424249
 31
0.0
  0
LINE
  5
A6
330
17
100
AcDbEntity
  8
Cota Seção (2x)
 62
180
370
25
100
AcDbLine
 10
6639.419267506653
 20
4575.365869424249
 30
0.0
 11
6621.419267506652
 21
4575.365869424249
 31
0.0
  0
LINE
  5
A7
330
17
100
AcDbEntity
  8
Cota Seção (2x)
 62
180
370
25
100
AcDbLine
 10
6621.419267506652
 20
4575.365869424249
 30
0.0
 11
6621.419267506652
 21
4560.365869424249
 31
0.0
  0
LINE
  5
A8
330
17
100
AcDbEntity
  8
COTA
 62
4
370
25
100
AcDbLine
 10
6932.910006124541
 20
4540.365869424252
 30
0.0
 11
7007.286729213865
 21
4540.365869424252
 31
0.0
  0
LINE
  5
A9
330
17
100
AcDbEntity
  8
COTA
 62
4
370
25
100
AcDbLine
 10
6954.910006124541
 20
4658.365869424243
 30
0.0
 11
7007.286729213865
 21
4658.365869424243
 31
0.0
  0
LINE
  5
AA
330
17
100
AcDbEntity
  8
COTA
 62
4
370
25
100
AcDbLine
 10
7004.286729213865
 20
4540.365869424252
 30
0.0
 11
7004.286729213865
 21
4658.365869424243
 31
0.0
  0
LINE
  5
AB
330
17
100
AcDbEntity
  8
COTA
 62
4
370
25
100
AcDbLine
 10
6821.710006124559
 20
4540.365869424252
 30
0.0
 11
6778.438273366361
 21
4540.365869424252
 31
0.0
  0
LINE
  5
AC
330
17
100
AcDbEntity
  8
COTA
 62
4
370
25
100
AcDbLine
 10
6837.310006124553
 20
4658.365869424251
 30
0.0
 11
6778.438273366361
 21
4658.365869424251
 31
0.0
  0
LINE
  5
AD
330
17
100
AcDbEntity
  8
COTA
 62
4
370
25
100
AcDbLine
 10
6781.438273366361
 20
4540.365869424252
 30
0.0
 11
6781.438273366361
 21
4658.365869424251
 31
0.0
  0
LINE
  5
AE
330
17
100
AcDbEntity
  8
Cota Seção (2x)
 62
180
370
25
100
AcDbLine
 10
6875.830044805231
 20
4608.699202757549
 30
0.0
 11
6875.830044805231
 21
4628.032536090882
 31
0.0
  0
LINE
  5
AF
330
17
100
AcDbEntity
  8
Cota Seção (2x)
 62
180
370
25
100
AcDbLine
 10
6875.830044805231
 20
4628.032536090882
 30
0.0
 11
6860.830044805232
 21
4628.032536090882
 31
0.0
  0
LINE
  5
B0
330
17
100
AcDbEntity
  8
Cota Seção (2x)
 62
180
370
25
100
AcDbLine
 10
6860.830044805232
 20
4628.032536090882
 30
0.0
 11
6860.830044805232
 21
4608.699202757549
 31
0.0
  0
LINE
  5
B1
330
17
100
AcDbEntity
  8
Cota Seção (2x)
 62
180
370
25
100
AcDbLine
 10
6860.830044805232
 20
4608.699202757549
 30
0.0
 11
6875.830044805231
 21
4608.699202757549
 31
0.0
  0
LINE
  5
B2
330
17
100
AcDbEntity
  8
COTA
 62
4
370
25
100
AcDbLine
 10
6954.910006124541
 20
4658.365869424243
 30
0.0
 11
6987.967300728399
 21
4658.365869424243
 31
0.0
  0
LINE
  5
B3
330
17
100
AcDbEntity
  8
COTA
 62
4
370
25
100
AcDbLine
 10
6954.910006124541
 20
4634.365869424222
 30
0.0
 11
6987.967300728399
 21
4634.365869424222
 31
0.0
  0
LINE
  5
B4
330
17
100
AcDbEntity
  8
COTA
 62
4
370
25
100
AcDbLine
 10
6984.967300728399
 20
4658.365869424243
 30
0.0
 11
6984.967300728399
 21
4634.365869424222
 31
0.0
  0
LINE
  5
B5
330
17
100
AcDbEntity
  8
COTA
 62
4
370
25
100
AcDbLine
 10
6954.910006124541
 20
4630.365869424222
 30
0.0
 11
6987.967300728074
 21
4630.365869424222
 31
0.0
  0
LINE
  5
B6
330
17
100
AcDbEntity
  8
COTA
 62
4
370
25
100
AcDbLine
 10
6932.910006124541
 20
4540.365869424252
 30
0.0
 11
6987.967300728074
 21
4540.365869424252
 31
0.0
  0
LINE
  5
B7
330
17
100
AcDbEntity
  8
COTA
 62
4
370
25
100
AcDbLine
 10
6984.967300728074
 20
4630.365869424222
 30
0.0
 11
6984.967300728074
 21
4540.365869424252
 31
0.0
  0
LINE
  5
B8
330
17
100
AcDbEntity
  8
COTA
 62
4
370
25
100
AcDbLine
 10
6896.310006124561
 20
4537.365869424242
 30
0.0
 11
6896.310006124561
 21
4492.639055622059
 31
0.0
  0
LINE
  5
B9
330
17
100
AcDbEntity
  8
COTA
 62
4
370
25
100
AcDbLine
 10
6858.31000612456
 20
4537.365869424242
 30
0.0
 11
6858.31000612456
 21
4492.639055622059
 31
0.0
  0
LINE
  5
BA
330
17
100
AcDbEntity
  8
COTA
 62
4
370
25
100
AcDbLine
 10
6896.310006124561
 20
4495.639055622059
 30
0.0
 11
6858.31000612456
 21
4495.639055622059
 31
0.0
  0
LINE
  5
BB
330
17
100
AcDbEntity
  8
Cota Seção (2x)
 62
180
370
25
100
AcDbLine
 10
6868.310006124589
 20
4560.365869424249
 30
0.0
 11
6886.31000612459
 21
4560.365869424249
 31
0.0
  0
LINE
  5
BC
330
17
100
AcDbEntity
  8
Cota Seção (2x)
 62
180
370
25
100
AcDbLine
 10
6886.31000612459
 20
4560.365869424249
 30
0.0
 11
6886.31000612459
 21
4575.365869424249
 31
0.0
  0
LINE
  5
BD
330
17
100
AcDbEntity
  8
Cota Seção (2x)
 62
180
370
25
100
AcDbLine
 10
6886.31000612459
 20
4575.365869424249
 30
0.0
 11
6868.310006124589
 21
4575.365869424249
 31
0.0
  0
LINE
  5
BE
330
17
100
AcDbEntity
  8
Cota Seção (2x)
 62
180
370
25
100
AcDbLine
 10
6868.310006124589
 20
4575.365869424249
 30
0.0
 11
6868.310006124589
 21
4560.365869424249
 31
0.0
  0
LINE
  5
BF
330
17
100
AcDbEntity
  8
COTA
 62
4
370
25
100
AcDbLine
 10
7061.110576418688
 20
4368.994967601763
 30
0.0
 11
7088.467942999338
 21
4368.994967601763
 31
0.0
  0
LINE
  5
C0
330
17
100
AcDbEntity
  8
COTA
 62
4
370
25
100
AcDbLine
 10
7061.110576418693
 20
4427.994967601764
 30
0.0
 11
7088.467942999338
 21
4427.994967601764
 31
0.0
  0
LINE
  5
C1
330
17
100
AcDbEntity
  8
COTA
 62
4
370
25
100
AcDbLine
 10
7085.467942999338
 20
4368.994967601763
 30
0.0
 11
7085.467942999338
 21
4427.994967601764
 31
0.0
  0
LINE
  5
C2
330
17
100
AcDbEntity
  8
COTA
 62
0
370
25
100
AcDbLine
 10
7083.967942999338
 20
4370.494967601763
 30
0.0
 11
7086.967942999338
 21
4367.494967601763
 31
0.0
  0
LINE
  5
C3
330
17
100
AcDbEntity
  8
COTA
 62
0
370
25
100
AcDbLine
 10
7086.967942999338
 20
4426.494967601764
 30
0.0
 11
7083.967942999338
 21
4429.494967601764
 31
0.0
  0
LINE
  5
C4
330
17
100
AcDbEntity
  8
COTA
 62
4
370
25
100
AcDbLine
 10
6375.624484914954
 20
4152.89788032573
 30
0.0
 11
6375.624484914954
 21
4126.35795434753
 31
0.0
  0
LINE
  5
C5
330
17
100
AcDbEntity
  8
COTA
 62
4
370
25
100
AcDbLine
 10
6521.624484914953
 20
4152.897880325673
 30
0.0
 11
6521.624484914953
 21
4126.35795434753
 31
0.0
  0
LINE
  5
C6
330
17
100
AcDbEntity
  8
COTA
 62
4
370
25
100
AcDbLine
 10
6375.624484914954
 20
4129.357954347529
 30
0.0
 11
6521.624484914953
 21
4129.357954347529
 31
0.0
  0
LINE
  5
C7
330
17
100
AcDbEntity
  8
COTA
 62
0
370
25
100
AcDbLine
 10
6377.124484914954
 20
4130.857954347529
 30
0.0
 11
6374.124484914954
 21
4127.857954347529
 31
0.0
  0
LINE
  5
C8
330
17
100
AcDbEntity
  8
COTA
 62
0
370
25
100
AcDbLine
 10
6520.124484914953
 20
4127.857954347529
 30
0.0
 11
6523.124484914953
 21
4130.857954347529
 31
0.0
  0
LINE
  5
C9
330
17
100
AcDbEntity
  8
COTA
 62
4
370
25
100
AcDbLine
 10
6945.624484914954
 20
4152.897880325673
 30
0.0
 11
6945.624484914954
 21
4126.357954347517
 31
0.0
  0
LINE
  5
CA
330
17
100
AcDbEntity
  8
COTA
 62
4
370
25
100
AcDbLine
 10
7093.624484914953
 20
4152.897880325663
 30
0.0
 11
7093.624484914953
 21
4126.357954347517
 31
0.0
  0
LINE
  5
CB
330
17
100
AcDbEntity
  8
COTA
 62
4
370
25
100
AcDbLine
 10
6945.624484914954
 20
4129.357954347517
 30
0.0
 11
7093.624484914953
 21
4129.357954347517
 31
0.0
  0
LINE
  5
CC
330
17
100
AcDbEntity
  8
COTA
 62
0
370
25
100
AcDbLine
 10
6947.124484914954
 20
4130.857954347517
 30
0.0
 11
6944.124484914954
 21
4127.857954347517
 31
0.0
  0
LINE
  5
CD
330
17
100
AcDbEntity
  8
COTA
 62
0
370
25
100
AcDbLine
 10
7092.124484914953
 20
4127.857954347517
 30
0.0
 11
7095.124484914953
 21
4130.857954347517
 31
0.0
  0
LINE
  5
CE
330
17
100
AcDbEntity
  8
COTA
 62
4
370
25
100
AcDbLine
 10
7096.624484914958
 20
4155.897880325699
 30
0.0
 11
7116.622691859172
 21
4155.897880325699
 31
0.0
  0
LINE
  5
CF
330
17
100
AcDbEntity
  8
COTA
 62
4
370
25
100
AcDbLine
 10
7096.624484914953
 20
4200.897880325699
 30
0.0
 11
7116.622691859172
 21
4200.897880325699
 31
0.0
  0
LINE
  5
D0
330
17
100
AcDbEntity
  8
COTA
 62
4
370
25
100
AcDbLine
 10
7113.622691859172
 20
4155.897880325699
 30
0.0
 11
7113.622691859172
 21
4200.897880325699
 31
0.0
  0
LINE
  5
D1
330
17
100
AcDbEntity
  8
COTA
 62
0
370
25
100
AcDbLine
 10
7112.122691859172
 20
4157.397880325699
 30
0.0
 11
7115.122691859172
 21
4154.397880325699
 31
0.0
  0
LINE
  5
D2
330
17
100
AcDbEntity
  8
COTA
 62
0
370
25
100
AcDbLine
 10
7115.122691859172
 20
4199.397880325699
 30
0.0
 11
7112.122691859172
 21
4202.397880325699
 31
0.0
  0
LINE
  5
D3
330
17
100
AcDbEntity
  8
COTA
 62
4
370
25
100
AcDbLine
 10
7096.624484914953
 20
4200.897880325699
 30
0.0
 11
7116.622691859172
 21
4200.897880325699
 31
0.0
  0
LINE
  5
D4
330
17
100
AcDbEntity
  8
COTA
 62
4
370
25
100
AcDbLine
 10
7096.624484914952
 20
4214.897880325674
 30
0.0
 11
7116.622691859172
 21
4214.897880325674
 31
0.0
  0
LINE
  5
D5
330
17
100
AcDbEntity
  8
COTA
 62
4
370
25
100
AcDbLine
 10
7113.622691859172
 20
4200.897880325699
 30
0.0
 11
7113.622691859172
 21
4214.897880325674
 31
0.0
  0
LINE
  5
D6
330
17
100
AcDbEntity
  8
COTA
 62
4
370
25
100
AcDbLine
 10
7113.622691859172
 20
4214.897880325674
 30
0.0
 11
7113.622691859172
 21
4234.014839390002
 31
0.0
  0
LINE
  5
D7
330
17
100
AcDbEntity
  8
COTA
 62
0
370
25
100
AcDbLine
 10
7112.122691859172
 20
4202.397880325699
 30
0.0
 11
7115.122691859172
 21
4199.397880325699
 31
0.0
  0
LINE
  5
D8
330
17
100
AcDbEntity
  8
COTA
 62
0
370
25
100
AcDbLine
 10
7115.122691859172
 20
4213.397880325674
 30
0.0
 11
7112.122691859172
 21
4216.397880325674
 31
0.0
  0
LINE
  5
D9
330
17
100
AcDbEntity
  8
COTA
 62
4
370
25
100
AcDbLine
 10
7096.624484914952
 20
4214.897880325674
 30
0.0
 11
7136.761900477876
 21
4214.897880325674
 31
0.0
  0
LINE
  5
DA
330
17
100
AcDbEntity
  8
COTA
 62
4
370
25
100
AcDbLine
 10
7096.624484914958
 20
4155.897880325699
 30
0.0
 11
7136.761900477876
 21
4155.897880325699
 31
0.0
  0
LINE
  5
DB
330
17
100
AcDbEntity
  8
COTA
 62
4
370
25
100
AcDbLine
 10
7133.761900477876
 20
4214.897880325674
 30
0.0
 11
7133.761900477876
 21
4155.897880325699
 31
0.0
  0
LINE
  5
DC
330
17
100
AcDbEntity
  8
COTA
 62
0
370
25
100
AcDbLine
 10
7135.261900477876
 20
4213.397880325674
 30
0.0
 11
7132.261900477876
 21
4216.397880325674
 31
0.0
  0
LINE
  5
DD
330
17
100
AcDbEntity
  8
COTA
 62
0
370
25
100
AcDbLine
 10
7132.261900477876
 20
4157.397880325699
 30
0.0
 11
7135.261900477876
 21
4154.397880325699
 31
0.0
  0
LINE
  5
DE
330
17
100
AcDbEntity
  8
COTA
 62
4
370
25
100
AcDbLine
 10
7051.110576418685
 20
4365.994967601762
 30
0.0
 11
7051.110576418685
 21
4352.091522845866
 31
0.0
  0
LINE
  5
DF
330
17
100
AcDbEntity
  8
COTA
 62
4
370
25
100
AcDbLine
 10
7058.110576418686
 20
4365.994967601762
 30
0.0
 11
7058.110576418686
 21
4352.091522845866
 31
0.0
  0
LINE
  5
E0
330
17
100
AcDbEntity
  8
COTA
 62
4
370
25
100
AcDbLine
 10
7051.110576418685
 20
4355.091522845866
 30
0.0
 11
7058.110576418686
 21
4355.091522845866
 31
0.0
  0
LINE
  5
E1
330
17
100
AcDbEntity
  8
COTA
 62
4
370
25
100
AcDbLine
 10
7058.110576418686
 20
4355.091522845866
 30
0.0
 11
7072.841570570732
 21
4355.091522845866
 31
0.0
  0
LINE
  5
E2
330
17
100
AcDbEntity
  8
COTA
 62
0
370
25
100
AcDbLine
 10
7052.610576418685
 20
4356.591522845866
 30
0.0
 11
7049.610576418685
 21
4353.591522845866
 31
0.0
  0
LINE
  5
E3
330
17
100
AcDbEntity
  8
COTA
 62
0
370
25
100
AcDbLine
 10
7056.610576418686
 20
4353.591522845866
 30
0.0
 11
7059.610576418686
 21
4356.591522845866
 31
0.0
  0
LINE
  5
E4
330
17
100
AcDbEntity
  8
COTA
 62
4
370
25
100
AcDbLine
 10
6521.624484914953
 20
4152.897880325699
 30
0.0
 11
6521.624484914953
 21
4126.357954347544
 31
0.0
  0
LINE
  5
E5
330
17
100
AcDbEntity
  8
COTA
 62
4
370
25
100
AcDbLine
 10
6765.624484914953
 20
4152.897880325729
 30
0.0
 11
6765.624484914953
 21
4126.357954347544
 31
0.0
  0
LINE
  5
E6
330
17
100
AcDbEntity
  8
COTA
 62
4
370
25
100
AcDbLine
 10
6521.624484914953
 20
4129.357954347544
 30
0.0
 11
6765.624484914953
 21
4129.357954347544
 31
0.0
  0
LINE
  5
E7
330
17
100
AcDbEntity
  8
COTA
 62
0
370
25
100
AcDbLine
 10
6523.124484914953
 20
4130.857954347544
 30
0.0
 11
6520.124484914953
 21
4127.857954347544
 31
0.0
  0
LINE
  5
E8
330
17
100
AcDbEntity
  8
COTA
 62
0
370
25
100
AcDbLine
 10
6764.124484914953
 20
4127.857954347544
 30
0.0
 11
6767.124484914953
 21
4130.857954347544
 31
0.0
  0
LINE
  5
E9
330
17
100
AcDbEntity
  8
COTA
 62
4
370
25
100
AcDbLine
 10
6765.624484914953
 20
4152.897880325729
 30
0.0
 11
6765.624484914953
 21
4126.357954347555
 31
0.0
  0
LINE
  5
EA
330
17
100
AcDbEntity
  8
COTA
 62
4
370
25
100
AcDbLine
 10
6945.624484914954
 20
4152.897880325725
 30
0.0
 11
6945.624484914954
 21
4126.357954347555
 31
0.0
  0
LINE
  5
EB
330
17
100
AcDbEntity
  8
COTA
 62
4
370
25
100
AcDbLine
 10
6765.624484914953
 20
4129.357954347555
 30
0.0
 11
6945.624484914954
 21
4129.357954347555
 31
0.0
  0
LINE
  5
EC
330
17
100
AcDbEntity
  8
COTA
 62
0
370
25
100
AcDbLine
 10
6767.124484914953
 20
4130.857954347555
 30
0.0
 11
6764.124484914953
 21
4127.857954347555
 31
0.0
  0
LINE
  5
ED
330
17
100
AcDbEntity
  8
COTA
 62
0
370
25
100
AcDbLine
 10
6944.124484914954
 20
4127.857954347555
 30
0.0
 11
6947.124484914954
 21
4130.857954347555
 31
0.0
  0
LINE
  5
EE
330
17
100
AcDbEntity
  8
COTA
 62
4
370
25
100
AcDbLine
 10
6375.624484914954
 20
4152.89788032573
 30
0.0
 11
6375.624484914954
 21
4092.819443658822
 31
0.0
  0
LINE
  5
EF
330
17
100
AcDbEntity
  8
COTA
 62
4
370
25
100
AcDbLine
 10
7093.624484914953
 20
4152.897880325736
 30
0.0
 11
7093.624484914953
 21
4092.819443658822
 31
0.0
  0
LINE
  5
F0
330
17
100
AcDbEntity
  8
COTA
 62
4
370
25
100
AcDbLine
 10
6375.624484914954
 20
4095.819443658822
 30
0.0
 11
7093.624484914953
 21
4095.819443658822
 31
0.0
  0
LINE
  5
F1
330
17
100
AcDbEntity
  8
COTA
 62
0
370
25
100
AcDbLine
 10
6377.124484914954
 20
4097.319443658822
 30
0.0
 11
6374.124484914954
 21
4094.319443658822
 31
0.0
  0
LINE
  5
F2
330
17
100
AcDbEntity
  8
COTA
 62
0
370
25
100
AcDbLine
 10
7092.124484914953
 20
4094.319443658822
 30
0.0
 11
7095.124484914953
 21
4097.319443658822
 31
0.0
  0
LINE
  5
F3
330
17
100
AcDbEntity
  8
COTA
 62
4
370
25
100
AcDbLine
 10
6372.624484914958
 20
4155.897880325717
 30
0.0
 11
6359.582101940151
 21
4155.897880325717
 31
0.0
  0
LINE
  5
F4
330
17
100
AcDbEntity
  8
COTA
 62
4
370
25
100
AcDbLine
 10
6372.624484914961
 20
4214.897880325717
 30
0.0
 11
6359.582101940151
 21
4214.897880325717
 31
0.0
  0
LINE
  5
F5
330
17
100
AcDbEntity
  8
COTA
 62
4
370
25
100
AcDbLine
 10
6362.58210194015
 20
4155.897880325717
 30
0.0
 11
6362.58210194015
 21
4214.897880325717
 31
0.0
  0
LINE
  5
F6
330
17
100
AcDbEntity
  8
COTA
 62
0
370
25
100
AcDbLine
 10
6361.08210194015
 20
4157.397880325717
 30
0.0
 11
6364.08210194015
 21
4154.397880325717
 31
0.0
  0
LINE
  5
F7
330
17
100
AcDbEntity
  8
COTA
 62
0
370
25
100
AcDbLine
 10
6364.08210194015
 20
4213.397880325717
 30
0.0
 11
6361.08210194015
 21
4216.397880325717
 31
0.0
  0
LINE
  5
F8
330
17
100
AcDbEntity
  8
COTA
 62
4
370
25
100
AcDbLine
 10
6496.624484914963
 20
4214.897880325703
 30
0.0
 11
6481.823080582079
 21
4214.897880325703
 31
0.0
  0
LINE
  5
F9
330
17
100
AcDbEntity
  8
COTA
 62
4
370
25
100
AcDbLine
 10
6496.624484914963
 20
4160.897880325703
 30
0.0
 11
6481.823080582079
 21
4160.897880325703
 31
0.0
  0
LINE
  5
FA
330
17
100
AcDbEntity
  8
COTA
 62
4
370
25
100
AcDbLine
 10
6484.823080582079
 20
4214.897880325703
 30
0.0
 11
6484.823080582079
 21
4160.897880325703
 31
0.0
  0
LINE
  5
FB
330
17
100
AcDbEntity
  8
COTA
 62
0
370
25
100
AcDbLine
 10
6486.323080582079
 20
4213.397880325703
 30
0.0
 11
6483.323080582079
 21
4216.397880325703
 31
0.0
  0
LINE
  5
FC
330
17
100
AcDbEntity
  8
COTA
 62
0
370
25
100
AcDbLine
 10
6483.323080582079
 20
4162.397880325703
 30
0.0
 11
6486.323080582079
 21
4159.397880325703
 31
0.0
  0
LINE
  5
FD
330
17
100
AcDbEntity
  8
COTA
 62
4
370
25
100
AcDbLine
 10
6499.624484914959
 20
4217.897880325701
 30
0.0
 11
6499.624484914959
 21
4227.930689291219
 31
0.0
  0
LINE
  5
FE
330
17
100
AcDbEntity
  8
COTA
 62
4
370
25
100
AcDbLine
 10
6521.624484914948
 20
4217.8978803257
 30
0.0
 11
6521.624484914948
 21
4227.930689291219
 31
0.0
  0
LINE
  5
FF
330
17
100
AcDbEntity
  8
COTA
 62
4
370
25
100
AcDbLine
 10
6499.624484914959
 20
4224.930689291219
 30
0.0
 11
6521.624484914948
 21
4224.930689291219
 31
0.0
  0
LINE
  5
100
330
17
100
AcDbEntity
  8
COTA
 62
0
370
25
100
AcDbLine
 10
6501.124484914959
 20
4226.430689291219
 30
0.0
 11
6498.124484914959
 21
4223.430689291219
 31
0.0
  0
LINE
  5
101
330
17
100
AcDbEntity
  8
COTA
 62
0
370
25
100
AcDbLine
 10
6520.124484914948
 20
4223.430689291219
 30
0.0
 11
6523.124484914948
 21
4226.430689291219
 31
0.0
  0
LINE
  5
102
330
17
100
AcDbEntity
  8
COTA
 62
4
370
25
100
AcDbLine
 10
6969.624484914948
 20
4200.897880325679
 30
0.0
 11
6961.449146863269
 21
4200.897880325679
 31
0.0
  0
LINE
  5
103
330
17
100
AcDbEntity
  8
COTA
 62
4
370
25
100
AcDbLine
 10
6969.624484914958
 20
4160.897880325673
 30
0.0
 11
6961.449146863269
 21
4160.897880325673
 31
0.0
  0
LINE
  5
104
330
17
100
AcDbEntity
  8
COTA
 62
4
370
25
100
AcDbLine
 10
6964.44914686327
 20
4200.897880325679
 30
0.0
 11
6964.44914686327
 21
4160.897880325673
 31
0.0
  0
LINE
  5
105
330
17
100
AcDbEntity
  8
COTA
 62
0
370
25
100
AcDbLine
 10
6965.94914686327
 20
4199.397880325679
 30
0.0
 11
6962.94914686327
 21
4202.397880325679
 31
0.0
  0
LINE
  5
106
330
17
100
AcDbEntity
  8
COTA
 62
0
370
25
100
AcDbLine
 10
6962.94914686327
 20
4162.397880325673
 30
0.0
 11
6965.94914686327
 21
4159.397880325673
 31
0.0
  0
LINE
  5
107
330
17
100
AcDbEntity
  8
COTA
 62
4
370
25
100
AcDbLine
 10
6972.624484914944
 20
4203.897880325677
 30
0.0
 11
6972.624484914944
 21
4223.675745573665
 31
0.0
  0
LINE
  5
108
330
17
100
AcDbEntity
  8
COTA
 62
4
370
25
100
AcDbLine
 10
6945.62448491495
 20
4217.897880325724
 30
0.0
 11
6945.62448491495
 21
4223.675745573665
 31
0.0
  0
LINE
  5
109
330
17
100
AcDbEntity
  8
COTA
 62
4
370
25
100
AcDbLine
 10
6972.624484914944
 20
4220.675745573664
 30
0.0
 11
6945.62448491495
 21
4220.675745573664
 31
0.0
  0
LINE
  5
10A
330
17
100
AcDbEntity
  8
COTA
 62
0
370
25
100
AcDbLine
 10
6971.124484914944
 20
4219.175745573664
 30
0.0
 11
6974.124484914944
 21
4222.175745573664
 31
0.0
  0
LINE
  5
10B
330
17
100
AcDbEntity
  8
COTA
 62
0
370
25
100
AcDbLine
 10
6947.12448491495
 20
4222.175745573664
 30
0.0
 11
6944.12448491495
 21
4219.175745573664
 31
0.0
  0
LINE
  5
10C
330
17
100
AcDbEntity
  8
COTA
 62
4
370
25
100
AcDbLine
 10
6373.610576418687
 20
4401.494967601762
 30
0.0
 11
6373.610576418687
 21
4401.724732768379
 31
0.0
  0
LINE
  5
10D
330
17
100
AcDbEntity
  8
COTA
 62
4
370
25
100
AcDbLine
 10
6398.110576418687
 20
4401.494967601762
 30
0.0
 11
6398.110576418687
 21
4401.724732768379
 31
0.0
  0
LINE
  5
10E
330
17
100
AcDbEntity
  8
COTA
 62
4
370
25
100
AcDbLine
 10
6373.610576418687
 20
4398.724732768378
 30
0.0
 11
6398.110576418687
 21
4398.724732768378
 31
0.0
  0
LINE
  5
10F
330
17
100
AcDbEntity
  8
COTA
 62
0
370
25
100
AcDbLine
 10
6375.110576418687
 20
4400.224732768378
 30
0.0
 11
6372.110576418687
 21
4397.224732768378
 31
0.0
  0
LINE
  5
110
330
17
100
AcDbEntity
  8
COTA
 62
0
370
25
100
AcDbLine
 10
6396.610576418687
 20
4397.224732768378
 30
0.0
 11
6399.610576418687
 21
4400.224732768378
 31
0.0
  0
LINE
  5
111
330
17
100
AcDbEntity
  8
COTA
 62
4
370
25
100
AcDbLine
 10
6617.610576418687
 20
4398.494967601791
 30
0.0
 11
6711.110576418687
 21
4398.494967601791
 31
0.0
  0
LINE
  5
112
330
17
100
AcDbEntity
  8
COTA
 62
0
370
25
100
AcDbLine
 10
6619.110576418687
 20
4399.994967601791
 30
0.0
 11
6616.110576418687
 21
4396.994967601791
 31
0.0
  0
LINE
  5
113
330
17
100
AcDbEntity
  8
COTA
 62
0
370
25
100
AcDbLine
 10
6709.610576418687
 20
4396.994967601791
 30
0.0
 11
6712.610576418687
 21
4399.994967601791
 31
0.0
  0
LINE
  5
114
330
17
100
AcDbEntity
  8
COTA
 62
4
370
25
100
AcDbLine
 10
7058.110576418687
 20
4401.494967601762
 30
0.0
 11
7058.110576418687
 21
4402.062782076823
 31
0.0
  0
LINE
  5
115
330
17
100
AcDbEntity
  8
COTA
 62
4
370
25
100
AcDbLine
 10
6972.110576418687
 20
4401.494967601762
 30
0.0
 11
6972.110576418687
 21
4402.062782076823
 31
0.0
  0
LINE
  5
116
330
17
100
AcDbEntity
  8
COTA
 62
4
370
25
100
AcDbLine
 10
7058.110576418687
 20
4399.062782076823
 30
0.0
 11
6972.110576418687
 21
4399.062782076823
 31
0.0
  0
LINE
  5
117
330
17
100
AcDbEntity
  8
COTA
 62
0
370
25
100
AcDbLine
 10
7056.610576418687
 20
4397.562782076823
 30
0.0
 11
7059.610576418687
 21
4400.562782076823
 31
0.0
  0
LINE
  5
118
330
17
100
AcDbEntity
  8
COTA
 62
0
370
25
100
AcDbLine
 10
6973.610576418687
 20
4400.562782076823
 30
0.0
 11
6970.610576418687
 21
4397.562782076823
 31
0.0
  0
LINE
  5
119
330
17
100
AcDbEntity
  8
COTA
 62
4
370
25
100
AcDbLine
 10
6375.624484914955
 20
4185.397880325716
 30
0.0
 11
6427.624484914955
 21
4185.397880325716
 31
0.0
  0
LINE
  5
11A
330
17
100
AcDbEntity
  8
COTA
 62
0
370
25
100
AcDbLine
 10
6377.124484914955
 20
4186.897880325716
 30
0.0
 11
6374.124484914955
 21
4183.897880325716
 31
0.0
  0
LINE
  5
11B
330
17
100
AcDbEntity
  8
COTA
 62
0
370
25
100
AcDbLine
 10
6426.124484914955
 20
4183.897880325716
 30
0.0
 11
6429.124484914955
 21
4186.897880325716
 31
0.0
  0
LINE
  5
11C
330
17
100
AcDbEntity
  8
COTA
 62
4
370
25
100
AcDbLine
 10
6765.624484914951
 20
4185.397880325714
 30
0.0
 11
6777.624484914952
 21
4185.397880325714
 31
0.0
  0
LINE
  5
11D
330
17
100
AcDbEntity
  8
COTA
 62
0
370
25
100
AcDbLine
 10
6767.124484914951
 20
4186.897880325714
 30
0.0
 11
6764.124484914951
 21
4183.897880325714
 31
0.0
  0
LINE
  5
11E
330
17
100
AcDbEntity
  8
COTA
 62
0
370
25
100
AcDbLine
 10
6776.124484914952
 20
4183.897880325714
 30
0.0
 11
6779.124484914952
 21
4186.897880325714
 31
0.0
  0
LINE
  5
11F
330
17
100
AcDbEntity
  8
COTA
 62
4
370
25
100
AcDbLine
 10
6765.624484914951
 20
4185.397880325719
 30
0.0
 11
6687.624484914952
 21
4185.397880325719
 31
0.0
  0
LINE
  5
120
330
17
100
AcDbEntity
  8
COTA
 62
0
370
25
100
AcDbLine
 10
6764.124484914951
 20
4183.897880325719
 30
0.0
 11
6767.124484914951
 21
4186.897880325719
 31
0.0
  0
LINE
  5
121
330
17
100
AcDbEntity
  8
COTA
 62
0
370
25
100
AcDbLine
 10
6689.124484914952
 20
4186.897880325719
 30
0.0
 11
6686.124484914952
 21
4183.897880325719
 31
0.0
  0
LINE
  5
122
330
17
100
AcDbEntity
  8
Painéis
 62
4
370
25
100
AcDbLine
 10
7093.624484914951
 20
4175.397880325697
 30
0.0
 11
7093.624484914951
 21
4174.955742120372
 31
0.0
  0
LINE
  5
123
330
17
100
AcDbEntity
  8
Painéis
 62
4
370
25
100
AcDbLine
 10
6997.624484914952
 20
4175.397880325697
 30
0.0
 11
6997.624484914952
 21
4174.955742120372
 31
0.0
  0
LINE
  5
124
330
17
100
AcDbEntity
  8
Painéis
 62
4
370
25
100
AcDbLine
 10
7093.624484914951
 20
4177.955742120372
 30
0.0
 11
6997.624484914952
 21
4177.955742120372
 31
0.0
  0
LINE
  5
125
330
17
100
AcDbEntity
  8
Painéis
 62
0
370
25
100
AcDbLine
 10
7092.124484914951
 20
4176.455742120372
 30
0.0
 11
7095.124484914951
 21
4179.455742120372
 31
0.0
  0
LINE
  5
126
330
17
100
AcDbEntity
  8
Painéis
 62
0
370
25
100
AcDbLine
 10
6999.124484914952
 20
4179.455742120372
 30
0.0
 11
6996.124484914952
 21
4176.455742120372
 31
0.0
  0
LINE
  5
127
330
17
100
AcDbEntity
  8
Texto Seção
 62
252
370
15
100
AcDbLine
 10
6753.642357028448
 20
4658.365869424249
 30
0.0
 11
6753.642357028448
 21
4783.365869424249
 31
0.0
  0
LWPOLYLINE
  5
128
330
17
100
AcDbEntity
  8
Painéis
 62
200
370
25
100
AcDbPolyline
 90
4
 70
1
 10
6607.419267506682
 20
4658.365869424249
 10
6611.419267506683
 20
4658.365869424249
 10
6611.419267506683
 20
4540.365869424249
 10
6607.419267506682
 20
4540.365869424249
  0
LWPOLYLINE
  5
129
330
17
100
AcDbEntity
  8
Madeira
 62
126
370
18
100
AcDbPolyline
 90
4
 70
1
 10
6649.419267506683
 20
4540.365869424249
 10
6649.419267506683
 20
4544.765869424243
 10
6635.419267506683
 20
4544.765869424243
 10
6635.419267506683
 20
4540.365869424249
  0
LWPOLYLINE
  5
12A
330
17
100
AcDbEntity
  8
Painéis
 62
200
370
25
100
AcDbPolyline
 90
4
 70
1
 10
6649.419267506683
 20
4544.765869424243
 10
6649.419267506683
 20
4548.365869424249
 10
6611.419267506683
 20
4548.365869424249
 10
6611.419267506683
 20
4544.765869424243
  0
LWPOLYLINE
  5
12B
330
17
100
AcDbEntity
  8
Madeira
 62
126
370
18
100
AcDbPolyline
 90
4
 70
1
 10
6611.419267506683
 20
4540.365869424249
 10
6611.419267506683
 20
4544.765869424243
 10
6625.419267506683
 20
4544.765869424243
 10
6625.419267506683
 20
4540.365869424249
  0
LWPOLYLINE
  5
12C
330
17
100
AcDbEntity
  8
Painéis
 62
200
370
25
100
AcDbPolyline
 90
4
 70
1
 10
6653.419267506693
 20
4658.365869424249
 10
6649.419267506694
 20
4658.365869424249
 10
6649.419267506683
 20
4540.365869424249
 10
6653.419267506682
 20
4540.365869424249
  0
LWPOLYLINE
  5
12D
330
17
100
AcDbEntity
  8
CONCRETO
 62
251
370
25
100
AcDbPolyline
 90
8
 70
1
 10
6611.419267506683
 20
4658.365869424249
 10
6611.419267506683
 20
4658.365869424249
 10
6649.419267506691
 20
4658.365869424249
 10
6649.419267506691
 20
4630.365869424235
 10
6649.419267506683
 20
4630.365869424235
 10
6649.419267506624
 20
4548.365869424249
 10
6611.419267506683
 20
4548.365869424249
 10
6611.419267506683
 20
4658.365869424256
  0
LWPOLYLINE
  5
12E
330
17
100
AcDbEntity
  8
Painéis
 62
200
370
25
100
AcDbPolyline
 90
4
 70
1
 10
6900.31000612456
 20
4630.365869424228
 10
6896.310006124561
 20
4630.365869424228
 10
6896.310006124561
 20
4540.365869424249
 10
6900.31000612456
 20
4540.365869424249
  0
LWPOLYLINE
  5
12F
330
17
100
AcDbEntity
  8
Madeira
 62
126
370
18
100
AcDbPolyline
 90
4
 70
1
 10
6858.31000612456
 20
4540.365869424249
 10
6858.31000612456
 20
4544.765869424243
 10
6872.31000612456
 20
4544.765869424243
 10
6872.31000612456
 20
4540.365869424249
  0
LWPOLYLINE
  5
130
330
17
100
AcDbEntity
  8
Painéis
 62
200
370
25
100
AcDbPolyline
 90
4
 70
1
 10
6858.31000612456
 20
4544.765869424243
 10
6858.31000612456
 20
4548.365869424249
 10
6896.310006124561
 20
4548.365869424249
 10
6896.310006124561
 20
4544.765869424243
  0
LWPOLYLINE
  5
131
330
17
100
AcDbEntity
  8
Madeira
 62
126
370
18
100
AcDbPolyline
 90
4
 70
1
 10
6896.310006124561
 20
4540.365869424249
 10
6896.310006124561
 20
4544.765869424243
 10
6882.310006124561
 20
4544.765869424243
 10
6882.310006124561
 20
4540.365869424249
  0
LWPOLYLINE
  5
132
330
17
100
AcDbEntity
  8
Painéis
 62
200
370
25
100
AcDbPolyline
 90
4
 70
1
 10
6854.310006124549
 20
4658.365869424249
 10
6858.31000612455
 20
4658.365869424249
 10
6858.31000612456
 20
4540.365869424249
 10
6854.310006124561
 20
4540.365869424249
  0
LWPOLYLINE
  5
133
330
17
100
AcDbEntity
  8
Painéis
 62
200
370
25
100
AcDbPolyline
 90
4
 70
1
 10
6896.310006124561
 20
4630.365869424228
 10
6896.310006124561
 20
4634.365869424228
 10
6951.910006124537
 20
4634.36586942422
 10
6951.910006124537
 20
4630.36586942422
  0
LWPOLYLINE
  5
134
330
17
100
AcDbEntity
  8
CONCRETO
 62
251
370
25
100
AcDbPolyline
 90
8
 70
1
 10
6951.910006124537
 20
4634.36586942422
 10
6951.910006124537
 20
4658.365869424249
 10
6858.310006124551
 20
4658.365869424249
 10
6858.310006124551
 20
4630.365869424235
 10
6858.31000612456
 20
4630.365869424235
 10
6858.310006124618
 20
4548.365869424249
 10
6896.310006124561
 20
4548.365869424249
 10
6896.310006124561
 20
4634.365869424228
  0
LWPOLYLINE
  5
135
330
17
100
AcDbEntity
  8
Madeira
 62
126
370
18
100
AcDbPolyline
 90
4
 70
1
 10
6607.419267506682
 20
4644.365869424249
 10
6603.019267506688
 20
4644.365869424249
 10
6603.019267506688
 20
4658.365869424249
 10
6607.419267506682
 20
4658.365869424249
  0
LWPOLYLINE
  5
136
330
17
100
AcDbEntity
  8
Madeira
 62
126
370
18
100
AcDbPolyline
 90
4
 70
1
 10
6607.419267506688
 20
4596.335926952555
 10
6603.019267506694
 20
4596.335926952555
 10
6603.019267506694
 20
4610.335926952555
 10
6607.419267506688
 20
4610.335926952555
  0
LWPOLYLINE
  5
137
330
17
100
AcDbEntity
  8
Madeira
 62
126
370
18
100
AcDbPolyline
 90
4
 70
1
 10
6607.419267506694
 20
4540.365869424249
 10
6603.0192675067
 20
4540.365869424249
 10
6603.0192675067
 20
4554.365869424249
 10
6607.419267506694
 20
4554.365869424249
  0
LWPOLYLINE
  5
138
330
17
100
AcDbEntity
  8
Madeira
 62
126
370
18
100
AcDbPolyline
 90
4
 70
1
 10
6854.310006124549
 20
4644.365869424249
 10
6849.910006124556
 20
4644.365869424249
 10
6849.910006124556
 20
4658.365869424249
 10
6854.310006124549
 20
4658.365869424249
  0
LWPOLYLINE
  5
139
330
17
100
AcDbEntity
  8
Madeira
 62
126
370
18
100
AcDbPolyline
 90
4
 70
1
 10
6854.310006124555
 20
4596.335926952555
 10
6849.910006124561
 20
4596.335926952555
 10
6849.910006124561
 20
4610.335926952555
 10
6854.310006124555
 20
4610.335926952555
  0
LWPOLYLINE
  5
13A
330
17
100
AcDbEntity
  8
Madeira
 62
126
370
18
100
AcDbPolyline
 90
4
 70
1
 10
6854.310006124561
 20
4540.365869424249
 10
6849.910006124567
 20
4540.365869424249
 10
6849.910006124567
 20
4554.365869424249
 10
6854.310006124561
 20
4554.365869424249
  0
LWPOLYLINE
  5
13B
330
17
100
AcDbEntity
  8
Madeira
 62
126
370
18
100
AcDbPolyline
 90
4
 70
1
 10
6653.419267506691
 20
4644.365869424249
 10
6657.819267506686
 20
4644.365869424249
 10
6657.819267506686
 20
4658.365869424249
 10
6653.419267506691
 20
4658.365869424249
  0
LWPOLYLINE
  5
13C
330
17
100
AcDbEntity
  8
Madeira
 62
126
370
18
100
AcDbPolyline
 90
4
 70
1
 10
6653.419267506686
 20
4596.335926952555
 10
6657.81926750668
 20
4596.335926952555
 10
6657.81926750668
 20
4610.335926952555
 10
6653.419267506686
 20
4610.335926952555
  0
LWPOLYLINE
  5
13D
330
17
100
AcDbEntity
  8
Madeira
 62
126
370
18
100
AcDbPolyline
 90
4
 70
1
 10
6653.419267506681
 20
4540.365869424249
 10
6657.819267506674
 20
4540.365869424249
 10
6657.819267506674
 20
4554.365869424249
 10
6653.419267506681
 20
4554.365869424249
  0
LWPOLYLINE
  5
13E
330
17
100
AcDbEntity
  8
Madeira
 62
126
370
18
100
AcDbPolyline
 90
4
 70
1
 10
6904.710006124554
 20
4616.365869424227
 10
6900.31000612456
 20
4616.365869424227
 10
6900.31000612456
 20
4630.365869424228
 10
6904.710006124554
 20
4630.365869424228
  0
LWPOLYLINE
  5
13F
330
17
100
AcDbEntity
  8
Madeira
 62
126
370
18
100
AcDbPolyline
 90
4
 70
1
 10
6904.710006124554
 20
4540.365869424249
 10
6900.31000612456
 20
4540.365869424249
 10
6900.31000612456
 20
4554.365869424249
 10
6904.710006124554
 20
4554.365869424249
  0
LWPOLYLINE
  5
140
330
17
100
AcDbEntity
  8
SARR_3.5x7
 62
81
370
25
100
AcDbPolyline
 90
4
 70
1
 10
6589.019267506635
 20
4652.365869424249
 10
6603.019267506636
 20
4652.365869424249
 10
6603.019267506763
 20
4463.887656018443
 10
6589.019267506762
 20
4463.887656018443
  0
LWPOLYLINE
  5
141
330
17
100
AcDbEntity
  8
SARR_3.5x7
 62
81
370
25
100
AcDbPolyline
 90
4
 70
1
 10
6671.819267506922
 20
4652.365869424254
 10
6657.819267506922
 20
4652.365869424254
 10
6657.819267506777
 20
4463.887656018443
 10
6671.819267506776
 20
4463.887656018443
  0
LWPOLYLINE
  5
142
330
17
100
AcDbEntity
  8
SARR_3.5x7
 62
81
370
25
100
AcDbPolyline
 90
4
 70
1
 10
6589.019267506623
 20
4540.365869424249
 10
6671.819267506823
 20
4540.365869424248
 10
6671.819267506823
 20
4510.307807820248
 10
6589.019267506623
 20
4510.30780782025
  0
LWPOLYLINE
  5
143
330
17
100
AcDbEntity
  8
SARR_3.5x7
 62
81
370
25
100
AcDbPolyline
 90
4
 70
1
 10
6835.910006124503
 20
4652.365869424249
 10
6849.910006124503
 20
4652.365869424249
 10
6849.910006124632
 20
4463.887656018443
 10
6835.910006124632
 20
4463.887656018443
  0
LWPOLYLINE
  5
144
330
17
100
AcDbEntity
  8
SARR_3.5x7
 62
81
370
25
100
AcDbPolyline
 90
4
 70
1
 10
6918.710006124789
 20
4624.365869424229
 10
6904.710006124789
 20
4624.365869424229
 10
6904.710006124642
 20
4463.887656018443
 10
6918.710006124642
 20
4463.887656018443
  0
LWPOLYLINE
  5
145
330
17
100
AcDbEntity
  8
SARR_3.5x7
 62
81
370
25
100
AcDbPolyline
 90
4
 70
1
 10
6835.91000612449
 20
4540.365869424249
 10
6918.71000612469
 20
4540.365869424248
 10
6918.71000612469
 20
4510.307807820248
 10
6835.91000612449
 20
4510.30780782025
  0
LWPOLYLINE
  5
146
330
17
100
AcDbEntity
  8
Madeira
 62
126
370
18
100
AcDbPolyline
 90
4
 70
1
 10
6904.710006124554
 20
4578.365869424238
 10
6900.31000612456
 20
4578.365869424238
 10
6900.31000612456
 20
4592.365869424238
 10
6904.710006124554
 20
4592.365869424238
  0
LWPOLYLINE
  5
147
330
17
100
AcDbEntity
  8
COTA
 62
0
370
25
100
AcDbPolyline
 90
2
 70
0
 10
6723.791000265044
 20
4542.865869424252
 10
6728.791000265044
 20
4537.865869424252
  0
LWPOLYLINE
  5
148
330
17
100
AcDbEntity
  8
COTA
 62
0
370
25
100
AcDbPolyline
 90
2
 70
0
 10
6728.791000265044
 20
4655.865869424251
 10
6723.791000265044
 20
4660.865869424251
  0
LWPOLYLINE
  5
149
330
17
100
AcDbEntity
  8
COTA
 62
0
370
25
100
AcDbPolyline
 90
2
 70
0
 10
6525.261972903331
 20
4655.865869424251
 10
6520.261972903331
 20
4660.865869424251
  0
LWPOLYLINE
  5
14A
330
17
100
AcDbEntity
  8
COTA
 62
0
370
25
100
AcDbPolyline
 90
2
 70
0
 10
6520.261972903331
 20
4542.865869424252
 10
6525.261972903331
 20
4537.865869424252
  0
LWPOLYLINE
  5
14B
330
17
100
AcDbEntity
  8
COTA
 62
0
370
25
100
AcDbPolyline
 90
2
 70
0
 10
6613.919267506683
 20
4498.139055622059
 10
6608.919267506683
 20
4493.139055622059
  0
LWPOLYLINE
  5
14C
330
17
100
AcDbEntity
  8
COTA
 62
0
370
25
100
AcDbPolyline
 90
2
 70
0
 10
6646.919267506683
 20
4493.139055622059
 10
6651.919267506683
 20
4498.139055622059
  0
LWPOLYLINE
  5
14D
330
17
100
AcDbEntity
  8
COTA
 62
0
370
25
100
AcDbPolyline
 90
2
 70
0
 10
7001.786729213865
 20
4542.865869424252
 10
7006.786729213865
 20
4537.865869424252
  0
LWPOLYLINE
  5
14E
330
17
100
AcDbEntity
  8
COTA
 62
0
370
25
100
AcDbPolyline
 90
2
 70
0
 10
7006.786729213865
 20
4655.865869424243
 10
7001.786729213865
 20
4660.865869424243
  0
LWPOLYLINE
  5
14F
330
17
100
AcDbEntity
  8
COTA
 62
0
370
25
100
AcDbPolyline
 90
2
 70
0
 10
6778.938273366361
 20
4542.865869424252
 10
6783.938273366361
 20
4537.865869424252
  0
LWPOLYLINE
  5
150
330
17
100
AcDbEntity
  8
COTA
 62
0
370
25
100
AcDbPolyline
 90
2
 70
0
 10
6783.938273366361
 20
4655.865869424251
 10
6778.938273366361
 20
4660.865869424251
  0
LWPOLYLINE
  5
151
330
17
100
AcDbEntity
  8
COTA
 62
0
370
25
100
AcDbPolyline
 90
2
 70
0
 10
6987.467300728399
 20
4655.865869424243
 10
6982.467300728399
 20
4660.865869424243
  0
LWPOLYLINE
  5
152
330
17
100
AcDbEntity
  8
COTA
 62
0
370
25
100
AcDbPolyline
 90
2
 70
0
 10
6982.467300728399
 20
4636.865869424222
 10
6987.467300728399
 20
4631.865869424222
  0
LWPOLYLINE
  5
153
330
17
100
AcDbEntity
  8
COTA
 62
0
370
25
100
AcDbPolyline
 90
2
 70
0
 10
6987.467300728074
 20
4627.865869424222
 10
6982.467300728074
 20
4632.865869424222
  0
LWPOLYLINE
  5
154
330
17
100
AcDbEntity
  8
COTA
 62
0
370
25
100
AcDbPolyline
 90
2
 70
0
 10
6982.467300728074
 20
4542.865869424252
 10
6987.467300728074
 20
4537.865869424252
  0
LWPOLYLINE
  5
155
330
17
100
AcDbEntity
  8
COTA
 62
0
370
25
100
AcDbPolyline
 90
2
 70
0
 10
6893.810006124561
 20
4493.139055622059
 10
6898.810006124561
 20
4498.139055622059
  0
LWPOLYLINE
  5
156
330
17
100
AcDbEntity
  8
COTA
 62
0
370
25
100
AcDbPolyline
 90
2
 70
0
 10
6860.81000612456
 20
4498.139055622059
 10
6855.81000612456
 20
4493.139055622059
  0
TEXT
  5
157
330
17
100
AcDbEntity
  8
5
 62
5
370
25
100
AcDbText
 10
7020.500828199756
 20
4290.990445365848
 30
0.0
 40
12.0
  1
P35
 50
3.55024762388e-05
100
AcDbText
  0
TEXT
  5
158
330
17
100
AcDbEntity
  8
Texto Seção
 62
7
370
15
100
AcDbText
 10
6369.208980879248
 20
4226.703426623823
 30
0.0
 40
13.0
  1
V8.B
100
AcDbText
  0
TEXT
  5
159
330
17
100
AcDbEntity
  8
5
 62
5
370
25
100
AcDbText
 10
6388.618942869487
 20
4073.853016149672
 30
0.0
 40
12.0
  1
P35
 50
3.55024762388e-05
100
AcDbText
  0
TEXT
  5
15A
330
17
100
AcDbEntity
  8
Texto Seção
 62
7
370
15
100
AcDbText
 10
6368.199350915438
 20
4436.03698313674
 30
0.0
 40
13.0
  1
V8.A
100
AcDbText
  0
TEXT
  5
15B
330
17
100
AcDbEntity
  8
detalhes
 62
4
370
25
100
AcDbText
 10
6658.133750682721
 20
4600.98796500014
 30
0.0
 40
9.600000000000001
  1
b
100
AcDbText
  0
TEXT
  5
15C
330
17
100
AcDbEntity
  8
detalhes
 62
4
370
25
100
AcDbText
 10
6595.590092036984
 20
4600.999022445716
 30
0.0
 40
9.600000000000001
  1
a
100
AcDbText
  0
TEXT
  5
15D
330
17
100
AcDbEntity
  8
detalhes
 62
4
370
25
100
AcDbText
 10
6622.019533122127
 20
4550.601622944088
 30
0.0
 40
9.600000000000001
  1
c
100
AcDbText
  0
TEXT
  5
15E
330
17
100
AcDbEntity
  8
detalhes
 62
4
370
25
100
AcDbText
 10
6904.517270814024
 20
4596.386562365705
 30
0.0
 40
9.600000000000001
  1
b
100
AcDbText
  0
TEXT
  5
15F
330
17
100
AcDbEntity
  8
detalhes
 62
4
370
25
100
AcDbText
 10
6843.767568272831
 20
4597.446580310925
 30
0.0
 40
9.600000000000001
  1
a
100
AcDbText
  0
TEXT
  5
160
330
17
100
AcDbEntity
  8
detalhes
 62
4
370
25
100
AcDbText
 10
6878.607986123149
 20
4550.601622944088
 30
0.0
 40
9.600000000000001
  1
c
100
AcDbText
  0
TEXT
  5
161
330
17
100
AcDbEntity
  8
5
 62
5
370
25
100
AcDbText
 10
6372.89203588083
 20
4290.990450382099
 30
0.0
 40
12.0
  1
P33
 50
3.55024762388e-05
100
AcDbText
  0
TEXT
  5
162
330
17
100
AcDbEntity
  8
5
 62
5
370
25
100
AcDbText
 10
7062.454409490904
 20
4073.853016149671
 30
0.0
 40
12.0
  1
V23
 50
3.55024762388e-05
100
AcDbText
  0
TEXT
  5
163
330
17
100
AcDbEntity
  8
COTA
 62
240
370
25
100
AcDbText
 10
6959.860576418686
 20
4350.593930512496
 30
0.0
 40
10.0
  1
196.5
100
AcDbText
  0
TEXT
  5
164
330
17
100
AcDbEntity
  8
COTA
 62
240
370
25
100
AcDbText
 10
6715.860576418684
 20
4317.04810988222
 30
0.0
 40
10.0
  1
684.5
100
AcDbText
  0
TEXT
  5
165
330
17
100
AcDbEntity
  8
COTA
 62
240
370
25
100
AcDbText
 10
6739.610576418685
 20
4350.528141038811
 30
0.0
 40
10.0
  1
244
100
AcDbText
  0
TEXT
  5
166
330
17
100
AcDbEntity
  8
COTA
 62
240
370
25
100
AcDbText
 10
6495.610576418684
 20
4350.528141038818
 30
0.0
 40
10.0
  1
244
100
AcDbText
  0
TEXT
  5
167
330
17
100
AcDbEntity
  8
COTA
 62
1
370
25
100
AcDbText
 10
6734.791000265044
 20
4599.365869424248
 30
0.0
 40
7.0
  1
59
 50
90.0
100
AcDbText
  0
TEXT
  5
168
330
17
100
AcDbEntity
  8
Cota Seção (2x)
 62
1
370
25
100
AcDbText
 10
6651.419267508342
 20
4618.365869424213
 30
0.0
 40
7.0
  1
55
 50
90.0
100
AcDbText
  0
TEXT
  5
169
330
17
100
AcDbEntity
  8
COTA
 62
1
370
25
100
AcDbText
 10
6531.26197290333
 20
4599.365869424248
 30
0.0
 40
7.0
  1
59
 50
90.0
100
AcDbText
  0
TEXT
  5
16A
330
17
100
AcDbEntity
  8
COTA
 62
1
370
25
100
AcDbText
 10
6630.419267506683
 20
4501.13905562206
 30
0.0
 40
7.0
  1
19
100
AcDbText
  0
TEXT
  5
16B
330
17
100
AcDbEntity
  8
Cota Seção (2x)
 62
1
370
25
100
AcDbText
 10
6630.419267506653
 20
4567.865869424249
 30
0.0
 40
7.0
  1
19
100
AcDbText
  0
TEXT
  5
16C
330
17
100
AcDbEntity
  8
COTA
 62
1
370
25
100
AcDbText
 10
7012.786729213865
 20
4599.365869424245
 30
0.0
 40
7.0
  1
59
 50
90.0
100
AcDbText
  0
TEXT
  5
16D
330
17
100
AcDbEntity
  8
COTA
 62
1
370
25
100
AcDbText
 10
6789.93827336636
 20
4599.365869424248
 30
0.0
 40
7.0
  1
59
 50
90.0
100
AcDbText
  0
TEXT
  5
16E
330
17
100
AcDbEntity
  8
Cota Seção (2x)
 62
1
370
25
100
AcDbText
 10
6882.33004480523
 20
4618.365869424213
 30
0.0
 40
7.0
  1
55
 50
90.0
100
AcDbText
  0
TEXT
  5
16F
330
17
100
AcDbEntity
  8
COTA
 62
1
370
25
100
AcDbText
 10
6993.467300728399
 20
4646.36586942423
 30
0.0
 40
7.0
  1
12
 50
90.0
100
AcDbText
  0
TEXT
  5
170
330
17
100
AcDbEntity
  8
COTA
 62
1
370
25
100
AcDbText
 10
6993.467300728074
 20
4585.365869424234
 30
0.0
 40
7.0
  1
45
 50
90.0
100
AcDbText
  0
TEXT
  5
171
330
17
100
AcDbEntity
  8
COTA
 62
1
370
25
100
AcDbText
 10
6877.31000612456
 20
4501.13905562206
 30
0.0
 40
7.0
  1
19
100
AcDbText
  0
TEXT
  5
172
330
17
100
AcDbEntity
  8
Cota Seção (2x)
 62
1
370
25
100
AcDbText
 10
6877.31000612459
 20
4567.865869424249
 30
0.0
 40
7.0
  1
19
100
AcDbText
  0
TEXT
  5
173
330
17
100
AcDbEntity
  8
COTA
 62
240
370
25
100
AcDbText
 10
7097.329054110449
 20
4398.494967601761
 30
0.0
 40
10.0
  1
59
 50
90.0
100
AcDbText
  0
TEXT
  5
174
330
17
100
AcDbEntity
  8
COTA
 62
240
370
25
100
AcDbText
 10
6448.624484914953
 20
4137.460293528817
 30
0.0
 40
10.0
  1
146
100
AcDbText
  0
TEXT
  5
175
330
17
100
AcDbEntity
  8
COTA
 62
240
370
25
100
AcDbText
 10
7019.624484914953
 20
4137.452983587283
 30
0.0
 40
10.0
  1
148
100
AcDbText
  0
TEXT
  5
176
330
17
100
AcDbEntity
  8
COTA
 62
240
370
25
100
AcDbText
 10
7125.513042736363
 20
4178.397880325697
 30
0.0
 40
10.0
  1
45
 50
90.0
100
AcDbText
  0
TEXT
  5
177
330
17
100
AcDbEntity
  8
COTA
 62
240
370
25
100
AcDbText
 10
7125.549592443965
 20
4225.956359857835
 30
0.0
 40
10.0
  1
14
 50
90.0
100
AcDbText
  0
TEXT
  5
178
330
17
100
AcDbEntity
  8
COTA
 62
240
370
25
100
AcDbText
 10
7145.623011588986
 20
4185.397880325684
 30
0.0
 40
10.0
  1
59
 50
90.0
100
AcDbText
  0
TEXT
  5
179
330
17
100
AcDbEntity
  8
COTA
 62
240
370
25
100
AcDbText
 10
7066.976073494709
 20
4363.164622261072
 30
0.0
 40
10.0
  1
7
100
AcDbText
  0
TEXT
  5
17A
330
17
100
AcDbEntity
  8
COTA
 62
240
370
25
100
AcDbText
 10
6643.624484914953
 20
4137.431053762749
 30
0.0
 40
10.0
  1
244
100
AcDbText
  0
TEXT
  5
17B
330
17
100
AcDbEntity
  8
COTA
 62
240
370
25
100
AcDbText
 10
6855.624484914954
 20
4137.482223353403
 30
0.0
 40
10.0
  1
180
100
AcDbText
  0
TEXT
  5
17C
330
17
100
AcDbEntity
  8
COTA
 62
240
370
25
100
AcDbText
 10
6734.624484914954
 20
4103.914472898588
 30
0.0
 40
10.0
  1
718
100
AcDbText
  0
TEXT
  5
17D
330
17
100
AcDbEntity
  8
COTA
 62
240
370
25
100
AcDbText
 10
6374.44321305126
 20
4185.397880325715
 30
0.0
 40
10.0
  1
59
 50
90.0
100
AcDbText
  0
TEXT
  5
17E
330
17
100
AcDbEntity
  8
COTA
 62
240
370
25
100
AcDbText
 10
6496.713431459271
 20
4187.8978803257
 30
0.0
 40
10.0
  1
54
 50
90.0
100
AcDbText
  0
TEXT
  5
17F
330
17
100
AcDbEntity
  8
COTA
 62
240
370
25
100
AcDbText
 10
6510.624484914953
 20
4232.930689291219
 30
0.0
 40
10.0
  1
22
100
AcDbText
  0
TEXT
  5
180
330
17
100
AcDbEntity
  8
COTA
 62
240
370
25
100
AcDbText
 10
6976.346807681981
 20
4180.897880325674
 30
0.0
 40
10.0
  1
40
 50
90.0
100
AcDbText
  0
TEXT
  5
181
330
17
100
AcDbEntity
  8
COTA
 62
240
370
25
100
AcDbText
 10
6959.124484914948
 20
4228.74884498887
 30
0.0
 40
10.0
  1
27
100
AcDbText
  0
TEXT
  5
182
330
17
100
AcDbEntity
  8
COTA
 62
240
370
25
100
AcDbText
 10
6385.860576418687
 20
4406.834381891186
 30
0.0
 40
10.0
  1
24.5
100
AcDbText
  0
TEXT
  5
183
330
17
100
AcDbEntity
  8
COTA
 62
240
370
25
100
AcDbText
 10
6664.360576418687
 20
4406.743505613487
 30
0.0
 40
10.0
  1
93.5
100
AcDbText
  0
TEXT
  5
184
330
17
100
AcDbEntity
  8
COTA
 62
240
370
25
100
AcDbText
 10
7015.110576418686
 20
4407.187051082671
 30
0.0
 40
10.0
  1
86
100
AcDbText
  0
TEXT
  5
185
330
17
100
AcDbEntity
  8
COTA
 62
240
370
25
100
AcDbText
 10
6401.624484914956
 20
4193.507529448523
 30
0.0
 40
10.0
  1
52
100
AcDbText
  0
TEXT
  5
186
330
17
100
AcDbEntity
  8
COTA
 62
240
370
25
100
AcDbText
 10
6771.624484914951
 20
4193.456359857878
 30
0.0
 40
10.0
  1
12
100
AcDbText
  0
TEXT
  5
187
330
17
100
AcDbEntity
  8
COTA
 62
240
370
25
100
AcDbText
 10
6726.624484914951
 20
4193.492909565485
 30
0.0
 40
10.0
  1
78
100
AcDbText
  0
TEXT
  5
188
330
17
100
AcDbEntity
  8
Painéis
 62
240
370
25
100
AcDbText
 10
7045.624484914951
 20
4186.08732106774
 30
0.0
 40
10.0
  1
96
100
AcDbText
  0
TEXT
  5
189
330
17
100
AcDbEntity
  8
Texto Seção
 62
3
370
15
100
AcDbText
 10
6753.642357028448
 20
4729.814633797222
 30
0.0
 40
17.0
  1

100
AcDbText
  0
TEXT
  5
18A
330
17
100
AcDbEntity
  8
Texto Seção
 62
3
370
15
100
AcDbText
 10
6753.642357028448
 20
4699.914049152901
 30
0.0
 40
12.0
  1

100
AcDbText
  0
TEXT
  5
18B
330
17
100
AcDbEntity
  8
Texto Seção
 62
7
370
15
100
AcDbText
 10
6753.642357028448
 20
4673.9426202644145
 30
0.0
 40
10.0
  1

100
AcDbText
  0
HATCH
  5
18C
330
17
100
AcDbEntity
  8
COTA
 62
7
100
AcDbHatch
 10
0.0
 20
0.0
 30
0.0
210
0.0
220
0.0
230
1.0
  2
AR-CONC
 70
0
 71
0
 91
1
 92
3
 72
0
 73
1
 93
7
 10
6972.624484914954
 20
4160.897880325666
 10
6972.624484914944
 20
4200.897880325674
 10
7093.624484914951
 20
4200.897880325689
 10
7093.624484914947
 20
4214.897880325678
 10
6945.624484914948
 20
4214.89788032567
 10
6945.624484914948
 20
4160.897880325673
 10
6972.624484914954
 20
4160.897880325666
 97
0
 75
1
 76
1
 52
0.0
 41
1.0
 77
0
 78
13
 53
50.0
 43
0.0
 44
0.0
 45
182.184668996
 46
-15.9390855389
 79
2
 49
19.05
 49
-209.55
 53
355.0
 43
0.0
 44
0.0
 45
-35.243421425
 46
191.056845239
 79
2
 49
15.24
 49
-167.64058417
 53
100.4514447
 43
15.182007
 44
-1.3282535
 45
146.9412470904
 46
175.1177519122
 79
2
 49
16.1900088
 49
-178.0902446
 53
46.1842
 43
0.0
 44
50.8
 45
271.0790408921
 46
-42.0423279327
 79
2
 49
28.575
 49
-314.325
 53
96.63555761
 43
22.5899
 44
47.2965
 45
237.4041340515
 46
247.4261245977
 79
2
 49
24.28502314
 49
-267.13560816
 53
351.18415117
 43
0.0
 44
50.8
 45
237.404134065
 46
247.4261245855
 79
2
 49
22.85996707
 49
-251.45973192
 53
21.0
 43
25.4
 44
38.1
 45
151.6143912691
 46
-102.2651981871
 79
2
 49
19.05
 49
-209.55
 53
326.0
 43
25.4
 44
38.1
 45
61.8020283476
 46
184.1879661223
 79
2
 49
15.24
 49
-167.64
 53
71.451445
 43
38.0345326
 44
29.5779001
 45
213.4164192787
 46
81.9227688859
 79
2
 49
16.1900088
 49
-178.0899376
 53
37.5
 43
0.0
 44
0.0
 45
3.0886032506
 46
84.5550388732
 79
6
 49
0.0
 49
-165.608
 49
0.0
 49
-170.18
 49
0.0
 49
-168.275
 53
7.5
 43
0.0
 44
0.0
 45
66.8196625103
 46
100.1805748181
 79
6
 49
0.0
 49
-97.028
 49
0.0
 49
-161.798
 49
0.0
 49
-64.135
 53
-32.5
 43
-56.642
 44
0.0
 45
135.5905951669
 46
-5.7287439927
 79
6
 49
0.0
 49
-63.5
 49
0.0
 49
-198.12
 49
0.0
 49
-262.89
 53
-42.5
 43
-82.042
 44
0.0
 45
148.129181386
 46
25.4264910333
 79
6
 49
0.0
 49
-82.55
 49
0.0
 49
-131.572
 49
0.0
 49
-186.69
 98
0
  0
HATCH
  5
18D
330
17
100
AcDbEntity
  8
Hachura
 62
7
100
AcDbHatch
 10
0.0
 20
0.0
 30
0.0
210
0.0
220
0.0
230
1.0
  2
SOLID
 70
1
 71
0
 91
1
 92
3
 72
0
 73
1
 93
5
 10
6607.419267506682
 20
4658.365869424249
 10
6611.419267506683
 20
4658.365869424249
 10
6611.419267506683
 20
4540.365869424249
 10
6607.419267506682
 20
4540.365869424249
 10
6607.419267506682
 20
4658.365869424249
 97
0
 75
1
 76
1
 98
0
  0
HATCH
  5
18E
330
17
100
AcDbEntity
  8
Hachura
 62
7
100
AcDbHatch
 10
0.0
 20
0.0
 30
0.0
210
0.0
220
0.0
230
1.0
  2
ANSI31
 70
0
 71
0
 91
1
 92
3
 72
0
 73
1
 93
5
 10
6649.419267506683
 20
4540.365869424249
 10
6649.419267506683
 20
4544.765869424243
 10
6635.419267506683
 20
4544.765869424243
 10
6635.419267506683
 20
4540.365869424249
 10
6649.419267506683
 20
4540.365869424249
 97
0
 75
1
 76
1
 52
0.0
 41
1.0
 77
0
 78
1
 53
45.0
 43
0.0
 44
0.0
 45
-2.2450640303
 46
2.2450640303
 79
0
 98
0
  0
HATCH
  5
18F
330
17
100
AcDbEntity
  8
Hachura
 62
7
100
AcDbHatch
 10
0.0
 20
0.0
 30
0.0
210
0.0
220
0.0
230
1.0
  2
SOLID
 70
1
 71
0
 91
1
 92
3
 72
0
 73
1
 93
5
 10
6649.419267506683
 20
4544.765869424243
 10
6649.419267506683
 20
4548.365869424249
 10
6611.419267506683
 20
4548.365869424249
 10
6611.419267506683
 20
4544.765869424243
 10
6649.419267506683
 20
4544.765869424243
 97
0
 75
1
 76
1
 98
0
  0
HATCH
  5
190
330
17
100
AcDbEntity
  8
Hachura
 62
7
100
AcDbHatch
 10
0.0
 20
0.0
 30
0.0
210
0.0
220
0.0
230
1.0
  2
ANSI31
 70
0
 71
0
 91
1
 92
3
 72
0
 73
1
 93
5
 10
6611.419267506683
 20
4540.365869424249
 10
6611.419267506683
 20
4544.765869424243
 10
6625.419267506683
 20
4544.765869424243
 10
6625.419267506683
 20
4540.365869424249
 10
6611.419267506683
 20
4540.365869424249
 97
0
 75
1
 76
1
 52
0.0
 41
1.0
 77
0
 78
1
 53
45.0
 43
0.0
 44
0.0
 45
-2.2450640303
 46
2.2450640303
 79
0
 98
0
  0
HATCH
  5
191
330
17
100
AcDbEntity
  8
Hachura
 62
7
100
AcDbHatch
 10
0.0
 20
0.0
 30
0.0
210
0.0
220
0.0
230
1.0
  2
SOLID
 70
1
 71
0
 91
1
 92
3
 72
0
 73
1
 93
5
 10
6653.419267506682
 20
4658.365869424249
 10
6649.419267506683
 20
4658.365869424249
 10
6649.419267506683
 20
4540.365869424249
 10
6653.419267506682
 20
4540.365869424249
 10
6653.419267506682
 20
4658.365869424249
 97
0
 75
1
 76
1
 98
0
  0
HATCH
  5
192
330
17
100
AcDbEntity
  8
Hachura
 62
7
100
AcDbHatch
 10
0.0
 20
0.0
 30
0.0
210
0.0
220
0.0
230
1.0
  2
SOLID
 70
1
 71
0
 91
1
 92
3
 72
0
 73
1
 93
5
 10
6900.31000612456
 20
4630.365869424228
 10
6896.310006124561
 20
4630.365869424228
 10
6896.310006124561
 20
4540.365869424249
 10
6900.31000612456
 20
4540.365869424249
 10
6900.31000612456
 20
4630.365869424228
 97
0
 75
1
 76
1
 98
0
  0
HATCH
  5
193
330
17
100
AcDbEntity
  8
Hachura
 62
7
100
AcDbHatch
 10
0.0
 20
0.0
 30
0.0
210
0.0
220
0.0
230
1.0
  2
ANSI31
 70
0
 71
0
 91
1
 92
3
 72
0
 73
1
 93
5
 10
6858.31000612456
 20
4540.365869424249
 10
6858.31000612456
 20
4544.765869424243
 10
6872.31000612456
 20
4544.765869424243
 10
6872.31000612456
 20
4540.365869424249
 10
6858.31000612456
 20
4540.365869424249
 97
0
 75
1
 76
1
 52
0.0
 41
1.0
 77
0
 78
1
 53
45.0
 43
0.0
 44
0.0
 45
-2.2450640303
 46
2.2450640303
 79
0
 98
0
  0
HATCH
  5
194
330
17
100
AcDbEntity
  8
Hachura
 62
7
100
AcDbHatch
 10
0.0
 20
0.0
 30
0.0
210
0.0
220
0.0
230
1.0
  2
SOLID
 70
1
 71
0
 91
1
 92
3
 72
0
 73
1
 93
5
 10
6858.31000612456
 20
4544.765869424243
 10
6858.31000612456
 20
4548.365869424249
 10
6896.310006124561
 20
4548.365869424249
 10
6896.310006124561
 20
4544.765869424243
 10
6858.31000612456
 20
4544.765869424243
 97
0
 75
1
 76
1
 98
0
  0
HATCH
  5
195
330
17
100
AcDbEntity
  8
Hachura
 62
7
100
AcDbHatch
 10
0.0
 20
0.0
 30
0.0
210
0.0
220
0.0
230
1.0
  2
ANSI31
 70
0
 71
0
 91
1
 92
3
 72
0
 73
1
 93
5
 10
6896.310006124561
 20
4540.365869424249
 10
6896.310006124561
 20
4544.765869424243
 10
6882.310006124561
 20
4544.765869424243
 10
6882.310006124561
 20
4540.365869424249
 10
6896.310006124561
 20
4540.365869424249
 97
0
 75
1
 76
1
 52
0.0
 41
1.0
 77
0
 78
1
 53
45.0
 43
0.0
 44
0.0
 45
-2.2450640303
 46
2.2450640303
 79
0
 98
0
  0
HATCH
  5
196
330
17
100
AcDbEntity
  8
Hachura
 62
7
100
AcDbHatch
 10
0.0
 20
0.0
 30
0.0
210
0.0
220
0.0
230
1.0
  2
SOLID
 70
1
 71
0
 91
1
 92
3
 72
0
 73
1
 93
5
 10
6854.310006124561
 20
4658.365869424249
 10
6858.31000612456
 20
4658.365869424249
 10
6858.31000612456
 20
4540.365869424249
 10
6854.310006124561
 20
4540.365869424249
 10
6854.310006124561
 20
4658.365869424249
 97
0
 75
1
 76
1
 98
0
  0
HATCH
  5
197
330
17
100
AcDbEntity
  8
Hachura
 62
7
100
AcDbHatch
 10
0.0
 20
0.0
 30
0.0
210
0.0
220
0.0
230
1.0
  2
SOLID
 70
1
 71
0
 91
1
 92
3
 72
0
 73
1
 93
5
 10
6896.310006124561
 20
4630.365869424228
 10
6896.310006124561
 20
4634.365869424228
 10
6951.910006124537
 20
4634.36586942422
 10
6951.910006124537
 20
4630.36586942422
 10
6896.310006124561
 20
4630.365869424228
 97
0
 75
1
 76
1
 98
0
  0
HATCH
  5
198
330
17
100
AcDbEntity
  8
COTA
 62
7
100
AcDbHatch
 10
0.0
 20
0.0
 30
0.0
210
0.0
220
0.0
230
1.0
  2
AR-CONC
 70
0
 71
0
 91
1
 92
3
 72
0
 73
1
 93
5
 10
6521.624484914955
 20
4160.897880325703
 10
6521.624484914948
 20
4214.8978803257
 10
6499.624484914959
 20
4214.897880325701
 10
6499.624484914957
 20
4160.897880325699
 10
6521.624484914955
 20
4160.897880325703
 97
0
 75
1
 76
1
 52
0.0
 41
1.0
 77
0
 78
13
 53
50.0
 43
0.0
 44
0.0
 45
182.184668996
 46
-15.9390855389
 79
2
 49
19.05
 49
-209.55
 53
355.0
 43
0.0
 44
0.0
 45
-35.243421425
 46
191.056845239
 79
2
 49
15.24
 49
-167.64058417
 53
100.4514447
 43
15.182007
 44
-1.3282535
 45
146.9412470904
 46
175.1177519122
 79
2
 49
16.1900088
 49
-178.0902446
 53
46.1842
 43
0.0
 44
50.8
 45
271.0790408921
 46
-42.0423279327
 79
2
 49
28.575
 49
-314.325
 53
96.63555761
 43
22.5899
 44
47.2965
 45
237.4041340515
 46
247.4261245977
 79
2
 49
24.28502314
 49
-267.13560816
 53
351.18415117
 43
0.0
 44
50.8
 45
237.404134065
 46
247.4261245855
 79
2
 49
22.85996707
 49
-251.45973192
 53
21.0
 43
25.4
 44
38.1
 45
151.6143912691
 46
-102.2651981871
 79
2
 49
19.05
 49
-209.55
 53
326.0
 43
25.4
 44
38.1
 45
61.8020283476
 46
184.1879661223
 79
2
 49
15.24
 49
-167.64
 53
71.451445
 43
38.0345326
 44
29.5779001
 45
213.4164192787
 46
81.9227688859
 79
2
 49
16.1900088
 49
-178.0899376
 53
37.5
 43
0.0
 44
0.0
 45
3.0886032506
 46
84.5550388732
 79
6
 49
0.0
 49
-165.608
 49
0.0
 49
-170.18
 49
0.0
 49
-168.275
 53
7.5
 43
0.0
 44
0.0
 45
66.8196625103
 46
100.1805748181
 79
6
 49
0.0
 49
-97.028
 49
0.0
 49
-161.798
 49
0.0
 49
-64.135
 53
-32.5
 43
-56.642
 44
0.0
 45
135.5905951669
 46
-5.7287439927
 79
6
 49
0.0
 49
-63.5
 49
0.0
 49
-198.12
 49
0.0
 49
-262.89
 53
-42.5
 43
-82.042
 44
0.0
 45
148.129181386
 46
25.4264910333
 79
6
 49
0.0
 49
-82.55
 49
0.0
 49
-131.572
 49
0.0
 49
-186.69
 98
0
  0
HATCH
  5
199
330
17
100
AcDbEntity
  8
Hachura
 62
7
100
AcDbHatch
 10
0.0
 20
0.0
 30
0.0
210
0.0
220
0.0
230
1.0
  2
ANSI31
 70
0
 71
0
 91
1
 92
3
 72
0
 73
1
 93
5
 10
6607.419267506682
 20
4644.365869424249
 10
6603.019267506688
 20
4644.365869424249
 10
6603.019267506688
 20
4658.365869424249
 10
6607.419267506682
 20
4658.365869424249
 10
6607.419267506682
 20
4644.365869424249
 97
0
 75
1
 76
1
 52
0.0
 41
1.0
 77
0
 78
1
 53
45.0
 43
0.0
 44
0.0
 45
-2.2450640303
 46
2.2450640303
 79
0
 98
0
  0
HATCH
  5
19A
330
17
100
AcDbEntity
  8
Hachura
 62
7
100
AcDbHatch
 10
0.0
 20
0.0
 30
0.0
210
0.0
220
0.0
230
1.0
  2
ANSI31
 70
0
 71
0
 91
1
 92
3
 72
0
 73
1
 93
5
 10
6607.419267506688
 20
4596.335926952555
 10
6603.019267506694
 20
4596.335926952555
 10
6603.019267506694
 20
4610.335926952555
 10
6607.419267506688
 20
4610.335926952555
 10
6607.419267506688
 20
4596.335926952555
 97
0
 75
1
 76
1
 52
0.0
 41
1.0
 77
0
 78
1
 53
45.0
 43
0.0
 44
0.0
 45
-2.2450640303
 46
2.2450640303
 79
0
 98
0
  0
HATCH
  5
19B
330
17
100
AcDbEntity
  8
Hachura
 62
7
100
AcDbHatch
 10
0.0
 20
0.0
 30
0.0
210
0.0
220
0.0
230
1.0
  2
ANSI31
 70
0
 71
0
 91
1
 92
3
 72
0
 73
1
 93
5
 10
6607.419267506694
 20
4540.365869424249
 10
6603.0192675067
 20
4540.365869424249
 10
6603.0192675067
 20
4554.365869424249
 10
6607.419267506694
 20
4554.365869424249
 10
6607.419267506694
 20
4540.365869424249
 97
0
 75
1
 76
1
 52
0.0
 41
1.0
 77
0
 78
1
 53
45.0
 43
0.0
 44
0.0
 45
-2.2450640303
 46
2.2450640303
 79
0
 98
0
  0
HATCH
  5
19C
330
17
100
AcDbEntity
  8
Hachura
 62
7
100
AcDbHatch
 10
0.0
 20
0.0
 30
0.0
210
0.0
220
0.0
230
1.0
  2
ANSI31
 70
0
 71
0
 91
1
 92
3
 72
0
 73
1
 93
5
 10
6854.310006124549
 20
4644.365869424249
 10
6849.910006124556
 20
4644.365869424249
 10
6849.910006124556
 20
4658.365869424249
 10
6854.310006124549
 20
4658.365869424249
 10
6854.310006124549
 20
4644.365869424249
 97
0
 75
1
 76
1
 52
0.0
 41
1.0
 77
0
 78
1
 53
45.0
 43
0.0
 44
0.0
 45
-2.2450640303
 46
2.2450640303
 79
0
 98
0
  0
HATCH
  5
19D
330
17
100
AcDbEntity
  8
Hachura
 62
7
100
AcDbHatch
 10
0.0
 20
0.0
 30
0.0
210
0.0
220
0.0
230
1.0
  2
ANSI31
 70
0
 71
0
 91
1
 92
3
 72
0
 73
1
 93
5
 10
6854.310006124555
 20
4596.335926952555
 10
6849.910006124561
 20
4596.335926952555
 10
6849.910006124561
 20
4610.335926952555
 10
6854.310006124555
 20
4610.335926952555
 10
6854.310006124555
 20
4596.335926952555
 97
0
 75
1
 76
1
 52
0.0
 41
1.0
 77
0
 78
1
 53
45.0
 43
0.0
 44
0.0
 45
-2.2450640303
 46
2.2450640303
 79
0
 98
0
  0
HATCH
  5
19E
330
17
100
AcDbEntity
  8
Hachura
 62
7
100
AcDbHatch
 10
0.0
 20
0.0
 30
0.0
210
0.0
220
0.0
230
1.0
  2
ANSI31
 70
0
 71
0
 91
1
 92
3
 72
0
 73
1
 93
5
 10
6854.310006124561
 20
4540.365869424249
 10
6849.910006124567
 20
4540.365869424249
 10
6849.910006124567
 20
4554.365869424249
 10
6854.310006124561
 20
4554.365869424249
 10
6854.310006124561
 20
4540.365869424249
 97
0
 75
1
 76
1
 52
0.0
 41
1.0
 77
0
 78
1
 53
45.0
 43
0.0
 44
0.0
 45
-2.2450640303
 46
2.2450640303
 79
0
 98
0
  0
HATCH
  5
19F
330
17
100
AcDbEntity
  8
Hachura
 62
7
100
AcDbHatch
 10
0.0
 20
0.0
 30
0.0
210
0.0
220
0.0
230
1.0
  2
ANSI31
 70
0
 71
0
 91
1
 92
3
 72
0
 73
1
 93
5
 10
6653.419267506691
 20
4644.365869424249
 10
6657.819267506686
 20
4644.365869424249
 10
6657.819267506686
 20
4658.365869424249
 10
6653.419267506691
 20
4658.365869424249
 10
6653.419267506691
 20
4644.365869424249
 97
0
 75
1
 76
1
 52
0.0
 41
1.0
 77
0
 78
1
 53
45.0
 43
0.0
 44
0.0
 45
-2.2450640303
 46
2.2450640303
 79
0
 98
0
  0
HATCH
  5
1A0
330
17
100
AcDbEntity
  8
Hachura
 62
7
100
AcDbHatch
 10
0.0
 20
0.0
 30
0.0
210
0.0
220
0.0
230
1.0
  2
ANSI31
 70
0
 71
0
 91
1
 92
3
 72
0
 73
1
 93
5
 10
6653.419267506686
 20
4596.335926952555
 10
6657.81926750668
 20
4596.335926952555
 10
6657.81926750668
 20
4610.335926952555
 10
6653.419267506686
 20
4610.335926952555
 10
6653.419267506686
 20
4596.335926952555
 97
0
 75
1
 76
1
 52
0.0
 41
1.0
 77
0
 78
1
 53
45.0
 43
0.0
 44
0.0
 45
-2.2450640303
 46
2.2450640303
 79
0
 98
0
  0
HATCH
  5
1A1
330
17
100
AcDbEntity
  8
Hachura
 62
7
100
AcDbHatch
 10
0.0
 20
0.0
 30
0.0
210
0.0
220
0.0
230
1.0
  2
ANSI31
 70
0
 71
0
 91
1
 92
3
 72
0
 73
1
 93
5
 10
6653.419267506681
 20
4540.365869424249
 10
6657.819267506674
 20
4540.365869424249
 10
6657.819267506674
 20
4554.365869424249
 10
6653.419267506681
 20
4554.365869424249
 10
6653.419267506681
 20
4540.365869424249
 97
0
 75
1
 76
1
 52
0.0
 41
1.0
 77
0
 78
1
 53
45.0
 43
0.0
 44
0.0
 45
-2.2450640303
 46
2.2450640303
 79
0
 98
0
  0
HATCH
  5
1A2
330
17
100
AcDbEntity
  8
Hachura
 62
7
100
AcDbHatch
 10
0.0
 20
0.0
 30
0.0
210
0.0
220
0.0
230
1.0
  2
ANSI31
 70
0
 71
0
 91
1
 92
3
 72
0
 73
1
 93
5
 10
6904.710006124554
 20
4616.365869424227
 10
6900.31000612456
 20
4616.365869424227
 10
6900.31000612456
 20
4630.365869424228
 10
6904.710006124554
 20
4630.365869424228
 10
6904.710006124554
 20
4616.365869424227
 97
0
 75
1
 76
1
 52
0.0
 41
1.0
 77
0
 78
1
 53
45.0
 43
0.0
 44
0.0
 45
-2.2450640303
 46
2.2450640303
 79
0
 98
0
  0
HATCH
  5
1A3
330
17
100
AcDbEntity
  8
Hachura
 62
7
100
AcDbHatch
 10
0.0
 20
0.0
 30
0.0
210
0.0
220
0.0
230
1.0
  2
ANSI31
 70
0
 71
0
 91
1
 92
3
 72
0
 73
1
 93
5
 10
6904.710006124554
 20
4540.365869424249
 10
6900.31000612456
 20
4540.365869424249
 10
6900.31000612456
 20
4554.365869424249
 10
6904.710006124554
 20
4554.365869424249
 10
6904.710006124554
 20
4540.365869424249
 97
0
 75
1
 76
1
 52
0.0
 41
1.0
 77
0
 78
1
 53
45.0
 43
0.0
 44
0.0
 45
-2.2450640303
 46
2.2450640303
 79
0
 98
0
  0
HATCH
  5
1A4
330
17
100
AcDbEntity
  8
Hachura
 62
7
100
AcDbHatch
 10
0.0
 20
0.0
 30
0.0
210
0.0
220
0.0
230
1.0
  2
ANSI31
 70
0
 71
0
 91
1
 92
3
 72
0
 73
1
 93
5
 10
6904.710006124554
 20
4578.365869424238
 10
6900.31000612456
 20
4578.365869424238
 10
6900.31000612456
 20
4592.365869424238
 10
6904.710006124554
 20
4592.365869424238
 10
6904.710006124554
 20
4578.365869424238
 97
0
 75
1
 76
1
 52
0.0
 41
1.0
 77
0
 78
1
 53
45.0
 43
0.0
 44
0.0
 45
-2.2450640303
 46
2.2450640303
 79
0
 98
0
  0
HATCH
  5
1A5
330
17
100
AcDbEntity
  8
REAPROVEITAMENTO
 62
7
100
AcDbHatch
 10
0.0
 20
0.0
 30
0.0
210
0.0
220
0.0
230
1.0
  2
ANSI31
 70
0
 71
0
 91
1
 92
3
 72
0
 73
1
 93
5
 10
7058.110576418688
 20
4368.994967601763
 10
7058.110576418684
 20
4427.994967601767
 10
6373.610576418686
 20
4427.994967601762
 10
6373.610576418687
 20
4368.99496760176
 10
7058.110576418688
 20
4368.994967601763
 97
0
 75
1
 76
1
 52
0.0
 41
1.0
 77
0
 78
1
 53
45.0
 43
0.0
 44
0.0
 45
-2.2450640303
 46
2.2450640303
 79
0
 98
0
  0
HATCH
  5
1A6
330
17
100
AcDbEntity
  8
REAPROVEITAMENTO
 62
7
100
AcDbHatch
 10
0.0
 20
0.0
 30
0.0
210
0.0
220
0.0
230
1.0
  2
ANSI31
 70
0
 71
0
 91
1
 92
3
 72
0
 73
1
 93
7
 10
6499.624484914959
 20
4160.897880325702
 10
6499.62448491496
 20
4214.89788032571
 10
6375.624484914954
 20
4214.897880325715
 10
6375.624484914955
 20
4155.897880325699
 10
6521.624484914953
 20
4155.89788032569
 10
6521.624484914953
 20
4160.8978803257
 10
6499.624484914959
 20
4160.897880325702
 97
0
 75
1
 76
1
 52
0.0
 41
1.0
 77
0
 78
1
 53
45.0
 43
0.0
 44
0.0
 45
-2.2450640303
 46
2.2450640303
 79
0
 98
0
  0
HATCH
  5
1A7
330
17
100
AcDbEntity
  8
REAPROVEITAMENTO
 62
7
100
AcDbHatch
 10
0.0
 20
0.0
 30
0.0
210
0.0
220
0.0
230
1.0
  2
ANSI31
 70
0
 71
0
 91
1
 92
3
 72
0
 73
1
 93
5
 10
6765.624484914953
 20
4155.897880325717
 10
6765.624484914948
 20
4214.897880325719
 10
6521.624484914948
 20
4214.897880325701
 10
6521.624484914948
 20
4155.8978803257
 10
6765.624484914953
 20
4155.897880325717
 97
0
 75
1
 76
1
 52
0.0
 41
1.0
 77
0
 78
1
 53
45.0
 43
0.0
 44
0.0
 45
-2.2450640303
 46
2.2450640303
 79
0
 98
0
  0
HATCH
  5
1A8
330
17
100
AcDbEntity
  8
REAPROVEITAMENTO
 62
7
100
AcDbHatch
 10
0.0
 20
0.0
 30
0.0
210
0.0
220
0.0
230
1.0
  2
ANSI31
 70
0
 71
0
 91
1
 92
3
 72
0
 73
1
 93
7
 10
6945.624484914953
 20
4160.897880325673
 10
6945.62448491495
 20
4214.897880325715
 10
6765.624484914948
 20
4214.897880325714
 10
6765.624484914948
 20
4155.897880325715
 10
6972.624484914949
 20
4155.897880325719
 10
6972.624484914949
 20
4160.897880325673
 10
6945.624484914953
 20
4160.897880325673
 97
0
 75
1
 76
1
 52
0.0
 41
1.0
 77
0
 78
1
 53
45.0
 43
0.0
 44
0.0
 45
-2.2450640303
 46
2.2450640303
 79
0
 98
0
  0
ENDSEC
  0
SECTION
  2
OBJECTS
  0
DICTIONARY
  5
A
330
0
100
AcDbDictionary
281
1
  3
ACAD_COLOR
350
B
  3
ACAD_GROUP
350
C
  3
ACAD_LAYOUT
350
D
  3
ACAD_MATERIAL
350
E
  3
ACAD_MLEADERSTYLE
350
F
  3
ACAD_MLINESTYLE
350
10
  3
ACAD_PLOTSETTINGS
350
11
  3
ACAD_PLOTSTYLENAME
350
12
  3
ACAD_SCALELIST
350
14
  3
ACAD_TABLESTYLE
350
15
  3
ACAD_VISUALSTYLE
350
16
  3
EZDXF_META
350
2D
  0
DICTIONARY
  5
B
330
A
100
AcDbDictionary
281
1
  0
DICTIONARY
  5
C
330
A
100
AcDbDictionary
281
1
  0
DICTIONARY
  5
D
330
A
100
AcDbDictionary
281
1
  3
Model
350
1A
  3
Layout1
350
1E
  0
DICTIONARY
  5
E
330
A
100
AcDbDictionary
281
1
  3
ByBlock
350
1F
  3
ByLayer
350
20
  3
Global
350
21
  0
DICTIONARY
  5
F
330
A
100
AcDbDictionary
281
1
  3
Standard
350
2C
  0
DICTIONARY
  5
10
330
A
100
AcDbDictionary
281
1
  3
Standard
350
22
  0
DICTIONARY
  5
11
330
A
100
AcDbDictionary
281
1
  0
ACDBDICTIONARYWDFLT
  5
12
330
A
100
AcDbDictionary
281
1
  3
Normal
350
13
100
AcDbDictionaryWithDefault
340
13
  0
ACDBPLACEHOLDER
  5
13
330
12
  0
DICTIONARY
  5
14
330
A
100
AcDbDictionary
281
1
  0
DICTIONARY
  5
15
330
A
100
AcDbDictionary
281
1
  0
DICTIONARY
  5
16
330
A
100
AcDbDictionary
281
1
  0
LAYOUT
  5
1A
330
D
100
AcDbPlotSettings
  1

  4
A3
  6

 40
7.5
 41
20.0
 42
7.5
 43
20.0
 44
420.0
 45
297.0
 46
0.0
 47
0.0
 48
0.0
 49
0.0
140
0.0
141
0.0
142
1.0
143
1.0
 70
1024
 72
1
 73
0
 74
5
  7

 75
16
 76
0
 77
2
 78
300
147
1.0
148
0.0
149
0.0
100
AcDbLayout
  1
Model
 70
1
 71
0
 10
0.0
 20
0.0
 11
420.0
 21
297.0
 12
0.0
 22
0.0
 32
0.0
 14
1e+20
 24
1e+20
 34
1e+20
 15
-1e+20
 25
-1e+20
 35
-1e+20
146
0.0
 13
0.0
 23
0.0
 33
0.0
 16
1.0
 26
0.0
 36
0.0
 17
0.0
 27
1.0
 37
0.0
 76
1
330
17
  0
LAYOUT
  5
1E
330
D
100
AcDbPlotSettings
  1

  4
A3
  6

 40
7.5
 41
20.0
 42
7.5
 43
20.0
 44
420.0
 45
297.0
 46
0.0
 47
0.0
 48
0.0
 49
0.0
140
0.0
141
0.0
142
1.0
143
1.0
 70
0
 72
1
 73
0
 74
5
  7

 75
16
 76
0
 77
2
 78
300
147
1.0
148
0.0
149
0.0
100
AcDbLayout
  1
Layout1
 70
1
 71
1
 10
0.0
 20
0.0
 11
420.0
 21
297.0
 12
0.0
 22
0.0
 32
0.0
 14
1e+20
 24
1e+20
 34
1e+20
 15
-1e+20
 25
-1e+20
 35
-1e+20
146
0.0
 13
0.0
 23
0.0
 33
0.0
 16
1.0
 26
0.0
 36
0.0
 17
0.0
 27
1.0
 37
0.0
 76
1
330
1B
  0
MATERIAL
  5
1F
102
{ACAD_REACTORS
330
E
102
}
330
E
100
AcDbMaterial
  1
ByBlock
  2

 70
0
 40
1.0
 71
1
 41
1.0
 91
-1023410177
 42
1.0
 72
1
  3

 73
1
 74
1
 75
1
 44
0.5
 73
0
 45
1.0
 46
1.0
 77
1
  4

 78
1
 79
1
170
1
 48
1.0
171
1
  6

172
1
173
1
174
1
140
1.0
141
1.0
175
1
  7

176
1
177
1
178
1
143
1.0
179
1
  8

270
1
271
1
272
1
145
1.0
146
1.0
273
1
  9

274
1
275
1
276
1
 42
1.0
 72
1
  3

 73
1
 74
1
 75
1
 94
63
  0
MATERIAL
  5
20
102
{ACAD_REACTORS
330
E
102
}
330
E
100
AcDbMaterial
  1
ByLayer
  2

 70
0
 40
1.0
 71
1
 41
1.0
 91
-1023410177
 42
1.0
 72
1
  3

 73
1
 74
1
 75
1
 44
0.5
 73
0
 45
1.0
 46
1.0
 77
1
  4

 78
1
 79
1
170
1
 48
1.0
171
1
  6

172
1
173
1
174
1
140
1.0
141
1.0
175
1
  7

176
1
177
1
178
1
143
1.0
179
1
  8

270
1
271
1
272
1
145
1.0
146
1.0
273
1
  9

274
1
275
1
276
1
 42
1.0
 72
1
  3

 73
1
 74
1
 75
1
 94
63
  0
MATERIAL
  5
21
102
{ACAD_REACTORS
330
E
102
}
330
E
100
AcDbMaterial
  1
Global
  2

 70
0
 40
1.0
 71
1
 41
1.0
 91
-1023410177
 42
1.0
 72
1
  3

 73
1
 74
1
 75
1
 44
0.5
 73
0
 45
1.0
 46
1.0
 77
1
  4

 78
1
 79
1
170
1
 48
1.0
171
1
  6

172
1
173
1
174
1
140
1.0
141
1.0
175
1
  7

176
1
177
1
178
1
143
1.0
179
1
  8

270
1
271
1
272
1
145
1.0
146
1.0
273
1
  9

274
1
275
1
276
1
 42
1.0
 72
1
  3

 73
1
 74
1
 75
1
 94
63
  0
MLINESTYLE
  5
22
102
{ACAD_REACTORS
330
10
102
}
330
10
100
AcDbMlineStyle
  2
Standard
 70
0
  3

 62
256
 51
90.0
 52
90.0
 71
2
 49
0.5
 62
256
  6
BYLAYER
 49
-0.5
 62
256
  6
BYLAYER
  0
MLEADERSTYLE
  5
2C
102
{ACAD_REACTORS
330
F
102
}
330
F
100
AcDbMLeaderStyle
179
2
170
2
171
1
172
0
 90
2
 40
0.0
 41
0.0
173
1
 91
-1056964608
 92
-2
290
1
 42
2.0
291
1
 43
8.0
  3
Standard
 44
4.0
300

342
29
174
1
175
1
176
0
178
1
 93
-1056964608
 45
4.0
292
0
297
0
 46
4.0
 94
-1056964608
 47
1.0
 49
1.0
140
1.0
294
1
141
0.0
177
0
142
1.0
295
0
296
0
143
3.75
271
0
272
9
273
9
  0
DICTIONARY
  5
2D
330
A
100
AcDbDictionary
280
1
281
1
  3
CREATED_BY_EZDXF
350
2E
  3
WRITTEN_BY_EZDXF
350
1AB
  0
DICTIONARYVAR
  5
2E
330
2D
100
DictionaryVariables
280
0
  1
1.4.3 @ 2026-06-10T17:45:13.350632+00:00
  0
DICTIONARYVAR
  5
1AB
330
2D
100
DictionaryVariables
280
0
  1
1.4.3 @ 2026-06-10T17:45:13.363330+00:00
  0
ENDSEC
  0
EOF
