  0
SECTION
  2
HEADER
  9
$ACADVER
  1
AC1015
  9
$ACADMAINTVER
 70
6
  9
$DWGCODEPAGE
  3
ANSI_1252
  9
$INSBASE
 10
0.0
 20
0.0
 30
0.0
  9
$EXTMIN
 10
1e+20
 20
1e+20
 30
1e+20
  9
$EXTMAX
 10
-1e+20
 20
-1e+20
 30
-1e+20
  9
$LIMMIN
 10
0.0
 20
0.0
  9
$LIMMAX
 10
420.0
 20
297.0
  9
$ORTHOMODE
 70
0
  9
$REGENMODE
 70
1
  9
$FILLMODE
 70
1
  9
$QTEXTMODE
 70
0
  9
$MIRRTEXT
 70
1
  9
$LTSCALE
 40
1.0
  9
$ATTMODE
 70
1
  9
$TEXTSIZE
 40
2.5
  9
$TRACEWID
 40
1.0
  9
$TEXTSTYLE
  7
Standard
  9
$CLAYER
  8
0
  9
$CELTYPE
  6
ByLayer
  9
$CECOLOR
 62
256
  9
$CELTSCALE
 40
1.0
  9
$DISPSILH
 70
0
  9
$DIMSCALE
 40
1.0
  9
$DIMASZ
 40
2.5
  9
$DIMEXO
 40
0.625
  9
$DIMDLI
 40
3.75
  9
$DIMRND
 40
0.0
  9
$DIMDLE
 40
0.0
  9
$DIMEXE
 40
1.25
  9
$DIMTP
 40
0.0
  9
$DIMTM
 40
0.0
  9
$DIMTXT
 40
2.5
  9
$DIMCEN
 40
2.5
  9
$DIMTSZ
 40
0.0
  9
$DIMTOL
 70
0
  9
$DIMLIM
 70
0
  9
$DIMTIH
 70
0
  9
$DIMTOH
 70
0
  9
$DIMSE1
 70
0
  9
$DIMSE2
 70
0
  9
$DIMTAD
 70
1
  9
$DIMZIN
 70
8
  9
$DIMBLK
  1

  9
$DIMASO
 70
1
  9
$DIMSHO
 70
1
  9
$DIMPOST
  1

  9
$DIMAPOST
  1

  9
$DIMALT
 70
0
  9
$DIMALTD
 70
3
  9
$DIMALTF
 40
0.03937007874
  9
$DIMLFAC
 40
1.0
  9
$DIMTOFL
 70
1
  9
$DIMTVP
 40
0.0
  9
$DIMTIX
 70
0
  9
$DIMSOXD
 70
0
  9
$DIMSAH
 70
0
  9
$DIMBLK1
  1

  9
$DIMBLK2
  1

  9
$DIMSTYLE
  2
ISO-25
  9
$DIMCLRD
 70
0
  9
$DIMCLRE
 70
0
  9
$DIMCLRT
 70
0
  9
$DIMTFAC
 40
1.0
  9
$DIMGAP
 40
0.625
  9
$DIMJUST
 70
0
  9
$DIMSD1
 70
0
  9
$DIMSD2
 70
0
  9
$DIMTOLJ
 70
0
  9
$DIMTZIN
 70
8
  9
$DIMALTZ
 70
0
  9
$DIMALTTZ
 70
0
  9
$DIMUPT
 70
0
  9
$DIMDEC
 70
2
  9
$DIMTDEC
 70
2
  9
$DIMALTU
 70
2
  9
$DIMALTTD
 70
3
  9
$DIMTXSTY
  7
Standard
  9
$DIMAUNIT
 70
0
  9
$DIMADEC
 70
0
  9
$DIMALTRND
 40
0.0
  9
$DIMAZIN
 70
0
  9
$DIMDSEP
 70
44
  9
$DIMATFIT
 70
3
  9
$DIMFRAC
 70
0
  9
$DIMLDRBLK
  1

  9
$DIMLUNIT
 70
2
  9
$DIMLWD
 70
-2
  9
$DIMLWE
 70
-2
  9
$DIMTMOVE
 70
0
  9
$LUNITS
 70
2
  9
$LUPREC
 70
4
  9
$SKETCHINC
 40
1.0
  9
$FILLETRAD
 40
10.0
  9
$AUNITS
 70
0
  9
$AUPREC
 70
2
  9
$MENU
  1
.
  9
$ELEVATION
 40
0.0
  9
$PELEVATION
 40
0.0
  9
$THICKNESS
 40
0.0
  9
$LIMCHECK
 70
0
  9
$CHAMFERA
 40
0.0
  9
$CHAMFERB
 40
0.0
  9
$CHAMFERC
 40
0.0
  9
$CHAMFERD
 40
0.0
  9
$SKPOLY
 70
0
  9
$TDCREATE
 40
2461111.956712963
  9
$TDUCREATE
 40
2458532.153996898
  9
$TDUPDATE
 40
2461111.956724537
  9
$TDUUPDATE
 40
2458532.1544311
  9
$TDINDWG
 40
0.0
  9
$TDUSRTIMER
 40
0.0
  9
$USRTIMER
 70
1
  9
$ANGBASE
 50
0.0
  9
$ANGDIR
 70
0
  9
$PDMODE
 70
0
  9
$PDSIZE
 40
0.0
  9
$PLINEWID
 40
0.0
  9
$SPLFRAME
 70
0
  9
$SPLINETYPE
 70
6
  9
$SPLINESEGS
 70
8
  9
$HANDSEED
  5
1B3
  9
$SURFTAB1
 70
6
  9
$SURFTAB2
 70
6
  9
$SURFTYPE
 70
6
  9
$SURFU
 70
6
  9
$SURFV
 70
6
  9
$UCSBASE
  2

  9
$UCSNAME
  2

  9
$UCSORG
 10
0.0
 20
0.0
 30
0.0
  9
$UCSXDIR
 10
1.0
 20
0.0
 30
0.0
  9
$UCSYDIR
 10
0.0
 20
1.0
 30
0.0
  9
$UCSORTHOREF
  2

  9
$UCSORTHOVIEW
 70
0
  9
$UCSORGTOP
 10
0.0
 20
0.0
 30
0.0
  9
$UCSORGBOTTOM
 10
0.0
 20
0.0
 30
0.0
  9
$UCSORGLEFT
 10
0.0
 20
0.0
 30
0.0
  9
$UCSORGRIGHT
 10
0.0
 20
0.0
 30
0.0
  9
$UCSORGFRONT
 10
0.0
 20
0.0
 30
0.0
  9
$UCSORGBACK
 10
0.0
 20
0.0
 30
0.0
  9
$PUCSBASE
  2

  9
$PUCSNAME
  2

  9
$PUCSORG
 10
0.0
 20
0.0
 30
0.0
  9
$PUCSXDIR
 10
1.0
 20
0.0
 30
0.0
  9
$PUCSYDIR
 10
0.0
 20
1.0
 30
0.0
  9
$PUCSORTHOREF
  2

  9
$PUCSORTHOVIEW
 70
0
  9
$PUCSORGTOP
 10
0.0
 20
0.0
 30
0.0
  9
$PUCSORGBOTTOM
 10
0.0
 20
0.0
 30
0.0
  9
$PUCSORGLEFT
 10
0.0
 20
0.0
 30
0.0
  9
$PUCSORGRIGHT
 10
0.0
 20
0.0
 30
0.0
  9
$PUCSORGFRONT
 10
0.0
 20
0.0
 30
0.0
  9
$PUCSORGBACK
 10
0.0
 20
0.0
 30
0.0
  9
$USERI1
 70
0
  9
$USERI2
 70
0
  9
$USERI3
 70
0
  9
$USERI4
 70
0
  9
$USERI5
 70
0
  9
$USERR1
 40
0.0
  9
$USERR2
 40
0.0
  9
$USERR3
 40
0.0
  9
$USERR4
 40
0.0
  9
$USERR5
 40
0.0
  9
$WORLDVIEW
 70
1
  9
$SHADEDGE
 70
3
  9
$SHADEDIF
 70
70
  9
$TILEMODE
 70
1
  9
$MAXACTVP
 70
64
  9
$PINSBASE
 10
0.0
 20
0.0
 30
0.0
  9
$PLIMCHECK
 70
0
  9
$PEXTMIN
 10
1e+20
 20
1e+20
 30
1e+20
  9
$PEXTMAX
 10
-1e+20
 20
-1e+20
 30
-1e+20
  9
$PLIMMIN
 10
0.0
 20
0.0
  9
$PLIMMAX
 10
420.0
 20
297.0
  9
$UNITMODE
 70
0
  9
$VISRETAIN
 70
1
  9
$PLINEGEN
 70
0
  9
$PSLTSCALE
 70
1
  9
$TREEDEPTH
 70
3020
  9
$CMLSTYLE
  2
Standard
  9
$CMLJUST
 70
0
  9
$CMLSCALE
 40
20.0
  9
$PROXYGRAPHICS
 70
1
  9
$MEASUREMENT
 70
1
  9
$CELWEIGHT
370
-1
  9
$ENDCAPS
280
0
  9
$JOINSTYLE
280
0
  9
$LWDISPLAY
290
0
  9
$INSUNITS
 70
6
  9
$HYPERLINKBASE
  1

  9
$STYLESHEET
  1

  9
$XEDIT
290
1
  9
$CEPSNTYPE
380
0
  9
$PSTYLEMODE
290
1
  9
$FINGERPRINTGUID
  2
{0C74EE0C-1C8C-474D-9479-738FA61FC62C}
  9
$VERSIONGUID
  2
{0A941634-8A4D-4533-9D4B-9C74B6C0AD37}
  9
$EXTNAMES
290
1
  9
$PSVPSCALE
 40
0.0
  9
$OLESTARTUP
290
0
  0
ENDSEC
  0
SECTION
  2
CLASSES
  0
CLASS
  1
ACDBDICTIONARYWDFLT
  2
AcDbDictionaryWithDefault
  3
ObjectDBX Classes
 90
0
280
0
281
0
  0
CLASS
  1
SUN
  2
AcDbSun
  3
SCENEOE
 90
1153
280
0
281
0
  0
CLASS
  1
VISUALSTYLE
  2
AcDbVisualStyle
  3
ObjectDBX Classes
 90
4095
280
0
281
0
  0
CLASS
  1
MATERIAL
  2
AcDbMaterial
  3
ObjectDBX Classes
 90
1153
280
0
281
0
  0
CLASS
  1
SCALE
  2
AcDbScale
  3
ObjectDBX Classes
 90
1153
280
0
281
0
  0
CLASS
  1
TABLESTYLE
  2
AcDbTableStyle
  3
ObjectDBX Classes
 90
4095
280
0
281
0
  0
CLASS
  1
MLEADERSTYLE
  2
AcDbMLeaderStyle
  3
ACDB_MLEADERSTYLE_CLASS
 90
4095
280
0
281
0
  0
CLASS
  1
DICTIONARYVAR
  2
AcDbDictionaryVar
  3
ObjectDBX Classes
 90
0
280
0
281
0
  0
CLASS
  1
CELLSTYLEMAP
  2
AcDbCellStyleMap
  3
ObjectDBX Classes
 90
1152
280
0
281
0
  0
CLASS
  1
MENTALRAYRENDERSETTINGS
  2
AcDbMentalRayRenderSettings
  3
SCENEOE
 90
1024
280
0
281
0
  0
CLASS
  1
ACDBDETAILVIEWSTYLE
  2
AcDbDetailViewStyle
  3
ObjectDBX Classes
 90
1025
280
0
281
0
  0
CLASS
  1
ACDBSECTIONVIEWSTYLE
  2
AcDbSectionViewStyle
  3
ObjectDBX Classes
 90
1025
280
0
281
0
  0
CLASS
  1
RASTERVARIABLES
  2
AcDbRasterVariables
  3
ISM
 90
0
280
0
281
0
  0
CLASS
  1
ACDBPLACEHOLDER
  2
AcDbPlaceHolder
  3
ObjectDBX Classes
 90
0
280
0
281
0
  0
CLASS
  1
LAYOUT
  2
AcDbLayout
  3
ObjectDBX Classes
 90
0
280
0
281
0
  0
ENDSEC
  0
SECTION
  2
TABLES
  0
TABLE
  2
VPORT
  5
8
330
0
100
AcDbSymbolTable
 70
1
  0
VPORT
  5
23
330
8
100
AcDbSymbolTableRecord
100
AcDbViewportTableRecord
  2
*Active
 70
0
 10
0.0
 20
0.0
 11
1.0
 21
1.0
 12
0.0
 22
0.0
 13
0.0
 23
0.0
 14
0.5
 24
0.5
 15
0.5
 25
0.5
 16
0.0
 26
0.0
 36
1.0
 17
0.0
 27
0.0
 37
0.0
 40
1000.0
 41
1.34
 42
50.0
 43
0.0
 44
0.0
 50
0.0
 51
0.0
 71
0
 72
1000
 73
1
 74
3
 75
0
 76
0
 77
0
 78
0
281
0
 65
0
146
0.0
  0
ENDTAB
  0
TABLE
  2
LTYPE
  5
2
330
0
100
AcDbSymbolTable
 70
3
  0
LTYPE
  5
24
330
2
100
AcDbSymbolTableRecord
100
AcDbLinetypeTableRecord
  2
ByBlock
 70
0
  3

 72
65
 73
0
 40
0.0
  0
LTYPE
  5
25
330
2
100
AcDbSymbolTableRecord
100
AcDbLinetypeTableRecord
  2
ByLayer
 70
0
  3

 72
65
 73
0
 40
0.0
  0
LTYPE
  5
26
330
2
100
AcDbSymbolTableRecord
100
AcDbLinetypeTableRecord
  2
Continuous
 70
0
  3

 72
65
 73
0
 40
0.0
  0
ENDTAB
  0
TABLE
  2
LAYER
  5
1
330
0
100
AcDbSymbolTable
 70
25
  0
LAYER
  5
27
330
1
100
AcDbSymbolTableRecord
100
AcDbLayerTableRecord
  2
0
 70
0
 62
7
  6
Continuous
370
-3
390
13
  0
LAYER
  5
28
330
1
100
AcDbSymbolTableRecord
100
AcDbLayerTableRecord
  2
Defpoints
 70
0
 62
7
  6
Continuous
290
0
370
-3
390
13
  0
LAYER
  5
2F
330
1
100
AcDbSymbolTableRecord
100
AcDbLayerTableRecord
  2
Painéis
 70
0
 62
200
  6
Continuous
370
-3
390
13
  0
LAYER
  5
30
330
1
100
AcDbSymbolTableRecord
100
AcDbLayerTableRecord
  2
CONCRETO
 70
0
 62
251
  6
Continuous
370
-3
390
13
  0
LAYER
  5
31
330
1
100
AcDbSymbolTableRecord
100
AcDbLayerTableRecord
  2
SARR_3.5x7
 70
0
 62
81
  6
Continuous
370
-3
390
13
  0
LAYER
  5
32
330
1
100
AcDbSymbolTableRecord
100
AcDbLayerTableRecord
  2
Madeira
 70
0
 62
126
  6
Continuous
370
-3
390
13
  0
LAYER
  5
33
330
1
100
AcDbSymbolTableRecord
100
AcDbLayerTableRecord
  2
Texto Seção
 70
0
 62
7
  6
Continuous
370
-3
390
13
  0
LAYER
  5
34
330
1
100
AcDbSymbolTableRecord
100
AcDbLayerTableRecord
  2
COTA
 70
0
 62
4
  6
Continuous
370
-3
390
13
  0
LAYER
  5
35
330
1
100
AcDbSymbolTableRecord
100
AcDbLayerTableRecord
  2
Cota Seção (2x)
 70
0
 62
4
  6
Continuous
370
-3
390
13
  0
LAYER
  5
36
330
1
100
AcDbSymbolTableRecord
100
AcDbLayerTableRecord
  2
NOMENCLATURA
 70
0
 62
7
  6
Continuous
370
-3
390
13
  0
LAYER
  5
37
330
1
100
AcDbSymbolTableRecord
100
AcDbLayerTableRecord
  2
Hachura
 70
0
 62
253
  6
Continuous
370
-3
390
13
  0
LAYER
  5
38
330
1
100
AcDbSymbolTableRecord
100
AcDbLayerTableRecord
  2
REAPROVEITAMENTO
 70
0
 62
251
  6
Continuous
370
-3
390
13
  0
LAYER
  5
39
330
1
100
AcDbSymbolTableRecord
100
AcDbLayerTableRecord
  2
SARR_2.2x7
 70
0
 62
40
  6
Continuous
370
-3
390
13
  0
LAYER
  5
3A
330
1
100
AcDbSymbolTableRecord
100
AcDbLayerTableRecord
  2
SARR_2.2x10
 70
0
 62
40
  6
Continuous
370
-3
390
13
  0
LAYER
  5
3B
330
1
100
AcDbSymbolTableRecord
100
AcDbLayerTableRecord
  2
SARR_EDITAR
 70
0
 62
141
  6
Continuous
370
-3
390
13
  0
LAYER
  5
3C
330
1
100
AcDbSymbolTableRecord
100
AcDbLayerTableRecord
  2
Sarrafo de Pressão
 70
0
 62
40
  6
Continuous
370
-3
390
13
  0
LAYER
  5
3D
330
1
100
AcDbSymbolTableRecord
100
AcDbLayerTableRecord
  2
Escoras
 70
0
 62
2
  6
Continuous
370
-3
390
13
  0
LAYER
  5
3E
330
1
100
AcDbSymbolTableRecord
100
AcDbLayerTableRecord
  2
Demarcação 1
 70
0
 62
251
  6
Continuous
370
-3
390
13
  0
LAYER
  5
3F
330
1
100
AcDbSymbolTableRecord
100
AcDbLayerTableRecord
  2
Demarcação 2
 70
0
 62
254
  6
Continuous
370
-3
390
13
  0
LAYER
  5
40
330
1
100
AcDbSymbolTableRecord
100
AcDbLayerTableRecord
  2
Forcador
 70
0
 62
251
  6
Continuous
370
-3
390
13
  0
LAYER
  5
41
330
1
100
AcDbSymbolTableRecord
100
AcDbLayerTableRecord
  2
GARFOS
 70
0
 62
7
  6
Continuous
370
-3
390
13
  0
LAYER
  5
42
330
1
100
AcDbSymbolTableRecord
100
AcDbLayerTableRecord
  2
BARRA DE ANCORAGEM
 70
0
 62
7
  6
Continuous
370
-3
390
13
  0
LAYER
  5
43
330
1
100
AcDbSymbolTableRecord
100
AcDbLayerTableRecord
  2
Perfil Metálico
 70
0
 62
251
  6
Continuous
370
-3
390
13
  0
LAYER
  5
44
330
1
100
AcDbSymbolTableRecord
100
AcDbLayerTableRecord
  2
PONTALETE
 70
0
 62
2
  6
Continuous
370
-3
390
13
  0
LAYER
  5
45
330
1
100
AcDbSymbolTableRecord
100
AcDbLayerTableRecord
  2
MEIO_PONT
 70
0
 62
2
  6
Continuous
370
-3
390
13
  0
ENDTAB
  0
TABLE
  2
STYLE
  5
5
330
0
100
AcDbSymbolTable
 70
1
  0
STYLE
  5
29
330
5
100
AcDbSymbolTableRecord
100
AcDbTextStyleTableRecord
  2
Standard
 70
0
 40
0.0
 41
1.0
 50
0.0
 71
0
 42
2.5
  3
txt
  4

  0
ENDTAB
  0
TABLE
  2
VIEW
  5
7
330
0
100
AcDbSymbolTable
 70
0
  0
ENDTAB
  0
TABLE
  2
UCS
  5
6
330
0
100
AcDbSymbolTable
 70
0
  0
ENDTAB
  0
TABLE
  2
APPID
  5
3
330
0
100
AcDbSymbolTable
 70
3
  0
APPID
  5
2A
330
3
100
AcDbSymbolTableRecord
100
AcDbRegAppTableRecord
  2
ACAD
 70
0
  0
APPID
  5
1B0
330
3
100
AcDbSymbolTableRecord
100
AcDbRegAppTableRecord
  2
HATCHBACKGROUNDCOLOR
 70
0
  0
APPID
  5
1B1
330
3
100
AcDbSymbolTableRecord
100
AcDbRegAppTableRecord
  2
EZDXF
 70
0
  0
ENDTAB
  0
TABLE
  2
DIMSTYLE
  5
4
330
0
100
AcDbSymbolTable
 70
1
100
AcDbDimStyleTable
  0
DIMSTYLE
105
2B
330
4
100
AcDbSymbolTableRecord
100
AcDbDimStyleTableRecord
  2
Standard
 70
0
  3

  4

 40
1.0
 41
2.5
 42
0.625
 43
3.75
 44
1.25
 45
0.0
 46
0.0
 47
0.0
 48
0.0
140
2.5
141
2.5
142
0.0
143
0.03937007874
144
1.0
145
0.0
146
1.0
147
0.625
148
0.0
 71
0
 72
0
 73
0
 74
0
 75
0
 76
0
 77
1
 78
8
 79
3
170
0
171
3
172
1
173
0
174
0
175
0
176
0
177
0
178
0
179
2
271
2
272
2
273
2
274
3
275
0
276
0
277
2
278
44
279
0
280
0
281
0
282
0
283
0
284
8
285
0
286
0
288
0
289
3
371
-2
372
-2
  0
ENDTAB
  0
TABLE
  2
BLOCK_RECORD
  5
9
330
0
100
AcDbSymbolTable
 70
2
  0
BLOCK_RECORD
  5
17
330
9
100
AcDbSymbolTableRecord
100
AcDbBlockTableRecord
  2
*Model_Space
340
1A
  0
BLOCK_RECORD
  5
1B
330
9
100
AcDbSymbolTableRecord
100
AcDbBlockTableRecord
  2
*Paper_Space
340
1E
  0
ENDTAB
  0
ENDSEC
  0
SECTION
  2
BLOCKS
  0
BLOCK
  5
18
330
17
100
AcDbEntity
  8
0
100
AcDbBlockBegin
  2
*Model_Space
 70
0
 10
0.0
 20
0.0
 30
0.0
  3
*Model_Space
  1

  0
ENDBLK
  5
19
330
17
100
AcDbEntity
  8
0
100
AcDbBlockEnd
  0
BLOCK
  5
1C
330
1B
100
AcDbEntity
  8
0
100
AcDbBlockBegin
  2
*Paper_Space
 70
0
 10
0.0
 20
0.0
 30
0.0
  3
*Paper_Space
  1

  0
ENDBLK
  5
1D
330
1B
100
AcDbEntity
  8
0
100
AcDbBlockEnd
  0
ENDSEC
  0
SECTION
  2
ENTITIES
  0
LINE
  5
46
330
17
100
AcDbEntity
  8
Painéis
100
AcDbLine
 10
3811.6
 20
-76.1
 30
0.0
 11
4239.6
 21
-76.1
 31
0.0
  0
LINE
  5
47
330
17
100
AcDbEntity
  8
Painéis
100
AcDbLine
 10
3811.6
 20
-51.1
 30
0.0
 11
4239.6
 21
-51.1
 31
0.0
  0
LINE
  5
48
330
17
100
AcDbEntity
  8
Painéis
100
AcDbLine
 10
3454.0
 20
89.5
 30
0.0
 11
3482.0
 21
89.5
 31
0.0
  0
LINE
  5
49
330
17
100
AcDbEntity
  8
Painéis
100
AcDbLine
 10
3394.0
 20
119.5
 30
0.0
 11
3454.0
 21
119.5
 31
0.0
  0
LINE
  5
4A
330
17
100
AcDbEntity
  8
Painéis
100
AcDbLine
 10
3482.0
 20
119.5
 30
0.0
 11
3542.0
 21
119.5
 31
0.0
  0
LINE
  5
4B
330
17
100
AcDbEntity
  8
Painéis
100
AcDbLine
 10
3793.6
 20
138.3
 30
0.0
 11
4216.6
 21
138.3
 31
0.0
  0
LINE
  5
4C
330
17
100
AcDbEntity
  8
Painéis
100
AcDbLine
 10
3793.6
 20
155.3
 30
0.0
 11
4216.6
 21
155.3
 31
0.0
  0
LINE
  5
4D
330
17
100
AcDbEntity
  8
Painéis
100
AcDbLine
 10
3793.6
 20
169.3
 30
0.0
 11
4216.6
 21
169.3
 31
0.0
  0
LINE
  5
4E
330
17
100
AcDbEntity
  8
Painéis
100
AcDbLine
 10
3793.6
 20
194.3
 30
0.0
 11
4216.6
 21
194.3
 31
0.0
  0
LINE
  5
4F
330
17
100
AcDbEntity
  8
Painéis
100
AcDbLine
 10
3793.6
 20
138.3
 30
0.0
 11
3793.6
 21
155.3
 31
0.0
  0
LINE
  5
50
330
17
100
AcDbEntity
  8
Painéis
100
AcDbLine
 10
3793.6
 20
169.3
 30
0.0
 11
3793.6
 21
194.3
 31
0.0
  0
LINE
  5
51
330
17
100
AcDbEntity
  8
Painéis
100
AcDbLine
 10
3811.6
 20
-76.1
 30
0.0
 11
3811.6
 21
-51.1
 31
0.0
  0
LINE
  5
52
330
17
100
AcDbEntity
  8
Painéis
100
AcDbLine
 10
4037.6
 20
138.3
 30
0.0
 11
4037.6
 21
155.3
 31
0.0
  0
LINE
  5
53
330
17
100
AcDbEntity
  8
Painéis
100
AcDbLine
 10
4037.6
 20
169.3
 30
0.0
 11
4037.6
 21
194.3
 31
0.0
  0
LINE
  5
54
330
17
100
AcDbEntity
  8
Painéis
100
AcDbLine
 10
4055.6
 20
-76.1
 30
0.0
 11
4055.6
 21
-51.1
 31
0.0
  0
LINE
  5
55
330
17
100
AcDbEntity
  8
Painéis
100
AcDbLine
 10
4216.6
 20
138.3
 30
0.0
 11
4216.6
 21
155.3
 31
0.0
  0
LINE
  5
56
330
17
100
AcDbEntity
  8
Painéis
100
AcDbLine
 10
4216.6
 20
169.3
 30
0.0
 11
4216.6
 21
194.3
 31
0.0
  0
LINE
  5
57
330
17
100
AcDbEntity
  8
Painéis
100
AcDbLine
 10
4239.6
 20
-76.1
 30
0.0
 11
4239.6
 21
-51.1
 31
0.0
  0
LWPOLYLINE
  5
58
330
17
100
AcDbEntity
  8
Painéis
100
AcDbPolyline
 90
4
 70
1
 10
3542.0
 20
115.5
 10
3542.0
 20
119.5
 10
3482.0
 20
119.5
 10
3482.0
 20
115.5
  0
LWPOLYLINE
  5
59
330
17
100
AcDbEntity
  8
Madeira
100
AcDbPolyline
 90
4
 70
1
 10
3510.4
 20
81.5
 10
3510.4
 20
85.9
 10
3490.4
 20
85.9
 10
3490.4
 20
81.5
  0
TEXT
  5
5A
330
17
100
AcDbEntity
  8
Texto Seção
100
AcDbText
 10
3475.2
 20
198.5
 30
0.0
 40
8.0
  1
V101A-V115A
100
AcDbText
  0
TEXT
  5
5B
330
17
100
AcDbEntity
  8
Texto Seção
100
AcDbText
 10
3475.2
 20
183.5
 30
0.0
 40
6.0
  1
(14x52)
100
AcDbText
  0
TEXT
  5
5C
330
17
100
AcDbEntity
  8
NOMENCLATURA
100
AcDbText
 10
3923.1
 20
179.3
 30
0.0
 40
5.0
  1
8 1/2pont
100
AcDbText
  0
TEXT
  5
5D
330
17
100
AcDbEntity
  8
NOMENCLATURA
100
AcDbText
 10
4134.3
 20
179.3
 30
0.0
 40
5.0
  1
7 1/2pont
100
AcDbText
  0
TEXT
  5
5E
330
17
100
AcDbEntity
  8
NOMENCLATURA
100
AcDbText
 10
3941.1
 20
-66.1
 30
0.0
 40
5.0
  1
8 1/2pont
100
AcDbText
  0
TEXT
  5
5F
330
17
100
AcDbEntity
  8
NOMENCLATURA
100
AcDbText
 10
4139.3
 20
-66.1
 30
0.0
 40
5.0
  1
8 1/2pont
100
AcDbText
  0
HATCH
  5
60
330
17
100
AcDbEntity
  8
COTA
 62
7
100
AcDbHatch
 10
0.0
 20
0.0
 30
0.0
210
0.0
220
0.0
230
1.0
  2
AR-CONC
 70
0
 71
0
 91
1
 92
3
 72
0
 73
1
 93
4
 10
3793.6
 20
169.3
 10
3793.6
 20
155.3
 10
4216.6
 20
155.3
 10
4216.6
 20
169.3
 97
0
 75
1
 76
1
 52
0.0
 41
0.03
 77
0
 78
13
 53
50.0
 43
0.0
 44
0.0
 45
5.4655400699
 46
-0.4781725662
 79
2
 49
0.5715
 49
-6.2865
 53
355.0
 43
0.0
 44
0.0
 45
-1.0573026428
 46
5.7317053572
 79
2
 49
0.4572
 49
-5.0292175251
 53
100.4514447
 43
0.45546021
 44
-0.039847605
 45
4.4082374127
 46
5.2535325574
 79
2
 49
0.485700264
 49
-5.342707338
 53
46.1842
 43
0.0
 44
1.524
 45
8.1323712268
 46
-1.261269838
 79
2
 49
0.85725
 49
-9.42975
 53
96.63555761
 43
0.677697
 44
1.418895
 45
7.1221240215
 46
7.4227837379
 79
2
 49
0.7285506942
 49
-8.0140682448
 53
351.18415117
 43
0.0
 44
1.524
 45
7.1221240219
 46
7.4227837376
 79
2
 49
0.6857990121
 49
-7.5437919576
 53
21.0
 43
0.762
 44
1.143
 45
4.5484317381
 46
-3.0679559456
 79
2
 49
0.5715
 49
-6.2865
 53
326.0
 43
0.762
 44
1.143
 45
1.8540608504
 46
5.5256389837
 79
2
 49
0.4572
 49
-5.0292
 53
71.451445
 43
1.141035978
 44
0.887337003
 45
6.4024925784
 46
2.4576830666
 79
2
 49
0.485700264
 49
-5.342698128
 53
37.5
 43
0.0
 44
0.0
 45
0.0926580975
 46
2.5366511662
 79
6
 49
0.0
 49
-4.96824
 49
0.0
 49
-5.1054
 49
0.0
 49
-5.04825
 53
7.5
 43
0.0
 44
0.0
 45
2.0045898753
 46
3.0054172445
 79
6
 49
0.0
 49
-2.91084
 49
0.0
 49
-4.85394
 49
0.0
 49
-1.92405
 53
-32.5
 43
-1.69926
 44
0.0
 45
4.067717855
 46
-0.1718623198
 79
6
 49
0.0
 49
-1.905
 49
0.0
 49
-5.9436
 49
0.0
 49
-7.8867
 53
-42.5
 43
-2.46126
 44
0.0
 45
4.4438754416
 46
0.762794731
 79
6
 49
0.0
 49
-2.4765
 49
0.0
 49
-3.94716
 49
0.0
 49
-5.6007
 98
0
  0
HATCH
  5
61
330
17
100
AcDbEntity
  8
Hachura
 62
7
100
AcDbHatch
 10
0.0
 20
0.0
 30
0.0
210
0.0
220
0.0
230
1.0
  2
ANSI31
 70
0
 71
0
 91
1
 92
3
 72
0
 73
1
 93
8
 10
3510.4
 20
81.5
 10
3510.4
 20
85.9
 10
3510.4
 20
85.9
 10
3490.4
 20
85.9
 10
3490.4
 20
85.9
 10
3490.4
 20
81.5
 10
3490.4
 20
81.5
 10
3510.4
 20
81.5
 97
0
 75
1
 76
1
 52
0.0
 41
0.5
 77
0
 78
1
 53
45.0
 43
0.0
 44
0.0
 45
-1.1225320152
 46
1.1225320152
 79
0
 98
0
  0
HATCH
  5
62
330
17
100
AcDbEntity
  8
Hachura
 62
8
100
AcDbHatch
 10
0.0
 20
0.0
 30
0.0
210
0.0
220
0.0
230
1.0
  2
SOLID
 70
1
 71
0
 91
1
 92
3
 72
0
 73
1
 93
8
 10
3542.0
 20
115.5
 10
3542.0
 20
119.5
 10
3542.0
 20
119.5
 10
3482.0
 20
119.5
 10
3482.0
 20
119.5
 10
3482.0
 20
115.5
 10
3482.0
 20
115.5
 10
3542.0
 20
115.5
 97
0
 75
1
 76
1
 98
0
  0
HATCH
  5
63
330
17
100
AcDbEntity
  8
COTA
 62
7
100
AcDbHatch
 10
0.0
 20
0.0
 30
0.0
210
0.0
220
0.0
230
1.0
  2
AR-CONC
 70
0
 71
0
 91
1
 92
3
 72
0
 73
1
 93
8
 10
4239.6
 20
-76.1
 10
3811.6
 20
-76.1
 10
3811.6
 20
-51.1
 10
3793.6
 20
-51.1
 10
3793.6
 20
-90.1
 10
4257.6
 20
-90.1
 10
4257.6
 20
-51.1
 10
4239.6
 20
-51.1
 97
0
 75
1
 76
1
 52
0.0
 41
0.03
 77
0
 78
13
 53
50.0
 43
0.0
 44
0.0
 45
5.4655400699
 46
-0.4781725662
 79
2
 49
0.5715
 49
-6.2865
 53
355.0
 43
0.0
 44
0.0
 45
-1.0573026428
 46
5.7317053572
 79
2
 49
0.4572
 49
-5.0292175251
 53
100.4514447
 43
0.45546021
 44
-0.039847605
 45
4.4082374127
 46
5.2535325574
 79
2
 49
0.485700264
 49
-5.342707338
 53
46.1842
 43
0.0
 44
1.524
 45
8.1323712268
 46
-1.261269838
 79
2
 49
0.85725
 49
-9.42975
 53
96.63555761
 43
0.677697
 44
1.418895
 45
7.1221240215
 46
7.4227837379
 79
2
 49
0.7285506942
 49
-8.0140682448
 53
351.18415117
 43
0.0
 44
1.524
 45
7.1221240219
 46
7.4227837376
 79
2
 49
0.6857990121
 49
-7.5437919576
 53
21.0
 43
0.762
 44
1.143
 45
4.5484317381
 46
-3.0679559456
 79
2
 49
0.5715
 49
-6.2865
 53
326.0
 43
0.762
 44
1.143
 45
1.8540608504
 46
5.5256389837
 79
2
 49
0.4572
 49
-5.0292
 53
71.451445
 43
1.141035978
 44
0.887337003
 45
6.4024925784
 46
2.4576830666
 79
2
 49
0.485700264
 49
-5.342698128
 53
37.5
 43
0.0
 44
0.0
 45
0.0926580975
 46
2.5366511662
 79
6
 49
0.0
 49
-4.96824
 49
0.0
 49
-5.1054
 49
0.0
 49
-5.04825
 53
7.5
 43
0.0
 44
0.0
 45
2.0045898753
 46
3.0054172445
 79
6
 49
0.0
 49
-2.91084
 49
0.0
 49
-4.85394
 49
0.0
 49
-1.92405
 53
-32.5
 43
-1.69926
 44
0.0
 45
4.067717855
 46
-0.1718623198
 79
6
 49
0.0
 49
-1.905
 49
0.0
 49
-5.9436
 49
0.0
 49
-7.8867
 53
-42.5
 43
-2.46126
 44
0.0
 45
4.4438754416
 46
0.762794731
 79
6
 49
0.0
 49
-2.4765
 49
0.0
 49
-3.94716
 49
0.0
 49
-5.6007
 98
0
  0
LINE
  5
64
330
17
100
AcDbEntity
  8
COTA
100
AcDbLine
 10
229.6
 20
265.1
 30
0.0
 11
294.1
 21
265.1
 31
0.0
  0
LINE
  5
65
330
17
100
AcDbEntity
  8
COTA
100
AcDbLine
 10
229.6
 20
228.7
 30
0.0
 11
229.6
 21
270.1
 31
0.0
  0
LINE
  5
66
330
17
100
AcDbEntity
  8
COTA
100
AcDbLine
 10
294.1
 20
228.3
 30
0.0
 11
294.1
 21
270.1
 31
0.0
  0
TEXT
  5
67
330
17
100
AcDbEntity
  8
COTA
100
AcDbText
 10
261.9
 20
274.2
 30
0.0
 40
4.0
  1
64
100
AcDbText
  0
LINE
  5
68
330
17
100
AcDbEntity
  8
COTA
100
AcDbLine
 10
294.1
 20
265.1
 30
0.0
 11
357.4
 21
265.1
 31
0.0
  0
LINE
  5
69
330
17
100
AcDbEntity
  8
COTA
100
AcDbLine
 10
294.1
 20
228.3
 30
0.0
 11
294.1
 21
270.1
 31
0.0
  0
LINE
  5
6A
330
17
100
AcDbEntity
  8
COTA
100
AcDbLine
 10
357.4
 20
167.9
 30
0.0
 11
357.4
 21
270.1
 31
0.0
  0
TEXT
  5
6B
330
17
100
AcDbEntity
  8
COTA
100
AcDbText
 10
325.7
 20
274.2
 30
0.0
 40
4.0
  1
63
100
AcDbText
  0
LINE
  5
6C
330
17
100
AcDbEntity
  8
COTA
100
AcDbLine
 10
357.4
 20
68.0
 30
0.0
 11
659.8
 21
68.0
 31
0.0
  0
LINE
  5
6D
330
17
100
AcDbEntity
  8
COTA
100
AcDbLine
 10
357.4
 20
167.9
 30
0.0
 11
357.4
 21
63.0
 31
0.0
  0
LINE
  5
6E
330
17
100
AcDbEntity
  8
COTA
100
AcDbLine
 10
659.8
 20
167.9
 30
0.0
 11
659.8
 21
63.0
 31
0.0
  0
TEXT
  5
6F
330
17
100
AcDbEntity
  8
COTA
100
AcDbText
 10
508.6
 20
78.4
 30
0.0
 40
4.0
  1
302
100
AcDbText
  0
LINE
  5
70
330
17
100
AcDbEntity
  8
COTA
100
AcDbLine
 10
4037.6
 20
90.5
 30
0.0
 11
4216.6
 21
90.5
 31
0.0
  0
LINE
  5
71
330
17
100
AcDbEntity
  8
COTA
100
AcDbLine
 10
4037.6
 20
138.3
 30
0.0
 11
4037.6
 21
85.5
 31
0.0
  0
LINE
  5
72
330
17
100
AcDbEntity
  8
COTA
100
AcDbLine
 10
4216.6
 20
138.3
 30
0.0
 11
4216.6
 21
85.5
 31
0.0
  0
TEXT
  5
73
330
17
100
AcDbEntity
  8
COTA
100
AcDbText
 10
4127.1
 20
98.5
 30
0.0
 40
4.0
  1
179
100
AcDbText
  0
LINE
  5
74
330
17
100
AcDbEntity
  8
COTA
100
AcDbLine
 10
3793.6
 20
90.5
 30
0.0
 11
4037.6
 21
90.5
 31
0.0
  0
LINE
  5
75
330
17
100
AcDbEntity
  8
COTA
100
AcDbLine
 10
3793.6
 20
138.3
 30
0.0
 11
3793.6
 21
85.5
 31
0.0
  0
LINE
  5
76
330
17
100
AcDbEntity
  8
COTA
100
AcDbLine
 10
4037.6
 20
138.3
 30
0.0
 11
4037.6
 21
85.5
 31
0.0
  0
TEXT
  5
77
330
17
100
AcDbEntity
  8
COTA
100
AcDbText
 10
3915.6
 20
98.5
 30
0.0
 40
4.0
  1
244
100
AcDbText
  0
LINE
  5
78
330
17
100
AcDbEntity
  8
COTA
100
AcDbLine
 10
3362.5
 20
143.5
 30
0.0
 11
3362.5
 21
193.5
 31
0.0
  0
LINE
  5
79
330
17
100
AcDbEntity
  8
COTA
100
AcDbLine
 10
3436.0
 20
193.5
 30
0.0
 11
3357.5
 21
193.5
 31
0.0
  0
LINE
  5
7A
330
17
100
AcDbEntity
  8
COTA
100
AcDbLine
 10
3394.0
 20
143.5
 30
0.0
 11
3357.5
 21
143.5
 31
0.0
  0
TEXT
  5
7B
330
17
100
AcDbEntity
  8
COTA
100
AcDbText
 10
3357.0
 20
168.5
 30
0.0
 40
4.0
  1
25
100
AcDbText
  0
LINE
  5
7C
330
17
100
AcDbEntity
  8
COTA
100
AcDbLine
 10
3394.0
 20
115.5
 30
0.0
 11
3430.0
 21
115.5
 31
0.0
  0
LINE
  5
7D
330
17
100
AcDbEntity
  8
COTA
100
AcDbLine
 10
3430.0
 20
81.5
 30
0.0
 11
3430.0
 21
120.5
 31
0.0
  0
LINE
  5
7E
330
17
100
AcDbEntity
  8
COTA
100
AcDbLine
 10
3394.0
 20
115.5
 30
0.0
 11
3394.0
 21
120.5
 31
0.0
  0
TEXT
  5
7F
330
17
100
AcDbEntity
  8
COTA
100
AcDbText
 10
3357.0
 20
98.5
 30
0.0
 40
4.0
  1
17
100
AcDbText
  0
LINE
  5
80
330
17
100
AcDbEntity
  8
Cota Seção (2x)
100
AcDbLine
 10
3481.5
 20
89.5
 30
0.0
 11
3481.5
 21
193.5
 31
0.0
  0
LINE
  5
81
330
17
100
AcDbEntity
  8
Cota Seção (2x)
100
AcDbLine
 10
3493.0
 20
89.5
 30
0.0
 11
3476.5
 21
89.5
 31
0.0
  0
LINE
  5
82
330
17
100
AcDbEntity
  8
Cota Seção (2x)
100
AcDbLine
 10
3493.0
 20
193.5
 30
0.0
 11
3476.5
 21
193.5
 31
0.0
  0
TEXT
  5
83
330
17
100
AcDbEntity
  8
Cota Seção (2x)
100
AcDbText
 10
3481.5
 20
133.5
 30
0.0
 40
4.0
  1
52
100
AcDbText
  0
LINE
  5
84
330
17
100
AcDbEntity
  8
Cota Seção (2x)
100
AcDbLine
 10
3454.0
 20
97.5
 30
0.0
 11
3482.0
 21
97.5
 31
0.0
  0
LINE
  5
85
330
17
100
AcDbEntity
  8
Cota Seção (2x)
100
AcDbLine
 10
3454.0
 20
81.5
 30
0.0
 11
3454.0
 21
102.5
 31
0.0
  0
LINE
  5
86
330
17
100
AcDbEntity
  8
Cota Seção (2x)
100
AcDbLine
 10
3482.0
 20
81.5
 30
0.0
 11
3482.0
 21
102.5
 31
0.0
  0
TEXT
  5
87
330
17
100
AcDbEntity
  8
Cota Seção (2x)
100
AcDbText
 10
3468.3
 20
97.5
 30
0.0
 40
4.0
  1
14
100
AcDbText
  0
LINE
  5
88
330
17
100
AcDbEntity
  8
COTA
100
AcDbLine
 10
3362.5
 20
119.5
 30
0.0
 11
3362.5
 21
143.5
 31
0.0
  0
LINE
  5
89
330
17
100
AcDbEntity
  8
COTA
100
AcDbLine
 10
3394.0
 20
119.5
 30
0.0
 11
3357.5
 21
119.5
 31
0.0
  0
LINE
  5
8A
330
17
100
AcDbEntity
  8
COTA
100
AcDbLine
 10
3394.0
 20
143.5
 30
0.0
 11
3357.5
 21
143.5
 31
0.0
  0
TEXT
  5
8B
330
17
100
AcDbEntity
  8
COTA
100
AcDbText
 10
3357.0
 20
131.5
 30
0.0
 40
4.0
  1
12
100
AcDbText
  0
LINE
  5
8C
330
17
100
AcDbEntity
  8
COTA
100
AcDbLine
 10
3771.2
 20
138.3
 30
0.0
 11
3771.2
 21
155.3
 31
0.0
  0
LINE
  5
8D
330
17
100
AcDbEntity
  8
COTA
100
AcDbLine
 10
3793.6
 20
155.3
 30
0.0
 11
3766.2
 21
155.3
 31
0.0
  0
LINE
  5
8E
330
17
100
AcDbEntity
  8
COTA
100
AcDbLine
 10
3793.6
 20
138.3
 30
0.0
 11
3766.2
 21
138.3
 31
0.0
  0
TEXT
  5
8F
330
17
100
AcDbEntity
  8
COTA
100
AcDbText
 10
3771.2
 20
146.8
 30
0.0
 40
4.0
  1
17
100
AcDbText
  0
LINE
  5
90
330
17
100
AcDbEntity
  8
COTA
100
AcDbLine
 10
3771.2
 20
155.3
 30
0.0
 11
3771.2
 21
169.3
 31
0.0
  0
LINE
  5
91
330
17
100
AcDbEntity
  8
COTA
100
AcDbLine
 10
3793.6
 20
155.3
 30
0.0
 11
3766.2
 21
155.3
 31
0.0
  0
LINE
  5
92
330
17
100
AcDbEntity
  8
COTA
100
AcDbLine
 10
3793.6
 20
169.3
 30
0.0
 11
3766.2
 21
169.3
 31
0.0
  0
TEXT
  5
93
330
17
100
AcDbEntity
  8
COTA
100
AcDbText
 10
3771.2
 20
162.3
 30
0.0
 40
4.0
  1
14
100
AcDbText
  0
LINE
  5
94
330
17
100
AcDbEntity
  8
COTA
100
AcDbLine
 10
3771.2
 20
169.3
 30
0.0
 11
3771.2
 21
194.3
 31
0.0
  0
LINE
  5
95
330
17
100
AcDbEntity
  8
COTA
100
AcDbLine
 10
3793.6
 20
169.3
 30
0.0
 11
3766.2
 21
169.3
 31
0.0
  0
LINE
  5
96
330
17
100
AcDbEntity
  8
COTA
100
AcDbLine
 10
3793.6
 20
194.3
 30
0.0
 11
3766.2
 21
194.3
 31
0.0
  0
TEXT
  5
97
330
17
100
AcDbEntity
  8
COTA
100
AcDbText
 10
3763.2
 20
181.8
 30
0.0
 40
4.0
  1
25
100
AcDbText
  0
LINE
  5
98
330
17
100
AcDbEntity
  8
COTA
100
AcDbLine
 10
3744.4
 20
138.3
 30
0.0
 11
3744.4
 21
194.3
 31
0.0
  0
LINE
  5
99
330
17
100
AcDbEntity
  8
COTA
100
AcDbLine
 10
3793.6
 20
138.3
 30
0.0
 11
3739.4
 21
138.3
 31
0.0
  0
LINE
  5
9A
330
17
100
AcDbEntity
  8
COTA
100
AcDbLine
 10
3793.6
 20
194.3
 30
0.0
 11
3739.4
 21
194.3
 31
0.0
  0
TEXT
  5
9B
330
17
100
AcDbEntity
  8
COTA
100
AcDbText
 10
3736.4
 20
166.3
 30
0.0
 40
4.0
  1
56
100
AcDbText
  0
LINE
  5
9C
330
17
100
AcDbEntity
  8
COTA
100
AcDbLine
 10
3567.4
 20
143.5
 30
0.0
 11
3567.4
 21
193.5
 31
0.0
  0
LINE
  5
9D
330
17
100
AcDbEntity
  8
COTA
100
AcDbLine
 10
3500.0
 20
193.5
 30
0.0
 11
3572.4
 21
193.5
 31
0.0
  0
LINE
  5
9E
330
17
100
AcDbEntity
  8
COTA
100
AcDbLine
 10
3542.0
 20
143.5
 30
0.0
 11
3572.4
 21
143.5
 31
0.0
  0
TEXT
  5
9F
330
17
100
AcDbEntity
  8
COTA
100
AcDbText
 10
3561.9
 20
168.5
 30
0.0
 40
4.0
  1
25
100
AcDbText
  0
LINE
  5
A0
330
17
100
AcDbEntity
  8
COTA
100
AcDbLine
 10
3506.0
 20
115.5
 30
0.0
 11
3542.0
 21
115.5
 31
0.0
  0
LINE
  5
A1
330
17
100
AcDbEntity
  8
COTA
100
AcDbLine
 10
3506.0
 20
81.5
 30
0.0
 11
3506.0
 21
120.5
 31
0.0
  0
LINE
  5
A2
330
17
100
AcDbEntity
  8
COTA
100
AcDbLine
 10
3542.0
 20
115.5
 30
0.0
 11
3542.0
 21
120.5
 31
0.0
  0
TEXT
  5
A3
330
17
100
AcDbEntity
  8
COTA
100
AcDbText
 10
3561.9
 20
98.5
 30
0.0
 40
4.0
  1
17
100
AcDbText
  0
LINE
  5
A4
330
17
100
AcDbEntity
  8
COTA
100
AcDbLine
 10
3567.4
 20
119.5
 30
0.0
 11
3567.4
 21
143.5
 31
0.0
  0
LINE
  5
A5
330
17
100
AcDbEntity
  8
COTA
100
AcDbLine
 10
3542.0
 20
119.5
 30
0.0
 11
3572.4
 21
119.5
 31
0.0
  0
LINE
  5
A6
330
17
100
AcDbEntity
  8
COTA
100
AcDbLine
 10
3542.0
 20
143.5
 30
0.0
 11
3572.4
 21
143.5
 31
0.0
  0
TEXT
  5
A7
330
17
100
AcDbEntity
  8
COTA
100
AcDbText
 10
3561.9
 20
131.5
 30
0.0
 40
4.0
  1
12
100
AcDbText
  0
LINE
  5
A8
330
17
100
AcDbEntity
  8
COTA
100
AcDbLine
 10
3793.6
 20
65.3
 30
0.0
 11
4216.6
 21
65.3
 31
0.0
  0
LINE
  5
A9
330
17
100
AcDbEntity
  8
COTA
100
AcDbLine
 10
3793.6
 20
138.3
 30
0.0
 11
3793.6
 21
60.3
 31
0.0
  0
LINE
  5
AA
330
17
100
AcDbEntity
  8
COTA
100
AcDbLine
 10
4216.6
 20
138.3
 30
0.0
 11
4216.6
 21
60.3
 31
0.0
  0
TEXT
  5
AB
330
17
100
AcDbEntity
  8
COTA
100
AcDbText
 10
4005.1
 20
73.3
 30
0.0
 40
4.0
  1
423
100
AcDbText
  0
LINE
  5
AC
330
17
100
AcDbEntity
  8
COTA
100
AcDbLine
 10
4037.6
 20
-154.9
 30
0.0
 11
4257.6
 21
-154.9
 31
0.0
  0
LINE
  5
AD
330
17
100
AcDbEntity
  8
COTA
100
AcDbLine
 10
4037.6
 20
-107.1
 30
0.0
 11
4037.6
 21
-159.9
 31
0.0
  0
LINE
  5
AE
330
17
100
AcDbEntity
  8
COTA
100
AcDbLine
 10
4257.6
 20
-107.1
 30
0.0
 11
4257.6
 21
-159.9
 31
0.0
  0
TEXT
  5
AF
330
17
100
AcDbEntity
  8
COTA
100
AcDbText
 10
4147.6
 20
-146.9
 30
0.0
 40
4.0
  1
220
100
AcDbText
  0
LINE
  5
B0
330
17
100
AcDbEntity
  8
COTA
100
AcDbLine
 10
3793.6
 20
-154.9
 30
0.0
 11
4037.6
 21
-154.9
 31
0.0
  0
LINE
  5
B1
330
17
100
AcDbEntity
  8
COTA
100
AcDbLine
 10
3793.6
 20
-107.1
 30
0.0
 11
3793.6
 21
-159.9
 31
0.0
  0
LINE
  5
B2
330
17
100
AcDbEntity
  8
COTA
100
AcDbLine
 10
4037.6
 20
-107.1
 30
0.0
 11
4037.6
 21
-159.9
 31
0.0
  0
TEXT
  5
B3
330
17
100
AcDbEntity
  8
COTA
100
AcDbText
 10
3915.6
 20
-146.9
 30
0.0
 40
4.0
  1
244
100
AcDbText
  0
LINE
  5
B4
330
17
100
AcDbEntity
  8
COTA
100
AcDbLine
 10
3771.2
 20
-107.1
 30
0.0
 11
3771.2
 21
-90.1
 31
0.0
  0
LINE
  5
B5
330
17
100
AcDbEntity
  8
COTA
100
AcDbLine
 10
3793.6
 20
-90.1
 30
0.0
 11
3766.2
 21
-90.1
 31
0.0
  0
LINE
  5
B6
330
17
100
AcDbEntity
  8
COTA
100
AcDbLine
 10
3793.6
 20
-107.1
 30
0.0
 11
3766.2
 21
-107.1
 31
0.0
  0
TEXT
  5
B7
330
17
100
AcDbEntity
  8
COTA
100
AcDbText
 10
3771.2
 20
-98.6
 30
0.0
 40
4.0
  1
17
100
AcDbText
  0
LINE
  5
B8
330
17
100
AcDbEntity
  8
COTA
100
AcDbLine
 10
3793.6
 20
-76.1
 30
0.0
 11
3811.6
 21
-76.1
 31
0.0
  0
LINE
  5
B9
330
17
100
AcDbEntity
  8
COTA
100
AcDbLine
 10
3793.6
 20
-90.1
 30
0.0
 11
3793.6
 21
-71.1
 31
0.0
  0
LINE
  5
BA
330
17
100
AcDbEntity
  8
COTA
100
AcDbLine
 10
3811.6
 20
-76.1
 30
0.0
 11
3811.6
 21
-71.1
 31
0.0
  0
TEXT
  5
BB
330
17
100
AcDbEntity
  8
COTA
100
AcDbText
 10
3771.2
 20
-83.1
 30
0.0
 40
4.0
  1
14
100
AcDbText
  0
LINE
  5
BC
330
17
100
AcDbEntity
  8
COTA
100
AcDbLine
 10
3771.2
 20
-76.1
 30
0.0
 11
3771.2
 21
-51.1
 31
0.0
  0
LINE
  5
BD
330
17
100
AcDbEntity
  8
COTA
100
AcDbLine
 10
3811.6
 20
-76.1
 30
0.0
 11
3766.2
 21
-76.1
 31
0.0
  0
LINE
  5
BE
330
17
100
AcDbEntity
  8
COTA
100
AcDbLine
 10
3793.6
 20
-51.1
 30
0.0
 11
3766.2
 21
-51.1
 31
0.0
  0
TEXT
  5
BF
330
17
100
AcDbEntity
  8
COTA
100
AcDbText
 10
3763.2
 20
-63.6
 30
0.0
 40
4.0
  1
25
100
AcDbText
  0
LINE
  5
C0
330
17
100
AcDbEntity
  8
COTA
100
AcDbLine
 10
3744.4
 20
-107.1
 30
0.0
 11
3744.4
 21
-51.1
 31
0.0
  0
LINE
  5
C1
330
17
100
AcDbEntity
  8
COTA
100
AcDbLine
 10
3793.6
 20
-107.1
 30
0.0
 11
3739.4
 21
-107.1
 31
0.0
  0
LINE
  5
C2
330
17
100
AcDbEntity
  8
COTA
100
AcDbLine
 10
3793.6
 20
-51.1
 30
0.0
 11
3739.4
 21
-51.1
 31
0.0
  0
TEXT
  5
C3
330
17
100
AcDbEntity
  8
COTA
100
AcDbText
 10
3736.4
 20
-79.1
 30
0.0
 40
4.0
  1
56
100
AcDbText
  0
LINE
  5
C4
330
17
100
AcDbEntity
  8
COTA
100
AcDbLine
 10
3793.6
 20
-180.0
 30
0.0
 11
4257.6
 21
-180.0
 31
0.0
  0
LINE
  5
C5
330
17
100
AcDbEntity
  8
COTA
100
AcDbLine
 10
3793.6
 20
-107.1
 30
0.0
 11
3793.6
 21
-185.0
 31
0.0
  0
LINE
  5
C6
330
17
100
AcDbEntity
  8
COTA
100
AcDbLine
 10
4257.6
 20
-107.1
 30
0.0
 11
4257.6
 21
-185.0
 31
0.0
  0
TEXT
  5
C7
330
17
100
AcDbEntity
  8
COTA
100
AcDbText
 10
4025.6
 20
-172.0
 30
0.0
 40
4.0
  1
464
100
AcDbText
  0
LINE
  5
C8
330
17
100
AcDbEntity
  8
COTA
100
AcDbLine
 10
3811.6
 20
-21.0
 30
0.0
 11
4055.6
 21
-21.0
 31
0.0
  0
LINE
  5
C9
330
17
100
AcDbEntity
  8
COTA
100
AcDbLine
 10
3811.6
 20
-51.1
 30
0.0
 11
3811.6
 21
-16.0
 31
0.0
  0
LINE
  5
CA
330
17
100
AcDbEntity
  8
COTA
100
AcDbLine
 10
4055.6
 20
-51.1
 30
0.0
 11
4055.6
 21
-16.0
 31
0.0
  0
TEXT
  5
CB
330
17
100
AcDbEntity
  8
COTA
100
AcDbText
 10
3933.6
 20
-13.0
 30
0.0
 40
4.0
  1
244
100
AcDbText
  0
LINE
  5
CC
330
17
100
AcDbEntity
  8
COTA
100
AcDbLine
 10
4055.6
 20
-21.0
 30
0.0
 11
4239.6
 21
-21.0
 31
0.0
  0
LINE
  5
CD
330
17
100
AcDbEntity
  8
COTA
100
AcDbLine
 10
4055.6
 20
-51.1
 30
0.0
 11
4055.6
 21
-16.0
 31
0.0
  0
LINE
  5
CE
330
17
100
AcDbEntity
  8
COTA
100
AcDbLine
 10
4239.6
 20
-51.1
 30
0.0
 11
4239.6
 21
-16.0
 31
0.0
  0
TEXT
  5
CF
330
17
100
AcDbEntity
  8
COTA
100
AcDbText
 10
4147.6
 20
-13.0
 30
0.0
 40
4.0
  1
184
100
AcDbText
  0
LINE
  5
D0
330
17
100
AcDbEntity
  8
COTA
100
AcDbLine
 10
3811.6
 20
2.9
 30
0.0
 11
4239.6
 21
2.9
 31
0.0
  0
LINE
  5
D1
330
17
100
AcDbEntity
  8
COTA
100
AcDbLine
 10
3811.6
 20
-51.1
 30
0.0
 11
3811.6
 21
7.9
 31
0.0
  0
LINE
  5
D2
330
17
100
AcDbEntity
  8
COTA
100
AcDbLine
 10
4239.6
 20
-51.1
 30
0.0
 11
4239.6
 21
7.9
 31
0.0
  0
TEXT
  5
D3
330
17
100
AcDbEntity
  8
COTA
100
AcDbText
 10
4025.6
 20
10.9
 30
0.0
 40
4.0
  1
428
100
AcDbText
  0
LINE
  5
D4
330
17
100
AcDbEntity
  8
SARR_2.2x7
100
AcDbLine
 10
4037.6
 20
148.3
 30
0.0
 11
4209.6
 21
148.3
 31
0.0
  0
LINE
  5
D5
330
17
100
AcDbEntity
  8
SARR_2.2x7
100
AcDbLine
 10
3800.6
 20
148.3
 30
0.0
 11
4037.6
 21
148.3
 31
0.0
  0
LINE
  5
D6
330
17
100
AcDbEntity
  8
SARR_2.2x7
100
AcDbLine
 10
3800.6
 20
145.3
 30
0.0
 11
4037.6
 21
145.3
 31
0.0
  0
LINE
  5
D7
330
17
100
AcDbEntity
  8
SARR_2.2x7
100
AcDbLine
 10
4037.6
 20
145.3
 30
0.0
 11
4209.6
 21
145.3
 31
0.0
  0
LINE
  5
D8
330
17
100
AcDbEntity
  8
SARR_2.2x7
100
AcDbLine
 10
4209.6
 20
138.3
 30
0.0
 11
4209.6
 21
155.3
 31
0.0
  0
LINE
  5
D9
330
17
100
AcDbEntity
  8
SARR_2.2x7
100
AcDbLine
 10
3800.6
 20
138.3
 30
0.0
 11
3800.6
 21
155.3
 31
0.0
  0
LINE
  5
DA
330
17
100
AcDbEntity
  8
SARR_2.2x7
100
AcDbLine
 10
4037.6
 20
192.1
 30
0.0
 11
4201.6
 21
192.1
 31
0.0
  0
LINE
  5
DB
330
17
100
AcDbEntity
  8
SARR_2.2x7
100
AcDbLine
 10
3808.6
 20
192.1
 30
0.0
 11
4037.6
 21
192.1
 31
0.0
  0
LINE
  5
DC
330
17
100
AcDbEntity
  8
SARR_2.2x7
100
AcDbLine
 10
4209.6
 20
169.3
 30
0.0
 11
4209.6
 21
194.3
 31
0.0
  0
LINE
  5
DD
330
17
100
AcDbEntity
  8
SARR_2.2x7
100
AcDbLine
 10
3800.6
 20
169.3
 30
0.0
 11
3800.6
 21
194.3
 31
0.0
  0
LINE
  5
DE
330
17
100
AcDbEntity
  8
SARR_2.2x7
100
AcDbLine
 10
4037.6
 20
-97.1
 30
0.0
 11
4250.6
 21
-97.1
 31
0.0
  0
LINE
  5
DF
330
17
100
AcDbEntity
  8
SARR_2.2x7
100
AcDbLine
 10
3800.6
 20
-97.1
 30
0.0
 11
4037.6
 21
-97.1
 31
0.0
  0
LINE
  5
E0
330
17
100
AcDbEntity
  8
SARR_2.2x7
100
AcDbLine
 10
3800.6
 20
-100.1
 30
0.0
 11
4037.6
 21
-100.1
 31
0.0
  0
LINE
  5
E1
330
17
100
AcDbEntity
  8
SARR_2.2x7
100
AcDbLine
 10
4037.6
 20
-100.1
 30
0.0
 11
4250.6
 21
-100.1
 31
0.0
  0
LINE
  5
E2
330
17
100
AcDbEntity
  8
SARR_2.2x7
100
AcDbLine
 10
4250.6
 20
-107.1
 30
0.0
 11
4250.6
 21
-90.1
 31
0.0
  0
LINE
  5
E3
330
17
100
AcDbEntity
  8
SARR_2.2x7
100
AcDbLine
 10
3800.6
 20
-107.1
 30
0.0
 11
3800.6
 21
-90.1
 31
0.0
  0
LINE
  5
E4
330
17
100
AcDbEntity
  8
SARR_2.2x7
100
AcDbLine
 10
4055.6
 20
-53.3
 30
0.0
 11
4224.6
 21
-53.3
 31
0.0
  0
LINE
  5
E5
330
17
100
AcDbEntity
  8
SARR_2.2x7
100
AcDbLine
 10
3826.6
 20
-53.3
 30
0.0
 11
4055.6
 21
-53.3
 31
0.0
  0
LINE
  5
E6
330
17
100
AcDbEntity
  8
SARR_2.2x7
100
AcDbLine
 10
4232.6
 20
-76.1
 30
0.0
 11
4232.6
 21
-51.1
 31
0.0
  0
LINE
  5
E7
330
17
100
AcDbEntity
  8
SARR_2.2x7
100
AcDbLine
 10
3818.6
 20
-76.1
 30
0.0
 11
3818.6
 21
-51.1
 31
0.0
  0
LINE
  5
E8
330
17
100
AcDbEntity
  8
Escoras
100
AcDbLine
 10
2383.7
 20
-162.4
 30
0.0
 11
2383.7
 21
-296.5
 31
0.0
  0
LINE
  5
E9
330
17
100
AcDbEntity
  8
Escoras
100
AcDbLine
 10
2372.5
 20
-296.5
 30
0.0
 11
2372.5
 21
-198.2
 31
0.0
  0
LINE
  5
EA
330
17
100
AcDbEntity
  8
Escoras
100
AcDbLine
 10
2372.4619904971178
 20
-198.17344329999116
 30
0.0
 11
2372.7369621045314
 21
-197.57213073023493
 31
0.0
  0
LINE
  5
EB
330
17
100
AcDbEntity
  8
Escoras
100
AcDbLine
 10
2372.7369621045314
 20
-197.57213073023493
 30
0.0
 11
2372.9642545627066
 21
-196.9512246746298
 31
0.0
  0
LINE
  5
EC
330
17
100
AcDbEntity
  8
Escoras
100
AcDbLine
 10
2372.9642545627066
 20
-196.9512246746298
 30
0.0
 11
2373.1424863941716
 21
-196.3144989835484
 31
0.0
  0
LINE
  5
ED
330
17
100
AcDbEntity
  8
Escoras
100
AcDbLine
 10
2373.1424863941716
 20
-196.3144989835484
 30
0.0
 11
2373.2705743106294
 21
-195.66582365868393
 31
0.0
  0
LINE
  5
EE
330
17
100
AcDbEntity
  8
Escoras
100
AcDbLine
 10
2373.2705743106294
 20
-195.66582365868393
 30
0.0
 11
2373.3477397971546
 21
-195.00914133128373
 31
0.0
  0
LINE
  5
EF
330
17
100
AcDbEntity
  8
Escoras
100
AcDbLine
 10
2373.3477397971546
 20
-195.00914133128373
 30
0.0
 11
2373.373513843988
 21
-194.34844329894196
 31
0.0
  0
LINE
  5
F0
330
17
100
AcDbEntity
  8
Escoras
100
AcDbLine
 10
2373.373513843988
 20
-194.34844329894196
 30
0.0
 11
2373.347739797163
 21
-193.68774526659988
 31
0.0
  0
LINE
  5
F1
330
17
100
AcDbEntity
  8
Escoras
100
AcDbLine
 10
2373.347739797163
 20
-193.68774526659988
 30
0.0
 11
2373.2705743106458
 21
-193.03106293919868
 31
0.0
  0
LINE
  5
F2
330
17
100
AcDbEntity
  8
Escoras
100
AcDbLine
 10
2373.2705743106458
 20
-193.03106293919868
 30
0.0
 11
2373.1424863941966
 21
-192.38238761433263
 31
0.0
  0
LINE
  5
F3
330
17
100
AcDbEntity
  8
Escoras
100
AcDbLine
 10
2373.1424863941966
 20
-192.38238761433263
 30
0.0
 11
2372.9642545627394
 21
-191.74566192324897
 31
0.0
  0
LINE
  5
F4
330
17
100
AcDbEntity
  8
Escoras
100
AcDbLine
 10
2372.9642545627394
 20
-191.74566192324897
 30
0.0
 11
2372.736962104572
 21
-191.12475586764097
 31
0.0
  0
LINE
  5
F5
330
17
100
AcDbEntity
  8
Escoras
100
AcDbLine
 10
2372.736962104572
 20
-191.12475586764097
 30
0.0
 11
2372.461990497166
 21
-190.52344329788127
 31
0.0
  0
LINE
  5
F6
330
17
100
AcDbEntity
  8
Escoras
100
AcDbLine
 10
2383.7
 20
-162.4
 30
0.0
 11
2372.5
 21
-162.4
 31
0.0
  0
LINE
  5
F7
330
17
100
AcDbEntity
  8
Escoras
100
AcDbLine
 10
2372.5
 20
-184.9
 30
0.0
 11
2383.7
 21
-184.9
 31
0.0
  0
LINE
  5
F8
330
17
100
AcDbEntity
  8
Escoras
100
AcDbLine
 10
2372.5
 20
-162.4
 30
0.0
 11
2372.5
 21
-184.9
 31
0.0
  0
LINE
  5
F9
330
17
100
AcDbEntity
  8
Escoras
100
AcDbLine
 10
2372.5
 20
-190.5
 30
0.0
 11
2372.5
 21
-184.9
 31
0.0
  0
LINE
  5
FA
330
17
100
AcDbEntity
  8
Forcador
100
AcDbLine
 10
2382.0
 20
-113.8
 30
0.0
 11
2382.0
 21
-248.8
 31
0.0
  0
LINE
  5
FB
330
17
100
AcDbEntity
  8
Forcador
100
AcDbLine
 10
2374.1
 20
-113.8
 30
0.0
 11
2374.1
 21
-248.8
 31
0.0
  0
LINE
  5
FC
330
17
100
AcDbEntity
  8
Forcador
100
AcDbLine
 10
2374.1
 20
-248.8
 30
0.0
 11
2382.0
 21
-248.8
 31
0.0
  0
LINE
  5
FD
330
17
100
AcDbEntity
  8
Forcador
100
AcDbLine
 10
2359.0
 20
-110.6
 30
0.0
 11
2397.2
 21
-110.6
 31
0.0
  0
LINE
  5
FE
330
17
100
AcDbEntity
  8
Forcador
100
AcDbLine
 10
2359.0
 20
-113.8
 30
0.0
 11
2397.2
 21
-113.8
 31
0.0
  0
LINE
  5
FF
330
17
100
AcDbEntity
  8
Forcador
100
AcDbLine
 10
2384.4
 20
-160.5
 30
0.0
 11
2396.2
 21
-160.5
 31
0.0
  0
LINE
  5
100
330
17
100
AcDbEntity
  8
Forcador
100
AcDbLine
 10
2360.0
 20
-160.5
 30
0.0
 11
2371.8
 21
-160.5
 31
0.0
  0
LINE
  5
101
330
17
100
AcDbEntity
  8
Forcador
100
AcDbLine
 10
2384.4
 20
-158.0
 30
0.0
 11
2396.2
 21
-158.0
 31
0.0
  0
LINE
  5
102
330
17
100
AcDbEntity
  8
Forcador
100
AcDbLine
 10
2360.0
 20
-158.0
 30
0.0
 11
2371.8
 21
-158.0
 31
0.0
  0
LINE
  5
103
330
17
100
AcDbEntity
  8
Forcador
100
AcDbLine
 10
2359.974490497119
 20
-158.0109432999973
 30
0.0
 11
2359.8423327274963
 21
-158.01960537785632
 31
0.0
  0
LINE
  5
104
330
17
100
AcDbEntity
  8
Forcador
100
AcDbLine
 10
2359.8423327274963
 20
-158.01960537785632
 30
0.0
 11
2359.7124362139525
 21
-158.0454434008796
 31
0.0
  0
LINE
  5
105
330
17
100
AcDbEntity
  8
Forcador
100
AcDbLine
 10
2359.7124362139525
 20
-158.0454434008796
 30
0.0
 11
2359.5870235218495
 21
-158.08801527332963
 31
0.0
  0
LINE
  5
106
330
17
100
AcDbEntity
  8
Forcador
100
AcDbLine
 10
2359.5870235218495
 20
-158.08801527332963
 30
0.0
 11
2359.468240497119
 21
-158.14659257866555
 31
0.0
  0
LINE
  5
107
330
17
100
AcDbEntity
  8
Forcador
100
AcDbLine
 10
2359.468240497119
 20
-158.14659257866555
 30
0.0
 11
2359.3581195502475
 21
-158.2201730429524
 31
0.0
  0
LINE
  5
108
330
17
100
AcDbEntity
  8
Forcador
100
AcDbLine
 10
2359.3581195502475
 20
-158.2201730429524
 30
0.0
 11
2359.2585448811674
 21
-158.30749768404593
 31
0.0
  0
LINE
  5
109
330
17
100
AcDbEntity
  8
Forcador
100
AcDbLine
 10
2359.2585448811674
 20
-158.30749768404593
 30
0.0
 11
2359.171220240074
 21
-158.40707235312595
 31
0.0
  0
LINE
  5
10A
330
17
100
AcDbEntity
  8
Forcador
100
AcDbLine
 10
2359.171220240074
 20
-158.40707235312595
 30
0.0
 11
2359.0976397757872
 21
-158.5171932999973
 31
0.0
  0
LINE
  5
10B
330
17
100
AcDbEntity
  8
Forcador
100
AcDbLine
 10
2359.0976397757872
 20
-158.5171932999973
 30
0.0
 11
2359.0390624704514
 21
-158.63597632472764
 31
0.0
  0
LINE
  5
10C
330
17
100
AcDbEntity
  8
Forcador
100
AcDbLine
 10
2359.0390624704514
 20
-158.63597632472764
 30
0.0
 11
2358.9964905980014
 21
-158.761389016831
 31
0.0
  0
LINE
  5
10D
330
17
100
AcDbEntity
  8
Forcador
100
AcDbLine
 10
2358.9964905980014
 20
-158.761389016831
 30
0.0
 11
2358.970652574978
 21
-158.8912855303745
 31
0.0
  0
LINE
  5
10E
330
17
100
AcDbEntity
  8
Forcador
100
AcDbLine
 10
2358.970652574978
 20
-158.8912855303745
 30
0.0
 11
2358.961990497119
 21
-159.0234432999973
 31
0.0
  0
LINE
  5
10F
330
17
100
AcDbEntity
  8
Forcador
100
AcDbLine
 10
2359.0
 20
-159.0
 30
0.0
 11
2359.0
 21
-159.5
 31
0.0
  0
LINE
  5
110
330
17
100
AcDbEntity
  8
Forcador
100
AcDbLine
 10
2358.961990497119
 20
-159.4734433000017
 30
0.0
 11
2358.970652574978
 21
-159.6056010696245
 31
0.0
  0
LINE
  5
111
330
17
100
AcDbEntity
  8
Forcador
100
AcDbLine
 10
2358.970652574978
 20
-159.6056010696245
 30
0.0
 11
2358.9964905980014
 21
-159.73549758316798
 31
0.0
  0
LINE
  5
112
330
17
100
AcDbEntity
  8
Forcador
100
AcDbLine
 10
2358.9964905980014
 20
-159.73549758316798
 30
0.0
 11
2359.0390624704514
 21
-159.86091027527135
 31
0.0
  0
LINE
  5
113
330
17
100
AcDbEntity
  8
Forcador
100
AcDbLine
 10
2359.0390624704514
 20
-159.86091027527135
 30
0.0
 11
2359.0976397757872
 21
-159.97969330000168
 31
0.0
  0
LINE
  5
114
330
17
100
AcDbEntity
  8
Forcador
100
AcDbLine
 10
2359.0976397757872
 20
-159.97969330000168
 30
0.0
 11
2359.171220240074
 21
-160.08981424687303
 31
0.0
  0
LINE
  5
115
330
17
100
AcDbEntity
  8
Forcador
100
AcDbLine
 10
2359.171220240074
 20
-160.08981424687303
 30
0.0
 11
2359.2585448811674
 21
-160.18938891595306
 31
0.0
  0
LINE
  5
116
330
17
100
AcDbEntity
  8
Forcador
100
AcDbLine
 10
2359.2585448811674
 20
-160.18938891595306
 30
0.0
 11
2359.3581195502475
 21
-160.27671355704658
 31
0.0
  0
LINE
  5
117
330
17
100
AcDbEntity
  8
Forcador
100
AcDbLine
 10
2359.3581195502475
 20
-160.27671355704658
 30
0.0
 11
2359.468240497119
 21
-160.35029402133344
 31
0.0
  0
LINE
  5
118
330
17
100
AcDbEntity
  8
Forcador
100
AcDbLine
 10
2359.468240497119
 20
-160.35029402133344
 30
0.0
 11
2359.5870235218495
 21
-160.40887132666936
 31
0.0
  0
LINE
  5
119
330
17
100
AcDbEntity
  8
Forcador
100
AcDbLine
 10
2359.5870235218495
 20
-160.40887132666936
 30
0.0
 11
2359.7124362139525
 21
-160.45144319911938
 31
0.0
  0
LINE
  5
11A
330
17
100
AcDbEntity
  8
Forcador
100
AcDbLine
 10
2359.7124362139525
 20
-160.45144319911938
 30
0.0
 11
2359.8423327274963
 21
-160.47728122214266
 31
0.0
  0
LINE
  5
11B
330
17
100
AcDbEntity
  8
Forcador
100
AcDbLine
 10
2359.8423327274963
 20
-160.47728122214266
 30
0.0
 11
2359.974490497119
 21
-160.48594330000168
 31
0.0
  0
LINE
  5
11C
330
17
100
AcDbEntity
  8
Forcador
100
AcDbLine
 10
2397.2119904971537
 20
-159.0234432999973
 30
0.0
 11
2397.203328419295
 21
-158.8912855303745
 31
0.0
  0
LINE
  5
11D
330
17
100
AcDbEntity
  8
Forcador
100
AcDbLine
 10
2397.203328419295
 20
-158.8912855303745
 30
0.0
 11
2397.1774903962714
 21
-158.761389016831
 31
0.0
  0
LINE
  5
11E
330
17
100
AcDbEntity
  8
Forcador
100
AcDbLine
 10
2397.1774903962714
 20
-158.761389016831
 30
0.0
 11
2397.1349185238214
 21
-158.63597632472764
 31
0.0
  0
LINE
  5
11F
330
17
100
AcDbEntity
  8
Forcador
100
AcDbLine
 10
2397.1349185238214
 20
-158.63597632472764
 30
0.0
 11
2397.0763412184856
 21
-158.5171932999973
 31
0.0
  0
LINE
  5
120
330
17
100
AcDbEntity
  8
Forcador
100
AcDbLine
 10
2397.0763412184856
 20
-158.5171932999973
 30
0.0
 11
2397.002760754199
 21
-158.40707235312595
 31
0.0
  0
LINE
  5
121
330
17
100
AcDbEntity
  8
Forcador
100
AcDbLine
 10
2397.002760754199
 20
-158.40707235312595
 30
0.0
 11
2396.9154361131054
 21
-158.30749768404593
 31
0.0
  0
LINE
  5
122
330
17
100
AcDbEntity
  8
Forcador
100
AcDbLine
 10
2396.9154361131054
 20
-158.30749768404593
 30
0.0
 11
2396.8158614440254
 21
-158.2201730429524
 31
0.0
  0
LINE
  5
123
330
17
100
AcDbEntity
  8
Forcador
100
AcDbLine
 10
2396.8158614440254
 20
-158.2201730429524
 30
0.0
 11
2396.705740497154
 21
-158.14659257866555
 31
0.0
  0
LINE
  5
124
330
17
100
AcDbEntity
  8
Forcador
100
AcDbLine
 10
2396.705740497154
 20
-158.14659257866555
 30
0.0
 11
2396.5869574724234
 21
-158.08801527332963
 31
0.0
  0
LINE
  5
125
330
17
100
AcDbEntity
  8
Forcador
100
AcDbLine
 10
2396.5869574724234
 20
-158.08801527332963
 30
0.0
 11
2396.4615447803203
 21
-158.0454434008796
 31
0.0
  0
LINE
  5
126
330
17
100
AcDbEntity
  8
Forcador
100
AcDbLine
 10
2396.4615447803203
 20
-158.0454434008796
 30
0.0
 11
2396.3316482667765
 21
-158.01960537785632
 31
0.0
  0
LINE
  5
127
330
17
100
AcDbEntity
  8
Forcador
100
AcDbLine
 10
2396.3316482667765
 20
-158.01960537785632
 30
0.0
 11
2396.199490497154
 21
-158.0109432999973
 31
0.0
  0
LINE
  5
128
330
17
100
AcDbEntity
  8
Forcador
100
AcDbLine
 10
2397.2
 20
-159.0
 30
0.0
 11
2397.2
 21
-159.5
 31
0.0
  0
LINE
  5
129
330
17
100
AcDbEntity
  8
Forcador
100
AcDbLine
 10
2396.199490497154
 20
-160.48594330000168
 30
0.0
 11
2396.3316482667765
 21
-160.47728122214266
 31
0.0
  0
LINE
  5
12A
330
17
100
AcDbEntity
  8
Forcador
100
AcDbLine
 10
2396.3316482667765
 20
-160.47728122214266
 30
0.0
 11
2396.4615447803203
 21
-160.45144319911938
 31
0.0
  0
LINE
  5
12B
330
17
100
AcDbEntity
  8
Forcador
100
AcDbLine
 10
2396.4615447803203
 20
-160.45144319911938
 30
0.0
 11
2396.5869574724234
 21
-160.40887132666936
 31
0.0
  0
LINE
  5
12C
330
17
100
AcDbEntity
  8
Forcador
100
AcDbLine
 10
2396.5869574724234
 20
-160.40887132666936
 30
0.0
 11
2396.705740497154
 21
-160.35029402133344
 31
0.0
  0
LINE
  5
12D
330
17
100
AcDbEntity
  8
Forcador
100
AcDbLine
 10
2396.705740497154
 20
-160.35029402133344
 30
0.0
 11
2396.8158614440254
 21
-160.27671355704658
 31
0.0
  0
LINE
  5
12E
330
17
100
AcDbEntity
  8
Forcador
100
AcDbLine
 10
2396.8158614440254
 20
-160.27671355704658
 30
0.0
 11
2396.9154361131054
 21
-160.18938891595306
 31
0.0
  0
LINE
  5
12F
330
17
100
AcDbEntity
  8
Forcador
100
AcDbLine
 10
2396.9154361131054
 20
-160.18938891595306
 30
0.0
 11
2397.002760754199
 21
-160.08981424687303
 31
0.0
  0
LINE
  5
130
330
17
100
AcDbEntity
  8
Forcador
100
AcDbLine
 10
2397.002760754199
 20
-160.08981424687303
 30
0.0
 11
2397.0763412184856
 21
-159.97969330000168
 31
0.0
  0
LINE
  5
131
330
17
100
AcDbEntity
  8
Forcador
100
AcDbLine
 10
2397.0763412184856
 20
-159.97969330000168
 30
0.0
 11
2397.1349185238214
 21
-159.86091027527135
 31
0.0
  0
LINE
  5
132
330
17
100
AcDbEntity
  8
Forcador
100
AcDbLine
 10
2397.1349185238214
 20
-159.86091027527135
 30
0.0
 11
2397.1774903962714
 21
-159.73549758316798
 31
0.0
  0
LINE
  5
133
330
17
100
AcDbEntity
  8
Forcador
100
AcDbLine
 10
2397.1774903962714
 20
-159.73549758316798
 30
0.0
 11
2397.203328419295
 21
-159.6056010696245
 31
0.0
  0
LINE
  5
134
330
17
100
AcDbEntity
  8
Forcador
100
AcDbLine
 10
2397.203328419295
 20
-159.6056010696245
 30
0.0
 11
2397.2119904971537
 21
-159.4734433000017
 31
0.0
  0
LINE
  5
135
330
17
100
AcDbEntity
  8
Perfil Metálico
100
AcDbLine
 10
2288.8
 20
134.2
 30
0.0
 11
2509.3
 21
134.2
 31
0.0
  0
LINE
  5
136
330
17
100
AcDbEntity
  8
Perfil Metálico
100
AcDbLine
 10
2288.8
 20
120.4
 30
0.0
 11
2509.3
 21
120.4
 31
0.0
  0
LINE
  5
137
330
17
100
AcDbEntity
  8
Escoras
100
AcDbLine
 10
2335.3
 20
-20.0
 30
0.0
 11
2324.0
 21
-20.0
 31
0.0
  0
LINE
  5
138
330
17
100
AcDbEntity
  8
Forcador
100
AcDbLine
 10
2333.6
 20
67.7
 30
0.0
 11
2333.6
 21
-42.8
 31
0.0
  0
LINE
  5
139
330
17
100
AcDbEntity
  8
Forcador
100
AcDbLine
 10
2333.6
 20
-65.6
 30
0.0
 11
2333.6
 21
-127.3
 31
0.0
  0
LINE
  5
13A
330
17
100
AcDbEntity
  8
Forcador
100
AcDbLine
 10
2325.7
 20
67.7
 30
0.0
 11
2325.7
 21
-42.8
 31
0.0
  0
LINE
  5
13B
330
17
100
AcDbEntity
  8
Forcador
100
AcDbLine
 10
2325.7
 20
-65.6
 30
0.0
 11
2325.7
 21
-127.3
 31
0.0
  0
LINE
  5
13C
330
17
100
AcDbEntity
  8
Forcador
100
AcDbLine
 10
2325.7
 20
-127.3
 30
0.0
 11
2333.6
 21
-127.3
 31
0.0
  0
LINE
  5
13D
330
17
100
AcDbEntity
  8
Forcador
100
AcDbLine
 10
2310.5
 20
70.9
 30
0.0
 11
2348.8
 21
70.9
 31
0.0
  0
LINE
  5
13E
330
17
100
AcDbEntity
  8
Forcador
100
AcDbLine
 10
2310.5
 20
67.7
 30
0.0
 11
2348.8
 21
67.7
 31
0.0
  0
LINE
  5
13F
330
17
100
AcDbEntity
  8
Forcador
100
AcDbLine
 10
2335.9
 20
-18.1
 30
0.0
 11
2347.7
 21
-18.1
 31
0.0
  0
LINE
  5
140
330
17
100
AcDbEntity
  8
Forcador
100
AcDbLine
 10
2311.5
 20
-18.1
 30
0.0
 11
2323.3
 21
-18.1
 31
0.0
  0
LINE
  5
141
330
17
100
AcDbEntity
  8
Forcador
100
AcDbLine
 10
2335.9
 20
-15.7
 30
0.0
 11
2347.7
 21
-15.7
 31
0.0
  0
LINE
  5
142
330
17
100
AcDbEntity
  8
Forcador
100
AcDbLine
 10
2311.5
 20
-15.7
 30
0.0
 11
2323.3
 21
-15.7
 31
0.0
  0
LINE
  5
143
330
17
100
AcDbEntity
  8
Forcador
100
AcDbLine
 10
2311.522473922031
 20
-15.660943299991501
 30
0.0
 11
2311.3903161524086
 21
-15.669605377850518
 31
0.0
  0
LINE
  5
144
330
17
100
AcDbEntity
  8
Forcador
100
AcDbLine
 10
2311.3903161524086
 20
-15.669605377850518
 30
0.0
 11
2311.2604196388647
 21
-15.695443400873819
 31
0.0
  0
LINE
  5
145
330
17
100
AcDbEntity
  8
Forcador
100
AcDbLine
 10
2311.2604196388647
 20
-15.695443400873819
 30
0.0
 11
2311.1350069467617
 21
-15.738015273323823
 31
0.0
  0
LINE
  5
146
330
17
100
AcDbEntity
  8
Forcador
100
AcDbLine
 10
2311.1350069467617
 20
-15.738015273323823
 30
0.0
 11
2311.0162239220313
 21
-15.796592578659757
 31
0.0
  0
LINE
  5
147
330
17
100
AcDbEntity
  8
Forcador
100
AcDbLine
 10
2311.0162239220313
 20
-15.796592578659757
 30
0.0
 11
2310.9061029751597
 21
-15.870173042946625
 31
0.0
  0
LINE
  5
148
330
17
100
AcDbEntity
  8
Forcador
100
AcDbLine
 10
2310.9061029751597
 20
-15.870173042946625
 30
0.0
 11
2310.8065283060796
 21
-15.95749768404012
 31
0.0
  0
LINE
  5
149
330
17
100
AcDbEntity
  8
Forcador
100
AcDbLine
 10
2310.8065283060796
 20
-15.95749768404012
 30
0.0
 11
2310.7192036649863
 21
-16.05707235312017
 31
0.0
  0
LINE
  5
14A
330
17
100
AcDbEntity
  8
Forcador
100
AcDbLine
 10
2310.7192036649863
 20
-16.05707235312017
 30
0.0
 11
2310.6456232006994
 21
-16.1671932999915
 31
0.0
  0
LINE
  5
14B
330
17
100
AcDbEntity
  8
Forcador
100
AcDbLine
 10
2310.6456232006994
 20
-16.1671932999915
 30
0.0
 11
2310.5870458953636
 21
-16.285976324721847
 31
0.0
  0
LINE
  5
14C
330
17
100
AcDbEntity
  8
Forcador
100
AcDbLine
 10
2310.5870458953636
 20
-16.285976324721847
 30
0.0
 11
2310.5444740229136
 21
-16.411389016825197
 31
0.0
  0
LINE
  5
14D
330
17
100
AcDbEntity
  8
Forcador
100
AcDbLine
 10
2310.5444740229136
 20
-16.411389016825197
 30
0.0
 11
2310.51863599989
 21
-16.5412855303687
 31
0.0
  0
LINE
  5
14E
330
17
100
AcDbEntity
  8
Forcador
100
AcDbLine
 10
2310.51863599989
 20
-16.5412855303687
 30
0.0
 11
2310.5099739220313
 21
-16.6734432999915
 31
0.0
  0
LINE
  5
14F
330
17
100
AcDbEntity
  8
Forcador
100
AcDbLine
 10
2310.5
 20
-16.7
 30
0.0
 11
2310.5
 21
-17.1
 31
0.0
  0
LINE
  5
150
330
17
100
AcDbEntity
  8
Forcador
100
AcDbLine
 10
2310.5099739220313
 20
-17.12344329999587
 30
0.0
 11
2310.51863599989
 21
-17.25560106961867
 31
0.0
  0
LINE
  5
151
330
17
100
AcDbEntity
  8
Forcador
100
AcDbLine
 10
2310.51863599989
 20
-17.25560106961867
 30
0.0
 11
2310.5444740229136
 21
-17.385497583162174
 31
0.0
  0
LINE
  5
152
330
17
100
AcDbEntity
  8
Forcador
100
AcDbLine
 10
2310.5444740229136
 20
-17.385497583162174
 30
0.0
 11
2310.5870458953636
 21
-17.510910275265523
 31
0.0
  0
LINE
  5
153
330
17
100
AcDbEntity
  8
Forcador
100
AcDbLine
 10
2310.5870458953636
 20
-17.510910275265523
 30
0.0
 11
2310.6456232006994
 21
-17.62969329999587
 31
0.0
  0
LINE
  5
154
330
17
100
AcDbEntity
  8
Forcador
100
AcDbLine
 10
2310.6456232006994
 20
-17.62969329999587
 30
0.0
 11
2310.7192036649863
 21
-17.739814246867198
 31
0.0
  0
LINE
  5
155
330
17
100
AcDbEntity
  8
Forcador
100
AcDbLine
 10
2310.7192036649863
 20
-17.739814246867198
 30
0.0
 11
2310.8065283060796
 21
-17.83938891594725
 31
0.0
  0
LINE
  5
156
330
17
100
AcDbEntity
  8
Forcador
100
AcDbLine
 10
2310.8065283060796
 20
-17.83938891594725
 30
0.0
 11
2310.9061029751597
 21
-17.926713557040745
 31
0.0
  0
LINE
  5
157
330
17
100
AcDbEntity
  8
Forcador
100
AcDbLine
 10
2310.9061029751597
 20
-17.926713557040745
 30
0.0
 11
2311.0162239220313
 21
-18.000294021327615
 31
0.0
  0
LINE
  5
158
330
17
100
AcDbEntity
  8
Forcador
100
AcDbLine
 10
2311.0162239220313
 20
-18.000294021327615
 30
0.0
 11
2311.1350069467617
 21
-18.058871326663546
 31
0.0
  0
LINE
  5
159
330
17
100
AcDbEntity
  8
Forcador
100
AcDbLine
 10
2311.1350069467617
 20
-18.058871326663546
 30
0.0
 11
2311.2604196388647
 21
-18.10144319911355
 31
0.0
  0
LINE
  5
15A
330
17
100
AcDbEntity
  8
Forcador
100
AcDbLine
 10
2311.2604196388647
 20
-18.10144319911355
 30
0.0
 11
2311.3903161524086
 21
-18.12728122213685
 31
0.0
  0
LINE
  5
15B
330
17
100
AcDbEntity
  8
Forcador
100
AcDbLine
 10
2311.3903161524086
 20
-18.12728122213685
 30
0.0
 11
2311.522473922031
 21
-18.13594329999587
 31
0.0
  0
LINE
  5
15C
330
17
100
AcDbEntity
  8
Forcador
100
AcDbLine
 10
2348.759973922066
 20
-16.6734432999915
 30
0.0
 11
2348.751311844207
 21
-16.5412855303687
 31
0.0
  0
LINE
  5
15D
330
17
100
AcDbEntity
  8
Forcador
100
AcDbLine
 10
2348.751311844207
 20
-16.5412855303687
 30
0.0
 11
2348.7254738211836
 21
-16.411389016825197
 31
0.0
  0
LINE
  5
15E
330
17
100
AcDbEntity
  8
Forcador
100
AcDbLine
 10
2348.7254738211836
 20
-16.411389016825197
 30
0.0
 11
2348.6829019487336
 21
-16.285976324721847
 31
0.0
  0
LINE
  5
15F
330
17
100
AcDbEntity
  8
Forcador
100
AcDbLine
 10
2348.6829019487336
 20
-16.285976324721847
 30
0.0
 11
2348.624324643398
 21
-16.1671932999915
 31
0.0
  0
LINE
  5
160
330
17
100
AcDbEntity
  8
Forcador
100
AcDbLine
 10
2348.624324643398
 20
-16.1671932999915
 30
0.0
 11
2348.550744179111
 21
-16.05707235312017
 31
0.0
  0
LINE
  5
161
330
17
100
AcDbEntity
  8
Forcador
100
AcDbLine
 10
2348.550744179111
 20
-16.05707235312017
 30
0.0
 11
2348.4634195380177
 21
-15.95749768404012
 31
0.0
  0
LINE
  5
162
330
17
100
AcDbEntity
  8
Forcador
100
AcDbLine
 10
2348.4634195380177
 20
-15.95749768404012
 30
0.0
 11
2348.3638448689376
 21
-15.870173042946625
 31
0.0
  0
LINE
  5
163
330
17
100
AcDbEntity
  8
Forcador
100
AcDbLine
 10
2348.3638448689376
 20
-15.870173042946625
 30
0.0
 11
2348.253723922066
 21
-15.796592578659757
 31
0.0
  0
LINE
  5
164
330
17
100
AcDbEntity
  8
Forcador
100
AcDbLine
 10
2348.253723922066
 20
-15.796592578659757
 30
0.0
 11
2348.1349408973356
 21
-15.738015273323823
 31
0.0
  0
LINE
  5
165
330
17
100
AcDbEntity
  8
Forcador
100
AcDbLine
 10
2348.1349408973356
 20
-15.738015273323823
 30
0.0
 11
2348.0095282052325
 21
-15.695443400873819
 31
0.0
  0
LINE
  5
166
330
17
100
AcDbEntity
  8
Forcador
100
AcDbLine
 10
2348.0095282052325
 20
-15.695443400873819
 30
0.0
 11
2347.8796316916887
 21
-15.669605377850518
 31
0.0
  0
LINE
  5
167
330
17
100
AcDbEntity
  8
Forcador
100
AcDbLine
 10
2347.8796316916887
 20
-15.669605377850518
 30
0.0
 11
2347.747473922066
 21
-15.660943299991501
 31
0.0
  0
LINE
  5
168
330
17
100
AcDbEntity
  8
Forcador
100
AcDbLine
 10
2348.8
 20
-16.7
 30
0.0
 11
2348.8
 21
-17.1
 31
0.0
  0
LINE
  5
169
330
17
100
AcDbEntity
  8
Forcador
100
AcDbLine
 10
2347.747473922066
 20
-18.13594329999587
 30
0.0
 11
2347.8796316916887
 21
-18.12728122213685
 31
0.0
  0
LINE
  5
16A
330
17
100
AcDbEntity
  8
Forcador
100
AcDbLine
 10
2347.8796316916887
 20
-18.12728122213685
 30
0.0
 11
2348.0095282052325
 21
-18.10144319911355
 31
0.0
  0
LINE
  5
16B
330
17
100
AcDbEntity
  8
Forcador
100
AcDbLine
 10
2348.0095282052325
 20
-18.10144319911355
 30
0.0
 11
2348.1349408973356
 21
-18.058871326663546
 31
0.0
  0
LINE
  5
16C
330
17
100
AcDbEntity
  8
Forcador
100
AcDbLine
 10
2348.1349408973356
 20
-18.058871326663546
 30
0.0
 11
2348.253723922066
 21
-18.000294021327615
 31
0.0
  0
LINE
  5
16D
330
17
100
AcDbEntity
  8
Forcador
100
AcDbLine
 10
2348.253723922066
 20
-18.000294021327615
 30
0.0
 11
2348.3638448689376
 21
-17.926713557040745
 31
0.0
  0
LINE
  5
16E
330
17
100
AcDbEntity
  8
Forcador
100
AcDbLine
 10
2348.3638448689376
 20
-17.926713557040745
 30
0.0
 11
2348.4634195380177
 21
-17.83938891594725
 31
0.0
  0
LINE
  5
16F
330
17
100
AcDbEntity
  8
Forcador
100
AcDbLine
 10
2348.4634195380177
 20
-17.83938891594725
 30
0.0
 11
2348.550744179111
 21
-17.7398142468672
 31
0.0
  0
LINE
  5
170
330
17
100
AcDbEntity
  8
Forcador
100
AcDbLine
 10
2348.550744179111
 20
-17.7398142468672
 30
0.0
 11
2348.624324643398
 21
-17.62969329999587
 31
0.0
  0
LINE
  5
171
330
17
100
AcDbEntity
  8
Forcador
100
AcDbLine
 10
2348.624324643398
 20
-17.62969329999587
 30
0.0
 11
2348.6829019487336
 21
-17.510910275265523
 31
0.0
  0
LINE
  5
172
330
17
100
AcDbEntity
  8
Forcador
100
AcDbLine
 10
2348.6829019487336
 20
-17.510910275265523
 30
0.0
 11
2348.7254738211836
 21
-17.385497583162174
 31
0.0
  0
LINE
  5
173
330
17
100
AcDbEntity
  8
Forcador
100
AcDbLine
 10
2348.7254738211836
 20
-17.385497583162174
 30
0.0
 11
2348.751311844207
 21
-17.255601069618674
 31
0.0
  0
LINE
  5
174
330
17
100
AcDbEntity
  8
Forcador
100
AcDbLine
 10
2348.751311844207
 20
-17.255601069618674
 30
0.0
 11
2348.759973922066
 21
-17.12344329999587
 31
0.0
  0
LINE
  5
175
330
17
100
AcDbEntity
  8
Forcador
100
AcDbLine
 10
2325.7
 20
-42.8
 30
0.0
 11
2325.7
 21
-65.6
 31
0.0
  0
LINE
  5
176
330
17
100
AcDbEntity
  8
Forcador
100
AcDbLine
 10
2333.6
 20
-42.8
 30
0.0
 11
2333.6
 21
-65.6
 31
0.0
  0
LINE
  5
177
330
17
100
AcDbEntity
  8
BARRA DE ANCORAGEM
100
AcDbLine
 10
2258.8
 20
49.8
 30
0.0
 11
2290.4
 21
49.8
 31
0.0
  0
LINE
  5
178
330
17
100
AcDbEntity
  8
BARRA DE ANCORAGEM
100
AcDbLine
 10
2258.8
 20
44.5
 30
0.0
 11
2290.4
 21
44.5
 31
0.0
  0
LINE
  5
179
330
17
100
AcDbEntity
  8
GARFOS
100
AcDbLine
 10
2916.3
 20
225.0
 30
0.0
 11
2916.3
 21
-208.6
 31
0.0
  0
LINE
  5
17A
330
17
100
AcDbEntity
  8
GARFOS
100
AcDbLine
 10
2644.8
 20
-208.6
 30
0.0
 11
2644.8
 21
225.0
 31
0.0
  0
LINE
  5
17B
330
17
100
AcDbEntity
  8
GARFOS
100
AcDbLine
 10
2644.8
 20
80.5
 30
0.0
 11
2916.3
 21
80.5
 31
0.0
  0
LINE
  5
17C
330
17
100
AcDbEntity
  8
GARFOS
100
AcDbLine
 10
2780.5
 20
225.0
 30
0.0
 11
2780.5
 21
-208.6
 31
0.0
  0
LINE
  5
17D
330
17
100
AcDbEntity
  8
GARFOS
100
AcDbLine
 10
2644.8
 20
44.4
 30
0.0
 11
2916.3
 21
44.4
 31
0.0
  0
LINE
  5
17E
330
17
100
AcDbEntity
  8
GARFOS
100
AcDbLine
 10
2644.8
 20
8.2
 30
0.0
 11
2916.3
 21
8.2
 31
0.0
  0
LINE
  5
17F
330
17
100
AcDbEntity
  8
GARFOS
100
AcDbLine
 10
2644.8
 20
116.6
 30
0.0
 11
2916.3
 21
116.6
 31
0.0
  0
LINE
  5
180
330
17
100
AcDbEntity
  8
GARFOS
100
AcDbLine
 10
2644.8
 20
152.8
 30
0.0
 11
2916.3
 21
152.8
 31
0.0
  0
LINE
  5
181
330
17
100
AcDbEntity
  8
GARFOS
100
AcDbLine
 10
2644.8
 20
188.9
 30
0.0
 11
2916.3
 21
188.9
 31
0.0
  0
LINE
  5
182
330
17
100
AcDbEntity
  8
GARFOS
100
AcDbLine
 10
2644.8
 20
225.0
 30
0.0
 11
2916.3
 21
225.0
 31
0.0
  0
LINE
  5
183
330
17
100
AcDbEntity
  8
GARFOS
100
AcDbLine
 10
2644.8
 20
-27.9
 30
0.0
 11
2916.3
 21
-27.9
 31
0.0
  0
LINE
  5
184
330
17
100
AcDbEntity
  8
GARFOS
100
AcDbLine
 10
2644.8
 20
-64.1
 30
0.0
 11
2916.3
 21
-64.1
 31
0.0
  0
LINE
  5
185
330
17
100
AcDbEntity
  8
GARFOS
100
AcDbLine
 10
2644.8
 20
-208.6
 30
0.0
 11
2916.3
 21
-208.6
 31
0.0
  0
LINE
  5
186
330
17
100
AcDbEntity
  8
GARFOS
100
AcDbLine
 10
2644.8
 20
-100.2
 30
0.0
 11
2916.3
 21
-100.2
 31
0.0
  0
LINE
  5
187
330
17
100
AcDbEntity
  8
GARFOS
100
AcDbLine
 10
2644.8
 20
-136.3
 30
0.0
 11
2916.3
 21
-136.3
 31
0.0
  0
LINE
  5
188
330
17
100
AcDbEntity
  8
GARFOS
100
AcDbLine
 10
2644.8
 20
-172.5
 30
0.0
 11
2916.3
 21
-172.5
 31
0.0
  0
LWPOLYLINE
  5
189
330
17
100
AcDbEntity
  8
Forcador
100
AcDbPolyline
 90
4
 70
1
 10
2399.1
 20
-79.1
 10
2399.1
 20
-115.1
 10
2397.2
 20
-115.1
 10
2397.2
 20
-79.1
  0
LWPOLYLINE
  5
18A
330
17
100
AcDbEntity
  8
Forcador
100
AcDbPolyline
 90
4
 70
1
 10
2357.0
 20
-79.1
 10
2357.0
 20
-115.1
 10
2359.0
 20
-115.1
 10
2359.0
 20
-79.1
  0
LWPOLYLINE
  5
18B
330
17
100
AcDbEntity
  8
Forcador
100
AcDbPolyline
 90
4
 70
1
 10
2371.8
 20
-156.5
 10
2371.8
 20
-162.4
 10
2384.4
 20
-162.4
 10
2384.4
 20
-156.5
  0
LWPOLYLINE
  5
18C
330
17
100
AcDbEntity
  8
Perfil Metálico
100
AcDbPolyline
 90
4
 70
1
 10
2288.8
 20
115.9
 10
2509.3
 20
115.9
 10
2509.3
 20
138.7
 10
2288.8
 20
138.7
  0
LWPOLYLINE
  5
18D
330
17
100
AcDbEntity
  8
Forcador
100
AcDbPolyline
 90
4
 70
1
 10
2350.7
 20
102.4
 10
2350.7
 20
66.4
 10
2348.8
 20
66.4
 10
2348.8
 20
102.4
  0
LWPOLYLINE
  5
18E
330
17
100
AcDbEntity
  8
Forcador
100
AcDbPolyline
 90
4
 70
1
 10
2308.6
 20
102.4
 10
2308.6
 20
66.4
 10
2310.5
 20
66.4
 10
2310.5
 20
102.4
  0
LWPOLYLINE
  5
18F
330
17
100
AcDbEntity
  8
Forcador
100
AcDbPolyline
 90
4
 70
1
 10
2323.3
 20
-14.2
 10
2323.3
 20
-20.0
 10
2335.9
 20
-20.0
 10
2335.9
 20
-14.2
  0
LWPOLYLINE
  5
190
330
17
100
AcDbEntity
  8
Perfil Metálico
100
AcDbPolyline
 90
4
 70
1
 10
2324.7
 20
-42.8
 10
2320.2
 20
-42.8
 10
2320.2
 20
-20.0
 10
2324.7
 20
-20.0
  0
LWPOLYLINE
  5
191
330
17
100
AcDbEntity
  8
Perfil Metálico
100
AcDbPolyline
 90
4
 70
1
 10
2334.6
 20
-42.8
 10
2339.1
 20
-42.8
 10
2339.1
 20
-20.0
 10
2334.6
 20
-20.0
  0
LWPOLYLINE
  5
192
330
17
100
AcDbEntity
  8
BARRA DE ANCORAGEM
100
AcDbPolyline
 90
4
 70
1
 10
2292.8
 20
26.3
 10
2292.8
 20
68.0
 10
2290.4
 20
68.0
 10
2290.4
 20
26.3
  0
HATCH
  5
193
330
17
100
AcDbEntity
  8
Perfil Metálico
 62
8
100
AcDbHatch
 10
0.0
 20
0.0
 30
0.0
210
0.0
220
0.0
230
1.0
  2
SOLID
 70
1
 71
0
 91
1
 92
3
 72
0
 73
1
 93
4
 10
2320.2
 20
-42.8
 10
2324.7
 20
-42.8
 10
2324.7
 20
-20.0
 10
2320.2
 20
-20.0
 97
0
 75
1
 76
1
 98
0
  0
HATCH
  5
194
330
17
100
AcDbEntity
  8
Perfil Metálico
 62
8
100
AcDbHatch
 10
0.0
 20
0.0
 30
0.0
210
0.0
220
0.0
230
1.0
  2
SOLID
 70
1
 71
0
 91
1
 92
3
 72
0
 73
1
 93
4
 10
2334.6
 20
-42.8
 10
2339.1
 20
-42.8
 10
2339.1
 20
-20.0
 10
2334.6
 20
-20.0
 97
0
 75
1
 76
1
 98
0
  0
TEXT
  5
195
330
17
100
AcDbEntity
  8
GARFOS
100
AcDbText
 10
2667.0
 20
210.1
 30
0.0
 40
4.0
  1
ALTURA   
100
AcDbText
  0
TEXT
  5
196
330
17
100
AcDbEntity
  8
GARFOS
100
AcDbText
 10
2788.4
 20
210.8
 30
0.0
 40
4.0
  1
ESPAÇAMENTO
100
AcDbText
  0
TEXT
  5
197
330
17
100
AcDbEntity
  8
GARFOS
100
AcDbText
 10
2733.3
 20
210.5
 30
0.0
 40
4.0
  1
DE
100
AcDbText
  0
TEXT
  5
198
330
17
100
AcDbEntity
  8
GARFOS
100
AcDbText
 10
2689.3
 20
193.4
 30
0.0
 40
4.0
  1
VIGAS
100
AcDbText
  0
TEXT
  5
199
330
17
100
AcDbEntity
  8
GARFOS
100
AcDbText
 10
2808.8
 20
192.5
 30
0.0
 40
4.0
  1
BARROTES
100
AcDbText
  0
TEXT
  5
19A
330
17
100
AcDbEntity
  8
GARFOS
100
AcDbText
 10
2687.0
 20
127.2
 30
0.0
 40
4.0
  1
40 CM
100
AcDbText
  0
TEXT
  5
19B
330
17
100
AcDbEntity
  8
GARFOS
100
AcDbText
 10
2828.4
 20
163.3
 30
0.0
 40
4.0
  1
70 CM
100
AcDbText
  0
TEXT
  5
19C
330
17
100
AcDbEntity
  8
GARFOS
100
AcDbText
 10
2687.0
 20
163.3
 30
0.0
 40
4.0
  1
30 CM
100
AcDbText
  0
TEXT
  5
19D
330
17
100
AcDbEntity
  8
GARFOS
100
AcDbText
 10
2687.0
 20
91.0
 30
0.0
 40
4.0
  1
50 CM
100
AcDbText
  0
TEXT
  5
19E
330
17
100
AcDbEntity
  8
GARFOS
100
AcDbText
 10
2687.0
 20
54.9
 30
0.0
 40
4.0
  1
60 CM
100
AcDbText
  0
TEXT
  5
19F
330
17
100
AcDbEntity
  8
GARFOS
100
AcDbText
 10
2687.0
 20
18.8
 30
0.0
 40
4.0
  1
70 CM
100
AcDbText
  0
TEXT
  5
1A0
330
17
100
AcDbEntity
  8
GARFOS
100
AcDbText
 10
2687.0
 20
-17.4
 30
0.0
 40
4.0
  1
80 CM
100
AcDbText
  0
TEXT
  5
1A1
330
17
100
AcDbEntity
  8
GARFOS
100
AcDbText
 10
2687.0
 20
-161.9
 30
0.0
 40
4.0
  1
120 CM
100
AcDbText
  0
TEXT
  5
1A2
330
17
100
AcDbEntity
  8
GARFOS
100
AcDbText
 10
2828.4
 20
127.2
 30
0.0
 40
4.0
  1
65 CM
100
AcDbText
  0
TEXT
  5
1A3
330
17
100
AcDbEntity
  8
GARFOS
100
AcDbText
 10
2828.4
 20
91.0
 30
0.0
 40
4.0
  1
65 CM
100
AcDbText
  0
TEXT
  5
1A4
330
17
100
AcDbEntity
  8
GARFOS
100
AcDbText
 10
2828.4
 20
54.9
 30
0.0
 40
4.0
  1
60 CM
100
AcDbText
  0
TEXT
  5
1A5
330
17
100
AcDbEntity
  8
GARFOS
100
AcDbText
 10
2828.4
 20
18.8
 30
0.0
 40
4.0
  1
60 CM
100
AcDbText
  0
TEXT
  5
1A6
330
17
100
AcDbEntity
  8
GARFOS
100
AcDbText
 10
2828.4
 20
-17.4
 30
0.0
 40
4.0
  1
55 CM
100
AcDbText
  0
TEXT
  5
1A7
330
17
100
AcDbEntity
  8
GARFOS
100
AcDbText
 10
2828.4
 20
-161.9
 30
0.0
 40
4.0
  1
45 CM
100
AcDbText
  0
TEXT
  5
1A8
330
17
100
AcDbEntity
  8
GARFOS
100
AcDbText
 10
2687.0
 20
-53.5
 30
0.0
 40
4.0
  1
90 CM
100
AcDbText
  0
TEXT
  5
1A9
330
17
100
AcDbEntity
  8
GARFOS
100
AcDbText
 10
2828.4
 20
-53.5
 30
0.0
 40
4.0
  1
55 CM
100
AcDbText
  0
TEXT
  5
1AA
330
17
100
AcDbEntity
  8
GARFOS
100
AcDbText
 10
2687.0
 20
-89.6
 30
0.0
 40
4.0
  1
100 CM
100
AcDbText
  0
TEXT
  5
1AB
330
17
100
AcDbEntity
  8
GARFOS
100
AcDbText
 10
2828.4
 20
-89.6
 30
0.0
 40
4.0
  1
50 CM
100
AcDbText
  0
TEXT
  5
1AC
330
17
100
AcDbEntity
  8
GARFOS
100
AcDbText
 10
2687.0
 20
-125.8
 30
0.0
 40
4.0
  1
110 CM
100
AcDbText
  0
TEXT
  5
1AD
330
17
100
AcDbEntity
  8
GARFOS
100
AcDbText
 10
2828.4
 20
-125.8
 30
0.0
 40
4.0
  1
50 CM
100
AcDbText
  0
TEXT
  5
1AE
330
17
100
AcDbEntity
  8
GARFOS
100
AcDbText
 10
2687.0
 20
-198.1
 30
0.0
 40
4.0
  1
130 CM
100
AcDbText
  0
TEXT
  5
1AF
330
17
100
AcDbEntity
  8
GARFOS
100
AcDbText
 10
2828.4
 20
-198.1
 30
0.0
 40
4.0
  1
45 CM
100
AcDbText
  0
ENDSEC
  0
SECTION
  2
OBJECTS
  0
DICTIONARY
  5
A
330
0
100
AcDbDictionary
281
1
  3
ACAD_COLOR
350
B
  3
ACAD_GROUP
350
C
  3
ACAD_LAYOUT
350
D
  3
ACAD_MATERIAL
350
E
  3
ACAD_MLEADERSTYLE
350
F
  3
ACAD_MLINESTYLE
350
10
  3
ACAD_PLOTSETTINGS
350
11
  3
ACAD_PLOTSTYLENAME
350
12
  3
ACAD_SCALELIST
350
14
  3
ACAD_TABLESTYLE
350
15
  3
ACAD_VISUALSTYLE
350
16
  3
EZDXF_META
350
2D
  0
DICTIONARY
  5
B
330
A
100
AcDbDictionary
281
1
  0
DICTIONARY
  5
C
330
A
100
AcDbDictionary
281
1
  0
DICTIONARY
  5
D
330
A
100
AcDbDictionary
281
1
  3
Model
350
1A
  3
Layout1
350
1E
  0
DICTIONARY
  5
E
330
A
100
AcDbDictionary
281
1
  3
ByBlock
350
1F
  3
ByLayer
350
20
  3
Global
350
21
  0
DICTIONARY
  5
F
330
A
100
AcDbDictionary
281
1
  3
Standard
350
2C
  0
DICTIONARY
  5
10
330
A
100
AcDbDictionary
281
1
  3
Standard
350
22
  0
DICTIONARY
  5
11
330
A
100
AcDbDictionary
281
1
  0
ACDBDICTIONARYWDFLT
  5
12
330
A
100
AcDbDictionary
281
1
  3
Normal
350
13
100
AcDbDictionaryWithDefault
340
13
  0
ACDBPLACEHOLDER
  5
13
330
12
  0
DICTIONARY
  5
14
330
A
100
AcDbDictionary
281
1
  0
DICTIONARY
  5
15
330
A
100
AcDbDictionary
281
1
  0
DICTIONARY
  5
16
330
A
100
AcDbDictionary
281
1
  0
LAYOUT
  5
1A
330
D
100
AcDbPlotSettings
  1

  4
A3
  6

 40
7.5
 41
20.0
 42
7.5
 43
20.0
 44
420.0
 45
297.0
 46
0.0
 47
0.0
 48
0.0
 49
0.0
140
0.0
141
0.0
142
1.0
143
1.0
 70
1024
 72
1
 73
0
 74
5
  7

 75
16
 76
0
 77
2
 78
300
147
1.0
148
0.0
149
0.0
100
AcDbLayout
  1
Model
 70
1
 71
0
 10
0.0
 20
0.0
 11
420.0
 21
297.0
 12
0.0
 22
0.0
 32
0.0
 14
1e+20
 24
1e+20
 34
1e+20
 15
-1e+20
 25
-1e+20
 35
-1e+20
146
0.0
 13
0.0
 23
0.0
 33
0.0
 16
1.0
 26
0.0
 36
0.0
 17
0.0
 27
1.0
 37
0.0
 76
1
330
17
  0
LAYOUT
  5
1E
330
D
100
AcDbPlotSettings
  1

  4
A3
  6

 40
7.5
 41
20.0
 42
7.5
 43
20.0
 44
420.0
 45
297.0
 46
0.0
 47
0.0
 48
0.0
 49
0.0
140
0.0
141
0.0
142
1.0
143
1.0
 70
0
 72
1
 73
0
 74
5
  7

 75
16
 76
0
 77
2
 78
300
147
1.0
148
0.0
149
0.0
100
AcDbLayout
  1
Layout1
 70
1
 71
1
 10
0.0
 20
0.0
 11
420.0
 21
297.0
 12
0.0
 22
0.0
 32
0.0
 14
1e+20
 24
1e+20
 34
1e+20
 15
-1e+20
 25
-1e+20
 35
-1e+20
146
0.0
 13
0.0
 23
0.0
 33
0.0
 16
1.0
 26
0.0
 36
0.0
 17
0.0
 27
1.0
 37
0.0
 76
1
330
1B
  0
MATERIAL
  5
1F
102
{ACAD_REACTORS
330
E
102
}
330
E
100
AcDbMaterial
  1
ByBlock
  2

 70
0
 40
1.0
 71
1
 41
1.0
 91
-1023410177
 42
1.0
 72
1
  3

 73
1
 74
1
 75
1
 44
0.5
 73
0
 45
1.0
 46
1.0
 77
1
  4

 78
1
 79
1
170
1
 48
1.0
171
1
  6

172
1
173
1
174
1
140
1.0
141
1.0
175
1
  7

176
1
177
1
178
1
143
1.0
179
1
  8

270
1
271
1
272
1
145
1.0
146
1.0
273
1
  9

274
1
275
1
276
1
 42
1.0
 72
1
  3

 73
1
 74
1
 75
1
 94
63
  0
MATERIAL
  5
20
102
{ACAD_REACTORS
330
E
102
}
330
E
100
AcDbMaterial
  1
ByLayer
  2

 70
0
 40
1.0
 71
1
 41
1.0
 91
-1023410177
 42
1.0
 72
1
  3

 73
1
 74
1
 75
1
 44
0.5
 73
0
 45
1.0
 46
1.0
 77
1
  4

 78
1
 79
1
170
1
 48
1.0
171
1
  6

172
1
173
1
174
1
140
1.0
141
1.0
175
1
  7

176
1
177
1
178
1
143
1.0
179
1
  8

270
1
271
1
272
1
145
1.0
146
1.0
273
1
  9

274
1
275
1
276
1
 42
1.0
 72
1
  3

 73
1
 74
1
 75
1
 94
63
  0
MATERIAL
  5
21
102
{ACAD_REACTORS
330
E
102
}
330
E
100
AcDbMaterial
  1
Global
  2

 70
0
 40
1.0
 71
1
 41
1.0
 91
-1023410177
 42
1.0
 72
1
  3

 73
1
 74
1
 75
1
 44
0.5
 73
0
 45
1.0
 46
1.0
 77
1
  4

 78
1
 79
1
170
1
 48
1.0
171
1
  6

172
1
173
1
174
1
140
1.0
141
1.0
175
1
  7

176
1
177
1
178
1
143
1.0
179
1
  8

270
1
271
1
272
1
145
1.0
146
1.0
273
1
  9

274
1
275
1
276
1
 42
1.0
 72
1
  3

 73
1
 74
1
 75
1
 94
63
  0
MLINESTYLE
  5
22
102
{ACAD_REACTORS
330
10
102
}
330
10
100
AcDbMlineStyle
  2
Standard
 70
0
  3

 62
256
 51
90.0
 52
90.0
 71
2
 49
0.5
 62
256
  6
BYLAYER
 49
-0.5
 62
256
  6
BYLAYER
  0
MLEADERSTYLE
  5
2C
102
{ACAD_REACTORS
330
F
102
}
330
F
100
AcDbMLeaderStyle
179
2
170
2
171
1
172
0
 90
2
 40
0.0
 41
0.0
173
1
 91
-1056964608
 92
-2
290
1
 42
2.0
291
1
 43
8.0
  3
Standard
 44
4.0
300

342
29
174
1
175
1
176
0
178
1
 93
-1056964608
 45
4.0
292
0
297
0
 46
4.0
 94
-1056964608
 47
1.0
 49
1.0
140
1.0
294
1
141
0.0
177
0
142
1.0
295
0
296
0
143
3.75
271
0
272
9
273
9
  0
DICTIONARY
  5
2D
330
A
100
AcDbDictionary
280
1
281
1
  3
CREATED_BY_EZDXF
350
2E
  3
WRITTEN_BY_EZDXF
350
1B2
  0
DICTIONARYVAR
  5
2E
330
2D
100
DictionaryVariables
280
0
  1
1.4.3 @ 2026-03-12T01:57:40.988350+00:00
  0
DICTIONARYVAR
  5
1B2
330
2D
100
DictionaryVariables
280
0
  1
1.4.3 @ 2026-03-12T01:57:41.000052+00:00
  0
ENDSEC
  0
EOF
