  0
SECTION
  2
HEADER
  9
$ACADVER
  1
AC1015
  9
$ACADMAINTVER
 70
6
  9
$DWGCODEPAGE
  3
ANSI_1252
  9
$INSBASE
 10
0.0
 20
0.0
 30
0.0
  9
$EXTMIN
 10
1e+20
 20
1e+20
 30
1e+20
  9
$EXTMAX
 10
-1e+20
 20
-1e+20
 30
-1e+20
  9
$LIMMIN
 10
0.0
 20
0.0
  9
$LIMMAX
 10
420.0
 20
297.0
  9
$ORTHOMODE
 70
0
  9
$REGENMODE
 70
1
  9
$FILLMODE
 70
1
  9
$QTEXTMODE
 70
0
  9
$MIRRTEXT
 70
1
  9
$LTSCALE
 40
1.0
  9
$ATTMODE
 70
1
  9
$TEXTSIZE
 40
2.5
  9
$TRACEWID
 40
1.0
  9
$TEXTSTYLE
  7
Standard
  9
$CLAYER
  8
0
  9
$CELTYPE
  6
ByLayer
  9
$CECOLOR
 62
256
  9
$CELTSCALE
 40
1.0
  9
$DISPSILH
 70
0
  9
$DIMSCALE
 40
1.0
  9
$DIMASZ
 40
2.5
  9
$DIMEXO
 40
0.625
  9
$DIMDLI
 40
3.75
  9
$DIMRND
 40
0.0
  9
$DIMDLE
 40
0.0
  9
$DIMEXE
 40
1.25
  9
$DIMTP
 40
0.0
  9
$DIMTM
 40
0.0
  9
$DIMTXT
 40
2.5
  9
$DIMCEN
 40
2.5
  9
$DIMTSZ
 40
0.0
  9
$DIMTOL
 70
0
  9
$DIMLIM
 70
0
  9
$DIMTIH
 70
0
  9
$DIMTOH
 70
0
  9
$DIMSE1
 70
0
  9
$DIMSE2
 70
0
  9
$DIMTAD
 70
1
  9
$DIMZIN
 70
8
  9
$DIMBLK
  1

  9
$DIMASO
 70
1
  9
$DIMSHO
 70
1
  9
$DIMPOST
  1

  9
$DIMAPOST
  1

  9
$DIMALT
 70
0
  9
$DIMALTD
 70
3
  9
$DIMALTF
 40
0.03937007874
  9
$DIMLFAC
 40
1.0
  9
$DIMTOFL
 70
1
  9
$DIMTVP
 40
0.0
  9
$DIMTIX
 70
0
  9
$DIMSOXD
 70
0
  9
$DIMSAH
 70
0
  9
$DIMBLK1
  1

  9
$DIMBLK2
  1

  9
$DIMSTYLE
  2
ISO-25
  9
$DIMCLRD
 70
0
  9
$DIMCLRE
 70
0
  9
$DIMCLRT
 70
0
  9
$DIMTFAC
 40
1.0
  9
$DIMGAP
 40
0.625
  9
$DIMJUST
 70
0
  9
$DIMSD1
 70
0
  9
$DIMSD2
 70
0
  9
$DIMTOLJ
 70
0
  9
$DIMTZIN
 70
8
  9
$DIMALTZ
 70
0
  9
$DIMALTTZ
 70
0
  9
$DIMUPT
 70
0
  9
$DIMDEC
 70
2
  9
$DIMTDEC
 70
2
  9
$DIMALTU
 70
2
  9
$DIMALTTD
 70
3
  9
$DIMTXSTY
  7
Standard
  9
$DIMAUNIT
 70
0
  9
$DIMADEC
 70
0
  9
$DIMALTRND
 40
0.0
  9
$DIMAZIN
 70
0
  9
$DIMDSEP
 70
44
  9
$DIMATFIT
 70
3
  9
$DIMFRAC
 70
0
  9
$DIMLDRBLK
  1

  9
$DIMLUNIT
 70
2
  9
$DIMLWD
 70
-2
  9
$DIMLWE
 70
-2
  9
$DIMTMOVE
 70
0
  9
$LUNITS
 70
2
  9
$LUPREC
 70
4
  9
$SKETCHINC
 40
1.0
  9
$FILLETRAD
 40
10.0
  9
$AUNITS
 70
0
  9
$AUPREC
 70
2
  9
$MENU
  1
.
  9
$ELEVATION
 40
0.0
  9
$PELEVATION
 40
0.0
  9
$THICKNESS
 40
0.0
  9
$LIMCHECK
 70
0
  9
$CHAMFERA
 40
0.0
  9
$CHAMFERB
 40
0.0
  9
$CHAMFERC
 40
0.0
  9
$CHAMFERD
 40
0.0
  9
$SKPOLY
 70
0
  9
$TDCREATE
 40
2461111.7449768516
  9
$TDUCREATE
 40
2458532.153996898
  9
$TDUPDATE
 40
2461111.7449768516
  9
$TDUUPDATE
 40
2458532.1544311
  9
$TDINDWG
 40
0.0
  9
$TDUSRTIMER
 40
0.0
  9
$USRTIMER
 70
1
  9
$ANGBASE
 50
0.0
  9
$ANGDIR
 70
0
  9
$PDMODE
 70
0
  9
$PDSIZE
 40
0.0
  9
$PLINEWID
 40
0.0
  9
$SPLFRAME
 70
0
  9
$SPLINETYPE
 70
6
  9
$SPLINESEGS
 70
8
  9
$HANDSEED
  5
1B9
  9
$SURFTAB1
 70
6
  9
$SURFTAB2
 70
6
  9
$SURFTYPE
 70
6
  9
$SURFU
 70
6
  9
$SURFV
 70
6
  9
$UCSBASE
  2

  9
$UCSNAME
  2

  9
$UCSORG
 10
0.0
 20
0.0
 30
0.0
  9
$UCSXDIR
 10
1.0
 20
0.0
 30
0.0
  9
$UCSYDIR
 10
0.0
 20
1.0
 30
0.0
  9
$UCSORTHOREF
  2

  9
$UCSORTHOVIEW
 70
0
  9
$UCSORGTOP
 10
0.0
 20
0.0
 30
0.0
  9
$UCSORGBOTTOM
 10
0.0
 20
0.0
 30
0.0
  9
$UCSORGLEFT
 10
0.0
 20
0.0
 30
0.0
  9
$UCSORGRIGHT
 10
0.0
 20
0.0
 30
0.0
  9
$UCSORGFRONT
 10
0.0
 20
0.0
 30
0.0
  9
$UCSORGBACK
 10
0.0
 20
0.0
 30
0.0
  9
$PUCSBASE
  2

  9
$PUCSNAME
  2

  9
$PUCSORG
 10
0.0
 20
0.0
 30
0.0
  9
$PUCSXDIR
 10
1.0
 20
0.0
 30
0.0
  9
$PUCSYDIR
 10
0.0
 20
1.0
 30
0.0
  9
$PUCSORTHOREF
  2

  9
$PUCSORTHOVIEW
 70
0
  9
$PUCSORGTOP
 10
0.0
 20
0.0
 30
0.0
  9
$PUCSORGBOTTOM
 10
0.0
 20
0.0
 30
0.0
  9
$PUCSORGLEFT
 10
0.0
 20
0.0
 30
0.0
  9
$PUCSORGRIGHT
 10
0.0
 20
0.0
 30
0.0
  9
$PUCSORGFRONT
 10
0.0
 20
0.0
 30
0.0
  9
$PUCSORGBACK
 10
0.0
 20
0.0
 30
0.0
  9
$USERI1
 70
0
  9
$USERI2
 70
0
  9
$USERI3
 70
0
  9
$USERI4
 70
0
  9
$USERI5
 70
0
  9
$USERR1
 40
0.0
  9
$USERR2
 40
0.0
  9
$USERR3
 40
0.0
  9
$USERR4
 40
0.0
  9
$USERR5
 40
0.0
  9
$WORLDVIEW
 70
1
  9
$SHADEDGE
 70
3
  9
$SHADEDIF
 70
70
  9
$TILEMODE
 70
1
  9
$MAXACTVP
 70
64
  9
$PINSBASE
 10
0.0
 20
0.0
 30
0.0
  9
$PLIMCHECK
 70
0
  9
$PEXTMIN
 10
1e+20
 20
1e+20
 30
1e+20
  9
$PEXTMAX
 10
-1e+20
 20
-1e+20
 30
-1e+20
  9
$PLIMMIN
 10
0.0
 20
0.0
  9
$PLIMMAX
 10
420.0
 20
297.0
  9
$UNITMODE
 70
0
  9
$VISRETAIN
 70
1
  9
$PLINEGEN
 70
0
  9
$PSLTSCALE
 70
1
  9
$TREEDEPTH
 70
3020
  9
$CMLSTYLE
  2
Standard
  9
$CMLJUST
 70
0
  9
$CMLSCALE
 40
20.0
  9
$PROXYGRAPHICS
 70
1
  9
$MEASUREMENT
 70
1
  9
$CELWEIGHT
370
-1
  9
$ENDCAPS
280
0
  9
$JOINSTYLE
280
0
  9
$LWDISPLAY
290
0
  9
$INSUNITS
 70
6
  9
$HYPERLINKBASE
  1

  9
$STYLESHEET
  1

  9
$XEDIT
290
1
  9
$CEPSNTYPE
380
0
  9
$PSTYLEMODE
290
1
  9
$FINGERPRINTGUID
  2
{CE34525B-FAC4-4C35-9967-BEAD6171BE2E}
  9
$VERSIONGUID
  2
{3C907BDD-5724-48AC-95D1-07072904B1D9}
  9
$EXTNAMES
290
1
  9
$PSVPSCALE
 40
0.0
  9
$OLESTARTUP
290
0
  0
ENDSEC
  0
SECTION
  2
CLASSES
  0
CLASS
  1
ACDBDICTIONARYWDFLT
  2
AcDbDictionaryWithDefault
  3
ObjectDBX Classes
 90
0
280
0
281
0
  0
CLASS
  1
SUN
  2
AcDbSun
  3
SCENEOE
 90
1153
280
0
281
0
  0
CLASS
  1
VISUALSTYLE
  2
AcDbVisualStyle
  3
ObjectDBX Classes
 90
4095
280
0
281
0
  0
CLASS
  1
MATERIAL
  2
AcDbMaterial
  3
ObjectDBX Classes
 90
1153
280
0
281
0
  0
CLASS
  1
SCALE
  2
AcDbScale
  3
ObjectDBX Classes
 90
1153
280
0
281
0
  0
CLASS
  1
TABLESTYLE
  2
AcDbTableStyle
  3
ObjectDBX Classes
 90
4095
280
0
281
0
  0
CLASS
  1
MLEADERSTYLE
  2
AcDbMLeaderStyle
  3
ACDB_MLEADERSTYLE_CLASS
 90
4095
280
0
281
0
  0
CLASS
  1
DICTIONARYVAR
  2
AcDbDictionaryVar
  3
ObjectDBX Classes
 90
0
280
0
281
0
  0
CLASS
  1
CELLSTYLEMAP
  2
AcDbCellStyleMap
  3
ObjectDBX Classes
 90
1152
280
0
281
0
  0
CLASS
  1
MENTALRAYRENDERSETTINGS
  2
AcDbMentalRayRenderSettings
  3
SCENEOE
 90
1024
280
0
281
0
  0
CLASS
  1
ACDBDETAILVIEWSTYLE
  2
AcDbDetailViewStyle
  3
ObjectDBX Classes
 90
1025
280
0
281
0
  0
CLASS
  1
ACDBSECTIONVIEWSTYLE
  2
AcDbSectionViewStyle
  3
ObjectDBX Classes
 90
1025
280
0
281
0
  0
CLASS
  1
RASTERVARIABLES
  2
AcDbRasterVariables
  3
ISM
 90
0
280
0
281
0
  0
CLASS
  1
ACDBPLACEHOLDER
  2
AcDbPlaceHolder
  3
ObjectDBX Classes
 90
0
280
0
281
0
  0
CLASS
  1
LAYOUT
  2
AcDbLayout
  3
ObjectDBX Classes
 90
0
280
0
281
0
  0
ENDSEC
  0
SECTION
  2
TABLES
  0
TABLE
  2
VPORT
  5
8
330
0
100
AcDbSymbolTable
 70
1
  0
VPORT
  5
23
330
8
100
AcDbSymbolTableRecord
100
AcDbViewportTableRecord
  2
*Active
 70
0
 10
0.0
 20
0.0
 11
1.0
 21
1.0
 12
0.0
 22
0.0
 13
0.0
 23
0.0
 14
0.5
 24
0.5
 15
0.5
 25
0.5
 16
0.0
 26
0.0
 36
1.0
 17
0.0
 27
0.0
 37
0.0
 40
1000.0
 41
1.34
 42
50.0
 43
0.0
 44
0.0
 50
0.0
 51
0.0
 71
0
 72
1000
 73
1
 74
3
 75
0
 76
0
 77
0
 78
0
281
0
 65
0
146
0.0
  0
ENDTAB
  0
TABLE
  2
LTYPE
  5
2
330
0
100
AcDbSymbolTable
 70
3
  0
LTYPE
  5
24
330
2
100
AcDbSymbolTableRecord
100
AcDbLinetypeTableRecord
  2
ByBlock
 70
0
  3

 72
65
 73
0
 40
0.0
  0
LTYPE
  5
25
330
2
100
AcDbSymbolTableRecord
100
AcDbLinetypeTableRecord
  2
ByLayer
 70
0
  3

 72
65
 73
0
 40
0.0
  0
LTYPE
  5
26
330
2
100
AcDbSymbolTableRecord
100
AcDbLinetypeTableRecord
  2
Continuous
 70
0
  3

 72
65
 73
0
 40
0.0
  0
ENDTAB
  0
TABLE
  2
LAYER
  5
1
330
0
100
AcDbSymbolTable
 70
11
  0
LAYER
  5
27
330
1
100
AcDbSymbolTableRecord
100
AcDbLayerTableRecord
  2
0
 70
0
 62
7
  6
Continuous
370
-3
390
13
  0
LAYER
  5
28
330
1
100
AcDbSymbolTableRecord
100
AcDbLayerTableRecord
  2
Defpoints
 70
0
 62
7
  6
Continuous
290
0
370
-3
390
13
  0
LAYER
  5
2F
330
1
100
AcDbSymbolTableRecord
100
AcDbLayerTableRecord
  2
Paineis
 70
0
 62
7
  6
Continuous
370
-3
390
13
  0
LAYER
  5
30
330
1
100
AcDbSymbolTableRecord
100
AcDbLayerTableRecord
  2
CONCRETO
 70
0
 62
8
  6
Continuous
370
-3
390
13
  0
LAYER
  5
31
330
1
100
AcDbSymbolTableRecord
100
AcDbLayerTableRecord
  2
SARR_3.5x7
 70
0
 62
30
  6
Continuous
370
-3
390
13
  0
LAYER
  5
32
330
1
100
AcDbSymbolTableRecord
100
AcDbLayerTableRecord
  2
Madeira
 70
0
 62
52
  6
Continuous
370
-3
390
13
  0
LAYER
  5
33
330
1
100
AcDbSymbolTableRecord
100
AcDbLayerTableRecord
  2
TextoSecao
 70
0
 62
7
  6
Continuous
370
-3
390
13
  0
LAYER
  5
34
330
1
100
AcDbSymbolTableRecord
100
AcDbLayerTableRecord
  2
COTA
 70
0
 62
2
  6
Continuous
370
-3
390
13
  0
LAYER
  5
35
330
1
100
AcDbSymbolTableRecord
100
AcDbLayerTableRecord
  2
NOMENCLATURA
 70
0
 62
7
  6
Continuous
370
-3
390
13
  0
LAYER
  5
36
330
1
100
AcDbSymbolTableRecord
100
AcDbLayerTableRecord
  2
Hachura
 70
0
 62
8
  6
Continuous
370
-3
390
13
  0
LAYER
  5
37
330
1
100
AcDbSymbolTableRecord
100
AcDbLayerTableRecord
  2
REAPROVEITAMENTO
 70
0
 62
3
  6
Continuous
370
-3
390
13
  0
ENDTAB
  0
TABLE
  2
STYLE
  5
5
330
0
100
AcDbSymbolTable
 70
1
  0
STYLE
  5
29
330
5
100
AcDbSymbolTableRecord
100
AcDbTextStyleTableRecord
  2
Standard
 70
0
 40
0.0
 41
1.0
 50
0.0
 71
0
 42
2.5
  3
txt
  4

  0
ENDTAB
  0
TABLE
  2
VIEW
  5
7
330
0
100
AcDbSymbolTable
 70
0
  0
ENDTAB
  0
TABLE
  2
UCS
  5
6
330
0
100
AcDbSymbolTable
 70
0
  0
ENDTAB
  0
TABLE
  2
APPID
  5
3
330
0
100
AcDbSymbolTable
 70
3
  0
APPID
  5
2A
330
3
100
AcDbSymbolTableRecord
100
AcDbRegAppTableRecord
  2
ACAD
 70
0
  0
APPID
  5
1B6
330
3
100
AcDbSymbolTableRecord
100
AcDbRegAppTableRecord
  2
HATCHBACKGROUNDCOLOR
 70
0
  0
APPID
  5
1B7
330
3
100
AcDbSymbolTableRecord
100
AcDbRegAppTableRecord
  2
EZDXF
 70
0
  0
ENDTAB
  0
TABLE
  2
DIMSTYLE
  5
4
330
0
100
AcDbSymbolTable
 70
1
100
AcDbDimStyleTable
  0
DIMSTYLE
105
2B
330
4
100
AcDbSymbolTableRecord
100
AcDbDimStyleTableRecord
  2
Standard
 70
0
  3

  4

 40
1.0
 41
2.5
 42
0.625
 43
3.75
 44
1.25
 45
0.0
 46
0.0
 47
0.0
 48
0.0
140
2.5
141
2.5
142
0.0
143
0.03937007874
144
1.0
145
0.0
146
1.0
147
0.625
148
0.0
 71
0
 72
0
 73
0
 74
0
 75
0
 76
0
 77
1
 78
8
 79
3
170
0
171
3
172
1
173
0
174
0
175
0
176
0
177
0
178
0
179
2
271
2
272
2
273
2
274
3
275
0
276
0
277
2
278
44
279
0
280
0
281
0
282
0
283
0
284
8
285
0
286
0
288
0
289
3
371
-2
372
-2
  0
ENDTAB
  0
TABLE
  2
BLOCK_RECORD
  5
9
330
0
100
AcDbSymbolTable
 70
2
  0
BLOCK_RECORD
  5
17
330
9
100
AcDbSymbolTableRecord
100
AcDbBlockTableRecord
  2
*Model_Space
340
1A
  0
BLOCK_RECORD
  5
1B
330
9
100
AcDbSymbolTableRecord
100
AcDbBlockTableRecord
  2
*Paper_Space
340
1E
  0
ENDTAB
  0
ENDSEC
  0
SECTION
  2
BLOCKS
  0
BLOCK
  5
18
330
17
100
AcDbEntity
  8
0
100
AcDbBlockBegin
  2
*Model_Space
 70
0
 10
0.0
 20
0.0
 30
0.0
  3
*Model_Space
  1

  0
ENDBLK
  5
19
330
17
100
AcDbEntity
  8
0
100
AcDbBlockEnd
  0
BLOCK
  5
1C
330
1B
100
AcDbEntity
  8
0
100
AcDbBlockBegin
  2
*Paper_Space
 70
0
 10
0.0
 20
0.0
 30
0.0
  3
*Paper_Space
  1

  0
ENDBLK
  5
1D
330
1B
100
AcDbEntity
  8
0
100
AcDbBlockEnd
  0
ENDSEC
  0
SECTION
  2
ENTITIES
  0
LINE
  5
38
330
17
100
AcDbEntity
  8
Paineis
100
AcDbLine
 10
4816.2
 20
11270.2
 30
0.0
 11
5226.2
 21
11270.2
 31
0.0
  0
LINE
  5
39
330
17
100
AcDbEntity
  8
Paineis
100
AcDbLine
 10
5247.8
 20
11270.2
 30
0.0
 11
5446.3
 21
11270.2
 31
0.0
  0
LINE
  5
3A
330
17
100
AcDbEntity
  8
Paineis
100
AcDbLine
 10
5467.4
 20
11270.2
 30
0.0
 11
5610.9
 21
11270.2
 31
0.0
  0
LINE
  5
3B
330
17
100
AcDbEntity
  8
Paineis
100
AcDbLine
 10
4816.2
 20
11318.2
 30
0.0
 11
5226.2
 21
11318.2
 31
0.0
  0
LINE
  5
3C
330
17
100
AcDbEntity
  8
Paineis
100
AcDbLine
 10
5247.8
 20
11320.2
 30
0.0
 11
5446.3
 21
11320.2
 31
0.0
  0
LINE
  5
3D
330
17
100
AcDbEntity
  8
Paineis
100
AcDbLine
 10
5467.4
 20
11320.2
 30
0.0
 11
5610.9
 21
11320.2
 31
0.0
  0
LINE
  5
3E
330
17
100
AcDbEntity
  8
Paineis
100
AcDbLine
 10
4582.9
 20
11324.4
 30
0.0
 11
4620.9
 21
11324.4
 31
0.0
  0
LINE
  5
3F
330
17
100
AcDbEntity
  8
Paineis
100
AcDbLine
 10
4817.4
 20
11457.1
 30
0.0
 11
5212.4
 21
11457.1
 31
0.0
  0
LINE
  5
40
330
17
100
AcDbEntity
  8
Paineis
100
AcDbLine
 10
5284.9
 20
11457.1
 30
0.0
 11
5693.4
 21
11457.1
 31
0.0
  0
LINE
  5
41
330
17
100
AcDbEntity
  8
Paineis
100
AcDbLine
 10
4817.4
 20
11521.1
 30
0.0
 11
5212.4
 21
11521.1
 31
0.0
  0
LINE
  5
42
330
17
100
AcDbEntity
  8
Paineis
100
AcDbLine
 10
5284.9
 20
11521.1
 30
0.0
 11
5693.4
 21
11521.1
 31
0.0
  0
LINE
  5
43
330
17
100
AcDbEntity
  8
Paineis
100
AcDbLine
 10
4816.2
 20
11270.2
 30
0.0
 11
4816.2
 21
11318.2
 31
0.0
  0
LINE
  5
44
330
17
100
AcDbEntity
  8
Paineis
100
AcDbLine
 10
4817.4
 20
11457.1
 30
0.0
 11
4817.4
 21
11521.1
 31
0.0
  0
LINE
  5
45
330
17
100
AcDbEntity
  8
Paineis
100
AcDbLine
 10
4819.4
 20
11457.1
 30
0.0
 11
4819.4
 21
11521.1
 31
0.0
  0
LINE
  5
46
330
17
100
AcDbEntity
  8
Paineis
100
AcDbLine
 10
5060.2
 20
11270.2
 30
0.0
 11
5060.2
 21
11318.2
 31
0.0
  0
LINE
  5
47
330
17
100
AcDbEntity
  8
Paineis
100
AcDbLine
 10
5063.4
 20
11457.1
 30
0.0
 11
5063.4
 21
11521.1
 31
0.0
  0
LINE
  5
48
330
17
100
AcDbEntity
  8
Paineis
100
AcDbLine
 10
5210.4
 20
11457.1
 30
0.0
 11
5210.4
 21
11521.1
 31
0.0
  0
LINE
  5
49
330
17
100
AcDbEntity
  8
Paineis
100
AcDbLine
 10
5212.4
 20
11457.1
 30
0.0
 11
5212.4
 21
11521.1
 31
0.0
  0
LINE
  5
4A
330
17
100
AcDbEntity
  8
Paineis
100
AcDbLine
 10
5226.2
 20
11270.2
 30
0.0
 11
5226.2
 21
11318.2
 31
0.0
  0
LINE
  5
4B
330
17
100
AcDbEntity
  8
Paineis
100
AcDbLine
 10
5247.8
 20
11270.2
 30
0.0
 11
5247.8
 21
11320.2
 31
0.0
  0
LINE
  5
4C
330
17
100
AcDbEntity
  8
Paineis
100
AcDbLine
 10
5284.9
 20
11457.1
 30
0.0
 11
5284.9
 21
11521.1
 31
0.0
  0
LINE
  5
4D
330
17
100
AcDbEntity
  8
Paineis
100
AcDbLine
 10
5286.9
 20
11457.1
 30
0.0
 11
5286.9
 21
11521.1
 31
0.0
  0
LINE
  5
4E
330
17
100
AcDbEntity
  8
Paineis
100
AcDbLine
 10
5369.8
 20
11270.2
 30
0.0
 11
5369.8
 21
11320.2
 31
0.0
  0
LINE
  5
4F
330
17
100
AcDbEntity
  8
Paineis
100
AcDbLine
 10
5446.3
 20
11270.2
 30
0.0
 11
5446.3
 21
11320.2
 31
0.0
  0
LINE
  5
50
330
17
100
AcDbEntity
  8
Paineis
100
AcDbLine
 10
5467.4
 20
11270.2
 30
0.0
 11
5467.4
 21
11320.2
 31
0.0
  0
LINE
  5
51
330
17
100
AcDbEntity
  8
Paineis
100
AcDbLine
 10
5530.9
 20
11457.1
 30
0.0
 11
5530.9
 21
11521.1
 31
0.0
  0
LINE
  5
52
330
17
100
AcDbEntity
  8
Paineis
100
AcDbLine
 10
5549.9
 20
11270.2
 30
0.0
 11
5549.9
 21
11320.2
 31
0.0
  0
LINE
  5
53
330
17
100
AcDbEntity
  8
Paineis
100
AcDbLine
 10
5610.9
 20
11270.2
 30
0.0
 11
5610.9
 21
11320.2
 31
0.0
  0
LINE
  5
54
330
17
100
AcDbEntity
  8
Paineis
100
AcDbLine
 10
5693.4
 20
11457.1
 30
0.0
 11
5693.4
 21
11521.1
 31
0.0
  0
LWPOLYLINE
  5
55
330
17
100
AcDbEntity
  8
CONCRETO
100
AcDbPolyline
 90
8
 70
1
 10
4582.9
 20
11444.4
 10
4582.9
 20
11444.4
 10
4620.9
 20
11444.4
 10
4620.9
 20
11416.4
 10
4620.9
 20
11416.4
 10
4620.9
 20
11324.4
 10
4582.9
 20
11324.4
 10
4582.9
 20
11444.4
  0
LWPOLYLINE
  5
56
330
17
100
AcDbEntity
  8
Madeira
100
AcDbPolyline
 90
4
 70
1
 10
4578.9
 20
11440.0
 10
4578.9
 20
11444.4
 10
4564.9
 20
11444.4
 10
4564.9
 20
11440.0
  0
LWPOLYLINE
  5
57
330
17
100
AcDbEntity
  8
Madeira
100
AcDbPolyline
 90
4
 70
1
 10
4544.9
 20
11316.4
 10
4544.9
 20
11320.8
 10
4564.9
 20
11320.8
 10
4564.9
 20
11316.4
  0
LWPOLYLINE
  5
58
330
17
100
AcDbEntity
  8
Madeira
100
AcDbPolyline
 90
4
 70
1
 10
4578.9
 20
11444.4
 10
4564.9
 20
11444.4
 10
4564.9
 20
11316.4
 10
4578.9
 20
11316.4
  0
LWPOLYLINE
  5
59
330
17
100
AcDbEntity
  8
Madeira
100
AcDbPolyline
 90
4
 70
1
 10
4620.9
 20
11316.4
 10
4620.9
 20
11320.8
 10
4606.9
 20
11320.8
 10
4606.9
 20
11316.4
  0
LWPOLYLINE
  5
5A
330
17
100
AcDbEntity
  8
Madeira
100
AcDbPolyline
 90
4
 70
1
 10
4582.9
 20
11316.4
 10
4582.9
 20
11320.8
 10
4596.9
 20
11320.8
 10
4596.9
 20
11316.4
  0
LWPOLYLINE
  5
5B
330
17
100
AcDbEntity
  8
Madeira
100
AcDbPolyline
 90
4
 70
1
 10
4624.9
 20
11440.0
 10
4624.9
 20
11444.4
 10
4638.9
 20
11444.4
 10
4638.9
 20
11440.0
  0
LWPOLYLINE
  5
5C
330
17
100
AcDbEntity
  8
Madeira
100
AcDbPolyline
 90
4
 70
1
 10
4658.9
 20
11316.4
 10
4658.9
 20
11320.8
 10
4638.9
 20
11320.8
 10
4638.9
 20
11316.4
  0
LWPOLYLINE
  5
5D
330
17
100
AcDbEntity
  8
Madeira
100
AcDbPolyline
 90
4
 70
1
 10
4624.9
 20
11444.4
 10
4638.9
 20
11444.4
 10
4638.9
 20
11316.4
 10
4624.9
 20
11316.4
  0
LWPOLYLINE
  5
5E
330
17
100
AcDbEntity
  8
Madeira
100
AcDbPolyline
 90
4
 70
1
 10
4511.4
 20
11296.4
 10
4706.6
 20
11296.4
 10
4706.6
 20
11316.4
 10
4511.4
 20
11316.4
  0
LWPOLYLINE
  5
5F
330
17
100
AcDbEntity
  8
Madeira
100
AcDbPolyline
 90
4
 70
1
 10
4578.9
 20
11204.7
 10
4578.9
 20
11209.1
 10
4564.9
 20
11209.1
 10
4564.9
 20
11204.7
  0
LWPOLYLINE
  5
60
330
17
100
AcDbEntity
  8
Madeira
100
AcDbPolyline
 90
4
 70
1
 10
4544.9
 20
11113.1
 10
4544.9
 20
11117.5
 10
4564.9
 20
11117.5
 10
4564.9
 20
11113.1
  0
LWPOLYLINE
  5
61
330
17
100
AcDbEntity
  8
Madeira
100
AcDbPolyline
 90
4
 70
1
 10
4578.9
 20
11209.1
 10
4564.9
 20
11209.1
 10
4564.9
 20
11113.1
 10
4578.9
 20
11113.1
  0
LWPOLYLINE
  5
62
330
17
100
AcDbEntity
  8
Madeira
100
AcDbPolyline
 90
4
 70
1
 10
4620.9
 20
11113.1
 10
4620.9
 20
11117.5
 10
4606.9
 20
11117.5
 10
4606.9
 20
11113.1
  0
LWPOLYLINE
  5
63
330
17
100
AcDbEntity
  8
Madeira
100
AcDbPolyline
 90
4
 70
1
 10
4582.9
 20
11113.1
 10
4582.9
 20
11117.5
 10
4596.9
 20
11117.5
 10
4596.9
 20
11113.1
  0
LWPOLYLINE
  5
64
330
17
100
AcDbEntity
  8
Madeira
100
AcDbPolyline
 90
4
 70
1
 10
4624.9
 20
11236.7
 10
4624.9
 20
11241.1
 10
4638.9
 20
11241.1
 10
4638.9
 20
11236.7
  0
LWPOLYLINE
  5
65
330
17
100
AcDbEntity
  8
Madeira
100
AcDbPolyline
 90
4
 70
1
 10
4658.9
 20
11113.1
 10
4658.9
 20
11117.5
 10
4638.9
 20
11117.5
 10
4638.9
 20
11113.1
  0
LWPOLYLINE
  5
66
330
17
100
AcDbEntity
  8
Madeira
100
AcDbPolyline
 90
4
 70
1
 10
4624.9
 20
11241.1
 10
4638.9
 20
11241.1
 10
4638.9
 20
11113.1
 10
4624.9
 20
11113.1
  0
LWPOLYLINE
  5
67
330
17
100
AcDbEntity
  8
Madeira
100
AcDbPolyline
 90
4
 70
1
 10
4511.4
 20
11093.1
 10
4706.6
 20
11093.1
 10
4706.6
 20
11113.1
 10
4511.4
 20
11113.1
  0
TEXT
  5
68
330
17
100
AcDbEntity
  8
TextoSecao
100
AcDbText
 10
4604.1
 20
11449.4
 30
0.0
 40
8.0
  1
V201+V242
100
AcDbText
  0
TEXT
  5
69
330
17
100
AcDbEntity
  8
TextoSecao
100
AcDbText
 10
4604.1
 20
11434.4
 30
0.0
 40
6.0
  1
(19x60)
100
AcDbText
  0
TEXT
  5
6A
330
17
100
AcDbEntity
  8
TextoSecao
100
AcDbText
 10
4820.6
 20
11339.0
 30
0.0
 40
5.0
  1
CONT. V201+V242.A
100
AcDbText
  0
TEXT
  5
6B
330
17
100
AcDbEntity
  8
TextoSecao
100
AcDbText
 10
4820.6
 20
11141.5
 30
0.0
 40
5.0
  1
CONT. V201+V242.A
100
AcDbText
  0
TEXT
  5
6C
330
17
100
AcDbEntity
  8
TextoSecao
100
AcDbText
 10
4820.6
 20
10959.2
 30
0.0
 40
5.0
  1
CONT. V201+V242.A
100
AcDbText
  0
TEXT
  5
6D
330
17
100
AcDbEntity
  8
TextoSecao
100
AcDbText
 10
6025.0
 20
11233.6
 30
0.0
 40
5.0
  1
CONT. V201+V242.B
100
AcDbText
  0
TEXT
  5
6E
330
17
100
AcDbEntity
  8
TextoSecao
100
AcDbText
 10
6025.0
 20
11027.4
 30
0.0
 40
5.0
  1
CONT. V201+V242.B
100
AcDbText
  0
TEXT
  5
6F
330
17
100
AcDbEntity
  8
NOMENCLATURA
100
AcDbText
 10
5233.4
 20
11369.8
 30
0.0
 40
5.0
  1
P2
100
AcDbText
  0
TEXT
  5
70
330
17
100
AcDbEntity
  8
NOMENCLATURA
100
AcDbText
 10
4816.6
 20
11379.1
 30
0.0
 40
5.0
  1
P1
100
AcDbText
  0
TEXT
  5
71
330
17
100
AcDbEntity
  8
NOMENCLATURA
100
AcDbText
 10
5173.6
 20
10814.1
 30
0.0
 40
5.0
  1
P8
100
AcDbText
  0
TEXT
  5
72
330
17
100
AcDbEntity
  8
NOMENCLATURA
100
AcDbText
 10
6023.7
 20
11299.8
 30
0.0
 40
5.0
  1
P8
100
AcDbText
  0
HATCH
  5
73
330
17
100
AcDbEntity
  8
Hachura
 62
8
100
AcDbHatch
 10
0.0
 20
0.0
 30
0.0
210
0.0
220
0.0
230
1.0
  2
SOLID
 70
1
 71
0
 91
1
 92
3
 72
0
 73
1
 93
8
 10
4578.9
 20
11444.4
 10
4582.9
 20
11444.4
 10
4582.9
 20
11444.4
 10
4582.9
 20
11316.4
 10
4582.9
 20
11316.4
 10
4578.9
 20
11316.4
 10
4578.9
 20
11316.4
 10
4578.9
 20
11444.4
 97
0
 75
1
 76
1
 98
0
  0
HATCH
  5
74
330
17
100
AcDbEntity
  8
Hachura
 62
7
100
AcDbHatch
 10
0.0
 20
0.0
 30
0.0
210
0.0
220
0.0
230
1.0
  2
ANSI31
 70
0
 71
0
 91
1
 92
3
 72
0
 73
1
 93
8
 10
4578.9
 20
11440.0
 10
4578.9
 20
11444.4
 10
4578.9
 20
11444.4
 10
4564.9
 20
11444.4
 10
4564.9
 20
11444.4
 10
4564.9
 20
11440.0
 10
4564.9
 20
11440.0
 10
4578.9
 20
11440.0
 97
0
 75
1
 76
1
 52
0.0
 41
0.5
 77
0
 78
1
 53
45.0
 43
0.0
 44
0.0
 45
-1.1225320152
 46
1.1225320152
 79
0
 98
0
  0
HATCH
  5
75
330
17
100
AcDbEntity
  8
Hachura
 62
7
100
AcDbHatch
 10
0.0
 20
0.0
 30
0.0
210
0.0
220
0.0
230
1.0
  2
ANSI31
 70
0
 71
0
 91
1
 92
3
 72
0
 73
1
 93
8
 10
4544.9
 20
11316.4
 10
4544.9
 20
11320.8
 10
4544.9
 20
11320.8
 10
4564.9
 20
11320.8
 10
4564.9
 20
11320.8
 10
4564.9
 20
11316.4
 10
4564.9
 20
11316.4
 10
4544.9
 20
11316.4
 97
0
 75
1
 76
1
 52
0.0
 41
0.5
 77
0
 78
1
 53
45.0
 43
0.0
 44
0.0
 45
-1.1225320152
 46
1.1225320152
 79
0
 98
0
  0
HATCH
  5
76
330
17
100
AcDbEntity
  8
Hachura
 62
7
100
AcDbHatch
 10
0.0
 20
0.0
 30
0.0
210
0.0
220
0.0
230
1.0
  2
ANSI31
 70
0
 71
0
 91
1
 92
3
 72
0
 73
1
 93
8
 10
4620.9
 20
11316.4
 10
4620.9
 20
11320.8
 10
4620.9
 20
11320.8
 10
4606.9
 20
11320.8
 10
4606.9
 20
11320.8
 10
4606.9
 20
11316.4
 10
4606.9
 20
11316.4
 10
4620.9
 20
11316.4
 97
0
 75
1
 76
1
 52
0.0
 41
0.5
 77
0
 78
1
 53
45.0
 43
0.0
 44
0.0
 45
-1.1225320152
 46
1.1225320152
 79
0
 98
0
  0
HATCH
  5
77
330
17
100
AcDbEntity
  8
Hachura
 62
8
100
AcDbHatch
 10
0.0
 20
0.0
 30
0.0
210
0.0
220
0.0
230
1.0
  2
SOLID
 70
1
 71
0
 91
1
 92
3
 72
0
 73
1
 93
8
 10
4620.9
 20
11320.8
 10
4620.9
 20
11324.4
 10
4620.9
 20
11324.4
 10
4582.9
 20
11324.4
 10
4582.9
 20
11324.4
 10
4582.9
 20
11320.8
 10
4582.9
 20
11320.8
 10
4620.9
 20
11320.8
 97
0
 75
1
 76
1
 98
0
  0
HATCH
  5
78
330
17
100
AcDbEntity
  8
Hachura
 62
7
100
AcDbHatch
 10
0.0
 20
0.0
 30
0.0
210
0.0
220
0.0
230
1.0
  2
ANSI31
 70
0
 71
0
 91
1
 92
3
 72
0
 73
1
 93
8
 10
4582.9
 20
11316.4
 10
4582.9
 20
11320.8
 10
4582.9
 20
11320.8
 10
4596.9
 20
11320.8
 10
4596.9
 20
11320.8
 10
4596.9
 20
11316.4
 10
4596.9
 20
11316.4
 10
4582.9
 20
11316.4
 97
0
 75
1
 76
1
 52
0.0
 41
0.5
 77
0
 78
1
 53
45.0
 43
0.0
 44
0.0
 45
-1.1225320152
 46
1.1225320152
 79
0
 98
0
  0
HATCH
  5
79
330
17
100
AcDbEntity
  8
Hachura
 62
8
100
AcDbHatch
 10
0.0
 20
0.0
 30
0.0
210
0.0
220
0.0
230
1.0
  2
SOLID
 70
1
 71
0
 91
1
 92
3
 72
0
 73
1
 93
8
 10
4624.9
 20
11444.4
 10
4620.9
 20
11444.4
 10
4620.9
 20
11444.4
 10
4620.9
 20
11316.4
 10
4620.9
 20
11316.4
 10
4624.9
 20
11316.4
 10
4624.9
 20
11316.4
 10
4624.9
 20
11444.4
 97
0
 75
1
 76
1
 98
0
  0
HATCH
  5
7A
330
17
100
AcDbEntity
  8
Hachura
 62
7
100
AcDbHatch
 10
0.0
 20
0.0
 30
0.0
210
0.0
220
0.0
230
1.0
  2
ANSI31
 70
0
 71
0
 91
1
 92
3
 72
0
 73
1
 93
8
 10
4624.9
 20
11440.0
 10
4624.9
 20
11444.4
 10
4624.9
 20
11444.4
 10
4638.9
 20
11444.4
 10
4638.9
 20
11444.4
 10
4638.9
 20
11440.0
 10
4638.9
 20
11440.0
 10
4624.9
 20
11440.0
 97
0
 75
1
 76
1
 52
0.0
 41
0.5
 77
0
 78
1
 53
45.0
 43
0.0
 44
0.0
 45
-1.1225320152
 46
1.1225320152
 79
0
 98
0
  0
HATCH
  5
7B
330
17
100
AcDbEntity
  8
Hachura
 62
7
100
AcDbHatch
 10
0.0
 20
0.0
 30
0.0
210
0.0
220
0.0
230
1.0
  2
ANSI31
 70
0
 71
0
 91
1
 92
3
 72
0
 73
1
 93
8
 10
4658.9
 20
11316.4
 10
4658.9
 20
11320.8
 10
4658.9
 20
11320.8
 10
4638.9
 20
11320.8
 10
4638.9
 20
11320.8
 10
4638.9
 20
11316.4
 10
4638.9
 20
11316.4
 10
4658.9
 20
11316.4
 97
0
 75
1
 76
1
 52
0.0
 41
0.5
 77
0
 78
1
 53
45.0
 43
0.0
 44
0.0
 45
-1.1225320152
 46
1.1225320152
 79
0
 98
0
  0
HATCH
  5
7C
330
17
100
AcDbEntity
  8
Hachura
 62
8
100
AcDbHatch
 10
0.0
 20
0.0
 30
0.0
210
0.0
220
0.0
230
1.0
  2
SOLID
 70
1
 71
0
 91
1
 92
3
 72
0
 73
1
 93
8
 10
4578.9
 20
11213.1
 10
4582.9
 20
11213.1
 10
4582.9
 20
11213.1
 10
4582.9
 20
11113.1
 10
4582.9
 20
11113.1
 10
4578.9
 20
11113.1
 10
4578.9
 20
11113.1
 10
4578.9
 20
11213.1
 97
0
 75
1
 76
1
 98
0
  0
HATCH
  5
7D
330
17
100
AcDbEntity
  8
Hachura
 62
7
100
AcDbHatch
 10
0.0
 20
0.0
 30
0.0
210
0.0
220
0.0
230
1.0
  2
ANSI31
 70
0
 71
0
 91
1
 92
3
 72
0
 73
1
 93
8
 10
4578.9
 20
11204.7
 10
4578.9
 20
11209.1
 10
4578.9
 20
11209.1
 10
4564.9
 20
11209.1
 10
4564.9
 20
11209.1
 10
4564.9
 20
11204.7
 10
4564.9
 20
11204.7
 10
4578.9
 20
11204.7
 97
0
 75
1
 76
1
 52
0.0
 41
0.5
 77
0
 78
1
 53
45.0
 43
0.0
 44
0.0
 45
-1.1225320152
 46
1.1225320152
 79
0
 98
0
  0
HATCH
  5
7E
330
17
100
AcDbEntity
  8
Hachura
 62
7
100
AcDbHatch
 10
0.0
 20
0.0
 30
0.0
210
0.0
220
0.0
230
1.0
  2
ANSI31
 70
0
 71
0
 91
1
 92
3
 72
0
 73
1
 93
8
 10
4544.9
 20
11113.1
 10
4544.9
 20
11117.5
 10
4544.9
 20
11117.5
 10
4564.9
 20
11117.5
 10
4564.9
 20
11117.5
 10
4564.9
 20
11113.1
 10
4564.9
 20
11113.1
 10
4544.9
 20
11113.1
 97
0
 75
1
 76
1
 52
0.0
 41
0.5
 77
0
 78
1
 53
45.0
 43
0.0
 44
0.0
 45
-1.1225320152
 46
1.1225320152
 79
0
 98
0
  0
HATCH
  5
7F
330
17
100
AcDbEntity
  8
Hachura
 62
7
100
AcDbHatch
 10
0.0
 20
0.0
 30
0.0
210
0.0
220
0.0
230
1.0
  2
ANSI31
 70
0
 71
0
 91
1
 92
3
 72
0
 73
1
 93
8
 10
4620.9
 20
11113.1
 10
4620.9
 20
11117.5
 10
4620.9
 20
11117.5
 10
4606.9
 20
11117.5
 10
4606.9
 20
11117.5
 10
4606.9
 20
11113.1
 10
4606.9
 20
11113.1
 10
4620.9
 20
11113.1
 97
0
 75
1
 76
1
 52
0.0
 41
0.5
 77
0
 78
1
 53
45.0
 43
0.0
 44
0.0
 45
-1.1225320152
 46
1.1225320152
 79
0
 98
0
  0
HATCH
  5
80
330
17
100
AcDbEntity
  8
Hachura
 62
8
100
AcDbHatch
 10
0.0
 20
0.0
 30
0.0
210
0.0
220
0.0
230
1.0
  2
SOLID
 70
1
 71
0
 91
1
 92
3
 72
0
 73
1
 93
8
 10
4620.9
 20
11117.5
 10
4620.9
 20
11121.1
 10
4620.9
 20
11121.1
 10
4582.9
 20
11121.1
 10
4582.9
 20
11121.1
 10
4582.9
 20
11117.5
 10
4582.9
 20
11117.5
 10
4620.9
 20
11117.5
 97
0
 75
1
 76
1
 98
0
  0
HATCH
  5
81
330
17
100
AcDbEntity
  8
Hachura
 62
7
100
AcDbHatch
 10
0.0
 20
0.0
 30
0.0
210
0.0
220
0.0
230
1.0
  2
ANSI31
 70
0
 71
0
 91
1
 92
3
 72
0
 73
1
 93
8
 10
4582.9
 20
11113.1
 10
4582.9
 20
11117.5
 10
4582.9
 20
11117.5
 10
4596.9
 20
11117.5
 10
4596.9
 20
11117.5
 10
4596.9
 20
11113.1
 10
4596.9
 20
11113.1
 10
4582.9
 20
11113.1
 97
0
 75
1
 76
1
 52
0.0
 41
0.5
 77
0
 78
1
 53
45.0
 43
0.0
 44
0.0
 45
-1.1225320152
 46
1.1225320152
 79
0
 98
0
  0
HATCH
  5
82
330
17
100
AcDbEntity
  8
Hachura
 62
8
100
AcDbHatch
 10
0.0
 20
0.0
 30
0.0
210
0.0
220
0.0
230
1.0
  2
SOLID
 70
1
 71
0
 91
1
 92
3
 72
0
 73
1
 93
8
 10
4624.9
 20
11241.1
 10
4620.9
 20
11241.1
 10
4620.9
 20
11241.1
 10
4620.9
 20
11113.1
 10
4620.9
 20
11113.1
 10
4624.9
 20
11113.1
 10
4624.9
 20
11113.1
 10
4624.9
 20
11241.1
 97
0
 75
1
 76
1
 98
0
  0
HATCH
  5
83
330
17
100
AcDbEntity
  8
Hachura
 62
7
100
AcDbHatch
 10
0.0
 20
0.0
 30
0.0
210
0.0
220
0.0
230
1.0
  2
ANSI31
 70
0
 71
0
 91
1
 92
3
 72
0
 73
1
 93
8
 10
4624.9
 20
11236.7
 10
4624.9
 20
11241.1
 10
4624.9
 20
11241.1
 10
4638.9
 20
11241.1
 10
4638.9
 20
11241.1
 10
4638.9
 20
11236.7
 10
4638.9
 20
11236.7
 10
4624.9
 20
11236.7
 97
0
 75
1
 76
1
 52
0.0
 41
0.5
 77
0
 78
1
 53
45.0
 43
0.0
 44
0.0
 45
-1.1225320152
 46
1.1225320152
 79
0
 98
0
  0
HATCH
  5
84
330
17
100
AcDbEntity
  8
Hachura
 62
7
100
AcDbHatch
 10
0.0
 20
0.0
 30
0.0
210
0.0
220
0.0
230
1.0
  2
ANSI31
 70
0
 71
0
 91
1
 92
3
 72
0
 73
1
 93
8
 10
4658.9
 20
11113.1
 10
4658.9
 20
11117.5
 10
4658.9
 20
11117.5
 10
4638.9
 20
11117.5
 10
4638.9
 20
11117.5
 10
4638.9
 20
11113.1
 10
4638.9
 20
11113.1
 10
4658.9
 20
11113.1
 97
0
 75
1
 76
1
 52
0.0
 41
0.5
 77
0
 78
1
 53
45.0
 43
0.0
 44
0.0
 45
-1.1225320152
 46
1.1225320152
 79
0
 98
0
  0
HATCH
  5
85
330
17
100
AcDbEntity
  8
Hachura
 62
8
100
AcDbHatch
 10
0.0
 20
0.0
 30
0.0
210
0.0
220
0.0
230
1.0
  2
SOLID
 70
1
 71
0
 91
1
 92
3
 72
0
 73
1
 93
8
 10
4582.9
 20
11209.1
 10
4582.9
 20
11213.1
 10
4582.9
 20
11213.1
 10
4527.3
 20
11213.1
 10
4527.3
 20
11213.1
 10
4527.3
 20
11209.1
 10
4527.3
 20
11209.1
 10
4582.9
 20
11209.1
 97
0
 75
1
 76
1
 98
0
  0
HATCH
  5
86
330
17
100
AcDbEntity
  8
COTA
 62
7
100
AcDbHatch
 10
0.0
 20
0.0
 30
0.0
210
0.0
220
0.0
230
1.0
  2
AR-CONC
 70
0
 71
0
 91
1
 92
3
 72
0
 73
1
 93
4
 10
5226.2
 20
11334.2
 10
4816.2
 20
11334.2
 10
4816.2
 20
11318.2
 10
5226.2
 20
11318.2
 97
0
 75
1
 76
1
 52
0.0
 41
0.03
 77
0
 78
13
 53
50.0
 43
0.0
 44
0.0
 45
5.4655400699
 46
-0.4781725662
 79
2
 49
0.5715
 49
-6.2865
 53
355.0
 43
0.0
 44
0.0
 45
-1.0573026428
 46
5.7317053572
 79
2
 49
0.4572
 49
-5.0292175251
 53
100.4514447
 43
0.45546021
 44
-0.039847605
 45
4.4082374127
 46
5.2535325574
 79
2
 49
0.485700264
 49
-5.342707338
 53
46.1842
 43
0.0
 44
1.524
 45
8.1323712268
 46
-1.261269838
 79
2
 49
0.85725
 49
-9.42975
 53
96.63555761
 43
0.677697
 44
1.418895
 45
7.1221240215
 46
7.4227837379
 79
2
 49
0.7285506942
 49
-8.0140682448
 53
351.18415117
 43
0.0
 44
1.524
 45
7.1221240219
 46
7.4227837376
 79
2
 49
0.6857990121
 49
-7.5437919576
 53
21.0
 43
0.762
 44
1.143
 45
4.5484317381
 46
-3.0679559456
 79
2
 49
0.5715
 49
-6.2865
 53
326.0
 43
0.762
 44
1.143
 45
1.8540608504
 46
5.5256389837
 79
2
 49
0.4572
 49
-5.0292
 53
71.451445
 43
1.141035978
 44
0.887337003
 45
6.4024925784
 46
2.4576830666
 79
2
 49
0.485700264
 49
-5.342698128
 53
37.5
 43
0.0
 44
0.0
 45
0.0926580975
 46
2.5366511662
 79
6
 49
0.0
 49
-4.96824
 49
0.0
 49
-5.1054
 49
0.0
 49
-5.04825
 53
7.5
 43
0.0
 44
0.0
 45
2.0045898753
 46
3.0054172445
 79
6
 49
0.0
 49
-2.91084
 49
0.0
 49
-4.85394
 49
0.0
 49
-1.92405
 53
-32.5
 43
-1.69926
 44
0.0
 45
4.067717855
 46
-0.1718623198
 79
6
 49
0.0
 49
-1.905
 49
0.0
 49
-5.9436
 49
0.0
 49
-7.8867
 53
-42.5
 43
-2.46126
 44
0.0
 45
4.4438754416
 46
0.762794731
 79
6
 49
0.0
 49
-2.4765
 49
0.0
 49
-3.94716
 49
0.0
 49
-5.6007
 98
0
  0
HATCH
  5
87
330
17
100
AcDbEntity
  8
COTA
 62
7
100
AcDbHatch
 10
0.0
 20
0.0
 30
0.0
210
0.0
220
0.0
230
1.0
  2
AR-CONC
 70
0
 71
0
 91
1
 92
3
 72
0
 73
1
 93
8
 10
5446.3
 20
11320.2
 10
5446.3
 20
11334.2
 10
5446.3
 20
11334.2
 10
5247.8
 20
11334.2
 10
5247.8
 20
11334.2
 10
5247.8
 20
11320.2
 10
5247.8
 20
11320.2
 10
5446.3
 20
11320.2
 97
0
 75
1
 76
1
 52
0.0
 41
0.03
 77
0
 78
13
 53
50.0
 43
0.0
 44
0.0
 45
5.4655400699
 46
-0.4781725662
 79
2
 49
0.5715
 49
-6.2865
 53
355.0
 43
0.0
 44
0.0
 45
-1.0573026428
 46
5.7317053572
 79
2
 49
0.4572
 49
-5.0292175251
 53
100.4514447
 43
0.45546021
 44
-0.039847605
 45
4.4082374127
 46
5.2535325574
 79
2
 49
0.485700264
 49
-5.342707338
 53
46.1842
 43
0.0
 44
1.524
 45
8.1323712268
 46
-1.261269838
 79
2
 49
0.85725
 49
-9.42975
 53
96.63555761
 43
0.677697
 44
1.418895
 45
7.1221240215
 46
7.4227837379
 79
2
 49
0.7285506942
 49
-8.0140682448
 53
351.18415117
 43
0.0
 44
1.524
 45
7.1221240219
 46
7.4227837376
 79
2
 49
0.6857990121
 49
-7.5437919576
 53
21.0
 43
0.762
 44
1.143
 45
4.5484317381
 46
-3.0679559456
 79
2
 49
0.5715
 49
-6.2865
 53
326.0
 43
0.762
 44
1.143
 45
1.8540608504
 46
5.5256389837
 79
2
 49
0.4572
 49
-5.0292
 53
71.451445
 43
1.141035978
 44
0.887337003
 45
6.4024925784
 46
2.4576830666
 79
2
 49
0.485700264
 49
-5.342698128
 53
37.5
 43
0.0
 44
0.0
 45
0.0926580975
 46
2.5366511662
 79
6
 49
0.0
 49
-4.96824
 49
0.0
 49
-5.1054
 49
0.0
 49
-5.04825
 53
7.5
 43
0.0
 44
0.0
 45
2.0045898753
 46
3.0054172445
 79
6
 49
0.0
 49
-2.91084
 49
0.0
 49
-4.85394
 49
0.0
 49
-1.92405
 53
-32.5
 43
-1.69926
 44
0.0
 45
4.067717855
 46
-0.1718623198
 79
6
 49
0.0
 49
-1.905
 49
0.0
 49
-5.9436
 49
0.0
 49
-7.8867
 53
-42.5
 43
-2.46126
 44
0.0
 45
4.4438754416
 46
0.762794731
 79
6
 49
0.0
 49
-2.4765
 49
0.0
 49
-3.94716
 49
0.0
 49
-5.6007
 98
0
  0
HATCH
  5
88
330
17
100
AcDbEntity
  8
COTA
 62
7
100
AcDbHatch
 10
0.0
 20
0.0
 30
0.0
210
0.0
220
0.0
230
1.0
  2
AR-CONC
 70
0
 71
0
 91
1
 92
3
 72
0
 73
1
 93
8
 10
5610.9
 20
11320.2
 10
5610.9
 20
11334.2
 10
5610.9
 20
11334.2
 10
5467.4
 20
11334.2
 10
5467.4
 20
11334.2
 10
5467.4
 20
11320.2
 10
5467.4
 20
11320.2
 10
5610.9
 20
11320.2
 97
0
 75
1
 76
1
 52
0.0
 41
0.03
 77
0
 78
13
 53
50.0
 43
0.0
 44
0.0
 45
5.4655400699
 46
-0.4781725662
 79
2
 49
0.5715
 49
-6.2865
 53
355.0
 43
0.0
 44
0.0
 45
-1.0573026428
 46
5.7317053572
 79
2
 49
0.4572
 49
-5.0292175251
 53
100.4514447
 43
0.45546021
 44
-0.039847605
 45
4.4082374127
 46
5.2535325574
 79
2
 49
0.485700264
 49
-5.342707338
 53
46.1842
 43
0.0
 44
1.524
 45
8.1323712268
 46
-1.261269838
 79
2
 49
0.85725
 49
-9.42975
 53
96.63555761
 43
0.677697
 44
1.418895
 45
7.1221240215
 46
7.4227837379
 79
2
 49
0.7285506942
 49
-8.0140682448
 53
351.18415117
 43
0.0
 44
1.524
 45
7.1221240219
 46
7.4227837376
 79
2
 49
0.6857990121
 49
-7.5437919576
 53
21.0
 43
0.762
 44
1.143
 45
4.5484317381
 46
-3.0679559456
 79
2
 49
0.5715
 49
-6.2865
 53
326.0
 43
0.762
 44
1.143
 45
1.8540608504
 46
5.5256389837
 79
2
 49
0.4572
 49
-5.0292
 53
71.451445
 43
1.141035978
 44
0.887337003
 45
6.4024925784
 46
2.4576830666
 79
2
 49
0.485700264
 49
-5.342698128
 53
37.5
 43
0.0
 44
0.0
 45
0.0926580975
 46
2.5366511662
 79
6
 49
0.0
 49
-4.96824
 49
0.0
 49
-5.1054
 49
0.0
 49
-5.04825
 53
7.5
 43
0.0
 44
0.0
 45
2.0045898753
 46
3.0054172445
 79
6
 49
0.0
 49
-2.91084
 49
0.0
 49
-4.85394
 49
0.0
 49
-1.92405
 53
-32.5
 43
-1.69926
 44
0.0
 45
4.067717855
 46
-0.1718623198
 79
6
 49
0.0
 49
-1.905
 49
0.0
 49
-5.9436
 49
0.0
 49
-7.8867
 53
-42.5
 43
-2.46126
 44
0.0
 45
4.4438754416
 46
0.762794731
 79
6
 49
0.0
 49
-2.4765
 49
0.0
 49
-3.94716
 49
0.0
 49
-5.6007
 98
0
  0
HATCH
  5
89
330
17
100
AcDbEntity
  8
COTA
 62
7
100
AcDbHatch
 10
0.0
 20
0.0
 30
0.0
210
0.0
220
0.0
230
1.0
  2
AR-CONC
 70
0
 71
0
 91
1
 92
3
 72
0
 73
1
 93
8
 10
5223.7
 20
11136.7
 10
4816.2
 20
11136.7
 10
4816.2
 20
11136.7
 10
4816.2
 20
11120.7
 10
4816.2
 20
11120.7
 10
5223.7
 20
11120.7
 10
5223.7
 20
11120.7
 10
5223.7
 20
11136.7
 97
0
 75
1
 76
1
 52
0.0
 41
0.03
 77
0
 78
13
 53
50.0
 43
0.0
 44
0.0
 45
5.4655400699
 46
-0.4781725662
 79
2
 49
0.5715
 49
-6.2865
 53
355.0
 43
0.0
 44
0.0
 45
-1.0573026428
 46
5.7317053572
 79
2
 49
0.4572
 49
-5.0292175251
 53
100.4514447
 43
0.45546021
 44
-0.039847605
 45
4.4082374127
 46
5.2535325574
 79
2
 49
0.485700264
 49
-5.342707338
 53
46.1842
 43
0.0
 44
1.524
 45
8.1323712268
 46
-1.261269838
 79
2
 49
0.85725
 49
-9.42975
 53
96.63555761
 43
0.677697
 44
1.418895
 45
7.1221240215
 46
7.4227837379
 79
2
 49
0.7285506942
 49
-8.0140682448
 53
351.18415117
 43
0.0
 44
1.524
 45
7.1221240219
 46
7.4227837376
 79
2
 49
0.6857990121
 49
-7.5437919576
 53
21.0
 43
0.762
 44
1.143
 45
4.5484317381
 46
-3.0679559456
 79
2
 49
0.5715
 49
-6.2865
 53
326.0
 43
0.762
 44
1.143
 45
1.8540608504
 46
5.5256389837
 79
2
 49
0.4572
 49
-5.0292
 53
71.451445
 43
1.141035978
 44
0.887337003
 45
6.4024925784
 46
2.4576830666
 79
2
 49
0.485700264
 49
-5.342698128
 53
37.5
 43
0.0
 44
0.0
 45
0.0926580975
 46
2.5366511662
 79
6
 49
0.0
 49
-4.96824
 49
0.0
 49
-5.1054
 49
0.0
 49
-5.04825
 53
7.5
 43
0.0
 44
0.0
 45
2.0045898753
 46
3.0054172445
 79
6
 49
0.0
 49
-2.91084
 49
0.0
 49
-4.85394
 49
0.0
 49
-1.92405
 53
-32.5
 43
-1.69926
 44
0.0
 45
4.067717855
 46
-0.1718623198
 79
6
 49
0.0
 49
-1.905
 49
0.0
 49
-5.9436
 49
0.0
 49
-7.8867
 53
-42.5
 43
-2.46126
 44
0.0
 45
4.4438754416
 46
0.762794731
 79
6
 49
0.0
 49
-2.4765
 49
0.0
 49
-3.94716
 49
0.0
 49
-5.6007
 98
0
  0
HATCH
  5
8A
330
17
100
AcDbEntity
  8
COTA
 62
7
100
AcDbHatch
 10
0.0
 20
0.0
 30
0.0
210
0.0
220
0.0
230
1.0
  2
AR-CONC
 70
0
 71
0
 91
1
 92
3
 72
0
 73
1
 93
8
 10
5247.9
 20
11136.7
 10
5709.9
 20
11136.7
 10
5709.9
 20
11136.7
 10
5709.9
 20
11120.7
 10
5709.9
 20
11120.7
 10
5247.9
 20
11120.7
 10
5247.9
 20
11120.7
 10
5247.9
 20
11136.7
 97
0
 75
1
 76
1
 52
0.0
 41
0.03
 77
0
 78
13
 53
50.0
 43
0.0
 44
0.0
 45
5.4655400699
 46
-0.4781725662
 79
2
 49
0.5715
 49
-6.2865
 53
355.0
 43
0.0
 44
0.0
 45
-1.0573026428
 46
5.7317053572
 79
2
 49
0.4572
 49
-5.0292175251
 53
100.4514447
 43
0.45546021
 44
-0.039847605
 45
4.4082374127
 46
5.2535325574
 79
2
 49
0.485700264
 49
-5.342707338
 53
46.1842
 43
0.0
 44
1.524
 45
8.1323712268
 46
-1.261269838
 79
2
 49
0.85725
 49
-9.42975
 53
96.63555761
 43
0.677697
 44
1.418895
 45
7.1221240215
 46
7.4227837379
 79
2
 49
0.7285506942
 49
-8.0140682448
 53
351.18415117
 43
0.0
 44
1.524
 45
7.1221240219
 46
7.4227837376
 79
2
 49
0.6857990121
 49
-7.5437919576
 53
21.0
 43
0.762
 44
1.143
 45
4.5484317381
 46
-3.0679559456
 79
2
 49
0.5715
 49
-6.2865
 53
326.0
 43
0.762
 44
1.143
 45
1.8540608504
 46
5.5256389837
 79
2
 49
0.4572
 49
-5.0292
 53
71.451445
 43
1.141035978
 44
0.887337003
 45
6.4024925784
 46
2.4576830666
 79
2
 49
0.485700264
 49
-5.342698128
 53
37.5
 43
0.0
 44
0.0
 45
0.0926580975
 46
2.5366511662
 79
6
 49
0.0
 49
-4.96824
 49
0.0
 49
-5.1054
 49
0.0
 49
-5.04825
 53
7.5
 43
0.0
 44
0.0
 45
2.0045898753
 46
3.0054172445
 79
6
 49
0.0
 49
-2.91084
 49
0.0
 49
-4.85394
 49
0.0
 49
-1.92405
 53
-32.5
 43
-1.69926
 44
0.0
 45
4.067717855
 46
-0.1718623198
 79
6
 49
0.0
 49
-1.905
 49
0.0
 49
-5.9436
 49
0.0
 49
-7.8867
 53
-42.5
 43
-2.46126
 44
0.0
 45
4.4438754416
 46
0.762794731
 79
6
 49
0.0
 49
-2.4765
 49
0.0
 49
-3.94716
 49
0.0
 49
-5.6007
 98
0
  0
HATCH
  5
8B
330
17
100
AcDbEntity
  8
COTA
 62
7
100
AcDbHatch
 10
0.0
 20
0.0
 30
0.0
210
0.0
220
0.0
230
1.0
  2
AR-CONC
 70
0
 71
0
 91
1
 92
3
 72
0
 73
1
 93
8
 10
5457.2
 20
10300.5
 10
5457.2
 20
10286.5
 10
5457.2
 20
10286.5
 10
4889.7
 20
10286.5
 10
4889.7
 20
10286.5
 10
4889.7
 20
10300.5
 10
4889.7
 20
10300.5
 10
5457.2
 20
10300.5
 97
0
 75
1
 76
1
 52
0.0
 41
0.03
 77
0
 78
13
 53
50.0
 43
0.0
 44
0.0
 45
5.4655400699
 46
-0.4781725662
 79
2
 49
0.5715
 49
-6.2865
 53
355.0
 43
0.0
 44
0.0
 45
-1.0573026428
 46
5.7317053572
 79
2
 49
0.4572
 49
-5.0292175251
 53
100.4514447
 43
0.45546021
 44
-0.039847605
 45
4.4082374127
 46
5.2535325574
 79
2
 49
0.485700264
 49
-5.342707338
 53
46.1842
 43
0.0
 44
1.524
 45
8.1323712268
 46
-1.261269838
 79
2
 49
0.85725
 49
-9.42975
 53
96.63555761
 43
0.677697
 44
1.418895
 45
7.1221240215
 46
7.4227837379
 79
2
 49
0.7285506942
 49
-8.0140682448
 53
351.18415117
 43
0.0
 44
1.524
 45
7.1221240219
 46
7.4227837376
 79
2
 49
0.6857990121
 49
-7.5437919576
 53
21.0
 43
0.762
 44
1.143
 45
4.5484317381
 46
-3.0679559456
 79
2
 49
0.5715
 49
-6.2865
 53
326.0
 43
0.762
 44
1.143
 45
1.8540608504
 46
5.5256389837
 79
2
 49
0.4572
 49
-5.0292
 53
71.451445
 43
1.141035978
 44
0.887337003
 45
6.4024925784
 46
2.4576830666
 79
2
 49
0.485700264
 49
-5.342698128
 53
37.5
 43
0.0
 44
0.0
 45
0.0926580975
 46
2.5366511662
 79
6
 49
0.0
 49
-4.96824
 49
0.0
 49
-5.1054
 49
0.0
 49
-5.04825
 53
7.5
 43
0.0
 44
0.0
 45
2.0045898753
 46
3.0054172445
 79
6
 49
0.0
 49
-2.91084
 49
0.0
 49
-4.85394
 49
0.0
 49
-1.92405
 53
-32.5
 43
-1.69926
 44
0.0
 45
4.067717855
 46
-0.1718623198
 79
6
 49
0.0
 49
-1.905
 49
0.0
 49
-5.9436
 49
0.0
 49
-7.8867
 53
-42.5
 43
-2.46126
 44
0.0
 45
4.4438754416
 46
0.762794731
 79
6
 49
0.0
 49
-2.4765
 49
0.0
 49
-3.94716
 49
0.0
 49
-5.6007
 98
0
  0
HATCH
  5
8C
330
17
100
AcDbEntity
  8
Hachura
 62
8
100
AcDbHatch
 10
0.0
 20
0.0
 30
0.0
210
0.0
220
0.0
230
1.0
  2
SOLID
 70
1
 71
0
 91
1
 92
3
 72
0
 73
1
 93
8
 10
6115.3
 20
10295.8
 10
6119.3
 20
10295.8
 10
6119.3
 20
10295.8
 10
6119.3
 20
10167.8
 10
6119.3
 20
10167.8
 10
6115.3
 20
10167.8
 10
6115.3
 20
10167.8
 10
6115.3
 20
10295.8
 97
0
 75
1
 76
1
 98
0
  0
HATCH
  5
8D
330
17
100
AcDbEntity
  8
Hachura
 62
7
100
AcDbHatch
 10
0.0
 20
0.0
 30
0.0
210
0.0
220
0.0
230
1.0
  2
ANSI31
 70
0
 71
0
 91
1
 92
3
 72
0
 73
1
 93
8
 10
6115.3
 20
10291.4
 10
6115.3
 20
10295.8
 10
6115.3
 20
10295.8
 10
6101.3
 20
10295.8
 10
6101.3
 20
10295.8
 10
6101.3
 20
10291.4
 10
6101.3
 20
10291.4
 10
6115.3
 20
10291.4
 97
0
 75
1
 76
1
 52
0.0
 41
0.5
 77
0
 78
1
 53
45.0
 43
0.0
 44
0.0
 45
-1.1225320152
 46
1.1225320152
 79
0
 98
0
  0
LINE
  5
8E
330
17
100
AcDbEntity
  8
COTA
100
AcDbLine
 10
4697.7
 20
11316.4
 30
0.0
 11
4697.7
 21
11444.4
 31
0.0
  0
LINE
  5
8F
330
17
100
AcDbEntity
  8
COTA
100
AcDbLine
 10
4654.5
 20
11316.4
 30
0.0
 11
4702.7
 21
11316.4
 31
0.0
  0
LINE
  5
90
330
17
100
AcDbEntity
  8
COTA
100
AcDbLine
 10
4638.9
 20
11444.4
 30
0.0
 11
4702.7
 21
11444.4
 31
0.0
  0
TEXT
  5
91
330
17
100
AcDbEntity
  8
COTA
100
AcDbText
 10
4692.2
 20
11380.4
 30
0.0
 40
4.0
  1
64
100
AcDbText
  0
LINE
  5
92
330
17
100
AcDbEntity
  8
COTA
100
AcDbLine
 10
4620.4
 20
11324.4
 30
0.0
 11
4620.4
 21
11444.4
 31
0.0
  0
LINE
  5
93
330
17
100
AcDbEntity
  8
COTA
100
AcDbLine
 10
4631.9
 20
11324.4
 30
0.0
 11
4615.4
 21
11324.4
 31
0.0
  0
LINE
  5
94
330
17
100
AcDbEntity
  8
COTA
100
AcDbLine
 10
4631.9
 20
11444.4
 30
0.0
 11
4615.4
 21
11444.4
 31
0.0
  0
TEXT
  5
95
330
17
100
AcDbEntity
  8
COTA
100
AcDbText
 10
4620.4
 20
11404.4
 30
0.0
 40
4.0
  1
60
100
AcDbText
  0
LINE
  5
96
330
17
100
AcDbEntity
  8
COTA
100
AcDbLine
 10
4494.2
 20
11316.4
 30
0.0
 11
4494.2
 21
11444.4
 31
0.0
  0
LINE
  5
97
330
17
100
AcDbEntity
  8
COTA
100
AcDbLine
 10
4564.9
 20
11444.4
 30
0.0
 11
4489.2
 21
11444.4
 31
0.0
  0
LINE
  5
98
330
17
100
AcDbEntity
  8
COTA
100
AcDbLine
 10
4549.3
 20
11316.4
 30
0.0
 11
4489.2
 21
11316.4
 31
0.0
  0
TEXT
  5
99
330
17
100
AcDbEntity
  8
COTA
100
AcDbText
 10
4488.7
 20
11380.4
 30
0.0
 40
4.0
  1
64
100
AcDbText
  0
LINE
  5
9A
330
17
100
AcDbEntity
  8
COTA
100
AcDbLine
 10
4582.9
 20
11271.6
 30
0.0
 11
4620.9
 21
11271.6
 31
0.0
  0
LINE
  5
9B
330
17
100
AcDbEntity
  8
COTA
100
AcDbLine
 10
4582.9
 20
11316.4
 30
0.0
 11
4582.9
 21
11266.6
 31
0.0
  0
LINE
  5
9C
330
17
100
AcDbEntity
  8
COTA
100
AcDbLine
 10
4620.9
 20
11316.4
 30
0.0
 11
4620.9
 21
11266.6
 31
0.0
  0
TEXT
  5
9D
330
17
100
AcDbEntity
  8
COTA
100
AcDbText
 10
4601.9
 20
11277.1
 30
0.0
 40
4.0
  1
19
100
AcDbText
  0
LINE
  5
9E
330
17
100
AcDbEntity
  8
COTA
100
AcDbLine
 10
4511.0
 20
11316.4
 30
0.0
 11
4511.0
 21
11366.3
 31
0.0
  0
LINE
  5
9F
330
17
100
AcDbEntity
  8
COTA
100
AcDbLine
 10
4529.6
 20
11366.3
 30
0.0
 11
4506.0
 21
11366.3
 31
0.0
  0
LINE
  5
A0
330
17
100
AcDbEntity
  8
COTA
100
AcDbLine
 10
4529.6
 20
11316.4
 30
0.0
 11
4506.0
 21
11316.4
 31
0.0
  0
TEXT
  5
A1
330
17
100
AcDbEntity
  8
COTA
100
AcDbText
 10
4505.5
 20
11341.4
 30
0.0
 40
4.0
  1
25
100
AcDbText
  0
LINE
  5
A2
330
17
100
AcDbEntity
  8
COTA
100
AcDbLine
 10
4582.9
 20
11332.4
 30
0.0
 11
4620.9
 21
11332.4
 31
0.0
  0
LINE
  5
A3
330
17
100
AcDbEntity
  8
COTA
100
AcDbLine
 10
4582.9
 20
11316.4
 30
0.0
 11
4582.9
 21
11337.4
 31
0.0
  0
LINE
  5
A4
330
17
100
AcDbEntity
  8
COTA
100
AcDbLine
 10
4620.9
 20
11316.4
 30
0.0
 11
4620.9
 21
11337.4
 31
0.0
  0
TEXT
  5
A5
330
17
100
AcDbEntity
  8
COTA
100
AcDbText
 10
4601.9
 20
11332.4
 30
0.0
 40
4.0
  1
19
100
AcDbText
  0
LINE
  5
A6
330
17
100
AcDbEntity
  8
COTA
100
AcDbLine
 10
4817.4
 20
11430.6
 30
0.0
 11
5063.4
 21
11430.6
 31
0.0
  0
LINE
  5
A7
330
17
100
AcDbEntity
  8
COTA
100
AcDbLine
 10
4817.4
 20
11457.1
 30
0.0
 11
4817.4
 21
11425.6
 31
0.0
  0
LINE
  5
A8
330
17
100
AcDbEntity
  8
COTA
100
AcDbLine
 10
5063.4
 20
11457.1
 30
0.0
 11
5063.4
 21
11425.6
 31
0.0
  0
TEXT
  5
A9
330
17
100
AcDbEntity
  8
COTA
100
AcDbText
 10
4940.4
 20
11438.7
 30
0.0
 40
4.0
  1
246
100
AcDbText
  0
LINE
  5
AA
330
17
100
AcDbEntity
  8
COTA
100
AcDbLine
 10
5063.4
 20
11430.6
 30
0.0
 11
5212.4
 21
11430.6
 31
0.0
  0
LINE
  5
AB
330
17
100
AcDbEntity
  8
COTA
100
AcDbLine
 10
5063.4
 20
11457.1
 30
0.0
 11
5063.4
 21
11425.6
 31
0.0
  0
LINE
  5
AC
330
17
100
AcDbEntity
  8
COTA
100
AcDbLine
 10
5212.4
 20
11457.1
 30
0.0
 11
5212.4
 21
11425.6
 31
0.0
  0
TEXT
  5
AD
330
17
100
AcDbEntity
  8
COTA
100
AcDbText
 10
5137.9
 20
11438.7
 30
0.0
 40
4.0
  1
149
100
AcDbText
  0
LINE
  5
AE
330
17
100
AcDbEntity
  8
COTA
100
AcDbLine
 10
4817.4
 20
11397.0
 30
0.0
 11
5212.4
 21
11397.0
 31
0.0
  0
LINE
  5
AF
330
17
100
AcDbEntity
  8
COTA
100
AcDbLine
 10
4817.4
 20
11457.1
 30
0.0
 11
4817.4
 21
11392.0
 31
0.0
  0
LINE
  5
B0
330
17
100
AcDbEntity
  8
COTA
100
AcDbLine
 10
5212.4
 20
11457.1
 30
0.0
 11
5212.4
 21
11392.0
 31
0.0
  0
TEXT
  5
B1
330
17
100
AcDbEntity
  8
COTA
100
AcDbText
 10
5014.9
 20
11405.3
 30
0.0
 40
4.0
  1
395
100
AcDbText
  0
LINE
  5
B2
330
17
100
AcDbEntity
  8
COTA
100
AcDbLine
 10
4474.9
 20
11113.1
 30
0.0
 11
4474.9
 21
11241.1
 31
0.0
  0
LINE
  5
B3
330
17
100
AcDbEntity
  8
COTA
100
AcDbLine
 10
4549.3
 20
11113.1
 30
0.0
 11
4469.9
 21
11113.1
 31
0.0
  0
LINE
  5
B4
330
17
100
AcDbEntity
  8
COTA
100
AcDbLine
 10
4527.3
 20
11241.1
 30
0.0
 11
4469.9
 21
11241.1
 31
0.0
  0
TEXT
  5
B5
330
17
100
AcDbEntity
  8
COTA
100
AcDbText
 10
4469.4
 20
11177.1
 30
0.0
 40
4.0
  1
64
100
AcDbText
  0
LINE
  5
B6
330
17
100
AcDbEntity
  8
COTA
100
AcDbLine
 10
4697.7
 20
11113.1
 30
0.0
 11
4697.7
 21
11241.1
 31
0.0
  0
LINE
  5
B7
330
17
100
AcDbEntity
  8
COTA
100
AcDbLine
 10
4654.5
 20
11113.1
 30
0.0
 11
4702.7
 21
11113.1
 31
0.0
  0
LINE
  5
B8
330
17
100
AcDbEntity
  8
COTA
100
AcDbLine
 10
4638.9
 20
11241.1
 30
0.0
 11
4702.7
 21
11241.1
 31
0.0
  0
TEXT
  5
B9
330
17
100
AcDbEntity
  8
COTA
100
AcDbText
 10
4692.2
 20
11177.1
 30
0.0
 40
4.0
  1
64
100
AcDbText
  0
LINE
  5
BA
330
17
100
AcDbEntity
  8
COTA
100
AcDbLine
 10
4620.4
 20
11121.1
 30
0.0
 11
4620.4
 21
11241.1
 31
0.0
  0
LINE
  5
BB
330
17
100
AcDbEntity
  8
COTA
100
AcDbLine
 10
4631.9
 20
11121.1
 30
0.0
 11
4615.4
 21
11121.1
 31
0.0
  0
LINE
  5
BC
330
17
100
AcDbEntity
  8
COTA
100
AcDbLine
 10
4631.9
 20
11241.1
 30
0.0
 11
4615.4
 21
11241.1
 31
0.0
  0
TEXT
  5
BD
330
17
100
AcDbEntity
  8
COTA
100
AcDbText
 10
4620.4
 20
11201.1
 30
0.0
 40
4.0
  1
60
100
AcDbText
  0
LINE
  5
BE
330
17
100
AcDbEntity
  8
COTA
100
AcDbLine
 10
4494.2
 20
11213.1
 30
0.0
 11
4494.2
 21
11241.1
 31
0.0
  0
LINE
  5
BF
330
17
100
AcDbEntity
  8
COTA
100
AcDbLine
 10
4527.3
 20
11241.1
 30
0.0
 11
4489.2
 21
11241.1
 31
0.0
  0
LINE
  5
C0
330
17
100
AcDbEntity
  8
COTA
100
AcDbLine
 10
4527.3
 20
11213.1
 30
0.0
 11
4489.2
 21
11213.1
 31
0.0
  0
TEXT
  5
C1
330
17
100
AcDbEntity
  8
COTA
100
AcDbText
 10
4488.7
 20
11227.1
 30
0.0
 40
4.0
  1
14
100
AcDbText
  0
LINE
  5
C2
330
17
100
AcDbEntity
  8
COTA
100
AcDbLine
 10
4494.2
 20
11113.1
 30
0.0
 11
4494.2
 21
11209.1
 31
0.0
  0
LINE
  5
C3
330
17
100
AcDbEntity
  8
COTA
100
AcDbLine
 10
4527.3
 20
11209.1
 30
0.0
 11
4489.2
 21
11209.1
 31
0.0
  0
LINE
  5
C4
330
17
100
AcDbEntity
  8
COTA
100
AcDbLine
 10
4549.3
 20
11113.1
 30
0.0
 11
4489.2
 21
11113.1
 31
0.0
  0
TEXT
  5
C5
330
17
100
AcDbEntity
  8
COTA
100
AcDbText
 10
4488.7
 20
11161.1
 30
0.0
 40
4.0
  1
48
100
AcDbText
  0
LINE
  5
C6
330
17
100
AcDbEntity
  8
COTA
100
AcDbLine
 10
4582.9
 20
11068.4
 30
0.0
 11
4620.9
 21
11068.4
 31
0.0
  0
LINE
  5
C7
330
17
100
AcDbEntity
  8
COTA
100
AcDbLine
 10
4582.9
 20
11113.1
 30
0.0
 11
4582.9
 21
11063.4
 31
0.0
  0
LINE
  5
C8
330
17
100
AcDbEntity
  8
COTA
100
AcDbLine
 10
4620.9
 20
11113.1
 30
0.0
 11
4620.9
 21
11063.4
 31
0.0
  0
TEXT
  5
C9
330
17
100
AcDbEntity
  8
COTA
100
AcDbText
 10
4601.9
 20
11073.9
 30
0.0
 40
4.0
  1
19
100
AcDbText
  0
LINE
  5
CA
330
17
100
AcDbEntity
  8
COTA
100
AcDbLine
 10
4511.0
 20
11113.1
 30
0.0
 11
4511.0
 21
11163.1
 31
0.0
  0
LINE
  5
CB
330
17
100
AcDbEntity
  8
COTA
100
AcDbLine
 10
4529.6
 20
11163.1
 30
0.0
 11
4506.0
 21
11163.1
 31
0.0
  0
LINE
  5
CC
330
17
100
AcDbEntity
  8
COTA
100
AcDbLine
 10
4529.6
 20
11113.1
 30
0.0
 11
4506.0
 21
11113.1
 31
0.0
  0
TEXT
  5
CD
330
17
100
AcDbEntity
  8
COTA
100
AcDbText
 10
4505.5
 20
11138.1
 30
0.0
 40
4.0
  1
25
100
AcDbText
  0
LINE
  5
CE
330
17
100
AcDbEntity
  8
COTA
100
AcDbLine
 10
4582.9
 20
11129.1
 30
0.0
 11
4620.9
 21
11129.1
 31
0.0
  0
LINE
  5
CF
330
17
100
AcDbEntity
  8
COTA
100
AcDbLine
 10
4582.9
 20
11113.1
 30
0.0
 11
4582.9
 21
11134.1
 31
0.0
  0
LINE
  5
D0
330
17
100
AcDbEntity
  8
COTA
100
AcDbLine
 10
4620.9
 20
11113.1
 30
0.0
 11
4620.9
 21
11134.1
 31
0.0
  0
TEXT
  5
D1
330
17
100
AcDbEntity
  8
COTA
100
AcDbText
 10
4601.9
 20
11129.1
 30
0.0
 40
4.0
  1
19
100
AcDbText
  0
LINE
  5
D2
330
17
100
AcDbEntity
  8
COTA
100
AcDbLine
 10
5284.9
 20
11430.6
 30
0.0
 11
5530.9
 21
11430.6
 31
0.0
  0
LINE
  5
D3
330
17
100
AcDbEntity
  8
COTA
100
AcDbLine
 10
5284.9
 20
11457.1
 30
0.0
 11
5284.9
 21
11425.6
 31
0.0
  0
LINE
  5
D4
330
17
100
AcDbEntity
  8
COTA
100
AcDbLine
 10
5530.9
 20
11457.1
 30
0.0
 11
5530.9
 21
11425.6
 31
0.0
  0
TEXT
  5
D5
330
17
100
AcDbEntity
  8
COTA
100
AcDbText
 10
5407.9
 20
11438.7
 30
0.0
 40
4.0
  1
246
100
AcDbText
  0
LINE
  5
D6
330
17
100
AcDbEntity
  8
COTA
100
AcDbLine
 10
5530.9
 20
11430.6
 30
0.0
 11
5693.4
 21
11430.6
 31
0.0
  0
LINE
  5
D7
330
17
100
AcDbEntity
  8
COTA
100
AcDbLine
 10
5530.9
 20
11457.1
 30
0.0
 11
5530.9
 21
11425.6
 31
0.0
  0
LINE
  5
D8
330
17
100
AcDbEntity
  8
COTA
100
AcDbLine
 10
5693.4
 20
11457.1
 30
0.0
 11
5693.4
 21
11425.6
 31
0.0
  0
TEXT
  5
D9
330
17
100
AcDbEntity
  8
COTA
100
AcDbText
 10
5612.2
 20
11438.7
 30
0.0
 40
4.0
  1
162
100
AcDbText
  0
LINE
  5
DA
330
17
100
AcDbEntity
  8
COTA
100
AcDbLine
 10
5284.9
 20
11397.0
 30
0.0
 11
5693.4
 21
11397.0
 31
0.0
  0
LINE
  5
DB
330
17
100
AcDbEntity
  8
COTA
100
AcDbLine
 10
5284.9
 20
11457.1
 30
0.0
 11
5284.9
 21
11392.0
 31
0.0
  0
LINE
  5
DC
330
17
100
AcDbEntity
  8
COTA
100
AcDbLine
 10
5693.4
 20
11457.1
 30
0.0
 11
5693.4
 21
11392.0
 31
0.0
  0
TEXT
  5
DD
330
17
100
AcDbEntity
  8
COTA
100
AcDbText
 10
5489.2
 20
11405.2
 30
0.0
 40
4.0
  1
408
100
AcDbText
  0
LINE
  5
DE
330
17
100
AcDbEntity
  8
COTA
100
AcDbLine
 10
5737.5
 20
11457.1
 30
0.0
 11
5737.5
 21
11521.1
 31
0.0
  0
LINE
  5
DF
330
17
100
AcDbEntity
  8
COTA
100
AcDbLine
 10
5693.4
 20
11521.1
 30
0.0
 11
5742.5
 21
11521.1
 31
0.0
  0
LINE
  5
E0
330
17
100
AcDbEntity
  8
COTA
100
AcDbLine
 10
5693.4
 20
11457.1
 30
0.0
 11
5742.5
 21
11457.1
 31
0.0
  0
TEXT
  5
E1
330
17
100
AcDbEntity
  8
COTA
100
AcDbText
 10
5729.4
 20
11489.1
 30
0.0
 40
4.0
  1
64
100
AcDbText
  0
LINE
  5
E2
330
17
100
AcDbEntity
  8
COTA
100
AcDbLine
 10
5661.9
 20
11478.2
 30
0.0
 11
5693.4
 21
11478.2
 31
0.0
  0
LINE
  5
E3
330
17
100
AcDbEntity
  8
COTA
100
AcDbLine
 10
5661.9
 20
11471.1
 30
0.0
 11
5661.9
 21
11483.2
 31
0.0
  0
LINE
  5
E4
330
17
100
AcDbEntity
  8
COTA
100
AcDbLine
 10
5693.4
 20
11471.1
 30
0.0
 11
5693.4
 21
11483.2
 31
0.0
  0
TEXT
  5
E5
330
17
100
AcDbEntity
  8
COTA
100
AcDbText
 10
5677.7
 20
11486.4
 30
0.0
 40
4.0
  1
32
100
AcDbText
  0
LINE
  5
E6
330
17
100
AcDbEntity
  8
COTA
100
AcDbLine
 10
4816.2
 20
11243.6
 30
0.0
 11
5060.2
 21
11243.6
 31
0.0
  0
LINE
  5
E7
330
17
100
AcDbEntity
  8
COTA
100
AcDbLine
 10
4816.2
 20
11270.2
 30
0.0
 11
4816.2
 21
11238.6
 31
0.0
  0
LINE
  5
E8
330
17
100
AcDbEntity
  8
COTA
100
AcDbLine
 10
5060.2
 20
11270.2
 30
0.0
 11
5060.2
 21
11238.6
 31
0.0
  0
TEXT
  5
E9
330
17
100
AcDbEntity
  8
COTA
100
AcDbText
 10
4938.2
 20
11251.7
 30
0.0
 40
4.0
  1
244
100
AcDbText
  0
LINE
  5
EA
330
17
100
AcDbEntity
  8
COTA
100
AcDbLine
 10
5060.2
 20
11243.6
 30
0.0
 11
5226.2
 21
11243.6
 31
0.0
  0
LINE
  5
EB
330
17
100
AcDbEntity
  8
COTA
100
AcDbLine
 10
5060.2
 20
11270.2
 30
0.0
 11
5060.2
 21
11238.6
 31
0.0
  0
LINE
  5
EC
330
17
100
AcDbEntity
  8
COTA
100
AcDbLine
 10
5226.2
 20
11270.2
 30
0.0
 11
5226.2
 21
11238.6
 31
0.0
  0
TEXT
  5
ED
330
17
100
AcDbEntity
  8
COTA
100
AcDbText
 10
5143.2
 20
11251.7
 30
0.0
 40
4.0
  1
166
100
AcDbText
  0
LINE
  5
EE
330
17
100
AcDbEntity
  8
COTA
100
AcDbLine
 10
4816.2
 20
11210.1
 30
0.0
 11
5226.2
 21
11210.1
 31
0.0
  0
LINE
  5
EF
330
17
100
AcDbEntity
  8
COTA
100
AcDbLine
 10
4816.2
 20
11270.2
 30
0.0
 11
4816.2
 21
11205.1
 31
0.0
  0
LINE
  5
F0
330
17
100
AcDbEntity
  8
COTA
100
AcDbLine
 10
5226.2
 20
11270.2
 30
0.0
 11
5226.2
 21
11205.1
 31
0.0
  0
TEXT
  5
F1
330
17
100
AcDbEntity
  8
COTA
100
AcDbText
 10
5021.2
 20
11218.2
 30
0.0
 40
4.0
  1
410
100
AcDbText
  0
LINE
  5
F2
330
17
100
AcDbEntity
  8
COTA
100
AcDbLine
 10
5194.7
 20
11291.2
 30
0.0
 11
5226.2
 21
11291.2
 31
0.0
  0
LINE
  5
F3
330
17
100
AcDbEntity
  8
COTA
100
AcDbLine
 10
5194.7
 20
11284.2
 30
0.0
 11
5194.7
 21
11296.2
 31
0.0
  0
LINE
  5
F4
330
17
100
AcDbEntity
  8
COTA
100
AcDbLine
 10
5226.2
 20
11284.2
 30
0.0
 11
5226.2
 21
11296.2
 31
0.0
  0
TEXT
  5
F5
330
17
100
AcDbEntity
  8
COTA
100
AcDbText
 10
5210.4
 20
11299.4
 30
0.0
 40
4.0
  1
32
100
AcDbText
  0
LINE
  5
F6
330
17
100
AcDbEntity
  8
COTA
100
AcDbLine
 10
4816.2
 20
11291.2
 30
0.0
 11
4847.7
 21
11291.2
 31
0.0
  0
LINE
  5
F7
330
17
100
AcDbEntity
  8
COTA
100
AcDbLine
 10
4847.7
 20
11284.2
 30
0.0
 11
4847.7
 21
11296.2
 31
0.0
  0
LINE
  5
F8
330
17
100
AcDbEntity
  8
COTA
100
AcDbLine
 10
4816.2
 20
11284.2
 30
0.0
 11
4816.2
 21
11296.2
 31
0.0
  0
TEXT
  5
F9
330
17
100
AcDbEntity
  8
COTA
100
AcDbText
 10
4831.9
 20
11299.4
 30
0.0
 40
4.0
  1
32
100
AcDbText
  0
LINE
  5
FA
330
17
100
AcDbEntity
  8
COTA
100
AcDbLine
 10
5247.8
 20
11243.6
 30
0.0
 11
5369.8
 21
11243.6
 31
0.0
  0
LINE
  5
FB
330
17
100
AcDbEntity
  8
COTA
100
AcDbLine
 10
5247.8
 20
11270.2
 30
0.0
 11
5247.8
 21
11238.6
 31
0.0
  0
LINE
  5
FC
330
17
100
AcDbEntity
  8
COTA
100
AcDbLine
 10
5369.8
 20
11270.2
 30
0.0
 11
5369.8
 21
11238.6
 31
0.0
  0
TEXT
  5
FD
330
17
100
AcDbEntity
  8
COTA
100
AcDbText
 10
5308.8
 20
11251.7
 30
0.0
 40
4.0
  1
122
100
AcDbText
  0
LINE
  5
FE
330
17
100
AcDbEntity
  8
COTA
100
AcDbLine
 10
5369.8
 20
11243.6
 30
0.0
 11
5446.3
 21
11243.6
 31
0.0
  0
LINE
  5
FF
330
17
100
AcDbEntity
  8
COTA
100
AcDbLine
 10
5369.8
 20
11270.2
 30
0.0
 11
5369.8
 21
11238.6
 31
0.0
  0
LINE
  5
100
330
17
100
AcDbEntity
  8
COTA
100
AcDbLine
 10
5446.3
 20
11270.2
 30
0.0
 11
5446.3
 21
11238.6
 31
0.0
  0
TEXT
  5
101
330
17
100
AcDbEntity
  8
COTA
100
AcDbText
 10
5408.0
 20
11251.7
 30
0.0
 40
4.0
  1
76
100
AcDbText
  0
LINE
  5
102
330
17
100
AcDbEntity
  8
COTA
100
AcDbLine
 10
5247.8
 20
11210.1
 30
0.0
 11
5446.3
 21
11210.1
 31
0.0
  0
LINE
  5
103
330
17
100
AcDbEntity
  8
COTA
100
AcDbLine
 10
5247.8
 20
11270.2
 30
0.0
 11
5247.8
 21
11205.1
 31
0.0
  0
LINE
  5
104
330
17
100
AcDbEntity
  8
COTA
100
AcDbLine
 10
5446.3
 20
11270.2
 30
0.0
 11
5446.3
 21
11205.1
 31
0.0
  0
TEXT
  5
105
330
17
100
AcDbEntity
  8
COTA
100
AcDbText
 10
5347.0
 20
11218.2
 30
0.0
 40
4.0
  1
198
100
AcDbText
  0
LINE
  5
106
330
17
100
AcDbEntity
  8
COTA
100
AcDbLine
 10
5654.9
 20
11270.2
 30
0.0
 11
5654.9
 21
11334.2
 31
0.0
  0
LINE
  5
107
330
17
100
AcDbEntity
  8
COTA
100
AcDbLine
 10
5610.9
 20
11334.2
 30
0.0
 11
5659.9
 21
11334.2
 31
0.0
  0
LINE
  5
108
330
17
100
AcDbEntity
  8
COTA
100
AcDbLine
 10
5610.9
 20
11270.2
 30
0.0
 11
5659.9
 21
11270.2
 31
0.0
  0
TEXT
  5
109
330
17
100
AcDbEntity
  8
COTA
100
AcDbText
 10
5646.8
 20
11302.2
 30
0.0
 40
4.0
  1
64
100
AcDbText
  0
LINE
  5
10A
330
17
100
AcDbEntity
  8
COTA
100
AcDbLine
 10
5247.8
 20
11291.2
 30
0.0
 11
5279.3
 21
11291.2
 31
0.0
  0
LINE
  5
10B
330
17
100
AcDbEntity
  8
COTA
100
AcDbLine
 10
5279.3
 20
11284.2
 30
0.0
 11
5279.3
 21
11296.2
 31
0.0
  0
LINE
  5
10C
330
17
100
AcDbEntity
  8
COTA
100
AcDbLine
 10
5247.8
 20
11284.2
 30
0.0
 11
5247.8
 21
11296.2
 31
0.0
  0
TEXT
  5
10D
330
17
100
AcDbEntity
  8
COTA
100
AcDbText
 10
5263.5
 20
11299.4
 30
0.0
 40
4.0
  1
32
100
AcDbText
  0
LINE
  5
10E
330
17
100
AcDbEntity
  8
COTA
100
AcDbLine
 10
5633.3
 20
11270.2
 30
0.0
 11
5633.3
 21
11320.2
 31
0.0
  0
LINE
  5
10F
330
17
100
AcDbEntity
  8
COTA
100
AcDbLine
 10
5610.9
 20
11320.2
 30
0.0
 11
5638.3
 21
11320.2
 31
0.0
  0
LINE
  5
110
330
17
100
AcDbEntity
  8
COTA
100
AcDbLine
 10
5610.9
 20
11270.2
 30
0.0
 11
5638.3
 21
11270.2
 31
0.0
  0
TEXT
  5
111
330
17
100
AcDbEntity
  8
COTA
100
AcDbText
 10
5625.2
 20
11295.2
 30
0.0
 40
4.0
  1
50
100
AcDbText
  0
LINE
  5
112
330
17
100
AcDbEntity
  8
COTA
100
AcDbLine
 10
5633.3
 20
11320.2
 30
0.0
 11
5633.3
 21
11334.2
 31
0.0
  0
LINE
  5
113
330
17
100
AcDbEntity
  8
COTA
100
AcDbLine
 10
5610.9
 20
11320.2
 30
0.0
 11
5638.3
 21
11320.2
 31
0.0
  0
LINE
  5
114
330
17
100
AcDbEntity
  8
COTA
100
AcDbLine
 10
5610.9
 20
11334.2
 30
0.0
 11
5638.3
 21
11334.2
 31
0.0
  0
TEXT
  5
115
330
17
100
AcDbEntity
  8
COTA
100
AcDbText
 10
5625.2
 20
11345.2
 30
0.0
 40
4.0
  1
14
100
AcDbText
  0
LINE
  5
116
330
17
100
AcDbEntity
  8
COTA
100
AcDbLine
 10
5549.9
 20
11243.6
 30
0.0
 11
5610.9
 21
11243.6
 31
0.0
  0
LINE
  5
117
330
17
100
AcDbEntity
  8
COTA
100
AcDbLine
 10
5610.9
 20
11270.2
 30
0.0
 11
5610.9
 21
11238.6
 31
0.0
  0
LINE
  5
118
330
17
100
AcDbEntity
  8
COTA
100
AcDbLine
 10
5549.9
 20
11270.2
 30
0.0
 11
5549.9
 21
11238.6
 31
0.0
  0
TEXT
  5
119
330
17
100
AcDbEntity
  8
COTA
100
AcDbText
 10
5580.4
 20
11251.7
 30
0.0
 40
4.0
  1
61
100
AcDbText
  0
LINE
  5
11A
330
17
100
AcDbEntity
  8
COTA
100
AcDbLine
 10
5467.4
 20
11243.6
 30
0.0
 11
5549.9
 21
11243.6
 31
0.0
  0
LINE
  5
11B
330
17
100
AcDbEntity
  8
COTA
100
AcDbLine
 10
5549.9
 20
11270.2
 30
0.0
 11
5549.9
 21
11238.6
 31
0.0
  0
LINE
  5
11C
330
17
100
AcDbEntity
  8
COTA
100
AcDbLine
 10
5467.4
 20
11270.2
 30
0.0
 11
5467.4
 21
11238.6
 31
0.0
  0
TEXT
  5
11D
330
17
100
AcDbEntity
  8
COTA
100
AcDbText
 10
5508.6
 20
11251.8
 30
0.0
 40
4.0
  1
82
100
AcDbText
  0
LINE
  5
11E
330
17
100
AcDbEntity
  8
COTA
100
AcDbLine
 10
5467.4
 20
11210.1
 30
0.0
 11
5610.9
 21
11210.1
 31
0.0
  0
LINE
  5
11F
330
17
100
AcDbEntity
  8
COTA
100
AcDbLine
 10
5610.9
 20
11270.2
 30
0.0
 11
5610.9
 21
11205.1
 31
0.0
  0
LINE
  5
120
330
17
100
AcDbEntity
  8
COTA
100
AcDbLine
 10
5467.4
 20
11270.2
 30
0.0
 11
5467.4
 21
11205.1
 31
0.0
  0
TEXT
  5
121
330
17
100
AcDbEntity
  8
COTA
100
AcDbText
 10
5539.1
 20
11218.3
 30
0.0
 40
4.0
  1
144
100
AcDbText
  0
LINE
  5
122
330
17
100
AcDbEntity
  8
COTA
100
AcDbLine
 10
5579.4
 20
11291.2
 30
0.0
 11
5610.9
 21
11291.2
 31
0.0
  0
LINE
  5
123
330
17
100
AcDbEntity
  8
COTA
100
AcDbLine
 10
5579.4
 20
11284.2
 30
0.0
 11
5579.4
 21
11296.2
 31
0.0
  0
LINE
  5
124
330
17
100
AcDbEntity
  8
COTA
100
AcDbLine
 10
5610.9
 20
11284.2
 30
0.0
 11
5610.9
 21
11296.2
 31
0.0
  0
TEXT
  5
125
330
17
100
AcDbEntity
  8
COTA
100
AcDbText
 10
5595.1
 20
11299.4
 30
0.0
 40
4.0
  1
32
100
AcDbText
  0
LINE
  5
126
330
17
100
AcDbEntity
  8
COTA
100
AcDbLine
 10
4772.1
 20
11270.2
 30
0.0
 11
4772.1
 21
11334.2
 31
0.0
  0
LINE
  5
127
330
17
100
AcDbEntity
  8
COTA
100
AcDbLine
 10
4816.2
 20
11334.2
 30
0.0
 11
4767.1
 21
11334.2
 31
0.0
  0
LINE
  5
128
330
17
100
AcDbEntity
  8
COTA
100
AcDbLine
 10
4816.2
 20
11270.2
 30
0.0
 11
4767.1
 21
11270.2
 31
0.0
  0
TEXT
  5
129
330
17
100
AcDbEntity
  8
COTA
100
AcDbText
 10
4764.0
 20
11302.2
 30
0.0
 40
4.0
  1
64
100
AcDbText
  0
LINE
  5
12A
330
17
100
AcDbEntity
  8
COTA
100
AcDbLine
 10
4793.7
 20
11270.2
 30
0.0
 11
4793.7
 21
11318.2
 31
0.0
  0
LINE
  5
12B
330
17
100
AcDbEntity
  8
COTA
100
AcDbLine
 10
4816.2
 20
11318.2
 30
0.0
 11
4788.7
 21
11318.2
 31
0.0
  0
LINE
  5
12C
330
17
100
AcDbEntity
  8
COTA
100
AcDbLine
 10
4816.2
 20
11270.2
 30
0.0
 11
4788.7
 21
11270.2
 31
0.0
  0
TEXT
  5
12D
330
17
100
AcDbEntity
  8
COTA
100
AcDbText
 10
4785.6
 20
11294.2
 30
0.0
 40
4.0
  1
48
100
AcDbText
  0
LINE
  5
12E
330
17
100
AcDbEntity
  8
COTA
100
AcDbLine
 10
4793.7
 20
11318.2
 30
0.0
 11
4793.7
 21
11334.2
 31
0.0
  0
LINE
  5
12F
330
17
100
AcDbEntity
  8
COTA
100
AcDbLine
 10
4816.2
 20
11318.2
 30
0.0
 11
4788.7
 21
11318.2
 31
0.0
  0
LINE
  5
130
330
17
100
AcDbEntity
  8
COTA
100
AcDbLine
 10
4816.2
 20
11334.2
 30
0.0
 11
4788.7
 21
11334.2
 31
0.0
  0
TEXT
  5
131
330
17
100
AcDbEntity
  8
COTA
100
AcDbText
 10
4793.7
 20
11345.2
 30
0.0
 40
4.0
  1
16
100
AcDbText
  0
LINE
  5
132
330
17
100
AcDbEntity
  8
COTA
100
AcDbLine
 10
4816.2
 20
11046.1
 30
0.0
 11
5060.2
 21
11046.1
 31
0.0
  0
LINE
  5
133
330
17
100
AcDbEntity
  8
COTA
100
AcDbLine
 10
4816.2
 20
11072.7
 30
0.0
 11
4816.2
 21
11041.1
 31
0.0
  0
LINE
  5
134
330
17
100
AcDbEntity
  8
COTA
100
AcDbLine
 10
5060.2
 20
11072.7
 30
0.0
 11
5060.2
 21
11041.1
 31
0.0
  0
TEXT
  5
135
330
17
100
AcDbEntity
  8
COTA
100
AcDbText
 10
4938.2
 20
11054.2
 30
0.0
 40
4.0
  1
244
100
AcDbText
  0
LINE
  5
136
330
17
100
AcDbEntity
  8
COTA
100
AcDbLine
 10
5060.2
 20
11046.1
 30
0.0
 11
5223.7
 21
11046.1
 31
0.0
  0
LINE
  5
137
330
17
100
AcDbEntity
  8
COTA
100
AcDbLine
 10
5060.2
 20
11072.7
 30
0.0
 11
5060.2
 21
11041.1
 31
0.0
  0
LINE
  5
138
330
17
100
AcDbEntity
  8
COTA
100
AcDbLine
 10
5223.7
 20
11072.7
 30
0.0
 11
5223.7
 21
11041.1
 31
0.0
  0
TEXT
  5
139
330
17
100
AcDbEntity
  8
COTA
100
AcDbText
 10
5141.9
 20
11054.3
 30
0.0
 40
4.0
  1
164
100
AcDbText
  0
LINE
  5
13A
330
17
100
AcDbEntity
  8
COTA
100
AcDbLine
 10
4816.2
 20
11012.6
 30
0.0
 11
5223.7
 21
11012.6
 31
0.0
  0
LINE
  5
13B
330
17
100
AcDbEntity
  8
COTA
100
AcDbLine
 10
4816.2
 20
11072.7
 30
0.0
 11
4816.2
 21
11007.6
 31
0.0
  0
LINE
  5
13C
330
17
100
AcDbEntity
  8
COTA
100
AcDbLine
 10
5223.7
 20
11072.7
 30
0.0
 11
5223.7
 21
11007.6
 31
0.0
  0
TEXT
  5
13D
330
17
100
AcDbEntity
  8
COTA
100
AcDbText
 10
5019.9
 20
11020.7
 30
0.0
 40
4.0
  1
408
100
AcDbText
  0
LINE
  5
13E
330
17
100
AcDbEntity
  8
COTA
100
AcDbLine
 10
5194.7
 20
11093.7
 30
0.0
 11
5223.7
 21
11093.7
 31
0.0
  0
LINE
  5
13F
330
17
100
AcDbEntity
  8
COTA
100
AcDbLine
 10
5194.7
 20
11086.7
 30
0.0
 11
5194.7
 21
11098.7
 31
0.0
  0
LINE
  5
140
330
17
100
AcDbEntity
  8
COTA
100
AcDbLine
 10
5223.7
 20
11086.7
 30
0.0
 11
5223.7
 21
11098.7
 31
0.0
  0
TEXT
  5
141
330
17
100
AcDbEntity
  8
COTA
100
AcDbText
 10
5209.2
 20
11101.8
 30
0.0
 40
4.0
  1
29
100
AcDbText
  0
LINE
  5
142
330
17
100
AcDbEntity
  8
COTA
100
AcDbLine
 10
4816.2
 20
11093.7
 30
0.0
 11
4847.7
 21
11093.7
 31
0.0
  0
LINE
  5
143
330
17
100
AcDbEntity
  8
COTA
100
AcDbLine
 10
4847.7
 20
11086.7
 30
0.0
 11
4847.7
 21
11098.7
 31
0.0
  0
LINE
  5
144
330
17
100
AcDbEntity
  8
COTA
100
AcDbLine
 10
4816.2
 20
11086.7
 30
0.0
 11
4816.2
 21
11098.7
 31
0.0
  0
TEXT
  5
145
330
17
100
AcDbEntity
  8
COTA
100
AcDbText
 10
4831.9
 20
11101.9
 30
0.0
 40
4.0
  1
32
100
AcDbText
  0
LINE
  5
146
330
17
100
AcDbEntity
  8
COTA
100
AcDbLine
 10
4772.1
 20
11072.7
 30
0.0
 11
4772.1
 21
11136.7
 31
0.0
  0
LINE
  5
147
330
17
100
AcDbEntity
  8
COTA
100
AcDbLine
 10
4816.2
 20
11136.7
 30
0.0
 11
4767.1
 21
11136.7
 31
0.0
  0
LINE
  5
148
330
17
100
AcDbEntity
  8
COTA
100
AcDbLine
 10
4816.2
 20
11072.7
 30
0.0
 11
4767.1
 21
11072.7
 31
0.0
  0
TEXT
  5
149
330
17
100
AcDbEntity
  8
COTA
100
AcDbText
 10
4764.0
 20
11104.7
 30
0.0
 40
4.0
  1
64
100
AcDbText
  0
LINE
  5
14A
330
17
100
AcDbEntity
  8
COTA
100
AcDbLine
 10
4793.7
 20
11072.7
 30
0.0
 11
4793.7
 21
11120.7
 31
0.0
  0
LINE
  5
14B
330
17
100
AcDbEntity
  8
COTA
100
AcDbLine
 10
4816.2
 20
11120.7
 30
0.0
 11
4788.7
 21
11120.7
 31
0.0
  0
LINE
  5
14C
330
17
100
AcDbEntity
  8
COTA
100
AcDbLine
 10
4816.2
 20
11072.7
 30
0.0
 11
4788.7
 21
11072.7
 31
0.0
  0
TEXT
  5
14D
330
17
100
AcDbEntity
  8
COTA
100
AcDbText
 10
4785.6
 20
11096.7
 30
0.0
 40
4.0
  1
48
100
AcDbText
  0
LINE
  5
14E
330
17
100
AcDbEntity
  8
COTA
100
AcDbLine
 10
4793.7
 20
11120.7
 30
0.0
 11
4793.7
 21
11136.7
 31
0.0
  0
LINE
  5
14F
330
17
100
AcDbEntity
  8
COTA
100
AcDbLine
 10
4816.2
 20
11120.7
 30
0.0
 11
4788.7
 21
11120.7
 31
0.0
  0
LINE
  5
150
330
17
100
AcDbEntity
  8
COTA
100
AcDbLine
 10
4816.2
 20
11136.7
 30
0.0
 11
4788.7
 21
11136.7
 31
0.0
  0
TEXT
  5
151
330
17
100
AcDbEntity
  8
COTA
100
AcDbText
 10
4793.7
 20
11147.7
 30
0.0
 40
4.0
  1
16
100
AcDbText
  0
LINE
  5
152
330
17
100
AcDbEntity
  8
COTA
100
AcDbLine
 10
5465.9
 20
11046.1
 30
0.0
 11
5709.9
 21
11046.1
 31
0.0
  0
LINE
  5
153
330
17
100
AcDbEntity
  8
COTA
100
AcDbLine
 10
5709.9
 20
11072.7
 30
0.0
 11
5709.9
 21
11041.1
 31
0.0
  0
LINE
  5
154
330
17
100
AcDbEntity
  8
COTA
100
AcDbLine
 10
5465.9
 20
11072.7
 30
0.0
 11
5465.9
 21
11041.1
 31
0.0
  0
TEXT
  5
155
330
17
100
AcDbEntity
  8
COTA
100
AcDbText
 10
5587.9
 20
11054.2
 30
0.0
 40
4.0
  1
244
100
AcDbText
  0
LINE
  5
156
330
17
100
AcDbEntity
  8
COTA
100
AcDbLine
 10
5247.9
 20
11046.1
 30
0.0
 11
5465.9
 21
11046.1
 31
0.0
  0
LINE
  5
157
330
17
100
AcDbEntity
  8
COTA
100
AcDbLine
 10
5465.9
 20
11072.7
 30
0.0
 11
5465.9
 21
11041.1
 31
0.0
  0
LINE
  5
158
330
17
100
AcDbEntity
  8
COTA
100
AcDbLine
 10
5247.9
 20
11072.7
 30
0.0
 11
5247.9
 21
11041.1
 31
0.0
  0
TEXT
  5
159
330
17
100
AcDbEntity
  8
COTA
100
AcDbText
 10
5356.9
 20
11054.2
 30
0.0
 40
4.0
  1
218
100
AcDbText
  0
LINE
  5
15A
330
17
100
AcDbEntity
  8
COTA
100
AcDbLine
 10
5247.9
 20
11012.6
 30
0.0
 11
5709.9
 21
11012.6
 31
0.0
  0
LINE
  5
15B
330
17
100
AcDbEntity
  8
COTA
100
AcDbLine
 10
5709.9
 20
11072.7
 30
0.0
 11
5709.9
 21
11007.6
 31
0.0
  0
LINE
  5
15C
330
17
100
AcDbEntity
  8
COTA
100
AcDbLine
 10
5247.9
 20
11072.7
 30
0.0
 11
5247.9
 21
11007.6
 31
0.0
  0
TEXT
  5
15D
330
17
100
AcDbEntity
  8
COTA
100
AcDbText
 10
5478.9
 20
11020.7
 30
0.0
 40
4.0
  1
462
100
AcDbText
  0
LINE
  5
15E
330
17
100
AcDbEntity
  8
COTA
100
AcDbLine
 10
5247.9
 20
11093.7
 30
0.0
 11
5276.9
 21
11093.7
 31
0.0
  0
LINE
  5
15F
330
17
100
AcDbEntity
  8
COTA
100
AcDbLine
 10
5276.9
 20
11086.7
 30
0.0
 11
5276.9
 21
11098.7
 31
0.0
  0
LINE
  5
160
330
17
100
AcDbEntity
  8
COTA
100
AcDbLine
 10
5247.9
 20
11086.7
 30
0.0
 11
5247.9
 21
11098.7
 31
0.0
  0
TEXT
  5
161
330
17
100
AcDbEntity
  8
COTA
100
AcDbText
 10
5262.4
 20
11101.8
 30
0.0
 40
4.0
  1
29
100
AcDbText
  0
LINE
  5
162
330
17
100
AcDbEntity
  8
COTA
100
AcDbLine
 10
5623.9
 20
11093.7
 30
0.0
 11
5709.9
 21
11093.7
 31
0.0
  0
LINE
  5
163
330
17
100
AcDbEntity
  8
COTA
100
AcDbLine
 10
5623.9
 20
11086.7
 30
0.0
 11
5623.9
 21
11098.7
 31
0.0
  0
LINE
  5
164
330
17
100
AcDbEntity
  8
COTA
100
AcDbLine
 10
5709.9
 20
11086.7
 30
0.0
 11
5709.9
 21
11098.7
 31
0.0
  0
TEXT
  5
165
330
17
100
AcDbEntity
  8
COTA
100
AcDbText
 10
5666.9
 20
11101.8
 30
0.0
 40
4.0
  1
86
100
AcDbText
  0
LINE
  5
166
330
17
100
AcDbEntity
  8
COTA
100
AcDbLine
 10
4817.4
 20
10863.8
 30
0.0
 11
5063.4
 21
10863.8
 31
0.0
  0
LINE
  5
167
330
17
100
AcDbEntity
  8
COTA
100
AcDbLine
 10
4817.4
 20
10890.4
 30
0.0
 11
4817.4
 21
10858.8
 31
0.0
  0
LINE
  5
168
330
17
100
AcDbEntity
  8
COTA
100
AcDbLine
 10
5063.4
 20
10890.4
 30
0.0
 11
5063.4
 21
10858.8
 31
0.0
  0
TEXT
  5
169
330
17
100
AcDbEntity
  8
COTA
100
AcDbText
 10
4940.4
 20
10871.9
 30
0.0
 40
4.0
  1
246
100
AcDbText
  0
LINE
  5
16A
330
17
100
AcDbEntity
  8
COTA
100
AcDbLine
 10
5063.4
 20
10863.8
 30
0.0
 11
5194.4
 21
10863.8
 31
0.0
  0
LINE
  5
16B
330
17
100
AcDbEntity
  8
COTA
100
AcDbLine
 10
5063.4
 20
10890.4
 30
0.0
 11
5063.4
 21
10858.8
 31
0.0
  0
LINE
  5
16C
330
17
100
AcDbEntity
  8
COTA
100
AcDbLine
 10
5194.4
 20
10890.4
 30
0.0
 11
5194.4
 21
10858.8
 31
0.0
  0
TEXT
  5
16D
330
17
100
AcDbEntity
  8
COTA
100
AcDbText
 10
5128.9
 20
10872.1
 30
0.0
 40
4.0
  1
131
100
AcDbText
  0
LINE
  5
16E
330
17
100
AcDbEntity
  8
COTA
100
AcDbLine
 10
4817.4
 20
10830.3
 30
0.0
 11
5194.4
 21
10830.3
 31
0.0
  0
LINE
  5
16F
330
17
100
AcDbEntity
  8
COTA
100
AcDbLine
 10
4817.4
 20
10890.4
 30
0.0
 11
4817.4
 21
10825.3
 31
0.0
  0
LINE
  5
170
330
17
100
AcDbEntity
  8
COTA
100
AcDbLine
 10
5194.4
 20
10890.4
 30
0.0
 11
5194.4
 21
10825.3
 31
0.0
  0
TEXT
  5
171
330
17
100
AcDbEntity
  8
COTA
100
AcDbText
 10
5005.9
 20
10838.5
 30
0.0
 40
4.0
  1
377
100
AcDbText
  0
LINE
  5
172
330
17
100
AcDbEntity
  8
COTA
100
AcDbLine
 10
4817.4
 20
10873.7
 30
0.0
 11
4819.4
 21
10873.7
 31
0.0
  0
LINE
  5
173
330
17
100
AcDbEntity
  8
COTA
100
AcDbLine
 10
4819.4
 20
10890.4
 30
0.0
 11
4819.4
 21
10868.7
 31
0.0
  0
LINE
  5
174
330
17
100
AcDbEntity
  8
COTA
100
AcDbLine
 10
4817.4
 20
10890.4
 30
0.0
 11
4817.4
 21
10868.7
 31
0.0
  0
TEXT
  5
175
330
17
100
AcDbEntity
  8
COTA
100
AcDbText
 10
4805.4
 20
10881.7
 30
0.0
 40
4.0
  1
2
100
AcDbText
  0
LINE
  5
176
330
17
100
AcDbEntity
  8
COTA
100
AcDbLine
 10
5192.4
 20
10873.7
 30
0.0
 11
5194.4
 21
10873.7
 31
0.0
  0
LINE
  5
177
330
17
100
AcDbEntity
  8
COTA
100
AcDbLine
 10
5192.4
 20
10890.4
 30
0.0
 11
5192.4
 21
10868.7
 31
0.0
  0
LINE
  5
178
330
17
100
AcDbEntity
  8
COTA
100
AcDbLine
 10
5194.4
 20
10890.4
 30
0.0
 11
5194.4
 21
10868.7
 31
0.0
  0
TEXT
  5
179
330
17
100
AcDbEntity
  8
COTA
100
AcDbText
 10
5206.5
 20
10881.7
 30
0.0
 40
4.0
  1
2
100
AcDbText
  0
LINE
  5
17A
330
17
100
AcDbEntity
  8
Paineis
100
AcDbLine
 10
5217.0
 20
10890.4
 30
0.0
 11
5217.0
 21
10954.4
 31
0.0
  0
LINE
  5
17B
330
17
100
AcDbEntity
  8
Paineis
100
AcDbLine
 10
5194.4
 20
10890.4
 30
0.0
 11
5222.0
 21
10890.4
 31
0.0
  0
LINE
  5
17C
330
17
100
AcDbEntity
  8
Paineis
100
AcDbLine
 10
5194.4
 20
10954.4
 30
0.0
 11
5222.0
 21
10954.4
 31
0.0
  0
TEXT
  5
17D
330
17
100
AcDbEntity
  8
Paineis
100
AcDbText
 10
5208.9
 20
10922.4
 30
0.0
 40
4.0
  1
64
100
AcDbText
  0
LINE
  5
17E
330
17
100
AcDbEntity
  8
COTA
100
AcDbLine
 10
6022.4
 20
11357.7
 30
0.0
 11
6266.4
 21
11357.7
 31
0.0
  0
LINE
  5
17F
330
17
100
AcDbEntity
  8
COTA
100
AcDbLine
 10
6022.4
 20
11384.2
 30
0.0
 11
6022.4
 21
11352.7
 31
0.0
  0
LINE
  5
180
330
17
100
AcDbEntity
  8
COTA
100
AcDbLine
 10
6266.4
 20
11384.2
 30
0.0
 11
6266.4
 21
11352.7
 31
0.0
  0
TEXT
  5
181
330
17
100
AcDbEntity
  8
COTA
100
AcDbText
 10
6144.4
 20
11365.8
 30
0.0
 40
4.0
  1
244
100
AcDbText
  0
LINE
  5
182
330
17
100
AcDbEntity
  8
COTA
100
AcDbLine
 10
6022.4
 20
11324.2
 30
0.0
 11
7242.4
 21
11324.2
 31
0.0
  0
LINE
  5
183
330
17
100
AcDbEntity
  8
COTA
100
AcDbLine
 10
6022.4
 20
11384.2
 30
0.0
 11
6022.4
 21
11319.2
 31
0.0
  0
LINE
  5
184
330
17
100
AcDbEntity
  8
COTA
100
AcDbLine
 10
7242.4
 20
11384.2
 30
0.0
 11
7242.4
 21
11319.2
 31
0.0
  0
TEXT
  5
185
330
17
100
AcDbEntity
  8
COTA
100
AcDbText
 10
6632.4
 20
11332.3
 30
0.0
 40
4.0
  1
1220
100
AcDbText
  0
LINE
  5
186
330
17
100
AcDbEntity
  8
Paineis
100
AcDbLine
 10
6021.8
 20
11191.3
 30
0.0
 11
6127.8
 21
11191.3
 31
0.0
  0
LINE
  5
187
330
17
100
AcDbEntity
  8
Paineis
100
AcDbLine
 10
6021.8
 20
11164.7
 30
0.0
 11
6021.8
 21
11196.3
 31
0.0
  0
LINE
  5
188
330
17
100
AcDbEntity
  8
Paineis
100
AcDbLine
 10
6127.8
 20
11164.7
 30
0.0
 11
6127.8
 21
11196.3
 31
0.0
  0
TEXT
  5
189
330
17
100
AcDbEntity
  8
Paineis
100
AcDbText
 10
6074.8
 20
11199.4
 30
0.0
 40
4.0
  1
106
100
AcDbText
  0
LINE
  5
18A
330
17
100
AcDbEntity
  8
COTA
100
AcDbLine
 10
6021.8
 20
11138.2
 30
0.0
 11
6265.8
 21
11138.2
 31
0.0
  0
LINE
  5
18B
330
17
100
AcDbEntity
  8
COTA
100
AcDbLine
 10
6021.8
 20
11164.7
 30
0.0
 11
6021.8
 21
11133.2
 31
0.0
  0
LINE
  5
18C
330
17
100
AcDbEntity
  8
COTA
100
AcDbLine
 10
6265.8
 20
11164.7
 30
0.0
 11
6265.8
 21
11133.2
 31
0.0
  0
TEXT
  5
18D
330
17
100
AcDbEntity
  8
COTA
100
AcDbText
 10
6143.8
 20
11146.3
 30
0.0
 40
4.0
  1
244
100
AcDbText
  0
LINE
  5
18E
330
17
100
AcDbEntity
  8
COTA
100
AcDbLine
 10
6024.5
 20
10932.0
 30
0.0
 11
6159.5
 21
10932.0
 31
0.0
  0
LINE
  5
18F
330
17
100
AcDbEntity
  8
COTA
100
AcDbLine
 10
6024.5
 20
10958.6
 30
0.0
 11
6024.5
 21
10927.0
 31
0.0
  0
LINE
  5
190
330
17
100
AcDbEntity
  8
COTA
100
AcDbLine
 10
6159.5
 20
10958.6
 30
0.0
 11
6159.5
 21
10927.0
 31
0.0
  0
TEXT
  5
191
330
17
100
AcDbEntity
  8
COTA
100
AcDbText
 10
6092.0
 20
10940.3
 30
0.0
 40
4.0
  1
135
100
AcDbText
  0
LINE
  5
192
330
17
100
AcDbEntity
  8
COTA
100
AcDbLine
 10
6024.5
 20
10898.5
 30
0.0
 11
6405.5
 21
10898.5
 31
0.0
  0
LINE
  5
193
330
17
100
AcDbEntity
  8
COTA
100
AcDbLine
 10
6024.5
 20
10958.6
 30
0.0
 11
6024.5
 21
10893.5
 31
0.0
  0
LINE
  5
194
330
17
100
AcDbEntity
  8
COTA
100
AcDbLine
 10
6405.5
 20
10958.6
 30
0.0
 11
6405.5
 21
10893.5
 31
0.0
  0
TEXT
  5
195
330
17
100
AcDbEntity
  8
COTA
100
AcDbText
 10
6215.0
 20
10906.7
 30
0.0
 40
4.0
  1
381
100
AcDbText
  0
LINE
  5
196
330
17
100
AcDbEntity
  8
Paineis
100
AcDbLine
 10
5475.5
 20
10286.5
 30
0.0
 11
5475.5
 21
10300.5
 31
0.0
  0
LINE
  5
197
330
17
100
AcDbEntity
  8
Paineis
100
AcDbLine
 10
5457.2
 20
10286.5
 30
0.0
 11
5480.5
 21
10286.5
 31
0.0
  0
LINE
  5
198
330
17
100
AcDbEntity
  8
Paineis
100
AcDbLine
 10
5457.2
 20
10300.5
 30
0.0
 11
5480.5
 21
10300.5
 31
0.0
  0
TEXT
  5
199
330
17
100
AcDbEntity
  8
Paineis
100
AcDbText
 10
5467.4
 20
10311.5
 30
0.0
 40
4.0
  1
14
100
AcDbText
  0
LINE
  5
19A
330
17
100
AcDbEntity
  8
Paineis
100
AcDbLine
 10
5500.7
 20
10166.5
 30
0.0
 11
5500.7
 21
10300.5
 31
0.0
  0
LINE
  5
19B
330
17
100
AcDbEntity
  8
Paineis
100
AcDbLine
 10
5457.2
 20
10300.5
 30
0.0
 11
5505.7
 21
10300.5
 31
0.0
  0
LINE
  5
19C
330
17
100
AcDbEntity
  8
Paineis
100
AcDbLine
 10
5457.2
 20
10166.5
 30
0.0
 11
5505.7
 21
10166.5
 31
0.0
  0
TEXT
  5
19D
330
17
100
AcDbEntity
  8
Paineis
100
AcDbText
 10
5492.5
 20
10233.5
 30
0.0
 40
4.0
  1
134
100
AcDbText
  0
LINE
  5
19E
330
17
100
AcDbEntity
  8
COTA
100
AcDbLine
 10
6042.5
 20
10167.8
 30
0.0
 11
6042.5
 21
10295.8
 31
0.0
  0
LINE
  5
19F
330
17
100
AcDbEntity
  8
COTA
100
AcDbLine
 10
6085.7
 20
10167.8
 30
0.0
 11
6037.5
 21
10167.8
 31
0.0
  0
LINE
  5
1A0
330
17
100
AcDbEntity
  8
COTA
100
AcDbLine
 10
6101.3
 20
10295.8
 30
0.0
 11
6037.5
 21
10295.8
 31
0.0
  0
TEXT
  5
1A1
330
17
100
AcDbEntity
  8
COTA
100
AcDbText
 10
6037.0
 20
10231.8
 30
0.0
 40
4.0
  1
64
100
AcDbText
  0
LINE
  5
1A2
330
17
100
AcDbEntity
  8
COTA
100
AcDbLine
 10
4817.4
 20
11440.5
 30
0.0
 11
4819.4
 21
11440.5
 31
0.0
  0
LINE
  5
1A3
330
17
100
AcDbEntity
  8
COTA
100
AcDbLine
 10
4819.4
 20
11457.1
 30
0.0
 11
4819.4
 21
11435.5
 31
0.0
  0
LINE
  5
1A4
330
17
100
AcDbEntity
  8
COTA
100
AcDbLine
 10
4817.4
 20
11457.1
 30
0.0
 11
4817.4
 21
11435.5
 31
0.0
  0
TEXT
  5
1A5
330
17
100
AcDbEntity
  8
COTA
100
AcDbText
 10
4805.4
 20
11448.5
 30
0.0
 40
4.0
  1
2
100
AcDbText
  0
LINE
  5
1A6
330
17
100
AcDbEntity
  8
COTA
100
AcDbLine
 10
5210.4
 20
11440.5
 30
0.0
 11
5212.4
 21
11440.5
 31
0.0
  0
LINE
  5
1A7
330
17
100
AcDbEntity
  8
COTA
100
AcDbLine
 10
5210.4
 20
11457.1
 30
0.0
 11
5210.4
 21
11435.5
 31
0.0
  0
LINE
  5
1A8
330
17
100
AcDbEntity
  8
COTA
100
AcDbLine
 10
5212.4
 20
11457.1
 30
0.0
 11
5212.4
 21
11435.5
 31
0.0
  0
TEXT
  5
1A9
330
17
100
AcDbEntity
  8
COTA
100
AcDbText
 10
5224.5
 20
11448.5
 30
0.0
 40
4.0
  1
2
100
AcDbText
  0
LINE
  5
1AA
330
17
100
AcDbEntity
  8
COTA
100
AcDbLine
 10
5284.9
 20
11440.5
 30
0.0
 11
5286.9
 21
11440.5
 31
0.0
  0
LINE
  5
1AB
330
17
100
AcDbEntity
  8
COTA
100
AcDbLine
 10
5286.9
 20
11457.1
 30
0.0
 11
5286.9
 21
11435.5
 31
0.0
  0
LINE
  5
1AC
330
17
100
AcDbEntity
  8
COTA
100
AcDbLine
 10
5284.9
 20
11457.1
 30
0.0
 11
5284.9
 21
11435.5
 31
0.0
  0
TEXT
  5
1AD
330
17
100
AcDbEntity
  8
COTA
100
AcDbText
 10
5272.9
 20
11448.5
 30
0.0
 40
4.0
  1
2
100
AcDbText
  0
LINE
  5
1AE
330
17
100
AcDbEntity
  8
COTA
100
AcDbLine
 10
6021.8
 20
11104.7
 30
0.0
 11
6997.8
 21
11104.7
 31
0.0
  0
LINE
  5
1AF
330
17
100
AcDbEntity
  8
COTA
100
AcDbLine
 10
6997.8
 20
11164.7
 30
0.0
 11
6997.8
 21
11099.7
 31
0.0
  0
LINE
  5
1B0
330
17
100
AcDbEntity
  8
COTA
100
AcDbLine
 10
6021.8
 20
11164.7
 30
0.0
 11
6021.8
 21
11099.7
 31
0.0
  0
TEXT
  5
1B1
330
17
100
AcDbEntity
  8
COTA
100
AcDbText
 10
6509.8
 20
11112.8
 30
0.0
 40
4.0
  1
976
100
AcDbText
  0
LINE
  5
1B2
330
17
100
AcDbEntity
  8
COTA
100
AcDbLine
 10
5702.9
 20
11057.0
 30
0.0
 11
5709.9
 21
11057.0
 31
0.0
  0
LINE
  5
1B3
330
17
100
AcDbEntity
  8
COTA
100
AcDbLine
 10
5702.9
 20
11072.7
 30
0.0
 11
5702.9
 21
11052.0
 31
0.0
  0
LINE
  5
1B4
330
17
100
AcDbEntity
  8
COTA
100
AcDbLine
 10
5709.9
 20
11072.7
 30
0.0
 11
5709.9
 21
11052.0
 31
0.0
  0
TEXT
  5
1B5
330
17
100
AcDbEntity
  8
COTA
100
AcDbText
 10
5718.7
 20
11065.1
 30
0.0
 40
4.0
  1
7
100
AcDbText
  0
ENDSEC
  0
SECTION
  2
OBJECTS
  0
DICTIONARY
  5
A
330
0
100
AcDbDictionary
281
1
  3
ACAD_COLOR
350
B
  3
ACAD_GROUP
350
C
  3
ACAD_LAYOUT
350
D
  3
ACAD_MATERIAL
350
E
  3
ACAD_MLEADERSTYLE
350
F
  3
ACAD_MLINESTYLE
350
10
  3
ACAD_PLOTSETTINGS
350
11
  3
ACAD_PLOTSTYLENAME
350
12
  3
ACAD_SCALELIST
350
14
  3
ACAD_TABLESTYLE
350
15
  3
ACAD_VISUALSTYLE
350
16
  3
EZDXF_META
350
2D
  0
DICTIONARY
  5
B
330
A
100
AcDbDictionary
281
1
  0
DICTIONARY
  5
C
330
A
100
AcDbDictionary
281
1
  0
DICTIONARY
  5
D
330
A
100
AcDbDictionary
281
1
  3
Model
350
1A
  3
Layout1
350
1E
  0
DICTIONARY
  5
E
330
A
100
AcDbDictionary
281
1
  3
ByBlock
350
1F
  3
ByLayer
350
20
  3
Global
350
21
  0
DICTIONARY
  5
F
330
A
100
AcDbDictionary
281
1
  3
Standard
350
2C
  0
DICTIONARY
  5
10
330
A
100
AcDbDictionary
281
1
  3
Standard
350
22
  0
DICTIONARY
  5
11
330
A
100
AcDbDictionary
281
1
  0
ACDBDICTIONARYWDFLT
  5
12
330
A
100
AcDbDictionary
281
1
  3
Normal
350
13
100
AcDbDictionaryWithDefault
340
13
  0
ACDBPLACEHOLDER
  5
13
330
12
  0
DICTIONARY
  5
14
330
A
100
AcDbDictionary
281
1
  0
DICTIONARY
  5
15
330
A
100
AcDbDictionary
281
1
  0
DICTIONARY
  5
16
330
A
100
AcDbDictionary
281
1
  0
LAYOUT
  5
1A
330
D
100
AcDbPlotSettings
  1

  4
A3
  6

 40
7.5
 41
20.0
 42
7.5
 43
20.0
 44
420.0
 45
297.0
 46
0.0
 47
0.0
 48
0.0
 49
0.0
140
0.0
141
0.0
142
1.0
143
1.0
 70
1024
 72
1
 73
0
 74
5
  7

 75
16
 76
0
 77
2
 78
300
147
1.0
148
0.0
149
0.0
100
AcDbLayout
  1
Model
 70
1
 71
0
 10
0.0
 20
0.0
 11
420.0
 21
297.0
 12
0.0
 22
0.0
 32
0.0
 14
1e+20
 24
1e+20
 34
1e+20
 15
-1e+20
 25
-1e+20
 35
-1e+20
146
0.0
 13
0.0
 23
0.0
 33
0.0
 16
1.0
 26
0.0
 36
0.0
 17
0.0
 27
1.0
 37
0.0
 76
1
330
17
  0
LAYOUT
  5
1E
330
D
100
AcDbPlotSettings
  1

  4
A3
  6

 40
7.5
 41
20.0
 42
7.5
 43
20.0
 44
420.0
 45
297.0
 46
0.0
 47
0.0
 48
0.0
 49
0.0
140
0.0
141
0.0
142
1.0
143
1.0
 70
0
 72
1
 73
0
 74
5
  7

 75
16
 76
0
 77
2
 78
300
147
1.0
148
0.0
149
0.0
100
AcDbLayout
  1
Layout1
 70
1
 71
1
 10
0.0
 20
0.0
 11
420.0
 21
297.0
 12
0.0
 22
0.0
 32
0.0
 14
1e+20
 24
1e+20
 34
1e+20
 15
-1e+20
 25
-1e+20
 35
-1e+20
146
0.0
 13
0.0
 23
0.0
 33
0.0
 16
1.0
 26
0.0
 36
0.0
 17
0.0
 27
1.0
 37
0.0
 76
1
330
1B
  0
MATERIAL
  5
1F
102
{ACAD_REACTORS
330
E
102
}
330
E
100
AcDbMaterial
  1
ByBlock
  2

 70
0
 40
1.0
 71
1
 41
1.0
 91
-1023410177
 42
1.0
 72
1
  3

 73
1
 74
1
 75
1
 44
0.5
 73
0
 45
1.0
 46
1.0
 77
1
  4

 78
1
 79
1
170
1
 48
1.0
171
1
  6

172
1
173
1
174
1
140
1.0
141
1.0
175
1
  7

176
1
177
1
178
1
143
1.0
179
1
  8

270
1
271
1
272
1
145
1.0
146
1.0
273
1
  9

274
1
275
1
276
1
 42
1.0
 72
1
  3

 73
1
 74
1
 75
1
 94
63
  0
MATERIAL
  5
20
102
{ACAD_REACTORS
330
E
102
}
330
E
100
AcDbMaterial
  1
ByLayer
  2

 70
0
 40
1.0
 71
1
 41
1.0
 91
-1023410177
 42
1.0
 72
1
  3

 73
1
 74
1
 75
1
 44
0.5
 73
0
 45
1.0
 46
1.0
 77
1
  4

 78
1
 79
1
170
1
 48
1.0
171
1
  6

172
1
173
1
174
1
140
1.0
141
1.0
175
1
  7

176
1
177
1
178
1
143
1.0
179
1
  8

270
1
271
1
272
1
145
1.0
146
1.0
273
1
  9

274
1
275
1
276
1
 42
1.0
 72
1
  3

 73
1
 74
1
 75
1
 94
63
  0
MATERIAL
  5
21
102
{ACAD_REACTORS
330
E
102
}
330
E
100
AcDbMaterial
  1
Global
  2

 70
0
 40
1.0
 71
1
 41
1.0
 91
-1023410177
 42
1.0
 72
1
  3

 73
1
 74
1
 75
1
 44
0.5
 73
0
 45
1.0
 46
1.0
 77
1
  4

 78
1
 79
1
170
1
 48
1.0
171
1
  6

172
1
173
1
174
1
140
1.0
141
1.0
175
1
  7

176
1
177
1
178
1
143
1.0
179
1
  8

270
1
271
1
272
1
145
1.0
146
1.0
273
1
  9

274
1
275
1
276
1
 42
1.0
 72
1
  3

 73
1
 74
1
 75
1
 94
63
  0
MLINESTYLE
  5
22
102
{ACAD_REACTORS
330
10
102
}
330
10
100
AcDbMlineStyle
  2
Standard
 70
0
  3

 62
256
 51
90.0
 52
90.0
 71
2
 49
0.5
 62
256
  6
BYLAYER
 49
-0.5
 62
256
  6
BYLAYER
  0
MLEADERSTYLE
  5
2C
102
{ACAD_REACTORS
330
F
102
}
330
F
100
AcDbMLeaderStyle
179
2
170
2
171
1
172
0
 90
2
 40
0.0
 41
0.0
173
1
 91
-1056964608
 92
-2
290
1
 42
2.0
291
1
 43
8.0
  3
Standard
 44
4.0
300

342
29
174
1
175
1
176
0
178
1
 93
-1056964608
 45
4.0
292
0
297
0
 46
4.0
 94
-1056964608
 47
1.0
 49
1.0
140
1.0
294
1
141
0.0
177
0
142
1.0
295
0
296
0
143
3.75
271
0
272
9
273
9
  0
DICTIONARY
  5
2D
330
A
100
AcDbDictionary
280
1
281
1
  3
CREATED_BY_EZDXF
350
2E
  3
WRITTEN_BY_EZDXF
350
1B8
  0
DICTIONARYVAR
  5
2E
330
2D
100
DictionaryVariables
280
0
  1
1.4.3 @ 2026-03-11T20:52:46.872085+00:00
  0
DICTIONARYVAR
  5
1B8
330
2D
100
DictionaryVariables
280
0
  1
1.4.3 @ 2026-03-11T20:52:46.883897+00:00
  0
ENDSEC
  0
EOF
