  0
SECTION
  2
HEADER
  9
$ACADVER
  1
AC1024
  9
$ACADMAINTVER
 70
6
  9
$DWGCODEPAGE
  3
ANSI_1252
  9
$LASTSAVEDBY
  1
ezdxf
  9
$INSBASE
 10
0.0
 20
0.0
 30
0.0
  9
$EXTMIN
 10
1e+20
 20
1e+20
 30
1e+20
  9
$EXTMAX
 10
-1e+20
 20
-1e+20
 30
-1e+20
  9
$LIMMIN
 10
0.0
 20
0.0
  9
$LIMMAX
 10
420.0
 20
297.0
  9
$ORTHOMODE
 70
0
  9
$REGENMODE
 70
1
  9
$FILLMODE
 70
1
  9
$QTEXTMODE
 70
0
  9
$MIRRTEXT
 70
1
  9
$LTSCALE
 40
1.0
  9
$ATTMODE
 70
1
  9
$TEXTSIZE
 40
2.5
  9
$TRACEWID
 40
1.0
  9
$TEXTSTYLE
  7
Standard
  9
$CLAYER
  8
0
  9
$CELTYPE
  6
ByLayer
  9
$CECOLOR
 62
256
  9
$CELTSCALE
 40
1.0
  9
$DISPSILH
 70
0
  9
$DIMSCALE
 40
1.0
  9
$DIMASZ
 40
2.5
  9
$DIMEXO
 40
0.625
  9
$DIMDLI
 40
3.75
  9
$DIMRND
 40
0.0
  9
$DIMDLE
 40
0.0
  9
$DIMEXE
 40
1.25
  9
$DIMTP
 40
0.0
  9
$DIMTM
 40
0.0
  9
$DIMTXT
 40
2.5
  9
$DIMCEN
 40
2.5
  9
$DIMTSZ
 40
0.0
  9
$DIMTOL
 70
0
  9
$DIMLIM
 70
0
  9
$DIMTIH
 70
0
  9
$DIMTOH
 70
0
  9
$DIMSE1
 70
0
  9
$DIMSE2
 70
0
  9
$DIMTAD
 70
1
  9
$DIMZIN
 70
8
  9
$DIMBLK
  1

  9
$DIMASO
 70
1
  9
$DIMSHO
 70
1
  9
$DIMPOST
  1

  9
$DIMAPOST
  1

  9
$DIMALT
 70
0
  9
$DIMALTD
 70
3
  9
$DIMALTF
 40
0.03937007874
  9
$DIMLFAC
 40
1.0
  9
$DIMTOFL
 70
1
  9
$DIMTVP
 40
0.0
  9
$DIMTIX
 70
0
  9
$DIMSOXD
 70
0
  9
$DIMSAH
 70
0
  9
$DIMBLK1
  1

  9
$DIMBLK2
  1

  9
$DIMSTYLE
  2
ISO-25
  9
$DIMCLRD
 70
0
  9
$DIMCLRE
 70
0
  9
$DIMCLRT
 70
0
  9
$DIMTFAC
 40
1.0
  9
$DIMGAP
 40
0.625
  9
$DIMJUST
 70
0
  9
$DIMSD1
 70
0
  9
$DIMSD2
 70
0
  9
$DIMTOLJ
 70
0
  9
$DIMTZIN
 70
8
  9
$DIMALTZ
 70
0
  9
$DIMALTTZ
 70
0
  9
$DIMUPT
 70
0
  9
$DIMDEC
 70
2
  9
$DIMTDEC
 70
2
  9
$DIMALTU
 70
2
  9
$DIMALTTD
 70
3
  9
$DIMTXSTY
  7
Standard
  9
$DIMAUNIT
 70
0
  9
$DIMADEC
 70
0
  9
$DIMALTRND
 40
0.0
  9
$DIMAZIN
 70
0
  9
$DIMDSEP
 70
44
  9
$DIMATFIT
 70
3
  9
$DIMFRAC
 70
0
  9
$DIMLDRBLK
  1

  9
$DIMLUNIT
 70
2
  9
$DIMLWD
 70
-2
  9
$DIMLWE
 70
-2
  9
$DIMTMOVE
 70
0
  9
$DIMFXL
 40
1.0
  9
$DIMFXLON
 70
0
  9
$DIMJOGANG
 40
0.785398163397
  9
$DIMTFILL
 70
0
  9
$DIMTFILLCLR
 70
0
  9
$DIMARCSYM
 70
0
  9
$DIMLTYPE
  6

  9
$DIMLTEX1
  6

  9
$DIMLTEX2
  6

  9
$DIMTXTDIRECTION
 70
0
  9
$LUNITS
 70
2
  9
$LUPREC
 70
4
  9
$SKETCHINC
 40
1.0
  9
$FILLETRAD
 40
10.0
  9
$AUNITS
 70
0
  9
$AUPREC
 70
2
  9
$MENU
  1
.
  9
$ELEVATION
 40
0.0
  9
$PELEVATION
 40
0.0
  9
$THICKNESS
 40
0.0
  9
$LIMCHECK
 70
0
  9
$CHAMFERA
 40
0.0
  9
$CHAMFERB
 40
0.0
  9
$CHAMFERC
 40
0.0
  9
$CHAMFERD
 40
0.0
  9
$SKPOLY
 70
0
  9
$TDCREATE
 40
2461202.614560185
  9
$TDUCREATE
 40
2458532.153996898
  9
$TDUPDATE
 40
2461202.614560185
  9
$TDUUPDATE
 40
2458532.1544311
  9
$TDINDWG
 40
0.0
  9
$TDUSRTIMER
 40
0.0
  9
$USRTIMER
 70
1
  9
$ANGBASE
 50
0.0
  9
$ANGDIR
 70
0
  9
$PDMODE
 70
0
  9
$PDSIZE
 40
0.0
  9
$PLINEWID
 40
0.0
  9
$SPLFRAME
 70
0
  9
$SPLINETYPE
 70
6
  9
$SPLINESEGS
 70
8
  9
$HANDSEED
  5
126
  9
$SURFTAB1
 70
6
  9
$SURFTAB2
 70
6
  9
$SURFTYPE
 70
6
  9
$SURFU
 70
6
  9
$SURFV
 70
6
  9
$UCSBASE
  2

  9
$UCSNAME
  2

  9
$UCSORG
 10
0.0
 20
0.0
 30
0.0
  9
$UCSXDIR
 10
1.0
 20
0.0
 30
0.0
  9
$UCSYDIR
 10
0.0
 20
1.0
 30
0.0
  9
$UCSORTHOREF
  2

  9
$UCSORTHOVIEW
 70
0
  9
$UCSORGTOP
 10
0.0
 20
0.0
 30
0.0
  9
$UCSORGBOTTOM
 10
0.0
 20
0.0
 30
0.0
  9
$UCSORGLEFT
 10
0.0
 20
0.0
 30
0.0
  9
$UCSORGRIGHT
 10
0.0
 20
0.0
 30
0.0
  9
$UCSORGFRONT
 10
0.0
 20
0.0
 30
0.0
  9
$UCSORGBACK
 10
0.0
 20
0.0
 30
0.0
  9
$PUCSBASE
  2

  9
$PUCSNAME
  2

  9
$PUCSORG
 10
0.0
 20
0.0
 30
0.0
  9
$PUCSXDIR
 10
1.0
 20
0.0
 30
0.0
  9
$PUCSYDIR
 10
0.0
 20
1.0
 30
0.0
  9
$PUCSORTHOREF
  2

  9
$PUCSORTHOVIEW
 70
0
  9
$PUCSORGTOP
 10
0.0
 20
0.0
 30
0.0
  9
$PUCSORGBOTTOM
 10
0.0
 20
0.0
 30
0.0
  9
$PUCSORGLEFT
 10
0.0
 20
0.0
 30
0.0
  9
$PUCSORGRIGHT
 10
0.0
 20
0.0
 30
0.0
  9
$PUCSORGFRONT
 10
0.0
 20
0.0
 30
0.0
  9
$PUCSORGBACK
 10
0.0
 20
0.0
 30
0.0
  9
$USERI1
 70
0
  9
$USERI2
 70
0
  9
$USERI3
 70
0
  9
$USERI4
 70
0
  9
$USERI5
 70
0
  9
$USERR1
 40
0.0
  9
$USERR2
 40
0.0
  9
$USERR3
 40
0.0
  9
$USERR4
 40
0.0
  9
$USERR5
 40
0.0
  9
$WORLDVIEW
 70
1
  9
$SHADEDGE
 70
3
  9
$SHADEDIF
 70
70
  9
$TILEMODE
 70
1
  9
$MAXACTVP
 70
64
  9
$PINSBASE
 10
0.0
 20
0.0
 30
0.0
  9
$PLIMCHECK
 70
0
  9
$PEXTMIN
 10
1e+20
 20
1e+20
 30
1e+20
  9
$PEXTMAX
 10
-1e+20
 20
-1e+20
 30
-1e+20
  9
$PLIMMIN
 10
0.0
 20
0.0
  9
$PLIMMAX
 10
420.0
 20
297.0
  9
$UNITMODE
 70
0
  9
$VISRETAIN
 70
1
  9
$PLINEGEN
 70
0
  9
$PSLTSCALE
 70
1
  9
$TREEDEPTH
 70
3020
  9
$CMLSTYLE
  2
Standard
  9
$CMLJUST
 70
0
  9
$CMLSCALE
 40
20.0
  9
$PROXYGRAPHICS
 70
1
  9
$MEASUREMENT
 70
1
  9
$CELWEIGHT
370
-1
  9
$ENDCAPS
280
0
  9
$JOINSTYLE
280
0
  9
$LWDISPLAY
290
0
  9
$INSUNITS
 70
6
  9
$HYPERLINKBASE
  1

  9
$STYLESHEET
  1

  9
$XEDIT
290
1
  9
$CEPSNTYPE
380
0
  9
$PSTYLEMODE
290
1
  9
$FINGERPRINTGUID
  2
{D5E68B4F-052C-49EB-A6D1-1122E70BC240}
  9
$VERSIONGUID
  2
{8EDEC3AF-E739-40C0-91CC-45DC6A808179}
  9
$EXTNAMES
290
1
  9
$PSVPSCALE
 40
0.0
  9
$OLESTARTUP
290
0
  9
$SORTENTS
280
127
  9
$INDEXCTL
280
0
  9
$HIDETEXT
280
1
  9
$XCLIPFRAME
280
1
  9
$HALOGAP
280
0
  9
$OBSCOLOR
 70
257
  9
$OBSLTYPE
280
0
  9
$INTERSECTIONDISPLAY
280
0
  9
$INTERSECTIONCOLOR
 70
257
  9
$DIMASSOC
280
2
  9
$PROJECTNAME
  1

  9
$CAMERADISPLAY
290
0
  9
$LENSLENGTH
 40
50.0
  9
$CAMERAHEIGHT
 40
0.0
  9
$STEPSPERSEC
 40
24.0
  9
$STEPSIZE
 40
100.0
  9
$3DDWFPREC
 40
2.0
  9
$PSOLWIDTH
 40
0.005
  9
$PSOLHEIGHT
 40
0.08
  9
$LOFTANG1
 40
1.570796326795
  9
$LOFTANG2
 40
1.570796326795
  9
$LOFTMAG1
 40
0.0
  9
$LOFTMAG2
 40
0.0
  9
$LOFTPARAM
 70
7
  9
$LOFTNORMALS
280
1
  9
$LATITUDE
 40
37.795
  9
$LONGITUDE
 40
-122.394
  9
$NORTHDIRECTION
 40
0.0
  9
$TIMEZONE
 70
-8000
  9
$LIGHTGLYPHDISPLAY
280
1
  9
$TILEMODELIGHTSYNCH
280
1
  9
$CMATERIAL
347
20
  9
$SOLIDHIST
280
0
  9
$SHOWHIST
280
1
  9
$DWFFRAME
280
2
  9
$DGNFRAME
280
2
  9
$REALWORLDSCALE
290
1
  9
$INTERFERECOLOR
 62
256
  9
$CSHADOW
280
0
  9
$SHADOWPLANELOCATION
 40
0.0
  0
ENDSEC
  0
SECTION
  2
CLASSES
  0
CLASS
  1
ACDBDICTIONARYWDFLT
  2
AcDbDictionaryWithDefault
  3
ObjectDBX Classes
 90
0
 91
0
280
0
281
0
  0
CLASS
  1
SUN
  2
AcDbSun
  3
SCENEOE
 90
1153
 91
0
280
0
281
0
  0
CLASS
  1
VISUALSTYLE
  2
AcDbVisualStyle
  3
ObjectDBX Classes
 90
4095
 91
0
280
0
281
0
  0
CLASS
  1
MATERIAL
  2
AcDbMaterial
  3
ObjectDBX Classes
 90
1153
 91
0
280
0
281
0
  0
CLASS
  1
SCALE
  2
AcDbScale
  3
ObjectDBX Classes
 90
1153
 91
0
280
0
281
0
  0
CLASS
  1
TABLESTYLE
  2
AcDbTableStyle
  3
ObjectDBX Classes
 90
4095
 91
0
280
0
281
0
  0
CLASS
  1
MLEADERSTYLE
  2
AcDbMLeaderStyle
  3
ACDB_MLEADERSTYLE_CLASS
 90
4095
 91
0
280
0
281
0
  0
CLASS
  1
DICTIONARYVAR
  2
AcDbDictionaryVar
  3
ObjectDBX Classes
 90
0
 91
0
280
0
281
0
  0
CLASS
  1
CELLSTYLEMAP
  2
AcDbCellStyleMap
  3
ObjectDBX Classes
 90
1152
 91
0
280
0
281
0
  0
CLASS
  1
MENTALRAYRENDERSETTINGS
  2
AcDbMentalRayRenderSettings
  3
SCENEOE
 90
1024
 91
0
280
0
281
0
  0
CLASS
  1
ACDBDETAILVIEWSTYLE
  2
AcDbDetailViewStyle
  3
ObjectDBX Classes
 90
1025
 91
0
280
0
281
0
  0
CLASS
  1
ACDBSECTIONVIEWSTYLE
  2
AcDbSectionViewStyle
  3
ObjectDBX Classes
 90
1025
 91
0
280
0
281
0
  0
CLASS
  1
RASTERVARIABLES
  2
AcDbRasterVariables
  3
ISM
 90
0
 91
0
280
0
281
0
  0
CLASS
  1
ACDBPLACEHOLDER
  2
AcDbPlaceHolder
  3
ObjectDBX Classes
 90
0
 91
0
280
0
281
0
  0
CLASS
  1
LAYOUT
  2
AcDbLayout
  3
ObjectDBX Classes
 90
0
 91
0
280
0
281
0
  0
ENDSEC
  0
SECTION
  2
TABLES
  0
TABLE
  2
VPORT
  5
8
330
0
100
AcDbSymbolTable
 70
1
  0
VPORT
  5
23
330
8
100
AcDbSymbolTableRecord
100
AcDbViewportTableRecord
  2
*Active
 70
0
 10
0.0
 20
0.0
 11
1.0
 21
1.0
 12
0.0
 22
0.0
 13
0.0
 23
0.0
 14
0.5
 24
0.5
 15
0.5
 25
0.5
 16
0.0
 26
0.0
 36
1.0
 17
0.0
 27
0.0
 37
0.0
 40
1000.0
 41
1.34
 42
50.0
 43
0.0
 44
0.0
 50
0.0
 51
0.0
 71
0
 72
1000
 73
1
 74
3
 75
0
 76
0
 77
0
 78
0
281
0
 65
0
146
0.0
  0
ENDTAB
  0
TABLE
  2
LTYPE
  5
2
330
0
100
AcDbSymbolTable
 70
3
  0
LTYPE
  5
24
330
2
100
AcDbSymbolTableRecord
100
AcDbLinetypeTableRecord
  2
ByBlock
 70
0
  3

 72
65
 73
0
 40
0.0
  0
LTYPE
  5
25
330
2
100
AcDbSymbolTableRecord
100
AcDbLinetypeTableRecord
  2
ByLayer
 70
0
  3

 72
65
 73
0
 40
0.0
  0
LTYPE
  5
26
330
2
100
AcDbSymbolTableRecord
100
AcDbLinetypeTableRecord
  2
Continuous
 70
0
  3

 72
65
 73
0
 40
0.0
  0
ENDTAB
  0
TABLE
  2
LAYER
  5
1
330
0
100
AcDbSymbolTable
 70
10
  0
LAYER
  5
27
330
1
100
AcDbSymbolTableRecord
100
AcDbLayerTableRecord
  2
0
 70
0
 62
7
  6
Continuous
370
-3
390
13
347
21
  0
LAYER
  5
28
330
1
100
AcDbSymbolTableRecord
100
AcDbLayerTableRecord
  2
Defpoints
 70
0
 62
7
  6
Continuous
290
0
370
-3
390
13
347
21
  0
LAYER
  5
2F
330
1
100
AcDbSymbolTableRecord
100
AcDbLayerTableRecord
  2
CARIMBO
 70
0
 62
7
  6
Continuous
370
-3
390
13
347
21
  0
LAYER
  5
30
330
1
100
AcDbSymbolTableRecord
100
AcDbLayerTableRecord
  2
COTA
 70
0
 62
7
  6
Continuous
370
-3
390
13
347
21
  0
LAYER
  5
31
330
1
100
AcDbSymbolTableRecord
100
AcDbLayerTableRecord
  2
00 - FELIPE
 70
0
 62
7
  6
Continuous
370
-3
390
13
347
21
  0
LAYER
  5
32
330
1
100
AcDbSymbolTableRecord
100
AcDbLayerTableRecord
  2
SARR_EDITAR
 70
0
 62
7
  6
Continuous
370
-3
390
13
347
21
  0
LAYER
  5
33
330
1
100
AcDbSymbolTableRecord
100
AcDbLayerTableRecord
  2
Painéis
 70
0
 62
7
  6
Continuous
370
-3
390
13
347
21
  0
LAYER
  5
34
330
1
100
AcDbSymbolTableRecord
100
AcDbLayerTableRecord
  2
NOMENCLATURA
 70
0
 62
7
  6
Continuous
370
-3
390
13
347
21
  0
LAYER
  5
35
330
1
100
AcDbSymbolTableRecord
100
AcDbLayerTableRecord
  2
SARR_2.2x7
 70
0
 62
7
  6
Continuous
370
-3
390
13
347
21
  0
LAYER
  5
36
330
1
100
AcDbSymbolTableRecord
100
AcDbLayerTableRecord
  2
5
 70
0
 62
7
  6
Continuous
370
-3
390
13
347
21
  0
ENDTAB
  0
TABLE
  2
STYLE
  5
5
330
0
100
AcDbSymbolTable
 70
1
  0
STYLE
  5
29
330
5
100
AcDbSymbolTableRecord
100
AcDbTextStyleTableRecord
  2
Standard
 70
0
 40
0.0
 41
1.0
 50
0.0
 71
0
 42
2.5
  3
txt
  4

  0
ENDTAB
  0
TABLE
  2
VIEW
  5
7
330
0
100
AcDbSymbolTable
 70
0
  0
ENDTAB
  0
TABLE
  2
UCS
  5
6
330
0
100
AcDbSymbolTable
 70
0
  0
ENDTAB
  0
TABLE
  2
APPID
  5
3
330
0
100
AcDbSymbolTable
 70
3
  0
APPID
  5
2A
330
3
100
AcDbSymbolTableRecord
100
AcDbRegAppTableRecord
  2
ACAD
 70
0
  0
APPID
  5
123
330
3
100
AcDbSymbolTableRecord
100
AcDbRegAppTableRecord
  2
HATCHBACKGROUNDCOLOR
 70
0
  0
APPID
  5
124
330
3
100
AcDbSymbolTableRecord
100
AcDbRegAppTableRecord
  2
EZDXF
 70
0
  0
ENDTAB
  0
TABLE
  2
DIMSTYLE
  5
4
330
0
100
AcDbSymbolTable
 70
1
100
AcDbDimStyleTable
  0
DIMSTYLE
105
2B
330
4
100
AcDbSymbolTableRecord
100
AcDbDimStyleTableRecord
  2
Standard
 70
0
 40
1.0
 41
2.5
 42
0.625
 43
3.75
 44
1.25
 45
0.0
 46
0.0
 47
0.0
 48
0.0
 49
2.5
140
2.5
141
2.5
142
0.0
143
0.03937007874
144
1.0
145
0.0
146
1.0
147
0.625
148
0.0
 69
0
 70
0
 71
0
 72
0
 73
0
 74
0
 75
0
 76
0
 77
1
 78
8
 79
3
170
0
171
3
172
1
173
0
174
0
175
0
176
0
177
0
178
0
179
2
271
2
272
2
273
2
274
3
275
0
276
0
277
2
278
44
279
0
280
0
281
0
282
0
283
0
284
8
285
0
286
0
288
0
289
3
290
0
371
-2
372
-2
  0
ENDTAB
  0
TABLE
  2
BLOCK_RECORD
  5
9
330
0
100
AcDbSymbolTable
 70
2
  0
BLOCK_RECORD
  5
17
330
9
100
AcDbSymbolTableRecord
100
AcDbBlockTableRecord
  2
*Model_Space
340
1A
 70
0
280
1
281
0
  0
BLOCK_RECORD
  5
1B
330
9
100
AcDbSymbolTableRecord
100
AcDbBlockTableRecord
  2
*Paper_Space
340
1E
 70
0
280
1
281
0
  0
ENDTAB
  0
ENDSEC
  0
SECTION
  2
BLOCKS
  0
BLOCK
  5
18
330
17
100
AcDbEntity
  8
0
100
AcDbBlockBegin
  2
*Model_Space
 70
0
 10
0.0
 20
0.0
 30
0.0
  3
*Model_Space
  1

  0
ENDBLK
  5
19
330
17
100
AcDbEntity
  8
0
100
AcDbBlockEnd
  0
BLOCK
  5
1C
330
1B
100
AcDbEntity
  8
0
100
AcDbBlockBegin
  2
*Paper_Space
 70
0
 10
0.0
 20
0.0
 30
0.0
  3
*Paper_Space
  1

  0
ENDBLK
  5
1D
330
1B
100
AcDbEntity
  8
0
100
AcDbBlockEnd
  0
ENDSEC
  0
SECTION
  2
ENTITIES
  0
LINE
  5
37
330
17
100
AcDbEntity
  8
SARR_2.2x7
 62
40
370
25
100
AcDbLine
 10
3425.621030644779
 20
762.3776026479072
 30
0.0
 11
3604.121030644779
 21
762.3776026479036
 31
0.0
  0
LINE
  5
38
330
17
100
AcDbEntity
  8
SARR_2.2x7
 62
40
370
25
100
AcDbLine
 10
3604.121030644779
 20
767.3776025883681
 30
0.0
 11
3425.621030644779
 21
767.3776025883681
 31
0.0
  0
LINE
  5
39
330
17
100
AcDbEntity
  8
SARR_2.2x7
 62
40
370
25
100
AcDbLine
 10
3425.621030644779
 20
774.377602588368
 30
0.0
 11
3425.621030644779
 21
755.3776026479072
 31
0.0
  0
LINE
  5
3A
330
17
100
AcDbEntity
  8
SARR_2.2x7
 62
40
370
25
100
AcDbLine
 10
3604.121030644779
 20
774.377602588368
 30
0.0
 11
3604.121030644779
 21
755.3776026479072
 31
0.0
  0
LINE
  5
3B
330
17
100
AcDbEntity
  8
SARR_2.2x7
 62
40
370
25
100
AcDbLine
 10
3633.069114648265
 20
763.6374223985194
 30
0.0
 11
3870.069114648265
 21
763.6374223985194
 31
0.0
  0
LINE
  5
3C
330
17
100
AcDbEntity
  8
SARR_2.2x7
 62
40
370
25
100
AcDbLine
 10
3870.069114648265
 20
763.6374223985194
 30
0.0
 11
4006.569114648264
 21
763.6374223985194
 31
0.0
  0
LINE
  5
3D
330
17
100
AcDbEntity
  8
SARR_2.2x7
 62
40
370
25
100
AcDbLine
 10
4006.569114648264
 20
768.6374223389803
 30
0.0
 11
3870.069114648265
 21
768.6374223389839
 31
0.0
  0
LINE
  5
3E
330
17
100
AcDbEntity
  8
SARR_2.2x7
 62
40
370
25
100
AcDbLine
 10
3870.069114648265
 20
768.6374223389803
 30
0.0
 11
3633.069114648265
 21
768.6374223389803
 31
0.0
  0
LINE
  5
3F
330
17
100
AcDbEntity
  8
SARR_2.2x7
 62
40
370
25
100
AcDbLine
 10
3633.069114648265
 20
775.6374223389802
 30
0.0
 11
3633.069114648265
 21
756.6374223985194
 31
0.0
  0
LINE
  5
40
330
17
100
AcDbEntity
  8
SARR_2.2x7
 62
40
370
25
100
AcDbLine
 10
4006.569114648264
 20
775.6374223389802
 30
0.0
 11
4006.569114648264
 21
756.6374223985194
 31
0.0
  0
LINE
  5
41
330
17
100
AcDbEntity
  8
SARR_2.2x7
 62
40
370
25
100
AcDbLine
 10
4038.829092182955
 20
763.6374223985194
 30
0.0
 11
4275.829092182955
 21
763.6374223985194
 31
0.0
  0
LINE
  5
42
330
17
100
AcDbEntity
  8
SARR_2.2x7
 62
40
370
25
100
AcDbLine
 10
4275.829092182955
 20
763.6374223985194
 30
0.0
 11
4442.829092182955
 21
763.6374223985194
 31
0.0
  0
LINE
  5
43
330
17
100
AcDbEntity
  8
SARR_2.2x7
 62
40
370
25
100
AcDbLine
 10
4442.829092182955
 20
768.6374223389803
 30
0.0
 11
4275.829092182955
 21
768.6374223389839
 31
0.0
  0
LINE
  5
44
330
17
100
AcDbEntity
  8
SARR_2.2x7
 62
40
370
25
100
AcDbLine
 10
4275.829092182955
 20
768.6374223389803
 30
0.0
 11
4038.829092182955
 21
768.6374223389803
 31
0.0
  0
LINE
  5
45
330
17
100
AcDbEntity
  8
SARR_2.2x7
 62
40
370
25
100
AcDbLine
 10
4038.829092182955
 20
775.6374223389802
 30
0.0
 11
4038.829092182955
 21
756.6374223985194
 31
0.0
  0
LINE
  5
46
330
17
100
AcDbEntity
  8
SARR_2.2x7
 62
40
370
25
100
AcDbLine
 10
4442.829092182955
 20
775.6374223389802
 30
0.0
 11
4442.829092182955
 21
756.6374223985194
 31
0.0
  0
LINE
  5
47
330
17
100
AcDbEntity
  8
SARR_2.2x7
 62
40
370
25
100
AcDbLine
 10
3427.098069368448
 20
642.3214009385929
 30
0.0
 11
3664.098069368448
 21
642.3214009385929
 31
0.0
  0
LINE
  5
48
330
17
100
AcDbEntity
  8
SARR_2.2x7
 62
40
370
25
100
AcDbLine
 10
3664.098069368448
 20
642.3214009385929
 30
0.0
 11
3850.098069368448
 21
642.3214009385929
 31
0.0
  0
LINE
  5
49
330
17
100
AcDbEntity
  8
SARR_2.2x7
 62
40
370
25
100
AcDbLine
 10
3850.098069368448
 20
647.3214008790537
 30
0.0
 11
3664.098069368448
 21
647.3214008790574
 31
0.0
  0
LINE
  5
4A
330
17
100
AcDbEntity
  8
SARR_2.2x7
 62
40
370
25
100
AcDbLine
 10
3664.098069368448
 20
647.3214008790537
 30
0.0
 11
3427.098069368448
 21
647.3214008790537
 31
0.0
  0
LINE
  5
4B
330
17
100
AcDbEntity
  8
SARR_2.2x7
 62
40
370
25
100
AcDbLine
 10
3427.098069368448
 20
654.3214008790537
 30
0.0
 11
3427.098069368448
 21
635.3214009385928
 31
0.0
  0
LINE
  5
4C
330
17
100
AcDbEntity
  8
Painéis
 62
200
370
25
100
AcDbLine
 10
3664.098069368448
 20
654.3214009385929
 30
0.0
 11
3857.098069368447
 21
654.3214009385929
 31
0.0
  0
LINE
  5
4D
330
17
100
AcDbEntity
  8
Painéis
 62
200
370
25
100
AcDbLine
 10
3857.098069368447
 20
654.3214009385929
 30
0.0
 11
3857.098069368447
 21
625.3214009386111
 31
0.0
  0
LINE
  5
4E
330
17
100
AcDbEntity
  8
Painéis
 62
200
370
25
100
AcDbLine
 10
3838.098069368448
 20
635.321400938611
 30
0.0
 11
3664.098069368448
 21
635.321400938611
 31
0.0
  0
LINE
  5
4F
330
17
100
AcDbEntity
  8
Painéis
 62
200
370
25
100
AcDbLine
 10
3664.098069368448
 20
635.321400938611
 30
0.0
 11
3664.098069368448
 21
654.3214009385929
 31
0.0
  0
LINE
  5
50
330
17
100
AcDbEntity
  8
SARR_2.2x7
 62
40
370
25
100
AcDbLine
 10
3850.098069368448
 20
654.3214008790537
 30
0.0
 11
3850.098069368448
 21
635.321400938611
 31
0.0
  0
LINE
  5
51
330
17
100
AcDbEntity
  8
Painéis
 62
200
370
25
100
AcDbLine
 10
3857.098069368447
 20
625.3214009386111
 30
0.0
 11
3838.098069368448
 21
625.3214009386111
 31
0.0
  0
LINE
  5
52
330
17
100
AcDbEntity
  8
Painéis
 62
200
370
25
100
AcDbLine
 10
3838.098069368448
 20
625.3214009386111
 30
0.0
 11
3838.098069368448
 21
635.321400938611
 31
0.0
  0
LINE
  5
53
330
17
100
AcDbEntity
  8
SARR_EDITAR
 62
141
370
25
100
AcDbLine
 10
3838.098069368448
 20
630.3214009386111
 30
0.0
 11
3857.098069368447
 21
630.3214009386111
 31
0.0
  0
LINE
  5
54
330
17
100
AcDbEntity
  8
SARR_EDITAR
 62
141
370
25
100
AcDbLine
 10
3838.098069368448
 20
635.321400938611
 30
0.0
 11
3857.098069368447
 21
635.321400938611
 31
0.0
  0
LINE
  5
55
330
17
100
AcDbEntity
  8
Painéis
 62
200
370
25
100
AcDbLine
 10
3838.098069368448
 20
635.321400938611
 30
0.0
 11
3838.098069368448
 21
654.3214009385929
 31
0.0
  0
LINE
  5
56
330
17
100
AcDbEntity
  8
SARR_2.2x7
 62
40
370
25
100
AcDbLine
 10
3896.119839142551
 20
642.3214009385929
 30
0.0
 11
4133.11983914255
 21
642.3214009385929
 31
0.0
  0
LINE
  5
57
330
17
100
AcDbEntity
  8
SARR_2.2x7
 62
40
370
25
100
AcDbLine
 10
4133.11983914255
 20
642.3214009385929
 30
0.0
 11
4326.119839142551
 21
642.3214009385929
 31
0.0
  0
LINE
  5
58
330
17
100
AcDbEntity
  8
SARR_2.2x7
 62
40
370
25
100
AcDbLine
 10
4326.119839142551
 20
647.3214008790574
 30
0.0
 11
4133.11983914255
 21
647.3214008790574
 31
0.0
  0
LINE
  5
59
330
17
100
AcDbEntity
  8
SARR_2.2x7
 62
40
370
25
100
AcDbLine
 10
4133.11983914255
 20
647.3214008790537
 30
0.0
 11
3896.119839142551
 21
647.3214008790537
 31
0.0
  0
LINE
  5
5A
330
17
100
AcDbEntity
  8
SARR_2.2x7
 62
40
370
25
100
AcDbLine
 10
3896.119839142551
 20
654.3214008790537
 30
0.0
 11
3896.119839142551
 21
635.3214009385928
 31
0.0
  0
LINE
  5
5B
330
17
100
AcDbEntity
  8
Painéis
 62
200
370
25
100
AcDbLine
 10
4133.11983914255
 20
654.3214009385929
 30
0.0
 11
4326.119839142551
 21
654.3214009385929
 31
0.0
  0
LINE
  5
5C
330
17
100
AcDbEntity
  8
Painéis
 62
200
370
25
100
AcDbLine
 10
4326.119839142551
 20
654.3214009385929
 30
0.0
 11
4326.119839142551
 21
605.3214009386111
 31
0.0
  0
LINE
  5
5D
330
17
100
AcDbEntity
  8
Painéis
 62
200
370
25
100
AcDbLine
 10
4307.11983914255
 20
635.321400938611
 30
0.0
 11
4133.11983914255
 21
635.321400938611
 31
0.0
  0
LINE
  5
5E
330
17
100
AcDbEntity
  8
Painéis
 62
200
370
25
100
AcDbLine
 10
4133.11983914255
 20
635.321400938611
 30
0.0
 11
4133.11983914255
 21
654.3214009385929
 31
0.0
  0
LINE
  5
5F
330
17
100
AcDbEntity
  8
Painéis
 62
200
370
25
100
AcDbLine
 10
4326.119839142551
 20
605.3214009386111
 30
0.0
 11
4307.11983914255
 21
605.3214009386111
 31
0.0
  0
LINE
  5
60
330
17
100
AcDbEntity
  8
Painéis
 62
200
370
25
100
AcDbLine
 10
4307.11983914255
 20
605.3214009386111
 30
0.0
 11
4307.11983914255
 21
635.321400938611
 31
0.0
  0
LINE
  5
61
330
17
100
AcDbEntity
  8
Painéis
 62
200
370
25
100
AcDbLine
 10
4307.11983914255
 20
635.321400938611
 30
0.0
 11
4307.11983914255
 21
654.3214009385929
 31
0.0
  0
LINE
  5
62
330
17
100
AcDbEntity
  8
SARR_2.2x7
 62
40
370
25
100
AcDbLine
 10
4326.119839142551
 20
612.321400938611
 30
0.0
 11
4307.11983914255
 21
612.321400938611
 31
0.0
  0
LINE
  5
63
330
17
100
AcDbEntity
  8
SARR_2.2x7
 62
40
370
25
100
AcDbLine
 10
4307.11983914255
 20
635.321400938611
 30
0.0
 11
4326.119839142551
 21
635.321400938611
 31
0.0
  0
LINE
  5
64
330
17
100
AcDbEntity
  8
SARR_2.2x7
 62
40
370
25
100
AcDbLine
 10
4319.119839142552
 20
635.321400938611
 30
0.0
 11
4319.11983914255
 21
612.321400938611
 31
0.0
  0
LINE
  5
65
330
17
100
AcDbEntity
  8
SARR_2.2x7
 62
40
370
25
100
AcDbLine
 10
4314.11983914255
 20
635.321400938611
 30
0.0
 11
4314.119839142552
 21
612.321400938611
 31
0.0
  0
LINE
  5
66
330
17
100
AcDbEntity
  8
COTA
 62
4
370
25
100
AcDbLine
 10
3670.298087363011
 20
865.4473853237323
 30
0.0
 11
3670.298087363011
 21
821.8136865591514
 31
0.0
  0
LINE
  5
67
330
17
100
AcDbEntity
  8
COTA
 62
4
370
25
100
AcDbLine
 10
3914.298087363011
 20
865.4473853237323
 30
0.0
 11
3914.298087363011
 21
821.8136865591514
 31
0.0
  0
LINE
  5
68
330
17
100
AcDbEntity
  8
COTA
 62
4
370
25
100
AcDbLine
 10
3670.298087363011
 20
824.8136865591513
 30
0.0
 11
3914.298087363011
 21
824.8136865591513
 31
0.0
  0
LINE
  5
69
330
17
100
AcDbEntity
  8
COTA
 62
0
370
25
100
AcDbLine
 10
3671.798087363011
 20
826.3136865591513
 30
0.0
 11
3668.798087363011
 21
823.3136865591513
 31
0.0
  0
LINE
  5
6A
330
17
100
AcDbEntity
  8
COTA
 62
0
370
25
100
AcDbLine
 10
3912.798087363011
 20
823.3136865591513
 30
0.0
 11
3915.798087363011
 21
826.3136865591513
 31
0.0
  0
LINE
  5
6B
330
17
100
AcDbEntity
  8
00 - FELIPE
 62
4
370
25
100
AcDbLine
 10
3914.298087363011
 20
865.4473853237441
 30
0.0
 11
3914.298087363011
 21
821.8136865591523
 31
0.0
  0
LINE
  5
6C
330
17
100
AcDbEntity
  8
00 - FELIPE
 62
4
370
25
100
AcDbLine
 10
4179.798087363011
 20
865.4473853237441
 30
0.0
 11
4179.798087363011
 21
821.8136865591523
 31
0.0
  0
LINE
  5
6D
330
17
100
AcDbEntity
  8
00 - FELIPE
 62
4
370
25
100
AcDbLine
 10
3914.298087363011
 20
824.8136865591522
 30
0.0
 11
4179.798087363011
 21
824.8136865591522
 31
0.0
  0
LINE
  5
6E
330
17
100
AcDbEntity
  8
00 - FELIPE
 62
0
370
25
100
AcDbLine
 10
3915.798087363011
 20
826.3136865591522
 30
0.0
 11
3912.798087363011
 21
823.3136865591522
 31
0.0
  0
LINE
  5
6F
330
17
100
AcDbEntity
  8
00 - FELIPE
 62
0
370
25
100
AcDbLine
 10
4178.298087363011
 20
823.3136865591522
 30
0.0
 11
4181.298087363011
 21
826.3136865591522
 31
0.0
  0
LINE
  5
70
330
17
100
AcDbEntity
  8
COTA
 62
4
370
25
100
AcDbLine
 10
4634.225512286842
 20
864.8851369318945
 30
0.0
 11
4634.225512286842
 21
800.7735496672358
 31
0.0
  0
LINE
  5
71
330
17
100
AcDbEntity
  8
COTA
 62
4
370
25
100
AcDbLine
 10
4517.725512286843
 20
854.8851369319127
 30
0.0
 11
4517.725512286843
 21
800.7735496672358
 31
0.0
  0
LINE
  5
72
330
17
100
AcDbEntity
  8
COTA
 62
4
370
25
100
AcDbLine
 10
4634.225512286842
 20
803.7735496672357
 30
0.0
 11
4517.725512286843
 21
803.7735496672357
 31
0.0
  0
LINE
  5
73
330
17
100
AcDbEntity
  8
COTA
 62
0
370
25
100
AcDbLine
 10
4632.725512286842
 20
802.2735496672357
 30
0.0
 11
4635.725512286842
 21
805.2735496672357
 31
0.0
  0
LINE
  5
74
330
17
100
AcDbEntity
  8
COTA
 62
0
370
25
100
AcDbLine
 10
4519.225512286843
 20
805.2735496672357
 30
0.0
 11
4516.225512286843
 21
802.2735496672357
 31
0.0
  0
LINE
  5
75
330
17
100
AcDbEntity
  8
Painéis
 62
4
370
25
100
AcDbLine
 10
4517.725512286843
 20
854.8851369319127
 30
0.0
 11
4517.725512286843
 21
820.5831708954828
 31
0.0
  0
LINE
  5
76
330
17
100
AcDbEntity
  8
Painéis
 62
4
370
25
100
AcDbLine
 10
4536.725512286842
 20
854.8851369319091
 30
0.0
 11
4536.725512286842
 21
820.5831708954828
 31
0.0
  0
LINE
  5
77
330
17
100
AcDbEntity
  8
Painéis
 62
4
370
25
100
AcDbLine
 10
4517.725512286843
 20
823.583170895483
 30
0.0
 11
4536.725512286842
 21
823.583170895483
 31
0.0
  0
LINE
  5
78
330
17
100
AcDbEntity
  8
Painéis
 62
0
370
25
100
AcDbLine
 10
4519.225512286843
 20
825.083170895483
 30
0.0
 11
4516.225512286843
 21
822.083170895483
 31
0.0
  0
LINE
  5
79
330
17
100
AcDbEntity
  8
Painéis
 62
0
370
25
100
AcDbLine
 10
4535.225512286842
 20
822.083170895483
 30
0.0
 11
4538.225512286842
 21
825.083170895483
 31
0.0
  0
LINE
  5
7A
330
17
100
AcDbEntity
  8
Painéis
 62
4
370
25
100
AcDbLine
 10
4536.725512286842
 20
854.8851369319091
 30
0.0
 11
4536.725512286842
 21
820.5831708954828
 31
0.0
  0
LINE
  5
7B
330
17
100
AcDbEntity
  8
Painéis
 62
4
370
25
100
AcDbLine
 10
4634.225512286842
 20
864.8851369318945
 30
0.0
 11
4634.225512286842
 21
820.5831708954828
 31
0.0
  0
LINE
  5
7C
330
17
100
AcDbEntity
  8
Painéis
 62
4
370
25
100
AcDbLine
 10
4536.725512286842
 20
823.583170895483
 30
0.0
 11
4634.225512286842
 21
823.583170895483
 31
0.0
  0
LINE
  5
7D
330
17
100
AcDbEntity
  8
Painéis
 62
0
370
25
100
AcDbLine
 10
4538.225512286842
 20
825.083170895483
 30
0.0
 11
4535.225512286842
 21
822.083170895483
 31
0.0
  0
LINE
  5
7E
330
17
100
AcDbEntity
  8
Painéis
 62
0
370
25
100
AcDbLine
 10
4632.725512286842
 20
822.083170895483
 30
0.0
 11
4635.725512286842
 21
825.083170895483
 31
0.0
  0
LINE
  5
7F
330
17
100
AcDbEntity
  8
COTA
 62
4
370
25
100
AcDbLine
 10
3418.621030644779
 20
752.3776026479072
 30
0.0
 11
3418.621030644779
 21
710.0037236339385
 31
0.0
  0
LINE
  5
80
330
17
100
AcDbEntity
  8
COTA
 62
4
370
25
100
AcDbLine
 10
3611.121030644778
 20
752.3776026479254
 30
0.0
 11
3611.121030644778
 21
710.0037236339385
 31
0.0
  0
LINE
  5
81
330
17
100
AcDbEntity
  8
COTA
 62
4
370
25
100
AcDbLine
 10
3418.621030644779
 20
713.0037236339385
 30
0.0
 11
3611.121030644778
 21
713.0037236339385
 31
0.0
  0
LINE
  5
82
330
17
100
AcDbEntity
  8
COTA
 62
0
370
25
100
AcDbLine
 10
3420.121030644779
 20
714.5037236339385
 30
0.0
 11
3417.121030644779
 21
711.5037236339385
 31
0.0
  0
LINE
  5
83
330
17
100
AcDbEntity
  8
COTA
 62
0
370
25
100
AcDbLine
 10
3609.621030644778
 20
711.5037236339385
 30
0.0
 11
3612.621030644778
 21
714.5037236339385
 31
0.0
  0
LINE
  5
84
330
17
100
AcDbEntity
  8
COTA
 62
4
370
25
100
AcDbLine
 10
3626.069114648265
 20
753.6374223985194
 30
0.0
 11
3626.069114648265
 21
734.5845728038884
 31
0.0
  0
LINE
  5
85
330
17
100
AcDbEntity
  8
COTA
 62
4
370
25
100
AcDbLine
 10
3870.069114648265
 20
753.6374223985376
 30
0.0
 11
3870.069114648265
 21
734.5845728038884
 31
0.0
  0
LINE
  5
86
330
17
100
AcDbEntity
  8
COTA
 62
4
370
25
100
AcDbLine
 10
3626.069114648265
 20
737.5845728038885
 30
0.0
 11
3870.069114648265
 21
737.5845728038885
 31
0.0
  0
LINE
  5
87
330
17
100
AcDbEntity
  8
COTA
 62
0
370
25
100
AcDbLine
 10
3627.569114648265
 20
739.0845728038885
 30
0.0
 11
3624.569114648265
 21
736.0845728038885
 31
0.0
  0
LINE
  5
88
330
17
100
AcDbEntity
  8
COTA
 62
0
370
25
100
AcDbLine
 10
3868.569114648265
 20
736.0845728038885
 30
0.0
 11
3871.569114648265
 21
739.0845728038885
 31
0.0
  0
LINE
  5
89
330
17
100
AcDbEntity
  8
COTA
 62
4
370
25
100
AcDbLine
 10
3870.069114648265
 20
753.6374223985302
 30
0.0
 11
3870.069114648265
 21
734.5845728038884
 31
0.0
  0
LINE
  5
8A
330
17
100
AcDbEntity
  8
COTA
 62
4
370
25
100
AcDbLine
 10
4013.569114648265
 20
753.6374223985376
 30
0.0
 11
4013.569114648265
 21
734.5845728038884
 31
0.0
  0
LINE
  5
8B
330
17
100
AcDbEntity
  8
COTA
 62
4
370
25
100
AcDbLine
 10
3870.069114648265
 20
737.5845728038885
 30
0.0
 11
4013.569114648265
 21
737.5845728038885
 31
0.0
  0
LINE
  5
8C
330
17
100
AcDbEntity
  8
COTA
 62
0
370
25
100
AcDbLine
 10
3871.569114648265
 20
739.0845728038885
 30
0.0
 11
3868.569114648265
 21
736.0845728038885
 31
0.0
  0
LINE
  5
8D
330
17
100
AcDbEntity
  8
COTA
 62
0
370
25
100
AcDbLine
 10
4012.069114648265
 20
736.0845728038885
 30
0.0
 11
4015.069114648265
 21
739.0845728038885
 31
0.0
  0
LINE
  5
8E
330
17
100
AcDbEntity
  8
COTA
 62
4
370
25
100
AcDbLine
 10
3626.069114648265
 20
753.6374223985194
 30
0.0
 11
3626.069114648265
 21
710.0037236339385
 31
0.0
  0
LINE
  5
8F
330
17
100
AcDbEntity
  8
COTA
 62
4
370
25
100
AcDbLine
 10
4013.569114648265
 20
753.6374223985376
 30
0.0
 11
4013.569114648265
 21
710.0037236339385
 31
0.0
  0
LINE
  5
90
330
17
100
AcDbEntity
  8
COTA
 62
4
370
25
100
AcDbLine
 10
3626.069114648265
 20
713.0037236339385
 30
0.0
 11
4013.569114648265
 21
713.0037236339385
 31
0.0
  0
LINE
  5
91
330
17
100
AcDbEntity
  8
COTA
 62
0
370
25
100
AcDbLine
 10
3627.569114648265
 20
714.5037236339385
 30
0.0
 11
3624.569114648265
 21
711.5037236339385
 31
0.0
  0
LINE
  5
92
330
17
100
AcDbEntity
  8
COTA
 62
0
370
25
100
AcDbLine
 10
4012.069114648265
 20
711.5037236339385
 30
0.0
 11
4015.069114648265
 21
714.5037236339385
 31
0.0
  0
LINE
  5
93
330
17
100
AcDbEntity
  8
COTA
 62
4
370
25
100
AcDbLine
 10
4031.829092182955
 20
753.6374223985194
 30
0.0
 11
4031.829092182955
 21
734.5845728038884
 31
0.0
  0
LINE
  5
94
330
17
100
AcDbEntity
  8
COTA
 62
4
370
25
100
AcDbLine
 10
4275.829092182955
 20
753.6374223985376
 30
0.0
 11
4275.829092182955
 21
734.5845728038884
 31
0.0
  0
LINE
  5
95
330
17
100
AcDbEntity
  8
COTA
 62
4
370
25
100
AcDbLine
 10
4031.829092182955
 20
737.5845728038885
 30
0.0
 11
4275.829092182955
 21
737.5845728038885
 31
0.0
  0
LINE
  5
96
330
17
100
AcDbEntity
  8
COTA
 62
0
370
25
100
AcDbLine
 10
4033.329092182955
 20
739.0845728038885
 30
0.0
 11
4030.329092182955
 21
736.0845728038885
 31
0.0
  0
LINE
  5
97
330
17
100
AcDbEntity
  8
COTA
 62
0
370
25
100
AcDbLine
 10
4274.329092182955
 20
736.0845728038885
 30
0.0
 11
4277.329092182955
 21
739.0845728038885
 31
0.0
  0
LINE
  5
98
330
17
100
AcDbEntity
  8
COTA
 62
4
370
25
100
AcDbLine
 10
4275.829092182955
 20
753.6374223985302
 30
0.0
 11
4275.829092182955
 21
734.5845728038884
 31
0.0
  0
LINE
  5
99
330
17
100
AcDbEntity
  8
COTA
 62
4
370
25
100
AcDbLine
 10
4449.829092182954
 20
753.6374223985376
 30
0.0
 11
4449.829092182954
 21
734.5845728038884
 31
0.0
  0
LINE
  5
9A
330
17
100
AcDbEntity
  8
COTA
 62
4
370
25
100
AcDbLine
 10
4275.829092182955
 20
737.5845728038885
 30
0.0
 11
4449.829092182954
 21
737.5845728038885
 31
0.0
  0
LINE
  5
9B
330
17
100
AcDbEntity
  8
COTA
 62
0
370
25
100
AcDbLine
 10
4277.329092182955
 20
739.0845728038885
 30
0.0
 11
4274.329092182955
 21
736.0845728038885
 31
0.0
  0
LINE
  5
9C
330
17
100
AcDbEntity
  8
COTA
 62
0
370
25
100
AcDbLine
 10
4448.329092182954
 20
736.0845728038885
 30
0.0
 11
4451.329092182954
 21
739.0845728038885
 31
0.0
  0
LINE
  5
9D
330
17
100
AcDbEntity
  8
COTA
 62
4
370
25
100
AcDbLine
 10
4031.829092182955
 20
753.6374223985194
 30
0.0
 11
4031.829092182955
 21
710.0037236339385
 31
0.0
  0
LINE
  5
9E
330
17
100
AcDbEntity
  8
COTA
 62
4
370
25
100
AcDbLine
 10
4449.829092182954
 20
753.6374223985376
 30
0.0
 11
4449.829092182954
 21
710.0037236339385
 31
0.0
  0
LINE
  5
9F
330
17
100
AcDbEntity
  8
COTA
 62
4
370
25
100
AcDbLine
 10
4031.829092182955
 20
713.0037236339385
 30
0.0
 11
4449.829092182954
 21
713.0037236339385
 31
0.0
  0
LINE
  5
A0
330
17
100
AcDbEntity
  8
COTA
 62
0
370
25
100
AcDbLine
 10
4033.329092182955
 20
714.5037236339385
 30
0.0
 11
4030.329092182955
 21
711.5037236339385
 31
0.0
  0
LINE
  5
A1
330
17
100
AcDbEntity
  8
COTA
 62
0
370
25
100
AcDbLine
 10
4448.329092182954
 20
711.5037236339385
 30
0.0
 11
4451.329092182954
 21
714.5037236339385
 31
0.0
  0
LINE
  5
A2
330
17
100
AcDbEntity
  8
COTA
 62
4
370
25
100
AcDbLine
 10
3420.098069368448
 20
632.3214009385928
 30
0.0
 11
3420.098069368448
 21
576.7737689598516
 31
0.0
  0
LINE
  5
A3
330
17
100
AcDbEntity
  8
COTA
 62
4
370
25
100
AcDbLine
 10
3664.098069368448
 20
632.321400938611
 30
0.0
 11
3664.098069368448
 21
576.7737689598516
 31
0.0
  0
LINE
  5
A4
330
17
100
AcDbEntity
  8
COTA
 62
4
370
25
100
AcDbLine
 10
3420.098069368448
 20
579.7737689598516
 30
0.0
 11
3664.098069368448
 21
579.7737689598516
 31
0.0
  0
LINE
  5
A5
330
17
100
AcDbEntity
  8
COTA
 62
0
370
25
100
AcDbLine
 10
3421.598069368448
 20
581.2737689598516
 30
0.0
 11
3418.598069368448
 21
578.2737689598516
 31
0.0
  0
LINE
  5
A6
330
17
100
AcDbEntity
  8
COTA
 62
0
370
25
100
AcDbLine
 10
3662.598069368448
 20
578.2737689598516
 30
0.0
 11
3665.598069368448
 21
581.2737689598516
 31
0.0
  0
LINE
  5
A7
330
17
100
AcDbEntity
  8
COTA
 62
4
370
25
100
AcDbLine
 10
3664.098069368448
 20
632.3214009386037
 30
0.0
 11
3664.098069368448
 21
601.3546181298015
 31
0.0
  0
LINE
  5
A8
330
17
100
AcDbEntity
  8
COTA
 62
4
370
25
100
AcDbLine
 10
3838.098069368448
 20
622.3214009386111
 30
0.0
 11
3838.098069368448
 21
601.3546181298015
 31
0.0
  0
LINE
  5
A9
330
17
100
AcDbEntity
  8
COTA
 62
4
370
25
100
AcDbLine
 10
3664.098069368448
 20
604.3546181298015
 30
0.0
 11
3838.098069368448
 21
604.3546181298015
 31
0.0
  0
LINE
  5
AA
330
17
100
AcDbEntity
  8
COTA
 62
0
370
25
100
AcDbLine
 10
3665.598069368448
 20
605.8546181298015
 30
0.0
 11
3662.598069368448
 21
602.8546181298015
 31
0.0
  0
LINE
  5
AB
330
17
100
AcDbEntity
  8
COTA
 62
0
370
25
100
AcDbLine
 10
3836.598069368448
 20
602.8546181298015
 30
0.0
 11
3839.598069368448
 21
605.8546181298015
 31
0.0
  0
LINE
  5
AC
330
17
100
AcDbEntity
  8
COTA
 62
4
370
25
100
AcDbLine
 10
3420.098069368448
 20
632.3214009385928
 30
0.0
 11
3420.098069368448
 21
543.0882055378615
 31
0.0
  0
LINE
  5
AD
330
17
100
AcDbEntity
  8
COTA
 62
4
370
25
100
AcDbLine
 10
3857.098069368447
 20
622.3214009386111
 30
0.0
 11
3857.098069368447
 21
543.0882055378615
 31
0.0
  0
LINE
  5
AE
330
17
100
AcDbEntity
  8
COTA
 62
4
370
25
100
AcDbLine
 10
3420.098069368448
 20
546.0882055378615
 30
0.0
 11
3857.098069368447
 21
546.0882055378615
 31
0.0
  0
LINE
  5
AF
330
17
100
AcDbEntity
  8
COTA
 62
0
370
25
100
AcDbLine
 10
3421.598069368448
 20
547.5882055378615
 30
0.0
 11
3418.598069368448
 21
544.5882055378615
 31
0.0
  0
LINE
  5
B0
330
17
100
AcDbEntity
  8
COTA
 62
0
370
25
100
AcDbLine
 10
3855.598069368447
 20
544.5882055378615
 30
0.0
 11
3858.598069368447
 21
547.5882055378615
 31
0.0
  0
LINE
  5
B1
330
17
100
AcDbEntity
  8
Painéis
 62
4
370
25
100
AcDbLine
 10
3835.09806936845
 20
635.3214009386113
 30
0.0
 11
3828.779690687682
 21
635.3214009386113
 31
0.0
  0
LINE
  5
B2
330
17
100
AcDbEntity
  8
Painéis
 62
4
370
25
100
AcDbLine
 10
3835.09806936845
 20
625.3214009386113
 30
0.0
 11
3828.779690687682
 21
625.3214009386113
 31
0.0
  0
LINE
  5
B3
330
17
100
AcDbEntity
  8
Painéis
 62
4
370
25
100
AcDbLine
 10
3831.779690687682
 20
635.3214009386113
 30
0.0
 11
3831.779690687682
 21
625.3214009386113
 31
0.0
  0
LINE
  5
B4
330
17
100
AcDbEntity
  8
Painéis
 62
4
370
25
100
AcDbLine
 10
3831.779690687682
 20
625.3214009386113
 30
0.0
 11
3831.779690687682
 21
606.8915763772078
 31
0.0
  0
LINE
  5
B5
330
17
100
AcDbEntity
  8
Painéis
 62
0
370
25
100
AcDbLine
 10
3833.279690687682
 20
633.8214009386113
 30
0.0
 11
3830.279690687682
 21
636.8214009386113
 31
0.0
  0
LINE
  5
B6
330
17
100
AcDbEntity
  8
Painéis
 62
0
370
25
100
AcDbLine
 10
3830.279690687682
 20
626.8214009386113
 30
0.0
 11
3833.279690687682
 21
623.8214009386113
 31
0.0
  0
LINE
  5
B7
330
17
100
AcDbEntity
  8
Painéis
 62
4
370
25
100
AcDbLine
 10
3838.098069368448
 20
622.3214009386111
 30
0.0
 11
3838.098069368448
 21
601.3546181298015
 31
0.0
  0
LINE
  5
B8
330
17
100
AcDbEntity
  8
Painéis
 62
4
370
25
100
AcDbLine
 10
3857.098069368447
 20
622.3214009386111
 30
0.0
 11
3857.098069368447
 21
601.3546181298015
 31
0.0
  0
LINE
  5
B9
330
17
100
AcDbEntity
  8
Painéis
 62
4
370
25
100
AcDbLine
 10
3838.098069368448
 20
604.3546181298015
 30
0.0
 11
3857.098069368447
 21
604.3546181298015
 31
0.0
  0
LINE
  5
BA
330
17
100
AcDbEntity
  8
Painéis
 62
0
370
25
100
AcDbLine
 10
3839.598069368448
 20
605.8546181298015
 30
0.0
 11
3836.598069368448
 21
602.8546181298015
 31
0.0
  0
LINE
  5
BB
330
17
100
AcDbEntity
  8
Painéis
 62
0
370
25
100
AcDbLine
 10
3855.598069368447
 20
602.8546181298015
 30
0.0
 11
3858.598069368447
 21
605.8546181298015
 31
0.0
  0
LINE
  5
BC
330
17
100
AcDbEntity
  8
Painéis
 62
4
370
25
100
AcDbLine
 10
3664.098069368448
 20
632.321477938597
 30
0.0
 11
3664.098069368448
 21
576.7737689598516
 31
0.0
  0
LINE
  5
BD
330
17
100
AcDbEntity
  8
Painéis
 62
4
370
25
100
AcDbLine
 10
3857.098069368447
 20
622.3214009386111
 30
0.0
 11
3857.098069368447
 21
576.7737689598516
 31
0.0
  0
LINE
  5
BE
330
17
100
AcDbEntity
  8
Painéis
 62
4
370
25
100
AcDbLine
 10
3664.098069368448
 20
579.7737689598516
 30
0.0
 11
3857.098069368447
 21
579.7737689598516
 31
0.0
  0
LINE
  5
BF
330
17
100
AcDbEntity
  8
Painéis
 62
0
370
25
100
AcDbLine
 10
3665.598069368448
 20
581.2737689598516
 30
0.0
 11
3662.598069368448
 21
578.2737689598516
 31
0.0
  0
LINE
  5
C0
330
17
100
AcDbEntity
  8
Painéis
 62
0
370
25
100
AcDbLine
 10
3855.598069368447
 20
578.2737689598516
 30
0.0
 11
3858.598069368447
 21
581.2737689598516
 31
0.0
  0
LINE
  5
C1
330
17
100
AcDbEntity
  8
Painéis
 62
4
370
25
100
AcDbLine
 10
3860.09806936845
 20
625.3214009386113
 30
0.0
 11
3879.398909501658
 21
625.3214009386113
 31
0.0
  0
LINE
  5
C2
330
17
100
AcDbEntity
  8
Painéis
 62
4
370
25
100
AcDbLine
 10
3860.09806936845
 20
654.3214009385931
 30
0.0
 11
3879.398909501658
 21
654.3214009385931
 31
0.0
  0
LINE
  5
C3
330
17
100
AcDbEntity
  8
Painéis
 62
4
370
25
100
AcDbLine
 10
3876.398909501658
 20
625.3214009386113
 30
0.0
 11
3876.398909501658
 21
654.3214009385931
 31
0.0
  0
LINE
  5
C4
330
17
100
AcDbEntity
  8
Painéis
 62
0
370
25
100
AcDbLine
 10
3874.898909501658
 20
626.8214009386113
 30
0.0
 11
3877.898909501658
 21
623.8214009386113
 31
0.0
  0
LINE
  5
C5
330
17
100
AcDbEntity
  8
Painéis
 62
0
370
25
100
AcDbLine
 10
3877.898909501658
 20
652.8214009385931
 30
0.0
 11
3874.898909501658
 21
655.8214009385931
 31
0.0
  0
LINE
  5
C6
330
17
100
AcDbEntity
  8
COTA
 62
4
370
25
100
AcDbLine
 10
3889.11983914255
 20
632.3214009385928
 30
0.0
 11
3889.11983914255
 21
561.7737689598551
 31
0.0
  0
LINE
  5
C7
330
17
100
AcDbEntity
  8
COTA
 62
4
370
25
100
AcDbLine
 10
4133.11983914255
 20
632.321400938611
 30
0.0
 11
4133.11983914255
 21
561.7737689598551
 31
0.0
  0
LINE
  5
C8
330
17
100
AcDbEntity
  8
COTA
 62
4
370
25
100
AcDbLine
 10
3889.11983914255
 20
564.7737689598551
 30
0.0
 11
4133.11983914255
 21
564.7737689598551
 31
0.0
  0
LINE
  5
C9
330
17
100
AcDbEntity
  8
COTA
 62
0
370
25
100
AcDbLine
 10
3890.61983914255
 20
566.2737689598551
 30
0.0
 11
3887.61983914255
 21
563.2737689598551
 31
0.0
  0
LINE
  5
CA
330
17
100
AcDbEntity
  8
COTA
 62
0
370
25
100
AcDbLine
 10
4131.61983914255
 20
563.2737689598551
 30
0.0
 11
4134.61983914255
 21
566.2737689598551
 31
0.0
  0
LINE
  5
CB
330
17
100
AcDbEntity
  8
COTA
 62
4
370
25
100
AcDbLine
 10
4133.11983914255
 20
632.3214009386037
 30
0.0
 11
4133.11983914255
 21
583.3585449891334
 31
0.0
  0
LINE
  5
CC
330
17
100
AcDbEntity
  8
COTA
 62
4
370
25
100
AcDbLine
 10
4307.11983914255
 20
602.321400938611
 30
0.0
 11
4307.11983914255
 21
583.3585449891334
 31
0.0
  0
LINE
  5
CD
330
17
100
AcDbEntity
  8
COTA
 62
4
370
25
100
AcDbLine
 10
4133.11983914255
 20
586.3585449891334
 30
0.0
 11
4307.11983914255
 21
586.3585449891334
 31
0.0
  0
LINE
  5
CE
330
17
100
AcDbEntity
  8
COTA
 62
0
370
25
100
AcDbLine
 10
4134.61983914255
 20
587.8585449891334
 30
0.0
 11
4131.61983914255
 21
584.8585449891334
 31
0.0
  0
LINE
  5
CF
330
17
100
AcDbEntity
  8
COTA
 62
0
370
25
100
AcDbLine
 10
4305.61983914255
 20
584.8585449891334
 30
0.0
 11
4308.61983914255
 21
587.8585449891334
 31
0.0
  0
LINE
  5
D0
330
17
100
AcDbEntity
  8
COTA
 62
4
370
25
100
AcDbLine
 10
3889.11983914255
 20
632.3214009385928
 30
0.0
 11
3889.11983914255
 21
543.0882055378615
 31
0.0
  0
LINE
  5
D1
330
17
100
AcDbEntity
  8
COTA
 62
4
370
25
100
AcDbLine
 10
4326.119839142551
 20
602.321400938611
 30
0.0
 11
4326.119839142551
 21
543.0882055378615
 31
0.0
  0
LINE
  5
D2
330
17
100
AcDbEntity
  8
COTA
 62
4
370
25
100
AcDbLine
 10
3889.11983914255
 20
546.0882055378615
 30
0.0
 11
4326.119839142551
 21
546.0882055378615
 31
0.0
  0
LINE
  5
D3
330
17
100
AcDbEntity
  8
COTA
 62
0
370
25
100
AcDbLine
 10
3890.61983914255
 20
547.5882055378615
 30
0.0
 11
3887.61983914255
 21
544.5882055378615
 31
0.0
  0
LINE
  5
D4
330
17
100
AcDbEntity
  8
COTA
 62
0
370
25
100
AcDbLine
 10
4324.619839142551
 20
544.5882055378615
 30
0.0
 11
4327.619839142551
 21
547.5882055378615
 31
0.0
  0
LINE
  5
D5
330
17
100
AcDbEntity
  8
Painéis
 62
4
370
25
100
AcDbLine
 10
4304.119839142552
 20
635.3214009386113
 30
0.0
 11
4297.80146046179
 21
635.3214009386113
 31
0.0
  0
LINE
  5
D6
330
17
100
AcDbEntity
  8
Painéis
 62
4
370
25
100
AcDbLine
 10
4304.119839142552
 20
605.3214009386112
 30
0.0
 11
4297.80146046179
 21
605.3214009386112
 31
0.0
  0
LINE
  5
D7
330
17
100
AcDbEntity
  8
Painéis
 62
4
370
25
100
AcDbLine
 10
4300.80146046179
 20
635.3214009386113
 30
0.0
 11
4300.80146046179
 21
605.3214009386112
 31
0.0
  0
LINE
  5
D8
330
17
100
AcDbEntity
  8
Painéis
 62
0
370
25
100
AcDbLine
 10
4302.30146046179
 20
633.8214009386113
 30
0.0
 11
4299.30146046179
 21
636.8214009386113
 31
0.0
  0
LINE
  5
D9
330
17
100
AcDbEntity
  8
Painéis
 62
0
370
25
100
AcDbLine
 10
4299.30146046179
 20
606.8214009386112
 30
0.0
 11
4302.30146046179
 21
603.8214009386112
 31
0.0
  0
LINE
  5
DA
330
17
100
AcDbEntity
  8
Painéis
 62
4
370
25
100
AcDbLine
 10
4307.11983914255
 20
602.321400938611
 30
0.0
 11
4307.11983914255
 21
583.3585449891334
 31
0.0
  0
LINE
  5
DB
330
17
100
AcDbEntity
  8
Painéis
 62
4
370
25
100
AcDbLine
 10
4326.119839142551
 20
602.321400938611
 30
0.0
 11
4326.119839142551
 21
583.3585449891334
 31
0.0
  0
LINE
  5
DC
330
17
100
AcDbEntity
  8
Painéis
 62
4
370
25
100
AcDbLine
 10
4307.11983914255
 20
586.3585449891334
 30
0.0
 11
4326.119839142551
 21
586.3585449891334
 31
0.0
  0
LINE
  5
DD
330
17
100
AcDbEntity
  8
Painéis
 62
0
370
25
100
AcDbLine
 10
4308.61983914255
 20
587.8585449891334
 30
0.0
 11
4305.61983914255
 21
584.8585449891334
 31
0.0
  0
LINE
  5
DE
330
17
100
AcDbEntity
  8
Painéis
 62
0
370
25
100
AcDbLine
 10
4324.619839142551
 20
584.8585449891334
 30
0.0
 11
4327.619839142551
 21
587.8585449891334
 31
0.0
  0
LINE
  5
DF
330
17
100
AcDbEntity
  8
Painéis
 62
4
370
25
100
AcDbLine
 10
4133.11983914255
 20
632.321477938597
 30
0.0
 11
4133.11983914255
 21
561.7737689598551
 31
0.0
  0
LINE
  5
E0
330
17
100
AcDbEntity
  8
Painéis
 62
4
370
25
100
AcDbLine
 10
4326.119839142551
 20
602.321400938611
 30
0.0
 11
4326.119839142551
 21
561.7737689598551
 31
0.0
  0
LINE
  5
E1
330
17
100
AcDbEntity
  8
Painéis
 62
4
370
25
100
AcDbLine
 10
4133.11983914255
 20
564.7737689598551
 30
0.0
 11
4326.119839142551
 21
564.7737689598551
 31
0.0
  0
LINE
  5
E2
330
17
100
AcDbEntity
  8
Painéis
 62
0
370
25
100
AcDbLine
 10
4134.61983914255
 20
566.2737689598551
 30
0.0
 11
4131.61983914255
 21
563.2737689598551
 31
0.0
  0
LINE
  5
E3
330
17
100
AcDbEntity
  8
Painéis
 62
0
370
25
100
AcDbLine
 10
4324.619839142551
 20
563.2737689598551
 30
0.0
 11
4327.619839142551
 21
566.2737689598551
 31
0.0
  0
LINE
  5
E4
330
17
100
AcDbEntity
  8
Painéis
 62
4
370
25
100
AcDbLine
 10
4329.119839142552
 20
605.3214009386112
 30
0.0
 11
4348.420679275766
 21
605.3214009386112
 31
0.0
  0
LINE
  5
E5
330
17
100
AcDbEntity
  8
Painéis
 62
4
370
25
100
AcDbLine
 10
4329.119839142552
 20
654.3214009385931
 30
0.0
 11
4348.420679275766
 21
654.3214009385931
 31
0.0
  0
LINE
  5
E6
330
17
100
AcDbEntity
  8
Painéis
 62
4
370
25
100
AcDbLine
 10
4345.420679275766
 20
605.3214009386112
 30
0.0
 11
4345.420679275766
 21
654.3214009385931
 31
0.0
  0
LINE
  5
E7
330
17
100
AcDbEntity
  8
Painéis
 62
0
370
25
100
AcDbLine
 10
4343.920679275766
 20
606.8214009386112
 30
0.0
 11
4346.920679275766
 21
603.8214009386112
 31
0.0
  0
LINE
  5
E8
330
17
100
AcDbEntity
  8
Painéis
 62
0
370
25
100
AcDbLine
 10
4346.920679275766
 20
652.8214009385931
 30
0.0
 11
4343.920679275766
 21
655.8214009385931
 31
0.0
  0
LINE
  5
E9
330
17
100
AcDbEntity
  8
Painéis
 62
4
370
25
100
AcDbLine
 10
4452.829092182956
 20
775.6374223985199
 30
0.0
 11
4474.045376098183
 21
775.6374223985199
 31
0.0
  0
LINE
  5
EA
330
17
100
AcDbEntity
  8
Painéis
 62
4
370
25
100
AcDbLine
 10
4452.829092182956
 20
756.6374223985378
 30
0.0
 11
4474.045376098183
 21
756.6374223985378
 31
0.0
  0
LINE
  5
EB
330
17
100
AcDbEntity
  8
Painéis
 62
4
370
25
100
AcDbLine
 10
4471.045376098182
 20
775.6374223985199
 30
0.0
 11
4471.045376098182
 21
756.6374223985378
 31
0.0
  0
LINE
  5
EC
330
17
100
AcDbEntity
  8
Painéis
 62
0
370
25
100
AcDbLine
 10
4472.545376098182
 20
774.1374223985199
 30
0.0
 11
4469.545376098182
 21
777.1374223985199
 31
0.0
  0
LINE
  5
ED
330
17
100
AcDbEntity
  8
Painéis
 62
0
370
25
100
AcDbLine
 10
4469.545376098182
 20
758.1374223985378
 30
0.0
 11
4472.545376098182
 21
755.1374223985378
 31
0.0
  0
LINE
  5
EE
330
17
100
AcDbEntity
  8
Painéis
 62
4
370
25
100
AcDbLine
 10
4031.829092182955
 20
753.6374223985194
 30
0.0
 11
4031.829092182955
 21
688.9638572109269
 31
0.0
  0
LINE
  5
EF
330
17
100
AcDbEntity
  8
Painéis
 62
4
370
25
100
AcDbLine
 10
4449.829092182954
 20
753.6374223985194
 30
0.0
 11
4449.829092182954
 21
688.9638572109269
 31
0.0
  0
LINE
  5
F0
330
17
100
AcDbEntity
  8
Painéis
 62
4
370
25
100
AcDbLine
 10
4031.829092182955
 20
691.963857210927
 30
0.0
 11
4449.829092182954
 21
691.963857210927
 31
0.0
  0
LINE
  5
F1
330
17
100
AcDbEntity
  8
Painéis
 62
0
370
25
100
AcDbLine
 10
4033.329092182955
 20
693.463857210927
 30
0.0
 11
4030.329092182955
 21
690.463857210927
 31
0.0
  0
LINE
  5
F2
330
17
100
AcDbEntity
  8
Painéis
 62
0
370
25
100
AcDbLine
 10
4448.329092182954
 20
690.463857210927
 30
0.0
 11
4451.329092182954
 21
693.463857210927
 31
0.0
  0
LWPOLYLINE
  5
F3
330
17
100
AcDbEntity
  8
Painéis
 62
200
370
25
100
AcDbPolyline
 90
5
 70
0
 10
3418.621030644779
 20
774.3776026479072
 10
3418.621030644779
 20
755.3776026479072
 10
3611.121030644778
 20
755.3776026479254
 10
3611.121030644778
 20
774.3776026479072
 10
3418.621030644779
 20
774.3776026479072
  0
LWPOLYLINE
  5
F4
330
17
100
AcDbEntity
  8
Painéis
 62
200
370
25
100
AcDbPolyline
 90
4
 70
1
 10
3870.069114648265
 20
756.6374993985236
 10
3626.069114648265
 20
756.6374993985236
 10
3626.069114648265
 20
775.6374223985194
 10
3870.069114648265
 20
775.6374223985194
  0
LWPOLYLINE
  5
F5
330
17
100
AcDbEntity
  8
Painéis
 62
200
370
25
100
AcDbPolyline
 90
4
 70
1
 10
3870.069114648265
 20
775.6374223985194
 10
4013.569114648265
 20
775.6374223985194
 10
4013.569114648265
 20
756.6374223985376
 10
3870.069114648265
 20
756.6374223985376
  0
LWPOLYLINE
  5
F6
330
17
100
AcDbEntity
  8
Painéis
 62
200
370
25
100
AcDbPolyline
 90
4
 70
1
 10
4275.829092182955
 20
756.6374993985236
 10
4031.829092182955
 20
756.6374993985236
 10
4031.829092182955
 20
775.6374223985194
 10
4275.829092182955
 20
775.6374223985194
  0
LWPOLYLINE
  5
F7
330
17
100
AcDbEntity
  8
Painéis
 62
200
370
25
100
AcDbPolyline
 90
4
 70
1
 10
4275.829092182955
 20
775.6374223985194
 10
4449.829092182954
 20
775.6374223985194
 10
4449.829092182954
 20
756.6374223985376
 10
4275.829092182955
 20
756.6374223985376
  0
LWPOLYLINE
  5
F8
330
17
100
AcDbEntity
  8
Painéis
 62
200
370
25
100
AcDbPolyline
 90
4
 70
1
 10
3664.098069368448
 20
635.3214779385971
 10
3420.098069368448
 20
635.3214779385971
 10
3420.098069368448
 20
654.3214009385929
 10
3664.098069368448
 20
654.3214009385929
  0
LWPOLYLINE
  5
F9
330
17
100
AcDbEntity
  8
Painéis
 62
200
370
25
100
AcDbPolyline
 90
4
 70
1
 10
4133.11983914255
 20
635.3214779385971
 10
3889.11983914255
 20
635.3214779385971
 10
3889.11983914255
 20
654.3214009385929
 10
4133.11983914255
 20
654.3214009385929
  0
LWPOLYLINE
  5
FA
330
17
100
AcDbEntity
  8
CARIMBO
 62
1
370
9
100
AcDbPolyline
 90
4
 70
1
 10
4369.594880502736
 20
605.9586362663658
 10
4739.739944938134
 20
605.9586362663658
 10
4739.739944938134
 20
553.8975411999163
 10
4369.594880502736
 20
553.8975411999163
  0
LWPOLYLINE
  5
FB
330
17
100
AcDbEntity
  8
CARIMBO
 62
1
370
9
100
AcDbPolyline
 90
4
 70
1
 10
4364.594880502736
 20
610.9586362663658
 10
4744.739944938134
 20
610.9586362663658
 10
4744.739944938134
 20
548.8975411999162
 10
4364.594880502736
 20
548.8975411999162
  0
TEXT
  5
FC
330
17
100
AcDbEntity
  8
5
 62
5
370
25
100
AcDbText
 10
3425.819256107371
 20
822.1800176360739
 30
0.0
 40
12.0
  1
P14
 50
359.9999644975238
100
AcDbText
  0
TEXT
  5
FD
330
17
100
AcDbEntity
  8
5
 62
5
370
25
100
AcDbText
 10
4183.712993554943
 20
814.8688537207672
 30
0.0
 40
12.0
  1
P17
 50
359.9999644975238
100
AcDbText
  0
TEXT
  5
FE
330
17
100
AcDbEntity
  8
5
 62
5
370
25
100
AcDbText
 10
4644.021393815848
 20
821.4665637067591
 30
0.0
 40
12.0
  1
V30
 50
359.9999644975238
100
AcDbText
  0
TEXT
  5
FF
330
17
100
AcDbEntity
  8
5
 62
5
370
25
100
AcDbText
 10
3417.50836443213
 20
695.9741008674109
 30
0.0
 40
12.0
  1
V10
 50
359.9999644975238
100
AcDbText
  0
TEXT
  5
100
330
17
100
AcDbEntity
  8
NOMENCLATURA
 62
7
370
25
100
AcDbText
 10
3422.675596751581
 20
783.3523608511468
 30
0.0
 40
16.49999175001634
  1
V3.C
100
AcDbText
  0
TEXT
  5
101
330
17
100
AcDbEntity
  8
5
 62
5
370
25
100
AcDbText
 10
3604.092969965132
 20
692.9031730954129
 30
0.0
 40
12.0
  1
P19
 50
359.9999644975238
100
AcDbText
  0
TEXT
  5
102
330
17
100
AcDbEntity
  8
5
 62
5
370
25
100
AcDbText
 10
3995.25622396607
 20
694.225637151424
 30
0.0
 40
12.0
  1
P20
 50
359.9999644975238
100
AcDbText
  0
TEXT
  5
103
330
17
100
AcDbEntity
  8
5
 62
5
370
25
100
AcDbText
 10
4452.678372860989
 20
694.225637151424
 30
0.0
 40
12.0
  1
P22
 50
359.9999644975238
100
AcDbText
  0
TEXT
  5
104
330
17
100
AcDbEntity
  8
NOMENCLATURA
 62
7
370
25
100
AcDbText
 10
3419.536815301255
 20
663.2961591418324
 30
0.0
 40
16.49999175001634
  1
CONT. V3.C
100
AcDbText
  0
TEXT
  5
105
330
17
100
AcDbEntity
  8
5
 62
5
370
25
100
AcDbText
 10
4329.728912979416
 20
544.9782597543608
 30
0.0
 40
12.0
  1
P24
 50
359.9999644975238
100
AcDbText
  0
TEXT
  5
106
330
17
100
AcDbEntity
  8
CARIMBO
 62
1
370
9
100
AcDbText
 10
4377.265363290447
 20
568.0473425844838
 30
0.0
 40
25.0
  1
FORNECER 2 JOGOS
100
AcDbText
  0
TEXT
  5
107
330
17
100
AcDbEntity
  8
COTA
 62
240
370
25
100
AcDbText
 10
3792.298087363012
 20
833.0329848047654
 30
0.0
 40
10.0
  1
3X
100
AcDbText
  0
TEXT
  5
108
330
17
100
AcDbEntity
  8
00 - FELIPE
 62
240
370
25
100
AcDbText
 10
4047.048087363012
 20
832.9233356819592
 30
0.0
 40
10.0
  1
265.5
100
AcDbText
  0
TEXT
  5
109
330
17
100
AcDbEntity
  8
COTA
 62
240
370
25
100
AcDbText
 10
4575.975512286842
 20
811.8831987900428
 30
0.0
 40
10.0
  1
116.5
100
AcDbText
  0
TEXT
  5
10A
330
17
100
AcDbEntity
  8
Painéis
 62
240
370
25
100
AcDbText
 10
4527.225512286842
 20
831.6708901937285
 30
0.0
 40
10.0
  1
19
100
AcDbText
  0
TEXT
  5
10B
330
17
100
AcDbEntity
  8
Painéis
 62
240
370
25
100
AcDbText
 10
4585.475512286842
 20
831.7220597843718
 30
0.0
 40
10.0
  1
97.5
100
AcDbText
  0
TEXT
  5
10C
330
17
100
AcDbEntity
  8
COTA
 62
240
370
25
100
AcDbText
 10
3514.871030644779
 20
721.1426125228274
 30
0.0
 40
10.0
  1
192.5
100
AcDbText
  0
TEXT
  5
10D
330
17
100
AcDbEntity
  8
COTA
 62
240
370
25
100
AcDbText
 10
3748.069114648265
 20
745.6576722190931
 30
0.0
 40
10.0
  1
244
100
AcDbText
  0
TEXT
  5
10E
330
17
100
AcDbEntity
  8
COTA
 62
240
370
25
100
AcDbText
 10
3941.819114648265
 20
745.8038710495024
 30
0.0
 40
10.0
  1
143.5
100
AcDbText
  0
TEXT
  5
10F
330
17
100
AcDbEntity
  8
COTA
 62
240
370
25
100
AcDbText
 10
3819.819114648265
 20
721.244951704114
 30
0.0
 40
10.0
  1
387.5
100
AcDbText
  0
TEXT
  5
110
330
17
100
AcDbEntity
  8
COTA
 62
240
370
25
100
AcDbText
 10
4153.829092182955
 20
745.6576722190931
 30
0.0
 40
10.0
  1
244
100
AcDbText
  0
TEXT
  5
111
330
17
100
AcDbEntity
  8
COTA
 62
240
370
25
100
AcDbText
 10
4362.829092182955
 20
745.6576722190931
 30
0.0
 40
10.0
  1
174
100
AcDbText
  0
TEXT
  5
112
330
17
100
AcDbEntity
  8
COTA
 62
240
370
25
100
AcDbText
 10
4240.829092182955
 20
721.0987528737046
 30
0.0
 40
10.0
  1
418
100
AcDbText
  0
TEXT
  5
113
330
17
100
AcDbEntity
  8
COTA
 62
240
370
25
100
AcDbText
 10
3542.098069368448
 20
587.8468683750561
 30
0.0
 40
10.0
  1
244
100
AcDbText
  0
TEXT
  5
114
330
17
100
AcDbEntity
  8
COTA
 62
240
370
25
100
AcDbText
 10
3751.098069368448
 20
612.4277175450061
 30
0.0
 40
10.0
  1
174
100
AcDbText
  0
TEXT
  5
115
330
17
100
AcDbEntity
  8
COTA
 62
240
370
25
100
AcDbText
 10
3638.598069368448
 20
554.3075037834755
 30
0.0
 40
10.0
  1
437
100
AcDbText
  0
TEXT
  5
116
330
17
100
AcDbEntity
  8
Painéis
 62
240
370
25
100
AcDbText
 10
3843.677351506395
 20
614.6064886579082
 30
0.0
 40
10.0
  1
10
 50
90.0
100
AcDbText
  0
TEXT
  5
117
330
17
100
AcDbEntity
  8
Painéis
 62
240
370
25
100
AcDbText
 10
3847.598069368448
 20
612.4423374280472
 30
0.0
 40
10.0
  1
19
100
AcDbText
  0
TEXT
  5
118
330
17
100
AcDbEntity
  8
Painéis
 62
240
370
25
100
AcDbText
 10
3760.598069368448
 20
588.0223069715476
 30
0.0
 40
10.0
  1
193
100
AcDbText
  0
TEXT
  5
119
330
17
100
AcDbEntity
  8
Painéis
 62
240
370
25
100
AcDbText
 10
3888.311190203412
 20
639.8214009386008
 30
0.0
 40
10.0
  1
29
 50
90.0
100
AcDbText
  0
TEXT
  5
11A
330
17
100
AcDbEntity
  8
COTA
 62
240
370
25
100
AcDbText
 10
4011.11983914255
 20
572.8468683750598
 30
0.0
 40
10.0
  1
244
100
AcDbText
  0
TEXT
  5
11B
330
17
100
AcDbEntity
  8
COTA
 62
240
370
25
100
AcDbText
 10
4220.11983914255
 20
594.431644404338
 30
0.0
 40
10.0
  1
174
100
AcDbText
  0
TEXT
  5
11C
330
17
100
AcDbEntity
  8
COTA
 62
240
370
25
100
AcDbText
 10
4107.61983914255
 20
554.3075037834755
 30
0.0
 40
10.0
  1
437
100
AcDbText
  0
TEXT
  5
11D
330
17
100
AcDbEntity
  8
Painéis
 62
240
370
25
100
AcDbText
 10
4312.582162216175
 20
620.32140093861
 30
0.0
 40
10.0
  1
30
 50
90.0
100
AcDbText
  0
TEXT
  5
11E
330
17
100
AcDbEntity
  8
Painéis
 62
240
370
25
100
AcDbText
 10
4316.61983914255
 20
594.446264287379
 30
0.0
 40
10.0
  1
19
100
AcDbText
  0
TEXT
  5
11F
330
17
100
AcDbEntity
  8
Painéis
 62
240
370
25
100
AcDbText
 10
4229.61983914255
 20
573.0223069715512
 30
0.0
 40
10.0
  1
193
100
AcDbText
  0
TEXT
  5
120
330
17
100
AcDbEntity
  8
Painéis
 62
240
370
25
100
AcDbText
 10
4357.318340094478
 20
629.8214009386008
 30
0.0
 40
10.0
  1
49
 50
90.0
100
AcDbText
  0
TEXT
  5
121
330
17
100
AcDbEntity
  8
Painéis
 62
240
370
25
100
AcDbText
 10
4482.957656799936
 20
766.1374223985274
 30
0.0
 40
10.0
  1
19
 50
90.0
100
AcDbText
  0
TEXT
  5
122
330
17
100
AcDbEntity
  8
Painéis
 62
240
370
25
100
AcDbText
 10
4240.829092182955
 20
700.0223367430907
 30
0.0
 40
10.0
  1
2X
100
AcDbText
  0
ENDSEC
  0
SECTION
  2
OBJECTS
  0
DICTIONARY
  5
A
330
0
100
AcDbDictionary
281
1
  3
ACAD_COLOR
350
B
  3
ACAD_GROUP
350
C
  3
ACAD_LAYOUT
350
D
  3
ACAD_MATERIAL
350
E
  3
ACAD_MLEADERSTYLE
350
F
  3
ACAD_MLINESTYLE
350
10
  3
ACAD_PLOTSETTINGS
350
11
  3
ACAD_PLOTSTYLENAME
350
12
  3
ACAD_SCALELIST
350
14
  3
ACAD_TABLESTYLE
350
15
  3
ACAD_VISUALSTYLE
350
16
  3
EZDXF_META
350
2D
  0
DICTIONARY
  5
B
330
A
100
AcDbDictionary
281
1
  0
DICTIONARY
  5
C
330
A
100
AcDbDictionary
281
1
  0
DICTIONARY
  5
D
330
A
100
AcDbDictionary
281
1
  3
Model
350
1A
  3
Layout1
350
1E
  0
DICTIONARY
  5
E
330
A
100
AcDbDictionary
281
1
  3
ByBlock
350
1F
  3
ByLayer
350
20
  3
Global
350
21
  0
DICTIONARY
  5
F
330
A
100
AcDbDictionary
281
1
  3
Standard
350
2C
  0
DICTIONARY
  5
10
330
A
100
AcDbDictionary
281
1
  3
Standard
350
22
  0
DICTIONARY
  5
11
330
A
100
AcDbDictionary
281
1
  0
ACDBDICTIONARYWDFLT
  5
12
330
A
100
AcDbDictionary
281
1
  3
Normal
350
13
100
AcDbDictionaryWithDefault
340
13
  0
ACDBPLACEHOLDER
  5
13
330
12
  0
DICTIONARY
  5
14
330
A
100
AcDbDictionary
281
1
  0
DICTIONARY
  5
15
330
A
100
AcDbDictionary
281
1
  0
DICTIONARY
  5
16
330
A
100
AcDbDictionary
281
1
  0
LAYOUT
  5
1A
330
D
100
AcDbPlotSettings
  1

  4
A3
  6

 40
7.5
 41
20.0
 42
7.5
 43
20.0
 44
420.0
 45
297.0
 46
0.0
 47
0.0
 48
0.0
 49
0.0
140
0.0
141
0.0
142
1.0
143
1.0
 70
1024
 72
1
 73
0
 74
5
  7

 75
16
 76
0
 77
2
 78
300
147
1.0
148
0.0
149
0.0
100
AcDbLayout
  1
Model
 70
1
 71
0
 10
0.0
 20
0.0
 11
420.0
 21
297.0
 12
0.0
 22
0.0
 32
0.0
 14
1e+20
 24
1e+20
 34
1e+20
 15
-1e+20
 25
-1e+20
 35
-1e+20
146
0.0
 13
0.0
 23
0.0
 33
0.0
 16
1.0
 26
0.0
 36
0.0
 17
0.0
 27
1.0
 37
0.0
 76
1
330
17
  0
LAYOUT
  5
1E
330
D
100
AcDbPlotSettings
  1

  4
A3
  6

 40
7.5
 41
20.0
 42
7.5
 43
20.0
 44
420.0
 45
297.0
 46
0.0
 47
0.0
 48
0.0
 49
0.0
140
0.0
141
0.0
142
1.0
143
1.0
 70
0
 72
1
 73
0
 74
5
  7

 75
16
 76
0
 77
2
 78
300
147
1.0
148
0.0
149
0.0
100
AcDbLayout
  1
Layout1
 70
1
 71
1
 10
0.0
 20
0.0
 11
420.0
 21
297.0
 12
0.0
 22
0.0
 32
0.0
 14
1e+20
 24
1e+20
 34
1e+20
 15
-1e+20
 25
-1e+20
 35
-1e+20
146
0.0
 13
0.0
 23
0.0
 33
0.0
 16
1.0
 26
0.0
 36
0.0
 17
0.0
 27
1.0
 37
0.0
 76
1
330
1B
  0
MATERIAL
  5
1F
102
{ACAD_REACTORS
330
E
102
}
330
E
100
AcDbMaterial
  1
ByBlock
  2

 70
0
 40
1.0
 71
1
 41
1.0
 91
-1023410177
 42
1.0
 72
1
  3

 73
1
 74
1
 75
1
 44
0.5
 73
0
 45
1.0
 46
1.0
 77
1
  4

 78
1
 79
1
170
1
 48
1.0
171
1
  6

172
1
173
1
174
1
140
1.0
141
1.0
175
1
  7

176
1
177
1
178
1
143
1.0
179
1
  8

270
1
271
1
272
1
145
1.0
146
1.0
273
1
  9

274
1
275
1
276
1
 42
1.0
 72
1
  3

 73
1
 74
1
 75
1
 94
63
  0
MATERIAL
  5
20
102
{ACAD_REACTORS
330
E
102
}
330
E
100
AcDbMaterial
  1
ByLayer
  2

 70
0
 40
1.0
 71
1
 41
1.0
 91
-1023410177
 42
1.0
 72
1
  3

 73
1
 74
1
 75
1
 44
0.5
 73
0
 45
1.0
 46
1.0
 77
1
  4

 78
1
 79
1
170
1
 48
1.0
171
1
  6

172
1
173
1
174
1
140
1.0
141
1.0
175
1
  7

176
1
177
1
178
1
143
1.0
179
1
  8

270
1
271
1
272
1
145
1.0
146
1.0
273
1
  9

274
1
275
1
276
1
 42
1.0
 72
1
  3

 73
1
 74
1
 75
1
 94
63
  0
MATERIAL
  5
21
102
{ACAD_REACTORS
330
E
102
}
330
E
100
AcDbMaterial
  1
Global
  2

 70
0
 40
1.0
 71
1
 41
1.0
 91
-1023410177
 42
1.0
 72
1
  3

 73
1
 74
1
 75
1
 44
0.5
 73
0
 45
1.0
 46
1.0
 77
1
  4

 78
1
 79
1
170
1
 48
1.0
171
1
  6

172
1
173
1
174
1
140
1.0
141
1.0
175
1
  7

176
1
177
1
178
1
143
1.0
179
1
  8

270
1
271
1
272
1
145
1.0
146
1.0
273
1
  9

274
1
275
1
276
1
 42
1.0
 72
1
  3

 73
1
 74
1
 75
1
 94
63
  0
MLINESTYLE
  5
22
102
{ACAD_REACTORS
330
10
102
}
330
10
100
AcDbMlineStyle
  2
Standard
 70
0
  3

 62
256
 51
90.0
 52
90.0
 71
2
 49
0.5
 62
256
  6
BYLAYER
 49
-0.5
 62
256
  6
BYLAYER
  0
MLEADERSTYLE
  5
2C
102
{ACAD_REACTORS
330
F
102
}
330
F
100
AcDbMLeaderStyle
179
2
170
2
171
1
172
0
 90
2
 40
0.0
 41
0.0
173
1
 91
-1056964608
 92
-2
290
1
 42
2.0
291
1
 43
8.0
  3
Standard
 44
4.0
300

342
29
174
1
175
1
176
0
178
1
 93
-1056964608
 45
4.0
292
0
297
0
 46
4.0
 94
-1056964608
 47
1.0
 49
1.0
140
1.0
294
1
141
0.0
177
0
142
1.0
295
0
296
0
143
3.75
271
0
272
9
273
9
  0
DICTIONARY
  5
2D
330
A
100
AcDbDictionary
280
1
281
1
  3
CREATED_BY_EZDXF
350
2E
  3
WRITTEN_BY_EZDXF
350
125
  0
DICTIONARYVAR
  5
2E
330
2D
100
DictionaryVariables
280
0
  1
1.4.3 @ 2026-06-10T17:44:58.878425+00:00
  0
DICTIONARYVAR
  5
125
330
2D
100
DictionaryVariables
280
0
  1
1.4.3 @ 2026-06-10T17:44:58.886186+00:00
  0
ENDSEC
  0
EOF
