  0
SECTION
  2
HEADER
  9
$ACADVER
  1
AC1024
  9
$ACADMAINTVER
 70
6
  9
$DWGCODEPAGE
  3
ANSI_1252
  9
$LASTSAVEDBY
  1
ezdxf
  9
$INSBASE
 10
0.0
 20
0.0
 30
0.0
  9
$EXTMIN
 10
1e+20
 20
1e+20
 30
1e+20
  9
$EXTMAX
 10
-1e+20
 20
-1e+20
 30
-1e+20
  9
$LIMMIN
 10
0.0
 20
0.0
  9
$LIMMAX
 10
420.0
 20
297.0
  9
$ORTHOMODE
 70
0
  9
$REGENMODE
 70
1
  9
$FILLMODE
 70
1
  9
$QTEXTMODE
 70
0
  9
$MIRRTEXT
 70
1
  9
$LTSCALE
 40
1.0
  9
$ATTMODE
 70
1
  9
$TEXTSIZE
 40
2.5
  9
$TRACEWID
 40
1.0
  9
$TEXTSTYLE
  7
Standard
  9
$CLAYER
  8
0
  9
$CELTYPE
  6
ByLayer
  9
$CECOLOR
 62
256
  9
$CELTSCALE
 40
1.0
  9
$DISPSILH
 70
0
  9
$DIMSCALE
 40
1.0
  9
$DIMASZ
 40
2.5
  9
$DIMEXO
 40
0.625
  9
$DIMDLI
 40
3.75
  9
$DIMRND
 40
0.0
  9
$DIMDLE
 40
0.0
  9
$DIMEXE
 40
1.25
  9
$DIMTP
 40
0.0
  9
$DIMTM
 40
0.0
  9
$DIMTXT
 40
2.5
  9
$DIMCEN
 40
2.5
  9
$DIMTSZ
 40
0.0
  9
$DIMTOL
 70
0
  9
$DIMLIM
 70
0
  9
$DIMTIH
 70
0
  9
$DIMTOH
 70
0
  9
$DIMSE1
 70
0
  9
$DIMSE2
 70
0
  9
$DIMTAD
 70
1
  9
$DIMZIN
 70
8
  9
$DIMBLK
  1

  9
$DIMASO
 70
1
  9
$DIMSHO
 70
1
  9
$DIMPOST
  1

  9
$DIMAPOST
  1

  9
$DIMALT
 70
0
  9
$DIMALTD
 70
3
  9
$DIMALTF
 40
0.03937007874
  9
$DIMLFAC
 40
1.0
  9
$DIMTOFL
 70
1
  9
$DIMTVP
 40
0.0
  9
$DIMTIX
 70
0
  9
$DIMSOXD
 70
0
  9
$DIMSAH
 70
0
  9
$DIMBLK1
  1

  9
$DIMBLK2
  1

  9
$DIMSTYLE
  2
ISO-25
  9
$DIMCLRD
 70
0
  9
$DIMCLRE
 70
0
  9
$DIMCLRT
 70
0
  9
$DIMTFAC
 40
1.0
  9
$DIMGAP
 40
0.625
  9
$DIMJUST
 70
0
  9
$DIMSD1
 70
0
  9
$DIMSD2
 70
0
  9
$DIMTOLJ
 70
0
  9
$DIMTZIN
 70
8
  9
$DIMALTZ
 70
0
  9
$DIMALTTZ
 70
0
  9
$DIMUPT
 70
0
  9
$DIMDEC
 70
2
  9
$DIMTDEC
 70
2
  9
$DIMALTU
 70
2
  9
$DIMALTTD
 70
3
  9
$DIMTXSTY
  7
Standard
  9
$DIMAUNIT
 70
0
  9
$DIMADEC
 70
0
  9
$DIMALTRND
 40
0.0
  9
$DIMAZIN
 70
0
  9
$DIMDSEP
 70
44
  9
$DIMATFIT
 70
3
  9
$DIMFRAC
 70
0
  9
$DIMLDRBLK
  1

  9
$DIMLUNIT
 70
2
  9
$DIMLWD
 70
-2
  9
$DIMLWE
 70
-2
  9
$DIMTMOVE
 70
0
  9
$DIMFXL
 40
1.0
  9
$DIMFXLON
 70
0
  9
$DIMJOGANG
 40
0.785398163397
  9
$DIMTFILL
 70
0
  9
$DIMTFILLCLR
 70
0
  9
$DIMARCSYM
 70
0
  9
$DIMLTYPE
  6

  9
$DIMLTEX1
  6

  9
$DIMLTEX2
  6

  9
$DIMTXTDIRECTION
 70
0
  9
$LUNITS
 70
2
  9
$LUPREC
 70
4
  9
$SKETCHINC
 40
1.0
  9
$FILLETRAD
 40
10.0
  9
$AUNITS
 70
0
  9
$AUPREC
 70
2
  9
$MENU
  1
.
  9
$ELEVATION
 40
0.0
  9
$PELEVATION
 40
0.0
  9
$THICKNESS
 40
0.0
  9
$LIMCHECK
 70
0
  9
$CHAMFERA
 40
0.0
  9
$CHAMFERB
 40
0.0
  9
$CHAMFERC
 40
0.0
  9
$CHAMFERD
 40
0.0
  9
$SKPOLY
 70
0
  9
$TDCREATE
 40
2461202.009224537
  9
$TDUCREATE
 40
2458532.153996898
  9
$TDUPDATE
 40
2461202.009224537
  9
$TDUUPDATE
 40
2458532.1544311
  9
$TDINDWG
 40
0.0
  9
$TDUSRTIMER
 40
0.0
  9
$USRTIMER
 70
1
  9
$ANGBASE
 50
0.0
  9
$ANGDIR
 70
0
  9
$PDMODE
 70
0
  9
$PDSIZE
 40
0.0
  9
$PLINEWID
 40
0.0
  9
$SPLFRAME
 70
0
  9
$SPLINETYPE
 70
6
  9
$SPLINESEGS
 70
8
  9
$HANDSEED
  5
BF
  9
$SURFTAB1
 70
6
  9
$SURFTAB2
 70
6
  9
$SURFTYPE
 70
6
  9
$SURFU
 70
6
  9
$SURFV
 70
6
  9
$UCSBASE
  2

  9
$UCSNAME
  2

  9
$UCSORG
 10
0.0
 20
0.0
 30
0.0
  9
$UCSXDIR
 10
1.0
 20
0.0
 30
0.0
  9
$UCSYDIR
 10
0.0
 20
1.0
 30
0.0
  9
$UCSORTHOREF
  2

  9
$UCSORTHOVIEW
 70
0
  9
$UCSORGTOP
 10
0.0
 20
0.0
 30
0.0
  9
$UCSORGBOTTOM
 10
0.0
 20
0.0
 30
0.0
  9
$UCSORGLEFT
 10
0.0
 20
0.0
 30
0.0
  9
$UCSORGRIGHT
 10
0.0
 20
0.0
 30
0.0
  9
$UCSORGFRONT
 10
0.0
 20
0.0
 30
0.0
  9
$UCSORGBACK
 10
0.0
 20
0.0
 30
0.0
  9
$PUCSBASE
  2

  9
$PUCSNAME
  2

  9
$PUCSORG
 10
0.0
 20
0.0
 30
0.0
  9
$PUCSXDIR
 10
1.0
 20
0.0
 30
0.0
  9
$PUCSYDIR
 10
0.0
 20
1.0
 30
0.0
  9
$PUCSORTHOREF
  2

  9
$PUCSORTHOVIEW
 70
0
  9
$PUCSORGTOP
 10
0.0
 20
0.0
 30
0.0
  9
$PUCSORGBOTTOM
 10
0.0
 20
0.0
 30
0.0
  9
$PUCSORGLEFT
 10
0.0
 20
0.0
 30
0.0
  9
$PUCSORGRIGHT
 10
0.0
 20
0.0
 30
0.0
  9
$PUCSORGFRONT
 10
0.0
 20
0.0
 30
0.0
  9
$PUCSORGBACK
 10
0.0
 20
0.0
 30
0.0
  9
$USERI1
 70
0
  9
$USERI2
 70
0
  9
$USERI3
 70
0
  9
$USERI4
 70
0
  9
$USERI5
 70
0
  9
$USERR1
 40
0.0
  9
$USERR2
 40
0.0
  9
$USERR3
 40
0.0
  9
$USERR4
 40
0.0
  9
$USERR5
 40
0.0
  9
$WORLDVIEW
 70
1
  9
$SHADEDGE
 70
3
  9
$SHADEDIF
 70
70
  9
$TILEMODE
 70
1
  9
$MAXACTVP
 70
64
  9
$PINSBASE
 10
0.0
 20
0.0
 30
0.0
  9
$PLIMCHECK
 70
0
  9
$PEXTMIN
 10
1e+20
 20
1e+20
 30
1e+20
  9
$PEXTMAX
 10
-1e+20
 20
-1e+20
 30
-1e+20
  9
$PLIMMIN
 10
0.0
 20
0.0
  9
$PLIMMAX
 10
420.0
 20
297.0
  9
$UNITMODE
 70
0
  9
$VISRETAIN
 70
1
  9
$PLINEGEN
 70
0
  9
$PSLTSCALE
 70
1
  9
$TREEDEPTH
 70
3020
  9
$CMLSTYLE
  2
Standard
  9
$CMLJUST
 70
0
  9
$CMLSCALE
 40
20.0
  9
$PROXYGRAPHICS
 70
1
  9
$MEASUREMENT
 70
1
  9
$CELWEIGHT
370
-1
  9
$ENDCAPS
280
0
  9
$JOINSTYLE
280
0
  9
$LWDISPLAY
290
0
  9
$INSUNITS
 70
6
  9
$HYPERLINKBASE
  1

  9
$STYLESHEET
  1

  9
$XEDIT
290
1
  9
$CEPSNTYPE
380
0
  9
$PSTYLEMODE
290
1
  9
$FINGERPRINTGUID
  2
{4B791444-A554-449C-99CD-E75C6F7BE0F1}
  9
$VERSIONGUID
  2
{4FF6C04C-0387-488D-9D94-CF1FDC9C7868}
  9
$EXTNAMES
290
1
  9
$PSVPSCALE
 40
0.0
  9
$OLESTARTUP
290
0
  9
$SORTENTS
280
127
  9
$INDEXCTL
280
0
  9
$HIDETEXT
280
1
  9
$XCLIPFRAME
280
1
  9
$HALOGAP
280
0
  9
$OBSCOLOR
 70
257
  9
$OBSLTYPE
280
0
  9
$INTERSECTIONDISPLAY
280
0
  9
$INTERSECTIONCOLOR
 70
257
  9
$DIMASSOC
280
2
  9
$PROJECTNAME
  1

  9
$CAMERADISPLAY
290
0
  9
$LENSLENGTH
 40
50.0
  9
$CAMERAHEIGHT
 40
0.0
  9
$STEPSPERSEC
 40
24.0
  9
$STEPSIZE
 40
100.0
  9
$3DDWFPREC
 40
2.0
  9
$PSOLWIDTH
 40
0.005
  9
$PSOLHEIGHT
 40
0.08
  9
$LOFTANG1
 40
1.570796326795
  9
$LOFTANG2
 40
1.570796326795
  9
$LOFTMAG1
 40
0.0
  9
$LOFTMAG2
 40
0.0
  9
$LOFTPARAM
 70
7
  9
$LOFTNORMALS
280
1
  9
$LATITUDE
 40
37.795
  9
$LONGITUDE
 40
-122.394
  9
$NORTHDIRECTION
 40
0.0
  9
$TIMEZONE
 70
-8000
  9
$LIGHTGLYPHDISPLAY
280
1
  9
$TILEMODELIGHTSYNCH
280
1
  9
$CMATERIAL
347
20
  9
$SOLIDHIST
280
0
  9
$SHOWHIST
280
1
  9
$DWFFRAME
280
2
  9
$DGNFRAME
280
2
  9
$REALWORLDSCALE
290
1
  9
$INTERFERECOLOR
 62
256
  9
$CSHADOW
280
0
  9
$SHADOWPLANELOCATION
 40
0.0
  0
ENDSEC
  0
SECTION
  2
CLASSES
  0
CLASS
  1
ACDBDICTIONARYWDFLT
  2
AcDbDictionaryWithDefault
  3
ObjectDBX Classes
 90
0
 91
0
280
0
281
0
  0
CLASS
  1
SUN
  2
AcDbSun
  3
SCENEOE
 90
1153
 91
0
280
0
281
0
  0
CLASS
  1
VISUALSTYLE
  2
AcDbVisualStyle
  3
ObjectDBX Classes
 90
4095
 91
0
280
0
281
0
  0
CLASS
  1
MATERIAL
  2
AcDbMaterial
  3
ObjectDBX Classes
 90
1153
 91
0
280
0
281
0
  0
CLASS
  1
SCALE
  2
AcDbScale
  3
ObjectDBX Classes
 90
1153
 91
0
280
0
281
0
  0
CLASS
  1
TABLESTYLE
  2
AcDbTableStyle
  3
ObjectDBX Classes
 90
4095
 91
0
280
0
281
0
  0
CLASS
  1
MLEADERSTYLE
  2
AcDbMLeaderStyle
  3
ACDB_MLEADERSTYLE_CLASS
 90
4095
 91
0
280
0
281
0
  0
CLASS
  1
DICTIONARYVAR
  2
AcDbDictionaryVar
  3
ObjectDBX Classes
 90
0
 91
0
280
0
281
0
  0
CLASS
  1
CELLSTYLEMAP
  2
AcDbCellStyleMap
  3
ObjectDBX Classes
 90
1152
 91
0
280
0
281
0
  0
CLASS
  1
MENTALRAYRENDERSETTINGS
  2
AcDbMentalRayRenderSettings
  3
SCENEOE
 90
1024
 91
0
280
0
281
0
  0
CLASS
  1
ACDBDETAILVIEWSTYLE
  2
AcDbDetailViewStyle
  3
ObjectDBX Classes
 90
1025
 91
0
280
0
281
0
  0
CLASS
  1
ACDBSECTIONVIEWSTYLE
  2
AcDbSectionViewStyle
  3
ObjectDBX Classes
 90
1025
 91
0
280
0
281
0
  0
CLASS
  1
RASTERVARIABLES
  2
AcDbRasterVariables
  3
ISM
 90
0
 91
0
280
0
281
0
  0
CLASS
  1
ACDBPLACEHOLDER
  2
AcDbPlaceHolder
  3
ObjectDBX Classes
 90
0
 91
0
280
0
281
0
  0
CLASS
  1
LAYOUT
  2
AcDbLayout
  3
ObjectDBX Classes
 90
0
 91
0
280
0
281
0
  0
ENDSEC
  0
SECTION
  2
TABLES
  0
TABLE
  2
VPORT
  5
8
330
0
100
AcDbSymbolTable
 70
1
  0
VPORT
  5
23
330
8
100
AcDbSymbolTableRecord
100
AcDbViewportTableRecord
  2
*Active
 70
0
 10
0.0
 20
0.0
 11
1.0
 21
1.0
 12
0.0
 22
0.0
 13
0.0
 23
0.0
 14
0.5
 24
0.5
 15
0.5
 25
0.5
 16
0.0
 26
0.0
 36
1.0
 17
0.0
 27
0.0
 37
0.0
 40
1000.0
 41
1.34
 42
50.0
 43
0.0
 44
0.0
 50
0.0
 51
0.0
 71
0
 72
1000
 73
1
 74
3
 75
0
 76
0
 77
0
 78
0
281
0
 65
0
146
0.0
  0
ENDTAB
  0
TABLE
  2
LTYPE
  5
2
330
0
100
AcDbSymbolTable
 70
3
  0
LTYPE
  5
24
330
2
100
AcDbSymbolTableRecord
100
AcDbLinetypeTableRecord
  2
ByBlock
 70
0
  3

 72
65
 73
0
 40
0.0
  0
LTYPE
  5
25
330
2
100
AcDbSymbolTableRecord
100
AcDbLinetypeTableRecord
  2
ByLayer
 70
0
  3

 72
65
 73
0
 40
0.0
  0
LTYPE
  5
26
330
2
100
AcDbSymbolTableRecord
100
AcDbLinetypeTableRecord
  2
Continuous
 70
0
  3

 72
65
 73
0
 40
0.0
  0
ENDTAB
  0
TABLE
  2
LAYER
  5
1
330
0
100
AcDbSymbolTable
 70
13
  0
LAYER
  5
27
330
1
100
AcDbSymbolTableRecord
100
AcDbLayerTableRecord
  2
0
 70
0
 62
7
  6
Continuous
370
-3
390
13
347
21
  0
LAYER
  5
28
330
1
100
AcDbSymbolTableRecord
100
AcDbLayerTableRecord
  2
Defpoints
 70
0
 62
7
  6
Continuous
290
0
370
-3
390
13
347
21
  0
LAYER
  5
2F
330
1
100
AcDbSymbolTableRecord
100
AcDbLayerTableRecord
  2
NIVEL 1° PAV.
 70
0
 62
7
  6
Continuous
370
-3
390
13
347
21
  0
LAYER
  5
30
330
1
100
AcDbSymbolTableRecord
100
AcDbLayerTableRecord
  2
Perfil Metálico
 70
0
 62
7
  6
Continuous
370
-3
390
13
347
21
  0
LAYER
  5
31
330
1
100
AcDbSymbolTableRecord
100
AcDbLayerTableRecord
  2
SARR_2.2x7
 70
0
 62
7
  6
Continuous
370
-3
390
13
347
21
  0
LAYER
  5
32
330
1
100
AcDbSymbolTableRecord
100
AcDbLayerTableRecord
  2
Nível
 70
0
 62
7
  6
Continuous
370
-3
390
13
347
21
  0
LAYER
  5
33
330
1
100
AcDbSymbolTableRecord
100
AcDbLayerTableRecord
  2
COTA
 70
0
 62
7
  6
Continuous
370
-3
390
13
347
21
  0
LAYER
  5
34
330
1
100
AcDbSymbolTableRecord
100
AcDbLayerTableRecord
  2
Hachura
 70
0
 62
7
  6
Continuous
370
-3
390
13
347
21
  0
LAYER
  5
35
330
1
100
AcDbSymbolTableRecord
100
AcDbLayerTableRecord
  2
CHAPA
 70
0
 62
7
  6
Continuous
370
-3
390
13
347
21
  0
LAYER
  5
36
330
1
100
AcDbSymbolTableRecord
100
AcDbLayerTableRecord
  2
Painéis
 70
0
 62
7
  6
Continuous
370
-3
390
13
347
21
  0
LAYER
  5
37
330
1
100
AcDbSymbolTableRecord
100
AcDbLayerTableRecord
  2
Madeira
 70
0
 62
7
  6
Continuous
370
-3
390
13
347
21
  0
LAYER
  5
38
330
1
100
AcDbSymbolTableRecord
100
AcDbLayerTableRecord
  2
NIVEL 2° PAV.
 70
0
 62
7
  6
Continuous
370
-3
390
13
347
21
  0
LAYER
  5
39
330
1
100
AcDbSymbolTableRecord
100
AcDbLayerTableRecord
  2
SARRAFO
 70
0
 62
7
  6
Continuous
370
-3
390
13
347
21
  0
ENDTAB
  0
TABLE
  2
STYLE
  5
5
330
0
100
AcDbSymbolTable
 70
1
  0
STYLE
  5
29
330
5
100
AcDbSymbolTableRecord
100
AcDbTextStyleTableRecord
  2
Standard
 70
0
 40
0.0
 41
1.0
 50
0.0
 71
0
 42
2.5
  3
txt
  4

  0
ENDTAB
  0
TABLE
  2
VIEW
  5
7
330
0
100
AcDbSymbolTable
 70
0
  0
ENDTAB
  0
TABLE
  2
UCS
  5
6
330
0
100
AcDbSymbolTable
 70
0
  0
ENDTAB
  0
TABLE
  2
APPID
  5
3
330
0
100
AcDbSymbolTable
 70
3
  0
APPID
  5
2A
330
3
100
AcDbSymbolTableRecord
100
AcDbRegAppTableRecord
  2
ACAD
 70
0
  0
APPID
  5
BC
330
3
100
AcDbSymbolTableRecord
100
AcDbRegAppTableRecord
  2
HATCHBACKGROUNDCOLOR
 70
0
  0
APPID
  5
BD
330
3
100
AcDbSymbolTableRecord
100
AcDbRegAppTableRecord
  2
EZDXF
 70
0
  0
ENDTAB
  0
TABLE
  2
DIMSTYLE
  5
4
330
0
100
AcDbSymbolTable
 70
1
100
AcDbDimStyleTable
  0
DIMSTYLE
105
2B
330
4
100
AcDbSymbolTableRecord
100
AcDbDimStyleTableRecord
  2
Standard
 70
0
 40
1.0
 41
2.5
 42
0.625
 43
3.75
 44
1.25
 45
0.0
 46
0.0
 47
0.0
 48
0.0
 49
2.5
140
2.5
141
2.5
142
0.0
143
0.03937007874
144
1.0
145
0.0
146
1.0
147
0.625
148
0.0
 69
0
 70
0
 71
0
 72
0
 73
0
 74
0
 75
0
 76
0
 77
1
 78
8
 79
3
170
0
171
3
172
1
173
0
174
0
175
0
176
0
177
0
178
0
179
2
271
2
272
2
273
2
274
3
275
0
276
0
277
2
278
44
279
0
280
0
281
0
282
0
283
0
284
8
285
0
286
0
288
0
289
3
290
0
371
-2
372
-2
  0
ENDTAB
  0
TABLE
  2
BLOCK_RECORD
  5
9
330
0
100
AcDbSymbolTable
 70
2
  0
BLOCK_RECORD
  5
17
330
9
100
AcDbSymbolTableRecord
100
AcDbBlockTableRecord
  2
*Model_Space
340
1A
 70
0
280
1
281
0
  0
BLOCK_RECORD
  5
1B
330
9
100
AcDbSymbolTableRecord
100
AcDbBlockTableRecord
  2
*Paper_Space
340
1E
 70
0
280
1
281
0
  0
ENDTAB
  0
ENDSEC
  0
SECTION
  2
BLOCKS
  0
BLOCK
  5
18
330
17
100
AcDbEntity
  8
0
100
AcDbBlockBegin
  2
*Model_Space
 70
0
 10
0.0
 20
0.0
 30
0.0
  3
*Model_Space
  1

  0
ENDBLK
  5
19
330
17
100
AcDbEntity
  8
0
100
AcDbBlockEnd
  0
BLOCK
  5
1C
330
1B
100
AcDbEntity
  8
0
100
AcDbBlockBegin
  2
*Paper_Space
 70
0
 10
0.0
 20
0.0
 30
0.0
  3
*Paper_Space
  1

  0
ENDBLK
  5
1D
330
1B
100
AcDbEntity
  8
0
100
AcDbBlockEnd
  0
ENDSEC
  0
SECTION
  2
ENTITIES
  0
LINE
  5
3A
330
17
100
AcDbEntity
  8
Nível
 62
7
370
25
100
AcDbLine
 10
6729.105177132836
 20
6362.934230346876
 30
0.0
 11
7568.939980896669
 21
6362.934230346876
 31
0.0
  0
LINE
  5
3B
330
17
100
AcDbEntity
  8
SARR_2.2x7
 62
7
370
25
100
AcDbLine
 10
6814.735395366515
 20
6364.934230346876
 30
0.0
 11
6814.735395366515
 21
6486.934230346877
 31
0.0
  0
LINE
  5
3C
330
17
100
AcDbEntity
  8
SARR_2.2x7
 62
7
370
25
100
AcDbLine
 10
6814.735395366399
 20
6486.934230346891
 30
0.0
 11
6814.735395366442
 21
6583.934230346876
 31
0.0
  0
LINE
  5
3D
330
17
100
AcDbEntity
  8
SARR_2.2x7
 62
7
370
25
100
AcDbLine
 10
6902.735395366457
 20
6364.934230346891
 30
0.0
 11
6902.735395366457
 21
6486.934230346877
 31
0.0
  0
LINE
  5
3E
330
17
100
AcDbEntity
  8
SARR_2.2x7
 62
7
370
25
100
AcDbLine
 10
6902.735395366341
 20
6486.934230346891
 30
0.0
 11
6902.735395366424
 21
6583.934230346876
 31
0.0
  0
LINE
  5
3F
330
17
100
AcDbEntity
  8
SARR_2.2x7
 62
7
370
25
100
AcDbLine
 10
6814.735395366515
 20
6364.934230346876
 30
0.0
 11
6814.735395366515
 21
6364.934230346904
 31
0.0
  0
LINE
  5
40
330
17
100
AcDbEntity
  8
SARR_2.2x7
 62
7
370
25
100
AcDbLine
 10
6902.735395366457
 20
6364.934230346891
 30
0.0
 11
6902.735395366457
 21
6364.934230346876
 31
0.0
  0
LINE
  5
41
330
17
100
AcDbEntity
  8
SARR_2.2x7
 62
7
370
25
100
AcDbLine
 10
7302.69442266578
 20
6606.934230346876
 30
0.0
 11
7302.694422665853
 21
6364.934230346876
 31
0.0
  0
LINE
  5
42
330
17
100
AcDbEntity
  8
SARR_2.2x7
 62
7
370
25
100
AcDbLine
 10
7286.694422665874
 20
6606.934230346876
 30
0.0
 11
7286.694422665795
 21
6364.934230346876
 31
0.0
  0
LINE
  5
43
330
17
100
AcDbEntity
  8
SARR_2.2x7
 62
7
370
25
100
AcDbLine
 10
7452.813608656365
 20
6486.934230346879
 30
0.0
 11
7452.813608656379
 21
6486.934230346879
 31
0.0
  0
LINE
  5
44
330
17
100
AcDbEntity
  8
SARR_2.2x7
 62
7
370
25
100
AcDbLine
 10
7452.813608656365
 20
6486.934230346875
 30
0.0
 11
7452.813608656376
 21
6486.934230346879
 31
0.0
  0
LINE
  5
45
330
17
100
AcDbEntity
  8
SARR_2.2x7
 62
7
370
25
100
AcDbLine
 10
7452.813608656367
 20
6606.934230346876
 30
0.0
 11
7452.813608656448
 21
6364.934230346876
 31
0.0
  0
LINE
  5
46
330
17
100
AcDbEntity
  8
SARR_2.2x7
 62
7
370
25
100
AcDbLine
 10
7436.813608656478
 20
6486.934230346879
 30
0.0
 11
7436.813608656459
 21
6486.934230346879
 31
0.0
  0
LINE
  5
47
330
17
100
AcDbEntity
  8
SARR_2.2x7
 62
7
370
25
100
AcDbLine
 10
7436.813608656473
 20
6486.934230346875
 30
0.0
 11
7436.813608656459
 21
6486.934230346875
 31
0.0
  0
LINE
  5
48
330
17
100
AcDbEntity
  8
SARR_2.2x7
 62
7
370
25
100
AcDbLine
 10
7436.813608656463
 20
6606.934230346876
 30
0.0
 11
7436.81360865639
 21
6364.934230346876
 31
0.0
  0
LINE
  5
49
330
17
100
AcDbEntity
  8
Nível
 62
7
370
25
100
AcDbLine
 10
6729.105177132836
 20
6770.934230346878
 30
0.0
 11
7568.939980896669
 21
6770.934230346878
 31
0.0
  0
LINE
  5
4A
330
17
100
AcDbEntity
  8
Painéis
 62
7
370
25
100
AcDbLine
 10
7279.694422665824
 20
6364.934230346876
 30
0.0
 11
7309.694422665824
 21
6364.934230346876
 31
0.0
  0
LINE
  5
4B
330
17
100
AcDbEntity
  8
Painéis
 62
7
370
25
100
AcDbLine
 10
7309.694422665824
 20
6364.934230346876
 30
0.0
 11
7309.694422665824
 21
6770.934230346873
 31
0.0
  0
LINE
  5
4C
330
17
100
AcDbEntity
  8
Painéis
 62
7
370
25
100
AcDbLine
 10
7279.694422665819
 20
6770.934230346873
 30
0.0
 11
7279.694422665824
 21
6364.934230346876
 31
0.0
  0
LINE
  5
4D
330
17
100
AcDbEntity
  8
Painéis
 62
7
370
25
100
AcDbLine
 10
7429.81360865642
 20
6364.934230346876
 30
0.0
 11
7459.813608656419
 21
6364.934230346876
 31
0.0
  0
LINE
  5
4E
330
17
100
AcDbEntity
  8
Painéis
 62
7
370
25
100
AcDbLine
 10
7459.813608656419
 20
6364.934230346876
 30
0.0
 11
7459.813608656412
 21
6706.934230346914
 31
0.0
  0
LINE
  5
4F
330
17
100
AcDbEntity
  8
Painéis
 62
7
370
25
100
AcDbLine
 10
7429.81360865642
 20
6706.934230346914
 30
0.0
 11
7429.81360865642
 21
6364.934230346876
 31
0.0
  0
LINE
  5
50
330
17
100
AcDbEntity
  8
Painéis
 62
7
370
25
100
AcDbLine
 10
6909.735395366515
 20
6362.934230346367
 30
0.0
 11
6909.735395366519
 21
6706.934230346877
 31
0.0
  0
LINE
  5
51
330
17
100
AcDbEntity
  8
Painéis
 62
7
370
25
100
AcDbLine
 10
6807.735395366515
 20
6486.934230346877
 30
0.0
 11
6909.735395366457
 21
6486.934230346877
 31
0.0
  0
LINE
  5
52
330
17
100
AcDbEntity
  8
Painéis
 62
7
370
25
100
AcDbLine
 10
6807.735395366527
 20
6770.93423034688
 30
0.0
 11
6807.735395366511
 21
6362.934230346397
 31
0.0
  0
LINE
  5
53
330
17
100
AcDbEntity
  8
Painéis
 62
7
370
25
100
AcDbLine
 10
6807.735395366511
 20
6364.934230346876
 30
0.0
 11
6909.735395366515
 21
6364.934230346876
 31
0.0
  0
LINE
  5
54
330
17
100
AcDbEntity
  8
Hachura
 62
7
370
25
100
AcDbLine
 10
6514.173069279073
 20
6850.397760819728
 30
0.0
 11
6514.181610489948
 21
6696.597393692205
 31
0.0
  0
LINE
  5
55
330
17
100
AcDbEntity
  8
Hachura
 62
7
370
25
100
AcDbLine
 10
6306.171936494517
 20
6850.397760819728
 30
0.0
 11
6306.163395283671
 21
6696.597393692205
 31
0.0
  0
LINE
  5
56
330
17
100
AcDbEntity
  8
Hachura
 62
7
370
25
100
AcDbLine
 10
6410.172242467976
 20
6850.397760819728
 30
0.0
 11
6410.163701257101
 21
6696.597393692205
 31
0.0
  0
LINE
  5
57
330
17
100
AcDbEntity
  8
Painéis
 62
7
370
25
100
AcDbLine
 10
6909.735395366515
 20
6583.934230346878
 30
0.0
 11
6807.735395366515
 21
6583.93423034688
 31
0.0
  0
LINE
  5
58
330
17
100
AcDbEntity
  8
SARR_2.2x7
 62
7
370
25
100
AcDbLine
 10
7302.694422665765
 20
6606.934230346877
 30
0.0
 11
7302.694422665783
 21
6606.934230346877
 31
0.0
  0
LINE
  5
59
330
17
100
AcDbEntity
  8
SARR_2.2x7
 62
7
370
25
100
AcDbLine
 10
7302.694422665769
 20
6606.934230346872
 30
0.0
 11
7302.694422665783
 21
6606.934230346872
 31
0.0
  0
LINE
  5
5A
330
17
100
AcDbEntity
  8
SARR_2.2x7
 62
7
370
25
100
AcDbLine
 10
7286.694422665878
 20
6606.934230346877
 30
0.0
 11
7286.694422665863
 21
6606.934230346877
 31
0.0
  0
LINE
  5
5B
330
17
100
AcDbEntity
  8
SARR_2.2x7
 62
7
370
25
100
AcDbLine
 10
7286.694422665878
 20
6606.934230346872
 30
0.0
 11
7286.694422665867
 21
6606.934230346877
 31
0.0
  0
LINE
  5
5C
330
17
100
AcDbEntity
  8
SARR_2.2x7
 62
7
370
25
100
AcDbLine
 10
7452.813608656365
 20
6606.934230346877
 30
0.0
 11
7452.813608656379
 21
6606.934230346877
 31
0.0
  0
LINE
  5
5D
330
17
100
AcDbEntity
  8
SARR_2.2x7
 62
7
370
25
100
AcDbLine
 10
7452.813608656365
 20
6606.934230346872
 30
0.0
 11
7452.813608656376
 21
6606.934230346877
 31
0.0
  0
LINE
  5
5E
330
17
100
AcDbEntity
  8
SARR_2.2x7
 62
7
370
25
100
AcDbLine
 10
7436.813608656478
 20
6606.934230346877
 30
0.0
 11
7436.813608656459
 21
6606.934230346877
 31
0.0
  0
LINE
  5
5F
330
17
100
AcDbEntity
  8
SARR_2.2x7
 62
7
370
25
100
AcDbLine
 10
7436.813608656473
 20
6606.934230346872
 30
0.0
 11
7436.813608656459
 21
6606.934230346872
 31
0.0
  0
LINE
  5
60
330
17
100
AcDbEntity
  8
NIVEL 1° PAV.
 62
7
370
25
100
AcDbLine
 10
6568.878700734746
 20
6770.934230346878
 30
0.0
 11
7568.939980896674
 21
6770.934230346878
 31
0.0
  0
LINE
  5
61
330
17
100
AcDbEntity
  8
NIVEL 2° PAV.
 62
7
370
25
100
AcDbLine
 10
6556.549570120991
 20
6685.934230346877
 30
0.0
 11
7568.939980896674
 21
6685.934230346877
 31
0.0
  0
LINE
  5
62
330
17
100
AcDbEntity
  8
NIVEL 1° PAV.
 62
7
370
25
100
AcDbLine
 10
6582.690555162051
 20
6795.934242346877
 30
0.0
 11
6678.690535162052
 21
6795.934242346877
 31
0.0
  0
LINE
  5
63
330
17
100
AcDbEntity
  8
NIVEL 1° PAV.
 62
7
370
25
100
AcDbLine
 10
6595.190555162051
 20
6770.934230346878
 30
0.0
 11
6607.690579162052
 21
6795.934242346877
 31
0.0
  0
LINE
  5
64
330
17
100
AcDbEntity
  8
NIVEL 1° PAV.
 62
7
370
25
100
AcDbLine
 10
6582.690555162051
 20
6795.934242346877
 30
0.0
 11
6595.190555162051
 21
6770.934230346878
 31
0.0
  0
LINE
  5
65
330
17
100
AcDbEntity
  8
NIVEL 2° PAV.
 62
7
370
25
100
AcDbLine
 10
6557.93549304222
 20
6710.934242346876
 30
0.0
 11
6653.935473042221
 21
6710.934242346876
 31
0.0
  0
LINE
  5
66
330
17
100
AcDbEntity
  8
NIVEL 2° PAV.
 62
7
370
25
100
AcDbLine
 10
6570.43549304222
 20
6685.934230346877
 30
0.0
 11
6582.93551704222
 21
6710.934242346876
 31
0.0
  0
LINE
  5
67
330
17
100
AcDbEntity
  8
NIVEL 2° PAV.
 62
7
370
25
100
AcDbLine
 10
6557.93549304222
 20
6710.934242346876
 30
0.0
 11
6570.43549304222
 21
6685.934230346877
 31
0.0
  0
LINE
  5
68
330
17
100
AcDbEntity
  8
Painéis
 62
7
370
25
100
AcDbLine
 10
7309.694422665824
 20
6606.934230346872
 30
0.0
 11
7279.694422665826
 21
6606.934230346872
 31
0.0
  0
LINE
  5
69
330
17
100
AcDbEntity
  8
Painéis
 62
7
370
25
100
AcDbLine
 10
7429.81360865642
 20
6606.934230346877
 30
0.0
 11
7459.813608656415
 21
6606.934230346869
 31
0.0
  0
LINE
  5
6A
330
17
100
AcDbEntity
  8
Painéis
 62
7
370
25
100
AcDbLine
 10
6909.735395366522
 20
6673.934230346874
 30
0.0
 11
6807.735395366522
 21
6673.934230346876
 31
0.0
  0
LINE
  5
6B
330
17
100
AcDbEntity
  8
Painéis
 62
7
370
25
100
AcDbLine
 10
6875.735395366516
 20
6770.934230346869
 30
0.0
 11
6807.735395366515
 21
6770.93423034688
 31
0.0
  0
LINE
  5
6C
330
17
100
AcDbEntity
  8
SARR_2.2x7
 62
7
370
25
100
AcDbLine
 10
6814.735395366442
 20
6583.93423034688
 30
0.0
 11
6814.735395366442
 21
6673.934230346876
 31
0.0
  0
LINE
  5
6D
330
17
100
AcDbEntity
  8
SARR_2.2x7
 62
7
370
25
100
AcDbLine
 10
6814.735395366442
 20
6673.934230346876
 30
0.0
 11
6814.735395366442
 21
6770.934230346878
 31
0.0
  0
LINE
  5
6E
330
17
100
AcDbEntity
  8
SARR_2.2x7
 62
7
370
25
100
AcDbLine
 10
6902.735395366424
 20
6583.934230346878
 30
0.0
 11
6902.73539536642
 21
6673.934230346874
 31
0.0
  0
LINE
  5
6F
330
17
100
AcDbEntity
  8
SARR_2.2x7
 62
7
370
25
100
AcDbLine
 10
6902.73539536642
 20
6673.934230346874
 30
0.0
 11
6902.73539536642
 21
6706.934230346877
 31
0.0
  0
LINE
  5
70
330
17
100
AcDbEntity
  8
Painéis
 62
7
370
25
100
AcDbLine
 10
7309.694422665824
 20
6770.934230346873
 30
0.0
 11
7279.694422665826
 21
6770.934230346873
 31
0.0
  0
LINE
  5
71
330
17
100
AcDbEntity
  8
SARR_2.2x7
 62
7
370
25
100
AcDbLine
 10
7286.694422665863
 20
6606.934230346877
 30
0.0
 11
7286.694422665926
 21
6770.934230346873
 31
0.0
  0
LINE
  5
72
330
17
100
AcDbEntity
  8
SARR_2.2x7
 62
7
370
25
100
AcDbLine
 10
7302.694422665765
 20
6606.934230346877
 30
0.0
 11
7302.694422665732
 21
6770.934230346873
 31
0.0
  0
LINE
  5
73
330
17
100
AcDbEntity
  8
SARR_2.2x7
 62
7
370
25
100
AcDbLine
 10
7452.813608656353
 20
6606.934230346877
 30
0.0
 11
7452.813608656372
 21
6606.934230346877
 31
0.0
  0
LINE
  5
74
330
17
100
AcDbEntity
  8
SARR_2.2x7
 62
7
370
25
100
AcDbLine
 10
7452.813608656358
 20
6606.934230346872
 30
0.0
 11
7452.813608656372
 21
6606.934230346872
 31
0.0
  0
LINE
  5
75
330
17
100
AcDbEntity
  8
SARR_2.2x7
 62
7
370
25
100
AcDbLine
 10
7436.813608656466
 20
6606.934230346877
 30
0.0
 11
7436.813608656452
 21
6606.934230346877
 31
0.0
  0
LINE
  5
76
330
17
100
AcDbEntity
  8
SARR_2.2x7
 62
7
370
25
100
AcDbLine
 10
7436.813608656466
 20
6606.934230346872
 30
0.0
 11
7436.813608656456
 21
6606.934230346877
 31
0.0
  0
LINE
  5
77
330
17
100
AcDbEntity
  8
Painéis
 62
7
370
25
100
AcDbLine
 10
7459.813608656412
 20
6606.934230346872
 30
0.0
 11
7429.813608656416
 21
6606.934230346872
 31
0.0
  0
LINE
  5
78
330
17
100
AcDbEntity
  8
SARR_2.2x7
 62
7
370
25
100
AcDbLine
 10
7436.813608656452
 20
6606.934230346877
 30
0.0
 11
7436.813608656506
 21
6706.934230346914
 31
0.0
  0
LINE
  5
79
330
17
100
AcDbEntity
  8
SARR_2.2x7
 62
7
370
25
100
AcDbLine
 10
7452.813608656353
 20
6606.934230346877
 30
0.0
 11
7452.813608656325
 21
6706.934230346914
 31
0.0
  0
LINE
  5
7A
330
17
100
AcDbEntity
  8
Painéis
 62
7
370
25
100
AcDbLine
 10
7459.813608656412
 20
6706.934230346914
 30
0.0
 11
7429.813608656409
 21
6706.934230346914
 31
0.0
  0
LINE
  5
7B
330
17
100
AcDbEntity
  8
Painéis
 62
7
370
25
100
AcDbLine
 10
6909.735395366505
 20
6706.934230346877
 30
0.0
 11
6875.735395366504
 21
6706.934230346877
 31
0.0
  0
LINE
  5
7C
330
17
100
AcDbEntity
  8
SARR_2.2x7
 62
7
370
25
100
AcDbLine
 10
6909.735395366505
 20
6699.934230346878
 30
0.0
 11
6868.735395366504
 21
6699.934230346876
 31
0.0
  0
LINE
  5
7D
330
17
100
AcDbEntity
  8
Painéis
 62
7
370
25
100
AcDbLine
 10
6875.735395366504
 20
6706.934230346877
 30
0.0
 11
6875.735395366516
 21
6770.934230346878
 31
0.0
  0
LINE
  5
7E
330
17
100
AcDbEntity
  8
SARR_2.2x7
 62
7
370
25
100
AcDbLine
 10
6868.735395366504
 20
6706.934230346877
 30
0.0
 11
6868.735395366513
 21
6763.934230346871
 31
0.0
  0
LINE
  5
7F
330
17
100
AcDbEntity
  8
COTA
 62
7
370
25
100
AcDbLine
 10
6909.735395366519
 20
6706.934230346877
 30
0.0
 11
6909.735395366519
 21
6770.934230346876
 31
0.0
  0
LINE
  5
80
330
17
100
AcDbEntity
  8
COTA
 62
7
370
25
100
AcDbLine
 10
6909.735395366519
 20
6770.934230346876
 30
0.0
 11
6875.735395366516
 21
6770.934230346881
 31
0.0
  0
LINE
  5
81
330
17
100
AcDbEntity
  8
SARR_2.2x7
 62
7
370
25
100
AcDbLine
 10
6875.735395366504
 20
6706.934230346877
 30
0.0
 11
6868.735395366504
 21
6706.934230346877
 31
0.0
  0
LINE
  5
82
330
17
100
AcDbEntity
  8
SARR_2.2x7
 62
7
370
25
100
AcDbLine
 10
6868.735395366504
 20
6706.934230346877
 30
0.0
 11
6868.735395366504
 21
6699.934230346876
 31
0.0
  0
LINE
  5
83
330
17
100
AcDbEntity
  8
SARR_2.2x7
 62
7
370
25
100
AcDbLine
 10
7140.832751227136
 20
6364.934230346876
 30
0.0
 11
7140.832751227136
 21
6486.934230346877
 31
0.0
  0
LINE
  5
84
330
17
100
AcDbEntity
  8
SARR_2.2x7
 62
7
370
25
100
AcDbLine
 10
7140.832751227252
 20
6486.934230346891
 30
0.0
 11
7140.832751227208
 21
6583.934230346876
 31
0.0
  0
LINE
  5
85
330
17
100
AcDbEntity
  8
SARR_2.2x7
 62
7
370
25
100
AcDbLine
 10
7052.832751227194
 20
6364.934230346891
 30
0.0
 11
7052.832751227194
 21
6486.934230346877
 31
0.0
  0
LINE
  5
86
330
17
100
AcDbEntity
  8
SARR_2.2x7
 62
7
370
25
100
AcDbLine
 10
7052.83275122731
 20
6486.934230346891
 30
0.0
 11
7052.832751227227
 21
6583.934230346876
 31
0.0
  0
LINE
  5
87
330
17
100
AcDbEntity
  8
SARR_2.2x7
 62
7
370
25
100
AcDbLine
 10
7140.832751227136
 20
6364.934230346876
 30
0.0
 11
7140.832751227136
 21
6364.934230346904
 31
0.0
  0
LINE
  5
88
330
17
100
AcDbEntity
  8
SARR_2.2x7
 62
7
370
25
100
AcDbLine
 10
7052.832751227194
 20
6364.934230346891
 30
0.0
 11
7052.832751227194
 21
6364.934230346876
 31
0.0
  0
LINE
  5
89
330
17
100
AcDbEntity
  8
Painéis
 62
7
370
25
100
AcDbLine
 10
7045.832751227135
 20
6362.934230346367
 30
0.0
 11
7045.832751227132
 21
6706.934230346877
 31
0.0
  0
LINE
  5
8A
330
17
100
AcDbEntity
  8
Painéis
 62
7
370
25
100
AcDbLine
 10
7147.832751227134
 20
6486.934230346877
 30
0.0
 11
7045.832751227194
 21
6486.934230346877
 31
0.0
  0
LINE
  5
8B
330
17
100
AcDbEntity
  8
Painéis
 62
7
370
25
100
AcDbLine
 10
7147.832751227125
 20
6770.93423034688
 30
0.0
 11
7147.832751227139
 21
6362.934230346397
 31
0.0
  0
LINE
  5
8C
330
17
100
AcDbEntity
  8
Painéis
 62
7
370
25
100
AcDbLine
 10
7147.832751227139
 20
6364.934230346876
 30
0.0
 11
7045.832751227135
 21
6364.934230346876
 31
0.0
  0
LINE
  5
8D
330
17
100
AcDbEntity
  8
Painéis
 62
7
370
25
100
AcDbLine
 10
7045.832751227135
 20
6583.934230346878
 30
0.0
 11
7147.832751227134
 21
6583.93423034688
 31
0.0
  0
LINE
  5
8E
330
17
100
AcDbEntity
  8
Painéis
 62
7
370
25
100
AcDbLine
 10
7045.832751227135
 20
6673.934230346876
 30
0.0
 11
7147.832751227134
 21
6673.934230346879
 31
0.0
  0
LINE
  5
8F
330
17
100
AcDbEntity
  8
Painéis
 62
7
370
25
100
AcDbLine
 10
7079.832751227136
 20
6770.934230346869
 30
0.0
 11
7147.832751227134
 21
6770.93423034688
 31
0.0
  0
LINE
  5
90
330
17
100
AcDbEntity
  8
SARR_2.2x7
 62
7
370
25
100
AcDbLine
 10
7140.832751227208
 20
6583.93423034688
 30
0.0
 11
7140.832751227208
 21
6673.93423034688
 31
0.0
  0
LINE
  5
91
330
17
100
AcDbEntity
  8
SARR_2.2x7
 62
7
370
25
100
AcDbLine
 10
7140.832751227212
 20
6673.934230346879
 30
0.0
 11
7140.832751227208
 21
6770.934230346878
 31
0.0
  0
LINE
  5
92
330
17
100
AcDbEntity
  8
SARR_2.2x7
 62
7
370
25
100
AcDbLine
 10
7052.832751227227
 20
6583.934230346878
 30
0.0
 11
7052.832751227234
 21
6673.934230346876
 31
0.0
  0
LINE
  5
93
330
17
100
AcDbEntity
  8
SARR_2.2x7
 62
7
370
25
100
AcDbLine
 10
7052.832751227237
 20
6673.934230346876
 30
0.0
 11
7052.832751227234
 21
6706.934230346877
 31
0.0
  0
LINE
  5
94
330
17
100
AcDbEntity
  8
Painéis
 62
7
370
25
100
AcDbLine
 10
7045.832751227147
 20
6706.934230346877
 30
0.0
 11
7079.832751227147
 21
6706.934230346877
 31
0.0
  0
LINE
  5
95
330
17
100
AcDbEntity
  8
SARR_2.2x7
 62
7
370
25
100
AcDbLine
 10
7045.832751227147
 20
6699.934230346878
 30
0.0
 11
7086.832751227146
 21
6699.934230346876
 31
0.0
  0
LINE
  5
96
330
17
100
AcDbEntity
  8
Painéis
 62
7
370
25
100
AcDbLine
 10
7079.832751227147
 20
6706.934230346877
 30
0.0
 11
7079.832751227136
 21
6770.934230346878
 31
0.0
  0
LINE
  5
97
330
17
100
AcDbEntity
  8
SARR_2.2x7
 62
7
370
25
100
AcDbLine
 10
7086.832751227146
 20
6706.934230346877
 30
0.0
 11
7086.832751227136
 21
6763.934230346866
 31
0.0
  0
LINE
  5
98
330
17
100
AcDbEntity
  8
COTA
 62
7
370
25
100
AcDbLine
 10
7045.832751227132
 20
6706.934230346877
 30
0.0
 11
7045.832751227132
 21
6770.934230346876
 31
0.0
  0
LINE
  5
99
330
17
100
AcDbEntity
  8
COTA
 62
7
370
25
100
AcDbLine
 10
7045.832751227132
 20
6770.934230346876
 30
0.0
 11
7079.832751227136
 21
6770.934230346881
 31
0.0
  0
LINE
  5
9A
330
17
100
AcDbEntity
  8
SARR_2.2x7
 62
7
370
25
100
AcDbLine
 10
7079.832751227147
 20
6706.934230346877
 30
0.0
 11
7086.832751227146
 21
6706.934230346877
 31
0.0
  0
LINE
  5
9B
330
17
100
AcDbEntity
  8
SARR_2.2x7
 62
7
370
25
100
AcDbLine
 10
7086.832751227146
 20
6706.934230346877
 30
0.0
 11
7086.832751227146
 21
6699.934230346876
 31
0.0
  0
LINE
  5
9C
330
17
100
AcDbEntity
  8
Painéis
 62
7
370
25
100
AcDbLine
 10
7309.694422665824
 20
6626.934230346876
 30
0.0
 11
7279.694422665819
 21
6626.934230346876
 31
0.0
  0
LINE
  5
9D
330
17
100
AcDbEntity
  8
Painéis
 62
7
370
25
100
AcDbLine
 10
7459.813608656412
 20
6626.934230346876
 30
0.0
 11
7429.813608656409
 21
6626.934230346876
 31
0.0
  0
LINE
  5
9E
330
17
100
AcDbEntity
  8
SARR_2.2x7
 62
7
370
25
100
AcDbLine
 10
6875.735395366501
 20
6763.934230346869
 30
0.0
 11
6807.735395366527
 21
6763.934230346871
 31
0.0
  0
LINE
  5
9F
330
17
100
AcDbEntity
  8
SARR_2.2x7
 62
7
370
25
100
AcDbLine
 10
7147.83275122712
 20
6763.934230346876
 30
0.0
 11
7079.832751227137
 21
6763.934230346865
 31
0.0
  0
LWPOLYLINE
  5
A0
330
17
100
AcDbEntity
  8
Painéis
 62
7
370
25
100
AcDbPolyline
 90
4
 70
0
 10
7279.694422665824
 20
6364.934230346876
 10
7309.694422665824
 20
6364.934230346876
 10
7309.694422665824
 20
6362.934230346876
 10
7279.694422665824
 20
6362.934230346876
  0
LWPOLYLINE
  5
A1
330
17
100
AcDbEntity
  8
Painéis
 62
7
370
25
100
AcDbPolyline
 90
4
 70
0
 10
7429.81360865642
 20
6364.934230346876
 10
7459.813608656419
 20
6364.934230346876
 10
7459.813608656419
 20
6362.934230346876
 10
7429.81360865642
 20
6362.934230346876
  0
LWPOLYLINE
  5
A2
330
17
100
AcDbEntity
  8
Painéis
 62
7
370
25
100
AcDbPolyline
 90
4
 70
0
 10
6909.735395366515
 20
6364.934230346876
 10
6807.735395366515
 20
6364.934230346905
 10
6807.735395366515
 20
6362.934230346906
 10
6909.735395366515
 20
6362.934230346876
  0
LWPOLYLINE
  5
A3
330
17
100
AcDbEntity
  8
SARRAFO
 62
7
370
25
100
AcDbPolyline
 90
4
 70
0
 10
6308.172502906542
 20
6797.19739360621
 10
6322.172502892398
 20
6797.197393606326
 10
6322.172502892398
 20
6801.597393600644
 10
6308.172502906542
 20
6801.597393600644
  0
LWPOLYLINE
  5
A4
330
17
100
AcDbEntity
  8
SARRAFO
 62
7
370
25
100
AcDbPolyline
 90
4
 70
0
 10
6512.172502862362
 20
6745.997393644906
 10
6498.172502876506
 20
6745.997393644848
 10
6498.172502876506
 20
6741.597393650529
 10
6512.172502862362
 20
6741.597393650529
  0
LWPOLYLINE
  5
A5
330
17
100
AcDbEntity
  8
SARRAFO
 62
7
370
25
100
AcDbPolyline
 90
4
 70
0
 10
6512.172502862362
 20
6797.19739360621
 10
6498.172502876506
 20
6797.197393606326
 10
6498.172502876506
 20
6801.597393600644
 10
6512.172502862362
 20
6801.597393600644
  0
LWPOLYLINE
  5
A6
330
17
100
AcDbEntity
  8
SARRAFO
 62
7
370
25
100
AcDbPolyline
 90
4
 70
0
 10
6308.172502906542
 20
6745.997393644906
 10
6322.172502892398
 20
6745.997393644848
 10
6322.172502892398
 20
6741.597393650529
 10
6308.172502906542
 20
6741.597393650529
  0
LWPOLYLINE
  5
A7
330
17
100
AcDbEntity
  8
Perfil Metálico
 62
7
370
25
100
AcDbPolyline
 90
4
 70
0
 10
6548.172502830552
 20
6823.597393631669
 10
6548.172502830552
 20
6835.597393618631
 10
6272.172502938789
 20
6835.597393618631
 10
6272.172502938789
 20
6823.597393631669
  0
LWPOLYLINE
  5
A8
330
17
100
AcDbEntity
  8
Perfil Metálico
 62
7
370
25
100
AcDbPolyline
 90
4
 70
0
 10
6272.172502938789
 20
6839.597393614323
 10
6272.172502938789
 20
6819.59739363592
 10
6548.172502830552
 20
6819.59739363592
 10
6548.172502830552
 20
6839.597393614323
  0
LWPOLYLINE
  5
A9
330
17
100
AcDbEntity
  8
Perfil Metálico
 62
7
370
25
100
AcDbPolyline
 90
4
 70
0
 10
6548.172502830552
 20
6719.59739367486
 10
6548.172502830552
 20
6707.597393687898
 10
6272.172502938789
 20
6707.597393687898
 10
6272.172502938789
 20
6719.59739367486
  0
LWPOLYLINE
  5
AA
330
17
100
AcDbEntity
  8
Perfil Metálico
 62
7
370
25
100
AcDbPolyline
 90
4
 70
0
 10
6272.172502938789
 20
6703.597393692206
 10
6272.172502938789
 20
6723.59739367061
 10
6548.172502830552
 20
6723.59739367061
 10
6548.172502830552
 20
6703.597393692206
  0
LWPOLYLINE
  5
AB
330
17
100
AcDbEntity
  8
Madeira
 62
7
370
25
100
AcDbPolyline
 90
4
 70
0
 10
6512.187874842974
 20
6723.585781349972
 10
6512.172502862886
 20
6737.585772960821
 10
6308.179491746749
 20
6737.585772960793
 10
6308.194863726836
 20
6723.585781349942
  0
LWPOLYLINE
  5
AC
330
17
100
AcDbEntity
  8
Madeira
 62
7
370
25
100
AcDbPolyline
 90
4
 70
0
 10
6512.187874842974
 20
6819.609005901202
 10
6512.172502862886
 20
6805.609014290353
 10
6308.179491746749
 20
6805.609014290381
 10
6308.194863726836
 20
6819.609005901232
  0
LWPOLYLINE
  5
AD
330
17
100
AcDbEntity
  8
CHAPA
 62
7
370
25
100
AcDbPolyline
 90
4
 70
0
 10
6308.172502907008
 20
6741.597393705885
 10
6308.172502907008
 20
6737.597393705884
 10
6512.172502862362
 20
6737.597393705884
 10
6512.172502862362
 20
6741.597393705885
  0
LWPOLYLINE
  5
AE
330
17
100
AcDbEntity
  8
CHAPA
 62
7
370
25
100
AcDbPolyline
 90
4
 70
0
 10
6308.172502907008
 20
6801.597393545289
 10
6308.172502907008
 20
6805.59739354529
 10
6512.172502862362
 20
6805.59739354529
 10
6512.172502862362
 20
6801.597393545289
  0
LWPOLYLINE
  5
AF
330
17
100
AcDbEntity
  8
CHAPA
 62
7
370
25
100
AcDbPolyline
 90
4
 70
0
 10
6493.772502886816
 20
6801.597393545289
 10
6490.17250288681
 20
6801.597393545289
 10
6490.17250288681
 20
6741.597393705885
 10
6493.772502886816
 20
6741.597393705885
  0
LWPOLYLINE
  5
B0
330
17
100
AcDbEntity
  8
CHAPA
 62
7
370
25
100
AcDbPolyline
 90
4
 70
0
 10
6330.17250288681
 20
6801.597393545347
 10
6326.572502886804
 20
6801.597393545347
 10
6326.572502886804
 20
6741.597393705942
 10
6330.17250288681
 20
6741.597393705942
  0
LWPOLYLINE
  5
B1
330
17
100
AcDbEntity
  8
CHAPA
 62
7
370
25
100
AcDbPolyline
 90
4
 70
0
 10
6308.172502907008
 20
6741.597393705885
 10
6308.172502907008
 20
6737.597393705884
 10
6512.172502862362
 20
6737.597393705884
 10
6512.172502862362
 20
6741.597393705885
  0
LWPOLYLINE
  5
B2
330
17
100
AcDbEntity
  8
CHAPA
 62
7
370
25
100
AcDbPolyline
 90
4
 70
0
 10
6308.172502907008
 20
6801.597393545289
 10
6308.172502907008
 20
6805.59739354529
 10
6512.172502862362
 20
6805.59739354529
 10
6512.172502862362
 20
6801.597393545289
  0
LWPOLYLINE
  5
B3
330
17
100
AcDbEntity
  8
CHAPA
 62
7
370
25
100
AcDbPolyline
 90
4
 70
0
 10
6493.772502886816
 20
6801.597393545289
 10
6490.17250288681
 20
6801.597393545289
 10
6490.17250288681
 20
6741.597393705885
 10
6493.772502886816
 20
6741.597393705885
  0
LWPOLYLINE
  5
B4
330
17
100
AcDbEntity
  8
CHAPA
 62
7
370
25
100
AcDbPolyline
 90
4
 70
0
 10
6330.17250288681
 20
6801.597393545347
 10
6326.572502886804
 20
6801.597393545347
 10
6326.572502886804
 20
6741.597393705942
 10
6330.17250288681
 20
6741.597393705942
  0
LWPOLYLINE
  5
B5
330
17
100
AcDbEntity
  8
SARRAFO
 62
7
370
25
100
AcDbPolyline
 90
4
 70
0
 10
6493.772502882101
 20
6755.597393802422
 10
6493.772502882187
 20
6741.597393816566
 10
6498.172502876506
 20
6741.597393816566
 10
6498.172502876506
 20
6755.597393802422
  0
LWPOLYLINE
  5
B6
330
17
100
AcDbEntity
  8
SARRAFO
 62
7
370
25
100
AcDbPolyline
 90
4
 70
0
 10
6322.172502892398
 20
6755.597393802481
 10
6322.172502892485
 20
6741.597393816625
 10
6326.572502886804
 20
6741.597393816625
 10
6326.572502886804
 20
6755.597393802481
  0
LWPOLYLINE
  5
B7
330
17
100
AcDbEntity
  8
SARRAFO
 62
7
370
25
100
AcDbPolyline
 90
4
 70
0
 10
6493.772502882101
 20
6787.597393448752
 10
6493.772502882187
 20
6801.597393434608
 10
6498.172502876506
 20
6801.597393434608
 10
6498.172502876506
 20
6787.597393448752
  0
LWPOLYLINE
  5
B8
330
17
100
AcDbEntity
  8
SARRAFO
 62
7
370
25
100
AcDbPolyline
 90
4
 70
0
 10
6322.172502892398
 20
6787.597393448693
 10
6322.172502892485
 20
6801.597393434549
 10
6326.572502886804
 20
6801.597393434549
 10
6326.572502886804
 20
6787.597393448693
  0
LWPOLYLINE
  5
B9
330
17
100
AcDbEntity
  8
Painéis
 62
7
370
25
100
AcDbPolyline
 90
4
 70
0
 10
6490.17250288681
 20
6741.597393705885
 10
6490.17250288681
 20
6801.597393545289
 10
6330.17250288681
 20
6801.597393545289
 10
6330.17250288681
 20
6741.597393705885
  0
LWPOLYLINE
  5
BA
330
17
100
AcDbEntity
  8
Painéis
 62
7
370
25
100
AcDbPolyline
 90
4
 70
0
 10
7045.832751227135
 20
6364.934230346876
 10
7147.832751227134
 20
6364.934230346905
 10
7147.832751227134
 20
6362.934230346906
 10
7045.832751227135
 20
6362.934230346876
  0
LWPOLYLINE
  5
BB
330
17
100
AcDbEntity
  8
COTA
 62
7
370
25
100
AcDbPolyline
 90
4
 70
0
 10
7459.813608656412
 20
6706.934230346907
 10
7459.813608656412
 20
6770.934230346869
 10
7429.81360865642
 20
6770.934230346878
 10
7429.81360865642
 20
6706.934230346914
  0
ENDSEC
  0
SECTION
  2
OBJECTS
  0
DICTIONARY
  5
A
330
0
100
AcDbDictionary
281
1
  3
ACAD_COLOR
350
B
  3
ACAD_GROUP
350
C
  3
ACAD_LAYOUT
350
D
  3
ACAD_MATERIAL
350
E
  3
ACAD_MLEADERSTYLE
350
F
  3
ACAD_MLINESTYLE
350
10
  3
ACAD_PLOTSETTINGS
350
11
  3
ACAD_PLOTSTYLENAME
350
12
  3
ACAD_SCALELIST
350
14
  3
ACAD_TABLESTYLE
350
15
  3
ACAD_VISUALSTYLE
350
16
  3
EZDXF_META
350
2D
  0
DICTIONARY
  5
B
330
A
100
AcDbDictionary
281
1
  0
DICTIONARY
  5
C
330
A
100
AcDbDictionary
281
1
  0
DICTIONARY
  5
D
330
A
100
AcDbDictionary
281
1
  3
Model
350
1A
  3
Layout1
350
1E
  0
DICTIONARY
  5
E
330
A
100
AcDbDictionary
281
1
  3
ByBlock
350
1F
  3
ByLayer
350
20
  3
Global
350
21
  0
DICTIONARY
  5
F
330
A
100
AcDbDictionary
281
1
  3
Standard
350
2C
  0
DICTIONARY
  5
10
330
A
100
AcDbDictionary
281
1
  3
Standard
350
22
  0
DICTIONARY
  5
11
330
A
100
AcDbDictionary
281
1
  0
ACDBDICTIONARYWDFLT
  5
12
330
A
100
AcDbDictionary
281
1
  3
Normal
350
13
100
AcDbDictionaryWithDefault
340
13
  0
ACDBPLACEHOLDER
  5
13
330
12
  0
DICTIONARY
  5
14
330
A
100
AcDbDictionary
281
1
  0
DICTIONARY
  5
15
330
A
100
AcDbDictionary
281
1
  0
DICTIONARY
  5
16
330
A
100
AcDbDictionary
281
1
  0
LAYOUT
  5
1A
330
D
100
AcDbPlotSettings
  1

  4
A3
  6

 40
7.5
 41
20.0
 42
7.5
 43
20.0
 44
420.0
 45
297.0
 46
0.0
 47
0.0
 48
0.0
 49
0.0
140
0.0
141
0.0
142
1.0
143
1.0
 70
1024
 72
1
 73
0
 74
5
  7

 75
16
 76
0
 77
2
 78
300
147
1.0
148
0.0
149
0.0
100
AcDbLayout
  1
Model
 70
1
 71
0
 10
0.0
 20
0.0
 11
420.0
 21
297.0
 12
0.0
 22
0.0
 32
0.0
 14
1e+20
 24
1e+20
 34
1e+20
 15
-1e+20
 25
-1e+20
 35
-1e+20
146
0.0
 13
0.0
 23
0.0
 33
0.0
 16
1.0
 26
0.0
 36
0.0
 17
0.0
 27
1.0
 37
0.0
 76
1
330
17
  0
LAYOUT
  5
1E
330
D
100
AcDbPlotSettings
  1

  4
A3
  6

 40
7.5
 41
20.0
 42
7.5
 43
20.0
 44
420.0
 45
297.0
 46
0.0
 47
0.0
 48
0.0
 49
0.0
140
0.0
141
0.0
142
1.0
143
1.0
 70
0
 72
1
 73
0
 74
5
  7

 75
16
 76
0
 77
2
 78
300
147
1.0
148
0.0
149
0.0
100
AcDbLayout
  1
Layout1
 70
1
 71
1
 10
0.0
 20
0.0
 11
420.0
 21
297.0
 12
0.0
 22
0.0
 32
0.0
 14
1e+20
 24
1e+20
 34
1e+20
 15
-1e+20
 25
-1e+20
 35
-1e+20
146
0.0
 13
0.0
 23
0.0
 33
0.0
 16
1.0
 26
0.0
 36
0.0
 17
0.0
 27
1.0
 37
0.0
 76
1
330
1B
  0
MATERIAL
  5
1F
102
{ACAD_REACTORS
330
E
102
}
330
E
100
AcDbMaterial
  1
ByBlock
  2

 70
0
 40
1.0
 71
1
 41
1.0
 91
-1023410177
 42
1.0
 72
1
  3

 73
1
 74
1
 75
1
 44
0.5
 73
0
 45
1.0
 46
1.0
 77
1
  4

 78
1
 79
1
170
1
 48
1.0
171
1
  6

172
1
173
1
174
1
140
1.0
141
1.0
175
1
  7

176
1
177
1
178
1
143
1.0
179
1
  8

270
1
271
1
272
1
145
1.0
146
1.0
273
1
  9

274
1
275
1
276
1
 42
1.0
 72
1
  3

 73
1
 74
1
 75
1
 94
63
  0
MATERIAL
  5
20
102
{ACAD_REACTORS
330
E
102
}
330
E
100
AcDbMaterial
  1
ByLayer
  2

 70
0
 40
1.0
 71
1
 41
1.0
 91
-1023410177
 42
1.0
 72
1
  3

 73
1
 74
1
 75
1
 44
0.5
 73
0
 45
1.0
 46
1.0
 77
1
  4

 78
1
 79
1
170
1
 48
1.0
171
1
  6

172
1
173
1
174
1
140
1.0
141
1.0
175
1
  7

176
1
177
1
178
1
143
1.0
179
1
  8

270
1
271
1
272
1
145
1.0
146
1.0
273
1
  9

274
1
275
1
276
1
 42
1.0
 72
1
  3

 73
1
 74
1
 75
1
 94
63
  0
MATERIAL
  5
21
102
{ACAD_REACTORS
330
E
102
}
330
E
100
AcDbMaterial
  1
Global
  2

 70
0
 40
1.0
 71
1
 41
1.0
 91
-1023410177
 42
1.0
 72
1
  3

 73
1
 74
1
 75
1
 44
0.5
 73
0
 45
1.0
 46
1.0
 77
1
  4

 78
1
 79
1
170
1
 48
1.0
171
1
  6

172
1
173
1
174
1
140
1.0
141
1.0
175
1
  7

176
1
177
1
178
1
143
1.0
179
1
  8

270
1
271
1
272
1
145
1.0
146
1.0
273
1
  9

274
1
275
1
276
1
 42
1.0
 72
1
  3

 73
1
 74
1
 75
1
 94
63
  0
MLINESTYLE
  5
22
102
{ACAD_REACTORS
330
10
102
}
330
10
100
AcDbMlineStyle
  2
Standard
 70
0
  3

 62
256
 51
90.0
 52
90.0
 71
2
 49
0.5
 62
256
  6
BYLAYER
 49
-0.5
 62
256
  6
BYLAYER
  0
MLEADERSTYLE
  5
2C
102
{ACAD_REACTORS
330
F
102
}
330
F
100
AcDbMLeaderStyle
179
2
170
2
171
1
172
0
 90
2
 40
0.0
 41
0.0
173
1
 91
-1056964608
 92
-2
290
1
 42
2.0
291
1
 43
8.0
  3
Standard
 44
4.0
300

342
29
174
1
175
1
176
0
178
1
 93
-1056964608
 45
4.0
292
0
297
0
 46
4.0
 94
-1056964608
 47
1.0
 49
1.0
140
1.0
294
1
141
0.0
177
0
142
1.0
295
0
296
0
143
3.75
271
0
272
9
273
9
  0
DICTIONARY
  5
2D
330
A
100
AcDbDictionary
280
1
281
1
  3
CREATED_BY_EZDXF
350
2E
  3
WRITTEN_BY_EZDXF
350
BE
  0
DICTIONARYVAR
  5
2E
330
2D
100
DictionaryVariables
280
0
  1
1.4.3 @ 2026-06-10T03:13:17.386518+00:00
  0
DICTIONARYVAR
  5
BE
330
2D
100
DictionaryVariables
280
0
  1
1.4.3 @ 2026-06-10T03:13:17.391859+00:00
  0
ENDSEC
  0
EOF
