  0
SECTION
  2
HEADER
  9
$ACADVER
  1
AC1024
  9
$ACADMAINTVER
 70
6
  9
$DWGCODEPAGE
  3
ANSI_1252
  9
$LASTSAVEDBY
  1
ezdxf
  9
$INSBASE
 10
0.0
 20
0.0
 30
0.0
  9
$EXTMIN
 10
1e+20
 20
1e+20
 30
1e+20
  9
$EXTMAX
 10
-1e+20
 20
-1e+20
 30
-1e+20
  9
$LIMMIN
 10
0.0
 20
0.0
  9
$LIMMAX
 10
420.0
 20
297.0
  9
$ORTHOMODE
 70
0
  9
$REGENMODE
 70
1
  9
$FILLMODE
 70
1
  9
$QTEXTMODE
 70
0
  9
$MIRRTEXT
 70
1
  9
$LTSCALE
 40
1.0
  9
$ATTMODE
 70
1
  9
$TEXTSIZE
 40
2.5
  9
$TRACEWID
 40
1.0
  9
$TEXTSTYLE
  7
Standard
  9
$CLAYER
  8
0
  9
$CELTYPE
  6
ByLayer
  9
$CECOLOR
 62
256
  9
$CELTSCALE
 40
1.0
  9
$DISPSILH
 70
0
  9
$DIMSCALE
 40
1.0
  9
$DIMASZ
 40
2.5
  9
$DIMEXO
 40
0.625
  9
$DIMDLI
 40
3.75
  9
$DIMRND
 40
0.0
  9
$DIMDLE
 40
0.0
  9
$DIMEXE
 40
1.25
  9
$DIMTP
 40
0.0
  9
$DIMTM
 40
0.0
  9
$DIMTXT
 40
2.5
  9
$DIMCEN
 40
2.5
  9
$DIMTSZ
 40
0.0
  9
$DIMTOL
 70
0
  9
$DIMLIM
 70
0
  9
$DIMTIH
 70
0
  9
$DIMTOH
 70
0
  9
$DIMSE1
 70
0
  9
$DIMSE2
 70
0
  9
$DIMTAD
 70
1
  9
$DIMZIN
 70
8
  9
$DIMBLK
  1

  9
$DIMASO
 70
1
  9
$DIMSHO
 70
1
  9
$DIMPOST
  1

  9
$DIMAPOST
  1

  9
$DIMALT
 70
0
  9
$DIMALTD
 70
3
  9
$DIMALTF
 40
0.03937007874
  9
$DIMLFAC
 40
1.0
  9
$DIMTOFL
 70
1
  9
$DIMTVP
 40
0.0
  9
$DIMTIX
 70
0
  9
$DIMSOXD
 70
0
  9
$DIMSAH
 70
0
  9
$DIMBLK1
  1

  9
$DIMBLK2
  1

  9
$DIMSTYLE
  2
ISO-25
  9
$DIMCLRD
 70
0
  9
$DIMCLRE
 70
0
  9
$DIMCLRT
 70
0
  9
$DIMTFAC
 40
1.0
  9
$DIMGAP
 40
0.625
  9
$DIMJUST
 70
0
  9
$DIMSD1
 70
0
  9
$DIMSD2
 70
0
  9
$DIMTOLJ
 70
0
  9
$DIMTZIN
 70
8
  9
$DIMALTZ
 70
0
  9
$DIMALTTZ
 70
0
  9
$DIMUPT
 70
0
  9
$DIMDEC
 70
2
  9
$DIMTDEC
 70
2
  9
$DIMALTU
 70
2
  9
$DIMALTTD
 70
3
  9
$DIMTXSTY
  7
Standard
  9
$DIMAUNIT
 70
0
  9
$DIMADEC
 70
0
  9
$DIMALTRND
 40
0.0
  9
$DIMAZIN
 70
0
  9
$DIMDSEP
 70
44
  9
$DIMATFIT
 70
3
  9
$DIMFRAC
 70
0
  9
$DIMLDRBLK
  1

  9
$DIMLUNIT
 70
2
  9
$DIMLWD
 70
-2
  9
$DIMLWE
 70
-2
  9
$DIMTMOVE
 70
0
  9
$DIMFXL
 40
1.0
  9
$DIMFXLON
 70
0
  9
$DIMJOGANG
 40
0.785398163397
  9
$DIMTFILL
 70
0
  9
$DIMTFILLCLR
 70
0
  9
$DIMARCSYM
 70
0
  9
$DIMLTYPE
  6

  9
$DIMLTEX1
  6

  9
$DIMLTEX2
  6

  9
$DIMTXTDIRECTION
 70
0
  9
$LUNITS
 70
2
  9
$LUPREC
 70
4
  9
$SKETCHINC
 40
1.0
  9
$FILLETRAD
 40
10.0
  9
$AUNITS
 70
0
  9
$AUPREC
 70
2
  9
$MENU
  1
.
  9
$ELEVATION
 40
0.0
  9
$PELEVATION
 40
0.0
  9
$THICKNESS
 40
0.0
  9
$LIMCHECK
 70
0
  9
$CHAMFERA
 40
0.0
  9
$CHAMFERB
 40
0.0
  9
$CHAMFERC
 40
0.0
  9
$CHAMFERD
 40
0.0
  9
$SKPOLY
 70
0
  9
$TDCREATE
 40
2461202.613946759
  9
$TDUCREATE
 40
2458532.153996898
  9
$TDUPDATE
 40
2461202.613958333
  9
$TDUUPDATE
 40
2458532.1544311
  9
$TDINDWG
 40
0.0
  9
$TDUSRTIMER
 40
0.0
  9
$USRTIMER
 70
1
  9
$ANGBASE
 50
0.0
  9
$ANGDIR
 70
0
  9
$PDMODE
 70
0
  9
$PDSIZE
 40
0.0
  9
$PLINEWID
 40
0.0
  9
$SPLFRAME
 70
0
  9
$SPLINETYPE
 70
6
  9
$SPLINESEGS
 70
8
  9
$HANDSEED
  5
3C1
  9
$SURFTAB1
 70
6
  9
$SURFTAB2
 70
6
  9
$SURFTYPE
 70
6
  9
$SURFU
 70
6
  9
$SURFV
 70
6
  9
$UCSBASE
  2

  9
$UCSNAME
  2

  9
$UCSORG
 10
0.0
 20
0.0
 30
0.0
  9
$UCSXDIR
 10
1.0
 20
0.0
 30
0.0
  9
$UCSYDIR
 10
0.0
 20
1.0
 30
0.0
  9
$UCSORTHOREF
  2

  9
$UCSORTHOVIEW
 70
0
  9
$UCSORGTOP
 10
0.0
 20
0.0
 30
0.0
  9
$UCSORGBOTTOM
 10
0.0
 20
0.0
 30
0.0
  9
$UCSORGLEFT
 10
0.0
 20
0.0
 30
0.0
  9
$UCSORGRIGHT
 10
0.0
 20
0.0
 30
0.0
  9
$UCSORGFRONT
 10
0.0
 20
0.0
 30
0.0
  9
$UCSORGBACK
 10
0.0
 20
0.0
 30
0.0
  9
$PUCSBASE
  2

  9
$PUCSNAME
  2

  9
$PUCSORG
 10
0.0
 20
0.0
 30
0.0
  9
$PUCSXDIR
 10
1.0
 20
0.0
 30
0.0
  9
$PUCSYDIR
 10
0.0
 20
1.0
 30
0.0
  9
$PUCSORTHOREF
  2

  9
$PUCSORTHOVIEW
 70
0
  9
$PUCSORGTOP
 10
0.0
 20
0.0
 30
0.0
  9
$PUCSORGBOTTOM
 10
0.0
 20
0.0
 30
0.0
  9
$PUCSORGLEFT
 10
0.0
 20
0.0
 30
0.0
  9
$PUCSORGRIGHT
 10
0.0
 20
0.0
 30
0.0
  9
$PUCSORGFRONT
 10
0.0
 20
0.0
 30
0.0
  9
$PUCSORGBACK
 10
0.0
 20
0.0
 30
0.0
  9
$USERI1
 70
0
  9
$USERI2
 70
0
  9
$USERI3
 70
0
  9
$USERI4
 70
0
  9
$USERI5
 70
0
  9
$USERR1
 40
0.0
  9
$USERR2
 40
0.0
  9
$USERR3
 40
0.0
  9
$USERR4
 40
0.0
  9
$USERR5
 40
0.0
  9
$WORLDVIEW
 70
1
  9
$SHADEDGE
 70
3
  9
$SHADEDIF
 70
70
  9
$TILEMODE
 70
1
  9
$MAXACTVP
 70
64
  9
$PINSBASE
 10
0.0
 20
0.0
 30
0.0
  9
$PLIMCHECK
 70
0
  9
$PEXTMIN
 10
1e+20
 20
1e+20
 30
1e+20
  9
$PEXTMAX
 10
-1e+20
 20
-1e+20
 30
-1e+20
  9
$PLIMMIN
 10
0.0
 20
0.0
  9
$PLIMMAX
 10
420.0
 20
297.0
  9
$UNITMODE
 70
0
  9
$VISRETAIN
 70
1
  9
$PLINEGEN
 70
0
  9
$PSLTSCALE
 70
1
  9
$TREEDEPTH
 70
3020
  9
$CMLSTYLE
  2
Standard
  9
$CMLJUST
 70
0
  9
$CMLSCALE
 40
20.0
  9
$PROXYGRAPHICS
 70
1
  9
$MEASUREMENT
 70
1
  9
$CELWEIGHT
370
-1
  9
$ENDCAPS
280
0
  9
$JOINSTYLE
280
0
  9
$LWDISPLAY
290
0
  9
$INSUNITS
 70
6
  9
$HYPERLINKBASE
  1

  9
$STYLESHEET
  1

  9
$XEDIT
290
1
  9
$CEPSNTYPE
380
0
  9
$PSTYLEMODE
290
1
  9
$FINGERPRINTGUID
  2
{162DA10E-DCB7-4607-A08F-B15037B5AE30}
  9
$VERSIONGUID
  2
{AF318D8D-2226-4EBA-9659-6E04576CE703}
  9
$EXTNAMES
290
1
  9
$PSVPSCALE
 40
0.0
  9
$OLESTARTUP
290
0
  9
$SORTENTS
280
127
  9
$INDEXCTL
280
0
  9
$HIDETEXT
280
1
  9
$XCLIPFRAME
280
1
  9
$HALOGAP
280
0
  9
$OBSCOLOR
 70
257
  9
$OBSLTYPE
280
0
  9
$INTERSECTIONDISPLAY
280
0
  9
$INTERSECTIONCOLOR
 70
257
  9
$DIMASSOC
280
2
  9
$PROJECTNAME
  1

  9
$CAMERADISPLAY
290
0
  9
$LENSLENGTH
 40
50.0
  9
$CAMERAHEIGHT
 40
0.0
  9
$STEPSPERSEC
 40
24.0
  9
$STEPSIZE
 40
100.0
  9
$3DDWFPREC
 40
2.0
  9
$PSOLWIDTH
 40
0.005
  9
$PSOLHEIGHT
 40
0.08
  9
$LOFTANG1
 40
1.570796326795
  9
$LOFTANG2
 40
1.570796326795
  9
$LOFTMAG1
 40
0.0
  9
$LOFTMAG2
 40
0.0
  9
$LOFTPARAM
 70
7
  9
$LOFTNORMALS
280
1
  9
$LATITUDE
 40
37.795
  9
$LONGITUDE
 40
-122.394
  9
$NORTHDIRECTION
 40
0.0
  9
$TIMEZONE
 70
-8000
  9
$LIGHTGLYPHDISPLAY
280
1
  9
$TILEMODELIGHTSYNCH
280
1
  9
$CMATERIAL
347
20
  9
$SOLIDHIST
280
0
  9
$SHOWHIST
280
1
  9
$DWFFRAME
280
2
  9
$DGNFRAME
280
2
  9
$REALWORLDSCALE
290
1
  9
$INTERFERECOLOR
 62
256
  9
$CSHADOW
280
0
  9
$SHADOWPLANELOCATION
 40
0.0
  0
ENDSEC
  0
SECTION
  2
CLASSES
  0
CLASS
  1
ACDBDICTIONARYWDFLT
  2
AcDbDictionaryWithDefault
  3
ObjectDBX Classes
 90
0
 91
0
280
0
281
0
  0
CLASS
  1
SUN
  2
AcDbSun
  3
SCENEOE
 90
1153
 91
0
280
0
281
0
  0
CLASS
  1
VISUALSTYLE
  2
AcDbVisualStyle
  3
ObjectDBX Classes
 90
4095
 91
0
280
0
281
0
  0
CLASS
  1
MATERIAL
  2
AcDbMaterial
  3
ObjectDBX Classes
 90
1153
 91
0
280
0
281
0
  0
CLASS
  1
SCALE
  2
AcDbScale
  3
ObjectDBX Classes
 90
1153
 91
0
280
0
281
0
  0
CLASS
  1
TABLESTYLE
  2
AcDbTableStyle
  3
ObjectDBX Classes
 90
4095
 91
0
280
0
281
0
  0
CLASS
  1
MLEADERSTYLE
  2
AcDbMLeaderStyle
  3
ACDB_MLEADERSTYLE_CLASS
 90
4095
 91
0
280
0
281
0
  0
CLASS
  1
DICTIONARYVAR
  2
AcDbDictionaryVar
  3
ObjectDBX Classes
 90
0
 91
0
280
0
281
0
  0
CLASS
  1
CELLSTYLEMAP
  2
AcDbCellStyleMap
  3
ObjectDBX Classes
 90
1152
 91
0
280
0
281
0
  0
CLASS
  1
MENTALRAYRENDERSETTINGS
  2
AcDbMentalRayRenderSettings
  3
SCENEOE
 90
1024
 91
0
280
0
281
0
  0
CLASS
  1
ACDBDETAILVIEWSTYLE
  2
AcDbDetailViewStyle
  3
ObjectDBX Classes
 90
1025
 91
0
280
0
281
0
  0
CLASS
  1
ACDBSECTIONVIEWSTYLE
  2
AcDbSectionViewStyle
  3
ObjectDBX Classes
 90
1025
 91
0
280
0
281
0
  0
CLASS
  1
RASTERVARIABLES
  2
AcDbRasterVariables
  3
ISM
 90
0
 91
0
280
0
281
0
  0
CLASS
  1
ACDBPLACEHOLDER
  2
AcDbPlaceHolder
  3
ObjectDBX Classes
 90
0
 91
0
280
0
281
0
  0
CLASS
  1
LAYOUT
  2
AcDbLayout
  3
ObjectDBX Classes
 90
0
 91
0
280
0
281
0
  0
ENDSEC
  0
SECTION
  2
TABLES
  0
TABLE
  2
VPORT
  5
8
330
0
100
AcDbSymbolTable
 70
1
  0
VPORT
  5
23
330
8
100
AcDbSymbolTableRecord
100
AcDbViewportTableRecord
  2
*Active
 70
0
 10
0.0
 20
0.0
 11
1.0
 21
1.0
 12
0.0
 22
0.0
 13
0.0
 23
0.0
 14
0.5
 24
0.5
 15
0.5
 25
0.5
 16
0.0
 26
0.0
 36
1.0
 17
0.0
 27
0.0
 37
0.0
 40
1000.0
 41
1.34
 42
50.0
 43
0.0
 44
0.0
 50
0.0
 51
0.0
 71
0
 72
1000
 73
1
 74
3
 75
0
 76
0
 77
0
 78
0
281
0
 65
0
146
0.0
  0
ENDTAB
  0
TABLE
  2
LTYPE
  5
2
330
0
100
AcDbSymbolTable
 70
3
  0
LTYPE
  5
24
330
2
100
AcDbSymbolTableRecord
100
AcDbLinetypeTableRecord
  2
ByBlock
 70
0
  3

 72
65
 73
0
 40
0.0
  0
LTYPE
  5
25
330
2
100
AcDbSymbolTableRecord
100
AcDbLinetypeTableRecord
  2
ByLayer
 70
0
  3

 72
65
 73
0
 40
0.0
  0
LTYPE
  5
26
330
2
100
AcDbSymbolTableRecord
100
AcDbLinetypeTableRecord
  2
Continuous
 70
0
  3

 72
65
 73
0
 40
0.0
  0
ENDTAB
  0
TABLE
  2
LAYER
  5
1
330
0
100
AcDbSymbolTable
 70
14
  0
LAYER
  5
27
330
1
100
AcDbSymbolTableRecord
100
AcDbLayerTableRecord
  2
0
 70
0
 62
7
  6
Continuous
370
-3
390
13
347
21
  0
LAYER
  5
28
330
1
100
AcDbSymbolTableRecord
100
AcDbLayerTableRecord
  2
Defpoints
 70
0
 62
7
  6
Continuous
290
0
370
-3
390
13
347
21
  0
LAYER
  5
2F
330
1
100
AcDbSymbolTableRecord
100
AcDbLayerTableRecord
  2
Hachura
 70
0
 62
7
  6
Continuous
370
-3
390
13
347
21
  0
LAYER
  5
30
330
1
100
AcDbSymbolTableRecord
100
AcDbLayerTableRecord
  2
COTA
 70
0
 62
7
  6
Continuous
370
-3
390
13
347
21
  0
LAYER
  5
31
330
1
100
AcDbSymbolTableRecord
100
AcDbLayerTableRecord
  2
Perfil Metálico
 70
0
 62
7
  6
Continuous
370
-3
390
13
347
21
  0
LAYER
  5
32
330
1
100
AcDbSymbolTableRecord
100
AcDbLayerTableRecord
  2
SARRAFO
 70
0
 62
7
  6
Continuous
370
-3
390
13
347
21
  0
LAYER
  5
33
330
1
100
AcDbSymbolTableRecord
100
AcDbLayerTableRecord
  2
CHAPA
 70
0
 62
7
  6
Continuous
370
-3
390
13
347
21
  0
LAYER
  5
34
330
1
100
AcDbSymbolTableRecord
100
AcDbLayerTableRecord
  2
Madeira
 70
0
 62
7
  6
Continuous
370
-3
390
13
347
21
  0
LAYER
  5
35
330
1
100
AcDbSymbolTableRecord
100
AcDbLayerTableRecord
  2
TEXTO_GERAL
 70
0
 62
7
  6
Continuous
370
-3
390
13
347
21
  0
LAYER
  5
36
330
1
100
AcDbSymbolTableRecord
100
AcDbLayerTableRecord
  2
Painéis
 70
0
 62
7
  6
Continuous
370
-3
390
13
347
21
  0
LAYER
  5
37
330
1
100
AcDbSymbolTableRecord
100
AcDbLayerTableRecord
  2
NOMENCLATURA
 70
0
 62
7
  6
Continuous
370
-3
390
13
347
21
  0
LAYER
  5
38
330
1
100
AcDbSymbolTableRecord
100
AcDbLayerTableRecord
  2
Nível
 70
0
 62
7
  6
Continuous
370
-3
390
13
347
21
  0
LAYER
  5
39
330
1
100
AcDbSymbolTableRecord
100
AcDbLayerTableRecord
  2
Texto Seção
 70
0
 62
7
  6
Continuous
370
-3
390
13
347
21
  0
LAYER
  5
3A
330
1
100
AcDbSymbolTableRecord
100
AcDbLayerTableRecord
  2
SARR_2.2x7
 70
0
 62
7
  6
Continuous
370
-3
390
13
347
21
  0
ENDTAB
  0
TABLE
  2
STYLE
  5
5
330
0
100
AcDbSymbolTable
 70
1
  0
STYLE
  5
29
330
5
100
AcDbSymbolTableRecord
100
AcDbTextStyleTableRecord
  2
Standard
 70
0
 40
0.0
 41
1.0
 50
0.0
 71
0
 42
2.5
  3
txt
  4

  0
ENDTAB
  0
TABLE
  2
VIEW
  5
7
330
0
100
AcDbSymbolTable
 70
0
  0
ENDTAB
  0
TABLE
  2
UCS
  5
6
330
0
100
AcDbSymbolTable
 70
0
  0
ENDTAB
  0
TABLE
  2
APPID
  5
3
330
0
100
AcDbSymbolTable
 70
3
  0
APPID
  5
2A
330
3
100
AcDbSymbolTableRecord
100
AcDbRegAppTableRecord
  2
ACAD
 70
0
  0
APPID
  5
3BE
330
3
100
AcDbSymbolTableRecord
100
AcDbRegAppTableRecord
  2
HATCHBACKGROUNDCOLOR
 70
0
  0
APPID
  5
3BF
330
3
100
AcDbSymbolTableRecord
100
AcDbRegAppTableRecord
  2
EZDXF
 70
0
  0
ENDTAB
  0
TABLE
  2
DIMSTYLE
  5
4
330
0
100
AcDbSymbolTable
 70
1
100
AcDbDimStyleTable
  0
DIMSTYLE
105
2B
330
4
100
AcDbSymbolTableRecord
100
AcDbDimStyleTableRecord
  2
Standard
 70
0
 40
1.0
 41
2.5
 42
0.625
 43
3.75
 44
1.25
 45
0.0
 46
0.0
 47
0.0
 48
0.0
 49
2.5
140
2.5
141
2.5
142
0.0
143
0.03937007874
144
1.0
145
0.0
146
1.0
147
0.625
148
0.0
 69
0
 70
0
 71
0
 72
0
 73
0
 74
0
 75
0
 76
0
 77
1
 78
8
 79
3
170
0
171
3
172
1
173
0
174
0
175
0
176
0
177
0
178
0
179
2
271
2
272
2
273
2
274
3
275
0
276
0
277
2
278
44
279
0
280
0
281
0
282
0
283
0
284
8
285
0
286
0
288
0
289
3
290
0
371
-2
372
-2
  0
ENDTAB
  0
TABLE
  2
BLOCK_RECORD
  5
9
330
0
100
AcDbSymbolTable
 70
2
  0
BLOCK_RECORD
  5
17
330
9
100
AcDbSymbolTableRecord
100
AcDbBlockTableRecord
  2
*Model_Space
340
1A
 70
0
280
1
281
0
  0
BLOCK_RECORD
  5
1B
330
9
100
AcDbSymbolTableRecord
100
AcDbBlockTableRecord
  2
*Paper_Space
340
1E
 70
0
280
1
281
0
  0
ENDTAB
  0
ENDSEC
  0
SECTION
  2
BLOCKS
  0
BLOCK
  5
18
330
17
100
AcDbEntity
  8
0
100
AcDbBlockBegin
  2
*Model_Space
 70
0
 10
0.0
 20
0.0
 30
0.0
  3
*Model_Space
  1

  0
ENDBLK
  5
19
330
17
100
AcDbEntity
  8
0
100
AcDbBlockEnd
  0
BLOCK
  5
1C
330
1B
100
AcDbEntity
  8
0
100
AcDbBlockBegin
  2
*Paper_Space
 70
0
 10
0.0
 20
0.0
 30
0.0
  3
*Paper_Space
  1

  0
ENDBLK
  5
1D
330
1B
100
AcDbEntity
  8
0
100
AcDbBlockEnd
  0
ENDSEC
  0
SECTION
  2
ENTITIES
  0
LINE
  5
3B
330
17
100
AcDbEntity
  8
Nível
 62
4
370
25
100
AcDbLine
 10
5144.105177132835
 20
4065.784014973502
 30
0.0
 11
5983.93998089667
 21
4065.784014973502
 31
0.0
  0
LINE
  5
3C
330
17
100
AcDbEntity
  8
Nível
 62
4
370
25
100
AcDbLine
 10
5144.105177132835
 20
4473.784014973502
 30
0.0
 11
5983.93998089667
 21
4473.784014973502
 31
0.0
  0
LINE
  5
3D
330
17
100
AcDbEntity
  8
SARR_2.2x7
 62
40
370
25
100
AcDbLine
 10
5266.569130296819
 20
4067.784014973502
 30
0.0
 11
5266.569130296819
 21
4189.784014973502
 31
0.0
  0
LINE
  5
3E
330
17
100
AcDbEntity
  8
SARR_2.2x7
 62
40
370
25
100
AcDbLine
 10
5266.569130296702
 20
4189.784014973517
 30
0.0
 11
5266.569130296761
 21
4329.784014973955
 31
0.0
  0
LINE
  5
3F
330
17
100
AcDbEntity
  8
SARR_2.2x7
 62
40
370
25
100
AcDbLine
 10
5334.569130296761
 20
4067.784014973517
 30
0.0
 11
5334.569130296761
 21
4189.784014973502
 31
0.0
  0
LINE
  5
40
330
17
100
AcDbEntity
  8
SARR_2.2x7
 62
40
370
25
100
AcDbLine
 10
5334.569130296644
 20
4189.784014973517
 30
0.0
 11
5334.569130296749
 21
4329.784014973955
 31
0.0
  0
LINE
  5
41
330
17
100
AcDbEntity
  8
Painéis
 62
200
370
25
100
AcDbLine
 10
5341.569130296495
 20
4409.784014973539
 30
0.0
 11
5259.569130296717
 21
4409.784014973539
 31
0.0
  0
LINE
  5
42
330
17
100
AcDbEntity
  8
Painéis
 62
200
370
25
100
AcDbLine
 10
5341.569130296819
 20
4065.784014972993
 30
0.0
 11
5341.569130296531
 21
4409.784014973586
 31
0.0
  0
LINE
  5
43
330
17
100
AcDbEntity
  8
Painéis
 62
200
370
25
100
AcDbLine
 10
5259.569130296717
 20
4409.78401497354
 30
0.0
 11
5259.569130296815
 21
4065.784014973021
 31
0.0
  0
LINE
  5
44
330
17
100
AcDbEntity
  8
Painéis
 62
200
370
25
100
AcDbLine
 10
5259.569130296815
 20
4067.784014973502
 30
0.0
 11
5341.569130296819
 21
4067.784014973502
 31
0.0
  0
LINE
  5
45
330
17
100
AcDbEntity
  8
SARR_2.2x7
 62
40
370
25
100
AcDbLine
 10
5717.14818318429
 20
4409.784014973502
 30
0.0
 11
5717.148183184316
 21
4286.784014973506
 31
0.0
  0
LINE
  5
46
330
17
100
AcDbEntity
  8
SARR_2.2x7
 62
40
370
25
100
AcDbLine
 10
5717.148183184312
 20
4286.784014973505
 30
0.0
 11
5717.14818318437
 21
4067.784014973502
 31
0.0
  0
LINE
  5
47
330
17
100
AcDbEntity
  8
SARR_2.2x7
 62
40
370
25
100
AcDbLine
 10
5712.148183184385
 20
4409.784014973502
 30
0.0
 11
5712.148183184363
 21
4286.784014973506
 31
0.0
  0
LINE
  5
48
330
17
100
AcDbEntity
  8
SARR_2.2x7
 62
40
370
25
100
AcDbLine
 10
5712.148183184367
 20
4286.784014973505
 30
0.0
 11
5712.148183184312
 21
4067.784014973502
 31
0.0
  0
LINE
  5
49
330
17
100
AcDbEntity
  8
Painéis
 62
200
370
25
100
AcDbLine
 10
5705.148183184341
 20
4067.784014973502
 30
0.0
 11
5724.148183184341
 21
4067.784014973502
 31
0.0
  0
LINE
  5
4A
330
17
100
AcDbEntity
  8
Painéis
 62
200
370
25
100
AcDbLine
 10
5724.148183184341
 20
4067.784014973502
 30
0.0
 11
5724.148183184337
 21
4409.784014973502
 31
0.0
  0
LINE
  5
4B
330
17
100
AcDbEntity
  8
Painéis
 62
200
370
25
100
AcDbLine
 10
5705.148183184341
 20
4409.784014973504
 30
0.0
 11
5705.148183184341
 21
4067.784014973502
 31
0.0
  0
LINE
  5
4C
330
17
100
AcDbEntity
  8
SARR_2.2x7
 62
40
370
25
100
AcDbLine
 10
5880.931874390277
 20
4409.784014973502
 30
0.0
 11
5880.931874390302
 21
4286.784014973506
 31
0.0
  0
LINE
  5
4D
330
17
100
AcDbEntity
  8
SARR_2.2x7
 62
40
370
25
100
AcDbLine
 10
5880.931874390299
 20
4286.784014973505
 30
0.0
 11
5880.931874390356
 21
4067.784014973502
 31
0.0
  0
LINE
  5
4E
330
17
100
AcDbEntity
  8
SARR_2.2x7
 62
40
370
25
100
AcDbLine
 10
5875.931874390371
 20
4409.784014973502
 30
0.0
 11
5875.931874390349
 21
4286.784014973506
 31
0.0
  0
LINE
  5
4F
330
17
100
AcDbEntity
  8
SARR_2.2x7
 62
40
370
25
100
AcDbLine
 10
5875.931874390353
 20
4286.784014973505
 30
0.0
 11
5875.931874390299
 21
4067.784014973502
 31
0.0
  0
LINE
  5
50
330
17
100
AcDbEntity
  8
Painéis
 62
200
370
25
100
AcDbLine
 10
5868.931874390328
 20
4067.784014973502
 30
0.0
 11
5887.931874390328
 21
4067.784014973502
 31
0.0
  0
LINE
  5
51
330
17
100
AcDbEntity
  8
Painéis
 62
200
370
25
100
AcDbLine
 10
5887.931874390328
 20
4067.784014973502
 30
0.0
 11
5887.931874390324
 21
4409.784014973502
 31
0.0
  0
LINE
  5
52
330
17
100
AcDbEntity
  8
Painéis
 62
200
370
25
100
AcDbLine
 10
5868.931874390328
 20
4409.784014973504
 30
0.0
 11
5868.931874390328
 21
4067.784014973502
 31
0.0
  0
LINE
  5
53
330
17
100
AcDbEntity
  8
Painéis
 62
200
370
25
100
AcDbLine
 10
5341.569130296182
 20
4286.784014973502
 30
0.0
 11
5259.569130296182
 21
4286.784014973503
 31
0.0
  0
LINE
  5
54
330
17
100
AcDbEntity
  8
Painéis
 62
200
370
25
100
AcDbLine
 10
5341.569130296761
 20
4189.784014973502
 30
0.0
 11
5259.569130296815
 21
4189.784014973503
 31
0.0
  0
LINE
  5
55
330
17
100
AcDbEntity
  8
Painéis
 62
200
370
25
100
AcDbLine
 10
5724.148183184337
 20
4329.784014973503
 30
0.0
 11
5705.148183184341
 21
4329.784014973502
 31
0.0
  0
LINE
  5
56
330
17
100
AcDbEntity
  8
Painéis
 62
200
370
25
100
AcDbLine
 10
5724.148183184341
 20
4286.784014973502
 30
0.0
 11
5705.148183184341
 21
4286.784014973502
 31
0.0
  0
LINE
  5
57
330
17
100
AcDbEntity
  8
Painéis
 62
200
370
25
100
AcDbLine
 10
5887.931874390328
 20
4286.784014973504
 30
0.0
 11
5868.931874390328
 21
4286.784014973504
 31
0.0
  0
LINE
  5
58
330
17
100
AcDbEntity
  8
Painéis
 62
200
370
25
100
AcDbLine
 10
5887.931874390324
 20
4329.784014973505
 30
0.0
 11
5868.931874390328
 21
4329.784014973505
 31
0.0
  0
LINE
  5
59
330
17
100
AcDbEntity
  8
COTA
 62
241
370
25
100
AcDbLine
 10
5341.569130296444
 20
4409.78401497354
 30
0.0
 11
5341.569130296393
 21
4473.784014973502
 31
0.0
  0
LINE
  5
5A
330
17
100
AcDbEntity
  8
COTA
 62
241
370
25
100
AcDbLine
 10
5341.569130296393
 20
4473.784014973502
 30
0.0
 11
5259.569130296767
 21
4473.784014973502
 31
0.0
  0
LINE
  5
5B
330
17
100
AcDbEntity
  8
COTA
 62
241
370
25
100
AcDbLine
 10
5259.569130296717
 20
4409.78401497354
 30
0.0
 11
5259.569130296767
 21
4473.784014973502
 31
0.0
  0
LINE
  5
5C
330
17
100
AcDbEntity
  8
SARR_2.2x7
 62
40
370
25
100
AcDbLine
 10
5503.081256626
 20
4067.784014973502
 30
0.0
 11
5503.081256626
 21
4189.784014973502
 31
0.0
  0
LINE
  5
5D
330
17
100
AcDbEntity
  8
SARR_2.2x7
 62
40
370
25
100
AcDbLine
 10
5503.081256625883
 20
4189.784014973517
 30
0.0
 11
5503.081256625941
 21
4329.784014973955
 31
0.0
  0
LINE
  5
5E
330
17
100
AcDbEntity
  8
SARR_2.2x7
 62
40
370
25
100
AcDbLine
 10
5571.081256625941
 20
4067.784014973517
 30
0.0
 11
5571.081256625941
 21
4189.784014973502
 31
0.0
  0
LINE
  5
5F
330
17
100
AcDbEntity
  8
SARR_2.2x7
 62
40
370
25
100
AcDbLine
 10
5571.081256625824
 20
4189.784014973517
 30
0.0
 11
5571.081256625929
 21
4329.784014973955
 31
0.0
  0
LINE
  5
60
330
17
100
AcDbEntity
  8
Painéis
 62
200
370
25
100
AcDbLine
 10
5578.081256625676
 20
4409.784014973539
 30
0.0
 11
5496.081256625897
 21
4409.784014973539
 31
0.0
  0
LINE
  5
61
330
17
100
AcDbEntity
  8
Painéis
 62
200
370
25
100
AcDbLine
 10
5578.081256625999
 20
4065.784014972993
 30
0.0
 11
5578.081256625711
 21
4409.784014973586
 31
0.0
  0
LINE
  5
62
330
17
100
AcDbEntity
  8
Painéis
 62
200
370
25
100
AcDbLine
 10
5496.081256625897
 20
4409.78401497354
 30
0.0
 11
5496.081256625996
 21
4065.784014973021
 31
0.0
  0
LINE
  5
63
330
17
100
AcDbEntity
  8
Painéis
 62
200
370
25
100
AcDbLine
 10
5496.081256625996
 20
4067.784014973502
 30
0.0
 11
5578.081256625999
 21
4067.784014973502
 31
0.0
  0
LINE
  5
64
330
17
100
AcDbEntity
  8
Painéis
 62
200
370
25
100
AcDbLine
 10
5578.081256625363
 20
4286.784014973502
 30
0.0
 11
5496.081256625362
 21
4286.784014973503
 31
0.0
  0
LINE
  5
65
330
17
100
AcDbEntity
  8
Painéis
 62
200
370
25
100
AcDbLine
 10
5578.081256625941
 20
4189.784014973502
 30
0.0
 11
5496.081256625996
 21
4189.784014973503
 31
0.0
  0
LINE
  5
66
330
17
100
AcDbEntity
  8
COTA
 62
241
370
25
100
AcDbLine
 10
5578.081256625624
 20
4409.78401497354
 30
0.0
 11
5578.081256625574
 21
4473.784014973502
 31
0.0
  0
LINE
  5
67
330
17
100
AcDbEntity
  8
COTA
 62
241
370
25
100
AcDbLine
 10
5578.081256625574
 20
4473.784014973502
 30
0.0
 11
5496.081256625949
 21
4473.784014973502
 31
0.0
  0
LINE
  5
68
330
17
100
AcDbEntity
  8
COTA
 62
241
370
25
100
AcDbLine
 10
5496.081256625897
 20
4409.78401497354
 30
0.0
 11
5496.081256625949
 21
4473.784014973502
 31
0.0
  0
LINE
  5
69
330
17
100
AcDbEntity
  8
Hachura
 62
251
370
9
100
AcDbLine
 10
4909.173069279074
 20
4553.247545446352
 30
0.0
 11
4909.181610489948
 21
4421.447178318831
 31
0.0
  0
LINE
  5
6A
330
17
100
AcDbEntity
  8
Hachura
 62
251
370
9
100
AcDbLine
 10
4741.171936494516
 20
4553.247545446352
 30
0.0
 11
4741.16339528367
 21
4421.447178318831
 31
0.0
  0
LINE
  5
6B
330
17
100
AcDbEntity
  8
Hachura
 62
251
370
9
100
AcDbLine
 10
4825.172242467975
 20
4553.247545446352
 30
0.0
 11
4825.163701257101
 21
4421.447178318831
 31
0.0
  0
LINE
  5
6C
330
17
100
AcDbEntity
  8
Painéis
 62
200
370
25
100
AcDbLine
 10
5341.569130296601
 20
4329.784014973955
 30
0.0
 11
5259.569130296819
 21
4329.784014973955
 31
0.0
  0
LINE
  5
6D
330
17
100
AcDbEntity
  8
SARR_2.2x7
 62
40
370
25
100
AcDbLine
 10
5334.569130296626
 20
4329.784014973955
 30
0.0
 11
5334.569130296433
 21
4409.784014974035
 31
0.0
  0
LINE
  5
6E
330
17
100
AcDbEntity
  8
SARR_2.2x7
 62
40
370
25
100
AcDbLine
 10
5266.569130296757
 20
4329.784014973955
 30
0.0
 11
5266.569130296659
 21
4409.784014973996
 31
0.0
  0
LINE
  5
6F
330
17
100
AcDbEntity
  8
Painéis
 62
200
370
25
100
AcDbLine
 10
5578.08125662521
 20
4329.784014973955
 30
0.0
 11
5496.081256625429
 21
4329.784014973955
 31
0.0
  0
LINE
  5
70
330
17
100
AcDbEntity
  8
SARR_2.2x7
 62
40
370
25
100
AcDbLine
 10
5571.081256625237
 20
4329.784014973955
 30
0.0
 11
5571.081256625043
 21
4409.784014974035
 31
0.0
  0
LINE
  5
71
330
17
100
AcDbEntity
  8
SARR_2.2x7
 62
40
370
25
100
AcDbLine
 10
5503.081256625367
 20
4329.784014973955
 30
0.0
 11
5503.081256625269
 21
4409.784014973996
 31
0.0
  0
LINE
  5
72
330
17
100
AcDbEntity
  8
COTA
 62
4
370
25
100
AcDbLine
 10
5147.105177132837
 20
4065.784014973504
 30
0.0
 11
5158.956433404167
 21
4065.784014973504
 31
0.0
  0
LINE
  5
73
330
17
100
AcDbEntity
  8
COTA
 62
4
370
25
100
AcDbLine
 10
5147.105177132837
 20
4473.784014973504
 30
0.0
 11
5158.956433404167
 21
4473.784014973504
 31
0.0
  0
LINE
  5
74
330
17
100
AcDbEntity
  8
COTA
 62
4
370
25
100
AcDbLine
 10
5155.956433404167
 20
4065.784014973504
 30
0.0
 11
5155.956433404167
 21
4473.784014973504
 31
0.0
  0
LINE
  5
75
330
17
100
AcDbEntity
  8
COTA
 62
0
370
25
100
AcDbLine
 10
5154.456433404167
 20
4067.284014973504
 30
0.0
 11
5157.456433404167
 21
4064.284014973504
 31
0.0
  0
LINE
  5
76
330
17
100
AcDbEntity
  8
COTA
 62
0
370
25
100
AcDbLine
 10
5157.456433404167
 20
4472.284014973504
 30
0.0
 11
5154.456433404167
 21
4475.284014973504
 31
0.0
  0
LINE
  5
77
330
17
100
AcDbEntity
  8
COTA
 62
4
370
25
100
AcDbLine
 10
5341.569130296819
 20
4064.784014973502
 30
0.0
 11
5341.569130296819
 21
4020.172029793513
 31
0.0
  0
LINE
  5
78
330
17
100
AcDbEntity
  8
COTA
 62
4
370
25
100
AcDbLine
 10
5259.569130296819
 20
4064.784014973531
 30
0.0
 11
5259.569130296819
 21
4020.172029793513
 31
0.0
  0
LINE
  5
79
330
17
100
AcDbEntity
  8
COTA
 62
4
370
25
100
AcDbLine
 10
5341.569130296819
 20
4023.172029793513
 30
0.0
 11
5259.569130296819
 21
4023.172029793513
 31
0.0
  0
LINE
  5
7A
330
17
100
AcDbEntity
  8
COTA
 62
0
370
25
100
AcDbLine
 10
5340.069130296819
 20
4021.672029793513
 30
0.0
 11
5343.069130296819
 21
4024.672029793513
 31
0.0
  0
LINE
  5
7B
330
17
100
AcDbEntity
  8
COTA
 62
0
370
25
100
AcDbLine
 10
5261.069130296819
 20
4024.672029793513
 30
0.0
 11
5258.069130296819
 21
4021.672029793513
 31
0.0
  0
LINE
  5
7C
330
17
100
AcDbEntity
  8
COTA
 62
4
370
25
100
AcDbLine
 10
5334.569130296819
 20
4064.784014973517
 30
0.0
 11
5334.569130296819
 21
4044.273919009607
 31
0.0
  0
LINE
  5
7D
330
17
100
AcDbEntity
  8
COTA
 62
4
370
25
100
AcDbLine
 10
5341.569130296819
 20
4062.784014972993
 30
0.0
 11
5341.569130296819
 21
4044.273919009607
 31
0.0
  0
LINE
  5
7E
330
17
100
AcDbEntity
  8
COTA
 62
4
370
25
100
AcDbLine
 10
5334.569130296819
 20
4047.273919009607
 30
0.0
 11
5341.569130296819
 21
4047.273919009607
 31
0.0
  0
LINE
  5
7F
330
17
100
AcDbEntity
  8
COTA
 62
4
370
25
100
AcDbLine
 10
5341.569130296819
 20
4047.273919009607
 30
0.0
 11
5356.300124448866
 21
4047.273919009607
 31
0.0
  0
LINE
  5
80
330
17
100
AcDbEntity
  8
COTA
 62
0
370
25
100
AcDbLine
 10
5336.069130296819
 20
4048.773919009607
 30
0.0
 11
5333.069130296819
 21
4045.773919009607
 31
0.0
  0
LINE
  5
81
330
17
100
AcDbEntity
  8
COTA
 62
0
370
25
100
AcDbLine
 10
5340.069130296819
 20
4045.773919009607
 30
0.0
 11
5343.069130296819
 21
4048.773919009607
 31
0.0
  0
LINE
  5
82
330
17
100
AcDbEntity
  8
COTA
 62
4
370
25
100
AcDbLine
 10
5266.569130296761
 20
4064.784014973546
 30
0.0
 11
5266.569130296761
 21
4044.273919009635
 31
0.0
  0
LINE
  5
83
330
17
100
AcDbEntity
  8
COTA
 62
4
370
25
100
AcDbLine
 10
5259.569130296819
 20
4062.784014973021
 30
0.0
 11
5259.569130296819
 21
4044.273919009635
 31
0.0
  0
LINE
  5
84
330
17
100
AcDbEntity
  8
COTA
 62
4
370
25
100
AcDbLine
 10
5266.569130296761
 20
4047.273919009636
 30
0.0
 11
5259.569130296819
 21
4047.273919009636
 31
0.0
  0
LINE
  5
85
330
17
100
AcDbEntity
  8
COTA
 62
4
370
25
100
AcDbLine
 10
5259.569130296819
 20
4047.273919009636
 30
0.0
 11
5244.838136144772
 21
4047.273919009636
 31
0.0
  0
LINE
  5
86
330
17
100
AcDbEntity
  8
COTA
 62
0
370
25
100
AcDbLine
 10
5265.069130296761
 20
4045.773919009636
 30
0.0
 11
5268.069130296761
 21
4048.773919009636
 31
0.0
  0
LINE
  5
87
330
17
100
AcDbEntity
  8
COTA
 62
0
370
25
100
AcDbLine
 10
5261.069130296819
 20
4048.773919009636
 30
0.0
 11
5258.069130296819
 21
4045.773919009636
 31
0.0
  0
LINE
  5
88
330
17
100
AcDbEntity
  8
COTA
 62
4
370
25
100
AcDbLine
 10
5344.569130296814
 20
4067.784014973518
 30
0.0
 11
5363.827328507723
 21
4067.784014973518
 31
0.0
  0
LINE
  5
89
330
17
100
AcDbEntity
  8
COTA
 62
4
370
25
100
AcDbLine
 10
5344.569130296814
 20
4065.784014973504
 30
0.0
 11
5363.827328507723
 21
4065.784014973504
 31
0.0
  0
LINE
  5
8A
330
17
100
AcDbEntity
  8
COTA
 62
4
370
25
100
AcDbLine
 10
5360.827328507723
 20
4065.784014973504
 30
0.0
 11
5360.827328507723
 21
4062.784014973504
 31
0.0
  0
LINE
  5
8B
330
17
100
AcDbEntity
  8
COTA
 62
4
370
25
100
AcDbLine
 10
5360.827328507723
 20
4067.784014973518
 30
0.0
 11
5360.827328507723
 21
4086.586466421999
 31
0.0
  0
LINE
  5
8C
330
17
100
AcDbEntity
  8
COTA
 62
4
370
25
100
AcDbLine
 10
5360.827328507723
 20
4065.784014973504
 30
0.0
 11
5360.827328507723
 21
4067.784014973518
 31
0.0
  0
LINE
  5
8D
330
17
100
AcDbEntity
  8
COTA
 62
0
370
25
100
AcDbLine
 10
5362.327328507723
 20
4064.284014973504
 30
0.0
 11
5359.327328507723
 21
4067.284014973504
 31
0.0
  0
LINE
  5
8E
330
17
100
AcDbEntity
  8
COTA
 62
0
370
25
100
AcDbLine
 10
5359.327328507723
 20
4069.284014973518
 30
0.0
 11
5362.327328507723
 21
4066.284014973518
 31
0.0
  0
LINE
  5
8F
330
17
100
AcDbEntity
  8
COTA
 62
4
370
25
100
AcDbLine
 10
5344.569130296821
 20
4065.784014973504
 30
0.0
 11
5392.932581384428
 21
4065.784014973504
 31
0.0
  0
LINE
  5
90
330
17
100
AcDbEntity
  8
COTA
 62
4
370
25
100
AcDbLine
 10
5344.569130296762
 20
4189.784014973503
 30
0.0
 11
5392.932581384428
 21
4189.784014973503
 31
0.0
  0
LINE
  5
91
330
17
100
AcDbEntity
  8
COTA
 62
4
370
25
100
AcDbLine
 10
5389.932581384429
 20
4065.784014973504
 30
0.0
 11
5389.932581384429
 21
4189.784014973503
 31
0.0
  0
LINE
  5
92
330
17
100
AcDbEntity
  8
COTA
 62
0
370
25
100
AcDbLine
 10
5388.432581384429
 20
4067.284014973504
 30
0.0
 11
5391.432581384429
 21
4064.284014973504
 31
0.0
  0
LINE
  5
93
330
17
100
AcDbEntity
  8
COTA
 62
0
370
25
100
AcDbLine
 10
5391.432581384429
 20
4188.284014973503
 30
0.0
 11
5388.432581384429
 21
4191.284014973503
 31
0.0
  0
LINE
  5
94
330
17
100
AcDbEntity
  8
COTA
 62
4
370
25
100
AcDbLine
 10
5705.148183184341
 20
4064.784014973502
 30
0.0
 11
5705.148183184341
 21
4032.889803327332
 31
0.0
  0
LINE
  5
95
330
17
100
AcDbEntity
  8
COTA
 62
4
370
25
100
AcDbLine
 10
5724.148183184341
 20
4064.784014973502
 30
0.0
 11
5724.148183184341
 21
4032.889803327332
 31
0.0
  0
LINE
  5
96
330
17
100
AcDbEntity
  8
COTA
 62
4
370
25
100
AcDbLine
 10
5705.148183184341
 20
4035.889803327332
 30
0.0
 11
5724.148183184341
 21
4035.889803327332
 31
0.0
  0
LINE
  5
97
330
17
100
AcDbEntity
  8
COTA
 62
0
370
25
100
AcDbLine
 10
5706.648183184341
 20
4037.389803327332
 30
0.0
 11
5703.648183184341
 21
4034.389803327332
 31
0.0
  0
LINE
  5
98
330
17
100
AcDbEntity
  8
COTA
 62
0
370
25
100
AcDbLine
 10
5722.648183184341
 20
4034.389803327332
 30
0.0
 11
5725.648183184341
 21
4037.389803327332
 31
0.0
  0
LINE
  5
99
330
17
100
AcDbEntity
  8
COTA
 62
4
370
25
100
AcDbLine
 10
5727.148183184401
 20
4065.784014973474
 30
0.0
 11
5746.055600852662
 21
4065.784014973474
 31
0.0
  0
LINE
  5
9A
330
17
100
AcDbEntity
  8
COTA
 62
4
370
25
100
AcDbLine
 10
5727.148183184343
 20
4067.784014973475
 30
0.0
 11
5746.055600852662
 21
4067.784014973475
 31
0.0
  0
LINE
  5
9B
330
17
100
AcDbEntity
  8
COTA
 62
4
370
25
100
AcDbLine
 10
5743.055600852662
 20
4065.784014973474
 30
0.0
 11
5743.055600852662
 21
4062.784014973475
 31
0.0
  0
LINE
  5
9C
330
17
100
AcDbEntity
  8
COTA
 62
4
370
25
100
AcDbLine
 10
5743.055600852662
 20
4067.784014973475
 30
0.0
 11
5743.055600852662
 21
4070.784014973475
 31
0.0
  0
LINE
  5
9D
330
17
100
AcDbEntity
  8
COTA
 62
4
370
25
100
AcDbLine
 10
5743.055600852662
 20
4065.784014973474
 30
0.0
 11
5743.055600852662
 21
4067.784014973475
 31
0.0
  0
LINE
  5
9E
330
17
100
AcDbEntity
  8
COTA
 62
0
370
25
100
AcDbLine
 10
5744.555600852662
 20
4064.284014973474
 30
0.0
 11
5741.555600852662
 21
4067.284014973474
 31
0.0
  0
LINE
  5
9F
330
17
100
AcDbEntity
  8
COTA
 62
0
370
25
100
AcDbLine
 10
5741.555600852662
 20
4069.284014973475
 30
0.0
 11
5744.555600852662
 21
4066.284014973475
 31
0.0
  0
LINE
  5
A0
330
17
100
AcDbEntity
  8
COTA
 62
4
370
25
100
AcDbLine
 10
5727.14818318434
 20
4409.784014973499
 30
0.0
 11
5744.520506373049
 21
4409.784014973499
 31
0.0
  0
LINE
  5
A1
330
17
100
AcDbEntity
  8
COTA
 62
4
370
25
100
AcDbLine
 10
5727.14818318434
 20
4329.784014973506
 30
0.0
 11
5744.520506373049
 21
4329.784014973506
 31
0.0
  0
LINE
  5
A2
330
17
100
AcDbEntity
  8
COTA
 62
4
370
25
100
AcDbLine
 10
5741.520506373049
 20
4409.784014973499
 30
0.0
 11
5741.520506373049
 21
4329.784014973506
 31
0.0
  0
LINE
  5
A3
330
17
100
AcDbEntity
  8
COTA
 62
0
370
25
100
AcDbLine
 10
5743.020506373049
 20
4408.284014973499
 30
0.0
 11
5740.020506373049
 21
4411.284014973499
 31
0.0
  0
LINE
  5
A4
330
17
100
AcDbEntity
  8
COTA
 62
0
370
25
100
AcDbLine
 10
5740.020506373049
 20
4331.284014973506
 30
0.0
 11
5743.020506373049
 21
4328.284014973506
 31
0.0
  0
LINE
  5
A5
330
17
100
AcDbEntity
  8
COTA
 62
4
370
25
100
AcDbLine
 10
5868.931874390328
 20
4064.784014973502
 30
0.0
 11
5868.931874390328
 21
4032.889803327332
 31
0.0
  0
LINE
  5
A6
330
17
100
AcDbEntity
  8
COTA
 62
4
370
25
100
AcDbLine
 10
5887.931874390328
 20
4064.784014973502
 30
0.0
 11
5887.931874390328
 21
4032.889803327332
 31
0.0
  0
LINE
  5
A7
330
17
100
AcDbEntity
  8
COTA
 62
4
370
25
100
AcDbLine
 10
5868.931874390328
 20
4035.889803327332
 30
0.0
 11
5887.931874390328
 21
4035.889803327332
 31
0.0
  0
LINE
  5
A8
330
17
100
AcDbEntity
  8
COTA
 62
0
370
25
100
AcDbLine
 10
5870.431874390328
 20
4037.389803327332
 30
0.0
 11
5867.431874390328
 21
4034.389803327332
 31
0.0
  0
LINE
  5
A9
330
17
100
AcDbEntity
  8
COTA
 62
0
370
25
100
AcDbLine
 10
5886.431874390328
 20
4034.389803327332
 30
0.0
 11
5889.431874390328
 21
4037.389803327332
 31
0.0
  0
LINE
  5
AA
330
17
100
AcDbEntity
  8
COTA
 62
4
370
25
100
AcDbLine
 10
5890.931874390388
 20
4065.784014973474
 30
0.0
 11
5909.839292058649
 21
4065.784014973474
 31
0.0
  0
LINE
  5
AB
330
17
100
AcDbEntity
  8
COTA
 62
4
370
25
100
AcDbLine
 10
5890.93187439033
 20
4067.784014973475
 30
0.0
 11
5909.839292058649
 21
4067.784014973475
 31
0.0
  0
LINE
  5
AC
330
17
100
AcDbEntity
  8
COTA
 62
4
370
25
100
AcDbLine
 10
5906.839292058648
 20
4065.784014973474
 30
0.0
 11
5906.839292058648
 21
4062.784014973475
 31
0.0
  0
LINE
  5
AD
330
17
100
AcDbEntity
  8
COTA
 62
4
370
25
100
AcDbLine
 10
5906.839292058648
 20
4067.784014973475
 30
0.0
 11
5906.839292058648
 21
4070.784014973475
 31
0.0
  0
LINE
  5
AE
330
17
100
AcDbEntity
  8
COTA
 62
4
370
25
100
AcDbLine
 10
5906.839292058648
 20
4065.784014973474
 30
0.0
 11
5906.839292058648
 21
4067.784014973475
 31
0.0
  0
LINE
  5
AF
330
17
100
AcDbEntity
  8
COTA
 62
0
370
25
100
AcDbLine
 10
5908.339292058648
 20
4064.284014973474
 30
0.0
 11
5905.339292058648
 21
4067.284014973474
 31
0.0
  0
LINE
  5
B0
330
17
100
AcDbEntity
  8
COTA
 62
0
370
25
100
AcDbLine
 10
5905.339292058648
 20
4069.284014973475
 30
0.0
 11
5908.339292058648
 21
4066.284014973475
 31
0.0
  0
LINE
  5
B1
330
17
100
AcDbEntity
  8
COTA
 62
4
370
25
100
AcDbLine
 10
5727.14818318434
 20
4329.784014973505
 30
0.0
 11
5744.520506373044
 21
4329.784014973505
 31
0.0
  0
LINE
  5
B2
330
17
100
AcDbEntity
  8
COTA
 62
4
370
25
100
AcDbLine
 10
5727.14818318434
 20
4286.784014973504
 30
0.0
 11
5744.520506373044
 21
4286.784014973504
 31
0.0
  0
LINE
  5
B3
330
17
100
AcDbEntity
  8
COTA
 62
4
370
25
100
AcDbLine
 10
5741.520506373044
 20
4329.784014973505
 30
0.0
 11
5741.520506373044
 21
4286.784014973504
 31
0.0
  0
LINE
  5
B4
330
17
100
AcDbEntity
  8
COTA
 62
0
370
25
100
AcDbLine
 10
5743.020506373044
 20
4328.284014973505
 30
0.0
 11
5740.020506373044
 21
4331.284014973505
 31
0.0
  0
LINE
  5
B5
330
17
100
AcDbEntity
  8
COTA
 62
0
370
25
100
AcDbLine
 10
5740.020506373044
 20
4288.284014973504
 30
0.0
 11
5743.020506373044
 21
4285.284014973504
 31
0.0
  0
LINE
  5
B6
330
17
100
AcDbEntity
  8
COTA
 62
4
370
25
100
AcDbLine
 10
5727.148183184343
 20
4286.784014973504
 30
0.0
 11
5768.010995080866
 21
4286.784014973504
 31
0.0
  0
LINE
  5
B7
330
17
100
AcDbEntity
  8
COTA
 62
4
370
25
100
AcDbLine
 10
5727.148183184343
 20
4067.784014973503
 30
0.0
 11
5768.010995080866
 21
4067.784014973503
 31
0.0
  0
LINE
  5
B8
330
17
100
AcDbEntity
  8
COTA
 62
4
370
25
100
AcDbLine
 10
5765.010995080865
 20
4286.784014973504
 30
0.0
 11
5765.010995080865
 21
4067.784014973503
 31
0.0
  0
LINE
  5
B9
330
17
100
AcDbEntity
  8
COTA
 62
0
370
25
100
AcDbLine
 10
5766.510995080865
 20
4285.284014973504
 30
0.0
 11
5763.510995080865
 21
4288.284014973504
 31
0.0
  0
LINE
  5
BA
330
17
100
AcDbEntity
  8
COTA
 62
0
370
25
100
AcDbLine
 10
5763.510995080865
 20
4069.284014973503
 30
0.0
 11
5766.510995080865
 21
4066.284014973503
 31
0.0
  0
LINE
  5
BB
330
17
100
AcDbEntity
  8
COTA
 62
4
370
25
100
AcDbLine
 10
5344.569130296821
 20
4189.784014973503
 30
0.0
 11
5364.873955299451
 21
4189.784014973503
 31
0.0
  0
LINE
  5
BC
330
17
100
AcDbEntity
  8
COTA
 62
4
370
25
100
AcDbLine
 10
5344.569130296083
 20
4286.784014973504
 30
0.0
 11
5364.873955299451
 21
4286.784014973504
 31
0.0
  0
LINE
  5
BD
330
17
100
AcDbEntity
  8
COTA
 62
4
370
25
100
AcDbLine
 10
5361.873955299451
 20
4189.784014973503
 30
0.0
 11
5361.873955299451
 21
4286.784014973504
 31
0.0
  0
LINE
  5
BE
330
17
100
AcDbEntity
  8
COTA
 62
0
370
25
100
AcDbLine
 10
5360.373955299451
 20
4191.284014973503
 30
0.0
 11
5363.373955299451
 21
4188.284014973503
 31
0.0
  0
LINE
  5
BF
330
17
100
AcDbEntity
  8
COTA
 62
0
370
25
100
AcDbLine
 10
5363.373955299451
 20
4285.284014973504
 30
0.0
 11
5360.373955299451
 21
4288.284014973504
 31
0.0
  0
LINE
  5
C0
330
17
100
AcDbEntity
  8
COTA
 62
4
370
25
100
AcDbLine
 10
5344.569130296446
 20
4409.784014973541
 30
0.0
 11
5392.932581384371
 21
4409.784014973541
 31
0.0
  0
LINE
  5
C1
330
17
100
AcDbEntity
  8
COTA
 62
4
370
25
100
AcDbLine
 10
5344.569130296446
 20
4473.784014973502
 30
0.0
 11
5392.932581384371
 21
4473.784014973502
 31
0.0
  0
LINE
  5
C2
330
17
100
AcDbEntity
  8
COTA
 62
4
370
25
100
AcDbLine
 10
5389.932581384371
 20
4409.784014973541
 30
0.0
 11
5389.932581384371
 21
4473.784014973502
 31
0.0
  0
LINE
  5
C3
330
17
100
AcDbEntity
  8
COTA
 62
0
370
25
100
AcDbLine
 10
5388.432581384371
 20
4411.284014973541
 30
0.0
 11
5391.432581384371
 21
4408.284014973541
 31
0.0
  0
LINE
  5
C4
330
17
100
AcDbEntity
  8
COTA
 62
0
370
25
100
AcDbLine
 10
5391.432581384371
 20
4472.284014973502
 30
0.0
 11
5388.432581384371
 21
4475.284014973502
 31
0.0
  0
LINE
  5
C5
330
17
100
AcDbEntity
  8
COTA
 62
4
370
25
100
AcDbLine
 10
5578.081256625999
 20
4064.784014973502
 30
0.0
 11
5578.081256625999
 21
4020.172029793513
 31
0.0
  0
LINE
  5
C6
330
17
100
AcDbEntity
  8
COTA
 62
4
370
25
100
AcDbLine
 10
5496.081256625999
 20
4064.784014973531
 30
0.0
 11
5496.081256625999
 21
4020.172029793513
 31
0.0
  0
LINE
  5
C7
330
17
100
AcDbEntity
  8
COTA
 62
4
370
25
100
AcDbLine
 10
5578.081256625999
 20
4023.172029793513
 30
0.0
 11
5496.081256625999
 21
4023.172029793513
 31
0.0
  0
LINE
  5
C8
330
17
100
AcDbEntity
  8
COTA
 62
0
370
25
100
AcDbLine
 10
5576.581256625999
 20
4021.672029793513
 30
0.0
 11
5579.581256625999
 21
4024.672029793513
 31
0.0
  0
LINE
  5
C9
330
17
100
AcDbEntity
  8
COTA
 62
0
370
25
100
AcDbLine
 10
5497.581256625999
 20
4024.672029793513
 30
0.0
 11
5494.581256625999
 21
4021.672029793513
 31
0.0
  0
LINE
  5
CA
330
17
100
AcDbEntity
  8
COTA
 62
4
370
25
100
AcDbLine
 10
5571.081256625999
 20
4064.784014973517
 30
0.0
 11
5571.081256625999
 21
4044.273919009607
 31
0.0
  0
LINE
  5
CB
330
17
100
AcDbEntity
  8
COTA
 62
4
370
25
100
AcDbLine
 10
5578.081256625999
 20
4062.784014972993
 30
0.0
 11
5578.081256625999
 21
4044.273919009607
 31
0.0
  0
LINE
  5
CC
330
17
100
AcDbEntity
  8
COTA
 62
4
370
25
100
AcDbLine
 10
5571.081256625999
 20
4047.273919009607
 30
0.0
 11
5578.081256625999
 21
4047.273919009607
 31
0.0
  0
LINE
  5
CD
330
17
100
AcDbEntity
  8
COTA
 62
4
370
25
100
AcDbLine
 10
5578.081256625999
 20
4047.273919009607
 30
0.0
 11
5592.812250778046
 21
4047.273919009607
 31
0.0
  0
LINE
  5
CE
330
17
100
AcDbEntity
  8
COTA
 62
0
370
25
100
AcDbLine
 10
5572.581256625999
 20
4048.773919009607
 30
0.0
 11
5569.581256625999
 21
4045.773919009607
 31
0.0
  0
LINE
  5
CF
330
17
100
AcDbEntity
  8
COTA
 62
0
370
25
100
AcDbLine
 10
5576.581256625999
 20
4045.773919009607
 30
0.0
 11
5579.581256625999
 21
4048.773919009607
 31
0.0
  0
LINE
  5
D0
330
17
100
AcDbEntity
  8
COTA
 62
4
370
25
100
AcDbLine
 10
5503.081256625941
 20
4064.784014973546
 30
0.0
 11
5503.081256625941
 21
4044.273919009635
 31
0.0
  0
LINE
  5
D1
330
17
100
AcDbEntity
  8
COTA
 62
4
370
25
100
AcDbLine
 10
5496.081256625999
 20
4062.784014973021
 30
0.0
 11
5496.081256625999
 21
4044.273919009635
 31
0.0
  0
LINE
  5
D2
330
17
100
AcDbEntity
  8
COTA
 62
4
370
25
100
AcDbLine
 10
5503.081256625941
 20
4047.273919009636
 30
0.0
 11
5496.081256625999
 21
4047.273919009636
 31
0.0
  0
LINE
  5
D3
330
17
100
AcDbEntity
  8
COTA
 62
4
370
25
100
AcDbLine
 10
5496.081256625999
 20
4047.273919009636
 30
0.0
 11
5481.350262473952
 21
4047.273919009636
 31
0.0
  0
LINE
  5
D4
330
17
100
AcDbEntity
  8
COTA
 62
0
370
25
100
AcDbLine
 10
5501.581256625941
 20
4045.773919009636
 30
0.0
 11
5504.581256625941
 21
4048.773919009636
 31
0.0
  0
LINE
  5
D5
330
17
100
AcDbEntity
  8
COTA
 62
0
370
25
100
AcDbLine
 10
5497.581256625999
 20
4048.773919009636
 30
0.0
 11
5494.581256625999
 21
4045.773919009636
 31
0.0
  0
LINE
  5
D6
330
17
100
AcDbEntity
  8
COTA
 62
4
370
25
100
AcDbLine
 10
5581.081256625994
 20
4067.784014973518
 30
0.0
 11
5600.339454836904
 21
4067.784014973518
 31
0.0
  0
LINE
  5
D7
330
17
100
AcDbEntity
  8
COTA
 62
4
370
25
100
AcDbLine
 10
5581.081256625994
 20
4065.784014973504
 30
0.0
 11
5600.339454836904
 21
4065.784014973504
 31
0.0
  0
LINE
  5
D8
330
17
100
AcDbEntity
  8
COTA
 62
4
370
25
100
AcDbLine
 10
5597.339454836903
 20
4065.784014973504
 30
0.0
 11
5597.339454836903
 21
4062.784014973504
 31
0.0
  0
LINE
  5
D9
330
17
100
AcDbEntity
  8
COTA
 62
4
370
25
100
AcDbLine
 10
5597.339454836903
 20
4067.784014973518
 30
0.0
 11
5597.339454836903
 21
4086.586466421999
 31
0.0
  0
LINE
  5
DA
330
17
100
AcDbEntity
  8
COTA
 62
4
370
25
100
AcDbLine
 10
5597.339454836903
 20
4065.784014973504
 30
0.0
 11
5597.339454836903
 21
4067.784014973518
 31
0.0
  0
LINE
  5
DB
330
17
100
AcDbEntity
  8
COTA
 62
0
370
25
100
AcDbLine
 10
5598.839454836903
 20
4064.284014973504
 30
0.0
 11
5595.839454836903
 21
4067.284014973504
 31
0.0
  0
LINE
  5
DC
330
17
100
AcDbEntity
  8
COTA
 62
0
370
25
100
AcDbLine
 10
5595.839454836903
 20
4069.284014973518
 30
0.0
 11
5598.839454836903
 21
4066.284014973518
 31
0.0
  0
LINE
  5
DD
330
17
100
AcDbEntity
  8
COTA
 62
4
370
25
100
AcDbLine
 10
5581.081256626001
 20
4065.784014973504
 30
0.0
 11
5629.444707713624
 21
4065.784014973504
 31
0.0
  0
LINE
  5
DE
330
17
100
AcDbEntity
  8
COTA
 62
4
370
25
100
AcDbLine
 10
5581.081256625942
 20
4189.784014973503
 30
0.0
 11
5629.444707713624
 21
4189.784014973503
 31
0.0
  0
LINE
  5
DF
330
17
100
AcDbEntity
  8
COTA
 62
4
370
25
100
AcDbLine
 10
5626.444707713623
 20
4065.784014973504
 30
0.0
 11
5626.444707713623
 21
4189.784014973503
 31
0.0
  0
LINE
  5
E0
330
17
100
AcDbEntity
  8
COTA
 62
0
370
25
100
AcDbLine
 10
5624.944707713623
 20
4067.284014973504
 30
0.0
 11
5627.944707713623
 21
4064.284014973504
 31
0.0
  0
LINE
  5
E1
330
17
100
AcDbEntity
  8
COTA
 62
0
370
25
100
AcDbLine
 10
5627.944707713623
 20
4188.284014973503
 30
0.0
 11
5624.944707713623
 21
4191.284014973503
 31
0.0
  0
LINE
  5
E2
330
17
100
AcDbEntity
  8
COTA
 62
4
370
25
100
AcDbLine
 10
5581.081256626001
 20
4189.784014973503
 30
0.0
 11
5601.386081628064
 21
4189.784014973503
 31
0.0
  0
LINE
  5
E3
330
17
100
AcDbEntity
  8
COTA
 62
4
370
25
100
AcDbLine
 10
5581.081256625263
 20
4286.784014973504
 30
0.0
 11
5601.386081628064
 21
4286.784014973504
 31
0.0
  0
LINE
  5
E4
330
17
100
AcDbEntity
  8
COTA
 62
4
370
25
100
AcDbLine
 10
5598.386081628063
 20
4189.784014973503
 30
0.0
 11
5598.386081628063
 21
4286.784014973504
 31
0.0
  0
LINE
  5
E5
330
17
100
AcDbEntity
  8
COTA
 62
0
370
25
100
AcDbLine
 10
5596.886081628063
 20
4191.284014973503
 30
0.0
 11
5599.886081628063
 21
4188.284014973503
 31
0.0
  0
LINE
  5
E6
330
17
100
AcDbEntity
  8
COTA
 62
0
370
25
100
AcDbLine
 10
5599.886081628063
 20
4285.284014973504
 30
0.0
 11
5596.886081628063
 21
4288.284014973504
 31
0.0
  0
LINE
  5
E7
330
17
100
AcDbEntity
  8
COTA
 62
4
370
25
100
AcDbLine
 10
5581.081256625626
 20
4409.784014973541
 30
0.0
 11
5629.444707713566
 21
4409.784014973541
 31
0.0
  0
LINE
  5
E8
330
17
100
AcDbEntity
  8
COTA
 62
4
370
25
100
AcDbLine
 10
5581.081256625626
 20
4473.784014973502
 30
0.0
 11
5629.444707713566
 21
4473.784014973502
 31
0.0
  0
LINE
  5
E9
330
17
100
AcDbEntity
  8
COTA
 62
4
370
25
100
AcDbLine
 10
5626.444707713566
 20
4409.784014973541
 30
0.0
 11
5626.444707713566
 21
4473.784014973502
 31
0.0
  0
LINE
  5
EA
330
17
100
AcDbEntity
  8
COTA
 62
0
370
25
100
AcDbLine
 10
5624.944707713566
 20
4411.284014973541
 30
0.0
 11
5627.944707713566
 21
4408.284014973541
 31
0.0
  0
LINE
  5
EB
330
17
100
AcDbEntity
  8
COTA
 62
0
370
25
100
AcDbLine
 10
5627.944707713566
 20
4472.284014973502
 30
0.0
 11
5624.944707713566
 21
4475.284014973502
 31
0.0
  0
LINE
  5
EC
330
17
100
AcDbEntity
  8
COTA
 62
4
370
25
100
AcDbLine
 10
5727.14818318434
 20
4286.784014973504
 30
0.0
 11
5768.010995080889
 21
4286.784014973504
 31
0.0
  0
LINE
  5
ED
330
17
100
AcDbEntity
  8
COTA
 62
4
370
25
100
AcDbLine
 10
5727.14818318434
 20
4409.784014973496
 30
0.0
 11
5768.010995080889
 21
4409.784014973496
 31
0.0
  0
LINE
  5
EE
330
17
100
AcDbEntity
  8
COTA
 62
4
370
25
100
AcDbLine
 10
5765.010995080888
 20
4286.784014973504
 30
0.0
 11
5765.010995080888
 21
4409.784014973496
 31
0.0
  0
LINE
  5
EF
330
17
100
AcDbEntity
  8
COTA
 62
0
370
25
100
AcDbLine
 10
5763.510995080888
 20
4288.284014973504
 30
0.0
 11
5766.510995080888
 21
4285.284014973504
 31
0.0
  0
LINE
  5
F0
330
17
100
AcDbEntity
  8
COTA
 62
0
370
25
100
AcDbLine
 10
5766.510995080888
 20
4408.284014973496
 30
0.0
 11
5763.510995080888
 21
4411.284014973496
 31
0.0
  0
LINE
  5
F1
330
17
100
AcDbEntity
  8
COTA
 62
4
370
25
100
AcDbLine
 10
5890.931874390322
 20
4409.7840149735
 30
0.0
 11
5908.304197579046
 21
4409.7840149735
 31
0.0
  0
LINE
  5
F2
330
17
100
AcDbEntity
  8
COTA
 62
4
370
25
100
AcDbLine
 10
5890.931874390322
 20
4329.784014973508
 30
0.0
 11
5908.304197579046
 21
4329.784014973508
 31
0.0
  0
LINE
  5
F3
330
17
100
AcDbEntity
  8
COTA
 62
4
370
25
100
AcDbLine
 10
5905.304197579046
 20
4409.7840149735
 30
0.0
 11
5905.304197579046
 21
4329.784014973508
 31
0.0
  0
LINE
  5
F4
330
17
100
AcDbEntity
  8
COTA
 62
0
370
25
100
AcDbLine
 10
5906.804197579046
 20
4408.2840149735
 30
0.0
 11
5903.804197579046
 21
4411.2840149735
 31
0.0
  0
LINE
  5
F5
330
17
100
AcDbEntity
  8
COTA
 62
0
370
25
100
AcDbLine
 10
5903.804197579046
 20
4331.284014973508
 30
0.0
 11
5906.804197579046
 21
4328.284014973508
 31
0.0
  0
LINE
  5
F6
330
17
100
AcDbEntity
  8
COTA
 62
4
370
25
100
AcDbLine
 10
5890.931874390322
 20
4329.784014973506
 30
0.0
 11
5908.304197579042
 21
4329.784014973506
 31
0.0
  0
LINE
  5
F7
330
17
100
AcDbEntity
  8
COTA
 62
4
370
25
100
AcDbLine
 10
5890.931874390322
 20
4286.784014973505
 30
0.0
 11
5908.304197579042
 21
4286.784014973505
 31
0.0
  0
LINE
  5
F8
330
17
100
AcDbEntity
  8
COTA
 62
4
370
25
100
AcDbLine
 10
5905.304197579042
 20
4329.784014973506
 30
0.0
 11
5905.304197579042
 21
4286.784014973505
 31
0.0
  0
LINE
  5
F9
330
17
100
AcDbEntity
  8
COTA
 62
0
370
25
100
AcDbLine
 10
5906.804197579042
 20
4328.284014973506
 30
0.0
 11
5903.804197579042
 21
4331.284014973506
 31
0.0
  0
LINE
  5
FA
330
17
100
AcDbEntity
  8
COTA
 62
0
370
25
100
AcDbLine
 10
5903.804197579042
 20
4288.284014973505
 30
0.0
 11
5906.804197579042
 21
4285.284014973505
 31
0.0
  0
LINE
  5
FB
330
17
100
AcDbEntity
  8
COTA
 62
4
370
25
100
AcDbLine
 10
5890.931874390326
 20
4286.784014973505
 30
0.0
 11
5931.794686286878
 21
4286.784014973505
 31
0.0
  0
LINE
  5
FC
330
17
100
AcDbEntity
  8
COTA
 62
4
370
25
100
AcDbLine
 10
5890.931874390326
 20
4067.784014973505
 30
0.0
 11
5931.794686286878
 21
4067.784014973505
 31
0.0
  0
LINE
  5
FD
330
17
100
AcDbEntity
  8
COTA
 62
4
370
25
100
AcDbLine
 10
5928.794686286878
 20
4286.784014973505
 30
0.0
 11
5928.794686286878
 21
4067.784014973505
 31
0.0
  0
LINE
  5
FE
330
17
100
AcDbEntity
  8
COTA
 62
0
370
25
100
AcDbLine
 10
5930.294686286878
 20
4285.284014973505
 30
0.0
 11
5927.294686286878
 21
4288.284014973505
 31
0.0
  0
LINE
  5
FF
330
17
100
AcDbEntity
  8
COTA
 62
0
370
25
100
AcDbLine
 10
5927.294686286878
 20
4069.284014973505
 30
0.0
 11
5930.294686286878
 21
4066.284014973505
 31
0.0
  0
LINE
  5
100
330
17
100
AcDbEntity
  8
COTA
 62
4
370
25
100
AcDbLine
 10
5890.931874390322
 20
4286.784014973505
 30
0.0
 11
5931.794686286885
 21
4286.784014973505
 31
0.0
  0
LINE
  5
101
330
17
100
AcDbEntity
  8
COTA
 62
4
370
25
100
AcDbLine
 10
5890.931874390322
 20
4409.784014973499
 30
0.0
 11
5931.794686286885
 21
4409.784014973499
 31
0.0
  0
LINE
  5
102
330
17
100
AcDbEntity
  8
COTA
 62
4
370
25
100
AcDbLine
 10
5928.794686286885
 20
4286.784014973505
 30
0.0
 11
5928.794686286885
 21
4409.784014973499
 31
0.0
  0
LINE
  5
103
330
17
100
AcDbEntity
  8
COTA
 62
0
370
25
100
AcDbLine
 10
5927.294686286885
 20
4288.284014973505
 30
0.0
 11
5930.294686286885
 21
4285.284014973505
 31
0.0
  0
LINE
  5
104
330
17
100
AcDbEntity
  8
COTA
 62
0
370
25
100
AcDbLine
 10
5930.294686286885
 20
4408.284014973499
 30
0.0
 11
5927.294686286885
 21
4411.284014973499
 31
0.0
  0
LINE
  5
105
330
17
100
AcDbEntity
  8
COTA
 62
4
370
25
100
AcDbLine
 10
5727.14818318434
 20
4409.784014973492
 30
0.0
 11
5768.010995080894
 21
4409.784014973492
 31
0.0
  0
LINE
  5
106
330
17
100
AcDbEntity
  8
COTA
 62
4
370
25
100
AcDbLine
 10
5727.14818318434
 20
4473.784014973499
 30
0.0
 11
5768.010995080894
 21
4473.784014973499
 31
0.0
  0
LINE
  5
107
330
17
100
AcDbEntity
  8
COTA
 62
4
370
25
100
AcDbLine
 10
5765.010995080894
 20
4409.784014973492
 30
0.0
 11
5765.010995080894
 21
4473.784014973499
 31
0.0
  0
LINE
  5
108
330
17
100
AcDbEntity
  8
COTA
 62
0
370
25
100
AcDbLine
 10
5763.510995080894
 20
4411.284014973492
 30
0.0
 11
5766.510995080894
 21
4408.284014973492
 31
0.0
  0
LINE
  5
109
330
17
100
AcDbEntity
  8
COTA
 62
0
370
25
100
AcDbLine
 10
5766.510995080894
 20
4472.284014973499
 30
0.0
 11
5763.510995080894
 21
4475.284014973499
 31
0.0
  0
LINE
  5
10A
330
17
100
AcDbEntity
  8
COTA
 62
4
370
25
100
AcDbLine
 10
5890.931874390326
 20
4409.784014973492
 30
0.0
 11
5931.794686286895
 21
4409.784014973492
 31
0.0
  0
LINE
  5
10B
330
17
100
AcDbEntity
  8
COTA
 62
4
370
25
100
AcDbLine
 10
5890.931874390326
 20
4473.784014973499
 30
0.0
 11
5931.794686286895
 21
4473.784014973499
 31
0.0
  0
LINE
  5
10C
330
17
100
AcDbEntity
  8
COTA
 62
4
370
25
100
AcDbLine
 10
5928.794686286895
 20
4409.784014973492
 30
0.0
 11
5928.794686286895
 21
4473.784014973499
 31
0.0
  0
LINE
  5
10D
330
17
100
AcDbEntity
  8
COTA
 62
0
370
25
100
AcDbLine
 10
5927.294686286895
 20
4411.284014973492
 30
0.0
 11
5930.294686286895
 21
4408.284014973492
 31
0.0
  0
LINE
  5
10E
330
17
100
AcDbEntity
  8
COTA
 62
0
370
25
100
AcDbLine
 10
5930.294686286895
 20
4472.284014973499
 30
0.0
 11
5927.294686286895
 21
4475.284014973499
 31
0.0
  0
LINE
  5
10F
330
17
100
AcDbEntity
  8
COTA
 62
180
370
25
100
AcDbLine
 10
4801.120824481346
 20
4486.901602075271
 30
0.0
 11
4820.120824481346
 21
4486.901602075271
 31
0.0
  0
LINE
  5
110
330
17
100
AcDbEntity
  8
COTA
 62
180
370
25
100
AcDbLine
 10
4820.120824481346
 20
4486.901602075271
 30
0.0
 11
4820.120824481346
 21
4501.901602075271
 31
0.0
  0
LINE
  5
111
330
17
100
AcDbEntity
  8
COTA
 62
180
370
25
100
AcDbLine
 10
4820.120824481346
 20
4501.901602075271
 30
0.0
 11
4801.120824481346
 21
4501.901602075271
 31
0.0
  0
LINE
  5
112
330
17
100
AcDbEntity
  8
COTA
 62
180
370
25
100
AcDbLine
 10
4801.120824481346
 20
4501.901602075271
 30
0.0
 11
4801.120824481346
 21
4486.901602075271
 31
0.0
  0
LINE
  5
113
330
17
100
AcDbEntity
  8
COTA
 62
241
370
25
100
AcDbLine
 10
4907.172502862362
 20
4511.447178196944
 30
0.0
 11
4907.172502862362
 21
4596.854194845175
 31
0.0
  0
LINE
  5
114
330
17
100
AcDbEntity
  8
COTA
 62
241
370
25
100
AcDbLine
 10
4743.172502907007
 20
4511.447178171914
 30
0.0
 11
4743.172502907007
 21
4596.854194845175
 31
0.0
  0
LINE
  5
115
330
17
100
AcDbEntity
  8
COTA
 62
241
370
25
100
AcDbLine
 10
4907.172502862362
 20
4593.854194845174
 30
0.0
 11
4743.172502907007
 21
4593.854194845174
 31
0.0
  0
LINE
  5
116
330
17
100
AcDbEntity
  8
COTA
 62
0
370
25
100
AcDbLine
 10
4905.672502862362
 20
4592.354194845174
 30
0.0
 11
4908.672502862362
 21
4595.354194845174
 31
0.0
  0
LINE
  5
117
330
17
100
AcDbEntity
  8
COTA
 62
0
370
25
100
AcDbLine
 10
4744.672502907007
 20
4595.354194845174
 30
0.0
 11
4741.672502907007
 21
4592.354194845174
 31
0.0
  0
LINE
  5
118
330
17
100
AcDbEntity
  8
COTA
 62
241
370
25
100
AcDbLine
 10
4907.172502862362
 20
4545.447178240949
 30
0.0
 11
4907.172502862362
 21
4573.172545734308
 31
0.0
  0
LINE
  5
119
330
17
100
AcDbEntity
  8
COTA
 62
241
370
25
100
AcDbLine
 10
4825.172502884685
 20
4557.247545446353
 30
0.0
 11
4825.172502884685
 21
4573.172545734308
 31
0.0
  0
LINE
  5
11A
330
17
100
AcDbEntity
  8
COTA
 62
241
370
25
100
AcDbLine
 10
4907.172502862362
 20
4570.172545734309
 30
0.0
 11
4825.172502884685
 21
4570.172545734309
 31
0.0
  0
LINE
  5
11B
330
17
100
AcDbEntity
  8
COTA
 62
0
370
25
100
AcDbLine
 10
4905.672502862362
 20
4568.672545734309
 30
0.0
 11
4908.672502862362
 21
4571.672545734309
 31
0.0
  0
LINE
  5
11C
330
17
100
AcDbEntity
  8
COTA
 62
0
370
25
100
AcDbLine
 10
4826.672502884685
 20
4571.672545734309
 30
0.0
 11
4823.672502884685
 21
4568.672545734309
 31
0.0
  0
LINE
  5
11D
330
17
100
AcDbEntity
  8
COTA
 62
241
370
25
100
AcDbLine
 10
4743.172502907007
 20
4545.447178240949
 30
0.0
 11
4743.172502907007
 21
4573.172545734279
 31
0.0
  0
LINE
  5
11E
330
17
100
AcDbEntity
  8
COTA
 62
241
370
25
100
AcDbLine
 10
4825.172502884685
 20
4557.247545446353
 30
0.0
 11
4825.172502884685
 21
4573.172545734279
 31
0.0
  0
LINE
  5
11F
330
17
100
AcDbEntity
  8
COTA
 62
241
370
25
100
AcDbLine
 10
4743.172502907007
 20
4570.17254573428
 30
0.0
 11
4825.172502884685
 21
4570.17254573428
 31
0.0
  0
LINE
  5
120
330
17
100
AcDbEntity
  8
COTA
 62
0
370
25
100
AcDbLine
 10
4744.672502907007
 20
4571.67254573428
 30
0.0
 11
4741.672502907007
 21
4568.67254573428
 31
0.0
  0
LINE
  5
121
330
17
100
AcDbEntity
  8
COTA
 62
0
370
25
100
AcDbLine
 10
4823.672502884685
 20
4568.67254573428
 30
0.0
 11
4826.672502884685
 21
4571.67254573428
 31
0.0
  0
LINE
  5
122
330
17
100
AcDbEntity
  8
COTA
 62
180
370
25
100
AcDbLine
 10
4881.172502886809
 20
4469.433549537844
 30
0.0
 11
4881.172502886809
 21
4487.433549537843
 31
0.0
  0
LINE
  5
123
330
17
100
AcDbEntity
  8
COTA
 62
180
370
25
100
AcDbLine
 10
4881.172502886809
 20
4487.433549537843
 30
0.0
 11
4866.17250288681
 21
4487.433549537843
 31
0.0
  0
LINE
  5
124
330
17
100
AcDbEntity
  8
COTA
 62
180
370
25
100
AcDbLine
 10
4866.17250288681
 20
4487.433549537843
 30
0.0
 11
4866.17250288681
 21
4469.433549537844
 31
0.0
  0
LINE
  5
125
330
17
100
AcDbEntity
  8
COTA
 62
180
370
25
100
AcDbLine
 10
4866.17250288681
 20
4469.433549537844
 30
0.0
 11
4881.172502886809
 21
4469.433549537844
 31
0.0
  0
LINE
  5
126
330
17
100
AcDbEntity
  8
COTA
 62
241
370
25
100
AcDbLine
 10
4907.172502862362
 20
4445.447178282451
 30
0.0
 11
4907.172502862362
 21
4384.88579849495
 31
0.0
  0
LINE
  5
127
330
17
100
AcDbEntity
  8
COTA
 62
241
370
25
100
AcDbLine
 10
4743.172502907007
 20
4445.447178282451
 30
0.0
 11
4743.172502907007
 21
4384.88579849495
 31
0.0
  0
LINE
  5
128
330
17
100
AcDbEntity
  8
COTA
 62
241
370
25
100
AcDbLine
 10
4907.172502862362
 20
4387.885798494949
 30
0.0
 11
4743.172502907007
 21
4387.885798494949
 31
0.0
  0
LINE
  5
129
330
17
100
AcDbEntity
  8
COTA
 62
0
370
25
100
AcDbLine
 10
4905.672502862362
 20
4386.385798494949
 30
0.0
 11
4908.672502862362
 21
4389.385798494949
 31
0.0
  0
LINE
  5
12A
330
17
100
AcDbEntity
  8
COTA
 62
0
370
25
100
AcDbLine
 10
4744.672502907007
 20
4389.385798494949
 30
0.0
 11
4741.672502907007
 21
4386.385798494949
 31
0.0
  0
LINE
  5
12B
330
17
100
AcDbEntity
  8
COTA
 62
241
370
25
100
AcDbLine
 10
4743.194863726836
 20
4445.435565976568
 30
0.0
 11
4743.194863726836
 21
4409.818552952762
 31
0.0
  0
LINE
  5
12C
330
17
100
AcDbEntity
  8
COTA
 62
241
370
25
100
AcDbLine
 10
4799.187916321956
 20
4445.435565976568
 30
0.0
 11
4799.187916321956
 21
4409.818552952762
 31
0.0
  0
LINE
  5
12D
330
17
100
AcDbEntity
  8
COTA
 62
241
370
25
100
AcDbLine
 10
4743.194863726836
 20
4412.818552952762
 30
0.0
 11
4799.187916321956
 21
4412.818552952762
 31
0.0
  0
LINE
  5
12E
330
17
100
AcDbEntity
  8
COTA
 62
0
370
25
100
AcDbLine
 10
4744.694863726836
 20
4414.318552952762
 30
0.0
 11
4741.694863726836
 21
4411.318552952762
 31
0.0
  0
LINE
  5
12F
330
17
100
AcDbEntity
  8
COTA
 62
0
370
25
100
AcDbLine
 10
4797.687916321956
 20
4411.318552952762
 30
0.0
 11
4800.687916321956
 21
4414.318552952762
 31
0.0
  0
LINE
  5
130
330
17
100
AcDbEntity
  8
COTA
 62
241
370
25
100
AcDbLine
 10
4799.187916310129
 20
4445.435565976576
 30
0.0
 11
4799.187916310129
 21
4409.818552953431
 31
0.0
  0
LINE
  5
131
330
17
100
AcDbEntity
  8
COTA
 62
241
370
25
100
AcDbLine
 10
4851.187841086051
 20
4445.435566040916
 30
0.0
 11
4851.187841086051
 21
4409.818552953431
 31
0.0
  0
LINE
  5
132
330
17
100
AcDbEntity
  8
COTA
 62
241
370
25
100
AcDbLine
 10
4799.187916310129
 20
4412.818552953431
 30
0.0
 11
4851.187841086051
 21
4412.818552953431
 31
0.0
  0
LINE
  5
133
330
17
100
AcDbEntity
  8
COTA
 62
0
370
25
100
AcDbLine
 10
4800.687916310129
 20
4414.318552953431
 30
0.0
 11
4797.687916310129
 21
4411.318552953431
 31
0.0
  0
LINE
  5
134
330
17
100
AcDbEntity
  8
COTA
 62
0
370
25
100
AcDbLine
 10
4849.687841086051
 20
4411.318552953431
 30
0.0
 11
4852.687841086051
 21
4414.318552953431
 31
0.0
  0
LINE
  5
135
330
17
100
AcDbEntity
  8
COTA
 62
241
370
25
100
AcDbLine
 10
4851.187841086051
 20
4445.435566040916
 30
0.0
 11
4851.187841086051
 21
4409.818552953314
 31
0.0
  0
LINE
  5
136
330
17
100
AcDbEntity
  8
COTA
 62
241
370
25
100
AcDbLine
 10
4907.187874842974
 20
4445.435565976597
 30
0.0
 11
4907.187874842974
 21
4409.818552953314
 31
0.0
  0
LINE
  5
137
330
17
100
AcDbEntity
  8
COTA
 62
241
370
25
100
AcDbLine
 10
4851.187841086051
 20
4412.818552953314
 30
0.0
 11
4907.187874842974
 21
4412.818552953314
 31
0.0
  0
LINE
  5
138
330
17
100
AcDbEntity
  8
COTA
 62
0
370
25
100
AcDbLine
 10
4852.687841086051
 20
4414.318552953314
 30
0.0
 11
4849.687841086051
 21
4411.318552953314
 31
0.0
  0
LINE
  5
139
330
17
100
AcDbEntity
  8
COTA
 62
0
370
25
100
AcDbLine
 10
4905.687874842974
 20
4411.318552953314
 30
0.0
 11
4908.687874842974
 21
4414.318552953314
 31
0.0
  0
LINE
  5
13A
330
17
100
AcDbEntity
  8
COTA
 62
4
370
25
100
AcDbLine
 10
5344.569130296083
 20
4286.784014973957
 30
0.0
 11
5364.873955299448
 21
4286.784014973957
 31
0.0
  0
LINE
  5
13B
330
17
100
AcDbEntity
  8
COTA
 62
4
370
25
100
AcDbLine
 10
5344.569130296602
 20
4329.784014973957
 30
0.0
 11
5364.873955299448
 21
4329.784014973957
 31
0.0
  0
LINE
  5
13C
330
17
100
AcDbEntity
  8
COTA
 62
4
370
25
100
AcDbLine
 10
5361.873955299448
 20
4286.784014973957
 30
0.0
 11
5361.873955299448
 21
4329.784014973957
 31
0.0
  0
LINE
  5
13D
330
17
100
AcDbEntity
  8
COTA
 62
0
370
25
100
AcDbLine
 10
5360.373955299448
 20
4288.284014973957
 30
0.0
 11
5363.373955299448
 21
4285.284014973957
 31
0.0
  0
LINE
  5
13E
330
17
100
AcDbEntity
  8
COTA
 62
0
370
25
100
AcDbLine
 10
5363.373955299448
 20
4328.284014973957
 30
0.0
 11
5360.373955299448
 21
4331.284014973957
 31
0.0
  0
LINE
  5
13F
330
17
100
AcDbEntity
  8
COTA
 62
4
370
25
100
AcDbLine
 10
5344.569130296602
 20
4329.784014973957
 30
0.0
 11
5392.932581384355
 21
4329.784014973957
 31
0.0
  0
LINE
  5
140
330
17
100
AcDbEntity
  8
COTA
 62
4
370
25
100
AcDbLine
 10
5344.569130296534
 20
4409.784014973994
 30
0.0
 11
5392.932581384355
 21
4409.784014973994
 31
0.0
  0
LINE
  5
141
330
17
100
AcDbEntity
  8
COTA
 62
4
370
25
100
AcDbLine
 10
5389.932581384355
 20
4329.784014973957
 30
0.0
 11
5389.932581384355
 21
4409.784014973994
 31
0.0
  0
LINE
  5
142
330
17
100
AcDbEntity
  8
COTA
 62
0
370
25
100
AcDbLine
 10
5388.432581384355
 20
4331.284014973957
 30
0.0
 11
5391.432581384355
 21
4328.284014973957
 31
0.0
  0
LINE
  5
143
330
17
100
AcDbEntity
  8
COTA
 62
0
370
25
100
AcDbLine
 10
5391.432581384355
 20
4408.284014973994
 30
0.0
 11
5388.432581384355
 21
4411.284014973994
 31
0.0
  0
LINE
  5
144
330
17
100
AcDbEntity
  8
COTA
 62
4
370
25
100
AcDbLine
 10
5344.5691302966
 20
4329.784014973957
 30
0.0
 11
5392.932581384424
 21
4329.784014973957
 31
0.0
  0
LINE
  5
145
330
17
100
AcDbEntity
  8
COTA
 62
4
370
25
100
AcDbLine
 10
5344.569130296821
 20
4189.784014973957
 30
0.0
 11
5392.932581384424
 21
4189.784014973957
 31
0.0
  0
LINE
  5
146
330
17
100
AcDbEntity
  8
COTA
 62
4
370
25
100
AcDbLine
 10
5389.932581384424
 20
4329.784014973957
 30
0.0
 11
5389.932581384424
 21
4189.784014973957
 31
0.0
  0
LINE
  5
147
330
17
100
AcDbEntity
  8
COTA
 62
0
370
25
100
AcDbLine
 10
5391.432581384424
 20
4328.284014973957
 30
0.0
 11
5388.432581384424
 21
4331.284014973957
 31
0.0
  0
LINE
  5
148
330
17
100
AcDbEntity
  8
COTA
 62
0
370
25
100
AcDbLine
 10
5388.432581384424
 20
4191.284014973957
 30
0.0
 11
5391.432581384424
 21
4188.284014973957
 31
0.0
  0
LINE
  5
149
330
17
100
AcDbEntity
  8
COTA
 62
4
370
25
100
AcDbLine
 10
5581.081256624692
 20
4286.784014973957
 30
0.0
 11
5601.386081628062
 21
4286.784014973957
 31
0.0
  0
LINE
  5
14A
330
17
100
AcDbEntity
  8
COTA
 62
4
370
25
100
AcDbLine
 10
5581.081256625212
 20
4329.784014973957
 30
0.0
 11
5601.386081628062
 21
4329.784014973957
 31
0.0
  0
LINE
  5
14B
330
17
100
AcDbEntity
  8
COTA
 62
4
370
25
100
AcDbLine
 10
5598.386081628063
 20
4286.784014973957
 30
0.0
 11
5598.386081628063
 21
4329.784014973957
 31
0.0
  0
LINE
  5
14C
330
17
100
AcDbEntity
  8
COTA
 62
0
370
25
100
AcDbLine
 10
5596.886081628063
 20
4288.284014973957
 30
0.0
 11
5599.886081628063
 21
4285.284014973957
 31
0.0
  0
LINE
  5
14D
330
17
100
AcDbEntity
  8
COTA
 62
0
370
25
100
AcDbLine
 10
5599.886081628063
 20
4328.284014973957
 30
0.0
 11
5596.886081628063
 21
4331.284014973957
 31
0.0
  0
LINE
  5
14E
330
17
100
AcDbEntity
  8
COTA
 62
4
370
25
100
AcDbLine
 10
5581.081256625212
 20
4329.784014973957
 30
0.0
 11
5629.444707712969
 21
4329.784014973957
 31
0.0
  0
LINE
  5
14F
330
17
100
AcDbEntity
  8
COTA
 62
4
370
25
100
AcDbLine
 10
5581.081256625143
 20
4409.784014973994
 30
0.0
 11
5629.444707712969
 21
4409.784014973994
 31
0.0
  0
LINE
  5
150
330
17
100
AcDbEntity
  8
COTA
 62
4
370
25
100
AcDbLine
 10
5626.444707712969
 20
4329.784014973957
 30
0.0
 11
5626.444707712969
 21
4409.784014973994
 31
0.0
  0
LINE
  5
151
330
17
100
AcDbEntity
  8
COTA
 62
0
370
25
100
AcDbLine
 10
5624.944707712969
 20
4331.284014973957
 30
0.0
 11
5627.944707712969
 21
4328.284014973957
 31
0.0
  0
LINE
  5
152
330
17
100
AcDbEntity
  8
COTA
 62
0
370
25
100
AcDbLine
 10
5627.944707712969
 20
4408.284014973994
 30
0.0
 11
5624.944707712969
 21
4411.284014973994
 31
0.0
  0
LINE
  5
153
330
17
100
AcDbEntity
  8
COTA
 62
4
370
25
100
AcDbLine
 10
5581.081256625211
 20
4329.784014973957
 30
0.0
 11
5629.444707713037
 21
4329.784014973957
 31
0.0
  0
LINE
  5
154
330
17
100
AcDbEntity
  8
COTA
 62
4
370
25
100
AcDbLine
 10
5581.081256625431
 20
4189.784014973957
 30
0.0
 11
5629.444707713037
 21
4189.784014973957
 31
0.0
  0
LINE
  5
155
330
17
100
AcDbEntity
  8
COTA
 62
4
370
25
100
AcDbLine
 10
5626.444707713037
 20
4329.784014973957
 30
0.0
 11
5626.444707713037
 21
4189.784014973957
 31
0.0
  0
LINE
  5
156
330
17
100
AcDbEntity
  8
COTA
 62
0
370
25
100
AcDbLine
 10
5627.944707713037
 20
4328.284014973957
 30
0.0
 11
5624.944707713037
 21
4331.284014973957
 31
0.0
  0
LINE
  5
157
330
17
100
AcDbEntity
  8
COTA
 62
0
370
25
100
AcDbLine
 10
5624.944707713037
 20
4191.284014973957
 30
0.0
 11
5627.944707713037
 21
4188.284014973957
 31
0.0
  0
LINE
  5
158
330
17
100
AcDbEntity
  8
Texto Seção
 62
252
370
15
100
AcDbLine
 10
4822.172502884685
 20
4611.500880293652
 30
0.0
 11
4822.172502884685
 21
4736.500880293652
 31
0.0
  0
LINE
  5
159
330
17
100
AcDbEntity
  8
Hachura
 62
0
370
9
100
AcDbLine
 10
4910.206455706598
 20
4552.443476290874
 30
0.0
 11
4910.206455706598
 21
4553.088398745708
 31
0.0
  0
LINE
  5
15A
330
17
100
AcDbEntity
  8
Hachura
 62
0
370
9
100
AcDbLine
 10
4910.206455706598
 20
4553.604336705289
 30
0.0
 11
4908.271688342095
 21
4552.636953023035
 31
0.0
  0
LINE
  5
15B
330
17
100
AcDbEntity
  8
Hachura
 62
0
370
9
100
AcDbLine
 10
4910.279139037444
 20
4553.511693864736
 30
0.0
 11
4908.113526279886
 21
4552.428887528836
 31
0.0
  0
LINE
  5
15C
330
17
100
AcDbEntity
  8
Hachura
 62
0
370
9
100
AcDbLine
 10
4908.1719641703085
 20
4552.200137451378
 30
0.0
 11
4910.312541838974
 21
4553.27042630715
 31
0.0
  0
LINE
  5
15D
330
17
100
AcDbEntity
  8
Hachura
 62
0
370
9
100
AcDbLine
 10
4908.271688342095
 20
4552.12101506346
 30
0.0
 11
4910.206455706598
 21
4553.088398745708
 31
0.0
  0
LINE
  5
15E
330
17
100
AcDbEntity
  8
Hachura
 62
0
370
9
100
AcDbLine
 10
4908.271688342095
 20
4551.476092608626
 30
0.0
 11
4908.271688342095
 21
4552.12101506346
 31
0.0
  0
LINE
  5
15F
330
17
100
AcDbEntity
  8
Hachura
 62
0
370
9
100
AcDbLine
 10
4908.271688342095
 20
4549.7992942239125
 30
0.0
 11
4908.271688342095
 21
4549.154371769078
 31
0.0
  0
LINE
  5
160
330
17
100
AcDbEntity
  8
Hachura
 62
0
370
9
100
AcDbLine
 10
4908.271688342095
 20
4550.748299989207
 30
0.0
 11
4908.271688342095
 21
4550.960154638323
 31
0.0
  0
LINE
  5
161
330
17
100
AcDbEntity
  8
Hachura
 62
0
370
9
100
AcDbLine
 10
4908.271688342095
 20
4550.748299989207
 30
0.0
 11
4908.271688342095
 21
4550.315232183493
 31
0.0
  0
LINE
  5
162
330
17
100
AcDbEntity
  8
Hachura
 62
0
370
9
100
AcDbLine
 10
4910.206455706598
 20
4551.282615865743
 30
0.0
 11
4910.206455706598
 21
4551.927538320577
 31
0.0
  0
LINE
  5
163
330
17
100
AcDbEntity
  8
Hachura
 62
0
370
9
100
AcDbLine
 10
4910.206455706598
 20
4550.121755451328
 30
0.0
 11
4910.206455706598
 21
4550.766677906162
 31
0.0
  0
LINE
  5
164
330
17
100
AcDbEntity
  8
Hachura
 62
0
370
9
100
AcDbLine
 10
4910.206455706598
 20
4552.443476290874
 30
0.0
 11
4908.271688342095
 21
4551.476092608626
 31
0.0
  0
LINE
  5
165
330
17
100
AcDbEntity
  8
Hachura
 62
0
370
9
100
AcDbLine
 10
4910.279139037444
 20
4552.350833439605
 30
0.0
 11
4908.113526279886
 21
4551.268027103704
 31
0.0
  0
LINE
  5
166
330
17
100
AcDbEntity
  8
Hachura
 62
0
370
9
100
AcDbLine
 10
4908.1719641703085
 20
4551.039277036968
 30
0.0
 11
4910.312541838974
 21
4552.109565882018
 31
0.0
  0
LINE
  5
167
330
17
100
AcDbEntity
  8
Hachura
 62
0
370
9
100
AcDbLine
 10
4908.271688342095
 20
4550.960154638323
 30
0.0
 11
4910.206455706598
 21
4551.927538320577
 31
0.0
  0
LINE
  5
168
330
17
100
AcDbEntity
  8
Hachura
 62
0
370
9
100
AcDbLine
 10
4910.206455706598
 20
4550.121755451328
 30
0.0
 11
4908.271688342095
 21
4549.154371769078
 31
0.0
  0
LINE
  5
169
330
17
100
AcDbEntity
  8
Hachura
 62
0
370
9
100
AcDbLine
 10
4910.206455706598
 20
4551.282615865743
 30
0.0
 11
4908.271688342095
 21
4550.315232183493
 31
0.0
  0
LINE
  5
16A
330
17
100
AcDbEntity
  8
Hachura
 62
0
370
9
100
AcDbLine
 10
4910.279139037444
 20
4551.18997302519
 30
0.0
 11
4908.113526279886
 21
4550.107166689289
 31
0.0
  0
LINE
  5
16B
330
17
100
AcDbEntity
  8
Hachura
 62
0
370
9
100
AcDbLine
 10
4908.1719641703085
 20
4549.878416622554
 30
0.0
 11
4910.312541838974
 21
4550.948705467604
 31
0.0
  0
LINE
  5
16C
330
17
100
AcDbEntity
  8
Hachura
 62
0
370
9
100
AcDbLine
 10
4908.271688342095
 20
4549.7992942239125
 30
0.0
 11
4910.206455706598
 21
4550.766677906162
 31
0.0
  0
LINE
  5
16D
330
17
100
AcDbEntity
  8
Hachura
 62
0
370
9
100
AcDbLine
 10
4908.52945001253
 20
4553.926694294108
 30
0.0
 11
4908.271688342095
 21
4553.79781343745
 31
0.0
  0
LINE
  5
16E
330
17
100
AcDbEntity
  8
Hachura
 62
0
370
9
100
AcDbLine
 10
4908.78741900304
 20
4553.926694294108
 30
0.0
 11
4908.113526279886
 21
4553.589747932529
 31
0.0
  0
LINE
  5
16F
330
17
100
AcDbEntity
  8
Hachura
 62
0
370
9
100
AcDbLine
 10
4908.273480127816
 20
4553.9250841975245
 30
0.0
 11
4908.595941355233
 21
4554.247545446383
 31
0.0
  0
LINE
  5
170
330
17
100
AcDbEntity
  8
Hachura
 62
0
370
9
100
AcDbLine
 10
4908.271688342095
 20
4553.281875477869
 30
0.0
 11
4908.271688342095
 21
4552.636953023035
 31
0.0
  0
LINE
  5
171
330
17
100
AcDbEntity
  8
Hachura
 62
0
370
9
100
AcDbLine
 10
4910.206455706598
 20
4553.604336705289
 30
0.0
 11
4910.206455706598
 21
4553.926694294108
 31
0.0
  0
LINE
  5
172
330
17
100
AcDbEntity
  8
Hachura
 62
0
370
9
100
AcDbLine
 10
4910.208332993089
 20
4553.925084218963
 30
0.0
 11
4909.885786264901
 21
4554.247545446383
 31
0.0
  0
LINE
  5
173
330
17
100
AcDbEntity
  8
Hachura
 62
0
370
9
100
AcDbLine
 10
4910.206455706598
 20
4551.715683660739
 30
0.0
 11
4910.206455706598
 21
4551.927538309855
 31
0.0
  0
LINE
  5
174
330
17
100
AcDbEntity
  8
Hachura
 62
0
370
9
100
AcDbLine
 10
4908.1719641703085
 20
4553.360997865793
 30
0.0
 11
4909.303356984057
 21
4553.926694294108
 31
0.0
  0
LINE
  5
175
330
17
100
AcDbEntity
  8
Hachura
 62
0
370
9
100
AcDbLine
 10
4908.271688342095
 20
4553.281875477869
 30
0.0
 11
4909.561325931688
 21
4553.926694294108
 31
0.0
  0
LINE
  5
176
330
17
100
AcDbEntity
  8
Hachura
 62
0
370
9
100
AcDbLine
 10
4909.885786264901
 20
4554.247545446383
 30
0.0
 11
4908.595941355233
 21
4554.247545446383
 31
0.0
  0
LINE
  5
177
330
17
100
AcDbEntity
  8
Hachura
 62
0
370
9
100
AcDbLine
 10
4910.206455706598
 20
4553.604336705289
 30
0.0
 11
4908.271688342095
 21
4552.636953023035
 31
0.0
  0
LINE
  5
178
330
17
100
AcDbEntity
  8
Hachura
 62
0
370
9
100
AcDbLine
 10
4908.273480127816
 20
4553.9250841975245
 30
0.0
 11
4910.208247492318
 21
4553.9250841975245
 31
0.0
  0
LINE
  5
179
330
17
100
AcDbEntity
  8
Hachura
 62
0
370
9
100
AcDbLine
 10
4903.678124849971
 20
4542.447178240949
 30
0.0
 11
4911.492786594602
 21
4542.447178240949
 31
0.0
  0
LINE
  5
17A
330
17
100
AcDbEntity
  8
Hachura
 62
0
370
9
100
AcDbLine
 10
4907.497781370568
 20
4549.154371769078
 30
0.0
 11
4910.851378161432
 21
4549.154371769078
 31
0.0
  0
LINE
  5
17B
330
17
100
AcDbEntity
  8
Hachura
 62
0
370
9
100
AcDbLine
 10
4907.497781370568
 20
4549.08665491175
 30
0.0
 11
4910.851378161432
 21
4549.08665491175
 31
0.0
  0
LINE
  5
17C
330
17
100
AcDbEntity
  8
Hachura
 62
0
370
9
100
AcDbLine
 10
4911.1093471090635
 20
4545.929759494909
 30
0.0
 11
4907.2398123800585
 21
4545.929759494909
 31
0.0
  0
LINE
  5
17D
330
17
100
AcDbEntity
  8
Hachura
 62
0
370
9
100
AcDbLine
 10
4915.6238042929
 20
4543.350069675574
 30
0.0
 11
4902.725355196221
 21
4543.350069675574
 31
0.0
  0
LINE
  5
17E
330
17
100
AcDbEntity
  8
Hachura
 62
0
370
9
100
AcDbLine
 10
4902.725355196221
 20
4542.447178240949
 30
0.0
 11
4915.620262528507
 21
4542.447178240949
 31
0.0
  0
LINE
  5
17F
330
17
100
AcDbEntity
  8
Hachura
 62
0
370
9
100
AcDbLine
 10
4909.819502199395
 20
4549.154371769078
 30
0.0
 11
4909.819502199395
 21
4545.929759494909
 31
0.0
  0
LINE
  5
180
330
17
100
AcDbEntity
  8
Hachura
 62
0
370
9
100
AcDbLine
 10
4910.851378161432
 20
4549.154371769078
 30
0.0
 11
4910.851378161432
 21
4545.929759494909
 31
0.0
  0
LINE
  5
181
330
17
100
AcDbEntity
  8
Hachura
 62
0
370
9
100
AcDbLine
 10
4909.174579744561
 20
4543.350069675574
 30
0.0
 11
4911.1093471090635
 21
4543.350069675574
 31
0.0
  0
LINE
  5
182
330
17
100
AcDbEntity
  8
Hachura
 62
0
370
9
100
AcDbLine
 10
4910.464424654229
 20
4543.350069675574
 30
0.0
 11
4909.819502199395
 21
4543.350069675574
 31
0.0
  0
LINE
  5
183
330
17
100
AcDbEntity
  8
Hachura
 62
0
370
9
100
AcDbLine
 10
4909.180220106922
 20
4543.350069675574
 30
0.0
 11
4909.180220106922
 21
4542.447178240949
 31
0.0
  0
LINE
  5
184
330
17
100
AcDbEntity
  8
Hachura
 62
0
370
9
100
AcDbLine
 10
4909.486761798271
 20
4543.350069675574
 30
0.0
 11
4909.486761798271
 21
4545.349228865031
 31
0.0
  0
LINE
  5
185
330
17
100
AcDbEntity
  8
Hachura
 62
0
370
9
100
AcDbLine
 10
4908.970823817252
 20
4545.349228865031
 30
0.0
 11
4908.970823817252
 21
4543.350069675574
 31
0.0
  0
LINE
  5
186
330
17
100
AcDbEntity
  8
Hachura
 62
0
370
9
100
AcDbLine
 10
4912.214456368293
 20
4543.368344232641
 30
0.0
 11
4912.214456368293
 21
4542.441121557559
 31
0.0
  0
LINE
  5
187
330
17
100
AcDbEntity
  8
Hachura
 62
0
370
9
100
AcDbLine
 10
4910.134195377309
 20
4542.597224118872
 30
0.0
 11
4910.134195377309
 21
4543.030291924591
 31
0.0
  0
LINE
  5
188
330
17
100
AcDbEntity
  8
Hachura
 62
0
370
9
100
AcDbLine
 10
4911.1093471090635
 20
4543.350069675574
 30
0.0
 11
4911.1093471090635
 21
4545.929759494909
 31
0.0
  0
LINE
  5
189
330
17
100
AcDbEntity
  8
Hachura
 62
0
370
9
100
AcDbLine
 10
4910.134195377309
 20
4543.030291924591
 30
0.0
 11
4910.134195377309
 21
4543.242146573706
 31
0.0
  0
LINE
  5
18A
330
17
100
AcDbEntity
  8
Hachura
 62
0
370
9
100
AcDbLine
 10
4915.620262528507
 20
4542.447178240949
 30
0.0
 11
4915.620262528507
 21
4547.583846823035
 31
0.0
  0
LINE
  5
18B
330
17
100
AcDbEntity
  8
Hachura
 62
0
370
9
100
AcDbLine
 10
4913.947005918907
 20
4547.6065578796215
 30
0.0
 11
4913.3653458448525
 21
4545.396249561768
 31
0.0
  0
LINE
  5
18C
330
17
100
AcDbEntity
  8
Hachura
 62
0
370
9
100
AcDbLine
 10
4915.6238042929
 20
4547.6065578796215
 30
0.0
 11
4913.947005918907
 21
4547.6065578796215
 31
0.0
  0
LINE
  5
18D
330
17
100
AcDbEntity
  8
Hachura
 62
0
370
9
100
AcDbLine
 10
4913.053501806479
 20
4545.155852555539
 30
0.0
 11
4911.1093471090635
 21
4545.155852555539
 31
0.0
  0
LINE
  5
18E
330
17
100
AcDbEntity
  8
Hachura
 62
0
370
9
100
AcDbLine
 10
4915.6238042929
 20
4543.350069675574
 30
0.0
 11
4910.464424654229
 21
4543.350069675574
 31
0.0
  0
LINE
  5
18F
330
17
100
AcDbEntity
  8
Hachura
 62
0
370
9
100
AcDbLine
 10
4904.402153613092
 20
4547.6065578796215
 30
0.0
 11
4904.983813687147
 21
4545.396249561768
 31
0.0
  0
LINE
  5
190
330
17
100
AcDbEntity
  8
Hachura
 62
0
370
9
100
AcDbLine
 10
4907.497781370568
 20
4545.929759494909
 30
0.0
 11
4907.497781370568
 21
4549.154371769078
 31
0.0
  0
LINE
  5
191
330
17
100
AcDbEntity
  8
Hachura
 62
0
370
9
100
AcDbLine
 10
4908.271688342095
 20
4549.154371769078
 30
0.0
 11
4908.271688342095
 21
4545.929759494909
 31
0.0
  0
LINE
  5
192
330
17
100
AcDbEntity
  8
Hachura
 62
0
370
9
100
AcDbLine
 10
4906.148441774083
 20
4543.368344232641
 30
0.0
 11
4906.148441774083
 21
4542.447178240949
 31
0.0
  0
LINE
  5
193
330
17
100
AcDbEntity
  8
Hachura
 62
0
370
9
100
AcDbLine
 10
4908.1994280128065
 20
4543.223768656753
 30
0.0
 11
4908.1994280128065
 21
4542.790700861755
 31
0.0
  0
LINE
  5
194
330
17
100
AcDbEntity
  8
Hachura
 62
0
370
9
100
AcDbLine
 10
4904.716188169218
 20
4543.368344232641
 30
0.0
 11
4904.716188169218
 21
4542.441121557559
 31
0.0
  0
LINE
  5
195
330
17
100
AcDbEntity
  8
Hachura
 62
0
370
9
100
AcDbLine
 10
4907.2398123800585
 20
4545.929759494909
 30
0.0
 11
4907.2398123800585
 21
4543.350069675574
 31
0.0
  0
LINE
  5
196
330
17
100
AcDbEntity
  8
Hachura
 62
0
370
9
100
AcDbLine
 10
4907.2398123800585
 20
4545.929759494909
 30
0.0
 11
4907.497781370568
 21
4545.929759494909
 31
0.0
  0
LINE
  5
197
330
17
100
AcDbEntity
  8
Hachura
 62
0
370
9
100
AcDbLine
 10
4907.2398123800585
 20
4545.929759494909
 30
0.0
 11
4907.497781370568
 21
4545.929759494909
 31
0.0
  0
LINE
  5
198
330
17
100
AcDbEntity
  8
Hachura
 62
0
370
9
100
AcDbLine
 10
4905.295657725523
 20
4545.155852555539
 30
0.0
 11
4907.243694303737
 21
4545.155852555539
 31
0.0
  0
LINE
  5
199
330
17
100
AcDbEntity
  8
Hachura
 62
0
370
9
100
AcDbLine
 10
4902.725355196221
 20
4543.350069675574
 30
0.0
 11
4902.725355196221
 21
4547.6065578796215
 31
0.0
  0
LINE
  5
19A
330
17
100
AcDbEntity
  8
Hachura
 62
0
370
9
100
AcDbLine
 10
4902.725355196221
 20
4543.350069675574
 30
0.0
 11
4902.725355196221
 21
4542.447178240949
 31
0.0
  0
LINE
  5
19B
330
17
100
AcDbEntity
  8
Hachura
 62
0
370
9
100
AcDbLine
 10
4903.873686253016
 20
4543.368344232641
 30
0.0
 11
4903.873686253016
 21
4542.441121557559
 31
0.0
  0
LINE
  5
19C
330
17
100
AcDbEntity
  8
Hachura
 62
0
370
9
100
AcDbLine
 10
4903.410310021157
 20
4543.368344232641
 30
0.0
 11
4903.410310021157
 21
4542.441121557559
 31
0.0
  0
LINE
  5
19D
330
17
100
AcDbEntity
  8
Hachura
 62
0
370
9
100
AcDbLine
 10
4903.0733092889795
 20
4543.368344232641
 30
0.0
 11
4903.0733092889795
 21
4542.441121557559
 31
0.0
  0
LINE
  5
19E
330
17
100
AcDbEntity
  8
Hachura
 62
0
370
9
100
AcDbLine
 10
4902.8626835419345
 20
4543.368344232641
 30
0.0
 11
4902.8626835419345
 21
4542.441121557559
 31
0.0
  0
LINE
  5
19F
330
17
100
AcDbEntity
  8
Hachura
 62
0
370
9
100
AcDbLine
 10
4902.725355196221
 20
4547.6065578796215
 30
0.0
 11
4904.402153613092
 21
4547.6065578796215
 31
0.0
  0
LINE
  5
1A0
330
17
100
AcDbEntity
  8
Hachura
 62
0
370
9
100
AcDbLine
 10
4909.045595289606
 20
4549.154371769078
 30
0.0
 11
4910.312541842572
 21
4549.787845051905
 31
0.0
  0
LINE
  5
1A1
330
17
100
AcDbEntity
  8
Hachura
 62
0
370
9
100
AcDbLine
 10
4909.303564267425
 20
4549.154371769078
 30
0.0
 11
4910.206455710196
 21
4549.605817490464
 31
0.0
  0
LINE
  5
1A2
330
17
100
AcDbEntity
  8
Hachura
 62
0
370
9
100
AcDbLine
 10
4910.206455710197
 20
4549.154371769078
 30
0.0
 11
4910.206455710197
 21
4549.605817490464
 31
0.0
  0
LINE
  5
1A3
330
17
100
AcDbEntity
  8
Hachura
 62
0
370
9
100
AcDbLine
 10
4913.62942955551
 20
4543.368344232641
 30
0.0
 11
4913.62942955551
 21
4542.441121557559
 31
0.0
  0
LINE
  5
1A4
330
17
100
AcDbEntity
  8
Hachura
 62
0
370
9
100
AcDbLine
 10
4914.471931471712
 20
4543.368344232641
 30
0.0
 11
4914.471931471712
 21
4542.441121557559
 31
0.0
  0
LINE
  5
1A5
330
17
100
AcDbEntity
  8
Hachura
 62
0
370
9
100
AcDbLine
 10
4914.935307703571
 20
4543.368344232641
 30
0.0
 11
4914.935307703571
 21
4542.441121557559
 31
0.0
  0
LINE
  5
1A6
330
17
100
AcDbEntity
  8
Hachura
 62
0
370
9
100
AcDbLine
 10
4915.2723084357485
 20
4543.368344232641
 30
0.0
 11
4915.2723084357485
 21
4542.441121557559
 31
0.0
  0
LINE
  5
1A7
330
17
100
AcDbEntity
  8
Hachura
 62
0
370
9
100
AcDbLine
 10
4915.4829341827935
 20
4543.368344232641
 30
0.0
 11
4915.4829341827935
 21
4542.441121557559
 31
0.0
  0
LINE
  5
1A8
330
17
100
AcDbEntity
  8
Hachura
 62
0
370
9
100
AcDbLine
 10
4910.20583344246
 20
4418.450880268906
 30
0.0
 11
4910.20583344246
 21
4417.805957814072
 31
0.0
  0
LINE
  5
1A9
330
17
100
AcDbEntity
  8
Hachura
 62
0
370
9
100
AcDbLine
 10
4910.20583344246
 20
4417.290019854491
 30
0.0
 11
4908.271066077958
 21
4418.257403536745
 31
0.0
  0
LINE
  5
1AA
330
17
100
AcDbEntity
  8
Hachura
 62
0
370
9
100
AcDbLine
 10
4910.278516773306
 20
4417.382662695044
 30
0.0
 11
4908.112904015748
 21
4418.465469030944
 31
0.0
  0
LINE
  5
1AB
330
17
100
AcDbEntity
  8
Hachura
 62
0
370
9
100
AcDbLine
 10
4908.171341906171
 20
4418.694219108402
 30
0.0
 11
4910.311919574836
 21
4417.62393025263
 31
0.0
  0
LINE
  5
1AC
330
17
100
AcDbEntity
  8
Hachura
 62
0
370
9
100
AcDbLine
 10
4908.271066077958
 20
4418.77334149632
 30
0.0
 11
4910.20583344246
 21
4417.805957814072
 31
0.0
  0
LINE
  5
1AD
330
17
100
AcDbEntity
  8
Hachura
 62
0
370
9
100
AcDbLine
 10
4908.271066077958
 20
4419.418263951155
 30
0.0
 11
4908.271066077958
 21
4418.77334149632
 31
0.0
  0
LINE
  5
1AE
330
17
100
AcDbEntity
  8
Hachura
 62
0
370
9
100
AcDbLine
 10
4908.271066077958
 20
4421.095062335868
 30
0.0
 11
4908.271066077958
 21
4421.739984790702
 31
0.0
  0
LINE
  5
1AF
330
17
100
AcDbEntity
  8
Hachura
 62
0
370
9
100
AcDbLine
 10
4908.271066077958
 20
4420.146056570573
 30
0.0
 11
4908.271066077958
 21
4419.934201921457
 31
0.0
  0
LINE
  5
1B0
330
17
100
AcDbEntity
  8
Hachura
 62
0
370
9
100
AcDbLine
 10
4908.271066077958
 20
4420.146056570573
 30
0.0
 11
4908.271066077958
 21
4420.579124376287
 31
0.0
  0
LINE
  5
1B1
330
17
100
AcDbEntity
  8
Hachura
 62
0
370
9
100
AcDbLine
 10
4910.20583344246
 20
4419.6117406940375
 30
0.0
 11
4910.20583344246
 21
4418.966818239203
 31
0.0
  0
LINE
  5
1B2
330
17
100
AcDbEntity
  8
Hachura
 62
0
370
9
100
AcDbLine
 10
4910.20583344246
 20
4420.772601108452
 30
0.0
 11
4910.20583344246
 21
4420.127678653618
 31
0.0
  0
LINE
  5
1B3
330
17
100
AcDbEntity
  8
Hachura
 62
0
370
9
100
AcDbLine
 10
4910.20583344246
 20
4418.450880268906
 30
0.0
 11
4908.271066077958
 21
4419.418263951155
 31
0.0
  0
LINE
  5
1B4
330
17
100
AcDbEntity
  8
Hachura
 62
0
370
9
100
AcDbLine
 10
4910.278516773306
 20
4418.543523120175
 30
0.0
 11
4908.112904015748
 21
4419.626329456076
 31
0.0
  0
LINE
  5
1B5
330
17
100
AcDbEntity
  8
Hachura
 62
0
370
9
100
AcDbLine
 10
4908.171341906171
 20
4419.855079522812
 30
0.0
 11
4910.311919574836
 21
4418.784790677762
 31
0.0
  0
LINE
  5
1B6
330
17
100
AcDbEntity
  8
Hachura
 62
0
370
9
100
AcDbLine
 10
4908.271066077958
 20
4419.934201921457
 30
0.0
 11
4910.20583344246
 21
4418.966818239203
 31
0.0
  0
LINE
  5
1B7
330
17
100
AcDbEntity
  8
Hachura
 62
0
370
9
100
AcDbLine
 10
4910.20583344246
 20
4420.772601108452
 30
0.0
 11
4908.271066077958
 21
4421.739984790702
 31
0.0
  0
LINE
  5
1B8
330
17
100
AcDbEntity
  8
Hachura
 62
0
370
9
100
AcDbLine
 10
4910.20583344246
 20
4419.6117406940375
 30
0.0
 11
4908.271066077958
 21
4420.579124376287
 31
0.0
  0
LINE
  5
1B9
330
17
100
AcDbEntity
  8
Hachura
 62
0
370
9
100
AcDbLine
 10
4910.278516773306
 20
4419.70438353459
 30
0.0
 11
4908.112904015748
 21
4420.787189870491
 31
0.0
  0
LINE
  5
1BA
330
17
100
AcDbEntity
  8
Hachura
 62
0
370
9
100
AcDbLine
 10
4908.171341906171
 20
4421.015939937226
 30
0.0
 11
4910.311919574836
 21
4419.945651092176
 31
0.0
  0
LINE
  5
1BB
330
17
100
AcDbEntity
  8
Hachura
 62
0
370
9
100
AcDbLine
 10
4908.271066077958
 20
4421.095062335868
 30
0.0
 11
4910.20583344246
 21
4420.127678653618
 31
0.0
  0
LINE
  5
1BC
330
17
100
AcDbEntity
  8
Hachura
 62
0
370
9
100
AcDbLine
 10
4908.528827748392
 20
4416.9676622656725
 30
0.0
 11
4908.271066077958
 21
4417.09654312233
 31
0.0
  0
LINE
  5
1BD
330
17
100
AcDbEntity
  8
Hachura
 62
0
370
9
100
AcDbLine
 10
4908.786796738902
 20
4416.9676622656725
 30
0.0
 11
4908.112904015748
 21
4417.304608627252
 31
0.0
  0
LINE
  5
1BE
330
17
100
AcDbEntity
  8
Hachura
 62
0
370
9
100
AcDbLine
 10
4908.272857863678
 20
4416.969272362256
 30
0.0
 11
4908.595319091095
 21
4416.646811113397
 31
0.0
  0
LINE
  5
1BF
330
17
100
AcDbEntity
  8
Hachura
 62
0
370
9
100
AcDbLine
 10
4908.271066077958
 20
4417.612481081911
 30
0.0
 11
4908.271066077958
 21
4418.257403536745
 31
0.0
  0
LINE
  5
1C0
330
17
100
AcDbEntity
  8
Hachura
 62
0
370
9
100
AcDbLine
 10
4910.20583344246
 20
4417.290019854491
 30
0.0
 11
4910.20583344246
 21
4416.9676622656725
 31
0.0
  0
LINE
  5
1C1
330
17
100
AcDbEntity
  8
Hachura
 62
0
370
9
100
AcDbLine
 10
4910.2077107289515
 20
4416.969272340817
 30
0.0
 11
4909.885164000763
 21
4416.646811113397
 31
0.0
  0
LINE
  5
1C2
330
17
100
AcDbEntity
  8
Hachura
 62
0
370
9
100
AcDbLine
 10
4910.20583344246
 20
4419.178672899041
 30
0.0
 11
4910.20583344246
 21
4418.966818249925
 31
0.0
  0
LINE
  5
1C3
330
17
100
AcDbEntity
  8
Hachura
 62
0
370
9
100
AcDbLine
 10
4908.171341906171
 20
4417.533358693987
 30
0.0
 11
4909.3027347199195
 21
4416.9676622656725
 31
0.0
  0
LINE
  5
1C4
330
17
100
AcDbEntity
  8
Hachura
 62
0
370
9
100
AcDbLine
 10
4908.271066077958
 20
4417.612481081911
 30
0.0
 11
4909.56070366755
 21
4416.9676622656725
 31
0.0
  0
LINE
  5
1C5
330
17
100
AcDbEntity
  8
Hachura
 62
0
370
9
100
AcDbLine
 10
4909.885164000763
 20
4416.646811113397
 30
0.0
 11
4908.595319091095
 21
4416.646811113397
 31
0.0
  0
LINE
  5
1C6
330
17
100
AcDbEntity
  8
Hachura
 62
0
370
9
100
AcDbLine
 10
4910.20583344246
 20
4417.290019854491
 30
0.0
 11
4908.271066077958
 21
4418.257403536745
 31
0.0
  0
LINE
  5
1C7
330
17
100
AcDbEntity
  8
Hachura
 62
0
370
9
100
AcDbLine
 10
4908.272857863678
 20
4416.969272362256
 30
0.0
 11
4910.20762522818
 21
4416.969272362256
 31
0.0
  0
LINE
  5
1C8
330
17
100
AcDbEntity
  8
Hachura
 62
0
370
9
100
AcDbLine
 10
4903.677502585833
 20
4428.447178318831
 30
0.0
 11
4911.492164330464
 21
4428.447178318831
 31
0.0
  0
LINE
  5
1C9
330
17
100
AcDbEntity
  8
Hachura
 62
0
370
9
100
AcDbLine
 10
4907.49715910643
 20
4421.739984790702
 30
0.0
 11
4910.850755897294
 21
4421.739984790702
 31
0.0
  0
LINE
  5
1CA
330
17
100
AcDbEntity
  8
Hachura
 62
0
370
9
100
AcDbLine
 10
4907.49715910643
 20
4421.80770164803
 30
0.0
 11
4910.850755897294
 21
4421.80770164803
 31
0.0
  0
LINE
  5
1CB
330
17
100
AcDbEntity
  8
Hachura
 62
0
370
9
100
AcDbLine
 10
4911.108724844926
 20
4424.964597064871
 30
0.0
 11
4907.239190115921
 21
4424.964597064871
 31
0.0
  0
LINE
  5
1CC
330
17
100
AcDbEntity
  8
Hachura
 62
0
370
9
100
AcDbLine
 10
4915.623182028762
 20
4427.5442868842065
 30
0.0
 11
4902.7247329320835
 21
4427.5442868842065
 31
0.0
  0
LINE
  5
1CD
330
17
100
AcDbEntity
  8
Hachura
 62
0
370
9
100
AcDbLine
 10
4902.7247329320835
 20
4428.447178318831
 30
0.0
 11
4915.619640264369
 21
4428.447178318831
 31
0.0
  0
LINE
  5
1CE
330
17
100
AcDbEntity
  8
Hachura
 62
0
370
9
100
AcDbLine
 10
4909.818879935257
 20
4421.739984790702
 30
0.0
 11
4909.818879935257
 21
4424.964597064871
 31
0.0
  0
LINE
  5
1CF
330
17
100
AcDbEntity
  8
Hachura
 62
0
370
9
100
AcDbLine
 10
4910.850755897294
 20
4421.739984790702
 30
0.0
 11
4910.850755897294
 21
4424.964597064871
 31
0.0
  0
LINE
  5
1D0
330
17
100
AcDbEntity
  8
Hachura
 62
0
370
9
100
AcDbLine
 10
4909.173957480423
 20
4427.5442868842065
 30
0.0
 11
4911.108724844926
 21
4427.5442868842065
 31
0.0
  0
LINE
  5
1D1
330
17
100
AcDbEntity
  8
Hachura
 62
0
370
9
100
AcDbLine
 10
4910.463802390092
 20
4427.5442868842065
 30
0.0
 11
4909.818879935257
 21
4427.5442868842065
 31
0.0
  0
LINE
  5
1D2
330
17
100
AcDbEntity
  8
Hachura
 62
0
370
9
100
AcDbLine
 10
4909.1795978427845
 20
4427.5442868842065
 30
0.0
 11
4909.1795978427845
 21
4428.447178318831
 31
0.0
  0
LINE
  5
1D3
330
17
100
AcDbEntity
  8
Hachura
 62
0
370
9
100
AcDbLine
 10
4909.486139534133
 20
4427.5442868842065
 30
0.0
 11
4909.486139534133
 21
4425.545127694749
 31
0.0
  0
LINE
  5
1D4
330
17
100
AcDbEntity
  8
Hachura
 62
0
370
9
100
AcDbLine
 10
4908.970201553114
 20
4425.545127694749
 30
0.0
 11
4908.970201553114
 21
4427.5442868842065
 31
0.0
  0
LINE
  5
1D5
330
17
100
AcDbEntity
  8
Hachura
 62
0
370
9
100
AcDbLine
 10
4912.2138341041555
 20
4427.526012327139
 30
0.0
 11
4912.2138341041555
 21
4428.453235002221
 31
0.0
  0
LINE
  5
1D6
330
17
100
AcDbEntity
  8
Hachura
 62
0
370
9
100
AcDbLine
 10
4910.133573113171
 20
4428.297132440908
 30
0.0
 11
4910.133573113171
 21
4427.864064635189
 31
0.0
  0
LINE
  5
1D7
330
17
100
AcDbEntity
  8
Hachura
 62
0
370
9
100
AcDbLine
 10
4911.108724844926
 20
4427.5442868842065
 30
0.0
 11
4911.108724844926
 21
4424.964597064871
 31
0.0
  0
LINE
  5
1D8
330
17
100
AcDbEntity
  8
Hachura
 62
0
370
9
100
AcDbLine
 10
4910.133573113171
 20
4427.864064635189
 30
0.0
 11
4910.133573113171
 21
4427.652209986074
 31
0.0
  0
LINE
  5
1D9
330
17
100
AcDbEntity
  8
Hachura
 62
0
370
9
100
AcDbLine
 10
4915.619640264369
 20
4428.447178318831
 30
0.0
 11
4915.619640264369
 21
4423.310509736745
 31
0.0
  0
LINE
  5
1DA
330
17
100
AcDbEntity
  8
Hachura
 62
0
370
9
100
AcDbLine
 10
4913.946383654769
 20
4423.287798680159
 30
0.0
 11
4913.364723580715
 21
4425.498106998012
 31
0.0
  0
LINE
  5
1DB
330
17
100
AcDbEntity
  8
Hachura
 62
0
370
9
100
AcDbLine
 10
4915.623182028762
 20
4423.287798680159
 30
0.0
 11
4913.946383654769
 21
4423.287798680159
 31
0.0
  0
LINE
  5
1DC
330
17
100
AcDbEntity
  8
Hachura
 62
0
370
9
100
AcDbLine
 10
4913.0528795423415
 20
4425.738504004241
 30
0.0
 11
4911.108724844926
 21
4425.738504004241
 31
0.0
  0
LINE
  5
1DD
330
17
100
AcDbEntity
  8
Hachura
 62
0
370
9
100
AcDbLine
 10
4915.623182028762
 20
4427.5442868842065
 30
0.0
 11
4910.463802390092
 21
4427.5442868842065
 31
0.0
  0
LINE
  5
1DE
330
17
100
AcDbEntity
  8
Hachura
 62
0
370
9
100
AcDbLine
 10
4904.401531348954
 20
4423.287798680159
 30
0.0
 11
4904.983191423009
 21
4425.498106998012
 31
0.0
  0
LINE
  5
1DF
330
17
100
AcDbEntity
  8
Hachura
 62
0
370
9
100
AcDbLine
 10
4907.49715910643
 20
4424.964597064871
 30
0.0
 11
4907.49715910643
 21
4421.739984790702
 31
0.0
  0
LINE
  5
1E0
330
17
100
AcDbEntity
  8
Hachura
 62
0
370
9
100
AcDbLine
 10
4908.271066077958
 20
4421.739984790702
 30
0.0
 11
4908.271066077958
 21
4424.964597064871
 31
0.0
  0
LINE
  5
1E1
330
17
100
AcDbEntity
  8
Hachura
 62
0
370
9
100
AcDbLine
 10
4906.147819509945
 20
4427.526012327139
 30
0.0
 11
4906.147819509945
 21
4428.447178318831
 31
0.0
  0
LINE
  5
1E2
330
17
100
AcDbEntity
  8
Hachura
 62
0
370
9
100
AcDbLine
 10
4908.198805748669
 20
4427.670587903027
 30
0.0
 11
4908.198805748669
 21
4428.103655698025
 31
0.0
  0
LINE
  5
1E3
330
17
100
AcDbEntity
  8
Hachura
 62
0
370
9
100
AcDbLine
 10
4904.71556590508
 20
4427.526012327139
 30
0.0
 11
4904.71556590508
 21
4428.453235002221
 31
0.0
  0
LINE
  5
1E4
330
17
100
AcDbEntity
  8
Hachura
 62
0
370
9
100
AcDbLine
 10
4907.239190115921
 20
4424.964597064871
 30
0.0
 11
4907.239190115921
 21
4427.5442868842065
 31
0.0
  0
LINE
  5
1E5
330
17
100
AcDbEntity
  8
Hachura
 62
0
370
9
100
AcDbLine
 10
4907.239190115921
 20
4424.964597064871
 30
0.0
 11
4907.49715910643
 21
4424.964597064871
 31
0.0
  0
LINE
  5
1E6
330
17
100
AcDbEntity
  8
Hachura
 62
0
370
9
100
AcDbLine
 10
4907.239190115921
 20
4424.964597064871
 30
0.0
 11
4907.49715910643
 21
4424.964597064871
 31
0.0
  0
LINE
  5
1E7
330
17
100
AcDbEntity
  8
Hachura
 62
0
370
9
100
AcDbLine
 10
4905.295035461385
 20
4425.738504004241
 30
0.0
 11
4907.2430720396
 21
4425.738504004241
 31
0.0
  0
LINE
  5
1E8
330
17
100
AcDbEntity
  8
Hachura
 62
0
370
9
100
AcDbLine
 10
4902.7247329320835
 20
4427.5442868842065
 30
0.0
 11
4902.7247329320835
 21
4423.287798680159
 31
0.0
  0
LINE
  5
1E9
330
17
100
AcDbEntity
  8
Hachura
 62
0
370
9
100
AcDbLine
 10
4902.7247329320835
 20
4427.5442868842065
 30
0.0
 11
4902.7247329320835
 21
4428.447178318831
 31
0.0
  0
LINE
  5
1EA
330
17
100
AcDbEntity
  8
Hachura
 62
0
370
9
100
AcDbLine
 10
4903.873063988878
 20
4427.526012327139
 30
0.0
 11
4903.873063988878
 21
4428.453235002221
 31
0.0
  0
LINE
  5
1EB
330
17
100
AcDbEntity
  8
Hachura
 62
0
370
9
100
AcDbLine
 10
4903.409687757019
 20
4427.526012327139
 30
0.0
 11
4903.409687757019
 21
4428.453235002221
 31
0.0
  0
LINE
  5
1EC
330
17
100
AcDbEntity
  8
Hachura
 62
0
370
9
100
AcDbLine
 10
4903.072687024842
 20
4427.526012327139
 30
0.0
 11
4903.072687024842
 21
4428.453235002221
 31
0.0
  0
LINE
  5
1ED
330
17
100
AcDbEntity
  8
Hachura
 62
0
370
9
100
AcDbLine
 10
4902.862061277797
 20
4427.526012327139
 30
0.0
 11
4902.862061277797
 21
4428.453235002221
 31
0.0
  0
LINE
  5
1EE
330
17
100
AcDbEntity
  8
Hachura
 62
0
370
9
100
AcDbLine
 10
4902.7247329320835
 20
4423.287798680159
 30
0.0
 11
4904.401531348954
 21
4423.287798680159
 31
0.0
  0
LINE
  5
1EF
330
17
100
AcDbEntity
  8
Hachura
 62
0
370
9
100
AcDbLine
 10
4909.044973025469
 20
4421.739984790702
 30
0.0
 11
4910.311919578434
 21
4421.106511507875
 31
0.0
  0
LINE
  5
1F0
330
17
100
AcDbEntity
  8
Hachura
 62
0
370
9
100
AcDbLine
 10
4909.302942003287
 20
4421.739984790702
 30
0.0
 11
4910.205833446058
 21
4421.288539069316
 31
0.0
  0
LINE
  5
1F1
330
17
100
AcDbEntity
  8
Hachura
 62
0
370
9
100
AcDbLine
 10
4910.205833446059
 20
4421.739984790702
 30
0.0
 11
4910.205833446059
 21
4421.288539069316
 31
0.0
  0
LINE
  5
1F2
330
17
100
AcDbEntity
  8
Hachura
 62
0
370
9
100
AcDbLine
 10
4913.628807291372
 20
4427.526012327139
 30
0.0
 11
4913.628807291372
 21
4428.453235002221
 31
0.0
  0
LINE
  5
1F3
330
17
100
AcDbEntity
  8
Hachura
 62
0
370
9
100
AcDbLine
 10
4914.471309207574
 20
4427.526012327139
 30
0.0
 11
4914.471309207574
 21
4428.453235002221
 31
0.0
  0
LINE
  5
1F4
330
17
100
AcDbEntity
  8
Hachura
 62
0
370
9
100
AcDbLine
 10
4914.934685439433
 20
4427.526012327139
 30
0.0
 11
4914.934685439433
 21
4428.453235002221
 31
0.0
  0
LINE
  5
1F5
330
17
100
AcDbEntity
  8
Hachura
 62
0
370
9
100
AcDbLine
 10
4915.271686171611
 20
4427.526012327139
 30
0.0
 11
4915.271686171611
 21
4428.453235002221
 31
0.0
  0
LINE
  5
1F6
330
17
100
AcDbEntity
  8
Hachura
 62
0
370
9
100
AcDbLine
 10
4915.482311918656
 20
4427.526012327139
 30
0.0
 11
4915.482311918656
 21
4428.453235002221
 31
0.0
  0
LINE
  5
1F7
330
17
100
AcDbEntity
  8
Hachura
 62
0
370
9
100
AcDbLine
 10
4740.138550066991
 20
4552.443476290874
 30
0.0
 11
4740.138550066991
 21
4553.088398745708
 31
0.0
  0
LINE
  5
1F8
330
17
100
AcDbEntity
  8
Hachura
 62
0
370
9
100
AcDbLine
 10
4740.138550066991
 20
4553.604336705289
 30
0.0
 11
4742.073317431494
 21
4552.636953023035
 31
0.0
  0
LINE
  5
1F9
330
17
100
AcDbEntity
  8
Hachura
 62
0
370
9
100
AcDbLine
 10
4740.065866736145
 20
4553.511693864736
 30
0.0
 11
4742.231479493703
 21
4552.428887528836
 31
0.0
  0
LINE
  5
1FA
330
17
100
AcDbEntity
  8
Hachura
 62
0
370
9
100
AcDbLine
 10
4742.173041603281
 20
4552.200137451378
 30
0.0
 11
4740.032463934615
 21
4553.27042630715
 31
0.0
  0
LINE
  5
1FB
330
17
100
AcDbEntity
  8
Hachura
 62
0
370
9
100
AcDbLine
 10
4742.073317431494
 20
4552.12101506346
 30
0.0
 11
4740.138550066991
 21
4553.088398745708
 31
0.0
  0
LINE
  5
1FC
330
17
100
AcDbEntity
  8
Hachura
 62
0
370
9
100
AcDbLine
 10
4742.073317431494
 20
4551.476092608626
 30
0.0
 11
4742.073317431494
 21
4552.12101506346
 31
0.0
  0
LINE
  5
1FD
330
17
100
AcDbEntity
  8
Hachura
 62
0
370
9
100
AcDbLine
 10
4742.073317431494
 20
4549.7992942239125
 30
0.0
 11
4742.073317431494
 21
4549.154371769078
 31
0.0
  0
LINE
  5
1FE
330
17
100
AcDbEntity
  8
Hachura
 62
0
370
9
100
AcDbLine
 10
4742.073317431494
 20
4550.748299989207
 30
0.0
 11
4742.073317431494
 21
4550.960154638323
 31
0.0
  0
LINE
  5
1FF
330
17
100
AcDbEntity
  8
Hachura
 62
0
370
9
100
AcDbLine
 10
4742.073317431494
 20
4550.748299989207
 30
0.0
 11
4742.073317431494
 21
4550.315232183493
 31
0.0
  0
LINE
  5
200
330
17
100
AcDbEntity
  8
Hachura
 62
0
370
9
100
AcDbLine
 10
4740.138550066991
 20
4551.282615865743
 30
0.0
 11
4740.138550066991
 21
4551.927538320577
 31
0.0
  0
LINE
  5
201
330
17
100
AcDbEntity
  8
Hachura
 62
0
370
9
100
AcDbLine
 10
4740.138550066991
 20
4550.121755451328
 30
0.0
 11
4740.138550066991
 21
4550.766677906162
 31
0.0
  0
LINE
  5
202
330
17
100
AcDbEntity
  8
Hachura
 62
0
370
9
100
AcDbLine
 10
4740.138550066991
 20
4552.443476290874
 30
0.0
 11
4742.073317431494
 21
4551.476092608626
 31
0.0
  0
LINE
  5
203
330
17
100
AcDbEntity
  8
Hachura
 62
0
370
9
100
AcDbLine
 10
4740.065866736145
 20
4552.350833439605
 30
0.0
 11
4742.231479493703
 21
4551.268027103704
 31
0.0
  0
LINE
  5
204
330
17
100
AcDbEntity
  8
Hachura
 62
0
370
9
100
AcDbLine
 10
4742.173041603281
 20
4551.039277036968
 30
0.0
 11
4740.032463934615
 21
4552.109565882018
 31
0.0
  0
LINE
  5
205
330
17
100
AcDbEntity
  8
Hachura
 62
0
370
9
100
AcDbLine
 10
4742.073317431494
 20
4550.960154638323
 30
0.0
 11
4740.138550066991
 21
4551.927538320577
 31
0.0
  0
LINE
  5
206
330
17
100
AcDbEntity
  8
Hachura
 62
0
370
9
100
AcDbLine
 10
4740.138550066991
 20
4550.121755451328
 30
0.0
 11
4742.073317431494
 21
4549.154371769078
 31
0.0
  0
LINE
  5
207
330
17
100
AcDbEntity
  8
Hachura
 62
0
370
9
100
AcDbLine
 10
4740.138550066991
 20
4551.282615865743
 30
0.0
 11
4742.073317431494
 21
4550.315232183493
 31
0.0
  0
LINE
  5
208
330
17
100
AcDbEntity
  8
Hachura
 62
0
370
9
100
AcDbLine
 10
4740.065866736145
 20
4551.18997302519
 30
0.0
 11
4742.231479493703
 21
4550.107166689289
 31
0.0
  0
LINE
  5
209
330
17
100
AcDbEntity
  8
Hachura
 62
0
370
9
100
AcDbLine
 10
4742.173041603281
 20
4549.878416622554
 30
0.0
 11
4740.032463934615
 21
4550.948705467604
 31
0.0
  0
LINE
  5
20A
330
17
100
AcDbEntity
  8
Hachura
 62
0
370
9
100
AcDbLine
 10
4742.073317431494
 20
4549.7992942239125
 30
0.0
 11
4740.138550066991
 21
4550.766677906162
 31
0.0
  0
LINE
  5
20B
330
17
100
AcDbEntity
  8
Hachura
 62
0
370
9
100
AcDbLine
 10
4741.815555761059
 20
4553.926694294108
 30
0.0
 11
4742.073317431494
 21
4553.79781343745
 31
0.0
  0
LINE
  5
20C
330
17
100
AcDbEntity
  8
Hachura
 62
0
370
9
100
AcDbLine
 10
4741.557586770549
 20
4553.926694294108
 30
0.0
 11
4742.231479493703
 21
4553.589747932529
 31
0.0
  0
LINE
  5
20D
330
17
100
AcDbEntity
  8
Hachura
 62
0
370
9
100
AcDbLine
 10
4742.071525645773
 20
4553.9250841975245
 30
0.0
 11
4741.749064418356
 21
4554.247545446383
 31
0.0
  0
LINE
  5
20E
330
17
100
AcDbEntity
  8
Hachura
 62
0
370
9
100
AcDbLine
 10
4742.073317431494
 20
4553.281875477869
 30
0.0
 11
4742.073317431494
 21
4552.636953023035
 31
0.0
  0
LINE
  5
20F
330
17
100
AcDbEntity
  8
Hachura
 62
0
370
9
100
AcDbLine
 10
4740.138550066991
 20
4553.604336705289
 30
0.0
 11
4740.138550066991
 21
4553.926694294108
 31
0.0
  0
LINE
  5
210
330
17
100
AcDbEntity
  8
Hachura
 62
0
370
9
100
AcDbLine
 10
4740.1366727805
 20
4553.925084218963
 30
0.0
 11
4740.459219508688
 21
4554.247545446383
 31
0.0
  0
LINE
  5
211
330
17
100
AcDbEntity
  8
Hachura
 62
0
370
9
100
AcDbLine
 10
4740.138550066991
 20
4551.715683660739
 30
0.0
 11
4740.138550066991
 21
4551.927538309855
 31
0.0
  0
LINE
  5
212
330
17
100
AcDbEntity
  8
Hachura
 62
0
370
9
100
AcDbLine
 10
4742.173041603281
 20
4553.360997865793
 30
0.0
 11
4741.041648789532
 21
4553.926694294108
 31
0.0
  0
LINE
  5
213
330
17
100
AcDbEntity
  8
Hachura
 62
0
370
9
100
AcDbLine
 10
4742.073317431494
 20
4553.281875477869
 30
0.0
 11
4740.783679841901
 21
4553.926694294108
 31
0.0
  0
LINE
  5
214
330
17
100
AcDbEntity
  8
Hachura
 62
0
370
9
100
AcDbLine
 10
4740.459219508688
 20
4554.247545446383
 30
0.0
 11
4741.749064418356
 21
4554.247545446383
 31
0.0
  0
LINE
  5
215
330
17
100
AcDbEntity
  8
Hachura
 62
0
370
9
100
AcDbLine
 10
4740.138550066991
 20
4553.604336705289
 30
0.0
 11
4742.073317431494
 21
4552.636953023035
 31
0.0
  0
LINE
  5
216
330
17
100
AcDbEntity
  8
Hachura
 62
0
370
9
100
AcDbLine
 10
4742.071525645773
 20
4553.9250841975245
 30
0.0
 11
4740.136758281271
 21
4553.9250841975245
 31
0.0
  0
LINE
  5
217
330
17
100
AcDbEntity
  8
Hachura
 62
0
370
9
100
AcDbLine
 10
4746.666880923618
 20
4542.447178240949
 30
0.0
 11
4738.852219178987
 21
4542.447178240949
 31
0.0
  0
LINE
  5
218
330
17
100
AcDbEntity
  8
Hachura
 62
0
370
9
100
AcDbLine
 10
4742.847224403021
 20
4549.154371769078
 30
0.0
 11
4739.493627612157
 21
4549.154371769078
 31
0.0
  0
LINE
  5
219
330
17
100
AcDbEntity
  8
Hachura
 62
0
370
9
100
AcDbLine
 10
4742.847224403021
 20
4549.08665491175
 30
0.0
 11
4739.493627612157
 21
4549.08665491175
 31
0.0
  0
LINE
  5
21A
330
17
100
AcDbEntity
  8
Hachura
 62
0
370
9
100
AcDbLine
 10
4739.2356586645255
 20
4545.929759494909
 30
0.0
 11
4743.1051933935305
 21
4545.929759494909
 31
0.0
  0
LINE
  5
21B
330
17
100
AcDbEntity
  8
Hachura
 62
0
370
9
100
AcDbLine
 10
4734.721201480689
 20
4543.350069675574
 30
0.0
 11
4747.619650577368
 21
4543.350069675574
 31
0.0
  0
LINE
  5
21C
330
17
100
AcDbEntity
  8
Hachura
 62
0
370
9
100
AcDbLine
 10
4747.619650577368
 20
4542.447178240949
 30
0.0
 11
4734.724743245082
 21
4542.447178240949
 31
0.0
  0
LINE
  5
21D
330
17
100
AcDbEntity
  8
Hachura
 62
0
370
9
100
AcDbLine
 10
4740.525503574194
 20
4549.154371769078
 30
0.0
 11
4740.525503574194
 21
4545.929759494909
 31
0.0
  0
LINE
  5
21E
330
17
100
AcDbEntity
  8
Hachura
 62
0
370
9
100
AcDbLine
 10
4739.493627612157
 20
4549.154371769078
 30
0.0
 11
4739.493627612157
 21
4545.929759494909
 31
0.0
  0
LINE
  5
21F
330
17
100
AcDbEntity
  8
Hachura
 62
0
370
9
100
AcDbLine
 10
4741.170426029028
 20
4543.350069675574
 30
0.0
 11
4739.2356586645255
 21
4543.350069675574
 31
0.0
  0
LINE
  5
220
330
17
100
AcDbEntity
  8
Hachura
 62
0
370
9
100
AcDbLine
 10
4739.88058111936
 20
4543.350069675574
 30
0.0
 11
4740.525503574194
 21
4543.350069675574
 31
0.0
  0
LINE
  5
221
330
17
100
AcDbEntity
  8
Hachura
 62
0
370
9
100
AcDbLine
 10
4741.164785666667
 20
4543.350069675574
 30
0.0
 11
4741.164785666667
 21
4542.447178240949
 31
0.0
  0
LINE
  5
222
330
17
100
AcDbEntity
  8
Hachura
 62
0
370
9
100
AcDbLine
 10
4740.858243975318
 20
4543.350069675574
 30
0.0
 11
4740.858243975318
 21
4545.349228865031
 31
0.0
  0
LINE
  5
223
330
17
100
AcDbEntity
  8
Hachura
 62
0
370
9
100
AcDbLine
 10
4741.374181956337
 20
4545.349228865031
 30
0.0
 11
4741.374181956337
 21
4543.350069675574
 31
0.0
  0
LINE
  5
224
330
17
100
AcDbEntity
  8
Hachura
 62
0
370
9
100
AcDbLine
 10
4738.130549405296
 20
4543.368344232641
 30
0.0
 11
4738.130549405296
 21
4542.441121557559
 31
0.0
  0
LINE
  5
225
330
17
100
AcDbEntity
  8
Hachura
 62
0
370
9
100
AcDbLine
 10
4740.21081039628
 20
4542.597224118872
 30
0.0
 11
4740.21081039628
 21
4543.030291924591
 31
0.0
  0
LINE
  5
226
330
17
100
AcDbEntity
  8
Hachura
 62
0
370
9
100
AcDbLine
 10
4739.2356586645255
 20
4543.350069675574
 30
0.0
 11
4739.2356586645255
 21
4545.929759494909
 31
0.0
  0
LINE
  5
227
330
17
100
AcDbEntity
  8
Hachura
 62
0
370
9
100
AcDbLine
 10
4740.21081039628
 20
4543.030291924591
 30
0.0
 11
4740.21081039628
 21
4543.242146573706
 31
0.0
  0
LINE
  5
228
330
17
100
AcDbEntity
  8
Hachura
 62
0
370
9
100
AcDbLine
 10
4734.724743245082
 20
4542.447178240949
 30
0.0
 11
4734.724743245082
 21
4547.583846823035
 31
0.0
  0
LINE
  5
229
330
17
100
AcDbEntity
  8
Hachura
 62
0
370
9
100
AcDbLine
 10
4736.397999854682
 20
4547.6065578796215
 30
0.0
 11
4736.9796599287365
 21
4545.396249561768
 31
0.0
  0
LINE
  5
22A
330
17
100
AcDbEntity
  8
Hachura
 62
0
370
9
100
AcDbLine
 10
4734.721201480689
 20
4547.6065578796215
 30
0.0
 11
4736.397999854682
 21
4547.6065578796215
 31
0.0
  0
LINE
  5
22B
330
17
100
AcDbEntity
  8
Hachura
 62
0
370
9
100
AcDbLine
 10
4737.29150396711
 20
4545.155852555539
 30
0.0
 11
4739.2356586645255
 21
4545.155852555539
 31
0.0
  0
LINE
  5
22C
330
17
100
AcDbEntity
  8
Hachura
 62
0
370
9
100
AcDbLine
 10
4734.721201480689
 20
4543.350069675574
 30
0.0
 11
4739.88058111936
 21
4543.350069675574
 31
0.0
  0
LINE
  5
22D
330
17
100
AcDbEntity
  8
Hachura
 62
0
370
9
100
AcDbLine
 10
4745.942852160497
 20
4547.6065578796215
 30
0.0
 11
4745.361192086442
 21
4545.396249561768
 31
0.0
  0
LINE
  5
22E
330
17
100
AcDbEntity
  8
Hachura
 62
0
370
9
100
AcDbLine
 10
4742.847224403021
 20
4545.929759494909
 30
0.0
 11
4742.847224403021
 21
4549.154371769078
 31
0.0
  0
LINE
  5
22F
330
17
100
AcDbEntity
  8
Hachura
 62
0
370
9
100
AcDbLine
 10
4742.073317431494
 20
4549.154371769078
 30
0.0
 11
4742.073317431494
 21
4545.929759494909
 31
0.0
  0
LINE
  5
230
330
17
100
AcDbEntity
  8
Hachura
 62
0
370
9
100
AcDbLine
 10
4744.196563999506
 20
4543.368344232641
 30
0.0
 11
4744.196563999506
 21
4542.447178240949
 31
0.0
  0
LINE
  5
231
330
17
100
AcDbEntity
  8
Hachura
 62
0
370
9
100
AcDbLine
 10
4742.1455777607825
 20
4543.223768656753
 30
0.0
 11
4742.1455777607825
 21
4542.790700861755
 31
0.0
  0
LINE
  5
232
330
17
100
AcDbEntity
  8
Hachura
 62
0
370
9
100
AcDbLine
 10
4745.628817604371
 20
4543.368344232641
 30
0.0
 11
4745.628817604371
 21
4542.441121557559
 31
0.0
  0
LINE
  5
233
330
17
100
AcDbEntity
  8
Hachura
 62
0
370
9
100
AcDbLine
 10
4743.1051933935305
 20
4545.929759494909
 30
0.0
 11
4743.1051933935305
 21
4543.350069675574
 31
0.0
  0
LINE
  5
234
330
17
100
AcDbEntity
  8
Hachura
 62
0
370
9
100
AcDbLine
 10
4743.1051933935305
 20
4545.929759494909
 30
0.0
 11
4742.847224403021
 21
4545.929759494909
 31
0.0
  0
LINE
  5
235
330
17
100
AcDbEntity
  8
Hachura
 62
0
370
9
100
AcDbLine
 10
4743.1051933935305
 20
4545.929759494909
 30
0.0
 11
4742.847224403021
 21
4545.929759494909
 31
0.0
  0
LINE
  5
236
330
17
100
AcDbEntity
  8
Hachura
 62
0
370
9
100
AcDbLine
 10
4745.049348048066
 20
4545.155852555539
 30
0.0
 11
4743.101311469852
 21
4545.155852555539
 31
0.0
  0
LINE
  5
237
330
17
100
AcDbEntity
  8
Hachura
 62
0
370
9
100
AcDbLine
 10
4747.619650577368
 20
4543.350069675574
 30
0.0
 11
4747.619650577368
 21
4547.6065578796215
 31
0.0
  0
LINE
  5
238
330
17
100
AcDbEntity
  8
Hachura
 62
0
370
9
100
AcDbLine
 10
4747.619650577368
 20
4543.350069675574
 30
0.0
 11
4747.619650577368
 21
4542.447178240949
 31
0.0
  0
LINE
  5
239
330
17
100
AcDbEntity
  8
Hachura
 62
0
370
9
100
AcDbLine
 10
4746.471319520573
 20
4543.368344232641
 30
0.0
 11
4746.471319520573
 21
4542.441121557559
 31
0.0
  0
LINE
  5
23A
330
17
100
AcDbEntity
  8
Hachura
 62
0
370
9
100
AcDbLine
 10
4746.934695752432
 20
4543.368344232641
 30
0.0
 11
4746.934695752432
 21
4542.441121557559
 31
0.0
  0
LINE
  5
23B
330
17
100
AcDbEntity
  8
Hachura
 62
0
370
9
100
AcDbLine
 10
4747.2716964846095
 20
4543.368344232641
 30
0.0
 11
4747.2716964846095
 21
4542.441121557559
 31
0.0
  0
LINE
  5
23C
330
17
100
AcDbEntity
  8
Hachura
 62
0
370
9
100
AcDbLine
 10
4747.4823222316545
 20
4543.368344232641
 30
0.0
 11
4747.4823222316545
 21
4542.441121557559
 31
0.0
  0
LINE
  5
23D
330
17
100
AcDbEntity
  8
Hachura
 62
0
370
9
100
AcDbLine
 10
4747.619650577368
 20
4547.6065578796215
 30
0.0
 11
4745.942852160497
 21
4547.6065578796215
 31
0.0
  0
LINE
  5
23E
330
17
100
AcDbEntity
  8
Hachura
 62
0
370
9
100
AcDbLine
 10
4741.299410483983
 20
4549.154371769078
 30
0.0
 11
4740.032463931017
 21
4549.787845051905
 31
0.0
  0
LINE
  5
23F
330
17
100
AcDbEntity
  8
Hachura
 62
0
370
9
100
AcDbLine
 10
4741.041441506164
 20
4549.154371769078
 30
0.0
 11
4740.138550063393
 21
4549.605817490464
 31
0.0
  0
LINE
  5
240
330
17
100
AcDbEntity
  8
Hachura
 62
0
370
9
100
AcDbLine
 10
4740.138550063392
 20
4549.154371769078
 30
0.0
 11
4740.138550063392
 21
4549.605817490464
 31
0.0
  0
LINE
  5
241
330
17
100
AcDbEntity
  8
Hachura
 62
0
370
9
100
AcDbLine
 10
4736.715576218079
 20
4543.368344232641
 30
0.0
 11
4736.715576218079
 21
4542.441121557559
 31
0.0
  0
LINE
  5
242
330
17
100
AcDbEntity
  8
Hachura
 62
0
370
9
100
AcDbLine
 10
4735.873074301877
 20
4543.368344232641
 30
0.0
 11
4735.873074301877
 21
4542.441121557559
 31
0.0
  0
LINE
  5
243
330
17
100
AcDbEntity
  8
Hachura
 62
0
370
9
100
AcDbLine
 10
4735.409698070018
 20
4543.368344232641
 30
0.0
 11
4735.409698070018
 21
4542.441121557559
 31
0.0
  0
LINE
  5
244
330
17
100
AcDbEntity
  8
Hachura
 62
0
370
9
100
AcDbLine
 10
4735.0726973378405
 20
4543.368344232641
 30
0.0
 11
4735.0726973378405
 21
4542.441121557559
 31
0.0
  0
LINE
  5
245
330
17
100
AcDbEntity
  8
Hachura
 62
0
370
9
100
AcDbLine
 10
4734.8620715907955
 20
4543.368344232641
 30
0.0
 11
4734.8620715907955
 21
4542.441121557559
 31
0.0
  0
LINE
  5
246
330
17
100
AcDbEntity
  8
Hachura
 62
0
370
9
100
AcDbLine
 10
4740.139172331159
 20
4418.450880268906
 30
0.0
 11
4740.139172331159
 21
4417.805957814072
 31
0.0
  0
LINE
  5
247
330
17
100
AcDbEntity
  8
Hachura
 62
0
370
9
100
AcDbLine
 10
4740.139172331159
 20
4417.290019854491
 30
0.0
 11
4742.0739396956615
 21
4418.257403536745
 31
0.0
  0
LINE
  5
248
330
17
100
AcDbEntity
  8
Hachura
 62
0
370
9
100
AcDbLine
 10
4740.066489000313
 20
4417.382662695044
 30
0.0
 11
4742.232101757871
 21
4418.465469030944
 31
0.0
  0
LINE
  5
249
330
17
100
AcDbEntity
  8
Hachura
 62
0
370
9
100
AcDbLine
 10
4742.173663867448
 20
4418.694219108402
 30
0.0
 11
4740.033086198783
 21
4417.62393025263
 31
0.0
  0
LINE
  5
24A
330
17
100
AcDbEntity
  8
Hachura
 62
0
370
9
100
AcDbLine
 10
4742.0739396956615
 20
4418.77334149632
 30
0.0
 11
4740.139172331159
 21
4417.805957814072
 31
0.0
  0
LINE
  5
24B
330
17
100
AcDbEntity
  8
Hachura
 62
0
370
9
100
AcDbLine
 10
4742.0739396956615
 20
4419.418263951155
 30
0.0
 11
4742.0739396956615
 21
4418.77334149632
 31
0.0
  0
LINE
  5
24C
330
17
100
AcDbEntity
  8
Hachura
 62
0
370
9
100
AcDbLine
 10
4742.0739396956615
 20
4421.095062335868
 30
0.0
 11
4742.0739396956615
 21
4421.739984790702
 31
0.0
  0
LINE
  5
24D
330
17
100
AcDbEntity
  8
Hachura
 62
0
370
9
100
AcDbLine
 10
4742.0739396956615
 20
4420.146056570573
 30
0.0
 11
4742.0739396956615
 21
4419.934201921457
 31
0.0
  0
LINE
  5
24E
330
17
100
AcDbEntity
  8
Hachura
 62
0
370
9
100
AcDbLine
 10
4742.0739396956615
 20
4420.146056570573
 30
0.0
 11
4742.0739396956615
 21
4420.579124376287
 31
0.0
  0
LINE
  5
24F
330
17
100
AcDbEntity
  8
Hachura
 62
0
370
9
100
AcDbLine
 10
4740.139172331159
 20
4419.6117406940375
 30
0.0
 11
4740.139172331159
 21
4418.966818239203
 31
0.0
  0
LINE
  5
250
330
17
100
AcDbEntity
  8
Hachura
 62
0
370
9
100
AcDbLine
 10
4740.139172331159
 20
4420.772601108452
 30
0.0
 11
4740.139172331159
 21
4420.127678653618
 31
0.0
  0
LINE
  5
251
330
17
100
AcDbEntity
  8
Hachura
 62
0
370
9
100
AcDbLine
 10
4740.139172331159
 20
4418.450880268906
 30
0.0
 11
4742.0739396956615
 21
4419.418263951155
 31
0.0
  0
LINE
  5
252
330
17
100
AcDbEntity
  8
Hachura
 62
0
370
9
100
AcDbLine
 10
4740.066489000313
 20
4418.543523120175
 30
0.0
 11
4742.232101757871
 21
4419.626329456076
 31
0.0
  0
LINE
  5
253
330
17
100
AcDbEntity
  8
Hachura
 62
0
370
9
100
AcDbLine
 10
4742.173663867448
 20
4419.855079522812
 30
0.0
 11
4740.033086198783
 21
4418.784790677762
 31
0.0
  0
LINE
  5
254
330
17
100
AcDbEntity
  8
Hachura
 62
0
370
9
100
AcDbLine
 10
4742.0739396956615
 20
4419.934201921457
 30
0.0
 11
4740.139172331159
 21
4418.966818239203
 31
0.0
  0
LINE
  5
255
330
17
100
AcDbEntity
  8
Hachura
 62
0
370
9
100
AcDbLine
 10
4740.139172331159
 20
4420.772601108452
 30
0.0
 11
4742.0739396956615
 21
4421.739984790702
 31
0.0
  0
LINE
  5
256
330
17
100
AcDbEntity
  8
Hachura
 62
0
370
9
100
AcDbLine
 10
4740.139172331159
 20
4419.6117406940375
 30
0.0
 11
4742.0739396956615
 21
4420.579124376287
 31
0.0
  0
LINE
  5
257
330
17
100
AcDbEntity
  8
Hachura
 62
0
370
9
100
AcDbLine
 10
4740.066489000313
 20
4419.70438353459
 30
0.0
 11
4742.232101757871
 21
4420.787189870491
 31
0.0
  0
LINE
  5
258
330
17
100
AcDbEntity
  8
Hachura
 62
0
370
9
100
AcDbLine
 10
4742.173663867448
 20
4421.015939937226
 30
0.0
 11
4740.033086198783
 21
4419.945651092176
 31
0.0
  0
LINE
  5
259
330
17
100
AcDbEntity
  8
Hachura
 62
0
370
9
100
AcDbLine
 10
4742.0739396956615
 20
4421.095062335868
 30
0.0
 11
4740.139172331159
 21
4420.127678653618
 31
0.0
  0
LINE
  5
25A
330
17
100
AcDbEntity
  8
Hachura
 62
0
370
9
100
AcDbLine
 10
4741.816178025227
 20
4416.9676622656725
 30
0.0
 11
4742.0739396956615
 21
4417.09654312233
 31
0.0
  0
LINE
  5
25B
330
17
100
AcDbEntity
  8
Hachura
 62
0
370
9
100
AcDbLine
 10
4741.558209034717
 20
4416.9676622656725
 30
0.0
 11
4742.232101757871
 21
4417.304608627252
 31
0.0
  0
LINE
  5
25C
330
17
100
AcDbEntity
  8
Hachura
 62
0
370
9
100
AcDbLine
 10
4742.072147909941
 20
4416.969272362256
 30
0.0
 11
4741.749686682524
 21
4416.646811113397
 31
0.0
  0
LINE
  5
25D
330
17
100
AcDbEntity
  8
Hachura
 62
0
370
9
100
AcDbLine
 10
4742.0739396956615
 20
4417.612481081911
 30
0.0
 11
4742.0739396956615
 21
4418.257403536745
 31
0.0
  0
LINE
  5
25E
330
17
100
AcDbEntity
  8
Hachura
 62
0
370
9
100
AcDbLine
 10
4740.139172331159
 20
4417.290019854491
 30
0.0
 11
4740.139172331159
 21
4416.9676622656725
 31
0.0
  0
LINE
  5
25F
330
17
100
AcDbEntity
  8
Hachura
 62
0
370
9
100
AcDbLine
 10
4740.137295044668
 20
4416.969272340817
 30
0.0
 11
4740.459841772856
 21
4416.646811113397
 31
0.0
  0
LINE
  5
260
330
17
100
AcDbEntity
  8
Hachura
 62
0
370
9
100
AcDbLine
 10
4740.139172331159
 20
4419.178672899041
 30
0.0
 11
4740.139172331159
 21
4418.966818249925
 31
0.0
  0
LINE
  5
261
330
17
100
AcDbEntity
  8
Hachura
 62
0
370
9
100
AcDbLine
 10
4742.173663867448
 20
4417.533358693987
 30
0.0
 11
4741.0422710537
 21
4416.9676622656725
 31
0.0
  0
LINE
  5
262
330
17
100
AcDbEntity
  8
Hachura
 62
0
370
9
100
AcDbLine
 10
4742.0739396956615
 20
4417.612481081911
 30
0.0
 11
4740.784302106069
 21
4416.9676622656725
 31
0.0
  0
LINE
  5
263
330
17
100
AcDbEntity
  8
Hachura
 62
0
370
9
100
AcDbLine
 10
4740.459841772856
 20
4416.646811113397
 30
0.0
 11
4741.749686682524
 21
4416.646811113397
 31
0.0
  0
LINE
  5
264
330
17
100
AcDbEntity
  8
Hachura
 62
0
370
9
100
AcDbLine
 10
4740.139172331159
 20
4417.290019854491
 30
0.0
 11
4742.0739396956615
 21
4418.257403536745
 31
0.0
  0
LINE
  5
265
330
17
100
AcDbEntity
  8
Hachura
 62
0
370
9
100
AcDbLine
 10
4742.072147909941
 20
4416.969272362256
 30
0.0
 11
4740.137380545439
 21
4416.969272362256
 31
0.0
  0
LINE
  5
266
330
17
100
AcDbEntity
  8
Hachura
 62
0
370
9
100
AcDbLine
 10
4746.667503187786
 20
4428.447178318831
 30
0.0
 11
4738.852841443155
 21
4428.447178318831
 31
0.0
  0
LINE
  5
267
330
17
100
AcDbEntity
  8
Hachura
 62
0
370
9
100
AcDbLine
 10
4742.847846667189
 20
4421.739984790702
 30
0.0
 11
4739.494249876325
 21
4421.739984790702
 31
0.0
  0
LINE
  5
268
330
17
100
AcDbEntity
  8
Hachura
 62
0
370
9
100
AcDbLine
 10
4742.847846667189
 20
4421.80770164803
 30
0.0
 11
4739.494249876325
 21
4421.80770164803
 31
0.0
  0
LINE
  5
269
330
17
100
AcDbEntity
  8
Hachura
 62
0
370
9
100
AcDbLine
 10
4739.236280928693
 20
4424.964597064871
 30
0.0
 11
4743.105815657698
 21
4424.964597064871
 31
0.0
  0
LINE
  5
26A
330
17
100
AcDbEntity
  8
Hachura
 62
0
370
9
100
AcDbLine
 10
4734.721823744857
 20
4427.5442868842065
 30
0.0
 11
4747.620272841536
 21
4427.5442868842065
 31
0.0
  0
LINE
  5
26B
330
17
100
AcDbEntity
  8
Hachura
 62
0
370
9
100
AcDbLine
 10
4747.620272841536
 20
4428.447178318831
 30
0.0
 11
4734.72536550925
 21
4428.447178318831
 31
0.0
  0
LINE
  5
26C
330
17
100
AcDbEntity
  8
Hachura
 62
0
370
9
100
AcDbLine
 10
4740.526125838362
 20
4421.739984790702
 30
0.0
 11
4740.526125838362
 21
4424.964597064871
 31
0.0
  0
LINE
  5
26D
330
17
100
AcDbEntity
  8
Hachura
 62
0
370
9
100
AcDbLine
 10
4739.494249876325
 20
4421.739984790702
 30
0.0
 11
4739.494249876325
 21
4424.964597064871
 31
0.0
  0
LINE
  5
26E
330
17
100
AcDbEntity
  8
Hachura
 62
0
370
9
100
AcDbLine
 10
4741.171048293196
 20
4427.5442868842065
 30
0.0
 11
4739.236280928693
 21
4427.5442868842065
 31
0.0
  0
LINE
  5
26F
330
17
100
AcDbEntity
  8
Hachura
 62
0
370
9
100
AcDbLine
 10
4739.8812033835275
 20
4427.5442868842065
 30
0.0
 11
4740.526125838362
 21
4427.5442868842065
 31
0.0
  0
LINE
  5
270
330
17
100
AcDbEntity
  8
Hachura
 62
0
370
9
100
AcDbLine
 10
4741.165407930835
 20
4427.5442868842065
 30
0.0
 11
4741.165407930835
 21
4428.447178318831
 31
0.0
  0
LINE
  5
271
330
17
100
AcDbEntity
  8
Hachura
 62
0
370
9
100
AcDbLine
 10
4740.858866239486
 20
4427.5442868842065
 30
0.0
 11
4740.858866239486
 21
4425.545127694749
 31
0.0
  0
LINE
  5
272
330
17
100
AcDbEntity
  8
Hachura
 62
0
370
9
100
AcDbLine
 10
4741.374804220505
 20
4425.545127694749
 30
0.0
 11
4741.374804220505
 21
4427.5442868842065
 31
0.0
  0
LINE
  5
273
330
17
100
AcDbEntity
  8
Hachura
 62
0
370
9
100
AcDbLine
 10
4738.131171669464
 20
4427.526012327139
 30
0.0
 11
4738.131171669464
 21
4428.453235002221
 31
0.0
  0
LINE
  5
274
330
17
100
AcDbEntity
  8
Hachura
 62
0
370
9
100
AcDbLine
 10
4740.211432660448
 20
4428.297132440908
 30
0.0
 11
4740.211432660448
 21
4427.864064635189
 31
0.0
  0
LINE
  5
275
330
17
100
AcDbEntity
  8
Hachura
 62
0
370
9
100
AcDbLine
 10
4739.236280928693
 20
4427.5442868842065
 30
0.0
 11
4739.236280928693
 21
4424.964597064871
 31
0.0
  0
LINE
  5
276
330
17
100
AcDbEntity
  8
Hachura
 62
0
370
9
100
AcDbLine
 10
4740.211432660448
 20
4427.864064635189
 30
0.0
 11
4740.211432660448
 21
4427.652209986074
 31
0.0
  0
LINE
  5
277
330
17
100
AcDbEntity
  8
Hachura
 62
0
370
9
100
AcDbLine
 10
4734.72536550925
 20
4428.447178318831
 30
0.0
 11
4734.72536550925
 21
4423.310509736745
 31
0.0
  0
LINE
  5
278
330
17
100
AcDbEntity
  8
Hachura
 62
0
370
9
100
AcDbLine
 10
4736.39862211885
 20
4423.287798680159
 30
0.0
 11
4736.980282192904
 21
4425.498106998012
 31
0.0
  0
LINE
  5
279
330
17
100
AcDbEntity
  8
Hachura
 62
0
370
9
100
AcDbLine
 10
4734.721823744857
 20
4423.287798680159
 30
0.0
 11
4736.39862211885
 21
4423.287798680159
 31
0.0
  0
LINE
  5
27A
330
17
100
AcDbEntity
  8
Hachura
 62
0
370
9
100
AcDbLine
 10
4737.2921262312775
 20
4425.738504004241
 30
0.0
 11
4739.236280928693
 21
4425.738504004241
 31
0.0
  0
LINE
  5
27B
330
17
100
AcDbEntity
  8
Hachura
 62
0
370
9
100
AcDbLine
 10
4734.721823744857
 20
4427.5442868842065
 30
0.0
 11
4739.8812033835275
 21
4427.5442868842065
 31
0.0
  0
LINE
  5
27C
330
17
100
AcDbEntity
  8
Hachura
 62
0
370
9
100
AcDbLine
 10
4745.943474424665
 20
4423.287798680159
 30
0.0
 11
4745.36181435061
 21
4425.498106998012
 31
0.0
  0
LINE
  5
27D
330
17
100
AcDbEntity
  8
Hachura
 62
0
370
9
100
AcDbLine
 10
4742.847846667189
 20
4424.964597064871
 30
0.0
 11
4742.847846667189
 21
4421.739984790702
 31
0.0
  0
LINE
  5
27E
330
17
100
AcDbEntity
  8
Hachura
 62
0
370
9
100
AcDbLine
 10
4742.0739396956615
 20
4421.739984790702
 30
0.0
 11
4742.0739396956615
 21
4424.964597064871
 31
0.0
  0
LINE
  5
27F
330
17
100
AcDbEntity
  8
Hachura
 62
0
370
9
100
AcDbLine
 10
4744.197186263674
 20
4427.526012327139
 30
0.0
 11
4744.197186263674
 21
4428.447178318831
 31
0.0
  0
LINE
  5
280
330
17
100
AcDbEntity
  8
Hachura
 62
0
370
9
100
AcDbLine
 10
4742.14620002495
 20
4427.670587903027
 30
0.0
 11
4742.14620002495
 21
4428.103655698025
 31
0.0
  0
LINE
  5
281
330
17
100
AcDbEntity
  8
Hachura
 62
0
370
9
100
AcDbLine
 10
4745.629439868539
 20
4427.526012327139
 30
0.0
 11
4745.629439868539
 21
4428.453235002221
 31
0.0
  0
LINE
  5
282
330
17
100
AcDbEntity
  8
Hachura
 62
0
370
9
100
AcDbLine
 10
4743.105815657698
 20
4424.964597064871
 30
0.0
 11
4743.105815657698
 21
4427.5442868842065
 31
0.0
  0
LINE
  5
283
330
17
100
AcDbEntity
  8
Hachura
 62
0
370
9
100
AcDbLine
 10
4743.105815657698
 20
4424.964597064871
 30
0.0
 11
4742.847846667189
 21
4424.964597064871
 31
0.0
  0
LINE
  5
284
330
17
100
AcDbEntity
  8
Hachura
 62
0
370
9
100
AcDbLine
 10
4743.105815657698
 20
4424.964597064871
 30
0.0
 11
4742.847846667189
 21
4424.964597064871
 31
0.0
  0
LINE
  5
285
330
17
100
AcDbEntity
  8
Hachura
 62
0
370
9
100
AcDbLine
 10
4745.049970312234
 20
4425.738504004241
 30
0.0
 11
4743.101933734019
 21
4425.738504004241
 31
0.0
  0
LINE
  5
286
330
17
100
AcDbEntity
  8
Hachura
 62
0
370
9
100
AcDbLine
 10
4747.620272841536
 20
4427.5442868842065
 30
0.0
 11
4747.620272841536
 21
4423.287798680159
 31
0.0
  0
LINE
  5
287
330
17
100
AcDbEntity
  8
Hachura
 62
0
370
9
100
AcDbLine
 10
4747.620272841536
 20
4427.5442868842065
 30
0.0
 11
4747.620272841536
 21
4428.447178318831
 31
0.0
  0
LINE
  5
288
330
17
100
AcDbEntity
  8
Hachura
 62
0
370
9
100
AcDbLine
 10
4746.471941784741
 20
4427.526012327139
 30
0.0
 11
4746.471941784741
 21
4428.453235002221
 31
0.0
  0
LINE
  5
289
330
17
100
AcDbEntity
  8
Hachura
 62
0
370
9
100
AcDbLine
 10
4746.9353180166
 20
4427.526012327139
 30
0.0
 11
4746.9353180166
 21
4428.453235002221
 31
0.0
  0
LINE
  5
28A
330
17
100
AcDbEntity
  8
Hachura
 62
0
370
9
100
AcDbLine
 10
4747.272318748777
 20
4427.526012327139
 30
0.0
 11
4747.272318748777
 21
4428.453235002221
 31
0.0
  0
LINE
  5
28B
330
17
100
AcDbEntity
  8
Hachura
 62
0
370
9
100
AcDbLine
 10
4747.482944495822
 20
4427.526012327139
 30
0.0
 11
4747.482944495822
 21
4428.453235002221
 31
0.0
  0
LINE
  5
28C
330
17
100
AcDbEntity
  8
Hachura
 62
0
370
9
100
AcDbLine
 10
4747.620272841536
 20
4423.287798680159
 30
0.0
 11
4745.943474424665
 21
4423.287798680159
 31
0.0
  0
LINE
  5
28D
330
17
100
AcDbEntity
  8
Hachura
 62
0
370
9
100
AcDbLine
 10
4741.30003274815
 20
4421.739984790702
 30
0.0
 11
4740.033086195185
 21
4421.106511507875
 31
0.0
  0
LINE
  5
28E
330
17
100
AcDbEntity
  8
Hachura
 62
0
370
9
100
AcDbLine
 10
4741.042063770332
 20
4421.739984790702
 30
0.0
 11
4740.139172327561
 21
4421.288539069316
 31
0.0
  0
LINE
  5
28F
330
17
100
AcDbEntity
  8
Hachura
 62
0
370
9
100
AcDbLine
 10
4740.13917232756
 20
4421.739984790702
 30
0.0
 11
4740.13917232756
 21
4421.288539069316
 31
0.0
  0
LINE
  5
290
330
17
100
AcDbEntity
  8
Hachura
 62
0
370
9
100
AcDbLine
 10
4736.716198482247
 20
4427.526012327139
 30
0.0
 11
4736.716198482247
 21
4428.453235002221
 31
0.0
  0
LINE
  5
291
330
17
100
AcDbEntity
  8
Hachura
 62
0
370
9
100
AcDbLine
 10
4735.873696566045
 20
4427.526012327139
 30
0.0
 11
4735.873696566045
 21
4428.453235002221
 31
0.0
  0
LINE
  5
292
330
17
100
AcDbEntity
  8
Hachura
 62
0
370
9
100
AcDbLine
 10
4735.410320334186
 20
4427.526012327139
 30
0.0
 11
4735.410320334186
 21
4428.453235002221
 31
0.0
  0
LINE
  5
293
330
17
100
AcDbEntity
  8
Hachura
 62
0
370
9
100
AcDbLine
 10
4735.073319602008
 20
4427.526012327139
 30
0.0
 11
4735.073319602008
 21
4428.453235002221
 31
0.0
  0
LINE
  5
294
330
17
100
AcDbEntity
  8
Hachura
 62
0
370
9
100
AcDbLine
 10
4734.862693854963
 20
4427.526012327139
 30
0.0
 11
4734.862693854963
 21
4428.453235002221
 31
0.0
  0
LINE
  5
295
330
17
100
AcDbEntity
  8
Hachura
 62
0
370
9
100
AcDbLine
 10
4824.138856040451
 20
4552.443476290874
 30
0.0
 11
4824.138856040451
 21
4553.088398745708
 31
0.0
  0
LINE
  5
296
330
17
100
AcDbEntity
  8
Hachura
 62
0
370
9
100
AcDbLine
 10
4824.138856040451
 20
4553.604336705289
 30
0.0
 11
4826.073623404954
 21
4552.636953023035
 31
0.0
  0
LINE
  5
297
330
17
100
AcDbEntity
  8
Hachura
 62
0
370
9
100
AcDbLine
 10
4824.066172709605
 20
4553.511693864736
 30
0.0
 11
4826.231785467163
 21
4552.428887528836
 31
0.0
  0
LINE
  5
298
330
17
100
AcDbEntity
  8
Hachura
 62
0
370
9
100
AcDbLine
 10
4826.1733475767405
 20
4552.200137451378
 30
0.0
 11
4824.032769908075
 21
4553.27042630715
 31
0.0
  0
LINE
  5
299
330
17
100
AcDbEntity
  8
Hachura
 62
0
370
9
100
AcDbLine
 10
4826.073623404954
 20
4552.12101506346
 30
0.0
 11
4824.138856040451
 21
4553.088398745708
 31
0.0
  0
LINE
  5
29A
330
17
100
AcDbEntity
  8
Hachura
 62
0
370
9
100
AcDbLine
 10
4826.073623404954
 20
4551.476092608626
 30
0.0
 11
4826.073623404954
 21
4552.12101506346
 31
0.0
  0
LINE
  5
29B
330
17
100
AcDbEntity
  8
Hachura
 62
0
370
9
100
AcDbLine
 10
4826.073623404954
 20
4549.7992942239125
 30
0.0
 11
4826.073623404954
 21
4549.154371769078
 31
0.0
  0
LINE
  5
29C
330
17
100
AcDbEntity
  8
Hachura
 62
0
370
9
100
AcDbLine
 10
4826.073623404954
 20
4550.748299989207
 30
0.0
 11
4826.073623404954
 21
4550.960154638323
 31
0.0
  0
LINE
  5
29D
330
17
100
AcDbEntity
  8
Hachura
 62
0
370
9
100
AcDbLine
 10
4826.073623404954
 20
4550.748299989207
 30
0.0
 11
4826.073623404954
 21
4550.315232183493
 31
0.0
  0
LINE
  5
29E
330
17
100
AcDbEntity
  8
Hachura
 62
0
370
9
100
AcDbLine
 10
4824.138856040451
 20
4551.282615865743
 30
0.0
 11
4824.138856040451
 21
4551.927538320577
 31
0.0
  0
LINE
  5
29F
330
17
100
AcDbEntity
  8
Hachura
 62
0
370
9
100
AcDbLine
 10
4824.138856040451
 20
4550.121755451328
 30
0.0
 11
4824.138856040451
 21
4550.766677906162
 31
0.0
  0
LINE
  5
2A0
330
17
100
AcDbEntity
  8
Hachura
 62
0
370
9
100
AcDbLine
 10
4824.138856040451
 20
4552.443476290874
 30
0.0
 11
4826.073623404954
 21
4551.476092608626
 31
0.0
  0
LINE
  5
2A1
330
17
100
AcDbEntity
  8
Hachura
 62
0
370
9
100
AcDbLine
 10
4824.066172709605
 20
4552.350833439605
 30
0.0
 11
4826.231785467163
 21
4551.268027103704
 31
0.0
  0
LINE
  5
2A2
330
17
100
AcDbEntity
  8
Hachura
 62
0
370
9
100
AcDbLine
 10
4826.1733475767405
 20
4551.039277036968
 30
0.0
 11
4824.032769908075
 21
4552.109565882018
 31
0.0
  0
LINE
  5
2A3
330
17
100
AcDbEntity
  8
Hachura
 62
0
370
9
100
AcDbLine
 10
4826.073623404954
 20
4550.960154638323
 30
0.0
 11
4824.138856040451
 21
4551.927538320577
 31
0.0
  0
LINE
  5
2A4
330
17
100
AcDbEntity
  8
Hachura
 62
0
370
9
100
AcDbLine
 10
4824.138856040451
 20
4550.121755451328
 30
0.0
 11
4826.073623404954
 21
4549.154371769078
 31
0.0
  0
LINE
  5
2A5
330
17
100
AcDbEntity
  8
Hachura
 62
0
370
9
100
AcDbLine
 10
4824.138856040451
 20
4551.282615865743
 30
0.0
 11
4826.073623404954
 21
4550.315232183493
 31
0.0
  0
LINE
  5
2A6
330
17
100
AcDbEntity
  8
Hachura
 62
0
370
9
100
AcDbLine
 10
4824.066172709605
 20
4551.18997302519
 30
0.0
 11
4826.231785467163
 21
4550.107166689289
 31
0.0
  0
LINE
  5
2A7
330
17
100
AcDbEntity
  8
Hachura
 62
0
370
9
100
AcDbLine
 10
4826.1733475767405
 20
4549.878416622554
 30
0.0
 11
4824.032769908075
 21
4550.948705467604
 31
0.0
  0
LINE
  5
2A8
330
17
100
AcDbEntity
  8
Hachura
 62
0
370
9
100
AcDbLine
 10
4826.073623404954
 20
4549.7992942239125
 30
0.0
 11
4824.138856040451
 21
4550.766677906162
 31
0.0
  0
LINE
  5
2A9
330
17
100
AcDbEntity
  8
Hachura
 62
0
370
9
100
AcDbLine
 10
4825.815861734519
 20
4553.926694294108
 30
0.0
 11
4826.073623404954
 21
4553.79781343745
 31
0.0
  0
LINE
  5
2AA
330
17
100
AcDbEntity
  8
Hachura
 62
0
370
9
100
AcDbLine
 10
4825.557892744009
 20
4553.926694294108
 30
0.0
 11
4826.231785467163
 21
4553.589747932529
 31
0.0
  0
LINE
  5
2AB
330
17
100
AcDbEntity
  8
Hachura
 62
0
370
9
100
AcDbLine
 10
4826.071831619233
 20
4553.9250841975245
 30
0.0
 11
4825.749370391816
 21
4554.247545446383
 31
0.0
  0
LINE
  5
2AC
330
17
100
AcDbEntity
  8
Hachura
 62
0
370
9
100
AcDbLine
 10
4826.073623404954
 20
4553.281875477869
 30
0.0
 11
4826.073623404954
 21
4552.636953023035
 31
0.0
  0
LINE
  5
2AD
330
17
100
AcDbEntity
  8
Hachura
 62
0
370
9
100
AcDbLine
 10
4824.138856040451
 20
4553.604336705289
 30
0.0
 11
4824.138856040451
 21
4553.926694294108
 31
0.0
  0
LINE
  5
2AE
330
17
100
AcDbEntity
  8
Hachura
 62
0
370
9
100
AcDbLine
 10
4824.13697875396
 20
4553.925084218963
 30
0.0
 11
4824.459525482148
 21
4554.247545446383
 31
0.0
  0
LINE
  5
2AF
330
17
100
AcDbEntity
  8
Hachura
 62
0
370
9
100
AcDbLine
 10
4824.138856040451
 20
4551.715683660739
 30
0.0
 11
4824.138856040451
 21
4551.927538309855
 31
0.0
  0
LINE
  5
2B0
330
17
100
AcDbEntity
  8
Hachura
 62
0
370
9
100
AcDbLine
 10
4826.1733475767405
 20
4553.360997865793
 30
0.0
 11
4825.041954762992
 21
4553.926694294108
 31
0.0
  0
LINE
  5
2B1
330
17
100
AcDbEntity
  8
Hachura
 62
0
370
9
100
AcDbLine
 10
4826.073623404954
 20
4553.281875477869
 30
0.0
 11
4824.783985815361
 21
4553.926694294108
 31
0.0
  0
LINE
  5
2B2
330
17
100
AcDbEntity
  8
Hachura
 62
0
370
9
100
AcDbLine
 10
4824.459525482148
 20
4554.247545446383
 30
0.0
 11
4825.749370391816
 21
4554.247545446383
 31
0.0
  0
LINE
  5
2B3
330
17
100
AcDbEntity
  8
Hachura
 62
0
370
9
100
AcDbLine
 10
4824.138856040451
 20
4553.604336705289
 30
0.0
 11
4826.073623404954
 21
4552.636953023035
 31
0.0
  0
LINE
  5
2B4
330
17
100
AcDbEntity
  8
Hachura
 62
0
370
9
100
AcDbLine
 10
4826.071831619233
 20
4553.9250841975245
 30
0.0
 11
4824.137064254731
 21
4553.9250841975245
 31
0.0
  0
LINE
  5
2B5
330
17
100
AcDbEntity
  8
Hachura
 62
0
370
9
100
AcDbLine
 10
4830.667186897078
 20
4542.447178240949
 30
0.0
 11
4822.852525152447
 21
4542.447178240949
 31
0.0
  0
LINE
  5
2B6
330
17
100
AcDbEntity
  8
Hachura
 62
0
370
9
100
AcDbLine
 10
4826.847530376481
 20
4549.154371769078
 30
0.0
 11
4823.493933585617
 21
4549.154371769078
 31
0.0
  0
LINE
  5
2B7
330
17
100
AcDbEntity
  8
Hachura
 62
0
370
9
100
AcDbLine
 10
4826.847530376481
 20
4549.08665491175
 30
0.0
 11
4823.493933585617
 21
4549.08665491175
 31
0.0
  0
LINE
  5
2B8
330
17
100
AcDbEntity
  8
Hachura
 62
0
370
9
100
AcDbLine
 10
4823.2359646379855
 20
4545.929759494909
 30
0.0
 11
4827.10549936699
 21
4545.929759494909
 31
0.0
  0
LINE
  5
2B9
330
17
100
AcDbEntity
  8
Hachura
 62
0
370
9
100
AcDbLine
 10
4818.721507454149
 20
4543.350069675574
 30
0.0
 11
4831.619956550828
 21
4543.350069675574
 31
0.0
  0
LINE
  5
2BA
330
17
100
AcDbEntity
  8
Hachura
 62
0
370
9
100
AcDbLine
 10
4831.619956550828
 20
4542.447178240949
 30
0.0
 11
4818.725049218542
 21
4542.447178240949
 31
0.0
  0
LINE
  5
2BB
330
17
100
AcDbEntity
  8
Hachura
 62
0
370
9
100
AcDbLine
 10
4824.525809547654
 20
4549.154371769078
 30
0.0
 11
4824.525809547654
 21
4545.929759494909
 31
0.0
  0
LINE
  5
2BC
330
17
100
AcDbEntity
  8
Hachura
 62
0
370
9
100
AcDbLine
 10
4823.493933585617
 20
4549.154371769078
 30
0.0
 11
4823.493933585617
 21
4545.929759494909
 31
0.0
  0
LINE
  5
2BD
330
17
100
AcDbEntity
  8
Hachura
 62
0
370
9
100
AcDbLine
 10
4825.170732002488
 20
4543.350069675574
 30
0.0
 11
4823.2359646379855
 21
4543.350069675574
 31
0.0
  0
LINE
  5
2BE
330
17
100
AcDbEntity
  8
Hachura
 62
0
370
9
100
AcDbLine
 10
4823.88088709282
 20
4543.350069675574
 30
0.0
 11
4824.525809547654
 21
4543.350069675574
 31
0.0
  0
LINE
  5
2BF
330
17
100
AcDbEntity
  8
Hachura
 62
0
370
9
100
AcDbLine
 10
4825.165091640127
 20
4543.350069675574
 30
0.0
 11
4825.165091640127
 21
4542.447178240949
 31
0.0
  0
LINE
  5
2C0
330
17
100
AcDbEntity
  8
Hachura
 62
0
370
9
100
AcDbLine
 10
4824.858549948778
 20
4543.350069675574
 30
0.0
 11
4824.858549948778
 21
4545.349228865031
 31
0.0
  0
LINE
  5
2C1
330
17
100
AcDbEntity
  8
Hachura
 62
0
370
9
100
AcDbLine
 10
4825.374487929797
 20
4545.349228865031
 30
0.0
 11
4825.374487929797
 21
4543.350069675574
 31
0.0
  0
LINE
  5
2C2
330
17
100
AcDbEntity
  8
Hachura
 62
0
370
9
100
AcDbLine
 10
4822.130855378756
 20
4543.368344232641
 30
0.0
 11
4822.130855378756
 21
4542.441121557559
 31
0.0
  0
LINE
  5
2C3
330
17
100
AcDbEntity
  8
Hachura
 62
0
370
9
100
AcDbLine
 10
4824.21111636974
 20
4542.597224118872
 30
0.0
 11
4824.21111636974
 21
4543.030291924591
 31
0.0
  0
LINE
  5
2C4
330
17
100
AcDbEntity
  8
Hachura
 62
0
370
9
100
AcDbLine
 10
4823.2359646379855
 20
4543.350069675574
 30
0.0
 11
4823.2359646379855
 21
4545.929759494909
 31
0.0
  0
LINE
  5
2C5
330
17
100
AcDbEntity
  8
Hachura
 62
0
370
9
100
AcDbLine
 10
4824.21111636974
 20
4543.030291924591
 30
0.0
 11
4824.21111636974
 21
4543.242146573706
 31
0.0
  0
LINE
  5
2C6
330
17
100
AcDbEntity
  8
Hachura
 62
0
370
9
100
AcDbLine
 10
4818.725049218542
 20
4542.447178240949
 30
0.0
 11
4818.725049218542
 21
4547.583846823035
 31
0.0
  0
LINE
  5
2C7
330
17
100
AcDbEntity
  8
Hachura
 62
0
370
9
100
AcDbLine
 10
4820.398305828142
 20
4547.6065578796215
 30
0.0
 11
4820.979965902196
 21
4545.396249561768
 31
0.0
  0
LINE
  5
2C8
330
17
100
AcDbEntity
  8
Hachura
 62
0
370
9
100
AcDbLine
 10
4818.721507454149
 20
4547.6065578796215
 30
0.0
 11
4820.398305828142
 21
4547.6065578796215
 31
0.0
  0
LINE
  5
2C9
330
17
100
AcDbEntity
  8
Hachura
 62
0
370
9
100
AcDbLine
 10
4821.29180994057
 20
4545.155852555539
 30
0.0
 11
4823.2359646379855
 21
4545.155852555539
 31
0.0
  0
LINE
  5
2CA
330
17
100
AcDbEntity
  8
Hachura
 62
0
370
9
100
AcDbLine
 10
4818.721507454149
 20
4543.350069675574
 30
0.0
 11
4823.88088709282
 21
4543.350069675574
 31
0.0
  0
LINE
  5
2CB
330
17
100
AcDbEntity
  8
Hachura
 62
0
370
9
100
AcDbLine
 10
4829.943158133957
 20
4547.6065578796215
 30
0.0
 11
4829.361498059902
 21
4545.396249561768
 31
0.0
  0
LINE
  5
2CC
330
17
100
AcDbEntity
  8
Hachura
 62
0
370
9
100
AcDbLine
 10
4826.847530376481
 20
4545.929759494909
 30
0.0
 11
4826.847530376481
 21
4549.154371769078
 31
0.0
  0
LINE
  5
2CD
330
17
100
AcDbEntity
  8
Hachura
 62
0
370
9
100
AcDbLine
 10
4826.073623404954
 20
4549.154371769078
 30
0.0
 11
4826.073623404954
 21
4545.929759494909
 31
0.0
  0
LINE
  5
2CE
330
17
100
AcDbEntity
  8
Hachura
 62
0
370
9
100
AcDbLine
 10
4828.196869972966
 20
4543.368344232641
 30
0.0
 11
4828.196869972966
 21
4542.447178240949
 31
0.0
  0
LINE
  5
2CF
330
17
100
AcDbEntity
  8
Hachura
 62
0
370
9
100
AcDbLine
 10
4826.1458837342425
 20
4543.223768656753
 30
0.0
 11
4826.1458837342425
 21
4542.790700861755
 31
0.0
  0
LINE
  5
2D0
330
17
100
AcDbEntity
  8
Hachura
 62
0
370
9
100
AcDbLine
 10
4829.629123577831
 20
4543.368344232641
 30
0.0
 11
4829.629123577831
 21
4542.441121557559
 31
0.0
  0
LINE
  5
2D1
330
17
100
AcDbEntity
  8
Hachura
 62
0
370
9
100
AcDbLine
 10
4827.10549936699
 20
4545.929759494909
 30
0.0
 11
4827.10549936699
 21
4543.350069675574
 31
0.0
  0
LINE
  5
2D2
330
17
100
AcDbEntity
  8
Hachura
 62
0
370
9
100
AcDbLine
 10
4827.10549936699
 20
4545.929759494909
 30
0.0
 11
4826.847530376481
 21
4545.929759494909
 31
0.0
  0
LINE
  5
2D3
330
17
100
AcDbEntity
  8
Hachura
 62
0
370
9
100
AcDbLine
 10
4827.10549936699
 20
4545.929759494909
 30
0.0
 11
4826.847530376481
 21
4545.929759494909
 31
0.0
  0
LINE
  5
2D4
330
17
100
AcDbEntity
  8
Hachura
 62
0
370
9
100
AcDbLine
 10
4829.049654021526
 20
4545.155852555539
 30
0.0
 11
4827.101617443312
 21
4545.155852555539
 31
0.0
  0
LINE
  5
2D5
330
17
100
AcDbEntity
  8
Hachura
 62
0
370
9
100
AcDbLine
 10
4831.619956550828
 20
4543.350069675574
 30
0.0
 11
4831.619956550828
 21
4547.6065578796215
 31
0.0
  0
LINE
  5
2D6
330
17
100
AcDbEntity
  8
Hachura
 62
0
370
9
100
AcDbLine
 10
4831.619956550828
 20
4543.350069675574
 30
0.0
 11
4831.619956550828
 21
4542.447178240949
 31
0.0
  0
LINE
  5
2D7
330
17
100
AcDbEntity
  8
Hachura
 62
0
370
9
100
AcDbLine
 10
4830.471625494033
 20
4543.368344232641
 30
0.0
 11
4830.471625494033
 21
4542.441121557559
 31
0.0
  0
LINE
  5
2D8
330
17
100
AcDbEntity
  8
Hachura
 62
0
370
9
100
AcDbLine
 10
4830.935001725892
 20
4543.368344232641
 30
0.0
 11
4830.935001725892
 21
4542.441121557559
 31
0.0
  0
LINE
  5
2D9
330
17
100
AcDbEntity
  8
Hachura
 62
0
370
9
100
AcDbLine
 10
4831.272002458069
 20
4543.368344232641
 30
0.0
 11
4831.272002458069
 21
4542.441121557559
 31
0.0
  0
LINE
  5
2DA
330
17
100
AcDbEntity
  8
Hachura
 62
0
370
9
100
AcDbLine
 10
4831.482628205114
 20
4543.368344232641
 30
0.0
 11
4831.482628205114
 21
4542.441121557559
 31
0.0
  0
LINE
  5
2DB
330
17
100
AcDbEntity
  8
Hachura
 62
0
370
9
100
AcDbLine
 10
4831.619956550828
 20
4547.6065578796215
 30
0.0
 11
4829.943158133957
 21
4547.6065578796215
 31
0.0
  0
LINE
  5
2DC
330
17
100
AcDbEntity
  8
Hachura
 62
0
370
9
100
AcDbLine
 10
4825.299716457443
 20
4549.154371769078
 30
0.0
 11
4824.032769904477
 21
4549.787845051905
 31
0.0
  0
LINE
  5
2DD
330
17
100
AcDbEntity
  8
Hachura
 62
0
370
9
100
AcDbLine
 10
4825.041747479624
 20
4549.154371769078
 30
0.0
 11
4824.138856036853
 21
4549.605817490464
 31
0.0
  0
LINE
  5
2DE
330
17
100
AcDbEntity
  8
Hachura
 62
0
370
9
100
AcDbLine
 10
4824.138856036852
 20
4549.154371769078
 30
0.0
 11
4824.138856036852
 21
4549.605817490464
 31
0.0
  0
LINE
  5
2DF
330
17
100
AcDbEntity
  8
Hachura
 62
0
370
9
100
AcDbLine
 10
4820.715882191539
 20
4543.368344232641
 30
0.0
 11
4820.715882191539
 21
4542.441121557559
 31
0.0
  0
LINE
  5
2E0
330
17
100
AcDbEntity
  8
Hachura
 62
0
370
9
100
AcDbLine
 10
4819.873380275337
 20
4543.368344232641
 30
0.0
 11
4819.873380275337
 21
4542.441121557559
 31
0.0
  0
LINE
  5
2E1
330
17
100
AcDbEntity
  8
Hachura
 62
0
370
9
100
AcDbLine
 10
4819.410004043478
 20
4543.368344232641
 30
0.0
 11
4819.410004043478
 21
4542.441121557559
 31
0.0
  0
LINE
  5
2E2
330
17
100
AcDbEntity
  8
Hachura
 62
0
370
9
100
AcDbLine
 10
4819.0730033113
 20
4543.368344232641
 30
0.0
 11
4819.0730033113
 21
4542.441121557559
 31
0.0
  0
LINE
  5
2E3
330
17
100
AcDbEntity
  8
Hachura
 62
0
370
9
100
AcDbLine
 10
4818.862377564255
 20
4543.368344232641
 30
0.0
 11
4818.862377564255
 21
4542.441121557559
 31
0.0
  0
LINE
  5
2E4
330
17
100
AcDbEntity
  8
Hachura
 62
0
370
9
100
AcDbLine
 10
4824.13947830459
 20
4418.450880268906
 30
0.0
 11
4824.13947830459
 21
4417.805957814072
 31
0.0
  0
LINE
  5
2E5
330
17
100
AcDbEntity
  8
Hachura
 62
0
370
9
100
AcDbLine
 10
4824.13947830459
 20
4417.290019854491
 30
0.0
 11
4826.074245669092
 21
4418.257403536745
 31
0.0
  0
LINE
  5
2E6
330
17
100
AcDbEntity
  8
Hachura
 62
0
370
9
100
AcDbLine
 10
4824.0667949737435
 20
4417.382662695044
 30
0.0
 11
4826.2324077313015
 21
4418.465469030944
 31
0.0
  0
LINE
  5
2E7
330
17
100
AcDbEntity
  8
Hachura
 62
0
370
9
100
AcDbLine
 10
4826.173969840879
 20
4418.694219108402
 30
0.0
 11
4824.033392172214
 21
4417.62393025263
 31
0.0
  0
LINE
  5
2E8
330
17
100
AcDbEntity
  8
Hachura
 62
0
370
9
100
AcDbLine
 10
4826.074245669092
 20
4418.77334149632
 30
0.0
 11
4824.13947830459
 21
4417.805957814072
 31
0.0
  0
LINE
  5
2E9
330
17
100
AcDbEntity
  8
Hachura
 62
0
370
9
100
AcDbLine
 10
4826.074245669092
 20
4419.418263951155
 30
0.0
 11
4826.074245669092
 21
4418.77334149632
 31
0.0
  0
LINE
  5
2EA
330
17
100
AcDbEntity
  8
Hachura
 62
0
370
9
100
AcDbLine
 10
4826.074245669092
 20
4421.095062335868
 30
0.0
 11
4826.074245669092
 21
4421.739984790702
 31
0.0
  0
LINE
  5
2EB
330
17
100
AcDbEntity
  8
Hachura
 62
0
370
9
100
AcDbLine
 10
4826.074245669092
 20
4420.146056570573
 30
0.0
 11
4826.074245669092
 21
4419.934201921457
 31
0.0
  0
LINE
  5
2EC
330
17
100
AcDbEntity
  8
Hachura
 62
0
370
9
100
AcDbLine
 10
4826.074245669092
 20
4420.146056570573
 30
0.0
 11
4826.074245669092
 21
4420.579124376287
 31
0.0
  0
LINE
  5
2ED
330
17
100
AcDbEntity
  8
Hachura
 62
0
370
9
100
AcDbLine
 10
4824.13947830459
 20
4419.6117406940375
 30
0.0
 11
4824.13947830459
 21
4418.966818239203
 31
0.0
  0
LINE
  5
2EE
330
17
100
AcDbEntity
  8
Hachura
 62
0
370
9
100
AcDbLine
 10
4824.13947830459
 20
4420.772601108452
 30
0.0
 11
4824.13947830459
 21
4420.127678653618
 31
0.0
  0
LINE
  5
2EF
330
17
100
AcDbEntity
  8
Hachura
 62
0
370
9
100
AcDbLine
 10
4824.13947830459
 20
4418.450880268906
 30
0.0
 11
4826.074245669092
 21
4419.418263951155
 31
0.0
  0
LINE
  5
2F0
330
17
100
AcDbEntity
  8
Hachura
 62
0
370
9
100
AcDbLine
 10
4824.0667949737435
 20
4418.543523120175
 30
0.0
 11
4826.2324077313015
 21
4419.626329456076
 31
0.0
  0
LINE
  5
2F1
330
17
100
AcDbEntity
  8
Hachura
 62
0
370
9
100
AcDbLine
 10
4826.173969840879
 20
4419.855079522812
 30
0.0
 11
4824.033392172214
 21
4418.784790677762
 31
0.0
  0
LINE
  5
2F2
330
17
100
AcDbEntity
  8
Hachura
 62
0
370
9
100
AcDbLine
 10
4826.074245669092
 20
4419.934201921457
 30
0.0
 11
4824.13947830459
 21
4418.966818239203
 31
0.0
  0
LINE
  5
2F3
330
17
100
AcDbEntity
  8
Hachura
 62
0
370
9
100
AcDbLine
 10
4824.13947830459
 20
4420.772601108452
 30
0.0
 11
4826.074245669092
 21
4421.739984790702
 31
0.0
  0
LINE
  5
2F4
330
17
100
AcDbEntity
  8
Hachura
 62
0
370
9
100
AcDbLine
 10
4824.13947830459
 20
4419.6117406940375
 30
0.0
 11
4826.074245669092
 21
4420.579124376287
 31
0.0
  0
LINE
  5
2F5
330
17
100
AcDbEntity
  8
Hachura
 62
0
370
9
100
AcDbLine
 10
4824.0667949737435
 20
4419.70438353459
 30
0.0
 11
4826.2324077313015
 21
4420.787189870491
 31
0.0
  0
LINE
  5
2F6
330
17
100
AcDbEntity
  8
Hachura
 62
0
370
9
100
AcDbLine
 10
4826.173969840879
 20
4421.015939937226
 30
0.0
 11
4824.033392172214
 21
4419.945651092176
 31
0.0
  0
LINE
  5
2F7
330
17
100
AcDbEntity
  8
Hachura
 62
0
370
9
100
AcDbLine
 10
4826.074245669092
 20
4421.095062335868
 30
0.0
 11
4824.13947830459
 21
4420.127678653618
 31
0.0
  0
LINE
  5
2F8
330
17
100
AcDbEntity
  8
Hachura
 62
0
370
9
100
AcDbLine
 10
4825.8164839986575
 20
4416.9676622656725
 30
0.0
 11
4826.074245669092
 21
4417.09654312233
 31
0.0
  0
LINE
  5
2F9
330
17
100
AcDbEntity
  8
Hachura
 62
0
370
9
100
AcDbLine
 10
4825.558515008148
 20
4416.9676622656725
 30
0.0
 11
4826.2324077313015
 21
4417.304608627252
 31
0.0
  0
LINE
  5
2FA
330
17
100
AcDbEntity
  8
Hachura
 62
0
370
9
100
AcDbLine
 10
4826.072453883372
 20
4416.969272362256
 30
0.0
 11
4825.749992655955
 21
4416.646811113397
 31
0.0
  0
LINE
  5
2FB
330
17
100
AcDbEntity
  8
Hachura
 62
0
370
9
100
AcDbLine
 10
4826.074245669092
 20
4417.612481081911
 30
0.0
 11
4826.074245669092
 21
4418.257403536745
 31
0.0
  0
LINE
  5
2FC
330
17
100
AcDbEntity
  8
Hachura
 62
0
370
9
100
AcDbLine
 10
4824.13947830459
 20
4417.290019854491
 30
0.0
 11
4824.13947830459
 21
4416.9676622656725
 31
0.0
  0
LINE
  5
2FD
330
17
100
AcDbEntity
  8
Hachura
 62
0
370
9
100
AcDbLine
 10
4824.137601018098
 20
4416.969272340817
 30
0.0
 11
4824.460147746287
 21
4416.646811113397
 31
0.0
  0
LINE
  5
2FE
330
17
100
AcDbEntity
  8
Hachura
 62
0
370
9
100
AcDbLine
 10
4824.13947830459
 20
4419.178672899041
 30
0.0
 11
4824.13947830459
 21
4418.966818249925
 31
0.0
  0
LINE
  5
2FF
330
17
100
AcDbEntity
  8
Hachura
 62
0
370
9
100
AcDbLine
 10
4826.173969840879
 20
4417.533358693987
 30
0.0
 11
4825.04257702713
 21
4416.9676622656725
 31
0.0
  0
LINE
  5
300
330
17
100
AcDbEntity
  8
Hachura
 62
0
370
9
100
AcDbLine
 10
4826.074245669092
 20
4417.612481081911
 30
0.0
 11
4824.7846080795
 21
4416.9676622656725
 31
0.0
  0
LINE
  5
301
330
17
100
AcDbEntity
  8
Hachura
 62
0
370
9
100
AcDbLine
 10
4824.460147746287
 20
4416.646811113397
 30
0.0
 11
4825.749992655955
 21
4416.646811113397
 31
0.0
  0
LINE
  5
302
330
17
100
AcDbEntity
  8
Hachura
 62
0
370
9
100
AcDbLine
 10
4824.13947830459
 20
4417.290019854491
 30
0.0
 11
4826.074245669092
 21
4418.257403536745
 31
0.0
  0
LINE
  5
303
330
17
100
AcDbEntity
  8
Hachura
 62
0
370
9
100
AcDbLine
 10
4826.072453883372
 20
4416.969272362256
 30
0.0
 11
4824.1376865188695
 21
4416.969272362256
 31
0.0
  0
LINE
  5
304
330
17
100
AcDbEntity
  8
Hachura
 62
0
370
9
100
AcDbLine
 10
4830.667809161217
 20
4428.447178318831
 30
0.0
 11
4822.853147416586
 21
4428.447178318831
 31
0.0
  0
LINE
  5
305
330
17
100
AcDbEntity
  8
Hachura
 62
0
370
9
100
AcDbLine
 10
4826.848152640619
 20
4421.739984790702
 30
0.0
 11
4823.494555849756
 21
4421.739984790702
 31
0.0
  0
LINE
  5
306
330
17
100
AcDbEntity
  8
Hachura
 62
0
370
9
100
AcDbLine
 10
4826.848152640619
 20
4421.80770164803
 30
0.0
 11
4823.494555849756
 21
4421.80770164803
 31
0.0
  0
LINE
  5
307
330
17
100
AcDbEntity
  8
Hachura
 62
0
370
9
100
AcDbLine
 10
4823.236586902124
 20
4424.964597064871
 30
0.0
 11
4827.106121631129
 21
4424.964597064871
 31
0.0
  0
LINE
  5
308
330
17
100
AcDbEntity
  8
Hachura
 62
0
370
9
100
AcDbLine
 10
4818.722129718288
 20
4427.5442868842065
 30
0.0
 11
4831.620578814966
 21
4427.5442868842065
 31
0.0
  0
LINE
  5
309
330
17
100
AcDbEntity
  8
Hachura
 62
0
370
9
100
AcDbLine
 10
4831.620578814966
 20
4428.447178318831
 30
0.0
 11
4818.725671482681
 21
4428.447178318831
 31
0.0
  0
LINE
  5
30A
330
17
100
AcDbEntity
  8
Hachura
 62
0
370
9
100
AcDbLine
 10
4824.5264318117925
 20
4421.739984790702
 30
0.0
 11
4824.5264318117925
 21
4424.964597064871
 31
0.0
  0
LINE
  5
30B
330
17
100
AcDbEntity
  8
Hachura
 62
0
370
9
100
AcDbLine
 10
4823.494555849756
 20
4421.739984790702
 30
0.0
 11
4823.494555849756
 21
4424.964597064871
 31
0.0
  0
LINE
  5
30C
330
17
100
AcDbEntity
  8
Hachura
 62
0
370
9
100
AcDbLine
 10
4825.171354266627
 20
4427.5442868842065
 30
0.0
 11
4823.236586902124
 21
4427.5442868842065
 31
0.0
  0
LINE
  5
30D
330
17
100
AcDbEntity
  8
Hachura
 62
0
370
9
100
AcDbLine
 10
4823.881509356958
 20
4427.5442868842065
 30
0.0
 11
4824.5264318117925
 21
4427.5442868842065
 31
0.0
  0
LINE
  5
30E
330
17
100
AcDbEntity
  8
Hachura
 62
0
370
9
100
AcDbLine
 10
4825.165713904265
 20
4427.5442868842065
 30
0.0
 11
4825.165713904265
 21
4428.447178318831
 31
0.0
  0
LINE
  5
30F
330
17
100
AcDbEntity
  8
Hachura
 62
0
370
9
100
AcDbLine
 10
4824.859172212917
 20
4427.5442868842065
 30
0.0
 11
4824.859172212917
 21
4425.545127694749
 31
0.0
  0
LINE
  5
310
330
17
100
AcDbEntity
  8
Hachura
 62
0
370
9
100
AcDbLine
 10
4825.375110193936
 20
4425.545127694749
 30
0.0
 11
4825.375110193936
 21
4427.5442868842065
 31
0.0
  0
LINE
  5
311
330
17
100
AcDbEntity
  8
Hachura
 62
0
370
9
100
AcDbLine
 10
4822.131477642894
 20
4427.526012327139
 30
0.0
 11
4822.131477642894
 21
4428.453235002221
 31
0.0
  0
LINE
  5
312
330
17
100
AcDbEntity
  8
Hachura
 62
0
370
9
100
AcDbLine
 10
4824.211738633879
 20
4428.297132440908
 30
0.0
 11
4824.211738633879
 21
4427.864064635189
 31
0.0
  0
LINE
  5
313
330
17
100
AcDbEntity
  8
Hachura
 62
0
370
9
100
AcDbLine
 10
4823.236586902124
 20
4427.5442868842065
 30
0.0
 11
4823.236586902124
 21
4424.964597064871
 31
0.0
  0
LINE
  5
314
330
17
100
AcDbEntity
  8
Hachura
 62
0
370
9
100
AcDbLine
 10
4824.211738633879
 20
4427.864064635189
 30
0.0
 11
4824.211738633879
 21
4427.652209986074
 31
0.0
  0
LINE
  5
315
330
17
100
AcDbEntity
  8
Hachura
 62
0
370
9
100
AcDbLine
 10
4818.725671482681
 20
4428.447178318831
 30
0.0
 11
4818.725671482681
 21
4423.310509736745
 31
0.0
  0
LINE
  5
316
330
17
100
AcDbEntity
  8
Hachura
 62
0
370
9
100
AcDbLine
 10
4820.398928092281
 20
4423.287798680159
 30
0.0
 11
4820.980588166335
 21
4425.498106998012
 31
0.0
  0
LINE
  5
317
330
17
100
AcDbEntity
  8
Hachura
 62
0
370
9
100
AcDbLine
 10
4818.722129718288
 20
4423.287798680159
 30
0.0
 11
4820.398928092281
 21
4423.287798680159
 31
0.0
  0
LINE
  5
318
330
17
100
AcDbEntity
  8
Hachura
 62
0
370
9
100
AcDbLine
 10
4821.292432204708
 20
4425.738504004241
 30
0.0
 11
4823.236586902124
 21
4425.738504004241
 31
0.0
  0
LINE
  5
319
330
17
100
AcDbEntity
  8
Hachura
 62
0
370
9
100
AcDbLine
 10
4818.722129718288
 20
4427.5442868842065
 30
0.0
 11
4823.881509356958
 21
4427.5442868842065
 31
0.0
  0
LINE
  5
31A
330
17
100
AcDbEntity
  8
Hachura
 62
0
370
9
100
AcDbLine
 10
4829.943780398095
 20
4423.287798680159
 30
0.0
 11
4829.362120324041
 21
4425.498106998012
 31
0.0
  0
LINE
  5
31B
330
17
100
AcDbEntity
  8
Hachura
 62
0
370
9
100
AcDbLine
 10
4826.848152640619
 20
4424.964597064871
 30
0.0
 11
4826.848152640619
 21
4421.739984790702
 31
0.0
  0
LINE
  5
31C
330
17
100
AcDbEntity
  8
Hachura
 62
0
370
9
100
AcDbLine
 10
4826.074245669092
 20
4421.739984790702
 30
0.0
 11
4826.074245669092
 21
4424.964597064871
 31
0.0
  0
LINE
  5
31D
330
17
100
AcDbEntity
  8
Hachura
 62
0
370
9
100
AcDbLine
 10
4828.197492237105
 20
4427.526012327139
 30
0.0
 11
4828.197492237105
 21
4428.447178318831
 31
0.0
  0
LINE
  5
31E
330
17
100
AcDbEntity
  8
Hachura
 62
0
370
9
100
AcDbLine
 10
4826.146505998381
 20
4427.670587903027
 30
0.0
 11
4826.146505998381
 21
4428.103655698025
 31
0.0
  0
LINE
  5
31F
330
17
100
AcDbEntity
  8
Hachura
 62
0
370
9
100
AcDbLine
 10
4829.629745841969
 20
4427.526012327139
 30
0.0
 11
4829.629745841969
 21
4428.453235002221
 31
0.0
  0
LINE
  5
320
330
17
100
AcDbEntity
  8
Hachura
 62
0
370
9
100
AcDbLine
 10
4827.106121631129
 20
4424.964597064871
 30
0.0
 11
4827.106121631129
 21
4427.5442868842065
 31
0.0
  0
LINE
  5
321
330
17
100
AcDbEntity
  8
Hachura
 62
0
370
9
100
AcDbLine
 10
4827.106121631129
 20
4424.964597064871
 30
0.0
 11
4826.848152640619
 21
4424.964597064871
 31
0.0
  0
LINE
  5
322
330
17
100
AcDbEntity
  8
Hachura
 62
0
370
9
100
AcDbLine
 10
4827.106121631129
 20
4424.964597064871
 30
0.0
 11
4826.848152640619
 21
4424.964597064871
 31
0.0
  0
LINE
  5
323
330
17
100
AcDbEntity
  8
Hachura
 62
0
370
9
100
AcDbLine
 10
4829.050276285665
 20
4425.738504004241
 30
0.0
 11
4827.10223970745
 21
4425.738504004241
 31
0.0
  0
LINE
  5
324
330
17
100
AcDbEntity
  8
Hachura
 62
0
370
9
100
AcDbLine
 10
4831.620578814966
 20
4427.5442868842065
 30
0.0
 11
4831.620578814966
 21
4423.287798680159
 31
0.0
  0
LINE
  5
325
330
17
100
AcDbEntity
  8
Hachura
 62
0
370
9
100
AcDbLine
 10
4831.620578814966
 20
4427.5442868842065
 30
0.0
 11
4831.620578814966
 21
4428.447178318831
 31
0.0
  0
LINE
  5
326
330
17
100
AcDbEntity
  8
Hachura
 62
0
370
9
100
AcDbLine
 10
4830.472247758172
 20
4427.526012327139
 30
0.0
 11
4830.472247758172
 21
4428.453235002221
 31
0.0
  0
LINE
  5
327
330
17
100
AcDbEntity
  8
Hachura
 62
0
370
9
100
AcDbLine
 10
4830.935623990031
 20
4427.526012327139
 30
0.0
 11
4830.935623990031
 21
4428.453235002221
 31
0.0
  0
LINE
  5
328
330
17
100
AcDbEntity
  8
Hachura
 62
0
370
9
100
AcDbLine
 10
4831.272624722208
 20
4427.526012327139
 30
0.0
 11
4831.272624722208
 21
4428.453235002221
 31
0.0
  0
LINE
  5
329
330
17
100
AcDbEntity
  8
Hachura
 62
0
370
9
100
AcDbLine
 10
4831.483250469253
 20
4427.526012327139
 30
0.0
 11
4831.483250469253
 21
4428.453235002221
 31
0.0
  0
LINE
  5
32A
330
17
100
AcDbEntity
  8
Hachura
 62
0
370
9
100
AcDbLine
 10
4831.620578814966
 20
4423.287798680159
 30
0.0
 11
4829.943780398095
 21
4423.287798680159
 31
0.0
  0
LINE
  5
32B
330
17
100
AcDbEntity
  8
Hachura
 62
0
370
9
100
AcDbLine
 10
4825.300338721581
 20
4421.739984790702
 30
0.0
 11
4824.033392168616
 21
4421.106511507875
 31
0.0
  0
LINE
  5
32C
330
17
100
AcDbEntity
  8
Hachura
 62
0
370
9
100
AcDbLine
 10
4825.042369743763
 20
4421.739984790702
 30
0.0
 11
4824.139478300992
 21
4421.288539069316
 31
0.0
  0
LINE
  5
32D
330
17
100
AcDbEntity
  8
Hachura
 62
0
370
9
100
AcDbLine
 10
4824.139478300991
 20
4421.739984790702
 30
0.0
 11
4824.139478300991
 21
4421.288539069316
 31
0.0
  0
LINE
  5
32E
330
17
100
AcDbEntity
  8
Hachura
 62
0
370
9
100
AcDbLine
 10
4820.716504455678
 20
4427.526012327139
 30
0.0
 11
4820.716504455678
 21
4428.453235002221
 31
0.0
  0
LINE
  5
32F
330
17
100
AcDbEntity
  8
Hachura
 62
0
370
9
100
AcDbLine
 10
4819.874002539475
 20
4427.526012327139
 30
0.0
 11
4819.874002539475
 21
4428.453235002221
 31
0.0
  0
LINE
  5
330
330
17
100
AcDbEntity
  8
Hachura
 62
0
370
9
100
AcDbLine
 10
4819.410626307616
 20
4427.526012327139
 30
0.0
 11
4819.410626307616
 21
4428.453235002221
 31
0.0
  0
LINE
  5
331
330
17
100
AcDbEntity
  8
Hachura
 62
0
370
9
100
AcDbLine
 10
4819.073625575439
 20
4427.526012327139
 30
0.0
 11
4819.073625575439
 21
4428.453235002221
 31
0.0
  0
LINE
  5
332
330
17
100
AcDbEntity
  8
Hachura
 62
0
370
9
100
AcDbLine
 10
4818.862999828394
 20
4427.526012327139
 30
0.0
 11
4818.862999828394
 21
4428.453235002221
 31
0.0
  0
LINE
  5
333
330
17
100
AcDbEntity
  8
Madeira
 62
126
370
18
100
AcDbLine
 10
4893.18788328163
 20
4448.43181479166
 30
0.0
 11
4904.688331327347
 21
4462.4444507140515
 31
0.0
  0
LINE
  5
334
330
17
100
AcDbEntity
  8
Madeira
 62
126
370
18
100
AcDbLine
 10
4893.18788328163
 20
4448.43181479166
 30
0.0
 11
4896.6563762168935
 21
4462.43563163347
 31
0.0
  0
LINE
  5
335
330
17
100
AcDbEntity
  8
Madeira
 62
126
370
18
100
AcDbLine
 10
4893.18788328163
 20
4448.43181479166
 30
0.0
 11
4907.181915704104
 21
4453.874456771235
 31
0.0
  0
LINE
  5
336
330
17
100
AcDbEntity
  8
Madeira
 62
126
370
18
100
AcDbLine
 10
4757.194855287599
 20
4448.450937981656
 30
0.0
 11
4745.663663281784
 21
4462.438285180848
 31
0.0
  0
LINE
  5
337
330
17
100
AcDbEntity
  8
Madeira
 62
126
370
18
100
AcDbLine
 10
4757.194855287599
 20
4448.450937981656
 30
0.0
 11
4753.6956183922375
 21
4462.44710426143
 31
0.0
  0
LINE
  5
338
330
17
100
AcDbEntity
  8
Madeira
 62
126
370
18
100
AcDbLine
 10
4757.194855287599
 20
4448.450937981656
 30
0.0
 11
4743.18890458849
 21
4453.862836001133
 31
0.0
  0
LINE
  5
339
330
17
100
AcDbEntity
  8
Madeira
 62
126
370
18
100
AcDbLine
 10
4802.687972793952
 20
4448.439409035923
 30
0.0
 11
4795.681654839894
 21
4454.189633052925
 31
0.0
  0
LINE
  5
33A
330
17
100
AcDbEntity
  8
Madeira
 62
126
370
18
100
AcDbLine
 10
4802.687972793952
 20
4448.439409035923
 30
0.0
 11
4795.68606438018
 21
4450.173655501789
 31
0.0
  0
LINE
  5
33B
330
17
100
AcDbEntity
  8
Madeira
 62
126
370
18
100
AcDbLine
 10
4802.687972793952
 20
4448.439409035923
 30
0.0
 11
4797.245330819922
 21
4462.433441444142
 31
0.0
  0
LINE
  5
33C
330
17
100
AcDbEntity
  8
Madeira
 62
126
370
18
100
AcDbLine
 10
4854.68793963328
 20
4448.439409035923
 30
0.0
 11
4847.681621679221
 21
4454.189633052925
 31
0.0
  0
LINE
  5
33D
330
17
100
AcDbEntity
  8
Madeira
 62
126
370
18
100
AcDbLine
 10
4854.68793963328
 20
4448.439409035923
 30
0.0
 11
4847.686031219508
 21
4450.173655501789
 31
0.0
  0
LINE
  5
33E
330
17
100
AcDbEntity
  8
Madeira
 62
126
370
18
100
AcDbLine
 10
4854.68793963328
 20
4448.439409035923
 30
0.0
 11
4849.245297659249
 21
4462.433441444142
 31
0.0
  0
LINE
  5
33F
330
17
100
AcDbEntity
  8
Madeira
 62
126
370
18
100
AcDbLine
 10
4893.18788328163
 20
4522.462541712765
 30
0.0
 11
4904.688331327347
 21
4508.449905790374
 31
0.0
  0
LINE
  5
340
330
17
100
AcDbEntity
  8
Madeira
 62
126
370
18
100
AcDbLine
 10
4893.18788328163
 20
4522.462541712765
 30
0.0
 11
4896.6563762168935
 21
4508.458724870956
 31
0.0
  0
LINE
  5
341
330
17
100
AcDbEntity
  8
Madeira
 62
126
370
18
100
AcDbLine
 10
4893.18788328163
 20
4522.462541712765
 30
0.0
 11
4907.181915704104
 21
4517.019899733191
 31
0.0
  0
LINE
  5
342
330
17
100
AcDbEntity
  8
Madeira
 62
126
370
18
100
AcDbLine
 10
4757.194855287599
 20
4522.443418522769
 30
0.0
 11
4745.663663281784
 21
4508.456071323578
 31
0.0
  0
LINE
  5
343
330
17
100
AcDbEntity
  8
Madeira
 62
126
370
18
100
AcDbLine
 10
4757.194855287599
 20
4522.443418522769
 30
0.0
 11
4753.6956183922375
 21
4508.447252242996
 31
0.0
  0
LINE
  5
344
330
17
100
AcDbEntity
  8
Madeira
 62
126
370
18
100
AcDbLine
 10
4757.194855287599
 20
4522.443418522769
 30
0.0
 11
4743.18890458849
 21
4517.031520503293
 31
0.0
  0
LINE
  5
345
330
17
100
AcDbEntity
  8
Madeira
 62
126
370
18
100
AcDbLine
 10
4802.687972793952
 20
4522.454947468501
 30
0.0
 11
4795.681654839894
 21
4516.7047234514985
 31
0.0
  0
LINE
  5
346
330
17
100
AcDbEntity
  8
Madeira
 62
126
370
18
100
AcDbLine
 10
4802.687972793952
 20
4522.454947468501
 30
0.0
 11
4795.68606438018
 21
4520.720701002635
 31
0.0
  0
LINE
  5
347
330
17
100
AcDbEntity
  8
Madeira
 62
126
370
18
100
AcDbLine
 10
4802.687972793952
 20
4522.454947468501
 30
0.0
 11
4797.245330819922
 21
4508.460915060282
 31
0.0
  0
LINE
  5
348
330
17
100
AcDbEntity
  8
Madeira
 62
126
370
18
100
AcDbLine
 10
4854.68793963328
 20
4522.454947468501
 30
0.0
 11
4847.681621679221
 21
4516.7047234514985
 31
0.0
  0
LINE
  5
349
330
17
100
AcDbEntity
  8
Madeira
 62
126
370
18
100
AcDbLine
 10
4854.68793963328
 20
4522.454947468501
 30
0.0
 11
4847.686031219508
 21
4520.720701002635
 31
0.0
  0
LINE
  5
34A
330
17
100
AcDbEntity
  8
Madeira
 62
126
370
18
100
AcDbLine
 10
4854.68793963328
 20
4522.454947468501
 30
0.0
 11
4849.245297659249
 21
4508.460915060282
 31
0.0
  0
LWPOLYLINE
  5
34B
330
17
100
AcDbEntity
  8
Painéis
 62
200
370
25
100
AcDbPolyline
 90
4
 70
1
 10
5341.569130296819
 20
4067.784014973502
 10
5259.569130296819
 20
4067.784014973531
 10
5259.569130296819
 20
4065.784014973531
 10
5341.569130296819
 20
4065.784014973502
  0
LWPOLYLINE
  5
34C
330
17
100
AcDbEntity
  8
Painéis
 62
200
370
25
100
AcDbPolyline
 90
4
 70
0
 10
5724.148183184341
 20
4409.784014973504
 10
5724.148183184341
 20
4409.784014973502
 10
5705.148183184341
 20
4409.784014973502
 10
5705.148183184341
 20
4409.784014973504
  0
LWPOLYLINE
  5
34D
330
17
100
AcDbEntity
  8
Painéis
 62
200
370
25
100
AcDbPolyline
 90
4
 70
1
 10
5705.148183184341
 20
4067.784014973502
 10
5724.148183184341
 20
4067.784014973502
 10
5724.148183184341
 20
4065.784014973502
 10
5705.148183184341
 20
4065.784014973502
  0
LWPOLYLINE
  5
34E
330
17
100
AcDbEntity
  8
Painéis
 62
200
370
25
100
AcDbPolyline
 90
4
 70
0
 10
5887.931874390328
 20
4409.784014973504
 10
5887.931874390328
 20
4409.784014973502
 10
5868.931874390328
 20
4409.784014973502
 10
5868.931874390328
 20
4409.784014973504
  0
LWPOLYLINE
  5
34F
330
17
100
AcDbEntity
  8
Painéis
 62
200
370
25
100
AcDbPolyline
 90
4
 70
1
 10
5868.931874390328
 20
4067.784014973502
 10
5887.931874390328
 20
4067.784014973502
 10
5887.931874390328
 20
4065.784014973502
 10
5868.931874390328
 20
4065.784014973502
  0
LWPOLYLINE
  5
350
330
17
100
AcDbEntity
  8
Painéis
 62
200
370
25
100
AcDbPolyline
 90
4
 70
1
 10
5578.081256625999
 20
4067.784014973502
 10
5496.081256625999
 20
4067.784014973531
 10
5496.081256625999
 20
4065.784014973531
 10
5578.081256625999
 20
4065.784014973502
  0
LWPOLYLINE
  5
351
330
17
100
AcDbEntity
  8
COTA
 62
241
370
25
100
AcDbPolyline
 90
4
 70
0
 10
5724.148183184341
 20
4409.784014973502
 10
5724.148183184341
 20
4473.784014973499
 10
5705.148183184341
 20
4473.784014973502
 10
5705.148183184341
 20
4409.784014973504
  0
LWPOLYLINE
  5
352
330
17
100
AcDbEntity
  8
COTA
 62
241
370
25
100
AcDbPolyline
 90
4
 70
0
 10
5887.931874390328
 20
4409.784014973502
 10
5887.931874390328
 20
4473.784014973499
 10
5868.931874390328
 20
4473.784014973502
 10
5868.931874390328
 20
4409.784014973504
  0
LWPOLYLINE
  5
353
330
17
100
AcDbEntity
  8
SARRAFO
 62
251
370
25
100
AcDbPolyline
 90
4
 70
1
 10
4743.172502906541
 20
4500.047178232835
 10
4757.172502892397
 20
4500.047178232951
 10
4757.172502892397
 20
4504.44717822727
 10
4743.172502906541
 20
4504.44717822727
  0
LWPOLYLINE
  5
354
330
17
100
AcDbEntity
  8
SARRAFO
 62
251
370
25
100
AcDbPolyline
 90
4
 70
1
 10
4907.172502862362
 20
4470.847178271531
 10
4893.172502876507
 20
4470.847178271473
 10
4893.172502876507
 20
4466.447178277154
 10
4907.172502862362
 20
4466.447178277154
  0
LWPOLYLINE
  5
355
330
17
100
AcDbEntity
  8
SARRAFO
 62
251
370
25
100
AcDbPolyline
 90
4
 70
1
 10
4907.172502862362
 20
4500.047178232835
 10
4893.172502876507
 20
4500.047178232951
 10
4893.172502876507
 20
4504.44717822727
 10
4907.172502862362
 20
4504.44717822727
  0
LWPOLYLINE
  5
356
330
17
100
AcDbEntity
  8
SARRAFO
 62
251
370
25
100
AcDbPolyline
 90
4
 70
1
 10
4743.172502906541
 20
4470.847178271531
 10
4757.172502892397
 20
4470.847178271473
 10
4757.172502892397
 20
4466.447178277154
 10
4743.172502906541
 20
4466.447178277154
  0
LWPOLYLINE
  5
357
330
17
100
AcDbEntity
  8
Perfil Metálico
 62
224
370
18
100
AcDbPolyline
 90
4
 70
1
 10
4943.172502830552
 20
4526.447178258295
 10
4943.172502830552
 20
4538.447178245256
 10
4707.172502938789
 20
4538.447178245256
 10
4707.172502938789
 20
4526.447178258295
  0
LWPOLYLINE
  5
358
330
17
100
AcDbEntity
  8
Perfil Metálico
 62
224
370
18
100
AcDbPolyline
 90
4
 70
1
 10
4707.172502938789
 20
4542.447178240949
 10
4707.172502938789
 20
4522.447178262544
 10
4943.172502830552
 20
4522.447178262544
 10
4943.172502830552
 20
4542.447178240949
  0
LWPOLYLINE
  5
359
330
17
100
AcDbEntity
  8
Perfil Metálico
 62
224
370
18
100
AcDbPolyline
 90
4
 70
1
 10
4943.172502830552
 20
4444.447178301485
 10
4943.172502830552
 20
4432.447178314523
 10
4707.172502938789
 20
4432.447178314523
 10
4707.172502938789
 20
4444.447178301485
  0
LWPOLYLINE
  5
35A
330
17
100
AcDbEntity
  8
Perfil Metálico
 62
224
370
18
100
AcDbPolyline
 90
4
 70
1
 10
4707.172502938789
 20
4428.447178318831
 10
4707.172502938789
 20
4448.447178297236
 10
4943.172502830552
 20
4448.447178297236
 10
4943.172502830552
 20
4428.447178318831
  0
LWPOLYLINE
  5
35B
330
17
100
AcDbEntity
  8
Madeira
 62
126
370
18
100
AcDbPolyline
 90
4
 70
1
 10
4907.187874842974
 20
4448.435565976597
 10
4907.172502862886
 20
4462.435557587446
 10
4743.179491746748
 20
4462.435557587418
 10
4743.194863726836
 20
4448.435565976568
  0
LWPOLYLINE
  5
35C
330
17
100
AcDbEntity
  8
Madeira
 62
126
370
18
100
AcDbPolyline
 90
4
 70
1
 10
4907.187874842974
 20
4522.458790527827
 10
4907.172502862886
 20
4508.458798916977
 10
4743.179491746748
 20
4508.458798917007
 10
4743.194863726836
 20
4522.458790527856
  0
LWPOLYLINE
  5
35D
330
17
100
AcDbEntity
  8
CHAPA
 62
1
370
25
100
AcDbPolyline
 90
4
 70
1
 10
4743.172502907007
 20
4466.44717833251
 10
4743.172502907007
 20
4462.447178332509
 10
4907.172502862362
 20
4462.447178332509
 10
4907.172502862362
 20
4466.44717833251
  0
LWPOLYLINE
  5
35E
330
17
100
AcDbEntity
  8
CHAPA
 62
1
370
25
100
AcDbPolyline
 90
4
 70
1
 10
4743.172502907007
 20
4504.447178171914
 10
4743.172502907007
 20
4508.447178171915
 10
4907.172502862362
 20
4508.447178171915
 10
4907.172502862362
 20
4504.447178171914
  0
LWPOLYLINE
  5
35F
330
17
100
AcDbEntity
  8
CHAPA
 62
1
370
25
100
AcDbPolyline
 90
4
 70
1
 10
4888.772502886816
 20
4504.447178171914
 10
4885.17250288681
 20
4504.447178171914
 10
4885.17250288681
 20
4466.44717833251
 10
4888.772502886816
 20
4466.44717833251
  0
LWPOLYLINE
  5
360
330
17
100
AcDbEntity
  8
CHAPA
 62
1
370
25
100
AcDbPolyline
 90
4
 70
1
 10
4765.172502886809
 20
4504.447178171973
 10
4761.572502886803
 20
4504.447178171973
 10
4761.572502886803
 20
4466.447178332567
 10
4765.172502886809
 20
4466.447178332567
  0
LWPOLYLINE
  5
361
330
17
100
AcDbEntity
  8
CHAPA
 62
1
370
25
100
AcDbPolyline
 90
4
 70
1
 10
4743.172502907007
 20
4466.44717833251
 10
4743.172502907007
 20
4462.447178332509
 10
4907.172502862362
 20
4462.447178332509
 10
4907.172502862362
 20
4466.44717833251
  0
LWPOLYLINE
  5
362
330
17
100
AcDbEntity
  8
CHAPA
 62
1
370
25
100
AcDbPolyline
 90
4
 70
1
 10
4743.172502907007
 20
4504.447178171914
 10
4743.172502907007
 20
4508.447178171915
 10
4907.172502862362
 20
4508.447178171915
 10
4907.172502862362
 20
4504.447178171914
  0
LWPOLYLINE
  5
363
330
17
100
AcDbEntity
  8
CHAPA
 62
1
370
25
100
AcDbPolyline
 90
4
 70
1
 10
4888.772502886816
 20
4504.447178171914
 10
4885.17250288681
 20
4504.447178171914
 10
4885.17250288681
 20
4466.44717833251
 10
4888.772502886816
 20
4466.44717833251
  0
LWPOLYLINE
  5
364
330
17
100
AcDbEntity
  8
CHAPA
 62
1
370
25
100
AcDbPolyline
 90
4
 70
1
 10
4765.172502886809
 20
4504.447178171973
 10
4761.572502886803
 20
4504.447178171973
 10
4761.572502886803
 20
4466.447178332567
 10
4765.172502886809
 20
4466.447178332567
  0
LWPOLYLINE
  5
365
330
17
100
AcDbEntity
  8
SARRAFO
 62
251
370
25
100
AcDbPolyline
 90
4
 70
1
 10
4888.772502882101
 20
4480.447178429047
 10
4888.772502882187
 20
4466.447178443192
 10
4893.172502876507
 20
4466.447178443192
 10
4893.172502876507
 20
4480.447178429047
  0
LWPOLYLINE
  5
366
330
17
100
AcDbEntity
  8
SARRAFO
 62
251
370
25
100
AcDbPolyline
 90
4
 70
1
 10
4757.172502892397
 20
4480.447178429105
 10
4757.172502892484
 20
4466.44717844325
 10
4761.572502886803
 20
4466.44717844325
 10
4761.572502886803
 20
4480.447178429105
  0
LWPOLYLINE
  5
367
330
17
100
AcDbEntity
  8
SARRAFO
 62
251
370
25
100
AcDbPolyline
 90
4
 70
1
 10
4888.772502882101
 20
4490.447178075377
 10
4888.772502882187
 20
4504.447178061233
 10
4893.172502876507
 20
4504.447178061233
 10
4893.172502876507
 20
4490.447178075377
  0
LWPOLYLINE
  5
368
330
17
100
AcDbEntity
  8
SARRAFO
 62
251
370
25
100
AcDbPolyline
 90
4
 70
1
 10
4757.172502892397
 20
4490.447178075319
 10
4757.172502892484
 20
4504.447178061175
 10
4761.572502886803
 20
4504.447178061175
 10
4761.572502886803
 20
4490.447178075319
  0
LWPOLYLINE
  5
369
330
17
100
AcDbEntity
  8
Painéis
 62
200
370
25
100
AcDbPolyline
 90
4
 70
1
 10
4885.17250288681
 20
4466.44717833251
 10
4885.17250288681
 20
4504.447178171914
 10
4765.172502886809
 20
4504.447178171914
 10
4765.172502886809
 20
4466.44717833251
  0
LWPOLYLINE
  5
36A
330
17
100
AcDbEntity
  8
Madeira
 62
126
370
18
100
AcDbPolyline
 90
4
 70
1
 10
4893.18788328163
 20
4448.43181479166
 10
4893.172511301581
 20
4462.4318063524515
 10
4907.172502862372
 20
4462.447178332501
 10
4907.1878748424215
 20
4448.447186771709
  0
LWPOLYLINE
  5
36B
330
17
100
AcDbEntity
  8
Madeira
 62
126
370
18
100
AcDbPolyline
 90
4
 70
1
 10
4757.194855287599
 20
4448.450937981656
 10
4757.17948330755
 20
4462.450929542448
 10
4743.179491746759
 20
4462.435557562399
 10
4743.194863726808
 20
4448.435566001607
  0
LWPOLYLINE
  5
36C
330
17
100
AcDbEntity
  8
Madeira
 62
126
370
18
100
AcDbPolyline
 90
4
 70
1
 10
4802.687972793952
 20
4448.439409035923
 10
4795.687977020687
 20
4448.431723045906
 10
4795.672605040653
 20
4462.431714592437
 10
4802.6726008139185
 20
4462.439400582453
  0
LWPOLYLINE
  5
36D
330
17
100
AcDbEntity
  8
Madeira
 62
126
370
18
100
AcDbPolyline
 90
4
 70
1
 10
4854.68793963328
 20
4448.439409035923
 10
4847.6879438600145
 20
4448.431723045906
 10
4847.672571879981
 20
4462.431714592437
 10
4854.672567653246
 20
4462.439400582453
  0
LWPOLYLINE
  5
36E
330
17
100
AcDbEntity
  8
Madeira
 62
126
370
18
100
AcDbPolyline
 90
4
 70
1
 10
4893.18788328163
 20
4522.462541712765
 10
4893.172511301581
 20
4508.462550151974
 10
4907.172502862372
 20
4508.447178171925
 10
4907.1878748424215
 20
4522.447169732716
  0
LWPOLYLINE
  5
36F
330
17
100
AcDbEntity
  8
Madeira
 62
126
370
18
100
AcDbPolyline
 90
4
 70
1
 10
4757.194855287599
 20
4522.443418522769
 10
4757.17948330755
 20
4508.443426961978
 10
4743.179491746759
 20
4508.458798942027
 10
4743.194863726808
 20
4522.458790502818
  0
LWPOLYLINE
  5
370
330
17
100
AcDbEntity
  8
Madeira
 62
126
370
18
100
AcDbPolyline
 90
4
 70
1
 10
4802.687972793952
 20
4522.454947468501
 10
4795.687977020687
 20
4522.462633458517
 10
4795.672605040653
 20
4508.462641911987
 10
4802.6726008139185
 20
4508.45495592197
  0
LWPOLYLINE
  5
371
330
17
100
AcDbEntity
  8
Madeira
 62
126
370
18
100
AcDbPolyline
 90
4
 70
1
 10
4854.68793963328
 20
4522.454947468501
 10
4847.6879438600145
 20
4522.462633458517
 10
4847.672571879981
 20
4508.462641911987
 10
4854.672567653246
 20
4508.45495592197
  0
TEXT
  5
372
330
17
100
AcDbEntity
  8
NOMENCLATURA
 62
2
370
25
100
AcDbText
 10
5792.435537914309
 20
4706.294701756009
 30
0.0
 40
16.0
  1
1° PAVIMENTO - PD: 4.08
100
AcDbText
  0
TEXT
  5
373
330
17
100
AcDbEntity
  8
Texto Seção
 62
7
370
15
100
AcDbText
 10
5250.624938685739
 20
4082.612610599677
 30
0.0
 40
13.0
  1
P35.A
 50
90.0
100
AcDbText
  0
TEXT
  5
374
330
17
100
AcDbEntity
  8
Texto Seção
 62
7
370
15
100
AcDbText
 10
5696.997081814116
 20
4077.073588551717
 30
0.0
 40
13.0
  1
P35.C
 50
90.0
100
AcDbText
  0
TEXT
  5
375
330
17
100
AcDbEntity
  8
Texto Seção
 62
7
370
15
100
AcDbText
 10
5860.780773020103
 20
4077.073588551717
 30
0.0
 40
13.0
  1
P35.D
 50
90.0
100
AcDbText
  0
TEXT
  5
376
330
17
100
AcDbEntity
  8
Texto Seção
 62
7
370
15
100
AcDbText
 10
5488.575316580536
 20
4082.612610599677
 30
0.0
 40
13.0
  1
P35.B
 50
90.0
100
AcDbText
  0
TEXT
  5
377
330
17
100
AcDbEntity
  8
TEXTO_GERAL
 62
7
370
25
100
AcDbText
 10
4831.817262949338
 20
4479.541642755335
 30
0.0
 40
10.99999999889889
  1
A
100
AcDbText
  0
TEXT
  5
378
330
17
100
AcDbEntity
  8
TEXTO_GERAL
 62
7
370
25
100
AcDbText
 10
4871.898540008523
 20
4496.14216907284
 30
0.0
 40
10.99999999889889
  1
D
100
AcDbText
  0
TEXT
  5
379
330
17
100
AcDbEntity
  8
TEXTO_GERAL
 62
7
370
25
100
AcDbText
 10
4770.913321064367
 20
4489.716121546873
 30
0.0
 40
10.99999999889889
  1
C
100
AcDbText
  0
TEXT
  5
37A
330
17
100
AcDbEntity
  8
TEXTO_GERAL
 62
7
370
25
100
AcDbText
 10
4833.276549723628
 20
4499.278106157748
 30
0.0
 40
10.99999999889889
  1
B
100
AcDbText
  0
TEXT
  5
37B
330
17
100
AcDbEntity
  8
COTA
 62
240
370
25
100
AcDbText
 10
5167.83216439832
 20
4269.784014973502
 30
0.0
 40
10.0
  1
408
 50
90.0
100
AcDbText
  0
TEXT
  5
37C
330
17
100
AcDbEntity
  8
COTA
 62
240
370
25
100
AcDbText
 10
5300.569130296818
 20
4031.267059033279
 30
0.0
 40
10.0
  1
82
100
AcDbText
  0
TEXT
  5
37D
330
17
100
AcDbEntity
  8
COTA
 62
240
370
25
100
AcDbText
 10
5350.434627372842
 20
4055.347018424812
 30
0.0
 40
10.0
  1
7
100
AcDbText
  0
TEXT
  5
37E
330
17
100
AcDbEntity
  8
COTA
 62
240
370
25
100
AcDbText
 10
5250.703633220795
 20
4055.347018424841
 30
0.0
 40
10.0
  1
7
100
AcDbText
  0
TEXT
  5
37F
330
17
100
AcDbEntity
  8
COTA
 62
240
370
25
100
AcDbText
 10
5372.827328507723
 20
4080.53091086644
 30
0.0
 40
10.0
  1
2
 50
90.0
100
AcDbText
  0
TEXT
  5
380
330
17
100
AcDbEntity
  8
COTA
 62
240
370
25
100
AcDbText
 10
5401.859481969224
 20
4127.784014973502
 30
0.0
 40
10.0
  1
124
 50
90.0
100
AcDbText
  0
TEXT
  5
381
330
17
100
AcDbEntity
  8
COTA
 62
240
370
25
100
AcDbText
 10
5714.64818318434
 20
4043.977522625578
 30
0.0
 40
10.0
  1
19
100
AcDbText
  0
TEXT
  5
382
330
17
100
AcDbEntity
  8
COTA
 62
240
370
25
100
AcDbText
 10
5755.055600852661
 20
4066.784014973472
 30
0.0
 40
10.0
  1
2
 50
90.0
100
AcDbText
  0
TEXT
  5
383
330
17
100
AcDbEntity
  8
COTA
 62
240
370
25
100
AcDbText
 10
5753.396237367202
 20
4369.784014973499
 30
0.0
 40
10.0
  1
80
 50
90.0
100
AcDbText
  0
TEXT
  5
384
330
17
100
AcDbEntity
  8
COTA
 62
240
370
25
100
AcDbText
 10
5878.431874390328
 20
4043.977522625578
 30
0.0
 40
10.0
  1
19
100
AcDbText
  0
TEXT
  5
385
330
17
100
AcDbEntity
  8
COTA
 62
240
370
25
100
AcDbText
 10
5918.839292058648
 20
4066.784014973472
 30
0.0
 40
10.0
  1
2
 50
90.0
100
AcDbText
  0
TEXT
  5
386
330
17
100
AcDbEntity
  8
COTA
 62
240
370
25
100
AcDbText
 10
5753.301208127429
 20
4308.284014973501
 30
0.0
 40
10.0
  1
43
 50
90.0
100
AcDbText
  0
TEXT
  5
387
330
17
100
AcDbEntity
  8
COTA
 62
240
370
25
100
AcDbText
 10
5776.923275782621
 20
4177.284014973502
 30
0.0
 40
10.0
  1
219
 50
90.0
100
AcDbText
  0
TEXT
  5
388
330
17
100
AcDbEntity
  8
COTA
 62
240
370
25
100
AcDbText
 10
5373.771616118163
 20
4238.284014973502
 30
0.0
 40
10.0
  1
97
 50
90.0
100
AcDbText
  0
TEXT
  5
389
330
17
100
AcDbEntity
  8
COTA
 62
240
370
25
100
AcDbText
 10
5401.830242203084
 20
4441.78401497352
 30
0.0
 40
10.0
  1
64
 50
90.0
100
AcDbText
  0
TEXT
  5
38A
330
17
100
AcDbEntity
  8
COTA
 62
240
370
25
100
AcDbText
 10
5537.081256625999
 20
4031.267059033279
 30
0.0
 40
10.0
  1
82
100
AcDbText
  0
TEXT
  5
38B
330
17
100
AcDbEntity
  8
COTA
 62
240
370
25
100
AcDbText
 10
5586.946753702022
 20
4055.347018424812
 30
0.0
 40
10.0
  1
7
100
AcDbText
  0
TEXT
  5
38C
330
17
100
AcDbEntity
  8
COTA
 62
240
370
25
100
AcDbText
 10
5487.215759549975
 20
4055.347018424841
 30
0.0
 40
10.0
  1
7
100
AcDbText
  0
TEXT
  5
38D
330
17
100
AcDbEntity
  8
COTA
 62
240
370
25
100
AcDbText
 10
5609.339454836903
 20
4080.53091086644
 30
0.0
 40
10.0
  1
2
 50
90.0
100
AcDbText
  0
TEXT
  5
38E
330
17
100
AcDbEntity
  8
COTA
 62
240
370
25
100
AcDbText
 10
5638.371608298419
 20
4127.784014973502
 30
0.0
 40
10.0
  1
124
 50
90.0
100
AcDbText
  0
TEXT
  5
38F
330
17
100
AcDbEntity
  8
COTA
 62
240
370
25
100
AcDbText
 10
5610.283742446777
 20
4238.284014973502
 30
0.0
 40
10.0
  1
97
 50
90.0
100
AcDbText
  0
TEXT
  5
390
330
17
100
AcDbEntity
  8
COTA
 62
240
370
25
100
AcDbText
 10
5638.342368532278
 20
4441.78401497352
 30
0.0
 40
10.0
  1
64
 50
90.0
100
AcDbText
  0
TEXT
  5
391
330
17
100
AcDbEntity
  8
COTA
 62
240
370
25
100
AcDbText
 10
5776.791696835274
 20
4348.284014973498
 30
0.0
 40
10.0
  1
123
 50
90.0
100
AcDbText
  0
TEXT
  5
392
330
17
100
AcDbEntity
  8
COTA
 62
240
370
25
100
AcDbText
 10
5917.179928573199
 20
4369.784014973502
 30
0.0
 40
10.0
  1
80
 50
90.0
100
AcDbText
  0
TEXT
  5
393
330
17
100
AcDbEntity
  8
COTA
 62
240
370
25
100
AcDbText
 10
5917.084899333426
 20
4308.284014973504
 30
0.0
 40
10.0
  1
43
 50
90.0
100
AcDbText
  0
TEXT
  5
394
330
17
100
AcDbEntity
  8
COTA
 62
240
370
25
100
AcDbText
 10
5940.706966988633
 20
4177.284014973504
 30
0.0
 40
10.0
  1
219
 50
90.0
100
AcDbText
  0
TEXT
  5
395
330
17
100
AcDbEntity
  8
COTA
 62
240
370
25
100
AcDbText
 10
5940.575388041271
 20
4348.2840149735
 30
0.0
 40
10.0
  1
123
 50
90.0
100
AcDbText
  0
TEXT
  5
396
330
17
100
AcDbEntity
  8
COTA
 62
240
370
25
100
AcDbText
 10
5776.908655899607
 20
4441.784014973494
 30
0.0
 40
10.0
  1
64
 50
90.0
100
AcDbText
  0
TEXT
  5
397
330
17
100
AcDbEntity
  8
COTA
 62
240
370
25
100
AcDbText
 10
5940.692347105608
 20
4441.784014973494
 30
0.0
 40
10.0
  1
64
 50
90.0
100
AcDbText
  0
TEXT
  5
398
330
17
100
AcDbEntity
  8
COTA
 62
1
370
25
100
AcDbText
 10
4810.620824481346
 20
4494.401602075271
 30
0.0
 40
7.0
  1
60
100
AcDbText
  0
TEXT
  5
399
330
17
100
AcDbEntity
  8
COTA
 62
241
370
25
100
AcDbText
 10
4825.172502884685
 20
4601.949224084942
 30
0.0
 40
10.0
  1
82
100
AcDbText
  0
TEXT
  5
39A
330
17
100
AcDbEntity
  8
COTA
 62
241
370
25
100
AcDbText
 10
4882.172502873567
 20
4578.245645149514
 30
0.0
 40
10.0
  1
41
100
AcDbText
  0
TEXT
  5
39B
330
17
100
AcDbEntity
  8
COTA
 62
241
370
25
100
AcDbText
 10
4768.17250289586
 20
4578.245645149484
 30
0.0
 40
10.0
  1
41
100
AcDbText
  0
TEXT
  5
39C
330
17
100
AcDbEntity
  8
COTA
 62
1
370
25
100
AcDbText
 10
4887.672502886809
 20
4478.433549537842
 30
0.0
 40
7.0
  1
19
 50
90.0
100
AcDbText
  0
TEXT
  5
39D
330
17
100
AcDbEntity
  8
COTA
 62
241
370
25
100
AcDbText
 10
4825.172502884685
 20
4397.106558728868
 30
0.0
 40
10.0
  1
82(GRADE)
100
AcDbText
  0
TEXT
  5
39E
330
17
100
AcDbEntity
  8
COTA
 62
241
370
25
100
AcDbText
 10
4771.191390024396
 20
4420.913582192528
 30
0.0
 40
10.0
  1
28
100
AcDbText
  0
TEXT
  5
39F
330
17
100
AcDbEntity
  8
COTA
 62
241
370
25
100
AcDbText
 10
4825.187878698091
 20
4420.920892134718
 30
0.0
 40
10.0
  1
26
100
AcDbText
  0
TEXT
  5
3A0
330
17
100
AcDbEntity
  8
COTA
 62
241
370
25
100
AcDbText
 10
4879.187857964513
 20
4420.913582193081
 30
0.0
 40
10.0
  1
28
100
AcDbText
  0
TEXT
  5
3A1
330
17
100
AcDbEntity
  8
COTA
 62
240
370
25
100
AcDbText
 10
5373.654657053834
 20
4308.284014973955
 30
0.0
 40
10.0
  1
43
 50
90.0
100
AcDbText
  0
TEXT
  5
3A2
330
17
100
AcDbEntity
  8
COTA
 62
240
370
25
100
AcDbText
 10
5401.808312378507
 20
4369.784014973973
 30
0.0
 40
10.0
  1
80
 50
90.0
100
AcDbText
  0
TEXT
  5
3A3
330
17
100
AcDbEntity
  8
COTA
 62
240
370
25
100
AcDbText
 10
5401.830242203136
 20
4259.784014973955
 30
0.0
 40
10.0
  1
140
 50
90.0
100
AcDbText
  0
TEXT
  5
3A4
330
17
100
AcDbEntity
  8
COTA
 62
240
370
25
100
AcDbText
 10
5610.166783382447
 20
4308.284014973955
 30
0.0
 40
10.0
  1
43
 50
90.0
100
AcDbText
  0
TEXT
  5
3A5
330
17
100
AcDbEntity
  8
COTA
 62
240
370
25
100
AcDbText
 10
5638.320438707121
 20
4369.784014973973
 30
0.0
 40
10.0
  1
80
 50
90.0
100
AcDbText
  0
TEXT
  5
3A6
330
17
100
AcDbEntity
  8
COTA
 62
240
370
25
100
AcDbText
 10
5638.342368531751
 20
4259.784014973955
 30
0.0
 40
10.0
  1
140
 50
90.0
100
AcDbText
  0
TEXT
  5
3A7
330
17
100
AcDbEntity
  8
Texto Seção
 62
3
370
15
100
AcDbText
 10
4822.172502884685
 20
4682.949644666625
 30
0.0
 40
17.0
  1

100
AcDbText
  0
TEXT
  5
3A8
330
17
100
AcDbEntity
  8
Texto Seção
 62
3
370
15
100
AcDbText
 10
4822.172502884685
 20
4653.049060022304
 30
0.0
 40
12.0
  1

100
AcDbText
  0
TEXT
  5
3A9
330
17
100
AcDbEntity
  8
Texto Seção
 62
7
370
15
100
AcDbText
 10
4822.172502884685
 20
4627.077631133818
 30
0.0
 40
10.0
  1

100
AcDbText
  0
HATCH
  5
3AA
330
17
100
AcDbEntity
  8
COTA
 62
7
100
AcDbHatch
 10
0.0
 20
0.0
 30
0.0
210
0.0
220
0.0
230
1.0
  2
AR-CONC
 70
0
 71
0
 91
1
 92
3
 72
0
 73
1
 93
5
 10
5341.56913029644
 20
4409.784014973546
 10
5341.56913029639
 20
4473.784014973518
 10
5259.56913029679
 20
4473.784014973501
 10
5259.569130296892
 20
4409.784014973504
 10
5341.56913029644
 20
4409.784014973546
 97
0
 75
1
 76
1
 52
0.0
 41
1.0
 77
0
 78
13
 53
50.0
 43
0.0
 44
0.0
 45
182.184668996
 46
-15.9390855389
 79
2
 49
19.05
 49
-209.55
 53
355.0
 43
0.0
 44
0.0
 45
-35.243421425
 46
191.056845239
 79
2
 49
15.24
 49
-167.64058417
 53
100.4514447
 43
15.182007
 44
-1.3282535
 45
146.9412470904
 46
175.1177519122
 79
2
 49
16.1900088
 49
-178.0902446
 53
46.1842
 43
0.0
 44
50.8
 45
271.0790408921
 46
-42.0423279327
 79
2
 49
28.575
 49
-314.325
 53
96.63555761
 43
22.5899
 44
47.2965
 45
237.4041340515
 46
247.4261245977
 79
2
 49
24.28502314
 49
-267.13560816
 53
351.18415117
 43
0.0
 44
50.8
 45
237.404134065
 46
247.4261245855
 79
2
 49
22.85996707
 49
-251.45973192
 53
21.0
 43
25.4
 44
38.1
 45
151.6143912691
 46
-102.2651981871
 79
2
 49
19.05
 49
-209.55
 53
326.0
 43
25.4
 44
38.1
 45
61.8020283476
 46
184.1879661223
 79
2
 49
15.24
 49
-167.64
 53
71.451445
 43
38.0345326
 44
29.5779001
 45
213.4164192787
 46
81.9227688859
 79
2
 49
16.1900088
 49
-178.0899376
 53
37.5
 43
0.0
 44
0.0
 45
3.0886032506
 46
84.5550388732
 79
6
 49
0.0
 49
-165.608
 49
0.0
 49
-170.18
 49
0.0
 49
-168.275
 53
7.5
 43
0.0
 44
0.0
 45
66.8196625103
 46
100.1805748181
 79
6
 49
0.0
 49
-97.028
 49
0.0
 49
-161.798
 49
0.0
 49
-64.135
 53
-32.5
 43
-56.642
 44
0.0
 45
135.5905951669
 46
-5.7287439927
 79
6
 49
0.0
 49
-63.5
 49
0.0
 49
-198.12
 49
0.0
 49
-262.89
 53
-42.5
 43
-82.042
 44
0.0
 45
148.129181386
 46
25.4264910333
 79
6
 49
0.0
 49
-82.55
 49
0.0
 49
-131.572
 49
0.0
 49
-186.69
 98
0
  0
HATCH
  5
3AB
330
17
100
AcDbEntity
  8
COTA
 62
7
100
AcDbHatch
 10
0.0
 20
0.0
 30
0.0
210
0.0
220
0.0
230
1.0
  2
AR-CONC
 70
0
 71
0
 91
1
 92
3
 72
0
 73
1
 93
5
 10
5496.081256625949
 20
4473.784014973509
 10
5496.081256625897
 20
4409.784014973523
 10
5578.081256625643
 20
4409.784014973567
 10
5578.081256625548
 20
4473.784014973525
 10
5496.081256625949
 20
4473.784014973509
 97
0
 75
1
 76
1
 52
0.0
 41
1.0
 77
0
 78
13
 53
50.0
 43
0.0
 44
0.0
 45
182.184668996
 46
-15.9390855389
 79
2
 49
19.05
 49
-209.55
 53
355.0
 43
0.0
 44
0.0
 45
-35.243421425
 46
191.056845239
 79
2
 49
15.24
 49
-167.64058417
 53
100.4514447
 43
15.182007
 44
-1.3282535
 45
146.9412470904
 46
175.1177519122
 79
2
 49
16.1900088
 49
-178.0902446
 53
46.1842
 43
0.0
 44
50.8
 45
271.0790408921
 46
-42.0423279327
 79
2
 49
28.575
 49
-314.325
 53
96.63555761
 43
22.5899
 44
47.2965
 45
237.4041340515
 46
247.4261245977
 79
2
 49
24.28502314
 49
-267.13560816
 53
351.18415117
 43
0.0
 44
50.8
 45
237.404134065
 46
247.4261245855
 79
2
 49
22.85996707
 49
-251.45973192
 53
21.0
 43
25.4
 44
38.1
 45
151.6143912691
 46
-102.2651981871
 79
2
 49
19.05
 49
-209.55
 53
326.0
 43
25.4
 44
38.1
 45
61.8020283476
 46
184.1879661223
 79
2
 49
15.24
 49
-167.64
 53
71.451445
 43
38.0345326
 44
29.5779001
 45
213.4164192787
 46
81.9227688859
 79
2
 49
16.1900088
 49
-178.0899376
 53
37.5
 43
0.0
 44
0.0
 45
3.0886032506
 46
84.5550388732
 79
6
 49
0.0
 49
-165.608
 49
0.0
 49
-170.18
 49
0.0
 49
-168.275
 53
7.5
 43
0.0
 44
0.0
 45
66.8196625103
 46
100.1805748181
 79
6
 49
0.0
 49
-97.028
 49
0.0
 49
-161.798
 49
0.0
 49
-64.135
 53
-32.5
 43
-56.642
 44
0.0
 45
135.5905951669
 46
-5.7287439927
 79
6
 49
0.0
 49
-63.5
 49
0.0
 49
-198.12
 49
0.0
 49
-262.89
 53
-42.5
 43
-82.042
 44
0.0
 45
148.129181386
 46
25.4264910333
 79
6
 49
0.0
 49
-82.55
 49
0.0
 49
-131.572
 49
0.0
 49
-186.69
 98
0
  0
HATCH
  5
3AC
330
17
100
AcDbEntity
  8
COTA
 62
7
100
AcDbHatch
 10
0.0
 20
0.0
 30
0.0
210
0.0
220
0.0
230
1.0
  2
AR-CONC
 70
0
 71
0
 91
1
 92
3
 72
0
 73
1
 93
5
 10
5724.148183184341
 20
4409.784014973499
 10
5724.148183184341
 20
4473.784014973502
 10
5705.148183184341
 20
4473.784014973502
 10
5705.148183184363
 20
4409.784014973499
 10
5724.148183184341
 20
4409.784014973499
 97
0
 75
1
 76
1
 52
0.0
 41
1.0
 77
0
 78
13
 53
50.0
 43
0.0
 44
0.0
 45
182.184668996
 46
-15.9390855389
 79
2
 49
19.05
 49
-209.55
 53
355.0
 43
0.0
 44
0.0
 45
-35.243421425
 46
191.056845239
 79
2
 49
15.24
 49
-167.64058417
 53
100.4514447
 43
15.182007
 44
-1.3282535
 45
146.9412470904
 46
175.1177519122
 79
2
 49
16.1900088
 49
-178.0902446
 53
46.1842
 43
0.0
 44
50.8
 45
271.0790408921
 46
-42.0423279327
 79
2
 49
28.575
 49
-314.325
 53
96.63555761
 43
22.5899
 44
47.2965
 45
237.4041340515
 46
247.4261245977
 79
2
 49
24.28502314
 49
-267.13560816
 53
351.18415117
 43
0.0
 44
50.8
 45
237.404134065
 46
247.4261245855
 79
2
 49
22.85996707
 49
-251.45973192
 53
21.0
 43
25.4
 44
38.1
 45
151.6143912691
 46
-102.2651981871
 79
2
 49
19.05
 49
-209.55
 53
326.0
 43
25.4
 44
38.1
 45
61.8020283476
 46
184.1879661223
 79
2
 49
15.24
 49
-167.64
 53
71.451445
 43
38.0345326
 44
29.5779001
 45
213.4164192787
 46
81.9227688859
 79
2
 49
16.1900088
 49
-178.0899376
 53
37.5
 43
0.0
 44
0.0
 45
3.0886032506
 46
84.5550388732
 79
6
 49
0.0
 49
-165.608
 49
0.0
 49
-170.18
 49
0.0
 49
-168.275
 53
7.5
 43
0.0
 44
0.0
 45
66.8196625103
 46
100.1805748181
 79
6
 49
0.0
 49
-97.028
 49
0.0
 49
-161.798
 49
0.0
 49
-64.135
 53
-32.5
 43
-56.642
 44
0.0
 45
135.5905951669
 46
-5.7287439927
 79
6
 49
0.0
 49
-63.5
 49
0.0
 49
-198.12
 49
0.0
 49
-262.89
 53
-42.5
 43
-82.042
 44
0.0
 45
148.129181386
 46
25.4264910333
 79
6
 49
0.0
 49
-82.55
 49
0.0
 49
-131.572
 49
0.0
 49
-186.69
 98
0
  0
HATCH
  5
3AD
330
17
100
AcDbEntity
  8
COTA
 62
7
100
AcDbHatch
 10
0.0
 20
0.0
 30
0.0
210
0.0
220
0.0
230
1.0
  2
AR-CONC
 70
0
 71
0
 91
1
 92
3
 72
0
 73
1
 93
5
 10
5887.931874390328
 20
4409.784014973499
 10
5887.931874390328
 20
4473.784014973502
 10
5868.931874390328
 20
4473.784014973502
 10
5868.93187439035
 20
4409.784014973499
 10
5887.931874390328
 20
4409.784014973499
 97
0
 75
1
 76
1
 52
0.0
 41
1.0
 77
0
 78
13
 53
50.0
 43
0.0
 44
0.0
 45
182.184668996
 46
-15.9390855389
 79
2
 49
19.05
 49
-209.55
 53
355.0
 43
0.0
 44
0.0
 45
-35.243421425
 46
191.056845239
 79
2
 49
15.24
 49
-167.64058417
 53
100.4514447
 43
15.182007
 44
-1.3282535
 45
146.9412470904
 46
175.1177519122
 79
2
 49
16.1900088
 49
-178.0902446
 53
46.1842
 43
0.0
 44
50.8
 45
271.0790408921
 46
-42.0423279327
 79
2
 49
28.575
 49
-314.325
 53
96.63555761
 43
22.5899
 44
47.2965
 45
237.4041340515
 46
247.4261245977
 79
2
 49
24.28502314
 49
-267.13560816
 53
351.18415117
 43
0.0
 44
50.8
 45
237.404134065
 46
247.4261245855
 79
2
 49
22.85996707
 49
-251.45973192
 53
21.0
 43
25.4
 44
38.1
 45
151.6143912691
 46
-102.2651981871
 79
2
 49
19.05
 49
-209.55
 53
326.0
 43
25.4
 44
38.1
 45
61.8020283476
 46
184.1879661223
 79
2
 49
15.24
 49
-167.64
 53
71.451445
 43
38.0345326
 44
29.5779001
 45
213.4164192787
 46
81.9227688859
 79
2
 49
16.1900088
 49
-178.0899376
 53
37.5
 43
0.0
 44
0.0
 45
3.0886032506
 46
84.5550388732
 79
6
 49
0.0
 49
-165.608
 49
0.0
 49
-170.18
 49
0.0
 49
-168.275
 53
7.5
 43
0.0
 44
0.0
 45
66.8196625103
 46
100.1805748181
 79
6
 49
0.0
 49
-97.028
 49
0.0
 49
-161.798
 49
0.0
 49
-64.135
 53
-32.5
 43
-56.642
 44
0.0
 45
135.5905951669
 46
-5.7287439927
 79
6
 49
0.0
 49
-63.5
 49
0.0
 49
-198.12
 49
0.0
 49
-262.89
 53
-42.5
 43
-82.042
 44
0.0
 45
148.129181386
 46
25.4264910333
 79
6
 49
0.0
 49
-82.55
 49
0.0
 49
-131.572
 49
0.0
 49
-186.69
 98
0
  0
HATCH
  5
3AE
330
17
100
AcDbEntity
  8
Hachura
 62
7
100
AcDbHatch
 10
0.0
 20
0.0
 30
0.0
210
0.0
220
0.0
230
1.0
  2
ANSI31
 70
0
 71
0
 91
1
 92
3
 72
0
 73
1
 93
5
 10
4757.172502892397
 20
4466.447178277154
 10
4757.172502892397
 20
4470.847178271473
 10
4743.172502906541
 20
4470.847178271561
 10
4743.172502906541
 20
4466.447178277125
 10
4757.172502892397
 20
4466.447178277154
 97
0
 75
1
 76
1
 52
0.0
 41
1.0
 77
0
 78
1
 53
45.0
 43
0.0
 44
0.0
 45
-2.2450640303
 46
2.2450640303
 79
0
 98
0
  0
HATCH
  5
3AF
330
17
100
AcDbEntity
  8
Hachura
 62
7
100
AcDbHatch
 10
0.0
 20
0.0
 30
0.0
210
0.0
220
0.0
230
1.0
  2
ANSI31
 70
0
 71
0
 91
1
 92
3
 72
0
 73
1
 93
5
 10
4757.172502892397
 20
4504.44717822727
 10
4757.172502892397
 20
4500.047178232951
 10
4743.172502906541
 20
4500.047178232864
 10
4743.172502906541
 20
4504.44717822724
 10
4757.172502892397
 20
4504.44717822727
 97
0
 75
1
 76
1
 52
0.0
 41
1.0
 77
0
 78
1
 53
45.0
 43
0.0
 44
0.0
 45
-2.2450640303
 46
2.2450640303
 79
0
 98
0
  0
HATCH
  5
3B0
330
17
100
AcDbEntity
  8
Hachura
 62
7
100
AcDbHatch
 10
0.0
 20
0.0
 30
0.0
210
0.0
220
0.0
230
1.0
  2
ANSI31
 70
0
 71
0
 91
1
 92
3
 72
0
 73
1
 93
5
 10
4893.172502876507
 20
4466.447178277154
 10
4893.172502876507
 20
4470.847178271473
 10
4907.172502862362
 20
4470.847178271561
 10
4907.172502862362
 20
4466.447178277125
 10
4893.172502876507
 20
4466.447178277154
 97
0
 75
1
 76
1
 52
0.0
 41
1.0
 77
0
 78
1
 53
45.0
 43
0.0
 44
0.0
 45
-2.2450640303
 46
2.2450640303
 79
0
 98
0
  0
HATCH
  5
3B1
330
17
100
AcDbEntity
  8
Hachura
 62
7
100
AcDbHatch
 10
0.0
 20
0.0
 30
0.0
210
0.0
220
0.0
230
1.0
  2
SOLID
 70
1
 71
0
 91
1
 92
3
 72
0
 73
1
 93
5
 10
4743.172502907007
 20
4466.44717833251
 10
4743.172502907007
 20
4462.447178332509
 10
4907.172502862362
 20
4462.447178332509
 10
4907.172502862362
 20
4466.44717833251
 10
4743.172502907007
 20
4466.44717833251
 97
0
 75
1
 76
1
 98
0
  0
HATCH
  5
3B2
330
17
100
AcDbEntity
  8
Hachura
 62
7
100
AcDbHatch
 10
0.0
 20
0.0
 30
0.0
210
0.0
220
0.0
230
1.0
  2
SOLID
 70
1
 71
0
 91
1
 92
3
 72
0
 73
1
 93
5
 10
4743.172502907007
 20
4504.447178171914
 10
4743.172502907007
 20
4508.447178171915
 10
4907.172502862362
 20
4508.447178171915
 10
4907.172502862362
 20
4504.447178171914
 10
4743.172502907007
 20
4504.447178171914
 97
0
 75
1
 76
1
 98
0
  0
HATCH
  5
3B3
330
17
100
AcDbEntity
  8
Hachura
 62
7
100
AcDbHatch
 10
0.0
 20
0.0
 30
0.0
210
0.0
220
0.0
230
1.0
  2
SOLID
 70
1
 71
0
 91
1
 92
3
 72
0
 73
1
 93
5
 10
4888.772502886816
 20
4504.447178171914
 10
4885.17250288681
 20
4504.447178171914
 10
4885.17250288681
 20
4466.44717833251
 10
4888.772502886816
 20
4466.44717833251
 10
4888.772502886816
 20
4504.447178171914
 97
0
 75
1
 76
1
 98
0
  0
HATCH
  5
3B4
330
17
100
AcDbEntity
  8
Hachura
 62
7
100
AcDbHatch
 10
0.0
 20
0.0
 30
0.0
210
0.0
220
0.0
230
1.0
  2
SOLID
 70
1
 71
0
 91
1
 92
3
 72
0
 73
1
 93
5
 10
4765.172502886809
 20
4504.447178171973
 10
4761.572502886803
 20
4504.447178171973
 10
4761.572502886803
 20
4466.447178332567
 10
4765.172502886809
 20
4466.447178332567
 10
4765.172502886809
 20
4504.447178171973
 97
0
 75
1
 76
1
 98
0
  0
HATCH
  5
3B5
330
17
100
AcDbEntity
  8
Hachura
 62
7
100
AcDbHatch
 10
0.0
 20
0.0
 30
0.0
210
0.0
220
0.0
230
1.0
  2
ANSI31
 70
0
 71
0
 91
1
 92
3
 72
0
 73
1
 93
5
 10
4893.172502876507
 20
4504.44717822727
 10
4893.172502876507
 20
4500.047178232951
 10
4907.172502862362
 20
4500.047178232864
 10
4907.172502862362
 20
4504.44717822724
 10
4893.172502876507
 20
4504.44717822727
 97
0
 75
1
 76
1
 52
0.0
 41
1.0
 77
0
 78
1
 53
45.0
 43
0.0
 44
0.0
 45
-2.2450640303
 46
2.2450640303
 79
0
 98
0
  0
HATCH
  5
3B6
330
17
100
AcDbEntity
  8
Hachura
 62
7
100
AcDbHatch
 10
0.0
 20
0.0
 30
0.0
210
0.0
220
0.0
230
1.0
  2
SOLID
 70
1
 71
0
 91
1
 92
3
 72
0
 73
1
 93
5
 10
4743.172502907007
 20
4466.44717833251
 10
4743.172502907007
 20
4462.447178332509
 10
4907.172502862362
 20
4462.447178332509
 10
4907.172502862362
 20
4466.44717833251
 10
4743.172502907007
 20
4466.44717833251
 97
0
 75
1
 76
1
 98
0
  0
HATCH
  5
3B7
330
17
100
AcDbEntity
  8
Hachura
 62
7
100
AcDbHatch
 10
0.0
 20
0.0
 30
0.0
210
0.0
220
0.0
230
1.0
  2
SOLID
 70
1
 71
0
 91
1
 92
3
 72
0
 73
1
 93
5
 10
4743.172502907007
 20
4504.447178171914
 10
4743.172502907007
 20
4508.447178171915
 10
4907.172502862362
 20
4508.447178171915
 10
4907.172502862362
 20
4504.447178171914
 10
4743.172502907007
 20
4504.447178171914
 97
0
 75
1
 76
1
 98
0
  0
HATCH
  5
3B8
330
17
100
AcDbEntity
  8
Hachura
 62
7
100
AcDbHatch
 10
0.0
 20
0.0
 30
0.0
210
0.0
220
0.0
230
1.0
  2
SOLID
 70
1
 71
0
 91
1
 92
3
 72
0
 73
1
 93
5
 10
4888.772502886816
 20
4504.447178171914
 10
4885.17250288681
 20
4504.447178171914
 10
4885.17250288681
 20
4466.44717833251
 10
4888.772502886816
 20
4466.44717833251
 10
4888.772502886816
 20
4504.447178171914
 97
0
 75
1
 76
1
 98
0
  0
HATCH
  5
3B9
330
17
100
AcDbEntity
  8
Hachura
 62
7
100
AcDbHatch
 10
0.0
 20
0.0
 30
0.0
210
0.0
220
0.0
230
1.0
  2
SOLID
 70
1
 71
0
 91
1
 92
3
 72
0
 73
1
 93
5
 10
4765.172502886809
 20
4504.447178171973
 10
4761.572502886803
 20
4504.447178171973
 10
4761.572502886803
 20
4466.447178332567
 10
4765.172502886809
 20
4466.447178332567
 10
4765.172502886809
 20
4504.447178171973
 97
0
 75
1
 76
1
 98
0
  0
HATCH
  5
3BA
330
17
100
AcDbEntity
  8
Hachura
 62
7
100
AcDbHatch
 10
0.0
 20
0.0
 30
0.0
210
0.0
220
0.0
230
1.0
  2
ANSI31
 70
0
 71
0
 91
1
 92
3
 72
0
 73
1
 93
5
 10
4893.172502876507
 20
4466.447178443192
 10
4888.772502882187
 20
4466.447178443192
 10
4888.772502882101
 20
4480.447178429047
 10
4893.172502876507
 20
4480.447178429047
 10
4893.172502876507
 20
4466.447178443192
 97
0
 75
1
 76
1
 52
0.0
 41
1.0
 77
0
 78
1
 53
45.0
 43
0.0
 44
0.0
 45
-2.2450640303
 46
2.2450640303
 79
0
 98
0
  0
HATCH
  5
3BB
330
17
100
AcDbEntity
  8
Hachura
 62
7
100
AcDbHatch
 10
0.0
 20
0.0
 30
0.0
210
0.0
220
0.0
230
1.0
  2
ANSI31
 70
0
 71
0
 91
1
 92
3
 72
0
 73
1
 93
5
 10
4761.572502886803
 20
4466.44717844325
 10
4757.172502892484
 20
4466.44717844325
 10
4757.172502892397
 20
4480.447178429105
 10
4761.572502886803
 20
4480.447178429105
 10
4761.572502886803
 20
4466.44717844325
 97
0
 75
1
 76
1
 52
0.0
 41
1.0
 77
0
 78
1
 53
45.0
 43
0.0
 44
0.0
 45
-2.2450640303
 46
2.2450640303
 79
0
 98
0
  0
HATCH
  5
3BC
330
17
100
AcDbEntity
  8
Hachura
 62
7
100
AcDbHatch
 10
0.0
 20
0.0
 30
0.0
210
0.0
220
0.0
230
1.0
  2
ANSI31
 70
0
 71
0
 91
1
 92
3
 72
0
 73
1
 93
5
 10
4893.172502876507
 20
4504.447178061233
 10
4888.772502882187
 20
4504.447178061233
 10
4888.772502882101
 20
4490.447178075377
 10
4893.172502876507
 20
4490.447178075377
 10
4893.172502876507
 20
4504.447178061233
 97
0
 75
1
 76
1
 52
0.0
 41
1.0
 77
0
 78
1
 53
45.0
 43
0.0
 44
0.0
 45
-2.2450640303
 46
2.2450640303
 79
0
 98
0
  0
HATCH
  5
3BD
330
17
100
AcDbEntity
  8
Hachura
 62
7
100
AcDbHatch
 10
0.0
 20
0.0
 30
0.0
210
0.0
220
0.0
230
1.0
  2
ANSI31
 70
0
 71
0
 91
1
 92
3
 72
0
 73
1
 93
5
 10
4761.572502886803
 20
4504.447178061175
 10
4757.172502892484
 20
4504.447178061175
 10
4757.172502892397
 20
4490.447178075319
 10
4761.572502886803
 20
4490.447178075319
 10
4761.572502886803
 20
4504.447178061175
 97
0
 75
1
 76
1
 52
0.0
 41
1.0
 77
0
 78
1
 53
45.0
 43
0.0
 44
0.0
 45
-2.2450640303
 46
2.2450640303
 79
0
 98
0
  0
ENDSEC
  0
SECTION
  2
OBJECTS
  0
DICTIONARY
  5
A
330
0
100
AcDbDictionary
281
1
  3
ACAD_COLOR
350
B
  3
ACAD_GROUP
350
C
  3
ACAD_LAYOUT
350
D
  3
ACAD_MATERIAL
350
E
  3
ACAD_MLEADERSTYLE
350
F
  3
ACAD_MLINESTYLE
350
10
  3
ACAD_PLOTSETTINGS
350
11
  3
ACAD_PLOTSTYLENAME
350
12
  3
ACAD_SCALELIST
350
14
  3
ACAD_TABLESTYLE
350
15
  3
ACAD_VISUALSTYLE
350
16
  3
EZDXF_META
350
2D
  0
DICTIONARY
  5
B
330
A
100
AcDbDictionary
281
1
  0
DICTIONARY
  5
C
330
A
100
AcDbDictionary
281
1
  0
DICTIONARY
  5
D
330
A
100
AcDbDictionary
281
1
  3
Model
350
1A
  3
Layout1
350
1E
  0
DICTIONARY
  5
E
330
A
100
AcDbDictionary
281
1
  3
ByBlock
350
1F
  3
ByLayer
350
20
  3
Global
350
21
  0
DICTIONARY
  5
F
330
A
100
AcDbDictionary
281
1
  3
Standard
350
2C
  0
DICTIONARY
  5
10
330
A
100
AcDbDictionary
281
1
  3
Standard
350
22
  0
DICTIONARY
  5
11
330
A
100
AcDbDictionary
281
1
  0
ACDBDICTIONARYWDFLT
  5
12
330
A
100
AcDbDictionary
281
1
  3
Normal
350
13
100
AcDbDictionaryWithDefault
340
13
  0
ACDBPLACEHOLDER
  5
13
330
12
  0
DICTIONARY
  5
14
330
A
100
AcDbDictionary
281
1
  0
DICTIONARY
  5
15
330
A
100
AcDbDictionary
281
1
  0
DICTIONARY
  5
16
330
A
100
AcDbDictionary
281
1
  0
LAYOUT
  5
1A
330
D
100
AcDbPlotSettings
  1

  4
A3
  6

 40
7.5
 41
20.0
 42
7.5
 43
20.0
 44
420.0
 45
297.0
 46
0.0
 47
0.0
 48
0.0
 49
0.0
140
0.0
141
0.0
142
1.0
143
1.0
 70
1024
 72
1
 73
0
 74
5
  7

 75
16
 76
0
 77
2
 78
300
147
1.0
148
0.0
149
0.0
100
AcDbLayout
  1
Model
 70
1
 71
0
 10
0.0
 20
0.0
 11
420.0
 21
297.0
 12
0.0
 22
0.0
 32
0.0
 14
1e+20
 24
1e+20
 34
1e+20
 15
-1e+20
 25
-1e+20
 35
-1e+20
146
0.0
 13
0.0
 23
0.0
 33
0.0
 16
1.0
 26
0.0
 36
0.0
 17
0.0
 27
1.0
 37
0.0
 76
1
330
17
  0
LAYOUT
  5
1E
330
D
100
AcDbPlotSettings
  1

  4
A3
  6

 40
7.5
 41
20.0
 42
7.5
 43
20.0
 44
420.0
 45
297.0
 46
0.0
 47
0.0
 48
0.0
 49
0.0
140
0.0
141
0.0
142
1.0
143
1.0
 70
0
 72
1
 73
0
 74
5
  7

 75
16
 76
0
 77
2
 78
300
147
1.0
148
0.0
149
0.0
100
AcDbLayout
  1
Layout1
 70
1
 71
1
 10
0.0
 20
0.0
 11
420.0
 21
297.0
 12
0.0
 22
0.0
 32
0.0
 14
1e+20
 24
1e+20
 34
1e+20
 15
-1e+20
 25
-1e+20
 35
-1e+20
146
0.0
 13
0.0
 23
0.0
 33
0.0
 16
1.0
 26
0.0
 36
0.0
 17
0.0
 27
1.0
 37
0.0
 76
1
330
1B
  0
MATERIAL
  5
1F
102
{ACAD_REACTORS
330
E
102
}
330
E
100
AcDbMaterial
  1
ByBlock
  2

 70
0
 40
1.0
 71
1
 41
1.0
 91
-1023410177
 42
1.0
 72
1
  3

 73
1
 74
1
 75
1
 44
0.5
 73
0
 45
1.0
 46
1.0
 77
1
  4

 78
1
 79
1
170
1
 48
1.0
171
1
  6

172
1
173
1
174
1
140
1.0
141
1.0
175
1
  7

176
1
177
1
178
1
143
1.0
179
1
  8

270
1
271
1
272
1
145
1.0
146
1.0
273
1
  9

274
1
275
1
276
1
 42
1.0
 72
1
  3

 73
1
 74
1
 75
1
 94
63
  0
MATERIAL
  5
20
102
{ACAD_REACTORS
330
E
102
}
330
E
100
AcDbMaterial
  1
ByLayer
  2

 70
0
 40
1.0
 71
1
 41
1.0
 91
-1023410177
 42
1.0
 72
1
  3

 73
1
 74
1
 75
1
 44
0.5
 73
0
 45
1.0
 46
1.0
 77
1
  4

 78
1
 79
1
170
1
 48
1.0
171
1
  6

172
1
173
1
174
1
140
1.0
141
1.0
175
1
  7

176
1
177
1
178
1
143
1.0
179
1
  8

270
1
271
1
272
1
145
1.0
146
1.0
273
1
  9

274
1
275
1
276
1
 42
1.0
 72
1
  3

 73
1
 74
1
 75
1
 94
63
  0
MATERIAL
  5
21
102
{ACAD_REACTORS
330
E
102
}
330
E
100
AcDbMaterial
  1
Global
  2

 70
0
 40
1.0
 71
1
 41
1.0
 91
-1023410177
 42
1.0
 72
1
  3

 73
1
 74
1
 75
1
 44
0.5
 73
0
 45
1.0
 46
1.0
 77
1
  4

 78
1
 79
1
170
1
 48
1.0
171
1
  6

172
1
173
1
174
1
140
1.0
141
1.0
175
1
  7

176
1
177
1
178
1
143
1.0
179
1
  8

270
1
271
1
272
1
145
1.0
146
1.0
273
1
  9

274
1
275
1
276
1
 42
1.0
 72
1
  3

 73
1
 74
1
 75
1
 94
63
  0
MLINESTYLE
  5
22
102
{ACAD_REACTORS
330
10
102
}
330
10
100
AcDbMlineStyle
  2
Standard
 70
0
  3

 62
256
 51
90.0
 52
90.0
 71
2
 49
0.5
 62
256
  6
BYLAYER
 49
-0.5
 62
256
  6
BYLAYER
  0
MLEADERSTYLE
  5
2C
102
{ACAD_REACTORS
330
F
102
}
330
F
100
AcDbMLeaderStyle
179
2
170
2
171
1
172
0
 90
2
 40
0.0
 41
0.0
173
1
 91
-1056964608
 92
-2
290
1
 42
2.0
291
1
 43
8.0
  3
Standard
 44
4.0
300

342
29
174
1
175
1
176
0
178
1
 93
-1056964608
 45
4.0
292
0
297
0
 46
4.0
 94
-1056964608
 47
1.0
 49
1.0
140
1.0
294
1
141
0.0
177
0
142
1.0
295
0
296
0
143
3.75
271
0
272
9
273
9
  0
DICTIONARY
  5
2D
330
A
100
AcDbDictionary
280
1
281
1
  3
CREATED_BY_EZDXF
350
2E
  3
WRITTEN_BY_EZDXF
350
3C0
  0
DICTIONARYVAR
  5
2E
330
2D
100
DictionaryVariables
280
0
  1
1.4.3 @ 2026-06-10T17:44:05.974537+00:00
  0
DICTIONARYVAR
  5
3C0
330
2D
100
DictionaryVariables
280
0
  1
1.4.3 @ 2026-06-10T17:44:06.000793+00:00
  0
ENDSEC
  0
EOF
