  0
SECTION
  2
HEADER
  9
$ACADVER
  1
AC1024
  9
$ACADMAINTVER
 70
6
  9
$DWGCODEPAGE
  3
ANSI_1252
  9
$LASTSAVEDBY
  1
ezdxf
  9
$INSBASE
 10
0.0
 20
0.0
 30
0.0
  9
$EXTMIN
 10
1e+20
 20
1e+20
 30
1e+20
  9
$EXTMAX
 10
-1e+20
 20
-1e+20
 30
-1e+20
  9
$LIMMIN
 10
0.0
 20
0.0
  9
$LIMMAX
 10
420.0
 20
297.0
  9
$ORTHOMODE
 70
0
  9
$REGENMODE
 70
1
  9
$FILLMODE
 70
1
  9
$QTEXTMODE
 70
0
  9
$MIRRTEXT
 70
1
  9
$LTSCALE
 40
1.0
  9
$ATTMODE
 70
1
  9
$TEXTSIZE
 40
2.5
  9
$TRACEWID
 40
1.0
  9
$TEXTSTYLE
  7
Standard
  9
$CLAYER
  8
0
  9
$CELTYPE
  6
ByLayer
  9
$CECOLOR
 62
256
  9
$CELTSCALE
 40
1.0
  9
$DISPSILH
 70
0
  9
$DIMSCALE
 40
1.0
  9
$DIMASZ
 40
2.5
  9
$DIMEXO
 40
0.625
  9
$DIMDLI
 40
3.75
  9
$DIMRND
 40
0.0
  9
$DIMDLE
 40
0.0
  9
$DIMEXE
 40
1.25
  9
$DIMTP
 40
0.0
  9
$DIMTM
 40
0.0
  9
$DIMTXT
 40
2.5
  9
$DIMCEN
 40
2.5
  9
$DIMTSZ
 40
0.0
  9
$DIMTOL
 70
0
  9
$DIMLIM
 70
0
  9
$DIMTIH
 70
0
  9
$DIMTOH
 70
0
  9
$DIMSE1
 70
0
  9
$DIMSE2
 70
0
  9
$DIMTAD
 70
1
  9
$DIMZIN
 70
8
  9
$DIMBLK
  1

  9
$DIMASO
 70
1
  9
$DIMSHO
 70
1
  9
$DIMPOST
  1

  9
$DIMAPOST
  1

  9
$DIMALT
 70
0
  9
$DIMALTD
 70
3
  9
$DIMALTF
 40
0.03937007874
  9
$DIMLFAC
 40
1.0
  9
$DIMTOFL
 70
1
  9
$DIMTVP
 40
0.0
  9
$DIMTIX
 70
0
  9
$DIMSOXD
 70
0
  9
$DIMSAH
 70
0
  9
$DIMBLK1
  1

  9
$DIMBLK2
  1

  9
$DIMSTYLE
  2
ISO-25
  9
$DIMCLRD
 70
0
  9
$DIMCLRE
 70
0
  9
$DIMCLRT
 70
0
  9
$DIMTFAC
 40
1.0
  9
$DIMGAP
 40
0.625
  9
$DIMJUST
 70
0
  9
$DIMSD1
 70
0
  9
$DIMSD2
 70
0
  9
$DIMTOLJ
 70
0
  9
$DIMTZIN
 70
8
  9
$DIMALTZ
 70
0
  9
$DIMALTTZ
 70
0
  9
$DIMUPT
 70
0
  9
$DIMDEC
 70
2
  9
$DIMTDEC
 70
2
  9
$DIMALTU
 70
2
  9
$DIMALTTD
 70
3
  9
$DIMTXSTY
  7
Standard
  9
$DIMAUNIT
 70
0
  9
$DIMADEC
 70
0
  9
$DIMALTRND
 40
0.0
  9
$DIMAZIN
 70
0
  9
$DIMDSEP
 70
44
  9
$DIMATFIT
 70
3
  9
$DIMFRAC
 70
0
  9
$DIMLDRBLK
  1

  9
$DIMLUNIT
 70
2
  9
$DIMLWD
 70
-2
  9
$DIMLWE
 70
-2
  9
$DIMTMOVE
 70
0
  9
$DIMFXL
 40
1.0
  9
$DIMFXLON
 70
0
  9
$DIMJOGANG
 40
0.785398163397
  9
$DIMTFILL
 70
0
  9
$DIMTFILLCLR
 70
0
  9
$DIMARCSYM
 70
0
  9
$DIMLTYPE
  6

  9
$DIMLTEX1
  6

  9
$DIMLTEX2
  6

  9
$DIMTXTDIRECTION
 70
0
  9
$LUNITS
 70
2
  9
$LUPREC
 70
4
  9
$SKETCHINC
 40
1.0
  9
$FILLETRAD
 40
10.0
  9
$AUNITS
 70
0
  9
$AUPREC
 70
2
  9
$MENU
  1
.
  9
$ELEVATION
 40
0.0
  9
$PELEVATION
 40
0.0
  9
$THICKNESS
 40
0.0
  9
$LIMCHECK
 70
0
  9
$CHAMFERA
 40
0.0
  9
$CHAMFERB
 40
0.0
  9
$CHAMFERC
 40
0.0
  9
$CHAMFERD
 40
0.0
  9
$SKPOLY
 70
0
  9
$TDCREATE
 40
2461208.7022800925
  9
$TDUCREATE
 40
2458532.153996898
  9
$TDUPDATE
 40
2461208.7022800925
  9
$TDUUPDATE
 40
2458532.1544311
  9
$TDINDWG
 40
0.0
  9
$TDUSRTIMER
 40
0.0
  9
$USRTIMER
 70
1
  9
$ANGBASE
 50
0.0
  9
$ANGDIR
 70
0
  9
$PDMODE
 70
0
  9
$PDSIZE
 40
0.0
  9
$PLINEWID
 40
0.0
  9
$SPLFRAME
 70
0
  9
$SPLINETYPE
 70
6
  9
$SPLINESEGS
 70
8
  9
$HANDSEED
  5
F1
  9
$SURFTAB1
 70
6
  9
$SURFTAB2
 70
6
  9
$SURFTYPE
 70
6
  9
$SURFU
 70
6
  9
$SURFV
 70
6
  9
$UCSBASE
  2

  9
$UCSNAME
  2

  9
$UCSORG
 10
0.0
 20
0.0
 30
0.0
  9
$UCSXDIR
 10
1.0
 20
0.0
 30
0.0
  9
$UCSYDIR
 10
0.0
 20
1.0
 30
0.0
  9
$UCSORTHOREF
  2

  9
$UCSORTHOVIEW
 70
0
  9
$UCSORGTOP
 10
0.0
 20
0.0
 30
0.0
  9
$UCSORGBOTTOM
 10
0.0
 20
0.0
 30
0.0
  9
$UCSORGLEFT
 10
0.0
 20
0.0
 30
0.0
  9
$UCSORGRIGHT
 10
0.0
 20
0.0
 30
0.0
  9
$UCSORGFRONT
 10
0.0
 20
0.0
 30
0.0
  9
$UCSORGBACK
 10
0.0
 20
0.0
 30
0.0
  9
$PUCSBASE
  2

  9
$PUCSNAME
  2

  9
$PUCSORG
 10
0.0
 20
0.0
 30
0.0
  9
$PUCSXDIR
 10
1.0
 20
0.0
 30
0.0
  9
$PUCSYDIR
 10
0.0
 20
1.0
 30
0.0
  9
$PUCSORTHOREF
  2

  9
$PUCSORTHOVIEW
 70
0
  9
$PUCSORGTOP
 10
0.0
 20
0.0
 30
0.0
  9
$PUCSORGBOTTOM
 10
0.0
 20
0.0
 30
0.0
  9
$PUCSORGLEFT
 10
0.0
 20
0.0
 30
0.0
  9
$PUCSORGRIGHT
 10
0.0
 20
0.0
 30
0.0
  9
$PUCSORGFRONT
 10
0.0
 20
0.0
 30
0.0
  9
$PUCSORGBACK
 10
0.0
 20
0.0
 30
0.0
  9
$USERI1
 70
0
  9
$USERI2
 70
0
  9
$USERI3
 70
0
  9
$USERI4
 70
0
  9
$USERI5
 70
0
  9
$USERR1
 40
0.0
  9
$USERR2
 40
0.0
  9
$USERR3
 40
0.0
  9
$USERR4
 40
0.0
  9
$USERR5
 40
0.0
  9
$WORLDVIEW
 70
1
  9
$SHADEDGE
 70
3
  9
$SHADEDIF
 70
70
  9
$TILEMODE
 70
1
  9
$MAXACTVP
 70
64
  9
$PINSBASE
 10
0.0
 20
0.0
 30
0.0
  9
$PLIMCHECK
 70
0
  9
$PEXTMIN
 10
1e+20
 20
1e+20
 30
1e+20
  9
$PEXTMAX
 10
-1e+20
 20
-1e+20
 30
-1e+20
  9
$PLIMMIN
 10
0.0
 20
0.0
  9
$PLIMMAX
 10
420.0
 20
297.0
  9
$UNITMODE
 70
0
  9
$VISRETAIN
 70
1
  9
$PLINEGEN
 70
0
  9
$PSLTSCALE
 70
1
  9
$TREEDEPTH
 70
3020
  9
$CMLSTYLE
  2
Standard
  9
$CMLJUST
 70
0
  9
$CMLSCALE
 40
20.0
  9
$PROXYGRAPHICS
 70
1
  9
$MEASUREMENT
 70
1
  9
$CELWEIGHT
370
-1
  9
$ENDCAPS
280
0
  9
$JOINSTYLE
280
0
  9
$LWDISPLAY
290
0
  9
$INSUNITS
 70
6
  9
$HYPERLINKBASE
  1

  9
$STYLESHEET
  1

  9
$XEDIT
290
1
  9
$CEPSNTYPE
380
0
  9
$PSTYLEMODE
290
1
  9
$FINGERPRINTGUID
  2
{5AC0F1B3-8470-4870-B6F5-EE3B5E7A1272}
  9
$VERSIONGUID
  2
{621CA18E-E81F-4DA2-99D4-07C88B6D5AE8}
  9
$EXTNAMES
290
1
  9
$PSVPSCALE
 40
0.0
  9
$OLESTARTUP
290
0
  9
$SORTENTS
280
127
  9
$INDEXCTL
280
0
  9
$HIDETEXT
280
1
  9
$XCLIPFRAME
280
1
  9
$HALOGAP
280
0
  9
$OBSCOLOR
 70
257
  9
$OBSLTYPE
280
0
  9
$INTERSECTIONDISPLAY
280
0
  9
$INTERSECTIONCOLOR
 70
257
  9
$DIMASSOC
280
2
  9
$PROJECTNAME
  1

  9
$CAMERADISPLAY
290
0
  9
$LENSLENGTH
 40
50.0
  9
$CAMERAHEIGHT
 40
0.0
  9
$STEPSPERSEC
 40
24.0
  9
$STEPSIZE
 40
100.0
  9
$3DDWFPREC
 40
2.0
  9
$PSOLWIDTH
 40
0.005
  9
$PSOLHEIGHT
 40
0.08
  9
$LOFTANG1
 40
1.570796326795
  9
$LOFTANG2
 40
1.570796326795
  9
$LOFTMAG1
 40
0.0
  9
$LOFTMAG2
 40
0.0
  9
$LOFTPARAM
 70
7
  9
$LOFTNORMALS
280
1
  9
$LATITUDE
 40
37.795
  9
$LONGITUDE
 40
-122.394
  9
$NORTHDIRECTION
 40
0.0
  9
$TIMEZONE
 70
-8000
  9
$LIGHTGLYPHDISPLAY
280
1
  9
$TILEMODELIGHTSYNCH
280
1
  9
$CMATERIAL
347
20
  9
$SOLIDHIST
280
0
  9
$SHOWHIST
280
1
  9
$DWFFRAME
280
2
  9
$DGNFRAME
280
2
  9
$REALWORLDSCALE
290
1
  9
$INTERFERECOLOR
 62
256
  9
$CSHADOW
280
0
  9
$SHADOWPLANELOCATION
 40
0.0
  0
ENDSEC
  0
SECTION
  2
CLASSES
  0
CLASS
  1
ACDBDICTIONARYWDFLT
  2
AcDbDictionaryWithDefault
  3
ObjectDBX Classes
 90
0
 91
0
280
0
281
0
  0
CLASS
  1
SUN
  2
AcDbSun
  3
SCENEOE
 90
1153
 91
0
280
0
281
0
  0
CLASS
  1
VISUALSTYLE
  2
AcDbVisualStyle
  3
ObjectDBX Classes
 90
4095
 91
0
280
0
281
0
  0
CLASS
  1
MATERIAL
  2
AcDbMaterial
  3
ObjectDBX Classes
 90
1153
 91
0
280
0
281
0
  0
CLASS
  1
SCALE
  2
AcDbScale
  3
ObjectDBX Classes
 90
1153
 91
0
280
0
281
0
  0
CLASS
  1
TABLESTYLE
  2
AcDbTableStyle
  3
ObjectDBX Classes
 90
4095
 91
0
280
0
281
0
  0
CLASS
  1
MLEADERSTYLE
  2
AcDbMLeaderStyle
  3
ACDB_MLEADERSTYLE_CLASS
 90
4095
 91
0
280
0
281
0
  0
CLASS
  1
DICTIONARYVAR
  2
AcDbDictionaryVar
  3
ObjectDBX Classes
 90
0
 91
0
280
0
281
0
  0
CLASS
  1
CELLSTYLEMAP
  2
AcDbCellStyleMap
  3
ObjectDBX Classes
 90
1152
 91
0
280
0
281
0
  0
CLASS
  1
MENTALRAYRENDERSETTINGS
  2
AcDbMentalRayRenderSettings
  3
SCENEOE
 90
1024
 91
0
280
0
281
0
  0
CLASS
  1
ACDBDETAILVIEWSTYLE
  2
AcDbDetailViewStyle
  3
ObjectDBX Classes
 90
1025
 91
0
280
0
281
0
  0
CLASS
  1
ACDBSECTIONVIEWSTYLE
  2
AcDbSectionViewStyle
  3
ObjectDBX Classes
 90
1025
 91
0
280
0
281
0
  0
CLASS
  1
RASTERVARIABLES
  2
AcDbRasterVariables
  3
ISM
 90
0
 91
0
280
0
281
0
  0
CLASS
  1
ACDBPLACEHOLDER
  2
AcDbPlaceHolder
  3
ObjectDBX Classes
 90
0
 91
0
280
0
281
0
  0
CLASS
  1
LAYOUT
  2
AcDbLayout
  3
ObjectDBX Classes
 90
0
 91
0
280
0
281
0
  0
ENDSEC
  0
SECTION
  2
TABLES
  0
TABLE
  2
VPORT
  5
8
330
0
100
AcDbSymbolTable
 70
1
  0
VPORT
  5
23
330
8
100
AcDbSymbolTableRecord
100
AcDbViewportTableRecord
  2
*Active
 70
0
 10
0.0
 20
0.0
 11
1.0
 21
1.0
 12
0.0
 22
0.0
 13
0.0
 23
0.0
 14
0.5
 24
0.5
 15
0.5
 25
0.5
 16
0.0
 26
0.0
 36
1.0
 17
0.0
 27
0.0
 37
0.0
 40
1000.0
 41
1.34
 42
50.0
 43
0.0
 44
0.0
 50
0.0
 51
0.0
 71
0
 72
1000
 73
1
 74
3
 75
0
 76
0
 77
0
 78
0
281
0
 65
0
146
0.0
  0
ENDTAB
  0
TABLE
  2
LTYPE
  5
2
330
0
100
AcDbSymbolTable
 70
3
  0
LTYPE
  5
24
330
2
100
AcDbSymbolTableRecord
100
AcDbLinetypeTableRecord
  2
ByBlock
 70
0
  3

 72
65
 73
0
 40
0.0
  0
LTYPE
  5
25
330
2
100
AcDbSymbolTableRecord
100
AcDbLinetypeTableRecord
  2
ByLayer
 70
0
  3

 72
65
 73
0
 40
0.0
  0
LTYPE
  5
26
330
2
100
AcDbSymbolTableRecord
100
AcDbLinetypeTableRecord
  2
Continuous
 70
0
  3

 72
65
 73
0
 40
0.0
  0
ENDTAB
  0
TABLE
  2
LAYER
  5
1
330
0
100
AcDbSymbolTable
 70
6
  0
LAYER
  5
27
330
1
100
AcDbSymbolTableRecord
100
AcDbLayerTableRecord
  2
0
 70
0
 62
7
  6
Continuous
370
-3
390
13
347
21
  0
LAYER
  5
28
330
1
100
AcDbSymbolTableRecord
100
AcDbLayerTableRecord
  2
Defpoints
 70
0
 62
7
  6
Continuous
290
0
370
-3
390
13
347
21
  0
LAYER
  5
2F
330
1
100
AcDbSymbolTableRecord
100
AcDbLayerTableRecord
  2
7
 70
0
 62
7
  6
Continuous
370
-3
390
13
347
21
  0
LAYER
  5
30
330
1
100
AcDbSymbolTableRecord
100
AcDbLayerTableRecord
  2
4
 70
0
 62
7
  6
Continuous
370
-3
390
13
347
21
  0
LAYER
  5
31
330
1
100
AcDbSymbolTableRecord
100
AcDbLayerTableRecord
  2
Painéis
 70
0
 62
7
  6
Continuous
370
-3
390
13
347
21
  0
LAYER
  5
32
330
1
100
AcDbSymbolTableRecord
100
AcDbLayerTableRecord
  2
3
 70
0
 62
7
  6
Continuous
370
-3
390
13
347
21
  0
ENDTAB
  0
TABLE
  2
STYLE
  5
5
330
0
100
AcDbSymbolTable
 70
1
  0
STYLE
  5
29
330
5
100
AcDbSymbolTableRecord
100
AcDbTextStyleTableRecord
  2
Standard
 70
0
 40
0.0
 41
1.0
 50
0.0
 71
0
 42
2.5
  3
txt
  4

  0
ENDTAB
  0
TABLE
  2
VIEW
  5
7
330
0
100
AcDbSymbolTable
 70
0
  0
ENDTAB
  0
TABLE
  2
UCS
  5
6
330
0
100
AcDbSymbolTable
 70
0
  0
ENDTAB
  0
TABLE
  2
APPID
  5
3
330
0
100
AcDbSymbolTable
 70
3
  0
APPID
  5
2A
330
3
100
AcDbSymbolTableRecord
100
AcDbRegAppTableRecord
  2
ACAD
 70
0
  0
APPID
  5
EE
330
3
100
AcDbSymbolTableRecord
100
AcDbRegAppTableRecord
  2
HATCHBACKGROUNDCOLOR
 70
0
  0
APPID
  5
EF
330
3
100
AcDbSymbolTableRecord
100
AcDbRegAppTableRecord
  2
EZDXF
 70
0
  0
ENDTAB
  0
TABLE
  2
DIMSTYLE
  5
4
330
0
100
AcDbSymbolTable
 70
1
100
AcDbDimStyleTable
  0
DIMSTYLE
105
2B
330
4
100
AcDbSymbolTableRecord
100
AcDbDimStyleTableRecord
  2
Standard
 70
0
 40
1.0
 41
2.5
 42
0.625
 43
3.75
 44
1.25
 45
0.0
 46
0.0
 47
0.0
 48
0.0
 49
2.5
140
2.5
141
2.5
142
0.0
143
0.03937007874
144
1.0
145
0.0
146
1.0
147
0.625
148
0.0
 69
0
 70
0
 71
0
 72
0
 73
0
 74
0
 75
0
 76
0
 77
1
 78
8
 79
3
170
0
171
3
172
1
173
0
174
0
175
0
176
0
177
0
178
0
179
2
271
2
272
2
273
2
274
3
275
0
276
0
277
2
278
44
279
0
280
0
281
0
282
0
283
0
284
8
285
0
286
0
288
0
289
3
290
0
371
-2
372
-2
  0
ENDTAB
  0
TABLE
  2
BLOCK_RECORD
  5
9
330
0
100
AcDbSymbolTable
 70
2
  0
BLOCK_RECORD
  5
17
330
9
100
AcDbSymbolTableRecord
100
AcDbBlockTableRecord
  2
*Model_Space
340
1A
 70
0
280
1
281
0
  0
BLOCK_RECORD
  5
1B
330
9
100
AcDbSymbolTableRecord
100
AcDbBlockTableRecord
  2
*Paper_Space
340
1E
 70
0
280
1
281
0
  0
ENDTAB
  0
ENDSEC
  0
SECTION
  2
BLOCKS
  0
BLOCK
  5
18
330
17
100
AcDbEntity
  8
0
100
AcDbBlockBegin
  2
*Model_Space
 70
0
 10
0.0
 20
0.0
 30
0.0
  3
*Model_Space
  1

  0
ENDBLK
  5
19
330
17
100
AcDbEntity
  8
0
100
AcDbBlockEnd
  0
BLOCK
  5
1C
330
1B
100
AcDbEntity
  8
0
100
AcDbBlockBegin
  2
*Paper_Space
 70
0
 10
0.0
 20
0.0
 30
0.0
  3
*Paper_Space
  1

  0
ENDBLK
  5
1D
330
1B
100
AcDbEntity
  8
0
100
AcDbBlockEnd
  0
ENDSEC
  0
SECTION
  2
ENTITIES
  0
LINE
  5
33
330
17
100
AcDbEntity
  8
Painéis
 62
200
370
25
100
AcDbLine
 10
5412.56701692488
 20
1769.492722998447
 30
0.0
 11
5412.56701692488
 21
1582.886185998446
 31
0.0
  0
LINE
  5
34
330
17
100
AcDbEntity
  8
Painéis
 62
200
370
25
100
AcDbLine
 10
4774.075558924879
 20
1769.492722998447
 30
0.0
 11
4774.075558924879
 21
1667.938776998447
 31
0.0
  0
LINE
  5
35
330
17
100
AcDbEntity
  8
Painéis
 62
200
370
25
100
AcDbLine
 10
4748.075558924879
 20
1769.492722998447
 30
0.0
 11
4748.075558924879
 21
1667.938776998447
 31
0.0
  0
LINE
  5
36
330
17
100
AcDbEntity
  8
Painéis
 62
200
370
25
100
AcDbLine
 10
5211.075558924879
 20
1769.492722998447
 30
0.0
 11
5211.075558924879
 21
1667.938776998447
 31
0.0
  0
LINE
  5
37
330
17
100
AcDbEntity
  8
Painéis
 62
200
370
25
100
AcDbLine
 10
5185.075558924879
 20
1769.492722998447
 30
0.0
 11
5185.075558924879
 21
1667.938776998447
 31
0.0
  0
LINE
  5
38
330
17
100
AcDbEntity
  8
Painéis
 62
200
370
25
100
AcDbLine
 10
5063.075558924879
 20
1769.492722998447
 30
0.0
 11
5063.075558924879
 21
1667.938776998447
 31
0.0
  0
LINE
  5
39
330
17
100
AcDbEntity
  8
Painéis
 62
200
370
25
100
AcDbLine
 10
5037.075558924879
 20
1769.492722998447
 30
0.0
 11
5037.075558924879
 21
1667.938776998447
 31
0.0
  0
LINE
  5
3A
330
17
100
AcDbEntity
  8
Painéis
 62
200
370
25
100
AcDbLine
 10
4678.06701692488
 20
1577.938776998447
 30
0.0
 11
4678.06701692488
 21
1648.938776998447
 31
0.0
  0
LINE
  5
3B
330
17
100
AcDbEntity
  8
Painéis
 62
200
370
25
100
AcDbLine
 10
4666.06701692488
 20
1613.438776998447
 30
0.0
 11
4893.56701692488
 21
1613.438776998447
 31
0.0
  0
LINE
  5
3C
330
17
100
AcDbEntity
  8
Painéis
 62
200
370
25
100
AcDbLine
 10
5089.06701692488
 20
1577.938776998447
 30
0.0
 11
5089.06701692488
 21
1648.938776998447
 31
0.0
  0
LINE
  5
3D
330
17
100
AcDbEntity
  8
Painéis
 62
200
370
25
100
AcDbLine
 10
4917.56701692488
 20
1613.438776998447
 30
0.0
 11
5333.067016924879
 21
1613.438776998447
 31
0.0
  0
LINE
  5
3E
330
17
100
AcDbEntity
  8
3
 62
3
370
25
100
AcDbLine
 10
4914.157904924881
 20
1563.938776998447
 30
0.0
 11
4917.56701692488
 21
1567.347888998446
 31
0.0
  0
LINE
  5
3F
330
17
100
AcDbEntity
  8
3
 62
3
370
25
100
AcDbLine
 10
4902.13708892488
 20
1563.938776998447
 30
0.0
 11
4917.56701692488
 21
1579.368704998446
 31
0.0
  0
LINE
  5
40
330
17
100
AcDbEntity
  8
3
 62
3
370
25
100
AcDbLine
 10
4893.56701692488
 20
1567.389519998446
 30
0.0
 11
4917.56701692488
 21
1591.389519998446
 31
0.0
  0
LINE
  5
41
330
17
100
AcDbEntity
  8
3
 62
3
370
25
100
AcDbLine
 10
4893.56701692488
 20
1579.410334998446
 30
0.0
 11
4917.56701692488
 21
1603.410334998446
 31
0.0
  0
LINE
  5
42
330
17
100
AcDbEntity
  8
3
 62
3
370
25
100
AcDbLine
 10
4893.56701692488
 20
1591.431149998446
 30
0.0
 11
4917.56701692488
 21
1615.431149998446
 31
0.0
  0
LINE
  5
43
330
17
100
AcDbEntity
  8
3
 62
3
370
25
100
AcDbLine
 10
4893.56701692488
 20
1603.451965998446
 30
0.0
 11
4917.56701692488
 21
1627.451965998446
 31
0.0
  0
LINE
  5
44
330
17
100
AcDbEntity
  8
3
 62
3
370
25
100
AcDbLine
 10
4893.56701692488
 20
1615.472780998446
 30
0.0
 11
4908.033012924881
 21
1629.938776998447
 31
0.0
  0
LINE
  5
45
330
17
100
AcDbEntity
  8
3
 62
3
370
25
100
AcDbLine
 10
4893.56701692488
 20
1627.493595998446
 30
0.0
 11
4896.012197924881
 21
1629.938776998447
 31
0.0
  0
LINE
  5
46
330
17
100
AcDbEntity
  8
3
 62
3
370
25
100
AcDbLine
 10
5431.05296192488
 20
1563.938776998447
 30
0.0
 11
5433.06701692488
 21
1565.952831998446
 31
0.0
  0
LINE
  5
47
330
17
100
AcDbEntity
  8
3
 62
3
370
25
100
AcDbLine
 10
5419.03214692488
 20
1563.938776998447
 30
0.0
 11
5433.06701692488
 21
1577.973646998446
 31
0.0
  0
LINE
  5
48
330
17
100
AcDbEntity
  8
3
 62
3
370
25
100
AcDbLine
 10
5407.011330924881
 20
1563.938776998447
 30
0.0
 11
5426.01133092488
 21
1582.938776998447
 31
0.0
  0
LINE
  5
49
330
17
100
AcDbEntity
  8
3
 62
3
370
25
100
AcDbLine
 10
5394.99051592488
 20
1563.938776998447
 30
0.0
 11
5413.99051592488
 21
1582.938776998447
 31
0.0
  0
LINE
  5
4A
330
17
100
AcDbEntity
  8
3
 62
3
370
25
100
AcDbLine
 10
5382.96970092488
 20
1563.938776998447
 30
0.0
 11
5401.96970092488
 21
1582.938776998447
 31
0.0
  0
LINE
  5
4B
330
17
100
AcDbEntity
  8
3
 62
3
370
25
100
AcDbLine
 10
5370.94888492488
 20
1563.938776998447
 30
0.0
 11
5389.94888492488
 21
1582.938776998447
 31
0.0
  0
LINE
  5
4C
330
17
100
AcDbEntity
  8
3
 62
3
370
25
100
AcDbLine
 10
5358.92806992488
 20
1563.938776998447
 30
0.0
 11
5377.92806992488
 21
1582.938776998447
 31
0.0
  0
LINE
  5
4D
330
17
100
AcDbEntity
  8
3
 62
3
370
25
100
AcDbLine
 10
5346.907254924881
 20
1563.938776998447
 30
0.0
 11
5365.907254924881
 21
1582.938776998447
 31
0.0
  0
LINE
  5
4E
330
17
100
AcDbEntity
  8
3
 62
3
370
25
100
AcDbLine
 10
5334.88643992488
 20
1563.938776998447
 30
0.0
 11
5353.886439924881
 21
1582.938776998447
 31
0.0
  0
LINE
  5
4F
330
17
100
AcDbEntity
  8
3
 62
3
370
25
100
AcDbLine
 10
5333.067016924879
 20
1574.140169998446
 30
0.0
 11
5341.86562392488
 21
1582.938776998447
 31
0.0
  0
LINE
  5
50
330
17
100
AcDbEntity
  8
3
 62
3
370
25
100
AcDbLine
 10
4666.06701692488
 20
1563.938776998447
 30
0.0
 11
4893.56701692488
 21
1563.938776998447
 31
0.0
  0
LINE
  5
51
330
17
100
AcDbEntity
  8
3
 62
3
370
25
100
AcDbLine
 10
4917.56701692488
 20
1563.938776998447
 30
0.0
 11
5333.067016924879
 21
1563.938776998447
 31
0.0
  0
LINE
  5
52
330
17
100
AcDbEntity
  8
3
 62
3
370
25
100
AcDbLine
 10
4666.06701692488
 20
1577.938776998447
 30
0.0
 11
4893.56701692488
 21
1577.938776998447
 31
0.0
  0
LINE
  5
53
330
17
100
AcDbEntity
  8
3
 62
3
370
25
100
AcDbLine
 10
4917.56701692488
 20
1577.938776998447
 30
0.0
 11
5333.067016924879
 21
1577.938776998447
 31
0.0
  0
LINE
  5
54
330
17
100
AcDbEntity
  8
3
 62
3
370
25
100
AcDbLine
 10
5113.45478492488
 20
1635.046684998447
 30
0.0
 11
5113.45478492488
 21
1610.046684998447
 31
0.0
  0
LINE
  5
55
330
17
100
AcDbEntity
  8
3
 62
3
370
25
100
AcDbLine
 10
5100.95478492488
 20
1622.546684998447
 30
0.0
 11
5125.95478492488
 21
1622.546684998447
 31
0.0
  0
LINE
  5
56
330
17
100
AcDbEntity
  8
3
 62
3
370
25
100
AcDbLine
 10
5113.45478492488
 20
1634.439336998447
 30
0.0
 11
5117.30390992488
 21
1634.439336998447
 31
0.0
  0
LINE
  5
57
330
17
100
AcDbEntity
  8
3
 62
3
370
25
100
AcDbLine
 10
5113.45478492488
 20
1633.646487998446
 30
0.0
 11
5119.20324792488
 21
1633.646487998446
 31
0.0
  0
LINE
  5
58
330
17
100
AcDbEntity
  8
3
 62
3
370
25
100
AcDbLine
 10
5113.45478492488
 20
1632.853638998446
 30
0.0
 11
5120.52704292488
 21
1632.853638998446
 31
0.0
  0
LINE
  5
59
330
17
100
AcDbEntity
  8
3
 62
3
370
25
100
AcDbLine
 10
5113.45478492488
 20
1632.060777998447
 30
0.0
 11
5121.562304924879
 21
1632.060777998447
 31
0.0
  0
LINE
  5
5A
330
17
100
AcDbEntity
  8
3
 62
3
370
25
100
AcDbLine
 10
5113.45478492488
 20
1631.267988998447
 30
0.0
 11
5122.409643924879
 21
1631.267988998447
 31
0.0
  0
LINE
  5
5B
330
17
100
AcDbEntity
  8
3
 62
3
370
25
100
AcDbLine
 10
5113.45478492488
 20
1630.475138998446
 30
0.0
 11
5123.11865292488
 21
1630.475138998446
 31
0.0
  0
LINE
  5
5C
330
17
100
AcDbEntity
  8
3
 62
3
370
25
100
AcDbLine
 10
5113.45478492488
 20
1629.682278998446
 30
0.0
 11
5123.717989924879
 21
1629.682278998446
 31
0.0
  0
LINE
  5
5D
330
17
100
AcDbEntity
  8
3
 62
3
370
25
100
AcDbLine
 10
5113.45478492488
 20
1628.889428998446
 30
0.0
 11
5124.226011924879
 21
1628.889428998446
 31
0.0
  0
LINE
  5
5E
330
17
100
AcDbEntity
  8
3
 62
3
370
25
100
AcDbLine
 10
5113.45478492488
 20
1628.096579998446
 30
0.0
 11
5124.65516592488
 21
1628.096579998446
 31
0.0
  0
LINE
  5
5F
330
17
100
AcDbEntity
  8
3
 62
3
370
25
100
AcDbLine
 10
5113.45478492488
 20
1627.303730998445
 30
0.0
 11
5125.01422392488
 21
1627.303730998445
 31
0.0
  0
LINE
  5
60
330
17
100
AcDbEntity
  8
3
 62
3
370
25
100
AcDbLine
 10
5113.45478492488
 20
1626.510881998446
 30
0.0
 11
5125.30952892488
 21
1626.510881998446
 31
0.0
  0
LINE
  5
61
330
17
100
AcDbEntity
  8
3
 62
3
370
25
100
AcDbLine
 10
5113.45478492488
 20
1625.718080998446
 30
0.0
 11
5125.54580192488
 21
1625.718080998446
 31
0.0
  0
LINE
  5
62
330
17
100
AcDbEntity
  8
3
 62
3
370
25
100
AcDbLine
 10
5113.45478492488
 20
1624.925231998447
 30
0.0
 11
5125.726379924881
 21
1624.925231998447
 31
0.0
  0
LINE
  5
63
330
17
100
AcDbEntity
  8
3
 62
3
370
25
100
AcDbLine
 10
5113.45478492488
 20
1624.132382998446
 30
0.0
 11
5125.85379092488
 21
1624.132382998446
 31
0.0
  0
LINE
  5
64
330
17
100
AcDbEntity
  8
3
 62
3
370
25
100
AcDbLine
 10
5113.45478492488
 20
1623.339533998446
 30
0.0
 11
5125.95478492488
 21
1623.339533998446
 31
0.0
  0
LINE
  5
65
330
17
100
AcDbEntity
  8
3
 62
3
370
25
100
AcDbLine
 10
5113.454737924881
 20
1610.654079998446
 30
0.0
 11
5109.60565992488
 21
1610.654079998446
 31
0.0
  0
LINE
  5
66
330
17
100
AcDbEntity
  8
3
 62
3
370
25
100
AcDbLine
 10
5113.454737924881
 20
1611.446928998445
 30
0.0
 11
5107.706274924879
 21
1611.446928998445
 31
0.0
  0
LINE
  5
67
330
17
100
AcDbEntity
  8
3
 62
3
370
25
100
AcDbLine
 10
5113.454737924881
 20
1612.239777998446
 30
0.0
 11
5106.382479924881
 21
1612.239777998446
 31
0.0
  0
LINE
  5
68
330
17
100
AcDbEntity
  8
3
 62
3
370
25
100
AcDbLine
 10
5113.454737924881
 20
1613.032578998446
 30
0.0
 11
5105.34721892488
 21
1613.032578998446
 31
0.0
  0
LINE
  5
69
330
17
100
AcDbEntity
  8
3
 62
3
370
25
100
AcDbLine
 10
5113.454737924881
 20
1613.825487998446
 30
0.0
 11
5104.49987892488
 21
1613.825487998446
 31
0.0
  0
LINE
  5
6A
330
17
100
AcDbEntity
  8
3
 62
3
370
25
100
AcDbLine
 10
5113.454737924881
 20
1614.618288998445
 30
0.0
 11
5103.79091692488
 21
1614.618288998445
 31
0.0
  0
LINE
  5
6B
330
17
100
AcDbEntity
  8
3
 62
3
370
25
100
AcDbLine
 10
5113.454737924881
 20
1615.411137998447
 30
0.0
 11
5103.19153292488
 21
1615.411137998447
 31
0.0
  0
LINE
  5
6C
330
17
100
AcDbEntity
  8
3
 62
3
370
25
100
AcDbLine
 10
5113.454737924881
 20
1616.203986998446
 30
0.0
 11
5102.68351092488
 21
1616.203986998446
 31
0.0
  0
LINE
  5
6D
330
17
100
AcDbEntity
  8
3
 62
3
370
25
100
AcDbLine
 10
5113.454737924881
 20
1616.996836998446
 30
0.0
 11
5102.254356924881
 21
1616.996836998446
 31
0.0
  0
LINE
  5
6E
330
17
100
AcDbEntity
  8
3
 62
3
370
25
100
AcDbLine
 10
5113.454737924881
 20
1617.789637998446
 30
0.0
 11
5101.89529892488
 21
1617.789637998446
 31
0.0
  0
LINE
  5
6F
330
17
100
AcDbEntity
  8
3
 62
3
370
25
100
AcDbLine
 10
5113.454737924881
 20
1618.582534998447
 30
0.0
 11
5101.599993924881
 21
1618.582534998447
 31
0.0
  0
LINE
  5
70
330
17
100
AcDbEntity
  8
3
 62
3
370
25
100
AcDbLine
 10
5113.454737924881
 20
1619.375335998446
 30
0.0
 11
5101.363720924879
 21
1619.375335998446
 31
0.0
  0
LINE
  5
71
330
17
100
AcDbEntity
  8
3
 62
3
370
25
100
AcDbLine
 10
5113.454737924881
 20
1620.168184998446
 30
0.0
 11
5101.183094924881
 21
1620.168184998446
 31
0.0
  0
LINE
  5
72
330
17
100
AcDbEntity
  8
3
 62
3
370
25
100
AcDbLine
 10
5113.454737924881
 20
1620.961033998447
 30
0.0
 11
5101.05573192488
 21
1620.961033998447
 31
0.0
  0
LINE
  5
73
330
17
100
AcDbEntity
  8
3
 62
3
370
25
100
AcDbLine
 10
5113.454737924881
 20
1621.753882998447
 30
0.0
 11
5100.95473792488
 21
1621.753882998447
 31
0.0
  0
LINE
  5
74
330
17
100
AcDbEntity
  8
3
 62
3
370
25
100
AcDbLine
 10
5125.95478492488
 20
1622.546684998447
 30
0.0
 11
5197.377533924879
 21
1622.546684998447
 31
0.0
  0
LINE
  5
75
330
17
100
AcDbEntity
  8
3
 62
3
370
25
100
AcDbLine
 10
5100.95478492488
 20
1622.546684998447
 30
0.0
 11
5092.528080924879
 21
1622.546684998447
 31
0.0
  0
LINE
  5
76
330
17
100
AcDbEntity
  8
3
 62
3
370
25
100
AcDbLine
 10
5113.45478492488
 20
1635.046684998447
 30
0.0
 11
5113.45478492488
 21
1640.551428998447
 31
0.0
  0
LINE
  5
77
330
17
100
AcDbEntity
  8
3
 62
3
370
25
100
AcDbLine
 10
5113.45478492488
 20
1610.046684998447
 30
0.0
 11
5113.45478492488
 21
1603.178151998446
 31
0.0
  0
LINE
  5
78
330
17
100
AcDbEntity
  8
Painéis
 62
4
370
25
100
AcDbLine
 10
5398.939518924942
 20
1769.492722998447
 30
0.0
 11
5398.939518924942
 21
1582.886185998447
 31
0.0
  0
LINE
  5
79
330
17
100
AcDbEntity
  8
Painéis
 62
0
370
25
100
AcDbLine
 10
5397.439518924942
 20
1584.386185998447
 30
0.0
 11
5400.439518924942
 21
1581.386185998447
 31
0.0
  0
LINE
  5
7A
330
17
100
AcDbEntity
  8
Painéis
 62
4
370
25
100
AcDbLine
 10
4731.326828563436
 20
1769.492722998447
 30
0.0
 11
4731.326828563436
 21
1667.938776998448
 31
0.0
  0
LINE
  5
7B
330
17
100
AcDbEntity
  8
Painéis
 62
0
370
25
100
AcDbLine
 10
4729.826828563436
 20
1669.438776998448
 30
0.0
 11
4732.826828563436
 21
1666.438776998448
 31
0.0
  0
LINE
  5
7C
330
17
100
AcDbEntity
  8
Painéis
 62
4
370
25
100
AcDbLine
 10
5168.326828563441
 20
1769.492722998447
 30
0.0
 11
5168.326828563441
 21
1667.938776998448
 31
0.0
  0
LINE
  5
7D
330
17
100
AcDbEntity
  8
Painéis
 62
0
370
25
100
AcDbLine
 10
5166.826828563441
 20
1669.438776998448
 30
0.0
 11
5169.826828563441
 21
1666.438776998448
 31
0.0
  0
LINE
  5
7E
330
17
100
AcDbEntity
  8
Painéis
 62
4
370
25
100
AcDbLine
 10
4893.56701692488
 20
1593.095067216048
 30
0.0
 11
4678.06701692488
 21
1593.095067216048
 31
0.0
  0
LINE
  5
7F
330
17
100
AcDbEntity
  8
Painéis
 62
0
370
25
100
AcDbLine
 10
4892.06701692488
 20
1591.595067216048
 30
0.0
 11
4895.06701692488
 21
1594.595067216048
 31
0.0
  0
LINE
  5
80
330
17
100
AcDbEntity
  8
Painéis
 62
0
370
25
100
AcDbLine
 10
4679.56701692488
 20
1594.595067216048
 30
0.0
 11
4676.56701692488
 21
1591.595067216048
 31
0.0
  0
LINE
  5
81
330
17
100
AcDbEntity
  8
Painéis
 62
4
370
25
100
AcDbLine
 10
4678.06701692488
 20
1593.095067216048
 30
0.0
 11
4666.06701692488
 21
1593.095067216048
 31
0.0
  0
LINE
  5
82
330
17
100
AcDbEntity
  8
Painéis
 62
0
370
25
100
AcDbLine
 10
4676.56701692488
 20
1591.595067216048
 30
0.0
 11
4679.56701692488
 21
1594.595067216048
 31
0.0
  0
LINE
  5
83
330
17
100
AcDbEntity
  8
Painéis
 62
4
370
25
100
AcDbLine
 10
4896.06701692488
 20
1648.938776998447
 30
0.0
 11
4678.06701692488
 21
1648.938776998447
 31
0.0
  0
LINE
  5
84
330
17
100
AcDbEntity
  8
Painéis
 62
0
370
25
100
AcDbLine
 10
4894.56701692488
 20
1647.438776998447
 30
0.0
 11
4897.56701692488
 21
1650.438776998447
 31
0.0
  0
LINE
  5
85
330
17
100
AcDbEntity
  8
Painéis
 62
0
370
25
100
AcDbLine
 10
4679.56701692488
 20
1650.438776998447
 30
0.0
 11
4676.56701692488
 21
1647.438776998447
 31
0.0
  0
LINE
  5
86
330
17
100
AcDbEntity
  8
Painéis
 62
4
370
25
100
AcDbLine
 10
4678.06701692488
 20
1648.938776998447
 30
0.0
 11
4666.06701692488
 21
1648.938776998447
 31
0.0
  0
LINE
  5
87
330
17
100
AcDbEntity
  8
Painéis
 62
0
370
25
100
AcDbLine
 10
4676.56701692488
 20
1647.438776998447
 30
0.0
 11
4679.56701692488
 21
1650.438776998447
 31
0.0
  0
LINE
  5
88
330
17
100
AcDbEntity
  8
Painéis
 62
4
370
25
100
AcDbLine
 10
4896.06701692488
 20
1632.938776998447
 30
0.0
 11
4896.06701692488
 21
1637.242894955049
 31
0.0
  0
LINE
  5
89
330
17
100
AcDbEntity
  8
Painéis
 62
4
370
25
100
AcDbLine
 10
4893.56701692488
 20
1632.938776998447
 30
0.0
 11
4893.56701692488
 21
1637.242894955049
 31
0.0
  0
LINE
  5
8A
330
17
100
AcDbEntity
  8
Painéis
 62
4
370
25
100
AcDbLine
 10
4896.06701692488
 20
1634.242894955049
 30
0.0
 11
4899.06701692488
 21
1634.242894955049
 31
0.0
  0
LINE
  5
8B
330
17
100
AcDbEntity
  8
Painéis
 62
4
370
25
100
AcDbLine
 10
4893.56701692488
 20
1634.242894955049
 30
0.0
 11
4864.211753766984
 21
1634.242894955049
 31
0.0
  0
LINE
  5
8C
330
17
100
AcDbEntity
  8
Painéis
 62
4
370
25
100
AcDbLine
 10
4896.06701692488
 20
1634.242894955049
 30
0.0
 11
4893.56701692488
 21
1634.242894955049
 31
0.0
  0
LINE
  5
8D
330
17
100
AcDbEntity
  8
Painéis
 62
0
370
25
100
AcDbLine
 10
4897.56701692488
 20
1635.742894955049
 30
0.0
 11
4894.56701692488
 21
1632.742894955049
 31
0.0
  0
LINE
  5
8E
330
17
100
AcDbEntity
  8
Painéis
 62
0
370
25
100
AcDbLine
 10
4892.06701692488
 20
1632.742894955049
 30
0.0
 11
4895.06701692488
 21
1635.742894955049
 31
0.0
  0
LINE
  5
8F
330
17
100
AcDbEntity
  8
Painéis
 62
4
370
25
100
AcDbLine
 10
4890.567016924881
 20
1629.938776998448
 30
0.0
 11
4881.098989225892
 21
1629.938776998448
 31
0.0
  0
LINE
  5
90
330
17
100
AcDbEntity
  8
Painéis
 62
4
370
25
100
AcDbLine
 10
4890.567016924881
 20
1613.438776998448
 30
0.0
 11
4881.098989225892
 21
1613.438776998448
 31
0.0
  0
LINE
  5
91
330
17
100
AcDbEntity
  8
Painéis
 62
4
370
25
100
AcDbLine
 10
4884.098989225893
 20
1629.938776998448
 30
0.0
 11
4884.098989225893
 21
1613.438776998448
 31
0.0
  0
LINE
  5
92
330
17
100
AcDbEntity
  8
Painéis
 62
4
370
25
100
AcDbLine
 10
4884.098989225893
 20
1613.438776998448
 30
0.0
 11
4884.098989225893
 21
1583.465092787922
 31
0.0
  0
LINE
  5
93
330
17
100
AcDbEntity
  8
Painéis
 62
0
370
25
100
AcDbLine
 10
4885.598989225893
 20
1628.438776998448
 30
0.0
 11
4882.598989225893
 21
1631.438776998448
 31
0.0
  0
LINE
  5
94
330
17
100
AcDbEntity
  8
Painéis
 62
0
370
25
100
AcDbLine
 10
4882.598989225893
 20
1614.938776998448
 30
0.0
 11
4885.598989225893
 21
1611.938776998448
 31
0.0
  0
LINE
  5
95
330
17
100
AcDbEntity
  8
Painéis
 62
4
370
25
100
AcDbLine
 10
5333.067016924879
 20
1593.095067216048
 30
0.0
 11
5089.06701692488
 21
1593.095067216048
 31
0.0
  0
LINE
  5
96
330
17
100
AcDbEntity
  8
Painéis
 62
0
370
25
100
AcDbLine
 10
5331.567016924879
 20
1591.595067216048
 30
0.0
 11
5334.567016924879
 21
1594.595067216048
 31
0.0
  0
LINE
  5
97
330
17
100
AcDbEntity
  8
Painéis
 62
0
370
25
100
AcDbLine
 10
5090.56701692488
 20
1594.595067216048
 30
0.0
 11
5087.56701692488
 21
1591.595067216048
 31
0.0
  0
LINE
  5
98
330
17
100
AcDbEntity
  8
Painéis
 62
4
370
25
100
AcDbLine
 10
5089.06701692488
 20
1597.457663641639
 30
0.0
 11
4917.56701692488
 21
1597.457663641639
 31
0.0
  0
LINE
  5
99
330
17
100
AcDbEntity
  8
Painéis
 62
0
370
25
100
AcDbLine
 10
5087.56701692488
 20
1595.957663641639
 30
0.0
 11
5090.56701692488
 21
1598.957663641639
 31
0.0
  0
LINE
  5
9A
330
17
100
AcDbEntity
  8
Painéis
 62
0
370
25
100
AcDbLine
 10
4919.06701692488
 20
1598.957663641639
 30
0.0
 11
4916.06701692488
 21
1595.957663641639
 31
0.0
  0
LINE
  5
9B
330
17
100
AcDbEntity
  8
Painéis
 62
4
370
25
100
AcDbLine
 10
5074.037644613237
 20
1648.938776998448
 30
0.0
 11
5073.283030594688
 21
1648.938776998448
 31
0.0
  0
LINE
  5
9C
330
17
100
AcDbEntity
  8
Painéis
 62
4
370
25
100
AcDbLine
 10
5074.037644613237
 20
1613.438776998448
 30
0.0
 11
5073.283030594688
 21
1613.438776998448
 31
0.0
  0
LINE
  5
9D
330
17
100
AcDbEntity
  8
Painéis
 62
4
370
25
100
AcDbLine
 10
5076.283030594688
 20
1648.938776998448
 30
0.0
 11
5076.283030594688
 21
1613.438776998448
 31
0.0
  0
LINE
  5
9E
330
17
100
AcDbEntity
  8
Painéis
 62
0
370
25
100
AcDbLine
 10
5077.783030594688
 20
1647.438776998448
 30
0.0
 11
5074.783030594688
 21
1650.438776998448
 31
0.0
  0
LINE
  5
9F
330
17
100
AcDbEntity
  8
Painéis
 62
0
370
25
100
AcDbLine
 10
5074.783030594688
 20
1614.938776998448
 30
0.0
 11
5077.783030594688
 21
1611.938776998448
 31
0.0
  0
LINE
  5
A0
330
17
100
AcDbEntity
  8
Painéis
 62
4
370
25
100
AcDbLine
 10
5056.79519707105
 20
1613.438776998448
 30
0.0
 11
5054.908692014855
 21
1613.438776998448
 31
0.0
  0
LINE
  5
A1
330
17
100
AcDbEntity
  8
Painéis
 62
4
370
25
100
AcDbLine
 10
5056.79519707105
 20
1577.938776998448
 30
0.0
 11
5054.908692014855
 21
1577.938776998448
 31
0.0
  0
LINE
  5
A2
330
17
100
AcDbEntity
  8
Painéis
 62
4
370
25
100
AcDbLine
 10
5057.908692014855
 20
1613.438776998448
 30
0.0
 11
5057.908692014855
 21
1577.938776998448
 31
0.0
  0
LINE
  5
A3
330
17
100
AcDbEntity
  8
Painéis
 62
0
370
25
100
AcDbLine
 10
5059.408692014855
 20
1611.938776998448
 30
0.0
 11
5056.408692014855
 21
1614.938776998448
 31
0.0
  0
LINE
  5
A4
330
17
100
AcDbEntity
  8
Painéis
 62
0
370
25
100
AcDbLine
 10
5056.408692014855
 20
1579.438776998448
 30
0.0
 11
5059.408692014855
 21
1576.438776998448
 31
0.0
  0
LINE
  5
A5
330
17
100
AcDbEntity
  8
Painéis
 62
4
370
25
100
AcDbLine
 10
5333.067016924879
 20
1648.938776998447
 30
0.0
 11
5089.06701692488
 21
1648.938776998447
 31
0.0
  0
LINE
  5
A6
330
17
100
AcDbEntity
  8
Painéis
 62
0
370
25
100
AcDbLine
 10
5331.567016924879
 20
1647.438776998447
 30
0.0
 11
5334.567016924879
 21
1650.438776998447
 31
0.0
  0
LINE
  5
A7
330
17
100
AcDbEntity
  8
Painéis
 62
0
370
25
100
AcDbLine
 10
5090.56701692488
 20
1650.438776998447
 30
0.0
 11
5087.56701692488
 21
1647.438776998447
 31
0.0
  0
LINE
  5
A8
330
17
100
AcDbEntity
  8
Painéis
 62
4
370
25
100
AcDbLine
 10
5089.06701692488
 20
1648.938776998447
 30
0.0
 11
4915.067016924879
 21
1648.938776998447
 31
0.0
  0
LINE
  5
A9
330
17
100
AcDbEntity
  8
Painéis
 62
0
370
25
100
AcDbLine
 10
5087.56701692488
 20
1647.438776998447
 30
0.0
 11
5090.56701692488
 21
1650.438776998447
 31
0.0
  0
LINE
  5
AA
330
17
100
AcDbEntity
  8
Painéis
 62
0
370
25
100
AcDbLine
 10
4916.567016924879
 20
1650.438776998447
 30
0.0
 11
4913.567016924879
 21
1647.438776998447
 31
0.0
  0
LINE
  5
AB
330
17
100
AcDbEntity
  8
Painéis
 62
4
370
25
100
AcDbLine
 10
4915.067016924879
 20
1632.938776998447
 30
0.0
 11
4915.067016924879
 21
1636.418184585524
 31
0.0
  0
LINE
  5
AC
330
17
100
AcDbEntity
  8
Painéis
 62
4
370
25
100
AcDbLine
 10
4917.56701692488
 20
1632.938776998447
 30
0.0
 11
4917.56701692488
 21
1636.418184585524
 31
0.0
  0
LINE
  5
AD
330
17
100
AcDbEntity
  8
Painéis
 62
4
370
25
100
AcDbLine
 10
4915.067016924879
 20
1633.418184585525
 30
0.0
 11
4912.067016924879
 21
1633.418184585525
 31
0.0
  0
LINE
  5
AE
330
17
100
AcDbEntity
  8
Painéis
 62
4
370
25
100
AcDbLine
 10
4917.56701692488
 20
1633.418184585525
 30
0.0
 11
4946.922280082775
 21
1633.418184585525
 31
0.0
  0
LINE
  5
AF
330
17
100
AcDbEntity
  8
Painéis
 62
4
370
25
100
AcDbLine
 10
4915.067016924879
 20
1633.418184585525
 30
0.0
 11
4917.56701692488
 21
1633.418184585525
 31
0.0
  0
LINE
  5
B0
330
17
100
AcDbEntity
  8
Painéis
 62
0
370
25
100
AcDbLine
 10
4913.567016924879
 20
1631.918184585525
 30
0.0
 11
4916.567016924879
 21
1634.918184585525
 31
0.0
  0
LINE
  5
B1
330
17
100
AcDbEntity
  8
Painéis
 62
0
370
25
100
AcDbLine
 10
4919.06701692488
 20
1634.918184585525
 30
0.0
 11
4916.06701692488
 21
1631.918184585525
 31
0.0
  0
LINE
  5
B2
330
17
100
AcDbEntity
  8
Painéis
 62
4
370
25
100
AcDbLine
 10
4920.567016924882
 20
1629.938776998448
 30
0.0
 11
4941.872470030999
 21
1629.938776998448
 31
0.0
  0
LINE
  5
B3
330
17
100
AcDbEntity
  8
Painéis
 62
4
370
25
100
AcDbLine
 10
4920.567016924882
 20
1613.438776998448
 30
0.0
 11
4941.872470030999
 21
1613.438776998448
 31
0.0
  0
LINE
  5
B4
330
17
100
AcDbEntity
  8
Painéis
 62
4
370
25
100
AcDbLine
 10
4938.872470030998
 20
1629.938776998448
 30
0.0
 11
4938.872470030998
 21
1613.438776998448
 31
0.0
  0
LINE
  5
B5
330
17
100
AcDbEntity
  8
Painéis
 62
4
370
25
100
AcDbLine
 10
4938.872470030998
 20
1613.438776998448
 30
0.0
 11
4938.872470030998
 21
1583.465092787922
 31
0.0
  0
LINE
  5
B6
330
17
100
AcDbEntity
  8
Painéis
 62
0
370
25
100
AcDbLine
 10
4940.372470030998
 20
1628.438776998448
 30
0.0
 11
4937.372470030998
 21
1631.438776998448
 31
0.0
  0
LINE
  5
B7
330
17
100
AcDbEntity
  8
Painéis
 62
0
370
25
100
AcDbLine
 10
4937.372470030998
 20
1614.938776998448
 30
0.0
 11
4940.372470030998
 21
1611.938776998448
 31
0.0
  0
LWPOLYLINE
  5
B8
330
17
100
AcDbEntity
  8
7
 62
7
370
25
100
AcDbPolyline
 90
2
 70
0
 10
4893.56701692488
 20
1563.938776998447
 10
4917.56701692488
 20
1563.938776998447
  0
LWPOLYLINE
  5
B9
330
17
100
AcDbEntity
  8
7
 62
7
370
25
100
AcDbPolyline
 90
2
 70
0
 10
4917.56701692488
 20
1563.938776998447
 10
4917.56701692488
 20
1629.938776998447
  0
LWPOLYLINE
  5
BA
330
17
100
AcDbEntity
  8
7
 62
7
370
25
100
AcDbPolyline
 90
2
 70
0
 10
4917.56701692488
 20
1629.938776998447
 10
4893.56701692488
 20
1629.938776998447
  0
LWPOLYLINE
  5
BB
330
17
100
AcDbEntity
  8
7
 62
7
370
25
100
AcDbPolyline
 90
2
 70
0
 10
4893.56701692488
 20
1629.938776998447
 10
4893.56701692488
 20
1563.938776998447
  0
LWPOLYLINE
  5
BC
330
17
100
AcDbEntity
  8
3
 62
3
370
25
100
AcDbPolyline
 90
2
 70
0
 10
4896.06701692488
 20
1667.938776998447
 10
4666.06701692488
 20
1667.938776998447
  0
LWPOLYLINE
  5
BD
330
17
100
AcDbEntity
  8
3
 62
3
370
25
100
AcDbPolyline
 90
2
 70
0
 10
4666.06701692488
 20
1648.938776998447
 10
4896.06701692488
 20
1648.938776998447
  0
LWPOLYLINE
  5
BE
330
17
100
AcDbEntity
  8
3
 62
3
370
25
100
AcDbPolyline
 90
2
 70
0
 10
5333.067016924879
 20
1667.938776998447
 10
4915.067016924879
 20
1667.938776998447
  0
LWPOLYLINE
  5
BF
330
17
100
AcDbEntity
  8
3
 62
3
370
25
100
AcDbPolyline
 90
2
 70
0
 10
4915.067016924879
 20
1648.938776998447
 10
5333.067016924879
 20
1648.938776998447
  0
LWPOLYLINE
  5
C0
330
17
100
AcDbEntity
  8
3
 62
3
370
25
100
AcDbPolyline
 90
2
 70
0
 10
4896.06701692488
 20
1648.938776998447
 10
4896.06701692488
 20
1629.938776998447
  0
LWPOLYLINE
  5
C1
330
17
100
AcDbEntity
  8
3
 62
3
370
25
100
AcDbPolyline
 90
2
 70
0
 10
4915.067016924879
 20
1629.938776998447
 10
4915.067016924879
 20
1648.938776998447
  0
LWPOLYLINE
  5
C2
330
17
100
AcDbEntity
  8
3
 62
3
370
25
100
AcDbPolyline
 90
2
 70
0
 10
4896.06701692488
 20
1769.492722998447
 10
4896.06701692488
 20
1667.938776998447
  0
LWPOLYLINE
  5
C3
330
17
100
AcDbEntity
  8
3
 62
3
370
25
100
AcDbPolyline
 90
2
 70
0
 10
4915.067016924879
 20
1667.938776998447
 10
4915.067016924879
 20
1769.492722998447
  0
LWPOLYLINE
  5
C4
330
17
100
AcDbEntity
  8
3
 62
3
370
25
100
AcDbPolyline
 90
2
 70
0
 10
5333.067016924879
 20
1648.938776998447
 10
5333.067016924879
 20
1582.938776998447
  0
LWPOLYLINE
  5
C5
330
17
100
AcDbEntity
  8
3
 62
3
370
25
100
AcDbPolyline
 90
2
 70
0
 10
5352.06701692488
 20
1582.938776998447
 10
5352.06701692488
 20
1658.438776998447
  0
LWPOLYLINE
  5
C6
330
17
100
AcDbEntity
  8
3
 62
3
370
25
100
AcDbPolyline
 90
2
 70
0
 10
5333.067016924879
 20
1769.492722998447
 10
5333.067016924879
 20
1667.938776998447
  0
LWPOLYLINE
  5
C7
330
17
100
AcDbEntity
  8
3
 62
3
370
25
100
AcDbPolyline
 90
2
 70
0
 10
5352.06701692488
 20
1658.438776998447
 10
5352.06701692488
 20
1769.492722998447
  0
LWPOLYLINE
  5
C8
330
17
100
AcDbEntity
  8
3
 62
3
370
25
100
AcDbPolyline
 90
2
 70
0
 10
5481.067016924879
 20
1582.938776998447
 10
5433.06701692488
 20
1582.938776998447
  0
LWPOLYLINE
  5
C9
330
17
100
AcDbEntity
  8
3
 62
3
370
25
100
AcDbPolyline
 90
2
 70
0
 10
5433.06701692488
 20
1563.938776998447
 10
5490.56701692488
 20
1563.938776998447
  0
LWPOLYLINE
  5
CA
330
17
100
AcDbEntity
  8
3
 62
3
370
25
100
AcDbPolyline
 90
2
 70
0
 10
5490.56701692488
 20
1563.938776998447
 10
5492.109273924881
 20
1563.938776998447
  0
LWPOLYLINE
  5
CB
330
17
100
AcDbEntity
  8
3
 62
3
370
25
100
AcDbPolyline
 90
2
 70
0
 10
5481.067016924879
 20
1769.492722998447
 10
5481.067016924879
 20
1582.938776998447
  0
LWPOLYLINE
  5
CC
330
17
100
AcDbEntity
  8
3
 62
3
370
25
100
AcDbPolyline
 90
2
 70
0
 10
5492.109273924881
 20
1582.938776998447
 10
5481.067016924879
 20
1582.938776998447
  0
LWPOLYLINE
  5
CD
330
17
100
AcDbEntity
  8
7
 62
7
370
25
100
AcDbPolyline
 90
2
 70
0
 10
5333.067016924879
 20
1563.938776998447
 10
5433.06701692488
 20
1563.938776998447
  0
LWPOLYLINE
  5
CE
330
17
100
AcDbEntity
  8
7
 62
7
370
25
100
AcDbPolyline
 90
2
 70
0
 10
5433.06701692488
 20
1563.938776998447
 10
5433.06701692488
 20
1582.938776998447
  0
LWPOLYLINE
  5
CF
330
17
100
AcDbEntity
  8
7
 62
7
370
25
100
AcDbPolyline
 90
2
 70
0
 10
5433.06701692488
 20
1582.938776998447
 10
5333.067016924879
 20
1582.938776998447
  0
LWPOLYLINE
  5
D0
330
17
100
AcDbEntity
  8
7
 62
7
370
25
100
AcDbPolyline
 90
2
 70
0
 10
5333.067016924879
 20
1582.938776998447
 10
5333.067016924879
 20
1563.938776998447
  0
TEXT
  5
D1
330
17
100
AcDbEntity
  8
3
 62
3
370
25
100
AcDbText
 10
5138.208718924881
 20
1580.40950463498
 30
0.0
 40
10.0
  1
h=10
100
AcDbText
  0
TEXT
  5
D2
330
17
100
AcDbEntity
  8
3
 62
3
370
25
100
AcDbText
 10
5396.430656924881
 20
1758.922835998445
 30
0.0
 40
10.0
  1
h=12
100
AcDbText
  0
TEXT
  5
D3
330
17
100
AcDbEntity
  8
4
 62
4
370
25
100
AcDbText
 10
4897.598875851742
 20
1535.343189173075
 30
0.0
 40
15.0
  1
P32
100
AcDbText
  0
TEXT
  5
D4
330
17
100
AcDbEntity
  8
4
 62
4
370
25
100
AcDbText
 10
5356.213731924881
 20
1536.146834998447
 30
0.0
 40
15.0
  1
P33
100
AcDbText
  0
TEXT
  5
D5
330
17
100
AcDbEntity
  8
3
 62
3
370
25
100
AcDbText
 10
5348.72964792488
 20
1521.540734998446
 30
0.0
 40
10.0
  1
100/19
100
AcDbText
  0
TEXT
  5
D6
330
17
100
AcDbEntity
  8
3
 62
3
370
25
100
AcDbText
 10
4897.598875851742
 20
1520.343189173075
 30
0.0
 40
10.0
  1
24/66
100
AcDbText
  0
TEXT
  5
D7
330
17
100
AcDbEntity
  8
4
 62
4
370
25
100
AcDbText
 10
5439.87954392488
 20
1545.777945998446
 30
0.0
 40
15.0
  1
V308
100
AcDbText
  0
TEXT
  5
D8
330
17
100
AcDbEntity
  8
4
 62
4
370
25
100
AcDbText
 10
4892.31701692488
 20
1682.938776998447
 30
0.0
 40
15.0
  1
V319
 50
90.0
100
AcDbText
  0
TEXT
  5
D9
330
17
100
AcDbEntity
  8
4
 62
4
370
25
100
AcDbText
 10
5328.96351292488
 20
1586.078590998447
 30
0.0
 40
15.0
  1
V321
 50
90.0
100
AcDbText
  0
TEXT
  5
DA
330
17
100
AcDbEntity
  8
4
 62
4
370
25
100
AcDbText
 10
5477.31701692488
 20
1584.789584998446
 30
0.0
 40
15.0
  1
V323
 50
90.0
100
AcDbText
  0
TEXT
  5
DB
330
17
100
AcDbEntity
  8
4
 62
4
370
25
100
AcDbText
 10
5130.109273924881
 20
1596.03585263498
 30
0.0
 40
15.0
  1
L331
100
AcDbText
  0
TEXT
  5
DC
330
17
100
AcDbEntity
  8
3
 62
3
370
25
100
AcDbText
 10
5134.11260492488
 20
1624.614089998447
 30
0.0
 40
10.0
  1
852.12
100
AcDbText
  0
TEXT
  5
DD
330
17
100
AcDbEntity
  8
3
 62
3
370
25
100
AcDbText
 10
5279.470697924879
 20
1550.364416998446
 30
0.0
 40
10.0
  1
14/55
100
AcDbText
  0
TEXT
  5
DE
330
17
100
AcDbEntity
  8
3
 62
3
370
25
100
AcDbText
 10
5277.649190924879
 20
1671.921254998447
 30
0.0
 40
10.0
  1
19/55
100
AcDbText
  0
TEXT
  5
DF
330
17
100
AcDbEntity
  8
3
 62
3
370
25
100
AcDbText
 10
4821.54393792488
 20
1671.921254998447
 30
0.0
 40
10.0
  1
19/55
100
AcDbText
  0
TEXT
  5
E0
330
17
100
AcDbEntity
  8
3
 62
3
370
25
100
AcDbText
 10
4840.20369692488
 20
1549.116581998446
 30
0.0
 40
10.0
  1
14/55
100
AcDbText
  0
TEXT
  5
E1
330
17
100
AcDbEntity
  8
Painéis
 62
240
370
25
100
AcDbText
 10
5409.340834714414
 20
1690.386185998445
 30
0.0
 40
9.0
  1
215
 50
90.0
100
AcDbText
  0
TEXT
  5
E2
330
17
100
AcDbEntity
  8
Painéis
 62
240
370
25
100
AcDbText
 10
4785.817016924879
 20
1600.693751426574
 30
0.0
 40
9.0
  1
215.5
100
AcDbText
  0
TEXT
  5
E3
330
17
100
AcDbEntity
  8
Painéis
 62
240
370
25
100
AcDbText
 10
4787.067016924879
 20
1656.524303314236
 30
0.0
 40
9.0
  1
218
100
AcDbText
  0
TEXT
  5
E4
330
17
100
AcDbEntity
  8
Painéis
 62
240
370
25
100
AcDbText
 10
4875.889385345931
 20
1641.841579165576
 30
0.0
 40
9.0
  1
2.5
100
AcDbText
  0
TEXT
  5
E5
330
17
100
AcDbEntity
  8
Painéis
 62
240
370
25
100
AcDbText
 10
4894.500305015365
 20
1596.951934893183
 30
0.0
 40
9.0
  1
16.5
 50
90.0
100
AcDbText
  0
TEXT
  5
E6
330
17
100
AcDbEntity
  8
Painéis
 62
240
370
25
100
AcDbText
 10
5211.06701692488
 20
1600.660856689732
 30
0.0
 40
9.0
  1
244
100
AcDbText
  0
TEXT
  5
E7
330
17
100
AcDbEntity
  8
Painéis
 62
240
370
25
100
AcDbText
 10
5003.31701692488
 20
1605.056347852166
 30
0.0
 40
9.0
  1
171.5
100
AcDbText
  0
TEXT
  5
E8
330
17
100
AcDbEntity
  8
Painéis
 62
240
370
25
100
AcDbText
 10
5086.585662173635
 20
1631.188776998446
 30
0.0
 40
9.0
  1
35.5
 50
90.0
100
AcDbText
  0
TEXT
  5
E9
330
17
100
AcDbEntity
  8
Painéis
 62
240
370
25
100
AcDbText
 10
5068.211323593801
 20
1595.688776998446
 30
0.0
 40
9.0
  1
35.5
 50
90.0
100
AcDbText
  0
TEXT
  5
EA
330
17
100
AcDbEntity
  8
Painéis
 62
240
370
25
100
AcDbText
 10
5211.06701692488
 20
1656.504566472131
 30
0.0
 40
9.0
  1
244
100
AcDbText
  0
TEXT
  5
EB
330
17
100
AcDbEntity
  8
Painéis
 62
240
370
25
100
AcDbText
 10
5002.067016924879
 20
1656.504566472131
 30
0.0
 40
9.0
  1
174
100
AcDbText
  0
TEXT
  5
EC
330
17
100
AcDbEntity
  8
Painéis
 62
240
370
25
100
AcDbText
 10
4935.244648503827
 20
1641.016868796051
 30
0.0
 40
9.0
  1
2.5
100
AcDbText
  0
TEXT
  5
ED
330
17
100
AcDbEntity
  8
Painéis
 62
240
370
25
100
AcDbText
 10
4949.273785820471
 20
1596.951934893183
 30
0.0
 40
9.0
  1
16.5
 50
90.0
100
AcDbText
  0
ENDSEC
  0
SECTION
  2
OBJECTS
  0
DICTIONARY
  5
A
330
0
100
AcDbDictionary
281
1
  3
ACAD_COLOR
350
B
  3
ACAD_GROUP
350
C
  3
ACAD_LAYOUT
350
D
  3
ACAD_MATERIAL
350
E
  3
ACAD_MLEADERSTYLE
350
F
  3
ACAD_MLINESTYLE
350
10
  3
ACAD_PLOTSETTINGS
350
11
  3
ACAD_PLOTSTYLENAME
350
12
  3
ACAD_SCALELIST
350
14
  3
ACAD_TABLESTYLE
350
15
  3
ACAD_VISUALSTYLE
350
16
  3
EZDXF_META
350
2D
  0
DICTIONARY
  5
B
330
A
100
AcDbDictionary
281
1
  0
DICTIONARY
  5
C
330
A
100
AcDbDictionary
281
1
  0
DICTIONARY
  5
D
330
A
100
AcDbDictionary
281
1
  3
Model
350
1A
  3
Layout1
350
1E
  0
DICTIONARY
  5
E
330
A
100
AcDbDictionary
281
1
  3
ByBlock
350
1F
  3
ByLayer
350
20
  3
Global
350
21
  0
DICTIONARY
  5
F
330
A
100
AcDbDictionary
281
1
  3
Standard
350
2C
  0
DICTIONARY
  5
10
330
A
100
AcDbDictionary
281
1
  3
Standard
350
22
  0
DICTIONARY
  5
11
330
A
100
AcDbDictionary
281
1
  0
ACDBDICTIONARYWDFLT
  5
12
330
A
100
AcDbDictionary
281
1
  3
Normal
350
13
100
AcDbDictionaryWithDefault
340
13
  0
ACDBPLACEHOLDER
  5
13
330
12
  0
DICTIONARY
  5
14
330
A
100
AcDbDictionary
281
1
  0
DICTIONARY
  5
15
330
A
100
AcDbDictionary
281
1
  0
DICTIONARY
  5
16
330
A
100
AcDbDictionary
281
1
  0
LAYOUT
  5
1A
330
D
100
AcDbPlotSettings
  1

  4
A3
  6

 40
7.5
 41
20.0
 42
7.5
 43
20.0
 44
420.0
 45
297.0
 46
0.0
 47
0.0
 48
0.0
 49
0.0
140
0.0
141
0.0
142
1.0
143
1.0
 70
1024
 72
1
 73
0
 74
5
  7

 75
16
 76
0
 77
2
 78
300
147
1.0
148
0.0
149
0.0
100
AcDbLayout
  1
Model
 70
1
 71
0
 10
0.0
 20
0.0
 11
420.0
 21
297.0
 12
0.0
 22
0.0
 32
0.0
 14
1e+20
 24
1e+20
 34
1e+20
 15
-1e+20
 25
-1e+20
 35
-1e+20
146
0.0
 13
0.0
 23
0.0
 33
0.0
 16
1.0
 26
0.0
 36
0.0
 17
0.0
 27
1.0
 37
0.0
 76
1
330
17
  0
LAYOUT
  5
1E
330
D
100
AcDbPlotSettings
  1

  4
A3
  6

 40
7.5
 41
20.0
 42
7.5
 43
20.0
 44
420.0
 45
297.0
 46
0.0
 47
0.0
 48
0.0
 49
0.0
140
0.0
141
0.0
142
1.0
143
1.0
 70
0
 72
1
 73
0
 74
5
  7

 75
16
 76
0
 77
2
 78
300
147
1.0
148
0.0
149
0.0
100
AcDbLayout
  1
Layout1
 70
1
 71
1
 10
0.0
 20
0.0
 11
420.0
 21
297.0
 12
0.0
 22
0.0
 32
0.0
 14
1e+20
 24
1e+20
 34
1e+20
 15
-1e+20
 25
-1e+20
 35
-1e+20
146
0.0
 13
0.0
 23
0.0
 33
0.0
 16
1.0
 26
0.0
 36
0.0
 17
0.0
 27
1.0
 37
0.0
 76
1
330
1B
  0
MATERIAL
  5
1F
102
{ACAD_REACTORS
330
E
102
}
330
E
100
AcDbMaterial
  1
ByBlock
  2

 70
0
 40
1.0
 71
1
 41
1.0
 91
-1023410177
 42
1.0
 72
1
  3

 73
1
 74
1
 75
1
 44
0.5
 73
0
 45
1.0
 46
1.0
 77
1
  4

 78
1
 79
1
170
1
 48
1.0
171
1
  6

172
1
173
1
174
1
140
1.0
141
1.0
175
1
  7

176
1
177
1
178
1
143
1.0
179
1
  8

270
1
271
1
272
1
145
1.0
146
1.0
273
1
  9

274
1
275
1
276
1
 42
1.0
 72
1
  3

 73
1
 74
1
 75
1
 94
63
  0
MATERIAL
  5
20
102
{ACAD_REACTORS
330
E
102
}
330
E
100
AcDbMaterial
  1
ByLayer
  2

 70
0
 40
1.0
 71
1
 41
1.0
 91
-1023410177
 42
1.0
 72
1
  3

 73
1
 74
1
 75
1
 44
0.5
 73
0
 45
1.0
 46
1.0
 77
1
  4

 78
1
 79
1
170
1
 48
1.0
171
1
  6

172
1
173
1
174
1
140
1.0
141
1.0
175
1
  7

176
1
177
1
178
1
143
1.0
179
1
  8

270
1
271
1
272
1
145
1.0
146
1.0
273
1
  9

274
1
275
1
276
1
 42
1.0
 72
1
  3

 73
1
 74
1
 75
1
 94
63
  0
MATERIAL
  5
21
102
{ACAD_REACTORS
330
E
102
}
330
E
100
AcDbMaterial
  1
Global
  2

 70
0
 40
1.0
 71
1
 41
1.0
 91
-1023410177
 42
1.0
 72
1
  3

 73
1
 74
1
 75
1
 44
0.5
 73
0
 45
1.0
 46
1.0
 77
1
  4

 78
1
 79
1
170
1
 48
1.0
171
1
  6

172
1
173
1
174
1
140
1.0
141
1.0
175
1
  7

176
1
177
1
178
1
143
1.0
179
1
  8

270
1
271
1
272
1
145
1.0
146
1.0
273
1
  9

274
1
275
1
276
1
 42
1.0
 72
1
  3

 73
1
 74
1
 75
1
 94
63
  0
MLINESTYLE
  5
22
102
{ACAD_REACTORS
330
10
102
}
330
10
100
AcDbMlineStyle
  2
Standard
 70
0
  3

 62
256
 51
90.0
 52
90.0
 71
2
 49
0.5
 62
256
  6
BYLAYER
 49
-0.5
 62
256
  6
BYLAYER
  0
MLEADERSTYLE
  5
2C
102
{ACAD_REACTORS
330
F
102
}
330
F
100
AcDbMLeaderStyle
179
2
170
2
171
1
172
0
 90
2
 40
0.0
 41
0.0
173
1
 91
-1056964608
 92
-2
290
1
 42
2.0
291
1
 43
8.0
  3
Standard
 44
4.0
300

342
29
174
1
175
1
176
0
178
1
 93
-1056964608
 45
4.0
292
0
297
0
 46
4.0
 94
-1056964608
 47
1.0
 49
1.0
140
1.0
294
1
141
0.0
177
0
142
1.0
295
0
296
0
143
3.75
271
0
272
9
273
9
  0
DICTIONARY
  5
2D
330
A
100
AcDbDictionary
280
1
281
1
  3
CREATED_BY_EZDXF
350
2E
  3
WRITTEN_BY_EZDXF
350
F0
  0
DICTIONARYVAR
  5
2E
330
2D
100
DictionaryVariables
280
0
  1
1.4.3 @ 2026-06-16T19:51:17.515180+00:00
  0
DICTIONARYVAR
  5
F0
330
2D
100
DictionaryVariables
280
0
  1
1.4.3 @ 2026-06-16T19:51:17.609486+00:00
  0
ENDSEC
  0
EOF
