  0
SECTION
  2
HEADER
  9
$ACADVER
  1
AC1032
  9
$ACADMAINTVER
 90
4
  9
$DWGCODEPAGE
  3
ANSI_1252
  9
$LASTSAVEDBY
  1
ezdxf
  9
$REQUIREDVERSIONS
160
0
  9
$INSBASE
 10
0.0
 20
0.0
 30
0.0
  9
$EXTMIN
 10
1e+20
 20
1e+20
 30
1e+20
  9
$EXTMAX
 10
-1e+20
 20
-1e+20
 30
-1e+20
  9
$LIMMIN
 10
0.0
 20
0.0
  9
$LIMMAX
 10
420.0
 20
297.0
  9
$ORTHOMODE
 70
0
  9
$REGENMODE
 70
1
  9
$FILLMODE
 70
1
  9
$QTEXTMODE
 70
0
  9
$MIRRTEXT
 70
1
  9
$LTSCALE
 40
1.0
  9
$ATTMODE
 70
1
  9
$TEXTSIZE
 40
2.5
  9
$TRACEWID
 40
1.0
  9
$TEXTSTYLE
  7
Standard
  9
$CLAYER
  8
0
  9
$CELTYPE
  6
ByLayer
  9
$CECOLOR
 62
256
  9
$CELTSCALE
 40
1.0
  9
$DISPSILH
 70
0
  9
$DIMSCALE
 40
1.0
  9
$DIMASZ
 40
2.5
  9
$DIMEXO
 40
0.625
  9
$DIMDLI
 40
3.75
  9
$DIMRND
 40
0.0
  9
$DIMDLE
 40
0.0
  9
$DIMEXE
 40
1.25
  9
$DIMTP
 40
0.0
  9
$DIMTM
 40
0.0
  9
$DIMTXT
 40
2.5
  9
$DIMCEN
 40
2.5
  9
$DIMTSZ
 40
0.0
  9
$DIMTOL
 70
0
  9
$DIMLIM
 70
0
  9
$DIMTIH
 70
0
  9
$DIMTOH
 70
0
  9
$DIMSE1
 70
0
  9
$DIMSE2
 70
0
  9
$DIMTAD
 70
1
  9
$DIMZIN
 70
8
  9
$DIMBLK
  1

  9
$DIMASO
 70
1
  9
$DIMSHO
 70
1
  9
$DIMPOST
  1

  9
$DIMAPOST
  1

  9
$DIMALT
 70
0
  9
$DIMALTD
 70
3
  9
$DIMALTF
 40
0.03937007874
  9
$DIMLFAC
 40
1.0
  9
$DIMTOFL
 70
1
  9
$DIMTVP
 40
0.0
  9
$DIMTIX
 70
0
  9
$DIMSOXD
 70
0
  9
$DIMSAH
 70
0
  9
$DIMBLK1
  1

  9
$DIMBLK2
  1

  9
$DIMSTYLE
  2
ISO-25
  9
$DIMCLRD
 70
0
  9
$DIMCLRE
 70
0
  9
$DIMCLRT
 70
0
  9
$DIMTFAC
 40
1.0
  9
$DIMGAP
 40
0.625
  9
$DIMJUST
 70
0
  9
$DIMSD1
 70
0
  9
$DIMSD2
 70
0
  9
$DIMTOLJ
 70
0
  9
$DIMTZIN
 70
8
  9
$DIMALTZ
 70
0
  9
$DIMALTTZ
 70
0
  9
$DIMUPT
 70
0
  9
$DIMDEC
 70
2
  9
$DIMTDEC
 70
2
  9
$DIMALTU
 70
2
  9
$DIMALTTD
 70
3
  9
$DIMTXSTY
  7
Standard
  9
$DIMAUNIT
 70
0
  9
$DIMADEC
 70
0
  9
$DIMALTRND
 40
0.0
  9
$DIMAZIN
 70
0
  9
$DIMDSEP
 70
44
  9
$DIMATFIT
 70
3
  9
$DIMFRAC
 70
0
  9
$DIMLDRBLK
  1

  9
$DIMLUNIT
 70
2
  9
$DIMLWD
 70
-2
  9
$DIMLWE
 70
-2
  9
$DIMTMOVE
 70
0
  9
$DIMFXL
 40
1.0
  9
$DIMFXLON
 70
0
  9
$DIMJOGANG
 40
0.785398163397
  9
$DIMTFILL
 70
0
  9
$DIMTFILLCLR
 70
0
  9
$DIMARCSYM
 70
0
  9
$DIMLTYPE
  6

  9
$DIMLTEX1
  6

  9
$DIMLTEX2
  6

  9
$DIMTXTDIRECTION
 70
0
  9
$LUNITS
 70
2
  9
$LUPREC
 70
4
  9
$SKETCHINC
 40
1.0
  9
$FILLETRAD
 40
10.0
  9
$AUNITS
 70
0
  9
$AUPREC
 70
2
  9
$MENU
  1
.
  9
$ELEVATION
 40
0.0
  9
$PELEVATION
 40
0.0
  9
$THICKNESS
 40
0.0
  9
$LIMCHECK
 70
0
  9
$CHAMFERA
 40
0.0
  9
$CHAMFERB
 40
0.0
  9
$CHAMFERC
 40
0.0
  9
$CHAMFERD
 40
0.0
  9
$SKPOLY
 70
0
  9
$TDCREATE
 40
2461110.8447569446
  9
$TDUCREATE
 40
2458532.153996898
  9
$TDUPDATE
 40
2461110.8447569446
  9
$TDUUPDATE
 40
2458532.1544311
  9
$TDINDWG
 40
0.0
  9
$TDUSRTIMER
 40
0.0
  9
$USRTIMER
 70
1
  9
$ANGBASE
 50
0.0
  9
$ANGDIR
 70
0
  9
$PDMODE
 70
0
  9
$PDSIZE
 40
0.0
  9
$PLINEWID
 40
0.0
  9
$SPLFRAME
 70
0
  9
$SPLINETYPE
 70
6
  9
$SPLINESEGS
 70
8
  9
$HANDSEED
  5
34C
  9
$SURFTAB1
 70
6
  9
$SURFTAB2
 70
6
  9
$SURFTYPE
 70
6
  9
$SURFU
 70
6
  9
$SURFV
 70
6
  9
$UCSBASE
  2

  9
$UCSNAME
  2

  9
$UCSORG
 10
0.0
 20
0.0
 30
0.0
  9
$UCSXDIR
 10
1.0
 20
0.0
 30
0.0
  9
$UCSYDIR
 10
0.0
 20
1.0
 30
0.0
  9
$UCSORTHOREF
  2

  9
$UCSORTHOVIEW
 70
0
  9
$UCSORGTOP
 10
0.0
 20
0.0
 30
0.0
  9
$UCSORGBOTTOM
 10
0.0
 20
0.0
 30
0.0
  9
$UCSORGLEFT
 10
0.0
 20
0.0
 30
0.0
  9
$UCSORGRIGHT
 10
0.0
 20
0.0
 30
0.0
  9
$UCSORGFRONT
 10
0.0
 20
0.0
 30
0.0
  9
$UCSORGBACK
 10
0.0
 20
0.0
 30
0.0
  9
$PUCSBASE
  2

  9
$PUCSNAME
  2

  9
$PUCSORG
 10
0.0
 20
0.0
 30
0.0
  9
$PUCSXDIR
 10
1.0
 20
0.0
 30
0.0
  9
$PUCSYDIR
 10
0.0
 20
1.0
 30
0.0
  9
$PUCSORTHOREF
  2

  9
$PUCSORTHOVIEW
 70
0
  9
$PUCSORGTOP
 10
0.0
 20
0.0
 30
0.0
  9
$PUCSORGBOTTOM
 10
0.0
 20
0.0
 30
0.0
  9
$PUCSORGLEFT
 10
0.0
 20
0.0
 30
0.0
  9
$PUCSORGRIGHT
 10
0.0
 20
0.0
 30
0.0
  9
$PUCSORGFRONT
 10
0.0
 20
0.0
 30
0.0
  9
$PUCSORGBACK
 10
0.0
 20
0.0
 30
0.0
  9
$USERI1
 70
0
  9
$USERI2
 70
0
  9
$USERI3
 70
0
  9
$USERI4
 70
0
  9
$USERI5
 70
0
  9
$USERR1
 40
0.0
  9
$USERR2
 40
0.0
  9
$USERR3
 40
0.0
  9
$USERR4
 40
0.0
  9
$USERR5
 40
0.0
  9
$WORLDVIEW
 70
1
  9
$SHADEDGE
 70
3
  9
$SHADEDIF
 70
70
  9
$TILEMODE
 70
1
  9
$MAXACTVP
 70
64
  9
$PINSBASE
 10
0.0
 20
0.0
 30
0.0
  9
$PLIMCHECK
 70
0
  9
$PEXTMIN
 10
1e+20
 20
1e+20
 30
1e+20
  9
$PEXTMAX
 10
-1e+20
 20
-1e+20
 30
-1e+20
  9
$PLIMMIN
 10
0.0
 20
0.0
  9
$PLIMMAX
 10
420.0
 20
297.0
  9
$UNITMODE
 70
0
  9
$VISRETAIN
 70
1
  9
$PLINEGEN
 70
0
  9
$PSLTSCALE
 70
1
  9
$TREEDEPTH
 70
3020
  9
$CMLSTYLE
  2
Standard
  9
$CMLJUST
 70
0
  9
$CMLSCALE
 40
20.0
  9
$PROXYGRAPHICS
 70
1
  9
$MEASUREMENT
 70
1
  9
$CELWEIGHT
370
-1
  9
$ENDCAPS
280
0
  9
$JOINSTYLE
280
0
  9
$LWDISPLAY
290
0
  9
$INSUNITS
 70
0
  9
$HYPERLINKBASE
  1

  9
$STYLESHEET
  1

  9
$XEDIT
290
1
  9
$CEPSNTYPE
380
0
  9
$PSTYLEMODE
290
1
  9
$FINGERPRINTGUID
  2
{16FFB86E-7298-4075-BF81-903FE47AEF0B}
  9
$VERSIONGUID
  2
{6A0FB116-DC20-4284-96E9-EB1A6B8626C4}
  9
$EXTNAMES
290
1
  9
$PSVPSCALE
 40
0.0
  9
$OLESTARTUP
290
0
  9
$SORTENTS
280
127
  9
$INDEXCTL
280
0
  9
$HIDETEXT
280
1
  9
$XCLIPFRAME
280
1
  9
$HALOGAP
280
0
  9
$OBSCOLOR
 70
257
  9
$OBSLTYPE
280
0
  9
$INTERSECTIONDISPLAY
280
0
  9
$INTERSECTIONCOLOR
 70
257
  9
$DIMASSOC
280
2
  9
$PROJECTNAME
  1

  9
$CAMERADISPLAY
290
0
  9
$LENSLENGTH
 40
50.0
  9
$CAMERAHEIGHT
 40
0.0
  9
$STEPSPERSEC
 40
24.0
  9
$STEPSIZE
 40
100.0
  9
$3DDWFPREC
 40
2.0
  9
$PSOLWIDTH
 40
0.005
  9
$PSOLHEIGHT
 40
0.08
  9
$LOFTANG1
 40
1.570796326795
  9
$LOFTANG2
 40
1.570796326795
  9
$LOFTMAG1
 40
0.0
  9
$LOFTMAG2
 40
0.0
  9
$LOFTPARAM
 70
7
  9
$LOFTNORMALS
280
1
  9
$LATITUDE
 40
37.795
  9
$LONGITUDE
 40
-122.394
  9
$NORTHDIRECTION
 40
0.0
  9
$TIMEZONE
 70
-8000
  9
$LIGHTGLYPHDISPLAY
280
1
  9
$TILEMODELIGHTSYNCH
280
1
  9
$CMATERIAL
347
20
  9
$SOLIDHIST
280
0
  9
$SHOWHIST
280
1
  9
$DWFFRAME
280
2
  9
$DGNFRAME
280
2
  9
$REALWORLDSCALE
290
1
  9
$INTERFERECOLOR
 62
256
  9
$CSHADOW
280
0
  9
$SHADOWPLANELOCATION
 40
0.0
  0
ENDSEC
  0
SECTION
  2
CLASSES
  0
CLASS
  1
ACDBDICTIONARYWDFLT
  2
AcDbDictionaryWithDefault
  3
ObjectDBX Classes
 90
0
 91
0
280
0
281
0
  0
CLASS
  1
SUN
  2
AcDbSun
  3
SCENEOE
 90
1153
 91
0
280
0
281
0
  0
CLASS
  1
VISUALSTYLE
  2
AcDbVisualStyle
  3
ObjectDBX Classes
 90
4095
 91
0
280
0
281
0
  0
CLASS
  1
MATERIAL
  2
AcDbMaterial
  3
ObjectDBX Classes
 90
1153
 91
0
280
0
281
0
  0
CLASS
  1
SCALE
  2
AcDbScale
  3
ObjectDBX Classes
 90
1153
 91
0
280
0
281
0
  0
CLASS
  1
TABLESTYLE
  2
AcDbTableStyle
  3
ObjectDBX Classes
 90
4095
 91
0
280
0
281
0
  0
CLASS
  1
MLEADERSTYLE
  2
AcDbMLeaderStyle
  3
ACDB_MLEADERSTYLE_CLASS
 90
4095
 91
0
280
0
281
0
  0
CLASS
  1
DICTIONARYVAR
  2
AcDbDictionaryVar
  3
ObjectDBX Classes
 90
0
 91
0
280
0
281
0
  0
CLASS
  1
CELLSTYLEMAP
  2
AcDbCellStyleMap
  3
ObjectDBX Classes
 90
1152
 91
0
280
0
281
0
  0
CLASS
  1
MENTALRAYRENDERSETTINGS
  2
AcDbMentalRayRenderSettings
  3
SCENEOE
 90
1024
 91
0
280
0
281
0
  0
CLASS
  1
ACDBDETAILVIEWSTYLE
  2
AcDbDetailViewStyle
  3
ObjectDBX Classes
 90
1025
 91
0
280
0
281
0
  0
CLASS
  1
ACDBSECTIONVIEWSTYLE
  2
AcDbSectionViewStyle
  3
ObjectDBX Classes
 90
1025
 91
0
280
0
281
0
  0
CLASS
  1
RASTERVARIABLES
  2
AcDbRasterVariables
  3
ISM
 90
0
 91
0
280
0
281
0
  0
CLASS
  1
LAYOUT
  2
AcDbLayout
  3
ObjectDBX Classes
 90
0
 91
0
280
0
281
0
  0
CLASS
  1
ACDBPLACEHOLDER
  2
AcDbPlaceHolder
  3
ObjectDBX Classes
 90
0
 91
0
280
0
281
0
  0
ENDSEC
  0
SECTION
  2
TABLES
  0
TABLE
  2
VPORT
  5
8
330
0
100
AcDbSymbolTable
 70
1
  0
VPORT
  5
23
330
8
100
AcDbSymbolTableRecord
100
AcDbViewportTableRecord
  2
*Active
 70
0
 10
0.0
 20
0.0
 11
1.0
 21
1.0
 12
0.0
 22
0.0
 13
0.0
 23
0.0
 14
0.5
 24
0.5
 15
0.5
 25
0.5
 16
0.0
 26
0.0
 36
1.0
 17
0.0
 27
0.0
 37
0.0
 40
1000.0
 41
1.34
 42
50.0
 43
0.0
 44
0.0
 50
0.0
 51
0.0
 71
0
 72
1000
 73
1
 74
3
 75
0
 76
0
 77
0
 78
0
281
0
 65
0
146
0.0
  0
ENDTAB
  0
TABLE
  2
LTYPE
  5
2
330
0
100
AcDbSymbolTable
 70
3
  0
LTYPE
  5
24
330
2
100
AcDbSymbolTableRecord
100
AcDbLinetypeTableRecord
  2
ByBlock
 70
0
  3

 72
65
 73
0
 40
0.0
  0
LTYPE
  5
25
330
2
100
AcDbSymbolTableRecord
100
AcDbLinetypeTableRecord
  2
ByLayer
 70
0
  3

 72
65
 73
0
 40
0.0
  0
LTYPE
  5
26
330
2
100
AcDbSymbolTableRecord
100
AcDbLinetypeTableRecord
  2
Continuous
 70
0
  3

 72
65
 73
0
 40
0.0
  0
ENDTAB
  0
TABLE
  2
LAYER
  5
1
330
0
100
AcDbSymbolTable
 70
24
  0
LAYER
  5
27
330
1
100
AcDbSymbolTableRecord
100
AcDbLayerTableRecord
  2
0
 70
0
 62
7
  6
Continuous
370
-3
390
13
347
21
  0
LAYER
  5
28
330
1
100
AcDbSymbolTableRecord
100
AcDbLayerTableRecord
  2
Defpoints
 70
0
 62
7
  6
Continuous
290
0
370
-3
390
13
347
21
  0
LAYER
  5
2F
330
1
100
AcDbSymbolTableRecord
100
AcDbLayerTableRecord
  2
Painéis
 70
0
 62
200
  6
Continuous
370
-3
390
13
347
21
  0
LAYER
  5
30
330
1
100
AcDbSymbolTableRecord
100
AcDbLayerTableRecord
  2
COTA
 70
0
 62
241
  6
Continuous
370
-3
390
13
347
21
  0
LAYER
  5
31
330
1
100
AcDbSymbolTableRecord
100
AcDbLayerTableRecord
  2
NOMENCLATURA
 70
0
 62
7
  6
Continuous
370
-3
390
13
347
21
  0
LAYER
  5
32
330
1
100
AcDbSymbolTableRecord
100
AcDbLayerTableRecord
  2
5
 70
0
 62
5
  6
Continuous
370
-3
390
13
347
21
  0
LAYER
  5
33
330
1
100
AcDbSymbolTableRecord
100
AcDbLayerTableRecord
  2
Folhas
 70
0
 62
255
  6
Continuous
370
-3
390
13
347
21
  0
LAYER
  5
34
330
1
100
AcDbSymbolTableRecord
100
AcDbLayerTableRecord
  2
CARIMBO
 70
0
 62
255
  6
Continuous
370
-3
390
13
347
21
  0
LAYER
  5
35
330
1
100
AcDbSymbolTableRecord
100
AcDbLayerTableRecord
  2
SARR_3.5x7
 70
0
 62
81
  6
Continuous
370
-3
390
13
347
21
  0
LAYER
  5
36
330
1
100
AcDbSymbolTableRecord
100
AcDbLayerTableRecord
  2
SARR_2.2x7
 70
0
 62
40
  6
Continuous
370
-3
390
13
347
21
  0
LAYER
  5
37
330
1
100
AcDbSymbolTableRecord
100
AcDbLayerTableRecord
  2
CONCRETO
 70
0
 62
251
  6
Continuous
370
-3
390
13
347
21
  0
LAYER
  5
38
330
1
100
AcDbSymbolTableRecord
100
AcDbLayerTableRecord
  2
Hachura
 70
0
 62
251
  6
Continuous
370
-3
390
13
347
21
  0
LAYER
  5
39
330
1
100
AcDbSymbolTableRecord
100
AcDbLayerTableRecord
  2
Madeira
 70
0
 62
126
  6
Continuous
370
-3
390
13
347
21
  0
LAYER
  5
3A
330
1
100
AcDbSymbolTableRecord
100
AcDbLayerTableRecord
  2
barrote
 70
0
 62
126
  6
Continuous
370
-3
390
13
347
21
  0
LAYER
  5
3B
330
1
100
AcDbSymbolTableRecord
100
AcDbLayerTableRecord
  2
SCO-___-LAJ
 70
0
 62
224
  6
Continuous
370
-3
390
13
347
21
  0
LAYER
  5
3C
330
1
100
AcDbSymbolTableRecord
100
AcDbLayerTableRecord
  2
TENSOR
 70
0
 62
224
  6
Continuous
370
-3
390
13
347
21
  0
LAYER
  5
3D
330
1
100
AcDbSymbolTableRecord
100
AcDbLayerTableRecord
  2
presilha
 70
0
 62
224
  6
Continuous
370
-3
390
13
347
21
  0
LAYER
  5
3E
330
1
100
AcDbSymbolTableRecord
100
AcDbLayerTableRecord
  2
Forcador
 70
0
 62
224
  6
Continuous
370
-3
390
13
347
21
  0
LAYER
  5
3F
330
1
100
AcDbSymbolTableRecord
100
AcDbLayerTableRecord
  2
Escoras
 70
0
 62
224
  6
Continuous
370
-3
390
13
347
21
  0
LAYER
  5
40
330
1
100
AcDbSymbolTableRecord
100
AcDbLayerTableRecord
  2
detalhes
 70
0
 62
7
  6
Continuous
370
-3
390
13
347
21
  0
LAYER
  5
41
330
1
100
AcDbSymbolTableRecord
100
AcDbLayerTableRecord
  2
Texto Seção
 70
0
 62
7
  6
Continuous
370
-3
390
13
347
21
  0
LAYER
  5
42
330
1
100
AcDbSymbolTableRecord
100
AcDbLayerTableRecord
  2
Cota Seção (2x)
 70
0
 62
241
  6
Continuous
370
-3
390
13
347
21
  0
LAYER
  5
43
330
1
100
AcDbSymbolTableRecord
100
AcDbLayerTableRecord
  2
texto
 70
0
 62
7
  6
Continuous
370
-3
390
13
347
21
  0
LAYER
  5
4E
330
1
100
AcDbSymbolTableRecord
100
AcDbLayerTableRecord
  2
Reaproveitamento
 70
0
 62
30
  6
Continuous
370
-3
390
13
347
21
  0
ENDTAB
  0
TABLE
  2
STYLE
  5
5
330
0
100
AcDbSymbolTable
 70
1
  0
STYLE
  5
29
330
5
100
AcDbSymbolTableRecord
100
AcDbTextStyleTableRecord
  2
Standard
 70
0
 40
0.0
 41
1.0
 50
0.0
 71
0
 42
2.5
  3
txt
  4

  0
ENDTAB
  0
TABLE
  2
VIEW
  5
7
330
0
100
AcDbSymbolTable
 70
0
  0
ENDTAB
  0
TABLE
  2
UCS
  5
6
330
0
100
AcDbSymbolTable
 70
0
  0
ENDTAB
  0
TABLE
  2
APPID
  5
3
330
0
100
AcDbSymbolTable
 70
3
  0
APPID
  5
2A
330
3
100
AcDbSymbolTableRecord
100
AcDbRegAppTableRecord
  2
ACAD
 70
0
  0
APPID
  5
349
330
3
100
AcDbSymbolTableRecord
100
AcDbRegAppTableRecord
  2
HATCHBACKGROUNDCOLOR
 70
0
  0
APPID
  5
34A
330
3
100
AcDbSymbolTableRecord
100
AcDbRegAppTableRecord
  2
EZDXF
 70
0
  0
ENDTAB
  0
TABLE
  2
DIMSTYLE
  5
4
330
0
100
AcDbSymbolTable
 70
3
100
AcDbDimStyleTable
  0
DIMSTYLE
105
2B
330
4
100
AcDbSymbolTableRecord
100
AcDbDimStyleTableRecord
  2
Standard
 70
0
 40
1.0
 41
2.5
 42
0.625
 43
3.75
 44
1.25
 45
0.0
 46
0.0
 47
0.0
 48
0.0
 49
2.5
140
2.5
141
2.5
142
0.0
143
0.03937007874
144
1.0
145
0.0
146
1.0
147
0.625
148
0.0
 69
0
 70
0
 71
0
 72
0
 73
0
 74
0
 75
0
 76
0
 77
1
 78
8
 79
3
170
0
171
3
172
1
173
0
174
0
175
0
176
0
177
0
178
0
179
2
271
2
272
2
273
2
274
3
275
0
276
0
277
2
278
44
279
0
280
0
281
0
282
0
283
0
284
8
285
0
286
0
288
0
289
3
290
0
371
-2
372
-2
  0
DIMSTYLE
105
44
330
4
100
AcDbSymbolTableRecord
100
AcDbDimStyleTableRecord
  2
PAINEL
 70
0
 40
1.0
 41
3.0
 42
3.0
 43
3.75
 44
3.0
 45
0.0
 46
0.0
 47
0.0
 48
0.0
 49
2.5
140
10.0
141
2.5
142
0.0
143
0.03937007874
144
1.0
145
0.0
146
1.0
147
3.0
148
0.0
 69
0
 70
0
 71
0
 72
0
 73
0
 74
0
 75
0
 76
0
 77
1
 78
8
 79
3
170
0
171
3
172
1
173
0
174
0
175
0
176
4
177
4
178
240
179
2
271
2
272
2
273
2
274
3
275
0
276
0
277
2
278
44
279
0
280
0
281
0
282
0
283
0
284
8
285
0
286
0
288
0
289
3
290
0
342
45
343
45
371
-2
372
-2
  0
DIMSTYLE
105
4D
330
4
100
AcDbSymbolTableRecord
100
AcDbDimStyleTableRecord
  2
SECAO2X
 70
0
 40
1.0
 41
3.0
 42
3.0
 43
3.75
 44
3.0
 45
0.0
 46
0.0
 47
0.0
 48
0.0
 49
2.5
140
16.0
141
2.5
142
0.0
143
0.03937007874
144
1.0
145
0.0
146
1.0
147
3.0
148
0.0
 69
0
 70
0
 71
0
 72
0
 73
0
 74
0
 75
0
 76
0
 77
1
 78
8
 79
3
170
0
171
3
172
1
173
0
174
0
175
0
176
4
177
4
178
240
179
2
271
2
272
2
273
2
274
3
275
0
276
0
277
2
278
44
279
0
280
0
281
0
282
0
283
0
284
8
285
0
286
0
288
0
289
3
290
0
342
45
343
45
371
-2
372
-2
  0
ENDTAB
  0
TABLE
  2
BLOCK_RECORD
  5
9
330
0
100
AcDbSymbolTable
 70
26
  0
BLOCK_RECORD
  5
17
330
9
100
AcDbSymbolTableRecord
100
AcDbBlockTableRecord
  2
*Model_Space
340
1A
 70
0
280
1
281
0
  0
BLOCK_RECORD
  5
1B
330
9
100
AcDbSymbolTableRecord
100
AcDbBlockTableRecord
  2
*Paper_Space
340
1E
 70
0
280
1
281
0
  0
BLOCK_RECORD
  5
45
330
9
100
AcDbSymbolTableRecord
100
AcDbBlockTableRecord
  2
_OBLIQUE
340
0
 70
0
280
1
281
0
  0
BLOCK_RECORD
  5
49
330
9
100
AcDbSymbolTableRecord
100
AcDbBlockTableRecord
  2
_CLOSEDFILLED
340
0
 70
0
280
1
281
0
  0
BLOCK_RECORD
  5
86
330
9
100
AcDbSymbolTableRecord
100
AcDbBlockTableRecord
  2
*D1
340
0
 70
0
280
1
281
0
  0
BLOCK_RECORD
  5
95
330
9
100
AcDbSymbolTableRecord
100
AcDbBlockTableRecord
  2
*D2
340
0
 70
0
280
1
281
0
  0
BLOCK_RECORD
  5
A4
330
9
100
AcDbSymbolTableRecord
100
AcDbBlockTableRecord
  2
*D3
340
0
 70
0
280
1
281
0
  0
BLOCK_RECORD
  5
B3
330
9
100
AcDbSymbolTableRecord
100
AcDbBlockTableRecord
  2
*D4
340
0
 70
0
280
1
281
0
  0
BLOCK_RECORD
  5
C2
330
9
100
AcDbSymbolTableRecord
100
AcDbBlockTableRecord
  2
*D5
340
0
 70
0
280
1
281
0
  0
BLOCK_RECORD
  5
D1
330
9
100
AcDbSymbolTableRecord
100
AcDbBlockTableRecord
  2
*D6
340
0
 70
0
280
1
281
0
  0
BLOCK_RECORD
  5
137
330
9
100
AcDbSymbolTableRecord
100
AcDbBlockTableRecord
  2
*D7
340
0
 70
0
280
1
281
0
  0
BLOCK_RECORD
  5
146
330
9
100
AcDbSymbolTableRecord
100
AcDbBlockTableRecord
  2
*D8
340
0
 70
0
280
1
281
0
  0
BLOCK_RECORD
  5
155
330
9
100
AcDbSymbolTableRecord
100
AcDbBlockTableRecord
  2
*D9
340
0
 70
0
280
1
281
0
  0
BLOCK_RECORD
  5
164
330
9
100
AcDbSymbolTableRecord
100
AcDbBlockTableRecord
  2
*D10
340
0
 70
0
280
1
281
0
  0
BLOCK_RECORD
  5
173
330
9
100
AcDbSymbolTableRecord
100
AcDbBlockTableRecord
  2
*D11
340
0
 70
0
280
1
281
0
  0
BLOCK_RECORD
  5
182
330
9
100
AcDbSymbolTableRecord
100
AcDbBlockTableRecord
  2
*D12
340
0
 70
0
280
1
281
0
  0
BLOCK_RECORD
  5
191
330
9
100
AcDbSymbolTableRecord
100
AcDbBlockTableRecord
  2
*D13
340
0
 70
0
280
1
281
0
  0
BLOCK_RECORD
  5
1A0
330
9
100
AcDbSymbolTableRecord
100
AcDbBlockTableRecord
  2
*D14
340
0
 70
0
280
1
281
0
  0
BLOCK_RECORD
  5
1AF
330
9
100
AcDbSymbolTableRecord
100
AcDbBlockTableRecord
  2
*D15
340
0
 70
0
280
1
281
0
  0
BLOCK_RECORD
  5
1F3
330
9
100
AcDbSymbolTableRecord
100
AcDbBlockTableRecord
  2
*D16
340
0
 70
0
280
1
281
0
  0
BLOCK_RECORD
  5
202
330
9
100
AcDbSymbolTableRecord
100
AcDbBlockTableRecord
  2
*D17
340
0
 70
0
280
1
281
0
  0
BLOCK_RECORD
  5
211
330
9
100
AcDbSymbolTableRecord
100
AcDbBlockTableRecord
  2
*D18
340
0
 70
0
280
1
281
0
  0
BLOCK_RECORD
  5
220
330
9
100
AcDbSymbolTableRecord
100
AcDbBlockTableRecord
  2
*D19
340
0
 70
0
280
1
281
0
  0
BLOCK_RECORD
  5
22F
330
9
100
AcDbSymbolTableRecord
100
AcDbBlockTableRecord
  2
*D20
340
0
 70
0
280
1
281
0
  0
BLOCK_RECORD
  5
23E
330
9
100
AcDbSymbolTableRecord
100
AcDbBlockTableRecord
  2
*D21
340
0
 70
0
280
1
281
0
  0
BLOCK_RECORD
  5
24D
330
9
100
AcDbSymbolTableRecord
100
AcDbBlockTableRecord
  2
*D22
340
0
 70
0
280
1
281
0
  0
ENDTAB
  0
ENDSEC
  0
SECTION
  2
BLOCKS
  0
BLOCK
  5
18
330
17
100
AcDbEntity
  8
0
100
AcDbBlockBegin
  2
*Model_Space
 70
0
 10
0.0
 20
0.0
 30
0.0
  3
*Model_Space
  1

  0
ENDBLK
  5
19
330
17
100
AcDbEntity
  8
0
100
AcDbBlockEnd
  0
BLOCK
  5
1C
330
1B
100
AcDbEntity
  8
0
100
AcDbBlockBegin
  2
*Paper_Space
 70
0
 10
0.0
 20
0.0
 30
0.0
  3
*Paper_Space
  1

  0
ENDBLK
  5
1D
330
1B
100
AcDbEntity
  8
0
100
AcDbBlockEnd
  0
BLOCK
  5
46
330
45
100
AcDbEntity
  8
0
100
AcDbBlockBegin
  2
_OBLIQUE
 70
0
 10
0.0
 20
0.0
 30
0.0
  3
_OBLIQUE
  1

  0
LINE
  5
48
330
45
100
AcDbEntity
  8
0
  6
BYBLOCK
 62
0
100
AcDbLine
 10
-0.5
 20
-0.5
 30
0.0
 11
0.5
 21
0.5
 31
0.0
  0
ENDBLK
  5
47
330
45
100
AcDbEntity
  8
0
100
AcDbBlockEnd
  0
BLOCK
  5
4A
330
49
100
AcDbEntity
  8
0
100
AcDbBlockBegin
  2
_CLOSEDFILLED
 70
0
 10
0.0
 20
0.0
 30
0.0
  3
_CLOSEDFILLED
  1

  0
SOLID
  5
4C
330
49
100
AcDbEntity
  8
0
  6
BYBLOCK
 62
0
100
AcDbTrace
 10
-1.0
 20
0.16439898372402537
 30
0.0
 11
0.0
 21
0.0
 31
0.0
 12
-1.0
 22
-0.16439898372402537
 32
0.0
 13
-1.0
 23
-0.16439898372402537
 33
0.0
  0
ENDBLK
  5
4B
330
49
100
AcDbEntity
  8
0
100
AcDbBlockEnd
  0
BLOCK
  5
87
330
86
100
AcDbEntity
  8
0
100
AcDbBlockBegin
  2
*D1
 70
1
 10
0.0
 20
0.0
 30
0.0
  3
*D1
  1

  0
LINE
  5
89
330
86
100
AcDbEntity
  8
0
 62
4
100
AcDbLine
 10
-1.0
 20
-29.0
 30
0.0
 11
-57.0
 21
-29.0
 31
0.0
  0
LINE
  5
8A
330
86
100
AcDbEntity
  8
0
 62
4
100
AcDbLine
 10
19.0
 20
4.0
 30
0.0
 11
-57.0
 21
4.0
 31
0.0
  0
INSERT
  5
8B
330
86
100
AcDbEntity
  8
COTA
 62
4
100
AcDbBlockReference
  2
_OBLIQUE
 10
-54.0
 20
-29.0
 30
0.0
 41
3.0
 42
3.0
 50
270.0
  0
INSERT
  5
8D
330
86
100
AcDbEntity
  8
COTA
 62
4
100
AcDbBlockReference
  2
_OBLIQUE
 10
-54.0
 20
4.0
 30
0.0
 41
3.0
 42
3.0
 50
90.0
  0
LINE
  5
8F
330
86
100
AcDbEntity
  8
0
 62
4
100
AcDbLine
 10
-54.0
 20
-29.0
 30
0.0
 11
-54.0
 21
4.0
 31
0.0
  0
MTEXT
  5
90
330
86
100
AcDbEntity
  8
COTA
 62
240
100
AcDbMText
 10
-62.0
 20
-12.5
 30
0.0
 40
10.0
 71
5
  1
33
 50
90.0
  0
POINT
  5
91
330
86
100
AcDbEntity
  8
Defpoints
100
AcDbPoint
 10
-54.0
 20
-29.0
 30
0.0
  0
POINT
  5
92
330
86
100
AcDbEntity
  8
Defpoints
100
AcDbPoint
 10
2.0
 20
-29.0
 30
0.0
  0
POINT
  5
93
330
86
100
AcDbEntity
  8
Defpoints
100
AcDbPoint
 10
22.0
 20
4.0
 30
0.0
  0
ENDBLK
  5
88
330
86
100
AcDbEntity
  8
0
100
AcDbBlockEnd
  0
BLOCK
  5
96
330
95
100
AcDbEntity
  8
0
100
AcDbBlockBegin
  2
*D2
 70
1
 10
0.0
 20
0.0
 30
0.0
  3
*D2
  1

  0
LINE
  5
98
330
95
100
AcDbEntity
  8
0
 62
4
100
AcDbLine
 10
43.0
 20
-21.0
 30
0.0
 11
75.0
 21
-21.0
 31
0.0
  0
LINE
  5
99
330
95
100
AcDbEntity
  8
0
 62
4
100
AcDbLine
 10
43.0
 20
4.0
 30
0.0
 11
75.0
 21
4.0
 31
0.0
  0
INSERT
  5
9A
330
95
100
AcDbEntity
  8
Cota Seção (2x)
 62
4
100
AcDbBlockReference
  2
_OBLIQUE
 10
72.0
 20
-21.0
 30
0.0
 41
3.0
 42
3.0
 50
270.0
  0
INSERT
  5
9C
330
95
100
AcDbEntity
  8
Cota Seção (2x)
 62
4
100
AcDbBlockReference
  2
_OBLIQUE
 10
72.0
 20
4.0
 30
0.0
 41
3.0
 42
3.0
 50
90.0
  0
LINE
  5
9E
330
95
100
AcDbEntity
  8
0
 62
4
100
AcDbLine
 10
72.0
 20
-21.0
 30
0.0
 11
72.0
 21
4.0
 31
0.0
  0
MTEXT
  5
9F
330
95
100
AcDbEntity
  8
Cota Seção (2x)
 62
240
100
AcDbMText
 10
58.0
 20
-8.5
 30
0.0
 40
16.0
 71
5
  1
25
 50
90.0
  0
POINT
  5
A0
330
95
100
AcDbEntity
  8
Defpoints
100
AcDbPoint
 10
72.0
 20
-21.0
 30
0.0
  0
POINT
  5
A1
330
95
100
AcDbEntity
  8
Defpoints
100
AcDbPoint
 10
40.0
 20
-21.0
 30
0.0
  0
POINT
  5
A2
330
95
100
AcDbEntity
  8
Defpoints
100
AcDbPoint
 10
40.0
 20
4.0
 30
0.0
  0
ENDBLK
  5
97
330
95
100
AcDbEntity
  8
0
100
AcDbBlockEnd
  0
BLOCK
  5
A5
330
A4
100
AcDbEntity
  8
0
100
AcDbBlockBegin
  2
*D3
 70
1
 10
0.0
 20
0.0
 30
0.0
  3
*D3
  1

  0
LINE
  5
A7
330
A4
100
AcDbEntity
  8
0
 62
4
100
AcDbLine
 10
99.0
 20
-29.0
 30
0.0
 11
103.0
 21
-29.0
 31
0.0
  0
LINE
  5
A8
330
A4
100
AcDbEntity
  8
0
 62
4
100
AcDbLine
 10
99.0
 20
21.0
 30
0.0
 11
103.0
 21
21.0
 31
0.0
  0
INSERT
  5
A9
330
A4
100
AcDbEntity
  8
COTA
 62
4
100
AcDbBlockReference
  2
_OBLIQUE
 10
100.0
 20
-29.0
 30
0.0
 41
3.0
 42
3.0
 50
270.0
  0
INSERT
  5
AB
330
A4
100
AcDbEntity
  8
COTA
 62
4
100
AcDbBlockReference
  2
_OBLIQUE
 10
100.0
 20
21.0
 30
0.0
 41
3.0
 42
3.0
 50
90.0
  0
LINE
  5
AD
330
A4
100
AcDbEntity
  8
0
 62
4
100
AcDbLine
 10
100.0
 20
-29.0
 30
0.0
 11
100.0
 21
21.0
 31
0.0
  0
MTEXT
  5
AE
330
A4
100
AcDbEntity
  8
COTA
 62
240
100
AcDbMText
 10
92.0
 20
-4.0
 30
0.0
 40
10.0
 71
5
  1
50
 50
90.0
  0
POINT
  5
AF
330
A4
100
AcDbEntity
  8
Defpoints
100
AcDbPoint
 10
100.0
 20
-29.0
 30
0.0
  0
POINT
  5
B0
330
A4
100
AcDbEntity
  8
Defpoints
100
AcDbPoint
 10
96.0
 20
-29.0
 30
0.0
  0
POINT
  5
B1
330
A4
100
AcDbEntity
  8
Defpoints
100
AcDbPoint
 10
96.0
 20
21.0
 30
0.0
  0
ENDBLK
  5
A6
330
A4
100
AcDbEntity
  8
0
100
AcDbBlockEnd
  0
BLOCK
  5
B4
330
B3
100
AcDbEntity
  8
0
100
AcDbBlockBegin
  2
*D4
 70
1
 10
0.0
 20
0.0
 30
0.0
  3
*D4
  1

  0
LINE
  5
B6
330
B3
100
AcDbEntity
  8
0
 62
4
100
AcDbLine
 10
99.0
 20
-29.0
 30
0.0
 11
143.0
 21
-29.0
 31
0.0
  0
LINE
  5
B7
330
B3
100
AcDbEntity
  8
0
 62
4
100
AcDbLine
 10
99.0
 20
-24.0
 30
0.0
 11
143.0
 21
-24.0
 31
0.0
  0
INSERT
  5
B8
330
B3
100
AcDbEntity
  8
COTA
 62
4
100
AcDbBlockReference
  2
_OBLIQUE
 10
140.0
 20
-29.0
 30
0.0
 41
3.0
 42
3.0
 50
90.0
  0
INSERT
  5
BA
330
B3
100
AcDbEntity
  8
COTA
 62
4
100
AcDbBlockReference
  2
_OBLIQUE
 10
140.0
 20
-24.0
 30
0.0
 41
3.0
 42
3.0
 50
270.0
  0
LINE
  5
BC
330
B3
100
AcDbEntity
  8
0
 62
4
100
AcDbLine
 10
140.0
 20
-29.0
 30
0.0
 11
140.0
 21
-24.0
 31
0.0
  0
MTEXT
  5
BD
330
B3
100
AcDbEntity
  8
COTA
 62
240
100
AcDbMText
 10
129.0
 20
-26.5
 30
0.0
 40
10.0
 71
5
  1
5
 50
90.0
  0
POINT
  5
BE
330
B3
100
AcDbEntity
  8
Defpoints
100
AcDbPoint
 10
140.0
 20
-29.0
 30
0.0
  0
POINT
  5
BF
330
B3
100
AcDbEntity
  8
Defpoints
100
AcDbPoint
 10
96.0
 20
-29.0
 30
0.0
  0
POINT
  5
C0
330
B3
100
AcDbEntity
  8
Defpoints
100
AcDbPoint
 10
96.0
 20
-24.0
 30
0.0
  0
ENDBLK
  5
B5
330
B3
100
AcDbEntity
  8
0
100
AcDbBlockEnd
  0
BLOCK
  5
C3
330
C2
100
AcDbEntity
  8
0
100
AcDbBlockBegin
  2
*D5
 70
1
 10
0.0
 20
0.0
 30
0.0
  3
*D5
  1

  0
LINE
  5
C5
330
C2
100
AcDbEntity
  8
0
 62
4
100
AcDbLine
 10
100.0
 20
-20.0
 30
0.0
 11
143.0
 21
-20.0
 31
0.0
  0
LINE
  5
C6
330
C2
100
AcDbEntity
  8
0
 62
4
100
AcDbLine
 10
100.0
 20
4.0
 30
0.0
 11
143.0
 21
4.0
 31
0.0
  0
INSERT
  5
C7
330
C2
100
AcDbEntity
  8
COTA
 62
4
100
AcDbBlockReference
  2
_OBLIQUE
 10
140.0
 20
-20.0
 30
0.0
 41
3.0
 42
3.0
 50
270.0
  0
INSERT
  5
C9
330
C2
100
AcDbEntity
  8
COTA
 62
4
100
AcDbBlockReference
  2
_OBLIQUE
 10
140.0
 20
4.0
 30
0.0
 41
3.0
 42
3.0
 50
90.0
  0
LINE
  5
CB
330
C2
100
AcDbEntity
  8
0
 62
4
100
AcDbLine
 10
140.0
 20
-20.0
 30
0.0
 11
140.0
 21
4.0
 31
0.0
  0
MTEXT
  5
CC
330
C2
100
AcDbEntity
  8
COTA
 62
240
100
AcDbMText
 10
132.0
 20
-8.0
 30
0.0
 40
10.0
 71
5
  1
24
 50
90.0
  0
POINT
  5
CD
330
C2
100
AcDbEntity
  8
Defpoints
100
AcDbPoint
 10
140.0
 20
-20.0
 30
0.0
  0
POINT
  5
CE
330
C2
100
AcDbEntity
  8
Defpoints
100
AcDbPoint
 10
97.0
 20
-20.0
 30
0.0
  0
POINT
  5
CF
330
C2
100
AcDbEntity
  8
Defpoints
100
AcDbPoint
 10
97.0
 20
4.0
 30
0.0
  0
ENDBLK
  5
C4
330
C2
100
AcDbEntity
  8
0
100
AcDbBlockEnd
  0
BLOCK
  5
D2
330
D1
100
AcDbEntity
  8
0
100
AcDbBlockBegin
  2
*D6
 70
1
 10
0.0
 20
0.0
 30
0.0
  3
*D6
  1

  0
LINE
  5
D4
330
D1
100
AcDbEntity
  8
0
 62
4
100
AcDbLine
 10
40.0
 20
-32.0
 30
0.0
 11
40.0
 21
-77.0
 31
0.0
  0
LINE
  5
D5
330
D1
100
AcDbEntity
  8
0
 62
4
100
AcDbLine
 10
78.0
 20
-32.0
 30
0.0
 11
78.0
 21
-77.0
 31
0.0
  0
INSERT
  5
D6
330
D1
100
AcDbEntity
  8
COTA
 62
4
100
AcDbBlockReference
  2
_OBLIQUE
 10
40.0
 20
-74.0
 30
0.0
 41
3.0
 42
3.0
 50
180.0
  0
INSERT
  5
D8
330
D1
100
AcDbEntity
  8
COTA
 62
4
100
AcDbBlockReference
  2
_OBLIQUE
 10
78.0
 20
-74.0
 30
0.0
 41
3.0
 42
3.0
  0
LINE
  5
DA
330
D1
100
AcDbEntity
  8
0
 62
4
100
AcDbLine
 10
40.0
 20
-74.0
 30
0.0
 11
78.0
 21
-74.0
 31
0.0
  0
MTEXT
  5
DB
330
D1
100
AcDbEntity
  8
COTA
 62
240
100
AcDbMText
 10
59.0
 20
-66.0
 30
0.0
 40
10.0
 71
5
  1
38
  0
POINT
  5
DC
330
D1
100
AcDbEntity
  8
Defpoints
100
AcDbPoint
 10
40.0
 20
-74.0
 30
0.0
  0
POINT
  5
DD
330
D1
100
AcDbEntity
  8
Defpoints
100
AcDbPoint
 10
40.0
 20
-29.0
 30
0.0
  0
POINT
  5
DE
330
D1
100
AcDbEntity
  8
Defpoints
100
AcDbPoint
 10
78.0
 20
-29.0
 30
0.0
  0
ENDBLK
  5
D3
330
D1
100
AcDbEntity
  8
0
100
AcDbBlockEnd
  0
BLOCK
  5
138
330
137
100
AcDbEntity
  8
0
100
AcDbBlockBegin
  2
*D7
 70
1
 10
0.0
 20
0.0
 30
0.0
  3
*D7
  1

  0
LINE
  5
13A
330
137
100
AcDbEntity
  8
0
 62
4
100
AcDbLine
 10
197.0
 20
-32.0
 30
0.0
 11
197.0
 21
-69.0
 31
0.0
  0
LINE
  5
13B
330
137
100
AcDbEntity
  8
0
 62
4
100
AcDbLine
 10
257.1
 20
-32.0
 30
0.0
 11
257.1
 21
-69.0
 31
0.0
  0
INSERT
  5
13C
330
137
100
AcDbEntity
  8
COTA
 62
4
100
AcDbBlockReference
  2
_OBLIQUE
 10
197.0
 20
-66.0
 30
0.0
 41
3.0
 42
3.0
 50
180.0
  0
INSERT
  5
13E
330
137
100
AcDbEntity
  8
COTA
 62
4
100
AcDbBlockReference
  2
_OBLIQUE
 10
257.1
 20
-66.0
 30
0.0
 41
3.0
 42
3.0
  0
LINE
  5
140
330
137
100
AcDbEntity
  8
0
 62
4
100
AcDbLine
 10
197.0
 20
-66.0
 30
0.0
 11
257.1
 21
-66.0
 31
0.0
  0
MTEXT
  5
141
330
137
100
AcDbEntity
  8
COTA
 62
240
100
AcDbMText
 10
227.05
 20
-58.0
 30
0.0
 40
10.0
 71
5
  1
60,1
  0
POINT
  5
142
330
137
100
AcDbEntity
  8
Defpoints
100
AcDbPoint
 10
197.0
 20
-66.0
 30
0.0
  0
POINT
  5
143
330
137
100
AcDbEntity
  8
Defpoints
100
AcDbPoint
 10
197.0
 20
-29.0
 30
0.0
  0
POINT
  5
144
330
137
100
AcDbEntity
  8
Defpoints
100
AcDbPoint
 10
257.1
 20
-29.0
 30
0.0
  0
ENDBLK
  5
139
330
137
100
AcDbEntity
  8
0
100
AcDbBlockEnd
  0
BLOCK
  5
147
330
146
100
AcDbEntity
  8
0
100
AcDbBlockBegin
  2
*D8
 70
1
 10
0.0
 20
0.0
 30
0.0
  3
*D8
  1

  0
LINE
  5
149
330
146
100
AcDbEntity
  8
0
 62
4
100
AcDbLine
 10
257.1
 20
-32.0
 30
0.0
 11
257.1
 21
-69.0
 31
0.0
  0
LINE
  5
14A
330
146
100
AcDbEntity
  8
0
 62
4
100
AcDbLine
 10
430.1
 20
-32.0
 30
0.0
 11
430.1
 21
-69.0
 31
0.0
  0
INSERT
  5
14B
330
146
100
AcDbEntity
  8
COTA
 62
4
100
AcDbBlockReference
  2
_OBLIQUE
 10
257.1
 20
-66.0
 30
0.0
 41
3.0
 42
3.0
 50
180.0
  0
INSERT
  5
14D
330
146
100
AcDbEntity
  8
COTA
 62
4
100
AcDbBlockReference
  2
_OBLIQUE
 10
430.1
 20
-66.0
 30
0.0
 41
3.0
 42
3.0
  0
LINE
  5
14F
330
146
100
AcDbEntity
  8
0
 62
4
100
AcDbLine
 10
257.1
 20
-66.0
 30
0.0
 11
430.1
 21
-66.0
 31
0.0
  0
MTEXT
  5
150
330
146
100
AcDbEntity
  8
COTA
 62
240
100
AcDbMText
 10
343.6
 20
-58.0
 30
0.0
 40
10.0
 71
5
  1
173
  0
POINT
  5
151
330
146
100
AcDbEntity
  8
Defpoints
100
AcDbPoint
 10
257.1
 20
-66.0
 30
0.0
  0
POINT
  5
152
330
146
100
AcDbEntity
  8
Defpoints
100
AcDbPoint
 10
257.1
 20
-29.0
 30
0.0
  0
POINT
  5
153
330
146
100
AcDbEntity
  8
Defpoints
100
AcDbPoint
 10
430.1
 20
-29.0
 30
0.0
  0
ENDBLK
  5
148
330
146
100
AcDbEntity
  8
0
100
AcDbBlockEnd
  0
BLOCK
  5
156
330
155
100
AcDbEntity
  8
0
100
AcDbBlockBegin
  2
*D9
 70
1
 10
0.0
 20
0.0
 30
0.0
  3
*D9
  1

  0
LINE
  5
158
330
155
100
AcDbEntity
  8
0
 62
4
100
AcDbLine
 10
430.1
 20
-32.0
 30
0.0
 11
430.1
 21
-69.0
 31
0.0
  0
LINE
  5
159
330
155
100
AcDbEntity
  8
0
 62
4
100
AcDbLine
 10
674.5
 20
-32.0
 30
0.0
 11
674.5
 21
-69.0
 31
0.0
  0
INSERT
  5
15A
330
155
100
AcDbEntity
  8
COTA
 62
4
100
AcDbBlockReference
  2
_OBLIQUE
 10
430.1
 20
-66.0
 30
0.0
 41
3.0
 42
3.0
 50
180.0
  0
INSERT
  5
15C
330
155
100
AcDbEntity
  8
COTA
 62
4
100
AcDbBlockReference
  2
_OBLIQUE
 10
674.5
 20
-66.0
 30
0.0
 41
3.0
 42
3.0
  0
LINE
  5
15E
330
155
100
AcDbEntity
  8
0
 62
4
100
AcDbLine
 10
430.1
 20
-66.0
 30
0.0
 11
674.5
 21
-66.0
 31
0.0
  0
MTEXT
  5
15F
330
155
100
AcDbEntity
  8
COTA
 62
240
100
AcDbMText
 10
552.3
 20
-58.0
 30
0.0
 40
10.0
 71
5
  1
244,4
  0
POINT
  5
160
330
155
100
AcDbEntity
  8
Defpoints
100
AcDbPoint
 10
430.1
 20
-66.0
 30
0.0
  0
POINT
  5
161
330
155
100
AcDbEntity
  8
Defpoints
100
AcDbPoint
 10
430.1
 20
-29.0
 30
0.0
  0
POINT
  5
162
330
155
100
AcDbEntity
  8
Defpoints
100
AcDbPoint
 10
674.5
 20
-29.0
 30
0.0
  0
ENDBLK
  5
157
330
155
100
AcDbEntity
  8
0
100
AcDbBlockEnd
  0
BLOCK
  5
165
330
164
100
AcDbEntity
  8
0
100
AcDbBlockBegin
  2
*D10
 70
1
 10
0.0
 20
0.0
 30
0.0
  3
*D10
  1

  0
LINE
  5
167
330
164
100
AcDbEntity
  8
0
 62
4
100
AcDbLine
 10
674.5
 20
-32.0
 30
0.0
 11
674.5
 21
-69.0
 31
0.0
  0
LINE
  5
168
330
164
100
AcDbEntity
  8
0
 62
4
100
AcDbLine
 10
920.5
 20
-32.0
 30
0.0
 11
920.5
 21
-69.0
 31
0.0
  0
INSERT
  5
169
330
164
100
AcDbEntity
  8
COTA
 62
4
100
AcDbBlockReference
  2
_OBLIQUE
 10
674.5
 20
-66.0
 30
0.0
 41
3.0
 42
3.0
 50
180.0
  0
INSERT
  5
16B
330
164
100
AcDbEntity
  8
COTA
 62
4
100
AcDbBlockReference
  2
_OBLIQUE
 10
920.5
 20
-66.0
 30
0.0
 41
3.0
 42
3.0
  0
LINE
  5
16D
330
164
100
AcDbEntity
  8
0
 62
4
100
AcDbLine
 10
674.5
 20
-66.0
 30
0.0
 11
920.5
 21
-66.0
 31
0.0
  0
MTEXT
  5
16E
330
164
100
AcDbEntity
  8
COTA
 62
240
100
AcDbMText
 10
797.5
 20
-58.0
 30
0.0
 40
10.0
 71
5
  1
246
  0
POINT
  5
16F
330
164
100
AcDbEntity
  8
Defpoints
100
AcDbPoint
 10
674.5
 20
-66.0
 30
0.0
  0
POINT
  5
170
330
164
100
AcDbEntity
  8
Defpoints
100
AcDbPoint
 10
674.5
 20
-29.0
 30
0.0
  0
POINT
  5
171
330
164
100
AcDbEntity
  8
Defpoints
100
AcDbPoint
 10
920.5
 20
-29.0
 30
0.0
  0
ENDBLK
  5
166
330
164
100
AcDbEntity
  8
0
100
AcDbBlockEnd
  0
BLOCK
  5
174
330
173
100
AcDbEntity
  8
0
100
AcDbBlockBegin
  2
*D11
 70
1
 10
0.0
 20
0.0
 30
0.0
  3
*D11
  1

  0
LINE
  5
176
330
173
100
AcDbEntity
  8
0
 62
4
100
AcDbLine
 10
920.5
 20
-32.0
 30
0.0
 11
920.5
 21
-69.0
 31
0.0
  0
LINE
  5
177
330
173
100
AcDbEntity
  8
0
 62
4
100
AcDbLine
 10
1206.5
 20
-32.0
 30
0.0
 11
1206.5
 21
-69.0
 31
0.0
  0
INSERT
  5
178
330
173
100
AcDbEntity
  8
COTA
 62
4
100
AcDbBlockReference
  2
_OBLIQUE
 10
920.5
 20
-66.0
 30
0.0
 41
3.0
 42
3.0
 50
180.0
  0
INSERT
  5
17A
330
173
100
AcDbEntity
  8
COTA
 62
4
100
AcDbBlockReference
  2
_OBLIQUE
 10
1206.5
 20
-66.0
 30
0.0
 41
3.0
 42
3.0
  0
LINE
  5
17C
330
173
100
AcDbEntity
  8
0
 62
4
100
AcDbLine
 10
920.5
 20
-66.0
 30
0.0
 11
1206.5
 21
-66.0
 31
0.0
  0
MTEXT
  5
17D
330
173
100
AcDbEntity
  8
COTA
 62
240
100
AcDbMText
 10
1063.5
 20
-58.0
 30
0.0
 40
10.0
 71
5
  1
286
  0
POINT
  5
17E
330
173
100
AcDbEntity
  8
Defpoints
100
AcDbPoint
 10
920.5
 20
-66.0
 30
0.0
  0
POINT
  5
17F
330
173
100
AcDbEntity
  8
Defpoints
100
AcDbPoint
 10
920.5
 20
-29.0
 30
0.0
  0
POINT
  5
180
330
173
100
AcDbEntity
  8
Defpoints
100
AcDbPoint
 10
1206.5
 20
-29.0
 30
0.0
  0
ENDBLK
  5
175
330
173
100
AcDbEntity
  8
0
100
AcDbBlockEnd
  0
BLOCK
  5
183
330
182
100
AcDbEntity
  8
0
100
AcDbBlockBegin
  2
*D12
 70
1
 10
0.0
 20
0.0
 30
0.0
  3
*D12
  1

  0
LINE
  5
185
330
182
100
AcDbEntity
  8
0
 62
4
100
AcDbLine
 10
197.0
 20
-32.0
 30
0.0
 11
197.0
 21
-92.0
 31
0.0
  0
LINE
  5
186
330
182
100
AcDbEntity
  8
0
 62
4
100
AcDbLine
 10
1206.5
 20
-32.0
 30
0.0
 11
1206.5
 21
-92.0
 31
0.0
  0
INSERT
  5
187
330
182
100
AcDbEntity
  8
COTA
 62
4
100
AcDbBlockReference
  2
_OBLIQUE
 10
197.0
 20
-89.0
 30
0.0
 41
3.0
 42
3.0
 50
180.0
  0
INSERT
  5
189
330
182
100
AcDbEntity
  8
COTA
 62
4
100
AcDbBlockReference
  2
_OBLIQUE
 10
1206.5
 20
-89.0
 30
0.0
 41
3.0
 42
3.0
  0
LINE
  5
18B
330
182
100
AcDbEntity
  8
0
 62
4
100
AcDbLine
 10
197.0
 20
-89.0
 30
0.0
 11
1206.5
 21
-89.0
 31
0.0
  0
MTEXT
  5
18C
330
182
100
AcDbEntity
  8
COTA
 62
240
100
AcDbMText
 10
701.75
 20
-81.0
 30
0.0
 40
10.0
 71
5
  1
1009,5
  0
POINT
  5
18D
330
182
100
AcDbEntity
  8
Defpoints
100
AcDbPoint
 10
197.0
 20
-89.0
 30
0.0
  0
POINT
  5
18E
330
182
100
AcDbEntity
  8
Defpoints
100
AcDbPoint
 10
197.0
 20
-29.0
 30
0.0
  0
POINT
  5
18F
330
182
100
AcDbEntity
  8
Defpoints
100
AcDbPoint
 10
1206.5
 20
-29.0
 30
0.0
  0
ENDBLK
  5
184
330
182
100
AcDbEntity
  8
0
100
AcDbBlockEnd
  0
BLOCK
  5
192
330
191
100
AcDbEntity
  8
0
100
AcDbBlockBegin
  2
*D13
 70
1
 10
0.0
 20
0.0
 30
0.0
  3
*D13
  1

  0
LINE
  5
194
330
191
100
AcDbEntity
  8
0
 62
4
100
AcDbLine
 10
194.0
 20
-36.0
 30
0.0
 11
166.0
 21
-36.0
 31
0.0
  0
LINE
  5
195
330
191
100
AcDbEntity
  8
0
 62
4
100
AcDbLine
 10
194.0
 20
-29.0
 30
0.0
 11
166.0
 21
-29.0
 31
0.0
  0
INSERT
  5
196
330
191
100
AcDbEntity
  8
COTA
 62
4
100
AcDbBlockReference
  2
_OBLIQUE
 10
169.0
 20
-36.0
 30
0.0
 41
3.0
 42
3.0
 50
90.0
  0
INSERT
  5
198
330
191
100
AcDbEntity
  8
COTA
 62
4
100
AcDbBlockReference
  2
_OBLIQUE
 10
169.0
 20
-29.0
 30
0.0
 41
3.0
 42
3.0
 50
270.0
  0
LINE
  5
19A
330
191
100
AcDbEntity
  8
0
 62
4
100
AcDbLine
 10
169.0
 20
-36.0
 30
0.0
 11
169.0
 21
-29.0
 31
0.0
  0
MTEXT
  5
19B
330
191
100
AcDbEntity
  8
COTA
 62
240
100
AcDbMText
 10
158.0
 20
-32.5
 30
0.0
 40
10.0
 71
5
  1
7
 50
90.0
  0
POINT
  5
19C
330
191
100
AcDbEntity
  8
Defpoints
100
AcDbPoint
 10
169.0
 20
-36.0
 30
0.0
  0
POINT
  5
19D
330
191
100
AcDbEntity
  8
Defpoints
100
AcDbPoint
 10
197.0
 20
-36.0
 30
0.0
  0
POINT
  5
19E
330
191
100
AcDbEntity
  8
Defpoints
100
AcDbPoint
 10
197.0
 20
-29.0
 30
0.0
  0
ENDBLK
  5
193
330
191
100
AcDbEntity
  8
0
100
AcDbBlockEnd
  0
BLOCK
  5
1A1
330
1A0
100
AcDbEntity
  8
0
100
AcDbBlockBegin
  2
*D14
 70
1
 10
0.0
 20
0.0
 30
0.0
  3
*D14
  1

  0
LINE
  5
1A3
330
1A0
100
AcDbEntity
  8
0
 62
4
100
AcDbLine
 10
194.0
 20
-29.0
 30
0.0
 11
166.0
 21
-29.0
 31
0.0
  0
LINE
  5
1A4
330
1A0
100
AcDbEntity
  8
0
 62
4
100
AcDbLine
 10
194.0
 20
0.0
 30
0.0
 11
166.0
 21
0.0
 31
0.0
  0
INSERT
  5
1A5
330
1A0
100
AcDbEntity
  8
COTA
 62
4
100
AcDbBlockReference
  2
_OBLIQUE
 10
169.0
 20
-29.0
 30
0.0
 41
3.0
 42
3.0
 50
270.0
  0
INSERT
  5
1A7
330
1A0
100
AcDbEntity
  8
COTA
 62
4
100
AcDbBlockReference
  2
_OBLIQUE
 10
169.0
 20
0.0
 30
0.0
 41
3.0
 42
3.0
 50
90.0
  0
LINE
  5
1A9
330
1A0
100
AcDbEntity
  8
0
 62
4
100
AcDbLine
 10
169.0
 20
-29.0
 30
0.0
 11
169.0
 21
0.0
 31
0.0
  0
MTEXT
  5
1AA
330
1A0
100
AcDbEntity
  8
COTA
 62
240
100
AcDbMText
 10
161.0
 20
-14.5
 30
0.0
 40
10.0
 71
5
  1
29
 50
90.0
  0
POINT
  5
1AB
330
1A0
100
AcDbEntity
  8
Defpoints
100
AcDbPoint
 10
169.0
 20
-29.0
 30
0.0
  0
POINT
  5
1AC
330
1A0
100
AcDbEntity
  8
Defpoints
100
AcDbPoint
 10
197.0
 20
-29.0
 30
0.0
  0
POINT
  5
1AD
330
1A0
100
AcDbEntity
  8
Defpoints
100
AcDbPoint
 10
197.0
 20
0.0
 30
0.0
  0
ENDBLK
  5
1A2
330
1A0
100
AcDbEntity
  8
0
100
AcDbBlockEnd
  0
BLOCK
  5
1B0
330
1AF
100
AcDbEntity
  8
0
100
AcDbBlockBegin
  2
*D15
 70
1
 10
0.0
 20
0.0
 30
0.0
  3
*D15
  1

  0
LINE
  5
1B2
330
1AF
100
AcDbEntity
  8
0
 62
4
100
AcDbLine
 10
1209.5
 20
-36.0
 30
0.0
 11
1237.5
 21
-36.0
 31
0.0
  0
LINE
  5
1B3
330
1AF
100
AcDbEntity
  8
0
 62
4
100
AcDbLine
 10
1209.5
 20
0.0
 30
0.0
 11
1237.5
 21
0.0
 31
0.0
  0
INSERT
  5
1B4
330
1AF
100
AcDbEntity
  8
COTA
 62
4
100
AcDbBlockReference
  2
_OBLIQUE
 10
1234.5
 20
-36.0
 30
0.0
 41
3.0
 42
3.0
 50
270.0
  0
INSERT
  5
1B6
330
1AF
100
AcDbEntity
  8
COTA
 62
4
100
AcDbBlockReference
  2
_OBLIQUE
 10
1234.5
 20
0.0
 30
0.0
 41
3.0
 42
3.0
 50
90.0
  0
LINE
  5
1B8
330
1AF
100
AcDbEntity
  8
0
 62
4
100
AcDbLine
 10
1234.5
 20
-36.0
 30
0.0
 11
1234.5
 21
0.0
 31
0.0
  0
MTEXT
  5
1B9
330
1AF
100
AcDbEntity
  8
COTA
 62
240
100
AcDbMText
 10
1226.5
 20
-18.0
 30
0.0
 40
10.0
 71
5
  1
36
 50
90.0
  0
POINT
  5
1BA
330
1AF
100
AcDbEntity
  8
Defpoints
100
AcDbPoint
 10
1234.5
 20
-36.0
 30
0.0
  0
POINT
  5
1BB
330
1AF
100
AcDbEntity
  8
Defpoints
100
AcDbPoint
 10
1206.5
 20
-36.0
 30
0.0
  0
POINT
  5
1BC
330
1AF
100
AcDbEntity
  8
Defpoints
100
AcDbPoint
 10
1206.5
 20
0.0
 30
0.0
  0
ENDBLK
  5
1B1
330
1AF
100
AcDbEntity
  8
0
100
AcDbBlockEnd
  0
BLOCK
  5
1F4
330
1F3
100
AcDbEntity
  8
0
100
AcDbBlockBegin
  2
*D16
 70
1
 10
0.0
 20
0.0
 30
0.0
  3
*D16
  1

  0
LINE
  5
1F6
330
1F3
100
AcDbEntity
  8
0
 62
4
100
AcDbLine
 10
1256.5
 20
-18.0
 30
0.0
 11
1256.5
 21
-55.0
 31
0.0
  0
LINE
  5
1F7
330
1F3
100
AcDbEntity
  8
0
 62
4
100
AcDbLine
 10
1430.0
 20
-18.0
 30
0.0
 11
1430.0
 21
-55.0
 31
0.0
  0
INSERT
  5
1F8
330
1F3
100
AcDbEntity
  8
COTA
 62
4
100
AcDbBlockReference
  2
_OBLIQUE
 10
1256.5
 20
-52.0
 30
0.0
 41
3.0
 42
3.0
 50
180.0
  0
INSERT
  5
1FA
330
1F3
100
AcDbEntity
  8
COTA
 62
4
100
AcDbBlockReference
  2
_OBLIQUE
 10
1430.0
 20
-52.0
 30
0.0
 41
3.0
 42
3.0
  0
LINE
  5
1FC
330
1F3
100
AcDbEntity
  8
0
 62
4
100
AcDbLine
 10
1256.5
 20
-52.0
 30
0.0
 11
1430.0
 21
-52.0
 31
0.0
  0
MTEXT
  5
1FD
330
1F3
100
AcDbEntity
  8
COTA
 62
240
100
AcDbMText
 10
1343.25
 20
-44.0
 30
0.0
 40
10.0
 71
5
  1
173,5
  0
POINT
  5
1FE
330
1F3
100
AcDbEntity
  8
Defpoints
100
AcDbPoint
 10
1256.5
 20
-52.0
 30
0.0
  0
POINT
  5
1FF
330
1F3
100
AcDbEntity
  8
Defpoints
100
AcDbPoint
 10
1256.5
 20
-15.0
 30
0.0
  0
POINT
  5
200
330
1F3
100
AcDbEntity
  8
Defpoints
100
AcDbPoint
 10
1430.0
 20
-15.0
 30
0.0
  0
ENDBLK
  5
1F5
330
1F3
100
AcDbEntity
  8
0
100
AcDbBlockEnd
  0
BLOCK
  5
203
330
202
100
AcDbEntity
  8
0
100
AcDbBlockBegin
  2
*D17
 70
1
 10
0.0
 20
0.0
 30
0.0
  3
*D17
  1

  0
LINE
  5
205
330
202
100
AcDbEntity
  8
0
 62
4
100
AcDbLine
 10
1430.0
 20
-18.0
 30
0.0
 11
1430.0
 21
-55.0
 31
0.0
  0
LINE
  5
206
330
202
100
AcDbEntity
  8
0
 62
4
100
AcDbLine
 10
1674.0
 20
-18.0
 30
0.0
 11
1674.0
 21
-55.0
 31
0.0
  0
INSERT
  5
207
330
202
100
AcDbEntity
  8
COTA
 62
4
100
AcDbBlockReference
  2
_OBLIQUE
 10
1430.0
 20
-52.0
 30
0.0
 41
3.0
 42
3.0
 50
180.0
  0
INSERT
  5
209
330
202
100
AcDbEntity
  8
COTA
 62
4
100
AcDbBlockReference
  2
_OBLIQUE
 10
1674.0
 20
-52.0
 30
0.0
 41
3.0
 42
3.0
  0
LINE
  5
20B
330
202
100
AcDbEntity
  8
0
 62
4
100
AcDbLine
 10
1430.0
 20
-52.0
 30
0.0
 11
1674.0
 21
-52.0
 31
0.0
  0
MTEXT
  5
20C
330
202
100
AcDbEntity
  8
COTA
 62
240
100
AcDbMText
 10
1552.0
 20
-44.0
 30
0.0
 40
10.0
 71
5
  1
244
  0
POINT
  5
20D
330
202
100
AcDbEntity
  8
Defpoints
100
AcDbPoint
 10
1430.0
 20
-52.0
 30
0.0
  0
POINT
  5
20E
330
202
100
AcDbEntity
  8
Defpoints
100
AcDbPoint
 10
1430.0
 20
-15.0
 30
0.0
  0
POINT
  5
20F
330
202
100
AcDbEntity
  8
Defpoints
100
AcDbPoint
 10
1674.0
 20
-15.0
 30
0.0
  0
ENDBLK
  5
204
330
202
100
AcDbEntity
  8
0
100
AcDbBlockEnd
  0
BLOCK
  5
212
330
211
100
AcDbEntity
  8
0
100
AcDbBlockBegin
  2
*D18
 70
1
 10
0.0
 20
0.0
 30
0.0
  3
*D18
  1

  0
LINE
  5
214
330
211
100
AcDbEntity
  8
0
 62
4
100
AcDbLine
 10
1674.0
 20
-18.0
 30
0.0
 11
1674.0
 21
-55.0
 31
0.0
  0
LINE
  5
215
330
211
100
AcDbEntity
  8
0
 62
4
100
AcDbLine
 10
1920.0
 20
-18.0
 30
0.0
 11
1920.0
 21
-55.0
 31
0.0
  0
INSERT
  5
216
330
211
100
AcDbEntity
  8
COTA
 62
4
100
AcDbBlockReference
  2
_OBLIQUE
 10
1674.0
 20
-52.0
 30
0.0
 41
3.0
 42
3.0
 50
180.0
  0
INSERT
  5
218
330
211
100
AcDbEntity
  8
COTA
 62
4
100
AcDbBlockReference
  2
_OBLIQUE
 10
1920.0
 20
-52.0
 30
0.0
 41
3.0
 42
3.0
  0
LINE
  5
21A
330
211
100
AcDbEntity
  8
0
 62
4
100
AcDbLine
 10
1674.0
 20
-52.0
 30
0.0
 11
1920.0
 21
-52.0
 31
0.0
  0
MTEXT
  5
21B
330
211
100
AcDbEntity
  8
COTA
 62
240
100
AcDbMText
 10
1797.0
 20
-44.0
 30
0.0
 40
10.0
 71
5
  1
246
  0
POINT
  5
21C
330
211
100
AcDbEntity
  8
Defpoints
100
AcDbPoint
 10
1674.0
 20
-52.0
 30
0.0
  0
POINT
  5
21D
330
211
100
AcDbEntity
  8
Defpoints
100
AcDbPoint
 10
1674.0
 20
-15.0
 30
0.0
  0
POINT
  5
21E
330
211
100
AcDbEntity
  8
Defpoints
100
AcDbPoint
 10
1920.0
 20
-15.0
 30
0.0
  0
ENDBLK
  5
213
330
211
100
AcDbEntity
  8
0
100
AcDbBlockEnd
  0
BLOCK
  5
221
330
220
100
AcDbEntity
  8
0
100
AcDbBlockBegin
  2
*D19
 70
1
 10
0.0
 20
0.0
 30
0.0
  3
*D19
  1

  0
LINE
  5
223
330
220
100
AcDbEntity
  8
0
 62
4
100
AcDbLine
 10
1256.5
 20
-18.0
 30
0.0
 11
1256.5
 21
-78.0
 31
0.0
  0
LINE
  5
224
330
220
100
AcDbEntity
  8
0
 62
4
100
AcDbLine
 10
1920.0
 20
-18.0
 30
0.0
 11
1920.0
 21
-78.0
 31
0.0
  0
INSERT
  5
225
330
220
100
AcDbEntity
  8
COTA
 62
4
100
AcDbBlockReference
  2
_OBLIQUE
 10
1256.5
 20
-75.0
 30
0.0
 41
3.0
 42
3.0
 50
180.0
  0
INSERT
  5
227
330
220
100
AcDbEntity
  8
COTA
 62
4
100
AcDbBlockReference
  2
_OBLIQUE
 10
1920.0
 20
-75.0
 30
0.0
 41
3.0
 42
3.0
  0
LINE
  5
229
330
220
100
AcDbEntity
  8
0
 62
4
100
AcDbLine
 10
1256.5
 20
-75.0
 30
0.0
 11
1920.0
 21
-75.0
 31
0.0
  0
MTEXT
  5
22A
330
220
100
AcDbEntity
  8
COTA
 62
240
100
AcDbMText
 10
1588.25
 20
-67.0
 30
0.0
 40
10.0
 71
5
  1
663,5
  0
POINT
  5
22B
330
220
100
AcDbEntity
  8
Defpoints
100
AcDbPoint
 10
1256.5
 20
-75.0
 30
0.0
  0
POINT
  5
22C
330
220
100
AcDbEntity
  8
Defpoints
100
AcDbPoint
 10
1256.5
 20
-15.0
 30
0.0
  0
POINT
  5
22D
330
220
100
AcDbEntity
  8
Defpoints
100
AcDbPoint
 10
1920.0
 20
-15.0
 30
0.0
  0
ENDBLK
  5
222
330
220
100
AcDbEntity
  8
0
100
AcDbBlockEnd
  0
BLOCK
  5
230
330
22F
100
AcDbEntity
  8
0
100
AcDbBlockBegin
  2
*D20
 70
1
 10
0.0
 20
0.0
 30
0.0
  3
*D20
  1

  0
LINE
  5
232
330
22F
100
AcDbEntity
  8
0
 62
4
100
AcDbLine
 10
1253.5
 20
-22.0
 30
0.0
 11
1225.5
 21
-22.0
 31
0.0
  0
LINE
  5
233
330
22F
100
AcDbEntity
  8
0
 62
4
100
AcDbLine
 10
1253.5
 20
-15.0
 30
0.0
 11
1225.5
 21
-15.0
 31
0.0
  0
INSERT
  5
234
330
22F
100
AcDbEntity
  8
COTA
 62
4
100
AcDbBlockReference
  2
_OBLIQUE
 10
1228.5
 20
-22.0
 30
0.0
 41
3.0
 42
3.0
 50
90.0
  0
INSERT
  5
236
330
22F
100
AcDbEntity
  8
COTA
 62
4
100
AcDbBlockReference
  2
_OBLIQUE
 10
1228.5
 20
-15.0
 30
0.0
 41
3.0
 42
3.0
 50
270.0
  0
LINE
  5
238
330
22F
100
AcDbEntity
  8
0
 62
4
100
AcDbLine
 10
1228.5
 20
-22.0
 30
0.0
 11
1228.5
 21
-15.0
 31
0.0
  0
MTEXT
  5
239
330
22F
100
AcDbEntity
  8
COTA
 62
240
100
AcDbMText
 10
1217.5
 20
-18.5
 30
0.0
 40
10.0
 71
5
  1
7
 50
90.0
  0
POINT
  5
23A
330
22F
100
AcDbEntity
  8
Defpoints
100
AcDbPoint
 10
1228.5
 20
-22.0
 30
0.0
  0
POINT
  5
23B
330
22F
100
AcDbEntity
  8
Defpoints
100
AcDbPoint
 10
1256.5
 20
-22.0
 30
0.0
  0
POINT
  5
23C
330
22F
100
AcDbEntity
  8
Defpoints
100
AcDbPoint
 10
1256.5
 20
-15.0
 30
0.0
  0
ENDBLK
  5
231
330
22F
100
AcDbEntity
  8
0
100
AcDbBlockEnd
  0
BLOCK
  5
23F
330
23E
100
AcDbEntity
  8
0
100
AcDbBlockBegin
  2
*D21
 70
1
 10
0.0
 20
0.0
 30
0.0
  3
*D21
  1

  0
LINE
  5
241
330
23E
100
AcDbEntity
  8
0
 62
4
100
AcDbLine
 10
1253.5
 20
-15.0
 30
0.0
 11
1225.5
 21
-15.0
 31
0.0
  0
LINE
  5
242
330
23E
100
AcDbEntity
  8
0
 62
4
100
AcDbLine
 10
1253.5
 20
0.0
 30
0.0
 11
1225.5
 21
0.0
 31
0.0
  0
INSERT
  5
243
330
23E
100
AcDbEntity
  8
COTA
 62
4
100
AcDbBlockReference
  2
_OBLIQUE
 10
1228.5
 20
-15.0
 30
0.0
 41
3.0
 42
3.0
 50
270.0
  0
INSERT
  5
245
330
23E
100
AcDbEntity
  8
COTA
 62
4
100
AcDbBlockReference
  2
_OBLIQUE
 10
1228.5
 20
0.0
 30
0.0
 41
3.0
 42
3.0
 50
90.0
  0
LINE
  5
247
330
23E
100
AcDbEntity
  8
0
 62
4
100
AcDbLine
 10
1228.5
 20
-15.0
 30
0.0
 11
1228.5
 21
0.0
 31
0.0
  0
MTEXT
  5
248
330
23E
100
AcDbEntity
  8
COTA
 62
240
100
AcDbMText
 10
1217.5
 20
-7.5
 30
0.0
 40
10.0
 71
5
  1
15
 50
90.0
  0
POINT
  5
249
330
23E
100
AcDbEntity
  8
Defpoints
100
AcDbPoint
 10
1228.5
 20
-15.0
 30
0.0
  0
POINT
  5
24A
330
23E
100
AcDbEntity
  8
Defpoints
100
AcDbPoint
 10
1256.5
 20
-15.0
 30
0.0
  0
POINT
  5
24B
330
23E
100
AcDbEntity
  8
Defpoints
100
AcDbPoint
 10
1256.5
 20
0.0
 30
0.0
  0
ENDBLK
  5
240
330
23E
100
AcDbEntity
  8
0
100
AcDbBlockEnd
  0
BLOCK
  5
24E
330
24D
100
AcDbEntity
  8
0
100
AcDbBlockBegin
  2
*D22
 70
1
 10
0.0
 20
0.0
 30
0.0
  3
*D22
  1

  0
LINE
  5
250
330
24D
100
AcDbEntity
  8
0
 62
4
100
AcDbLine
 10
1923.0
 20
-22.0
 30
0.0
 11
1951.0
 21
-22.0
 31
0.0
  0
LINE
  5
251
330
24D
100
AcDbEntity
  8
0
 62
4
100
AcDbLine
 10
1923.0
 20
0.0
 30
0.0
 11
1951.0
 21
0.0
 31
0.0
  0
INSERT
  5
252
330
24D
100
AcDbEntity
  8
COTA
 62
4
100
AcDbBlockReference
  2
_OBLIQUE
 10
1948.0
 20
-22.0
 30
0.0
 41
3.0
 42
3.0
 50
270.0
  0
INSERT
  5
254
330
24D
100
AcDbEntity
  8
COTA
 62
4
100
AcDbBlockReference
  2
_OBLIQUE
 10
1948.0
 20
0.0
 30
0.0
 41
3.0
 42
3.0
 50
90.0
  0
LINE
  5
256
330
24D
100
AcDbEntity
  8
0
 62
4
100
AcDbLine
 10
1948.0
 20
-22.0
 30
0.0
 11
1948.0
 21
0.0
 31
0.0
  0
MTEXT
  5
257
330
24D
100
AcDbEntity
  8
COTA
 62
240
100
AcDbMText
 10
1940.0
 20
-11.0
 30
0.0
 40
10.0
 71
5
  1
22
 50
90.0
  0
POINT
  5
258
330
24D
100
AcDbEntity
  8
Defpoints
100
AcDbPoint
 10
1948.0
 20
-22.0
 30
0.0
  0
POINT
  5
259
330
24D
100
AcDbEntity
  8
Defpoints
100
AcDbPoint
 10
1920.0
 20
-22.0
 30
0.0
  0
POINT
  5
25A
330
24D
100
AcDbEntity
  8
Defpoints
100
AcDbPoint
 10
1920.0
 20
0.0
 30
0.0
  0
ENDBLK
  5
24F
330
24D
100
AcDbEntity
  8
0
100
AcDbBlockEnd
  0
ENDSEC
  0
SECTION
  2
ENTITIES
  0
LWPOLYLINE
  5
4F
330
17
100
AcDbEntity
  8
barrote
100
AcDbPolyline
 90
4
 70
1
 10
-25.5
 20
-49.0
 10
133.5
 20
-49.0
 10
133.5
 20
-29.0
 10
-25.5
 20
-29.0
  0
LWPOLYLINE
  5
50
330
17
100
AcDbEntity
  8
SCO-___-LAJ
100
AcDbPolyline
 90
4
 70
1
 10
-6.5
 20
-32.2
 10
124.5
 20
-32.2
 10
124.5
 20
-29.0
 10
-6.5
 20
-29.0
  0
LWPOLYLINE
  5
51
330
17
100
AcDbEntity
  8
Madeira
100
AcDbPolyline
 90
4
 70
1
 10
22.0
 20
-29.0
 10
36.0
 20
-29.0
 10
36.0
 20
4.0
 10
22.0
 20
4.0
  0
LWPOLYLINE
  5
52
330
17
100
AcDbEntity
  8
Madeira
100
AcDbPolyline
 90
4
 70
1
 10
82.0
 20
-29.0
 10
96.0
 20
-29.0
 10
96.0
 20
-24.0
 10
82.0
 20
-24.0
  0
LWPOLYLINE
  5
53
330
17
100
AcDbEntity
  8
Madeira
100
AcDbPolyline
 90
4
 70
1
 10
2.0
 20
-29.0
 10
22.0
 20
-29.0
 10
22.0
 20
-24.6
 10
2.0
 20
-24.6
  0
LWPOLYLINE
  5
54
330
17
100
AcDbEntity
  8
Madeira
100
AcDbPolyline
 90
4
 70
1
 10
96.0
 20
-29.0
 10
116.0
 20
-29.0
 10
116.0
 20
-24.6
 10
96.0
 20
-24.6
  0
LWPOLYLINE
  5
55
330
17
100
AcDbEntity
  8
Madeira
100
AcDbPolyline
 90
4
 70
1
 10
22.0
 20
-29.0
 10
36.0
 20
-29.0
 10
36.0
 20
-24.6
 10
22.0
 20
-24.6
  0
LWPOLYLINE
  5
56
330
17
100
AcDbEntity
  8
Madeira
100
AcDbPolyline
 90
4
 70
1
 10
22.0
 20
-0.40000000000000036
 10
36.0
 20
-0.40000000000000036
 10
36.0
 20
4.0
 10
22.0
 20
4.0
  0
LWPOLYLINE
  5
57
330
17
100
AcDbEntity
  8
Madeira
100
AcDbPolyline
 90
4
 70
1
 10
82.0
 20
-28.4
 10
96.0
 20
-28.4
 10
96.0
 20
-24.0
 10
82.0
 20
-24.0
  0
LWPOLYLINE
  5
58
330
17
100
AcDbEntity
  8
Madeira
100
AcDbPolyline
 90
4
 70
1
 10
40.0
 20
-29.0
 10
50.0
 20
-29.0
 10
50.0
 20
-24.6
 10
40.0
 20
-24.6
  0
LWPOLYLINE
  5
59
330
17
100
AcDbEntity
  8
Madeira
100
AcDbPolyline
 90
4
 70
1
 10
68.0
 20
-29.0
 10
78.0
 20
-29.0
 10
78.0
 20
-24.6
 10
68.0
 20
-24.6
  0
LWPOLYLINE
  5
5A
330
17
100
AcDbEntity
  8
Painéis
100
AcDbPolyline
 90
4
 70
1
 10
36.0
 20
-29.0
 10
40.0
 20
-29.0
 10
40.0
 20
4.0
 10
36.0
 20
4.0
  0
LWPOLYLINE
  5
5B
330
17
100
AcDbEntity
  8
Painéis
100
AcDbPolyline
 90
4
 70
1
 10
78.0
 20
-29.0
 10
82.0
 20
-29.0
 10
82.0
 20
-24.0
 10
78.0
 20
-24.0
  0
LWPOLYLINE
  5
5C
330
17
100
AcDbEntity
  8
Painéis
100
AcDbPolyline
 90
4
 70
1
 10
78.0
 20
-24.0
 10
97.0
 20
-24.0
 10
97.0
 20
-20.0
 10
78.0
 20
-20.0
  0
LWPOLYLINE
  5
5D
330
17
100
AcDbEntity
  8
Painéis
100
AcDbPolyline
 90
4
 70
1
 10
40.0
 20
-24.6
 10
78.0
 20
-24.6
 10
78.0
 20
-21.0
 10
40.0
 20
-21.0
  0
LWPOLYLINE
  5
5E
330
17
100
AcDbEntity
  8
CONCRETO
100
AcDbPolyline
 90
6
 70
1
 10
40.0
 20
-21.0
 10
40.0
 20
4.0
 10
97.0
 20
4.0
 10
97.0
 20
-20.0
 10
78.0
 20
-20.0
 10
78.0
 20
-21.0
  0
HATCH
  5
5F
330
17
100
AcDbEntity
  8
COTA
 62
7
100
AcDbHatch
 10
0.0
 20
0.0
 30
0.0
210
0.0
220
0.0
230
1.0
  2
ANSI31
 70
0
 71
0
 91
1
 92
3
 72
0
 73
1
 93
6
 10
40.0
 20
-21.0
 10
40.0
 20
4.0
 10
97.0
 20
4.0
 10
97.0
 20
-20.0
 10
78.0
 20
-20.0
 10
78.0
 20
-21.0
 97
0
 75
1
 76
1
 52
0.0
 41
0.4
 77
0
 78
1
 53
45.0
 43
0.0
 44
0.0
 45
-0.8980256121
 46
0.8980256121
 79
0
 98
0
  0
LINE
  5
60
330
17
100
AcDbEntity
  8
TENSOR
100
AcDbLine
 10
-3.0
 20
21.0
 30
0.0
 11
95.0
 21
21.0
 31
0.0
  0
LINE
  5
61
330
17
100
AcDbEntity
  8
0
100
AcDbLine
 10
2.0
 20
27.0
 30
0.0
 11
32.0
 21
27.0
 31
0.0
  0
LINE
  5
62
330
17
100
AcDbEntity
  8
0
100
AcDbLine
 10
2.0
 20
15.0
 30
0.0
 11
32.0
 21
15.0
 31
0.0
  0
LINE
  5
63
330
17
100
AcDbEntity
  8
0
100
AcDbLine
 10
2.0
 20
27.0
 30
0.0
 11
2.0
 21
15.0
 31
0.0
  0
LINE
  5
64
330
17
100
AcDbEntity
  8
0
100
AcDbLine
 10
2.0
 20
20.0
 30
0.0
 11
32.0
 21
20.0
 31
0.0
  0
LINE
  5
65
330
17
100
AcDbEntity
  8
0
100
AcDbLine
 10
2.0
 20
22.0
 30
0.0
 11
32.0
 21
22.0
 31
0.0
  0
LINE
  5
66
330
17
100
AcDbEntity
  8
0
100
AcDbLine
 10
2.0
 20
18.0
 30
0.0
 11
0.0
 21
18.0
 31
0.0
  0
LINE
  5
67
330
17
100
AcDbEntity
  8
0
100
AcDbLine
 10
0.0
 20
24.0
 30
0.0
 11
0.0
 21
18.0
 31
0.0
  0
LINE
  5
68
330
17
100
AcDbEntity
  8
0
100
AcDbLine
 10
2.0
 20
24.0
 30
0.0
 11
0.0
 21
24.0
 31
0.0
  0
LINE
  5
69
330
17
100
AcDbEntity
  8
0
100
AcDbLine
 10
96.0
 20
27.0
 30
0.0
 11
126.0
 21
27.0
 31
0.0
  0
LINE
  5
6A
330
17
100
AcDbEntity
  8
0
100
AcDbLine
 10
96.0
 20
15.0
 30
0.0
 11
126.0
 21
15.0
 31
0.0
  0
LINE
  5
6B
330
17
100
AcDbEntity
  8
0
100
AcDbLine
 10
126.0
 20
27.0
 30
0.0
 11
126.0
 21
15.0
 31
0.0
  0
LINE
  5
6C
330
17
100
AcDbEntity
  8
0
100
AcDbLine
 10
96.0
 20
20.0
 30
0.0
 11
126.0
 21
20.0
 31
0.0
  0
LINE
  5
6D
330
17
100
AcDbEntity
  8
0
100
AcDbLine
 10
96.0
 20
22.0
 30
0.0
 11
126.0
 21
22.0
 31
0.0
  0
LINE
  5
6E
330
17
100
AcDbEntity
  8
0
100
AcDbLine
 10
126.0
 20
18.0
 30
0.0
 11
128.0
 21
18.0
 31
0.0
  0
LINE
  5
6F
330
17
100
AcDbEntity
  8
0
100
AcDbLine
 10
128.0
 20
24.0
 30
0.0
 11
128.0
 21
18.0
 31
0.0
  0
LINE
  5
70
330
17
100
AcDbEntity
  8
0
100
AcDbLine
 10
126.0
 20
24.0
 30
0.0
 11
128.0
 21
24.0
 31
0.0
  0
LINE
  5
71
330
17
100
AcDbEntity
  8
presilha
100
AcDbLine
 10
-16.0
 20
-42.0
 30
0.0
 11
-6.0
 21
-32.0
 31
0.0
  0
LINE
  5
72
330
17
100
AcDbEntity
  8
presilha
100
AcDbLine
 10
-16.0
 20
-32.0
 30
0.0
 11
-6.0
 21
-42.0
 31
0.0
  0
LINE
  5
73
330
17
100
AcDbEntity
  8
presilha
100
AcDbLine
 10
124.0
 20
-42.0
 30
0.0
 11
134.0
 21
-32.0
 31
0.0
  0
LINE
  5
74
330
17
100
AcDbEntity
  8
presilha
100
AcDbLine
 10
124.0
 20
-32.0
 30
0.0
 11
134.0
 21
-42.0
 31
0.0
  0
HATCH
  5
75
330
17
100
AcDbEntity
  8
Hachura
 62
7
100
AcDbHatch
 10
0.0
 20
0.0
 30
0.0
210
0.0
220
0.0
230
1.0
  2
ANSI31
 70
0
 71
0
 91
1
 92
3
 72
0
 73
1
 93
4
 10
22.0
 20
-29.0
 10
36.0
 20
-29.0
 10
36.0
 20
4.0
 10
22.0
 20
4.0
 97
0
 75
1
 76
1
 52
0.0
 41
0.5
 77
0
 78
1
 53
45.0
 43
0.0
 44
0.0
 45
-1.1225320152
 46
1.1225320152
 79
0
 98
0
  0
HATCH
  5
76
330
17
100
AcDbEntity
  8
Hachura
 62
7
100
AcDbHatch
 10
0.0
 20
0.0
 30
0.0
210
0.0
220
0.0
230
1.0
  2
ANSI31
 70
0
 71
0
 91
1
 92
3
 72
0
 73
1
 93
4
 10
82.0
 20
-29.0
 10
96.0
 20
-29.0
 10
96.0
 20
-24.0
 10
82.0
 20
-24.0
 97
0
 75
1
 76
1
 52
0.0
 41
0.5
 77
0
 78
1
 53
45.0
 43
0.0
 44
0.0
 45
-1.1225320152
 46
1.1225320152
 79
0
 98
0
  0
HATCH
  5
77
330
17
100
AcDbEntity
  8
Hachura
 62
7
100
AcDbHatch
 10
0.0
 20
0.0
 30
0.0
210
0.0
220
0.0
230
1.0
  2
ANSI31
 70
0
 71
0
 91
1
 92
3
 72
0
 73
1
 93
4
 10
2.0
 20
-29.0
 10
22.0
 20
-29.0
 10
22.0
 20
-24.6
 10
2.0
 20
-24.6
 97
0
 75
1
 76
1
 52
0.0
 41
0.5
 77
0
 78
1
 53
45.0
 43
0.0
 44
0.0
 45
-1.1225320152
 46
1.1225320152
 79
0
 98
0
  0
HATCH
  5
78
330
17
100
AcDbEntity
  8
Hachura
 62
7
100
AcDbHatch
 10
0.0
 20
0.0
 30
0.0
210
0.0
220
0.0
230
1.0
  2
ANSI31
 70
0
 71
0
 91
1
 92
3
 72
0
 73
1
 93
4
 10
96.0
 20
-29.0
 10
116.0
 20
-29.0
 10
116.0
 20
-24.6
 10
96.0
 20
-24.6
 97
0
 75
1
 76
1
 52
0.0
 41
0.5
 77
0
 78
1
 53
45.0
 43
0.0
 44
0.0
 45
-1.1225320152
 46
1.1225320152
 79
0
 98
0
  0
HATCH
  5
79
330
17
100
AcDbEntity
  8
Hachura
 62
7
100
AcDbHatch
 10
0.0
 20
0.0
 30
0.0
210
0.0
220
0.0
230
1.0
  2
ANSI31
 70
0
 71
0
 91
1
 92
3
 72
0
 73
1
 93
4
 10
22.0
 20
-0.40000000000000036
 10
36.0
 20
-0.40000000000000036
 10
36.0
 20
4.0
 10
22.0
 20
4.0
 97
0
 75
1
 76
1
 52
0.0
 41
0.5
 77
0
 78
1
 53
45.0
 43
0.0
 44
0.0
 45
-1.1225320152
 46
1.1225320152
 79
0
 98
0
  0
HATCH
  5
7A
330
17
100
AcDbEntity
  8
Hachura
 62
7
100
AcDbHatch
 10
0.0
 20
0.0
 30
0.0
210
0.0
220
0.0
230
1.0
  2
ANSI31
 70
0
 71
0
 91
1
 92
3
 72
0
 73
1
 93
4
 10
82.0
 20
-28.4
 10
96.0
 20
-28.4
 10
96.0
 20
-24.0
 10
82.0
 20
-24.0
 97
0
 75
1
 76
1
 52
0.0
 41
0.5
 77
0
 78
1
 53
45.0
 43
0.0
 44
0.0
 45
-1.1225320152
 46
1.1225320152
 79
0
 98
0
  0
HATCH
  5
7B
330
17
100
AcDbEntity
  8
Hachura
 62
7
100
AcDbHatch
 10
0.0
 20
0.0
 30
0.0
210
0.0
220
0.0
230
1.0
  2
ANSI31
 70
0
 71
0
 91
1
 92
3
 72
0
 73
1
 93
4
 10
40.0
 20
-29.0
 10
50.0
 20
-29.0
 10
50.0
 20
-24.6
 10
40.0
 20
-24.6
 97
0
 75
1
 76
1
 52
0.0
 41
0.5
 77
0
 78
1
 53
45.0
 43
0.0
 44
0.0
 45
-1.1225320152
 46
1.1225320152
 79
0
 98
0
  0
HATCH
  5
7C
330
17
100
AcDbEntity
  8
Hachura
 62
7
100
AcDbHatch
 10
0.0
 20
0.0
 30
0.0
210
0.0
220
0.0
230
1.0
  2
SOLID
 70
0
 71
0
 91
1
 92
3
 72
0
 73
1
 93
4
 10
36.0
 20
-29.0
 10
40.0
 20
-29.0
 10
40.0
 20
4.0
 10
36.0
 20
4.0
 97
0
 75
1
 76
1
 52
0.0
 41
1.0
 77
0
 78
1
 53
45.0
 43
0.0
 44
0.0
 45
-0.0883883476
 46
0.0883883476
 79
0
 98
0
  0
HATCH
  5
7D
330
17
100
AcDbEntity
  8
Hachura
 62
7
100
AcDbHatch
 10
0.0
 20
0.0
 30
0.0
210
0.0
220
0.0
230
1.0
  2
SOLID
 70
0
 71
0
 91
1
 92
3
 72
0
 73
1
 93
4
 10
78.0
 20
-29.0
 10
82.0
 20
-29.0
 10
82.0
 20
-24.0
 10
78.0
 20
-24.0
 97
0
 75
1
 76
1
 52
0.0
 41
1.0
 77
0
 78
1
 53
45.0
 43
0.0
 44
0.0
 45
-0.0883883476
 46
0.0883883476
 79
0
 98
0
  0
HATCH
  5
7E
330
17
100
AcDbEntity
  8
Hachura
 62
7
100
AcDbHatch
 10
0.0
 20
0.0
 30
0.0
210
0.0
220
0.0
230
1.0
  2
SOLID
 70
0
 71
0
 91
1
 92
3
 72
0
 73
1
 93
4
 10
78.0
 20
-24.0
 10
97.0
 20
-24.0
 10
97.0
 20
-20.0
 10
78.0
 20
-20.0
 97
0
 75
1
 76
1
 52
0.0
 41
1.0
 77
0
 78
1
 53
45.0
 43
0.0
 44
0.0
 45
-0.0883883476
 46
0.0883883476
 79
0
 98
0
  0
HATCH
  5
7F
330
17
100
AcDbEntity
  8
Hachura
 62
7
100
AcDbHatch
 10
0.0
 20
0.0
 30
0.0
210
0.0
220
0.0
230
1.0
  2
SOLID
 70
0
 71
0
 91
1
 92
3
 72
0
 73
1
 93
4
 10
40.0
 20
-24.6
 10
78.0
 20
-24.6
 10
78.0
 20
-21.0
 10
40.0
 20
-21.0
 97
0
 75
1
 76
1
 52
0.0
 41
1.0
 77
0
 78
1
 53
45.0
 43
0.0
 44
0.0
 45
-0.0883883476
 46
0.0883883476
 79
0
 98
0
  0
TEXT
  5
80
330
17
100
AcDbEntity
  8
detalhes
100
AcDbText
 10
25.0
 20
-1.6999999999999993
 30
0.0
 40
9.6
  1
a
100
AcDbText
  0
TEXT
  5
81
330
17
100
AcDbEntity
  8
detalhes
100
AcDbText
 10
85.0
 20
-1.6999999999999993
 30
0.0
 40
9.6
  1
b
100
AcDbText
  0
TEXT
  5
82
330
17
100
AcDbEntity
  8
detalhes
100
AcDbText
 10
50.0
 20
-18.5
 30
0.0
 40
9.6
  1
c
100
AcDbText
  0
TEXT
  5
83
330
17
100
AcDbEntity
  8
Texto Seção
100
AcDbText
 10
69.0
 20
4.0
 30
0.0
 40
13.0
  1
V1.A
100
AcDbText
  0
TEXT
  5
84
330
17
100
AcDbEntity
  8
Texto Seção
100
AcDbText
 10
44.0
 20
20.0
 30
0.0
 40
10.0
  1
V1 (19x25)
100
AcDbText
  0
DIMENSION
  5
85
330
17
100
AcDbEntity
  8
COTA
100
AcDbDimension
280
0
  2
*D1
  3
PAINEL
 10
-54.0
 20
-29.0
 30
0.0
 11
-62.0
 21
-12.5
 31
0.0
 70
32
 71
5
  1
<>
100
AcDbAlignedDimension
 13
2.0
 23
-29.0
 33
0.0
 14
22.0
 24
4.0
 34
0.0
 50
90.0
100
AcDbRotatedDimension
  0
DIMENSION
  5
94
330
17
100
AcDbEntity
  8
Cota Seção (2x)
100
AcDbDimension
280
0
  2
*D2
  3
SECAO2X
 10
72.0
 20
-21.0
 30
0.0
 11
58.0
 21
-8.5
 31
0.0
 70
32
 71
5
  1
<>
100
AcDbAlignedDimension
 13
40.0
 23
-21.0
 33
0.0
 14
40.0
 24
4.0
 34
0.0
 50
90.0
100
AcDbRotatedDimension
  0
DIMENSION
  5
A3
330
17
100
AcDbEntity
  8
COTA
100
AcDbDimension
280
0
  2
*D3
  3
PAINEL
 10
100.0
 20
-29.0
 30
0.0
 11
92.0
 21
-4.0
 31
0.0
 70
32
 71
5
  1
<>
100
AcDbAlignedDimension
 13
96.0
 23
-29.0
 33
0.0
 14
96.0
 24
21.0
 34
0.0
 50
90.0
100
AcDbRotatedDimension
  0
DIMENSION
  5
B2
330
17
100
AcDbEntity
  8
COTA
100
AcDbDimension
280
0
  2
*D4
  3
PAINEL
 10
140.0
 20
-29.0
 30
0.0
 11
129.0
 21
-26.5
 31
0.0
 70
32
 71
5
  1
<>
100
AcDbAlignedDimension
 13
96.0
 23
-29.0
 33
0.0
 14
96.0
 24
-24.0
 34
0.0
 50
90.0
100
AcDbRotatedDimension
  0
DIMENSION
  5
C1
330
17
100
AcDbEntity
  8
COTA
100
AcDbDimension
280
0
  2
*D5
  3
PAINEL
 10
140.0
 20
-20.0
 30
0.0
 11
132.0
 21
-8.0
 31
0.0
 70
32
 71
5
  1
<>
100
AcDbAlignedDimension
 13
97.0
 23
-20.0
 33
0.0
 14
97.0
 24
4.0
 34
0.0
 50
90.0
100
AcDbRotatedDimension
  0
DIMENSION
  5
D0
330
17
100
AcDbEntity
  8
COTA
100
AcDbDimension
280
0
  2
*D6
  3
PAINEL
 10
40.0
 20
-74.0
 30
0.0
 11
59.0
 21
-66.0
 31
0.0
 70
32
 71
5
  1
<>
100
AcDbAlignedDimension
 13
40.0
 23
-29.0
 33
0.0
 14
78.0
 24
-29.0
 34
0.0
 50
0.0
100
AcDbRotatedDimension
  0
LWPOLYLINE
  5
DF
330
17
100
AcDbEntity
  8
SCO-___-LAJ
100
AcDbPolyline
 90
4
 70
1
 10
197.0
 20
-36.0
 10
257.1
 20
-36.0
 10
257.1
 20
-29.0
 10
197.0
 20
-29.0
  0
HATCH
  5
E0
330
17
100
AcDbEntity
  8
COTA
 62
7
100
AcDbHatch
 10
0.0
 20
0.0
 30
0.0
210
0.0
220
0.0
230
1.0
  2
ANSI31
 70
0
 71
0
 91
1
 92
3
 72
0
 73
1
 93
4
 10
197.0
 20
-36.0
 10
257.1
 20
-36.0
 10
257.1
 20
-29.0
 10
197.0
 20
-29.0
 97
0
 75
1
 76
1
 52
0.0
 41
0.5
 77
0
 78
1
 53
45.0
 43
0.0
 44
0.0
 45
-1.1225320152
 46
1.1225320152
 79
0
 98
0
  0
LWPOLYLINE
  5
E1
330
17
100
AcDbEntity
  8
SCO-___-LAJ
100
AcDbPolyline
 90
4
 70
1
 10
257.1
 20
-36.0
 10
430.1
 20
-36.0
 10
430.1
 20
-29.0
 10
257.1
 20
-29.0
  0
HATCH
  5
E2
330
17
100
AcDbEntity
  8
COTA
 62
7
100
AcDbHatch
 10
0.0
 20
0.0
 30
0.0
210
0.0
220
0.0
230
1.0
  2
ANSI31
 70
0
 71
0
 91
1
 92
3
 72
0
 73
1
 93
4
 10
257.1
 20
-36.0
 10
430.1
 20
-36.0
 10
430.1
 20
-29.0
 10
257.1
 20
-29.0
 97
0
 75
1
 76
1
 52
0.0
 41
0.5
 77
0
 78
1
 53
45.0
 43
0.0
 44
0.0
 45
-1.1225320152
 46
1.1225320152
 79
0
 98
0
  0
LWPOLYLINE
  5
E3
330
17
100
AcDbEntity
  8
SCO-___-LAJ
100
AcDbPolyline
 90
4
 70
1
 10
430.1
 20
-36.0
 10
674.5
 20
-36.0
 10
674.5
 20
-29.0
 10
430.1
 20
-29.0
  0
HATCH
  5
E4
330
17
100
AcDbEntity
  8
COTA
 62
7
100
AcDbHatch
 10
0.0
 20
0.0
 30
0.0
210
0.0
220
0.0
230
1.0
  2
ANSI31
 70
0
 71
0
 91
1
 92
3
 72
0
 73
1
 93
4
 10
430.1
 20
-36.0
 10
674.5
 20
-36.0
 10
674.5
 20
-29.0
 10
430.1
 20
-29.0
 97
0
 75
1
 76
1
 52
0.0
 41
0.5
 77
0
 78
1
 53
45.0
 43
0.0
 44
0.0
 45
-1.1225320152
 46
1.1225320152
 79
0
 98
0
  0
LWPOLYLINE
  5
E5
330
17
100
AcDbEntity
  8
SCO-___-LAJ
100
AcDbPolyline
 90
4
 70
1
 10
674.5
 20
-36.0
 10
920.5
 20
-36.0
 10
920.5
 20
-29.0
 10
674.5
 20
-29.0
  0
HATCH
  5
E6
330
17
100
AcDbEntity
  8
COTA
 62
7
100
AcDbHatch
 10
0.0
 20
0.0
 30
0.0
210
0.0
220
0.0
230
1.0
  2
ANSI31
 70
0
 71
0
 91
1
 92
3
 72
0
 73
1
 93
4
 10
674.5
 20
-36.0
 10
920.5
 20
-36.0
 10
920.5
 20
-29.0
 10
674.5
 20
-29.0
 97
0
 75
1
 76
1
 52
0.0
 41
0.5
 77
0
 78
1
 53
45.0
 43
0.0
 44
0.0
 45
-1.1225320152
 46
1.1225320152
 79
0
 98
0
  0
LWPOLYLINE
  5
E7
330
17
100
AcDbEntity
  8
SCO-___-LAJ
100
AcDbPolyline
 90
4
 70
1
 10
920.5
 20
-36.0
 10
1206.5
 20
-36.0
 10
1206.5
 20
-29.0
 10
920.5
 20
-29.0
  0
HATCH
  5
E8
330
17
100
AcDbEntity
  8
COTA
 62
7
100
AcDbHatch
 10
0.0
 20
0.0
 30
0.0
210
0.0
220
0.0
230
1.0
  2
ANSI31
 70
0
 71
0
 91
1
 92
3
 72
0
 73
1
 93
4
 10
920.5
 20
-36.0
 10
1206.5
 20
-36.0
 10
1206.5
 20
-29.0
 10
920.5
 20
-29.0
 97
0
 75
1
 76
1
 52
0.0
 41
0.5
 77
0
 78
1
 53
45.0
 43
0.0
 44
0.0
 45
-1.1225320152
 46
1.1225320152
 79
0
 98
0
  0
LINE
  5
E9
330
17
100
AcDbEntity
  8
Painéis
100
AcDbLine
 10
197.0
 20
-29.0
 30
0.0
 11
257.1
 21
-29.0
 31
0.0
  0
LINE
  5
EA
330
17
100
AcDbEntity
  8
Painéis
100
AcDbLine
 10
197.0
 20
0.0
 30
0.0
 11
257.1
 21
0.0
 31
0.0
  0
LINE
  5
EB
330
17
100
AcDbEntity
  8
Painéis
100
AcDbLine
 10
197.0
 20
-29.0
 30
0.0
 11
197.0
 21
0.0
 31
0.0
  0
LINE
  5
EC
330
17
100
AcDbEntity
  8
Painéis
100
AcDbLine
 10
257.1
 20
-29.0
 30
0.0
 11
257.1
 21
0.0
 31
0.0
  0
LINE
  5
ED
330
17
100
AcDbEntity
  8
Painéis
100
AcDbLine
 10
257.1
 20
-29.0
 30
0.0
 11
257.1
 21
0.0
 31
0.0
  0
LINE
  5
EE
330
17
100
AcDbEntity
  8
Painéis
100
AcDbLine
 10
257.1
 20
-29.0
 30
0.0
 11
430.1
 21
-29.0
 31
0.0
  0
LINE
  5
EF
330
17
100
AcDbEntity
  8
Painéis
100
AcDbLine
 10
257.1
 20
0.0
 30
0.0
 11
430.1
 21
0.0
 31
0.0
  0
LINE
  5
F0
330
17
100
AcDbEntity
  8
Painéis
100
AcDbLine
 10
257.1
 20
-29.0
 30
0.0
 11
257.1
 21
0.0
 31
0.0
  0
LINE
  5
F1
330
17
100
AcDbEntity
  8
Painéis
100
AcDbLine
 10
430.1
 20
-29.0
 30
0.0
 11
430.1
 21
0.0
 31
0.0
  0
LINE
  5
F2
330
17
100
AcDbEntity
  8
Painéis
100
AcDbLine
 10
430.1
 20
-29.0
 30
0.0
 11
430.1
 21
0.0
 31
0.0
  0
LINE
  5
F3
330
17
100
AcDbEntity
  8
Painéis
100
AcDbLine
 10
430.1
 20
-29.0
 30
0.0
 11
674.5
 21
-29.0
 31
0.0
  0
LINE
  5
F4
330
17
100
AcDbEntity
  8
Painéis
100
AcDbLine
 10
430.1
 20
0.0
 30
0.0
 11
674.5
 21
0.0
 31
0.0
  0
LINE
  5
F5
330
17
100
AcDbEntity
  8
Painéis
100
AcDbLine
 10
430.1
 20
-29.0
 30
0.0
 11
430.1
 21
0.0
 31
0.0
  0
LINE
  5
F6
330
17
100
AcDbEntity
  8
Painéis
100
AcDbLine
 10
674.5
 20
-29.0
 30
0.0
 11
674.5
 21
0.0
 31
0.0
  0
LINE
  5
F7
330
17
100
AcDbEntity
  8
Painéis
100
AcDbLine
 10
674.5
 20
-29.0
 30
0.0
 11
674.5
 21
0.0
 31
0.0
  0
LINE
  5
F8
330
17
100
AcDbEntity
  8
Painéis
100
AcDbLine
 10
674.5
 20
-29.0
 30
0.0
 11
920.5
 21
-29.0
 31
0.0
  0
LINE
  5
F9
330
17
100
AcDbEntity
  8
Painéis
100
AcDbLine
 10
674.5
 20
0.0
 30
0.0
 11
920.5
 21
0.0
 31
0.0
  0
LINE
  5
FA
330
17
100
AcDbEntity
  8
Painéis
100
AcDbLine
 10
674.5
 20
-29.0
 30
0.0
 11
674.5
 21
0.0
 31
0.0
  0
LINE
  5
FB
330
17
100
AcDbEntity
  8
Painéis
100
AcDbLine
 10
920.5
 20
-29.0
 30
0.0
 11
920.5
 21
0.0
 31
0.0
  0
LINE
  5
FC
330
17
100
AcDbEntity
  8
Painéis
100
AcDbLine
 10
920.5
 20
-29.0
 30
0.0
 11
920.5
 21
0.0
 31
0.0
  0
LINE
  5
FD
330
17
100
AcDbEntity
  8
Painéis
100
AcDbLine
 10
920.5
 20
-29.0
 30
0.0
 11
1206.5
 21
-29.0
 31
0.0
  0
LINE
  5
FE
330
17
100
AcDbEntity
  8
Painéis
100
AcDbLine
 10
920.5
 20
0.0
 30
0.0
 11
1206.5
 21
0.0
 31
0.0
  0
LINE
  5
FF
330
17
100
AcDbEntity
  8
Painéis
100
AcDbLine
 10
920.5
 20
-29.0
 30
0.0
 11
920.5
 21
0.0
 31
0.0
  0
LINE
  5
100
330
17
100
AcDbEntity
  8
Painéis
100
AcDbLine
 10
1206.5
 20
-29.0
 30
0.0
 11
1206.5
 21
0.0
 31
0.0
  0
LINE
  5
101
330
17
100
AcDbEntity
  8
SARR_2.2x7
100
AcDbLine
 10
204.0
 20
-29.0
 30
0.0
 11
204.0
 21
0.0
 31
0.0
  0
LINE
  5
102
330
17
100
AcDbEntity
  8
SARR_2.2x7
100
AcDbLine
 10
1199.5
 20
-29.0
 30
0.0
 11
1199.5
 21
0.0
 31
0.0
  0
LINE
  5
103
330
17
100
AcDbEntity
  8
SARR_3.5x7
100
AcDbLine
 10
212.0
 20
-29.0
 30
0.0
 11
212.0
 21
0.0
 31
0.0
  0
LINE
  5
104
330
17
100
AcDbEntity
  8
SARR_3.5x7
100
AcDbLine
 10
215.5
 20
-29.0
 30
0.0
 11
215.5
 21
-2.1999999999999993
 31
0.0
  0
LINE
  5
105
330
17
100
AcDbEntity
  8
SARR_3.5x7
100
AcDbLine
 10
212.0
 20
-29.0
 30
0.0
 11
215.5
 21
-29.0
 31
0.0
  0
LINE
  5
106
330
17
100
AcDbEntity
  8
SARR_3.5x7
100
AcDbLine
 10
253.6
 20
-29.0
 30
0.0
 11
253.6
 21
-2.1999999999999993
 31
0.0
  0
LINE
  5
107
330
17
100
AcDbEntity
  8
SARR_3.5x7
100
AcDbLine
 10
257.1
 20
-29.0
 30
0.0
 11
257.1
 21
0.0
 31
0.0
  0
LINE
  5
108
330
17
100
AcDbEntity
  8
SARR_3.5x7
100
AcDbLine
 10
253.6
 20
-29.0
 30
0.0
 11
257.1
 21
-29.0
 31
0.0
  0
LINE
  5
109
330
17
100
AcDbEntity
  8
SARR_3.5x7
100
AcDbLine
 10
257.1
 20
-29.0
 30
0.0
 11
257.1
 21
0.0
 31
0.0
  0
LINE
  5
10A
330
17
100
AcDbEntity
  8
SARR_3.5x7
100
AcDbLine
 10
260.6
 20
-29.0
 30
0.0
 11
260.6
 21
-2.1999999999999993
 31
0.0
  0
LINE
  5
10B
330
17
100
AcDbEntity
  8
SARR_3.5x7
100
AcDbLine
 10
257.1
 20
-29.0
 30
0.0
 11
260.6
 21
-29.0
 31
0.0
  0
LINE
  5
10C
330
17
100
AcDbEntity
  8
SARR_3.5x7
100
AcDbLine
 10
426.6
 20
-29.0
 30
0.0
 11
426.6
 21
-2.1999999999999993
 31
0.0
  0
LINE
  5
10D
330
17
100
AcDbEntity
  8
SARR_3.5x7
100
AcDbLine
 10
430.1
 20
-29.0
 30
0.0
 11
430.1
 21
0.0
 31
0.0
  0
LINE
  5
10E
330
17
100
AcDbEntity
  8
SARR_3.5x7
100
AcDbLine
 10
426.6
 20
-29.0
 30
0.0
 11
430.1
 21
-29.0
 31
0.0
  0
LINE
  5
10F
330
17
100
AcDbEntity
  8
SARR_3.5x7
100
AcDbLine
 10
430.1
 20
-29.0
 30
0.0
 11
430.1
 21
0.0
 31
0.0
  0
LINE
  5
110
330
17
100
AcDbEntity
  8
SARR_3.5x7
100
AcDbLine
 10
433.6
 20
-29.0
 30
0.0
 11
433.6
 21
-2.1999999999999993
 31
0.0
  0
LINE
  5
111
330
17
100
AcDbEntity
  8
SARR_3.5x7
100
AcDbLine
 10
430.1
 20
-29.0
 30
0.0
 11
433.6
 21
-29.0
 31
0.0
  0
LINE
  5
112
330
17
100
AcDbEntity
  8
SARR_3.5x7
100
AcDbLine
 10
671.0
 20
-29.0
 30
0.0
 11
671.0
 21
-2.1999999999999993
 31
0.0
  0
LINE
  5
113
330
17
100
AcDbEntity
  8
SARR_3.5x7
100
AcDbLine
 10
674.5
 20
-29.0
 30
0.0
 11
674.5
 21
0.0
 31
0.0
  0
LINE
  5
114
330
17
100
AcDbEntity
  8
SARR_3.5x7
100
AcDbLine
 10
671.0
 20
-29.0
 30
0.0
 11
674.5
 21
-29.0
 31
0.0
  0
LINE
  5
115
330
17
100
AcDbEntity
  8
SARR_3.5x7
100
AcDbLine
 10
674.5
 20
-29.0
 30
0.0
 11
674.5
 21
0.0
 31
0.0
  0
LINE
  5
116
330
17
100
AcDbEntity
  8
SARR_3.5x7
100
AcDbLine
 10
678.0
 20
-29.0
 30
0.0
 11
678.0
 21
-2.1999999999999993
 31
0.0
  0
LINE
  5
117
330
17
100
AcDbEntity
  8
SARR_3.5x7
100
AcDbLine
 10
674.5
 20
-29.0
 30
0.0
 11
678.0
 21
-29.0
 31
0.0
  0
LINE
  5
118
330
17
100
AcDbEntity
  8
SARR_3.5x7
100
AcDbLine
 10
917.0
 20
-29.0
 30
0.0
 11
917.0
 21
-2.1999999999999993
 31
0.0
  0
LINE
  5
119
330
17
100
AcDbEntity
  8
SARR_3.5x7
100
AcDbLine
 10
920.5
 20
-29.0
 30
0.0
 11
920.5
 21
0.0
 31
0.0
  0
LINE
  5
11A
330
17
100
AcDbEntity
  8
SARR_3.5x7
100
AcDbLine
 10
917.0
 20
-29.0
 30
0.0
 11
920.5
 21
-29.0
 31
0.0
  0
LINE
  5
11B
330
17
100
AcDbEntity
  8
SARR_3.5x7
100
AcDbLine
 10
920.5
 20
-29.0
 30
0.0
 11
920.5
 21
0.0
 31
0.0
  0
LINE
  5
11C
330
17
100
AcDbEntity
  8
SARR_3.5x7
100
AcDbLine
 10
924.0
 20
-29.0
 30
0.0
 11
924.0
 21
-2.1999999999999993
 31
0.0
  0
LINE
  5
11D
330
17
100
AcDbEntity
  8
SARR_3.5x7
100
AcDbLine
 10
920.5
 20
-29.0
 30
0.0
 11
924.0
 21
-29.0
 31
0.0
  0
LINE
  5
11E
330
17
100
AcDbEntity
  8
SARR_3.5x7
100
AcDbLine
 10
1188.0
 20
-29.0
 30
0.0
 11
1188.0
 21
-2.1999999999999993
 31
0.0
  0
LINE
  5
11F
330
17
100
AcDbEntity
  8
SARR_3.5x7
100
AcDbLine
 10
1191.5
 20
-29.0
 30
0.0
 11
1191.5
 21
0.0
 31
0.0
  0
LINE
  5
120
330
17
100
AcDbEntity
  8
SARR_3.5x7
100
AcDbLine
 10
1188.0
 20
-29.0
 30
0.0
 11
1191.5
 21
-29.0
 31
0.0
  0
LINE
  5
121
330
17
100
AcDbEntity
  8
SARR_2.2x7
100
AcDbLine
 10
212.0
 20
-2.1999999999999993
 30
0.0
 11
257.1
 21
-2.1999999999999993
 31
0.0
  0
LINE
  5
122
330
17
100
AcDbEntity
  8
SARR_2.2x7
100
AcDbLine
 10
257.1
 20
-2.1999999999999993
 30
0.0
 11
430.1
 21
-2.1999999999999993
 31
0.0
  0
LINE
  5
123
330
17
100
AcDbEntity
  8
SARR_2.2x7
100
AcDbLine
 10
430.1
 20
-2.1999999999999993
 30
0.0
 11
674.5
 21
-2.1999999999999993
 31
0.0
  0
LINE
  5
124
330
17
100
AcDbEntity
  8
SARR_2.2x7
100
AcDbLine
 10
674.5
 20
-2.1999999999999993
 30
0.0
 11
920.5
 21
-2.1999999999999993
 31
0.0
  0
LINE
  5
125
330
17
100
AcDbEntity
  8
SARR_2.2x7
100
AcDbLine
 10
920.5
 20
-2.1999999999999993
 30
0.0
 11
1191.5
 21
-2.1999999999999993
 31
0.0
  0
TEXT
  5
126
330
17
100
AcDbEntity
  8
NOMENCLATURA
100
AcDbText
 10
200.0
 20
9.0
 30
0.0
 40
16.5
  1
V1.A
100
AcDbText
  0
TEXT
  5
127
330
17
100
AcDbEntity
  8
5
100
AcDbText
 10
227.05
 20
-10.5
 30
0.0
 40
12.0
  1
1
 72
1
 11
227.05
 21
-10.5
 31
0.0
100
AcDbText
 73
2
  0
TEXT
  5
128
330
17
100
AcDbEntity
  8
5
100
AcDbText
 10
227.05
 20
-24.5
 30
0.0
 40
7.0
  1
60
 72
1
 11
227.05
 21
-24.5
 31
0.0
100
AcDbText
 73
2
  0
MTEXT
  5
129
330
17
100
AcDbEntity
  8
texto
100
AcDbMText
 10
227.05
 20
-34.5
 30
0.0
 40
6.0
 71
5
  1
2 1/2pont
  0
TEXT
  5
12A
330
17
100
AcDbEntity
  8
5
100
AcDbText
 10
343.6
 20
-10.5
 30
0.0
 40
12.0
  1
2
 72
1
 11
343.6
 21
-10.5
 31
0.0
100
AcDbText
 73
2
  0
TEXT
  5
12B
330
17
100
AcDbEntity
  8
5
100
AcDbText
 10
343.6
 20
-24.5
 30
0.0
 40
7.0
  1
173
 72
1
 11
343.6
 21
-24.5
 31
0.0
100
AcDbText
 73
2
  0
MTEXT
  5
12C
330
17
100
AcDbEntity
  8
texto
100
AcDbMText
 10
343.6
 20
-34.5
 30
0.0
 40
6.0
 71
5
  1
7 1/2pont
  0
TEXT
  5
12D
330
17
100
AcDbEntity
  8
5
100
AcDbText
 10
552.3000000000001
 20
-10.5
 30
0.0
 40
12.0
  1
3
 72
1
 11
552.3000000000001
 21
-10.5
 31
0.0
100
AcDbText
 73
2
  0
TEXT
  5
12E
330
17
100
AcDbEntity
  8
5
100
AcDbText
 10
552.3000000000001
 20
-24.5
 30
0.0
 40
7.0
  1
244
 72
1
 11
552.3000000000001
 21
-24.5
 31
0.0
100
AcDbText
 73
2
  0
MTEXT
  5
12F
330
17
100
AcDbEntity
  8
texto
100
AcDbMText
 10
552.3000000000001
 20
-34.5
 30
0.0
 40
6.0
 71
5
  1
10 1/2pont
  0
TEXT
  5
130
330
17
100
AcDbEntity
  8
5
100
AcDbText
 10
797.5
 20
-10.5
 30
0.0
 40
12.0
  1
4
 72
1
 11
797.5
 21
-10.5
 31
0.0
100
AcDbText
 73
2
  0
TEXT
  5
131
330
17
100
AcDbEntity
  8
5
100
AcDbText
 10
797.5
 20
-24.5
 30
0.0
 40
7.0
  1
246
 72
1
 11
797.5
 21
-24.5
 31
0.0
100
AcDbText
 73
2
  0
MTEXT
  5
132
330
17
100
AcDbEntity
  8
texto
100
AcDbMText
 10
797.5
 20
-34.5
 30
0.0
 40
6.0
 71
5
  1
10 1/2pont
  0
TEXT
  5
133
330
17
100
AcDbEntity
  8
5
100
AcDbText
 10
1063.5
 20
-10.5
 30
0.0
 40
12.0
  1
5
 72
1
 11
1063.5
 21
-10.5
 31
0.0
100
AcDbText
 73
2
  0
TEXT
  5
134
330
17
100
AcDbEntity
  8
5
100
AcDbText
 10
1063.5
 20
-24.5
 30
0.0
 40
7.0
  1
286
 72
1
 11
1063.5
 21
-24.5
 31
0.0
100
AcDbText
 73
2
  0
MTEXT
  5
135
330
17
100
AcDbEntity
  8
texto
100
AcDbMText
 10
1063.5
 20
-34.5
 30
0.0
 40
6.0
 71
5
  1
12 1/2pont
  0
DIMENSION
  5
136
330
17
100
AcDbEntity
  8
COTA
100
AcDbDimension
280
0
  2
*D7
  3
PAINEL
 10
197.0
 20
-66.0
 30
0.0
 11
227.05
 21
-58.0
 31
0.0
 70
32
 71
5
  1
<>
100
AcDbAlignedDimension
 13
197.0
 23
-29.0
 33
0.0
 14
257.1
 24
-29.0
 34
0.0
 50
0.0
100
AcDbRotatedDimension
  0
DIMENSION
  5
145
330
17
100
AcDbEntity
  8
COTA
100
AcDbDimension
280
0
  2
*D8
  3
PAINEL
 10
257.1
 20
-66.0
 30
0.0
 11
343.6
 21
-58.0
 31
0.0
 70
32
 71
5
  1
<>
100
AcDbAlignedDimension
 13
257.1
 23
-29.0
 33
0.0
 14
430.1
 24
-29.0
 34
0.0
 50
0.0
100
AcDbRotatedDimension
  0
DIMENSION
  5
154
330
17
100
AcDbEntity
  8
COTA
100
AcDbDimension
280
0
  2
*D9
  3
PAINEL
 10
430.1
 20
-66.0
 30
0.0
 11
552.3
 21
-58.0
 31
0.0
 70
32
 71
5
  1
<>
100
AcDbAlignedDimension
 13
430.1
 23
-29.0
 33
0.0
 14
674.5
 24
-29.0
 34
0.0
 50
0.0
100
AcDbRotatedDimension
  0
DIMENSION
  5
163
330
17
100
AcDbEntity
  8
COTA
100
AcDbDimension
280
0
  2
*D10
  3
PAINEL
 10
674.5
 20
-66.0
 30
0.0
 11
797.5
 21
-58.0
 31
0.0
 70
32
 71
5
  1
<>
100
AcDbAlignedDimension
 13
674.5
 23
-29.0
 33
0.0
 14
920.5
 24
-29.0
 34
0.0
 50
0.0
100
AcDbRotatedDimension
  0
DIMENSION
  5
172
330
17
100
AcDbEntity
  8
COTA
100
AcDbDimension
280
0
  2
*D11
  3
PAINEL
 10
920.5
 20
-66.0
 30
0.0
 11
1063.5
 21
-58.0
 31
0.0
 70
32
 71
5
  1
<>
100
AcDbAlignedDimension
 13
920.5
 23
-29.0
 33
0.0
 14
1206.5
 24
-29.0
 34
0.0
 50
0.0
100
AcDbRotatedDimension
  0
DIMENSION
  5
181
330
17
100
AcDbEntity
  8
COTA
100
AcDbDimension
280
0
  2
*D12
  3
PAINEL
 10
197.0
 20
-89.0
 30
0.0
 11
701.75
 21
-81.0
 31
0.0
 70
32
 71
5
  1
<>
100
AcDbAlignedDimension
 13
197.0
 23
-29.0
 33
0.0
 14
1206.5
 24
-29.0
 34
0.0
 50
0.0
100
AcDbRotatedDimension
  0
DIMENSION
  5
190
330
17
100
AcDbEntity
  8
COTA
100
AcDbDimension
280
0
  2
*D13
  3
PAINEL
 10
169.0
 20
-36.0
 30
0.0
 11
158.0
 21
-32.5
 31
0.0
 70
32
 71
5
  1
<>
100
AcDbAlignedDimension
 13
197.0
 23
-36.0
 33
0.0
 14
197.0
 24
-29.0
 34
0.0
 50
90.0
100
AcDbRotatedDimension
  0
DIMENSION
  5
19F
330
17
100
AcDbEntity
  8
COTA
100
AcDbDimension
280
0
  2
*D14
  3
PAINEL
 10
169.0
 20
-29.0
 30
0.0
 11
161.0
 21
-14.5
 31
0.0
 70
32
 71
5
  1
<>
100
AcDbAlignedDimension
 13
197.0
 23
-29.0
 33
0.0
 14
197.0
 24
0.0
 34
0.0
 50
90.0
100
AcDbRotatedDimension
  0
DIMENSION
  5
1AE
330
17
100
AcDbEntity
  8
COTA
100
AcDbDimension
280
0
  2
*D15
  3
PAINEL
 10
1234.5
 20
-36.0
 30
0.0
 11
1226.5
 21
-18.0
 31
0.0
 70
32
 71
5
  1
<>
100
AcDbAlignedDimension
 13
1206.5
 23
-36.0
 33
0.0
 14
1206.5
 24
0.0
 34
0.0
 50
90.0
100
AcDbRotatedDimension
  0
LWPOLYLINE
  5
1BD
330
17
100
AcDbEntity
  8
SCO-___-LAJ
100
AcDbPolyline
 90
4
 70
1
 10
1256.5
 20
-22.0
 10
1430.0
 20
-22.0
 10
1430.0
 20
-15.0
 10
1256.5
 20
-15.0
  0
HATCH
  5
1BE
330
17
100
AcDbEntity
  8
COTA
 62
7
100
AcDbHatch
 10
0.0
 20
0.0
 30
0.0
210
0.0
220
0.0
230
1.0
  2
ANSI31
 70
0
 71
0
 91
1
 92
3
 72
0
 73
1
 93
4
 10
1256.5
 20
-22.0
 10
1430.0
 20
-22.0
 10
1430.0
 20
-15.0
 10
1256.5
 20
-15.0
 97
0
 75
1
 76
1
 52
0.0
 41
0.5
 77
0
 78
1
 53
45.0
 43
0.0
 44
0.0
 45
-1.1225320152
 46
1.1225320152
 79
0
 98
0
  0
LWPOLYLINE
  5
1BF
330
17
100
AcDbEntity
  8
SCO-___-LAJ
100
AcDbPolyline
 90
4
 70
1
 10
1430.0
 20
-22.0
 10
1674.0
 20
-22.0
 10
1674.0
 20
-15.0
 10
1430.0
 20
-15.0
  0
HATCH
  5
1C0
330
17
100
AcDbEntity
  8
COTA
 62
7
100
AcDbHatch
 10
0.0
 20
0.0
 30
0.0
210
0.0
220
0.0
230
1.0
  2
ANSI31
 70
0
 71
0
 91
1
 92
3
 72
0
 73
1
 93
4
 10
1430.0
 20
-22.0
 10
1674.0
 20
-22.0
 10
1674.0
 20
-15.0
 10
1430.0
 20
-15.0
 97
0
 75
1
 76
1
 52
0.0
 41
0.5
 77
0
 78
1
 53
45.0
 43
0.0
 44
0.0
 45
-1.1225320152
 46
1.1225320152
 79
0
 98
0
  0
LWPOLYLINE
  5
1C1
330
17
100
AcDbEntity
  8
SCO-___-LAJ
100
AcDbPolyline
 90
4
 70
1
 10
1674.0
 20
-22.0
 10
1920.0
 20
-22.0
 10
1920.0
 20
-15.0
 10
1674.0
 20
-15.0
  0
HATCH
  5
1C2
330
17
100
AcDbEntity
  8
COTA
 62
7
100
AcDbHatch
 10
0.0
 20
0.0
 30
0.0
210
0.0
220
0.0
230
1.0
  2
ANSI31
 70
0
 71
0
 91
1
 92
3
 72
0
 73
1
 93
4
 10
1674.0
 20
-22.0
 10
1920.0
 20
-22.0
 10
1920.0
 20
-15.0
 10
1674.0
 20
-15.0
 97
0
 75
1
 76
1
 52
0.0
 41
0.5
 77
0
 78
1
 53
45.0
 43
0.0
 44
0.0
 45
-1.1225320152
 46
1.1225320152
 79
0
 98
0
  0
LINE
  5
1C3
330
17
100
AcDbEntity
  8
Painéis
100
AcDbLine
 10
1256.5
 20
-15.0
 30
0.0
 11
1430.0
 21
-15.0
 31
0.0
  0
LINE
  5
1C4
330
17
100
AcDbEntity
  8
Painéis
100
AcDbLine
 10
1256.5
 20
0.0
 30
0.0
 11
1430.0
 21
0.0
 31
0.0
  0
LINE
  5
1C5
330
17
100
AcDbEntity
  8
Painéis
100
AcDbLine
 10
1256.5
 20
-15.0
 30
0.0
 11
1256.5
 21
0.0
 31
0.0
  0
LINE
  5
1C6
330
17
100
AcDbEntity
  8
Painéis
100
AcDbLine
 10
1430.0
 20
-15.0
 30
0.0
 11
1430.0
 21
0.0
 31
0.0
  0
LINE
  5
1C7
330
17
100
AcDbEntity
  8
Painéis
100
AcDbLine
 10
1430.0
 20
-15.0
 30
0.0
 11
1430.0
 21
0.0
 31
0.0
  0
LINE
  5
1C8
330
17
100
AcDbEntity
  8
Painéis
100
AcDbLine
 10
1430.0
 20
-15.0
 30
0.0
 11
1674.0
 21
-15.0
 31
0.0
  0
LINE
  5
1C9
330
17
100
AcDbEntity
  8
Painéis
100
AcDbLine
 10
1430.0
 20
0.0
 30
0.0
 11
1674.0
 21
0.0
 31
0.0
  0
LINE
  5
1CA
330
17
100
AcDbEntity
  8
Painéis
100
AcDbLine
 10
1430.0
 20
-15.0
 30
0.0
 11
1430.0
 21
0.0
 31
0.0
  0
LINE
  5
1CB
330
17
100
AcDbEntity
  8
Painéis
100
AcDbLine
 10
1674.0
 20
-15.0
 30
0.0
 11
1674.0
 21
0.0
 31
0.0
  0
LINE
  5
1CC
330
17
100
AcDbEntity
  8
Painéis
100
AcDbLine
 10
1674.0
 20
-15.0
 30
0.0
 11
1674.0
 21
0.0
 31
0.0
  0
LINE
  5
1CD
330
17
100
AcDbEntity
  8
Painéis
100
AcDbLine
 10
1674.0
 20
-15.0
 30
0.0
 11
1920.0
 21
-15.0
 31
0.0
  0
LINE
  5
1CE
330
17
100
AcDbEntity
  8
Painéis
100
AcDbLine
 10
1674.0
 20
0.0
 30
0.0
 11
1920.0
 21
0.0
 31
0.0
  0
LINE
  5
1CF
330
17
100
AcDbEntity
  8
Painéis
100
AcDbLine
 10
1674.0
 20
-15.0
 30
0.0
 11
1674.0
 21
0.0
 31
0.0
  0
LINE
  5
1D0
330
17
100
AcDbEntity
  8
Painéis
100
AcDbLine
 10
1920.0
 20
-15.0
 30
0.0
 11
1920.0
 21
0.0
 31
0.0
  0
LINE
  5
1D1
330
17
100
AcDbEntity
  8
SARR_2.2x7
100
AcDbLine
 10
1263.5
 20
-15.0
 30
0.0
 11
1263.5
 21
0.0
 31
0.0
  0
LINE
  5
1D2
330
17
100
AcDbEntity
  8
SARR_2.2x7
100
AcDbLine
 10
1913.0
 20
-15.0
 30
0.0
 11
1913.0
 21
0.0
 31
0.0
  0
LINE
  5
1D3
330
17
100
AcDbEntity
  8
SARR_3.5x7
100
AcDbLine
 10
1271.5
 20
-15.0
 30
0.0
 11
1271.5
 21
0.0
 31
0.0
  0
LINE
  5
1D4
330
17
100
AcDbEntity
  8
SARR_3.5x7
100
AcDbLine
 10
1275.0
 20
-15.0
 30
0.0
 11
1275.0
 21
-2.1999999999999993
 31
0.0
  0
LINE
  5
1D5
330
17
100
AcDbEntity
  8
SARR_3.5x7
100
AcDbLine
 10
1271.5
 20
-15.0
 30
0.0
 11
1275.0
 21
-15.0
 31
0.0
  0
LINE
  5
1D6
330
17
100
AcDbEntity
  8
SARR_3.5x7
100
AcDbLine
 10
1426.5
 20
-15.0
 30
0.0
 11
1426.5
 21
-2.1999999999999993
 31
0.0
  0
LINE
  5
1D7
330
17
100
AcDbEntity
  8
SARR_3.5x7
100
AcDbLine
 10
1430.0
 20
-15.0
 30
0.0
 11
1430.0
 21
0.0
 31
0.0
  0
LINE
  5
1D8
330
17
100
AcDbEntity
  8
SARR_3.5x7
100
AcDbLine
 10
1426.5
 20
-15.0
 30
0.0
 11
1430.0
 21
-15.0
 31
0.0
  0
LINE
  5
1D9
330
17
100
AcDbEntity
  8
SARR_3.5x7
100
AcDbLine
 10
1430.0
 20
-15.0
 30
0.0
 11
1430.0
 21
0.0
 31
0.0
  0
LINE
  5
1DA
330
17
100
AcDbEntity
  8
SARR_3.5x7
100
AcDbLine
 10
1433.5
 20
-15.0
 30
0.0
 11
1433.5
 21
-2.1999999999999993
 31
0.0
  0
LINE
  5
1DB
330
17
100
AcDbEntity
  8
SARR_3.5x7
100
AcDbLine
 10
1430.0
 20
-15.0
 30
0.0
 11
1433.5
 21
-15.0
 31
0.0
  0
LINE
  5
1DC
330
17
100
AcDbEntity
  8
SARR_3.5x7
100
AcDbLine
 10
1670.5
 20
-15.0
 30
0.0
 11
1670.5
 21
-2.1999999999999993
 31
0.0
  0
LINE
  5
1DD
330
17
100
AcDbEntity
  8
SARR_3.5x7
100
AcDbLine
 10
1674.0
 20
-15.0
 30
0.0
 11
1674.0
 21
0.0
 31
0.0
  0
LINE
  5
1DE
330
17
100
AcDbEntity
  8
SARR_3.5x7
100
AcDbLine
 10
1670.5
 20
-15.0
 30
0.0
 11
1674.0
 21
-15.0
 31
0.0
  0
LINE
  5
1DF
330
17
100
AcDbEntity
  8
SARR_3.5x7
100
AcDbLine
 10
1674.0
 20
-15.0
 30
0.0
 11
1674.0
 21
0.0
 31
0.0
  0
LINE
  5
1E0
330
17
100
AcDbEntity
  8
SARR_3.5x7
100
AcDbLine
 10
1677.5
 20
-15.0
 30
0.0
 11
1677.5
 21
-2.1999999999999993
 31
0.0
  0
LINE
  5
1E1
330
17
100
AcDbEntity
  8
SARR_3.5x7
100
AcDbLine
 10
1674.0
 20
-15.0
 30
0.0
 11
1677.5
 21
-15.0
 31
0.0
  0
LINE
  5
1E2
330
17
100
AcDbEntity
  8
SARR_3.5x7
100
AcDbLine
 10
1901.5
 20
-15.0
 30
0.0
 11
1901.5
 21
-2.1999999999999993
 31
0.0
  0
LINE
  5
1E3
330
17
100
AcDbEntity
  8
SARR_3.5x7
100
AcDbLine
 10
1905.0
 20
-15.0
 30
0.0
 11
1905.0
 21
0.0
 31
0.0
  0
LINE
  5
1E4
330
17
100
AcDbEntity
  8
SARR_3.5x7
100
AcDbLine
 10
1901.5
 20
-15.0
 30
0.0
 11
1905.0
 21
-15.0
 31
0.0
  0
LINE
  5
1E5
330
17
100
AcDbEntity
  8
SARR_2.2x7
100
AcDbLine
 10
1271.5
 20
-2.1999999999999993
 30
0.0
 11
1430.0
 21
-2.1999999999999993
 31
0.0
  0
LINE
  5
1E6
330
17
100
AcDbEntity
  8
SARR_2.2x7
100
AcDbLine
 10
1430.0
 20
-2.1999999999999993
 30
0.0
 11
1674.0
 21
-2.1999999999999993
 31
0.0
  0
LINE
  5
1E7
330
17
100
AcDbEntity
  8
SARR_2.2x7
100
AcDbLine
 10
1674.0
 20
-2.1999999999999993
 30
0.0
 11
1905.0
 21
-2.1999999999999993
 31
0.0
  0
TEXT
  5
1E8
330
17
100
AcDbEntity
  8
NOMENCLATURA
100
AcDbText
 10
1259.5
 20
9.0
 30
0.0
 40
16.5
  1
V1.B
100
AcDbText
  0
TEXT
  5
1E9
330
17
100
AcDbEntity
  8
5
100
AcDbText
 10
1343.25
 20
-3.5
 30
0.0
 40
12.0
  1
1
 72
1
 11
1343.25
 21
-3.5
 31
0.0
100
AcDbText
 73
2
  0
TEXT
  5
1EA
330
17
100
AcDbEntity
  8
5
100
AcDbText
 10
1343.25
 20
-17.5
 30
0.0
 40
7.0
  1
174
 72
1
 11
1343.25
 21
-17.5
 31
0.0
100
AcDbText
 73
2
  0
MTEXT
  5
1EB
330
17
100
AcDbEntity
  8
texto
100
AcDbMText
 10
1343.25
 20
-27.5
 30
0.0
 40
6.0
 71
5
  1
7 1/2pont
  0
TEXT
  5
1EC
330
17
100
AcDbEntity
  8
5
100
AcDbText
 10
1552.0
 20
-3.5
 30
0.0
 40
12.0
  1
2
 72
1
 11
1552.0
 21
-3.5
 31
0.0
100
AcDbText
 73
2
  0
TEXT
  5
1ED
330
17
100
AcDbEntity
  8
5
100
AcDbText
 10
1552.0
 20
-17.5
 30
0.0
 40
7.0
  1
244
 72
1
 11
1552.0
 21
-17.5
 31
0.0
100
AcDbText
 73
2
  0
MTEXT
  5
1EE
330
17
100
AcDbEntity
  8
texto
100
AcDbMText
 10
1552.0
 20
-27.5
 30
0.0
 40
6.0
 71
5
  1
10 1/2pont
  0
TEXT
  5
1EF
330
17
100
AcDbEntity
  8
5
100
AcDbText
 10
1797.0
 20
-3.5
 30
0.0
 40
12.0
  1
3
 72
1
 11
1797.0
 21
-3.5
 31
0.0
100
AcDbText
 73
2
  0
TEXT
  5
1F0
330
17
100
AcDbEntity
  8
5
100
AcDbText
 10
1797.0
 20
-17.5
 30
0.0
 40
7.0
  1
246
 72
1
 11
1797.0
 21
-17.5
 31
0.0
100
AcDbText
 73
2
  0
MTEXT
  5
1F1
330
17
100
AcDbEntity
  8
texto
100
AcDbMText
 10
1797.0
 20
-27.5
 30
0.0
 40
6.0
 71
5
  1
10 1/2pont
  0
DIMENSION
  5
1F2
330
17
100
AcDbEntity
  8
COTA
100
AcDbDimension
280
0
  2
*D16
  3
PAINEL
 10
1256.5
 20
-52.0
 30
0.0
 11
1343.25
 21
-44.0
 31
0.0
 70
32
 71
5
  1
<>
100
AcDbAlignedDimension
 13
1256.5
 23
-15.0
 33
0.0
 14
1430.0
 24
-15.0
 34
0.0
 50
0.0
100
AcDbRotatedDimension
  0
DIMENSION
  5
201
330
17
100
AcDbEntity
  8
COTA
100
AcDbDimension
280
0
  2
*D17
  3
PAINEL
 10
1430.0
 20
-52.0
 30
0.0
 11
1552.0
 21
-44.0
 31
0.0
 70
32
 71
5
  1
<>
100
AcDbAlignedDimension
 13
1430.0
 23
-15.0
 33
0.0
 14
1674.0
 24
-15.0
 34
0.0
 50
0.0
100
AcDbRotatedDimension
  0
DIMENSION
  5
210
330
17
100
AcDbEntity
  8
COTA
100
AcDbDimension
280
0
  2
*D18
  3
PAINEL
 10
1674.0
 20
-52.0
 30
0.0
 11
1797.0
 21
-44.0
 31
0.0
 70
32
 71
5
  1
<>
100
AcDbAlignedDimension
 13
1674.0
 23
-15.0
 33
0.0
 14
1920.0
 24
-15.0
 34
0.0
 50
0.0
100
AcDbRotatedDimension
  0
DIMENSION
  5
21F
330
17
100
AcDbEntity
  8
COTA
100
AcDbDimension
280
0
  2
*D19
  3
PAINEL
 10
1256.5
 20
-75.0
 30
0.0
 11
1588.25
 21
-67.0
 31
0.0
 70
32
 71
5
  1
<>
100
AcDbAlignedDimension
 13
1256.5
 23
-15.0
 33
0.0
 14
1920.0
 24
-15.0
 34
0.0
 50
0.0
100
AcDbRotatedDimension
  0
DIMENSION
  5
22E
330
17
100
AcDbEntity
  8
COTA
100
AcDbDimension
280
0
  2
*D20
  3
PAINEL
 10
1228.5
 20
-22.0
 30
0.0
 11
1217.5
 21
-18.5
 31
0.0
 70
32
 71
5
  1
<>
100
AcDbAlignedDimension
 13
1256.5
 23
-22.0
 33
0.0
 14
1256.5
 24
-15.0
 34
0.0
 50
90.0
100
AcDbRotatedDimension
  0
DIMENSION
  5
23D
330
17
100
AcDbEntity
  8
COTA
100
AcDbDimension
280
0
  2
*D21
  3
PAINEL
 10
1228.5
 20
-15.0
 30
0.0
 11
1217.5
 21
-7.5
 31
0.0
 70
32
 71
5
  1
<>
100
AcDbAlignedDimension
 13
1256.5
 23
-15.0
 33
0.0
 14
1256.5
 24
0.0
 34
0.0
 50
90.0
100
AcDbRotatedDimension
  0
DIMENSION
  5
24C
330
17
100
AcDbEntity
  8
COTA
100
AcDbDimension
280
0
  2
*D22
  3
PAINEL
 10
1948.0
 20
-22.0
 30
0.0
 11
1940.0
 21
-11.0
 31
0.0
 70
32
 71
5
  1
<>
100
AcDbAlignedDimension
 13
1920.0
 23
-22.0
 33
0.0
 14
1920.0
 24
0.0
 34
0.0
 50
90.0
100
AcDbRotatedDimension
  0
LINE
  5
25B
330
17
100
AcDbEntity
  8
Reaproveitamento
 62
30
100
AcDbLine
 10
197.0
 20
-29.0
 30
0.0
 11
197.0
 21
-29.0
 31
0.0
  0
LINE
  5
25C
330
17
100
AcDbEntity
  8
Reaproveitamento
 62
30
100
AcDbLine
 10
205.0
 20
-29.0
 30
0.0
 11
197.0
 21
-21.0
 31
0.0
  0
LINE
  5
25D
330
17
100
AcDbEntity
  8
Reaproveitamento
 62
30
100
AcDbLine
 10
213.0
 20
-29.0
 30
0.0
 11
197.0
 21
-13.0
 31
0.0
  0
LINE
  5
25E
330
17
100
AcDbEntity
  8
Reaproveitamento
 62
30
100
AcDbLine
 10
221.0
 20
-29.0
 30
0.0
 11
197.0
 21
-5.0
 31
0.0
  0
LINE
  5
25F
330
17
100
AcDbEntity
  8
Reaproveitamento
 62
30
100
AcDbLine
 10
229.0
 20
-29.0
 30
0.0
 11
200.0
 21
0.0
 31
0.0
  0
LINE
  5
260
330
17
100
AcDbEntity
  8
Reaproveitamento
 62
30
100
AcDbLine
 10
237.0
 20
-29.0
 30
0.0
 11
208.0
 21
0.0
 31
0.0
  0
LINE
  5
261
330
17
100
AcDbEntity
  8
Reaproveitamento
 62
30
100
AcDbLine
 10
245.0
 20
-29.0
 30
0.0
 11
216.0
 21
0.0
 31
0.0
  0
LINE
  5
262
330
17
100
AcDbEntity
  8
Reaproveitamento
 62
30
100
AcDbLine
 10
253.0
 20
-29.0
 30
0.0
 11
224.0
 21
0.0
 31
0.0
  0
LINE
  5
263
330
17
100
AcDbEntity
  8
Reaproveitamento
 62
30
100
AcDbLine
 10
257.1
 20
-25.100000000000023
 30
0.0
 11
232.0
 21
0.0
 31
0.0
  0
LINE
  5
264
330
17
100
AcDbEntity
  8
Reaproveitamento
 62
30
100
AcDbLine
 10
257.1
 20
-17.100000000000023
 30
0.0
 11
240.0
 21
0.0
 31
0.0
  0
LINE
  5
265
330
17
100
AcDbEntity
  8
Reaproveitamento
 62
30
100
AcDbLine
 10
257.1
 20
-9.100000000000023
 30
0.0
 11
248.0
 21
0.0
 31
0.0
  0
LINE
  5
266
330
17
100
AcDbEntity
  8
Reaproveitamento
 62
30
100
AcDbLine
 10
257.1
 20
-1.1000000000000227
 30
0.0
 11
256.0
 21
0.0
 31
0.0
  0
LINE
  5
267
330
17
100
AcDbEntity
  8
Reaproveitamento
 62
30
100
AcDbLine
 10
257.1
 20
-29.0
 30
0.0
 11
257.1
 21
-29.0
 31
0.0
  0
LINE
  5
268
330
17
100
AcDbEntity
  8
Reaproveitamento
 62
30
100
AcDbLine
 10
265.1
 20
-29.0
 30
0.0
 11
257.1
 21
-21.0
 31
0.0
  0
LINE
  5
269
330
17
100
AcDbEntity
  8
Reaproveitamento
 62
30
100
AcDbLine
 10
273.1
 20
-29.0
 30
0.0
 11
257.1
 21
-13.0
 31
0.0
  0
LINE
  5
26A
330
17
100
AcDbEntity
  8
Reaproveitamento
 62
30
100
AcDbLine
 10
281.1
 20
-29.0
 30
0.0
 11
257.1
 21
-5.0
 31
0.0
  0
LINE
  5
26B
330
17
100
AcDbEntity
  8
Reaproveitamento
 62
30
100
AcDbLine
 10
289.1
 20
-29.0
 30
0.0
 11
260.1
 21
0.0
 31
0.0
  0
LINE
  5
26C
330
17
100
AcDbEntity
  8
Reaproveitamento
 62
30
100
AcDbLine
 10
297.1
 20
-29.0
 30
0.0
 11
268.1
 21
0.0
 31
0.0
  0
LINE
  5
26D
330
17
100
AcDbEntity
  8
Reaproveitamento
 62
30
100
AcDbLine
 10
305.1
 20
-29.0
 30
0.0
 11
276.1
 21
0.0
 31
0.0
  0
LINE
  5
26E
330
17
100
AcDbEntity
  8
Reaproveitamento
 62
30
100
AcDbLine
 10
313.1
 20
-29.0
 30
0.0
 11
284.1
 21
0.0
 31
0.0
  0
LINE
  5
26F
330
17
100
AcDbEntity
  8
Reaproveitamento
 62
30
100
AcDbLine
 10
321.1
 20
-29.0
 30
0.0
 11
292.1
 21
0.0
 31
0.0
  0
LINE
  5
270
330
17
100
AcDbEntity
  8
Reaproveitamento
 62
30
100
AcDbLine
 10
329.1
 20
-29.0
 30
0.0
 11
300.1
 21
0.0
 31
0.0
  0
LINE
  5
271
330
17
100
AcDbEntity
  8
Reaproveitamento
 62
30
100
AcDbLine
 10
337.1
 20
-29.0
 30
0.0
 11
308.1
 21
0.0
 31
0.0
  0
LINE
  5
272
330
17
100
AcDbEntity
  8
Reaproveitamento
 62
30
100
AcDbLine
 10
345.1
 20
-29.0
 30
0.0
 11
316.1
 21
0.0
 31
0.0
  0
LINE
  5
273
330
17
100
AcDbEntity
  8
Reaproveitamento
 62
30
100
AcDbLine
 10
353.1
 20
-29.0
 30
0.0
 11
324.1
 21
0.0
 31
0.0
  0
LINE
  5
274
330
17
100
AcDbEntity
  8
Reaproveitamento
 62
30
100
AcDbLine
 10
361.1
 20
-29.0
 30
0.0
 11
332.1
 21
0.0
 31
0.0
  0
LINE
  5
275
330
17
100
AcDbEntity
  8
Reaproveitamento
 62
30
100
AcDbLine
 10
369.1
 20
-29.0
 30
0.0
 11
340.1
 21
0.0
 31
0.0
  0
LINE
  5
276
330
17
100
AcDbEntity
  8
Reaproveitamento
 62
30
100
AcDbLine
 10
377.1
 20
-29.0
 30
0.0
 11
348.1
 21
0.0
 31
0.0
  0
LINE
  5
277
330
17
100
AcDbEntity
  8
Reaproveitamento
 62
30
100
AcDbLine
 10
385.1
 20
-29.0
 30
0.0
 11
356.1
 21
0.0
 31
0.0
  0
LINE
  5
278
330
17
100
AcDbEntity
  8
Reaproveitamento
 62
30
100
AcDbLine
 10
393.1
 20
-29.0
 30
0.0
 11
364.1
 21
0.0
 31
0.0
  0
LINE
  5
279
330
17
100
AcDbEntity
  8
Reaproveitamento
 62
30
100
AcDbLine
 10
401.1
 20
-29.0
 30
0.0
 11
372.1
 21
0.0
 31
0.0
  0
LINE
  5
27A
330
17
100
AcDbEntity
  8
Reaproveitamento
 62
30
100
AcDbLine
 10
409.1
 20
-29.0
 30
0.0
 11
380.1
 21
0.0
 31
0.0
  0
LINE
  5
27B
330
17
100
AcDbEntity
  8
Reaproveitamento
 62
30
100
AcDbLine
 10
417.1
 20
-29.0
 30
0.0
 11
388.1
 21
0.0
 31
0.0
  0
LINE
  5
27C
330
17
100
AcDbEntity
  8
Reaproveitamento
 62
30
100
AcDbLine
 10
425.1
 20
-29.0
 30
0.0
 11
396.1
 21
0.0
 31
0.0
  0
LINE
  5
27D
330
17
100
AcDbEntity
  8
Reaproveitamento
 62
30
100
AcDbLine
 10
430.1
 20
-26.0
 30
0.0
 11
404.1
 21
0.0
 31
0.0
  0
LINE
  5
27E
330
17
100
AcDbEntity
  8
Reaproveitamento
 62
30
100
AcDbLine
 10
430.1
 20
-18.0
 30
0.0
 11
412.1
 21
0.0
 31
0.0
  0
LINE
  5
27F
330
17
100
AcDbEntity
  8
Reaproveitamento
 62
30
100
AcDbLine
 10
430.1
 20
-10.0
 30
0.0
 11
420.1
 21
0.0
 31
0.0
  0
LINE
  5
280
330
17
100
AcDbEntity
  8
Reaproveitamento
 62
30
100
AcDbLine
 10
430.1
 20
-2.0
 30
0.0
 11
428.1
 21
0.0
 31
0.0
  0
LINE
  5
281
330
17
100
AcDbEntity
  8
Reaproveitamento
 62
30
100
AcDbLine
 10
430.1
 20
-29.0
 30
0.0
 11
430.1
 21
-29.0
 31
0.0
  0
LINE
  5
282
330
17
100
AcDbEntity
  8
Reaproveitamento
 62
30
100
AcDbLine
 10
438.1
 20
-29.0
 30
0.0
 11
430.1
 21
-21.0
 31
0.0
  0
LINE
  5
283
330
17
100
AcDbEntity
  8
Reaproveitamento
 62
30
100
AcDbLine
 10
446.1
 20
-29.0
 30
0.0
 11
430.1
 21
-13.0
 31
0.0
  0
LINE
  5
284
330
17
100
AcDbEntity
  8
Reaproveitamento
 62
30
100
AcDbLine
 10
454.1
 20
-29.0
 30
0.0
 11
430.1
 21
-5.0
 31
0.0
  0
LINE
  5
285
330
17
100
AcDbEntity
  8
Reaproveitamento
 62
30
100
AcDbLine
 10
462.1
 20
-29.0
 30
0.0
 11
433.1
 21
0.0
 31
0.0
  0
LINE
  5
286
330
17
100
AcDbEntity
  8
Reaproveitamento
 62
30
100
AcDbLine
 10
470.1
 20
-29.0
 30
0.0
 11
441.1
 21
0.0
 31
0.0
  0
LINE
  5
287
330
17
100
AcDbEntity
  8
Reaproveitamento
 62
30
100
AcDbLine
 10
478.1
 20
-29.0
 30
0.0
 11
449.1
 21
0.0
 31
0.0
  0
LINE
  5
288
330
17
100
AcDbEntity
  8
Reaproveitamento
 62
30
100
AcDbLine
 10
486.1
 20
-29.0
 30
0.0
 11
457.1
 21
0.0
 31
0.0
  0
LINE
  5
289
330
17
100
AcDbEntity
  8
Reaproveitamento
 62
30
100
AcDbLine
 10
494.1
 20
-29.0
 30
0.0
 11
465.1
 21
0.0
 31
0.0
  0
LINE
  5
28A
330
17
100
AcDbEntity
  8
Reaproveitamento
 62
30
100
AcDbLine
 10
502.1
 20
-29.0
 30
0.0
 11
473.1
 21
0.0
 31
0.0
  0
LINE
  5
28B
330
17
100
AcDbEntity
  8
Reaproveitamento
 62
30
100
AcDbLine
 10
510.1
 20
-29.0
 30
0.0
 11
481.1
 21
0.0
 31
0.0
  0
LINE
  5
28C
330
17
100
AcDbEntity
  8
Reaproveitamento
 62
30
100
AcDbLine
 10
518.1
 20
-29.0
 30
0.0
 11
489.1
 21
0.0
 31
0.0
  0
LINE
  5
28D
330
17
100
AcDbEntity
  8
Reaproveitamento
 62
30
100
AcDbLine
 10
526.1
 20
-29.0
 30
0.0
 11
497.1
 21
0.0
 31
0.0
  0
LINE
  5
28E
330
17
100
AcDbEntity
  8
Reaproveitamento
 62
30
100
AcDbLine
 10
534.1
 20
-29.0
 30
0.0
 11
505.1
 21
0.0
 31
0.0
  0
LINE
  5
28F
330
17
100
AcDbEntity
  8
Reaproveitamento
 62
30
100
AcDbLine
 10
542.1
 20
-29.0
 30
0.0
 11
513.1
 21
0.0
 31
0.0
  0
LINE
  5
290
330
17
100
AcDbEntity
  8
Reaproveitamento
 62
30
100
AcDbLine
 10
550.1
 20
-29.0
 30
0.0
 11
521.1
 21
0.0
 31
0.0
  0
LINE
  5
291
330
17
100
AcDbEntity
  8
Reaproveitamento
 62
30
100
AcDbLine
 10
558.1
 20
-29.0
 30
0.0
 11
529.1
 21
0.0
 31
0.0
  0
LINE
  5
292
330
17
100
AcDbEntity
  8
Reaproveitamento
 62
30
100
AcDbLine
 10
566.1
 20
-29.0
 30
0.0
 11
537.1
 21
0.0
 31
0.0
  0
LINE
  5
293
330
17
100
AcDbEntity
  8
Reaproveitamento
 62
30
100
AcDbLine
 10
574.1
 20
-29.0
 30
0.0
 11
545.1
 21
0.0
 31
0.0
  0
LINE
  5
294
330
17
100
AcDbEntity
  8
Reaproveitamento
 62
30
100
AcDbLine
 10
582.1
 20
-29.0
 30
0.0
 11
553.1
 21
0.0
 31
0.0
  0
LINE
  5
295
330
17
100
AcDbEntity
  8
Reaproveitamento
 62
30
100
AcDbLine
 10
590.1
 20
-29.0
 30
0.0
 11
561.1
 21
0.0
 31
0.0
  0
LINE
  5
296
330
17
100
AcDbEntity
  8
Reaproveitamento
 62
30
100
AcDbLine
 10
598.1
 20
-29.0
 30
0.0
 11
569.1
 21
0.0
 31
0.0
  0
LINE
  5
297
330
17
100
AcDbEntity
  8
Reaproveitamento
 62
30
100
AcDbLine
 10
606.1
 20
-29.0
 30
0.0
 11
577.1
 21
0.0
 31
0.0
  0
LINE
  5
298
330
17
100
AcDbEntity
  8
Reaproveitamento
 62
30
100
AcDbLine
 10
614.1
 20
-29.0
 30
0.0
 11
585.1
 21
0.0
 31
0.0
  0
LINE
  5
299
330
17
100
AcDbEntity
  8
Reaproveitamento
 62
30
100
AcDbLine
 10
622.1
 20
-29.0
 30
0.0
 11
593.1
 21
0.0
 31
0.0
  0
LINE
  5
29A
330
17
100
AcDbEntity
  8
Reaproveitamento
 62
30
100
AcDbLine
 10
630.1
 20
-29.0
 30
0.0
 11
601.1
 21
0.0
 31
0.0
  0
LINE
  5
29B
330
17
100
AcDbEntity
  8
Reaproveitamento
 62
30
100
AcDbLine
 10
638.1
 20
-29.0
 30
0.0
 11
609.1
 21
0.0
 31
0.0
  0
LINE
  5
29C
330
17
100
AcDbEntity
  8
Reaproveitamento
 62
30
100
AcDbLine
 10
646.1
 20
-29.0
 30
0.0
 11
617.1
 21
0.0
 31
0.0
  0
LINE
  5
29D
330
17
100
AcDbEntity
  8
Reaproveitamento
 62
30
100
AcDbLine
 10
654.1
 20
-29.0
 30
0.0
 11
625.1
 21
0.0
 31
0.0
  0
LINE
  5
29E
330
17
100
AcDbEntity
  8
Reaproveitamento
 62
30
100
AcDbLine
 10
662.1
 20
-29.0
 30
0.0
 11
633.1
 21
0.0
 31
0.0
  0
LINE
  5
29F
330
17
100
AcDbEntity
  8
Reaproveitamento
 62
30
100
AcDbLine
 10
670.1
 20
-29.0
 30
0.0
 11
641.1
 21
0.0
 31
0.0
  0
LINE
  5
2A0
330
17
100
AcDbEntity
  8
Reaproveitamento
 62
30
100
AcDbLine
 10
674.5
 20
-25.399999999999977
 30
0.0
 11
649.1
 21
0.0
 31
0.0
  0
LINE
  5
2A1
330
17
100
AcDbEntity
  8
Reaproveitamento
 62
30
100
AcDbLine
 10
674.5
 20
-17.399999999999977
 30
0.0
 11
657.1
 21
0.0
 31
0.0
  0
LINE
  5
2A2
330
17
100
AcDbEntity
  8
Reaproveitamento
 62
30
100
AcDbLine
 10
674.5
 20
-9.399999999999977
 30
0.0
 11
665.1
 21
0.0
 31
0.0
  0
LINE
  5
2A3
330
17
100
AcDbEntity
  8
Reaproveitamento
 62
30
100
AcDbLine
 10
674.5
 20
-1.3999999999999773
 30
0.0
 11
673.1
 21
0.0
 31
0.0
  0
LINE
  5
2A4
330
17
100
AcDbEntity
  8
Reaproveitamento
 62
30
100
AcDbLine
 10
674.5
 20
-29.0
 30
0.0
 11
674.5
 21
-29.0
 31
0.0
  0
LINE
  5
2A5
330
17
100
AcDbEntity
  8
Reaproveitamento
 62
30
100
AcDbLine
 10
682.5
 20
-29.0
 30
0.0
 11
674.5
 21
-21.0
 31
0.0
  0
LINE
  5
2A6
330
17
100
AcDbEntity
  8
Reaproveitamento
 62
30
100
AcDbLine
 10
690.5
 20
-29.0
 30
0.0
 11
674.5
 21
-13.0
 31
0.0
  0
LINE
  5
2A7
330
17
100
AcDbEntity
  8
Reaproveitamento
 62
30
100
AcDbLine
 10
698.5
 20
-29.0
 30
0.0
 11
674.5
 21
-5.0
 31
0.0
  0
LINE
  5
2A8
330
17
100
AcDbEntity
  8
Reaproveitamento
 62
30
100
AcDbLine
 10
706.5
 20
-29.0
 30
0.0
 11
677.5
 21
0.0
 31
0.0
  0
LINE
  5
2A9
330
17
100
AcDbEntity
  8
Reaproveitamento
 62
30
100
AcDbLine
 10
714.5
 20
-29.0
 30
0.0
 11
685.5
 21
0.0
 31
0.0
  0
LINE
  5
2AA
330
17
100
AcDbEntity
  8
Reaproveitamento
 62
30
100
AcDbLine
 10
722.5
 20
-29.0
 30
0.0
 11
693.5
 21
0.0
 31
0.0
  0
LINE
  5
2AB
330
17
100
AcDbEntity
  8
Reaproveitamento
 62
30
100
AcDbLine
 10
730.5
 20
-29.0
 30
0.0
 11
701.5
 21
0.0
 31
0.0
  0
LINE
  5
2AC
330
17
100
AcDbEntity
  8
Reaproveitamento
 62
30
100
AcDbLine
 10
738.5
 20
-29.0
 30
0.0
 11
709.5
 21
0.0
 31
0.0
  0
LINE
  5
2AD
330
17
100
AcDbEntity
  8
Reaproveitamento
 62
30
100
AcDbLine
 10
746.5
 20
-29.0
 30
0.0
 11
717.5
 21
0.0
 31
0.0
  0
LINE
  5
2AE
330
17
100
AcDbEntity
  8
Reaproveitamento
 62
30
100
AcDbLine
 10
754.5
 20
-29.0
 30
0.0
 11
725.5
 21
0.0
 31
0.0
  0
LINE
  5
2AF
330
17
100
AcDbEntity
  8
Reaproveitamento
 62
30
100
AcDbLine
 10
762.5
 20
-29.0
 30
0.0
 11
733.5
 21
0.0
 31
0.0
  0
LINE
  5
2B0
330
17
100
AcDbEntity
  8
Reaproveitamento
 62
30
100
AcDbLine
 10
770.5
 20
-29.0
 30
0.0
 11
741.5
 21
0.0
 31
0.0
  0
LINE
  5
2B1
330
17
100
AcDbEntity
  8
Reaproveitamento
 62
30
100
AcDbLine
 10
778.5
 20
-29.0
 30
0.0
 11
749.5
 21
0.0
 31
0.0
  0
LINE
  5
2B2
330
17
100
AcDbEntity
  8
Reaproveitamento
 62
30
100
AcDbLine
 10
786.5
 20
-29.0
 30
0.0
 11
757.5
 21
0.0
 31
0.0
  0
LINE
  5
2B3
330
17
100
AcDbEntity
  8
Reaproveitamento
 62
30
100
AcDbLine
 10
794.5
 20
-29.0
 30
0.0
 11
765.5
 21
0.0
 31
0.0
  0
LINE
  5
2B4
330
17
100
AcDbEntity
  8
Reaproveitamento
 62
30
100
AcDbLine
 10
802.5
 20
-29.0
 30
0.0
 11
773.5
 21
0.0
 31
0.0
  0
LINE
  5
2B5
330
17
100
AcDbEntity
  8
Reaproveitamento
 62
30
100
AcDbLine
 10
810.5
 20
-29.0
 30
0.0
 11
781.5
 21
0.0
 31
0.0
  0
LINE
  5
2B6
330
17
100
AcDbEntity
  8
Reaproveitamento
 62
30
100
AcDbLine
 10
818.5
 20
-29.0
 30
0.0
 11
789.5
 21
0.0
 31
0.0
  0
LINE
  5
2B7
330
17
100
AcDbEntity
  8
Reaproveitamento
 62
30
100
AcDbLine
 10
826.5
 20
-29.0
 30
0.0
 11
797.5
 21
0.0
 31
0.0
  0
LINE
  5
2B8
330
17
100
AcDbEntity
  8
Reaproveitamento
 62
30
100
AcDbLine
 10
834.5
 20
-29.0
 30
0.0
 11
805.5
 21
0.0
 31
0.0
  0
LINE
  5
2B9
330
17
100
AcDbEntity
  8
Reaproveitamento
 62
30
100
AcDbLine
 10
842.5
 20
-29.0
 30
0.0
 11
813.5
 21
0.0
 31
0.0
  0
LINE
  5
2BA
330
17
100
AcDbEntity
  8
Reaproveitamento
 62
30
100
AcDbLine
 10
850.5
 20
-29.0
 30
0.0
 11
821.5
 21
0.0
 31
0.0
  0
LINE
  5
2BB
330
17
100
AcDbEntity
  8
Reaproveitamento
 62
30
100
AcDbLine
 10
858.5
 20
-29.0
 30
0.0
 11
829.5
 21
0.0
 31
0.0
  0
LINE
  5
2BC
330
17
100
AcDbEntity
  8
Reaproveitamento
 62
30
100
AcDbLine
 10
866.5
 20
-29.0
 30
0.0
 11
837.5
 21
0.0
 31
0.0
  0
LINE
  5
2BD
330
17
100
AcDbEntity
  8
Reaproveitamento
 62
30
100
AcDbLine
 10
874.5
 20
-29.0
 30
0.0
 11
845.5
 21
0.0
 31
0.0
  0
LINE
  5
2BE
330
17
100
AcDbEntity
  8
Reaproveitamento
 62
30
100
AcDbLine
 10
882.5
 20
-29.0
 30
0.0
 11
853.5
 21
0.0
 31
0.0
  0
LINE
  5
2BF
330
17
100
AcDbEntity
  8
Reaproveitamento
 62
30
100
AcDbLine
 10
890.5
 20
-29.0
 30
0.0
 11
861.5
 21
0.0
 31
0.0
  0
LINE
  5
2C0
330
17
100
AcDbEntity
  8
Reaproveitamento
 62
30
100
AcDbLine
 10
898.5
 20
-29.0
 30
0.0
 11
869.5
 21
0.0
 31
0.0
  0
LINE
  5
2C1
330
17
100
AcDbEntity
  8
Reaproveitamento
 62
30
100
AcDbLine
 10
906.5
 20
-29.0
 30
0.0
 11
877.5
 21
0.0
 31
0.0
  0
LINE
  5
2C2
330
17
100
AcDbEntity
  8
Reaproveitamento
 62
30
100
AcDbLine
 10
914.5
 20
-29.0
 30
0.0
 11
885.5
 21
0.0
 31
0.0
  0
LINE
  5
2C3
330
17
100
AcDbEntity
  8
Reaproveitamento
 62
30
100
AcDbLine
 10
920.5
 20
-27.0
 30
0.0
 11
893.5
 21
0.0
 31
0.0
  0
LINE
  5
2C4
330
17
100
AcDbEntity
  8
Reaproveitamento
 62
30
100
AcDbLine
 10
920.5
 20
-19.0
 30
0.0
 11
901.5
 21
0.0
 31
0.0
  0
LINE
  5
2C5
330
17
100
AcDbEntity
  8
Reaproveitamento
 62
30
100
AcDbLine
 10
920.5
 20
-11.0
 30
0.0
 11
909.5
 21
0.0
 31
0.0
  0
LINE
  5
2C6
330
17
100
AcDbEntity
  8
Reaproveitamento
 62
30
100
AcDbLine
 10
920.5
 20
-3.0
 30
0.0
 11
917.5
 21
0.0
 31
0.0
  0
LINE
  5
2C7
330
17
100
AcDbEntity
  8
Reaproveitamento
 62
30
100
AcDbLine
 10
920.5
 20
-29.0
 30
0.0
 11
920.5
 21
-29.0
 31
0.0
  0
LINE
  5
2C8
330
17
100
AcDbEntity
  8
Reaproveitamento
 62
30
100
AcDbLine
 10
928.5
 20
-29.0
 30
0.0
 11
920.5
 21
-21.0
 31
0.0
  0
LINE
  5
2C9
330
17
100
AcDbEntity
  8
Reaproveitamento
 62
30
100
AcDbLine
 10
936.5
 20
-29.0
 30
0.0
 11
920.5
 21
-13.0
 31
0.0
  0
LINE
  5
2CA
330
17
100
AcDbEntity
  8
Reaproveitamento
 62
30
100
AcDbLine
 10
944.5
 20
-29.0
 30
0.0
 11
920.5
 21
-5.0
 31
0.0
  0
LINE
  5
2CB
330
17
100
AcDbEntity
  8
Reaproveitamento
 62
30
100
AcDbLine
 10
952.5
 20
-29.0
 30
0.0
 11
923.5
 21
0.0
 31
0.0
  0
LINE
  5
2CC
330
17
100
AcDbEntity
  8
Reaproveitamento
 62
30
100
AcDbLine
 10
960.5
 20
-29.0
 30
0.0
 11
931.5
 21
0.0
 31
0.0
  0
LINE
  5
2CD
330
17
100
AcDbEntity
  8
Reaproveitamento
 62
30
100
AcDbLine
 10
968.5
 20
-29.0
 30
0.0
 11
939.5
 21
0.0
 31
0.0
  0
LINE
  5
2CE
330
17
100
AcDbEntity
  8
Reaproveitamento
 62
30
100
AcDbLine
 10
976.5
 20
-29.0
 30
0.0
 11
947.5
 21
0.0
 31
0.0
  0
LINE
  5
2CF
330
17
100
AcDbEntity
  8
Reaproveitamento
 62
30
100
AcDbLine
 10
984.5
 20
-29.0
 30
0.0
 11
955.5
 21
0.0
 31
0.0
  0
LINE
  5
2D0
330
17
100
AcDbEntity
  8
Reaproveitamento
 62
30
100
AcDbLine
 10
992.5
 20
-29.0
 30
0.0
 11
963.5
 21
0.0
 31
0.0
  0
LINE
  5
2D1
330
17
100
AcDbEntity
  8
Reaproveitamento
 62
30
100
AcDbLine
 10
1000.5
 20
-29.0
 30
0.0
 11
971.5
 21
0.0
 31
0.0
  0
LINE
  5
2D2
330
17
100
AcDbEntity
  8
Reaproveitamento
 62
30
100
AcDbLine
 10
1008.5
 20
-29.0
 30
0.0
 11
979.5
 21
0.0
 31
0.0
  0
LINE
  5
2D3
330
17
100
AcDbEntity
  8
Reaproveitamento
 62
30
100
AcDbLine
 10
1016.5
 20
-29.0
 30
0.0
 11
987.5
 21
0.0
 31
0.0
  0
LINE
  5
2D4
330
17
100
AcDbEntity
  8
Reaproveitamento
 62
30
100
AcDbLine
 10
1024.5
 20
-29.0
 30
0.0
 11
995.5
 21
0.0
 31
0.0
  0
LINE
  5
2D5
330
17
100
AcDbEntity
  8
Reaproveitamento
 62
30
100
AcDbLine
 10
1032.5
 20
-29.0
 30
0.0
 11
1003.5
 21
0.0
 31
0.0
  0
LINE
  5
2D6
330
17
100
AcDbEntity
  8
Reaproveitamento
 62
30
100
AcDbLine
 10
1040.5
 20
-29.0
 30
0.0
 11
1011.5
 21
0.0
 31
0.0
  0
LINE
  5
2D7
330
17
100
AcDbEntity
  8
Reaproveitamento
 62
30
100
AcDbLine
 10
1048.5
 20
-29.0
 30
0.0
 11
1019.5
 21
0.0
 31
0.0
  0
LINE
  5
2D8
330
17
100
AcDbEntity
  8
Reaproveitamento
 62
30
100
AcDbLine
 10
1056.5
 20
-29.0
 30
0.0
 11
1027.5
 21
0.0
 31
0.0
  0
LINE
  5
2D9
330
17
100
AcDbEntity
  8
Reaproveitamento
 62
30
100
AcDbLine
 10
1064.5
 20
-29.0
 30
0.0
 11
1035.5
 21
0.0
 31
0.0
  0
LINE
  5
2DA
330
17
100
AcDbEntity
  8
Reaproveitamento
 62
30
100
AcDbLine
 10
1072.5
 20
-29.0
 30
0.0
 11
1043.5
 21
0.0
 31
0.0
  0
LINE
  5
2DB
330
17
100
AcDbEntity
  8
Reaproveitamento
 62
30
100
AcDbLine
 10
1080.5
 20
-29.0
 30
0.0
 11
1051.5
 21
0.0
 31
0.0
  0
LINE
  5
2DC
330
17
100
AcDbEntity
  8
Reaproveitamento
 62
30
100
AcDbLine
 10
1088.5
 20
-29.0
 30
0.0
 11
1059.5
 21
0.0
 31
0.0
  0
LINE
  5
2DD
330
17
100
AcDbEntity
  8
Reaproveitamento
 62
30
100
AcDbLine
 10
1096.5
 20
-29.0
 30
0.0
 11
1067.5
 21
0.0
 31
0.0
  0
LINE
  5
2DE
330
17
100
AcDbEntity
  8
Reaproveitamento
 62
30
100
AcDbLine
 10
1104.5
 20
-29.0
 30
0.0
 11
1075.5
 21
0.0
 31
0.0
  0
LINE
  5
2DF
330
17
100
AcDbEntity
  8
Reaproveitamento
 62
30
100
AcDbLine
 10
1112.5
 20
-29.0
 30
0.0
 11
1083.5
 21
0.0
 31
0.0
  0
LINE
  5
2E0
330
17
100
AcDbEntity
  8
Reaproveitamento
 62
30
100
AcDbLine
 10
1120.5
 20
-29.0
 30
0.0
 11
1091.5
 21
0.0
 31
0.0
  0
LINE
  5
2E1
330
17
100
AcDbEntity
  8
Reaproveitamento
 62
30
100
AcDbLine
 10
1128.5
 20
-29.0
 30
0.0
 11
1099.5
 21
0.0
 31
0.0
  0
LINE
  5
2E2
330
17
100
AcDbEntity
  8
Reaproveitamento
 62
30
100
AcDbLine
 10
1136.5
 20
-29.0
 30
0.0
 11
1107.5
 21
0.0
 31
0.0
  0
LINE
  5
2E3
330
17
100
AcDbEntity
  8
Reaproveitamento
 62
30
100
AcDbLine
 10
1144.5
 20
-29.0
 30
0.0
 11
1115.5
 21
0.0
 31
0.0
  0
LINE
  5
2E4
330
17
100
AcDbEntity
  8
Reaproveitamento
 62
30
100
AcDbLine
 10
1152.5
 20
-29.0
 30
0.0
 11
1123.5
 21
0.0
 31
0.0
  0
LINE
  5
2E5
330
17
100
AcDbEntity
  8
Reaproveitamento
 62
30
100
AcDbLine
 10
1160.5
 20
-29.0
 30
0.0
 11
1131.5
 21
0.0
 31
0.0
  0
LINE
  5
2E6
330
17
100
AcDbEntity
  8
Reaproveitamento
 62
30
100
AcDbLine
 10
1168.5
 20
-29.0
 30
0.0
 11
1139.5
 21
0.0
 31
0.0
  0
LINE
  5
2E7
330
17
100
AcDbEntity
  8
Reaproveitamento
 62
30
100
AcDbLine
 10
1176.5
 20
-29.0
 30
0.0
 11
1147.5
 21
0.0
 31
0.0
  0
LINE
  5
2E8
330
17
100
AcDbEntity
  8
Reaproveitamento
 62
30
100
AcDbLine
 10
1184.5
 20
-29.0
 30
0.0
 11
1155.5
 21
0.0
 31
0.0
  0
LINE
  5
2E9
330
17
100
AcDbEntity
  8
Reaproveitamento
 62
30
100
AcDbLine
 10
1192.5
 20
-29.0
 30
0.0
 11
1163.5
 21
0.0
 31
0.0
  0
LINE
  5
2EA
330
17
100
AcDbEntity
  8
Reaproveitamento
 62
30
100
AcDbLine
 10
1200.5
 20
-29.0
 30
0.0
 11
1171.5
 21
0.0
 31
0.0
  0
LINE
  5
2EB
330
17
100
AcDbEntity
  8
Reaproveitamento
 62
30
100
AcDbLine
 10
1206.5
 20
-27.0
 30
0.0
 11
1179.5
 21
0.0
 31
0.0
  0
LINE
  5
2EC
330
17
100
AcDbEntity
  8
Reaproveitamento
 62
30
100
AcDbLine
 10
1206.5
 20
-19.0
 30
0.0
 11
1187.5
 21
0.0
 31
0.0
  0
LINE
  5
2ED
330
17
100
AcDbEntity
  8
Reaproveitamento
 62
30
100
AcDbLine
 10
1206.5
 20
-11.0
 30
0.0
 11
1195.5
 21
0.0
 31
0.0
  0
LINE
  5
2EE
330
17
100
AcDbEntity
  8
Reaproveitamento
 62
30
100
AcDbLine
 10
1206.5
 20
-3.0
 30
0.0
 11
1203.5
 21
0.0
 31
0.0
  0
LINE
  5
2EF
330
17
100
AcDbEntity
  8
Reaproveitamento
 62
30
100
AcDbLine
 10
1256.5
 20
-15.0
 30
0.0
 11
1256.5
 21
-15.0
 31
0.0
  0
LINE
  5
2F0
330
17
100
AcDbEntity
  8
Reaproveitamento
 62
30
100
AcDbLine
 10
1264.5
 20
-15.0
 30
0.0
 11
1256.5
 21
-7.0
 31
0.0
  0
LINE
  5
2F1
330
17
100
AcDbEntity
  8
Reaproveitamento
 62
30
100
AcDbLine
 10
1272.5
 20
-15.0
 30
0.0
 11
1257.5
 21
0.0
 31
0.0
  0
LINE
  5
2F2
330
17
100
AcDbEntity
  8
Reaproveitamento
 62
30
100
AcDbLine
 10
1280.5
 20
-15.0
 30
0.0
 11
1265.5
 21
0.0
 31
0.0
  0
LINE
  5
2F3
330
17
100
AcDbEntity
  8
Reaproveitamento
 62
30
100
AcDbLine
 10
1288.5
 20
-15.0
 30
0.0
 11
1273.5
 21
0.0
 31
0.0
  0
LINE
  5
2F4
330
17
100
AcDbEntity
  8
Reaproveitamento
 62
30
100
AcDbLine
 10
1296.5
 20
-15.0
 30
0.0
 11
1281.5
 21
0.0
 31
0.0
  0
LINE
  5
2F5
330
17
100
AcDbEntity
  8
Reaproveitamento
 62
30
100
AcDbLine
 10
1304.5
 20
-15.0
 30
0.0
 11
1289.5
 21
0.0
 31
0.0
  0
LINE
  5
2F6
330
17
100
AcDbEntity
  8
Reaproveitamento
 62
30
100
AcDbLine
 10
1312.5
 20
-15.0
 30
0.0
 11
1297.5
 21
0.0
 31
0.0
  0
LINE
  5
2F7
330
17
100
AcDbEntity
  8
Reaproveitamento
 62
30
100
AcDbLine
 10
1320.5
 20
-15.0
 30
0.0
 11
1305.5
 21
0.0
 31
0.0
  0
LINE
  5
2F8
330
17
100
AcDbEntity
  8
Reaproveitamento
 62
30
100
AcDbLine
 10
1328.5
 20
-15.0
 30
0.0
 11
1313.5
 21
0.0
 31
0.0
  0
LINE
  5
2F9
330
17
100
AcDbEntity
  8
Reaproveitamento
 62
30
100
AcDbLine
 10
1336.5
 20
-15.0
 30
0.0
 11
1321.5
 21
0.0
 31
0.0
  0
LINE
  5
2FA
330
17
100
AcDbEntity
  8
Reaproveitamento
 62
30
100
AcDbLine
 10
1344.5
 20
-15.0
 30
0.0
 11
1329.5
 21
0.0
 31
0.0
  0
LINE
  5
2FB
330
17
100
AcDbEntity
  8
Reaproveitamento
 62
30
100
AcDbLine
 10
1352.5
 20
-15.0
 30
0.0
 11
1337.5
 21
0.0
 31
0.0
  0
LINE
  5
2FC
330
17
100
AcDbEntity
  8
Reaproveitamento
 62
30
100
AcDbLine
 10
1360.5
 20
-15.0
 30
0.0
 11
1345.5
 21
0.0
 31
0.0
  0
LINE
  5
2FD
330
17
100
AcDbEntity
  8
Reaproveitamento
 62
30
100
AcDbLine
 10
1368.5
 20
-15.0
 30
0.0
 11
1353.5
 21
0.0
 31
0.0
  0
LINE
  5
2FE
330
17
100
AcDbEntity
  8
Reaproveitamento
 62
30
100
AcDbLine
 10
1376.5
 20
-15.0
 30
0.0
 11
1361.5
 21
0.0
 31
0.0
  0
LINE
  5
2FF
330
17
100
AcDbEntity
  8
Reaproveitamento
 62
30
100
AcDbLine
 10
1384.5
 20
-15.0
 30
0.0
 11
1369.5
 21
0.0
 31
0.0
  0
LINE
  5
300
330
17
100
AcDbEntity
  8
Reaproveitamento
 62
30
100
AcDbLine
 10
1392.5
 20
-15.0
 30
0.0
 11
1377.5
 21
0.0
 31
0.0
  0
LINE
  5
301
330
17
100
AcDbEntity
  8
Reaproveitamento
 62
30
100
AcDbLine
 10
1400.5
 20
-15.0
 30
0.0
 11
1385.5
 21
0.0
 31
0.0
  0
LINE
  5
302
330
17
100
AcDbEntity
  8
Reaproveitamento
 62
30
100
AcDbLine
 10
1408.5
 20
-15.0
 30
0.0
 11
1393.5
 21
0.0
 31
0.0
  0
LINE
  5
303
330
17
100
AcDbEntity
  8
Reaproveitamento
 62
30
100
AcDbLine
 10
1416.5
 20
-15.0
 30
0.0
 11
1401.5
 21
0.0
 31
0.0
  0
LINE
  5
304
330
17
100
AcDbEntity
  8
Reaproveitamento
 62
30
100
AcDbLine
 10
1424.5
 20
-15.0
 30
0.0
 11
1409.5
 21
0.0
 31
0.0
  0
LINE
  5
305
330
17
100
AcDbEntity
  8
Reaproveitamento
 62
30
100
AcDbLine
 10
1430.0
 20
-12.5
 30
0.0
 11
1417.5
 21
0.0
 31
0.0
  0
LINE
  5
306
330
17
100
AcDbEntity
  8
Reaproveitamento
 62
30
100
AcDbLine
 10
1430.0
 20
-4.5
 30
0.0
 11
1425.5
 21
0.0
 31
0.0
  0
LINE
  5
307
330
17
100
AcDbEntity
  8
Reaproveitamento
 62
30
100
AcDbLine
 10
1430.0
 20
-15.0
 30
0.0
 11
1430.0
 21
-15.0
 31
0.0
  0
LINE
  5
308
330
17
100
AcDbEntity
  8
Reaproveitamento
 62
30
100
AcDbLine
 10
1438.0
 20
-15.0
 30
0.0
 11
1430.0
 21
-7.0
 31
0.0
  0
LINE
  5
309
330
17
100
AcDbEntity
  8
Reaproveitamento
 62
30
100
AcDbLine
 10
1446.0
 20
-15.0
 30
0.0
 11
1431.0
 21
0.0
 31
0.0
  0
LINE
  5
30A
330
17
100
AcDbEntity
  8
Reaproveitamento
 62
30
100
AcDbLine
 10
1454.0
 20
-15.0
 30
0.0
 11
1439.0
 21
0.0
 31
0.0
  0
LINE
  5
30B
330
17
100
AcDbEntity
  8
Reaproveitamento
 62
30
100
AcDbLine
 10
1462.0
 20
-15.0
 30
0.0
 11
1447.0
 21
0.0
 31
0.0
  0
LINE
  5
30C
330
17
100
AcDbEntity
  8
Reaproveitamento
 62
30
100
AcDbLine
 10
1470.0
 20
-15.0
 30
0.0
 11
1455.0
 21
0.0
 31
0.0
  0
LINE
  5
30D
330
17
100
AcDbEntity
  8
Reaproveitamento
 62
30
100
AcDbLine
 10
1478.0
 20
-15.0
 30
0.0
 11
1463.0
 21
0.0
 31
0.0
  0
LINE
  5
30E
330
17
100
AcDbEntity
  8
Reaproveitamento
 62
30
100
AcDbLine
 10
1486.0
 20
-15.0
 30
0.0
 11
1471.0
 21
0.0
 31
0.0
  0
LINE
  5
30F
330
17
100
AcDbEntity
  8
Reaproveitamento
 62
30
100
AcDbLine
 10
1494.0
 20
-15.0
 30
0.0
 11
1479.0
 21
0.0
 31
0.0
  0
LINE
  5
310
330
17
100
AcDbEntity
  8
Reaproveitamento
 62
30
100
AcDbLine
 10
1502.0
 20
-15.0
 30
0.0
 11
1487.0
 21
0.0
 31
0.0
  0
LINE
  5
311
330
17
100
AcDbEntity
  8
Reaproveitamento
 62
30
100
AcDbLine
 10
1510.0
 20
-15.0
 30
0.0
 11
1495.0
 21
0.0
 31
0.0
  0
LINE
  5
312
330
17
100
AcDbEntity
  8
Reaproveitamento
 62
30
100
AcDbLine
 10
1518.0
 20
-15.0
 30
0.0
 11
1503.0
 21
0.0
 31
0.0
  0
LINE
  5
313
330
17
100
AcDbEntity
  8
Reaproveitamento
 62
30
100
AcDbLine
 10
1526.0
 20
-15.0
 30
0.0
 11
1511.0
 21
0.0
 31
0.0
  0
LINE
  5
314
330
17
100
AcDbEntity
  8
Reaproveitamento
 62
30
100
AcDbLine
 10
1534.0
 20
-15.0
 30
0.0
 11
1519.0
 21
0.0
 31
0.0
  0
LINE
  5
315
330
17
100
AcDbEntity
  8
Reaproveitamento
 62
30
100
AcDbLine
 10
1542.0
 20
-15.0
 30
0.0
 11
1527.0
 21
0.0
 31
0.0
  0
LINE
  5
316
330
17
100
AcDbEntity
  8
Reaproveitamento
 62
30
100
AcDbLine
 10
1550.0
 20
-15.0
 30
0.0
 11
1535.0
 21
0.0
 31
0.0
  0
LINE
  5
317
330
17
100
AcDbEntity
  8
Reaproveitamento
 62
30
100
AcDbLine
 10
1558.0
 20
-15.0
 30
0.0
 11
1543.0
 21
0.0
 31
0.0
  0
LINE
  5
318
330
17
100
AcDbEntity
  8
Reaproveitamento
 62
30
100
AcDbLine
 10
1566.0
 20
-15.0
 30
0.0
 11
1551.0
 21
0.0
 31
0.0
  0
LINE
  5
319
330
17
100
AcDbEntity
  8
Reaproveitamento
 62
30
100
AcDbLine
 10
1574.0
 20
-15.0
 30
0.0
 11
1559.0
 21
0.0
 31
0.0
  0
LINE
  5
31A
330
17
100
AcDbEntity
  8
Reaproveitamento
 62
30
100
AcDbLine
 10
1582.0
 20
-15.0
 30
0.0
 11
1567.0
 21
0.0
 31
0.0
  0
LINE
  5
31B
330
17
100
AcDbEntity
  8
Reaproveitamento
 62
30
100
AcDbLine
 10
1590.0
 20
-15.0
 30
0.0
 11
1575.0
 21
0.0
 31
0.0
  0
LINE
  5
31C
330
17
100
AcDbEntity
  8
Reaproveitamento
 62
30
100
AcDbLine
 10
1598.0
 20
-15.0
 30
0.0
 11
1583.0
 21
0.0
 31
0.0
  0
LINE
  5
31D
330
17
100
AcDbEntity
  8
Reaproveitamento
 62
30
100
AcDbLine
 10
1606.0
 20
-15.0
 30
0.0
 11
1591.0
 21
0.0
 31
0.0
  0
LINE
  5
31E
330
17
100
AcDbEntity
  8
Reaproveitamento
 62
30
100
AcDbLine
 10
1614.0
 20
-15.0
 30
0.0
 11
1599.0
 21
0.0
 31
0.0
  0
LINE
  5
31F
330
17
100
AcDbEntity
  8
Reaproveitamento
 62
30
100
AcDbLine
 10
1622.0
 20
-15.0
 30
0.0
 11
1607.0
 21
0.0
 31
0.0
  0
LINE
  5
320
330
17
100
AcDbEntity
  8
Reaproveitamento
 62
30
100
AcDbLine
 10
1630.0
 20
-15.0
 30
0.0
 11
1615.0
 21
0.0
 31
0.0
  0
LINE
  5
321
330
17
100
AcDbEntity
  8
Reaproveitamento
 62
30
100
AcDbLine
 10
1638.0
 20
-15.0
 30
0.0
 11
1623.0
 21
0.0
 31
0.0
  0
LINE
  5
322
330
17
100
AcDbEntity
  8
Reaproveitamento
 62
30
100
AcDbLine
 10
1646.0
 20
-15.0
 30
0.0
 11
1631.0
 21
0.0
 31
0.0
  0
LINE
  5
323
330
17
100
AcDbEntity
  8
Reaproveitamento
 62
30
100
AcDbLine
 10
1654.0
 20
-15.0
 30
0.0
 11
1639.0
 21
0.0
 31
0.0
  0
LINE
  5
324
330
17
100
AcDbEntity
  8
Reaproveitamento
 62
30
100
AcDbLine
 10
1662.0
 20
-15.0
 30
0.0
 11
1647.0
 21
0.0
 31
0.0
  0
LINE
  5
325
330
17
100
AcDbEntity
  8
Reaproveitamento
 62
30
100
AcDbLine
 10
1670.0
 20
-15.0
 30
0.0
 11
1655.0
 21
0.0
 31
0.0
  0
LINE
  5
326
330
17
100
AcDbEntity
  8
Reaproveitamento
 62
30
100
AcDbLine
 10
1674.0
 20
-11.0
 30
0.0
 11
1663.0
 21
0.0
 31
0.0
  0
LINE
  5
327
330
17
100
AcDbEntity
  8
Reaproveitamento
 62
30
100
AcDbLine
 10
1674.0
 20
-3.0
 30
0.0
 11
1671.0
 21
0.0
 31
0.0
  0
LINE
  5
328
330
17
100
AcDbEntity
  8
Reaproveitamento
 62
30
100
AcDbLine
 10
1674.0
 20
-15.0
 30
0.0
 11
1674.0
 21
-15.0
 31
0.0
  0
LINE
  5
329
330
17
100
AcDbEntity
  8
Reaproveitamento
 62
30
100
AcDbLine
 10
1682.0
 20
-15.0
 30
0.0
 11
1674.0
 21
-7.0
 31
0.0
  0
LINE
  5
32A
330
17
100
AcDbEntity
  8
Reaproveitamento
 62
30
100
AcDbLine
 10
1690.0
 20
-15.0
 30
0.0
 11
1675.0
 21
0.0
 31
0.0
  0
LINE
  5
32B
330
17
100
AcDbEntity
  8
Reaproveitamento
 62
30
100
AcDbLine
 10
1698.0
 20
-15.0
 30
0.0
 11
1683.0
 21
0.0
 31
0.0
  0
LINE
  5
32C
330
17
100
AcDbEntity
  8
Reaproveitamento
 62
30
100
AcDbLine
 10
1706.0
 20
-15.0
 30
0.0
 11
1691.0
 21
0.0
 31
0.0
  0
LINE
  5
32D
330
17
100
AcDbEntity
  8
Reaproveitamento
 62
30
100
AcDbLine
 10
1714.0
 20
-15.0
 30
0.0
 11
1699.0
 21
0.0
 31
0.0
  0
LINE
  5
32E
330
17
100
AcDbEntity
  8
Reaproveitamento
 62
30
100
AcDbLine
 10
1722.0
 20
-15.0
 30
0.0
 11
1707.0
 21
0.0
 31
0.0
  0
LINE
  5
32F
330
17
100
AcDbEntity
  8
Reaproveitamento
 62
30
100
AcDbLine
 10
1730.0
 20
-15.0
 30
0.0
 11
1715.0
 21
0.0
 31
0.0
  0
LINE
  5
330
330
17
100
AcDbEntity
  8
Reaproveitamento
 62
30
100
AcDbLine
 10
1738.0
 20
-15.0
 30
0.0
 11
1723.0
 21
0.0
 31
0.0
  0
LINE
  5
331
330
17
100
AcDbEntity
  8
Reaproveitamento
 62
30
100
AcDbLine
 10
1746.0
 20
-15.0
 30
0.0
 11
1731.0
 21
0.0
 31
0.0
  0
LINE
  5
332
330
17
100
AcDbEntity
  8
Reaproveitamento
 62
30
100
AcDbLine
 10
1754.0
 20
-15.0
 30
0.0
 11
1739.0
 21
0.0
 31
0.0
  0
LINE
  5
333
330
17
100
AcDbEntity
  8
Reaproveitamento
 62
30
100
AcDbLine
 10
1762.0
 20
-15.0
 30
0.0
 11
1747.0
 21
0.0
 31
0.0
  0
LINE
  5
334
330
17
100
AcDbEntity
  8
Reaproveitamento
 62
30
100
AcDbLine
 10
1770.0
 20
-15.0
 30
0.0
 11
1755.0
 21
0.0
 31
0.0
  0
LINE
  5
335
330
17
100
AcDbEntity
  8
Reaproveitamento
 62
30
100
AcDbLine
 10
1778.0
 20
-15.0
 30
0.0
 11
1763.0
 21
0.0
 31
0.0
  0
LINE
  5
336
330
17
100
AcDbEntity
  8
Reaproveitamento
 62
30
100
AcDbLine
 10
1786.0
 20
-15.0
 30
0.0
 11
1771.0
 21
0.0
 31
0.0
  0
LINE
  5
337
330
17
100
AcDbEntity
  8
Reaproveitamento
 62
30
100
AcDbLine
 10
1794.0
 20
-15.0
 30
0.0
 11
1779.0
 21
0.0
 31
0.0
  0
LINE
  5
338
330
17
100
AcDbEntity
  8
Reaproveitamento
 62
30
100
AcDbLine
 10
1802.0
 20
-15.0
 30
0.0
 11
1787.0
 21
0.0
 31
0.0
  0
LINE
  5
339
330
17
100
AcDbEntity
  8
Reaproveitamento
 62
30
100
AcDbLine
 10
1810.0
 20
-15.0
 30
0.0
 11
1795.0
 21
0.0
 31
0.0
  0
LINE
  5
33A
330
17
100
AcDbEntity
  8
Reaproveitamento
 62
30
100
AcDbLine
 10
1818.0
 20
-15.0
 30
0.0
 11
1803.0
 21
0.0
 31
0.0
  0
LINE
  5
33B
330
17
100
AcDbEntity
  8
Reaproveitamento
 62
30
100
AcDbLine
 10
1826.0
 20
-15.0
 30
0.0
 11
1811.0
 21
0.0
 31
0.0
  0
LINE
  5
33C
330
17
100
AcDbEntity
  8
Reaproveitamento
 62
30
100
AcDbLine
 10
1834.0
 20
-15.0
 30
0.0
 11
1819.0
 21
0.0
 31
0.0
  0
LINE
  5
33D
330
17
100
AcDbEntity
  8
Reaproveitamento
 62
30
100
AcDbLine
 10
1842.0
 20
-15.0
 30
0.0
 11
1827.0
 21
0.0
 31
0.0
  0
LINE
  5
33E
330
17
100
AcDbEntity
  8
Reaproveitamento
 62
30
100
AcDbLine
 10
1850.0
 20
-15.0
 30
0.0
 11
1835.0
 21
0.0
 31
0.0
  0
LINE
  5
33F
330
17
100
AcDbEntity
  8
Reaproveitamento
 62
30
100
AcDbLine
 10
1858.0
 20
-15.0
 30
0.0
 11
1843.0
 21
0.0
 31
0.0
  0
LINE
  5
340
330
17
100
AcDbEntity
  8
Reaproveitamento
 62
30
100
AcDbLine
 10
1866.0
 20
-15.0
 30
0.0
 11
1851.0
 21
0.0
 31
0.0
  0
LINE
  5
341
330
17
100
AcDbEntity
  8
Reaproveitamento
 62
30
100
AcDbLine
 10
1874.0
 20
-15.0
 30
0.0
 11
1859.0
 21
0.0
 31
0.0
  0
LINE
  5
342
330
17
100
AcDbEntity
  8
Reaproveitamento
 62
30
100
AcDbLine
 10
1882.0
 20
-15.0
 30
0.0
 11
1867.0
 21
0.0
 31
0.0
  0
LINE
  5
343
330
17
100
AcDbEntity
  8
Reaproveitamento
 62
30
100
AcDbLine
 10
1890.0
 20
-15.0
 30
0.0
 11
1875.0
 21
0.0
 31
0.0
  0
LINE
  5
344
330
17
100
AcDbEntity
  8
Reaproveitamento
 62
30
100
AcDbLine
 10
1898.0
 20
-15.0
 30
0.0
 11
1883.0
 21
0.0
 31
0.0
  0
LINE
  5
345
330
17
100
AcDbEntity
  8
Reaproveitamento
 62
30
100
AcDbLine
 10
1906.0
 20
-15.0
 30
0.0
 11
1891.0
 21
0.0
 31
0.0
  0
LINE
  5
346
330
17
100
AcDbEntity
  8
Reaproveitamento
 62
30
100
AcDbLine
 10
1914.0
 20
-15.0
 30
0.0
 11
1899.0
 21
0.0
 31
0.0
  0
LINE
  5
347
330
17
100
AcDbEntity
  8
Reaproveitamento
 62
30
100
AcDbLine
 10
1920.0
 20
-13.0
 30
0.0
 11
1907.0
 21
0.0
 31
0.0
  0
LINE
  5
348
330
17
100
AcDbEntity
  8
Reaproveitamento
 62
30
100
AcDbLine
 10
1920.0
 20
-5.0
 30
0.0
 11
1915.0
 21
0.0
 31
0.0
  0
ENDSEC
  0
SECTION
  2
OBJECTS
  0
DICTIONARY
  5
A
330
0
100
AcDbDictionary
281
1
  3
ACAD_COLOR
350
B
  3
ACAD_GROUP
350
C
  3
ACAD_LAYOUT
350
D
  3
ACAD_MATERIAL
350
E
  3
ACAD_MLEADERSTYLE
350
F
  3
ACAD_MLINESTYLE
350
10
  3
ACAD_PLOTSETTINGS
350
11
  3
ACAD_PLOTSTYLENAME
350
12
  3
ACAD_SCALELIST
350
14
  3
ACAD_TABLESTYLE
350
15
  3
ACAD_VISUALSTYLE
350
16
  3
EZDXF_META
350
2D
  0
DICTIONARY
  5
B
330
A
100
AcDbDictionary
281
1
  0
DICTIONARY
  5
C
330
A
100
AcDbDictionary
281
1
  0
DICTIONARY
  5
D
330
A
100
AcDbDictionary
281
1
  3
Model
350
1A
  3
Layout1
350
1E
  0
DICTIONARY
  5
E
330
A
100
AcDbDictionary
281
1
  3
ByBlock
350
1F
  3
ByLayer
350
20
  3
Global
350
21
  0
DICTIONARY
  5
F
330
A
100
AcDbDictionary
281
1
  3
Standard
350
2C
  0
DICTIONARY
  5
10
330
A
100
AcDbDictionary
281
1
  3
Standard
350
22
  0
DICTIONARY
  5
11
330
A
100
AcDbDictionary
281
1
  0
ACDBDICTIONARYWDFLT
  5
12
330
A
100
AcDbDictionary
281
1
  3
Normal
350
13
100
AcDbDictionaryWithDefault
340
13
  0
ACDBPLACEHOLDER
  5
13
330
12
  0
DICTIONARY
  5
14
330
A
100
AcDbDictionary
281
1
  0
DICTIONARY
  5
15
330
A
100
AcDbDictionary
281
1
  0
DICTIONARY
  5
16
330
A
100
AcDbDictionary
281
1
  0
LAYOUT
  5
1A
330
D
100
AcDbPlotSettings
  1

  4
A3
  6

 40
7.5
 41
20.0
 42
7.5
 43
20.0
 44
420.0
 45
297.0
 46
0.0
 47
0.0
 48
0.0
 49
0.0
140
0.0
141
0.0
142
1.0
143
1.0
 70
1024
 72
1
 73
0
 74
5
  7

 75
16
 76
0
 77
2
 78
300
147
1.0
148
0.0
149
0.0
100
AcDbLayout
  1
Model
 70
1
 71
0
 10
0.0
 20
0.0
 11
420.0
 21
297.0
 12
0.0
 22
0.0
 32
0.0
 14
1e+20
 24
1e+20
 34
1e+20
 15
-1e+20
 25
-1e+20
 35
-1e+20
146
0.0
 13
0.0
 23
0.0
 33
0.0
 16
1.0
 26
0.0
 36
0.0
 17
0.0
 27
1.0
 37
0.0
 76
1
330
17
  0
LAYOUT
  5
1E
330
D
100
AcDbPlotSettings
  1

  4
A3
  6

 40
7.5
 41
20.0
 42
7.5
 43
20.0
 44
420.0
 45
297.0
 46
0.0
 47
0.0
 48
0.0
 49
0.0
140
0.0
141
0.0
142
1.0
143
1.0
 70
0
 72
1
 73
0
 74
5
  7

 75
16
 76
0
 77
2
 78
300
147
1.0
148
0.0
149
0.0
100
AcDbLayout
  1
Layout1
 70
1
 71
1
 10
0.0
 20
0.0
 11
420.0
 21
297.0
 12
0.0
 22
0.0
 32
0.0
 14
1e+20
 24
1e+20
 34
1e+20
 15
-1e+20
 25
-1e+20
 35
-1e+20
146
0.0
 13
0.0
 23
0.0
 33
0.0
 16
1.0
 26
0.0
 36
0.0
 17
0.0
 27
1.0
 37
0.0
 76
1
330
1B
  0
MATERIAL
  5
1F
102
{ACAD_REACTORS
330
E
102
}
330
E
100
AcDbMaterial
  1
ByBlock
  2

 70
0
 40
1.0
 71
1
 41
1.0
 91
-1023410177
 42
1.0
 72
1
  3

 73
1
 74
1
 75
1
 44
0.5
 73
0
 45
1.0
 46
1.0
 77
1
  4

 78
1
 79
1
170
1
 48
1.0
171
1
  6

172
1
173
1
174
1
140
1.0
141
1.0
175
1
  7

176
1
177
1
178
1
143
1.0
179
1
  8

270
1
271
1
272
1
145
1.0
146
1.0
273
1
  9

274
1
275
1
276
1
 42
1.0
 72
1
  3

 73
1
 74
1
 75
1
 94
63
  0
MATERIAL
  5
20
102
{ACAD_REACTORS
330
E
102
}
330
E
100
AcDbMaterial
  1
ByLayer
  2

 70
0
 40
1.0
 71
1
 41
1.0
 91
-1023410177
 42
1.0
 72
1
  3

 73
1
 74
1
 75
1
 44
0.5
 73
0
 45
1.0
 46
1.0
 77
1
  4

 78
1
 79
1
170
1
 48
1.0
171
1
  6

172
1
173
1
174
1
140
1.0
141
1.0
175
1
  7

176
1
177
1
178
1
143
1.0
179
1
  8

270
1
271
1
272
1
145
1.0
146
1.0
273
1
  9

274
1
275
1
276
1
 42
1.0
 72
1
  3

 73
1
 74
1
 75
1
 94
63
  0
MATERIAL
  5
21
102
{ACAD_REACTORS
330
E
102
}
330
E
100
AcDbMaterial
  1
Global
  2

 70
0
 40
1.0
 71
1
 41
1.0
 91
-1023410177
 42
1.0
 72
1
  3

 73
1
 74
1
 75
1
 44
0.5
 73
0
 45
1.0
 46
1.0
 77
1
  4

 78
1
 79
1
170
1
 48
1.0
171
1
  6

172
1
173
1
174
1
140
1.0
141
1.0
175
1
  7

176
1
177
1
178
1
143
1.0
179
1
  8

270
1
271
1
272
1
145
1.0
146
1.0
273
1
  9

274
1
275
1
276
1
 42
1.0
 72
1
  3

 73
1
 74
1
 75
1
 94
63
  0
MLINESTYLE
  5
22
102
{ACAD_REACTORS
330
10
102
}
330
10
100
AcDbMlineStyle
  2
Standard
 70
0
  3

 62
256
 51
90.0
 52
90.0
 71
2
 49
0.5
 62
256
  6
BYLAYER
 49
-0.5
 62
256
  6
BYLAYER
  0
MLEADERSTYLE
  5
2C
102
{ACAD_REACTORS
330
F
102
}
330
F
100
AcDbMLeaderStyle
179
2
170
2
171
1
172
0
 90
2
 40
0.0
 41
0.0
173
1
 91
-1056964608
 92
-2
290
1
 42
2.0
291
1
 43
8.0
  3
Standard
 44
4.0
300

342
29
174
1
175
1
176
0
178
1
 93
-1056964608
 45
4.0
292
0
297
0
 46
4.0
 94
-1056964608
 47
1.0
 49
1.0
140
1.0
294
1
141
0.0
177
0
142
1.0
295
0
296
0
143
3.75
271
0
272
9
273
9
  0
DICTIONARY
  5
2D
330
A
100
AcDbDictionary
280
1
281
1
  3
CREATED_BY_EZDXF
350
2E
  3
WRITTEN_BY_EZDXF
350
34B
  0
DICTIONARYVAR
  5
2E
330
2D
100
DictionaryVariables
280
0
  1
1.4.3 @ 2026-03-10T23:16:27.699935+00:00
  0
DICTIONARYVAR
  5
34B
330
2D
100
DictionaryVariables
280
0
  1
1.4.3 @ 2026-03-10T23:16:27.736507+00:00
  0
ENDSEC
  0
EOF
