  0
SECTION
  2
HEADER
  9
$ACADVER
  1
AC1024
  9
$ACADMAINTVER
 70
6
  9
$DWGCODEPAGE
  3
ANSI_1252
  9
$LASTSAVEDBY
  1
ezdxf
  9
$INSBASE
 10
0.0
 20
0.0
 30
0.0
  9
$EXTMIN
 10
1e+20
 20
1e+20
 30
1e+20
  9
$EXTMAX
 10
-1e+20
 20
-1e+20
 30
-1e+20
  9
$LIMMIN
 10
0.0
 20
0.0
  9
$LIMMAX
 10
420.0
 20
297.0
  9
$ORTHOMODE
 70
0
  9
$REGENMODE
 70
1
  9
$FILLMODE
 70
1
  9
$QTEXTMODE
 70
0
  9
$MIRRTEXT
 70
1
  9
$LTSCALE
 40
1.0
  9
$ATTMODE
 70
1
  9
$TEXTSIZE
 40
2.5
  9
$TRACEWID
 40
1.0
  9
$TEXTSTYLE
  7
Standard
  9
$CLAYER
  8
0
  9
$CELTYPE
  6
ByLayer
  9
$CECOLOR
 62
256
  9
$CELTSCALE
 40
1.0
  9
$DISPSILH
 70
0
  9
$DIMSCALE
 40
1.0
  9
$DIMASZ
 40
2.5
  9
$DIMEXO
 40
0.625
  9
$DIMDLI
 40
3.75
  9
$DIMRND
 40
0.0
  9
$DIMDLE
 40
0.0
  9
$DIMEXE
 40
1.25
  9
$DIMTP
 40
0.0
  9
$DIMTM
 40
0.0
  9
$DIMTXT
 40
2.5
  9
$DIMCEN
 40
2.5
  9
$DIMTSZ
 40
0.0
  9
$DIMTOL
 70
0
  9
$DIMLIM
 70
0
  9
$DIMTIH
 70
0
  9
$DIMTOH
 70
0
  9
$DIMSE1
 70
0
  9
$DIMSE2
 70
0
  9
$DIMTAD
 70
1
  9
$DIMZIN
 70
8
  9
$DIMBLK
  1

  9
$DIMASO
 70
1
  9
$DIMSHO
 70
1
  9
$DIMPOST
  1

  9
$DIMAPOST
  1

  9
$DIMALT
 70
0
  9
$DIMALTD
 70
3
  9
$DIMALTF
 40
0.03937007874
  9
$DIMLFAC
 40
1.0
  9
$DIMTOFL
 70
1
  9
$DIMTVP
 40
0.0
  9
$DIMTIX
 70
0
  9
$DIMSOXD
 70
0
  9
$DIMSAH
 70
0
  9
$DIMBLK1
  1

  9
$DIMBLK2
  1

  9
$DIMSTYLE
  2
ISO-25
  9
$DIMCLRD
 70
0
  9
$DIMCLRE
 70
0
  9
$DIMCLRT
 70
0
  9
$DIMTFAC
 40
1.0
  9
$DIMGAP
 40
0.625
  9
$DIMJUST
 70
0
  9
$DIMSD1
 70
0
  9
$DIMSD2
 70
0
  9
$DIMTOLJ
 70
0
  9
$DIMTZIN
 70
8
  9
$DIMALTZ
 70
0
  9
$DIMALTTZ
 70
0
  9
$DIMUPT
 70
0
  9
$DIMDEC
 70
2
  9
$DIMTDEC
 70
2
  9
$DIMALTU
 70
2
  9
$DIMALTTD
 70
3
  9
$DIMTXSTY
  7
Standard
  9
$DIMAUNIT
 70
0
  9
$DIMADEC
 70
0
  9
$DIMALTRND
 40
0.0
  9
$DIMAZIN
 70
0
  9
$DIMDSEP
 70
44
  9
$DIMATFIT
 70
3
  9
$DIMFRAC
 70
0
  9
$DIMLDRBLK
  1

  9
$DIMLUNIT
 70
2
  9
$DIMLWD
 70
-2
  9
$DIMLWE
 70
-2
  9
$DIMTMOVE
 70
0
  9
$DIMFXL
 40
1.0
  9
$DIMFXLON
 70
0
  9
$DIMJOGANG
 40
0.785398163397
  9
$DIMTFILL
 70
0
  9
$DIMTFILLCLR
 70
0
  9
$DIMARCSYM
 70
0
  9
$DIMLTYPE
  6

  9
$DIMLTEX1
  6

  9
$DIMLTEX2
  6

  9
$DIMTXTDIRECTION
 70
0
  9
$LUNITS
 70
2
  9
$LUPREC
 70
4
  9
$SKETCHINC
 40
1.0
  9
$FILLETRAD
 40
10.0
  9
$AUNITS
 70
0
  9
$AUPREC
 70
2
  9
$MENU
  1
.
  9
$ELEVATION
 40
0.0
  9
$PELEVATION
 40
0.0
  9
$THICKNESS
 40
0.0
  9
$LIMCHECK
 70
0
  9
$CHAMFERA
 40
0.0
  9
$CHAMFERB
 40
0.0
  9
$CHAMFERC
 40
0.0
  9
$CHAMFERD
 40
0.0
  9
$SKPOLY
 70
0
  9
$TDCREATE
 40
2461109.3059027777
  9
$TDUCREATE
 40
2458532.153996898
  9
$TDUPDATE
 40
2461109.3059143517
  9
$TDUUPDATE
 40
2458532.1544311
  9
$TDINDWG
 40
0.0
  9
$TDUSRTIMER
 40
0.0
  9
$USRTIMER
 70
1
  9
$ANGBASE
 50
0.0
  9
$ANGDIR
 70
0
  9
$PDMODE
 70
0
  9
$PDSIZE
 40
0.0
  9
$PLINEWID
 40
0.0
  9
$SPLFRAME
 70
0
  9
$SPLINETYPE
 70
6
  9
$SPLINESEGS
 70
8
  9
$HANDSEED
  5
276
  9
$SURFTAB1
 70
6
  9
$SURFTAB2
 70
6
  9
$SURFTYPE
 70
6
  9
$SURFU
 70
6
  9
$SURFV
 70
6
  9
$UCSBASE
  2

  9
$UCSNAME
  2

  9
$UCSORG
 10
0.0
 20
0.0
 30
0.0
  9
$UCSXDIR
 10
1.0
 20
0.0
 30
0.0
  9
$UCSYDIR
 10
0.0
 20
1.0
 30
0.0
  9
$UCSORTHOREF
  2

  9
$UCSORTHOVIEW
 70
0
  9
$UCSORGTOP
 10
0.0
 20
0.0
 30
0.0
  9
$UCSORGBOTTOM
 10
0.0
 20
0.0
 30
0.0
  9
$UCSORGLEFT
 10
0.0
 20
0.0
 30
0.0
  9
$UCSORGRIGHT
 10
0.0
 20
0.0
 30
0.0
  9
$UCSORGFRONT
 10
0.0
 20
0.0
 30
0.0
  9
$UCSORGBACK
 10
0.0
 20
0.0
 30
0.0
  9
$PUCSBASE
  2

  9
$PUCSNAME
  2

  9
$PUCSORG
 10
0.0
 20
0.0
 30
0.0
  9
$PUCSXDIR
 10
1.0
 20
0.0
 30
0.0
  9
$PUCSYDIR
 10
0.0
 20
1.0
 30
0.0
  9
$PUCSORTHOREF
  2

  9
$PUCSORTHOVIEW
 70
0
  9
$PUCSORGTOP
 10
0.0
 20
0.0
 30
0.0
  9
$PUCSORGBOTTOM
 10
0.0
 20
0.0
 30
0.0
  9
$PUCSORGLEFT
 10
0.0
 20
0.0
 30
0.0
  9
$PUCSORGRIGHT
 10
0.0
 20
0.0
 30
0.0
  9
$PUCSORGFRONT
 10
0.0
 20
0.0
 30
0.0
  9
$PUCSORGBACK
 10
0.0
 20
0.0
 30
0.0
  9
$USERI1
 70
0
  9
$USERI2
 70
0
  9
$USERI3
 70
0
  9
$USERI4
 70
0
  9
$USERI5
 70
0
  9
$USERR1
 40
0.0
  9
$USERR2
 40
0.0
  9
$USERR3
 40
0.0
  9
$USERR4
 40
0.0
  9
$USERR5
 40
0.0
  9
$WORLDVIEW
 70
1
  9
$SHADEDGE
 70
3
  9
$SHADEDIF
 70
70
  9
$TILEMODE
 70
1
  9
$MAXACTVP
 70
64
  9
$PINSBASE
 10
0.0
 20
0.0
 30
0.0
  9
$PLIMCHECK
 70
0
  9
$PEXTMIN
 10
1e+20
 20
1e+20
 30
1e+20
  9
$PEXTMAX
 10
-1e+20
 20
-1e+20
 30
-1e+20
  9
$PLIMMIN
 10
0.0
 20
0.0
  9
$PLIMMAX
 10
420.0
 20
297.0
  9
$UNITMODE
 70
0
  9
$VISRETAIN
 70
1
  9
$PLINEGEN
 70
0
  9
$PSLTSCALE
 70
1
  9
$TREEDEPTH
 70
3020
  9
$CMLSTYLE
  2
Standard
  9
$CMLJUST
 70
0
  9
$CMLSCALE
 40
20.0
  9
$PROXYGRAPHICS
 70
1
  9
$MEASUREMENT
 70
1
  9
$CELWEIGHT
370
-1
  9
$ENDCAPS
280
0
  9
$JOINSTYLE
280
0
  9
$LWDISPLAY
290
0
  9
$INSUNITS
 70
6
  9
$HYPERLINKBASE
  1

  9
$STYLESHEET
  1

  9
$XEDIT
290
1
  9
$CEPSNTYPE
380
0
  9
$PSTYLEMODE
290
1
  9
$FINGERPRINTGUID
  2
{514D3954-E2A8-45F1-B8AD-8AD1AE5CF9B7}
  9
$VERSIONGUID
  2
{DC3C9071-3165-4B90-9AB0-58043FAD448A}
  9
$EXTNAMES
290
1
  9
$PSVPSCALE
 40
0.0
  9
$OLESTARTUP
290
0
  9
$SORTENTS
280
127
  9
$INDEXCTL
280
0
  9
$HIDETEXT
280
1
  9
$XCLIPFRAME
280
1
  9
$HALOGAP
280
0
  9
$OBSCOLOR
 70
257
  9
$OBSLTYPE
280
0
  9
$INTERSECTIONDISPLAY
280
0
  9
$INTERSECTIONCOLOR
 70
257
  9
$DIMASSOC
280
2
  9
$PROJECTNAME
  1

  9
$CAMERADISPLAY
290
0
  9
$LENSLENGTH
 40
50.0
  9
$CAMERAHEIGHT
 40
0.0
  9
$STEPSPERSEC
 40
24.0
  9
$STEPSIZE
 40
100.0
  9
$3DDWFPREC
 40
2.0
  9
$PSOLWIDTH
 40
0.005
  9
$PSOLHEIGHT
 40
0.08
  9
$LOFTANG1
 40
1.570796326795
  9
$LOFTANG2
 40
1.570796326795
  9
$LOFTMAG1
 40
0.0
  9
$LOFTMAG2
 40
0.0
  9
$LOFTPARAM
 70
7
  9
$LOFTNORMALS
280
1
  9
$LATITUDE
 40
37.795
  9
$LONGITUDE
 40
-122.394
  9
$NORTHDIRECTION
 40
0.0
  9
$TIMEZONE
 70
-8000
  9
$LIGHTGLYPHDISPLAY
280
1
  9
$TILEMODELIGHTSYNCH
280
1
  9
$CMATERIAL
347
20
  9
$SOLIDHIST
280
0
  9
$SHOWHIST
280
1
  9
$DWFFRAME
280
2
  9
$DGNFRAME
280
2
  9
$REALWORLDSCALE
290
1
  9
$INTERFERECOLOR
 62
256
  9
$CSHADOW
280
0
  9
$SHADOWPLANELOCATION
 40
0.0
  0
ENDSEC
  0
SECTION
  2
CLASSES
  0
CLASS
  1
ACDBDICTIONARYWDFLT
  2
AcDbDictionaryWithDefault
  3
ObjectDBX Classes
 90
0
 91
0
280
0
281
0
  0
CLASS
  1
SUN
  2
AcDbSun
  3
SCENEOE
 90
1153
 91
0
280
0
281
0
  0
CLASS
  1
VISUALSTYLE
  2
AcDbVisualStyle
  3
ObjectDBX Classes
 90
4095
 91
0
280
0
281
0
  0
CLASS
  1
MATERIAL
  2
AcDbMaterial
  3
ObjectDBX Classes
 90
1153
 91
0
280
0
281
0
  0
CLASS
  1
SCALE
  2
AcDbScale
  3
ObjectDBX Classes
 90
1153
 91
0
280
0
281
0
  0
CLASS
  1
TABLESTYLE
  2
AcDbTableStyle
  3
ObjectDBX Classes
 90
4095
 91
0
280
0
281
0
  0
CLASS
  1
MLEADERSTYLE
  2
AcDbMLeaderStyle
  3
ACDB_MLEADERSTYLE_CLASS
 90
4095
 91
0
280
0
281
0
  0
CLASS
  1
DICTIONARYVAR
  2
AcDbDictionaryVar
  3
ObjectDBX Classes
 90
0
 91
0
280
0
281
0
  0
CLASS
  1
CELLSTYLEMAP
  2
AcDbCellStyleMap
  3
ObjectDBX Classes
 90
1152
 91
0
280
0
281
0
  0
CLASS
  1
MENTALRAYRENDERSETTINGS
  2
AcDbMentalRayRenderSettings
  3
SCENEOE
 90
1024
 91
0
280
0
281
0
  0
CLASS
  1
ACDBDETAILVIEWSTYLE
  2
AcDbDetailViewStyle
  3
ObjectDBX Classes
 90
1025
 91
0
280
0
281
0
  0
CLASS
  1
ACDBSECTIONVIEWSTYLE
  2
AcDbSectionViewStyle
  3
ObjectDBX Classes
 90
1025
 91
0
280
0
281
0
  0
CLASS
  1
RASTERVARIABLES
  2
AcDbRasterVariables
  3
ISM
 90
0
 91
0
280
0
281
0
  0
CLASS
  1
ACDBPLACEHOLDER
  2
AcDbPlaceHolder
  3
ObjectDBX Classes
 90
0
 91
0
280
0
281
0
  0
CLASS
  1
LAYOUT
  2
AcDbLayout
  3
ObjectDBX Classes
 90
0
 91
0
280
0
281
0
  0
ENDSEC
  0
SECTION
  2
TABLES
  0
TABLE
  2
VPORT
  5
8
330
0
100
AcDbSymbolTable
 70
1
  0
VPORT
  5
23
330
8
100
AcDbSymbolTableRecord
100
AcDbViewportTableRecord
  2
*Active
 70
0
 10
0.0
 20
0.0
 11
1.0
 21
1.0
 12
0.0
 22
0.0
 13
0.0
 23
0.0
 14
0.5
 24
0.5
 15
0.5
 25
0.5
 16
0.0
 26
0.0
 36
1.0
 17
0.0
 27
0.0
 37
0.0
 40
1000.0
 41
1.34
 42
50.0
 43
0.0
 44
0.0
 50
0.0
 51
0.0
 71
0
 72
1000
 73
1
 74
3
 75
0
 76
0
 77
0
 78
0
281
0
 65
0
146
0.0
  0
ENDTAB
  0
TABLE
  2
LTYPE
  5
2
330
0
100
AcDbSymbolTable
 70
3
  0
LTYPE
  5
24
330
2
100
AcDbSymbolTableRecord
100
AcDbLinetypeTableRecord
  2
ByBlock
 70
0
  3

 72
65
 73
0
 40
0.0
  0
LTYPE
  5
25
330
2
100
AcDbSymbolTableRecord
100
AcDbLinetypeTableRecord
  2
ByLayer
 70
0
  3

 72
65
 73
0
 40
0.0
  0
LTYPE
  5
26
330
2
100
AcDbSymbolTableRecord
100
AcDbLinetypeTableRecord
  2
Continuous
 70
0
  3

 72
65
 73
0
 40
0.0
  0
ENDTAB
  0
TABLE
  2
LAYER
  5
1
330
0
100
AcDbSymbolTable
 70
6
  0
LAYER
  5
27
330
1
100
AcDbSymbolTableRecord
100
AcDbLayerTableRecord
  2
0
 70
0
 62
7
  6
Continuous
370
-3
390
13
347
21
  0
LAYER
  5
28
330
1
100
AcDbSymbolTableRecord
100
AcDbLayerTableRecord
  2
Defpoints
 70
0
 62
7
  6
Continuous
290
0
370
-3
390
13
347
21
  0
LAYER
  5
2F
330
1
100
AcDbSymbolTableRecord
100
AcDbLayerTableRecord
  2
Paineis
 70
0
 62
7
  6
Continuous
370
-3
390
13
347
21
  0
LAYER
  5
30
330
1
100
AcDbSymbolTableRecord
100
AcDbLayerTableRecord
  2
Texto Seção
 70
0
 62
7
  6
Continuous
370
-3
390
13
347
21
  0
LAYER
  5
31
330
1
100
AcDbSymbolTableRecord
100
AcDbLayerTableRecord
  2
Cota Seção (2x)
 70
0
 62
7
  6
Continuous
370
-3
390
13
347
21
  0
LAYER
  5
32
330
1
100
AcDbSymbolTableRecord
100
AcDbLayerTableRecord
  2
HACHURA
 70
0
 62
7
  6
Continuous
370
-3
390
13
347
21
  0
ENDTAB
  0
TABLE
  2
STYLE
  5
5
330
0
100
AcDbSymbolTable
 70
1
  0
STYLE
  5
29
330
5
100
AcDbSymbolTableRecord
100
AcDbTextStyleTableRecord
  2
Standard
 70
0
 40
0.0
 41
1.0
 50
0.0
 71
0
 42
2.5
  3
txt
  4

  0
ENDTAB
  0
TABLE
  2
VIEW
  5
7
330
0
100
AcDbSymbolTable
 70
0
  0
ENDTAB
  0
TABLE
  2
UCS
  5
6
330
0
100
AcDbSymbolTable
 70
0
  0
ENDTAB
  0
TABLE
  2
APPID
  5
3
330
0
100
AcDbSymbolTable
 70
3
  0
APPID
  5
2A
330
3
100
AcDbSymbolTableRecord
100
AcDbRegAppTableRecord
  2
ACAD
 70
0
  0
APPID
  5
273
330
3
100
AcDbSymbolTableRecord
100
AcDbRegAppTableRecord
  2
HATCHBACKGROUNDCOLOR
 70
0
  0
APPID
  5
274
330
3
100
AcDbSymbolTableRecord
100
AcDbRegAppTableRecord
  2
EZDXF
 70
0
  0
ENDTAB
  0
TABLE
  2
DIMSTYLE
  5
4
330
0
100
AcDbSymbolTable
 70
1
100
AcDbDimStyleTable
  0
DIMSTYLE
105
2B
330
4
100
AcDbSymbolTableRecord
100
AcDbDimStyleTableRecord
  2
Standard
 70
0
 40
1.0
 41
2.5
 42
0.625
 43
3.75
 44
1.25
 45
0.0
 46
0.0
 47
0.0
 48
0.0
 49
2.5
140
2.5
141
2.5
142
0.0
143
0.03937007874
144
1.0
145
0.0
146
1.0
147
0.625
148
0.0
 69
0
 70
0
 71
0
 72
0
 73
0
 74
0
 75
0
 76
0
 77
1
 78
8
 79
3
170
0
171
3
172
1
173
0
174
0
175
0
176
0
177
0
178
0
179
2
271
2
272
2
273
2
274
3
275
0
276
0
277
2
278
44
279
0
280
0
281
0
282
0
283
0
284
8
285
0
286
0
288
0
289
3
290
0
371
-2
372
-2
  0
ENDTAB
  0
TABLE
  2
BLOCK_RECORD
  5
9
330
0
100
AcDbSymbolTable
 70
2
  0
BLOCK_RECORD
  5
17
330
9
100
AcDbSymbolTableRecord
100
AcDbBlockTableRecord
  2
*Model_Space
340
1A
 70
0
280
1
281
0
  0
BLOCK_RECORD
  5
1B
330
9
100
AcDbSymbolTableRecord
100
AcDbBlockTableRecord
  2
*Paper_Space
340
1E
 70
0
280
1
281
0
  0
ENDTAB
  0
ENDSEC
  0
SECTION
  2
BLOCKS
  0
BLOCK
  5
18
330
17
100
AcDbEntity
  8
0
100
AcDbBlockBegin
  2
*Model_Space
 70
0
 10
0.0
 20
0.0
 30
0.0
  3
*Model_Space
  1

  0
ENDBLK
  5
19
330
17
100
AcDbEntity
  8
0
100
AcDbBlockEnd
  0
BLOCK
  5
1C
330
1B
100
AcDbEntity
  8
0
100
AcDbBlockBegin
  2
*Paper_Space
 70
0
 10
0.0
 20
0.0
 30
0.0
  3
*Paper_Space
  1

  0
ENDBLK
  5
1D
330
1B
100
AcDbEntity
  8
0
100
AcDbBlockEnd
  0
ENDSEC
  0
SECTION
  2
ENTITIES
  0
LWPOLYLINE
  5
33
330
17
100
AcDbEntity
  8
Paineis
100
AcDbPolyline
 90
4
 70
1
 10
3086.28
 20
15319.72
 10
3146.28
 20
15319.72
 10
3146.28
 20
15321.72
 10
3086.28
 20
15321.72
  0
LWPOLYLINE
  5
34
330
17
100
AcDbEntity
  8
Paineis
100
AcDbPolyline
 90
4
 70
1
 10
3086.28
 20
15321.72
 10
3146.28
 20
15321.72
 10
3146.28
 20
15565.72
 10
3086.28
 20
15565.72
  0
LWPOLYLINE
  5
35
330
17
100
AcDbEntity
  8
Paineis
100
AcDbPolyline
 90
4
 70
1
 10
3086.28
 20
15565.72
 10
3146.28
 20
15565.72
 10
3146.28
 20
15599.72
 10
3086.28
 20
15599.72
  0
MTEXT
  5
36
330
17
100
AcDbEntity
  8
Texto Secao
100
AcDbMText
 10
3116.28
 20
15304.72
 30
0.0
 40
10.0
 71
1
  1
P1.A
  0
LWPOLYLINE
  5
37
330
17
100
AcDbEntity
  8
Paineis
100
AcDbPolyline
 90
4
 70
1
 10
3176.28
 20
15319.72
 10
3214.28
 20
15319.72
 10
3214.28
 20
15321.72
 10
3176.28
 20
15321.72
  0
LWPOLYLINE
  5
38
330
17
100
AcDbEntity
  8
Paineis
100
AcDbPolyline
 90
4
 70
1
 10
3176.28
 20
15321.72
 10
3214.28
 20
15321.72
 10
3214.28
 20
15565.72
 10
3176.28
 20
15565.72
  0
LWPOLYLINE
  5
39
330
17
100
AcDbEntity
  8
Paineis
100
AcDbPolyline
 90
4
 70
1
 10
3176.28
 20
15565.72
 10
3214.28
 20
15565.72
 10
3214.28
 20
15599.72
 10
3176.28
 20
15599.72
  0
MTEXT
  5
3A
330
17
100
AcDbEntity
  8
Texto Secao
100
AcDbMText
 10
3195.28
 20
15304.72
 30
0.0
 40
10.0
 71
1
  1
P1.B
  0
LWPOLYLINE
  5
3B
330
17
100
AcDbEntity
  8
Paineis
100
AcDbPolyline
 90
4
 70
1
 10
3244.28
 20
15319.72
 10
3304.28
 20
15319.72
 10
3304.28
 20
15321.72
 10
3244.28
 20
15321.72
  0
LWPOLYLINE
  5
3C
330
17
100
AcDbEntity
  8
Paineis
100
AcDbPolyline
 90
4
 70
1
 10
3244.28
 20
15321.72
 10
3304.28
 20
15321.72
 10
3304.28
 20
15565.72
 10
3244.28
 20
15565.72
  0
LWPOLYLINE
  5
3D
330
17
100
AcDbEntity
  8
Paineis
100
AcDbPolyline
 90
4
 70
1
 10
3244.28
 20
15565.72
 10
3304.28
 20
15565.72
 10
3304.28
 20
15599.72
 10
3244.28
 20
15599.72
  0
MTEXT
  5
3E
330
17
100
AcDbEntity
  8
Texto Secao
100
AcDbMText
 10
3274.28
 20
15304.72
 30
0.0
 40
10.0
 71
1
  1
P1.C
  0
LWPOLYLINE
  5
3F
330
17
100
AcDbEntity
  8
Paineis
100
AcDbPolyline
 90
4
 70
1
 10
3334.28
 20
15319.72
 10
3372.28
 20
15319.72
 10
3372.28
 20
15321.72
 10
3334.28
 20
15321.72
  0
LWPOLYLINE
  5
40
330
17
100
AcDbEntity
  8
Paineis
100
AcDbPolyline
 90
4
 70
1
 10
3334.28
 20
15321.72
 10
3372.28
 20
15321.72
 10
3372.28
 20
15565.72
 10
3334.28
 20
15565.72
  0
LWPOLYLINE
  5
41
330
17
100
AcDbEntity
  8
Paineis
100
AcDbPolyline
 90
4
 70
1
 10
3334.28
 20
15565.72
 10
3372.28
 20
15565.72
 10
3372.28
 20
15599.72
 10
3334.28
 20
15599.72
  0
MTEXT
  5
42
330
17
100
AcDbEntity
  8
Texto Secao
100
AcDbMText
 10
3353.28
 20
15304.72
 30
0.0
 40
10.0
 71
1
  1
P1.D
  0
MTEXT
  5
43
330
17
100
AcDbEntity
  8
Cota Secao (2x)
100
AcDbMText
 10
3086.28
 20
15624.72
 30
0.0
 40
8.0
 71
1
  1
B=38cm  H=60cm
  0
MTEXT
  5
44
330
17
100
AcDbEntity
  8
NOMENCLATURA
100
AcDbMText
 10
3086.28
 20
15649.72
 30
0.0
 40
10.0
 71
1
  1
LAJE TÉCNICA - P1
  0
LWPOLYLINE
  5
45
330
17
100
AcDbEntity
  8
Paineis
100
AcDbPolyline
 90
4
 70
1
 10
4275.84
 20
15313.96
 10
4371.74
 20
15313.96
 10
4371.74
 20
15315.96
 10
4275.84
 20
15315.96
  0
LWPOLYLINE
  5
46
330
17
100
AcDbEntity
  8
Paineis
100
AcDbPolyline
 90
4
 70
1
 10
4275.84
 20
15315.96
 10
4371.74
 20
15315.96
 10
4371.74
 20
15559.96
 10
4275.84
 20
15559.96
  0
LWPOLYLINE
  5
47
330
17
100
AcDbEntity
  8
Paineis
100
AcDbPolyline
 90
4
 70
1
 10
4275.84
 20
15559.96
 10
4371.74
 20
15559.96
 10
4371.74
 20
15593.96
 10
4275.84
 20
15593.96
  0
MTEXT
  5
48
330
17
100
AcDbEntity
  8
Texto Secao
100
AcDbMText
 10
4323.79
 20
15298.96
 30
0.0
 40
10.0
 71
1
  1
P2.A
  0
LWPOLYLINE
  5
49
330
17
100
AcDbEntity
  8
Paineis
100
AcDbPolyline
 90
4
 70
1
 10
4401.74
 20
15313.96
 10
4439.74
 20
15313.96
 10
4439.74
 20
15315.96
 10
4401.74
 20
15315.96
  0
LWPOLYLINE
  5
4A
330
17
100
AcDbEntity
  8
Paineis
100
AcDbPolyline
 90
4
 70
1
 10
4401.74
 20
15315.96
 10
4439.74
 20
15315.96
 10
4439.74
 20
15559.96
 10
4401.74
 20
15559.96
  0
LWPOLYLINE
  5
4B
330
17
100
AcDbEntity
  8
Paineis
100
AcDbPolyline
 90
4
 70
1
 10
4401.74
 20
15559.96
 10
4439.74
 20
15559.96
 10
4439.74
 20
15593.96
 10
4401.74
 20
15593.96
  0
MTEXT
  5
4C
330
17
100
AcDbEntity
  8
Texto Secao
100
AcDbMText
 10
4420.74
 20
15298.96
 30
0.0
 40
10.0
 71
1
  1
P2.B
  0
LWPOLYLINE
  5
4D
330
17
100
AcDbEntity
  8
Paineis
100
AcDbPolyline
 90
4
 70
1
 10
4469.74
 20
15313.96
 10
4565.64
 20
15313.96
 10
4565.64
 20
15315.96
 10
4469.74
 20
15315.96
  0
LWPOLYLINE
  5
4E
330
17
100
AcDbEntity
  8
Paineis
100
AcDbPolyline
 90
4
 70
1
 10
4469.74
 20
15315.96
 10
4565.64
 20
15315.96
 10
4565.64
 20
15559.96
 10
4469.74
 20
15559.96
  0
LWPOLYLINE
  5
4F
330
17
100
AcDbEntity
  8
Paineis
100
AcDbPolyline
 90
4
 70
1
 10
4469.74
 20
15559.96
 10
4565.64
 20
15559.96
 10
4565.64
 20
15593.96
 10
4469.74
 20
15593.96
  0
MTEXT
  5
50
330
17
100
AcDbEntity
  8
Texto Secao
100
AcDbMText
 10
4517.6900000000005
 20
15298.96
 30
0.0
 40
10.0
 71
1
  1
P2.C
  0
LWPOLYLINE
  5
51
330
17
100
AcDbEntity
  8
Paineis
100
AcDbPolyline
 90
4
 70
1
 10
4595.64
 20
15313.96
 10
4633.64
 20
15313.96
 10
4633.64
 20
15315.96
 10
4595.64
 20
15315.96
  0
LWPOLYLINE
  5
52
330
17
100
AcDbEntity
  8
Paineis
100
AcDbPolyline
 90
4
 70
1
 10
4595.64
 20
15315.96
 10
4633.64
 20
15315.96
 10
4633.64
 20
15559.96
 10
4595.64
 20
15559.96
  0
LWPOLYLINE
  5
53
330
17
100
AcDbEntity
  8
Paineis
100
AcDbPolyline
 90
4
 70
1
 10
4595.64
 20
15559.96
 10
4633.64
 20
15559.96
 10
4633.64
 20
15593.96
 10
4595.64
 20
15593.96
  0
MTEXT
  5
54
330
17
100
AcDbEntity
  8
Texto Secao
100
AcDbMText
 10
4614.64
 20
15298.96
 30
0.0
 40
10.0
 71
1
  1
P2.D
  0
MTEXT
  5
55
330
17
100
AcDbEntity
  8
Cota Secao (2x)
100
AcDbMText
 10
4275.84
 20
15618.96
 30
0.0
 40
8.0
 71
1
  1
B=38cm  H=96cm
  0
MTEXT
  5
56
330
17
100
AcDbEntity
  8
NOMENCLATURA
100
AcDbMText
 10
4275.84
 20
15643.96
 30
0.0
 40
10.0
 71
1
  1
LAJE TÉCNICA - P2
  0
LWPOLYLINE
  5
57
330
17
100
AcDbEntity
  8
Paineis
100
AcDbPolyline
 90
4
 70
1
 10
5543.11
 20
15324.2
 10
5633.11
 20
15324.2
 10
5633.11
 20
15326.2
 10
5543.11
 20
15326.2
  0
LWPOLYLINE
  5
58
330
17
100
AcDbEntity
  8
Paineis
100
AcDbPolyline
 90
4
 70
1
 10
5543.11
 20
15326.2
 10
5633.11
 20
15326.2
 10
5633.11
 20
15570.2
 10
5543.11
 20
15570.2
  0
LWPOLYLINE
  5
59
330
17
100
AcDbEntity
  8
Paineis
100
AcDbPolyline
 90
4
 70
1
 10
5543.11
 20
15570.2
 10
5633.11
 20
15570.2
 10
5633.11
 20
15604.2
 10
5543.11
 20
15604.2
  0
MTEXT
  5
5A
330
17
100
AcDbEntity
  8
Texto Secao
100
AcDbMText
 10
5588.11
 20
15309.2
 30
0.0
 40
10.0
 71
1
  1
P3.A
  0
LWPOLYLINE
  5
5B
330
17
100
AcDbEntity
  8
Paineis
100
AcDbPolyline
 90
4
 70
1
 10
5663.11
 20
15324.2
 10
5701.11
 20
15324.2
 10
5701.11
 20
15326.2
 10
5663.11
 20
15326.2
  0
LWPOLYLINE
  5
5C
330
17
100
AcDbEntity
  8
Paineis
100
AcDbPolyline
 90
4
 70
1
 10
5663.11
 20
15326.2
 10
5701.11
 20
15326.2
 10
5701.11
 20
15570.2
 10
5663.11
 20
15570.2
  0
LWPOLYLINE
  5
5D
330
17
100
AcDbEntity
  8
Paineis
100
AcDbPolyline
 90
4
 70
1
 10
5663.11
 20
15570.2
 10
5701.11
 20
15570.2
 10
5701.11
 20
15604.2
 10
5663.11
 20
15604.2
  0
MTEXT
  5
5E
330
17
100
AcDbEntity
  8
Texto Secao
100
AcDbMText
 10
5682.11
 20
15309.2
 30
0.0
 40
10.0
 71
1
  1
P3.B
  0
LWPOLYLINE
  5
5F
330
17
100
AcDbEntity
  8
Paineis
100
AcDbPolyline
 90
4
 70
1
 10
5731.11
 20
15324.2
 10
5821.11
 20
15324.2
 10
5821.11
 20
15326.2
 10
5731.11
 20
15326.2
  0
LWPOLYLINE
  5
60
330
17
100
AcDbEntity
  8
Paineis
100
AcDbPolyline
 90
4
 70
1
 10
5731.11
 20
15326.2
 10
5821.11
 20
15326.2
 10
5821.11
 20
15570.2
 10
5731.11
 20
15570.2
  0
LWPOLYLINE
  5
61
330
17
100
AcDbEntity
  8
Paineis
100
AcDbPolyline
 90
4
 70
1
 10
5731.11
 20
15570.2
 10
5821.11
 20
15570.2
 10
5821.11
 20
15604.2
 10
5731.11
 20
15604.2
  0
MTEXT
  5
62
330
17
100
AcDbEntity
  8
Texto Secao
100
AcDbMText
 10
5776.11
 20
15309.2
 30
0.0
 40
10.0
 71
1
  1
P3.C
  0
LWPOLYLINE
  5
63
330
17
100
AcDbEntity
  8
Paineis
100
AcDbPolyline
 90
4
 70
1
 10
5851.11
 20
15324.2
 10
5889.11
 20
15324.2
 10
5889.11
 20
15326.2
 10
5851.11
 20
15326.2
  0
LWPOLYLINE
  5
64
330
17
100
AcDbEntity
  8
Paineis
100
AcDbPolyline
 90
4
 70
1
 10
5851.11
 20
15326.2
 10
5889.11
 20
15326.2
 10
5889.11
 20
15570.2
 10
5851.11
 20
15570.2
  0
LWPOLYLINE
  5
65
330
17
100
AcDbEntity
  8
Paineis
100
AcDbPolyline
 90
4
 70
1
 10
5851.11
 20
15570.2
 10
5889.11
 20
15570.2
 10
5889.11
 20
15604.2
 10
5851.11
 20
15604.2
  0
MTEXT
  5
66
330
17
100
AcDbEntity
  8
Texto Secao
100
AcDbMText
 10
5870.11
 20
15309.2
 30
0.0
 40
10.0
 71
1
  1
P3.D
  0
MTEXT
  5
67
330
17
100
AcDbEntity
  8
Cota Secao (2x)
100
AcDbMText
 10
5543.11
 20
15629.2
 30
0.0
 40
8.0
 71
1
  1
B=38cm  H=90cm
  0
MTEXT
  5
68
330
17
100
AcDbEntity
  8
NOMENCLATURA
100
AcDbMText
 10
5543.11
 20
15654.2
 30
0.0
 40
10.0
 71
1
  1
LAJE TÉCNICA - P3
  0
LWPOLYLINE
  5
69
330
17
100
AcDbEntity
  8
Paineis
100
AcDbPolyline
 90
4
 70
1
 10
5543.11
 20
15324.2
 10
5633.11
 20
15324.2
 10
5633.11
 20
15326.2
 10
5543.11
 20
15326.2
  0
LWPOLYLINE
  5
6A
330
17
100
AcDbEntity
  8
Paineis
100
AcDbPolyline
 90
4
 70
1
 10
5543.11
 20
15326.2
 10
5633.11
 20
15326.2
 10
5633.11
 20
15570.2
 10
5543.11
 20
15570.2
  0
LWPOLYLINE
  5
6B
330
17
100
AcDbEntity
  8
Paineis
100
AcDbPolyline
 90
4
 70
1
 10
5543.11
 20
15570.2
 10
5633.11
 20
15570.2
 10
5633.11
 20
15604.2
 10
5543.11
 20
15604.2
  0
MTEXT
  5
6C
330
17
100
AcDbEntity
  8
Texto Secao
100
AcDbMText
 10
5588.11
 20
15309.2
 30
0.0
 40
10.0
 71
1
  1
P4.A
  0
LWPOLYLINE
  5
6D
330
17
100
AcDbEntity
  8
Paineis
100
AcDbPolyline
 90
4
 70
1
 10
5663.11
 20
15324.2
 10
5701.11
 20
15324.2
 10
5701.11
 20
15326.2
 10
5663.11
 20
15326.2
  0
LWPOLYLINE
  5
6E
330
17
100
AcDbEntity
  8
Paineis
100
AcDbPolyline
 90
4
 70
1
 10
5663.11
 20
15326.2
 10
5701.11
 20
15326.2
 10
5701.11
 20
15570.2
 10
5663.11
 20
15570.2
  0
LWPOLYLINE
  5
6F
330
17
100
AcDbEntity
  8
Paineis
100
AcDbPolyline
 90
4
 70
1
 10
5663.11
 20
15570.2
 10
5701.11
 20
15570.2
 10
5701.11
 20
15604.2
 10
5663.11
 20
15604.2
  0
MTEXT
  5
70
330
17
100
AcDbEntity
  8
Texto Secao
100
AcDbMText
 10
5682.11
 20
15309.2
 30
0.0
 40
10.0
 71
1
  1
P4.B
  0
LWPOLYLINE
  5
71
330
17
100
AcDbEntity
  8
Paineis
100
AcDbPolyline
 90
4
 70
1
 10
5731.11
 20
15324.2
 10
5821.11
 20
15324.2
 10
5821.11
 20
15326.2
 10
5731.11
 20
15326.2
  0
LWPOLYLINE
  5
72
330
17
100
AcDbEntity
  8
Paineis
100
AcDbPolyline
 90
4
 70
1
 10
5731.11
 20
15326.2
 10
5821.11
 20
15326.2
 10
5821.11
 20
15570.2
 10
5731.11
 20
15570.2
  0
LWPOLYLINE
  5
73
330
17
100
AcDbEntity
  8
Paineis
100
AcDbPolyline
 90
4
 70
1
 10
5731.11
 20
15570.2
 10
5821.11
 20
15570.2
 10
5821.11
 20
15604.2
 10
5731.11
 20
15604.2
  0
MTEXT
  5
74
330
17
100
AcDbEntity
  8
Texto Secao
100
AcDbMText
 10
5776.11
 20
15309.2
 30
0.0
 40
10.0
 71
1
  1
P4.C
  0
LWPOLYLINE
  5
75
330
17
100
AcDbEntity
  8
Paineis
100
AcDbPolyline
 90
4
 70
1
 10
5851.11
 20
15324.2
 10
5889.11
 20
15324.2
 10
5889.11
 20
15326.2
 10
5851.11
 20
15326.2
  0
LWPOLYLINE
  5
76
330
17
100
AcDbEntity
  8
Paineis
100
AcDbPolyline
 90
4
 70
1
 10
5851.11
 20
15326.2
 10
5889.11
 20
15326.2
 10
5889.11
 20
15570.2
 10
5851.11
 20
15570.2
  0
LWPOLYLINE
  5
77
330
17
100
AcDbEntity
  8
Paineis
100
AcDbPolyline
 90
4
 70
1
 10
5851.11
 20
15570.2
 10
5889.11
 20
15570.2
 10
5889.11
 20
15604.2
 10
5851.11
 20
15604.2
  0
MTEXT
  5
78
330
17
100
AcDbEntity
  8
Texto Secao
100
AcDbMText
 10
5870.11
 20
15309.2
 30
0.0
 40
10.0
 71
1
  1
P4.D
  0
MTEXT
  5
79
330
17
100
AcDbEntity
  8
Cota Secao (2x)
100
AcDbMText
 10
5543.11
 20
15629.2
 30
0.0
 40
8.0
 71
1
  1
B=38cm  H=90cm
  0
MTEXT
  5
7A
330
17
100
AcDbEntity
  8
NOMENCLATURA
100
AcDbMText
 10
5543.11
 20
15654.2
 30
0.0
 40
10.0
 71
1
  1
LAJE TÉCNICA - P4
  0
LWPOLYLINE
  5
7B
330
17
100
AcDbEntity
  8
Paineis
100
AcDbPolyline
 90
4
 70
1
 10
5543.11
 20
15324.2
 10
5633.11
 20
15324.2
 10
5633.11
 20
15326.2
 10
5543.11
 20
15326.2
  0
LWPOLYLINE
  5
7C
330
17
100
AcDbEntity
  8
Paineis
100
AcDbPolyline
 90
4
 70
1
 10
5543.11
 20
15326.2
 10
5633.11
 20
15326.2
 10
5633.11
 20
15570.2
 10
5543.11
 20
15570.2
  0
LWPOLYLINE
  5
7D
330
17
100
AcDbEntity
  8
Paineis
100
AcDbPolyline
 90
4
 70
1
 10
5543.11
 20
15570.2
 10
5633.11
 20
15570.2
 10
5633.11
 20
15604.2
 10
5543.11
 20
15604.2
  0
MTEXT
  5
7E
330
17
100
AcDbEntity
  8
Texto Secao
100
AcDbMText
 10
5588.11
 20
15309.2
 30
0.0
 40
10.0
 71
1
  1
P5.A
  0
LWPOLYLINE
  5
7F
330
17
100
AcDbEntity
  8
Paineis
100
AcDbPolyline
 90
4
 70
1
 10
5663.11
 20
15324.2
 10
5701.11
 20
15324.2
 10
5701.11
 20
15326.2
 10
5663.11
 20
15326.2
  0
LWPOLYLINE
  5
80
330
17
100
AcDbEntity
  8
Paineis
100
AcDbPolyline
 90
4
 70
1
 10
5663.11
 20
15326.2
 10
5701.11
 20
15326.2
 10
5701.11
 20
15570.2
 10
5663.11
 20
15570.2
  0
LWPOLYLINE
  5
81
330
17
100
AcDbEntity
  8
Paineis
100
AcDbPolyline
 90
4
 70
1
 10
5663.11
 20
15570.2
 10
5701.11
 20
15570.2
 10
5701.11
 20
15604.2
 10
5663.11
 20
15604.2
  0
MTEXT
  5
82
330
17
100
AcDbEntity
  8
Texto Secao
100
AcDbMText
 10
5682.11
 20
15309.2
 30
0.0
 40
10.0
 71
1
  1
P5.B
  0
LWPOLYLINE
  5
83
330
17
100
AcDbEntity
  8
Paineis
100
AcDbPolyline
 90
4
 70
1
 10
5731.11
 20
15324.2
 10
5821.11
 20
15324.2
 10
5821.11
 20
15326.2
 10
5731.11
 20
15326.2
  0
LWPOLYLINE
  5
84
330
17
100
AcDbEntity
  8
Paineis
100
AcDbPolyline
 90
4
 70
1
 10
5731.11
 20
15326.2
 10
5821.11
 20
15326.2
 10
5821.11
 20
15570.2
 10
5731.11
 20
15570.2
  0
LWPOLYLINE
  5
85
330
17
100
AcDbEntity
  8
Paineis
100
AcDbPolyline
 90
4
 70
1
 10
5731.11
 20
15570.2
 10
5821.11
 20
15570.2
 10
5821.11
 20
15604.2
 10
5731.11
 20
15604.2
  0
MTEXT
  5
86
330
17
100
AcDbEntity
  8
Texto Secao
100
AcDbMText
 10
5776.11
 20
15309.2
 30
0.0
 40
10.0
 71
1
  1
P5.C
  0
LWPOLYLINE
  5
87
330
17
100
AcDbEntity
  8
Paineis
100
AcDbPolyline
 90
4
 70
1
 10
5851.11
 20
15324.2
 10
5889.11
 20
15324.2
 10
5889.11
 20
15326.2
 10
5851.11
 20
15326.2
  0
LWPOLYLINE
  5
88
330
17
100
AcDbEntity
  8
Paineis
100
AcDbPolyline
 90
4
 70
1
 10
5851.11
 20
15326.2
 10
5889.11
 20
15326.2
 10
5889.11
 20
15570.2
 10
5851.11
 20
15570.2
  0
LWPOLYLINE
  5
89
330
17
100
AcDbEntity
  8
Paineis
100
AcDbPolyline
 90
4
 70
1
 10
5851.11
 20
15570.2
 10
5889.11
 20
15570.2
 10
5889.11
 20
15604.2
 10
5851.11
 20
15604.2
  0
MTEXT
  5
8A
330
17
100
AcDbEntity
  8
Texto Secao
100
AcDbMText
 10
5870.11
 20
15309.2
 30
0.0
 40
10.0
 71
1
  1
P5.D
  0
MTEXT
  5
8B
330
17
100
AcDbEntity
  8
Cota Secao (2x)
100
AcDbMText
 10
5543.11
 20
15629.2
 30
0.0
 40
8.0
 71
1
  1
B=38cm  H=90cm
  0
MTEXT
  5
8C
330
17
100
AcDbEntity
  8
NOMENCLATURA
100
AcDbMText
 10
5543.11
 20
15654.2
 30
0.0
 40
10.0
 71
1
  1
LAJE TÉCNICA - P5
  0
LWPOLYLINE
  5
8D
330
17
100
AcDbEntity
  8
Paineis
100
AcDbPolyline
 90
4
 70
1
 10
5543.11
 20
15324.2
 10
5633.11
 20
15324.2
 10
5633.11
 20
15326.2
 10
5543.11
 20
15326.2
  0
LWPOLYLINE
  5
8E
330
17
100
AcDbEntity
  8
Paineis
100
AcDbPolyline
 90
4
 70
1
 10
5543.11
 20
15326.2
 10
5633.11
 20
15326.2
 10
5633.11
 20
15570.2
 10
5543.11
 20
15570.2
  0
LWPOLYLINE
  5
8F
330
17
100
AcDbEntity
  8
Paineis
100
AcDbPolyline
 90
4
 70
1
 10
5543.11
 20
15570.2
 10
5633.11
 20
15570.2
 10
5633.11
 20
15604.2
 10
5543.11
 20
15604.2
  0
MTEXT
  5
90
330
17
100
AcDbEntity
  8
Texto Secao
100
AcDbMText
 10
5588.11
 20
15309.2
 30
0.0
 40
10.0
 71
1
  1
P6.A
  0
LWPOLYLINE
  5
91
330
17
100
AcDbEntity
  8
Paineis
100
AcDbPolyline
 90
4
 70
1
 10
5663.11
 20
15324.2
 10
5701.11
 20
15324.2
 10
5701.11
 20
15326.2
 10
5663.11
 20
15326.2
  0
LWPOLYLINE
  5
92
330
17
100
AcDbEntity
  8
Paineis
100
AcDbPolyline
 90
4
 70
1
 10
5663.11
 20
15326.2
 10
5701.11
 20
15326.2
 10
5701.11
 20
15570.2
 10
5663.11
 20
15570.2
  0
LWPOLYLINE
  5
93
330
17
100
AcDbEntity
  8
Paineis
100
AcDbPolyline
 90
4
 70
1
 10
5663.11
 20
15570.2
 10
5701.11
 20
15570.2
 10
5701.11
 20
15604.2
 10
5663.11
 20
15604.2
  0
MTEXT
  5
94
330
17
100
AcDbEntity
  8
Texto Secao
100
AcDbMText
 10
5682.11
 20
15309.2
 30
0.0
 40
10.0
 71
1
  1
P6.B
  0
LWPOLYLINE
  5
95
330
17
100
AcDbEntity
  8
Paineis
100
AcDbPolyline
 90
4
 70
1
 10
5731.11
 20
15324.2
 10
5821.11
 20
15324.2
 10
5821.11
 20
15326.2
 10
5731.11
 20
15326.2
  0
LWPOLYLINE
  5
96
330
17
100
AcDbEntity
  8
Paineis
100
AcDbPolyline
 90
4
 70
1
 10
5731.11
 20
15326.2
 10
5821.11
 20
15326.2
 10
5821.11
 20
15570.2
 10
5731.11
 20
15570.2
  0
LWPOLYLINE
  5
97
330
17
100
AcDbEntity
  8
Paineis
100
AcDbPolyline
 90
4
 70
1
 10
5731.11
 20
15570.2
 10
5821.11
 20
15570.2
 10
5821.11
 20
15604.2
 10
5731.11
 20
15604.2
  0
MTEXT
  5
98
330
17
100
AcDbEntity
  8
Texto Secao
100
AcDbMText
 10
5776.11
 20
15309.2
 30
0.0
 40
10.0
 71
1
  1
P6.C
  0
LWPOLYLINE
  5
99
330
17
100
AcDbEntity
  8
Paineis
100
AcDbPolyline
 90
4
 70
1
 10
5851.11
 20
15324.2
 10
5889.11
 20
15324.2
 10
5889.11
 20
15326.2
 10
5851.11
 20
15326.2
  0
LWPOLYLINE
  5
9A
330
17
100
AcDbEntity
  8
Paineis
100
AcDbPolyline
 90
4
 70
1
 10
5851.11
 20
15326.2
 10
5889.11
 20
15326.2
 10
5889.11
 20
15570.2
 10
5851.11
 20
15570.2
  0
LWPOLYLINE
  5
9B
330
17
100
AcDbEntity
  8
Paineis
100
AcDbPolyline
 90
4
 70
1
 10
5851.11
 20
15570.2
 10
5889.11
 20
15570.2
 10
5889.11
 20
15604.2
 10
5851.11
 20
15604.2
  0
MTEXT
  5
9C
330
17
100
AcDbEntity
  8
Texto Secao
100
AcDbMText
 10
5870.11
 20
15309.2
 30
0.0
 40
10.0
 71
1
  1
P6.D
  0
MTEXT
  5
9D
330
17
100
AcDbEntity
  8
Cota Secao (2x)
100
AcDbMText
 10
5543.11
 20
15629.2
 30
0.0
 40
8.0
 71
1
  1
B=38cm  H=90cm
  0
MTEXT
  5
9E
330
17
100
AcDbEntity
  8
NOMENCLATURA
100
AcDbMText
 10
5543.11
 20
15654.2
 30
0.0
 40
10.0
 71
1
  1
LAJE TÉCNICA - P6
  0
LWPOLYLINE
  5
9F
330
17
100
AcDbEntity
  8
Paineis
100
AcDbPolyline
 90
4
 70
1
 10
1729.04
 20
14383.58
 10
1824.94
 20
14383.58
 10
1824.94
 20
14385.58
 10
1729.04
 20
14385.58
  0
LWPOLYLINE
  5
A0
330
17
100
AcDbEntity
  8
Paineis
100
AcDbPolyline
 90
4
 70
1
 10
1729.04
 20
14385.58
 10
1824.94
 20
14385.58
 10
1824.94
 20
14629.58
 10
1729.04
 20
14629.58
  0
LWPOLYLINE
  5
A1
330
17
100
AcDbEntity
  8
Paineis
100
AcDbPolyline
 90
4
 70
1
 10
1729.04
 20
14629.58
 10
1824.94
 20
14629.58
 10
1824.94
 20
14663.58
 10
1729.04
 20
14663.58
  0
MTEXT
  5
A2
330
17
100
AcDbEntity
  8
Texto Secao
100
AcDbMText
 10
1776.99
 20
14368.58
 30
0.0
 40
10.0
 71
1
  1
P7.A
  0
LWPOLYLINE
  5
A3
330
17
100
AcDbEntity
  8
Paineis
100
AcDbPolyline
 90
4
 70
1
 10
1854.94
 20
14383.58
 10
1892.94
 20
14383.58
 10
1892.94
 20
14385.58
 10
1854.94
 20
14385.58
  0
LWPOLYLINE
  5
A4
330
17
100
AcDbEntity
  8
Paineis
100
AcDbPolyline
 90
4
 70
1
 10
1854.94
 20
14385.58
 10
1892.94
 20
14385.58
 10
1892.94
 20
14629.58
 10
1854.94
 20
14629.58
  0
LWPOLYLINE
  5
A5
330
17
100
AcDbEntity
  8
Paineis
100
AcDbPolyline
 90
4
 70
1
 10
1854.94
 20
14629.58
 10
1892.94
 20
14629.58
 10
1892.94
 20
14663.58
 10
1854.94
 20
14663.58
  0
MTEXT
  5
A6
330
17
100
AcDbEntity
  8
Texto Secao
100
AcDbMText
 10
1873.94
 20
14368.58
 30
0.0
 40
10.0
 71
1
  1
P7.B
  0
LWPOLYLINE
  5
A7
330
17
100
AcDbEntity
  8
Paineis
100
AcDbPolyline
 90
4
 70
1
 10
1922.94
 20
14383.58
 10
2018.84
 20
14383.58
 10
2018.84
 20
14385.58
 10
1922.94
 20
14385.58
  0
LWPOLYLINE
  5
A8
330
17
100
AcDbEntity
  8
Paineis
100
AcDbPolyline
 90
4
 70
1
 10
1922.94
 20
14385.58
 10
2018.84
 20
14385.58
 10
2018.84
 20
14629.58
 10
1922.94
 20
14629.58
  0
LWPOLYLINE
  5
A9
330
17
100
AcDbEntity
  8
Paineis
100
AcDbPolyline
 90
4
 70
1
 10
1922.94
 20
14629.58
 10
2018.84
 20
14629.58
 10
2018.84
 20
14663.58
 10
1922.94
 20
14663.58
  0
MTEXT
  5
AA
330
17
100
AcDbEntity
  8
Texto Secao
100
AcDbMText
 10
1970.8899999999999
 20
14368.58
 30
0.0
 40
10.0
 71
1
  1
P7.C
  0
LWPOLYLINE
  5
AB
330
17
100
AcDbEntity
  8
Paineis
100
AcDbPolyline
 90
4
 70
1
 10
2048.84
 20
14383.58
 10
2086.84
 20
14383.58
 10
2086.84
 20
14385.58
 10
2048.84
 20
14385.58
  0
LWPOLYLINE
  5
AC
330
17
100
AcDbEntity
  8
Paineis
100
AcDbPolyline
 90
4
 70
1
 10
2048.84
 20
14385.58
 10
2086.84
 20
14385.58
 10
2086.84
 20
14629.58
 10
2048.84
 20
14629.58
  0
LWPOLYLINE
  5
AD
330
17
100
AcDbEntity
  8
Paineis
100
AcDbPolyline
 90
4
 70
1
 10
2048.84
 20
14629.58
 10
2086.84
 20
14629.58
 10
2086.84
 20
14663.58
 10
2048.84
 20
14663.58
  0
MTEXT
  5
AE
330
17
100
AcDbEntity
  8
Texto Secao
100
AcDbMText
 10
2067.84
 20
14368.58
 30
0.0
 40
10.0
 71
1
  1
P7.D
  0
MTEXT
  5
AF
330
17
100
AcDbEntity
  8
Cota Secao (2x)
100
AcDbMText
 10
1729.04
 20
14688.58
 30
0.0
 40
8.0
 71
1
  1
B=38cm  H=96cm
  0
MTEXT
  5
B0
330
17
100
AcDbEntity
  8
NOMENCLATURA
100
AcDbMText
 10
1729.04
 20
14713.58
 30
0.0
 40
10.0
 71
1
  1
LAJE TÉCNICA - P7
  0
LWPOLYLINE
  5
B1
330
17
100
AcDbEntity
  8
Paineis
100
AcDbPolyline
 90
4
 70
1
 10
3020.9
 20
14377.82
 10
3080.9
 20
14377.82
 10
3080.9
 20
14379.82
 10
3020.9
 20
14379.82
  0
LWPOLYLINE
  5
B2
330
17
100
AcDbEntity
  8
Paineis
100
AcDbPolyline
 90
4
 70
1
 10
3020.9
 20
14379.82
 10
3080.9
 20
14379.82
 10
3080.9
 20
14623.82
 10
3020.9
 20
14623.82
  0
LWPOLYLINE
  5
B3
330
17
100
AcDbEntity
  8
Paineis
100
AcDbPolyline
 90
4
 70
1
 10
3020.9
 20
14623.82
 10
3080.9
 20
14623.82
 10
3080.9
 20
14657.82
 10
3020.9
 20
14657.82
  0
MTEXT
  5
B4
330
17
100
AcDbEntity
  8
Texto Secao
100
AcDbMText
 10
3050.9
 20
14362.82
 30
0.0
 40
10.0
 71
1
  1
P8.A
  0
LWPOLYLINE
  5
B5
330
17
100
AcDbEntity
  8
Paineis
100
AcDbPolyline
 90
4
 70
1
 10
3110.9
 20
14377.82
 10
3148.9
 20
14377.82
 10
3148.9
 20
14379.82
 10
3110.9
 20
14379.82
  0
LWPOLYLINE
  5
B6
330
17
100
AcDbEntity
  8
Paineis
100
AcDbPolyline
 90
4
 70
1
 10
3110.9
 20
14379.82
 10
3148.9
 20
14379.82
 10
3148.9
 20
14623.82
 10
3110.9
 20
14623.82
  0
LWPOLYLINE
  5
B7
330
17
100
AcDbEntity
  8
Paineis
100
AcDbPolyline
 90
4
 70
1
 10
3110.9
 20
14623.82
 10
3148.9
 20
14623.82
 10
3148.9
 20
14657.82
 10
3110.9
 20
14657.82
  0
MTEXT
  5
B8
330
17
100
AcDbEntity
  8
Texto Secao
100
AcDbMText
 10
3129.9
 20
14362.82
 30
0.0
 40
10.0
 71
1
  1
P8.B
  0
LWPOLYLINE
  5
B9
330
17
100
AcDbEntity
  8
Paineis
100
AcDbPolyline
 90
4
 70
1
 10
3178.9
 20
14377.82
 10
3238.9
 20
14377.82
 10
3238.9
 20
14379.82
 10
3178.9
 20
14379.82
  0
LWPOLYLINE
  5
BA
330
17
100
AcDbEntity
  8
Paineis
100
AcDbPolyline
 90
4
 70
1
 10
3178.9
 20
14379.82
 10
3238.9
 20
14379.82
 10
3238.9
 20
14623.82
 10
3178.9
 20
14623.82
  0
LWPOLYLINE
  5
BB
330
17
100
AcDbEntity
  8
Paineis
100
AcDbPolyline
 90
4
 70
1
 10
3178.9
 20
14623.82
 10
3238.9
 20
14623.82
 10
3238.9
 20
14657.82
 10
3178.9
 20
14657.82
  0
MTEXT
  5
BC
330
17
100
AcDbEntity
  8
Texto Secao
100
AcDbMText
 10
3208.9
 20
14362.82
 30
0.0
 40
10.0
 71
1
  1
P8.C
  0
LWPOLYLINE
  5
BD
330
17
100
AcDbEntity
  8
Paineis
100
AcDbPolyline
 90
4
 70
1
 10
3268.9
 20
14377.82
 10
3306.9
 20
14377.82
 10
3306.9
 20
14379.82
 10
3268.9
 20
14379.82
  0
LWPOLYLINE
  5
BE
330
17
100
AcDbEntity
  8
Paineis
100
AcDbPolyline
 90
4
 70
1
 10
3268.9
 20
14379.82
 10
3306.9
 20
14379.82
 10
3306.9
 20
14623.82
 10
3268.9
 20
14623.82
  0
LWPOLYLINE
  5
BF
330
17
100
AcDbEntity
  8
Paineis
100
AcDbPolyline
 90
4
 70
1
 10
3268.9
 20
14623.82
 10
3306.9
 20
14623.82
 10
3306.9
 20
14657.82
 10
3268.9
 20
14657.82
  0
MTEXT
  5
C0
330
17
100
AcDbEntity
  8
Texto Secao
100
AcDbMText
 10
3287.9
 20
14362.82
 30
0.0
 40
10.0
 71
1
  1
P8.D
  0
MTEXT
  5
C1
330
17
100
AcDbEntity
  8
Cota Secao (2x)
100
AcDbMText
 10
3020.9
 20
14682.82
 30
0.0
 40
8.0
 71
1
  1
B=38cm  H=60cm
  0
MTEXT
  5
C2
330
17
100
AcDbEntity
  8
NOMENCLATURA
100
AcDbMText
 10
3020.9
 20
14707.82
 30
0.0
 40
10.0
 71
1
  1
LAJE TÉCNICA - P8
  0
LWPOLYLINE
  5
C3
330
17
100
AcDbEntity
  8
Paineis
100
AcDbPolyline
 90
4
 70
1
 10
4299.34
 20
14369.67
 10
4391.34
 20
14369.67
 10
4391.34
 20
14371.67
 10
4299.34
 20
14371.67
  0
LWPOLYLINE
  5
C4
330
17
100
AcDbEntity
  8
Paineis
100
AcDbPolyline
 90
4
 70
1
 10
4299.34
 20
14371.67
 10
4391.34
 20
14371.67
 10
4391.34
 20
14615.67
 10
4299.34
 20
14615.67
  0
LWPOLYLINE
  5
C5
330
17
100
AcDbEntity
  8
Paineis
100
AcDbPolyline
 90
4
 70
1
 10
4299.34
 20
14615.67
 10
4391.34
 20
14615.67
 10
4391.34
 20
14649.67
 10
4299.34
 20
14649.67
  0
MTEXT
  5
C6
330
17
100
AcDbEntity
  8
Texto Secao
100
AcDbMText
 10
4345.34
 20
14354.67
 30
0.0
 40
10.0
 71
1
  1
P9.A
  0
LWPOLYLINE
  5
C7
330
17
100
AcDbEntity
  8
Paineis
100
AcDbPolyline
 90
4
 70
1
 10
4421.34
 20
14369.67
 10
4459.34
 20
14369.67
 10
4459.34
 20
14371.67
 10
4421.34
 20
14371.67
  0
LWPOLYLINE
  5
C8
330
17
100
AcDbEntity
  8
Paineis
100
AcDbPolyline
 90
4
 70
1
 10
4421.34
 20
14371.67
 10
4459.34
 20
14371.67
 10
4459.34
 20
14615.67
 10
4421.34
 20
14615.67
  0
LWPOLYLINE
  5
C9
330
17
100
AcDbEntity
  8
Paineis
100
AcDbPolyline
 90
4
 70
1
 10
4421.34
 20
14615.67
 10
4459.34
 20
14615.67
 10
4459.34
 20
14649.67
 10
4421.34
 20
14649.67
  0
MTEXT
  5
CA
330
17
100
AcDbEntity
  8
Texto Secao
100
AcDbMText
 10
4440.34
 20
14354.67
 30
0.0
 40
10.0
 71
1
  1
P9.B
  0
LWPOLYLINE
  5
CB
330
17
100
AcDbEntity
  8
Paineis
100
AcDbPolyline
 90
4
 70
1
 10
4489.34
 20
14369.67
 10
4581.34
 20
14369.67
 10
4581.34
 20
14371.67
 10
4489.34
 20
14371.67
  0
LWPOLYLINE
  5
CC
330
17
100
AcDbEntity
  8
Paineis
100
AcDbPolyline
 90
4
 70
1
 10
4489.34
 20
14371.67
 10
4581.34
 20
14371.67
 10
4581.34
 20
14615.67
 10
4489.34
 20
14615.67
  0
LWPOLYLINE
  5
CD
330
17
100
AcDbEntity
  8
Paineis
100
AcDbPolyline
 90
4
 70
1
 10
4489.34
 20
14615.67
 10
4581.34
 20
14615.67
 10
4581.34
 20
14649.67
 10
4489.34
 20
14649.67
  0
MTEXT
  5
CE
330
17
100
AcDbEntity
  8
Texto Secao
100
AcDbMText
 10
4535.34
 20
14354.67
 30
0.0
 40
10.0
 71
1
  1
P9.C
  0
LWPOLYLINE
  5
CF
330
17
100
AcDbEntity
  8
Paineis
100
AcDbPolyline
 90
4
 70
1
 10
4611.34
 20
14369.67
 10
4649.34
 20
14369.67
 10
4649.34
 20
14371.67
 10
4611.34
 20
14371.67
  0
LWPOLYLINE
  5
D0
330
17
100
AcDbEntity
  8
Paineis
100
AcDbPolyline
 90
4
 70
1
 10
4611.34
 20
14371.67
 10
4649.34
 20
14371.67
 10
4649.34
 20
14615.67
 10
4611.34
 20
14615.67
  0
LWPOLYLINE
  5
D1
330
17
100
AcDbEntity
  8
Paineis
100
AcDbPolyline
 90
4
 70
1
 10
4611.34
 20
14615.67
 10
4649.34
 20
14615.67
 10
4649.34
 20
14649.67
 10
4611.34
 20
14649.67
  0
MTEXT
  5
D2
330
17
100
AcDbEntity
  8
Texto Secao
100
AcDbMText
 10
4630.34
 20
14354.67
 30
0.0
 40
10.0
 71
1
  1
P9.D
  0
MTEXT
  5
D3
330
17
100
AcDbEntity
  8
Cota Secao (2x)
100
AcDbMText
 10
4299.34
 20
14674.67
 30
0.0
 40
8.0
 71
1
  1
B=38cm  H=92cm
  0
MTEXT
  5
D4
330
17
100
AcDbEntity
  8
NOMENCLATURA
100
AcDbMText
 10
4299.34
 20
14699.67
 30
0.0
 40
10.0
 71
1
  1
LAJE TÉCNICA - P9
  0
LWPOLYLINE
  5
D5
330
17
100
AcDbEntity
  8
Paineis
100
AcDbPolyline
 90
4
 70
1
 10
5567.34
 20
14363.91
 10
5659.34
 20
14363.91
 10
5659.34
 20
14365.91
 10
5567.34
 20
14365.91
  0
LWPOLYLINE
  5
D6
330
17
100
AcDbEntity
  8
Paineis
100
AcDbPolyline
 90
4
 70
1
 10
5567.34
 20
14365.91
 10
5659.34
 20
14365.91
 10
5659.34
 20
14609.91
 10
5567.34
 20
14609.91
  0
LWPOLYLINE
  5
D7
330
17
100
AcDbEntity
  8
Paineis
100
AcDbPolyline
 90
4
 70
1
 10
5567.34
 20
14609.91
 10
5659.34
 20
14609.91
 10
5659.34
 20
14643.91
 10
5567.34
 20
14643.91
  0
MTEXT
  5
D8
330
17
100
AcDbEntity
  8
Texto Secao
100
AcDbMText
 10
5613.34
 20
14348.91
 30
0.0
 40
10.0
 71
1
  1
P10.A
  0
LWPOLYLINE
  5
D9
330
17
100
AcDbEntity
  8
Paineis
100
AcDbPolyline
 90
4
 70
1
 10
5689.34
 20
14363.91
 10
5727.34
 20
14363.91
 10
5727.34
 20
14365.91
 10
5689.34
 20
14365.91
  0
LWPOLYLINE
  5
DA
330
17
100
AcDbEntity
  8
Paineis
100
AcDbPolyline
 90
4
 70
1
 10
5689.34
 20
14365.91
 10
5727.34
 20
14365.91
 10
5727.34
 20
14609.91
 10
5689.34
 20
14609.91
  0
LWPOLYLINE
  5
DB
330
17
100
AcDbEntity
  8
Paineis
100
AcDbPolyline
 90
4
 70
1
 10
5689.34
 20
14609.91
 10
5727.34
 20
14609.91
 10
5727.34
 20
14643.91
 10
5689.34
 20
14643.91
  0
MTEXT
  5
DC
330
17
100
AcDbEntity
  8
Texto Secao
100
AcDbMText
 10
5708.34
 20
14348.91
 30
0.0
 40
10.0
 71
1
  1
P10.B
  0
LWPOLYLINE
  5
DD
330
17
100
AcDbEntity
  8
Paineis
100
AcDbPolyline
 90
4
 70
1
 10
5757.34
 20
14363.91
 10
5849.34
 20
14363.91
 10
5849.34
 20
14365.91
 10
5757.34
 20
14365.91
  0
LWPOLYLINE
  5
DE
330
17
100
AcDbEntity
  8
Paineis
100
AcDbPolyline
 90
4
 70
1
 10
5757.34
 20
14365.91
 10
5849.34
 20
14365.91
 10
5849.34
 20
14609.91
 10
5757.34
 20
14609.91
  0
LWPOLYLINE
  5
DF
330
17
100
AcDbEntity
  8
Paineis
100
AcDbPolyline
 90
4
 70
1
 10
5757.34
 20
14609.91
 10
5849.34
 20
14609.91
 10
5849.34
 20
14643.91
 10
5757.34
 20
14643.91
  0
MTEXT
  5
E0
330
17
100
AcDbEntity
  8
Texto Secao
100
AcDbMText
 10
5803.34
 20
14348.91
 30
0.0
 40
10.0
 71
1
  1
P10.C
  0
LWPOLYLINE
  5
E1
330
17
100
AcDbEntity
  8
Paineis
100
AcDbPolyline
 90
4
 70
1
 10
5879.34
 20
14363.91
 10
5917.34
 20
14363.91
 10
5917.34
 20
14365.91
 10
5879.34
 20
14365.91
  0
LWPOLYLINE
  5
E2
330
17
100
AcDbEntity
  8
Paineis
100
AcDbPolyline
 90
4
 70
1
 10
5879.34
 20
14365.91
 10
5917.34
 20
14365.91
 10
5917.34
 20
14609.91
 10
5879.34
 20
14609.91
  0
LWPOLYLINE
  5
E3
330
17
100
AcDbEntity
  8
Paineis
100
AcDbPolyline
 90
4
 70
1
 10
5879.34
 20
14609.91
 10
5917.34
 20
14609.91
 10
5917.34
 20
14643.91
 10
5879.34
 20
14643.91
  0
MTEXT
  5
E4
330
17
100
AcDbEntity
  8
Texto Secao
100
AcDbMText
 10
5898.34
 20
14348.91
 30
0.0
 40
10.0
 71
1
  1
P10.D
  0
MTEXT
  5
E5
330
17
100
AcDbEntity
  8
Cota Secao (2x)
100
AcDbMText
 10
5567.34
 20
14668.91
 30
0.0
 40
8.0
 71
1
  1
B=38cm  H=92cm
  0
MTEXT
  5
E6
330
17
100
AcDbEntity
  8
NOMENCLATURA
100
AcDbMText
 10
5567.34
 20
14693.91
 30
0.0
 40
10.0
 71
1
  1
LAJE TÉCNICA - P10
  0
LWPOLYLINE
  5
E7
330
17
100
AcDbEntity
  8
Paineis
100
AcDbPolyline
 90
4
 70
1
 10
1727.32
 20
13439.29
 10
1827.32
 20
13439.29
 10
1827.32
 20
13441.29
 10
1727.32
 20
13441.29
  0
LWPOLYLINE
  5
E8
330
17
100
AcDbEntity
  8
Paineis
100
AcDbPolyline
 90
4
 70
1
 10
1727.32
 20
13441.29
 10
1827.32
 20
13441.29
 10
1827.32
 20
13685.29
 10
1727.32
 20
13685.29
  0
LWPOLYLINE
  5
E9
330
17
100
AcDbEntity
  8
Paineis
100
AcDbPolyline
 90
4
 70
1
 10
1727.32
 20
13685.29
 10
1827.32
 20
13685.29
 10
1827.32
 20
13719.29
 10
1727.32
 20
13719.29
  0
MTEXT
  5
EA
330
17
100
AcDbEntity
  8
Texto Secao
100
AcDbMText
 10
1777.32
 20
13424.29
 30
0.0
 40
10.0
 71
1
  1
P11.A
  0
LWPOLYLINE
  5
EB
330
17
100
AcDbEntity
  8
Paineis
100
AcDbPolyline
 90
4
 70
1
 10
1857.32
 20
13439.29
 10
1907.32
 20
13439.29
 10
1907.32
 20
13441.29
 10
1857.32
 20
13441.29
  0
LWPOLYLINE
  5
EC
330
17
100
AcDbEntity
  8
Paineis
100
AcDbPolyline
 90
4
 70
1
 10
1857.32
 20
13441.29
 10
1907.32
 20
13441.29
 10
1907.32
 20
13685.29
 10
1857.32
 20
13685.29
  0
LWPOLYLINE
  5
ED
330
17
100
AcDbEntity
  8
Paineis
100
AcDbPolyline
 90
4
 70
1
 10
1857.32
 20
13685.29
 10
1907.32
 20
13685.29
 10
1907.32
 20
13719.29
 10
1857.32
 20
13719.29
  0
MTEXT
  5
EE
330
17
100
AcDbEntity
  8
Texto Secao
100
AcDbMText
 10
1882.32
 20
13424.29
 30
0.0
 40
10.0
 71
1
  1
P11.B
  0
LWPOLYLINE
  5
EF
330
17
100
AcDbEntity
  8
Paineis
100
AcDbPolyline
 90
4
 70
1
 10
1937.32
 20
13439.29
 10
2037.32
 20
13439.29
 10
2037.32
 20
13441.29
 10
1937.32
 20
13441.29
  0
LWPOLYLINE
  5
F0
330
17
100
AcDbEntity
  8
Paineis
100
AcDbPolyline
 90
4
 70
1
 10
1937.32
 20
13441.29
 10
2037.32
 20
13441.29
 10
2037.32
 20
13685.29
 10
1937.32
 20
13685.29
  0
LWPOLYLINE
  5
F1
330
17
100
AcDbEntity
  8
Paineis
100
AcDbPolyline
 90
4
 70
1
 10
1937.32
 20
13685.29
 10
2037.32
 20
13685.29
 10
2037.32
 20
13719.29
 10
1937.32
 20
13719.29
  0
MTEXT
  5
F2
330
17
100
AcDbEntity
  8
Texto Secao
100
AcDbMText
 10
1987.32
 20
13424.29
 30
0.0
 40
10.0
 71
1
  1
P11.C
  0
LWPOLYLINE
  5
F3
330
17
100
AcDbEntity
  8
Paineis
100
AcDbPolyline
 90
4
 70
1
 10
2067.3199999999997
 20
13439.29
 10
2117.3199999999997
 20
13439.29
 10
2117.3199999999997
 20
13441.29
 10
2067.3199999999997
 20
13441.29
  0
LWPOLYLINE
  5
F4
330
17
100
AcDbEntity
  8
Paineis
100
AcDbPolyline
 90
4
 70
1
 10
2067.3199999999997
 20
13441.29
 10
2117.3199999999997
 20
13441.29
 10
2117.3199999999997
 20
13685.29
 10
2067.3199999999997
 20
13685.29
  0
LWPOLYLINE
  5
F5
330
17
100
AcDbEntity
  8
Paineis
100
AcDbPolyline
 90
4
 70
1
 10
2067.3199999999997
 20
13685.29
 10
2117.3199999999997
 20
13685.29
 10
2117.3199999999997
 20
13719.29
 10
2067.3199999999997
 20
13719.29
  0
MTEXT
  5
F6
330
17
100
AcDbEntity
  8
Texto Secao
100
AcDbMText
 10
2092.3199999999997
 20
13424.29
 30
0.0
 40
10.0
 71
1
  1
P11.D
  0
MTEXT
  5
F7
330
17
100
AcDbEntity
  8
Cota Secao (2x)
100
AcDbMText
 10
1727.32
 20
13744.29
 30
0.0
 40
8.0
 71
1
  1
B=50cm  H=100cm
  0
MTEXT
  5
F8
330
17
100
AcDbEntity
  8
NOMENCLATURA
100
AcDbMText
 10
1727.32
 20
13769.29
 30
0.0
 40
10.0
 71
1
  1
LAJE TÉCNICA - P11
  0
LWPOLYLINE
  5
F9
330
17
100
AcDbEntity
  8
Paineis
100
AcDbPolyline
 90
4
 70
1
 10
3021.99
 20
13433.53
 10
3121.99
 20
13433.53
 10
3121.99
 20
13435.53
 10
3021.99
 20
13435.53
  0
LWPOLYLINE
  5
FA
330
17
100
AcDbEntity
  8
Paineis
100
AcDbPolyline
 90
4
 70
1
 10
3021.99
 20
13435.53
 10
3121.99
 20
13435.53
 10
3121.99
 20
13679.53
 10
3021.99
 20
13679.53
  0
LWPOLYLINE
  5
FB
330
17
100
AcDbEntity
  8
Paineis
100
AcDbPolyline
 90
4
 70
1
 10
3021.99
 20
13679.53
 10
3121.99
 20
13679.53
 10
3121.99
 20
13713.53
 10
3021.99
 20
13713.53
  0
MTEXT
  5
FC
330
17
100
AcDbEntity
  8
Texto Secao
100
AcDbMText
 10
3071.99
 20
13418.53
 30
0.0
 40
10.0
 71
1
  1
P12.A
  0
LWPOLYLINE
  5
FD
330
17
100
AcDbEntity
  8
Paineis
100
AcDbPolyline
 90
4
 70
1
 10
3151.99
 20
13433.53
 10
3189.99
 20
13433.53
 10
3189.99
 20
13435.53
 10
3151.99
 20
13435.53
  0
LWPOLYLINE
  5
FE
330
17
100
AcDbEntity
  8
Paineis
100
AcDbPolyline
 90
4
 70
1
 10
3151.99
 20
13435.53
 10
3189.99
 20
13435.53
 10
3189.99
 20
13679.53
 10
3151.99
 20
13679.53
  0
LWPOLYLINE
  5
FF
330
17
100
AcDbEntity
  8
Paineis
100
AcDbPolyline
 90
4
 70
1
 10
3151.99
 20
13679.53
 10
3189.99
 20
13679.53
 10
3189.99
 20
13713.53
 10
3151.99
 20
13713.53
  0
MTEXT
  5
100
330
17
100
AcDbEntity
  8
Texto Secao
100
AcDbMText
 10
3170.99
 20
13418.53
 30
0.0
 40
10.0
 71
1
  1
P12.B
  0
LWPOLYLINE
  5
101
330
17
100
AcDbEntity
  8
Paineis
100
AcDbPolyline
 90
4
 70
1
 10
3219.99
 20
13433.53
 10
3319.99
 20
13433.53
 10
3319.99
 20
13435.53
 10
3219.99
 20
13435.53
  0
LWPOLYLINE
  5
102
330
17
100
AcDbEntity
  8
Paineis
100
AcDbPolyline
 90
4
 70
1
 10
3219.99
 20
13435.53
 10
3319.99
 20
13435.53
 10
3319.99
 20
13679.53
 10
3219.99
 20
13679.53
  0
LWPOLYLINE
  5
103
330
17
100
AcDbEntity
  8
Paineis
100
AcDbPolyline
 90
4
 70
1
 10
3219.99
 20
13679.53
 10
3319.99
 20
13679.53
 10
3319.99
 20
13713.53
 10
3219.99
 20
13713.53
  0
MTEXT
  5
104
330
17
100
AcDbEntity
  8
Texto Secao
100
AcDbMText
 10
3269.99
 20
13418.53
 30
0.0
 40
10.0
 71
1
  1
P12.C
  0
LWPOLYLINE
  5
105
330
17
100
AcDbEntity
  8
Paineis
100
AcDbPolyline
 90
4
 70
1
 10
3349.99
 20
13433.53
 10
3387.99
 20
13433.53
 10
3387.99
 20
13435.53
 10
3349.99
 20
13435.53
  0
LWPOLYLINE
  5
106
330
17
100
AcDbEntity
  8
Paineis
100
AcDbPolyline
 90
4
 70
1
 10
3349.99
 20
13435.53
 10
3387.99
 20
13435.53
 10
3387.99
 20
13679.53
 10
3349.99
 20
13679.53
  0
LWPOLYLINE
  5
107
330
17
100
AcDbEntity
  8
Paineis
100
AcDbPolyline
 90
4
 70
1
 10
3349.99
 20
13679.53
 10
3387.99
 20
13679.53
 10
3387.99
 20
13713.53
 10
3349.99
 20
13713.53
  0
MTEXT
  5
108
330
17
100
AcDbEntity
  8
Texto Secao
100
AcDbMText
 10
3368.99
 20
13418.53
 30
0.0
 40
10.0
 71
1
  1
P12.D
  0
MTEXT
  5
109
330
17
100
AcDbEntity
  8
Cota Secao (2x)
100
AcDbMText
 10
3021.99
 20
13738.53
 30
0.0
 40
8.0
 71
1
  1
B=38cm  H=100cm
  0
MTEXT
  5
10A
330
17
100
AcDbEntity
  8
NOMENCLATURA
100
AcDbMText
 10
3021.99
 20
13763.53
 30
0.0
 40
10.0
 71
1
  1
LAJE TÉCNICA - P12
  0
LWPOLYLINE
  5
10B
330
17
100
AcDbEntity
  8
Paineis
100
AcDbPolyline
 90
4
 70
1
 10
4328.07
 20
13430.17
 10
4388.07
 20
13430.17
 10
4388.07
 20
13432.17
 10
4328.07
 20
13432.17
  0
LWPOLYLINE
  5
10C
330
17
100
AcDbEntity
  8
Paineis
100
AcDbPolyline
 90
4
 70
1
 10
4328.07
 20
13432.17
 10
4388.07
 20
13432.17
 10
4388.07
 20
13676.17
 10
4328.07
 20
13676.17
  0
LWPOLYLINE
  5
10D
330
17
100
AcDbEntity
  8
Paineis
100
AcDbPolyline
 90
4
 70
1
 10
4328.07
 20
13676.17
 10
4388.07
 20
13676.17
 10
4388.07
 20
13710.17
 10
4328.07
 20
13710.17
  0
MTEXT
  5
10E
330
17
100
AcDbEntity
  8
Texto Secao
100
AcDbMText
 10
4358.07
 20
13415.17
 30
0.0
 40
10.0
 71
1
  1
P13.A
  0
LWPOLYLINE
  5
10F
330
17
100
AcDbEntity
  8
Paineis
100
AcDbPolyline
 90
4
 70
1
 10
4418.07
 20
13430.17
 10
4456.07
 20
13430.17
 10
4456.07
 20
13432.17
 10
4418.07
 20
13432.17
  0
LWPOLYLINE
  5
110
330
17
100
AcDbEntity
  8
Paineis
100
AcDbPolyline
 90
4
 70
1
 10
4418.07
 20
13432.17
 10
4456.07
 20
13432.17
 10
4456.07
 20
13676.17
 10
4418.07
 20
13676.17
  0
LWPOLYLINE
  5
111
330
17
100
AcDbEntity
  8
Paineis
100
AcDbPolyline
 90
4
 70
1
 10
4418.07
 20
13676.17
 10
4456.07
 20
13676.17
 10
4456.07
 20
13710.17
 10
4418.07
 20
13710.17
  0
MTEXT
  5
112
330
17
100
AcDbEntity
  8
Texto Secao
100
AcDbMText
 10
4437.07
 20
13415.17
 30
0.0
 40
10.0
 71
1
  1
P13.B
  0
LWPOLYLINE
  5
113
330
17
100
AcDbEntity
  8
Paineis
100
AcDbPolyline
 90
4
 70
1
 10
4486.07
 20
13430.17
 10
4546.07
 20
13430.17
 10
4546.07
 20
13432.17
 10
4486.07
 20
13432.17
  0
LWPOLYLINE
  5
114
330
17
100
AcDbEntity
  8
Paineis
100
AcDbPolyline
 90
4
 70
1
 10
4486.07
 20
13432.17
 10
4546.07
 20
13432.17
 10
4546.07
 20
13676.17
 10
4486.07
 20
13676.17
  0
LWPOLYLINE
  5
115
330
17
100
AcDbEntity
  8
Paineis
100
AcDbPolyline
 90
4
 70
1
 10
4486.07
 20
13676.17
 10
4546.07
 20
13676.17
 10
4546.07
 20
13710.17
 10
4486.07
 20
13710.17
  0
MTEXT
  5
116
330
17
100
AcDbEntity
  8
Texto Secao
100
AcDbMText
 10
4516.07
 20
13415.17
 30
0.0
 40
10.0
 71
1
  1
P13.C
  0
LWPOLYLINE
  5
117
330
17
100
AcDbEntity
  8
Paineis
100
AcDbPolyline
 90
4
 70
1
 10
4576.07
 20
13430.17
 10
4614.07
 20
13430.17
 10
4614.07
 20
13432.17
 10
4576.07
 20
13432.17
  0
LWPOLYLINE
  5
118
330
17
100
AcDbEntity
  8
Paineis
100
AcDbPolyline
 90
4
 70
1
 10
4576.07
 20
13432.17
 10
4614.07
 20
13432.17
 10
4614.07
 20
13676.17
 10
4576.07
 20
13676.17
  0
LWPOLYLINE
  5
119
330
17
100
AcDbEntity
  8
Paineis
100
AcDbPolyline
 90
4
 70
1
 10
4576.07
 20
13676.17
 10
4614.07
 20
13676.17
 10
4614.07
 20
13710.17
 10
4576.07
 20
13710.17
  0
MTEXT
  5
11A
330
17
100
AcDbEntity
  8
Texto Secao
100
AcDbMText
 10
4595.07
 20
13415.17
 30
0.0
 40
10.0
 71
1
  1
P13.D
  0
MTEXT
  5
11B
330
17
100
AcDbEntity
  8
Cota Secao (2x)
100
AcDbMText
 10
4328.07
 20
13735.17
 30
0.0
 40
8.0
 71
1
  1
B=38cm  H=60cm
  0
MTEXT
  5
11C
330
17
100
AcDbEntity
  8
NOMENCLATURA
100
AcDbMText
 10
4328.07
 20
13760.17
 30
0.0
 40
10.0
 71
1
  1
LAJE TÉCNICA - P13
  0
LWPOLYLINE
  5
11D
330
17
100
AcDbEntity
  8
Paineis
100
AcDbPolyline
 90
4
 70
1
 10
5596.07
 20
13424.41
 10
5656.07
 20
13424.41
 10
5656.07
 20
13426.41
 10
5596.07
 20
13426.41
  0
LWPOLYLINE
  5
11E
330
17
100
AcDbEntity
  8
Paineis
100
AcDbPolyline
 90
4
 70
1
 10
5596.07
 20
13426.41
 10
5656.07
 20
13426.41
 10
5656.07
 20
13670.41
 10
5596.07
 20
13670.41
  0
LWPOLYLINE
  5
11F
330
17
100
AcDbEntity
  8
Paineis
100
AcDbPolyline
 90
4
 70
1
 10
5596.07
 20
13670.41
 10
5656.07
 20
13670.41
 10
5656.07
 20
13704.41
 10
5596.07
 20
13704.41
  0
MTEXT
  5
120
330
17
100
AcDbEntity
  8
Texto Secao
100
AcDbMText
 10
5626.07
 20
13409.41
 30
0.0
 40
10.0
 71
1
  1
P14.A
  0
LWPOLYLINE
  5
121
330
17
100
AcDbEntity
  8
Paineis
100
AcDbPolyline
 90
4
 70
1
 10
5686.07
 20
13424.41
 10
5724.07
 20
13424.41
 10
5724.07
 20
13426.41
 10
5686.07
 20
13426.41
  0
LWPOLYLINE
  5
122
330
17
100
AcDbEntity
  8
Paineis
100
AcDbPolyline
 90
4
 70
1
 10
5686.07
 20
13426.41
 10
5724.07
 20
13426.41
 10
5724.07
 20
13670.41
 10
5686.07
 20
13670.41
  0
LWPOLYLINE
  5
123
330
17
100
AcDbEntity
  8
Paineis
100
AcDbPolyline
 90
4
 70
1
 10
5686.07
 20
13670.41
 10
5724.07
 20
13670.41
 10
5724.07
 20
13704.41
 10
5686.07
 20
13704.41
  0
MTEXT
  5
124
330
17
100
AcDbEntity
  8
Texto Secao
100
AcDbMText
 10
5705.07
 20
13409.41
 30
0.0
 40
10.0
 71
1
  1
P14.B
  0
LWPOLYLINE
  5
125
330
17
100
AcDbEntity
  8
Paineis
100
AcDbPolyline
 90
4
 70
1
 10
5754.07
 20
13424.41
 10
5814.07
 20
13424.41
 10
5814.07
 20
13426.41
 10
5754.07
 20
13426.41
  0
LWPOLYLINE
  5
126
330
17
100
AcDbEntity
  8
Paineis
100
AcDbPolyline
 90
4
 70
1
 10
5754.07
 20
13426.41
 10
5814.07
 20
13426.41
 10
5814.07
 20
13670.41
 10
5754.07
 20
13670.41
  0
LWPOLYLINE
  5
127
330
17
100
AcDbEntity
  8
Paineis
100
AcDbPolyline
 90
4
 70
1
 10
5754.07
 20
13670.41
 10
5814.07
 20
13670.41
 10
5814.07
 20
13704.41
 10
5754.07
 20
13704.41
  0
MTEXT
  5
128
330
17
100
AcDbEntity
  8
Texto Secao
100
AcDbMText
 10
5784.07
 20
13409.41
 30
0.0
 40
10.0
 71
1
  1
P14.C
  0
LWPOLYLINE
  5
129
330
17
100
AcDbEntity
  8
Paineis
100
AcDbPolyline
 90
4
 70
1
 10
5844.07
 20
13424.41
 10
5882.07
 20
13424.41
 10
5882.07
 20
13426.41
 10
5844.07
 20
13426.41
  0
LWPOLYLINE
  5
12A
330
17
100
AcDbEntity
  8
Paineis
100
AcDbPolyline
 90
4
 70
1
 10
5844.07
 20
13426.41
 10
5882.07
 20
13426.41
 10
5882.07
 20
13670.41
 10
5844.07
 20
13670.41
  0
LWPOLYLINE
  5
12B
330
17
100
AcDbEntity
  8
Paineis
100
AcDbPolyline
 90
4
 70
1
 10
5844.07
 20
13670.41
 10
5882.07
 20
13670.41
 10
5882.07
 20
13704.41
 10
5844.07
 20
13704.41
  0
MTEXT
  5
12C
330
17
100
AcDbEntity
  8
Texto Secao
100
AcDbMText
 10
5863.07
 20
13409.41
 30
0.0
 40
10.0
 71
1
  1
P14.D
  0
MTEXT
  5
12D
330
17
100
AcDbEntity
  8
Cota Secao (2x)
100
AcDbMText
 10
5596.07
 20
13729.41
 30
0.0
 40
8.0
 71
1
  1
B=38cm  H=60cm
  0
MTEXT
  5
12E
330
17
100
AcDbEntity
  8
NOMENCLATURA
100
AcDbMText
 10
5596.07
 20
13754.41
 30
0.0
 40
10.0
 71
1
  1
LAJE TÉCNICA - P14
  0
LWPOLYLINE
  5
12F
330
17
100
AcDbEntity
  8
Paineis
100
AcDbPolyline
 90
4
 70
1
 10
1843.83
 20
12499.79
 10
1893.83
 20
12499.79
 10
1893.83
 20
12501.79
 10
1843.83
 20
12501.79
  0
LWPOLYLINE
  5
130
330
17
100
AcDbEntity
  8
Paineis
100
AcDbPolyline
 90
4
 70
1
 10
1843.83
 20
12501.79
 10
1893.83
 20
12501.79
 10
1893.83
 20
12745.79
 10
1843.83
 20
12745.79
  0
LWPOLYLINE
  5
131
330
17
100
AcDbEntity
  8
Paineis
100
AcDbPolyline
 90
4
 70
1
 10
1843.83
 20
12745.79
 10
1893.83
 20
12745.79
 10
1893.83
 20
12779.79
 10
1843.83
 20
12779.79
  0
MTEXT
  5
132
330
17
100
AcDbEntity
  8
Texto Secao
100
AcDbMText
 10
1868.83
 20
12484.79
 30
0.0
 40
10.0
 71
1
  1
P15.A
  0
LWPOLYLINE
  5
133
330
17
100
AcDbEntity
  8
Paineis
100
AcDbPolyline
 90
4
 70
1
 10
1923.83
 20
12499.79
 10
1949.83
 20
12499.79
 10
1949.83
 20
12501.79
 10
1923.83
 20
12501.79
  0
LWPOLYLINE
  5
134
330
17
100
AcDbEntity
  8
Paineis
100
AcDbPolyline
 90
4
 70
1
 10
1923.83
 20
12501.79
 10
1949.83
 20
12501.79
 10
1949.83
 20
12745.79
 10
1923.83
 20
12745.79
  0
LWPOLYLINE
  5
135
330
17
100
AcDbEntity
  8
Paineis
100
AcDbPolyline
 90
4
 70
1
 10
1923.83
 20
12745.79
 10
1949.83
 20
12745.79
 10
1949.83
 20
12779.79
 10
1923.83
 20
12779.79
  0
MTEXT
  5
136
330
17
100
AcDbEntity
  8
Texto Secao
100
AcDbMText
 10
1936.83
 20
12484.79
 30
0.0
 40
10.0
 71
1
  1
P15.B
  0
LWPOLYLINE
  5
137
330
17
100
AcDbEntity
  8
Paineis
100
AcDbPolyline
 90
4
 70
1
 10
1979.83
 20
12499.79
 10
2029.83
 20
12499.79
 10
2029.83
 20
12501.79
 10
1979.83
 20
12501.79
  0
LWPOLYLINE
  5
138
330
17
100
AcDbEntity
  8
Paineis
100
AcDbPolyline
 90
4
 70
1
 10
1979.83
 20
12501.79
 10
2029.83
 20
12501.79
 10
2029.83
 20
12745.79
 10
1979.83
 20
12745.79
  0
LWPOLYLINE
  5
139
330
17
100
AcDbEntity
  8
Paineis
100
AcDbPolyline
 90
4
 70
1
 10
1979.83
 20
12745.79
 10
2029.83
 20
12745.79
 10
2029.83
 20
12779.79
 10
1979.83
 20
12779.79
  0
MTEXT
  5
13A
330
17
100
AcDbEntity
  8
Texto Secao
100
AcDbMText
 10
2004.83
 20
12484.79
 30
0.0
 40
10.0
 71
1
  1
P15.C
  0
LWPOLYLINE
  5
13B
330
17
100
AcDbEntity
  8
Paineis
100
AcDbPolyline
 90
4
 70
1
 10
2059.83
 20
12499.79
 10
2085.83
 20
12499.79
 10
2085.83
 20
12501.79
 10
2059.83
 20
12501.79
  0
LWPOLYLINE
  5
13C
330
17
100
AcDbEntity
  8
Paineis
100
AcDbPolyline
 90
4
 70
1
 10
2059.83
 20
12501.79
 10
2085.83
 20
12501.79
 10
2085.83
 20
12745.79
 10
2059.83
 20
12745.79
  0
LWPOLYLINE
  5
13D
330
17
100
AcDbEntity
  8
Paineis
100
AcDbPolyline
 90
4
 70
1
 10
2059.83
 20
12745.79
 10
2085.83
 20
12745.79
 10
2085.83
 20
12779.79
 10
2059.83
 20
12779.79
  0
MTEXT
  5
13E
330
17
100
AcDbEntity
  8
Texto Secao
100
AcDbMText
 10
2072.83
 20
12484.79
 30
0.0
 40
10.0
 71
1
  1
P15.D
  0
MTEXT
  5
13F
330
17
100
AcDbEntity
  8
Cota Secao (2x)
100
AcDbMText
 10
1843.83
 20
12804.79
 30
0.0
 40
8.0
 71
1
  1
B=26cm  H=50cm
  0
MTEXT
  5
140
330
17
100
AcDbEntity
  8
NOMENCLATURA
100
AcDbMText
 10
1843.83
 20
12829.79
 30
0.0
 40
10.0
 71
1
  1
LAJE TÉCNICA - P15
  0
LWPOLYLINE
  5
141
330
17
100
AcDbEntity
  8
Paineis
100
AcDbPolyline
 90
4
 70
1
 10
3134.66
 20
12494.03
 10
3194.66
 20
12494.03
 10
3194.66
 20
12496.03
 10
3134.66
 20
12496.03
  0
LWPOLYLINE
  5
142
330
17
100
AcDbEntity
  8
Paineis
100
AcDbPolyline
 90
4
 70
1
 10
3134.66
 20
12496.03
 10
3194.66
 20
12496.03
 10
3194.66
 20
12740.03
 10
3134.66
 20
12740.03
  0
LWPOLYLINE
  5
143
330
17
100
AcDbEntity
  8
Paineis
100
AcDbPolyline
 90
4
 70
1
 10
3134.66
 20
12740.03
 10
3194.66
 20
12740.03
 10
3194.66
 20
12774.03
 10
3134.66
 20
12774.03
  0
MTEXT
  5
144
330
17
100
AcDbEntity
  8
Texto Secao
100
AcDbMText
 10
3164.66
 20
12479.03
 30
0.0
 40
10.0
 71
1
  1
P16.A
  0
LWPOLYLINE
  5
145
330
17
100
AcDbEntity
  8
Paineis
100
AcDbPolyline
 90
4
 70
1
 10
3224.66
 20
12494.03
 10
3262.66
 20
12494.03
 10
3262.66
 20
12496.03
 10
3224.66
 20
12496.03
  0
LWPOLYLINE
  5
146
330
17
100
AcDbEntity
  8
Paineis
100
AcDbPolyline
 90
4
 70
1
 10
3224.66
 20
12496.03
 10
3262.66
 20
12496.03
 10
3262.66
 20
12740.03
 10
3224.66
 20
12740.03
  0
LWPOLYLINE
  5
147
330
17
100
AcDbEntity
  8
Paineis
100
AcDbPolyline
 90
4
 70
1
 10
3224.66
 20
12740.03
 10
3262.66
 20
12740.03
 10
3262.66
 20
12774.03
 10
3224.66
 20
12774.03
  0
MTEXT
  5
148
330
17
100
AcDbEntity
  8
Texto Secao
100
AcDbMText
 10
3243.66
 20
12479.03
 30
0.0
 40
10.0
 71
1
  1
P16.B
  0
LWPOLYLINE
  5
149
330
17
100
AcDbEntity
  8
Paineis
100
AcDbPolyline
 90
4
 70
1
 10
3292.66
 20
12494.03
 10
3352.66
 20
12494.03
 10
3352.66
 20
12496.03
 10
3292.66
 20
12496.03
  0
LWPOLYLINE
  5
14A
330
17
100
AcDbEntity
  8
Paineis
100
AcDbPolyline
 90
4
 70
1
 10
3292.66
 20
12496.03
 10
3352.66
 20
12496.03
 10
3352.66
 20
12740.03
 10
3292.66
 20
12740.03
  0
LWPOLYLINE
  5
14B
330
17
100
AcDbEntity
  8
Paineis
100
AcDbPolyline
 90
4
 70
1
 10
3292.66
 20
12740.03
 10
3352.66
 20
12740.03
 10
3352.66
 20
12774.03
 10
3292.66
 20
12774.03
  0
MTEXT
  5
14C
330
17
100
AcDbEntity
  8
Texto Secao
100
AcDbMText
 10
3322.66
 20
12479.03
 30
0.0
 40
10.0
 71
1
  1
P16.C
  0
LWPOLYLINE
  5
14D
330
17
100
AcDbEntity
  8
Paineis
100
AcDbPolyline
 90
4
 70
1
 10
3382.66
 20
12494.03
 10
3420.66
 20
12494.03
 10
3420.66
 20
12496.03
 10
3382.66
 20
12496.03
  0
LWPOLYLINE
  5
14E
330
17
100
AcDbEntity
  8
Paineis
100
AcDbPolyline
 90
4
 70
1
 10
3382.66
 20
12496.03
 10
3420.66
 20
12496.03
 10
3420.66
 20
12740.03
 10
3382.66
 20
12740.03
  0
LWPOLYLINE
  5
14F
330
17
100
AcDbEntity
  8
Paineis
100
AcDbPolyline
 90
4
 70
1
 10
3382.66
 20
12740.03
 10
3420.66
 20
12740.03
 10
3420.66
 20
12774.03
 10
3382.66
 20
12774.03
  0
MTEXT
  5
150
330
17
100
AcDbEntity
  8
Texto Secao
100
AcDbMText
 10
3401.66
 20
12479.03
 30
0.0
 40
10.0
 71
1
  1
P16.D
  0
MTEXT
  5
151
330
17
100
AcDbEntity
  8
Cota Secao (2x)
100
AcDbMText
 10
3134.66
 20
12799.03
 30
0.0
 40
8.0
 71
1
  1
B=38cm  H=60cm
  0
MTEXT
  5
152
330
17
100
AcDbEntity
  8
NOMENCLATURA
100
AcDbMText
 10
3134.66
 20
12824.03
 30
0.0
 40
10.0
 71
1
  1
LAJE TÉCNICA - P16
  0
LWPOLYLINE
  5
153
330
17
100
AcDbEntity
  8
Paineis
100
AcDbPolyline
 90
4
 70
1
 10
4402.66
 20
12488.27
 10
4462.66
 20
12488.27
 10
4462.66
 20
12490.27
 10
4402.66
 20
12490.27
  0
LWPOLYLINE
  5
154
330
17
100
AcDbEntity
  8
Paineis
100
AcDbPolyline
 90
4
 70
1
 10
4402.66
 20
12490.27
 10
4462.66
 20
12490.27
 10
4462.66
 20
12734.27
 10
4402.66
 20
12734.27
  0
LWPOLYLINE
  5
155
330
17
100
AcDbEntity
  8
Paineis
100
AcDbPolyline
 90
4
 70
1
 10
4402.66
 20
12734.27
 10
4462.66
 20
12734.27
 10
4462.66
 20
12768.27
 10
4402.66
 20
12768.27
  0
MTEXT
  5
156
330
17
100
AcDbEntity
  8
Texto Secao
100
AcDbMText
 10
4432.66
 20
12473.27
 30
0.0
 40
10.0
 71
1
  1
P17.A
  0
LWPOLYLINE
  5
157
330
17
100
AcDbEntity
  8
Paineis
100
AcDbPolyline
 90
4
 70
1
 10
4492.66
 20
12488.27
 10
4530.66
 20
12488.27
 10
4530.66
 20
12490.27
 10
4492.66
 20
12490.27
  0
LWPOLYLINE
  5
158
330
17
100
AcDbEntity
  8
Paineis
100
AcDbPolyline
 90
4
 70
1
 10
4492.66
 20
12490.27
 10
4530.66
 20
12490.27
 10
4530.66
 20
12734.27
 10
4492.66
 20
12734.27
  0
LWPOLYLINE
  5
159
330
17
100
AcDbEntity
  8
Paineis
100
AcDbPolyline
 90
4
 70
1
 10
4492.66
 20
12734.27
 10
4530.66
 20
12734.27
 10
4530.66
 20
12768.27
 10
4492.66
 20
12768.27
  0
MTEXT
  5
15A
330
17
100
AcDbEntity
  8
Texto Secao
100
AcDbMText
 10
4511.66
 20
12473.27
 30
0.0
 40
10.0
 71
1
  1
P17.B
  0
LWPOLYLINE
  5
15B
330
17
100
AcDbEntity
  8
Paineis
100
AcDbPolyline
 90
4
 70
1
 10
4560.66
 20
12488.27
 10
4620.66
 20
12488.27
 10
4620.66
 20
12490.27
 10
4560.66
 20
12490.27
  0
LWPOLYLINE
  5
15C
330
17
100
AcDbEntity
  8
Paineis
100
AcDbPolyline
 90
4
 70
1
 10
4560.66
 20
12490.27
 10
4620.66
 20
12490.27
 10
4620.66
 20
12734.27
 10
4560.66
 20
12734.27
  0
LWPOLYLINE
  5
15D
330
17
100
AcDbEntity
  8
Paineis
100
AcDbPolyline
 90
4
 70
1
 10
4560.66
 20
12734.27
 10
4620.66
 20
12734.27
 10
4620.66
 20
12768.27
 10
4560.66
 20
12768.27
  0
MTEXT
  5
15E
330
17
100
AcDbEntity
  8
Texto Secao
100
AcDbMText
 10
4590.66
 20
12473.27
 30
0.0
 40
10.0
 71
1
  1
P17.C
  0
LWPOLYLINE
  5
15F
330
17
100
AcDbEntity
  8
Paineis
100
AcDbPolyline
 90
4
 70
1
 10
4650.66
 20
12488.27
 10
4688.66
 20
12488.27
 10
4688.66
 20
12490.27
 10
4650.66
 20
12490.27
  0
LWPOLYLINE
  5
160
330
17
100
AcDbEntity
  8
Paineis
100
AcDbPolyline
 90
4
 70
1
 10
4650.66
 20
12490.27
 10
4688.66
 20
12490.27
 10
4688.66
 20
12734.27
 10
4650.66
 20
12734.27
  0
LWPOLYLINE
  5
161
330
17
100
AcDbEntity
  8
Paineis
100
AcDbPolyline
 90
4
 70
1
 10
4650.66
 20
12734.27
 10
4688.66
 20
12734.27
 10
4688.66
 20
12768.27
 10
4650.66
 20
12768.27
  0
MTEXT
  5
162
330
17
100
AcDbEntity
  8
Texto Secao
100
AcDbMText
 10
4669.66
 20
12473.27
 30
0.0
 40
10.0
 71
1
  1
P17.D
  0
MTEXT
  5
163
330
17
100
AcDbEntity
  8
Cota Secao (2x)
100
AcDbMText
 10
4402.66
 20
12793.27
 30
0.0
 40
8.0
 71
1
  1
B=38cm  H=60cm
  0
MTEXT
  5
164
330
17
100
AcDbEntity
  8
NOMENCLATURA
100
AcDbMText
 10
4402.66
 20
12818.27
 30
0.0
 40
10.0
 71
1
  1
LAJE TÉCNICA - P17
  0
LWPOLYLINE
  5
165
330
17
100
AcDbEntity
  8
Paineis
100
AcDbPolyline
 90
4
 70
1
 10
5670.66
 20
12482.51
 10
5730.66
 20
12482.51
 10
5730.66
 20
12484.51
 10
5670.66
 20
12484.51
  0
LWPOLYLINE
  5
166
330
17
100
AcDbEntity
  8
Paineis
100
AcDbPolyline
 90
4
 70
1
 10
5670.66
 20
12484.51
 10
5730.66
 20
12484.51
 10
5730.66
 20
12728.51
 10
5670.66
 20
12728.51
  0
LWPOLYLINE
  5
167
330
17
100
AcDbEntity
  8
Paineis
100
AcDbPolyline
 90
4
 70
1
 10
5670.66
 20
12728.51
 10
5730.66
 20
12728.51
 10
5730.66
 20
12762.51
 10
5670.66
 20
12762.51
  0
MTEXT
  5
168
330
17
100
AcDbEntity
  8
Texto Secao
100
AcDbMText
 10
5700.66
 20
12467.51
 30
0.0
 40
10.0
 71
1
  1
P18.A
  0
LWPOLYLINE
  5
169
330
17
100
AcDbEntity
  8
Paineis
100
AcDbPolyline
 90
4
 70
1
 10
5760.66
 20
12482.51
 10
5798.66
 20
12482.51
 10
5798.66
 20
12484.51
 10
5760.66
 20
12484.51
  0
LWPOLYLINE
  5
16A
330
17
100
AcDbEntity
  8
Paineis
100
AcDbPolyline
 90
4
 70
1
 10
5760.66
 20
12484.51
 10
5798.66
 20
12484.51
 10
5798.66
 20
12728.51
 10
5760.66
 20
12728.51
  0
LWPOLYLINE
  5
16B
330
17
100
AcDbEntity
  8
Paineis
100
AcDbPolyline
 90
4
 70
1
 10
5760.66
 20
12728.51
 10
5798.66
 20
12728.51
 10
5798.66
 20
12762.51
 10
5760.66
 20
12762.51
  0
MTEXT
  5
16C
330
17
100
AcDbEntity
  8
Texto Secao
100
AcDbMText
 10
5779.66
 20
12467.51
 30
0.0
 40
10.0
 71
1
  1
P18.B
  0
LWPOLYLINE
  5
16D
330
17
100
AcDbEntity
  8
Paineis
100
AcDbPolyline
 90
4
 70
1
 10
5828.66
 20
12482.51
 10
5888.66
 20
12482.51
 10
5888.66
 20
12484.51
 10
5828.66
 20
12484.51
  0
LWPOLYLINE
  5
16E
330
17
100
AcDbEntity
  8
Paineis
100
AcDbPolyline
 90
4
 70
1
 10
5828.66
 20
12484.51
 10
5888.66
 20
12484.51
 10
5888.66
 20
12728.51
 10
5828.66
 20
12728.51
  0
LWPOLYLINE
  5
16F
330
17
100
AcDbEntity
  8
Paineis
100
AcDbPolyline
 90
4
 70
1
 10
5828.66
 20
12728.51
 10
5888.66
 20
12728.51
 10
5888.66
 20
12762.51
 10
5828.66
 20
12762.51
  0
MTEXT
  5
170
330
17
100
AcDbEntity
  8
Texto Secao
100
AcDbMText
 10
5858.66
 20
12467.51
 30
0.0
 40
10.0
 71
1
  1
P18.C
  0
LWPOLYLINE
  5
171
330
17
100
AcDbEntity
  8
Paineis
100
AcDbPolyline
 90
4
 70
1
 10
5918.66
 20
12482.51
 10
5956.66
 20
12482.51
 10
5956.66
 20
12484.51
 10
5918.66
 20
12484.51
  0
LWPOLYLINE
  5
172
330
17
100
AcDbEntity
  8
Paineis
100
AcDbPolyline
 90
4
 70
1
 10
5918.66
 20
12484.51
 10
5956.66
 20
12484.51
 10
5956.66
 20
12728.51
 10
5918.66
 20
12728.51
  0
LWPOLYLINE
  5
173
330
17
100
AcDbEntity
  8
Paineis
100
AcDbPolyline
 90
4
 70
1
 10
5918.66
 20
12728.51
 10
5956.66
 20
12728.51
 10
5956.66
 20
12762.51
 10
5918.66
 20
12762.51
  0
MTEXT
  5
174
330
17
100
AcDbEntity
  8
Texto Secao
100
AcDbMText
 10
5937.66
 20
12467.51
 30
0.0
 40
10.0
 71
1
  1
P18.D
  0
MTEXT
  5
175
330
17
100
AcDbEntity
  8
Cota Secao (2x)
100
AcDbMText
 10
5670.66
 20
12787.51
 30
0.0
 40
8.0
 71
1
  1
B=38cm  H=60cm
  0
MTEXT
  5
176
330
17
100
AcDbEntity
  8
NOMENCLATURA
100
AcDbMText
 10
5670.66
 20
12812.51
 30
0.0
 40
10.0
 71
1
  1
LAJE TÉCNICA - P18
  0
LWPOLYLINE
  5
177
330
17
100
AcDbEntity
  8
Paineis
100
AcDbPolyline
 90
4
 70
1
 10
1855.86
 20
11557.89
 10
1915.86
 20
11557.89
 10
1915.86
 20
11559.89
 10
1855.86
 20
11559.89
  0
LWPOLYLINE
  5
178
330
17
100
AcDbEntity
  8
Paineis
100
AcDbPolyline
 90
4
 70
1
 10
1855.86
 20
11559.89
 10
1915.86
 20
11559.89
 10
1915.86
 20
11803.89
 10
1855.86
 20
11803.89
  0
LWPOLYLINE
  5
179
330
17
100
AcDbEntity
  8
Paineis
100
AcDbPolyline
 90
4
 70
1
 10
1855.86
 20
11803.89
 10
1915.86
 20
11803.89
 10
1915.86
 20
11837.89
 10
1855.86
 20
11837.89
  0
MTEXT
  5
17A
330
17
100
AcDbEntity
  8
Texto Secao
100
AcDbMText
 10
1885.86
 20
11542.89
 30
0.0
 40
10.0
 71
1
  1
P19.A
  0
LWPOLYLINE
  5
17B
330
17
100
AcDbEntity
  8
Paineis
100
AcDbPolyline
 90
4
 70
1
 10
1945.86
 20
11557.89
 10
1983.86
 20
11557.89
 10
1983.86
 20
11559.89
 10
1945.86
 20
11559.89
  0
LWPOLYLINE
  5
17C
330
17
100
AcDbEntity
  8
Paineis
100
AcDbPolyline
 90
4
 70
1
 10
1945.86
 20
11559.89
 10
1983.86
 20
11559.89
 10
1983.86
 20
11803.89
 10
1945.86
 20
11803.89
  0
LWPOLYLINE
  5
17D
330
17
100
AcDbEntity
  8
Paineis
100
AcDbPolyline
 90
4
 70
1
 10
1945.86
 20
11803.89
 10
1983.86
 20
11803.89
 10
1983.86
 20
11837.89
 10
1945.86
 20
11837.89
  0
MTEXT
  5
17E
330
17
100
AcDbEntity
  8
Texto Secao
100
AcDbMText
 10
1964.86
 20
11542.89
 30
0.0
 40
10.0
 71
1
  1
P19.B
  0
LWPOLYLINE
  5
17F
330
17
100
AcDbEntity
  8
Paineis
100
AcDbPolyline
 90
4
 70
1
 10
2013.86
 20
11557.89
 10
2073.8599999999997
 20
11557.89
 10
2073.8599999999997
 20
11559.89
 10
2013.86
 20
11559.89
  0
LWPOLYLINE
  5
180
330
17
100
AcDbEntity
  8
Paineis
100
AcDbPolyline
 90
4
 70
1
 10
2013.86
 20
11559.89
 10
2073.8599999999997
 20
11559.89
 10
2073.8599999999997
 20
11803.89
 10
2013.86
 20
11803.89
  0
LWPOLYLINE
  5
181
330
17
100
AcDbEntity
  8
Paineis
100
AcDbPolyline
 90
4
 70
1
 10
2013.86
 20
11803.89
 10
2073.8599999999997
 20
11803.89
 10
2073.8599999999997
 20
11837.89
 10
2013.86
 20
11837.89
  0
MTEXT
  5
182
330
17
100
AcDbEntity
  8
Texto Secao
100
AcDbMText
 10
2043.86
 20
11542.89
 30
0.0
 40
10.0
 71
1
  1
P19.C
  0
LWPOLYLINE
  5
183
330
17
100
AcDbEntity
  8
Paineis
100
AcDbPolyline
 90
4
 70
1
 10
2103.8599999999997
 20
11557.89
 10
2141.8599999999997
 20
11557.89
 10
2141.8599999999997
 20
11559.89
 10
2103.8599999999997
 20
11559.89
  0
LWPOLYLINE
  5
184
330
17
100
AcDbEntity
  8
Paineis
100
AcDbPolyline
 90
4
 70
1
 10
2103.8599999999997
 20
11559.89
 10
2141.8599999999997
 20
11559.89
 10
2141.8599999999997
 20
11803.89
 10
2103.8599999999997
 20
11803.89
  0
LWPOLYLINE
  5
185
330
17
100
AcDbEntity
  8
Paineis
100
AcDbPolyline
 90
4
 70
1
 10
2103.8599999999997
 20
11803.89
 10
2141.8599999999997
 20
11803.89
 10
2141.8599999999997
 20
11837.89
 10
2103.8599999999997
 20
11837.89
  0
MTEXT
  5
186
330
17
100
AcDbEntity
  8
Texto Secao
100
AcDbMText
 10
2122.8599999999997
 20
11542.89
 30
0.0
 40
10.0
 71
1
  1
P19.D
  0
MTEXT
  5
187
330
17
100
AcDbEntity
  8
Cota Secao (2x)
100
AcDbMText
 10
1855.86
 20
11862.89
 30
0.0
 40
8.0
 71
1
  1
B=38cm  H=60cm
  0
MTEXT
  5
188
330
17
100
AcDbEntity
  8
NOMENCLATURA
100
AcDbMText
 10
1855.86
 20
11887.89
 30
0.0
 40
10.0
 71
1
  1
LAJE TÉCNICA - P19
  0
LWPOLYLINE
  5
189
330
17
100
AcDbEntity
  8
Paineis
100
AcDbPolyline
 90
4
 70
1
 10
3122.63
 20
11552.13
 10
3172.63
 20
11552.13
 10
3172.63
 20
11554.13
 10
3122.63
 20
11554.13
  0
LWPOLYLINE
  5
18A
330
17
100
AcDbEntity
  8
Paineis
100
AcDbPolyline
 90
4
 70
1
 10
3122.63
 20
11554.13
 10
3172.63
 20
11554.13
 10
3172.63
 20
11798.13
 10
3122.63
 20
11798.13
  0
LWPOLYLINE
  5
18B
330
17
100
AcDbEntity
  8
Paineis
100
AcDbPolyline
 90
4
 70
1
 10
3122.63
 20
11798.13
 10
3172.63
 20
11798.13
 10
3172.63
 20
11832.13
 10
3122.63
 20
11832.13
  0
MTEXT
  5
18C
330
17
100
AcDbEntity
  8
Texto Secao
100
AcDbMText
 10
3147.63
 20
11537.13
 30
0.0
 40
10.0
 71
1
  1
P20.A
  0
LWPOLYLINE
  5
18D
330
17
100
AcDbEntity
  8
Paineis
100
AcDbPolyline
 90
4
 70
1
 10
3202.63
 20
11552.13
 10
3228.63
 20
11552.13
 10
3228.63
 20
11554.13
 10
3202.63
 20
11554.13
  0
LWPOLYLINE
  5
18E
330
17
100
AcDbEntity
  8
Paineis
100
AcDbPolyline
 90
4
 70
1
 10
3202.63
 20
11554.13
 10
3228.63
 20
11554.13
 10
3228.63
 20
11798.13
 10
3202.63
 20
11798.13
  0
LWPOLYLINE
  5
18F
330
17
100
AcDbEntity
  8
Paineis
100
AcDbPolyline
 90
4
 70
1
 10
3202.63
 20
11798.13
 10
3228.63
 20
11798.13
 10
3228.63
 20
11832.13
 10
3202.63
 20
11832.13
  0
MTEXT
  5
190
330
17
100
AcDbEntity
  8
Texto Secao
100
AcDbMText
 10
3215.63
 20
11537.13
 30
0.0
 40
10.0
 71
1
  1
P20.B
  0
LWPOLYLINE
  5
191
330
17
100
AcDbEntity
  8
Paineis
100
AcDbPolyline
 90
4
 70
1
 10
3258.63
 20
11552.13
 10
3308.63
 20
11552.13
 10
3308.63
 20
11554.13
 10
3258.63
 20
11554.13
  0
LWPOLYLINE
  5
192
330
17
100
AcDbEntity
  8
Paineis
100
AcDbPolyline
 90
4
 70
1
 10
3258.63
 20
11554.13
 10
3308.63
 20
11554.13
 10
3308.63
 20
11798.13
 10
3258.63
 20
11798.13
  0
LWPOLYLINE
  5
193
330
17
100
AcDbEntity
  8
Paineis
100
AcDbPolyline
 90
4
 70
1
 10
3258.63
 20
11798.13
 10
3308.63
 20
11798.13
 10
3308.63
 20
11832.13
 10
3258.63
 20
11832.13
  0
MTEXT
  5
194
330
17
100
AcDbEntity
  8
Texto Secao
100
AcDbMText
 10
3283.63
 20
11537.13
 30
0.0
 40
10.0
 71
1
  1
P20.C
  0
LWPOLYLINE
  5
195
330
17
100
AcDbEntity
  8
Paineis
100
AcDbPolyline
 90
4
 70
1
 10
3338.63
 20
11552.13
 10
3364.63
 20
11552.13
 10
3364.63
 20
11554.13
 10
3338.63
 20
11554.13
  0
LWPOLYLINE
  5
196
330
17
100
AcDbEntity
  8
Paineis
100
AcDbPolyline
 90
4
 70
1
 10
3338.63
 20
11554.13
 10
3364.63
 20
11554.13
 10
3364.63
 20
11798.13
 10
3338.63
 20
11798.13
  0
LWPOLYLINE
  5
197
330
17
100
AcDbEntity
  8
Paineis
100
AcDbPolyline
 90
4
 70
1
 10
3338.63
 20
11798.13
 10
3364.63
 20
11798.13
 10
3364.63
 20
11832.13
 10
3338.63
 20
11832.13
  0
MTEXT
  5
198
330
17
100
AcDbEntity
  8
Texto Secao
100
AcDbMText
 10
3351.63
 20
11537.13
 30
0.0
 40
10.0
 71
1
  1
P20.D
  0
MTEXT
  5
199
330
17
100
AcDbEntity
  8
Cota Secao (2x)
100
AcDbMText
 10
3122.63
 20
11857.13
 30
0.0
 40
8.0
 71
1
  1
B=26cm  H=50cm
  0
MTEXT
  5
19A
330
17
100
AcDbEntity
  8
NOMENCLATURA
100
AcDbMText
 10
3122.63
 20
11882.13
 30
0.0
 40
10.0
 71
1
  1
LAJE TÉCNICA - P20
  0
LWPOLYLINE
  5
19B
330
17
100
AcDbEntity
  8
Paineis
100
AcDbPolyline
 90
4
 70
1
 10
4338.63
 20
11546.37
 10
4438.63
 20
11546.37
 10
4438.63
 20
11548.37
 10
4338.63
 20
11548.37
  0
LWPOLYLINE
  5
19C
330
17
100
AcDbEntity
  8
Paineis
100
AcDbPolyline
 90
4
 70
1
 10
4338.63
 20
11548.37
 10
4438.63
 20
11548.37
 10
4438.63
 20
11792.37
 10
4338.63
 20
11792.37
  0
LWPOLYLINE
  5
19D
330
17
100
AcDbEntity
  8
Paineis
100
AcDbPolyline
 90
4
 70
1
 10
4338.63
 20
11792.37
 10
4438.63
 20
11792.37
 10
4438.63
 20
11826.37
 10
4338.63
 20
11826.37
  0
MTEXT
  5
19E
330
17
100
AcDbEntity
  8
Texto Secao
100
AcDbMText
 10
4388.63
 20
11531.37
 30
0.0
 40
10.0
 71
1
  1
P21.A
  0
LWPOLYLINE
  5
19F
330
17
100
AcDbEntity
  8
Paineis
100
AcDbPolyline
 90
4
 70
1
 10
4468.63
 20
11546.37
 10
4518.63
 20
11546.37
 10
4518.63
 20
11548.37
 10
4468.63
 20
11548.37
  0
LWPOLYLINE
  5
1A0
330
17
100
AcDbEntity
  8
Paineis
100
AcDbPolyline
 90
4
 70
1
 10
4468.63
 20
11548.37
 10
4518.63
 20
11548.37
 10
4518.63
 20
11792.37
 10
4468.63
 20
11792.37
  0
LWPOLYLINE
  5
1A1
330
17
100
AcDbEntity
  8
Paineis
100
AcDbPolyline
 90
4
 70
1
 10
4468.63
 20
11792.37
 10
4518.63
 20
11792.37
 10
4518.63
 20
11826.37
 10
4468.63
 20
11826.37
  0
MTEXT
  5
1A2
330
17
100
AcDbEntity
  8
Texto Secao
100
AcDbMText
 10
4493.63
 20
11531.37
 30
0.0
 40
10.0
 71
1
  1
P21.B
  0
LWPOLYLINE
  5
1A3
330
17
100
AcDbEntity
  8
Paineis
100
AcDbPolyline
 90
4
 70
1
 10
4548.63
 20
11546.37
 10
4648.63
 20
11546.37
 10
4648.63
 20
11548.37
 10
4548.63
 20
11548.37
  0
LWPOLYLINE
  5
1A4
330
17
100
AcDbEntity
  8
Paineis
100
AcDbPolyline
 90
4
 70
1
 10
4548.63
 20
11548.37
 10
4648.63
 20
11548.37
 10
4648.63
 20
11792.37
 10
4548.63
 20
11792.37
  0
LWPOLYLINE
  5
1A5
330
17
100
AcDbEntity
  8
Paineis
100
AcDbPolyline
 90
4
 70
1
 10
4548.63
 20
11792.37
 10
4648.63
 20
11792.37
 10
4648.63
 20
11826.37
 10
4548.63
 20
11826.37
  0
MTEXT
  5
1A6
330
17
100
AcDbEntity
  8
Texto Secao
100
AcDbMText
 10
4598.63
 20
11531.37
 30
0.0
 40
10.0
 71
1
  1
P21.C
  0
LWPOLYLINE
  5
1A7
330
17
100
AcDbEntity
  8
Paineis
100
AcDbPolyline
 90
4
 70
1
 10
4678.63
 20
11546.37
 10
4728.63
 20
11546.37
 10
4728.63
 20
11548.37
 10
4678.63
 20
11548.37
  0
LWPOLYLINE
  5
1A8
330
17
100
AcDbEntity
  8
Paineis
100
AcDbPolyline
 90
4
 70
1
 10
4678.63
 20
11548.37
 10
4728.63
 20
11548.37
 10
4728.63
 20
11792.37
 10
4678.63
 20
11792.37
  0
LWPOLYLINE
  5
1A9
330
17
100
AcDbEntity
  8
Paineis
100
AcDbPolyline
 90
4
 70
1
 10
4678.63
 20
11792.37
 10
4728.63
 20
11792.37
 10
4728.63
 20
11826.37
 10
4678.63
 20
11826.37
  0
MTEXT
  5
1AA
330
17
100
AcDbEntity
  8
Texto Secao
100
AcDbMText
 10
4703.63
 20
11531.37
 30
0.0
 40
10.0
 71
1
  1
P21.D
  0
MTEXT
  5
1AB
330
17
100
AcDbEntity
  8
Cota Secao (2x)
100
AcDbMText
 10
4338.63
 20
11851.37
 30
0.0
 40
8.0
 71
1
  1
B=50cm  H=100cm
  0
MTEXT
  5
1AC
330
17
100
AcDbEntity
  8
NOMENCLATURA
100
AcDbMText
 10
4338.63
 20
11876.37
 30
0.0
 40
10.0
 71
1
  1
LAJE TÉCNICA - P21
  0
LWPOLYLINE
  5
1AD
330
17
100
AcDbEntity
  8
Paineis
100
AcDbPolyline
 90
4
 70
1
 10
5665.54
 20
11540.61
 10
5715.54
 20
11540.61
 10
5715.54
 20
11542.61
 10
5665.54
 20
11542.61
  0
LWPOLYLINE
  5
1AE
330
17
100
AcDbEntity
  8
Paineis
100
AcDbPolyline
 90
4
 70
1
 10
5665.54
 20
11542.61
 10
5715.54
 20
11542.61
 10
5715.54
 20
11786.61
 10
5665.54
 20
11786.61
  0
LWPOLYLINE
  5
1AF
330
17
100
AcDbEntity
  8
Paineis
100
AcDbPolyline
 90
4
 70
1
 10
5665.54
 20
11786.61
 10
5715.54
 20
11786.61
 10
5715.54
 20
11820.61
 10
5665.54
 20
11820.61
  0
MTEXT
  5
1B0
330
17
100
AcDbEntity
  8
Texto Secao
100
AcDbMText
 10
5690.54
 20
11525.61
 30
0.0
 40
10.0
 71
1
  1
P22.A
  0
LWPOLYLINE
  5
1B1
330
17
100
AcDbEntity
  8
Paineis
100
AcDbPolyline
 90
4
 70
1
 10
5745.54
 20
11540.61
 10
5761.54
 20
11540.61
 10
5761.54
 20
11542.61
 10
5745.54
 20
11542.61
  0
LWPOLYLINE
  5
1B2
330
17
100
AcDbEntity
  8
Paineis
100
AcDbPolyline
 90
4
 70
1
 10
5745.54
 20
11542.61
 10
5761.54
 20
11542.61
 10
5761.54
 20
11786.61
 10
5745.54
 20
11786.61
  0
LWPOLYLINE
  5
1B3
330
17
100
AcDbEntity
  8
Paineis
100
AcDbPolyline
 90
4
 70
1
 10
5745.54
 20
11786.61
 10
5761.54
 20
11786.61
 10
5761.54
 20
11820.61
 10
5745.54
 20
11820.61
  0
MTEXT
  5
1B4
330
17
100
AcDbEntity
  8
Texto Secao
100
AcDbMText
 10
5753.54
 20
11525.61
 30
0.0
 40
10.0
 71
1
  1
P22.B
  0
LWPOLYLINE
  5
1B5
330
17
100
AcDbEntity
  8
Paineis
100
AcDbPolyline
 90
4
 70
1
 10
5791.54
 20
11540.61
 10
5841.54
 20
11540.61
 10
5841.54
 20
11542.61
 10
5791.54
 20
11542.61
  0
LWPOLYLINE
  5
1B6
330
17
100
AcDbEntity
  8
Paineis
100
AcDbPolyline
 90
4
 70
1
 10
5791.54
 20
11542.61
 10
5841.54
 20
11542.61
 10
5841.54
 20
11786.61
 10
5791.54
 20
11786.61
  0
LWPOLYLINE
  5
1B7
330
17
100
AcDbEntity
  8
Paineis
100
AcDbPolyline
 90
4
 70
1
 10
5791.54
 20
11786.61
 10
5841.54
 20
11786.61
 10
5841.54
 20
11820.61
 10
5791.54
 20
11820.61
  0
MTEXT
  5
1B8
330
17
100
AcDbEntity
  8
Texto Secao
100
AcDbMText
 10
5816.54
 20
11525.61
 30
0.0
 40
10.0
 71
1
  1
P22.C
  0
LWPOLYLINE
  5
1B9
330
17
100
AcDbEntity
  8
Paineis
100
AcDbPolyline
 90
4
 70
1
 10
5871.54
 20
11540.61
 10
5887.54
 20
11540.61
 10
5887.54
 20
11542.61
 10
5871.54
 20
11542.61
  0
LWPOLYLINE
  5
1BA
330
17
100
AcDbEntity
  8
Paineis
100
AcDbPolyline
 90
4
 70
1
 10
5871.54
 20
11542.61
 10
5887.54
 20
11542.61
 10
5887.54
 20
11786.61
 10
5871.54
 20
11786.61
  0
LWPOLYLINE
  5
1BB
330
17
100
AcDbEntity
  8
Paineis
100
AcDbPolyline
 90
4
 70
1
 10
5871.54
 20
11786.61
 10
5887.54
 20
11786.61
 10
5887.54
 20
11820.61
 10
5871.54
 20
11820.61
  0
MTEXT
  5
1BC
330
17
100
AcDbEntity
  8
Texto Secao
100
AcDbMText
 10
5879.54
 20
11525.61
 30
0.0
 40
10.0
 71
1
  1
P22.D
  0
MTEXT
  5
1BD
330
17
100
AcDbEntity
  8
Cota Secao (2x)
100
AcDbMText
 10
5665.54
 20
11845.61
 30
0.0
 40
8.0
 71
1
  1
B=16cm  H=50cm
  0
MTEXT
  5
1BE
330
17
100
AcDbEntity
  8
NOMENCLATURA
100
AcDbMText
 10
5665.54
 20
11870.61
 30
0.0
 40
10.0
 71
1
  1
LAJE TÉCNICA - P22
  0
LWPOLYLINE
  5
1BF
330
17
100
AcDbEntity
  8
Paineis
100
AcDbPolyline
 90
4
 70
1
 10
1852.83
 20
10616.0
 10
1902.83
 20
10616.0
 10
1902.83
 20
10618.0
 10
1852.83
 20
10618.0
  0
LWPOLYLINE
  5
1C0
330
17
100
AcDbEntity
  8
Paineis
100
AcDbPolyline
 90
4
 70
1
 10
1852.83
 20
10618.0
 10
1902.83
 20
10618.0
 10
1902.83
 20
10862.0
 10
1852.83
 20
10862.0
  0
LWPOLYLINE
  5
1C1
330
17
100
AcDbEntity
  8
Paineis
100
AcDbPolyline
 90
4
 70
1
 10
1852.83
 20
10862.0
 10
1902.83
 20
10862.0
 10
1902.83
 20
10896.0
 10
1852.83
 20
10896.0
  0
MTEXT
  5
1C2
330
17
100
AcDbEntity
  8
Texto Secao
100
AcDbMText
 10
1877.83
 20
10601.0
 30
0.0
 40
10.0
 71
1
  1
P23.A
  0
LWPOLYLINE
  5
1C3
330
17
100
AcDbEntity
  8
Paineis
100
AcDbPolyline
 90
4
 70
1
 10
1932.83
 20
10616.0
 10
1964.83
 20
10616.0
 10
1964.83
 20
10618.0
 10
1932.83
 20
10618.0
  0
LWPOLYLINE
  5
1C4
330
17
100
AcDbEntity
  8
Paineis
100
AcDbPolyline
 90
4
 70
1
 10
1932.83
 20
10618.0
 10
1964.83
 20
10618.0
 10
1964.83
 20
10862.0
 10
1932.83
 20
10862.0
  0
LWPOLYLINE
  5
1C5
330
17
100
AcDbEntity
  8
Paineis
100
AcDbPolyline
 90
4
 70
1
 10
1932.83
 20
10862.0
 10
1964.83
 20
10862.0
 10
1964.83
 20
10896.0
 10
1932.83
 20
10896.0
  0
MTEXT
  5
1C6
330
17
100
AcDbEntity
  8
Texto Secao
100
AcDbMText
 10
1948.83
 20
10601.0
 30
0.0
 40
10.0
 71
1
  1
P23.B
  0
LWPOLYLINE
  5
1C7
330
17
100
AcDbEntity
  8
Paineis
100
AcDbPolyline
 90
4
 70
1
 10
1994.83
 20
10616.0
 10
2044.83
 20
10616.0
 10
2044.83
 20
10618.0
 10
1994.83
 20
10618.0
  0
LWPOLYLINE
  5
1C8
330
17
100
AcDbEntity
  8
Paineis
100
AcDbPolyline
 90
4
 70
1
 10
1994.83
 20
10618.0
 10
2044.83
 20
10618.0
 10
2044.83
 20
10862.0
 10
1994.83
 20
10862.0
  0
LWPOLYLINE
  5
1C9
330
17
100
AcDbEntity
  8
Paineis
100
AcDbPolyline
 90
4
 70
1
 10
1994.83
 20
10862.0
 10
2044.83
 20
10862.0
 10
2044.83
 20
10896.0
 10
1994.83
 20
10896.0
  0
MTEXT
  5
1CA
330
17
100
AcDbEntity
  8
Texto Secao
100
AcDbMText
 10
2019.83
 20
10601.0
 30
0.0
 40
10.0
 71
1
  1
P23.C
  0
LWPOLYLINE
  5
1CB
330
17
100
AcDbEntity
  8
Paineis
100
AcDbPolyline
 90
4
 70
1
 10
2074.83
 20
10616.0
 10
2106.83
 20
10616.0
 10
2106.83
 20
10618.0
 10
2074.83
 20
10618.0
  0
LWPOLYLINE
  5
1CC
330
17
100
AcDbEntity
  8
Paineis
100
AcDbPolyline
 90
4
 70
1
 10
2074.83
 20
10618.0
 10
2106.83
 20
10618.0
 10
2106.83
 20
10862.0
 10
2074.83
 20
10862.0
  0
LWPOLYLINE
  5
1CD
330
17
100
AcDbEntity
  8
Paineis
100
AcDbPolyline
 90
4
 70
1
 10
2074.83
 20
10862.0
 10
2106.83
 20
10862.0
 10
2106.83
 20
10896.0
 10
2074.83
 20
10896.0
  0
MTEXT
  5
1CE
330
17
100
AcDbEntity
  8
Texto Secao
100
AcDbMText
 10
2090.83
 20
10601.0
 30
0.0
 40
10.0
 71
1
  1
P23.D
  0
MTEXT
  5
1CF
330
17
100
AcDbEntity
  8
Cota Secao (2x)
100
AcDbMText
 10
1852.83
 20
10921.0
 30
0.0
 40
8.0
 71
1
  1
B=32cm  H=50cm
  0
MTEXT
  5
1D0
330
17
100
AcDbEntity
  8
NOMENCLATURA
100
AcDbMText
 10
1852.83
 20
10946.0
 30
0.0
 40
10.0
 71
1
  1
LAJE TÉCNICA - P23
  0
LWPOLYLINE
  5
1D1
330
17
100
AcDbEntity
  8
Paineis
100
AcDbPolyline
 90
4
 70
1
 10
3131.63
 20
10610.24
 10
3181.63
 20
10610.24
 10
3181.63
 20
10612.24
 10
3131.63
 20
10612.24
  0
LWPOLYLINE
  5
1D2
330
17
100
AcDbEntity
  8
Paineis
100
AcDbPolyline
 90
4
 70
1
 10
3131.63
 20
10612.24
 10
3181.63
 20
10612.24
 10
3181.63
 20
10856.24
 10
3131.63
 20
10856.24
  0
LWPOLYLINE
  5
1D3
330
17
100
AcDbEntity
  8
Paineis
100
AcDbPolyline
 90
4
 70
1
 10
3131.63
 20
10856.24
 10
3181.63
 20
10856.24
 10
3181.63
 20
10890.24
 10
3131.63
 20
10890.24
  0
MTEXT
  5
1D4
330
17
100
AcDbEntity
  8
Texto Secao
100
AcDbMText
 10
3156.63
 20
10595.24
 30
0.0
 40
10.0
 71
1
  1
P24.A
  0
LWPOLYLINE
  5
1D5
330
17
100
AcDbEntity
  8
Paineis
100
AcDbPolyline
 90
4
 70
1
 10
3211.63
 20
10610.24
 10
3243.63
 20
10610.24
 10
3243.63
 20
10612.24
 10
3211.63
 20
10612.24
  0
LWPOLYLINE
  5
1D6
330
17
100
AcDbEntity
  8
Paineis
100
AcDbPolyline
 90
4
 70
1
 10
3211.63
 20
10612.24
 10
3243.63
 20
10612.24
 10
3243.63
 20
10856.24
 10
3211.63
 20
10856.24
  0
LWPOLYLINE
  5
1D7
330
17
100
AcDbEntity
  8
Paineis
100
AcDbPolyline
 90
4
 70
1
 10
3211.63
 20
10856.24
 10
3243.63
 20
10856.24
 10
3243.63
 20
10890.24
 10
3211.63
 20
10890.24
  0
MTEXT
  5
1D8
330
17
100
AcDbEntity
  8
Texto Secao
100
AcDbMText
 10
3227.63
 20
10595.24
 30
0.0
 40
10.0
 71
1
  1
P24.B
  0
LWPOLYLINE
  5
1D9
330
17
100
AcDbEntity
  8
Paineis
100
AcDbPolyline
 90
4
 70
1
 10
3273.63
 20
10610.24
 10
3323.63
 20
10610.24
 10
3323.63
 20
10612.24
 10
3273.63
 20
10612.24
  0
LWPOLYLINE
  5
1DA
330
17
100
AcDbEntity
  8
Paineis
100
AcDbPolyline
 90
4
 70
1
 10
3273.63
 20
10612.24
 10
3323.63
 20
10612.24
 10
3323.63
 20
10856.24
 10
3273.63
 20
10856.24
  0
LWPOLYLINE
  5
1DB
330
17
100
AcDbEntity
  8
Paineis
100
AcDbPolyline
 90
4
 70
1
 10
3273.63
 20
10856.24
 10
3323.63
 20
10856.24
 10
3323.63
 20
10890.24
 10
3273.63
 20
10890.24
  0
MTEXT
  5
1DC
330
17
100
AcDbEntity
  8
Texto Secao
100
AcDbMText
 10
3298.63
 20
10595.24
 30
0.0
 40
10.0
 71
1
  1
P24.C
  0
LWPOLYLINE
  5
1DD
330
17
100
AcDbEntity
  8
Paineis
100
AcDbPolyline
 90
4
 70
1
 10
3353.63
 20
10610.24
 10
3385.63
 20
10610.24
 10
3385.63
 20
10612.24
 10
3353.63
 20
10612.24
  0
LWPOLYLINE
  5
1DE
330
17
100
AcDbEntity
  8
Paineis
100
AcDbPolyline
 90
4
 70
1
 10
3353.63
 20
10612.24
 10
3385.63
 20
10612.24
 10
3385.63
 20
10856.24
 10
3353.63
 20
10856.24
  0
LWPOLYLINE
  5
1DF
330
17
100
AcDbEntity
  8
Paineis
100
AcDbPolyline
 90
4
 70
1
 10
3353.63
 20
10856.24
 10
3385.63
 20
10856.24
 10
3385.63
 20
10890.24
 10
3353.63
 20
10890.24
  0
MTEXT
  5
1E0
330
17
100
AcDbEntity
  8
Texto Secao
100
AcDbMText
 10
3369.63
 20
10595.24
 30
0.0
 40
10.0
 71
1
  1
P24.D
  0
MTEXT
  5
1E1
330
17
100
AcDbEntity
  8
Cota Secao (2x)
100
AcDbMText
 10
3131.63
 20
10915.24
 30
0.0
 40
8.0
 71
1
  1
B=32cm  H=50cm
  0
MTEXT
  5
1E2
330
17
100
AcDbEntity
  8
NOMENCLATURA
100
AcDbMText
 10
3131.63
 20
10940.24
 30
0.0
 40
10.0
 71
1
  1
LAJE TÉCNICA - P24
  0
LWPOLYLINE
  5
1E3
330
17
100
AcDbEntity
  8
Paineis
100
AcDbPolyline
 90
4
 70
1
 10
3165.75
 20
15319.72
 10
3227.75
 20
15319.72
 10
3227.75
 20
15321.72
 10
3165.75
 20
15321.72
  0
LWPOLYLINE
  5
1E4
330
17
100
AcDbEntity
  8
Paineis
100
AcDbPolyline
 90
4
 70
1
 10
3165.75
 20
15321.72
 10
3227.75
 20
15321.72
 10
3227.75
 20
15565.72
 10
3165.75
 20
15565.72
  0
LWPOLYLINE
  5
1E5
330
17
100
AcDbEntity
  8
Paineis
100
AcDbPolyline
 90
4
 70
1
 10
3165.75
 20
15565.72
 10
3227.75
 20
15565.72
 10
3227.75
 20
15599.72
 10
3165.75
 20
15599.72
  0
MTEXT
  5
1E6
330
17
100
AcDbEntity
  8
Texto Secao
100
AcDbMText
 10
3196.75
 20
15304.72
 30
0.0
 40
10.0
 71
1
  1
P25.A
  0
LWPOLYLINE
  5
1E7
330
17
100
AcDbEntity
  8
Paineis
100
AcDbPolyline
 90
4
 70
1
 10
3257.75
 20
15319.72
 10
3309.75
 20
15319.72
 10
3309.75
 20
15321.72
 10
3257.75
 20
15321.72
  0
LWPOLYLINE
  5
1E8
330
17
100
AcDbEntity
  8
Paineis
100
AcDbPolyline
 90
4
 70
1
 10
3257.75
 20
15321.72
 10
3309.75
 20
15321.72
 10
3309.75
 20
15565.72
 10
3257.75
 20
15565.72
  0
LWPOLYLINE
  5
1E9
330
17
100
AcDbEntity
  8
Paineis
100
AcDbPolyline
 90
4
 70
1
 10
3257.75
 20
15565.72
 10
3309.75
 20
15565.72
 10
3309.75
 20
15599.72
 10
3257.75
 20
15599.72
  0
MTEXT
  5
1EA
330
17
100
AcDbEntity
  8
Texto Secao
100
AcDbMText
 10
3283.75
 20
15304.72
 30
0.0
 40
10.0
 71
1
  1
P25.B
  0
LWPOLYLINE
  5
1EB
330
17
100
AcDbEntity
  8
Paineis
100
AcDbPolyline
 90
4
 70
1
 10
3339.75
 20
15319.72
 10
3401.75
 20
15319.72
 10
3401.75
 20
15321.72
 10
3339.75
 20
15321.72
  0
LWPOLYLINE
  5
1EC
330
17
100
AcDbEntity
  8
Paineis
100
AcDbPolyline
 90
4
 70
1
 10
3339.75
 20
15321.72
 10
3401.75
 20
15321.72
 10
3401.75
 20
15565.72
 10
3339.75
 20
15565.72
  0
LWPOLYLINE
  5
1ED
330
17
100
AcDbEntity
  8
Paineis
100
AcDbPolyline
 90
4
 70
1
 10
3339.75
 20
15565.72
 10
3401.75
 20
15565.72
 10
3401.75
 20
15599.72
 10
3339.75
 20
15599.72
  0
MTEXT
  5
1EE
330
17
100
AcDbEntity
  8
Texto Secao
100
AcDbMText
 10
3370.75
 20
15304.72
 30
0.0
 40
10.0
 71
1
  1
P25.C
  0
LWPOLYLINE
  5
1EF
330
17
100
AcDbEntity
  8
Paineis
100
AcDbPolyline
 90
4
 70
1
 10
3431.75
 20
15319.72
 10
3483.75
 20
15319.72
 10
3483.75
 20
15321.72
 10
3431.75
 20
15321.72
  0
LWPOLYLINE
  5
1F0
330
17
100
AcDbEntity
  8
Paineis
100
AcDbPolyline
 90
4
 70
1
 10
3431.75
 20
15321.72
 10
3483.75
 20
15321.72
 10
3483.75
 20
15565.72
 10
3431.75
 20
15565.72
  0
LWPOLYLINE
  5
1F1
330
17
100
AcDbEntity
  8
Paineis
100
AcDbPolyline
 90
4
 70
1
 10
3431.75
 20
15565.72
 10
3483.75
 20
15565.72
 10
3483.75
 20
15599.72
 10
3431.75
 20
15599.72
  0
MTEXT
  5
1F2
330
17
100
AcDbEntity
  8
Texto Secao
100
AcDbMText
 10
3457.75
 20
15304.72
 30
0.0
 40
10.0
 71
1
  1
P25.D
  0
MTEXT
  5
1F3
330
17
100
AcDbEntity
  8
Cota Secao (2x)
100
AcDbMText
 10
3165.75
 20
15624.72
 30
0.0
 40
8.0
 71
1
  1
B=52cm  H=62cm
  0
MTEXT
  5
1F4
330
17
100
AcDbEntity
  8
NOMENCLATURA
100
AcDbMText
 10
3165.75
 20
15649.72
 30
0.0
 40
10.0
 71
1
  1
LAJE TÉCNICA - P25
  0
LWPOLYLINE
  5
1F5
330
17
100
AcDbEntity
  8
Paineis
100
AcDbPolyline
 90
4
 70
1
 10
4356.92
 20
10604.48
 10
4416.92
 20
10604.48
 10
4416.92
 20
10606.48
 10
4356.92
 20
10606.48
  0
LWPOLYLINE
  5
1F6
330
17
100
AcDbEntity
  8
Paineis
100
AcDbPolyline
 90
4
 70
1
 10
4356.92
 20
10606.48
 10
4416.92
 20
10606.48
 10
4416.92
 20
10850.48
 10
4356.92
 20
10850.48
  0
LWPOLYLINE
  5
1F7
330
17
100
AcDbEntity
  8
Paineis
100
AcDbPolyline
 90
4
 70
1
 10
4356.92
 20
10850.48
 10
4416.92
 20
10850.48
 10
4416.92
 20
10884.48
 10
4356.92
 20
10884.48
  0
MTEXT
  5
1F8
330
17
100
AcDbEntity
  8
Texto Secao
100
AcDbMText
 10
4386.92
 20
10589.48
 30
0.0
 40
10.0
 71
1
  1
P26.A
  0
LWPOLYLINE
  5
1F9
330
17
100
AcDbEntity
  8
Paineis
100
AcDbPolyline
 90
4
 70
1
 10
4446.92
 20
10604.48
 10
4484.92
 20
10604.48
 10
4484.92
 20
10606.48
 10
4446.92
 20
10606.48
  0
LWPOLYLINE
  5
1FA
330
17
100
AcDbEntity
  8
Paineis
100
AcDbPolyline
 90
4
 70
1
 10
4446.92
 20
10606.48
 10
4484.92
 20
10606.48
 10
4484.92
 20
10850.48
 10
4446.92
 20
10850.48
  0
LWPOLYLINE
  5
1FB
330
17
100
AcDbEntity
  8
Paineis
100
AcDbPolyline
 90
4
 70
1
 10
4446.92
 20
10850.48
 10
4484.92
 20
10850.48
 10
4484.92
 20
10884.48
 10
4446.92
 20
10884.48
  0
MTEXT
  5
1FC
330
17
100
AcDbEntity
  8
Texto Secao
100
AcDbMText
 10
4465.92
 20
10589.48
 30
0.0
 40
10.0
 71
1
  1
P26.B
  0
LWPOLYLINE
  5
1FD
330
17
100
AcDbEntity
  8
Paineis
100
AcDbPolyline
 90
4
 70
1
 10
4514.92
 20
10604.48
 10
4574.92
 20
10604.48
 10
4574.92
 20
10606.48
 10
4514.92
 20
10606.48
  0
LWPOLYLINE
  5
1FE
330
17
100
AcDbEntity
  8
Paineis
100
AcDbPolyline
 90
4
 70
1
 10
4514.92
 20
10606.48
 10
4574.92
 20
10606.48
 10
4574.92
 20
10850.48
 10
4514.92
 20
10850.48
  0
LWPOLYLINE
  5
1FF
330
17
100
AcDbEntity
  8
Paineis
100
AcDbPolyline
 90
4
 70
1
 10
4514.92
 20
10850.48
 10
4574.92
 20
10850.48
 10
4574.92
 20
10884.48
 10
4514.92
 20
10884.48
  0
MTEXT
  5
200
330
17
100
AcDbEntity
  8
Texto Secao
100
AcDbMText
 10
4544.92
 20
10589.48
 30
0.0
 40
10.0
 71
1
  1
P26.C
  0
LWPOLYLINE
  5
201
330
17
100
AcDbEntity
  8
Paineis
100
AcDbPolyline
 90
4
 70
1
 10
4604.92
 20
10604.48
 10
4642.92
 20
10604.48
 10
4642.92
 20
10606.48
 10
4604.92
 20
10606.48
  0
LWPOLYLINE
  5
202
330
17
100
AcDbEntity
  8
Paineis
100
AcDbPolyline
 90
4
 70
1
 10
4604.92
 20
10606.48
 10
4642.92
 20
10606.48
 10
4642.92
 20
10850.48
 10
4604.92
 20
10850.48
  0
LWPOLYLINE
  5
203
330
17
100
AcDbEntity
  8
Paineis
100
AcDbPolyline
 90
4
 70
1
 10
4604.92
 20
10850.48
 10
4642.92
 20
10850.48
 10
4642.92
 20
10884.48
 10
4604.92
 20
10884.48
  0
MTEXT
  5
204
330
17
100
AcDbEntity
  8
Texto Secao
100
AcDbMText
 10
4623.92
 20
10589.48
 30
0.0
 40
10.0
 71
1
  1
P26.D
  0
MTEXT
  5
205
330
17
100
AcDbEntity
  8
Cota Secao (2x)
100
AcDbMText
 10
4356.92
 20
10909.48
 30
0.0
 40
8.0
 71
1
  1
B=38cm  H=60cm
  0
MTEXT
  5
206
330
17
100
AcDbEntity
  8
NOMENCLATURA
100
AcDbMText
 10
4356.92
 20
10934.48
 30
0.0
 40
10.0
 71
1
  1
LAJE TÉCNICA - P26
  0
LWPOLYLINE
  5
207
330
17
100
AcDbEntity
  8
Paineis
100
AcDbPolyline
 90
4
 70
1
 10
1729.04
 20
14383.58
 10
1824.94
 20
14383.58
 10
1824.94
 20
14385.58
 10
1729.04
 20
14385.58
  0
LWPOLYLINE
  5
208
330
17
100
AcDbEntity
  8
Paineis
100
AcDbPolyline
 90
4
 70
1
 10
1729.04
 20
14385.58
 10
1824.94
 20
14385.58
 10
1824.94
 20
14629.58
 10
1729.04
 20
14629.58
  0
LWPOLYLINE
  5
209
330
17
100
AcDbEntity
  8
Paineis
100
AcDbPolyline
 90
4
 70
1
 10
1729.04
 20
14629.58
 10
1824.94
 20
14629.58
 10
1824.94
 20
14663.58
 10
1729.04
 20
14663.58
  0
MTEXT
  5
20A
330
17
100
AcDbEntity
  8
Texto Secao
100
AcDbMText
 10
1776.99
 20
14368.58
 30
0.0
 40
10.0
 71
1
  1
P27.A
  0
LWPOLYLINE
  5
20B
330
17
100
AcDbEntity
  8
Paineis
100
AcDbPolyline
 90
4
 70
1
 10
1854.94
 20
14383.58
 10
1892.94
 20
14383.58
 10
1892.94
 20
14385.58
 10
1854.94
 20
14385.58
  0
LWPOLYLINE
  5
20C
330
17
100
AcDbEntity
  8
Paineis
100
AcDbPolyline
 90
4
 70
1
 10
1854.94
 20
14385.58
 10
1892.94
 20
14385.58
 10
1892.94
 20
14629.58
 10
1854.94
 20
14629.58
  0
LWPOLYLINE
  5
20D
330
17
100
AcDbEntity
  8
Paineis
100
AcDbPolyline
 90
4
 70
1
 10
1854.94
 20
14629.58
 10
1892.94
 20
14629.58
 10
1892.94
 20
14663.58
 10
1854.94
 20
14663.58
  0
MTEXT
  5
20E
330
17
100
AcDbEntity
  8
Texto Secao
100
AcDbMText
 10
1873.94
 20
14368.58
 30
0.0
 40
10.0
 71
1
  1
P27.B
  0
LWPOLYLINE
  5
20F
330
17
100
AcDbEntity
  8
Paineis
100
AcDbPolyline
 90
4
 70
1
 10
1922.94
 20
14383.58
 10
2018.84
 20
14383.58
 10
2018.84
 20
14385.58
 10
1922.94
 20
14385.58
  0
LWPOLYLINE
  5
210
330
17
100
AcDbEntity
  8
Paineis
100
AcDbPolyline
 90
4
 70
1
 10
1922.94
 20
14385.58
 10
2018.84
 20
14385.58
 10
2018.84
 20
14629.58
 10
1922.94
 20
14629.58
  0
LWPOLYLINE
  5
211
330
17
100
AcDbEntity
  8
Paineis
100
AcDbPolyline
 90
4
 70
1
 10
1922.94
 20
14629.58
 10
2018.84
 20
14629.58
 10
2018.84
 20
14663.58
 10
1922.94
 20
14663.58
  0
MTEXT
  5
212
330
17
100
AcDbEntity
  8
Texto Secao
100
AcDbMText
 10
1970.8899999999999
 20
14368.58
 30
0.0
 40
10.0
 71
1
  1
P27.C
  0
LWPOLYLINE
  5
213
330
17
100
AcDbEntity
  8
Paineis
100
AcDbPolyline
 90
4
 70
1
 10
2048.84
 20
14383.58
 10
2086.84
 20
14383.58
 10
2086.84
 20
14385.58
 10
2048.84
 20
14385.58
  0
LWPOLYLINE
  5
214
330
17
100
AcDbEntity
  8
Paineis
100
AcDbPolyline
 90
4
 70
1
 10
2048.84
 20
14385.58
 10
2086.84
 20
14385.58
 10
2086.84
 20
14629.58
 10
2048.84
 20
14629.58
  0
LWPOLYLINE
  5
215
330
17
100
AcDbEntity
  8
Paineis
100
AcDbPolyline
 90
4
 70
1
 10
2048.84
 20
14629.58
 10
2086.84
 20
14629.58
 10
2086.84
 20
14663.58
 10
2048.84
 20
14663.58
  0
MTEXT
  5
216
330
17
100
AcDbEntity
  8
Texto Secao
100
AcDbMText
 10
2067.84
 20
14368.58
 30
0.0
 40
10.0
 71
1
  1
P27.D
  0
MTEXT
  5
217
330
17
100
AcDbEntity
  8
Cota Secao (2x)
100
AcDbMText
 10
1729.04
 20
14688.58
 30
0.0
 40
8.0
 71
1
  1
B=38cm  H=96cm
  0
MTEXT
  5
218
330
17
100
AcDbEntity
  8
NOMENCLATURA
100
AcDbMText
 10
1729.04
 20
14713.58
 30
0.0
 40
10.0
 71
1
  1
LAJE TÉCNICA - P27
  0
LWPOLYLINE
  5
219
330
17
100
AcDbEntity
  8
Paineis
100
AcDbPolyline
 90
4
 70
1
 10
5560.12
 20
15324.3
 10
5650.12
 20
15324.3
 10
5650.12
 20
15326.3
 10
5560.12
 20
15326.3
  0
LWPOLYLINE
  5
21A
330
17
100
AcDbEntity
  8
Paineis
100
AcDbPolyline
 90
4
 70
1
 10
5560.12
 20
15326.3
 10
5650.12
 20
15326.3
 10
5650.12
 20
15570.3
 10
5560.12
 20
15570.3
  0
LWPOLYLINE
  5
21B
330
17
100
AcDbEntity
  8
Paineis
100
AcDbPolyline
 90
4
 70
1
 10
5560.12
 20
15570.3
 10
5650.12
 20
15570.3
 10
5650.12
 20
15604.3
 10
5560.12
 20
15604.3
  0
MTEXT
  5
21C
330
17
100
AcDbEntity
  8
Texto Secao
100
AcDbMText
 10
5605.12
 20
15309.3
 30
0.0
 40
10.0
 71
1
  1
P28.A
  0
LWPOLYLINE
  5
21D
330
17
100
AcDbEntity
  8
Paineis
100
AcDbPolyline
 90
4
 70
1
 10
5680.12
 20
15324.3
 10
5718.12
 20
15324.3
 10
5718.12
 20
15326.3
 10
5680.12
 20
15326.3
  0
LWPOLYLINE
  5
21E
330
17
100
AcDbEntity
  8
Paineis
100
AcDbPolyline
 90
4
 70
1
 10
5680.12
 20
15326.3
 10
5718.12
 20
15326.3
 10
5718.12
 20
15570.3
 10
5680.12
 20
15570.3
  0
LWPOLYLINE
  5
21F
330
17
100
AcDbEntity
  8
Paineis
100
AcDbPolyline
 90
4
 70
1
 10
5680.12
 20
15570.3
 10
5718.12
 20
15570.3
 10
5718.12
 20
15604.3
 10
5680.12
 20
15604.3
  0
MTEXT
  5
220
330
17
100
AcDbEntity
  8
Texto Secao
100
AcDbMText
 10
5699.12
 20
15309.3
 30
0.0
 40
10.0
 71
1
  1
P28.B
  0
LWPOLYLINE
  5
221
330
17
100
AcDbEntity
  8
Paineis
100
AcDbPolyline
 90
4
 70
1
 10
5748.12
 20
15324.3
 10
5838.12
 20
15324.3
 10
5838.12
 20
15326.3
 10
5748.12
 20
15326.3
  0
LWPOLYLINE
  5
222
330
17
100
AcDbEntity
  8
Paineis
100
AcDbPolyline
 90
4
 70
1
 10
5748.12
 20
15326.3
 10
5838.12
 20
15326.3
 10
5838.12
 20
15570.3
 10
5748.12
 20
15570.3
  0
LWPOLYLINE
  5
223
330
17
100
AcDbEntity
  8
Paineis
100
AcDbPolyline
 90
4
 70
1
 10
5748.12
 20
15570.3
 10
5838.12
 20
15570.3
 10
5838.12
 20
15604.3
 10
5748.12
 20
15604.3
  0
MTEXT
  5
224
330
17
100
AcDbEntity
  8
Texto Secao
100
AcDbMText
 10
5793.12
 20
15309.3
 30
0.0
 40
10.0
 71
1
  1
P28.C
  0
LWPOLYLINE
  5
225
330
17
100
AcDbEntity
  8
Paineis
100
AcDbPolyline
 90
4
 70
1
 10
5868.12
 20
15324.3
 10
5906.12
 20
15324.3
 10
5906.12
 20
15326.3
 10
5868.12
 20
15326.3
  0
LWPOLYLINE
  5
226
330
17
100
AcDbEntity
  8
Paineis
100
AcDbPolyline
 90
4
 70
1
 10
5868.12
 20
15326.3
 10
5906.12
 20
15326.3
 10
5906.12
 20
15570.3
 10
5868.12
 20
15570.3
  0
LWPOLYLINE
  5
227
330
17
100
AcDbEntity
  8
Paineis
100
AcDbPolyline
 90
4
 70
1
 10
5868.12
 20
15570.3
 10
5906.12
 20
15570.3
 10
5906.12
 20
15604.3
 10
5868.12
 20
15604.3
  0
MTEXT
  5
228
330
17
100
AcDbEntity
  8
Texto Secao
100
AcDbMText
 10
5887.12
 20
15309.3
 30
0.0
 40
10.0
 71
1
  1
P28.D
  0
MTEXT
  5
229
330
17
100
AcDbEntity
  8
Cota Secao (2x)
100
AcDbMText
 10
5560.12
 20
15629.3
 30
0.0
 40
8.0
 71
1
  1
B=38cm  H=90cm
  0
MTEXT
  5
22A
330
17
100
AcDbEntity
  8
NOMENCLATURA
100
AcDbMText
 10
5560.12
 20
15654.3
 30
0.0
 40
10.0
 71
1
  1
LAJE TÉCNICA - P28
  0
LWPOLYLINE
  5
22B
330
17
100
AcDbEntity
  8
Paineis
100
AcDbPolyline
 90
4
 70
1
 10
5560.12
 20
15324.3
 10
5650.12
 20
15324.3
 10
5650.12
 20
15326.3
 10
5560.12
 20
15326.3
  0
LWPOLYLINE
  5
22C
330
17
100
AcDbEntity
  8
Paineis
100
AcDbPolyline
 90
4
 70
1
 10
5560.12
 20
15326.3
 10
5650.12
 20
15326.3
 10
5650.12
 20
15570.3
 10
5560.12
 20
15570.3
  0
LWPOLYLINE
  5
22D
330
17
100
AcDbEntity
  8
Paineis
100
AcDbPolyline
 90
4
 70
1
 10
5560.12
 20
15570.3
 10
5650.12
 20
15570.3
 10
5650.12
 20
15604.3
 10
5560.12
 20
15604.3
  0
MTEXT
  5
22E
330
17
100
AcDbEntity
  8
Texto Secao
100
AcDbMText
 10
5605.12
 20
15309.3
 30
0.0
 40
10.0
 71
1
  1
P29.A
  0
LWPOLYLINE
  5
22F
330
17
100
AcDbEntity
  8
Paineis
100
AcDbPolyline
 90
4
 70
1
 10
5680.12
 20
15324.3
 10
5718.12
 20
15324.3
 10
5718.12
 20
15326.3
 10
5680.12
 20
15326.3
  0
LWPOLYLINE
  5
230
330
17
100
AcDbEntity
  8
Paineis
100
AcDbPolyline
 90
4
 70
1
 10
5680.12
 20
15326.3
 10
5718.12
 20
15326.3
 10
5718.12
 20
15570.3
 10
5680.12
 20
15570.3
  0
LWPOLYLINE
  5
231
330
17
100
AcDbEntity
  8
Paineis
100
AcDbPolyline
 90
4
 70
1
 10
5680.12
 20
15570.3
 10
5718.12
 20
15570.3
 10
5718.12
 20
15604.3
 10
5680.12
 20
15604.3
  0
MTEXT
  5
232
330
17
100
AcDbEntity
  8
Texto Secao
100
AcDbMText
 10
5699.12
 20
15309.3
 30
0.0
 40
10.0
 71
1
  1
P29.B
  0
LWPOLYLINE
  5
233
330
17
100
AcDbEntity
  8
Paineis
100
AcDbPolyline
 90
4
 70
1
 10
5748.12
 20
15324.3
 10
5838.12
 20
15324.3
 10
5838.12
 20
15326.3
 10
5748.12
 20
15326.3
  0
LWPOLYLINE
  5
234
330
17
100
AcDbEntity
  8
Paineis
100
AcDbPolyline
 90
4
 70
1
 10
5748.12
 20
15326.3
 10
5838.12
 20
15326.3
 10
5838.12
 20
15570.3
 10
5748.12
 20
15570.3
  0
LWPOLYLINE
  5
235
330
17
100
AcDbEntity
  8
Paineis
100
AcDbPolyline
 90
4
 70
1
 10
5748.12
 20
15570.3
 10
5838.12
 20
15570.3
 10
5838.12
 20
15604.3
 10
5748.12
 20
15604.3
  0
MTEXT
  5
236
330
17
100
AcDbEntity
  8
Texto Secao
100
AcDbMText
 10
5793.12
 20
15309.3
 30
0.0
 40
10.0
 71
1
  1
P29.C
  0
LWPOLYLINE
  5
237
330
17
100
AcDbEntity
  8
Paineis
100
AcDbPolyline
 90
4
 70
1
 10
5868.12
 20
15324.3
 10
5906.12
 20
15324.3
 10
5906.12
 20
15326.3
 10
5868.12
 20
15326.3
  0
LWPOLYLINE
  5
238
330
17
100
AcDbEntity
  8
Paineis
100
AcDbPolyline
 90
4
 70
1
 10
5868.12
 20
15326.3
 10
5906.12
 20
15326.3
 10
5906.12
 20
15570.3
 10
5868.12
 20
15570.3
  0
LWPOLYLINE
  5
239
330
17
100
AcDbEntity
  8
Paineis
100
AcDbPolyline
 90
4
 70
1
 10
5868.12
 20
15570.3
 10
5906.12
 20
15570.3
 10
5906.12
 20
15604.3
 10
5868.12
 20
15604.3
  0
MTEXT
  5
23A
330
17
100
AcDbEntity
  8
Texto Secao
100
AcDbMText
 10
5887.12
 20
15309.3
 30
0.0
 40
10.0
 71
1
  1
P29.D
  0
MTEXT
  5
23B
330
17
100
AcDbEntity
  8
Cota Secao (2x)
100
AcDbMText
 10
5560.12
 20
15629.3
 30
0.0
 40
8.0
 71
1
  1
B=38cm  H=90cm
  0
MTEXT
  5
23C
330
17
100
AcDbEntity
  8
NOMENCLATURA
100
AcDbMText
 10
5560.12
 20
15654.3
 30
0.0
 40
10.0
 71
1
  1
LAJE TÉCNICA - P29
  0
LWPOLYLINE
  5
23D
330
17
100
AcDbEntity
  8
Paineis
100
AcDbPolyline
 90
4
 70
1
 10
5560.12
 20
15324.3
 10
5650.12
 20
15324.3
 10
5650.12
 20
15326.3
 10
5560.12
 20
15326.3
  0
LWPOLYLINE
  5
23E
330
17
100
AcDbEntity
  8
Paineis
100
AcDbPolyline
 90
4
 70
1
 10
5560.12
 20
15326.3
 10
5650.12
 20
15326.3
 10
5650.12
 20
15570.3
 10
5560.12
 20
15570.3
  0
LWPOLYLINE
  5
23F
330
17
100
AcDbEntity
  8
Paineis
100
AcDbPolyline
 90
4
 70
1
 10
5560.12
 20
15570.3
 10
5650.12
 20
15570.3
 10
5650.12
 20
15604.3
 10
5560.12
 20
15604.3
  0
MTEXT
  5
240
330
17
100
AcDbEntity
  8
Texto Secao
100
AcDbMText
 10
5605.12
 20
15309.3
 30
0.0
 40
10.0
 71
1
  1
P30.A
  0
LWPOLYLINE
  5
241
330
17
100
AcDbEntity
  8
Paineis
100
AcDbPolyline
 90
4
 70
1
 10
5680.12
 20
15324.3
 10
5718.12
 20
15324.3
 10
5718.12
 20
15326.3
 10
5680.12
 20
15326.3
  0
LWPOLYLINE
  5
242
330
17
100
AcDbEntity
  8
Paineis
100
AcDbPolyline
 90
4
 70
1
 10
5680.12
 20
15326.3
 10
5718.12
 20
15326.3
 10
5718.12
 20
15570.3
 10
5680.12
 20
15570.3
  0
LWPOLYLINE
  5
243
330
17
100
AcDbEntity
  8
Paineis
100
AcDbPolyline
 90
4
 70
1
 10
5680.12
 20
15570.3
 10
5718.12
 20
15570.3
 10
5718.12
 20
15604.3
 10
5680.12
 20
15604.3
  0
MTEXT
  5
244
330
17
100
AcDbEntity
  8
Texto Secao
100
AcDbMText
 10
5699.12
 20
15309.3
 30
0.0
 40
10.0
 71
1
  1
P30.B
  0
LWPOLYLINE
  5
245
330
17
100
AcDbEntity
  8
Paineis
100
AcDbPolyline
 90
4
 70
1
 10
5748.12
 20
15324.3
 10
5838.12
 20
15324.3
 10
5838.12
 20
15326.3
 10
5748.12
 20
15326.3
  0
LWPOLYLINE
  5
246
330
17
100
AcDbEntity
  8
Paineis
100
AcDbPolyline
 90
4
 70
1
 10
5748.12
 20
15326.3
 10
5838.12
 20
15326.3
 10
5838.12
 20
15570.3
 10
5748.12
 20
15570.3
  0
LWPOLYLINE
  5
247
330
17
100
AcDbEntity
  8
Paineis
100
AcDbPolyline
 90
4
 70
1
 10
5748.12
 20
15570.3
 10
5838.12
 20
15570.3
 10
5838.12
 20
15604.3
 10
5748.12
 20
15604.3
  0
MTEXT
  5
248
330
17
100
AcDbEntity
  8
Texto Secao
100
AcDbMText
 10
5793.12
 20
15309.3
 30
0.0
 40
10.0
 71
1
  1
P30.C
  0
LWPOLYLINE
  5
249
330
17
100
AcDbEntity
  8
Paineis
100
AcDbPolyline
 90
4
 70
1
 10
5868.12
 20
15324.3
 10
5906.12
 20
15324.3
 10
5906.12
 20
15326.3
 10
5868.12
 20
15326.3
  0
LWPOLYLINE
  5
24A
330
17
100
AcDbEntity
  8
Paineis
100
AcDbPolyline
 90
4
 70
1
 10
5868.12
 20
15326.3
 10
5906.12
 20
15326.3
 10
5906.12
 20
15570.3
 10
5868.12
 20
15570.3
  0
LWPOLYLINE
  5
24B
330
17
100
AcDbEntity
  8
Paineis
100
AcDbPolyline
 90
4
 70
1
 10
5868.12
 20
15570.3
 10
5906.12
 20
15570.3
 10
5906.12
 20
15604.3
 10
5868.12
 20
15604.3
  0
MTEXT
  5
24C
330
17
100
AcDbEntity
  8
Texto Secao
100
AcDbMText
 10
5887.12
 20
15309.3
 30
0.0
 40
10.0
 71
1
  1
P30.D
  0
MTEXT
  5
24D
330
17
100
AcDbEntity
  8
Cota Secao (2x)
100
AcDbMText
 10
5560.12
 20
15629.3
 30
0.0
 40
8.0
 71
1
  1
B=38cm  H=90cm
  0
MTEXT
  5
24E
330
17
100
AcDbEntity
  8
NOMENCLATURA
100
AcDbMText
 10
5560.12
 20
15654.3
 30
0.0
 40
10.0
 71
1
  1
LAJE TÉCNICA - P30
  0
LWPOLYLINE
  5
24F
330
17
100
AcDbEntity
  8
Paineis
100
AcDbPolyline
 90
4
 70
1
 10
5560.12
 20
15324.3
 10
5650.12
 20
15324.3
 10
5650.12
 20
15326.3
 10
5560.12
 20
15326.3
  0
LWPOLYLINE
  5
250
330
17
100
AcDbEntity
  8
Paineis
100
AcDbPolyline
 90
4
 70
1
 10
5560.12
 20
15326.3
 10
5650.12
 20
15326.3
 10
5650.12
 20
15570.3
 10
5560.12
 20
15570.3
  0
LWPOLYLINE
  5
251
330
17
100
AcDbEntity
  8
Paineis
100
AcDbPolyline
 90
4
 70
1
 10
5560.12
 20
15570.3
 10
5650.12
 20
15570.3
 10
5650.12
 20
15604.3
 10
5560.12
 20
15604.3
  0
MTEXT
  5
252
330
17
100
AcDbEntity
  8
Texto Secao
100
AcDbMText
 10
5605.12
 20
15309.3
 30
0.0
 40
10.0
 71
1
  1
P31.A
  0
LWPOLYLINE
  5
253
330
17
100
AcDbEntity
  8
Paineis
100
AcDbPolyline
 90
4
 70
1
 10
5680.12
 20
15324.3
 10
5718.12
 20
15324.3
 10
5718.12
 20
15326.3
 10
5680.12
 20
15326.3
  0
LWPOLYLINE
  5
254
330
17
100
AcDbEntity
  8
Paineis
100
AcDbPolyline
 90
4
 70
1
 10
5680.12
 20
15326.3
 10
5718.12
 20
15326.3
 10
5718.12
 20
15570.3
 10
5680.12
 20
15570.3
  0
LWPOLYLINE
  5
255
330
17
100
AcDbEntity
  8
Paineis
100
AcDbPolyline
 90
4
 70
1
 10
5680.12
 20
15570.3
 10
5718.12
 20
15570.3
 10
5718.12
 20
15604.3
 10
5680.12
 20
15604.3
  0
MTEXT
  5
256
330
17
100
AcDbEntity
  8
Texto Secao
100
AcDbMText
 10
5699.12
 20
15309.3
 30
0.0
 40
10.0
 71
1
  1
P31.B
  0
LWPOLYLINE
  5
257
330
17
100
AcDbEntity
  8
Paineis
100
AcDbPolyline
 90
4
 70
1
 10
5748.12
 20
15324.3
 10
5838.12
 20
15324.3
 10
5838.12
 20
15326.3
 10
5748.12
 20
15326.3
  0
LWPOLYLINE
  5
258
330
17
100
AcDbEntity
  8
Paineis
100
AcDbPolyline
 90
4
 70
1
 10
5748.12
 20
15326.3
 10
5838.12
 20
15326.3
 10
5838.12
 20
15570.3
 10
5748.12
 20
15570.3
  0
LWPOLYLINE
  5
259
330
17
100
AcDbEntity
  8
Paineis
100
AcDbPolyline
 90
4
 70
1
 10
5748.12
 20
15570.3
 10
5838.12
 20
15570.3
 10
5838.12
 20
15604.3
 10
5748.12
 20
15604.3
  0
MTEXT
  5
25A
330
17
100
AcDbEntity
  8
Texto Secao
100
AcDbMText
 10
5793.12
 20
15309.3
 30
0.0
 40
10.0
 71
1
  1
P31.C
  0
LWPOLYLINE
  5
25B
330
17
100
AcDbEntity
  8
Paineis
100
AcDbPolyline
 90
4
 70
1
 10
5868.12
 20
15324.3
 10
5906.12
 20
15324.3
 10
5906.12
 20
15326.3
 10
5868.12
 20
15326.3
  0
LWPOLYLINE
  5
25C
330
17
100
AcDbEntity
  8
Paineis
100
AcDbPolyline
 90
4
 70
1
 10
5868.12
 20
15326.3
 10
5906.12
 20
15326.3
 10
5906.12
 20
15570.3
 10
5868.12
 20
15570.3
  0
LWPOLYLINE
  5
25D
330
17
100
AcDbEntity
  8
Paineis
100
AcDbPolyline
 90
4
 70
1
 10
5868.12
 20
15570.3
 10
5906.12
 20
15570.3
 10
5906.12
 20
15604.3
 10
5868.12
 20
15604.3
  0
MTEXT
  5
25E
330
17
100
AcDbEntity
  8
Texto Secao
100
AcDbMText
 10
5887.12
 20
15309.3
 30
0.0
 40
10.0
 71
1
  1
P31.D
  0
MTEXT
  5
25F
330
17
100
AcDbEntity
  8
Cota Secao (2x)
100
AcDbMText
 10
5560.12
 20
15629.3
 30
0.0
 40
8.0
 71
1
  1
B=38cm  H=90cm
  0
MTEXT
  5
260
330
17
100
AcDbEntity
  8
NOMENCLATURA
100
AcDbMText
 10
5560.12
 20
15654.3
 30
0.0
 40
10.0
 71
1
  1
LAJE TÉCNICA - P31
  0
LWPOLYLINE
  5
261
330
17
100
AcDbEntity
  8
Paineis
100
AcDbPolyline
 90
4
 70
1
 10
5543.84
 20
10598.72
 10
5639.74
 20
10598.72
 10
5639.74
 20
10600.72
 10
5543.84
 20
10600.72
  0
LWPOLYLINE
  5
262
330
17
100
AcDbEntity
  8
Paineis
100
AcDbPolyline
 90
4
 70
1
 10
5543.84
 20
10600.72
 10
5639.74
 20
10600.72
 10
5639.74
 20
10844.72
 10
5543.84
 20
10844.72
  0
LWPOLYLINE
  5
263
330
17
100
AcDbEntity
  8
Paineis
100
AcDbPolyline
 90
4
 70
1
 10
5543.84
 20
10844.72
 10
5639.74
 20
10844.72
 10
5639.74
 20
10878.72
 10
5543.84
 20
10878.72
  0
MTEXT
  5
264
330
17
100
AcDbEntity
  8
Texto Secao
100
AcDbMText
 10
5591.79
 20
10583.72
 30
0.0
 40
10.0
 71
1
  1
P32.A
  0
LWPOLYLINE
  5
265
330
17
100
AcDbEntity
  8
Paineis
100
AcDbPolyline
 90
4
 70
1
 10
5669.74
 20
10598.72
 10
5707.74
 20
10598.72
 10
5707.74
 20
10600.72
 10
5669.74
 20
10600.72
  0
LWPOLYLINE
  5
266
330
17
100
AcDbEntity
  8
Paineis
100
AcDbPolyline
 90
4
 70
1
 10
5669.74
 20
10600.72
 10
5707.74
 20
10600.72
 10
5707.74
 20
10844.72
 10
5669.74
 20
10844.72
  0
LWPOLYLINE
  5
267
330
17
100
AcDbEntity
  8
Paineis
100
AcDbPolyline
 90
4
 70
1
 10
5669.74
 20
10844.72
 10
5707.74
 20
10844.72
 10
5707.74
 20
10878.72
 10
5669.74
 20
10878.72
  0
MTEXT
  5
268
330
17
100
AcDbEntity
  8
Texto Secao
100
AcDbMText
 10
5688.74
 20
10583.72
 30
0.0
 40
10.0
 71
1
  1
P32.B
  0
LWPOLYLINE
  5
269
330
17
100
AcDbEntity
  8
Paineis
100
AcDbPolyline
 90
4
 70
1
 10
5737.74
 20
10598.72
 10
5833.64
 20
10598.72
 10
5833.64
 20
10600.72
 10
5737.74
 20
10600.72
  0
LWPOLYLINE
  5
26A
330
17
100
AcDbEntity
  8
Paineis
100
AcDbPolyline
 90
4
 70
1
 10
5737.74
 20
10600.72
 10
5833.64
 20
10600.72
 10
5833.64
 20
10844.72
 10
5737.74
 20
10844.72
  0
LWPOLYLINE
  5
26B
330
17
100
AcDbEntity
  8
Paineis
100
AcDbPolyline
 90
4
 70
1
 10
5737.74
 20
10844.72
 10
5833.64
 20
10844.72
 10
5833.64
 20
10878.72
 10
5737.74
 20
10878.72
  0
MTEXT
  5
26C
330
17
100
AcDbEntity
  8
Texto Secao
100
AcDbMText
 10
5785.6900000000005
 20
10583.72
 30
0.0
 40
10.0
 71
1
  1
P32.C
  0
LWPOLYLINE
  5
26D
330
17
100
AcDbEntity
  8
Paineis
100
AcDbPolyline
 90
4
 70
1
 10
5863.64
 20
10598.72
 10
5901.64
 20
10598.72
 10
5901.64
 20
10600.72
 10
5863.64
 20
10600.72
  0
LWPOLYLINE
  5
26E
330
17
100
AcDbEntity
  8
Paineis
100
AcDbPolyline
 90
4
 70
1
 10
5863.64
 20
10600.72
 10
5901.64
 20
10600.72
 10
5901.64
 20
10844.72
 10
5863.64
 20
10844.72
  0
LWPOLYLINE
  5
26F
330
17
100
AcDbEntity
  8
Paineis
100
AcDbPolyline
 90
4
 70
1
 10
5863.64
 20
10844.72
 10
5901.64
 20
10844.72
 10
5901.64
 20
10878.72
 10
5863.64
 20
10878.72
  0
MTEXT
  5
270
330
17
100
AcDbEntity
  8
Texto Secao
100
AcDbMText
 10
5882.64
 20
10583.72
 30
0.0
 40
10.0
 71
1
  1
P32.D
  0
MTEXT
  5
271
330
17
100
AcDbEntity
  8
Cota Secao (2x)
100
AcDbMText
 10
5543.84
 20
10903.72
 30
0.0
 40
8.0
 71
1
  1
B=38cm  H=96cm
  0
MTEXT
  5
272
330
17
100
AcDbEntity
  8
NOMENCLATURA
100
AcDbMText
 10
5543.84
 20
10928.72
 30
0.0
 40
10.0
 71
1
  1
LAJE TÉCNICA - P32
  0
ENDSEC
  0
SECTION
  2
OBJECTS
  0
DICTIONARY
  5
A
330
0
100
AcDbDictionary
281
1
  3
ACAD_COLOR
350
B
  3
ACAD_GROUP
350
C
  3
ACAD_LAYOUT
350
D
  3
ACAD_MATERIAL
350
E
  3
ACAD_MLEADERSTYLE
350
F
  3
ACAD_MLINESTYLE
350
10
  3
ACAD_PLOTSETTINGS
350
11
  3
ACAD_PLOTSTYLENAME
350
12
  3
ACAD_SCALELIST
350
14
  3
ACAD_TABLESTYLE
350
15
  3
ACAD_VISUALSTYLE
350
16
  3
EZDXF_META
350
2D
  0
DICTIONARY
  5
B
330
A
100
AcDbDictionary
281
1
  0
DICTIONARY
  5
C
330
A
100
AcDbDictionary
281
1
  0
DICTIONARY
  5
D
330
A
100
AcDbDictionary
281
1
  3
Model
350
1A
  3
Layout1
350
1E
  0
DICTIONARY
  5
E
330
A
100
AcDbDictionary
281
1
  3
ByBlock
350
1F
  3
ByLayer
350
20
  3
Global
350
21
  0
DICTIONARY
  5
F
330
A
100
AcDbDictionary
281
1
  3
Standard
350
2C
  0
DICTIONARY
  5
10
330
A
100
AcDbDictionary
281
1
  3
Standard
350
22
  0
DICTIONARY
  5
11
330
A
100
AcDbDictionary
281
1
  0
ACDBDICTIONARYWDFLT
  5
12
330
A
100
AcDbDictionary
281
1
  3
Normal
350
13
100
AcDbDictionaryWithDefault
340
13
  0
ACDBPLACEHOLDER
  5
13
330
12
  0
DICTIONARY
  5
14
330
A
100
AcDbDictionary
281
1
  0
DICTIONARY
  5
15
330
A
100
AcDbDictionary
281
1
  0
DICTIONARY
  5
16
330
A
100
AcDbDictionary
281
1
  0
LAYOUT
  5
1A
330
D
100
AcDbPlotSettings
  1

  4
A3
  6

 40
7.5
 41
20.0
 42
7.5
 43
20.0
 44
420.0
 45
297.0
 46
0.0
 47
0.0
 48
0.0
 49
0.0
140
0.0
141
0.0
142
1.0
143
1.0
 70
1024
 72
1
 73
0
 74
5
  7

 75
16
 76
0
 77
2
 78
300
147
1.0
148
0.0
149
0.0
100
AcDbLayout
  1
Model
 70
1
 71
0
 10
0.0
 20
0.0
 11
420.0
 21
297.0
 12
0.0
 22
0.0
 32
0.0
 14
1e+20
 24
1e+20
 34
1e+20
 15
-1e+20
 25
-1e+20
 35
-1e+20
146
0.0
 13
0.0
 23
0.0
 33
0.0
 16
1.0
 26
0.0
 36
0.0
 17
0.0
 27
1.0
 37
0.0
 76
1
330
17
  0
LAYOUT
  5
1E
330
D
100
AcDbPlotSettings
  1

  4
A3
  6

 40
7.5
 41
20.0
 42
7.5
 43
20.0
 44
420.0
 45
297.0
 46
0.0
 47
0.0
 48
0.0
 49
0.0
140
0.0
141
0.0
142
1.0
143
1.0
 70
0
 72
1
 73
0
 74
5
  7

 75
16
 76
0
 77
2
 78
300
147
1.0
148
0.0
149
0.0
100
AcDbLayout
  1
Layout1
 70
1
 71
1
 10
0.0
 20
0.0
 11
420.0
 21
297.0
 12
0.0
 22
0.0
 32
0.0
 14
1e+20
 24
1e+20
 34
1e+20
 15
-1e+20
 25
-1e+20
 35
-1e+20
146
0.0
 13
0.0
 23
0.0
 33
0.0
 16
1.0
 26
0.0
 36
0.0
 17
0.0
 27
1.0
 37
0.0
 76
1
330
1B
  0
MATERIAL
  5
1F
102
{ACAD_REACTORS
330
E
102
}
330
E
100
AcDbMaterial
  1
ByBlock
  2

 70
0
 40
1.0
 71
1
 41
1.0
 91
-1023410177
 42
1.0
 72
1
  3

 73
1
 74
1
 75
1
 44
0.5
 73
0
 45
1.0
 46
1.0
 77
1
  4

 78
1
 79
1
170
1
 48
1.0
171
1
  6

172
1
173
1
174
1
140
1.0
141
1.0
175
1
  7

176
1
177
1
178
1
143
1.0
179
1
  8

270
1
271
1
272
1
145
1.0
146
1.0
273
1
  9

274
1
275
1
276
1
 42
1.0
 72
1
  3

 73
1
 74
1
 75
1
 94
63
  0
MATERIAL
  5
20
102
{ACAD_REACTORS
330
E
102
}
330
E
100
AcDbMaterial
  1
ByLayer
  2

 70
0
 40
1.0
 71
1
 41
1.0
 91
-1023410177
 42
1.0
 72
1
  3

 73
1
 74
1
 75
1
 44
0.5
 73
0
 45
1.0
 46
1.0
 77
1
  4

 78
1
 79
1
170
1
 48
1.0
171
1
  6

172
1
173
1
174
1
140
1.0
141
1.0
175
1
  7

176
1
177
1
178
1
143
1.0
179
1
  8

270
1
271
1
272
1
145
1.0
146
1.0
273
1
  9

274
1
275
1
276
1
 42
1.0
 72
1
  3

 73
1
 74
1
 75
1
 94
63
  0
MATERIAL
  5
21
102
{ACAD_REACTORS
330
E
102
}
330
E
100
AcDbMaterial
  1
Global
  2

 70
0
 40
1.0
 71
1
 41
1.0
 91
-1023410177
 42
1.0
 72
1
  3

 73
1
 74
1
 75
1
 44
0.5
 73
0
 45
1.0
 46
1.0
 77
1
  4

 78
1
 79
1
170
1
 48
1.0
171
1
  6

172
1
173
1
174
1
140
1.0
141
1.0
175
1
  7

176
1
177
1
178
1
143
1.0
179
1
  8

270
1
271
1
272
1
145
1.0
146
1.0
273
1
  9

274
1
275
1
276
1
 42
1.0
 72
1
  3

 73
1
 74
1
 75
1
 94
63
  0
MLINESTYLE
  5
22
102
{ACAD_REACTORS
330
10
102
}
330
10
100
AcDbMlineStyle
  2
Standard
 70
0
  3

 62
256
 51
90.0
 52
90.0
 71
2
 49
0.5
 62
256
  6
BYLAYER
 49
-0.5
 62
256
  6
BYLAYER
  0
MLEADERSTYLE
  5
2C
102
{ACAD_REACTORS
330
F
102
}
330
F
100
AcDbMLeaderStyle
179
2
170
2
171
1
172
0
 90
2
 40
0.0
 41
0.0
173
1
 91
-1056964608
 92
-2
290
1
 42
2.0
291
1
 43
8.0
  3
Standard
 44
4.0
300

342
29
174
1
175
1
176
0
178
1
 93
-1056964608
 45
4.0
292
0
297
0
 46
4.0
 94
-1056964608
 47
1.0
 49
1.0
140
1.0
294
1
141
0.0
177
0
142
1.0
295
0
296
0
143
3.75
271
0
272
9
273
9
  0
DICTIONARY
  5
2D
330
A
100
AcDbDictionary
280
1
281
1
  3
CREATED_BY_EZDXF
350
2E
  3
WRITTEN_BY_EZDXF
350
275
  0
DICTIONARYVAR
  5
2E
330
2D
100
DictionaryVariables
280
0
  1
1.4.3 @ 2026-03-09T10:20:30.730395+00:00
  0
DICTIONARYVAR
  5
275
330
2D
100
DictionaryVariables
280
0
  1
1.4.3 @ 2026-03-09T10:20:31.024272+00:00
  0
ENDSEC
  0
EOF
