  0
SECTION
  2
HEADER
  9
$ACADVER
  1
AC1024
  9
$ACADMAINTVER
 70
6
  9
$DWGCODEPAGE
  3
ANSI_1252
  9
$LASTSAVEDBY
  1
ezdxf
  9
$INSBASE
 10
0.0
 20
0.0
 30
0.0
  9
$EXTMIN
 10
1e+20
 20
1e+20
 30
1e+20
  9
$EXTMAX
 10
-1e+20
 20
-1e+20
 30
-1e+20
  9
$LIMMIN
 10
0.0
 20
0.0
  9
$LIMMAX
 10
420.0
 20
297.0
  9
$ORTHOMODE
 70
0
  9
$REGENMODE
 70
1
  9
$FILLMODE
 70
1
  9
$QTEXTMODE
 70
0
  9
$MIRRTEXT
 70
1
  9
$LTSCALE
 40
1.0
  9
$ATTMODE
 70
1
  9
$TEXTSIZE
 40
2.5
  9
$TRACEWID
 40
1.0
  9
$TEXTSTYLE
  7
Standard
  9
$CLAYER
  8
0
  9
$CELTYPE
  6
ByLayer
  9
$CECOLOR
 62
256
  9
$CELTSCALE
 40
1.0
  9
$DISPSILH
 70
0
  9
$DIMSCALE
 40
1.0
  9
$DIMASZ
 40
2.5
  9
$DIMEXO
 40
0.625
  9
$DIMDLI
 40
3.75
  9
$DIMRND
 40
0.0
  9
$DIMDLE
 40
0.0
  9
$DIMEXE
 40
1.25
  9
$DIMTP
 40
0.0
  9
$DIMTM
 40
0.0
  9
$DIMTXT
 40
2.5
  9
$DIMCEN
 40
2.5
  9
$DIMTSZ
 40
0.0
  9
$DIMTOL
 70
0
  9
$DIMLIM
 70
0
  9
$DIMTIH
 70
0
  9
$DIMTOH
 70
0
  9
$DIMSE1
 70
0
  9
$DIMSE2
 70
0
  9
$DIMTAD
 70
1
  9
$DIMZIN
 70
8
  9
$DIMBLK
  1

  9
$DIMASO
 70
1
  9
$DIMSHO
 70
1
  9
$DIMPOST
  1

  9
$DIMAPOST
  1

  9
$DIMALT
 70
0
  9
$DIMALTD
 70
3
  9
$DIMALTF
 40
0.03937007874
  9
$DIMLFAC
 40
1.0
  9
$DIMTOFL
 70
1
  9
$DIMTVP
 40
0.0
  9
$DIMTIX
 70
0
  9
$DIMSOXD
 70
0
  9
$DIMSAH
 70
0
  9
$DIMBLK1
  1

  9
$DIMBLK2
  1

  9
$DIMSTYLE
  2
ISO-25
  9
$DIMCLRD
 70
0
  9
$DIMCLRE
 70
0
  9
$DIMCLRT
 70
0
  9
$DIMTFAC
 40
1.0
  9
$DIMGAP
 40
0.625
  9
$DIMJUST
 70
0
  9
$DIMSD1
 70
0
  9
$DIMSD2
 70
0
  9
$DIMTOLJ
 70
0
  9
$DIMTZIN
 70
8
  9
$DIMALTZ
 70
0
  9
$DIMALTTZ
 70
0
  9
$DIMUPT
 70
0
  9
$DIMDEC
 70
2
  9
$DIMTDEC
 70
2
  9
$DIMALTU
 70
2
  9
$DIMALTTD
 70
3
  9
$DIMTXSTY
  7
Standard
  9
$DIMAUNIT
 70
0
  9
$DIMADEC
 70
0
  9
$DIMALTRND
 40
0.0
  9
$DIMAZIN
 70
0
  9
$DIMDSEP
 70
44
  9
$DIMATFIT
 70
3
  9
$DIMFRAC
 70
0
  9
$DIMLDRBLK
  1

  9
$DIMLUNIT
 70
2
  9
$DIMLWD
 70
-2
  9
$DIMLWE
 70
-2
  9
$DIMTMOVE
 70
0
  9
$DIMFXL
 40
1.0
  9
$DIMFXLON
 70
0
  9
$DIMJOGANG
 40
0.785398163397
  9
$DIMTFILL
 70
0
  9
$DIMTFILLCLR
 70
0
  9
$DIMARCSYM
 70
0
  9
$DIMLTYPE
  6

  9
$DIMLTEX1
  6

  9
$DIMLTEX2
  6

  9
$DIMTXTDIRECTION
 70
0
  9
$LUNITS
 70
2
  9
$LUPREC
 70
4
  9
$SKETCHINC
 40
1.0
  9
$FILLETRAD
 40
10.0
  9
$AUNITS
 70
0
  9
$AUPREC
 70
2
  9
$MENU
  1
.
  9
$ELEVATION
 40
0.0
  9
$PELEVATION
 40
0.0
  9
$THICKNESS
 40
0.0
  9
$LIMCHECK
 70
0
  9
$CHAMFERA
 40
0.0
  9
$CHAMFERB
 40
0.0
  9
$CHAMFERC
 40
0.0
  9
$CHAMFERD
 40
0.0
  9
$SKPOLY
 70
0
  9
$TDCREATE
 40
2461202.7046064814
  9
$TDUCREATE
 40
2458532.153996898
  9
$TDUPDATE
 40
2461202.7046064814
  9
$TDUUPDATE
 40
2458532.1544311
  9
$TDINDWG
 40
0.0
  9
$TDUSRTIMER
 40
0.0
  9
$USRTIMER
 70
1
  9
$ANGBASE
 50
0.0
  9
$ANGDIR
 70
0
  9
$PDMODE
 70
0
  9
$PDSIZE
 40
0.0
  9
$PLINEWID
 40
0.0
  9
$SPLFRAME
 70
0
  9
$SPLINETYPE
 70
6
  9
$SPLINESEGS
 70
8
  9
$HANDSEED
  5
152
  9
$SURFTAB1
 70
6
  9
$SURFTAB2
 70
6
  9
$SURFTYPE
 70
6
  9
$SURFU
 70
6
  9
$SURFV
 70
6
  9
$UCSBASE
  2

  9
$UCSNAME
  2

  9
$UCSORG
 10
0.0
 20
0.0
 30
0.0
  9
$UCSXDIR
 10
1.0
 20
0.0
 30
0.0
  9
$UCSYDIR
 10
0.0
 20
1.0
 30
0.0
  9
$UCSORTHOREF
  2

  9
$UCSORTHOVIEW
 70
0
  9
$UCSORGTOP
 10
0.0
 20
0.0
 30
0.0
  9
$UCSORGBOTTOM
 10
0.0
 20
0.0
 30
0.0
  9
$UCSORGLEFT
 10
0.0
 20
0.0
 30
0.0
  9
$UCSORGRIGHT
 10
0.0
 20
0.0
 30
0.0
  9
$UCSORGFRONT
 10
0.0
 20
0.0
 30
0.0
  9
$UCSORGBACK
 10
0.0
 20
0.0
 30
0.0
  9
$PUCSBASE
  2

  9
$PUCSNAME
  2

  9
$PUCSORG
 10
0.0
 20
0.0
 30
0.0
  9
$PUCSXDIR
 10
1.0
 20
0.0
 30
0.0
  9
$PUCSYDIR
 10
0.0
 20
1.0
 30
0.0
  9
$PUCSORTHOREF
  2

  9
$PUCSORTHOVIEW
 70
0
  9
$PUCSORGTOP
 10
0.0
 20
0.0
 30
0.0
  9
$PUCSORGBOTTOM
 10
0.0
 20
0.0
 30
0.0
  9
$PUCSORGLEFT
 10
0.0
 20
0.0
 30
0.0
  9
$PUCSORGRIGHT
 10
0.0
 20
0.0
 30
0.0
  9
$PUCSORGFRONT
 10
0.0
 20
0.0
 30
0.0
  9
$PUCSORGBACK
 10
0.0
 20
0.0
 30
0.0
  9
$USERI1
 70
0
  9
$USERI2
 70
0
  9
$USERI3
 70
0
  9
$USERI4
 70
0
  9
$USERI5
 70
0
  9
$USERR1
 40
0.0
  9
$USERR2
 40
0.0
  9
$USERR3
 40
0.0
  9
$USERR4
 40
0.0
  9
$USERR5
 40
0.0
  9
$WORLDVIEW
 70
1
  9
$SHADEDGE
 70
3
  9
$SHADEDIF
 70
70
  9
$TILEMODE
 70
1
  9
$MAXACTVP
 70
64
  9
$PINSBASE
 10
0.0
 20
0.0
 30
0.0
  9
$PLIMCHECK
 70
0
  9
$PEXTMIN
 10
1e+20
 20
1e+20
 30
1e+20
  9
$PEXTMAX
 10
-1e+20
 20
-1e+20
 30
-1e+20
  9
$PLIMMIN
 10
0.0
 20
0.0
  9
$PLIMMAX
 10
420.0
 20
297.0
  9
$UNITMODE
 70
0
  9
$VISRETAIN
 70
1
  9
$PLINEGEN
 70
0
  9
$PSLTSCALE
 70
1
  9
$TREEDEPTH
 70
3020
  9
$CMLSTYLE
  2
Standard
  9
$CMLJUST
 70
0
  9
$CMLSCALE
 40
20.0
  9
$PROXYGRAPHICS
 70
1
  9
$MEASUREMENT
 70
1
  9
$CELWEIGHT
370
-1
  9
$ENDCAPS
280
0
  9
$JOINSTYLE
280
0
  9
$LWDISPLAY
290
0
  9
$INSUNITS
 70
6
  9
$HYPERLINKBASE
  1

  9
$STYLESHEET
  1

  9
$XEDIT
290
1
  9
$CEPSNTYPE
380
0
  9
$PSTYLEMODE
290
1
  9
$FINGERPRINTGUID
  2
{FC1DD30F-A046-45B7-973B-3606347E9BA0}
  9
$VERSIONGUID
  2
{2F5F6929-32EF-472B-9CC5-744280E8AC75}
  9
$EXTNAMES
290
1
  9
$PSVPSCALE
 40
0.0
  9
$OLESTARTUP
290
0
  9
$SORTENTS
280
127
  9
$INDEXCTL
280
0
  9
$HIDETEXT
280
1
  9
$XCLIPFRAME
280
1
  9
$HALOGAP
280
0
  9
$OBSCOLOR
 70
257
  9
$OBSLTYPE
280
0
  9
$INTERSECTIONDISPLAY
280
0
  9
$INTERSECTIONCOLOR
 70
257
  9
$DIMASSOC
280
2
  9
$PROJECTNAME
  1

  9
$CAMERADISPLAY
290
0
  9
$LENSLENGTH
 40
50.0
  9
$CAMERAHEIGHT
 40
0.0
  9
$STEPSPERSEC
 40
24.0
  9
$STEPSIZE
 40
100.0
  9
$3DDWFPREC
 40
2.0
  9
$PSOLWIDTH
 40
0.005
  9
$PSOLHEIGHT
 40
0.08
  9
$LOFTANG1
 40
1.570796326795
  9
$LOFTANG2
 40
1.570796326795
  9
$LOFTMAG1
 40
0.0
  9
$LOFTMAG2
 40
0.0
  9
$LOFTPARAM
 70
7
  9
$LOFTNORMALS
280
1
  9
$LATITUDE
 40
37.795
  9
$LONGITUDE
 40
-122.394
  9
$NORTHDIRECTION
 40
0.0
  9
$TIMEZONE
 70
-8000
  9
$LIGHTGLYPHDISPLAY
280
1
  9
$TILEMODELIGHTSYNCH
280
1
  9
$CMATERIAL
347
20
  9
$SOLIDHIST
280
0
  9
$SHOWHIST
280
1
  9
$DWFFRAME
280
2
  9
$DGNFRAME
280
2
  9
$REALWORLDSCALE
290
1
  9
$INTERFERECOLOR
 62
256
  9
$CSHADOW
280
0
  9
$SHADOWPLANELOCATION
 40
0.0
  0
ENDSEC
  0
SECTION
  2
CLASSES
  0
CLASS
  1
ACDBDICTIONARYWDFLT
  2
AcDbDictionaryWithDefault
  3
ObjectDBX Classes
 90
0
 91
0
280
0
281
0
  0
CLASS
  1
SUN
  2
AcDbSun
  3
SCENEOE
 90
1153
 91
0
280
0
281
0
  0
CLASS
  1
VISUALSTYLE
  2
AcDbVisualStyle
  3
ObjectDBX Classes
 90
4095
 91
0
280
0
281
0
  0
CLASS
  1
MATERIAL
  2
AcDbMaterial
  3
ObjectDBX Classes
 90
1153
 91
0
280
0
281
0
  0
CLASS
  1
SCALE
  2
AcDbScale
  3
ObjectDBX Classes
 90
1153
 91
0
280
0
281
0
  0
CLASS
  1
TABLESTYLE
  2
AcDbTableStyle
  3
ObjectDBX Classes
 90
4095
 91
0
280
0
281
0
  0
CLASS
  1
MLEADERSTYLE
  2
AcDbMLeaderStyle
  3
ACDB_MLEADERSTYLE_CLASS
 90
4095
 91
0
280
0
281
0
  0
CLASS
  1
DICTIONARYVAR
  2
AcDbDictionaryVar
  3
ObjectDBX Classes
 90
0
 91
0
280
0
281
0
  0
CLASS
  1
CELLSTYLEMAP
  2
AcDbCellStyleMap
  3
ObjectDBX Classes
 90
1152
 91
0
280
0
281
0
  0
CLASS
  1
MENTALRAYRENDERSETTINGS
  2
AcDbMentalRayRenderSettings
  3
SCENEOE
 90
1024
 91
0
280
0
281
0
  0
CLASS
  1
ACDBDETAILVIEWSTYLE
  2
AcDbDetailViewStyle
  3
ObjectDBX Classes
 90
1025
 91
0
280
0
281
0
  0
CLASS
  1
ACDBSECTIONVIEWSTYLE
  2
AcDbSectionViewStyle
  3
ObjectDBX Classes
 90
1025
 91
0
280
0
281
0
  0
CLASS
  1
RASTERVARIABLES
  2
AcDbRasterVariables
  3
ISM
 90
0
 91
0
280
0
281
0
  0
CLASS
  1
LAYOUT
  2
AcDbLayout
  3
ObjectDBX Classes
 90
0
 91
0
280
0
281
0
  0
CLASS
  1
ACDBPLACEHOLDER
  2
AcDbPlaceHolder
  3
ObjectDBX Classes
 90
0
 91
0
280
0
281
0
  0
ENDSEC
  0
SECTION
  2
TABLES
  0
TABLE
  2
VPORT
  5
8
330
0
100
AcDbSymbolTable
 70
1
  0
VPORT
  5
23
330
8
100
AcDbSymbolTableRecord
100
AcDbViewportTableRecord
  2
*Active
 70
0
 10
0.0
 20
0.0
 11
1.0
 21
1.0
 12
0.0
 22
0.0
 13
0.0
 23
0.0
 14
0.5
 24
0.5
 15
0.5
 25
0.5
 16
0.0
 26
0.0
 36
1.0
 17
0.0
 27
0.0
 37
0.0
 40
1000.0
 41
1.34
 42
50.0
 43
0.0
 44
0.0
 50
0.0
 51
0.0
 71
0
 72
1000
 73
1
 74
3
 75
0
 76
0
 77
0
 78
0
281
0
 65
0
146
0.0
  0
ENDTAB
  0
TABLE
  2
LTYPE
  5
2
330
0
100
AcDbSymbolTable
 70
3
  0
LTYPE
  5
24
330
2
100
AcDbSymbolTableRecord
100
AcDbLinetypeTableRecord
  2
ByBlock
 70
0
  3

 72
65
 73
0
 40
0.0
  0
LTYPE
  5
25
330
2
100
AcDbSymbolTableRecord
100
AcDbLinetypeTableRecord
  2
ByLayer
 70
0
  3

 72
65
 73
0
 40
0.0
  0
LTYPE
  5
26
330
2
100
AcDbSymbolTableRecord
100
AcDbLinetypeTableRecord
  2
Continuous
 70
0
  3

 72
65
 73
0
 40
0.0
  0
ENDTAB
  0
TABLE
  2
LAYER
  5
1
330
0
100
AcDbSymbolTable
 70
2
  0
LAYER
  5
27
330
1
100
AcDbSymbolTableRecord
100
AcDbLayerTableRecord
  2
0
 70
0
 62
7
  6
Continuous
370
-3
390
13
347
21
  0
LAYER
  5
28
330
1
100
AcDbSymbolTableRecord
100
AcDbLayerTableRecord
  2
Defpoints
 70
0
 62
7
  6
Continuous
290
0
370
-3
390
13
347
21
  0
ENDTAB
  0
TABLE
  2
STYLE
  5
5
330
0
100
AcDbSymbolTable
 70
1
  0
STYLE
  5
29
330
5
100
AcDbSymbolTableRecord
100
AcDbTextStyleTableRecord
  2
Standard
 70
0
 40
0.0
 41
1.0
 50
0.0
 71
0
 42
2.5
  3
txt
  4

  0
ENDTAB
  0
TABLE
  2
VIEW
  5
7
330
0
100
AcDbSymbolTable
 70
0
  0
ENDTAB
  0
TABLE
  2
UCS
  5
6
330
0
100
AcDbSymbolTable
 70
0
  0
ENDTAB
  0
TABLE
  2
APPID
  5
3
330
0
100
AcDbSymbolTable
 70
3
  0
APPID
  5
2A
330
3
100
AcDbSymbolTableRecord
100
AcDbRegAppTableRecord
  2
ACAD
 70
0
  0
APPID
  5
14F
330
3
100
AcDbSymbolTableRecord
100
AcDbRegAppTableRecord
  2
HATCHBACKGROUNDCOLOR
 70
0
  0
APPID
  5
150
330
3
100
AcDbSymbolTableRecord
100
AcDbRegAppTableRecord
  2
EZDXF
 70
0
  0
ENDTAB
  0
TABLE
  2
DIMSTYLE
  5
4
330
0
100
AcDbSymbolTable
 70
1
100
AcDbDimStyleTable
  0
DIMSTYLE
105
2B
330
4
100
AcDbSymbolTableRecord
100
AcDbDimStyleTableRecord
  2
Standard
 70
0
 40
1.0
 41
2.5
 42
0.625
 43
3.75
 44
1.25
 45
0.0
 46
0.0
 47
0.0
 48
0.0
 49
2.5
140
2.5
141
2.5
142
0.0
143
0.03937007874
144
1.0
145
0.0
146
1.0
147
0.625
148
0.0
 69
0
 70
0
 71
0
 72
0
 73
0
 74
0
 75
0
 76
0
 77
1
 78
8
 79
3
170
0
171
3
172
1
173
0
174
0
175
0
176
0
177
0
178
0
179
2
271
2
272
2
273
2
274
3
275
0
276
0
277
2
278
44
279
0
280
0
281
0
282
0
283
0
284
8
285
0
286
0
288
0
289
3
290
0
371
-2
372
-2
  0
ENDTAB
  0
TABLE
  2
BLOCK_RECORD
  5
9
330
0
100
AcDbSymbolTable
 70
2
  0
BLOCK_RECORD
  5
17
330
9
100
AcDbSymbolTableRecord
100
AcDbBlockTableRecord
  2
*Model_Space
340
1A
 70
0
280
1
281
0
  0
BLOCK_RECORD
  5
1B
330
9
100
AcDbSymbolTableRecord
100
AcDbBlockTableRecord
  2
*Paper_Space
340
1E
 70
0
280
1
281
0
  0
ENDTAB
  0
ENDSEC
  0
SECTION
  2
BLOCKS
  0
BLOCK
  5
18
330
17
100
AcDbEntity
  8
0
100
AcDbBlockBegin
  2
*Model_Space
 70
0
 10
0.0
 20
0.0
 30
0.0
  3
*Model_Space
  1

  0
ENDBLK
  5
19
330
17
100
AcDbEntity
  8
0
100
AcDbBlockEnd
  0
BLOCK
  5
1C
330
1B
100
AcDbEntity
  8
0
100
AcDbBlockBegin
  2
*Paper_Space
 70
0
 10
0.0
 20
0.0
 30
0.0
  3
*Paper_Space
  1

  0
ENDBLK
  5
1D
330
1B
100
AcDbEntity
  8
0
100
AcDbBlockEnd
  0
ENDSEC
  0
SECTION
  2
ENTITIES
  0
POLYLINE
  5
2F
330
17
100
AcDbEntity
  8
Texto Seção
 62
7
100
AcDb2dPolyline
 66
1
 10
0.0
 20
0.0
 30
0.0
 70
0
  0
VERTEX
  5
31
330
17
100
AcDbEntity
  8
Texto Seção
100
AcDbVertex
100
AcDb2dVertex
 10
7935.583757447187
 20
2998.991723802101
 30
0.0
 70
0
  0
VERTEX
  5
32
330
17
100
AcDbEntity
  8
Texto Seção
100
AcDbVertex
100
AcDb2dVertex
 10
8077.033075599443
 20
2998.991723802101
 30
0.0
 70
0
  0
VERTEX
  5
33
330
17
100
AcDbEntity
  8
Texto Seção
100
AcDbVertex
100
AcDb2dVertex
 10
8077.033075599443
 20
2975.790846734352
 30
0.0
 70
0
  0
VERTEX
  5
34
330
17
100
AcDbEntity
  8
Texto Seção
100
AcDbVertex
100
AcDb2dVertex
 10
7935.583757447187
 20
2975.790846734352
 30
0.0
 70
0
  0
VERTEX
  5
35
330
17
100
AcDbEntity
  8
Texto Seção
100
AcDbVertex
100
AcDb2dVertex
 10
7935.583757447187
 20
2998.991723802101
 30
0.0
 70
0
  0
SEQEND
  5
30
330
2F
100
AcDbEntity
  8
Texto Seção
  0
POLYLINE
  5
36
330
17
100
AcDbEntity
  8
COTA
100
AcDb2dPolyline
 66
1
 10
0.0
 20
0.0
 30
0.0
 70
0
  0
VERTEX
  5
38
330
17
100
AcDbEntity
  8
COTA
100
AcDbVertex
100
AcDb2dVertex
 10
7717.173618962622
 20
3448.293879050668
 30
0.0
 70
0
  0
VERTEX
  5
39
330
17
100
AcDbEntity
  8
COTA
100
AcDbVertex
100
AcDb2dVertex
 10
7722.173618962622
 20
3453.293879050668
 30
0.0
 70
0
  0
SEQEND
  5
37
330
36
100
AcDbEntity
  8
COTA
  0
POLYLINE
  5
3A
330
17
100
AcDbEntity
  8
COTA
100
AcDb2dPolyline
 66
1
 10
0.0
 20
0.0
 30
0.0
 70
0
  0
VERTEX
  5
3C
330
17
100
AcDbEntity
  8
COTA
100
AcDbVertex
100
AcDb2dVertex
 10
7684.173618962623
 20
3453.293879050668
 30
0.0
 70
0
  0
VERTEX
  5
3D
330
17
100
AcDbEntity
  8
COTA
100
AcDbVertex
100
AcDb2dVertex
 10
7679.173618962623
 20
3448.293879050668
 30
0.0
 70
0
  0
SEQEND
  5
3B
330
3A
100
AcDbEntity
  8
COTA
  0
POLYLINE
  5
3E
330
17
100
AcDbEntity
  8
COTA
100
AcDb2dPolyline
 66
1
 10
0.0
 20
0.0
 30
0.0
 70
0
  0
VERTEX
  5
40
330
17
100
AcDbEntity
  8
COTA
100
AcDbVertex
100
AcDb2dVertex
 10
7590.516324359256
 20
3498.02069285286
 30
0.0
 70
0
  0
VERTEX
  5
41
330
17
100
AcDbEntity
  8
COTA
100
AcDbVertex
100
AcDb2dVertex
 10
7595.516324359256
 20
3493.02069285286
 30
0.0
 70
0
  0
SEQEND
  5
3F
330
3E
100
AcDbEntity
  8
COTA
  0
POLYLINE
  5
42
330
17
100
AcDbEntity
  8
COTA
100
AcDb2dPolyline
 66
1
 10
0.0
 20
0.0
 30
0.0
 70
0
  0
VERTEX
  5
44
330
17
100
AcDbEntity
  8
COTA
100
AcDbVertex
100
AcDb2dVertex
 10
7595.516324359256
 20
3571.020692852831
 30
0.0
 70
0
  0
VERTEX
  5
45
330
17
100
AcDbEntity
  8
COTA
100
AcDbVertex
100
AcDb2dVertex
 10
7590.516324359256
 20
3576.020692852831
 30
0.0
 70
0
  0
SEQEND
  5
43
330
42
100
AcDbEntity
  8
COTA
  0
POLYLINE
  5
46
330
17
100
AcDbEntity
  8
COTA
100
AcDb2dPolyline
 66
1
 10
0.0
 20
0.0
 30
0.0
 70
0
  0
VERTEX
  5
48
330
17
100
AcDbEntity
  8
COTA
100
AcDbVertex
100
AcDb2dVertex
 10
7590.516324358925
 20
3580.020692852831
 30
0.0
 70
0
  0
VERTEX
  5
49
330
17
100
AcDbEntity
  8
COTA
100
AcDbVertex
100
AcDb2dVertex
 10
7595.516324358925
 20
3575.020692852831
 30
0.0
 70
0
  0
SEQEND
  5
47
330
46
100
AcDbEntity
  8
COTA
  0
POLYLINE
  5
4A
330
17
100
AcDbEntity
  8
COTA
100
AcDb2dPolyline
 66
1
 10
0.0
 20
0.0
 30
0.0
 70
0
  0
VERTEX
  5
4C
330
17
100
AcDbEntity
  8
COTA
100
AcDbVertex
100
AcDb2dVertex
 10
7595.516324358925
 20
3601.02069285286
 30
0.0
 70
0
  0
VERTEX
  5
4D
330
17
100
AcDbEntity
  8
COTA
100
AcDbVertex
100
AcDb2dVertex
 10
7590.516324358925
 20
3606.02069285286
 30
0.0
 70
0
  0
SEQEND
  5
4B
330
4A
100
AcDbEntity
  8
COTA
  0
POLYLINE
  5
4E
330
17
100
AcDbEntity
  8
COTA
100
AcDb2dPolyline
 66
1
 10
0.0
 20
0.0
 30
0.0
 70
0
  0
VERTEX
  5
50
330
17
100
AcDbEntity
  8
COTA
100
AcDbVertex
100
AcDb2dVertex
 10
7799.045351720967
 20
3601.02069285286
 30
0.0
 70
0
  0
VERTEX
  5
51
330
17
100
AcDbEntity
  8
COTA
100
AcDbVertex
100
AcDb2dVertex
 10
7794.045351720967
 20
3606.02069285286
 30
0.0
 70
0
  0
SEQEND
  5
4F
330
4E
100
AcDbEntity
  8
COTA
  0
POLYLINE
  5
52
330
17
100
AcDbEntity
  8
COTA
100
AcDb2dPolyline
 66
1
 10
0.0
 20
0.0
 30
0.0
 70
0
  0
VERTEX
  5
54
330
17
100
AcDbEntity
  8
COTA
100
AcDbVertex
100
AcDb2dVertex
 10
7794.045351720967
 20
3498.02069285286
 30
0.0
 70
0
  0
VERTEX
  5
55
330
17
100
AcDbEntity
  8
COTA
100
AcDbVertex
100
AcDb2dVertex
 10
7799.045351720967
 20
3493.02069285286
 30
0.0
 70
0
  0
SEQEND
  5
53
330
52
100
AcDbEntity
  8
COTA
  0
POLYLINE
  5
56
330
17
100
AcDbEntity
  8
COTA
100
AcDb2dPolyline
 66
1
 10
0.0
 20
0.0
 30
0.0
 70
0
  0
VERTEX
  5
58
330
17
100
AcDbEntity
  8
COTA
100
AcDbVertex
100
AcDb2dVertex
 10
7576.196895873471
 20
3601.02069285286
 30
0.0
 70
0
  0
VERTEX
  5
59
330
17
100
AcDbEntity
  8
COTA
100
AcDbVertex
100
AcDb2dVertex
 10
7571.196895873471
 20
3606.02069285286
 30
0.0
 70
0
  0
SEQEND
  5
57
330
56
100
AcDbEntity
  8
COTA
  0
POLYLINE
  5
5A
330
17
100
AcDbEntity
  8
COTA
100
AcDb2dPolyline
 66
1
 10
0.0
 20
0.0
 30
0.0
 70
0
  0
VERTEX
  5
5C
330
17
100
AcDbEntity
  8
COTA
100
AcDbVertex
100
AcDb2dVertex
 10
7571.196895873471
 20
3498.02069285286
 30
0.0
 70
0
  0
VERTEX
  5
5D
330
17
100
AcDbEntity
  8
COTA
100
AcDbVertex
100
AcDb2dVertex
 10
7576.196895873471
 20
3493.02069285286
 30
0.0
 70
0
  0
SEQEND
  5
5B
330
5A
100
AcDbEntity
  8
COTA
  0
POLYLINE
  5
5E
330
17
100
AcDbEntity
  8
SARR_3.5x7
 62
81
100
AcDb2dPolyline
 66
1
 10
0.0
 20
0.0
 30
0.0
 70
0
  0
VERTEX
  5
60
330
17
100
AcDbEntity
  8
SARR_3.5x7
100
AcDbVertex
100
AcDb2dVertex
 10
7659.273618962548
 20
3495.520692852858
 30
0.0
 70
0
  0
VERTEX
  5
61
330
17
100
AcDbEntity
  8
SARR_3.5x7
100
AcDbVertex
100
AcDb2dVertex
 10
7742.073618962752
 20
3495.520692852856
 30
0.0
 70
0
  0
VERTEX
  5
62
330
17
100
AcDbEntity
  8
SARR_3.5x7
100
AcDbVertex
100
AcDb2dVertex
 10
7742.073618962752
 20
3465.462631248858
 30
0.0
 70
0
  0
VERTEX
  5
63
330
17
100
AcDbEntity
  8
SARR_3.5x7
100
AcDbVertex
100
AcDb2dVertex
 10
7659.273618962548
 20
3465.462631248859
 30
0.0
 70
0
  0
VERTEX
  5
64
330
17
100
AcDbEntity
  8
SARR_3.5x7
100
AcDbVertex
100
AcDb2dVertex
 10
7659.273618962548
 20
3495.520692852858
 30
0.0
 70
0
  0
SEQEND
  5
5F
330
5E
100
AcDbEntity
  8
SARR_3.5x7
  0
POLYLINE
  5
65
330
17
100
AcDbEntity
  8
SARR_3.5x7
 62
81
100
AcDb2dPolyline
 66
1
 10
0.0
 20
0.0
 30
0.0
 70
0
  0
VERTEX
  5
67
330
17
100
AcDbEntity
  8
SARR_3.5x7
100
AcDbVertex
100
AcDb2dVertex
 10
7742.07361896285
 20
3597.520692852858
 30
0.0
 70
0
  0
VERTEX
  5
68
330
17
100
AcDbEntity
  8
SARR_3.5x7
100
AcDbVertex
100
AcDb2dVertex
 10
7728.07361896285
 20
3597.520692852858
 30
0.0
 70
0
  0
VERTEX
  5
69
330
17
100
AcDbEntity
  8
SARR_3.5x7
100
AcDbVertex
100
AcDb2dVertex
 10
7728.073618962705
 20
3419.042479447052
 30
0.0
 70
0
  0
VERTEX
  5
6A
330
17
100
AcDbEntity
  8
SARR_3.5x7
100
AcDbVertex
100
AcDb2dVertex
 10
7742.073618962705
 20
3419.042479447052
 30
0.0
 70
0
  0
VERTEX
  5
6B
330
17
100
AcDbEntity
  8
SARR_3.5x7
100
AcDbVertex
100
AcDb2dVertex
 10
7742.07361896285
 20
3597.520692852858
 30
0.0
 70
0
  0
SEQEND
  5
66
330
65
100
AcDbEntity
  8
SARR_3.5x7
  0
POLYLINE
  5
6C
330
17
100
AcDbEntity
  8
SARR_3.5x7
 62
81
100
AcDb2dPolyline
 66
1
 10
0.0
 20
0.0
 30
0.0
 70
0
  0
VERTEX
  5
6E
330
17
100
AcDbEntity
  8
SARR_3.5x7
100
AcDbVertex
100
AcDb2dVertex
 10
7659.273618962562
 20
3567.520692852833
 30
0.0
 70
0
  0
VERTEX
  5
6F
330
17
100
AcDbEntity
  8
SARR_3.5x7
100
AcDbVertex
100
AcDb2dVertex
 10
7673.273618962562
 20
3567.520692852833
 30
0.0
 70
0
  0
VERTEX
  5
70
330
17
100
AcDbEntity
  8
SARR_3.5x7
100
AcDbVertex
100
AcDb2dVertex
 10
7673.27361896269
 20
3419.042479447052
 30
0.0
 70
0
  0
VERTEX
  5
71
330
17
100
AcDbEntity
  8
SARR_3.5x7
100
AcDbVertex
100
AcDb2dVertex
 10
7659.27361896269
 20
3419.042479447052
 30
0.0
 70
0
  0
VERTEX
  5
72
330
17
100
AcDbEntity
  8
SARR_3.5x7
100
AcDbVertex
100
AcDb2dVertex
 10
7659.273618962562
 20
3567.520692852833
 30
0.0
 70
0
  0
SEQEND
  5
6D
330
6C
100
AcDbEntity
  8
SARR_3.5x7
  0
POLYLINE
  5
73
330
17
100
AcDbEntity
  8
Madeira
 62
126
100
AcDb2dPolyline
 66
1
 10
0.0
 20
0.0
 30
0.0
 70
0
  0
VERTEX
  5
75
330
17
100
AcDbEntity
  8
Madeira
100
AcDbVertex
100
AcDb2dVertex
 10
7673.273618962628
 20
3495.520692852858
 30
0.0
 70
0
  0
VERTEX
  5
76
330
17
100
AcDbEntity
  8
Madeira
100
AcDbVertex
100
AcDb2dVertex
 10
7677.673618962623
 20
3495.520692852858
 30
0.0
 70
0
  0
VERTEX
  5
77
330
17
100
AcDbEntity
  8
Madeira
100
AcDbVertex
100
AcDb2dVertex
 10
7677.673618962623
 20
3509.520692852858
 30
0.0
 70
0
  0
VERTEX
  5
78
330
17
100
AcDbEntity
  8
Madeira
100
AcDbVertex
100
AcDb2dVertex
 10
7673.273618962628
 20
3509.520692852858
 30
0.0
 70
0
  0
VERTEX
  5
79
330
17
100
AcDbEntity
  8
Madeira
100
AcDbVertex
100
AcDb2dVertex
 10
7673.273618962628
 20
3495.520692852858
 30
0.0
 70
0
  0
SEQEND
  5
74
330
73
100
AcDbEntity
  8
Madeira
  0
POLYLINE
  5
7A
330
17
100
AcDbEntity
  8
Madeira
 62
126
100
AcDb2dPolyline
 66
1
 10
0.0
 20
0.0
 30
0.0
 70
0
  0
VERTEX
  5
7C
330
17
100
AcDbEntity
  8
Madeira
100
AcDbVertex
100
AcDb2dVertex
 10
7723.673618962623
 20
3495.520692852858
 30
0.0
 70
0
  0
VERTEX
  5
7D
330
17
100
AcDbEntity
  8
Madeira
100
AcDbVertex
100
AcDb2dVertex
 10
7728.073618962617
 20
3495.520692852858
 30
0.0
 70
0
  0
VERTEX
  5
7E
330
17
100
AcDbEntity
  8
Madeira
100
AcDbVertex
100
AcDb2dVertex
 10
7728.073618962617
 20
3509.520692852858
 30
0.0
 70
0
  0
VERTEX
  5
7F
330
17
100
AcDbEntity
  8
Madeira
100
AcDbVertex
100
AcDb2dVertex
 10
7723.673618962623
 20
3509.520692852858
 30
0.0
 70
0
  0
VERTEX
  5
80
330
17
100
AcDbEntity
  8
Madeira
100
AcDbVertex
100
AcDb2dVertex
 10
7723.673618962623
 20
3495.520692852858
 30
0.0
 70
0
  0
SEQEND
  5
7B
330
7A
100
AcDbEntity
  8
Madeira
  0
POLYLINE
  5
81
330
17
100
AcDbEntity
  8
Madeira
 62
126
100
AcDb2dPolyline
 66
1
 10
0.0
 20
0.0
 30
0.0
 70
0
  0
VERTEX
  5
83
330
17
100
AcDbEntity
  8
Madeira
100
AcDbVertex
100
AcDb2dVertex
 10
7723.673618962627
 20
3537.983378171089
 30
0.0
 70
0
  0
VERTEX
  5
84
330
17
100
AcDbEntity
  8
Madeira
100
AcDbVertex
100
AcDb2dVertex
 10
7728.073618962621
 20
3537.983378171089
 30
0.0
 70
0
  0
VERTEX
  5
85
330
17
100
AcDbEntity
  8
Madeira
100
AcDbVertex
100
AcDb2dVertex
 10
7728.073618962621
 20
3551.983378171089
 30
0.0
 70
0
  0
VERTEX
  5
86
330
17
100
AcDbEntity
  8
Madeira
100
AcDbVertex
100
AcDb2dVertex
 10
7723.673618962627
 20
3551.983378171089
 30
0.0
 70
0
  0
VERTEX
  5
87
330
17
100
AcDbEntity
  8
Madeira
100
AcDbVertex
100
AcDb2dVertex
 10
7723.673618962627
 20
3537.983378171089
 30
0.0
 70
0
  0
SEQEND
  5
82
330
81
100
AcDbEntity
  8
Madeira
  0
POLYLINE
  5
88
330
17
100
AcDbEntity
  8
Madeira
 62
126
100
AcDb2dPolyline
 66
1
 10
0.0
 20
0.0
 30
0.0
 70
0
  0
VERTEX
  5
8A
330
17
100
AcDbEntity
  8
Madeira
100
AcDbVertex
100
AcDb2dVertex
 10
7723.67361896263
 20
3589.520692852858
 30
0.0
 70
0
  0
VERTEX
  5
8B
330
17
100
AcDbEntity
  8
Madeira
100
AcDbVertex
100
AcDb2dVertex
 10
7728.073618962624
 20
3589.520692852858
 30
0.0
 70
0
  0
VERTEX
  5
8C
330
17
100
AcDbEntity
  8
Madeira
100
AcDbVertex
100
AcDb2dVertex
 10
7728.073618962624
 20
3603.520692852858
 30
0.0
 70
0
  0
VERTEX
  5
8D
330
17
100
AcDbEntity
  8
Madeira
100
AcDbVertex
100
AcDb2dVertex
 10
7723.67361896263
 20
3603.520692852858
 30
0.0
 70
0
  0
VERTEX
  5
8E
330
17
100
AcDbEntity
  8
Madeira
100
AcDbVertex
100
AcDb2dVertex
 10
7723.67361896263
 20
3589.520692852858
 30
0.0
 70
0
  0
SEQEND
  5
89
330
88
100
AcDbEntity
  8
Madeira
  0
POLYLINE
  5
8F
330
17
100
AcDbEntity
  8
Madeira
 62
126
100
AcDb2dPolyline
 66
1
 10
0.0
 20
0.0
 30
0.0
 70
0
  0
VERTEX
  5
91
330
17
100
AcDbEntity
  8
Madeira
100
AcDbVertex
100
AcDb2dVertex
 10
7673.273618962628
 20
3559.520692852836
 30
0.0
 70
0
  0
VERTEX
  5
92
330
17
100
AcDbEntity
  8
Madeira
100
AcDbVertex
100
AcDb2dVertex
 10
7677.673618962623
 20
3559.520692852836
 30
0.0
 70
0
  0
VERTEX
  5
93
330
17
100
AcDbEntity
  8
Madeira
100
AcDbVertex
100
AcDb2dVertex
 10
7677.673618962623
 20
3573.520692852837
 30
0.0
 70
0
  0
VERTEX
  5
94
330
17
100
AcDbEntity
  8
Madeira
100
AcDbVertex
100
AcDb2dVertex
 10
7673.273618962628
 20
3573.520692852837
 30
0.0
 70
0
  0
VERTEX
  5
95
330
17
100
AcDbEntity
  8
Madeira
100
AcDbVertex
100
AcDb2dVertex
 10
7673.273618962628
 20
3559.520692852836
 30
0.0
 70
0
  0
SEQEND
  5
90
330
8F
100
AcDbEntity
  8
Madeira
  0
POLYLINE
  5
96
330
17
100
AcDbEntity
  8
CONCRETO
 62
251
100
AcDb2dPolyline
 66
1
 10
0.0
 20
0.0
 30
0.0
 70
0
  0
VERTEX
  5
98
330
17
100
AcDbEntity
  8
CONCRETO
100
AcDbVertex
100
AcDb2dVertex
 10
7626.073618962646
 20
3577.520692852829
 30
0.0
 70
0
  0
VERTEX
  5
99
330
17
100
AcDbEntity
  8
CONCRETO
100
AcDbVertex
100
AcDb2dVertex
 10
7626.073618962646
 20
3603.520692852858
 30
0.0
 70
0
  0
VERTEX
  5
9A
330
17
100
AcDbEntity
  8
CONCRETO
100
AcDbVertex
100
AcDb2dVertex
 10
7681.673618962623
 20
3603.520692852858
 30
0.0
 70
0
  0
VERTEX
  5
9B
330
17
100
AcDbEntity
  8
CONCRETO
100
AcDbVertex
100
AcDb2dVertex
 10
7719.673618962564
 20
3603.520692852858
 30
0.0
 70
0
  0
VERTEX
  5
9C
330
17
100
AcDbEntity
  8
CONCRETO
100
AcDbVertex
100
AcDb2dVertex
 10
7719.673618962564
 20
3503.520692852858
 30
0.0
 70
0
  0
VERTEX
  5
9D
330
17
100
AcDbEntity
  8
CONCRETO
100
AcDbVertex
100
AcDb2dVertex
 10
7681.673618962623
 20
3503.520692852858
 30
0.0
 70
0
  0
VERTEX
  5
9E
330
17
100
AcDbEntity
  8
CONCRETO
100
AcDbVertex
100
AcDb2dVertex
 10
7681.673618962623
 20
3577.520692852836
 30
0.0
 70
0
  0
VERTEX
  5
9F
330
17
100
AcDbEntity
  8
CONCRETO
100
AcDbVertex
100
AcDb2dVertex
 10
7626.073618962646
 20
3577.520692852829
 30
0.0
 70
0
  0
SEQEND
  5
97
330
96
100
AcDbEntity
  8
CONCRETO
  0
POLYLINE
  5
A0
330
17
100
AcDbEntity
  8
Painéis
 62
200
100
AcDb2dPolyline
 66
1
 10
0.0
 20
0.0
 30
0.0
 70
0
  0
VERTEX
  5
A2
330
17
100
AcDbEntity
  8
Painéis
100
AcDbVertex
100
AcDb2dVertex
 10
7681.673618962623
 20
3573.520692852837
 30
0.0
 70
0
  0
VERTEX
  5
A3
330
17
100
AcDbEntity
  8
Painéis
100
AcDbVertex
100
AcDb2dVertex
 10
7681.673618962623
 20
3577.520692852836
 30
0.0
 70
0
  0
VERTEX
  5
A4
330
17
100
AcDbEntity
  8
Painéis
100
AcDbVertex
100
AcDb2dVertex
 10
7626.073618962646
 20
3577.520692852829
 30
0.0
 70
0
  0
VERTEX
  5
A5
330
17
100
AcDbEntity
  8
Painéis
100
AcDbVertex
100
AcDb2dVertex
 10
7626.073618962646
 20
3573.520692852829
 30
0.0
 70
0
  0
VERTEX
  5
A6
330
17
100
AcDbEntity
  8
Painéis
100
AcDbVertex
100
AcDb2dVertex
 10
7681.673618962623
 20
3573.520692852837
 30
0.0
 70
0
  0
SEQEND
  5
A1
330
A0
100
AcDbEntity
  8
Painéis
  0
POLYLINE
  5
A7
330
17
100
AcDbEntity
  8
Painéis
 62
200
100
AcDb2dPolyline
 66
1
 10
0.0
 20
0.0
 30
0.0
 70
0
  0
VERTEX
  5
A9
330
17
100
AcDbEntity
  8
Painéis
100
AcDbVertex
100
AcDb2dVertex
 10
7723.67361896263
 20
3603.520692852858
 30
0.0
 70
0
  0
VERTEX
  5
AA
330
17
100
AcDbEntity
  8
Painéis
100
AcDbVertex
100
AcDb2dVertex
 10
7719.67361896263
 20
3603.520692852858
 30
0.0
 70
0
  0
VERTEX
  5
AB
330
17
100
AcDbEntity
  8
Painéis
100
AcDbVertex
100
AcDb2dVertex
 10
7719.673618962622
 20
3495.520692852858
 30
0.0
 70
0
  0
VERTEX
  5
AC
330
17
100
AcDbEntity
  8
Painéis
100
AcDbVertex
100
AcDb2dVertex
 10
7723.673618962623
 20
3495.520692852858
 30
0.0
 70
0
  0
VERTEX
  5
AD
330
17
100
AcDbEntity
  8
Painéis
100
AcDbVertex
100
AcDb2dVertex
 10
7723.67361896263
 20
3603.520692852858
 30
0.0
 70
0
  0
SEQEND
  5
A8
330
A7
100
AcDbEntity
  8
Painéis
  0
POLYLINE
  5
AE
330
17
100
AcDbEntity
  8
Madeira
 62
126
100
AcDb2dPolyline
 66
1
 10
0.0
 20
0.0
 30
0.0
 70
0
  0
VERTEX
  5
B0
330
17
100
AcDbEntity
  8
Madeira
100
AcDbVertex
100
AcDb2dVertex
 10
7681.673618962623
 20
3495.520692852858
 30
0.0
 70
0
  0
VERTEX
  5
B1
330
17
100
AcDbEntity
  8
Madeira
100
AcDbVertex
100
AcDb2dVertex
 10
7681.673618962623
 20
3499.920692852852
 30
0.0
 70
0
  0
VERTEX
  5
B2
330
17
100
AcDbEntity
  8
Madeira
100
AcDbVertex
100
AcDb2dVertex
 10
7691.673618962624
 20
3499.920692852852
 30
0.0
 70
0
  0
VERTEX
  5
B3
330
17
100
AcDbEntity
  8
Madeira
100
AcDbVertex
100
AcDb2dVertex
 10
7691.673618962624
 20
3495.520692852858
 30
0.0
 70
0
  0
VERTEX
  5
B4
330
17
100
AcDbEntity
  8
Madeira
100
AcDbVertex
100
AcDb2dVertex
 10
7681.673618962623
 20
3495.520692852858
 30
0.0
 70
0
  0
SEQEND
  5
AF
330
AE
100
AcDbEntity
  8
Madeira
  0
POLYLINE
  5
B5
330
17
100
AcDbEntity
  8
Painéis
 62
200
100
AcDb2dPolyline
 66
1
 10
0.0
 20
0.0
 30
0.0
 70
0
  0
VERTEX
  5
B7
330
17
100
AcDbEntity
  8
Painéis
100
AcDbVertex
100
AcDb2dVertex
 10
7719.673618962622
 20
3499.920692852852
 30
0.0
 70
0
  0
VERTEX
  5
B8
330
17
100
AcDbEntity
  8
Painéis
100
AcDbVertex
100
AcDb2dVertex
 10
7719.673618962622
 20
3503.520692852858
 30
0.0
 70
0
  0
VERTEX
  5
B9
330
17
100
AcDbEntity
  8
Painéis
100
AcDbVertex
100
AcDb2dVertex
 10
7681.673618962623
 20
3503.520692852858
 30
0.0
 70
0
  0
VERTEX
  5
BA
330
17
100
AcDbEntity
  8
Painéis
100
AcDbVertex
100
AcDb2dVertex
 10
7681.673618962623
 20
3499.920692852852
 30
0.0
 70
0
  0
VERTEX
  5
BB
330
17
100
AcDbEntity
  8
Painéis
100
AcDbVertex
100
AcDb2dVertex
 10
7719.673618962622
 20
3499.920692852852
 30
0.0
 70
0
  0
SEQEND
  5
B6
330
B5
100
AcDbEntity
  8
Painéis
  0
POLYLINE
  5
BC
330
17
100
AcDbEntity
  8
Madeira
 62
126
100
AcDb2dPolyline
 66
1
 10
0.0
 20
0.0
 30
0.0
 70
0
  0
VERTEX
  5
BE
330
17
100
AcDbEntity
  8
Madeira
100
AcDbVertex
100
AcDb2dVertex
 10
7719.673618962622
 20
3495.520692852858
 30
0.0
 70
0
  0
VERTEX
  5
BF
330
17
100
AcDbEntity
  8
Madeira
100
AcDbVertex
100
AcDb2dVertex
 10
7719.673618962622
 20
3499.920692852852
 30
0.0
 70
0
  0
VERTEX
  5
C0
330
17
100
AcDbEntity
  8
Madeira
100
AcDbVertex
100
AcDb2dVertex
 10
7709.673618962622
 20
3499.920692852852
 30
0.0
 70
0
  0
VERTEX
  5
C1
330
17
100
AcDbEntity
  8
Madeira
100
AcDbVertex
100
AcDb2dVertex
 10
7709.673618962622
 20
3495.520692852858
 30
0.0
 70
0
  0
VERTEX
  5
C2
330
17
100
AcDbEntity
  8
Madeira
100
AcDbVertex
100
AcDb2dVertex
 10
7719.673618962622
 20
3495.520692852858
 30
0.0
 70
0
  0
SEQEND
  5
BD
330
BC
100
AcDbEntity
  8
Madeira
  0
POLYLINE
  5
C3
330
17
100
AcDbEntity
  8
Painéis
 62
200
100
AcDb2dPolyline
 66
1
 10
0.0
 20
0.0
 30
0.0
 70
0
  0
VERTEX
  5
C5
330
17
100
AcDbEntity
  8
Painéis
100
AcDbVertex
100
AcDb2dVertex
 10
7677.673618962623
 20
3573.520692852837
 30
0.0
 70
0
  0
VERTEX
  5
C6
330
17
100
AcDbEntity
  8
Painéis
100
AcDbVertex
100
AcDb2dVertex
 10
7681.673618962623
 20
3573.520692852837
 30
0.0
 70
0
  0
VERTEX
  5
C7
330
17
100
AcDbEntity
  8
Painéis
100
AcDbVertex
100
AcDb2dVertex
 10
7681.673618962623
 20
3495.520692852858
 30
0.0
 70
0
  0
VERTEX
  5
C8
330
17
100
AcDbEntity
  8
Painéis
100
AcDbVertex
100
AcDb2dVertex
 10
7677.673618962623
 20
3495.520692852858
 30
0.0
 70
0
  0
VERTEX
  5
C9
330
17
100
AcDbEntity
  8
Painéis
100
AcDbVertex
100
AcDb2dVertex
 10
7677.673618962623
 20
3573.520692852837
 30
0.0
 70
0
  0
SEQEND
  5
C4
330
C3
100
AcDbEntity
  8
Painéis
  0
LINE
  5
CA
330
17
100
AcDbEntity
  8
Texto Seção
 62
252
100
AcDbLine
 10
7700.673618962652
 20
3603.520692852858
 30
0.0
 11
7700.673618962652
 21
3728.520692852858
 31
0.0
  0
LINE
  5
CB
330
17
100
AcDbEntity
  8
Cota Seção (2x)
 62
180
100
AcDbLine
 10
7691.673618962593
 20
3530.520692852858
 30
0.0
 11
7691.673618962593
 21
3515.520692852858
 31
0.0
  0
LINE
  5
CC
330
17
100
AcDbEntity
  8
Cota Seção (2x)
 62
180
100
AcDbLine
 10
7709.673618962594
 20
3530.520692852858
 30
0.0
 11
7691.673618962593
 21
3530.520692852858
 31
0.0
  0
LINE
  5
CD
330
17
100
AcDbEntity
  8
Cota Seção (2x)
 62
180
100
AcDbLine
 10
7709.673618962594
 20
3515.520692852858
 30
0.0
 11
7709.673618962594
 21
3530.520692852858
 31
0.0
  0
LINE
  5
CE
330
17
100
AcDbEntity
  8
Cota Seção (2x)
 62
180
100
AcDbLine
 10
7691.673618962593
 20
3515.520692852858
 30
0.0
 11
7709.673618962594
 21
3515.520692852858
 31
0.0
  0
LINE
  5
CF
330
17
100
AcDbEntity
  8
COTA
 62
4
100
AcDbLine
 10
7681.673618962623
 20
3450.793879050668
 30
0.0
 11
7719.673618962622
 21
3450.793879050668
 31
0.0
  0
LINE
  5
D0
330
17
100
AcDbEntity
  8
COTA
 62
4
100
AcDbLine
 10
7719.673618962622
 20
3492.52069285285
 30
0.0
 11
7719.673618962622
 21
3447.793879050668
 31
0.0
  0
LINE
  5
D1
330
17
100
AcDbEntity
  8
COTA
 62
4
100
AcDbLine
 10
7681.673618962623
 20
3492.52069285285
 30
0.0
 11
7681.673618962623
 21
3447.793879050668
 31
0.0
  0
LINE
  5
D2
330
17
100
AcDbEntity
  8
COTA
 62
4
100
AcDbLine
 10
7593.016324359256
 20
3573.520692852831
 30
0.0
 11
7593.016324359256
 21
3495.52069285286
 31
0.0
  0
LINE
  5
D3
330
17
100
AcDbEntity
  8
COTA
 62
4
100
AcDbLine
 10
7645.07361896265
 20
3495.52069285286
 30
0.0
 11
7590.016324359256
 21
3495.52069285286
 31
0.0
  0
LINE
  5
D4
330
17
100
AcDbEntity
  8
COTA
 62
4
100
AcDbLine
 10
7623.073618962649
 20
3573.520692852831
 30
0.0
 11
7590.016324359256
 21
3573.520692852831
 31
0.0
  0
LINE
  5
D5
330
17
100
AcDbEntity
  8
COTA
 62
4
100
AcDbLine
 10
7593.016324358925
 20
3603.52069285286
 30
0.0
 11
7593.016324358925
 21
3577.520692852831
 31
0.0
  0
LINE
  5
D6
330
17
100
AcDbEntity
  8
COTA
 62
4
100
AcDbLine
 10
7623.073618962649
 20
3577.520692852831
 30
0.0
 11
7590.016324358924
 21
3577.520692852831
 31
0.0
  0
LINE
  5
D7
330
17
100
AcDbEntity
  8
COTA
 62
4
100
AcDbLine
 10
7623.073618962649
 20
3603.52069285286
 30
0.0
 11
7590.016324358924
 21
3603.52069285286
 31
0.0
  0
LINE
  5
D8
330
17
100
AcDbEntity
  8
Cota Seção (2x)
 62
180
100
AcDbLine
 10
7700.673618962617
 20
3553.854026186146
 30
0.0
 11
7715.673618962616
 21
3553.854026186146
 31
0.0
  0
LINE
  5
D9
330
17
100
AcDbEntity
  8
Cota Seção (2x)
 62
180
100
AcDbLine
 10
7700.673618962617
 20
3573.187359519478
 30
0.0
 11
7700.673618962617
 21
3553.854026186146
 31
0.0
  0
LINE
  5
DA
330
17
100
AcDbEntity
  8
Cota Seção (2x)
 62
180
100
AcDbLine
 10
7715.673618962616
 20
3573.187359519478
 30
0.0
 11
7700.673618962617
 21
3573.187359519478
 31
0.0
  0
LINE
  5
DB
330
17
100
AcDbEntity
  8
Cota Seção (2x)
 62
180
100
AcDbLine
 10
7715.673618962616
 20
3553.854026186146
 30
0.0
 11
7715.673618962616
 21
3573.187359519478
 31
0.0
  0
LINE
  5
DC
330
17
100
AcDbEntity
  8
COTA
 62
4
100
AcDbLine
 10
7796.545351720967
 20
3495.52069285286
 30
0.0
 11
7796.545351720967
 21
3603.52069285286
 31
0.0
  0
LINE
  5
DD
330
17
100
AcDbEntity
  8
COTA
 62
4
100
AcDbLine
 10
7740.673618962635
 20
3603.52069285286
 30
0.0
 11
7799.545351720967
 21
3603.52069285286
 31
0.0
  0
LINE
  5
DE
330
17
100
AcDbEntity
  8
COTA
 62
4
100
AcDbLine
 10
7756.273618962632
 20
3495.52069285286
 30
0.0
 11
7799.545351720967
 21
3495.52069285286
 31
0.0
  0
LINE
  5
DF
330
17
100
AcDbEntity
  8
COTA
 62
4
100
AcDbLine
 10
7573.696895873471
 20
3495.52069285286
 30
0.0
 11
7573.696895873471
 21
3603.52069285286
 31
0.0
  0
LINE
  5
E0
330
17
100
AcDbEntity
  8
COTA
 62
4
100
AcDbLine
 10
7670.673618962627
 20
3603.52069285286
 30
0.0
 11
7570.696895873471
 21
3603.52069285286
 31
0.0
  0
LINE
  5
E1
330
17
100
AcDbEntity
  8
COTA
 62
4
100
AcDbLine
 10
7645.07361896265
 20
3495.52069285286
 30
0.0
 11
7570.696895873471
 21
3495.52069285286
 31
0.0
  0
LINE
  5
E2
330
17
100
AcDbEntity
  8
COTA
100
AcDbLine
 10
7817.460642267024
 20
3119.977428774205
 30
0.0
 11
7820.460642267024
 21
3116.977428774205
 31
0.0
  0
LINE
  5
E3
330
17
100
AcDbEntity
  8
COTA
100
AcDbLine
 10
7820.460642267024
 20
3170.977428774205
 30
0.0
 11
7817.460642267024
 21
3173.977428774205
 31
0.0
  0
LINE
  5
E4
330
17
100
AcDbEntity
  8
COTA
 62
4
100
AcDbLine
 10
7818.960642267024
 20
3172.477428774205
 30
0.0
 11
7818.960642267024
 21
3118.477428774205
 31
0.0
  0
LINE
  5
E5
330
17
100
AcDbEntity
  8
COTA
 62
4
100
AcDbLine
 10
7790.821473302307
 20
3118.477428774205
 30
0.0
 11
7821.960642267024
 21
3118.477428774205
 31
0.0
  0
LINE
  5
E6
330
17
100
AcDbEntity
  8
COTA
 62
4
100
AcDbLine
 10
7790.821473302307
 20
3172.477428774205
 30
0.0
 11
7821.960642267024
 21
3172.477428774205
 31
0.0
  0
LINE
  5
E7
330
17
100
AcDbEntity
  8
COTA
100
AcDbLine
 10
7786.321473302303
 20
3051.895315324872
 30
0.0
 11
7789.321473302303
 21
3054.895315324872
 31
0.0
  0
LINE
  5
E8
330
17
100
AcDbEntity
  8
COTA
100
AcDbLine
 10
7529.321473302299
 20
3054.895315324872
 30
0.0
 11
7526.321473302299
 21
3051.895315324872
 31
0.0
  0
LINE
  5
E9
330
17
100
AcDbEntity
  8
COTA
 62
4
100
AcDbLine
 10
7527.821473302299
 20
3053.395315324872
 30
0.0
 11
7787.821473302303
 21
3053.395315324872
 31
0.0
  0
LINE
  5
EA
330
17
100
AcDbEntity
  8
COTA
 62
4
100
AcDbLine
 10
7787.821473302303
 20
3115.477428774203
 30
0.0
 11
7787.821473302303
 21
3050.395315324872
 31
0.0
  0
LINE
  5
EB
330
17
100
AcDbEntity
  8
COTA
 62
4
100
AcDbLine
 10
7527.821473302299
 20
3115.477428774203
 30
0.0
 11
7527.821473302299
 21
3050.395315324872
 31
0.0
  0
LINE
  5
EC
330
17
100
AcDbEntity
  8
COTA
100
AcDbLine
 10
7786.321473302303
 20
3076.440550687024
 30
0.0
 11
7789.321473302303
 21
3079.440550687024
 31
0.0
  0
LINE
  5
ED
330
17
100
AcDbEntity
  8
COTA
100
AcDbLine
 10
7667.321473302303
 20
3079.440550687024
 30
0.0
 11
7664.321473302303
 21
3076.440550687024
 31
0.0
  0
LINE
  5
EE
330
17
100
AcDbEntity
  8
COTA
 62
4
100
AcDbLine
 10
7665.821473302303
 20
3077.940550687024
 30
0.0
 11
7787.821473302303
 21
3077.940550687024
 31
0.0
  0
LINE
  5
EF
330
17
100
AcDbEntity
  8
COTA
 62
4
100
AcDbLine
 10
7787.821473302303
 20
3115.477428774203
 30
0.0
 11
7787.821473302303
 21
3074.940550687024
 31
0.0
  0
LINE
  5
F0
330
17
100
AcDbEntity
  8
COTA
 62
4
100
AcDbLine
 10
7665.821473302303
 20
3115.477428774218
 30
0.0
 11
7665.821473302303
 21
3074.940550687024
 31
0.0
  0
LINE
  5
F1
330
17
100
AcDbEntity
  8
COTA
100
AcDbLine
 10
7664.321473302303
 20
3076.440550687024
 30
0.0
 11
7667.321473302303
 21
3079.440550687024
 31
0.0
  0
LINE
  5
F2
330
17
100
AcDbEntity
  8
COTA
100
AcDbLine
 10
7529.321473302299
 20
3079.440550687024
 30
0.0
 11
7526.321473302299
 21
3076.440550687024
 31
0.0
  0
LINE
  5
F3
330
17
100
AcDbEntity
  8
COTA
 62
4
100
AcDbLine
 10
7527.821473302299
 20
3077.940550687024
 30
0.0
 11
7665.821473302303
 21
3077.940550687024
 31
0.0
  0
LINE
  5
F4
330
17
100
AcDbEntity
  8
COTA
 62
4
100
AcDbLine
 10
7665.821473302303
 20
3115.477428774218
 30
0.0
 11
7665.821473302303
 21
3074.940550687024
 31
0.0
  0
LINE
  5
F5
330
17
100
AcDbEntity
  8
COTA
 62
4
100
AcDbLine
 10
7527.821473302299
 20
3115.477428774203
 30
0.0
 11
7527.821473302299
 21
3074.940550687024
 31
0.0
  0
LINE
  5
F6
330
17
100
AcDbEntity
  8
COTA
100
AcDbLine
 10
8028.054144164576
 20
3337.523170319978
 30
0.0
 11
8031.054144164576
 21
3334.523170319978
 31
0.0
  0
LINE
  5
F7
330
17
100
AcDbEntity
  8
COTA
100
AcDbLine
 10
8031.054144164576
 20
3388.523170319978
 30
0.0
 11
8028.054144164576
 21
3391.523170319978
 31
0.0
  0
LINE
  5
F8
330
17
100
AcDbEntity
  8
COTA
 62
4
100
AcDbLine
 10
8029.554144164576
 20
3390.023170319978
 30
0.0
 11
8029.554144164576
 21
3336.023170319978
 31
0.0
  0
LINE
  5
F9
330
17
100
AcDbEntity
  8
COTA
 62
4
100
AcDbLine
 10
7985.821473302308
 20
3336.023170319978
 30
0.0
 11
8032.554144164576
 21
3336.023170319978
 31
0.0
  0
LINE
  5
FA
330
17
100
AcDbEntity
  8
COTA
 62
4
100
AcDbLine
 10
7985.821473302308
 20
3390.023170319978
 30
0.0
 11
8032.554144164576
 21
3390.023170319978
 31
0.0
  0
LINE
  5
FB
330
17
100
AcDbEntity
  8
COTA
100
AcDbLine
 10
8006.354176560991
 20
3388.523170319978
 30
0.0
 11
8003.354176560991
 21
3391.523170319978
 31
0.0
  0
LINE
  5
FC
330
17
100
AcDbEntity
  8
COTA
100
AcDbLine
 10
8003.354176560991
 20
3377.523170319978
 30
0.0
 11
8006.354176560991
 21
3374.523170319978
 31
0.0
  0
LINE
  5
FD
330
17
100
AcDbEntity
  8
COTA
 62
4
100
AcDbLine
 10
8004.854176560991
 20
3390.023170319978
 30
0.0
 11
8004.854176560991
 21
3409.140129384306
 31
0.0
  0
LINE
  5
FE
330
17
100
AcDbEntity
  8
COTA
 62
4
100
AcDbLine
 10
8004.854176560991
 20
3376.023170319978
 30
0.0
 11
8004.854176560991
 21
3390.023170319978
 31
0.0
  0
LINE
  5
FF
330
17
100
AcDbEntity
  8
COTA
 62
4
100
AcDbLine
 10
7985.821473302308
 20
3390.023170319978
 30
0.0
 11
8007.854176560991
 21
3390.023170319978
 31
0.0
  0
LINE
  5
100
330
17
100
AcDbEntity
  8
COTA
 62
4
100
AcDbLine
 10
7985.821473302308
 20
3376.023170319978
 30
0.0
 11
8007.854176560991
 21
3376.023170319978
 31
0.0
  0
LINE
  5
101
330
17
100
AcDbEntity
  8
COTA
100
AcDbLine
 10
8006.354176561
 20
3374.523170319978
 30
0.0
 11
8003.354176561
 21
3377.523170319978
 31
0.0
  0
LINE
  5
102
330
17
100
AcDbEntity
  8
COTA
100
AcDbLine
 10
8003.354176561
 20
3337.523170319978
 30
0.0
 11
8006.354176561
 21
3334.523170319978
 31
0.0
  0
LINE
  5
103
330
17
100
AcDbEntity
  8
COTA
 62
4
100
AcDbLine
 10
8004.854176561
 20
3336.023170319978
 30
0.0
 11
8004.854176561
 21
3376.023170319978
 31
0.0
  0
LINE
  5
104
330
17
100
AcDbEntity
  8
COTA
 62
4
100
AcDbLine
 10
7985.821473302308
 20
3376.023170319978
 30
0.0
 11
8007.854176560998
 21
3376.023170319978
 31
0.0
  0
LINE
  5
105
330
17
100
AcDbEntity
  8
COTA
 62
4
100
AcDbLine
 10
7985.821473302308
 20
3336.023170319978
 30
0.0
 11
8007.854176560998
 21
3336.023170319978
 31
0.0
  0
LINE
  5
106
330
17
100
AcDbEntity
  8
COTA
100
AcDbLine
 10
7981.321473302303
 20
3264.441056870646
 30
0.0
 11
7984.321473302303
 21
3267.441056870646
 31
0.0
  0
LINE
  5
107
330
17
100
AcDbEntity
  8
COTA
100
AcDbLine
 10
7529.321473302299
 20
3267.441056870646
 30
0.0
 11
7526.321473302299
 21
3264.441056870646
 31
0.0
  0
LINE
  5
108
330
17
100
AcDbEntity
  8
COTA
 62
4
100
AcDbLine
 10
7527.821473302299
 20
3265.941056870646
 30
0.0
 11
7982.821473302303
 21
3265.941056870646
 31
0.0
  0
LINE
  5
109
330
17
100
AcDbEntity
  8
COTA
 62
4
100
AcDbLine
 10
7982.821473302303
 20
3333.023170319977
 30
0.0
 11
7982.821473302303
 21
3262.941056870646
 31
0.0
  0
LINE
  5
10A
330
17
100
AcDbEntity
  8
COTA
 62
4
100
AcDbLine
 10
7527.821473302299
 20
3333.023170319977
 30
0.0
 11
7527.821473302299
 21
3262.941056870646
 31
0.0
  0
LINE
  5
10B
330
17
100
AcDbEntity
  8
COTA
100
AcDbLine
 10
7981.321473302303
 20
3293.986292232797
 30
0.0
 11
7984.321473302303
 21
3296.986292232797
 31
0.0
  0
LINE
  5
10C
330
17
100
AcDbEntity
  8
COTA
100
AcDbLine
 10
7740.321473302303
 20
3296.986292232797
 30
0.0
 11
7737.321473302303
 21
3293.986292232797
 31
0.0
  0
LINE
  5
10D
330
17
100
AcDbEntity
  8
COTA
 62
4
100
AcDbLine
 10
7738.821473302303
 20
3295.486292232797
 30
0.0
 11
7982.821473302303
 21
3295.486292232797
 31
0.0
  0
LINE
  5
10E
330
17
100
AcDbEntity
  8
COTA
 62
4
100
AcDbLine
 10
7982.821473302303
 20
3333.023170319977
 30
0.0
 11
7982.821473302303
 21
3292.486292232797
 31
0.0
  0
LINE
  5
10F
330
17
100
AcDbEntity
  8
COTA
 62
4
100
AcDbLine
 10
7738.821473302303
 20
3333.023170319991
 30
0.0
 11
7738.821473302303
 21
3292.486292232797
 31
0.0
  0
LINE
  5
110
330
17
100
AcDbEntity
  8
COTA
100
AcDbLine
 10
7737.321473302303
 20
3293.986292232797
 30
0.0
 11
7740.321473302303
 21
3296.986292232797
 31
0.0
  0
LINE
  5
111
330
17
100
AcDbEntity
  8
COTA
100
AcDbLine
 10
7529.321473302299
 20
3296.986292232797
 30
0.0
 11
7526.321473302299
 21
3293.986292232797
 31
0.0
  0
LINE
  5
112
330
17
100
AcDbEntity
  8
COTA
 62
4
100
AcDbLine
 10
7527.821473302299
 20
3295.486292232797
 30
0.0
 11
7738.821473302303
 21
3295.486292232797
 31
0.0
  0
LINE
  5
113
330
17
100
AcDbEntity
  8
COTA
 62
4
100
AcDbLine
 10
7738.821473302303
 20
3333.023170319991
 30
0.0
 11
7738.821473302303
 21
3292.486292232797
 31
0.0
  0
LINE
  5
114
330
17
100
AcDbEntity
  8
COTA
 62
4
100
AcDbLine
 10
7527.821473302299
 20
3333.023170319977
 30
0.0
 11
7527.821473302299
 21
3292.486292232797
 31
0.0
  0
LINE
  5
115
330
17
100
AcDbEntity
  8
SARR_2.2x7
 62
40
100
AcDbLine
 10
7738.821473302303
 20
3359.523170319703
 30
0.0
 11
7975.821473302303
 21
3359.523170319514
 31
0.0
  0
LINE
  5
116
330
17
100
AcDbEntity
  8
SARR_2.2x7
 62
40
100
AcDbLine
 10
7738.821473302303
 20
3352.523170320005
 30
0.0
 11
7975.821473302303
 21
3352.523170319816
 31
0.0
  0
LINE
  5
117
330
17
100
AcDbEntity
  8
SARR_2.2x7
 62
40
100
AcDbLine
 10
7534.821473302296
 20
3359.523170319703
 30
0.0
 11
7738.821473302303
 21
3359.52317031954
 31
0.0
  0
LINE
  5
118
330
17
100
AcDbEntity
  8
SARR_2.2x7
 62
40
100
AcDbLine
 10
7534.821473302296
 20
3352.523170320005
 30
0.0
 11
7738.821473302303
 21
3352.523170319842
 31
0.0
  0
LINE
  5
119
330
17
100
AcDbEntity
  8
SARR_2.2x7
 62
40
100
AcDbLine
 10
7665.821473302303
 20
3125.477428774118
 30
0.0
 11
7780.821473302303
 21
3125.477428774108
 31
0.0
  0
LINE
  5
11A
330
17
100
AcDbEntity
  8
SARR_2.2x7
 62
40
100
AcDbLine
 10
7665.821473302303
 20
3149.25930425744
 30
0.0
 11
7780.821473302303
 21
3149.259304257454
 31
0.0
  0
LINE
  5
11B
330
17
100
AcDbEntity
  8
SARR_2.2x7
 62
40
100
AcDbLine
 10
7665.821473302303
 20
3142.259304257744
 30
0.0
 11
7780.821473302303
 21
3142.259304257754
 31
0.0
  0
LINE
  5
11C
330
17
100
AcDbEntity
  8
SARR_2.2x7
 62
40
100
AcDbLine
 10
7665.821473302303
 20
3165.47742877429
 30
0.0
 11
7780.821473302303
 21
3165.477428774301
 31
0.0
  0
LINE
  5
11D
330
17
100
AcDbEntity
  8
SARR_2.2x7
 62
40
100
AcDbLine
 10
7534.8214733023
 20
3125.47742877411
 30
0.0
 11
7665.821473302303
 21
3125.477428774099
 31
0.0
  0
LINE
  5
11E
330
17
100
AcDbEntity
  8
SARR_2.2x7
 62
40
100
AcDbLine
 10
7534.821473302303
 20
3149.259304257447
 30
0.0
 11
7665.821473302303
 21
3149.259304257463
 31
0.0
  0
LINE
  5
11F
330
17
100
AcDbEntity
  8
SARR_2.2x7
 62
40
100
AcDbLine
 10
7534.821473302279
 20
3142.259304257749
 30
0.0
 11
7665.821473302303
 21
3142.25930425776
 31
0.0
  0
LINE
  5
120
330
17
100
AcDbEntity
  8
SARR_2.2x7
 62
40
100
AcDbLine
 10
7534.8214733023
 20
3165.477428774296
 30
0.0
 11
7665.821473302303
 21
3165.477428774306
 31
0.0
  0
LINE
  5
121
330
17
100
AcDbEntity
  8
SARR_2.2x7
 62
40
100
AcDbLine
 10
7534.821473302296
 20
3343.023170319976
 30
0.0
 11
7975.821473302303
 21
3343.023170319976
 31
0.0
  0
LINE
  5
122
330
17
100
AcDbEntity
  8
SARR_2.2x7
 62
40
100
AcDbLine
 10
7534.821473302296
 20
3369.023170319977
 30
0.0
 11
7975.821473302303
 21
3369.023170319977
 31
0.0
  0
LINE
  5
123
330
17
100
AcDbEntity
  8
SARR_2.2x7
 62
40
100
AcDbLine
 10
7780.821473302303
 20
3118.477428774201
 30
0.0
 11
7780.821473302303
 21
3172.477428774203
 31
0.0
  0
LINE
  5
124
330
17
100
AcDbEntity
  8
SARR_2.2x7
 62
40
100
AcDbLine
 10
7975.821473302303
 20
3336.023170319976
 30
0.0
 11
7975.821473302303
 21
3376.023170319977
 31
0.0
  0
LINE
  5
125
330
17
100
AcDbEntity
  8
SARR_2.2x7
 62
40
100
AcDbLine
 10
7534.821473302296
 20
3118.477428774203
 30
0.0
 11
7534.8214733023
 21
3172.477428774203
 31
0.0
  0
LINE
  5
126
330
17
100
AcDbEntity
  8
SARR_2.2x7
 62
40
100
AcDbLine
 10
7534.821473302296
 20
3336.023170319976
 30
0.0
 11
7534.821473302296
 21
3376.023170319977
 31
0.0
  0
LINE
  5
127
330
17
100
AcDbEntity
  8
Painéis
 62
200
100
AcDbLine
 10
7787.821473302303
 20
3118.477428774203
 30
0.0
 11
7787.821473302303
 21
3172.477428774203
 31
0.0
  0
LINE
  5
128
330
17
100
AcDbEntity
  8
Painéis
 62
200
100
AcDbLine
 10
7665.821473302303
 20
3118.477428774203
 30
0.0
 11
7665.821473302303
 21
3172.477428774203
 31
0.0
  0
LINE
  5
129
330
17
100
AcDbEntity
  8
Painéis
 62
200
100
AcDbLine
 10
7527.821473302299
 20
3118.477428774203
 30
0.0
 11
7527.821473302299
 21
3172.477428774203
 31
0.0
  0
LINE
  5
12A
330
17
100
AcDbEntity
  8
Painéis
 62
200
100
AcDbLine
 10
7527.821473302299
 20
3118.477428774203
 30
0.0
 11
7787.821473302303
 21
3118.477428774203
 31
0.0
  0
LINE
  5
12B
330
17
100
AcDbEntity
  8
Painéis
 62
200
100
AcDbLine
 10
7527.821473302299
 20
3172.477428774203
 30
0.0
 11
7787.821473302303
 21
3172.477428774203
 31
0.0
  0
LINE
  5
12C
330
17
100
AcDbEntity
  8
Painéis
 62
200
100
AcDbLine
 10
7982.821473302303
 20
3336.023170319976
 30
0.0
 11
7982.821473302303
 21
3376.023170319977
 31
0.0
  0
LINE
  5
12D
330
17
100
AcDbEntity
  8
Painéis
 62
200
100
AcDbLine
 10
7738.821473302303
 20
3336.023170319976
 30
0.0
 11
7738.821473302303
 21
3376.023170319977
 31
0.0
  0
LINE
  5
12E
330
17
100
AcDbEntity
  8
Painéis
 62
200
100
AcDbLine
 10
7527.821473302299
 20
3336.023170319976
 30
0.0
 11
7527.821473302299
 21
3376.023170319977
 31
0.0
  0
LINE
  5
12F
330
17
100
AcDbEntity
  8
Painéis
 62
200
100
AcDbLine
 10
7527.821473302299
 20
3336.023170319976
 30
0.0
 11
7982.821473302303
 21
3336.023170319976
 31
0.0
  0
LINE
  5
130
330
17
100
AcDbEntity
  8
Painéis
 62
200
100
AcDbLine
 10
7527.821473302299
 20
3376.023170319977
 30
0.0
 11
7982.821473302303
 21
3376.023170319977
 31
0.0
  0
LINE
  5
131
330
17
100
AcDbEntity
  8
COTA
 62
241
100
AcDbLine
 10
7982.821473302303
 20
3376.023170319977
 30
0.0
 11
7982.821473302303
 21
3390.023170319977
 31
0.0
  0
LINE
  5
132
330
17
100
AcDbEntity
  8
COTA
 62
241
100
AcDbLine
 10
7527.821473302299
 20
3390.023170319977
 30
0.0
 11
7982.821473302303
 21
3390.023170319977
 31
0.0
  0
LINE
  5
133
330
17
100
AcDbEntity
  8
COTA
 62
241
100
AcDbLine
 10
7527.821473302299
 20
3376.023170319977
 30
0.0
 11
7527.821473302299
 21
3390.023170319977
 31
0.0
  0
TEXT
  5
134
330
17
100
AcDbEntity
  8
Texto Seção
 62
7
100
AcDbText
 10
8005.444710204356
 20
2987.042441821572
 30
0.0
 40
13.0
  1
VEM DA V23
100
AcDbText
  0
TEXT
  5
135
330
17
100
AcDbEntity
  8
Cota Seção (2x)
 62
1
100
AcDbText
 10
7700.673618962594
 20
3523.020692852858
 30
0.0
 40
7.0
  1
19
100
AcDbText
  0
TEXT
  5
136
330
17
100
AcDbEntity
  8
COTA
 62
1
100
AcDbText
 10
7700.673618962622
 20
3456.293879050668
 30
0.0
 40
7.0
  1
19
100
AcDbText
  0
TEXT
  5
137
330
17
100
AcDbEntity
  8
COTA
 62
1
100
AcDbText
 10
7601.516324359255
 20
3534.520692852842
 30
0.0
 40
7.0
  1
39
100
AcDbText
  0
TEXT
  5
138
330
17
100
AcDbEntity
  8
COTA
 62
1
100
AcDbText
 10
7601.516324358924
 20
3590.520692852842
 30
0.0
 40
7.0
  1
13
100
AcDbText
  0
TEXT
  5
139
330
17
100
AcDbEntity
  8
Cota Seção (2x)
 62
1
100
AcDbText
 10
7722.173618962615
 20
3563.520692852808
 30
0.0
 40
7.0
  1
50
100
AcDbText
  0
TEXT
  5
13A
330
17
100
AcDbEntity
  8
COTA
 62
1
100
AcDbText
 10
7805.045351720966
 20
3549.520692852857
 30
0.0
 40
7.0
  1
54
100
AcDbText
  0
TEXT
  5
13B
330
17
100
AcDbEntity
  8
COTA
 62
1
100
AcDbText
 10
7582.196895873469
 20
3549.520692852857
 30
0.0
 40
7.0
  1
54
100
AcDbText
  0
TEXT
  5
13C
330
17
100
AcDbEntity
  8
COTA
 62
240
100
AcDbText
 10
7830.850993144216
 20
3145.477428774202
 30
0.0
 40
10.0
  1
54
100
AcDbText
  0
TEXT
  5
13D
330
17
100
AcDbEntity
  8
COTA
 62
240
100
AcDbText
 10
7657.821473302302
 20
3061.497654506159
 30
0.0
 40
10.0
  1
260
100
AcDbText
  0
TEXT
  5
13E
330
17
100
AcDbEntity
  8
COTA
 62
240
100
AcDbText
 10
7726.821473302303
 20
3085.999030219188
 30
0.0
 40
10.0
  1
122
100
AcDbText
  0
TEXT
  5
13F
330
17
100
AcDbEntity
  8
COTA
 62
240
100
AcDbText
 10
7596.8214733023
 20
3086.181778757199
 30
0.0
 40
10.0
  1
138
100
AcDbText
  0
TEXT
  5
140
330
17
100
AcDbEntity
  8
COTA
 62
240
100
AcDbText
 10
8041.444495041768
 20
3363.023170319975
 30
0.0
 40
10.0
  1
54
100
AcDbText
  0
TEXT
  5
141
330
17
100
AcDbEntity
  8
COTA
 62
240
100
AcDbText
 10
8016.781077145787
 20
3401.081649852139
 30
0.0
 40
10.0
  1
14
100
AcDbText
  0
TEXT
  5
142
330
17
100
AcDbEntity
  8
COTA
 62
240
100
AcDbText
 10
8016.751837379711
 20
3356.023170319975
 30
0.0
 40
10.0
  1
40
100
AcDbText
  0
TEXT
  5
143
330
17
100
AcDbEntity
  8
COTA
 62
240
100
AcDbText
 10
7755.321473302301
 20
3274.050705993453
 30
0.0
 40
10.0
  1
455
100
AcDbText
  0
TEXT
  5
144
330
17
100
AcDbEntity
  8
COTA
 62
240
100
AcDbText
 10
7860.821473302303
 20
3303.559391648001
 30
0.0
 40
10.0
  1
244
100
AcDbText
  0
TEXT
  5
145
330
17
100
AcDbEntity
  8
COTA
 62
240
100
AcDbText
 10
7633.321473302301
 20
3303.54477176496
 30
0.0
 40
10.0
  1
211
100
AcDbText
  0
TEXT
  5
146
330
17
100
AcDbEntity
  8
detalhes
 62
4
100
AcDbText
 10
7702.273884578068
 20
3505.756446372697
 30
0.0
 40
9.600000000000001
  1
c
100
AcDbText
  0
TEXT
  5
147
330
17
100
AcDbEntity
  8
detalhes
 62
4
100
AcDbText
 10
7667.418524976534
 20
3525.204709577611
 30
0.0
 40
9.600000000000001
  1
a
100
AcDbText
  0
TEXT
  5
148
330
17
100
AcDbEntity
  8
detalhes
 62
4
100
AcDbText
 10
7733.369238506735
 20
3553.743675828235
 30
0.0
 40
9.600000000000001
  1
b
100
AcDbText
  0
TEXT
  5
149
330
17
100
AcDbEntity
  8
Texto Seção
 62
7
100
AcDbText
 10
7530.821473302271
 20
3181.66380419518
 30
0.0
 40
13.0
  1
V323.B
100
AcDbText
  0
TEXT
  5
14A
330
17
100
AcDbEntity
  8
5
 62
5
100
AcDbText
 10
7764.175979357299
 20
3035.383833565064
 30
0.0
 40
12.0
  1
P26
100
AcDbText
  0
TEXT
  5
14B
330
17
100
AcDbEntity
  8
5
 62
5
100
AcDbText
 10
7528.863337757555
 20
3035.383833565064
 30
0.0
 40
12.0
  1
V308
100
AcDbText
  0
TEXT
  5
14C
330
17
100
AcDbEntity
  8
5
 62
5
100
AcDbText
 10
7939.370205339502
 20
3249.974829496468
 30
0.0
 40
12.0
  1
V308
100
AcDbText
  0
TEXT
  5
14D
330
17
100
AcDbEntity
  8
5
 62
5
100
AcDbText
 10
7528.863337757555
 20
3247.929575110838
 30
0.0
 40
12.0
  1
V304
100
AcDbText
  0
TEXT
  5
14E
330
17
100
AcDbEntity
  8
Texto Seção
 62
7
100
AcDbText
 10
7530.821473302271
 20
3399.209545740954
 30
0.0
 40
13.0
  1
V323.A
100
AcDbText
  0
ENDSEC
  0
SECTION
  2
OBJECTS
  0
DICTIONARY
  5
A
330
0
100
AcDbDictionary
281
1
  3
ACAD_COLOR
350
B
  3
ACAD_GROUP
350
C
  3
ACAD_LAYOUT
350
D
  3
ACAD_MATERIAL
350
E
  3
ACAD_MLEADERSTYLE
350
F
  3
ACAD_MLINESTYLE
350
10
  3
ACAD_PLOTSETTINGS
350
11
  3
ACAD_PLOTSTYLENAME
350
12
  3
ACAD_SCALELIST
350
14
  3
ACAD_TABLESTYLE
350
15
  3
ACAD_VISUALSTYLE
350
16
  3
EZDXF_META
350
2D
  0
DICTIONARY
  5
B
330
A
100
AcDbDictionary
281
1
  0
DICTIONARY
  5
C
330
A
100
AcDbDictionary
281
1
  0
DICTIONARY
  5
D
330
A
100
AcDbDictionary
281
1
  3
Model
350
1A
  3
Layout1
350
1E
  0
DICTIONARY
  5
E
330
A
100
AcDbDictionary
281
1
  3
ByBlock
350
1F
  3
ByLayer
350
20
  3
Global
350
21
  0
DICTIONARY
  5
F
330
A
100
AcDbDictionary
281
1
  3
Standard
350
2C
  0
DICTIONARY
  5
10
330
A
100
AcDbDictionary
281
1
  3
Standard
350
22
  0
DICTIONARY
  5
11
330
A
100
AcDbDictionary
281
1
  0
ACDBDICTIONARYWDFLT
  5
12
330
A
100
AcDbDictionary
281
1
  3
Normal
350
13
100
AcDbDictionaryWithDefault
340
13
  0
ACDBPLACEHOLDER
  5
13
330
12
  0
DICTIONARY
  5
14
330
A
100
AcDbDictionary
281
1
  0
DICTIONARY
  5
15
330
A
100
AcDbDictionary
281
1
  0
DICTIONARY
  5
16
330
A
100
AcDbDictionary
281
1
  0
LAYOUT
  5
1A
330
D
100
AcDbPlotSettings
  1

  4
A3
  6

 40
7.5
 41
20.0
 42
7.5
 43
20.0
 44
420.0
 45
297.0
 46
0.0
 47
0.0
 48
0.0
 49
0.0
140
0.0
141
0.0
142
1.0
143
1.0
 70
1024
 72
1
 73
0
 74
5
  7

 75
16
 76
0
 77
2
 78
300
147
1.0
148
0.0
149
0.0
100
AcDbLayout
  1
Model
 70
1
 71
0
 10
0.0
 20
0.0
 11
420.0
 21
297.0
 12
0.0
 22
0.0
 32
0.0
 14
1e+20
 24
1e+20
 34
1e+20
 15
-1e+20
 25
-1e+20
 35
-1e+20
146
0.0
 13
0.0
 23
0.0
 33
0.0
 16
1.0
 26
0.0
 36
0.0
 17
0.0
 27
1.0
 37
0.0
 76
1
330
17
  0
LAYOUT
  5
1E
330
D
100
AcDbPlotSettings
  1

  4
A3
  6

 40
7.5
 41
20.0
 42
7.5
 43
20.0
 44
420.0
 45
297.0
 46
0.0
 47
0.0
 48
0.0
 49
0.0
140
0.0
141
0.0
142
1.0
143
1.0
 70
0
 72
1
 73
0
 74
5
  7

 75
16
 76
0
 77
2
 78
300
147
1.0
148
0.0
149
0.0
100
AcDbLayout
  1
Layout1
 70
1
 71
1
 10
0.0
 20
0.0
 11
420.0
 21
297.0
 12
0.0
 22
0.0
 32
0.0
 14
1e+20
 24
1e+20
 34
1e+20
 15
-1e+20
 25
-1e+20
 35
-1e+20
146
0.0
 13
0.0
 23
0.0
 33
0.0
 16
1.0
 26
0.0
 36
0.0
 17
0.0
 27
1.0
 37
0.0
 76
1
330
1B
  0
MATERIAL
  5
1F
102
{ACAD_REACTORS
330
E
102
}
330
E
100
AcDbMaterial
  1
ByBlock
  2

 70
0
 40
1.0
 71
1
 41
1.0
 91
-1023410177
 42
1.0
 72
1
  3

 73
1
 74
1
 75
1
 44
0.5
 73
0
 45
1.0
 46
1.0
 77
1
  4

 78
1
 79
1
170
1
 48
1.0
171
1
  6

172
1
173
1
174
1
140
1.0
141
1.0
175
1
  7

176
1
177
1
178
1
143
1.0
179
1
  8

270
1
271
1
272
1
145
1.0
146
1.0
273
1
  9

274
1
275
1
276
1
 42
1.0
 72
1
  3

 73
1
 74
1
 75
1
 94
63
  0
MATERIAL
  5
20
102
{ACAD_REACTORS
330
E
102
}
330
E
100
AcDbMaterial
  1
ByLayer
  2

 70
0
 40
1.0
 71
1
 41
1.0
 91
-1023410177
 42
1.0
 72
1
  3

 73
1
 74
1
 75
1
 44
0.5
 73
0
 45
1.0
 46
1.0
 77
1
  4

 78
1
 79
1
170
1
 48
1.0
171
1
  6

172
1
173
1
174
1
140
1.0
141
1.0
175
1
  7

176
1
177
1
178
1
143
1.0
179
1
  8

270
1
271
1
272
1
145
1.0
146
1.0
273
1
  9

274
1
275
1
276
1
 42
1.0
 72
1
  3

 73
1
 74
1
 75
1
 94
63
  0
MATERIAL
  5
21
102
{ACAD_REACTORS
330
E
102
}
330
E
100
AcDbMaterial
  1
Global
  2

 70
0
 40
1.0
 71
1
 41
1.0
 91
-1023410177
 42
1.0
 72
1
  3

 73
1
 74
1
 75
1
 44
0.5
 73
0
 45
1.0
 46
1.0
 77
1
  4

 78
1
 79
1
170
1
 48
1.0
171
1
  6

172
1
173
1
174
1
140
1.0
141
1.0
175
1
  7

176
1
177
1
178
1
143
1.0
179
1
  8

270
1
271
1
272
1
145
1.0
146
1.0
273
1
  9

274
1
275
1
276
1
 42
1.0
 72
1
  3

 73
1
 74
1
 75
1
 94
63
  0
MLINESTYLE
  5
22
102
{ACAD_REACTORS
330
10
102
}
330
10
100
AcDbMlineStyle
  2
Standard
 70
0
  3

 62
256
 51
90.0
 52
90.0
 71
2
 49
0.5
 62
256
  6
BYLAYER
 49
-0.5
 62
256
  6
BYLAYER
  0
MLEADERSTYLE
  5
2C
102
{ACAD_REACTORS
330
F
102
}
330
F
100
AcDbMLeaderStyle
179
2
170
2
171
1
172
0
 90
2
 40
0.0
 41
0.0
173
1
 91
-1056964608
 92
-2
290
1
 42
2.0
291
1
 43
8.0
  3
Standard
 44
4.0
300

342
29
174
1
175
1
176
0
178
1
 93
-1056964608
 45
4.0
292
0
297
0
 46
4.0
 94
-1056964608
 47
1.0
 49
1.0
140
1.0
294
1
141
0.0
177
0
142
1.0
295
0
296
0
143
3.75
271
0
272
9
273
9
  0
DICTIONARY
  5
2D
330
A
100
AcDbDictionary
280
1
281
1
  3
CREATED_BY_EZDXF
350
2E
  3
WRITTEN_BY_EZDXF
350
151
  0
DICTIONARYVAR
  5
2E
330
2D
100
DictionaryVariables
280
0
  1
1.4.3 @ 2026-06-10T19:54:38.684280+00:00
  0
DICTIONARYVAR
  5
151
330
2D
100
DictionaryVariables
280
0
  1
1.4.3 @ 2026-06-10T19:54:38.694240+00:00
  0
ENDSEC
  0
EOF
