  0
SECTION
  2
HEADER
  9
$ACADVER
  1
AC1024
  9
$ACADMAINTVER
 70
6
  9
$DWGCODEPAGE
  3
ANSI_1252
  9
$LASTSAVEDBY
  1
ezdxf
  9
$INSBASE
 10
0.0
 20
0.0
 30
0.0
  9
$EXTMIN
 10
1e+20
 20
1e+20
 30
1e+20
  9
$EXTMAX
 10
-1e+20
 20
-1e+20
 30
-1e+20
  9
$LIMMIN
 10
0.0
 20
0.0
  9
$LIMMAX
 10
420.0
 20
297.0
  9
$ORTHOMODE
 70
0
  9
$REGENMODE
 70
1
  9
$FILLMODE
 70
1
  9
$QTEXTMODE
 70
0
  9
$MIRRTEXT
 70
1
  9
$LTSCALE
 40
1.0
  9
$ATTMODE
 70
1
  9
$TEXTSIZE
 40
2.5
  9
$TRACEWID
 40
1.0
  9
$TEXTSTYLE
  7
Standard
  9
$CLAYER
  8
0
  9
$CELTYPE
  6
ByLayer
  9
$CECOLOR
 62
256
  9
$CELTSCALE
 40
1.0
  9
$DISPSILH
 70
0
  9
$DIMSCALE
 40
1.0
  9
$DIMASZ
 40
2.5
  9
$DIMEXO
 40
0.625
  9
$DIMDLI
 40
3.75
  9
$DIMRND
 40
0.0
  9
$DIMDLE
 40
0.0
  9
$DIMEXE
 40
1.25
  9
$DIMTP
 40
0.0
  9
$DIMTM
 40
0.0
  9
$DIMTXT
 40
2.5
  9
$DIMCEN
 40
2.5
  9
$DIMTSZ
 40
0.0
  9
$DIMTOL
 70
0
  9
$DIMLIM
 70
0
  9
$DIMTIH
 70
0
  9
$DIMTOH
 70
0
  9
$DIMSE1
 70
0
  9
$DIMSE2
 70
0
  9
$DIMTAD
 70
1
  9
$DIMZIN
 70
8
  9
$DIMBLK
  1

  9
$DIMASO
 70
1
  9
$DIMSHO
 70
1
  9
$DIMPOST
  1

  9
$DIMAPOST
  1

  9
$DIMALT
 70
0
  9
$DIMALTD
 70
3
  9
$DIMALTF
 40
0.03937007874
  9
$DIMLFAC
 40
1.0
  9
$DIMTOFL
 70
1
  9
$DIMTVP
 40
0.0
  9
$DIMTIX
 70
0
  9
$DIMSOXD
 70
0
  9
$DIMSAH
 70
0
  9
$DIMBLK1
  1

  9
$DIMBLK2
  1

  9
$DIMSTYLE
  2
ISO-25
  9
$DIMCLRD
 70
0
  9
$DIMCLRE
 70
0
  9
$DIMCLRT
 70
0
  9
$DIMTFAC
 40
1.0
  9
$DIMGAP
 40
0.625
  9
$DIMJUST
 70
0
  9
$DIMSD1
 70
0
  9
$DIMSD2
 70
0
  9
$DIMTOLJ
 70
0
  9
$DIMTZIN
 70
8
  9
$DIMALTZ
 70
0
  9
$DIMALTTZ
 70
0
  9
$DIMUPT
 70
0
  9
$DIMDEC
 70
2
  9
$DIMTDEC
 70
2
  9
$DIMALTU
 70
2
  9
$DIMALTTD
 70
3
  9
$DIMTXSTY
  7
Standard
  9
$DIMAUNIT
 70
0
  9
$DIMADEC
 70
0
  9
$DIMALTRND
 40
0.0
  9
$DIMAZIN
 70
0
  9
$DIMDSEP
 70
44
  9
$DIMATFIT
 70
3
  9
$DIMFRAC
 70
0
  9
$DIMLDRBLK
  1

  9
$DIMLUNIT
 70
2
  9
$DIMLWD
 70
-2
  9
$DIMLWE
 70
-2
  9
$DIMTMOVE
 70
0
  9
$DIMFXL
 40
1.0
  9
$DIMFXLON
 70
0
  9
$DIMJOGANG
 40
0.785398163397
  9
$DIMTFILL
 70
0
  9
$DIMTFILLCLR
 70
0
  9
$DIMARCSYM
 70
0
  9
$DIMLTYPE
  6

  9
$DIMLTEX1
  6

  9
$DIMLTEX2
  6

  9
$DIMTXTDIRECTION
 70
0
  9
$LUNITS
 70
2
  9
$LUPREC
 70
4
  9
$SKETCHINC
 40
1.0
  9
$FILLETRAD
 40
10.0
  9
$AUNITS
 70
0
  9
$AUPREC
 70
2
  9
$MENU
  1
.
  9
$ELEVATION
 40
0.0
  9
$PELEVATION
 40
0.0
  9
$THICKNESS
 40
0.0
  9
$LIMCHECK
 70
0
  9
$CHAMFERA
 40
0.0
  9
$CHAMFERB
 40
0.0
  9
$CHAMFERC
 40
0.0
  9
$CHAMFERD
 40
0.0
  9
$SKPOLY
 70
0
  9
$TDCREATE
 40
2461202.57875
  9
$TDUCREATE
 40
2458532.153996898
  9
$TDUPDATE
 40
2461202.57875
  9
$TDUUPDATE
 40
2458532.1544311
  9
$TDINDWG
 40
0.0
  9
$TDUSRTIMER
 40
0.0
  9
$USRTIMER
 70
1
  9
$ANGBASE
 50
0.0
  9
$ANGDIR
 70
0
  9
$PDMODE
 70
0
  9
$PDSIZE
 40
0.0
  9
$PLINEWID
 40
0.0
  9
$SPLFRAME
 70
0
  9
$SPLINETYPE
 70
6
  9
$SPLINESEGS
 70
8
  9
$HANDSEED
  5
105
  9
$SURFTAB1
 70
6
  9
$SURFTAB2
 70
6
  9
$SURFTYPE
 70
6
  9
$SURFU
 70
6
  9
$SURFV
 70
6
  9
$UCSBASE
  2

  9
$UCSNAME
  2

  9
$UCSORG
 10
0.0
 20
0.0
 30
0.0
  9
$UCSXDIR
 10
1.0
 20
0.0
 30
0.0
  9
$UCSYDIR
 10
0.0
 20
1.0
 30
0.0
  9
$UCSORTHOREF
  2

  9
$UCSORTHOVIEW
 70
0
  9
$UCSORGTOP
 10
0.0
 20
0.0
 30
0.0
  9
$UCSORGBOTTOM
 10
0.0
 20
0.0
 30
0.0
  9
$UCSORGLEFT
 10
0.0
 20
0.0
 30
0.0
  9
$UCSORGRIGHT
 10
0.0
 20
0.0
 30
0.0
  9
$UCSORGFRONT
 10
0.0
 20
0.0
 30
0.0
  9
$UCSORGBACK
 10
0.0
 20
0.0
 30
0.0
  9
$PUCSBASE
  2

  9
$PUCSNAME
  2

  9
$PUCSORG
 10
0.0
 20
0.0
 30
0.0
  9
$PUCSXDIR
 10
1.0
 20
0.0
 30
0.0
  9
$PUCSYDIR
 10
0.0
 20
1.0
 30
0.0
  9
$PUCSORTHOREF
  2

  9
$PUCSORTHOVIEW
 70
0
  9
$PUCSORGTOP
 10
0.0
 20
0.0
 30
0.0
  9
$PUCSORGBOTTOM
 10
0.0
 20
0.0
 30
0.0
  9
$PUCSORGLEFT
 10
0.0
 20
0.0
 30
0.0
  9
$PUCSORGRIGHT
 10
0.0
 20
0.0
 30
0.0
  9
$PUCSORGFRONT
 10
0.0
 20
0.0
 30
0.0
  9
$PUCSORGBACK
 10
0.0
 20
0.0
 30
0.0
  9
$USERI1
 70
0
  9
$USERI2
 70
0
  9
$USERI3
 70
0
  9
$USERI4
 70
0
  9
$USERI5
 70
0
  9
$USERR1
 40
0.0
  9
$USERR2
 40
0.0
  9
$USERR3
 40
0.0
  9
$USERR4
 40
0.0
  9
$USERR5
 40
0.0
  9
$WORLDVIEW
 70
1
  9
$SHADEDGE
 70
3
  9
$SHADEDIF
 70
70
  9
$TILEMODE
 70
1
  9
$MAXACTVP
 70
64
  9
$PINSBASE
 10
0.0
 20
0.0
 30
0.0
  9
$PLIMCHECK
 70
0
  9
$PEXTMIN
 10
1e+20
 20
1e+20
 30
1e+20
  9
$PEXTMAX
 10
-1e+20
 20
-1e+20
 30
-1e+20
  9
$PLIMMIN
 10
0.0
 20
0.0
  9
$PLIMMAX
 10
420.0
 20
297.0
  9
$UNITMODE
 70
0
  9
$VISRETAIN
 70
1
  9
$PLINEGEN
 70
0
  9
$PSLTSCALE
 70
1
  9
$TREEDEPTH
 70
3020
  9
$CMLSTYLE
  2
Standard
  9
$CMLJUST
 70
0
  9
$CMLSCALE
 40
20.0
  9
$PROXYGRAPHICS
 70
1
  9
$MEASUREMENT
 70
1
  9
$CELWEIGHT
370
-1
  9
$ENDCAPS
280
0
  9
$JOINSTYLE
280
0
  9
$LWDISPLAY
290
0
  9
$INSUNITS
 70
6
  9
$HYPERLINKBASE
  1

  9
$STYLESHEET
  1

  9
$XEDIT
290
1
  9
$CEPSNTYPE
380
0
  9
$PSTYLEMODE
290
1
  9
$FINGERPRINTGUID
  2
{2FD4036E-FF5F-448A-BF18-5D78FA59CCB3}
  9
$VERSIONGUID
  2
{9965512B-C95F-4535-8361-F6006C93248B}
  9
$EXTNAMES
290
1
  9
$PSVPSCALE
 40
0.0
  9
$OLESTARTUP
290
0
  9
$SORTENTS
280
127
  9
$INDEXCTL
280
0
  9
$HIDETEXT
280
1
  9
$XCLIPFRAME
280
1
  9
$HALOGAP
280
0
  9
$OBSCOLOR
 70
257
  9
$OBSLTYPE
280
0
  9
$INTERSECTIONDISPLAY
280
0
  9
$INTERSECTIONCOLOR
 70
257
  9
$DIMASSOC
280
2
  9
$PROJECTNAME
  1

  9
$CAMERADISPLAY
290
0
  9
$LENSLENGTH
 40
50.0
  9
$CAMERAHEIGHT
 40
0.0
  9
$STEPSPERSEC
 40
24.0
  9
$STEPSIZE
 40
100.0
  9
$3DDWFPREC
 40
2.0
  9
$PSOLWIDTH
 40
0.005
  9
$PSOLHEIGHT
 40
0.08
  9
$LOFTANG1
 40
1.570796326795
  9
$LOFTANG2
 40
1.570796326795
  9
$LOFTMAG1
 40
0.0
  9
$LOFTMAG2
 40
0.0
  9
$LOFTPARAM
 70
7
  9
$LOFTNORMALS
280
1
  9
$LATITUDE
 40
37.795
  9
$LONGITUDE
 40
-122.394
  9
$NORTHDIRECTION
 40
0.0
  9
$TIMEZONE
 70
-8000
  9
$LIGHTGLYPHDISPLAY
280
1
  9
$TILEMODELIGHTSYNCH
280
1
  9
$CMATERIAL
347
20
  9
$SOLIDHIST
280
0
  9
$SHOWHIST
280
1
  9
$DWFFRAME
280
2
  9
$DGNFRAME
280
2
  9
$REALWORLDSCALE
290
1
  9
$INTERFERECOLOR
 62
256
  9
$CSHADOW
280
0
  9
$SHADOWPLANELOCATION
 40
0.0
  0
ENDSEC
  0
SECTION
  2
CLASSES
  0
CLASS
  1
ACDBDICTIONARYWDFLT
  2
AcDbDictionaryWithDefault
  3
ObjectDBX Classes
 90
0
 91
0
280
0
281
0
  0
CLASS
  1
SUN
  2
AcDbSun
  3
SCENEOE
 90
1153
 91
0
280
0
281
0
  0
CLASS
  1
VISUALSTYLE
  2
AcDbVisualStyle
  3
ObjectDBX Classes
 90
4095
 91
0
280
0
281
0
  0
CLASS
  1
MATERIAL
  2
AcDbMaterial
  3
ObjectDBX Classes
 90
1153
 91
0
280
0
281
0
  0
CLASS
  1
SCALE
  2
AcDbScale
  3
ObjectDBX Classes
 90
1153
 91
0
280
0
281
0
  0
CLASS
  1
TABLESTYLE
  2
AcDbTableStyle
  3
ObjectDBX Classes
 90
4095
 91
0
280
0
281
0
  0
CLASS
  1
MLEADERSTYLE
  2
AcDbMLeaderStyle
  3
ACDB_MLEADERSTYLE_CLASS
 90
4095
 91
0
280
0
281
0
  0
CLASS
  1
DICTIONARYVAR
  2
AcDbDictionaryVar
  3
ObjectDBX Classes
 90
0
 91
0
280
0
281
0
  0
CLASS
  1
CELLSTYLEMAP
  2
AcDbCellStyleMap
  3
ObjectDBX Classes
 90
1152
 91
0
280
0
281
0
  0
CLASS
  1
MENTALRAYRENDERSETTINGS
  2
AcDbMentalRayRenderSettings
  3
SCENEOE
 90
1024
 91
0
280
0
281
0
  0
CLASS
  1
ACDBDETAILVIEWSTYLE
  2
AcDbDetailViewStyle
  3
ObjectDBX Classes
 90
1025
 91
0
280
0
281
0
  0
CLASS
  1
ACDBSECTIONVIEWSTYLE
  2
AcDbSectionViewStyle
  3
ObjectDBX Classes
 90
1025
 91
0
280
0
281
0
  0
CLASS
  1
RASTERVARIABLES
  2
AcDbRasterVariables
  3
ISM
 90
0
 91
0
280
0
281
0
  0
CLASS
  1
LAYOUT
  2
AcDbLayout
  3
ObjectDBX Classes
 90
0
 91
0
280
0
281
0
  0
CLASS
  1
ACDBPLACEHOLDER
  2
AcDbPlaceHolder
  3
ObjectDBX Classes
 90
0
 91
0
280
0
281
0
  0
ENDSEC
  0
SECTION
  2
TABLES
  0
TABLE
  2
VPORT
  5
8
330
0
100
AcDbSymbolTable
 70
1
  0
VPORT
  5
23
330
8
100
AcDbSymbolTableRecord
100
AcDbViewportTableRecord
  2
*Active
 70
0
 10
0.0
 20
0.0
 11
1.0
 21
1.0
 12
0.0
 22
0.0
 13
0.0
 23
0.0
 14
0.5
 24
0.5
 15
0.5
 25
0.5
 16
0.0
 26
0.0
 36
1.0
 17
0.0
 27
0.0
 37
0.0
 40
1000.0
 41
1.34
 42
50.0
 43
0.0
 44
0.0
 50
0.0
 51
0.0
 71
0
 72
1000
 73
1
 74
3
 75
0
 76
0
 77
0
 78
0
281
0
 65
0
146
0.0
  0
ENDTAB
  0
TABLE
  2
LTYPE
  5
2
330
0
100
AcDbSymbolTable
 70
3
  0
LTYPE
  5
24
330
2
100
AcDbSymbolTableRecord
100
AcDbLinetypeTableRecord
  2
ByBlock
 70
0
  3

 72
65
 73
0
 40
0.0
  0
LTYPE
  5
25
330
2
100
AcDbSymbolTableRecord
100
AcDbLinetypeTableRecord
  2
ByLayer
 70
0
  3

 72
65
 73
0
 40
0.0
  0
LTYPE
  5
26
330
2
100
AcDbSymbolTableRecord
100
AcDbLinetypeTableRecord
  2
Continuous
 70
0
  3

 72
65
 73
0
 40
0.0
  0
ENDTAB
  0
TABLE
  2
LAYER
  5
1
330
0
100
AcDbSymbolTable
 70
14
  0
LAYER
  5
27
330
1
100
AcDbSymbolTableRecord
100
AcDbLayerTableRecord
  2
0
 70
0
 62
7
  6
Continuous
370
-3
390
13
347
21
  0
LAYER
  5
28
330
1
100
AcDbSymbolTableRecord
100
AcDbLayerTableRecord
  2
Defpoints
 70
0
 62
7
  6
Continuous
290
0
370
-3
390
13
347
21
  0
LAYER
  5
2F
330
1
100
AcDbSymbolTableRecord
100
AcDbLayerTableRecord
  2
SARR_EDITAR
 70
0
 62
7
  6
Continuous
370
-3
390
13
347
21
  0
LAYER
  5
30
330
1
100
AcDbSymbolTableRecord
100
AcDbLayerTableRecord
  2
COTA
 70
0
 62
7
  6
Continuous
370
-3
390
13
347
21
  0
LAYER
  5
31
330
1
100
AcDbSymbolTableRecord
100
AcDbLayerTableRecord
  2
Hachura
 70
0
 62
7
  6
Continuous
370
-3
390
13
347
21
  0
LAYER
  5
32
330
1
100
AcDbSymbolTableRecord
100
AcDbLayerTableRecord
  2
detalhes
 70
0
 62
7
  6
Continuous
370
-3
390
13
347
21
  0
LAYER
  5
33
330
1
100
AcDbSymbolTableRecord
100
AcDbLayerTableRecord
  2
Painéis
 70
0
 62
7
  6
Continuous
370
-3
390
13
347
21
  0
LAYER
  5
34
330
1
100
AcDbSymbolTableRecord
100
AcDbLayerTableRecord
  2
Madeira
 70
0
 62
7
  6
Continuous
370
-3
390
13
347
21
  0
LAYER
  5
35
330
1
100
AcDbSymbolTableRecord
100
AcDbLayerTableRecord
  2
SARR_2.2x7
 70
0
 62
7
  6
Continuous
370
-3
390
13
347
21
  0
LAYER
  5
36
330
1
100
AcDbSymbolTableRecord
100
AcDbLayerTableRecord
  2
SARR_3.5x7
 70
0
 62
7
  6
Continuous
370
-3
390
13
347
21
  0
LAYER
  5
37
330
1
100
AcDbSymbolTableRecord
100
AcDbLayerTableRecord
  2
CONCRETO
 70
0
 62
7
  6
Continuous
370
-3
390
13
347
21
  0
LAYER
  5
38
330
1
100
AcDbSymbolTableRecord
100
AcDbLayerTableRecord
  2
5
 70
0
 62
7
  6
Continuous
370
-3
390
13
347
21
  0
LAYER
  5
39
330
1
100
AcDbSymbolTableRecord
100
AcDbLayerTableRecord
  2
REAPROVEITAMENTO
 70
0
 62
7
  6
Continuous
370
-3
390
13
347
21
  0
LAYER
  5
3A
330
1
100
AcDbSymbolTableRecord
100
AcDbLayerTableRecord
  2
Texto Seção
 70
0
 62
7
  6
Continuous
370
-3
390
13
347
21
  0
ENDTAB
  0
TABLE
  2
STYLE
  5
5
330
0
100
AcDbSymbolTable
 70
1
  0
STYLE
  5
29
330
5
100
AcDbSymbolTableRecord
100
AcDbTextStyleTableRecord
  2
Standard
 70
0
 40
0.0
 41
1.0
 50
0.0
 71
0
 42
2.5
  3
txt
  4

  0
ENDTAB
  0
TABLE
  2
VIEW
  5
7
330
0
100
AcDbSymbolTable
 70
0
  0
ENDTAB
  0
TABLE
  2
UCS
  5
6
330
0
100
AcDbSymbolTable
 70
0
  0
ENDTAB
  0
TABLE
  2
APPID
  5
3
330
0
100
AcDbSymbolTable
 70
3
  0
APPID
  5
2A
330
3
100
AcDbSymbolTableRecord
100
AcDbRegAppTableRecord
  2
ACAD
 70
0
  0
APPID
  5
102
330
3
100
AcDbSymbolTableRecord
100
AcDbRegAppTableRecord
  2
HATCHBACKGROUNDCOLOR
 70
0
  0
APPID
  5
103
330
3
100
AcDbSymbolTableRecord
100
AcDbRegAppTableRecord
  2
EZDXF
 70
0
  0
ENDTAB
  0
TABLE
  2
DIMSTYLE
  5
4
330
0
100
AcDbSymbolTable
 70
1
100
AcDbDimStyleTable
  0
DIMSTYLE
105
2B
330
4
100
AcDbSymbolTableRecord
100
AcDbDimStyleTableRecord
  2
Standard
 70
0
 40
1.0
 41
2.5
 42
0.625
 43
3.75
 44
1.25
 45
0.0
 46
0.0
 47
0.0
 48
0.0
 49
2.5
140
2.5
141
2.5
142
0.0
143
0.03937007874
144
1.0
145
0.0
146
1.0
147
0.625
148
0.0
 69
0
 70
0
 71
0
 72
0
 73
0
 74
0
 75
0
 76
0
 77
1
 78
8
 79
3
170
0
171
3
172
1
173
0
174
0
175
0
176
0
177
0
178
0
179
2
271
2
272
2
273
2
274
3
275
0
276
0
277
2
278
44
279
0
280
0
281
0
282
0
283
0
284
8
285
0
286
0
288
0
289
3
290
0
371
-2
372
-2
  0
ENDTAB
  0
TABLE
  2
BLOCK_RECORD
  5
9
330
0
100
AcDbSymbolTable
 70
2
  0
BLOCK_RECORD
  5
17
330
9
100
AcDbSymbolTableRecord
100
AcDbBlockTableRecord
  2
*Model_Space
340
1A
 70
0
280
1
281
0
  0
BLOCK_RECORD
  5
1B
330
9
100
AcDbSymbolTableRecord
100
AcDbBlockTableRecord
  2
*Paper_Space
340
1E
 70
0
280
1
281
0
  0
ENDTAB
  0
ENDSEC
  0
SECTION
  2
BLOCKS
  0
BLOCK
  5
18
330
17
100
AcDbEntity
  8
0
100
AcDbBlockBegin
  2
*Model_Space
 70
0
 10
0.0
 20
0.0
 30
0.0
  3
*Model_Space
  1

  0
ENDBLK
  5
19
330
17
100
AcDbEntity
  8
0
100
AcDbBlockEnd
  0
BLOCK
  5
1C
330
1B
100
AcDbEntity
  8
0
100
AcDbBlockBegin
  2
*Paper_Space
 70
0
 10
0.0
 20
0.0
 30
0.0
  3
*Paper_Space
  1

  0
ENDBLK
  5
1D
330
1B
100
AcDbEntity
  8
0
100
AcDbBlockEnd
  0
ENDSEC
  0
SECTION
  2
ENTITIES
  0
LINE
  5
3B
330
17
100
AcDbEntity
  8
Defpoints
 62
7
370
25
100
AcDbLine
 10
7038.206173970093
 20
3603.520692852865
 30
0.0
 11
7038.206173970093
 21
3728.520692852865
 31
0.0
  0
LINE
  5
3C
330
17
100
AcDbEntity
  8
SARR_2.2x7
 62
7
370
25
100
AcDbLine
 10
6835.663737958014
 20
3357.073589742351
 30
0.0
 11
7072.708878717202
 21
3357.073589742368
 31
0.0
  0
LINE
  5
3D
330
17
100
AcDbEntity
  8
SARR_2.2x7
 62
7
370
25
100
AcDbLine
 10
7072.708878717202
 20
3357.073589742368
 30
0.0
 11
7236.754019476392
 21
3357.073589742105
 31
0.0
  0
LINE
  5
3E
330
17
100
AcDbEntity
  8
Painéis
 62
7
370
25
100
AcDbLine
 10
6828.708878717198
 20
3364.073589742258
 30
0.0
 11
7243.708878717201
 21
3364.073589742283
 31
0.0
  0
LINE
  5
3F
330
17
100
AcDbEntity
  8
Painéis
 62
7
370
25
100
AcDbLine
 10
6828.708878717201
 20
3320.073589742257
 30
0.0
 11
7243.708878717201
 21
3320.073589742283
 31
0.0
  0
LINE
  5
40
330
17
100
AcDbEntity
  8
Painéis
 62
7
370
25
100
AcDbLine
 10
7243.708878717201
 20
3320.073589742283
 30
0.0
 11
7243.708878717201
 21
3364.073589742283
 31
0.0
  0
LINE
  5
41
330
17
100
AcDbEntity
  8
Painéis
 62
7
370
25
100
AcDbLine
 10
6828.708878717201
 20
3320.073589742257
 30
0.0
 11
6828.708878717201
 21
3364.073589742258
 31
0.0
  0
LINE
  5
42
330
17
100
AcDbEntity
  8
SARR_2.2x7
 62
7
370
25
100
AcDbLine
 10
6835.663737958019
 20
3320.073589742254
 30
0.0
 11
6835.663737958014
 21
3364.073589742258
 31
0.0
  0
LINE
  5
43
330
17
100
AcDbEntity
  8
SARR_2.2x7
 62
7
370
25
100
AcDbLine
 10
7236.754019476387
 20
3320.07358974228
 30
0.0
 11
7236.754019476392
 21
3364.073589742258
 31
0.0
  0
LINE
  5
44
330
17
100
AcDbEntity
  8
Painéis
 62
7
370
25
100
AcDbLine
 10
7072.708878717202
 20
3320.073589742272
 30
0.0
 11
7072.708878717202
 21
3364.073589742272
 31
0.0
  0
LINE
  5
45
330
17
100
AcDbEntity
  8
COTA
 62
7
370
25
100
AcDbLine
 10
6828.708878717198
 20
3364.073589742258
 30
0.0
 11
6828.708878717198
 21
3377.073589742258
 31
0.0
  0
LINE
  5
46
330
17
100
AcDbEntity
  8
COTA
 62
7
370
25
100
AcDbLine
 10
7243.708878717199
 20
3379.073589742257
 30
0.0
 11
7243.708878717199
 21
3364.073589742283
 31
0.0
  0
LINE
  5
47
330
17
100
AcDbEntity
  8
SARR_2.2x7
 62
7
370
25
100
AcDbLine
 10
6949.708878717202
 20
3327.073589742178
 30
0.0
 11
7072.708878717202
 21
3327.073589742168
 31
0.0
  0
LINE
  5
48
330
17
100
AcDbEntity
  8
SARR_2.2x7
 62
7
370
25
100
AcDbLine
 10
7072.708878717202
 20
3327.073589742168
 30
0.0
 11
7236.754019476392
 21
3327.073589742433
 31
0.0
  0
LINE
  5
49
330
17
100
AcDbEntity
  8
COTA
 62
7
370
25
100
AcDbLine
 10
7243.708878717199
 20
3379.073589742257
 30
0.0
 11
7024.708878717198
 21
3379.073589742257
 31
0.0
  0
LINE
  5
4A
330
17
100
AcDbEntity
  8
SARR_EDITAR
 62
7
370
25
100
AcDbLine
 10
7024.708878717198
 20
3378.073589742257
 30
0.0
 11
6828.708878717198
 21
3378.073589742257
 31
0.0
  0
LINE
  5
4B
330
17
100
AcDbEntity
  8
SARR_2.2x7
 62
7
370
25
100
AcDbLine
 10
7265.624911233442
 20
3353.073589742351
 30
0.0
 11
7294.170051992629
 21
3353.073589742368
 31
0.0
  0
LINE
  5
4C
330
17
100
AcDbEntity
  8
SARR_2.2x7
 62
7
370
25
100
AcDbLine
 10
7294.170051992629
 20
3353.073589742368
 30
0.0
 11
7322.715192751819
 21
3353.073589742105
 31
0.0
  0
LINE
  5
4D
330
17
100
AcDbEntity
  8
Painéis
 62
7
370
25
100
AcDbLine
 10
7258.670051992625
 20
3360.073589742258
 30
0.0
 11
7329.670051992628
 21
3360.073589742283
 31
0.0
  0
LINE
  5
4E
330
17
100
AcDbEntity
  8
Painéis
 62
7
370
25
100
AcDbLine
 10
7258.67005199263
 20
3320.073589742257
 30
0.0
 11
7329.670051992628
 21
3320.073589742283
 31
0.0
  0
LINE
  5
4F
330
17
100
AcDbEntity
  8
Painéis
 62
7
370
25
100
AcDbLine
 10
7329.670051992628
 20
3320.073589742283
 30
0.0
 11
7329.670051992628
 21
3360.073589742283
 31
0.0
  0
LINE
  5
50
330
17
100
AcDbEntity
  8
Painéis
 62
7
370
25
100
AcDbLine
 10
7258.67005199263
 20
3320.073589742257
 30
0.0
 11
7258.67005199263
 21
3360.073589742258
 31
0.0
  0
LINE
  5
51
330
17
100
AcDbEntity
  8
SARR_2.2x7
 62
7
370
25
100
AcDbLine
 10
7265.624911233446
 20
3320.073589742254
 30
0.0
 11
7265.624911233442
 21
3360.073589742258
 31
0.0
  0
LINE
  5
52
330
17
100
AcDbEntity
  8
SARR_2.2x7
 62
7
370
25
100
AcDbLine
 10
7322.715192751815
 20
3320.07358974228
 30
0.0
 11
7322.715192751819
 21
3360.073589742258
 31
0.0
  0
LINE
  5
53
330
17
100
AcDbEntity
  8
Painéis
 62
7
370
25
100
AcDbLine
 10
7294.170051992629
 20
3320.073589742272
 30
0.0
 11
7294.170051992629
 21
3360.073589742273
 31
0.0
  0
LINE
  5
54
330
17
100
AcDbEntity
  8
COTA
 62
7
370
25
100
AcDbLine
 10
7258.670051992625
 20
3360.073589742258
 30
0.0
 11
7258.670051992625
 21
3372.073589742257
 31
0.0
  0
LINE
  5
55
330
17
100
AcDbEntity
  8
COTA
 62
7
370
25
100
AcDbLine
 10
7329.670051992626
 20
3372.073589742257
 30
0.0
 11
7329.670051992626
 21
3360.073589742283
 31
0.0
  0
LINE
  5
56
330
17
100
AcDbEntity
  8
SARR_2.2x7
 62
7
370
25
100
AcDbLine
 10
7265.624911233442
 20
3327.073589742187
 30
0.0
 11
7294.170051992629
 21
3327.073589742168
 31
0.0
  0
LINE
  5
57
330
17
100
AcDbEntity
  8
SARR_2.2x7
 62
7
370
25
100
AcDbLine
 10
7294.170051992629
 20
3327.073589742168
 30
0.0
 11
7322.715192751819
 21
3327.073589742433
 31
0.0
  0
LINE
  5
58
330
17
100
AcDbEntity
  8
COTA
 62
7
370
25
100
AcDbLine
 10
7329.670051992626
 20
3372.073589742257
 30
0.0
 11
7258.670051992625
 21
3372.073589742257
 31
0.0
  0
LINE
  5
59
330
17
100
AcDbEntity
  8
SARR_2.2x7
 62
7
370
25
100
AcDbLine
 10
6949.708878717202
 20
3339.073589742194
 30
0.0
 11
7072.708878717202
 21
3339.073589742096
 31
0.0
  0
LINE
  5
5A
330
17
100
AcDbEntity
  8
SARR_2.2x7
 62
7
370
25
100
AcDbLine
 10
6949.708878717202
 20
3346.073589741892
 30
0.0
 11
7072.708878717202
 21
3346.073589741794
 31
0.0
  0
LINE
  5
5B
330
17
100
AcDbEntity
  8
SARR_2.2x7
 62
7
370
25
100
AcDbLine
 10
7072.708878717202
 20
3339.073589742302
 30
0.0
 11
7236.754019476387
 21
3339.073589742167
 31
0.0
  0
LINE
  5
5C
330
17
100
AcDbEntity
  8
SARR_2.2x7
 62
7
370
25
100
AcDbLine
 10
7072.708878717202
 20
3346.073589742
 30
0.0
 11
7236.754019476387
 21
3346.073589741865
 31
0.0
  0
LINE
  5
5D
330
17
100
AcDbEntity
  8
SARR_2.2x7
 62
7
370
25
100
AcDbLine
 10
7265.624911233446
 20
3340.073589742285
 30
0.0
 11
7294.170051992629
 21
3340.073589742262
 31
0.0
  0
LINE
  5
5E
330
17
100
AcDbEntity
  8
SARR_2.2x7
 62
7
370
25
100
AcDbLine
 10
7265.624911233446
 20
3347.073589741983
 30
0.0
 11
7294.170051992629
 21
3347.073589741961
 31
0.0
  0
LINE
  5
5F
330
17
100
AcDbEntity
  8
SARR_2.2x7
 62
7
370
25
100
AcDbLine
 10
7294.170051992629
 20
3340.073589742301
 30
0.0
 11
7322.715192751815
 21
3340.073589742278
 31
0.0
  0
LINE
  5
60
330
17
100
AcDbEntity
  8
SARR_2.2x7
 62
7
370
25
100
AcDbLine
 10
7294.170051992629
 20
3347.073589741999
 30
0.0
 11
7322.715192751815
 21
3347.073589741976
 31
0.0
  0
LINE
  5
61
330
17
100
AcDbEntity
  8
SARR_2.2x7
 62
7
370
25
100
AcDbLine
 10
6949.708878717202
 20
3346.073589741892
 30
0.0
 11
6949.708878717202
 21
3339.073589742195
 31
0.0
  0
LINE
  5
62
330
17
100
AcDbEntity
  8
SARR_2.2x7
 62
7
370
25
100
AcDbLine
 10
6949.708878717202
 20
3327.073589742177
 30
0.0
 11
6949.708878717202
 21
3320.073589742265
 31
0.0
  0
LINE
  5
63
330
17
100
AcDbEntity
  8
SARR_2.2x7
 62
7
370
25
100
AcDbLine
 10
6805.53301684006
 20
3127.744256480789
 30
0.0
 11
7042.578157599243
 21
3127.744256480808
 31
0.0
  0
LINE
  5
64
330
17
100
AcDbEntity
  8
SARR_2.2x7
 62
7
370
25
100
AcDbLine
 10
7042.578157599243
 20
3127.744256480808
 30
0.0
 11
7253.578157599243
 21
3127.744256480534
 31
0.0
  0
LINE
  5
65
330
17
100
AcDbEntity
  8
Painéis
 62
7
370
25
100
AcDbLine
 10
6798.578157599242
 20
3134.744256480696
 30
0.0
 11
7253.578157599243
 21
3134.744256480722
 31
0.0
  0
LINE
  5
66
330
17
100
AcDbEntity
  8
Painéis
 62
7
370
25
100
AcDbLine
 10
6798.578157599246
 20
3089.744256480696
 30
0.0
 11
7253.578157599246
 21
3089.744256480722
 31
0.0
  0
LINE
  5
67
330
17
100
AcDbEntity
  8
Painéis
 62
7
370
25
100
AcDbLine
 10
7253.578157599246
 20
3089.744256480722
 30
0.0
 11
7253.578157599243
 21
3134.744256480722
 31
0.0
  0
LINE
  5
68
330
17
100
AcDbEntity
  8
Painéis
 62
7
370
25
100
AcDbLine
 10
6798.578157599246
 20
3089.744256480696
 30
0.0
 11
6798.578157599242
 21
3134.744256480696
 31
0.0
  0
LINE
  5
69
330
17
100
AcDbEntity
  8
SARR_2.2x7
 62
7
370
25
100
AcDbLine
 10
6805.53301684006
 20
3089.744256480693
 30
0.0
 11
6805.53301684006
 21
3134.744256480696
 31
0.0
  0
LINE
  5
6A
330
17
100
AcDbEntity
  8
Painéis
 62
7
370
25
100
AcDbLine
 10
7042.578157599246
 20
3089.744256480711
 30
0.0
 11
7042.578157599243
 21
3134.744256480711
 31
0.0
  0
LINE
  5
6B
330
17
100
AcDbEntity
  8
COTA
 62
7
370
25
100
AcDbLine
 10
6798.578157599242
 20
3134.744256480696
 30
0.0
 11
6798.578157599242
 21
3148.744256480696
 31
0.0
  0
LINE
  5
6C
330
17
100
AcDbEntity
  8
COTA
 62
7
370
25
100
AcDbLine
 10
7253.578157599243
 20
3148.744256480696
 30
0.0
 11
7253.578157599243
 21
3134.744256480722
 31
0.0
  0
LINE
  5
6D
330
17
100
AcDbEntity
  8
SARR_2.2x7
 62
7
370
25
100
AcDbLine
 10
6805.53301684006
 20
3096.744256480625
 30
0.0
 11
7042.578157599243
 21
3096.744256480607
 31
0.0
  0
LINE
  5
6E
330
17
100
AcDbEntity
  8
SARR_2.2x7
 62
7
370
25
100
AcDbLine
 10
7042.578157599243
 20
3096.744256480607
 30
0.0
 11
7177.578157599242
 21
3096.744256480782
 31
0.0
  0
LINE
  5
6F
330
17
100
AcDbEntity
  8
COTA
 62
7
370
25
100
AcDbLine
 10
7253.578157599243
 20
3148.744256480696
 30
0.0
 11
6798.578157599242
 21
3148.744256480696
 31
0.0
  0
LINE
  5
70
330
17
100
AcDbEntity
  8
SARR_2.2x7
 62
7
370
25
100
AcDbLine
 10
7281.934115834642
 20
3127.744256480793
 30
0.0
 11
7317.024397353015
 21
3127.744256480828
 31
0.0
  0
LINE
  5
71
330
17
100
AcDbEntity
  8
Painéis
 62
7
370
25
100
AcDbLine
 10
7274.979256593825
 20
3134.7442564807
 30
0.0
 11
7323.979256593824
 21
3134.744256480725
 31
0.0
  0
LINE
  5
72
330
17
100
AcDbEntity
  8
Painéis
 62
7
370
25
100
AcDbLine
 10
7274.979256593832
 20
3089.7442564807
 30
0.0
 11
7323.979256593831
 21
3089.744256480726
 31
0.0
  0
LINE
  5
73
330
17
100
AcDbEntity
  8
Painéis
 62
7
370
25
100
AcDbLine
 10
7323.979256593831
 20
3089.744256480726
 30
0.0
 11
7323.979256593824
 21
3134.744256480725
 31
0.0
  0
LINE
  5
74
330
17
100
AcDbEntity
  8
Painéis
 62
7
370
25
100
AcDbLine
 10
7274.979256593832
 20
3089.7442564807
 30
0.0
 11
7274.979256593825
 21
3134.7442564807
 31
0.0
  0
LINE
  5
75
330
17
100
AcDbEntity
  8
SARR_2.2x7
 62
7
370
25
100
AcDbLine
 10
7281.934115834644
 20
3089.744256480696
 30
0.0
 11
7281.934115834642
 21
3134.7442564807
 31
0.0
  0
LINE
  5
76
330
17
100
AcDbEntity
  8
SARR_2.2x7
 62
7
370
25
100
AcDbLine
 10
7317.024397353015
 20
3089.744256480722
 30
0.0
 11
7317.024397353018
 21
3134.7442564807
 31
0.0
  0
LINE
  5
77
330
17
100
AcDbEntity
  8
COTA
 62
7
370
25
100
AcDbLine
 10
7274.979256593825
 20
3134.7442564807
 30
0.0
 11
7274.979256593825
 21
3148.7442564807
 31
0.0
  0
LINE
  5
78
330
17
100
AcDbEntity
  8
COTA
 62
7
370
25
100
AcDbLine
 10
7323.979256593824
 20
3148.7442564807
 30
0.0
 11
7323.979256593824
 21
3134.744256480725
 31
0.0
  0
LINE
  5
79
330
17
100
AcDbEntity
  8
SARR_2.2x7
 62
7
370
25
100
AcDbLine
 10
7281.934115834642
 20
3096.744256480629
 30
0.0
 11
7317.024397353015
 21
3096.744256480592
 31
0.0
  0
LINE
  5
7A
330
17
100
AcDbEntity
  8
COTA
 62
7
370
25
100
AcDbLine
 10
7323.979256593824
 20
3148.7442564807
 30
0.0
 11
7274.979256593825
 21
3148.7442564807
 31
0.0
  0
LINE
  5
7B
330
17
100
AcDbEntity
  8
SARR_2.2x7
 62
7
370
25
100
AcDbLine
 10
6805.53301684006
 20
3108.744256480723
 30
0.0
 11
7042.578157599243
 21
3108.744256480534
 31
0.0
  0
LINE
  5
7C
330
17
100
AcDbEntity
  8
SARR_2.2x7
 62
7
370
25
100
AcDbLine
 10
6805.53301684006
 20
3115.744256480422
 30
0.0
 11
7042.578157599243
 21
3115.744256480232
 31
0.0
  0
LINE
  5
7D
330
17
100
AcDbEntity
  8
SARR_2.2x7
 62
7
370
25
100
AcDbLine
 10
7042.578157599243
 20
3108.744256480534
 30
0.0
 11
7177.578157599242
 21
3108.744256480427
 31
0.0
  0
LINE
  5
7E
330
17
100
AcDbEntity
  8
SARR_2.2x7
 62
7
370
25
100
AcDbLine
 10
7042.578157599243
 20
3115.744256480232
 30
0.0
 11
7177.578157599246
 21
3115.744256480124
 31
0.0
  0
LINE
  5
7F
330
17
100
AcDbEntity
  8
SARR_2.2x7
 62
7
370
25
100
AcDbLine
 10
7281.934115834642
 20
3108.744256480727
 30
0.0
 11
7317.024397353015
 21
3108.7442564807
 31
0.0
  0
LINE
  5
80
330
17
100
AcDbEntity
  8
SARR_2.2x7
 62
7
370
25
100
AcDbLine
 10
7281.934115834642
 20
3115.744256480426
 30
0.0
 11
7317.024397353015
 21
3115.744256480397
 31
0.0
  0
LINE
  5
81
330
17
100
AcDbEntity
  8
SARR_2.2x7
 62
7
370
25
100
AcDbLine
 10
7177.578157599242
 20
3089.968132551974
 30
0.0
 11
7177.578157599242
 21
3096.744256480782
 31
0.0
  0
LINE
  5
82
330
17
100
AcDbEntity
  8
SARR_2.2x7
 62
7
370
25
100
AcDbLine
 10
7177.578157599242
 20
3108.744256480426
 30
0.0
 11
7177.578157599246
 21
3115.744256480124
 31
0.0
  0
LINE
  5
83
330
17
100
AcDbEntity
  8
SARR_2.2x7
 62
7
370
25
100
AcDbLine
 10
7329.670051992626
 20
3375.573589742228
 30
0.0
 11
7258.670051992625
 21
3375.573589742235
 31
0.0
  0
LINE
  5
84
330
17
100
AcDbEntity
  8
Defpoints
 62
7
370
25
100
AcDbLine
 10
7700.673618962652
 20
3603.520692852858
 30
0.0
 11
7700.673618962652
 21
3728.520692852858
 31
0.0
  0
LINE
  5
85
330
17
100
AcDbEntity
  8
COTA
 62
7
370
25
100
AcDbLine
 10
7527.821473302299
 20
3376.023170319977
 30
0.0
 11
7527.821473302299
 21
3390.023170319977
 31
0.0
  0
LINE
  5
86
330
17
100
AcDbEntity
  8
COTA
 62
7
370
25
100
AcDbLine
 10
7527.821473302299
 20
3390.023170319977
 30
0.0
 11
7982.821473302303
 21
3390.023170319977
 31
0.0
  0
LINE
  5
87
330
17
100
AcDbEntity
  8
COTA
 62
7
370
25
100
AcDbLine
 10
7982.821473302303
 20
3376.023170319977
 30
0.0
 11
7982.821473302303
 21
3390.023170319977
 31
0.0
  0
LINE
  5
88
330
17
100
AcDbEntity
  8
Painéis
 62
7
370
25
100
AcDbLine
 10
7527.821473302299
 20
3376.023170319977
 30
0.0
 11
7982.821473302303
 21
3376.023170319977
 31
0.0
  0
LINE
  5
89
330
17
100
AcDbEntity
  8
Painéis
 62
7
370
25
100
AcDbLine
 10
7527.821473302299
 20
3336.023170319976
 30
0.0
 11
7982.821473302303
 21
3336.023170319976
 31
0.0
  0
LINE
  5
8A
330
17
100
AcDbEntity
  8
Painéis
 62
7
370
25
100
AcDbLine
 10
7527.821473302299
 20
3336.023170319976
 30
0.0
 11
7527.821473302299
 21
3376.023170319977
 31
0.0
  0
LINE
  5
8B
330
17
100
AcDbEntity
  8
Painéis
 62
7
370
25
100
AcDbLine
 10
7738.821473302303
 20
3336.023170319976
 30
0.0
 11
7738.821473302303
 21
3376.023170319977
 31
0.0
  0
LINE
  5
8C
330
17
100
AcDbEntity
  8
Painéis
 62
7
370
25
100
AcDbLine
 10
7982.821473302303
 20
3336.023170319976
 30
0.0
 11
7982.821473302303
 21
3376.023170319977
 31
0.0
  0
LINE
  5
8D
330
17
100
AcDbEntity
  8
Painéis
 62
7
370
25
100
AcDbLine
 10
7527.821473302299
 20
3172.477428774203
 30
0.0
 11
7787.821473302303
 21
3172.477428774203
 31
0.0
  0
LINE
  5
8E
330
17
100
AcDbEntity
  8
Painéis
 62
7
370
25
100
AcDbLine
 10
7527.821473302299
 20
3118.477428774203
 30
0.0
 11
7787.821473302303
 21
3118.477428774203
 31
0.0
  0
LINE
  5
8F
330
17
100
AcDbEntity
  8
Painéis
 62
7
370
25
100
AcDbLine
 10
7527.821473302299
 20
3118.477428774203
 30
0.0
 11
7527.821473302299
 21
3172.477428774203
 31
0.0
  0
LINE
  5
90
330
17
100
AcDbEntity
  8
Painéis
 62
7
370
25
100
AcDbLine
 10
7665.821473302303
 20
3118.477428774203
 30
0.0
 11
7665.821473302303
 21
3172.477428774203
 31
0.0
  0
LINE
  5
91
330
17
100
AcDbEntity
  8
Painéis
 62
7
370
25
100
AcDbLine
 10
7787.821473302303
 20
3118.477428774203
 30
0.0
 11
7787.821473302303
 21
3172.477428774203
 31
0.0
  0
LINE
  5
92
330
17
100
AcDbEntity
  8
SARR_2.2x7
 62
7
370
25
100
AcDbLine
 10
7534.821473302296
 20
3336.023170319976
 30
0.0
 11
7534.821473302296
 21
3376.023170319977
 31
0.0
  0
LINE
  5
93
330
17
100
AcDbEntity
  8
SARR_2.2x7
 62
7
370
25
100
AcDbLine
 10
7534.821473302296
 20
3118.477428774203
 30
0.0
 11
7534.8214733023
 21
3172.477428774203
 31
0.0
  0
LINE
  5
94
330
17
100
AcDbEntity
  8
SARR_2.2x7
 62
7
370
25
100
AcDbLine
 10
7975.821473302303
 20
3336.023170319976
 30
0.0
 11
7975.821473302303
 21
3376.023170319977
 31
0.0
  0
LINE
  5
95
330
17
100
AcDbEntity
  8
SARR_2.2x7
 62
7
370
25
100
AcDbLine
 10
7780.821473302303
 20
3118.477428774201
 30
0.0
 11
7780.821473302303
 21
3172.477428774203
 31
0.0
  0
LINE
  5
96
330
17
100
AcDbEntity
  8
SARR_2.2x7
 62
7
370
25
100
AcDbLine
 10
7534.821473302296
 20
3369.023170319977
 30
0.0
 11
7975.821473302303
 21
3369.023170319977
 31
0.0
  0
LINE
  5
97
330
17
100
AcDbEntity
  8
SARR_2.2x7
 62
7
370
25
100
AcDbLine
 10
7534.821473302296
 20
3343.023170319976
 30
0.0
 11
7975.821473302303
 21
3343.023170319976
 31
0.0
  0
LINE
  5
98
330
17
100
AcDbEntity
  8
SARR_2.2x7
 62
7
370
25
100
AcDbLine
 10
7534.8214733023
 20
3165.477428774296
 30
0.0
 11
7665.821473302303
 21
3165.477428774306
 31
0.0
  0
LINE
  5
99
330
17
100
AcDbEntity
  8
SARR_2.2x7
 62
7
370
25
100
AcDbLine
 10
7534.821473302279
 20
3142.259304257749
 30
0.0
 11
7665.821473302303
 21
3142.25930425776
 31
0.0
  0
LINE
  5
9A
330
17
100
AcDbEntity
  8
SARR_2.2x7
 62
7
370
25
100
AcDbLine
 10
7534.821473302303
 20
3149.259304257447
 30
0.0
 11
7665.821473302303
 21
3149.259304257463
 31
0.0
  0
LINE
  5
9B
330
17
100
AcDbEntity
  8
SARR_2.2x7
 62
7
370
25
100
AcDbLine
 10
7534.8214733023
 20
3125.47742877411
 30
0.0
 11
7665.821473302303
 21
3125.477428774099
 31
0.0
  0
LINE
  5
9C
330
17
100
AcDbEntity
  8
SARR_2.2x7
 62
7
370
25
100
AcDbLine
 10
7665.821473302303
 20
3165.47742877429
 30
0.0
 11
7780.821473302303
 21
3165.477428774301
 31
0.0
  0
LINE
  5
9D
330
17
100
AcDbEntity
  8
SARR_2.2x7
 62
7
370
25
100
AcDbLine
 10
7665.821473302303
 20
3142.259304257744
 30
0.0
 11
7780.821473302303
 21
3142.259304257754
 31
0.0
  0
LINE
  5
9E
330
17
100
AcDbEntity
  8
SARR_2.2x7
 62
7
370
25
100
AcDbLine
 10
7665.821473302303
 20
3149.25930425744
 30
0.0
 11
7780.821473302303
 21
3149.259304257454
 31
0.0
  0
LINE
  5
9F
330
17
100
AcDbEntity
  8
SARR_2.2x7
 62
7
370
25
100
AcDbLine
 10
7665.821473302303
 20
3125.477428774118
 30
0.0
 11
7780.821473302303
 21
3125.477428774108
 31
0.0
  0
LINE
  5
A0
330
17
100
AcDbEntity
  8
SARR_2.2x7
 62
7
370
25
100
AcDbLine
 10
7534.821473302296
 20
3352.523170320005
 30
0.0
 11
7738.821473302303
 21
3352.523170319842
 31
0.0
  0
LINE
  5
A1
330
17
100
AcDbEntity
  8
SARR_2.2x7
 62
7
370
25
100
AcDbLine
 10
7534.821473302296
 20
3359.523170319703
 30
0.0
 11
7738.821473302303
 21
3359.52317031954
 31
0.0
  0
LINE
  5
A2
330
17
100
AcDbEntity
  8
SARR_2.2x7
 62
7
370
25
100
AcDbLine
 10
7738.821473302303
 20
3352.523170320005
 30
0.0
 11
7975.821473302303
 21
3352.523170319816
 31
0.0
  0
LINE
  5
A3
330
17
100
AcDbEntity
  8
SARR_2.2x7
 62
7
370
25
100
AcDbLine
 10
7738.821473302303
 20
3359.523170319703
 30
0.0
 11
7975.821473302303
 21
3359.523170319514
 31
0.0
  0
LINE
  5
A4
330
17
100
AcDbEntity
  8
COTA
 62
7
370
25
100
AcDbLine
 10
7445.745611739278
 20
3728.520692852862
 30
0.0
 11
7445.745611739278
 21
2957.764206263758
 31
0.0
  0
LWPOLYLINE
  5
A5
330
17
100
AcDbEntity
  8
Painéis
 62
7
370
25
100
AcDbPolyline
 90
4
 70
1
 10
6828.708878717198
 20
3379.073589742257
 10
7024.708878717198
 20
3379.073589742257
 10
7024.708878717198
 20
3377.073589742258
 10
6828.708878717198
 20
3377.073589742258
  0
LWPOLYLINE
  5
A6
330
17
100
AcDbEntity
  8
Painéis
 62
7
370
25
100
AcDbPolyline
 90
4
 70
1
 10
7013.006173970096
 20
3575.520692852843
 10
7017.006173970095
 20
3575.520692852843
 10
7017.006173970095
 20
3485.520692852865
 10
7013.006173970096
 20
3485.520692852865
  0
LWPOLYLINE
  5
A7
330
17
100
AcDbEntity
  8
Madeira
 62
7
370
25
100
AcDbPolyline
 90
4
 70
1
 10
7055.006173970096
 20
3485.520692852865
 10
7055.006173970096
 20
3489.920692852859
 10
7041.006173970096
 20
3489.920692852859
 10
7041.006173970096
 20
3485.520692852865
  0
LWPOLYLINE
  5
A8
330
17
100
AcDbEntity
  8
Painéis
 62
7
370
25
100
AcDbPolyline
 90
4
 70
1
 10
7055.006173970096
 20
3489.920692852859
 10
7055.006173970096
 20
3493.520692852865
 10
7017.006173970095
 20
3493.520692852865
 10
7017.006173970095
 20
3489.920692852859
  0
LWPOLYLINE
  5
A9
330
17
100
AcDbEntity
  8
Madeira
 62
7
370
25
100
AcDbPolyline
 90
4
 70
1
 10
7017.006173970095
 20
3485.520692852865
 10
7017.006173970095
 20
3489.920692852859
 10
7031.006173970095
 20
3489.920692852859
 10
7031.006173970095
 20
3485.520692852865
  0
LWPOLYLINE
  5
AA
330
17
100
AcDbEntity
  8
Painéis
 62
7
370
25
100
AcDbPolyline
 90
4
 70
1
 10
7059.006173970096
 20
3575.520692852843
 10
7055.006173970096
 20
3575.520692852843
 10
7055.006173970096
 20
3485.520692852865
 10
7059.006173970096
 20
3485.520692852865
  0
LWPOLYLINE
  5
AB
330
17
100
AcDbEntity
  8
Painéis
 62
7
370
25
100
AcDbPolyline
 90
4
 70
1
 10
7115.006173970067
 20
3575.520692852843
 10
7115.006173970067
 20
3579.520692852844
 10
7055.006173970096
 20
3579.520692852844
 10
7055.006173970096
 20
3575.520692852843
  0
LWPOLYLINE
  5
AC
330
17
100
AcDbEntity
  8
Painéis
 62
7
370
25
100
AcDbPolyline
 90
4
 70
1
 10
7017.006173970095
 20
3575.520692852843
 10
7017.006173970095
 20
3579.520692852844
 10
6961.40617397012
 20
3579.520692852836
 10
6961.40617397012
 20
3575.520692852836
  0
LWPOLYLINE
  5
AD
330
17
100
AcDbEntity
  8
CONCRETO
 62
7
370
25
100
AcDbPolyline
 90
8
 70
1
 10
6961.40617397012
 20
3579.520692852836
 10
6961.40617397012
 20
3603.520692852865
 10
7115.006173970067
 20
3603.520692852865
 10
7115.006173970067
 20
3579.520692852851
 10
7055.006173970096
 20
3579.520692852851
 10
7055.006173970038
 20
3493.520692852865
 10
7017.006173970095
 20
3493.520692852865
 10
7017.006173970095
 20
3579.520692852844
  0
LWPOLYLINE
  5
AE
330
17
100
AcDbEntity
  8
Madeira
 62
7
370
25
100
AcDbPolyline
 90
4
 70
1
 10
7008.606173970102
 20
3561.520692852843
 10
7013.006173970096
 20
3561.520692852843
 10
7013.006173970096
 20
3575.520692852843
 10
7008.606173970102
 20
3575.520692852843
  0
LWPOLYLINE
  5
AF
330
17
100
AcDbEntity
  8
Madeira
 62
7
370
25
100
AcDbPolyline
 90
4
 70
1
 10
7008.606173970102
 20
3485.520692852865
 10
7013.006173970096
 20
3485.520692852865
 10
7013.006173970096
 20
3499.520692852865
 10
7008.606173970102
 20
3499.520692852865
  0
LWPOLYLINE
  5
B0
330
17
100
AcDbEntity
  8
Madeira
 62
7
370
25
100
AcDbPolyline
 90
4
 70
1
 10
7063.40617397009
 20
3561.520692852843
 10
7059.006173970096
 20
3561.520692852843
 10
7059.006173970096
 20
3575.520692852843
 10
7063.40617397009
 20
3575.520692852843
  0
LWPOLYLINE
  5
B1
330
17
100
AcDbEntity
  8
Madeira
 62
7
370
25
100
AcDbPolyline
 90
4
 70
1
 10
7063.40617397009
 20
3485.520692852865
 10
7059.006173970096
 20
3485.520692852865
 10
7059.006173970096
 20
3499.520692852865
 10
7063.40617397009
 20
3499.520692852865
  0
LWPOLYLINE
  5
B2
330
17
100
AcDbEntity
  8
Madeira
 62
7
370
25
100
AcDbPolyline
 90
4
 70
1
 10
7008.606173970102
 20
3522.520692852854
 10
7013.006173970096
 20
3522.520692852854
 10
7013.006173970096
 20
3536.520692852854
 10
7008.606173970102
 20
3536.520692852854
  0
LWPOLYLINE
  5
B3
330
17
100
AcDbEntity
  8
Madeira
 62
7
370
25
100
AcDbPolyline
 90
4
 70
1
 10
7063.40617397009
 20
3522.520692852854
 10
7059.006173970096
 20
3522.520692852854
 10
7059.006173970096
 20
3536.520692852854
 10
7063.40617397009
 20
3536.520692852854
  0
LWPOLYLINE
  5
B4
330
17
100
AcDbEntity
  8
SARR_3.5x7
 62
7
370
25
100
AcDbPolyline
 90
4
 70
1
 10
6994.606173970037
 20
3569.520692852844
 10
7008.606173970036
 20
3569.520692852844
 10
7008.606173970163
 20
3409.042479447059
 10
6994.606173970163
 20
3409.042479447059
  0
LWPOLYLINE
  5
B5
330
17
100
AcDbEntity
  8
SARR_3.5x7
 62
7
370
25
100
AcDbPolyline
 90
4
 70
1
 10
7077.406173970323
 20
3569.520692852845
 10
7063.406173970323
 20
3569.520692852845
 10
7063.406173970178
 20
3409.042479447059
 10
7077.406173970178
 20
3409.042479447059
  0
LWPOLYLINE
  5
B6
330
17
100
AcDbEntity
  8
SARR_3.5x7
 62
7
370
25
100
AcDbPolyline
 90
4
 70
1
 10
6994.606173970021
 20
3485.520692852865
 10
7077.406173970224
 20
3485.520692852863
 10
7077.406173970224
 20
3455.462631248864
 10
6994.606173970021
 20
3455.462631248867
  0
LWPOLYLINE
  5
B7
330
17
100
AcDbEntity
  8
Painéis
 62
7
370
25
100
AcDbPolyline
 90
4
 70
1
 10
7329.670051992626
 20
3372.073589742257
 10
7258.670051992625
 20
3372.073589742234
 10
7258.670051992625
 20
3379.073589742235
 10
7329.670051992626
 20
3379.073589742257
  0
LWPOLYLINE
  5
B8
330
17
100
AcDbEntity
  8
Painéis
 62
7
370
25
100
AcDbPolyline
 90
4
 70
1
 10
7677.673618962623
 20
3573.520692852837
 10
7681.673618962623
 20
3573.520692852837
 10
7681.673618962623
 20
3495.520692852858
 10
7677.673618962623
 20
3495.520692852858
  0
LWPOLYLINE
  5
B9
330
17
100
AcDbEntity
  8
Madeira
 62
7
370
25
100
AcDbPolyline
 90
4
 70
1
 10
7719.673618962622
 20
3495.520692852858
 10
7719.673618962622
 20
3499.920692852852
 10
7709.673618962622
 20
3499.920692852852
 10
7709.673618962622
 20
3495.520692852858
  0
LWPOLYLINE
  5
BA
330
17
100
AcDbEntity
  8
Painéis
 62
7
370
25
100
AcDbPolyline
 90
4
 70
1
 10
7719.673618962622
 20
3499.920692852852
 10
7719.673618962622
 20
3503.520692852858
 10
7681.673618962623
 20
3503.520692852858
 10
7681.673618962623
 20
3499.920692852852
  0
LWPOLYLINE
  5
BB
330
17
100
AcDbEntity
  8
Madeira
 62
7
370
25
100
AcDbPolyline
 90
4
 70
1
 10
7681.673618962623
 20
3495.520692852858
 10
7681.673618962623
 20
3499.920692852852
 10
7691.673618962624
 20
3499.920692852852
 10
7691.673618962624
 20
3495.520692852858
  0
LWPOLYLINE
  5
BC
330
17
100
AcDbEntity
  8
Painéis
 62
7
370
25
100
AcDbPolyline
 90
4
 70
1
 10
7723.67361896263
 20
3603.520692852858
 10
7719.67361896263
 20
3603.520692852858
 10
7719.673618962622
 20
3495.520692852858
 10
7723.673618962623
 20
3495.520692852858
  0
LWPOLYLINE
  5
BD
330
17
100
AcDbEntity
  8
Painéis
 62
7
370
25
100
AcDbPolyline
 90
4
 70
1
 10
7681.673618962623
 20
3573.520692852837
 10
7681.673618962623
 20
3577.520692852836
 10
7626.073618962646
 20
3577.520692852829
 10
7626.073618962646
 20
3573.520692852829
  0
LWPOLYLINE
  5
BE
330
17
100
AcDbEntity
  8
CONCRETO
 62
7
370
25
100
AcDbPolyline
 90
8
 70
1
 10
7626.073618962646
 20
3577.520692852829
 10
7626.073618962646
 20
3603.520692852858
 10
7681.673618962623
 20
3603.520692852858
 10
7681.673618962623
 20
3603.520692852858
 10
7719.673618962564
 20
3603.520692852858
 10
7719.673618962564
 20
3503.520692852858
 10
7681.673618962623
 20
3503.520692852858
 10
7681.673618962623
 20
3577.520692852836
  0
LWPOLYLINE
  5
BF
330
17
100
AcDbEntity
  8
Madeira
 62
7
370
25
100
AcDbPolyline
 90
4
 70
1
 10
7673.273618962628
 20
3559.520692852836
 10
7677.673618962623
 20
3559.520692852836
 10
7677.673618962623
 20
3573.520692852837
 10
7673.273618962628
 20
3573.520692852837
  0
LWPOLYLINE
  5
C0
330
17
100
AcDbEntity
  8
Madeira
 62
7
370
25
100
AcDbPolyline
 90
4
 70
1
 10
7723.67361896263
 20
3589.520692852858
 10
7728.073618962624
 20
3589.520692852858
 10
7728.073618962624
 20
3603.520692852858
 10
7723.67361896263
 20
3603.520692852858
  0
LWPOLYLINE
  5
C1
330
17
100
AcDbEntity
  8
Madeira
 62
7
370
25
100
AcDbPolyline
 90
4
 70
1
 10
7723.673618962627
 20
3537.983378171089
 10
7728.073618962621
 20
3537.983378171089
 10
7728.073618962621
 20
3551.983378171089
 10
7723.673618962627
 20
3551.983378171089
  0
LWPOLYLINE
  5
C2
330
17
100
AcDbEntity
  8
Madeira
 62
7
370
25
100
AcDbPolyline
 90
4
 70
1
 10
7723.673618962623
 20
3495.520692852858
 10
7728.073618962617
 20
3495.520692852858
 10
7728.073618962617
 20
3509.520692852858
 10
7723.673618962623
 20
3509.520692852858
  0
LWPOLYLINE
  5
C3
330
17
100
AcDbEntity
  8
Madeira
 62
7
370
25
100
AcDbPolyline
 90
4
 70
1
 10
7673.273618962628
 20
3495.520692852858
 10
7677.673618962623
 20
3495.520692852858
 10
7677.673618962623
 20
3509.520692852858
 10
7673.273618962628
 20
3509.520692852858
  0
LWPOLYLINE
  5
C4
330
17
100
AcDbEntity
  8
SARR_3.5x7
 62
7
370
25
100
AcDbPolyline
 90
4
 70
1
 10
7659.273618962562
 20
3567.520692852833
 10
7673.273618962562
 20
3567.520692852833
 10
7673.27361896269
 20
3419.042479447052
 10
7659.27361896269
 20
3419.042479447052
  0
LWPOLYLINE
  5
C5
330
17
100
AcDbEntity
  8
SARR_3.5x7
 62
7
370
25
100
AcDbPolyline
 90
4
 70
1
 10
7742.07361896285
 20
3597.520692852858
 10
7728.07361896285
 20
3597.520692852858
 10
7728.073618962705
 20
3419.042479447052
 10
7742.073618962705
 20
3419.042479447052
  0
LWPOLYLINE
  5
C6
330
17
100
AcDbEntity
  8
SARR_3.5x7
 62
7
370
25
100
AcDbPolyline
 90
4
 70
1
 10
7659.273618962548
 20
3495.520692852858
 10
7742.073618962752
 20
3495.520692852856
 10
7742.073618962752
 20
3465.462631248858
 10
7659.273618962548
 20
3465.462631248859
  0
TEXT
  5
C7
330
17
100
AcDbEntity
  8
5
 62
7
370
25
100
AcDbText
 10
6828.604792393186
 20
3243.028725566257
 30
0.0
 40
12.0
  1
P24
100
AcDbText
  0
TEXT
  5
C8
330
17
100
AcDbEntity
  8
5
 62
7
370
25
100
AcDbText
 10
7216.565749849639
 20
3237.122203816359
 30
0.0
 40
12.0
  1
V306
100
AcDbText
  0
TEXT
  5
C9
330
17
100
AcDbEntity
  8
Texto Seção
 62
7
370
25
100
AcDbText
 10
6831.738304026085
 20
3406.053221689378
 30
0.0
 40
13.0
  1
V321.A
100
AcDbText
  0
TEXT
  5
CA
330
17
100
AcDbEntity
  8
5
 62
7
370
25
100
AcDbText
 10
7294.440223824325
 20
3238.270180874887
 30
0.0
 40
12.0
  1
P33
100
AcDbText
  0
TEXT
  5
CB
330
17
100
AcDbEntity
  8
detalhes
 62
7
370
25
100
AcDbText
 10
7063.720657146133
 20
3503.710364382147
 30
0.0
 40
9.600000000000001
  1
b
100
AcDbText
  0
TEXT
  5
CC
330
17
100
AcDbEntity
  8
detalhes
 62
7
370
25
100
AcDbText
 10
7001.176998500397
 20
3503.721421827723
 30
0.0
 40
9.600000000000001
  1
a
100
AcDbText
  0
TEXT
  5
CD
330
17
100
AcDbEntity
  8
detalhes
 62
7
370
25
100
AcDbText
 10
7027.606439585541
 20
3495.756446372704
 30
0.0
 40
9.600000000000001
  1
c
100
AcDbText
  0
TEXT
  5
CE
330
17
100
AcDbEntity
  8
5
 62
7
370
25
100
AcDbText
 10
6798.187006478203
 20
3018.401547269114
 30
0.0
 40
12.0
  1
P33
100
AcDbText
  0
TEXT
  5
CF
330
17
100
AcDbEntity
  8
5
 62
7
370
25
100
AcDbText
 10
7242.964809514534
 20
3017.02981667351
 30
0.0
 40
12.0
  1
V304
100
AcDbText
  0
TEXT
  5
D0
330
17
100
AcDbEntity
  8
Texto Seção
 62
7
370
25
100
AcDbText
 10
6801.607582908129
 20
3153.478093150695
 30
0.0
 40
13.0
  1
V321.B
100
AcDbText
  0
TEXT
  5
D1
330
17
100
AcDbEntity
  8
5
 62
7
370
25
100
AcDbText
 10
7305.497198773146
 20
3016.717294661369
 30
0.0
 40
12.0
  1
V303
100
AcDbText
  0
TEXT
  5
D2
330
17
100
AcDbEntity
  8
Texto Seção
 62
7
370
25
100
AcDbText
 10
7530.821473302271
 20
3399.209545740954
 30
0.0
 40
13.0
  1
V323.A
100
AcDbText
  0
TEXT
  5
D3
330
17
100
AcDbEntity
  8
5
 62
7
370
25
100
AcDbText
 10
7528.863337757555
 20
3247.929575110838
 30
0.0
 40
12.0
  1
V304
100
AcDbText
  0
TEXT
  5
D4
330
17
100
AcDbEntity
  8
5
 62
7
370
25
100
AcDbText
 10
7939.370205339502
 20
3249.974829496468
 30
0.0
 40
12.0
  1
V308
100
AcDbText
  0
TEXT
  5
D5
330
17
100
AcDbEntity
  8
5
 62
7
370
25
100
AcDbText
 10
7528.863337757555
 20
3035.383833565064
 30
0.0
 40
12.0
  1
V308
100
AcDbText
  0
TEXT
  5
D6
330
17
100
AcDbEntity
  8
5
 62
7
370
25
100
AcDbText
 10
7764.175979357299
 20
3035.383833565064
 30
0.0
 40
12.0
  1
P26
100
AcDbText
  0
TEXT
  5
D7
330
17
100
AcDbEntity
  8
Texto Seção
 62
7
370
25
100
AcDbText
 10
7530.821473302271
 20
3181.66380419518
 30
0.0
 40
13.0
  1
V323.B
100
AcDbText
  0
TEXT
  5
D8
330
17
100
AcDbEntity
  8
detalhes
 62
7
370
25
100
AcDbText
 10
7733.369238506735
 20
3553.743675828235
 30
0.0
 40
9.600000000000001
  1
b
100
AcDbText
  0
TEXT
  5
D9
330
17
100
AcDbEntity
  8
detalhes
 62
7
370
25
100
AcDbText
 10
7667.418524976534
 20
3525.204709577611
 30
0.0
 40
9.600000000000001
  1
a
100
AcDbText
  0
TEXT
  5
DA
330
17
100
AcDbEntity
  8
detalhes
 62
7
370
25
100
AcDbText
 10
7702.273884578068
 20
3505.756446372697
 30
0.0
 40
9.600000000000001
  1
c
100
AcDbText
  0
HATCH
  5
DB
330
17
100
AcDbEntity
  8
COTA
 62
7
100
AcDbHatch
 10
0.0
 20
0.0
 30
0.0
210
0.0
220
0.0
230
1.0
  2
SOLID
 70
1
 71
0
 91
1
 92
3
 72
0
 73
1
 93
12
 10
7024.708878717198
 20
3377.073589742258
 10
6828.708878717198
 20
3377.073589742258
 10
6828.708878717198
 20
3377.073589742258
 10
6828.708878717198
 20
3364.073589742256
 10
6828.708878717198
 20
3364.073589742256
 10
7243.708878717199
 20
3364.073589742285
 10
7243.708878717199
 20
3364.073589742285
 10
7243.708878717199
 20
3379.073589742264
 10
7243.708878717199
 20
3379.073589742264
 10
7024.708878717198
 20
3379.073589742257
 10
7024.708878717198
 20
3379.073589742257
 10
7024.708878717198
 20
3377.073589742258
 97
0
 75
1
 76
1
 98
0
  0
HATCH
  5
DC
330
17
100
AcDbEntity
  8
COTA
 62
7
100
AcDbHatch
 10
0.0
 20
0.0
 30
0.0
210
0.0
220
0.0
230
1.0
  2
SOLID
 70
1
 71
0
 91
1
 92
3
 72
0
 73
1
 93
8
 10
7329.670051992628
 20
3360.073589742273
 10
7329.670051992628
 20
3372.073589742257
 10
7329.670051992626
 20
3372.073589742257
 10
7258.670051992627
 20
3372.073589742257
 10
7258.670051992625
 20
3372.073589742257
 10
7258.670051992627
 20
3360.073589742268
 10
7258.67005199263
 20
3360.073589742268
 10
7329.670051992628
 20
3360.073589742273
 97
0
 75
1
 76
1
 98
0
  0
HATCH
  5
DD
330
17
100
AcDbEntity
  8
Hachura
 62
7
100
AcDbHatch
 10
0.0
 20
0.0
 30
0.0
210
0.0
220
0.0
230
1.0
  2
SOLID
 70
1
 71
0
 91
1
 92
3
 72
0
 73
1
 93
8
 10
7013.006173970096
 20
3575.520692852843
 10
7017.006173970095
 20
3575.520692852843
 10
7017.006173970095
 20
3575.520692852843
 10
7017.006173970095
 20
3485.520692852865
 10
7017.006173970095
 20
3485.520692852865
 10
7013.006173970096
 20
3485.520692852865
 10
7013.006173970096
 20
3485.520692852865
 10
7013.006173970096
 20
3575.520692852843
 97
0
 75
1
 76
1
 98
0
  0
HATCH
  5
DE
330
17
100
AcDbEntity
  8
Hachura
 62
7
100
AcDbHatch
 10
0.0
 20
0.0
 30
0.0
210
0.0
220
0.0
230
1.0
  2
SOLID
 70
1
 71
0
 91
1
 92
3
 72
0
 73
1
 93
8
 10
7055.006173970096
 20
3485.520692852865
 10
7055.006173970096
 20
3489.920692852859
 10
7055.006173970096
 20
3489.920692852859
 10
7041.006173970096
 20
3489.920692852859
 10
7041.006173970096
 20
3489.920692852859
 10
7041.006173970096
 20
3485.520692852865
 10
7041.006173970096
 20
3485.520692852865
 10
7055.006173970096
 20
3485.520692852865
 97
0
 75
1
 76
1
 98
0
  0
HATCH
  5
DF
330
17
100
AcDbEntity
  8
Hachura
 62
7
100
AcDbHatch
 10
0.0
 20
0.0
 30
0.0
210
0.0
220
0.0
230
1.0
  2
SOLID
 70
1
 71
0
 91
1
 92
3
 72
0
 73
1
 93
8
 10
7055.006173970096
 20
3489.920692852859
 10
7055.006173970096
 20
3493.520692852865
 10
7055.006173970096
 20
3493.520692852865
 10
7017.006173970095
 20
3493.520692852865
 10
7017.006173970095
 20
3493.520692852865
 10
7017.006173970095
 20
3489.920692852859
 10
7017.006173970095
 20
3489.920692852859
 10
7055.006173970096
 20
3489.920692852859
 97
0
 75
1
 76
1
 98
0
  0
HATCH
  5
E0
330
17
100
AcDbEntity
  8
Hachura
 62
7
100
AcDbHatch
 10
0.0
 20
0.0
 30
0.0
210
0.0
220
0.0
230
1.0
  2
SOLID
 70
1
 71
0
 91
1
 92
3
 72
0
 73
1
 93
8
 10
7017.006173970095
 20
3485.520692852865
 10
7017.006173970095
 20
3489.920692852859
 10
7017.006173970095
 20
3489.920692852859
 10
7031.006173970095
 20
3489.920692852859
 10
7031.006173970095
 20
3489.920692852859
 10
7031.006173970095
 20
3485.520692852865
 10
7031.006173970095
 20
3485.520692852865
 10
7017.006173970095
 20
3485.520692852865
 97
0
 75
1
 76
1
 98
0
  0
HATCH
  5
E1
330
17
100
AcDbEntity
  8
Hachura
 62
7
100
AcDbHatch
 10
0.0
 20
0.0
 30
0.0
210
0.0
220
0.0
230
1.0
  2
SOLID
 70
1
 71
0
 91
1
 92
3
 72
0
 73
1
 93
8
 10
7059.006173970096
 20
3575.520692852843
 10
7055.006173970096
 20
3575.520692852843
 10
7055.006173970096
 20
3575.520692852843
 10
7055.006173970096
 20
3485.520692852865
 10
7055.006173970096
 20
3485.520692852865
 10
7059.006173970096
 20
3485.520692852865
 10
7059.006173970096
 20
3485.520692852865
 10
7059.006173970096
 20
3575.520692852843
 97
0
 75
1
 76
1
 98
0
  0
HATCH
  5
E2
330
17
100
AcDbEntity
  8
Hachura
 62
7
100
AcDbHatch
 10
0.0
 20
0.0
 30
0.0
210
0.0
220
0.0
230
1.0
  2
SOLID
 70
1
 71
0
 91
1
 92
3
 72
0
 73
1
 93
8
 10
7115.006173970067
 20
3575.520692852843
 10
7115.006173970067
 20
3579.520692852844
 10
7115.006173970067
 20
3579.520692852844
 10
7055.006173970096
 20
3579.520692852844
 10
7055.006173970096
 20
3579.520692852844
 10
7055.006173970096
 20
3575.520692852843
 10
7055.006173970096
 20
3575.520692852843
 10
7115.006173970067
 20
3575.520692852843
 97
0
 75
1
 76
1
 98
0
  0
HATCH
  5
E3
330
17
100
AcDbEntity
  8
Hachura
 62
7
100
AcDbHatch
 10
0.0
 20
0.0
 30
0.0
210
0.0
220
0.0
230
1.0
  2
SOLID
 70
1
 71
0
 91
1
 92
3
 72
0
 73
1
 93
8
 10
7017.006173970095
 20
3575.520692852843
 10
7017.006173970095
 20
3579.520692852844
 10
7017.006173970095
 20
3579.520692852844
 10
6961.40617397012
 20
3579.520692852836
 10
6961.40617397012
 20
3579.520692852836
 10
6961.40617397012
 20
3575.520692852836
 10
6961.40617397012
 20
3575.520692852836
 10
7017.006173970095
 20
3575.520692852843
 97
0
 75
1
 76
1
 98
0
  0
HATCH
  5
E4
330
17
100
AcDbEntity
  8
Hachura
 62
7
100
AcDbHatch
 10
0.0
 20
0.0
 30
0.0
210
0.0
220
0.0
230
1.0
  2
SOLID
 70
1
 71
0
 91
1
 92
3
 72
0
 73
1
 93
8
 10
7008.606173970102
 20
3561.520692852843
 10
7013.006173970096
 20
3561.520692852843
 10
7013.006173970096
 20
3561.520692852843
 10
7013.006173970096
 20
3575.520692852843
 10
7013.006173970096
 20
3575.520692852843
 10
7008.606173970102
 20
3575.520692852843
 10
7008.606173970102
 20
3575.520692852843
 10
7008.606173970102
 20
3561.520692852843
 97
0
 75
1
 76
1
 98
0
  0
HATCH
  5
E5
330
17
100
AcDbEntity
  8
Hachura
 62
7
100
AcDbHatch
 10
0.0
 20
0.0
 30
0.0
210
0.0
220
0.0
230
1.0
  2
SOLID
 70
1
 71
0
 91
1
 92
3
 72
0
 73
1
 93
8
 10
7008.606173970102
 20
3485.520692852865
 10
7013.006173970096
 20
3485.520692852865
 10
7013.006173970096
 20
3485.520692852865
 10
7013.006173970096
 20
3499.520692852865
 10
7013.006173970096
 20
3499.520692852865
 10
7008.606173970102
 20
3499.520692852865
 10
7008.606173970102
 20
3499.520692852865
 10
7008.606173970102
 20
3485.520692852865
 97
0
 75
1
 76
1
 98
0
  0
HATCH
  5
E6
330
17
100
AcDbEntity
  8
Hachura
 62
7
100
AcDbHatch
 10
0.0
 20
0.0
 30
0.0
210
0.0
220
0.0
230
1.0
  2
SOLID
 70
1
 71
0
 91
1
 92
3
 72
0
 73
1
 93
8
 10
7063.40617397009
 20
3561.520692852843
 10
7059.006173970096
 20
3561.520692852843
 10
7059.006173970096
 20
3561.520692852843
 10
7059.006173970096
 20
3575.520692852843
 10
7059.006173970096
 20
3575.520692852843
 10
7063.40617397009
 20
3575.520692852843
 10
7063.40617397009
 20
3575.520692852843
 10
7063.40617397009
 20
3561.520692852843
 97
0
 75
1
 76
1
 98
0
  0
HATCH
  5
E7
330
17
100
AcDbEntity
  8
Hachura
 62
7
100
AcDbHatch
 10
0.0
 20
0.0
 30
0.0
210
0.0
220
0.0
230
1.0
  2
SOLID
 70
1
 71
0
 91
1
 92
3
 72
0
 73
1
 93
8
 10
7063.40617397009
 20
3485.520692852865
 10
7059.006173970096
 20
3485.520692852865
 10
7059.006173970096
 20
3485.520692852865
 10
7059.006173970096
 20
3499.520692852865
 10
7059.006173970096
 20
3499.520692852865
 10
7063.40617397009
 20
3499.520692852865
 10
7063.40617397009
 20
3499.520692852865
 10
7063.40617397009
 20
3485.520692852865
 97
0
 75
1
 76
1
 98
0
  0
HATCH
  5
E8
330
17
100
AcDbEntity
  8
Hachura
 62
7
100
AcDbHatch
 10
0.0
 20
0.0
 30
0.0
210
0.0
220
0.0
230
1.0
  2
SOLID
 70
1
 71
0
 91
1
 92
3
 72
0
 73
1
 93
8
 10
7008.606173970102
 20
3522.520692852854
 10
7013.006173970096
 20
3522.520692852854
 10
7013.006173970096
 20
3522.520692852854
 10
7013.006173970096
 20
3536.520692852854
 10
7013.006173970096
 20
3536.520692852854
 10
7008.606173970102
 20
3536.520692852854
 10
7008.606173970102
 20
3536.520692852854
 10
7008.606173970102
 20
3522.520692852854
 97
0
 75
1
 76
1
 98
0
  0
HATCH
  5
E9
330
17
100
AcDbEntity
  8
Hachura
 62
7
100
AcDbHatch
 10
0.0
 20
0.0
 30
0.0
210
0.0
220
0.0
230
1.0
  2
SOLID
 70
1
 71
0
 91
1
 92
3
 72
0
 73
1
 93
8
 10
7063.40617397009
 20
3522.520692852854
 10
7059.006173970096
 20
3522.520692852854
 10
7059.006173970096
 20
3522.520692852854
 10
7059.006173970096
 20
3536.520692852854
 10
7059.006173970096
 20
3536.520692852854
 10
7063.40617397009
 20
3536.520692852854
 10
7063.40617397009
 20
3536.520692852854
 10
7063.40617397009
 20
3522.520692852854
 97
0
 75
1
 76
1
 98
0
  0
HATCH
  5
EA
330
17
100
AcDbEntity
  8
REAPROVEITAMENTO
 62
7
100
AcDbHatch
 10
0.0
 20
0.0
 30
0.0
210
0.0
220
0.0
230
1.0
  2
SOLID
 70
1
 71
0
 91
1
 92
3
 72
0
 73
1
 93
8
 10
7243.708878717199
 20
3320.073589742275
 10
7243.708878717203
 20
3364.073589742292
 10
7243.708878717206
 20
3364.073589742292
 10
6828.708878717201
 20
3364.073589742279
 10
6828.708878717201
 20
3364.073589742279
 10
6828.708878717204
 20
3320.073589742265
 10
6828.708878717201
 20
3320.073589742265
 10
7243.708878717199
 20
3320.073589742275
 97
0
 75
1
 76
1
 98
0
  0
HATCH
  5
EB
330
17
100
AcDbEntity
  8
REAPROVEITAMENTO
 62
7
100
AcDbHatch
 10
0.0
 20
0.0
 30
0.0
210
0.0
220
0.0
230
1.0
  2
SOLID
 70
1
 71
0
 91
1
 92
3
 72
0
 73
1
 93
8
 10
7329.670051992628
 20
3319.99392785705
 10
7329.670051992633
 20
3367.153251627515
 10
7329.670051992628
 20
3367.153251627515
 10
7258.670051992623
 20
3367.323589742249
 10
7258.670051992623
 20
3367.323589742249
 10
7258.67005199263
 20
3320.164265971782
 10
7258.67005199263
 20
3320.164265971782
 10
7329.670051992628
 20
3319.99392785705
 97
0
 75
1
 76
1
 98
0
  0
HATCH
  5
EC
330
17
100
AcDbEntity
  8
COTA
 62
7
100
AcDbHatch
 10
0.0
 20
0.0
 30
0.0
210
0.0
220
0.0
230
1.0
  2
SOLID
 70
1
 71
0
 91
1
 92
3
 72
0
 73
1
 93
9
 10
7253.578157599243
 20
3134.744256480714
 10
7253.578157599243
 20
3148.744256480698
 10
7253.578157599243
 20
3148.744256480698
 10
6798.328157599242
 20
3148.744256480696
 10
6798.328157599242
 20
3148.744256480696
 10
6798.578157599242
 20
3134.744256480701
 10
6798.578157599242
 20
3134.744256480701
 10
7253.578157599244
 20
3134.744256480714
 10
7253.578157599243
 20
3134.744256480714
 97
0
 75
1
 76
1
 98
0
  0
HATCH
  5
ED
330
17
100
AcDbEntity
  8
COTA
 62
7
100
AcDbHatch
 10
0.0
 20
0.0
 30
0.0
210
0.0
220
0.0
230
1.0
  2
SOLID
 70
1
 71
0
 91
1
 92
3
 72
0
 73
1
 93
9
 10
7323.979256593824
 20
3134.744256480716
 10
7323.97925659382
 20
3148.744256480699
 10
7323.979256593824
 20
3148.744256480699
 10
7274.979256593827
 20
3148.744256480699
 10
7274.979256593825
 20
3148.744256480699
 10
7274.979256593827
 20
3134.744256480713
 10
7274.979256593828
 20
3134.744256480713
 10
7323.979256593826
 20
3134.744256480716
 10
7323.979256593824
 20
3134.744256480716
 97
0
 75
1
 76
1
 98
0
  0
HATCH
  5
EE
330
17
100
AcDbEntity
  8
REAPROVEITAMENTO
 62
7
100
AcDbHatch
 10
0.0
 20
0.0
 30
0.0
210
0.0
220
0.0
230
1.0
  2
SOLID
 70
1
 71
0
 91
1
 92
3
 72
0
 73
1
 93
8
 10
7323.979256593824
 20
3089.659087423346
 10
7323.979256593827
 20
3134.823918365956
 10
7323.979256593827
 20
3134.823918365956
 10
7274.97925659382
 20
3134.994256480692
 10
7274.97925659382
 20
3134.994256480692
 10
7274.979256593827
 20
3089.82942553808
 10
7274.979256593825
 20
3089.82942553808
 10
7323.979256593824
 20
3089.659087423346
 97
0
 75
1
 76
1
 98
0
  0
HATCH
  5
EF
330
17
100
AcDbEntity
  8
REAPROVEITAMENTO
 62
7
100
AcDbHatch
 10
0.0
 20
0.0
 30
0.0
210
0.0
220
0.0
230
1.0
  2
SOLID
 70
1
 71
0
 91
1
 92
3
 72
0
 73
1
 93
8
 10
7253.578157599243
 20
3089.661841009411
 10
7253.578157599246
 20
3134.826671952033
 10
7253.578157599246
 20
3134.826671952033
 10
6798.578157599239
 20
3134.994256480688
 10
6798.578157599235
 20
3134.994256480688
 10
6798.578157599242
 20
3089.829425538063
 10
6798.578157599242
 20
3089.829425538063
 10
7253.578157599243
 20
3089.661841009411
 97
0
 75
1
 76
1
 98
0
  0
HATCH
  5
F0
330
17
100
AcDbEntity
  8
COTA
 62
7
100
AcDbHatch
 10
0.0
 20
0.0
 30
0.0
210
0.0
220
0.0
230
1.0
  2
SOLID
 70
1
 71
0
 91
1
 92
3
 72
0
 73
1
 93
9
 10
7982.821473302303
 20
3376.023170319977
 10
7982.821473302303
 20
3390.023170319977
 10
7982.821473302303
 20
3390.023170319977
 10
7527.821473302303
 20
3390.023170319977
 10
7527.821473302299
 20
3390.023170319977
 10
7527.821473302299
 20
3376.023170319977
 10
7527.821473302299
 20
3376.023170319977
 10
7982.821473302301
 20
3376.023170319977
 10
7982.821473302303
 20
3376.023170319977
 97
0
 75
1
 76
1
 98
0
  0
HATCH
  5
F1
330
17
100
AcDbEntity
  8
Hachura
 62
7
100
AcDbHatch
 10
0.0
 20
0.0
 30
0.0
210
0.0
220
0.0
230
1.0
  2
SOLID
 70
1
 71
0
 91
1
 92
3
 72
0
 73
1
 93
9
 10
7681.673618962619
 20
3573.520692852837
 10
7677.673618962619
 20
3573.520692852837
 10
7677.673618962619
 20
3573.520692852837
 10
7677.673618962619
 20
3495.520692852858
 10
7677.673618962623
 20
3495.520692852858
 10
7681.673618962623
 20
3495.520692852858
 10
7681.673618962623
 20
3495.520692852858
 10
7681.673618962621
 20
3573.520692852837
 10
7681.673618962619
 20
3573.520692852837
 97
0
 75
1
 76
1
 98
0
  0
HATCH
  5
F2
330
17
100
AcDbEntity
  8
Hachura
 62
7
100
AcDbHatch
 10
0.0
 20
0.0
 30
0.0
210
0.0
220
0.0
230
1.0
  2
SOLID
 70
1
 71
0
 91
1
 92
3
 72
0
 73
1
 93
8
 10
7719.673618962622
 20
3495.520692852858
 10
7719.673618962622
 20
3499.920692852852
 10
7719.673618962622
 20
3499.920692852852
 10
7709.673618962622
 20
3499.920692852852
 10
7709.673618962622
 20
3499.920692852852
 10
7709.673618962622
 20
3495.520692852858
 10
7709.673618962622
 20
3495.520692852858
 10
7719.673618962622
 20
3495.520692852858
 97
0
 75
1
 76
1
 98
0
  0
HATCH
  5
F3
330
17
100
AcDbEntity
  8
Hachura
 62
7
100
AcDbHatch
 10
0.0
 20
0.0
 30
0.0
210
0.0
220
0.0
230
1.0
  2
SOLID
 70
1
 71
0
 91
1
 92
3
 72
0
 73
1
 93
8
 10
7719.673618962622
 20
3499.920692852852
 10
7719.673618962622
 20
3503.520692852858
 10
7719.673618962622
 20
3503.520692852858
 10
7681.673618962623
 20
3503.520692852858
 10
7681.673618962623
 20
3503.520692852858
 10
7681.673618962623
 20
3499.920692852852
 10
7681.673618962623
 20
3499.920692852852
 10
7719.673618962622
 20
3499.920692852852
 97
0
 75
1
 76
1
 98
0
  0
HATCH
  5
F4
330
17
100
AcDbEntity
  8
Hachura
 62
7
100
AcDbHatch
 10
0.0
 20
0.0
 30
0.0
210
0.0
220
0.0
230
1.0
  2
SOLID
 70
1
 71
0
 91
1
 92
3
 72
0
 73
1
 93
8
 10
7681.673618962623
 20
3495.520692852858
 10
7681.673618962623
 20
3499.920692852852
 10
7681.673618962623
 20
3499.920692852852
 10
7691.673618962624
 20
3499.920692852852
 10
7691.673618962624
 20
3499.920692852852
 10
7691.673618962624
 20
3495.520692852858
 10
7691.673618962624
 20
3495.520692852858
 10
7681.673618962623
 20
3495.520692852858
 97
0
 75
1
 76
1
 98
0
  0
HATCH
  5
F5
330
17
100
AcDbEntity
  8
Hachura
 62
7
100
AcDbHatch
 10
0.0
 20
0.0
 30
0.0
210
0.0
220
0.0
230
1.0
  2
SOLID
 70
1
 71
0
 91
1
 92
3
 72
0
 73
1
 93
8
 10
7723.673618962623
 20
3603.520692852858
 10
7719.67361896262
 20
3603.520692852858
 10
7719.67361896262
 20
3603.520692852858
 10
7719.67361896262
 20
3495.520692852858
 10
7719.673618962622
 20
3495.520692852858
 10
7723.673618962623
 20
3495.520692852858
 10
7723.673618962623
 20
3495.520692852858
 10
7723.673618962623
 20
3603.520692852858
 97
0
 75
1
 76
1
 98
0
  0
HATCH
  5
F6
330
17
100
AcDbEntity
  8
Hachura
 62
7
100
AcDbHatch
 10
0.0
 20
0.0
 30
0.0
210
0.0
220
0.0
230
1.0
  2
SOLID
 70
1
 71
0
 91
1
 92
3
 72
0
 73
1
 93
8
 10
7681.673618962623
 20
3573.520692852837
 10
7681.673618962623
 20
3577.520692852836
 10
7681.673618962623
 20
3577.520692852836
 10
7626.073618962646
 20
3577.520692852829
 10
7626.073618962646
 20
3577.520692852829
 10
7626.073618962646
 20
3573.520692852829
 10
7626.073618962646
 20
3573.520692852829
 10
7681.673618962623
 20
3573.520692852837
 97
0
 75
1
 76
1
 98
0
  0
HATCH
  5
F7
330
17
100
AcDbEntity
  8
Hachura
 62
7
100
AcDbHatch
 10
0.0
 20
0.0
 30
0.0
210
0.0
220
0.0
230
1.0
  2
SOLID
 70
1
 71
0
 91
1
 92
3
 72
0
 73
1
 93
8
 10
7673.273618962628
 20
3559.520692852836
 10
7677.673618962623
 20
3559.520692852836
 10
7677.673618962623
 20
3559.520692852836
 10
7677.673618962623
 20
3573.520692852837
 10
7677.673618962623
 20
3573.520692852837
 10
7673.273618962628
 20
3573.520692852837
 10
7673.273618962628
 20
3573.520692852837
 10
7673.273618962628
 20
3559.520692852836
 97
0
 75
1
 76
1
 98
0
  0
HATCH
  5
F8
330
17
100
AcDbEntity
  8
Hachura
 62
7
100
AcDbHatch
 10
0.0
 20
0.0
 30
0.0
210
0.0
220
0.0
230
1.0
  2
SOLID
 70
1
 71
0
 91
1
 92
3
 72
0
 73
1
 93
8
 10
7723.67361896263
 20
3589.520692852858
 10
7728.073618962624
 20
3589.520692852858
 10
7728.073618962624
 20
3589.520692852858
 10
7728.073618962624
 20
3603.520692852858
 10
7728.073618962624
 20
3603.520692852858
 10
7723.67361896263
 20
3603.520692852858
 10
7723.67361896263
 20
3603.520692852858
 10
7723.67361896263
 20
3589.520692852858
 97
0
 75
1
 76
1
 98
0
  0
HATCH
  5
F9
330
17
100
AcDbEntity
  8
Hachura
 62
7
100
AcDbHatch
 10
0.0
 20
0.0
 30
0.0
210
0.0
220
0.0
230
1.0
  2
SOLID
 70
1
 71
0
 91
1
 92
3
 72
0
 73
1
 93
8
 10
7723.673618962627
 20
3537.983378171089
 10
7728.073618962621
 20
3537.983378171089
 10
7728.073618962621
 20
3537.983378171089
 10
7728.073618962621
 20
3551.983378171089
 10
7728.073618962621
 20
3551.983378171089
 10
7723.673618962627
 20
3551.983378171089
 10
7723.673618962627
 20
3551.983378171089
 10
7723.673618962627
 20
3537.983378171089
 97
0
 75
1
 76
1
 98
0
  0
HATCH
  5
FA
330
17
100
AcDbEntity
  8
Hachura
 62
7
100
AcDbHatch
 10
0.0
 20
0.0
 30
0.0
210
0.0
220
0.0
230
1.0
  2
SOLID
 70
1
 71
0
 91
1
 92
3
 72
0
 73
1
 93
8
 10
7723.673618962623
 20
3495.520692852858
 10
7728.073618962617
 20
3495.520692852858
 10
7728.073618962617
 20
3495.520692852858
 10
7728.073618962617
 20
3509.520692852858
 10
7728.073618962617
 20
3509.520692852858
 10
7723.673618962623
 20
3509.520692852858
 10
7723.673618962623
 20
3509.520692852858
 10
7723.673618962623
 20
3495.520692852858
 97
0
 75
1
 76
1
 98
0
  0
HATCH
  5
FB
330
17
100
AcDbEntity
  8
Hachura
 62
7
100
AcDbHatch
 10
0.0
 20
0.0
 30
0.0
210
0.0
220
0.0
230
1.0
  2
SOLID
 70
1
 71
0
 91
1
 92
3
 72
0
 73
1
 93
8
 10
7673.273618962628
 20
3495.520692852858
 10
7677.673618962623
 20
3495.520692852858
 10
7677.673618962623
 20
3495.520692852858
 10
7677.673618962623
 20
3509.520692852858
 10
7677.673618962623
 20
3509.520692852858
 10
7673.273618962628
 20
3509.520692852858
 10
7673.273618962628
 20
3509.520692852858
 10
7673.273618962628
 20
3495.520692852858
 97
0
 75
1
 76
1
 98
0
  0
HATCH
  5
FC
330
17
100
AcDbEntity
  8
REAPROVEITAMENTO
 62
7
100
AcDbHatch
 10
0.0
 20
0.0
 30
0.0
210
0.0
220
0.0
230
1.0
  2
SOLID
 70
1
 71
0
 91
1
 92
3
 72
0
 73
1
 93
9
 10
7527.82147330231
 20
3336.148170319981
 10
7527.821473302305
 20
3376.273170320001
 10
7527.821473302303
 20
3376.273170320001
 10
7982.8214733023
 20
3376.085670319985
 10
7982.821473302303
 20
3376.085670319985
 10
7982.821473302303
 20
3335.960670319968
 10
7982.821473302303
 20
3335.960670319968
 10
7527.821473302312
 20
3336.148170319981
 10
7527.82147330231
 20
3336.148170319981
 97
0
 75
1
 76
1
 98
0
  0
HATCH
  5
FD
330
17
100
AcDbEntity
  8
REAPROVEITAMENTO
 62
7
100
AcDbHatch
 10
0.0
 20
0.0
 30
0.0
210
0.0
220
0.0
230
1.0
  2
SOLID
 70
1
 71
0
 91
1
 92
3
 72
0
 73
1
 93
9
 10
7527.821473302303
 20
3118.602428774208
 10
7527.821473302303
 20
3172.727428774228
 10
7527.821473302303
 20
3172.727428774228
 10
7787.8214733023
 20
3172.477428774217
 10
7787.821473302303
 20
3172.477428774217
 10
7787.821473302298
 20
3118.352428774199
 10
7787.821473302296
 20
3118.352428774199
 10
7527.821473302305
 20
3118.602428774208
 10
7527.821473302303
 20
3118.602428774208
 97
0
 75
1
 76
1
 98
0
  0
LINE
  5
FE
330
17
100
AcDbEntity
  8
0
 62
7
370
25
100
AcDbLine
 10
7069.164441929679
 20
2758.520692852864
 30
0.0
 11
7069.164441929679
 21
2957.7642062637533
 31
0.0
  0
LWPOLYLINE
  5
FF
330
17
100
AcDbEntity
  8
Texto Seção
 62
7
370
25
100
AcDbPolyline
 90
4
 70
1
 10
7935.583757447187
 20
2998.991723802101
 10
8077.033075599443
 20
2998.991723802101
 10
8077.033075599443
 20
2975.790846734352
 10
7935.583757447187
 20
2975.790846734352
  0
LWPOLYLINE
  5
100
330
17
100
AcDbEntity
  8
Texto Seção
 62
7
370
25
100
AcDbPolyline
 90
4
 70
1
 10
6734.51333958943
 20
2998.991723802101
 10
6875.962657741685
 20
2998.991723802101
 10
6875.962657741685
 20
2975.790846734352
 10
6734.51333958943
 20
2975.790846734352
  0
TEXT
  5
101
330
17
100
AcDbEntity
  8
Texto Seção
 62
7
370
25
100
AcDbText
 10
7941.094710204355
 20
2980.542441821572
 30
0.0
 40
13.0
  1
VEM DA V23
100
AcDbText
  0
ENDSEC
  0
SECTION
  2
OBJECTS
  0
DICTIONARY
  5
A
330
0
100
AcDbDictionary
281
1
  3
ACAD_COLOR
350
B
  3
ACAD_GROUP
350
C
  3
ACAD_LAYOUT
350
D
  3
ACAD_MATERIAL
350
E
  3
ACAD_MLEADERSTYLE
350
F
  3
ACAD_MLINESTYLE
350
10
  3
ACAD_PLOTSETTINGS
350
11
  3
ACAD_PLOTSTYLENAME
350
12
  3
ACAD_SCALELIST
350
14
  3
ACAD_TABLESTYLE
350
15
  3
ACAD_VISUALSTYLE
350
16
  3
EZDXF_META
350
2D
  0
DICTIONARY
  5
B
330
A
100
AcDbDictionary
281
1
  0
DICTIONARY
  5
C
330
A
100
AcDbDictionary
281
1
  0
DICTIONARY
  5
D
330
A
100
AcDbDictionary
281
1
  3
Model
350
1A
  3
Layout1
350
1E
  0
DICTIONARY
  5
E
330
A
100
AcDbDictionary
281
1
  3
ByBlock
350
1F
  3
ByLayer
350
20
  3
Global
350
21
  0
DICTIONARY
  5
F
330
A
100
AcDbDictionary
281
1
  3
Standard
350
2C
  0
DICTIONARY
  5
10
330
A
100
AcDbDictionary
281
1
  3
Standard
350
22
  0
DICTIONARY
  5
11
330
A
100
AcDbDictionary
281
1
  0
ACDBDICTIONARYWDFLT
  5
12
330
A
100
AcDbDictionary
281
1
  3
Normal
350
13
100
AcDbDictionaryWithDefault
340
13
  0
ACDBPLACEHOLDER
  5
13
330
12
  0
DICTIONARY
  5
14
330
A
100
AcDbDictionary
281
1
  0
DICTIONARY
  5
15
330
A
100
AcDbDictionary
281
1
  0
DICTIONARY
  5
16
330
A
100
AcDbDictionary
281
1
  0
LAYOUT
  5
1A
330
D
100
AcDbPlotSettings
  1

  4
A3
  6

 40
7.5
 41
20.0
 42
7.5
 43
20.0
 44
420.0
 45
297.0
 46
0.0
 47
0.0
 48
0.0
 49
0.0
140
0.0
141
0.0
142
1.0
143
1.0
 70
1024
 72
1
 73
0
 74
5
  7

 75
16
 76
0
 77
2
 78
300
147
1.0
148
0.0
149
0.0
100
AcDbLayout
  1
Model
 70
1
 71
0
 10
0.0
 20
0.0
 11
420.0
 21
297.0
 12
0.0
 22
0.0
 32
0.0
 14
1e+20
 24
1e+20
 34
1e+20
 15
-1e+20
 25
-1e+20
 35
-1e+20
146
0.0
 13
0.0
 23
0.0
 33
0.0
 16
1.0
 26
0.0
 36
0.0
 17
0.0
 27
1.0
 37
0.0
 76
1
330
17
  0
LAYOUT
  5
1E
330
D
100
AcDbPlotSettings
  1

  4
A3
  6

 40
7.5
 41
20.0
 42
7.5
 43
20.0
 44
420.0
 45
297.0
 46
0.0
 47
0.0
 48
0.0
 49
0.0
140
0.0
141
0.0
142
1.0
143
1.0
 70
0
 72
1
 73
0
 74
5
  7

 75
16
 76
0
 77
2
 78
300
147
1.0
148
0.0
149
0.0
100
AcDbLayout
  1
Layout1
 70
1
 71
1
 10
0.0
 20
0.0
 11
420.0
 21
297.0
 12
0.0
 22
0.0
 32
0.0
 14
1e+20
 24
1e+20
 34
1e+20
 15
-1e+20
 25
-1e+20
 35
-1e+20
146
0.0
 13
0.0
 23
0.0
 33
0.0
 16
1.0
 26
0.0
 36
0.0
 17
0.0
 27
1.0
 37
0.0
 76
1
330
1B
  0
MATERIAL
  5
1F
102
{ACAD_REACTORS
330
E
102
}
330
E
100
AcDbMaterial
  1
ByBlock
  2

 70
0
 40
1.0
 71
1
 41
1.0
 91
-1023410177
 42
1.0
 72
1
  3

 73
1
 74
1
 75
1
 44
0.5
 73
0
 45
1.0
 46
1.0
 77
1
  4

 78
1
 79
1
170
1
 48
1.0
171
1
  6

172
1
173
1
174
1
140
1.0
141
1.0
175
1
  7

176
1
177
1
178
1
143
1.0
179
1
  8

270
1
271
1
272
1
145
1.0
146
1.0
273
1
  9

274
1
275
1
276
1
 42
1.0
 72
1
  3

 73
1
 74
1
 75
1
 94
63
  0
MATERIAL
  5
20
102
{ACAD_REACTORS
330
E
102
}
330
E
100
AcDbMaterial
  1
ByLayer
  2

 70
0
 40
1.0
 71
1
 41
1.0
 91
-1023410177
 42
1.0
 72
1
  3

 73
1
 74
1
 75
1
 44
0.5
 73
0
 45
1.0
 46
1.0
 77
1
  4

 78
1
 79
1
170
1
 48
1.0
171
1
  6

172
1
173
1
174
1
140
1.0
141
1.0
175
1
  7

176
1
177
1
178
1
143
1.0
179
1
  8

270
1
271
1
272
1
145
1.0
146
1.0
273
1
  9

274
1
275
1
276
1
 42
1.0
 72
1
  3

 73
1
 74
1
 75
1
 94
63
  0
MATERIAL
  5
21
102
{ACAD_REACTORS
330
E
102
}
330
E
100
AcDbMaterial
  1
Global
  2

 70
0
 40
1.0
 71
1
 41
1.0
 91
-1023410177
 42
1.0
 72
1
  3

 73
1
 74
1
 75
1
 44
0.5
 73
0
 45
1.0
 46
1.0
 77
1
  4

 78
1
 79
1
170
1
 48
1.0
171
1
  6

172
1
173
1
174
1
140
1.0
141
1.0
175
1
  7

176
1
177
1
178
1
143
1.0
179
1
  8

270
1
271
1
272
1
145
1.0
146
1.0
273
1
  9

274
1
275
1
276
1
 42
1.0
 72
1
  3

 73
1
 74
1
 75
1
 94
63
  0
MLINESTYLE
  5
22
102
{ACAD_REACTORS
330
10
102
}
330
10
100
AcDbMlineStyle
  2
Standard
 70
0
  3

 62
256
 51
90.0
 52
90.0
 71
2
 49
0.5
 62
256
  6
BYLAYER
 49
-0.5
 62
256
  6
BYLAYER
  0
MLEADERSTYLE
  5
2C
102
{ACAD_REACTORS
330
F
102
}
330
F
100
AcDbMLeaderStyle
179
2
170
2
171
1
172
0
 90
2
 40
0.0
 41
0.0
173
1
 91
-1056964608
 92
-2
290
1
 42
2.0
291
1
 43
8.0
  3
Standard
 44
4.0
300

342
29
174
1
175
1
176
0
178
1
 93
-1056964608
 45
4.0
292
0
297
0
 46
4.0
 94
-1056964608
 47
1.0
 49
1.0
140
1.0
294
1
141
0.0
177
0
142
1.0
295
0
296
0
143
3.75
271
0
272
9
273
9
  0
DICTIONARY
  5
2D
330
A
100
AcDbDictionary
280
1
281
1
  3
CREATED_BY_EZDXF
350
2E
  3
WRITTEN_BY_EZDXF
350
104
  0
DICTIONARYVAR
  5
2E
330
2D
100
DictionaryVariables
280
0
  1
1.4.3 @ 2026-06-10T16:53:24.209896+00:00
  0
DICTIONARYVAR
  5
104
330
2D
100
DictionaryVariables
280
0
  1
1.4.3 @ 2026-06-10T16:53:24.218401+00:00
  0
ENDSEC
  0
EOF
