  0
SECTION
  2
HEADER
  9
$ACADVER
  1
AC1024
  9
$ACADMAINTVER
 70
6
  9
$DWGCODEPAGE
  3
ANSI_1252
  9
$LASTSAVEDBY
  1
ezdxf
  9
$INSBASE
 10
0.0
 20
0.0
 30
0.0
  9
$EXTMIN
 10
1e+20
 20
1e+20
 30
1e+20
  9
$EXTMAX
 10
-1e+20
 20
-1e+20
 30
-1e+20
  9
$LIMMIN
 10
0.0
 20
0.0
  9
$LIMMAX
 10
420.0
 20
297.0
  9
$ORTHOMODE
 70
0
  9
$REGENMODE
 70
1
  9
$FILLMODE
 70
1
  9
$QTEXTMODE
 70
0
  9
$MIRRTEXT
 70
1
  9
$LTSCALE
 40
1.0
  9
$ATTMODE
 70
1
  9
$TEXTSIZE
 40
2.5
  9
$TRACEWID
 40
1.0
  9
$TEXTSTYLE
  7
Standard
  9
$CLAYER
  8
0
  9
$CELTYPE
  6
ByLayer
  9
$CECOLOR
 62
256
  9
$CELTSCALE
 40
1.0
  9
$DISPSILH
 70
0
  9
$DIMSCALE
 40
1.0
  9
$DIMASZ
 40
2.5
  9
$DIMEXO
 40
0.625
  9
$DIMDLI
 40
3.75
  9
$DIMRND
 40
0.0
  9
$DIMDLE
 40
0.0
  9
$DIMEXE
 40
1.25
  9
$DIMTP
 40
0.0
  9
$DIMTM
 40
0.0
  9
$DIMTXT
 40
2.5
  9
$DIMCEN
 40
2.5
  9
$DIMTSZ
 40
0.0
  9
$DIMTOL
 70
0
  9
$DIMLIM
 70
0
  9
$DIMTIH
 70
0
  9
$DIMTOH
 70
0
  9
$DIMSE1
 70
0
  9
$DIMSE2
 70
0
  9
$DIMTAD
 70
1
  9
$DIMZIN
 70
8
  9
$DIMBLK
  1

  9
$DIMASO
 70
1
  9
$DIMSHO
 70
1
  9
$DIMPOST
  1

  9
$DIMAPOST
  1

  9
$DIMALT
 70
0
  9
$DIMALTD
 70
3
  9
$DIMALTF
 40
0.03937007874
  9
$DIMLFAC
 40
1.0
  9
$DIMTOFL
 70
1
  9
$DIMTVP
 40
0.0
  9
$DIMTIX
 70
0
  9
$DIMSOXD
 70
0
  9
$DIMSAH
 70
0
  9
$DIMBLK1
  1

  9
$DIMBLK2
  1

  9
$DIMSTYLE
  2
ISO-25
  9
$DIMCLRD
 70
0
  9
$DIMCLRE
 70
0
  9
$DIMCLRT
 70
0
  9
$DIMTFAC
 40
1.0
  9
$DIMGAP
 40
0.625
  9
$DIMJUST
 70
0
  9
$DIMSD1
 70
0
  9
$DIMSD2
 70
0
  9
$DIMTOLJ
 70
0
  9
$DIMTZIN
 70
8
  9
$DIMALTZ
 70
0
  9
$DIMALTTZ
 70
0
  9
$DIMUPT
 70
0
  9
$DIMDEC
 70
2
  9
$DIMTDEC
 70
2
  9
$DIMALTU
 70
2
  9
$DIMALTTD
 70
3
  9
$DIMTXSTY
  7
Standard
  9
$DIMAUNIT
 70
0
  9
$DIMADEC
 70
0
  9
$DIMALTRND
 40
0.0
  9
$DIMAZIN
 70
0
  9
$DIMDSEP
 70
44
  9
$DIMATFIT
 70
3
  9
$DIMFRAC
 70
0
  9
$DIMLDRBLK
  1

  9
$DIMLUNIT
 70
2
  9
$DIMLWD
 70
-2
  9
$DIMLWE
 70
-2
  9
$DIMTMOVE
 70
0
  9
$DIMFXL
 40
1.0
  9
$DIMFXLON
 70
0
  9
$DIMJOGANG
 40
0.785398163397
  9
$DIMTFILL
 70
0
  9
$DIMTFILLCLR
 70
0
  9
$DIMARCSYM
 70
0
  9
$DIMLTYPE
  6

  9
$DIMLTEX1
  6

  9
$DIMLTEX2
  6

  9
$DIMTXTDIRECTION
 70
0
  9
$LUNITS
 70
2
  9
$LUPREC
 70
4
  9
$SKETCHINC
 40
1.0
  9
$FILLETRAD
 40
10.0
  9
$AUNITS
 70
0
  9
$AUPREC
 70
2
  9
$MENU
  1
.
  9
$ELEVATION
 40
0.0
  9
$PELEVATION
 40
0.0
  9
$THICKNESS
 40
0.0
  9
$LIMCHECK
 70
0
  9
$CHAMFERA
 40
0.0
  9
$CHAMFERB
 40
0.0
  9
$CHAMFERC
 40
0.0
  9
$CHAMFERD
 40
0.0
  9
$SKPOLY
 70
0
  9
$TDCREATE
 40
2461202.6125925924
  9
$TDUCREATE
 40
2458532.153996898
  9
$TDUPDATE
 40
2461202.6125925924
  9
$TDUUPDATE
 40
2458532.1544311
  9
$TDINDWG
 40
0.0
  9
$TDUSRTIMER
 40
0.0
  9
$USRTIMER
 70
1
  9
$ANGBASE
 50
0.0
  9
$ANGDIR
 70
0
  9
$PDMODE
 70
0
  9
$PDSIZE
 40
0.0
  9
$PLINEWID
 40
0.0
  9
$SPLFRAME
 70
0
  9
$SPLINETYPE
 70
6
  9
$SPLINESEGS
 70
8
  9
$HANDSEED
  5
1AC
  9
$SURFTAB1
 70
6
  9
$SURFTAB2
 70
6
  9
$SURFTYPE
 70
6
  9
$SURFU
 70
6
  9
$SURFV
 70
6
  9
$UCSBASE
  2

  9
$UCSNAME
  2

  9
$UCSORG
 10
0.0
 20
0.0
 30
0.0
  9
$UCSXDIR
 10
1.0
 20
0.0
 30
0.0
  9
$UCSYDIR
 10
0.0
 20
1.0
 30
0.0
  9
$UCSORTHOREF
  2

  9
$UCSORTHOVIEW
 70
0
  9
$UCSORGTOP
 10
0.0
 20
0.0
 30
0.0
  9
$UCSORGBOTTOM
 10
0.0
 20
0.0
 30
0.0
  9
$UCSORGLEFT
 10
0.0
 20
0.0
 30
0.0
  9
$UCSORGRIGHT
 10
0.0
 20
0.0
 30
0.0
  9
$UCSORGFRONT
 10
0.0
 20
0.0
 30
0.0
  9
$UCSORGBACK
 10
0.0
 20
0.0
 30
0.0
  9
$PUCSBASE
  2

  9
$PUCSNAME
  2

  9
$PUCSORG
 10
0.0
 20
0.0
 30
0.0
  9
$PUCSXDIR
 10
1.0
 20
0.0
 30
0.0
  9
$PUCSYDIR
 10
0.0
 20
1.0
 30
0.0
  9
$PUCSORTHOREF
  2

  9
$PUCSORTHOVIEW
 70
0
  9
$PUCSORGTOP
 10
0.0
 20
0.0
 30
0.0
  9
$PUCSORGBOTTOM
 10
0.0
 20
0.0
 30
0.0
  9
$PUCSORGLEFT
 10
0.0
 20
0.0
 30
0.0
  9
$PUCSORGRIGHT
 10
0.0
 20
0.0
 30
0.0
  9
$PUCSORGFRONT
 10
0.0
 20
0.0
 30
0.0
  9
$PUCSORGBACK
 10
0.0
 20
0.0
 30
0.0
  9
$USERI1
 70
0
  9
$USERI2
 70
0
  9
$USERI3
 70
0
  9
$USERI4
 70
0
  9
$USERI5
 70
0
  9
$USERR1
 40
0.0
  9
$USERR2
 40
0.0
  9
$USERR3
 40
0.0
  9
$USERR4
 40
0.0
  9
$USERR5
 40
0.0
  9
$WORLDVIEW
 70
1
  9
$SHADEDGE
 70
3
  9
$SHADEDIF
 70
70
  9
$TILEMODE
 70
1
  9
$MAXACTVP
 70
64
  9
$PINSBASE
 10
0.0
 20
0.0
 30
0.0
  9
$PLIMCHECK
 70
0
  9
$PEXTMIN
 10
1e+20
 20
1e+20
 30
1e+20
  9
$PEXTMAX
 10
-1e+20
 20
-1e+20
 30
-1e+20
  9
$PLIMMIN
 10
0.0
 20
0.0
  9
$PLIMMAX
 10
420.0
 20
297.0
  9
$UNITMODE
 70
0
  9
$VISRETAIN
 70
1
  9
$PLINEGEN
 70
0
  9
$PSLTSCALE
 70
1
  9
$TREEDEPTH
 70
3020
  9
$CMLSTYLE
  2
Standard
  9
$CMLJUST
 70
0
  9
$CMLSCALE
 40
20.0
  9
$PROXYGRAPHICS
 70
1
  9
$MEASUREMENT
 70
1
  9
$CELWEIGHT
370
-1
  9
$ENDCAPS
280
0
  9
$JOINSTYLE
280
0
  9
$LWDISPLAY
290
0
  9
$INSUNITS
 70
6
  9
$HYPERLINKBASE
  1

  9
$STYLESHEET
  1

  9
$XEDIT
290
1
  9
$CEPSNTYPE
380
0
  9
$PSTYLEMODE
290
1
  9
$FINGERPRINTGUID
  2
{E840DA86-C16B-4EF3-99A9-9F7FC5671C0D}
  9
$VERSIONGUID
  2
{10D65D49-65FE-4A4C-ABF5-35599C7CB036}
  9
$EXTNAMES
290
1
  9
$PSVPSCALE
 40
0.0
  9
$OLESTARTUP
290
0
  9
$SORTENTS
280
127
  9
$INDEXCTL
280
0
  9
$HIDETEXT
280
1
  9
$XCLIPFRAME
280
1
  9
$HALOGAP
280
0
  9
$OBSCOLOR
 70
257
  9
$OBSLTYPE
280
0
  9
$INTERSECTIONDISPLAY
280
0
  9
$INTERSECTIONCOLOR
 70
257
  9
$DIMASSOC
280
2
  9
$PROJECTNAME
  1

  9
$CAMERADISPLAY
290
0
  9
$LENSLENGTH
 40
50.0
  9
$CAMERAHEIGHT
 40
0.0
  9
$STEPSPERSEC
 40
24.0
  9
$STEPSIZE
 40
100.0
  9
$3DDWFPREC
 40
2.0
  9
$PSOLWIDTH
 40
0.005
  9
$PSOLHEIGHT
 40
0.08
  9
$LOFTANG1
 40
1.570796326795
  9
$LOFTANG2
 40
1.570796326795
  9
$LOFTMAG1
 40
0.0
  9
$LOFTMAG2
 40
0.0
  9
$LOFTPARAM
 70
7
  9
$LOFTNORMALS
280
1
  9
$LATITUDE
 40
37.795
  9
$LONGITUDE
 40
-122.394
  9
$NORTHDIRECTION
 40
0.0
  9
$TIMEZONE
 70
-8000
  9
$LIGHTGLYPHDISPLAY
280
1
  9
$TILEMODELIGHTSYNCH
280
1
  9
$CMATERIAL
347
20
  9
$SOLIDHIST
280
0
  9
$SHOWHIST
280
1
  9
$DWFFRAME
280
2
  9
$DGNFRAME
280
2
  9
$REALWORLDSCALE
290
1
  9
$INTERFERECOLOR
 62
256
  9
$CSHADOW
280
0
  9
$SHADOWPLANELOCATION
 40
0.0
  0
ENDSEC
  0
SECTION
  2
CLASSES
  0
CLASS
  1
ACDBDICTIONARYWDFLT
  2
AcDbDictionaryWithDefault
  3
ObjectDBX Classes
 90
0
 91
0
280
0
281
0
  0
CLASS
  1
SUN
  2
AcDbSun
  3
SCENEOE
 90
1153
 91
0
280
0
281
0
  0
CLASS
  1
VISUALSTYLE
  2
AcDbVisualStyle
  3
ObjectDBX Classes
 90
4095
 91
0
280
0
281
0
  0
CLASS
  1
MATERIAL
  2
AcDbMaterial
  3
ObjectDBX Classes
 90
1153
 91
0
280
0
281
0
  0
CLASS
  1
SCALE
  2
AcDbScale
  3
ObjectDBX Classes
 90
1153
 91
0
280
0
281
0
  0
CLASS
  1
TABLESTYLE
  2
AcDbTableStyle
  3
ObjectDBX Classes
 90
4095
 91
0
280
0
281
0
  0
CLASS
  1
MLEADERSTYLE
  2
AcDbMLeaderStyle
  3
ACDB_MLEADERSTYLE_CLASS
 90
4095
 91
0
280
0
281
0
  0
CLASS
  1
DICTIONARYVAR
  2
AcDbDictionaryVar
  3
ObjectDBX Classes
 90
0
 91
0
280
0
281
0
  0
CLASS
  1
CELLSTYLEMAP
  2
AcDbCellStyleMap
  3
ObjectDBX Classes
 90
1152
 91
0
280
0
281
0
  0
CLASS
  1
MENTALRAYRENDERSETTINGS
  2
AcDbMentalRayRenderSettings
  3
SCENEOE
 90
1024
 91
0
280
0
281
0
  0
CLASS
  1
ACDBDETAILVIEWSTYLE
  2
AcDbDetailViewStyle
  3
ObjectDBX Classes
 90
1025
 91
0
280
0
281
0
  0
CLASS
  1
ACDBSECTIONVIEWSTYLE
  2
AcDbSectionViewStyle
  3
ObjectDBX Classes
 90
1025
 91
0
280
0
281
0
  0
CLASS
  1
RASTERVARIABLES
  2
AcDbRasterVariables
  3
ISM
 90
0
 91
0
280
0
281
0
  0
CLASS
  1
ACDBPLACEHOLDER
  2
AcDbPlaceHolder
  3
ObjectDBX Classes
 90
0
 91
0
280
0
281
0
  0
CLASS
  1
LAYOUT
  2
AcDbLayout
  3
ObjectDBX Classes
 90
0
 91
0
280
0
281
0
  0
ENDSEC
  0
SECTION
  2
TABLES
  0
TABLE
  2
VPORT
  5
8
330
0
100
AcDbSymbolTable
 70
1
  0
VPORT
  5
23
330
8
100
AcDbSymbolTableRecord
100
AcDbViewportTableRecord
  2
*Active
 70
0
 10
0.0
 20
0.0
 11
1.0
 21
1.0
 12
0.0
 22
0.0
 13
0.0
 23
0.0
 14
0.5
 24
0.5
 15
0.5
 25
0.5
 16
0.0
 26
0.0
 36
1.0
 17
0.0
 27
0.0
 37
0.0
 40
1000.0
 41
1.34
 42
50.0
 43
0.0
 44
0.0
 50
0.0
 51
0.0
 71
0
 72
1000
 73
1
 74
3
 75
0
 76
0
 77
0
 78
0
281
0
 65
0
146
0.0
  0
ENDTAB
  0
TABLE
  2
LTYPE
  5
2
330
0
100
AcDbSymbolTable
 70
3
  0
LTYPE
  5
24
330
2
100
AcDbSymbolTableRecord
100
AcDbLinetypeTableRecord
  2
ByBlock
 70
0
  3

 72
65
 73
0
 40
0.0
  0
LTYPE
  5
25
330
2
100
AcDbSymbolTableRecord
100
AcDbLinetypeTableRecord
  2
ByLayer
 70
0
  3

 72
65
 73
0
 40
0.0
  0
LTYPE
  5
26
330
2
100
AcDbSymbolTableRecord
100
AcDbLinetypeTableRecord
  2
Continuous
 70
0
  3

 72
65
 73
0
 40
0.0
  0
ENDTAB
  0
TABLE
  2
LAYER
  5
1
330
0
100
AcDbSymbolTable
 70
14
  0
LAYER
  5
27
330
1
100
AcDbSymbolTableRecord
100
AcDbLayerTableRecord
  2
0
 70
0
 62
7
  6
Continuous
370
-3
390
13
347
21
  0
LAYER
  5
28
330
1
100
AcDbSymbolTableRecord
100
AcDbLayerTableRecord
  2
Defpoints
 70
0
 62
7
  6
Continuous
290
0
370
-3
390
13
347
21
  0
LAYER
  5
2F
330
1
100
AcDbSymbolTableRecord
100
AcDbLayerTableRecord
  2
detalhes
 70
0
 62
7
  6
Continuous
370
-3
390
13
347
21
  0
LAYER
  5
30
330
1
100
AcDbSymbolTableRecord
100
AcDbLayerTableRecord
  2
Hachura
 70
0
 62
7
  6
Continuous
370
-3
390
13
347
21
  0
LAYER
  5
31
330
1
100
AcDbSymbolTableRecord
100
AcDbLayerTableRecord
  2
COTA
 70
0
 62
7
  6
Continuous
370
-3
390
13
347
21
  0
LAYER
  5
32
330
1
100
AcDbSymbolTableRecord
100
AcDbLayerTableRecord
  2
SARR_3.5x7
 70
0
 62
7
  6
Continuous
370
-3
390
13
347
21
  0
LAYER
  5
33
330
1
100
AcDbSymbolTableRecord
100
AcDbLayerTableRecord
  2
CONCRETO
 70
0
 62
7
  6
Continuous
370
-3
390
13
347
21
  0
LAYER
  5
34
330
1
100
AcDbSymbolTableRecord
100
AcDbLayerTableRecord
  2
Madeira
 70
0
 62
7
  6
Continuous
370
-3
390
13
347
21
  0
LAYER
  5
35
330
1
100
AcDbSymbolTableRecord
100
AcDbLayerTableRecord
  2
Cota Seção (2x)
 70
0
 62
7
  6
Continuous
370
-3
390
13
347
21
  0
LAYER
  5
36
330
1
100
AcDbSymbolTableRecord
100
AcDbLayerTableRecord
  2
Painéis
 70
0
 62
7
  6
Continuous
370
-3
390
13
347
21
  0
LAYER
  5
37
330
1
100
AcDbSymbolTableRecord
100
AcDbLayerTableRecord
  2
REAPROVEITAMENTO
 70
0
 62
7
  6
Continuous
370
-3
390
13
347
21
  0
LAYER
  5
38
330
1
100
AcDbSymbolTableRecord
100
AcDbLayerTableRecord
  2
Texto Seção
 70
0
 62
7
  6
Continuous
370
-3
390
13
347
21
  0
LAYER
  5
39
330
1
100
AcDbSymbolTableRecord
100
AcDbLayerTableRecord
  2
SARR_2.2x7
 70
0
 62
7
  6
Continuous
370
-3
390
13
347
21
  0
LAYER
  5
3A
330
1
100
AcDbSymbolTableRecord
100
AcDbLayerTableRecord
  2
5
 70
0
 62
7
  6
Continuous
370
-3
390
13
347
21
  0
ENDTAB
  0
TABLE
  2
STYLE
  5
5
330
0
100
AcDbSymbolTable
 70
1
  0
STYLE
  5
29
330
5
100
AcDbSymbolTableRecord
100
AcDbTextStyleTableRecord
  2
Standard
 70
0
 40
0.0
 41
1.0
 50
0.0
 71
0
 42
2.5
  3
txt
  4

  0
ENDTAB
  0
TABLE
  2
VIEW
  5
7
330
0
100
AcDbSymbolTable
 70
0
  0
ENDTAB
  0
TABLE
  2
UCS
  5
6
330
0
100
AcDbSymbolTable
 70
0
  0
ENDTAB
  0
TABLE
  2
APPID
  5
3
330
0
100
AcDbSymbolTable
 70
3
  0
APPID
  5
2A
330
3
100
AcDbSymbolTableRecord
100
AcDbRegAppTableRecord
  2
ACAD
 70
0
  0
APPID
  5
1A9
330
3
100
AcDbSymbolTableRecord
100
AcDbRegAppTableRecord
  2
HATCHBACKGROUNDCOLOR
 70
0
  0
APPID
  5
1AA
330
3
100
AcDbSymbolTableRecord
100
AcDbRegAppTableRecord
  2
EZDXF
 70
0
  0
ENDTAB
  0
TABLE
  2
DIMSTYLE
  5
4
330
0
100
AcDbSymbolTable
 70
1
100
AcDbDimStyleTable
  0
DIMSTYLE
105
2B
330
4
100
AcDbSymbolTableRecord
100
AcDbDimStyleTableRecord
  2
Standard
 70
0
 40
1.0
 41
2.5
 42
0.625
 43
3.75
 44
1.25
 45
0.0
 46
0.0
 47
0.0
 48
0.0
 49
2.5
140
2.5
141
2.5
142
0.0
143
0.03937007874
144
1.0
145
0.0
146
1.0
147
0.625
148
0.0
 69
0
 70
0
 71
0
 72
0
 73
0
 74
0
 75
0
 76
0
 77
1
 78
8
 79
3
170
0
171
3
172
1
173
0
174
0
175
0
176
0
177
0
178
0
179
2
271
2
272
2
273
2
274
3
275
0
276
0
277
2
278
44
279
0
280
0
281
0
282
0
283
0
284
8
285
0
286
0
288
0
289
3
290
0
371
-2
372
-2
  0
ENDTAB
  0
TABLE
  2
BLOCK_RECORD
  5
9
330
0
100
AcDbSymbolTable
 70
2
  0
BLOCK_RECORD
  5
17
330
9
100
AcDbSymbolTableRecord
100
AcDbBlockTableRecord
  2
*Model_Space
340
1A
 70
0
280
1
281
0
  0
BLOCK_RECORD
  5
1B
330
9
100
AcDbSymbolTableRecord
100
AcDbBlockTableRecord
  2
*Paper_Space
340
1E
 70
0
280
1
281
0
  0
ENDTAB
  0
ENDSEC
  0
SECTION
  2
BLOCKS
  0
BLOCK
  5
18
330
17
100
AcDbEntity
  8
0
100
AcDbBlockBegin
  2
*Model_Space
 70
0
 10
0.0
 20
0.0
 30
0.0
  3
*Model_Space
  1

  0
ENDBLK
  5
19
330
17
100
AcDbEntity
  8
0
100
AcDbBlockEnd
  0
BLOCK
  5
1C
330
1B
100
AcDbEntity
  8
0
100
AcDbBlockBegin
  2
*Paper_Space
 70
0
 10
0.0
 20
0.0
 30
0.0
  3
*Paper_Space
  1

  0
ENDBLK
  5
1D
330
1B
100
AcDbEntity
  8
0
100
AcDbBlockEnd
  0
ENDSEC
  0
SECTION
  2
ENTITIES
  0
LINE
  5
3B
330
17
100
AcDbEntity
  8
Painéis
 62
200
370
25
100
AcDbLine
 10
2254.33081606544
 20
5585.863987777608
 30
0.0
 11
2383.33081606544
 21
5585.863987777608
 31
0.0
  0
LINE
  5
3C
330
17
100
AcDbEntity
  8
Painéis
 62
200
370
25
100
AcDbLine
 10
2315.33081606544
 20
5585.863987777608
 30
0.0
 11
2315.33081606544
 21
5630.863987777608
 31
0.0
  0
LINE
  5
3D
330
17
100
AcDbEntity
  8
SARR_2.2x7
 62
40
370
25
100
AcDbLine
 10
2261.33081606544
 20
5623.863987777607
 30
0.0
 11
2315.33081606544
 21
5623.863987777607
 31
0.0
  0
LINE
  5
3E
330
17
100
AcDbEntity
  8
SARR_2.2x7
 62
40
370
25
100
AcDbLine
 10
2315.33081606544
 20
5623.863987777607
 30
0.0
 11
2376.33081606544
 21
5623.863987777609
 31
0.0
  0
LINE
  5
3F
330
17
100
AcDbEntity
  8
SARR_2.2x7
 62
40
370
25
100
AcDbLine
 10
2261.33081606544
 20
5585.863987777608
 30
0.0
 11
2261.33081606544
 21
5630.863987777608
 31
0.0
  0
LINE
  5
40
330
17
100
AcDbEntity
  8
SARR_2.2x7
 62
40
370
25
100
AcDbLine
 10
2376.33081606544
 20
5585.863987777608
 30
0.0
 11
2376.33081606544
 21
5630.863987777608
 31
0.0
  0
LINE
  5
41
330
17
100
AcDbEntity
  8
Painéis
 62
200
370
25
100
AcDbLine
 10
2254.33081606544
 20
5630.863987777608
 30
0.0
 11
2383.33081606544
 21
5630.863987777608
 31
0.0
  0
LINE
  5
42
330
17
100
AcDbEntity
  8
Painéis
 62
200
370
25
100
AcDbLine
 10
2254.33081606544
 20
5585.863987777608
 30
0.0
 11
2254.33081606544
 21
5630.863987777608
 31
0.0
  0
LINE
  5
43
330
17
100
AcDbEntity
  8
Painéis
 62
200
370
25
100
AcDbLine
 10
2383.33081606544
 20
5585.863987777608
 30
0.0
 11
2383.33081606544
 21
5630.863987777608
 31
0.0
  0
LINE
  5
44
330
17
100
AcDbEntity
  8
COTA
 62
241
370
25
100
AcDbLine
 10
2383.33081606544
 20
5630.863987777608
 30
0.0
 11
2383.33081606544
 21
5644.863987777608
 31
0.0
  0
LINE
  5
45
330
17
100
AcDbEntity
  8
COTA
 62
241
370
25
100
AcDbLine
 10
2383.33081606544
 20
5644.863987777608
 30
0.0
 11
2254.33081606544
 21
5644.863987777604
 31
0.0
  0
LINE
  5
46
330
17
100
AcDbEntity
  8
COTA
 62
241
370
25
100
AcDbLine
 10
2254.33081606544
 20
5644.863987777604
 30
0.0
 11
2254.33081606544
 21
5630.863987777608
 31
0.0
  0
LINE
  5
47
330
17
100
AcDbEntity
  8
SARR_2.2x7
 62
40
370
25
100
AcDbLine
 10
2419.694818002461
 20
5637.863987777606
 30
0.0
 11
2581.694818002465
 21
5637.863987777618
 31
0.0
  0
LINE
  5
48
330
17
100
AcDbEntity
  8
SARR_2.2x7
 62
40
370
25
100
AcDbLine
 10
2419.694818002469
 20
5585.863987777608
 30
0.0
 11
2419.694818002461
 21
5644.863987777608
 31
0.0
  0
LINE
  5
49
330
17
100
AcDbEntity
  8
Painéis
 62
200
370
25
100
AcDbLine
 10
2412.694818002461
 20
5644.863987777608
 30
0.0
 11
2588.694818002465
 21
5644.863987777615
 31
0.0
  0
LINE
  5
4A
330
17
100
AcDbEntity
  8
Painéis
 62
200
370
25
100
AcDbLine
 10
2412.694818002468
 20
5585.863987777608
 30
0.0
 11
2990.694818002465
 21
5585.863987777634
 31
0.0
  0
LINE
  5
4B
330
17
100
AcDbEntity
  8
Painéis
 62
200
370
25
100
AcDbLine
 10
2615.694818002465
 20
5585.863987777623
 30
0.0
 11
2615.694818002461
 21
5644.863987777622
 31
0.0
  0
LINE
  5
4C
330
17
100
AcDbEntity
  8
Painéis
 62
200
370
25
100
AcDbLine
 10
2412.694818002468
 20
5585.863987777608
 30
0.0
 11
2412.694818002461
 21
5644.863987777608
 31
0.0
  0
LINE
  5
4D
330
17
100
AcDbEntity
  8
Painéis
 62
200
370
25
100
AcDbLine
 10
2615.694818002465
 20
5590.863987777616
 30
0.0
 11
2588.694818002465
 21
5590.863987777616
 31
0.0
  0
LINE
  5
4E
330
17
100
AcDbEntity
  8
Painéis
 62
200
370
25
100
AcDbLine
 10
2588.694818002465
 20
5590.863987777616
 30
0.0
 11
2588.694818002465
 21
5644.863987777615
 31
0.0
  0
LINE
  5
4F
330
17
100
AcDbEntity
  8
COTA
 62
241
370
25
100
AcDbLine
 10
2588.694818002465
 20
5644.863987777615
 30
0.0
 11
2615.694818002461
 21
5644.863987777622
 31
0.0
  0
LINE
  5
50
330
17
100
AcDbEntity
  8
SARR_2.2x7
 62
40
370
25
100
AcDbLine
 10
2983.694818002465
 20
5637.863987777606
 30
0.0
 11
2821.694818002468
 21
5637.863987777619
 31
0.0
  0
LINE
  5
51
330
17
100
AcDbEntity
  8
SARR_2.2x7
 62
40
370
25
100
AcDbLine
 10
2983.694818002461
 20
5585.863987777608
 30
0.0
 11
2983.694818002465
 21
5644.863987777608
 31
0.0
  0
LINE
  5
52
330
17
100
AcDbEntity
  8
Painéis
 62
200
370
25
100
AcDbLine
 10
2990.694818002465
 20
5644.863987777608
 30
0.0
 11
2814.694818002465
 21
5644.863987777615
 31
0.0
  0
LINE
  5
53
330
17
100
AcDbEntity
  8
Painéis
 62
200
370
25
100
AcDbLine
 10
2787.694818002465
 20
5585.863987777623
 30
0.0
 11
2787.694818002468
 21
5644.863987777622
 31
0.0
  0
LINE
  5
54
330
17
100
AcDbEntity
  8
Painéis
 62
200
370
25
100
AcDbLine
 10
2990.694818002461
 20
5585.863987777608
 30
0.0
 11
2990.694818002465
 21
5644.863987777608
 31
0.0
  0
LINE
  5
55
330
17
100
AcDbEntity
  8
Painéis
 62
200
370
25
100
AcDbLine
 10
2787.694818002465
 20
5590.863987777616
 30
0.0
 11
2814.694818002465
 21
5590.863987777616
 31
0.0
  0
LINE
  5
56
330
17
100
AcDbEntity
  8
Painéis
 62
200
370
25
100
AcDbLine
 10
2814.694818002465
 20
5590.863987777616
 30
0.0
 11
2814.694818002465
 21
5644.863987777615
 31
0.0
  0
LINE
  5
57
330
17
100
AcDbEntity
  8
COTA
 62
241
370
25
100
AcDbLine
 10
2814.694818002465
 20
5644.863987777615
 30
0.0
 11
2787.694818002468
 21
5644.863987777622
 31
0.0
  0
LINE
  5
58
330
17
100
AcDbEntity
  8
Painéis
 62
200
370
25
100
AcDbLine
 10
2615.694818002465
 20
5644.863987777615
 30
0.0
 11
2787.694818002468
 21
5644.863987777608
 31
0.0
  0
LINE
  5
59
330
17
100
AcDbEntity
  8
SARR_2.2x7
 62
40
370
25
100
AcDbLine
 10
2780.694818002465
 20
5637.863987777661
 30
0.0
 11
2622.694818002461
 21
5637.86398777758
 31
0.0
  0
LINE
  5
5A
330
17
100
AcDbEntity
  8
COTA
 62
241
370
25
100
AcDbLine
 10
2340.173700962017
 20
5432.193099497615
 30
0.0
 11
3062.173700962018
 21
5432.193099497641
 31
0.0
  0
LINE
  5
5B
330
17
100
AcDbEntity
  8
COTA
 62
241
370
25
100
AcDbLine
 10
2340.173700962017
 20
5418.193099497615
 30
0.0
 11
2340.173700962017
 21
5432.193099497615
 31
0.0
  0
LINE
  5
5C
330
17
100
AcDbEntity
  8
SARR_2.2x7
 62
40
370
25
100
AcDbLine
 10
2347.173700962021
 20
5373.193099497615
 30
0.0
 11
2347.173700962017
 21
5418.193099497615
 31
0.0
  0
LINE
  5
5D
330
17
100
AcDbEntity
  8
SARR_2.2x7
 62
40
370
25
100
AcDbLine
 10
3053.173700962021
 20
5373.19309949764
 30
0.0
 11
3053.173700962017
 21
5418.19309949764
 31
0.0
  0
LINE
  5
5E
330
17
100
AcDbEntity
  8
COTA
 62
241
370
25
100
AcDbLine
 10
3062.173700962018
 20
5418.19309949764
 30
0.0
 11
3062.173700962018
 21
5432.193099497641
 31
0.0
  0
LINE
  5
5F
330
17
100
AcDbEntity
  8
Painéis
 62
200
370
25
100
AcDbLine
 10
2340.173700962017
 20
5418.193099497615
 30
0.0
 11
3062.173700962018
 21
5418.19309949764
 31
0.0
  0
LINE
  5
60
330
17
100
AcDbEntity
  8
Painéis
 62
200
370
25
100
AcDbLine
 10
2340.173700962021
 20
5373.193099497615
 30
0.0
 11
3062.173700962021
 21
5373.19309949764
 31
0.0
  0
LINE
  5
61
330
17
100
AcDbEntity
  8
Painéis
 62
200
370
25
100
AcDbLine
 10
2340.173700962021
 20
5373.193099497615
 30
0.0
 11
2340.173700962017
 21
5418.193099497615
 31
0.0
  0
LINE
  5
62
330
17
100
AcDbEntity
  8
Painéis
 62
200
370
25
100
AcDbLine
 10
2584.173700962021
 20
5373.19309949763
 30
0.0
 11
2584.173700962018
 21
5418.193099497629
 31
0.0
  0
LINE
  5
63
330
17
100
AcDbEntity
  8
Painéis
 62
200
370
25
100
AcDbLine
 10
3062.173700962021
 20
5373.19309949764
 30
0.0
 11
3062.173700962018
 21
5418.19309949764
 31
0.0
  0
LINE
  5
64
330
17
100
AcDbEntity
  8
Painéis
 62
200
370
25
100
AcDbLine
 10
2828.173700962021
 20
5373.19309949763
 30
0.0
 11
2828.173700962017
 21
5418.193099497629
 31
0.0
  0
LINE
  5
65
330
17
100
AcDbEntity
  8
SARR_2.2x7
 62
40
370
25
100
AcDbLine
 10
2581.694818002461
 20
5592.863987777597
 30
0.0
 11
2581.694818002461
 21
5644.863987777608
 31
0.0
  0
LINE
  5
66
330
17
100
AcDbEntity
  8
SARR_2.2x7
 62
40
370
25
100
AcDbLine
 10
2622.694818002468
 20
5585.863987777616
 30
0.0
 11
2622.694818002461
 21
5644.863987777615
 31
0.0
  0
LINE
  5
67
330
17
100
AcDbEntity
  8
SARR_2.2x7
 62
40
370
25
100
AcDbLine
 10
2821.694818002468
 20
5592.863987777597
 30
0.0
 11
2821.694818002468
 21
5644.863987777615
 31
0.0
  0
LINE
  5
68
330
17
100
AcDbEntity
  8
SARR_2.2x7
 62
40
370
25
100
AcDbLine
 10
2780.694818002461
 20
5585.863987777616
 30
0.0
 11
2780.694818002468
 21
5644.863987777615
 31
0.0
  0
LINE
  5
69
330
17
100
AcDbEntity
  8
SARR_2.2x7
 62
40
370
25
100
AcDbLine
 10
2419.694818002461
 20
5592.863987777611
 30
0.0
 11
2588.694818002465
 21
5592.863987777597
 31
0.0
  0
LINE
  5
6A
330
17
100
AcDbEntity
  8
SARR_2.2x7
 62
40
370
25
100
AcDbLine
 10
2983.694818002465
 20
5592.863987777611
 30
0.0
 11
2814.694818002465
 21
5592.863987777597
 31
0.0
  0
LINE
  5
6B
330
17
100
AcDbEntity
  8
SARR_2.2x7
 62
40
370
25
100
AcDbLine
 10
2780.694818002465
 20
5592.863987777556
 30
0.0
 11
2622.694818002461
 21
5592.863987777637
 31
0.0
  0
LINE
  5
6C
330
17
100
AcDbEntity
  8
SARR_2.2x7
 62
40
370
25
100
AcDbLine
 10
2821.694818002468
 20
5611.863987777634
 30
0.0
 11
2983.694818002439
 21
5611.8639877775
 31
0.0
  0
LINE
  5
6D
330
17
100
AcDbEntity
  8
SARR_2.2x7
 62
40
370
25
100
AcDbLine
 10
2821.694818002468
 20
5618.863987777331
 30
0.0
 11
2983.694818002465
 21
5618.863987777197
 31
0.0
  0
LINE
  5
6E
330
17
100
AcDbEntity
  8
SARR_2.2x7
 62
40
370
25
100
AcDbLine
 10
2622.694818002465
 20
5611.863987777638
 30
0.0
 11
2780.694818002443
 21
5611.863987777507
 31
0.0
  0
LINE
  5
6F
330
17
100
AcDbEntity
  8
SARR_2.2x7
 62
40
370
25
100
AcDbLine
 10
2622.694818002465
 20
5618.863987777338
 30
0.0
 11
2780.694818002468
 21
5618.863987777205
 31
0.0
  0
LINE
  5
70
330
17
100
AcDbEntity
  8
SARR_2.2x7
 62
40
370
25
100
AcDbLine
 10
2419.694818002465
 20
5611.938520004485
 30
0.0
 11
2581.69481800244
 21
5611.938520004348
 31
0.0
  0
LINE
  5
71
330
17
100
AcDbEntity
  8
SARR_2.2x7
 62
40
370
25
100
AcDbLine
 10
2419.694818002465
 20
5618.938520004182
 30
0.0
 11
2581.694818002461
 21
5618.938520004046
 31
0.0
  0
LINE
  5
72
330
17
100
AcDbEntity
  8
SARR_2.2x7
 62
40
370
25
100
AcDbLine
 10
2261.33081606544
 20
5592.863987777611
 30
0.0
 11
2315.33081606544
 21
5592.863987777611
 31
0.0
  0
LINE
  5
73
330
17
100
AcDbEntity
  8
SARR_2.2x7
 62
40
370
25
100
AcDbLine
 10
2315.33081606544
 20
5592.863987777611
 30
0.0
 11
2376.33081606544
 21
5592.863987777608
 31
0.0
  0
LINE
  5
74
330
17
100
AcDbEntity
  8
SARR_2.2x7
 62
40
370
25
100
AcDbLine
 10
2828.173700962017
 20
5411.193099497633
 30
0.0
 11
3053.173700962021
 21
5411.193099497641
 31
0.0
  0
LINE
  5
75
330
17
100
AcDbEntity
  8
SARR_2.2x7
 62
40
370
25
100
AcDbLine
 10
2828.173700962025
 20
5380.193099497649
 30
0.0
 11
3053.173700962021
 21
5380.19309949764
 31
0.0
  0
LINE
  5
76
330
17
100
AcDbEntity
  8
SARR_2.2x7
 62
40
370
25
100
AcDbLine
 10
2584.173700962021
 20
5411.193099497642
 30
0.0
 11
2828.173700962025
 21
5411.193099497649
 31
0.0
  0
LINE
  5
77
330
17
100
AcDbEntity
  8
SARR_2.2x7
 62
40
370
25
100
AcDbLine
 10
2584.173700962025
 20
5380.193099497656
 30
0.0
 11
2828.173700962025
 21
5380.193099497649
 31
0.0
  0
LINE
  5
78
330
17
100
AcDbEntity
  8
SARR_2.2x7
 62
40
370
25
100
AcDbLine
 10
2347.173700962021
 20
5411.193099497649
 30
0.0
 11
2584.173700962025
 21
5411.193099497657
 31
0.0
  0
LINE
  5
79
330
17
100
AcDbEntity
  8
SARR_2.2x7
 62
40
370
25
100
AcDbLine
 10
2347.173700962025
 20
5380.193099497663
 30
0.0
 11
2584.173700962025
 21
5380.193099497656
 31
0.0
  0
LINE
  5
7A
330
17
100
AcDbEntity
  8
SARR_2.2x7
 62
40
370
25
100
AcDbLine
 10
3079.427401848077
 20
5586.019731402893
 30
0.0
 11
3079.427401848077
 21
5645.020298448209
 31
0.0
  0
LINE
  5
7B
330
17
100
AcDbEntity
  8
SARR_2.2x7
 62
40
370
25
100
AcDbLine
 10
3033.427401848085
 20
5586.02029844821
 30
0.0
 11
3033.427401848078
 21
5645.020298448209
 31
0.0
  0
LINE
  5
7C
330
17
100
AcDbEntity
  8
SARR_2.2x7
 62
40
370
25
100
AcDbLine
 10
3086.427401848077
 20
5638.020298448201
 30
0.0
 11
3033.427401848078
 21
5638.020298448174
 31
0.0
  0
LINE
  5
7D
330
17
100
AcDbEntity
  8
SARR_2.2x7
 62
40
370
25
100
AcDbLine
 10
3086.427401848077
 20
5593.020298448205
 30
0.0
 11
3033.427401848078
 21
5593.020298448232
 31
0.0
  0
LINE
  5
7E
330
17
100
AcDbEntity
  8
SARR_2.2x7
 62
40
370
25
100
AcDbLine
 10
3033.427401848082
 20
5612.020298448232
 30
0.0
 11
3086.427401848077
 21
5612.020298448189
 31
0.0
  0
LINE
  5
7F
330
17
100
AcDbEntity
  8
SARR_2.2x7
 62
40
370
25
100
AcDbLine
 10
3033.427401848082
 20
5619.020298447932
 30
0.0
 11
3086.427401848077
 21
5619.020298447889
 31
0.0
  0
LINE
  5
80
330
17
100
AcDbEntity
  8
SARR_2.2x7
 62
40
370
25
100
AcDbLine
 10
2270.677839103779
 20
5372.521985310261
 30
0.0
 11
2270.677839103779
 21
5387.522552355577
 31
0.0
  0
LINE
  5
81
330
17
100
AcDbEntity
  8
SARR_2.2x7
 62
40
370
25
100
AcDbLine
 10
2316.677839103772
 20
5372.522552355579
 30
0.0
 11
2316.677839103779
 21
5431.52255235558
 31
0.0
  0
LINE
  5
82
330
17
100
AcDbEntity
  8
SARR_2.2x7
 62
40
370
25
100
AcDbLine
 10
2292.677839103779
 20
5424.522552355555
 30
0.0
 11
2316.677839103779
 21
5424.522552355543
 31
0.0
  0
LINE
  5
83
330
17
100
AcDbEntity
  8
SARR_2.2x7
 62
40
370
25
100
AcDbLine
 10
2263.677839103779
 20
5379.522552355574
 30
0.0
 11
2316.677839103779
 21
5379.522552355601
 31
0.0
  0
LINE
  5
84
330
17
100
AcDbEntity
  8
SARR_2.2x7
 62
40
370
25
100
AcDbLine
 10
2316.677839103775
 20
5398.522552355601
 30
0.0
 11
2292.677839103779
 21
5398.522552355581
 31
0.0
  0
LINE
  5
85
330
17
100
AcDbEntity
  8
SARR_2.2x7
 62
40
370
25
100
AcDbLine
 10
2316.677839103775
 20
5405.522552355301
 30
0.0
 11
2292.677839103779
 21
5405.522552355282
 31
0.0
  0
LINE
  5
86
330
17
100
AcDbEntity
  8
Painéis
 62
200
370
25
100
AcDbLine
 10
2292.677839103779
 20
5431.52255235558
 30
0.0
 11
2292.677839103779
 21
5387.522552355579
 31
0.0
  0
LINE
  5
87
330
17
100
AcDbEntity
  8
Painéis
 62
200
370
25
100
AcDbLine
 10
2292.677839103779
 20
5387.522552355579
 30
0.0
 11
2263.677839103779
 21
5387.522552355579
 31
0.0
  0
LINE
  5
88
330
17
100
AcDbEntity
  8
SARR_2.2x7
 62
40
370
25
100
AcDbLine
 10
2299.677839103779
 20
5387.522552355579
 30
0.0
 11
2299.677839103779
 21
5431.522552355603
 31
0.0
  0
LINE
  5
89
330
17
100
AcDbEntity
  8
SARR_2.2x7
 62
40
370
25
100
AcDbLine
 10
2299.677839103779
 20
5380.522552355579
 30
0.0
 11
2263.677839103779
 21
5380.522552355579
 31
0.0
  0
LINE
  5
8A
330
17
100
AcDbEntity
  8
SARR_2.2x7
 62
40
370
25
100
AcDbLine
 10
2292.677839103779
 20
5387.522552355579
 30
0.0
 11
2299.677839103779
 21
5387.522552355579
 31
0.0
  0
LINE
  5
8B
330
17
100
AcDbEntity
  8
SARR_2.2x7
 62
40
370
25
100
AcDbLine
 10
2299.677839103779
 20
5380.522552355579
 30
0.0
 11
2299.677839103779
 21
5387.522552355579
 31
0.0
  0
LINE
  5
8C
330
17
100
AcDbEntity
  8
COTA
 62
241
370
25
100
AcDbLine
 10
2263.677839103779
 20
5387.522552355579
 30
0.0
 11
2263.677839103779
 21
5431.52255235558
 31
0.0
  0
LINE
  5
8D
330
17
100
AcDbEntity
  8
COTA
 62
241
370
25
100
AcDbLine
 10
2263.677839103779
 20
5431.52255235558
 30
0.0
 11
2292.677839103779
 21
5431.52255235558
 31
0.0
  0
LINE
  5
8E
330
17
100
AcDbEntity
  8
SARR_2.2x7
 62
40
370
25
100
AcDbLine
 10
2261.330816065443
 20
5604.863987778259
 30
0.0
 11
2315.33081606544
 21
5604.863987778156
 31
0.0
  0
LINE
  5
8F
330
17
100
AcDbEntity
  8
SARR_2.2x7
 62
40
370
25
100
AcDbLine
 10
2315.33081606544
 20
5604.863987778156
 30
0.0
 11
2376.33081606544
 21
5604.863987778038
 31
0.0
  0
LINE
  5
90
330
17
100
AcDbEntity
  8
SARR_2.2x7
 62
40
370
25
100
AcDbLine
 10
2261.330816065443
 20
5611.86398777751
 30
0.0
 11
2315.33081606544
 21
5611.863987777613
 31
0.0
  0
LINE
  5
91
330
17
100
AcDbEntity
  8
SARR_2.2x7
 62
40
370
25
100
AcDbLine
 10
2315.33081606544
 20
5611.863987777613
 30
0.0
 11
2376.33081606544
 21
5611.863987777727
 31
0.0
  0
LINE
  5
92
330
17
100
AcDbEntity
  8
SARR_2.2x7
 62
40
370
25
100
AcDbLine
 10
2347.173700962025
 20
5392.193099498264
 30
0.0
 11
2584.218841721204
 21
5392.193099497813
 31
0.0
  0
LINE
  5
93
330
17
100
AcDbEntity
  8
SARR_2.2x7
 62
40
370
25
100
AcDbLine
 10
2347.173700962025
 20
5399.193099497516
 30
0.0
 11
2584.218841721204
 21
5399.193099497966
 31
0.0
  0
LINE
  5
94
330
17
100
AcDbEntity
  8
SARR_2.2x7
 62
40
370
25
100
AcDbLine
 10
2584.173700962025
 20
5392.193099498278
 30
0.0
 11
2828.173700962017
 21
5392.193099497814
 31
0.0
  0
LINE
  5
95
330
17
100
AcDbEntity
  8
SARR_2.2x7
 62
40
370
25
100
AcDbLine
 10
2584.173700962025
 20
5399.193099497531
 30
0.0
 11
2828.173700962017
 21
5399.193099497993
 31
0.0
  0
LINE
  5
96
330
17
100
AcDbEntity
  8
SARR_2.2x7
 62
40
370
25
100
AcDbLine
 10
2828.173700962025
 20
5392.193099498278
 30
0.0
 11
3053.173700962017
 21
5392.193099497851
 31
0.0
  0
LINE
  5
97
330
17
100
AcDbEntity
  8
SARR_2.2x7
 62
40
370
25
100
AcDbLine
 10
2828.173700962025
 20
5399.193099497531
 30
0.0
 11
3053.173700962017
 21
5399.193099497957
 31
0.0
  0
LINE
  5
98
330
17
100
AcDbEntity
  8
COTA
 62
4
370
25
100
AcDbLine
 10
2254.33081606544
 20
5582.863987777608
 30
0.0
 11
2254.33081606544
 21
5558.324061799439
 31
0.0
  0
LINE
  5
99
330
17
100
AcDbEntity
  8
COTA
 62
4
370
25
100
AcDbLine
 10
2315.33081606544
 20
5582.863987777623
 30
0.0
 11
2315.33081606544
 21
5558.324061799439
 31
0.0
  0
LINE
  5
9A
330
17
100
AcDbEntity
  8
COTA
 62
4
370
25
100
AcDbLine
 10
2254.33081606544
 20
5561.324061799439
 30
0.0
 11
2315.33081606544
 21
5561.324061799439
 31
0.0
  0
LINE
  5
9B
330
17
100
AcDbEntity
  8
COTA
 62
0
370
25
100
AcDbLine
 10
2255.83081606544
 20
5562.824061799439
 30
0.0
 11
2252.83081606544
 21
5559.824061799439
 31
0.0
  0
LINE
  5
9C
330
17
100
AcDbEntity
  8
COTA
 62
0
370
25
100
AcDbLine
 10
2313.83081606544
 20
5559.824061799439
 30
0.0
 11
2316.83081606544
 21
5562.824061799439
 31
0.0
  0
LINE
  5
9D
330
17
100
AcDbEntity
  8
COTA
 62
4
370
25
100
AcDbLine
 10
2315.33081606544
 20
5582.863987777623
 30
0.0
 11
2315.33081606544
 21
5558.324061799439
 31
0.0
  0
LINE
  5
9E
330
17
100
AcDbEntity
  8
COTA
 62
4
370
25
100
AcDbLine
 10
2383.33081606544
 20
5582.863987777608
 30
0.0
 11
2383.33081606544
 21
5558.324061799439
 31
0.0
  0
LINE
  5
9F
330
17
100
AcDbEntity
  8
COTA
 62
4
370
25
100
AcDbLine
 10
2315.33081606544
 20
5561.324061799439
 30
0.0
 11
2383.33081606544
 21
5561.324061799439
 31
0.0
  0
LINE
  5
A0
330
17
100
AcDbEntity
  8
COTA
 62
0
370
25
100
AcDbLine
 10
2316.83081606544
 20
5562.824061799439
 30
0.0
 11
2313.83081606544
 21
5559.824061799439
 31
0.0
  0
LINE
  5
A1
330
17
100
AcDbEntity
  8
COTA
 62
0
370
25
100
AcDbLine
 10
2381.83081606544
 20
5559.824061799439
 30
0.0
 11
2384.83081606544
 21
5562.824061799439
 31
0.0
  0
LINE
  5
A2
330
17
100
AcDbEntity
  8
COTA
 62
4
370
25
100
AcDbLine
 10
2254.33081606544
 20
5582.863987777608
 30
0.0
 11
2254.33081606544
 21
5524.785551110706
 31
0.0
  0
LINE
  5
A3
330
17
100
AcDbEntity
  8
COTA
 62
4
370
25
100
AcDbLine
 10
2383.33081606544
 20
5582.863987777608
 30
0.0
 11
2383.33081606544
 21
5524.785551110706
 31
0.0
  0
LINE
  5
A4
330
17
100
AcDbEntity
  8
COTA
 62
4
370
25
100
AcDbLine
 10
2254.33081606544
 20
5527.785551110706
 30
0.0
 11
2383.33081606544
 21
5527.785551110706
 31
0.0
  0
LINE
  5
A5
330
17
100
AcDbEntity
  8
COTA
 62
0
370
25
100
AcDbLine
 10
2255.83081606544
 20
5529.285551110706
 30
0.0
 11
2252.83081606544
 21
5526.285551110706
 31
0.0
  0
LINE
  5
A6
330
17
100
AcDbEntity
  8
COTA
 62
0
370
25
100
AcDbLine
 10
2381.83081606544
 20
5526.285551110706
 30
0.0
 11
2384.83081606544
 21
5529.285551110706
 31
0.0
  0
LINE
  5
A7
330
17
100
AcDbEntity
  8
COTA
 62
4
370
25
100
AcDbLine
 10
2251.330816065441
 20
5644.863987777609
 30
0.0
 11
2215.816161423375
 21
5644.863987777609
 31
0.0
  0
LINE
  5
A8
330
17
100
AcDbEntity
  8
COTA
 62
4
370
25
100
AcDbLine
 10
2251.330816065441
 20
5585.86398777761
 30
0.0
 11
2215.816161423375
 21
5585.86398777761
 31
0.0
  0
LINE
  5
A9
330
17
100
AcDbEntity
  8
COTA
 62
4
370
25
100
AcDbLine
 10
2218.816161423375
 20
5644.863987777609
 30
0.0
 11
2218.816161423375
 21
5585.86398777761
 31
0.0
  0
LINE
  5
AA
330
17
100
AcDbEntity
  8
COTA
 62
0
370
25
100
AcDbLine
 10
2220.316161423375
 20
5643.363987777609
 30
0.0
 11
2217.316161423375
 21
5646.363987777609
 31
0.0
  0
LINE
  5
AB
330
17
100
AcDbEntity
  8
COTA
 62
0
370
25
100
AcDbLine
 10
2217.316161423375
 20
5587.36398777761
 30
0.0
 11
2220.316161423375
 21
5584.36398777761
 31
0.0
  0
LINE
  5
AC
330
17
100
AcDbEntity
  8
COTA
 62
4
370
25
100
AcDbLine
 10
2251.330816065441
 20
5630.86398777761
 30
0.0
 11
2237.431667096981
 21
5630.86398777761
 31
0.0
  0
LINE
  5
AD
330
17
100
AcDbEntity
  8
COTA
 62
4
370
25
100
AcDbLine
 10
2251.330816065441
 20
5585.86398777761
 30
0.0
 11
2237.431667096981
 21
5585.86398777761
 31
0.0
  0
LINE
  5
AE
330
17
100
AcDbEntity
  8
COTA
 62
4
370
25
100
AcDbLine
 10
2240.431667096981
 20
5630.86398777761
 30
0.0
 11
2240.431667096981
 21
5585.86398777761
 31
0.0
  0
LINE
  5
AF
330
17
100
AcDbEntity
  8
COTA
 62
0
370
25
100
AcDbLine
 10
2241.931667096981
 20
5629.36398777761
 30
0.0
 11
2238.931667096981
 21
5632.36398777761
 31
0.0
  0
LINE
  5
B0
330
17
100
AcDbEntity
  8
COTA
 62
0
370
25
100
AcDbLine
 10
2238.931667096981
 20
5587.36398777761
 30
0.0
 11
2241.931667096981
 21
5584.36398777761
 31
0.0
  0
LINE
  5
B1
330
17
100
AcDbEntity
  8
COTA
 62
4
370
25
100
AcDbLine
 10
2251.330816065441
 20
5630.86398777761
 30
0.0
 11
2237.431667096978
 21
5630.86398777761
 31
0.0
  0
LINE
  5
B2
330
17
100
AcDbEntity
  8
COTA
 62
4
370
25
100
AcDbLine
 10
2251.330816065441
 20
5644.863987777609
 30
0.0
 11
2237.431667096978
 21
5644.863987777609
 31
0.0
  0
LINE
  5
B3
330
17
100
AcDbEntity
  8
COTA
 62
4
370
25
100
AcDbLine
 10
2240.431667096977
 20
5630.86398777761
 30
0.0
 11
2240.431667096977
 21
5644.863987777609
 31
0.0
  0
LINE
  5
B4
330
17
100
AcDbEntity
  8
COTA
 62
4
370
25
100
AcDbLine
 10
2240.431667096977
 20
5644.863987777609
 30
0.0
 11
2240.431667096977
 21
5663.980946841937
 31
0.0
  0
LINE
  5
B5
330
17
100
AcDbEntity
  8
COTA
 62
0
370
25
100
AcDbLine
 10
2238.931667096977
 20
5632.36398777761
 30
0.0
 11
2241.931667096977
 21
5629.36398777761
 31
0.0
  0
LINE
  5
B6
330
17
100
AcDbEntity
  8
COTA
 62
0
370
25
100
AcDbLine
 10
2241.931667096977
 20
5643.363987777609
 30
0.0
 11
2238.931667096977
 21
5646.363987777609
 31
0.0
  0
LINE
  5
B7
330
17
100
AcDbEntity
  8
COTA
 62
4
370
25
100
AcDbLine
 10
2699.397444372105
 20
5782.670908226222
 30
0.0
 11
2773.774167461484
 21
5782.670908226222
 31
0.0
  0
LINE
  5
B8
330
17
100
AcDbEntity
  8
COTA
 62
4
370
25
100
AcDbLine
 10
2721.397444372105
 20
5900.670908226217
 30
0.0
 11
2773.774167461484
 21
5900.670908226217
 31
0.0
  0
LINE
  5
B9
330
17
100
AcDbEntity
  8
COTA
 62
4
370
25
100
AcDbLine
 10
2770.774167461484
 20
5782.670908226222
 30
0.0
 11
2770.774167461484
 21
5900.670908226217
 31
0.0
  0
LINE
  5
BA
330
17
100
AcDbEntity
  8
COTA
 62
4
370
25
100
AcDbLine
 10
2588.197444372122
 20
5782.670908226222
 30
0.0
 11
2544.925711613985
 21
5782.670908226222
 31
0.0
  0
LINE
  5
BB
330
17
100
AcDbEntity
  8
COTA
 62
4
370
25
100
AcDbLine
 10
2613.397444372127
 20
5900.670908226224
 30
0.0
 11
2544.925711613985
 21
5900.670908226224
 31
0.0
  0
LINE
  5
BC
330
17
100
AcDbEntity
  8
COTA
 62
4
370
25
100
AcDbLine
 10
2547.925711613985
 20
5782.670908226222
 30
0.0
 11
2547.925711613985
 21
5900.670908226224
 31
0.0
  0
LINE
  5
BD
330
17
100
AcDbEntity
  8
Cota Seção (2x)
 62
180
370
25
100
AcDbLine
 10
2642.317483052798
 20
5851.004241559521
 30
0.0
 11
2642.317483052798
 21
5870.337574892855
 31
0.0
  0
LINE
  5
BE
330
17
100
AcDbEntity
  8
Cota Seção (2x)
 62
180
370
25
100
AcDbLine
 10
2642.317483052798
 20
5870.337574892855
 30
0.0
 11
2627.317483052797
 21
5870.337574892855
 31
0.0
  0
LINE
  5
BF
330
17
100
AcDbEntity
  8
Cota Seção (2x)
 62
180
370
25
100
AcDbLine
 10
2627.317483052797
 20
5870.337574892855
 30
0.0
 11
2627.317483052797
 21
5851.004241559521
 31
0.0
  0
LINE
  5
C0
330
17
100
AcDbEntity
  8
Cota Seção (2x)
 62
180
370
25
100
AcDbLine
 10
2627.317483052797
 20
5851.004241559521
 30
0.0
 11
2642.317483052798
 21
5851.004241559521
 31
0.0
  0
LINE
  5
C1
330
17
100
AcDbEntity
  8
COTA
 62
4
370
25
100
AcDbLine
 10
2721.397444372105
 20
5900.670908226217
 30
0.0
 11
2754.454738976019
 21
5900.670908226217
 31
0.0
  0
LINE
  5
C2
330
17
100
AcDbEntity
  8
COTA
 62
4
370
25
100
AcDbLine
 10
2721.397444372105
 20
5872.670908226194
 30
0.0
 11
2754.454738976019
 21
5872.670908226194
 31
0.0
  0
LINE
  5
C3
330
17
100
AcDbEntity
  8
COTA
 62
4
370
25
100
AcDbLine
 10
2751.454738976019
 20
5900.670908226217
 30
0.0
 11
2751.454738976019
 21
5872.670908226194
 31
0.0
  0
LINE
  5
C4
330
17
100
AcDbEntity
  8
COTA
 62
4
370
25
100
AcDbLine
 10
2721.397444372105
 20
5868.670908226195
 30
0.0
 11
2754.454738975695
 21
5868.670908226195
 31
0.0
  0
LINE
  5
C5
330
17
100
AcDbEntity
  8
COTA
 62
4
370
25
100
AcDbLine
 10
2699.397444372105
 20
5782.670908226222
 30
0.0
 11
2754.454738975695
 21
5782.670908226222
 31
0.0
  0
LINE
  5
C6
330
17
100
AcDbEntity
  8
COTA
 62
4
370
25
100
AcDbLine
 10
2751.454738975695
 20
5868.670908226195
 30
0.0
 11
2751.454738975695
 21
5782.670908226222
 31
0.0
  0
LINE
  5
C7
330
17
100
AcDbEntity
  8
COTA
 62
4
370
25
100
AcDbLine
 10
2662.797444372127
 20
5779.670908226213
 30
0.0
 11
2662.797444372127
 21
5734.94409442403
 31
0.0
  0
LINE
  5
C8
330
17
100
AcDbEntity
  8
COTA
 62
4
370
25
100
AcDbLine
 10
2624.797444372127
 20
5779.670908226213
 30
0.0
 11
2624.797444372127
 21
5734.94409442403
 31
0.0
  0
LINE
  5
C9
330
17
100
AcDbEntity
  8
COTA
 62
4
370
25
100
AcDbLine
 10
2662.797444372127
 20
5737.94409442403
 30
0.0
 11
2624.797444372127
 21
5737.94409442403
 31
0.0
  0
LINE
  5
CA
330
17
100
AcDbEntity
  8
Cota Seção (2x)
 62
180
370
25
100
AcDbLine
 10
2634.797444372156
 20
5802.670908226221
 30
0.0
 11
2652.797444372156
 21
5802.670908226221
 31
0.0
  0
LINE
  5
CB
330
17
100
AcDbEntity
  8
Cota Seção (2x)
 62
180
370
25
100
AcDbLine
 10
2652.797444372156
 20
5802.670908226221
 30
0.0
 11
2652.797444372156
 21
5817.670908226221
 31
0.0
  0
LINE
  5
CC
330
17
100
AcDbEntity
  8
Cota Seção (2x)
 62
180
370
25
100
AcDbLine
 10
2652.797444372156
 20
5817.670908226221
 30
0.0
 11
2634.797444372156
 21
5817.670908226221
 31
0.0
  0
LINE
  5
CD
330
17
100
AcDbEntity
  8
Cota Seção (2x)
 62
180
370
25
100
AcDbLine
 10
2634.797444372156
 20
5817.670908226221
 30
0.0
 11
2634.797444372156
 21
5802.670908226221
 31
0.0
  0
LINE
  5
CE
330
17
100
AcDbEntity
  8
COTA
 62
4
370
25
100
AcDbLine
 10
2412.694818002468
 20
5582.863987777608
 30
0.0
 11
2412.694818002468
 21
5556.324061799454
 31
0.0
  0
LINE
  5
CF
330
17
100
AcDbEntity
  8
COTA
 62
4
370
25
100
AcDbLine
 10
2615.694818002465
 20
5582.863987777638
 30
0.0
 11
2615.694818002465
 21
5556.324061799454
 31
0.0
  0
LINE
  5
D0
330
17
100
AcDbEntity
  8
COTA
 62
4
370
25
100
AcDbLine
 10
2412.694818002468
 20
5559.324061799453
 30
0.0
 11
2615.694818002465
 21
5559.324061799453
 31
0.0
  0
LINE
  5
D1
330
17
100
AcDbEntity
  8
COTA
 62
0
370
25
100
AcDbLine
 10
2414.194818002468
 20
5560.824061799453
 30
0.0
 11
2411.194818002468
 21
5557.824061799453
 31
0.0
  0
LINE
  5
D2
330
17
100
AcDbEntity
  8
COTA
 62
0
370
25
100
AcDbLine
 10
2614.194818002465
 20
5557.824061799453
 30
0.0
 11
2617.194818002465
 21
5560.824061799453
 31
0.0
  0
LINE
  5
D3
330
17
100
AcDbEntity
  8
COTA
 62
4
370
25
100
AcDbLine
 10
2787.694818002465
 20
5582.863987777623
 30
0.0
 11
2787.694818002465
 21
5556.324061799465
 31
0.0
  0
LINE
  5
D4
330
17
100
AcDbEntity
  8
COTA
 62
4
370
25
100
AcDbLine
 10
2990.694818002465
 20
5582.863987777634
 30
0.0
 11
2990.694818002465
 21
5556.324061799465
 31
0.0
  0
LINE
  5
D5
330
17
100
AcDbEntity
  8
COTA
 62
4
370
25
100
AcDbLine
 10
2787.694818002465
 20
5559.324061799465
 30
0.0
 11
2990.694818002465
 21
5559.324061799465
 31
0.0
  0
LINE
  5
D6
330
17
100
AcDbEntity
  8
COTA
 62
0
370
25
100
AcDbLine
 10
2789.194818002465
 20
5560.824061799465
 30
0.0
 11
2786.194818002465
 21
5557.824061799465
 31
0.0
  0
LINE
  5
D7
330
17
100
AcDbEntity
  8
COTA
 62
0
370
25
100
AcDbLine
 10
2989.194818002465
 20
5557.824061799465
 30
0.0
 11
2992.194818002465
 21
5560.824061799465
 31
0.0
  0
LINE
  5
D8
330
17
100
AcDbEntity
  8
COTA
 62
4
370
25
100
AcDbLine
 10
2412.694818002468
 20
5582.863987777608
 30
0.0
 11
2412.694818002468
 21
5522.785551110731
 31
0.0
  0
LINE
  5
D9
330
17
100
AcDbEntity
  8
COTA
 62
4
370
25
100
AcDbLine
 10
2990.694818002465
 20
5582.863987777634
 30
0.0
 11
2990.694818002465
 21
5522.785551110731
 31
0.0
  0
LINE
  5
DA
330
17
100
AcDbEntity
  8
COTA
 62
4
370
25
100
AcDbLine
 10
2412.694818002468
 20
5525.785551110731
 30
0.0
 11
2990.694818002465
 21
5525.785551110731
 31
0.0
  0
LINE
  5
DB
330
17
100
AcDbEntity
  8
COTA
 62
0
370
25
100
AcDbLine
 10
2414.194818002468
 20
5527.285551110731
 30
0.0
 11
2411.194818002468
 21
5524.285551110731
 31
0.0
  0
LINE
  5
DC
330
17
100
AcDbEntity
  8
COTA
 62
0
370
25
100
AcDbLine
 10
2989.194818002465
 20
5524.285551110731
 30
0.0
 11
2992.194818002465
 21
5527.285551110731
 31
0.0
  0
LINE
  5
DD
330
17
100
AcDbEntity
  8
COTA
 62
4
370
25
100
AcDbLine
 10
2615.694818002465
 20
5582.863987777616
 30
0.0
 11
2615.694818002465
 21
5556.32406179949
 31
0.0
  0
LINE
  5
DE
330
17
100
AcDbEntity
  8
COTA
 62
4
370
25
100
AcDbLine
 10
2787.694818002465
 20
5582.863987777634
 30
0.0
 11
2787.694818002465
 21
5556.32406179949
 31
0.0
  0
LINE
  5
DF
330
17
100
AcDbEntity
  8
COTA
 62
4
370
25
100
AcDbLine
 10
2615.694818002465
 20
5559.32406179949
 30
0.0
 11
2787.694818002465
 21
5559.32406179949
 31
0.0
  0
LINE
  5
E0
330
17
100
AcDbEntity
  8
COTA
 62
0
370
25
100
AcDbLine
 10
2617.194818002465
 20
5560.82406179949
 30
0.0
 11
2614.194818002465
 21
5557.82406179949
 31
0.0
  0
LINE
  5
E1
330
17
100
AcDbEntity
  8
COTA
 62
0
370
25
100
AcDbLine
 10
2786.194818002465
 20
5557.82406179949
 30
0.0
 11
2789.194818002465
 21
5560.82406179949
 31
0.0
  0
LINE
  5
E2
330
17
100
AcDbEntity
  8
COTA
 62
4
370
25
100
AcDbLine
 10
2340.173700962021
 20
5370.193099497615
 30
0.0
 11
2340.173700962021
 21
5343.653173519459
 31
0.0
  0
LINE
  5
E3
330
17
100
AcDbEntity
  8
COTA
 62
4
370
25
100
AcDbLine
 10
2584.173700962021
 20
5370.193099497644
 30
0.0
 11
2584.173700962021
 21
5343.653173519459
 31
0.0
  0
LINE
  5
E4
330
17
100
AcDbEntity
  8
COTA
 62
4
370
25
100
AcDbLine
 10
2340.173700962021
 20
5346.65317351946
 30
0.0
 11
2584.173700962021
 21
5346.65317351946
 31
0.0
  0
LINE
  5
E5
330
17
100
AcDbEntity
  8
COTA
 62
0
370
25
100
AcDbLine
 10
2341.673700962021
 20
5348.15317351946
 30
0.0
 11
2338.673700962021
 21
5345.15317351946
 31
0.0
  0
LINE
  5
E6
330
17
100
AcDbEntity
  8
COTA
 62
0
370
25
100
AcDbLine
 10
2582.673700962021
 20
5345.15317351946
 30
0.0
 11
2585.673700962021
 21
5348.15317351946
 31
0.0
  0
LINE
  5
E7
330
17
100
AcDbEntity
  8
COTA
 62
4
370
25
100
AcDbLine
 10
2828.173700962021
 20
5370.193099497658
 30
0.0
 11
2828.173700962021
 21
5343.65317351947
 31
0.0
  0
LINE
  5
E8
330
17
100
AcDbEntity
  8
COTA
 62
4
370
25
100
AcDbLine
 10
3062.173700962021
 20
5370.19309949764
 30
0.0
 11
3062.173700962021
 21
5343.65317351947
 31
0.0
  0
LINE
  5
E9
330
17
100
AcDbEntity
  8
COTA
 62
4
370
25
100
AcDbLine
 10
2828.173700962021
 20
5346.65317351947
 30
0.0
 11
3062.173700962021
 21
5346.65317351947
 31
0.0
  0
LINE
  5
EA
330
17
100
AcDbEntity
  8
COTA
 62
0
370
25
100
AcDbLine
 10
2829.673700962021
 20
5348.15317351947
 30
0.0
 11
2826.673700962021
 21
5345.15317351947
 31
0.0
  0
LINE
  5
EB
330
17
100
AcDbEntity
  8
COTA
 62
0
370
25
100
AcDbLine
 10
3060.673700962021
 20
5345.15317351947
 30
0.0
 11
3063.673700962021
 21
5348.15317351947
 31
0.0
  0
LINE
  5
EC
330
17
100
AcDbEntity
  8
COTA
 62
4
370
25
100
AcDbLine
 10
2340.173700962021
 20
5370.193099497615
 30
0.0
 11
2340.173700962021
 21
5310.114662830737
 31
0.0
  0
LINE
  5
ED
330
17
100
AcDbEntity
  8
COTA
 62
4
370
25
100
AcDbLine
 10
3062.173700962021
 20
5370.19309949764
 30
0.0
 11
3062.173700962021
 21
5310.114662830737
 31
0.0
  0
LINE
  5
EE
330
17
100
AcDbEntity
  8
COTA
 62
4
370
25
100
AcDbLine
 10
2340.173700962021
 20
5313.114662830737
 30
0.0
 11
3062.173700962021
 21
5313.114662830737
 31
0.0
  0
LINE
  5
EF
330
17
100
AcDbEntity
  8
COTA
 62
0
370
25
100
AcDbLine
 10
2341.673700962021
 20
5314.614662830737
 30
0.0
 11
2338.673700962021
 21
5311.614662830737
 31
0.0
  0
LINE
  5
F0
330
17
100
AcDbEntity
  8
COTA
 62
0
370
25
100
AcDbLine
 10
3060.673700962021
 20
5311.614662830737
 30
0.0
 11
3063.673700962021
 21
5314.614662830737
 31
0.0
  0
LINE
  5
F1
330
17
100
AcDbEntity
  8
COTA
 62
4
370
25
100
AcDbLine
 10
3065.173700962019
 20
5418.193099497642
 30
0.0
 11
3087.602643082675
 21
5418.193099497642
 31
0.0
  0
LINE
  5
F2
330
17
100
AcDbEntity
  8
COTA
 62
4
370
25
100
AcDbLine
 10
3065.173700962008
 20
5373.193099497656
 30
0.0
 11
3087.602643082675
 21
5373.193099497656
 31
0.0
  0
LINE
  5
F3
330
17
100
AcDbEntity
  8
COTA
 62
4
370
25
100
AcDbLine
 10
3084.602643082676
 20
5418.193099497642
 30
0.0
 11
3084.602643082676
 21
5373.193099497656
 31
0.0
  0
LINE
  5
F4
330
17
100
AcDbEntity
  8
COTA
 62
0
370
25
100
AcDbLine
 10
3086.102643082676
 20
5416.693099497642
 30
0.0
 11
3083.102643082676
 21
5419.693099497642
 31
0.0
  0
LINE
  5
F5
330
17
100
AcDbEntity
  8
COTA
 62
0
370
25
100
AcDbLine
 10
3083.102643082676
 20
5374.693099497656
 30
0.0
 11
3086.102643082676
 21
5371.693099497656
 31
0.0
  0
LINE
  5
F6
330
17
100
AcDbEntity
  8
COTA
 62
4
370
25
100
AcDbLine
 10
3065.173700962019
 20
5418.193099497642
 30
0.0
 11
3087.602643082675
 21
5418.193099497642
 31
0.0
  0
LINE
  5
F7
330
17
100
AcDbEntity
  8
COTA
 62
4
370
25
100
AcDbLine
 10
3065.173700962008
 20
5432.193099497657
 30
0.0
 11
3087.602643082675
 21
5432.193099497657
 31
0.0
  0
LINE
  5
F8
330
17
100
AcDbEntity
  8
COTA
 62
4
370
25
100
AcDbLine
 10
3084.602643082676
 20
5418.193099497642
 30
0.0
 11
3084.602643082676
 21
5432.193099497657
 31
0.0
  0
LINE
  5
F9
330
17
100
AcDbEntity
  8
COTA
 62
4
370
25
100
AcDbLine
 10
3084.602643082676
 20
5432.193099497657
 30
0.0
 11
3084.602643082676
 21
5451.310058561984
 31
0.0
  0
LINE
  5
FA
330
17
100
AcDbEntity
  8
COTA
 62
0
370
25
100
AcDbLine
 10
3083.102643082676
 20
5419.693099497642
 30
0.0
 11
3086.102643082676
 21
5416.693099497642
 31
0.0
  0
LINE
  5
FB
330
17
100
AcDbEntity
  8
COTA
 62
0
370
25
100
AcDbLine
 10
3086.102643082676
 20
5430.693099497657
 30
0.0
 11
3083.102643082676
 21
5433.693099497657
 31
0.0
  0
LINE
  5
FC
330
17
100
AcDbEntity
  8
COTA
 62
4
370
25
100
AcDbLine
 10
3065.173700962008
 20
5432.193099497657
 30
0.0
 11
3109.218148756307
 21
5432.193099497657
 31
0.0
  0
LINE
  5
FD
330
17
100
AcDbEntity
  8
COTA
 62
4
370
25
100
AcDbLine
 10
3065.173700962008
 20
5373.193099497656
 30
0.0
 11
3109.218148756307
 21
5373.193099497656
 31
0.0
  0
LINE
  5
FE
330
17
100
AcDbEntity
  8
COTA
 62
4
370
25
100
AcDbLine
 10
3106.218148756307
 20
5432.193099497657
 30
0.0
 11
3106.218148756307
 21
5373.193099497656
 31
0.0
  0
LINE
  5
FF
330
17
100
AcDbEntity
  8
COTA
 62
0
370
25
100
AcDbLine
 10
3107.718148756307
 20
5430.693099497657
 30
0.0
 11
3104.718148756307
 21
5433.693099497657
 31
0.0
  0
LINE
  5
100
330
17
100
AcDbEntity
  8
COTA
 62
0
370
25
100
AcDbLine
 10
3104.718148756307
 20
5374.693099497656
 30
0.0
 11
3107.718148756307
 21
5371.693099497656
 31
0.0
  0
LINE
  5
101
330
17
100
AcDbEntity
  8
COTA
 62
4
370
25
100
AcDbLine
 10
2584.173700962021
 20
5370.193099497615
 30
0.0
 11
2584.173700962021
 21
5343.653173519459
 31
0.0
  0
LINE
  5
102
330
17
100
AcDbEntity
  8
COTA
 62
4
370
25
100
AcDbLine
 10
2828.173700962021
 20
5370.193099497644
 30
0.0
 11
2828.173700962021
 21
5343.653173519459
 31
0.0
  0
LINE
  5
103
330
17
100
AcDbEntity
  8
COTA
 62
4
370
25
100
AcDbLine
 10
2584.173700962021
 20
5346.65317351946
 30
0.0
 11
2828.173700962021
 21
5346.65317351946
 31
0.0
  0
LINE
  5
104
330
17
100
AcDbEntity
  8
COTA
 62
0
370
25
100
AcDbLine
 10
2585.673700962021
 20
5348.15317351946
 30
0.0
 11
2582.673700962021
 21
5345.15317351946
 31
0.0
  0
LINE
  5
105
330
17
100
AcDbEntity
  8
COTA
 62
0
370
25
100
AcDbLine
 10
2826.673700962021
 20
5345.15317351946
 30
0.0
 11
2829.673700962021
 21
5348.15317351946
 31
0.0
  0
LINE
  5
106
330
17
100
AcDbEntity
  8
COTA
 62
4
370
25
100
AcDbLine
 10
2615.694818002461
 20
5647.863987777622
 30
0.0
 11
2615.694818002461
 21
5656.860158090502
 31
0.0
  0
LINE
  5
107
330
17
100
AcDbEntity
  8
COTA
 62
4
370
25
100
AcDbLine
 10
2588.694818002465
 20
5647.863987777622
 30
0.0
 11
2588.694818002465
 21
5656.860158090502
 31
0.0
  0
LINE
  5
108
330
17
100
AcDbEntity
  8
COTA
 62
4
370
25
100
AcDbLine
 10
2615.694818002461
 20
5653.860158090502
 30
0.0
 11
2588.694818002465
 21
5653.860158090502
 31
0.0
  0
LINE
  5
109
330
17
100
AcDbEntity
  8
COTA
 62
0
370
25
100
AcDbLine
 10
2614.194818002461
 20
5652.360158090502
 30
0.0
 11
2617.194818002461
 21
5655.360158090502
 31
0.0
  0
LINE
  5
10A
330
17
100
AcDbEntity
  8
COTA
 62
0
370
25
100
AcDbLine
 10
2590.194818002465
 20
5655.360158090502
 30
0.0
 11
2587.194818002465
 21
5652.360158090502
 31
0.0
  0
LINE
  5
10B
330
17
100
AcDbEntity
  8
COTA
 62
4
370
25
100
AcDbLine
 10
2787.694818002468
 20
5647.863987777622
 30
0.0
 11
2787.694818002468
 21
5659.248459954287
 31
0.0
  0
LINE
  5
10C
330
17
100
AcDbEntity
  8
COTA
 62
4
370
25
100
AcDbLine
 10
2814.694818002465
 20
5647.863987777615
 30
0.0
 11
2814.694818002465
 21
5659.248459954287
 31
0.0
  0
LINE
  5
10D
330
17
100
AcDbEntity
  8
COTA
 62
4
370
25
100
AcDbLine
 10
2787.694818002468
 20
5656.248459954287
 30
0.0
 11
2814.694818002465
 21
5656.248459954287
 31
0.0
  0
LINE
  5
10E
330
17
100
AcDbEntity
  8
COTA
 62
0
370
25
100
AcDbLine
 10
2789.194818002468
 20
5657.748459954287
 30
0.0
 11
2786.194818002468
 21
5654.748459954287
 31
0.0
  0
LINE
  5
10F
330
17
100
AcDbEntity
  8
COTA
 62
0
370
25
100
AcDbLine
 10
2813.194818002465
 20
5654.748459954287
 30
0.0
 11
2816.194818002465
 21
5657.748459954287
 31
0.0
  0
LINE
  5
110
330
17
100
AcDbEntity
  8
COTA
 62
4
370
25
100
AcDbLine
 10
2585.694818002466
 20
5590.863987777618
 30
0.0
 11
2570.254758393859
 21
5590.863987777618
 31
0.0
  0
LINE
  5
111
330
17
100
AcDbEntity
  8
COTA
 62
4
370
25
100
AcDbLine
 10
2585.694818002466
 20
5644.863987777616
 30
0.0
 11
2570.254758393859
 21
5644.863987777616
 31
0.0
  0
LINE
  5
112
330
17
100
AcDbEntity
  8
COTA
 62
4
370
25
100
AcDbLine
 10
2573.254758393859
 20
5590.863987777618
 30
0.0
 11
2573.254758393859
 21
5644.863987777616
 31
0.0
  0
LINE
  5
113
330
17
100
AcDbEntity
  8
COTA
 62
0
370
25
100
AcDbLine
 10
2571.754758393859
 20
5592.363987777618
 30
0.0
 11
2574.754758393859
 21
5589.363987777618
 31
0.0
  0
LINE
  5
114
330
17
100
AcDbEntity
  8
COTA
 62
0
370
25
100
AcDbLine
 10
2574.754758393859
 20
5643.363987777616
 30
0.0
 11
2571.754758393859
 21
5646.363987777616
 31
0.0
  0
LINE
  5
115
330
17
100
AcDbEntity
  8
COTA
 62
4
370
25
100
AcDbLine
 10
2817.694818002466
 20
5644.863987777616
 30
0.0
 11
2843.763110591544
 21
5644.863987777616
 31
0.0
  0
LINE
  5
116
330
17
100
AcDbEntity
  8
COTA
 62
4
370
25
100
AcDbLine
 10
2817.694818002466
 20
5590.863987777618
 30
0.0
 11
2843.763110591544
 21
5590.863987777618
 31
0.0
  0
LINE
  5
117
330
17
100
AcDbEntity
  8
COTA
 62
4
370
25
100
AcDbLine
 10
2840.763110591544
 20
5644.863987777616
 30
0.0
 11
2840.763110591544
 21
5590.863987777618
 31
0.0
  0
LINE
  5
118
330
17
100
AcDbEntity
  8
COTA
 62
0
370
25
100
AcDbLine
 10
2842.263110591544
 20
5643.363987777616
 30
0.0
 11
2839.263110591544
 21
5646.363987777616
 31
0.0
  0
LINE
  5
119
330
17
100
AcDbEntity
  8
COTA
 62
0
370
25
100
AcDbLine
 10
2839.263110591544
 20
5592.363987777618
 30
0.0
 11
2842.263110591544
 21
5589.363987777618
 31
0.0
  0
LINE
  5
11A
330
17
100
AcDbEntity
  8
COTA
 62
4
370
25
100
AcDbLine
 10
3079.427401848077
 20
5583.020298448211
 30
0.0
 11
3079.427401848077
 21
5569.116853692315
 31
0.0
  0
LINE
  5
11B
330
17
100
AcDbEntity
  8
COTA
 62
4
370
25
100
AcDbLine
 10
3086.427401848077
 20
5583.020298448211
 30
0.0
 11
3086.427401848077
 21
5569.116853692315
 31
0.0
  0
LINE
  5
11C
330
17
100
AcDbEntity
  8
COTA
 62
4
370
25
100
AcDbLine
 10
3079.427401848077
 20
5572.116853692315
 30
0.0
 11
3086.427401848077
 21
5572.116853692315
 31
0.0
  0
LINE
  5
11D
330
17
100
AcDbEntity
  8
COTA
 62
4
370
25
100
AcDbLine
 10
3086.427401848077
 20
5572.116853692315
 30
0.0
 11
3101.158396000124
 21
5572.116853692315
 31
0.0
  0
LINE
  5
11E
330
17
100
AcDbEntity
  8
COTA
 62
0
370
25
100
AcDbLine
 10
3080.927401848077
 20
5573.616853692315
 30
0.0
 11
3077.927401848077
 21
5570.616853692315
 31
0.0
  0
LINE
  5
11F
330
17
100
AcDbEntity
  8
COTA
 62
0
370
25
100
AcDbLine
 10
3084.927401848077
 20
5570.616853692315
 30
0.0
 11
3087.927401848077
 21
5573.616853692315
 31
0.0
  0
LINE
  5
120
330
17
100
AcDbEntity
  8
COTA
 62
4
370
25
100
AcDbLine
 10
3089.427401848079
 20
5586.020298448212
 30
0.0
 11
3111.145125792928
 21
5586.020298448212
 31
0.0
  0
LINE
  5
121
330
17
100
AcDbEntity
  8
COTA
 62
4
370
25
100
AcDbLine
 10
3089.427401848079
 20
5645.020298448211
 30
0.0
 11
3111.145125792928
 21
5645.020298448211
 31
0.0
  0
LINE
  5
122
330
17
100
AcDbEntity
  8
COTA
 62
4
370
25
100
AcDbLine
 10
3108.145125792928
 20
5586.020298448212
 30
0.0
 11
3108.145125792928
 21
5645.020298448211
 31
0.0
  0
LINE
  5
123
330
17
100
AcDbEntity
  8
COTA
 62
0
370
25
100
AcDbLine
 10
3106.645125792928
 20
5587.520298448212
 30
0.0
 11
3109.645125792928
 21
5584.520298448212
 31
0.0
  0
LINE
  5
124
330
17
100
AcDbEntity
  8
COTA
 62
0
370
25
100
AcDbLine
 10
3109.645125792928
 20
5643.520298448211
 30
0.0
 11
3106.645125792928
 21
5646.520298448211
 31
0.0
  0
LINE
  5
125
330
17
100
AcDbEntity
  8
COTA
 62
4
370
25
100
AcDbLine
 10
3026.427401848077
 20
5583.020298448211
 30
0.0
 11
3026.427401848077
 21
5522.785551110731
 31
0.0
  0
LINE
  5
126
330
17
100
AcDbEntity
  8
COTA
 62
4
370
25
100
AcDbLine
 10
3086.427401848077
 20
5583.020298448211
 30
0.0
 11
3086.427401848077
 21
5522.785551110731
 31
0.0
  0
LINE
  5
127
330
17
100
AcDbEntity
  8
COTA
 62
4
370
25
100
AcDbLine
 10
3026.427401848077
 20
5525.785551110731
 30
0.0
 11
3086.427401848077
 21
5525.785551110731
 31
0.0
  0
LINE
  5
128
330
17
100
AcDbEntity
  8
COTA
 62
0
370
25
100
AcDbLine
 10
3027.927401848077
 20
5527.285551110731
 30
0.0
 11
3024.927401848077
 21
5524.285551110731
 31
0.0
  0
LINE
  5
129
330
17
100
AcDbEntity
  8
COTA
 62
0
370
25
100
AcDbLine
 10
3084.927401848077
 20
5524.285551110731
 30
0.0
 11
3087.927401848077
 21
5527.285551110731
 31
0.0
  0
LINE
  5
12A
330
17
100
AcDbEntity
  8
COTA
 62
4
370
25
100
AcDbLine
 10
2270.677839103779
 20
5369.522552355579
 30
0.0
 11
2270.677839103779
 21
5345.085503572221
 31
0.0
  0
LINE
  5
12B
330
17
100
AcDbEntity
  8
COTA
 62
4
370
25
100
AcDbLine
 10
2263.677839103779
 20
5369.522552355579
 30
0.0
 11
2263.677839103779
 21
5345.085503572221
 31
0.0
  0
LINE
  5
12C
330
17
100
AcDbEntity
  8
COTA
 62
4
370
25
100
AcDbLine
 10
2270.677839103779
 20
5348.085503572221
 30
0.0
 11
2263.677839103779
 21
5348.085503572221
 31
0.0
  0
LINE
  5
12D
330
17
100
AcDbEntity
  8
COTA
 62
4
370
25
100
AcDbLine
 10
2263.677839103779
 20
5348.085503572221
 30
0.0
 11
2248.946844951732
 21
5348.085503572221
 31
0.0
  0
LINE
  5
12E
330
17
100
AcDbEntity
  8
COTA
 62
0
370
25
100
AcDbLine
 10
2269.177839103779
 20
5346.585503572221
 30
0.0
 11
2272.177839103779
 21
5349.585503572221
 31
0.0
  0
LINE
  5
12F
330
17
100
AcDbEntity
  8
COTA
 62
0
370
25
100
AcDbLine
 10
2265.177839103779
 20
5349.585503572221
 30
0.0
 11
2262.177839103779
 21
5346.585503572221
 31
0.0
  0
LINE
  5
130
330
17
100
AcDbEntity
  8
COTA
 62
4
370
25
100
AcDbLine
 10
2260.67783910378
 20
5372.522552355581
 30
0.0
 11
2223.960115159097
 21
5372.522552355581
 31
0.0
  0
LINE
  5
131
330
17
100
AcDbEntity
  8
COTA
 62
4
370
25
100
AcDbLine
 10
2260.67783910378
 20
5431.522552355581
 30
0.0
 11
2223.960115159097
 21
5431.522552355581
 31
0.0
  0
LINE
  5
132
330
17
100
AcDbEntity
  8
COTA
 62
4
370
25
100
AcDbLine
 10
2226.960115159097
 20
5372.522552355581
 30
0.0
 11
2226.960115159097
 21
5431.522552355581
 31
0.0
  0
LINE
  5
133
330
17
100
AcDbEntity
  8
COTA
 62
0
370
25
100
AcDbLine
 10
2225.460115159097
 20
5374.022552355581
 30
0.0
 11
2228.460115159097
 21
5371.022552355581
 31
0.0
  0
LINE
  5
134
330
17
100
AcDbEntity
  8
COTA
 62
0
370
25
100
AcDbLine
 10
2228.460115159097
 20
5430.022552355581
 30
0.0
 11
2225.460115159097
 21
5433.022552355581
 31
0.0
  0
LINE
  5
135
330
17
100
AcDbEntity
  8
COTA
 62
4
370
25
100
AcDbLine
 10
2263.677839103779
 20
5434.522552355579
 30
0.0
 11
2263.677839103779
 21
5443.564163766883
 31
0.0
  0
LINE
  5
136
330
17
100
AcDbEntity
  8
COTA
 62
4
370
25
100
AcDbLine
 10
2292.677839103779
 20
5434.522552355579
 30
0.0
 11
2292.677839103779
 21
5443.564163766883
 31
0.0
  0
LINE
  5
137
330
17
100
AcDbEntity
  8
COTA
 62
4
370
25
100
AcDbLine
 10
2263.677839103779
 20
5440.564163766882
 30
0.0
 11
2292.677839103779
 21
5440.564163766882
 31
0.0
  0
LINE
  5
138
330
17
100
AcDbEntity
  8
COTA
 62
0
370
25
100
AcDbLine
 10
2265.177839103779
 20
5442.064163766882
 30
0.0
 11
2262.177839103779
 21
5439.064163766882
 31
0.0
  0
LINE
  5
139
330
17
100
AcDbEntity
  8
COTA
 62
0
370
25
100
AcDbLine
 10
2291.177839103779
 20
5439.064163766882
 30
0.0
 11
2294.177839103779
 21
5442.064163766882
 31
0.0
  0
LINE
  5
13A
330
17
100
AcDbEntity
  8
COTA
 62
4
370
25
100
AcDbLine
 10
2260.67783910378
 20
5431.522552355581
 30
0.0
 11
2251.406278689515
 21
5431.522552355581
 31
0.0
  0
LINE
  5
13B
330
17
100
AcDbEntity
  8
COTA
 62
4
370
25
100
AcDbLine
 10
2260.67783910378
 20
5387.522552355581
 30
0.0
 11
2251.406278689515
 21
5387.522552355581
 31
0.0
  0
LINE
  5
13C
330
17
100
AcDbEntity
  8
COTA
 62
4
370
25
100
AcDbLine
 10
2254.406278689515
 20
5431.522552355581
 30
0.0
 11
2254.406278689515
 21
5387.522552355581
 31
0.0
  0
LINE
  5
13D
330
17
100
AcDbEntity
  8
COTA
 62
0
370
25
100
AcDbLine
 10
2255.906278689515
 20
5430.022552355581
 30
0.0
 11
2252.906278689515
 21
5433.022552355581
 31
0.0
  0
LINE
  5
13E
330
17
100
AcDbEntity
  8
COTA
 62
0
370
25
100
AcDbLine
 10
2252.906278689515
 20
5389.022552355581
 30
0.0
 11
2255.906278689515
 21
5386.022552355581
 31
0.0
  0
LINE
  5
13F
330
17
100
AcDbEntity
  8
COTA
 62
4
370
25
100
AcDbLine
 10
2260.67783910378
 20
5387.522552355581
 30
0.0
 11
2251.406278689429
 21
5387.522552355581
 31
0.0
  0
LINE
  5
140
330
17
100
AcDbEntity
  8
COTA
 62
4
370
25
100
AcDbLine
 10
2260.67783910378
 20
5372.522552355581
 30
0.0
 11
2251.406278689429
 21
5372.522552355581
 31
0.0
  0
LINE
  5
141
330
17
100
AcDbEntity
  8
COTA
 62
4
370
25
100
AcDbLine
 10
2254.406278689429
 20
5387.522552355581
 30
0.0
 11
2254.406278689429
 21
5372.522552355581
 31
0.0
  0
LINE
  5
142
330
17
100
AcDbEntity
  8
COTA
 62
0
370
25
100
AcDbLine
 10
2255.906278689429
 20
5386.022552355581
 30
0.0
 11
2252.906278689429
 21
5389.022552355581
 31
0.0
  0
LINE
  5
143
330
17
100
AcDbEntity
  8
COTA
 62
0
370
25
100
AcDbLine
 10
2252.906278689429
 20
5374.022552355581
 30
0.0
 11
2255.906278689429
 21
5371.022552355581
 31
0.0
  0
LINE
  5
144
330
17
100
AcDbEntity
  8
COTA
 62
4
370
25
100
AcDbLine
 10
2323.677839103779
 20
5369.522552355579
 30
0.0
 11
2323.677839103779
 21
5310.114662830737
 31
0.0
  0
LINE
  5
145
330
17
100
AcDbEntity
  8
COTA
 62
4
370
25
100
AcDbLine
 10
2263.677839103779
 20
5369.522552355579
 30
0.0
 11
2263.677839103779
 21
5310.114662830737
 31
0.0
  0
LINE
  5
146
330
17
100
AcDbEntity
  8
COTA
 62
4
370
25
100
AcDbLine
 10
2323.677839103779
 20
5313.114662830737
 30
0.0
 11
2263.677839103779
 21
5313.114662830737
 31
0.0
  0
LINE
  5
147
330
17
100
AcDbEntity
  8
COTA
 62
0
370
25
100
AcDbLine
 10
2322.177839103779
 20
5311.614662830737
 30
0.0
 11
2325.177839103779
 21
5314.614662830737
 31
0.0
  0
LINE
  5
148
330
17
100
AcDbEntity
  8
COTA
 62
0
370
25
100
AcDbLine
 10
2265.177839103779
 20
5314.614662830737
 30
0.0
 11
2262.177839103779
 21
5311.614662830737
 31
0.0
  0
LINE
  5
149
330
17
100
AcDbEntity
  8
Texto Seção
 62
252
370
15
100
AcDbLine
 10
2645.997444372124
 20
5900.670908226222
 30
0.0
 11
2645.997444372124
 21
6025.670908226222
 31
0.0
  0
LWPOLYLINE
  5
14A
330
17
100
AcDbEntity
  8
Painéis
 62
200
370
25
100
AcDbPolyline
 90
4
 70
1
 10
2666.797444372127
 20
5868.6709082262
 10
2662.797444372127
 20
5868.6709082262
 10
2662.797444372127
 20
5782.67090822622
 10
2666.797444372127
 20
5782.67090822622
  0
LWPOLYLINE
  5
14B
330
17
100
AcDbEntity
  8
Madeira
 62
126
370
18
100
AcDbPolyline
 90
4
 70
1
 10
2624.797444372127
 20
5782.67090822622
 10
2624.797444372127
 20
5787.070908226215
 10
2638.797444372127
 20
5787.070908226215
 10
2638.797444372127
 20
5782.67090822622
  0
LWPOLYLINE
  5
14C
330
17
100
AcDbEntity
  8
Painéis
 62
200
370
25
100
AcDbPolyline
 90
4
 70
1
 10
2624.797444372127
 20
5787.070908226215
 10
2624.797444372127
 20
5790.67090822622
 10
2662.797444372127
 20
5790.67090822622
 10
2662.797444372127
 20
5787.070908226215
  0
LWPOLYLINE
  5
14D
330
17
100
AcDbEntity
  8
Madeira
 62
126
370
18
100
AcDbPolyline
 90
4
 70
1
 10
2662.797444372127
 20
5782.67090822622
 10
2662.797444372127
 20
5787.070908226215
 10
2648.797444372127
 20
5787.070908226215
 10
2648.797444372127
 20
5782.67090822622
  0
LWPOLYLINE
  5
14E
330
17
100
AcDbEntity
  8
Painéis
 62
200
370
25
100
AcDbPolyline
 90
4
 70
1
 10
2620.79744437212
 20
5900.670908226222
 10
2624.79744437212
 20
5900.670908226222
 10
2624.797444372127
 20
5782.67090822622
 10
2620.797444372127
 20
5782.67090822622
  0
LWPOLYLINE
  5
14F
330
17
100
AcDbEntity
  8
Painéis
 62
200
370
25
100
AcDbPolyline
 90
4
 70
1
 10
2662.797444372127
 20
5868.6709082262
 10
2662.797444372127
 20
5872.670908226201
 10
2718.397444372104
 20
5872.670908226194
 10
2718.397444372104
 20
5868.670908226193
  0
LWPOLYLINE
  5
150
330
17
100
AcDbEntity
  8
CONCRETO
 62
251
370
25
100
AcDbPolyline
 90
8
 70
1
 10
2718.397444372104
 20
5872.670908226194
 10
2718.397444372104
 20
5900.670908226222
 10
2624.79744437212
 20
5900.670908226222
 10
2624.79744437212
 20
5872.670908226208
 10
2624.797444372127
 20
5872.670908226208
 10
2624.797444372185
 20
5790.67090822622
 10
2662.797444372127
 20
5790.67090822622
 10
2662.797444372127
 20
5872.670908226201
  0
LWPOLYLINE
  5
151
330
17
100
AcDbEntity
  8
Madeira
 62
126
370
18
100
AcDbPolyline
 90
4
 70
1
 10
2616.397444372126
 20
5886.670908226222
 10
2620.79744437212
 20
5886.670908226222
 10
2620.79744437212
 20
5900.670908226222
 10
2616.397444372126
 20
5900.670908226222
  0
LWPOLYLINE
  5
152
330
17
100
AcDbEntity
  8
Madeira
 62
126
370
18
100
AcDbPolyline
 90
4
 70
1
 10
2616.397444372122
 20
5840.774473651427
 10
2620.797444372116
 20
5840.774473651427
 10
2620.797444372116
 20
5854.774473651427
 10
2616.397444372122
 20
5854.774473651427
  0
LWPOLYLINE
  5
153
330
17
100
AcDbEntity
  8
Madeira
 62
126
370
18
100
AcDbPolyline
 90
4
 70
1
 10
2616.397444372115
 20
5782.67090822622
 10
2620.797444372109
 20
5782.67090822622
 10
2620.797444372109
 20
5796.670908226221
 10
2616.397444372115
 20
5796.670908226221
  0
LWPOLYLINE
  5
154
330
17
100
AcDbEntity
  8
Madeira
 62
126
370
18
100
AcDbPolyline
 90
4
 70
1
 10
2671.197444372121
 20
5854.6709082262
 10
2666.797444372127
 20
5854.6709082262
 10
2666.797444372127
 20
5868.6709082262
 10
2671.197444372121
 20
5868.6709082262
  0
LWPOLYLINE
  5
155
330
17
100
AcDbEntity
  8
Madeira
 62
126
370
18
100
AcDbPolyline
 90
4
 70
1
 10
2671.197444372197
 20
5782.67090822622
 10
2666.797444372204
 20
5782.67090822622
 10
2666.797444372204
 20
5796.670908226221
 10
2671.197444372197
 20
5796.670908226221
  0
LWPOLYLINE
  5
156
330
17
100
AcDbEntity
  8
Painéis
 62
200
370
25
100
AcDbPolyline
 90
4
 70
1
 10
3026.427401848077
 20
5586.02029844821
 10
3086.427401848077
 20
5586.02029844821
 10
3086.427401848077
 20
5645.020298448209
 10
3026.427401848077
 20
5645.020298448209
  0
LWPOLYLINE
  5
157
330
17
100
AcDbEntity
  8
Painéis
 62
200
370
25
100
AcDbPolyline
 90
5
 70
0
 10
2292.677839103779
 20
5431.52255235558
 10
2323.677839103779
 20
5431.52255235558
 10
2323.677839103779
 20
5372.522552355579
 10
2263.677839103779
 20
5372.522552355579
 10
2263.677839103779
 20
5387.522552355579
  0
LWPOLYLINE
  5
158
330
17
100
AcDbEntity
  8
SARR_3.5x7
 62
81
370
25
100
AcDbPolyline
 90
4
 70
1
 10
2602.397444372049
 20
5894.670908226222
 10
2616.397444372049
 20
5894.670908226222
 10
2616.39744437218
 20
5706.192694820416
 10
2602.39744437218
 20
5706.192694820416
  0
LWPOLYLINE
  5
159
330
17
100
AcDbEntity
  8
SARR_3.5x7
 62
81
370
25
100
AcDbPolyline
 90
4
 70
1
 10
2685.197444372332
 20
5862.670908226196
 10
2671.197444372332
 20
5862.670908226196
 10
2671.19744437219
 20
5706.192694820416
 10
2685.19744437219
 20
5706.192694820416
  0
LWPOLYLINE
  5
15A
330
17
100
AcDbEntity
  8
SARR_3.5x7
 62
81
370
25
100
AcDbPolyline
 90
4
 70
1
 10
2602.397444372038
 20
5782.67090822622
 10
2685.197444372238
 20
5782.67090822622
 10
2685.197444372238
 20
5752.612846622222
 10
2602.397444372038
 20
5752.612846622222
  0
LWPOLYLINE
  5
15B
330
17
100
AcDbEntity
  8
COTA
 62
0
370
25
100
AcDbPolyline
 90
2
 70
0
 10
2768.274167461484
 20
5785.170908226222
 10
2773.274167461484
 20
5780.170908226222
  0
LWPOLYLINE
  5
15C
330
17
100
AcDbEntity
  8
COTA
 62
0
370
25
100
AcDbPolyline
 90
2
 70
0
 10
2773.274167461484
 20
5898.170908226217
 10
2768.274167461484
 20
5903.170908226217
  0
LWPOLYLINE
  5
15D
330
17
100
AcDbEntity
  8
COTA
 62
0
370
25
100
AcDbPolyline
 90
2
 70
0
 10
2545.425711613985
 20
5785.170908226222
 10
2550.425711613985
 20
5780.170908226222
  0
LWPOLYLINE
  5
15E
330
17
100
AcDbEntity
  8
COTA
 62
0
370
25
100
AcDbPolyline
 90
2
 70
0
 10
2550.425711613985
 20
5898.170908226224
 10
2545.425711613985
 20
5903.170908226224
  0
LWPOLYLINE
  5
15F
330
17
100
AcDbEntity
  8
COTA
 62
0
370
25
100
AcDbPolyline
 90
2
 70
0
 10
2753.954738976019
 20
5898.170908226217
 10
2748.954738976019
 20
5903.170908226217
  0
LWPOLYLINE
  5
160
330
17
100
AcDbEntity
  8
COTA
 62
0
370
25
100
AcDbPolyline
 90
2
 70
0
 10
2748.954738976019
 20
5875.170908226194
 10
2753.954738976019
 20
5870.170908226194
  0
LWPOLYLINE
  5
161
330
17
100
AcDbEntity
  8
COTA
 62
0
370
25
100
AcDbPolyline
 90
2
 70
0
 10
2753.954738975695
 20
5866.170908226195
 10
2748.954738975695
 20
5871.170908226195
  0
LWPOLYLINE
  5
162
330
17
100
AcDbEntity
  8
COTA
 62
0
370
25
100
AcDbPolyline
 90
2
 70
0
 10
2748.954738975695
 20
5785.170908226222
 10
2753.954738975695
 20
5780.170908226222
  0
LWPOLYLINE
  5
163
330
17
100
AcDbEntity
  8
COTA
 62
0
370
25
100
AcDbPolyline
 90
2
 70
0
 10
2660.297444372127
 20
5735.44409442403
 10
2665.297444372127
 20
5740.44409442403
  0
LWPOLYLINE
  5
164
330
17
100
AcDbEntity
  8
COTA
 62
0
370
25
100
AcDbPolyline
 90
2
 70
0
 10
2627.297444372127
 20
5740.44409442403
 10
2622.297444372127
 20
5735.44409442403
  0
TEXT
  5
165
330
17
100
AcDbEntity
  8
Texto Seção
 62
7
370
15
100
AcDbText
 10
2251.888710945814
 20
5653.541134036975
 30
0.0
 40
13.0
  1
V304.A
100
AcDbText
  0
TEXT
  5
166
330
17
100
AcDbEntity
  8
5
 62
5
370
25
100
AcDbText
 10
2255.557927711632
 20
5505.819155530132
 30
0.0
 40
12.0
  1
P24
 50
359.9999644975238
100
AcDbText
  0
TEXT
  5
167
330
17
100
AcDbEntity
  8
5
 62
5
370
25
100
AcDbText
 10
2381.814825017498
 20
5505.924966409097
 30
0.0
 40
12.0
  1
P26
 50
3.55024762388e-05
100
AcDbText
  0
TEXT
  5
168
330
17
100
AcDbEntity
  8
detalhes
 62
4
370
25
100
AcDbText
 10
2671.004709061594
 20
5822.445303806164
 30
0.0
 40
9.600000000000001
  1
b
100
AcDbText
  0
TEXT
  5
169
330
17
100
AcDbEntity
  8
detalhes
 62
4
370
25
100
AcDbText
 10
2604.904714763479
 20
5823.505321751383
 30
0.0
 40
9.600000000000001
  1
a
100
AcDbText
  0
TEXT
  5
16A
330
17
100
AcDbEntity
  8
detalhes
 62
4
370
25
100
AcDbText
 10
2645.095424370718
 20
5792.906661746059
 30
0.0
 40
9.600000000000001
  1
c
100
AcDbText
  0
TEXT
  5
16B
330
17
100
AcDbEntity
  8
5
 62
5
370
25
100
AcDbText
 10
2969.91829307586
 20
5509.628154457598
 30
0.0
 40
12.0
  1
P27
 50
3.55024762388e-05
100
AcDbText
  0
TEXT
  5
16C
330
17
100
AcDbEntity
  8
Texto Seção
 62
7
370
15
100
AcDbText
 10
2258.123069803869
 20
5461.576327369753
 30
0.0
 40
13.0
  1
V304.B
100
AcDbText
  0
TEXT
  5
16D
330
17
100
AcDbEntity
  8
COTA
 62
240
370
25
100
AcDbText
 10
2284.83081606544
 20
5569.426400980725
 30
0.0
 40
10.0
  1
61
100
AcDbText
  0
TEXT
  5
16E
330
17
100
AcDbEntity
  8
COTA
 62
240
370
25
100
AcDbText
 10
2349.33081606544
 20
5569.448330805286
 30
0.0
 40
10.0
  1
68
100
AcDbText
  0
TEXT
  5
16F
330
17
100
AcDbEntity
  8
COTA
 62
240
370
25
100
AcDbText
 10
2318.83081606544
 20
5535.87327040895
 30
0.0
 40
10.0
  1
129
100
AcDbText
  0
TEXT
  5
170
330
17
100
AcDbEntity
  8
COTA
 62
240
370
25
100
AcDbText
 10
2230.677272534488
 20
5615.363987777608
 30
0.0
 40
10.0
  1
59
 50
90.0
100
AcDbText
  0
TEXT
  5
171
330
17
100
AcDbEntity
  8
COTA
 62
240
370
25
100
AcDbText
 10
2252.322017974175
 20
5608.363987777608
 30
0.0
 40
10.0
  1
45
 50
90.0
100
AcDbText
  0
TEXT
  5
172
330
17
100
AcDbEntity
  8
COTA
 62
240
370
25
100
AcDbText
 10
2252.358567681774
 20
5655.922467309771
 30
0.0
 40
10.0
  1
14
 50
90.0
100
AcDbText
  0
TEXT
  5
173
330
17
100
AcDbEntity
  8
COTA
 62
1
370
25
100
AcDbText
 10
2779.274167461486
 20
5841.670908226218
 30
0.0
 40
7.0
  1
59
 50
90.0
100
AcDbText
  0
TEXT
  5
174
330
17
100
AcDbEntity
  8
COTA
 62
1
370
25
100
AcDbText
 10
2556.425711613987
 20
5841.670908226221
 30
0.0
 40
7.0
  1
59
 50
90.0
100
AcDbText
  0
TEXT
  5
175
330
17
100
AcDbEntity
  8
Cota Seção (2x)
 62
1
370
25
100
AcDbText
 10
2648.817483052799
 20
5860.670908226186
 30
0.0
 40
7.0
  1
55
 50
90.0
100
AcDbText
  0
TEXT
  5
176
330
17
100
AcDbEntity
  8
COTA
 62
1
370
25
100
AcDbText
 10
2759.95473897602
 20
5886.670908226204
 30
0.0
 40
7.0
  1
14
 50
90.0
100
AcDbText
  0
TEXT
  5
177
330
17
100
AcDbEntity
  8
COTA
 62
1
370
25
100
AcDbText
 10
2759.954738975696
 20
5825.670908226207
 30
0.0
 40
7.0
  1
43
 50
90.0
100
AcDbText
  0
TEXT
  5
178
330
17
100
AcDbEntity
  8
COTA
 62
1
370
25
100
AcDbText
 10
2643.797444372127
 20
5743.444094424031
 30
0.0
 40
7.0
  1
19
100
AcDbText
  0
TEXT
  5
179
330
17
100
AcDbEntity
  8
Cota Seção (2x)
 62
1
370
25
100
AcDbText
 10
2643.797444372156
 20
5810.17090822622
 30
0.0
 40
7.0
  1
19
100
AcDbText
  0
TEXT
  5
17A
330
17
100
AcDbEntity
  8
COTA
 62
240
370
25
100
AcDbText
 10
2514.194818002467
 20
5567.543360045068
 30
0.0
 40
10.0
  1
203
100
AcDbText
  0
TEXT
  5
17B
330
17
100
AcDbEntity
  8
COTA
 62
240
370
25
100
AcDbText
 10
2889.194818002465
 20
5567.543360045078
 30
0.0
 40
10.0
  1
203
100
AcDbText
  0
TEXT
  5
17C
330
17
100
AcDbEntity
  8
COTA
 62
240
370
25
100
AcDbText
 10
2701.694818002467
 20
5533.9171300581
 30
0.0
 40
10.0
  1
578
100
AcDbText
  0
TEXT
  5
17D
330
17
100
AcDbEntity
  8
COTA
 62
240
370
25
100
AcDbText
 10
2701.694818002465
 20
5567.397161214694
 30
0.0
 40
10.0
  1
172
100
AcDbText
  0
TEXT
  5
17E
330
17
100
AcDbEntity
  8
COTA
 62
240
370
25
100
AcDbText
 10
2462.173700962021
 20
5354.726272934664
 30
0.0
 40
10.0
  1
244
100
AcDbText
  0
TEXT
  5
17F
330
17
100
AcDbEntity
  8
COTA
 62
240
370
25
100
AcDbText
 10
2945.173700962021
 20
5354.872471765085
 30
0.0
 40
10.0
  1
234
100
AcDbText
  0
TEXT
  5
180
330
17
100
AcDbEntity
  8
COTA
 62
240
370
25
100
AcDbText
 10
2701.173700962022
 20
5321.187762245942
 30
0.0
 40
10.0
  1
722
100
AcDbText
  0
TEXT
  5
181
330
17
100
AcDbEntity
  8
COTA
 62
240
370
25
100
AcDbText
 10
3096.492993959869
 20
5395.693099497647
 30
0.0
 40
10.0
  1
45
 50
90.0
100
AcDbText
  0
TEXT
  5
182
330
17
100
AcDbEntity
  8
COTA
 62
240
370
25
100
AcDbText
 10
3096.529543667472
 20
5443.251579029818
 30
0.0
 40
10.0
  1
14
 50
90.0
100
AcDbText
  0
TEXT
  5
183
330
17
100
AcDbEntity
  8
COTA
 62
240
370
25
100
AcDbText
 10
3118.079259867419
 20
5402.693099497654
 30
0.0
 40
10.0
  1
59
 50
90.0
100
AcDbText
  0
TEXT
  5
184
330
17
100
AcDbEntity
  8
COTA
 62
240
370
25
100
AcDbText
 10
2706.173700962021
 20
5354.726272934664
 30
0.0
 40
10.0
  1
244
100
AcDbText
  0
TEXT
  5
185
330
17
100
AcDbEntity
  8
COTA
 62
240
370
25
100
AcDbText
 10
2602.194818002463
 20
5661.933257505705
 30
0.0
 40
10.0
  1
27
100
AcDbText
  0
TEXT
  5
186
330
17
100
AcDbEntity
  8
COTA
 62
240
370
25
100
AcDbText
 10
2801.194818002466
 20
5664.321559369493
 30
0.0
 40
10.0
  1
27
100
AcDbText
  0
TEXT
  5
187
330
17
100
AcDbEntity
  8
COTA
 62
240
370
25
100
AcDbText
 10
2585.145109271053
 20
5617.863987777615
 30
0.0
 40
10.0
  1
54
 50
90.0
100
AcDbText
  0
TEXT
  5
188
330
17
100
AcDbEntity
  8
COTA
 62
240
370
25
100
AcDbText
 10
2852.653461468737
 20
5617.863987777615
 30
0.0
 40
10.0
  1
54
 50
90.0
100
AcDbText
  0
TEXT
  5
189
330
17
100
AcDbEntity
  8
COTA
 62
240
370
25
100
AcDbText
 10
3095.292898924101
 20
5580.18995310752
 30
0.0
 40
10.0
  1
7
100
AcDbText
  0
TEXT
  5
18A
330
17
100
AcDbEntity
  8
COTA
 62
240
370
25
100
AcDbText
 10
3120.00623690404
 20
5615.52029844821
 30
0.0
 40
10.0
  1
59
 50
90.0
100
AcDbText
  0
TEXT
  5
18B
330
17
100
AcDbEntity
  8
COTA
 62
240
370
25
100
AcDbText
 10
3056.427401848078
 20
5533.887890292017
 30
0.0
 40
10.0
  1
60
100
AcDbText
  0
TEXT
  5
18C
330
17
100
AcDbEntity
  8
COTA
 62
240
370
25
100
AcDbText
 10
2254.812342027755
 20
5356.158602987425
 30
0.0
 40
10.0
  1
7
100
AcDbText
  0
TEXT
  5
18D
330
17
100
AcDbEntity
  8
COTA
 62
240
370
25
100
AcDbText
 10
2238.821226270209
 20
5402.022552355579
 30
0.0
 40
10.0
  1
59
 50
90.0
100
AcDbText
  0
TEXT
  5
18E
330
17
100
AcDbEntity
  8
COTA
 62
240
370
25
100
AcDbText
 10
2278.177839103779
 20
5448.651883065128
 30
0.0
 40
10.0
  1
29
100
AcDbText
  0
TEXT
  5
18F
330
17
100
AcDbEntity
  8
COTA
 62
240
370
25
100
AcDbText
 10
2266.333179274312
 20
5409.522552355578
 30
0.0
 40
10.0
  1
44
 50
90.0
100
AcDbText
  0
TEXT
  5
190
330
17
100
AcDbEntity
  8
COTA
 62
240
370
25
100
AcDbText
 10
2266.296629566623
 20
5380.02255235558
 30
0.0
 40
10.0
  1
15
 50
90.0
100
AcDbText
  0
TEXT
  5
191
330
17
100
AcDbEntity
  8
COTA
 62
240
370
25
100
AcDbText
 10
2293.677839103779
 20
5321.217002012024
 30
0.0
 40
10.0
  1
60
100
AcDbText
  0
TEXT
  5
192
330
17
100
AcDbEntity
  8
Texto Seção
 62
3
370
15
100
AcDbText
 10
2645.997444372124
 20
5972.119672599196
 30
0.0
 40
17.0
  1

100
AcDbText
  0
TEXT
  5
193
330
17
100
AcDbEntity
  8
Texto Seção
 62
3
370
15
100
AcDbText
 10
2645.997444372124
 20
5942.219087954874
 30
0.0
 40
12.0
  1

100
AcDbText
  0
TEXT
  5
194
330
17
100
AcDbEntity
  8
Texto Seção
 62
7
370
15
100
AcDbText
 10
2645.997444372124
 20
5916.247659066388
 30
0.0
 40
10.0
  1

100
AcDbText
  0
HATCH
  5
195
330
17
100
AcDbEntity
  8
COTA
 62
7
100
AcDbHatch
 10
0.0
 20
0.0
 30
0.0
210
0.0
220
0.0
230
1.0
  2
AR-CONC
 70
0
 71
0
 91
1
 92
3
 72
0
 73
1
 93
5
 10
2383.33081606544
 20
5644.863987777608
 10
2254.33081606544
 20
5644.863987777606
 10
2254.33081606544
 20
5630.863987777605
 10
2383.33081606544
 20
5630.863987777606
 10
2383.33081606544
 20
5644.863987777608
 97
0
 75
1
 76
1
 52
0.0
 41
1.0
 77
0
 78
13
 53
50.0
 43
0.0
 44
0.0
 45
182.184668996
 46
-15.9390855389
 79
2
 49
19.05
 49
-209.55
 53
355.0
 43
0.0
 44
0.0
 45
-35.243421425
 46
191.056845239
 79
2
 49
15.24
 49
-167.64058417
 53
100.4514447
 43
15.182007
 44
-1.3282535
 45
146.9412470904
 46
175.1177519122
 79
2
 49
16.1900088
 49
-178.0902446
 53
46.1842
 43
0.0
 44
50.8
 45
271.0790408921
 46
-42.0423279327
 79
2
 49
28.575
 49
-314.325
 53
96.63555761
 43
22.5899
 44
47.2965
 45
237.4041340515
 46
247.4261245977
 79
2
 49
24.28502314
 49
-267.13560816
 53
351.18415117
 43
0.0
 44
50.8
 45
237.404134065
 46
247.4261245855
 79
2
 49
22.85996707
 49
-251.45973192
 53
21.0
 43
25.4
 44
38.1
 45
151.6143912691
 46
-102.2651981871
 79
2
 49
19.05
 49
-209.55
 53
326.0
 43
25.4
 44
38.1
 45
61.8020283476
 46
184.1879661223
 79
2
 49
15.24
 49
-167.64
 53
71.451445
 43
38.0345326
 44
29.5779001
 45
213.4164192787
 46
81.9227688859
 79
2
 49
16.1900088
 49
-178.0899376
 53
37.5
 43
0.0
 44
0.0
 45
3.0886032506
 46
84.5550388732
 79
6
 49
0.0
 49
-165.608
 49
0.0
 49
-170.18
 49
0.0
 49
-168.275
 53
7.5
 43
0.0
 44
0.0
 45
66.8196625103
 46
100.1805748181
 79
6
 49
0.0
 49
-97.028
 49
0.0
 49
-161.798
 49
0.0
 49
-64.135
 53
-32.5
 43
-56.642
 44
0.0
 45
135.5905951669
 46
-5.7287439927
 79
6
 49
0.0
 49
-63.5
 49
0.0
 49
-198.12
 49
0.0
 49
-262.89
 53
-42.5
 43
-82.042
 44
0.0
 45
148.129181386
 46
25.4264910333
 79
6
 49
0.0
 49
-82.55
 49
0.0
 49
-131.572
 49
0.0
 49
-186.69
 98
0
  0
HATCH
  5
196
330
17
100
AcDbEntity
  8
Hachura
 62
7
100
AcDbHatch
 10
0.0
 20
0.0
 30
0.0
210
0.0
220
0.0
230
1.0
  2
SOLID
 70
1
 71
0
 91
1
 92
3
 72
0
 73
1
 93
6
 10
2666.797444372127
 20
5868.6709082262
 10
2662.797444372127
 20
5868.6709082262
 10
2662.797444372127
 20
5782.670908226222
 10
2666.797444372127
 20
5782.67090822622
 10
2666.797444372127
 20
5868.670908226198
 10
2666.797444372127
 20
5868.6709082262
 97
0
 75
1
 76
1
 98
0
  0
HATCH
  5
197
330
17
100
AcDbEntity
  8
Hachura
 62
7
100
AcDbHatch
 10
0.0
 20
0.0
 30
0.0
210
0.0
220
0.0
230
1.0
  2
ANSI31
 70
0
 71
0
 91
1
 92
3
 72
0
 73
1
 93
5
 10
2624.797444372127
 20
5782.67090822622
 10
2624.797444372127
 20
5787.070908226215
 10
2638.797444372127
 20
5787.070908226215
 10
2638.797444372127
 20
5782.67090822622
 10
2624.797444372127
 20
5782.67090822622
 97
0
 75
1
 76
1
 52
0.0
 41
1.0
 77
0
 78
1
 53
45.0
 43
0.0
 44
0.0
 45
-2.2450640303
 46
2.2450640303
 79
0
 98
0
  0
HATCH
  5
198
330
17
100
AcDbEntity
  8
Hachura
 62
7
100
AcDbHatch
 10
0.0
 20
0.0
 30
0.0
210
0.0
220
0.0
230
1.0
  2
SOLID
 70
1
 71
0
 91
1
 92
3
 72
0
 73
1
 93
5
 10
2624.797444372127
 20
5787.070908226215
 10
2624.797444372127
 20
5790.67090822622
 10
2662.797444372127
 20
5790.67090822622
 10
2662.797444372127
 20
5787.070908226215
 10
2624.797444372127
 20
5787.070908226215
 97
0
 75
1
 76
1
 98
0
  0
HATCH
  5
199
330
17
100
AcDbEntity
  8
Hachura
 62
7
100
AcDbHatch
 10
0.0
 20
0.0
 30
0.0
210
0.0
220
0.0
230
1.0
  2
ANSI31
 70
0
 71
0
 91
1
 92
3
 72
0
 73
1
 93
5
 10
2662.797444372127
 20
5782.67090822622
 10
2662.797444372127
 20
5787.070908226215
 10
2648.797444372127
 20
5787.070908226215
 10
2648.797444372127
 20
5782.67090822622
 10
2662.797444372127
 20
5782.67090822622
 97
0
 75
1
 76
1
 52
0.0
 41
1.0
 77
0
 78
1
 53
45.0
 43
0.0
 44
0.0
 45
-2.2450640303
 46
2.2450640303
 79
0
 98
0
  0
HATCH
  5
19A
330
17
100
AcDbEntity
  8
Hachura
 62
7
100
AcDbHatch
 10
0.0
 20
0.0
 30
0.0
210
0.0
220
0.0
230
1.0
  2
SOLID
 70
1
 71
0
 91
1
 92
3
 72
0
 73
1
 93
6
 10
2620.797444372127
 20
5900.670908226222
 10
2624.797444372127
 20
5900.670908226222
 10
2624.797444372127
 20
5782.670908226222
 10
2620.797444372127
 20
5782.67090822622
 10
2620.797444372127
 20
5900.670908226221
 10
2620.797444372127
 20
5900.670908226222
 97
0
 75
1
 76
1
 98
0
  0
HATCH
  5
19B
330
17
100
AcDbEntity
  8
Hachura
 62
7
100
AcDbHatch
 10
0.0
 20
0.0
 30
0.0
210
0.0
220
0.0
230
1.0
  2
SOLID
 70
1
 71
0
 91
1
 92
3
 72
0
 73
1
 93
5
 10
2662.797444372127
 20
5868.6709082262
 10
2662.797444372127
 20
5872.670908226201
 10
2718.397444372104
 20
5872.670908226194
 10
2718.397444372104
 20
5868.670908226193
 10
2662.797444372127
 20
5868.6709082262
 97
0
 75
1
 76
1
 98
0
  0
HATCH
  5
19C
330
17
100
AcDbEntity
  8
COTA
 62
7
100
AcDbHatch
 10
0.0
 20
0.0
 30
0.0
210
0.0
220
0.0
230
1.0
  2
AR-CONC
 70
0
 71
0
 91
1
 92
3
 72
0
 73
1
 93
5
 10
3062.173700962018
 20
5432.193099497644
 10
3062.173700962018
 20
5418.193099497637
 10
2340.173700962017
 20
5418.193099497603
 10
2340.173700962017
 20
5432.193099497615
 10
3062.173700962018
 20
5432.193099497644
 97
0
 75
1
 76
1
 52
0.0
 41
1.0
 77
0
 78
13
 53
50.0
 43
0.0
 44
0.0
 45
182.184668996
 46
-15.9390855389
 79
2
 49
19.05
 49
-209.55
 53
355.0
 43
0.0
 44
0.0
 45
-35.243421425
 46
191.056845239
 79
2
 49
15.24
 49
-167.64058417
 53
100.4514447
 43
15.182007
 44
-1.3282535
 45
146.9412470904
 46
175.1177519122
 79
2
 49
16.1900088
 49
-178.0902446
 53
46.1842
 43
0.0
 44
50.8
 45
271.0790408921
 46
-42.0423279327
 79
2
 49
28.575
 49
-314.325
 53
96.63555761
 43
22.5899
 44
47.2965
 45
237.4041340515
 46
247.4261245977
 79
2
 49
24.28502314
 49
-267.13560816
 53
351.18415117
 43
0.0
 44
50.8
 45
237.404134065
 46
247.4261245855
 79
2
 49
22.85996707
 49
-251.45973192
 53
21.0
 43
25.4
 44
38.1
 45
151.6143912691
 46
-102.2651981871
 79
2
 49
19.05
 49
-209.55
 53
326.0
 43
25.4
 44
38.1
 45
61.8020283476
 46
184.1879661223
 79
2
 49
15.24
 49
-167.64
 53
71.451445
 43
38.0345326
 44
29.5779001
 45
213.4164192787
 46
81.9227688859
 79
2
 49
16.1900088
 49
-178.0899376
 53
37.5
 43
0.0
 44
0.0
 45
3.0886032506
 46
84.5550388732
 79
6
 49
0.0
 49
-165.608
 49
0.0
 49
-170.18
 49
0.0
 49
-168.275
 53
7.5
 43
0.0
 44
0.0
 45
66.8196625103
 46
100.1805748181
 79
6
 49
0.0
 49
-97.028
 49
0.0
 49
-161.798
 49
0.0
 49
-64.135
 53
-32.5
 43
-56.642
 44
0.0
 45
135.5905951669
 46
-5.7287439927
 79
6
 49
0.0
 49
-63.5
 49
0.0
 49
-198.12
 49
0.0
 49
-262.89
 53
-42.5
 43
-82.042
 44
0.0
 45
148.129181386
 46
25.4264910333
 79
6
 49
0.0
 49
-82.55
 49
0.0
 49
-131.572
 49
0.0
 49
-186.69
 98
0
  0
HATCH
  5
19D
330
17
100
AcDbEntity
  8
Hachura
 62
7
100
AcDbHatch
 10
0.0
 20
0.0
 30
0.0
210
0.0
220
0.0
230
1.0
  2
ANSI31
 70
0
 71
0
 91
1
 92
3
 72
0
 73
1
 93
5
 10
2616.397444372126
 20
5886.670908226222
 10
2620.79744437212
 20
5886.670908226222
 10
2620.79744437212
 20
5900.670908226222
 10
2616.397444372126
 20
5900.670908226222
 10
2616.397444372126
 20
5886.670908226222
 97
0
 75
1
 76
1
 52
0.0
 41
1.0
 77
0
 78
1
 53
45.0
 43
0.0
 44
0.0
 45
-2.2450640303
 46
2.2450640303
 79
0
 98
0
  0
HATCH
  5
19E
330
17
100
AcDbEntity
  8
Hachura
 62
7
100
AcDbHatch
 10
0.0
 20
0.0
 30
0.0
210
0.0
220
0.0
230
1.0
  2
ANSI31
 70
0
 71
0
 91
1
 92
3
 72
0
 73
1
 93
5
 10
2616.397444372122
 20
5840.774473651427
 10
2620.797444372116
 20
5840.774473651427
 10
2620.797444372116
 20
5854.774473651427
 10
2616.397444372122
 20
5854.774473651427
 10
2616.397444372122
 20
5840.774473651427
 97
0
 75
1
 76
1
 52
0.0
 41
1.0
 77
0
 78
1
 53
45.0
 43
0.0
 44
0.0
 45
-2.2450640303
 46
2.2450640303
 79
0
 98
0
  0
HATCH
  5
19F
330
17
100
AcDbEntity
  8
Hachura
 62
7
100
AcDbHatch
 10
0.0
 20
0.0
 30
0.0
210
0.0
220
0.0
230
1.0
  2
ANSI31
 70
0
 71
0
 91
1
 92
3
 72
0
 73
1
 93
5
 10
2616.397444372115
 20
5782.67090822622
 10
2620.797444372109
 20
5782.67090822622
 10
2620.797444372109
 20
5796.670908226221
 10
2616.397444372115
 20
5796.670908226221
 10
2616.397444372115
 20
5782.67090822622
 97
0
 75
1
 76
1
 52
0.0
 41
1.0
 77
0
 78
1
 53
45.0
 43
0.0
 44
0.0
 45
-2.2450640303
 46
2.2450640303
 79
0
 98
0
  0
HATCH
  5
1A0
330
17
100
AcDbEntity
  8
Hachura
 62
7
100
AcDbHatch
 10
0.0
 20
0.0
 30
0.0
210
0.0
220
0.0
230
1.0
  2
ANSI31
 70
0
 71
0
 91
1
 92
3
 72
0
 73
1
 93
5
 10
2671.197444372121
 20
5854.6709082262
 10
2666.797444372127
 20
5854.6709082262
 10
2666.797444372127
 20
5868.6709082262
 10
2671.197444372121
 20
5868.6709082262
 10
2671.197444372121
 20
5854.6709082262
 97
0
 75
1
 76
1
 52
0.0
 41
1.0
 77
0
 78
1
 53
45.0
 43
0.0
 44
0.0
 45
-2.2450640303
 46
2.2450640303
 79
0
 98
0
  0
HATCH
  5
1A1
330
17
100
AcDbEntity
  8
Hachura
 62
7
100
AcDbHatch
 10
0.0
 20
0.0
 30
0.0
210
0.0
220
0.0
230
1.0
  2
ANSI31
 70
0
 71
0
 91
1
 92
3
 72
0
 73
1
 93
5
 10
2671.197444372197
 20
5782.67090822622
 10
2666.797444372204
 20
5782.67090822622
 10
2666.797444372204
 20
5796.670908226221
 10
2671.197444372197
 20
5796.670908226221
 10
2671.197444372197
 20
5782.67090822622
 97
0
 75
1
 76
1
 52
0.0
 41
1.0
 77
0
 78
1
 53
45.0
 43
0.0
 44
0.0
 45
-2.2450640303
 46
2.2450640303
 79
0
 98
0
  0
HATCH
  5
1A2
330
17
100
AcDbEntity
  8
REAPROVEITAMENTO
 62
7
100
AcDbHatch
 10
0.0
 20
0.0
 30
0.0
210
0.0
220
0.0
230
1.0
  2
ANSI31
 70
0
 71
0
 91
1
 92
3
 72
0
 73
1
 93
6
 10
2383.33081606544
 20
5585.863987777605
 10
2383.33081606544
 20
5630.863987777603
 10
2254.330816065436
 20
5630.863987777608
 10
2254.330816065436
 20
5585.863987777614
 10
2383.330816065443
 20
5585.863987777605
 10
2383.33081606544
 20
5585.863987777605
 97
0
 75
1
 76
1
 52
0.0
 41
1.0
 77
0
 78
1
 53
45.0
 43
0.0
 44
0.0
 45
-2.2450640303
 46
2.2450640303
 79
0
 98
0
  0
HATCH
  5
1A3
330
17
100
AcDbEntity
  8
REAPROVEITAMENTO
 62
7
100
AcDbHatch
 10
0.0
 20
0.0
 30
0.0
210
0.0
220
0.0
230
1.0
  2
ANSI31
 70
0
 71
0
 91
1
 92
3
 72
0
 73
1
 93
7
 10
2615.694818002465
 20
5590.863987777615
 10
2588.694818002465
 20
5590.863987777616
 10
2588.694818002465
 20
5644.863987777597
 10
2412.694818002459
 20
5644.863987777609
 10
2412.694818002461
 20
5585.863987777618
 10
2615.694818002465
 20
5585.863987777607
 10
2615.694818002465
 20
5590.863987777615
 97
0
 75
1
 76
1
 52
0.0
 41
1.0
 77
0
 78
1
 53
45.0
 43
0.0
 44
0.0
 45
-2.2450640303
 46
2.2450640303
 79
0
 98
0
  0
HATCH
  5
1A4
330
17
100
AcDbEntity
  8
REAPROVEITAMENTO
 62
7
100
AcDbHatch
 10
0.0
 20
0.0
 30
0.0
210
0.0
220
0.0
230
1.0
  2
ANSI31
 70
0
 71
0
 91
1
 92
3
 72
0
 73
1
 93
6
 10
2787.694818002468
 20
5585.863987777617
 10
2787.694818002467
 20
5644.863987777613
 10
2615.694818002461
 20
5644.863987777622
 10
2615.694818002461
 20
5585.863987777624
 10
2787.694818002467
 20
5585.863987777617
 10
2787.694818002468
 20
5585.863987777617
 97
0
 75
1
 76
1
 52
0.0
 41
1.0
 77
0
 78
1
 53
45.0
 43
0.0
 44
0.0
 45
-2.2450640303
 46
2.2450640303
 79
0
 98
0
  0
HATCH
  5
1A5
330
17
100
AcDbEntity
  8
REAPROVEITAMENTO
 62
7
100
AcDbHatch
 10
0.0
 20
0.0
 30
0.0
210
0.0
220
0.0
230
1.0
  2
ANSI31
 70
0
 71
0
 91
1
 92
3
 72
0
 73
1
 93
8
 10
2814.694818002465
 20
5590.863987777616
 10
2787.694818002467
 20
5590.863987777616
 10
2787.69481800247
 20
5585.863987777632
 10
2990.694818002463
 20
5585.863987777624
 10
2990.694818002463
 20
5644.863987777606
 10
2814.694818002465
 20
5644.863987777611
 10
2814.694818002465
 20
5590.863987777615
 10
2814.694818002465
 20
5590.863987777616
 97
0
 75
1
 76
1
 52
0.0
 41
1.0
 77
0
 78
1
 53
45.0
 43
0.0
 44
0.0
 45
-2.2450640303
 46
2.2450640303
 79
0
 98
0
  0
HATCH
  5
1A6
330
17
100
AcDbEntity
  8
REAPROVEITAMENTO
 62
7
100
AcDbHatch
 10
0.0
 20
0.0
 30
0.0
210
0.0
220
0.0
230
1.0
  2
ANSI31
 70
0
 71
0
 91
1
 92
3
 72
0
 73
1
 93
6
 10
3086.427401848077
 20
5586.020298448208
 10
3086.427401848077
 20
5645.020298448208
 10
3026.427401848074
 20
5645.020298448209
 10
3026.427401848076
 20
5586.020298448211
 10
3086.427401848079
 20
5586.020298448208
 10
3086.427401848077
 20
5586.020298448208
 97
0
 75
1
 76
1
 52
0.0
 41
1.0
 77
0
 78
1
 53
45.0
 43
0.0
 44
0.0
 45
-2.2450640303
 46
2.2450640303
 79
0
 98
0
  0
HATCH
  5
1A7
330
17
100
AcDbEntity
  8
REAPROVEITAMENTO
 62
7
100
AcDbHatch
 10
0.0
 20
0.0
 30
0.0
210
0.0
220
0.0
230
1.0
  2
ANSI31
 70
0
 71
0
 91
1
 92
3
 72
0
 73
1
 93
7
 10
2292.677839103779
 20
5431.522552355575
 10
2292.677839103779
 20
5387.52255235558
 10
2263.677839103779
 20
5387.522552355578
 10
2263.677839103779
 20
5372.522552355583
 10
2323.677839103781
 20
5372.522552355575
 10
2323.677839103779
 20
5431.522552355573
 10
2292.677839103779
 20
5431.522552355575
 97
0
 75
1
 76
1
 52
0.0
 41
1.0
 77
0
 78
1
 53
45.0
 43
0.0
 44
0.0
 45
-2.2450640303
 46
2.2450640303
 79
0
 98
0
  0
HATCH
  5
1A8
330
17
100
AcDbEntity
  8
REAPROVEITAMENTO
 62
7
100
AcDbHatch
 10
0.0
 20
0.0
 30
0.0
210
0.0
220
0.0
230
1.0
  2
ANSI31
 70
0
 71
0
 91
1
 92
3
 72
0
 73
1
 93
5
 10
3062.173700962018
 20
5373.193099497637
 10
3062.173700962018
 20
5418.193099497635
 10
2340.173700962019
 20
5418.193099497612
 10
2340.173700962019
 20
5373.193099497616
 10
3062.173700962018
 20
5373.193099497637
 97
0
 75
1
 76
1
 52
0.0
 41
1.0
 77
0
 78
1
 53
45.0
 43
0.0
 44
0.0
 45
-2.2450640303
 46
2.2450640303
 79
0
 98
0
  0
ENDSEC
  0
SECTION
  2
OBJECTS
  0
DICTIONARY
  5
A
330
0
100
AcDbDictionary
281
1
  3
ACAD_COLOR
350
B
  3
ACAD_GROUP
350
C
  3
ACAD_LAYOUT
350
D
  3
ACAD_MATERIAL
350
E
  3
ACAD_MLEADERSTYLE
350
F
  3
ACAD_MLINESTYLE
350
10
  3
ACAD_PLOTSETTINGS
350
11
  3
ACAD_PLOTSTYLENAME
350
12
  3
ACAD_SCALELIST
350
14
  3
ACAD_TABLESTYLE
350
15
  3
ACAD_VISUALSTYLE
350
16
  3
EZDXF_META
350
2D
  0
DICTIONARY
  5
B
330
A
100
AcDbDictionary
281
1
  0
DICTIONARY
  5
C
330
A
100
AcDbDictionary
281
1
  0
DICTIONARY
  5
D
330
A
100
AcDbDictionary
281
1
  3
Model
350
1A
  3
Layout1
350
1E
  0
DICTIONARY
  5
E
330
A
100
AcDbDictionary
281
1
  3
ByBlock
350
1F
  3
ByLayer
350
20
  3
Global
350
21
  0
DICTIONARY
  5
F
330
A
100
AcDbDictionary
281
1
  3
Standard
350
2C
  0
DICTIONARY
  5
10
330
A
100
AcDbDictionary
281
1
  3
Standard
350
22
  0
DICTIONARY
  5
11
330
A
100
AcDbDictionary
281
1
  0
ACDBDICTIONARYWDFLT
  5
12
330
A
100
AcDbDictionary
281
1
  3
Normal
350
13
100
AcDbDictionaryWithDefault
340
13
  0
ACDBPLACEHOLDER
  5
13
330
12
  0
DICTIONARY
  5
14
330
A
100
AcDbDictionary
281
1
  0
DICTIONARY
  5
15
330
A
100
AcDbDictionary
281
1
  0
DICTIONARY
  5
16
330
A
100
AcDbDictionary
281
1
  0
LAYOUT
  5
1A
330
D
100
AcDbPlotSettings
  1

  4
A3
  6

 40
7.5
 41
20.0
 42
7.5
 43
20.0
 44
420.0
 45
297.0
 46
0.0
 47
0.0
 48
0.0
 49
0.0
140
0.0
141
0.0
142
1.0
143
1.0
 70
1024
 72
1
 73
0
 74
5
  7

 75
16
 76
0
 77
2
 78
300
147
1.0
148
0.0
149
0.0
100
AcDbLayout
  1
Model
 70
1
 71
0
 10
0.0
 20
0.0
 11
420.0
 21
297.0
 12
0.0
 22
0.0
 32
0.0
 14
1e+20
 24
1e+20
 34
1e+20
 15
-1e+20
 25
-1e+20
 35
-1e+20
146
0.0
 13
0.0
 23
0.0
 33
0.0
 16
1.0
 26
0.0
 36
0.0
 17
0.0
 27
1.0
 37
0.0
 76
1
330
17
  0
LAYOUT
  5
1E
330
D
100
AcDbPlotSettings
  1

  4
A3
  6

 40
7.5
 41
20.0
 42
7.5
 43
20.0
 44
420.0
 45
297.0
 46
0.0
 47
0.0
 48
0.0
 49
0.0
140
0.0
141
0.0
142
1.0
143
1.0
 70
0
 72
1
 73
0
 74
5
  7

 75
16
 76
0
 77
2
 78
300
147
1.0
148
0.0
149
0.0
100
AcDbLayout
  1
Layout1
 70
1
 71
1
 10
0.0
 20
0.0
 11
420.0
 21
297.0
 12
0.0
 22
0.0
 32
0.0
 14
1e+20
 24
1e+20
 34
1e+20
 15
-1e+20
 25
-1e+20
 35
-1e+20
146
0.0
 13
0.0
 23
0.0
 33
0.0
 16
1.0
 26
0.0
 36
0.0
 17
0.0
 27
1.0
 37
0.0
 76
1
330
1B
  0
MATERIAL
  5
1F
102
{ACAD_REACTORS
330
E
102
}
330
E
100
AcDbMaterial
  1
ByBlock
  2

 70
0
 40
1.0
 71
1
 41
1.0
 91
-1023410177
 42
1.0
 72
1
  3

 73
1
 74
1
 75
1
 44
0.5
 73
0
 45
1.0
 46
1.0
 77
1
  4

 78
1
 79
1
170
1
 48
1.0
171
1
  6

172
1
173
1
174
1
140
1.0
141
1.0
175
1
  7

176
1
177
1
178
1
143
1.0
179
1
  8

270
1
271
1
272
1
145
1.0
146
1.0
273
1
  9

274
1
275
1
276
1
 42
1.0
 72
1
  3

 73
1
 74
1
 75
1
 94
63
  0
MATERIAL
  5
20
102
{ACAD_REACTORS
330
E
102
}
330
E
100
AcDbMaterial
  1
ByLayer
  2

 70
0
 40
1.0
 71
1
 41
1.0
 91
-1023410177
 42
1.0
 72
1
  3

 73
1
 74
1
 75
1
 44
0.5
 73
0
 45
1.0
 46
1.0
 77
1
  4

 78
1
 79
1
170
1
 48
1.0
171
1
  6

172
1
173
1
174
1
140
1.0
141
1.0
175
1
  7

176
1
177
1
178
1
143
1.0
179
1
  8

270
1
271
1
272
1
145
1.0
146
1.0
273
1
  9

274
1
275
1
276
1
 42
1.0
 72
1
  3

 73
1
 74
1
 75
1
 94
63
  0
MATERIAL
  5
21
102
{ACAD_REACTORS
330
E
102
}
330
E
100
AcDbMaterial
  1
Global
  2

 70
0
 40
1.0
 71
1
 41
1.0
 91
-1023410177
 42
1.0
 72
1
  3

 73
1
 74
1
 75
1
 44
0.5
 73
0
 45
1.0
 46
1.0
 77
1
  4

 78
1
 79
1
170
1
 48
1.0
171
1
  6

172
1
173
1
174
1
140
1.0
141
1.0
175
1
  7

176
1
177
1
178
1
143
1.0
179
1
  8

270
1
271
1
272
1
145
1.0
146
1.0
273
1
  9

274
1
275
1
276
1
 42
1.0
 72
1
  3

 73
1
 74
1
 75
1
 94
63
  0
MLINESTYLE
  5
22
102
{ACAD_REACTORS
330
10
102
}
330
10
100
AcDbMlineStyle
  2
Standard
 70
0
  3

 62
256
 51
90.0
 52
90.0
 71
2
 49
0.5
 62
256
  6
BYLAYER
 49
-0.5
 62
256
  6
BYLAYER
  0
MLEADERSTYLE
  5
2C
102
{ACAD_REACTORS
330
F
102
}
330
F
100
AcDbMLeaderStyle
179
2
170
2
171
1
172
0
 90
2
 40
0.0
 41
0.0
173
1
 91
-1056964608
 92
-2
290
1
 42
2.0
291
1
 43
8.0
  3
Standard
 44
4.0
300

342
29
174
1
175
1
176
0
178
1
 93
-1056964608
 45
4.0
292
0
297
0
 46
4.0
 94
-1056964608
 47
1.0
 49
1.0
140
1.0
294
1
141
0.0
177
0
142
1.0
295
0
296
0
143
3.75
271
0
272
9
273
9
  0
DICTIONARY
  5
2D
330
A
100
AcDbDictionary
280
1
281
1
  3
CREATED_BY_EZDXF
350
2E
  3
WRITTEN_BY_EZDXF
350
1AB
  0
DICTIONARYVAR
  5
2E
330
2D
100
DictionaryVariables
280
0
  1
1.4.3 @ 2026-06-10T17:42:08.777610+00:00
  0
DICTIONARYVAR
  5
1AB
330
2D
100
DictionaryVariables
280
0
  1
1.4.3 @ 2026-06-10T17:42:08.789796+00:00
  0
ENDSEC
  0
EOF
