  0
SECTION
  2
HEADER
  9
$ACADVER
  1
AC1024
  9
$ACADMAINTVER
 70
6
  9
$DWGCODEPAGE
  3
ANSI_1252
  9
$LASTSAVEDBY
  1
ezdxf
  9
$INSBASE
 10
0.0
 20
0.0
 30
0.0
  9
$EXTMIN
 10
1e+20
 20
1e+20
 30
1e+20
  9
$EXTMAX
 10
-1e+20
 20
-1e+20
 30
-1e+20
  9
$LIMMIN
 10
0.0
 20
0.0
  9
$LIMMAX
 10
420.0
 20
297.0
  9
$ORTHOMODE
 70
0
  9
$REGENMODE
 70
1
  9
$FILLMODE
 70
1
  9
$QTEXTMODE
 70
0
  9
$MIRRTEXT
 70
1
  9
$LTSCALE
 40
1.0
  9
$ATTMODE
 70
1
  9
$TEXTSIZE
 40
2.5
  9
$TRACEWID
 40
1.0
  9
$TEXTSTYLE
  7
Standard
  9
$CLAYER
  8
0
  9
$CELTYPE
  6
ByLayer
  9
$CECOLOR
 62
256
  9
$CELTSCALE
 40
1.0
  9
$DISPSILH
 70
0
  9
$DIMSCALE
 40
1.0
  9
$DIMASZ
 40
2.5
  9
$DIMEXO
 40
0.625
  9
$DIMDLI
 40
3.75
  9
$DIMRND
 40
0.0
  9
$DIMDLE
 40
0.0
  9
$DIMEXE
 40
1.25
  9
$DIMTP
 40
0.0
  9
$DIMTM
 40
0.0
  9
$DIMTXT
 40
2.5
  9
$DIMCEN
 40
2.5
  9
$DIMTSZ
 40
0.0
  9
$DIMTOL
 70
0
  9
$DIMLIM
 70
0
  9
$DIMTIH
 70
0
  9
$DIMTOH
 70
0
  9
$DIMSE1
 70
0
  9
$DIMSE2
 70
0
  9
$DIMTAD
 70
1
  9
$DIMZIN
 70
8
  9
$DIMBLK
  1

  9
$DIMASO
 70
1
  9
$DIMSHO
 70
1
  9
$DIMPOST
  1

  9
$DIMAPOST
  1

  9
$DIMALT
 70
0
  9
$DIMALTD
 70
3
  9
$DIMALTF
 40
0.03937007874
  9
$DIMLFAC
 40
1.0
  9
$DIMTOFL
 70
1
  9
$DIMTVP
 40
0.0
  9
$DIMTIX
 70
0
  9
$DIMSOXD
 70
0
  9
$DIMSAH
 70
0
  9
$DIMBLK1
  1

  9
$DIMBLK2
  1

  9
$DIMSTYLE
  2
ISO-25
  9
$DIMCLRD
 70
0
  9
$DIMCLRE
 70
0
  9
$DIMCLRT
 70
0
  9
$DIMTFAC
 40
1.0
  9
$DIMGAP
 40
0.625
  9
$DIMJUST
 70
0
  9
$DIMSD1
 70
0
  9
$DIMSD2
 70
0
  9
$DIMTOLJ
 70
0
  9
$DIMTZIN
 70
8
  9
$DIMALTZ
 70
0
  9
$DIMALTTZ
 70
0
  9
$DIMUPT
 70
0
  9
$DIMDEC
 70
2
  9
$DIMTDEC
 70
2
  9
$DIMALTU
 70
2
  9
$DIMALTTD
 70
3
  9
$DIMTXSTY
  7
Standard
  9
$DIMAUNIT
 70
0
  9
$DIMADEC
 70
0
  9
$DIMALTRND
 40
0.0
  9
$DIMAZIN
 70
0
  9
$DIMDSEP
 70
44
  9
$DIMATFIT
 70
3
  9
$DIMFRAC
 70
0
  9
$DIMLDRBLK
  1

  9
$DIMLUNIT
 70
2
  9
$DIMLWD
 70
-2
  9
$DIMLWE
 70
-2
  9
$DIMTMOVE
 70
0
  9
$DIMFXL
 40
1.0
  9
$DIMFXLON
 70
0
  9
$DIMJOGANG
 40
0.785398163397
  9
$DIMTFILL
 70
0
  9
$DIMTFILLCLR
 70
0
  9
$DIMARCSYM
 70
0
  9
$DIMLTYPE
  6

  9
$DIMLTEX1
  6

  9
$DIMLTEX2
  6

  9
$DIMTXTDIRECTION
 70
0
  9
$LUNITS
 70
2
  9
$LUPREC
 70
4
  9
$SKETCHINC
 40
1.0
  9
$FILLETRAD
 40
10.0
  9
$AUNITS
 70
0
  9
$AUPREC
 70
2
  9
$MENU
  1
.
  9
$ELEVATION
 40
0.0
  9
$PELEVATION
 40
0.0
  9
$THICKNESS
 40
0.0
  9
$LIMCHECK
 70
0
  9
$CHAMFERA
 40
0.0
  9
$CHAMFERB
 40
0.0
  9
$CHAMFERC
 40
0.0
  9
$CHAMFERD
 40
0.0
  9
$SKPOLY
 70
0
  9
$TDCREATE
 40
2461202.7053125
  9
$TDUCREATE
 40
2458532.153996898
  9
$TDUPDATE
 40
2461202.7053125
  9
$TDUUPDATE
 40
2458532.1544311
  9
$TDINDWG
 40
0.0
  9
$TDUSRTIMER
 40
0.0
  9
$USRTIMER
 70
1
  9
$ANGBASE
 50
0.0
  9
$ANGDIR
 70
0
  9
$PDMODE
 70
0
  9
$PDSIZE
 40
0.0
  9
$PLINEWID
 40
0.0
  9
$SPLFRAME
 70
0
  9
$SPLINETYPE
 70
6
  9
$SPLINESEGS
 70
8
  9
$HANDSEED
  5
1A8
  9
$SURFTAB1
 70
6
  9
$SURFTAB2
 70
6
  9
$SURFTYPE
 70
6
  9
$SURFU
 70
6
  9
$SURFV
 70
6
  9
$UCSBASE
  2

  9
$UCSNAME
  2

  9
$UCSORG
 10
0.0
 20
0.0
 30
0.0
  9
$UCSXDIR
 10
1.0
 20
0.0
 30
0.0
  9
$UCSYDIR
 10
0.0
 20
1.0
 30
0.0
  9
$UCSORTHOREF
  2

  9
$UCSORTHOVIEW
 70
0
  9
$UCSORGTOP
 10
0.0
 20
0.0
 30
0.0
  9
$UCSORGBOTTOM
 10
0.0
 20
0.0
 30
0.0
  9
$UCSORGLEFT
 10
0.0
 20
0.0
 30
0.0
  9
$UCSORGRIGHT
 10
0.0
 20
0.0
 30
0.0
  9
$UCSORGFRONT
 10
0.0
 20
0.0
 30
0.0
  9
$UCSORGBACK
 10
0.0
 20
0.0
 30
0.0
  9
$PUCSBASE
  2

  9
$PUCSNAME
  2

  9
$PUCSORG
 10
0.0
 20
0.0
 30
0.0
  9
$PUCSXDIR
 10
1.0
 20
0.0
 30
0.0
  9
$PUCSYDIR
 10
0.0
 20
1.0
 30
0.0
  9
$PUCSORTHOREF
  2

  9
$PUCSORTHOVIEW
 70
0
  9
$PUCSORGTOP
 10
0.0
 20
0.0
 30
0.0
  9
$PUCSORGBOTTOM
 10
0.0
 20
0.0
 30
0.0
  9
$PUCSORGLEFT
 10
0.0
 20
0.0
 30
0.0
  9
$PUCSORGRIGHT
 10
0.0
 20
0.0
 30
0.0
  9
$PUCSORGFRONT
 10
0.0
 20
0.0
 30
0.0
  9
$PUCSORGBACK
 10
0.0
 20
0.0
 30
0.0
  9
$USERI1
 70
0
  9
$USERI2
 70
0
  9
$USERI3
 70
0
  9
$USERI4
 70
0
  9
$USERI5
 70
0
  9
$USERR1
 40
0.0
  9
$USERR2
 40
0.0
  9
$USERR3
 40
0.0
  9
$USERR4
 40
0.0
  9
$USERR5
 40
0.0
  9
$WORLDVIEW
 70
1
  9
$SHADEDGE
 70
3
  9
$SHADEDIF
 70
70
  9
$TILEMODE
 70
1
  9
$MAXACTVP
 70
64
  9
$PINSBASE
 10
0.0
 20
0.0
 30
0.0
  9
$PLIMCHECK
 70
0
  9
$PEXTMIN
 10
1e+20
 20
1e+20
 30
1e+20
  9
$PEXTMAX
 10
-1e+20
 20
-1e+20
 30
-1e+20
  9
$PLIMMIN
 10
0.0
 20
0.0
  9
$PLIMMAX
 10
420.0
 20
297.0
  9
$UNITMODE
 70
0
  9
$VISRETAIN
 70
1
  9
$PLINEGEN
 70
0
  9
$PSLTSCALE
 70
1
  9
$TREEDEPTH
 70
3020
  9
$CMLSTYLE
  2
Standard
  9
$CMLJUST
 70
0
  9
$CMLSCALE
 40
20.0
  9
$PROXYGRAPHICS
 70
1
  9
$MEASUREMENT
 70
1
  9
$CELWEIGHT
370
-1
  9
$ENDCAPS
280
0
  9
$JOINSTYLE
280
0
  9
$LWDISPLAY
290
0
  9
$INSUNITS
 70
6
  9
$HYPERLINKBASE
  1

  9
$STYLESHEET
  1

  9
$XEDIT
290
1
  9
$CEPSNTYPE
380
0
  9
$PSTYLEMODE
290
1
  9
$FINGERPRINTGUID
  2
{45A8822D-22AD-4FD7-8CF9-49E56B1843C4}
  9
$VERSIONGUID
  2
{D2F48166-7AB1-4339-BC42-D0AF3225F04C}
  9
$EXTNAMES
290
1
  9
$PSVPSCALE
 40
0.0
  9
$OLESTARTUP
290
0
  9
$SORTENTS
280
127
  9
$INDEXCTL
280
0
  9
$HIDETEXT
280
1
  9
$XCLIPFRAME
280
1
  9
$HALOGAP
280
0
  9
$OBSCOLOR
 70
257
  9
$OBSLTYPE
280
0
  9
$INTERSECTIONDISPLAY
280
0
  9
$INTERSECTIONCOLOR
 70
257
  9
$DIMASSOC
280
2
  9
$PROJECTNAME
  1

  9
$CAMERADISPLAY
290
0
  9
$LENSLENGTH
 40
50.0
  9
$CAMERAHEIGHT
 40
0.0
  9
$STEPSPERSEC
 40
24.0
  9
$STEPSIZE
 40
100.0
  9
$3DDWFPREC
 40
2.0
  9
$PSOLWIDTH
 40
0.005
  9
$PSOLHEIGHT
 40
0.08
  9
$LOFTANG1
 40
1.570796326795
  9
$LOFTANG2
 40
1.570796326795
  9
$LOFTMAG1
 40
0.0
  9
$LOFTMAG2
 40
0.0
  9
$LOFTPARAM
 70
7
  9
$LOFTNORMALS
280
1
  9
$LATITUDE
 40
37.795
  9
$LONGITUDE
 40
-122.394
  9
$NORTHDIRECTION
 40
0.0
  9
$TIMEZONE
 70
-8000
  9
$LIGHTGLYPHDISPLAY
280
1
  9
$TILEMODELIGHTSYNCH
280
1
  9
$CMATERIAL
347
20
  9
$SOLIDHIST
280
0
  9
$SHOWHIST
280
1
  9
$DWFFRAME
280
2
  9
$DGNFRAME
280
2
  9
$REALWORLDSCALE
290
1
  9
$INTERFERECOLOR
 62
256
  9
$CSHADOW
280
0
  9
$SHADOWPLANELOCATION
 40
0.0
  0
ENDSEC
  0
SECTION
  2
CLASSES
  0
CLASS
  1
ACDBDICTIONARYWDFLT
  2
AcDbDictionaryWithDefault
  3
ObjectDBX Classes
 90
0
 91
0
280
0
281
0
  0
CLASS
  1
SUN
  2
AcDbSun
  3
SCENEOE
 90
1153
 91
0
280
0
281
0
  0
CLASS
  1
VISUALSTYLE
  2
AcDbVisualStyle
  3
ObjectDBX Classes
 90
4095
 91
0
280
0
281
0
  0
CLASS
  1
MATERIAL
  2
AcDbMaterial
  3
ObjectDBX Classes
 90
1153
 91
0
280
0
281
0
  0
CLASS
  1
SCALE
  2
AcDbScale
  3
ObjectDBX Classes
 90
1153
 91
0
280
0
281
0
  0
CLASS
  1
TABLESTYLE
  2
AcDbTableStyle
  3
ObjectDBX Classes
 90
4095
 91
0
280
0
281
0
  0
CLASS
  1
MLEADERSTYLE
  2
AcDbMLeaderStyle
  3
ACDB_MLEADERSTYLE_CLASS
 90
4095
 91
0
280
0
281
0
  0
CLASS
  1
DICTIONARYVAR
  2
AcDbDictionaryVar
  3
ObjectDBX Classes
 90
0
 91
0
280
0
281
0
  0
CLASS
  1
CELLSTYLEMAP
  2
AcDbCellStyleMap
  3
ObjectDBX Classes
 90
1152
 91
0
280
0
281
0
  0
CLASS
  1
MENTALRAYRENDERSETTINGS
  2
AcDbMentalRayRenderSettings
  3
SCENEOE
 90
1024
 91
0
280
0
281
0
  0
CLASS
  1
ACDBDETAILVIEWSTYLE
  2
AcDbDetailViewStyle
  3
ObjectDBX Classes
 90
1025
 91
0
280
0
281
0
  0
CLASS
  1
ACDBSECTIONVIEWSTYLE
  2
AcDbSectionViewStyle
  3
ObjectDBX Classes
 90
1025
 91
0
280
0
281
0
  0
CLASS
  1
RASTERVARIABLES
  2
AcDbRasterVariables
  3
ISM
 90
0
 91
0
280
0
281
0
  0
CLASS
  1
LAYOUT
  2
AcDbLayout
  3
ObjectDBX Classes
 90
0
 91
0
280
0
281
0
  0
CLASS
  1
ACDBPLACEHOLDER
  2
AcDbPlaceHolder
  3
ObjectDBX Classes
 90
0
 91
0
280
0
281
0
  0
ENDSEC
  0
SECTION
  2
TABLES
  0
TABLE
  2
VPORT
  5
8
330
0
100
AcDbSymbolTable
 70
1
  0
VPORT
  5
23
330
8
100
AcDbSymbolTableRecord
100
AcDbViewportTableRecord
  2
*Active
 70
0
 10
0.0
 20
0.0
 11
1.0
 21
1.0
 12
0.0
 22
0.0
 13
0.0
 23
0.0
 14
0.5
 24
0.5
 15
0.5
 25
0.5
 16
0.0
 26
0.0
 36
1.0
 17
0.0
 27
0.0
 37
0.0
 40
1000.0
 41
1.34
 42
50.0
 43
0.0
 44
0.0
 50
0.0
 51
0.0
 71
0
 72
1000
 73
1
 74
3
 75
0
 76
0
 77
0
 78
0
281
0
 65
0
146
0.0
  0
ENDTAB
  0
TABLE
  2
LTYPE
  5
2
330
0
100
AcDbSymbolTable
 70
3
  0
LTYPE
  5
24
330
2
100
AcDbSymbolTableRecord
100
AcDbLinetypeTableRecord
  2
ByBlock
 70
0
  3

 72
65
 73
0
 40
0.0
  0
LTYPE
  5
25
330
2
100
AcDbSymbolTableRecord
100
AcDbLinetypeTableRecord
  2
ByLayer
 70
0
  3

 72
65
 73
0
 40
0.0
  0
LTYPE
  5
26
330
2
100
AcDbSymbolTableRecord
100
AcDbLinetypeTableRecord
  2
Continuous
 70
0
  3

 72
65
 73
0
 40
0.0
  0
ENDTAB
  0
TABLE
  2
LAYER
  5
1
330
0
100
AcDbSymbolTable
 70
2
  0
LAYER
  5
27
330
1
100
AcDbSymbolTableRecord
100
AcDbLayerTableRecord
  2
0
 70
0
 62
7
  6
Continuous
370
-3
390
13
347
21
  0
LAYER
  5
28
330
1
100
AcDbSymbolTableRecord
100
AcDbLayerTableRecord
  2
Defpoints
 70
0
 62
7
  6
Continuous
290
0
370
-3
390
13
347
21
  0
ENDTAB
  0
TABLE
  2
STYLE
  5
5
330
0
100
AcDbSymbolTable
 70
1
  0
STYLE
  5
29
330
5
100
AcDbSymbolTableRecord
100
AcDbTextStyleTableRecord
  2
Standard
 70
0
 40
0.0
 41
1.0
 50
0.0
 71
0
 42
2.5
  3
txt
  4

  0
ENDTAB
  0
TABLE
  2
VIEW
  5
7
330
0
100
AcDbSymbolTable
 70
0
  0
ENDTAB
  0
TABLE
  2
UCS
  5
6
330
0
100
AcDbSymbolTable
 70
0
  0
ENDTAB
  0
TABLE
  2
APPID
  5
3
330
0
100
AcDbSymbolTable
 70
3
  0
APPID
  5
2A
330
3
100
AcDbSymbolTableRecord
100
AcDbRegAppTableRecord
  2
ACAD
 70
0
  0
APPID
  5
1A5
330
3
100
AcDbSymbolTableRecord
100
AcDbRegAppTableRecord
  2
HATCHBACKGROUNDCOLOR
 70
0
  0
APPID
  5
1A6
330
3
100
AcDbSymbolTableRecord
100
AcDbRegAppTableRecord
  2
EZDXF
 70
0
  0
ENDTAB
  0
TABLE
  2
DIMSTYLE
  5
4
330
0
100
AcDbSymbolTable
 70
1
100
AcDbDimStyleTable
  0
DIMSTYLE
105
2B
330
4
100
AcDbSymbolTableRecord
100
AcDbDimStyleTableRecord
  2
Standard
 70
0
 40
1.0
 41
2.5
 42
0.625
 43
3.75
 44
1.25
 45
0.0
 46
0.0
 47
0.0
 48
0.0
 49
2.5
140
2.5
141
2.5
142
0.0
143
0.03937007874
144
1.0
145
0.0
146
1.0
147
0.625
148
0.0
 69
0
 70
0
 71
0
 72
0
 73
0
 74
0
 75
0
 76
0
 77
1
 78
8
 79
3
170
0
171
3
172
1
173
0
174
0
175
0
176
0
177
0
178
0
179
2
271
2
272
2
273
2
274
3
275
0
276
0
277
2
278
44
279
0
280
0
281
0
282
0
283
0
284
8
285
0
286
0
288
0
289
3
290
0
371
-2
372
-2
  0
ENDTAB
  0
TABLE
  2
BLOCK_RECORD
  5
9
330
0
100
AcDbSymbolTable
 70
2
  0
BLOCK_RECORD
  5
17
330
9
100
AcDbSymbolTableRecord
100
AcDbBlockTableRecord
  2
*Model_Space
340
1A
 70
0
280
1
281
0
  0
BLOCK_RECORD
  5
1B
330
9
100
AcDbSymbolTableRecord
100
AcDbBlockTableRecord
  2
*Paper_Space
340
1E
 70
0
280
1
281
0
  0
ENDTAB
  0
ENDSEC
  0
SECTION
  2
BLOCKS
  0
BLOCK
  5
18
330
17
100
AcDbEntity
  8
0
100
AcDbBlockBegin
  2
*Model_Space
 70
0
 10
0.0
 20
0.0
 30
0.0
  3
*Model_Space
  1

  0
ENDBLK
  5
19
330
17
100
AcDbEntity
  8
0
100
AcDbBlockEnd
  0
BLOCK
  5
1C
330
1B
100
AcDbEntity
  8
0
100
AcDbBlockBegin
  2
*Paper_Space
 70
0
 10
0.0
 20
0.0
 30
0.0
  3
*Paper_Space
  1

  0
ENDBLK
  5
1D
330
1B
100
AcDbEntity
  8
0
100
AcDbBlockEnd
  0
ENDSEC
  0
SECTION
  2
ENTITIES
  0
POLYLINE
  5
2F
330
17
100
AcDbEntity
  8
COTA
100
AcDb2dPolyline
 66
1
 10
0.0
 20
0.0
 30
0.0
 70
0
  0
VERTEX
  5
31
330
17
100
AcDbEntity
  8
COTA
100
AcDbVertex
100
AcDb2dVertex
 10
6386.487310562018
 20
2289.718771363991
 30
0.0
 70
0
  0
VERTEX
  5
32
330
17
100
AcDbEntity
  8
COTA
100
AcDbVertex
100
AcDb2dVertex
 10
6391.487310562018
 20
2294.718771363991
 30
0.0
 70
0
  0
SEQEND
  5
30
330
2F
100
AcDbEntity
  8
COTA
  0
POLYLINE
  5
33
330
17
100
AcDbEntity
  8
COTA
100
AcDb2dPolyline
 66
1
 10
0.0
 20
0.0
 30
0.0
 70
0
  0
VERTEX
  5
35
330
17
100
AcDbEntity
  8
COTA
100
AcDbVertex
100
AcDb2dVertex
 10
6353.487310562017
 20
2294.718771363991
 30
0.0
 70
0
  0
VERTEX
  5
36
330
17
100
AcDbEntity
  8
COTA
100
AcDbVertex
100
AcDb2dVertex
 10
6348.487310562017
 20
2289.718771363991
 30
0.0
 70
0
  0
SEQEND
  5
34
330
33
100
AcDbEntity
  8
COTA
  0
POLYLINE
  5
37
330
17
100
AcDbEntity
  8
COTA
100
AcDb2dPolyline
 66
1
 10
0.0
 20
0.0
 30
0.0
 70
0
  0
VERTEX
  5
39
330
17
100
AcDbEntity
  8
COTA
100
AcDbVertex
100
AcDb2dVertex
 10
6259.830015958607
 20
2339.445585166182
 30
0.0
 70
0
  0
VERTEX
  5
3A
330
17
100
AcDbEntity
  8
COTA
100
AcDbVertex
100
AcDb2dVertex
 10
6264.830015958607
 20
2334.445585166182
 30
0.0
 70
0
  0
SEQEND
  5
38
330
37
100
AcDbEntity
  8
COTA
  0
POLYLINE
  5
3B
330
17
100
AcDbEntity
  8
COTA
100
AcDb2dPolyline
 66
1
 10
0.0
 20
0.0
 30
0.0
 70
0
  0
VERTEX
  5
3D
330
17
100
AcDbEntity
  8
COTA
100
AcDbVertex
100
AcDb2dVertex
 10
6264.830015958607
 20
2424.445585166154
 30
0.0
 70
0
  0
VERTEX
  5
3E
330
17
100
AcDbEntity
  8
COTA
100
AcDbVertex
100
AcDb2dVertex
 10
6259.830015958607
 20
2429.445585166154
 30
0.0
 70
0
  0
SEQEND
  5
3C
330
3B
100
AcDbEntity
  8
COTA
  0
POLYLINE
  5
3F
330
17
100
AcDbEntity
  8
COTA
100
AcDb2dPolyline
 66
1
 10
0.0
 20
0.0
 30
0.0
 70
0
  0
VERTEX
  5
41
330
17
100
AcDbEntity
  8
COTA
100
AcDbVertex
100
AcDb2dVertex
 10
6259.83001595828
 20
2433.445585166153
 30
0.0
 70
0
  0
VERTEX
  5
42
330
17
100
AcDbEntity
  8
COTA
100
AcDbVertex
100
AcDb2dVertex
 10
6264.83001595828
 20
2428.445585166153
 30
0.0
 70
0
  0
SEQEND
  5
40
330
3F
100
AcDbEntity
  8
COTA
  0
POLYLINE
  5
43
330
17
100
AcDbEntity
  8
COTA
100
AcDb2dPolyline
 66
1
 10
0.0
 20
0.0
 30
0.0
 70
0
  0
VERTEX
  5
45
330
17
100
AcDbEntity
  8
COTA
100
AcDbVertex
100
AcDb2dVertex
 10
6264.83001595828
 20
2452.445585166182
 30
0.0
 70
0
  0
VERTEX
  5
46
330
17
100
AcDbEntity
  8
COTA
100
AcDbVertex
100
AcDb2dVertex
 10
6259.83001595828
 20
2457.445585166182
 30
0.0
 70
0
  0
SEQEND
  5
44
330
43
100
AcDbEntity
  8
COTA
  0
POLYLINE
  5
47
330
17
100
AcDbEntity
  8
COTA
100
AcDb2dPolyline
 66
1
 10
0.0
 20
0.0
 30
0.0
 70
0
  0
VERTEX
  5
49
330
17
100
AcDbEntity
  8
COTA
100
AcDbVertex
100
AcDb2dVertex
 10
6468.359043320321
 20
2452.445585166182
 30
0.0
 70
0
  0
VERTEX
  5
4A
330
17
100
AcDbEntity
  8
COTA
100
AcDbVertex
100
AcDb2dVertex
 10
6463.359043320321
 20
2457.445585166182
 30
0.0
 70
0
  0
SEQEND
  5
48
330
47
100
AcDbEntity
  8
COTA
  0
POLYLINE
  5
4B
330
17
100
AcDbEntity
  8
COTA
100
AcDb2dPolyline
 66
1
 10
0.0
 20
0.0
 30
0.0
 70
0
  0
VERTEX
  5
4D
330
17
100
AcDbEntity
  8
COTA
100
AcDbVertex
100
AcDb2dVertex
 10
6463.359043320321
 20
2339.445585166182
 30
0.0
 70
0
  0
VERTEX
  5
4E
330
17
100
AcDbEntity
  8
COTA
100
AcDbVertex
100
AcDb2dVertex
 10
6468.359043320321
 20
2334.445585166182
 30
0.0
 70
0
  0
SEQEND
  5
4C
330
4B
100
AcDbEntity
  8
COTA
  0
POLYLINE
  5
4F
330
17
100
AcDbEntity
  8
COTA
100
AcDb2dPolyline
 66
1
 10
0.0
 20
0.0
 30
0.0
 70
0
  0
VERTEX
  5
51
330
17
100
AcDbEntity
  8
COTA
100
AcDbVertex
100
AcDb2dVertex
 10
6245.510587472822
 20
2452.445585166182
 30
0.0
 70
0
  0
VERTEX
  5
52
330
17
100
AcDbEntity
  8
COTA
100
AcDbVertex
100
AcDb2dVertex
 10
6240.510587472822
 20
2457.445585166182
 30
0.0
 70
0
  0
SEQEND
  5
50
330
4F
100
AcDbEntity
  8
COTA
  0
POLYLINE
  5
53
330
17
100
AcDbEntity
  8
COTA
100
AcDb2dPolyline
 66
1
 10
0.0
 20
0.0
 30
0.0
 70
0
  0
VERTEX
  5
55
330
17
100
AcDbEntity
  8
COTA
100
AcDbVertex
100
AcDb2dVertex
 10
6240.510587472822
 20
2339.445585166182
 30
0.0
 70
0
  0
VERTEX
  5
56
330
17
100
AcDbEntity
  8
COTA
100
AcDbVertex
100
AcDb2dVertex
 10
6245.510587472822
 20
2334.445585166182
 30
0.0
 70
0
  0
SEQEND
  5
54
330
53
100
AcDbEntity
  8
COTA
  0
POLYLINE
  5
57
330
17
100
AcDbEntity
  8
Madeira
 62
126
100
AcDb2dPolyline
 66
1
 10
0.0
 20
0.0
 30
0.0
 70
0
  0
VERTEX
  5
59
330
17
100
AcDbEntity
  8
Madeira
100
AcDbVertex
100
AcDb2dVertex
 10
6342.587310562024
 20
2374.94558516617
 30
0.0
 70
0
  0
VERTEX
  5
5A
330
17
100
AcDbEntity
  8
Madeira
100
AcDbVertex
100
AcDb2dVertex
 10
6346.987310562017
 20
2374.94558516617
 30
0.0
 70
0
  0
VERTEX
  5
5B
330
17
100
AcDbEntity
  8
Madeira
100
AcDbVertex
100
AcDb2dVertex
 10
6346.987310562017
 20
2388.945585166171
 30
0.0
 70
0
  0
VERTEX
  5
5C
330
17
100
AcDbEntity
  8
Madeira
100
AcDbVertex
100
AcDb2dVertex
 10
6342.587310562024
 20
2388.945585166171
 30
0.0
 70
0
  0
VERTEX
  5
5D
330
17
100
AcDbEntity
  8
Madeira
100
AcDbVertex
100
AcDb2dVertex
 10
6342.587310562024
 20
2374.94558516617
 30
0.0
 70
0
  0
SEQEND
  5
58
330
57
100
AcDbEntity
  8
Madeira
  0
POLYLINE
  5
5E
330
17
100
AcDbEntity
  8
SARR_3.5x7
 62
81
100
AcDb2dPolyline
 66
1
 10
0.0
 20
0.0
 30
0.0
 70
0
  0
VERTEX
  5
60
330
17
100
AcDbEntity
  8
SARR_3.5x7
100
AcDbVertex
100
AcDb2dVertex
 10
6328.587310561946
 20
2336.945585166182
 30
0.0
 70
0
  0
VERTEX
  5
61
330
17
100
AcDbEntity
  8
SARR_3.5x7
100
AcDbVertex
100
AcDb2dVertex
 10
6411.387310562147
 20
2336.94558516618
 30
0.0
 70
0
  0
VERTEX
  5
62
330
17
100
AcDbEntity
  8
SARR_3.5x7
100
AcDbVertex
100
AcDb2dVertex
 10
6411.387310562147
 20
2306.887523562181
 30
0.0
 70
0
  0
VERTEX
  5
63
330
17
100
AcDbEntity
  8
SARR_3.5x7
100
AcDbVertex
100
AcDb2dVertex
 10
6328.587310561946
 20
2306.887523562183
 30
0.0
 70
0
  0
VERTEX
  5
64
330
17
100
AcDbEntity
  8
SARR_3.5x7
100
AcDbVertex
100
AcDb2dVertex
 10
6328.587310561946
 20
2336.945585166182
 30
0.0
 70
0
  0
SEQEND
  5
5F
330
5E
100
AcDbEntity
  8
SARR_3.5x7
  0
POLYLINE
  5
65
330
17
100
AcDbEntity
  8
SARR_3.5x7
 62
81
100
AcDb2dPolyline
 66
1
 10
0.0
 20
0.0
 30
0.0
 70
0
  0
VERTEX
  5
67
330
17
100
AcDbEntity
  8
SARR_3.5x7
100
AcDbVertex
100
AcDb2dVertex
 10
6411.387310562244
 20
2448.945585166184
 30
0.0
 70
0
  0
VERTEX
  5
68
330
17
100
AcDbEntity
  8
SARR_3.5x7
100
AcDbVertex
100
AcDb2dVertex
 10
6397.387310562244
 20
2448.945585166184
 30
0.0
 70
0
  0
VERTEX
  5
69
330
17
100
AcDbEntity
  8
SARR_3.5x7
100
AcDbVertex
100
AcDb2dVertex
 10
6397.387310562098
 20
2260.467371760376
 30
0.0
 70
0
  0
VERTEX
  5
6A
330
17
100
AcDbEntity
  8
SARR_3.5x7
100
AcDbVertex
100
AcDb2dVertex
 10
6411.387310562098
 20
2260.467371760376
 30
0.0
 70
0
  0
VERTEX
  5
6B
330
17
100
AcDbEntity
  8
SARR_3.5x7
100
AcDbVertex
100
AcDb2dVertex
 10
6411.387310562244
 20
2448.945585166184
 30
0.0
 70
0
  0
SEQEND
  5
66
330
65
100
AcDbEntity
  8
SARR_3.5x7
  0
POLYLINE
  5
6C
330
17
100
AcDbEntity
  8
SARR_3.5x7
 62
81
100
AcDb2dPolyline
 66
1
 10
0.0
 20
0.0
 30
0.0
 70
0
  0
VERTEX
  5
6E
330
17
100
AcDbEntity
  8
SARR_3.5x7
100
AcDbVertex
100
AcDb2dVertex
 10
6328.587310561958
 20
2420.945585166155
 30
0.0
 70
0
  0
VERTEX
  5
6F
330
17
100
AcDbEntity
  8
SARR_3.5x7
100
AcDbVertex
100
AcDb2dVertex
 10
6342.587310561958
 20
2420.945585166155
 30
0.0
 70
0
  0
VERTEX
  5
70
330
17
100
AcDbEntity
  8
SARR_3.5x7
100
AcDbVertex
100
AcDb2dVertex
 10
6342.587310562088
 20
2260.467371760376
 30
0.0
 70
0
  0
VERTEX
  5
71
330
17
100
AcDbEntity
  8
SARR_3.5x7
100
AcDbVertex
100
AcDb2dVertex
 10
6328.587310562088
 20
2260.467371760376
 30
0.0
 70
0
  0
VERTEX
  5
72
330
17
100
AcDbEntity
  8
SARR_3.5x7
100
AcDbVertex
100
AcDb2dVertex
 10
6328.587310561958
 20
2420.945585166155
 30
0.0
 70
0
  0
SEQEND
  5
6D
330
6C
100
AcDbEntity
  8
SARR_3.5x7
  0
POLYLINE
  5
73
330
17
100
AcDbEntity
  8
Madeira
 62
126
100
AcDb2dPolyline
 66
1
 10
0.0
 20
0.0
 30
0.0
 70
0
  0
VERTEX
  5
75
330
17
100
AcDbEntity
  8
Madeira
100
AcDbVertex
100
AcDb2dVertex
 10
6342.587310562024
 20
2336.945585166182
 30
0.0
 70
0
  0
VERTEX
  5
76
330
17
100
AcDbEntity
  8
Madeira
100
AcDbVertex
100
AcDb2dVertex
 10
6346.987310562017
 20
2336.945585166182
 30
0.0
 70
0
  0
VERTEX
  5
77
330
17
100
AcDbEntity
  8
Madeira
100
AcDbVertex
100
AcDb2dVertex
 10
6346.987310562017
 20
2350.945585166182
 30
0.0
 70
0
  0
VERTEX
  5
78
330
17
100
AcDbEntity
  8
Madeira
100
AcDbVertex
100
AcDb2dVertex
 10
6342.587310562024
 20
2350.945585166182
 30
0.0
 70
0
  0
VERTEX
  5
79
330
17
100
AcDbEntity
  8
Madeira
100
AcDbVertex
100
AcDb2dVertex
 10
6342.587310562024
 20
2336.945585166182
 30
0.0
 70
0
  0
SEQEND
  5
74
330
73
100
AcDbEntity
  8
Madeira
  0
POLYLINE
  5
7A
330
17
100
AcDbEntity
  8
Madeira
 62
126
100
AcDb2dPolyline
 66
1
 10
0.0
 20
0.0
 30
0.0
 70
0
  0
VERTEX
  5
7C
330
17
100
AcDbEntity
  8
Madeira
100
AcDbVertex
100
AcDb2dVertex
 10
6392.987310562017
 20
2336.945585166182
 30
0.0
 70
0
  0
VERTEX
  5
7D
330
17
100
AcDbEntity
  8
Madeira
100
AcDbVertex
100
AcDb2dVertex
 10
6397.387310562011
 20
2336.945585166182
 30
0.0
 70
0
  0
VERTEX
  5
7E
330
17
100
AcDbEntity
  8
Madeira
100
AcDbVertex
100
AcDb2dVertex
 10
6397.387310562011
 20
2350.945585166182
 30
0.0
 70
0
  0
VERTEX
  5
7F
330
17
100
AcDbEntity
  8
Madeira
100
AcDbVertex
100
AcDb2dVertex
 10
6392.987310562017
 20
2350.945585166182
 30
0.0
 70
0
  0
VERTEX
  5
80
330
17
100
AcDbEntity
  8
Madeira
100
AcDbVertex
100
AcDb2dVertex
 10
6392.987310562017
 20
2336.945585166182
 30
0.0
 70
0
  0
SEQEND
  5
7B
330
7A
100
AcDbEntity
  8
Madeira
  0
POLYLINE
  5
81
330
17
100
AcDbEntity
  8
Madeira
 62
126
100
AcDb2dPolyline
 66
1
 10
0.0
 20
0.0
 30
0.0
 70
0
  0
VERTEX
  5
83
330
17
100
AcDbEntity
  8
Madeira
100
AcDbVertex
100
AcDb2dVertex
 10
6392.987310562024
 20
2392.915642694488
 30
0.0
 70
0
  0
VERTEX
  5
84
330
17
100
AcDbEntity
  8
Madeira
100
AcDbVertex
100
AcDb2dVertex
 10
6397.387310562018
 20
2392.915642694488
 30
0.0
 70
0
  0
VERTEX
  5
85
330
17
100
AcDbEntity
  8
Madeira
100
AcDbVertex
100
AcDb2dVertex
 10
6397.387310562018
 20
2406.915642694487
 30
0.0
 70
0
  0
VERTEX
  5
86
330
17
100
AcDbEntity
  8
Madeira
100
AcDbVertex
100
AcDb2dVertex
 10
6392.987310562024
 20
2406.915642694487
 30
0.0
 70
0
  0
VERTEX
  5
87
330
17
100
AcDbEntity
  8
Madeira
100
AcDbVertex
100
AcDb2dVertex
 10
6392.987310562024
 20
2392.915642694488
 30
0.0
 70
0
  0
SEQEND
  5
82
330
81
100
AcDbEntity
  8
Madeira
  0
POLYLINE
  5
88
330
17
100
AcDbEntity
  8
Madeira
 62
126
100
AcDb2dPolyline
 66
1
 10
0.0
 20
0.0
 30
0.0
 70
0
  0
VERTEX
  5
8A
330
17
100
AcDbEntity
  8
Madeira
100
AcDbVertex
100
AcDb2dVertex
 10
6392.987310562028
 20
2440.945585166181
 30
0.0
 70
0
  0
VERTEX
  5
8B
330
17
100
AcDbEntity
  8
Madeira
100
AcDbVertex
100
AcDb2dVertex
 10
6397.387310562022
 20
2440.945585166181
 30
0.0
 70
0
  0
VERTEX
  5
8C
330
17
100
AcDbEntity
  8
Madeira
100
AcDbVertex
100
AcDb2dVertex
 10
6397.387310562022
 20
2454.945585166182
 30
0.0
 70
0
  0
VERTEX
  5
8D
330
17
100
AcDbEntity
  8
Madeira
100
AcDbVertex
100
AcDb2dVertex
 10
6392.987310562028
 20
2454.945585166182
 30
0.0
 70
0
  0
VERTEX
  5
8E
330
17
100
AcDbEntity
  8
Madeira
100
AcDbVertex
100
AcDb2dVertex
 10
6392.987310562028
 20
2440.945585166181
 30
0.0
 70
0
  0
SEQEND
  5
89
330
88
100
AcDbEntity
  8
Madeira
  0
POLYLINE
  5
8F
330
17
100
AcDbEntity
  8
Madeira
 62
126
100
AcDb2dPolyline
 66
1
 10
0.0
 20
0.0
 30
0.0
 70
0
  0
VERTEX
  5
91
330
17
100
AcDbEntity
  8
Madeira
100
AcDbVertex
100
AcDb2dVertex
 10
6342.587310562024
 20
2412.94558516616
 30
0.0
 70
0
  0
VERTEX
  5
92
330
17
100
AcDbEntity
  8
Madeira
100
AcDbVertex
100
AcDb2dVertex
 10
6346.987310562017
 20
2412.94558516616
 30
0.0
 70
0
  0
VERTEX
  5
93
330
17
100
AcDbEntity
  8
Madeira
100
AcDbVertex
100
AcDb2dVertex
 10
6346.987310562017
 20
2426.94558516616
 30
0.0
 70
0
  0
VERTEX
  5
94
330
17
100
AcDbEntity
  8
Madeira
100
AcDbVertex
100
AcDb2dVertex
 10
6342.587310562024
 20
2426.94558516616
 30
0.0
 70
0
  0
VERTEX
  5
95
330
17
100
AcDbEntity
  8
Madeira
100
AcDbVertex
100
AcDb2dVertex
 10
6342.587310562024
 20
2412.94558516616
 30
0.0
 70
0
  0
SEQEND
  5
90
330
8F
100
AcDbEntity
  8
Madeira
  0
POLYLINE
  5
96
330
17
100
AcDbEntity
  8
CONCRETO
 62
251
100
AcDb2dPolyline
 66
1
 10
0.0
 20
0.0
 30
0.0
 70
0
  0
VERTEX
  5
98
330
17
100
AcDbEntity
  8
CONCRETO
100
AcDbVertex
100
AcDb2dVertex
 10
6295.387310562041
 20
2430.945585166153
 30
0.0
 70
0
  0
VERTEX
  5
99
330
17
100
AcDbEntity
  8
CONCRETO
100
AcDbVertex
100
AcDb2dVertex
 10
6295.387310562041
 20
2454.945585166182
 30
0.0
 70
0
  0
VERTEX
  5
9A
330
17
100
AcDbEntity
  8
CONCRETO
100
AcDbVertex
100
AcDb2dVertex
 10
6350.987310562017
 20
2454.945585166182
 30
0.0
 70
0
  0
VERTEX
  5
9B
330
17
100
AcDbEntity
  8
CONCRETO
100
AcDbVertex
100
AcDb2dVertex
 10
6388.987310561959
 20
2454.945585166182
 30
0.0
 70
0
  0
VERTEX
  5
9C
330
17
100
AcDbEntity
  8
CONCRETO
100
AcDbVertex
100
AcDb2dVertex
 10
6388.987310561959
 20
2344.945585166181
 30
0.0
 70
0
  0
VERTEX
  5
9D
330
17
100
AcDbEntity
  8
CONCRETO
100
AcDbVertex
100
AcDb2dVertex
 10
6350.987310562017
 20
2344.945585166181
 30
0.0
 70
0
  0
VERTEX
  5
9E
330
17
100
AcDbEntity
  8
CONCRETO
100
AcDbVertex
100
AcDb2dVertex
 10
6350.987310562017
 20
2430.94558516616
 30
0.0
 70
0
  0
VERTEX
  5
9F
330
17
100
AcDbEntity
  8
CONCRETO
100
AcDbVertex
100
AcDb2dVertex
 10
6295.387310562041
 20
2430.945585166153
 30
0.0
 70
0
  0
SEQEND
  5
97
330
96
100
AcDbEntity
  8
CONCRETO
  0
POLYLINE
  5
A0
330
17
100
AcDbEntity
  8
Painéis
 62
200
100
AcDb2dPolyline
 66
1
 10
0.0
 20
0.0
 30
0.0
 70
0
  0
VERTEX
  5
A2
330
17
100
AcDbEntity
  8
Painéis
100
AcDbVertex
100
AcDb2dVertex
 10
6350.987310562017
 20
2426.94558516616
 30
0.0
 70
0
  0
VERTEX
  5
A3
330
17
100
AcDbEntity
  8
Painéis
100
AcDbVertex
100
AcDb2dVertex
 10
6350.987310562017
 20
2430.94558516616
 30
0.0
 70
0
  0
VERTEX
  5
A4
330
17
100
AcDbEntity
  8
Painéis
100
AcDbVertex
100
AcDb2dVertex
 10
6295.387310562041
 20
2430.945585166153
 30
0.0
 70
0
  0
VERTEX
  5
A5
330
17
100
AcDbEntity
  8
Painéis
100
AcDbVertex
100
AcDb2dVertex
 10
6295.387310562041
 20
2426.945585166152
 30
0.0
 70
0
  0
VERTEX
  5
A6
330
17
100
AcDbEntity
  8
Painéis
100
AcDbVertex
100
AcDb2dVertex
 10
6350.987310562017
 20
2426.94558516616
 30
0.0
 70
0
  0
SEQEND
  5
A1
330
A0
100
AcDbEntity
  8
Painéis
  0
POLYLINE
  5
A7
330
17
100
AcDbEntity
  8
Painéis
 62
200
100
AcDb2dPolyline
 66
1
 10
0.0
 20
0.0
 30
0.0
 70
0
  0
VERTEX
  5
A9
330
17
100
AcDbEntity
  8
Painéis
100
AcDbVertex
100
AcDb2dVertex
 10
6392.987310562028
 20
2454.945585166182
 30
0.0
 70
0
  0
VERTEX
  5
AA
330
17
100
AcDbEntity
  8
Painéis
100
AcDbVertex
100
AcDb2dVertex
 10
6388.987310562028
 20
2454.945585166182
 30
0.0
 70
0
  0
VERTEX
  5
AB
330
17
100
AcDbEntity
  8
Painéis
100
AcDbVertex
100
AcDb2dVertex
 10
6388.987310562018
 20
2336.945585166182
 30
0.0
 70
0
  0
VERTEX
  5
AC
330
17
100
AcDbEntity
  8
Painéis
100
AcDbVertex
100
AcDb2dVertex
 10
6392.987310562017
 20
2336.945585166182
 30
0.0
 70
0
  0
VERTEX
  5
AD
330
17
100
AcDbEntity
  8
Painéis
100
AcDbVertex
100
AcDb2dVertex
 10
6392.987310562028
 20
2454.945585166182
 30
0.0
 70
0
  0
SEQEND
  5
A8
330
A7
100
AcDbEntity
  8
Painéis
  0
POLYLINE
  5
AE
330
17
100
AcDbEntity
  8
Madeira
 62
126
100
AcDb2dPolyline
 66
1
 10
0.0
 20
0.0
 30
0.0
 70
0
  0
VERTEX
  5
B0
330
17
100
AcDbEntity
  8
Madeira
100
AcDbVertex
100
AcDb2dVertex
 10
6350.987310562017
 20
2336.945585166182
 30
0.0
 70
0
  0
VERTEX
  5
B1
330
17
100
AcDbEntity
  8
Madeira
100
AcDbVertex
100
AcDb2dVertex
 10
6350.987310562017
 20
2341.345585166175
 30
0.0
 70
0
  0
VERTEX
  5
B2
330
17
100
AcDbEntity
  8
Madeira
100
AcDbVertex
100
AcDb2dVertex
 10
6360.987310562017
 20
2341.345585166175
 30
0.0
 70
0
  0
VERTEX
  5
B3
330
17
100
AcDbEntity
  8
Madeira
100
AcDbVertex
100
AcDb2dVertex
 10
6360.987310562017
 20
2336.945585166182
 30
0.0
 70
0
  0
VERTEX
  5
B4
330
17
100
AcDbEntity
  8
Madeira
100
AcDbVertex
100
AcDb2dVertex
 10
6350.987310562017
 20
2336.945585166182
 30
0.0
 70
0
  0
SEQEND
  5
AF
330
AE
100
AcDbEntity
  8
Madeira
  0
POLYLINE
  5
B5
330
17
100
AcDbEntity
  8
Painéis
 62
200
100
AcDb2dPolyline
 66
1
 10
0.0
 20
0.0
 30
0.0
 70
0
  0
VERTEX
  5
B7
330
17
100
AcDbEntity
  8
Painéis
100
AcDbVertex
100
AcDb2dVertex
 10
6388.987310562018
 20
2341.345585166175
 30
0.0
 70
0
  0
VERTEX
  5
B8
330
17
100
AcDbEntity
  8
Painéis
100
AcDbVertex
100
AcDb2dVertex
 10
6388.987310562018
 20
2344.945585166181
 30
0.0
 70
0
  0
VERTEX
  5
B9
330
17
100
AcDbEntity
  8
Painéis
100
AcDbVertex
100
AcDb2dVertex
 10
6350.987310562017
 20
2344.945585166181
 30
0.0
 70
0
  0
VERTEX
  5
BA
330
17
100
AcDbEntity
  8
Painéis
100
AcDbVertex
100
AcDb2dVertex
 10
6350.987310562017
 20
2341.345585166175
 30
0.0
 70
0
  0
VERTEX
  5
BB
330
17
100
AcDbEntity
  8
Painéis
100
AcDbVertex
100
AcDb2dVertex
 10
6388.987310562018
 20
2341.345585166175
 30
0.0
 70
0
  0
SEQEND
  5
B6
330
B5
100
AcDbEntity
  8
Painéis
  0
POLYLINE
  5
BC
330
17
100
AcDbEntity
  8
Madeira
 62
126
100
AcDb2dPolyline
 66
1
 10
0.0
 20
0.0
 30
0.0
 70
0
  0
VERTEX
  5
BE
330
17
100
AcDbEntity
  8
Madeira
100
AcDbVertex
100
AcDb2dVertex
 10
6388.987310562018
 20
2336.945585166182
 30
0.0
 70
0
  0
VERTEX
  5
BF
330
17
100
AcDbEntity
  8
Madeira
100
AcDbVertex
100
AcDb2dVertex
 10
6388.987310562018
 20
2341.345585166175
 30
0.0
 70
0
  0
VERTEX
  5
C0
330
17
100
AcDbEntity
  8
Madeira
100
AcDbVertex
100
AcDb2dVertex
 10
6378.987310562017
 20
2341.345585166175
 30
0.0
 70
0
  0
VERTEX
  5
C1
330
17
100
AcDbEntity
  8
Madeira
100
AcDbVertex
100
AcDb2dVertex
 10
6378.987310562017
 20
2336.945585166182
 30
0.0
 70
0
  0
VERTEX
  5
C2
330
17
100
AcDbEntity
  8
Madeira
100
AcDbVertex
100
AcDb2dVertex
 10
6388.987310562018
 20
2336.945585166182
 30
0.0
 70
0
  0
SEQEND
  5
BD
330
BC
100
AcDbEntity
  8
Madeira
  0
POLYLINE
  5
C3
330
17
100
AcDbEntity
  8
Painéis
 62
200
100
AcDb2dPolyline
 66
1
 10
0.0
 20
0.0
 30
0.0
 70
0
  0
VERTEX
  5
C5
330
17
100
AcDbEntity
  8
Painéis
100
AcDbVertex
100
AcDb2dVertex
 10
6346.987310562017
 20
2426.94558516616
 30
0.0
 70
0
  0
VERTEX
  5
C6
330
17
100
AcDbEntity
  8
Painéis
100
AcDbVertex
100
AcDb2dVertex
 10
6350.987310562017
 20
2426.94558516616
 30
0.0
 70
0
  0
VERTEX
  5
C7
330
17
100
AcDbEntity
  8
Painéis
100
AcDbVertex
100
AcDb2dVertex
 10
6350.987310562017
 20
2336.945585166182
 30
0.0
 70
0
  0
VERTEX
  5
C8
330
17
100
AcDbEntity
  8
Painéis
100
AcDbVertex
100
AcDb2dVertex
 10
6346.987310562017
 20
2336.945585166182
 30
0.0
 70
0
  0
VERTEX
  5
C9
330
17
100
AcDbEntity
  8
Painéis
100
AcDbVertex
100
AcDb2dVertex
 10
6346.987310562017
 20
2426.94558516616
 30
0.0
 70
0
  0
SEQEND
  5
C4
330
C3
100
AcDbEntity
  8
Painéis
  0
LINE
  5
CA
330
17
100
AcDbEntity
  8
Texto Seção
 62
252
100
AcDbLine
 10
6362.187310562014
 20
2454.945585166182
 30
0.0
 11
6362.187310562014
 21
2579.945585166182
 31
0.0
  0
LINE
  5
CB
330
17
100
AcDbEntity
  8
Painéis
100
AcDbLine
 10
6184.987948550649
 20
1949.56528373424
 30
0.0
 11
6181.987948550649
 21
1952.56528373424
 31
0.0
  0
LINE
  5
CC
330
17
100
AcDbEntity
  8
Painéis
100
AcDbLine
 10
6181.987948550649
 20
1957.56528373424
 30
0.0
 11
6184.987948550649
 21
1954.56528373424
 31
0.0
  0
LINE
  5
CD
330
17
100
AcDbEntity
  8
Painéis
 62
4
100
AcDbLine
 10
6183.487948550649
 20
1956.06528373424
 30
0.0
 11
6183.487948550649
 21
1951.06528373424
 31
0.0
  0
LINE
  5
CE
330
17
100
AcDbEntity
  8
Painéis
 62
4
100
AcDbLine
 10
6183.487948550649
 20
1951.06528373424
 30
0.0
 11
6183.487948550649
 21
1932.96879250617
 31
0.0
  0
LINE
  5
CF
330
17
100
AcDbEntity
  8
Painéis
 62
4
100
AcDbLine
 10
6183.487948550649
 20
1956.06528373424
 30
0.0
 11
6183.487948550649
 21
1959.06528373424
 31
0.0
  0
LINE
  5
D0
330
17
100
AcDbEntity
  8
Painéis
 62
4
100
AcDbLine
 10
6191.175906216495
 20
1951.06528373424
 30
0.0
 11
6180.487948550649
 21
1951.06528373424
 31
0.0
  0
LINE
  5
D1
330
17
100
AcDbEntity
  8
Painéis
 62
4
100
AcDbLine
 10
6191.175906216495
 20
1956.06528373424
 30
0.0
 11
6180.487948550649
 21
1956.06528373424
 31
0.0
  0
LINE
  5
D2
330
17
100
AcDbEntity
  8
Painéis
100
AcDbLine
 10
6459.677078960591
 20
1949.565283734241
 30
0.0
 11
6456.677078960591
 21
1952.565283734241
 31
0.0
  0
LINE
  5
D3
330
17
100
AcDbEntity
  8
Painéis
100
AcDbLine
 10
6456.677078960591
 20
1957.56528373424
 30
0.0
 11
6459.677078960591
 21
1954.56528373424
 31
0.0
  0
LINE
  5
D4
330
17
100
AcDbEntity
  8
Painéis
 62
4
100
AcDbLine
 10
6458.177078960591
 20
1956.06528373424
 30
0.0
 11
6458.177078960591
 21
1951.065283734241
 31
0.0
  0
LINE
  5
D5
330
17
100
AcDbEntity
  8
Painéis
 62
4
100
AcDbLine
 10
6458.177078960591
 20
1951.065283734241
 30
0.0
 11
6458.177078960591
 21
1932.968792506171
 31
0.0
  0
LINE
  5
D6
330
17
100
AcDbEntity
  8
Painéis
 62
4
100
AcDbLine
 10
6458.177078960591
 20
1956.06528373424
 30
0.0
 11
6458.177078960591
 21
1959.06528373424
 31
0.0
  0
LINE
  5
D7
330
17
100
AcDbEntity
  8
Painéis
 62
4
100
AcDbLine
 10
6444.175906216493
 20
1951.065283734241
 30
0.0
 11
6461.177078960592
 21
1951.065283734241
 31
0.0
  0
LINE
  5
D8
330
17
100
AcDbEntity
  8
Painéis
 62
4
100
AcDbLine
 10
6444.175906216493
 20
1956.06528373424
 30
0.0
 11
6461.177078960592
 21
1956.06528373424
 31
0.0
  0
LINE
  5
D9
330
17
100
AcDbEntity
  8
Painéis
100
AcDbLine
 10
6219.675906216486
 20
2022.787656284916
 30
0.0
 11
6222.675906216486
 21
2025.787656284916
 31
0.0
  0
LINE
  5
DA
330
17
100
AcDbEntity
  8
Painéis
100
AcDbLine
 10
6195.675906216492
 20
2025.787656284916
 30
0.0
 11
6192.675906216492
 21
2022.787656284916
 31
0.0
  0
LINE
  5
DB
330
17
100
AcDbEntity
  8
Painéis
 62
4
100
AcDbLine
 10
6194.175906216492
 20
2024.287656284916
 30
0.0
 11
6221.175906216486
 21
2024.287656284916
 31
0.0
  0
LINE
  5
DC
330
17
100
AcDbEntity
  8
Painéis
 62
4
100
AcDbLine
 10
6221.175906216486
 20
2004.06528373424
 30
0.0
 11
6221.175906216486
 21
2027.287656284916
 31
0.0
  0
LINE
  5
DD
330
17
100
AcDbEntity
  8
Painéis
 62
4
100
AcDbLine
 10
6194.175906216492
 20
2018.06528373424
 30
0.0
 11
6194.175906216492
 21
2027.287656284916
 31
0.0
  0
LINE
  5
DE
330
17
100
AcDbEntity
  8
Painéis
100
AcDbLine
 10
6439.675906216482
 20
2027.476900679088
 30
0.0
 11
6442.675906216482
 21
2030.476900679088
 31
0.0
  0
LINE
  5
DF
330
17
100
AcDbEntity
  8
Painéis
100
AcDbLine
 10
6415.675906216489
 20
2030.476900679088
 30
0.0
 11
6412.675906216489
 21
2027.476900679088
 31
0.0
  0
LINE
  5
E0
330
17
100
AcDbEntity
  8
Painéis
 62
4
100
AcDbLine
 10
6414.175906216489
 20
2028.976900679088
 30
0.0
 11
6441.175906216482
 21
2028.976900679088
 31
0.0
  0
LINE
  5
E1
330
17
100
AcDbEntity
  8
Painéis
 62
4
100
AcDbLine
 10
6441.175906216482
 20
2018.065283734214
 30
0.0
 11
6441.175906216482
 21
2031.976900679088
 31
0.0
  0
LINE
  5
E2
330
17
100
AcDbEntity
  8
Painéis
 62
4
100
AcDbLine
 10
6414.175906216489
 20
2004.065283734265
 30
0.0
 11
6414.175906216489
 21
2031.976900679088
 31
0.0
  0
LINE
  5
E3
330
17
100
AcDbEntity
  8
Painéis
100
AcDbLine
 10
6183.481201288516
 20
2149.060396314422
 30
0.0
 11
6180.481201288516
 21
2152.060396314422
 31
0.0
  0
LINE
  5
E4
330
17
100
AcDbEntity
  8
Painéis
100
AcDbLine
 10
6180.481201288516
 20
2157.060396314422
 30
0.0
 11
6183.481201288516
 21
2154.060396314422
 31
0.0
  0
LINE
  5
E5
330
17
100
AcDbEntity
  8
Painéis
 62
4
100
AcDbLine
 10
6181.981201288516
 20
2155.560396314422
 30
0.0
 11
6181.981201288516
 21
2150.560396314422
 31
0.0
  0
LINE
  5
E6
330
17
100
AcDbEntity
  8
Painéis
 62
4
100
AcDbLine
 10
6181.981201288516
 20
2150.560396314422
 30
0.0
 11
6181.981201288516
 21
2132.463905086352
 31
0.0
  0
LINE
  5
E7
330
17
100
AcDbEntity
  8
Painéis
 62
4
100
AcDbLine
 10
6181.981201288516
 20
2155.560396314422
 30
0.0
 11
6181.981201288516
 21
2158.560396314422
 31
0.0
  0
LINE
  5
E8
330
17
100
AcDbEntity
  8
Painéis
 62
4
100
AcDbLine
 10
6189.669158954364
 20
2150.560396314422
 30
0.0
 11
6178.981201288515
 21
2150.560396314422
 31
0.0
  0
LINE
  5
E9
330
17
100
AcDbEntity
  8
Painéis
 62
4
100
AcDbLine
 10
6189.669158954366
 20
2155.560396314422
 30
0.0
 11
6178.981201288515
 21
2155.560396314422
 31
0.0
  0
LINE
  5
EA
330
17
100
AcDbEntity
  8
Painéis
100
AcDbLine
 10
6458.170331698457
 20
2149.060396314423
 30
0.0
 11
6455.170331698457
 21
2152.060396314423
 31
0.0
  0
LINE
  5
EB
330
17
100
AcDbEntity
  8
Painéis
100
AcDbLine
 10
6455.170331698457
 20
2157.060396314422
 30
0.0
 11
6458.170331698457
 21
2154.060396314422
 31
0.0
  0
LINE
  5
EC
330
17
100
AcDbEntity
  8
Painéis
 62
4
100
AcDbLine
 10
6456.670331698457
 20
2155.560396314422
 30
0.0
 11
6456.670331698457
 21
2150.560396314423
 31
0.0
  0
LINE
  5
ED
330
17
100
AcDbEntity
  8
Painéis
 62
4
100
AcDbLine
 10
6456.670331698457
 20
2150.560396314423
 30
0.0
 11
6456.670331698457
 21
2132.463905086353
 31
0.0
  0
LINE
  5
EE
330
17
100
AcDbEntity
  8
Painéis
 62
4
100
AcDbLine
 10
6456.670331698457
 20
2155.560396314422
 30
0.0
 11
6456.670331698457
 21
2158.560396314422
 31
0.0
  0
LINE
  5
EF
330
17
100
AcDbEntity
  8
Painéis
 62
4
100
AcDbLine
 10
6442.669158954362
 20
2150.560396314423
 30
0.0
 11
6459.670331698458
 21
2150.560396314423
 31
0.0
  0
LINE
  5
F0
330
17
100
AcDbEntity
  8
Painéis
 62
4
100
AcDbLine
 10
6442.669158954362
 20
2155.560396314422
 30
0.0
 11
6459.670331698458
 21
2155.560396314422
 31
0.0
  0
LINE
  5
F1
330
17
100
AcDbEntity
  8
Painéis
100
AcDbLine
 10
6218.169158954356
 20
2222.282768865098
 30
0.0
 11
6221.169158954356
 21
2225.282768865098
 31
0.0
  0
LINE
  5
F2
330
17
100
AcDbEntity
  8
Painéis
100
AcDbLine
 10
6194.169158954362
 20
2225.282768865098
 30
0.0
 11
6191.169158954362
 21
2222.282768865098
 31
0.0
  0
LINE
  5
F3
330
17
100
AcDbEntity
  8
Painéis
 62
4
100
AcDbLine
 10
6192.669158954362
 20
2223.782768865098
 30
0.0
 11
6219.669158954356
 21
2223.782768865098
 31
0.0
  0
LINE
  5
F4
330
17
100
AcDbEntity
  8
Painéis
 62
4
100
AcDbLine
 10
6219.669158954356
 20
2203.560396314421
 30
0.0
 11
6219.669158954356
 21
2226.782768865098
 31
0.0
  0
LINE
  5
F5
330
17
100
AcDbEntity
  8
Painéis
 62
4
100
AcDbLine
 10
6192.669158954362
 20
2217.560396314421
 30
0.0
 11
6192.669158954362
 21
2226.782768865098
 31
0.0
  0
LINE
  5
F6
330
17
100
AcDbEntity
  8
Painéis
100
AcDbLine
 10
6438.169158954352
 20
2226.972013259271
 30
0.0
 11
6441.169158954352
 21
2229.972013259271
 31
0.0
  0
LINE
  5
F7
330
17
100
AcDbEntity
  8
Painéis
100
AcDbLine
 10
6414.169158954358
 20
2229.972013259271
 30
0.0
 11
6411.169158954358
 21
2226.972013259271
 31
0.0
  0
LINE
  5
F8
330
17
100
AcDbEntity
  8
Painéis
 62
4
100
AcDbLine
 10
6412.669158954358
 20
2228.472013259271
 30
0.0
 11
6439.669158954352
 21
2228.472013259271
 31
0.0
  0
LINE
  5
F9
330
17
100
AcDbEntity
  8
Painéis
 62
4
100
AcDbLine
 10
6439.669158954352
 20
2217.560396314396
 30
0.0
 11
6439.669158954352
 21
2231.47201325927
 31
0.0
  0
LINE
  5
FA
330
17
100
AcDbEntity
  8
Painéis
 62
4
100
AcDbLine
 10
6412.669158954358
 20
2203.560396314447
 30
0.0
 11
6412.669158954358
 21
2231.47201325927
 31
0.0
  0
LINE
  5
FB
330
17
100
AcDbEntity
  8
COTA
100
AcDbLine
 10
6289.169158954359
 20
2180.060396314267
 30
0.0
 11
6292.169158954359
 21
2183.060396314267
 31
0.0
  0
LINE
  5
FC
330
17
100
AcDbEntity
  8
COTA
100
AcDbLine
 10
6221.169158954359
 20
2183.060396314267
 30
0.0
 11
6218.169158954359
 21
2180.060396314267
 31
0.0
  0
LINE
  5
FD
330
17
100
AcDbEntity
  8
COTA
 62
4
100
AcDbLine
 10
6219.669158954359
 20
2181.560396314267
 30
0.0
 11
6290.669158954359
 21
2181.560396314267
 31
0.0
  0
LINE
  5
FE
330
17
100
AcDbEntity
  8
COTA
 62
4
100
AcDbLine
 10
6290.669158954359
 20
2178.560396314421
 30
0.0
 11
6290.669158954359
 21
2184.560396314267
 31
0.0
  0
LINE
  5
FF
330
17
100
AcDbEntity
  8
COTA
 62
4
100
AcDbLine
 10
6219.669158954359
 20
2181.060396314421
 30
0.0
 11
6219.669158954359
 21
2184.560396314267
 31
0.0
  0
LINE
  5
100
330
17
100
AcDbEntity
  8
COTA
100
AcDbLine
 10
6478.590321707658
 20
2013.565283734241
 30
0.0
 11
6475.590321707658
 21
2016.565283734241
 31
0.0
  0
LINE
  5
101
330
17
100
AcDbEntity
  8
COTA
100
AcDbLine
 10
6475.590321707658
 20
1952.56528373424
 30
0.0
 11
6478.590321707658
 21
1949.56528373424
 31
0.0
  0
LINE
  5
102
330
17
100
AcDbEntity
  8
COTA
 62
4
100
AcDbLine
 10
6477.090321707658
 20
1951.06528373424
 30
0.0
 11
6477.090321707658
 21
2015.065283734241
 31
0.0
  0
LINE
  5
103
330
17
100
AcDbEntity
  8
COTA
 62
4
100
AcDbLine
 10
6444.175906216489
 20
2015.065283734241
 30
0.0
 11
6480.090321707658
 21
2015.065283734241
 31
0.0
  0
LINE
  5
104
330
17
100
AcDbEntity
  8
COTA
 62
4
100
AcDbLine
 10
6444.175906216493
 20
1951.06528373424
 30
0.0
 11
6480.090321707658
 21
1951.06528373424
 31
0.0
  0
LINE
  5
105
330
17
100
AcDbEntity
  8
COTA
100
AcDbLine
 10
6439.675906216489
 20
1896.986847067362
 30
0.0
 11
6442.675906216489
 21
1899.986847067362
 31
0.0
  0
LINE
  5
106
330
17
100
AcDbEntity
  8
COTA
100
AcDbLine
 10
6195.675906216489
 20
1899.986847067362
 30
0.0
 11
6192.675906216489
 21
1896.986847067362
 31
0.0
  0
LINE
  5
107
330
17
100
AcDbEntity
  8
COTA
 62
4
100
AcDbLine
 10
6194.175906216489
 20
1898.486847067362
 30
0.0
 11
6441.175906216489
 21
1898.486847067362
 31
0.0
  0
LINE
  5
108
330
17
100
AcDbEntity
  8
COTA
 62
4
100
AcDbLine
 10
6441.175906216489
 20
1948.06528373424
 30
0.0
 11
6441.175906216489
 21
1895.486847067362
 31
0.0
  0
LINE
  5
109
330
17
100
AcDbEntity
  8
COTA
 62
4
100
AcDbLine
 10
6194.175906216489
 20
1948.065283734235
 30
0.0
 11
6194.175906216489
 21
1895.486847067362
 31
0.0
  0
LINE
  5
10A
330
17
100
AcDbEntity
  8
COTA
100
AcDbLine
 10
6439.675906216489
 20
1925.525357756095
 30
0.0
 11
6442.675906216489
 21
1928.525357756095
 31
0.0
  0
LINE
  5
10B
330
17
100
AcDbEntity
  8
COTA
100
AcDbLine
 10
6320.675906216489
 20
1928.525357756095
 30
0.0
 11
6317.675906216489
 21
1925.525357756095
 31
0.0
  0
LINE
  5
10C
330
17
100
AcDbEntity
  8
COTA
 62
4
100
AcDbLine
 10
6319.175906216489
 20
1927.025357756095
 30
0.0
 11
6441.175906216489
 21
1927.025357756095
 31
0.0
  0
LINE
  5
10D
330
17
100
AcDbEntity
  8
COTA
 62
4
100
AcDbLine
 10
6441.175906216489
 20
1948.06528373424
 30
0.0
 11
6441.175906216489
 21
1924.025357756095
 31
0.0
  0
LINE
  5
10E
330
17
100
AcDbEntity
  8
COTA
 62
4
100
AcDbLine
 10
6319.175906216489
 20
1948.065283734268
 30
0.0
 11
6319.175906216489
 21
1924.025357756095
 31
0.0
  0
LINE
  5
10F
330
17
100
AcDbEntity
  8
COTA
100
AcDbLine
 10
6317.675906216489
 20
1925.525357756084
 30
0.0
 11
6320.675906216489
 21
1928.525357756084
 31
0.0
  0
LINE
  5
110
330
17
100
AcDbEntity
  8
COTA
100
AcDbLine
 10
6195.675906216489
 20
1928.525357756084
 30
0.0
 11
6192.675906216489
 21
1925.525357756084
 31
0.0
  0
LINE
  5
111
330
17
100
AcDbEntity
  8
COTA
 62
4
100
AcDbLine
 10
6194.175906216489
 20
1927.025357756084
 30
0.0
 11
6319.175906216489
 21
1927.025357756084
 31
0.0
  0
LINE
  5
112
330
17
100
AcDbEntity
  8
COTA
 62
4
100
AcDbLine
 10
6319.175906216489
 20
1948.065283734268
 30
0.0
 11
6319.175906216489
 21
1924.025357756084
 31
0.0
  0
LINE
  5
113
330
17
100
AcDbEntity
  8
COTA
 62
4
100
AcDbLine
 10
6194.175906216489
 20
1948.065283734235
 30
0.0
 11
6194.175906216489
 21
1924.025357756084
 31
0.0
  0
LINE
  5
114
330
17
100
AcDbEntity
  8
COTA
100
AcDbLine
 10
6491.234974203703
 20
2152.060396314422
 30
0.0
 11
6494.234974203703
 21
2149.060396314422
 31
0.0
  0
LINE
  5
115
330
17
100
AcDbEntity
  8
COTA
100
AcDbLine
 10
6494.234974203703
 20
2213.060396314396
 30
0.0
 11
6491.234974203703
 21
2216.060396314396
 31
0.0
  0
LINE
  5
116
330
17
100
AcDbEntity
  8
COTA
 62
4
100
AcDbLine
 10
6492.734974203703
 20
2214.560396314396
 30
0.0
 11
6492.734974203703
 21
2150.560396314422
 31
0.0
  0
LINE
  5
117
330
17
100
AcDbEntity
  8
COTA
 62
4
100
AcDbLine
 10
6442.669158954362
 20
2150.560396314422
 30
0.0
 11
6495.734974203703
 21
2150.560396314422
 31
0.0
  0
LINE
  5
118
330
17
100
AcDbEntity
  8
COTA
 62
4
100
AcDbLine
 10
6442.669158954355
 20
2214.560396314396
 30
0.0
 11
6495.734974203703
 21
2214.560396314396
 31
0.0
  0
LINE
  5
119
330
17
100
AcDbEntity
  8
COTA
100
AcDbLine
 10
6469.396793072816
 20
2213.060396314396
 30
0.0
 11
6466.396793072816
 21
2216.060396314396
 31
0.0
  0
LINE
  5
11A
330
17
100
AcDbEntity
  8
COTA
100
AcDbLine
 10
6466.396793072816
 20
2202.060396314422
 30
0.0
 11
6469.396793072816
 21
2199.060396314422
 31
0.0
  0
LINE
  5
11B
330
17
100
AcDbEntity
  8
COTA
 62
4
100
AcDbLine
 10
6467.896793072816
 20
2214.560396314396
 30
0.0
 11
6467.896793072816
 21
2233.677355378724
 31
0.0
  0
LINE
  5
11C
330
17
100
AcDbEntity
  8
COTA
 62
4
100
AcDbLine
 10
6467.896793072816
 20
2200.560396314422
 30
0.0
 11
6467.896793072816
 21
2214.560396314396
 31
0.0
  0
LINE
  5
11D
330
17
100
AcDbEntity
  8
COTA
 62
4
100
AcDbLine
 10
6442.669158954355
 20
2214.560396314396
 30
0.0
 11
6470.896793072816
 21
2214.560396314396
 31
0.0
  0
LINE
  5
11E
330
17
100
AcDbEntity
  8
COTA
 62
4
100
AcDbLine
 10
6442.669158954355
 20
2200.560396314422
 30
0.0
 11
6470.896793072816
 21
2200.560396314422
 31
0.0
  0
LINE
  5
11F
330
17
100
AcDbEntity
  8
COTA
100
AcDbLine
 10
6469.396793072816
 20
2199.060396314422
 30
0.0
 11
6466.396793072816
 21
2202.060396314422
 31
0.0
  0
LINE
  5
120
330
17
100
AcDbEntity
  8
COTA
100
AcDbLine
 10
6466.396793072816
 20
2152.060396314422
 30
0.0
 11
6469.396793072816
 21
2149.060396314422
 31
0.0
  0
LINE
  5
121
330
17
100
AcDbEntity
  8
COTA
 62
4
100
AcDbLine
 10
6467.896793072816
 20
2150.560396314422
 30
0.0
 11
6467.896793072816
 21
2200.560396314422
 31
0.0
  0
LINE
  5
122
330
17
100
AcDbEntity
  8
COTA
 62
4
100
AcDbLine
 10
6442.669158954359
 20
2200.560396314422
 30
0.0
 11
6470.896793072816
 21
2200.560396314422
 31
0.0
  0
LINE
  5
123
330
17
100
AcDbEntity
  8
COTA
 62
4
100
AcDbLine
 10
6442.669158954359
 20
2150.560396314422
 30
0.0
 11
6470.896793072816
 21
2150.560396314422
 31
0.0
  0
LINE
  5
124
330
17
100
AcDbEntity
  8
COTA
100
AcDbLine
 10
6438.169158954359
 20
2093.981959647544
 30
0.0
 11
6441.169158954359
 21
2096.981959647544
 31
0.0
  0
LINE
  5
125
330
17
100
AcDbEntity
  8
COTA
100
AcDbLine
 10
6194.169158954359
 20
2096.981959647544
 30
0.0
 11
6191.169158954359
 21
2093.981959647544
 31
0.0
  0
LINE
  5
126
330
17
100
AcDbEntity
  8
COTA
 62
4
100
AcDbLine
 10
6192.669158954359
 20
2095.481959647544
 30
0.0
 11
6439.669158954359
 21
2095.481959647544
 31
0.0
  0
LINE
  5
127
330
17
100
AcDbEntity
  8
COTA
 62
4
100
AcDbLine
 10
6439.669158954359
 20
2147.560396314421
 30
0.0
 11
6439.669158954359
 21
2092.481959647544
 31
0.0
  0
LINE
  5
128
330
17
100
AcDbEntity
  8
COTA
 62
4
100
AcDbLine
 10
6192.669158954359
 20
2147.560396314421
 30
0.0
 11
6192.669158954359
 21
2092.481959647544
 31
0.0
  0
LINE
  5
129
330
17
100
AcDbEntity
  8
COTA
100
AcDbLine
 10
6438.169158954359
 20
2122.520470336277
 30
0.0
 11
6441.169158954359
 21
2125.520470336277
 31
0.0
  0
LINE
  5
12A
330
17
100
AcDbEntity
  8
COTA
100
AcDbLine
 10
6319.169158954359
 20
2125.520470336277
 30
0.0
 11
6316.169158954359
 21
2122.520470336277
 31
0.0
  0
LINE
  5
12B
330
17
100
AcDbEntity
  8
COTA
 62
4
100
AcDbLine
 10
6317.669158954359
 20
2124.020470336277
 30
0.0
 11
6439.669158954359
 21
2124.020470336277
 31
0.0
  0
LINE
  5
12C
330
17
100
AcDbEntity
  8
COTA
 62
4
100
AcDbLine
 10
6439.669158954359
 20
2147.560396314421
 30
0.0
 11
6439.669158954359
 21
2121.020470336277
 31
0.0
  0
LINE
  5
12D
330
17
100
AcDbEntity
  8
COTA
 62
4
100
AcDbLine
 10
6317.669158954359
 20
2147.56039631445
 30
0.0
 11
6317.669158954359
 21
2121.020470336277
 31
0.0
  0
LINE
  5
12E
330
17
100
AcDbEntity
  8
COTA
100
AcDbLine
 10
6316.169158954359
 20
2122.520470336266
 30
0.0
 11
6319.169158954359
 21
2125.520470336266
 31
0.0
  0
LINE
  5
12F
330
17
100
AcDbEntity
  8
COTA
100
AcDbLine
 10
6194.169158954359
 20
2125.520470336266
 30
0.0
 11
6191.169158954359
 21
2122.520470336266
 31
0.0
  0
LINE
  5
130
330
17
100
AcDbEntity
  8
COTA
 62
4
100
AcDbLine
 10
6192.669158954359
 20
2124.020470336266
 30
0.0
 11
6317.669158954359
 21
2124.020470336266
 31
0.0
  0
LINE
  5
131
330
17
100
AcDbEntity
  8
COTA
 62
4
100
AcDbLine
 10
6317.669158954359
 20
2147.56039631445
 30
0.0
 11
6317.669158954359
 21
2121.020470336266
 31
0.0
  0
LINE
  5
132
330
17
100
AcDbEntity
  8
COTA
 62
4
100
AcDbLine
 10
6192.669158954359
 20
2147.560396314421
 30
0.0
 11
6192.669158954359
 21
2121.020470336266
 31
0.0
  0
LINE
  5
133
330
17
100
AcDbEntity
  8
Cota Seção (2x)
 62
180
100
AcDbLine
 10
6360.987310561988
 20
2371.945585166182
 30
0.0
 11
6360.987310561988
 21
2356.945585166181
 31
0.0
  0
LINE
  5
134
330
17
100
AcDbEntity
  8
Cota Seção (2x)
 62
180
100
AcDbLine
 10
6378.987310561988
 20
2371.945585166182
 30
0.0
 11
6360.987310561988
 21
2371.945585166182
 31
0.0
  0
LINE
  5
135
330
17
100
AcDbEntity
  8
Cota Seção (2x)
 62
180
100
AcDbLine
 10
6378.987310561988
 20
2356.945585166181
 30
0.0
 11
6378.987310561988
 21
2371.945585166182
 31
0.0
  0
LINE
  5
136
330
17
100
AcDbEntity
  8
Cota Seção (2x)
 62
180
100
AcDbLine
 10
6360.987310561988
 20
2356.945585166181
 30
0.0
 11
6378.987310561988
 21
2356.945585166181
 31
0.0
  0
LINE
  5
137
330
17
100
AcDbEntity
  8
COTA
 62
4
100
AcDbLine
 10
6350.987310562017
 20
2292.218771363991
 30
0.0
 11
6388.987310562018
 21
2292.218771363991
 31
0.0
  0
LINE
  5
138
330
17
100
AcDbEntity
  8
COTA
 62
4
100
AcDbLine
 10
6388.987310562018
 20
2333.945585166175
 30
0.0
 11
6388.987310562018
 21
2289.218771363991
 31
0.0
  0
LINE
  5
139
330
17
100
AcDbEntity
  8
COTA
 62
4
100
AcDbLine
 10
6350.987310562017
 20
2333.945585166175
 30
0.0
 11
6350.987310562017
 21
2289.218771363991
 31
0.0
  0
LINE
  5
13A
330
17
100
AcDbEntity
  8
COTA
 62
4
100
AcDbLine
 10
6262.330015958607
 20
2426.945585166154
 30
0.0
 11
6262.330015958607
 21
2336.945585166182
 31
0.0
  0
LINE
  5
13B
330
17
100
AcDbEntity
  8
COTA
 62
4
100
AcDbLine
 10
6314.387310562044
 20
2336.945585166182
 30
0.0
 11
6259.330015958607
 21
2336.945585166182
 31
0.0
  0
LINE
  5
13C
330
17
100
AcDbEntity
  8
COTA
 62
4
100
AcDbLine
 10
6292.387310562045
 20
2426.945585166154
 30
0.0
 11
6259.330015958607
 21
2426.945585166154
 31
0.0
  0
LINE
  5
13D
330
17
100
AcDbEntity
  8
COTA
 62
4
100
AcDbLine
 10
6262.33001595828
 20
2454.945585166182
 30
0.0
 11
6262.33001595828
 21
2430.945585166153
 31
0.0
  0
LINE
  5
13E
330
17
100
AcDbEntity
  8
COTA
 62
4
100
AcDbLine
 10
6292.387310562045
 20
2430.945585166153
 30
0.0
 11
6259.33001595828
 21
2430.945585166153
 31
0.0
  0
LINE
  5
13F
330
17
100
AcDbEntity
  8
COTA
 62
4
100
AcDbLine
 10
6292.387310562045
 20
2454.945585166182
 30
0.0
 11
6259.33001595828
 21
2454.945585166182
 31
0.0
  0
LINE
  5
140
330
17
100
AcDbEntity
  8
Cota Seção (2x)
 62
180
100
AcDbLine
 10
6354.566896046698
 20
2405.278918499468
 30
0.0
 11
6369.566896046698
 21
2405.278918499468
 31
0.0
  0
LINE
  5
141
330
17
100
AcDbEntity
  8
Cota Seção (2x)
 62
180
100
AcDbLine
 10
6354.566896046698
 20
2424.612251832801
 30
0.0
 11
6354.566896046698
 21
2405.278918499468
 31
0.0
  0
LINE
  5
142
330
17
100
AcDbEntity
  8
Cota Seção (2x)
 62
180
100
AcDbLine
 10
6369.566896046698
 20
2424.612251832801
 30
0.0
 11
6354.566896046698
 21
2424.612251832801
 31
0.0
  0
LINE
  5
143
330
17
100
AcDbEntity
  8
Cota Seção (2x)
 62
180
100
AcDbLine
 10
6369.566896046698
 20
2405.278918499468
 30
0.0
 11
6369.566896046698
 21
2424.612251832801
 31
0.0
  0
LINE
  5
144
330
17
100
AcDbEntity
  8
COTA
 62
4
100
AcDbLine
 10
6465.859043320321
 20
2336.945585166182
 30
0.0
 11
6465.859043320321
 21
2454.945585166182
 31
0.0
  0
LINE
  5
145
330
17
100
AcDbEntity
  8
COTA
 62
4
100
AcDbLine
 10
6400.387310562026
 20
2454.945585166182
 30
0.0
 11
6468.85904332032
 21
2454.945585166182
 31
0.0
  0
LINE
  5
146
330
17
100
AcDbEntity
  8
COTA
 62
4
100
AcDbLine
 10
6425.587310562026
 20
2336.945585166182
 30
0.0
 11
6468.85904332032
 21
2336.945585166182
 31
0.0
  0
LINE
  5
147
330
17
100
AcDbEntity
  8
COTA
 62
4
100
AcDbLine
 10
6243.010587472822
 20
2336.945585166182
 30
0.0
 11
6243.010587472822
 21
2454.945585166182
 31
0.0
  0
LINE
  5
148
330
17
100
AcDbEntity
  8
COTA
 62
4
100
AcDbLine
 10
6339.987310562021
 20
2454.945585166182
 30
0.0
 11
6240.010587472822
 21
2454.945585166182
 31
0.0
  0
LINE
  5
149
330
17
100
AcDbEntity
  8
COTA
 62
4
100
AcDbLine
 10
6314.387310562044
 20
2336.945585166182
 30
0.0
 11
6240.010587472822
 21
2336.945585166182
 31
0.0
  0
LINE
  5
14A
330
17
100
AcDbEntity
  8
COTA
 62
241
100
AcDbLine
 10
6221.175906216486
 20
2015.065283734239
 30
0.0
 11
6194.175906216492
 21
2015.065283734239
 31
0.0
  0
LINE
  5
14B
330
17
100
AcDbEntity
  8
SARR_EDITAR
 62
141
100
AcDbLine
 10
6414.175906216489
 20
1956.065283734239
 30
0.0
 11
6414.175906216489
 21
1951.065283734239
 31
0.0
  0
LINE
  5
14C
330
17
100
AcDbEntity
  8
SARR_EDITAR
 62
141
100
AcDbLine
 10
6441.175906216489
 20
1953.56528373424
 30
0.0
 11
6414.175906216489
 21
1953.56528373424
 31
0.0
  0
LINE
  5
14D
330
17
100
AcDbEntity
  8
Painéis
 62
200
100
AcDbLine
 10
6441.175906216489
 20
1956.065283734239
 30
0.0
 11
6414.175906216489
 21
1956.065283734239
 31
0.0
  0
LINE
  5
14E
330
17
100
AcDbEntity
  8
Painéis
 62
200
100
AcDbLine
 10
6441.175906216489
 20
1951.065283734239
 30
0.0
 11
6441.175906216489
 21
1956.065283734239
 31
0.0
  0
LINE
  5
14F
330
17
100
AcDbEntity
  8
SARR_EDITAR
 62
141
100
AcDbLine
 10
6221.175906216489
 20
1956.065283734239
 30
0.0
 11
6221.175906216489
 21
1951.065283734239
 31
0.0
  0
LINE
  5
150
330
17
100
AcDbEntity
  8
SARR_EDITAR
 62
141
100
AcDbLine
 10
6194.175906216489
 20
1953.56528373424
 30
0.0
 11
6221.175906216489
 21
1953.56528373424
 31
0.0
  0
LINE
  5
151
330
17
100
AcDbEntity
  8
Painéis
 62
200
100
AcDbLine
 10
6194.175906216489
 20
1956.065283734239
 30
0.0
 11
6221.175906216489
 21
1956.065283734239
 31
0.0
  0
LINE
  5
152
330
17
100
AcDbEntity
  8
Painéis
 62
200
100
AcDbLine
 10
6194.175906216489
 20
1951.065283734239
 30
0.0
 11
6194.175906216489
 21
1956.065283734239
 31
0.0
  0
LINE
  5
153
330
17
100
AcDbEntity
  8
Painéis
 62
200
100
AcDbLine
 10
6221.175906216489
 20
1951.065283734239
 30
0.0
 11
6194.175906216489
 21
1951.065283734239
 31
0.0
  0
LINE
  5
154
330
17
100
AcDbEntity
  8
COTA
 62
241
100
AcDbLine
 10
6441.175906216486
 20
2015.065283734239
 30
0.0
 11
6414.175906216485
 21
2015.065283734239
 31
0.0
  0
LINE
  5
155
330
17
100
AcDbEntity
  8
COTA
 62
241
100
AcDbLine
 10
6441.175906216486
 20
2015.065283734239
 30
0.0
 11
6441.175906216486
 21
1956.065283734239
 31
0.0
  0
LINE
  5
156
330
17
100
AcDbEntity
  8
COTA
 62
241
100
AcDbLine
 10
6194.175906216492
 20
1956.065283734239
 30
0.0
 11
6194.175906216492
 21
2015.065283734239
 31
0.0
  0
LINE
  5
157
330
17
100
AcDbEntity
  8
SARR_EDITAR
 62
141
100
AcDbLine
 10
6412.669158954358
 20
2155.560396314422
 30
0.0
 11
6412.669158954358
 21
2150.560396314421
 31
0.0
  0
LINE
  5
158
330
17
100
AcDbEntity
  8
SARR_EDITAR
 62
141
100
AcDbLine
 10
6439.669158954359
 20
2153.060396314421
 30
0.0
 11
6412.669158954358
 21
2153.060396314421
 31
0.0
  0
LINE
  5
159
330
17
100
AcDbEntity
  8
Painéis
 62
200
100
AcDbLine
 10
6439.669158954359
 20
2155.560396314422
 30
0.0
 11
6412.669158954358
 21
2155.560396314422
 31
0.0
  0
LINE
  5
15A
330
17
100
AcDbEntity
  8
Painéis
 62
200
100
AcDbLine
 10
6439.669158954359
 20
2150.560396314421
 30
0.0
 11
6439.669158954359
 21
2155.560396314422
 31
0.0
  0
LINE
  5
15B
330
17
100
AcDbEntity
  8
Painéis
 62
200
100
AcDbLine
 10
6412.669158954358
 20
2150.560396314421
 30
0.0
 11
6439.669158954359
 21
2150.560396314421
 31
0.0
  0
LINE
  5
15C
330
17
100
AcDbEntity
  8
SARR_EDITAR
 62
141
100
AcDbLine
 10
6219.669158954359
 20
2155.560396314422
 30
0.0
 11
6219.669158954359
 21
2150.560396314421
 31
0.0
  0
LINE
  5
15D
330
17
100
AcDbEntity
  8
SARR_EDITAR
 62
141
100
AcDbLine
 10
6192.669158954359
 20
2153.060396314421
 30
0.0
 11
6219.669158954359
 21
2153.060396314421
 31
0.0
  0
LINE
  5
15E
330
17
100
AcDbEntity
  8
Painéis
 62
200
100
AcDbLine
 10
6192.669158954359
 20
2155.560396314422
 30
0.0
 11
6219.669158954359
 21
2155.560396314422
 31
0.0
  0
LINE
  5
15F
330
17
100
AcDbEntity
  8
Painéis
 62
200
100
AcDbLine
 10
6192.669158954359
 20
2150.560396314421
 30
0.0
 11
6192.669158954359
 21
2155.560396314422
 31
0.0
  0
LINE
  5
160
330
17
100
AcDbEntity
  8
Painéis
 62
200
100
AcDbLine
 10
6219.669158954359
 20
2150.560396314421
 30
0.0
 11
6192.669158954359
 21
2150.560396314421
 31
0.0
  0
LINE
  5
161
330
17
100
AcDbEntity
  8
SARR_2.2x7
 62
40
100
AcDbLine
 10
6317.669158954359
 20
2179.060396314284
 30
0.0
 11
6405.714299713548
 21
2179.060396314291
 31
0.0
  0
LINE
  5
162
330
17
100
AcDbEntity
  8
SARR_2.2x7
 62
40
100
AcDbLine
 10
6317.669158954359
 20
2172.060396314587
 30
0.0
 11
6405.714299713546
 21
2172.060396314591
 31
0.0
  0
LINE
  5
163
330
17
100
AcDbEntity
  8
SARR_2.2x7
 62
40
100
AcDbLine
 10
6290.669158954362
 20
2179.060396314271
 30
0.0
 11
6317.669158954359
 21
2179.060396314273
 31
0.0
  0
LINE
  5
164
330
17
100
AcDbEntity
  8
SARR_2.2x7
 62
40
100
AcDbLine
 10
6290.669158954362
 20
2172.060396314573
 30
0.0
 11
6317.669158954359
 21
2172.060396314575
 31
0.0
  0
LINE
  5
165
330
17
100
AcDbEntity
  8
SARR_2.2x7
 62
40
100
AcDbLine
 10
6228.130765457303
 20
1985.455584576157
 30
0.0
 11
6319.175906216489
 21
1985.45558457617
 31
0.0
  0
LINE
  5
166
330
17
100
AcDbEntity
  8
SARR_2.2x7
 62
40
100
AcDbLine
 10
6228.130765457303
 20
1978.45558457646
 30
0.0
 11
6319.175906216489
 21
1978.45558457647
 31
0.0
  0
LINE
  5
167
330
17
100
AcDbEntity
  8
SARR_2.2x7
 62
40
100
AcDbLine
 10
6319.175906216486
 20
1985.455584576168
 30
0.0
 11
6407.22104697568
 21
1985.455584576176
 31
0.0
  0
LINE
  5
168
330
17
100
AcDbEntity
  8
SARR_2.2x7
 62
40
100
AcDbLine
 10
6319.175906216489
 20
1978.455584576472
 30
0.0
 11
6407.22104697568
 21
1978.455584576476
 31
0.0
  0
LINE
  5
169
330
17
100
AcDbEntity
  8
SARR_2.2x7
 62
40
100
AcDbLine
 10
6319.175906216489
 20
1958.06528373415
 30
0.0
 11
6407.22104697568
 21
1958.065283734414
 31
0.0
  0
LINE
  5
16A
330
17
100
AcDbEntity
  8
SARR_2.2x7
 62
40
100
AcDbLine
 10
6228.130765457299
 20
1958.065283734168
 30
0.0
 11
6319.175906216489
 21
1958.06528373415
 31
0.0
  0
LINE
  5
16B
330
17
100
AcDbEntity
  8
Painéis
 62
200
100
AcDbLine
 10
6319.175906216489
 20
1951.065283734254
 30
0.0
 11
6319.175906216486
 21
2015.065283734254
 31
0.0
  0
LINE
  5
16C
330
17
100
AcDbEntity
  8
SARR_2.2x7
 62
40
100
AcDbLine
 10
6407.221046975672
 20
1951.065283734261
 30
0.0
 11
6407.22104697568
 21
2015.065283734239
 31
0.0
  0
LINE
  5
16D
330
17
100
AcDbEntity
  8
SARR_2.2x7
 62
40
100
AcDbLine
 10
6228.130765457307
 20
1951.065283734236
 30
0.0
 11
6228.130765457299
 21
2015.065283734239
 31
0.0
  0
LINE
  5
16E
330
17
100
AcDbEntity
  8
Painéis
 62
200
100
AcDbLine
 10
6221.175906216489
 20
1951.065283734239
 30
0.0
 11
6221.175906216486
 21
2015.065283734239
 31
0.0
  0
LINE
  5
16F
330
17
100
AcDbEntity
  8
Painéis
 62
200
100
AcDbLine
 10
6414.175906216489
 20
1951.065283734265
 30
0.0
 11
6414.175906216485
 21
2015.065283734265
 31
0.0
  0
LINE
  5
170
330
17
100
AcDbEntity
  8
Painéis
 62
200
100
AcDbLine
 10
6221.175906216489
 20
1951.065283734239
 30
0.0
 11
6441.175906216489
 21
1951.065283734268
 31
0.0
  0
LINE
  5
171
330
17
100
AcDbEntity
  8
Painéis
 62
200
100
AcDbLine
 10
6221.175906216482
 20
2015.065283734239
 30
0.0
 11
6414.175906216485
 21
2015.065283734265
 31
0.0
  0
LINE
  5
172
330
17
100
AcDbEntity
  8
SARR_2.2x7
 62
40
100
AcDbLine
 10
6319.175906216489
 20
2008.06528373435
 30
0.0
 11
6407.22104697568
 21
2008.065283734087
 31
0.0
  0
LINE
  5
173
330
17
100
AcDbEntity
  8
SARR_2.2x7
 62
40
100
AcDbLine
 10
6228.130765457299
 20
2008.065283734332
 30
0.0
 11
6319.175906216489
 21
2008.06528373435
 31
0.0
  0
LINE
  5
174
330
17
100
AcDbEntity
  8
COTA
 62
241
100
AcDbLine
 10
6439.669158954355
 20
2214.560396314421
 30
0.0
 11
6192.669158954362
 21
2214.560396314421
 31
0.0
  0
LINE
  5
175
330
17
100
AcDbEntity
  8
SARR_2.2x7
 62
40
100
AcDbLine
 10
6317.669158954359
 20
2157.560396314332
 30
0.0
 11
6405.714299713548
 21
2157.560396314596
 31
0.0
  0
LINE
  5
176
330
17
100
AcDbEntity
  8
SARR_2.2x7
 62
40
100
AcDbLine
 10
6290.669158954366
 20
2157.560396314341
 30
0.0
 11
6317.669158954359
 21
2157.560396314332
 31
0.0
  0
LINE
  5
177
330
17
100
AcDbEntity
  8
COTA
 62
241
100
AcDbLine
 10
6439.669158954355
 20
2214.560396314421
 30
0.0
 11
6439.669158954355
 21
2155.560396314422
 31
0.0
  0
LINE
  5
178
330
17
100
AcDbEntity
  8
COTA
 62
241
100
AcDbLine
 10
6192.669158954362
 20
2155.560396314422
 30
0.0
 11
6192.669158954362
 21
2214.560396314421
 31
0.0
  0
LINE
  5
179
330
17
100
AcDbEntity
  8
Painéis
 62
200
100
AcDbLine
 10
6317.669158954359
 20
2150.560396314436
 30
0.0
 11
6317.669158954359
 21
2200.560396314436
 31
0.0
  0
LINE
  5
17A
330
17
100
AcDbEntity
  8
SARR_2.2x7
 62
40
100
AcDbLine
 10
6405.714299713546
 20
2150.560396314443
 30
0.0
 11
6405.714299713548
 21
2200.560396314422
 31
0.0
  0
LINE
  5
17B
330
17
100
AcDbEntity
  8
SARR_2.2x7
 62
40
100
AcDbLine
 10
6290.669158954362
 20
2172.060396314573
 30
0.0
 11
6290.669158954362
 21
2179.060396314271
 31
0.0
  0
LINE
  5
17C
330
17
100
AcDbEntity
  8
SARR_2.2x7
 62
40
100
AcDbLine
 10
6290.669158954366
 20
2150.56039631442
 30
0.0
 11
6290.669158954366
 21
2157.560396314341
 31
0.0
  0
LINE
  5
17D
330
17
100
AcDbEntity
  8
Painéis
 62
200
100
AcDbLine
 10
6219.669158954359
 20
2155.560396314422
 30
0.0
 11
6219.669158954359
 21
2200.560396314422
 31
0.0
  0
LINE
  5
17E
330
17
100
AcDbEntity
  8
Painéis
 62
200
100
AcDbLine
 10
6412.669158954358
 20
2150.560396314447
 30
0.0
 11
6412.669158954358
 21
2200.560396314447
 31
0.0
  0
LINE
  5
17F
330
17
100
AcDbEntity
  8
Painéis
 62
200
100
AcDbLine
 10
6219.669158954359
 20
2150.560396314421
 30
0.0
 11
6412.669158954358
 21
2150.560396314447
 31
0.0
  0
LINE
  5
180
330
17
100
AcDbEntity
  8
Painéis
 62
200
100
AcDbLine
 10
6219.669158954356
 20
2200.560396314422
 30
0.0
 11
6412.669158954358
 21
2200.560396314447
 31
0.0
  0
LINE
  5
181
330
17
100
AcDbEntity
  8
SARR_2.2x7
 62
40
100
AcDbLine
 10
6317.669158954359
 20
2193.560396314532
 30
0.0
 11
6405.714299713548
 21
2193.560396314269
 31
0.0
  0
LINE
  5
182
330
17
100
AcDbEntity
  8
SARR_2.2x7
 62
40
100
AcDbLine
 10
6219.669158954359
 20
2193.560396314513
 30
0.0
 11
6317.669158954359
 21
2193.560396314532
 31
0.0
  0
TEXT
  5
183
330
17
100
AcDbEntity
  8
Painéis
 62
240
100
AcDbText
 10
6195.378299427841
 20
1939.017038120203
 30
0.0
 40
10.0
  1
5
100
AcDbText
  0
TEXT
  5
184
330
17
100
AcDbEntity
  8
Painéis
 62
240
100
AcDbText
 10
6470.067429837782
 20
1939.017038120204
 30
0.0
 40
10.0
  1
5
100
AcDbText
  0
TEXT
  5
185
330
17
100
AcDbEntity
  8
Painéis
 62
240
100
AcDbText
 10
6207.67590621649
 20
2032.360755700121
 30
0.0
 40
10.0
  1
27
100
AcDbText
  0
TEXT
  5
186
330
17
100
AcDbEntity
  8
Painéis
 62
240
100
AcDbText
 10
6427.675906216485
 20
2037.050000094293
 30
0.0
 40
10.0
  1
27
100
AcDbText
  0
TEXT
  5
187
330
17
100
AcDbEntity
  8
Painéis
 62
240
100
AcDbText
 10
6193.871552165707
 20
2138.512150700385
 30
0.0
 40
10.0
  1
5
100
AcDbText
  0
TEXT
  5
188
330
17
100
AcDbEntity
  8
Painéis
 62
240
100
AcDbText
 10
6468.560682575649
 20
2138.512150700385
 30
0.0
 40
10.0
  1
5
100
AcDbText
  0
TEXT
  5
189
330
17
100
AcDbEntity
  8
Painéis
 62
240
100
AcDbText
 10
6206.169158954359
 20
2231.855868280302
 30
0.0
 40
10.0
  1
27
100
AcDbText
  0
TEXT
  5
18A
330
17
100
AcDbEntity
  8
Painéis
 62
240
100
AcDbText
 10
6426.169158954356
 20
2236.545112674475
 30
0.0
 40
10.0
  1
27
100
AcDbText
  0
TEXT
  5
18B
330
17
100
AcDbEntity
  8
COTA
 62
240
100
AcDbText
 10
6255.169158954359
 20
2189.633495729472
 30
0.0
 40
10.0
  1
71
100
AcDbText
  0
TEXT
  5
18C
330
17
100
AcDbEntity
  8
COTA
 62
240
100
AcDbText
 10
6488.987982526368
 20
1983.065283734238
 30
0.0
 40
10.0
  1
64
100
AcDbText
  0
TEXT
  5
18D
330
17
100
AcDbEntity
  8
COTA
 62
240
100
AcDbText
 10
6317.675906216489
 20
1906.559946482566
 30
0.0
 40
10.0
  1
247
100
AcDbText
  0
TEXT
  5
18E
330
17
100
AcDbEntity
  8
COTA
 62
240
100
AcDbText
 10
6380.175906216489
 20
1935.083837288259
 30
0.0
 40
10.0
  1
122
100
AcDbText
  0
TEXT
  5
18F
330
17
100
AcDbEntity
  8
COTA
 62
240
100
AcDbText
 10
6256.675906216489
 20
1935.135006878891
 30
0.0
 40
10.0
  1
125
100
AcDbText
  0
TEXT
  5
190
330
17
100
AcDbEntity
  8
COTA
 62
240
100
AcDbText
 10
6479.82369365761
 20
2225.618875846558
 30
0.0
 40
10.0
  1
14
100
AcDbText
  0
TEXT
  5
191
330
17
100
AcDbEntity
  8
COTA
 62
240
100
AcDbText
 10
6479.787143950008
 20
2175.56039631442
 30
0.0
 40
10.0
  1
50
100
AcDbText
  0
TEXT
  5
192
330
17
100
AcDbEntity
  8
COTA
 62
240
100
AcDbText
 10
6316.169158954359
 20
2103.555059062748
 30
0.0
 40
10.0
  1
247
100
AcDbText
  0
TEXT
  5
193
330
17
100
AcDbEntity
  8
COTA
 62
240
100
AcDbText
 10
6378.669158954359
 20
2132.078949868441
 30
0.0
 40
10.0
  1
122
100
AcDbText
  0
TEXT
  5
194
330
17
100
AcDbEntity
  8
COTA
 62
240
100
AcDbText
 10
6255.169158954359
 20
2132.130119459073
 30
0.0
 40
10.0
  1
125
100
AcDbText
  0
TEXT
  5
195
330
17
100
AcDbEntity
  8
Cota Seção (2x)
 62
1
100
AcDbText
 10
6369.987310561988
 20
2364.445585166182
 30
0.0
 40
7.0
  1
19
100
AcDbText
  0
TEXT
  5
196
330
17
100
AcDbEntity
  8
COTA
 62
1
100
AcDbText
 10
6369.987310562017
 20
2297.718771363991
 30
0.0
 40
7.0
  1
19
100
AcDbText
  0
TEXT
  5
197
330
17
100
AcDbEntity
  8
COTA
 62
1
100
AcDbText
 10
6270.830015958605
 20
2381.945585166166
 30
0.0
 40
7.0
  1
45
100
AcDbText
  0
TEXT
  5
198
330
17
100
AcDbEntity
  8
COTA
 62
1
100
AcDbText
 10
6270.830015958279
 20
2442.945585166166
 30
0.0
 40
7.0
  1
12
100
AcDbText
  0
TEXT
  5
199
330
17
100
AcDbEntity
  8
Cota Seção (2x)
 62
1
100
AcDbText
 10
6376.066896046697
 20
2414.945585166132
 30
0.0
 40
7.0
  1
55
100
AcDbText
  0
TEXT
  5
19A
330
17
100
AcDbEntity
  8
COTA
 62
1
100
AcDbText
 10
6474.35904332032
 20
2395.94558516618
 30
0.0
 40
7.0
  1
59
100
AcDbText
  0
TEXT
  5
19B
330
17
100
AcDbEntity
  8
COTA
 62
1
100
AcDbText
 10
6251.51058747282
 20
2395.94558516618
 30
0.0
 40
7.0
  1
59
100
AcDbText
  0
TEXT
  5
19C
330
17
100
AcDbEntity
  8
Texto Seção
 62
7
100
AcDbText
 10
6224.205331525369
 20
2022.247683469749
 30
0.0
 40
13.0
  1
V329.B
100
AcDbText
  0
TEXT
  5
19D
330
17
100
AcDbEntity
  8
5
 62
5
100
AcDbText
 10
6385.386062557791
 20
1879.76980912318
 30
0.0
 40
12.0
  1
P18
100
AcDbText
  0
TEXT
  5
19E
330
17
100
AcDbEntity
  8
5
 62
5
100
AcDbText
 10
6221.071819892469
 20
1876.520419558238
 30
0.0
 40
12.0
  1
P27
100
AcDbText
  0
TEXT
  5
19F
330
17
100
AcDbEntity
  8
Texto Seção
 62
7
100
AcDbText
 10
6222.698584263242
 20
2224.242796049931
 30
0.0
 40
13.0
  1
V329.A
100
AcDbText
  0
TEXT
  5
1A0
330
17
100
AcDbEntity
  8
5
 62
5
100
AcDbText
 10
6384.564080749991
 20
2076.08631605161
 30
0.0
 40
12.0
  1
P27
100
AcDbText
  0
TEXT
  5
1A1
330
17
100
AcDbEntity
  8
5
 62
5
100
AcDbText
 10
6219.565072630343
 20
2078.234823685268
 30
0.0
 40
12.0
  1
P18
100
AcDbText
  0
TEXT
  5
1A2
330
17
100
AcDbEntity
  8
detalhes
 62
4
100
AcDbText
 10
6371.587576177462
 20
2347.18133868602
 30
0.0
 40
9.600000000000001
  1
c
100
AcDbText
  0
TEXT
  5
1A3
330
17
100
AcDbEntity
  8
detalhes
 62
4
100
AcDbText
 10
6336.732216575929
 20
2366.629601890935
 30
0.0
 40
9.600000000000001
  1
a
100
AcDbText
  0
TEXT
  5
1A4
330
17
100
AcDbEntity
  8
detalhes
 62
4
100
AcDbText
 10
6402.682930106134
 20
2395.168568141559
 30
0.0
 40
9.600000000000001
  1
b
100
AcDbText
  0
ENDSEC
  0
SECTION
  2
OBJECTS
  0
DICTIONARY
  5
A
330
0
100
AcDbDictionary
281
1
  3
ACAD_COLOR
350
B
  3
ACAD_GROUP
350
C
  3
ACAD_LAYOUT
350
D
  3
ACAD_MATERIAL
350
E
  3
ACAD_MLEADERSTYLE
350
F
  3
ACAD_MLINESTYLE
350
10
  3
ACAD_PLOTSETTINGS
350
11
  3
ACAD_PLOTSTYLENAME
350
12
  3
ACAD_SCALELIST
350
14
  3
ACAD_TABLESTYLE
350
15
  3
ACAD_VISUALSTYLE
350
16
  3
EZDXF_META
350
2D
  0
DICTIONARY
  5
B
330
A
100
AcDbDictionary
281
1
  0
DICTIONARY
  5
C
330
A
100
AcDbDictionary
281
1
  0
DICTIONARY
  5
D
330
A
100
AcDbDictionary
281
1
  3
Model
350
1A
  3
Layout1
350
1E
  0
DICTIONARY
  5
E
330
A
100
AcDbDictionary
281
1
  3
ByBlock
350
1F
  3
ByLayer
350
20
  3
Global
350
21
  0
DICTIONARY
  5
F
330
A
100
AcDbDictionary
281
1
  3
Standard
350
2C
  0
DICTIONARY
  5
10
330
A
100
AcDbDictionary
281
1
  3
Standard
350
22
  0
DICTIONARY
  5
11
330
A
100
AcDbDictionary
281
1
  0
ACDBDICTIONARYWDFLT
  5
12
330
A
100
AcDbDictionary
281
1
  3
Normal
350
13
100
AcDbDictionaryWithDefault
340
13
  0
ACDBPLACEHOLDER
  5
13
330
12
  0
DICTIONARY
  5
14
330
A
100
AcDbDictionary
281
1
  0
DICTIONARY
  5
15
330
A
100
AcDbDictionary
281
1
  0
DICTIONARY
  5
16
330
A
100
AcDbDictionary
281
1
  0
LAYOUT
  5
1A
330
D
100
AcDbPlotSettings
  1

  4
A3
  6

 40
7.5
 41
20.0
 42
7.5
 43
20.0
 44
420.0
 45
297.0
 46
0.0
 47
0.0
 48
0.0
 49
0.0
140
0.0
141
0.0
142
1.0
143
1.0
 70
1024
 72
1
 73
0
 74
5
  7

 75
16
 76
0
 77
2
 78
300
147
1.0
148
0.0
149
0.0
100
AcDbLayout
  1
Model
 70
1
 71
0
 10
0.0
 20
0.0
 11
420.0
 21
297.0
 12
0.0
 22
0.0
 32
0.0
 14
1e+20
 24
1e+20
 34
1e+20
 15
-1e+20
 25
-1e+20
 35
-1e+20
146
0.0
 13
0.0
 23
0.0
 33
0.0
 16
1.0
 26
0.0
 36
0.0
 17
0.0
 27
1.0
 37
0.0
 76
1
330
17
  0
LAYOUT
  5
1E
330
D
100
AcDbPlotSettings
  1

  4
A3
  6

 40
7.5
 41
20.0
 42
7.5
 43
20.0
 44
420.0
 45
297.0
 46
0.0
 47
0.0
 48
0.0
 49
0.0
140
0.0
141
0.0
142
1.0
143
1.0
 70
0
 72
1
 73
0
 74
5
  7

 75
16
 76
0
 77
2
 78
300
147
1.0
148
0.0
149
0.0
100
AcDbLayout
  1
Layout1
 70
1
 71
1
 10
0.0
 20
0.0
 11
420.0
 21
297.0
 12
0.0
 22
0.0
 32
0.0
 14
1e+20
 24
1e+20
 34
1e+20
 15
-1e+20
 25
-1e+20
 35
-1e+20
146
0.0
 13
0.0
 23
0.0
 33
0.0
 16
1.0
 26
0.0
 36
0.0
 17
0.0
 27
1.0
 37
0.0
 76
1
330
1B
  0
MATERIAL
  5
1F
102
{ACAD_REACTORS
330
E
102
}
330
E
100
AcDbMaterial
  1
ByBlock
  2

 70
0
 40
1.0
 71
1
 41
1.0
 91
-1023410177
 42
1.0
 72
1
  3

 73
1
 74
1
 75
1
 44
0.5
 73
0
 45
1.0
 46
1.0
 77
1
  4

 78
1
 79
1
170
1
 48
1.0
171
1
  6

172
1
173
1
174
1
140
1.0
141
1.0
175
1
  7

176
1
177
1
178
1
143
1.0
179
1
  8

270
1
271
1
272
1
145
1.0
146
1.0
273
1
  9

274
1
275
1
276
1
 42
1.0
 72
1
  3

 73
1
 74
1
 75
1
 94
63
  0
MATERIAL
  5
20
102
{ACAD_REACTORS
330
E
102
}
330
E
100
AcDbMaterial
  1
ByLayer
  2

 70
0
 40
1.0
 71
1
 41
1.0
 91
-1023410177
 42
1.0
 72
1
  3

 73
1
 74
1
 75
1
 44
0.5
 73
0
 45
1.0
 46
1.0
 77
1
  4

 78
1
 79
1
170
1
 48
1.0
171
1
  6

172
1
173
1
174
1
140
1.0
141
1.0
175
1
  7

176
1
177
1
178
1
143
1.0
179
1
  8

270
1
271
1
272
1
145
1.0
146
1.0
273
1
  9

274
1
275
1
276
1
 42
1.0
 72
1
  3

 73
1
 74
1
 75
1
 94
63
  0
MATERIAL
  5
21
102
{ACAD_REACTORS
330
E
102
}
330
E
100
AcDbMaterial
  1
Global
  2

 70
0
 40
1.0
 71
1
 41
1.0
 91
-1023410177
 42
1.0
 72
1
  3

 73
1
 74
1
 75
1
 44
0.5
 73
0
 45
1.0
 46
1.0
 77
1
  4

 78
1
 79
1
170
1
 48
1.0
171
1
  6

172
1
173
1
174
1
140
1.0
141
1.0
175
1
  7

176
1
177
1
178
1
143
1.0
179
1
  8

270
1
271
1
272
1
145
1.0
146
1.0
273
1
  9

274
1
275
1
276
1
 42
1.0
 72
1
  3

 73
1
 74
1
 75
1
 94
63
  0
MLINESTYLE
  5
22
102
{ACAD_REACTORS
330
10
102
}
330
10
100
AcDbMlineStyle
  2
Standard
 70
0
  3

 62
256
 51
90.0
 52
90.0
 71
2
 49
0.5
 62
256
  6
BYLAYER
 49
-0.5
 62
256
  6
BYLAYER
  0
MLEADERSTYLE
  5
2C
102
{ACAD_REACTORS
330
F
102
}
330
F
100
AcDbMLeaderStyle
179
2
170
2
171
1
172
0
 90
2
 40
0.0
 41
0.0
173
1
 91
-1056964608
 92
-2
290
1
 42
2.0
291
1
 43
8.0
  3
Standard
 44
4.0
300

342
29
174
1
175
1
176
0
178
1
 93
-1056964608
 45
4.0
292
0
297
0
 46
4.0
 94
-1056964608
 47
1.0
 49
1.0
140
1.0
294
1
141
0.0
177
0
142
1.0
295
0
296
0
143
3.75
271
0
272
9
273
9
  0
DICTIONARY
  5
2D
330
A
100
AcDbDictionary
280
1
281
1
  3
CREATED_BY_EZDXF
350
2E
  3
WRITTEN_BY_EZDXF
350
1A7
  0
DICTIONARYVAR
  5
2E
330
2D
100
DictionaryVariables
280
0
  1
1.4.3 @ 2026-06-10T19:55:39.836158+00:00
  0
DICTIONARYVAR
  5
1A7
330
2D
100
DictionaryVariables
280
0
  1
1.4.3 @ 2026-06-10T19:55:39.853992+00:00
  0
ENDSEC
  0
EOF
