  0
SECTION
  2
HEADER
  9
$ACADVER
  1
AC1024
  9
$ACADMAINTVER
 70
6
  9
$DWGCODEPAGE
  3
ANSI_1252
  9
$LASTSAVEDBY
  1
ezdxf
  9
$INSBASE
 10
0.0
 20
0.0
 30
0.0
  9
$EXTMIN
 10
1e+20
 20
1e+20
 30
1e+20
  9
$EXTMAX
 10
-1e+20
 20
-1e+20
 30
-1e+20
  9
$LIMMIN
 10
0.0
 20
0.0
  9
$LIMMAX
 10
420.0
 20
297.0
  9
$ORTHOMODE
 70
0
  9
$REGENMODE
 70
1
  9
$FILLMODE
 70
1
  9
$QTEXTMODE
 70
0
  9
$MIRRTEXT
 70
1
  9
$LTSCALE
 40
1.0
  9
$ATTMODE
 70
1
  9
$TEXTSIZE
 40
2.5
  9
$TRACEWID
 40
1.0
  9
$TEXTSTYLE
  7
Standard
  9
$CLAYER
  8
0
  9
$CELTYPE
  6
ByLayer
  9
$CECOLOR
 62
256
  9
$CELTSCALE
 40
1.0
  9
$DISPSILH
 70
0
  9
$DIMSCALE
 40
1.0
  9
$DIMASZ
 40
2.5
  9
$DIMEXO
 40
0.625
  9
$DIMDLI
 40
3.75
  9
$DIMRND
 40
0.0
  9
$DIMDLE
 40
0.0
  9
$DIMEXE
 40
1.25
  9
$DIMTP
 40
0.0
  9
$DIMTM
 40
0.0
  9
$DIMTXT
 40
2.5
  9
$DIMCEN
 40
2.5
  9
$DIMTSZ
 40
0.0
  9
$DIMTOL
 70
0
  9
$DIMLIM
 70
0
  9
$DIMTIH
 70
0
  9
$DIMTOH
 70
0
  9
$DIMSE1
 70
0
  9
$DIMSE2
 70
0
  9
$DIMTAD
 70
1
  9
$DIMZIN
 70
8
  9
$DIMBLK
  1

  9
$DIMASO
 70
1
  9
$DIMSHO
 70
1
  9
$DIMPOST
  1

  9
$DIMAPOST
  1

  9
$DIMALT
 70
0
  9
$DIMALTD
 70
3
  9
$DIMALTF
 40
0.03937007874
  9
$DIMLFAC
 40
1.0
  9
$DIMTOFL
 70
1
  9
$DIMTVP
 40
0.0
  9
$DIMTIX
 70
0
  9
$DIMSOXD
 70
0
  9
$DIMSAH
 70
0
  9
$DIMBLK1
  1

  9
$DIMBLK2
  1

  9
$DIMSTYLE
  2
ISO-25
  9
$DIMCLRD
 70
0
  9
$DIMCLRE
 70
0
  9
$DIMCLRT
 70
0
  9
$DIMTFAC
 40
1.0
  9
$DIMGAP
 40
0.625
  9
$DIMJUST
 70
0
  9
$DIMSD1
 70
0
  9
$DIMSD2
 70
0
  9
$DIMTOLJ
 70
0
  9
$DIMTZIN
 70
8
  9
$DIMALTZ
 70
0
  9
$DIMALTTZ
 70
0
  9
$DIMUPT
 70
0
  9
$DIMDEC
 70
2
  9
$DIMTDEC
 70
2
  9
$DIMALTU
 70
2
  9
$DIMALTTD
 70
3
  9
$DIMTXSTY
  7
Standard
  9
$DIMAUNIT
 70
0
  9
$DIMADEC
 70
0
  9
$DIMALTRND
 40
0.0
  9
$DIMAZIN
 70
0
  9
$DIMDSEP
 70
44
  9
$DIMATFIT
 70
3
  9
$DIMFRAC
 70
0
  9
$DIMLDRBLK
  1

  9
$DIMLUNIT
 70
2
  9
$DIMLWD
 70
-2
  9
$DIMLWE
 70
-2
  9
$DIMTMOVE
 70
0
  9
$DIMFXL
 40
1.0
  9
$DIMFXLON
 70
0
  9
$DIMJOGANG
 40
0.785398163397
  9
$DIMTFILL
 70
0
  9
$DIMTFILLCLR
 70
0
  9
$DIMARCSYM
 70
0
  9
$DIMLTYPE
  6

  9
$DIMLTEX1
  6

  9
$DIMLTEX2
  6

  9
$DIMTXTDIRECTION
 70
0
  9
$LUNITS
 70
2
  9
$LUPREC
 70
4
  9
$SKETCHINC
 40
1.0
  9
$FILLETRAD
 40
10.0
  9
$AUNITS
 70
0
  9
$AUPREC
 70
2
  9
$MENU
  1
.
  9
$ELEVATION
 40
0.0
  9
$PELEVATION
 40
0.0
  9
$THICKNESS
 40
0.0
  9
$LIMCHECK
 70
0
  9
$CHAMFERA
 40
0.0
  9
$CHAMFERB
 40
0.0
  9
$CHAMFERC
 40
0.0
  9
$CHAMFERD
 40
0.0
  9
$SKPOLY
 70
0
  9
$TDCREATE
 40
2461203.9057291667
  9
$TDUCREATE
 40
2458532.153996898
  9
$TDUPDATE
 40
2461203.9057291667
  9
$TDUUPDATE
 40
2458532.1544311
  9
$TDINDWG
 40
0.0
  9
$TDUSRTIMER
 40
0.0
  9
$USRTIMER
 70
1
  9
$ANGBASE
 50
0.0
  9
$ANGDIR
 70
0
  9
$PDMODE
 70
0
  9
$PDSIZE
 40
0.0
  9
$PLINEWID
 40
0.0
  9
$SPLFRAME
 70
0
  9
$SPLINETYPE
 70
6
  9
$SPLINESEGS
 70
8
  9
$HANDSEED
  5
165
  9
$SURFTAB1
 70
6
  9
$SURFTAB2
 70
6
  9
$SURFTYPE
 70
6
  9
$SURFU
 70
6
  9
$SURFV
 70
6
  9
$UCSBASE
  2

  9
$UCSNAME
  2

  9
$UCSORG
 10
0.0
 20
0.0
 30
0.0
  9
$UCSXDIR
 10
1.0
 20
0.0
 30
0.0
  9
$UCSYDIR
 10
0.0
 20
1.0
 30
0.0
  9
$UCSORTHOREF
  2

  9
$UCSORTHOVIEW
 70
0
  9
$UCSORGTOP
 10
0.0
 20
0.0
 30
0.0
  9
$UCSORGBOTTOM
 10
0.0
 20
0.0
 30
0.0
  9
$UCSORGLEFT
 10
0.0
 20
0.0
 30
0.0
  9
$UCSORGRIGHT
 10
0.0
 20
0.0
 30
0.0
  9
$UCSORGFRONT
 10
0.0
 20
0.0
 30
0.0
  9
$UCSORGBACK
 10
0.0
 20
0.0
 30
0.0
  9
$PUCSBASE
  2

  9
$PUCSNAME
  2

  9
$PUCSORG
 10
0.0
 20
0.0
 30
0.0
  9
$PUCSXDIR
 10
1.0
 20
0.0
 30
0.0
  9
$PUCSYDIR
 10
0.0
 20
1.0
 30
0.0
  9
$PUCSORTHOREF
  2

  9
$PUCSORTHOVIEW
 70
0
  9
$PUCSORGTOP
 10
0.0
 20
0.0
 30
0.0
  9
$PUCSORGBOTTOM
 10
0.0
 20
0.0
 30
0.0
  9
$PUCSORGLEFT
 10
0.0
 20
0.0
 30
0.0
  9
$PUCSORGRIGHT
 10
0.0
 20
0.0
 30
0.0
  9
$PUCSORGFRONT
 10
0.0
 20
0.0
 30
0.0
  9
$PUCSORGBACK
 10
0.0
 20
0.0
 30
0.0
  9
$USERI1
 70
0
  9
$USERI2
 70
0
  9
$USERI3
 70
0
  9
$USERI4
 70
0
  9
$USERI5
 70
0
  9
$USERR1
 40
0.0
  9
$USERR2
 40
0.0
  9
$USERR3
 40
0.0
  9
$USERR4
 40
0.0
  9
$USERR5
 40
0.0
  9
$WORLDVIEW
 70
1
  9
$SHADEDGE
 70
3
  9
$SHADEDIF
 70
70
  9
$TILEMODE
 70
1
  9
$MAXACTVP
 70
64
  9
$PINSBASE
 10
0.0
 20
0.0
 30
0.0
  9
$PLIMCHECK
 70
0
  9
$PEXTMIN
 10
1e+20
 20
1e+20
 30
1e+20
  9
$PEXTMAX
 10
-1e+20
 20
-1e+20
 30
-1e+20
  9
$PLIMMIN
 10
0.0
 20
0.0
  9
$PLIMMAX
 10
420.0
 20
297.0
  9
$UNITMODE
 70
0
  9
$VISRETAIN
 70
1
  9
$PLINEGEN
 70
0
  9
$PSLTSCALE
 70
1
  9
$TREEDEPTH
 70
3020
  9
$CMLSTYLE
  2
Standard
  9
$CMLJUST
 70
0
  9
$CMLSCALE
 40
20.0
  9
$PROXYGRAPHICS
 70
1
  9
$MEASUREMENT
 70
1
  9
$CELWEIGHT
370
-1
  9
$ENDCAPS
280
0
  9
$JOINSTYLE
280
0
  9
$LWDISPLAY
290
0
  9
$INSUNITS
 70
6
  9
$HYPERLINKBASE
  1

  9
$STYLESHEET
  1

  9
$XEDIT
290
1
  9
$CEPSNTYPE
380
0
  9
$PSTYLEMODE
290
1
  9
$FINGERPRINTGUID
  2
{89A18B45-9AA0-47FE-A263-FC19329A0E5C}
  9
$VERSIONGUID
  2
{2C32A964-C5D8-4878-A075-7F7980F39364}
  9
$EXTNAMES
290
1
  9
$PSVPSCALE
 40
0.0
  9
$OLESTARTUP
290
0
  9
$SORTENTS
280
127
  9
$INDEXCTL
280
0
  9
$HIDETEXT
280
1
  9
$XCLIPFRAME
280
1
  9
$HALOGAP
280
0
  9
$OBSCOLOR
 70
257
  9
$OBSLTYPE
280
0
  9
$INTERSECTIONDISPLAY
280
0
  9
$INTERSECTIONCOLOR
 70
257
  9
$DIMASSOC
280
2
  9
$PROJECTNAME
  1

  9
$CAMERADISPLAY
290
0
  9
$LENSLENGTH
 40
50.0
  9
$CAMERAHEIGHT
 40
0.0
  9
$STEPSPERSEC
 40
24.0
  9
$STEPSIZE
 40
100.0
  9
$3DDWFPREC
 40
2.0
  9
$PSOLWIDTH
 40
0.005
  9
$PSOLHEIGHT
 40
0.08
  9
$LOFTANG1
 40
1.570796326795
  9
$LOFTANG2
 40
1.570796326795
  9
$LOFTMAG1
 40
0.0
  9
$LOFTMAG2
 40
0.0
  9
$LOFTPARAM
 70
7
  9
$LOFTNORMALS
280
1
  9
$LATITUDE
 40
37.795
  9
$LONGITUDE
 40
-122.394
  9
$NORTHDIRECTION
 40
0.0
  9
$TIMEZONE
 70
-8000
  9
$LIGHTGLYPHDISPLAY
280
1
  9
$TILEMODELIGHTSYNCH
280
1
  9
$CMATERIAL
347
20
  9
$SOLIDHIST
280
0
  9
$SHOWHIST
280
1
  9
$DWFFRAME
280
2
  9
$DGNFRAME
280
2
  9
$REALWORLDSCALE
290
1
  9
$INTERFERECOLOR
 62
256
  9
$CSHADOW
280
0
  9
$SHADOWPLANELOCATION
 40
0.0
  0
ENDSEC
  0
SECTION
  2
CLASSES
  0
CLASS
  1
ACDBDICTIONARYWDFLT
  2
AcDbDictionaryWithDefault
  3
ObjectDBX Classes
 90
0
 91
0
280
0
281
0
  0
CLASS
  1
SUN
  2
AcDbSun
  3
SCENEOE
 90
1153
 91
0
280
0
281
0
  0
CLASS
  1
VISUALSTYLE
  2
AcDbVisualStyle
  3
ObjectDBX Classes
 90
4095
 91
0
280
0
281
0
  0
CLASS
  1
MATERIAL
  2
AcDbMaterial
  3
ObjectDBX Classes
 90
1153
 91
0
280
0
281
0
  0
CLASS
  1
SCALE
  2
AcDbScale
  3
ObjectDBX Classes
 90
1153
 91
0
280
0
281
0
  0
CLASS
  1
TABLESTYLE
  2
AcDbTableStyle
  3
ObjectDBX Classes
 90
4095
 91
0
280
0
281
0
  0
CLASS
  1
MLEADERSTYLE
  2
AcDbMLeaderStyle
  3
ACDB_MLEADERSTYLE_CLASS
 90
4095
 91
0
280
0
281
0
  0
CLASS
  1
DICTIONARYVAR
  2
AcDbDictionaryVar
  3
ObjectDBX Classes
 90
0
 91
0
280
0
281
0
  0
CLASS
  1
CELLSTYLEMAP
  2
AcDbCellStyleMap
  3
ObjectDBX Classes
 90
1152
 91
0
280
0
281
0
  0
CLASS
  1
MENTALRAYRENDERSETTINGS
  2
AcDbMentalRayRenderSettings
  3
SCENEOE
 90
1024
 91
0
280
0
281
0
  0
CLASS
  1
ACDBDETAILVIEWSTYLE
  2
AcDbDetailViewStyle
  3
ObjectDBX Classes
 90
1025
 91
0
280
0
281
0
  0
CLASS
  1
ACDBSECTIONVIEWSTYLE
  2
AcDbSectionViewStyle
  3
ObjectDBX Classes
 90
1025
 91
0
280
0
281
0
  0
CLASS
  1
RASTERVARIABLES
  2
AcDbRasterVariables
  3
ISM
 90
0
 91
0
280
0
281
0
  0
CLASS
  1
LAYOUT
  2
AcDbLayout
  3
ObjectDBX Classes
 90
0
 91
0
280
0
281
0
  0
CLASS
  1
ACDBPLACEHOLDER
  2
AcDbPlaceHolder
  3
ObjectDBX Classes
 90
0
 91
0
280
0
281
0
  0
ENDSEC
  0
SECTION
  2
TABLES
  0
TABLE
  2
VPORT
  5
8
330
0
100
AcDbSymbolTable
 70
1
  0
VPORT
  5
23
330
8
100
AcDbSymbolTableRecord
100
AcDbViewportTableRecord
  2
*Active
 70
0
 10
0.0
 20
0.0
 11
1.0
 21
1.0
 12
0.0
 22
0.0
 13
0.0
 23
0.0
 14
0.5
 24
0.5
 15
0.5
 25
0.5
 16
0.0
 26
0.0
 36
1.0
 17
0.0
 27
0.0
 37
0.0
 40
1000.0
 41
1.34
 42
50.0
 43
0.0
 44
0.0
 50
0.0
 51
0.0
 71
0
 72
1000
 73
1
 74
3
 75
0
 76
0
 77
0
 78
0
281
0
 65
0
146
0.0
  0
ENDTAB
  0
TABLE
  2
LTYPE
  5
2
330
0
100
AcDbSymbolTable
 70
3
  0
LTYPE
  5
24
330
2
100
AcDbSymbolTableRecord
100
AcDbLinetypeTableRecord
  2
ByBlock
 70
0
  3

 72
65
 73
0
 40
0.0
  0
LTYPE
  5
25
330
2
100
AcDbSymbolTableRecord
100
AcDbLinetypeTableRecord
  2
ByLayer
 70
0
  3

 72
65
 73
0
 40
0.0
  0
LTYPE
  5
26
330
2
100
AcDbSymbolTableRecord
100
AcDbLinetypeTableRecord
  2
Continuous
 70
0
  3

 72
65
 73
0
 40
0.0
  0
ENDTAB
  0
TABLE
  2
LAYER
  5
1
330
0
100
AcDbSymbolTable
 70
2
  0
LAYER
  5
27
330
1
100
AcDbSymbolTableRecord
100
AcDbLayerTableRecord
  2
0
 70
0
 62
7
  6
Continuous
370
-3
390
13
347
21
  0
LAYER
  5
28
330
1
100
AcDbSymbolTableRecord
100
AcDbLayerTableRecord
  2
Defpoints
 70
0
 62
7
  6
Continuous
290
0
370
-3
390
13
347
21
  0
ENDTAB
  0
TABLE
  2
STYLE
  5
5
330
0
100
AcDbSymbolTable
 70
1
  0
STYLE
  5
29
330
5
100
AcDbSymbolTableRecord
100
AcDbTextStyleTableRecord
  2
Standard
 70
0
 40
0.0
 41
1.0
 50
0.0
 71
0
 42
2.5
  3
txt
  4

  0
ENDTAB
  0
TABLE
  2
VIEW
  5
7
330
0
100
AcDbSymbolTable
 70
0
  0
ENDTAB
  0
TABLE
  2
UCS
  5
6
330
0
100
AcDbSymbolTable
 70
0
  0
ENDTAB
  0
TABLE
  2
APPID
  5
3
330
0
100
AcDbSymbolTable
 70
3
  0
APPID
  5
2A
330
3
100
AcDbSymbolTableRecord
100
AcDbRegAppTableRecord
  2
ACAD
 70
0
  0
APPID
  5
162
330
3
100
AcDbSymbolTableRecord
100
AcDbRegAppTableRecord
  2
HATCHBACKGROUNDCOLOR
 70
0
  0
APPID
  5
163
330
3
100
AcDbSymbolTableRecord
100
AcDbRegAppTableRecord
  2
EZDXF
 70
0
  0
ENDTAB
  0
TABLE
  2
DIMSTYLE
  5
4
330
0
100
AcDbSymbolTable
 70
1
100
AcDbDimStyleTable
  0
DIMSTYLE
105
2B
330
4
100
AcDbSymbolTableRecord
100
AcDbDimStyleTableRecord
  2
Standard
 70
0
 40
1.0
 41
2.5
 42
0.625
 43
3.75
 44
1.25
 45
0.0
 46
0.0
 47
0.0
 48
0.0
 49
2.5
140
2.5
141
2.5
142
0.0
143
0.03937007874
144
1.0
145
0.0
146
1.0
147
0.625
148
0.0
 69
0
 70
0
 71
0
 72
0
 73
0
 74
0
 75
0
 76
0
 77
1
 78
8
 79
3
170
0
171
3
172
1
173
0
174
0
175
0
176
0
177
0
178
0
179
2
271
2
272
2
273
2
274
3
275
0
276
0
277
2
278
44
279
0
280
0
281
0
282
0
283
0
284
8
285
0
286
0
288
0
289
3
290
0
371
-2
372
-2
  0
ENDTAB
  0
TABLE
  2
BLOCK_RECORD
  5
9
330
0
100
AcDbSymbolTable
 70
2
  0
BLOCK_RECORD
  5
17
330
9
100
AcDbSymbolTableRecord
100
AcDbBlockTableRecord
  2
*Model_Space
340
1A
 70
0
280
1
281
0
  0
BLOCK_RECORD
  5
1B
330
9
100
AcDbSymbolTableRecord
100
AcDbBlockTableRecord
  2
*Paper_Space
340
1E
 70
0
280
1
281
0
  0
ENDTAB
  0
ENDSEC
  0
SECTION
  2
BLOCKS
  0
BLOCK
  5
18
330
17
100
AcDbEntity
  8
0
100
AcDbBlockBegin
  2
*Model_Space
 70
0
 10
0.0
 20
0.0
 30
0.0
  3
*Model_Space
  1

  0
ENDBLK
  5
19
330
17
100
AcDbEntity
  8
0
100
AcDbBlockEnd
  0
BLOCK
  5
1C
330
1B
100
AcDbEntity
  8
0
100
AcDbBlockBegin
  2
*Paper_Space
 70
0
 10
0.0
 20
0.0
 30
0.0
  3
*Paper_Space
  1

  0
ENDBLK
  5
1D
330
1B
100
AcDbEntity
  8
0
100
AcDbBlockEnd
  0
ENDSEC
  0
SECTION
  2
ENTITIES
  0
POLYLINE
  5
2F
330
17
100
AcDbEntity
  8
COTA
100
AcDb2dPolyline
 66
1
 10
0.0
 20
0.0
 30
0.0
 70
0
  0
VERTEX
  5
31
330
17
100
AcDbEntity
  8
COTA
100
AcDbVertex
100
AcDb2dVertex
 10
3891.453989303174
 20
5735.44409442403
 30
0.0
 70
0
  0
VERTEX
  5
32
330
17
100
AcDbEntity
  8
COTA
100
AcDbVertex
100
AcDb2dVertex
 10
3896.453989303174
 20
5740.44409442403
 30
0.0
 70
0
  0
SEQEND
  5
30
330
2F
100
AcDbEntity
  8
COTA
  0
POLYLINE
  5
33
330
17
100
AcDbEntity
  8
COTA
100
AcDb2dPolyline
 66
1
 10
0.0
 20
0.0
 30
0.0
 70
0
  0
VERTEX
  5
35
330
17
100
AcDbEntity
  8
COTA
100
AcDbVertex
100
AcDb2dVertex
 10
3858.453989303174
 20
5740.44409442403
 30
0.0
 70
0
  0
VERTEX
  5
36
330
17
100
AcDbEntity
  8
COTA
100
AcDbVertex
100
AcDb2dVertex
 10
3853.453989303174
 20
5735.44409442403
 30
0.0
 70
0
  0
SEQEND
  5
34
330
33
100
AcDbEntity
  8
COTA
  0
POLYLINE
  5
37
330
17
100
AcDbEntity
  8
COTA
100
AcDb2dPolyline
 66
1
 10
0.0
 20
0.0
 30
0.0
 70
0
  0
VERTEX
  5
39
330
17
100
AcDbEntity
  8
COTA
100
AcDbVertex
100
AcDb2dVertex
 10
3764.796694699839
 20
5785.170908226222
 30
0.0
 70
0
  0
VERTEX
  5
3A
330
17
100
AcDbEntity
  8
COTA
100
AcDbVertex
100
AcDb2dVertex
 10
3769.796694699839
 20
5780.170908226222
 30
0.0
 70
0
  0
SEQEND
  5
38
330
37
100
AcDbEntity
  8
COTA
  0
POLYLINE
  5
3B
330
17
100
AcDbEntity
  8
COTA
100
AcDb2dPolyline
 66
1
 10
0.0
 20
0.0
 30
0.0
 70
0
  0
VERTEX
  5
3D
330
17
100
AcDbEntity
  8
COTA
100
AcDbVertex
100
AcDb2dVertex
 10
3769.796694699839
 20
5898.170908226224
 30
0.0
 70
0
  0
VERTEX
  5
3E
330
17
100
AcDbEntity
  8
COTA
100
AcDbVertex
100
AcDb2dVertex
 10
3764.796694699839
 20
5903.170908226224
 30
0.0
 70
0
  0
SEQEND
  5
3C
330
3B
100
AcDbEntity
  8
COTA
  0
POLYLINE
  5
3F
330
17
100
AcDbEntity
  8
COTA
100
AcDb2dPolyline
 66
1
 10
0.0
 20
0.0
 30
0.0
 70
0
  0
VERTEX
  5
41
330
17
100
AcDbEntity
  8
COTA
100
AcDbVertex
100
AcDb2dVertex
 10
3973.325722061557
 20
5898.170908226224
 30
0.0
 70
0
  0
VERTEX
  5
42
330
17
100
AcDbEntity
  8
COTA
100
AcDbVertex
100
AcDb2dVertex
 10
3968.325722061557
 20
5903.170908226224
 30
0.0
 70
0
  0
SEQEND
  5
40
330
3F
100
AcDbEntity
  8
COTA
  0
POLYLINE
  5
43
330
17
100
AcDbEntity
  8
COTA
100
AcDb2dPolyline
 66
1
 10
0.0
 20
0.0
 30
0.0
 70
0
  0
VERTEX
  5
45
330
17
100
AcDbEntity
  8
COTA
100
AcDbVertex
100
AcDb2dVertex
 10
3968.325722061557
 20
5785.170908226222
 30
0.0
 70
0
  0
VERTEX
  5
46
330
17
100
AcDbEntity
  8
COTA
100
AcDbVertex
100
AcDb2dVertex
 10
3973.325722061557
 20
5780.170908226222
 30
0.0
 70
0
  0
SEQEND
  5
44
330
43
100
AcDbEntity
  8
COTA
  0
POLYLINE
  5
47
330
17
100
AcDbEntity
  8
SARR_3.5x7
 62
81
100
AcDb2dPolyline
 66
1
 10
0.0
 20
0.0
 30
0.0
 70
0
  0
VERTEX
  5
49
330
17
100
AcDbEntity
  8
SARR_3.5x7
100
AcDbVertex
100
AcDb2dVertex
 10
3833.553989303093
 20
5782.67090822622
 30
0.0
 70
0
  0
VERTEX
  5
4A
330
17
100
AcDbEntity
  8
SARR_3.5x7
100
AcDbVertex
100
AcDb2dVertex
 10
3916.353989303292
 20
5782.67090822622
 30
0.0
 70
0
  0
VERTEX
  5
4B
330
17
100
AcDbEntity
  8
SARR_3.5x7
100
AcDbVertex
100
AcDb2dVertex
 10
3916.353989303292
 20
5752.612846622222
 30
0.0
 70
0
  0
VERTEX
  5
4C
330
17
100
AcDbEntity
  8
SARR_3.5x7
100
AcDbVertex
100
AcDb2dVertex
 10
3833.553989303093
 20
5752.612846622222
 30
0.0
 70
0
  0
VERTEX
  5
4D
330
17
100
AcDbEntity
  8
SARR_3.5x7
100
AcDbVertex
100
AcDb2dVertex
 10
3833.553989303093
 20
5782.67090822622
 30
0.0
 70
0
  0
SEQEND
  5
48
330
47
100
AcDbEntity
  8
SARR_3.5x7
  0
POLYLINE
  5
4E
330
17
100
AcDbEntity
  8
SARR_3.5x7
 62
81
100
AcDb2dPolyline
 66
1
 10
0.0
 20
0.0
 30
0.0
 70
0
  0
VERTEX
  5
50
330
17
100
AcDbEntity
  8
SARR_3.5x7
100
AcDbVertex
100
AcDb2dVertex
 10
3916.353989303394
 20
5894.670908226226
 30
0.0
 70
0
  0
VERTEX
  5
51
330
17
100
AcDbEntity
  8
SARR_3.5x7
100
AcDbVertex
100
AcDb2dVertex
 10
3902.353989303394
 20
5894.670908226226
 30
0.0
 70
0
  0
VERTEX
  5
52
330
17
100
AcDbEntity
  8
SARR_3.5x7
100
AcDbVertex
100
AcDb2dVertex
 10
3902.353989303245
 20
5706.192694820416
 30
0.0
 70
0
  0
VERTEX
  5
53
330
17
100
AcDbEntity
  8
SARR_3.5x7
100
AcDbVertex
100
AcDb2dVertex
 10
3916.353989303245
 20
5706.192694820416
 30
0.0
 70
0
  0
VERTEX
  5
54
330
17
100
AcDbEntity
  8
SARR_3.5x7
100
AcDbVertex
100
AcDb2dVertex
 10
3916.353989303394
 20
5894.670908226226
 30
0.0
 70
0
  0
SEQEND
  5
4F
330
4E
100
AcDbEntity
  8
SARR_3.5x7
  0
POLYLINE
  5
55
330
17
100
AcDbEntity
  8
SARR_3.5x7
 62
81
100
AcDb2dPolyline
 66
1
 10
0.0
 20
0.0
 30
0.0
 70
0
  0
VERTEX
  5
57
330
17
100
AcDbEntity
  8
SARR_3.5x7
100
AcDbVertex
100
AcDb2dVertex
 10
3833.553989303108
 20
5894.670908226222
 30
0.0
 70
0
  0
VERTEX
  5
58
330
17
100
AcDbEntity
  8
SARR_3.5x7
100
AcDbVertex
100
AcDb2dVertex
 10
3847.553989303108
 20
5894.670908226222
 30
0.0
 70
0
  0
VERTEX
  5
59
330
17
100
AcDbEntity
  8
SARR_3.5x7
100
AcDbVertex
100
AcDb2dVertex
 10
3847.553989303235
 20
5706.192694820416
 30
0.0
 70
0
  0
VERTEX
  5
5A
330
17
100
AcDbEntity
  8
SARR_3.5x7
100
AcDbVertex
100
AcDb2dVertex
 10
3833.553989303235
 20
5706.192694820416
 30
0.0
 70
0
  0
VERTEX
  5
5B
330
17
100
AcDbEntity
  8
SARR_3.5x7
100
AcDbVertex
100
AcDb2dVertex
 10
3833.553989303108
 20
5894.670908226222
 30
0.0
 70
0
  0
SEQEND
  5
56
330
55
100
AcDbEntity
  8
SARR_3.5x7
  0
POLYLINE
  5
5C
330
17
100
AcDbEntity
  8
Madeira
 62
126
100
AcDb2dPolyline
 66
1
 10
0.0
 20
0.0
 30
0.0
 70
0
  0
VERTEX
  5
5E
330
17
100
AcDbEntity
  8
Madeira
100
AcDbVertex
100
AcDb2dVertex
 10
3902.353989303179
 20
5782.67090822622
 30
0.0
 70
0
  0
VERTEX
  5
5F
330
17
100
AcDbEntity
  8
Madeira
100
AcDbVertex
100
AcDb2dVertex
 10
3897.953989303186
 20
5782.67090822622
 30
0.0
 70
0
  0
VERTEX
  5
60
330
17
100
AcDbEntity
  8
Madeira
100
AcDbVertex
100
AcDb2dVertex
 10
3897.953989303186
 20
5796.670908226221
 30
0.0
 70
0
  0
VERTEX
  5
61
330
17
100
AcDbEntity
  8
Madeira
100
AcDbVertex
100
AcDb2dVertex
 10
3902.353989303179
 20
5796.670908226221
 30
0.0
 70
0
  0
VERTEX
  5
62
330
17
100
AcDbEntity
  8
Madeira
100
AcDbVertex
100
AcDb2dVertex
 10
3902.353989303179
 20
5782.67090822622
 30
0.0
 70
0
  0
SEQEND
  5
5D
330
5C
100
AcDbEntity
  8
Madeira
  0
POLYLINE
  5
63
330
17
100
AcDbEntity
  8
Madeira
 62
126
100
AcDb2dPolyline
 66
1
 10
0.0
 20
0.0
 30
0.0
 70
0
  0
VERTEX
  5
65
330
17
100
AcDbEntity
  8
Madeira
100
AcDbVertex
100
AcDb2dVertex
 10
3902.353989303176
 20
5831.81273102866
 30
0.0
 70
0
  0
VERTEX
  5
66
330
17
100
AcDbEntity
  8
Madeira
100
AcDbVertex
100
AcDb2dVertex
 10
3897.953989303181
 20
5831.81273102866
 30
0.0
 70
0
  0
VERTEX
  5
67
330
17
100
AcDbEntity
  8
Madeira
100
AcDbVertex
100
AcDb2dVertex
 10
3897.953989303181
 20
5845.81273102866
 30
0.0
 70
0
  0
VERTEX
  5
68
330
17
100
AcDbEntity
  8
Madeira
100
AcDbVertex
100
AcDb2dVertex
 10
3902.353989303176
 20
5845.81273102866
 30
0.0
 70
0
  0
VERTEX
  5
69
330
17
100
AcDbEntity
  8
Madeira
100
AcDbVertex
100
AcDb2dVertex
 10
3902.353989303176
 20
5831.81273102866
 30
0.0
 70
0
  0
SEQEND
  5
64
330
63
100
AcDbEntity
  8
Madeira
  0
POLYLINE
  5
6A
330
17
100
AcDbEntity
  8
Madeira
 62
126
100
AcDb2dPolyline
 66
1
 10
0.0
 20
0.0
 30
0.0
 70
0
  0
VERTEX
  5
6C
330
17
100
AcDbEntity
  8
Madeira
100
AcDbVertex
100
AcDb2dVertex
 10
3902.353989303168
 20
5886.670908226222
 30
0.0
 70
0
  0
VERTEX
  5
6D
330
17
100
AcDbEntity
  8
Madeira
100
AcDbVertex
100
AcDb2dVertex
 10
3897.953989303174
 20
5886.670908226222
 30
0.0
 70
0
  0
VERTEX
  5
6E
330
17
100
AcDbEntity
  8
Madeira
100
AcDbVertex
100
AcDb2dVertex
 10
3897.953989303174
 20
5900.670908226222
 30
0.0
 70
0
  0
VERTEX
  5
6F
330
17
100
AcDbEntity
  8
Madeira
100
AcDbVertex
100
AcDb2dVertex
 10
3902.353989303168
 20
5900.670908226222
 30
0.0
 70
0
  0
VERTEX
  5
70
330
17
100
AcDbEntity
  8
Madeira
100
AcDbVertex
100
AcDb2dVertex
 10
3902.353989303168
 20
5886.670908226222
 30
0.0
 70
0
  0
SEQEND
  5
6B
330
6A
100
AcDbEntity
  8
Madeira
  0
POLYLINE
  5
71
330
17
100
AcDbEntity
  8
Madeira
 62
126
100
AcDb2dPolyline
 66
1
 10
0.0
 20
0.0
 30
0.0
 70
0
  0
VERTEX
  5
73
330
17
100
AcDbEntity
  8
Madeira
100
AcDbVertex
100
AcDb2dVertex
 10
3847.55398930317
 20
5782.67090822622
 30
0.0
 70
0
  0
VERTEX
  5
74
330
17
100
AcDbEntity
  8
Madeira
100
AcDbVertex
100
AcDb2dVertex
 10
3851.953989303164
 20
5782.67090822622
 30
0.0
 70
0
  0
VERTEX
  5
75
330
17
100
AcDbEntity
  8
Madeira
100
AcDbVertex
100
AcDb2dVertex
 10
3851.953989303164
 20
5796.670908226221
 30
0.0
 70
0
  0
VERTEX
  5
76
330
17
100
AcDbEntity
  8
Madeira
100
AcDbVertex
100
AcDb2dVertex
 10
3847.55398930317
 20
5796.670908226221
 30
0.0
 70
0
  0
VERTEX
  5
77
330
17
100
AcDbEntity
  8
Madeira
100
AcDbVertex
100
AcDb2dVertex
 10
3847.55398930317
 20
5782.67090822622
 30
0.0
 70
0
  0
SEQEND
  5
72
330
71
100
AcDbEntity
  8
Madeira
  0
POLYLINE
  5
78
330
17
100
AcDbEntity
  8
Madeira
 62
126
100
AcDb2dPolyline
 66
1
 10
0.0
 20
0.0
 30
0.0
 70
0
  0
VERTEX
  5
7A
330
17
100
AcDbEntity
  8
Madeira
100
AcDbVertex
100
AcDb2dVertex
 10
3847.553989303173
 20
5831.81273102866
 30
0.0
 70
0
  0
VERTEX
  5
7B
330
17
100
AcDbEntity
  8
Madeira
100
AcDbVertex
100
AcDb2dVertex
 10
3851.953989303167
 20
5831.81273102866
 30
0.0
 70
0
  0
VERTEX
  5
7C
330
17
100
AcDbEntity
  8
Madeira
100
AcDbVertex
100
AcDb2dVertex
 10
3851.953989303167
 20
5845.81273102866
 30
0.0
 70
0
  0
VERTEX
  5
7D
330
17
100
AcDbEntity
  8
Madeira
100
AcDbVertex
100
AcDb2dVertex
 10
3847.553989303173
 20
5845.81273102866
 30
0.0
 70
0
  0
VERTEX
  5
7E
330
17
100
AcDbEntity
  8
Madeira
100
AcDbVertex
100
AcDb2dVertex
 10
3847.553989303173
 20
5831.81273102866
 30
0.0
 70
0
  0
SEQEND
  5
79
330
78
100
AcDbEntity
  8
Madeira
  0
POLYLINE
  5
7F
330
17
100
AcDbEntity
  8
Madeira
 62
126
100
AcDb2dPolyline
 66
1
 10
0.0
 20
0.0
 30
0.0
 70
0
  0
VERTEX
  5
81
330
17
100
AcDbEntity
  8
Madeira
100
AcDbVertex
100
AcDb2dVertex
 10
3847.55398930318
 20
5886.670908226222
 30
0.0
 70
0
  0
VERTEX
  5
82
330
17
100
AcDbEntity
  8
Madeira
100
AcDbVertex
100
AcDb2dVertex
 10
3851.953989303174
 20
5886.670908226222
 30
0.0
 70
0
  0
VERTEX
  5
83
330
17
100
AcDbEntity
  8
Madeira
100
AcDbVertex
100
AcDb2dVertex
 10
3851.953989303174
 20
5900.670908226222
 30
0.0
 70
0
  0
VERTEX
  5
84
330
17
100
AcDbEntity
  8
Madeira
100
AcDbVertex
100
AcDb2dVertex
 10
3847.55398930318
 20
5900.670908226222
 30
0.0
 70
0
  0
VERTEX
  5
85
330
17
100
AcDbEntity
  8
Madeira
100
AcDbVertex
100
AcDb2dVertex
 10
3847.55398930318
 20
5886.670908226222
 30
0.0
 70
0
  0
SEQEND
  5
80
330
7F
100
AcDbEntity
  8
Madeira
  0
POLYLINE
  5
86
330
17
100
AcDbEntity
  8
CONCRETO
 62
251
100
AcDb2dPolyline
 66
1
 10
0.0
 20
0.0
 30
0.0
 70
0
  0
VERTEX
  5
88
330
17
100
AcDbEntity
  8
CONCRETO
100
AcDbVertex
100
AcDb2dVertex
 10
3855.953989303174
 20
5900.670908226222
 30
0.0
 70
0
  0
VERTEX
  5
89
330
17
100
AcDbEntity
  8
CONCRETO
100
AcDbVertex
100
AcDb2dVertex
 10
3893.953989303181
 20
5900.670908226222
 30
0.0
 70
0
  0
VERTEX
  5
8A
330
17
100
AcDbEntity
  8
CONCRETO
100
AcDbVertex
100
AcDb2dVertex
 10
3893.953989303181
 20
5872.670908226208
 30
0.0
 70
0
  0
VERTEX
  5
8B
330
17
100
AcDbEntity
  8
CONCRETO
100
AcDbVertex
100
AcDb2dVertex
 10
3893.953989303116
 20
5790.67090822622
 30
0.0
 70
0
  0
VERTEX
  5
8C
330
17
100
AcDbEntity
  8
CONCRETO
100
AcDbVertex
100
AcDb2dVertex
 10
3855.953989303174
 20
5790.67090822622
 30
0.0
 70
0
  0
VERTEX
  5
8D
330
17
100
AcDbEntity
  8
CONCRETO
100
AcDbVertex
100
AcDb2dVertex
 10
3855.953989303174
 20
5900.670908226222
 30
0.0
 70
0
  0
SEQEND
  5
87
330
86
100
AcDbEntity
  8
CONCRETO
  0
POLYLINE
  5
8E
330
17
100
AcDbEntity
  8
Painéis
 62
200
100
AcDb2dPolyline
 66
1
 10
0.0
 20
0.0
 30
0.0
 70
0
  0
VERTEX
  5
90
330
17
100
AcDbEntity
  8
Painéis
100
AcDbVertex
100
AcDb2dVertex
 10
3897.953989303186
 20
5900.670908226222
 30
0.0
 70
0
  0
VERTEX
  5
91
330
17
100
AcDbEntity
  8
Painéis
100
AcDbVertex
100
AcDb2dVertex
 10
3893.953989303185
 20
5900.670908226222
 30
0.0
 70
0
  0
VERTEX
  5
92
330
17
100
AcDbEntity
  8
Painéis
100
AcDbVertex
100
AcDb2dVertex
 10
3893.953989303174
 20
5782.67090822622
 30
0.0
 70
0
  0
VERTEX
  5
93
330
17
100
AcDbEntity
  8
Painéis
100
AcDbVertex
100
AcDb2dVertex
 10
3897.953989303174
 20
5782.67090822622
 30
0.0
 70
0
  0
VERTEX
  5
94
330
17
100
AcDbEntity
  8
Painéis
100
AcDbVertex
100
AcDb2dVertex
 10
3897.953989303186
 20
5900.670908226222
 30
0.0
 70
0
  0
SEQEND
  5
8F
330
8E
100
AcDbEntity
  8
Painéis
  0
POLYLINE
  5
95
330
17
100
AcDbEntity
  8
Madeira
 62
126
100
AcDb2dPolyline
 66
1
 10
0.0
 20
0.0
 30
0.0
 70
0
  0
VERTEX
  5
97
330
17
100
AcDbEntity
  8
Madeira
100
AcDbVertex
100
AcDb2dVertex
 10
3855.953989303174
 20
5782.67090822622
 30
0.0
 70
0
  0
VERTEX
  5
98
330
17
100
AcDbEntity
  8
Madeira
100
AcDbVertex
100
AcDb2dVertex
 10
3855.953989303174
 20
5787.070908226215
 30
0.0
 70
0
  0
VERTEX
  5
99
330
17
100
AcDbEntity
  8
Madeira
100
AcDbVertex
100
AcDb2dVertex
 10
3869.953989303174
 20
5787.070908226215
 30
0.0
 70
0
  0
VERTEX
  5
9A
330
17
100
AcDbEntity
  8
Madeira
100
AcDbVertex
100
AcDb2dVertex
 10
3869.953989303174
 20
5782.67090822622
 30
0.0
 70
0
  0
VERTEX
  5
9B
330
17
100
AcDbEntity
  8
Madeira
100
AcDbVertex
100
AcDb2dVertex
 10
3855.953989303174
 20
5782.67090822622
 30
0.0
 70
0
  0
SEQEND
  5
96
330
95
100
AcDbEntity
  8
Madeira
  0
POLYLINE
  5
9C
330
17
100
AcDbEntity
  8
Painéis
 62
200
100
AcDb2dPolyline
 66
1
 10
0.0
 20
0.0
 30
0.0
 70
0
  0
VERTEX
  5
9E
330
17
100
AcDbEntity
  8
Painéis
100
AcDbVertex
100
AcDb2dVertex
 10
3893.953989303174
 20
5787.070908226215
 30
0.0
 70
0
  0
VERTEX
  5
9F
330
17
100
AcDbEntity
  8
Painéis
100
AcDbVertex
100
AcDb2dVertex
 10
3893.953989303174
 20
5790.67090822622
 30
0.0
 70
0
  0
VERTEX
  5
A0
330
17
100
AcDbEntity
  8
Painéis
100
AcDbVertex
100
AcDb2dVertex
 10
3855.953989303174
 20
5790.67090822622
 30
0.0
 70
0
  0
VERTEX
  5
A1
330
17
100
AcDbEntity
  8
Painéis
100
AcDbVertex
100
AcDb2dVertex
 10
3855.953989303174
 20
5787.070908226215
 30
0.0
 70
0
  0
VERTEX
  5
A2
330
17
100
AcDbEntity
  8
Painéis
100
AcDbVertex
100
AcDb2dVertex
 10
3893.953989303174
 20
5787.070908226215
 30
0.0
 70
0
  0
SEQEND
  5
9D
330
9C
100
AcDbEntity
  8
Painéis
  0
POLYLINE
  5
A3
330
17
100
AcDbEntity
  8
Madeira
 62
126
100
AcDb2dPolyline
 66
1
 10
0.0
 20
0.0
 30
0.0
 70
0
  0
VERTEX
  5
A5
330
17
100
AcDbEntity
  8
Madeira
100
AcDbVertex
100
AcDb2dVertex
 10
3893.953989303174
 20
5782.67090822622
 30
0.0
 70
0
  0
VERTEX
  5
A6
330
17
100
AcDbEntity
  8
Madeira
100
AcDbVertex
100
AcDb2dVertex
 10
3893.953989303174
 20
5787.070908226215
 30
0.0
 70
0
  0
VERTEX
  5
A7
330
17
100
AcDbEntity
  8
Madeira
100
AcDbVertex
100
AcDb2dVertex
 10
3879.953989303174
 20
5787.070908226215
 30
0.0
 70
0
  0
VERTEX
  5
A8
330
17
100
AcDbEntity
  8
Madeira
100
AcDbVertex
100
AcDb2dVertex
 10
3879.953989303174
 20
5782.67090822622
 30
0.0
 70
0
  0
VERTEX
  5
A9
330
17
100
AcDbEntity
  8
Madeira
100
AcDbVertex
100
AcDb2dVertex
 10
3893.953989303174
 20
5782.67090822622
 30
0.0
 70
0
  0
SEQEND
  5
A4
330
A3
100
AcDbEntity
  8
Madeira
  0
POLYLINE
  5
AA
330
17
100
AcDbEntity
  8
Painéis
 62
200
100
AcDb2dPolyline
 66
1
 10
0.0
 20
0.0
 30
0.0
 70
0
  0
VERTEX
  5
AC
330
17
100
AcDbEntity
  8
Painéis
100
AcDbVertex
100
AcDb2dVertex
 10
3851.953989303174
 20
5900.670908226222
 30
0.0
 70
0
  0
VERTEX
  5
AD
330
17
100
AcDbEntity
  8
Painéis
100
AcDbVertex
100
AcDb2dVertex
 10
3855.953989303174
 20
5900.670908226222
 30
0.0
 70
0
  0
VERTEX
  5
AE
330
17
100
AcDbEntity
  8
Painéis
100
AcDbVertex
100
AcDb2dVertex
 10
3855.953989303174
 20
5782.67090822622
 30
0.0
 70
0
  0
VERTEX
  5
AF
330
17
100
AcDbEntity
  8
Painéis
100
AcDbVertex
100
AcDb2dVertex
 10
3851.953989303174
 20
5782.67090822622
 30
0.0
 70
0
  0
VERTEX
  5
B0
330
17
100
AcDbEntity
  8
Painéis
100
AcDbVertex
100
AcDb2dVertex
 10
3851.953989303174
 20
5900.670908226222
 30
0.0
 70
0
  0
SEQEND
  5
AB
330
AA
100
AcDbEntity
  8
Painéis
  0
LINE
  5
B1
330
17
100
AcDbEntity
  8
Texto Seção
 62
252
100
AcDbLine
 10
3877.153989303172
 20
5900.670908226222
 30
0.0
 11
3877.153989303172
 21
6025.670908226222
 31
0.0
  0
LINE
  5
B2
330
17
100
AcDbEntity
  8
Painéis
100
AcDbLine
 10
3591.076629734688
 20
5597.283259144439
 30
0.0
 11
3588.076629734688
 21
5600.283259144439
 31
0.0
  0
LINE
  5
B3
330
17
100
AcDbEntity
  8
Painéis
100
AcDbLine
 10
3588.076629734688
 20
5605.283259144424
 30
0.0
 11
3591.076629734688
 21
5602.283259144424
 31
0.0
  0
LINE
  5
B4
330
17
100
AcDbEntity
  8
Painéis
 62
4
100
AcDbLine
 10
3589.576629734688
 20
5603.783259144424
 30
0.0
 11
3589.576629734688
 21
5598.783259144439
 31
0.0
  0
LINE
  5
B5
330
17
100
AcDbEntity
  8
Painéis
 62
4
100
AcDbLine
 10
3589.576629734688
 20
5598.783259144439
 30
0.0
 11
3589.576629734688
 21
5580.686767916368
 31
0.0
  0
LINE
  5
B6
330
17
100
AcDbEntity
  8
Painéis
 62
4
100
AcDbLine
 10
3589.576629734688
 20
5603.783259144424
 30
0.0
 11
3589.576629734688
 21
5606.783259144425
 31
0.0
  0
LINE
  5
B7
330
17
100
AcDbEntity
  8
Painéis
 62
4
100
AcDbLine
 10
3600.326998245396
 20
5598.783259144439
 30
0.0
 11
3586.576629734687
 21
5598.783259144439
 31
0.0
  0
LINE
  5
B8
330
17
100
AcDbEntity
  8
Painéis
 62
4
100
AcDbLine
 10
3600.326998245396
 20
5603.783259144424
 30
0.0
 11
3586.576629734687
 21
5603.783259144424
 31
0.0
  0
LINE
  5
B9
330
17
100
AcDbEntity
  8
Painéis
100
AcDbLine
 10
3624.826998245377
 20
5682.614892026297
 30
0.0
 11
3627.826998245377
 21
5685.614892026297
 31
0.0
  0
LINE
  5
BA
330
17
100
AcDbEntity
  8
Painéis
100
AcDbLine
 10
3604.826998245377
 20
5685.614892026297
 30
0.0
 11
3601.826998245377
 21
5682.614892026297
 31
0.0
  0
LINE
  5
BB
330
17
100
AcDbEntity
  8
Painéis
 62
4
100
AcDbLine
 10
3603.326998245377
 20
5684.114892026297
 30
0.0
 11
3626.326998245377
 21
5684.114892026297
 31
0.0
  0
LINE
  5
BC
330
17
100
AcDbEntity
  8
Painéis
 62
4
100
AcDbLine
 10
3626.326998245377
 20
5660.783259144424
 30
0.0
 11
3626.326998245377
 21
5687.114892026297
 31
0.0
  0
LINE
  5
BD
330
17
100
AcDbEntity
  8
Painéis
 62
4
100
AcDbLine
 10
3603.326998245377
 20
5660.783259144424
 30
0.0
 11
3603.326998245377
 21
5687.114892026297
 31
0.0
  0
LINE
  5
BE
330
17
100
AcDbEntity
  8
COTA
100
AcDbLine
 10
3997.955187350255
 20
5469.621603322115
 30
0.0
 11
4000.955187350255
 21
5472.621603322115
 31
0.0
  0
LINE
  5
BF
330
17
100
AcDbEntity
  8
COTA
100
AcDbLine
 10
3973.955187350263
 20
5472.621603322115
 30
0.0
 11
3970.955187350263
 21
5469.621603322115
 31
0.0
  0
LINE
  5
C0
330
17
100
AcDbEntity
  8
COTA
 62
4
100
AcDbLine
 10
3972.455187350263
 20
5471.121603322115
 30
0.0
 11
3999.455187350255
 21
5471.121603322115
 31
0.0
  0
LINE
  5
C1
330
17
100
AcDbEntity
  8
COTA
 62
4
100
AcDbLine
 10
3999.455187350255
 20
5464.597293630621
 30
0.0
 11
3999.455187350255
 21
5474.121603322114
 31
0.0
  0
LINE
  5
C2
330
17
100
AcDbEntity
  8
COTA
 62
4
100
AcDbLine
 10
3972.455187350263
 20
5464.597293630621
 30
0.0
 11
3972.455187350263
 21
5474.121603322114
 31
0.0
  0
LINE
  5
C3
330
17
100
AcDbEntity
  8
COTA
100
AcDbLine
 10
3774.955187350255
 20
5475.505105345394
 30
0.0
 11
3771.955187350255
 21
5472.505105345394
 31
0.0
  0
LINE
  5
C4
330
17
100
AcDbEntity
  8
COTA
100
AcDbLine
 10
3798.955187350255
 20
5472.505105345394
 30
0.0
 11
3801.955187350255
 21
5475.505105345394
 31
0.0
  0
LINE
  5
C5
330
17
100
AcDbEntity
  8
COTA
 62
4
100
AcDbLine
 10
3800.455187350255
 20
5474.005105345394
 30
0.0
 11
3773.455187350255
 21
5474.005105345394
 31
0.0
  0
LINE
  5
C6
330
17
100
AcDbEntity
  8
COTA
 62
4
100
AcDbLine
 10
3773.455187350255
 20
5464.597293630614
 30
0.0
 11
3773.455187350255
 21
5477.005105345394
 31
0.0
  0
LINE
  5
C7
330
17
100
AcDbEntity
  8
COTA
 62
4
100
AcDbLine
 10
3800.455187350255
 20
5464.597293630614
 30
0.0
 11
3800.455187350255
 21
5477.005105345394
 31
0.0
  0
LINE
  5
C8
330
17
100
AcDbEntity
  8
COTA
100
AcDbLine
 10
4193.824587134515
 20
5460.097293630609
 30
0.0
 11
4190.824587134515
 21
5463.097293630609
 31
0.0
  0
LINE
  5
C9
330
17
100
AcDbEntity
  8
COTA
100
AcDbLine
 10
4190.824587134515
 20
5404.097293630609
 30
0.0
 11
4193.824587134515
 21
5401.097293630609
 31
0.0
  0
LINE
  5
CA
330
17
100
AcDbEntity
  8
COTA
 62
4
100
AcDbLine
 10
4192.324587134515
 20
5402.597293630609
 30
0.0
 11
4192.324587134515
 21
5461.597293630609
 31
0.0
  0
LINE
  5
CB
330
17
100
AcDbEntity
  8
COTA
 62
4
100
AcDbLine
 10
4174.455187350257
 20
5461.597293630609
 30
0.0
 11
4195.324587134515
 21
5461.597293630609
 31
0.0
  0
LINE
  5
CC
330
17
100
AcDbEntity
  8
COTA
 62
4
100
AcDbLine
 10
4174.455187350257
 20
5402.597293630609
 30
0.0
 11
4195.324587134515
 21
5402.597293630609
 31
0.0
  0
LINE
  5
CD
330
17
100
AcDbEntity
  8
COTA
100
AcDbLine
 10
4019.763947407367
 20
5409.097293630623
 30
0.0
 11
4022.763947407367
 21
5406.097293630623
 31
0.0
  0
LINE
  5
CE
330
17
100
AcDbEntity
  8
COTA
100
AcDbLine
 10
4022.763947407367
 20
5460.097293630616
 30
0.0
 11
4019.763947407367
 21
5463.097293630616
 31
0.0
  0
LINE
  5
CF
330
17
100
AcDbEntity
  8
COTA
 62
4
100
AcDbLine
 10
4021.263947407367
 20
5461.597293630616
 30
0.0
 11
4021.263947407367
 21
5407.597293630623
 31
0.0
  0
LINE
  5
D0
330
17
100
AcDbEntity
  8
COTA
 62
4
100
AcDbLine
 10
4002.455187350256
 20
5407.597293630623
 30
0.0
 11
4024.263947407367
 21
5407.597293630623
 31
0.0
  0
LINE
  5
D1
330
17
100
AcDbEntity
  8
COTA
 62
4
100
AcDbLine
 10
4002.455187350256
 20
5461.597293630616
 30
0.0
 11
4024.263947407367
 21
5461.597293630616
 31
0.0
  0
LINE
  5
D2
330
17
100
AcDbEntity
  8
COTA
100
AcDbLine
 10
3970.955187350255
 20
5374.557367652489
 30
0.0
 11
3973.955187350255
 21
5377.557367652489
 31
0.0
  0
LINE
  5
D3
330
17
100
AcDbEntity
  8
COTA
100
AcDbLine
 10
3801.955187350255
 20
5377.557367652489
 30
0.0
 11
3798.955187350255
 21
5374.557367652489
 31
0.0
  0
LINE
  5
D4
330
17
100
AcDbEntity
  8
COTA
 62
4
100
AcDbLine
 10
3800.455187350255
 20
5376.057367652489
 30
0.0
 11
3972.455187350255
 21
5376.057367652489
 31
0.0
  0
LINE
  5
D5
330
17
100
AcDbEntity
  8
COTA
 62
4
100
AcDbLine
 10
3972.455187350255
 20
5399.597293630632
 30
0.0
 11
3972.455187350255
 21
5373.057367652489
 31
0.0
  0
LINE
  5
D6
330
17
100
AcDbEntity
  8
COTA
 62
4
100
AcDbLine
 10
3800.455187350255
 20
5399.597293630614
 30
0.0
 11
3800.455187350255
 21
5373.057367652489
 31
0.0
  0
LINE
  5
D7
330
17
100
AcDbEntity
  8
COTA
100
AcDbLine
 10
3759.067710849701
 20
5409.097293630623
 30
0.0
 11
3762.067710849701
 21
5406.097293630623
 31
0.0
  0
LINE
  5
D8
330
17
100
AcDbEntity
  8
COTA
100
AcDbLine
 10
3762.067710849701
 20
5460.097293630616
 30
0.0
 11
3759.067710849701
 21
5463.097293630616
 31
0.0
  0
LINE
  5
D9
330
17
100
AcDbEntity
  8
COTA
 62
4
100
AcDbLine
 10
3760.567710849701
 20
5461.597293630616
 30
0.0
 11
3760.567710849701
 21
5407.597293630623
 31
0.0
  0
LINE
  5
DA
330
17
100
AcDbEntity
  8
COTA
 62
4
100
AcDbLine
 10
3770.455187350257
 20
5407.597293630623
 30
0.0
 11
3757.567710849701
 21
5407.597293630623
 31
0.0
  0
LINE
  5
DB
330
17
100
AcDbEntity
  8
COTA
 62
4
100
AcDbLine
 10
3770.455187350257
 20
5461.597293630616
 30
0.0
 11
3757.567710849701
 21
5461.597293630616
 31
0.0
  0
LINE
  5
DC
330
17
100
AcDbEntity
  8
COTA
100
AcDbLine
 10
4169.955187350258
 20
5341.018856963729
 30
0.0
 11
4172.955187350258
 21
5344.018856963729
 31
0.0
  0
LINE
  5
DD
330
17
100
AcDbEntity
  8
COTA
100
AcDbLine
 10
3602.955187350259
 20
5344.018856963729
 30
0.0
 11
3599.955187350259
 21
5341.018856963729
 31
0.0
  0
LINE
  5
DE
330
17
100
AcDbEntity
  8
COTA
 62
4
100
AcDbLine
 10
3601.455187350259
 20
5342.518856963729
 30
0.0
 11
4171.455187350258
 21
5342.518856963729
 31
0.0
  0
LINE
  5
DF
330
17
100
AcDbEntity
  8
COTA
 62
4
100
AcDbLine
 10
4171.455187350258
 20
5399.597293630632
 30
0.0
 11
4171.455187350258
 21
5339.51885696373
 31
0.0
  0
LINE
  5
E0
330
17
100
AcDbEntity
  8
COTA
 62
4
100
AcDbLine
 10
3601.455187350259
 20
5399.597293630607
 30
0.0
 11
3601.455187350259
 21
5339.51885696373
 31
0.0
  0
LINE
  5
E1
330
17
100
AcDbEntity
  8
COTA
100
AcDbLine
 10
4169.955187350258
 20
5374.557367652463
 30
0.0
 11
4172.955187350258
 21
5377.557367652463
 31
0.0
  0
LINE
  5
E2
330
17
100
AcDbEntity
  8
COTA
100
AcDbLine
 10
3973.955187350255
 20
5377.557367652463
 30
0.0
 11
3970.955187350255
 21
5374.557367652463
 31
0.0
  0
LINE
  5
E3
330
17
100
AcDbEntity
  8
COTA
 62
4
100
AcDbLine
 10
3972.455187350255
 20
5376.057367652463
 30
0.0
 11
4171.455187350258
 21
5376.057367652463
 31
0.0
  0
LINE
  5
E4
330
17
100
AcDbEntity
  8
COTA
 62
4
100
AcDbLine
 10
4171.455187350258
 20
5399.597293630632
 30
0.0
 11
4171.455187350258
 21
5373.057367652463
 31
0.0
  0
LINE
  5
E5
330
17
100
AcDbEntity
  8
COTA
 62
4
100
AcDbLine
 10
3972.455187350255
 20
5399.597293630622
 30
0.0
 11
3972.455187350255
 21
5373.057367652463
 31
0.0
  0
LINE
  5
E6
330
17
100
AcDbEntity
  8
COTA
100
AcDbLine
 10
3798.955187350255
 20
5374.557367652452
 30
0.0
 11
3801.955187350255
 21
5377.557367652452
 31
0.0
  0
LINE
  5
E7
330
17
100
AcDbEntity
  8
COTA
100
AcDbLine
 10
3602.955187350259
 20
5377.557367652452
 30
0.0
 11
3599.955187350259
 21
5374.557367652452
 31
0.0
  0
LINE
  5
E8
330
17
100
AcDbEntity
  8
COTA
 62
4
100
AcDbLine
 10
3601.455187350259
 20
5376.057367652452
 30
0.0
 11
3800.455187350255
 21
5376.057367652452
 31
0.0
  0
LINE
  5
E9
330
17
100
AcDbEntity
  8
COTA
 62
4
100
AcDbLine
 10
3800.455187350255
 20
5399.597293630637
 30
0.0
 11
3800.455187350255
 21
5373.057367652452
 31
0.0
  0
LINE
  5
EA
330
17
100
AcDbEntity
  8
COTA
 62
4
100
AcDbLine
 10
3601.455187350259
 20
5399.597293630607
 30
0.0
 11
3601.455187350259
 21
5373.057367652452
 31
0.0
  0
LINE
  5
EB
330
17
100
AcDbEntity
  8
Cota Seção (2x)
 62
180
100
AcDbLine
 10
3865.953989303145
 20
5817.670908226221
 30
0.0
 11
3865.953989303145
 21
5802.670908226221
 31
0.0
  0
LINE
  5
EC
330
17
100
AcDbEntity
  8
Cota Seção (2x)
 62
180
100
AcDbLine
 10
3883.953989303145
 20
5817.670908226221
 30
0.0
 11
3865.953989303145
 21
5817.670908226221
 31
0.0
  0
LINE
  5
ED
330
17
100
AcDbEntity
  8
Cota Seção (2x)
 62
180
100
AcDbLine
 10
3883.953989303145
 20
5802.670908226221
 30
0.0
 11
3883.953989303145
 21
5817.670908226221
 31
0.0
  0
LINE
  5
EE
330
17
100
AcDbEntity
  8
Cota Seção (2x)
 62
180
100
AcDbLine
 10
3865.953989303145
 20
5802.670908226221
 30
0.0
 11
3883.953989303145
 21
5802.670908226221
 31
0.0
  0
LINE
  5
EF
330
17
100
AcDbEntity
  8
COTA
 62
4
100
AcDbLine
 10
3855.953989303174
 20
5737.94409442403
 30
0.0
 11
3893.953989303174
 21
5737.94409442403
 31
0.0
  0
LINE
  5
F0
330
17
100
AcDbEntity
  8
COTA
 62
4
100
AcDbLine
 10
3893.953989303174
 20
5779.670908226213
 30
0.0
 11
3893.953989303174
 21
5734.94409442403
 31
0.0
  0
LINE
  5
F1
330
17
100
AcDbEntity
  8
COTA
 62
4
100
AcDbLine
 10
3855.953989303174
 20
5779.670908226213
 30
0.0
 11
3855.953989303174
 21
5734.94409442403
 31
0.0
  0
LINE
  5
F2
330
17
100
AcDbEntity
  8
COTA
 62
4
100
AcDbLine
 10
3767.296694699839
 20
5900.670908226224
 30
0.0
 11
3767.296694699839
 21
5782.670908226222
 31
0.0
  0
LINE
  5
F3
330
17
100
AcDbEntity
  8
COTA
 62
4
100
AcDbLine
 10
3819.3539893032
 20
5782.670908226222
 30
0.0
 11
3764.296694699839
 21
5782.670908226222
 31
0.0
  0
LINE
  5
F4
330
17
100
AcDbEntity
  8
COTA
 62
4
100
AcDbLine
 10
3834.953989303176
 20
5900.670908226224
 30
0.0
 11
3764.296694699839
 21
5900.670908226224
 31
0.0
  0
LINE
  5
F5
330
17
100
AcDbEntity
  8
Cota Seção (2x)
 62
180
100
AcDbLine
 10
3874.453989304833
 20
5851.004241559521
 30
0.0
 11
3889.453989304833
 21
5851.004241559521
 31
0.0
  0
LINE
  5
F6
330
17
100
AcDbEntity
  8
Cota Seção (2x)
 62
180
100
AcDbLine
 10
3874.453989304833
 20
5870.337574892855
 30
0.0
 11
3874.453989304833
 21
5851.004241559521
 31
0.0
  0
LINE
  5
F7
330
17
100
AcDbEntity
  8
Cota Seção (2x)
 62
180
100
AcDbLine
 10
3889.453989304833
 20
5870.337574892855
 30
0.0
 11
3874.453989304833
 21
5870.337574892855
 31
0.0
  0
LINE
  5
F8
330
17
100
AcDbEntity
  8
Cota Seção (2x)
 62
180
100
AcDbLine
 10
3889.453989304833
 20
5851.004241559521
 30
0.0
 11
3889.453989304833
 21
5870.337574892855
 31
0.0
  0
LINE
  5
F9
330
17
100
AcDbEntity
  8
COTA
 62
4
100
AcDbLine
 10
3970.825722061557
 20
5782.670908226222
 30
0.0
 11
3970.825722061557
 21
5900.670908226224
 31
0.0
  0
LINE
  5
FA
330
17
100
AcDbEntity
  8
COTA
 62
4
100
AcDbLine
 10
3914.953989303187
 20
5900.670908226224
 30
0.0
 11
3973.825722061557
 21
5900.670908226224
 31
0.0
  0
LINE
  5
FB
330
17
100
AcDbEntity
  8
COTA
 62
4
100
AcDbLine
 10
3930.553989303182
 20
5782.670908226222
 30
0.0
 11
3973.825722061557
 21
5782.670908226222
 31
0.0
  0
LINE
  5
FC
330
17
100
AcDbEntity
  8
COTA
100
AcDbLine
 10
4056.768489641441
 20
5600.283259144452
 30
0.0
 11
4059.768489641441
 21
5597.283259144452
 31
0.0
  0
LINE
  5
FD
330
17
100
AcDbEntity
  8
COTA
100
AcDbLine
 10
4059.768489641441
 20
5656.283259144455
 30
0.0
 11
4056.768489641441
 21
5659.283259144455
 31
0.0
  0
LINE
  5
FE
330
17
100
AcDbEntity
  8
COTA
 62
4
100
AcDbLine
 10
4058.268489641441
 20
5657.783259144455
 30
0.0
 11
4058.268489641441
 21
5598.783259144452
 31
0.0
  0
LINE
  5
FF
330
17
100
AcDbEntity
  8
COTA
 62
4
100
AcDbLine
 10
4034.3269982454
 20
5598.783259144452
 30
0.0
 11
4061.268489641441
 21
5598.783259144452
 31
0.0
  0
LINE
  5
100
330
17
100
AcDbEntity
  8
COTA
 62
4
100
AcDbLine
 10
4034.326998245389
 20
5657.783259144455
 30
0.0
 11
4061.268489641441
 21
5657.783259144455
 31
0.0
  0
LINE
  5
101
330
17
100
AcDbEntity
  8
COTA
100
AcDbLine
 10
4029.826998245399
 20
5536.503216531121
 30
0.0
 11
4032.826998245399
 21
5539.503216531121
 31
0.0
  0
LINE
  5
102
330
17
100
AcDbEntity
  8
COTA
100
AcDbLine
 10
3604.826998245399
 20
5539.503216531121
 30
0.0
 11
3601.826998245399
 21
5536.503216531121
 31
0.0
  0
LINE
  5
103
330
17
100
AcDbEntity
  8
COTA
 62
4
100
AcDbLine
 10
3603.326998245399
 20
5538.003216531121
 30
0.0
 11
4031.326998245399
 21
5538.003216531121
 31
0.0
  0
LINE
  5
104
330
17
100
AcDbEntity
  8
COTA
 62
4
100
AcDbLine
 10
4031.326998245399
 20
5595.783259144454
 30
0.0
 11
4031.326998245399
 21
5535.003216531121
 31
0.0
  0
LINE
  5
105
330
17
100
AcDbEntity
  8
COTA
 62
4
100
AcDbLine
 10
3603.326998245399
 20
5595.78325914443
 30
0.0
 11
3603.326998245399
 21
5535.003216531121
 31
0.0
  0
LINE
  5
106
330
17
100
AcDbEntity
  8
COTA
100
AcDbLine
 10
4029.826998245399
 20
5570.041727219855
 30
0.0
 11
4032.826998245399
 21
5573.041727219855
 31
0.0
  0
LINE
  5
107
330
17
100
AcDbEntity
  8
COTA
100
AcDbLine
 10
3848.826998245399
 20
5573.041727219855
 30
0.0
 11
3845.826998245399
 21
5570.041727219855
 31
0.0
  0
LINE
  5
108
330
17
100
AcDbEntity
  8
COTA
 62
4
100
AcDbLine
 10
3847.326998245399
 20
5571.541727219855
 30
0.0
 11
4031.326998245399
 21
5571.541727219855
 31
0.0
  0
LINE
  5
109
330
17
100
AcDbEntity
  8
COTA
 62
4
100
AcDbLine
 10
4031.326998245399
 20
5595.78325914445
 30
0.0
 11
4031.326998245399
 21
5568.541727219855
 31
0.0
  0
LINE
  5
10A
330
17
100
AcDbEntity
  8
COTA
 62
4
100
AcDbLine
 10
3847.326998245399
 20
5595.783259144464
 30
0.0
 11
3847.326998245399
 21
5568.541727219855
 31
0.0
  0
LINE
  5
10B
330
17
100
AcDbEntity
  8
COTA
100
AcDbLine
 10
3845.826998245399
 20
5570.041727219844
 30
0.0
 11
3848.826998245399
 21
5573.041727219844
 31
0.0
  0
LINE
  5
10C
330
17
100
AcDbEntity
  8
COTA
100
AcDbLine
 10
3604.826998245399
 20
5573.041727219844
 30
0.0
 11
3601.826998245399
 21
5570.041727219844
 31
0.0
  0
LINE
  5
10D
330
17
100
AcDbEntity
  8
COTA
 62
4
100
AcDbLine
 10
3603.326998245399
 20
5571.541727219844
 30
0.0
 11
3847.326998245399
 21
5571.541727219844
 31
0.0
  0
LINE
  5
10E
330
17
100
AcDbEntity
  8
COTA
 62
4
100
AcDbLine
 10
3847.326998245399
 20
5595.78325914444
 30
0.0
 11
3847.326998245399
 21
5568.541727219844
 31
0.0
  0
LINE
  5
10F
330
17
100
AcDbEntity
  8
COTA
 62
4
100
AcDbLine
 10
3603.326998245399
 20
5595.78325914443
 30
0.0
 11
3603.326998245399
 21
5568.541727219844
 31
0.0
  0
LINE
  5
110
330
17
100
AcDbEntity
  8
COTA
 62
241
100
AcDbLine
 10
3603.326998245377
 20
5657.783259144424
 30
0.0
 11
3626.326998245373
 21
5657.783259144424
 31
0.0
  0
LINE
  5
111
330
17
100
AcDbEntity
  8
COTA
 62
241
100
AcDbLine
 10
3603.326998245395
 20
5603.783259144423
 30
0.0
 11
3603.326998245377
 21
5657.783259144424
 31
0.0
  0
LINE
  5
112
330
17
100
AcDbEntity
  8
SARR_EDITAR
 62
141
100
AcDbLine
 10
3626.326998245377
 20
5601.283259144431
 30
0.0
 11
3603.326998245395
 21
5601.283259144431
 31
0.0
  0
LINE
  5
113
330
17
100
AcDbEntity
  8
SARR_EDITAR
 62
141
100
AcDbLine
 10
3626.326998245377
 20
5603.783259144424
 30
0.0
 11
3626.326998245373
 21
5598.783259144437
 31
0.0
  0
LINE
  5
114
330
17
100
AcDbEntity
  8
Painéis
 62
200
100
AcDbLine
 10
3626.326998245377
 20
5603.783259144424
 30
0.0
 11
3603.326998245395
 21
5603.783259144423
 31
0.0
  0
LINE
  5
115
330
17
100
AcDbEntity
  8
Painéis
 62
200
100
AcDbLine
 10
3626.326998245377
 20
5657.783259144424
 30
0.0
 11
3626.326998245377
 21
5603.783259144424
 31
0.0
  0
LINE
  5
116
330
17
100
AcDbEntity
  8
SARR_2.2x7
 62
40
100
AcDbLine
 10
3633.326998245366
 20
5598.783259144436
 30
0.0
 11
3633.326998245362
 21
5657.783259144427
 31
0.0
  0
LINE
  5
117
330
17
100
AcDbEntity
  8
SARR_2.2x7
 62
40
100
AcDbLine
 10
3633.326998245362
 20
5631.783259144192
 30
0.0
 11
3847.326998245399
 21
5631.783259144033
 31
0.0
  0
LINE
  5
118
330
17
100
AcDbEntity
  8
SARR_2.2x7
 62
40
100
AcDbLine
 10
3633.326998245362
 20
5624.783259144495
 30
0.0
 11
3847.326998245377
 21
5624.783259144336
 31
0.0
  0
LINE
  5
119
330
17
100
AcDbEntity
  8
SARR_2.2x7
 62
40
100
AcDbLine
 10
3847.326998245399
 20
5605.783259144446
 30
0.0
 11
3633.326998245366
 21
5605.78325914443
 31
0.0
  0
LINE
  5
11A
330
17
100
AcDbEntity
  8
SARR_2.2x7
 62
40
100
AcDbLine
 10
3847.326998245399
 20
5650.783259144442
 30
0.0
 11
3633.326998245362
 21
5650.783259144458
 31
0.0
  0
LINE
  5
11B
330
17
100
AcDbEntity
  8
SARR_2.2x7
 62
40
100
AcDbLine
 10
3847.326998245399
 20
5631.783259144206
 30
0.0
 11
4024.326998245398
 21
5631.783259144041
 31
0.0
  0
LINE
  5
11C
330
17
100
AcDbEntity
  8
SARR_2.2x7
 62
40
100
AcDbLine
 10
3847.326998245399
 20
5624.783259144509
 30
0.0
 11
4024.326998245377
 21
5624.783259144344
 31
0.0
  0
LINE
  5
11D
330
17
100
AcDbEntity
  8
SARR_2.2x7
 62
40
100
AcDbLine
 10
4024.326998245398
 20
5605.783259144454
 30
0.0
 11
3847.326998245399
 21
5605.783259144439
 31
0.0
  0
LINE
  5
11E
330
17
100
AcDbEntity
  8
SARR_2.2x7
 62
40
100
AcDbLine
 10
4024.326998245398
 20
5650.78325914445
 30
0.0
 11
3847.326998245399
 21
5650.783259144464
 31
0.0
  0
LINE
  5
11F
330
17
100
AcDbEntity
  8
SARR_2.2x7
 62
40
100
AcDbLine
 10
4006.455187350262
 20
5409.597293630598
 30
0.0
 11
4006.455187350255
 21
5461.597293630607
 31
0.0
  0
LINE
  5
120
330
17
100
AcDbEntity
  8
SARR_2.2x7
 62
40
100
AcDbLine
 10
3807.455187350259
 20
5402.597293630618
 30
0.0
 11
3807.455187350255
 21
5461.597293630617
 31
0.0
  0
LINE
  5
121
330
17
100
AcDbEntity
  8
SARR_2.2x7
 62
40
100
AcDbLine
 10
3965.455187350255
 20
5402.597293630596
 30
0.0
 11
3965.455187350259
 21
5461.597293630596
 31
0.0
  0
LINE
  5
122
330
17
100
AcDbEntity
  8
SARR_2.2x7
 62
40
100
AcDbLine
 10
3766.455187350252
 20
5412.097293630615
 30
0.0
 11
3766.455187350255
 21
5461.597293630607
 31
0.0
  0
LINE
  5
123
330
17
100
AcDbEntity
  8
SARR_2.2x7
 62
40
100
AcDbLine
 10
3608.455187350255
 20
5438.097293630338
 30
0.0
 11
3766.455187350252
 21
5438.097293630208
 31
0.0
  0
LINE
  5
124
330
17
100
AcDbEntity
  8
SARR_2.2x7
 62
40
100
AcDbLine
 10
3608.455187350255
 20
5431.097293630642
 30
0.0
 11
3766.455187350252
 21
5431.097293630511
 31
0.0
  0
LINE
  5
125
330
17
100
AcDbEntity
  8
SARR_2.2x7
 62
40
100
AcDbLine
 10
3773.455187350255
 20
5412.097293630615
 30
0.0
 11
3608.455187350259
 21
5412.097293630603
 31
0.0
  0
LINE
  5
126
330
17
100
AcDbEntity
  8
SARR_2.2x7
 62
40
100
AcDbLine
 10
3766.455187350255
 20
5457.097293630613
 30
0.0
 11
3608.455187350255
 21
5457.097293630625
 31
0.0
  0
LINE
  5
127
330
17
100
AcDbEntity
  8
SARR_2.2x7
 62
40
100
AcDbLine
 10
3807.455187350255
 20
5435.597293630345
 30
0.0
 11
3965.455187350255
 21
5435.597293630218
 31
0.0
  0
LINE
  5
128
330
17
100
AcDbEntity
  8
SARR_2.2x7
 62
40
100
AcDbLine
 10
3807.455187350255
 20
5428.597293630647
 30
0.0
 11
3965.455187350255
 21
5428.597293630518
 31
0.0
  0
LINE
  5
129
330
17
100
AcDbEntity
  8
SARR_2.2x7
 62
40
100
AcDbLine
 10
3965.455187350255
 20
5409.597293630623
 30
0.0
 11
3807.455187350259
 21
5409.597293630611
 31
0.0
  0
LINE
  5
12A
330
17
100
AcDbEntity
  8
SARR_2.2x7
 62
40
100
AcDbLine
 10
3965.455187350259
 20
5454.597293630619
 30
0.0
 11
3807.455187350255
 21
5454.597293630633
 31
0.0
  0
LINE
  5
12B
330
17
100
AcDbEntity
  8
SARR_2.2x7
 62
40
100
AcDbLine
 10
4006.455187350258
 20
5435.597293630326
 30
0.0
 11
4164.455187350255
 21
5435.597293630196
 31
0.0
  0
LINE
  5
12C
330
17
100
AcDbEntity
  8
SARR_2.2x7
 62
40
100
AcDbLine
 10
4006.455187350258
 20
5428.597293630629
 30
0.0
 11
4164.455187350233
 21
5428.597293630498
 31
0.0
  0
LINE
  5
12D
330
17
100
AcDbEntity
  8
SARR_2.2x7
 62
40
100
AcDbLine
 10
4164.455187350255
 20
5409.597293630609
 30
0.0
 11
3999.455187350255
 21
5409.597293630596
 31
0.0
  0
LINE
  5
12E
330
17
100
AcDbEntity
  8
SARR_2.2x7
 62
40
100
AcDbLine
 10
4164.455187350255
 20
5454.597293630605
 30
0.0
 11
4006.455187350255
 21
5454.597293630618
 31
0.0
  0
LINE
  5
12F
330
17
100
AcDbEntity
  8
Painéis
 62
200
100
AcDbLine
 10
3800.455187350255
 20
5461.597293630614
 30
0.0
 11
3972.455187350263
 21
5461.597293630607
 31
0.0
  0
LINE
  5
130
330
17
100
AcDbEntity
  8
COTA
 62
241
100
AcDbLine
 10
3999.455187350255
 20
5461.597293630614
 30
0.0
 11
3972.455187350263
 21
5461.597293630621
 31
0.0
  0
LINE
  5
131
330
17
100
AcDbEntity
  8
Painéis
 62
200
100
AcDbLine
 10
3999.455187350255
 20
5407.597293630614
 30
0.0
 11
3999.455187350255
 21
5461.597293630614
 31
0.0
  0
LINE
  5
132
330
17
100
AcDbEntity
  8
Painéis
 62
200
100
AcDbLine
 10
3972.455187350255
 20
5407.597293630614
 30
0.0
 11
3999.455187350255
 21
5407.597293630614
 31
0.0
  0
LINE
  5
133
330
17
100
AcDbEntity
  8
Painéis
 62
200
100
AcDbLine
 10
4171.455187350255
 20
5402.597293630607
 30
0.0
 11
4171.455187350255
 21
5461.597293630607
 31
0.0
  0
LINE
  5
134
330
17
100
AcDbEntity
  8
Painéis
 62
200
100
AcDbLine
 10
3972.455187350255
 20
5402.597293630622
 30
0.0
 11
3972.455187350263
 21
5461.597293630621
 31
0.0
  0
LINE
  5
135
330
17
100
AcDbEntity
  8
Painéis
 62
200
100
AcDbLine
 10
4171.455187350258
 20
5461.597293630607
 30
0.0
 11
3999.455187350255
 21
5461.597293630614
 31
0.0
  0
LINE
  5
136
330
17
100
AcDbEntity
  8
SARR_2.2x7
 62
40
100
AcDbLine
 10
4164.455187350255
 20
5402.597293630607
 30
0.0
 11
4164.455187350255
 21
5461.597293630607
 31
0.0
  0
LINE
  5
137
330
17
100
AcDbEntity
  8
COTA
 62
241
100
AcDbLine
 10
3773.455187350255
 20
5461.597293630614
 30
0.0
 11
3800.455187350255
 21
5461.597293630621
 31
0.0
  0
LINE
  5
138
330
17
100
AcDbEntity
  8
Painéis
 62
200
100
AcDbLine
 10
3773.455187350255
 20
5407.597293630614
 30
0.0
 11
3773.455187350255
 21
5461.597293630614
 31
0.0
  0
LINE
  5
139
330
17
100
AcDbEntity
  8
Painéis
 62
200
100
AcDbLine
 10
3800.455187350255
 20
5407.597293630614
 30
0.0
 11
3773.455187350255
 21
5407.597293630614
 31
0.0
  0
LINE
  5
13A
330
17
100
AcDbEntity
  8
Painéis
 62
200
100
AcDbLine
 10
3601.455187350259
 20
5402.597293630607
 30
0.0
 11
3601.455187350256
 21
5461.597293630607
 31
0.0
  0
LINE
  5
13B
330
17
100
AcDbEntity
  8
Painéis
 62
200
100
AcDbLine
 10
3800.455187350255
 20
5402.597293630622
 30
0.0
 11
3800.455187350255
 21
5461.597293630621
 31
0.0
  0
LINE
  5
13C
330
17
100
AcDbEntity
  8
Painéis
 62
200
100
AcDbLine
 10
3601.455187350259
 20
5402.597293630607
 30
0.0
 11
4171.455187350258
 21
5402.597293630632
 31
0.0
  0
LINE
  5
13D
330
17
100
AcDbEntity
  8
Painéis
 62
200
100
AcDbLine
 10
3601.455187350256
 20
5461.597293630607
 30
0.0
 11
3773.455187350255
 21
5461.597293630614
 31
0.0
  0
LINE
  5
13E
330
17
100
AcDbEntity
  8
SARR_2.2x7
 62
40
100
AcDbLine
 10
3608.455187350259
 20
5402.597293630607
 30
0.0
 11
3608.455187350255
 21
5461.597293630607
 31
0.0
  0
LINE
  5
13F
330
17
100
AcDbEntity
  8
SARR_2.2x7
 62
40
100
AcDbLine
 10
4024.326998245398
 20
5598.78325914445
 30
0.0
 11
4024.326998245398
 21
5657.783259144453
 31
0.0
  0
LINE
  5
140
330
17
100
AcDbEntity
  8
Painéis
 62
200
100
AcDbLine
 10
4031.326998245399
 20
5598.78325914445
 30
0.0
 11
4031.326998245387
 21
5657.783259144453
 31
0.0
  0
LINE
  5
141
330
17
100
AcDbEntity
  8
Painéis
 62
200
100
AcDbLine
 10
3847.326998245399
 20
5598.78325914445
 30
0.0
 11
3847.326998245399
 21
5657.783259144438
 31
0.0
  0
LINE
  5
142
330
17
100
AcDbEntity
  8
Painéis
 62
200
100
AcDbLine
 10
3603.326998245399
 20
5598.783259144436
 30
0.0
 11
3603.326998245395
 21
5603.783259144423
 31
0.0
  0
LINE
  5
143
330
17
100
AcDbEntity
  8
Painéis
 62
200
100
AcDbLine
 10
3603.326998245399
 20
5598.783259144436
 30
0.0
 11
4031.326998245399
 21
5598.783259144454
 31
0.0
  0
LINE
  5
144
330
17
100
AcDbEntity
  8
Painéis
 62
200
100
AcDbLine
 10
3626.326998245373
 20
5657.783259144424
 30
0.0
 11
4031.326998245399
 21
5657.783259144453
 31
0.0
  0
TEXT
  5
145
330
17
100
AcDbEntity
  8
Painéis
 62
240
100
AcDbText
 10
3601.466980611881
 20
5586.735013530401
 30
0.0
 40
10.0
  1
5
100
AcDbText
  0
TEXT
  5
146
330
17
100
AcDbEntity
  8
Painéis
 62
240
100
AcDbText
 10
3614.826998245377
 20
5692.334190271911
 30
0.0
 40
10.0
  1
23
100
AcDbText
  0
TEXT
  5
147
330
17
100
AcDbEntity
  8
COTA
 62
240
100
AcDbText
 10
3985.955187350259
 20
5479.194702737319
 30
0.0
 40
10.0
  1
27
100
AcDbText
  0
TEXT
  5
148
330
17
100
AcDbEntity
  8
COTA
 62
240
100
AcDbText
 10
3786.955187350255
 20
5482.078204760599
 30
0.0
 40
10.0
  1
27
100
AcDbText
  0
TEXT
  5
149
330
17
100
AcDbEntity
  8
COTA
 62
240
100
AcDbText
 10
4204.185698245626
 20
5432.097293630607
 30
0.0
 40
10.0
  1
59
100
AcDbText
  0
TEXT
  5
14A
330
17
100
AcDbEntity
  8
COTA
 62
240
100
AcDbText
 10
4033.15429828456
 20
5434.597293630618
 30
0.0
 40
10.0
  1
54
100
AcDbText
  0
TEXT
  5
14B
330
17
100
AcDbEntity
  8
COTA
 62
240
100
AcDbText
 10
3886.455187350255
 20
5384.130467067692
 30
0.0
 40
10.0
  1
172
100
AcDbText
  0
TEXT
  5
14C
330
17
100
AcDbEntity
  8
COTA
 62
240
100
AcDbText
 10
3772.458061726895
 20
5434.597293630618
 30
0.0
 40
10.0
  1
54
100
AcDbText
  0
TEXT
  5
14D
330
17
100
AcDbEntity
  8
COTA
 62
240
100
AcDbText
 10
3886.455187350259
 20
5350.628506086536
 30
0.0
 40
10.0
  1
570
100
AcDbText
  0
TEXT
  5
14E
330
17
100
AcDbEntity
  8
COTA
 62
240
100
AcDbText
 10
4071.955187350257
 20
5384.145086950708
 30
0.0
 40
10.0
  1
199
100
AcDbText
  0
TEXT
  5
14F
330
17
100
AcDbEntity
  8
COTA
 62
240
100
AcDbText
 10
3700.955187350257
 20
5384.145086950697
 30
0.0
 40
10.0
  1
199
100
AcDbText
  0
TEXT
  5
150
330
17
100
AcDbEntity
  8
Cota Seção (2x)
 62
1
100
AcDbText
 10
3874.953989303146
 20
5810.17090822622
 30
0.0
 40
7.0
  1
19
100
AcDbText
  0
TEXT
  5
151
330
17
100
AcDbEntity
  8
COTA
 62
1
100
AcDbText
 10
3874.953989303175
 20
5743.444094424031
 30
0.0
 40
7.0
  1
19
100
AcDbText
  0
TEXT
  5
152
330
17
100
AcDbEntity
  8
COTA
 62
1
100
AcDbText
 10
3775.796694699841
 20
5841.670908226221
 30
0.0
 40
7.0
  1
59
100
AcDbText
  0
TEXT
  5
153
330
17
100
AcDbEntity
  8
Cota Seção (2x)
 62
1
100
AcDbText
 10
3895.953989304833
 20
5860.670908226186
 30
0.0
 40
7.0
  1
55
100
AcDbText
  0
TEXT
  5
154
330
17
100
AcDbEntity
  8
COTA
 62
1
100
AcDbText
 10
3979.325722061558
 20
5841.670908226221
 30
0.0
 40
7.0
  1
59
100
AcDbText
  0
TEXT
  5
155
330
17
100
AcDbEntity
  8
COTA
 62
240
100
AcDbText
 10
4070.129600752553
 20
5628.283259144451
 30
0.0
 40
10.0
  1
59
100
AcDbText
  0
TEXT
  5
156
330
17
100
AcDbEntity
  8
COTA
 62
240
100
AcDbText
 10
3817.326998245399
 20
5546.098245770888
 30
0.0
 40
10.0
  1
428
100
AcDbText
  0
TEXT
  5
157
330
17
100
AcDbEntity
  8
COTA
 62
240
100
AcDbText
 10
3939.326998245399
 20
5579.63675645962
 30
0.0
 40
10.0
  1
184
100
AcDbText
  0
TEXT
  5
158
330
17
100
AcDbEntity
  8
COTA
 62
240
100
AcDbText
 10
3725.326998245399
 20
5579.614826635048
 30
0.0
 40
10.0
  1
244
100
AcDbText
  0
TEXT
  5
159
330
17
100
AcDbEntity
  8
Texto Seção
 62
7
100
AcDbText
 10
3597.082025275011
 20
5464.829164872547
 30
0.0
 40
13.0
  1
V305.B
100
AcDbText
  0
TEXT
  5
15A
330
17
100
AcDbEntity
  8
5
 62
5
100
AcDbText
 10
3600.099779065144
 20
5320.610717397548
 30
0.0
 40
12.0
  1
P27
100
AcDbText
  0
TEXT
  5
15B
330
17
100
AcDbEntity
  8
5
 62
5
100
AcDbText
 10
4138.266931955416
 20
5322.658272262096
 30
0.0
 40
12.0
  1
P26
100
AcDbText
  0
TEXT
  5
15C
330
17
100
AcDbEntity
  8
detalhes
 62
4
100
AcDbText
 10
3866.554254918619
 20
5792.906661746059
 30
0.0
 40
9.600000000000001
  1
c
100
AcDbText
  0
TEXT
  5
15D
330
17
100
AcDbEntity
  8
detalhes
 62
4
100
AcDbText
 10
3840.124813833476
 20
5834.342318624922
 30
0.0
 40
9.600000000000001
  1
a
100
AcDbText
  0
TEXT
  5
15E
330
17
100
AcDbEntity
  8
detalhes
 62
4
100
AcDbText
 10
3902.668472479212
 20
5834.331261179347
 30
0.0
 40
9.600000000000001
  1
b
100
AcDbText
  0
TEXT
  5
15F
330
17
100
AcDbEntity
  8
5
 62
5
100
AcDbText
 10
3995.840562121104
 20
5520.077154765201
 30
0.0
 40
12.0
  1
P27
100
AcDbText
  0
TEXT
  5
160
330
17
100
AcDbEntity
  8
5
 62
5
100
AcDbText
 10
3605.399752337637
 20
5515.358858933218
 30
0.0
 40
12.0
  1
P26
100
AcDbText
  0
TEXT
  5
161
330
17
100
AcDbEntity
  8
Texto Seção
 62
7
100
AcDbText
 10
3637.487863711756
 20
5665.134849704863
 30
0.0
 40
13.0
  1
V305.A
100
AcDbText
  0
ENDSEC
  0
SECTION
  2
OBJECTS
  0
DICTIONARY
  5
A
330
0
100
AcDbDictionary
281
1
  3
ACAD_COLOR
350
B
  3
ACAD_GROUP
350
C
  3
ACAD_LAYOUT
350
D
  3
ACAD_MATERIAL
350
E
  3
ACAD_MLEADERSTYLE
350
F
  3
ACAD_MLINESTYLE
350
10
  3
ACAD_PLOTSETTINGS
350
11
  3
ACAD_PLOTSTYLENAME
350
12
  3
ACAD_SCALELIST
350
14
  3
ACAD_TABLESTYLE
350
15
  3
ACAD_VISUALSTYLE
350
16
  3
EZDXF_META
350
2D
  0
DICTIONARY
  5
B
330
A
100
AcDbDictionary
281
1
  0
DICTIONARY
  5
C
330
A
100
AcDbDictionary
281
1
  0
DICTIONARY
  5
D
330
A
100
AcDbDictionary
281
1
  3
Model
350
1A
  3
Layout1
350
1E
  0
DICTIONARY
  5
E
330
A
100
AcDbDictionary
281
1
  3
ByBlock
350
1F
  3
ByLayer
350
20
  3
Global
350
21
  0
DICTIONARY
  5
F
330
A
100
AcDbDictionary
281
1
  3
Standard
350
2C
  0
DICTIONARY
  5
10
330
A
100
AcDbDictionary
281
1
  3
Standard
350
22
  0
DICTIONARY
  5
11
330
A
100
AcDbDictionary
281
1
  0
ACDBDICTIONARYWDFLT
  5
12
330
A
100
AcDbDictionary
281
1
  3
Normal
350
13
100
AcDbDictionaryWithDefault
340
13
  0
ACDBPLACEHOLDER
  5
13
330
12
  0
DICTIONARY
  5
14
330
A
100
AcDbDictionary
281
1
  0
DICTIONARY
  5
15
330
A
100
AcDbDictionary
281
1
  0
DICTIONARY
  5
16
330
A
100
AcDbDictionary
281
1
  0
LAYOUT
  5
1A
330
D
100
AcDbPlotSettings
  1

  4
A3
  6

 40
7.5
 41
20.0
 42
7.5
 43
20.0
 44
420.0
 45
297.0
 46
0.0
 47
0.0
 48
0.0
 49
0.0
140
0.0
141
0.0
142
1.0
143
1.0
 70
1024
 72
1
 73
0
 74
5
  7

 75
16
 76
0
 77
2
 78
300
147
1.0
148
0.0
149
0.0
100
AcDbLayout
  1
Model
 70
1
 71
0
 10
0.0
 20
0.0
 11
420.0
 21
297.0
 12
0.0
 22
0.0
 32
0.0
 14
1e+20
 24
1e+20
 34
1e+20
 15
-1e+20
 25
-1e+20
 35
-1e+20
146
0.0
 13
0.0
 23
0.0
 33
0.0
 16
1.0
 26
0.0
 36
0.0
 17
0.0
 27
1.0
 37
0.0
 76
1
330
17
  0
LAYOUT
  5
1E
330
D
100
AcDbPlotSettings
  1

  4
A3
  6

 40
7.5
 41
20.0
 42
7.5
 43
20.0
 44
420.0
 45
297.0
 46
0.0
 47
0.0
 48
0.0
 49
0.0
140
0.0
141
0.0
142
1.0
143
1.0
 70
0
 72
1
 73
0
 74
5
  7

 75
16
 76
0
 77
2
 78
300
147
1.0
148
0.0
149
0.0
100
AcDbLayout
  1
Layout1
 70
1
 71
1
 10
0.0
 20
0.0
 11
420.0
 21
297.0
 12
0.0
 22
0.0
 32
0.0
 14
1e+20
 24
1e+20
 34
1e+20
 15
-1e+20
 25
-1e+20
 35
-1e+20
146
0.0
 13
0.0
 23
0.0
 33
0.0
 16
1.0
 26
0.0
 36
0.0
 17
0.0
 27
1.0
 37
0.0
 76
1
330
1B
  0
MATERIAL
  5
1F
102
{ACAD_REACTORS
330
E
102
}
330
E
100
AcDbMaterial
  1
ByBlock
  2

 70
0
 40
1.0
 71
1
 41
1.0
 91
-1023410177
 42
1.0
 72
1
  3

 73
1
 74
1
 75
1
 44
0.5
 73
0
 45
1.0
 46
1.0
 77
1
  4

 78
1
 79
1
170
1
 48
1.0
171
1
  6

172
1
173
1
174
1
140
1.0
141
1.0
175
1
  7

176
1
177
1
178
1
143
1.0
179
1
  8

270
1
271
1
272
1
145
1.0
146
1.0
273
1
  9

274
1
275
1
276
1
 42
1.0
 72
1
  3

 73
1
 74
1
 75
1
 94
63
  0
MATERIAL
  5
20
102
{ACAD_REACTORS
330
E
102
}
330
E
100
AcDbMaterial
  1
ByLayer
  2

 70
0
 40
1.0
 71
1
 41
1.0
 91
-1023410177
 42
1.0
 72
1
  3

 73
1
 74
1
 75
1
 44
0.5
 73
0
 45
1.0
 46
1.0
 77
1
  4

 78
1
 79
1
170
1
 48
1.0
171
1
  6

172
1
173
1
174
1
140
1.0
141
1.0
175
1
  7

176
1
177
1
178
1
143
1.0
179
1
  8

270
1
271
1
272
1
145
1.0
146
1.0
273
1
  9

274
1
275
1
276
1
 42
1.0
 72
1
  3

 73
1
 74
1
 75
1
 94
63
  0
MATERIAL
  5
21
102
{ACAD_REACTORS
330
E
102
}
330
E
100
AcDbMaterial
  1
Global
  2

 70
0
 40
1.0
 71
1
 41
1.0
 91
-1023410177
 42
1.0
 72
1
  3

 73
1
 74
1
 75
1
 44
0.5
 73
0
 45
1.0
 46
1.0
 77
1
  4

 78
1
 79
1
170
1
 48
1.0
171
1
  6

172
1
173
1
174
1
140
1.0
141
1.0
175
1
  7

176
1
177
1
178
1
143
1.0
179
1
  8

270
1
271
1
272
1
145
1.0
146
1.0
273
1
  9

274
1
275
1
276
1
 42
1.0
 72
1
  3

 73
1
 74
1
 75
1
 94
63
  0
MLINESTYLE
  5
22
102
{ACAD_REACTORS
330
10
102
}
330
10
100
AcDbMlineStyle
  2
Standard
 70
0
  3

 62
256
 51
90.0
 52
90.0
 71
2
 49
0.5
 62
256
  6
BYLAYER
 49
-0.5
 62
256
  6
BYLAYER
  0
MLEADERSTYLE
  5
2C
102
{ACAD_REACTORS
330
F
102
}
330
F
100
AcDbMLeaderStyle
179
2
170
2
171
1
172
0
 90
2
 40
0.0
 41
0.0
173
1
 91
-1056964608
 92
-2
290
1
 42
2.0
291
1
 43
8.0
  3
Standard
 44
4.0
300

342
29
174
1
175
1
176
0
178
1
 93
-1056964608
 45
4.0
292
0
297
0
 46
4.0
 94
-1056964608
 47
1.0
 49
1.0
140
1.0
294
1
141
0.0
177
0
142
1.0
295
0
296
0
143
3.75
271
0
272
9
273
9
  0
DICTIONARY
  5
2D
330
A
100
AcDbDictionary
280
1
281
1
  3
CREATED_BY_EZDXF
350
2E
  3
WRITTEN_BY_EZDXF
350
164
  0
DICTIONARYVAR
  5
2E
330
2D
100
DictionaryVariables
280
0
  1
1.4.3 @ 2026-06-12T00:44:15.777071+00:00
  0
DICTIONARYVAR
  5
164
330
2D
100
DictionaryVariables
280
0
  1
1.4.3 @ 2026-06-12T00:44:15.788243+00:00
  0
ENDSEC
  0
EOF
