  0
SECTION
  2
HEADER
  9
$ACADVER
  1
AC1024
  9
$ACADMAINTVER
 70
6
  9
$DWGCODEPAGE
  3
ANSI_1252
  9
$LASTSAVEDBY
  1
ezdxf
  9
$INSBASE
 10
0.0
 20
0.0
 30
0.0
  9
$EXTMIN
 10
1e+20
 20
1e+20
 30
1e+20
  9
$EXTMAX
 10
-1e+20
 20
-1e+20
 30
-1e+20
  9
$LIMMIN
 10
0.0
 20
0.0
  9
$LIMMAX
 10
420.0
 20
297.0
  9
$ORTHOMODE
 70
0
  9
$REGENMODE
 70
1
  9
$FILLMODE
 70
1
  9
$QTEXTMODE
 70
0
  9
$MIRRTEXT
 70
1
  9
$LTSCALE
 40
1.0
  9
$ATTMODE
 70
1
  9
$TEXTSIZE
 40
2.5
  9
$TRACEWID
 40
1.0
  9
$TEXTSTYLE
  7
Standard
  9
$CLAYER
  8
0
  9
$CELTYPE
  6
ByLayer
  9
$CECOLOR
 62
256
  9
$CELTSCALE
 40
1.0
  9
$DISPSILH
 70
0
  9
$DIMSCALE
 40
1.0
  9
$DIMASZ
 40
2.5
  9
$DIMEXO
 40
0.625
  9
$DIMDLI
 40
3.75
  9
$DIMRND
 40
0.0
  9
$DIMDLE
 40
0.0
  9
$DIMEXE
 40
1.25
  9
$DIMTP
 40
0.0
  9
$DIMTM
 40
0.0
  9
$DIMTXT
 40
2.5
  9
$DIMCEN
 40
2.5
  9
$DIMTSZ
 40
0.0
  9
$DIMTOL
 70
0
  9
$DIMLIM
 70
0
  9
$DIMTIH
 70
0
  9
$DIMTOH
 70
0
  9
$DIMSE1
 70
0
  9
$DIMSE2
 70
0
  9
$DIMTAD
 70
1
  9
$DIMZIN
 70
8
  9
$DIMBLK
  1

  9
$DIMASO
 70
1
  9
$DIMSHO
 70
1
  9
$DIMPOST
  1

  9
$DIMAPOST
  1

  9
$DIMALT
 70
0
  9
$DIMALTD
 70
3
  9
$DIMALTF
 40
0.03937007874
  9
$DIMLFAC
 40
1.0
  9
$DIMTOFL
 70
1
  9
$DIMTVP
 40
0.0
  9
$DIMTIX
 70
0
  9
$DIMSOXD
 70
0
  9
$DIMSAH
 70
0
  9
$DIMBLK1
  1

  9
$DIMBLK2
  1

  9
$DIMSTYLE
  2
ISO-25
  9
$DIMCLRD
 70
0
  9
$DIMCLRE
 70
0
  9
$DIMCLRT
 70
0
  9
$DIMTFAC
 40
1.0
  9
$DIMGAP
 40
0.625
  9
$DIMJUST
 70
0
  9
$DIMSD1
 70
0
  9
$DIMSD2
 70
0
  9
$DIMTOLJ
 70
0
  9
$DIMTZIN
 70
8
  9
$DIMALTZ
 70
0
  9
$DIMALTTZ
 70
0
  9
$DIMUPT
 70
0
  9
$DIMDEC
 70
2
  9
$DIMTDEC
 70
2
  9
$DIMALTU
 70
2
  9
$DIMALTTD
 70
3
  9
$DIMTXSTY
  7
Standard
  9
$DIMAUNIT
 70
0
  9
$DIMADEC
 70
0
  9
$DIMALTRND
 40
0.0
  9
$DIMAZIN
 70
0
  9
$DIMDSEP
 70
44
  9
$DIMATFIT
 70
3
  9
$DIMFRAC
 70
0
  9
$DIMLDRBLK
  1

  9
$DIMLUNIT
 70
2
  9
$DIMLWD
 70
-2
  9
$DIMLWE
 70
-2
  9
$DIMTMOVE
 70
0
  9
$DIMFXL
 40
1.0
  9
$DIMFXLON
 70
0
  9
$DIMJOGANG
 40
0.785398163397
  9
$DIMTFILL
 70
0
  9
$DIMTFILLCLR
 70
0
  9
$DIMARCSYM
 70
0
  9
$DIMLTYPE
  6

  9
$DIMLTEX1
  6

  9
$DIMLTEX2
  6

  9
$DIMTXTDIRECTION
 70
0
  9
$LUNITS
 70
2
  9
$LUPREC
 70
4
  9
$SKETCHINC
 40
1.0
  9
$FILLETRAD
 40
10.0
  9
$AUNITS
 70
0
  9
$AUPREC
 70
2
  9
$MENU
  1
.
  9
$ELEVATION
 40
0.0
  9
$PELEVATION
 40
0.0
  9
$THICKNESS
 40
0.0
  9
$LIMCHECK
 70
0
  9
$CHAMFERA
 40
0.0
  9
$CHAMFERB
 40
0.0
  9
$CHAMFERC
 40
0.0
  9
$CHAMFERD
 40
0.0
  9
$SKPOLY
 70
0
  9
$TDCREATE
 40
2461202.578738426
  9
$TDUCREATE
 40
2458532.153996898
  9
$TDUPDATE
 40
2461202.578738426
  9
$TDUUPDATE
 40
2458532.1544311
  9
$TDINDWG
 40
0.0
  9
$TDUSRTIMER
 40
0.0
  9
$USRTIMER
 70
1
  9
$ANGBASE
 50
0.0
  9
$ANGDIR
 70
0
  9
$PDMODE
 70
0
  9
$PDSIZE
 40
0.0
  9
$PLINEWID
 40
0.0
  9
$SPLFRAME
 70
0
  9
$SPLINETYPE
 70
6
  9
$SPLINESEGS
 70
8
  9
$HANDSEED
  5
263
  9
$SURFTAB1
 70
6
  9
$SURFTAB2
 70
6
  9
$SURFTYPE
 70
6
  9
$SURFU
 70
6
  9
$SURFV
 70
6
  9
$UCSBASE
  2

  9
$UCSNAME
  2

  9
$UCSORG
 10
0.0
 20
0.0
 30
0.0
  9
$UCSXDIR
 10
1.0
 20
0.0
 30
0.0
  9
$UCSYDIR
 10
0.0
 20
1.0
 30
0.0
  9
$UCSORTHOREF
  2

  9
$UCSORTHOVIEW
 70
0
  9
$UCSORGTOP
 10
0.0
 20
0.0
 30
0.0
  9
$UCSORGBOTTOM
 10
0.0
 20
0.0
 30
0.0
  9
$UCSORGLEFT
 10
0.0
 20
0.0
 30
0.0
  9
$UCSORGRIGHT
 10
0.0
 20
0.0
 30
0.0
  9
$UCSORGFRONT
 10
0.0
 20
0.0
 30
0.0
  9
$UCSORGBACK
 10
0.0
 20
0.0
 30
0.0
  9
$PUCSBASE
  2

  9
$PUCSNAME
  2

  9
$PUCSORG
 10
0.0
 20
0.0
 30
0.0
  9
$PUCSXDIR
 10
1.0
 20
0.0
 30
0.0
  9
$PUCSYDIR
 10
0.0
 20
1.0
 30
0.0
  9
$PUCSORTHOREF
  2

  9
$PUCSORTHOVIEW
 70
0
  9
$PUCSORGTOP
 10
0.0
 20
0.0
 30
0.0
  9
$PUCSORGBOTTOM
 10
0.0
 20
0.0
 30
0.0
  9
$PUCSORGLEFT
 10
0.0
 20
0.0
 30
0.0
  9
$PUCSORGRIGHT
 10
0.0
 20
0.0
 30
0.0
  9
$PUCSORGFRONT
 10
0.0
 20
0.0
 30
0.0
  9
$PUCSORGBACK
 10
0.0
 20
0.0
 30
0.0
  9
$USERI1
 70
0
  9
$USERI2
 70
0
  9
$USERI3
 70
0
  9
$USERI4
 70
0
  9
$USERI5
 70
0
  9
$USERR1
 40
0.0
  9
$USERR2
 40
0.0
  9
$USERR3
 40
0.0
  9
$USERR4
 40
0.0
  9
$USERR5
 40
0.0
  9
$WORLDVIEW
 70
1
  9
$SHADEDGE
 70
3
  9
$SHADEDIF
 70
70
  9
$TILEMODE
 70
1
  9
$MAXACTVP
 70
64
  9
$PINSBASE
 10
0.0
 20
0.0
 30
0.0
  9
$PLIMCHECK
 70
0
  9
$PEXTMIN
 10
1e+20
 20
1e+20
 30
1e+20
  9
$PEXTMAX
 10
-1e+20
 20
-1e+20
 30
-1e+20
  9
$PLIMMIN
 10
0.0
 20
0.0
  9
$PLIMMAX
 10
420.0
 20
297.0
  9
$UNITMODE
 70
0
  9
$VISRETAIN
 70
1
  9
$PLINEGEN
 70
0
  9
$PSLTSCALE
 70
1
  9
$TREEDEPTH
 70
3020
  9
$CMLSTYLE
  2
Standard
  9
$CMLJUST
 70
0
  9
$CMLSCALE
 40
20.0
  9
$PROXYGRAPHICS
 70
1
  9
$MEASUREMENT
 70
1
  9
$CELWEIGHT
370
-1
  9
$ENDCAPS
280
0
  9
$JOINSTYLE
280
0
  9
$LWDISPLAY
290
0
  9
$INSUNITS
 70
6
  9
$HYPERLINKBASE
  1

  9
$STYLESHEET
  1

  9
$XEDIT
290
1
  9
$CEPSNTYPE
380
0
  9
$PSTYLEMODE
290
1
  9
$FINGERPRINTGUID
  2
{096CB64B-ED27-4913-8478-5B3575FF2707}
  9
$VERSIONGUID
  2
{63A01F92-6886-45C2-8D5A-FBA80D72D50D}
  9
$EXTNAMES
290
1
  9
$PSVPSCALE
 40
0.0
  9
$OLESTARTUP
290
0
  9
$SORTENTS
280
127
  9
$INDEXCTL
280
0
  9
$HIDETEXT
280
1
  9
$XCLIPFRAME
280
1
  9
$HALOGAP
280
0
  9
$OBSCOLOR
 70
257
  9
$OBSLTYPE
280
0
  9
$INTERSECTIONDISPLAY
280
0
  9
$INTERSECTIONCOLOR
 70
257
  9
$DIMASSOC
280
2
  9
$PROJECTNAME
  1

  9
$CAMERADISPLAY
290
0
  9
$LENSLENGTH
 40
50.0
  9
$CAMERAHEIGHT
 40
0.0
  9
$STEPSPERSEC
 40
24.0
  9
$STEPSIZE
 40
100.0
  9
$3DDWFPREC
 40
2.0
  9
$PSOLWIDTH
 40
0.005
  9
$PSOLHEIGHT
 40
0.08
  9
$LOFTANG1
 40
1.570796326795
  9
$LOFTANG2
 40
1.570796326795
  9
$LOFTMAG1
 40
0.0
  9
$LOFTMAG2
 40
0.0
  9
$LOFTPARAM
 70
7
  9
$LOFTNORMALS
280
1
  9
$LATITUDE
 40
37.795
  9
$LONGITUDE
 40
-122.394
  9
$NORTHDIRECTION
 40
0.0
  9
$TIMEZONE
 70
-8000
  9
$LIGHTGLYPHDISPLAY
280
1
  9
$TILEMODELIGHTSYNCH
280
1
  9
$CMATERIAL
347
20
  9
$SOLIDHIST
280
0
  9
$SHOWHIST
280
1
  9
$DWFFRAME
280
2
  9
$DGNFRAME
280
2
  9
$REALWORLDSCALE
290
1
  9
$INTERFERECOLOR
 62
256
  9
$CSHADOW
280
0
  9
$SHADOWPLANELOCATION
 40
0.0
  0
ENDSEC
  0
SECTION
  2
CLASSES
  0
CLASS
  1
ACDBDICTIONARYWDFLT
  2
AcDbDictionaryWithDefault
  3
ObjectDBX Classes
 90
0
 91
0
280
0
281
0
  0
CLASS
  1
SUN
  2
AcDbSun
  3
SCENEOE
 90
1153
 91
0
280
0
281
0
  0
CLASS
  1
VISUALSTYLE
  2
AcDbVisualStyle
  3
ObjectDBX Classes
 90
4095
 91
0
280
0
281
0
  0
CLASS
  1
MATERIAL
  2
AcDbMaterial
  3
ObjectDBX Classes
 90
1153
 91
0
280
0
281
0
  0
CLASS
  1
SCALE
  2
AcDbScale
  3
ObjectDBX Classes
 90
1153
 91
0
280
0
281
0
  0
CLASS
  1
TABLESTYLE
  2
AcDbTableStyle
  3
ObjectDBX Classes
 90
4095
 91
0
280
0
281
0
  0
CLASS
  1
MLEADERSTYLE
  2
AcDbMLeaderStyle
  3
ACDB_MLEADERSTYLE_CLASS
 90
4095
 91
0
280
0
281
0
  0
CLASS
  1
DICTIONARYVAR
  2
AcDbDictionaryVar
  3
ObjectDBX Classes
 90
0
 91
0
280
0
281
0
  0
CLASS
  1
CELLSTYLEMAP
  2
AcDbCellStyleMap
  3
ObjectDBX Classes
 90
1152
 91
0
280
0
281
0
  0
CLASS
  1
MENTALRAYRENDERSETTINGS
  2
AcDbMentalRayRenderSettings
  3
SCENEOE
 90
1024
 91
0
280
0
281
0
  0
CLASS
  1
ACDBDETAILVIEWSTYLE
  2
AcDbDetailViewStyle
  3
ObjectDBX Classes
 90
1025
 91
0
280
0
281
0
  0
CLASS
  1
ACDBSECTIONVIEWSTYLE
  2
AcDbSectionViewStyle
  3
ObjectDBX Classes
 90
1025
 91
0
280
0
281
0
  0
CLASS
  1
RASTERVARIABLES
  2
AcDbRasterVariables
  3
ISM
 90
0
 91
0
280
0
281
0
  0
CLASS
  1
LAYOUT
  2
AcDbLayout
  3
ObjectDBX Classes
 90
0
 91
0
280
0
281
0
  0
CLASS
  1
ACDBPLACEHOLDER
  2
AcDbPlaceHolder
  3
ObjectDBX Classes
 90
0
 91
0
280
0
281
0
  0
ENDSEC
  0
SECTION
  2
TABLES
  0
TABLE
  2
VPORT
  5
8
330
0
100
AcDbSymbolTable
 70
1
  0
VPORT
  5
23
330
8
100
AcDbSymbolTableRecord
100
AcDbViewportTableRecord
  2
*Active
 70
0
 10
0.0
 20
0.0
 11
1.0
 21
1.0
 12
0.0
 22
0.0
 13
0.0
 23
0.0
 14
0.5
 24
0.5
 15
0.5
 25
0.5
 16
0.0
 26
0.0
 36
1.0
 17
0.0
 27
0.0
 37
0.0
 40
1000.0
 41
1.34
 42
50.0
 43
0.0
 44
0.0
 50
0.0
 51
0.0
 71
0
 72
1000
 73
1
 74
3
 75
0
 76
0
 77
0
 78
0
281
0
 65
0
146
0.0
  0
ENDTAB
  0
TABLE
  2
LTYPE
  5
2
330
0
100
AcDbSymbolTable
 70
3
  0
LTYPE
  5
24
330
2
100
AcDbSymbolTableRecord
100
AcDbLinetypeTableRecord
  2
ByBlock
 70
0
  3

 72
65
 73
0
 40
0.0
  0
LTYPE
  5
25
330
2
100
AcDbSymbolTableRecord
100
AcDbLinetypeTableRecord
  2
ByLayer
 70
0
  3

 72
65
 73
0
 40
0.0
  0
LTYPE
  5
26
330
2
100
AcDbSymbolTableRecord
100
AcDbLinetypeTableRecord
  2
Continuous
 70
0
  3

 72
65
 73
0
 40
0.0
  0
ENDTAB
  0
TABLE
  2
LAYER
  5
1
330
0
100
AcDbSymbolTable
 70
15
  0
LAYER
  5
27
330
1
100
AcDbSymbolTableRecord
100
AcDbLayerTableRecord
  2
0
 70
0
 62
7
  6
Continuous
370
-3
390
13
347
21
  0
LAYER
  5
28
330
1
100
AcDbSymbolTableRecord
100
AcDbLayerTableRecord
  2
Defpoints
 70
0
 62
7
  6
Continuous
290
0
370
-3
390
13
347
21
  0
LAYER
  5
2F
330
1
100
AcDbSymbolTableRecord
100
AcDbLayerTableRecord
  2
COTA
 70
0
 62
7
  6
Continuous
370
-3
390
13
347
21
  0
LAYER
  5
30
330
1
100
AcDbSymbolTableRecord
100
AcDbLayerTableRecord
  2
Cotas
 70
0
 62
7
  6
Continuous
370
-3
390
13
347
21
  0
LAYER
  5
31
330
1
100
AcDbSymbolTableRecord
100
AcDbLayerTableRecord
  2
Texto Seção
 70
0
 62
7
  6
Continuous
370
-3
390
13
347
21
  0
LAYER
  5
32
330
1
100
AcDbSymbolTableRecord
100
AcDbLayerTableRecord
  2
Hachura
 70
0
 62
7
  6
Continuous
370
-3
390
13
347
21
  0
LAYER
  5
33
330
1
100
AcDbSymbolTableRecord
100
AcDbLayerTableRecord
  2
Painéis
 70
0
 62
7
  6
Continuous
370
-3
390
13
347
21
  0
LAYER
  5
34
330
1
100
AcDbSymbolTableRecord
100
AcDbLayerTableRecord
  2
Madeira
 70
0
 62
7
  6
Continuous
370
-3
390
13
347
21
  0
LAYER
  5
35
330
1
100
AcDbSymbolTableRecord
100
AcDbLayerTableRecord
  2
TEXTO PILAR
 70
0
 62
7
  6
Continuous
370
-3
390
13
347
21
  0
LAYER
  5
36
330
1
100
AcDbSymbolTableRecord
100
AcDbLayerTableRecord
  2
SARR_2.2x7
 70
0
 62
7
  6
Continuous
370
-3
390
13
347
21
  0
LAYER
  5
37
330
1
100
AcDbSymbolTableRecord
100
AcDbLayerTableRecord
  2
SARR_3.5x7
 70
0
 62
7
  6
Continuous
370
-3
390
13
347
21
  0
LAYER
  5
38
330
1
100
AcDbSymbolTableRecord
100
AcDbLayerTableRecord
  2
CONCRETO
 70
0
 62
7
  6
Continuous
370
-3
390
13
347
21
  0
LAYER
  5
39
330
1
100
AcDbSymbolTableRecord
100
AcDbLayerTableRecord
  2
5
 70
0
 62
7
  6
Continuous
370
-3
390
13
347
21
  0
LAYER
  5
3A
330
1
100
AcDbSymbolTableRecord
100
AcDbLayerTableRecord
  2
REAPROVEITAMENTO
 70
0
 62
7
  6
Continuous
370
-3
390
13
347
21
  0
LAYER
  5
3B
330
1
100
AcDbSymbolTableRecord
100
AcDbLayerTableRecord
  2
detalhes
 70
0
 62
7
  6
Continuous
370
-3
390
13
347
21
  0
ENDTAB
  0
TABLE
  2
STYLE
  5
5
330
0
100
AcDbSymbolTable
 70
1
  0
STYLE
  5
29
330
5
100
AcDbSymbolTableRecord
100
AcDbTextStyleTableRecord
  2
Standard
 70
0
 40
0.0
 41
1.0
 50
0.0
 71
0
 42
2.5
  3
txt
  4

  0
ENDTAB
  0
TABLE
  2
VIEW
  5
7
330
0
100
AcDbSymbolTable
 70
0
  0
ENDTAB
  0
TABLE
  2
UCS
  5
6
330
0
100
AcDbSymbolTable
 70
0
  0
ENDTAB
  0
TABLE
  2
APPID
  5
3
330
0
100
AcDbSymbolTable
 70
3
  0
APPID
  5
2A
330
3
100
AcDbSymbolTableRecord
100
AcDbRegAppTableRecord
  2
ACAD
 70
0
  0
APPID
  5
260
330
3
100
AcDbSymbolTableRecord
100
AcDbRegAppTableRecord
  2
HATCHBACKGROUNDCOLOR
 70
0
  0
APPID
  5
261
330
3
100
AcDbSymbolTableRecord
100
AcDbRegAppTableRecord
  2
EZDXF
 70
0
  0
ENDTAB
  0
TABLE
  2
DIMSTYLE
  5
4
330
0
100
AcDbSymbolTable
 70
1
100
AcDbDimStyleTable
  0
DIMSTYLE
105
2B
330
4
100
AcDbSymbolTableRecord
100
AcDbDimStyleTableRecord
  2
Standard
 70
0
 40
1.0
 41
2.5
 42
0.625
 43
3.75
 44
1.25
 45
0.0
 46
0.0
 47
0.0
 48
0.0
 49
2.5
140
2.5
141
2.5
142
0.0
143
0.03937007874
144
1.0
145
0.0
146
1.0
147
0.625
148
0.0
 69
0
 70
0
 71
0
 72
0
 73
0
 74
0
 75
0
 76
0
 77
1
 78
8
 79
3
170
0
171
3
172
1
173
0
174
0
175
0
176
0
177
0
178
0
179
2
271
2
272
2
273
2
274
3
275
0
276
0
277
2
278
44
279
0
280
0
281
0
282
0
283
0
284
8
285
0
286
0
288
0
289
3
290
0
371
-2
372
-2
  0
ENDTAB
  0
TABLE
  2
BLOCK_RECORD
  5
9
330
0
100
AcDbSymbolTable
 70
2
  0
BLOCK_RECORD
  5
17
330
9
100
AcDbSymbolTableRecord
100
AcDbBlockTableRecord
  2
*Model_Space
340
1A
 70
0
280
1
281
0
  0
BLOCK_RECORD
  5
1B
330
9
100
AcDbSymbolTableRecord
100
AcDbBlockTableRecord
  2
*Paper_Space
340
1E
 70
0
280
1
281
0
  0
ENDTAB
  0
ENDSEC
  0
SECTION
  2
BLOCKS
  0
BLOCK
  5
18
330
17
100
AcDbEntity
  8
0
100
AcDbBlockBegin
  2
*Model_Space
 70
0
 10
0.0
 20
0.0
 30
0.0
  3
*Model_Space
  1

  0
ENDBLK
  5
19
330
17
100
AcDbEntity
  8
0
100
AcDbBlockEnd
  0
BLOCK
  5
1C
330
1B
100
AcDbEntity
  8
0
100
AcDbBlockBegin
  2
*Paper_Space
 70
0
 10
0.0
 20
0.0
 30
0.0
  3
*Paper_Space
  1

  0
ENDBLK
  5
1D
330
1B
100
AcDbEntity
  8
0
100
AcDbBlockEnd
  0
ENDSEC
  0
SECTION
  2
ENTITIES
  0
LINE
  5
3C
330
17
100
AcDbEntity
  8
SARR_2.2x7
 62
7
370
25
100
AcDbLine
 10
5723.891111852656
 20
8218.996235037404
 30
0.0
 11
5878.422202834085
 21
8218.996235037677
 31
0.0
  0
LINE
  5
3D
330
17
100
AcDbEntity
  8
Painéis
 62
7
370
25
100
AcDbLine
 10
5479.891111852656
 20
8218.996235037404
 30
0.0
 11
5479.891111852656
 21
8262.996235037403
 31
0.0
  0
LINE
  5
3E
330
17
100
AcDbEntity
  8
Painéis
 62
7
370
25
100
AcDbLine
 10
5479.891111852656
 20
8262.996235037403
 30
0.0
 11
5885.391111852656
 21
8262.996235037403
 31
0.0
  0
LINE
  5
3F
330
17
100
AcDbEntity
  8
Painéis
 62
7
370
25
100
AcDbLine
 10
5885.391111852656
 20
8262.996235037403
 30
0.0
 11
5885.391111852655
 21
8153.996235037404
 31
0.0
  0
LINE
  5
40
330
17
100
AcDbEntity
  8
Painéis
 62
7
370
25
100
AcDbLine
 10
5885.391111852655
 20
8153.996235037404
 30
0.0
 11
5774.391111852656
 21
8153.996235037404
 31
0.0
  0
LINE
  5
41
330
17
100
AcDbEntity
  8
Painéis
 62
7
370
25
100
AcDbLine
 10
5774.391111852656
 20
8153.996235037404
 30
0.0
 11
5774.391111852652
 21
8218.996235037404
 31
0.0
  0
LINE
  5
42
330
17
100
AcDbEntity
  8
Painéis
 62
7
370
25
100
AcDbLine
 10
5774.391111852656
 20
8218.996235037404
 30
0.0
 11
5479.891111852656
 21
8218.996235037404
 31
0.0
  0
LINE
  5
43
330
17
100
AcDbEntity
  8
SARR_2.2x7
 62
7
370
25
100
AcDbLine
 10
5781.391111852656
 20
8153.996235037404
 30
0.0
 11
5781.391111852655
 21
8218.996235037404
 31
0.0
  0
LINE
  5
44
330
17
100
AcDbEntity
  8
SARR_2.2x7
 62
7
370
25
100
AcDbLine
 10
5774.391111852656
 20
8218.996235037404
 30
0.0
 11
5781.391111852655
 21
8218.996235037404
 31
0.0
  0
LINE
  5
45
330
17
100
AcDbEntity
  8
Painéis
 62
7
370
25
100
AcDbLine
 10
5723.891111852656
 20
8218.996235037404
 30
0.0
 11
5723.891111852656
 21
8262.996235037403
 31
0.0
  0
LINE
  5
46
330
17
100
AcDbEntity
  8
SARR_2.2x7
 62
7
370
25
100
AcDbLine
 10
5486.845971093472
 20
8255.996235037495
 30
0.0
 11
5723.891111852659
 21
8255.996235037512
 31
0.0
  0
LINE
  5
47
330
17
100
AcDbEntity
  8
SARR_2.2x7
 62
7
370
25
100
AcDbLine
 10
5486.845971093476
 20
8219.9962350374
 30
0.0
 11
5486.845971093472
 21
8262.996235037403
 31
0.0
  0
LINE
  5
48
330
17
100
AcDbEntity
  8
SARR_2.2x7
 62
7
370
25
100
AcDbLine
 10
5486.845971093472
 20
8226.996235037332
 30
0.0
 11
5723.891111852659
 21
8226.996235037313
 31
0.0
  0
LINE
  5
49
330
17
100
AcDbEntity
  8
SARR_2.2x7
 62
7
370
25
100
AcDbLine
 10
5486.845971093476
 20
8238.496235038052
 30
0.0
 11
5723.891111852659
 21
8238.4962350376
 31
0.0
  0
LINE
  5
4A
330
17
100
AcDbEntity
  8
SARR_2.2x7
 62
7
370
25
100
AcDbLine
 10
5486.845971093476
 20
8245.496235037306
 30
0.0
 11
5723.891111852659
 21
8245.496235037754
 31
0.0
  0
LINE
  5
4B
330
17
100
AcDbEntity
  8
SARR_2.2x7
 62
7
370
25
100
AcDbLine
 10
5723.905161630416
 20
8255.99623503749
 30
0.0
 11
5878.436252611845
 21
8255.996235037233
 31
0.0
  0
LINE
  5
4C
330
17
100
AcDbEntity
  8
SARR_2.2x7
 62
7
370
25
100
AcDbLine
 10
5878.436252611839
 20
8153.996235037404
 30
0.0
 11
5878.436252611849
 21
8262.996235037386
 31
0.0
  0
LINE
  5
4D
330
17
100
AcDbEntity
  8
SARR_2.2x7
 62
7
370
25
100
AcDbLine
 10
5723.905161630416
 20
8226.996235037288
 30
0.0
 11
5878.436252611845
 21
8226.99623503756
 31
0.0
  0
LINE
  5
4E
330
17
100
AcDbEntity
  8
SARR_2.2x7
 62
7
370
25
100
AcDbLine
 10
5723.905161630421
 20
8238.496235038043
 30
0.0
 11
5878.436252611845
 21
8238.496235037772
 31
0.0
  0
LINE
  5
4F
330
17
100
AcDbEntity
  8
SARR_2.2x7
 62
7
370
25
100
AcDbLine
 10
5723.905161630421
 20
8245.496235037295
 30
0.0
 11
5878.436252611845
 21
8245.496235037583
 31
0.0
  0
LINE
  5
50
330
17
100
AcDbEntity
  8
SARR_2.2x7
 62
7
370
25
100
AcDbLine
 10
5774.391111852656
 20
8161.996235037106
 30
0.0
 11
5878.450302389601
 21
8161.996235037289
 31
0.0
  0
LINE
  5
51
330
17
100
AcDbEntity
  8
SARR_2.2x7
 62
7
370
25
100
AcDbLine
 10
5774.391111852654
 20
8186.99623503776
 30
0.0
 11
5878.443277500744
 21
8186.996235037577
 31
0.0
  0
LINE
  5
52
330
17
100
AcDbEntity
  8
SARR_2.2x7
 62
7
370
25
100
AcDbLine
 10
5774.391111852654
 20
8193.996235037195
 30
0.0
 11
5878.443277500744
 21
8193.996235037386
 31
0.0
  0
LINE
  5
53
330
17
100
AcDbEntity
  8
SARR_2.2x7
 62
7
370
25
100
AcDbLine
 10
6183.3546030682
 20
8218.996235037404
 30
0.0
 11
6016.323512086771
 21
8218.996235037677
 31
0.0
  0
LINE
  5
54
330
17
100
AcDbEntity
  8
Painéis
 62
7
370
25
100
AcDbLine
 10
6427.3546030682
 20
8218.996235037404
 30
0.0
 11
6427.3546030682
 21
8262.996235037403
 31
0.0
  0
LINE
  5
55
330
17
100
AcDbEntity
  8
Painéis
 62
7
370
25
100
AcDbLine
 10
6427.3546030682
 20
8262.996235037403
 30
0.0
 11
6009.354603068199
 21
8262.996235037403
 31
0.0
  0
LINE
  5
56
330
17
100
AcDbEntity
  8
Painéis
 62
7
370
25
100
AcDbLine
 10
6009.354603068199
 20
8262.996235037403
 30
0.0
 11
6009.354603068201
 21
8153.996235037404
 31
0.0
  0
LINE
  5
57
330
17
100
AcDbEntity
  8
Painéis
 62
7
370
25
100
AcDbLine
 10
6009.354603068201
 20
8153.996235037404
 30
0.0
 11
6120.3546030682
 21
8153.996235037404
 31
0.0
  0
LINE
  5
58
330
17
100
AcDbEntity
  8
Painéis
 62
7
370
25
100
AcDbLine
 10
6120.3546030682
 20
8153.996235037404
 30
0.0
 11
6120.354603068204
 21
8218.996235037404
 31
0.0
  0
LINE
  5
59
330
17
100
AcDbEntity
  8
Painéis
 62
7
370
25
100
AcDbLine
 10
6120.3546030682
 20
8218.996235037404
 30
0.0
 11
6427.3546030682
 21
8218.996235037404
 31
0.0
  0
LINE
  5
5A
330
17
100
AcDbEntity
  8
SARR_2.2x7
 62
7
370
25
100
AcDbLine
 10
6113.354603068199
 20
8153.996235037404
 30
0.0
 11
6113.354603068201
 21
8218.996235037404
 31
0.0
  0
LINE
  5
5B
330
17
100
AcDbEntity
  8
SARR_2.2x7
 62
7
370
25
100
AcDbLine
 10
6120.3546030682
 20
8218.996235037404
 30
0.0
 11
6113.354603068201
 21
8218.996235037404
 31
0.0
  0
LINE
  5
5C
330
17
100
AcDbEntity
  8
Painéis
 62
7
370
25
100
AcDbLine
 10
6183.3546030682
 20
8218.996235037404
 30
0.0
 11
6183.3546030682
 21
8262.996235037403
 31
0.0
  0
LINE
  5
5D
330
17
100
AcDbEntity
  8
SARR_2.2x7
 62
7
370
25
100
AcDbLine
 10
6420.399743827383
 20
8255.996235037495
 30
0.0
 11
6183.354603068196
 21
8255.996235037512
 31
0.0
  0
LINE
  5
5E
330
17
100
AcDbEntity
  8
SARR_2.2x7
 62
7
370
25
100
AcDbLine
 10
6420.399743827378
 20
8219.9962350374
 30
0.0
 11
6420.399743827383
 21
8262.996235037403
 31
0.0
  0
LINE
  5
5F
330
17
100
AcDbEntity
  8
SARR_2.2x7
 62
7
370
25
100
AcDbLine
 10
6420.399743827383
 20
8226.996235037332
 30
0.0
 11
6183.354603068196
 21
8226.996235037313
 31
0.0
  0
LINE
  5
60
330
17
100
AcDbEntity
  8
SARR_2.2x7
 62
7
370
25
100
AcDbLine
 10
6420.399743827378
 20
8238.496235038052
 30
0.0
 11
6183.354603068196
 21
8238.4962350376
 31
0.0
  0
LINE
  5
61
330
17
100
AcDbEntity
  8
SARR_2.2x7
 62
7
370
25
100
AcDbLine
 10
6420.399743827378
 20
8245.496235037306
 30
0.0
 11
6183.354603068196
 21
8245.496235037754
 31
0.0
  0
LINE
  5
62
330
17
100
AcDbEntity
  8
SARR_2.2x7
 62
7
370
25
100
AcDbLine
 10
6183.340553290439
 20
8255.99623503749
 30
0.0
 11
6016.30946230901
 21
8255.996235037233
 31
0.0
  0
LINE
  5
63
330
17
100
AcDbEntity
  8
SARR_2.2x7
 62
7
370
25
100
AcDbLine
 10
6016.309462309017
 20
8153.996235037404
 30
0.0
 11
6016.309462309006
 21
8262.996235037386
 31
0.0
  0
LINE
  5
64
330
17
100
AcDbEntity
  8
SARR_2.2x7
 62
7
370
25
100
AcDbLine
 10
6183.340553290439
 20
8226.996235037288
 30
0.0
 11
6016.30946230901
 21
8226.99623503756
 31
0.0
  0
LINE
  5
65
330
17
100
AcDbEntity
  8
SARR_2.2x7
 62
7
370
25
100
AcDbLine
 10
6183.340553290435
 20
8238.496235038043
 30
0.0
 11
6016.30946230901
 21
8238.496235037772
 31
0.0
  0
LINE
  5
66
330
17
100
AcDbEntity
  8
SARR_2.2x7
 62
7
370
25
100
AcDbLine
 10
6183.340553290435
 20
8245.496235037295
 30
0.0
 11
6016.30946230901
 21
8245.496235037583
 31
0.0
  0
LINE
  5
67
330
17
100
AcDbEntity
  8
SARR_2.2x7
 62
7
370
25
100
AcDbLine
 10
6120.3546030682
 20
8161.996235037106
 30
0.0
 11
6016.295412531255
 21
8161.996235037289
 31
0.0
  0
LINE
  5
68
330
17
100
AcDbEntity
  8
SARR_2.2x7
 62
7
370
25
100
AcDbLine
 10
6120.354603068202
 20
8186.99623503776
 30
0.0
 11
6016.302437420112
 21
8186.996235037577
 31
0.0
  0
LINE
  5
69
330
17
100
AcDbEntity
  8
SARR_2.2x7
 62
7
370
25
100
AcDbLine
 10
6120.354603068202
 20
8193.996235037195
 30
0.0
 11
6016.302437420112
 21
8193.996235037386
 31
0.0
  0
LINE
  5
6A
330
17
100
AcDbEntity
  8
SARR_2.2x7
 62
7
370
25
100
AcDbLine
 10
5726.15164542451
 20
7972.400046196141
 30
0.0
 11
5893.18273640594
 21
7972.400046196414
 31
0.0
  0
LINE
  5
6B
330
17
100
AcDbEntity
  8
Painéis
 62
7
370
25
100
AcDbLine
 10
5482.151645424511
 20
7972.400046196141
 30
0.0
 11
5482.151645424511
 21
8016.400046196141
 31
0.0
  0
LINE
  5
6C
330
17
100
AcDbEntity
  8
Painéis
 62
7
370
25
100
AcDbLine
 10
5482.151645424511
 20
8016.400046196141
 30
0.0
 11
5900.151645424511
 21
8016.400046196141
 31
0.0
  0
LINE
  5
6D
330
17
100
AcDbEntity
  8
Painéis
 62
7
370
25
100
AcDbLine
 10
5900.151645424511
 20
8016.400046196141
 30
0.0
 11
5900.151645424509
 21
7907.400046196141
 31
0.0
  0
LINE
  5
6E
330
17
100
AcDbEntity
  8
Painéis
 62
7
370
25
100
AcDbLine
 10
5900.151645424509
 20
7907.400046196141
 30
0.0
 11
5789.15164542451
 21
7907.400046196141
 31
0.0
  0
LINE
  5
6F
330
17
100
AcDbEntity
  8
Painéis
 62
7
370
25
100
AcDbLine
 10
5789.15164542451
 20
7907.400046196141
 30
0.0
 11
5789.151645424507
 21
7972.400046196141
 31
0.0
  0
LINE
  5
70
330
17
100
AcDbEntity
  8
Painéis
 62
7
370
25
100
AcDbLine
 10
5789.15164542451
 20
7972.400046196141
 30
0.0
 11
5482.151645424511
 21
7972.400046196141
 31
0.0
  0
LINE
  5
71
330
17
100
AcDbEntity
  8
SARR_2.2x7
 62
7
370
25
100
AcDbLine
 10
5796.15164542451
 20
7907.400046196141
 30
0.0
 11
5796.151645424509
 21
7972.400046196141
 31
0.0
  0
LINE
  5
72
330
17
100
AcDbEntity
  8
SARR_2.2x7
 62
7
370
25
100
AcDbLine
 10
5789.15164542451
 20
7972.400046196141
 30
0.0
 11
5796.151645424509
 21
7972.400046196141
 31
0.0
  0
LINE
  5
73
330
17
100
AcDbEntity
  8
Painéis
 62
7
370
25
100
AcDbLine
 10
5726.15164542451
 20
7972.400046196141
 30
0.0
 11
5726.15164542451
 21
8016.400046196141
 31
0.0
  0
LINE
  5
74
330
17
100
AcDbEntity
  8
SARR_2.2x7
 62
7
370
25
100
AcDbLine
 10
5489.106504665327
 20
8009.400046196232
 30
0.0
 11
5726.151645424514
 21
8009.400046196249
 31
0.0
  0
LINE
  5
75
330
17
100
AcDbEntity
  8
SARR_2.2x7
 62
7
370
25
100
AcDbLine
 10
5489.106504665331
 20
7973.400046196137
 30
0.0
 11
5489.106504665327
 21
8016.400046196141
 31
0.0
  0
LINE
  5
76
330
17
100
AcDbEntity
  8
SARR_2.2x7
 62
7
370
25
100
AcDbLine
 10
5489.106504665327
 20
7980.400046196068
 30
0.0
 11
5726.151645424514
 21
7980.40004619605
 31
0.0
  0
LINE
  5
77
330
17
100
AcDbEntity
  8
SARR_2.2x7
 62
7
370
25
100
AcDbLine
 10
5489.106504665331
 20
7991.900046196788
 30
0.0
 11
5726.151645424514
 21
7991.900046196336
 31
0.0
  0
LINE
  5
78
330
17
100
AcDbEntity
  8
SARR_2.2x7
 62
7
370
25
100
AcDbLine
 10
5489.106504665331
 20
7998.90004619604
 30
0.0
 11
5726.151645424514
 21
7998.900046196489
 31
0.0
  0
LINE
  5
79
330
17
100
AcDbEntity
  8
SARR_2.2x7
 62
7
370
25
100
AcDbLine
 10
5726.165695202271
 20
8009.400046196224
 30
0.0
 11
5893.1967861837
 21
8009.400046195969
 31
0.0
  0
LINE
  5
7A
330
17
100
AcDbEntity
  8
SARR_2.2x7
 62
7
370
25
100
AcDbLine
 10
5893.196786183693
 20
7907.400046196141
 30
0.0
 11
5893.196786183704
 21
8016.400046196123
 31
0.0
  0
LINE
  5
7B
330
17
100
AcDbEntity
  8
SARR_2.2x7
 62
7
370
25
100
AcDbLine
 10
5726.165695202271
 20
7980.400046196024
 30
0.0
 11
5893.1967861837
 21
7980.400046196297
 31
0.0
  0
LINE
  5
7C
330
17
100
AcDbEntity
  8
SARR_2.2x7
 62
7
370
25
100
AcDbLine
 10
5726.165695202275
 20
7991.900046196779
 30
0.0
 11
5893.1967861837
 21
7991.900046196509
 31
0.0
  0
LINE
  5
7D
330
17
100
AcDbEntity
  8
SARR_2.2x7
 62
7
370
25
100
AcDbLine
 10
5726.165695202275
 20
7998.900046196031
 30
0.0
 11
5893.1967861837
 21
7998.900046196318
 31
0.0
  0
LINE
  5
7E
330
17
100
AcDbEntity
  8
SARR_2.2x7
 62
7
370
25
100
AcDbLine
 10
5789.15164542451
 20
7915.400046195841
 30
0.0
 11
5893.210835961455
 21
7915.400046196023
 31
0.0
  0
LINE
  5
7F
330
17
100
AcDbEntity
  8
SARR_2.2x7
 62
7
370
25
100
AcDbLine
 10
5789.151645424508
 20
7940.400046196497
 30
0.0
 11
5893.203811072599
 21
7940.400046196313
 31
0.0
  0
LINE
  5
80
330
17
100
AcDbEntity
  8
SARR_2.2x7
 62
7
370
25
100
AcDbLine
 10
5789.151645424508
 20
7947.40004619593
 30
0.0
 11
5893.203811072599
 21
7947.400046196124
 31
0.0
  0
LINE
  5
81
330
17
100
AcDbEntity
  8
SARR_2.2x7
 62
7
370
25
100
AcDbLine
 10
6185.917052110188
 20
7972.400046196141
 30
0.0
 11
6018.885961128759
 21
7972.400046196414
 31
0.0
  0
LINE
  5
82
330
17
100
AcDbEntity
  8
Painéis
 62
7
370
25
100
AcDbLine
 10
6429.917052110188
 20
7972.400046196141
 30
0.0
 11
6429.917052110188
 21
8016.400046196141
 31
0.0
  0
LINE
  5
83
330
17
100
AcDbEntity
  8
Painéis
 62
7
370
25
100
AcDbLine
 10
6429.917052110188
 20
8016.400046196141
 30
0.0
 11
6011.917052110188
 21
8016.400046196141
 31
0.0
  0
LINE
  5
84
330
17
100
AcDbEntity
  8
Painéis
 62
7
370
25
100
AcDbLine
 10
6011.917052110188
 20
8016.400046196141
 30
0.0
 11
6011.917052110188
 21
7907.400046196141
 31
0.0
  0
LINE
  5
85
330
17
100
AcDbEntity
  8
Painéis
 62
7
370
25
100
AcDbLine
 10
6011.917052110188
 20
7907.400046196141
 30
0.0
 11
6122.917052110188
 21
7907.400046196141
 31
0.0
  0
LINE
  5
86
330
17
100
AcDbEntity
  8
Painéis
 62
7
370
25
100
AcDbLine
 10
6122.917052110188
 20
7907.400046196141
 30
0.0
 11
6122.917052110191
 21
7972.400046196141
 31
0.0
  0
LINE
  5
87
330
17
100
AcDbEntity
  8
Painéis
 62
7
370
25
100
AcDbLine
 10
6122.917052110188
 20
7972.400046196141
 30
0.0
 11
6429.917052110188
 21
7972.400046196141
 31
0.0
  0
LINE
  5
88
330
17
100
AcDbEntity
  8
SARR_2.2x7
 62
7
370
25
100
AcDbLine
 10
6115.917052110187
 20
7907.400046196141
 30
0.0
 11
6115.917052110188
 21
7972.400046196141
 31
0.0
  0
LINE
  5
89
330
17
100
AcDbEntity
  8
SARR_2.2x7
 62
7
370
25
100
AcDbLine
 10
6122.917052110188
 20
7972.400046196141
 30
0.0
 11
6115.917052110188
 21
7972.400046196141
 31
0.0
  0
LINE
  5
8A
330
17
100
AcDbEntity
  8
Painéis
 62
7
370
25
100
AcDbLine
 10
6185.917052110188
 20
7972.400046196141
 30
0.0
 11
6185.917052110188
 21
8016.400046196141
 31
0.0
  0
LINE
  5
8B
330
17
100
AcDbEntity
  8
SARR_2.2x7
 62
7
370
25
100
AcDbLine
 10
6422.96219286937
 20
8009.400046196232
 30
0.0
 11
6185.917052110184
 21
8009.400046196249
 31
0.0
  0
LINE
  5
8C
330
17
100
AcDbEntity
  8
SARR_2.2x7
 62
7
370
25
100
AcDbLine
 10
6422.962192869367
 20
7973.400046196137
 30
0.0
 11
6422.96219286937
 21
8016.400046196141
 31
0.0
  0
LINE
  5
8D
330
17
100
AcDbEntity
  8
SARR_2.2x7
 62
7
370
25
100
AcDbLine
 10
6422.96219286937
 20
7980.400046196068
 30
0.0
 11
6185.917052110184
 21
7980.40004619605
 31
0.0
  0
LINE
  5
8E
330
17
100
AcDbEntity
  8
SARR_2.2x7
 62
7
370
25
100
AcDbLine
 10
6422.962192869367
 20
7991.900046196788
 30
0.0
 11
6185.917052110184
 21
7991.900046196336
 31
0.0
  0
LINE
  5
8F
330
17
100
AcDbEntity
  8
SARR_2.2x7
 62
7
370
25
100
AcDbLine
 10
6422.962192869367
 20
7998.90004619604
 30
0.0
 11
6185.917052110184
 21
7998.900046196489
 31
0.0
  0
LINE
  5
90
330
17
100
AcDbEntity
  8
SARR_2.2x7
 62
7
370
25
100
AcDbLine
 10
6185.903002332427
 20
8009.400046196224
 30
0.0
 11
6018.871911350998
 21
8009.400046195969
 31
0.0
  0
LINE
  5
91
330
17
100
AcDbEntity
  8
SARR_2.2x7
 62
7
370
25
100
AcDbLine
 10
6018.871911351005
 20
7907.400046196141
 30
0.0
 11
6018.871911350994
 21
8016.400046196123
 31
0.0
  0
LINE
  5
92
330
17
100
AcDbEntity
  8
SARR_2.2x7
 62
7
370
25
100
AcDbLine
 10
6185.903002332427
 20
7980.400046196024
 30
0.0
 11
6018.871911350998
 21
7980.400046196297
 31
0.0
  0
LINE
  5
93
330
17
100
AcDbEntity
  8
SARR_2.2x7
 62
7
370
25
100
AcDbLine
 10
6185.903002332423
 20
7991.900046196779
 30
0.0
 11
6018.871911350998
 21
7991.900046196509
 31
0.0
  0
LINE
  5
94
330
17
100
AcDbEntity
  8
SARR_2.2x7
 62
7
370
25
100
AcDbLine
 10
6185.903002332423
 20
7998.900046196031
 30
0.0
 11
6018.871911350998
 21
7998.900046196318
 31
0.0
  0
LINE
  5
95
330
17
100
AcDbEntity
  8
SARR_2.2x7
 62
7
370
25
100
AcDbLine
 10
6122.917052110188
 20
7915.400046195841
 30
0.0
 11
6018.857861573243
 21
7915.400046196023
 31
0.0
  0
LINE
  5
96
330
17
100
AcDbEntity
  8
SARR_2.2x7
 62
7
370
25
100
AcDbLine
 10
6122.91705211019
 20
7940.400046196497
 30
0.0
 11
6018.8648864621
 21
7940.400046196313
 31
0.0
  0
LINE
  5
97
330
17
100
AcDbEntity
  8
SARR_2.2x7
 62
7
370
25
100
AcDbLine
 10
6122.91705211019
 20
7947.40004619593
 30
0.0
 11
6018.8648864621
 21
7947.400046196124
 31
0.0
  0
LINE
  5
98
330
17
100
AcDbEntity
  8
SARR_2.2x7
 62
7
370
25
100
AcDbLine
 10
5726.15164542451
 20
7732.739447168492
 30
0.0
 11
5893.18273640594
 21
7732.739447168765
 31
0.0
  0
LINE
  5
99
330
17
100
AcDbEntity
  8
Painéis
 62
7
370
25
100
AcDbLine
 10
5482.151645424511
 20
7732.739447168492
 30
0.0
 11
5482.151645424511
 21
7776.739447168494
 31
0.0
  0
LINE
  5
9A
330
17
100
AcDbEntity
  8
Painéis
 62
7
370
25
100
AcDbLine
 10
5482.151645424511
 20
7776.739447168494
 30
0.0
 11
5900.151645424511
 21
7776.739447168494
 31
0.0
  0
LINE
  5
9B
330
17
100
AcDbEntity
  8
Painéis
 62
7
370
25
100
AcDbLine
 10
5900.151645424511
 20
7776.739447168494
 30
0.0
 11
5900.151645424509
 21
7667.739447168493
 31
0.0
  0
LINE
  5
9C
330
17
100
AcDbEntity
  8
Painéis
 62
7
370
25
100
AcDbLine
 10
5900.151645424509
 20
7667.739447168493
 30
0.0
 11
5789.15164542451
 21
7667.739447168493
 31
0.0
  0
LINE
  5
9D
330
17
100
AcDbEntity
  8
Painéis
 62
7
370
25
100
AcDbLine
 10
5789.15164542451
 20
7667.739447168493
 30
0.0
 11
5789.151645424507
 21
7732.739447168492
 31
0.0
  0
LINE
  5
9E
330
17
100
AcDbEntity
  8
Painéis
 62
7
370
25
100
AcDbLine
 10
5789.15164542451
 20
7732.739447168492
 30
0.0
 11
5482.151645424511
 21
7732.739447168492
 31
0.0
  0
LINE
  5
9F
330
17
100
AcDbEntity
  8
SARR_2.2x7
 62
7
370
25
100
AcDbLine
 10
5796.15164542451
 20
7667.739447168493
 30
0.0
 11
5796.151645424509
 21
7732.739447168494
 31
0.0
  0
LINE
  5
A0
330
17
100
AcDbEntity
  8
SARR_2.2x7
 62
7
370
25
100
AcDbLine
 10
5789.15164542451
 20
7732.739447168492
 30
0.0
 11
5796.151645424509
 21
7732.739447168494
 31
0.0
  0
LINE
  5
A1
330
17
100
AcDbEntity
  8
Painéis
 62
7
370
25
100
AcDbLine
 10
5726.15164542451
 20
7732.739447168492
 30
0.0
 11
5726.15164542451
 21
7776.739447168494
 31
0.0
  0
LINE
  5
A2
330
17
100
AcDbEntity
  8
SARR_2.2x7
 62
7
370
25
100
AcDbLine
 10
5489.106504665327
 20
7769.739447168584
 30
0.0
 11
5726.151645424514
 21
7769.739447168602
 31
0.0
  0
LINE
  5
A3
330
17
100
AcDbEntity
  8
SARR_2.2x7
 62
7
370
25
100
AcDbLine
 10
5489.106504665331
 20
7733.739447168488
 30
0.0
 11
5489.106504665327
 21
7776.739447168494
 31
0.0
  0
LINE
  5
A4
330
17
100
AcDbEntity
  8
SARR_2.2x7
 62
7
370
25
100
AcDbLine
 10
5489.106504665327
 20
7740.73944716842
 30
0.0
 11
5726.151645424514
 21
7740.739447168401
 31
0.0
  0
LINE
  5
A5
330
17
100
AcDbEntity
  8
SARR_2.2x7
 62
7
370
25
100
AcDbLine
 10
5489.106504665331
 20
7752.239447169142
 30
0.0
 11
5726.151645424514
 21
7752.239447168689
 31
0.0
  0
LINE
  5
A6
330
17
100
AcDbEntity
  8
SARR_2.2x7
 62
7
370
25
100
AcDbLine
 10
5489.106504665331
 20
7759.239447168393
 30
0.0
 11
5726.151645424514
 21
7759.239447168842
 31
0.0
  0
LINE
  5
A7
330
17
100
AcDbEntity
  8
SARR_2.2x7
 62
7
370
25
100
AcDbLine
 10
5726.165695202271
 20
7769.739447168577
 30
0.0
 11
5893.1967861837
 21
7769.739447168323
 31
0.0
  0
LINE
  5
A8
330
17
100
AcDbEntity
  8
SARR_2.2x7
 62
7
370
25
100
AcDbLine
 10
5893.196786183693
 20
7667.739447168493
 30
0.0
 11
5893.196786183704
 21
7776.739447168475
 31
0.0
  0
LINE
  5
A9
330
17
100
AcDbEntity
  8
SARR_2.2x7
 62
7
370
25
100
AcDbLine
 10
5726.165695202271
 20
7740.739447168377
 30
0.0
 11
5893.1967861837
 21
7740.73944716865
 31
0.0
  0
LINE
  5
AA
330
17
100
AcDbEntity
  8
SARR_2.2x7
 62
7
370
25
100
AcDbLine
 10
5726.165695202275
 20
7752.239447169131
 30
0.0
 11
5893.1967861837
 21
7752.23944716886
 31
0.0
  0
LINE
  5
AB
330
17
100
AcDbEntity
  8
SARR_2.2x7
 62
7
370
25
100
AcDbLine
 10
5726.165695202275
 20
7759.239447168384
 30
0.0
 11
5893.1967861837
 21
7759.239447168671
 31
0.0
  0
LINE
  5
AC
330
17
100
AcDbEntity
  8
SARR_2.2x7
 62
7
370
25
100
AcDbLine
 10
5789.15164542451
 20
7675.739447168194
 30
0.0
 11
5893.210835961455
 21
7675.739447168377
 31
0.0
  0
LINE
  5
AD
330
17
100
AcDbEntity
  8
SARR_2.2x7
 62
7
370
25
100
AcDbLine
 10
5789.151645424508
 20
7700.739447168849
 30
0.0
 11
5893.203811072599
 21
7700.739447168665
 31
0.0
  0
LINE
  5
AE
330
17
100
AcDbEntity
  8
SARR_2.2x7
 62
7
370
25
100
AcDbLine
 10
5789.151645424508
 20
7707.739447168283
 30
0.0
 11
5893.203811072599
 21
7707.739447168477
 31
0.0
  0
LINE
  5
AF
330
17
100
AcDbEntity
  8
SARR_2.2x7
 62
7
370
25
100
AcDbLine
 10
6185.917052110188
 20
7732.739447168492
 30
0.0
 11
6018.885961128759
 21
7732.739447168765
 31
0.0
  0
LINE
  5
B0
330
17
100
AcDbEntity
  8
Painéis
 62
7
370
25
100
AcDbLine
 10
6429.917052110188
 20
7732.739447168492
 30
0.0
 11
6429.917052110188
 21
7777.739447168492
 31
0.0
  0
LINE
  5
B1
330
17
100
AcDbEntity
  8
Painéis
 62
7
370
25
100
AcDbLine
 10
6429.917052110188
 20
7777.739447168492
 30
0.0
 11
6011.917052110188
 21
7777.739447168492
 31
0.0
  0
LINE
  5
B2
330
17
100
AcDbEntity
  8
Painéis
 62
7
370
25
100
AcDbLine
 10
6011.917052110188
 20
7777.739447168492
 30
0.0
 11
6011.917052110188
 21
7667.739447168493
 31
0.0
  0
LINE
  5
B3
330
17
100
AcDbEntity
  8
Painéis
 62
7
370
25
100
AcDbLine
 10
6011.917052110188
 20
7667.739447168493
 30
0.0
 11
6122.917052110188
 21
7667.739447168493
 31
0.0
  0
LINE
  5
B4
330
17
100
AcDbEntity
  8
Painéis
 62
7
370
25
100
AcDbLine
 10
6122.917052110188
 20
7667.739447168493
 30
0.0
 11
6122.917052110191
 21
7732.739447168492
 31
0.0
  0
LINE
  5
B5
330
17
100
AcDbEntity
  8
Painéis
 62
7
370
25
100
AcDbLine
 10
6122.917052110188
 20
7732.739447168492
 30
0.0
 11
6429.917052110188
 21
7732.739447168492
 31
0.0
  0
LINE
  5
B6
330
17
100
AcDbEntity
  8
SARR_2.2x7
 62
7
370
25
100
AcDbLine
 10
6115.917052110187
 20
7667.739447168493
 30
0.0
 11
6115.917052110188
 21
7732.739447168494
 31
0.0
  0
LINE
  5
B7
330
17
100
AcDbEntity
  8
SARR_2.2x7
 62
7
370
25
100
AcDbLine
 10
6122.917052110188
 20
7732.739447168492
 30
0.0
 11
6115.917052110188
 21
7732.739447168494
 31
0.0
  0
LINE
  5
B8
330
17
100
AcDbEntity
  8
Painéis
 62
7
370
25
100
AcDbLine
 10
6185.917052110188
 20
7732.739447168492
 30
0.0
 11
6185.917052110188
 21
7777.739447168492
 31
0.0
  0
LINE
  5
B9
330
17
100
AcDbEntity
  8
SARR_2.2x7
 62
7
370
25
100
AcDbLine
 10
6422.96219286937
 20
7770.739447168584
 30
0.0
 11
6185.917052110184
 21
7770.739447168601
 31
0.0
  0
LINE
  5
BA
330
17
100
AcDbEntity
  8
SARR_2.2x7
 62
7
370
25
100
AcDbLine
 10
6422.962192869367
 20
7733.739447168488
 30
0.0
 11
6422.96219286937
 21
7777.739447168492
 31
0.0
  0
LINE
  5
BB
330
17
100
AcDbEntity
  8
SARR_2.2x7
 62
7
370
25
100
AcDbLine
 10
6422.96219286937
 20
7740.73944716842
 30
0.0
 11
6185.917052110184
 21
7740.739447168401
 31
0.0
  0
LINE
  5
BC
330
17
100
AcDbEntity
  8
SARR_2.2x7
 62
7
370
25
100
AcDbLine
 10
6422.962192869367
 20
7752.239447169142
 30
0.0
 11
6185.917052110184
 21
7752.239447168689
 31
0.0
  0
LINE
  5
BD
330
17
100
AcDbEntity
  8
SARR_2.2x7
 62
7
370
25
100
AcDbLine
 10
6422.962192869367
 20
7759.239447168393
 30
0.0
 11
6185.917052110184
 21
7759.239447168842
 31
0.0
  0
LINE
  5
BE
330
17
100
AcDbEntity
  8
SARR_2.2x7
 62
7
370
25
100
AcDbLine
 10
6185.903002332427
 20
7770.739447168577
 30
0.0
 11
6018.871911350998
 21
7770.739447168321
 31
0.0
  0
LINE
  5
BF
330
17
100
AcDbEntity
  8
SARR_2.2x7
 62
7
370
25
100
AcDbLine
 10
6018.871911351005
 20
7667.739447168493
 30
0.0
 11
6018.871911350994
 21
7777.739447168475
 31
0.0
  0
LINE
  5
C0
330
17
100
AcDbEntity
  8
SARR_2.2x7
 62
7
370
25
100
AcDbLine
 10
6185.903002332427
 20
7740.739447168377
 30
0.0
 11
6018.871911350998
 21
7740.73944716865
 31
0.0
  0
LINE
  5
C1
330
17
100
AcDbEntity
  8
SARR_2.2x7
 62
7
370
25
100
AcDbLine
 10
6185.903002332423
 20
7752.239447169131
 30
0.0
 11
6018.871911350998
 21
7752.23944716886
 31
0.0
  0
LINE
  5
C2
330
17
100
AcDbEntity
  8
SARR_2.2x7
 62
7
370
25
100
AcDbLine
 10
6185.903002332423
 20
7759.239447168384
 30
0.0
 11
6018.871911350998
 21
7759.239447168671
 31
0.0
  0
LINE
  5
C3
330
17
100
AcDbEntity
  8
SARR_2.2x7
 62
7
370
25
100
AcDbLine
 10
6122.917052110188
 20
7675.739447168194
 30
0.0
 11
6018.857861573243
 21
7675.739447168377
 31
0.0
  0
LINE
  5
C4
330
17
100
AcDbEntity
  8
SARR_2.2x7
 62
7
370
25
100
AcDbLine
 10
6122.91705211019
 20
7700.739447168849
 30
0.0
 11
6018.8648864621
 21
7700.739447168665
 31
0.0
  0
LINE
  5
C5
330
17
100
AcDbEntity
  8
SARR_2.2x7
 62
7
370
25
100
AcDbLine
 10
6122.91705211019
 20
7707.739447168283
 30
0.0
 11
6018.8648864621
 21
7707.739447168477
 31
0.0
  0
LINE
  5
C6
330
17
100
AcDbEntity
  8
SARR_2.2x7
 62
7
370
25
100
AcDbLine
 10
7051.809502325461
 20
8224.736235220982
 30
0.0
 11
7218.840593306889
 21
8224.736235221255
 31
0.0
  0
LINE
  5
C7
330
17
100
AcDbEntity
  8
Painéis
 62
7
370
25
100
AcDbLine
 10
6807.809502325461
 20
8224.736235220982
 30
0.0
 11
6807.809502325461
 21
8269.736235220982
 31
0.0
  0
LINE
  5
C8
330
17
100
AcDbEntity
  8
Painéis
 62
7
370
25
100
AcDbLine
 10
6807.809502325461
 20
8269.736235220982
 30
0.0
 11
7225.809502325461
 21
8269.736235220982
 31
0.0
  0
LINE
  5
C9
330
17
100
AcDbEntity
  8
Painéis
 62
7
370
25
100
AcDbLine
 10
7225.809502325461
 20
8269.736235220982
 30
0.0
 11
7225.809502325461
 21
8159.736235220981
 31
0.0
  0
LINE
  5
CA
330
17
100
AcDbEntity
  8
Painéis
 62
7
370
25
100
AcDbLine
 10
7225.809502325461
 20
8159.736235220981
 30
0.0
 11
7108.309502325461
 21
8159.736235220981
 31
0.0
  0
LINE
  5
CB
330
17
100
AcDbEntity
  8
Painéis
 62
7
370
25
100
AcDbLine
 10
7108.309502325461
 20
8159.736235220981
 30
0.0
 11
7108.309502325457
 21
8224.736235220982
 31
0.0
  0
LINE
  5
CC
330
17
100
AcDbEntity
  8
Painéis
 62
7
370
25
100
AcDbLine
 10
7108.309502325461
 20
8224.736235220982
 30
0.0
 11
6807.809502325461
 21
8224.736235220982
 31
0.0
  0
LINE
  5
CD
330
17
100
AcDbEntity
  8
SARR_2.2x7
 62
7
370
25
100
AcDbLine
 10
7115.309502325461
 20
8159.736235220981
 30
0.0
 11
7115.309502325461
 21
8224.736235220982
 31
0.0
  0
LINE
  5
CE
330
17
100
AcDbEntity
  8
SARR_2.2x7
 62
7
370
25
100
AcDbLine
 10
7108.309502325461
 20
8224.736235220982
 30
0.0
 11
7115.309502325461
 21
8224.736235220982
 31
0.0
  0
LINE
  5
CF
330
17
100
AcDbEntity
  8
Painéis
 62
7
370
25
100
AcDbLine
 10
7051.809502325461
 20
8224.736235220982
 30
0.0
 11
7051.809502325461
 21
8269.736235220982
 31
0.0
  0
LINE
  5
D0
330
17
100
AcDbEntity
  8
SARR_2.2x7
 62
7
370
25
100
AcDbLine
 10
6814.764361566279
 20
8262.736235221075
 30
0.0
 11
7051.809502325465
 21
8262.73623522109
 31
0.0
  0
LINE
  5
D1
330
17
100
AcDbEntity
  8
SARR_2.2x7
 62
7
370
25
100
AcDbLine
 10
6814.764361566282
 20
8225.736235220978
 30
0.0
 11
6814.764361566279
 21
8269.736235220982
 31
0.0
  0
LINE
  5
D2
330
17
100
AcDbEntity
  8
SARR_2.2x7
 62
7
370
25
100
AcDbLine
 10
6814.764361566279
 20
8232.73623522091
 30
0.0
 11
7051.809502325465
 21
8232.73623522089
 31
0.0
  0
LINE
  5
D3
330
17
100
AcDbEntity
  8
SARR_2.2x7
 62
7
370
25
100
AcDbLine
 10
6814.764361566282
 20
8244.23623522163
 30
0.0
 11
7051.809502325465
 21
8244.236235221179
 31
0.0
  0
LINE
  5
D4
330
17
100
AcDbEntity
  8
SARR_2.2x7
 62
7
370
25
100
AcDbLine
 10
6814.764361566282
 20
8251.236235220878
 30
0.0
 11
7051.809502325465
 21
8251.236235221331
 31
0.0
  0
LINE
  5
D5
330
17
100
AcDbEntity
  8
SARR_2.2x7
 62
7
370
25
100
AcDbLine
 10
7051.823552103222
 20
8262.736235221066
 30
0.0
 11
7218.854643084651
 21
8262.736235220813
 31
0.0
  0
LINE
  5
D6
330
17
100
AcDbEntity
  8
SARR_2.2x7
 62
7
370
25
100
AcDbLine
 10
7218.854643084644
 20
8159.736235220981
 30
0.0
 11
7218.854643084654
 21
8269.736235220964
 31
0.0
  0
LINE
  5
D7
330
17
100
AcDbEntity
  8
SARR_2.2x7
 62
7
370
25
100
AcDbLine
 10
7051.823552103222
 20
8232.736235220866
 30
0.0
 11
7218.854643084651
 21
8232.736235221137
 31
0.0
  0
LINE
  5
D8
330
17
100
AcDbEntity
  8
SARR_2.2x7
 62
7
370
25
100
AcDbLine
 10
7051.823552103225
 20
8244.236235221619
 30
0.0
 11
7218.854643084651
 21
8244.236235221348
 31
0.0
  0
LINE
  5
D9
330
17
100
AcDbEntity
  8
SARR_2.2x7
 62
7
370
25
100
AcDbLine
 10
7051.823552103225
 20
8251.236235220871
 30
0.0
 11
7218.854643084651
 21
8251.236235221162
 31
0.0
  0
LINE
  5
DA
330
17
100
AcDbEntity
  8
SARR_2.2x7
 62
7
370
25
100
AcDbLine
 10
7108.309502325461
 20
8167.736235220683
 30
0.0
 11
7218.868692862405
 21
8167.736235220864
 31
0.0
  0
LINE
  5
DB
330
17
100
AcDbEntity
  8
SARR_2.2x7
 62
7
370
25
100
AcDbLine
 10
7108.309502325458
 20
8192.736235221337
 30
0.0
 11
7218.86166797355
 21
8192.736235221151
 31
0.0
  0
LINE
  5
DC
330
17
100
AcDbEntity
  8
SARR_2.2x7
 62
7
370
25
100
AcDbLine
 10
7108.309502325458
 20
8199.736235220773
 30
0.0
 11
7218.86166797355
 21
8199.736235220964
 31
0.0
  0
LINE
  5
DD
330
17
100
AcDbEntity
  8
SARR_2.2x7
 62
7
370
25
100
AcDbLine
 10
7429.788339776478
 20
8224.736235220982
 30
0.0
 11
7361.75724879505
 21
8224.736235221255
 31
0.0
  0
LINE
  5
DE
330
17
100
AcDbEntity
  8
Painéis
 62
7
370
25
100
AcDbLine
 10
7673.788339776478
 20
8224.736235220982
 30
0.0
 11
7673.788339776478
 21
8268.736235220982
 31
0.0
  0
LINE
  5
DF
330
17
100
AcDbEntity
  8
Painéis
 62
7
370
25
100
AcDbLine
 10
7673.788339776478
 20
8268.736235220982
 30
0.0
 11
7354.788339776478
 21
8268.736235220982
 31
0.0
  0
LINE
  5
E0
330
17
100
AcDbEntity
  8
Painéis
 62
7
370
25
100
AcDbLine
 10
7354.788339776478
 20
8268.736235220982
 30
0.0
 11
7354.788339776478
 21
8159.736235220981
 31
0.0
  0
LINE
  5
E1
330
17
100
AcDbEntity
  8
Painéis
 62
7
370
25
100
AcDbLine
 10
7354.788339776478
 20
8159.736235220981
 30
0.0
 11
7407.288339776478
 21
8159.736235220981
 31
0.0
  0
LINE
  5
E2
330
17
100
AcDbEntity
  8
Painéis
 62
7
370
25
100
AcDbLine
 10
7407.288339776478
 20
8159.736235220981
 30
0.0
 11
7407.288339776481
 21
8224.736235220982
 31
0.0
  0
LINE
  5
E3
330
17
100
AcDbEntity
  8
Painéis
 62
7
370
25
100
AcDbLine
 10
7407.288339776478
 20
8224.736235220982
 30
0.0
 11
7673.788339776478
 21
8224.736235220982
 31
0.0
  0
LINE
  5
E4
330
17
100
AcDbEntity
  8
SARR_2.2x7
 62
7
370
25
100
AcDbLine
 10
7400.288339776477
 20
8159.736235220981
 30
0.0
 11
7400.288339776477
 21
8224.736235220982
 31
0.0
  0
LINE
  5
E5
330
17
100
AcDbEntity
  8
SARR_2.2x7
 62
7
370
25
100
AcDbLine
 10
7407.288339776478
 20
8224.736235220982
 30
0.0
 11
7400.288339776477
 21
8224.736235220982
 31
0.0
  0
LINE
  5
E6
330
17
100
AcDbEntity
  8
Painéis
 62
7
370
25
100
AcDbLine
 10
7429.788339776478
 20
8224.736235220982
 30
0.0
 11
7429.788339776478
 21
8268.736235220982
 31
0.0
  0
LINE
  5
E7
330
17
100
AcDbEntity
  8
SARR_2.2x7
 62
7
370
25
100
AcDbLine
 10
7673.788339776478
 20
8261.736235221073
 30
0.0
 11
7429.788339776475
 21
8261.736235221091
 31
0.0
  0
LINE
  5
E8
330
17
100
AcDbEntity
  8
SARR_2.2x7
 62
7
370
25
100
AcDbLine
 10
7666.833480535657
 20
8224.736235220982
 30
0.0
 11
7666.833480535661
 21
8268.736235220982
 31
0.0
  0
LINE
  5
E9
330
17
100
AcDbEntity
  8
SARR_2.2x7
 62
7
370
25
100
AcDbLine
 10
7673.788339776478
 20
8232.73623522091
 30
0.0
 11
7429.788339776475
 21
8232.73623522089
 31
0.0
  0
LINE
  5
EA
330
17
100
AcDbEntity
  8
SARR_2.2x7
 62
7
370
25
100
AcDbLine
 10
7673.788339776478
 20
8244.236235221644
 30
0.0
 11
7429.788339776475
 21
8244.236235221179
 31
0.0
  0
LINE
  5
EB
330
17
100
AcDbEntity
  8
SARR_2.2x7
 62
7
370
25
100
AcDbLine
 10
7673.788339776478
 20
8251.23623522087
 30
0.0
 11
7429.788339776475
 21
8251.236235221331
 31
0.0
  0
LINE
  5
EC
330
17
100
AcDbEntity
  8
SARR_2.2x7
 62
7
370
25
100
AcDbLine
 10
7429.774289998717
 20
8261.736235221066
 30
0.0
 11
7361.743199017289
 21
8261.736235220813
 31
0.0
  0
LINE
  5
ED
330
17
100
AcDbEntity
  8
SARR_2.2x7
 62
7
370
25
100
AcDbLine
 10
7361.743199017296
 20
8159.736235220981
 30
0.0
 11
7361.743199017285
 21
8268.736235220966
 31
0.0
  0
LINE
  5
EE
330
17
100
AcDbEntity
  8
SARR_2.2x7
 62
7
370
25
100
AcDbLine
 10
7429.774289998717
 20
8232.736235220866
 30
0.0
 11
7361.743199017289
 21
8232.736235221137
 31
0.0
  0
LINE
  5
EF
330
17
100
AcDbEntity
  8
SARR_2.2x7
 62
7
370
25
100
AcDbLine
 10
7429.774289998714
 20
8244.236235221619
 30
0.0
 11
7361.743199017289
 21
8244.236235221348
 31
0.0
  0
LINE
  5
F0
330
17
100
AcDbEntity
  8
SARR_2.2x7
 62
7
370
25
100
AcDbLine
 10
7429.774289998714
 20
8251.236235220871
 30
0.0
 11
7361.743199017289
 21
8251.236235221162
 31
0.0
  0
LINE
  5
F1
330
17
100
AcDbEntity
  8
SARR_2.2x7
 62
7
370
25
100
AcDbLine
 10
7407.288339776478
 20
8167.736235220683
 30
0.0
 11
7361.729149239534
 21
8167.736235220864
 31
0.0
  0
LINE
  5
F2
330
17
100
AcDbEntity
  8
SARR_2.2x7
 62
7
370
25
100
AcDbLine
 10
7407.28833977648
 20
8192.736235221337
 30
0.0
 11
7361.73617412839
 21
8192.736235221151
 31
0.0
  0
LINE
  5
F3
330
17
100
AcDbEntity
  8
SARR_2.2x7
 62
7
370
25
100
AcDbLine
 10
7407.28833977648
 20
8199.736235220773
 30
0.0
 11
7361.73617412839
 21
8199.736235220964
 31
0.0
  0
LINE
  5
F4
330
17
100
AcDbEntity
  8
Defpoints
 62
7
370
25
100
AcDbLine
 10
5291.151267778125
 20
8197.821123599582
 30
0.0
 11
5291.151267778125
 21
8322.821123599582
 31
0.0
  0
LINE
  5
F5
330
17
100
AcDbEntity
  8
Painéis
 62
7
370
25
100
AcDbLine
 10
7978.915069568346
 20
8247.171131930587
 30
0.0
 11
7940.960051452262
 21
8247.171131930587
 31
0.0
  0
LINE
  5
F6
330
17
100
AcDbEntity
  8
Painéis
 62
7
370
25
100
AcDbLine
 10
7978.915069568346
 20
8117.171131930595
 30
0.0
 11
7940.976213228876
 21
8117.171131930586
 31
0.0
  0
LINE
  5
F7
330
17
100
AcDbEntity
  8
Painéis
 62
7
370
25
100
AcDbLine
 10
7940.976213228876
 20
8117.171131930586
 30
0.0
 11
7940.960051452262
 21
8247.171131930587
 31
0.0
  0
LINE
  5
F8
330
17
100
AcDbEntity
  8
Painéis
 62
7
370
25
100
AcDbLine
 10
7978.915069568346
 20
8247.171131930587
 30
0.0
 11
7978.915069568346
 21
8117.171131930595
 31
0.0
  0
LINE
  5
F9
330
17
100
AcDbEntity
  8
SARR_2.2x7
 62
7
370
25
100
AcDbLine
 10
2744.484818166249
 20
6763.640270757568
 30
0.0
 11
2589.95372718482
 21
6763.640270757841
 31
0.0
  0
LINE
  5
FA
330
17
100
AcDbEntity
  8
Painéis
 62
7
370
25
100
AcDbLine
 10
2988.484818166249
 20
6763.640270757568
 30
0.0
 11
2988.484818166249
 21
6801.64027075757
 31
0.0
  0
LINE
  5
FB
330
17
100
AcDbEntity
  8
Painéis
 62
7
370
25
100
AcDbLine
 10
2988.484818166249
 20
6801.64027075757
 30
0.0
 11
2582.984818166249
 21
6801.64027075757
 31
0.0
  0
LINE
  5
FC
330
17
100
AcDbEntity
  8
Painéis
 62
7
370
25
100
AcDbLine
 10
2582.984818166249
 20
6801.64027075757
 30
0.0
 11
2582.984818166249
 21
6698.640270757569
 31
0.0
  0
LINE
  5
FD
330
17
100
AcDbEntity
  8
Painéis
 62
7
370
25
100
AcDbLine
 10
2582.984818166249
 20
6698.640270757569
 30
0.0
 11
2693.984818166249
 21
6698.640270757569
 31
0.0
  0
LINE
  5
FE
330
17
100
AcDbEntity
  8
Painéis
 62
7
370
25
100
AcDbLine
 10
2693.984818166249
 20
6698.640270757569
 30
0.0
 11
2693.984818166253
 21
6763.640270757568
 31
0.0
  0
LINE
  5
FF
330
17
100
AcDbEntity
  8
Painéis
 62
7
370
25
100
AcDbLine
 10
2693.984818166249
 20
6763.640270757568
 30
0.0
 11
2988.484818166249
 21
6763.640270757568
 31
0.0
  0
LINE
  5
100
330
17
100
AcDbEntity
  8
SARR_2.2x7
 62
7
370
25
100
AcDbLine
 10
2686.984818166249
 20
6698.640270757569
 30
0.0
 11
2686.984818166249
 21
6763.640270757571
 31
0.0
  0
LINE
  5
101
330
17
100
AcDbEntity
  8
SARR_2.2x7
 62
7
370
25
100
AcDbLine
 10
2693.984818166249
 20
6763.640270757568
 30
0.0
 11
2686.984818166249
 21
6763.640270757571
 31
0.0
  0
LINE
  5
102
330
17
100
AcDbEntity
  8
Painéis
 62
7
370
25
100
AcDbLine
 10
2744.484818166249
 20
6763.640270757568
 30
0.0
 11
2744.484818166249
 21
6801.64027075757
 31
0.0
  0
LINE
  5
103
330
17
100
AcDbEntity
  8
SARR_2.2x7
 62
7
370
25
100
AcDbLine
 10
2981.529958925432
 20
6794.64027075766
 30
0.0
 11
2744.484818166246
 21
6794.640270757678
 31
0.0
  0
LINE
  5
104
330
17
100
AcDbEntity
  8
SARR_2.2x7
 62
7
370
25
100
AcDbLine
 10
2981.529958925428
 20
6764.640270757566
 30
0.0
 11
2981.529958925432
 21
6801.64027075757
 31
0.0
  0
LINE
  5
105
330
17
100
AcDbEntity
  8
SARR_2.2x7
 62
7
370
25
100
AcDbLine
 10
2981.529958925432
 20
6771.640270757496
 30
0.0
 11
2744.484818166246
 21
6771.640270757479
 31
0.0
  0
LINE
  5
106
330
17
100
AcDbEntity
  8
SARR_2.2x7
 62
7
370
25
100
AcDbLine
 10
2744.470768388489
 20
6794.640270757652
 30
0.0
 11
2589.939677407059
 21
6794.640270757398
 31
0.0
  0
LINE
  5
107
330
17
100
AcDbEntity
  8
SARR_2.2x7
 62
7
370
25
100
AcDbLine
 10
2589.939677407067
 20
6698.640270757569
 30
0.0
 11
2589.939677407056
 21
6801.640270757551
 31
0.0
  0
LINE
  5
108
330
17
100
AcDbEntity
  8
SARR_2.2x7
 62
7
370
25
100
AcDbLine
 10
2744.470768388489
 20
6771.640270757453
 30
0.0
 11
2589.939677407059
 21
6771.640270757726
 31
0.0
  0
LINE
  5
109
330
17
100
AcDbEntity
  8
SARR_2.2x7
 62
7
370
25
100
AcDbLine
 10
2693.984818166249
 20
6706.64027075727
 30
0.0
 11
2589.925627629306
 21
6706.640270757453
 31
0.0
  0
LINE
  5
10A
330
17
100
AcDbEntity
  8
SARR_2.2x7
 62
7
370
25
100
AcDbLine
 10
2693.984818166252
 20
6731.640270757925
 30
0.0
 11
2589.932652518161
 21
6731.640270757743
 31
0.0
  0
LINE
  5
10B
330
17
100
AcDbEntity
  8
SARR_2.2x7
 62
7
370
25
100
AcDbLine
 10
2693.984818166252
 20
6738.640270757359
 30
0.0
 11
2589.932652518161
 21
6738.640270757554
 31
0.0
  0
LINE
  5
10C
330
17
100
AcDbEntity
  8
SARR_2.2x7
 62
7
370
25
100
AcDbLine
 10
2285.021326950704
 20
6764.640270757569
 30
0.0
 11
2452.052417932133
 21
6764.640270757841
 31
0.0
  0
LINE
  5
10D
330
17
100
AcDbEntity
  8
Painéis
 62
7
370
25
100
AcDbLine
 10
2041.021326950704
 20
6764.640270757569
 30
0.0
 11
2041.021326950704
 21
6802.640270757568
 31
0.0
  0
LINE
  5
10E
330
17
100
AcDbEntity
  8
Painéis
 62
7
370
25
100
AcDbLine
 10
2041.021326950704
 20
6802.640270757568
 30
0.0
 11
2459.021326950704
 21
6802.640270757568
 31
0.0
  0
LINE
  5
10F
330
17
100
AcDbEntity
  8
Painéis
 62
7
370
25
100
AcDbLine
 10
2459.021326950704
 20
6802.640270757568
 30
0.0
 11
2459.021326950704
 21
6699.640270757569
 31
0.0
  0
LINE
  5
110
330
17
100
AcDbEntity
  8
Painéis
 62
7
370
25
100
AcDbLine
 10
2459.021326950704
 20
6699.640270757569
 30
0.0
 11
2348.021326950704
 21
6699.640270757569
 31
0.0
  0
LINE
  5
111
330
17
100
AcDbEntity
  8
Painéis
 62
7
370
25
100
AcDbLine
 10
2348.021326950704
 20
6699.640270757569
 30
0.0
 11
2348.0213269507
 21
6764.640270757569
 31
0.0
  0
LINE
  5
112
330
17
100
AcDbEntity
  8
Painéis
 62
7
370
25
100
AcDbLine
 10
2348.021326950704
 20
6764.640270757569
 30
0.0
 11
2041.021326950704
 21
6764.640270757569
 31
0.0
  0
LINE
  5
113
330
17
100
AcDbEntity
  8
SARR_2.2x7
 62
7
370
25
100
AcDbLine
 10
2355.021326950704
 20
6699.640270757569
 30
0.0
 11
2355.021326950704
 21
6764.640270757571
 31
0.0
  0
LINE
  5
114
330
17
100
AcDbEntity
  8
SARR_2.2x7
 62
7
370
25
100
AcDbLine
 10
2348.021326950704
 20
6764.640270757569
 30
0.0
 11
2355.021326950704
 21
6764.640270757571
 31
0.0
  0
LINE
  5
115
330
17
100
AcDbEntity
  8
Painéis
 62
7
370
25
100
AcDbLine
 10
2285.021326950704
 20
6764.640270757569
 30
0.0
 11
2285.021326950704
 21
6802.640270757568
 31
0.0
  0
LINE
  5
116
330
17
100
AcDbEntity
  8
SARR_2.2x7
 62
7
370
25
100
AcDbLine
 10
2047.976186191521
 20
6795.64027075766
 30
0.0
 11
2285.021326950708
 21
6795.640270757679
 31
0.0
  0
LINE
  5
117
330
17
100
AcDbEntity
  8
SARR_2.2x7
 62
7
370
25
100
AcDbLine
 10
2047.976186191525
 20
6765.640270757565
 30
0.0
 11
2047.976186191521
 21
6802.640270757568
 31
0.0
  0
LINE
  5
118
330
17
100
AcDbEntity
  8
SARR_2.2x7
 62
7
370
25
100
AcDbLine
 10
2047.976186191521
 20
6772.640270757496
 30
0.0
 11
2285.021326950708
 21
6772.640270757477
 31
0.0
  0
LINE
  5
119
330
17
100
AcDbEntity
  8
SARR_2.2x7
 62
7
370
25
100
AcDbLine
 10
2285.035376728465
 20
6795.640270757653
 30
0.0
 11
2452.066467709894
 21
6795.640270757399
 31
0.0
  0
LINE
  5
11A
330
17
100
AcDbEntity
  8
SARR_2.2x7
 62
7
370
25
100
AcDbLine
 10
2452.066467709889
 20
6699.640270757569
 30
0.0
 11
2452.066467709898
 21
6802.640270757551
 31
0.0
  0
LINE
  5
11B
330
17
100
AcDbEntity
  8
SARR_2.2x7
 62
7
370
25
100
AcDbLine
 10
2285.035376728465
 20
6772.640270757452
 30
0.0
 11
2452.066467709894
 21
6772.640270757725
 31
0.0
  0
LINE
  5
11C
330
17
100
AcDbEntity
  8
SARR_2.2x7
 62
7
370
25
100
AcDbLine
 10
2348.021326950704
 20
6707.640270757271
 30
0.0
 11
2452.08051748765
 21
6707.640270757453
 31
0.0
  0
LINE
  5
11D
330
17
100
AcDbEntity
  8
SARR_2.2x7
 62
7
370
25
100
AcDbLine
 10
2348.021326950704
 20
6732.640270757926
 30
0.0
 11
2452.073492598793
 21
6732.640270757745
 31
0.0
  0
LINE
  5
11E
330
17
100
AcDbEntity
  8
SARR_2.2x7
 62
7
370
25
100
AcDbLine
 10
2348.021326950704
 20
6739.64027075736
 30
0.0
 11
2452.073492598793
 21
6739.640270757554
 31
0.0
  0
LINE
  5
11F
330
17
100
AcDbEntity
  8
SARR_2.2x7
 62
7
370
25
100
AcDbLine
 10
2749.260329221539
 20
7044.305818158871
 30
0.0
 11
2582.22923824011
 21
7044.305818159144
 31
0.0
  0
LINE
  5
120
330
17
100
AcDbEntity
  8
Painéis
 62
7
370
25
100
AcDbLine
 10
2993.260329221539
 20
7044.305818158871
 30
0.0
 11
2993.260329221539
 21
7082.305818158872
 31
0.0
  0
LINE
  5
121
330
17
100
AcDbEntity
  8
Painéis
 62
7
370
25
100
AcDbLine
 10
2993.260329221539
 20
7082.305818158872
 30
0.0
 11
2575.260329221539
 21
7082.305818158872
 31
0.0
  0
LINE
  5
122
330
17
100
AcDbEntity
  8
Painéis
 62
7
370
25
100
AcDbLine
 10
2575.260329221539
 20
7082.305818158872
 30
0.0
 11
2575.260329221539
 21
6979.305818158872
 31
0.0
  0
LINE
  5
123
330
17
100
AcDbEntity
  8
Painéis
 62
7
370
25
100
AcDbLine
 10
2575.260329221539
 20
6979.305818158872
 30
0.0
 11
2686.260329221539
 21
6979.305818158872
 31
0.0
  0
LINE
  5
124
330
17
100
AcDbEntity
  8
Painéis
 62
7
370
25
100
AcDbLine
 10
2686.260329221539
 20
6979.305818158872
 30
0.0
 11
2686.260329221543
 21
7044.305818158871
 31
0.0
  0
LINE
  5
125
330
17
100
AcDbEntity
  8
Painéis
 62
7
370
25
100
AcDbLine
 10
2686.260329221539
 20
7044.305818158871
 30
0.0
 11
2993.260329221539
 21
7044.305818158871
 31
0.0
  0
LINE
  5
126
330
17
100
AcDbEntity
  8
SARR_2.2x7
 62
7
370
25
100
AcDbLine
 10
2679.260329221539
 20
6979.305818158872
 30
0.0
 11
2679.260329221539
 21
7044.305818158874
 31
0.0
  0
LINE
  5
127
330
17
100
AcDbEntity
  8
SARR_2.2x7
 62
7
370
25
100
AcDbLine
 10
2686.260329221539
 20
7044.305818158871
 30
0.0
 11
2679.260329221539
 21
7044.305818158874
 31
0.0
  0
LINE
  5
128
330
17
100
AcDbEntity
  8
Painéis
 62
7
370
25
100
AcDbLine
 10
2749.260329221539
 20
7044.305818158871
 30
0.0
 11
2749.260329221539
 21
7082.305818158872
 31
0.0
  0
LINE
  5
129
330
17
100
AcDbEntity
  8
SARR_2.2x7
 62
7
370
25
100
AcDbLine
 10
2986.305469980722
 20
7075.305818158962
 30
0.0
 11
2749.260329221535
 21
7075.30581815898
 31
0.0
  0
LINE
  5
12A
330
17
100
AcDbEntity
  8
SARR_2.2x7
 62
7
370
25
100
AcDbLine
 10
2986.305469980718
 20
7045.305818158867
 30
0.0
 11
2986.305469980722
 21
7082.305818158872
 31
0.0
  0
LINE
  5
12B
330
17
100
AcDbEntity
  8
SARR_2.2x7
 62
7
370
25
100
AcDbLine
 10
2986.305469980722
 20
7052.305818158798
 30
0.0
 11
2749.260329221535
 21
7052.30581815878
 31
0.0
  0
LINE
  5
12C
330
17
100
AcDbEntity
  8
SARR_2.2x7
 62
7
370
25
100
AcDbLine
 10
2749.246279443778
 20
7075.305818158955
 30
0.0
 11
2582.215188462349
 21
7075.3058181587
 31
0.0
  0
LINE
  5
12D
330
17
100
AcDbEntity
  8
SARR_2.2x7
 62
7
370
25
100
AcDbLine
 10
2582.215188462356
 20
6979.305818158872
 30
0.0
 11
2582.215188462346
 21
7082.305818158854
 31
0.0
  0
LINE
  5
12E
330
17
100
AcDbEntity
  8
SARR_2.2x7
 62
7
370
25
100
AcDbLine
 10
2749.246279443778
 20
7052.305818158754
 30
0.0
 11
2582.215188462349
 21
7052.305818159027
 31
0.0
  0
LINE
  5
12F
330
17
100
AcDbEntity
  8
SARR_2.2x7
 62
7
370
25
100
AcDbLine
 10
2686.260329221539
 20
6987.305818158573
 30
0.0
 11
2582.201138684596
 21
6987.305818158755
 31
0.0
  0
LINE
  5
130
330
17
100
AcDbEntity
  8
SARR_2.2x7
 62
7
370
25
100
AcDbLine
 10
2686.260329221541
 20
7012.305818159228
 30
0.0
 11
2582.20816357345
 21
7012.305818159046
 31
0.0
  0
LINE
  5
131
330
17
100
AcDbEntity
  8
SARR_2.2x7
 62
7
370
25
100
AcDbLine
 10
2686.260329221541
 20
7019.305818158662
 30
0.0
 11
2582.20816357345
 21
7019.305818158857
 31
0.0
  0
LINE
  5
132
330
17
100
AcDbEntity
  8
SARR_2.2x7
 62
7
370
25
100
AcDbLine
 10
2289.494922535862
 20
7043.305818158872
 30
0.0
 11
2456.526013517291
 21
7043.305818159145
 31
0.0
  0
LINE
  5
133
330
17
100
AcDbEntity
  8
Painéis
 62
7
370
25
100
AcDbLine
 10
2045.494922535862
 20
7043.305818158872
 30
0.0
 11
2045.494922535862
 21
7081.305818158871
 31
0.0
  0
LINE
  5
134
330
17
100
AcDbEntity
  8
Painéis
 62
7
370
25
100
AcDbLine
 10
2045.494922535862
 20
7081.305818158871
 30
0.0
 11
2463.494922535862
 21
7081.305818158871
 31
0.0
  0
LINE
  5
135
330
17
100
AcDbEntity
  8
Painéis
 62
7
370
25
100
AcDbLine
 10
2463.494922535862
 20
7081.305818158871
 30
0.0
 11
2463.494922535862
 21
6978.305818158871
 31
0.0
  0
LINE
  5
136
330
17
100
AcDbEntity
  8
Painéis
 62
7
370
25
100
AcDbLine
 10
2463.494922535862
 20
6978.305818158871
 30
0.0
 11
2352.494922535862
 21
6978.305818158871
 31
0.0
  0
LINE
  5
137
330
17
100
AcDbEntity
  8
Painéis
 62
7
370
25
100
AcDbLine
 10
2352.494922535862
 20
6978.305818158871
 30
0.0
 11
2352.494922535858
 21
7043.305818158872
 31
0.0
  0
LINE
  5
138
330
17
100
AcDbEntity
  8
Painéis
 62
7
370
25
100
AcDbLine
 10
2352.494922535862
 20
7043.305818158872
 30
0.0
 11
2045.494922535862
 21
7043.305818158872
 31
0.0
  0
LINE
  5
139
330
17
100
AcDbEntity
  8
SARR_2.2x7
 62
7
370
25
100
AcDbLine
 10
2359.494922535862
 20
6978.305818158871
 30
0.0
 11
2359.494922535862
 21
7043.305818158874
 31
0.0
  0
LINE
  5
13A
330
17
100
AcDbEntity
  8
SARR_2.2x7
 62
7
370
25
100
AcDbLine
 10
2352.494922535862
 20
7043.305818158872
 30
0.0
 11
2359.494922535862
 21
7043.305818158874
 31
0.0
  0
LINE
  5
13B
330
17
100
AcDbEntity
  8
Painéis
 62
7
370
25
100
AcDbLine
 10
2289.494922535862
 20
7043.305818158872
 30
0.0
 11
2289.494922535862
 21
7081.305818158871
 31
0.0
  0
LINE
  5
13C
330
17
100
AcDbEntity
  8
SARR_2.2x7
 62
7
370
25
100
AcDbLine
 10
2052.449781776679
 20
7074.305818158961
 30
0.0
 11
2289.494922535865
 21
7074.30581815898
 31
0.0
  0
LINE
  5
13D
330
17
100
AcDbEntity
  8
SARR_2.2x7
 62
7
370
25
100
AcDbLine
 10
2052.449781776683
 20
7044.305818158868
 30
0.0
 11
2052.449781776679
 21
7081.305818158871
 31
0.0
  0
LINE
  5
13E
330
17
100
AcDbEntity
  8
SARR_2.2x7
 62
7
370
25
100
AcDbLine
 10
2052.449781776679
 20
7051.305818158799
 30
0.0
 11
2289.494922535865
 21
7051.30581815878
 31
0.0
  0
LINE
  5
13F
330
17
100
AcDbEntity
  8
SARR_2.2x7
 62
7
370
25
100
AcDbLine
 10
2289.508972313623
 20
7074.305818158954
 30
0.0
 11
2456.540063295051
 21
7074.3058181587
 31
0.0
  0
LINE
  5
140
330
17
100
AcDbEntity
  8
SARR_2.2x7
 62
7
370
25
100
AcDbLine
 10
2456.540063295044
 20
6978.305818158871
 30
0.0
 11
2456.540063295055
 21
7081.305818158853
 31
0.0
  0
LINE
  5
141
330
17
100
AcDbEntity
  8
SARR_2.2x7
 62
7
370
25
100
AcDbLine
 10
2289.508972313623
 20
7051.305818158756
 30
0.0
 11
2456.540063295051
 21
7051.305818159028
 31
0.0
  0
LINE
  5
142
330
17
100
AcDbEntity
  8
SARR_2.2x7
 62
7
370
25
100
AcDbLine
 10
2352.494922535862
 20
6986.305818158573
 30
0.0
 11
2456.554113072805
 21
6986.305818158754
 31
0.0
  0
LINE
  5
143
330
17
100
AcDbEntity
  8
SARR_2.2x7
 62
7
370
25
100
AcDbLine
 10
2352.49492253586
 20
7011.305818159228
 30
0.0
 11
2456.54708818395
 21
7011.305818159046
 31
0.0
  0
LINE
  5
144
330
17
100
AcDbEntity
  8
SARR_2.2x7
 62
7
370
25
100
AcDbLine
 10
2352.49492253586
 20
7018.305818158662
 30
0.0
 11
2456.54708818395
 21
7018.305818158856
 31
0.0
  0
LINE
  5
145
330
17
100
AcDbEntity
  8
SARR_2.2x7
 62
7
370
25
100
AcDbLine
 10
7489.886698059982
 20
7700.598183980599
 30
0.0
 11
7322.855607078553
 21
7700.598183980872
 31
0.0
  0
LINE
  5
146
330
17
100
AcDbEntity
  8
Painéis
 62
7
370
25
100
AcDbLine
 10
7733.886698059982
 20
7700.598183980599
 30
0.0
 11
7733.886698059982
 21
7738.598183980599
 31
0.0
  0
LINE
  5
147
330
17
100
AcDbEntity
  8
Painéis
 62
7
370
25
100
AcDbLine
 10
7733.886698059982
 20
7738.598183980599
 30
0.0
 11
7315.886698059981
 21
7738.598183980599
 31
0.0
  0
LINE
  5
148
330
17
100
AcDbEntity
  8
Painéis
 62
7
370
25
100
AcDbLine
 10
7315.886698059981
 20
7738.598183980599
 30
0.0
 11
7315.886698059981
 21
7635.598183980599
 31
0.0
  0
LINE
  5
149
330
17
100
AcDbEntity
  8
Painéis
 62
7
370
25
100
AcDbLine
 10
7315.886698059981
 20
7635.598183980599
 30
0.0
 11
7426.886698059981
 21
7635.598183980599
 31
0.0
  0
LINE
  5
14A
330
17
100
AcDbEntity
  8
Painéis
 62
7
370
25
100
AcDbLine
 10
7426.886698059981
 20
7635.598183980599
 30
0.0
 11
7426.886698059985
 21
7700.598183980599
 31
0.0
  0
LINE
  5
14B
330
17
100
AcDbEntity
  8
Painéis
 62
7
370
25
100
AcDbLine
 10
7426.886698059981
 20
7700.598183980599
 30
0.0
 11
7733.886698059982
 21
7700.598183980599
 31
0.0
  0
LINE
  5
14C
330
17
100
AcDbEntity
  8
SARR_2.2x7
 62
7
370
25
100
AcDbLine
 10
7419.886698059982
 20
7635.598183980599
 30
0.0
 11
7419.886698059982
 21
7700.598183980601
 31
0.0
  0
LINE
  5
14D
330
17
100
AcDbEntity
  8
SARR_2.2x7
 62
7
370
25
100
AcDbLine
 10
7426.886698059981
 20
7700.598183980599
 30
0.0
 11
7419.886698059982
 21
7700.598183980601
 31
0.0
  0
LINE
  5
14E
330
17
100
AcDbEntity
  8
Painéis
 62
7
370
25
100
AcDbLine
 10
7489.886698059982
 20
7700.598183980599
 30
0.0
 11
7489.886698059982
 21
7738.598183980599
 31
0.0
  0
LINE
  5
14F
330
17
100
AcDbEntity
  8
SARR_2.2x7
 62
7
370
25
100
AcDbLine
 10
7726.931838819165
 20
7731.59818398069
 30
0.0
 11
7489.886698059978
 21
7731.598183980707
 31
0.0
  0
LINE
  5
150
330
17
100
AcDbEntity
  8
SARR_2.2x7
 62
7
370
25
100
AcDbLine
 10
7726.931838819161
 20
7701.598183980596
 30
0.0
 11
7726.931838819165
 21
7738.598183980599
 31
0.0
  0
LINE
  5
151
330
17
100
AcDbEntity
  8
SARR_2.2x7
 62
7
370
25
100
AcDbLine
 10
7726.931838819165
 20
7708.598183980527
 30
0.0
 11
7489.886698059978
 21
7708.598183980509
 31
0.0
  0
LINE
  5
152
330
17
100
AcDbEntity
  8
SARR_2.2x7
 62
7
370
25
100
AcDbLine
 10
7489.872648282219
 20
7731.598183980683
 30
0.0
 11
7322.841557300792
 21
7731.598183980428
 31
0.0
  0
LINE
  5
153
330
17
100
AcDbEntity
  8
SARR_2.2x7
 62
7
370
25
100
AcDbLine
 10
7322.841557300799
 20
7635.598183980599
 30
0.0
 11
7322.841557300788
 21
7738.598183980581
 31
0.0
  0
LINE
  5
154
330
17
100
AcDbEntity
  8
SARR_2.2x7
 62
7
370
25
100
AcDbLine
 10
7489.872648282219
 20
7708.598183980483
 30
0.0
 11
7322.841557300792
 21
7708.598183980756
 31
0.0
  0
LINE
  5
155
330
17
100
AcDbEntity
  8
SARR_2.2x7
 62
7
370
25
100
AcDbLine
 10
7426.886698059981
 20
7643.598183980301
 30
0.0
 11
7322.827507523037
 21
7643.598183980483
 31
0.0
  0
LINE
  5
156
330
17
100
AcDbEntity
  8
SARR_2.2x7
 62
7
370
25
100
AcDbLine
 10
7426.886698059984
 20
7668.598183980956
 30
0.0
 11
7322.834532411893
 21
7668.598183980773
 31
0.0
  0
LINE
  5
157
330
17
100
AcDbEntity
  8
SARR_2.2x7
 62
7
370
25
100
AcDbLine
 10
7426.886698059984
 20
7675.598183980389
 30
0.0
 11
7322.834532411893
 21
7675.598183980584
 31
0.0
  0
LINE
  5
158
330
17
100
AcDbEntity
  8
SARR_2.2x7
 62
7
370
25
100
AcDbLine
 10
7030.121291374304
 20
7701.598183980599
 30
0.0
 11
7197.152382355733
 21
7701.598183980872
 31
0.0
  0
LINE
  5
159
330
17
100
AcDbEntity
  8
Painéis
 62
7
370
25
100
AcDbLine
 10
6786.121291374304
 20
7701.598183980599
 30
0.0
 11
6786.121291374304
 21
7741.598183980599
 31
0.0
  0
LINE
  5
15A
330
17
100
AcDbEntity
  8
Painéis
 62
7
370
25
100
AcDbLine
 10
6786.121291374304
 20
7741.598183980599
 30
0.0
 11
7204.121291374304
 21
7741.598183980599
 31
0.0
  0
LINE
  5
15B
330
17
100
AcDbEntity
  8
Painéis
 62
7
370
25
100
AcDbLine
 10
7204.121291374304
 20
7741.598183980599
 30
0.0
 11
7204.121291374304
 21
7636.598183980599
 31
0.0
  0
LINE
  5
15C
330
17
100
AcDbEntity
  8
Painéis
 62
7
370
25
100
AcDbLine
 10
7204.121291374304
 20
7636.598183980599
 30
0.0
 11
7093.121291374304
 21
7636.598183980599
 31
0.0
  0
LINE
  5
15D
330
17
100
AcDbEntity
  8
Painéis
 62
7
370
25
100
AcDbLine
 10
7093.121291374304
 20
7636.598183980599
 30
0.0
 11
7093.121291374301
 21
7701.598183980599
 31
0.0
  0
LINE
  5
15E
330
17
100
AcDbEntity
  8
Painéis
 62
7
370
25
100
AcDbLine
 10
7093.121291374304
 20
7701.598183980599
 30
0.0
 11
6786.121291374304
 21
7701.598183980599
 31
0.0
  0
LINE
  5
15F
330
17
100
AcDbEntity
  8
SARR_2.2x7
 62
7
370
25
100
AcDbLine
 10
7100.121291374304
 20
7636.598183980599
 30
0.0
 11
7100.121291374304
 21
7701.598183980602
 31
0.0
  0
LINE
  5
160
330
17
100
AcDbEntity
  8
SARR_2.2x7
 62
7
370
25
100
AcDbLine
 10
7093.121291374304
 20
7701.598183980599
 30
0.0
 11
7100.121291374304
 21
7701.598183980602
 31
0.0
  0
LINE
  5
161
330
17
100
AcDbEntity
  8
Painéis
 62
7
370
25
100
AcDbLine
 10
7030.121291374304
 20
7701.598183980599
 30
0.0
 11
7030.121291374304
 21
7741.598183980599
 31
0.0
  0
LINE
  5
162
330
17
100
AcDbEntity
  8
SARR_2.2x7
 62
7
370
25
100
AcDbLine
 10
6793.076150615121
 20
7734.59818398069
 30
0.0
 11
7030.121291374307
 21
7734.598183980708
 31
0.0
  0
LINE
  5
163
330
17
100
AcDbEntity
  8
SARR_2.2x7
 62
7
370
25
100
AcDbLine
 10
6793.076150615124
 20
7702.598183980595
 30
0.0
 11
6793.076150615121
 21
7741.598183980599
 31
0.0
  0
LINE
  5
164
330
17
100
AcDbEntity
  8
SARR_2.2x7
 62
7
370
25
100
AcDbLine
 10
6793.076150615121
 20
7709.598183980526
 30
0.0
 11
7030.121291374307
 21
7709.598183980507
 31
0.0
  0
LINE
  5
165
330
17
100
AcDbEntity
  8
SARR_2.2x7
 62
7
370
25
100
AcDbLine
 10
7030.135341152065
 20
7734.598183980683
 30
0.0
 11
7197.166432133494
 21
7734.598183980428
 31
0.0
  0
LINE
  5
166
330
17
100
AcDbEntity
  8
SARR_2.2x7
 62
7
370
25
100
AcDbLine
 10
7197.166432133487
 20
7636.598183980599
 30
0.0
 11
7197.166432133497
 21
7741.598183980581
 31
0.0
  0
LINE
  5
167
330
17
100
AcDbEntity
  8
SARR_2.2x7
 62
7
370
25
100
AcDbLine
 10
7030.135341152065
 20
7709.598183980482
 30
0.0
 11
7197.166432133494
 21
7709.598183980755
 31
0.0
  0
LINE
  5
168
330
17
100
AcDbEntity
  8
SARR_2.2x7
 62
7
370
25
100
AcDbLine
 10
7093.121291374304
 20
7644.598183980301
 30
0.0
 11
7197.180481911248
 21
7644.598183980483
 31
0.0
  0
LINE
  5
169
330
17
100
AcDbEntity
  8
SARR_2.2x7
 62
7
370
25
100
AcDbLine
 10
7093.121291374302
 20
7669.598183980956
 30
0.0
 11
7197.173457022393
 21
7669.598183980774
 31
0.0
  0
LINE
  5
16A
330
17
100
AcDbEntity
  8
SARR_2.2x7
 62
7
370
25
100
AcDbLine
 10
7093.121291374302
 20
7676.59818398039
 30
0.0
 11
7197.173457022393
 21
7676.598183980584
 31
0.0
  0
LINE
  5
16B
330
17
100
AcDbEntity
  8
SARR_2.2x7
 62
7
370
25
100
AcDbLine
 10
7418.031074801759
 20
7943.350558039291
 30
0.0
 11
7250.99998382033
 21
7943.350558039565
 31
0.0
  0
LINE
  5
16C
330
17
100
AcDbEntity
  8
Painéis
 62
7
370
25
100
AcDbLine
 10
7662.031074801759
 20
7943.350558039291
 30
0.0
 11
7662.031074801759
 21
7981.350558039292
 31
0.0
  0
LINE
  5
16D
330
17
100
AcDbEntity
  8
Painéis
 62
7
370
25
100
AcDbLine
 10
7662.031074801759
 20
7981.350558039292
 30
0.0
 11
7244.031074801758
 21
7981.350558039292
 31
0.0
  0
LINE
  5
16E
330
17
100
AcDbEntity
  8
Painéis
 62
7
370
25
100
AcDbLine
 10
7244.031074801758
 20
7981.350558039292
 30
0.0
 11
7244.031074801758
 21
7878.350558039293
 31
0.0
  0
LINE
  5
16F
330
17
100
AcDbEntity
  8
Painéis
 62
7
370
25
100
AcDbLine
 10
7244.031074801758
 20
7878.350558039293
 30
0.0
 11
7361.531074801757
 21
7878.350558039293
 31
0.0
  0
LINE
  5
170
330
17
100
AcDbEntity
  8
Painéis
 62
7
370
25
100
AcDbLine
 10
7361.531074801757
 20
7878.350558039293
 30
0.0
 11
7361.531074801762
 21
7943.350558039291
 31
0.0
  0
LINE
  5
171
330
17
100
AcDbEntity
  8
Painéis
 62
7
370
25
100
AcDbLine
 10
7361.531074801757
 20
7943.350558039291
 30
0.0
 11
7662.031074801759
 21
7943.350558039291
 31
0.0
  0
LINE
  5
172
330
17
100
AcDbEntity
  8
SARR_2.2x7
 62
7
370
25
100
AcDbLine
 10
7354.531074801759
 20
7878.350558039293
 30
0.0
 11
7354.531074801759
 21
7943.350558039291
 31
0.0
  0
LINE
  5
173
330
17
100
AcDbEntity
  8
SARR_2.2x7
 62
7
370
25
100
AcDbLine
 10
7361.531074801757
 20
7943.350558039291
 30
0.0
 11
7354.531074801759
 21
7943.350558039291
 31
0.0
  0
LINE
  5
174
330
17
100
AcDbEntity
  8
Painéis
 62
7
370
25
100
AcDbLine
 10
7418.031074801759
 20
7943.350558039291
 30
0.0
 11
7418.031074801759
 21
7981.350558039292
 31
0.0
  0
LINE
  5
175
330
17
100
AcDbEntity
  8
SARR_2.2x7
 62
7
370
25
100
AcDbLine
 10
7655.07621556094
 20
7974.350558039382
 30
0.0
 11
7418.031074801755
 21
7974.350558039401
 31
0.0
  0
LINE
  5
176
330
17
100
AcDbEntity
  8
SARR_2.2x7
 62
7
370
25
100
AcDbLine
 10
7655.076215560938
 20
7944.350558039288
 30
0.0
 11
7655.07621556094
 21
7981.350558039292
 31
0.0
  0
LINE
  5
177
330
17
100
AcDbEntity
  8
SARR_2.2x7
 62
7
370
25
100
AcDbLine
 10
7655.07621556094
 20
7951.350558039219
 30
0.0
 11
7418.031074801755
 21
7951.350558039201
 31
0.0
  0
LINE
  5
178
330
17
100
AcDbEntity
  8
SARR_2.2x7
 62
7
370
25
100
AcDbLine
 10
7418.017025023996
 20
7974.350558039375
 30
0.0
 11
7250.985934042567
 21
7974.350558039121
 31
0.0
  0
LINE
  5
179
330
17
100
AcDbEntity
  8
SARR_2.2x7
 62
7
370
25
100
AcDbLine
 10
7250.985934042576
 20
7878.350558039293
 30
0.0
 11
7250.985934042565
 21
7981.350558039274
 31
0.0
  0
LINE
  5
17A
330
17
100
AcDbEntity
  8
SARR_2.2x7
 62
7
370
25
100
AcDbLine
 10
7418.017025023996
 20
7951.350558039177
 30
0.0
 11
7250.985934042567
 21
7951.350558039449
 31
0.0
  0
LINE
  5
17B
330
17
100
AcDbEntity
  8
SARR_2.2x7
 62
7
370
25
100
AcDbLine
 10
7361.531074801757
 20
7886.350558038994
 30
0.0
 11
7250.971884264814
 21
7886.350558039175
 31
0.0
  0
LINE
  5
17C
330
17
100
AcDbEntity
  8
SARR_2.2x7
 62
7
370
25
100
AcDbLine
 10
7361.53107480176
 20
7911.350558039649
 30
0.0
 11
7250.97890915367
 21
7911.350558039464
 31
0.0
  0
LINE
  5
17D
330
17
100
AcDbEntity
  8
SARR_2.2x7
 62
7
370
25
100
AcDbLine
 10
7361.53107480176
 20
7918.350558039081
 30
0.0
 11
7250.97890915367
 21
7918.350558039276
 31
0.0
  0
LINE
  5
17E
330
17
100
AcDbEntity
  8
SARR_2.2x7
 62
7
370
25
100
AcDbLine
 10
7040.052237350741
 20
7943.350558039291
 30
0.0
 11
7108.08332833217
 21
7943.350558039565
 31
0.0
  0
LINE
  5
17F
330
17
100
AcDbEntity
  8
Painéis
 62
7
370
25
100
AcDbLine
 10
6796.052237350742
 20
7943.350558039291
 30
0.0
 11
6796.052237350742
 21
7980.350558039292
 31
0.0
  0
LINE
  5
180
330
17
100
AcDbEntity
  8
Painéis
 62
7
370
25
100
AcDbLine
 10
6796.052237350742
 20
7980.350558039292
 30
0.0
 11
7115.052237350742
 21
7980.350558039292
 31
0.0
  0
LINE
  5
181
330
17
100
AcDbEntity
  8
Painéis
 62
7
370
25
100
AcDbLine
 10
7115.052237350742
 20
7980.350558039292
 30
0.0
 11
7115.052237350742
 21
7878.350558039293
 31
0.0
  0
LINE
  5
182
330
17
100
AcDbEntity
  8
Painéis
 62
7
370
25
100
AcDbLine
 10
7115.052237350742
 20
7878.350558039293
 30
0.0
 11
7062.552237350741
 21
7878.350558039293
 31
0.0
  0
LINE
  5
183
330
17
100
AcDbEntity
  8
Painéis
 62
7
370
25
100
AcDbLine
 10
7062.552237350741
 20
7878.350558039293
 30
0.0
 11
7062.552237350738
 21
7943.350558039291
 31
0.0
  0
LINE
  5
184
330
17
100
AcDbEntity
  8
Painéis
 62
7
370
25
100
AcDbLine
 10
7062.552237350741
 20
7943.350558039291
 30
0.0
 11
6796.052237350742
 21
7943.350558039291
 31
0.0
  0
LINE
  5
185
330
17
100
AcDbEntity
  8
SARR_2.2x7
 62
7
370
25
100
AcDbLine
 10
7069.552237350741
 20
7878.350558039293
 30
0.0
 11
7069.552237350741
 21
7943.350558039291
 31
0.0
  0
LINE
  5
186
330
17
100
AcDbEntity
  8
SARR_2.2x7
 62
7
370
25
100
AcDbLine
 10
7062.552237350741
 20
7943.350558039291
 30
0.0
 11
7069.552237350741
 21
7943.350558039291
 31
0.0
  0
LINE
  5
187
330
17
100
AcDbEntity
  8
Painéis
 62
7
370
25
100
AcDbLine
 10
7040.052237350741
 20
7943.350558039291
 30
0.0
 11
7040.052237350741
 21
7980.350558039292
 31
0.0
  0
LINE
  5
188
330
17
100
AcDbEntity
  8
SARR_2.2x7
 62
7
370
25
100
AcDbLine
 10
6796.052237350742
 20
7973.350558039382
 30
0.0
 11
7040.052237350744
 21
7973.350558039401
 31
0.0
  0
LINE
  5
189
330
17
100
AcDbEntity
  8
SARR_2.2x7
 62
7
370
25
100
AcDbLine
 10
6803.007096591563
 20
7944.350558039288
 30
0.0
 11
6803.007096591558
 21
7980.350558039292
 31
0.0
  0
LINE
  5
18A
330
17
100
AcDbEntity
  8
SARR_2.2x7
 62
7
370
25
100
AcDbLine
 10
6796.052237350742
 20
7951.350558039219
 30
0.0
 11
7040.052237350744
 21
7951.350558039201
 31
0.0
  0
LINE
  5
18B
330
17
100
AcDbEntity
  8
SARR_2.2x7
 62
7
370
25
100
AcDbLine
 10
7040.066287128502
 20
7973.350558039375
 30
0.0
 11
7108.097378109931
 21
7973.350558039121
 31
0.0
  0
LINE
  5
18C
330
17
100
AcDbEntity
  8
SARR_2.2x7
 62
7
370
25
100
AcDbLine
 10
7108.097378109924
 20
7878.350558039293
 30
0.0
 11
7108.097378109935
 21
7980.350558039273
 31
0.0
  0
LINE
  5
18D
330
17
100
AcDbEntity
  8
SARR_2.2x7
 62
7
370
25
100
AcDbLine
 10
7040.066287128502
 20
7951.350558039177
 30
0.0
 11
7108.097378109931
 21
7951.350558039449
 31
0.0
  0
LINE
  5
18E
330
17
100
AcDbEntity
  8
SARR_2.2x7
 62
7
370
25
100
AcDbLine
 10
7062.552237350741
 20
7886.350558038994
 30
0.0
 11
7108.111427887685
 21
7886.350558039175
 31
0.0
  0
LINE
  5
18F
330
17
100
AcDbEntity
  8
SARR_2.2x7
 62
7
370
25
100
AcDbLine
 10
7062.55223735074
 20
7911.350558039649
 30
0.0
 11
7108.10440299883
 21
7911.350558039464
 31
0.0
  0
LINE
  5
190
330
17
100
AcDbEntity
  8
SARR_2.2x7
 62
7
370
25
100
AcDbLine
 10
7062.55223735074
 20
7918.350558039081
 30
0.0
 11
7108.10440299883
 21
7918.350558039276
 31
0.0
  0
LINE
  5
191
330
17
100
AcDbEntity
  8
SARR_2.2x7
 62
7
370
25
100
AcDbLine
 10
6796.052237350742
 20
7998.850558039278
 30
0.0
 11
7040.052237350744
 21
7998.850558039285
 31
0.0
  0
LINE
  5
192
330
17
100
AcDbEntity
  8
SARR_2.2x7
 62
7
370
25
100
AcDbLine
 10
7040.052237350744
 20
7998.850558039285
 30
0.0
 11
7115.052237350742
 21
7998.850558039293
 31
0.0
  0
LINE
  5
193
330
17
100
AcDbEntity
  8
Painéis
 62
7
370
25
100
AcDbLine
 10
7040.052237350744
 20
7995.350558039293
 30
0.0
 11
7040.052237350744
 21
8002.350558039292
 31
0.0
  0
LINE
  5
194
330
17
100
AcDbEntity
  8
SARR_2.2x7
 62
7
370
25
100
AcDbLine
 10
7244.031074801758
 20
7998.850558039278
 30
0.0
 11
7500.531074801762
 21
7998.850558039285
 31
0.0
  0
LINE
  5
195
330
17
100
AcDbEntity
  8
SARR_2.2x7
 62
7
370
25
100
AcDbLine
 10
7500.531074801762
 20
7998.850558039285
 30
0.0
 11
7662.031074801759
 21
7998.850558039293
 31
0.0
  0
LINE
  5
196
330
17
100
AcDbEntity
  8
SARR_2.2x7
 62
7
370
25
100
AcDbLine
 10
6786.121291374304
 20
7757.098183980585
 30
0.0
 11
7042.621291374307
 21
7757.098183980592
 31
0.0
  0
LINE
  5
197
330
17
100
AcDbEntity
  8
SARR_2.2x7
 62
7
370
25
100
AcDbLine
 10
7042.621291374307
 20
7757.098183980592
 30
0.0
 11
7204.121291374304
 21
7757.098183980599
 31
0.0
  0
LINE
  5
198
330
17
100
AcDbEntity
  8
SARR_2.2x7
 62
7
370
25
100
AcDbLine
 10
7315.886698059981
 20
7756.098183980585
 30
0.0
 11
7572.386698059985
 21
7756.098183980592
 31
0.0
  0
LINE
  5
199
330
17
100
AcDbEntity
  8
SARR_2.2x7
 62
7
370
25
100
AcDbLine
 10
7572.386698059985
 20
7756.098183980592
 30
0.0
 11
7733.886698059982
 21
7756.098183980599
 31
0.0
  0
LINE
  5
19A
330
17
100
AcDbEntity
  8
SARR_2.2x7
 62
7
370
25
100
AcDbLine
 10
2045.494922535862
 20
7098.805818158857
 30
0.0
 11
2301.994922535865
 21
7098.805818158864
 31
0.0
  0
LINE
  5
19B
330
17
100
AcDbEntity
  8
SARR_2.2x7
 62
7
370
25
100
AcDbLine
 10
2301.994922535865
 20
7098.805818158864
 30
0.0
 11
2463.494922535862
 21
7098.805818158871
 31
0.0
  0
LINE
  5
19C
330
17
100
AcDbEntity
  8
SARR_2.2x7
 62
7
370
25
100
AcDbLine
 10
2575.260329221539
 20
7099.805818158857
 30
0.0
 11
2831.760329221543
 21
7099.805818158865
 31
0.0
  0
LINE
  5
19D
330
17
100
AcDbEntity
  8
SARR_2.2x7
 62
7
370
25
100
AcDbLine
 10
2831.760329221543
 20
7099.805818158865
 30
0.0
 11
2993.260329221539
 21
7099.805818158872
 31
0.0
  0
LINE
  5
19E
330
17
100
AcDbEntity
  8
SARR_2.2x7
 62
7
370
25
100
AcDbLine
 10
2041.021326950704
 20
6820.140270757554
 30
0.0
 11
2297.521326950707
 21
6820.140270757562
 31
0.0
  0
LINE
  5
19F
330
17
100
AcDbEntity
  8
SARR_2.2x7
 62
7
370
25
100
AcDbLine
 10
2297.521326950707
 20
6820.140270757562
 30
0.0
 11
2459.021326950704
 21
6820.140270757569
 31
0.0
  0
LINE
  5
1A0
330
17
100
AcDbEntity
  8
SARR_2.2x7
 62
7
370
25
100
AcDbLine
 10
2582.984818166249
 20
6819.140270757555
 30
0.0
 11
2839.484818166253
 21
6819.140270757562
 31
0.0
  0
LINE
  5
1A1
330
17
100
AcDbEntity
  8
SARR_2.2x7
 62
7
370
25
100
AcDbLine
 10
2839.484818166253
 20
6819.140270757562
 30
0.0
 11
2988.484818166249
 21
6819.140270757569
 31
0.0
  0
LINE
  5
1A2
330
17
100
AcDbEntity
  8
Painéis
 62
7
370
25
100
AcDbLine
 10
7978.915069568346
 20
7933.102343726424
 30
0.0
 11
7940.960051452262
 21
7933.102343726424
 31
0.0
  0
LINE
  5
1A3
330
17
100
AcDbEntity
  8
Painéis
 62
7
370
25
100
AcDbLine
 10
7978.915069568346
 20
7859.102343726433
 30
0.0
 11
7940.976213228876
 21
7859.102343726421
 31
0.0
  0
LINE
  5
1A4
330
17
100
AcDbEntity
  8
Painéis
 62
7
370
25
100
AcDbLine
 10
7940.976213228876
 20
7859.102343726421
 30
0.0
 11
7940.960051452262
 21
7933.102343726424
 31
0.0
  0
LINE
  5
1A5
330
17
100
AcDbEntity
  8
Painéis
 62
7
370
25
100
AcDbLine
 10
7978.915069568346
 20
7933.102343726424
 30
0.0
 11
7978.915069568346
 21
7859.102343726433
 31
0.0
  0
LWPOLYLINE
  5
1A6
330
17
100
AcDbEntity
  8
SARR_2.2x7
 62
7
370
25
100
AcDbPolyline
 90
4
 70
1
 10
7964.935706610758
 20
8247.171131930587
 10
7978.915069568346
 20
8247.171131930587
 10
7978.915069568346
 20
8117.171131930595
 10
7964.935706610758
 20
8117.171131930595
  0
LWPOLYLINE
  5
1A7
330
17
100
AcDbEntity
  8
SARR_2.2x7
 62
7
370
25
100
AcDbPolyline
 90
4
 70
1
 10
7954.955576186463
 20
8247.171131930587
 10
7940.976213228876
 20
8247.171131930587
 10
7940.976213228876
 20
8117.171131930595
 10
7954.955576186463
 20
8117.171131930595
  0
LWPOLYLINE
  5
1A8
330
17
100
AcDbEntity
  8
COTA
 62
7
370
25
100
AcDbPolyline
 90
4
 70
1
 10
5479.891111852656
 20
8277.996235037404
 10
5885.391111852656
 20
8277.996235037404
 10
5885.391111852656
 20
8262.996235037403
 10
5479.891111852656
 20
8262.996235037403
  0
LWPOLYLINE
  5
1A9
330
17
100
AcDbEntity
  8
COTA
 62
7
370
25
100
AcDbPolyline
 90
4
 70
1
 10
6427.3546030682
 20
8277.996235037404
 10
6009.354603068199
 20
8277.996235037404
 10
6009.354603068199
 20
8262.996235037403
 10
6427.3546030682
 20
8262.996235037403
  0
LWPOLYLINE
  5
1AA
330
17
100
AcDbEntity
  8
COTA
 62
7
370
25
100
AcDbPolyline
 90
4
 70
1
 10
5482.151645424511
 20
8031.400046196141
 10
5900.151645424511
 20
8031.400046196141
 10
5900.151645424511
 20
8016.400046196141
 10
5482.151645424511
 20
8016.400046196141
  0
LWPOLYLINE
  5
1AB
330
17
100
AcDbEntity
  8
COTA
 62
7
370
25
100
AcDbPolyline
 90
4
 70
1
 10
6429.917052110188
 20
8031.400046196141
 10
6011.917052110188
 20
8031.400046196141
 10
6011.917052110188
 20
8016.400046196141
 10
6429.917052110188
 20
8016.400046196141
  0
LWPOLYLINE
  5
1AC
330
17
100
AcDbEntity
  8
COTA
 62
7
370
25
100
AcDbPolyline
 90
4
 70
1
 10
5482.151645424511
 20
7791.739447168493
 10
5900.151645424511
 20
7791.739447168493
 10
5900.151645424511
 20
7776.739447168494
 10
5482.151645424511
 20
7776.739447168494
  0
LWPOLYLINE
  5
1AD
330
17
100
AcDbEntity
  8
COTA
 62
7
370
25
100
AcDbPolyline
 90
4
 70
1
 10
6429.917052110188
 20
7791.739447168493
 10
6011.917052110188
 20
7791.739447168493
 10
6011.917052110188
 20
7777.739447168492
 10
6429.917052110188
 20
7777.739447168492
  0
LWPOLYLINE
  5
1AE
330
17
100
AcDbEntity
  8
COTA
 62
7
370
25
100
AcDbPolyline
 90
4
 70
1
 10
6807.809502325461
 20
8283.736235220984
 10
7225.809502325461
 20
8283.736235220984
 10
7225.809502325461
 20
8269.736235220982
 10
6807.809502325461
 20
8269.736235220982
  0
LWPOLYLINE
  5
1AF
330
17
100
AcDbEntity
  8
COTA
 62
7
370
25
100
AcDbPolyline
 90
4
 70
1
 10
7673.788339776478
 20
8283.736235220984
 10
7354.788339776478
 20
8283.736235220984
 10
7354.788339776478
 20
8268.736235220982
 10
7673.788339776478
 20
8268.736235220982
  0
LWPOLYLINE
  5
1B0
330
17
100
AcDbEntity
  8
Painéis
 62
7
370
25
100
AcDbPolyline
 90
4
 70
1
 10
5314.151267778154
 20
8159.821123599561
 10
5310.151267778154
 20
8159.821123599561
 10
5310.151267778154
 20
8079.821123599582
 10
5314.151267778154
 20
8079.821123599582
  0
LWPOLYLINE
  5
1B1
330
17
100
AcDbEntity
  8
Madeira
 62
7
370
25
100
AcDbPolyline
 90
4
 70
1
 10
5272.151267778154
 20
8079.821123599582
 10
5272.151267778154
 20
8084.221123599576
 10
5286.151267778154
 20
8084.221123599576
 10
5286.151267778154
 20
8079.821123599582
  0
LWPOLYLINE
  5
1B2
330
17
100
AcDbEntity
  8
Painéis
 62
7
370
25
100
AcDbPolyline
 90
4
 70
1
 10
5272.151267778154
 20
8084.221123599576
 10
5272.151267778154
 20
8087.821123599582
 10
5310.151267778154
 20
8087.821123599582
 10
5310.151267778154
 20
8084.221123599576
  0
LWPOLYLINE
  5
1B3
330
17
100
AcDbEntity
  8
Madeira
 62
7
370
25
100
AcDbPolyline
 90
4
 70
1
 10
5310.151267778154
 20
8079.821123599582
 10
5310.151267778154
 20
8084.221123599576
 10
5296.151267778154
 20
8084.221123599576
 10
5296.151267778154
 20
8079.821123599582
  0
LWPOLYLINE
  5
1B4
330
17
100
AcDbEntity
  8
Painéis
 62
7
370
25
100
AcDbPolyline
 90
4
 70
1
 10
5268.151267778143
 20
8167.821123599582
 10
5272.151267778143
 20
8167.821123599582
 10
5272.151267778154
 20
8079.821123599582
 10
5268.151267778154
 20
8079.821123599582
  0
LWPOLYLINE
  5
1B5
330
17
100
AcDbEntity
  8
Painéis
 62
7
370
25
100
AcDbPolyline
 90
4
 70
1
 10
5310.151267778154
 20
8159.821123599561
 10
5310.151267778154
 20
8163.821123599561
 10
5365.75126777813
 20
8163.821123599552
 10
5365.75126777813
 20
8159.821123599554
  0
LWPOLYLINE
  5
1B6
330
17
100
AcDbEntity
  8
CONCRETO
 62
7
370
25
100
AcDbPolyline
 90
9
 70
0
 10
5272.151267778212
 20
8167.821123599582
 10
5272.151267778212
 20
8087.821123599582
 10
5310.151267778154
 20
8087.821123599582
 10
5310.151267778154
 20
8163.821123599561
 10
5365.75126777813
 20
8163.821123599552
 10
5365.75126777813
 20
8183.821123599583
 10
5310.551267778373
 20
8183.821123599583
 10
5310.551267778373
 20
8197.821123599582
 10
5272.151267778212
 20
8197.821123599582
  0
LWPOLYLINE
  5
1B7
330
17
100
AcDbEntity
  8
Painéis
 62
7
370
25
100
AcDbPolyline
 90
4
 70
1
 10
5314.151267778379
 20
8197.821123599582
 10
5310.551267778373
 20
8197.821123599582
 10
5310.551267778373
 20
8183.821123599583
 10
5314.151267778379
 20
8183.821123599583
  0
LWPOLYLINE
  5
1B8
330
17
100
AcDbEntity
  8
Madeira
 62
7
370
25
100
AcDbPolyline
 90
4
 70
1
 10
5318.551267778373
 20
8183.821123599583
 10
5314.151267778379
 20
8183.821123599583
 10
5314.151267778379
 20
8197.821123599582
 10
5318.551267778373
 20
8197.821123599582
  0
LWPOLYLINE
  5
1B9
330
17
100
AcDbEntity
  8
CONCRETO
 62
7
370
25
100
AcDbPolyline
 90
8
 70
1
 10
5216.551267778166
 20
8171.82112359959
 10
5216.551267778235
 20
8197.821123599582
 10
5272.151267778212
 20
8197.821123599582
 10
5272.151267778212
 20
8197.821123599582
 10
5310.551267778373
 20
8197.821123599582
 10
5310.151267778154
 20
8087.821123599582
 10
5272.151267778212
 20
8087.821123599582
 10
5272.151267778143
 20
8171.821123599597
  0
LWPOLYLINE
  5
1BA
330
17
100
AcDbEntity
  8
Painéis
 62
7
370
25
100
AcDbPolyline
 90
4
 70
1
 10
5216.551267778166
 20
8167.821123599598
 10
5216.551267778166
 20
8171.821123599597
 10
5272.151267778143
 20
8171.82112359959
 10
5272.151267778143
 20
8167.821123599591
  0
LWPOLYLINE
  5
1BB
330
17
100
AcDbEntity
  8
Madeira
 62
7
370
25
100
AcDbPolyline
 90
4
 70
1
 10
5263.751267778149
 20
8153.821123599589
 10
5268.151267778143
 20
8153.821123599589
 10
5268.151267778143
 20
8167.821123599591
 10
5263.751267778149
 20
8167.821123599591
  0
LWPOLYLINE
  5
1BC
330
17
100
AcDbEntity
  8
Madeira
 62
7
370
25
100
AcDbPolyline
 90
4
 70
1
 10
5263.75126777816
 20
8079.821123599582
 10
5268.151267778154
 20
8079.821123599582
 10
5268.151267778154
 20
8093.821123599582
 10
5263.75126777816
 20
8093.821123599582
  0
LWPOLYLINE
  5
1BD
330
17
100
AcDbEntity
  8
Madeira
 62
7
370
25
100
AcDbPolyline
 90
4
 70
1
 10
5318.551267778148
 20
8145.82112359956
 10
5314.151267778154
 20
8145.82112359956
 10
5314.151267778154
 20
8159.821123599561
 10
5318.551267778148
 20
8159.821123599561
  0
LWPOLYLINE
  5
1BE
330
17
100
AcDbEntity
  8
Madeira
 62
7
370
25
100
AcDbPolyline
 90
4
 70
1
 10
5318.551267778148
 20
8079.821123599582
 10
5314.151267778154
 20
8079.821123599582
 10
5314.151267778154
 20
8093.821123599582
 10
5318.551267778148
 20
8093.821123599582
  0
LWPOLYLINE
  5
1BF
330
17
100
AcDbEntity
  8
SARR_3.5x7
 62
7
370
25
100
AcDbPolyline
 90
4
 70
1
 10
5249.751267778094
 20
8161.821123599597
 10
5263.751267778093
 20
8161.821123599597
 10
5263.751267778225
 20
8024.180857052469
 10
5249.751267778226
 20
8024.180857052469
  0
LWPOLYLINE
  5
1C0
330
17
100
AcDbEntity
  8
SARR_3.5x7
 62
7
370
25
100
AcDbPolyline
 90
4
 70
1
 10
5332.551267778381
 20
8155.421123599586
 10
5318.551267778381
 20
8155.421123599586
 10
5318.551267778236
 20
8024.180857052469
 10
5332.551267778235
 20
8024.180857052469
  0
LWPOLYLINE
  5
1C1
330
17
100
AcDbEntity
  8
SARR_3.5x7
 62
7
370
25
100
AcDbPolyline
 90
4
 70
1
 10
5249.751267778083
 20
8079.821123599582
 10
5332.551267778282
 20
8079.821123599581
 10
5332.551267778282
 20
8049.763061995582
 10
5249.751267778083
 20
8049.763061995584
  0
LWPOLYLINE
  5
1C2
330
17
100
AcDbEntity
  8
Madeira
 62
7
370
25
100
AcDbPolyline
 90
4
 70
1
 10
5263.751267778152
 20
8116.821123599583
 10
5268.151267778147
 20
8116.821123599583
 10
5268.151267778147
 20
8130.821123599583
 10
5263.751267778152
 20
8130.821123599583
  0
LWPOLYLINE
  5
1C3
330
17
100
AcDbEntity
  8
Madeira
 62
7
370
25
100
AcDbPolyline
 90
4
 70
1
 10
5318.551267778148
 20
8112.821123599571
 10
5314.151267778154
 20
8112.821123599571
 10
5314.151267778154
 20
8126.821123599572
 10
5318.551267778148
 20
8126.821123599572
  0
LWPOLYLINE
  5
1C4
330
17
100
AcDbEntity
  8
Painéis
 62
7
370
25
100
AcDbPolyline
 90
4
 70
1
 10
5314.151267778154
 20
7908.679662708632
 10
5310.151267778154
 20
7908.679662708632
 10
5310.151267778154
 20
7698.679662708653
 10
5314.151267778154
 20
7698.679662708653
  0
LWPOLYLINE
  5
1C5
330
17
100
AcDbEntity
  8
Madeira
 62
7
370
25
100
AcDbPolyline
 90
4
 70
1
 10
5272.151267778154
 20
7698.679662708653
 10
5272.151267778154
 20
7703.079662708647
 10
5286.151267778154
 20
7703.079662708647
 10
5286.151267778154
 20
7698.679662708653
  0
LWPOLYLINE
  5
1C6
330
17
100
AcDbEntity
  8
Painéis
 62
7
370
25
100
AcDbPolyline
 90
4
 70
1
 10
5272.151267778154
 20
7703.079662708647
 10
5272.151267778154
 20
7706.679662708653
 10
5310.151267778154
 20
7706.679662708653
 10
5310.151267778154
 20
7703.079662708647
  0
LWPOLYLINE
  5
1C7
330
17
100
AcDbEntity
  8
Madeira
 62
7
370
25
100
AcDbPolyline
 90
4
 70
1
 10
5310.151267778154
 20
7698.679662708653
 10
5310.151267778154
 20
7703.079662708647
 10
5296.151267778154
 20
7703.079662708647
 10
5296.151267778154
 20
7698.679662708653
  0
LWPOLYLINE
  5
1C8
330
17
100
AcDbEntity
  8
Painéis
 62
7
370
25
100
AcDbPolyline
 90
4
 70
1
 10
5268.151267778143
 20
7916.679662708654
 10
5272.151267778143
 20
7916.679662708654
 10
5272.151267778154
 20
7698.679662708653
 10
5268.151267778154
 20
7698.679662708653
  0
LWPOLYLINE
  5
1C9
330
17
100
AcDbEntity
  8
Painéis
 62
7
370
25
100
AcDbPolyline
 90
4
 70
1
 10
5310.151267778154
 20
7908.679662708632
 10
5310.151267778154
 20
7912.679662708632
 10
5365.75126777813
 20
7912.679662708625
 10
5365.75126777813
 20
7908.679662708625
  0
LWPOLYLINE
  5
1CA
330
17
100
AcDbEntity
  8
CONCRETO
 62
7
370
25
100
AcDbPolyline
 90
9
 70
0
 10
5272.151267778212
 20
7916.679662708654
 10
5272.151267778212
 20
7706.679662708653
 10
5310.151267778154
 20
7706.679662708653
 10
5310.151267778154
 20
7912.679662708632
 10
5365.75126777813
 20
7912.679662708625
 10
5365.75126777813
 20
7932.679662708654
 10
5310.551267778373
 20
7932.679662708654
 10
5310.551267778373
 20
7946.679662708653
 10
5272.151267778212
 20
7946.679662708653
  0
LWPOLYLINE
  5
1CB
330
17
100
AcDbEntity
  8
Painéis
 62
7
370
25
100
AcDbPolyline
 90
4
 70
1
 10
5314.151267778379
 20
7946.679662708653
 10
5310.551267778373
 20
7946.679662708653
 10
5310.551267778373
 20
7932.679662708654
 10
5314.151267778379
 20
7932.679662708654
  0
LWPOLYLINE
  5
1CC
330
17
100
AcDbEntity
  8
Madeira
 62
7
370
25
100
AcDbPolyline
 90
4
 70
1
 10
5318.551267778373
 20
7932.679662708654
 10
5314.151267778379
 20
7932.679662708654
 10
5314.151267778379
 20
7946.679662708653
 10
5318.551267778373
 20
7946.679662708653
  0
LWPOLYLINE
  5
1CD
330
17
100
AcDbEntity
  8
CONCRETO
 62
7
370
25
100
AcDbPolyline
 90
8
 70
1
 10
5216.551267778166
 20
7920.679662708661
 10
5216.551267778235
 20
7946.679662708653
 10
5272.151267778212
 20
7946.679662708653
 10
5272.151267778212
 20
7946.679662708653
 10
5310.551267778373
 20
7946.679662708653
 10
5310.151267778154
 20
7706.679662708653
 10
5272.151267778212
 20
7706.679662708653
 10
5272.151267778143
 20
7920.679662708668
  0
LWPOLYLINE
  5
1CE
330
17
100
AcDbEntity
  8
Painéis
 62
7
370
25
100
AcDbPolyline
 90
4
 70
1
 10
5216.551267778166
 20
7916.679662708668
 10
5216.551267778166
 20
7920.679662708668
 10
5272.151267778143
 20
7920.679662708661
 10
5272.151267778143
 20
7916.679662708661
  0
LWPOLYLINE
  5
1CF
330
17
100
AcDbEntity
  8
Madeira
 62
7
370
25
100
AcDbPolyline
 90
4
 70
1
 10
5263.751267778149
 20
7902.679662708661
 10
5268.151267778143
 20
7902.679662708661
 10
5268.151267778143
 20
7916.679662708661
 10
5263.751267778149
 20
7916.679662708661
  0
LWPOLYLINE
  5
1D0
330
17
100
AcDbEntity
  8
Madeira
 62
7
370
25
100
AcDbPolyline
 90
4
 70
1
 10
5263.75126777816
 20
7698.679662708653
 10
5268.151267778154
 20
7698.679662708653
 10
5268.151267778154
 20
7712.679662708653
 10
5263.75126777816
 20
7712.679662708653
  0
LWPOLYLINE
  5
1D1
330
17
100
AcDbEntity
  8
Madeira
 62
7
370
25
100
AcDbPolyline
 90
4
 70
1
 10
5318.551267778148
 20
7894.679662708631
 10
5314.151267778154
 20
7894.679662708631
 10
5314.151267778154
 20
7908.679662708632
 10
5318.551267778148
 20
7908.679662708632
  0
LWPOLYLINE
  5
1D2
330
17
100
AcDbEntity
  8
Madeira
 62
7
370
25
100
AcDbPolyline
 90
4
 70
1
 10
5318.551267778148
 20
7698.679662708653
 10
5314.151267778154
 20
7698.679662708653
 10
5314.151267778154
 20
7712.679662708653
 10
5318.551267778148
 20
7712.679662708653
  0
LWPOLYLINE
  5
1D3
330
17
100
AcDbEntity
  8
SARR_3.5x7
 62
7
370
25
100
AcDbPolyline
 90
4
 70
1
 10
5249.751267778094
 20
7910.679662708668
 10
5263.751267778093
 20
7910.679662708668
 10
5263.751267778225
 20
7643.03939616154
 10
5249.751267778226
 20
7643.03939616154
  0
LWPOLYLINE
  5
1D4
330
17
100
AcDbEntity
  8
SARR_3.5x7
 62
7
370
25
100
AcDbPolyline
 90
4
 70
1
 10
5332.551267778381
 20
7904.279662708656
 10
5318.551267778381
 20
7904.279662708656
 10
5318.551267778236
 20
7643.03939616154
 10
5332.551267778235
 20
7643.03939616154
  0
LWPOLYLINE
  5
1D5
330
17
100
AcDbEntity
  8
SARR_3.5x7
 62
7
370
25
100
AcDbPolyline
 90
4
 70
1
 10
5249.751267778083
 20
7698.679662708653
 10
5332.551267778282
 20
7698.679662708652
 10
5332.551267778282
 20
7668.621601104653
 10
5249.751267778083
 20
7668.621601104653
  0
LWPOLYLINE
  5
1D6
330
17
100
AcDbEntity
  8
Madeira
 62
7
370
25
100
AcDbPolyline
 90
4
 70
1
 10
5263.751267778152
 20
7865.679662708654
 10
5268.151267778147
 20
7865.679662708654
 10
5268.151267778147
 20
7879.679662708653
 10
5263.751267778152
 20
7879.679662708653
  0
LWPOLYLINE
  5
1D7
330
17
100
AcDbEntity
  8
Madeira
 62
7
370
25
100
AcDbPolyline
 90
4
 70
1
 10
5318.551267778148
 20
7861.679662708643
 10
5314.151267778154
 20
7861.679662708643
 10
5314.151267778154
 20
7875.679662708643
 10
5318.551267778148
 20
7875.679662708643
  0
LWPOLYLINE
  5
1D8
330
17
100
AcDbEntity
  8
Madeira
 62
7
370
25
100
AcDbPolyline
 90
4
 70
1
 10
5263.751267778152
 20
7824.874516489855
 10
5268.151267778147
 20
7824.874516489855
 10
5268.151267778147
 20
7838.874516489855
 10
5263.751267778152
 20
7838.874516489855
  0
LWPOLYLINE
  5
1D9
330
17
100
AcDbEntity
  8
Madeira
 62
7
370
25
100
AcDbPolyline
 90
4
 70
1
 10
5318.551267778148
 20
7820.874516489844
 10
5314.151267778154
 20
7820.874516489844
 10
5314.151267778154
 20
7834.874516489844
 10
5318.551267778148
 20
7834.874516489844
  0
LWPOLYLINE
  5
1DA
330
17
100
AcDbEntity
  8
Madeira
 62
7
370
25
100
AcDbPolyline
 90
4
 70
1
 10
5263.751267778152
 20
7783.32574243748
 10
5268.151267778147
 20
7783.32574243748
 10
5268.151267778147
 20
7797.325742437481
 10
5263.751267778152
 20
7797.325742437481
  0
LWPOLYLINE
  5
1DB
330
17
100
AcDbEntity
  8
Madeira
 62
7
370
25
100
AcDbPolyline
 90
4
 70
1
 10
5318.551267778148
 20
7779.32574243747
 10
5314.151267778154
 20
7779.32574243747
 10
5314.151267778154
 20
7793.32574243747
 10
5318.551267778148
 20
7793.32574243747
  0
LWPOLYLINE
  5
1DC
330
17
100
AcDbEntity
  8
Madeira
 62
7
370
25
100
AcDbPolyline
 90
4
 70
1
 10
5263.751267778152
 20
7741.361465265071
 10
5268.151267778147
 20
7741.361465265071
 10
5268.151267778147
 20
7755.361465265071
 10
5263.751267778152
 20
7755.361465265071
  0
LWPOLYLINE
  5
1DD
330
17
100
AcDbEntity
  8
Madeira
 62
7
370
25
100
AcDbPolyline
 90
4
 70
1
 10
5318.551267778148
 20
7737.36146526506
 10
5314.151267778154
 20
7737.36146526506
 10
5314.151267778154
 20
7751.36146526506
 10
5318.551267778148
 20
7751.36146526506
  0
LWPOLYLINE
  5
1DE
330
17
100
AcDbEntity
  8
Cotas
 62
7
370
25
100
AcDbPolyline
 90
4
 70
1
 10
7874.073640673678
 20
8280.570356945052
 10
8056.038442609462
 20
8280.570356945052
 10
8056.038442609462
 20
8057.00250344798
 10
7874.073640673678
 20
8057.00250344798
  0
LWPOLYLINE
  5
1DF
330
17
100
AcDbEntity
  8
COTA
 62
7
370
25
100
AcDbPolyline
 90
4
 70
1
 10
2988.484818166249
 20
6815.640270757569
 10
2582.984818166249
 20
6815.640270757569
 10
2582.984818166249
 20
6801.64027075757
 10
2988.484818166249
 20
6801.64027075757
  0
LWPOLYLINE
  5
1E0
330
17
100
AcDbEntity
  8
COTA
 62
7
370
25
100
AcDbPolyline
 90
4
 70
1
 10
2041.021326950704
 20
6816.640270757568
 10
2459.021326950704
 20
6816.640270757568
 10
2459.021326950704
 20
6802.640270757568
 10
2041.021326950704
 20
6802.640270757568
  0
LWPOLYLINE
  5
1E1
330
17
100
AcDbEntity
  8
COTA
 62
7
370
25
100
AcDbPolyline
 90
4
 70
1
 10
2993.260329221539
 20
7096.305818158872
 10
2575.260329221539
 20
7096.305818158872
 10
2575.260329221539
 20
7082.305818158872
 10
2993.260329221539
 20
7082.305818158872
  0
LWPOLYLINE
  5
1E2
330
17
100
AcDbEntity
  8
COTA
 62
7
370
25
100
AcDbPolyline
 90
4
 70
1
 10
2045.494922535862
 20
7095.305818158871
 10
2463.494922535862
 20
7095.305818158871
 10
2463.494922535862
 20
7081.305818158871
 10
2045.494922535862
 20
7081.305818158871
  0
LWPOLYLINE
  5
1E3
330
17
100
AcDbEntity
  8
COTA
 62
7
370
25
100
AcDbPolyline
 90
4
 70
1
 10
7733.886698059982
 20
7752.598183980599
 10
7315.886698059981
 20
7752.598183980599
 10
7315.886698059981
 20
7738.598183980599
 10
7733.886698059982
 20
7738.598183980599
  0
LWPOLYLINE
  5
1E4
330
17
100
AcDbEntity
  8
COTA
 62
7
370
25
100
AcDbPolyline
 90
4
 70
1
 10
6786.121291374304
 20
7753.598183980599
 10
7204.121291374304
 20
7753.598183980599
 10
7204.121291374304
 20
7741.598183980599
 10
6786.121291374304
 20
7741.598183980599
  0
LWPOLYLINE
  5
1E5
330
17
100
AcDbEntity
  8
COTA
 62
7
370
25
100
AcDbPolyline
 90
4
 70
1
 10
7662.031074801759
 20
7995.350558039293
 10
7244.031074801758
 20
7995.350558039293
 10
7244.031074801758
 20
7981.350558039292
 10
7662.031074801759
 20
7981.350558039292
  0
LWPOLYLINE
  5
1E6
330
17
100
AcDbEntity
  8
COTA
 62
7
370
25
100
AcDbPolyline
 90
4
 70
1
 10
6796.052237350742
 20
7995.350558039293
 10
7115.052237350742
 20
7995.350558039293
 10
7115.052237350742
 20
7980.350558039292
 10
6796.052237350742
 20
7980.350558039292
  0
LWPOLYLINE
  5
1E7
330
17
100
AcDbEntity
  8
Painéis
 62
7
370
25
100
AcDbPolyline
 90
4
 70
1
 10
6796.052237350742
 20
7995.350558039293
 10
7115.052237350742
 20
7995.350558039293
 10
7115.052237350742
 20
8002.350558039292
 10
6796.052237350742
 20
8002.350558039292
  0
LWPOLYLINE
  5
1E8
330
17
100
AcDbEntity
  8
Painéis
 62
7
370
25
100
AcDbPolyline
 90
4
 70
1
 10
7244.031074801758
 20
7995.350558039293
 10
7662.031074801759
 20
7995.350558039293
 10
7662.031074801759
 20
8002.350558039292
 10
7244.031074801758
 20
8002.350558039292
  0
LWPOLYLINE
  5
1E9
330
17
100
AcDbEntity
  8
Painéis
 62
7
370
25
100
AcDbPolyline
 90
4
 70
1
 10
6786.121291374304
 20
7753.598183980599
 10
7204.121291374304
 20
7753.598183980599
 10
7204.121291374304
 20
7760.598183980599
 10
6786.121291374304
 20
7760.598183980599
  0
LWPOLYLINE
  5
1EA
330
17
100
AcDbEntity
  8
Painéis
 62
7
370
25
100
AcDbPolyline
 90
4
 70
1
 10
7315.886698059981
 20
7752.598183980599
 10
7733.886698059982
 20
7752.598183980599
 10
7733.886698059982
 20
7759.598183980599
 10
7315.886698059981
 20
7759.598183980599
  0
LWPOLYLINE
  5
1EB
330
17
100
AcDbEntity
  8
Painéis
 62
7
370
25
100
AcDbPolyline
 90
4
 70
1
 10
2045.494922535862
 20
7095.305818158871
 10
2463.494922535862
 20
7095.305818158871
 10
2463.494922535862
 20
7102.305818158871
 10
2045.494922535862
 20
7102.305818158871
  0
LWPOLYLINE
  5
1EC
330
17
100
AcDbEntity
  8
Painéis
 62
7
370
25
100
AcDbPolyline
 90
4
 70
1
 10
2575.260329221539
 20
7096.305818158872
 10
2993.260329221539
 20
7096.305818158872
 10
2993.260329221539
 20
7103.305818158871
 10
2575.260329221539
 20
7103.305818158871
  0
LWPOLYLINE
  5
1ED
330
17
100
AcDbEntity
  8
Painéis
 62
7
370
25
100
AcDbPolyline
 90
4
 70
1
 10
2041.021326950704
 20
6816.640270757568
 10
2459.021326950704
 20
6816.640270757568
 10
2459.021326950704
 20
6823.640270757569
 10
2041.021326950704
 20
6823.640270757569
  0
LWPOLYLINE
  5
1EE
330
17
100
AcDbEntity
  8
Painéis
 62
7
370
25
100
AcDbPolyline
 90
4
 70
1
 10
2582.984818166249
 20
6815.640270757569
 10
2988.484818166249
 20
6815.640270757569
 10
2988.484818166249
 20
6822.640270757569
 10
2582.984818166249
 20
6822.640270757569
  0
LWPOLYLINE
  5
1EF
330
17
100
AcDbEntity
  8
SARR_2.2x7
 62
7
370
25
100
AcDbPolyline
 90
4
 70
1
 10
7964.935706610758
 20
7933.102343726424
 10
7978.915069568346
 20
7933.102343726424
 10
7978.915069568346
 20
7859.102343726433
 10
7964.935706610758
 20
7859.102343726433
  0
LWPOLYLINE
  5
1F0
330
17
100
AcDbEntity
  8
SARR_2.2x7
 62
7
370
25
100
AcDbPolyline
 90
4
 70
1
 10
7954.955576186463
 20
7933.102343726424
 10
7940.976213228876
 20
7933.102343726424
 10
7940.976213228876
 20
7859.102343726433
 10
7954.955576186463
 20
7859.102343726433
  0
LWPOLYLINE
  5
1F1
330
17
100
AcDbEntity
  8
Cotas
 62
7
370
25
100
AcDbPolyline
 90
4
 70
1
 10
7874.073640673678
 20
7966.501568740888
 10
8056.038442609462
 20
7966.501568740888
 10
8056.038442609462
 20
7810.209586874193
 10
7874.073640673678
 20
7810.209586874193
  0
TEXT
  5
1F2
330
17
100
AcDbEntity
  8
detalhes
 62
7
370
25
100
AcDbText
 10
5316.244497588799
 20
8110.836239435171
 30
0.0
 40
9.600000000000001
  1
b
100
AcDbText
  0
TEXT
  5
1F3
330
17
100
AcDbEntity
  8
detalhes
 62
7
370
25
100
AcDbText
 10
5256.519990099459
 20
8102.866516506082
 30
0.0
 40
9.600000000000001
  1
a
100
AcDbText
  0
TEXT
  5
1F4
330
17
100
AcDbEntity
  8
detalhes
 62
7
370
25
100
AcDbText
 10
5292.449247776745
 20
8090.056877119421
 30
0.0
 40
9.600000000000001
  1
c
100
AcDbText
  0
TEXT
  5
1F5
330
17
100
AcDbEntity
  8
Texto Seção
 62
7
370
25
100
AcDbText
 10
5483.094412849332
 20
8281.870433819078
 30
0.0
 40
13.0
  1
V301.A
100
AcDbText
  0
TEXT
  5
1F6
330
17
100
AcDbEntity
  8
detalhes
 62
7
370
25
100
AcDbText
 10
5316.244497588799
 20
7859.694778544241
 30
0.0
 40
9.600000000000001
  1
b
100
AcDbText
  0
TEXT
  5
1F7
330
17
100
AcDbEntity
  8
detalhes
 62
7
370
25
100
AcDbText
 10
5256.519990099459
 20
7721.725055615154
 30
0.0
 40
9.600000000000001
  1
a
100
AcDbText
  0
TEXT
  5
1F8
330
17
100
AcDbEntity
  8
detalhes
 62
7
370
25
100
AcDbText
 10
5292.449247776745
 20
7708.915416228492
 30
0.0
 40
9.600000000000001
  1
c
100
AcDbText
  0
TEXT
  5
1F9
330
17
100
AcDbEntity
  8
TEXTO PILAR
 62
7
370
25
100
AcDbText
 10
7886.127852320941
 20
8261.826829886795
 30
0.0
 40
12.0
  1
FECHAMENTO-8X
100
AcDbText
  0
TEXT
  5
1FA
330
17
100
AcDbEntity
  8
Texto Seção
 62
7
370
25
100
AcDbText
 10
5485.354946421186
 20
8035.274244977816
 30
0.0
 40
13.0
  1
CONT. V301.A
100
AcDbText
  0
TEXT
  5
1FB
330
17
100
AcDbEntity
  8
Texto Seção
 62
7
370
25
100
AcDbText
 10
5485.354946421186
 20
7795.613645950169
 30
0.0
 40
13.0
  1
CONT. V301.A
100
AcDbText
  0
TEXT
  5
1FC
330
17
100
AcDbEntity
  8
Texto Seção
 62
7
370
25
100
AcDbText
 10
6811.012803322137
 20
8287.610434002656
 30
0.0
 40
13.0
  1
CONT. V301.A
100
AcDbText
  0
TEXT
  5
1FD
330
17
100
AcDbEntity
  8
Texto Seção
 62
7
370
25
100
AcDbText
 10
6799.255538347416
 20
8006.224756820968
 30
0.0
 40
13.0
  1
V301.B
100
AcDbText
  0
TEXT
  5
1FE
330
17
100
AcDbEntity
  8
Texto Seção
 62
7
370
25
100
AcDbText
 10
6789.32459237098
 20
7764.472382762275
 30
0.0
 40
13.0
  1
CONT. V301.B
100
AcDbText
  0
TEXT
  5
1FF
330
17
100
AcDbEntity
  8
Texto Seção
 62
7
370
25
100
AcDbText
 10
2048.698223532538
 20
7106.180016940547
 30
0.0
 40
13.0
  1
CONT. V301.B
100
AcDbText
  0
TEXT
  5
200
330
17
100
AcDbEntity
  8
Texto Seção
 62
7
370
25
100
AcDbText
 10
2044.224627947381
 20
6827.514469539244
 30
0.0
 40
13.0
  1
CONT. V301.B
100
AcDbText
  0
TEXT
  5
201
330
17
100
AcDbEntity
  8
5
 62
7
370
25
100
AcDbText
 10
5477.76886430161
 20
8071.064693710066
 30
0.0
 40
12.0
  1
V309A
100
AcDbText
  0
TEXT
  5
202
330
17
100
AcDbEntity
  8
5
 62
7
370
25
100
AcDbText
 10
5927.685551363693
 20
8071.064693710066
 30
0.0
 40
12.0
  1
V312
100
AcDbText
  0
TEXT
  5
203
330
17
100
AcDbEntity
  8
5
 62
7
370
25
100
AcDbText
 10
6391.223091079019
 20
8071.064693710066
 30
0.0
 40
12.0
  1
V314
100
AcDbText
  0
TEXT
  5
204
330
17
100
AcDbEntity
  8
5
 62
7
370
25
100
AcDbText
 10
5477.76886430161
 20
7828.910506350692
 30
0.0
 40
12.0
  1
V314
100
AcDbText
  0
TEXT
  5
205
330
17
100
AcDbEntity
  8
5
 62
7
370
25
100
AcDbText
 10
5927.685551363693
 20
7828.910506350692
 30
0.0
 40
12.0
  1
V316
100
AcDbText
  0
TEXT
  5
206
330
17
100
AcDbEntity
  8
5
 62
7
370
25
100
AcDbText
 10
6391.223091079019
 20
7828.910506350692
 30
0.0
 40
12.0
  1
V318
100
AcDbText
  0
TEXT
  5
207
330
17
100
AcDbEntity
  8
5
 62
7
370
25
100
AcDbText
 10
6433.075032167043
 20
7608.30416394747
 30
0.0
 40
12.0
  1
V322
100
AcDbText
  0
TEXT
  5
208
330
17
100
AcDbEntity
  8
5
 62
7
370
25
100
AcDbText
 10
6803.426721202561
 20
8077.628501796255
 30
0.0
 40
12.0
  1
V322
100
AcDbText
  0
TEXT
  5
209
330
17
100
AcDbEntity
  8
5
 62
7
370
25
100
AcDbText
 10
7253.343408264644
 20
8077.628501796255
 30
0.0
 40
12.0
  1
V325
100
AcDbText
  0
TEXT
  5
20A
330
17
100
AcDbEntity
  8
5
 62
7
370
25
100
AcDbText
 10
7630.380947979969
 20
8077.628501796255
 30
0.0
 40
12.0
  1
V330
100
AcDbText
  0
TEXT
  5
20B
330
17
100
AcDbEntity
  8
5
 62
7
370
25
100
AcDbText
 10
6797.920066786353
 20
7793.242824614566
 30
0.0
 40
12.0
  1
V330
100
AcDbText
  0
TEXT
  5
20C
330
17
100
AcDbEntity
  8
5
 62
7
370
25
100
AcDbText
 10
7166.843408264644
 20
7797.126166780445
 30
0.0
 40
12.0
  1
V325
100
AcDbText
  0
TEXT
  5
20D
330
17
100
AcDbEntity
  8
5
 62
7
370
25
100
AcDbText
 10
7625.865226043062
 20
7798.298220144953
 30
0.0
 40
12.0
  1
V322
100
AcDbText
  0
TEXT
  5
20E
330
17
100
AcDbEntity
  8
5
 62
7
370
25
100
AcDbText
 10
2044.233522308738
 20
6889.307040629434
 30
0.0
 40
12.0
  1
V318
100
AcDbText
  0
TEXT
  5
20F
330
17
100
AcDbEntity
  8
5
 62
7
370
25
100
AcDbText
 10
2496.09530173048
 20
6890.686689433083
 30
0.0
 40
12.0
  1
V316
100
AcDbText
  0
TEXT
  5
210
330
17
100
AcDbEntity
  8
5
 62
7
370
25
100
AcDbText
 10
2949.871114685748
 20
6896.932992351705
 30
0.0
 40
12.0
  1
V314
100
AcDbText
  0
TEXT
  5
211
330
17
100
AcDbEntity
  8
5
 62
7
370
25
100
AcDbText
 10
2041.489354877706
 20
6610.198302128893
 30
0.0
 40
12.0
  1
V314
100
AcDbText
  0
TEXT
  5
212
330
17
100
AcDbEntity
  8
5
 62
7
370
25
100
AcDbText
 10
2496.329622329979
 20
6615.521036936168
 30
0.0
 40
12.0
  1
V312
100
AcDbText
  0
TEXT
  5
213
330
17
100
AcDbEntity
  8
5
 62
7
370
25
100
AcDbText
 10
2949.218167386645
 20
6619.09526375466
 30
0.0
 40
12.0
  1
V309A
100
AcDbText
  0
TEXT
  5
214
330
17
100
AcDbEntity
  8
TEXTO PILAR
 62
7
370
25
100
AcDbText
 10
7904.984995178084
 20
7947.758041682631
 30
0.0
 40
12.0
  1
FECHAMENTO
100
AcDbText
  0
HATCH
  5
215
330
17
100
AcDbEntity
  8
COTA
 62
7
100
AcDbHatch
 10
0.0
 20
0.0
 30
0.0
210
0.0
220
0.0
230
1.0
  2
SOLID
 70
1
 71
0
 91
1
 92
3
 72
0
 73
1
 93
8
 10
5885.391111852656
 20
8277.996235037404
 10
5479.891111852656
 20
8277.996235037404
 10
5479.891111852656
 20
8277.996235037404
 10
5479.891111852656
 20
8262.996235037403
 10
5479.891111852656
 20
8262.996235037403
 10
5885.391111852656
 20
8262.996235037403
 10
5885.391111852656
 20
8262.996235037403
 10
5885.391111852656
 20
8277.996235037404
 97
0
 75
1
 76
1
 98
0
  0
HATCH
  5
216
330
17
100
AcDbEntity
  8
COTA
 62
7
100
AcDbHatch
 10
0.0
 20
0.0
 30
0.0
210
0.0
220
0.0
230
1.0
  2
SOLID
 70
1
 71
0
 91
1
 92
3
 72
0
 73
1
 93
8
 10
6009.354603068199
 20
8277.996235037404
 10
6427.3546030682
 20
8277.996235037404
 10
6427.3546030682
 20
8277.996235037404
 10
6427.3546030682
 20
8263.996235037404
 10
6427.3546030682
 20
8263.996235037404
 10
6009.354603068199
 20
8263.996235037404
 10
6009.354603068199
 20
8263.996235037404
 10
6009.354603068199
 20
8277.996235037404
 97
0
 75
1
 76
1
 98
0
  0
HATCH
  5
217
330
17
100
AcDbEntity
  8
COTA
 62
7
100
AcDbHatch
 10
0.0
 20
0.0
 30
0.0
210
0.0
220
0.0
230
1.0
  2
SOLID
 70
1
 71
0
 91
1
 92
3
 72
0
 73
1
 93
8
 10
5900.151645424511
 20
8031.400046196141
 10
5482.151645424511
 20
8031.400046196141
 10
5482.151645424511
 20
8031.400046196141
 10
5482.151645424511
 20
8016.400046196139
 10
5482.151645424511
 20
8016.400046196139
 10
5900.151645424511
 20
8016.400046196139
 10
5900.151645424511
 20
8016.400046196139
 10
5900.151645424511
 20
8031.400046196141
 97
0
 75
1
 76
1
 98
0
  0
HATCH
  5
218
330
17
100
AcDbEntity
  8
COTA
 62
7
100
AcDbHatch
 10
0.0
 20
0.0
 30
0.0
210
0.0
220
0.0
230
1.0
  2
SOLID
 70
1
 71
0
 91
1
 92
3
 72
0
 73
1
 93
8
 10
6011.917052110188
 20
8031.400046196141
 10
6429.917052110188
 20
8031.400046196141
 10
6429.917052110188
 20
8031.400046196141
 10
6429.917052110188
 20
8016.400046196141
 10
6429.917052110188
 20
8016.400046196141
 10
6011.917052110188
 20
8016.400046196141
 10
6011.917052110188
 20
8016.400046196141
 10
6011.917052110188
 20
8031.400046196141
 97
0
 75
1
 76
1
 98
0
  0
HATCH
  5
219
330
17
100
AcDbEntity
  8
COTA
 62
7
100
AcDbHatch
 10
0.0
 20
0.0
 30
0.0
210
0.0
220
0.0
230
1.0
  2
SOLID
 70
1
 71
0
 91
1
 92
3
 72
0
 73
1
 93
8
 10
5900.151645424511
 20
7791.739447168493
 10
5482.151645424511
 20
7791.739447168493
 10
5482.151645424511
 20
7791.739447168493
 10
5482.151645424511
 20
7776.739447168494
 10
5482.151645424511
 20
7776.739447168494
 10
5900.151645424511
 20
7776.739447168494
 10
5900.151645424511
 20
7776.739447168494
 10
5900.151645424511
 20
7791.739447168493
 97
0
 75
1
 76
1
 98
0
  0
HATCH
  5
21A
330
17
100
AcDbEntity
  8
COTA
 62
7
100
AcDbHatch
 10
0.0
 20
0.0
 30
0.0
210
0.0
220
0.0
230
1.0
  2
SOLID
 70
1
 71
0
 91
1
 92
3
 72
0
 73
1
 93
8
 10
6011.917052110188
 20
7791.739447168493
 10
6429.917052110188
 20
7791.739447168493
 10
6429.917052110188
 20
7791.739447168493
 10
6429.917052110188
 20
7777.739447168492
 10
6429.917052110188
 20
7777.739447168492
 10
6011.917052110188
 20
7777.739447168492
 10
6011.917052110188
 20
7777.739447168492
 10
6011.917052110188
 20
7791.739447168493
 97
0
 75
1
 76
1
 98
0
  0
HATCH
  5
21B
330
17
100
AcDbEntity
  8
COTA
 62
7
100
AcDbHatch
 10
0.0
 20
0.0
 30
0.0
210
0.0
220
0.0
230
1.0
  2
SOLID
 70
1
 71
0
 91
1
 92
3
 72
0
 73
1
 93
8
 10
7225.809502325461
 20
8283.736235220984
 10
6807.809502325461
 20
8283.736235220984
 10
6807.809502325461
 20
8283.736235220984
 10
6807.809502325461
 20
8269.736235220982
 10
6807.809502325461
 20
8269.736235220982
 10
7225.809502325461
 20
8269.736235220982
 10
7225.809502325461
 20
8269.736235220982
 10
7225.809502325461
 20
8283.736235220984
 97
0
 75
1
 76
1
 98
0
  0
HATCH
  5
21C
330
17
100
AcDbEntity
  8
COTA
 62
7
100
AcDbHatch
 10
0.0
 20
0.0
 30
0.0
210
0.0
220
0.0
230
1.0
  2
SOLID
 70
1
 71
0
 91
1
 92
3
 72
0
 73
1
 93
8
 10
7354.788339776478
 20
8283.736235220984
 10
7354.788339776478
 20
8268.736235220982
 10
7354.788339776478
 20
8268.736235220982
 10
7673.788339776478
 20
8268.736235220982
 10
7673.788339776478
 20
8268.736235220982
 10
7673.788339776478
 20
8283.736235220984
 10
7673.788339776478
 20
8283.736235220984
 10
7354.788339776478
 20
8283.736235220984
 97
0
 75
1
 76
1
 98
0
  0
HATCH
  5
21D
330
17
100
AcDbEntity
  8
Hachura
 62
7
100
AcDbHatch
 10
0.0
 20
0.0
 30
0.0
210
0.0
220
0.0
230
1.0
  2
SOLID
 70
1
 71
0
 91
1
 92
3
 72
0
 73
1
 93
8
 10
5310.151267778154
 20
8159.821123599561
 10
5314.151267778154
 20
8159.821123599561
 10
5314.151267778154
 20
8159.821123599561
 10
5314.151267778154
 20
8079.821123599582
 10
5314.151267778154
 20
8079.821123599582
 10
5310.151267778154
 20
8079.821123599582
 10
5310.151267778154
 20
8079.821123599582
 10
5310.151267778154
 20
8159.821123599561
 97
0
 75
1
 76
1
 98
0
  0
HATCH
  5
21E
330
17
100
AcDbEntity
  8
Hachura
 62
7
100
AcDbHatch
 10
0.0
 20
0.0
 30
0.0
210
0.0
220
0.0
230
1.0
  2
SOLID
 70
1
 71
0
 91
1
 92
3
 72
0
 73
1
 93
8
 10
5272.151267778154
 20
8079.821123599582
 10
5272.151267778154
 20
8084.221123599576
 10
5272.151267778154
 20
8084.221123599576
 10
5286.151267778154
 20
8084.221123599576
 10
5286.151267778154
 20
8084.221123599576
 10
5286.151267778154
 20
8079.821123599582
 10
5286.151267778154
 20
8079.821123599582
 10
5272.151267778154
 20
8079.821123599582
 97
0
 75
1
 76
1
 98
0
  0
HATCH
  5
21F
330
17
100
AcDbEntity
  8
Hachura
 62
7
100
AcDbHatch
 10
0.0
 20
0.0
 30
0.0
210
0.0
220
0.0
230
1.0
  2
SOLID
 70
1
 71
0
 91
1
 92
3
 72
0
 73
1
 93
8
 10
5272.151267778154
 20
8084.221123599576
 10
5272.151267778154
 20
8087.821123599582
 10
5272.151267778154
 20
8087.821123599582
 10
5310.151267778154
 20
8087.821123599582
 10
5310.151267778154
 20
8087.821123599582
 10
5310.151267778154
 20
8084.221123599576
 10
5310.151267778154
 20
8084.221123599576
 10
5272.151267778154
 20
8084.221123599576
 97
0
 75
1
 76
1
 98
0
  0
HATCH
  5
220
330
17
100
AcDbEntity
  8
Hachura
 62
7
100
AcDbHatch
 10
0.0
 20
0.0
 30
0.0
210
0.0
220
0.0
230
1.0
  2
SOLID
 70
1
 71
0
 91
1
 92
3
 72
0
 73
1
 93
8
 10
5310.151267778154
 20
8079.821123599582
 10
5310.151267778154
 20
8084.221123599576
 10
5310.151267778154
 20
8084.221123599576
 10
5296.151267778154
 20
8084.221123599576
 10
5296.151267778154
 20
8084.221123599576
 10
5296.151267778154
 20
8079.821123599582
 10
5296.151267778154
 20
8079.821123599582
 10
5310.151267778154
 20
8079.821123599582
 97
0
 75
1
 76
1
 98
0
  0
HATCH
  5
221
330
17
100
AcDbEntity
  8
Hachura
 62
7
100
AcDbHatch
 10
0.0
 20
0.0
 30
0.0
210
0.0
220
0.0
230
1.0
  2
SOLID
 70
1
 71
0
 91
1
 92
3
 72
0
 73
1
 93
8
 10
5268.151267778143
 20
8167.821123599582
 10
5272.151267778143
 20
8167.821123599582
 10
5272.151267778143
 20
8167.821123599582
 10
5272.151267778154
 20
8079.821123599582
 10
5272.151267778154
 20
8079.821123599582
 10
5268.151267778154
 20
8079.821123599582
 10
5268.151267778154
 20
8079.821123599582
 10
5268.151267778143
 20
8167.821123599582
 97
0
 75
1
 76
1
 98
0
  0
HATCH
  5
222
330
17
100
AcDbEntity
  8
Hachura
 62
7
100
AcDbHatch
 10
0.0
 20
0.0
 30
0.0
210
0.0
220
0.0
230
1.0
  2
SOLID
 70
1
 71
0
 91
1
 92
3
 72
0
 73
1
 93
8
 10
5310.151267778154
 20
8159.821123599561
 10
5310.151267778154
 20
8163.821123599561
 10
5310.151267778154
 20
8163.821123599561
 10
5365.75126777813
 20
8163.821123599552
 10
5365.75126777813
 20
8163.821123599552
 10
5365.75126777813
 20
8159.821123599554
 10
5365.75126777813
 20
8159.821123599554
 10
5310.151267778154
 20
8159.821123599561
 97
0
 75
1
 76
1
 98
0
  0
HATCH
  5
223
330
17
100
AcDbEntity
  8
Hachura
 62
7
100
AcDbHatch
 10
0.0
 20
0.0
 30
0.0
210
0.0
220
0.0
230
1.0
  2
SOLID
 70
1
 71
0
 91
1
 92
3
 72
0
 73
1
 93
8
 10
5314.151267778379
 20
8197.821123599582
 10
5310.551267778373
 20
8197.821123599582
 10
5310.551267778373
 20
8197.821123599582
 10
5310.551267778373
 20
8183.821123599583
 10
5310.551267778373
 20
8183.821123599583
 10
5314.151267778379
 20
8183.821123599583
 10
5314.151267778379
 20
8183.821123599583
 10
5314.151267778379
 20
8197.821123599582
 97
0
 75
1
 76
1
 98
0
  0
HATCH
  5
224
330
17
100
AcDbEntity
  8
Hachura
 62
7
100
AcDbHatch
 10
0.0
 20
0.0
 30
0.0
210
0.0
220
0.0
230
1.0
  2
SOLID
 70
1
 71
0
 91
1
 92
3
 72
0
 73
1
 93
8
 10
5318.551267778373
 20
8183.821123599583
 10
5314.151267778379
 20
8183.821123599583
 10
5314.151267778379
 20
8183.821123599583
 10
5314.151267778379
 20
8197.821123599582
 10
5314.151267778379
 20
8197.821123599582
 10
5318.551267778373
 20
8197.821123599582
 10
5318.551267778373
 20
8197.821123599582
 10
5318.551267778373
 20
8183.821123599583
 97
0
 75
1
 76
1
 98
0
  0
HATCH
  5
225
330
17
100
AcDbEntity
  8
Hachura
 62
7
100
AcDbHatch
 10
0.0
 20
0.0
 30
0.0
210
0.0
220
0.0
230
1.0
  2
SOLID
 70
1
 71
0
 91
1
 92
3
 72
0
 73
1
 93
8
 10
5216.551267778166
 20
8167.821123599598
 10
5216.551267778166
 20
8171.821123599597
 10
5216.551267778166
 20
8171.821123599597
 10
5272.151267778143
 20
8171.82112359959
 10
5272.151267778143
 20
8171.82112359959
 10
5272.151267778143
 20
8167.821123599591
 10
5272.151267778143
 20
8167.821123599591
 10
5216.551267778166
 20
8167.821123599598
 97
0
 75
1
 76
1
 98
0
  0
HATCH
  5
226
330
17
100
AcDbEntity
  8
Hachura
 62
7
100
AcDbHatch
 10
0.0
 20
0.0
 30
0.0
210
0.0
220
0.0
230
1.0
  2
SOLID
 70
1
 71
0
 91
1
 92
3
 72
0
 73
1
 93
8
 10
5263.751267778149
 20
8153.821123599589
 10
5268.151267778143
 20
8153.821123599589
 10
5268.151267778143
 20
8153.821123599589
 10
5268.151267778143
 20
8167.821123599591
 10
5268.151267778143
 20
8167.821123599591
 10
5263.751267778149
 20
8167.821123599591
 10
5263.751267778149
 20
8167.821123599591
 10
5263.751267778149
 20
8153.821123599589
 97
0
 75
1
 76
1
 98
0
  0
HATCH
  5
227
330
17
100
AcDbEntity
  8
Hachura
 62
7
100
AcDbHatch
 10
0.0
 20
0.0
 30
0.0
210
0.0
220
0.0
230
1.0
  2
SOLID
 70
1
 71
0
 91
1
 92
3
 72
0
 73
1
 93
8
 10
5263.75126777816
 20
8079.821123599582
 10
5268.151267778154
 20
8079.821123599582
 10
5268.151267778154
 20
8079.821123599582
 10
5268.151267778154
 20
8093.821123599582
 10
5268.151267778154
 20
8093.821123599582
 10
5263.75126777816
 20
8093.821123599582
 10
5263.75126777816
 20
8093.821123599582
 10
5263.75126777816
 20
8079.821123599582
 97
0
 75
1
 76
1
 98
0
  0
HATCH
  5
228
330
17
100
AcDbEntity
  8
Hachura
 62
7
100
AcDbHatch
 10
0.0
 20
0.0
 30
0.0
210
0.0
220
0.0
230
1.0
  2
SOLID
 70
1
 71
0
 91
1
 92
3
 72
0
 73
1
 93
8
 10
5318.551267778148
 20
8145.82112359956
 10
5314.151267778154
 20
8145.82112359956
 10
5314.151267778154
 20
8145.82112359956
 10
5314.151267778154
 20
8159.821123599561
 10
5314.151267778154
 20
8159.821123599561
 10
5318.551267778148
 20
8159.821123599561
 10
5318.551267778148
 20
8159.821123599561
 10
5318.551267778148
 20
8145.82112359956
 97
0
 75
1
 76
1
 98
0
  0
HATCH
  5
229
330
17
100
AcDbEntity
  8
Hachura
 62
7
100
AcDbHatch
 10
0.0
 20
0.0
 30
0.0
210
0.0
220
0.0
230
1.0
  2
SOLID
 70
1
 71
0
 91
1
 92
3
 72
0
 73
1
 93
8
 10
5318.551267778148
 20
8079.821123599582
 10
5314.151267778154
 20
8079.821123599582
 10
5314.151267778154
 20
8079.821123599582
 10
5314.151267778154
 20
8093.821123599582
 10
5314.151267778154
 20
8093.821123599582
 10
5318.551267778148
 20
8093.821123599582
 10
5318.551267778148
 20
8093.821123599582
 10
5318.551267778148
 20
8079.821123599582
 97
0
 75
1
 76
1
 98
0
  0
HATCH
  5
22A
330
17
100
AcDbEntity
  8
Hachura
 62
7
100
AcDbHatch
 10
0.0
 20
0.0
 30
0.0
210
0.0
220
0.0
230
1.0
  2
SOLID
 70
1
 71
0
 91
1
 92
3
 72
0
 73
1
 93
8
 10
5263.751267778152
 20
8116.821123599583
 10
5268.151267778147
 20
8116.821123599583
 10
5268.151267778147
 20
8116.821123599583
 10
5268.151267778147
 20
8130.821123599583
 10
5268.151267778147
 20
8130.821123599583
 10
5263.751267778152
 20
8130.821123599583
 10
5263.751267778152
 20
8130.821123599583
 10
5263.751267778152
 20
8116.821123599583
 97
0
 75
1
 76
1
 98
0
  0
HATCH
  5
22B
330
17
100
AcDbEntity
  8
Hachura
 62
7
100
AcDbHatch
 10
0.0
 20
0.0
 30
0.0
210
0.0
220
0.0
230
1.0
  2
SOLID
 70
1
 71
0
 91
1
 92
3
 72
0
 73
1
 93
8
 10
5318.551267778148
 20
8112.821123599571
 10
5314.151267778154
 20
8112.821123599571
 10
5314.151267778154
 20
8112.821123599571
 10
5314.151267778154
 20
8126.821123599572
 10
5314.151267778154
 20
8126.821123599572
 10
5318.551267778148
 20
8126.821123599572
 10
5318.551267778148
 20
8126.821123599572
 10
5318.551267778148
 20
8112.821123599571
 97
0
 75
1
 76
1
 98
0
  0
HATCH
  5
22C
330
17
100
AcDbEntity
  8
Hachura
 62
7
100
AcDbHatch
 10
0.0
 20
0.0
 30
0.0
210
0.0
220
0.0
230
1.0
  2
SOLID
 70
1
 71
0
 91
1
 92
3
 72
0
 73
1
 93
8
 10
5310.151267778154
 20
7908.679662708632
 10
5314.151267778154
 20
7908.679662708632
 10
5314.151267778154
 20
7908.679662708632
 10
5314.151267778154
 20
7698.679662708653
 10
5314.151267778154
 20
7698.679662708653
 10
5310.151267778154
 20
7698.679662708653
 10
5310.151267778154
 20
7698.679662708653
 10
5310.151267778154
 20
7908.679662708632
 97
0
 75
1
 76
1
 98
0
  0
HATCH
  5
22D
330
17
100
AcDbEntity
  8
Hachura
 62
7
100
AcDbHatch
 10
0.0
 20
0.0
 30
0.0
210
0.0
220
0.0
230
1.0
  2
SOLID
 70
1
 71
0
 91
1
 92
3
 72
0
 73
1
 93
8
 10
5272.151267778154
 20
7698.679662708653
 10
5272.151267778154
 20
7703.079662708647
 10
5272.151267778154
 20
7703.079662708647
 10
5286.151267778154
 20
7703.079662708647
 10
5286.151267778154
 20
7703.079662708647
 10
5286.151267778154
 20
7698.679662708653
 10
5286.151267778154
 20
7698.679662708653
 10
5272.151267778154
 20
7698.679662708653
 97
0
 75
1
 76
1
 98
0
  0
HATCH
  5
22E
330
17
100
AcDbEntity
  8
Hachura
 62
7
100
AcDbHatch
 10
0.0
 20
0.0
 30
0.0
210
0.0
220
0.0
230
1.0
  2
SOLID
 70
1
 71
0
 91
1
 92
3
 72
0
 73
1
 93
8
 10
5272.151267778154
 20
7703.079662708647
 10
5272.151267778154
 20
7706.679662708653
 10
5272.151267778154
 20
7706.679662708653
 10
5310.151267778154
 20
7706.679662708653
 10
5310.151267778154
 20
7706.679662708653
 10
5310.151267778154
 20
7703.079662708647
 10
5310.151267778154
 20
7703.079662708647
 10
5272.151267778154
 20
7703.079662708647
 97
0
 75
1
 76
1
 98
0
  0
HATCH
  5
22F
330
17
100
AcDbEntity
  8
Hachura
 62
7
100
AcDbHatch
 10
0.0
 20
0.0
 30
0.0
210
0.0
220
0.0
230
1.0
  2
SOLID
 70
1
 71
0
 91
1
 92
3
 72
0
 73
1
 93
8
 10
5310.151267778154
 20
7698.679662708653
 10
5310.151267778154
 20
7703.079662708647
 10
5310.151267778154
 20
7703.079662708647
 10
5296.151267778154
 20
7703.079662708647
 10
5296.151267778154
 20
7703.079662708647
 10
5296.151267778154
 20
7698.679662708653
 10
5296.151267778154
 20
7698.679662708653
 10
5310.151267778154
 20
7698.679662708653
 97
0
 75
1
 76
1
 98
0
  0
HATCH
  5
230
330
17
100
AcDbEntity
  8
Hachura
 62
7
100
AcDbHatch
 10
0.0
 20
0.0
 30
0.0
210
0.0
220
0.0
230
1.0
  2
SOLID
 70
1
 71
0
 91
1
 92
3
 72
0
 73
1
 93
8
 10
5268.151267778143
 20
7916.679662708654
 10
5272.151267778143
 20
7916.679662708654
 10
5272.151267778143
 20
7916.679662708654
 10
5272.151267778154
 20
7698.679662708653
 10
5272.151267778154
 20
7698.679662708653
 10
5268.151267778154
 20
7698.679662708653
 10
5268.151267778154
 20
7698.679662708653
 10
5268.151267778143
 20
7916.679662708654
 97
0
 75
1
 76
1
 98
0
  0
HATCH
  5
231
330
17
100
AcDbEntity
  8
Hachura
 62
7
100
AcDbHatch
 10
0.0
 20
0.0
 30
0.0
210
0.0
220
0.0
230
1.0
  2
SOLID
 70
1
 71
0
 91
1
 92
3
 72
0
 73
1
 93
8
 10
5310.151267778154
 20
7908.679662708632
 10
5310.151267778154
 20
7912.679662708632
 10
5310.151267778154
 20
7912.679662708632
 10
5365.75126777813
 20
7912.679662708625
 10
5365.75126777813
 20
7912.679662708625
 10
5365.75126777813
 20
7908.679662708625
 10
5365.75126777813
 20
7908.679662708625
 10
5310.151267778154
 20
7908.679662708632
 97
0
 75
1
 76
1
 98
0
  0
HATCH
  5
232
330
17
100
AcDbEntity
  8
Hachura
 62
7
100
AcDbHatch
 10
0.0
 20
0.0
 30
0.0
210
0.0
220
0.0
230
1.0
  2
SOLID
 70
1
 71
0
 91
1
 92
3
 72
0
 73
1
 93
8
 10
5314.151267778379
 20
7946.679662708653
 10
5310.551267778373
 20
7946.679662708653
 10
5310.551267778373
 20
7946.679662708653
 10
5310.551267778373
 20
7932.679662708654
 10
5310.551267778373
 20
7932.679662708654
 10
5314.151267778379
 20
7932.679662708654
 10
5314.151267778379
 20
7932.679662708654
 10
5314.151267778379
 20
7946.679662708653
 97
0
 75
1
 76
1
 98
0
  0
HATCH
  5
233
330
17
100
AcDbEntity
  8
Hachura
 62
7
100
AcDbHatch
 10
0.0
 20
0.0
 30
0.0
210
0.0
220
0.0
230
1.0
  2
SOLID
 70
1
 71
0
 91
1
 92
3
 72
0
 73
1
 93
8
 10
5318.551267778373
 20
7932.679662708654
 10
5314.151267778379
 20
7932.679662708654
 10
5314.151267778379
 20
7932.679662708654
 10
5314.151267778379
 20
7946.679662708653
 10
5314.151267778379
 20
7946.679662708653
 10
5318.551267778373
 20
7946.679662708653
 10
5318.551267778373
 20
7946.679662708653
 10
5318.551267778373
 20
7932.679662708654
 97
0
 75
1
 76
1
 98
0
  0
HATCH
  5
234
330
17
100
AcDbEntity
  8
Hachura
 62
7
100
AcDbHatch
 10
0.0
 20
0.0
 30
0.0
210
0.0
220
0.0
230
1.0
  2
SOLID
 70
1
 71
0
 91
1
 92
3
 72
0
 73
1
 93
8
 10
5216.551267778166
 20
7916.679662708668
 10
5216.551267778166
 20
7920.679662708668
 10
5216.551267778166
 20
7920.679662708668
 10
5272.151267778143
 20
7920.679662708661
 10
5272.151267778143
 20
7920.679662708661
 10
5272.151267778143
 20
7916.679662708661
 10
5272.151267778143
 20
7916.679662708661
 10
5216.551267778166
 20
7916.679662708668
 97
0
 75
1
 76
1
 98
0
  0
HATCH
  5
235
330
17
100
AcDbEntity
  8
Hachura
 62
7
100
AcDbHatch
 10
0.0
 20
0.0
 30
0.0
210
0.0
220
0.0
230
1.0
  2
SOLID
 70
1
 71
0
 91
1
 92
3
 72
0
 73
1
 93
8
 10
5263.751267778149
 20
7902.679662708661
 10
5268.151267778143
 20
7902.679662708661
 10
5268.151267778143
 20
7902.679662708661
 10
5268.151267778143
 20
7916.679662708661
 10
5268.151267778143
 20
7916.679662708661
 10
5263.751267778149
 20
7916.679662708661
 10
5263.751267778149
 20
7916.679662708661
 10
5263.751267778149
 20
7902.679662708661
 97
0
 75
1
 76
1
 98
0
  0
HATCH
  5
236
330
17
100
AcDbEntity
  8
Hachura
 62
7
100
AcDbHatch
 10
0.0
 20
0.0
 30
0.0
210
0.0
220
0.0
230
1.0
  2
SOLID
 70
1
 71
0
 91
1
 92
3
 72
0
 73
1
 93
8
 10
5263.75126777816
 20
7698.679662708653
 10
5268.151267778154
 20
7698.679662708653
 10
5268.151267778154
 20
7698.679662708653
 10
5268.151267778154
 20
7712.679662708653
 10
5268.151267778154
 20
7712.679662708653
 10
5263.75126777816
 20
7712.679662708653
 10
5263.75126777816
 20
7712.679662708653
 10
5263.75126777816
 20
7698.679662708653
 97
0
 75
1
 76
1
 98
0
  0
HATCH
  5
237
330
17
100
AcDbEntity
  8
Hachura
 62
7
100
AcDbHatch
 10
0.0
 20
0.0
 30
0.0
210
0.0
220
0.0
230
1.0
  2
SOLID
 70
1
 71
0
 91
1
 92
3
 72
0
 73
1
 93
8
 10
5318.551267778148
 20
7894.679662708631
 10
5314.151267778154
 20
7894.679662708631
 10
5314.151267778154
 20
7894.679662708631
 10
5314.151267778154
 20
7908.679662708632
 10
5314.151267778154
 20
7908.679662708632
 10
5318.551267778148
 20
7908.679662708632
 10
5318.551267778148
 20
7908.679662708632
 10
5318.551267778148
 20
7894.679662708631
 97
0
 75
1
 76
1
 98
0
  0
HATCH
  5
238
330
17
100
AcDbEntity
  8
Hachura
 62
7
100
AcDbHatch
 10
0.0
 20
0.0
 30
0.0
210
0.0
220
0.0
230
1.0
  2
SOLID
 70
1
 71
0
 91
1
 92
3
 72
0
 73
1
 93
8
 10
5318.551267778148
 20
7698.679662708653
 10
5314.151267778154
 20
7698.679662708653
 10
5314.151267778154
 20
7698.679662708653
 10
5314.151267778154
 20
7712.679662708653
 10
5314.151267778154
 20
7712.679662708653
 10
5318.551267778148
 20
7712.679662708653
 10
5318.551267778148
 20
7712.679662708653
 10
5318.551267778148
 20
7698.679662708653
 97
0
 75
1
 76
1
 98
0
  0
HATCH
  5
239
330
17
100
AcDbEntity
  8
Hachura
 62
7
100
AcDbHatch
 10
0.0
 20
0.0
 30
0.0
210
0.0
220
0.0
230
1.0
  2
SOLID
 70
1
 71
0
 91
1
 92
3
 72
0
 73
1
 93
8
 10
5263.751267778152
 20
7865.679662708654
 10
5268.151267778147
 20
7865.679662708654
 10
5268.151267778147
 20
7865.679662708654
 10
5268.151267778147
 20
7879.679662708653
 10
5268.151267778147
 20
7879.679662708653
 10
5263.751267778152
 20
7879.679662708653
 10
5263.751267778152
 20
7879.679662708653
 10
5263.751267778152
 20
7865.679662708654
 97
0
 75
1
 76
1
 98
0
  0
HATCH
  5
23A
330
17
100
AcDbEntity
  8
Hachura
 62
7
100
AcDbHatch
 10
0.0
 20
0.0
 30
0.0
210
0.0
220
0.0
230
1.0
  2
SOLID
 70
1
 71
0
 91
1
 92
3
 72
0
 73
1
 93
8
 10
5318.551267778148
 20
7861.679662708643
 10
5314.151267778154
 20
7861.679662708643
 10
5314.151267778154
 20
7861.679662708643
 10
5314.151267778154
 20
7875.679662708643
 10
5314.151267778154
 20
7875.679662708643
 10
5318.551267778148
 20
7875.679662708643
 10
5318.551267778148
 20
7875.679662708643
 10
5318.551267778148
 20
7861.679662708643
 97
0
 75
1
 76
1
 98
0
  0
HATCH
  5
23B
330
17
100
AcDbEntity
  8
Hachura
 62
7
100
AcDbHatch
 10
0.0
 20
0.0
 30
0.0
210
0.0
220
0.0
230
1.0
  2
SOLID
 70
1
 71
0
 91
1
 92
3
 72
0
 73
1
 93
8
 10
5263.751267778152
 20
7824.874516489855
 10
5268.151267778147
 20
7824.874516489855
 10
5268.151267778147
 20
7824.874516489855
 10
5268.151267778147
 20
7838.874516489855
 10
5268.151267778147
 20
7838.874516489855
 10
5263.751267778152
 20
7838.874516489855
 10
5263.751267778152
 20
7838.874516489855
 10
5263.751267778152
 20
7824.874516489855
 97
0
 75
1
 76
1
 98
0
  0
HATCH
  5
23C
330
17
100
AcDbEntity
  8
Hachura
 62
7
100
AcDbHatch
 10
0.0
 20
0.0
 30
0.0
210
0.0
220
0.0
230
1.0
  2
SOLID
 70
1
 71
0
 91
1
 92
3
 72
0
 73
1
 93
8
 10
5318.551267778148
 20
7820.874516489844
 10
5314.151267778154
 20
7820.874516489844
 10
5314.151267778154
 20
7820.874516489844
 10
5314.151267778154
 20
7834.874516489844
 10
5314.151267778154
 20
7834.874516489844
 10
5318.551267778148
 20
7834.874516489844
 10
5318.551267778148
 20
7834.874516489844
 10
5318.551267778148
 20
7820.874516489844
 97
0
 75
1
 76
1
 98
0
  0
HATCH
  5
23D
330
17
100
AcDbEntity
  8
Hachura
 62
7
100
AcDbHatch
 10
0.0
 20
0.0
 30
0.0
210
0.0
220
0.0
230
1.0
  2
SOLID
 70
1
 71
0
 91
1
 92
3
 72
0
 73
1
 93
8
 10
5263.751267778152
 20
7783.32574243748
 10
5268.151267778147
 20
7783.32574243748
 10
5268.151267778147
 20
7783.32574243748
 10
5268.151267778147
 20
7797.325742437481
 10
5268.151267778147
 20
7797.325742437481
 10
5263.751267778152
 20
7797.325742437481
 10
5263.751267778152
 20
7797.325742437481
 10
5263.751267778152
 20
7783.32574243748
 97
0
 75
1
 76
1
 98
0
  0
HATCH
  5
23E
330
17
100
AcDbEntity
  8
Hachura
 62
7
100
AcDbHatch
 10
0.0
 20
0.0
 30
0.0
210
0.0
220
0.0
230
1.0
  2
SOLID
 70
1
 71
0
 91
1
 92
3
 72
0
 73
1
 93
8
 10
5318.551267778148
 20
7779.32574243747
 10
5314.151267778154
 20
7779.32574243747
 10
5314.151267778154
 20
7779.32574243747
 10
5314.151267778154
 20
7793.32574243747
 10
5314.151267778154
 20
7793.32574243747
 10
5318.551267778148
 20
7793.32574243747
 10
5318.551267778148
 20
7793.32574243747
 10
5318.551267778148
 20
7779.32574243747
 97
0
 75
1
 76
1
 98
0
  0
HATCH
  5
23F
330
17
100
AcDbEntity
  8
Hachura
 62
7
100
AcDbHatch
 10
0.0
 20
0.0
 30
0.0
210
0.0
220
0.0
230
1.0
  2
SOLID
 70
1
 71
0
 91
1
 92
3
 72
0
 73
1
 93
8
 10
5263.751267778152
 20
7741.361465265071
 10
5268.151267778147
 20
7741.361465265071
 10
5268.151267778147
 20
7741.361465265071
 10
5268.151267778147
 20
7755.361465265071
 10
5268.151267778147
 20
7755.361465265071
 10
5263.751267778152
 20
7755.361465265071
 10
5263.751267778152
 20
7755.361465265071
 10
5263.751267778152
 20
7741.361465265071
 97
0
 75
1
 76
1
 98
0
  0
HATCH
  5
240
330
17
100
AcDbEntity
  8
Hachura
 62
7
100
AcDbHatch
 10
0.0
 20
0.0
 30
0.0
210
0.0
220
0.0
230
1.0
  2
SOLID
 70
1
 71
0
 91
1
 92
3
 72
0
 73
1
 93
8
 10
5318.551267778148
 20
7737.36146526506
 10
5314.151267778154
 20
7737.36146526506
 10
5314.151267778154
 20
7737.36146526506
 10
5314.151267778154
 20
7751.36146526506
 10
5314.151267778154
 20
7751.36146526506
 10
5318.551267778148
 20
7751.36146526506
 10
5318.551267778148
 20
7751.36146526506
 10
5318.551267778148
 20
7737.36146526506
 97
0
 75
1
 76
1
 98
0
  0
HATCH
  5
241
330
17
100
AcDbEntity
  8
REAPROVEITAMENTO
 62
7
100
AcDbHatch
 10
0.0
 20
0.0
 30
0.0
210
0.0
220
0.0
230
1.0
  2
SOLID
 70
1
 71
0
 91
1
 92
3
 72
0
 73
1
 93
8
 10
5479.891111852651
 20
8262.996235037403
 10
5479.891111852651
 20
8218.996235037404
 10
5479.891111852651
 20
8218.996235037404
 10
5723.891111852656
 20
8218.996235037417
 10
5723.891111852656
 20
8218.996235037417
 10
5723.891111852656
 20
8262.996235037417
 10
5723.891111852656
 20
8262.996235037417
 10
5479.891111852651
 20
8262.996235037403
 97
0
 75
1
 76
1
 98
0
  0
HATCH
  5
242
330
17
100
AcDbEntity
  8
REAPROVEITAMENTO
 62
7
100
AcDbHatch
 10
0.0
 20
0.0
 30
0.0
210
0.0
220
0.0
230
1.0
  2
SOLID
 70
1
 71
0
 91
1
 92
3
 72
0
 73
1
 93
8
 10
6185.917052110184
 20
8016.400046196141
 10
6185.917052110184
 20
7972.400046196141
 10
6185.917052110184
 20
7972.400046196141
 10
6429.917052110188
 20
7972.400046196153
 10
6429.917052110188
 20
7972.400046196153
 10
6429.917052110188
 20
8016.400046196153
 10
6429.917052110188
 20
8016.400046196153
 10
6185.917052110184
 20
8016.400046196141
 97
0
 75
1
 76
1
 98
0
  0
HATCH
  5
243
330
17
100
AcDbEntity
  8
REAPROVEITAMENTO
 62
7
100
AcDbHatch
 10
0.0
 20
0.0
 30
0.0
210
0.0
220
0.0
230
1.0
  2
SOLID
 70
1
 71
0
 91
1
 92
3
 72
0
 73
1
 93
8
 10
5482.151645424506
 20
7776.739447168494
 10
5482.151645424506
 20
7732.739447168492
 10
5482.151645424506
 20
7732.739447168492
 10
5726.15164542451
 20
7732.739447168505
 10
5726.15164542451
 20
7732.739447168505
 10
5726.15164542451
 20
7776.739447168505
 10
5726.15164542451
 20
7776.739447168505
 10
5482.151645424506
 20
7776.739447168494
 97
0
 75
1
 76
1
 98
0
  0
HATCH
  5
244
330
17
100
AcDbEntity
  8
REAPROVEITAMENTO
 62
7
100
AcDbHatch
 10
0.0
 20
0.0
 30
0.0
210
0.0
220
0.0
230
1.0
  2
SOLID
 70
1
 71
0
 91
1
 92
3
 72
0
 73
1
 93
9
 10
7429.788339776475
 20
8268.736235220982
 10
7429.788339776475
 20
8224.736235220982
 10
7429.788339776475
 20
8224.736235220982
 10
7673.788339776478
 20
8224.736235220995
 10
7673.788339776478
 20
8224.736235220991
 10
7673.788339776478
 20
8268.736235220993
 10
7673.788339776478
 20
8268.736235220993
 10
7429.788339776475
 20
8268.73623522098
 10
7429.788339776475
 20
8268.736235220982
 97
0
 75
1
 76
1
 98
0
  0
HATCH
  5
245
330
17
100
AcDbEntity
  8
COTA
 62
7
100
AcDbHatch
 10
0.0
 20
0.0
 30
0.0
210
0.0
220
0.0
230
1.0
  2
SOLID
 70
1
 71
0
 91
1
 92
3
 72
0
 73
1
 93
8
 10
2582.984818166249
 20
6815.640270757569
 10
2988.484818166249
 20
6815.640270757569
 10
2988.484818166249
 20
6815.640270757569
 10
2988.484818166249
 20
6801.64027075757
 10
2988.484818166249
 20
6801.64027075757
 10
2582.984818166249
 20
6801.64027075757
 10
2582.984818166249
 20
6801.64027075757
 10
2582.984818166249
 20
6815.640270757569
 97
0
 75
1
 76
1
 98
0
  0
HATCH
  5
246
330
17
100
AcDbEntity
  8
COTA
 62
7
100
AcDbHatch
 10
0.0
 20
0.0
 30
0.0
210
0.0
220
0.0
230
1.0
  2
SOLID
 70
1
 71
0
 91
1
 92
3
 72
0
 73
1
 93
8
 10
2459.021326950704
 20
6816.640270757568
 10
2041.021326950704
 20
6816.640270757568
 10
2041.021326950704
 20
6816.640270757568
 10
2041.021326950704
 20
6802.640270757568
 10
2041.021326950704
 20
6802.640270757568
 10
2459.021326950704
 20
6802.640270757568
 10
2459.021326950704
 20
6802.640270757568
 10
2459.021326950704
 20
6816.640270757568
 97
0
 75
1
 76
1
 98
0
  0
HATCH
  5
247
330
17
100
AcDbEntity
  8
COTA
 62
7
100
AcDbHatch
 10
0.0
 20
0.0
 30
0.0
210
0.0
220
0.0
230
1.0
  2
SOLID
 70
1
 71
0
 91
1
 92
3
 72
0
 73
1
 93
8
 10
2575.260329221539
 20
7096.305818158872
 10
2993.260329221539
 20
7096.305818158872
 10
2993.260329221539
 20
7096.305818158872
 10
2993.260329221539
 20
7082.305818158872
 10
2993.260329221539
 20
7082.305818158872
 10
2575.260329221539
 20
7082.305818158872
 10
2575.260329221539
 20
7082.305818158872
 10
2575.260329221539
 20
7096.305818158872
 97
0
 75
1
 76
1
 98
0
  0
HATCH
  5
248
330
17
100
AcDbEntity
  8
COTA
 62
7
100
AcDbHatch
 10
0.0
 20
0.0
 30
0.0
210
0.0
220
0.0
230
1.0
  2
SOLID
 70
1
 71
0
 91
1
 92
3
 72
0
 73
1
 93
8
 10
2463.494922535862
 20
7095.305818158871
 10
2045.494922535862
 20
7095.305818158871
 10
2045.494922535862
 20
7095.305818158871
 10
2045.494922535862
 20
7081.305818158871
 10
2045.494922535862
 20
7081.305818158871
 10
2463.494922535862
 20
7081.305818158871
 10
2463.494922535862
 20
7081.305818158871
 10
2463.494922535862
 20
7095.305818158871
 97
0
 75
1
 76
1
 98
0
  0
HATCH
  5
249
330
17
100
AcDbEntity
  8
COTA
 62
7
100
AcDbHatch
 10
0.0
 20
0.0
 30
0.0
210
0.0
220
0.0
230
1.0
  2
SOLID
 70
1
 71
0
 91
1
 92
3
 72
0
 73
1
 93
8
 10
7315.886698059981
 20
7752.598183980599
 10
7733.886698059982
 20
7752.598183980599
 10
7733.886698059982
 20
7752.598183980599
 10
7733.886698059982
 20
7738.598183980599
 10
7733.886698059982
 20
7738.598183980599
 10
7315.886698059981
 20
7738.598183980599
 10
7315.886698059981
 20
7738.598183980599
 10
7315.886698059981
 20
7752.598183980599
 97
0
 75
1
 76
1
 98
0
  0
HATCH
  5
24A
330
17
100
AcDbEntity
  8
COTA
 62
7
100
AcDbHatch
 10
0.0
 20
0.0
 30
0.0
210
0.0
220
0.0
230
1.0
  2
SOLID
 70
1
 71
0
 91
1
 92
3
 72
0
 73
1
 93
8
 10
7204.121291374304
 20
7753.598183980599
 10
6786.121291374304
 20
7753.598183980599
 10
6786.121291374304
 20
7753.598183980599
 10
6786.121291374304
 20
7741.598183980599
 10
6786.121291374304
 20
7741.598183980599
 10
7204.121291374304
 20
7741.598183980599
 10
7204.121291374304
 20
7741.598183980599
 10
7204.121291374304
 20
7753.598183980599
 97
0
 75
1
 76
1
 98
0
  0
HATCH
  5
24B
330
17
100
AcDbEntity
  8
COTA
 62
7
100
AcDbHatch
 10
0.0
 20
0.0
 30
0.0
210
0.0
220
0.0
230
1.0
  2
SOLID
 70
1
 71
0
 91
1
 92
3
 72
0
 73
1
 93
8
 10
7244.031074801758
 20
7995.350558039293
 10
7662.031074801759
 20
7995.350558039293
 10
7662.031074801759
 20
7995.350558039293
 10
7662.031074801759
 20
7981.350558039292
 10
7662.031074801759
 20
7981.350558039292
 10
7244.031074801758
 20
7981.350558039292
 10
7244.031074801758
 20
7981.350558039292
 10
7244.031074801758
 20
7995.350558039293
 97
0
 75
1
 76
1
 98
0
  0
HATCH
  5
24C
330
17
100
AcDbEntity
  8
COTA
 62
7
100
AcDbHatch
 10
0.0
 20
0.0
 30
0.0
210
0.0
220
0.0
230
1.0
  2
SOLID
 70
1
 71
0
 91
1
 92
3
 72
0
 73
1
 93
8
 10
7115.052237350742
 20
7980.350558039292
 10
7115.052237350742
 20
7995.350558039293
 10
7115.052237350742
 20
7995.350558039293
 10
6796.052237350742
 20
7995.350558039293
 10
6796.052237350742
 20
7995.350558039293
 10
6796.052237350742
 20
7980.350558039292
 10
6796.052237350742
 20
7980.350558039292
 10
7115.052237350742
 20
7980.350558039292
 97
0
 75
1
 76
1
 98
0
  0
HATCH
  5
24D
330
17
100
AcDbEntity
  8
REAPROVEITAMENTO
 62
7
100
AcDbHatch
 10
0.0
 20
0.0
 30
0.0
210
0.0
220
0.0
230
1.0
  2
SOLID
 70
1
 71
0
 91
1
 92
3
 72
0
 73
1
 93
9
 10
6796.052237350742
 20
8002.350558039292
 10
6796.052237350742
 20
7995.350558039293
 10
6796.052237350742
 20
7995.350558039293
 10
7040.052237350742
 20
7995.350558039293
 10
7040.052237350744
 20
7995.350558039293
 10
7040.052237350744
 20
8002.350558039292
 10
7040.052237350744
 20
8002.350558039292
 10
6796.052237350743
 20
8002.350558039292
 10
6796.052237350742
 20
8002.350558039292
 97
0
 75
1
 76
1
 98
0
  0
HATCH
  5
24E
330
17
100
AcDbEntity
  8
REAPROVEITAMENTO
 62
7
100
AcDbHatch
 10
0.0
 20
0.0
 30
0.0
210
0.0
220
0.0
230
1.0
  2
SOLID
 70
1
 71
0
 91
1
 92
3
 72
0
 73
1
 93
9
 10
6953.552237350745
 20
8002.350558039292
 10
6953.552237350745
 20
7995.350558039293
 10
6953.552237350745
 20
7995.350558039293
 10
7115.052237350742
 20
7995.350558039293
 10
7115.052237350742
 20
7995.350558039293
 10
7115.052237350742
 20
8002.350558039292
 10
7115.052237350742
 20
8002.350558039292
 10
6953.552237350743
 20
8002.350558039292
 10
6953.552237350745
 20
8002.350558039292
 97
0
 75
1
 76
1
 98
0
  0
HATCH
  5
24F
330
17
100
AcDbEntity
  8
REAPROVEITAMENTO
 62
7
100
AcDbHatch
 10
0.0
 20
0.0
 30
0.0
210
0.0
220
0.0
230
1.0
  2
SOLID
 70
1
 71
0
 91
1
 92
3
 72
0
 73
1
 93
8
 10
7244.031074801758
 20
8002.350558039278
 10
7244.031074801758
 20
7995.350558039277
 10
7244.031074801758
 20
7995.350558039277
 10
7500.531074801762
 20
7995.350558039293
 10
7500.531074801762
 20
7995.350558039293
 10
7500.531074801762
 20
8002.350558039292
 10
7500.531074801762
 20
8002.350558039292
 10
7244.031074801758
 20
8002.350558039278
 97
0
 75
1
 76
1
 98
0
  0
HATCH
  5
250
330
17
100
AcDbEntity
  8
REAPROVEITAMENTO
 62
7
100
AcDbHatch
 10
0.0
 20
0.0
 30
0.0
210
0.0
220
0.0
230
1.0
  2
SOLID
 70
1
 71
0
 91
1
 92
3
 72
0
 73
1
 93
9
 10
7500.531074801762
 20
8002.350558039292
 10
7500.531074801762
 20
7995.350558039293
 10
7500.531074801762
 20
7995.350558039293
 10
7662.03107480176
 20
7995.350558039293
 10
7662.031074801759
 20
7995.350558039293
 10
7662.031074801759
 20
8002.350558039292
 10
7662.031074801759
 20
8002.350558039292
 10
7500.53107480176
 20
8002.350558039292
 10
7500.531074801762
 20
8002.350558039292
 97
0
 75
1
 76
1
 98
0
  0
HATCH
  5
251
330
17
100
AcDbEntity
  8
REAPROVEITAMENTO
 62
7
100
AcDbHatch
 10
0.0
 20
0.0
 30
0.0
210
0.0
220
0.0
230
1.0
  2
SOLID
 70
1
 71
0
 91
1
 92
3
 72
0
 73
1
 93
8
 10
6786.121291374304
 20
7760.598183980585
 10
6786.121291374304
 20
7753.598183980584
 10
6786.121291374304
 20
7753.598183980584
 10
7042.621291374307
 20
7753.598183980599
 10
7042.621291374307
 20
7753.598183980599
 10
7042.621291374307
 20
7760.598183980599
 10
7042.621291374307
 20
7760.598183980599
 10
6786.121291374304
 20
7760.598183980585
 97
0
 75
1
 76
1
 98
0
  0
HATCH
  5
252
330
17
100
AcDbEntity
  8
REAPROVEITAMENTO
 62
7
100
AcDbHatch
 10
0.0
 20
0.0
 30
0.0
210
0.0
220
0.0
230
1.0
  2
SOLID
 70
1
 71
0
 91
1
 92
3
 72
0
 73
1
 93
9
 10
7042.621291374307
 20
7760.598183980599
 10
7042.621291374307
 20
7753.598183980599
 10
7042.621291374307
 20
7753.598183980599
 10
7204.121291374305
 20
7753.598183980599
 10
7204.121291374304
 20
7753.598183980599
 10
7204.121291374304
 20
7760.598183980599
 10
7204.121291374304
 20
7760.598183980599
 10
7042.621291374306
 20
7760.598183980599
 10
7042.621291374307
 20
7760.598183980599
 97
0
 75
1
 76
1
 98
0
  0
HATCH
  5
253
330
17
100
AcDbEntity
  8
REAPROVEITAMENTO
 62
7
100
AcDbHatch
 10
0.0
 20
0.0
 30
0.0
210
0.0
220
0.0
230
1.0
  2
SOLID
 70
1
 71
0
 91
1
 92
3
 72
0
 73
1
 93
8
 10
7315.886698059981
 20
7759.598183980584
 10
7315.886698059981
 20
7752.598183980585
 10
7315.886698059981
 20
7752.598183980585
 10
7572.386698059985
 20
7752.598183980599
 10
7572.386698059985
 20
7752.598183980599
 10
7572.386698059985
 20
7759.598183980599
 10
7572.386698059985
 20
7759.598183980599
 10
7315.886698059981
 20
7759.598183980584
 97
0
 75
1
 76
1
 98
0
  0
HATCH
  5
254
330
17
100
AcDbEntity
  8
REAPROVEITAMENTO
 62
7
100
AcDbHatch
 10
0.0
 20
0.0
 30
0.0
210
0.0
220
0.0
230
1.0
  2
SOLID
 70
1
 71
0
 91
1
 92
3
 72
0
 73
1
 93
9
 10
7572.386698059985
 20
7759.598183980599
 10
7572.386698059985
 20
7752.598183980599
 10
7572.386698059985
 20
7752.598183980599
 10
7733.886698059983
 20
7752.598183980599
 10
7733.886698059982
 20
7752.598183980599
 10
7733.886698059982
 20
7759.598183980599
 10
7733.886698059982
 20
7759.598183980599
 10
7572.386698059983
 20
7759.598183980599
 10
7572.386698059985
 20
7759.598183980599
 97
0
 75
1
 76
1
 98
0
  0
HATCH
  5
255
330
17
100
AcDbEntity
  8
REAPROVEITAMENTO
 62
7
100
AcDbHatch
 10
0.0
 20
0.0
 30
0.0
210
0.0
220
0.0
230
1.0
  2
SOLID
 70
1
 71
0
 91
1
 92
3
 72
0
 73
1
 93
8
 10
2045.494922535862
 20
7102.305818158857
 10
2045.494922535862
 20
7095.305818158857
 10
2045.494922535862
 20
7095.305818158857
 10
2301.994922535865
 20
7095.305818158871
 10
2301.994922535865
 20
7095.305818158871
 10
2301.994922535865
 20
7102.305818158871
 10
2301.994922535865
 20
7102.305818158871
 10
2045.494922535862
 20
7102.305818158857
 97
0
 75
1
 76
1
 98
0
  0
HATCH
  5
256
330
17
100
AcDbEntity
  8
REAPROVEITAMENTO
 62
7
100
AcDbHatch
 10
0.0
 20
0.0
 30
0.0
210
0.0
220
0.0
230
1.0
  2
SOLID
 70
1
 71
0
 91
1
 92
3
 72
0
 73
1
 93
9
 10
2301.994922535865
 20
7102.305818158871
 10
2301.994922535865
 20
7095.305818158871
 10
2301.994922535865
 20
7095.305818158871
 10
2463.494922535863
 20
7095.305818158871
 10
2463.494922535862
 20
7095.305818158871
 10
2463.494922535862
 20
7102.305818158871
 10
2463.494922535862
 20
7102.305818158871
 10
2301.994922535863
 20
7102.305818158871
 10
2301.994922535865
 20
7102.305818158871
 97
0
 75
1
 76
1
 98
0
  0
HATCH
  5
257
330
17
100
AcDbEntity
  8
REAPROVEITAMENTO
 62
7
100
AcDbHatch
 10
0.0
 20
0.0
 30
0.0
210
0.0
220
0.0
230
1.0
  2
SOLID
 70
1
 71
0
 91
1
 92
3
 72
0
 73
1
 93
8
 10
2575.260329221539
 20
7103.305818158857
 10
2575.260329221539
 20
7096.305818158857
 10
2575.260329221539
 20
7096.305818158857
 10
2831.760329221543
 20
7096.305818158872
 10
2831.760329221543
 20
7096.305818158872
 10
2831.760329221543
 20
7103.305818158871
 10
2831.760329221543
 20
7103.305818158871
 10
2575.260329221539
 20
7103.305818158857
 97
0
 75
1
 76
1
 98
0
  0
HATCH
  5
258
330
17
100
AcDbEntity
  8
REAPROVEITAMENTO
 62
7
100
AcDbHatch
 10
0.0
 20
0.0
 30
0.0
210
0.0
220
0.0
230
1.0
  2
SOLID
 70
1
 71
0
 91
1
 92
3
 72
0
 73
1
 93
9
 10
2831.760329221543
 20
7103.305818158871
 10
2831.760329221543
 20
7096.305818158872
 10
2831.760329221543
 20
7096.305818158872
 10
2993.260329221541
 20
7096.305818158872
 10
2993.260329221539
 20
7096.305818158872
 10
2993.260329221539
 20
7103.305818158871
 10
2993.260329221539
 20
7103.305818158871
 10
2831.760329221541
 20
7103.305818158871
 10
2831.760329221543
 20
7103.305818158871
 97
0
 75
1
 76
1
 98
0
  0
HATCH
  5
259
330
17
100
AcDbEntity
  8
REAPROVEITAMENTO
 62
7
100
AcDbHatch
 10
0.0
 20
0.0
 30
0.0
210
0.0
220
0.0
230
1.0
  2
SOLID
 70
1
 71
0
 91
1
 92
3
 72
0
 73
1
 93
8
 10
2041.021326950704
 20
6823.640270757555
 10
2041.021326950704
 20
6816.640270757554
 10
2041.021326950704
 20
6816.640270757554
 10
2297.521326950707
 20
6816.640270757568
 10
2297.521326950707
 20
6816.640270757568
 10
2297.521326950707
 20
6823.640270757569
 10
2297.521326950707
 20
6823.640270757569
 10
2041.021326950704
 20
6823.640270757555
 97
0
 75
1
 76
1
 98
0
  0
HATCH
  5
25A
330
17
100
AcDbEntity
  8
REAPROVEITAMENTO
 62
7
100
AcDbHatch
 10
0.0
 20
0.0
 30
0.0
210
0.0
220
0.0
230
1.0
  2
SOLID
 70
1
 71
0
 91
1
 92
3
 72
0
 73
1
 93
9
 10
2297.521326950707
 20
6823.640270757569
 10
2297.521326950707
 20
6816.640270757568
 10
2297.521326950707
 20
6816.640270757568
 10
2459.021326950706
 20
6816.640270757568
 10
2459.021326950704
 20
6816.640270757568
 10
2459.021326950704
 20
6823.640270757569
 10
2459.021326950704
 20
6823.640270757569
 10
2297.521326950706
 20
6823.640270757569
 10
2297.521326950707
 20
6823.640270757569
 97
0
 75
1
 76
1
 98
0
  0
HATCH
  5
25B
330
17
100
AcDbEntity
  8
REAPROVEITAMENTO
 62
7
100
AcDbHatch
 10
0.0
 20
0.0
 30
0.0
210
0.0
220
0.0
230
1.0
  2
SOLID
 70
1
 71
0
 91
1
 92
3
 72
0
 73
1
 93
8
 10
2582.984818166249
 20
6822.640270757554
 10
2582.984818166249
 20
6815.640270757555
 10
2582.984818166249
 20
6815.640270757555
 10
2839.484818166253
 20
6815.640270757569
 10
2839.484818166253
 20
6815.640270757569
 10
2839.484818166253
 20
6822.640270757569
 10
2839.484818166253
 20
6822.640270757569
 10
2582.984818166249
 20
6822.640270757554
 97
0
 75
1
 76
1
 98
0
  0
HATCH
  5
25C
330
17
100
AcDbEntity
  8
REAPROVEITAMENTO
 62
7
100
AcDbHatch
 10
0.0
 20
0.0
 30
0.0
210
0.0
220
0.0
230
1.0
  2
SOLID
 70
1
 71
0
 91
1
 92
3
 72
0
 73
1
 93
8
 10
2839.484818166253
 20
6822.640270757569
 10
2839.484818166253
 20
6815.640270757569
 10
2839.484818166253
 20
6815.640270757569
 10
2988.484818166249
 20
6815.640270757569
 10
2988.484818166249
 20
6815.640270757569
 10
2988.484818166249
 20
6822.640270757569
 10
2988.484818166249
 20
6822.640270757569
 10
2839.484818166253
 20
6822.640270757569
 97
0
 75
1
 76
1
 98
0
  0
HATCH
  5
25D
330
17
100
AcDbEntity
  8
REAPROVEITAMENTO
 62
7
100
AcDbHatch
 10
0.0
 20
0.0
 30
0.0
210
0.0
220
0.0
230
1.0
  2
SOLID
 70
1
 71
0
 91
1
 92
3
 72
0
 73
1
 93
8
 10
6183.354603068196
 20
8262.996235037403
 10
6183.354603068196
 20
8218.996235037404
 10
6183.354603068196
 20
8218.996235037404
 10
6427.3546030682
 20
8218.996235037417
 10
6427.3546030682
 20
8218.996235037417
 10
6427.3546030682
 20
8262.996235037417
 10
6427.3546030682
 20
8262.996235037417
 10
6183.354603068196
 20
8262.996235037403
 97
0
 75
1
 76
1
 98
0
  0
HATCH
  5
25E
330
17
100
AcDbEntity
  8
REAPROVEITAMENTO
 62
7
100
AcDbHatch
 10
0.0
 20
0.0
 30
0.0
210
0.0
220
0.0
230
1.0
  2
SOLID
 70
1
 71
0
 91
1
 92
3
 72
0
 73
1
 93
8
 10
5482.151645424506
 20
8016.400046196141
 10
5482.151645424506
 20
7972.400046196141
 10
5482.151645424506
 20
7972.400046196141
 10
5726.15164542451
 20
7972.400046196153
 10
5726.15164542451
 20
7972.400046196153
 10
5726.15164542451
 20
8016.400046196153
 10
5726.15164542451
 20
8016.400046196153
 10
5482.151645424506
 20
8016.400046196141
 97
0
 75
1
 76
1
 98
0
  0
HATCH
  5
25F
330
17
100
AcDbEntity
  8
REAPROVEITAMENTO
 62
7
100
AcDbHatch
 10
0.0
 20
0.0
 30
0.0
210
0.0
220
0.0
230
1.0
  2
SOLID
 70
1
 71
0
 91
1
 92
3
 72
0
 73
1
 93
8
 10
6786.1212913743
 20
7741.598183980599
 10
6786.1212913743
 20
7701.598183980593
 10
6786.1212913743
 20
7701.598183980593
 10
7030.121291374304
 20
7701.598183980604
 10
7030.121291374304
 20
7701.598183980604
 10
7030.121291374304
 20
7741.59818398061
 10
7030.121291374304
 20
7741.59818398061
 10
6786.1212913743
 20
7741.598183980599
 97
0
 75
1
 76
1
 98
0
  0
ENDSEC
  0
SECTION
  2
OBJECTS
  0
DICTIONARY
  5
A
330
0
100
AcDbDictionary
281
1
  3
ACAD_COLOR
350
B
  3
ACAD_GROUP
350
C
  3
ACAD_LAYOUT
350
D
  3
ACAD_MATERIAL
350
E
  3
ACAD_MLEADERSTYLE
350
F
  3
ACAD_MLINESTYLE
350
10
  3
ACAD_PLOTSETTINGS
350
11
  3
ACAD_PLOTSTYLENAME
350
12
  3
ACAD_SCALELIST
350
14
  3
ACAD_TABLESTYLE
350
15
  3
ACAD_VISUALSTYLE
350
16
  3
EZDXF_META
350
2D
  0
DICTIONARY
  5
B
330
A
100
AcDbDictionary
281
1
  0
DICTIONARY
  5
C
330
A
100
AcDbDictionary
281
1
  0
DICTIONARY
  5
D
330
A
100
AcDbDictionary
281
1
  3
Model
350
1A
  3
Layout1
350
1E
  0
DICTIONARY
  5
E
330
A
100
AcDbDictionary
281
1
  3
ByBlock
350
1F
  3
ByLayer
350
20
  3
Global
350
21
  0
DICTIONARY
  5
F
330
A
100
AcDbDictionary
281
1
  3
Standard
350
2C
  0
DICTIONARY
  5
10
330
A
100
AcDbDictionary
281
1
  3
Standard
350
22
  0
DICTIONARY
  5
11
330
A
100
AcDbDictionary
281
1
  0
ACDBDICTIONARYWDFLT
  5
12
330
A
100
AcDbDictionary
281
1
  3
Normal
350
13
100
AcDbDictionaryWithDefault
340
13
  0
ACDBPLACEHOLDER
  5
13
330
12
  0
DICTIONARY
  5
14
330
A
100
AcDbDictionary
281
1
  0
DICTIONARY
  5
15
330
A
100
AcDbDictionary
281
1
  0
DICTIONARY
  5
16
330
A
100
AcDbDictionary
281
1
  0
LAYOUT
  5
1A
330
D
100
AcDbPlotSettings
  1

  4
A3
  6

 40
7.5
 41
20.0
 42
7.5
 43
20.0
 44
420.0
 45
297.0
 46
0.0
 47
0.0
 48
0.0
 49
0.0
140
0.0
141
0.0
142
1.0
143
1.0
 70
1024
 72
1
 73
0
 74
5
  7

 75
16
 76
0
 77
2
 78
300
147
1.0
148
0.0
149
0.0
100
AcDbLayout
  1
Model
 70
1
 71
0
 10
0.0
 20
0.0
 11
420.0
 21
297.0
 12
0.0
 22
0.0
 32
0.0
 14
1e+20
 24
1e+20
 34
1e+20
 15
-1e+20
 25
-1e+20
 35
-1e+20
146
0.0
 13
0.0
 23
0.0
 33
0.0
 16
1.0
 26
0.0
 36
0.0
 17
0.0
 27
1.0
 37
0.0
 76
1
330
17
  0
LAYOUT
  5
1E
330
D
100
AcDbPlotSettings
  1

  4
A3
  6

 40
7.5
 41
20.0
 42
7.5
 43
20.0
 44
420.0
 45
297.0
 46
0.0
 47
0.0
 48
0.0
 49
0.0
140
0.0
141
0.0
142
1.0
143
1.0
 70
0
 72
1
 73
0
 74
5
  7

 75
16
 76
0
 77
2
 78
300
147
1.0
148
0.0
149
0.0
100
AcDbLayout
  1
Layout1
 70
1
 71
1
 10
0.0
 20
0.0
 11
420.0
 21
297.0
 12
0.0
 22
0.0
 32
0.0
 14
1e+20
 24
1e+20
 34
1e+20
 15
-1e+20
 25
-1e+20
 35
-1e+20
146
0.0
 13
0.0
 23
0.0
 33
0.0
 16
1.0
 26
0.0
 36
0.0
 17
0.0
 27
1.0
 37
0.0
 76
1
330
1B
  0
MATERIAL
  5
1F
102
{ACAD_REACTORS
330
E
102
}
330
E
100
AcDbMaterial
  1
ByBlock
  2

 70
0
 40
1.0
 71
1
 41
1.0
 91
-1023410177
 42
1.0
 72
1
  3

 73
1
 74
1
 75
1
 44
0.5
 73
0
 45
1.0
 46
1.0
 77
1
  4

 78
1
 79
1
170
1
 48
1.0
171
1
  6

172
1
173
1
174
1
140
1.0
141
1.0
175
1
  7

176
1
177
1
178
1
143
1.0
179
1
  8

270
1
271
1
272
1
145
1.0
146
1.0
273
1
  9

274
1
275
1
276
1
 42
1.0
 72
1
  3

 73
1
 74
1
 75
1
 94
63
  0
MATERIAL
  5
20
102
{ACAD_REACTORS
330
E
102
}
330
E
100
AcDbMaterial
  1
ByLayer
  2

 70
0
 40
1.0
 71
1
 41
1.0
 91
-1023410177
 42
1.0
 72
1
  3

 73
1
 74
1
 75
1
 44
0.5
 73
0
 45
1.0
 46
1.0
 77
1
  4

 78
1
 79
1
170
1
 48
1.0
171
1
  6

172
1
173
1
174
1
140
1.0
141
1.0
175
1
  7

176
1
177
1
178
1
143
1.0
179
1
  8

270
1
271
1
272
1
145
1.0
146
1.0
273
1
  9

274
1
275
1
276
1
 42
1.0
 72
1
  3

 73
1
 74
1
 75
1
 94
63
  0
MATERIAL
  5
21
102
{ACAD_REACTORS
330
E
102
}
330
E
100
AcDbMaterial
  1
Global
  2

 70
0
 40
1.0
 71
1
 41
1.0
 91
-1023410177
 42
1.0
 72
1
  3

 73
1
 74
1
 75
1
 44
0.5
 73
0
 45
1.0
 46
1.0
 77
1
  4

 78
1
 79
1
170
1
 48
1.0
171
1
  6

172
1
173
1
174
1
140
1.0
141
1.0
175
1
  7

176
1
177
1
178
1
143
1.0
179
1
  8

270
1
271
1
272
1
145
1.0
146
1.0
273
1
  9

274
1
275
1
276
1
 42
1.0
 72
1
  3

 73
1
 74
1
 75
1
 94
63
  0
MLINESTYLE
  5
22
102
{ACAD_REACTORS
330
10
102
}
330
10
100
AcDbMlineStyle
  2
Standard
 70
0
  3

 62
256
 51
90.0
 52
90.0
 71
2
 49
0.5
 62
256
  6
BYLAYER
 49
-0.5
 62
256
  6
BYLAYER
  0
MLEADERSTYLE
  5
2C
102
{ACAD_REACTORS
330
F
102
}
330
F
100
AcDbMLeaderStyle
179
2
170
2
171
1
172
0
 90
2
 40
0.0
 41
0.0
173
1
 91
-1056964608
 92
-2
290
1
 42
2.0
291
1
 43
8.0
  3
Standard
 44
4.0
300

342
29
174
1
175
1
176
0
178
1
 93
-1056964608
 45
4.0
292
0
297
0
 46
4.0
 94
-1056964608
 47
1.0
 49
1.0
140
1.0
294
1
141
0.0
177
0
142
1.0
295
0
296
0
143
3.75
271
0
272
9
273
9
  0
DICTIONARY
  5
2D
330
A
100
AcDbDictionary
280
1
281
1
  3
CREATED_BY_EZDXF
350
2E
  3
WRITTEN_BY_EZDXF
350
262
  0
DICTIONARYVAR
  5
2E
330
2D
100
DictionaryVariables
280
0
  1
1.4.3 @ 2026-06-10T16:53:23.187984+00:00
  0
DICTIONARYVAR
  5
262
330
2D
100
DictionaryVariables
280
0
  1
1.4.3 @ 2026-06-10T16:53:23.207781+00:00
  0
ENDSEC
  0
EOF
