  0
SECTION
  2
HEADER
  9
$ACADVER
  1
AC1024
  9
$ACADMAINTVER
 70
6
  9
$DWGCODEPAGE
  3
ANSI_1252
  9
$LASTSAVEDBY
  1
ezdxf
  9
$INSBASE
 10
0.0
 20
0.0
 30
0.0
  9
$EXTMIN
 10
1e+20
 20
1e+20
 30
1e+20
  9
$EXTMAX
 10
-1e+20
 20
-1e+20
 30
-1e+20
  9
$LIMMIN
 10
0.0
 20
0.0
  9
$LIMMAX
 10
420.0
 20
297.0
  9
$ORTHOMODE
 70
0
  9
$REGENMODE
 70
1
  9
$FILLMODE
 70
1
  9
$QTEXTMODE
 70
0
  9
$MIRRTEXT
 70
1
  9
$LTSCALE
 40
1.0
  9
$ATTMODE
 70
1
  9
$TEXTSIZE
 40
2.5
  9
$TRACEWID
 40
1.0
  9
$TEXTSTYLE
  7
Standard
  9
$CLAYER
  8
0
  9
$CELTYPE
  6
ByLayer
  9
$CECOLOR
 62
256
  9
$CELTSCALE
 40
1.0
  9
$DISPSILH
 70
0
  9
$DIMSCALE
 40
1.0
  9
$DIMASZ
 40
2.5
  9
$DIMEXO
 40
0.625
  9
$DIMDLI
 40
3.75
  9
$DIMRND
 40
0.0
  9
$DIMDLE
 40
0.0
  9
$DIMEXE
 40
1.25
  9
$DIMTP
 40
0.0
  9
$DIMTM
 40
0.0
  9
$DIMTXT
 40
2.5
  9
$DIMCEN
 40
2.5
  9
$DIMTSZ
 40
0.0
  9
$DIMTOL
 70
0
  9
$DIMLIM
 70
0
  9
$DIMTIH
 70
0
  9
$DIMTOH
 70
0
  9
$DIMSE1
 70
0
  9
$DIMSE2
 70
0
  9
$DIMTAD
 70
1
  9
$DIMZIN
 70
8
  9
$DIMBLK
  1

  9
$DIMASO
 70
1
  9
$DIMSHO
 70
1
  9
$DIMPOST
  1

  9
$DIMAPOST
  1

  9
$DIMALT
 70
0
  9
$DIMALTD
 70
3
  9
$DIMALTF
 40
0.03937007874
  9
$DIMLFAC
 40
1.0
  9
$DIMTOFL
 70
1
  9
$DIMTVP
 40
0.0
  9
$DIMTIX
 70
0
  9
$DIMSOXD
 70
0
  9
$DIMSAH
 70
0
  9
$DIMBLK1
  1

  9
$DIMBLK2
  1

  9
$DIMSTYLE
  2
ISO-25
  9
$DIMCLRD
 70
0
  9
$DIMCLRE
 70
0
  9
$DIMCLRT
 70
0
  9
$DIMTFAC
 40
1.0
  9
$DIMGAP
 40
0.625
  9
$DIMJUST
 70
0
  9
$DIMSD1
 70
0
  9
$DIMSD2
 70
0
  9
$DIMTOLJ
 70
0
  9
$DIMTZIN
 70
8
  9
$DIMALTZ
 70
0
  9
$DIMALTTZ
 70
0
  9
$DIMUPT
 70
0
  9
$DIMDEC
 70
2
  9
$DIMTDEC
 70
2
  9
$DIMALTU
 70
2
  9
$DIMALTTD
 70
3
  9
$DIMTXSTY
  7
Standard
  9
$DIMAUNIT
 70
0
  9
$DIMADEC
 70
0
  9
$DIMALTRND
 40
0.0
  9
$DIMAZIN
 70
0
  9
$DIMDSEP
 70
44
  9
$DIMATFIT
 70
3
  9
$DIMFRAC
 70
0
  9
$DIMLDRBLK
  1

  9
$DIMLUNIT
 70
2
  9
$DIMLWD
 70
-2
  9
$DIMLWE
 70
-2
  9
$DIMTMOVE
 70
0
  9
$DIMFXL
 40
1.0
  9
$DIMFXLON
 70
0
  9
$DIMJOGANG
 40
0.785398163397
  9
$DIMTFILL
 70
0
  9
$DIMTFILLCLR
 70
0
  9
$DIMARCSYM
 70
0
  9
$DIMLTYPE
  6

  9
$DIMLTEX1
  6

  9
$DIMLTEX2
  6

  9
$DIMTXTDIRECTION
 70
0
  9
$LUNITS
 70
2
  9
$LUPREC
 70
4
  9
$SKETCHINC
 40
1.0
  9
$FILLETRAD
 40
10.0
  9
$AUNITS
 70
0
  9
$AUPREC
 70
2
  9
$MENU
  1
.
  9
$ELEVATION
 40
0.0
  9
$PELEVATION
 40
0.0
  9
$THICKNESS
 40
0.0
  9
$LIMCHECK
 70
0
  9
$CHAMFERA
 40
0.0
  9
$CHAMFERB
 40
0.0
  9
$CHAMFERC
 40
0.0
  9
$CHAMFERD
 40
0.0
  9
$SKPOLY
 70
0
  9
$TDCREATE
 40
2461202.57875
  9
$TDUCREATE
 40
2458532.153996898
  9
$TDUPDATE
 40
2461202.57875
  9
$TDUUPDATE
 40
2458532.1544311
  9
$TDINDWG
 40
0.0
  9
$TDUSRTIMER
 40
0.0
  9
$USRTIMER
 70
1
  9
$ANGBASE
 50
0.0
  9
$ANGDIR
 70
0
  9
$PDMODE
 70
0
  9
$PDSIZE
 40
0.0
  9
$PLINEWID
 40
0.0
  9
$SPLFRAME
 70
0
  9
$SPLINETYPE
 70
6
  9
$SPLINESEGS
 70
8
  9
$HANDSEED
  5
119
  9
$SURFTAB1
 70
6
  9
$SURFTAB2
 70
6
  9
$SURFTYPE
 70
6
  9
$SURFU
 70
6
  9
$SURFV
 70
6
  9
$UCSBASE
  2

  9
$UCSNAME
  2

  9
$UCSORG
 10
0.0
 20
0.0
 30
0.0
  9
$UCSXDIR
 10
1.0
 20
0.0
 30
0.0
  9
$UCSYDIR
 10
0.0
 20
1.0
 30
0.0
  9
$UCSORTHOREF
  2

  9
$UCSORTHOVIEW
 70
0
  9
$UCSORGTOP
 10
0.0
 20
0.0
 30
0.0
  9
$UCSORGBOTTOM
 10
0.0
 20
0.0
 30
0.0
  9
$UCSORGLEFT
 10
0.0
 20
0.0
 30
0.0
  9
$UCSORGRIGHT
 10
0.0
 20
0.0
 30
0.0
  9
$UCSORGFRONT
 10
0.0
 20
0.0
 30
0.0
  9
$UCSORGBACK
 10
0.0
 20
0.0
 30
0.0
  9
$PUCSBASE
  2

  9
$PUCSNAME
  2

  9
$PUCSORG
 10
0.0
 20
0.0
 30
0.0
  9
$PUCSXDIR
 10
1.0
 20
0.0
 30
0.0
  9
$PUCSYDIR
 10
0.0
 20
1.0
 30
0.0
  9
$PUCSORTHOREF
  2

  9
$PUCSORTHOVIEW
 70
0
  9
$PUCSORGTOP
 10
0.0
 20
0.0
 30
0.0
  9
$PUCSORGBOTTOM
 10
0.0
 20
0.0
 30
0.0
  9
$PUCSORGLEFT
 10
0.0
 20
0.0
 30
0.0
  9
$PUCSORGRIGHT
 10
0.0
 20
0.0
 30
0.0
  9
$PUCSORGFRONT
 10
0.0
 20
0.0
 30
0.0
  9
$PUCSORGBACK
 10
0.0
 20
0.0
 30
0.0
  9
$USERI1
 70
0
  9
$USERI2
 70
0
  9
$USERI3
 70
0
  9
$USERI4
 70
0
  9
$USERI5
 70
0
  9
$USERR1
 40
0.0
  9
$USERR2
 40
0.0
  9
$USERR3
 40
0.0
  9
$USERR4
 40
0.0
  9
$USERR5
 40
0.0
  9
$WORLDVIEW
 70
1
  9
$SHADEDGE
 70
3
  9
$SHADEDIF
 70
70
  9
$TILEMODE
 70
1
  9
$MAXACTVP
 70
64
  9
$PINSBASE
 10
0.0
 20
0.0
 30
0.0
  9
$PLIMCHECK
 70
0
  9
$PEXTMIN
 10
1e+20
 20
1e+20
 30
1e+20
  9
$PEXTMAX
 10
-1e+20
 20
-1e+20
 30
-1e+20
  9
$PLIMMIN
 10
0.0
 20
0.0
  9
$PLIMMAX
 10
420.0
 20
297.0
  9
$UNITMODE
 70
0
  9
$VISRETAIN
 70
1
  9
$PLINEGEN
 70
0
  9
$PSLTSCALE
 70
1
  9
$TREEDEPTH
 70
3020
  9
$CMLSTYLE
  2
Standard
  9
$CMLJUST
 70
0
  9
$CMLSCALE
 40
20.0
  9
$PROXYGRAPHICS
 70
1
  9
$MEASUREMENT
 70
1
  9
$CELWEIGHT
370
-1
  9
$ENDCAPS
280
0
  9
$JOINSTYLE
280
0
  9
$LWDISPLAY
290
0
  9
$INSUNITS
 70
6
  9
$HYPERLINKBASE
  1

  9
$STYLESHEET
  1

  9
$XEDIT
290
1
  9
$CEPSNTYPE
380
0
  9
$PSTYLEMODE
290
1
  9
$FINGERPRINTGUID
  2
{192D6280-FE7C-41ED-8CE2-E6212E7AA830}
  9
$VERSIONGUID
  2
{F37FD035-2FBA-4546-94A4-7F949D0AA051}
  9
$EXTNAMES
290
1
  9
$PSVPSCALE
 40
0.0
  9
$OLESTARTUP
290
0
  9
$SORTENTS
280
127
  9
$INDEXCTL
280
0
  9
$HIDETEXT
280
1
  9
$XCLIPFRAME
280
1
  9
$HALOGAP
280
0
  9
$OBSCOLOR
 70
257
  9
$OBSLTYPE
280
0
  9
$INTERSECTIONDISPLAY
280
0
  9
$INTERSECTIONCOLOR
 70
257
  9
$DIMASSOC
280
2
  9
$PROJECTNAME
  1

  9
$CAMERADISPLAY
290
0
  9
$LENSLENGTH
 40
50.0
  9
$CAMERAHEIGHT
 40
0.0
  9
$STEPSPERSEC
 40
24.0
  9
$STEPSIZE
 40
100.0
  9
$3DDWFPREC
 40
2.0
  9
$PSOLWIDTH
 40
0.005
  9
$PSOLHEIGHT
 40
0.08
  9
$LOFTANG1
 40
1.570796326795
  9
$LOFTANG2
 40
1.570796326795
  9
$LOFTMAG1
 40
0.0
  9
$LOFTMAG2
 40
0.0
  9
$LOFTPARAM
 70
7
  9
$LOFTNORMALS
280
1
  9
$LATITUDE
 40
37.795
  9
$LONGITUDE
 40
-122.394
  9
$NORTHDIRECTION
 40
0.0
  9
$TIMEZONE
 70
-8000
  9
$LIGHTGLYPHDISPLAY
280
1
  9
$TILEMODELIGHTSYNCH
280
1
  9
$CMATERIAL
347
20
  9
$SOLIDHIST
280
0
  9
$SHOWHIST
280
1
  9
$DWFFRAME
280
2
  9
$DGNFRAME
280
2
  9
$REALWORLDSCALE
290
1
  9
$INTERFERECOLOR
 62
256
  9
$CSHADOW
280
0
  9
$SHADOWPLANELOCATION
 40
0.0
  0
ENDSEC
  0
SECTION
  2
CLASSES
  0
CLASS
  1
ACDBDICTIONARYWDFLT
  2
AcDbDictionaryWithDefault
  3
ObjectDBX Classes
 90
0
 91
0
280
0
281
0
  0
CLASS
  1
SUN
  2
AcDbSun
  3
SCENEOE
 90
1153
 91
0
280
0
281
0
  0
CLASS
  1
VISUALSTYLE
  2
AcDbVisualStyle
  3
ObjectDBX Classes
 90
4095
 91
0
280
0
281
0
  0
CLASS
  1
MATERIAL
  2
AcDbMaterial
  3
ObjectDBX Classes
 90
1153
 91
0
280
0
281
0
  0
CLASS
  1
SCALE
  2
AcDbScale
  3
ObjectDBX Classes
 90
1153
 91
0
280
0
281
0
  0
CLASS
  1
TABLESTYLE
  2
AcDbTableStyle
  3
ObjectDBX Classes
 90
4095
 91
0
280
0
281
0
  0
CLASS
  1
MLEADERSTYLE
  2
AcDbMLeaderStyle
  3
ACDB_MLEADERSTYLE_CLASS
 90
4095
 91
0
280
0
281
0
  0
CLASS
  1
DICTIONARYVAR
  2
AcDbDictionaryVar
  3
ObjectDBX Classes
 90
0
 91
0
280
0
281
0
  0
CLASS
  1
CELLSTYLEMAP
  2
AcDbCellStyleMap
  3
ObjectDBX Classes
 90
1152
 91
0
280
0
281
0
  0
CLASS
  1
MENTALRAYRENDERSETTINGS
  2
AcDbMentalRayRenderSettings
  3
SCENEOE
 90
1024
 91
0
280
0
281
0
  0
CLASS
  1
ACDBDETAILVIEWSTYLE
  2
AcDbDetailViewStyle
  3
ObjectDBX Classes
 90
1025
 91
0
280
0
281
0
  0
CLASS
  1
ACDBSECTIONVIEWSTYLE
  2
AcDbSectionViewStyle
  3
ObjectDBX Classes
 90
1025
 91
0
280
0
281
0
  0
CLASS
  1
RASTERVARIABLES
  2
AcDbRasterVariables
  3
ISM
 90
0
 91
0
280
0
281
0
  0
CLASS
  1
LAYOUT
  2
AcDbLayout
  3
ObjectDBX Classes
 90
0
 91
0
280
0
281
0
  0
CLASS
  1
ACDBPLACEHOLDER
  2
AcDbPlaceHolder
  3
ObjectDBX Classes
 90
0
 91
0
280
0
281
0
  0
ENDSEC
  0
SECTION
  2
TABLES
  0
TABLE
  2
VPORT
  5
8
330
0
100
AcDbSymbolTable
 70
1
  0
VPORT
  5
23
330
8
100
AcDbSymbolTableRecord
100
AcDbViewportTableRecord
  2
*Active
 70
0
 10
0.0
 20
0.0
 11
1.0
 21
1.0
 12
0.0
 22
0.0
 13
0.0
 23
0.0
 14
0.5
 24
0.5
 15
0.5
 25
0.5
 16
0.0
 26
0.0
 36
1.0
 17
0.0
 27
0.0
 37
0.0
 40
1000.0
 41
1.34
 42
50.0
 43
0.0
 44
0.0
 50
0.0
 51
0.0
 71
0
 72
1000
 73
1
 74
3
 75
0
 76
0
 77
0
 78
0
281
0
 65
0
146
0.0
  0
ENDTAB
  0
TABLE
  2
LTYPE
  5
2
330
0
100
AcDbSymbolTable
 70
3
  0
LTYPE
  5
24
330
2
100
AcDbSymbolTableRecord
100
AcDbLinetypeTableRecord
  2
ByBlock
 70
0
  3

 72
65
 73
0
 40
0.0
  0
LTYPE
  5
25
330
2
100
AcDbSymbolTableRecord
100
AcDbLinetypeTableRecord
  2
ByLayer
 70
0
  3

 72
65
 73
0
 40
0.0
  0
LTYPE
  5
26
330
2
100
AcDbSymbolTableRecord
100
AcDbLinetypeTableRecord
  2
Continuous
 70
0
  3

 72
65
 73
0
 40
0.0
  0
ENDTAB
  0
TABLE
  2
LAYER
  5
1
330
0
100
AcDbSymbolTable
 70
13
  0
LAYER
  5
27
330
1
100
AcDbSymbolTableRecord
100
AcDbLayerTableRecord
  2
0
 70
0
 62
7
  6
Continuous
370
-3
390
13
347
21
  0
LAYER
  5
28
330
1
100
AcDbSymbolTableRecord
100
AcDbLayerTableRecord
  2
Defpoints
 70
0
 62
7
  6
Continuous
290
0
370
-3
390
13
347
21
  0
LAYER
  5
2F
330
1
100
AcDbSymbolTableRecord
100
AcDbLayerTableRecord
  2
COTA
 70
0
 62
7
  6
Continuous
370
-3
390
13
347
21
  0
LAYER
  5
30
330
1
100
AcDbSymbolTableRecord
100
AcDbLayerTableRecord
  2
Texto Seção
 70
0
 62
7
  6
Continuous
370
-3
390
13
347
21
  0
LAYER
  5
31
330
1
100
AcDbSymbolTableRecord
100
AcDbLayerTableRecord
  2
Hachura
 70
0
 62
7
  6
Continuous
370
-3
390
13
347
21
  0
LAYER
  5
32
330
1
100
AcDbSymbolTableRecord
100
AcDbLayerTableRecord
  2
Painéis
 70
0
 62
7
  6
Continuous
370
-3
390
13
347
21
  0
LAYER
  5
33
330
1
100
AcDbSymbolTableRecord
100
AcDbLayerTableRecord
  2
Madeira
 70
0
 62
7
  6
Continuous
370
-3
390
13
347
21
  0
LAYER
  5
34
330
1
100
AcDbSymbolTableRecord
100
AcDbLayerTableRecord
  2
SARR_2.2x7
 70
0
 62
7
  6
Continuous
370
-3
390
13
347
21
  0
LAYER
  5
35
330
1
100
AcDbSymbolTableRecord
100
AcDbLayerTableRecord
  2
SARR_3.5x7
 70
0
 62
7
  6
Continuous
370
-3
390
13
347
21
  0
LAYER
  5
36
330
1
100
AcDbSymbolTableRecord
100
AcDbLayerTableRecord
  2
CONCRETO
 70
0
 62
7
  6
Continuous
370
-3
390
13
347
21
  0
LAYER
  5
37
330
1
100
AcDbSymbolTableRecord
100
AcDbLayerTableRecord
  2
5
 70
0
 62
7
  6
Continuous
370
-3
390
13
347
21
  0
LAYER
  5
38
330
1
100
AcDbSymbolTableRecord
100
AcDbLayerTableRecord
  2
REAPROVEITAMENTO
 70
0
 62
7
  6
Continuous
370
-3
390
13
347
21
  0
LAYER
  5
39
330
1
100
AcDbSymbolTableRecord
100
AcDbLayerTableRecord
  2
detalhes
 70
0
 62
7
  6
Continuous
370
-3
390
13
347
21
  0
ENDTAB
  0
TABLE
  2
STYLE
  5
5
330
0
100
AcDbSymbolTable
 70
1
  0
STYLE
  5
29
330
5
100
AcDbSymbolTableRecord
100
AcDbTextStyleTableRecord
  2
Standard
 70
0
 40
0.0
 41
1.0
 50
0.0
 71
0
 42
2.5
  3
txt
  4

  0
ENDTAB
  0
TABLE
  2
VIEW
  5
7
330
0
100
AcDbSymbolTable
 70
0
  0
ENDTAB
  0
TABLE
  2
UCS
  5
6
330
0
100
AcDbSymbolTable
 70
0
  0
ENDTAB
  0
TABLE
  2
APPID
  5
3
330
0
100
AcDbSymbolTable
 70
3
  0
APPID
  5
2A
330
3
100
AcDbSymbolTableRecord
100
AcDbRegAppTableRecord
  2
ACAD
 70
0
  0
APPID
  5
116
330
3
100
AcDbSymbolTableRecord
100
AcDbRegAppTableRecord
  2
HATCHBACKGROUNDCOLOR
 70
0
  0
APPID
  5
117
330
3
100
AcDbSymbolTableRecord
100
AcDbRegAppTableRecord
  2
EZDXF
 70
0
  0
ENDTAB
  0
TABLE
  2
DIMSTYLE
  5
4
330
0
100
AcDbSymbolTable
 70
1
100
AcDbDimStyleTable
  0
DIMSTYLE
105
2B
330
4
100
AcDbSymbolTableRecord
100
AcDbDimStyleTableRecord
  2
Standard
 70
0
 40
1.0
 41
2.5
 42
0.625
 43
3.75
 44
1.25
 45
0.0
 46
0.0
 47
0.0
 48
0.0
 49
2.5
140
2.5
141
2.5
142
0.0
143
0.03937007874
144
1.0
145
0.0
146
1.0
147
0.625
148
0.0
 69
0
 70
0
 71
0
 72
0
 73
0
 74
0
 75
0
 76
0
 77
1
 78
8
 79
3
170
0
171
3
172
1
173
0
174
0
175
0
176
0
177
0
178
0
179
2
271
2
272
2
273
2
274
3
275
0
276
0
277
2
278
44
279
0
280
0
281
0
282
0
283
0
284
8
285
0
286
0
288
0
289
3
290
0
371
-2
372
-2
  0
ENDTAB
  0
TABLE
  2
BLOCK_RECORD
  5
9
330
0
100
AcDbSymbolTable
 70
2
  0
BLOCK_RECORD
  5
17
330
9
100
AcDbSymbolTableRecord
100
AcDbBlockTableRecord
  2
*Model_Space
340
1A
 70
0
280
1
281
0
  0
BLOCK_RECORD
  5
1B
330
9
100
AcDbSymbolTableRecord
100
AcDbBlockTableRecord
  2
*Paper_Space
340
1E
 70
0
280
1
281
0
  0
ENDTAB
  0
ENDSEC
  0
SECTION
  2
BLOCKS
  0
BLOCK
  5
18
330
17
100
AcDbEntity
  8
0
100
AcDbBlockBegin
  2
*Model_Space
 70
0
 10
0.0
 20
0.0
 30
0.0
  3
*Model_Space
  1

  0
ENDBLK
  5
19
330
17
100
AcDbEntity
  8
0
100
AcDbBlockEnd
  0
BLOCK
  5
1C
330
1B
100
AcDbEntity
  8
0
100
AcDbBlockBegin
  2
*Paper_Space
 70
0
 10
0.0
 20
0.0
 30
0.0
  3
*Paper_Space
  1

  0
ENDBLK
  5
1D
330
1B
100
AcDbEntity
  8
0
100
AcDbBlockEnd
  0
ENDSEC
  0
SECTION
  2
ENTITIES
  0
LINE
  5
3A
330
17
100
AcDbEntity
  8
Defpoints
 62
7
370
25
100
AcDbLine
 10
4739.670519799761
 20
2454.945585166181
 30
0.0
 11
4739.670519799761
 21
2579.945585166181
 31
0.0
  0
LINE
  5
3B
330
17
100
AcDbEntity
  8
Painéis
 62
7
370
25
100
AcDbLine
 10
4595.390187373967
 20
2238.269869277092
 30
0.0
 11
4775.390187373971
 21
2238.269869277092
 31
0.0
  0
LINE
  5
3C
330
17
100
AcDbEntity
  8
Painéis
 62
7
370
25
100
AcDbLine
 10
4595.390187373967
 20
2184.269869277092
 30
0.0
 11
4775.390187373971
 21
2184.269869277092
 31
0.0
  0
LINE
  5
3D
330
17
100
AcDbEntity
  8
Painéis
 62
7
370
25
100
AcDbLine
 10
4595.390187373967
 20
2184.269869277092
 30
0.0
 11
4595.390187373967
 21
2238.269869277092
 31
0.0
  0
LINE
  5
3E
330
17
100
AcDbEntity
  8
Painéis
 62
7
370
25
100
AcDbLine
 10
4685.390187373971
 20
2184.269869277092
 30
0.0
 11
4685.390187373971
 21
2238.269869277092
 31
0.0
  0
LINE
  5
3F
330
17
100
AcDbEntity
  8
Painéis
 62
7
370
25
100
AcDbLine
 10
4775.390187373971
 20
2184.269869277092
 30
0.0
 11
4775.390187373971
 21
2238.269869277092
 31
0.0
  0
LINE
  5
40
330
17
100
AcDbEntity
  8
SARR_2.2x7
 62
7
370
25
100
AcDbLine
 10
4602.390187373963
 20
2184.269869277092
 30
0.0
 11
4602.390187373966
 21
2238.269869277092
 31
0.0
  0
LINE
  5
41
330
17
100
AcDbEntity
  8
SARR_2.2x7
 62
7
370
25
100
AcDbLine
 10
4768.39018737397
 20
2184.26986927709
 30
0.0
 11
4768.39018737397
 21
2238.269869277092
 31
0.0
  0
LINE
  5
42
330
17
100
AcDbEntity
  8
SARR_2.2x7
 62
7
370
25
100
AcDbLine
 10
4602.390187373966
 20
2231.269869277185
 30
0.0
 11
4685.390187373971
 21
2231.269869277195
 31
0.0
  0
LINE
  5
43
330
17
100
AcDbEntity
  8
SARR_2.2x7
 62
7
370
25
100
AcDbLine
 10
4602.390187373945
 20
2208.051744760638
 30
0.0
 11
4685.390187373971
 21
2208.051744760649
 31
0.0
  0
LINE
  5
44
330
17
100
AcDbEntity
  8
SARR_2.2x7
 62
7
370
25
100
AcDbLine
 10
4602.39018737397
 20
2215.051744760336
 30
0.0
 11
4685.390187373971
 21
2215.051744760351
 31
0.0
  0
LINE
  5
45
330
17
100
AcDbEntity
  8
SARR_2.2x7
 62
7
370
25
100
AcDbLine
 10
4602.390187373966
 20
2191.269869276999
 30
0.0
 11
4685.390187373971
 21
2191.269869276988
 31
0.0
  0
LINE
  5
46
330
17
100
AcDbEntity
  8
SARR_2.2x7
 62
7
370
25
100
AcDbLine
 10
4685.390187373971
 20
2231.269869277179
 30
0.0
 11
4768.39018737397
 21
2231.269869277189
 31
0.0
  0
LINE
  5
47
330
17
100
AcDbEntity
  8
SARR_2.2x7
 62
7
370
25
100
AcDbLine
 10
4685.390187373971
 20
2208.051744760632
 30
0.0
 11
4768.39018737397
 21
2208.051744760643
 31
0.0
  0
LINE
  5
48
330
17
100
AcDbEntity
  8
SARR_2.2x7
 62
7
370
25
100
AcDbLine
 10
4685.390187373971
 20
2215.051744760329
 30
0.0
 11
4768.39018737397
 21
2215.051744760343
 31
0.0
  0
LINE
  5
49
330
17
100
AcDbEntity
  8
SARR_2.2x7
 62
7
370
25
100
AcDbLine
 10
4685.390187373971
 20
2191.269869277006
 30
0.0
 11
4768.39018737397
 21
2191.269869276997
 31
0.0
  0
LINE
  5
4A
330
17
100
AcDbEntity
  8
Painéis
 62
7
370
25
100
AcDbLine
 10
4595.390187373967
 20
2027.088330947341
 30
0.0
 11
4775.390187373971
 21
2027.088330947341
 31
0.0
  0
LINE
  5
4B
330
17
100
AcDbEntity
  8
Painéis
 62
7
370
25
100
AcDbLine
 10
4595.390187373967
 20
1973.088330947341
 30
0.0
 11
4775.390187373971
 21
1973.088330947341
 31
0.0
  0
LINE
  5
4C
330
17
100
AcDbEntity
  8
Painéis
 62
7
370
25
100
AcDbLine
 10
4595.390187373967
 20
1973.088330947341
 30
0.0
 11
4595.390187373967
 21
2027.088330947341
 31
0.0
  0
LINE
  5
4D
330
17
100
AcDbEntity
  8
Painéis
 62
7
370
25
100
AcDbLine
 10
4685.390187373971
 20
1973.088330947341
 30
0.0
 11
4685.390187373971
 21
2027.088330947341
 31
0.0
  0
LINE
  5
4E
330
17
100
AcDbEntity
  8
Painéis
 62
7
370
25
100
AcDbLine
 10
4775.390187373971
 20
1973.088330947341
 30
0.0
 11
4775.390187373971
 21
2027.088330947341
 31
0.0
  0
LINE
  5
4F
330
17
100
AcDbEntity
  8
SARR_2.2x7
 62
7
370
25
100
AcDbLine
 10
4602.390187373963
 20
1973.088330947341
 30
0.0
 11
4602.390187373966
 21
2027.088330947341
 31
0.0
  0
LINE
  5
50
330
17
100
AcDbEntity
  8
SARR_2.2x7
 62
7
370
25
100
AcDbLine
 10
4768.39018737397
 20
1973.088330947339
 30
0.0
 11
4768.39018737397
 21
2027.088330947341
 31
0.0
  0
LINE
  5
51
330
17
100
AcDbEntity
  8
SARR_2.2x7
 62
7
370
25
100
AcDbLine
 10
4602.390187373966
 20
2020.088330947434
 30
0.0
 11
4685.390187373971
 21
2020.088330947444
 31
0.0
  0
LINE
  5
52
330
17
100
AcDbEntity
  8
SARR_2.2x7
 62
7
370
25
100
AcDbLine
 10
4602.390187373945
 20
1996.870206430887
 30
0.0
 11
4685.390187373971
 21
1996.870206430898
 31
0.0
  0
LINE
  5
53
330
17
100
AcDbEntity
  8
SARR_2.2x7
 62
7
370
25
100
AcDbLine
 10
4602.39018737397
 20
2003.870206430585
 30
0.0
 11
4685.390187373971
 21
2003.870206430601
 31
0.0
  0
LINE
  5
54
330
17
100
AcDbEntity
  8
SARR_2.2x7
 62
7
370
25
100
AcDbLine
 10
4602.390187373966
 20
1980.088330947248
 30
0.0
 11
4685.390187373971
 21
1980.088330947237
 31
0.0
  0
LINE
  5
55
330
17
100
AcDbEntity
  8
SARR_2.2x7
 62
7
370
25
100
AcDbLine
 10
4685.390187373971
 20
2020.088330947428
 30
0.0
 11
4768.39018737397
 21
2020.088330947439
 31
0.0
  0
LINE
  5
56
330
17
100
AcDbEntity
  8
SARR_2.2x7
 62
7
370
25
100
AcDbLine
 10
4685.390187373971
 20
1996.870206430882
 30
0.0
 11
4768.39018737397
 21
1996.870206430892
 31
0.0
  0
LINE
  5
57
330
17
100
AcDbEntity
  8
SARR_2.2x7
 62
7
370
25
100
AcDbLine
 10
4685.390187373971
 20
2003.870206430578
 30
0.0
 11
4768.39018737397
 21
2003.870206430592
 31
0.0
  0
LINE
  5
58
330
17
100
AcDbEntity
  8
SARR_2.2x7
 62
7
370
25
100
AcDbLine
 10
4685.390187373971
 20
1980.088330947255
 30
0.0
 11
4768.39018737397
 21
1980.088330947246
 31
0.0
  0
LINE
  5
59
330
17
100
AcDbEntity
  8
COTA
 62
7
370
25
100
AcDbLine
 10
4503.186212287697
 20
2579.945585166182
 30
0.0
 11
4503.186212287697
 21
1809.189098577078
 31
0.0
  0
LINE
  5
5A
330
17
100
AcDbEntity
  8
Defpoints
 62
7
370
25
100
AcDbLine
 10
3686.182491110241
 20
2454.945585166181
 30
0.0
 11
3686.182491110241
 21
2579.945585166181
 31
0.0
  0
LINE
  5
5B
330
17
100
AcDbEntity
  8
SARR_2.2x7
 62
7
370
25
100
AcDbLine
 10
4094.138580743884
 20
2420.706870032078
 30
0.0
 11
4209.18372150307
 21
2420.706870032096
 31
0.0
  0
LINE
  5
5C
330
17
100
AcDbEntity
  8
SARR_2.2x7
 62
7
370
25
100
AcDbLine
 10
4209.18372150307
 20
2420.706870032096
 30
0.0
 11
4387.728862262259
 21
2420.706870031832
 31
0.0
  0
LINE
  5
5D
330
17
100
AcDbEntity
  8
Painéis
 62
7
370
25
100
AcDbLine
 10
4087.183721503066
 20
2427.706870031985
 30
0.0
 11
4394.183721503067
 21
2427.706870032011
 31
0.0
  0
LINE
  5
5E
330
17
100
AcDbEntity
  8
Painéis
 62
7
370
25
100
AcDbLine
 10
4087.183721503073
 20
2317.706870031985
 30
0.0
 11
4394.183721503074
 21
2317.706870032011
 31
0.0
  0
LINE
  5
5F
330
17
100
AcDbEntity
  8
Painéis
 62
7
370
25
100
AcDbLine
 10
4394.183721503074
 20
2317.706870032011
 30
0.0
 11
4394.183721503067
 21
2427.706870032011
 31
0.0
  0
LINE
  5
60
330
17
100
AcDbEntity
  8
Painéis
 62
7
370
25
100
AcDbLine
 10
4087.183721503073
 20
2317.706870031985
 30
0.0
 11
4087.183721503066
 21
2427.706870031985
 31
0.0
  0
LINE
  5
61
330
17
100
AcDbEntity
  8
SARR_2.2x7
 62
7
370
25
100
AcDbLine
 10
4094.138580743887
 20
2317.706870031981
 30
0.0
 11
4094.138580743884
 21
2427.706870031985
 31
0.0
  0
LINE
  5
62
330
17
100
AcDbEntity
  8
SARR_2.2x7
 62
7
370
25
100
AcDbLine
 10
4387.728862262256
 20
2317.706870032007
 30
0.0
 11
4387.728862262259
 21
2427.706870031985
 31
0.0
  0
LINE
  5
63
330
17
100
AcDbEntity
  8
Painéis
 62
7
370
25
100
AcDbLine
 10
4209.183721503073
 20
2317.706870032
 30
0.0
 11
4209.183721503066
 21
2427.706870032
 31
0.0
  0
LINE
  5
64
330
17
100
AcDbEntity
  8
COTA
 62
7
370
25
100
AcDbLine
 10
4087.183721503066
 20
2427.706870031985
 30
0.0
 11
4087.183721503066
 21
2441.706870031985
 31
0.0
  0
LINE
  5
65
330
17
100
AcDbEntity
  8
COTA
 62
7
370
25
100
AcDbLine
 10
4394.183721503067
 20
2441.706870031985
 30
0.0
 11
4394.183721503067
 21
2427.706870032011
 31
0.0
  0
LINE
  5
66
330
17
100
AcDbEntity
  8
SARR_2.2x7
 62
7
370
25
100
AcDbLine
 10
4094.138580743884
 20
2324.706870031914
 30
0.0
 11
4209.18372150307
 21
2324.706870031896
 31
0.0
  0
LINE
  5
67
330
17
100
AcDbEntity
  8
SARR_2.2x7
 62
7
370
25
100
AcDbLine
 10
4209.18372150307
 20
2324.706870031896
 30
0.0
 11
4387.728862262259
 21
2324.70687003216
 31
0.0
  0
LINE
  5
68
330
17
100
AcDbEntity
  8
COTA
 62
7
370
25
100
AcDbLine
 10
4394.183721503067
 20
2441.706870031985
 30
0.0
 11
4087.183721503066
 21
2441.706870031985
 31
0.0
  0
LINE
  5
69
330
17
100
AcDbEntity
  8
SARR_2.2x7
 62
7
370
25
100
AcDbLine
 10
4094.138580743884
 20
2385.137066869367
 30
0.0
 11
4209.18372150307
 21
2385.137066869184
 31
0.0
  0
LINE
  5
6A
330
17
100
AcDbEntity
  8
SARR_2.2x7
 62
7
370
25
100
AcDbLine
 10
4094.138580743884
 20
2392.137066869065
 30
0.0
 11
4209.18372150307
 21
2392.137066868878
 31
0.0
  0
LINE
  5
6B
330
17
100
AcDbEntity
  8
SARR_2.2x7
 62
7
370
25
100
AcDbLine
 10
4209.18372150307
 20
2385.137066869384
 30
0.0
 11
4387.728862262256
 21
2385.137066869257
 31
0.0
  0
LINE
  5
6C
330
17
100
AcDbEntity
  8
SARR_2.2x7
 62
7
370
25
100
AcDbLine
 10
4209.18372150307
 20
2392.137066869082
 30
0.0
 11
4387.728862262256
 21
2392.137066868952
 31
0.0
  0
LINE
  5
6D
330
17
100
AcDbEntity
  8
Painéis
 62
7
370
25
100
AcDbLine
 10
4067.873398261445
 20
2420.706870031977
 30
0.0
 11
3892.918539020626
 21
2420.70687003198
 31
0.0
  0
LINE
  5
6E
330
17
100
AcDbEntity
  8
Painéis
 62
7
370
25
100
AcDbLine
 10
4067.873398261441
 20
2317.706870031977
 30
0.0
 11
3863.918539020628
 21
2317.70687003198
 31
0.0
  0
LINE
  5
6F
330
17
100
AcDbEntity
  8
Painéis
 62
7
370
25
100
AcDbLine
 10
3863.918539020628
 20
2317.70687003198
 30
0.0
 11
3863.918539020629
 21
2382.706870031958
 31
0.0
  0
LINE
  5
70
330
17
100
AcDbEntity
  8
Painéis
 62
7
370
25
100
AcDbLine
 10
4067.873398261441
 20
2317.706870031977
 30
0.0
 11
4067.873398261445
 21
2420.706870031977
 31
0.0
  0
LINE
  5
71
330
17
100
AcDbEntity
  8
SARR_2.2x7
 62
7
370
25
100
AcDbLine
 10
4060.918539020624
 20
2317.706870031973
 30
0.0
 11
4060.918539020628
 21
2420.706870031977
 31
0.0
  0
LINE
  5
72
330
17
100
AcDbEntity
  8
COTA
 62
7
370
25
100
AcDbLine
 10
4067.873398261445
 20
2420.706870031977
 30
0.0
 11
4067.873398261445
 21
2434.706870031977
 31
0.0
  0
LINE
  5
73
330
17
100
AcDbEntity
  8
COTA
 62
7
370
25
100
AcDbLine
 10
3863.91853902063
 20
2441.706870031956
 30
0.0
 11
3863.918539020629
 21
2382.706870031958
 31
0.0
  0
LINE
  5
74
330
17
100
AcDbEntity
  8
SARR_2.2x7
 62
7
370
25
100
AcDbLine
 10
4067.873398261445
 20
2438.206870031947
 30
0.0
 11
3892.918539020632
 21
2438.206870031955
 31
0.0
  0
LINE
  5
75
330
17
100
AcDbEntity
  8
SARR_2.2x7
 62
7
370
25
100
AcDbLine
 10
4060.918539020628
 20
2324.706870031931
 30
0.0
 11
3955.918539020628
 21
2324.70687003204
 31
0.0
  0
LINE
  5
76
330
17
100
AcDbEntity
  8
SARR_2.2x7
 62
7
370
25
100
AcDbLine
 10
3955.918539020627
 20
2385.137066869398
 30
0.0
 11
4060.918539020628
 21
2385.137066869377
 31
0.0
  0
LINE
  5
77
330
17
100
AcDbEntity
  8
SARR_2.2x7
 62
7
370
25
100
AcDbLine
 10
3955.918539020626
 20
2392.137066869095
 30
0.0
 11
4060.918539020628
 21
2392.137066869072
 31
0.0
  0
LINE
  5
78
330
17
100
AcDbEntity
  8
SARR_2.2x7
 62
7
370
25
100
AcDbLine
 10
4060.918539020628
 20
2413.706870032028
 30
0.0
 11
3899.918539020632
 21
2413.70687003186
 31
0.0
  0
LINE
  5
79
330
17
100
AcDbEntity
  8
COTA
 62
7
370
25
100
AcDbLine
 10
3892.918539020632
 20
2441.706870031954
 30
0.0
 11
3863.918539020632
 21
2441.706870031956
 31
0.0
  0
LINE
  5
7A
330
17
100
AcDbEntity
  8
SARR_2.2x7
 62
7
370
25
100
AcDbLine
 10
3955.918539020625
 20
2351.849995200044
 30
0.0
 11
4060.918539020628
 21
2351.849995200023
 31
0.0
  0
LINE
  5
7B
330
17
100
AcDbEntity
  8
SARR_2.2x7
 62
7
370
25
100
AcDbLine
 10
3955.918539020625
 20
2358.849995199741
 30
0.0
 11
4060.918539020628
 21
2358.849995199718
 31
0.0
  0
LINE
  5
7C
330
17
100
AcDbEntity
  8
SARR_2.2x7
 62
7
370
25
100
AcDbLine
 10
3955.918539020629
 20
2317.706870031958
 30
0.0
 11
3955.918539020627
 21
2324.70687003204
 31
0.0
  0
LINE
  5
7D
330
17
100
AcDbEntity
  8
SARR_2.2x7
 62
7
370
25
100
AcDbLine
 10
3955.918539020625
 20
2351.849995200044
 30
0.0
 11
3955.918539020626
 21
2358.849995199741
 31
0.0
  0
LINE
  5
7E
330
17
100
AcDbEntity
  8
SARR_2.2x7
 62
7
370
25
100
AcDbLine
 10
3955.918539020626
 20
2385.137066869398
 30
0.0
 11
3955.918539020625
 21
2392.137066869095
 31
0.0
  0
LINE
  5
7F
330
17
100
AcDbEntity
  8
SARR_2.2x7
 62
7
370
25
100
AcDbLine
 10
3870.918539020624
 20
2317.706870031975
 30
0.0
 11
3870.918539020624
 21
2382.706870031958
 31
0.0
  0
LINE
  5
80
330
17
100
AcDbEntity
  8
Painéis
 62
7
370
25
100
AcDbLine
 10
3863.918539020632
 20
2382.706870031958
 30
0.0
 11
3892.918539020632
 21
2382.706870031958
 31
0.0
  0
LINE
  5
81
330
17
100
AcDbEntity
  8
SARR_2.2x7
 62
7
370
25
100
AcDbLine
 10
3863.918539020632
 20
2375.706870031958
 30
0.0
 11
3892.918539020631
 21
2375.706870031958
 31
0.0
  0
LINE
  5
82
330
17
100
AcDbEntity
  8
Painéis
 62
7
370
25
100
AcDbLine
 10
3892.918539020632
 20
2382.706870031958
 30
0.0
 11
3892.918539020632
 21
2420.70687003198
 31
0.0
  0
LINE
  5
83
330
17
100
AcDbEntity
  8
SARR_2.2x7
 62
7
370
25
100
AcDbLine
 10
3899.918539020632
 20
2375.706870031958
 30
0.0
 11
3899.918539020632
 21
2420.70687003198
 31
0.0
  0
LINE
  5
84
330
17
100
AcDbEntity
  8
SARR_2.2x7
 62
7
370
25
100
AcDbLine
 10
3892.918539020632
 20
2382.706870031962
 30
0.0
 11
3892.918539020631
 21
2375.706870031958
 31
0.0
  0
LINE
  5
85
330
17
100
AcDbEntity
  8
SARR_2.2x7
 62
7
370
25
100
AcDbLine
 10
3892.918539020631
 20
2375.706870031958
 30
0.0
 11
3899.918539020632
 21
2375.706870031958
 31
0.0
  0
LINE
  5
86
330
17
100
AcDbEntity
  8
SARR_2.2x7
 62
7
370
25
100
AcDbLine
 10
4094.138580743884
 20
2351.849995200013
 30
0.0
 11
4209.18372150307
 21
2351.84999519983
 31
0.0
  0
LINE
  5
87
330
17
100
AcDbEntity
  8
SARR_2.2x7
 62
7
370
25
100
AcDbLine
 10
4094.138580743884
 20
2358.849995199711
 30
0.0
 11
4209.18372150307
 21
2358.849995199523
 31
0.0
  0
LINE
  5
88
330
17
100
AcDbEntity
  8
SARR_2.2x7
 62
7
370
25
100
AcDbLine
 10
4209.18372150307
 20
2351.84999520003
 30
0.0
 11
4387.728862262256
 21
2351.849995199903
 31
0.0
  0
LINE
  5
89
330
17
100
AcDbEntity
  8
SARR_2.2x7
 62
7
370
25
100
AcDbLine
 10
4209.18372150307
 20
2358.849995199728
 30
0.0
 11
4387.728862262256
 21
2358.849995199598
 31
0.0
  0
LINE
  5
8A
330
17
100
AcDbEntity
  8
SARR_2.2x7
 62
7
370
25
100
AcDbLine
 10
4160.688881797139
 20
2110.70045889443
 30
0.0
 11
4045.643741037952
 21
2110.700458894449
 31
0.0
  0
LINE
  5
8B
330
17
100
AcDbEntity
  8
SARR_2.2x7
 62
7
370
25
100
AcDbLine
 10
4045.643741037952
 20
2110.700458894449
 30
0.0
 11
3867.098600278763
 21
2110.700458894184
 31
0.0
  0
LINE
  5
8C
330
17
100
AcDbEntity
  8
Painéis
 62
7
370
25
100
AcDbLine
 10
4167.643741037957
 20
2117.700458894337
 30
0.0
 11
3860.643741037957
 21
2117.700458894363
 31
0.0
  0
LINE
  5
8D
330
17
100
AcDbEntity
  8
Painéis
 62
7
370
25
100
AcDbLine
 10
4167.643741037949
 20
2008.700458894337
 30
0.0
 11
3860.643741037949
 21
2008.700458894363
 31
0.0
  0
LINE
  5
8E
330
17
100
AcDbEntity
  8
Painéis
 62
7
370
25
100
AcDbLine
 10
3860.643741037949
 20
2008.700458894363
 30
0.0
 11
3860.643741037957
 21
2117.700458894363
 31
0.0
  0
LINE
  5
8F
330
17
100
AcDbEntity
  8
Painéis
 62
7
370
25
100
AcDbLine
 10
4167.643741037949
 20
2008.700458894337
 30
0.0
 11
4167.643741037957
 21
2117.700458894337
 31
0.0
  0
LINE
  5
90
330
17
100
AcDbEntity
  8
SARR_2.2x7
 62
7
370
25
100
AcDbLine
 10
4160.688881797136
 20
2008.700458894334
 30
0.0
 11
4160.688881797139
 21
2117.700458894337
 31
0.0
  0
LINE
  5
91
330
17
100
AcDbEntity
  8
SARR_2.2x7
 62
7
370
25
100
AcDbLine
 10
3867.098600278767
 20
2008.700458894359
 30
0.0
 11
3867.098600278763
 21
2117.700458894337
 31
0.0
  0
LINE
  5
92
330
17
100
AcDbEntity
  8
Painéis
 62
7
370
25
100
AcDbLine
 10
4045.643741037949
 20
2008.700458894352
 30
0.0
 11
4045.643741037957
 21
2117.700458894352
 31
0.0
  0
LINE
  5
93
330
17
100
AcDbEntity
  8
COTA
 62
7
370
25
100
AcDbLine
 10
4167.643741037957
 20
2117.700458894337
 30
0.0
 11
4167.643741037957
 21
2132.700458894337
 31
0.0
  0
LINE
  5
94
330
17
100
AcDbEntity
  8
COTA
 62
7
370
25
100
AcDbLine
 10
3860.643741037957
 20
2132.700458894337
 30
0.0
 11
3860.643741037957
 21
2117.700458894363
 31
0.0
  0
LINE
  5
95
330
17
100
AcDbEntity
  8
SARR_2.2x7
 62
7
370
25
100
AcDbLine
 10
4160.688881797139
 20
2015.700458894267
 30
0.0
 11
4045.643741037952
 21
2015.700458894248
 31
0.0
  0
LINE
  5
96
330
17
100
AcDbEntity
  8
SARR_2.2x7
 62
7
370
25
100
AcDbLine
 10
4045.643741037952
 20
2015.700458894248
 30
0.0
 11
3867.098600278763
 21
2015.700458894512
 31
0.0
  0
LINE
  5
97
330
17
100
AcDbEntity
  8
COTA
 62
7
370
25
100
AcDbLine
 10
3860.643741037957
 20
2132.700458894337
 30
0.0
 11
4167.643741037957
 21
2132.700458894337
 31
0.0
  0
LINE
  5
98
330
17
100
AcDbEntity
  8
SARR_2.2x7
 62
7
370
25
100
AcDbLine
 10
4160.688881797139
 20
2076.13065573172
 30
0.0
 11
4045.643741037952
 21
2076.130655731537
 31
0.0
  0
LINE
  5
99
330
17
100
AcDbEntity
  8
SARR_2.2x7
 62
7
370
25
100
AcDbLine
 10
4160.688881797139
 20
2083.130655731418
 30
0.0
 11
4045.643741037952
 21
2083.13065573123
 31
0.0
  0
LINE
  5
9A
330
17
100
AcDbEntity
  8
SARR_2.2x7
 62
7
370
25
100
AcDbLine
 10
4045.643741037952
 20
2076.130655731736
 30
0.0
 11
3867.098600278767
 21
2076.130655731609
 31
0.0
  0
LINE
  5
9B
330
17
100
AcDbEntity
  8
SARR_2.2x7
 62
7
370
25
100
AcDbLine
 10
4045.643741037952
 20
2083.130655731434
 30
0.0
 11
3867.098600278767
 21
2083.130655731304
 31
0.0
  0
LINE
  5
9C
330
17
100
AcDbEntity
  8
Painéis
 62
7
370
25
100
AcDbLine
 10
4182.954064279578
 20
2110.700458894329
 30
0.0
 11
4357.908923520397
 21
2110.700458894332
 31
0.0
  0
LINE
  5
9D
330
17
100
AcDbEntity
  8
Painéis
 62
7
370
25
100
AcDbLine
 10
4182.954064279582
 20
2008.700458894329
 30
0.0
 11
4386.908923520396
 21
2008.700458894332
 31
0.0
  0
LINE
  5
9E
330
17
100
AcDbEntity
  8
Painéis
 62
7
370
25
100
AcDbLine
 10
4386.908923520396
 20
2008.700458894332
 30
0.0
 11
4386.908923520393
 21
2073.70045889431
 31
0.0
  0
LINE
  5
9F
330
17
100
AcDbEntity
  8
Painéis
 62
7
370
25
100
AcDbLine
 10
4182.954064279582
 20
2008.700458894329
 30
0.0
 11
4182.954064279578
 21
2110.700458894329
 31
0.0
  0
LINE
  5
A0
330
17
100
AcDbEntity
  8
SARR_2.2x7
 62
7
370
25
100
AcDbLine
 10
4189.908923520399
 20
2008.700458894326
 30
0.0
 11
4189.908923520396
 21
2110.700458894329
 31
0.0
  0
LINE
  5
A1
330
17
100
AcDbEntity
  8
COTA
 62
7
370
25
100
AcDbLine
 10
4182.954064279578
 20
2110.700458894329
 30
0.0
 11
4182.954064279578
 21
2125.700458894329
 31
0.0
  0
LINE
  5
A2
330
17
100
AcDbEntity
  8
COTA
 62
7
370
25
100
AcDbLine
 10
4386.908923520393
 20
2132.700458894309
 30
0.0
 11
4386.908923520393
 21
2073.70045889431
 31
0.0
  0
LINE
  5
A3
330
17
100
AcDbEntity
  8
SARR_2.2x7
 62
7
370
25
100
AcDbLine
 10
4182.954064279578
 20
2129.200458894299
 30
0.0
 11
4357.908923520391
 21
2129.200458894306
 31
0.0
  0
LINE
  5
A4
330
17
100
AcDbEntity
  8
SARR_2.2x7
 62
7
370
25
100
AcDbLine
 10
4189.908923520396
 20
2015.700458894283
 30
0.0
 11
4294.908923520395
 21
2015.700458894392
 31
0.0
  0
LINE
  5
A5
330
17
100
AcDbEntity
  8
SARR_2.2x7
 62
7
370
25
100
AcDbLine
 10
4294.908923520398
 20
2076.13065573175
 30
0.0
 11
4189.908923520396
 21
2076.130655731729
 31
0.0
  0
LINE
  5
A6
330
17
100
AcDbEntity
  8
SARR_2.2x7
 62
7
370
25
100
AcDbLine
 10
4294.908923520398
 20
2083.130655731447
 30
0.0
 11
4189.908923520396
 21
2083.130655731425
 31
0.0
  0
LINE
  5
A7
330
17
100
AcDbEntity
  8
SARR_2.2x7
 62
7
370
25
100
AcDbLine
 10
4189.908923520396
 20
2103.70045889438
 30
0.0
 11
4350.908923520392
 21
2103.700458894212
 31
0.0
  0
LINE
  5
A8
330
17
100
AcDbEntity
  8
COTA
 62
7
370
25
100
AcDbLine
 10
4357.908923520391
 20
2132.700458894307
 30
0.0
 11
4386.908923520392
 21
2132.700458894309
 31
0.0
  0
LINE
  5
A9
330
17
100
AcDbEntity
  8
SARR_2.2x7
 62
7
370
25
100
AcDbLine
 10
4294.908923520398
 20
2042.843584062396
 30
0.0
 11
4189.908923520396
 21
2042.843584062375
 31
0.0
  0
LINE
  5
AA
330
17
100
AcDbEntity
  8
SARR_2.2x7
 62
7
370
25
100
AcDbLine
 10
4294.908923520398
 20
2049.843584062093
 30
0.0
 11
4189.908923520396
 21
2049.84358406207
 31
0.0
  0
LINE
  5
AB
330
17
100
AcDbEntity
  8
SARR_2.2x7
 62
7
370
25
100
AcDbLine
 10
4294.908923520393
 20
2008.700458894311
 30
0.0
 11
4294.908923520398
 21
2015.700458894392
 31
0.0
  0
LINE
  5
AC
330
17
100
AcDbEntity
  8
SARR_2.2x7
 62
7
370
25
100
AcDbLine
 10
4294.908923520398
 20
2042.843584062396
 30
0.0
 11
4294.908923520398
 21
2049.843584062093
 31
0.0
  0
LINE
  5
AD
330
17
100
AcDbEntity
  8
SARR_2.2x7
 62
7
370
25
100
AcDbLine
 10
4294.908923520398
 20
2076.13065573175
 30
0.0
 11
4294.908923520398
 21
2083.130655731447
 31
0.0
  0
LINE
  5
AE
330
17
100
AcDbEntity
  8
SARR_2.2x7
 62
7
370
25
100
AcDbLine
 10
4379.908923520399
 20
2008.700458894327
 30
0.0
 11
4379.908923520399
 21
2073.70045889431
 31
0.0
  0
LINE
  5
AF
330
17
100
AcDbEntity
  8
Painéis
 62
7
370
25
100
AcDbLine
 10
4386.908923520392
 20
2073.70045889431
 30
0.0
 11
4357.908923520391
 21
2073.70045889431
 31
0.0
  0
LINE
  5
B0
330
17
100
AcDbEntity
  8
SARR_2.2x7
 62
7
370
25
100
AcDbLine
 10
4386.908923520392
 20
2066.70045889431
 30
0.0
 11
4357.908923520393
 21
2066.70045889431
 31
0.0
  0
LINE
  5
B1
330
17
100
AcDbEntity
  8
Painéis
 62
7
370
25
100
AcDbLine
 10
4357.908923520391
 20
2073.70045889431
 30
0.0
 11
4357.90892352039
 21
2110.700458894332
 31
0.0
  0
LINE
  5
B2
330
17
100
AcDbEntity
  8
SARR_2.2x7
 62
7
370
25
100
AcDbLine
 10
4350.908923520392
 20
2066.70045889431
 30
0.0
 11
4350.90892352039
 21
2110.700458894332
 31
0.0
  0
LINE
  5
B3
330
17
100
AcDbEntity
  8
SARR_2.2x7
 62
7
370
25
100
AcDbLine
 10
4357.908923520391
 20
2073.700458894314
 30
0.0
 11
4357.908923520393
 21
2066.70045889431
 31
0.0
  0
LINE
  5
B4
330
17
100
AcDbEntity
  8
SARR_2.2x7
 62
7
370
25
100
AcDbLine
 10
4357.908923520393
 20
2066.70045889431
 30
0.0
 11
4350.908923520392
 21
2066.70045889431
 31
0.0
  0
LINE
  5
B5
330
17
100
AcDbEntity
  8
SARR_2.2x7
 62
7
370
25
100
AcDbLine
 10
4160.688881797139
 20
2042.843584062365
 30
0.0
 11
4045.643741037952
 21
2042.843584062183
 31
0.0
  0
LINE
  5
B6
330
17
100
AcDbEntity
  8
SARR_2.2x7
 62
7
370
25
100
AcDbLine
 10
4160.688881797139
 20
2049.843584062063
 30
0.0
 11
4045.643741037952
 21
2049.843584061876
 31
0.0
  0
LINE
  5
B7
330
17
100
AcDbEntity
  8
SARR_2.2x7
 62
7
370
25
100
AcDbLine
 10
4045.643741037952
 20
2042.843584062381
 30
0.0
 11
3867.098600278767
 21
2042.843584062255
 31
0.0
  0
LINE
  5
B8
330
17
100
AcDbEntity
  8
SARR_2.2x7
 62
7
370
25
100
AcDbLine
 10
4045.643741037952
 20
2049.84358406208
 30
0.0
 11
3867.098600278767
 21
2049.84358406195
 31
0.0
  0
LWPOLYLINE
  5
B9
330
17
100
AcDbEntity
  8
Painéis
 62
7
370
25
100
AcDbPolyline
 90
4
 70
1
 10
4716.670519799758
 20
2454.945585166181
 10
4720.670519799758
 20
2454.945585166181
 10
4720.670519799758
 20
2346.945585166181
 10
4716.670519799758
 20
2346.945585166181
  0
LWPOLYLINE
  5
BA
330
17
100
AcDbEntity
  8
Madeira
 62
7
370
25
100
AcDbPolyline
 90
4
 70
1
 10
4758.670519799758
 20
2346.945585166181
 10
4758.670519799758
 20
2351.345585166175
 10
4744.670519799758
 20
2351.345585166175
 10
4744.670519799758
 20
2346.945585166181
  0
LWPOLYLINE
  5
BB
330
17
100
AcDbEntity
  8
Painéis
 62
7
370
25
100
AcDbPolyline
 90
4
 70
1
 10
4758.670519799758
 20
2351.345585166175
 10
4758.670519799758
 20
2354.945585166181
 10
4720.670519799758
 20
2354.945585166181
 10
4720.670519799758
 20
2351.345585166175
  0
LWPOLYLINE
  5
BC
330
17
100
AcDbEntity
  8
Madeira
 62
7
370
25
100
AcDbPolyline
 90
4
 70
1
 10
4720.670519799758
 20
2346.945585166181
 10
4720.670519799758
 20
2351.345585166175
 10
4734.670519799758
 20
2351.345585166175
 10
4734.670519799758
 20
2346.945585166181
  0
LWPOLYLINE
  5
BD
330
17
100
AcDbEntity
  8
Painéis
 62
7
370
25
100
AcDbPolyline
 90
4
 70
1
 10
4762.670519799768
 20
2454.945585166181
 10
4758.670519799768
 20
2454.945585166181
 10
4758.670519799758
 20
2346.945585166181
 10
4762.670519799757
 20
2346.945585166181
  0
LWPOLYLINE
  5
BE
330
17
100
AcDbEntity
  8
CONCRETO
 62
7
370
25
100
AcDbPolyline
 90
8
 70
1
 10
4720.670519799758
 20
2454.945585166181
 10
4720.670519799758
 20
2454.945585166181
 10
4758.670519799765
 20
2454.945585166181
 10
4758.670519799765
 20
2426.945585166166
 10
4758.670519799758
 20
2426.945585166166
 10
4758.670519799699
 20
2354.945585166181
 10
4720.670519799758
 20
2354.945585166181
 10
4720.670519799758
 20
2454.945585166188
  0
LWPOLYLINE
  5
BF
330
17
100
AcDbEntity
  8
Madeira
 62
7
370
25
100
AcDbPolyline
 90
4
 70
1
 10
4716.670519799758
 20
2440.945585166181
 10
4712.270519799764
 20
2440.945585166181
 10
4712.270519799764
 20
2454.945585166181
 10
4716.670519799758
 20
2454.945585166181
  0
LWPOLYLINE
  5
C0
330
17
100
AcDbEntity
  8
Madeira
 62
7
370
25
100
AcDbPolyline
 90
4
 70
1
 10
4716.670519799762
 20
2402.915642694487
 10
4712.270519799767
 20
2402.915642694487
 10
4712.270519799767
 20
2416.915642694487
 10
4716.670519799762
 20
2416.915642694487
  0
LWPOLYLINE
  5
C1
330
17
100
AcDbEntity
  8
Madeira
 62
7
370
25
100
AcDbPolyline
 90
4
 70
1
 10
4716.670519799769
 20
2346.945585166181
 10
4712.270519799774
 20
2346.945585166181
 10
4712.270519799774
 20
2360.945585166181
 10
4716.670519799769
 20
2360.945585166181
  0
LWPOLYLINE
  5
C2
330
17
100
AcDbEntity
  8
Madeira
 62
7
370
25
100
AcDbPolyline
 90
4
 70
1
 10
4762.670519799764
 20
2440.945585166181
 10
4767.07051979976
 20
2440.945585166181
 10
4767.07051979976
 20
2454.945585166181
 10
4762.670519799764
 20
2454.945585166181
  0
LWPOLYLINE
  5
C3
330
17
100
AcDbEntity
  8
Madeira
 62
7
370
25
100
AcDbPolyline
 90
4
 70
1
 10
4762.670519799761
 20
2402.915642694487
 10
4767.070519799755
 20
2402.915642694487
 10
4767.070519799755
 20
2416.915642694487
 10
4762.670519799761
 20
2416.915642694487
  0
LWPOLYLINE
  5
C4
330
17
100
AcDbEntity
  8
Madeira
 62
7
370
25
100
AcDbPolyline
 90
4
 70
1
 10
4762.670519799754
 20
2346.945585166181
 10
4767.070519799748
 20
2346.945585166181
 10
4767.070519799748
 20
2360.945585166181
 10
4762.670519799754
 20
2360.945585166181
  0
LWPOLYLINE
  5
C5
330
17
100
AcDbEntity
  8
SARR_3.5x7
 62
7
370
25
100
AcDbPolyline
 90
4
 70
1
 10
4698.270519799701
 20
2448.94558516618
 10
4712.270519799702
 20
2448.94558516618
 10
4712.270519799829
 20
2270.467371760375
 10
4698.270519799829
 20
2270.467371760375
  0
LWPOLYLINE
  5
C6
330
17
100
AcDbEntity
  8
SARR_3.5x7
 62
7
370
25
100
AcDbPolyline
 90
4
 70
1
 10
4781.070519799988
 20
2448.94558516618
 10
4767.070519799989
 20
2448.94558516618
 10
4767.070519799839
 20
2270.467371760375
 10
4781.070519799839
 20
2270.467371760375
  0
LWPOLYLINE
  5
C7
330
17
100
AcDbEntity
  8
SARR_3.5x7
 62
7
370
25
100
AcDbPolyline
 90
4
 70
1
 10
4698.270519799687
 20
2346.945585166181
 10
4781.070519799887
 20
2346.945585166179
 10
4781.070519799887
 20
2316.88752356218
 10
4698.270519799687
 20
2316.887523562182
  0
LWPOLYLINE
  5
C8
330
17
100
AcDbEntity
  8
Painéis
 62
7
370
25
100
AcDbPolyline
 90
4
 70
1
 10
3660.982491110245
 20
2424.945585166159
 10
3664.982491110244
 20
2424.945585166159
 10
3664.982491110244
 20
2206.945585166181
 10
3660.982491110245
 20
2206.945585166181
  0
LWPOLYLINE
  5
C9
330
17
100
AcDbEntity
  8
Madeira
 62
7
370
25
100
AcDbPolyline
 90
4
 70
1
 10
3702.982491110244
 20
2206.945585166181
 10
3702.982491110244
 20
2211.345585166175
 10
3688.982491110245
 20
2211.345585166175
 10
3688.982491110245
 20
2206.945585166181
  0
LWPOLYLINE
  5
CA
330
17
100
AcDbEntity
  8
Painéis
 62
7
370
25
100
AcDbPolyline
 90
4
 70
1
 10
3702.982491110244
 20
2211.345585166175
 10
3702.982491110244
 20
2214.945585166181
 10
3664.982491110244
 20
2214.945585166181
 10
3664.982491110244
 20
2211.345585166175
  0
LWPOLYLINE
  5
CB
330
17
100
AcDbEntity
  8
Madeira
 62
7
370
25
100
AcDbPolyline
 90
4
 70
1
 10
3664.982491110244
 20
2206.945585166181
 10
3664.982491110244
 20
2211.345585166175
 10
3678.982491110244
 20
2211.345585166175
 10
3678.982491110244
 20
2206.945585166181
  0
LWPOLYLINE
  5
CC
330
17
100
AcDbEntity
  8
Painéis
 62
7
370
25
100
AcDbPolyline
 90
4
 70
1
 10
3706.982491110244
 20
2424.945585166159
 10
3702.982491110244
 20
2424.945585166159
 10
3702.982491110244
 20
2206.945585166181
 10
3706.982491110244
 20
2206.945585166181
  0
LWPOLYLINE
  5
CD
330
17
100
AcDbEntity
  8
Painéis
 62
7
370
25
100
AcDbPolyline
 90
4
 70
1
 10
3746.926005834826
 20
2424.945585166159
 10
3746.926005834826
 20
2428.945585166159
 10
3702.982491110244
 20
2428.945585166159
 10
3702.982491110244
 20
2424.945585166159
  0
LWPOLYLINE
  5
CE
330
17
100
AcDbEntity
  8
Painéis
 62
7
370
25
100
AcDbPolyline
 90
4
 70
1
 10
3664.982491110244
 20
2424.945585166159
 10
3664.982491110244
 20
2428.945585166159
 10
3626.345853923918
 20
2428.945585166152
 10
3626.345853923918
 20
2424.945585166152
  0
LWPOLYLINE
  5
CF
330
17
100
AcDbEntity
  8
CONCRETO
 62
7
370
25
100
AcDbPolyline
 90
8
 70
1
 10
3626.345853923918
 20
2428.945585166152
 10
3626.345853923918
 20
2454.945585166181
 10
3746.926005834826
 20
2454.945585166181
 10
3746.926005834826
 20
2428.945585166166
 10
3702.982491110244
 20
2428.945585166166
 10
3702.982491110186
 20
2214.945585166181
 10
3664.982491110244
 20
2214.945585166181
 10
3664.982491110244
 20
2428.945585166159
  0
LWPOLYLINE
  5
D0
330
17
100
AcDbEntity
  8
Madeira
 62
7
370
25
100
AcDbPolyline
 90
4
 70
1
 10
3656.58249111025
 20
2410.945585166159
 10
3660.982491110245
 20
2410.945585166159
 10
3660.982491110245
 20
2424.945585166159
 10
3656.58249111025
 20
2424.945585166159
  0
LWPOLYLINE
  5
D1
330
17
100
AcDbEntity
  8
Madeira
 62
7
370
25
100
AcDbPolyline
 90
4
 70
1
 10
3656.58249111025
 20
2206.945585166181
 10
3660.982491110245
 20
2206.945585166181
 10
3660.982491110245
 20
2220.94558516618
 10
3656.58249111025
 20
2220.94558516618
  0
LWPOLYLINE
  5
D2
330
17
100
AcDbEntity
  8
Madeira
 62
7
370
25
100
AcDbPolyline
 90
4
 70
1
 10
3711.382491110239
 20
2410.945585166159
 10
3706.982491110244
 20
2410.945585166159
 10
3706.982491110244
 20
2424.945585166159
 10
3711.382491110239
 20
2424.945585166159
  0
LWPOLYLINE
  5
D3
330
17
100
AcDbEntity
  8
Madeira
 62
7
370
25
100
AcDbPolyline
 90
4
 70
1
 10
3711.382491110239
 20
2206.945585166181
 10
3706.982491110244
 20
2206.945585166181
 10
3706.982491110244
 20
2220.94558516618
 10
3711.382491110239
 20
2220.94558516618
  0
LWPOLYLINE
  5
D4
330
17
100
AcDbEntity
  8
Madeira
 62
7
370
25
100
AcDbPolyline
 90
4
 70
1
 10
3656.58249111025
 20
2275.189916018375
 10
3660.982491110245
 20
2275.189916018375
 10
3660.982491110245
 20
2289.189916018375
 10
3656.58249111025
 20
2289.189916018375
  0
LWPOLYLINE
  5
D5
330
17
100
AcDbEntity
  8
Madeira
 62
7
370
25
100
AcDbPolyline
 90
4
 70
1
 10
3711.382491110239
 20
2275.189916018375
 10
3706.982491110244
 20
2275.189916018375
 10
3706.982491110244
 20
2289.189916018375
 10
3711.382491110239
 20
2289.189916018375
  0
LWPOLYLINE
  5
D6
330
17
100
AcDbEntity
  8
SARR_3.5x7
 62
7
370
25
100
AcDbPolyline
 90
4
 70
1
 10
3642.582491110185
 20
2418.945585166159
 10
3656.582491110185
 20
2418.945585166159
 10
3656.582491110312
 20
2130.467371760374
 10
3642.582491110312
 20
2130.467371760374
  0
LWPOLYLINE
  5
D7
330
17
100
AcDbEntity
  8
SARR_3.5x7
 62
7
370
25
100
AcDbPolyline
 90
4
 70
1
 10
3725.382491110472
 20
2418.945585166161
 10
3711.382491110472
 20
2418.945585166161
 10
3711.382491110326
 20
2130.467371760374
 10
3725.382491110326
 20
2130.467371760374
  0
LWPOLYLINE
  5
D8
330
17
100
AcDbEntity
  8
SARR_3.5x7
 62
7
370
25
100
AcDbPolyline
 90
4
 70
1
 10
3642.58249111017
 20
2206.945585166181
 10
3725.382491110373
 20
2206.945585166179
 10
3725.382491110373
 20
2176.88752356218
 10
3642.58249111017
 20
2176.887523562182
  0
LWPOLYLINE
  5
D9
330
17
100
AcDbEntity
  8
Painéis
 62
7
370
25
100
AcDbPolyline
 90
4
 70
1
 10
4067.873398261445
 20
2434.706870031977
 10
3892.918539020632
 20
2434.706870031954
 10
3892.918539020632
 20
2441.706870031954
 10
4067.873398261445
 20
2441.706870031977
  0
LWPOLYLINE
  5
DA
330
17
100
AcDbEntity
  8
Painéis
 62
7
370
25
100
AcDbPolyline
 90
4
 70
1
 10
4182.954064279578
 20
2125.700458894329
 10
4357.908923520391
 20
2125.700458894307
 10
4357.908923520391
 20
2132.700458894307
 10
4182.954064279578
 20
2132.700458894329
  0
LWPOLYLINE
  5
DB
330
17
100
AcDbEntity
  8
Madeira
 62
7
370
25
100
AcDbPolyline
 90
4
 70
1
 10
3656.58249111025
 20
2352.906173252057
 10
3660.982491110245
 20
2352.906173252057
 10
3660.982491110245
 20
2366.906173252057
 10
3656.58249111025
 20
2366.906173252057
  0
LWPOLYLINE
  5
DC
330
17
100
AcDbEntity
  8
Madeira
 62
7
370
25
100
AcDbPolyline
 90
4
 70
1
 10
3711.382491110239
 20
2352.906173252057
 10
3706.982491110244
 20
2352.906173252057
 10
3706.982491110244
 20
2366.906173252057
 10
3711.382491110239
 20
2366.906173252057
  0
TEXT
  5
DD
330
17
100
AcDbEntity
  8
detalhes
 62
7
370
25
100
AcDbText
 10
4767.385002975795
 20
2407.567680742071
 30
0.0
 40
9.600000000000001
  1
b
100
AcDbText
  0
TEXT
  5
DE
330
17
100
AcDbEntity
  8
detalhes
 62
7
370
25
100
AcDbText
 10
4704.841344330059
 20
2407.578738187647
 30
0.0
 40
9.600000000000001
  1
a
100
AcDbText
  0
TEXT
  5
DF
330
17
100
AcDbEntity
  8
detalhes
 62
7
370
25
100
AcDbText
 10
4731.270785415203
 20
2357.18133868602
 30
0.0
 40
9.600000000000001
  1
c
100
AcDbText
  0
TEXT
  5
E0
330
17
100
AcDbEntity
  8
5
 62
7
370
25
100
AcDbText
 10
4596.432051829222
 20
2101.176274067953
 30
0.0
 40
12.0
  1
V304
100
AcDbText
  0
TEXT
  5
E1
330
17
100
AcDbEntity
  8
5
 62
7
370
25
100
AcDbText
 10
4751.744693428966
 20
2101.176274067953
 30
0.0
 40
12.0
  1
V305
100
AcDbText
  0
TEXT
  5
E2
330
17
100
AcDbEntity
  8
Texto Seção
 62
7
370
25
100
AcDbText
 10
4598.390187373937
 20
2247.456244698069
 30
0.0
 40
13.0
  1
V326.A
100
AcDbText
  0
TEXT
  5
E3
330
17
100
AcDbEntity
  8
5
 62
7
370
25
100
AcDbText
 10
4744.191665699414
 20
1889.994735738202
 30
0.0
 40
12.0
  1
V304
100
AcDbText
  0
TEXT
  5
E4
330
17
100
AcDbEntity
  8
5
 62
7
370
25
100
AcDbText
 10
4592.809989156154
 20
1889.994735738202
 30
0.0
 40
12.0
  1
V305
100
AcDbText
  0
TEXT
  5
E5
330
17
100
AcDbEntity
  8
Texto Seção
 62
7
370
25
100
AcDbText
 10
4598.390187373937
 20
2036.274706368319
 30
0.0
 40
13.0
  1
V326.B
100
AcDbText
  0
TEXT
  5
E6
330
17
100
AcDbEntity
  8
detalhes
 62
7
370
25
100
AcDbText
 10
3711.696974286282
 20
2355.135256695463
 30
0.0
 40
9.600000000000001
  1
b
100
AcDbText
  0
TEXT
  5
E7
330
17
100
AcDbEntity
  8
detalhes
 62
7
370
25
100
AcDbText
 10
3649.153315640546
 20
2355.146314141039
 30
0.0
 40
9.600000000000001
  1
a
100
AcDbText
  0
TEXT
  5
E8
330
17
100
AcDbEntity
  8
detalhes
 62
7
370
25
100
AcDbText
 10
3675.58275672569
 20
2217.181338686019
 30
0.0
 40
9.600000000000001
  1
c
100
AcDbText
  0
TEXT
  5
E9
330
17
100
AcDbEntity
  8
5
 62
7
370
25
100
AcDbText
 10
4067.420909233771
 20
2226.063007040794
 30
0.0
 40
12.0
  1
V301
100
AcDbText
  0
TEXT
  5
EA
330
17
100
AcDbEntity
  8
5
 62
7
370
25
100
AcDbText
 10
4367.024784759999
 20
2231.28737783901
 30
0.0
 40
12.0
  1
P17
100
AcDbText
  0
TEXT
  5
EB
330
17
100
AcDbEntity
  8
Texto Seção
 62
7
370
25
100
AcDbText
 10
3866.33613454232
 20
2449.509781536775
 30
0.0
 40
13.0
  1
V325.A
100
AcDbText
  0
TEXT
  5
EC
330
17
100
AcDbEntity
  8
Texto Seção
 62
7
370
25
100
AcDbText
 10
3861.43238873732
 20
2138.185786315674
 30
0.0
 40
13.0
  1
V325.B
100
AcDbText
  0
TEXT
  5
ED
330
17
100
AcDbEntity
  8
5
 62
7
370
25
100
AcDbText
 10
3860.994409623744
 20
2229.675658128719
 30
0.0
 40
12.0
  1
VF301
100
AcDbText
  0
TEXT
  5
EE
330
17
100
AcDbEntity
  8
5
 62
7
370
25
100
AcDbText
 10
4151.259213607395
 20
1915.35706842229
 30
0.0
 40
12.0
  1
V301
100
AcDbText
  0
TEXT
  5
EF
330
17
100
AcDbEntity
  8
5
 62
7
370
25
100
AcDbText
 10
3859.759021573664
 20
1920.58143419918
 30
0.0
 40
12.0
  1
P17
100
AcDbText
  0
TEXT
  5
F0
330
17
100
AcDbEntity
  8
5
 62
7
370
25
100
AcDbText
 10
4343.445604076907
 20
1918.969668368763
 30
0.0
 40
12.0
  1
VF301
100
AcDbText
  0
HATCH
  5
F1
330
17
100
AcDbEntity
  8
Hachura
 62
7
100
AcDbHatch
 10
0.0
 20
0.0
 30
0.0
210
0.0
220
0.0
230
1.0
  2
SOLID
 70
1
 71
0
 91
1
 92
3
 72
0
 73
1
 93
8
 10
4720.670519799758
 20
2454.945585166181
 10
4716.670519799758
 20
2454.945585166181
 10
4716.670519799758
 20
2454.945585166181
 10
4716.670519799758
 20
2346.945585166181
 10
4716.670519799758
 20
2346.945585166181
 10
4720.670519799758
 20
2346.945585166181
 10
4720.670519799758
 20
2346.945585166181
 10
4720.670519799758
 20
2454.945585166181
 97
0
 75
1
 76
1
 98
0
  0
HATCH
  5
F2
330
17
100
AcDbEntity
  8
Hachura
 62
7
100
AcDbHatch
 10
0.0
 20
0.0
 30
0.0
210
0.0
220
0.0
230
1.0
  2
SOLID
 70
1
 71
0
 91
1
 92
3
 72
0
 73
1
 93
8
 10
4758.670519799758
 20
2346.945585166181
 10
4758.670519799758
 20
2351.345585166175
 10
4758.670519799758
 20
2351.345585166175
 10
4744.670519799758
 20
2351.345585166175
 10
4744.670519799758
 20
2351.345585166175
 10
4744.670519799758
 20
2346.945585166181
 10
4744.670519799758
 20
2346.945585166181
 10
4758.670519799758
 20
2346.945585166181
 97
0
 75
1
 76
1
 98
0
  0
HATCH
  5
F3
330
17
100
AcDbEntity
  8
Hachura
 62
7
100
AcDbHatch
 10
0.0
 20
0.0
 30
0.0
210
0.0
220
0.0
230
1.0
  2
SOLID
 70
1
 71
0
 91
1
 92
3
 72
0
 73
1
 93
8
 10
4758.670519799758
 20
2351.345585166175
 10
4758.670519799758
 20
2354.945585166181
 10
4758.670519799758
 20
2354.945585166181
 10
4720.670519799758
 20
2354.945585166181
 10
4720.670519799758
 20
2354.945585166181
 10
4720.670519799758
 20
2351.345585166175
 10
4720.670519799758
 20
2351.345585166175
 10
4758.670519799758
 20
2351.345585166175
 97
0
 75
1
 76
1
 98
0
  0
HATCH
  5
F4
330
17
100
AcDbEntity
  8
Hachura
 62
7
100
AcDbHatch
 10
0.0
 20
0.0
 30
0.0
210
0.0
220
0.0
230
1.0
  2
SOLID
 70
1
 71
0
 91
1
 92
3
 72
0
 73
1
 93
8
 10
4720.670519799758
 20
2346.945585166181
 10
4720.670519799758
 20
2351.345585166175
 10
4720.670519799758
 20
2351.345585166175
 10
4734.670519799758
 20
2351.345585166175
 10
4734.670519799758
 20
2351.345585166175
 10
4734.670519799758
 20
2346.945585166181
 10
4734.670519799758
 20
2346.945585166181
 10
4720.670519799758
 20
2346.945585166181
 97
0
 75
1
 76
1
 98
0
  0
HATCH
  5
F5
330
17
100
AcDbEntity
  8
Hachura
 62
7
100
AcDbHatch
 10
0.0
 20
0.0
 30
0.0
210
0.0
220
0.0
230
1.0
  2
SOLID
 70
1
 71
0
 91
1
 92
3
 72
0
 73
1
 93
8
 10
4762.670519799757
 20
2454.94558516618
 10
4758.670519799758
 20
2454.945585166181
 10
4758.670519799758
 20
2454.945585166181
 10
4758.670519799758
 20
2346.945585166181
 10
4758.670519799758
 20
2346.945585166181
 10
4762.670519799757
 20
2346.945585166181
 10
4762.670519799757
 20
2346.945585166181
 10
4762.670519799757
 20
2454.94558516618
 97
0
 75
1
 76
1
 98
0
  0
HATCH
  5
F6
330
17
100
AcDbEntity
  8
Hachura
 62
7
100
AcDbHatch
 10
0.0
 20
0.0
 30
0.0
210
0.0
220
0.0
230
1.0
  2
SOLID
 70
1
 71
0
 91
1
 92
3
 72
0
 73
1
 93
8
 10
4716.670519799758
 20
2440.945585166181
 10
4712.270519799764
 20
2440.945585166181
 10
4712.270519799764
 20
2440.945585166181
 10
4712.270519799764
 20
2454.945585166181
 10
4712.270519799764
 20
2454.945585166181
 10
4716.670519799758
 20
2454.945585166181
 10
4716.670519799758
 20
2454.945585166181
 10
4716.670519799758
 20
2440.945585166181
 97
0
 75
1
 76
1
 98
0
  0
HATCH
  5
F7
330
17
100
AcDbEntity
  8
Hachura
 62
7
100
AcDbHatch
 10
0.0
 20
0.0
 30
0.0
210
0.0
220
0.0
230
1.0
  2
SOLID
 70
1
 71
0
 91
1
 92
3
 72
0
 73
1
 93
8
 10
4716.670519799762
 20
2402.915642694487
 10
4712.270519799767
 20
2402.915642694487
 10
4712.270519799767
 20
2402.915642694487
 10
4712.270519799767
 20
2416.915642694487
 10
4712.270519799767
 20
2416.915642694487
 10
4716.670519799762
 20
2416.915642694487
 10
4716.670519799762
 20
2416.915642694487
 10
4716.670519799762
 20
2402.915642694487
 97
0
 75
1
 76
1
 98
0
  0
HATCH
  5
F8
330
17
100
AcDbEntity
  8
Hachura
 62
7
100
AcDbHatch
 10
0.0
 20
0.0
 30
0.0
210
0.0
220
0.0
230
1.0
  2
SOLID
 70
1
 71
0
 91
1
 92
3
 72
0
 73
1
 93
8
 10
4716.670519799769
 20
2346.945585166181
 10
4712.270519799774
 20
2346.945585166181
 10
4712.270519799774
 20
2346.945585166181
 10
4712.270519799774
 20
2360.945585166181
 10
4712.270519799774
 20
2360.945585166181
 10
4716.670519799769
 20
2360.945585166181
 10
4716.670519799769
 20
2360.945585166181
 10
4716.670519799769
 20
2346.945585166181
 97
0
 75
1
 76
1
 98
0
  0
HATCH
  5
F9
330
17
100
AcDbEntity
  8
Hachura
 62
7
100
AcDbHatch
 10
0.0
 20
0.0
 30
0.0
210
0.0
220
0.0
230
1.0
  2
SOLID
 70
1
 71
0
 91
1
 92
3
 72
0
 73
1
 93
8
 10
4762.670519799764
 20
2440.945585166181
 10
4767.07051979976
 20
2440.945585166181
 10
4767.07051979976
 20
2440.945585166181
 10
4767.07051979976
 20
2454.945585166181
 10
4767.07051979976
 20
2454.945585166181
 10
4762.670519799764
 20
2454.945585166181
 10
4762.670519799764
 20
2454.945585166181
 10
4762.670519799764
 20
2440.945585166181
 97
0
 75
1
 76
1
 98
0
  0
HATCH
  5
FA
330
17
100
AcDbEntity
  8
Hachura
 62
7
100
AcDbHatch
 10
0.0
 20
0.0
 30
0.0
210
0.0
220
0.0
230
1.0
  2
SOLID
 70
1
 71
0
 91
1
 92
3
 72
0
 73
1
 93
8
 10
4762.670519799761
 20
2402.915642694487
 10
4767.070519799755
 20
2402.915642694487
 10
4767.070519799755
 20
2402.915642694487
 10
4767.070519799755
 20
2416.915642694487
 10
4767.070519799755
 20
2416.915642694487
 10
4762.670519799761
 20
2416.915642694487
 10
4762.670519799761
 20
2416.915642694487
 10
4762.670519799761
 20
2402.915642694487
 97
0
 75
1
 76
1
 98
0
  0
HATCH
  5
FB
330
17
100
AcDbEntity
  8
Hachura
 62
7
100
AcDbHatch
 10
0.0
 20
0.0
 30
0.0
210
0.0
220
0.0
230
1.0
  2
SOLID
 70
1
 71
0
 91
1
 92
3
 72
0
 73
1
 93
8
 10
4762.670519799754
 20
2346.945585166181
 10
4767.070519799748
 20
2346.945585166181
 10
4767.070519799748
 20
2346.945585166181
 10
4767.070519799748
 20
2360.945585166181
 10
4767.070519799748
 20
2360.945585166181
 10
4762.670519799754
 20
2360.945585166181
 10
4762.670519799754
 20
2360.945585166181
 10
4762.670519799754
 20
2346.945585166181
 97
0
 75
1
 76
1
 98
0
  0
HATCH
  5
FC
330
17
100
AcDbEntity
  8
REAPROVEITAMENTO
 62
7
100
AcDbHatch
 10
0.0
 20
0.0
 30
0.0
210
0.0
220
0.0
230
1.0
  2
SOLID
 70
1
 71
0
 91
1
 92
3
 72
0
 73
1
 93
9
 10
4775.390187373971
 20
1973.040254024263
 10
4775.390187373971
 20
2027.165254024281
 10
4775.390187373971
 20
2027.165254024281
 10
4595.390187373975
 20
2027.338330947366
 10
4595.39018737397
 20
2027.338330947366
 10
4595.39018737397
 20
1973.213330947346
 10
4595.39018737397
 20
1973.213330947346
 10
4775.390187373968
 20
1973.040254024263
 10
4775.390187373971
 20
1973.040254024263
 97
0
 75
1
 76
1
 98
0
  0
HATCH
  5
FD
330
17
100
AcDbEntity
  8
REAPROVEITAMENTO
 62
7
100
AcDbHatch
 10
0.0
 20
0.0
 30
0.0
210
0.0
220
0.0
230
1.0
  2
SOLID
 70
1
 71
0
 91
1
 92
3
 72
0
 73
1
 93
9
 10
4775.390187373971
 20
2184.221792354014
 10
4775.390187373971
 20
2238.346792354032
 10
4775.390187373971
 20
2238.346792354032
 10
4595.390187373975
 20
2238.519869277117
 10
4595.39018737397
 20
2238.519869277117
 10
4595.39018737397
 20
2184.394869277097
 10
4595.39018737397
 20
2184.394869277097
 10
4775.390187373968
 20
2184.221792354014
 10
4775.390187373971
 20
2184.221792354014
 97
0
 75
1
 76
1
 98
0
  0
HATCH
  5
FE
330
17
100
AcDbEntity
  8
Hachura
 62
7
100
AcDbHatch
 10
0.0
 20
0.0
 30
0.0
210
0.0
220
0.0
230
1.0
  2
SOLID
 70
1
 71
0
 91
1
 92
3
 72
0
 73
1
 93
8
 10
3660.982491110245
 20
2424.945585166159
 10
3664.982491110244
 20
2424.945585166159
 10
3664.982491110244
 20
2424.945585166159
 10
3664.982491110244
 20
2206.945585166181
 10
3664.982491110244
 20
2206.945585166181
 10
3660.982491110245
 20
2206.945585166181
 10
3660.982491110245
 20
2206.945585166181
 10
3660.982491110245
 20
2424.945585166159
 97
0
 75
1
 76
1
 98
0
  0
HATCH
  5
FF
330
17
100
AcDbEntity
  8
Hachura
 62
7
100
AcDbHatch
 10
0.0
 20
0.0
 30
0.0
210
0.0
220
0.0
230
1.0
  2
SOLID
 70
1
 71
0
 91
1
 92
3
 72
0
 73
1
 93
8
 10
3702.982491110244
 20
2206.945585166181
 10
3702.982491110244
 20
2211.345585166175
 10
3702.982491110244
 20
2211.345585166175
 10
3688.982491110245
 20
2211.345585166175
 10
3688.982491110245
 20
2211.345585166175
 10
3688.982491110245
 20
2206.945585166181
 10
3688.982491110245
 20
2206.945585166181
 10
3702.982491110244
 20
2206.945585166181
 97
0
 75
1
 76
1
 98
0
  0
HATCH
  5
100
330
17
100
AcDbEntity
  8
Hachura
 62
7
100
AcDbHatch
 10
0.0
 20
0.0
 30
0.0
210
0.0
220
0.0
230
1.0
  2
SOLID
 70
1
 71
0
 91
1
 92
3
 72
0
 73
1
 93
8
 10
3702.982491110244
 20
2211.345585166175
 10
3702.982491110244
 20
2214.945585166181
 10
3702.982491110244
 20
2214.945585166181
 10
3664.982491110244
 20
2214.945585166181
 10
3664.982491110244
 20
2214.945585166181
 10
3664.982491110244
 20
2211.345585166175
 10
3664.982491110244
 20
2211.345585166175
 10
3702.982491110244
 20
2211.345585166175
 97
0
 75
1
 76
1
 98
0
  0
HATCH
  5
101
330
17
100
AcDbEntity
  8
Hachura
 62
7
100
AcDbHatch
 10
0.0
 20
0.0
 30
0.0
210
0.0
220
0.0
230
1.0
  2
SOLID
 70
1
 71
0
 91
1
 92
3
 72
0
 73
1
 93
8
 10
3664.982491110244
 20
2206.945585166181
 10
3664.982491110244
 20
2211.345585166175
 10
3664.982491110244
 20
2211.345585166175
 10
3678.982491110244
 20
2211.345585166175
 10
3678.982491110244
 20
2211.345585166175
 10
3678.982491110244
 20
2206.945585166181
 10
3678.982491110244
 20
2206.945585166181
 10
3664.982491110244
 20
2206.945585166181
 97
0
 75
1
 76
1
 98
0
  0
HATCH
  5
102
330
17
100
AcDbEntity
  8
Hachura
 62
7
100
AcDbHatch
 10
0.0
 20
0.0
 30
0.0
210
0.0
220
0.0
230
1.0
  2
SOLID
 70
1
 71
0
 91
1
 92
3
 72
0
 73
1
 93
8
 10
3706.982491110244
 20
2426.945585166159
 10
3702.982491110244
 20
2426.945585166159
 10
3702.982491110244
 20
2426.945585166159
 10
3702.982491110244
 20
2206.945585166181
 10
3702.982491110244
 20
2206.945585166181
 10
3706.982491110244
 20
2206.945585166181
 10
3706.982491110244
 20
2206.945585166181
 10
3706.982491110244
 20
2426.945585166159
 97
0
 75
1
 76
1
 98
0
  0
HATCH
  5
103
330
17
100
AcDbEntity
  8
Hachura
 62
7
100
AcDbHatch
 10
0.0
 20
0.0
 30
0.0
210
0.0
220
0.0
230
1.0
  2
SOLID
 70
1
 71
0
 91
1
 92
3
 72
0
 73
1
 93
8
 10
3746.926005834826
 20
2424.945585166158
 10
3746.926005834826
 20
2428.945585166158
 10
3746.926005834826
 20
2428.945585166158
 10
3702.982491110244
 20
2428.945585166159
 10
3702.982491110244
 20
2428.945585166159
 10
3702.982491110244
 20
2424.945585166159
 10
3702.982491110244
 20
2424.945585166159
 10
3746.926005834826
 20
2424.945585166158
 97
0
 75
1
 76
1
 98
0
  0
HATCH
  5
104
330
17
100
AcDbEntity
  8
Hachura
 62
7
100
AcDbHatch
 10
0.0
 20
0.0
 30
0.0
210
0.0
220
0.0
230
1.0
  2
SOLID
 70
1
 71
0
 91
1
 92
3
 72
0
 73
1
 93
8
 10
3664.982491110244
 20
2424.945585166159
 10
3664.982491110244
 20
2428.945585166159
 10
3664.982491110244
 20
2428.945585166159
 10
3626.345853923918
 20
2428.945585166152
 10
3626.345853923918
 20
2428.945585166152
 10
3626.345853923918
 20
2424.945585166152
 10
3626.345853923918
 20
2424.945585166152
 10
3664.982491110244
 20
2424.945585166159
 97
0
 75
1
 76
1
 98
0
  0
HATCH
  5
105
330
17
100
AcDbEntity
  8
Hachura
 62
7
100
AcDbHatch
 10
0.0
 20
0.0
 30
0.0
210
0.0
220
0.0
230
1.0
  2
SOLID
 70
1
 71
0
 91
1
 92
3
 72
0
 73
1
 93
8
 10
3656.58249111025
 20
2410.945585166159
 10
3660.982491110245
 20
2410.945585166159
 10
3660.982491110245
 20
2410.945585166159
 10
3660.982491110245
 20
2424.945585166159
 10
3660.982491110245
 20
2424.945585166159
 10
3656.58249111025
 20
2424.945585166159
 10
3656.58249111025
 20
2424.945585166159
 10
3656.58249111025
 20
2410.945585166159
 97
0
 75
1
 76
1
 98
0
  0
HATCH
  5
106
330
17
100
AcDbEntity
  8
Hachura
 62
7
100
AcDbHatch
 10
0.0
 20
0.0
 30
0.0
210
0.0
220
0.0
230
1.0
  2
SOLID
 70
1
 71
0
 91
1
 92
3
 72
0
 73
1
 93
8
 10
3656.58249111025
 20
2206.945585166181
 10
3660.982491110245
 20
2206.945585166181
 10
3660.982491110245
 20
2206.945585166181
 10
3660.982491110245
 20
2220.94558516618
 10
3660.982491110245
 20
2220.94558516618
 10
3656.58249111025
 20
2220.94558516618
 10
3656.58249111025
 20
2220.94558516618
 10
3656.58249111025
 20
2206.945585166181
 97
0
 75
1
 76
1
 98
0
  0
HATCH
  5
107
330
17
100
AcDbEntity
  8
Hachura
 62
7
100
AcDbHatch
 10
0.0
 20
0.0
 30
0.0
210
0.0
220
0.0
230
1.0
  2
SOLID
 70
1
 71
0
 91
1
 92
3
 72
0
 73
1
 93
8
 10
3711.382491110239
 20
2410.945585166159
 10
3706.982491110244
 20
2410.945585166159
 10
3706.982491110244
 20
2410.945585166159
 10
3706.982491110244
 20
2424.945585166159
 10
3706.982491110244
 20
2424.945585166159
 10
3711.382491110239
 20
2424.945585166159
 10
3711.382491110239
 20
2424.945585166159
 10
3711.382491110239
 20
2410.945585166159
 97
0
 75
1
 76
1
 98
0
  0
HATCH
  5
108
330
17
100
AcDbEntity
  8
Hachura
 62
7
100
AcDbHatch
 10
0.0
 20
0.0
 30
0.0
210
0.0
220
0.0
230
1.0
  2
SOLID
 70
1
 71
0
 91
1
 92
3
 72
0
 73
1
 93
8
 10
3711.382491110239
 20
2206.945585166181
 10
3706.982491110244
 20
2206.945585166181
 10
3706.982491110244
 20
2206.945585166181
 10
3706.982491110244
 20
2220.94558516618
 10
3706.982491110244
 20
2220.94558516618
 10
3711.382491110239
 20
2220.94558516618
 10
3711.382491110239
 20
2220.94558516618
 10
3711.382491110239
 20
2206.945585166181
 97
0
 75
1
 76
1
 98
0
  0
HATCH
  5
109
330
17
100
AcDbEntity
  8
Hachura
 62
7
100
AcDbHatch
 10
0.0
 20
0.0
 30
0.0
210
0.0
220
0.0
230
1.0
  2
SOLID
 70
1
 71
0
 91
1
 92
3
 72
0
 73
1
 93
8
 10
3656.58249111025
 20
2275.189916018375
 10
3660.982491110245
 20
2275.189916018375
 10
3660.982491110245
 20
2275.189916018375
 10
3660.982491110245
 20
2289.189916018375
 10
3660.982491110245
 20
2289.189916018375
 10
3656.58249111025
 20
2289.189916018375
 10
3656.58249111025
 20
2289.189916018375
 10
3656.58249111025
 20
2275.189916018375
 97
0
 75
1
 76
1
 98
0
  0
HATCH
  5
10A
330
17
100
AcDbEntity
  8
Hachura
 62
7
100
AcDbHatch
 10
0.0
 20
0.0
 30
0.0
210
0.0
220
0.0
230
1.0
  2
SOLID
 70
1
 71
0
 91
1
 92
3
 72
0
 73
1
 93
8
 10
3711.382491110239
 20
2275.189916018375
 10
3706.982491110244
 20
2275.189916018375
 10
3706.982491110244
 20
2275.189916018375
 10
3706.982491110244
 20
2289.189916018375
 10
3706.982491110244
 20
2289.189916018375
 10
3711.382491110239
 20
2289.189916018375
 10
3711.382491110239
 20
2289.189916018375
 10
3711.382491110239
 20
2275.189916018375
 97
0
 75
1
 76
1
 98
0
  0
HATCH
  5
10B
330
17
100
AcDbEntity
  8
COTA
 62
7
100
AcDbHatch
 10
0.0
 20
0.0
 30
0.0
210
0.0
220
0.0
230
1.0
  2
SOLID
 70
1
 71
0
 91
1
 92
3
 72
0
 73
1
 93
8
 10
4087.183721503066
 20
2441.706870031985
 10
4087.183721503066
 20
2427.70687003199
 10
4087.183721503066
 20
2427.70687003199
 10
4390.308721503067
 20
2427.706870032007
 10
4390.308721503067
 20
2427.706870032006
 10
4390.058721503065
 20
2441.706870031985
 10
4390.058721503065
 20
2441.706870031985
 10
4087.183721503066
 20
2441.706870031985
 97
0
 75
1
 76
1
 98
0
  0
HATCH
  5
10C
330
17
100
AcDbEntity
  8
COTA
 62
7
100
AcDbHatch
 10
0.0
 20
0.0
 30
0.0
210
0.0
220
0.0
230
1.0
  2
SOLID
 70
1
 71
0
 91
1
 92
3
 72
0
 73
1
 93
16
 10
3892.918539020632
 20
2382.70687003196
 10
3892.918539020626
 20
2420.70687003198
 10
3892.918539020626
 20
2420.70687003198
 10
4067.873398261446
 20
2420.706870031964
 10
4067.873398261446
 20
2420.706870031964
 10
4067.873398261446
 20
2434.706870031977
 10
4067.873398261446
 20
2434.706870031977
 10
3892.918539020631
 20
2434.706870031954
 10
3892.918539020631
 20
2434.706870031954
 10
3892.918539020632
 20
2441.706870031954
 10
3892.918539020632
 20
2441.706870031954
 10
3863.918539020632
 20
2441.706870031956
 10
3863.918539020632
 20
2441.706870031956
 10
3863.918539020632
 20
2382.706870031956
 10
3863.918539020632
 20
2382.706870031956
 10
3892.918539020632
 20
2382.70687003196
 97
0
 75
1
 76
1
 98
0
  0
HATCH
  5
10D
330
17
100
AcDbEntity
  8
COTA
 62
7
100
AcDbHatch
 10
0.0
 20
0.0
 30
0.0
210
0.0
220
0.0
230
1.0
  2
SOLID
 70
1
 71
0
 91
1
 92
3
 72
0
 73
1
 93
8
 10
4167.643741037957
 20
2132.700458894333
 10
4167.643741037957
 20
2117.700458894342
 10
4167.643741037957
 20
2117.700458894342
 10
3860.518741037957
 20
2117.700458894363
 10
3860.518741037957
 20
2117.700458894363
 10
3860.768741037957
 20
2132.700458894337
 10
3860.768741037957
 20
2132.700458894337
 10
4167.643741037957
 20
2132.700458894333
 97
0
 75
1
 76
1
 98
0
  0
HATCH
  5
10E
330
17
100
AcDbEntity
  8
COTA
 62
7
100
AcDbHatch
 10
0.0
 20
0.0
 30
0.0
210
0.0
220
0.0
230
1.0
  2
SOLID
 70
1
 71
0
 91
1
 92
3
 72
0
 73
1
 93
16
 10
4357.908923520391
 20
2072.700458894312
 10
4357.908923520397
 20
2110.700458894332
 10
4357.908923520397
 20
2110.700458894332
 10
4182.954064279576
 20
2110.700458894317
 10
4182.954064279576
 20
2110.700458894317
 10
4182.954064279576
 20
2125.700458894329
 10
4182.954064279576
 20
2125.700458894329
 10
4357.908923520393
 20
2125.700458894307
 10
4357.908923520393
 20
2125.700458894307
 10
4357.90892352039
 20
2131.700458894306
 10
4357.90892352039
 20
2131.700458894306
 10
4386.908923520392
 20
2131.700458894308
 10
4386.908923520392
 20
2131.700458894308
 10
4386.908923520389
 20
2072.700458894308
 10
4386.908923520389
 20
2072.700458894308
 10
4357.908923520391
 20
2072.700458894312
 97
0
 75
1
 76
1
 98
0
  0
HATCH
  5
10F
330
17
100
AcDbEntity
  8
Hachura
 62
7
100
AcDbHatch
 10
0.0
 20
0.0
 30
0.0
210
0.0
220
0.0
230
1.0
  2
SOLID
 70
1
 71
0
 91
1
 92
3
 72
0
 73
1
 93
8
 10
3656.58249111025
 20
2352.906173252057
 10
3660.982491110245
 20
2352.906173252057
 10
3660.982491110245
 20
2352.906173252057
 10
3660.982491110245
 20
2366.906173252057
 10
3660.982491110245
 20
2366.906173252057
 10
3656.58249111025
 20
2366.906173252057
 10
3656.58249111025
 20
2366.906173252057
 10
3656.58249111025
 20
2352.906173252057
 97
0
 75
1
 76
1
 98
0
  0
HATCH
  5
110
330
17
100
AcDbEntity
  8
Hachura
 62
7
100
AcDbHatch
 10
0.0
 20
0.0
 30
0.0
210
0.0
220
0.0
230
1.0
  2
SOLID
 70
1
 71
0
 91
1
 92
3
 72
0
 73
1
 93
8
 10
3711.382491110239
 20
2352.906173252057
 10
3706.982491110244
 20
2352.906173252057
 10
3706.982491110244
 20
2352.906173252057
 10
3706.982491110244
 20
2366.906173252057
 10
3706.982491110244
 20
2366.906173252057
 10
3711.382491110239
 20
2366.906173252057
 10
3711.382491110239
 20
2366.906173252057
 10
3711.382491110239
 20
2352.906173252057
 97
0
 75
1
 76
1
 98
0
  0
LINE
  5
111
330
17
100
AcDbEntity
  8
0
 62
7
370
25
100
AcDbLine
 10
3899.1644419296645
 20
1609.9455851661842
 30
0.0
 11
3899.1644419296645
 21
1809.1890985770733
 31
0.0
  0
LWPOLYLINE
  5
112
330
17
100
AcDbEntity
  8
Texto Seção
 62
7
370
25
100
AcDbPolyline
 90
4
 70
1
 10
4765.583757447187
 20
1850.416616115417
 10
4907.033075599444
 20
1850.416616115417
 10
4907.033075599444
 20
1827.215739047668
 10
4765.583757447187
 20
1827.215739047668
  0
LWPOLYLINE
  5
113
330
17
100
AcDbEntity
  8
Texto Seção
 62
7
370
25
100
AcDbPolyline
 90
4
 70
1
 10
4329.251401902198
 20
1850.416616115417
 10
4470.700720054454
 20
1850.416616115417
 10
4470.700720054454
 20
1827.215739047668
 10
4329.251401902198
 20
1827.215739047668
  0
TEXT
  5
114
330
17
100
AcDbEntity
  8
Texto Seção
 62
7
370
25
100
AcDbText
 10
4771.094710204355
 20
1831.967334134888
 30
0.0
 40
13.0
  1
VEM DA V26
100
AcDbText
  0
TEXT
  5
115
330
17
100
AcDbEntity
  8
Texto Seção
 62
7
370
25
100
AcDbText
 10
4334.762354659366
 20
1831.967334134888
 30
0.0
 40
13.0
  1
VEM DA V25
100
AcDbText
  0
ENDSEC
  0
SECTION
  2
OBJECTS
  0
DICTIONARY
  5
A
330
0
100
AcDbDictionary
281
1
  3
ACAD_COLOR
350
B
  3
ACAD_GROUP
350
C
  3
ACAD_LAYOUT
350
D
  3
ACAD_MATERIAL
350
E
  3
ACAD_MLEADERSTYLE
350
F
  3
ACAD_MLINESTYLE
350
10
  3
ACAD_PLOTSETTINGS
350
11
  3
ACAD_PLOTSTYLENAME
350
12
  3
ACAD_SCALELIST
350
14
  3
ACAD_TABLESTYLE
350
15
  3
ACAD_VISUALSTYLE
350
16
  3
EZDXF_META
350
2D
  0
DICTIONARY
  5
B
330
A
100
AcDbDictionary
281
1
  0
DICTIONARY
  5
C
330
A
100
AcDbDictionary
281
1
  0
DICTIONARY
  5
D
330
A
100
AcDbDictionary
281
1
  3
Model
350
1A
  3
Layout1
350
1E
  0
DICTIONARY
  5
E
330
A
100
AcDbDictionary
281
1
  3
ByBlock
350
1F
  3
ByLayer
350
20
  3
Global
350
21
  0
DICTIONARY
  5
F
330
A
100
AcDbDictionary
281
1
  3
Standard
350
2C
  0
DICTIONARY
  5
10
330
A
100
AcDbDictionary
281
1
  3
Standard
350
22
  0
DICTIONARY
  5
11
330
A
100
AcDbDictionary
281
1
  0
ACDBDICTIONARYWDFLT
  5
12
330
A
100
AcDbDictionary
281
1
  3
Normal
350
13
100
AcDbDictionaryWithDefault
340
13
  0
ACDBPLACEHOLDER
  5
13
330
12
  0
DICTIONARY
  5
14
330
A
100
AcDbDictionary
281
1
  0
DICTIONARY
  5
15
330
A
100
AcDbDictionary
281
1
  0
DICTIONARY
  5
16
330
A
100
AcDbDictionary
281
1
  0
LAYOUT
  5
1A
330
D
100
AcDbPlotSettings
  1

  4
A3
  6

 40
7.5
 41
20.0
 42
7.5
 43
20.0
 44
420.0
 45
297.0
 46
0.0
 47
0.0
 48
0.0
 49
0.0
140
0.0
141
0.0
142
1.0
143
1.0
 70
1024
 72
1
 73
0
 74
5
  7

 75
16
 76
0
 77
2
 78
300
147
1.0
148
0.0
149
0.0
100
AcDbLayout
  1
Model
 70
1
 71
0
 10
0.0
 20
0.0
 11
420.0
 21
297.0
 12
0.0
 22
0.0
 32
0.0
 14
1e+20
 24
1e+20
 34
1e+20
 15
-1e+20
 25
-1e+20
 35
-1e+20
146
0.0
 13
0.0
 23
0.0
 33
0.0
 16
1.0
 26
0.0
 36
0.0
 17
0.0
 27
1.0
 37
0.0
 76
1
330
17
  0
LAYOUT
  5
1E
330
D
100
AcDbPlotSettings
  1

  4
A3
  6

 40
7.5
 41
20.0
 42
7.5
 43
20.0
 44
420.0
 45
297.0
 46
0.0
 47
0.0
 48
0.0
 49
0.0
140
0.0
141
0.0
142
1.0
143
1.0
 70
0
 72
1
 73
0
 74
5
  7

 75
16
 76
0
 77
2
 78
300
147
1.0
148
0.0
149
0.0
100
AcDbLayout
  1
Layout1
 70
1
 71
1
 10
0.0
 20
0.0
 11
420.0
 21
297.0
 12
0.0
 22
0.0
 32
0.0
 14
1e+20
 24
1e+20
 34
1e+20
 15
-1e+20
 25
-1e+20
 35
-1e+20
146
0.0
 13
0.0
 23
0.0
 33
0.0
 16
1.0
 26
0.0
 36
0.0
 17
0.0
 27
1.0
 37
0.0
 76
1
330
1B
  0
MATERIAL
  5
1F
102
{ACAD_REACTORS
330
E
102
}
330
E
100
AcDbMaterial
  1
ByBlock
  2

 70
0
 40
1.0
 71
1
 41
1.0
 91
-1023410177
 42
1.0
 72
1
  3

 73
1
 74
1
 75
1
 44
0.5
 73
0
 45
1.0
 46
1.0
 77
1
  4

 78
1
 79
1
170
1
 48
1.0
171
1
  6

172
1
173
1
174
1
140
1.0
141
1.0
175
1
  7

176
1
177
1
178
1
143
1.0
179
1
  8

270
1
271
1
272
1
145
1.0
146
1.0
273
1
  9

274
1
275
1
276
1
 42
1.0
 72
1
  3

 73
1
 74
1
 75
1
 94
63
  0
MATERIAL
  5
20
102
{ACAD_REACTORS
330
E
102
}
330
E
100
AcDbMaterial
  1
ByLayer
  2

 70
0
 40
1.0
 71
1
 41
1.0
 91
-1023410177
 42
1.0
 72
1
  3

 73
1
 74
1
 75
1
 44
0.5
 73
0
 45
1.0
 46
1.0
 77
1
  4

 78
1
 79
1
170
1
 48
1.0
171
1
  6

172
1
173
1
174
1
140
1.0
141
1.0
175
1
  7

176
1
177
1
178
1
143
1.0
179
1
  8

270
1
271
1
272
1
145
1.0
146
1.0
273
1
  9

274
1
275
1
276
1
 42
1.0
 72
1
  3

 73
1
 74
1
 75
1
 94
63
  0
MATERIAL
  5
21
102
{ACAD_REACTORS
330
E
102
}
330
E
100
AcDbMaterial
  1
Global
  2

 70
0
 40
1.0
 71
1
 41
1.0
 91
-1023410177
 42
1.0
 72
1
  3

 73
1
 74
1
 75
1
 44
0.5
 73
0
 45
1.0
 46
1.0
 77
1
  4

 78
1
 79
1
170
1
 48
1.0
171
1
  6

172
1
173
1
174
1
140
1.0
141
1.0
175
1
  7

176
1
177
1
178
1
143
1.0
179
1
  8

270
1
271
1
272
1
145
1.0
146
1.0
273
1
  9

274
1
275
1
276
1
 42
1.0
 72
1
  3

 73
1
 74
1
 75
1
 94
63
  0
MLINESTYLE
  5
22
102
{ACAD_REACTORS
330
10
102
}
330
10
100
AcDbMlineStyle
  2
Standard
 70
0
  3

 62
256
 51
90.0
 52
90.0
 71
2
 49
0.5
 62
256
  6
BYLAYER
 49
-0.5
 62
256
  6
BYLAYER
  0
MLEADERSTYLE
  5
2C
102
{ACAD_REACTORS
330
F
102
}
330
F
100
AcDbMLeaderStyle
179
2
170
2
171
1
172
0
 90
2
 40
0.0
 41
0.0
173
1
 91
-1056964608
 92
-2
290
1
 42
2.0
291
1
 43
8.0
  3
Standard
 44
4.0
300

342
29
174
1
175
1
176
0
178
1
 93
-1056964608
 45
4.0
292
0
297
0
 46
4.0
 94
-1056964608
 47
1.0
 49
1.0
140
1.0
294
1
141
0.0
177
0
142
1.0
295
0
296
0
143
3.75
271
0
272
9
273
9
  0
DICTIONARY
  5
2D
330
A
100
AcDbDictionary
280
1
281
1
  3
CREATED_BY_EZDXF
350
2E
  3
WRITTEN_BY_EZDXF
350
118
  0
DICTIONARYVAR
  5
2E
330
2D
100
DictionaryVariables
280
0
  1
1.4.3 @ 2026-06-10T16:53:24.350432+00:00
  0
DICTIONARYVAR
  5
118
330
2D
100
DictionaryVariables
280
0
  1
1.4.3 @ 2026-06-10T16:53:24.359282+00:00
  0
ENDSEC
  0
EOF
