  0
SECTION
  2
HEADER
  9
$ACADVER
  1
AC1024
  9
$ACADMAINTVER
 70
6
  9
$DWGCODEPAGE
  3
ANSI_1252
  9
$LASTSAVEDBY
  1
ezdxf
  9
$INSBASE
 10
0.0
 20
0.0
 30
0.0
  9
$EXTMIN
 10
1e+20
 20
1e+20
 30
1e+20
  9
$EXTMAX
 10
-1e+20
 20
-1e+20
 30
-1e+20
  9
$LIMMIN
 10
0.0
 20
0.0
  9
$LIMMAX
 10
420.0
 20
297.0
  9
$ORTHOMODE
 70
0
  9
$REGENMODE
 70
1
  9
$FILLMODE
 70
1
  9
$QTEXTMODE
 70
0
  9
$MIRRTEXT
 70
1
  9
$LTSCALE
 40
1.0
  9
$ATTMODE
 70
1
  9
$TEXTSIZE
 40
2.5
  9
$TRACEWID
 40
1.0
  9
$TEXTSTYLE
  7
Standard
  9
$CLAYER
  8
0
  9
$CELTYPE
  6
ByLayer
  9
$CECOLOR
 62
256
  9
$CELTSCALE
 40
1.0
  9
$DISPSILH
 70
0
  9
$DIMSCALE
 40
1.0
  9
$DIMASZ
 40
2.5
  9
$DIMEXO
 40
0.625
  9
$DIMDLI
 40
3.75
  9
$DIMRND
 40
0.0
  9
$DIMDLE
 40
0.0
  9
$DIMEXE
 40
1.25
  9
$DIMTP
 40
0.0
  9
$DIMTM
 40
0.0
  9
$DIMTXT
 40
2.5
  9
$DIMCEN
 40
2.5
  9
$DIMTSZ
 40
0.0
  9
$DIMTOL
 70
0
  9
$DIMLIM
 70
0
  9
$DIMTIH
 70
0
  9
$DIMTOH
 70
0
  9
$DIMSE1
 70
0
  9
$DIMSE2
 70
0
  9
$DIMTAD
 70
1
  9
$DIMZIN
 70
8
  9
$DIMBLK
  1

  9
$DIMASO
 70
1
  9
$DIMSHO
 70
1
  9
$DIMPOST
  1

  9
$DIMAPOST
  1

  9
$DIMALT
 70
0
  9
$DIMALTD
 70
3
  9
$DIMALTF
 40
0.03937007874
  9
$DIMLFAC
 40
1.0
  9
$DIMTOFL
 70
1
  9
$DIMTVP
 40
0.0
  9
$DIMTIX
 70
0
  9
$DIMSOXD
 70
0
  9
$DIMSAH
 70
0
  9
$DIMBLK1
  1

  9
$DIMBLK2
  1

  9
$DIMSTYLE
  2
ISO-25
  9
$DIMCLRD
 70
0
  9
$DIMCLRE
 70
0
  9
$DIMCLRT
 70
0
  9
$DIMTFAC
 40
1.0
  9
$DIMGAP
 40
0.625
  9
$DIMJUST
 70
0
  9
$DIMSD1
 70
0
  9
$DIMSD2
 70
0
  9
$DIMTOLJ
 70
0
  9
$DIMTZIN
 70
8
  9
$DIMALTZ
 70
0
  9
$DIMALTTZ
 70
0
  9
$DIMUPT
 70
0
  9
$DIMDEC
 70
2
  9
$DIMTDEC
 70
2
  9
$DIMALTU
 70
2
  9
$DIMALTTD
 70
3
  9
$DIMTXSTY
  7
Standard
  9
$DIMAUNIT
 70
0
  9
$DIMADEC
 70
0
  9
$DIMALTRND
 40
0.0
  9
$DIMAZIN
 70
0
  9
$DIMDSEP
 70
44
  9
$DIMATFIT
 70
3
  9
$DIMFRAC
 70
0
  9
$DIMLDRBLK
  1

  9
$DIMLUNIT
 70
2
  9
$DIMLWD
 70
-2
  9
$DIMLWE
 70
-2
  9
$DIMTMOVE
 70
0
  9
$DIMFXL
 40
1.0
  9
$DIMFXLON
 70
0
  9
$DIMJOGANG
 40
0.785398163397
  9
$DIMTFILL
 70
0
  9
$DIMTFILLCLR
 70
0
  9
$DIMARCSYM
 70
0
  9
$DIMLTYPE
  6

  9
$DIMLTEX1
  6

  9
$DIMLTEX2
  6

  9
$DIMTXTDIRECTION
 70
0
  9
$LUNITS
 70
2
  9
$LUPREC
 70
4
  9
$SKETCHINC
 40
1.0
  9
$FILLETRAD
 40
10.0
  9
$AUNITS
 70
0
  9
$AUPREC
 70
2
  9
$MENU
  1
.
  9
$ELEVATION
 40
0.0
  9
$PELEVATION
 40
0.0
  9
$THICKNESS
 40
0.0
  9
$LIMCHECK
 70
0
  9
$CHAMFERA
 40
0.0
  9
$CHAMFERB
 40
0.0
  9
$CHAMFERC
 40
0.0
  9
$CHAMFERD
 40
0.0
  9
$SKPOLY
 70
0
  9
$TDCREATE
 40
2461202.57875
  9
$TDUCREATE
 40
2458532.153996898
  9
$TDUPDATE
 40
2461202.57875
  9
$TDUUPDATE
 40
2458532.1544311
  9
$TDINDWG
 40
0.0
  9
$TDUSRTIMER
 40
0.0
  9
$USRTIMER
 70
1
  9
$ANGBASE
 50
0.0
  9
$ANGDIR
 70
0
  9
$PDMODE
 70
0
  9
$PDSIZE
 40
0.0
  9
$PLINEWID
 40
0.0
  9
$SPLFRAME
 70
0
  9
$SPLINETYPE
 70
6
  9
$SPLINESEGS
 70
8
  9
$HANDSEED
  5
C6
  9
$SURFTAB1
 70
6
  9
$SURFTAB2
 70
6
  9
$SURFTYPE
 70
6
  9
$SURFU
 70
6
  9
$SURFV
 70
6
  9
$UCSBASE
  2

  9
$UCSNAME
  2

  9
$UCSORG
 10
0.0
 20
0.0
 30
0.0
  9
$UCSXDIR
 10
1.0
 20
0.0
 30
0.0
  9
$UCSYDIR
 10
0.0
 20
1.0
 30
0.0
  9
$UCSORTHOREF
  2

  9
$UCSORTHOVIEW
 70
0
  9
$UCSORGTOP
 10
0.0
 20
0.0
 30
0.0
  9
$UCSORGBOTTOM
 10
0.0
 20
0.0
 30
0.0
  9
$UCSORGLEFT
 10
0.0
 20
0.0
 30
0.0
  9
$UCSORGRIGHT
 10
0.0
 20
0.0
 30
0.0
  9
$UCSORGFRONT
 10
0.0
 20
0.0
 30
0.0
  9
$UCSORGBACK
 10
0.0
 20
0.0
 30
0.0
  9
$PUCSBASE
  2

  9
$PUCSNAME
  2

  9
$PUCSORG
 10
0.0
 20
0.0
 30
0.0
  9
$PUCSXDIR
 10
1.0
 20
0.0
 30
0.0
  9
$PUCSYDIR
 10
0.0
 20
1.0
 30
0.0
  9
$PUCSORTHOREF
  2

  9
$PUCSORTHOVIEW
 70
0
  9
$PUCSORGTOP
 10
0.0
 20
0.0
 30
0.0
  9
$PUCSORGBOTTOM
 10
0.0
 20
0.0
 30
0.0
  9
$PUCSORGLEFT
 10
0.0
 20
0.0
 30
0.0
  9
$PUCSORGRIGHT
 10
0.0
 20
0.0
 30
0.0
  9
$PUCSORGFRONT
 10
0.0
 20
0.0
 30
0.0
  9
$PUCSORGBACK
 10
0.0
 20
0.0
 30
0.0
  9
$USERI1
 70
0
  9
$USERI2
 70
0
  9
$USERI3
 70
0
  9
$USERI4
 70
0
  9
$USERI5
 70
0
  9
$USERR1
 40
0.0
  9
$USERR2
 40
0.0
  9
$USERR3
 40
0.0
  9
$USERR4
 40
0.0
  9
$USERR5
 40
0.0
  9
$WORLDVIEW
 70
1
  9
$SHADEDGE
 70
3
  9
$SHADEDIF
 70
70
  9
$TILEMODE
 70
1
  9
$MAXACTVP
 70
64
  9
$PINSBASE
 10
0.0
 20
0.0
 30
0.0
  9
$PLIMCHECK
 70
0
  9
$PEXTMIN
 10
1e+20
 20
1e+20
 30
1e+20
  9
$PEXTMAX
 10
-1e+20
 20
-1e+20
 30
-1e+20
  9
$PLIMMIN
 10
0.0
 20
0.0
  9
$PLIMMAX
 10
420.0
 20
297.0
  9
$UNITMODE
 70
0
  9
$VISRETAIN
 70
1
  9
$PLINEGEN
 70
0
  9
$PSLTSCALE
 70
1
  9
$TREEDEPTH
 70
3020
  9
$CMLSTYLE
  2
Standard
  9
$CMLJUST
 70
0
  9
$CMLSCALE
 40
20.0
  9
$PROXYGRAPHICS
 70
1
  9
$MEASUREMENT
 70
1
  9
$CELWEIGHT
370
-1
  9
$ENDCAPS
280
0
  9
$JOINSTYLE
280
0
  9
$LWDISPLAY
290
0
  9
$INSUNITS
 70
6
  9
$HYPERLINKBASE
  1

  9
$STYLESHEET
  1

  9
$XEDIT
290
1
  9
$CEPSNTYPE
380
0
  9
$PSTYLEMODE
290
1
  9
$FINGERPRINTGUID
  2
{D704CB3D-DA01-4B70-8CEB-483D304A4F3E}
  9
$VERSIONGUID
  2
{BBA3380D-8FBD-4876-A4E0-D6DF16146DAB}
  9
$EXTNAMES
290
1
  9
$PSVPSCALE
 40
0.0
  9
$OLESTARTUP
290
0
  9
$SORTENTS
280
127
  9
$INDEXCTL
280
0
  9
$HIDETEXT
280
1
  9
$XCLIPFRAME
280
1
  9
$HALOGAP
280
0
  9
$OBSCOLOR
 70
257
  9
$OBSLTYPE
280
0
  9
$INTERSECTIONDISPLAY
280
0
  9
$INTERSECTIONCOLOR
 70
257
  9
$DIMASSOC
280
2
  9
$PROJECTNAME
  1

  9
$CAMERADISPLAY
290
0
  9
$LENSLENGTH
 40
50.0
  9
$CAMERAHEIGHT
 40
0.0
  9
$STEPSPERSEC
 40
24.0
  9
$STEPSIZE
 40
100.0
  9
$3DDWFPREC
 40
2.0
  9
$PSOLWIDTH
 40
0.005
  9
$PSOLHEIGHT
 40
0.08
  9
$LOFTANG1
 40
1.570796326795
  9
$LOFTANG2
 40
1.570796326795
  9
$LOFTMAG1
 40
0.0
  9
$LOFTMAG2
 40
0.0
  9
$LOFTPARAM
 70
7
  9
$LOFTNORMALS
280
1
  9
$LATITUDE
 40
37.795
  9
$LONGITUDE
 40
-122.394
  9
$NORTHDIRECTION
 40
0.0
  9
$TIMEZONE
 70
-8000
  9
$LIGHTGLYPHDISPLAY
280
1
  9
$TILEMODELIGHTSYNCH
280
1
  9
$CMATERIAL
347
20
  9
$SOLIDHIST
280
0
  9
$SHOWHIST
280
1
  9
$DWFFRAME
280
2
  9
$DGNFRAME
280
2
  9
$REALWORLDSCALE
290
1
  9
$INTERFERECOLOR
 62
256
  9
$CSHADOW
280
0
  9
$SHADOWPLANELOCATION
 40
0.0
  0
ENDSEC
  0
SECTION
  2
CLASSES
  0
CLASS
  1
ACDBDICTIONARYWDFLT
  2
AcDbDictionaryWithDefault
  3
ObjectDBX Classes
 90
0
 91
0
280
0
281
0
  0
CLASS
  1
SUN
  2
AcDbSun
  3
SCENEOE
 90
1153
 91
0
280
0
281
0
  0
CLASS
  1
VISUALSTYLE
  2
AcDbVisualStyle
  3
ObjectDBX Classes
 90
4095
 91
0
280
0
281
0
  0
CLASS
  1
MATERIAL
  2
AcDbMaterial
  3
ObjectDBX Classes
 90
1153
 91
0
280
0
281
0
  0
CLASS
  1
SCALE
  2
AcDbScale
  3
ObjectDBX Classes
 90
1153
 91
0
280
0
281
0
  0
CLASS
  1
TABLESTYLE
  2
AcDbTableStyle
  3
ObjectDBX Classes
 90
4095
 91
0
280
0
281
0
  0
CLASS
  1
MLEADERSTYLE
  2
AcDbMLeaderStyle
  3
ACDB_MLEADERSTYLE_CLASS
 90
4095
 91
0
280
0
281
0
  0
CLASS
  1
DICTIONARYVAR
  2
AcDbDictionaryVar
  3
ObjectDBX Classes
 90
0
 91
0
280
0
281
0
  0
CLASS
  1
CELLSTYLEMAP
  2
AcDbCellStyleMap
  3
ObjectDBX Classes
 90
1152
 91
0
280
0
281
0
  0
CLASS
  1
MENTALRAYRENDERSETTINGS
  2
AcDbMentalRayRenderSettings
  3
SCENEOE
 90
1024
 91
0
280
0
281
0
  0
CLASS
  1
ACDBDETAILVIEWSTYLE
  2
AcDbDetailViewStyle
  3
ObjectDBX Classes
 90
1025
 91
0
280
0
281
0
  0
CLASS
  1
ACDBSECTIONVIEWSTYLE
  2
AcDbSectionViewStyle
  3
ObjectDBX Classes
 90
1025
 91
0
280
0
281
0
  0
CLASS
  1
RASTERVARIABLES
  2
AcDbRasterVariables
  3
ISM
 90
0
 91
0
280
0
281
0
  0
CLASS
  1
LAYOUT
  2
AcDbLayout
  3
ObjectDBX Classes
 90
0
 91
0
280
0
281
0
  0
CLASS
  1
ACDBPLACEHOLDER
  2
AcDbPlaceHolder
  3
ObjectDBX Classes
 90
0
 91
0
280
0
281
0
  0
ENDSEC
  0
SECTION
  2
TABLES
  0
TABLE
  2
VPORT
  5
8
330
0
100
AcDbSymbolTable
 70
1
  0
VPORT
  5
23
330
8
100
AcDbSymbolTableRecord
100
AcDbViewportTableRecord
  2
*Active
 70
0
 10
0.0
 20
0.0
 11
1.0
 21
1.0
 12
0.0
 22
0.0
 13
0.0
 23
0.0
 14
0.5
 24
0.5
 15
0.5
 25
0.5
 16
0.0
 26
0.0
 36
1.0
 17
0.0
 27
0.0
 37
0.0
 40
1000.0
 41
1.34
 42
50.0
 43
0.0
 44
0.0
 50
0.0
 51
0.0
 71
0
 72
1000
 73
1
 74
3
 75
0
 76
0
 77
0
 78
0
281
0
 65
0
146
0.0
  0
ENDTAB
  0
TABLE
  2
LTYPE
  5
2
330
0
100
AcDbSymbolTable
 70
3
  0
LTYPE
  5
24
330
2
100
AcDbSymbolTableRecord
100
AcDbLinetypeTableRecord
  2
ByBlock
 70
0
  3

 72
65
 73
0
 40
0.0
  0
LTYPE
  5
25
330
2
100
AcDbSymbolTableRecord
100
AcDbLinetypeTableRecord
  2
ByLayer
 70
0
  3

 72
65
 73
0
 40
0.0
  0
LTYPE
  5
26
330
2
100
AcDbSymbolTableRecord
100
AcDbLinetypeTableRecord
  2
Continuous
 70
0
  3

 72
65
 73
0
 40
0.0
  0
ENDTAB
  0
TABLE
  2
LAYER
  5
1
330
0
100
AcDbSymbolTable
 70
15
  0
LAYER
  5
27
330
1
100
AcDbSymbolTableRecord
100
AcDbLayerTableRecord
  2
0
 70
0
 62
7
  6
Continuous
370
-3
390
13
347
21
  0
LAYER
  5
28
330
1
100
AcDbSymbolTableRecord
100
AcDbLayerTableRecord
  2
Defpoints
 70
0
 62
7
  6
Continuous
290
0
370
-3
390
13
347
21
  0
LAYER
  5
2F
330
1
100
AcDbSymbolTableRecord
100
AcDbLayerTableRecord
  2
texto
 70
0
 62
7
  6
Continuous
370
-3
390
13
347
21
  0
LAYER
  5
30
330
1
100
AcDbSymbolTableRecord
100
AcDbLayerTableRecord
  2
COTA
 70
0
 62
7
  6
Continuous
370
-3
390
13
347
21
  0
LAYER
  5
31
330
1
100
AcDbSymbolTableRecord
100
AcDbLayerTableRecord
  2
Cotas
 70
0
 62
7
  6
Continuous
370
-3
390
13
347
21
  0
LAYER
  5
32
330
1
100
AcDbSymbolTableRecord
100
AcDbLayerTableRecord
  2
Texto Seção
 70
0
 62
7
  6
Continuous
370
-3
390
13
347
21
  0
LAYER
  5
33
330
1
100
AcDbSymbolTableRecord
100
AcDbLayerTableRecord
  2
Hachura
 70
0
 62
7
  6
Continuous
370
-3
390
13
347
21
  0
LAYER
  5
34
330
1
100
AcDbSymbolTableRecord
100
AcDbLayerTableRecord
  2
Painéis
 70
0
 62
7
  6
Continuous
370
-3
390
13
347
21
  0
LAYER
  5
35
330
1
100
AcDbSymbolTableRecord
100
AcDbLayerTableRecord
  2
Madeira
 70
0
 62
7
  6
Continuous
370
-3
390
13
347
21
  0
LAYER
  5
36
330
1
100
AcDbSymbolTableRecord
100
AcDbLayerTableRecord
  2
TEXTO PILAR
 70
0
 62
7
  6
Continuous
370
-3
390
13
347
21
  0
LAYER
  5
37
330
1
100
AcDbSymbolTableRecord
100
AcDbLayerTableRecord
  2
SARR_3.5x7
 70
0
 62
7
  6
Continuous
370
-3
390
13
347
21
  0
LAYER
  5
38
330
1
100
AcDbSymbolTableRecord
100
AcDbLayerTableRecord
  2
SARR_2.2x7
 70
0
 62
7
  6
Continuous
370
-3
390
13
347
21
  0
LAYER
  5
39
330
1
100
AcDbSymbolTableRecord
100
AcDbLayerTableRecord
  2
CONCRETO
 70
0
 62
7
  6
Continuous
370
-3
390
13
347
21
  0
LAYER
  5
3A
330
1
100
AcDbSymbolTableRecord
100
AcDbLayerTableRecord
  2
5
 70
0
 62
7
  6
Continuous
370
-3
390
13
347
21
  0
LAYER
  5
3B
330
1
100
AcDbSymbolTableRecord
100
AcDbLayerTableRecord
  2
detalhes
 70
0
 62
7
  6
Continuous
370
-3
390
13
347
21
  0
ENDTAB
  0
TABLE
  2
STYLE
  5
5
330
0
100
AcDbSymbolTable
 70
1
  0
STYLE
  5
29
330
5
100
AcDbSymbolTableRecord
100
AcDbTextStyleTableRecord
  2
Standard
 70
0
 40
0.0
 41
1.0
 50
0.0
 71
0
 42
2.5
  3
txt
  4

  0
ENDTAB
  0
TABLE
  2
VIEW
  5
7
330
0
100
AcDbSymbolTable
 70
0
  0
ENDTAB
  0
TABLE
  2
UCS
  5
6
330
0
100
AcDbSymbolTable
 70
0
  0
ENDTAB
  0
TABLE
  2
APPID
  5
3
330
0
100
AcDbSymbolTable
 70
3
  0
APPID
  5
2A
330
3
100
AcDbSymbolTableRecord
100
AcDbRegAppTableRecord
  2
ACAD
 70
0
  0
APPID
  5
C3
330
3
100
AcDbSymbolTableRecord
100
AcDbRegAppTableRecord
  2
HATCHBACKGROUNDCOLOR
 70
0
  0
APPID
  5
C4
330
3
100
AcDbSymbolTableRecord
100
AcDbRegAppTableRecord
  2
EZDXF
 70
0
  0
ENDTAB
  0
TABLE
  2
DIMSTYLE
  5
4
330
0
100
AcDbSymbolTable
 70
1
100
AcDbDimStyleTable
  0
DIMSTYLE
105
2B
330
4
100
AcDbSymbolTableRecord
100
AcDbDimStyleTableRecord
  2
Standard
 70
0
 40
1.0
 41
2.5
 42
0.625
 43
3.75
 44
1.25
 45
0.0
 46
0.0
 47
0.0
 48
0.0
 49
2.5
140
2.5
141
2.5
142
0.0
143
0.03937007874
144
1.0
145
0.0
146
1.0
147
0.625
148
0.0
 69
0
 70
0
 71
0
 72
0
 73
0
 74
0
 75
0
 76
0
 77
1
 78
8
 79
3
170
0
171
3
172
1
173
0
174
0
175
0
176
0
177
0
178
0
179
2
271
2
272
2
273
2
274
3
275
0
276
0
277
2
278
44
279
0
280
0
281
0
282
0
283
0
284
8
285
0
286
0
288
0
289
3
290
0
371
-2
372
-2
  0
ENDTAB
  0
TABLE
  2
BLOCK_RECORD
  5
9
330
0
100
AcDbSymbolTable
 70
2
  0
BLOCK_RECORD
  5
17
330
9
100
AcDbSymbolTableRecord
100
AcDbBlockTableRecord
  2
*Model_Space
340
1A
 70
0
280
1
281
0
  0
BLOCK_RECORD
  5
1B
330
9
100
AcDbSymbolTableRecord
100
AcDbBlockTableRecord
  2
*Paper_Space
340
1E
 70
0
280
1
281
0
  0
ENDTAB
  0
ENDSEC
  0
SECTION
  2
BLOCKS
  0
BLOCK
  5
18
330
17
100
AcDbEntity
  8
0
100
AcDbBlockBegin
  2
*Model_Space
 70
0
 10
0.0
 20
0.0
 30
0.0
  3
*Model_Space
  1

  0
ENDBLK
  5
19
330
17
100
AcDbEntity
  8
0
100
AcDbBlockEnd
  0
BLOCK
  5
1C
330
1B
100
AcDbEntity
  8
0
100
AcDbBlockBegin
  2
*Paper_Space
 70
0
 10
0.0
 20
0.0
 30
0.0
  3
*Paper_Space
  1

  0
ENDBLK
  5
1D
330
1B
100
AcDbEntity
  8
0
100
AcDbBlockEnd
  0
ENDSEC
  0
SECTION
  2
ENTITIES
  0
LINE
  5
3C
330
17
100
AcDbEntity
  8
Defpoints
 62
7
370
25
100
AcDbLine
 10
6979.097116863177
 20
2454.945585166181
 30
0.0
 11
6979.097116863177
 21
2579.945585166181
 31
0.0
  0
LINE
  5
3D
330
17
100
AcDbEntity
  8
CONCRETO
 62
7
370
25
100
AcDbLine
 10
6792.598522966371
 20
2312.931454391563
 30
0.0
 11
6792.598522966371
 21
2338.945585166182
 31
0.0
  0
LINE
  5
3E
330
17
100
AcDbEntity
  8
CONCRETO
 62
7
370
25
100
AcDbLine
 10
6940.229734194879
 20
2312.931454391563
 30
0.0
 11
6940.229734194879
 21
2338.945585166182
 31
0.0
  0
LINE
  5
3F
330
17
100
AcDbEntity
  8
CONCRETO
 62
7
370
25
100
AcDbLine
 10
6940.229734194879
 20
2338.945585166182
 30
0.0
 11
6792.598522966371
 21
2338.945585166182
 31
0.0
  0
LINE
  5
40
330
17
100
AcDbEntity
  8
CONCRETO
 62
7
370
25
100
AcDbLine
 10
7010.960357602082
 20
2214.931454391563
 30
0.0
 11
7010.960357602082
 21
2240.945585166182
 31
0.0
  0
LINE
  5
41
330
17
100
AcDbEntity
  8
CONCRETO
 62
7
370
25
100
AcDbLine
 10
7158.591568830591
 20
2214.931454391563
 30
0.0
 11
7158.591568830591
 21
2240.945585166182
 31
0.0
  0
LINE
  5
42
330
17
100
AcDbEntity
  8
CONCRETO
 62
7
370
25
100
AcDbLine
 10
7158.591568830591
 20
2240.945585166182
 30
0.0
 11
7010.960357602082
 21
2240.945585166182
 31
0.0
  0
LINE
  5
43
330
17
100
AcDbEntity
  8
Painéis
 62
7
370
25
100
AcDbLine
 10
7963.528665664274
 20
2128.757487569729
 30
0.0
 11
7851.52866566427
 21
2128.757487569755
 31
0.0
  0
LINE
  5
44
330
17
100
AcDbEntity
  8
Painéis
 62
7
370
25
100
AcDbLine
 10
7963.528665664266
 20
2070.757487569729
 30
0.0
 11
7335.528665664269
 21
2070.757487569872
 31
0.0
  0
LINE
  5
45
330
17
100
AcDbEntity
  8
Painéis
 62
7
370
25
100
AcDbLine
 10
7963.528665664266
 20
2070.757487569729
 30
0.0
 11
7963.528665664269
 21
2128.757487569729
 31
0.0
  0
LINE
  5
46
330
17
100
AcDbEntity
  8
SARR_2.2x7
 62
7
370
25
100
AcDbLine
 10
7956.573806423448
 20
2070.757487569725
 30
0.0
 11
7956.573806423455
 21
2128.757487569729
 31
0.0
  0
LINE
  5
47
330
17
100
AcDbEntity
  8
Painéis
 62
7
370
25
100
AcDbLine
 10
7963.528665664266
 20
2057.757487569729
 30
0.0
 11
7335.528665664269
 21
2057.757487569872
 31
0.0
  0
LINE
  5
48
330
17
100
AcDbEntity
  8
Painéis
 62
7
370
25
100
AcDbLine
 10
7963.528665664266
 20
2057.757487569729
 30
0.0
 11
7963.528665664266
 21
2070.757487569729
 31
0.0
  0
LINE
  5
49
330
17
100
AcDbEntity
  8
Painéis
 62
7
370
25
100
AcDbLine
 10
7851.528665664273
 20
2177.757487569754
 30
0.0
 11
7335.528665664273
 21
2177.757487569754
 31
0.0
  0
LINE
  5
4A
330
17
100
AcDbEntity
  8
Painéis
 62
7
370
25
100
AcDbLine
 10
7335.528665664269
 20
2070.757487569872
 30
0.0
 11
7335.528665664273
 21
2177.757487569754
 31
0.0
  0
LINE
  5
4B
330
17
100
AcDbEntity
  8
Painéis
 62
7
370
25
100
AcDbLine
 10
7851.528665664277
 20
2128.757487569755
 30
0.0
 11
7851.52866566427
 21
2177.757487569754
 31
0.0
  0
LINE
  5
4C
330
17
100
AcDbEntity
  8
SARR_2.2x7
 62
7
370
25
100
AcDbLine
 10
7342.483524905087
 20
2070.757487569751
 30
0.0
 11
7342.48352490508
 21
2177.75748756973
 31
0.0
  0
LINE
  5
4D
330
17
100
AcDbEntity
  8
SARR_2.2x7
 62
7
370
25
100
AcDbLine
 10
7851.528665664279
 20
2128.757487569755
 30
0.0
 11
7844.573806423452
 21
2128.757487569757
 31
0.0
  0
LINE
  5
4E
330
17
100
AcDbEntity
  8
SARR_2.2x7
 62
7
370
25
100
AcDbLine
 10
7844.528665664269
 20
2177.758054615072
 30
0.0
 11
7844.528665664256
 21
2128.757487569757
 31
0.0
  0
LINE
  5
4F
330
17
100
AcDbEntity
  8
Painéis
 62
7
370
25
100
AcDbLine
 10
7335.528665664269
 20
2070.757487569872
 30
0.0
 11
7335.528665664269
 21
2057.757487569872
 31
0.0
  0
LINE
  5
50
330
17
100
AcDbEntity
  8
SARR_3.5x7
 62
7
370
25
100
AcDbLine
 10
7339.028665664272
 20
2175.557487569801
 30
0.0
 11
7339.028665664319
 21
2070.757487569871
 31
0.0
  0
LINE
  5
51
330
17
100
AcDbEntity
  8
SARR_2.2x7
 62
7
370
25
100
AcDbLine
 10
7579.528665664274
 20
2175.557487569758
 30
0.0
 11
7335.528665664273
 21
2175.557487569758
 31
0.0
  0
LINE
  5
52
330
17
100
AcDbEntity
  8
Painéis
 62
7
370
25
100
AcDbLine
 10
7579.528665664269
 20
2070.757487569872
 30
0.0
 11
7579.528665664273
 21
2177.757487569754
 31
0.0
  0
LINE
  5
53
330
17
100
AcDbEntity
  8
Painéis
 62
7
370
25
100
AcDbLine
 10
7823.528665664269
 20
2070.757487569872
 30
0.0
 11
7823.528665664273
 21
2177.757487569754
 31
0.0
  0
LINE
  5
54
330
17
100
AcDbEntity
  8
SARR_3.5x7
 62
7
370
25
100
AcDbLine
 10
7960.028665664262
 20
2126.557487569758
 30
0.0
 11
7960.02866566426
 21
2070.75748756973
 31
0.0
  0
LINE
  5
55
330
17
100
AcDbEntity
  8
SARR_2.2x7
 62
7
370
25
100
AcDbLine
 10
7963.528665664262
 20
2126.557487569743
 30
0.0
 11
7851.528665664279
 21
2126.557487569743
 31
0.0
  0
LINE
  5
56
330
17
100
AcDbEntity
  8
SARR_3.5x7
 62
7
370
25
100
AcDbLine
 10
7848.028665664269
 20
2175.557487569758
 30
0.0
 11
7848.028665664269
 21
2070.757487569756
 31
0.0
  0
LINE
  5
57
330
17
100
AcDbEntity
  8
SARR_2.2x7
 62
7
370
25
100
AcDbLine
 10
7851.52866566427
 20
2175.557487569743
 30
0.0
 11
7823.528665664274
 21
2175.557487569743
 31
0.0
  0
LINE
  5
58
330
17
100
AcDbEntity
  8
SARR_3.5x7
 62
7
370
25
100
AcDbLine
 10
7851.528665664277
 20
2175.557487569759
 30
0.0
 11
7851.528665664277
 21
2070.757487569756
 31
0.0
  0
LINE
  5
59
330
17
100
AcDbEntity
  8
SARR_3.5x7
 62
7
370
25
100
AcDbLine
 10
7820.028665664246
 20
2175.557487569787
 30
0.0
 11
7820.028665664193
 21
2070.757487569762
 31
0.0
  0
LINE
  5
5A
330
17
100
AcDbEntity
  8
SARR_3.5x7
 62
7
370
25
100
AcDbLine
 10
7827.028665664333
 20
2175.557487569845
 30
0.0
 11
7827.028665664379
 21
2070.75748756976
 31
0.0
  0
LINE
  5
5B
330
17
100
AcDbEntity
  8
SARR_2.2x7
 62
7
370
25
100
AcDbLine
 10
7823.528665664274
 20
2175.557487569743
 30
0.0
 11
7579.528665664274
 21
2175.557487569743
 31
0.0
  0
LINE
  5
5C
330
17
100
AcDbEntity
  8
SARR_3.5x7
 62
7
370
25
100
AcDbLine
 10
7576.028665664243
 20
2175.557487569795
 30
0.0
 11
7576.028665664191
 21
2070.757487569817
 31
0.0
  0
LINE
  5
5D
330
17
100
AcDbEntity
  8
SARR_3.5x7
 62
7
370
25
100
AcDbLine
 10
7583.028665664331
 20
2175.557487569853
 30
0.0
 11
7583.028665664379
 21
2070.757487569816
 31
0.0
  0
LINE
  5
5E
330
17
100
AcDbEntity
  8
Painéis
 62
7
370
25
100
AcDbLine
 10
7306.892765456153
 20
2397.773386215697
 30
0.0
 11
7418.892765456158
 21
2397.773386215722
 31
0.0
  0
LINE
  5
5F
330
17
100
AcDbEntity
  8
Painéis
 62
7
370
25
100
AcDbLine
 10
7306.892765456161
 20
2339.773386215696
 30
0.0
 11
7644.89276545616
 21
2339.773386215774
 31
0.0
  0
LINE
  5
60
330
17
100
AcDbEntity
  8
Painéis
 62
7
370
25
100
AcDbLine
 10
7844.892765456157
 20
2339.773386215819
 30
0.0
 11
7934.892765456158
 21
2339.773386215839
 31
0.0
  0
LINE
  5
61
330
17
100
AcDbEntity
  8
Painéis
 62
7
370
25
100
AcDbLine
 10
7306.892765456161
 20
2339.773386215696
 30
0.0
 11
7306.892765456158
 21
2397.773386215697
 31
0.0
  0
LINE
  5
62
330
17
100
AcDbEntity
  8
SARR_2.2x7
 62
7
370
25
100
AcDbLine
 10
7313.847624696979
 20
2339.773386215693
 30
0.0
 11
7313.847624696972
 21
2397.773386215697
 31
0.0
  0
LINE
  5
63
330
17
100
AcDbEntity
  8
Painéis
 62
7
370
25
100
AcDbLine
 10
7306.892765456161
 20
2326.773386215696
 30
0.0
 11
7934.892765456158
 21
2326.773386215839
 31
0.0
  0
LINE
  5
64
330
17
100
AcDbEntity
  8
Painéis
 62
7
370
25
100
AcDbLine
 10
7306.892765456161
 20
2326.773386215696
 30
0.0
 11
7306.892765456161
 21
2339.773386215696
 31
0.0
  0
LINE
  5
65
330
17
100
AcDbEntity
  8
Painéis
 62
7
370
25
100
AcDbLine
 10
7418.892765456154
 20
2446.773386215722
 30
0.0
 11
7934.892765456154
 21
2446.773386215722
 31
0.0
  0
LINE
  5
66
330
17
100
AcDbEntity
  8
Painéis
 62
7
370
25
100
AcDbLine
 10
7934.892765456158
 20
2339.773386215839
 30
0.0
 11
7934.892765456154
 21
2446.773386215722
 31
0.0
  0
LINE
  5
67
330
17
100
AcDbEntity
  8
Painéis
 62
7
370
25
100
AcDbLine
 10
7418.892765456151
 20
2397.773386215722
 30
0.0
 11
7418.892765456158
 21
2446.773386215722
 31
0.0
  0
LINE
  5
68
330
17
100
AcDbEntity
  8
SARR_2.2x7
 62
7
370
25
100
AcDbLine
 10
7927.937906215341
 20
2339.773386215719
 30
0.0
 11
7927.937906215348
 21
2446.773386215697
 31
0.0
  0
LINE
  5
69
330
17
100
AcDbEntity
  8
SARR_2.2x7
 62
7
370
25
100
AcDbLine
 10
7418.892765456148
 20
2397.773386215722
 30
0.0
 11
7425.847624696975
 21
2397.773386215724
 31
0.0
  0
LINE
  5
6A
330
17
100
AcDbEntity
  8
SARR_2.2x7
 62
7
370
25
100
AcDbLine
 10
7425.892765456158
 20
2446.77395326104
 30
0.0
 11
7425.89276545617
 21
2397.773386215724
 31
0.0
  0
LINE
  5
6B
330
17
100
AcDbEntity
  8
Painéis
 62
7
370
25
100
AcDbLine
 10
7934.892765456158
 20
2339.773386215839
 30
0.0
 11
7934.892765456158
 21
2326.773386215839
 31
0.0
  0
LINE
  5
6C
330
17
100
AcDbEntity
  8
SARR_3.5x7
 62
7
370
25
100
AcDbLine
 10
7931.392765456154
 20
2444.573386215769
 30
0.0
 11
7931.392765456107
 21
2339.773386215838
 31
0.0
  0
LINE
  5
6D
330
17
100
AcDbEntity
  8
SARR_2.2x7
 62
7
370
25
100
AcDbLine
 10
7690.892765456152
 20
2444.573386215725
 30
0.0
 11
7934.892765456154
 21
2444.573386215725
 31
0.0
  0
LINE
  5
6E
330
17
100
AcDbEntity
  8
Painéis
 62
7
370
25
100
AcDbLine
 10
7690.892765456158
 20
2336.773386215819
 30
0.0
 11
7690.892765456154
 21
2446.773386215722
 31
0.0
  0
LINE
  5
6F
330
17
100
AcDbEntity
  8
Painéis
 62
7
370
25
100
AcDbLine
 10
7446.892765456158
 20
2339.773386215839
 30
0.0
 11
7446.892765456154
 21
2446.773386215722
 31
0.0
  0
LINE
  5
70
330
17
100
AcDbEntity
  8
SARR_3.5x7
 62
7
370
25
100
AcDbLine
 10
7310.392765456164
 20
2395.573386215725
 30
0.0
 11
7310.392765456168
 21
2339.773386215698
 31
0.0
  0
LINE
  5
71
330
17
100
AcDbEntity
  8
SARR_2.2x7
 62
7
370
25
100
AcDbLine
 10
7306.892765456165
 20
2395.57338621571
 30
0.0
 11
7418.892765456148
 21
2395.57338621571
 31
0.0
  0
LINE
  5
72
330
17
100
AcDbEntity
  8
SARR_3.5x7
 62
7
370
25
100
AcDbLine
 10
7422.392765456158
 20
2444.573386215725
 30
0.0
 11
7422.392765456158
 21
2339.773386215723
 31
0.0
  0
LINE
  5
73
330
17
100
AcDbEntity
  8
SARR_2.2x7
 62
7
370
25
100
AcDbLine
 10
7418.892765456158
 20
2444.573386215711
 30
0.0
 11
7446.892765456152
 21
2444.573386215711
 31
0.0
  0
LINE
  5
74
330
17
100
AcDbEntity
  8
SARR_3.5x7
 62
7
370
25
100
AcDbLine
 10
7418.892765456151
 20
2444.573386215726
 30
0.0
 11
7418.892765456151
 21
2339.773386215724
 31
0.0
  0
LINE
  5
75
330
17
100
AcDbEntity
  8
SARR_3.5x7
 62
7
370
25
100
AcDbLine
 10
7450.392765456182
 20
2444.573386215754
 30
0.0
 11
7450.392765456235
 21
2339.773386215729
 31
0.0
  0
LINE
  5
76
330
17
100
AcDbEntity
  8
SARR_3.5x7
 62
7
370
25
100
AcDbLine
 10
7443.392765456095
 20
2444.573386215812
 30
0.0
 11
7443.392765456049
 21
2339.773386215727
 31
0.0
  0
LINE
  5
77
330
17
100
AcDbEntity
  8
SARR_2.2x7
 62
7
370
25
100
AcDbLine
 10
7446.892765456152
 20
2444.573386215711
 30
0.0
 11
7690.892765456152
 21
2444.573386215711
 31
0.0
  0
LINE
  5
78
330
17
100
AcDbEntity
  8
SARR_3.5x7
 62
7
370
25
100
AcDbLine
 10
7694.392765456183
 20
2444.573386215763
 30
0.0
 11
7694.392765456237
 21
2336.773386215819
 31
0.0
  0
LINE
  5
79
330
17
100
AcDbEntity
  8
SARR_3.5x7
 62
7
370
25
100
AcDbLine
 10
7687.392765456095
 20
2444.57338621582
 30
0.0
 11
7687.392765456046
 21
2336.773386215819
 31
0.0
  0
LINE
  5
7A
330
17
100
AcDbEntity
  8
Painéis
 62
7
370
25
100
AcDbLine
 10
7844.892765456157
 20
2339.773386215819
 30
0.0
 11
7844.892765456157
 21
2336.773386215819
 31
0.0
  0
LINE
  5
7B
330
17
100
AcDbEntity
  8
Painéis
 62
7
370
25
100
AcDbLine
 10
7844.892765456157
 20
2336.773386215819
 30
0.0
 11
7644.892765456157
 21
2336.773386215819
 31
0.0
  0
LINE
  5
7C
330
17
100
AcDbEntity
  8
Painéis
 62
7
370
25
100
AcDbLine
 10
7644.892765456157
 20
2336.773386215819
 30
0.0
 11
7644.892765456157
 21
2339.773386215774
 31
0.0
  0
LINE
  5
7D
330
17
100
AcDbEntity
  8
Painéis
 62
7
370
25
100
AcDbLine
 10
6880.800900725337
 20
2067.712822181088
 30
0.0
 11
6842.845882609253
 21
2067.712822181088
 31
0.0
  0
LINE
  5
7E
330
17
100
AcDbEntity
  8
Painéis
 62
7
370
25
100
AcDbLine
 10
6880.800900725337
 20
1951.712822181097
 30
0.0
 11
6842.862044385867
 21
1951.712822181086
 31
0.0
  0
LINE
  5
7F
330
17
100
AcDbEntity
  8
Painéis
 62
7
370
25
100
AcDbLine
 10
6842.862044385867
 20
1951.712822181086
 30
0.0
 11
6842.845882609253
 21
2067.712822181088
 31
0.0
  0
LINE
  5
80
330
17
100
AcDbEntity
  8
Painéis
 62
7
370
25
100
AcDbLine
 10
6880.800900725337
 20
2067.712822181088
 30
0.0
 11
6880.800900725337
 21
1951.712822181097
 31
0.0
  0
LINE
  5
81
330
17
100
AcDbEntity
  8
Painéis
 62
7
370
25
100
AcDbLine
 10
7043.485775383567
 20
2067.712822181088
 30
0.0
 11
7005.530757267485
 21
2067.712822181088
 31
0.0
  0
LINE
  5
82
330
17
100
AcDbEntity
  8
Painéis
 62
7
370
25
100
AcDbLine
 10
7043.485775383567
 20
1969.712822181097
 30
0.0
 11
7005.546919044099
 21
1969.712822181086
 31
0.0
  0
LINE
  5
83
330
17
100
AcDbEntity
  8
Painéis
 62
7
370
25
100
AcDbLine
 10
7005.546919044099
 20
1969.712822181086
 30
0.0
 11
7005.530757267485
 21
2067.712822181088
 31
0.0
  0
LINE
  5
84
330
17
100
AcDbEntity
  8
Painéis
 62
7
370
25
100
AcDbLine
 10
7043.485775383567
 20
2067.712822181088
 30
0.0
 11
7043.485775383567
 21
1969.712822181097
 31
0.0
  0
LWPOLYLINE
  5
85
330
17
100
AcDbEntity
  8
Painéis
 62
7
370
25
100
AcDbPolyline
 90
4
 70
1
 10
6840.432991977012
 20
2454.945585166182
 10
6844.432991977011
 20
2454.945585166182
 10
6844.432991977011
 20
2338.945585166182
 10
6840.432991977012
 20
2338.945585166182
  0
LWPOLYLINE
  5
86
330
17
100
AcDbEntity
  8
Painéis
 62
7
370
25
100
AcDbPolyline
 90
4
 70
1
 10
6885.414128580625
 20
2309.331454391557
 10
6885.414128580625
 20
2312.931454391563
 10
6847.414128580625
 20
2312.931454391563
 10
6847.414128580625
 20
2309.331454391557
  0
LWPOLYLINE
  5
87
330
17
100
AcDbEntity
  8
Painéis
 62
7
370
25
100
AcDbPolyline
 90
4
 70
1
 10
6886.432991977023
 20
2454.945585166182
 10
6882.432991977022
 20
2454.945585166182
 10
6882.432991977012
 20
2338.945585166182
 10
6886.432991977011
 20
2338.945585166182
  0
LWPOLYLINE
  5
88
330
17
100
AcDbEntity
  8
CONCRETO
 62
7
370
25
100
AcDbPolyline
 90
8
 70
1
 10
6844.432991977011
 20
2454.945585166182
 10
6844.432991977011
 20
2454.945585166182
 10
6882.432991977019
 20
2454.945585166182
 10
6882.432991977019
 20
2426.945585166167
 10
6882.432991977012
 20
2426.945585166167
 10
6882.432991976955
 20
2338.945585166182
 10
6844.432991977014
 20
2338.945585166182
 10
6844.432991977011
 20
2454.945585166189
  0
LWPOLYLINE
  5
89
330
17
100
AcDbEntity
  8
Painéis
 62
7
370
25
100
AcDbPolyline
 90
4
 70
1
 10
6847.414128580625
 20
2309.331454391557
 10
6847.414128580625
 20
2312.931454391563
 10
6792.598522966371
 20
2312.931454391563
 10
6792.598522966371
 20
2309.331454391557
  0
LWPOLYLINE
  5
8A
330
17
100
AcDbEntity
  8
Painéis
 62
7
370
25
100
AcDbPolyline
 90
4
 70
1
 10
6940.229734194879
 20
2309.331454391557
 10
6940.229734194879
 20
2312.931454391563
 10
6885.414128580625
 20
2312.931454391563
 10
6885.414128580625
 20
2309.331454391557
  0
LWPOLYLINE
  5
8B
330
17
100
AcDbEntity
  8
Painéis
 62
7
370
25
100
AcDbPolyline
 90
4
 70
1
 10
7058.794826612722
 20
2454.945585166182
 10
7062.794826612722
 20
2454.945585166182
 10
7062.794826612722
 20
2240.945585166182
 10
7058.794826612722
 20
2240.945585166182
  0
LWPOLYLINE
  5
8C
330
17
100
AcDbEntity
  8
Painéis
 62
7
370
25
100
AcDbPolyline
 90
4
 70
1
 10
7103.775963216335
 20
2211.331454391558
 10
7103.775963216335
 20
2214.931454391563
 10
7065.775963216336
 20
2214.931454391563
 10
7065.775963216336
 20
2211.331454391558
  0
LWPOLYLINE
  5
8D
330
17
100
AcDbEntity
  8
Painéis
 62
7
370
25
100
AcDbPolyline
 90
4
 70
1
 10
7104.794826612733
 20
2454.945585166182
 10
7100.794826612733
 20
2454.945585166182
 10
7100.794826612723
 20
2240.945585166182
 10
7104.794826612722
 20
2240.945585166182
  0
LWPOLYLINE
  5
8E
330
17
100
AcDbEntity
  8
CONCRETO
 62
7
370
25
100
AcDbPolyline
 90
8
 70
1
 10
7062.794826612722
 20
2454.945585166182
 10
7062.794826612722
 20
2454.945585166182
 10
7100.79482661273
 20
2454.945585166182
 10
7100.79482661273
 20
2426.945585166167
 10
7100.794826612723
 20
2426.945585166167
 10
7100.794826612666
 20
2240.945585166182
 10
7062.794826612725
 20
2240.945585166182
 10
7062.794826612722
 20
2454.945585166189
  0
LWPOLYLINE
  5
8F
330
17
100
AcDbEntity
  8
Painéis
 62
7
370
25
100
AcDbPolyline
 90
4
 70
1
 10
7065.775963216336
 20
2211.331454391558
 10
7065.775963216336
 20
2214.931454391563
 10
7010.960357602082
 20
2214.931454391563
 10
7010.960357602082
 20
2211.331454391558
  0
LWPOLYLINE
  5
90
330
17
100
AcDbEntity
  8
Painéis
 62
7
370
25
100
AcDbPolyline
 90
4
 70
1
 10
7158.591568830591
 20
2211.331454391558
 10
7158.591568830591
 20
2214.931454391563
 10
7103.775963216335
 20
2214.931454391563
 10
7103.775963216335
 20
2211.331454391558
  0
LWPOLYLINE
  5
91
330
17
100
AcDbEntity
  8
Madeira
 62
7
370
25
100
AcDbPolyline
 90
4
 70
1
 10
6840.432991977012
 20
2450.54558516618
 10
6840.432991977012
 20
2454.945585166182
 10
6826.432991977012
 20
2454.945585166182
 10
6826.432991977012
 20
2450.54558516618
  0
LWPOLYLINE
  5
92
330
17
100
AcDbEntity
  8
Madeira
 62
7
370
25
100
AcDbPolyline
 90
4
 70
1
 10
6840.432991977012
 20
2454.945585166182
 10
6826.432991977012
 20
2454.945585166182
 10
6826.432991977012
 20
2338.945585166182
 10
6840.432991977012
 20
2338.945585166182
  0
LWPOLYLINE
  5
93
330
17
100
AcDbEntity
  8
Madeira
 62
7
370
25
100
AcDbPolyline
 90
4
 70
1
 10
6886.432991977018
 20
2450.54558516618
 10
6886.432991977018
 20
2454.945585166182
 10
6900.432991977019
 20
2454.945585166182
 10
6900.432991977019
 20
2450.54558516618
  0
LWPOLYLINE
  5
94
330
17
100
AcDbEntity
  8
Madeira
 62
7
370
25
100
AcDbPolyline
 90
4
 70
1
 10
6886.432991977018
 20
2454.945585166182
 10
6900.432991977019
 20
2454.945585166182
 10
6900.432991977019
 20
2338.945585166182
 10
6886.432991977018
 20
2338.945585166182
  0
LWPOLYLINE
  5
95
330
17
100
AcDbEntity
  8
Madeira
 62
7
370
25
100
AcDbPolyline
 90
4
 70
1
 10
7058.794826612722
 20
2450.54558516618
 10
7058.794826612722
 20
2454.945585166182
 10
7044.794826612722
 20
2454.945585166182
 10
7044.794826612722
 20
2450.54558516618
  0
LWPOLYLINE
  5
96
330
17
100
AcDbEntity
  8
Madeira
 62
7
370
25
100
AcDbPolyline
 90
4
 70
1
 10
7058.794826612722
 20
2454.945585166182
 10
7044.794826612722
 20
2454.945585166182
 10
7044.794826612722
 20
2240.945585166182
 10
7058.794826612722
 20
2240.945585166182
  0
LWPOLYLINE
  5
97
330
17
100
AcDbEntity
  8
Madeira
 62
7
370
25
100
AcDbPolyline
 90
4
 70
1
 10
7104.794826612729
 20
2450.54558516618
 10
7104.794826612729
 20
2454.945585166182
 10
7118.794826612729
 20
2454.945585166182
 10
7118.794826612729
 20
2450.54558516618
  0
LWPOLYLINE
  5
98
330
17
100
AcDbEntity
  8
Madeira
 62
7
370
25
100
AcDbPolyline
 90
4
 70
1
 10
7104.794826612729
 20
2454.945585166182
 10
7118.794826612729
 20
2454.945585166182
 10
7118.794826612729
 20
2240.945585166182
 10
7104.794826612729
 20
2240.945585166182
  0
LWPOLYLINE
  5
99
330
17
100
AcDbEntity
  8
SARR_2.2x7
 62
7
370
25
100
AcDbPolyline
 90
4
 70
1
 10
6866.82153776775
 20
2067.712822181088
 10
6880.800900725337
 20
2067.712822181088
 10
6880.800900725337
 20
1951.712822181097
 10
6866.82153776775
 20
1951.712822181097
  0
LWPOLYLINE
  5
9A
330
17
100
AcDbEntity
  8
SARR_2.2x7
 62
7
370
25
100
AcDbPolyline
 90
4
 70
1
 10
6856.841407343454
 20
2067.712822181088
 10
6842.862044385867
 20
2067.712822181088
 10
6842.862044385867
 20
1951.712822181097
 10
6856.841407343454
 20
1951.712822181097
  0
LWPOLYLINE
  5
9B
330
17
100
AcDbEntity
  8
Cotas
 62
7
370
25
100
AcDbPolyline
 90
4
 70
1
 10
6799.418344197992
 20
2101.112047195554
 10
6931.784404627753
 20
2101.112047195554
 10
6931.784404627753
 20
1891.544193698481
 10
6799.418344197992
 20
1891.544193698481
  0
LWPOLYLINE
  5
9C
330
17
100
AcDbEntity
  8
SARR_2.2x7
 62
7
370
25
100
AcDbPolyline
 90
4
 70
1
 10
7029.50641242598
 20
2067.712822181088
 10
7043.485775383567
 20
2067.712822181088
 10
7043.485775383567
 20
1969.712822181097
 10
7029.50641242598
 20
1969.712822181097
  0
LWPOLYLINE
  5
9D
330
17
100
AcDbEntity
  8
SARR_2.2x7
 62
7
370
25
100
AcDbPolyline
 90
4
 70
1
 10
7019.526282001685
 20
2067.712822181088
 10
7005.546919044099
 20
2067.712822181088
 10
7005.546919044099
 20
1969.712822181097
 10
7019.526282001685
 20
1969.712822181097
  0
LWPOLYLINE
  5
9E
330
17
100
AcDbEntity
  8
Cotas
 62
7
370
25
100
AcDbPolyline
 90
4
 70
1
 10
6962.103218856222
 20
2101.112047195554
 10
7094.469279285984
 20
2101.112047195554
 10
7094.469279285984
 20
1909.544193698481
 10
6962.103218856222
 20
1909.544193698481
  0
TEXT
  5
9F
330
17
100
AcDbEntity
  8
detalhes
 62
7
370
25
100
AcDbText
 10
6829.798725346652
 20
2412.578738187648
 30
0.0
 40
9.600000000000001
  1
a
100
AcDbText
  0
TEXT
  5
A0
330
17
100
AcDbEntity
  8
detalhes
 62
7
370
25
100
AcDbText
 10
6855.033257592457
 20
2315.526967550978
 30
0.0
 40
9.600000000000001
  1
c
100
AcDbText
  0
TEXT
  5
A1
330
17
100
AcDbEntity
  8
detalhes
 62
7
370
25
100
AcDbText
 10
6889.06725860738
 20
2412.578738187648
 30
0.0
 40
9.600000000000001
  1
b
100
AcDbText
  0
TEXT
  5
A2
330
17
100
AcDbEntity
  8
detalhes
 62
7
370
25
100
AcDbText
 10
7048.160559982362
 20
2347.240319303118
 30
0.0
 40
9.600000000000001
  1
a
100
AcDbText
  0
TEXT
  5
A3
330
17
100
AcDbEntity
  8
detalhes
 62
7
370
25
100
AcDbText
 10
7073.395092228167
 20
2217.526967550978
 30
0.0
 40
9.600000000000001
  1
c
100
AcDbText
  0
TEXT
  5
A4
330
17
100
AcDbEntity
  8
detalhes
 62
7
370
25
100
AcDbText
 10
7107.429093243091
 20
2347.240319303118
 30
0.0
 40
9.600000000000001
  1
b
100
AcDbText
  0
TEXT
  5
A5
330
17
100
AcDbEntity
  8
5
 62
7
370
25
100
AcDbText
 10
7917.245303147912
 20
2010.927500481325
 30
0.0
 40
12.0
  1
VF301
100
AcDbText
  0
TEXT
  5
A6
330
17
100
AcDbEntity
  8
5
 62
7
370
25
100
AcDbText
 10
7325.075207005537
 20
2015.045866909675
 30
0.0
 40
12.0
  1
P18
100
AcDbText
  0
TEXT
  5
A7
330
17
100
AcDbEntity
  8
Texto Seção
 62
7
370
25
100
AcDbText
 10
7332.952829835715
 20
2204.383686999496
 30
0.0
 40
13.0
  1
V330.B
100
AcDbText
  0
TEXT
  5
A8
330
17
100
AcDbEntity
  8
texto
 62
7
370
25
100
AcDbText
 10
7903.848896241098
 20
2099.318018245477
 30
0.0
 40
8.0
  1
{\Q19;\C256;5 1/2pont}
100
AcDbText
  0
TEXT
  5
A9
330
17
100
AcDbEntity
  8
texto
 62
7
370
25
100
AcDbText
 10
7707.975172761338
 20
2123.235323867479
 30
0.0
 40
8.0
  1
{\Q19;\C256;8 1/2pont}
100
AcDbText
  0
TEXT
  5
AA
330
17
100
AcDbEntity
  8
texto
 62
7
370
25
100
AcDbText
 10
7452.436963434322
 20
2123.235323867479
 30
0.0
 40
8.0
  1
{\Q19;\C256;8 1/2pont}
100
AcDbText
  0
TEXT
  5
AB
330
17
100
AcDbEntity
  8
5
 62
7
370
25
100
AcDbText
 10
7306.788679132141
 20
2279.943370384001
 30
0.0
 40
12.0
  1
VF301
100
AcDbText
  0
TEXT
  5
AC
330
17
100
AcDbEntity
  8
5
 62
7
370
25
100
AcDbText
 10
7914.961503787473
 20
2284.061746728203
 30
0.0
 40
12.0
  1
P18
100
AcDbText
  0
TEXT
  5
AD
330
17
100
AcDbEntity
  8
Texto Seção
 62
7
370
25
100
AcDbText
 10
7298.520362254333
 20
2440.172007423331
 30
0.0
 40
13.0
  1
V330.A
100
AcDbText
  0
TEXT
  5
AE
330
17
100
AcDbEntity
  8
texto
 62
7
370
25
100
AcDbText
 10
7366.57253487933
 20
2368.333916891445
 30
0.0
 40
8.0
  1
{\Q19;\C256;5 1/2pont}
100
AcDbText
  0
TEXT
  5
AF
330
17
100
AcDbEntity
  8
texto
 62
7
370
25
100
AcDbText
 10
7562.446258359088
 20
2392.251222513447
 30
0.0
 40
8.0
  1
{\Q19;\C256;8 1/2pont}
100
AcDbText
  0
TEXT
  5
B0
330
17
100
AcDbEntity
  8
texto
 62
7
370
25
100
AcDbText
 10
7817.984467686105
 20
2392.251222513447
 30
0.0
 40
8.0
  1
{\Q19;\C256;8 1/2pont}
100
AcDbText
  0
TEXT
  5
B1
330
17
100
AcDbEntity
  8
TEXTO PILAR
 62
7
370
25
100
AcDbText
 10
6806.870826335075
 20
2082.368520137297
 30
0.0
 40
12.0
  1
FECHAMENTO
100
AcDbText
  0
TEXT
  5
B2
330
17
100
AcDbEntity
  8
TEXTO PILAR
 62
7
370
25
100
AcDbText
 10
6969.555700993307
 20
2082.368520137297
 30
0.0
 40
12.0
  1
FECHAMENTO
100
AcDbText
  0
HATCH
  5
B3
330
17
100
AcDbEntity
  8
Hachura
 62
7
100
AcDbHatch
 10
0.0
 20
0.0
 30
0.0
210
0.0
220
0.0
230
1.0
  2
SOLID
 70
1
 71
0
 91
1
 92
3
 72
0
 73
1
 93
8
 10
6840.432991977012
 20
2338.945585166182
 10
6844.432991977011
 20
2338.945585166182
 10
6844.432991977011
 20
2338.945585166182
 10
6844.432991977011
 20
2454.945585166182
 10
6844.432991977011
 20
2454.945585166182
 10
6840.432991977012
 20
2454.945585166182
 10
6840.432991977012
 20
2454.945585166182
 10
6840.432991977012
 20
2338.945585166182
 97
0
 75
1
 76
1
 98
0
  0
HATCH
  5
B4
330
17
100
AcDbEntity
  8
Hachura
 62
7
100
AcDbHatch
 10
0.0
 20
0.0
 30
0.0
210
0.0
220
0.0
230
1.0
  2
SOLID
 70
1
 71
0
 91
1
 92
3
 72
0
 73
1
 93
8
 10
6885.414128580625
 20
2309.331454391557
 10
6885.414128580625
 20
2312.931454391563
 10
6885.414128580625
 20
2312.931454391563
 10
6847.414128580625
 20
2312.931454391563
 10
6847.414128580625
 20
2312.931454391563
 10
6847.414128580625
 20
2309.331454391557
 10
6847.414128580625
 20
2309.331454391557
 10
6885.414128580625
 20
2309.331454391557
 97
0
 75
1
 76
1
 98
0
  0
HATCH
  5
B5
330
17
100
AcDbEntity
  8
Hachura
 62
7
100
AcDbHatch
 10
0.0
 20
0.0
 30
0.0
210
0.0
220
0.0
230
1.0
  2
SOLID
 70
1
 71
0
 91
1
 92
3
 72
0
 73
1
 93
8
 10
6882.432991977009
 20
2338.945585166182
 10
6886.432991977009
 20
2338.945585166182
 10
6886.432991977009
 20
2338.945585166182
 10
6886.432991977011
 20
2454.945585166182
 10
6886.432991977011
 20
2454.945585166182
 10
6882.432991977012
 20
2454.945585166182
 10
6882.432991977012
 20
2454.945585166182
 10
6882.432991977009
 20
2338.945585166182
 97
0
 75
1
 76
1
 98
0
  0
HATCH
  5
B6
330
17
100
AcDbEntity
  8
Hachura
 62
7
100
AcDbHatch
 10
0.0
 20
0.0
 30
0.0
210
0.0
220
0.0
230
1.0
  2
SOLID
 70
1
 71
0
 91
1
 92
3
 72
0
 73
1
 93
8
 10
6847.414128580625
 20
2309.331454391557
 10
6847.414128580625
 20
2312.931454391563
 10
6847.414128580625
 20
2312.931454391563
 10
6792.598522966371
 20
2312.931454391563
 10
6792.598522966371
 20
2312.931454391563
 10
6792.598522966371
 20
2309.331454391557
 10
6792.598522966371
 20
2309.331454391557
 10
6847.414128580625
 20
2309.331454391557
 97
0
 75
1
 76
1
 98
0
  0
HATCH
  5
B7
330
17
100
AcDbEntity
  8
Hachura
 62
7
100
AcDbHatch
 10
0.0
 20
0.0
 30
0.0
210
0.0
220
0.0
230
1.0
  2
SOLID
 70
1
 71
0
 91
1
 92
3
 72
0
 73
1
 93
8
 10
6940.229734194879
 20
2309.331454391557
 10
6940.229734194879
 20
2312.931454391563
 10
6940.229734194879
 20
2312.931454391563
 10
6885.414128580625
 20
2312.931454391563
 10
6885.414128580625
 20
2312.931454391563
 10
6885.414128580625
 20
2309.331454391557
 10
6885.414128580625
 20
2309.331454391557
 10
6940.229734194879
 20
2309.331454391557
 97
0
 75
1
 76
1
 98
0
  0
HATCH
  5
B8
330
17
100
AcDbEntity
  8
Hachura
 62
7
100
AcDbHatch
 10
0.0
 20
0.0
 30
0.0
210
0.0
220
0.0
230
1.0
  2
SOLID
 70
1
 71
0
 91
1
 92
3
 72
0
 73
1
 93
8
 10
7058.794826612722
 20
2240.945585166182
 10
7062.794826612722
 20
2240.945585166182
 10
7062.794826612722
 20
2240.945585166182
 10
7062.794826612722
 20
2454.945585166182
 10
7062.794826612722
 20
2454.945585166182
 10
7058.794826612722
 20
2454.945585166182
 10
7058.794826612722
 20
2454.945585166182
 10
7058.794826612722
 20
2240.945585166182
 97
0
 75
1
 76
1
 98
0
  0
HATCH
  5
B9
330
17
100
AcDbEntity
  8
Hachura
 62
7
100
AcDbHatch
 10
0.0
 20
0.0
 30
0.0
210
0.0
220
0.0
230
1.0
  2
SOLID
 70
1
 71
0
 91
1
 92
3
 72
0
 73
1
 93
8
 10
7103.775963216335
 20
2211.331454391558
 10
7103.775963216335
 20
2214.931454391563
 10
7103.775963216335
 20
2214.931454391563
 10
7065.775963216336
 20
2214.931454391563
 10
7065.775963216336
 20
2214.931454391563
 10
7065.775963216336
 20
2211.331454391558
 10
7065.775963216336
 20
2211.331454391558
 10
7103.775963216335
 20
2211.331454391558
 97
0
 75
1
 76
1
 98
0
  0
HATCH
  5
BA
330
17
100
AcDbEntity
  8
Hachura
 62
7
100
AcDbHatch
 10
0.0
 20
0.0
 30
0.0
210
0.0
220
0.0
230
1.0
  2
SOLID
 70
1
 71
0
 91
1
 92
3
 72
0
 73
1
 93
8
 10
7100.79482661272
 20
2240.945585166182
 10
7104.794826612719
 20
2240.945585166182
 10
7104.794826612719
 20
2240.945585166182
 10
7104.794826612722
 20
2454.945585166182
 10
7104.794826612722
 20
2454.945585166182
 10
7100.794826612723
 20
2454.945585166182
 10
7100.794826612723
 20
2454.945585166182
 10
7100.79482661272
 20
2240.945585166182
 97
0
 75
1
 76
1
 98
0
  0
HATCH
  5
BB
330
17
100
AcDbEntity
  8
Hachura
 62
7
100
AcDbHatch
 10
0.0
 20
0.0
 30
0.0
210
0.0
220
0.0
230
1.0
  2
SOLID
 70
1
 71
0
 91
1
 92
3
 72
0
 73
1
 93
8
 10
7065.775963216336
 20
2211.331454391558
 10
7065.775963216336
 20
2214.931454391563
 10
7065.775963216336
 20
2214.931454391563
 10
7010.960357602082
 20
2214.931454391563
 10
7010.960357602082
 20
2214.931454391563
 10
7010.960357602082
 20
2211.331454391558
 10
7010.960357602082
 20
2211.331454391558
 10
7065.775963216336
 20
2211.331454391558
 97
0
 75
1
 76
1
 98
0
  0
HATCH
  5
BC
330
17
100
AcDbEntity
  8
Hachura
 62
7
100
AcDbHatch
 10
0.0
 20
0.0
 30
0.0
210
0.0
220
0.0
230
1.0
  2
SOLID
 70
1
 71
0
 91
1
 92
3
 72
0
 73
1
 93
8
 10
7158.591568830591
 20
2211.331454391558
 10
7158.591568830591
 20
2214.931454391563
 10
7158.591568830591
 20
2214.931454391563
 10
7103.775963216335
 20
2214.931454391563
 10
7103.775963216335
 20
2214.931454391563
 10
7103.775963216335
 20
2211.331454391558
 10
7103.775963216335
 20
2211.331454391558
 10
7158.591568830591
 20
2211.331454391558
 97
0
 75
1
 76
1
 98
0
  0
HATCH
  5
BD
330
17
100
AcDbEntity
  8
Hachura
 62
7
100
AcDbHatch
 10
0.0
 20
0.0
 30
0.0
210
0.0
220
0.0
230
1.0
  2
SOLID
 70
1
 71
0
 91
1
 92
3
 72
0
 73
1
 93
8
 10
6840.432991977012
 20
2450.54558516618
 10
6840.432991977012
 20
2454.945585166182
 10
6840.432991977012
 20
2454.945585166182
 10
6826.432991977012
 20
2454.945585166182
 10
6826.432991977012
 20
2454.945585166182
 10
6826.432991977012
 20
2450.54558516618
 10
6826.432991977012
 20
2450.54558516618
 10
6840.432991977012
 20
2450.54558516618
 97
0
 75
1
 76
1
 98
0
  0
HATCH
  5
BE
330
17
100
AcDbEntity
  8
Hachura
 62
7
100
AcDbHatch
 10
0.0
 20
0.0
 30
0.0
210
0.0
220
0.0
230
1.0
  2
SOLID
 70
1
 71
0
 91
1
 92
3
 72
0
 73
1
 93
8
 10
6886.432991977018
 20
2450.54558516618
 10
6886.432991977018
 20
2454.945585166182
 10
6886.432991977018
 20
2454.945585166182
 10
6900.432991977019
 20
2454.945585166182
 10
6900.432991977019
 20
2454.945585166182
 10
6900.432991977019
 20
2450.54558516618
 10
6900.432991977019
 20
2450.54558516618
 10
6886.432991977018
 20
2450.54558516618
 97
0
 75
1
 76
1
 98
0
  0
HATCH
  5
BF
330
17
100
AcDbEntity
  8
Hachura
 62
7
100
AcDbHatch
 10
0.0
 20
0.0
 30
0.0
210
0.0
220
0.0
230
1.0
  2
SOLID
 70
1
 71
0
 91
1
 92
3
 72
0
 73
1
 93
8
 10
7058.794826612722
 20
2450.54558516618
 10
7058.794826612722
 20
2454.945585166182
 10
7058.794826612722
 20
2454.945585166182
 10
7044.794826612722
 20
2454.945585166182
 10
7044.794826612722
 20
2454.945585166182
 10
7044.794826612722
 20
2450.54558516618
 10
7044.794826612722
 20
2450.54558516618
 10
7058.794826612722
 20
2450.54558516618
 97
0
 75
1
 76
1
 98
0
  0
HATCH
  5
C0
330
17
100
AcDbEntity
  8
Hachura
 62
7
100
AcDbHatch
 10
0.0
 20
0.0
 30
0.0
210
0.0
220
0.0
230
1.0
  2
SOLID
 70
1
 71
0
 91
1
 92
3
 72
0
 73
1
 93
8
 10
7104.794826612729
 20
2450.54558516618
 10
7104.794826612729
 20
2454.945585166182
 10
7104.794826612729
 20
2454.945585166182
 10
7118.794826612729
 20
2454.945585166182
 10
7118.794826612729
 20
2454.945585166182
 10
7118.794826612729
 20
2450.54558516618
 10
7118.794826612729
 20
2450.54558516618
 10
7104.794826612729
 20
2450.54558516618
 97
0
 75
1
 76
1
 98
0
  0
HATCH
  5
C1
330
17
100
AcDbEntity
  8
COTA
 62
7
100
AcDbHatch
 10
0.0
 20
0.0
 30
0.0
210
0.0
220
0.0
230
1.0
  2
SOLID
 70
1
 71
0
 91
1
 92
3
 72
0
 73
1
 93
8
 10
7963.528665664263
 20
2057.757487569865
 10
7963.528665664263
 20
2070.757487569872
 10
7963.528665664263
 20
2070.757487569872
 10
7335.528665664269
 20
2070.757487569872
 10
7335.528665664269
 20
2070.757487569872
 10
7335.528665664269
 20
2057.757487569864
 10
7335.528665664269
 20
2057.757487569864
 10
7963.528665664263
 20
2057.757487569865
 97
0
 75
1
 76
1
 98
0
  0
HATCH
  5
C2
330
17
100
AcDbEntity
  8
COTA
 62
7
100
AcDbHatch
 10
0.0
 20
0.0
 30
0.0
210
0.0
220
0.0
230
1.0
  2
SOLID
 70
1
 71
0
 91
1
 92
3
 72
0
 73
1
 93
16
 10
7844.892765456155
 20
2339.773386215839
 10
7844.892765456155
 20
2336.773386215819
 10
7844.892765456155
 20
2336.773386215819
 10
7644.892765456157
 20
2336.773386215819
 10
7644.892765456157
 20
2336.773386215819
 10
7644.892765456157
 20
2339.77338621584
 10
7644.892765456157
 20
2339.773386215839
 10
7306.892765456163
 20
2339.773386215839
 10
7306.892765456163
 20
2339.773386215839
 10
7306.892765456163
 20
2326.773386215833
 10
7306.892765456163
 20
2326.773386215833
 10
7934.892765456158
 20
2326.773386215831
 10
7934.892765456158
 20
2326.773386215831
 10
7934.892765456158
 20
2339.773386215839
 10
7934.892765456158
 20
2339.773386215839
 10
7844.892765456155
 20
2339.773386215839
 97
0
 75
1
 76
1
 98
0
  0
ENDSEC
  0
SECTION
  2
OBJECTS
  0
DICTIONARY
  5
A
330
0
100
AcDbDictionary
281
1
  3
ACAD_COLOR
350
B
  3
ACAD_GROUP
350
C
  3
ACAD_LAYOUT
350
D
  3
ACAD_MATERIAL
350
E
  3
ACAD_MLEADERSTYLE
350
F
  3
ACAD_MLINESTYLE
350
10
  3
ACAD_PLOTSETTINGS
350
11
  3
ACAD_PLOTSTYLENAME
350
12
  3
ACAD_SCALELIST
350
14
  3
ACAD_TABLESTYLE
350
15
  3
ACAD_VISUALSTYLE
350
16
  3
EZDXF_META
350
2D
  0
DICTIONARY
  5
B
330
A
100
AcDbDictionary
281
1
  0
DICTIONARY
  5
C
330
A
100
AcDbDictionary
281
1
  0
DICTIONARY
  5
D
330
A
100
AcDbDictionary
281
1
  3
Model
350
1A
  3
Layout1
350
1E
  0
DICTIONARY
  5
E
330
A
100
AcDbDictionary
281
1
  3
ByBlock
350
1F
  3
ByLayer
350
20
  3
Global
350
21
  0
DICTIONARY
  5
F
330
A
100
AcDbDictionary
281
1
  3
Standard
350
2C
  0
DICTIONARY
  5
10
330
A
100
AcDbDictionary
281
1
  3
Standard
350
22
  0
DICTIONARY
  5
11
330
A
100
AcDbDictionary
281
1
  0
ACDBDICTIONARYWDFLT
  5
12
330
A
100
AcDbDictionary
281
1
  3
Normal
350
13
100
AcDbDictionaryWithDefault
340
13
  0
ACDBPLACEHOLDER
  5
13
330
12
  0
DICTIONARY
  5
14
330
A
100
AcDbDictionary
281
1
  0
DICTIONARY
  5
15
330
A
100
AcDbDictionary
281
1
  0
DICTIONARY
  5
16
330
A
100
AcDbDictionary
281
1
  0
LAYOUT
  5
1A
330
D
100
AcDbPlotSettings
  1

  4
A3
  6

 40
7.5
 41
20.0
 42
7.5
 43
20.0
 44
420.0
 45
297.0
 46
0.0
 47
0.0
 48
0.0
 49
0.0
140
0.0
141
0.0
142
1.0
143
1.0
 70
1024
 72
1
 73
0
 74
5
  7

 75
16
 76
0
 77
2
 78
300
147
1.0
148
0.0
149
0.0
100
AcDbLayout
  1
Model
 70
1
 71
0
 10
0.0
 20
0.0
 11
420.0
 21
297.0
 12
0.0
 22
0.0
 32
0.0
 14
1e+20
 24
1e+20
 34
1e+20
 15
-1e+20
 25
-1e+20
 35
-1e+20
146
0.0
 13
0.0
 23
0.0
 33
0.0
 16
1.0
 26
0.0
 36
0.0
 17
0.0
 27
1.0
 37
0.0
 76
1
330
17
  0
LAYOUT
  5
1E
330
D
100
AcDbPlotSettings
  1

  4
A3
  6

 40
7.5
 41
20.0
 42
7.5
 43
20.0
 44
420.0
 45
297.0
 46
0.0
 47
0.0
 48
0.0
 49
0.0
140
0.0
141
0.0
142
1.0
143
1.0
 70
0
 72
1
 73
0
 74
5
  7

 75
16
 76
0
 77
2
 78
300
147
1.0
148
0.0
149
0.0
100
AcDbLayout
  1
Layout1
 70
1
 71
1
 10
0.0
 20
0.0
 11
420.0
 21
297.0
 12
0.0
 22
0.0
 32
0.0
 14
1e+20
 24
1e+20
 34
1e+20
 15
-1e+20
 25
-1e+20
 35
-1e+20
146
0.0
 13
0.0
 23
0.0
 33
0.0
 16
1.0
 26
0.0
 36
0.0
 17
0.0
 27
1.0
 37
0.0
 76
1
330
1B
  0
MATERIAL
  5
1F
102
{ACAD_REACTORS
330
E
102
}
330
E
100
AcDbMaterial
  1
ByBlock
  2

 70
0
 40
1.0
 71
1
 41
1.0
 91
-1023410177
 42
1.0
 72
1
  3

 73
1
 74
1
 75
1
 44
0.5
 73
0
 45
1.0
 46
1.0
 77
1
  4

 78
1
 79
1
170
1
 48
1.0
171
1
  6

172
1
173
1
174
1
140
1.0
141
1.0
175
1
  7

176
1
177
1
178
1
143
1.0
179
1
  8

270
1
271
1
272
1
145
1.0
146
1.0
273
1
  9

274
1
275
1
276
1
 42
1.0
 72
1
  3

 73
1
 74
1
 75
1
 94
63
  0
MATERIAL
  5
20
102
{ACAD_REACTORS
330
E
102
}
330
E
100
AcDbMaterial
  1
ByLayer
  2

 70
0
 40
1.0
 71
1
 41
1.0
 91
-1023410177
 42
1.0
 72
1
  3

 73
1
 74
1
 75
1
 44
0.5
 73
0
 45
1.0
 46
1.0
 77
1
  4

 78
1
 79
1
170
1
 48
1.0
171
1
  6

172
1
173
1
174
1
140
1.0
141
1.0
175
1
  7

176
1
177
1
178
1
143
1.0
179
1
  8

270
1
271
1
272
1
145
1.0
146
1.0
273
1
  9

274
1
275
1
276
1
 42
1.0
 72
1
  3

 73
1
 74
1
 75
1
 94
63
  0
MATERIAL
  5
21
102
{ACAD_REACTORS
330
E
102
}
330
E
100
AcDbMaterial
  1
Global
  2

 70
0
 40
1.0
 71
1
 41
1.0
 91
-1023410177
 42
1.0
 72
1
  3

 73
1
 74
1
 75
1
 44
0.5
 73
0
 45
1.0
 46
1.0
 77
1
  4

 78
1
 79
1
170
1
 48
1.0
171
1
  6

172
1
173
1
174
1
140
1.0
141
1.0
175
1
  7

176
1
177
1
178
1
143
1.0
179
1
  8

270
1
271
1
272
1
145
1.0
146
1.0
273
1
  9

274
1
275
1
276
1
 42
1.0
 72
1
  3

 73
1
 74
1
 75
1
 94
63
  0
MLINESTYLE
  5
22
102
{ACAD_REACTORS
330
10
102
}
330
10
100
AcDbMlineStyle
  2
Standard
 70
0
  3

 62
256
 51
90.0
 52
90.0
 71
2
 49
0.5
 62
256
  6
BYLAYER
 49
-0.5
 62
256
  6
BYLAYER
  0
MLEADERSTYLE
  5
2C
102
{ACAD_REACTORS
330
F
102
}
330
F
100
AcDbMLeaderStyle
179
2
170
2
171
1
172
0
 90
2
 40
0.0
 41
0.0
173
1
 91
-1056964608
 92
-2
290
1
 42
2.0
291
1
 43
8.0
  3
Standard
 44
4.0
300

342
29
174
1
175
1
176
0
178
1
 93
-1056964608
 45
4.0
292
0
297
0
 46
4.0
 94
-1056964608
 47
1.0
 49
1.0
140
1.0
294
1
141
0.0
177
0
142
1.0
295
0
296
0
143
3.75
271
0
272
9
273
9
  0
DICTIONARY
  5
2D
330
A
100
AcDbDictionary
280
1
281
1
  3
CREATED_BY_EZDXF
350
2E
  3
WRITTEN_BY_EZDXF
350
C5
  0
DICTIONARYVAR
  5
2E
330
2D
100
DictionaryVariables
280
0
  1
1.4.3 @ 2026-06-10T16:53:24.540049+00:00
  0
DICTIONARYVAR
  5
C5
330
2D
100
DictionaryVariables
280
0
  1
1.4.3 @ 2026-06-10T16:53:24.546291+00:00
  0
ENDSEC
  0
EOF
