  0
SECTION
  2
HEADER
  9
$ACADVER
  1
AC1024
  9
$ACADMAINTVER
 70
6
  9
$DWGCODEPAGE
  3
ANSI_1252
  9
$LASTSAVEDBY
  1
ezdxf
  9
$INSBASE
 10
0.0
 20
0.0
 30
0.0
  9
$EXTMIN
 10
1e+20
 20
1e+20
 30
1e+20
  9
$EXTMAX
 10
-1e+20
 20
-1e+20
 30
-1e+20
  9
$LIMMIN
 10
0.0
 20
0.0
  9
$LIMMAX
 10
420.0
 20
297.0
  9
$ORTHOMODE
 70
0
  9
$REGENMODE
 70
1
  9
$FILLMODE
 70
1
  9
$QTEXTMODE
 70
0
  9
$MIRRTEXT
 70
1
  9
$LTSCALE
 40
1.0
  9
$ATTMODE
 70
1
  9
$TEXTSIZE
 40
2.5
  9
$TRACEWID
 40
1.0
  9
$TEXTSTYLE
  7
Standard
  9
$CLAYER
  8
0
  9
$CELTYPE
  6
ByLayer
  9
$CECOLOR
 62
256
  9
$CELTSCALE
 40
1.0
  9
$DISPSILH
 70
0
  9
$DIMSCALE
 40
1.0
  9
$DIMASZ
 40
2.5
  9
$DIMEXO
 40
0.625
  9
$DIMDLI
 40
3.75
  9
$DIMRND
 40
0.0
  9
$DIMDLE
 40
0.0
  9
$DIMEXE
 40
1.25
  9
$DIMTP
 40
0.0
  9
$DIMTM
 40
0.0
  9
$DIMTXT
 40
2.5
  9
$DIMCEN
 40
2.5
  9
$DIMTSZ
 40
0.0
  9
$DIMTOL
 70
0
  9
$DIMLIM
 70
0
  9
$DIMTIH
 70
0
  9
$DIMTOH
 70
0
  9
$DIMSE1
 70
0
  9
$DIMSE2
 70
0
  9
$DIMTAD
 70
1
  9
$DIMZIN
 70
8
  9
$DIMBLK
  1

  9
$DIMASO
 70
1
  9
$DIMSHO
 70
1
  9
$DIMPOST
  1

  9
$DIMAPOST
  1

  9
$DIMALT
 70
0
  9
$DIMALTD
 70
3
  9
$DIMALTF
 40
0.03937007874
  9
$DIMLFAC
 40
1.0
  9
$DIMTOFL
 70
1
  9
$DIMTVP
 40
0.0
  9
$DIMTIX
 70
0
  9
$DIMSOXD
 70
0
  9
$DIMSAH
 70
0
  9
$DIMBLK1
  1

  9
$DIMBLK2
  1

  9
$DIMSTYLE
  2
ISO-25
  9
$DIMCLRD
 70
0
  9
$DIMCLRE
 70
0
  9
$DIMCLRT
 70
0
  9
$DIMTFAC
 40
1.0
  9
$DIMGAP
 40
0.625
  9
$DIMJUST
 70
0
  9
$DIMSD1
 70
0
  9
$DIMSD2
 70
0
  9
$DIMTOLJ
 70
0
  9
$DIMTZIN
 70
8
  9
$DIMALTZ
 70
0
  9
$DIMALTTZ
 70
0
  9
$DIMUPT
 70
0
  9
$DIMDEC
 70
2
  9
$DIMTDEC
 70
2
  9
$DIMALTU
 70
2
  9
$DIMALTTD
 70
3
  9
$DIMTXSTY
  7
Standard
  9
$DIMAUNIT
 70
0
  9
$DIMADEC
 70
0
  9
$DIMALTRND
 40
0.0
  9
$DIMAZIN
 70
0
  9
$DIMDSEP
 70
44
  9
$DIMATFIT
 70
3
  9
$DIMFRAC
 70
0
  9
$DIMLDRBLK
  1

  9
$DIMLUNIT
 70
2
  9
$DIMLWD
 70
-2
  9
$DIMLWE
 70
-2
  9
$DIMTMOVE
 70
0
  9
$DIMFXL
 40
1.0
  9
$DIMFXLON
 70
0
  9
$DIMJOGANG
 40
0.785398163397
  9
$DIMTFILL
 70
0
  9
$DIMTFILLCLR
 70
0
  9
$DIMARCSYM
 70
0
  9
$DIMLTYPE
  6

  9
$DIMLTEX1
  6

  9
$DIMLTEX2
  6

  9
$DIMTXTDIRECTION
 70
0
  9
$LUNITS
 70
2
  9
$LUPREC
 70
4
  9
$SKETCHINC
 40
1.0
  9
$FILLETRAD
 40
10.0
  9
$AUNITS
 70
0
  9
$AUPREC
 70
2
  9
$MENU
  1
.
  9
$ELEVATION
 40
0.0
  9
$PELEVATION
 40
0.0
  9
$THICKNESS
 40
0.0
  9
$LIMCHECK
 70
0
  9
$CHAMFERA
 40
0.0
  9
$CHAMFERB
 40
0.0
  9
$CHAMFERC
 40
0.0
  9
$CHAMFERD
 40
0.0
  9
$SKPOLY
 70
0
  9
$TDCREATE
 40
2461202.612604167
  9
$TDUCREATE
 40
2458532.153996898
  9
$TDUPDATE
 40
2461202.612604167
  9
$TDUUPDATE
 40
2458532.1544311
  9
$TDINDWG
 40
0.0
  9
$TDUSRTIMER
 40
0.0
  9
$USRTIMER
 70
1
  9
$ANGBASE
 50
0.0
  9
$ANGDIR
 70
0
  9
$PDMODE
 70
0
  9
$PDSIZE
 40
0.0
  9
$PLINEWID
 40
0.0
  9
$SPLFRAME
 70
0
  9
$SPLINETYPE
 70
6
  9
$SPLINESEGS
 70
8
  9
$HANDSEED
  5
1AD
  9
$SURFTAB1
 70
6
  9
$SURFTAB2
 70
6
  9
$SURFTYPE
 70
6
  9
$SURFU
 70
6
  9
$SURFV
 70
6
  9
$UCSBASE
  2

  9
$UCSNAME
  2

  9
$UCSORG
 10
0.0
 20
0.0
 30
0.0
  9
$UCSXDIR
 10
1.0
 20
0.0
 30
0.0
  9
$UCSYDIR
 10
0.0
 20
1.0
 30
0.0
  9
$UCSORTHOREF
  2

  9
$UCSORTHOVIEW
 70
0
  9
$UCSORGTOP
 10
0.0
 20
0.0
 30
0.0
  9
$UCSORGBOTTOM
 10
0.0
 20
0.0
 30
0.0
  9
$UCSORGLEFT
 10
0.0
 20
0.0
 30
0.0
  9
$UCSORGRIGHT
 10
0.0
 20
0.0
 30
0.0
  9
$UCSORGFRONT
 10
0.0
 20
0.0
 30
0.0
  9
$UCSORGBACK
 10
0.0
 20
0.0
 30
0.0
  9
$PUCSBASE
  2

  9
$PUCSNAME
  2

  9
$PUCSORG
 10
0.0
 20
0.0
 30
0.0
  9
$PUCSXDIR
 10
1.0
 20
0.0
 30
0.0
  9
$PUCSYDIR
 10
0.0
 20
1.0
 30
0.0
  9
$PUCSORTHOREF
  2

  9
$PUCSORTHOVIEW
 70
0
  9
$PUCSORGTOP
 10
0.0
 20
0.0
 30
0.0
  9
$PUCSORGBOTTOM
 10
0.0
 20
0.0
 30
0.0
  9
$PUCSORGLEFT
 10
0.0
 20
0.0
 30
0.0
  9
$PUCSORGRIGHT
 10
0.0
 20
0.0
 30
0.0
  9
$PUCSORGFRONT
 10
0.0
 20
0.0
 30
0.0
  9
$PUCSORGBACK
 10
0.0
 20
0.0
 30
0.0
  9
$USERI1
 70
0
  9
$USERI2
 70
0
  9
$USERI3
 70
0
  9
$USERI4
 70
0
  9
$USERI5
 70
0
  9
$USERR1
 40
0.0
  9
$USERR2
 40
0.0
  9
$USERR3
 40
0.0
  9
$USERR4
 40
0.0
  9
$USERR5
 40
0.0
  9
$WORLDVIEW
 70
1
  9
$SHADEDGE
 70
3
  9
$SHADEDIF
 70
70
  9
$TILEMODE
 70
1
  9
$MAXACTVP
 70
64
  9
$PINSBASE
 10
0.0
 20
0.0
 30
0.0
  9
$PLIMCHECK
 70
0
  9
$PEXTMIN
 10
1e+20
 20
1e+20
 30
1e+20
  9
$PEXTMAX
 10
-1e+20
 20
-1e+20
 30
-1e+20
  9
$PLIMMIN
 10
0.0
 20
0.0
  9
$PLIMMAX
 10
420.0
 20
297.0
  9
$UNITMODE
 70
0
  9
$VISRETAIN
 70
1
  9
$PLINEGEN
 70
0
  9
$PSLTSCALE
 70
1
  9
$TREEDEPTH
 70
3020
  9
$CMLSTYLE
  2
Standard
  9
$CMLJUST
 70
0
  9
$CMLSCALE
 40
20.0
  9
$PROXYGRAPHICS
 70
1
  9
$MEASUREMENT
 70
1
  9
$CELWEIGHT
370
-1
  9
$ENDCAPS
280
0
  9
$JOINSTYLE
280
0
  9
$LWDISPLAY
290
0
  9
$INSUNITS
 70
6
  9
$HYPERLINKBASE
  1

  9
$STYLESHEET
  1

  9
$XEDIT
290
1
  9
$CEPSNTYPE
380
0
  9
$PSTYLEMODE
290
1
  9
$FINGERPRINTGUID
  2
{D6F6FD34-A58C-4FEB-A033-8F194FFBAE1A}
  9
$VERSIONGUID
  2
{5FF64032-7413-4F11-BD61-E453C254257A}
  9
$EXTNAMES
290
1
  9
$PSVPSCALE
 40
0.0
  9
$OLESTARTUP
290
0
  9
$SORTENTS
280
127
  9
$INDEXCTL
280
0
  9
$HIDETEXT
280
1
  9
$XCLIPFRAME
280
1
  9
$HALOGAP
280
0
  9
$OBSCOLOR
 70
257
  9
$OBSLTYPE
280
0
  9
$INTERSECTIONDISPLAY
280
0
  9
$INTERSECTIONCOLOR
 70
257
  9
$DIMASSOC
280
2
  9
$PROJECTNAME
  1

  9
$CAMERADISPLAY
290
0
  9
$LENSLENGTH
 40
50.0
  9
$CAMERAHEIGHT
 40
0.0
  9
$STEPSPERSEC
 40
24.0
  9
$STEPSIZE
 40
100.0
  9
$3DDWFPREC
 40
2.0
  9
$PSOLWIDTH
 40
0.005
  9
$PSOLHEIGHT
 40
0.08
  9
$LOFTANG1
 40
1.570796326795
  9
$LOFTANG2
 40
1.570796326795
  9
$LOFTMAG1
 40
0.0
  9
$LOFTMAG2
 40
0.0
  9
$LOFTPARAM
 70
7
  9
$LOFTNORMALS
280
1
  9
$LATITUDE
 40
37.795
  9
$LONGITUDE
 40
-122.394
  9
$NORTHDIRECTION
 40
0.0
  9
$TIMEZONE
 70
-8000
  9
$LIGHTGLYPHDISPLAY
280
1
  9
$TILEMODELIGHTSYNCH
280
1
  9
$CMATERIAL
347
20
  9
$SOLIDHIST
280
0
  9
$SHOWHIST
280
1
  9
$DWFFRAME
280
2
  9
$DGNFRAME
280
2
  9
$REALWORLDSCALE
290
1
  9
$INTERFERECOLOR
 62
256
  9
$CSHADOW
280
0
  9
$SHADOWPLANELOCATION
 40
0.0
  0
ENDSEC
  0
SECTION
  2
CLASSES
  0
CLASS
  1
ACDBDICTIONARYWDFLT
  2
AcDbDictionaryWithDefault
  3
ObjectDBX Classes
 90
0
 91
0
280
0
281
0
  0
CLASS
  1
SUN
  2
AcDbSun
  3
SCENEOE
 90
1153
 91
0
280
0
281
0
  0
CLASS
  1
VISUALSTYLE
  2
AcDbVisualStyle
  3
ObjectDBX Classes
 90
4095
 91
0
280
0
281
0
  0
CLASS
  1
MATERIAL
  2
AcDbMaterial
  3
ObjectDBX Classes
 90
1153
 91
0
280
0
281
0
  0
CLASS
  1
SCALE
  2
AcDbScale
  3
ObjectDBX Classes
 90
1153
 91
0
280
0
281
0
  0
CLASS
  1
TABLESTYLE
  2
AcDbTableStyle
  3
ObjectDBX Classes
 90
4095
 91
0
280
0
281
0
  0
CLASS
  1
MLEADERSTYLE
  2
AcDbMLeaderStyle
  3
ACDB_MLEADERSTYLE_CLASS
 90
4095
 91
0
280
0
281
0
  0
CLASS
  1
DICTIONARYVAR
  2
AcDbDictionaryVar
  3
ObjectDBX Classes
 90
0
 91
0
280
0
281
0
  0
CLASS
  1
CELLSTYLEMAP
  2
AcDbCellStyleMap
  3
ObjectDBX Classes
 90
1152
 91
0
280
0
281
0
  0
CLASS
  1
MENTALRAYRENDERSETTINGS
  2
AcDbMentalRayRenderSettings
  3
SCENEOE
 90
1024
 91
0
280
0
281
0
  0
CLASS
  1
ACDBDETAILVIEWSTYLE
  2
AcDbDetailViewStyle
  3
ObjectDBX Classes
 90
1025
 91
0
280
0
281
0
  0
CLASS
  1
ACDBSECTIONVIEWSTYLE
  2
AcDbSectionViewStyle
  3
ObjectDBX Classes
 90
1025
 91
0
280
0
281
0
  0
CLASS
  1
RASTERVARIABLES
  2
AcDbRasterVariables
  3
ISM
 90
0
 91
0
280
0
281
0
  0
CLASS
  1
ACDBPLACEHOLDER
  2
AcDbPlaceHolder
  3
ObjectDBX Classes
 90
0
 91
0
280
0
281
0
  0
CLASS
  1
LAYOUT
  2
AcDbLayout
  3
ObjectDBX Classes
 90
0
 91
0
280
0
281
0
  0
ENDSEC
  0
SECTION
  2
TABLES
  0
TABLE
  2
VPORT
  5
8
330
0
100
AcDbSymbolTable
 70
1
  0
VPORT
  5
23
330
8
100
AcDbSymbolTableRecord
100
AcDbViewportTableRecord
  2
*Active
 70
0
 10
0.0
 20
0.0
 11
1.0
 21
1.0
 12
0.0
 22
0.0
 13
0.0
 23
0.0
 14
0.5
 24
0.5
 15
0.5
 25
0.5
 16
0.0
 26
0.0
 36
1.0
 17
0.0
 27
0.0
 37
0.0
 40
1000.0
 41
1.34
 42
50.0
 43
0.0
 44
0.0
 50
0.0
 51
0.0
 71
0
 72
1000
 73
1
 74
3
 75
0
 76
0
 77
0
 78
0
281
0
 65
0
146
0.0
  0
ENDTAB
  0
TABLE
  2
LTYPE
  5
2
330
0
100
AcDbSymbolTable
 70
3
  0
LTYPE
  5
24
330
2
100
AcDbSymbolTableRecord
100
AcDbLinetypeTableRecord
  2
ByBlock
 70
0
  3

 72
65
 73
0
 40
0.0
  0
LTYPE
  5
25
330
2
100
AcDbSymbolTableRecord
100
AcDbLinetypeTableRecord
  2
ByLayer
 70
0
  3

 72
65
 73
0
 40
0.0
  0
LTYPE
  5
26
330
2
100
AcDbSymbolTableRecord
100
AcDbLinetypeTableRecord
  2
Continuous
 70
0
  3

 72
65
 73
0
 40
0.0
  0
ENDTAB
  0
TABLE
  2
LAYER
  5
1
330
0
100
AcDbSymbolTable
 70
14
  0
LAYER
  5
27
330
1
100
AcDbSymbolTableRecord
100
AcDbLayerTableRecord
  2
0
 70
0
 62
7
  6
Continuous
370
-3
390
13
347
21
  0
LAYER
  5
28
330
1
100
AcDbSymbolTableRecord
100
AcDbLayerTableRecord
  2
Defpoints
 70
0
 62
7
  6
Continuous
290
0
370
-3
390
13
347
21
  0
LAYER
  5
2F
330
1
100
AcDbSymbolTableRecord
100
AcDbLayerTableRecord
  2
detalhes
 70
0
 62
7
  6
Continuous
370
-3
390
13
347
21
  0
LAYER
  5
30
330
1
100
AcDbSymbolTableRecord
100
AcDbLayerTableRecord
  2
Hachura
 70
0
 62
7
  6
Continuous
370
-3
390
13
347
21
  0
LAYER
  5
31
330
1
100
AcDbSymbolTableRecord
100
AcDbLayerTableRecord
  2
COTA
 70
0
 62
7
  6
Continuous
370
-3
390
13
347
21
  0
LAYER
  5
32
330
1
100
AcDbSymbolTableRecord
100
AcDbLayerTableRecord
  2
SARR_3.5x7
 70
0
 62
7
  6
Continuous
370
-3
390
13
347
21
  0
LAYER
  5
33
330
1
100
AcDbSymbolTableRecord
100
AcDbLayerTableRecord
  2
CONCRETO
 70
0
 62
7
  6
Continuous
370
-3
390
13
347
21
  0
LAYER
  5
34
330
1
100
AcDbSymbolTableRecord
100
AcDbLayerTableRecord
  2
Madeira
 70
0
 62
7
  6
Continuous
370
-3
390
13
347
21
  0
LAYER
  5
35
330
1
100
AcDbSymbolTableRecord
100
AcDbLayerTableRecord
  2
Cota Seção (2x)
 70
0
 62
7
  6
Continuous
370
-3
390
13
347
21
  0
LAYER
  5
36
330
1
100
AcDbSymbolTableRecord
100
AcDbLayerTableRecord
  2
Painéis
 70
0
 62
7
  6
Continuous
370
-3
390
13
347
21
  0
LAYER
  5
37
330
1
100
AcDbSymbolTableRecord
100
AcDbLayerTableRecord
  2
REAPROVEITAMENTO
 70
0
 62
7
  6
Continuous
370
-3
390
13
347
21
  0
LAYER
  5
38
330
1
100
AcDbSymbolTableRecord
100
AcDbLayerTableRecord
  2
Texto Seção
 70
0
 62
7
  6
Continuous
370
-3
390
13
347
21
  0
LAYER
  5
39
330
1
100
AcDbSymbolTableRecord
100
AcDbLayerTableRecord
  2
SARR_2.2x7
 70
0
 62
7
  6
Continuous
370
-3
390
13
347
21
  0
LAYER
  5
3A
330
1
100
AcDbSymbolTableRecord
100
AcDbLayerTableRecord
  2
5
 70
0
 62
7
  6
Continuous
370
-3
390
13
347
21
  0
ENDTAB
  0
TABLE
  2
STYLE
  5
5
330
0
100
AcDbSymbolTable
 70
1
  0
STYLE
  5
29
330
5
100
AcDbSymbolTableRecord
100
AcDbTextStyleTableRecord
  2
Standard
 70
0
 40
0.0
 41
1.0
 50
0.0
 71
0
 42
2.5
  3
txt
  4

  0
ENDTAB
  0
TABLE
  2
VIEW
  5
7
330
0
100
AcDbSymbolTable
 70
0
  0
ENDTAB
  0
TABLE
  2
UCS
  5
6
330
0
100
AcDbSymbolTable
 70
0
  0
ENDTAB
  0
TABLE
  2
APPID
  5
3
330
0
100
AcDbSymbolTable
 70
3
  0
APPID
  5
2A
330
3
100
AcDbSymbolTableRecord
100
AcDbRegAppTableRecord
  2
ACAD
 70
0
  0
APPID
  5
1AA
330
3
100
AcDbSymbolTableRecord
100
AcDbRegAppTableRecord
  2
HATCHBACKGROUNDCOLOR
 70
0
  0
APPID
  5
1AB
330
3
100
AcDbSymbolTableRecord
100
AcDbRegAppTableRecord
  2
EZDXF
 70
0
  0
ENDTAB
  0
TABLE
  2
DIMSTYLE
  5
4
330
0
100
AcDbSymbolTable
 70
1
100
AcDbDimStyleTable
  0
DIMSTYLE
105
2B
330
4
100
AcDbSymbolTableRecord
100
AcDbDimStyleTableRecord
  2
Standard
 70
0
 40
1.0
 41
2.5
 42
0.625
 43
3.75
 44
1.25
 45
0.0
 46
0.0
 47
0.0
 48
0.0
 49
2.5
140
2.5
141
2.5
142
0.0
143
0.03937007874
144
1.0
145
0.0
146
1.0
147
0.625
148
0.0
 69
0
 70
0
 71
0
 72
0
 73
0
 74
0
 75
0
 76
0
 77
1
 78
8
 79
3
170
0
171
3
172
1
173
0
174
0
175
0
176
0
177
0
178
0
179
2
271
2
272
2
273
2
274
3
275
0
276
0
277
2
278
44
279
0
280
0
281
0
282
0
283
0
284
8
285
0
286
0
288
0
289
3
290
0
371
-2
372
-2
  0
ENDTAB
  0
TABLE
  2
BLOCK_RECORD
  5
9
330
0
100
AcDbSymbolTable
 70
2
  0
BLOCK_RECORD
  5
17
330
9
100
AcDbSymbolTableRecord
100
AcDbBlockTableRecord
  2
*Model_Space
340
1A
 70
0
280
1
281
0
  0
BLOCK_RECORD
  5
1B
330
9
100
AcDbSymbolTableRecord
100
AcDbBlockTableRecord
  2
*Paper_Space
340
1E
 70
0
280
1
281
0
  0
ENDTAB
  0
ENDSEC
  0
SECTION
  2
BLOCKS
  0
BLOCK
  5
18
330
17
100
AcDbEntity
  8
0
100
AcDbBlockBegin
  2
*Model_Space
 70
0
 10
0.0
 20
0.0
 30
0.0
  3
*Model_Space
  1

  0
ENDBLK
  5
19
330
17
100
AcDbEntity
  8
0
100
AcDbBlockEnd
  0
BLOCK
  5
1C
330
1B
100
AcDbEntity
  8
0
100
AcDbBlockBegin
  2
*Paper_Space
 70
0
 10
0.0
 20
0.0
 30
0.0
  3
*Paper_Space
  1

  0
ENDBLK
  5
1D
330
1B
100
AcDbEntity
  8
0
100
AcDbBlockEnd
  0
ENDSEC
  0
SECTION
  2
ENTITIES
  0
LINE
  5
3B
330
17
100
AcDbEntity
  8
Painéis
 62
200
370
25
100
AcDbLine
 10
2799.408311030251
 20
4294.62781144097
 30
0.0
 11
2920.408311030258
 21
4294.627811440991
 31
0.0
  0
LINE
  5
3C
330
17
100
AcDbEntity
  8
Painéis
 62
200
370
25
100
AcDbLine
 10
2884.894402533997
 20
4521.724898717055
 30
0.0
 11
2200.394402533993
 21
4521.724898717055
 31
0.0
  0
LINE
  5
3D
330
17
100
AcDbEntity
  8
Painéis
 62
200
370
25
100
AcDbLine
 10
2884.894402533993
 20
4462.724898717055
 30
0.0
 11
2200.394402533993
 21
4462.724898717055
 31
0.0
  0
LINE
  5
3E
330
17
100
AcDbEntity
  8
Painéis
 62
200
370
25
100
AcDbLine
 10
2688.394402533993
 20
4462.724898717069
 30
0.0
 11
2688.394402533993
 21
4521.72489871707
 31
0.0
  0
LINE
  5
3F
330
17
100
AcDbEntity
  8
Painéis
 62
200
370
25
100
AcDbLine
 10
2200.394402533993
 20
4462.724898717055
 30
0.0
 11
2200.394402533993
 21
4521.724898717055
 31
0.0
  0
LINE
  5
40
330
17
100
AcDbEntity
  8
Painéis
 62
200
370
25
100
AcDbLine
 10
2884.894402533993
 20
4462.724898717055
 30
0.0
 11
2884.894402533993
 21
4521.724898717055
 31
0.0
  0
LINE
  5
41
330
17
100
AcDbEntity
  8
Painéis
 62
200
370
25
100
AcDbLine
 10
2444.394402533994
 20
4462.724898717069
 30
0.0
 11
2444.394402533994
 21
4521.72489871707
 31
0.0
  0
LINE
  5
42
330
17
100
AcDbEntity
  8
Painéis
 62
200
370
25
100
AcDbLine
 10
2326.408311030265
 20
4308.627811440994
 30
0.0
 11
2202.408311030266
 21
4308.627811440994
 31
0.0
  0
LINE
  5
43
330
17
100
AcDbEntity
  8
Painéis
 62
200
370
25
100
AcDbLine
 10
2348.408311030258
 20
4249.627811440994
 30
0.0
 11
2202.408311030258
 21
4249.627811440994
 31
0.0
  0
LINE
  5
44
330
17
100
AcDbEntity
  8
Painéis
 62
200
370
25
100
AcDbLine
 10
2202.408311030258
 20
4249.627811441008
 30
0.0
 11
2202.408311030266
 21
4308.627811441009
 31
0.0
  0
LINE
  5
45
330
17
100
AcDbEntity
  8
Painéis
 62
200
370
25
100
AcDbLine
 10
2772.408311030258
 20
4249.627811440965
 30
0.0
 11
2920.408311030258
 21
4249.62781144099
 31
0.0
  0
LINE
  5
46
330
17
100
AcDbEntity
  8
Painéis
 62
200
370
25
100
AcDbLine
 10
2920.408311030258
 20
4249.62781144099
 30
0.0
 11
2920.408311030258
 21
4294.627811440991
 31
0.0
  0
LINE
  5
47
330
17
100
AcDbEntity
  8
Painéis
 62
200
370
25
100
AcDbLine
 10
2772.408311030258
 20
4249.627811440965
 30
0.0
 11
2772.408311030258
 21
4254.627811440967
 31
0.0
  0
LINE
  5
48
330
17
100
AcDbEntity
  8
COTA
 62
241
370
25
100
AcDbLine
 10
2772.408311030254
 20
4308.627811440965
 30
0.0
 11
2920.408311030254
 21
4308.627811440965
 31
0.0
  0
LINE
  5
49
330
17
100
AcDbEntity
  8
COTA
 62
241
370
25
100
AcDbLine
 10
2920.408311030254
 20
4308.627811440965
 30
0.0
 11
2920.408311030258
 21
4294.627811440991
 31
0.0
  0
LINE
  5
4A
330
17
100
AcDbEntity
  8
SARR_2.2x7
 62
40
370
25
100
AcDbLine
 10
2877.894402533994
 20
4462.724331671737
 30
0.0
 11
2877.894402533994
 21
4521.724898717055
 31
0.0
  0
LINE
  5
4B
330
17
100
AcDbEntity
  8
Painéis
 62
200
370
25
100
AcDbLine
 10
2348.408311030254
 20
4308.627811440993
 30
0.0
 11
2772.408311030258
 21
4308.627811441017
 31
0.0
  0
LINE
  5
4C
330
17
100
AcDbEntity
  8
Painéis
 62
200
370
25
100
AcDbLine
 10
2348.408311030258
 20
4249.627811440992
 30
0.0
 11
2772.408311030258
 21
4249.627811441018
 31
0.0
  0
LINE
  5
4D
330
17
100
AcDbEntity
  8
Painéis
 62
200
370
25
100
AcDbLine
 10
2592.408311030258
 20
4249.627811441007
 30
0.0
 11
2592.408311030258
 21
4308.627811441007
 31
0.0
  0
LINE
  5
4E
330
17
100
AcDbEntity
  8
Painéis
 62
200
370
25
100
AcDbLine
 10
2772.408311030258
 20
4249.627811441018
 30
0.0
 11
2772.408311030258
 21
4308.627811441017
 31
0.0
  0
LINE
  5
4F
330
17
100
AcDbEntity
  8
Painéis
 62
200
370
25
100
AcDbLine
 10
2348.408311030258
 20
4249.627811440992
 30
0.0
 11
2348.408311030258
 21
4308.627811440993
 31
0.0
  0
LINE
  5
50
330
17
100
AcDbEntity
  8
Painéis
 62
200
370
25
100
AcDbLine
 10
2326.408311030265
 20
4308.627811440994
 30
0.0
 11
2326.408311030265
 21
4254.627811440994
 31
0.0
  0
LINE
  5
51
330
17
100
AcDbEntity
  8
Painéis
 62
200
370
25
100
AcDbLine
 10
2326.408311030265
 20
4254.627811440994
 30
0.0
 11
2348.408311030258
 21
4254.627811440992
 31
0.0
  0
LINE
  5
52
330
17
100
AcDbEntity
  8
COTA
 62
241
370
25
100
AcDbLine
 10
2326.408311030265
 20
4308.627811440994
 30
0.0
 11
2348.408311030266
 21
4308.627811440994
 31
0.0
  0
LINE
  5
53
330
17
100
AcDbEntity
  8
Painéis
 62
200
370
25
100
AcDbLine
 10
2772.408311030258
 20
4254.627811440965
 30
0.0
 11
2799.408311030259
 21
4254.627811440965
 31
0.0
  0
LINE
  5
54
330
17
100
AcDbEntity
  8
Painéis
 62
200
370
25
100
AcDbLine
 10
2799.408311030259
 20
4254.627811440965
 30
0.0
 11
2799.408311030251
 21
4294.62781144097
 31
0.0
  0
LINE
  5
55
330
17
100
AcDbEntity
  8
SARR_2.2x7
 62
40
370
25
100
AcDbLine
 10
2200.394402533993
 20
4514.724898717147
 30
0.0
 11
2444.394402533997
 21
4514.724898717166
 31
0.0
  0
LINE
  5
56
330
17
100
AcDbEntity
  8
SARR_2.2x7
 62
40
370
25
100
AcDbLine
 10
2444.394402533997
 20
4514.724898717164
 30
0.0
 11
2688.394402533997
 21
4514.72489871696
 31
0.0
  0
LINE
  5
57
330
17
100
AcDbEntity
  8
SARR_2.2x7
 62
40
370
25
100
AcDbLine
 10
2225.394402533993
 20
4469.724898716983
 30
0.0
 11
2444.394402533997
 21
4469.724898716965
 31
0.0
  0
LINE
  5
58
330
17
100
AcDbEntity
  8
SARR_2.2x7
 62
40
370
25
100
AcDbLine
 10
2539.394402533993
 20
4469.72489871696
 30
0.0
 11
2688.394402533993
 21
4469.724898716951
 31
0.0
  0
LINE
  5
59
330
17
100
AcDbEntity
  8
SARR_2.2x7
 62
40
370
25
100
AcDbLine
 10
2539.394402533993
 20
4488.724898717142
 30
0.0
 11
2688.394402533997
 21
4488.724898717015
 31
0.0
  0
LINE
  5
5A
330
17
100
AcDbEntity
  8
SARR_2.2x7
 62
40
370
25
100
AcDbLine
 10
2539.394402533993
 20
4495.724898716996
 30
0.0
 11
2688.394402533997
 21
4495.724898717123
 31
0.0
  0
LINE
  5
5B
330
17
100
AcDbEntity
  8
SARR_2.2x7
 62
40
370
25
100
AcDbLine
 10
2225.394402533993
 20
4488.724898717204
 30
0.0
 11
2444.394402533975
 21
4488.724898717221
 31
0.0
  0
LINE
  5
5C
330
17
100
AcDbEntity
  8
SARR_2.2x7
 62
40
370
25
100
AcDbLine
 10
2225.394402533993
 20
4495.7248987169
 30
0.0
 11
2444.394402534001
 21
4495.724898716918
 31
0.0
  0
LINE
  5
5D
330
17
100
AcDbEntity
  8
SARR_2.2x7
 62
40
370
25
100
AcDbLine
 10
2688.394402533997
 20
4514.724898717166
 30
0.0
 11
2884.894402533993
 21
4514.724898717001
 31
0.0
  0
LINE
  5
5E
330
17
100
AcDbEntity
  8
SARR_2.2x7
 62
40
370
25
100
AcDbLine
 10
2688.394402533997
 20
4469.724898716965
 30
0.0
 11
2798.894402533993
 21
4469.724898716959
 31
0.0
  0
LINE
  5
5F
330
17
100
AcDbEntity
  8
SARR_2.2x7
 62
40
370
25
100
AcDbLine
 10
2688.394402534001
 20
4488.724898717221
 30
0.0
 11
2798.894402533993
 21
4488.724898717126
 31
0.0
  0
LINE
  5
60
330
17
100
AcDbEntity
  8
SARR_2.2x7
 62
40
370
25
100
AcDbLine
 10
2688.394402534001
 20
4495.724898716918
 30
0.0
 11
2798.894402533993
 21
4495.724898717012
 31
0.0
  0
LINE
  5
61
330
17
100
AcDbEntity
  8
SARR_2.2x7
 62
40
370
25
100
AcDbLine
 10
2254.408311030258
 20
4249.627811440999
 30
0.0
 11
2254.408311030258
 21
4256.627811440932
 31
0.0
  0
LINE
  5
62
330
17
100
AcDbEntity
  8
SARR_2.2x7
 62
40
370
25
100
AcDbLine
 10
2254.408311030258
 20
4275.627811441161
 30
0.0
 11
2254.408311030258
 21
4282.627811440861
 31
0.0
  0
LINE
  5
63
330
17
100
AcDbEntity
  8
SARR_2.2x7
 62
40
370
25
100
AcDbLine
 10
2355.363170271072
 20
4301.627811441085
 30
0.0
 11
2592.408311030258
 21
4301.627811441103
 31
0.0
  0
LINE
  5
64
330
17
100
AcDbEntity
  8
SARR_2.2x7
 62
40
370
25
100
AcDbLine
 10
2355.363170271076
 20
4249.627811440989
 30
0.0
 11
2355.363170271068
 21
4308.627811440993
 31
0.0
  0
LINE
  5
65
330
17
100
AcDbEntity
  8
SARR_2.2x7
 62
40
370
25
100
AcDbLine
 10
2355.363170271072
 20
4256.627811440921
 30
0.0
 11
2514.408311030258
 21
4256.627811440909
 31
0.0
  0
LINE
  5
66
330
17
100
AcDbEntity
  8
SARR_2.2x7
 62
40
370
25
100
AcDbLine
 10
2355.363170271047
 20
4275.62781144114
 30
0.0
 11
2514.408311030258
 21
4275.627811441151
 31
0.0
  0
LINE
  5
67
330
17
100
AcDbEntity
  8
SARR_2.2x7
 62
40
370
25
100
AcDbLine
 10
2355.363170271072
 20
4282.627811440838
 30
0.0
 11
2514.408311030258
 21
4282.627811440849
 31
0.0
  0
LINE
  5
68
330
17
100
AcDbEntity
  8
SARR_2.2x7
 62
40
370
25
100
AcDbLine
 10
2806.363170271069
 20
4287.627811441063
 30
0.0
 11
2920.408311030258
 21
4287.627811441074
 31
0.0
  0
LINE
  5
69
330
17
100
AcDbEntity
  8
SARR_2.2x7
 62
40
370
25
100
AcDbLine
 10
2806.363170271069
 20
4256.627811440903
 30
0.0
 11
2806.363170271069
 21
4294.62781144097
 31
0.0
  0
LINE
  5
6A
330
17
100
AcDbEntity
  8
SARR_2.2x7
 62
40
370
25
100
AcDbLine
 10
2799.408311030259
 20
4256.627811440905
 30
0.0
 11
2824.408311030254
 21
4256.627811440902
 31
0.0
  0
LINE
  5
6B
330
17
100
AcDbEntity
  8
SARR_2.2x7
 62
40
370
25
100
AcDbLine
 10
2319.453451789448
 20
4301.627811441101
 30
0.0
 11
2202.408311030262
 21
4301.627811441107
 31
0.0
  0
LINE
  5
6C
330
17
100
AcDbEntity
  8
SARR_2.2x7
 62
40
370
25
100
AcDbLine
 10
2319.453451789448
 20
4256.627811440938
 30
0.0
 11
2319.453451789448
 21
4308.627811441009
 31
0.0
  0
LINE
  5
6D
330
17
100
AcDbEntity
  8
SARR_2.2x7
 62
40
370
25
100
AcDbLine
 10
2326.408311030265
 20
4256.627811440938
 30
0.0
 11
2254.408311030258
 21
4256.627811440932
 31
0.0
  0
LINE
  5
6E
330
17
100
AcDbEntity
  8
SARR_2.2x7
 62
40
370
25
100
AcDbLine
 10
2319.45345178947
 20
4275.627811441157
 30
0.0
 11
2254.408311030258
 21
4275.627811441161
 31
0.0
  0
LINE
  5
6F
330
17
100
AcDbEntity
  8
SARR_2.2x7
 62
40
370
25
100
AcDbLine
 10
2319.453451789448
 20
4282.627811440854
 30
0.0
 11
2254.408311030258
 21
4282.627811440861
 31
0.0
  0
LINE
  5
70
330
17
100
AcDbEntity
  8
SARR_2.2x7
 62
40
370
25
100
AcDbLine
 10
2765.453451789437
 20
4301.627811441072
 30
0.0
 11
2592.408311030258
 21
4301.627811441083
 31
0.0
  0
LINE
  5
71
330
17
100
AcDbEntity
  8
SARR_2.2x7
 62
40
370
25
100
AcDbLine
 10
2765.453451789437
 20
4249.627811441018
 30
0.0
 11
2765.453451789441
 21
4308.62781144098
 31
0.0
  0
LINE
  5
72
330
17
100
AcDbEntity
  8
SARR_2.2x7
 62
40
370
25
100
AcDbLine
 10
2765.453451789434
 20
4256.627811440907
 30
0.0
 11
2604.408311030258
 21
4256.627811440895
 31
0.0
  0
LINE
  5
73
330
17
100
AcDbEntity
  8
SARR_2.2x7
 62
40
370
25
100
AcDbLine
 10
2765.453451789463
 20
4275.627811441127
 30
0.0
 11
2604.408311030258
 21
4275.627811441141
 31
0.0
  0
LINE
  5
74
330
17
100
AcDbEntity
  8
SARR_2.2x7
 62
40
370
25
100
AcDbLine
 10
2765.453451789437
 20
4282.627811440825
 30
0.0
 11
2604.408311030262
 21
4282.627811440845
 31
0.0
  0
LINE
  5
75
330
17
100
AcDbEntity
  8
SARR_2.2x7
 62
40
370
25
100
AcDbLine
 10
2824.408311030259
 20
4249.627811440993
 30
0.0
 11
2824.408311030259
 21
4256.627811440902
 31
0.0
  0
LINE
  5
76
330
17
100
AcDbEntity
  8
SARR_2.2x7
 62
40
370
25
100
AcDbLine
 10
2824.408311030259
 20
4268.627811441138
 30
0.0
 11
2824.408311030259
 21
4275.627811440839
 31
0.0
  0
LINE
  5
77
330
17
100
AcDbEntity
  8
SARR_2.2x7
 62
40
370
25
100
AcDbLine
 10
2225.394402533993
 20
4462.724898717051
 30
0.0
 11
2225.394402533993
 21
4469.724898716983
 31
0.0
  0
LINE
  5
78
330
17
100
AcDbEntity
  8
SARR_2.2x7
 62
40
370
25
100
AcDbLine
 10
2225.394402533993
 20
4488.724898717204
 30
0.0
 11
2225.394402533993
 21
4495.7248987169
 31
0.0
  0
LINE
  5
79
330
17
100
AcDbEntity
  8
SARR_2.2x7
 62
40
370
25
100
AcDbLine
 10
2539.394402533993
 20
4462.724898717051
 30
0.0
 11
2539.394402533993
 21
4469.724898716959
 31
0.0
  0
LINE
  5
7A
330
17
100
AcDbEntity
  8
SARR_2.2x7
 62
40
370
25
100
AcDbLine
 10
2539.394402533993
 20
4488.724898717143
 30
0.0
 11
2539.394402533993
 21
4495.724898716995
 31
0.0
  0
LINE
  5
7B
330
17
100
AcDbEntity
  8
SARR_2.2x7
 62
40
370
25
100
AcDbLine
 10
2798.894402533993
 20
4462.724898717055
 30
0.0
 11
2798.894402533993
 21
4469.72489871696
 31
0.0
  0
LINE
  5
7C
330
17
100
AcDbEntity
  8
SARR_2.2x7
 62
40
370
25
100
AcDbLine
 10
2798.894402533993
 20
4488.724898717128
 30
0.0
 11
2798.894402533993
 21
4495.724898717011
 31
0.0
  0
LINE
  5
7D
330
17
100
AcDbEntity
  8
SARR_2.2x7
 62
40
370
25
100
AcDbLine
 10
2798.894402533993
 20
4521.724898717056
 30
0.0
 11
2798.894402533993
 21
4522.062948025499
 31
0.0
  0
LINE
  5
7E
330
17
100
AcDbEntity
  8
SARR_2.2x7
 62
40
370
25
100
AcDbLine
 10
2514.408311030258
 20
4282.627811440851
 30
0.0
 11
2514.408311030258
 21
4249.627811441003
 31
0.0
  0
LINE
  5
7F
330
17
100
AcDbEntity
  8
SARR_2.2x7
 62
40
370
25
100
AcDbLine
 10
2604.408311030258
 20
4282.627811440844
 30
0.0
 11
2604.408311030258
 21
4275.62781144114
 31
0.0
  0
LINE
  5
80
330
17
100
AcDbEntity
  8
SARR_2.2x7
 62
40
370
25
100
AcDbLine
 10
2604.408311030258
 20
4256.627811440895
 30
0.0
 11
2604.408311030258
 21
4249.627811441008
 31
0.0
  0
LINE
  5
81
330
17
100
AcDbEntity
  8
SARR_2.2x7
 62
40
370
25
100
AcDbLine
 10
2824.408311030259
 20
4268.627811441138
 30
0.0
 11
2806.363170271069
 21
4268.62781144114
 31
0.0
  0
LINE
  5
82
330
17
100
AcDbEntity
  8
SARR_2.2x7
 62
40
370
25
100
AcDbLine
 10
2824.408311030259
 20
4275.627811440839
 30
0.0
 11
2806.363170271069
 21
4275.627811440841
 31
0.0
  0
LINE
  5
83
330
17
100
AcDbEntity
  8
COTA
 62
4
370
25
100
AcDbLine
 10
2884.894402533993
 20
4459.724898717055
 30
0.0
 11
2884.894402533993
 21
4433.184972738899
 31
0.0
  0
LINE
  5
84
330
17
100
AcDbEntity
  8
COTA
 62
4
370
25
100
AcDbLine
 10
2688.394402533993
 20
4459.724898717084
 30
0.0
 11
2688.394402533993
 21
4433.184972738899
 31
0.0
  0
LINE
  5
85
330
17
100
AcDbEntity
  8
COTA
 62
4
370
25
100
AcDbLine
 10
2884.894402533993
 20
4436.1849727389
 30
0.0
 11
2688.394402533993
 21
4436.1849727389
 31
0.0
  0
LINE
  5
86
330
17
100
AcDbEntity
  8
COTA
 62
0
370
25
100
AcDbLine
 10
2883.394402533993
 20
4434.6849727389
 30
0.0
 11
2886.394402533993
 21
4437.6849727389
 31
0.0
  0
LINE
  5
87
330
17
100
AcDbEntity
  8
COTA
 62
0
370
25
100
AcDbLine
 10
2689.894402533993
 20
4437.6849727389
 30
0.0
 11
2686.894402533993
 21
4434.6849727389
 31
0.0
  0
LINE
  5
88
330
17
100
AcDbEntity
  8
COTA
 62
4
370
25
100
AcDbLine
 10
2884.894402533993
 20
4459.724898717055
 30
0.0
 11
2884.894402533993
 21
4399.646462050145
 31
0.0
  0
LINE
  5
89
330
17
100
AcDbEntity
  8
COTA
 62
4
370
25
100
AcDbLine
 10
2200.394402533993
 20
4459.724898717055
 30
0.0
 11
2200.394402533993
 21
4399.646462050145
 31
0.0
  0
LINE
  5
8A
330
17
100
AcDbEntity
  8
COTA
 62
4
370
25
100
AcDbLine
 10
2884.894402533993
 20
4402.646462050145
 30
0.0
 11
2200.394402533993
 21
4402.646462050145
 31
0.0
  0
LINE
  5
8B
330
17
100
AcDbEntity
  8
COTA
 62
0
370
25
100
AcDbLine
 10
2883.394402533993
 20
4401.146462050145
 30
0.0
 11
2886.394402533993
 21
4404.146462050145
 31
0.0
  0
LINE
  5
8C
330
17
100
AcDbEntity
  8
COTA
 62
0
370
25
100
AcDbLine
 10
2201.894402533993
 20
4404.146462050145
 30
0.0
 11
2198.894402533993
 21
4401.146462050145
 31
0.0
  0
LINE
  5
8D
330
17
100
AcDbEntity
  8
COTA
 62
4
370
25
100
AcDbLine
 10
2688.394402533993
 20
4459.724898717055
 30
0.0
 11
2688.394402533993
 21
4433.184972738899
 31
0.0
  0
LINE
  5
8E
330
17
100
AcDbEntity
  8
COTA
 62
4
370
25
100
AcDbLine
 10
2444.394402533994
 20
4459.724898717084
 30
0.0
 11
2444.394402533994
 21
4433.184972738899
 31
0.0
  0
LINE
  5
8F
330
17
100
AcDbEntity
  8
COTA
 62
4
370
25
100
AcDbLine
 10
2688.394402533993
 20
4436.1849727389
 30
0.0
 11
2444.394402533994
 21
4436.1849727389
 31
0.0
  0
LINE
  5
90
330
17
100
AcDbEntity
  8
COTA
 62
0
370
25
100
AcDbLine
 10
2686.894402533993
 20
4434.6849727389
 30
0.0
 11
2689.894402533993
 21
4437.6849727389
 31
0.0
  0
LINE
  5
91
330
17
100
AcDbEntity
  8
COTA
 62
0
370
25
100
AcDbLine
 10
2445.894402533994
 20
4437.6849727389
 30
0.0
 11
2442.894402533994
 21
4434.6849727389
 31
0.0
  0
LINE
  5
92
330
17
100
AcDbEntity
  8
COTA
 62
4
370
25
100
AcDbLine
 10
2444.394402533994
 20
4459.724898717084
 30
0.0
 11
2444.394402533994
 21
4433.184972738906
 31
0.0
  0
LINE
  5
93
330
17
100
AcDbEntity
  8
COTA
 62
4
370
25
100
AcDbLine
 10
2200.394402533993
 20
4459.724898717055
 30
0.0
 11
2200.394402533993
 21
4433.184972738906
 31
0.0
  0
LINE
  5
94
330
17
100
AcDbEntity
  8
COTA
 62
4
370
25
100
AcDbLine
 10
2444.394402533994
 20
4436.184972738907
 30
0.0
 11
2200.394402533993
 21
4436.184972738907
 31
0.0
  0
LINE
  5
95
330
17
100
AcDbEntity
  8
COTA
 62
0
370
25
100
AcDbLine
 10
2442.894402533994
 20
4434.684972738907
 30
0.0
 11
2445.894402533994
 21
4437.684972738907
 31
0.0
  0
LINE
  5
96
330
17
100
AcDbEntity
  8
COTA
 62
0
370
25
100
AcDbLine
 10
2201.894402533993
 20
4437.684972738907
 30
0.0
 11
2198.894402533993
 21
4434.684972738907
 31
0.0
  0
LINE
  5
97
330
17
100
AcDbEntity
  8
COTA
 62
4
370
25
100
AcDbLine
 10
2512.803093621994
 20
4634.095800539544
 30
0.0
 11
2556.074826380398
 21
4634.095800539544
 31
0.0
  0
LINE
  5
98
330
17
100
AcDbEntity
  8
COTA
 62
4
370
25
100
AcDbLine
 10
2497.203093622003
 20
4752.095800539544
 30
0.0
 11
2556.074826380398
 21
4752.095800539544
 31
0.0
  0
LINE
  5
99
330
17
100
AcDbEntity
  8
COTA
 62
4
370
25
100
AcDbLine
 10
2553.074826380397
 20
4634.095800539544
 30
0.0
 11
2553.074826380397
 21
4752.095800539544
 31
0.0
  0
LINE
  5
9A
330
17
100
AcDbEntity
  8
Cota Seção (2x)
 62
180
370
25
100
AcDbLine
 10
2471.703093623645
 20
4702.429133872841
 30
0.0
 11
2471.703093623645
 21
4721.762467206175
 31
0.0
  0
LINE
  5
9B
330
17
100
AcDbEntity
  8
Cota Seção (2x)
 62
180
370
25
100
AcDbLine
 10
2471.703093623645
 20
4721.762467206175
 30
0.0
 11
2456.703093623645
 21
4721.762467206175
 31
0.0
  0
LINE
  5
9C
330
17
100
AcDbEntity
  8
Cota Seção (2x)
 62
180
370
25
100
AcDbLine
 10
2456.703093623645
 20
4721.762467206175
 30
0.0
 11
2456.703093623645
 21
4702.429133872841
 31
0.0
  0
LINE
  5
9D
330
17
100
AcDbEntity
  8
Cota Seção (2x)
 62
180
370
25
100
AcDbLine
 10
2456.703093623645
 20
4702.429133872841
 30
0.0
 11
2471.703093623645
 21
4702.429133872841
 31
0.0
  0
LINE
  5
9E
330
17
100
AcDbEntity
  8
COTA
 62
4
370
25
100
AcDbLine
 10
2426.803093621994
 20
4752.095800539544
 30
0.0
 11
2346.545799018683
 21
4752.095800539544
 31
0.0
  0
LINE
  5
9F
330
17
100
AcDbEntity
  8
COTA
 62
4
370
25
100
AcDbLine
 10
2401.603093622012
 20
4634.095800539544
 30
0.0
 11
2346.545799018683
 21
4634.095800539544
 31
0.0
  0
LINE
  5
A0
330
17
100
AcDbEntity
  8
COTA
 62
4
370
25
100
AcDbLine
 10
2349.545799018683
 20
4752.095800539544
 30
0.0
 11
2349.545799018683
 21
4634.095800539544
 31
0.0
  0
LINE
  5
A1
330
17
100
AcDbEntity
  8
COTA
 62
4
370
25
100
AcDbLine
 10
2438.203093621988
 20
4631.095800539535
 30
0.0
 11
2438.203093621988
 21
4586.368986737352
 31
0.0
  0
LINE
  5
A2
330
17
100
AcDbEntity
  8
COTA
 62
4
370
25
100
AcDbLine
 10
2476.203093621987
 20
4631.095800539535
 30
0.0
 11
2476.203093621987
 21
4586.368986737352
 31
0.0
  0
LINE
  5
A3
330
17
100
AcDbEntity
  8
COTA
 62
4
370
25
100
AcDbLine
 10
2438.203093621988
 20
4589.368986737352
 30
0.0
 11
2476.203093621987
 21
4589.368986737352
 31
0.0
  0
LINE
  5
A4
330
17
100
AcDbEntity
  8
Cota Seção (2x)
 62
180
370
25
100
AcDbLine
 10
2448.203093621958
 20
4654.095800539542
 30
0.0
 11
2466.203093621958
 21
4654.095800539542
 31
0.0
  0
LINE
  5
A5
330
17
100
AcDbEntity
  8
Cota Seção (2x)
 62
180
370
25
100
AcDbLine
 10
2466.203093621958
 20
4654.095800539542
 30
0.0
 11
2466.203093621958
 21
4669.095800539542
 31
0.0
  0
LINE
  5
A6
330
17
100
AcDbEntity
  8
Cota Seção (2x)
 62
180
370
25
100
AcDbLine
 10
2466.203093621958
 20
4669.095800539542
 30
0.0
 11
2448.203093621958
 21
4669.095800539542
 31
0.0
  0
LINE
  5
A7
330
17
100
AcDbEntity
  8
Cota Seção (2x)
 62
180
370
25
100
AcDbLine
 10
2448.203093621958
 20
4669.095800539542
 30
0.0
 11
2448.203093621958
 21
4654.095800539542
 31
0.0
  0
LINE
  5
A8
330
17
100
AcDbEntity
  8
COTA
 62
4
370
25
100
AcDbLine
 10
2759.693832239845
 20
4634.095800539544
 30
0.0
 11
2834.070555329221
 21
4634.095800539544
 31
0.0
  0
LINE
  5
A9
330
17
100
AcDbEntity
  8
COTA
 62
4
370
25
100
AcDbLine
 10
2781.693832239845
 20
4752.095800539537
 30
0.0
 11
2834.070555329221
 21
4752.095800539537
 31
0.0
  0
LINE
  5
AA
330
17
100
AcDbEntity
  8
COTA
 62
4
370
25
100
AcDbLine
 10
2831.070555329221
 20
4634.095800539544
 30
0.0
 11
2831.070555329221
 21
4752.095800539537
 31
0.0
  0
LINE
  5
AB
330
17
100
AcDbEntity
  8
COTA
 62
4
370
25
100
AcDbLine
 10
2648.493832239862
 20
4634.095800539544
 30
0.0
 11
2605.222099481714
 21
4634.095800539544
 31
0.0
  0
LINE
  5
AC
330
17
100
AcDbEntity
  8
COTA
 62
4
370
25
100
AcDbLine
 10
2664.093832239857
 20
4752.095800539544
 30
0.0
 11
2605.222099481714
 21
4752.095800539544
 31
0.0
  0
LINE
  5
AD
330
17
100
AcDbEntity
  8
COTA
 62
4
370
25
100
AcDbLine
 10
2608.222099481714
 20
4634.095800539544
 30
0.0
 11
2608.222099481714
 21
4752.095800539544
 31
0.0
  0
LINE
  5
AE
330
17
100
AcDbEntity
  8
Cota Seção (2x)
 62
180
370
25
100
AcDbLine
 10
2702.613870920538
 20
4702.429133872841
 30
0.0
 11
2702.613870920538
 21
4721.762467206175
 31
0.0
  0
LINE
  5
AF
330
17
100
AcDbEntity
  8
Cota Seção (2x)
 62
180
370
25
100
AcDbLine
 10
2702.613870920538
 20
4721.762467206175
 30
0.0
 11
2687.613870920538
 21
4721.762467206175
 31
0.0
  0
LINE
  5
B0
330
17
100
AcDbEntity
  8
Cota Seção (2x)
 62
180
370
25
100
AcDbLine
 10
2687.613870920538
 20
4721.762467206175
 30
0.0
 11
2687.613870920538
 21
4702.429133872841
 31
0.0
  0
LINE
  5
B1
330
17
100
AcDbEntity
  8
Cota Seção (2x)
 62
180
370
25
100
AcDbLine
 10
2687.613870920538
 20
4702.429133872841
 30
0.0
 11
2702.613870920538
 21
4702.429133872841
 31
0.0
  0
LINE
  5
B2
330
17
100
AcDbEntity
  8
COTA
 62
4
370
25
100
AcDbLine
 10
2781.693832239845
 20
4752.095800539537
 30
0.0
 11
2814.751126843752
 21
4752.095800539537
 31
0.0
  0
LINE
  5
B3
330
17
100
AcDbEntity
  8
COTA
 62
4
370
25
100
AcDbLine
 10
2781.693832239845
 20
4728.095800539515
 30
0.0
 11
2814.751126843752
 21
4728.095800539515
 31
0.0
  0
LINE
  5
B4
330
17
100
AcDbEntity
  8
COTA
 62
4
370
25
100
AcDbLine
 10
2811.751126843752
 20
4752.095800539537
 30
0.0
 11
2811.751126843752
 21
4728.095800539515
 31
0.0
  0
LINE
  5
B5
330
17
100
AcDbEntity
  8
COTA
 62
4
370
25
100
AcDbLine
 10
2781.693832239845
 20
4724.095800539514
 30
0.0
 11
2814.751126843428
 21
4724.095800539514
 31
0.0
  0
LINE
  5
B6
330
17
100
AcDbEntity
  8
COTA
 62
4
370
25
100
AcDbLine
 10
2759.693832239845
 20
4634.095800539544
 30
0.0
 11
2814.751126843428
 21
4634.095800539544
 31
0.0
  0
LINE
  5
B7
330
17
100
AcDbEntity
  8
COTA
 62
4
370
25
100
AcDbLine
 10
2811.751126843428
 20
4724.095800539514
 30
0.0
 11
2811.751126843428
 21
4634.095800539544
 31
0.0
  0
LINE
  5
B8
330
17
100
AcDbEntity
  8
COTA
 62
4
370
25
100
AcDbLine
 10
2723.093832239867
 20
4631.095800539535
 30
0.0
 11
2723.093832239867
 21
4586.368986737352
 31
0.0
  0
LINE
  5
B9
330
17
100
AcDbEntity
  8
COTA
 62
4
370
25
100
AcDbLine
 10
2685.093832239867
 20
4631.095800539535
 30
0.0
 11
2685.093832239867
 21
4586.368986737352
 31
0.0
  0
LINE
  5
BA
330
17
100
AcDbEntity
  8
COTA
 62
4
370
25
100
AcDbLine
 10
2723.093832239867
 20
4589.368986737352
 30
0.0
 11
2685.093832239867
 21
4589.368986737352
 31
0.0
  0
LINE
  5
BB
330
17
100
AcDbEntity
  8
Cota Seção (2x)
 62
180
370
25
100
AcDbLine
 10
2695.093832239896
 20
4654.095800539542
 30
0.0
 11
2713.093832239896
 21
4654.095800539542
 31
0.0
  0
LINE
  5
BC
330
17
100
AcDbEntity
  8
Cota Seção (2x)
 62
180
370
25
100
AcDbLine
 10
2713.093832239896
 20
4654.095800539542
 30
0.0
 11
2713.093832239896
 21
4669.095800539542
 31
0.0
  0
LINE
  5
BD
330
17
100
AcDbEntity
  8
Cota Seção (2x)
 62
180
370
25
100
AcDbLine
 10
2713.093832239896
 20
4669.095800539542
 30
0.0
 11
2695.093832239896
 21
4669.095800539542
 31
0.0
  0
LINE
  5
BE
330
17
100
AcDbEntity
  8
Cota Seção (2x)
 62
180
370
25
100
AcDbLine
 10
2695.093832239896
 20
4669.095800539542
 30
0.0
 11
2695.093832239896
 21
4654.095800539542
 31
0.0
  0
LINE
  5
BF
330
17
100
AcDbEntity
  8
COTA
 62
4
370
25
100
AcDbLine
 10
2887.894402533995
 20
4462.724898717056
 30
0.0
 11
2915.251769114679
 21
4462.724898717056
 31
0.0
  0
LINE
  5
C0
330
17
100
AcDbEntity
  8
COTA
 62
4
370
25
100
AcDbLine
 10
2887.894402533995
 20
4521.724898717057
 30
0.0
 11
2915.251769114679
 21
4521.724898717057
 31
0.0
  0
LINE
  5
C1
330
17
100
AcDbEntity
  8
COTA
 62
4
370
25
100
AcDbLine
 10
2912.25176911468
 20
4462.724898717056
 30
0.0
 11
2912.25176911468
 21
4521.724898717057
 31
0.0
  0
LINE
  5
C2
330
17
100
AcDbEntity
  8
COTA
 62
0
370
25
100
AcDbLine
 10
2910.75176911468
 20
4464.224898717056
 30
0.0
 11
2913.75176911468
 21
4461.224898717056
 31
0.0
  0
LINE
  5
C3
330
17
100
AcDbEntity
  8
COTA
 62
0
370
25
100
AcDbLine
 10
2913.75176911468
 20
4520.224898717057
 30
0.0
 11
2910.75176911468
 21
4523.224898717057
 31
0.0
  0
LINE
  5
C4
330
17
100
AcDbEntity
  8
COTA
 62
4
370
25
100
AcDbLine
 10
2202.408311030258
 20
4246.627811441023
 30
0.0
 11
2202.408311030258
 21
4220.087885462823
 31
0.0
  0
LINE
  5
C5
330
17
100
AcDbEntity
  8
COTA
 62
4
370
25
100
AcDbLine
 10
2348.408311030258
 20
4246.627811440967
 30
0.0
 11
2348.408311030258
 21
4220.087885462823
 31
0.0
  0
LINE
  5
C6
330
17
100
AcDbEntity
  8
COTA
 62
4
370
25
100
AcDbLine
 10
2202.408311030258
 20
4223.087885462823
 30
0.0
 11
2348.408311030258
 21
4223.087885462823
 31
0.0
  0
LINE
  5
C7
330
17
100
AcDbEntity
  8
COTA
 62
0
370
25
100
AcDbLine
 10
2203.908311030258
 20
4224.587885462823
 30
0.0
 11
2200.908311030258
 21
4221.587885462823
 31
0.0
  0
LINE
  5
C8
330
17
100
AcDbEntity
  8
COTA
 62
0
370
25
100
AcDbLine
 10
2346.908311030258
 20
4221.587885462823
 30
0.0
 11
2349.908311030258
 21
4224.587885462823
 31
0.0
  0
LINE
  5
C9
330
17
100
AcDbEntity
  8
COTA
 62
4
370
25
100
AcDbLine
 10
2772.408311030258
 20
4246.627811440965
 30
0.0
 11
2772.408311030258
 21
4220.08788546281
 31
0.0
  0
LINE
  5
CA
330
17
100
AcDbEntity
  8
COTA
 62
4
370
25
100
AcDbLine
 10
2920.408311030258
 20
4246.627811440956
 30
0.0
 11
2920.408311030258
 21
4220.08788546281
 31
0.0
  0
LINE
  5
CB
330
17
100
AcDbEntity
  8
COTA
 62
4
370
25
100
AcDbLine
 10
2772.408311030258
 20
4223.08788546281
 30
0.0
 11
2920.408311030258
 21
4223.08788546281
 31
0.0
  0
LINE
  5
CC
330
17
100
AcDbEntity
  8
COTA
 62
0
370
25
100
AcDbLine
 10
2773.908311030258
 20
4224.58788546281
 30
0.0
 11
2770.908311030258
 21
4221.58788546281
 31
0.0
  0
LINE
  5
CD
330
17
100
AcDbEntity
  8
COTA
 62
0
370
25
100
AcDbLine
 10
2918.908311030258
 20
4221.58788546281
 30
0.0
 11
2921.908311030258
 21
4224.58788546281
 31
0.0
  0
LINE
  5
CE
330
17
100
AcDbEntity
  8
COTA
 62
4
370
25
100
AcDbLine
 10
2923.408311030259
 20
4249.627811440992
 30
0.0
 11
2943.406517974513
 21
4249.627811440992
 31
0.0
  0
LINE
  5
CF
330
17
100
AcDbEntity
  8
COTA
 62
4
370
25
100
AcDbLine
 10
2923.408311030259
 20
4294.627811440992
 30
0.0
 11
2943.406517974513
 21
4294.627811440992
 31
0.0
  0
LINE
  5
D0
330
17
100
AcDbEntity
  8
COTA
 62
4
370
25
100
AcDbLine
 10
2940.406517974513
 20
4249.627811440992
 30
0.0
 11
2940.406517974513
 21
4294.627811440992
 31
0.0
  0
LINE
  5
D1
330
17
100
AcDbEntity
  8
COTA
 62
0
370
25
100
AcDbLine
 10
2938.906517974513
 20
4251.127811440992
 30
0.0
 11
2941.906517974513
 21
4248.127811440992
 31
0.0
  0
LINE
  5
D2
330
17
100
AcDbEntity
  8
COTA
 62
0
370
25
100
AcDbLine
 10
2941.906517974513
 20
4293.127811440992
 30
0.0
 11
2938.906517974513
 21
4296.127811440992
 31
0.0
  0
LINE
  5
D3
330
17
100
AcDbEntity
  8
COTA
 62
4
370
25
100
AcDbLine
 10
2923.408311030259
 20
4294.627811440992
 30
0.0
 11
2943.406517974513
 21
4294.627811440992
 31
0.0
  0
LINE
  5
D4
330
17
100
AcDbEntity
  8
COTA
 62
4
370
25
100
AcDbLine
 10
2923.408311030256
 20
4308.627811440967
 30
0.0
 11
2943.406517974513
 21
4308.627811440967
 31
0.0
  0
LINE
  5
D5
330
17
100
AcDbEntity
  8
COTA
 62
4
370
25
100
AcDbLine
 10
2940.406517974513
 20
4294.627811440992
 30
0.0
 11
2940.406517974513
 21
4308.627811440967
 31
0.0
  0
LINE
  5
D6
330
17
100
AcDbEntity
  8
COTA
 62
4
370
25
100
AcDbLine
 10
2940.406517974513
 20
4308.627811440967
 30
0.0
 11
2940.406517974513
 21
4327.744770505295
 31
0.0
  0
LINE
  5
D7
330
17
100
AcDbEntity
  8
COTA
 62
0
370
25
100
AcDbLine
 10
2938.906517974513
 20
4296.127811440992
 30
0.0
 11
2941.906517974513
 21
4293.127811440992
 31
0.0
  0
LINE
  5
D8
330
17
100
AcDbEntity
  8
COTA
 62
0
370
25
100
AcDbLine
 10
2941.906517974513
 20
4307.127811440967
 30
0.0
 11
2938.906517974513
 21
4310.127811440967
 31
0.0
  0
LINE
  5
D9
330
17
100
AcDbEntity
  8
COTA
 62
4
370
25
100
AcDbLine
 10
2923.408311030256
 20
4308.627811440967
 30
0.0
 11
2963.545726593227
 21
4308.627811440967
 31
0.0
  0
LINE
  5
DA
330
17
100
AcDbEntity
  8
COTA
 62
4
370
25
100
AcDbLine
 10
2923.408311030259
 20
4249.627811440992
 30
0.0
 11
2963.545726593227
 21
4249.627811440992
 31
0.0
  0
LINE
  5
DB
330
17
100
AcDbEntity
  8
COTA
 62
4
370
25
100
AcDbLine
 10
2960.545726593227
 20
4308.627811440967
 30
0.0
 11
2960.545726593227
 21
4249.627811440992
 31
0.0
  0
LINE
  5
DC
330
17
100
AcDbEntity
  8
COTA
 62
0
370
25
100
AcDbLine
 10
2962.045726593227
 20
4307.127811440967
 30
0.0
 11
2959.045726593227
 21
4310.127811440967
 31
0.0
  0
LINE
  5
DD
330
17
100
AcDbEntity
  8
COTA
 62
0
370
25
100
AcDbLine
 10
2959.045726593227
 20
4251.127811440992
 30
0.0
 11
2962.045726593227
 21
4248.127811440992
 31
0.0
  0
LINE
  5
DE
330
17
100
AcDbEntity
  8
COTA
 62
4
370
25
100
AcDbLine
 10
2877.894402533994
 20
4459.724898717055
 30
0.0
 11
2877.894402533994
 21
4445.82145396116
 31
0.0
  0
LINE
  5
DF
330
17
100
AcDbEntity
  8
COTA
 62
4
370
25
100
AcDbLine
 10
2884.894402533993
 20
4459.724898717055
 30
0.0
 11
2884.894402533993
 21
4445.82145396116
 31
0.0
  0
LINE
  5
E0
330
17
100
AcDbEntity
  8
COTA
 62
4
370
25
100
AcDbLine
 10
2877.894402533994
 20
4448.821453961159
 30
0.0
 11
2884.894402533993
 21
4448.821453961159
 31
0.0
  0
LINE
  5
E1
330
17
100
AcDbEntity
  8
COTA
 62
4
370
25
100
AcDbLine
 10
2884.894402533993
 20
4448.821453961159
 30
0.0
 11
2899.62539668604
 21
4448.821453961159
 31
0.0
  0
LINE
  5
E2
330
17
100
AcDbEntity
  8
COTA
 62
0
370
25
100
AcDbLine
 10
2879.394402533994
 20
4450.321453961159
 30
0.0
 11
2876.394402533994
 21
4447.321453961159
 31
0.0
  0
LINE
  5
E3
330
17
100
AcDbEntity
  8
COTA
 62
0
370
25
100
AcDbLine
 10
2883.394402533993
 20
4447.321453961159
 30
0.0
 11
2886.394402533993
 21
4450.321453961159
 31
0.0
  0
LINE
  5
E4
330
17
100
AcDbEntity
  8
COTA
 62
4
370
25
100
AcDbLine
 10
2348.408311030258
 20
4246.627811440992
 30
0.0
 11
2348.408311030258
 21
4220.087885462837
 31
0.0
  0
LINE
  5
E5
330
17
100
AcDbEntity
  8
COTA
 62
4
370
25
100
AcDbLine
 10
2592.408311030258
 20
4246.627811441022
 30
0.0
 11
2592.408311030258
 21
4220.087885462837
 31
0.0
  0
LINE
  5
E6
330
17
100
AcDbEntity
  8
COTA
 62
4
370
25
100
AcDbLine
 10
2348.408311030258
 20
4223.087885462837
 30
0.0
 11
2592.408311030258
 21
4223.087885462837
 31
0.0
  0
LINE
  5
E7
330
17
100
AcDbEntity
  8
COTA
 62
0
370
25
100
AcDbLine
 10
2349.908311030258
 20
4224.587885462837
 30
0.0
 11
2346.908311030258
 21
4221.587885462837
 31
0.0
  0
LINE
  5
E8
330
17
100
AcDbEntity
  8
COTA
 62
0
370
25
100
AcDbLine
 10
2590.908311030258
 20
4221.587885462837
 30
0.0
 11
2593.908311030258
 21
4224.587885462837
 31
0.0
  0
LINE
  5
E9
330
17
100
AcDbEntity
  8
COTA
 62
4
370
25
100
AcDbLine
 10
2592.408311030258
 20
4246.627811441022
 30
0.0
 11
2592.408311030258
 21
4220.087885462848
 31
0.0
  0
LINE
  5
EA
330
17
100
AcDbEntity
  8
COTA
 62
4
370
25
100
AcDbLine
 10
2772.408311030258
 20
4246.627811441018
 30
0.0
 11
2772.408311030258
 21
4220.087885462848
 31
0.0
  0
LINE
  5
EB
330
17
100
AcDbEntity
  8
COTA
 62
4
370
25
100
AcDbLine
 10
2592.408311030258
 20
4223.087885462848
 30
0.0
 11
2772.408311030258
 21
4223.087885462848
 31
0.0
  0
LINE
  5
EC
330
17
100
AcDbEntity
  8
COTA
 62
0
370
25
100
AcDbLine
 10
2593.908311030258
 20
4224.587885462848
 30
0.0
 11
2590.908311030258
 21
4221.587885462848
 31
0.0
  0
LINE
  5
ED
330
17
100
AcDbEntity
  8
COTA
 62
0
370
25
100
AcDbLine
 10
2770.908311030258
 20
4221.587885462848
 30
0.0
 11
2773.908311030258
 21
4224.587885462848
 31
0.0
  0
LINE
  5
EE
330
17
100
AcDbEntity
  8
COTA
 62
4
370
25
100
AcDbLine
 10
2202.408311030258
 20
4246.627811441023
 30
0.0
 11
2202.408311030258
 21
4186.549374774115
 31
0.0
  0
LINE
  5
EF
330
17
100
AcDbEntity
  8
COTA
 62
4
370
25
100
AcDbLine
 10
2920.408311030258
 20
4246.627811441029
 30
0.0
 11
2920.408311030258
 21
4186.549374774115
 31
0.0
  0
LINE
  5
F0
330
17
100
AcDbEntity
  8
COTA
 62
4
370
25
100
AcDbLine
 10
2202.408311030258
 20
4189.549374774115
 30
0.0
 11
2920.408311030258
 21
4189.549374774115
 31
0.0
  0
LINE
  5
F1
330
17
100
AcDbEntity
  8
COTA
 62
0
370
25
100
AcDbLine
 10
2203.908311030258
 20
4191.049374774115
 30
0.0
 11
2200.908311030258
 21
4188.049374774115
 31
0.0
  0
LINE
  5
F2
330
17
100
AcDbEntity
  8
COTA
 62
0
370
25
100
AcDbLine
 10
2918.908311030258
 20
4188.049374774115
 30
0.0
 11
2921.908311030258
 21
4191.049374774115
 31
0.0
  0
LINE
  5
F3
330
17
100
AcDbEntity
  8
COTA
 62
4
370
25
100
AcDbLine
 10
2199.408311030259
 20
4249.627811441011
 30
0.0
 11
2186.36592805549
 21
4249.627811441011
 31
0.0
  0
LINE
  5
F4
330
17
100
AcDbEntity
  8
COTA
 62
4
370
25
100
AcDbLine
 10
2199.408311030266
 20
4308.62781144101
 30
0.0
 11
2186.36592805549
 21
4308.62781144101
 31
0.0
  0
LINE
  5
F5
330
17
100
AcDbEntity
  8
COTA
 62
4
370
25
100
AcDbLine
 10
2189.36592805549
 20
4249.627811441011
 30
0.0
 11
2189.36592805549
 21
4308.62781144101
 31
0.0
  0
LINE
  5
F6
330
17
100
AcDbEntity
  8
COTA
 62
0
370
25
100
AcDbLine
 10
2187.86592805549
 20
4251.127811441011
 30
0.0
 11
2190.86592805549
 21
4248.127811441011
 31
0.0
  0
LINE
  5
F7
330
17
100
AcDbEntity
  8
COTA
 62
0
370
25
100
AcDbLine
 10
2190.86592805549
 20
4307.12781144101
 30
0.0
 11
2187.86592805549
 21
4310.12781144101
 31
0.0
  0
LINE
  5
F8
330
17
100
AcDbEntity
  8
COTA
 62
4
370
25
100
AcDbLine
 10
2323.408311030267
 20
4308.627811440996
 30
0.0
 11
2308.60690669743
 21
4308.627811440996
 31
0.0
  0
LINE
  5
F9
330
17
100
AcDbEntity
  8
COTA
 62
4
370
25
100
AcDbLine
 10
2323.408311030267
 20
4254.627811440996
 30
0.0
 11
2308.60690669743
 21
4254.627811440996
 31
0.0
  0
LINE
  5
FA
330
17
100
AcDbEntity
  8
COTA
 62
4
370
25
100
AcDbLine
 10
2311.60690669743
 20
4308.627811440996
 30
0.0
 11
2311.60690669743
 21
4254.627811440996
 31
0.0
  0
LINE
  5
FB
330
17
100
AcDbEntity
  8
COTA
 62
0
370
25
100
AcDbLine
 10
2313.10690669743
 20
4307.127811440996
 30
0.0
 11
2310.10690669743
 21
4310.127811440996
 31
0.0
  0
LINE
  5
FC
330
17
100
AcDbEntity
  8
COTA
 62
0
370
25
100
AcDbLine
 10
2310.10690669743
 20
4256.127811440996
 30
0.0
 11
2313.10690669743
 21
4253.127811440996
 31
0.0
  0
LINE
  5
FD
330
17
100
AcDbEntity
  8
COTA
 62
4
370
25
100
AcDbLine
 10
2326.408311030265
 20
4311.627811440994
 30
0.0
 11
2326.408311030265
 21
4321.660620406512
 31
0.0
  0
LINE
  5
FE
330
17
100
AcDbEntity
  8
COTA
 62
4
370
25
100
AcDbLine
 10
2348.408311030254
 20
4311.627811440992
 30
0.0
 11
2348.408311030254
 21
4321.660620406512
 31
0.0
  0
LINE
  5
FF
330
17
100
AcDbEntity
  8
COTA
 62
4
370
25
100
AcDbLine
 10
2326.408311030265
 20
4318.660620406512
 30
0.0
 11
2348.408311030254
 21
4318.660620406512
 31
0.0
  0
LINE
  5
100
330
17
100
AcDbEntity
  8
COTA
 62
0
370
25
100
AcDbLine
 10
2327.908311030265
 20
4320.160620406512
 30
0.0
 11
2324.908311030265
 21
4317.160620406512
 31
0.0
  0
LINE
  5
101
330
17
100
AcDbEntity
  8
COTA
 62
0
370
25
100
AcDbLine
 10
2346.908311030254
 20
4317.160620406512
 30
0.0
 11
2349.908311030254
 21
4320.160620406512
 31
0.0
  0
LINE
  5
102
330
17
100
AcDbEntity
  8
COTA
 62
4
370
25
100
AcDbLine
 10
2796.408311030252
 20
4294.627811440972
 30
0.0
 11
2788.232972978612
 21
4294.627811440972
 31
0.0
  0
LINE
  5
103
330
17
100
AcDbEntity
  8
COTA
 62
4
370
25
100
AcDbLine
 10
2796.408311030259
 20
4254.627811440967
 30
0.0
 11
2788.232972978612
 21
4254.627811440967
 31
0.0
  0
LINE
  5
104
330
17
100
AcDbEntity
  8
COTA
 62
4
370
25
100
AcDbLine
 10
2791.232972978612
 20
4294.627811440972
 30
0.0
 11
2791.232972978612
 21
4254.627811440967
 31
0.0
  0
LINE
  5
105
330
17
100
AcDbEntity
  8
COTA
 62
0
370
25
100
AcDbLine
 10
2792.732972978612
 20
4293.127811440972
 30
0.0
 11
2789.732972978612
 21
4296.127811440972
 31
0.0
  0
LINE
  5
106
330
17
100
AcDbEntity
  8
COTA
 62
0
370
25
100
AcDbLine
 10
2789.732972978612
 20
4256.127811440967
 30
0.0
 11
2792.732972978612
 21
4253.127811440967
 31
0.0
  0
LINE
  5
107
330
17
100
AcDbEntity
  8
COTA
 62
4
370
25
100
AcDbLine
 10
2799.408311030251
 20
4297.62781144097
 30
0.0
 11
2799.408311030251
 21
4317.405676688958
 31
0.0
  0
LINE
  5
108
330
17
100
AcDbEntity
  8
COTA
 62
4
370
25
100
AcDbLine
 10
2772.408311030258
 20
4311.627811441018
 30
0.0
 11
2772.408311030258
 21
4317.405676688958
 31
0.0
  0
LINE
  5
109
330
17
100
AcDbEntity
  8
COTA
 62
4
370
25
100
AcDbLine
 10
2799.408311030251
 20
4314.405676688958
 30
0.0
 11
2772.408311030258
 21
4314.405676688958
 31
0.0
  0
LINE
  5
10A
330
17
100
AcDbEntity
  8
COTA
 62
0
370
25
100
AcDbLine
 10
2797.908311030251
 20
4312.905676688958
 30
0.0
 11
2800.908311030251
 21
4315.905676688958
 31
0.0
  0
LINE
  5
10B
330
17
100
AcDbEntity
  8
COTA
 62
0
370
25
100
AcDbLine
 10
2773.908311030258
 20
4315.905676688958
 30
0.0
 11
2770.908311030258
 21
4312.905676688958
 31
0.0
  0
LINE
  5
10C
330
17
100
AcDbEntity
  8
COTA
 62
4
370
25
100
AcDbLine
 10
2200.394402533993
 20
4495.224898717054
 30
0.0
 11
2200.394402533993
 21
4495.454663883672
 31
0.0
  0
LINE
  5
10D
330
17
100
AcDbEntity
  8
COTA
 62
4
370
25
100
AcDbLine
 10
2225.394402533993
 20
4495.224898717054
 30
0.0
 11
2225.394402533993
 21
4495.454663883672
 31
0.0
  0
LINE
  5
10E
330
17
100
AcDbEntity
  8
COTA
 62
4
370
25
100
AcDbLine
 10
2200.394402533993
 20
4492.454663883671
 30
0.0
 11
2225.394402533993
 21
4492.454663883671
 31
0.0
  0
LINE
  5
10F
330
17
100
AcDbEntity
  8
COTA
 62
0
370
25
100
AcDbLine
 10
2201.894402533993
 20
4493.954663883671
 30
0.0
 11
2198.894402533993
 21
4490.954663883671
 31
0.0
  0
LINE
  5
110
330
17
100
AcDbEntity
  8
COTA
 62
0
370
25
100
AcDbLine
 10
2223.894402533993
 20
4490.954663883671
 30
0.0
 11
2226.894402533993
 21
4493.954663883671
 31
0.0
  0
LINE
  5
111
330
17
100
AcDbEntity
  8
COTA
 62
4
370
25
100
AcDbLine
 10
2444.394402533994
 20
4492.224898717084
 30
0.0
 11
2539.394402533993
 21
4492.224898717084
 31
0.0
  0
LINE
  5
112
330
17
100
AcDbEntity
  8
COTA
 62
0
370
25
100
AcDbLine
 10
2445.894402533994
 20
4493.724898717084
 30
0.0
 11
2442.894402533994
 21
4490.724898717084
 31
0.0
  0
LINE
  5
113
330
17
100
AcDbEntity
  8
COTA
 62
0
370
25
100
AcDbLine
 10
2537.894402533993
 20
4490.724898717084
 30
0.0
 11
2540.894402533993
 21
4493.724898717084
 31
0.0
  0
LINE
  5
114
330
17
100
AcDbEntity
  8
COTA
 62
4
370
25
100
AcDbLine
 10
2884.894402533993
 20
4495.224898717054
 30
0.0
 11
2884.894402533993
 21
4495.792713192115
 31
0.0
  0
LINE
  5
115
330
17
100
AcDbEntity
  8
COTA
 62
4
370
25
100
AcDbLine
 10
2798.894402533993
 20
4495.224898717054
 30
0.0
 11
2798.894402533993
 21
4495.792713192115
 31
0.0
  0
LINE
  5
116
330
17
100
AcDbEntity
  8
COTA
 62
4
370
25
100
AcDbLine
 10
2884.894402533993
 20
4492.792713192115
 30
0.0
 11
2798.894402533993
 21
4492.792713192115
 31
0.0
  0
LINE
  5
117
330
17
100
AcDbEntity
  8
COTA
 62
0
370
25
100
AcDbLine
 10
2883.394402533993
 20
4491.292713192115
 30
0.0
 11
2886.394402533993
 21
4494.292713192115
 31
0.0
  0
LINE
  5
118
330
17
100
AcDbEntity
  8
COTA
 62
0
370
25
100
AcDbLine
 10
2800.394402533993
 20
4494.292713192115
 30
0.0
 11
2797.394402533993
 21
4491.292713192115
 31
0.0
  0
LINE
  5
119
330
17
100
AcDbEntity
  8
COTA
 62
4
370
25
100
AcDbLine
 10
2202.408311030262
 20
4279.127811441009
 30
0.0
 11
2254.408311030262
 21
4279.127811441009
 31
0.0
  0
LINE
  5
11A
330
17
100
AcDbEntity
  8
COTA
 62
0
370
25
100
AcDbLine
 10
2203.908311030262
 20
4280.627811441009
 30
0.0
 11
2200.908311030262
 21
4277.627811441009
 31
0.0
  0
LINE
  5
11B
330
17
100
AcDbEntity
  8
COTA
 62
0
370
25
100
AcDbLine
 10
2252.908311030262
 20
4277.627811441009
 30
0.0
 11
2255.908311030262
 21
4280.627811441009
 31
0.0
  0
LINE
  5
11C
330
17
100
AcDbEntity
  8
COTA
 62
4
370
25
100
AcDbLine
 10
2592.408311030258
 20
4279.127811441006
 30
0.0
 11
2604.408311030258
 21
4279.127811441006
 31
0.0
  0
LINE
  5
11D
330
17
100
AcDbEntity
  8
COTA
 62
0
370
25
100
AcDbLine
 10
2593.908311030258
 20
4280.627811441006
 30
0.0
 11
2590.908311030258
 21
4277.627811441006
 31
0.0
  0
LINE
  5
11E
330
17
100
AcDbEntity
  8
COTA
 62
0
370
25
100
AcDbLine
 10
2602.908311030258
 20
4277.627811441006
 30
0.0
 11
2605.908311030258
 21
4280.627811441006
 31
0.0
  0
LINE
  5
11F
330
17
100
AcDbEntity
  8
COTA
 62
4
370
25
100
AcDbLine
 10
2592.408311030258
 20
4279.127811441012
 30
0.0
 11
2514.408311030258
 21
4279.127811441012
 31
0.0
  0
LINE
  5
120
330
17
100
AcDbEntity
  8
COTA
 62
0
370
25
100
AcDbLine
 10
2590.908311030258
 20
4277.627811441012
 30
0.0
 11
2593.908311030258
 21
4280.627811441012
 31
0.0
  0
LINE
  5
121
330
17
100
AcDbEntity
  8
COTA
 62
0
370
25
100
AcDbLine
 10
2515.908311030258
 20
4280.627811441012
 30
0.0
 11
2512.908311030258
 21
4277.627811441012
 31
0.0
  0
LINE
  5
122
330
17
100
AcDbEntity
  8
Painéis
 62
4
370
25
100
AcDbLine
 10
2920.408311030258
 20
4269.12781144099
 30
0.0
 11
2920.408311030258
 21
4268.685673235665
 31
0.0
  0
LINE
  5
123
330
17
100
AcDbEntity
  8
Painéis
 62
4
370
25
100
AcDbLine
 10
2824.408311030259
 20
4269.12781144099
 30
0.0
 11
2824.408311030259
 21
4268.685673235665
 31
0.0
  0
LINE
  5
124
330
17
100
AcDbEntity
  8
Painéis
 62
4
370
25
100
AcDbLine
 10
2920.408311030258
 20
4271.685673235665
 30
0.0
 11
2824.408311030259
 21
4271.685673235665
 31
0.0
  0
LINE
  5
125
330
17
100
AcDbEntity
  8
Painéis
 62
0
370
25
100
AcDbLine
 10
2918.908311030258
 20
4270.185673235665
 30
0.0
 11
2921.908311030258
 21
4273.185673235665
 31
0.0
  0
LINE
  5
126
330
17
100
AcDbEntity
  8
Painéis
 62
0
370
25
100
AcDbLine
 10
2825.908311030259
 20
4273.185673235665
 30
0.0
 11
2822.908311030259
 21
4270.185673235665
 31
0.0
  0
LINE
  5
127
330
17
100
AcDbEntity
  8
Texto Seção
 62
252
370
15
100
AcDbLine
 10
2580.426183143753
 20
4752.095800539541
 30
0.0
 11
2580.426183143753
 21
4877.095800539541
 31
0.0
  0
LWPOLYLINE
  5
128
330
17
100
AcDbEntity
  8
Painéis
 62
200
370
25
100
AcDbPolyline
 90
4
 70
1
 10
2434.203093621987
 20
4752.095800539541
 10
2438.203093621988
 20
4752.095800539541
 10
2438.203093621988
 20
4634.095800539542
 10
2434.203093621987
 20
4634.095800539542
  0
LWPOLYLINE
  5
129
330
17
100
AcDbEntity
  8
Madeira
 62
126
370
18
100
AcDbPolyline
 90
4
 70
1
 10
2476.203093621987
 20
4634.095800539542
 10
2476.203093621987
 20
4638.495800539536
 10
2462.203093621987
 20
4638.495800539536
 10
2462.203093621987
 20
4634.095800539542
  0
LWPOLYLINE
  5
12A
330
17
100
AcDbEntity
  8
Painéis
 62
200
370
25
100
AcDbPolyline
 90
4
 70
1
 10
2476.203093621987
 20
4638.495800539536
 10
2476.203093621987
 20
4642.095800539542
 10
2438.203093621988
 20
4642.095800539542
 10
2438.203093621988
 20
4638.495800539536
  0
LWPOLYLINE
  5
12B
330
17
100
AcDbEntity
  8
Madeira
 62
126
370
18
100
AcDbPolyline
 90
4
 70
1
 10
2438.203093621988
 20
4634.095800539542
 10
2438.203093621988
 20
4638.495800539536
 10
2452.203093621987
 20
4638.495800539536
 10
2452.203093621987
 20
4634.095800539542
  0
LWPOLYLINE
  5
12C
330
17
100
AcDbEntity
  8
Painéis
 62
200
370
25
100
AcDbPolyline
 90
4
 70
1
 10
2480.203093622002
 20
4752.095800539541
 10
2476.203093622002
 20
4752.095800539541
 10
2476.203093621987
 20
4634.095800539542
 10
2480.203093621987
 20
4634.095800539542
  0
LWPOLYLINE
  5
12D
330
17
100
AcDbEntity
  8
CONCRETO
 62
251
370
25
100
AcDbPolyline
 90
8
 70
1
 10
2438.203093621988
 20
4752.095800539541
 10
2438.203093621988
 20
4752.095800539541
 10
2476.203093621998
 20
4752.095800539541
 10
2476.203093621998
 20
4724.095800539528
 10
2476.203093621987
 20
4724.095800539528
 10
2476.203093621929
 20
4642.095800539542
 10
2438.203093621988
 20
4642.095800539542
 10
2438.203093621988
 20
4752.095800539549
  0
LWPOLYLINE
  5
12E
330
17
100
AcDbEntity
  8
Painéis
 62
200
370
25
100
AcDbPolyline
 90
4
 70
1
 10
2727.093832239867
 20
4724.095800539521
 10
2723.093832239867
 20
4724.095800539521
 10
2723.093832239867
 20
4634.095800539542
 10
2727.093832239867
 20
4634.095800539542
  0
LWPOLYLINE
  5
12F
330
17
100
AcDbEntity
  8
Madeira
 62
126
370
18
100
AcDbPolyline
 90
4
 70
1
 10
2685.093832239867
 20
4634.095800539542
 10
2685.093832239867
 20
4638.495800539536
 10
2699.093832239867
 20
4638.495800539536
 10
2699.093832239867
 20
4634.095800539542
  0
LWPOLYLINE
  5
130
330
17
100
AcDbEntity
  8
Painéis
 62
200
370
25
100
AcDbPolyline
 90
4
 70
1
 10
2685.093832239867
 20
4638.495800539536
 10
2685.093832239867
 20
4642.095800539542
 10
2723.093832239867
 20
4642.095800539542
 10
2723.093832239867
 20
4638.495800539536
  0
LWPOLYLINE
  5
131
330
17
100
AcDbEntity
  8
Madeira
 62
126
370
18
100
AcDbPolyline
 90
4
 70
1
 10
2723.093832239867
 20
4634.095800539542
 10
2723.093832239867
 20
4638.495800539536
 10
2709.093832239867
 20
4638.495800539536
 10
2709.093832239867
 20
4634.095800539542
  0
LWPOLYLINE
  5
132
330
17
100
AcDbEntity
  8
Painéis
 62
200
370
25
100
AcDbPolyline
 90
4
 70
1
 10
2681.093832239856
 20
4752.095800539541
 10
2685.093832239856
 20
4752.095800539541
 10
2685.093832239867
 20
4634.095800539542
 10
2681.093832239867
 20
4634.095800539542
  0
LWPOLYLINE
  5
133
330
17
100
AcDbEntity
  8
Painéis
 62
200
370
25
100
AcDbPolyline
 90
4
 70
1
 10
2723.093832239867
 20
4724.095800539521
 10
2723.093832239867
 20
4728.09580053952
 10
2778.693832239844
 20
4728.095800539513
 10
2778.693832239844
 20
4724.095800539513
  0
LWPOLYLINE
  5
134
330
17
100
AcDbEntity
  8
CONCRETO
 62
251
370
25
100
AcDbPolyline
 90
8
 70
1
 10
2778.693832239844
 20
4728.095800539513
 10
2778.693832239844
 20
4752.095800539541
 10
2685.093832239856
 20
4752.095800539541
 10
2685.093832239856
 20
4724.095800539528
 10
2685.093832239867
 20
4724.095800539528
 10
2685.093832239925
 20
4642.095800539542
 10
2723.093832239867
 20
4642.095800539542
 10
2723.093832239867
 20
4728.09580053952
  0
LWPOLYLINE
  5
135
330
17
100
AcDbEntity
  8
Madeira
 62
126
370
18
100
AcDbPolyline
 90
4
 70
1
 10
2434.203093621987
 20
4738.095800539542
 10
2429.803093621993
 20
4738.095800539542
 10
2429.803093621993
 20
4752.095800539541
 10
2434.203093621987
 20
4752.095800539541
  0
LWPOLYLINE
  5
136
330
17
100
AcDbEntity
  8
Madeira
 62
126
370
18
100
AcDbPolyline
 90
4
 70
1
 10
2434.203093621995
 20
4690.065858067848
 10
2429.803093622
 20
4690.065858067848
 10
2429.803093622
 20
4704.065858067848
 10
2434.203093621995
 20
4704.065858067848
  0
LWPOLYLINE
  5
137
330
17
100
AcDbEntity
  8
Madeira
 62
126
370
18
100
AcDbPolyline
 90
4
 70
1
 10
2434.203093622002
 20
4634.095800539542
 10
2429.803093622008
 20
4634.095800539542
 10
2429.803093622008
 20
4648.095800539542
 10
2434.203093622002
 20
4648.095800539542
  0
LWPOLYLINE
  5
138
330
17
100
AcDbEntity
  8
Madeira
 62
126
370
18
100
AcDbPolyline
 90
4
 70
1
 10
2681.093832239856
 20
4738.095800539542
 10
2676.693832239862
 20
4738.095800539542
 10
2676.693832239862
 20
4752.095800539541
 10
2681.093832239856
 20
4752.095800539541
  0
LWPOLYLINE
  5
139
330
17
100
AcDbEntity
  8
Madeira
 62
126
370
18
100
AcDbPolyline
 90
4
 70
1
 10
2681.093832239863
 20
4690.065858067848
 10
2676.693832239869
 20
4690.065858067848
 10
2676.693832239869
 20
4704.065858067848
 10
2681.093832239863
 20
4704.065858067848
  0
LWPOLYLINE
  5
13A
330
17
100
AcDbEntity
  8
Madeira
 62
126
370
18
100
AcDbPolyline
 90
4
 70
1
 10
2681.093832239867
 20
4634.095800539542
 10
2676.693832239873
 20
4634.095800539542
 10
2676.693832239873
 20
4648.095800539542
 10
2681.093832239867
 20
4648.095800539542
  0
LWPOLYLINE
  5
13B
330
17
100
AcDbEntity
  8
Madeira
 62
126
370
18
100
AcDbPolyline
 90
4
 70
1
 10
2480.203093621998
 20
4738.095800539542
 10
2484.603093621992
 20
4738.095800539542
 10
2484.603093621992
 20
4752.095800539541
 10
2480.203093621998
 20
4752.095800539541
  0
LWPOLYLINE
  5
13C
330
17
100
AcDbEntity
  8
Madeira
 62
126
370
18
100
AcDbPolyline
 90
4
 70
1
 10
2480.203093621995
 20
4690.065858067848
 10
2484.603093621989
 20
4690.065858067848
 10
2484.603093621989
 20
4704.065858067848
 10
2480.203093621995
 20
4704.065858067848
  0
LWPOLYLINE
  5
13D
330
17
100
AcDbEntity
  8
Madeira
 62
126
370
18
100
AcDbPolyline
 90
4
 70
1
 10
2480.203093621987
 20
4634.095800539542
 10
2484.603093621982
 20
4634.095800539542
 10
2484.603093621982
 20
4648.095800539542
 10
2480.203093621987
 20
4648.095800539542
  0
LWPOLYLINE
  5
13E
330
17
100
AcDbEntity
  8
Madeira
 62
126
370
18
100
AcDbPolyline
 90
4
 70
1
 10
2731.493832239861
 20
4710.09580053952
 10
2727.093832239867
 20
4710.09580053952
 10
2727.093832239867
 20
4724.095800539521
 10
2731.493832239861
 20
4724.095800539521
  0
LWPOLYLINE
  5
13F
330
17
100
AcDbEntity
  8
Madeira
 62
126
370
18
100
AcDbPolyline
 90
4
 70
1
 10
2731.493832239861
 20
4634.095800539542
 10
2727.093832239867
 20
4634.095800539542
 10
2727.093832239867
 20
4648.095800539542
 10
2731.493832239861
 20
4648.095800539542
  0
LWPOLYLINE
  5
140
330
17
100
AcDbEntity
  8
SARR_3.5x7
 62
81
370
25
100
AcDbPolyline
 90
4
 70
1
 10
2415.803093621943
 20
4746.095800539542
 10
2429.803093621942
 20
4746.095800539542
 10
2429.80309362207
 20
4557.617587133736
 10
2415.80309362207
 20
4557.617587133736
  0
LWPOLYLINE
  5
141
330
17
100
AcDbEntity
  8
SARR_3.5x7
 62
81
370
25
100
AcDbPolyline
 90
4
 70
1
 10
2498.603093622229
 20
4746.095800539546
 10
2484.603093622229
 20
4746.095800539546
 10
2484.603093622083
 20
4557.617587133736
 10
2498.603093622083
 20
4557.617587133736
  0
LWPOLYLINE
  5
142
330
17
100
AcDbEntity
  8
SARR_3.5x7
 62
81
370
25
100
AcDbPolyline
 90
4
 70
1
 10
2415.803093621928
 20
4634.095800539542
 10
2498.603093622131
 20
4634.09580053954
 10
2498.603093622131
 20
4604.037738935542
 10
2415.803093621928
 20
4604.037738935543
  0
LWPOLYLINE
  5
143
330
17
100
AcDbEntity
  8
SARR_3.5x7
 62
81
370
25
100
AcDbPolyline
 90
4
 70
1
 10
2662.693832239811
 20
4746.095800539542
 10
2676.693832239811
 20
4746.095800539542
 10
2676.693832239938
 20
4557.617587133736
 10
2662.693832239938
 20
4557.617587133736
  0
LWPOLYLINE
  5
144
330
17
100
AcDbEntity
  8
SARR_3.5x7
 62
81
370
25
100
AcDbPolyline
 90
4
 70
1
 10
2745.493832240098
 20
4718.095800539522
 10
2731.493832240098
 20
4718.095800539522
 10
2731.493832239948
 20
4557.617587133736
 10
2745.493832239949
 20
4557.617587133736
  0
LWPOLYLINE
  5
145
330
17
100
AcDbEntity
  8
SARR_3.5x7
 62
81
370
25
100
AcDbPolyline
 90
4
 70
1
 10
2662.693832239797
 20
4634.095800539542
 10
2745.493832239996
 20
4634.09580053954
 10
2745.493832239996
 20
4604.037738935542
 10
2662.693832239797
 20
4604.037738935543
  0
LWPOLYLINE
  5
146
330
17
100
AcDbEntity
  8
Madeira
 62
126
370
18
100
AcDbPolyline
 90
4
 70
1
 10
2731.493832239861
 20
4672.095800539532
 10
2727.093832239867
 20
4672.095800539532
 10
2727.093832239867
 20
4686.095800539532
 10
2731.493832239861
 20
4686.095800539532
  0
LWPOLYLINE
  5
147
330
17
100
AcDbEntity
  8
COTA
 62
0
370
25
100
AcDbPolyline
 90
2
 70
0
 10
2550.574826380397
 20
4636.595800539544
 10
2555.574826380397
 20
4631.595800539544
  0
LWPOLYLINE
  5
148
330
17
100
AcDbEntity
  8
COTA
 62
0
370
25
100
AcDbPolyline
 90
2
 70
0
 10
2555.574826380397
 20
4749.595800539544
 10
2550.574826380397
 20
4754.595800539544
  0
LWPOLYLINE
  5
149
330
17
100
AcDbEntity
  8
COTA
 62
0
370
25
100
AcDbPolyline
 90
2
 70
0
 10
2352.045799018683
 20
4749.595800539544
 10
2347.045799018683
 20
4754.595800539544
  0
LWPOLYLINE
  5
14A
330
17
100
AcDbEntity
  8
COTA
 62
0
370
25
100
AcDbPolyline
 90
2
 70
0
 10
2347.045799018683
 20
4636.595800539544
 10
2352.045799018683
 20
4631.595800539544
  0
LWPOLYLINE
  5
14B
330
17
100
AcDbEntity
  8
COTA
 62
0
370
25
100
AcDbPolyline
 90
2
 70
0
 10
2440.703093621988
 20
4591.868986737352
 10
2435.703093621988
 20
4586.868986737352
  0
LWPOLYLINE
  5
14C
330
17
100
AcDbEntity
  8
COTA
 62
0
370
25
100
AcDbPolyline
 90
2
 70
0
 10
2473.703093621987
 20
4586.868986737352
 10
2478.703093621987
 20
4591.868986737352
  0
LWPOLYLINE
  5
14D
330
17
100
AcDbEntity
  8
COTA
 62
0
370
25
100
AcDbPolyline
 90
2
 70
0
 10
2828.570555329221
 20
4636.595800539544
 10
2833.570555329221
 20
4631.595800539544
  0
LWPOLYLINE
  5
14E
330
17
100
AcDbEntity
  8
COTA
 62
0
370
25
100
AcDbPolyline
 90
2
 70
0
 10
2833.570555329221
 20
4749.595800539537
 10
2828.570555329221
 20
4754.595800539537
  0
LWPOLYLINE
  5
14F
330
17
100
AcDbEntity
  8
COTA
 62
0
370
25
100
AcDbPolyline
 90
2
 70
0
 10
2605.722099481714
 20
4636.595800539544
 10
2610.722099481714
 20
4631.595800539544
  0
LWPOLYLINE
  5
150
330
17
100
AcDbEntity
  8
COTA
 62
0
370
25
100
AcDbPolyline
 90
2
 70
0
 10
2610.722099481714
 20
4749.595800539544
 10
2605.722099481714
 20
4754.595800539544
  0
LWPOLYLINE
  5
151
330
17
100
AcDbEntity
  8
COTA
 62
0
370
25
100
AcDbPolyline
 90
2
 70
0
 10
2814.251126843752
 20
4749.595800539537
 10
2809.251126843752
 20
4754.595800539537
  0
LWPOLYLINE
  5
152
330
17
100
AcDbEntity
  8
COTA
 62
0
370
25
100
AcDbPolyline
 90
2
 70
0
 10
2809.251126843752
 20
4730.595800539515
 10
2814.251126843752
 20
4725.595800539515
  0
LWPOLYLINE
  5
153
330
17
100
AcDbEntity
  8
COTA
 62
0
370
25
100
AcDbPolyline
 90
2
 70
0
 10
2814.251126843428
 20
4721.595800539514
 10
2809.251126843428
 20
4726.595800539514
  0
LWPOLYLINE
  5
154
330
17
100
AcDbEntity
  8
COTA
 62
0
370
25
100
AcDbPolyline
 90
2
 70
0
 10
2809.251126843428
 20
4636.595800539544
 10
2814.251126843428
 20
4631.595800539544
  0
LWPOLYLINE
  5
155
330
17
100
AcDbEntity
  8
COTA
 62
0
370
25
100
AcDbPolyline
 90
2
 70
0
 10
2720.593832239867
 20
4586.868986737352
 10
2725.593832239867
 20
4591.868986737352
  0
LWPOLYLINE
  5
156
330
17
100
AcDbEntity
  8
COTA
 62
0
370
25
100
AcDbPolyline
 90
2
 70
0
 10
2687.593832239867
 20
4591.868986737352
 10
2682.593832239867
 20
4586.868986737352
  0
TEXT
  5
157
330
17
100
AcDbEntity
  8
5
 62
5
370
25
100
AcDbText
 10
2847.284654315064
 20
4384.72037648114
 30
0.0
 40
12.0
  1
P35
 50
3.55024762388e-05
100
AcDbText
  0
TEXT
  5
158
330
17
100
AcDbEntity
  8
Texto Seção
 62
7
370
15
100
AcDbText
 10
2195.992806994555
 20
4320.433357739117
 30
0.0
 40
13.0
  1
V308.B
100
AcDbText
  0
TEXT
  5
159
330
17
100
AcDbEntity
  8
5
 62
5
370
25
100
AcDbText
 10
2215.402768984792
 20
4167.582947264966
 30
0.0
 40
12.0
  1
P35
 50
3.55024762388e-05
100
AcDbText
  0
TEXT
  5
15A
330
17
100
AcDbEntity
  8
Texto Seção
 62
7
370
15
100
AcDbText
 10
2194.983177030745
 20
4529.766914252033
 30
0.0
 40
13.0
  1
V308.A
100
AcDbText
  0
TEXT
  5
15B
330
17
100
AcDbEntity
  8
detalhes
 62
4
370
25
100
AcDbText
 10
2484.917576798026
 20
4694.717896115434
 30
0.0
 40
9.600000000000001
  1
b
100
AcDbText
  0
TEXT
  5
15C
330
17
100
AcDbEntity
  8
detalhes
 62
4
370
25
100
AcDbText
 10
2422.373918152289
 20
4694.728953561009
 30
0.0
 40
9.600000000000001
  1
a
100
AcDbText
  0
TEXT
  5
15D
330
17
100
AcDbEntity
  8
detalhes
 62
4
370
25
100
AcDbText
 10
2448.803359237432
 20
4644.331554059381
 30
0.0
 40
9.600000000000001
  1
c
100
AcDbText
  0
TEXT
  5
15E
330
17
100
AcDbEntity
  8
detalhes
 62
4
370
25
100
AcDbText
 10
2731.30109692933
 20
4690.116493480998
 30
0.0
 40
9.600000000000001
  1
b
100
AcDbText
  0
TEXT
  5
15F
330
17
100
AcDbEntity
  8
detalhes
 62
4
370
25
100
AcDbText
 10
2670.551394388136
 20
4691.176511426218
 30
0.0
 40
9.600000000000001
  1
a
100
AcDbText
  0
TEXT
  5
160
330
17
100
AcDbEntity
  8
detalhes
 62
4
370
25
100
AcDbText
 10
2705.391812238455
 20
4644.331554059381
 30
0.0
 40
9.600000000000001
  1
c
100
AcDbText
  0
TEXT
  5
161
330
17
100
AcDbEntity
  8
5
 62
5
370
25
100
AcDbText
 10
2199.675861996138
 20
4384.720381497393
 30
0.0
 40
12.0
  1
P33
 50
3.55024762388e-05
100
AcDbText
  0
TEXT
  5
162
330
17
100
AcDbEntity
  8
5
 62
5
370
25
100
AcDbText
 10
2889.23823560621
 20
4167.582947264963
 30
0.0
 40
12.0
  1
V323
 50
3.55024762388e-05
100
AcDbText
  0
TEXT
  5
163
330
17
100
AcDbEntity
  8
COTA
 62
240
370
25
100
AcDbText
 10
2786.644402533994
 20
4444.323861627789
 30
0.0
 40
10.0
  1
196.5
100
AcDbText
  0
TEXT
  5
164
330
17
100
AcDbEntity
  8
COTA
 62
240
370
25
100
AcDbText
 10
2542.644402533993
 20
4410.778040997512
 30
0.0
 40
10.0
  1
684.5
100
AcDbText
  0
TEXT
  5
165
330
17
100
AcDbEntity
  8
COTA
 62
240
370
25
100
AcDbText
 10
2566.394402533993
 20
4444.258072154104
 30
0.0
 40
10.0
  1
244
100
AcDbText
  0
TEXT
  5
166
330
17
100
AcDbEntity
  8
COTA
 62
240
370
25
100
AcDbText
 10
2322.394402533993
 20
4444.258072154112
 30
0.0
 40
10.0
  1
244
100
AcDbText
  0
TEXT
  5
167
330
17
100
AcDbEntity
  8
COTA
 62
1
370
25
100
AcDbText
 10
2561.574826380399
 20
4693.095800539542
 30
0.0
 40
7.0
  1
59
 50
90.0
100
AcDbText
  0
TEXT
  5
168
330
17
100
AcDbEntity
  8
Cota Seção (2x)
 62
1
370
25
100
AcDbText
 10
2478.203093623646
 20
4712.095800539506
 30
0.0
 40
7.0
  1
55
 50
90.0
100
AcDbText
  0
TEXT
  5
169
330
17
100
AcDbEntity
  8
COTA
 62
1
370
25
100
AcDbText
 10
2358.045799018684
 20
4693.095800539542
 30
0.0
 40
7.0
  1
59
 50
90.0
100
AcDbText
  0
TEXT
  5
16A
330
17
100
AcDbEntity
  8
COTA
 62
1
370
25
100
AcDbText
 10
2457.203093621987
 20
4594.868986737352
 30
0.0
 40
7.0
  1
19
100
AcDbText
  0
TEXT
  5
16B
330
17
100
AcDbEntity
  8
Cota Seção (2x)
 62
1
370
25
100
AcDbText
 10
2457.203093621958
 20
4661.595800539543
 30
0.0
 40
7.0
  1
19
100
AcDbText
  0
TEXT
  5
16C
330
17
100
AcDbEntity
  8
COTA
 62
1
370
25
100
AcDbText
 10
2839.570555329221
 20
4693.095800539539
 30
0.0
 40
7.0
  1
59
 50
90.0
100
AcDbText
  0
TEXT
  5
16D
330
17
100
AcDbEntity
  8
COTA
 62
1
370
25
100
AcDbText
 10
2616.722099481715
 20
4693.095800539542
 30
0.0
 40
7.0
  1
59
 50
90.0
100
AcDbText
  0
TEXT
  5
16E
330
17
100
AcDbEntity
  8
Cota Seção (2x)
 62
1
370
25
100
AcDbText
 10
2709.113870920539
 20
4712.095800539506
 30
0.0
 40
7.0
  1
55
 50
90.0
100
AcDbText
  0
TEXT
  5
16F
330
17
100
AcDbEntity
  8
COTA
 62
1
370
25
100
AcDbText
 10
2820.251126843753
 20
4740.095800539523
 30
0.0
 40
7.0
  1
12
 50
90.0
100
AcDbText
  0
TEXT
  5
170
330
17
100
AcDbEntity
  8
COTA
 62
1
370
25
100
AcDbText
 10
2820.251126843429
 20
4679.095800539527
 30
0.0
 40
7.0
  1
45
 50
90.0
100
AcDbText
  0
TEXT
  5
171
330
17
100
AcDbEntity
  8
COTA
 62
1
370
25
100
AcDbText
 10
2704.093832239867
 20
4594.868986737352
 30
0.0
 40
7.0
  1
19
100
AcDbText
  0
TEXT
  5
172
330
17
100
AcDbEntity
  8
Cota Seção (2x)
 62
1
370
25
100
AcDbText
 10
2704.093832239896
 20
4661.595800539543
 30
0.0
 40
7.0
  1
19
100
AcDbText
  0
TEXT
  5
173
330
17
100
AcDbEntity
  8
COTA
 62
240
370
25
100
AcDbText
 10
2924.112880225792
 20
4492.224898717055
 30
0.0
 40
10.0
  1
59
 50
90.0
100
AcDbText
  0
TEXT
  5
174
330
17
100
AcDbEntity
  8
COTA
 62
240
370
25
100
AcDbText
 10
2275.408311030258
 20
4231.190224644109
 30
0.0
 40
10.0
  1
146
100
AcDbText
  0
TEXT
  5
175
330
17
100
AcDbEntity
  8
COTA
 62
240
370
25
100
AcDbText
 10
2846.408311030258
 20
4231.182914702577
 30
0.0
 40
10.0
  1
148
100
AcDbText
  0
TEXT
  5
176
330
17
100
AcDbEntity
  8
COTA
 62
240
370
25
100
AcDbText
 10
2952.296868851707
 20
4272.127811440991
 30
0.0
 40
10.0
  1
45
 50
90.0
100
AcDbText
  0
TEXT
  5
177
330
17
100
AcDbEntity
  8
COTA
 62
240
370
25
100
AcDbText
 10
2952.33341855931
 20
4319.686290973129
 30
0.0
 40
10.0
  1
14
 50
90.0
100
AcDbText
  0
TEXT
  5
178
330
17
100
AcDbEntity
  8
COTA
 62
240
370
25
100
AcDbText
 10
2972.406837704339
 20
4279.127811440978
 30
0.0
 40
10.0
  1
59
 50
90.0
100
AcDbText
  0
TEXT
  5
179
330
17
100
AcDbEntity
  8
COTA
 62
240
370
25
100
AcDbText
 10
2893.759899610017
 20
4456.894553376364
 30
0.0
 40
10.0
  1
7
100
AcDbText
  0
TEXT
  5
17A
330
17
100
AcDbEntity
  8
COTA
 62
240
370
25
100
AcDbText
 10
2470.408311030258
 20
4231.160984878042
 30
0.0
 40
10.0
  1
244
100
AcDbText
  0
TEXT
  5
17B
330
17
100
AcDbEntity
  8
COTA
 62
240
370
25
100
AcDbText
 10
2682.408311030258
 20
4231.212154468695
 30
0.0
 40
10.0
  1
180
100
AcDbText
  0
TEXT
  5
17C
330
17
100
AcDbEntity
  8
COTA
 62
240
370
25
100
AcDbText
 10
2561.408311030258
 20
4197.644404013881
 30
0.0
 40
10.0
  1
718
100
AcDbText
  0
TEXT
  5
17D
330
17
100
AcDbEntity
  8
COTA
 62
240
370
25
100
AcDbText
 10
2201.227039166603
 20
4279.127811441009
 30
0.0
 40
10.0
  1
59
 50
90.0
100
AcDbText
  0
TEXT
  5
17E
330
17
100
AcDbEntity
  8
COTA
 62
240
370
25
100
AcDbText
 10
2323.497257574623
 20
4281.627811440994
 30
0.0
 40
10.0
  1
54
 50
90.0
100
AcDbText
  0
TEXT
  5
17F
330
17
100
AcDbEntity
  8
COTA
 62
240
370
25
100
AcDbText
 10
2337.40831103026
 20
4326.660620406512
 30
0.0
 40
10.0
  1
22
100
AcDbText
  0
TEXT
  5
180
330
17
100
AcDbEntity
  8
COTA
 62
240
370
25
100
AcDbText
 10
2803.130633797326
 20
4274.627811440967
 30
0.0
 40
10.0
  1
40
 50
90.0
100
AcDbText
  0
TEXT
  5
181
330
17
100
AcDbEntity
  8
COTA
 62
240
370
25
100
AcDbText
 10
2785.908311030255
 20
4322.478776104162
 30
0.0
 40
10.0
  1
27
100
AcDbText
  0
TEXT
  5
182
330
17
100
AcDbEntity
  8
COTA
 62
240
370
25
100
AcDbText
 10
2212.644402533993
 20
4500.564313006479
 30
0.0
 40
10.0
  1
25
100
AcDbText
  0
TEXT
  5
183
330
17
100
AcDbEntity
  8
COTA
 62
240
370
25
100
AcDbText
 10
2491.894402533993
 20
4500.363787605972
 30
0.0
 40
10.0
  1
95
100
AcDbText
  0
TEXT
  5
184
330
17
100
AcDbEntity
  8
COTA
 62
240
370
25
100
AcDbText
 10
2841.894402533993
 20
4500.916982197963
 30
0.0
 40
10.0
  1
86
100
AcDbText
  0
TEXT
  5
185
330
17
100
AcDbEntity
  8
COTA
 62
240
370
25
100
AcDbText
 10
2228.408311030262
 20
4287.237460563816
 30
0.0
 40
10.0
  1
52
100
AcDbText
  0
TEXT
  5
186
330
17
100
AcDbEntity
  8
COTA
 62
240
370
25
100
AcDbText
 10
2598.408311030258
 20
4287.186290973171
 30
0.0
 40
10.0
  1
12
100
AcDbText
  0
TEXT
  5
187
330
17
100
AcDbEntity
  8
COTA
 62
240
370
25
100
AcDbText
 10
2553.408311030259
 20
4287.222840680778
 30
0.0
 40
10.0
  1
78
100
AcDbText
  0
TEXT
  5
188
330
17
100
AcDbEntity
  8
Painéis
 62
240
370
25
100
AcDbText
 10
2872.408311030259
 20
4279.817252183033
 30
0.0
 40
10.0
  1
96
100
AcDbText
  0
TEXT
  5
189
330
17
100
AcDbEntity
  8
Texto Seção
 62
3
370
15
100
AcDbText
 10
2580.426183143753
 20
4823.544564912515
 30
0.0
 40
17.0
  1

100
AcDbText
  0
TEXT
  5
18A
330
17
100
AcDbEntity
  8
Texto Seção
 62
3
370
15
100
AcDbText
 10
2580.426183143753
 20
4793.643980268193
 30
0.0
 40
12.0
  1

100
AcDbText
  0
TEXT
  5
18B
330
17
100
AcDbEntity
  8
Texto Seção
 62
7
370
15
100
AcDbText
 10
2580.426183143753
 20
4767.672551379707
 30
0.0
 40
10.0
  1

100
AcDbText
  0
HATCH
  5
18C
330
17
100
AcDbEntity
  8
COTA
 62
7
100
AcDbHatch
 10
0.0
 20
0.0
 30
0.0
210
0.0
220
0.0
230
1.0
  2
AR-CONC
 70
0
 71
0
 91
1
 92
3
 72
0
 73
1
 93
8
 10
2799.408311030259
 20
4254.627811440959
 10
2799.408311030249
 20
4294.627811440967
 10
2920.408311030256
 20
4294.627811440981
 10
2920.408311030256
 20
4308.62781144097
 10
2772.408311030254
 20
4308.627811440963
 10
2772.408311030254
 20
4254.627811440967
 10
2799.40831103026
 20
4254.627811440959
 10
2799.408311030259
 20
4254.627811440959
 97
0
 75
1
 76
1
 52
0.0
 41
1.0
 77
0
 78
13
 53
50.0
 43
0.0
 44
0.0
 45
182.184668996
 46
-15.9390855389
 79
2
 49
19.05
 49
-209.55
 53
355.0
 43
0.0
 44
0.0
 45
-35.243421425
 46
191.056845239
 79
2
 49
15.24
 49
-167.64058417
 53
100.4514447
 43
15.182007
 44
-1.3282535
 45
146.9412470904
 46
175.1177519122
 79
2
 49
16.1900088
 49
-178.0902446
 53
46.1842
 43
0.0
 44
50.8
 45
271.0790408921
 46
-42.0423279327
 79
2
 49
28.575
 49
-314.325
 53
96.63555761
 43
22.5899
 44
47.2965
 45
237.4041340515
 46
247.4261245977
 79
2
 49
24.28502314
 49
-267.13560816
 53
351.18415117
 43
0.0
 44
50.8
 45
237.404134065
 46
247.4261245855
 79
2
 49
22.85996707
 49
-251.45973192
 53
21.0
 43
25.4
 44
38.1
 45
151.6143912691
 46
-102.2651981871
 79
2
 49
19.05
 49
-209.55
 53
326.0
 43
25.4
 44
38.1
 45
61.8020283476
 46
184.1879661223
 79
2
 49
15.24
 49
-167.64
 53
71.451445
 43
38.0345326
 44
29.5779001
 45
213.4164192787
 46
81.9227688859
 79
2
 49
16.1900088
 49
-178.0899376
 53
37.5
 43
0.0
 44
0.0
 45
3.0886032506
 46
84.5550388732
 79
6
 49
0.0
 49
-165.608
 49
0.0
 49
-170.18
 49
0.0
 49
-168.275
 53
7.5
 43
0.0
 44
0.0
 45
66.8196625103
 46
100.1805748181
 79
6
 49
0.0
 49
-97.028
 49
0.0
 49
-161.798
 49
0.0
 49
-64.135
 53
-32.5
 43
-56.642
 44
0.0
 45
135.5905951669
 46
-5.7287439927
 79
6
 49
0.0
 49
-63.5
 49
0.0
 49
-198.12
 49
0.0
 49
-262.89
 53
-42.5
 43
-82.042
 44
0.0
 45
148.129181386
 46
25.4264910333
 79
6
 49
0.0
 49
-82.55
 49
0.0
 49
-131.572
 49
0.0
 49
-186.69
 98
0
  0
HATCH
  5
18D
330
17
100
AcDbEntity
  8
Hachura
 62
7
100
AcDbHatch
 10
0.0
 20
0.0
 30
0.0
210
0.0
220
0.0
230
1.0
  2
SOLID
 70
1
 71
0
 91
1
 92
3
 72
0
 73
1
 93
5
 10
2434.203093621987
 20
4752.095800539541
 10
2438.203093621988
 20
4752.095800539541
 10
2438.203093621988
 20
4634.095800539542
 10
2434.203093621987
 20
4634.095800539542
 10
2434.203093621987
 20
4752.095800539541
 97
0
 75
1
 76
1
 98
0
  0
HATCH
  5
18E
330
17
100
AcDbEntity
  8
Hachura
 62
7
100
AcDbHatch
 10
0.0
 20
0.0
 30
0.0
210
0.0
220
0.0
230
1.0
  2
ANSI31
 70
0
 71
0
 91
1
 92
3
 72
0
 73
1
 93
5
 10
2476.203093621987
 20
4634.095800539542
 10
2476.203093621987
 20
4638.495800539536
 10
2462.203093621987
 20
4638.495800539536
 10
2462.203093621987
 20
4634.095800539542
 10
2476.203093621987
 20
4634.095800539542
 97
0
 75
1
 76
1
 52
0.0
 41
1.0
 77
0
 78
1
 53
45.0
 43
0.0
 44
0.0
 45
-2.2450640303
 46
2.2450640303
 79
0
 98
0
  0
HATCH
  5
18F
330
17
100
AcDbEntity
  8
Hachura
 62
7
100
AcDbHatch
 10
0.0
 20
0.0
 30
0.0
210
0.0
220
0.0
230
1.0
  2
SOLID
 70
1
 71
0
 91
1
 92
3
 72
0
 73
1
 93
5
 10
2476.203093621987
 20
4638.495800539536
 10
2476.203093621987
 20
4642.095800539542
 10
2438.203093621988
 20
4642.095800539542
 10
2438.203093621988
 20
4638.495800539536
 10
2476.203093621987
 20
4638.495800539536
 97
0
 75
1
 76
1
 98
0
  0
HATCH
  5
190
330
17
100
AcDbEntity
  8
Hachura
 62
7
100
AcDbHatch
 10
0.0
 20
0.0
 30
0.0
210
0.0
220
0.0
230
1.0
  2
ANSI31
 70
0
 71
0
 91
1
 92
3
 72
0
 73
1
 93
5
 10
2438.203093621988
 20
4634.095800539542
 10
2438.203093621988
 20
4638.495800539536
 10
2452.203093621987
 20
4638.495800539536
 10
2452.203093621987
 20
4634.095800539542
 10
2438.203093621988
 20
4634.095800539542
 97
0
 75
1
 76
1
 52
0.0
 41
1.0
 77
0
 78
1
 53
45.0
 43
0.0
 44
0.0
 45
-2.2450640303
 46
2.2450640303
 79
0
 98
0
  0
HATCH
  5
191
330
17
100
AcDbEntity
  8
Hachura
 62
7
100
AcDbHatch
 10
0.0
 20
0.0
 30
0.0
210
0.0
220
0.0
230
1.0
  2
SOLID
 70
1
 71
0
 91
1
 92
3
 72
0
 73
1
 93
5
 10
2480.203093621987
 20
4752.095800539541
 10
2476.203093621987
 20
4752.095800539541
 10
2476.203093621987
 20
4634.095800539542
 10
2480.203093621987
 20
4634.095800539542
 10
2480.203093621987
 20
4752.095800539541
 97
0
 75
1
 76
1
 98
0
  0
HATCH
  5
192
330
17
100
AcDbEntity
  8
Hachura
 62
7
100
AcDbHatch
 10
0.0
 20
0.0
 30
0.0
210
0.0
220
0.0
230
1.0
  2
SOLID
 70
1
 71
0
 91
1
 92
3
 72
0
 73
1
 93
5
 10
2727.093832239867
 20
4724.095800539521
 10
2723.093832239867
 20
4724.095800539521
 10
2723.093832239867
 20
4634.095800539542
 10
2727.093832239867
 20
4634.095800539542
 10
2727.093832239867
 20
4724.095800539521
 97
0
 75
1
 76
1
 98
0
  0
HATCH
  5
193
330
17
100
AcDbEntity
  8
Hachura
 62
7
100
AcDbHatch
 10
0.0
 20
0.0
 30
0.0
210
0.0
220
0.0
230
1.0
  2
ANSI31
 70
0
 71
0
 91
1
 92
3
 72
0
 73
1
 93
5
 10
2685.093832239867
 20
4634.095800539542
 10
2685.093832239867
 20
4638.495800539536
 10
2699.093832239867
 20
4638.495800539536
 10
2699.093832239867
 20
4634.095800539542
 10
2685.093832239867
 20
4634.095800539542
 97
0
 75
1
 76
1
 52
0.0
 41
1.0
 77
0
 78
1
 53
45.0
 43
0.0
 44
0.0
 45
-2.2450640303
 46
2.2450640303
 79
0
 98
0
  0
HATCH
  5
194
330
17
100
AcDbEntity
  8
Hachura
 62
7
100
AcDbHatch
 10
0.0
 20
0.0
 30
0.0
210
0.0
220
0.0
230
1.0
  2
SOLID
 70
1
 71
0
 91
1
 92
3
 72
0
 73
1
 93
5
 10
2685.093832239867
 20
4638.495800539536
 10
2685.093832239867
 20
4642.095800539542
 10
2723.093832239867
 20
4642.095800539542
 10
2723.093832239867
 20
4638.495800539536
 10
2685.093832239867
 20
4638.495800539536
 97
0
 75
1
 76
1
 98
0
  0
HATCH
  5
195
330
17
100
AcDbEntity
  8
Hachura
 62
7
100
AcDbHatch
 10
0.0
 20
0.0
 30
0.0
210
0.0
220
0.0
230
1.0
  2
ANSI31
 70
0
 71
0
 91
1
 92
3
 72
0
 73
1
 93
5
 10
2723.093832239867
 20
4634.095800539542
 10
2723.093832239867
 20
4638.495800539536
 10
2709.093832239867
 20
4638.495800539536
 10
2709.093832239867
 20
4634.095800539542
 10
2723.093832239867
 20
4634.095800539542
 97
0
 75
1
 76
1
 52
0.0
 41
1.0
 77
0
 78
1
 53
45.0
 43
0.0
 44
0.0
 45
-2.2450640303
 46
2.2450640303
 79
0
 98
0
  0
HATCH
  5
196
330
17
100
AcDbEntity
  8
Hachura
 62
7
100
AcDbHatch
 10
0.0
 20
0.0
 30
0.0
210
0.0
220
0.0
230
1.0
  2
SOLID
 70
1
 71
0
 91
1
 92
3
 72
0
 73
1
 93
5
 10
2681.093832239867
 20
4752.095800539541
 10
2685.093832239867
 20
4752.095800539541
 10
2685.093832239867
 20
4634.095800539542
 10
2681.093832239867
 20
4634.095800539542
 10
2681.093832239867
 20
4752.095800539541
 97
0
 75
1
 76
1
 98
0
  0
HATCH
  5
197
330
17
100
AcDbEntity
  8
Hachura
 62
7
100
AcDbHatch
 10
0.0
 20
0.0
 30
0.0
210
0.0
220
0.0
230
1.0
  2
SOLID
 70
1
 71
0
 91
1
 92
3
 72
0
 73
1
 93
5
 10
2723.093832239867
 20
4724.095800539521
 10
2723.093832239867
 20
4728.09580053952
 10
2778.693832239844
 20
4728.095800539513
 10
2778.693832239844
 20
4724.095800539513
 10
2723.093832239867
 20
4724.095800539521
 97
0
 75
1
 76
1
 98
0
  0
HATCH
  5
198
330
17
100
AcDbEntity
  8
COTA
 62
7
100
AcDbHatch
 10
0.0
 20
0.0
 30
0.0
210
0.0
220
0.0
230
1.0
  2
AR-CONC
 70
0
 71
0
 91
1
 92
3
 72
0
 73
1
 93
6
 10
2348.408311030262
 20
4254.627811440996
 10
2348.408311030254
 20
4308.627811440993
 10
2326.408311030265
 20
4308.627811440994
 10
2326.408311030264
 20
4254.627811440992
 10
2348.408311030263
 20
4254.627811440996
 10
2348.408311030262
 20
4254.627811440996
 97
0
 75
1
 76
1
 52
0.0
 41
1.0
 77
0
 78
13
 53
50.0
 43
0.0
 44
0.0
 45
182.184668996
 46
-15.9390855389
 79
2
 49
19.05
 49
-209.55
 53
355.0
 43
0.0
 44
0.0
 45
-35.243421425
 46
191.056845239
 79
2
 49
15.24
 49
-167.64058417
 53
100.4514447
 43
15.182007
 44
-1.3282535
 45
146.9412470904
 46
175.1177519122
 79
2
 49
16.1900088
 49
-178.0902446
 53
46.1842
 43
0.0
 44
50.8
 45
271.0790408921
 46
-42.0423279327
 79
2
 49
28.575
 49
-314.325
 53
96.63555761
 43
22.5899
 44
47.2965
 45
237.4041340515
 46
247.4261245977
 79
2
 49
24.28502314
 49
-267.13560816
 53
351.18415117
 43
0.0
 44
50.8
 45
237.404134065
 46
247.4261245855
 79
2
 49
22.85996707
 49
-251.45973192
 53
21.0
 43
25.4
 44
38.1
 45
151.6143912691
 46
-102.2651981871
 79
2
 49
19.05
 49
-209.55
 53
326.0
 43
25.4
 44
38.1
 45
61.8020283476
 46
184.1879661223
 79
2
 49
15.24
 49
-167.64
 53
71.451445
 43
38.0345326
 44
29.5779001
 45
213.4164192787
 46
81.9227688859
 79
2
 49
16.1900088
 49
-178.0899376
 53
37.5
 43
0.0
 44
0.0
 45
3.0886032506
 46
84.5550388732
 79
6
 49
0.0
 49
-165.608
 49
0.0
 49
-170.18
 49
0.0
 49
-168.275
 53
7.5
 43
0.0
 44
0.0
 45
66.8196625103
 46
100.1805748181
 79
6
 49
0.0
 49
-97.028
 49
0.0
 49
-161.798
 49
0.0
 49
-64.135
 53
-32.5
 43
-56.642
 44
0.0
 45
135.5905951669
 46
-5.7287439927
 79
6
 49
0.0
 49
-63.5
 49
0.0
 49
-198.12
 49
0.0
 49
-262.89
 53
-42.5
 43
-82.042
 44
0.0
 45
148.129181386
 46
25.4264910333
 79
6
 49
0.0
 49
-82.55
 49
0.0
 49
-131.572
 49
0.0
 49
-186.69
 98
0
  0
HATCH
  5
199
330
17
100
AcDbEntity
  8
Hachura
 62
7
100
AcDbHatch
 10
0.0
 20
0.0
 30
0.0
210
0.0
220
0.0
230
1.0
  2
ANSI31
 70
0
 71
0
 91
1
 92
3
 72
0
 73
1
 93
5
 10
2434.203093621987
 20
4738.095800539542
 10
2429.803093621993
 20
4738.095800539542
 10
2429.803093621993
 20
4752.095800539541
 10
2434.203093621987
 20
4752.095800539541
 10
2434.203093621987
 20
4738.095800539542
 97
0
 75
1
 76
1
 52
0.0
 41
1.0
 77
0
 78
1
 53
45.0
 43
0.0
 44
0.0
 45
-2.2450640303
 46
2.2450640303
 79
0
 98
0
  0
HATCH
  5
19A
330
17
100
AcDbEntity
  8
Hachura
 62
7
100
AcDbHatch
 10
0.0
 20
0.0
 30
0.0
210
0.0
220
0.0
230
1.0
  2
ANSI31
 70
0
 71
0
 91
1
 92
3
 72
0
 73
1
 93
5
 10
2434.203093621995
 20
4690.065858067848
 10
2429.803093622
 20
4690.065858067848
 10
2429.803093622
 20
4704.065858067848
 10
2434.203093621995
 20
4704.065858067848
 10
2434.203093621995
 20
4690.065858067848
 97
0
 75
1
 76
1
 52
0.0
 41
1.0
 77
0
 78
1
 53
45.0
 43
0.0
 44
0.0
 45
-2.2450640303
 46
2.2450640303
 79
0
 98
0
  0
HATCH
  5
19B
330
17
100
AcDbEntity
  8
Hachura
 62
7
100
AcDbHatch
 10
0.0
 20
0.0
 30
0.0
210
0.0
220
0.0
230
1.0
  2
ANSI31
 70
0
 71
0
 91
1
 92
3
 72
0
 73
1
 93
5
 10
2434.203093622002
 20
4634.095800539542
 10
2429.803093622008
 20
4634.095800539542
 10
2429.803093622008
 20
4648.095800539542
 10
2434.203093622002
 20
4648.095800539542
 10
2434.203093622002
 20
4634.095800539542
 97
0
 75
1
 76
1
 52
0.0
 41
1.0
 77
0
 78
1
 53
45.0
 43
0.0
 44
0.0
 45
-2.2450640303
 46
2.2450640303
 79
0
 98
0
  0
HATCH
  5
19C
330
17
100
AcDbEntity
  8
Hachura
 62
7
100
AcDbHatch
 10
0.0
 20
0.0
 30
0.0
210
0.0
220
0.0
230
1.0
  2
ANSI31
 70
0
 71
0
 91
1
 92
3
 72
0
 73
1
 93
5
 10
2681.093832239856
 20
4738.095800539542
 10
2676.693832239862
 20
4738.095800539542
 10
2676.693832239862
 20
4752.095800539541
 10
2681.093832239856
 20
4752.095800539541
 10
2681.093832239856
 20
4738.095800539542
 97
0
 75
1
 76
1
 52
0.0
 41
1.0
 77
0
 78
1
 53
45.0
 43
0.0
 44
0.0
 45
-2.2450640303
 46
2.2450640303
 79
0
 98
0
  0
HATCH
  5
19D
330
17
100
AcDbEntity
  8
Hachura
 62
7
100
AcDbHatch
 10
0.0
 20
0.0
 30
0.0
210
0.0
220
0.0
230
1.0
  2
ANSI31
 70
0
 71
0
 91
1
 92
3
 72
0
 73
1
 93
5
 10
2681.093832239863
 20
4690.065858067848
 10
2676.693832239869
 20
4690.065858067848
 10
2676.693832239869
 20
4704.065858067848
 10
2681.093832239863
 20
4704.065858067848
 10
2681.093832239863
 20
4690.065858067848
 97
0
 75
1
 76
1
 52
0.0
 41
1.0
 77
0
 78
1
 53
45.0
 43
0.0
 44
0.0
 45
-2.2450640303
 46
2.2450640303
 79
0
 98
0
  0
HATCH
  5
19E
330
17
100
AcDbEntity
  8
Hachura
 62
7
100
AcDbHatch
 10
0.0
 20
0.0
 30
0.0
210
0.0
220
0.0
230
1.0
  2
ANSI31
 70
0
 71
0
 91
1
 92
3
 72
0
 73
1
 93
5
 10
2681.093832239867
 20
4634.095800539542
 10
2676.693832239873
 20
4634.095800539542
 10
2676.693832239873
 20
4648.095800539542
 10
2681.093832239867
 20
4648.095800539542
 10
2681.093832239867
 20
4634.095800539542
 97
0
 75
1
 76
1
 52
0.0
 41
1.0
 77
0
 78
1
 53
45.0
 43
0.0
 44
0.0
 45
-2.2450640303
 46
2.2450640303
 79
0
 98
0
  0
HATCH
  5
19F
330
17
100
AcDbEntity
  8
Hachura
 62
7
100
AcDbHatch
 10
0.0
 20
0.0
 30
0.0
210
0.0
220
0.0
230
1.0
  2
ANSI31
 70
0
 71
0
 91
1
 92
3
 72
0
 73
1
 93
5
 10
2480.203093621998
 20
4738.095800539542
 10
2484.603093621992
 20
4738.095800539542
 10
2484.603093621992
 20
4752.095800539541
 10
2480.203093621998
 20
4752.095800539541
 10
2480.203093621998
 20
4738.095800539542
 97
0
 75
1
 76
1
 52
0.0
 41
1.0
 77
0
 78
1
 53
45.0
 43
0.0
 44
0.0
 45
-2.2450640303
 46
2.2450640303
 79
0
 98
0
  0
HATCH
  5
1A0
330
17
100
AcDbEntity
  8
Hachura
 62
7
100
AcDbHatch
 10
0.0
 20
0.0
 30
0.0
210
0.0
220
0.0
230
1.0
  2
ANSI31
 70
0
 71
0
 91
1
 92
3
 72
0
 73
1
 93
5
 10
2480.203093621995
 20
4690.065858067848
 10
2484.603093621989
 20
4690.065858067848
 10
2484.603093621989
 20
4704.065858067848
 10
2480.203093621995
 20
4704.065858067848
 10
2480.203093621995
 20
4690.065858067848
 97
0
 75
1
 76
1
 52
0.0
 41
1.0
 77
0
 78
1
 53
45.0
 43
0.0
 44
0.0
 45
-2.2450640303
 46
2.2450640303
 79
0
 98
0
  0
HATCH
  5
1A1
330
17
100
AcDbEntity
  8
Hachura
 62
7
100
AcDbHatch
 10
0.0
 20
0.0
 30
0.0
210
0.0
220
0.0
230
1.0
  2
ANSI31
 70
0
 71
0
 91
1
 92
3
 72
0
 73
1
 93
5
 10
2480.203093621987
 20
4634.095800539542
 10
2484.603093621982
 20
4634.095800539542
 10
2484.603093621982
 20
4648.095800539542
 10
2480.203093621987
 20
4648.095800539542
 10
2480.203093621987
 20
4634.095800539542
 97
0
 75
1
 76
1
 52
0.0
 41
1.0
 77
0
 78
1
 53
45.0
 43
0.0
 44
0.0
 45
-2.2450640303
 46
2.2450640303
 79
0
 98
0
  0
HATCH
  5
1A2
330
17
100
AcDbEntity
  8
Hachura
 62
7
100
AcDbHatch
 10
0.0
 20
0.0
 30
0.0
210
0.0
220
0.0
230
1.0
  2
ANSI31
 70
0
 71
0
 91
1
 92
3
 72
0
 73
1
 93
5
 10
2731.493832239861
 20
4710.09580053952
 10
2727.093832239867
 20
4710.09580053952
 10
2727.093832239867
 20
4724.095800539521
 10
2731.493832239861
 20
4724.095800539521
 10
2731.493832239861
 20
4710.09580053952
 97
0
 75
1
 76
1
 52
0.0
 41
1.0
 77
0
 78
1
 53
45.0
 43
0.0
 44
0.0
 45
-2.2450640303
 46
2.2450640303
 79
0
 98
0
  0
HATCH
  5
1A3
330
17
100
AcDbEntity
  8
Hachura
 62
7
100
AcDbHatch
 10
0.0
 20
0.0
 30
0.0
210
0.0
220
0.0
230
1.0
  2
ANSI31
 70
0
 71
0
 91
1
 92
3
 72
0
 73
1
 93
5
 10
2731.493832239861
 20
4634.095800539542
 10
2727.093832239867
 20
4634.095800539542
 10
2727.093832239867
 20
4648.095800539542
 10
2731.493832239861
 20
4648.095800539542
 10
2731.493832239861
 20
4634.095800539542
 97
0
 75
1
 76
1
 52
0.0
 41
1.0
 77
0
 78
1
 53
45.0
 43
0.0
 44
0.0
 45
-2.2450640303
 46
2.2450640303
 79
0
 98
0
  0
HATCH
  5
1A4
330
17
100
AcDbEntity
  8
Hachura
 62
7
100
AcDbHatch
 10
0.0
 20
0.0
 30
0.0
210
0.0
220
0.0
230
1.0
  2
ANSI31
 70
0
 71
0
 91
1
 92
3
 72
0
 73
1
 93
5
 10
2731.493832239861
 20
4672.095800539532
 10
2727.093832239867
 20
4672.095800539532
 10
2727.093832239867
 20
4686.095800539532
 10
2731.493832239861
 20
4686.095800539532
 10
2731.493832239861
 20
4672.095800539532
 97
0
 75
1
 76
1
 52
0.0
 41
1.0
 77
0
 78
1
 53
45.0
 43
0.0
 44
0.0
 45
-2.2450640303
 46
2.2450640303
 79
0
 98
0
  0
HATCH
  5
1A5
330
17
100
AcDbEntity
  8
REAPROVEITAMENTO
 62
7
100
AcDbHatch
 10
0.0
 20
0.0
 30
0.0
210
0.0
220
0.0
230
1.0
  2
ANSI31
 70
0
 71
0
 91
1
 92
3
 72
0
 73
1
 93
6
 10
2886.394402533993
 20
4462.724898717056
 10
2886.39440253399
 20
4521.724898717059
 10
2201.894402533992
 20
4521.724898717055
 10
2201.894402533993
 20
4462.724898717053
 10
2886.394402533995
 20
4462.724898717056
 10
2886.394402533993
 20
4462.724898717056
 97
0
 75
1
 76
1
 52
0.0
 41
1.0
 77
0
 78
1
 53
45.0
 43
0.0
 44
0.0
 45
-2.2450640303
 46
2.2450640303
 79
0
 98
0
  0
HATCH
  5
1A6
330
17
100
AcDbEntity
  8
REAPROVEITAMENTO
 62
7
100
AcDbHatch
 10
0.0
 20
0.0
 30
0.0
210
0.0
220
0.0
230
1.0
  2
ANSI31
 70
0
 71
0
 91
1
 92
3
 72
0
 73
1
 93
8
 10
2326.408311030265
 20
4254.627811440995
 10
2326.408311030265
 20
4308.627811441003
 10
2202.40831103026
 20
4308.627811441009
 10
2202.408311030262
 20
4249.627811440992
 10
2348.40831103026
 20
4249.627811440983
 10
2348.408311030258
 20
4254.627811440993
 10
2326.408311030264
 20
4254.627811440995
 10
2326.408311030265
 20
4254.627811440995
 97
0
 75
1
 76
1
 52
0.0
 41
1.0
 77
0
 78
1
 53
45.0
 43
0.0
 44
0.0
 45
-2.2450640303
 46
2.2450640303
 79
0
 98
0
  0
HATCH
  5
1A7
330
17
100
AcDbEntity
  8
REAPROVEITAMENTO
 62
7
100
AcDbHatch
 10
0.0
 20
0.0
 30
0.0
210
0.0
220
0.0
230
1.0
  2
ANSI31
 70
0
 71
0
 91
1
 92
3
 72
0
 73
1
 93
6
 10
2592.408311030258
 20
4249.627811441011
 10
2592.408311030255
 20
4308.627811441012
 10
2348.408311030253
 20
4308.627811440994
 10
2348.408311030254
 20
4249.627811440993
 10
2592.40831103026
 20
4249.627811441011
 10
2592.408311030258
 20
4249.627811441011
 97
0
 75
1
 76
1
 52
0.0
 41
1.0
 77
0
 78
1
 53
45.0
 43
0.0
 44
0.0
 45
-2.2450640303
 46
2.2450640303
 79
0
 98
0
  0
HATCH
  5
1A8
330
17
100
AcDbEntity
  8
REAPROVEITAMENTO
 62
7
100
AcDbHatch
 10
0.0
 20
0.0
 30
0.0
210
0.0
220
0.0
230
1.0
  2
ANSI31
 70
0
 71
0
 91
1
 92
3
 72
0
 73
1
 93
5
 10
2772.40831103026
 20
4249.627811441011
 10
2772.408311030258
 20
4308.627811441009
 10
2592.408311030255
 20
4308.627811441007
 10
2592.408311030255
 20
4249.627811441007
 10
2772.40831103026
 20
4249.627811441011
 97
0
 75
1
 76
1
 52
0.0
 41
1.0
 77
0
 78
1
 53
45.0
 43
0.0
 44
0.0
 45
-2.2450640303
 46
2.2450640303
 79
0
 98
0
  0
HATCH
  5
1A9
330
17
100
AcDbEntity
  8
REAPROVEITAMENTO
 62
7
100
AcDbHatch
 10
0.0
 20
0.0
 30
0.0
210
0.0
220
0.0
230
1.0
  2
ANSI31
 70
0
 71
0
 91
1
 92
3
 72
0
 73
1
 93
7
 10
2920.408311030259
 20
4249.62781144099
 10
2920.408311030259
 20
4294.627811440971
 10
2799.408311030251
 20
4294.62781144097
 10
2799.408311030259
 20
4254.627811440965
 10
2772.408311030258
 20
4254.627811440965
 10
2772.408311030258
 20
4249.627811440964
 10
2920.408311030259
 20
4249.62781144099
 97
0
 75
1
 76
1
 52
0.0
 41
1.0
 77
0
 78
1
 53
45.0
 43
0.0
 44
0.0
 45
-2.2450640303
 46
2.2450640303
 79
0
 98
0
  0
ENDSEC
  0
SECTION
  2
OBJECTS
  0
DICTIONARY
  5
A
330
0
100
AcDbDictionary
281
1
  3
ACAD_COLOR
350
B
  3
ACAD_GROUP
350
C
  3
ACAD_LAYOUT
350
D
  3
ACAD_MATERIAL
350
E
  3
ACAD_MLEADERSTYLE
350
F
  3
ACAD_MLINESTYLE
350
10
  3
ACAD_PLOTSETTINGS
350
11
  3
ACAD_PLOTSTYLENAME
350
12
  3
ACAD_SCALELIST
350
14
  3
ACAD_TABLESTYLE
350
15
  3
ACAD_VISUALSTYLE
350
16
  3
EZDXF_META
350
2D
  0
DICTIONARY
  5
B
330
A
100
AcDbDictionary
281
1
  0
DICTIONARY
  5
C
330
A
100
AcDbDictionary
281
1
  0
DICTIONARY
  5
D
330
A
100
AcDbDictionary
281
1
  3
Model
350
1A
  3
Layout1
350
1E
  0
DICTIONARY
  5
E
330
A
100
AcDbDictionary
281
1
  3
ByBlock
350
1F
  3
ByLayer
350
20
  3
Global
350
21
  0
DICTIONARY
  5
F
330
A
100
AcDbDictionary
281
1
  3
Standard
350
2C
  0
DICTIONARY
  5
10
330
A
100
AcDbDictionary
281
1
  3
Standard
350
22
  0
DICTIONARY
  5
11
330
A
100
AcDbDictionary
281
1
  0
ACDBDICTIONARYWDFLT
  5
12
330
A
100
AcDbDictionary
281
1
  3
Normal
350
13
100
AcDbDictionaryWithDefault
340
13
  0
ACDBPLACEHOLDER
  5
13
330
12
  0
DICTIONARY
  5
14
330
A
100
AcDbDictionary
281
1
  0
DICTIONARY
  5
15
330
A
100
AcDbDictionary
281
1
  0
DICTIONARY
  5
16
330
A
100
AcDbDictionary
281
1
  0
LAYOUT
  5
1A
330
D
100
AcDbPlotSettings
  1

  4
A3
  6

 40
7.5
 41
20.0
 42
7.5
 43
20.0
 44
420.0
 45
297.0
 46
0.0
 47
0.0
 48
0.0
 49
0.0
140
0.0
141
0.0
142
1.0
143
1.0
 70
1024
 72
1
 73
0
 74
5
  7

 75
16
 76
0
 77
2
 78
300
147
1.0
148
0.0
149
0.0
100
AcDbLayout
  1
Model
 70
1
 71
0
 10
0.0
 20
0.0
 11
420.0
 21
297.0
 12
0.0
 22
0.0
 32
0.0
 14
1e+20
 24
1e+20
 34
1e+20
 15
-1e+20
 25
-1e+20
 35
-1e+20
146
0.0
 13
0.0
 23
0.0
 33
0.0
 16
1.0
 26
0.0
 36
0.0
 17
0.0
 27
1.0
 37
0.0
 76
1
330
17
  0
LAYOUT
  5
1E
330
D
100
AcDbPlotSettings
  1

  4
A3
  6

 40
7.5
 41
20.0
 42
7.5
 43
20.0
 44
420.0
 45
297.0
 46
0.0
 47
0.0
 48
0.0
 49
0.0
140
0.0
141
0.0
142
1.0
143
1.0
 70
0
 72
1
 73
0
 74
5
  7

 75
16
 76
0
 77
2
 78
300
147
1.0
148
0.0
149
0.0
100
AcDbLayout
  1
Layout1
 70
1
 71
1
 10
0.0
 20
0.0
 11
420.0
 21
297.0
 12
0.0
 22
0.0
 32
0.0
 14
1e+20
 24
1e+20
 34
1e+20
 15
-1e+20
 25
-1e+20
 35
-1e+20
146
0.0
 13
0.0
 23
0.0
 33
0.0
 16
1.0
 26
0.0
 36
0.0
 17
0.0
 27
1.0
 37
0.0
 76
1
330
1B
  0
MATERIAL
  5
1F
102
{ACAD_REACTORS
330
E
102
}
330
E
100
AcDbMaterial
  1
ByBlock
  2

 70
0
 40
1.0
 71
1
 41
1.0
 91
-1023410177
 42
1.0
 72
1
  3

 73
1
 74
1
 75
1
 44
0.5
 73
0
 45
1.0
 46
1.0
 77
1
  4

 78
1
 79
1
170
1
 48
1.0
171
1
  6

172
1
173
1
174
1
140
1.0
141
1.0
175
1
  7

176
1
177
1
178
1
143
1.0
179
1
  8

270
1
271
1
272
1
145
1.0
146
1.0
273
1
  9

274
1
275
1
276
1
 42
1.0
 72
1
  3

 73
1
 74
1
 75
1
 94
63
  0
MATERIAL
  5
20
102
{ACAD_REACTORS
330
E
102
}
330
E
100
AcDbMaterial
  1
ByLayer
  2

 70
0
 40
1.0
 71
1
 41
1.0
 91
-1023410177
 42
1.0
 72
1
  3

 73
1
 74
1
 75
1
 44
0.5
 73
0
 45
1.0
 46
1.0
 77
1
  4

 78
1
 79
1
170
1
 48
1.0
171
1
  6

172
1
173
1
174
1
140
1.0
141
1.0
175
1
  7

176
1
177
1
178
1
143
1.0
179
1
  8

270
1
271
1
272
1
145
1.0
146
1.0
273
1
  9

274
1
275
1
276
1
 42
1.0
 72
1
  3

 73
1
 74
1
 75
1
 94
63
  0
MATERIAL
  5
21
102
{ACAD_REACTORS
330
E
102
}
330
E
100
AcDbMaterial
  1
Global
  2

 70
0
 40
1.0
 71
1
 41
1.0
 91
-1023410177
 42
1.0
 72
1
  3

 73
1
 74
1
 75
1
 44
0.5
 73
0
 45
1.0
 46
1.0
 77
1
  4

 78
1
 79
1
170
1
 48
1.0
171
1
  6

172
1
173
1
174
1
140
1.0
141
1.0
175
1
  7

176
1
177
1
178
1
143
1.0
179
1
  8

270
1
271
1
272
1
145
1.0
146
1.0
273
1
  9

274
1
275
1
276
1
 42
1.0
 72
1
  3

 73
1
 74
1
 75
1
 94
63
  0
MLINESTYLE
  5
22
102
{ACAD_REACTORS
330
10
102
}
330
10
100
AcDbMlineStyle
  2
Standard
 70
0
  3

 62
256
 51
90.0
 52
90.0
 71
2
 49
0.5
 62
256
  6
BYLAYER
 49
-0.5
 62
256
  6
BYLAYER
  0
MLEADERSTYLE
  5
2C
102
{ACAD_REACTORS
330
F
102
}
330
F
100
AcDbMLeaderStyle
179
2
170
2
171
1
172
0
 90
2
 40
0.0
 41
0.0
173
1
 91
-1056964608
 92
-2
290
1
 42
2.0
291
1
 43
8.0
  3
Standard
 44
4.0
300

342
29
174
1
175
1
176
0
178
1
 93
-1056964608
 45
4.0
292
0
297
0
 46
4.0
 94
-1056964608
 47
1.0
 49
1.0
140
1.0
294
1
141
0.0
177
0
142
1.0
295
0
296
0
143
3.75
271
0
272
9
273
9
  0
DICTIONARY
  5
2D
330
A
100
AcDbDictionary
280
1
281
1
  3
CREATED_BY_EZDXF
350
2E
  3
WRITTEN_BY_EZDXF
350
1AC
  0
DICTIONARYVAR
  5
2E
330
2D
100
DictionaryVariables
280
0
  1
1.4.3 @ 2026-06-10T17:42:09.086282+00:00
  0
DICTIONARYVAR
  5
1AC
330
2D
100
DictionaryVariables
280
0
  1
1.4.3 @ 2026-06-10T17:42:09.099044+00:00
  0
ENDSEC
  0
EOF
