  0
SECTION
  2
HEADER
  9
$ACADVER
  1
AC1015
  9
$ACADMAINTVER
 70
6
  9
$DWGCODEPAGE
  3
ANSI_1252
  9
$INSBASE
 10
0.0
 20
0.0
 30
0.0
  9
$EXTMIN
 10
1e+20
 20
1e+20
 30
1e+20
  9
$EXTMAX
 10
-1e+20
 20
-1e+20
 30
-1e+20
  9
$LIMMIN
 10
0.0
 20
0.0
  9
$LIMMAX
 10
420.0
 20
297.0
  9
$ORTHOMODE
 70
0
  9
$REGENMODE
 70
1
  9
$FILLMODE
 70
1
  9
$QTEXTMODE
 70
0
  9
$MIRRTEXT
 70
1
  9
$LTSCALE
 40
1.0
  9
$ATTMODE
 70
1
  9
$TEXTSIZE
 40
2.5
  9
$TRACEWID
 40
1.0
  9
$TEXTSTYLE
  7
Standard
  9
$CLAYER
  8
0
  9
$CELTYPE
  6
ByLayer
  9
$CECOLOR
 62
256
  9
$CELTSCALE
 40
1.0
  9
$DISPSILH
 70
0
  9
$DIMSCALE
 40
1.0
  9
$DIMASZ
 40
2.5
  9
$DIMEXO
 40
0.625
  9
$DIMDLI
 40
3.75
  9
$DIMRND
 40
0.0
  9
$DIMDLE
 40
0.0
  9
$DIMEXE
 40
1.25
  9
$DIMTP
 40
0.0
  9
$DIMTM
 40
0.0
  9
$DIMTXT
 40
2.5
  9
$DIMCEN
 40
2.5
  9
$DIMTSZ
 40
0.0
  9
$DIMTOL
 70
0
  9
$DIMLIM
 70
0
  9
$DIMTIH
 70
0
  9
$DIMTOH
 70
0
  9
$DIMSE1
 70
0
  9
$DIMSE2
 70
0
  9
$DIMTAD
 70
1
  9
$DIMZIN
 70
8
  9
$DIMBLK
  1

  9
$DIMASO
 70
1
  9
$DIMSHO
 70
1
  9
$DIMPOST
  1

  9
$DIMAPOST
  1

  9
$DIMALT
 70
0
  9
$DIMALTD
 70
3
  9
$DIMALTF
 40
0.03937007874
  9
$DIMLFAC
 40
1.0
  9
$DIMTOFL
 70
1
  9
$DIMTVP
 40
0.0
  9
$DIMTIX
 70
0
  9
$DIMSOXD
 70
0
  9
$DIMSAH
 70
0
  9
$DIMBLK1
  1

  9
$DIMBLK2
  1

  9
$DIMSTYLE
  2
ISO-25
  9
$DIMCLRD
 70
0
  9
$DIMCLRE
 70
0
  9
$DIMCLRT
 70
0
  9
$DIMTFAC
 40
1.0
  9
$DIMGAP
 40
0.625
  9
$DIMJUST
 70
0
  9
$DIMSD1
 70
0
  9
$DIMSD2
 70
0
  9
$DIMTOLJ
 70
0
  9
$DIMTZIN
 70
8
  9
$DIMALTZ
 70
0
  9
$DIMALTTZ
 70
0
  9
$DIMUPT
 70
0
  9
$DIMDEC
 70
2
  9
$DIMTDEC
 70
2
  9
$DIMALTU
 70
2
  9
$DIMALTTD
 70
3
  9
$DIMTXSTY
  7
Standard
  9
$DIMAUNIT
 70
0
  9
$DIMADEC
 70
0
  9
$DIMALTRND
 40
0.0
  9
$DIMAZIN
 70
0
  9
$DIMDSEP
 70
44
  9
$DIMATFIT
 70
3
  9
$DIMFRAC
 70
0
  9
$DIMLDRBLK
  1

  9
$DIMLUNIT
 70
2
  9
$DIMLWD
 70
-2
  9
$DIMLWE
 70
-2
  9
$DIMTMOVE
 70
0
  9
$LUNITS
 70
2
  9
$LUPREC
 70
4
  9
$SKETCHINC
 40
1.0
  9
$FILLETRAD
 40
10.0
  9
$AUNITS
 70
0
  9
$AUPREC
 70
2
  9
$MENU
  1
.
  9
$ELEVATION
 40
0.0
  9
$PELEVATION
 40
0.0
  9
$THICKNESS
 40
0.0
  9
$LIMCHECK
 70
0
  9
$CHAMFERA
 40
0.0
  9
$CHAMFERB
 40
0.0
  9
$CHAMFERC
 40
0.0
  9
$CHAMFERD
 40
0.0
  9
$SKPOLY
 70
0
  9
$TDCREATE
 40
2461111.8777314816
  9
$TDUCREATE
 40
2458532.153996898
  9
$TDUPDATE
 40
2461111.8777314816
  9
$TDUUPDATE
 40
2458532.1544311
  9
$TDINDWG
 40
0.0
  9
$TDUSRTIMER
 40
0.0
  9
$USRTIMER
 70
1
  9
$ANGBASE
 50
0.0
  9
$ANGDIR
 70
0
  9
$PDMODE
 70
0
  9
$PDSIZE
 40
0.0
  9
$PLINEWID
 40
0.0
  9
$SPLFRAME
 70
0
  9
$SPLINETYPE
 70
6
  9
$SPLINESEGS
 70
8
  9
$HANDSEED
  5
226
  9
$SURFTAB1
 70
6
  9
$SURFTAB2
 70
6
  9
$SURFTYPE
 70
6
  9
$SURFU
 70
6
  9
$SURFV
 70
6
  9
$UCSBASE
  2

  9
$UCSNAME
  2

  9
$UCSORG
 10
0.0
 20
0.0
 30
0.0
  9
$UCSXDIR
 10
1.0
 20
0.0
 30
0.0
  9
$UCSYDIR
 10
0.0
 20
1.0
 30
0.0
  9
$UCSORTHOREF
  2

  9
$UCSORTHOVIEW
 70
0
  9
$UCSORGTOP
 10
0.0
 20
0.0
 30
0.0
  9
$UCSORGBOTTOM
 10
0.0
 20
0.0
 30
0.0
  9
$UCSORGLEFT
 10
0.0
 20
0.0
 30
0.0
  9
$UCSORGRIGHT
 10
0.0
 20
0.0
 30
0.0
  9
$UCSORGFRONT
 10
0.0
 20
0.0
 30
0.0
  9
$UCSORGBACK
 10
0.0
 20
0.0
 30
0.0
  9
$PUCSBASE
  2

  9
$PUCSNAME
  2

  9
$PUCSORG
 10
0.0
 20
0.0
 30
0.0
  9
$PUCSXDIR
 10
1.0
 20
0.0
 30
0.0
  9
$PUCSYDIR
 10
0.0
 20
1.0
 30
0.0
  9
$PUCSORTHOREF
  2

  9
$PUCSORTHOVIEW
 70
0
  9
$PUCSORGTOP
 10
0.0
 20
0.0
 30
0.0
  9
$PUCSORGBOTTOM
 10
0.0
 20
0.0
 30
0.0
  9
$PUCSORGLEFT
 10
0.0
 20
0.0
 30
0.0
  9
$PUCSORGRIGHT
 10
0.0
 20
0.0
 30
0.0
  9
$PUCSORGFRONT
 10
0.0
 20
0.0
 30
0.0
  9
$PUCSORGBACK
 10
0.0
 20
0.0
 30
0.0
  9
$USERI1
 70
0
  9
$USERI2
 70
0
  9
$USERI3
 70
0
  9
$USERI4
 70
0
  9
$USERI5
 70
0
  9
$USERR1
 40
0.0
  9
$USERR2
 40
0.0
  9
$USERR3
 40
0.0
  9
$USERR4
 40
0.0
  9
$USERR5
 40
0.0
  9
$WORLDVIEW
 70
1
  9
$SHADEDGE
 70
3
  9
$SHADEDIF
 70
70
  9
$TILEMODE
 70
1
  9
$MAXACTVP
 70
64
  9
$PINSBASE
 10
0.0
 20
0.0
 30
0.0
  9
$PLIMCHECK
 70
0
  9
$PEXTMIN
 10
1e+20
 20
1e+20
 30
1e+20
  9
$PEXTMAX
 10
-1e+20
 20
-1e+20
 30
-1e+20
  9
$PLIMMIN
 10
0.0
 20
0.0
  9
$PLIMMAX
 10
420.0
 20
297.0
  9
$UNITMODE
 70
0
  9
$VISRETAIN
 70
1
  9
$PLINEGEN
 70
0
  9
$PSLTSCALE
 70
1
  9
$TREEDEPTH
 70
3020
  9
$CMLSTYLE
  2
Standard
  9
$CMLJUST
 70
0
  9
$CMLSCALE
 40
20.0
  9
$PROXYGRAPHICS
 70
1
  9
$MEASUREMENT
 70
1
  9
$CELWEIGHT
370
-1
  9
$ENDCAPS
280
0
  9
$JOINSTYLE
280
0
  9
$LWDISPLAY
290
0
  9
$INSUNITS
 70
6
  9
$HYPERLINKBASE
  1

  9
$STYLESHEET
  1

  9
$XEDIT
290
1
  9
$CEPSNTYPE
380
0
  9
$PSTYLEMODE
290
1
  9
$FINGERPRINTGUID
  2
{E489794B-521C-4943-B51A-22BB3B755D39}
  9
$VERSIONGUID
  2
{215EC3B8-9D5D-47EF-87CC-BADFEB0E7D02}
  9
$EXTNAMES
290
1
  9
$PSVPSCALE
 40
0.0
  9
$OLESTARTUP
290
0
  0
ENDSEC
  0
SECTION
  2
CLASSES
  0
CLASS
  1
ACDBDICTIONARYWDFLT
  2
AcDbDictionaryWithDefault
  3
ObjectDBX Classes
 90
0
280
0
281
0
  0
CLASS
  1
SUN
  2
AcDbSun
  3
SCENEOE
 90
1153
280
0
281
0
  0
CLASS
  1
VISUALSTYLE
  2
AcDbVisualStyle
  3
ObjectDBX Classes
 90
4095
280
0
281
0
  0
CLASS
  1
MATERIAL
  2
AcDbMaterial
  3
ObjectDBX Classes
 90
1153
280
0
281
0
  0
CLASS
  1
SCALE
  2
AcDbScale
  3
ObjectDBX Classes
 90
1153
280
0
281
0
  0
CLASS
  1
TABLESTYLE
  2
AcDbTableStyle
  3
ObjectDBX Classes
 90
4095
280
0
281
0
  0
CLASS
  1
MLEADERSTYLE
  2
AcDbMLeaderStyle
  3
ACDB_MLEADERSTYLE_CLASS
 90
4095
280
0
281
0
  0
CLASS
  1
DICTIONARYVAR
  2
AcDbDictionaryVar
  3
ObjectDBX Classes
 90
0
280
0
281
0
  0
CLASS
  1
CELLSTYLEMAP
  2
AcDbCellStyleMap
  3
ObjectDBX Classes
 90
1152
280
0
281
0
  0
CLASS
  1
MENTALRAYRENDERSETTINGS
  2
AcDbMentalRayRenderSettings
  3
SCENEOE
 90
1024
280
0
281
0
  0
CLASS
  1
ACDBDETAILVIEWSTYLE
  2
AcDbDetailViewStyle
  3
ObjectDBX Classes
 90
1025
280
0
281
0
  0
CLASS
  1
ACDBSECTIONVIEWSTYLE
  2
AcDbSectionViewStyle
  3
ObjectDBX Classes
 90
1025
280
0
281
0
  0
CLASS
  1
RASTERVARIABLES
  2
AcDbRasterVariables
  3
ISM
 90
0
280
0
281
0
  0
CLASS
  1
ACDBPLACEHOLDER
  2
AcDbPlaceHolder
  3
ObjectDBX Classes
 90
0
280
0
281
0
  0
CLASS
  1
LAYOUT
  2
AcDbLayout
  3
ObjectDBX Classes
 90
0
280
0
281
0
  0
ENDSEC
  0
SECTION
  2
TABLES
  0
TABLE
  2
VPORT
  5
8
330
0
100
AcDbSymbolTable
 70
1
  0
VPORT
  5
23
330
8
100
AcDbSymbolTableRecord
100
AcDbViewportTableRecord
  2
*Active
 70
0
 10
0.0
 20
0.0
 11
1.0
 21
1.0
 12
0.0
 22
0.0
 13
0.0
 23
0.0
 14
0.5
 24
0.5
 15
0.5
 25
0.5
 16
0.0
 26
0.0
 36
1.0
 17
0.0
 27
0.0
 37
0.0
 40
1000.0
 41
1.34
 42
50.0
 43
0.0
 44
0.0
 50
0.0
 51
0.0
 71
0
 72
1000
 73
1
 74
3
 75
0
 76
0
 77
0
 78
0
281
0
 65
0
146
0.0
  0
ENDTAB
  0
TABLE
  2
LTYPE
  5
2
330
0
100
AcDbSymbolTable
 70
3
  0
LTYPE
  5
24
330
2
100
AcDbSymbolTableRecord
100
AcDbLinetypeTableRecord
  2
ByBlock
 70
0
  3

 72
65
 73
0
 40
0.0
  0
LTYPE
  5
25
330
2
100
AcDbSymbolTableRecord
100
AcDbLinetypeTableRecord
  2
ByLayer
 70
0
  3

 72
65
 73
0
 40
0.0
  0
LTYPE
  5
26
330
2
100
AcDbSymbolTableRecord
100
AcDbLinetypeTableRecord
  2
Continuous
 70
0
  3

 72
65
 73
0
 40
0.0
  0
ENDTAB
  0
TABLE
  2
LAYER
  5
1
330
0
100
AcDbSymbolTable
 70
23
  0
LAYER
  5
27
330
1
100
AcDbSymbolTableRecord
100
AcDbLayerTableRecord
  2
0
 70
0
 62
7
  6
Continuous
370
-3
390
13
  0
LAYER
  5
28
330
1
100
AcDbSymbolTableRecord
100
AcDbLayerTableRecord
  2
Defpoints
 70
0
 62
7
  6
Continuous
290
0
370
-3
390
13
  0
LAYER
  5
2F
330
1
100
AcDbSymbolTableRecord
100
AcDbLayerTableRecord
  2
Painéis
 70
0
 62
200
  6
Continuous
370
-3
390
13
  0
LAYER
  5
30
330
1
100
AcDbSymbolTableRecord
100
AcDbLayerTableRecord
  2
CONCRETO
 70
0
 62
251
  6
Continuous
370
-3
390
13
  0
LAYER
  5
31
330
1
100
AcDbSymbolTableRecord
100
AcDbLayerTableRecord
  2
SARR_3.5x7
 70
0
 62
81
  6
Continuous
370
-3
390
13
  0
LAYER
  5
32
330
1
100
AcDbSymbolTableRecord
100
AcDbLayerTableRecord
  2
Madeira
 70
0
 62
126
  6
Continuous
370
-3
390
13
  0
LAYER
  5
33
330
1
100
AcDbSymbolTableRecord
100
AcDbLayerTableRecord
  2
Texto Seção
 70
0
 62
7
  6
Continuous
370
-3
390
13
  0
LAYER
  5
34
330
1
100
AcDbSymbolTableRecord
100
AcDbLayerTableRecord
  2
COTA
 70
0
 62
4
  6
Continuous
370
-3
390
13
  0
LAYER
  5
35
330
1
100
AcDbSymbolTableRecord
100
AcDbLayerTableRecord
  2
Cota Seção (2x)
 70
0
 62
4
  6
Continuous
370
-3
390
13
  0
LAYER
  5
36
330
1
100
AcDbSymbolTableRecord
100
AcDbLayerTableRecord
  2
NOMENCLATURA
 70
0
 62
7
  6
Continuous
370
-3
390
13
  0
LAYER
  5
37
330
1
100
AcDbSymbolTableRecord
100
AcDbLayerTableRecord
  2
Hachura
 70
0
 62
253
  6
Continuous
370
-3
390
13
  0
LAYER
  5
38
330
1
100
AcDbSymbolTableRecord
100
AcDbLayerTableRecord
  2
REAPROVEITAMENTO
 70
0
 62
251
  6
Continuous
370
-3
390
13
  0
LAYER
  5
39
330
1
100
AcDbSymbolTableRecord
100
AcDbLayerTableRecord
  2
SARR_2.2x7
 70
0
 62
40
  6
Continuous
370
-3
390
13
  0
LAYER
  5
3A
330
1
100
AcDbSymbolTableRecord
100
AcDbLayerTableRecord
  2
SARR_2.2x10
 70
0
 62
40
  6
Continuous
370
-3
390
13
  0
LAYER
  5
3B
330
1
100
AcDbSymbolTableRecord
100
AcDbLayerTableRecord
  2
SARR_EDITAR
 70
0
 62
141
  6
Continuous
370
-3
390
13
  0
LAYER
  5
3C
330
1
100
AcDbSymbolTableRecord
100
AcDbLayerTableRecord
  2
Sarrafo de Pressão
 70
0
 62
40
  6
Continuous
370
-3
390
13
  0
LAYER
  5
3D
330
1
100
AcDbSymbolTableRecord
100
AcDbLayerTableRecord
  2
Escoras
 70
0
 62
2
  6
Continuous
370
-3
390
13
  0
LAYER
  5
3E
330
1
100
AcDbSymbolTableRecord
100
AcDbLayerTableRecord
  2
Demarcação 1
 70
0
 62
251
  6
Continuous
370
-3
390
13
  0
LAYER
  5
3F
330
1
100
AcDbSymbolTableRecord
100
AcDbLayerTableRecord
  2
Demarcação 2
 70
0
 62
254
  6
Continuous
370
-3
390
13
  0
LAYER
  5
40
330
1
100
AcDbSymbolTableRecord
100
AcDbLayerTableRecord
  2
Forcador
 70
0
 62
251
  6
Continuous
370
-3
390
13
  0
LAYER
  5
41
330
1
100
AcDbSymbolTableRecord
100
AcDbLayerTableRecord
  2
GARFOS
 70
0
 62
7
  6
Continuous
370
-3
390
13
  0
LAYER
  5
42
330
1
100
AcDbSymbolTableRecord
100
AcDbLayerTableRecord
  2
BARRA DE ANCORAGEM
 70
0
 62
7
  6
Continuous
370
-3
390
13
  0
LAYER
  5
43
330
1
100
AcDbSymbolTableRecord
100
AcDbLayerTableRecord
  2
Perfil Metálico
 70
0
 62
251
  6
Continuous
370
-3
390
13
  0
ENDTAB
  0
TABLE
  2
STYLE
  5
5
330
0
100
AcDbSymbolTable
 70
1
  0
STYLE
  5
29
330
5
100
AcDbSymbolTableRecord
100
AcDbTextStyleTableRecord
  2
Standard
 70
0
 40
0.0
 41
1.0
 50
0.0
 71
0
 42
2.5
  3
txt
  4

  0
ENDTAB
  0
TABLE
  2
VIEW
  5
7
330
0
100
AcDbSymbolTable
 70
0
  0
ENDTAB
  0
TABLE
  2
UCS
  5
6
330
0
100
AcDbSymbolTable
 70
0
  0
ENDTAB
  0
TABLE
  2
APPID
  5
3
330
0
100
AcDbSymbolTable
 70
3
  0
APPID
  5
2A
330
3
100
AcDbSymbolTableRecord
100
AcDbRegAppTableRecord
  2
ACAD
 70
0
  0
APPID
  5
223
330
3
100
AcDbSymbolTableRecord
100
AcDbRegAppTableRecord
  2
HATCHBACKGROUNDCOLOR
 70
0
  0
APPID
  5
224
330
3
100
AcDbSymbolTableRecord
100
AcDbRegAppTableRecord
  2
EZDXF
 70
0
  0
ENDTAB
  0
TABLE
  2
DIMSTYLE
  5
4
330
0
100
AcDbSymbolTable
 70
1
100
AcDbDimStyleTable
  0
DIMSTYLE
105
2B
330
4
100
AcDbSymbolTableRecord
100
AcDbDimStyleTableRecord
  2
Standard
 70
0
  3

  4

 40
1.0
 41
2.5
 42
0.625
 43
3.75
 44
1.25
 45
0.0
 46
0.0
 47
0.0
 48
0.0
140
2.5
141
2.5
142
0.0
143
0.03937007874
144
1.0
145
0.0
146
1.0
147
0.625
148
0.0
 71
0
 72
0
 73
0
 74
0
 75
0
 76
0
 77
1
 78
8
 79
3
170
0
171
3
172
1
173
0
174
0
175
0
176
0
177
0
178
0
179
2
271
2
272
2
273
2
274
3
275
0
276
0
277
2
278
44
279
0
280
0
281
0
282
0
283
0
284
8
285
0
286
0
288
0
289
3
371
-2
372
-2
  0
ENDTAB
  0
TABLE
  2
BLOCK_RECORD
  5
9
330
0
100
AcDbSymbolTable
 70
2
  0
BLOCK_RECORD
  5
17
330
9
100
AcDbSymbolTableRecord
100
AcDbBlockTableRecord
  2
*Model_Space
340
1A
  0
BLOCK_RECORD
  5
1B
330
9
100
AcDbSymbolTableRecord
100
AcDbBlockTableRecord
  2
*Paper_Space
340
1E
  0
ENDTAB
  0
ENDSEC
  0
SECTION
  2
BLOCKS
  0
BLOCK
  5
18
330
17
100
AcDbEntity
  8
0
100
AcDbBlockBegin
  2
*Model_Space
 70
0
 10
0.0
 20
0.0
 30
0.0
  3
*Model_Space
  1

  0
ENDBLK
  5
19
330
17
100
AcDbEntity
  8
0
100
AcDbBlockEnd
  0
BLOCK
  5
1C
330
1B
100
AcDbEntity
  8
0
100
AcDbBlockBegin
  2
*Paper_Space
 70
0
 10
0.0
 20
0.0
 30
0.0
  3
*Paper_Space
  1

  0
ENDBLK
  5
1D
330
1B
100
AcDbEntity
  8
0
100
AcDbBlockEnd
  0
ENDSEC
  0
SECTION
  2
ENTITIES
  0
LINE
  5
44
330
17
100
AcDbEntity
  8
Painéis
100
AcDbLine
 10
-8261.7
 20
12985.9
 30
0.0
 11
-7905.7
 21
12985.9
 31
0.0
  0
LINE
  5
45
330
17
100
AcDbEntity
  8
Painéis
100
AcDbLine
 10
-10224.2
 20
12991.4
 30
0.0
 11
-9759.7
 21
12991.4
 31
0.0
  0
LINE
  5
46
330
17
100
AcDbEntity
  8
Painéis
100
AcDbLine
 10
-9733.7
 20
12991.4
 30
0.0
 11
-9272.7
 21
12991.4
 31
0.0
  0
LINE
  5
47
330
17
100
AcDbEntity
  8
Painéis
100
AcDbLine
 10
-7891.7
 20
12999.9
 30
0.0
 11
-7711.7
 21
12999.9
 31
0.0
  0
LINE
  5
48
330
17
100
AcDbEntity
  8
Painéis
100
AcDbLine
 10
-10224.2
 20
13003.4
 30
0.0
 11
-9759.7
 21
13003.4
 31
0.0
  0
LINE
  5
49
330
17
100
AcDbEntity
  8
Painéis
100
AcDbLine
 10
-9733.7
 20
13003.4
 30
0.0
 11
-9272.7
 21
13003.4
 31
0.0
  0
LINE
  5
4A
330
17
100
AcDbEntity
  8
Painéis
100
AcDbLine
 10
-10224.2
 20
13008.4
 30
0.0
 11
-9759.7
 21
13008.4
 31
0.0
  0
LINE
  5
4B
330
17
100
AcDbEntity
  8
Painéis
100
AcDbLine
 10
-9733.7
 20
13008.4
 30
0.0
 11
-9272.7
 21
13008.4
 31
0.0
  0
LINE
  5
4C
330
17
100
AcDbEntity
  8
Painéis
100
AcDbLine
 10
-8516.5
 20
13113.5
 30
0.0
 11
-8478.5
 21
13113.5
 31
0.0
  0
LINE
  5
4D
330
17
100
AcDbEntity
  8
Painéis
100
AcDbLine
 10
-8260.2
 20
13169.5
 30
0.0
 11
-8062.2
 21
13169.5
 31
0.0
  0
LINE
  5
4E
330
17
100
AcDbEntity
  8
Painéis
100
AcDbLine
 10
-8062.2
 20
13169.5
 30
0.0
 11
-7856.2
 21
13169.5
 31
0.0
  0
LINE
  5
4F
330
17
100
AcDbEntity
  8
Painéis
100
AcDbLine
 10
-10064.2
 20
13177.1
 30
0.0
 11
-9543.7
 21
13177.1
 31
0.0
  0
LINE
  5
50
330
17
100
AcDbEntity
  8
Painéis
100
AcDbLine
 10
-7890.2
 20
13184.5
 30
0.0
 11
-7856.2
 21
13184.5
 31
0.0
  0
LINE
  5
51
330
17
100
AcDbEntity
  8
Painéis
100
AcDbLine
 10
-8084.2
 20
13184.5
 30
0.0
 11
-8062.2
 21
13184.5
 31
0.0
  0
LINE
  5
52
330
17
100
AcDbEntity
  8
Painéis
100
AcDbLine
 10
-7856.2
 20
13189.5
 30
0.0
 11
-7699.2
 21
13189.5
 31
0.0
  0
LINE
  5
53
330
17
100
AcDbEntity
  8
Painéis
100
AcDbLine
 10
-10224.2
 20
13193.1
 30
0.0
 11
-10064.2
 21
13193.1
 31
0.0
  0
LINE
  5
54
330
17
100
AcDbEntity
  8
Painéis
100
AcDbLine
 10
-7856.2
 20
13219.5
 30
0.0
 11
-7699.2
 21
13219.5
 31
0.0
  0
LINE
  5
55
330
17
100
AcDbEntity
  8
Painéis
100
AcDbLine
 10
-8260.2
 20
13233.5
 30
0.0
 11
-8084.2
 21
13233.5
 31
0.0
  0
LINE
  5
56
330
17
100
AcDbEntity
  8
Painéis
100
AcDbLine
 10
-8062.2
 20
13233.5
 30
0.0
 11
-7890.2
 21
13233.5
 31
0.0
  0
LINE
  5
57
330
17
100
AcDbEntity
  8
Painéis
100
AcDbLine
 10
-9923.2
 20
13241.1
 30
0.0
 11
-9543.7
 21
13241.1
 31
0.0
  0
LINE
  5
58
330
17
100
AcDbEntity
  8
Painéis
100
AcDbLine
 10
-10224.2
 20
13252.1
 30
0.0
 11
-9923.2
 21
13252.1
 31
0.0
  0
LINE
  5
59
330
17
100
AcDbEntity
  8
Painéis
100
AcDbLine
 10
-8261.7
 20
12955.9
 30
0.0
 11
-8261.7
 21
12985.9
 31
0.0
  0
LINE
  5
5A
330
17
100
AcDbEntity
  8
Painéis
100
AcDbLine
 10
-8260.2
 20
13169.5
 30
0.0
 11
-8260.2
 21
13233.5
 31
0.0
  0
LINE
  5
5B
330
17
100
AcDbEntity
  8
Painéis
100
AcDbLine
 10
-8172.2
 20
13169.5
 30
0.0
 11
-8172.2
 21
13233.5
 31
0.0
  0
LINE
  5
5C
330
17
100
AcDbEntity
  8
Painéis
100
AcDbLine
 10
-8115.7
 20
12935.9
 30
0.0
 11
-8115.7
 21
12985.9
 31
0.0
  0
LINE
  5
5D
330
17
100
AcDbEntity
  8
Painéis
100
AcDbLine
 10
-8084.2
 20
13184.5
 30
0.0
 11
-8084.2
 21
13233.5
 31
0.0
  0
LINE
  5
5E
330
17
100
AcDbEntity
  8
Painéis
100
AcDbLine
 10
-8062.2
 20
13169.5
 30
0.0
 11
-8062.2
 21
13233.5
 31
0.0
  0
LINE
  5
5F
330
17
100
AcDbEntity
  8
Painéis
100
AcDbLine
 10
-7976.2
 20
13169.5
 30
0.0
 11
-7976.2
 21
13233.5
 31
0.0
  0
LINE
  5
60
330
17
100
AcDbEntity
  8
Painéis
100
AcDbLine
 10
-7905.7
 20
12935.9
 30
0.0
 11
-7905.7
 21
12985.9
 31
0.0
  0
LINE
  5
61
330
17
100
AcDbEntity
  8
Painéis
100
AcDbLine
 10
-7891.7
 20
12935.9
 30
0.0
 11
-7891.7
 21
12999.9
 31
0.0
  0
LINE
  5
62
330
17
100
AcDbEntity
  8
Painéis
100
AcDbLine
 10
-7890.2
 20
13184.5
 30
0.0
 11
-7890.2
 21
13233.5
 31
0.0
  0
LINE
  5
63
330
17
100
AcDbEntity
  8
Painéis
100
AcDbLine
 10
-7856.2
 20
13169.5
 30
0.0
 11
-7856.2
 21
13184.5
 31
0.0
  0
LINE
  5
64
330
17
100
AcDbEntity
  8
Painéis
100
AcDbLine
 10
-7856.2
 20
13189.5
 30
0.0
 11
-7856.2
 21
13219.5
 31
0.0
  0
LINE
  5
65
330
17
100
AcDbEntity
  8
Painéis
100
AcDbLine
 10
-7801.7
 20
12935.9
 30
0.0
 11
-7801.7
 21
12999.9
 31
0.0
  0
LINE
  5
66
330
17
100
AcDbEntity
  8
Painéis
100
AcDbLine
 10
-7777.7
 20
13189.5
 30
0.0
 11
-7777.7
 21
13219.5
 31
0.0
  0
LINE
  5
67
330
17
100
AcDbEntity
  8
Painéis
100
AcDbLine
 10
-7711.7
 20
12935.9
 30
0.0
 11
-7711.7
 21
12999.9
 31
0.0
  0
LWPOLYLINE
  5
68
330
17
100
AcDbEntity
  8
Painéis
100
AcDbPolyline
 90
4
 70
1
 10
-8474.5
 20
13233.5
 10
-8478.5
 20
13233.5
 10
-8478.5
 20
13105.5
 10
-8474.5
 20
13105.5
  0
LWPOLYLINE
  5
69
330
17
100
AcDbEntity
  8
Painéis
100
AcDbPolyline
 90
4
 70
1
 10
-8516.5
 20
13109.9
 10
-8516.5
 20
13113.5
 10
-8478.5
 20
13113.5
 10
-8478.5
 20
13109.9
  0
LWPOLYLINE
  5
6A
330
17
100
AcDbEntity
  8
Painéis
100
AcDbPolyline
 90
4
 70
1
 10
-8520.5
 20
13233.5
 10
-8516.5
 20
13233.5
 10
-8516.5
 20
13105.5
 10
-8520.5
 20
13105.5
  0
LWPOLYLINE
  5
6B
330
17
100
AcDbEntity
  8
Painéis
100
AcDbPolyline
 90
4
 70
1
 10
-8165.7
 20
12113.7
 10
-8169.7
 20
12113.7
 10
-8169.7
 20
12103.7
 10
-8165.7
 20
12103.7
  0
LWPOLYLINE
  5
6C
330
17
100
AcDbEntity
  8
CONCRETO
100
AcDbPolyline
 90
8
 70
1
 10
-8478.5
 20
13213.5
 10
-8478.5
 20
13233.5
 10
-8516.5
 20
13233.5
 10
-8516.5
 20
13237.5
 10
-8516.5
 20
13237.5
 10
-8516.5
 20
13113.5
 10
-8478.5
 20
13113.5
 10
-8478.5
 20
13213.5
  0
LWPOLYLINE
  5
6D
330
17
100
AcDbEntity
  8
Madeira
100
AcDbPolyline
 90
4
 70
1
 10
-8440.5
 20
13105.5
 10
-8440.5
 20
13109.9
 10
-8460.5
 20
13109.9
 10
-8460.5
 20
13105.5
  0
LWPOLYLINE
  5
6E
330
17
100
AcDbEntity
  8
Madeira
100
AcDbPolyline
 90
4
 70
1
 10
-8534.5
 20
13233.5
 10
-8534.5
 20
13229.1
 10
-8520.5
 20
13229.1
 10
-8520.5
 20
13233.5
  0
LWPOLYLINE
  5
6F
330
17
100
AcDbEntity
  8
Madeira
100
AcDbPolyline
 90
4
 70
1
 10
-8554.5
 20
13105.5
 10
-8554.5
 20
13109.9
 10
-8534.5
 20
13109.9
 10
-8534.5
 20
13105.5
  0
LWPOLYLINE
  5
70
330
17
100
AcDbEntity
  8
Madeira
100
AcDbPolyline
 90
4
 70
1
 10
-8460.5
 20
13233.5
 10
-8460.5
 20
13229.1
 10
-8474.5
 20
13229.1
 10
-8474.5
 20
13233.5
  0
LWPOLYLINE
  5
71
330
17
100
AcDbEntity
  8
Madeira
100
AcDbPolyline
 90
4
 70
1
 10
-8460.5
 20
13233.5
 10
-8474.5
 20
13233.5
 10
-8474.5
 20
13105.5
 10
-8460.5
 20
13105.5
  0
LWPOLYLINE
  5
72
330
17
100
AcDbEntity
  8
Madeira
100
AcDbPolyline
 90
4
 70
1
 10
-8534.5
 20
13105.5
 10
-8520.5
 20
13105.5
 10
-8520.5
 20
13233.5
 10
-8534.5
 20
13233.5
  0
LWPOLYLINE
  5
73
330
17
100
AcDbEntity
  8
Madeira
100
AcDbPolyline
 90
4
 70
1
 10
-8516.5
 20
13105.5
 10
-8516.5
 20
13109.9
 10
-8506.5
 20
13109.9
 10
-8506.5
 20
13105.5
  0
LWPOLYLINE
  5
74
330
17
100
AcDbEntity
  8
Madeira
100
AcDbPolyline
 90
4
 70
1
 10
-8488.5
 20
13105.5
 10
-8488.5
 20
13109.9
 10
-8478.5
 20
13109.9
 10
-8478.5
 20
13105.5
  0
LWPOLYLINE
  5
75
330
17
100
AcDbEntity
  8
Madeira
100
AcDbPolyline
 90
4
 70
1
 10
-8592.3
 20
13085.5
 10
-8392.7
 20
13085.5
 10
-8392.7
 20
13105.5
 10
-8592.3
 20
13105.5
  0
LWPOLYLINE
  5
76
330
17
100
AcDbEntity
  8
CONCRETO
100
AcDbPolyline
 90
4
 70
1
 10
-8516.5
 20
13113.5
 10
-8478.5
 20
13113.5
 10
-8478.5
 20
13237.5
 10
-8516.5
 20
13237.5
  0
TEXT
  5
77
330
17
100
AcDbEntity
  8
Texto Seção
100
AcDbText
 10
-8497.6
 20
13238.5
 30
0.0
 40
8.0
  1
V7
100
AcDbText
  0
TEXT
  5
78
330
17
100
AcDbEntity
  8
Texto Seção
100
AcDbText
 10
-8497.6
 20
13223.5
 30
0.0
 40
6.0
  1
(19x60)
100
AcDbText
  0
TEXT
  5
79
330
17
100
AcDbEntity
  8
NOMENCLATURA
100
AcDbText
 10
-9540.5
 20
13085.9
 30
0.0
 40
5.0
  1
P7
100
AcDbText
  0
TEXT
  5
7A
330
17
100
AcDbEntity
  8
NOMENCLATURA
100
AcDbText
 10
-9759.4
 20
12849.1
 30
0.0
 40
5.0
  1
P6
100
AcDbText
  0
TEXT
  5
7B
330
17
100
AcDbEntity
  8
NOMENCLATURA
100
AcDbText
 10
-10222.1
 20
12849.1
 30
0.0
 40
5.0
  1
P7
100
AcDbText
  0
TEXT
  5
7C
330
17
100
AcDbEntity
  8
NOMENCLATURA
100
AcDbText
 10
-9280.0
 20
12849.1
 30
0.0
 40
5.0
  1
P5
100
AcDbText
  0
TEXT
  5
7D
330
17
100
AcDbEntity
  8
NOMENCLATURA
100
AcDbText
 10
-10245.9
 20
12626.8
 30
0.0
 40
5.0
  1
P5
100
AcDbText
  0
TEXT
  5
7E
330
17
100
AcDbEntity
  8
NOMENCLATURA
100
AcDbText
 10
-9766.3
 20
12626.8
 30
0.0
 40
5.0
  1
P10
100
AcDbText
  0
TEXT
  5
7F
330
17
100
AcDbEntity
  8
NOMENCLATURA
100
AcDbText
 10
-8262.5
 20
13073.7
 30
0.0
 40
5.0
  1
P11
100
AcDbText
  0
TEXT
  5
80
330
17
100
AcDbEntity
  8
NOMENCLATURA
100
AcDbText
 10
-7716.3
 20
13073.7
 30
0.0
 40
5.0
  1
P12
100
AcDbText
  0
TEXT
  5
81
330
17
100
AcDbEntity
  8
NOMENCLATURA
100
AcDbText
 10
-7746.2
 20
12840.1
 30
0.0
 40
5.0
  1
P11
100
AcDbText
  0
TEXT
  5
82
330
17
100
AcDbEntity
  8
NOMENCLATURA
100
AcDbText
 10
-8266.7
 20
12840.1
 30
0.0
 40
5.0
  1
P12
100
AcDbText
  0
HATCH
  5
83
330
17
100
AcDbEntity
  8
Hachura
 62
8
100
AcDbHatch
 10
0.0
 20
0.0
 30
0.0
210
0.0
220
0.0
230
1.0
  2
SOLID
 70
1
 71
0
 91
1
 92
3
 72
0
 73
1
 93
8
 10
-8474.5
 20
13233.5
 10
-8478.5
 20
13233.5
 10
-8478.5
 20
13233.5
 10
-8478.5
 20
13105.5
 10
-8478.5
 20
13105.5
 10
-8474.5
 20
13105.5
 10
-8474.5
 20
13105.5
 10
-8474.5
 20
13233.5
 97
0
 75
1
 76
1
 98
0
  0
HATCH
  5
84
330
17
100
AcDbEntity
  8
Hachura
 62
7
100
AcDbHatch
 10
0.0
 20
0.0
 30
0.0
210
0.0
220
0.0
230
1.0
  2
ANSI31
 70
0
 71
0
 91
1
 92
3
 72
0
 73
1
 93
8
 10
-8440.5
 20
13105.5
 10
-8440.5
 20
13109.9
 10
-8440.5
 20
13109.9
 10
-8460.5
 20
13109.9
 10
-8460.5
 20
13109.9
 10
-8460.5
 20
13105.5
 10
-8460.5
 20
13105.5
 10
-8440.5
 20
13105.5
 97
0
 75
1
 76
1
 52
0.0
 41
0.5
 77
0
 78
1
 53
45.0
 43
0.0
 44
0.0
 45
-1.1225320152
 46
1.1225320152
 79
0
 98
0
  0
HATCH
  5
85
330
17
100
AcDbEntity
  8
Hachura
 62
8
100
AcDbHatch
 10
0.0
 20
0.0
 30
0.0
210
0.0
220
0.0
230
1.0
  2
SOLID
 70
1
 71
0
 91
1
 92
3
 72
0
 73
1
 93
8
 10
-8516.5
 20
13109.9
 10
-8516.5
 20
13113.5
 10
-8516.5
 20
13113.5
 10
-8478.5
 20
13113.5
 10
-8478.5
 20
13113.5
 10
-8478.5
 20
13109.9
 10
-8478.5
 20
13109.9
 10
-8516.5
 20
13109.9
 97
0
 75
1
 76
1
 98
0
  0
HATCH
  5
86
330
17
100
AcDbEntity
  8
Hachura
 62
8
100
AcDbHatch
 10
0.0
 20
0.0
 30
0.0
210
0.0
220
0.0
230
1.0
  2
SOLID
 70
1
 71
0
 91
1
 92
3
 72
0
 73
1
 93
8
 10
-8520.5
 20
13233.5
 10
-8516.5
 20
13233.5
 10
-8516.5
 20
13233.5
 10
-8516.5
 20
13105.5
 10
-8516.5
 20
13105.5
 10
-8520.5
 20
13105.5
 10
-8520.5
 20
13105.5
 10
-8520.5
 20
13233.5
 97
0
 75
1
 76
1
 98
0
  0
HATCH
  5
87
330
17
100
AcDbEntity
  8
Hachura
 62
7
100
AcDbHatch
 10
0.0
 20
0.0
 30
0.0
210
0.0
220
0.0
230
1.0
  2
ANSI31
 70
0
 71
0
 91
1
 92
3
 72
0
 73
1
 93
8
 10
-8534.5
 20
13233.5
 10
-8534.5
 20
13229.1
 10
-8534.5
 20
13229.1
 10
-8520.5
 20
13229.1
 10
-8520.5
 20
13229.1
 10
-8520.5
 20
13233.5
 10
-8520.5
 20
13233.5
 10
-8534.5
 20
13233.5
 97
0
 75
1
 76
1
 52
0.0
 41
0.5
 77
0
 78
1
 53
45.0
 43
0.0
 44
0.0
 45
-1.1225320152
 46
1.1225320152
 79
0
 98
0
  0
HATCH
  5
88
330
17
100
AcDbEntity
  8
Hachura
 62
7
100
AcDbHatch
 10
0.0
 20
0.0
 30
0.0
210
0.0
220
0.0
230
1.0
  2
ANSI31
 70
0
 71
0
 91
1
 92
3
 72
0
 73
1
 93
8
 10
-8554.5
 20
13105.5
 10
-8554.5
 20
13109.9
 10
-8554.5
 20
13109.9
 10
-8534.5
 20
13109.9
 10
-8534.5
 20
13109.9
 10
-8534.5
 20
13105.5
 10
-8534.5
 20
13105.5
 10
-8554.5
 20
13105.5
 97
0
 75
1
 76
1
 52
0.0
 41
0.5
 77
0
 78
1
 53
45.0
 43
0.0
 44
0.0
 45
-1.1225320152
 46
1.1225320152
 79
0
 98
0
  0
HATCH
  5
89
330
17
100
AcDbEntity
  8
Hachura
 62
7
100
AcDbHatch
 10
0.0
 20
0.0
 30
0.0
210
0.0
220
0.0
230
1.0
  2
ANSI31
 70
0
 71
0
 91
1
 92
3
 72
0
 73
1
 93
8
 10
-8460.5
 20
13233.5
 10
-8460.5
 20
13229.1
 10
-8460.5
 20
13229.1
 10
-8474.5
 20
13229.1
 10
-8474.5
 20
13229.1
 10
-8474.5
 20
13233.5
 10
-8474.5
 20
13233.5
 10
-8460.5
 20
13233.5
 97
0
 75
1
 76
1
 52
0.0
 41
0.5
 77
0
 78
1
 53
45.0
 43
0.0
 44
0.0
 45
-1.1225320152
 46
1.1225320152
 79
0
 98
0
  0
HATCH
  5
8A
330
17
100
AcDbEntity
  8
Hachura
 62
7
100
AcDbHatch
 10
0.0
 20
0.0
 30
0.0
210
0.0
220
0.0
230
1.0
  2
ANSI31
 70
0
 71
0
 91
1
 92
3
 72
0
 73
1
 93
8
 10
-8516.5
 20
13105.5
 10
-8516.5
 20
13109.9
 10
-8516.5
 20
13109.9
 10
-8506.5
 20
13109.9
 10
-8506.5
 20
13109.9
 10
-8506.5
 20
13105.5
 10
-8506.5
 20
13105.5
 10
-8516.5
 20
13105.5
 97
0
 75
1
 76
1
 52
0.0
 41
0.5
 77
0
 78
1
 53
45.0
 43
0.0
 44
0.0
 45
-1.1225320152
 46
1.1225320152
 79
0
 98
0
  0
HATCH
  5
8B
330
17
100
AcDbEntity
  8
Hachura
 62
7
100
AcDbHatch
 10
0.0
 20
0.0
 30
0.0
210
0.0
220
0.0
230
1.0
  2
ANSI31
 70
0
 71
0
 91
1
 92
3
 72
0
 73
1
 93
8
 10
-8488.5
 20
13105.5
 10
-8488.5
 20
13109.9
 10
-8488.5
 20
13109.9
 10
-8478.5
 20
13109.9
 10
-8478.5
 20
13109.9
 10
-8478.5
 20
13105.5
 10
-8478.5
 20
13105.5
 10
-8488.5
 20
13105.5
 97
0
 75
1
 76
1
 52
0.0
 41
0.5
 77
0
 78
1
 53
45.0
 43
0.0
 44
0.0
 45
-1.1225320152
 46
1.1225320152
 79
0
 98
0
  0
HATCH
  5
8C
330
17
100
AcDbEntity
  8
COTA
 62
7
100
AcDbHatch
 10
0.0
 20
0.0
 30
0.0
210
0.0
220
0.0
230
1.0
  2
AR-CONC
 70
0
 71
0
 91
1
 92
3
 72
0
 73
1
 93
7
 10
-7856.2
 20
13219.5
 10
-7699.2
 20
13219.5
 10
-7699.2
 20
13233.5
 10
-7890.2
 20
13233.5
 10
-7890.2
 20
13184.5
 10
-7856.2
 20
13184.5
 10
-7856.2
 20
13189.5
 97
0
 75
1
 76
1
 52
0.0
 41
0.03
 77
0
 78
13
 53
50.0
 43
0.0
 44
0.0
 45
5.4655400699
 46
-0.4781725662
 79
2
 49
0.5715
 49
-6.2865
 53
355.0
 43
0.0
 44
0.0
 45
-1.0573026428
 46
5.7317053572
 79
2
 49
0.4572
 49
-5.0292175251
 53
100.4514447
 43
0.45546021
 44
-0.039847605
 45
4.4082374127
 46
5.2535325574
 79
2
 49
0.485700264
 49
-5.342707338
 53
46.1842
 43
0.0
 44
1.524
 45
8.1323712268
 46
-1.261269838
 79
2
 49
0.85725
 49
-9.42975
 53
96.63555761
 43
0.677697
 44
1.418895
 45
7.1221240215
 46
7.4227837379
 79
2
 49
0.7285506942
 49
-8.0140682448
 53
351.18415117
 43
0.0
 44
1.524
 45
7.1221240219
 46
7.4227837376
 79
2
 49
0.6857990121
 49
-7.5437919576
 53
21.0
 43
0.762
 44
1.143
 45
4.5484317381
 46
-3.0679559456
 79
2
 49
0.5715
 49
-6.2865
 53
326.0
 43
0.762
 44
1.143
 45
1.8540608504
 46
5.5256389837
 79
2
 49
0.4572
 49
-5.0292
 53
71.451445
 43
1.141035978
 44
0.887337003
 45
6.4024925784
 46
2.4576830666
 79
2
 49
0.485700264
 49
-5.342698128
 53
37.5
 43
0.0
 44
0.0
 45
0.0926580975
 46
2.5366511662
 79
6
 49
0.0
 49
-4.96824
 49
0.0
 49
-5.1054
 49
0.0
 49
-5.04825
 53
7.5
 43
0.0
 44
0.0
 45
2.0045898753
 46
3.0054172445
 79
6
 49
0.0
 49
-2.91084
 49
0.0
 49
-4.85394
 49
0.0
 49
-1.92405
 53
-32.5
 43
-1.69926
 44
0.0
 45
4.067717855
 46
-0.1718623198
 79
6
 49
0.0
 49
-1.905
 49
0.0
 49
-5.9436
 49
0.0
 49
-7.8867
 53
-42.5
 43
-2.46126
 44
0.0
 45
4.4438754416
 46
0.762794731
 79
6
 49
0.0
 49
-2.4765
 49
0.0
 49
-3.94716
 49
0.0
 49
-5.6007
 98
0
  0
HATCH
  5
8D
330
17
100
AcDbEntity
  8
COTA
 62
7
100
AcDbHatch
 10
0.0
 20
0.0
 30
0.0
210
0.0
220
0.0
230
1.0
  2
AR-CONC
 70
0
 71
0
 91
1
 92
3
 72
0
 73
1
 93
4
 10
-8084.2
 20
13184.5
 10
-8062.2
 20
13184.5
 10
-8062.2
 20
13233.5
 10
-8084.2
 20
13233.5
 97
0
 75
1
 76
1
 52
0.0
 41
0.03
 77
0
 78
13
 53
50.0
 43
0.0
 44
0.0
 45
5.4655400699
 46
-0.4781725662
 79
2
 49
0.5715
 49
-6.2865
 53
355.0
 43
0.0
 44
0.0
 45
-1.0573026428
 46
5.7317053572
 79
2
 49
0.4572
 49
-5.0292175251
 53
100.4514447
 43
0.45546021
 44
-0.039847605
 45
4.4082374127
 46
5.2535325574
 79
2
 49
0.485700264
 49
-5.342707338
 53
46.1842
 43
0.0
 44
1.524
 45
8.1323712268
 46
-1.261269838
 79
2
 49
0.85725
 49
-9.42975
 53
96.63555761
 43
0.677697
 44
1.418895
 45
7.1221240215
 46
7.4227837379
 79
2
 49
0.7285506942
 49
-8.0140682448
 53
351.18415117
 43
0.0
 44
1.524
 45
7.1221240219
 46
7.4227837376
 79
2
 49
0.6857990121
 49
-7.5437919576
 53
21.0
 43
0.762
 44
1.143
 45
4.5484317381
 46
-3.0679559456
 79
2
 49
0.5715
 49
-6.2865
 53
326.0
 43
0.762
 44
1.143
 45
1.8540608504
 46
5.5256389837
 79
2
 49
0.4572
 49
-5.0292
 53
71.451445
 43
1.141035978
 44
0.887337003
 45
6.4024925784
 46
2.4576830666
 79
2
 49
0.485700264
 49
-5.342698128
 53
37.5
 43
0.0
 44
0.0
 45
0.0926580975
 46
2.5366511662
 79
6
 49
0.0
 49
-4.96824
 49
0.0
 49
-5.1054
 49
0.0
 49
-5.04825
 53
7.5
 43
0.0
 44
0.0
 45
2.0045898753
 46
3.0054172445
 79
6
 49
0.0
 49
-2.91084
 49
0.0
 49
-4.85394
 49
0.0
 49
-1.92405
 53
-32.5
 43
-1.69926
 44
0.0
 45
4.067717855
 46
-0.1718623198
 79
6
 49
0.0
 49
-1.905
 49
0.0
 49
-5.9436
 49
0.0
 49
-7.8867
 53
-42.5
 43
-2.46126
 44
0.0
 45
4.4438754416
 46
0.762794731
 79
6
 49
0.0
 49
-2.4765
 49
0.0
 49
-3.94716
 49
0.0
 49
-5.6007
 98
0
  0
HATCH
  5
8E
330
17
100
AcDbEntity
  8
COTA
 62
7
100
AcDbHatch
 10
0.0
 20
0.0
 30
0.0
210
0.0
220
0.0
230
1.0
  2
AR-CONC
 70
0
 71
0
 91
1
 92
3
 72
0
 73
1
 93
6
 10
-8261.7
 20
12999.9
 10
-8261.7
 20
12985.9
 10
-7905.7
 20
12985.9
 10
-7905.7
 20
12935.9
 10
-7891.7
 20
12935.9
 10
-7891.7
 20
12999.9
 97
0
 75
1
 76
1
 52
0.0
 41
0.03
 77
0
 78
13
 53
50.0
 43
0.0
 44
0.0
 45
5.4655400699
 46
-0.4781725662
 79
2
 49
0.5715
 49
-6.2865
 53
355.0
 43
0.0
 44
0.0
 45
-1.0573026428
 46
5.7317053572
 79
2
 49
0.4572
 49
-5.0292175251
 53
100.4514447
 43
0.45546021
 44
-0.039847605
 45
4.4082374127
 46
5.2535325574
 79
2
 49
0.485700264
 49
-5.342707338
 53
46.1842
 43
0.0
 44
1.524
 45
8.1323712268
 46
-1.261269838
 79
2
 49
0.85725
 49
-9.42975
 53
96.63555761
 43
0.677697
 44
1.418895
 45
7.1221240215
 46
7.4227837379
 79
2
 49
0.7285506942
 49
-8.0140682448
 53
351.18415117
 43
0.0
 44
1.524
 45
7.1221240219
 46
7.4227837376
 79
2
 49
0.6857990121
 49
-7.5437919576
 53
21.0
 43
0.762
 44
1.143
 45
4.5484317381
 46
-3.0679559456
 79
2
 49
0.5715
 49
-6.2865
 53
326.0
 43
0.762
 44
1.143
 45
1.8540608504
 46
5.5256389837
 79
2
 49
0.4572
 49
-5.0292
 53
71.451445
 43
1.141035978
 44
0.887337003
 45
6.4024925784
 46
2.4576830666
 79
2
 49
0.485700264
 49
-5.342698128
 53
37.5
 43
0.0
 44
0.0
 45
0.0926580975
 46
2.5366511662
 79
6
 49
0.0
 49
-4.96824
 49
0.0
 49
-5.1054
 49
0.0
 49
-5.04825
 53
7.5
 43
0.0
 44
0.0
 45
2.0045898753
 46
3.0054172445
 79
6
 49
0.0
 49
-2.91084
 49
0.0
 49
-4.85394
 49
0.0
 49
-1.92405
 53
-32.5
 43
-1.69926
 44
0.0
 45
4.067717855
 46
-0.1718623198
 79
6
 49
0.0
 49
-1.905
 49
0.0
 49
-5.9436
 49
0.0
 49
-7.8867
 53
-42.5
 43
-2.46126
 44
0.0
 45
4.4438754416
 46
0.762794731
 79
6
 49
0.0
 49
-2.4765
 49
0.0
 49
-3.94716
 49
0.0
 49
-5.6007
 98
0
  0
HATCH
  5
8F
330
17
100
AcDbEntity
  8
Hachura
 62
7
100
AcDbHatch
 10
0.0
 20
0.0
 30
0.0
210
0.0
220
0.0
230
1.0
  2
ANSI31
 70
0
 71
0
 91
1
 92
3
 72
0
 73
1
 93
4
 10
-8260.2
 20
13169.5
 10
-8172.2
 20
13169.5
 10
-8172.2
 20
13233.5
 10
-8260.2
 20
13233.5
 97
0
 75
1
 76
1
 52
0.0
 41
5.0
 77
0
 78
1
 53
45.0
 43
0.0
 44
0.0
 45
-11.2253201515
 46
11.2253201515
 79
0
 98
0
  0
HATCH
  5
90
330
17
100
AcDbEntity
  8
Hachura
 62
7
100
AcDbHatch
 10
0.0
 20
0.0
 30
0.0
210
0.0
220
0.0
230
1.0
  2
ANSI31
 70
0
 71
0
 91
1
 92
3
 72
0
 73
1
 93
4
 10
-8115.7
 20
12985.9
 10
-8115.7
 20
12935.9
 10
-7905.7
 20
12935.9
 10
-7905.7
 20
12985.9
 97
0
 75
1
 76
1
 52
0.0
 41
5.0
 77
0
 78
1
 53
45.0
 43
0.0
 44
0.0
 45
-11.2253201515
 46
11.2253201515
 79
0
 98
0
  0
HATCH
  5
91
330
17
100
AcDbEntity
  8
Hachura
 62
7
100
AcDbHatch
 10
0.0
 20
0.0
 30
0.0
210
0.0
220
0.0
230
1.0
  2
ANSI31
 70
0
 71
0
 91
1
 92
3
 72
0
 73
1
 93
4
 10
-7856.2
 20
13189.5
 10
-7777.7
 20
13189.5
 10
-7777.7
 20
13219.5
 10
-7856.2
 20
13219.5
 97
0
 75
1
 76
1
 52
0.0
 41
5.0
 77
0
 78
1
 53
45.0
 43
0.0
 44
0.0
 45
-11.2253201515
 46
11.2253201515
 79
0
 98
0
  0
HATCH
  5
92
330
17
100
AcDbEntity
  8
Hachura
 62
7
100
AcDbHatch
 10
0.0
 20
0.0
 30
0.0
210
0.0
220
0.0
230
1.0
  2
ANSI31
 70
0
 71
0
 91
1
 92
3
 72
0
 73
1
 93
4
 10
-7976.2
 20
13233.5
 10
-8062.2
 20
13233.5
 10
-8062.2
 20
13169.5
 10
-7976.2
 20
13169.5
 97
0
 75
1
 76
1
 52
0.0
 41
5.0
 77
0
 78
1
 53
45.0
 43
0.0
 44
0.0
 45
-11.2253201515
 46
11.2253201515
 79
0
 98
0
  0
HATCH
  5
93
330
17
100
AcDbEntity
  8
Hachura
 62
7
100
AcDbHatch
 10
0.0
 20
0.0
 30
0.0
210
0.0
220
0.0
230
1.0
  2
ANSI31
 70
0
 71
0
 91
1
 92
3
 72
0
 73
1
 93
4
 10
-8261.7
 20
12985.9
 10
-8261.7
 20
12955.9
 10
-8115.7
 20
12955.9
 10
-8115.7
 20
12985.9
 97
0
 75
1
 76
1
 52
0.0
 41
5.0
 77
0
 78
1
 53
45.0
 43
0.0
 44
0.0
 45
-11.2253201515
 46
11.2253201515
 79
0
 98
0
  0
HATCH
  5
94
330
17
100
AcDbEntity
  8
Hachura
 62
7
100
AcDbHatch
 10
0.0
 20
0.0
 30
0.0
210
0.0
220
0.0
230
1.0
  2
ANSI31
 70
0
 71
0
 91
1
 92
3
 72
0
 73
1
 93
4
 10
-7777.7
 20
13219.5
 10
-7777.7
 20
13189.5
 10
-7699.2
 20
13189.5
 10
-7699.2
 20
13219.5
 97
0
 75
1
 76
1
 52
0.0
 41
5.0
 77
0
 78
1
 53
45.0
 43
0.0
 44
0.0
 45
-11.2253201515
 46
11.2253201515
 79
0
 98
0
  0
HATCH
  5
95
330
17
100
AcDbEntity
  8
Hachura
 62
7
100
AcDbHatch
 10
0.0
 20
0.0
 30
0.0
210
0.0
220
0.0
230
1.0
  2
ANSI31
 70
0
 71
0
 91
1
 92
3
 72
0
 73
1
 93
4
 10
-7711.7
 20
12999.9
 10
-7801.7
 20
12999.9
 10
-7801.7
 20
12935.9
 10
-7711.7
 20
12935.9
 97
0
 75
1
 76
1
 52
0.0
 41
5.0
 77
0
 78
1
 53
45.0
 43
0.0
 44
0.0
 45
-11.2253201515
 46
11.2253201515
 79
0
 98
0
  0
HATCH
  5
96
330
17
100
AcDbEntity
  8
Hachura
 62
7
100
AcDbHatch
 10
0.0
 20
0.0
 30
0.0
210
0.0
220
0.0
230
1.0
  2
ANSI31
 70
0
 71
0
 91
1
 92
3
 72
0
 73
1
 93
4
 10
-7891.7
 20
12999.9
 10
-7891.7
 20
12935.9
 10
-7801.7
 20
12935.9
 10
-7801.7
 20
12999.9
 97
0
 75
1
 76
1
 52
0.0
 41
5.0
 77
0
 78
1
 53
45.0
 43
0.0
 44
0.0
 45
-11.2253201515
 46
11.2253201515
 79
0
 98
0
  0
HATCH
  5
97
330
17
100
AcDbEntity
  8
Hachura
 62
8
100
AcDbHatch
 10
0.0
 20
0.0
 30
0.0
210
0.0
220
0.0
230
1.0
  2
SOLID
 70
1
 71
0
 91
1
 92
3
 72
0
 73
1
 93
8
 10
-8165.7
 20
12113.7
 10
-8169.7
 20
12113.7
 10
-8169.7
 20
12113.7
 10
-8169.7
 20
12103.7
 10
-8169.7
 20
12103.7
 10
-8165.7
 20
12103.7
 10
-8165.7
 20
12103.7
 10
-8165.7
 20
12113.7
 97
0
 75
1
 76
1
 98
0
  0
LINE
  5
98
330
17
100
AcDbEntity
  8
COTA
100
AcDbLine
 10
-10224.2
 20
12898.1
 30
0.0
 11
-9980.2
 21
12898.1
 31
0.0
  0
LINE
  5
99
330
17
100
AcDbEntity
  8
COTA
100
AcDbLine
 10
-10224.2
 20
12944.4
 30
0.0
 11
-10224.2
 21
12893.1
 31
0.0
  0
LINE
  5
9A
330
17
100
AcDbEntity
  8
COTA
100
AcDbLine
 10
-9980.2
 20
12912.4
 30
0.0
 11
-9980.2
 21
12893.1
 31
0.0
  0
TEXT
  5
9B
330
17
100
AcDbEntity
  8
COTA
100
AcDbText
 10
-10102.2
 20
12906.1
 30
0.0
 40
4.0
  1
244
100
AcDbText
  0
LINE
  5
9C
330
17
100
AcDbEntity
  8
COTA
100
AcDbLine
 10
-9980.2
 20
12898.1
 30
0.0
 11
-9759.7
 21
12898.1
 31
0.0
  0
LINE
  5
9D
330
17
100
AcDbEntity
  8
COTA
100
AcDbLine
 10
-9980.2
 20
12912.4
 30
0.0
 11
-9980.2
 21
12893.1
 31
0.0
  0
LINE
  5
9E
330
17
100
AcDbEntity
  8
COTA
100
AcDbLine
 10
-9759.7
 20
12944.4
 30
0.0
 11
-9759.7
 21
12893.1
 31
0.0
  0
TEXT
  5
9F
330
17
100
AcDbEntity
  8
COTA
100
AcDbText
 10
-9869.9
 20
12906.2
 30
0.0
 40
4.0
  1
220
100
AcDbText
  0
LINE
  5
A0
330
17
100
AcDbEntity
  8
COTA
100
AcDbLine
 10
-10224.2
 20
12872.0
 30
0.0
 11
-9759.7
 21
12872.0
 31
0.0
  0
LINE
  5
A1
330
17
100
AcDbEntity
  8
COTA
100
AcDbLine
 10
-10224.2
 20
12947.4
 30
0.0
 11
-10224.2
 21
12867.0
 31
0.0
  0
LINE
  5
A2
330
17
100
AcDbEntity
  8
COTA
100
AcDbLine
 10
-9759.7
 20
12947.4
 30
0.0
 11
-9759.7
 21
12867.0
 31
0.0
  0
TEXT
  5
A3
330
17
100
AcDbEntity
  8
COTA
100
AcDbText
 10
-9991.9
 20
12880.1
 30
0.0
 40
4.0
  1
464
100
AcDbText
  0
LINE
  5
A4
330
17
100
AcDbEntity
  8
COTA
100
AcDbLine
 10
-9733.7
 20
12898.1
 30
0.0
 11
-9489.7
 21
12898.1
 31
0.0
  0
LINE
  5
A5
330
17
100
AcDbEntity
  8
COTA
100
AcDbLine
 10
-9733.7
 20
12944.4
 30
0.0
 11
-9733.7
 21
12893.1
 31
0.0
  0
LINE
  5
A6
330
17
100
AcDbEntity
  8
COTA
100
AcDbLine
 10
-9489.7
 20
12912.4
 30
0.0
 11
-9489.7
 21
12893.1
 31
0.0
  0
TEXT
  5
A7
330
17
100
AcDbEntity
  8
COTA
100
AcDbText
 10
-9611.7
 20
12906.1
 30
0.0
 40
4.0
  1
244
100
AcDbText
  0
LINE
  5
A8
330
17
100
AcDbEntity
  8
COTA
100
AcDbLine
 10
-9489.7
 20
12898.1
 30
0.0
 11
-9272.7
 21
12898.1
 31
0.0
  0
LINE
  5
A9
330
17
100
AcDbEntity
  8
COTA
100
AcDbLine
 10
-9489.7
 20
12912.4
 30
0.0
 11
-9489.7
 21
12893.1
 31
0.0
  0
LINE
  5
AA
330
17
100
AcDbEntity
  8
COTA
100
AcDbLine
 10
-9272.7
 20
12944.4
 30
0.0
 11
-9272.7
 21
12893.1
 31
0.0
  0
TEXT
  5
AB
330
17
100
AcDbEntity
  8
COTA
100
AcDbText
 10
-9381.2
 20
12906.1
 30
0.0
 40
4.0
  1
217
100
AcDbText
  0
LINE
  5
AC
330
17
100
AcDbEntity
  8
COTA
100
AcDbLine
 10
-9733.7
 20
12872.0
 30
0.0
 11
-9272.7
 21
12872.0
 31
0.0
  0
LINE
  5
AD
330
17
100
AcDbEntity
  8
COTA
100
AcDbLine
 10
-9733.7
 20
12947.4
 30
0.0
 11
-9733.7
 21
12867.0
 31
0.0
  0
LINE
  5
AE
330
17
100
AcDbEntity
  8
COTA
100
AcDbLine
 10
-9272.7
 20
12947.4
 30
0.0
 11
-9272.7
 21
12867.0
 31
0.0
  0
TEXT
  5
AF
330
17
100
AcDbEntity
  8
COTA
100
AcDbText
 10
-9503.2
 20
12880.1
 30
0.0
 40
4.0
  1
461
100
AcDbText
  0
LINE
  5
B0
330
17
100
AcDbEntity
  8
COTA
100
AcDbLine
 10
-9214.4
 20
12944.4
 30
0.0
 11
-9214.4
 21
12991.4
 31
0.0
  0
LINE
  5
B1
330
17
100
AcDbEntity
  8
COTA
100
AcDbLine
 10
-9272.7
 20
12991.4
 30
0.0
 11
-9209.4
 21
12991.4
 31
0.0
  0
LINE
  5
B2
330
17
100
AcDbEntity
  8
COTA
100
AcDbLine
 10
-9272.7
 20
12944.4
 30
0.0
 11
-9209.4
 21
12944.4
 31
0.0
  0
TEXT
  5
B3
330
17
100
AcDbEntity
  8
COTA
100
AcDbText
 10
-9222.4
 20
12967.9
 30
0.0
 40
4.0
  1
47
100
AcDbText
  0
LINE
  5
B4
330
17
100
AcDbEntity
  8
COTA
100
AcDbLine
 10
-9214.4
 20
12991.4
 30
0.0
 11
-9214.4
 21
13003.4
 31
0.0
  0
LINE
  5
B5
330
17
100
AcDbEntity
  8
COTA
100
AcDbLine
 10
-9272.7
 20
12991.4
 30
0.0
 11
-9209.4
 21
12991.4
 31
0.0
  0
LINE
  5
B6
330
17
100
AcDbEntity
  8
COTA
100
AcDbLine
 10
-9272.7
 20
13003.4
 30
0.0
 11
-9209.4
 21
13003.4
 31
0.0
  0
TEXT
  5
B7
330
17
100
AcDbEntity
  8
COTA
100
AcDbText
 10
-9214.4
 20
12997.4
 30
0.0
 40
4.0
  1
12
100
AcDbText
  0
LINE
  5
B8
330
17
100
AcDbEntity
  8
COTA
100
AcDbLine
 10
-10224.2
 20
12673.5
 30
0.0
 11
-9980.2
 21
12673.5
 31
0.0
  0
LINE
  5
B9
330
17
100
AcDbEntity
  8
COTA
100
AcDbLine
 10
-10224.2
 20
12722.1
 30
0.0
 11
-10224.2
 21
12668.5
 31
0.0
  0
LINE
  5
BA
330
17
100
AcDbEntity
  8
COTA
100
AcDbLine
 10
-9980.2
 20
12690.5
 30
0.0
 11
-9980.2
 21
12668.5
 31
0.0
  0
TEXT
  5
BB
330
17
100
AcDbEntity
  8
COTA
100
AcDbText
 10
-10102.2
 20
12681.6
 30
0.0
 40
4.0
  1
244
100
AcDbText
  0
LINE
  5
BC
330
17
100
AcDbEntity
  8
COTA
100
AcDbLine
 10
-9980.2
 20
12673.5
 30
0.0
 11
-9759.7
 21
12673.5
 31
0.0
  0
LINE
  5
BD
330
17
100
AcDbEntity
  8
COTA
100
AcDbLine
 10
-9980.2
 20
12690.5
 30
0.0
 11
-9980.2
 21
12668.5
 31
0.0
  0
LINE
  5
BE
330
17
100
AcDbEntity
  8
COTA
100
AcDbLine
 10
-9759.7
 20
12722.1
 30
0.0
 11
-9759.7
 21
12668.5
 31
0.0
  0
TEXT
  5
BF
330
17
100
AcDbEntity
  8
COTA
100
AcDbText
 10
-9869.9
 20
12681.6
 30
0.0
 40
4.0
  1
220
100
AcDbText
  0
LINE
  5
C0
330
17
100
AcDbEntity
  8
COTA
100
AcDbLine
 10
-10224.2
 20
12649.6
 30
0.0
 11
-9759.7
 21
12649.6
 31
0.0
  0
LINE
  5
C1
330
17
100
AcDbEntity
  8
COTA
100
AcDbLine
 10
-10224.2
 20
12725.1
 30
0.0
 11
-10224.2
 21
12644.6
 31
0.0
  0
LINE
  5
C2
330
17
100
AcDbEntity
  8
COTA
100
AcDbLine
 10
-9759.7
 20
12725.1
 30
0.0
 11
-9759.7
 21
12644.6
 31
0.0
  0
TEXT
  5
C3
330
17
100
AcDbEntity
  8
COTA
100
AcDbText
 10
-9991.9
 20
12657.7
 30
0.0
 40
4.0
  1
464
100
AcDbText
  0
LINE
  5
C4
330
17
100
AcDbEntity
  8
COTA
100
AcDbLine
 10
-9185.3
 20
12944.4
 30
0.0
 11
-9185.3
 21
13008.4
 31
0.0
  0
LINE
  5
C5
330
17
100
AcDbEntity
  8
COTA
100
AcDbLine
 10
-9272.7
 20
13008.4
 30
0.0
 11
-9180.3
 21
13008.4
 31
0.0
  0
LINE
  5
C6
330
17
100
AcDbEntity
  8
COTA
100
AcDbLine
 10
-9272.7
 20
12944.4
 30
0.0
 11
-9180.3
 21
12944.4
 31
0.0
  0
TEXT
  5
C7
330
17
100
AcDbEntity
  8
COTA
100
AcDbText
 10
-9185.3
 20
12981.4
 30
0.0
 40
4.0
  1
64
100
AcDbText
  0
LINE
  5
C8
330
17
100
AcDbEntity
  8
COTA
100
AcDbLine
 10
-9708.6
 20
12722.1
 30
0.0
 11
-9708.6
 21
12769.1
 31
0.0
  0
LINE
  5
C9
330
17
100
AcDbEntity
  8
COTA
100
AcDbLine
 10
-9759.7
 20
12769.1
 30
0.0
 11
-9703.6
 21
12769.1
 31
0.0
  0
LINE
  5
CA
330
17
100
AcDbEntity
  8
COTA
100
AcDbLine
 10
-9759.7
 20
12722.1
 30
0.0
 11
-9703.6
 21
12722.1
 31
0.0
  0
TEXT
  5
CB
330
17
100
AcDbEntity
  8
COTA
100
AcDbText
 10
-9716.6
 20
12745.6
 30
0.0
 40
4.0
  1
47
100
AcDbText
  0
LINE
  5
CC
330
17
100
AcDbEntity
  8
COTA
100
AcDbLine
 10
-9708.6
 20
12781.1
 30
0.0
 11
-9708.6
 21
12786.1
 31
0.0
  0
LINE
  5
CD
330
17
100
AcDbEntity
  8
COTA
100
AcDbLine
 10
-9759.7
 20
12781.1
 30
0.0
 11
-9703.6
 21
12781.1
 31
0.0
  0
LINE
  5
CE
330
17
100
AcDbEntity
  8
COTA
100
AcDbLine
 10
-9759.7
 20
12786.1
 30
0.0
 11
-9703.6
 21
12786.1
 31
0.0
  0
TEXT
  5
CF
330
17
100
AcDbEntity
  8
COTA
100
AcDbText
 10
-9716.7
 20
12798.1
 30
0.0
 40
4.0
  1
5
100
AcDbText
  0
LINE
  5
D0
330
17
100
AcDbEntity
  8
COTA
100
AcDbLine
 10
-9671.4
 20
12722.1
 30
0.0
 11
-9671.4
 21
12786.1
 31
0.0
  0
LINE
  5
D1
330
17
100
AcDbEntity
  8
COTA
100
AcDbLine
 10
-9759.7
 20
12786.1
 30
0.0
 11
-9666.4
 21
12786.1
 31
0.0
  0
LINE
  5
D2
330
17
100
AcDbEntity
  8
COTA
100
AcDbLine
 10
-9759.7
 20
12722.1
 30
0.0
 11
-9666.4
 21
12722.1
 31
0.0
  0
TEXT
  5
D3
330
17
100
AcDbEntity
  8
COTA
100
AcDbText
 10
-9679.5
 20
12754.1
 30
0.0
 40
4.0
  1
64
100
AcDbText
  0
LINE
  5
D4
330
17
100
AcDbEntity
  8
COTA
100
AcDbLine
 10
-9506.9
 20
12912.4
 30
0.0
 11
-9506.9
 21
12944.4
 31
0.0
  0
LINE
  5
D5
330
17
100
AcDbEntity
  8
COTA
100
AcDbLine
 10
-9489.7
 20
12944.4
 30
0.0
 11
-9511.9
 21
12944.4
 31
0.0
  0
LINE
  5
D6
330
17
100
AcDbEntity
  8
COTA
100
AcDbLine
 10
-9489.7
 20
12912.4
 30
0.0
 11
-9511.9
 21
12912.4
 31
0.0
  0
TEXT
  5
D7
330
17
100
AcDbEntity
  8
COTA
100
AcDbText
 10
-9515.1
 20
12928.4
 30
0.0
 40
4.0
  1
32
100
AcDbText
  0
LINE
  5
D8
330
17
100
AcDbEntity
  8
COTA
100
AcDbLine
 10
-9469.8
 20
12912.4
 30
0.0
 11
-9469.8
 21
12989.2
 31
0.0
  0
LINE
  5
D9
330
17
100
AcDbEntity
  8
COTA
100
AcDbLine
 10
-9486.2
 20
12989.2
 30
0.0
 11
-9464.8
 21
12989.2
 31
0.0
  0
LINE
  5
DA
330
17
100
AcDbEntity
  8
COTA
100
AcDbLine
 10
-9486.2
 20
12912.4
 30
0.0
 11
-9464.8
 21
12912.4
 31
0.0
  0
TEXT
  5
DB
330
17
100
AcDbEntity
  8
COTA
100
AcDbText
 10
-9478.0
 20
12950.8
 30
0.0
 40
4.0
  1
77
100
AcDbText
  0
LINE
  5
DC
330
17
100
AcDbEntity
  8
COTA
100
AcDbLine
 10
-9996.3
 20
12912.4
 30
0.0
 11
-9996.3
 21
12944.4
 31
0.0
  0
LINE
  5
DD
330
17
100
AcDbEntity
  8
COTA
100
AcDbLine
 10
-9983.7
 20
12944.4
 30
0.0
 11
-10001.3
 21
12944.4
 31
0.0
  0
LINE
  5
DE
330
17
100
AcDbEntity
  8
COTA
100
AcDbLine
 10
-9983.7
 20
12912.4
 30
0.0
 11
-10001.3
 21
12912.4
 31
0.0
  0
TEXT
  5
DF
330
17
100
AcDbEntity
  8
COTA
100
AcDbText
 10
-10004.6
 20
12928.4
 30
0.0
 40
4.0
  1
32
100
AcDbText
  0
LINE
  5
E0
330
17
100
AcDbEntity
  8
COTA
100
AcDbLine
 10
-9957.6
 20
12912.4
 30
0.0
 11
-9957.6
 21
12989.2
 31
0.0
  0
LINE
  5
E1
330
17
100
AcDbEntity
  8
COTA
100
AcDbLine
 10
-9976.7
 20
12912.4
 30
0.0
 11
-9952.6
 21
12912.4
 31
0.0
  0
LINE
  5
E2
330
17
100
AcDbEntity
  8
COTA
100
AcDbLine
 10
-9976.7
 20
12989.2
 30
0.0
 11
-9952.6
 21
12989.2
 31
0.0
  0
TEXT
  5
E3
330
17
100
AcDbEntity
  8
COTA
100
AcDbText
 10
-9965.8
 20
12950.8
 30
0.0
 40
4.0
  1
77
100
AcDbText
  0
LINE
  5
E4
330
17
100
AcDbEntity
  8
COTA
100
AcDbLine
 10
-9991.8
 20
12690.1
 30
0.0
 11
-9991.8
 21
12722.1
 31
0.0
  0
LINE
  5
E5
330
17
100
AcDbEntity
  8
COTA
100
AcDbLine
 10
-9983.7
 20
12722.1
 30
0.0
 11
-9996.8
 21
12722.1
 31
0.0
  0
LINE
  5
E6
330
17
100
AcDbEntity
  8
COTA
100
AcDbLine
 10
-9983.7
 20
12690.1
 30
0.0
 11
-9996.8
 21
12690.1
 31
0.0
  0
TEXT
  5
E7
330
17
100
AcDbEntity
  8
COTA
100
AcDbText
 10
-10000.1
 20
12706.1
 30
0.0
 40
4.0
  1
32
100
AcDbText
  0
LINE
  5
E8
330
17
100
AcDbEntity
  8
COTA
100
AcDbLine
 10
-9959.8
 20
12690.1
 30
0.0
 11
-9959.8
 21
12766.9
 31
0.0
  0
LINE
  5
E9
330
17
100
AcDbEntity
  8
COTA
100
AcDbLine
 10
-9976.7
 20
12766.9
 30
0.0
 11
-9954.8
 21
12766.9
 31
0.0
  0
LINE
  5
EA
330
17
100
AcDbEntity
  8
COTA
100
AcDbLine
 10
-9976.7
 20
12690.1
 30
0.0
 11
-9954.8
 21
12690.1
 31
0.0
  0
TEXT
  5
EB
330
17
100
AcDbEntity
  8
COTA
100
AcDbText
 10
-9967.9
 20
12728.5
 30
0.0
 40
4.0
  1
77
100
AcDbText
  0
LINE
  5
EC
330
17
100
AcDbEntity
  8
COTA
100
AcDbLine
 10
-9708.6
 20
12769.1
 30
0.0
 11
-9708.6
 21
12781.1
 31
0.0
  0
LINE
  5
ED
330
17
100
AcDbEntity
  8
COTA
100
AcDbLine
 10
-9759.7
 20
12769.1
 30
0.0
 11
-9703.6
 21
12769.1
 31
0.0
  0
LINE
  5
EE
330
17
100
AcDbEntity
  8
COTA
100
AcDbLine
 10
-9759.7
 20
12781.1
 30
0.0
 11
-9703.6
 21
12781.1
 31
0.0
  0
TEXT
  5
EF
330
17
100
AcDbEntity
  8
COTA
100
AcDbText
 10
-9708.6
 20
12775.1
 30
0.0
 40
4.0
  1
12
100
AcDbText
  0
LINE
  5
F0
330
17
100
AcDbEntity
  8
COTA
100
AcDbLine
 10
-9733.2
 20
12725.1
 30
0.0
 11
-9733.2
 21
12769.1
 31
0.0
  0
LINE
  5
F1
330
17
100
AcDbEntity
  8
COTA
100
AcDbLine
 10
-9759.7
 20
12769.1
 30
0.0
 11
-9728.2
 21
12769.1
 31
0.0
  0
LINE
  5
F2
330
17
100
AcDbEntity
  8
COTA
100
AcDbLine
 10
-9759.7
 20
12725.1
 30
0.0
 11
-9728.2
 21
12725.1
 31
0.0
  0
TEXT
  5
F3
330
17
100
AcDbEntity
  8
COTA
100
AcDbText
 10
-9740.8
 20
12747.1
 30
0.0
 40
4.0
  1
44
100
AcDbText
  0
LINE
  5
F4
330
17
100
AcDbEntity
  8
COTA
100
AcDbLine
 10
-9733.2
 20
12722.1
 30
0.0
 11
-9733.2
 21
12725.1
 31
0.0
  0
LINE
  5
F5
330
17
100
AcDbEntity
  8
COTA
100
AcDbLine
 10
-9759.7
 20
12725.1
 30
0.0
 11
-9728.2
 21
12725.1
 31
0.0
  0
LINE
  5
F6
330
17
100
AcDbEntity
  8
COTA
100
AcDbLine
 10
-9759.7
 20
12722.1
 30
0.0
 11
-9728.2
 21
12722.1
 31
0.0
  0
TEXT
  5
F7
330
17
100
AcDbEntity
  8
COTA
100
AcDbText
 10
-9733.2
 20
12723.6
 30
0.0
 40
4.0
  1
3
100
AcDbText
  0
LINE
  5
F8
330
17
100
AcDbEntity
  8
COTA
100
AcDbLine
 10
-9244.0
 20
12947.4
 30
0.0
 11
-9244.0
 21
12991.4
 31
0.0
  0
LINE
  5
F9
330
17
100
AcDbEntity
  8
COTA
100
AcDbLine
 10
-9272.7
 20
12991.4
 30
0.0
 11
-9239.0
 21
12991.4
 31
0.0
  0
LINE
  5
FA
330
17
100
AcDbEntity
  8
COTA
100
AcDbLine
 10
-9272.7
 20
12947.4
 30
0.0
 11
-9239.0
 21
12947.4
 31
0.0
  0
TEXT
  5
FB
330
17
100
AcDbEntity
  8
COTA
100
AcDbText
 10
-9251.6
 20
12969.4
 30
0.0
 40
4.0
  1
44
100
AcDbText
  0
LINE
  5
FC
330
17
100
AcDbEntity
  8
COTA
100
AcDbLine
 10
-9244.0
 20
12944.4
 30
0.0
 11
-9244.0
 21
12947.4
 31
0.0
  0
LINE
  5
FD
330
17
100
AcDbEntity
  8
COTA
100
AcDbLine
 10
-9272.7
 20
12947.4
 30
0.0
 11
-9239.0
 21
12947.4
 31
0.0
  0
LINE
  5
FE
330
17
100
AcDbEntity
  8
COTA
100
AcDbLine
 10
-9272.7
 20
12944.4
 30
0.0
 11
-9239.0
 21
12944.4
 31
0.0
  0
TEXT
  5
FF
330
17
100
AcDbEntity
  8
COTA
100
AcDbText
 10
-9244.0
 20
12945.9
 30
0.0
 40
4.0
  1
3
100
AcDbText
  0
LINE
  5
100
330
17
100
AcDbEntity
  8
COTA
100
AcDbLine
 10
-9214.4
 20
13003.4
 30
0.0
 11
-9214.4
 21
13008.4
 31
0.0
  0
LINE
  5
101
330
17
100
AcDbEntity
  8
COTA
100
AcDbLine
 10
-9272.7
 20
13003.4
 30
0.0
 11
-9209.4
 21
13003.4
 31
0.0
  0
LINE
  5
102
330
17
100
AcDbEntity
  8
COTA
100
AcDbLine
 10
-9272.7
 20
13008.4
 30
0.0
 11
-9209.4
 21
13008.4
 31
0.0
  0
TEXT
  5
103
330
17
100
AcDbEntity
  8
COTA
100
AcDbText
 10
-9222.0
 20
13020.2
 30
0.0
 40
4.0
  1
5
100
AcDbText
  0
LINE
  5
104
330
17
100
AcDbEntity
  8
COTA
100
AcDbLine
 10
-10224.2
 20
13018.3
 30
0.0
 11
-9980.2
 21
13018.3
 31
0.0
  0
LINE
  5
105
330
17
100
AcDbEntity
  8
COTA
100
AcDbLine
 10
-10224.2
 20
13008.4
 30
0.0
 11
-10224.2
 21
13023.3
 31
0.0
  0
LINE
  5
106
330
17
100
AcDbEntity
  8
COTA
100
AcDbLine
 10
-9980.2
 20
13008.4
 30
0.0
 11
-9980.2
 21
13023.3
 31
0.0
  0
TEXT
  5
107
330
17
100
AcDbEntity
  8
COTA
100
AcDbText
 10
-10102.2
 20
13025.9
 30
0.0
 40
4.0
  1
244
100
AcDbText
  0
LINE
  5
108
330
17
100
AcDbEntity
  8
COTA
100
AcDbLine
 10
-9980.2
 20
13018.3
 30
0.0
 11
-9759.7
 21
13018.3
 31
0.0
  0
LINE
  5
109
330
17
100
AcDbEntity
  8
COTA
100
AcDbLine
 10
-9980.2
 20
13008.4
 30
0.0
 11
-9980.2
 21
13023.3
 31
0.0
  0
LINE
  5
10A
330
17
100
AcDbEntity
  8
COTA
100
AcDbLine
 10
-9759.7
 20
13008.4
 30
0.0
 11
-9759.7
 21
13023.3
 31
0.0
  0
TEXT
  5
10B
330
17
100
AcDbEntity
  8
COTA
100
AcDbText
 10
-9869.9
 20
13025.9
 30
0.0
 40
4.0
  1
220
100
AcDbText
  0
LINE
  5
10C
330
17
100
AcDbEntity
  8
COTA
100
AcDbLine
 10
-9733.7
 20
13018.3
 30
0.0
 11
-9489.7
 21
13018.3
 31
0.0
  0
LINE
  5
10D
330
17
100
AcDbEntity
  8
COTA
100
AcDbLine
 10
-9733.7
 20
13008.4
 30
0.0
 11
-9733.7
 21
13023.3
 31
0.0
  0
LINE
  5
10E
330
17
100
AcDbEntity
  8
COTA
100
AcDbLine
 10
-9489.7
 20
13008.4
 30
0.0
 11
-9489.7
 21
13023.3
 31
0.0
  0
TEXT
  5
10F
330
17
100
AcDbEntity
  8
COTA
100
AcDbText
 10
-9611.7
 20
13025.9
 30
0.0
 40
4.0
  1
244
100
AcDbText
  0
LINE
  5
110
330
17
100
AcDbEntity
  8
COTA
100
AcDbLine
 10
-9489.7
 20
13018.3
 30
0.0
 11
-9272.7
 21
13018.3
 31
0.0
  0
LINE
  5
111
330
17
100
AcDbEntity
  8
COTA
100
AcDbLine
 10
-9489.7
 20
13008.4
 30
0.0
 11
-9489.7
 21
13023.3
 31
0.0
  0
LINE
  5
112
330
17
100
AcDbEntity
  8
COTA
100
AcDbLine
 10
-9272.7
 20
13008.4
 30
0.0
 11
-9272.7
 21
13023.3
 31
0.0
  0
TEXT
  5
113
330
17
100
AcDbEntity
  8
COTA
100
AcDbText
 10
-9381.2
 20
13025.9
 30
0.0
 40
4.0
  1
217
100
AcDbText
  0
LINE
  5
114
330
17
100
AcDbEntity
  8
COTA
100
AcDbLine
 10
-10224.2
 20
12791.1
 30
0.0
 11
-9980.2
 21
12791.1
 31
0.0
  0
LINE
  5
115
330
17
100
AcDbEntity
  8
COTA
100
AcDbLine
 10
-10224.2
 20
12786.1
 30
0.0
 11
-10224.2
 21
12796.1
 31
0.0
  0
LINE
  5
116
330
17
100
AcDbEntity
  8
COTA
100
AcDbLine
 10
-9980.2
 20
12786.1
 30
0.0
 11
-9980.2
 21
12796.1
 31
0.0
  0
TEXT
  5
117
330
17
100
AcDbEntity
  8
COTA
100
AcDbText
 10
-10102.2
 20
12798.7
 30
0.0
 40
4.0
  1
244
100
AcDbText
  0
LINE
  5
118
330
17
100
AcDbEntity
  8
COTA
100
AcDbLine
 10
-9980.2
 20
12791.1
 30
0.0
 11
-9759.7
 21
12791.1
 31
0.0
  0
LINE
  5
119
330
17
100
AcDbEntity
  8
COTA
100
AcDbLine
 10
-9980.2
 20
12786.1
 30
0.0
 11
-9980.2
 21
12796.1
 31
0.0
  0
LINE
  5
11A
330
17
100
AcDbEntity
  8
COTA
100
AcDbLine
 10
-9759.7
 20
12786.1
 30
0.0
 11
-9759.7
 21
12796.1
 31
0.0
  0
TEXT
  5
11B
330
17
100
AcDbEntity
  8
COTA
100
AcDbText
 10
-9869.9
 20
12798.7
 30
0.0
 40
4.0
  1
220
100
AcDbText
  0
LINE
  5
11C
330
17
100
AcDbEntity
  8
COTA
100
AcDbLine
 10
-8619.8
 20
13105.5
 30
0.0
 11
-8619.8
 21
13233.5
 31
0.0
  0
LINE
  5
11D
330
17
100
AcDbEntity
  8
COTA
100
AcDbLine
 10
-8554.5
 20
13105.5
 30
0.0
 11
-8624.8
 21
13105.5
 31
0.0
  0
LINE
  5
11E
330
17
100
AcDbEntity
  8
COTA
100
AcDbLine
 10
-8534.5
 20
13233.5
 30
0.0
 11
-8624.8
 21
13233.5
 31
0.0
  0
TEXT
  5
11F
330
17
100
AcDbEntity
  8
COTA
100
AcDbText
 10
-8625.3
 20
13169.5
 30
0.0
 40
4.0
  1
64
100
AcDbText
  0
LINE
  5
120
330
17
100
AcDbEntity
  8
Cota Seção (2x)
100
AcDbLine
 10
-8478.5
 20
13113.5
 30
0.0
 11
-8478.5
 21
13233.5
 31
0.0
  0
LINE
  5
121
330
17
100
AcDbEntity
  8
Cota Seção (2x)
100
AcDbLine
 10
-8516.5
 20
13113.5
 30
0.0
 11
-8473.5
 21
13113.5
 31
0.0
  0
LINE
  5
122
330
17
100
AcDbEntity
  8
Cota Seção (2x)
100
AcDbLine
 10
-8516.5
 20
13233.5
 30
0.0
 11
-8473.5
 21
13233.5
 31
0.0
  0
TEXT
  5
123
330
17
100
AcDbEntity
  8
Cota Seção (2x)
100
AcDbText
 10
-8478.5
 20
13180.0
 30
0.0
 40
4.0
  1
60
100
AcDbText
  0
LINE
  5
124
330
17
100
AcDbEntity
  8
COTA
100
AcDbLine
 10
-8384.0
 20
13105.5
 30
0.0
 11
-8384.0
 21
13233.5
 31
0.0
  0
LINE
  5
125
330
17
100
AcDbEntity
  8
COTA
100
AcDbLine
 10
-8460.5
 20
13233.5
 30
0.0
 11
-8379.0
 21
13233.5
 31
0.0
  0
LINE
  5
126
330
17
100
AcDbEntity
  8
COTA
100
AcDbLine
 10
-8440.5
 20
13105.5
 30
0.0
 11
-8379.0
 21
13105.5
 31
0.0
  0
TEXT
  5
127
330
17
100
AcDbEntity
  8
COTA
100
AcDbText
 10
-8389.5
 20
13169.5
 30
0.0
 40
4.0
  1
64
100
AcDbText
  0
LINE
  5
128
330
17
100
AcDbEntity
  8
COTA
100
AcDbLine
 10
-8260.2
 20
13138.0
 30
0.0
 11
-8172.2
 21
13138.0
 31
0.0
  0
LINE
  5
129
330
17
100
AcDbEntity
  8
COTA
100
AcDbLine
 10
-8260.2
 20
13169.5
 30
0.0
 11
-8260.2
 21
13133.0
 31
0.0
  0
LINE
  5
12A
330
17
100
AcDbEntity
  8
COTA
100
AcDbLine
 10
-8172.2
 20
13169.5
 30
0.0
 11
-8172.2
 21
13133.0
 31
0.0
  0
TEXT
  5
12B
330
17
100
AcDbEntity
  8
COTA
100
AcDbText
 10
-8216.2
 20
13146.1
 30
0.0
 40
4.0
  1
88
100
AcDbText
  0
LINE
  5
12C
330
17
100
AcDbEntity
  8
COTA
100
AcDbLine
 10
-8172.2
 20
13138.0
 30
0.0
 11
-8062.2
 21
13138.0
 31
0.0
  0
LINE
  5
12D
330
17
100
AcDbEntity
  8
COTA
100
AcDbLine
 10
-8172.2
 20
13169.5
 30
0.0
 11
-8172.2
 21
13133.0
 31
0.0
  0
LINE
  5
12E
330
17
100
AcDbEntity
  8
COTA
100
AcDbLine
 10
-8062.2
 20
13169.5
 30
0.0
 11
-8062.2
 21
13133.0
 31
0.0
  0
TEXT
  5
12F
330
17
100
AcDbEntity
  8
COTA
100
AcDbText
 10
-8117.2
 20
13146.1
 30
0.0
 40
4.0
  1
110
100
AcDbText
  0
LINE
  5
130
330
17
100
AcDbEntity
  8
COTA
100
AcDbLine
 10
-8260.2
 20
13094.0
 30
0.0
 11
-7856.2
 21
13094.0
 31
0.0
  0
LINE
  5
131
330
17
100
AcDbEntity
  8
COTA
100
AcDbLine
 10
-8260.2
 20
13169.5
 30
0.0
 11
-8260.2
 21
13089.0
 31
0.0
  0
LINE
  5
132
330
17
100
AcDbEntity
  8
COTA
100
AcDbLine
 10
-7856.2
 20
13169.5
 30
0.0
 11
-7856.2
 21
13089.0
 31
0.0
  0
TEXT
  5
133
330
17
100
AcDbEntity
  8
COTA
100
AcDbText
 10
-8058.2
 20
13102.1
 30
0.0
 40
4.0
  1
404
100
AcDbText
  0
LINE
  5
134
330
17
100
AcDbEntity
  8
COTA
100
AcDbLine
 10
-7856.2
 20
13158.0
 30
0.0
 11
-7777.7
 21
13158.0
 31
0.0
  0
LINE
  5
135
330
17
100
AcDbEntity
  8
COTA
100
AcDbLine
 10
-7856.2
 20
13189.5
 30
0.0
 11
-7856.2
 21
13153.0
 31
0.0
  0
LINE
  5
136
330
17
100
AcDbEntity
  8
COTA
100
AcDbLine
 10
-7777.7
 20
13189.5
 30
0.0
 11
-7777.7
 21
13153.0
 31
0.0
  0
TEXT
  5
137
330
17
100
AcDbEntity
  8
COTA
100
AcDbText
 10
-7816.9
 20
13166.2
 30
0.0
 40
4.0
  1
78
100
AcDbText
  0
LINE
  5
138
330
17
100
AcDbEntity
  8
COTA
100
AcDbLine
 10
-7777.7
 20
13158.0
 30
0.0
 11
-7699.2
 21
13158.0
 31
0.0
  0
LINE
  5
139
330
17
100
AcDbEntity
  8
COTA
100
AcDbLine
 10
-7777.7
 20
13189.5
 30
0.0
 11
-7777.7
 21
13153.0
 31
0.0
  0
LINE
  5
13A
330
17
100
AcDbEntity
  8
COTA
100
AcDbLine
 10
-7699.2
 20
13189.5
 30
0.0
 11
-7699.2
 21
13153.0
 31
0.0
  0
TEXT
  5
13B
330
17
100
AcDbEntity
  8
COTA
100
AcDbText
 10
-7738.4
 20
13166.2
 30
0.0
 40
4.0
  1
78
100
AcDbText
  0
LINE
  5
13C
330
17
100
AcDbEntity
  8
COTA
100
AcDbLine
 10
-7856.2
 20
13094.0
 30
0.0
 11
-7699.2
 21
13094.0
 31
0.0
  0
LINE
  5
13D
330
17
100
AcDbEntity
  8
COTA
100
AcDbLine
 10
-7856.2
 20
13169.5
 30
0.0
 11
-7856.2
 21
13089.0
 31
0.0
  0
LINE
  5
13E
330
17
100
AcDbEntity
  8
COTA
100
AcDbLine
 10
-7699.2
 20
13169.5
 30
0.0
 11
-7699.2
 21
13089.0
 31
0.0
  0
TEXT
  5
13F
330
17
100
AcDbEntity
  8
COTA
100
AcDbText
 10
-7777.7
 20
13102.1
 30
0.0
 40
4.0
  1
157
100
AcDbText
  0
LINE
  5
140
330
17
100
AcDbEntity
  8
COTA
100
AcDbLine
 10
-8288.5
 20
13169.5
 30
0.0
 11
-8288.5
 21
13233.5
 31
0.0
  0
LINE
  5
141
330
17
100
AcDbEntity
  8
COTA
100
AcDbLine
 10
-8260.2
 20
13233.5
 30
0.0
 11
-8293.5
 21
13233.5
 31
0.0
  0
LINE
  5
142
330
17
100
AcDbEntity
  8
COTA
100
AcDbLine
 10
-8260.2
 20
13169.5
 30
0.0
 11
-8293.5
 21
13169.5
 31
0.0
  0
TEXT
  5
143
330
17
100
AcDbEntity
  8
COTA
100
AcDbText
 10
-8296.6
 20
13201.5
 30
0.0
 40
4.0
  1
64
100
AcDbText
  0
LINE
  5
144
330
17
100
AcDbEntity
  8
COTA
100
AcDbLine
 10
-8062.2
 20
13138.0
 30
0.0
 11
-7976.2
 21
13138.0
 31
0.0
  0
LINE
  5
145
330
17
100
AcDbEntity
  8
COTA
100
AcDbLine
 10
-8062.2
 20
13169.5
 30
0.0
 11
-8062.2
 21
13133.0
 31
0.0
  0
LINE
  5
146
330
17
100
AcDbEntity
  8
COTA
100
AcDbLine
 10
-7976.2
 20
13169.5
 30
0.0
 11
-7976.2
 21
13133.0
 31
0.0
  0
TEXT
  5
147
330
17
100
AcDbEntity
  8
COTA
100
AcDbText
 10
-8019.2
 20
13146.2
 30
0.0
 40
4.0
  1
86
100
AcDbText
  0
LINE
  5
148
330
17
100
AcDbEntity
  8
COTA
100
AcDbLine
 10
-7976.2
 20
13138.0
 30
0.0
 11
-7856.2
 21
13138.0
 31
0.0
  0
LINE
  5
149
330
17
100
AcDbEntity
  8
COTA
100
AcDbLine
 10
-7976.2
 20
13169.5
 30
0.0
 11
-7976.2
 21
13133.0
 31
0.0
  0
LINE
  5
14A
330
17
100
AcDbEntity
  8
COTA
100
AcDbLine
 10
-7856.2
 20
13170.8
 30
0.0
 11
-7856.2
 21
13133.0
 31
0.0
  0
TEXT
  5
14B
330
17
100
AcDbEntity
  8
COTA
100
AcDbText
 10
-7916.2
 20
13146.1
 30
0.0
 40
4.0
  1
120
100
AcDbText
  0
LINE
  5
14C
330
17
100
AcDbEntity
  8
COTA
100
AcDbLine
 10
-7801.7
 20
12904.5
 30
0.0
 11
-7711.7
 21
12904.5
 31
0.0
  0
LINE
  5
14D
330
17
100
AcDbEntity
  8
COTA
100
AcDbLine
 10
-7711.7
 20
12935.9
 30
0.0
 11
-7711.7
 21
12899.5
 31
0.0
  0
LINE
  5
14E
330
17
100
AcDbEntity
  8
COTA
100
AcDbLine
 10
-7801.7
 20
12935.9
 30
0.0
 11
-7801.7
 21
12899.5
 31
0.0
  0
TEXT
  5
14F
330
17
100
AcDbEntity
  8
COTA
100
AcDbText
 10
-7756.7
 20
12912.6
 30
0.0
 40
4.0
  1
90
100
AcDbText
  0
LINE
  5
150
330
17
100
AcDbEntity
  8
COTA
100
AcDbLine
 10
-7891.7
 20
12904.5
 30
0.0
 11
-7801.7
 21
12904.5
 31
0.0
  0
LINE
  5
151
330
17
100
AcDbEntity
  8
COTA
100
AcDbLine
 10
-7801.7
 20
12935.9
 30
0.0
 11
-7801.7
 21
12899.5
 31
0.0
  0
LINE
  5
152
330
17
100
AcDbEntity
  8
COTA
100
AcDbLine
 10
-7891.7
 20
12935.9
 30
0.0
 11
-7891.7
 21
12899.5
 31
0.0
  0
TEXT
  5
153
330
17
100
AcDbEntity
  8
COTA
100
AcDbText
 10
-7846.7
 20
12912.6
 30
0.0
 40
4.0
  1
90
100
AcDbText
  0
LINE
  5
154
330
17
100
AcDbEntity
  8
COTA
100
AcDbLine
 10
-7891.7
 20
12860.4
 30
0.0
 11
-7711.7
 21
12860.4
 31
0.0
  0
LINE
  5
155
330
17
100
AcDbEntity
  8
COTA
100
AcDbLine
 10
-7711.7
 20
12935.9
 30
0.0
 11
-7711.7
 21
12855.4
 31
0.0
  0
LINE
  5
156
330
17
100
AcDbEntity
  8
COTA
100
AcDbLine
 10
-7891.7
 20
12935.9
 30
0.0
 11
-7891.7
 21
12855.4
 31
0.0
  0
TEXT
  5
157
330
17
100
AcDbEntity
  8
COTA
100
AcDbText
 10
-7801.7
 20
12868.6
 30
0.0
 40
4.0
  1
180
100
AcDbText
  0
LINE
  5
158
330
17
100
AcDbEntity
  8
COTA
100
AcDbLine
 10
-8115.7
 20
12904.5
 30
0.0
 11
-7905.7
 21
12904.5
 31
0.0
  0
LINE
  5
159
330
17
100
AcDbEntity
  8
COTA
100
AcDbLine
 10
-7905.7
 20
12935.9
 30
0.0
 11
-7905.7
 21
12899.5
 31
0.0
  0
LINE
  5
15A
330
17
100
AcDbEntity
  8
COTA
100
AcDbLine
 10
-8115.7
 20
12921.9
 30
0.0
 11
-8115.7
 21
12899.5
 31
0.0
  0
TEXT
  5
15B
330
17
100
AcDbEntity
  8
COTA
100
AcDbText
 10
-8010.7
 20
12912.6
 30
0.0
 40
4.0
  1
210
100
AcDbText
  0
LINE
  5
15C
330
17
100
AcDbEntity
  8
COTA
100
AcDbLine
 10
-8261.7
 20
12904.5
 30
0.0
 11
-8115.7
 21
12904.5
 31
0.0
  0
LINE
  5
15D
330
17
100
AcDbEntity
  8
COTA
100
AcDbLine
 10
-8115.7
 20
12921.9
 30
0.0
 11
-8115.7
 21
12899.5
 31
0.0
  0
LINE
  5
15E
330
17
100
AcDbEntity
  8
COTA
100
AcDbLine
 10
-8261.7
 20
12955.9
 30
0.0
 11
-8261.7
 21
12899.5
 31
0.0
  0
TEXT
  5
15F
330
17
100
AcDbEntity
  8
COTA
100
AcDbText
 10
-8188.7
 20
12912.6
 30
0.0
 40
4.0
  1
146
100
AcDbText
  0
LINE
  5
160
330
17
100
AcDbEntity
  8
COTA
100
AcDbLine
 10
-8261.7
 20
12860.4
 30
0.0
 11
-7905.7
 21
12860.4
 31
0.0
  0
LINE
  5
161
330
17
100
AcDbEntity
  8
COTA
100
AcDbLine
 10
-7905.7
 20
12935.9
 30
0.0
 11
-7905.7
 21
12855.4
 31
0.0
  0
LINE
  5
162
330
17
100
AcDbEntity
  8
COTA
100
AcDbLine
 10
-8261.7
 20
12955.9
 30
0.0
 11
-8261.7
 21
12855.4
 31
0.0
  0
TEXT
  5
163
330
17
100
AcDbEntity
  8
COTA
100
AcDbText
 10
-8083.7
 20
12868.7
 30
0.0
 40
4.0
  1
356
100
AcDbText
  0
LINE
  5
164
330
17
100
AcDbEntity
  8
COTA
100
AcDbLine
 10
-8276.9
 20
12955.9
 30
0.0
 11
-8276.9
 21
12985.9
 31
0.0
  0
LINE
  5
165
330
17
100
AcDbEntity
  8
COTA
100
AcDbLine
 10
-8261.7
 20
12985.9
 30
0.0
 11
-8281.9
 21
12985.9
 31
0.0
  0
LINE
  5
166
330
17
100
AcDbEntity
  8
COTA
100
AcDbLine
 10
-8261.7
 20
12955.9
 30
0.0
 11
-8281.9
 21
12955.9
 31
0.0
  0
TEXT
  5
167
330
17
100
AcDbEntity
  8
COTA
100
AcDbText
 10
-8285.2
 20
12970.9
 30
0.0
 40
4.0
  1
30
100
AcDbText
  0
LINE
  5
168
330
17
100
AcDbEntity
  8
COTA
100
AcDbLine
 10
-8276.9
 20
12985.9
 30
0.0
 11
-8276.9
 21
12999.9
 31
0.0
  0
LINE
  5
169
330
17
100
AcDbEntity
  8
COTA
100
AcDbLine
 10
-8261.7
 20
12985.9
 30
0.0
 11
-8281.9
 21
12985.9
 31
0.0
  0
LINE
  5
16A
330
17
100
AcDbEntity
  8
COTA
100
AcDbLine
 10
-8261.7
 20
12999.9
 30
0.0
 11
-8281.9
 21
12999.9
 31
0.0
  0
TEXT
  5
16B
330
17
100
AcDbEntity
  8
COTA
100
AcDbText
 10
-8276.9
 20
12992.9
 30
0.0
 40
4.0
  1
14
100
AcDbText
  0
LINE
  5
16C
330
17
100
AcDbEntity
  8
COTA
100
AcDbLine
 10
-8301.3
 20
12955.9
 30
0.0
 11
-8301.3
 21
12999.9
 31
0.0
  0
LINE
  5
16D
330
17
100
AcDbEntity
  8
COTA
100
AcDbLine
 10
-8261.7
 20
12999.9
 30
0.0
 11
-8306.3
 21
12999.9
 31
0.0
  0
LINE
  5
16E
330
17
100
AcDbEntity
  8
COTA
100
AcDbLine
 10
-8261.7
 20
12955.9
 30
0.0
 11
-8306.3
 21
12955.9
 31
0.0
  0
TEXT
  5
16F
330
17
100
AcDbEntity
  8
COTA
100
AcDbText
 10
-8309.4
 20
12977.9
 30
0.0
 40
4.0
  1
44
100
AcDbText
  0
LINE
  5
170
330
17
100
AcDbEntity
  8
COTA
100
AcDbLine
 10
-7683.4
 20
12935.9
 30
0.0
 11
-7683.4
 21
12999.9
 31
0.0
  0
LINE
  5
171
330
17
100
AcDbEntity
  8
COTA
100
AcDbLine
 10
-7711.7
 20
12999.9
 30
0.0
 11
-7678.4
 21
12999.9
 31
0.0
  0
LINE
  5
172
330
17
100
AcDbEntity
  8
COTA
100
AcDbLine
 10
-7711.7
 20
12935.9
 30
0.0
 11
-7678.4
 21
12935.9
 31
0.0
  0
TEXT
  5
173
330
17
100
AcDbEntity
  8
COTA
100
AcDbText
 10
-7691.5
 20
12967.9
 30
0.0
 40
4.0
  1
64
100
AcDbText
  0
LINE
  5
174
330
17
100
AcDbEntity
  8
COTA
100
AcDbLine
 10
-8576.7
 20
13105.5
 30
0.0
 11
-8576.7
 21
13155.5
 31
0.0
  0
LINE
  5
175
330
17
100
AcDbEntity
  8
COTA
100
AcDbLine
 10
-8569.5
 20
13155.5
 30
0.0
 11
-8581.7
 21
13155.5
 31
0.0
  0
LINE
  5
176
330
17
100
AcDbEntity
  8
COTA
100
AcDbLine
 10
-8569.5
 20
13105.5
 30
0.0
 11
-8581.7
 21
13105.5
 31
0.0
  0
TEXT
  5
177
330
17
100
AcDbEntity
  8
COTA
100
AcDbText
 10
-8582.2
 20
13130.5
 30
0.0
 40
4.0
  1
25
100
AcDbText
  0
LINE
  5
178
330
17
100
AcDbEntity
  8
Cota Seção (2x)
100
AcDbLine
 10
-8516.5
 20
13126.2
 30
0.0
 11
-8478.5
 21
13126.2
 31
0.0
  0
LINE
  5
179
330
17
100
AcDbEntity
  8
Cota Seção (2x)
100
AcDbLine
 10
-8478.5
 20
13113.5
 30
0.0
 11
-8478.5
 21
13131.2
 31
0.0
  0
LINE
  5
17A
330
17
100
AcDbEntity
  8
Cota Seção (2x)
100
AcDbLine
 10
-8516.5
 20
13113.5
 30
0.0
 11
-8516.5
 21
13131.2
 31
0.0
  0
TEXT
  5
17B
330
17
100
AcDbEntity
  8
Cota Seção (2x)
100
AcDbText
 10
-8497.5
 20
13137.7
 30
0.0
 40
4.0
  1
19
100
AcDbText
  0
LINE
  5
17C
330
17
100
AcDbEntity
  8
COTA
100
AcDbLine
 10
-8115.7
 20
12914.5
 30
0.0
 11
-8108.7
 21
12914.5
 31
0.0
  0
LINE
  5
17D
330
17
100
AcDbEntity
  8
COTA
100
AcDbLine
 10
-8115.7
 20
12935.9
 30
0.0
 11
-8115.7
 21
12909.5
 31
0.0
  0
LINE
  5
17E
330
17
100
AcDbEntity
  8
COTA
100
AcDbLine
 10
-8108.7
 20
12935.9
 30
0.0
 11
-8108.7
 21
12909.5
 31
0.0
  0
TEXT
  5
17F
330
17
100
AcDbEntity
  8
COTA
100
AcDbText
 10
-8100.1
 20
12922.1
 30
0.0
 40
4.0
  1
7
100
AcDbText
  0
LINE
  5
180
330
17
100
AcDbEntity
  8
COTA
100
AcDbLine
 10
-7934.4
 20
12921.9
 30
0.0
 11
-7934.4
 21
12935.9
 31
0.0
  0
LINE
  5
181
330
17
100
AcDbEntity
  8
COTA
100
AcDbLine
 10
-7924.2
 20
12921.9
 30
0.0
 11
-7939.4
 21
12921.9
 31
0.0
  0
LINE
  5
182
330
17
100
AcDbEntity
  8
COTA
100
AcDbLine
 10
-7924.2
 20
12935.9
 30
0.0
 11
-7939.4
 21
12935.9
 31
0.0
  0
TEXT
  5
183
330
17
100
AcDbEntity
  8
COTA
100
AcDbText
 10
-7934.4
 20
12928.9
 30
0.0
 40
4.0
  1
14
100
AcDbText
  0
LINE
  5
184
330
17
100
AcDbEntity
  8
COTA
100
AcDbLine
 10
-9476.8
 20
12078.4
 30
0.0
 11
-9476.8
 21
12110.4
 31
0.0
  0
LINE
  5
185
330
17
100
AcDbEntity
  8
COTA
100
AcDbLine
 10
-9433.5
 20
12110.4
 30
0.0
 11
-9481.8
 21
12110.4
 31
0.0
  0
LINE
  5
186
330
17
100
AcDbEntity
  8
COTA
100
AcDbLine
 10
-9433.5
 20
12078.4
 30
0.0
 11
-9481.8
 21
12078.4
 31
0.0
  0
TEXT
  5
187
330
17
100
AcDbEntity
  8
COTA
100
AcDbText
 10
-9482.3
 20
12094.4
 30
0.0
 40
4.0
  1
16
100
AcDbText
  0
LINE
  5
188
330
17
100
AcDbEntity
  8
Cota Seção (2x)
100
AcDbLine
 10
-9335.5
 20
11990.4
 30
0.0
 11
-9335.5
 21
12110.4
 31
0.0
  0
LINE
  5
189
330
17
100
AcDbEntity
  8
Cota Seção (2x)
100
AcDbLine
 10
-9373.5
 20
11990.4
 30
0.0
 11
-9330.5
 21
11990.4
 31
0.0
  0
LINE
  5
18A
330
17
100
AcDbEntity
  8
Cota Seção (2x)
100
AcDbLine
 10
-9373.5
 20
12110.4
 30
0.0
 11
-9330.5
 21
12110.4
 31
0.0
  0
TEXT
  5
18B
330
17
100
AcDbEntity
  8
Cota Seção (2x)
100
AcDbText
 10
-9335.5
 20
12042.9
 30
0.0
 40
4.0
  1
60
100
AcDbText
  0
LINE
  5
18C
330
17
100
AcDbEntity
  8
COTA
100
AcDbLine
 10
-9241.0
 20
12078.4
 30
0.0
 11
-9241.0
 21
12110.4
 31
0.0
  0
LINE
  5
18D
330
17
100
AcDbEntity
  8
COTA
100
AcDbLine
 10
-9275.5
 20
12110.4
 30
0.0
 11
-9236.0
 21
12110.4
 31
0.0
  0
LINE
  5
18E
330
17
100
AcDbEntity
  8
COTA
100
AcDbLine
 10
-9275.5
 20
12078.4
 30
0.0
 11
-9236.0
 21
12078.4
 31
0.0
  0
TEXT
  5
18F
330
17
100
AcDbEntity
  8
COTA
100
AcDbText
 10
-9246.5
 20
12094.4
 30
0.0
 40
4.0
  1
16
100
AcDbText
  0
LINE
  5
190
330
17
100
AcDbEntity
  8
COTA
100
AcDbLine
 10
-8254.5
 20
12083.7
 30
0.0
 11
-8254.5
 21
12103.7
 31
0.0
  0
LINE
  5
191
330
17
100
AcDbEntity
  8
COTA
100
AcDbLine
 10
-8221.3
 20
12103.7
 30
0.0
 11
-8259.5
 21
12103.7
 31
0.0
  0
LINE
  5
192
330
17
100
AcDbEntity
  8
COTA
100
AcDbLine
 10
-8221.3
 20
12083.7
 30
0.0
 11
-8259.5
 21
12083.7
 31
0.0
  0
TEXT
  5
193
330
17
100
AcDbEntity
  8
COTA
100
AcDbText
 10
-8260.0
 20
12093.7
 30
0.0
 40
4.0
  1
10
100
AcDbText
  0
LINE
  5
194
330
17
100
AcDbEntity
  8
Cota Seção (2x)
100
AcDbLine
 10
-8127.7
 20
11993.7
 30
0.0
 11
-8127.7
 21
12113.7
 31
0.0
  0
LINE
  5
195
330
17
100
AcDbEntity
  8
Cota Seção (2x)
100
AcDbLine
 10
-8127.7
 20
11993.7
 30
0.0
 11
-8122.7
 21
11993.7
 31
0.0
  0
LINE
  5
196
330
17
100
AcDbEntity
  8
Cota Seção (2x)
100
AcDbLine
 10
-8127.7
 20
12113.7
 30
0.0
 11
-8122.7
 21
12113.7
 31
0.0
  0
TEXT
  5
197
330
17
100
AcDbEntity
  8
Cota Seção (2x)
100
AcDbText
 10
-8127.7
 20
12064.0
 30
0.0
 40
4.0
  1
60
100
AcDbText
  0
LINE
  5
198
330
17
100
AcDbEntity
  8
COTA
100
AcDbLine
 10
-8016.4
 20
12081.7
 30
0.0
 11
-8016.4
 21
12113.7
 31
0.0
  0
LINE
  5
199
330
17
100
AcDbEntity
  8
COTA
100
AcDbLine
 10
-8072.1
 20
12113.7
 30
0.0
 11
-8011.4
 21
12113.7
 31
0.0
  0
LINE
  5
19A
330
17
100
AcDbEntity
  8
COTA
100
AcDbLine
 10
-8072.1
 20
12081.7
 30
0.0
 11
-8011.4
 21
12081.7
 31
0.0
  0
TEXT
  5
19B
330
17
100
AcDbEntity
  8
COTA
100
AcDbText
 10
-8021.9
 20
12097.7
 30
0.0
 40
4.0
  1
16
100
AcDbText
  0
LINE
  5
19C
330
17
100
AcDbEntity
  8
COTA
100
AcDbLine
 10
-8221.3
 20
12113.7
 30
0.0
 11
-8169.7
 21
12113.7
 31
0.0
  0
LINE
  5
19D
330
17
100
AcDbEntity
  8
COTA
100
AcDbLine
 10
-8221.3
 20
12103.7
 30
0.0
 11
-8221.3
 21
12118.7
 31
0.0
  0
LINE
  5
19E
330
17
100
AcDbEntity
  8
COTA
100
AcDbLine
 10
-8169.7
 20
12113.7
 30
0.0
 11
-8169.7
 21
12118.7
 31
0.0
  0
TEXT
  5
19F
330
17
100
AcDbEntity
  8
COTA
100
AcDbText
 10
-8260.0
 20
12108.7
 30
0.0
 40
4.0
  1
5
100
AcDbText
  0
LINE
  5
1A0
330
17
100
AcDbEntity
  8
COTA
100
AcDbLine
 10
-7863.2
 20
13153.5
 30
0.0
 11
-7856.2
 21
13153.5
 31
0.0
  0
LINE
  5
1A1
330
17
100
AcDbEntity
  8
COTA
100
AcDbLine
 10
-7856.2
 20
13169.5
 30
0.0
 11
-7856.2
 21
13148.5
 31
0.0
  0
LINE
  5
1A2
330
17
100
AcDbEntity
  8
COTA
100
AcDbLine
 10
-7863.2
 20
13169.5
 30
0.0
 11
-7863.2
 21
13148.5
 31
0.0
  0
TEXT
  5
1A3
330
17
100
AcDbEntity
  8
COTA
100
AcDbText
 10
-7871.8
 20
13161.1
 30
0.0
 40
4.0
  1
7
100
AcDbText
  0
LINE
  5
1A4
330
17
100
AcDbEntity
  8
COTA
100
AcDbLine
 10
-8084.2
 20
13241.5
 30
0.0
 11
-8062.2
 21
13241.5
 31
0.0
  0
LINE
  5
1A5
330
17
100
AcDbEntity
  8
COTA
100
AcDbLine
 10
-8084.2
 20
13233.5
 30
0.0
 11
-8084.2
 21
13246.5
 31
0.0
  0
LINE
  5
1A6
330
17
100
AcDbEntity
  8
COTA
100
AcDbLine
 10
-8062.2
 20
13233.5
 30
0.0
 11
-8062.2
 21
13246.5
 31
0.0
  0
TEXT
  5
1A7
330
17
100
AcDbEntity
  8
COTA
100
AcDbText
 10
-8073.2
 20
13249.0
 30
0.0
 40
4.0
  1
22
100
AcDbText
  0
LINE
  5
1A8
330
17
100
AcDbEntity
  8
COTA
100
AcDbLine
 10
-8107.8
 20
13184.5
 30
0.0
 11
-8107.8
 21
13233.5
 31
0.0
  0
LINE
  5
1A9
330
17
100
AcDbEntity
  8
COTA
100
AcDbLine
 10
-8084.2
 20
13184.5
 30
0.0
 11
-8112.8
 21
13184.5
 31
0.0
  0
LINE
  5
1AA
330
17
100
AcDbEntity
  8
COTA
100
AcDbLine
 10
-8084.2
 20
13233.5
 30
0.0
 11
-8112.8
 21
13233.5
 31
0.0
  0
TEXT
  5
1AB
330
17
100
AcDbEntity
  8
COTA
100
AcDbText
 10
-8115.4
 20
13209.0
 30
0.0
 40
4.0
  1
49
100
AcDbText
  0
LINE
  5
1AC
330
17
100
AcDbEntity
  8
COTA
100
AcDbLine
 10
-7934.4
 20
12935.9
 30
0.0
 11
-7934.4
 21
12985.9
 31
0.0
  0
LINE
  5
1AD
330
17
100
AcDbEntity
  8
COTA
100
AcDbLine
 10
-7905.7
 20
12935.9
 30
0.0
 11
-7939.4
 21
12935.9
 31
0.0
  0
LINE
  5
1AE
330
17
100
AcDbEntity
  8
COTA
100
AcDbLine
 10
-7905.7
 20
12985.9
 30
0.0
 11
-7939.4
 21
12985.9
 31
0.0
  0
TEXT
  5
1AF
330
17
100
AcDbEntity
  8
COTA
100
AcDbText
 10
-7942.0
 20
12960.9
 30
0.0
 40
4.0
  1
50
100
AcDbText
  0
LINE
  5
1B0
330
17
100
AcDbEntity
  8
COTA
100
AcDbLine
 10
-7890.2
 20
13241.5
 30
0.0
 11
-7856.2
 21
13241.5
 31
0.0
  0
LINE
  5
1B1
330
17
100
AcDbEntity
  8
COTA
100
AcDbLine
 10
-7856.2
 20
13219.5
 30
0.0
 11
-7856.2
 21
13246.5
 31
0.0
  0
LINE
  5
1B2
330
17
100
AcDbEntity
  8
COTA
100
AcDbLine
 10
-7890.2
 20
13233.5
 30
0.0
 11
-7890.2
 21
13246.5
 31
0.0
  0
TEXT
  5
1B3
330
17
100
AcDbEntity
  8
COTA
100
AcDbText
 10
-7873.2
 20
13249.2
 30
0.0
 40
4.0
  1
34
100
AcDbText
  0
LINE
  5
1B4
330
17
100
AcDbEntity
  8
COTA
100
AcDbLine
 10
-7900.3
 20
13184.5
 30
0.0
 11
-7900.3
 21
13233.5
 31
0.0
  0
LINE
  5
1B5
330
17
100
AcDbEntity
  8
COTA
100
AcDbLine
 10
-7890.2
 20
13184.5
 30
0.0
 11
-7905.3
 21
13184.5
 31
0.0
  0
LINE
  5
1B6
330
17
100
AcDbEntity
  8
COTA
100
AcDbLine
 10
-7890.2
 20
13233.5
 30
0.0
 11
-7905.3
 21
13233.5
 31
0.0
  0
TEXT
  5
1B7
330
17
100
AcDbEntity
  8
COTA
100
AcDbText
 10
-7907.9
 20
13209.0
 30
0.0
 40
4.0
  1
49
100
AcDbText
  0
LINE
  5
1B8
330
17
100
AcDbEntity
  8
COTA
100
AcDbLine
 10
-10031.7
 20
13107.3
 30
0.0
 11
-9787.7
 21
13107.3
 31
0.0
  0
LINE
  5
1B9
330
17
100
AcDbEntity
  8
COTA
100
AcDbLine
 10
-9787.7
 20
13177.1
 30
0.0
 11
-9787.7
 21
13102.3
 31
0.0
  0
LINE
  5
1BA
330
17
100
AcDbEntity
  8
COTA
100
AcDbLine
 10
-10031.7
 20
13177.1
 30
0.0
 11
-10031.7
 21
13102.3
 31
0.0
  0
TEXT
  5
1BB
330
17
100
AcDbEntity
  8
COTA
100
AcDbText
 10
-9909.7
 20
13114.9
 30
0.0
 40
4.0
  1
244
100
AcDbText
  0
LINE
  5
1BC
330
17
100
AcDbEntity
  8
COTA
100
AcDbLine
 10
-9787.7
 20
13107.3
 30
0.0
 11
-9543.7
 21
13107.3
 31
0.0
  0
LINE
  5
1BD
330
17
100
AcDbEntity
  8
COTA
100
AcDbLine
 10
-9787.7
 20
13177.1
 30
0.0
 11
-9787.7
 21
13102.3
 31
0.0
  0
LINE
  5
1BE
330
17
100
AcDbEntity
  8
COTA
100
AcDbLine
 10
-9543.7
 20
13177.1
 30
0.0
 11
-9543.7
 21
13102.3
 31
0.0
  0
TEXT
  5
1BF
330
17
100
AcDbEntity
  8
COTA
100
AcDbText
 10
-9665.7
 20
13107.3
 30
0.0
 40
4.0
  1
244
100
AcDbText
  0
LINE
  5
1C0
330
17
100
AcDbEntity
  8
COTA
100
AcDbLine
 10
-10224.2
 20
13083.4
 30
0.0
 11
-9543.7
 21
13083.4
 31
0.0
  0
LINE
  5
1C1
330
17
100
AcDbEntity
  8
COTA
100
AcDbLine
 10
-9543.7
 20
13177.1
 30
0.0
 11
-9543.7
 21
13078.4
 31
0.0
  0
LINE
  5
1C2
330
17
100
AcDbEntity
  8
COTA
100
AcDbLine
 10
-10224.2
 20
13177.1
 30
0.0
 11
-10224.2
 21
13078.4
 31
0.0
  0
TEXT
  5
1C3
330
17
100
AcDbEntity
  8
COTA
100
AcDbText
 10
-9883.9
 20
13091.0
 30
0.0
 40
4.0
  1
680
100
AcDbText
  0
LINE
  5
1C4
330
17
100
AcDbEntity
  8
COTA
100
AcDbLine
 10
-10049.2
 20
13218.9
 30
0.0
 11
-10031.7
 21
13218.9
 31
0.0
  0
LINE
  5
1C5
330
17
100
AcDbEntity
  8
COTA
100
AcDbLine
 10
-10049.2
 20
13245.1
 30
0.0
 11
-10049.2
 21
13213.9
 31
0.0
  0
LINE
  5
1C6
330
17
100
AcDbEntity
  8
COTA
100
AcDbLine
 10
-10031.7
 20
13245.1
 30
0.0
 11
-10031.7
 21
13213.9
 31
0.0
  0
TEXT
  5
1C7
330
17
100
AcDbEntity
  8
COTA
100
AcDbText
 10
-10040.4
 20
13218.9
 30
0.0
 40
4.0
  1
18
100
AcDbText
  0
LINE
  5
1C8
330
17
100
AcDbEntity
  8
COTA
100
AcDbLine
 10
-10224.2
 20
13252.1
 30
0.0
 11
-10068.2
 21
13252.1
 31
0.0
  0
LINE
  5
1C9
330
17
100
AcDbEntity
  8
COTA
100
AcDbLine
 10
-10068.2
 20
13177.1
 30
0.0
 11
-10068.2
 21
13257.1
 31
0.0
  0
LINE
  5
1CA
330
17
100
AcDbEntity
  8
COTA
100
AcDbLine
 10
-10224.2
 20
13252.1
 30
0.0
 11
-10224.2
 21
13257.1
 31
0.0
  0
TEXT
  5
1CB
330
17
100
AcDbEntity
  8
COTA
100
AcDbText
 10
-10276.0
 20
13214.6
 30
0.0
 40
4.0
  1
75
100
AcDbText
  0
LINE
  5
1CC
330
17
100
AcDbEntity
  8
COTA
100
AcDbLine
 10
-9762.9
 20
13177.1
 30
0.0
 11
-9762.9
 21
13241.1
 31
0.0
  0
LINE
  5
1CD
330
17
100
AcDbEntity
  8
COTA
100
AcDbLine
 10
-9787.7
 20
13177.1
 30
0.0
 11
-9757.9
 21
13177.1
 31
0.0
  0
LINE
  5
1CE
330
17
100
AcDbEntity
  8
COTA
100
AcDbLine
 10
-9787.7
 20
13241.1
 30
0.0
 11
-9757.9
 21
13241.1
 31
0.0
  0
TEXT
  5
1CF
330
17
100
AcDbEntity
  8
COTA
100
AcDbText
 10
-9770.5
 20
13209.1
 30
0.0
 40
4.0
  1
64
100
AcDbText
  0
LINE
  5
1D0
330
17
100
AcDbEntity
  8
COTA
100
AcDbLine
 10
-9923.2
 20
13153.0
 30
0.0
 11
-9787.7
 21
13153.0
 31
0.0
  0
LINE
  5
1D1
330
17
100
AcDbEntity
  8
COTA
100
AcDbLine
 10
-9787.7
 20
13177.1
 30
0.0
 11
-9787.7
 21
13148.0
 31
0.0
  0
LINE
  5
1D2
330
17
100
AcDbEntity
  8
COTA
100
AcDbLine
 10
-9923.2
 20
13177.1
 30
0.0
 11
-9923.2
 21
13148.0
 31
0.0
  0
TEXT
  5
1D3
330
17
100
AcDbEntity
  8
COTA
100
AcDbText
 10
-9855.4
 20
13160.7
 30
0.0
 40
4.0
  1
136
100
AcDbText
  0
LINE
  5
1D4
330
17
100
AcDbEntity
  8
COTA
100
AcDbLine
 10
-10224.2
 20
13107.3
 30
0.0
 11
-10031.7
 21
13107.3
 31
0.0
  0
LINE
  5
1D5
330
17
100
AcDbEntity
  8
COTA
100
AcDbLine
 10
-10031.7
 20
13177.1
 30
0.0
 11
-10031.7
 21
13102.3
 31
0.0
  0
LINE
  5
1D6
330
17
100
AcDbEntity
  8
COTA
100
AcDbLine
 10
-10224.2
 20
13177.1
 30
0.0
 11
-10224.2
 21
13102.3
 31
0.0
  0
TEXT
  5
1D7
330
17
100
AcDbEntity
  8
COTA
100
AcDbText
 10
-10127.9
 20
13114.9
 30
0.0
 40
4.0
  1
192
100
AcDbText
  0
LINE
  5
1D8
330
17
100
AcDbEntity
  8
COTA
100
AcDbLine
 10
-10243.6
 20
13193.1
 30
0.0
 11
-10243.6
 21
13252.1
 31
0.0
  0
LINE
  5
1D9
330
17
100
AcDbEntity
  8
COTA
100
AcDbLine
 10
-10224.2
 20
13193.1
 30
0.0
 11
-10248.6
 21
13193.1
 31
0.0
  0
LINE
  5
1DA
330
17
100
AcDbEntity
  8
COTA
100
AcDbLine
 10
-10224.2
 20
13252.1
 30
0.0
 11
-10248.6
 21
13252.1
 31
0.0
  0
TEXT
  5
1DB
330
17
100
AcDbEntity
  8
COTA
100
AcDbText
 10
-10251.2
 20
13222.6
 30
0.0
 40
4.0
  1
59
100
AcDbText
  0
LINE
  5
1DC
330
17
100
AcDbEntity
  8
COTA
100
AcDbLine
 10
-10064.2
 20
13153.0
 30
0.0
 11
-10031.7
 21
13153.0
 31
0.0
  0
LINE
  5
1DD
330
17
100
AcDbEntity
  8
COTA
100
AcDbLine
 10
-10031.7
 20
13177.1
 30
0.0
 11
-10031.7
 21
13148.0
 31
0.0
  0
LINE
  5
1DE
330
17
100
AcDbEntity
  8
COTA
100
AcDbLine
 10
-10064.2
 20
13177.1
 30
0.0
 11
-10064.2
 21
13148.0
 31
0.0
  0
TEXT
  5
1DF
330
17
100
AcDbEntity
  8
COTA
100
AcDbText
 10
-10047.9
 20
13160.7
 30
0.0
 40
4.0
  1
32
100
AcDbText
  0
LINE
  5
1E0
330
17
100
AcDbEntity
  8
COTA
100
AcDbLine
 10
-9905.7
 20
13241.1
 30
0.0
 11
-9905.7
 21
13252.1
 31
0.0
  0
LINE
  5
1E1
330
17
100
AcDbEntity
  8
COTA
100
AcDbLine
 10
-9923.2
 20
13252.1
 30
0.0
 11
-9900.7
 21
13252.1
 31
0.0
  0
LINE
  5
1E2
330
17
100
AcDbEntity
  8
COTA
100
AcDbLine
 10
-9923.2
 20
13241.1
 30
0.0
 11
-9900.7
 21
13241.1
 31
0.0
  0
TEXT
  5
1E3
330
17
100
AcDbEntity
  8
COTA
100
AcDbText
 10
-9913.3
 20
13246.6
 30
0.0
 40
4.0
  1
11
100
AcDbText
  0
LINE
  5
1E4
330
17
100
AcDbEntity
  8
COTA
100
AcDbLine
 10
-10031.7
 20
13215.5
 30
0.0
 11
-9923.2
 21
13215.5
 31
0.0
  0
LINE
  5
1E5
330
17
100
AcDbEntity
  8
COTA
100
AcDbLine
 10
-10031.7
 20
13252.1
 30
0.0
 11
-10031.7
 21
13210.5
 31
0.0
  0
LINE
  5
1E6
330
17
100
AcDbEntity
  8
COTA
100
AcDbLine
 10
-9923.2
 20
13252.1
 30
0.0
 11
-9923.2
 21
13210.5
 31
0.0
  0
TEXT
  5
1E7
330
17
100
AcDbEntity
  8
COTA
100
AcDbText
 10
-9977.4
 20
13215.5
 30
0.0
 40
4.0
  1
108
100
AcDbText
  0
LINE
  5
1E8
330
17
100
AcDbEntity
  8
COTA
100
AcDbLine
 10
-9503.2
 20
13177.1
 30
0.0
 11
-9503.2
 21
13241.1
 31
0.0
  0
LINE
  5
1E9
330
17
100
AcDbEntity
  8
COTA
100
AcDbLine
 10
-9543.7
 20
13177.1
 30
0.0
 11
-9498.2
 21
13177.1
 31
0.0
  0
LINE
  5
1EA
330
17
100
AcDbEntity
  8
COTA
100
AcDbLine
 10
-9543.7
 20
13241.1
 30
0.0
 11
-9498.2
 21
13241.1
 31
0.0
  0
TEXT
  5
1EB
330
17
100
AcDbEntity
  8
COTA
100
AcDbText
 10
-9510.8
 20
13209.1
 30
0.0
 40
4.0
  1
64
100
AcDbText
  0
LINE
  5
1EC
330
17
100
AcDbEntity
  8
SARR_2.2x7
100
AcDbLine
 10
-10209.2
 20
12989.2
 30
0.0
 11
-9980.2
 21
12989.2
 31
0.0
  0
LINE
  5
1ED
330
17
100
AcDbEntity
  8
SARR_2.2x7
100
AcDbLine
 10
-10217.2
 20
12947.4
 30
0.0
 11
-10217.2
 21
12991.4
 31
0.0
  0
LINE
  5
1EE
330
17
100
AcDbEntity
  8
SARR_2.2x7
100
AcDbLine
 10
-9980.2
 20
12989.2
 30
0.0
 11
-9774.7
 21
12989.2
 31
0.0
  0
LINE
  5
1EF
330
17
100
AcDbEntity
  8
SARR_2.2x7
100
AcDbLine
 10
-9766.7
 20
12947.4
 30
0.0
 11
-9766.7
 21
12991.4
 31
0.0
  0
LINE
  5
1F0
330
17
100
AcDbEntity
  8
SARR_2.2x7
100
AcDbLine
 10
-9718.7
 20
12989.2
 30
0.0
 11
-9489.7
 21
12989.2
 31
0.0
  0
LINE
  5
1F1
330
17
100
AcDbEntity
  8
SARR_2.2x7
100
AcDbLine
 10
-9726.7
 20
12947.4
 30
0.0
 11
-9726.7
 21
12991.4
 31
0.0
  0
LINE
  5
1F2
330
17
100
AcDbEntity
  8
SARR_2.2x7
100
AcDbLine
 10
-9489.7
 20
12989.2
 30
0.0
 11
-9287.7
 21
12989.2
 31
0.0
  0
LINE
  5
1F3
330
17
100
AcDbEntity
  8
SARR_2.2x7
100
AcDbLine
 10
-9279.7
 20
12947.4
 30
0.0
 11
-9279.7
 21
12991.4
 31
0.0
  0
LINE
  5
1F4
330
17
100
AcDbEntity
  8
SARR_2.2x7
100
AcDbLine
 10
-10209.2
 20
12766.9
 30
0.0
 11
-9980.2
 21
12766.9
 31
0.0
  0
LINE
  5
1F5
330
17
100
AcDbEntity
  8
SARR_2.2x7
100
AcDbLine
 10
-10217.2
 20
12725.1
 30
0.0
 11
-10217.2
 21
12769.1
 31
0.0
  0
LINE
  5
1F6
330
17
100
AcDbEntity
  8
SARR_2.2x7
100
AcDbLine
 10
-9980.2
 20
12766.9
 30
0.0
 11
-9774.7
 21
12766.9
 31
0.0
  0
LINE
  5
1F7
330
17
100
AcDbEntity
  8
SARR_2.2x7
100
AcDbLine
 10
-9766.7
 20
12725.1
 30
0.0
 11
-9766.7
 21
12769.1
 31
0.0
  0
LINE
  5
1F8
330
17
100
AcDbEntity
  8
SARR_EDITAR
100
AcDbLine
 10
-10224.2
 20
13005.9
 30
0.0
 11
-9980.2
 21
13005.9
 31
0.0
  0
LINE
  5
1F9
330
17
100
AcDbEntity
  8
SARR_EDITAR
100
AcDbLine
 10
-9980.2
 20
13005.9
 30
0.0
 11
-9759.7
 21
13005.9
 31
0.0
  0
LINE
  5
1FA
330
17
100
AcDbEntity
  8
SARR_EDITAR
100
AcDbLine
 10
-9733.7
 20
13005.9
 30
0.0
 11
-9489.7
 21
13005.9
 31
0.0
  0
LINE
  5
1FB
330
17
100
AcDbEntity
  8
SARR_EDITAR
100
AcDbLine
 10
-9489.7
 20
13005.9
 30
0.0
 11
-9272.7
 21
13005.9
 31
0.0
  0
LINE
  5
1FC
330
17
100
AcDbEntity
  8
SARR_EDITAR
100
AcDbLine
 10
-10224.2
 20
12783.6
 30
0.0
 11
-9980.2
 21
12783.6
 31
0.0
  0
LINE
  5
1FD
330
17
100
AcDbEntity
  8
SARR_EDITAR
100
AcDbLine
 10
-9980.2
 20
12783.6
 30
0.0
 11
-9759.7
 21
12783.6
 31
0.0
  0
LINE
  5
1FE
330
17
100
AcDbEntity
  8
SARR_2.2x7
100
AcDbLine
 10
-8245.2
 20
13231.3
 30
0.0
 11
-8172.2
 21
13231.3
 31
0.0
  0
LINE
  5
1FF
330
17
100
AcDbEntity
  8
SARR_2.2x7
100
AcDbLine
 10
-8253.2
 20
13169.5
 30
0.0
 11
-8253.2
 21
13233.5
 31
0.0
  0
LINE
  5
200
330
17
100
AcDbEntity
  8
SARR_2.2x7
100
AcDbLine
 10
-8172.2
 20
13231.3
 30
0.0
 11
-8084.2
 21
13231.3
 31
0.0
  0
LINE
  5
201
330
17
100
AcDbEntity
  8
SARR_2.2x7
100
AcDbLine
 10
-7841.2
 20
13217.3
 30
0.0
 11
-7777.7
 21
13217.3
 31
0.0
  0
LINE
  5
202
330
17
100
AcDbEntity
  8
SARR_2.2x7
100
AcDbLine
 10
-7849.2
 20
13189.5
 30
0.0
 11
-7849.2
 21
13219.5
 31
0.0
  0
LINE
  5
203
330
17
100
AcDbEntity
  8
SARR_2.2x7
100
AcDbLine
 10
-7777.7
 20
13217.3
 30
0.0
 11
-7714.2
 21
13217.3
 31
0.0
  0
LINE
  5
204
330
17
100
AcDbEntity
  8
SARR_2.2x7
100
AcDbLine
 10
-7890.2
 20
13174.5
 30
0.0
 11
-7856.2
 21
13174.5
 31
0.0
  0
LINE
  5
205
330
17
100
AcDbEntity
  8
SARR_2.2x7
100
AcDbLine
 10
-8047.2
 20
13231.3
 30
0.0
 11
-7976.2
 21
13231.3
 31
0.0
  0
LINE
  5
206
330
17
100
AcDbEntity
  8
SARR_2.2x7
100
AcDbLine
 10
-8055.2
 20
13169.5
 30
0.0
 11
-8055.2
 21
13233.5
 31
0.0
  0
LINE
  5
207
330
17
100
AcDbEntity
  8
SARR_2.2x7
100
AcDbLine
 10
-7976.2
 20
13231.3
 30
0.0
 11
-7890.2
 21
13231.3
 31
0.0
  0
LINE
  5
208
330
17
100
AcDbEntity
  8
SARR_2.2x7
100
AcDbLine
 10
-8084.2
 20
13177.5
 30
0.0
 11
-8062.2
 21
13177.5
 31
0.0
  0
LINE
  5
209
330
17
100
AcDbEntity
  8
SARR_2.2x7
100
AcDbLine
 10
-7801.7
 20
12997.7
 30
0.0
 11
-7726.7
 21
12997.7
 31
0.0
  0
LINE
  5
20A
330
17
100
AcDbEntity
  8
SARR_2.2x7
100
AcDbLine
 10
-7718.7
 20
12935.9
 30
0.0
 11
-7718.7
 21
12999.9
 31
0.0
  0
LINE
  5
20B
330
17
100
AcDbEntity
  8
SARR_2.2x7
100
AcDbLine
 10
-7876.7
 20
12997.7
 30
0.0
 11
-7801.7
 21
12997.7
 31
0.0
  0
LINE
  5
20C
330
17
100
AcDbEntity
  8
SARR_2.2x7
100
AcDbLine
 10
-7884.7
 20
12935.9
 30
0.0
 11
-7884.7
 21
12999.9
 31
0.0
  0
LINE
  5
20D
330
17
100
AcDbEntity
  8
SARR_2.2x7
100
AcDbLine
 10
-8115.7
 20
12983.7
 30
0.0
 11
-7920.7
 21
12983.7
 31
0.0
  0
LINE
  5
20E
330
17
100
AcDbEntity
  8
SARR_2.2x7
100
AcDbLine
 10
-7912.7
 20
12935.9
 30
0.0
 11
-7912.7
 21
12985.9
 31
0.0
  0
LINE
  5
20F
330
17
100
AcDbEntity
  8
SARR_2.2x7
100
AcDbLine
 10
-8246.7
 20
12983.7
 30
0.0
 11
-8115.7
 21
12983.7
 31
0.0
  0
LINE
  5
210
330
17
100
AcDbEntity
  8
SARR_2.2x7
100
AcDbLine
 10
-8254.7
 20
12955.9
 30
0.0
 11
-8254.7
 21
12985.9
 31
0.0
  0
LINE
  5
211
330
17
100
AcDbEntity
  8
SARR_2.2x7
100
AcDbLine
 10
-8108.7
 20
12935.9
 30
0.0
 11
-8108.7
 21
12985.9
 31
0.0
  0
LINE
  5
212
330
17
100
AcDbEntity
  8
SARR_2.2x7
100
AcDbLine
 10
-7863.2
 20
13169.5
 30
0.0
 11
-7863.2
 21
13184.5
 31
0.0
  0
LINE
  5
213
330
17
100
AcDbEntity
  8
SARR_2.2x7
100
AcDbLine
 10
-10064.2
 20
13193.1
 30
0.0
 11
-10057.2
 21
13193.1
 31
0.0
  0
LINE
  5
214
330
17
100
AcDbEntity
  8
SARR_2.2x7
100
AcDbLine
 10
-10057.2
 20
13177.1
 30
0.0
 11
-10057.2
 21
13193.1
 31
0.0
  0
LINE
  5
215
330
17
100
AcDbEntity
  8
SARR_2.2x7
100
AcDbLine
 10
-9930.2
 20
13241.1
 30
0.0
 11
-9930.2
 21
13252.1
 31
0.0
  0
LINE
  5
216
330
17
100
AcDbEntity
  8
SARR_2.2x7
100
AcDbLine
 10
-9930.2
 20
13241.1
 30
0.0
 11
-9923.2
 21
13241.1
 31
0.0
  0
LINE
  5
217
330
17
100
AcDbEntity
  8
SARR_2.2x7
100
AcDbLine
 10
-10031.7
 20
13245.1
 30
0.0
 11
-9923.2
 21
13245.1
 31
0.0
  0
LINE
  5
218
330
17
100
AcDbEntity
  8
SARR_2.2x7
100
AcDbLine
 10
-9550.7
 20
13177.1
 30
0.0
 11
-9550.7
 21
13241.1
 31
0.0
  0
LINE
  5
219
330
17
100
AcDbEntity
  8
SARR_2.2x7
100
AcDbLine
 10
-9923.2
 20
13234.1
 30
0.0
 11
-9923.2
 21
13241.1
 31
0.0
  0
LINE
  5
21A
330
17
100
AcDbEntity
  8
SARR_2.2x7
100
AcDbLine
 10
-9923.2
 20
13205.1
 30
0.0
 11
-9923.2
 21
13212.1
 31
0.0
  0
LINE
  5
21B
330
17
100
AcDbEntity
  8
SARR_2.2x7
100
AcDbLine
 10
-9923.2
 20
13177.1
 30
0.0
 11
-9923.2
 21
13184.1
 31
0.0
  0
LINE
  5
21C
330
17
100
AcDbEntity
  8
SARR_2.2x7
100
AcDbLine
 10
-9923.2
 20
13184.1
 30
0.0
 11
-9787.7
 21
13184.1
 31
0.0
  0
LINE
  5
21D
330
17
100
AcDbEntity
  8
SARR_2.2x7
100
AcDbLine
 10
-9923.2
 20
13205.1
 30
0.0
 11
-9787.7
 21
13205.1
 31
0.0
  0
LINE
  5
21E
330
17
100
AcDbEntity
  8
SARR_2.2x7
100
AcDbLine
 10
-9923.2
 20
13212.1
 30
0.0
 11
-9787.7
 21
13212.1
 31
0.0
  0
LINE
  5
21F
330
17
100
AcDbEntity
  8
SARR_2.2x7
100
AcDbLine
 10
-9923.2
 20
13234.1
 30
0.0
 11
-9787.7
 21
13234.1
 31
0.0
  0
LINE
  5
220
330
17
100
AcDbEntity
  8
SARR_2.2x7
100
AcDbLine
 10
-10049.2
 20
13245.1
 30
0.0
 11
-10031.7
 21
13245.1
 31
0.0
  0
LINE
  5
221
330
17
100
AcDbEntity
  8
SARR_2.2x7
100
AcDbLine
 10
-10217.2
 20
13193.1
 30
0.0
 11
-10217.2
 21
13252.1
 31
0.0
  0
LINE
  5
222
330
17
100
AcDbEntity
  8
SARR_2.2x7
100
AcDbLine
 10
-10209.2
 20
13249.9
 30
0.0
 11
-10049.2
 21
13249.9
 31
0.0
  0
ENDSEC
  0
SECTION
  2
OBJECTS
  0
DICTIONARY
  5
A
330
0
100
AcDbDictionary
281
1
  3
ACAD_COLOR
350
B
  3
ACAD_GROUP
350
C
  3
ACAD_LAYOUT
350
D
  3
ACAD_MATERIAL
350
E
  3
ACAD_MLEADERSTYLE
350
F
  3
ACAD_MLINESTYLE
350
10
  3
ACAD_PLOTSETTINGS
350
11
  3
ACAD_PLOTSTYLENAME
350
12
  3
ACAD_SCALELIST
350
14
  3
ACAD_TABLESTYLE
350
15
  3
ACAD_VISUALSTYLE
350
16
  3
EZDXF_META
350
2D
  0
DICTIONARY
  5
B
330
A
100
AcDbDictionary
281
1
  0
DICTIONARY
  5
C
330
A
100
AcDbDictionary
281
1
  0
DICTIONARY
  5
D
330
A
100
AcDbDictionary
281
1
  3
Model
350
1A
  3
Layout1
350
1E
  0
DICTIONARY
  5
E
330
A
100
AcDbDictionary
281
1
  3
ByBlock
350
1F
  3
ByLayer
350
20
  3
Global
350
21
  0
DICTIONARY
  5
F
330
A
100
AcDbDictionary
281
1
  3
Standard
350
2C
  0
DICTIONARY
  5
10
330
A
100
AcDbDictionary
281
1
  3
Standard
350
22
  0
DICTIONARY
  5
11
330
A
100
AcDbDictionary
281
1
  0
ACDBDICTIONARYWDFLT
  5
12
330
A
100
AcDbDictionary
281
1
  3
Normal
350
13
100
AcDbDictionaryWithDefault
340
13
  0
ACDBPLACEHOLDER
  5
13
330
12
  0
DICTIONARY
  5
14
330
A
100
AcDbDictionary
281
1
  0
DICTIONARY
  5
15
330
A
100
AcDbDictionary
281
1
  0
DICTIONARY
  5
16
330
A
100
AcDbDictionary
281
1
  0
LAYOUT
  5
1A
330
D
100
AcDbPlotSettings
  1

  4
A3
  6

 40
7.5
 41
20.0
 42
7.5
 43
20.0
 44
420.0
 45
297.0
 46
0.0
 47
0.0
 48
0.0
 49
0.0
140
0.0
141
0.0
142
1.0
143
1.0
 70
1024
 72
1
 73
0
 74
5
  7

 75
16
 76
0
 77
2
 78
300
147
1.0
148
0.0
149
0.0
100
AcDbLayout
  1
Model
 70
1
 71
0
 10
0.0
 20
0.0
 11
420.0
 21
297.0
 12
0.0
 22
0.0
 32
0.0
 14
1e+20
 24
1e+20
 34
1e+20
 15
-1e+20
 25
-1e+20
 35
-1e+20
146
0.0
 13
0.0
 23
0.0
 33
0.0
 16
1.0
 26
0.0
 36
0.0
 17
0.0
 27
1.0
 37
0.0
 76
1
330
17
  0
LAYOUT
  5
1E
330
D
100
AcDbPlotSettings
  1

  4
A3
  6

 40
7.5
 41
20.0
 42
7.5
 43
20.0
 44
420.0
 45
297.0
 46
0.0
 47
0.0
 48
0.0
 49
0.0
140
0.0
141
0.0
142
1.0
143
1.0
 70
0
 72
1
 73
0
 74
5
  7

 75
16
 76
0
 77
2
 78
300
147
1.0
148
0.0
149
0.0
100
AcDbLayout
  1
Layout1
 70
1
 71
1
 10
0.0
 20
0.0
 11
420.0
 21
297.0
 12
0.0
 22
0.0
 32
0.0
 14
1e+20
 24
1e+20
 34
1e+20
 15
-1e+20
 25
-1e+20
 35
-1e+20
146
0.0
 13
0.0
 23
0.0
 33
0.0
 16
1.0
 26
0.0
 36
0.0
 17
0.0
 27
1.0
 37
0.0
 76
1
330
1B
  0
MATERIAL
  5
1F
102
{ACAD_REACTORS
330
E
102
}
330
E
100
AcDbMaterial
  1
ByBlock
  2

 70
0
 40
1.0
 71
1
 41
1.0
 91
-1023410177
 42
1.0
 72
1
  3

 73
1
 74
1
 75
1
 44
0.5
 73
0
 45
1.0
 46
1.0
 77
1
  4

 78
1
 79
1
170
1
 48
1.0
171
1
  6

172
1
173
1
174
1
140
1.0
141
1.0
175
1
  7

176
1
177
1
178
1
143
1.0
179
1
  8

270
1
271
1
272
1
145
1.0
146
1.0
273
1
  9

274
1
275
1
276
1
 42
1.0
 72
1
  3

 73
1
 74
1
 75
1
 94
63
  0
MATERIAL
  5
20
102
{ACAD_REACTORS
330
E
102
}
330
E
100
AcDbMaterial
  1
ByLayer
  2

 70
0
 40
1.0
 71
1
 41
1.0
 91
-1023410177
 42
1.0
 72
1
  3

 73
1
 74
1
 75
1
 44
0.5
 73
0
 45
1.0
 46
1.0
 77
1
  4

 78
1
 79
1
170
1
 48
1.0
171
1
  6

172
1
173
1
174
1
140
1.0
141
1.0
175
1
  7

176
1
177
1
178
1
143
1.0
179
1
  8

270
1
271
1
272
1
145
1.0
146
1.0
273
1
  9

274
1
275
1
276
1
 42
1.0
 72
1
  3

 73
1
 74
1
 75
1
 94
63
  0
MATERIAL
  5
21
102
{ACAD_REACTORS
330
E
102
}
330
E
100
AcDbMaterial
  1
Global
  2

 70
0
 40
1.0
 71
1
 41
1.0
 91
-1023410177
 42
1.0
 72
1
  3

 73
1
 74
1
 75
1
 44
0.5
 73
0
 45
1.0
 46
1.0
 77
1
  4

 78
1
 79
1
170
1
 48
1.0
171
1
  6

172
1
173
1
174
1
140
1.0
141
1.0
175
1
  7

176
1
177
1
178
1
143
1.0
179
1
  8

270
1
271
1
272
1
145
1.0
146
1.0
273
1
  9

274
1
275
1
276
1
 42
1.0
 72
1
  3

 73
1
 74
1
 75
1
 94
63
  0
MLINESTYLE
  5
22
102
{ACAD_REACTORS
330
10
102
}
330
10
100
AcDbMlineStyle
  2
Standard
 70
0
  3

 62
256
 51
90.0
 52
90.0
 71
2
 49
0.5
 62
256
  6
BYLAYER
 49
-0.5
 62
256
  6
BYLAYER
  0
MLEADERSTYLE
  5
2C
102
{ACAD_REACTORS
330
F
102
}
330
F
100
AcDbMLeaderStyle
179
2
170
2
171
1
172
0
 90
2
 40
0.0
 41
0.0
173
1
 91
-1056964608
 92
-2
290
1
 42
2.0
291
1
 43
8.0
  3
Standard
 44
4.0
300

342
29
174
1
175
1
176
0
178
1
 93
-1056964608
 45
4.0
292
0
297
0
 46
4.0
 94
-1056964608
 47
1.0
 49
1.0
140
1.0
294
1
141
0.0
177
0
142
1.0
295
0
296
0
143
3.75
271
0
272
9
273
9
  0
DICTIONARY
  5
2D
330
A
100
AcDbDictionary
280
1
281
1
  3
CREATED_BY_EZDXF
350
2E
  3
WRITTEN_BY_EZDXF
350
225
  0
DICTIONARYVAR
  5
2E
330
2D
100
DictionaryVariables
280
0
  1
1.4.3 @ 2026-03-12T00:03:56.309660+00:00
  0
DICTIONARYVAR
  5
225
330
2D
100
DictionaryVariables
280
0
  1
1.4.3 @ 2026-03-12T00:03:56.323389+00:00
  0
ENDSEC
  0
EOF
